{"title":"Klaviersonate KV 570 2.. Satz","artist":"Mozart","durationMs":454453,"midiSha256":"2dee32dca1e66880a531af42327391872bc3406e9739fc8f1bd565f95602cfe7","midiObject":[{"NoteNumber":67,"Velocity":31,"Duration":1415762,"SoundDuration":1415762,"Delta":0},{"NoteNumber":70,"Velocity":45,"Duration":1415762,"SoundDuration":1415762,"Delta":0},{"NoteNumber":39,"Velocity":25,"Duration":1415762,"SoundDuration":1415762,"Delta":0},{"NoteNumber":51,"Velocity":36,"Duration":1415762,"SoundDuration":1415762,"Delta":0},{"NoteNumber":63,"Velocity":29,"Duration":661083,"SoundDuration":661083,"Delta":1415762},{"NoteNumber":67,"Velocity":44,"Duration":661083,"SoundDuration":661083,"Delta":1415762},{"NoteNumber":58,"Velocity":30,"Duration":661084,"SoundDuration":661084,"Delta":2076845},{"NoteNumber":65,"Velocity":45,"Duration":661084,"SoundDuration":661084,"Delta":2076845},{"NoteNumber":46,"Velocity":30,"Duration":661084,"SoundDuration":661084,"Delta":2076845},{"NoteNumber":55,"Velocity":30,"Duration":675980,"SoundDuration":675980,"Delta":2737930},{"NoteNumber":63,"Velocity":45,"Duration":675980,"SoundDuration":675980,"Delta":2737930},{"NoteNumber":51,"Velocity":36,"Duration":1329859,"SoundDuration":1329859,"Delta":2737930},{"NoteNumber":58,"Velocity":43,"Duration":653879,"SoundDuration":653879,"Delta":3413910},{"NoteNumber":63,"Velocity":45,"Duration":633178,"SoundDuration":633178,"Delta":4067789},{"NoteNumber":62,"Velocity":31,"Duration":661083,"SoundDuration":661083,"Delta":4700968},{"NoteNumber":65,"Velocity":45,"Duration":661083,"SoundDuration":661083,"Delta":4700968},{"NoteNumber":46,"Velocity":33,"Duration":661083,"SoundDuration":661083,"Delta":4700968},{"NoteNumber":63,"Velocity":34,"Duration":2617598,"SoundDuration":2617598,"Delta":5362051},{"NoteNumber":67,"Velocity":47,"Duration":661083,"SoundDuration":661083,"Delta":5362051},{"NoteNumber":51,"Velocity":36,"Duration":661083,"SoundDuration":661083,"Delta":5362051},{"NoteNumber":68,"Velocity":61,"Duration":620091,"SoundDuration":620091,"Delta":6023135},{"NoteNumber":48,"Velocity":31,"Duration":620091,"SoundDuration":620091,"Delta":6023135},{"NoteNumber":70,"Velocity":62,"Duration":620090,"SoundDuration":620090,"Delta":6643227},{"NoteNumber":43,"Velocity":36,"Duration":620090,"SoundDuration":620090,"Delta":6643227},{"NoteNumber":72,"Velocity":62,"Duration":716332,"SoundDuration":716332,"Delta":7263317},{"NoteNumber":44,"Velocity":34,"Duration":716332,"SoundDuration":716332,"Delta":7263317},{"NoteNumber":67,"Velocity":57,"Duration":991625,"SoundDuration":991625,"Delta":7979650},{"NoteNumber":63,"Velocity":40,"Duration":1322168,"SoundDuration":1322168,"Delta":7979650},{"NoteNumber":46,"Velocity":36,"Duration":1939478,"SoundDuration":1939478,"Delta":7979650},{"NoteNumber":68,"Velocity":48,"Duration":330542,"SoundDuration":330542,"Delta":8971276},{"NoteNumber":62,"Velocity":35,"Duration":1289850,"SoundDuration":1289850,"Delta":9301818},{"NoteNumber":65,"Velocity":50,"Duration":341649,"SoundDuration":341649,"Delta":9301818},{"NoteNumber":67,"Velocity":48,"Duration":326558,"SoundDuration":326558,"Delta":9618407},{"NoteNumber":68,"Velocity":49,"Duration":340253,"SoundDuration":340253,"Delta":9919129},{"NoteNumber":69,"Velocity":49,"Duration":362493,"SoundDuration":362493,"Delta":10229174},{"NoteNumber":70,"Velocity":50,"Duration":2567781,"SoundDuration":2567781,"Delta":10591668},{"NoteNumber":82,"Velocity":59,"Duration":1307758,"SoundDuration":1307758,"Delta":10591668},{"NoteNumber":67,"Velocity":36,"Duration":1307758,"SoundDuration":1307758,"Delta":10591668},{"NoteNumber":79,"Velocity":62,"Duration":620091,"SoundDuration":620091,"Delta":11899427},{"NoteNumber":63,"Velocity":36,"Duration":620091,"SoundDuration":620091,"Delta":11899427},{"NoteNumber":77,"Velocity":58,"Duration":639931,"SoundDuration":639931,"Delta":12519518},{"NoteNumber":58,"Velocity":34,"Duration":639931,"SoundDuration":639931,"Delta":12519518},{"NoteNumber":70,"Velocity":50,"Duration":490409,"SoundDuration":490409,"Delta":13159450},{"NoteNumber":75,"Velocity":60,"Duration":490409,"SoundDuration":490409,"Delta":13159450},{"NoteNumber":55,"Velocity":38,"Duration":490409,"SoundDuration":490409,"Delta":13159450},{"NoteNumber":74,"Velocity":46,"Duration":469924,"SoundDuration":469924,"Delta":13813329},{"NoteNumber":77,"Velocity":55,"Duration":469924,"SoundDuration":469924,"Delta":13813329},{"NoteNumber":58,"Velocity":34,"Duration":469924,"SoundDuration":469924,"Delta":13813329},{"NoteNumber":75,"Velocity":49,"Duration":469924,"SoundDuration":469924,"Delta":14439896},{"NoteNumber":79,"Velocity":58,"Duration":469924,"SoundDuration":469924,"Delta":14439896},{"NoteNumber":63,"Velocity":36,"Duration":469924,"SoundDuration":469924,"Delta":14439896},{"NoteNumber":75,"Velocity":51,"Duration":495813,"SoundDuration":495813,"Delta":15066462},{"NoteNumber":80,"Velocity":61,"Duration":495813,"SoundDuration":495813,"Delta":15066462},{"NoteNumber":60,"Velocity":39,"Duration":495813,"SoundDuration":495813,"Delta":15066462},{"NoteNumber":82,"Velocity":63,"Duration":653879,"SoundDuration":653879,"Delta":15727546},{"NoteNumber":75,"Velocity":54,"Duration":653879,"SoundDuration":653879,"Delta":15727546},{"NoteNumber":55,"Velocity":42,"Duration":653879,"SoundDuration":653879,"Delta":15727546},{"NoteNumber":83,"Velocity":62,"Duration":179009,"SoundDuration":179009,"Delta":16381426},{"NoteNumber":65,"Velocity":36,"Duration":646046,"SoundDuration":646046,"Delta":16381426},{"NoteNumber":56,"Velocity":30,"Duration":646046,"SoundDuration":646046,"Delta":16381426},{"NoteNumber":84,"Velocity":59,"Duration":179009,"SoundDuration":179009,"Delta":16534863},{"NoteNumber":80,"Velocity":59,"Duration":184392,"SoundDuration":184392,"Delta":16688300},{"NoteNumber":77,"Velocity":57,"Duration":185735,"SoundDuration":185735,"Delta":16841737},{"NoteNumber":75,"Velocity":64,"Duration":653879,"SoundDuration":653879,"Delta":17027472},{"NoteNumber":58,"Velocity":35,"Duration":1365194,"SoundDuration":1365194,"Delta":17027472},{"NoteNumber":67,"Velocity":42,"Duration":653879,"SoundDuration":653879,"Delta":17027472},{"NoteNumber":79,"Velocity":60,"Duration":179009,"SoundDuration":179009,"Delta":17681352},{"NoteNumber":68,"Velocity":33,"Duration":711314,"SoundDuration":711314,"Delta":17681352},{"NoteNumber":77,"Velocity":56,"Duration":179009,"SoundDuration":179009,"Delta":17834789},{"NoteNumber":76,"Velocity":56,"Duration":195271,"SoundDuration":195271,"Delta":17988226},{"NoteNumber":77,"Velocity":53,"Duration":209170,"SoundDuration":209170,"Delta":18141663},{"NoteNumber":74,"Velocity":51,"Duration":1415762,"SoundDuration":1415762,"Delta":18392667},{"NoteNumber":77,"Velocity":61,"Duration":1415762,"SoundDuration":1415762,"Delta":18392667},{"NoteNumber":63,"Velocity":28,"Duration":2123643,"SoundDuration":2123643,"Delta":18392667},{"NoteNumber":68,"Velocity":34,"Duration":1415762,"SoundDuration":1415762,"Delta":18392667},{"NoteNumber":75,"Velocity":54,"Duration":707881,"SoundDuration":707881,"Delta":19808429},{"NoteNumber":67,"Velocity":32,"Duration":707881,"SoundDuration":707881,"Delta":19808429},{"NoteNumber":67,"Velocity":31,"Duration":1415762,"SoundDuration":1415762,"Delta":21224191},{"NoteNumber":70,"Velocity":45,"Duration":1415762,"SoundDuration":1415762,"Delta":21224191},{"NoteNumber":39,"Velocity":25,"Duration":1415762,"SoundDuration":1415762,"Delta":21224191},{"NoteNumber":51,"Velocity":36,"Duration":1415762,"SoundDuration":1415762,"Delta":21224191},{"NoteNumber":63,"Velocity":29,"Duration":661083,"SoundDuration":661083,"Delta":22639953},{"NoteNumber":67,"Velocity":44,"Duration":661083,"SoundDuration":661083,"Delta":22639953},{"NoteNumber":58,"Velocity":30,"Duration":661084,"SoundDuration":661084,"Delta":23301037},{"NoteNumber":65,"Velocity":45,"Duration":661084,"SoundDuration":661084,"Delta":23301037},{"NoteNumber":46,"Velocity":30,"Duration":661084,"SoundDuration":661084,"Delta":23301037},{"NoteNumber":55,"Velocity":30,"Duration":675979,"SoundDuration":675979,"Delta":23962121},{"NoteNumber":63,"Velocity":45,"Duration":675979,"SoundDuration":675979,"Delta":23962121},{"NoteNumber":51,"Velocity":36,"Duration":1329859,"SoundDuration":1329859,"Delta":23962121},{"NoteNumber":58,"Velocity":43,"Duration":653879,"SoundDuration":653879,"Delta":24638101},{"NoteNumber":63,"Velocity":45,"Duration":633178,"SoundDuration":633178,"Delta":25291980},{"NoteNumber":62,"Velocity":31,"Duration":661083,"SoundDuration":661083,"Delta":25925159},{"NoteNumber":65,"Velocity":45,"Duration":661083,"SoundDuration":661083,"Delta":25925159},{"NoteNumber":46,"Velocity":33,"Duration":661083,"SoundDuration":661083,"Delta":25925159},{"NoteNumber":63,"Velocity":34,"Duration":2617598,"SoundDuration":2617598,"Delta":26586243},{"NoteNumber":67,"Velocity":47,"Duration":661083,"SoundDuration":661083,"Delta":26586243},{"NoteNumber":51,"Velocity":36,"Duration":661083,"SoundDuration":661083,"Delta":26586243},{"NoteNumber":68,"Velocity":59,"Duration":620090,"SoundDuration":620090,"Delta":27247327},{"NoteNumber":48,"Velocity":31,"Duration":620090,"SoundDuration":620090,"Delta":27247327},{"NoteNumber":70,"Velocity":62,"Duration":620091,"SoundDuration":620091,"Delta":27867418},{"NoteNumber":43,"Velocity":36,"Duration":620091,"SoundDuration":620091,"Delta":27867418},{"NoteNumber":72,"Velocity":59,"Duration":716332,"SoundDuration":716332,"Delta":28487509},{"NoteNumber":44,"Velocity":34,"Duration":716332,"SoundDuration":716332,"Delta":28487509},{"NoteNumber":67,"Velocity":57,"Duration":991626,"SoundDuration":991626,"Delta":29203841},{"NoteNumber":63,"Velocity":40,"Duration":1322168,"SoundDuration":1322168,"Delta":29203841},{"NoteNumber":46,"Velocity":36,"Duration":1939479,"SoundDuration":1939479,"Delta":29203841},{"NoteNumber":68,"Velocity":48,"Duration":330542,"SoundDuration":330542,"Delta":30195467},{"NoteNumber":62,"Velocity":35,"Duration":1289850,"SoundDuration":1289850,"Delta":30526009},{"NoteNumber":65,"Velocity":50,"Duration":341649,"SoundDuration":341649,"Delta":30526009},{"NoteNumber":67,"Velocity":48,"Duration":326558,"SoundDuration":326558,"Delta":30842599},{"NoteNumber":68,"Velocity":49,"Duration":340253,"SoundDuration":340253,"Delta":31143320},{"NoteNumber":69,"Velocity":49,"Duration":362494,"SoundDuration":362494,"Delta":31453366},{"NoteNumber":70,"Velocity":50,"Duration":2567781,"SoundDuration":2567781,"Delta":31815860},{"NoteNumber":82,"Velocity":59,"Duration":1307758,"SoundDuration":1307758,"Delta":31815860},{"NoteNumber":67,"Velocity":36,"Duration":1307758,"SoundDuration":1307758,"Delta":31815860},{"NoteNumber":79,"Velocity":62,"Duration":620091,"SoundDuration":620091,"Delta":33123619},{"NoteNumber":63,"Velocity":36,"Duration":620091,"SoundDuration":620091,"Delta":33123619},{"NoteNumber":77,"Velocity":58,"Duration":639931,"SoundDuration":639931,"Delta":33743710},{"NoteNumber":58,"Velocity":34,"Duration":639931,"SoundDuration":639931,"Delta":33743710},{"NoteNumber":70,"Velocity":50,"Duration":490409,"SoundDuration":490409,"Delta":34383642},{"NoteNumber":75,"Velocity":60,"Duration":490409,"SoundDuration":490409,"Delta":34383642},{"NoteNumber":55,"Velocity":38,"Duration":490409,"SoundDuration":490409,"Delta":34383642},{"NoteNumber":74,"Velocity":46,"Duration":469924,"SoundDuration":469924,"Delta":35037521},{"NoteNumber":77,"Velocity":55,"Duration":469924,"SoundDuration":469924,"Delta":35037521},{"NoteNumber":58,"Velocity":34,"Duration":469924,"SoundDuration":469924,"Delta":35037521},{"NoteNumber":75,"Velocity":49,"Duration":469924,"SoundDuration":469924,"Delta":35664088},{"NoteNumber":79,"Velocity":58,"Duration":469924,"SoundDuration":469924,"Delta":35664088},{"NoteNumber":63,"Velocity":36,"Duration":469924,"SoundDuration":469924,"Delta":35664088},{"NoteNumber":75,"Velocity":51,"Duration":495812,"SoundDuration":495812,"Delta":36290654},{"NoteNumber":80,"Velocity":61,"Duration":495812,"SoundDuration":495812,"Delta":36290654},{"NoteNumber":60,"Velocity":39,"Duration":495812,"SoundDuration":495812,"Delta":36290654},{"NoteNumber":82,"Velocity":63,"Duration":653879,"SoundDuration":653879,"Delta":36951738},{"NoteNumber":75,"Velocity":54,"Duration":653879,"SoundDuration":653879,"Delta":36951738},{"NoteNumber":55,"Velocity":42,"Duration":653879,"SoundDuration":653879,"Delta":36951738},{"NoteNumber":83,"Velocity":63,"Duration":179009,"SoundDuration":179009,"Delta":37605618},{"NoteNumber":65,"Velocity":36,"Duration":646046,"SoundDuration":646046,"Delta":37605618},{"NoteNumber":56,"Velocity":30,"Duration":646046,"SoundDuration":646046,"Delta":37605618},{"NoteNumber":84,"Velocity":59,"Duration":179009,"SoundDuration":179009,"Delta":37759055},{"NoteNumber":80,"Velocity":59,"Duration":184392,"SoundDuration":184392,"Delta":37912492},{"NoteNumber":77,"Velocity":57,"Duration":185735,"SoundDuration":185735,"Delta":38065929},{"NoteNumber":75,"Velocity":64,"Duration":653879,"SoundDuration":653879,"Delta":38251664},{"NoteNumber":58,"Velocity":35,"Duration":1365194,"SoundDuration":1365194,"Delta":38251664},{"NoteNumber":67,"Velocity":42,"Duration":653879,"SoundDuration":653879,"Delta":38251664},{"NoteNumber":79,"Velocity":60,"Duration":179009,"SoundDuration":179009,"Delta":38905544},{"NoteNumber":68,"Velocity":33,"Duration":711314,"SoundDuration":711314,"Delta":38905544},{"NoteNumber":77,"Velocity":56,"Duration":179009,"SoundDuration":179009,"Delta":39058981},{"NoteNumber":76,"Velocity":56,"Duration":195270,"SoundDuration":195270,"Delta":39212418},{"NoteNumber":77,"Velocity":53,"Duration":209170,"SoundDuration":209170,"Delta":39365855},{"NoteNumber":74,"Velocity":51,"Duration":1415762,"SoundDuration":1415762,"Delta":39616859},{"NoteNumber":77,"Velocity":61,"Duration":1415762,"SoundDuration":1415762,"Delta":39616859},{"NoteNumber":63,"Velocity":28,"Duration":2123643,"SoundDuration":2123643,"Delta":39616859},{"NoteNumber":68,"Velocity":34,"Duration":1415762,"SoundDuration":1415762,"Delta":39616859},{"NoteNumber":75,"Velocity":54,"Duration":707881,"SoundDuration":707881,"Delta":41032621},{"NoteNumber":67,"Velocity":32,"Duration":707881,"SoundDuration":707881,"Delta":41032621},{"NoteNumber":77,"Velocity":60,"Duration":1322167,"SoundDuration":1322167,"Delta":42448383},{"NoteNumber":62,"Velocity":32,"Duration":661084,"SoundDuration":661084,"Delta":42448383},{"NoteNumber":58,"Velocity":29,"Duration":661083,"SoundDuration":661083,"Delta":43109467},{"NoteNumber":79,"Velocity":60,"Duration":661084,"SoundDuration":661084,"Delta":43770551},{"NoteNumber":63,"Velocity":32,"Duration":661084,"SoundDuration":661084,"Delta":43770551},{"NoteNumber":75,"Velocity":55,"Duration":724988,"SoundDuration":724988,"Delta":44431635},{"NoteNumber":58,"Velocity":28,"Duration":724988,"SoundDuration":724988,"Delta":44431635},{"NoteNumber":80,"Velocity":60,"Duration":991625,"SoundDuration":991625,"Delta":45156623},{"NoteNumber":58,"Velocity":29,"Duration":1322167,"SoundDuration":1322167,"Delta":45156623},{"NoteNumber":65,"Velocity":35,"Duration":1322167,"SoundDuration":1322167,"Delta":45156623},{"NoteNumber":77,"Velocity":54,"Duration":330542,"SoundDuration":330542,"Delta":46148249},{"NoteNumber":74,"Velocity":56,"Duration":373326,"SoundDuration":373326,"Delta":46478791},{"NoteNumber":75,"Velocity":55,"Duration":356924,"SoundDuration":356924,"Delta":46824572},{"NoteNumber":77,"Velocity":57,"Duration":342971,"SoundDuration":342971,"Delta":47155114},{"NoteNumber":78,"Velocity":59,"Duration":373904,"SoundDuration":373904,"Delta":47471703},{"NoteNumber":79,"Velocity":60,"Duration":661084,"SoundDuration":661084,"Delta":47818062},{"NoteNumber":63,"Velocity":32,"Duration":661084,"SoundDuration":661084,"Delta":47818062},{"NoteNumber":79,"Velocity":63,"Duration":661083,"SoundDuration":661083,"Delta":48479146},{"NoteNumber":63,"Velocity":32,"Duration":661083,"SoundDuration":661083,"Delta":48479146},{"NoteNumber":80,"Velocity":63,"Duration":661084,"SoundDuration":661084,"Delta":49140230},{"NoteNumber":65,"Velocity":32,"Duration":661084,"SoundDuration":661084,"Delta":49140230},{"NoteNumber":63,"Velocity":27,"Duration":661084,"SoundDuration":661084,"Delta":49140230},{"NoteNumber":81,"Velocity":63,"Duration":716332,"SoundDuration":716332,"Delta":49801314},{"NoteNumber":66,"Velocity":32,"Duration":716332,"SoundDuration":716332,"Delta":49801314},{"NoteNumber":63,"Velocity":27,"Duration":716332,"SoundDuration":716332,"Delta":49801314},{"NoteNumber":82,"Velocity":67,"Duration":991625,"SoundDuration":991625,"Delta":50517647},{"NoteNumber":63,"Velocity":30,"Duration":1322167,"SoundDuration":1322167,"Delta":50517647},{"NoteNumber":67,"Velocity":36,"Duration":1322167,"SoundDuration":1322167,"Delta":50517647},{"NoteNumber":84,"Velocity":58,"Duration":137725,"SoundDuration":137725,"Delta":51509273},{"NoteNumber":82,"Velocity":58,"Duration":137725,"SoundDuration":137725,"Delta":51619453},{"NoteNumber":80,"Velocity":58,"Duration":137725,"SoundDuration":137725,"Delta":51729634},{"NoteNumber":79,"Velocity":62,"Duration":330542,"SoundDuration":330542,"Delta":51839815},{"NoteNumber":80,"Velocity":56,"Duration":342971,"SoundDuration":342971,"Delta":52170357},{"NoteNumber":82,"Velocity":60,"Duration":346084,"SoundDuration":346084,"Delta":52486946},{"NoteNumber":83,"Velocity":63,"Duration":353940,"SoundDuration":353940,"Delta":52803535},{"NoteNumber":84,"Velocity":63,"Duration":1352647,"SoundDuration":1352647,"Delta":53157476},{"NoteNumber":68,"Velocity":28,"Duration":661084,"SoundDuration":661084,"Delta":53849039},{"NoteNumber":75,"Velocity":34,"Duration":661084,"SoundDuration":661084,"Delta":53849039},{"NoteNumber":82,"Velocity":63,"Duration":1352647,"SoundDuration":1352647,"Delta":54510123},{"NoteNumber":66,"Velocity":28,"Duration":661084,"SoundDuration":661084,"Delta":55201686},{"NoteNumber":75,"Velocity":34,"Duration":661084,"SoundDuration":661084,"Delta":55201686},{"NoteNumber":81,"Velocity":63,"Duration":1339117,"SoundDuration":1339117,"Delta":55862770},{"NoteNumber":65,"Velocity":28,"Duration":661084,"SoundDuration":661084,"Delta":56540803},{"NoteNumber":75,"Velocity":34,"Duration":661084,"SoundDuration":661084,"Delta":56540803},{"NoteNumber":80,"Velocity":63,"Duration":1353506,"SoundDuration":1353506,"Delta":57201887},{"NoteNumber":59,"Velocity":28,"Duration":653879,"SoundDuration":653879,"Delta":57901514},{"NoteNumber":62,"Velocity":34,"Duration":653879,"SoundDuration":653879,"Delta":57901514},{"NoteNumber":79,"Velocity":67,"Duration":653879,"SoundDuration":653879,"Delta":58555393},{"NoteNumber":60,"Velocity":30,"Duration":1345442,"SoundDuration":1345442,"Delta":58555393},{"NoteNumber":63,"Velocity":36,"Duration":1345442,"SoundDuration":1345442,"Delta":58555393},{"NoteNumber":87,"Velocity":68,"Duration":691563,"SoundDuration":691563,"Delta":59209273},{"NoteNumber":77,"Velocity":67,"Duration":653879,"SoundDuration":653879,"Delta":59900836},{"NoteNumber":56,"Velocity":30,"Duration":653879,"SoundDuration":653879,"Delta":59900836},{"NoteNumber":60,"Velocity":36,"Duration":653879,"SoundDuration":653879,"Delta":59900836},{"NoteNumber":84,"Velocity":64,"Duration":781657,"SoundDuration":781657,"Delta":60554715},{"NoteNumber":68,"Velocity":30,"Duration":781657,"SoundDuration":781657,"Delta":60554715},{"NoteNumber":75,"Velocity":56,"Duration":995721,"SoundDuration":995721,"Delta":61336372},{"NoteNumber":58,"Velocity":27,"Duration":2138433,"SoundDuration":2138433,"Delta":61336372},{"NoteNumber":67,"Velocity":32,"Duration":1376625,"SoundDuration":1376625,"Delta":61336372},{"NoteNumber":77,"Velocity":46,"Duration":190452,"SoundDuration":190452,"Delta":62332093},{"NoteNumber":75,"Velocity":42,"Duration":190452,"SoundDuration":190452,"Delta":62522545},{"NoteNumber":74,"Velocity":45,"Duration":761808,"SoundDuration":761808,"Delta":62712997},{"NoteNumber":65,"Velocity":32,"Duration":761808,"SoundDuration":761808,"Delta":62712997},{"NoteNumber":67,"Velocity":31,"Duration":1415762,"SoundDuration":1415762,"Delta":64236613},{"NoteNumber":70,"Velocity":45,"Duration":1415762,"SoundDuration":1415762,"Delta":64236613},{"NoteNumber":39,"Velocity":25,"Duration":1415762,"SoundDuration":1415762,"Delta":64236613},{"NoteNumber":51,"Velocity":36,"Duration":1415762,"SoundDuration":1415762,"Delta":64236613},{"NoteNumber":63,"Velocity":29,"Duration":661084,"SoundDuration":661084,"Delta":65652375},{"NoteNumber":67,"Velocity":44,"Duration":661084,"SoundDuration":661084,"Delta":65652375},{"NoteNumber":58,"Velocity":30,"Duration":661084,"SoundDuration":661084,"Delta":66313459},{"NoteNumber":65,"Velocity":45,"Duration":661084,"SoundDuration":661084,"Delta":66313459},{"NoteNumber":46,"Velocity":30,"Duration":661084,"SoundDuration":661084,"Delta":66313459},{"NoteNumber":55,"Velocity":30,"Duration":675979,"SoundDuration":675979,"Delta":66974543},{"NoteNumber":63,"Velocity":45,"Duration":675979,"SoundDuration":675979,"Delta":66974543},{"NoteNumber":51,"Velocity":36,"Duration":1329859,"SoundDuration":1329859,"Delta":66974543},{"NoteNumber":58,"Velocity":43,"Duration":653879,"SoundDuration":653879,"Delta":67650523},{"NoteNumber":63,"Velocity":45,"Duration":633178,"SoundDuration":633178,"Delta":68304403},{"NoteNumber":62,"Velocity":31,"Duration":661084,"SoundDuration":661084,"Delta":68937581},{"NoteNumber":65,"Velocity":45,"Duration":661084,"SoundDuration":661084,"Delta":68937581},{"NoteNumber":46,"Velocity":33,"Duration":661084,"SoundDuration":661084,"Delta":68937581},{"NoteNumber":63,"Velocity":34,"Duration":2617598,"SoundDuration":2617598,"Delta":69598665},{"NoteNumber":67,"Velocity":47,"Duration":661084,"SoundDuration":661084,"Delta":69598665},{"NoteNumber":51,"Velocity":36,"Duration":661084,"SoundDuration":661084,"Delta":69598665},{"NoteNumber":68,"Velocity":61,"Duration":620091,"SoundDuration":620091,"Delta":70259749},{"NoteNumber":48,"Velocity":31,"Duration":620091,"SoundDuration":620091,"Delta":70259749},{"NoteNumber":70,"Velocity":62,"Duration":620091,"SoundDuration":620091,"Delta":70879840},{"NoteNumber":43,"Velocity":36,"Duration":620091,"SoundDuration":620091,"Delta":70879840},{"NoteNumber":72,"Velocity":62,"Duration":716332,"SoundDuration":716332,"Delta":71499931},{"NoteNumber":44,"Velocity":34,"Duration":716332,"SoundDuration":716332,"Delta":71499931},{"NoteNumber":67,"Velocity":57,"Duration":991625,"SoundDuration":991625,"Delta":72216264},{"NoteNumber":63,"Velocity":40,"Duration":1322168,"SoundDuration":1322168,"Delta":72216264},{"NoteNumber":46,"Velocity":36,"Duration":1939479,"SoundDuration":1939479,"Delta":72216264},{"NoteNumber":68,"Velocity":48,"Duration":330542,"SoundDuration":330542,"Delta":73207890},{"NoteNumber":62,"Velocity":35,"Duration":1289850,"SoundDuration":1289850,"Delta":73538432},{"NoteNumber":65,"Velocity":50,"Duration":341649,"SoundDuration":341649,"Delta":73538432},{"NoteNumber":67,"Velocity":48,"Duration":326558,"SoundDuration":326558,"Delta":73855021},{"NoteNumber":68,"Velocity":49,"Duration":340253,"SoundDuration":340253,"Delta":74155743},{"NoteNumber":69,"Velocity":49,"Duration":362493,"SoundDuration":362493,"Delta":74465788},{"NoteNumber":70,"Velocity":50,"Duration":2567781,"SoundDuration":2567781,"Delta":74828282},{"NoteNumber":82,"Velocity":59,"Duration":1307759,"SoundDuration":1307759,"Delta":74828282},{"NoteNumber":67,"Velocity":36,"Duration":1307759,"SoundDuration":1307759,"Delta":74828282},{"NoteNumber":79,"Velocity":62,"Duration":620091,"SoundDuration":620091,"Delta":76136041},{"NoteNumber":63,"Velocity":36,"Duration":620091,"SoundDuration":620091,"Delta":76136041},{"NoteNumber":77,"Velocity":58,"Duration":639931,"SoundDuration":639931,"Delta":76756132},{"NoteNumber":58,"Velocity":34,"Duration":639931,"SoundDuration":639931,"Delta":76756132},{"NoteNumber":70,"Velocity":50,"Duration":490409,"SoundDuration":490409,"Delta":77396064},{"NoteNumber":75,"Velocity":60,"Duration":490409,"SoundDuration":490409,"Delta":77396064},{"NoteNumber":55,"Velocity":38,"Duration":490409,"SoundDuration":490409,"Delta":77396064},{"NoteNumber":74,"Velocity":46,"Duration":469924,"SoundDuration":469924,"Delta":78049943},{"NoteNumber":77,"Velocity":55,"Duration":469924,"SoundDuration":469924,"Delta":78049943},{"NoteNumber":58,"Velocity":34,"Duration":469924,"SoundDuration":469924,"Delta":78049943},{"NoteNumber":75,"Velocity":49,"Duration":469924,"SoundDuration":469924,"Delta":78676510},{"NoteNumber":79,"Velocity":58,"Duration":469924,"SoundDuration":469924,"Delta":78676510},{"NoteNumber":63,"Velocity":36,"Duration":469924,"SoundDuration":469924,"Delta":78676510},{"NoteNumber":75,"Velocity":51,"Duration":495812,"SoundDuration":495812,"Delta":79303076},{"NoteNumber":80,"Velocity":61,"Duration":495812,"SoundDuration":495812,"Delta":79303076},{"NoteNumber":60,"Velocity":39,"Duration":495812,"SoundDuration":495812,"Delta":79303076},{"NoteNumber":82,"Velocity":63,"Duration":653879,"SoundDuration":653879,"Delta":79964160},{"NoteNumber":75,"Velocity":54,"Duration":653879,"SoundDuration":653879,"Delta":79964160},{"NoteNumber":55,"Velocity":42,"Duration":653879,"SoundDuration":653879,"Delta":79964160},{"NoteNumber":83,"Velocity":62,"Duration":179009,"SoundDuration":179009,"Delta":80618040},{"NoteNumber":65,"Velocity":36,"Duration":646046,"SoundDuration":646046,"Delta":80618040},{"NoteNumber":56,"Velocity":30,"Duration":646046,"SoundDuration":646046,"Delta":80618040},{"NoteNumber":84,"Velocity":59,"Duration":179009,"SoundDuration":179009,"Delta":80771477},{"NoteNumber":80,"Velocity":59,"Duration":184392,"SoundDuration":184392,"Delta":80924914},{"NoteNumber":77,"Velocity":57,"Duration":185735,"SoundDuration":185735,"Delta":81078351},{"NoteNumber":75,"Velocity":64,"Duration":653879,"SoundDuration":653879,"Delta":81264086},{"NoteNumber":58,"Velocity":35,"Duration":1365194,"SoundDuration":1365194,"Delta":81264086},{"NoteNumber":67,"Velocity":42,"Duration":653879,"SoundDuration":653879,"Delta":81264086},{"NoteNumber":79,"Velocity":60,"Duration":179009,"SoundDuration":179009,"Delta":81917966},{"NoteNumber":68,"Velocity":33,"Duration":711314,"SoundDuration":711314,"Delta":81917966},{"NoteNumber":77,"Velocity":56,"Duration":179009,"SoundDuration":179009,"Delta":82071403},{"NoteNumber":76,"Velocity":56,"Duration":195271,"SoundDuration":195271,"Delta":82224840},{"NoteNumber":77,"Velocity":53,"Duration":209170,"SoundDuration":209170,"Delta":82378277},{"NoteNumber":74,"Velocity":51,"Duration":1415762,"SoundDuration":1415762,"Delta":82629281},{"NoteNumber":77,"Velocity":61,"Duration":1415762,"SoundDuration":1415762,"Delta":82629281},{"NoteNumber":63,"Velocity":28,"Duration":2123643,"SoundDuration":2123643,"Delta":82629281},{"NoteNumber":68,"Velocity":34,"Duration":1415762,"SoundDuration":1415762,"Delta":82629281},{"NoteNumber":75,"Velocity":54,"Duration":707881,"SoundDuration":707881,"Delta":84045043},{"NoteNumber":67,"Velocity":32,"Duration":707881,"SoundDuration":707881,"Delta":84045043},{"NoteNumber":77,"Velocity":60,"Duration":1322168,"SoundDuration":1322168,"Delta":85460805},{"NoteNumber":62,"Velocity":32,"Duration":661084,"SoundDuration":661084,"Delta":85460805},{"NoteNumber":58,"Velocity":29,"Duration":661084,"SoundDuration":661084,"Delta":86121889},{"NoteNumber":79,"Velocity":60,"Duration":661083,"SoundDuration":661083,"Delta":86782973},{"NoteNumber":63,"Velocity":32,"Duration":661083,"SoundDuration":661083,"Delta":86782973},{"NoteNumber":75,"Velocity":55,"Duration":724987,"SoundDuration":724987,"Delta":87444057},{"NoteNumber":58,"Velocity":28,"Duration":724987,"SoundDuration":724987,"Delta":87444057},{"NoteNumber":80,"Velocity":60,"Duration":991625,"SoundDuration":991625,"Delta":88169045},{"NoteNumber":58,"Velocity":29,"Duration":1322168,"SoundDuration":1322168,"Delta":88169045},{"NoteNumber":65,"Velocity":35,"Duration":1322168,"SoundDuration":1322168,"Delta":88169045},{"NoteNumber":77,"Velocity":54,"Duration":330542,"SoundDuration":330542,"Delta":89160671},{"NoteNumber":74,"Velocity":56,"Duration":373326,"SoundDuration":373326,"Delta":89491213},{"NoteNumber":75,"Velocity":55,"Duration":356924,"SoundDuration":356924,"Delta":89836994},{"NoteNumber":77,"Velocity":57,"Duration":342971,"SoundDuration":342971,"Delta":90167536},{"NoteNumber":78,"Velocity":59,"Duration":373904,"SoundDuration":373904,"Delta":90484126},{"NoteNumber":79,"Velocity":60,"Duration":661084,"SoundDuration":661084,"Delta":90830485},{"NoteNumber":63,"Velocity":32,"Duration":661084,"SoundDuration":661084,"Delta":90830485},{"NoteNumber":79,"Velocity":63,"Duration":661084,"SoundDuration":661084,"Delta":91491569},{"NoteNumber":63,"Velocity":32,"Duration":661084,"SoundDuration":661084,"Delta":91491569},{"NoteNumber":80,"Velocity":63,"Duration":661083,"SoundDuration":661083,"Delta":92152653},{"NoteNumber":65,"Velocity":32,"Duration":661083,"SoundDuration":661083,"Delta":92152653},{"NoteNumber":63,"Velocity":27,"Duration":661083,"SoundDuration":661083,"Delta":92152653},{"NoteNumber":81,"Velocity":63,"Duration":716332,"SoundDuration":716332,"Delta":92813737},{"NoteNumber":66,"Velocity":32,"Duration":716332,"SoundDuration":716332,"Delta":92813737},{"NoteNumber":63,"Velocity":27,"Duration":716332,"SoundDuration":716332,"Delta":92813737},{"NoteNumber":82,"Velocity":67,"Duration":991625,"SoundDuration":991625,"Delta":93530069},{"NoteNumber":63,"Velocity":30,"Duration":1322168,"SoundDuration":1322168,"Delta":93530069},{"NoteNumber":67,"Velocity":36,"Duration":1322168,"SoundDuration":1322168,"Delta":93530069},{"NoteNumber":84,"Velocity":58,"Duration":137725,"SoundDuration":137725,"Delta":94521695},{"NoteNumber":82,"Velocity":58,"Duration":137725,"SoundDuration":137725,"Delta":94631876},{"NoteNumber":80,"Velocity":58,"Duration":137725,"SoundDuration":137725,"Delta":94742056},{"NoteNumber":79,"Velocity":62,"Duration":330541,"SoundDuration":330541,"Delta":94852237},{"NoteNumber":80,"Velocity":56,"Duration":342971,"SoundDuration":342971,"Delta":95182779},{"NoteNumber":82,"Velocity":60,"Duration":346084,"SoundDuration":346084,"Delta":95499368},{"NoteNumber":83,"Velocity":63,"Duration":353940,"SoundDuration":353940,"Delta":95815958},{"NoteNumber":84,"Velocity":63,"Duration":1352647,"SoundDuration":1352647,"Delta":96169898},{"NoteNumber":68,"Velocity":28,"Duration":661084,"SoundDuration":661084,"Delta":96861461},{"NoteNumber":75,"Velocity":34,"Duration":661084,"SoundDuration":661084,"Delta":96861461},{"NoteNumber":82,"Velocity":63,"Duration":1352647,"SoundDuration":1352647,"Delta":97522545},{"NoteNumber":66,"Velocity":28,"Duration":661084,"SoundDuration":661084,"Delta":98214108},{"NoteNumber":75,"Velocity":34,"Duration":661084,"SoundDuration":661084,"Delta":98214108},{"NoteNumber":81,"Velocity":63,"Duration":1339117,"SoundDuration":1339117,"Delta":98875192},{"NoteNumber":65,"Velocity":28,"Duration":661084,"SoundDuration":661084,"Delta":99553225},{"NoteNumber":75,"Velocity":34,"Duration":661084,"SoundDuration":661084,"Delta":99553225},{"NoteNumber":80,"Velocity":63,"Duration":1353506,"SoundDuration":1353506,"Delta":100214309},{"NoteNumber":59,"Velocity":28,"Duration":653879,"SoundDuration":653879,"Delta":100913936},{"NoteNumber":62,"Velocity":34,"Duration":653879,"SoundDuration":653879,"Delta":100913936},{"NoteNumber":79,"Velocity":67,"Duration":653879,"SoundDuration":653879,"Delta":101567816},{"NoteNumber":60,"Velocity":30,"Duration":1345442,"SoundDuration":1345442,"Delta":101567816},{"NoteNumber":63,"Velocity":36,"Duration":1345442,"SoundDuration":1345442,"Delta":101567816},{"NoteNumber":87,"Velocity":68,"Duration":691563,"SoundDuration":691563,"Delta":102221695},{"NoteNumber":77,"Velocity":67,"Duration":653879,"SoundDuration":653879,"Delta":102913258},{"NoteNumber":56,"Velocity":30,"Duration":653879,"SoundDuration":653879,"Delta":102913258},{"NoteNumber":60,"Velocity":36,"Duration":653879,"SoundDuration":653879,"Delta":102913258},{"NoteNumber":84,"Velocity":64,"Duration":781656,"SoundDuration":781656,"Delta":103567138},{"NoteNumber":68,"Velocity":30,"Duration":781656,"SoundDuration":781656,"Delta":103567138},{"NoteNumber":75,"Velocity":56,"Duration":995721,"SoundDuration":995721,"Delta":104348795},{"NoteNumber":58,"Velocity":27,"Duration":2138433,"SoundDuration":2138433,"Delta":104348795},{"NoteNumber":67,"Velocity":32,"Duration":1376625,"SoundDuration":1376625,"Delta":104348795},{"NoteNumber":77,"Velocity":46,"Duration":190451,"SoundDuration":190451,"Delta":105344516},{"NoteNumber":75,"Velocity":42,"Duration":190452,"SoundDuration":190452,"Delta":105534968},{"NoteNumber":74,"Velocity":45,"Duration":761808,"SoundDuration":761808,"Delta":105725420},{"NoteNumber":65,"Velocity":32,"Duration":761808,"SoundDuration":761808,"Delta":105725420},{"NoteNumber":67,"Velocity":31,"Duration":1415762,"SoundDuration":1415762,"Delta":107249036},{"NoteNumber":70,"Velocity":45,"Duration":1415762,"SoundDuration":1415762,"Delta":107249036},{"NoteNumber":39,"Velocity":25,"Duration":1415762,"SoundDuration":1415762,"Delta":107249036},{"NoteNumber":51,"Velocity":36,"Duration":1415762,"SoundDuration":1415762,"Delta":107249036},{"NoteNumber":63,"Velocity":29,"Duration":661084,"SoundDuration":661084,"Delta":108664798},{"NoteNumber":67,"Velocity":44,"Duration":661084,"SoundDuration":661084,"Delta":108664798},{"NoteNumber":58,"Velocity":30,"Duration":661084,"SoundDuration":661084,"Delta":109325882},{"NoteNumber":65,"Velocity":45,"Duration":661084,"SoundDuration":661084,"Delta":109325882},{"NoteNumber":46,"Velocity":30,"Duration":661084,"SoundDuration":661084,"Delta":109325882},{"NoteNumber":55,"Velocity":30,"Duration":675979,"SoundDuration":675979,"Delta":109986966},{"NoteNumber":63,"Velocity":45,"Duration":675979,"SoundDuration":675979,"Delta":109986966},{"NoteNumber":51,"Velocity":36,"Duration":1329859,"SoundDuration":1329859,"Delta":109986966},{"NoteNumber":58,"Velocity":43,"Duration":653879,"SoundDuration":653879,"Delta":110662946},{"NoteNumber":63,"Velocity":45,"Duration":633178,"SoundDuration":633178,"Delta":111316825},{"NoteNumber":62,"Velocity":31,"Duration":661084,"SoundDuration":661084,"Delta":111950004},{"NoteNumber":65,"Velocity":45,"Duration":661084,"SoundDuration":661084,"Delta":111950004},{"NoteNumber":46,"Velocity":33,"Duration":661084,"SoundDuration":661084,"Delta":111950004},{"NoteNumber":63,"Velocity":34,"Duration":2617598,"SoundDuration":2617598,"Delta":112611088},{"NoteNumber":67,"Velocity":47,"Duration":661084,"SoundDuration":661084,"Delta":112611088},{"NoteNumber":51,"Velocity":36,"Duration":661084,"SoundDuration":661084,"Delta":112611088},{"NoteNumber":68,"Velocity":61,"Duration":620091,"SoundDuration":620091,"Delta":113272172},{"NoteNumber":48,"Velocity":31,"Duration":620091,"SoundDuration":620091,"Delta":113272172},{"NoteNumber":70,"Velocity":62,"Duration":620091,"SoundDuration":620091,"Delta":113892263},{"NoteNumber":43,"Velocity":36,"Duration":620091,"SoundDuration":620091,"Delta":113892263},{"NoteNumber":72,"Velocity":62,"Duration":716332,"SoundDuration":716332,"Delta":114512354},{"NoteNumber":44,"Velocity":34,"Duration":716332,"SoundDuration":716332,"Delta":114512354},{"NoteNumber":67,"Velocity":57,"Duration":991625,"SoundDuration":991625,"Delta":115228686},{"NoteNumber":63,"Velocity":40,"Duration":1322168,"SoundDuration":1322168,"Delta":115228686},{"NoteNumber":46,"Velocity":36,"Duration":1939479,"SoundDuration":1939479,"Delta":115228686},{"NoteNumber":68,"Velocity":48,"Duration":330542,"SoundDuration":330542,"Delta":116220312},{"NoteNumber":62,"Velocity":35,"Duration":1289850,"SoundDuration":1289850,"Delta":116550854},{"NoteNumber":65,"Velocity":50,"Duration":341649,"SoundDuration":341649,"Delta":116550854},{"NoteNumber":67,"Velocity":48,"Duration":326558,"SoundDuration":326558,"Delta":116867444},{"NoteNumber":68,"Velocity":49,"Duration":340253,"SoundDuration":340253,"Delta":117168165},{"NoteNumber":69,"Velocity":49,"Duration":362493,"SoundDuration":362493,"Delta":117478211},{"NoteNumber":70,"Velocity":50,"Duration":2567781,"SoundDuration":2567781,"Delta":117840705},{"NoteNumber":82,"Velocity":59,"Duration":1307759,"SoundDuration":1307759,"Delta":117840705},{"NoteNumber":67,"Velocity":36,"Duration":1307759,"SoundDuration":1307759,"Delta":117840705},{"NoteNumber":79,"Velocity":62,"Duration":620091,"SoundDuration":620091,"Delta":119148464},{"NoteNumber":63,"Velocity":36,"Duration":620091,"SoundDuration":620091,"Delta":119148464},{"NoteNumber":77,"Velocity":58,"Duration":639931,"SoundDuration":639931,"Delta":119768555},{"NoteNumber":58,"Velocity":34,"Duration":639931,"SoundDuration":639931,"Delta":119768555},{"NoteNumber":70,"Velocity":50,"Duration":490409,"SoundDuration":490409,"Delta":120408486},{"NoteNumber":75,"Velocity":60,"Duration":490409,"SoundDuration":490409,"Delta":120408486},{"NoteNumber":55,"Velocity":38,"Duration":490409,"SoundDuration":490409,"Delta":120408486},{"NoteNumber":74,"Velocity":46,"Duration":469924,"SoundDuration":469924,"Delta":121062366},{"NoteNumber":77,"Velocity":55,"Duration":469924,"SoundDuration":469924,"Delta":121062366},{"NoteNumber":58,"Velocity":34,"Duration":469924,"SoundDuration":469924,"Delta":121062366},{"NoteNumber":75,"Velocity":49,"Duration":469924,"SoundDuration":469924,"Delta":121688932},{"NoteNumber":79,"Velocity":58,"Duration":469924,"SoundDuration":469924,"Delta":121688932},{"NoteNumber":63,"Velocity":36,"Duration":469924,"SoundDuration":469924,"Delta":121688932},{"NoteNumber":75,"Velocity":51,"Duration":495812,"SoundDuration":495812,"Delta":122315499},{"NoteNumber":80,"Velocity":61,"Duration":495812,"SoundDuration":495812,"Delta":122315499},{"NoteNumber":60,"Velocity":39,"Duration":495812,"SoundDuration":495812,"Delta":122315499},{"NoteNumber":82,"Velocity":63,"Duration":653879,"SoundDuration":653879,"Delta":122976583},{"NoteNumber":75,"Velocity":54,"Duration":653879,"SoundDuration":653879,"Delta":122976583},{"NoteNumber":55,"Velocity":42,"Duration":653879,"SoundDuration":653879,"Delta":122976583},{"NoteNumber":83,"Velocity":62,"Duration":179009,"SoundDuration":179009,"Delta":123630462},{"NoteNumber":65,"Velocity":36,"Duration":646046,"SoundDuration":646046,"Delta":123630462},{"NoteNumber":56,"Velocity":30,"Duration":646046,"SoundDuration":646046,"Delta":123630462},{"NoteNumber":84,"Velocity":59,"Duration":179009,"SoundDuration":179009,"Delta":123783899},{"NoteNumber":80,"Velocity":59,"Duration":184392,"SoundDuration":184392,"Delta":123937336},{"NoteNumber":77,"Velocity":57,"Duration":185735,"SoundDuration":185735,"Delta":124090773},{"NoteNumber":75,"Velocity":64,"Duration":653879,"SoundDuration":653879,"Delta":124276509},{"NoteNumber":58,"Velocity":35,"Duration":1365194,"SoundDuration":1365194,"Delta":124276509},{"NoteNumber":67,"Velocity":42,"Duration":653879,"SoundDuration":653879,"Delta":124276509},{"NoteNumber":79,"Velocity":60,"Duration":179009,"SoundDuration":179009,"Delta":124930388},{"NoteNumber":68,"Velocity":33,"Duration":711314,"SoundDuration":711314,"Delta":124930388},{"NoteNumber":77,"Velocity":56,"Duration":179009,"SoundDuration":179009,"Delta":125083825},{"NoteNumber":76,"Velocity":56,"Duration":195271,"SoundDuration":195271,"Delta":125237262},{"NoteNumber":77,"Velocity":53,"Duration":209170,"SoundDuration":209170,"Delta":125390699},{"NoteNumber":74,"Velocity":51,"Duration":1415762,"SoundDuration":1415762,"Delta":125641703},{"NoteNumber":77,"Velocity":61,"Duration":1415762,"SoundDuration":1415762,"Delta":125641703},{"NoteNumber":63,"Velocity":28,"Duration":2123643,"SoundDuration":2123643,"Delta":125641703},{"NoteNumber":68,"Velocity":34,"Duration":1415762,"SoundDuration":1415762,"Delta":125641703},{"NoteNumber":75,"Velocity":54,"Duration":707881,"SoundDuration":707881,"Delta":127057465},{"NoteNumber":67,"Velocity":32,"Duration":707881,"SoundDuration":707881,"Delta":127057465},{"NoteNumber":75,"Velocity":49,"Duration":991712,"SoundDuration":991712,"Delta":128473227},{"NoteNumber":79,"Velocity":59,"Duration":991712,"SoundDuration":991712,"Delta":128473227},{"NoteNumber":48,"Velocity":36,"Duration":337989,"SoundDuration":337989,"Delta":128473227},{"NoteNumber":60,"Velocity":30,"Duration":237141,"SoundDuration":237141,"Delta":128811217},{"NoteNumber":60,"Velocity":30,"Duration":253150,"SoundDuration":253150,"Delta":129127406},{"NoteNumber":74,"Velocity":47,"Duration":337533,"SoundDuration":337533,"Delta":129464940},{"NoteNumber":77,"Velocity":56,"Duration":337533,"SoundDuration":337533,"Delta":129464940},{"NoteNumber":60,"Velocity":32,"Duration":253150,"SoundDuration":253150,"Delta":129464940},{"NoteNumber":72,"Velocity":47,"Duration":660948,"SoundDuration":660948,"Delta":129802474},{"NoteNumber":75,"Velocity":56,"Duration":660948,"SoundDuration":660948,"Delta":129802474},{"NoteNumber":60,"Velocity":32,"Duration":253150,"SoundDuration":253150,"Delta":129802474},{"NoteNumber":60,"Velocity":29,"Duration":242561,"SoundDuration":242561,"Delta":130140007},{"NoteNumber":60,"Velocity":29,"Duration":242561,"SoundDuration":242561,"Delta":130463423},{"NoteNumber":60,"Velocity":29,"Duration":268624,"SoundDuration":268624,"Delta":130786838},{"NoteNumber":77,"Velocity":52,"Duration":973771,"SoundDuration":973771,"Delta":131145004},{"NoteNumber":80,"Velocity":63,"Duration":973771,"SoundDuration":973771,"Delta":131145004},{"NoteNumber":47,"Velocity":36,"Duration":337989,"SoundDuration":337989,"Delta":131145004},{"NoteNumber":59,"Velocity":32,"Duration":237141,"SoundDuration":237141,"Delta":131482994},{"NoteNumber":59,"Velocity":32,"Duration":238843,"SoundDuration":238843,"Delta":131799183},{"NoteNumber":75,"Velocity":46,"Duration":322997,"SoundDuration":322997,"Delta":132118776},{"NoteNumber":79,"Velocity":54,"Duration":322997,"SoundDuration":322997,"Delta":132118776},{"NoteNumber":59,"Velocity":32,"Duration":242248,"SoundDuration":242248,"Delta":132118776},{"NoteNumber":74,"Velocity":48,"Duration":641557,"SoundDuration":641557,"Delta":132441773},{"NoteNumber":77,"Velocity":58,"Duration":641557,"SoundDuration":641557,"Delta":132441773},{"NoteNumber":59,"Velocity":36,"Duration":243233,"SoundDuration":243233,"Delta":132441773},{"NoteNumber":59,"Velocity":29,"Duration":237441,"SoundDuration":237441,"Delta":132766742},{"NoteNumber":59,"Velocity":29,"Duration":237441,"SoundDuration":237441,"Delta":133083331},{"NoteNumber":59,"Velocity":29,"Duration":271870,"SoundDuration":271870,"Delta":133399921},{"NoteNumber":60,"Velocity":46,"Duration":1303517,"SoundDuration":1303517,"Delta":133762415},{"NoteNumber":72,"Velocity":47,"Duration":355756,"SoundDuration":355756,"Delta":134069289},{"NoteNumber":75,"Velocity":57,"Duration":355756,"SoundDuration":355756,"Delta":134069289},{"NoteNumber":74,"Velocity":50,"Duration":358396,"SoundDuration":358396,"Delta":134392704},{"NoteNumber":77,"Velocity":60,"Duration":358396,"SoundDuration":358396,"Delta":134392704},{"NoteNumber":75,"Velocity":52,"Duration":262360,"SoundDuration":262360,"Delta":134716119},{"NoteNumber":79,"Velocity":62,"Duration":262360,"SoundDuration":262360,"Delta":134716119},{"NoteNumber":75,"Velocity":51,"Duration":316589,"SoundDuration":316589,"Delta":135065933},{"NoteNumber":79,"Velocity":61,"Duration":316589,"SoundDuration":316589,"Delta":135065933},{"NoteNumber":56,"Velocity":40,"Duration":643529,"SoundDuration":643529,"Delta":135065933},{"NoteNumber":74,"Velocity":50,"Duration":326939,"SoundDuration":326939,"Delta":135382522},{"NoteNumber":77,"Velocity":60,"Duration":326939,"SoundDuration":326939,"Delta":135382522},{"NoteNumber":74,"Velocity":48,"Duration":326939,"SoundDuration":326939,"Delta":135709462},{"NoteNumber":77,"Velocity":58,"Duration":326939,"SoundDuration":326939,"Delta":135709462},{"NoteNumber":54,"Velocity":36,"Duration":685105,"SoundDuration":685105,"Delta":135709462},{"NoteNumber":72,"Velocity":47,"Duration":268624,"SoundDuration":268624,"Delta":136036401},{"NoteNumber":75,"Velocity":56,"Duration":268624,"SoundDuration":268624,"Delta":136036401},{"NoteNumber":72,"Velocity":49,"Duration":1290323,"SoundDuration":1290323,"Delta":136394568},{"NoteNumber":75,"Velocity":58,"Duration":1290323,"SoundDuration":1290323,"Delta":136394568},{"NoteNumber":55,"Velocity":46,"Duration":326939,"SoundDuration":326939,"Delta":136394568},{"NoteNumber":43,"Velocity":41,"Duration":323452,"SoundDuration":323452,"Delta":136721507},{"NoteNumber":55,"Velocity":46,"Duration":159982,"SoundDuration":159982,"Delta":137044960},{"NoteNumber":55,"Velocity":42,"Duration":159982,"SoundDuration":159982,"Delta":137364926},{"NoteNumber":71,"Velocity":45,"Duration":639931,"SoundDuration":639931,"Delta":137684892},{"NoteNumber":74,"Velocity":54,"Duration":639931,"SoundDuration":639931,"Delta":137684892},{"NoteNumber":55,"Velocity":48,"Duration":346629,"SoundDuration":346629,"Delta":137684892},{"NoteNumber":53,"Velocity":45,"Duration":346629,"SoundDuration":346629,"Delta":138004857},{"NoteNumber":51,"Velocity":43,"Duration":346629,"SoundDuration":346629,"Delta":138324823},{"NoteNumber":50,"Velocity":39,"Duration":348780,"SoundDuration":348780,"Delta":138644789},{"NoteNumber":48,"Velocity":46,"Duration":1297786,"SoundDuration":1297786,"Delta":138964755},{"NoteNumber":75,"Velocity":57,"Duration":312891,"SoundDuration":312891,"Delta":139310536},{"NoteNumber":72,"Velocity":53,"Duration":319557,"SoundDuration":319557,"Delta":139623427},{"NoteNumber":68,"Velocity":53,"Duration":319557,"SoundDuration":319557,"Delta":139942984},{"NoteNumber":67,"Velocity":53,"Duration":654190,"SoundDuration":654190,"Delta":140262541},{"NoteNumber":63,"Velocity":39,"Duration":239974,"SoundDuration":239974,"Delta":140596766},{"NoteNumber":60,"Velocity":33,"Duration":239974,"SoundDuration":239974,"Delta":140596766},{"NoteNumber":66,"Velocity":55,"Duration":639318,"SoundDuration":639318,"Delta":140916731},{"NoteNumber":60,"Velocity":36,"Duration":239872,"SoundDuration":239872,"Delta":140916731},{"NoteNumber":63,"Velocity":43,"Duration":239872,"SoundDuration":239872,"Delta":140916731},{"NoteNumber":60,"Velocity":34,"Duration":239667,"SoundDuration":239667,"Delta":141236493},{"NoteNumber":63,"Velocity":40,"Duration":239667,"SoundDuration":239667,"Delta":141236493},{"NoteNumber":58,"Velocity":43,"Duration":1305699,"SoundDuration":1305699,"Delta":141556050},{"NoteNumber":62,"Velocity":51,"Duration":1305699,"SoundDuration":1305699,"Delta":141556050},{"NoteNumber":82,"Velocity":61,"Duration":309661,"SoundDuration":309661,"Delta":141901831},{"NoteNumber":79,"Velocity":61,"Duration":319557,"SoundDuration":319557,"Delta":142211493},{"NoteNumber":75,"Velocity":61,"Duration":330699,"SoundDuration":330699,"Delta":142531050},{"NoteNumber":74,"Velocity":65,"Duration":661807,"SoundDuration":661807,"Delta":142861749},{"NoteNumber":64,"Velocity":36,"Duration":239974,"SoundDuration":239974,"Delta":143203590},{"NoteNumber":67,"Velocity":43,"Duration":239974,"SoundDuration":239974,"Delta":143203590},{"NoteNumber":73,"Velocity":61,"Duration":639931,"SoundDuration":639931,"Delta":143523556},{"NoteNumber":64,"Velocity":38,"Duration":239974,"SoundDuration":239974,"Delta":143523556},{"NoteNumber":67,"Velocity":45,"Duration":239974,"SoundDuration":239974,"Delta":143523556},{"NoteNumber":64,"Velocity":36,"Duration":239974,"SoundDuration":239974,"Delta":143843522},{"NoteNumber":67,"Velocity":43,"Duration":239974,"SoundDuration":239974,"Delta":143843522},{"NoteNumber":62,"Velocity":45,"Duration":341841,"SoundDuration":341841,"Delta":144163488},{"NoteNumber":66,"Velocity":54,"Duration":341841,"SoundDuration":341841,"Delta":144163488},{"NoteNumber":74,"Velocity":54,"Duration":313283,"SoundDuration":313283,"Delta":144505329},{"NoteNumber":63,"Velocity":50,"Duration":330542,"SoundDuration":330542,"Delta":144818612},{"NoteNumber":70,"Velocity":53,"Duration":320002,"SoundDuration":320002,"Delta":145149154},{"NoteNumber":67,"Velocity":45,"Duration":320002,"SoundDuration":320002,"Delta":145149154},{"NoteNumber":60,"Velocity":54,"Duration":334224,"SoundDuration":334224,"Delta":145469157},{"NoteNumber":69,"Velocity":45,"Duration":319965,"SoundDuration":319965,"Delta":145803381},{"NoteNumber":72,"Velocity":53,"Duration":319965,"SoundDuration":319965,"Delta":145803381},{"NoteNumber":62,"Velocity":51,"Duration":334224,"SoundDuration":334224,"Delta":146123347},{"NoteNumber":69,"Velocity":45,"Duration":323415,"SoundDuration":323415,"Delta":146457571},{"NoteNumber":66,"Velocity":53,"Duration":323415,"SoundDuration":323415,"Delta":146457571},{"NoteNumber":55,"Velocity":57,"Duration":1318809,"SoundDuration":1318809,"Delta":146780987},{"NoteNumber":67,"Velocity":49,"Duration":326939,"SoundDuration":326939,"Delta":147118977},{"NoteNumber":69,"Velocity":49,"Duration":326939,"SoundDuration":326939,"Delta":147445916},{"NoteNumber":71,"Velocity":49,"Duration":326939,"SoundDuration":326939,"Delta":147772856},{"NoteNumber":69,"Velocity":41,"Duration":324678,"SoundDuration":324678,"Delta":148099796},{"NoteNumber":72,"Velocity":49,"Duration":324678,"SoundDuration":324678,"Delta":148099796},{"NoteNumber":71,"Velocity":42,"Duration":330077,"SoundDuration":330077,"Delta":148424474},{"NoteNumber":74,"Velocity":50,"Duration":330077,"SoundDuration":330077,"Delta":148424474},{"NoteNumber":72,"Velocity":44,"Duration":336295,"SoundDuration":336295,"Delta":148754551},{"NoteNumber":75,"Velocity":52,"Duration":336295,"SoundDuration":336295,"Delta":148754551},{"NoteNumber":74,"Velocity":45,"Duration":343195,"SoundDuration":343195,"Delta":149090847},{"NoteNumber":77,"Velocity":54,"Duration":343195,"SoundDuration":343195,"Delta":149090847},{"NoteNumber":75,"Velocity":49,"Duration":995080,"SoundDuration":995080,"Delta":149434042},{"NoteNumber":79,"Velocity":59,"Duration":995080,"SoundDuration":995080,"Delta":149434042},{"NoteNumber":48,"Velocity":36,"Duration":253492,"SoundDuration":253492,"Delta":149434042},{"NoteNumber":60,"Velocity":30,"Duration":239667,"SoundDuration":239667,"Delta":149772032},{"NoteNumber":60,"Velocity":30,"Duration":253150,"SoundDuration":253150,"Delta":150091589},{"NoteNumber":74,"Velocity":47,"Duration":337533,"SoundDuration":337533,"Delta":150429123},{"NoteNumber":77,"Velocity":56,"Duration":337533,"SoundDuration":337533,"Delta":150429123},{"NoteNumber":60,"Velocity":32,"Duration":253150,"SoundDuration":253150,"Delta":150429123},{"NoteNumber":72,"Velocity":47,"Duration":660948,"SoundDuration":660948,"Delta":150766657},{"NoteNumber":75,"Velocity":56,"Duration":660948,"SoundDuration":660948,"Delta":150766657},{"NoteNumber":60,"Velocity":32,"Duration":253150,"SoundDuration":253150,"Delta":150766657},{"NoteNumber":60,"Velocity":29,"Duration":242561,"SoundDuration":242561,"Delta":151104191},{"NoteNumber":60,"Velocity":29,"Duration":242561,"SoundDuration":242561,"Delta":151427606},{"NoteNumber":60,"Velocity":29,"Duration":268624,"SoundDuration":268624,"Delta":151751021},{"NoteNumber":77,"Velocity":52,"Duration":980691,"SoundDuration":980691,"Delta":152109187},{"NoteNumber":80,"Velocity":63,"Duration":980691,"SoundDuration":980691,"Delta":152109187},{"NoteNumber":47,"Velocity":36,"Duration":337989,"SoundDuration":337989,"Delta":152109187},{"NoteNumber":59,"Velocity":32,"Duration":237141,"SoundDuration":237141,"Delta":152447177},{"NoteNumber":59,"Velocity":32,"Duration":244884,"SoundDuration":244884,"Delta":152763366},{"NoteNumber":75,"Velocity":46,"Duration":326512,"SoundDuration":326512,"Delta":153089879},{"NoteNumber":79,"Velocity":54,"Duration":326512,"SoundDuration":326512,"Delta":153089879},{"NoteNumber":59,"Velocity":32,"Duration":244884,"SoundDuration":244884,"Delta":153089879},{"NoteNumber":74,"Velocity":48,"Duration":643315,"SoundDuration":643315,"Delta":153416392},{"NoteNumber":77,"Velocity":58,"Duration":643315,"SoundDuration":643315,"Delta":153416392},{"NoteNumber":59,"Velocity":36,"Duration":244991,"SoundDuration":244991,"Delta":153416392},{"NoteNumber":59,"Velocity":29,"Duration":237441,"SoundDuration":237441,"Delta":153743118},{"NoteNumber":59,"Velocity":29,"Duration":237441,"SoundDuration":237441,"Delta":154059707},{"NoteNumber":59,"Velocity":29,"Duration":271870,"SoundDuration":271870,"Delta":154376296},{"NoteNumber":60,"Velocity":46,"Duration":1303517,"SoundDuration":1303517,"Delta":154738790},{"NoteNumber":72,"Velocity":47,"Duration":355756,"SoundDuration":355756,"Delta":155045664},{"NoteNumber":75,"Velocity":57,"Duration":355756,"SoundDuration":355756,"Delta":155045664},{"NoteNumber":74,"Velocity":50,"Duration":358396,"SoundDuration":358396,"Delta":155369080},{"NoteNumber":77,"Velocity":60,"Duration":358396,"SoundDuration":358396,"Delta":155369080},{"NoteNumber":75,"Velocity":52,"Duration":262360,"SoundDuration":262360,"Delta":155692495},{"NoteNumber":79,"Velocity":62,"Duration":262360,"SoundDuration":262360,"Delta":155692495},{"NoteNumber":75,"Velocity":51,"Duration":316589,"SoundDuration":316589,"Delta":156042308},{"NoteNumber":79,"Velocity":61,"Duration":316589,"SoundDuration":316589,"Delta":156042308},{"NoteNumber":56,"Velocity":40,"Duration":643529,"SoundDuration":643529,"Delta":156042308},{"NoteNumber":74,"Velocity":50,"Duration":326939,"SoundDuration":326939,"Delta":156358898},{"NoteNumber":77,"Velocity":60,"Duration":326939,"SoundDuration":326939,"Delta":156358898},{"NoteNumber":74,"Velocity":48,"Duration":326939,"SoundDuration":326939,"Delta":156685837},{"NoteNumber":77,"Velocity":58,"Duration":326939,"SoundDuration":326939,"Delta":156685837},{"NoteNumber":54,"Velocity":36,"Duration":685105,"SoundDuration":685105,"Delta":156685837},{"NoteNumber":72,"Velocity":47,"Duration":268624,"SoundDuration":268624,"Delta":157012777},{"NoteNumber":75,"Velocity":56,"Duration":268624,"SoundDuration":268624,"Delta":157012777},{"NoteNumber":72,"Velocity":49,"Duration":1290323,"SoundDuration":1290323,"Delta":157370943},{"NoteNumber":75,"Velocity":58,"Duration":1290323,"SoundDuration":1290323,"Delta":157370943},{"NoteNumber":55,"Velocity":46,"Duration":326939,"SoundDuration":326939,"Delta":157370943},{"NoteNumber":43,"Velocity":41,"Duration":323452,"SoundDuration":323452,"Delta":157697883},{"NoteNumber":55,"Velocity":46,"Duration":159982,"SoundDuration":159982,"Delta":158021336},{"NoteNumber":55,"Velocity":42,"Duration":159982,"SoundDuration":159982,"Delta":158341302},{"NoteNumber":71,"Velocity":45,"Duration":639931,"SoundDuration":639931,"Delta":158661267},{"NoteNumber":74,"Velocity":54,"Duration":639931,"SoundDuration":639931,"Delta":158661267},{"NoteNumber":55,"Velocity":48,"Duration":346629,"SoundDuration":346629,"Delta":158661267},{"NoteNumber":53,"Velocity":45,"Duration":346629,"SoundDuration":346629,"Delta":158981233},{"NoteNumber":51,"Velocity":43,"Duration":346629,"SoundDuration":346629,"Delta":159301199},{"NoteNumber":50,"Velocity":39,"Duration":348780,"SoundDuration":348780,"Delta":159621165},{"NoteNumber":48,"Velocity":46,"Duration":1297786,"SoundDuration":1297786,"Delta":159941130},{"NoteNumber":75,"Velocity":57,"Duration":312891,"SoundDuration":312891,"Delta":160286912},{"NoteNumber":72,"Velocity":53,"Duration":319557,"SoundDuration":319557,"Delta":160599803},{"NoteNumber":68,"Velocity":53,"Duration":319557,"SoundDuration":319557,"Delta":160919360},{"NoteNumber":67,"Velocity":53,"Duration":654190,"SoundDuration":654190,"Delta":161238917},{"NoteNumber":63,"Velocity":39,"Duration":239974,"SoundDuration":239974,"Delta":161573141},{"NoteNumber":60,"Velocity":33,"Duration":239974,"SoundDuration":239974,"Delta":161573141},{"NoteNumber":66,"Velocity":55,"Duration":639114,"SoundDuration":639114,"Delta":161893107},{"NoteNumber":60,"Velocity":36,"Duration":239667,"SoundDuration":239667,"Delta":161893107},{"NoteNumber":63,"Velocity":43,"Duration":239667,"SoundDuration":239667,"Delta":161893107},{"NoteNumber":60,"Velocity":34,"Duration":239667,"SoundDuration":239667,"Delta":162212664},{"NoteNumber":63,"Velocity":40,"Duration":239667,"SoundDuration":239667,"Delta":162212664},{"NoteNumber":58,"Velocity":43,"Duration":1305699,"SoundDuration":1305699,"Delta":162532221},{"NoteNumber":62,"Velocity":51,"Duration":1305699,"SoundDuration":1305699,"Delta":162532221},{"NoteNumber":82,"Velocity":61,"Duration":309661,"SoundDuration":309661,"Delta":162878003},{"NoteNumber":79,"Velocity":61,"Duration":319557,"SoundDuration":319557,"Delta":163187664},{"NoteNumber":75,"Velocity":61,"Duration":330699,"SoundDuration":330699,"Delta":163507221},{"NoteNumber":74,"Velocity":65,"Duration":661807,"SoundDuration":661807,"Delta":163837920},{"NoteNumber":64,"Velocity":36,"Duration":239974,"SoundDuration":239974,"Delta":164179762},{"NoteNumber":67,"Velocity":43,"Duration":239974,"SoundDuration":239974,"Delta":164179762},{"NoteNumber":73,"Velocity":61,"Duration":639931,"SoundDuration":639931,"Delta":164499728},{"NoteNumber":64,"Velocity":38,"Duration":239974,"SoundDuration":239974,"Delta":164499728},{"NoteNumber":67,"Velocity":45,"Duration":239974,"SoundDuration":239974,"Delta":164499728},{"NoteNumber":64,"Velocity":36,"Duration":239974,"SoundDuration":239974,"Delta":164819693},{"NoteNumber":67,"Velocity":43,"Duration":239974,"SoundDuration":239974,"Delta":164819693},{"NoteNumber":62,"Velocity":45,"Duration":341841,"SoundDuration":341841,"Delta":165139659},{"NoteNumber":66,"Velocity":54,"Duration":341841,"SoundDuration":341841,"Delta":165139659},{"NoteNumber":74,"Velocity":54,"Duration":313283,"SoundDuration":313283,"Delta":165481501},{"NoteNumber":63,"Velocity":50,"Duration":330542,"SoundDuration":330542,"Delta":165794784},{"NoteNumber":70,"Velocity":53,"Duration":320002,"SoundDuration":320002,"Delta":166125326},{"NoteNumber":67,"Velocity":45,"Duration":320002,"SoundDuration":320002,"Delta":166125326},{"NoteNumber":60,"Velocity":54,"Duration":334224,"SoundDuration":334224,"Delta":166445328},{"NoteNumber":69,"Velocity":45,"Duration":319965,"SoundDuration":319965,"Delta":166779553},{"NoteNumber":72,"Velocity":53,"Duration":319965,"SoundDuration":319965,"Delta":166779553},{"NoteNumber":62,"Velocity":51,"Duration":334224,"SoundDuration":334224,"Delta":167099518},{"NoteNumber":69,"Velocity":45,"Duration":323415,"SoundDuration":323415,"Delta":167433743},{"NoteNumber":66,"Velocity":53,"Duration":323415,"SoundDuration":323415,"Delta":167433743},{"NoteNumber":55,"Velocity":57,"Duration":1318809,"SoundDuration":1318809,"Delta":167757158},{"NoteNumber":67,"Velocity":49,"Duration":326939,"SoundDuration":326939,"Delta":168095148},{"NoteNumber":69,"Velocity":49,"Duration":326939,"SoundDuration":326939,"Delta":168422088},{"NoteNumber":71,"Velocity":49,"Duration":326939,"SoundDuration":326939,"Delta":168749028},{"NoteNumber":69,"Velocity":41,"Duration":324678,"SoundDuration":324678,"Delta":169075967},{"NoteNumber":72,"Velocity":49,"Duration":324678,"SoundDuration":324678,"Delta":169075967},{"NoteNumber":71,"Velocity":42,"Duration":330077,"SoundDuration":330077,"Delta":169400646},{"NoteNumber":74,"Velocity":50,"Duration":330077,"SoundDuration":330077,"Delta":169400646},{"NoteNumber":72,"Velocity":44,"Duration":336295,"SoundDuration":336295,"Delta":169730723},{"NoteNumber":75,"Velocity":52,"Duration":336295,"SoundDuration":336295,"Delta":169730723},{"NoteNumber":74,"Velocity":45,"Duration":343195,"SoundDuration":343195,"Delta":170067018},{"NoteNumber":77,"Velocity":54,"Duration":343195,"SoundDuration":343195,"Delta":170067018},{"NoteNumber":76,"Velocity":49,"Duration":1301928,"SoundDuration":1301928,"Delta":170410214},{"NoteNumber":79,"Velocity":59,"Duration":1301928,"SoundDuration":1301928,"Delta":170410214},{"NoteNumber":60,"Velocity":38,"Duration":330542,"SoundDuration":330542,"Delta":170410214},{"NoteNumber":67,"Velocity":25,"Duration":242468,"SoundDuration":242468,"Delta":170740756},{"NoteNumber":70,"Velocity":30,"Duration":242468,"SoundDuration":242468,"Delta":170740756},{"NoteNumber":67,"Velocity":25,"Duration":232246,"SoundDuration":232246,"Delta":171060640},{"NoteNumber":70,"Velocity":30,"Duration":232246,"SoundDuration":232246,"Delta":171060640},{"NoteNumber":67,"Velocity":27,"Duration":256381,"SoundDuration":256381,"Delta":171370301},{"NoteNumber":70,"Velocity":33,"Duration":256381,"SoundDuration":256381,"Delta":171370301},{"NoteNumber":77,"Velocity":47,"Duration":1277028,"SoundDuration":1277028,"Delta":171712143},{"NoteNumber":80,"Velocity":56,"Duration":1277028,"SoundDuration":1277028,"Delta":171712143},{"NoteNumber":60,"Velocity":36,"Duration":323415,"SoundDuration":323415,"Delta":171712143},{"NoteNumber":65,"Velocity":25,"Duration":229873,"SoundDuration":229873,"Delta":172035558},{"NoteNumber":68,"Velocity":31,"Duration":229873,"SoundDuration":229873,"Delta":172035558},{"NoteNumber":65,"Velocity":26,"Duration":234668,"SoundDuration":234668,"Delta":172342056},{"NoteNumber":68,"Velocity":31,"Duration":234668,"SoundDuration":234668,"Delta":172342056},{"NoteNumber":68,"Velocity":31,"Duration":250668,"SoundDuration":250668,"Delta":172654947},{"NoteNumber":65,"Velocity":26,"Duration":250668,"SoundDuration":250668,"Delta":172654947},{"NoteNumber":79,"Velocity":52,"Duration":1283334,"SoundDuration":1283334,"Delta":172989171},{"NoteNumber":82,"Velocity":63,"Duration":1283334,"SoundDuration":1283334,"Delta":172989171},{"NoteNumber":60,"Velocity":38,"Duration":330542,"SoundDuration":330542,"Delta":172989171},{"NoteNumber":64,"Velocity":28,"Duration":237141,"SoundDuration":237141,"Delta":173319713},{"NoteNumber":67,"Velocity":34,"Duration":237141,"SoundDuration":237141,"Delta":173319713},{"NoteNumber":67,"Velocity":34,"Duration":229873,"SoundDuration":229873,"Delta":173635902},{"NoteNumber":64,"Velocity":28,"Duration":229873,"SoundDuration":229873,"Delta":173635902},{"NoteNumber":64,"Velocity":28,"Duration":247579,"SoundDuration":247579,"Delta":173942400},{"NoteNumber":67,"Velocity":34,"Duration":247579,"SoundDuration":247579,"Delta":173942400},{"NoteNumber":77,"Velocity":48,"Duration":623358,"SoundDuration":623358,"Delta":174272505},{"NoteNumber":80,"Velocity":58,"Duration":623358,"SoundDuration":623358,"Delta":174272505},{"NoteNumber":60,"Velocity":47,"Duration":300360,"SoundDuration":300360,"Delta":174272505},{"NoteNumber":65,"Velocity":39,"Duration":322997,"SoundDuration":322997,"Delta":174572866},{"NoteNumber":68,"Velocity":39,"Duration":322997,"SoundDuration":322997,"Delta":174572866},{"NoteNumber":59,"Velocity":49,"Duration":306497,"SoundDuration":306497,"Delta":174895863},{"NoteNumber":65,"Velocity":42,"Duration":330542,"SoundDuration":330542,"Delta":175202361},{"NoteNumber":68,"Velocity":42,"Duration":330542,"SoundDuration":330542,"Delta":175202361},{"NoteNumber":74,"Velocity":57,"Duration":1277590,"SoundDuration":1277590,"Delta":175532903},{"NoteNumber":77,"Velocity":68,"Duration":1277590,"SoundDuration":1277590,"Delta":175532903},{"NoteNumber":58,"Velocity":55,"Duration":319557,"SoundDuration":319557,"Delta":175532903},{"NoteNumber":65,"Velocity":38,"Duration":233069,"SoundDuration":233069,"Delta":175852460},{"NoteNumber":68,"Velocity":45,"Duration":233069,"SoundDuration":233069,"Delta":175852460},{"NoteNumber":65,"Velocity":38,"Duration":229873,"SoundDuration":229873,"Delta":176162155},{"NoteNumber":68,"Velocity":45,"Duration":229873,"SoundDuration":229873,"Delta":176162155},{"NoteNumber":65,"Velocity":38,"Duration":256381,"SoundDuration":256381,"Delta":176468652},{"NoteNumber":68,"Velocity":45,"Duration":256381,"SoundDuration":256381,"Delta":176468652},{"NoteNumber":75,"Velocity":54,"Duration":1267535,"SoundDuration":1267535,"Delta":176810494},{"NoteNumber":79,"Velocity":64,"Duration":1267535,"SoundDuration":1267535,"Delta":176810494},{"NoteNumber":58,"Velocity":54,"Duration":323415,"SoundDuration":323415,"Delta":176810494},{"NoteNumber":63,"Velocity":39,"Duration":227548,"SoundDuration":227548,"Delta":177133909},{"NoteNumber":67,"Velocity":46,"Duration":227548,"SoundDuration":227548,"Delta":177133909},{"NoteNumber":63,"Velocity":39,"Duration":229873,"SoundDuration":229873,"Delta":177437307},{"NoteNumber":67,"Velocity":46,"Duration":229873,"SoundDuration":229873,"Delta":177437307},{"NoteNumber":67,"Velocity":46,"Duration":250668,"SoundDuration":250668,"Delta":177743805},{"NoteNumber":63,"Velocity":39,"Duration":250668,"SoundDuration":250668,"Delta":177743805},{"NoteNumber":77,"Velocity":57,"Duration":1285379,"SoundDuration":1285379,"Delta":178078029},{"NoteNumber":80,"Velocity":68,"Duration":1285379,"SoundDuration":1285379,"Delta":178078029},{"NoteNumber":58,"Velocity":54,"Duration":330542,"SoundDuration":330542,"Delta":178078029},{"NoteNumber":62,"Velocity":39,"Duration":229873,"SoundDuration":229873,"Delta":178408571},{"NoteNumber":65,"Velocity":46,"Duration":229873,"SoundDuration":229873,"Delta":178408571},{"NoteNumber":65,"Velocity":46,"Duration":229873,"SoundDuration":229873,"Delta":178715069},{"NoteNumber":62,"Velocity":39,"Duration":229873,"SoundDuration":229873,"Delta":178715069},{"NoteNumber":62,"Velocity":39,"Duration":256381,"SoundDuration":256381,"Delta":179021567},{"NoteNumber":65,"Velocity":46,"Duration":256381,"SoundDuration":256381,"Delta":179021567},{"NoteNumber":75,"Velocity":54,"Duration":633178,"SoundDuration":633178,"Delta":179363408},{"NoteNumber":79,"Velocity":63,"Duration":633178,"SoundDuration":633178,"Delta":179363408},{"NoteNumber":58,"Velocity":54,"Duration":316589,"SoundDuration":316589,"Delta":179363408},{"NoteNumber":63,"Velocity":37,"Duration":237441,"SoundDuration":237441,"Delta":179679998},{"NoteNumber":67,"Velocity":48,"Duration":237441,"SoundDuration":237441,"Delta":179679998},{"NoteNumber":63,"Velocity":37,"Duration":234962,"SoundDuration":234962,"Delta":179996587},{"NoteNumber":67,"Velocity":45,"Duration":234962,"SoundDuration":234962,"Delta":179996587},{"NoteNumber":63,"Velocity":30,"Duration":247906,"SoundDuration":247906,"Delta":180309870},{"NoteNumber":67,"Velocity":45,"Duration":247906,"SoundDuration":247906,"Delta":180309870},{"NoteNumber":57,"Velocity":45,"Duration":1277350,"SoundDuration":1277350,"Delta":180640412},{"NoteNumber":60,"Velocity":54,"Duration":1277350,"SoundDuration":1277350,"Delta":180640412},{"NoteNumber":78,"Velocity":61,"Duration":343970,"SoundDuration":343970,"Delta":180974190},{"NoteNumber":79,"Velocity":63,"Duration":339215,"SoundDuration":339215,"Delta":181287474},{"NoteNumber":78,"Velocity":60,"Duration":323415,"SoundDuration":323415,"Delta":181594348},{"NoteNumber":86,"Velocity":66,"Duration":650507,"SoundDuration":650507,"Delta":181917763},{"NoteNumber":67,"Velocity":39,"Duration":239974,"SoundDuration":239974,"Delta":182248305},{"NoteNumber":59,"Velocity":27,"Duration":239974,"SoundDuration":239974,"Delta":182248305},{"NoteNumber":77,"Velocity":62,"Duration":629218,"SoundDuration":629218,"Delta":182568271},{"NoteNumber":59,"Velocity":30,"Duration":232246,"SoundDuration":232246,"Delta":182568271},{"NoteNumber":67,"Velocity":43,"Duration":232246,"SoundDuration":232246,"Delta":182568271},{"NoteNumber":59,"Velocity":28,"Duration":239667,"SoundDuration":239667,"Delta":182877932},{"NoteNumber":67,"Velocity":40,"Duration":239667,"SoundDuration":239667,"Delta":182877932},{"NoteNumber":60,"Velocity":33,"Duration":1278293,"SoundDuration":1278293,"Delta":183197489},{"NoteNumber":67,"Velocity":45,"Duration":1278293,"SoundDuration":1278293,"Delta":183197489},{"NoteNumber":76,"Velocity":60,"Duration":343970,"SoundDuration":343970,"Delta":183531267},{"NoteNumber":77,"Velocity":62,"Duration":337561,"SoundDuration":337561,"Delta":183844551},{"NoteNumber":76,"Velocity":57,"Duration":324357,"SoundDuration":324357,"Delta":184151425},{"NoteNumber":84,"Velocity":63,"Duration":661807,"SoundDuration":661807,"Delta":184475782},{"NoteNumber":56,"Velocity":33,"Duration":239974,"SoundDuration":239974,"Delta":184817624},{"NoteNumber":60,"Velocity":39,"Duration":239974,"SoundDuration":239974,"Delta":184817624},{"NoteNumber":75,"Velocity":57,"Duration":639931,"SoundDuration":639931,"Delta":185137590},{"NoteNumber":56,"Velocity":35,"Duration":239974,"SoundDuration":239974,"Delta":185137590},{"NoteNumber":60,"Velocity":42,"Duration":239974,"SoundDuration":239974,"Delta":185137590},{"NoteNumber":56,"Velocity":32,"Duration":239974,"SoundDuration":239974,"Delta":185457555},{"NoteNumber":60,"Velocity":38,"Duration":239974,"SoundDuration":239974,"Delta":185457555},{"NoteNumber":53,"Velocity":36,"Duration":1252926,"SoundDuration":1252926,"Delta":185777521},{"NoteNumber":56,"Velocity":44,"Duration":1252926,"SoundDuration":1252926,"Delta":185777521},{"NoteNumber":73,"Velocity":54,"Duration":350615,"SoundDuration":350615,"Delta":186097487},{"NoteNumber":72,"Velocity":56,"Duration":337147,"SoundDuration":337147,"Delta":186417453},{"NoteNumber":73,"Velocity":54,"Duration":338453,"SoundDuration":338453,"Delta":186723950},{"NoteNumber":76,"Velocity":58,"Duration":351512,"SoundDuration":351512,"Delta":187030448},{"NoteNumber":77,"Velocity":50,"Duration":351512,"SoundDuration":351512,"Delta":187350005},{"NoteNumber":79,"Velocity":53,"Duration":352567,"SoundDuration":352567,"Delta":187669562},{"NoteNumber":80,"Velocity":55,"Duration":330105,"SoundDuration":330105,"Delta":187989119},{"NoteNumber":72,"Velocity":55,"Duration":1285328,"SoundDuration":1285328,"Delta":188319225},{"NoteNumber":55,"Velocity":38,"Duration":1285328,"SoundDuration":1285328,"Delta":188319225},{"NoteNumber":63,"Velocity":38,"Duration":351512,"SoundDuration":351512,"Delta":188319225},{"NoteNumber":64,"Velocity":35,"Duration":350846,"SoundDuration":350846,"Delta":188638782},{"NoteNumber":65,"Velocity":36,"Duration":352353,"SoundDuration":352353,"Delta":188958339},{"NoteNumber":66,"Velocity":36,"Duration":358468,"SoundDuration":358468,"Delta":189278041},{"NoteNumber":71,"Velocity":54,"Duration":351512,"SoundDuration":351512,"Delta":189604553},{"NoteNumber":55,"Velocity":38,"Duration":639114,"SoundDuration":639114,"Delta":189604553},{"NoteNumber":67,"Velocity":38,"Duration":639114,"SoundDuration":639114,"Delta":189604553},{"NoteNumber":74,"Velocity":49,"Duration":351512,"SoundDuration":351512,"Delta":189924110},{"NoteNumber":75,"Velocity":52,"Duration":351512,"SoundDuration":351512,"Delta":190243667},{"NoteNumber":77,"Velocity":54,"Duration":319557,"SoundDuration":319557,"Delta":190563224},{"NoteNumber":75,"Velocity":49,"Duration":988414,"SoundDuration":988414,"Delta":190882781},{"NoteNumber":79,"Velocity":59,"Duration":988414,"SoundDuration":988414,"Delta":190882781},{"NoteNumber":48,"Velocity":36,"Duration":337989,"SoundDuration":337989,"Delta":190882781},{"NoteNumber":60,"Velocity":30,"Duration":234668,"SoundDuration":234668,"Delta":191220771},{"NoteNumber":60,"Velocity":30,"Duration":253150,"SoundDuration":253150,"Delta":191533662},{"NoteNumber":74,"Velocity":47,"Duration":337533,"SoundDuration":337533,"Delta":191871196},{"NoteNumber":77,"Velocity":56,"Duration":337533,"SoundDuration":337533,"Delta":191871196},{"NoteNumber":60,"Velocity":32,"Duration":253150,"SoundDuration":253150,"Delta":191871196},{"NoteNumber":72,"Velocity":47,"Duration":660948,"SoundDuration":660948,"Delta":192208730},{"NoteNumber":75,"Velocity":56,"Duration":660948,"SoundDuration":660948,"Delta":192208730},{"NoteNumber":60,"Velocity":32,"Duration":253150,"SoundDuration":253150,"Delta":192208730},{"NoteNumber":60,"Velocity":29,"Duration":242561,"SoundDuration":242561,"Delta":192546264},{"NoteNumber":60,"Velocity":29,"Duration":242561,"SoundDuration":242561,"Delta":192869679},{"NoteNumber":60,"Velocity":29,"Duration":268624,"SoundDuration":268624,"Delta":193193094},{"NoteNumber":77,"Velocity":52,"Duration":970582,"SoundDuration":970582,"Delta":193551260},{"NoteNumber":80,"Velocity":63,"Duration":970582,"SoundDuration":970582,"Delta":193551260},{"NoteNumber":47,"Velocity":36,"Duration":337989,"SoundDuration":337989,"Delta":193551260},{"NoteNumber":59,"Velocity":32,"Duration":234668,"SoundDuration":234668,"Delta":193889250},{"NoteNumber":59,"Velocity":32,"Duration":238073,"SoundDuration":238073,"Delta":194202141},{"NoteNumber":75,"Velocity":46,"Duration":326512,"SoundDuration":326512,"Delta":194521843},{"NoteNumber":79,"Velocity":54,"Duration":326512,"SoundDuration":326512,"Delta":194521843},{"NoteNumber":59,"Velocity":32,"Duration":244884,"SoundDuration":244884,"Delta":194521843},{"NoteNumber":74,"Velocity":48,"Duration":643315,"SoundDuration":643315,"Delta":194848356},{"NoteNumber":77,"Velocity":58,"Duration":643315,"SoundDuration":643315,"Delta":194848356},{"NoteNumber":59,"Velocity":36,"Duration":244991,"SoundDuration":244991,"Delta":194848356},{"NoteNumber":59,"Velocity":29,"Duration":237441,"SoundDuration":237441,"Delta":195175082},{"NoteNumber":59,"Velocity":29,"Duration":237441,"SoundDuration":237441,"Delta":195491672},{"NoteNumber":59,"Velocity":29,"Duration":271870,"SoundDuration":271870,"Delta":195808261},{"NoteNumber":60,"Velocity":46,"Duration":1303517,"SoundDuration":1303517,"Delta":196170755},{"NoteNumber":72,"Velocity":47,"Duration":355756,"SoundDuration":355756,"Delta":196477629},{"NoteNumber":75,"Velocity":57,"Duration":355756,"SoundDuration":355756,"Delta":196477629},{"NoteNumber":74,"Velocity":50,"Duration":358396,"SoundDuration":358396,"Delta":196801044},{"NoteNumber":77,"Velocity":60,"Duration":358396,"SoundDuration":358396,"Delta":196801044},{"NoteNumber":75,"Velocity":52,"Duration":262360,"SoundDuration":262360,"Delta":197124459},{"NoteNumber":79,"Velocity":62,"Duration":262360,"SoundDuration":262360,"Delta":197124459},{"NoteNumber":75,"Velocity":51,"Duration":316589,"SoundDuration":316589,"Delta":197474273},{"NoteNumber":79,"Velocity":61,"Duration":316589,"SoundDuration":316589,"Delta":197474273},{"NoteNumber":56,"Velocity":40,"Duration":643529,"SoundDuration":643529,"Delta":197474273},{"NoteNumber":74,"Velocity":50,"Duration":326939,"SoundDuration":326939,"Delta":197790862},{"NoteNumber":77,"Velocity":60,"Duration":326939,"SoundDuration":326939,"Delta":197790862},{"NoteNumber":74,"Velocity":48,"Duration":326939,"SoundDuration":326939,"Delta":198117802},{"NoteNumber":77,"Velocity":58,"Duration":326939,"SoundDuration":326939,"Delta":198117802},{"NoteNumber":54,"Velocity":36,"Duration":685105,"SoundDuration":685105,"Delta":198117802},{"NoteNumber":72,"Velocity":47,"Duration":268624,"SoundDuration":268624,"Delta":198444742},{"NoteNumber":75,"Velocity":56,"Duration":268624,"SoundDuration":268624,"Delta":198444742},{"NoteNumber":72,"Velocity":49,"Duration":1290323,"SoundDuration":1290323,"Delta":198802908},{"NoteNumber":75,"Velocity":58,"Duration":1290323,"SoundDuration":1290323,"Delta":198802908},{"NoteNumber":55,"Velocity":46,"Duration":326939,"SoundDuration":326939,"Delta":198802908},{"NoteNumber":43,"Velocity":41,"Duration":323452,"SoundDuration":323452,"Delta":199129848},{"NoteNumber":55,"Velocity":46,"Duration":159982,"SoundDuration":159982,"Delta":199453300},{"NoteNumber":55,"Velocity":42,"Duration":159982,"SoundDuration":159982,"Delta":199773266},{"NoteNumber":71,"Velocity":45,"Duration":639114,"SoundDuration":639114,"Delta":200093232},{"NoteNumber":74,"Velocity":54,"Duration":639114,"SoundDuration":639114,"Delta":200093232},{"NoteNumber":55,"Velocity":48,"Duration":346186,"SoundDuration":346186,"Delta":200093232},{"NoteNumber":53,"Velocity":45,"Duration":346186,"SoundDuration":346186,"Delta":200412789},{"NoteNumber":51,"Velocity":43,"Duration":346186,"SoundDuration":346186,"Delta":200732346},{"NoteNumber":50,"Velocity":39,"Duration":348372,"SoundDuration":348372,"Delta":201051903},{"NoteNumber":48,"Velocity":46,"Duration":1294453,"SoundDuration":1294453,"Delta":201371460},{"NoteNumber":79,"Velocity":61,"Duration":312891,"SoundDuration":312891,"Delta":201717241},{"NoteNumber":75,"Velocity":56,"Duration":316223,"SoundDuration":316223,"Delta":202030132},{"NoteNumber":71,"Velocity":56,"Duration":319557,"SoundDuration":319557,"Delta":202346356},{"NoteNumber":74,"Velocity":60,"Duration":654190,"SoundDuration":654190,"Delta":202665913},{"NoteNumber":67,"Velocity":39,"Duration":239974,"SoundDuration":239974,"Delta":203000138},{"NoteNumber":64,"Velocity":33,"Duration":239974,"SoundDuration":239974,"Delta":203000138},{"NoteNumber":72,"Velocity":55,"Duration":639931,"SoundDuration":639931,"Delta":203320104},{"NoteNumber":64,"Velocity":36,"Duration":239974,"SoundDuration":239974,"Delta":203320104},{"NoteNumber":67,"Velocity":43,"Duration":239974,"SoundDuration":239974,"Delta":203320104},{"NoteNumber":64,"Velocity":34,"Duration":239974,"SoundDuration":239974,"Delta":203640069},{"NoteNumber":67,"Velocity":40,"Duration":239974,"SoundDuration":239974,"Delta":203640069},{"NoteNumber":65,"Velocity":43,"Duration":1302535,"SoundDuration":1302535,"Delta":203960035},{"NoteNumber":68,"Velocity":51,"Duration":1302535,"SoundDuration":1302535,"Delta":203960035},{"NoteNumber":84,"Velocity":61,"Duration":306497,"SoundDuration":306497,"Delta":204305817},{"NoteNumber":80,"Velocity":61,"Duration":319557,"SoundDuration":319557,"Delta":204612314},{"NoteNumber":76,"Velocity":61,"Duration":330699,"SoundDuration":330699,"Delta":204931871},{"NoteNumber":79,"Velocity":65,"Duration":661807,"SoundDuration":661807,"Delta":205262571},{"NoteNumber":69,"Velocity":36,"Duration":239974,"SoundDuration":239974,"Delta":205604412},{"NoteNumber":72,"Velocity":43,"Duration":239974,"SoundDuration":239974,"Delta":205604412},{"NoteNumber":78,"Velocity":61,"Duration":639931,"SoundDuration":639931,"Delta":205924378},{"NoteNumber":69,"Velocity":38,"Duration":239974,"SoundDuration":239974,"Delta":205924378},{"NoteNumber":72,"Velocity":45,"Duration":239974,"SoundDuration":239974,"Delta":205924378},{"NoteNumber":69,"Velocity":36,"Duration":239974,"SoundDuration":239974,"Delta":206244344},{"NoteNumber":72,"Velocity":43,"Duration":239974,"SoundDuration":239974,"Delta":206244344},{"NoteNumber":67,"Velocity":45,"Duration":341841,"SoundDuration":341841,"Delta":206564309},{"NoteNumber":71,"Velocity":54,"Duration":341841,"SoundDuration":341841,"Delta":206564309},{"NoteNumber":79,"Velocity":54,"Duration":313283,"SoundDuration":313283,"Delta":206906151},{"NoteNumber":68,"Velocity":50,"Duration":330542,"SoundDuration":330542,"Delta":207219434},{"NoteNumber":75,"Velocity":53,"Duration":320002,"SoundDuration":320002,"Delta":207549976},{"NoteNumber":72,"Velocity":45,"Duration":320002,"SoundDuration":320002,"Delta":207549976},{"NoteNumber":65,"Velocity":54,"Duration":334224,"SoundDuration":334224,"Delta":207869978},{"NoteNumber":74,"Velocity":45,"Duration":319965,"SoundDuration":319965,"Delta":208204203},{"NoteNumber":77,"Velocity":53,"Duration":319965,"SoundDuration":319965,"Delta":208204203},{"NoteNumber":67,"Velocity":51,"Duration":334224,"SoundDuration":334224,"Delta":208524169},{"NoteNumber":74,"Velocity":45,"Duration":323415,"SoundDuration":323415,"Delta":208858393},{"NoteNumber":71,"Velocity":53,"Duration":323415,"SoundDuration":323415,"Delta":208858393},{"NoteNumber":60,"Velocity":57,"Duration":1318809,"SoundDuration":1318809,"Delta":209181808},{"NoteNumber":71,"Velocity":49,"Duration":326939,"SoundDuration":326939,"Delta":209519798},{"NoteNumber":72,"Velocity":49,"Duration":326939,"SoundDuration":326939,"Delta":209846738},{"NoteNumber":71,"Velocity":49,"Duration":326939,"SoundDuration":326939,"Delta":210173678},{"NoteNumber":72,"Velocity":49,"Duration":324678,"SoundDuration":324678,"Delta":210500618},{"NoteNumber":71,"Velocity":42,"Duration":330077,"SoundDuration":330077,"Delta":210825296},{"NoteNumber":74,"Velocity":50,"Duration":330077,"SoundDuration":330077,"Delta":210825296},{"NoteNumber":72,"Velocity":44,"Duration":336295,"SoundDuration":336295,"Delta":211155373},{"NoteNumber":75,"Velocity":52,"Duration":336295,"SoundDuration":336295,"Delta":211155373},{"NoteNumber":74,"Velocity":45,"Duration":343195,"SoundDuration":343195,"Delta":211491668},{"NoteNumber":77,"Velocity":54,"Duration":343195,"SoundDuration":343195,"Delta":211491668},{"NoteNumber":76,"Velocity":49,"Duration":1306659,"SoundDuration":1306659,"Delta":211834864},{"NoteNumber":79,"Velocity":59,"Duration":1306659,"SoundDuration":1306659,"Delta":211834864},{"NoteNumber":60,"Velocity":38,"Duration":330542,"SoundDuration":330542,"Delta":211834864},{"NoteNumber":67,"Velocity":25,"Duration":240671,"SoundDuration":240671,"Delta":212165406},{"NoteNumber":70,"Velocity":30,"Duration":240671,"SoundDuration":240671,"Delta":212165406},{"NoteNumber":67,"Velocity":25,"Duration":237141,"SoundDuration":237141,"Delta":212483493},{"NoteNumber":70,"Velocity":30,"Duration":237141,"SoundDuration":237141,"Delta":212483493},{"NoteNumber":67,"Velocity":27,"Duration":256381,"SoundDuration":256381,"Delta":212799682},{"NoteNumber":70,"Velocity":33,"Duration":256381,"SoundDuration":256381,"Delta":212799682},{"NoteNumber":77,"Velocity":47,"Duration":1277028,"SoundDuration":1277028,"Delta":213141523},{"NoteNumber":80,"Velocity":56,"Duration":1277028,"SoundDuration":1277028,"Delta":213141523},{"NoteNumber":60,"Velocity":36,"Duration":323415,"SoundDuration":323415,"Delta":213141523},{"NoteNumber":65,"Velocity":25,"Duration":229873,"SoundDuration":229873,"Delta":213464939},{"NoteNumber":68,"Velocity":31,"Duration":229873,"SoundDuration":229873,"Delta":213464939},{"NoteNumber":65,"Velocity":26,"Duration":234668,"SoundDuration":234668,"Delta":213771436},{"NoteNumber":68,"Velocity":31,"Duration":234668,"SoundDuration":234668,"Delta":213771436},{"NoteNumber":68,"Velocity":31,"Duration":250668,"SoundDuration":250668,"Delta":214084327},{"NoteNumber":65,"Velocity":26,"Duration":250668,"SoundDuration":250668,"Delta":214084327},{"NoteNumber":79,"Velocity":52,"Duration":1283334,"SoundDuration":1283334,"Delta":214418552},{"NoteNumber":82,"Velocity":63,"Duration":1283334,"SoundDuration":1283334,"Delta":214418552},{"NoteNumber":60,"Velocity":38,"Duration":330542,"SoundDuration":330542,"Delta":214418552},{"NoteNumber":64,"Velocity":28,"Duration":237141,"SoundDuration":237141,"Delta":214749094},{"NoteNumber":67,"Velocity":34,"Duration":237141,"SoundDuration":237141,"Delta":214749094},{"NoteNumber":67,"Velocity":34,"Duration":229873,"SoundDuration":229873,"Delta":215065283},{"NoteNumber":64,"Velocity":28,"Duration":229873,"SoundDuration":229873,"Delta":215065283},{"NoteNumber":64,"Velocity":28,"Duration":247579,"SoundDuration":247579,"Delta":215371780},{"NoteNumber":67,"Velocity":34,"Duration":247579,"SoundDuration":247579,"Delta":215371780},{"NoteNumber":77,"Velocity":48,"Duration":623358,"SoundDuration":623358,"Delta":215701886},{"NoteNumber":80,"Velocity":58,"Duration":623358,"SoundDuration":623358,"Delta":215701886},{"NoteNumber":60,"Velocity":47,"Duration":300360,"SoundDuration":300360,"Delta":215701886},{"NoteNumber":65,"Velocity":39,"Duration":322997,"SoundDuration":322997,"Delta":216002247},{"NoteNumber":68,"Velocity":39,"Duration":322997,"SoundDuration":322997,"Delta":216002247},{"NoteNumber":59,"Velocity":49,"Duration":306497,"SoundDuration":306497,"Delta":216325244},{"NoteNumber":65,"Velocity":42,"Duration":330542,"SoundDuration":330542,"Delta":216631742},{"NoteNumber":68,"Velocity":42,"Duration":330542,"SoundDuration":330542,"Delta":216631742},{"NoteNumber":74,"Velocity":57,"Duration":1277590,"SoundDuration":1277590,"Delta":216962284},{"NoteNumber":77,"Velocity":68,"Duration":1277590,"SoundDuration":1277590,"Delta":216962284},{"NoteNumber":58,"Velocity":55,"Duration":319557,"SoundDuration":319557,"Delta":216962284},{"NoteNumber":65,"Velocity":38,"Duration":233069,"SoundDuration":233069,"Delta":217281841},{"NoteNumber":68,"Velocity":45,"Duration":233069,"SoundDuration":233069,"Delta":217281841},{"NoteNumber":65,"Velocity":38,"Duration":229873,"SoundDuration":229873,"Delta":217591535},{"NoteNumber":68,"Velocity":45,"Duration":229873,"SoundDuration":229873,"Delta":217591535},{"NoteNumber":65,"Velocity":38,"Duration":256381,"SoundDuration":256381,"Delta":217898033},{"NoteNumber":68,"Velocity":45,"Duration":256381,"SoundDuration":256381,"Delta":217898033},{"NoteNumber":75,"Velocity":54,"Duration":1267535,"SoundDuration":1267535,"Delta":218239875},{"NoteNumber":79,"Velocity":64,"Duration":1267535,"SoundDuration":1267535,"Delta":218239875},{"NoteNumber":58,"Velocity":54,"Duration":323415,"SoundDuration":323415,"Delta":218239875},{"NoteNumber":63,"Velocity":39,"Duration":227548,"SoundDuration":227548,"Delta":218563290},{"NoteNumber":67,"Velocity":46,"Duration":227548,"SoundDuration":227548,"Delta":218563290},{"NoteNumber":63,"Velocity":39,"Duration":229873,"SoundDuration":229873,"Delta":218866688},{"NoteNumber":67,"Velocity":46,"Duration":229873,"SoundDuration":229873,"Delta":218866688},{"NoteNumber":67,"Velocity":46,"Duration":250668,"SoundDuration":250668,"Delta":219173186},{"NoteNumber":63,"Velocity":39,"Duration":250668,"SoundDuration":250668,"Delta":219173186},{"NoteNumber":77,"Velocity":57,"Duration":1285379,"SoundDuration":1285379,"Delta":219507410},{"NoteNumber":80,"Velocity":68,"Duration":1285379,"SoundDuration":1285379,"Delta":219507410},{"NoteNumber":58,"Velocity":54,"Duration":330542,"SoundDuration":330542,"Delta":219507410},{"NoteNumber":62,"Velocity":39,"Duration":229873,"SoundDuration":229873,"Delta":219837952},{"NoteNumber":65,"Velocity":46,"Duration":229873,"SoundDuration":229873,"Delta":219837952},{"NoteNumber":65,"Velocity":46,"Duration":229873,"SoundDuration":229873,"Delta":220144450},{"NoteNumber":62,"Velocity":39,"Duration":229873,"SoundDuration":229873,"Delta":220144450},{"NoteNumber":62,"Velocity":39,"Duration":256381,"SoundDuration":256381,"Delta":220450948},{"NoteNumber":65,"Velocity":46,"Duration":256381,"SoundDuration":256381,"Delta":220450948},{"NoteNumber":75,"Velocity":54,"Duration":633178,"SoundDuration":633178,"Delta":220792789},{"NoteNumber":79,"Velocity":63,"Duration":633178,"SoundDuration":633178,"Delta":220792789},{"NoteNumber":58,"Velocity":54,"Duration":316589,"SoundDuration":316589,"Delta":220792789},{"NoteNumber":63,"Velocity":37,"Duration":237441,"SoundDuration":237441,"Delta":221109378},{"NoteNumber":67,"Velocity":48,"Duration":237441,"SoundDuration":237441,"Delta":221109378},{"NoteNumber":63,"Velocity":37,"Duration":234962,"SoundDuration":234962,"Delta":221425968},{"NoteNumber":67,"Velocity":45,"Duration":234962,"SoundDuration":234962,"Delta":221425968},{"NoteNumber":63,"Velocity":30,"Duration":247906,"SoundDuration":247906,"Delta":221739251},{"NoteNumber":67,"Velocity":45,"Duration":247906,"SoundDuration":247906,"Delta":221739251},{"NoteNumber":57,"Velocity":45,"Duration":1277350,"SoundDuration":1277350,"Delta":222069793},{"NoteNumber":60,"Velocity":54,"Duration":1277350,"SoundDuration":1277350,"Delta":222069793},{"NoteNumber":78,"Velocity":61,"Duration":343970,"SoundDuration":343970,"Delta":222403571},{"NoteNumber":79,"Velocity":63,"Duration":339215,"SoundDuration":339215,"Delta":222716854},{"NoteNumber":78,"Velocity":60,"Duration":323415,"SoundDuration":323415,"Delta":223023728},{"NoteNumber":86,"Velocity":66,"Duration":650507,"SoundDuration":650507,"Delta":223347144},{"NoteNumber":67,"Velocity":39,"Duration":239974,"SoundDuration":239974,"Delta":223677686},{"NoteNumber":59,"Velocity":27,"Duration":239974,"SoundDuration":239974,"Delta":223677686},{"NoteNumber":77,"Velocity":62,"Duration":629218,"SoundDuration":629218,"Delta":223997651},{"NoteNumber":59,"Velocity":30,"Duration":232246,"SoundDuration":232246,"Delta":223997651},{"NoteNumber":67,"Velocity":43,"Duration":232246,"SoundDuration":232246,"Delta":223997651},{"NoteNumber":59,"Velocity":28,"Duration":239667,"SoundDuration":239667,"Delta":224307313},{"NoteNumber":67,"Velocity":40,"Duration":239667,"SoundDuration":239667,"Delta":224307313},{"NoteNumber":60,"Velocity":33,"Duration":1278293,"SoundDuration":1278293,"Delta":224626870},{"NoteNumber":67,"Velocity":45,"Duration":1278293,"SoundDuration":1278293,"Delta":224626870},{"NoteNumber":76,"Velocity":60,"Duration":343970,"SoundDuration":343970,"Delta":224960648},{"NoteNumber":77,"Velocity":62,"Duration":337561,"SoundDuration":337561,"Delta":225273931},{"NoteNumber":76,"Velocity":57,"Duration":324357,"SoundDuration":324357,"Delta":225580805},{"NoteNumber":84,"Velocity":63,"Duration":661807,"SoundDuration":661807,"Delta":225905163},{"NoteNumber":56,"Velocity":33,"Duration":239974,"SoundDuration":239974,"Delta":226247005},{"NoteNumber":60,"Velocity":39,"Duration":239974,"SoundDuration":239974,"Delta":226247005},{"NoteNumber":75,"Velocity":57,"Duration":639931,"SoundDuration":639931,"Delta":226566970},{"NoteNumber":56,"Velocity":35,"Duration":239974,"SoundDuration":239974,"Delta":226566970},{"NoteNumber":60,"Velocity":42,"Duration":239974,"SoundDuration":239974,"Delta":226566970},{"NoteNumber":56,"Velocity":32,"Duration":239974,"SoundDuration":239974,"Delta":226886936},{"NoteNumber":60,"Velocity":38,"Duration":239974,"SoundDuration":239974,"Delta":226886936},{"NoteNumber":53,"Velocity":36,"Duration":1252926,"SoundDuration":1252926,"Delta":227206902},{"NoteNumber":56,"Velocity":44,"Duration":1252926,"SoundDuration":1252926,"Delta":227206902},{"NoteNumber":73,"Velocity":54,"Duration":350615,"SoundDuration":350615,"Delta":227526868},{"NoteNumber":72,"Velocity":56,"Duration":337147,"SoundDuration":337147,"Delta":227846833},{"NoteNumber":73,"Velocity":54,"Duration":338453,"SoundDuration":338453,"Delta":228153331},{"NoteNumber":76,"Velocity":58,"Duration":351512,"SoundDuration":351512,"Delta":228459829},{"NoteNumber":77,"Velocity":50,"Duration":351512,"SoundDuration":351512,"Delta":228779386},{"NoteNumber":79,"Velocity":53,"Duration":352567,"SoundDuration":352567,"Delta":229098943},{"NoteNumber":80,"Velocity":55,"Duration":330105,"SoundDuration":330105,"Delta":229418500},{"NoteNumber":72,"Velocity":55,"Duration":1285328,"SoundDuration":1285328,"Delta":229748606},{"NoteNumber":55,"Velocity":38,"Duration":1285328,"SoundDuration":1285328,"Delta":229748606},{"NoteNumber":63,"Velocity":38,"Duration":351512,"SoundDuration":351512,"Delta":229748606},{"NoteNumber":64,"Velocity":35,"Duration":350846,"SoundDuration":350846,"Delta":230068163},{"NoteNumber":65,"Velocity":36,"Duration":352353,"SoundDuration":352353,"Delta":230387720},{"NoteNumber":66,"Velocity":36,"Duration":358468,"SoundDuration":358468,"Delta":230707421},{"NoteNumber":71,"Velocity":54,"Duration":351512,"SoundDuration":351512,"Delta":231033934},{"NoteNumber":55,"Velocity":38,"Duration":639114,"SoundDuration":639114,"Delta":231033934},{"NoteNumber":67,"Velocity":38,"Duration":639114,"SoundDuration":639114,"Delta":231033934},{"NoteNumber":74,"Velocity":49,"Duration":351512,"SoundDuration":351512,"Delta":231353491},{"NoteNumber":75,"Velocity":52,"Duration":351512,"SoundDuration":351512,"Delta":231673048},{"NoteNumber":77,"Velocity":54,"Duration":319557,"SoundDuration":319557,"Delta":231992605},{"NoteNumber":75,"Velocity":49,"Duration":988414,"SoundDuration":988414,"Delta":232312162},{"NoteNumber":79,"Velocity":59,"Duration":988414,"SoundDuration":988414,"Delta":232312162},{"NoteNumber":48,"Velocity":36,"Duration":337989,"SoundDuration":337989,"Delta":232312162},{"NoteNumber":60,"Velocity":30,"Duration":234668,"SoundDuration":234668,"Delta":232650152},{"NoteNumber":60,"Velocity":30,"Duration":253150,"SoundDuration":253150,"Delta":232963043},{"NoteNumber":74,"Velocity":47,"Duration":337533,"SoundDuration":337533,"Delta":233300577},{"NoteNumber":77,"Velocity":56,"Duration":337533,"SoundDuration":337533,"Delta":233300577},{"NoteNumber":60,"Velocity":32,"Duration":253150,"SoundDuration":253150,"Delta":233300577},{"NoteNumber":72,"Velocity":47,"Duration":660948,"SoundDuration":660948,"Delta":233638111},{"NoteNumber":75,"Velocity":56,"Duration":660948,"SoundDuration":660948,"Delta":233638111},{"NoteNumber":60,"Velocity":32,"Duration":253150,"SoundDuration":253150,"Delta":233638111},{"NoteNumber":60,"Velocity":29,"Duration":242561,"SoundDuration":242561,"Delta":233975644},{"NoteNumber":60,"Velocity":29,"Duration":242561,"SoundDuration":242561,"Delta":234299060},{"NoteNumber":60,"Velocity":29,"Duration":268624,"SoundDuration":268624,"Delta":234622475},{"NoteNumber":77,"Velocity":52,"Duration":970582,"SoundDuration":970582,"Delta":234980641},{"NoteNumber":80,"Velocity":63,"Duration":970582,"SoundDuration":970582,"Delta":234980641},{"NoteNumber":47,"Velocity":36,"Duration":337989,"SoundDuration":337989,"Delta":234980641},{"NoteNumber":59,"Velocity":32,"Duration":234668,"SoundDuration":234668,"Delta":235318631},{"NoteNumber":59,"Velocity":32,"Duration":238073,"SoundDuration":238073,"Delta":235631522},{"NoteNumber":75,"Velocity":46,"Duration":326512,"SoundDuration":326512,"Delta":235951224},{"NoteNumber":79,"Velocity":54,"Duration":326512,"SoundDuration":326512,"Delta":235951224},{"NoteNumber":59,"Velocity":32,"Duration":244884,"SoundDuration":244884,"Delta":235951224},{"NoteNumber":74,"Velocity":48,"Duration":643315,"SoundDuration":643315,"Delta":236277737},{"NoteNumber":77,"Velocity":58,"Duration":643315,"SoundDuration":643315,"Delta":236277737},{"NoteNumber":59,"Velocity":36,"Duration":244991,"SoundDuration":244991,"Delta":236277737},{"NoteNumber":59,"Velocity":29,"Duration":237441,"SoundDuration":237441,"Delta":236604463},{"NoteNumber":59,"Velocity":29,"Duration":237441,"SoundDuration":237441,"Delta":236921052},{"NoteNumber":59,"Velocity":29,"Duration":271870,"SoundDuration":271870,"Delta":237237642},{"NoteNumber":60,"Velocity":46,"Duration":1303517,"SoundDuration":1303517,"Delta":237600136},{"NoteNumber":72,"Velocity":47,"Duration":355756,"SoundDuration":355756,"Delta":237907010},{"NoteNumber":75,"Velocity":57,"Duration":355756,"SoundDuration":355756,"Delta":237907010},{"NoteNumber":74,"Velocity":50,"Duration":358396,"SoundDuration":358396,"Delta":238230425},{"NoteNumber":77,"Velocity":60,"Duration":358396,"SoundDuration":358396,"Delta":238230425},{"NoteNumber":75,"Velocity":52,"Duration":262360,"SoundDuration":262360,"Delta":238553840},{"NoteNumber":79,"Velocity":62,"Duration":262360,"SoundDuration":262360,"Delta":238553840},{"NoteNumber":75,"Velocity":51,"Duration":316589,"SoundDuration":316589,"Delta":238903654},{"NoteNumber":79,"Velocity":61,"Duration":316589,"SoundDuration":316589,"Delta":238903654},{"NoteNumber":56,"Velocity":40,"Duration":643529,"SoundDuration":643529,"Delta":238903654},{"NoteNumber":74,"Velocity":50,"Duration":326939,"SoundDuration":326939,"Delta":239220243},{"NoteNumber":77,"Velocity":60,"Duration":326939,"SoundDuration":326939,"Delta":239220243},{"NoteNumber":74,"Velocity":48,"Duration":326939,"SoundDuration":326939,"Delta":239547183},{"NoteNumber":77,"Velocity":58,"Duration":326939,"SoundDuration":326939,"Delta":239547183},{"NoteNumber":54,"Velocity":36,"Duration":685105,"SoundDuration":685105,"Delta":239547183},{"NoteNumber":72,"Velocity":47,"Duration":268624,"SoundDuration":268624,"Delta":239874122},{"NoteNumber":75,"Velocity":56,"Duration":268624,"SoundDuration":268624,"Delta":239874122},{"NoteNumber":72,"Velocity":49,"Duration":1290323,"SoundDuration":1290323,"Delta":240232289},{"NoteNumber":75,"Velocity":58,"Duration":1290323,"SoundDuration":1290323,"Delta":240232289},{"NoteNumber":55,"Velocity":46,"Duration":326939,"SoundDuration":326939,"Delta":240232289},{"NoteNumber":43,"Velocity":41,"Duration":323452,"SoundDuration":323452,"Delta":240559228},{"NoteNumber":55,"Velocity":46,"Duration":159982,"SoundDuration":159982,"Delta":240882681},{"NoteNumber":55,"Velocity":42,"Duration":159982,"SoundDuration":159982,"Delta":241202647},{"NoteNumber":71,"Velocity":45,"Duration":639114,"SoundDuration":639114,"Delta":241522613},{"NoteNumber":74,"Velocity":54,"Duration":639114,"SoundDuration":639114,"Delta":241522613},{"NoteNumber":55,"Velocity":48,"Duration":346186,"SoundDuration":346186,"Delta":241522613},{"NoteNumber":53,"Velocity":45,"Duration":346186,"SoundDuration":346186,"Delta":241842170},{"NoteNumber":51,"Velocity":43,"Duration":346186,"SoundDuration":346186,"Delta":242161727},{"NoteNumber":50,"Velocity":39,"Duration":348372,"SoundDuration":348372,"Delta":242481284},{"NoteNumber":48,"Velocity":46,"Duration":1294453,"SoundDuration":1294453,"Delta":242800841},{"NoteNumber":79,"Velocity":61,"Duration":312891,"SoundDuration":312891,"Delta":243146622},{"NoteNumber":75,"Velocity":56,"Duration":316223,"SoundDuration":316223,"Delta":243459513},{"NoteNumber":71,"Velocity":56,"Duration":319557,"SoundDuration":319557,"Delta":243775737},{"NoteNumber":74,"Velocity":60,"Duration":654190,"SoundDuration":654190,"Delta":244095294},{"NoteNumber":67,"Velocity":39,"Duration":239974,"SoundDuration":239974,"Delta":244429519},{"NoteNumber":64,"Velocity":33,"Duration":239974,"SoundDuration":239974,"Delta":244429519},{"NoteNumber":72,"Velocity":55,"Duration":639931,"SoundDuration":639931,"Delta":244749484},{"NoteNumber":64,"Velocity":36,"Duration":239974,"SoundDuration":239974,"Delta":244749484},{"NoteNumber":67,"Velocity":43,"Duration":239974,"SoundDuration":239974,"Delta":244749484},{"NoteNumber":64,"Velocity":34,"Duration":239974,"SoundDuration":239974,"Delta":245069450},{"NoteNumber":67,"Velocity":40,"Duration":239974,"SoundDuration":239974,"Delta":245069450},{"NoteNumber":65,"Velocity":43,"Duration":1302535,"SoundDuration":1302535,"Delta":245389416},{"NoteNumber":68,"Velocity":51,"Duration":1302535,"SoundDuration":1302535,"Delta":245389416},{"NoteNumber":84,"Velocity":61,"Duration":306497,"SoundDuration":306497,"Delta":245735197},{"NoteNumber":80,"Velocity":61,"Duration":319557,"SoundDuration":319557,"Delta":246041695},{"NoteNumber":76,"Velocity":61,"Duration":330699,"SoundDuration":330699,"Delta":246361252},{"NoteNumber":79,"Velocity":65,"Duration":661807,"SoundDuration":661807,"Delta":246691951},{"NoteNumber":69,"Velocity":36,"Duration":239974,"SoundDuration":239974,"Delta":247033793},{"NoteNumber":72,"Velocity":43,"Duration":239974,"SoundDuration":239974,"Delta":247033793},{"NoteNumber":78,"Velocity":61,"Duration":639931,"SoundDuration":639931,"Delta":247353759},{"NoteNumber":69,"Velocity":38,"Duration":239974,"SoundDuration":239974,"Delta":247353759},{"NoteNumber":72,"Velocity":45,"Duration":239974,"SoundDuration":239974,"Delta":247353759},{"NoteNumber":69,"Velocity":36,"Duration":239974,"SoundDuration":239974,"Delta":247673724},{"NoteNumber":72,"Velocity":43,"Duration":239974,"SoundDuration":239974,"Delta":247673724},{"NoteNumber":67,"Velocity":45,"Duration":319965,"SoundDuration":319965,"Delta":247993690},{"NoteNumber":71,"Velocity":54,"Duration":319965,"SoundDuration":319965,"Delta":247993690},{"NoteNumber":79,"Velocity":54,"Duration":313283,"SoundDuration":313283,"Delta":248313656},{"NoteNumber":68,"Velocity":50,"Duration":330542,"SoundDuration":330542,"Delta":248626939},{"NoteNumber":75,"Velocity":53,"Duration":320002,"SoundDuration":320002,"Delta":248957481},{"NoteNumber":72,"Velocity":45,"Duration":320002,"SoundDuration":320002,"Delta":248957481},{"NoteNumber":65,"Velocity":54,"Duration":334224,"SoundDuration":334224,"Delta":249277483},{"NoteNumber":74,"Velocity":45,"Duration":319965,"SoundDuration":319965,"Delta":249611708},{"NoteNumber":77,"Velocity":53,"Duration":319965,"SoundDuration":319965,"Delta":249611708},{"NoteNumber":67,"Velocity":51,"Duration":334224,"SoundDuration":334224,"Delta":249931674},{"NoteNumber":74,"Velocity":45,"Duration":323415,"SoundDuration":323415,"Delta":250265898},{"NoteNumber":71,"Velocity":53,"Duration":323415,"SoundDuration":323415,"Delta":250265898},{"NoteNumber":60,"Velocity":57,"Duration":1318809,"SoundDuration":1318809,"Delta":250589313},{"NoteNumber":71,"Velocity":49,"Duration":359633,"SoundDuration":359633,"Delta":250927303},{"NoteNumber":72,"Velocity":52,"Duration":359633,"SoundDuration":359633,"Delta":251254243},{"NoteNumber":71,"Velocity":49,"Duration":326939,"SoundDuration":326939,"Delta":251581183},{"NoteNumber":72,"Velocity":54,"Duration":1617713,"SoundDuration":1617713,"Delta":251908123},{"NoteNumber":63,"Velocity":35,"Duration":351962,"SoundDuration":351962,"Delta":252231714},{"NoteNumber":66,"Velocity":41,"Duration":351962,"SoundDuration":351962,"Delta":252231714},{"NoteNumber":64,"Velocity":37,"Duration":351962,"SoundDuration":351962,"Delta":252551680},{"NoteNumber":67,"Velocity":45,"Duration":351962,"SoundDuration":351962,"Delta":252551680},{"NoteNumber":63,"Velocity":35,"Duration":319965,"SoundDuration":319965,"Delta":252871646},{"NoteNumber":66,"Velocity":41,"Duration":319965,"SoundDuration":319965,"Delta":252871646},{"NoteNumber":64,"Velocity":40,"Duration":1617753,"SoundDuration":1617753,"Delta":253191611},{"NoteNumber":67,"Velocity":47,"Duration":1617753,"SoundDuration":1617753,"Delta":253191611},{"NoteNumber":73,"Velocity":54,"Duration":345624,"SoundDuration":345624,"Delta":253525836},{"NoteNumber":72,"Velocity":51,"Duration":355756,"SoundDuration":355756,"Delta":253839119},{"NoteNumber":73,"Velocity":53,"Duration":323415,"SoundDuration":323415,"Delta":254162534},{"NoteNumber":72,"Velocity":54,"Duration":1614586,"SoundDuration":1614586,"Delta":254485950},{"NoteNumber":64,"Velocity":36,"Duration":351661,"SoundDuration":351661,"Delta":254809365},{"NoteNumber":67,"Velocity":43,"Duration":351661,"SoundDuration":351661,"Delta":254809365},{"NoteNumber":65,"Velocity":38,"Duration":348248,"SoundDuration":348248,"Delta":255129367},{"NoteNumber":68,"Velocity":45,"Duration":348248,"SoundDuration":348248,"Delta":255129367},{"NoteNumber":64,"Velocity":35,"Duration":316589,"SoundDuration":316589,"Delta":255445956},{"NoteNumber":67,"Velocity":42,"Duration":316589,"SoundDuration":316589,"Delta":255445956},{"NoteNumber":65,"Velocity":40,"Duration":1629881,"SoundDuration":1629881,"Delta":255762546},{"NoteNumber":68,"Velocity":47,"Duration":1629881,"SoundDuration":1629881,"Delta":255762546},{"NoteNumber":76,"Velocity":56,"Duration":341704,"SoundDuration":341704,"Delta":256100536},{"NoteNumber":77,"Velocity":58,"Duration":350773,"SoundDuration":350773,"Delta":256410581},{"NoteNumber":80,"Velocity":61,"Duration":341841,"SoundDuration":341841,"Delta":256727170},{"NoteNumber":71,"Velocity":56,"Duration":1606944,"SoundDuration":1606944,"Delta":257069012},{"NoteNumber":63,"Velocity":33,"Duration":355756,"SoundDuration":355756,"Delta":257392427},{"NoteNumber":66,"Velocity":39,"Duration":355756,"SoundDuration":355756,"Delta":257392427},{"NoteNumber":62,"Velocity":36,"Duration":355756,"SoundDuration":355756,"Delta":257715842},{"NoteNumber":65,"Velocity":44,"Duration":355756,"SoundDuration":355756,"Delta":257715842},{"NoteNumber":63,"Velocity":33,"Duration":323415,"SoundDuration":323415,"Delta":258039258},{"NoteNumber":66,"Velocity":39,"Duration":323415,"SoundDuration":323415,"Delta":258039258},{"NoteNumber":62,"Velocity":41,"Duration":1614070,"SoundDuration":1614070,"Delta":258362673},{"NoteNumber":65,"Velocity":49,"Duration":1614070,"SoundDuration":1614070,"Delta":258362673},{"NoteNumber":69,"Velocity":50,"Duration":355756,"SoundDuration":355756,"Delta":258675956},{"NoteNumber":70,"Velocity":54,"Duration":355756,"SoundDuration":355756,"Delta":258999371},{"NoteNumber":69,"Velocity":50,"Duration":323415,"SoundDuration":323415,"Delta":259322787},{"NoteNumber":70,"Velocity":54,"Duration":1597313,"SoundDuration":1597313,"Delta":259646202},{"NoteNumber":64,"Velocity":27,"Duration":351962,"SoundDuration":351962,"Delta":259976744},{"NoteNumber":67,"Velocity":33,"Duration":351962,"SoundDuration":351962,"Delta":259976744},{"NoteNumber":65,"Velocity":29,"Duration":351962,"SoundDuration":351962,"Delta":260296710},{"NoteNumber":68,"Velocity":36,"Duration":351962,"SoundDuration":351962,"Delta":260296710},{"NoteNumber":64,"Velocity":27,"Duration":319965,"SoundDuration":319965,"Delta":260616675},{"NoteNumber":67,"Velocity":33,"Duration":319965,"SoundDuration":319965,"Delta":260616675},{"NoteNumber":65,"Velocity":33,"Duration":1277119,"SoundDuration":1277119,"Delta":260936641},{"NoteNumber":68,"Velocity":39,"Duration":1277119,"SoundDuration":1277119,"Delta":260936641},{"NoteNumber":73,"Velocity":46,"Duration":355756,"SoundDuration":355756,"Delta":261243515},{"NoteNumber":74,"Velocity":48,"Duration":355756,"SoundDuration":355756,"Delta":261566930},{"NoteNumber":75,"Velocity":49,"Duration":355756,"SoundDuration":355756,"Delta":261890346},{"NoteNumber":76,"Velocity":51,"Duration":355756,"SoundDuration":355756,"Delta":262213761},{"NoteNumber":77,"Velocity":52,"Duration":355756,"SoundDuration":355756,"Delta":262537176},{"NoteNumber":78,"Velocity":53,"Duration":360562,"SoundDuration":360562,"Delta":262860591},{"NoteNumber":79,"Velocity":54,"Duration":371470,"SoundDuration":371470,"Delta":263184007},{"NoteNumber":82,"Velocity":55,"Duration":1002673,"SoundDuration":1002673,"Delta":263555478},{"NoteNumber":62,"Velocity":32,"Duration":2005347,"SoundDuration":2005347,"Delta":263555478},{"NoteNumber":65,"Velocity":32,"Duration":2005347,"SoundDuration":2005347,"Delta":263555478},{"NoteNumber":70,"Velocity":38,"Duration":2005347,"SoundDuration":2005347,"Delta":263555478},{"NoteNumber":81,"Velocity":50,"Duration":334224,"SoundDuration":334224,"Delta":264558151},{"NoteNumber":80,"Velocity":45,"Duration":668449,"SoundDuration":668449,"Delta":264892376},{"NoteNumber":64,"Velocity":41,"Duration":334071,"SoundDuration":334071,"Delta":266560122},{"NoteNumber":65,"Velocity":44,"Duration":338150,"SoundDuration":338150,"Delta":266894194},{"NoteNumber":67,"Velocity":41,"Duration":342136,"SoundDuration":342136,"Delta":267232344},{"NoteNumber":68,"Velocity":44,"Duration":346251,"SoundDuration":346251,"Delta":267574481},{"NoteNumber":67,"Velocity":45,"Duration":350466,"SoundDuration":350466,"Delta":267920733},{"NoteNumber":68,"Velocity":45,"Duration":355454,"SoundDuration":355454,"Delta":268271200},{"NoteNumber":69,"Velocity":46,"Duration":418060,"SoundDuration":418060,"Delta":268626655},{"NoteNumber":67,"Velocity":34,"Duration":1415761,"SoundDuration":1415761,"Delta":269044715},{"NoteNumber":70,"Velocity":49,"Duration":1415761,"SoundDuration":1415761,"Delta":269044715},{"NoteNumber":39,"Velocity":27,"Duration":1415761,"SoundDuration":1415761,"Delta":269044715},{"NoteNumber":51,"Velocity":39,"Duration":1415761,"SoundDuration":1415761,"Delta":269044715},{"NoteNumber":63,"Velocity":32,"Duration":653025,"SoundDuration":653025,"Delta":270460477},{"NoteNumber":67,"Velocity":47,"Duration":653025,"SoundDuration":653025,"Delta":270460477},{"NoteNumber":58,"Velocity":33,"Duration":675067,"SoundDuration":675067,"Delta":271113502},{"NoteNumber":65,"Velocity":49,"Duration":675067,"SoundDuration":675067,"Delta":271113502},{"NoteNumber":46,"Velocity":33,"Duration":675067,"SoundDuration":675067,"Delta":271113502},{"NoteNumber":55,"Velocity":33,"Duration":690607,"SoundDuration":690607,"Delta":271788570},{"NoteNumber":63,"Velocity":49,"Duration":690607,"SoundDuration":690607,"Delta":271788570},{"NoteNumber":51,"Velocity":39,"Duration":1344487,"SoundDuration":1344487,"Delta":271788570},{"NoteNumber":58,"Velocity":46,"Duration":653879,"SoundDuration":653879,"Delta":272479177},{"NoteNumber":63,"Velocity":49,"Duration":625782,"SoundDuration":625782,"Delta":273133057},{"NoteNumber":62,"Velocity":34,"Duration":661084,"SoundDuration":661084,"Delta":273758839},{"NoteNumber":65,"Velocity":49,"Duration":661084,"SoundDuration":661084,"Delta":273758839},{"NoteNumber":46,"Velocity":36,"Duration":661084,"SoundDuration":661084,"Delta":273758839},{"NoteNumber":63,"Velocity":36,"Duration":2635888,"SoundDuration":2635888,"Delta":274419923},{"NoteNumber":67,"Velocity":52,"Duration":661084,"SoundDuration":661084,"Delta":274419923},{"NoteNumber":51,"Velocity":39,"Duration":661084,"SoundDuration":661084,"Delta":274419923},{"NoteNumber":68,"Velocity":58,"Duration":612995,"SoundDuration":612995,"Delta":275081007},{"NoteNumber":48,"Velocity":34,"Duration":612995,"SoundDuration":612995,"Delta":275081007},{"NoteNumber":70,"Velocity":60,"Duration":645476,"SoundDuration":645476,"Delta":275694002},{"NoteNumber":43,"Velocity":39,"Duration":645476,"SoundDuration":645476,"Delta":275694002},{"NoteNumber":72,"Velocity":57,"Duration":716332,"SoundDuration":716332,"Delta":276339479},{"NoteNumber":44,"Velocity":36,"Duration":716332,"SoundDuration":716332,"Delta":276339479},{"NoteNumber":67,"Velocity":63,"Duration":991625,"SoundDuration":991625,"Delta":277055812},{"NoteNumber":63,"Velocity":44,"Duration":1323786,"SoundDuration":1323786,"Delta":277055812},{"NoteNumber":46,"Velocity":39,"Duration":1929170,"SoundDuration":1929170,"Delta":277055812},{"NoteNumber":68,"Velocity":53,"Duration":332160,"SoundDuration":332160,"Delta":278047438},{"NoteNumber":62,"Velocity":37,"Duration":1296333,"SoundDuration":1296333,"Delta":278379598},{"NoteNumber":65,"Velocity":54,"Duration":340655,"SoundDuration":340655,"Delta":278379598},{"NoteNumber":67,"Velocity":53,"Duration":314631,"SoundDuration":314631,"Delta":278696187},{"NoteNumber":68,"Velocity":54,"Duration":341787,"SoundDuration":341787,"Delta":278984982},{"NoteNumber":69,"Velocity":54,"Duration":380903,"SoundDuration":380903,"Delta":279295027},{"NoteNumber":70,"Velocity":50,"Duration":2560685,"SoundDuration":2560685,"Delta":279675931},{"NoteNumber":82,"Velocity":59,"Duration":1307758,"SoundDuration":1307758,"Delta":279675931},{"NoteNumber":67,"Velocity":36,"Duration":1307758,"SoundDuration":1307758,"Delta":279675931},{"NoteNumber":79,"Velocity":62,"Duration":612995,"SoundDuration":612995,"Delta":280983690},{"NoteNumber":63,"Velocity":36,"Duration":612995,"SoundDuration":612995,"Delta":280983690},{"NoteNumber":77,"Velocity":58,"Duration":639931,"SoundDuration":639931,"Delta":281596686},{"NoteNumber":58,"Velocity":34,"Duration":639931,"SoundDuration":639931,"Delta":281596686},{"NoteNumber":70,"Velocity":50,"Duration":490409,"SoundDuration":490409,"Delta":282236617},{"NoteNumber":75,"Velocity":60,"Duration":490409,"SoundDuration":490409,"Delta":282236617},{"NoteNumber":55,"Velocity":38,"Duration":490409,"SoundDuration":490409,"Delta":282236617},{"NoteNumber":74,"Velocity":46,"Duration":469924,"SoundDuration":469924,"Delta":282890497},{"NoteNumber":77,"Velocity":55,"Duration":469924,"SoundDuration":469924,"Delta":282890497},{"NoteNumber":58,"Velocity":34,"Duration":469924,"SoundDuration":469924,"Delta":282890497},{"NoteNumber":75,"Velocity":49,"Duration":469924,"SoundDuration":469924,"Delta":283517063},{"NoteNumber":79,"Velocity":58,"Duration":469924,"SoundDuration":469924,"Delta":283517063},{"NoteNumber":63,"Velocity":36,"Duration":469924,"SoundDuration":469924,"Delta":283517063},{"NoteNumber":75,"Velocity":51,"Duration":495812,"SoundDuration":495812,"Delta":284143630},{"NoteNumber":80,"Velocity":61,"Duration":495812,"SoundDuration":495812,"Delta":284143630},{"NoteNumber":60,"Velocity":39,"Duration":495812,"SoundDuration":495812,"Delta":284143630},{"NoteNumber":82,"Velocity":63,"Duration":653879,"SoundDuration":653879,"Delta":284804714},{"NoteNumber":75,"Velocity":54,"Duration":653879,"SoundDuration":653879,"Delta":284804714},{"NoteNumber":55,"Velocity":42,"Duration":653879,"SoundDuration":653879,"Delta":284804714},{"NoteNumber":83,"Velocity":62,"Duration":179009,"SoundDuration":179009,"Delta":285458593},{"NoteNumber":65,"Velocity":36,"Duration":646046,"SoundDuration":646046,"Delta":285458593},{"NoteNumber":56,"Velocity":30,"Duration":646046,"SoundDuration":646046,"Delta":285458593},{"NoteNumber":84,"Velocity":59,"Duration":179009,"SoundDuration":179009,"Delta":285612030},{"NoteNumber":80,"Velocity":59,"Duration":184392,"SoundDuration":184392,"Delta":285765467},{"NoteNumber":77,"Velocity":57,"Duration":185735,"SoundDuration":185735,"Delta":285918904},{"NoteNumber":75,"Velocity":64,"Duration":675067,"SoundDuration":675067,"Delta":286104640},{"NoteNumber":58,"Velocity":35,"Duration":1386382,"SoundDuration":1386382,"Delta":286104640},{"NoteNumber":67,"Velocity":42,"Duration":675067,"SoundDuration":675067,"Delta":286104640},{"NoteNumber":79,"Velocity":60,"Duration":179009,"SoundDuration":179009,"Delta":286779707},{"NoteNumber":68,"Velocity":33,"Duration":711315,"SoundDuration":711315,"Delta":286779707},{"NoteNumber":77,"Velocity":56,"Duration":179009,"SoundDuration":179009,"Delta":286933144},{"NoteNumber":76,"Velocity":56,"Duration":195270,"SoundDuration":195270,"Delta":287086581},{"NoteNumber":77,"Velocity":53,"Duration":209169,"SoundDuration":209169,"Delta":287240018},{"NoteNumber":74,"Velocity":51,"Duration":1415761,"SoundDuration":1415761,"Delta":287491022},{"NoteNumber":77,"Velocity":61,"Duration":1415761,"SoundDuration":1415761,"Delta":287491022},{"NoteNumber":63,"Velocity":28,"Duration":2062592,"SoundDuration":2062592,"Delta":287491022},{"NoteNumber":68,"Velocity":34,"Duration":1415761,"SoundDuration":1415761,"Delta":287491022},{"NoteNumber":75,"Velocity":54,"Duration":646830,"SoundDuration":646830,"Delta":288906784},{"NoteNumber":67,"Velocity":32,"Duration":646830,"SoundDuration":646830,"Delta":288906784},{"NoteNumber":72,"Velocity":54,"Duration":1283722,"SoundDuration":1283722,"Delta":290200445},{"NoteNumber":56,"Velocity":36,"Duration":320002,"SoundDuration":320002,"Delta":290200445},{"NoteNumber":63,"Velocity":31,"Duration":316589,"SoundDuration":316589,"Delta":290520447},{"NoteNumber":60,"Velocity":31,"Duration":316589,"SoundDuration":316589,"Delta":290837037},{"NoteNumber":63,"Velocity":31,"Duration":330541,"SoundDuration":330541,"Delta":291153626},{"NoteNumber":75,"Velocity":54,"Duration":306873,"SoundDuration":306873,"Delta":291484168},{"NoteNumber":58,"Velocity":36,"Duration":306873,"SoundDuration":306873,"Delta":291484168},{"NoteNumber":73,"Velocity":50,"Duration":310045,"SoundDuration":310045,"Delta":291791042},{"NoteNumber":63,"Velocity":33,"Duration":310045,"SoundDuration":310045,"Delta":291791042},{"NoteNumber":70,"Velocity":54,"Duration":316589,"SoundDuration":316589,"Delta":292101087},{"NoteNumber":61,"Velocity":32,"Duration":316589,"SoundDuration":316589,"Delta":292101087},{"NoteNumber":67,"Velocity":50,"Duration":341841,"SoundDuration":341841,"Delta":292417677},{"NoteNumber":63,"Velocity":32,"Duration":341841,"SoundDuration":341841,"Delta":292417677},{"NoteNumber":68,"Velocity":54,"Duration":981055,"SoundDuration":981055,"Delta":292759518},{"NoteNumber":60,"Velocity":36,"Duration":323415,"SoundDuration":323415,"Delta":292759518},{"NoteNumber":63,"Velocity":31,"Duration":323415,"SoundDuration":323415,"Delta":293082933},{"NoteNumber":56,"Velocity":36,"Duration":334224,"SoundDuration":334224,"Delta":293406349},{"NoteNumber":70,"Velocity":50,"Duration":158294,"SoundDuration":158294,"Delta":293740573},{"NoteNumber":63,"Velocity":31,"Duration":316589,"SoundDuration":316589,"Delta":293740573},{"NoteNumber":72,"Velocity":50,"Duration":158294,"SoundDuration":158294,"Delta":293898868},{"NoteNumber":55,"Velocity":36,"Duration":326939,"SoundDuration":326939,"Delta":294057162},{"NoteNumber":70,"Velocity":54,"Duration":653879,"SoundDuration":653879,"Delta":294068060},{"NoteNumber":63,"Velocity":32,"Duration":326939,"SoundDuration":326939,"Delta":294384102},{"NoteNumber":51,"Velocity":32,"Duration":326939,"SoundDuration":326939,"Delta":294711042},{"NoteNumber":63,"Velocity":32,"Duration":326939,"SoundDuration":326939,"Delta":295037982},{"NoteNumber":73,"Velocity":59,"Duration":1283722,"SoundDuration":1283722,"Delta":295364921},{"NoteNumber":55,"Velocity":43,"Duration":320002,"SoundDuration":320002,"Delta":295364921},{"NoteNumber":63,"Velocity":37,"Duration":316589,"SoundDuration":316589,"Delta":295684924},{"NoteNumber":58,"Velocity":37,"Duration":316589,"SoundDuration":316589,"Delta":296001513},{"NoteNumber":63,"Velocity":37,"Duration":330541,"SoundDuration":330541,"Delta":296318102},{"NoteNumber":77,"Velocity":61,"Duration":341050,"SoundDuration":341050,"Delta":296648644},{"NoteNumber":56,"Velocity":44,"Duration":310045,"SoundDuration":310045,"Delta":296648644},{"NoteNumber":75,"Velocity":56,"Duration":344976,"SoundDuration":344976,"Delta":296958690},{"NoteNumber":63,"Velocity":33,"Duration":313317,"SoundDuration":313317,"Delta":296958690},{"NoteNumber":73,"Velocity":58,"Duration":350773,"SoundDuration":350773,"Delta":297272007},{"NoteNumber":60,"Velocity":36,"Duration":316589,"SoundDuration":316589,"Delta":297272007},{"NoteNumber":72,"Velocity":54,"Duration":374183,"SoundDuration":374183,"Delta":297588596},{"NoteNumber":63,"Velocity":36,"Duration":341841,"SoundDuration":341841,"Delta":297588596},{"NoteNumber":70,"Velocity":63,"Duration":973770,"SoundDuration":973770,"Delta":297930438},{"NoteNumber":55,"Velocity":43,"Duration":323415,"SoundDuration":323415,"Delta":297930438},{"NoteNumber":63,"Velocity":38,"Duration":323415,"SoundDuration":323415,"Delta":298253853},{"NoteNumber":51,"Velocity":42,"Duration":326939,"SoundDuration":326939,"Delta":298577268},{"NoteNumber":72,"Velocity":54,"Duration":158294,"SoundDuration":158294,"Delta":298904208},{"NoteNumber":63,"Velocity":42,"Duration":316589,"SoundDuration":316589,"Delta":298904208},{"NoteNumber":73,"Velocity":54,"Duration":158294,"SoundDuration":158294,"Delta":299062503},{"NoteNumber":72,"Velocity":63,"Duration":653879,"SoundDuration":653879,"Delta":299220797},{"NoteNumber":56,"Velocity":48,"Duration":326939,"SoundDuration":326939,"Delta":299220797},{"NoteNumber":63,"Velocity":43,"Duration":326939,"SoundDuration":326939,"Delta":299547737},{"NoteNumber":60,"Velocity":51,"Duration":326939,"SoundDuration":326939,"Delta":299874677},{"NoteNumber":63,"Velocity":43,"Duration":326939,"SoundDuration":326939,"Delta":300201617},{"NoteNumber":84,"Velocity":67,"Duration":940093,"SoundDuration":940093,"Delta":300528556},{"NoteNumber":58,"Velocity":56,"Duration":320002,"SoundDuration":320002,"Delta":300528556},{"NoteNumber":67,"Velocity":42,"Duration":310045,"SoundDuration":310045,"Delta":300848559},{"NoteNumber":64,"Velocity":51,"Duration":310045,"SoundDuration":310045,"Delta":301158604},{"NoteNumber":76,"Velocity":59,"Duration":323415,"SoundDuration":323415,"Delta":301468650},{"NoteNumber":67,"Velocity":45,"Duration":323415,"SoundDuration":323415,"Delta":301468650},{"NoteNumber":77,"Velocity":61,"Duration":148868,"SoundDuration":148868,"Delta":301792065},{"NoteNumber":56,"Velocity":54,"Duration":297737,"SoundDuration":297737,"Delta":301792065},{"NoteNumber":79,"Velocity":56,"Duration":153436,"SoundDuration":153436,"Delta":302089802},{"NoteNumber":65,"Velocity":44,"Duration":306873,"SoundDuration":306873,"Delta":302089802},{"NoteNumber":80,"Velocity":57,"Duration":153436,"SoundDuration":153436,"Delta":302396676},{"NoteNumber":60,"Velocity":46,"Duration":306873,"SoundDuration":306873,"Delta":302396676},{"NoteNumber":81,"Velocity":58,"Duration":163469,"SoundDuration":163469,"Delta":302703550},{"NoteNumber":65,"Velocity":46,"Duration":326939,"SoundDuration":326939,"Delta":302703550},{"NoteNumber":82,"Velocity":63,"Duration":939849,"SoundDuration":939849,"Delta":303030490},{"NoteNumber":56,"Velocity":55,"Duration":313283,"SoundDuration":313283,"Delta":303030490},{"NoteNumber":65,"Velocity":42,"Duration":313283,"SoundDuration":313283,"Delta":303343773},{"NoteNumber":62,"Velocity":47,"Duration":313283,"SoundDuration":313283,"Delta":303657056},{"NoteNumber":74,"Velocity":53,"Duration":316589,"SoundDuration":316589,"Delta":303970340},{"NoteNumber":65,"Velocity":42,"Duration":316589,"SoundDuration":316589,"Delta":303970340},{"NoteNumber":75,"Velocity":62,"Duration":150360,"SoundDuration":150360,"Delta":304286929},{"NoteNumber":55,"Velocity":45,"Duration":300721,"SoundDuration":300721,"Delta":304286929},{"NoteNumber":77,"Velocity":54,"Duration":155022,"SoundDuration":155022,"Delta":304587651},{"NoteNumber":63,"Velocity":40,"Duration":310045,"SoundDuration":310045,"Delta":304587651},{"NoteNumber":78,"Velocity":55,"Duration":155022,"SoundDuration":155022,"Delta":304897696},{"NoteNumber":58,"Velocity":45,"Duration":310045,"SoundDuration":310045,"Delta":304897696},{"NoteNumber":79,"Velocity":56,"Duration":165271,"SoundDuration":165271,"Delta":305207742},{"NoteNumber":63,"Velocity":38,"Duration":330541,"SoundDuration":330541,"Delta":305207742},{"NoteNumber":79,"Velocity":62,"Duration":310045,"SoundDuration":310045,"Delta":305538284},{"NoteNumber":56,"Velocity":44,"Duration":310045,"SoundDuration":310045,"Delta":305538284},{"NoteNumber":72,"Velocity":55,"Duration":310045,"SoundDuration":310045,"Delta":305848329},{"NoteNumber":65,"Velocity":38,"Duration":310045,"SoundDuration":310045,"Delta":305848329},{"NoteNumber":80,"Velocity":62,"Duration":310045,"SoundDuration":310045,"Delta":306158375},{"NoteNumber":60,"Velocity":40,"Duration":310045,"SoundDuration":310045,"Delta":306158375},{"NoteNumber":77,"Velocity":56,"Duration":239311,"SoundDuration":239311,"Delta":306468420},{"NoteNumber":65,"Velocity":40,"Duration":323599,"SoundDuration":323599,"Delta":306468420},{"NoteNumber":77,"Velocity":58,"Duration":309342,"SoundDuration":309342,"Delta":306792020},{"NoteNumber":58,"Velocity":40,"Duration":309342,"SoundDuration":309342,"Delta":306792020},{"NoteNumber":75,"Velocity":53,"Duration":232006,"SoundDuration":232006,"Delta":307101362},{"NoteNumber":67,"Velocity":36,"Duration":309342,"SoundDuration":309342,"Delta":307101362},{"NoteNumber":75,"Velocity":58,"Duration":309342,"SoundDuration":309342,"Delta":307410705},{"NoteNumber":58,"Velocity":36,"Duration":309342,"SoundDuration":309342,"Delta":307410705},{"NoteNumber":74,"Velocity":53,"Duration":247307,"SoundDuration":247307,"Delta":307720047},{"NoteNumber":68,"Velocity":36,"Duration":247307,"SoundDuration":247307,"Delta":307720047},{"NoteNumber":75,"Velocity":58,"Duration":340276,"SoundDuration":340276,"Delta":308049790},{"NoteNumber":63,"Velocity":42,"Duration":1237369,"SoundDuration":1237369,"Delta":308049790},{"NoteNumber":67,"Velocity":42,"Duration":1237369,"SoundDuration":1237369,"Delta":308049790},{"NoteNumber":74,"Velocity":52,"Duration":340276,"SoundDuration":340276,"Delta":308359132},{"NoteNumber":75,"Velocity":55,"Duration":340276,"SoundDuration":340276,"Delta":308668474},{"NoteNumber":77,"Velocity":51,"Duration":340276,"SoundDuration":340276,"Delta":308977816},{"NoteNumber":75,"Velocity":54,"Duration":341297,"SoundDuration":341297,"Delta":309287159},{"NoteNumber":74,"Velocity":54,"Duration":346154,"SoundDuration":346154,"Delta":309597199},{"NoteNumber":73,"Velocity":52,"Duration":352259,"SoundDuration":352259,"Delta":309911656},{"NoteNumber":70,"Velocity":51,"Duration":325557,"SoundDuration":325557,"Delta":310231650},{"NoteNumber":72,"Velocity":54,"Duration":1283722,"SoundDuration":1283722,"Delta":310557208},{"NoteNumber":56,"Velocity":36,"Duration":320002,"SoundDuration":320002,"Delta":310557208},{"NoteNumber":63,"Velocity":31,"Duration":316589,"SoundDuration":316589,"Delta":310877210},{"NoteNumber":60,"Velocity":31,"Duration":316589,"SoundDuration":316589,"Delta":311193799},{"NoteNumber":63,"Velocity":31,"Duration":330541,"SoundDuration":330541,"Delta":311510389},{"NoteNumber":75,"Velocity":54,"Duration":306873,"SoundDuration":306873,"Delta":311840931},{"NoteNumber":58,"Velocity":36,"Duration":306873,"SoundDuration":306873,"Delta":311840931},{"NoteNumber":73,"Velocity":50,"Duration":310045,"SoundDuration":310045,"Delta":312147805},{"NoteNumber":63,"Velocity":33,"Duration":310045,"SoundDuration":310045,"Delta":312147805},{"NoteNumber":70,"Velocity":54,"Duration":316589,"SoundDuration":316589,"Delta":312457850},{"NoteNumber":61,"Velocity":32,"Duration":316589,"SoundDuration":316589,"Delta":312457850},{"NoteNumber":67,"Velocity":50,"Duration":341841,"SoundDuration":341841,"Delta":312774439},{"NoteNumber":63,"Velocity":32,"Duration":341841,"SoundDuration":341841,"Delta":312774439},{"NoteNumber":68,"Velocity":54,"Duration":981055,"SoundDuration":981055,"Delta":313116281},{"NoteNumber":60,"Velocity":36,"Duration":323415,"SoundDuration":323415,"Delta":313116281},{"NoteNumber":63,"Velocity":31,"Duration":323415,"SoundDuration":323415,"Delta":313439696},{"NoteNumber":56,"Velocity":36,"Duration":334224,"SoundDuration":334224,"Delta":313763111},{"NoteNumber":70,"Velocity":50,"Duration":158294,"SoundDuration":158294,"Delta":314097336},{"NoteNumber":63,"Velocity":31,"Duration":316589,"SoundDuration":316589,"Delta":314097336},{"NoteNumber":72,"Velocity":50,"Duration":158294,"SoundDuration":158294,"Delta":314255631},{"NoteNumber":55,"Velocity":36,"Duration":326939,"SoundDuration":326939,"Delta":314413925},{"NoteNumber":70,"Velocity":54,"Duration":653879,"SoundDuration":653879,"Delta":314424823},{"NoteNumber":63,"Velocity":32,"Duration":326939,"SoundDuration":326939,"Delta":314740865},{"NoteNumber":51,"Velocity":32,"Duration":326939,"SoundDuration":326939,"Delta":315067805},{"NoteNumber":63,"Velocity":32,"Duration":326939,"SoundDuration":326939,"Delta":315394744},{"NoteNumber":73,"Velocity":59,"Duration":1283722,"SoundDuration":1283722,"Delta":315721684},{"NoteNumber":55,"Velocity":43,"Duration":320002,"SoundDuration":320002,"Delta":315721684},{"NoteNumber":63,"Velocity":37,"Duration":316589,"SoundDuration":316589,"Delta":316041686},{"NoteNumber":58,"Velocity":37,"Duration":316589,"SoundDuration":316589,"Delta":316358276},{"NoteNumber":63,"Velocity":37,"Duration":330541,"SoundDuration":330541,"Delta":316674865},{"NoteNumber":77,"Velocity":61,"Duration":341050,"SoundDuration":341050,"Delta":317005407},{"NoteNumber":56,"Velocity":44,"Duration":310045,"SoundDuration":310045,"Delta":317005407},{"NoteNumber":75,"Velocity":56,"Duration":344976,"SoundDuration":344976,"Delta":317315452},{"NoteNumber":63,"Velocity":33,"Duration":313317,"SoundDuration":313317,"Delta":317315452},{"NoteNumber":73,"Velocity":58,"Duration":350773,"SoundDuration":350773,"Delta":317628770},{"NoteNumber":60,"Velocity":36,"Duration":316589,"SoundDuration":316589,"Delta":317628770},{"NoteNumber":72,"Velocity":54,"Duration":374183,"SoundDuration":374183,"Delta":317945359},{"NoteNumber":63,"Velocity":36,"Duration":341841,"SoundDuration":341841,"Delta":317945359},{"NoteNumber":70,"Velocity":63,"Duration":973770,"SoundDuration":973770,"Delta":318287201},{"NoteNumber":55,"Velocity":43,"Duration":323415,"SoundDuration":323415,"Delta":318287201},{"NoteNumber":63,"Velocity":38,"Duration":323415,"SoundDuration":323415,"Delta":318610616},{"NoteNumber":51,"Velocity":42,"Duration":326939,"SoundDuration":326939,"Delta":318934031},{"NoteNumber":72,"Velocity":54,"Duration":158294,"SoundDuration":158294,"Delta":319260971},{"NoteNumber":63,"Velocity":42,"Duration":316589,"SoundDuration":316589,"Delta":319260971},{"NoteNumber":73,"Velocity":54,"Duration":158294,"SoundDuration":158294,"Delta":319419265},{"NoteNumber":72,"Velocity":63,"Duration":653879,"SoundDuration":653879,"Delta":319577560},{"NoteNumber":56,"Velocity":48,"Duration":326939,"SoundDuration":326939,"Delta":319577560},{"NoteNumber":63,"Velocity":43,"Duration":326939,"SoundDuration":326939,"Delta":319904500},{"NoteNumber":60,"Velocity":51,"Duration":326939,"SoundDuration":326939,"Delta":320231440},{"NoteNumber":63,"Velocity":43,"Duration":326939,"SoundDuration":326939,"Delta":320558379},{"NoteNumber":84,"Velocity":67,"Duration":940093,"SoundDuration":940093,"Delta":320885319},{"NoteNumber":58,"Velocity":56,"Duration":320002,"SoundDuration":320002,"Delta":320885319},{"NoteNumber":67,"Velocity":42,"Duration":310045,"SoundDuration":310045,"Delta":321205321},{"NoteNumber":64,"Velocity":51,"Duration":310045,"SoundDuration":310045,"Delta":321515367},{"NoteNumber":76,"Velocity":59,"Duration":323415,"SoundDuration":323415,"Delta":321825412},{"NoteNumber":67,"Velocity":45,"Duration":323415,"SoundDuration":323415,"Delta":321825412},{"NoteNumber":77,"Velocity":61,"Duration":148868,"SoundDuration":148868,"Delta":322148828},{"NoteNumber":56,"Velocity":54,"Duration":297737,"SoundDuration":297737,"Delta":322148828},{"NoteNumber":79,"Velocity":56,"Duration":153436,"SoundDuration":153436,"Delta":322446565},{"NoteNumber":65,"Velocity":44,"Duration":306873,"SoundDuration":306873,"Delta":322446565},{"NoteNumber":80,"Velocity":57,"Duration":153436,"SoundDuration":153436,"Delta":322753439},{"NoteNumber":60,"Velocity":46,"Duration":306873,"SoundDuration":306873,"Delta":322753439},{"NoteNumber":81,"Velocity":58,"Duration":163469,"SoundDuration":163469,"Delta":323060313},{"NoteNumber":65,"Velocity":46,"Duration":326939,"SoundDuration":326939,"Delta":323060313},{"NoteNumber":82,"Velocity":63,"Duration":939849,"SoundDuration":939849,"Delta":323387253},{"NoteNumber":56,"Velocity":55,"Duration":313283,"SoundDuration":313283,"Delta":323387253},{"NoteNumber":65,"Velocity":42,"Duration":313283,"SoundDuration":313283,"Delta":323700536},{"NoteNumber":62,"Velocity":47,"Duration":313283,"SoundDuration":313283,"Delta":324013819},{"NoteNumber":74,"Velocity":53,"Duration":316589,"SoundDuration":316589,"Delta":324327102},{"NoteNumber":65,"Velocity":42,"Duration":316589,"SoundDuration":316589,"Delta":324327102},{"NoteNumber":75,"Velocity":62,"Duration":150360,"SoundDuration":150360,"Delta":324643692},{"NoteNumber":55,"Velocity":45,"Duration":300721,"SoundDuration":300721,"Delta":324643692},{"NoteNumber":77,"Velocity":54,"Duration":155022,"SoundDuration":155022,"Delta":324944413},{"NoteNumber":63,"Velocity":40,"Duration":310045,"SoundDuration":310045,"Delta":324944413},{"NoteNumber":78,"Velocity":55,"Duration":155022,"SoundDuration":155022,"Delta":325254459},{"NoteNumber":58,"Velocity":45,"Duration":310045,"SoundDuration":310045,"Delta":325254459},{"NoteNumber":79,"Velocity":56,"Duration":165271,"SoundDuration":165271,"Delta":325564504},{"NoteNumber":63,"Velocity":38,"Duration":330541,"SoundDuration":330541,"Delta":325564504},{"NoteNumber":79,"Velocity":62,"Duration":310045,"SoundDuration":310045,"Delta":325895046},{"NoteNumber":56,"Velocity":44,"Duration":310045,"SoundDuration":310045,"Delta":325895046},{"NoteNumber":72,"Velocity":55,"Duration":310045,"SoundDuration":310045,"Delta":326205092},{"NoteNumber":65,"Velocity":38,"Duration":310045,"SoundDuration":310045,"Delta":326205092},{"NoteNumber":80,"Velocity":62,"Duration":310045,"SoundDuration":310045,"Delta":326515137},{"NoteNumber":60,"Velocity":40,"Duration":310045,"SoundDuration":310045,"Delta":326515137},{"NoteNumber":77,"Velocity":56,"Duration":247307,"SoundDuration":247307,"Delta":326825183},{"NoteNumber":65,"Velocity":40,"Duration":329742,"SoundDuration":329742,"Delta":326825183},{"NoteNumber":77,"Velocity":58,"Duration":309342,"SoundDuration":309342,"Delta":327154926},{"NoteNumber":58,"Velocity":40,"Duration":309342,"SoundDuration":309342,"Delta":327154926},{"NoteNumber":75,"Velocity":53,"Duration":232006,"SoundDuration":232006,"Delta":327464268},{"NoteNumber":67,"Velocity":36,"Duration":309342,"SoundDuration":309342,"Delta":327464268},{"NoteNumber":75,"Velocity":58,"Duration":309342,"SoundDuration":309342,"Delta":327773610},{"NoteNumber":58,"Velocity":36,"Duration":309342,"SoundDuration":309342,"Delta":327773610},{"NoteNumber":74,"Velocity":53,"Duration":244618,"SoundDuration":244618,"Delta":328082952},{"NoteNumber":68,"Velocity":36,"Duration":244618,"SoundDuration":244618,"Delta":328082952},{"NoteNumber":75,"Velocity":58,"Duration":340276,"SoundDuration":340276,"Delta":328409110},{"NoteNumber":63,"Velocity":42,"Duration":1237369,"SoundDuration":1237369,"Delta":328409110},{"NoteNumber":67,"Velocity":42,"Duration":1237369,"SoundDuration":1237369,"Delta":328409110},{"NoteNumber":74,"Velocity":52,"Duration":340276,"SoundDuration":340276,"Delta":328718452},{"NoteNumber":75,"Velocity":55,"Duration":340276,"SoundDuration":340276,"Delta":329027795},{"NoteNumber":77,"Velocity":51,"Duration":339987,"SoundDuration":339987,"Delta":329337137},{"NoteNumber":75,"Velocity":54,"Duration":338250,"SoundDuration":338250,"Delta":329646479},{"NoteNumber":74,"Velocity":54,"Duration":343484,"SoundDuration":343484,"Delta":329953795},{"NoteNumber":73,"Velocity":52,"Duration":349234,"SoundDuration":349234,"Delta":330265694},{"NoteNumber":70,"Velocity":51,"Duration":322460,"SoundDuration":322460,"Delta":330583006},{"NoteNumber":69,"Velocity":45,"Duration":2550638,"SoundDuration":2550638,"Delta":330905467},{"NoteNumber":72,"Velocity":59,"Duration":1283722,"SoundDuration":1283722,"Delta":330905467},{"NoteNumber":63,"Velocity":36,"Duration":320002,"SoundDuration":320002,"Delta":330905467},{"NoteNumber":66,"Velocity":31,"Duration":316589,"SoundDuration":316589,"Delta":331225470},{"NoteNumber":63,"Velocity":31,"Duration":316589,"SoundDuration":316589,"Delta":331542059},{"NoteNumber":66,"Velocity":31,"Duration":330541,"SoundDuration":330541,"Delta":331858648},{"NoteNumber":71,"Velocity":59,"Duration":337878,"SoundDuration":337878,"Delta":332189190},{"NoteNumber":63,"Velocity":39,"Duration":337878,"SoundDuration":337878,"Delta":332189190},{"NoteNumber":72,"Velocity":54,"Duration":341704,"SoundDuration":341704,"Delta":332496064},{"NoteNumber":65,"Velocity":33,"Duration":341704,"SoundDuration":341704,"Delta":332496064},{"NoteNumber":73,"Velocity":62,"Duration":349929,"SoundDuration":349929,"Delta":332806110},{"NoteNumber":63,"Velocity":36,"Duration":349929,"SoundDuration":349929,"Delta":332806110},{"NoteNumber":72,"Velocity":57,"Duration":333407,"SoundDuration":333407,"Delta":333122699},{"NoteNumber":65,"Velocity":32,"Duration":333407,"SoundDuration":333407,"Delta":333122699},{"NoteNumber":68,"Velocity":50,"Duration":1283722,"SoundDuration":1283722,"Delta":333456106},{"NoteNumber":77,"Velocity":64,"Duration":636591,"SoundDuration":636591,"Delta":333456106},{"NoteNumber":62,"Velocity":39,"Duration":320002,"SoundDuration":320002,"Delta":333456106},{"NoteNumber":65,"Velocity":31,"Duration":316589,"SoundDuration":316589,"Delta":333776109},{"NoteNumber":70,"Velocity":59,"Duration":647131,"SoundDuration":647131,"Delta":334092698},{"NoteNumber":62,"Velocity":31,"Duration":316589,"SoundDuration":316589,"Delta":334092698},{"NoteNumber":65,"Velocity":31,"Duration":330541,"SoundDuration":330541,"Delta":334409287},{"NoteNumber":67,"Velocity":45,"Duration":1275350,"SoundDuration":1275350,"Delta":334739829},{"NoteNumber":69,"Velocity":59,"Duration":337878,"SoundDuration":337878,"Delta":334739829},{"NoteNumber":61,"Velocity":36,"Duration":337878,"SoundDuration":337878,"Delta":334739829},{"NoteNumber":70,"Velocity":54,"Duration":341704,"SoundDuration":341704,"Delta":335046703},{"NoteNumber":65,"Velocity":33,"Duration":341704,"SoundDuration":341704,"Delta":335046703},{"NoteNumber":72,"Velocity":59,"Duration":350773,"SoundDuration":350773,"Delta":335356749},{"NoteNumber":61,"Velocity":32,"Duration":350773,"SoundDuration":350773,"Delta":335356749},{"NoteNumber":70,"Velocity":54,"Duration":341841,"SoundDuration":341841,"Delta":335673338},{"NoteNumber":65,"Velocity":32,"Duration":341841,"SoundDuration":341841,"Delta":335673338},{"NoteNumber":66,"Velocity":45,"Duration":1284159,"SoundDuration":1284159,"Delta":336015179},{"NoteNumber":75,"Velocity":59,"Duration":646905,"SoundDuration":646905,"Delta":336015179},{"NoteNumber":60,"Velocity":36,"Duration":319965,"SoundDuration":319965,"Delta":336015179},{"NoteNumber":63,"Velocity":31,"Duration":326939,"SoundDuration":326939,"Delta":336335145},{"NoteNumber":68,"Velocity":59,"Duration":956470,"SoundDuration":956470,"Delta":336662085},{"NoteNumber":60,"Velocity":31,"Duration":321397,"SoundDuration":321397,"Delta":336662085},{"NoteNumber":63,"Velocity":31,"Duration":315855,"SoundDuration":315855,"Delta":336983483},{"NoteNumber":65,"Velocity":49,"Duration":319216,"SoundDuration":319216,"Delta":337299339},{"NoteNumber":61,"Velocity":36,"Duration":638433,"SoundDuration":638433,"Delta":337299339},{"NoteNumber":70,"Velocity":50,"Duration":319216,"SoundDuration":319216,"Delta":337618555},{"NoteNumber":67,"Velocity":45,"Duration":319216,"SoundDuration":319216,"Delta":337618555},{"NoteNumber":72,"Velocity":49,"Duration":323078,"SoundDuration":323078,"Delta":337937772},{"NoteNumber":68,"Velocity":45,"Duration":323078,"SoundDuration":323078,"Delta":337937772},{"NoteNumber":58,"Velocity":33,"Duration":681244,"SoundDuration":681244,"Delta":337937772},{"NoteNumber":73,"Velocity":49,"Duration":358166,"SoundDuration":358166,"Delta":338260850},{"NoteNumber":70,"Velocity":45,"Duration":358166,"SoundDuration":358166,"Delta":338260850},{"NoteNumber":68,"Velocity":52,"Duration":1307463,"SoundDuration":1307463,"Delta":338619017},{"NoteNumber":72,"Velocity":56,"Duration":1307463,"SoundDuration":1307463,"Delta":338619017},{"NoteNumber":63,"Velocity":41,"Duration":319216,"SoundDuration":319216,"Delta":338619017},{"NoteNumber":62,"Velocity":36,"Duration":319216,"SoundDuration":319216,"Delta":338938233},{"NoteNumber":63,"Velocity":36,"Duration":319216,"SoundDuration":319216,"Delta":339257450},{"NoteNumber":62,"Velocity":36,"Duration":349813,"SoundDuration":349813,"Delta":339576667},{"NoteNumber":67,"Velocity":45,"Duration":638433,"SoundDuration":638433,"Delta":339926480},{"NoteNumber":70,"Velocity":50,"Duration":638433,"SoundDuration":638433,"Delta":339926480},{"NoteNumber":63,"Velocity":40,"Duration":319216,"SoundDuration":319216,"Delta":339926480},{"NoteNumber":58,"Velocity":36,"Duration":319216,"SoundDuration":319216,"Delta":340245697},{"NoteNumber":55,"Velocity":36,"Duration":319216,"SoundDuration":319216,"Delta":340564914},{"NoteNumber":51,"Velocity":36,"Duration":366927,"SoundDuration":366927,"Delta":340884131},{"NoteNumber":80,"Velocity":67,"Duration":1283722,"SoundDuration":1283722,"Delta":341251058},{"NoteNumber":53,"Velocity":36,"Duration":320002,"SoundDuration":320002,"Delta":341251058},{"NoteNumber":60,"Velocity":31,"Duration":316589,"SoundDuration":316589,"Delta":341571060},{"NoteNumber":56,"Velocity":31,"Duration":316589,"SoundDuration":316589,"Delta":341887650},{"NoteNumber":60,"Velocity":31,"Duration":330541,"SoundDuration":330541,"Delta":342204239},{"NoteNumber":79,"Velocity":61,"Duration":337878,"SoundDuration":337878,"Delta":342534781},{"NoteNumber":56,"Velocity":39,"Duration":337878,"SoundDuration":337878,"Delta":342534781},{"NoteNumber":77,"Velocity":56,"Duration":341704,"SoundDuration":341704,"Delta":342841655},{"NoteNumber":65,"Velocity":33,"Duration":341704,"SoundDuration":341704,"Delta":342841655},{"NoteNumber":75,"Velocity":63,"Duration":350773,"SoundDuration":350773,"Delta":343151700},{"NoteNumber":58,"Velocity":36,"Duration":350773,"SoundDuration":350773,"Delta":343151700},{"NoteNumber":74,"Velocity":57,"Duration":341841,"SoundDuration":341841,"Delta":343468290},{"NoteNumber":65,"Velocity":32,"Duration":341841,"SoundDuration":341841,"Delta":343468290},{"NoteNumber":85,"Velocity":71,"Duration":1283722,"SoundDuration":1283722,"Delta":343810131},{"NoteNumber":55,"Velocity":43,"Duration":320002,"SoundDuration":320002,"Delta":343810131},{"NoteNumber":63,"Velocity":36,"Duration":316589,"SoundDuration":316589,"Delta":344130133},{"NoteNumber":58,"Velocity":40,"Duration":316589,"SoundDuration":316589,"Delta":344446723},{"NoteNumber":63,"Velocity":36,"Duration":329358,"SoundDuration":329358,"Delta":344779839},{"NoteNumber":84,"Velocity":65,"Duration":337878,"SoundDuration":337878,"Delta":345093854},{"NoteNumber":61,"Velocity":41,"Duration":337878,"SoundDuration":337878,"Delta":345093854},{"NoteNumber":82,"Velocity":63,"Duration":341704,"SoundDuration":341704,"Delta":345400728},{"NoteNumber":70,"Velocity":33,"Duration":341704,"SoundDuration":341704,"Delta":345400728},{"NoteNumber":80,"Velocity":58,"Duration":350773,"SoundDuration":350773,"Delta":345710773},{"NoteNumber":63,"Velocity":36,"Duration":350773,"SoundDuration":350773,"Delta":345710773},{"NoteNumber":79,"Velocity":54,"Duration":341841,"SoundDuration":341841,"Delta":346027363},{"NoteNumber":70,"Velocity":32,"Duration":341841,"SoundDuration":341841,"Delta":346027363},{"NoteNumber":80,"Velocity":56,"Duration":330529,"SoundDuration":330529,"Delta":346369204},{"NoteNumber":60,"Velocity":39,"Duration":649745,"SoundDuration":649745,"Delta":346369204},{"NoteNumber":68,"Velocity":39,"Duration":649745,"SoundDuration":649745,"Delta":346369204},{"NoteNumber":72,"Velocity":52,"Duration":319216,"SoundDuration":319216,"Delta":346699733},{"NoteNumber":70,"Velocity":52,"Duration":319216,"SoundDuration":319216,"Delta":347018950},{"NoteNumber":61,"Velocity":36,"Duration":656371,"SoundDuration":656371,"Delta":347018950},{"NoteNumber":65,"Velocity":36,"Duration":656371,"SoundDuration":656371,"Delta":347018950},{"NoteNumber":77,"Velocity":52,"Duration":337154,"SoundDuration":337154,"Delta":347338167},{"NoteNumber":75,"Velocity":56,"Duration":329742,"SoundDuration":329742,"Delta":347675321},{"NoteNumber":51,"Velocity":39,"Duration":659485,"SoundDuration":659485,"Delta":347675321},{"NoteNumber":60,"Velocity":39,"Duration":659485,"SoundDuration":659485,"Delta":347675321},{"NoteNumber":68,"Velocity":51,"Duration":329742,"SoundDuration":329742,"Delta":348005064},{"NoteNumber":73,"Velocity":55,"Duration":377612,"SoundDuration":377612,"Delta":348334807},{"NoteNumber":51,"Velocity":36,"Duration":778896,"SoundDuration":778896,"Delta":348334807},{"NoteNumber":58,"Velocity":36,"Duration":778896,"SoundDuration":778896,"Delta":348334807},{"NoteNumber":67,"Velocity":51,"Duration":401283,"SoundDuration":401283,"Delta":348712419},{"NoteNumber":70,"Velocity":54,"Duration":1432664,"SoundDuration":1432664,"Delta":349113703},{"NoteNumber":56,"Velocity":39,"Duration":2088972,"SoundDuration":2088972,"Delta":349113703},{"NoteNumber":61,"Velocity":39,"Duration":1432664,"SoundDuration":1432664,"Delta":349113703},{"NoteNumber":68,"Velocity":52,"Duration":326157,"SoundDuration":326157,"Delta":350546368},{"NoteNumber":60,"Velocity":36,"Duration":656307,"SoundDuration":656307,"Delta":350546368},{"NoteNumber":70,"Velocity":47,"Duration":363490,"SoundDuration":363490,"Delta":350872526},{"NoteNumber":71,"Velocity":45,"Duration":369531,"SoundDuration":369531,"Delta":351202676},{"NoteNumber":72,"Velocity":45,"Duration":340794,"SoundDuration":340794,"Delta":351538300},{"NoteNumber":69,"Velocity":39,"Duration":2550638,"SoundDuration":2550638,"Delta":351879095},{"NoteNumber":72,"Velocity":59,"Duration":1283722,"SoundDuration":1283722,"Delta":351879095},{"NoteNumber":63,"Velocity":36,"Duration":320002,"SoundDuration":320002,"Delta":351879095},{"NoteNumber":66,"Velocity":31,"Duration":316589,"SoundDuration":316589,"Delta":352199097},{"NoteNumber":63,"Velocity":31,"Duration":316589,"SoundDuration":316589,"Delta":352515686},{"NoteNumber":66,"Velocity":31,"Duration":330541,"SoundDuration":330541,"Delta":352832276},{"NoteNumber":71,"Velocity":59,"Duration":337878,"SoundDuration":337878,"Delta":353162818},{"NoteNumber":63,"Velocity":39,"Duration":337878,"SoundDuration":337878,"Delta":353162818},{"NoteNumber":72,"Velocity":54,"Duration":341704,"SoundDuration":341704,"Delta":353469692},{"NoteNumber":65,"Velocity":33,"Duration":341704,"SoundDuration":341704,"Delta":353469692},{"NoteNumber":73,"Velocity":62,"Duration":349929,"SoundDuration":349929,"Delta":353779737},{"NoteNumber":63,"Velocity":36,"Duration":349929,"SoundDuration":349929,"Delta":353779737},{"NoteNumber":72,"Velocity":57,"Duration":333407,"SoundDuration":333407,"Delta":354096326},{"NoteNumber":65,"Velocity":32,"Duration":333407,"SoundDuration":333407,"Delta":354096326},{"NoteNumber":68,"Velocity":50,"Duration":1283722,"SoundDuration":1283722,"Delta":354429734},{"NoteNumber":77,"Velocity":64,"Duration":636591,"SoundDuration":636591,"Delta":354429734},{"NoteNumber":62,"Velocity":39,"Duration":320002,"SoundDuration":320002,"Delta":354429734},{"NoteNumber":65,"Velocity":31,"Duration":316589,"SoundDuration":316589,"Delta":354749736},{"NoteNumber":70,"Velocity":59,"Duration":647131,"SoundDuration":647131,"Delta":355066325},{"NoteNumber":62,"Velocity":31,"Duration":316589,"SoundDuration":316589,"Delta":355066325},{"NoteNumber":65,"Velocity":31,"Duration":330541,"SoundDuration":330541,"Delta":355382915},{"NoteNumber":67,"Velocity":45,"Duration":1275350,"SoundDuration":1275350,"Delta":355713457},{"NoteNumber":69,"Velocity":59,"Duration":337878,"SoundDuration":337878,"Delta":355713457},{"NoteNumber":61,"Velocity":36,"Duration":337878,"SoundDuration":337878,"Delta":355713457},{"NoteNumber":70,"Velocity":54,"Duration":341704,"SoundDuration":341704,"Delta":356020331},{"NoteNumber":65,"Velocity":33,"Duration":341704,"SoundDuration":341704,"Delta":356020331},{"NoteNumber":72,"Velocity":59,"Duration":350773,"SoundDuration":350773,"Delta":356330376},{"NoteNumber":61,"Velocity":32,"Duration":350773,"SoundDuration":350773,"Delta":356330376},{"NoteNumber":70,"Velocity":54,"Duration":341841,"SoundDuration":341841,"Delta":356646965},{"NoteNumber":65,"Velocity":32,"Duration":341841,"SoundDuration":341841,"Delta":356646965},{"NoteNumber":66,"Velocity":45,"Duration":1284159,"SoundDuration":1284159,"Delta":356988807},{"NoteNumber":75,"Velocity":59,"Duration":646905,"SoundDuration":646905,"Delta":356988807},{"NoteNumber":60,"Velocity":36,"Duration":319965,"SoundDuration":319965,"Delta":356988807},{"NoteNumber":63,"Velocity":31,"Duration":326939,"SoundDuration":326939,"Delta":357308773},{"NoteNumber":68,"Velocity":59,"Duration":956470,"SoundDuration":956470,"Delta":357635712},{"NoteNumber":60,"Velocity":31,"Duration":321397,"SoundDuration":321397,"Delta":357635712},{"NoteNumber":63,"Velocity":31,"Duration":315855,"SoundDuration":315855,"Delta":357957110},{"NoteNumber":65,"Velocity":49,"Duration":319216,"SoundDuration":319216,"Delta":358272966},{"NoteNumber":61,"Velocity":36,"Duration":638433,"SoundDuration":638433,"Delta":358272966},{"NoteNumber":70,"Velocity":50,"Duration":319216,"SoundDuration":319216,"Delta":358592183},{"NoteNumber":67,"Velocity":45,"Duration":319216,"SoundDuration":319216,"Delta":358592183},{"NoteNumber":72,"Velocity":49,"Duration":323078,"SoundDuration":323078,"Delta":358911400},{"NoteNumber":68,"Velocity":45,"Duration":323078,"SoundDuration":323078,"Delta":358911400},{"NoteNumber":58,"Velocity":33,"Duration":681244,"SoundDuration":681244,"Delta":358911400},{"NoteNumber":73,"Velocity":49,"Duration":358166,"SoundDuration":358166,"Delta":359234478},{"NoteNumber":70,"Velocity":45,"Duration":358166,"SoundDuration":358166,"Delta":359234478},{"NoteNumber":68,"Velocity":52,"Duration":1307463,"SoundDuration":1307463,"Delta":359592644},{"NoteNumber":72,"Velocity":56,"Duration":1307463,"SoundDuration":1307463,"Delta":359592644},{"NoteNumber":63,"Velocity":41,"Duration":319216,"SoundDuration":319216,"Delta":359592644},{"NoteNumber":62,"Velocity":36,"Duration":319216,"SoundDuration":319216,"Delta":359911861},{"NoteNumber":63,"Velocity":36,"Duration":319216,"SoundDuration":319216,"Delta":360231078},{"NoteNumber":62,"Velocity":36,"Duration":349813,"SoundDuration":349813,"Delta":360550295},{"NoteNumber":67,"Velocity":45,"Duration":638433,"SoundDuration":638433,"Delta":360900108},{"NoteNumber":70,"Velocity":50,"Duration":638433,"SoundDuration":638433,"Delta":360900108},{"NoteNumber":63,"Velocity":40,"Duration":319216,"SoundDuration":319216,"Delta":360900108},{"NoteNumber":58,"Velocity":36,"Duration":319216,"SoundDuration":319216,"Delta":361219325},{"NoteNumber":55,"Velocity":36,"Duration":319216,"SoundDuration":319216,"Delta":361538542},{"NoteNumber":51,"Velocity":36,"Duration":366927,"SoundDuration":366927,"Delta":361857758},{"NoteNumber":80,"Velocity":65,"Duration":1283722,"SoundDuration":1283722,"Delta":362224686},{"NoteNumber":53,"Velocity":36,"Duration":320002,"SoundDuration":320002,"Delta":362224686},{"NoteNumber":60,"Velocity":31,"Duration":316589,"SoundDuration":316589,"Delta":362544688},{"NoteNumber":56,"Velocity":31,"Duration":316589,"SoundDuration":316589,"Delta":362861277},{"NoteNumber":60,"Velocity":31,"Duration":330541,"SoundDuration":330541,"Delta":363177867},{"NoteNumber":79,"Velocity":62,"Duration":337878,"SoundDuration":337878,"Delta":363508409},{"NoteNumber":56,"Velocity":39,"Duration":337878,"SoundDuration":337878,"Delta":363508409},{"NoteNumber":77,"Velocity":57,"Duration":341704,"SoundDuration":341704,"Delta":363815283},{"NoteNumber":65,"Velocity":33,"Duration":341704,"SoundDuration":341704,"Delta":363815283},{"NoteNumber":75,"Velocity":60,"Duration":350773,"SoundDuration":350773,"Delta":364125328},{"NoteNumber":58,"Velocity":36,"Duration":350773,"SoundDuration":350773,"Delta":364125328},{"NoteNumber":74,"Velocity":57,"Duration":341841,"SoundDuration":341841,"Delta":364441917},{"NoteNumber":65,"Velocity":32,"Duration":341841,"SoundDuration":341841,"Delta":364441917},{"NoteNumber":85,"Velocity":71,"Duration":1283722,"SoundDuration":1283722,"Delta":364783759},{"NoteNumber":55,"Velocity":43,"Duration":320002,"SoundDuration":320002,"Delta":364783759},{"NoteNumber":63,"Velocity":31,"Duration":316589,"SoundDuration":316589,"Delta":365103761},{"NoteNumber":58,"Velocity":36,"Duration":316589,"SoundDuration":316589,"Delta":365420350},{"NoteNumber":63,"Velocity":31,"Duration":329358,"SoundDuration":329358,"Delta":365753467},{"NoteNumber":84,"Velocity":65,"Duration":337878,"SoundDuration":337878,"Delta":366067482},{"NoteNumber":61,"Velocity":39,"Duration":337878,"SoundDuration":337878,"Delta":366067482},{"NoteNumber":82,"Velocity":61,"Duration":341704,"SoundDuration":341704,"Delta":366374356},{"NoteNumber":70,"Velocity":33,"Duration":341704,"SoundDuration":341704,"Delta":366374356},{"NoteNumber":80,"Velocity":61,"Duration":350773,"SoundDuration":350773,"Delta":366684401},{"NoteNumber":63,"Velocity":32,"Duration":350773,"SoundDuration":350773,"Delta":366684401},{"NoteNumber":79,"Velocity":55,"Duration":341841,"SoundDuration":341841,"Delta":367000990},{"NoteNumber":70,"Velocity":32,"Duration":341841,"SoundDuration":341841,"Delta":367000990},{"NoteNumber":80,"Velocity":56,"Duration":330529,"SoundDuration":330529,"Delta":367342832},{"NoteNumber":60,"Velocity":39,"Duration":649745,"SoundDuration":649745,"Delta":367342832},{"NoteNumber":68,"Velocity":39,"Duration":649745,"SoundDuration":649745,"Delta":367342832},{"NoteNumber":72,"Velocity":52,"Duration":319216,"SoundDuration":319216,"Delta":367673361},{"NoteNumber":70,"Velocity":52,"Duration":319216,"SoundDuration":319216,"Delta":367992578},{"NoteNumber":61,"Velocity":36,"Duration":656371,"SoundDuration":656371,"Delta":367992578},{"NoteNumber":65,"Velocity":36,"Duration":656371,"SoundDuration":656371,"Delta":367992578},{"NoteNumber":77,"Velocity":52,"Duration":337154,"SoundDuration":337154,"Delta":368311794},{"NoteNumber":75,"Velocity":56,"Duration":329742,"SoundDuration":329742,"Delta":368648949},{"NoteNumber":51,"Velocity":39,"Duration":659485,"SoundDuration":659485,"Delta":368648949},{"NoteNumber":60,"Velocity":39,"Duration":659485,"SoundDuration":659485,"Delta":368648949},{"NoteNumber":68,"Velocity":51,"Duration":329742,"SoundDuration":329742,"Delta":368978692},{"NoteNumber":73,"Velocity":55,"Duration":377612,"SoundDuration":377612,"Delta":369308434},{"NoteNumber":51,"Velocity":36,"Duration":778896,"SoundDuration":778896,"Delta":369308434},{"NoteNumber":58,"Velocity":36,"Duration":778896,"SoundDuration":778896,"Delta":369308434},{"NoteNumber":67,"Velocity":51,"Duration":401283,"SoundDuration":401283,"Delta":369686047},{"NoteNumber":70,"Velocity":54,"Duration":1432664,"SoundDuration":1432664,"Delta":370087331},{"NoteNumber":56,"Velocity":39,"Duration":2088972,"SoundDuration":2088972,"Delta":370087331},{"NoteNumber":61,"Velocity":39,"Duration":1432664,"SoundDuration":1432664,"Delta":370087331},{"NoteNumber":68,"Velocity":52,"Duration":326157,"SoundDuration":326157,"Delta":371519996},{"NoteNumber":60,"Velocity":36,"Duration":656307,"SoundDuration":656307,"Delta":371519996},{"NoteNumber":70,"Velocity":47,"Duration":363490,"SoundDuration":363490,"Delta":371846153},{"NoteNumber":71,"Velocity":45,"Duration":369531,"SoundDuration":369531,"Delta":372176303},{"NoteNumber":72,"Velocity":45,"Duration":340794,"SoundDuration":340794,"Delta":372511928},{"NoteNumber":64,"Velocity":39,"Duration":945683,"SoundDuration":945683,"Delta":372852723},{"NoteNumber":67,"Velocity":39,"Duration":945683,"SoundDuration":945683,"Delta":372852723},{"NoteNumber":72,"Velocity":53,"Duration":375695,"SoundDuration":375695,"Delta":373159220},{"NoteNumber":73,"Velocity":56,"Duration":373019,"SoundDuration":373019,"Delta":373482218},{"NoteNumber":72,"Velocity":52,"Duration":340986,"SoundDuration":340986,"Delta":373798407},{"NoteNumber":65,"Velocity":39,"Duration":636174,"SoundDuration":636174,"Delta":374139393},{"NoteNumber":68,"Velocity":39,"Duration":636174,"SoundDuration":636174,"Delta":374139393},{"NoteNumber":72,"Velocity":53,"Duration":326512,"SoundDuration":326512,"Delta":374449055},{"NoteNumber":84,"Velocity":56,"Duration":316188,"SoundDuration":316188,"Delta":374775567},{"NoteNumber":72,"Velocity":52,"Duration":344906,"SoundDuration":344906,"Delta":375091756},{"NoteNumber":62,"Velocity":39,"Duration":952077,"SoundDuration":952077,"Delta":375436663},{"NoteNumber":65,"Velocity":39,"Duration":952077,"SoundDuration":952077,"Delta":375436663},{"NoteNumber":70,"Velocity":53,"Duration":375695,"SoundDuration":375695,"Delta":375749554},{"NoteNumber":71,"Velocity":56,"Duration":373019,"SoundDuration":373019,"Delta":376072552},{"NoteNumber":70,"Velocity":53,"Duration":340986,"SoundDuration":340986,"Delta":376388740},{"NoteNumber":63,"Velocity":39,"Duration":629254,"SoundDuration":629254,"Delta":376729727},{"NoteNumber":67,"Velocity":39,"Duration":629254,"SoundDuration":629254,"Delta":376729727},{"NoteNumber":70,"Velocity":53,"Duration":319593,"SoundDuration":319593,"Delta":377039388},{"NoteNumber":82,"Velocity":56,"Duration":316188,"SoundDuration":316188,"Delta":377358981},{"NoteNumber":70,"Velocity":53,"Duration":348918,"SoundDuration":348918,"Delta":377675170},{"NoteNumber":60,"Velocity":39,"Duration":2570096,"SoundDuration":2570096,"Delta":378024088},{"NoteNumber":63,"Velocity":39,"Duration":2570096,"SoundDuration":2570096,"Delta":378024088},{"NoteNumber":69,"Velocity":54,"Duration":376598,"SoundDuration":376598,"Delta":378336979},{"NoteNumber":70,"Velocity":56,"Duration":376425,"SoundDuration":376425,"Delta":378659803},{"NoteNumber":69,"Velocity":53,"Duration":322650,"SoundDuration":322650,"Delta":378982453},{"NoteNumber":75,"Velocity":59,"Duration":319216,"SoundDuration":319216,"Delta":379305103},{"NoteNumber":69,"Velocity":56,"Duration":314439,"SoundDuration":314439,"Delta":379624320},{"NoteNumber":78,"Velocity":63,"Duration":314439,"SoundDuration":314439,"Delta":379938759},{"NoteNumber":69,"Velocity":58,"Duration":340986,"SoundDuration":340986,"Delta":380253198},{"NoteNumber":70,"Velocity":64,"Duration":1618309,"SoundDuration":1618309,"Delta":380594185},{"NoteNumber":58,"Velocity":50,"Duration":969154,"SoundDuration":969154,"Delta":380920342},{"NoteNumber":62,"Velocity":53,"Duration":312890,"SoundDuration":312890,"Delta":381246500},{"NoteNumber":65,"Velocity":55,"Duration":330105,"SoundDuration":330105,"Delta":381559391},{"NoteNumber":66,"Velocity":58,"Duration":645995,"SoundDuration":645995,"Delta":381889497},{"NoteNumber":69,"Velocity":59,"Duration":322997,"SoundDuration":322997,"Delta":382212494},{"NoteNumber":78,"Velocity":61,"Duration":309661,"SoundDuration":309661,"Delta":382535492},{"NoteNumber":63,"Velocity":54,"Duration":636174,"SoundDuration":636174,"Delta":382535492},{"NoteNumber":69,"Velocity":60,"Duration":326512,"SoundDuration":326512,"Delta":382845153},{"NoteNumber":70,"Velocity":65,"Duration":1619417,"SoundDuration":1619417,"Delta":383171666},{"NoteNumber":58,"Velocity":54,"Duration":973422,"SoundDuration":973422,"Delta":383494664},{"NoteNumber":62,"Velocity":58,"Duration":312890,"SoundDuration":312890,"Delta":383817661},{"NoteNumber":65,"Velocity":61,"Duration":337533,"SoundDuration":337533,"Delta":384130552},{"NoteNumber":66,"Velocity":63,"Duration":645995,"SoundDuration":645995,"Delta":384468086},{"NoteNumber":69,"Velocity":60,"Duration":322997,"SoundDuration":322997,"Delta":384791083},{"NoteNumber":78,"Velocity":63,"Duration":312890,"SoundDuration":312890,"Delta":385114081},{"NoteNumber":63,"Velocity":54,"Duration":642996,"SoundDuration":642996,"Delta":385114081},{"NoteNumber":69,"Velocity":59,"Duration":330105,"SoundDuration":330105,"Delta":385426972},{"NoteNumber":70,"Velocity":65,"Duration":1625778,"SoundDuration":1625778,"Delta":385757078},{"NoteNumber":58,"Velocity":47,"Duration":6912729,"SoundDuration":6912729,"Delta":386080075},{"NoteNumber":62,"Velocity":49,"Duration":325517,"SoundDuration":325517,"Delta":386392966},{"NoteNumber":65,"Velocity":51,"Duration":341374,"SoundDuration":341374,"Delta":386718484},{"NoteNumber":68,"Velocity":56,"Duration":5932946,"SoundDuration":5932946,"Delta":387059859},{"NoteNumber":74,"Velocity":56,"Duration":317736,"SoundDuration":317736,"Delta":387382856},{"NoteNumber":77,"Velocity":58,"Duration":317421,"SoundDuration":317421,"Delta":387700593},{"NoteNumber":80,"Velocity":60,"Duration":328859,"SoundDuration":328859,"Delta":388018014},{"NoteNumber":83,"Velocity":61,"Duration":355297,"SoundDuration":355297,"Delta":388346873},{"NoteNumber":84,"Velocity":63,"Duration":355297,"SoundDuration":355297,"Delta":388669871},{"NoteNumber":86,"Velocity":64,"Duration":355297,"SoundDuration":355297,"Delta":388992868},{"NoteNumber":84,"Velocity":62,"Duration":354616,"SoundDuration":354616,"Delta":389315866},{"NoteNumber":82,"Velocity":61,"Duration":348840,"SoundDuration":348840,"Delta":389638863},{"NoteNumber":80,"Velocity":60,"Duration":359164,"SoundDuration":359164,"Delta":389955052},{"NoteNumber":79,"Velocity":58,"Duration":362278,"SoundDuration":362278,"Delta":390281565},{"NoteNumber":77,"Velocity":57,"Duration":390664,"SoundDuration":390664,"Delta":390608077},{"NoteNumber":75,"Velocity":57,"Duration":1005515,"SoundDuration":1005515,"Delta":390965731},{"NoteNumber":77,"Velocity":44,"Duration":219078,"SoundDuration":219078,"Delta":391971246},{"NoteNumber":75,"Velocity":40,"Duration":214698,"SoundDuration":214698,"Delta":392159028},{"NoteNumber":74,"Velocity":48,"Duration":645995,"SoundDuration":645995,"Delta":392346810},{"NoteNumber":67,"Velocity":34,"Duration":1415761,"SoundDuration":1415761,"Delta":393638800},{"NoteNumber":70,"Velocity":49,"Duration":1415761,"SoundDuration":1415761,"Delta":393638800},{"NoteNumber":39,"Velocity":27,"Duration":1415761,"SoundDuration":1415761,"Delta":393638800},{"NoteNumber":51,"Velocity":39,"Duration":1415761,"SoundDuration":1415761,"Delta":393638800},{"NoteNumber":63,"Velocity":32,"Duration":639114,"SoundDuration":639114,"Delta":395054562},{"NoteNumber":67,"Velocity":47,"Duration":639114,"SoundDuration":639114,"Delta":395054562},{"NoteNumber":58,"Velocity":33,"Duration":675067,"SoundDuration":675067,"Delta":395693676},{"NoteNumber":65,"Velocity":49,"Duration":675067,"SoundDuration":675067,"Delta":395693676},{"NoteNumber":46,"Velocity":33,"Duration":675067,"SoundDuration":675067,"Delta":395693676},{"NoteNumber":55,"Velocity":33,"Duration":682749,"SoundDuration":682749,"Delta":396368743},{"NoteNumber":63,"Velocity":49,"Duration":682749,"SoundDuration":682749,"Delta":396368743},{"NoteNumber":51,"Velocity":39,"Duration":1336628,"SoundDuration":1336628,"Delta":396368743},{"NoteNumber":58,"Velocity":46,"Duration":653879,"SoundDuration":653879,"Delta":397051492},{"NoteNumber":63,"Velocity":49,"Duration":625782,"SoundDuration":625782,"Delta":397705372},{"NoteNumber":62,"Velocity":34,"Duration":661084,"SoundDuration":661084,"Delta":398331154},{"NoteNumber":65,"Velocity":49,"Duration":661084,"SoundDuration":661084,"Delta":398331154},{"NoteNumber":46,"Velocity":36,"Duration":661084,"SoundDuration":661084,"Delta":398331154},{"NoteNumber":63,"Velocity":36,"Duration":2622521,"SoundDuration":2622521,"Delta":398992238},{"NoteNumber":67,"Velocity":52,"Duration":661084,"SoundDuration":661084,"Delta":398992238},{"NoteNumber":51,"Velocity":39,"Duration":661084,"SoundDuration":661084,"Delta":398992238},{"NoteNumber":68,"Velocity":58,"Duration":619323,"SoundDuration":619323,"Delta":399653322},{"NoteNumber":48,"Velocity":34,"Duration":619323,"SoundDuration":619323,"Delta":399653322},{"NoteNumber":70,"Velocity":60,"Duration":625782,"SoundDuration":625782,"Delta":400272645},{"NoteNumber":43,"Velocity":39,"Duration":625782,"SoundDuration":625782,"Delta":400272645},{"NoteNumber":72,"Velocity":57,"Duration":716332,"SoundDuration":716332,"Delta":400898427},{"NoteNumber":44,"Velocity":36,"Duration":716332,"SoundDuration":716332,"Delta":400898427},{"NoteNumber":67,"Velocity":63,"Duration":991625,"SoundDuration":991625,"Delta":401614759},{"NoteNumber":63,"Velocity":44,"Duration":1322167,"SoundDuration":1322167,"Delta":401614759},{"NoteNumber":46,"Velocity":39,"Duration":1930358,"SoundDuration":1930358,"Delta":401614759},{"NoteNumber":68,"Velocity":53,"Duration":330541,"SoundDuration":330541,"Delta":402606385},{"NoteNumber":62,"Velocity":37,"Duration":1317653,"SoundDuration":1317653,"Delta":402936927},{"NoteNumber":65,"Velocity":54,"Duration":340889,"SoundDuration":340889,"Delta":402936927},{"NoteNumber":67,"Velocity":53,"Duration":316884,"SoundDuration":316884,"Delta":403253516},{"NoteNumber":68,"Velocity":54,"Duration":337236,"SoundDuration":337236,"Delta":403545118},{"NoteNumber":69,"Velocity":54,"Duration":406064,"SoundDuration":406064,"Delta":403848516},{"NoteNumber":70,"Velocity":50,"Duration":2560685,"SoundDuration":2560685,"Delta":404254580},{"NoteNumber":82,"Velocity":59,"Duration":1307758,"SoundDuration":1307758,"Delta":404254580},{"NoteNumber":67,"Velocity":36,"Duration":1307758,"SoundDuration":1307758,"Delta":404254580},{"NoteNumber":79,"Velocity":62,"Duration":612995,"SoundDuration":612995,"Delta":405562339},{"NoteNumber":63,"Velocity":36,"Duration":612995,"SoundDuration":612995,"Delta":405562339},{"NoteNumber":77,"Velocity":58,"Duration":639931,"SoundDuration":639931,"Delta":406175335},{"NoteNumber":58,"Velocity":34,"Duration":639931,"SoundDuration":639931,"Delta":406175335},{"NoteNumber":70,"Velocity":50,"Duration":500667,"SoundDuration":500667,"Delta":406815266},{"NoteNumber":75,"Velocity":60,"Duration":500667,"SoundDuration":500667,"Delta":406815266},{"NoteNumber":55,"Velocity":38,"Duration":500667,"SoundDuration":500667,"Delta":406815266},{"NoteNumber":74,"Velocity":46,"Duration":469924,"SoundDuration":469924,"Delta":407482823},{"NoteNumber":77,"Velocity":55,"Duration":469924,"SoundDuration":469924,"Delta":407482823},{"NoteNumber":58,"Velocity":34,"Duration":469924,"SoundDuration":469924,"Delta":407482823},{"NoteNumber":75,"Velocity":49,"Duration":459746,"SoundDuration":459746,"Delta":408109389},{"NoteNumber":79,"Velocity":58,"Duration":459746,"SoundDuration":459746,"Delta":408109389},{"NoteNumber":63,"Velocity":36,"Duration":459746,"SoundDuration":459746,"Delta":408109389},{"NoteNumber":75,"Velocity":51,"Duration":495812,"SoundDuration":495812,"Delta":408722385},{"NoteNumber":80,"Velocity":61,"Duration":495812,"SoundDuration":495812,"Delta":408722385},{"NoteNumber":60,"Velocity":39,"Duration":495812,"SoundDuration":495812,"Delta":408722385},{"NoteNumber":82,"Velocity":63,"Duration":653879,"SoundDuration":653879,"Delta":409383469},{"NoteNumber":75,"Velocity":54,"Duration":653879,"SoundDuration":653879,"Delta":409383469},{"NoteNumber":55,"Velocity":42,"Duration":653879,"SoundDuration":653879,"Delta":409383469},{"NoteNumber":83,"Velocity":62,"Duration":179009,"SoundDuration":179009,"Delta":410037348},{"NoteNumber":65,"Velocity":36,"Duration":646046,"SoundDuration":646046,"Delta":410037348},{"NoteNumber":56,"Velocity":30,"Duration":646046,"SoundDuration":646046,"Delta":410037348},{"NoteNumber":84,"Velocity":59,"Duration":179009,"SoundDuration":179009,"Delta":410190785},{"NoteNumber":80,"Velocity":59,"Duration":184392,"SoundDuration":184392,"Delta":410344222},{"NoteNumber":77,"Velocity":57,"Duration":185735,"SoundDuration":185735,"Delta":410497659},{"NoteNumber":75,"Velocity":64,"Duration":653879,"SoundDuration":653879,"Delta":410683395},{"NoteNumber":58,"Velocity":35,"Duration":1378350,"SoundDuration":1378350,"Delta":410683395},{"NoteNumber":67,"Velocity":42,"Duration":653879,"SoundDuration":653879,"Delta":410683395},{"NoteNumber":79,"Velocity":60,"Duration":173473,"SoundDuration":173473,"Delta":411337274},{"NoteNumber":68,"Velocity":33,"Duration":724470,"SoundDuration":724470,"Delta":411337274},{"NoteNumber":77,"Velocity":56,"Duration":173473,"SoundDuration":173473,"Delta":411485966},{"NoteNumber":76,"Velocity":56,"Duration":195090,"SoundDuration":195090,"Delta":411634657},{"NoteNumber":77,"Velocity":53,"Duration":231996,"SoundDuration":231996,"Delta":411783349},{"NoteNumber":74,"Velocity":51,"Duration":1415761,"SoundDuration":1415761,"Delta":412061745},{"NoteNumber":77,"Velocity":61,"Duration":1415761,"SoundDuration":1415761,"Delta":412061745},{"NoteNumber":63,"Velocity":28,"Duration":2062592,"SoundDuration":2062592,"Delta":412061745},{"NoteNumber":68,"Velocity":34,"Duration":1415761,"SoundDuration":1415761,"Delta":412061745},{"NoteNumber":75,"Velocity":54,"Duration":646830,"SoundDuration":646830,"Delta":413477507},{"NoteNumber":67,"Velocity":32,"Duration":646830,"SoundDuration":646830,"Delta":413477507},{"NoteNumber":72,"Velocity":54,"Duration":953180,"SoundDuration":953180,"Delta":414771168},{"NoteNumber":51,"Velocity":36,"Duration":320002,"SoundDuration":320002,"Delta":414771168},{"NoteNumber":60,"Velocity":31,"Duration":316589,"SoundDuration":316589,"Delta":415091170},{"NoteNumber":56,"Velocity":31,"Duration":316589,"SoundDuration":316589,"Delta":415407760},{"NoteNumber":74,"Velocity":51,"Duration":330541,"SoundDuration":330541,"Delta":415724349},{"NoteNumber":60,"Velocity":31,"Duration":330541,"SoundDuration":330541,"Delta":415724349},{"NoteNumber":75,"Velocity":55,"Duration":616919,"SoundDuration":616919,"Delta":416054891},{"NoteNumber":51,"Velocity":36,"Duration":306873,"SoundDuration":306873,"Delta":416054891},{"NoteNumber":60,"Velocity":33,"Duration":310045,"SoundDuration":310045,"Delta":416361765},{"NoteNumber":75,"Velocity":54,"Duration":658430,"SoundDuration":658430,"Delta":416671810},{"NoteNumber":56,"Velocity":32,"Duration":316589,"SoundDuration":316589,"Delta":416671810},{"NoteNumber":60,"Velocity":32,"Duration":341841,"SoundDuration":341841,"Delta":416988400},{"NoteNumber":75,"Velocity":58,"Duration":981055,"SoundDuration":981055,"Delta":417330241},{"NoteNumber":51,"Velocity":36,"Duration":323415,"SoundDuration":323415,"Delta":417330241},{"NoteNumber":58,"Velocity":27,"Duration":323415,"SoundDuration":323415,"Delta":417653656},{"NoteNumber":55,"Velocity":31,"Duration":334224,"SoundDuration":334224,"Delta":417977072},{"NoteNumber":74,"Velocity":50,"Duration":158294,"SoundDuration":158294,"Delta":418311296},{"NoteNumber":58,"Velocity":26,"Duration":316589,"SoundDuration":316589,"Delta":418311296},{"NoteNumber":72,"Velocity":50,"Duration":158294,"SoundDuration":158294,"Delta":418469591},{"NoteNumber":70,"Velocity":54,"Duration":653879,"SoundDuration":653879,"Delta":418627885},{"NoteNumber":51,"Velocity":36,"Duration":326939,"SoundDuration":326939,"Delta":418627885},{"NoteNumber":58,"Velocity":28,"Duration":326939,"SoundDuration":326939,"Delta":418954825},{"NoteNumber":55,"Velocity":32,"Duration":326939,"SoundDuration":326939,"Delta":419281765},{"NoteNumber":58,"Velocity":30,"Duration":326939,"SoundDuration":326939,"Delta":419608705},{"NoteNumber":72,"Velocity":54,"Duration":953180,"SoundDuration":953180,"Delta":419935644},{"NoteNumber":51,"Velocity":36,"Duration":320002,"SoundDuration":320002,"Delta":419935644},{"NoteNumber":60,"Velocity":31,"Duration":316589,"SoundDuration":316589,"Delta":420255647},{"NoteNumber":56,"Velocity":31,"Duration":316589,"SoundDuration":316589,"Delta":420572236},{"NoteNumber":74,"Velocity":51,"Duration":330541,"SoundDuration":330541,"Delta":420888825},{"NoteNumber":60,"Velocity":31,"Duration":330541,"SoundDuration":330541,"Delta":420888825},{"NoteNumber":75,"Velocity":55,"Duration":230155,"SoundDuration":230155,"Delta":421219367},{"NoteNumber":51,"Velocity":36,"Duration":306873,"SoundDuration":306873,"Delta":421219367},{"NoteNumber":75,"Velocity":50,"Duration":232534,"SoundDuration":232534,"Delta":421526241},{"NoteNumber":60,"Velocity":29,"Duration":310045,"SoundDuration":310045,"Delta":421526241},{"NoteNumber":75,"Velocity":54,"Duration":237441,"SoundDuration":237441,"Delta":421836287},{"NoteNumber":56,"Velocity":32,"Duration":316589,"SoundDuration":316589,"Delta":421836287},{"NoteNumber":75,"Velocity":51,"Duration":256381,"SoundDuration":256381,"Delta":422152876},{"NoteNumber":60,"Velocity":30,"Duration":341841,"SoundDuration":341841,"Delta":422152876},{"NoteNumber":75,"Velocity":55,"Duration":158094,"SoundDuration":158094,"Delta":422494717},{"NoteNumber":51,"Velocity":36,"Duration":316188,"SoundDuration":316188,"Delta":422494717},{"NoteNumber":79,"Velocity":50,"Duration":158094,"SoundDuration":158094,"Delta":422652812},{"NoteNumber":77,"Velocity":50,"Duration":158094,"SoundDuration":158094,"Delta":422810906},{"NoteNumber":58,"Velocity":31,"Duration":316188,"SoundDuration":316188,"Delta":422810906},{"NoteNumber":75,"Velocity":50,"Duration":158094,"SoundDuration":158094,"Delta":422969000},{"NoteNumber":74,"Velocity":55,"Duration":161498,"SoundDuration":161498,"Delta":423127095},{"NoteNumber":55,"Velocity":36,"Duration":322997,"SoundDuration":322997,"Delta":423127095},{"NoteNumber":77,"Velocity":50,"Duration":161498,"SoundDuration":161498,"Delta":423288594},{"NoteNumber":75,"Velocity":50,"Duration":158294,"SoundDuration":158294,"Delta":423450092},{"NoteNumber":58,"Velocity":31,"Duration":316589,"SoundDuration":316589,"Delta":423450092},{"NoteNumber":72,"Velocity":50,"Duration":158294,"SoundDuration":158294,"Delta":423608387},{"NoteNumber":70,"Velocity":55,"Duration":653879,"SoundDuration":653879,"Delta":423766682},{"NoteNumber":51,"Velocity":36,"Duration":326939,"SoundDuration":326939,"Delta":423766682},{"NoteNumber":58,"Velocity":30,"Duration":326939,"SoundDuration":326939,"Delta":424093621},{"NoteNumber":55,"Velocity":32,"Duration":326939,"SoundDuration":326939,"Delta":424420561},{"NoteNumber":58,"Velocity":30,"Duration":345303,"SoundDuration":345303,"Delta":424747501},{"NoteNumber":60,"Velocity":42,"Duration":1300606,"SoundDuration":1300606,"Delta":425092805},{"NoteNumber":79,"Velocity":56,"Duration":319556,"SoundDuration":319556,"Delta":425408993},{"NoteNumber":80,"Velocity":62,"Duration":319557,"SoundDuration":319557,"Delta":425728550},{"NoteNumber":84,"Velocity":57,"Duration":345303,"SoundDuration":345303,"Delta":426048107},{"NoteNumber":76,"Velocity":61,"Duration":646069,"SoundDuration":646069,"Delta":426393411},{"NoteNumber":62,"Velocity":32,"Duration":239667,"SoundDuration":239667,"Delta":426719924},{"NoteNumber":70,"Velocity":32,"Duration":239667,"SoundDuration":239667,"Delta":426719924},{"NoteNumber":77,"Velocity":60,"Duration":649662,"SoundDuration":649662,"Delta":427039481},{"NoteNumber":62,"Velocity":36,"Duration":239667,"SoundDuration":239667,"Delta":427039481},{"NoteNumber":70,"Velocity":36,"Duration":239667,"SoundDuration":239667,"Delta":427039481},{"NoteNumber":62,"Velocity":32,"Duration":247579,"SoundDuration":247579,"Delta":427359038},{"NoteNumber":70,"Velocity":32,"Duration":247579,"SoundDuration":247579,"Delta":427359038},{"NoteNumber":63,"Velocity":37,"Duration":1270554,"SoundDuration":1270554,"Delta":427689144},{"NoteNumber":70,"Velocity":37,"Duration":1270554,"SoundDuration":1270554,"Delta":427689144},{"NoteNumber":78,"Velocity":54,"Duration":312890,"SoundDuration":312890,"Delta":427992542},{"NoteNumber":79,"Velocity":62,"Duration":312891,"SoundDuration":312891,"Delta":428305433},{"NoteNumber":82,"Velocity":56,"Duration":341374,"SoundDuration":341374,"Delta":428618324},{"NoteNumber":74,"Velocity":61,"Duration":647752,"SoundDuration":647752,"Delta":428959698},{"NoteNumber":67,"Velocity":32,"Duration":242248,"SoundDuration":242248,"Delta":429284453},{"NoteNumber":70,"Velocity":32,"Duration":242248,"SoundDuration":242248,"Delta":429284453},{"NoteNumber":75,"Velocity":57,"Duration":660531,"SoundDuration":660531,"Delta":429607451},{"NoteNumber":67,"Velocity":36,"Duration":242248,"SoundDuration":242248,"Delta":429607451},{"NoteNumber":70,"Velocity":36,"Duration":242248,"SoundDuration":242248,"Delta":429607451},{"NoteNumber":67,"Velocity":32,"Duration":253150,"SoundDuration":253150,"Delta":429930448},{"NoteNumber":70,"Velocity":32,"Duration":253150,"SoundDuration":253150,"Delta":429930448},{"NoteNumber":68,"Velocity":37,"Duration":1286309,"SoundDuration":1286309,"Delta":430267982},{"NoteNumber":72,"Velocity":37,"Duration":1286309,"SoundDuration":1286309,"Delta":430267982},{"NoteNumber":76,"Velocity":54,"Duration":319556,"SoundDuration":319556,"Delta":430577643},{"NoteNumber":77,"Velocity":62,"Duration":319557,"SoundDuration":319557,"Delta":430897200},{"NoteNumber":80,"Velocity":56,"Duration":337533,"SoundDuration":337533,"Delta":431216757},{"NoteNumber":71,"Velocity":59,"Duration":352208,"SoundDuration":352208,"Delta":431554291},{"NoteNumber":72,"Velocity":54,"Duration":359164,"SoundDuration":359164,"Delta":431873848},{"NoteNumber":75,"Velocity":59,"Duration":363151,"SoundDuration":363151,"Delta":432200361},{"NoteNumber":58,"Velocity":36,"Duration":692902,"SoundDuration":692902,"Delta":432200361},{"NoteNumber":68,"Velocity":36,"Duration":692902,"SoundDuration":692902,"Delta":432200361},{"NoteNumber":74,"Velocity":54,"Duration":366389,"SoundDuration":366389,"Delta":432526874},{"NoteNumber":77,"Velocity":57,"Duration":1365498,"SoundDuration":1365498,"Delta":432893263},{"NoteNumber":59,"Velocity":38,"Duration":1365498,"SoundDuration":1365498,"Delta":432893263},{"NoteNumber":68,"Velocity":38,"Duration":1365498,"SoundDuration":1365498,"Delta":432893263},{"NoteNumber":75,"Velocity":52,"Duration":682749,"SoundDuration":682749,"Delta":434258761},{"NoteNumber":60,"Velocity":36,"Duration":682749,"SoundDuration":682749,"Delta":434258761},{"NoteNumber":67,"Velocity":36,"Duration":682749,"SoundDuration":682749,"Delta":434258761},{"NoteNumber":75,"Velocity":54,"Duration":1283722,"SoundDuration":1283722,"Delta":435624259},{"NoteNumber":53,"Velocity":38,"Duration":320002,"SoundDuration":320002,"Delta":435624259},{"NoteNumber":60,"Velocity":31,"Duration":316589,"SoundDuration":316589,"Delta":435944262},{"NoteNumber":57,"Velocity":36,"Duration":316589,"SoundDuration":316589,"Delta":436260851},{"NoteNumber":60,"Velocity":31,"Duration":330541,"SoundDuration":330541,"Delta":436577440},{"NoteNumber":74,"Velocity":54,"Duration":337878,"SoundDuration":337878,"Delta":436907982},{"NoteNumber":51,"Velocity":38,"Duration":306873,"SoundDuration":306873,"Delta":436907982},{"NoteNumber":72,"Velocity":50,"Duration":341704,"SoundDuration":341704,"Delta":437214856},{"NoteNumber":60,"Velocity":33,"Duration":310045,"SoundDuration":310045,"Delta":437214856},{"NoteNumber":70,"Velocity":54,"Duration":350773,"SoundDuration":350773,"Delta":437524902},{"NoteNumber":53,"Velocity":36,"Duration":316589,"SoundDuration":316589,"Delta":437524902},{"NoteNumber":69,"Velocity":50,"Duration":341841,"SoundDuration":341841,"Delta":437841491},{"NoteNumber":60,"Velocity":32,"Duration":341841,"SoundDuration":341841,"Delta":437841491},{"NoteNumber":80,"Velocity":63,"Duration":1283722,"SoundDuration":1283722,"Delta":438183332},{"NoteNumber":50,"Velocity":40,"Duration":320002,"SoundDuration":320002,"Delta":438183332},{"NoteNumber":58,"Velocity":31,"Duration":316589,"SoundDuration":316589,"Delta":438503335},{"NoteNumber":53,"Velocity":36,"Duration":317286,"SoundDuration":317286,"Delta":438835753},{"NoteNumber":58,"Velocity":31,"Duration":330541,"SoundDuration":330541,"Delta":439136513},{"NoteNumber":79,"Velocity":54,"Duration":337878,"SoundDuration":337878,"Delta":439467055},{"NoteNumber":56,"Velocity":40,"Duration":306873,"SoundDuration":306873,"Delta":439467055},{"NoteNumber":77,"Velocity":50,"Duration":341704,"SoundDuration":341704,"Delta":439773929},{"NoteNumber":65,"Velocity":33,"Duration":310045,"SoundDuration":310045,"Delta":439773929},{"NoteNumber":75,"Velocity":54,"Duration":350773,"SoundDuration":350773,"Delta":440083975},{"NoteNumber":58,"Velocity":36,"Duration":316589,"SoundDuration":316589,"Delta":440083975},{"NoteNumber":74,"Velocity":50,"Duration":341841,"SoundDuration":341841,"Delta":440400564},{"NoteNumber":65,"Velocity":32,"Duration":341841,"SoundDuration":341841,"Delta":440400564},{"NoteNumber":75,"Velocity":56,"Duration":319556,"SoundDuration":319556,"Delta":440742405},{"NoteNumber":63,"Velocity":36,"Duration":646069,"SoundDuration":646069,"Delta":440742405},{"NoteNumber":55,"Velocity":30,"Duration":646069,"SoundDuration":646069,"Delta":440742405},{"NoteNumber":67,"Velocity":54,"Duration":326512,"SoundDuration":326512,"Delta":441061962},{"NoteNumber":65,"Velocity":56,"Duration":319556,"SoundDuration":319556,"Delta":441388475},{"NoteNumber":60,"Velocity":32,"Duration":649662,"SoundDuration":649662,"Delta":441388475},{"NoteNumber":56,"Velocity":27,"Duration":649662,"SoundDuration":649662,"Delta":441388475},{"NoteNumber":72,"Velocity":50,"Duration":330105,"SoundDuration":330105,"Delta":441708032},{"NoteNumber":70,"Velocity":54,"Duration":322997,"SoundDuration":322997,"Delta":442038138},{"NoteNumber":46,"Velocity":30,"Duration":645995,"SoundDuration":645995,"Delta":442038138},{"NoteNumber":55,"Velocity":36,"Duration":645995,"SoundDuration":645995,"Delta":442038138},{"NoteNumber":63,"Velocity":49,"Duration":322997,"SoundDuration":322997,"Delta":442361135},{"NoteNumber":68,"Velocity":54,"Duration":322997,"SoundDuration":322997,"Delta":442684133},{"NoteNumber":46,"Velocity":27,"Duration":664371,"SoundDuration":664371,"Delta":442684133},{"NoteNumber":53,"Velocity":32,"Duration":664372,"SoundDuration":664372,"Delta":442702975},{"NoteNumber":62,"Velocity":49,"Duration":341374,"SoundDuration":341374,"Delta":443007130},{"NoteNumber":63,"Velocity":55,"Duration":1271563,"SoundDuration":1271563,"Delta":443348505},{"NoteNumber":51,"Velocity":40,"Duration":322997,"SoundDuration":322997,"Delta":443348505},{"NoteNumber":55,"Velocity":36,"Duration":316188,"SoundDuration":316188,"Delta":443671502},{"NoteNumber":58,"Velocity":39,"Duration":158094,"SoundDuration":158094,"Delta":443987691},{"NoteNumber":58,"Velocity":36,"Duration":158094,"SoundDuration":158094,"Delta":444303880},{"NoteNumber":58,"Velocity":40,"Duration":649047,"SoundDuration":649047,"Delta":444639325},{"NoteNumber":80,"Velocity":49,"Duration":319556,"SoundDuration":319556,"Delta":444950174},{"NoteNumber":77,"Velocity":53,"Duration":319557,"SoundDuration":319557,"Delta":445269731},{"NoteNumber":74,"Velocity":50,"Duration":337533,"SoundDuration":337533,"Delta":445589288},{"NoteNumber":82,"Velocity":58,"Duration":1271563,"SoundDuration":1271563,"Delta":445926822},{"NoteNumber":63,"Velocity":37,"Duration":322997,"SoundDuration":322997,"Delta":445926822},{"NoteNumber":67,"Velocity":33,"Duration":316188,"SoundDuration":316188,"Delta":446249820},{"NoteNumber":70,"Velocity":37,"Duration":158094,"SoundDuration":158094,"Delta":446566008},{"NoteNumber":70,"Velocity":33,"Duration":158094,"SoundDuration":158094,"Delta":446882197},{"NoteNumber":70,"Velocity":38,"Duration":649047,"SoundDuration":649047,"Delta":447217642},{"NoteNumber":80,"Velocity":46,"Duration":319556,"SoundDuration":319556,"Delta":447528492},{"NoteNumber":77,"Velocity":49,"Duration":319557,"SoundDuration":319557,"Delta":447848049},{"NoteNumber":74,"Velocity":46,"Duration":337533,"SoundDuration":337533,"Delta":448167606},{"NoteNumber":75,"Velocity":55,"Duration":1271563,"SoundDuration":1271563,"Delta":448505139},{"NoteNumber":39,"Velocity":36,"Duration":322997,"SoundDuration":322997,"Delta":448505139},{"NoteNumber":43,"Velocity":31,"Duration":316188,"SoundDuration":316188,"Delta":448828137},{"NoteNumber":46,"Velocity":36,"Duration":158094,"SoundDuration":158094,"Delta":449144326},{"NoteNumber":46,"Velocity":33,"Duration":158094,"SoundDuration":158094,"Delta":449460514},{"NoteNumber":46,"Velocity":37,"Duration":649047,"SoundDuration":649047,"Delta":449795959},{"NoteNumber":68,"Velocity":45,"Duration":319556,"SoundDuration":319556,"Delta":450106809},{"NoteNumber":65,"Velocity":47,"Duration":319557,"SoundDuration":319557,"Delta":450426366},{"NoteNumber":62,"Velocity":39,"Duration":441956,"SoundDuration":441956,"Delta":450745923},{"NoteNumber":56,"Velocity":30,"Duration":2612101,"SoundDuration":2612101,"Delta":451187879},{"NoteNumber":65,"Velocity":36,"Duration":2612101,"SoundDuration":2612101,"Delta":451187879},{"NoteNumber":34,"Velocity":25,"Duration":2612101,"SoundDuration":2612101,"Delta":451187879},{"NoteNumber":46,"Velocity":30,"Duration":2612101,"SoundDuration":2612101,"Delta":451187879},{"NoteNumber":55,"Velocity":25,"Duration":653025,"SoundDuration":653025,"Delta":453799981},{"NoteNumber":63,"Velocity":29,"Duration":653025,"SoundDuration":653025,"Delta":453799981},{"NoteNumber":39,"Velocity":27,"Duration":653025,"SoundDuration":653025,"Delta":453799981}],"license":{"name":"Creative Commons Attribution-ShareAlike 3.0 Germany","url":"http://creativecommons.org/licenses/by-sa/3.0/de/deed.en","text":"The MIDI, audio (MP3, OGG) and video files of Bernd Krueger are licensed under the cc-by-sa Germany License. This means that you can use and adapt the files, as long as you attribute the copyright holder.\n\nName: Bernd Krueger\nSource: http://www.piano-midi.de\n\nThe distribution or public playback of the files is only allowed under identical license conditions.\n\nThe scores are open source.","attribution":"MIDI files by Bernd Krueger (piano-midi.de)","attributionUrl":"http://www.piano-midi.de"}}