{"title":"Klaviersonate Nr. 8 KV 311 3. Satz","artist":"Mozart","durationMs":364759,"midiSha256":"a6b38a5d1f6db267c1c39f7242c493e2ecaa2b53ba21987632abe2ba4bd9c34e","midiObject":[{"NoteNumber":69,"Velocity":42,"Duration":99674,"SoundDuration":99674,"Delta":0},{"NoteNumber":81,"Velocity":47,"Duration":402712,"SoundDuration":402712,"Delta":99674},{"NoteNumber":78,"Velocity":44,"Duration":151016,"SoundDuration":151016,"Delta":502387},{"NoteNumber":76,"Velocity":44,"Duration":50339,"SoundDuration":50339,"Delta":653404},{"NoteNumber":74,"Velocity":49,"Duration":75508,"SoundDuration":75508,"Delta":703743},{"NoteNumber":62,"Velocity":27,"Duration":611059,"SoundDuration":611059,"Delta":703743},{"NoteNumber":66,"Velocity":33,"Duration":611059,"SoundDuration":611059,"Delta":703743},{"NoteNumber":73,"Velocity":44,"Duration":75508,"SoundDuration":75508,"Delta":905099},{"NoteNumber":74,"Velocity":44,"Duration":78130,"SoundDuration":78130,"Delta":1106454},{"NoteNumber":76,"Velocity":43,"Duration":52086,"SoundDuration":52086,"Delta":1262715},{"NoteNumber":74,"Velocity":47,"Duration":75508,"SoundDuration":75508,"Delta":1314802},{"NoteNumber":59,"Velocity":27,"Duration":619334,"SoundDuration":619334,"Delta":1314802},{"NoteNumber":68,"Velocity":33,"Duration":619334,"SoundDuration":619334,"Delta":1314802},{"NoteNumber":73,"Velocity":43,"Duration":75508,"SoundDuration":75508,"Delta":1516158},{"NoteNumber":74,"Velocity":42,"Duration":81233,"SoundDuration":81233,"Delta":1717515},{"NoteNumber":78,"Velocity":49,"Duration":422565,"SoundDuration":422565,"Delta":1934137},{"NoteNumber":74,"Velocity":41,"Duration":422565,"SoundDuration":422565,"Delta":1934137},{"NoteNumber":57,"Velocity":27,"Duration":653255,"SoundDuration":653255,"Delta":1934137},{"NoteNumber":69,"Velocity":33,"Duration":653255,"SoundDuration":653255,"Delta":1934137},{"NoteNumber":76,"Velocity":41,"Duration":131015,"SoundDuration":131015,"Delta":2356702},{"NoteNumber":73,"Velocity":35,"Duration":131015,"SoundDuration":131015,"Delta":2356702},{"NoteNumber":67,"Velocity":42,"Duration":99674,"SoundDuration":99674,"Delta":2487717},{"NoteNumber":79,"Velocity":47,"Duration":402712,"SoundDuration":402712,"Delta":2587392},{"NoteNumber":76,"Velocity":44,"Duration":151016,"SoundDuration":151016,"Delta":2990104},{"NoteNumber":74,"Velocity":44,"Duration":50339,"SoundDuration":50339,"Delta":3141121},{"NoteNumber":73,"Velocity":49,"Duration":75508,"SoundDuration":75508,"Delta":3191460},{"NoteNumber":64,"Velocity":33,"Duration":611059,"SoundDuration":611059,"Delta":3191460},{"NoteNumber":57,"Velocity":27,"Duration":611059,"SoundDuration":611059,"Delta":3191460},{"NoteNumber":71,"Velocity":44,"Duration":75508,"SoundDuration":75508,"Delta":3392816},{"NoteNumber":73,"Velocity":44,"Duration":78130,"SoundDuration":78130,"Delta":3594172},{"NoteNumber":69,"Velocity":47,"Duration":75508,"SoundDuration":75508,"Delta":3802520},{"NoteNumber":61,"Velocity":27,"Duration":619334,"SoundDuration":619334,"Delta":3802520},{"NoteNumber":64,"Velocity":33,"Duration":619334,"SoundDuration":619334,"Delta":3802520},{"NoteNumber":76,"Velocity":43,"Duration":75508,"SoundDuration":75508,"Delta":4003876},{"NoteNumber":81,"Velocity":42,"Duration":81233,"SoundDuration":81233,"Delta":4205232},{"NoteNumber":79,"Velocity":49,"Duration":422564,"SoundDuration":422564,"Delta":4421854},{"NoteNumber":76,"Velocity":41,"Duration":422564,"SoundDuration":422564,"Delta":4421854},{"NoteNumber":62,"Velocity":27,"Duration":633847,"SoundDuration":633847,"Delta":4421854},{"NoteNumber":69,"Velocity":33,"Duration":633847,"SoundDuration":633847,"Delta":4421854},{"NoteNumber":78,"Velocity":41,"Duration":158461,"SoundDuration":158461,"Delta":4844419},{"NoteNumber":74,"Velocity":35,"Duration":158461,"SoundDuration":158461,"Delta":4844419},{"NoteNumber":74,"Velocity":48,"Duration":52820,"SoundDuration":52820,"Delta":5002881},{"NoteNumber":78,"Velocity":52,"Duration":405433,"SoundDuration":405433,"Delta":5055701},{"NoteNumber":50,"Velocity":51,"Duration":202716,"SoundDuration":202716,"Delta":5055701},{"NoteNumber":62,"Velocity":45,"Duration":101358,"SoundDuration":101358,"Delta":5258418},{"NoteNumber":79,"Velocity":48,"Duration":206910,"SoundDuration":206910,"Delta":5461134},{"NoteNumber":64,"Velocity":48,"Duration":103455,"SoundDuration":103455,"Delta":5461134},{"NoteNumber":83,"Velocity":59,"Duration":101358,"SoundDuration":101358,"Delta":5668045},{"NoteNumber":66,"Velocity":52,"Duration":202716,"SoundDuration":202716,"Delta":5668045},{"NoteNumber":81,"Velocity":57,"Duration":101358,"SoundDuration":101358,"Delta":5769404},{"NoteNumber":79,"Velocity":55,"Duration":101358,"SoundDuration":101358,"Delta":5870762},{"NoteNumber":78,"Velocity":53,"Duration":101358,"SoundDuration":101358,"Delta":5972120},{"NoteNumber":76,"Velocity":51,"Duration":109497,"SoundDuration":109497,"Delta":6073478},{"NoteNumber":74,"Velocity":47,"Duration":50176,"SoundDuration":50176,"Delta":6182975},{"NoteNumber":74,"Velocity":46,"Duration":51906,"SoundDuration":51906,"Delta":6234882},{"NoteNumber":78,"Velocity":58,"Duration":404067,"SoundDuration":404067,"Delta":6286789},{"NoteNumber":50,"Velocity":50,"Duration":202034,"SoundDuration":202034,"Delta":6286789},{"NoteNumber":62,"Velocity":44,"Duration":101016,"SoundDuration":101016,"Delta":6488823},{"NoteNumber":79,"Velocity":49,"Duration":208347,"SoundDuration":208347,"Delta":6690857},{"NoteNumber":64,"Velocity":48,"Duration":104174,"SoundDuration":104174,"Delta":6690857},{"NoteNumber":83,"Velocity":59,"Duration":101016,"SoundDuration":101016,"Delta":6899205},{"NoteNumber":66,"Velocity":53,"Duration":202034,"SoundDuration":202034,"Delta":6899205},{"NoteNumber":81,"Velocity":57,"Duration":101017,"SoundDuration":101017,"Delta":7000222},{"NoteNumber":79,"Velocity":55,"Duration":101016,"SoundDuration":101016,"Delta":7101239},{"NoteNumber":78,"Velocity":53,"Duration":101016,"SoundDuration":101016,"Delta":7202256},{"NoteNumber":76,"Velocity":51,"Duration":111532,"SoundDuration":111532,"Delta":7303273},{"NoteNumber":74,"Velocity":51,"Duration":43709,"SoundDuration":43709,"Delta":7414805},{"NoteNumber":74,"Velocity":46,"Duration":52451,"SoundDuration":52451,"Delta":7467257},{"NoteNumber":83,"Velocity":58,"Duration":404068,"SoundDuration":404068,"Delta":7519708},{"NoteNumber":55,"Velocity":50,"Duration":202033,"SoundDuration":202033,"Delta":7519708},{"NoteNumber":67,"Velocity":44,"Duration":101017,"SoundDuration":101017,"Delta":7721742},{"NoteNumber":85,"Velocity":49,"Duration":206910,"SoundDuration":206910,"Delta":7923776},{"NoteNumber":64,"Velocity":48,"Duration":103455,"SoundDuration":103455,"Delta":7923776},{"NoteNumber":86,"Velocity":59,"Duration":101017,"SoundDuration":101017,"Delta":8130687},{"NoteNumber":54,"Velocity":45,"Duration":202033,"SoundDuration":202033,"Delta":8130687},{"NoteNumber":66,"Velocity":53,"Duration":202033,"SoundDuration":202033,"Delta":8130687},{"NoteNumber":85,"Velocity":57,"Duration":101016,"SoundDuration":101016,"Delta":8231704},{"NoteNumber":83,"Velocity":55,"Duration":101017,"SoundDuration":101017,"Delta":8332721},{"NoteNumber":81,"Velocity":53,"Duration":101017,"SoundDuration":101017,"Delta":8433738},{"NoteNumber":79,"Velocity":51,"Duration":102746,"SoundDuration":102746,"Delta":8534755},{"NoteNumber":78,"Velocity":51,"Duration":102746,"SoundDuration":102746,"Delta":8637502},{"NoteNumber":83,"Velocity":59,"Duration":101017,"SoundDuration":101017,"Delta":8740248},{"NoteNumber":67,"Velocity":53,"Duration":202033,"SoundDuration":202033,"Delta":8740248},{"NoteNumber":55,"Velocity":45,"Duration":202033,"SoundDuration":202033,"Delta":8740248},{"NoteNumber":81,"Velocity":58,"Duration":101016,"SoundDuration":101016,"Delta":8841265},{"NoteNumber":79,"Velocity":56,"Duration":101017,"SoundDuration":101017,"Delta":8942282},{"NoteNumber":78,"Velocity":55,"Duration":101017,"SoundDuration":101017,"Delta":9043299},{"NoteNumber":76,"Velocity":58,"Duration":105270,"SoundDuration":105270,"Delta":9144316},{"NoteNumber":74,"Velocity":62,"Duration":122458,"SoundDuration":122458,"Delta":9249587},{"NoteNumber":73,"Velocity":50,"Duration":208348,"SoundDuration":208348,"Delta":9372046},{"NoteNumber":76,"Velocity":50,"Duration":208348,"SoundDuration":208348,"Delta":9372046},{"NoteNumber":81,"Velocity":59,"Duration":208348,"SoundDuration":208348,"Delta":9372046},{"NoteNumber":69,"Velocity":53,"Duration":208348,"SoundDuration":208348,"Delta":9372046},{"NoteNumber":57,"Velocity":45,"Duration":208348,"SoundDuration":208348,"Delta":9372046},{"NoteNumber":69,"Velocity":45,"Duration":99674,"SoundDuration":99674,"Delta":9892916},{"NoteNumber":81,"Velocity":47,"Duration":402711,"SoundDuration":402711,"Delta":9992590},{"NoteNumber":78,"Velocity":44,"Duration":151017,"SoundDuration":151017,"Delta":10395302},{"NoteNumber":76,"Velocity":44,"Duration":50338,"SoundDuration":50338,"Delta":10546319},{"NoteNumber":74,"Velocity":49,"Duration":75508,"SoundDuration":75508,"Delta":10596658},{"NoteNumber":66,"Velocity":33,"Duration":611060,"SoundDuration":611060,"Delta":10596658},{"NoteNumber":62,"Velocity":27,"Duration":611060,"SoundDuration":611060,"Delta":10596658},{"NoteNumber":73,"Velocity":44,"Duration":75508,"SoundDuration":75508,"Delta":10798014},{"NoteNumber":74,"Velocity":44,"Duration":78130,"SoundDuration":78130,"Delta":10999370},{"NoteNumber":76,"Velocity":43,"Duration":52087,"SoundDuration":52087,"Delta":11155631},{"NoteNumber":74,"Velocity":47,"Duration":75508,"SoundDuration":75508,"Delta":11207718},{"NoteNumber":59,"Velocity":27,"Duration":619333,"SoundDuration":619333,"Delta":11207718},{"NoteNumber":68,"Velocity":33,"Duration":619333,"SoundDuration":619333,"Delta":11207718},{"NoteNumber":73,"Velocity":43,"Duration":75508,"SoundDuration":75508,"Delta":11409074},{"NoteNumber":74,"Velocity":42,"Duration":81233,"SoundDuration":81233,"Delta":11610430},{"NoteNumber":78,"Velocity":49,"Duration":422565,"SoundDuration":422565,"Delta":11827052},{"NoteNumber":74,"Velocity":41,"Duration":422565,"SoundDuration":422565,"Delta":11827052},{"NoteNumber":69,"Velocity":33,"Duration":653255,"SoundDuration":653255,"Delta":11827052},{"NoteNumber":57,"Velocity":27,"Duration":653255,"SoundDuration":653255,"Delta":11827052},{"NoteNumber":76,"Velocity":41,"Duration":131015,"SoundDuration":131015,"Delta":12249617},{"NoteNumber":73,"Velocity":35,"Duration":131015,"SoundDuration":131015,"Delta":12249617},{"NoteNumber":67,"Velocity":42,"Duration":99674,"SoundDuration":99674,"Delta":12380633},{"NoteNumber":79,"Velocity":47,"Duration":402711,"SoundDuration":402711,"Delta":12480308},{"NoteNumber":76,"Velocity":44,"Duration":151017,"SoundDuration":151017,"Delta":12883020},{"NoteNumber":74,"Velocity":44,"Duration":50338,"SoundDuration":50338,"Delta":13034037},{"NoteNumber":73,"Velocity":49,"Duration":75508,"SoundDuration":75508,"Delta":13084376},{"NoteNumber":64,"Velocity":33,"Duration":611060,"SoundDuration":611060,"Delta":13084376},{"NoteNumber":57,"Velocity":27,"Duration":611060,"SoundDuration":611060,"Delta":13084376},{"NoteNumber":71,"Velocity":44,"Duration":75508,"SoundDuration":75508,"Delta":13285732},{"NoteNumber":73,"Velocity":44,"Duration":78130,"SoundDuration":78130,"Delta":13487088},{"NoteNumber":69,"Velocity":47,"Duration":75508,"SoundDuration":75508,"Delta":13695436},{"NoteNumber":64,"Velocity":33,"Duration":619333,"SoundDuration":619333,"Delta":13695436},{"NoteNumber":61,"Velocity":27,"Duration":619333,"SoundDuration":619333,"Delta":13695436},{"NoteNumber":76,"Velocity":43,"Duration":75508,"SoundDuration":75508,"Delta":13896792},{"NoteNumber":81,"Velocity":42,"Duration":81233,"SoundDuration":81233,"Delta":14098148},{"NoteNumber":76,"Velocity":41,"Duration":422565,"SoundDuration":422565,"Delta":14314770},{"NoteNumber":79,"Velocity":49,"Duration":422565,"SoundDuration":422565,"Delta":14314770},{"NoteNumber":62,"Velocity":27,"Duration":633847,"SoundDuration":633847,"Delta":14314770},{"NoteNumber":69,"Velocity":33,"Duration":633847,"SoundDuration":633847,"Delta":14314770},{"NoteNumber":74,"Velocity":35,"Duration":158461,"SoundDuration":158461,"Delta":14737335},{"NoteNumber":78,"Velocity":41,"Duration":158461,"SoundDuration":158461,"Delta":14737335},{"NoteNumber":74,"Velocity":48,"Duration":52820,"SoundDuration":52820,"Delta":14895796},{"NoteNumber":78,"Velocity":52,"Duration":405433,"SoundDuration":405433,"Delta":14948617},{"NoteNumber":50,"Velocity":51,"Duration":202716,"SoundDuration":202716,"Delta":14948617},{"NoteNumber":62,"Velocity":45,"Duration":101358,"SoundDuration":101358,"Delta":15151333},{"NoteNumber":79,"Velocity":48,"Duration":206911,"SoundDuration":206911,"Delta":15354050},{"NoteNumber":64,"Velocity":48,"Duration":103455,"SoundDuration":103455,"Delta":15354050},{"NoteNumber":83,"Velocity":59,"Duration":101358,"SoundDuration":101358,"Delta":15560961},{"NoteNumber":66,"Velocity":52,"Duration":202716,"SoundDuration":202716,"Delta":15560961},{"NoteNumber":81,"Velocity":57,"Duration":101358,"SoundDuration":101358,"Delta":15662319},{"NoteNumber":79,"Velocity":55,"Duration":101358,"SoundDuration":101358,"Delta":15763678},{"NoteNumber":78,"Velocity":53,"Duration":101358,"SoundDuration":101358,"Delta":15865036},{"NoteNumber":76,"Velocity":51,"Duration":109497,"SoundDuration":109497,"Delta":15966394},{"NoteNumber":74,"Velocity":47,"Duration":48446,"SoundDuration":48446,"Delta":16075891},{"NoteNumber":74,"Velocity":46,"Duration":51906,"SoundDuration":51906,"Delta":16127798},{"NoteNumber":83,"Velocity":58,"Duration":404301,"SoundDuration":404301,"Delta":16179705},{"NoteNumber":43,"Velocity":50,"Duration":202267,"SoundDuration":202267,"Delta":16179705},{"NoteNumber":55,"Velocity":44,"Duration":101017,"SoundDuration":101017,"Delta":16381972},{"NoteNumber":85,"Velocity":49,"Duration":206707,"SoundDuration":206707,"Delta":16584006},{"NoteNumber":59,"Velocity":48,"Duration":103252,"SoundDuration":103252,"Delta":16584006},{"NoteNumber":88,"Velocity":59,"Duration":101220,"SoundDuration":101220,"Delta":16790713},{"NoteNumber":59,"Velocity":53,"Duration":202237,"SoundDuration":202237,"Delta":16790713},{"NoteNumber":86,"Velocity":57,"Duration":101016,"SoundDuration":101016,"Delta":16891934},{"NoteNumber":85,"Velocity":55,"Duration":101017,"SoundDuration":101017,"Delta":16992951},{"NoteNumber":83,"Velocity":53,"Duration":101016,"SoundDuration":101016,"Delta":17093968},{"NoteNumber":81,"Velocity":51,"Duration":102602,"SoundDuration":102602,"Delta":17194985},{"NoteNumber":79,"Velocity":51,"Duration":102746,"SoundDuration":102746,"Delta":17297587},{"NoteNumber":85,"Velocity":59,"Duration":101161,"SoundDuration":101161,"Delta":17400334},{"NoteNumber":64,"Velocity":53,"Duration":101161,"SoundDuration":101161,"Delta":17400334},{"NoteNumber":59,"Velocity":45,"Duration":101161,"SoundDuration":101161,"Delta":17400334},{"NoteNumber":55,"Velocity":45,"Duration":101016,"SoundDuration":101016,"Delta":17408896},{"NoteNumber":83,"Velocity":58,"Duration":101016,"SoundDuration":101016,"Delta":17501495},{"NoteNumber":81,"Velocity":56,"Duration":101017,"SoundDuration":101017,"Delta":17602512},{"NoteNumber":79,"Velocity":55,"Duration":101016,"SoundDuration":101016,"Delta":17703529},{"NoteNumber":78,"Velocity":54,"Duration":104916,"SoundDuration":104916,"Delta":17804546},{"NoteNumber":76,"Velocity":52,"Duration":121026,"SoundDuration":121026,"Delta":17909462},{"NoteNumber":83,"Velocity":63,"Duration":101220,"SoundDuration":101220,"Delta":18030489},{"NoteNumber":62,"Velocity":45,"Duration":101220,"SoundDuration":101220,"Delta":18030489},{"NoteNumber":57,"Velocity":45,"Duration":101220,"SoundDuration":101220,"Delta":18030489},{"NoteNumber":66,"Velocity":53,"Duration":101016,"SoundDuration":101016,"Delta":18039110},{"NoteNumber":81,"Velocity":61,"Duration":101016,"SoundDuration":101016,"Delta":18131709},{"NoteNumber":79,"Velocity":59,"Duration":101017,"SoundDuration":101017,"Delta":18232726},{"NoteNumber":78,"Velocity":57,"Duration":101016,"SoundDuration":101016,"Delta":18333743},{"NoteNumber":76,"Velocity":56,"Duration":102602,"SoundDuration":102602,"Delta":18434760},{"NoteNumber":74,"Velocity":54,"Duration":102746,"SoundDuration":102746,"Delta":18537363},{"NoteNumber":81,"Velocity":59,"Duration":101161,"SoundDuration":101161,"Delta":18640109},{"NoteNumber":64,"Velocity":45,"Duration":101161,"SoundDuration":101161,"Delta":18640109},{"NoteNumber":57,"Velocity":45,"Duration":101161,"SoundDuration":101161,"Delta":18640109},{"NoteNumber":67,"Velocity":53,"Duration":101016,"SoundDuration":101016,"Delta":18648671},{"NoteNumber":79,"Velocity":61,"Duration":101016,"SoundDuration":101016,"Delta":18741270},{"NoteNumber":78,"Velocity":60,"Duration":101017,"SoundDuration":101017,"Delta":18842287},{"NoteNumber":76,"Velocity":59,"Duration":101016,"SoundDuration":101016,"Delta":18943304},{"NoteNumber":74,"Velocity":58,"Duration":104916,"SoundDuration":104916,"Delta":19044321},{"NoteNumber":73,"Velocity":61,"Duration":121026,"SoundDuration":121026,"Delta":19149237},{"NoteNumber":74,"Velocity":63,"Duration":104537,"SoundDuration":104537,"Delta":19270264},{"NoteNumber":66,"Velocity":53,"Duration":104537,"SoundDuration":104537,"Delta":19270264},{"NoteNumber":62,"Velocity":45,"Duration":104537,"SoundDuration":104537,"Delta":19270264},{"NoteNumber":62,"Velocity":66,"Duration":100341,"SoundDuration":100341,"Delta":19688412},{"NoteNumber":38,"Velocity":45,"Duration":100341,"SoundDuration":100341,"Delta":19688412},{"NoteNumber":66,"Velocity":66,"Duration":104537,"SoundDuration":104537,"Delta":19788753},{"NoteNumber":42,"Velocity":45,"Duration":104537,"SoundDuration":104537,"Delta":19788753},{"NoteNumber":69,"Velocity":73,"Duration":102395,"SoundDuration":102395,"Delta":19893290},{"NoteNumber":45,"Velocity":52,"Duration":102395,"SoundDuration":102395,"Delta":19893290},{"NoteNumber":66,"Velocity":70,"Duration":99674,"SoundDuration":99674,"Delta":20302874},{"NoteNumber":42,"Velocity":48,"Duration":99674,"SoundDuration":99674,"Delta":20302874},{"NoteNumber":69,"Velocity":70,"Duration":105641,"SoundDuration":105641,"Delta":20402549},{"NoteNumber":45,"Velocity":48,"Duration":105641,"SoundDuration":105641,"Delta":20402549},{"NoteNumber":74,"Velocity":75,"Duration":102395,"SoundDuration":102395,"Delta":20508190},{"NoteNumber":50,"Velocity":57,"Duration":102395,"SoundDuration":102395,"Delta":20508190},{"NoteNumber":69,"Velocity":69,"Duration":100341,"SoundDuration":100341,"Delta":20917774},{"NoteNumber":45,"Velocity":51,"Duration":100341,"SoundDuration":100341,"Delta":20917774},{"NoteNumber":74,"Velocity":69,"Duration":105641,"SoundDuration":105641,"Delta":21018115},{"NoteNumber":50,"Velocity":51,"Duration":105641,"SoundDuration":105641,"Delta":21018115},{"NoteNumber":78,"Velocity":81,"Duration":102395,"SoundDuration":102395,"Delta":21123757},{"NoteNumber":54,"Velocity":57,"Duration":102395,"SoundDuration":102395,"Delta":21123757},{"NoteNumber":74,"Velocity":70,"Duration":100677,"SoundDuration":100677,"Delta":21533341},{"NoteNumber":50,"Velocity":48,"Duration":100677,"SoundDuration":100677,"Delta":21533341},{"NoteNumber":78,"Velocity":70,"Duration":106014,"SoundDuration":106014,"Delta":21634019},{"NoteNumber":54,"Velocity":48,"Duration":106014,"SoundDuration":106014,"Delta":21634019},{"NoteNumber":81,"Velocity":82,"Duration":102395,"SoundDuration":102395,"Delta":21740033},{"NoteNumber":57,"Velocity":57,"Duration":102395,"SoundDuration":102395,"Delta":21740033},{"NoteNumber":81,"Velocity":45,"Duration":511980,"SoundDuration":511980,"Delta":22968785},{"NoteNumber":57,"Velocity":29,"Duration":1436102,"SoundDuration":1436102,"Delta":22968785},{"NoteNumber":66,"Velocity":35,"Duration":617621,"SoundDuration":617621,"Delta":22968785},{"NoteNumber":62,"Velocity":29,"Duration":617621,"SoundDuration":617621,"Delta":22968785},{"NoteNumber":83,"Velocity":42,"Duration":105641,"SoundDuration":105641,"Delta":23480765},{"NoteNumber":74,"Velocity":47,"Duration":409583,"SoundDuration":409583,"Delta":23586406},{"NoteNumber":64,"Velocity":27,"Duration":615077,"SoundDuration":615077,"Delta":23586406},{"NoteNumber":67,"Velocity":32,"Duration":615077,"SoundDuration":615077,"Delta":23586406},{"NoteNumber":73,"Velocity":47,"Duration":205249,"SoundDuration":205249,"Delta":24019965},{"NoteNumber":74,"Velocity":55,"Duration":152552,"SoundDuration":152552,"Delta":24201484},{"NoteNumber":62,"Velocity":29,"Duration":203403,"SoundDuration":203403,"Delta":24201484},{"NoteNumber":66,"Velocity":35,"Duration":203403,"SoundDuration":203403,"Delta":24201484},{"NoteNumber":86,"Velocity":54,"Duration":100341,"SoundDuration":100341,"Delta":24404887},{"NoteNumber":85,"Velocity":52,"Duration":100341,"SoundDuration":100341,"Delta":24605570},{"NoteNumber":83,"Velocity":50,"Duration":100341,"SoundDuration":100341,"Delta":24806252},{"NoteNumber":81,"Velocity":49,"Duration":100341,"SoundDuration":100341,"Delta":25006935},{"NoteNumber":80,"Velocity":47,"Duration":103455,"SoundDuration":103455,"Delta":25207617},{"NoteNumber":81,"Velocity":45,"Duration":259198,"SoundDuration":259198,"Delta":25414528},{"NoteNumber":57,"Velocity":29,"Duration":1439468,"SoundDuration":1439468,"Delta":25414528},{"NoteNumber":62,"Velocity":29,"Duration":620987,"SoundDuration":620987,"Delta":25414528},{"NoteNumber":66,"Velocity":35,"Duration":620987,"SoundDuration":620987,"Delta":25414528},{"NoteNumber":83,"Velocity":35,"Duration":50850,"SoundDuration":50850,"Delta":25673727},{"NoteNumber":81,"Velocity":35,"Duration":50850,"SoundDuration":50850,"Delta":25724578},{"NoteNumber":80,"Velocity":35,"Duration":50850,"SoundDuration":50850,"Delta":25775429},{"NoteNumber":81,"Velocity":45,"Duration":101701,"SoundDuration":101701,"Delta":25826280},{"NoteNumber":83,"Velocity":42,"Duration":107534,"SoundDuration":107534,"Delta":25927982},{"NoteNumber":74,"Velocity":47,"Duration":409583,"SoundDuration":409583,"Delta":26035516},{"NoteNumber":67,"Velocity":32,"Duration":615077,"SoundDuration":615077,"Delta":26035516},{"NoteNumber":64,"Velocity":27,"Duration":615077,"SoundDuration":615077,"Delta":26035516},{"NoteNumber":73,"Velocity":47,"Duration":205249,"SoundDuration":205249,"Delta":26469074},{"NoteNumber":74,"Velocity":55,"Duration":152552,"SoundDuration":152552,"Delta":26650594},{"NoteNumber":62,"Velocity":29,"Duration":203403,"SoundDuration":203403,"Delta":26650594},{"NoteNumber":66,"Velocity":35,"Duration":203403,"SoundDuration":203403,"Delta":26650594},{"NoteNumber":86,"Velocity":54,"Duration":100341,"SoundDuration":100341,"Delta":26853997},{"NoteNumber":85,"Velocity":52,"Duration":100341,"SoundDuration":100341,"Delta":27054680},{"NoteNumber":83,"Velocity":50,"Duration":100341,"SoundDuration":100341,"Delta":27255362},{"NoteNumber":81,"Velocity":49,"Duration":100341,"SoundDuration":100341,"Delta":27456045},{"NoteNumber":80,"Velocity":47,"Duration":103455,"SoundDuration":103455,"Delta":27656727},{"NoteNumber":81,"Velocity":45,"Duration":259198,"SoundDuration":259198,"Delta":27863638},{"NoteNumber":57,"Velocity":29,"Duration":1241854,"SoundDuration":1241854,"Delta":27863638},{"NoteNumber":62,"Velocity":29,"Duration":620987,"SoundDuration":620987,"Delta":27863638},{"NoteNumber":66,"Velocity":35,"Duration":620987,"SoundDuration":620987,"Delta":27863638},{"NoteNumber":83,"Velocity":35,"Duration":50850,"SoundDuration":50850,"Delta":28122837},{"NoteNumber":81,"Velocity":35,"Duration":50850,"SoundDuration":50850,"Delta":28173688},{"NoteNumber":80,"Velocity":35,"Duration":50850,"SoundDuration":50850,"Delta":28224539},{"NoteNumber":81,"Velocity":45,"Duration":101701,"SoundDuration":101701,"Delta":28275390},{"NoteNumber":83,"Velocity":42,"Duration":107534,"SoundDuration":107534,"Delta":28377091},{"NoteNumber":74,"Velocity":47,"Duration":409583,"SoundDuration":409583,"Delta":28484626},{"NoteNumber":67,"Velocity":32,"Duration":620866,"SoundDuration":620866,"Delta":28484626},{"NoteNumber":64,"Velocity":27,"Duration":620866,"SoundDuration":620866,"Delta":28484626},{"NoteNumber":73,"Velocity":47,"Duration":210363,"SoundDuration":210363,"Delta":28918859},{"NoteNumber":74,"Velocity":52,"Duration":203403,"SoundDuration":203403,"Delta":29105492},{"NoteNumber":62,"Velocity":24,"Duration":203403,"SoundDuration":203403,"Delta":29105492},{"NoteNumber":66,"Velocity":32,"Duration":203403,"SoundDuration":203403,"Delta":29105492},{"NoteNumber":62,"Velocity":35,"Duration":610210,"SoundDuration":610210,"Delta":29715703},{"NoteNumber":54,"Velocity":29,"Duration":610210,"SoundDuration":610210,"Delta":29715703},{"NoteNumber":59,"Velocity":29,"Duration":610210,"SoundDuration":610210,"Delta":29715703},{"NoteNumber":47,"Velocity":35,"Duration":610210,"SoundDuration":610210,"Delta":29715703},{"NoteNumber":59,"Velocity":32,"Duration":604068,"SoundDuration":604068,"Delta":30325913},{"NoteNumber":64,"Velocity":38,"Duration":604068,"SoundDuration":604068,"Delta":30325913},{"NoteNumber":62,"Velocity":32,"Duration":604068,"SoundDuration":604068,"Delta":30325913},{"NoteNumber":43,"Velocity":37,"Duration":604068,"SoundDuration":604068,"Delta":30325913},{"NoteNumber":64,"Velocity":33,"Duration":612342,"SoundDuration":612342,"Delta":30929981},{"NoteNumber":69,"Velocity":39,"Duration":612342,"SoundDuration":612342,"Delta":30929981},{"NoteNumber":61,"Velocity":33,"Duration":612342,"SoundDuration":612342,"Delta":30929981},{"NoteNumber":45,"Velocity":39,"Duration":612342,"SoundDuration":612342,"Delta":30929981},{"NoteNumber":57,"Velocity":29,"Duration":203403,"SoundDuration":203403,"Delta":31542324},{"NoteNumber":62,"Velocity":29,"Duration":203403,"SoundDuration":203403,"Delta":31542324},{"NoteNumber":66,"Velocity":35,"Duration":203403,"SoundDuration":203403,"Delta":31542324},{"NoteNumber":38,"Velocity":35,"Duration":203403,"SoundDuration":203403,"Delta":31542324},{"NoteNumber":62,"Velocity":61,"Duration":75508,"SoundDuration":75508,"Delta":32355938},{"NoteNumber":38,"Velocity":44,"Duration":75508,"SoundDuration":75508,"Delta":32355938},{"NoteNumber":50,"Velocity":44,"Duration":75508,"SoundDuration":75508,"Delta":32355938},{"NoteNumber":62,"Velocity":62,"Duration":77860,"SoundDuration":77860,"Delta":32557294},{"NoteNumber":38,"Velocity":44,"Duration":77860,"SoundDuration":77860,"Delta":32557294},{"NoteNumber":50,"Velocity":44,"Duration":77860,"SoundDuration":77860,"Delta":32557294},{"NoteNumber":64,"Velocity":40,"Duration":34604,"SoundDuration":34604,"Delta":32661108},{"NoteNumber":62,"Velocity":40,"Duration":34604,"SoundDuration":34604,"Delta":32695712},{"NoteNumber":61,"Velocity":40,"Duration":34589,"SoundDuration":34589,"Delta":32731182},{"NoteNumber":62,"Velocity":69,"Duration":408191,"SoundDuration":408191,"Delta":32764921},{"NoteNumber":50,"Velocity":52,"Duration":408191,"SoundDuration":408191,"Delta":32764921},{"NoteNumber":38,"Velocity":52,"Duration":408191,"SoundDuration":408191,"Delta":32764921},{"NoteNumber":62,"Velocity":60,"Duration":76535,"SoundDuration":76535,"Delta":33173112},{"NoteNumber":50,"Velocity":44,"Duration":76535,"SoundDuration":76535,"Delta":33173112},{"NoteNumber":38,"Velocity":44,"Duration":76535,"SoundDuration":76535,"Delta":33173112},{"NoteNumber":64,"Velocity":40,"Duration":34015,"SoundDuration":34015,"Delta":33275160},{"NoteNumber":62,"Velocity":40,"Duration":34015,"SoundDuration":34015,"Delta":33309176},{"NoteNumber":61,"Velocity":40,"Duration":34015,"SoundDuration":34015,"Delta":33344042},{"NoteNumber":62,"Velocity":64,"Duration":408190,"SoundDuration":408190,"Delta":33377208},{"NoteNumber":50,"Velocity":44,"Duration":408190,"SoundDuration":408190,"Delta":33377208},{"NoteNumber":38,"Velocity":44,"Duration":408190,"SoundDuration":408190,"Delta":33377208},{"NoteNumber":62,"Velocity":59,"Duration":78402,"SoundDuration":78402,"Delta":33785399},{"NoteNumber":38,"Velocity":44,"Duration":78402,"SoundDuration":78402,"Delta":33785399},{"NoteNumber":50,"Velocity":44,"Duration":78402,"SoundDuration":78402,"Delta":33785399},{"NoteNumber":61,"Velocity":66,"Duration":408191,"SoundDuration":408191,"Delta":33994473},{"NoteNumber":49,"Velocity":52,"Duration":408191,"SoundDuration":408191,"Delta":33994473},{"NoteNumber":37,"Velocity":52,"Duration":408191,"SoundDuration":408191,"Delta":33994473},{"NoteNumber":76,"Velocity":54,"Duration":102047,"SoundDuration":102047,"Delta":34504712},{"NoteNumber":81,"Velocity":63,"Duration":816381,"SoundDuration":816381,"Delta":34606759},{"NoteNumber":61,"Velocity":25,"Duration":76535,"SoundDuration":76535,"Delta":35219046},{"NoteNumber":69,"Velocity":30,"Duration":76535,"SoundDuration":76535,"Delta":35219046},{"NoteNumber":85,"Velocity":45,"Duration":75508,"SoundDuration":75508,"Delta":35423141},{"NoteNumber":69,"Velocity":30,"Duration":75508,"SoundDuration":75508,"Delta":35423141},{"NoteNumber":61,"Velocity":25,"Duration":75508,"SoundDuration":75508,"Delta":35423141},{"NoteNumber":83,"Velocity":43,"Duration":75508,"SoundDuration":75508,"Delta":35624497},{"NoteNumber":61,"Velocity":25,"Duration":75508,"SoundDuration":75508,"Delta":35624497},{"NoteNumber":69,"Velocity":30,"Duration":75508,"SoundDuration":75508,"Delta":35624497},{"NoteNumber":81,"Velocity":41,"Duration":75508,"SoundDuration":75508,"Delta":35825853},{"NoteNumber":61,"Velocity":25,"Duration":75508,"SoundDuration":75508,"Delta":35825853},{"NoteNumber":69,"Velocity":30,"Duration":75508,"SoundDuration":75508,"Delta":35825853},{"NoteNumber":80,"Velocity":39,"Duration":77060,"SoundDuration":77060,"Delta":36027209},{"NoteNumber":69,"Velocity":30,"Duration":77060,"SoundDuration":77060,"Delta":36027209},{"NoteNumber":61,"Velocity":25,"Duration":77060,"SoundDuration":77060,"Delta":36027209},{"NoteNumber":78,"Velocity":37,"Duration":82726,"SoundDuration":82726,"Delta":36232703},{"NoteNumber":69,"Velocity":30,"Duration":82726,"SoundDuration":82726,"Delta":36232703},{"NoteNumber":61,"Velocity":25,"Duration":82726,"SoundDuration":82726,"Delta":36232703},{"NoteNumber":76,"Velocity":35,"Duration":614376,"SoundDuration":614376,"Delta":36453307},{"NoteNumber":69,"Velocity":35,"Duration":831783,"SoundDuration":831783,"Delta":36453307},{"NoteNumber":59,"Velocity":29,"Duration":831783,"SoundDuration":831783,"Delta":36453307},{"NoteNumber":74,"Velocity":35,"Duration":217407,"SoundDuration":217407,"Delta":37067683},{"NoteNumber":59,"Velocity":61,"Duration":75508,"SoundDuration":75508,"Delta":37285090},{"NoteNumber":47,"Velocity":44,"Duration":75508,"SoundDuration":75508,"Delta":37285090},{"NoteNumber":35,"Velocity":44,"Duration":75508,"SoundDuration":75508,"Delta":37285090},{"NoteNumber":59,"Velocity":62,"Duration":77860,"SoundDuration":77860,"Delta":37486446},{"NoteNumber":47,"Velocity":44,"Duration":77860,"SoundDuration":77860,"Delta":37486446},{"NoteNumber":35,"Velocity":44,"Duration":77860,"SoundDuration":77860,"Delta":37486446},{"NoteNumber":61,"Velocity":40,"Duration":34604,"SoundDuration":34604,"Delta":37590260},{"NoteNumber":59,"Velocity":40,"Duration":34604,"SoundDuration":34604,"Delta":37624864},{"NoteNumber":58,"Velocity":40,"Duration":34589,"SoundDuration":34589,"Delta":37660334},{"NoteNumber":59,"Velocity":69,"Duration":408191,"SoundDuration":408191,"Delta":37694073},{"NoteNumber":35,"Velocity":52,"Duration":408191,"SoundDuration":408191,"Delta":37694073},{"NoteNumber":47,"Velocity":52,"Duration":408191,"SoundDuration":408191,"Delta":37694073},{"NoteNumber":59,"Velocity":60,"Duration":76535,"SoundDuration":76535,"Delta":38102264},{"NoteNumber":35,"Velocity":44,"Duration":76535,"SoundDuration":76535,"Delta":38102264},{"NoteNumber":47,"Velocity":44,"Duration":76535,"SoundDuration":76535,"Delta":38102264},{"NoteNumber":59,"Velocity":40,"Duration":34015,"SoundDuration":34015,"Delta":38204312},{"NoteNumber":57,"Velocity":40,"Duration":34015,"SoundDuration":34015,"Delta":38238328},{"NoteNumber":56,"Velocity":40,"Duration":34015,"SoundDuration":34015,"Delta":38273194},{"NoteNumber":57,"Velocity":64,"Duration":408190,"SoundDuration":408190,"Delta":38306360},{"NoteNumber":33,"Velocity":44,"Duration":408190,"SoundDuration":408190,"Delta":38306360},{"NoteNumber":45,"Velocity":44,"Duration":408190,"SoundDuration":408190,"Delta":38306360},{"NoteNumber":57,"Velocity":59,"Duration":78402,"SoundDuration":78402,"Delta":38714551},{"NoteNumber":33,"Velocity":44,"Duration":78402,"SoundDuration":78402,"Delta":38714551},{"NoteNumber":45,"Velocity":44,"Duration":78402,"SoundDuration":78402,"Delta":38714551},{"NoteNumber":56,"Velocity":66,"Duration":204095,"SoundDuration":204095,"Delta":38923625},{"NoteNumber":44,"Velocity":52,"Duration":204095,"SoundDuration":204095,"Delta":38923625},{"NoteNumber":32,"Velocity":52,"Duration":204095,"SoundDuration":204095,"Delta":38923625},{"NoteNumber":76,"Velocity":54,"Duration":102047,"SoundDuration":102047,"Delta":39433864},{"NoteNumber":86,"Velocity":63,"Duration":714334,"SoundDuration":714334,"Delta":39535911},{"NoteNumber":56,"Velocity":40,"Duration":614405,"SoundDuration":614405,"Delta":40148198},{"NoteNumber":85,"Velocity":53,"Duration":102047,"SoundDuration":102047,"Delta":40250246},{"NoteNumber":83,"Velocity":53,"Duration":102047,"SoundDuration":102047,"Delta":40352293},{"NoteNumber":59,"Velocity":30,"Duration":204095,"SoundDuration":204095,"Delta":40352293},{"NoteNumber":81,"Velocity":52,"Duration":102047,"SoundDuration":102047,"Delta":40454341},{"NoteNumber":80,"Velocity":51,"Duration":102047,"SoundDuration":102047,"Delta":40556389},{"NoteNumber":64,"Velocity":26,"Duration":206214,"SoundDuration":206214,"Delta":40556389},{"NoteNumber":78,"Velocity":51,"Duration":104166,"SoundDuration":104166,"Delta":40658437},{"NoteNumber":76,"Velocity":54,"Duration":102040,"SoundDuration":102040,"Delta":40762603},{"NoteNumber":56,"Velocity":40,"Duration":617346,"SoundDuration":617346,"Delta":40762603},{"NoteNumber":78,"Velocity":49,"Duration":102040,"SoundDuration":102040,"Delta":40864644},{"NoteNumber":76,"Velocity":50,"Duration":102040,"SoundDuration":102040,"Delta":40966685},{"NoteNumber":59,"Velocity":30,"Duration":204081,"SoundDuration":204081,"Delta":40966685},{"NoteNumber":74,"Velocity":49,"Duration":102040,"SoundDuration":102040,"Delta":41068726},{"NoteNumber":73,"Velocity":48,"Duration":102040,"SoundDuration":102040,"Delta":41170766},{"NoteNumber":64,"Velocity":27,"Duration":209183,"SoundDuration":209183,"Delta":41170766},{"NoteNumber":71,"Velocity":47,"Duration":107142,"SoundDuration":107142,"Delta":41272807},{"NoteNumber":73,"Velocity":47,"Duration":102040,"SoundDuration":102040,"Delta":41379950},{"NoteNumber":57,"Velocity":40,"Duration":614733,"SoundDuration":614733,"Delta":41379950},{"NoteNumber":76,"Velocity":47,"Duration":102040,"SoundDuration":102040,"Delta":41481991},{"NoteNumber":78,"Velocity":48,"Duration":102040,"SoundDuration":102040,"Delta":41584031},{"NoteNumber":61,"Velocity":33,"Duration":204081,"SoundDuration":204081,"Delta":41584031},{"NoteNumber":80,"Velocity":50,"Duration":102040,"SoundDuration":102040,"Delta":41686072},{"NoteNumber":81,"Velocity":52,"Duration":102040,"SoundDuration":102040,"Delta":41788113},{"NoteNumber":64,"Velocity":36,"Duration":206570,"SoundDuration":206570,"Delta":41788113},{"NoteNumber":83,"Velocity":53,"Duration":104529,"SoundDuration":104529,"Delta":41890154},{"NoteNumber":85,"Velocity":55,"Duration":102040,"SoundDuration":102040,"Delta":41994683},{"NoteNumber":57,"Velocity":40,"Duration":616586,"SoundDuration":616586,"Delta":41994683},{"NoteNumber":86,"Velocity":57,"Duration":102040,"SoundDuration":102040,"Delta":42096724},{"NoteNumber":88,"Velocity":61,"Duration":102040,"SoundDuration":102040,"Delta":42198765},{"NoteNumber":61,"Velocity":33,"Duration":204081,"SoundDuration":204081,"Delta":42198765},{"NoteNumber":85,"Velocity":57,"Duration":102040,"SoundDuration":102040,"Delta":42300805},{"NoteNumber":83,"Velocity":57,"Duration":102040,"SoundDuration":102040,"Delta":42402846},{"NoteNumber":64,"Velocity":33,"Duration":208423,"SoundDuration":208423,"Delta":42402846},{"NoteNumber":81,"Velocity":53,"Duration":106383,"SoundDuration":106383,"Delta":42504887},{"NoteNumber":86,"Velocity":62,"Duration":102040,"SoundDuration":102040,"Delta":42611270},{"NoteNumber":56,"Velocity":40,"Duration":616210,"SoundDuration":616210,"Delta":42611270},{"NoteNumber":85,"Velocity":60,"Duration":102040,"SoundDuration":102040,"Delta":42713311},{"NoteNumber":83,"Velocity":58,"Duration":102040,"SoundDuration":102040,"Delta":42815351},{"NoteNumber":59,"Velocity":34,"Duration":204081,"SoundDuration":204081,"Delta":42815351},{"NoteNumber":81,"Velocity":57,"Duration":102040,"SoundDuration":102040,"Delta":42917392},{"NoteNumber":80,"Velocity":55,"Duration":102040,"SoundDuration":102040,"Delta":43019433},{"NoteNumber":64,"Velocity":31,"Duration":208047,"SoundDuration":208047,"Delta":43019433},{"NoteNumber":78,"Velocity":53,"Duration":106006,"SoundDuration":106006,"Delta":43121474},{"NoteNumber":76,"Velocity":59,"Duration":102040,"SoundDuration":102040,"Delta":43227481},{"NoteNumber":56,"Velocity":40,"Duration":616965,"SoundDuration":616965,"Delta":43227481},{"NoteNumber":78,"Velocity":58,"Duration":102040,"SoundDuration":102040,"Delta":43329521},{"NoteNumber":76,"Velocity":56,"Duration":102040,"SoundDuration":102040,"Delta":43431562},{"NoteNumber":59,"Velocity":33,"Duration":204081,"SoundDuration":204081,"Delta":43431562},{"NoteNumber":74,"Velocity":55,"Duration":102040,"SoundDuration":102040,"Delta":43533603},{"NoteNumber":73,"Velocity":53,"Duration":102040,"SoundDuration":102040,"Delta":43635644},{"NoteNumber":64,"Velocity":28,"Duration":208802,"SoundDuration":208802,"Delta":43635644},{"NoteNumber":71,"Velocity":52,"Duration":106761,"SoundDuration":106761,"Delta":43737684},{"NoteNumber":73,"Velocity":48,"Duration":102040,"SoundDuration":102040,"Delta":43844446},{"NoteNumber":57,"Velocity":40,"Duration":614370,"SoundDuration":614370,"Delta":43844446},{"NoteNumber":76,"Velocity":50,"Duration":102040,"SoundDuration":102040,"Delta":43946487},{"NoteNumber":78,"Velocity":51,"Duration":102040,"SoundDuration":102040,"Delta":44048527},{"NoteNumber":61,"Velocity":34,"Duration":204081,"SoundDuration":204081,"Delta":44048527},{"NoteNumber":80,"Velocity":52,"Duration":102040,"SoundDuration":102040,"Delta":44150568},{"NoteNumber":81,"Velocity":54,"Duration":102040,"SoundDuration":102040,"Delta":44252609},{"NoteNumber":64,"Velocity":37,"Duration":206207,"SoundDuration":206207,"Delta":44252609},{"NoteNumber":83,"Velocity":55,"Duration":104166,"SoundDuration":104166,"Delta":44354650},{"NoteNumber":85,"Velocity":56,"Duration":102040,"SoundDuration":102040,"Delta":44458816},{"NoteNumber":57,"Velocity":40,"Duration":617346,"SoundDuration":617346,"Delta":44458816},{"NoteNumber":86,"Velocity":58,"Duration":102040,"SoundDuration":102040,"Delta":44560857},{"NoteNumber":88,"Velocity":60,"Duration":102040,"SoundDuration":102040,"Delta":44662898},{"NoteNumber":61,"Velocity":34,"Duration":204081,"SoundDuration":204081,"Delta":44662898},{"NoteNumber":85,"Velocity":52,"Duration":102040,"SoundDuration":102040,"Delta":44764939},{"NoteNumber":83,"Velocity":51,"Duration":102040,"SoundDuration":102040,"Delta":44866979},{"NoteNumber":64,"Velocity":34,"Duration":209183,"SoundDuration":209183,"Delta":44866979},{"NoteNumber":81,"Velocity":51,"Duration":107142,"SoundDuration":107142,"Delta":44969020},{"NoteNumber":86,"Velocity":63,"Duration":102040,"SoundDuration":102040,"Delta":45076163},{"NoteNumber":56,"Velocity":40,"Duration":616965,"SoundDuration":616965,"Delta":45076163},{"NoteNumber":85,"Velocity":59,"Duration":102040,"SoundDuration":102040,"Delta":45178204},{"NoteNumber":83,"Velocity":59,"Duration":102040,"SoundDuration":102040,"Delta":45280244},{"NoteNumber":59,"Velocity":33,"Duration":204081,"SoundDuration":204081,"Delta":45280244},{"NoteNumber":81,"Velocity":58,"Duration":102040,"SoundDuration":102040,"Delta":45382285},{"NoteNumber":80,"Velocity":56,"Duration":102040,"SoundDuration":102040,"Delta":45484326},{"NoteNumber":64,"Velocity":30,"Duration":208802,"SoundDuration":208802,"Delta":45484326},{"NoteNumber":78,"Velocity":54,"Duration":106761,"SoundDuration":106761,"Delta":45586367},{"NoteNumber":76,"Velocity":60,"Duration":101694,"SoundDuration":101694,"Delta":45693128},{"NoteNumber":56,"Velocity":40,"Duration":615236,"SoundDuration":615236,"Delta":45693128},{"NoteNumber":78,"Velocity":58,"Duration":101694,"SoundDuration":101694,"Delta":45794823},{"NoteNumber":76,"Velocity":56,"Duration":101694,"SoundDuration":101694,"Delta":45896518},{"NoteNumber":59,"Velocity":34,"Duration":203389,"SoundDuration":203389,"Delta":45896518},{"NoteNumber":74,"Velocity":55,"Duration":101694,"SoundDuration":101694,"Delta":45998213},{"NoteNumber":73,"Velocity":54,"Duration":101694,"SoundDuration":101694,"Delta":46099908},{"NoteNumber":64,"Velocity":32,"Duration":208456,"SoundDuration":208456,"Delta":46099908},{"NoteNumber":71,"Velocity":52,"Duration":106761,"SoundDuration":106761,"Delta":46201603},{"NoteNumber":73,"Velocity":56,"Duration":102040,"SoundDuration":102040,"Delta":46308365},{"NoteNumber":57,"Velocity":46,"Duration":408163,"SoundDuration":408163,"Delta":46308365},{"NoteNumber":76,"Velocity":50,"Duration":102040,"SoundDuration":102040,"Delta":46410405},{"NoteNumber":78,"Velocity":52,"Duration":102040,"SoundDuration":102040,"Delta":46512446},{"NoteNumber":80,"Velocity":53,"Duration":102040,"SoundDuration":102040,"Delta":46614487},{"NoteNumber":81,"Velocity":55,"Duration":102040,"SoundDuration":102040,"Delta":46716528},{"NoteNumber":83,"Velocity":57,"Duration":106761,"SoundDuration":106761,"Delta":46818568},{"NoteNumber":85,"Velocity":62,"Duration":101694,"SoundDuration":101694,"Delta":46925330},{"NoteNumber":49,"Velocity":42,"Duration":406779,"SoundDuration":406779,"Delta":46925330},{"NoteNumber":57,"Velocity":42,"Duration":406779,"SoundDuration":406779,"Delta":46925330},{"NoteNumber":83,"Velocity":57,"Duration":101694,"SoundDuration":101694,"Delta":47027025},{"NoteNumber":81,"Velocity":56,"Duration":101694,"SoundDuration":101694,"Delta":47128720},{"NoteNumber":80,"Velocity":54,"Duration":101694,"SoundDuration":101694,"Delta":47230415},{"NoteNumber":78,"Velocity":53,"Duration":101694,"SoundDuration":101694,"Delta":47332110},{"NoteNumber":76,"Velocity":52,"Duration":106383,"SoundDuration":106383,"Delta":47433805},{"NoteNumber":78,"Velocity":60,"Duration":101694,"SoundDuration":101694,"Delta":47540188},{"NoteNumber":57,"Velocity":46,"Duration":406779,"SoundDuration":406779,"Delta":47540188},{"NoteNumber":50,"Velocity":46,"Duration":406779,"SoundDuration":406779,"Delta":47540188},{"NoteNumber":76,"Velocity":59,"Duration":101694,"SoundDuration":101694,"Delta":47641883},{"NoteNumber":74,"Velocity":57,"Duration":101694,"SoundDuration":101694,"Delta":47743578},{"NoteNumber":73,"Velocity":56,"Duration":101694,"SoundDuration":101694,"Delta":47845273},{"NoteNumber":71,"Velocity":55,"Duration":101694,"SoundDuration":101694,"Delta":47946968},{"NoteNumber":69,"Velocity":53,"Duration":106526,"SoundDuration":106526,"Delta":48048663},{"NoteNumber":74,"Velocity":52,"Duration":103005,"SoundDuration":103005,"Delta":48155190},{"NoteNumber":62,"Velocity":45,"Duration":103005,"SoundDuration":103005,"Delta":48155190},{"NoteNumber":73,"Velocity":54,"Duration":101954,"SoundDuration":101954,"Delta":48258195},{"NoteNumber":61,"Velocity":42,"Duration":101954,"SoundDuration":101954,"Delta":48258195},{"NoteNumber":71,"Velocity":57,"Duration":100968,"SoundDuration":100968,"Delta":48360150},{"NoteNumber":59,"Velocity":43,"Duration":100968,"SoundDuration":100968,"Delta":48360150},{"NoteNumber":69,"Velocity":60,"Duration":100009,"SoundDuration":100009,"Delta":48461118},{"NoteNumber":57,"Velocity":46,"Duration":100009,"SoundDuration":100009,"Delta":48461118},{"NoteNumber":68,"Velocity":64,"Duration":101702,"SoundDuration":101702,"Delta":48561128},{"NoteNumber":56,"Velocity":48,"Duration":101702,"SoundDuration":101702,"Delta":48561128},{"NoteNumber":66,"Velocity":67,"Duration":104166,"SoundDuration":104166,"Delta":48662830},{"NoteNumber":54,"Velocity":51,"Duration":104166,"SoundDuration":104166,"Delta":48662830},{"NoteNumber":64,"Velocity":70,"Duration":83643,"SoundDuration":83643,"Delta":48766997},{"NoteNumber":52,"Velocity":54,"Duration":83643,"SoundDuration":83643,"Delta":48766997},{"NoteNumber":68,"Velocity":52,"Duration":77319,"SoundDuration":77319,"Delta":48990046},{"NoteNumber":76,"Velocity":62,"Duration":77319,"SoundDuration":77319,"Delta":48990046},{"NoteNumber":71,"Velocity":52,"Duration":77319,"SoundDuration":77319,"Delta":48990046},{"NoteNumber":52,"Velocity":50,"Duration":77319,"SoundDuration":77319,"Delta":48990046},{"NoteNumber":71,"Velocity":52,"Duration":79787,"SoundDuration":79787,"Delta":49196231},{"NoteNumber":68,"Velocity":52,"Duration":79787,"SoundDuration":79787,"Delta":49196231},{"NoteNumber":76,"Velocity":62,"Duration":79787,"SoundDuration":79787,"Delta":49196231},{"NoteNumber":52,"Velocity":50,"Duration":79787,"SoundDuration":79787,"Delta":49196231},{"NoteNumber":71,"Velocity":56,"Duration":83955,"SoundDuration":83955,"Delta":49408997},{"NoteNumber":76,"Velocity":67,"Duration":83955,"SoundDuration":83955,"Delta":49408997},{"NoteNumber":68,"Velocity":56,"Duration":83955,"SoundDuration":83955,"Delta":49408997},{"NoteNumber":52,"Velocity":54,"Duration":83955,"SoundDuration":83955,"Delta":49408997},{"NoteNumber":73,"Velocity":50,"Duration":645439,"SoundDuration":645439,"Delta":50080639},{"NoteNumber":64,"Velocity":42,"Duration":645439,"SoundDuration":645439,"Delta":50080639},{"NoteNumber":62,"Velocity":39,"Duration":649994,"SoundDuration":649994,"Delta":50726078},{"NoteNumber":71,"Velocity":47,"Duration":215146,"SoundDuration":215146,"Delta":50726078},{"NoteNumber":73,"Velocity":44,"Duration":213690,"SoundDuration":213690,"Delta":50941225},{"NoteNumber":71,"Velocity":44,"Duration":221157,"SoundDuration":221157,"Delta":51154915},{"NoteNumber":61,"Velocity":42,"Duration":1723435,"SoundDuration":1723435,"Delta":51376073},{"NoteNumber":69,"Velocity":50,"Duration":1723435,"SoundDuration":1723435,"Delta":51376073},{"NoteNumber":57,"Velocity":41,"Duration":645439,"SoundDuration":645439,"Delta":51376073},{"NoteNumber":56,"Velocity":46,"Duration":215146,"SoundDuration":215146,"Delta":52021512},{"NoteNumber":57,"Velocity":44,"Duration":213690,"SoundDuration":213690,"Delta":52236659},{"NoteNumber":56,"Velocity":44,"Duration":218866,"SoundDuration":218866,"Delta":52450349},{"NoteNumber":54,"Velocity":51,"Duration":1073548,"SoundDuration":1073548,"Delta":52669216},{"NoteNumber":73,"Velocity":50,"Duration":212962,"SoundDuration":212962,"Delta":53099509},{"NoteNumber":69,"Velocity":42,"Duration":649159,"SoundDuration":649159,"Delta":53312471},{"NoteNumber":74,"Velocity":50,"Duration":430292,"SoundDuration":430292,"Delta":53312471},{"NoteNumber":78,"Velocity":54,"Duration":218866,"SoundDuration":218866,"Delta":53742764},{"NoteNumber":50,"Velocity":36,"Duration":218866,"SoundDuration":218866,"Delta":53742764},{"NoteNumber":68,"Velocity":45,"Duration":214407,"SoundDuration":214407,"Delta":53961631},{"NoteNumber":76,"Velocity":53,"Duration":428815,"SoundDuration":428815,"Delta":53961631},{"NoteNumber":52,"Velocity":41,"Duration":214407,"SoundDuration":214407,"Delta":53961631},{"NoteNumber":69,"Velocity":50,"Duration":214407,"SoundDuration":214407,"Delta":54176039},{"NoteNumber":54,"Velocity":37,"Duration":214407,"SoundDuration":214407,"Delta":54176039},{"NoteNumber":71,"Velocity":42,"Duration":217359,"SoundDuration":217359,"Delta":54390447},{"NoteNumber":74,"Velocity":50,"Duration":217359,"SoundDuration":217359,"Delta":54390447},{"NoteNumber":56,"Velocity":37,"Duration":217359,"SoundDuration":217359,"Delta":54390447},{"NoteNumber":69,"Velocity":45,"Duration":430292,"SoundDuration":430292,"Delta":54607807},{"NoteNumber":73,"Velocity":54,"Duration":430292,"SoundDuration":430292,"Delta":54607807},{"NoteNumber":57,"Velocity":42,"Duration":215146,"SoundDuration":215146,"Delta":54607807},{"NoteNumber":59,"Velocity":38,"Duration":215146,"SoundDuration":215146,"Delta":54822953},{"NoteNumber":61,"Velocity":38,"Duration":224299,"SoundDuration":224299,"Delta":55038100},{"NoteNumber":71,"Velocity":50,"Duration":860585,"SoundDuration":860585,"Delta":55262399},{"NoteNumber":62,"Velocity":42,"Duration":645439,"SoundDuration":645439,"Delta":55262399},{"NoteNumber":66,"Velocity":35,"Duration":1295433,"SoundDuration":1295433,"Delta":55262399},{"NoteNumber":69,"Velocity":35,"Duration":1295433,"SoundDuration":1295433,"Delta":55262399},{"NoteNumber":63,"Velocity":42,"Duration":649994,"SoundDuration":649994,"Delta":55907838},{"NoteNumber":73,"Velocity":44,"Duration":213690,"SoundDuration":213690,"Delta":56122985},{"NoteNumber":71,"Velocity":44,"Duration":221157,"SoundDuration":221157,"Delta":56336675},{"NoteNumber":71,"Velocity":50,"Duration":860585,"SoundDuration":860585,"Delta":56557833},{"NoteNumber":64,"Velocity":42,"Duration":645439,"SoundDuration":645439,"Delta":56557833},{"NoteNumber":68,"Velocity":35,"Duration":645439,"SoundDuration":645439,"Delta":56557833},{"NoteNumber":64,"Velocity":35,"Duration":653135,"SoundDuration":653135,"Delta":57203272},{"NoteNumber":62,"Velocity":42,"Duration":653135,"SoundDuration":653135,"Delta":57203272},{"NoteNumber":68,"Velocity":35,"Duration":653135,"SoundDuration":653135,"Delta":57203272},{"NoteNumber":73,"Velocity":45,"Duration":213690,"SoundDuration":213690,"Delta":57418419},{"NoteNumber":74,"Velocity":46,"Duration":224299,"SoundDuration":224299,"Delta":57632109},{"NoteNumber":76,"Velocity":52,"Duration":221157,"SoundDuration":221157,"Delta":57856408},{"NoteNumber":64,"Velocity":29,"Duration":221157,"SoundDuration":221157,"Delta":57856408},{"NoteNumber":69,"Velocity":35,"Duration":221157,"SoundDuration":221157,"Delta":57856408},{"NoteNumber":61,"Velocity":29,"Duration":221157,"SoundDuration":221157,"Delta":57856408},{"NoteNumber":81,"Velocity":49,"Duration":162454,"SoundDuration":162454,"Delta":58077566},{"NoteNumber":80,"Velocity":48,"Duration":164714,"SoundDuration":164714,"Delta":58294172},{"NoteNumber":78,"Velocity":49,"Duration":162454,"SoundDuration":162454,"Delta":58513792},{"NoteNumber":62,"Velocity":35,"Duration":433213,"SoundDuration":433213,"Delta":58513792},{"NoteNumber":76,"Velocity":48,"Duration":162454,"SoundDuration":162454,"Delta":58730398},{"NoteNumber":74,"Velocity":46,"Duration":174405,"SoundDuration":174405,"Delta":58947005},{"NoteNumber":57,"Velocity":31,"Duration":232540,"SoundDuration":232540,"Delta":58947005},{"NoteNumber":54,"Velocity":26,"Duration":232540,"SoundDuration":232540,"Delta":58947005},{"NoteNumber":73,"Velocity":45,"Duration":453697,"SoundDuration":453697,"Delta":59179545},{"NoteNumber":57,"Velocity":36,"Duration":693778,"SoundDuration":693778,"Delta":59179545},{"NoteNumber":52,"Velocity":30,"Duration":928906,"SoundDuration":928906,"Delta":59179545},{"NoteNumber":74,"Velocity":42,"Duration":118445,"SoundDuration":118445,"Delta":59633242},{"NoteNumber":73,"Velocity":43,"Duration":121634,"SoundDuration":121634,"Delta":59751688},{"NoteNumber":71,"Velocity":37,"Duration":235128,"SoundDuration":235128,"Delta":59873323},{"NoteNumber":56,"Velocity":32,"Duration":235128,"SoundDuration":235128,"Delta":59873323},{"NoteNumber":64,"Velocity":42,"Duration":645439,"SoundDuration":645439,"Delta":60578707},{"NoteNumber":73,"Velocity":50,"Duration":645439,"SoundDuration":645439,"Delta":60578707},{"NoteNumber":71,"Velocity":47,"Duration":215146,"SoundDuration":215146,"Delta":61224146},{"NoteNumber":62,"Velocity":39,"Duration":649994,"SoundDuration":649994,"Delta":61224146},{"NoteNumber":73,"Velocity":44,"Duration":213690,"SoundDuration":213690,"Delta":61439293},{"NoteNumber":71,"Velocity":44,"Duration":221157,"SoundDuration":221157,"Delta":61652983},{"NoteNumber":69,"Velocity":50,"Duration":1723435,"SoundDuration":1723435,"Delta":61874141},{"NoteNumber":61,"Velocity":42,"Duration":645439,"SoundDuration":645439,"Delta":61874141},{"NoteNumber":54,"Velocity":41,"Duration":645439,"SoundDuration":645439,"Delta":61874141},{"NoteNumber":67,"Velocity":42,"Duration":647703,"SoundDuration":647703,"Delta":62519580},{"NoteNumber":61,"Velocity":42,"Duration":647703,"SoundDuration":647703,"Delta":62519580},{"NoteNumber":52,"Velocity":46,"Duration":215146,"SoundDuration":215146,"Delta":62519580},{"NoteNumber":54,"Velocity":44,"Duration":213690,"SoundDuration":213690,"Delta":62734727},{"NoteNumber":52,"Velocity":44,"Duration":218866,"SoundDuration":218866,"Delta":62948417},{"NoteNumber":66,"Velocity":42,"Duration":430292,"SoundDuration":430292,"Delta":63167284},{"NoteNumber":62,"Velocity":42,"Duration":430292,"SoundDuration":430292,"Delta":63167284},{"NoteNumber":50,"Velocity":51,"Duration":430292,"SoundDuration":430292,"Delta":63167284},{"NoteNumber":64,"Velocity":50,"Duration":212962,"SoundDuration":212962,"Delta":63597577},{"NoteNumber":70,"Velocity":50,"Duration":212962,"SoundDuration":212962,"Delta":63597577},{"NoteNumber":49,"Velocity":36,"Duration":212962,"SoundDuration":212962,"Delta":63597577},{"NoteNumber":62,"Velocity":42,"Duration":430293,"SoundDuration":430293,"Delta":63810539},{"NoteNumber":66,"Velocity":42,"Duration":430293,"SoundDuration":430293,"Delta":63810539},{"NoteNumber":71,"Velocity":50,"Duration":430293,"SoundDuration":430293,"Delta":63810539},{"NoteNumber":47,"Velocity":51,"Duration":430293,"SoundDuration":430293,"Delta":63810539},{"NoteNumber":78,"Velocity":54,"Duration":218866,"SoundDuration":218866,"Delta":64240832},{"NoteNumber":73,"Velocity":54,"Duration":218866,"SoundDuration":218866,"Delta":64240832},{"NoteNumber":45,"Velocity":36,"Duration":218866,"SoundDuration":218866,"Delta":64240832},{"NoteNumber":76,"Velocity":53,"Duration":428815,"SoundDuration":428815,"Delta":64459699},{"NoteNumber":71,"Velocity":45,"Duration":428815,"SoundDuration":428815,"Delta":64459699},{"NoteNumber":44,"Velocity":41,"Duration":428815,"SoundDuration":428815,"Delta":64459699},{"NoteNumber":74,"Velocity":50,"Duration":217359,"SoundDuration":217359,"Delta":64888515},{"NoteNumber":68,"Velocity":42,"Duration":217359,"SoundDuration":217359,"Delta":64888515},{"NoteNumber":40,"Velocity":37,"Duration":217359,"SoundDuration":217359,"Delta":64888515},{"NoteNumber":73,"Velocity":54,"Duration":430293,"SoundDuration":430293,"Delta":65105875},{"NoteNumber":69,"Velocity":45,"Duration":430293,"SoundDuration":430293,"Delta":65105875},{"NoteNumber":45,"Velocity":42,"Duration":215146,"SoundDuration":215146,"Delta":65105875},{"NoteNumber":47,"Velocity":38,"Duration":215146,"SoundDuration":215146,"Delta":65321021},{"NoteNumber":49,"Velocity":38,"Duration":218866,"SoundDuration":218866,"Delta":65536168},{"NoteNumber":71,"Velocity":50,"Duration":215146,"SoundDuration":215146,"Delta":65755034},{"NoteNumber":57,"Velocity":35,"Duration":1295434,"SoundDuration":1295434,"Delta":65755034},{"NoteNumber":50,"Velocity":42,"Duration":645439,"SoundDuration":645439,"Delta":65755034},{"NoteNumber":54,"Velocity":35,"Duration":1295434,"SoundDuration":1295434,"Delta":65755034},{"NoteNumber":83,"Velocity":55,"Duration":107573,"SoundDuration":107573,"Delta":65970181},{"NoteNumber":83,"Velocity":55,"Duration":107573,"SoundDuration":107573,"Delta":66185327},{"NoteNumber":83,"Velocity":59,"Duration":107573,"SoundDuration":107573,"Delta":66400474},{"NoteNumber":51,"Velocity":42,"Duration":649994,"SoundDuration":649994,"Delta":66400474},{"NoteNumber":83,"Velocity":53,"Duration":106845,"SoundDuration":106845,"Delta":66615620},{"NoteNumber":83,"Velocity":53,"Duration":110578,"SoundDuration":110578,"Delta":66829311},{"NoteNumber":83,"Velocity":60,"Duration":215146,"SoundDuration":215146,"Delta":67050468},{"NoteNumber":56,"Velocity":35,"Duration":645439,"SoundDuration":645439,"Delta":67050468},{"NoteNumber":52,"Velocity":42,"Duration":645439,"SoundDuration":645439,"Delta":67050468},{"NoteNumber":50,"Velocity":42,"Duration":645439,"SoundDuration":645439,"Delta":67050468},{"NoteNumber":76,"Velocity":53,"Duration":107573,"SoundDuration":107573,"Delta":67265615},{"NoteNumber":88,"Velocity":53,"Duration":107573,"SoundDuration":107573,"Delta":67480761},{"NoteNumber":88,"Velocity":62,"Duration":107573,"SoundDuration":107573,"Delta":67695908},{"NoteNumber":55,"Velocity":35,"Duration":649994,"SoundDuration":649994,"Delta":67695908},{"NoteNumber":49,"Velocity":42,"Duration":649994,"SoundDuration":649994,"Delta":67695908},{"NoteNumber":52,"Velocity":35,"Duration":649994,"SoundDuration":649994,"Delta":67695908},{"NoteNumber":81,"Velocity":56,"Duration":106845,"SoundDuration":106845,"Delta":67911054},{"NoteNumber":81,"Velocity":56,"Duration":110578,"SoundDuration":110578,"Delta":68124745},{"NoteNumber":81,"Velocity":57,"Duration":110578,"SoundDuration":110578,"Delta":68345902},{"NoteNumber":50,"Velocity":35,"Duration":110578,"SoundDuration":110578,"Delta":68345902},{"NoteNumber":54,"Velocity":42,"Duration":110578,"SoundDuration":110578,"Delta":68345902},{"NoteNumber":74,"Velocity":45,"Duration":108303,"SoundDuration":108303,"Delta":68567060},{"NoteNumber":78,"Velocity":53,"Duration":108303,"SoundDuration":108303,"Delta":68567060},{"NoteNumber":76,"Velocity":54,"Duration":109809,"SoundDuration":109809,"Delta":68783666},{"NoteNumber":73,"Velocity":45,"Duration":109809,"SoundDuration":109809,"Delta":68783666},{"NoteNumber":71,"Velocity":47,"Duration":107203,"SoundDuration":107203,"Delta":69003286},{"NoteNumber":74,"Velocity":56,"Duration":107203,"SoundDuration":107203,"Delta":69003286},{"NoteNumber":52,"Velocity":47,"Duration":107203,"SoundDuration":107203,"Delta":69003286},{"NoteNumber":69,"Velocity":49,"Duration":108303,"SoundDuration":108303,"Delta":69217694},{"NoteNumber":73,"Velocity":58,"Duration":108303,"SoundDuration":108303,"Delta":69217694},{"NoteNumber":71,"Velocity":59,"Duration":116270,"SoundDuration":116270,"Delta":69434300},{"NoteNumber":68,"Velocity":50,"Duration":116270,"SoundDuration":116270,"Delta":69434300},{"NoteNumber":69,"Velocity":65,"Duration":617952,"SoundDuration":617952,"Delta":69666840},{"NoteNumber":57,"Velocity":60,"Duration":102389,"SoundDuration":102389,"Delta":69666840},{"NoteNumber":64,"Velocity":44,"Duration":102389,"SoundDuration":102389,"Delta":69769229},{"NoteNumber":61,"Velocity":44,"Duration":102389,"SoundDuration":102389,"Delta":69871618},{"NoteNumber":64,"Velocity":44,"Duration":102388,"SoundDuration":102388,"Delta":69974007},{"NoteNumber":61,"Velocity":44,"Duration":102389,"SoundDuration":102389,"Delta":70076396},{"NoteNumber":64,"Velocity":44,"Duration":106007,"SoundDuration":106007,"Delta":70178785},{"NoteNumber":85,"Velocity":65,"Duration":622238,"SoundDuration":622238,"Delta":70284792},{"NoteNumber":57,"Velocity":55,"Duration":102389,"SoundDuration":102389,"Delta":70284792},{"NoteNumber":64,"Velocity":48,"Duration":102389,"SoundDuration":102389,"Delta":70387181},{"NoteNumber":61,"Velocity":45,"Duration":102389,"SoundDuration":102389,"Delta":70489570},{"NoteNumber":64,"Velocity":43,"Duration":102388,"SoundDuration":102388,"Delta":70591959},{"NoteNumber":61,"Velocity":43,"Duration":102389,"SoundDuration":102389,"Delta":70694348},{"NoteNumber":64,"Velocity":43,"Duration":110293,"SoundDuration":110293,"Delta":70796737},{"NoteNumber":86,"Velocity":67,"Duration":102389,"SoundDuration":102389,"Delta":70907031},{"NoteNumber":59,"Velocity":60,"Duration":102389,"SoundDuration":102389,"Delta":70907031},{"NoteNumber":85,"Velocity":65,"Duration":102389,"SoundDuration":102389,"Delta":71009420},{"NoteNumber":64,"Velocity":44,"Duration":102389,"SoundDuration":102389,"Delta":71009420},{"NoteNumber":83,"Velocity":64,"Duration":102389,"SoundDuration":102389,"Delta":71111809},{"NoteNumber":62,"Velocity":44,"Duration":102389,"SoundDuration":102389,"Delta":71111809},{"NoteNumber":81,"Velocity":63,"Duration":102388,"SoundDuration":102388,"Delta":71214198},{"NoteNumber":64,"Velocity":44,"Duration":102388,"SoundDuration":102388,"Delta":71214198},{"NoteNumber":80,"Velocity":61,"Duration":102389,"SoundDuration":102389,"Delta":71316587},{"NoteNumber":62,"Velocity":44,"Duration":102389,"SoundDuration":102389,"Delta":71316587},{"NoteNumber":64,"Velocity":44,"Duration":106761,"SoundDuration":106761,"Delta":71418976},{"NoteNumber":83,"Velocity":65,"Duration":102389,"SoundDuration":102389,"Delta":71525738},{"NoteNumber":56,"Velocity":55,"Duration":102389,"SoundDuration":102389,"Delta":71525738},{"NoteNumber":81,"Velocity":64,"Duration":102389,"SoundDuration":102389,"Delta":71628127},{"NoteNumber":64,"Velocity":42,"Duration":102389,"SoundDuration":102389,"Delta":71628127},{"NoteNumber":80,"Velocity":62,"Duration":102389,"SoundDuration":102389,"Delta":71730516},{"NoteNumber":59,"Velocity":42,"Duration":102389,"SoundDuration":102389,"Delta":71730516},{"NoteNumber":78,"Velocity":61,"Duration":102388,"SoundDuration":102388,"Delta":71832905},{"NoteNumber":64,"Velocity":42,"Duration":102388,"SoundDuration":102388,"Delta":71832905},{"NoteNumber":76,"Velocity":60,"Duration":102389,"SoundDuration":102389,"Delta":71935294},{"NoteNumber":59,"Velocity":42,"Duration":102389,"SoundDuration":102389,"Delta":71935294},{"NoteNumber":74,"Velocity":58,"Duration":109091,"SoundDuration":109091,"Delta":72037683},{"NoteNumber":64,"Velocity":42,"Duration":109091,"SoundDuration":109091,"Delta":72037683},{"NoteNumber":73,"Velocity":61,"Duration":102389,"SoundDuration":102389,"Delta":72146774},{"NoteNumber":57,"Velocity":51,"Duration":102389,"SoundDuration":102389,"Delta":72146774},{"NoteNumber":64,"Velocity":39,"Duration":102389,"SoundDuration":102389,"Delta":72249163},{"NoteNumber":76,"Velocity":49,"Duration":103806,"SoundDuration":103806,"Delta":72351552},{"NoteNumber":61,"Velocity":39,"Duration":103806,"SoundDuration":103806,"Delta":72351552},{"NoteNumber":64,"Velocity":39,"Duration":103806,"SoundDuration":103806,"Delta":72455358},{"NoteNumber":81,"Velocity":52,"Duration":103806,"SoundDuration":103806,"Delta":72559164},{"NoteNumber":61,"Velocity":39,"Duration":103806,"SoundDuration":103806,"Delta":72559164},{"NoteNumber":64,"Velocity":39,"Duration":103806,"SoundDuration":103806,"Delta":72662971},{"NoteNumber":85,"Velocity":55,"Duration":103806,"SoundDuration":103806,"Delta":72766777},{"NoteNumber":57,"Velocity":50,"Duration":103806,"SoundDuration":103806,"Delta":72766777},{"NoteNumber":64,"Velocity":40,"Duration":103806,"SoundDuration":103806,"Delta":72870583},{"NoteNumber":88,"Velocity":58,"Duration":103806,"SoundDuration":103806,"Delta":72974389},{"NoteNumber":61,"Velocity":40,"Duration":103806,"SoundDuration":103806,"Delta":72974389},{"NoteNumber":64,"Velocity":40,"Duration":103806,"SoundDuration":103806,"Delta":73078196},{"NoteNumber":61,"Velocity":40,"Duration":103806,"SoundDuration":103806,"Delta":73182002},{"NoteNumber":64,"Velocity":40,"Duration":103806,"SoundDuration":103806,"Delta":73285808},{"NoteNumber":86,"Velocity":67,"Duration":102389,"SoundDuration":102389,"Delta":73389614},{"NoteNumber":59,"Velocity":60,"Duration":102389,"SoundDuration":102389,"Delta":73389614},{"NoteNumber":85,"Velocity":65,"Duration":102389,"SoundDuration":102389,"Delta":73492003},{"NoteNumber":64,"Velocity":44,"Duration":102389,"SoundDuration":102389,"Delta":73492003},{"NoteNumber":83,"Velocity":64,"Duration":102389,"SoundDuration":102389,"Delta":73594392},{"NoteNumber":62,"Velocity":44,"Duration":102389,"SoundDuration":102389,"Delta":73594392},{"NoteNumber":81,"Velocity":63,"Duration":102388,"SoundDuration":102388,"Delta":73696781},{"NoteNumber":64,"Velocity":44,"Duration":102388,"SoundDuration":102388,"Delta":73696781},{"NoteNumber":80,"Velocity":61,"Duration":102389,"SoundDuration":102389,"Delta":73799170},{"NoteNumber":62,"Velocity":44,"Duration":102389,"SoundDuration":102389,"Delta":73799170},{"NoteNumber":64,"Velocity":44,"Duration":106761,"SoundDuration":106761,"Delta":73901559},{"NoteNumber":83,"Velocity":65,"Duration":102389,"SoundDuration":102389,"Delta":74008321},{"NoteNumber":56,"Velocity":55,"Duration":102389,"SoundDuration":102389,"Delta":74008321},{"NoteNumber":81,"Velocity":64,"Duration":102389,"SoundDuration":102389,"Delta":74110710},{"NoteNumber":64,"Velocity":42,"Duration":102389,"SoundDuration":102389,"Delta":74110710},{"NoteNumber":80,"Velocity":62,"Duration":102389,"SoundDuration":102389,"Delta":74213099},{"NoteNumber":59,"Velocity":42,"Duration":102389,"SoundDuration":102389,"Delta":74213099},{"NoteNumber":78,"Velocity":61,"Duration":102388,"SoundDuration":102388,"Delta":74315488},{"NoteNumber":64,"Velocity":42,"Duration":102388,"SoundDuration":102388,"Delta":74315488},{"NoteNumber":76,"Velocity":60,"Duration":102389,"SoundDuration":102389,"Delta":74417877},{"NoteNumber":59,"Velocity":42,"Duration":102389,"SoundDuration":102389,"Delta":74417877},{"NoteNumber":74,"Velocity":58,"Duration":109091,"SoundDuration":109091,"Delta":74520266},{"NoteNumber":64,"Velocity":42,"Duration":109091,"SoundDuration":109091,"Delta":74520266},{"NoteNumber":73,"Velocity":61,"Duration":102389,"SoundDuration":102389,"Delta":74629357},{"NoteNumber":57,"Velocity":51,"Duration":102389,"SoundDuration":102389,"Delta":74629357},{"NoteNumber":64,"Velocity":39,"Duration":102389,"SoundDuration":102389,"Delta":74731746},{"NoteNumber":76,"Velocity":49,"Duration":103806,"SoundDuration":103806,"Delta":74834135},{"NoteNumber":61,"Velocity":39,"Duration":103806,"SoundDuration":103806,"Delta":74834135},{"NoteNumber":64,"Velocity":39,"Duration":103806,"SoundDuration":103806,"Delta":74937941},{"NoteNumber":81,"Velocity":52,"Duration":103806,"SoundDuration":103806,"Delta":75041747},{"NoteNumber":61,"Velocity":39,"Duration":103806,"SoundDuration":103806,"Delta":75041747},{"NoteNumber":64,"Velocity":39,"Duration":103806,"SoundDuration":103806,"Delta":75145554},{"NoteNumber":85,"Velocity":55,"Duration":103806,"SoundDuration":103806,"Delta":75249360},{"NoteNumber":57,"Velocity":50,"Duration":103806,"SoundDuration":103806,"Delta":75249360},{"NoteNumber":64,"Velocity":40,"Duration":103806,"SoundDuration":103806,"Delta":75353166},{"NoteNumber":88,"Velocity":58,"Duration":103806,"SoundDuration":103806,"Delta":75456972},{"NoteNumber":61,"Velocity":40,"Duration":103806,"SoundDuration":103806,"Delta":75456972},{"NoteNumber":64,"Velocity":40,"Duration":103806,"SoundDuration":103806,"Delta":75560779},{"NoteNumber":61,"Velocity":40,"Duration":103806,"SoundDuration":103806,"Delta":75664585},{"NoteNumber":64,"Velocity":40,"Duration":103806,"SoundDuration":103806,"Delta":75768391},{"NoteNumber":62,"Velocity":45,"Duration":107913,"SoundDuration":107913,"Delta":75872197},{"NoteNumber":77,"Velocity":45,"Duration":209789,"SoundDuration":209789,"Delta":76088025},{"NoteNumber":78,"Velocity":45,"Duration":209789,"SoundDuration":209789,"Delta":76297815},{"NoteNumber":62,"Velocity":34,"Duration":107913,"SoundDuration":107913,"Delta":76507605},{"NoteNumber":69,"Velocity":40,"Duration":107913,"SoundDuration":107913,"Delta":76507605},{"NoteNumber":81,"Velocity":45,"Duration":209058,"SoundDuration":209058,"Delta":76723432},{"NoteNumber":78,"Velocity":45,"Duration":209059,"SoundDuration":209059,"Delta":76932491},{"NoteNumber":69,"Velocity":40,"Duration":107527,"SoundDuration":107527,"Delta":77141550},{"NoteNumber":61,"Velocity":34,"Duration":107527,"SoundDuration":107527,"Delta":77141550},{"NoteNumber":75,"Velocity":45,"Duration":209789,"SoundDuration":209789,"Delta":77356604},{"NoteNumber":76,"Velocity":45,"Duration":209789,"SoundDuration":209789,"Delta":77566394},{"NoteNumber":69,"Velocity":40,"Duration":107913,"SoundDuration":107913,"Delta":77776184},{"NoteNumber":62,"Velocity":34,"Duration":107913,"SoundDuration":107913,"Delta":77776184},{"NoteNumber":78,"Velocity":45,"Duration":209789,"SoundDuration":209789,"Delta":77992012},{"NoteNumber":74,"Velocity":45,"Duration":209789,"SoundDuration":209789,"Delta":78201802},{"NoteNumber":69,"Velocity":40,"Duration":107527,"SoundDuration":107527,"Delta":78411592},{"NoteNumber":64,"Velocity":34,"Duration":107527,"SoundDuration":107527,"Delta":78411592},{"NoteNumber":72,"Velocity":45,"Duration":210526,"SoundDuration":210526,"Delta":78626646},{"NoteNumber":73,"Velocity":45,"Duration":210526,"SoundDuration":210526,"Delta":78837172},{"NoteNumber":68,"Velocity":40,"Duration":108303,"SoundDuration":108303,"Delta":79047699},{"NoteNumber":64,"Velocity":34,"Duration":108303,"SoundDuration":108303,"Delta":79047699},{"NoteNumber":74,"Velocity":45,"Duration":211267,"SoundDuration":211267,"Delta":79264305},{"NoteNumber":71,"Velocity":45,"Duration":211267,"SoundDuration":211267,"Delta":79475573},{"NoteNumber":69,"Velocity":65,"Duration":617952,"SoundDuration":617952,"Delta":79686840},{"NoteNumber":57,"Velocity":60,"Duration":102389,"SoundDuration":102389,"Delta":79686840},{"NoteNumber":64,"Velocity":44,"Duration":102389,"SoundDuration":102389,"Delta":79789229},{"NoteNumber":61,"Velocity":44,"Duration":102389,"SoundDuration":102389,"Delta":79891618},{"NoteNumber":64,"Velocity":44,"Duration":102388,"SoundDuration":102388,"Delta":79994007},{"NoteNumber":61,"Velocity":44,"Duration":102389,"SoundDuration":102389,"Delta":80096396},{"NoteNumber":64,"Velocity":44,"Duration":106007,"SoundDuration":106007,"Delta":80198785},{"NoteNumber":85,"Velocity":65,"Duration":622238,"SoundDuration":622238,"Delta":80304792},{"NoteNumber":57,"Velocity":55,"Duration":102389,"SoundDuration":102389,"Delta":80304792},{"NoteNumber":64,"Velocity":48,"Duration":102389,"SoundDuration":102389,"Delta":80407181},{"NoteNumber":61,"Velocity":45,"Duration":102389,"SoundDuration":102389,"Delta":80509570},{"NoteNumber":64,"Velocity":43,"Duration":102388,"SoundDuration":102388,"Delta":80611959},{"NoteNumber":61,"Velocity":43,"Duration":102389,"SoundDuration":102389,"Delta":80714348},{"NoteNumber":64,"Velocity":43,"Duration":110293,"SoundDuration":110293,"Delta":80816737},{"NoteNumber":86,"Velocity":67,"Duration":102389,"SoundDuration":102389,"Delta":80927031},{"NoteNumber":59,"Velocity":60,"Duration":102389,"SoundDuration":102389,"Delta":80927031},{"NoteNumber":85,"Velocity":65,"Duration":102389,"SoundDuration":102389,"Delta":81029420},{"NoteNumber":64,"Velocity":44,"Duration":102389,"SoundDuration":102389,"Delta":81029420},{"NoteNumber":83,"Velocity":64,"Duration":102389,"SoundDuration":102389,"Delta":81131809},{"NoteNumber":62,"Velocity":44,"Duration":102389,"SoundDuration":102389,"Delta":81131809},{"NoteNumber":81,"Velocity":63,"Duration":102388,"SoundDuration":102388,"Delta":81234198},{"NoteNumber":64,"Velocity":44,"Duration":102388,"SoundDuration":102388,"Delta":81234198},{"NoteNumber":80,"Velocity":61,"Duration":102389,"SoundDuration":102389,"Delta":81336587},{"NoteNumber":62,"Velocity":44,"Duration":102389,"SoundDuration":102389,"Delta":81336587},{"NoteNumber":64,"Velocity":44,"Duration":106761,"SoundDuration":106761,"Delta":81438976},{"NoteNumber":83,"Velocity":65,"Duration":102389,"SoundDuration":102389,"Delta":81545738},{"NoteNumber":56,"Velocity":55,"Duration":102389,"SoundDuration":102389,"Delta":81545738},{"NoteNumber":81,"Velocity":64,"Duration":102389,"SoundDuration":102389,"Delta":81648127},{"NoteNumber":64,"Velocity":42,"Duration":102389,"SoundDuration":102389,"Delta":81648127},{"NoteNumber":80,"Velocity":62,"Duration":102389,"SoundDuration":102389,"Delta":81750516},{"NoteNumber":59,"Velocity":42,"Duration":102389,"SoundDuration":102389,"Delta":81750516},{"NoteNumber":78,"Velocity":61,"Duration":102388,"SoundDuration":102388,"Delta":81852905},{"NoteNumber":64,"Velocity":42,"Duration":102388,"SoundDuration":102388,"Delta":81852905},{"NoteNumber":76,"Velocity":60,"Duration":102389,"SoundDuration":102389,"Delta":81955294},{"NoteNumber":59,"Velocity":42,"Duration":102389,"SoundDuration":102389,"Delta":81955294},{"NoteNumber":74,"Velocity":58,"Duration":109091,"SoundDuration":109091,"Delta":82057683},{"NoteNumber":64,"Velocity":42,"Duration":109091,"SoundDuration":109091,"Delta":82057683},{"NoteNumber":73,"Velocity":61,"Duration":102389,"SoundDuration":102389,"Delta":82166774},{"NoteNumber":57,"Velocity":51,"Duration":102389,"SoundDuration":102389,"Delta":82166774},{"NoteNumber":64,"Velocity":39,"Duration":102389,"SoundDuration":102389,"Delta":82269163},{"NoteNumber":76,"Velocity":49,"Duration":103806,"SoundDuration":103806,"Delta":82371552},{"NoteNumber":61,"Velocity":39,"Duration":103806,"SoundDuration":103806,"Delta":82371552},{"NoteNumber":64,"Velocity":39,"Duration":103806,"SoundDuration":103806,"Delta":82475358},{"NoteNumber":81,"Velocity":52,"Duration":103806,"SoundDuration":103806,"Delta":82579164},{"NoteNumber":61,"Velocity":39,"Duration":103806,"SoundDuration":103806,"Delta":82579164},{"NoteNumber":64,"Velocity":39,"Duration":103806,"SoundDuration":103806,"Delta":82682971},{"NoteNumber":85,"Velocity":55,"Duration":103806,"SoundDuration":103806,"Delta":82786777},{"NoteNumber":57,"Velocity":50,"Duration":103806,"SoundDuration":103806,"Delta":82786777},{"NoteNumber":64,"Velocity":40,"Duration":103806,"SoundDuration":103806,"Delta":82890583},{"NoteNumber":88,"Velocity":58,"Duration":103806,"SoundDuration":103806,"Delta":82994389},{"NoteNumber":61,"Velocity":40,"Duration":103806,"SoundDuration":103806,"Delta":82994389},{"NoteNumber":64,"Velocity":40,"Duration":103806,"SoundDuration":103806,"Delta":83098196},{"NoteNumber":61,"Velocity":40,"Duration":103806,"SoundDuration":103806,"Delta":83202002},{"NoteNumber":64,"Velocity":40,"Duration":103806,"SoundDuration":103806,"Delta":83305808},{"NoteNumber":86,"Velocity":67,"Duration":102389,"SoundDuration":102389,"Delta":83409614},{"NoteNumber":59,"Velocity":60,"Duration":102389,"SoundDuration":102389,"Delta":83409614},{"NoteNumber":85,"Velocity":65,"Duration":102389,"SoundDuration":102389,"Delta":83512003},{"NoteNumber":64,"Velocity":44,"Duration":102389,"SoundDuration":102389,"Delta":83512003},{"NoteNumber":83,"Velocity":64,"Duration":102389,"SoundDuration":102389,"Delta":83614392},{"NoteNumber":62,"Velocity":44,"Duration":102389,"SoundDuration":102389,"Delta":83614392},{"NoteNumber":81,"Velocity":63,"Duration":102388,"SoundDuration":102388,"Delta":83716781},{"NoteNumber":64,"Velocity":44,"Duration":102388,"SoundDuration":102388,"Delta":83716781},{"NoteNumber":80,"Velocity":61,"Duration":102389,"SoundDuration":102389,"Delta":83819170},{"NoteNumber":62,"Velocity":44,"Duration":102389,"SoundDuration":102389,"Delta":83819170},{"NoteNumber":64,"Velocity":44,"Duration":106761,"SoundDuration":106761,"Delta":83921559},{"NoteNumber":83,"Velocity":65,"Duration":102389,"SoundDuration":102389,"Delta":84028321},{"NoteNumber":56,"Velocity":55,"Duration":102389,"SoundDuration":102389,"Delta":84028321},{"NoteNumber":81,"Velocity":64,"Duration":102389,"SoundDuration":102389,"Delta":84130710},{"NoteNumber":64,"Velocity":42,"Duration":102389,"SoundDuration":102389,"Delta":84130710},{"NoteNumber":80,"Velocity":62,"Duration":102389,"SoundDuration":102389,"Delta":84233099},{"NoteNumber":59,"Velocity":42,"Duration":102389,"SoundDuration":102389,"Delta":84233099},{"NoteNumber":78,"Velocity":61,"Duration":102388,"SoundDuration":102388,"Delta":84335488},{"NoteNumber":64,"Velocity":42,"Duration":102388,"SoundDuration":102388,"Delta":84335488},{"NoteNumber":76,"Velocity":60,"Duration":102389,"SoundDuration":102389,"Delta":84437877},{"NoteNumber":59,"Velocity":42,"Duration":102389,"SoundDuration":102389,"Delta":84437877},{"NoteNumber":74,"Velocity":58,"Duration":109091,"SoundDuration":109091,"Delta":84540266},{"NoteNumber":64,"Velocity":42,"Duration":109091,"SoundDuration":109091,"Delta":84540266},{"NoteNumber":73,"Velocity":61,"Duration":102389,"SoundDuration":102389,"Delta":84649357},{"NoteNumber":57,"Velocity":51,"Duration":102389,"SoundDuration":102389,"Delta":84649357},{"NoteNumber":64,"Velocity":39,"Duration":102389,"SoundDuration":102389,"Delta":84751746},{"NoteNumber":76,"Velocity":49,"Duration":103806,"SoundDuration":103806,"Delta":84854135},{"NoteNumber":61,"Velocity":39,"Duration":103806,"SoundDuration":103806,"Delta":84854135},{"NoteNumber":64,"Velocity":39,"Duration":103806,"SoundDuration":103806,"Delta":84957941},{"NoteNumber":81,"Velocity":52,"Duration":103806,"SoundDuration":103806,"Delta":85061747},{"NoteNumber":61,"Velocity":39,"Duration":103806,"SoundDuration":103806,"Delta":85061747},{"NoteNumber":64,"Velocity":39,"Duration":103806,"SoundDuration":103806,"Delta":85165554},{"NoteNumber":85,"Velocity":55,"Duration":103806,"SoundDuration":103806,"Delta":85269360},{"NoteNumber":57,"Velocity":50,"Duration":103806,"SoundDuration":103806,"Delta":85269360},{"NoteNumber":64,"Velocity":40,"Duration":103806,"SoundDuration":103806,"Delta":85373166},{"NoteNumber":88,"Velocity":58,"Duration":103806,"SoundDuration":103806,"Delta":85476972},{"NoteNumber":61,"Velocity":40,"Duration":103806,"SoundDuration":103806,"Delta":85476972},{"NoteNumber":64,"Velocity":40,"Duration":103806,"SoundDuration":103806,"Delta":85580779},{"NoteNumber":61,"Velocity":40,"Duration":103806,"SoundDuration":103806,"Delta":85684585},{"NoteNumber":64,"Velocity":40,"Duration":103806,"SoundDuration":103806,"Delta":85788391},{"NoteNumber":62,"Velocity":45,"Duration":108303,"SoundDuration":108303,"Delta":85892197},{"NoteNumber":77,"Velocity":45,"Duration":210526,"SoundDuration":210526,"Delta":86108804},{"NoteNumber":78,"Velocity":43,"Duration":210526,"SoundDuration":210526,"Delta":86319330},{"NoteNumber":62,"Velocity":34,"Duration":107913,"SoundDuration":107913,"Delta":86529857},{"NoteNumber":69,"Velocity":40,"Duration":107913,"SoundDuration":107913,"Delta":86529857},{"NoteNumber":81,"Velocity":45,"Duration":209789,"SoundDuration":209789,"Delta":86745684},{"NoteNumber":78,"Velocity":41,"Duration":209789,"SoundDuration":209789,"Delta":86955474},{"NoteNumber":61,"Velocity":34,"Duration":107913,"SoundDuration":107913,"Delta":87165264},{"NoteNumber":69,"Velocity":40,"Duration":107913,"SoundDuration":107913,"Delta":87165264},{"NoteNumber":75,"Velocity":45,"Duration":209058,"SoundDuration":209058,"Delta":87381092},{"NoteNumber":76,"Velocity":44,"Duration":209059,"SoundDuration":209059,"Delta":87590151},{"NoteNumber":69,"Velocity":40,"Duration":107913,"SoundDuration":107913,"Delta":87799210},{"NoteNumber":62,"Velocity":34,"Duration":107913,"SoundDuration":107913,"Delta":87799210},{"NoteNumber":78,"Velocity":45,"Duration":209789,"SoundDuration":209789,"Delta":88015037},{"NoteNumber":74,"Velocity":43,"Duration":209789,"SoundDuration":209789,"Delta":88224827},{"NoteNumber":69,"Velocity":40,"Duration":108303,"SoundDuration":108303,"Delta":88434617},{"NoteNumber":64,"Velocity":34,"Duration":108303,"SoundDuration":108303,"Delta":88434617},{"NoteNumber":72,"Velocity":45,"Duration":209789,"SoundDuration":209789,"Delta":88651224},{"NoteNumber":73,"Velocity":43,"Duration":209789,"SoundDuration":209789,"Delta":88861014},{"NoteNumber":68,"Velocity":40,"Duration":108303,"SoundDuration":108303,"Delta":89070804},{"NoteNumber":64,"Velocity":34,"Duration":108303,"SoundDuration":108303,"Delta":89070804},{"NoteNumber":74,"Velocity":45,"Duration":210526,"SoundDuration":210526,"Delta":89287410},{"NoteNumber":71,"Velocity":43,"Duration":210526,"SoundDuration":210526,"Delta":89497937},{"NoteNumber":50,"Velocity":55,"Duration":107527,"SoundDuration":107527,"Delta":89708463},{"NoteNumber":57,"Velocity":63,"Duration":107527,"SoundDuration":107527,"Delta":89708463},{"NoteNumber":77,"Velocity":69,"Duration":104166,"SoundDuration":104166,"Delta":89923517},{"NoteNumber":65,"Velocity":58,"Duration":104166,"SoundDuration":104166,"Delta":89923517},{"NoteNumber":66,"Velocity":56,"Duration":104166,"SoundDuration":104166,"Delta":90131851},{"NoteNumber":78,"Velocity":67,"Duration":104166,"SoundDuration":104166,"Delta":90131851},{"NoteNumber":57,"Velocity":57,"Duration":107142,"SoundDuration":107142,"Delta":90340184},{"NoteNumber":50,"Velocity":48,"Duration":107142,"SoundDuration":107142,"Delta":90340184},{"NoteNumber":81,"Velocity":69,"Duration":103448,"SoundDuration":103448,"Delta":90554470},{"NoteNumber":69,"Velocity":58,"Duration":103448,"SoundDuration":103448,"Delta":90554470},{"NoteNumber":66,"Velocity":56,"Duration":103448,"SoundDuration":103448,"Delta":90761366},{"NoteNumber":78,"Velocity":67,"Duration":103448,"SoundDuration":103448,"Delta":90761366},{"NoteNumber":49,"Velocity":48,"Duration":106761,"SoundDuration":106761,"Delta":90968263},{"NoteNumber":57,"Velocity":57,"Duration":106761,"SoundDuration":106761,"Delta":90968263},{"NoteNumber":75,"Velocity":69,"Duration":104166,"SoundDuration":104166,"Delta":91181786},{"NoteNumber":63,"Velocity":58,"Duration":104166,"SoundDuration":104166,"Delta":91181786},{"NoteNumber":64,"Velocity":56,"Duration":104166,"SoundDuration":104166,"Delta":91390119},{"NoteNumber":76,"Velocity":67,"Duration":104166,"SoundDuration":104166,"Delta":91390119},{"NoteNumber":50,"Velocity":48,"Duration":106761,"SoundDuration":106761,"Delta":91598453},{"NoteNumber":57,"Velocity":57,"Duration":106761,"SoundDuration":106761,"Delta":91598453},{"NoteNumber":66,"Velocity":58,"Duration":104166,"SoundDuration":104166,"Delta":91811976},{"NoteNumber":78,"Velocity":69,"Duration":104166,"SoundDuration":104166,"Delta":91811976},{"NoteNumber":62,"Velocity":56,"Duration":104166,"SoundDuration":104166,"Delta":92020309},{"NoteNumber":74,"Velocity":67,"Duration":104166,"SoundDuration":104166,"Delta":92020309},{"NoteNumber":57,"Velocity":57,"Duration":106382,"SoundDuration":106382,"Delta":92228643},{"NoteNumber":52,"Velocity":48,"Duration":106382,"SoundDuration":106382,"Delta":92228643},{"NoteNumber":72,"Velocity":69,"Duration":103448,"SoundDuration":103448,"Delta":92441409},{"NoteNumber":60,"Velocity":58,"Duration":103448,"SoundDuration":103448,"Delta":92441409},{"NoteNumber":73,"Velocity":67,"Duration":103448,"SoundDuration":103448,"Delta":92648305},{"NoteNumber":61,"Velocity":56,"Duration":103448,"SoundDuration":103448,"Delta":92648305},{"NoteNumber":52,"Velocity":48,"Duration":105633,"SoundDuration":105633,"Delta":92855202},{"NoteNumber":56,"Velocity":57,"Duration":105633,"SoundDuration":105633,"Delta":92855202},{"NoteNumber":62,"Velocity":58,"Duration":103806,"SoundDuration":103806,"Delta":93066469},{"NoteNumber":74,"Velocity":69,"Duration":103806,"SoundDuration":103806,"Delta":93066469},{"NoteNumber":71,"Velocity":67,"Duration":103806,"SoundDuration":103806,"Delta":93274082},{"NoteNumber":59,"Velocity":56,"Duration":103806,"SoundDuration":103806,"Delta":93274082},{"NoteNumber":69,"Velocity":72,"Duration":204778,"SoundDuration":204778,"Delta":93481694},{"NoteNumber":61,"Velocity":72,"Duration":204778,"SoundDuration":204778,"Delta":93481694},{"NoteNumber":45,"Velocity":67,"Duration":102389,"SoundDuration":102389,"Delta":93481694},{"NoteNumber":57,"Velocity":44,"Duration":102389,"SoundDuration":102389,"Delta":93584083},{"NoteNumber":56,"Velocity":48,"Duration":102389,"SoundDuration":102389,"Delta":93686472},{"NoteNumber":57,"Velocity":44,"Duration":102388,"SoundDuration":102388,"Delta":93788861},{"NoteNumber":56,"Velocity":48,"Duration":102389,"SoundDuration":102389,"Delta":93891250},{"NoteNumber":57,"Velocity":44,"Duration":106007,"SoundDuration":106007,"Delta":93993639},{"NoteNumber":73,"Velocity":62,"Duration":622238,"SoundDuration":622238,"Delta":94099646},{"NoteNumber":81,"Velocity":73,"Duration":622238,"SoundDuration":622238,"Delta":94099646},{"NoteNumber":42,"Velocity":62,"Duration":102389,"SoundDuration":102389,"Delta":94099646},{"NoteNumber":54,"Velocity":43,"Duration":102389,"SoundDuration":102389,"Delta":94202035},{"NoteNumber":53,"Velocity":47,"Duration":102389,"SoundDuration":102389,"Delta":94304424},{"NoteNumber":54,"Velocity":43,"Duration":102388,"SoundDuration":102388,"Delta":94406813},{"NoteNumber":53,"Velocity":47,"Duration":102389,"SoundDuration":102389,"Delta":94509202},{"NoteNumber":54,"Velocity":43,"Duration":110293,"SoundDuration":110293,"Delta":94611591},{"NoteNumber":74,"Velocity":63,"Duration":409555,"SoundDuration":409555,"Delta":94721885},{"NoteNumber":83,"Velocity":75,"Duration":409555,"SoundDuration":409555,"Delta":94721885},{"NoteNumber":38,"Velocity":67,"Duration":102389,"SoundDuration":102389,"Delta":94721885},{"NoteNumber":50,"Velocity":46,"Duration":102389,"SoundDuration":102389,"Delta":94824274},{"NoteNumber":49,"Velocity":50,"Duration":102389,"SoundDuration":102389,"Delta":94926663},{"NoteNumber":50,"Velocity":46,"Duration":102388,"SoundDuration":102388,"Delta":95029052},{"NoteNumber":78,"Velocity":60,"Duration":155020,"SoundDuration":155020,"Delta":95131441},{"NoteNumber":86,"Velocity":71,"Duration":155020,"SoundDuration":155020,"Delta":95131441},{"NoteNumber":49,"Velocity":51,"Duration":102389,"SoundDuration":102389,"Delta":95131441},{"NoteNumber":50,"Velocity":46,"Duration":105263,"SoundDuration":105263,"Delta":95233830},{"NoteNumber":71,"Velocity":65,"Duration":52631,"SoundDuration":52631,"Delta":95286462},{"NoteNumber":81,"Velocity":76,"Duration":410959,"SoundDuration":410959,"Delta":95339094},{"NoteNumber":40,"Velocity":55,"Duration":102739,"SoundDuration":102739,"Delta":95339094},{"NoteNumber":52,"Velocity":46,"Duration":102739,"SoundDuration":102739,"Delta":95441833},{"NoteNumber":51,"Velocity":49,"Duration":102739,"SoundDuration":102739,"Delta":95544573},{"NoteNumber":52,"Velocity":46,"Duration":102739,"SoundDuration":102739,"Delta":95647313},{"NoteNumber":80,"Velocity":69,"Duration":34722,"SoundDuration":34722,"Delta":95750053},{"NoteNumber":51,"Velocity":50,"Duration":104166,"SoundDuration":104166,"Delta":95750053},{"NoteNumber":81,"Velocity":62,"Duration":34722,"SoundDuration":34722,"Delta":95784775},{"NoteNumber":80,"Velocity":63,"Duration":34722,"SoundDuration":34722,"Delta":95819497},{"NoteNumber":78,"Velocity":70,"Duration":52083,"SoundDuration":52083,"Delta":95854219},{"NoteNumber":52,"Velocity":46,"Duration":104166,"SoundDuration":104166,"Delta":95854219},{"NoteNumber":80,"Velocity":64,"Duration":52083,"SoundDuration":52083,"Delta":95906303},{"NoteNumber":81,"Velocity":72,"Duration":204778,"SoundDuration":204778,"Delta":95958386},{"NoteNumber":45,"Velocity":67,"Duration":102389,"SoundDuration":102389,"Delta":95958386},{"NoteNumber":57,"Velocity":44,"Duration":102389,"SoundDuration":102389,"Delta":96060775},{"NoteNumber":56,"Velocity":48,"Duration":102389,"SoundDuration":102389,"Delta":96163164},{"NoteNumber":57,"Velocity":44,"Duration":102388,"SoundDuration":102388,"Delta":96265553},{"NoteNumber":56,"Velocity":48,"Duration":102389,"SoundDuration":102389,"Delta":96367942},{"NoteNumber":57,"Velocity":44,"Duration":106007,"SoundDuration":106007,"Delta":96470331},{"NoteNumber":73,"Velocity":62,"Duration":102389,"SoundDuration":102389,"Delta":96576338},{"NoteNumber":81,"Velocity":73,"Duration":102389,"SoundDuration":102389,"Delta":96576338},{"NoteNumber":42,"Velocity":62,"Duration":102389,"SoundDuration":102389,"Delta":96576338},{"NoteNumber":54,"Velocity":43,"Duration":102389,"SoundDuration":102389,"Delta":96678727},{"NoteNumber":73,"Velocity":62,"Duration":102389,"SoundDuration":102389,"Delta":96781116},{"NoteNumber":81,"Velocity":73,"Duration":102389,"SoundDuration":102389,"Delta":96781116},{"NoteNumber":53,"Velocity":47,"Duration":102389,"SoundDuration":102389,"Delta":96781116},{"NoteNumber":54,"Velocity":43,"Duration":102388,"SoundDuration":102388,"Delta":96883505},{"NoteNumber":73,"Velocity":62,"Duration":102389,"SoundDuration":102389,"Delta":96985894},{"NoteNumber":81,"Velocity":73,"Duration":102389,"SoundDuration":102389,"Delta":96985894},{"NoteNumber":53,"Velocity":47,"Duration":102389,"SoundDuration":102389,"Delta":96985894},{"NoteNumber":54,"Velocity":43,"Duration":110293,"SoundDuration":110293,"Delta":97088283},{"NoteNumber":74,"Velocity":63,"Duration":409555,"SoundDuration":409555,"Delta":97198577},{"NoteNumber":83,"Velocity":75,"Duration":409555,"SoundDuration":409555,"Delta":97198577},{"NoteNumber":38,"Velocity":67,"Duration":102389,"SoundDuration":102389,"Delta":97198577},{"NoteNumber":50,"Velocity":46,"Duration":102389,"SoundDuration":102389,"Delta":97300966},{"NoteNumber":49,"Velocity":50,"Duration":102389,"SoundDuration":102389,"Delta":97403355},{"NoteNumber":50,"Velocity":46,"Duration":102388,"SoundDuration":102388,"Delta":97505744},{"NoteNumber":78,"Velocity":60,"Duration":155020,"SoundDuration":155020,"Delta":97608133},{"NoteNumber":86,"Velocity":71,"Duration":155020,"SoundDuration":155020,"Delta":97608133},{"NoteNumber":49,"Velocity":51,"Duration":102389,"SoundDuration":102389,"Delta":97608133},{"NoteNumber":50,"Velocity":46,"Duration":105263,"SoundDuration":105263,"Delta":97710522},{"NoteNumber":71,"Velocity":65,"Duration":52631,"SoundDuration":52631,"Delta":97763154},{"NoteNumber":81,"Velocity":76,"Duration":410959,"SoundDuration":410959,"Delta":97815785},{"NoteNumber":40,"Velocity":55,"Duration":102739,"SoundDuration":102739,"Delta":97815785},{"NoteNumber":52,"Velocity":46,"Duration":102739,"SoundDuration":102739,"Delta":97918525},{"NoteNumber":51,"Velocity":49,"Duration":102739,"SoundDuration":102739,"Delta":98021265},{"NoteNumber":52,"Velocity":46,"Duration":102739,"SoundDuration":102739,"Delta":98124005},{"NoteNumber":80,"Velocity":69,"Duration":34722,"SoundDuration":34722,"Delta":98226744},{"NoteNumber":51,"Velocity":50,"Duration":104166,"SoundDuration":104166,"Delta":98226744},{"NoteNumber":81,"Velocity":62,"Duration":34722,"SoundDuration":34722,"Delta":98261467},{"NoteNumber":80,"Velocity":63,"Duration":34722,"SoundDuration":34722,"Delta":98296189},{"NoteNumber":78,"Velocity":70,"Duration":52083,"SoundDuration":52083,"Delta":98330911},{"NoteNumber":52,"Velocity":46,"Duration":104166,"SoundDuration":104166,"Delta":98330911},{"NoteNumber":80,"Velocity":64,"Duration":52083,"SoundDuration":52083,"Delta":98382995},{"NoteNumber":81,"Velocity":72,"Duration":102389,"SoundDuration":102389,"Delta":98435078},{"NoteNumber":45,"Velocity":67,"Duration":102389,"SoundDuration":102389,"Delta":98435078},{"NoteNumber":73,"Velocity":45,"Duration":204777,"SoundDuration":204777,"Delta":98639856},{"NoteNumber":74,"Velocity":39,"Duration":204778,"SoundDuration":204778,"Delta":98844634},{"NoteNumber":76,"Velocity":45,"Duration":204778,"SoundDuration":204778,"Delta":99049412},{"NoteNumber":78,"Velocity":41,"Duration":204777,"SoundDuration":204777,"Delta":99254190},{"NoteNumber":80,"Velocity":42,"Duration":209789,"SoundDuration":209789,"Delta":99458968},{"NoteNumber":62,"Velocity":38,"Duration":209789,"SoundDuration":209789,"Delta":99458968},{"NoteNumber":59,"Velocity":32,"Duration":209789,"SoundDuration":209789,"Delta":99458968},{"NoteNumber":52,"Velocity":32,"Duration":209789,"SoundDuration":209789,"Delta":99458968},{"NoteNumber":81,"Velocity":47,"Duration":204778,"SoundDuration":204778,"Delta":99668758},{"NoteNumber":57,"Velocity":32,"Duration":102389,"SoundDuration":102389,"Delta":99668758},{"NoteNumber":61,"Velocity":38,"Duration":102389,"SoundDuration":102389,"Delta":99668758},{"NoteNumber":73,"Velocity":40,"Duration":204777,"SoundDuration":204777,"Delta":99873536},{"NoteNumber":74,"Velocity":37,"Duration":204778,"SoundDuration":204778,"Delta":100078314},{"NoteNumber":76,"Velocity":45,"Duration":204778,"SoundDuration":204778,"Delta":100283092},{"NoteNumber":78,"Velocity":42,"Duration":204777,"SoundDuration":204777,"Delta":100487870},{"NoteNumber":80,"Velocity":44,"Duration":209789,"SoundDuration":209789,"Delta":100692648},{"NoteNumber":62,"Velocity":38,"Duration":209789,"SoundDuration":209789,"Delta":100692648},{"NoteNumber":52,"Velocity":32,"Duration":209789,"SoundDuration":209789,"Delta":100692648},{"NoteNumber":59,"Velocity":32,"Duration":209789,"SoundDuration":209789,"Delta":100692648},{"NoteNumber":81,"Velocity":45,"Duration":204778,"SoundDuration":204778,"Delta":100902438},{"NoteNumber":57,"Velocity":32,"Duration":102389,"SoundDuration":102389,"Delta":100902438},{"NoteNumber":61,"Velocity":38,"Duration":102389,"SoundDuration":102389,"Delta":100902438},{"NoteNumber":49,"Velocity":39,"Duration":204777,"SoundDuration":204777,"Delta":101107216},{"NoteNumber":50,"Velocity":40,"Duration":204778,"SoundDuration":204778,"Delta":101311994},{"NoteNumber":52,"Velocity":42,"Duration":204778,"SoundDuration":204778,"Delta":101516772},{"NoteNumber":54,"Velocity":39,"Duration":204777,"SoundDuration":204777,"Delta":101721550},{"NoteNumber":71,"Velocity":38,"Duration":209789,"SoundDuration":209789,"Delta":101926328},{"NoteNumber":64,"Velocity":38,"Duration":209789,"SoundDuration":209789,"Delta":101926328},{"NoteNumber":74,"Velocity":45,"Duration":209789,"SoundDuration":209789,"Delta":101926328},{"NoteNumber":56,"Velocity":43,"Duration":209789,"SoundDuration":209789,"Delta":101926328},{"NoteNumber":73,"Velocity":45,"Duration":102389,"SoundDuration":102389,"Delta":102136118},{"NoteNumber":64,"Velocity":38,"Duration":102389,"SoundDuration":102389,"Delta":102136118},{"NoteNumber":69,"Velocity":38,"Duration":102389,"SoundDuration":102389,"Delta":102136118},{"NoteNumber":57,"Velocity":46,"Duration":204778,"SoundDuration":204778,"Delta":102136118},{"NoteNumber":49,"Velocity":41,"Duration":204777,"SoundDuration":204777,"Delta":102340896},{"NoteNumber":50,"Velocity":41,"Duration":204778,"SoundDuration":204778,"Delta":102545674},{"NoteNumber":52,"Velocity":45,"Duration":204778,"SoundDuration":204778,"Delta":102750452},{"NoteNumber":54,"Velocity":41,"Duration":204777,"SoundDuration":204777,"Delta":102955230},{"NoteNumber":74,"Velocity":45,"Duration":104894,"SoundDuration":104894,"Delta":103160008},{"NoteNumber":71,"Velocity":38,"Duration":104894,"SoundDuration":104894,"Delta":103160008},{"NoteNumber":64,"Velocity":38,"Duration":104894,"SoundDuration":104894,"Delta":103160008},{"NoteNumber":56,"Velocity":45,"Duration":209789,"SoundDuration":209789,"Delta":103160008},{"NoteNumber":57,"Velocity":40,"Duration":104894,"SoundDuration":104894,"Delta":103369798},{"NoteNumber":72,"Velocity":43,"Duration":206896,"SoundDuration":206896,"Delta":103579588},{"NoteNumber":73,"Velocity":40,"Duration":206896,"SoundDuration":206896,"Delta":103786484},{"NoteNumber":57,"Velocity":35,"Duration":105263,"SoundDuration":105263,"Delta":103993381},{"NoteNumber":59,"Velocity":41,"Duration":105263,"SoundDuration":105263,"Delta":103993381},{"NoteNumber":73,"Velocity":46,"Duration":206896,"SoundDuration":206896,"Delta":104203907},{"NoteNumber":74,"Velocity":45,"Duration":206896,"SoundDuration":206896,"Delta":104410804},{"NoteNumber":57,"Velocity":41,"Duration":106007,"SoundDuration":106007,"Delta":104617700},{"NoteNumber":61,"Velocity":49,"Duration":106007,"SoundDuration":106007,"Delta":104617700},{"NoteNumber":75,"Velocity":65,"Duration":208333,"SoundDuration":208333,"Delta":104829714},{"NoteNumber":76,"Velocity":61,"Duration":208333,"SoundDuration":208333,"Delta":105038048},{"NoteNumber":62,"Velocity":53,"Duration":107527,"SoundDuration":107527,"Delta":105246381},{"NoteNumber":57,"Velocity":44,"Duration":107527,"SoundDuration":107527,"Delta":105246381},{"NoteNumber":77,"Velocity":74,"Duration":211267,"SoundDuration":211267,"Delta":105461435},{"NoteNumber":78,"Velocity":70,"Duration":211267,"SoundDuration":211267,"Delta":105672703},{"NoteNumber":57,"Velocity":50,"Duration":116279,"SoundDuration":116279,"Delta":105883970},{"NoteNumber":64,"Velocity":60,"Duration":116279,"SoundDuration":116279,"Delta":105883970},{"NoteNumber":78,"Velocity":77,"Duration":271493,"SoundDuration":271493,"Delta":106116528},{"NoteNumber":79,"Velocity":75,"Duration":239999,"SoundDuration":239999,"Delta":106388021},{"NoteNumber":69,"Velocity":42,"Duration":99674,"SoundDuration":99674,"Delta":107948021},{"NoteNumber":81,"Velocity":47,"Duration":402711,"SoundDuration":402711,"Delta":108047696},{"NoteNumber":78,"Velocity":44,"Duration":151017,"SoundDuration":151017,"Delta":108450408},{"NoteNumber":76,"Velocity":44,"Duration":50338,"SoundDuration":50338,"Delta":108601425},{"NoteNumber":74,"Velocity":49,"Duration":75508,"SoundDuration":75508,"Delta":108651764},{"NoteNumber":66,"Velocity":33,"Duration":611060,"SoundDuration":611060,"Delta":108651764},{"NoteNumber":62,"Velocity":27,"Duration":611060,"SoundDuration":611060,"Delta":108651764},{"NoteNumber":73,"Velocity":44,"Duration":75508,"SoundDuration":75508,"Delta":108853120},{"NoteNumber":74,"Velocity":44,"Duration":78130,"SoundDuration":78130,"Delta":109054476},{"NoteNumber":76,"Velocity":43,"Duration":52087,"SoundDuration":52087,"Delta":109210737},{"NoteNumber":74,"Velocity":47,"Duration":75508,"SoundDuration":75508,"Delta":109262824},{"NoteNumber":59,"Velocity":27,"Duration":619333,"SoundDuration":619333,"Delta":109262824},{"NoteNumber":68,"Velocity":33,"Duration":619333,"SoundDuration":619333,"Delta":109262824},{"NoteNumber":73,"Velocity":43,"Duration":75508,"SoundDuration":75508,"Delta":109464180},{"NoteNumber":74,"Velocity":42,"Duration":81233,"SoundDuration":81233,"Delta":109665536},{"NoteNumber":74,"Velocity":41,"Duration":422565,"SoundDuration":422565,"Delta":109882158},{"NoteNumber":78,"Velocity":49,"Duration":422565,"SoundDuration":422565,"Delta":109882158},{"NoteNumber":69,"Velocity":33,"Duration":653255,"SoundDuration":653255,"Delta":109882158},{"NoteNumber":57,"Velocity":27,"Duration":653255,"SoundDuration":653255,"Delta":109882158},{"NoteNumber":73,"Velocity":35,"Duration":131015,"SoundDuration":131015,"Delta":110304723},{"NoteNumber":76,"Velocity":41,"Duration":131015,"SoundDuration":131015,"Delta":110304723},{"NoteNumber":67,"Velocity":42,"Duration":99674,"SoundDuration":99674,"Delta":110435739},{"NoteNumber":79,"Velocity":47,"Duration":402711,"SoundDuration":402711,"Delta":110535413},{"NoteNumber":76,"Velocity":44,"Duration":151017,"SoundDuration":151017,"Delta":110938125},{"NoteNumber":74,"Velocity":44,"Duration":50338,"SoundDuration":50338,"Delta":111089142},{"NoteNumber":73,"Velocity":49,"Duration":75508,"SoundDuration":75508,"Delta":111139481},{"NoteNumber":64,"Velocity":33,"Duration":611060,"SoundDuration":611060,"Delta":111139481},{"NoteNumber":57,"Velocity":27,"Duration":611060,"SoundDuration":611060,"Delta":111139481},{"NoteNumber":71,"Velocity":44,"Duration":75508,"SoundDuration":75508,"Delta":111340837},{"NoteNumber":73,"Velocity":44,"Duration":78130,"SoundDuration":78130,"Delta":111542193},{"NoteNumber":69,"Velocity":47,"Duration":75508,"SoundDuration":75508,"Delta":111750541},{"NoteNumber":64,"Velocity":33,"Duration":619333,"SoundDuration":619333,"Delta":111750541},{"NoteNumber":61,"Velocity":27,"Duration":619333,"SoundDuration":619333,"Delta":111750541},{"NoteNumber":76,"Velocity":43,"Duration":75508,"SoundDuration":75508,"Delta":111951897},{"NoteNumber":81,"Velocity":42,"Duration":81233,"SoundDuration":81233,"Delta":112153253},{"NoteNumber":76,"Velocity":41,"Duration":422565,"SoundDuration":422565,"Delta":112369875},{"NoteNumber":79,"Velocity":49,"Duration":422565,"SoundDuration":422565,"Delta":112369875},{"NoteNumber":69,"Velocity":33,"Duration":633847,"SoundDuration":633847,"Delta":112369875},{"NoteNumber":62,"Velocity":27,"Duration":633847,"SoundDuration":633847,"Delta":112369875},{"NoteNumber":74,"Velocity":35,"Duration":158461,"SoundDuration":158461,"Delta":112792440},{"NoteNumber":78,"Velocity":41,"Duration":158461,"SoundDuration":158461,"Delta":112792440},{"NoteNumber":74,"Velocity":48,"Duration":52820,"SoundDuration":52820,"Delta":112950902},{"NoteNumber":78,"Velocity":52,"Duration":405433,"SoundDuration":405433,"Delta":113003723},{"NoteNumber":50,"Velocity":51,"Duration":202716,"SoundDuration":202716,"Delta":113003723},{"NoteNumber":62,"Velocity":45,"Duration":101358,"SoundDuration":101358,"Delta":113206439},{"NoteNumber":79,"Velocity":48,"Duration":206911,"SoundDuration":206911,"Delta":113409156},{"NoteNumber":64,"Velocity":48,"Duration":103455,"SoundDuration":103455,"Delta":113409156},{"NoteNumber":83,"Velocity":59,"Duration":101358,"SoundDuration":101358,"Delta":113616067},{"NoteNumber":66,"Velocity":52,"Duration":202716,"SoundDuration":202716,"Delta":113616067},{"NoteNumber":81,"Velocity":57,"Duration":101358,"SoundDuration":101358,"Delta":113717425},{"NoteNumber":79,"Velocity":55,"Duration":101358,"SoundDuration":101358,"Delta":113818783},{"NoteNumber":78,"Velocity":53,"Duration":101358,"SoundDuration":101358,"Delta":113920141},{"NoteNumber":76,"Velocity":51,"Duration":109497,"SoundDuration":109497,"Delta":114021500},{"NoteNumber":74,"Velocity":47,"Duration":49311,"SoundDuration":49311,"Delta":114130997},{"NoteNumber":74,"Velocity":46,"Duration":51906,"SoundDuration":51906,"Delta":114182903},{"NoteNumber":78,"Velocity":58,"Duration":404067,"SoundDuration":404067,"Delta":114234810},{"NoteNumber":50,"Velocity":50,"Duration":202033,"SoundDuration":202033,"Delta":114234810},{"NoteNumber":62,"Velocity":44,"Duration":101016,"SoundDuration":101016,"Delta":114436844},{"NoteNumber":79,"Velocity":49,"Duration":208348,"SoundDuration":208348,"Delta":114638878},{"NoteNumber":64,"Velocity":48,"Duration":104174,"SoundDuration":104174,"Delta":114638878},{"NoteNumber":83,"Velocity":59,"Duration":101016,"SoundDuration":101016,"Delta":114847226},{"NoteNumber":66,"Velocity":53,"Duration":202033,"SoundDuration":202033,"Delta":114847226},{"NoteNumber":81,"Velocity":57,"Duration":101016,"SoundDuration":101016,"Delta":114948243},{"NoteNumber":79,"Velocity":55,"Duration":101016,"SoundDuration":101016,"Delta":115049260},{"NoteNumber":78,"Velocity":53,"Duration":101016,"SoundDuration":101016,"Delta":115150277},{"NoteNumber":76,"Velocity":51,"Duration":111532,"SoundDuration":111532,"Delta":115251294},{"NoteNumber":74,"Velocity":51,"Duration":43709,"SoundDuration":43709,"Delta":115362827},{"NoteNumber":74,"Velocity":46,"Duration":52451,"SoundDuration":52451,"Delta":115415278},{"NoteNumber":83,"Velocity":58,"Duration":404067,"SoundDuration":404067,"Delta":115467729},{"NoteNumber":55,"Velocity":50,"Duration":202033,"SoundDuration":202033,"Delta":115467729},{"NoteNumber":67,"Velocity":44,"Duration":101016,"SoundDuration":101016,"Delta":115669763},{"NoteNumber":85,"Velocity":49,"Duration":206911,"SoundDuration":206911,"Delta":115871797},{"NoteNumber":64,"Velocity":48,"Duration":103455,"SoundDuration":103455,"Delta":115871797},{"NoteNumber":86,"Velocity":59,"Duration":101016,"SoundDuration":101016,"Delta":116078708},{"NoteNumber":66,"Velocity":53,"Duration":202033,"SoundDuration":202033,"Delta":116078708},{"NoteNumber":54,"Velocity":45,"Duration":202033,"SoundDuration":202033,"Delta":116078708},{"NoteNumber":85,"Velocity":57,"Duration":101016,"SoundDuration":101016,"Delta":116179725},{"NoteNumber":83,"Velocity":55,"Duration":101016,"SoundDuration":101016,"Delta":116280742},{"NoteNumber":81,"Velocity":53,"Duration":101016,"SoundDuration":101016,"Delta":116381759},{"NoteNumber":79,"Velocity":51,"Duration":102746,"SoundDuration":102746,"Delta":116482776},{"NoteNumber":78,"Velocity":51,"Duration":102746,"SoundDuration":102746,"Delta":116585523},{"NoteNumber":83,"Velocity":59,"Duration":101016,"SoundDuration":101016,"Delta":116688270},{"NoteNumber":67,"Velocity":53,"Duration":202033,"SoundDuration":202033,"Delta":116688270},{"NoteNumber":55,"Velocity":45,"Duration":202033,"SoundDuration":202033,"Delta":116688270},{"NoteNumber":81,"Velocity":58,"Duration":101016,"SoundDuration":101016,"Delta":116789287},{"NoteNumber":79,"Velocity":56,"Duration":101016,"SoundDuration":101016,"Delta":116890304},{"NoteNumber":78,"Velocity":55,"Duration":101016,"SoundDuration":101016,"Delta":116991321},{"NoteNumber":76,"Velocity":58,"Duration":105270,"SoundDuration":105270,"Delta":117092338},{"NoteNumber":74,"Velocity":62,"Duration":122459,"SoundDuration":122459,"Delta":117197608},{"NoteNumber":76,"Velocity":50,"Duration":208348,"SoundDuration":208348,"Delta":117320067},{"NoteNumber":81,"Velocity":59,"Duration":208348,"SoundDuration":208348,"Delta":117320067},{"NoteNumber":73,"Velocity":50,"Duration":208348,"SoundDuration":208348,"Delta":117320067},{"NoteNumber":69,"Velocity":53,"Duration":208348,"SoundDuration":208348,"Delta":117320067},{"NoteNumber":57,"Velocity":45,"Duration":208348,"SoundDuration":208348,"Delta":117320067},{"NoteNumber":69,"Velocity":42,"Duration":99674,"SoundDuration":99674,"Delta":117840937},{"NoteNumber":81,"Velocity":47,"Duration":402711,"SoundDuration":402711,"Delta":117940612},{"NoteNumber":78,"Velocity":44,"Duration":151017,"SoundDuration":151017,"Delta":118343324},{"NoteNumber":76,"Velocity":44,"Duration":50338,"SoundDuration":50338,"Delta":118494341},{"NoteNumber":74,"Velocity":49,"Duration":75508,"SoundDuration":75508,"Delta":118544680},{"NoteNumber":66,"Velocity":33,"Duration":611060,"SoundDuration":611060,"Delta":118544680},{"NoteNumber":62,"Velocity":27,"Duration":611060,"SoundDuration":611060,"Delta":118544680},{"NoteNumber":73,"Velocity":44,"Duration":75508,"SoundDuration":75508,"Delta":118746036},{"NoteNumber":74,"Velocity":44,"Duration":78130,"SoundDuration":78130,"Delta":118947392},{"NoteNumber":76,"Velocity":43,"Duration":52087,"SoundDuration":52087,"Delta":119103653},{"NoteNumber":74,"Velocity":47,"Duration":75508,"SoundDuration":75508,"Delta":119155740},{"NoteNumber":59,"Velocity":27,"Duration":619333,"SoundDuration":619333,"Delta":119155740},{"NoteNumber":68,"Velocity":33,"Duration":619333,"SoundDuration":619333,"Delta":119155740},{"NoteNumber":73,"Velocity":43,"Duration":75508,"SoundDuration":75508,"Delta":119357096},{"NoteNumber":74,"Velocity":42,"Duration":81233,"SoundDuration":81233,"Delta":119558452},{"NoteNumber":78,"Velocity":49,"Duration":422565,"SoundDuration":422565,"Delta":119775074},{"NoteNumber":74,"Velocity":41,"Duration":422565,"SoundDuration":422565,"Delta":119775074},{"NoteNumber":69,"Velocity":33,"Duration":653255,"SoundDuration":653255,"Delta":119775074},{"NoteNumber":57,"Velocity":27,"Duration":653255,"SoundDuration":653255,"Delta":119775074},{"NoteNumber":73,"Velocity":35,"Duration":131015,"SoundDuration":131015,"Delta":120197639},{"NoteNumber":76,"Velocity":41,"Duration":131015,"SoundDuration":131015,"Delta":120197639},{"NoteNumber":67,"Velocity":42,"Duration":99674,"SoundDuration":99674,"Delta":120328654},{"NoteNumber":79,"Velocity":47,"Duration":402711,"SoundDuration":402711,"Delta":120428329},{"NoteNumber":76,"Velocity":44,"Duration":151017,"SoundDuration":151017,"Delta":120831041},{"NoteNumber":74,"Velocity":44,"Duration":50338,"SoundDuration":50338,"Delta":120982058},{"NoteNumber":73,"Velocity":49,"Duration":75508,"SoundDuration":75508,"Delta":121032397},{"NoteNumber":64,"Velocity":33,"Duration":611060,"SoundDuration":611060,"Delta":121032397},{"NoteNumber":57,"Velocity":27,"Duration":611060,"SoundDuration":611060,"Delta":121032397},{"NoteNumber":71,"Velocity":44,"Duration":75508,"SoundDuration":75508,"Delta":121233753},{"NoteNumber":73,"Velocity":44,"Duration":78130,"SoundDuration":78130,"Delta":121435109},{"NoteNumber":69,"Velocity":47,"Duration":75508,"SoundDuration":75508,"Delta":121643457},{"NoteNumber":61,"Velocity":27,"Duration":619333,"SoundDuration":619333,"Delta":121643457},{"NoteNumber":64,"Velocity":33,"Duration":619333,"SoundDuration":619333,"Delta":121643457},{"NoteNumber":76,"Velocity":43,"Duration":75508,"SoundDuration":75508,"Delta":121844813},{"NoteNumber":81,"Velocity":42,"Duration":81233,"SoundDuration":81233,"Delta":122046169},{"NoteNumber":76,"Velocity":41,"Duration":422565,"SoundDuration":422565,"Delta":122262791},{"NoteNumber":79,"Velocity":49,"Duration":422565,"SoundDuration":422565,"Delta":122262791},{"NoteNumber":62,"Velocity":27,"Duration":633847,"SoundDuration":633847,"Delta":122262791},{"NoteNumber":69,"Velocity":33,"Duration":633847,"SoundDuration":633847,"Delta":122262791},{"NoteNumber":74,"Velocity":35,"Duration":158461,"SoundDuration":158461,"Delta":122685356},{"NoteNumber":78,"Velocity":41,"Duration":158461,"SoundDuration":158461,"Delta":122685356},{"NoteNumber":74,"Velocity":48,"Duration":52820,"SoundDuration":52820,"Delta":122843818},{"NoteNumber":78,"Velocity":52,"Duration":405433,"SoundDuration":405433,"Delta":122896638},{"NoteNumber":50,"Velocity":51,"Duration":202716,"SoundDuration":202716,"Delta":122896638},{"NoteNumber":62,"Velocity":45,"Duration":101358,"SoundDuration":101358,"Delta":123099355},{"NoteNumber":79,"Velocity":48,"Duration":206911,"SoundDuration":206911,"Delta":123302071},{"NoteNumber":64,"Velocity":48,"Duration":103455,"SoundDuration":103455,"Delta":123302071},{"NoteNumber":83,"Velocity":59,"Duration":101358,"SoundDuration":101358,"Delta":123508982},{"NoteNumber":66,"Velocity":52,"Duration":202716,"SoundDuration":202716,"Delta":123508982},{"NoteNumber":81,"Velocity":57,"Duration":101358,"SoundDuration":101358,"Delta":123610341},{"NoteNumber":79,"Velocity":55,"Duration":101358,"SoundDuration":101358,"Delta":123711699},{"NoteNumber":78,"Velocity":53,"Duration":101358,"SoundDuration":101358,"Delta":123813057},{"NoteNumber":76,"Velocity":51,"Duration":109497,"SoundDuration":109497,"Delta":123914415},{"NoteNumber":74,"Velocity":47,"Duration":48446,"SoundDuration":48446,"Delta":124023912},{"NoteNumber":74,"Velocity":46,"Duration":51906,"SoundDuration":51906,"Delta":124084470},{"NoteNumber":83,"Velocity":58,"Duration":404301,"SoundDuration":404301,"Delta":124127726},{"NoteNumber":43,"Velocity":50,"Duration":202267,"SoundDuration":202267,"Delta":124127726},{"NoteNumber":55,"Velocity":44,"Duration":101016,"SoundDuration":101016,"Delta":124329993},{"NoteNumber":85,"Velocity":49,"Duration":206707,"SoundDuration":206707,"Delta":124532027},{"NoteNumber":59,"Velocity":48,"Duration":103252,"SoundDuration":103252,"Delta":124532027},{"NoteNumber":88,"Velocity":59,"Duration":101220,"SoundDuration":101220,"Delta":124738735},{"NoteNumber":59,"Velocity":53,"Duration":202237,"SoundDuration":202237,"Delta":124738735},{"NoteNumber":86,"Velocity":57,"Duration":101017,"SoundDuration":101017,"Delta":124839955},{"NoteNumber":85,"Velocity":55,"Duration":101016,"SoundDuration":101016,"Delta":124940972},{"NoteNumber":83,"Velocity":53,"Duration":101016,"SoundDuration":101016,"Delta":125041989},{"NoteNumber":81,"Velocity":51,"Duration":102602,"SoundDuration":102602,"Delta":125143006},{"NoteNumber":79,"Velocity":51,"Duration":102746,"SoundDuration":102746,"Delta":125245609},{"NoteNumber":85,"Velocity":59,"Duration":101161,"SoundDuration":101161,"Delta":125348355},{"NoteNumber":59,"Velocity":45,"Duration":101161,"SoundDuration":101161,"Delta":125348355},{"NoteNumber":64,"Velocity":53,"Duration":101161,"SoundDuration":101161,"Delta":125348355},{"NoteNumber":55,"Velocity":45,"Duration":101016,"SoundDuration":101016,"Delta":125356918},{"NoteNumber":83,"Velocity":58,"Duration":101017,"SoundDuration":101017,"Delta":125449516},{"NoteNumber":81,"Velocity":56,"Duration":101016,"SoundDuration":101016,"Delta":125550533},{"NoteNumber":79,"Velocity":55,"Duration":101016,"SoundDuration":101016,"Delta":125651550},{"NoteNumber":78,"Velocity":54,"Duration":104916,"SoundDuration":104916,"Delta":125752567},{"NoteNumber":76,"Velocity":52,"Duration":121026,"SoundDuration":121026,"Delta":125857484},{"NoteNumber":83,"Velocity":63,"Duration":101220,"SoundDuration":101220,"Delta":125978510},{"NoteNumber":57,"Velocity":45,"Duration":101220,"SoundDuration":101220,"Delta":125978510},{"NoteNumber":62,"Velocity":45,"Duration":101220,"SoundDuration":101220,"Delta":125978510},{"NoteNumber":66,"Velocity":53,"Duration":101016,"SoundDuration":101016,"Delta":125987131},{"NoteNumber":81,"Velocity":61,"Duration":101017,"SoundDuration":101017,"Delta":126079730},{"NoteNumber":79,"Velocity":59,"Duration":101016,"SoundDuration":101016,"Delta":126180747},{"NoteNumber":78,"Velocity":57,"Duration":101016,"SoundDuration":101016,"Delta":126281764},{"NoteNumber":76,"Velocity":56,"Duration":102602,"SoundDuration":102602,"Delta":126382781},{"NoteNumber":74,"Velocity":54,"Duration":102746,"SoundDuration":102746,"Delta":126485384},{"NoteNumber":81,"Velocity":59,"Duration":101161,"SoundDuration":101161,"Delta":126588131},{"NoteNumber":64,"Velocity":45,"Duration":101161,"SoundDuration":101161,"Delta":126588131},{"NoteNumber":57,"Velocity":45,"Duration":101161,"SoundDuration":101161,"Delta":126588131},{"NoteNumber":67,"Velocity":53,"Duration":101016,"SoundDuration":101016,"Delta":126596693},{"NoteNumber":79,"Velocity":61,"Duration":101017,"SoundDuration":101017,"Delta":126689292},{"NoteNumber":78,"Velocity":60,"Duration":101016,"SoundDuration":101016,"Delta":126790309},{"NoteNumber":76,"Velocity":59,"Duration":101016,"SoundDuration":101016,"Delta":126891326},{"NoteNumber":74,"Velocity":58,"Duration":104916,"SoundDuration":104916,"Delta":126992343},{"NoteNumber":73,"Velocity":61,"Duration":121026,"SoundDuration":121026,"Delta":127097259},{"NoteNumber":74,"Velocity":63,"Duration":104536,"SoundDuration":104536,"Delta":127218286},{"NoteNumber":66,"Velocity":53,"Duration":104536,"SoundDuration":104536,"Delta":127218286},{"NoteNumber":62,"Velocity":45,"Duration":104536,"SoundDuration":104536,"Delta":127218286},{"NoteNumber":66,"Velocity":66,"Duration":100341,"SoundDuration":100341,"Delta":127636434},{"NoteNumber":42,"Velocity":45,"Duration":100341,"SoundDuration":100341,"Delta":127636434},{"NoteNumber":69,"Velocity":66,"Duration":104536,"SoundDuration":104536,"Delta":127736775},{"NoteNumber":45,"Velocity":45,"Duration":104536,"SoundDuration":104536,"Delta":127736775},{"NoteNumber":74,"Velocity":73,"Duration":102395,"SoundDuration":102395,"Delta":127841312},{"NoteNumber":50,"Velocity":52,"Duration":102395,"SoundDuration":102395,"Delta":127841312},{"NoteNumber":69,"Velocity":70,"Duration":99674,"SoundDuration":99674,"Delta":128250896},{"NoteNumber":45,"Velocity":48,"Duration":99674,"SoundDuration":99674,"Delta":128250896},{"NoteNumber":74,"Velocity":70,"Duration":105641,"SoundDuration":105641,"Delta":128350570},{"NoteNumber":50,"Velocity":48,"Duration":105641,"SoundDuration":105641,"Delta":128350570},{"NoteNumber":78,"Velocity":75,"Duration":102395,"SoundDuration":102395,"Delta":128456212},{"NoteNumber":54,"Velocity":57,"Duration":102395,"SoundDuration":102395,"Delta":128456212},{"NoteNumber":74,"Velocity":69,"Duration":100341,"SoundDuration":100341,"Delta":128865796},{"NoteNumber":50,"Velocity":51,"Duration":100341,"SoundDuration":100341,"Delta":128865796},{"NoteNumber":78,"Velocity":69,"Duration":105641,"SoundDuration":105641,"Delta":128966137},{"NoteNumber":54,"Velocity":51,"Duration":105641,"SoundDuration":105641,"Delta":128966137},{"NoteNumber":81,"Velocity":81,"Duration":102395,"SoundDuration":102395,"Delta":129071778},{"NoteNumber":57,"Velocity":57,"Duration":102395,"SoundDuration":102395,"Delta":129071778},{"NoteNumber":78,"Velocity":56,"Duration":115829,"SoundDuration":115829,"Delta":129489487},{"NoteNumber":54,"Velocity":44,"Duration":115829,"SoundDuration":115829,"Delta":129489487},{"NoteNumber":81,"Velocity":56,"Duration":129310,"SoundDuration":129310,"Delta":129605317},{"NoteNumber":57,"Velocity":44,"Duration":129310,"SoundDuration":129310,"Delta":129605317},{"NoteNumber":84,"Velocity":65,"Duration":102395,"SoundDuration":102395,"Delta":129734627},{"NoteNumber":60,"Velocity":53,"Duration":102395,"SoundDuration":102395,"Delta":129734627},{"NoteNumber":74,"Velocity":45,"Duration":515463,"SoundDuration":515463,"Delta":130963379},{"NoteNumber":59,"Velocity":35,"Duration":624159,"SoundDuration":624159,"Delta":130963379},{"NoteNumber":50,"Velocity":29,"Duration":1446849,"SoundDuration":1446849,"Delta":130963379},{"NoteNumber":55,"Velocity":29,"Duration":624159,"SoundDuration":624159,"Delta":130963379},{"NoteNumber":76,"Velocity":42,"Duration":108695,"SoundDuration":108695,"Delta":131478843},{"NoteNumber":67,"Velocity":47,"Duration":413792,"SoundDuration":413792,"Delta":131587539},{"NoteNumber":57,"Velocity":27,"Duration":619286,"SoundDuration":619286,"Delta":131587539},{"NoteNumber":60,"Velocity":32,"Duration":619286,"SoundDuration":619286,"Delta":131587539},{"NoteNumber":66,"Velocity":47,"Duration":205249,"SoundDuration":205249,"Delta":132025306},{"NoteNumber":67,"Velocity":55,"Duration":152552,"SoundDuration":152552,"Delta":132206825},{"NoteNumber":55,"Velocity":29,"Duration":203403,"SoundDuration":203403,"Delta":132206825},{"NoteNumber":59,"Velocity":35,"Duration":203403,"SoundDuration":203403,"Delta":132206825},{"NoteNumber":79,"Velocity":54,"Duration":100341,"SoundDuration":100341,"Delta":132410229},{"NoteNumber":78,"Velocity":52,"Duration":100341,"SoundDuration":100341,"Delta":132610911},{"NoteNumber":76,"Velocity":50,"Duration":100341,"SoundDuration":100341,"Delta":132811594},{"NoteNumber":74,"Velocity":49,"Duration":100341,"SoundDuration":100341,"Delta":133012276},{"NoteNumber":73,"Velocity":47,"Duration":103455,"SoundDuration":103455,"Delta":133212959},{"NoteNumber":74,"Velocity":45,"Duration":260640,"SoundDuration":260640,"Delta":133419870},{"NoteNumber":59,"Velocity":35,"Duration":622429,"SoundDuration":622429,"Delta":133419870},{"NoteNumber":55,"Velocity":29,"Duration":622429,"SoundDuration":622429,"Delta":133419870},{"NoteNumber":50,"Velocity":29,"Duration":1437662,"SoundDuration":1437662,"Delta":133419870},{"NoteNumber":76,"Velocity":35,"Duration":50850,"SoundDuration":50850,"Delta":133680511},{"NoteNumber":74,"Velocity":35,"Duration":50850,"SoundDuration":50850,"Delta":133731362},{"NoteNumber":73,"Velocity":35,"Duration":50850,"SoundDuration":50850,"Delta":133782212},{"NoteNumber":74,"Velocity":45,"Duration":101701,"SoundDuration":101701,"Delta":133833063},{"NoteNumber":76,"Velocity":42,"Duration":107534,"SoundDuration":107534,"Delta":133934765},{"NoteNumber":67,"Velocity":47,"Duration":412371,"SoundDuration":412371,"Delta":134042300},{"NoteNumber":57,"Velocity":27,"Duration":617864,"SoundDuration":617864,"Delta":134042300},{"NoteNumber":60,"Velocity":32,"Duration":617864,"SoundDuration":617864,"Delta":134042300},{"NoteNumber":66,"Velocity":47,"Duration":204545,"SoundDuration":204545,"Delta":134478645},{"NoteNumber":67,"Velocity":55,"Duration":148026,"SoundDuration":148026,"Delta":134660164},{"NoteNumber":55,"Velocity":29,"Duration":197368,"SoundDuration":197368,"Delta":134660164},{"NoteNumber":59,"Velocity":35,"Duration":197368,"SoundDuration":197368,"Delta":134660164},{"NoteNumber":79,"Velocity":54,"Duration":100341,"SoundDuration":100341,"Delta":134857533},{"NoteNumber":78,"Velocity":52,"Duration":100341,"SoundDuration":100341,"Delta":135058215},{"NoteNumber":76,"Velocity":50,"Duration":100341,"SoundDuration":100341,"Delta":135258898},{"NoteNumber":74,"Velocity":49,"Duration":100341,"SoundDuration":100341,"Delta":135459580},{"NoteNumber":73,"Velocity":47,"Duration":103455,"SoundDuration":103455,"Delta":135660263},{"NoteNumber":74,"Velocity":45,"Duration":262118,"SoundDuration":262118,"Delta":135867174},{"NoteNumber":50,"Velocity":29,"Duration":1244773,"SoundDuration":1244773,"Delta":135867174},{"NoteNumber":59,"Velocity":35,"Duration":623907,"SoundDuration":623907,"Delta":135867174},{"NoteNumber":55,"Velocity":29,"Duration":623907,"SoundDuration":623907,"Delta":135867174},{"NoteNumber":76,"Velocity":35,"Duration":50850,"SoundDuration":50850,"Delta":136129292},{"NoteNumber":74,"Velocity":35,"Duration":50850,"SoundDuration":50850,"Delta":136180143},{"NoteNumber":73,"Velocity":35,"Duration":50850,"SoundDuration":50850,"Delta":136230994},{"NoteNumber":74,"Velocity":45,"Duration":101701,"SoundDuration":101701,"Delta":136281845},{"NoteNumber":76,"Velocity":42,"Duration":107534,"SoundDuration":107534,"Delta":136383546},{"NoteNumber":67,"Velocity":47,"Duration":409583,"SoundDuration":409583,"Delta":136491081},{"NoteNumber":60,"Velocity":32,"Duration":620866,"SoundDuration":620866,"Delta":136491081},{"NoteNumber":57,"Velocity":27,"Duration":620866,"SoundDuration":620866,"Delta":136491081},{"NoteNumber":66,"Velocity":47,"Duration":211282,"SoundDuration":211282,"Delta":136900665},{"NoteNumber":67,"Velocity":52,"Duration":203403,"SoundDuration":203403,"Delta":137111947},{"NoteNumber":55,"Velocity":24,"Duration":203403,"SoundDuration":203403,"Delta":137111947},{"NoteNumber":59,"Velocity":32,"Duration":203403,"SoundDuration":203403,"Delta":137111947},{"NoteNumber":64,"Velocity":29,"Duration":654546,"SoundDuration":654546,"Delta":137722158},{"NoteNumber":59,"Velocity":29,"Duration":654546,"SoundDuration":654546,"Delta":137722158},{"NoteNumber":67,"Velocity":35,"Duration":654546,"SoundDuration":654546,"Delta":137722158},{"NoteNumber":52,"Velocity":35,"Duration":654546,"SoundDuration":654546,"Delta":137722158},{"NoteNumber":64,"Velocity":32,"Duration":625000,"SoundDuration":625000,"Delta":138376704},{"NoteNumber":69,"Velocity":38,"Duration":625000,"SoundDuration":625000,"Delta":138376704},{"NoteNumber":67,"Velocity":32,"Duration":625000,"SoundDuration":625000,"Delta":138376704},{"NoteNumber":48,"Velocity":37,"Duration":625000,"SoundDuration":625000,"Delta":138376704},{"NoteNumber":66,"Velocity":33,"Duration":652174,"SoundDuration":652174,"Delta":139001704},{"NoteNumber":69,"Velocity":33,"Duration":652174,"SoundDuration":652174,"Delta":139001704},{"NoteNumber":74,"Velocity":39,"Duration":652174,"SoundDuration":652174,"Delta":139001704},{"NoteNumber":50,"Velocity":39,"Duration":652174,"SoundDuration":652174,"Delta":139001704},{"NoteNumber":62,"Velocity":29,"Duration":229884,"SoundDuration":229884,"Delta":139653879},{"NoteNumber":71,"Velocity":35,"Duration":229884,"SoundDuration":229884,"Delta":139653879},{"NoteNumber":67,"Velocity":29,"Duration":229884,"SoundDuration":229884,"Delta":139653879},{"NoteNumber":43,"Velocity":35,"Duration":229884,"SoundDuration":229884,"Delta":139653879},{"NoteNumber":64,"Velocity":52,"Duration":669145,"SoundDuration":669145,"Delta":140343534},{"NoteNumber":55,"Velocity":43,"Duration":669145,"SoundDuration":669145,"Delta":140343534},{"NoteNumber":60,"Velocity":43,"Duration":669145,"SoundDuration":669145,"Delta":140343534},{"NoteNumber":36,"Velocity":43,"Duration":669145,"SoundDuration":669145,"Delta":140343534},{"NoteNumber":48,"Velocity":52,"Duration":669145,"SoundDuration":669145,"Delta":140343534},{"NoteNumber":66,"Velocity":57,"Duration":652174,"SoundDuration":652174,"Delta":141012679},{"NoteNumber":60,"Velocity":48,"Duration":652174,"SoundDuration":652174,"Delta":141012679},{"NoteNumber":64,"Velocity":48,"Duration":652174,"SoundDuration":652174,"Delta":141012679},{"NoteNumber":33,"Velocity":46,"Duration":652174,"SoundDuration":652174,"Delta":141012679},{"NoteNumber":45,"Velocity":55,"Duration":652174,"SoundDuration":652174,"Delta":141012679},{"NoteNumber":66,"Velocity":49,"Duration":663488,"SoundDuration":663488,"Delta":141664854},{"NoteNumber":63,"Velocity":49,"Duration":663488,"SoundDuration":663488,"Delta":141664854},{"NoteNumber":71,"Velocity":58,"Duration":663488,"SoundDuration":663488,"Delta":141664854},{"NoteNumber":47,"Velocity":58,"Duration":663488,"SoundDuration":663488,"Delta":141664854},{"NoteNumber":35,"Velocity":49,"Duration":663488,"SoundDuration":663488,"Delta":141664854},{"NoteNumber":64,"Velocity":43,"Duration":230769,"SoundDuration":230769,"Delta":142328342},{"NoteNumber":67,"Velocity":52,"Duration":230769,"SoundDuration":230769,"Delta":142328342},{"NoteNumber":59,"Velocity":43,"Duration":230769,"SoundDuration":230769,"Delta":142328342},{"NoteNumber":40,"Velocity":52,"Duration":230769,"SoundDuration":230769,"Delta":142328342},{"NoteNumber":59,"Velocity":29,"Duration":671641,"SoundDuration":671641,"Delta":143020649},{"NoteNumber":54,"Velocity":29,"Duration":671641,"SoundDuration":671641,"Delta":143020649},{"NoteNumber":62,"Velocity":35,"Duration":671641,"SoundDuration":671641,"Delta":143020649},{"NoteNumber":47,"Velocity":35,"Duration":671641,"SoundDuration":671641,"Delta":143020649},{"NoteNumber":64,"Velocity":38,"Duration":649819,"SoundDuration":649819,"Delta":143692291},{"NoteNumber":59,"Velocity":32,"Duration":649819,"SoundDuration":649819,"Delta":143692291},{"NoteNumber":62,"Velocity":32,"Duration":649819,"SoundDuration":649819,"Delta":143692291},{"NoteNumber":43,"Velocity":37,"Duration":649819,"SoundDuration":649819,"Delta":143692291},{"NoteNumber":61,"Velocity":33,"Duration":657782,"SoundDuration":657782,"Delta":144342110},{"NoteNumber":64,"Velocity":33,"Duration":657782,"SoundDuration":657782,"Delta":144342110},{"NoteNumber":69,"Velocity":39,"Duration":657782,"SoundDuration":657782,"Delta":144342110},{"NoteNumber":45,"Velocity":39,"Duration":657782,"SoundDuration":657782,"Delta":144342110},{"NoteNumber":66,"Velocity":35,"Duration":230769,"SoundDuration":230769,"Delta":144999893},{"NoteNumber":57,"Velocity":29,"Duration":230769,"SoundDuration":230769,"Delta":144999893},{"NoteNumber":62,"Velocity":29,"Duration":230769,"SoundDuration":230769,"Delta":144999893},{"NoteNumber":38,"Velocity":35,"Duration":230769,"SoundDuration":230769,"Delta":144999893},{"NoteNumber":73,"Velocity":52,"Duration":674157,"SoundDuration":674157,"Delta":145692200},{"NoteNumber":64,"Velocity":43,"Duration":674157,"SoundDuration":674157,"Delta":145692200},{"NoteNumber":67,"Velocity":43,"Duration":674157,"SoundDuration":674157,"Delta":145692200},{"NoteNumber":58,"Velocity":52,"Duration":674157,"SoundDuration":674157,"Delta":145692200},{"NoteNumber":46,"Velocity":43,"Duration":674157,"SoundDuration":674157,"Delta":145692200},{"NoteNumber":62,"Velocity":48,"Duration":664206,"SoundDuration":664206,"Delta":146366357},{"NoteNumber":74,"Velocity":57,"Duration":664206,"SoundDuration":664206,"Delta":146366357},{"NoteNumber":66,"Velocity":48,"Duration":664206,"SoundDuration":664206,"Delta":146366357},{"NoteNumber":47,"Velocity":46,"Duration":664206,"SoundDuration":664206,"Delta":146366357},{"NoteNumber":59,"Velocity":55,"Duration":664206,"SoundDuration":664206,"Delta":146366357},{"NoteNumber":77,"Velocity":60,"Duration":679245,"SoundDuration":679245,"Delta":147030563},{"NoteNumber":71,"Velocity":51,"Duration":679245,"SoundDuration":679245,"Delta":147030563},{"NoteNumber":55,"Velocity":58,"Duration":679245,"SoundDuration":679245,"Delta":147030563},{"NoteNumber":43,"Velocity":49,"Duration":679245,"SoundDuration":679245,"Delta":147030563},{"NoteNumber":70,"Velocity":45,"Duration":215548,"SoundDuration":215548,"Delta":147709808},{"NoteNumber":78,"Velocity":54,"Duration":215548,"SoundDuration":215548,"Delta":147709808},{"NoteNumber":73,"Velocity":45,"Duration":215548,"SoundDuration":215548,"Delta":147709808},{"NoteNumber":54,"Velocity":52,"Duration":107774,"SoundDuration":107774,"Delta":147709808},{"NoteNumber":42,"Velocity":48,"Duration":107774,"SoundDuration":107774,"Delta":147709808},{"NoteNumber":55,"Velocity":52,"Duration":107773,"SoundDuration":107773,"Delta":147925356},{"NoteNumber":54,"Velocity":52,"Duration":107774,"SoundDuration":107774,"Delta":148140904},{"NoteNumber":52,"Velocity":52,"Duration":107773,"SoundDuration":107773,"Delta":148356452},{"NoteNumber":50,"Velocity":52,"Duration":107774,"SoundDuration":107774,"Delta":148572000},{"NoteNumber":49,"Velocity":52,"Duration":110027,"SoundDuration":110027,"Delta":148787548},{"NoteNumber":47,"Velocity":52,"Duration":216278,"SoundDuration":216278,"Delta":149007602},{"NoteNumber":78,"Velocity":52,"Duration":108139,"SoundDuration":108139,"Delta":149223881},{"NoteNumber":78,"Velocity":48,"Duration":107774,"SoundDuration":107774,"Delta":149439794},{"NoteNumber":79,"Velocity":44,"Duration":53887,"SoundDuration":53887,"Delta":149658367},{"NoteNumber":71,"Velocity":40,"Duration":107774,"SoundDuration":107774,"Delta":149658367},{"NoteNumber":81,"Velocity":44,"Duration":53887,"SoundDuration":53887,"Delta":149712254},{"NoteNumber":79,"Velocity":53,"Duration":107774,"SoundDuration":107774,"Delta":149766141},{"NoteNumber":74,"Velocity":30,"Duration":107774,"SoundDuration":107774,"Delta":149766141},{"NoteNumber":78,"Velocity":49,"Duration":107773,"SoundDuration":107773,"Delta":149873915},{"NoteNumber":71,"Velocity":33,"Duration":107773,"SoundDuration":107773,"Delta":149873915},{"NoteNumber":74,"Velocity":30,"Duration":107774,"SoundDuration":107774,"Delta":149981689},{"NoteNumber":78,"Velocity":46,"Duration":107774,"SoundDuration":107774,"Delta":150089463},{"NoteNumber":71,"Velocity":33,"Duration":107774,"SoundDuration":107774,"Delta":150089463},{"NoteNumber":74,"Velocity":30,"Duration":111185,"SoundDuration":111185,"Delta":150197237},{"NoteNumber":79,"Velocity":48,"Duration":54545,"SoundDuration":54545,"Delta":150308423},{"NoteNumber":70,"Velocity":40,"Duration":109091,"SoundDuration":109091,"Delta":150308423},{"NoteNumber":81,"Velocity":48,"Duration":54545,"SoundDuration":54545,"Delta":150362968},{"NoteNumber":79,"Velocity":52,"Duration":107527,"SoundDuration":107527,"Delta":150417514},{"NoteNumber":73,"Velocity":30,"Duration":107527,"SoundDuration":107527,"Delta":150417514},{"NoteNumber":78,"Velocity":52,"Duration":107527,"SoundDuration":107527,"Delta":150525041},{"NoteNumber":70,"Velocity":33,"Duration":107527,"SoundDuration":107527,"Delta":150525041},{"NoteNumber":73,"Velocity":30,"Duration":107527,"SoundDuration":107527,"Delta":150632568},{"NoteNumber":78,"Velocity":48,"Duration":107526,"SoundDuration":107526,"Delta":150740095},{"NoteNumber":70,"Velocity":33,"Duration":107526,"SoundDuration":107526,"Delta":150740095},{"NoteNumber":73,"Velocity":31,"Duration":111582,"SoundDuration":111582,"Delta":150847622},{"NoteNumber":78,"Velocity":52,"Duration":433616,"SoundDuration":433616,"Delta":150959204},{"NoteNumber":69,"Velocity":40,"Duration":107774,"SoundDuration":107774,"Delta":150959204},{"NoteNumber":73,"Velocity":29,"Duration":107774,"SoundDuration":107774,"Delta":151066978},{"NoteNumber":69,"Velocity":32,"Duration":107774,"SoundDuration":107774,"Delta":151174752},{"NoteNumber":73,"Velocity":30,"Duration":110294,"SoundDuration":110294,"Delta":151282526},{"NoteNumber":79,"Velocity":46,"Duration":106007,"SoundDuration":106007,"Delta":151392820},{"NoteNumber":69,"Velocity":32,"Duration":106007,"SoundDuration":106007,"Delta":151392820},{"NoteNumber":81,"Velocity":49,"Duration":111185,"SoundDuration":111185,"Delta":151498827},{"NoteNumber":73,"Velocity":30,"Duration":111185,"SoundDuration":111185,"Delta":151498827},{"NoteNumber":83,"Velocity":52,"Duration":217803,"SoundDuration":217803,"Delta":151610012},{"NoteNumber":68,"Velocity":40,"Duration":109890,"SoundDuration":109890,"Delta":151610012},{"NoteNumber":71,"Velocity":31,"Duration":107913,"SoundDuration":107913,"Delta":151719902},{"NoteNumber":76,"Velocity":48,"Duration":107913,"SoundDuration":107913,"Delta":151827816},{"NoteNumber":68,"Velocity":33,"Duration":107913,"SoundDuration":107913,"Delta":151827816},{"NoteNumber":71,"Velocity":29,"Duration":107913,"SoundDuration":107913,"Delta":151935730},{"NoteNumber":76,"Velocity":48,"Duration":107913,"SoundDuration":107913,"Delta":152043643},{"NoteNumber":68,"Velocity":33,"Duration":107913,"SoundDuration":107913,"Delta":152043643},{"NoteNumber":71,"Velocity":31,"Duration":110799,"SoundDuration":110799,"Delta":152151557},{"NoteNumber":78,"Velocity":48,"Duration":53887,"SoundDuration":53887,"Delta":152262356},{"NoteNumber":67,"Velocity":40,"Duration":107774,"SoundDuration":107774,"Delta":152262356},{"NoteNumber":79,"Velocity":48,"Duration":53887,"SoundDuration":53887,"Delta":152316243},{"NoteNumber":78,"Velocity":52,"Duration":107774,"SoundDuration":107774,"Delta":152370130},{"NoteNumber":71,"Velocity":31,"Duration":107774,"SoundDuration":107774,"Delta":152370130},{"NoteNumber":76,"Velocity":52,"Duration":107773,"SoundDuration":107773,"Delta":152477904},{"NoteNumber":67,"Velocity":34,"Duration":107773,"SoundDuration":107773,"Delta":152477904},{"NoteNumber":71,"Velocity":31,"Duration":107774,"SoundDuration":107774,"Delta":152585678},{"NoteNumber":76,"Velocity":48,"Duration":107774,"SoundDuration":107774,"Delta":152693452},{"NoteNumber":67,"Velocity":34,"Duration":107774,"SoundDuration":107774,"Delta":152693452},{"NoteNumber":71,"Velocity":30,"Duration":110799,"SoundDuration":110799,"Delta":152801226},{"NoteNumber":76,"Velocity":48,"Duration":53887,"SoundDuration":53887,"Delta":152912026},{"NoteNumber":66,"Velocity":45,"Duration":107774,"SoundDuration":107774,"Delta":152912026},{"NoteNumber":78,"Velocity":48,"Duration":53887,"SoundDuration":53887,"Delta":152965913},{"NoteNumber":76,"Velocity":56,"Duration":107774,"SoundDuration":107774,"Delta":153019800},{"NoteNumber":71,"Velocity":32,"Duration":107774,"SoundDuration":107774,"Delta":153019800},{"NoteNumber":74,"Velocity":48,"Duration":107773,"SoundDuration":107773,"Delta":153127574},{"NoteNumber":66,"Velocity":35,"Duration":107773,"SoundDuration":107773,"Delta":153127574},{"NoteNumber":71,"Velocity":32,"Duration":107774,"SoundDuration":107774,"Delta":153235348},{"NoteNumber":74,"Velocity":52,"Duration":107774,"SoundDuration":107774,"Delta":153343122},{"NoteNumber":66,"Velocity":35,"Duration":107774,"SoundDuration":107774,"Delta":153343122},{"NoteNumber":71,"Velocity":33,"Duration":111582,"SoundDuration":111582,"Delta":153450896},{"NoteNumber":74,"Velocity":52,"Duration":432939,"SoundDuration":432939,"Delta":153562478},{"NoteNumber":66,"Velocity":46,"Duration":107774,"SoundDuration":107774,"Delta":153562478},{"NoteNumber":69,"Velocity":33,"Duration":107774,"SoundDuration":107774,"Delta":153670252},{"NoteNumber":66,"Velocity":35,"Duration":108695,"SoundDuration":108695,"Delta":153778026},{"NoteNumber":69,"Velocity":33,"Duration":108695,"SoundDuration":108695,"Delta":153886722},{"NoteNumber":76,"Velocity":47,"Duration":106007,"SoundDuration":106007,"Delta":153995417},{"NoteNumber":66,"Velocity":35,"Duration":106007,"SoundDuration":106007,"Delta":153995417},{"NoteNumber":78,"Velocity":50,"Duration":111982,"SoundDuration":111982,"Delta":154101424},{"NoteNumber":69,"Velocity":32,"Duration":111982,"SoundDuration":111982,"Delta":154101424},{"NoteNumber":79,"Velocity":53,"Duration":219004,"SoundDuration":219004,"Delta":154213406},{"NoteNumber":64,"Velocity":40,"Duration":110701,"SoundDuration":110701,"Delta":154213406},{"NoteNumber":67,"Velocity":33,"Duration":108303,"SoundDuration":108303,"Delta":154324107},{"NoteNumber":72,"Velocity":50,"Duration":108303,"SoundDuration":108303,"Delta":154432411},{"NoteNumber":64,"Velocity":35,"Duration":108303,"SoundDuration":108303,"Delta":154432411},{"NoteNumber":67,"Velocity":33,"Duration":108303,"SoundDuration":108303,"Delta":154540714},{"NoteNumber":72,"Velocity":50,"Duration":108303,"SoundDuration":108303,"Delta":154649017},{"NoteNumber":64,"Velocity":35,"Duration":108303,"SoundDuration":108303,"Delta":154649017},{"NoteNumber":67,"Velocity":33,"Duration":111185,"SoundDuration":111185,"Delta":154757320},{"NoteNumber":74,"Velocity":53,"Duration":36101,"SoundDuration":36101,"Delta":154868506},{"NoteNumber":64,"Velocity":40,"Duration":108303,"SoundDuration":108303,"Delta":154868506},{"NoteNumber":72,"Velocity":43,"Duration":36101,"SoundDuration":36101,"Delta":154904607},{"NoteNumber":71,"Velocity":43,"Duration":36101,"SoundDuration":36101,"Delta":154940708},{"NoteNumber":72,"Velocity":49,"Duration":324909,"SoundDuration":324909,"Delta":154976809},{"NoteNumber":67,"Velocity":32,"Duration":108303,"SoundDuration":108303,"Delta":154976809},{"NoteNumber":64,"Velocity":35,"Duration":108303,"SoundDuration":108303,"Delta":155085112},{"NoteNumber":67,"Velocity":32,"Duration":108303,"SoundDuration":108303,"Delta":155193415},{"NoteNumber":79,"Velocity":53,"Duration":221510,"SoundDuration":221510,"Delta":155301719},{"NoteNumber":64,"Velocity":35,"Duration":108303,"SoundDuration":108303,"Delta":155301719},{"NoteNumber":67,"Velocity":33,"Duration":113207,"SoundDuration":113207,"Delta":155410022},{"NoteNumber":78,"Velocity":53,"Duration":219414,"SoundDuration":219414,"Delta":155523229},{"NoteNumber":62,"Velocity":40,"Duration":111110,"SoundDuration":111110,"Delta":155523229},{"NoteNumber":66,"Velocity":33,"Duration":108303,"SoundDuration":108303,"Delta":155634340},{"NoteNumber":71,"Velocity":50,"Duration":108303,"SoundDuration":108303,"Delta":155742644},{"NoteNumber":62,"Velocity":35,"Duration":108303,"SoundDuration":108303,"Delta":155742644},{"NoteNumber":66,"Velocity":33,"Duration":108303,"SoundDuration":108303,"Delta":155850947},{"NoteNumber":71,"Velocity":50,"Duration":108303,"SoundDuration":108303,"Delta":155959250},{"NoteNumber":62,"Velocity":35,"Duration":108303,"SoundDuration":108303,"Delta":155959250},{"NoteNumber":66,"Velocity":33,"Duration":113999,"SoundDuration":113999,"Delta":156067553},{"NoteNumber":73,"Velocity":49,"Duration":36231,"SoundDuration":36231,"Delta":156181552},{"NoteNumber":62,"Velocity":35,"Duration":108695,"SoundDuration":108695,"Delta":156181552},{"NoteNumber":71,"Velocity":34,"Duration":36231,"SoundDuration":36231,"Delta":156217784},{"NoteNumber":70,"Velocity":34,"Duration":36231,"SoundDuration":36231,"Delta":156254016},{"NoteNumber":71,"Velocity":40,"Duration":326087,"SoundDuration":326087,"Delta":156290248},{"NoteNumber":66,"Velocity":29,"Duration":108695,"SoundDuration":108695,"Delta":156290248},{"NoteNumber":62,"Velocity":29,"Duration":108695,"SoundDuration":108695,"Delta":156398944},{"NoteNumber":66,"Velocity":27,"Duration":108695,"SoundDuration":108695,"Delta":156507640},{"NoteNumber":78,"Velocity":46,"Duration":221477,"SoundDuration":221477,"Delta":156616335},{"NoteNumber":62,"Velocity":29,"Duration":108695,"SoundDuration":108695,"Delta":156616335},{"NoteNumber":66,"Velocity":28,"Duration":112782,"SoundDuration":112782,"Delta":156725031},{"NoteNumber":78,"Velocity":50,"Duration":217029,"SoundDuration":217029,"Delta":156837813},{"NoteNumber":58,"Velocity":39,"Duration":108514,"SoundDuration":108514,"Delta":156837813},{"NoteNumber":66,"Velocity":30,"Duration":108514,"SoundDuration":108514,"Delta":156946328},{"NoteNumber":76,"Velocity":46,"Duration":217029,"SoundDuration":217029,"Delta":157054843},{"NoteNumber":58,"Velocity":35,"Duration":108514,"SoundDuration":108514,"Delta":157054843},{"NoteNumber":66,"Velocity":29,"Duration":108514,"SoundDuration":108514,"Delta":157163357},{"NoteNumber":73,"Velocity":46,"Duration":108514,"SoundDuration":108514,"Delta":157271872},{"NoteNumber":58,"Velocity":36,"Duration":108514,"SoundDuration":108514,"Delta":157271872},{"NoteNumber":66,"Velocity":33,"Duration":111185,"SoundDuration":111185,"Delta":157380387},{"NoteNumber":76,"Velocity":53,"Duration":216278,"SoundDuration":216278,"Delta":157491572},{"NoteNumber":59,"Velocity":40,"Duration":108139,"SoundDuration":108139,"Delta":157491572},{"NoteNumber":66,"Velocity":33,"Duration":108139,"SoundDuration":108139,"Delta":157599711},{"NoteNumber":74,"Velocity":47,"Duration":216278,"SoundDuration":216278,"Delta":157707851},{"NoteNumber":59,"Velocity":35,"Duration":108139,"SoundDuration":108139,"Delta":157707851},{"NoteNumber":66,"Velocity":33,"Duration":108139,"SoundDuration":108139,"Delta":157815990},{"NoteNumber":71,"Velocity":46,"Duration":108139,"SoundDuration":108139,"Delta":157924129},{"NoteNumber":59,"Velocity":35,"Duration":108139,"SoundDuration":108139,"Delta":157924129},{"NoteNumber":66,"Velocity":33,"Duration":112782,"SoundDuration":112782,"Delta":158032268},{"NoteNumber":70,"Velocity":53,"Duration":121879,"SoundDuration":121879,"Delta":158145050},{"NoteNumber":54,"Velocity":33,"Duration":221598,"SoundDuration":221598,"Delta":158145050},{"NoteNumber":71,"Velocity":48,"Duration":121879,"SoundDuration":121879,"Delta":158255850},{"NoteNumber":73,"Velocity":54,"Duration":121879,"SoundDuration":121879,"Delta":158366649},{"NoteNumber":74,"Velocity":50,"Duration":121879,"SoundDuration":121879,"Delta":158477448},{"NoteNumber":73,"Velocity":54,"Duration":122409,"SoundDuration":122409,"Delta":158588247},{"NoteNumber":74,"Velocity":47,"Duration":127217,"SoundDuration":127217,"Delta":158699047},{"NoteNumber":73,"Velocity":52,"Duration":222370,"SoundDuration":222370,"Delta":158815146},{"NoteNumber":54,"Velocity":44,"Duration":122303,"SoundDuration":122303,"Delta":158815146},{"NoteNumber":55,"Velocity":46,"Duration":122303,"SoundDuration":122303,"Delta":158926331},{"NoteNumber":54,"Velocity":47,"Duration":122303,"SoundDuration":122303,"Delta":159037516},{"NoteNumber":52,"Velocity":49,"Duration":122303,"SoundDuration":122303,"Delta":159148701},{"NoteNumber":50,"Velocity":51,"Duration":122303,"SoundDuration":122303,"Delta":159259887},{"NoteNumber":49,"Velocity":52,"Duration":122303,"SoundDuration":122303,"Delta":159371072},{"NoteNumber":74,"Velocity":56,"Duration":111185,"SoundDuration":111185,"Delta":159482257},{"NoteNumber":47,"Velocity":58,"Duration":222370,"SoundDuration":222370,"Delta":159482257},{"NoteNumber":83,"Velocity":48,"Duration":111185,"SoundDuration":111185,"Delta":159593442},{"NoteNumber":74,"Velocity":48,"Duration":108139,"SoundDuration":108139,"Delta":159704628},{"NoteNumber":66,"Velocity":52,"Duration":108139,"SoundDuration":108139,"Delta":159704628},{"NoteNumber":83,"Velocity":48,"Duration":107774,"SoundDuration":107774,"Delta":159812767},{"NoteNumber":74,"Velocity":56,"Duration":107774,"SoundDuration":107774,"Delta":159920541},{"NoteNumber":66,"Velocity":48,"Duration":107774,"SoundDuration":107774,"Delta":159920541},{"NoteNumber":83,"Velocity":47,"Duration":110799,"SoundDuration":110799,"Delta":160028315},{"NoteNumber":74,"Velocity":47,"Duration":107921,"SoundDuration":107921,"Delta":160139114},{"NoteNumber":67,"Velocity":44,"Duration":53960,"SoundDuration":53960,"Delta":160139114},{"NoteNumber":69,"Velocity":44,"Duration":53960,"SoundDuration":53960,"Delta":160193075},{"NoteNumber":83,"Velocity":46,"Duration":107921,"SoundDuration":107921,"Delta":160247036},{"NoteNumber":67,"Velocity":53,"Duration":107921,"SoundDuration":107921,"Delta":160247036},{"NoteNumber":74,"Velocity":56,"Duration":107921,"SoundDuration":107921,"Delta":160354957},{"NoteNumber":66,"Velocity":49,"Duration":107921,"SoundDuration":107921,"Delta":160354957},{"NoteNumber":83,"Velocity":47,"Duration":107921,"SoundDuration":107921,"Delta":160462879},{"NoteNumber":74,"Velocity":47,"Duration":107921,"SoundDuration":107921,"Delta":160570800},{"NoteNumber":66,"Velocity":46,"Duration":107921,"SoundDuration":107921,"Delta":160570800},{"NoteNumber":83,"Velocity":47,"Duration":111185,"SoundDuration":111185,"Delta":160678722},{"NoteNumber":73,"Velocity":56,"Duration":111185,"SoundDuration":111185,"Delta":160789907},{"NoteNumber":67,"Velocity":48,"Duration":55592,"SoundDuration":55592,"Delta":160789907},{"NoteNumber":69,"Velocity":48,"Duration":55592,"SoundDuration":55592,"Delta":160845499},{"NoteNumber":83,"Velocity":48,"Duration":111185,"SoundDuration":111185,"Delta":160901092},{"NoteNumber":67,"Velocity":52,"Duration":111185,"SoundDuration":111185,"Delta":160901092},{"NoteNumber":73,"Velocity":48,"Duration":108139,"SoundDuration":108139,"Delta":161012277},{"NoteNumber":66,"Velocity":52,"Duration":108139,"SoundDuration":108139,"Delta":161012277},{"NoteNumber":83,"Velocity":48,"Duration":107534,"SoundDuration":107534,"Delta":161120417},{"NoteNumber":73,"Velocity":56,"Duration":107534,"SoundDuration":107534,"Delta":161227951},{"NoteNumber":66,"Velocity":48,"Duration":107534,"SoundDuration":107534,"Delta":161227951},{"NoteNumber":83,"Velocity":47,"Duration":110799,"SoundDuration":110799,"Delta":161335486},{"NoteNumber":73,"Velocity":47,"Duration":107921,"SoundDuration":107921,"Delta":161446285},{"NoteNumber":66,"Velocity":52,"Duration":431686,"SoundDuration":431686,"Delta":161446285},{"NoteNumber":81,"Velocity":46,"Duration":107921,"SoundDuration":107921,"Delta":161554206},{"NoteNumber":73,"Velocity":56,"Duration":107921,"SoundDuration":107921,"Delta":161662128},{"NoteNumber":81,"Velocity":47,"Duration":107921,"SoundDuration":107921,"Delta":161770049},{"NoteNumber":73,"Velocity":47,"Duration":106382,"SoundDuration":106382,"Delta":161877971},{"NoteNumber":67,"Velocity":46,"Duration":106382,"SoundDuration":106382,"Delta":161877971},{"NoteNumber":81,"Velocity":47,"Duration":112359,"SoundDuration":112359,"Delta":161984354},{"NoteNumber":69,"Velocity":49,"Duration":112359,"SoundDuration":112359,"Delta":161984354},{"NoteNumber":75,"Velocity":56,"Duration":111110,"SoundDuration":111110,"Delta":162096713},{"NoteNumber":71,"Velocity":52,"Duration":222221,"SoundDuration":222221,"Delta":162096713},{"NoteNumber":81,"Velocity":48,"Duration":111110,"SoundDuration":111110,"Delta":162207824},{"NoteNumber":76,"Velocity":48,"Duration":108139,"SoundDuration":108139,"Delta":162318935},{"NoteNumber":64,"Velocity":48,"Duration":108139,"SoundDuration":108139,"Delta":162318935},{"NoteNumber":79,"Velocity":48,"Duration":107774,"SoundDuration":107774,"Delta":162427075},{"NoteNumber":76,"Velocity":56,"Duration":107921,"SoundDuration":107921,"Delta":162534849},{"NoteNumber":64,"Velocity":48,"Duration":107921,"SoundDuration":107921,"Delta":162534849},{"NoteNumber":79,"Velocity":47,"Duration":110799,"SoundDuration":110799,"Delta":162642770},{"NoteNumber":71,"Velocity":47,"Duration":107921,"SoundDuration":107921,"Delta":162753569},{"NoteNumber":66,"Velocity":48,"Duration":53960,"SoundDuration":53960,"Delta":162753569},{"NoteNumber":67,"Velocity":48,"Duration":53960,"SoundDuration":53960,"Delta":162807530},{"NoteNumber":79,"Velocity":46,"Duration":107921,"SoundDuration":107921,"Delta":162861491},{"NoteNumber":66,"Velocity":52,"Duration":107921,"SoundDuration":107921,"Delta":162861491},{"NoteNumber":71,"Velocity":56,"Duration":107921,"SoundDuration":107921,"Delta":162969412},{"NoteNumber":64,"Velocity":52,"Duration":107921,"SoundDuration":107921,"Delta":162969412},{"NoteNumber":79,"Velocity":47,"Duration":107921,"SoundDuration":107921,"Delta":163077334},{"NoteNumber":73,"Velocity":47,"Duration":107921,"SoundDuration":107921,"Delta":163185255},{"NoteNumber":64,"Velocity":48,"Duration":107921,"SoundDuration":107921,"Delta":163185255},{"NoteNumber":79,"Velocity":47,"Duration":111185,"SoundDuration":111185,"Delta":163293177},{"NoteNumber":69,"Velocity":56,"Duration":111185,"SoundDuration":111185,"Delta":163404362},{"NoteNumber":64,"Velocity":48,"Duration":55592,"SoundDuration":55592,"Delta":163404362},{"NoteNumber":66,"Velocity":48,"Duration":55592,"SoundDuration":55592,"Delta":163459955},{"NoteNumber":79,"Velocity":48,"Duration":111185,"SoundDuration":111185,"Delta":163515547},{"NoteNumber":64,"Velocity":56,"Duration":111185,"SoundDuration":111185,"Delta":163515547},{"NoteNumber":69,"Velocity":48,"Duration":108139,"SoundDuration":108139,"Delta":163626733},{"NoteNumber":62,"Velocity":48,"Duration":108139,"SoundDuration":108139,"Delta":163626733},{"NoteNumber":79,"Velocity":48,"Duration":107774,"SoundDuration":107774,"Delta":163734872},{"NoteNumber":69,"Velocity":56,"Duration":107774,"SoundDuration":107774,"Delta":163842646},{"NoteNumber":62,"Velocity":52,"Duration":107774,"SoundDuration":107774,"Delta":163842646},{"NoteNumber":79,"Velocity":47,"Duration":110799,"SoundDuration":110799,"Delta":163950420},{"NoteNumber":69,"Velocity":47,"Duration":107921,"SoundDuration":107921,"Delta":164061219},{"NoteNumber":62,"Velocity":52,"Duration":431686,"SoundDuration":431686,"Delta":164061219},{"NoteNumber":78,"Velocity":46,"Duration":107921,"SoundDuration":107921,"Delta":164169141},{"NoteNumber":69,"Velocity":56,"Duration":107921,"SoundDuration":107921,"Delta":164277062},{"NoteNumber":78,"Velocity":47,"Duration":107921,"SoundDuration":107921,"Delta":164384984},{"NoteNumber":69,"Velocity":47,"Duration":107921,"SoundDuration":107921,"Delta":164492905},{"NoteNumber":64,"Velocity":47,"Duration":107921,"SoundDuration":107921,"Delta":164492905},{"NoteNumber":78,"Velocity":47,"Duration":111185,"SoundDuration":111185,"Delta":164600827},{"NoteNumber":66,"Velocity":50,"Duration":111185,"SoundDuration":111185,"Delta":164600827},{"NoteNumber":71,"Velocity":56,"Duration":111185,"SoundDuration":111185,"Delta":164712012},{"NoteNumber":67,"Velocity":53,"Duration":222370,"SoundDuration":222370,"Delta":164712012},{"NoteNumber":78,"Velocity":48,"Duration":111185,"SoundDuration":111185,"Delta":164823197},{"NoteNumber":71,"Velocity":48,"Duration":108139,"SoundDuration":108139,"Delta":164934382},{"NoteNumber":55,"Velocity":50,"Duration":108139,"SoundDuration":108139,"Delta":164934382},{"NoteNumber":76,"Velocity":48,"Duration":107774,"SoundDuration":107774,"Delta":165042522},{"NoteNumber":71,"Velocity":56,"Duration":107774,"SoundDuration":107774,"Delta":165150296},{"NoteNumber":55,"Velocity":50,"Duration":107774,"SoundDuration":107774,"Delta":165150296},{"NoteNumber":75,"Velocity":47,"Duration":110799,"SoundDuration":110799,"Delta":165258070},{"NoteNumber":76,"Velocity":47,"Duration":107921,"SoundDuration":107921,"Delta":165368869},{"NoteNumber":55,"Velocity":49,"Duration":431686,"SoundDuration":431686,"Delta":165368869},{"NoteNumber":83,"Velocity":46,"Duration":107921,"SoundDuration":107921,"Delta":165476790},{"NoteNumber":76,"Velocity":56,"Duration":107921,"SoundDuration":107921,"Delta":165584712},{"NoteNumber":81,"Velocity":47,"Duration":107921,"SoundDuration":107921,"Delta":165692633},{"NoteNumber":76,"Velocity":47,"Duration":107921,"SoundDuration":107921,"Delta":165800555},{"NoteNumber":57,"Velocity":47,"Duration":107921,"SoundDuration":107921,"Delta":165800555},{"NoteNumber":80,"Velocity":47,"Duration":111185,"SoundDuration":111185,"Delta":165908476},{"NoteNumber":59,"Velocity":50,"Duration":111185,"SoundDuration":111185,"Delta":165908476},{"NoteNumber":76,"Velocity":56,"Duration":111185,"SoundDuration":111185,"Delta":166019662},{"NoteNumber":61,"Velocity":53,"Duration":222370,"SoundDuration":222370,"Delta":166019662},{"NoteNumber":81,"Velocity":48,"Duration":111185,"SoundDuration":111185,"Delta":166130847},{"NoteNumber":74,"Velocity":48,"Duration":108139,"SoundDuration":108139,"Delta":166242032},{"NoteNumber":54,"Velocity":47,"Duration":108139,"SoundDuration":108139,"Delta":166242032},{"NoteNumber":81,"Velocity":48,"Duration":107774,"SoundDuration":107774,"Delta":166350171},{"NoteNumber":73,"Velocity":56,"Duration":107774,"SoundDuration":107774,"Delta":166457945},{"NoteNumber":54,"Velocity":47,"Duration":107774,"SoundDuration":107774,"Delta":166457945},{"NoteNumber":81,"Velocity":47,"Duration":110799,"SoundDuration":110799,"Delta":166565719},{"NoteNumber":79,"Velocity":47,"Duration":107774,"SoundDuration":107774,"Delta":166676519},{"NoteNumber":54,"Velocity":49,"Duration":431095,"SoundDuration":431095,"Delta":166676519},{"NoteNumber":82,"Velocity":46,"Duration":107774,"SoundDuration":107774,"Delta":166784293},{"NoteNumber":78,"Velocity":56,"Duration":107773,"SoundDuration":107773,"Delta":166892067},{"NoteNumber":83,"Velocity":47,"Duration":107774,"SoundDuration":107774,"Delta":166999841},{"NoteNumber":76,"Velocity":47,"Duration":107774,"SoundDuration":107774,"Delta":167107615},{"NoteNumber":56,"Velocity":47,"Duration":107774,"SoundDuration":107774,"Delta":167107615},{"NoteNumber":85,"Velocity":47,"Duration":111185,"SoundDuration":111185,"Delta":167215389},{"NoteNumber":58,"Velocity":50,"Duration":111185,"SoundDuration":111185,"Delta":167215389},{"NoteNumber":74,"Velocity":56,"Duration":106081,"SoundDuration":106081,"Delta":167326574},{"NoteNumber":59,"Velocity":58,"Duration":212164,"SoundDuration":212164,"Delta":167326574},{"NoteNumber":85,"Velocity":48,"Duration":106082,"SoundDuration":106082,"Delta":167432656},{"NoteNumber":74,"Velocity":48,"Duration":108139,"SoundDuration":108139,"Delta":167538738},{"NoteNumber":54,"Velocity":49,"Duration":213847,"SoundDuration":213847,"Delta":167538738},{"NoteNumber":85,"Velocity":48,"Duration":105708,"SoundDuration":105708,"Delta":167646877},{"NoteNumber":74,"Velocity":56,"Duration":105708,"SoundDuration":105708,"Delta":167752585},{"NoteNumber":55,"Velocity":49,"Duration":105708,"SoundDuration":105708,"Delta":167752585},{"NoteNumber":83,"Velocity":47,"Duration":108381,"SoundDuration":108381,"Delta":167858294},{"NoteNumber":73,"Velocity":47,"Duration":105641,"SoundDuration":105641,"Delta":167966675},{"NoteNumber":52,"Velocity":53,"Duration":105641,"SoundDuration":105641,"Delta":167966675},{"NoteNumber":83,"Velocity":46,"Duration":105641,"SoundDuration":105641,"Delta":168072316},{"NoteNumber":73,"Velocity":56,"Duration":105641,"SoundDuration":105641,"Delta":168177958},{"NoteNumber":49,"Velocity":49,"Duration":105641,"SoundDuration":105641,"Delta":168177958},{"NoteNumber":83,"Velocity":47,"Duration":105641,"SoundDuration":105641,"Delta":168283599},{"NoteNumber":73,"Velocity":47,"Duration":105641,"SoundDuration":105641,"Delta":168389240},{"NoteNumber":66,"Velocity":49,"Duration":105641,"SoundDuration":105641,"Delta":168389240},{"NoteNumber":81,"Velocity":47,"Duration":108774,"SoundDuration":108774,"Delta":168494881},{"NoteNumber":71,"Velocity":56,"Duration":111185,"SoundDuration":111185,"Delta":168603656},{"NoteNumber":63,"Velocity":53,"Duration":222370,"SoundDuration":222370,"Delta":168603656},{"NoteNumber":81,"Velocity":48,"Duration":111185,"SoundDuration":111185,"Delta":168714841},{"NoteNumber":71,"Velocity":48,"Duration":106458,"SoundDuration":106458,"Delta":168826026},{"NoteNumber":59,"Velocity":49,"Duration":214232,"SoundDuration":214232,"Delta":168826026},{"NoteNumber":81,"Velocity":48,"Duration":107774,"SoundDuration":107774,"Delta":168932485},{"NoteNumber":71,"Velocity":56,"Duration":107774,"SoundDuration":107774,"Delta":169040259},{"NoteNumber":64,"Velocity":49,"Duration":107774,"SoundDuration":107774,"Delta":169040259},{"NoteNumber":79,"Velocity":47,"Duration":110799,"SoundDuration":110799,"Delta":169148033},{"NoteNumber":69,"Velocity":47,"Duration":105708,"SoundDuration":105708,"Delta":169258832},{"NoteNumber":61,"Velocity":53,"Duration":105708,"SoundDuration":105708,"Delta":169258832},{"NoteNumber":79,"Velocity":46,"Duration":105708,"SoundDuration":105708,"Delta":169364540},{"NoteNumber":69,"Velocity":56,"Duration":105708,"SoundDuration":105708,"Delta":169470249},{"NoteNumber":57,"Velocity":49,"Duration":105708,"SoundDuration":105708,"Delta":169470249},{"NoteNumber":79,"Velocity":47,"Duration":105708,"SoundDuration":105708,"Delta":169575957},{"NoteNumber":69,"Velocity":47,"Duration":105708,"SoundDuration":105708,"Delta":169681665},{"NoteNumber":50,"Velocity":49,"Duration":105708,"SoundDuration":105708,"Delta":169681665},{"NoteNumber":78,"Velocity":47,"Duration":109170,"SoundDuration":109170,"Delta":169787373},{"NoteNumber":67,"Velocity":56,"Duration":109568,"SoundDuration":109568,"Delta":169896544},{"NoteNumber":47,"Velocity":54,"Duration":219137,"SoundDuration":219137,"Delta":169896544},{"NoteNumber":78,"Velocity":48,"Duration":109568,"SoundDuration":109568,"Delta":170006113},{"NoteNumber":67,"Velocity":48,"Duration":106081,"SoundDuration":106081,"Delta":170115682},{"NoteNumber":43,"Velocity":50,"Duration":106081,"SoundDuration":106081,"Delta":170115682},{"NoteNumber":78,"Velocity":48,"Duration":107774,"SoundDuration":107774,"Delta":170221764},{"NoteNumber":67,"Velocity":56,"Duration":105336,"SoundDuration":105336,"Delta":170329538},{"NoteNumber":49,"Velocity":50,"Duration":105336,"SoundDuration":105336,"Delta":170329538},{"NoteNumber":76,"Velocity":47,"Duration":108381,"SoundDuration":108381,"Delta":170434875},{"NoteNumber":66,"Velocity":47,"Duration":105708,"SoundDuration":105708,"Delta":170543256},{"NoteNumber":46,"Velocity":53,"Duration":105708,"SoundDuration":105708,"Delta":170543256},{"NoteNumber":76,"Velocity":46,"Duration":105708,"SoundDuration":105708,"Delta":170648964},{"NoteNumber":66,"Velocity":56,"Duration":105708,"SoundDuration":105708,"Delta":170754673},{"NoteNumber":42,"Velocity":49,"Duration":105708,"SoundDuration":105708,"Delta":170754673},{"NoteNumber":76,"Velocity":47,"Duration":105708,"SoundDuration":105708,"Delta":170860381},{"NoteNumber":66,"Velocity":47,"Duration":105708,"SoundDuration":105708,"Delta":170966089},{"NoteNumber":59,"Velocity":49,"Duration":105708,"SoundDuration":105708,"Delta":170966089},{"NoteNumber":74,"Velocity":47,"Duration":108381,"SoundDuration":108381,"Delta":171071797},{"NoteNumber":64,"Velocity":56,"Duration":109568,"SoundDuration":109568,"Delta":171180179},{"NoteNumber":56,"Velocity":53,"Duration":219137,"SoundDuration":219137,"Delta":171180179},{"NoteNumber":74,"Velocity":48,"Duration":109568,"SoundDuration":109568,"Delta":171289748},{"NoteNumber":64,"Velocity":48,"Duration":106081,"SoundDuration":106081,"Delta":171399317},{"NoteNumber":52,"Velocity":49,"Duration":106081,"SoundDuration":106081,"Delta":171399317},{"NoteNumber":74,"Velocity":48,"Duration":105708,"SoundDuration":105708,"Delta":171505399},{"NoteNumber":64,"Velocity":56,"Duration":105708,"SoundDuration":105708,"Delta":171611107},{"NoteNumber":57,"Velocity":49,"Duration":105708,"SoundDuration":105708,"Delta":171611107},{"NoteNumber":72,"Velocity":47,"Duration":108381,"SoundDuration":108381,"Delta":171716815},{"NoteNumber":62,"Velocity":47,"Duration":105336,"SoundDuration":105336,"Delta":171825197},{"NoteNumber":54,"Velocity":53,"Duration":210674,"SoundDuration":210674,"Delta":171825197},{"NoteNumber":72,"Velocity":46,"Duration":105337,"SoundDuration":105337,"Delta":171930534},{"NoteNumber":62,"Velocity":56,"Duration":105336,"SoundDuration":105336,"Delta":172035871},{"NoteNumber":50,"Velocity":50,"Duration":105336,"SoundDuration":105336,"Delta":172035871},{"NoteNumber":72,"Velocity":47,"Duration":105336,"SoundDuration":105336,"Delta":172141208},{"NoteNumber":62,"Velocity":47,"Duration":105336,"SoundDuration":105336,"Delta":172246545},{"NoteNumber":55,"Velocity":50,"Duration":105336,"SoundDuration":105336,"Delta":172246545},{"NoteNumber":71,"Velocity":47,"Duration":111185,"SoundDuration":111185,"Delta":172351882},{"NoteNumber":64,"Velocity":53,"Duration":111441,"SoundDuration":111441,"Delta":172463067},{"NoteNumber":36,"Velocity":59,"Duration":1317611,"SoundDuration":1317611,"Delta":172463067},{"NoteNumber":48,"Velocity":59,"Duration":1317611,"SoundDuration":1317611,"Delta":172463067},{"NoteNumber":71,"Velocity":44,"Duration":110810,"SoundDuration":110810,"Delta":172574509},{"NoteNumber":69,"Velocity":45,"Duration":110079,"SoundDuration":110079,"Delta":172685319},{"NoteNumber":68,"Velocity":45,"Duration":109343,"SoundDuration":109343,"Delta":172795398},{"NoteNumber":69,"Velocity":46,"Duration":108643,"SoundDuration":108643,"Delta":172904741},{"NoteNumber":71,"Velocity":47,"Duration":109202,"SoundDuration":109202,"Delta":173013385},{"NoteNumber":72,"Velocity":49,"Duration":108212,"SoundDuration":108212,"Delta":173122587},{"NoteNumber":74,"Velocity":51,"Duration":108906,"SoundDuration":108906,"Delta":173230800},{"NoteNumber":76,"Velocity":51,"Duration":109396,"SoundDuration":109396,"Delta":173339706},{"NoteNumber":72,"Velocity":50,"Duration":110105,"SoundDuration":110105,"Delta":173449102},{"NoteNumber":71,"Velocity":49,"Duration":110687,"SoundDuration":110687,"Delta":173559208},{"NoteNumber":69,"Velocity":48,"Duration":110782,"SoundDuration":110782,"Delta":173669896},{"NoteNumber":59,"Velocity":55,"Duration":710870,"SoundDuration":710870,"Delta":173780678},{"NoteNumber":67,"Velocity":55,"Duration":710870,"SoundDuration":710870,"Delta":173780678},{"NoteNumber":50,"Velocity":47,"Duration":118110,"SoundDuration":118110,"Delta":174011465},{"NoteNumber":50,"Velocity":47,"Duration":121931,"SoundDuration":121931,"Delta":174247686},{"NoteNumber":66,"Velocity":47,"Duration":231660,"SoundDuration":231660,"Delta":174491549},{"NoteNumber":57,"Velocity":47,"Duration":231660,"SoundDuration":231660,"Delta":174491549},{"NoteNumber":50,"Velocity":53,"Duration":115829,"SoundDuration":115829,"Delta":174491549},{"NoteNumber":52,"Velocity":47,"Duration":115830,"SoundDuration":115830,"Delta":174607379},{"NoteNumber":50,"Velocity":53,"Duration":115829,"SoundDuration":115829,"Delta":174723209},{"NoteNumber":48,"Velocity":51,"Duration":115830,"SoundDuration":115830,"Delta":174839039},{"NoteNumber":47,"Velocity":50,"Duration":115829,"SoundDuration":115829,"Delta":174954869},{"NoteNumber":45,"Velocity":48,"Duration":115829,"SoundDuration":115829,"Delta":175070699},{"NoteNumber":43,"Velocity":47,"Duration":247933,"SoundDuration":247933,"Delta":175186529},{"NoteNumber":74,"Velocity":48,"Duration":120967,"SoundDuration":120967,"Delta":175434463},{"NoteNumber":74,"Velocity":49,"Duration":119521,"SoundDuration":119521,"Delta":175676888},{"NoteNumber":74,"Velocity":51,"Duration":120000,"SoundDuration":120000,"Delta":175915932},{"NoteNumber":74,"Velocity":52,"Duration":120000,"SoundDuration":120000,"Delta":176155932},{"NoteNumber":74,"Velocity":54,"Duration":131004,"SoundDuration":131004,"Delta":176395932},{"NoteNumber":74,"Velocity":56,"Duration":737370,"SoundDuration":737370,"Delta":176657941},{"NoteNumber":60,"Velocity":25,"Duration":122950,"SoundDuration":122950,"Delta":176899876},{"NoteNumber":57,"Velocity":25,"Duration":122950,"SoundDuration":122950,"Delta":176899876},{"NoteNumber":62,"Velocity":30,"Duration":122950,"SoundDuration":122950,"Delta":176899876},{"NoteNumber":57,"Velocity":25,"Duration":122950,"SoundDuration":122950,"Delta":177145778},{"NoteNumber":62,"Velocity":30,"Duration":122950,"SoundDuration":122950,"Delta":177145778},{"NoteNumber":60,"Velocity":25,"Duration":122950,"SoundDuration":122950,"Delta":177145778},{"NoteNumber":66,"Velocity":52,"Duration":242915,"SoundDuration":242915,"Delta":177395311},{"NoteNumber":57,"Velocity":28,"Duration":121457,"SoundDuration":121457,"Delta":177395311},{"NoteNumber":60,"Velocity":28,"Duration":121457,"SoundDuration":121457,"Delta":177395311},{"NoteNumber":62,"Velocity":34,"Duration":121457,"SoundDuration":121457,"Delta":177395311},{"NoteNumber":57,"Velocity":25,"Duration":121457,"SoundDuration":121457,"Delta":177638226},{"NoteNumber":60,"Velocity":25,"Duration":121457,"SoundDuration":121457,"Delta":177638226},{"NoteNumber":62,"Velocity":30,"Duration":121457,"SoundDuration":121457,"Delta":177638226},{"NoteNumber":62,"Velocity":29,"Duration":120967,"SoundDuration":120967,"Delta":177883650},{"NoteNumber":57,"Velocity":25,"Duration":120967,"SoundDuration":120967,"Delta":177883650},{"NoteNumber":60,"Velocity":25,"Duration":120967,"SoundDuration":120967,"Delta":177883650},{"NoteNumber":59,"Velocity":34,"Duration":238094,"SoundDuration":238094,"Delta":178125586},{"NoteNumber":62,"Velocity":41,"Duration":238094,"SoundDuration":238094,"Delta":178125586},{"NoteNumber":67,"Velocity":50,"Duration":119047,"SoundDuration":119047,"Delta":178363681},{"NoteNumber":71,"Velocity":51,"Duration":116278,"SoundDuration":116278,"Delta":178601776},{"NoteNumber":74,"Velocity":53,"Duration":116278,"SoundDuration":116278,"Delta":178834334},{"NoteNumber":79,"Velocity":54,"Duration":119047,"SoundDuration":119047,"Delta":179066892},{"NoteNumber":83,"Velocity":56,"Duration":123456,"SoundDuration":123456,"Delta":179304987},{"NoteNumber":86,"Velocity":57,"Duration":728957,"SoundDuration":728957,"Delta":179551900},{"NoteNumber":62,"Velocity":33,"Duration":122950,"SoundDuration":122950,"Delta":179789054},{"NoteNumber":54,"Velocity":28,"Duration":122950,"SoundDuration":122950,"Delta":179789054},{"NoteNumber":57,"Velocity":28,"Duration":122950,"SoundDuration":122950,"Delta":179789054},{"NoteNumber":54,"Velocity":27,"Duration":122950,"SoundDuration":122950,"Delta":180034956},{"NoteNumber":57,"Velocity":27,"Duration":122950,"SoundDuration":122950,"Delta":180034956},{"NoteNumber":62,"Velocity":32,"Duration":122950,"SoundDuration":122950,"Delta":180034956},{"NoteNumber":84,"Velocity":55,"Duration":241935,"SoundDuration":241935,"Delta":180280857},{"NoteNumber":57,"Velocity":30,"Duration":120967,"SoundDuration":120967,"Delta":180280857},{"NoteNumber":62,"Velocity":36,"Duration":120967,"SoundDuration":120967,"Delta":180280857},{"NoteNumber":54,"Velocity":30,"Duration":120967,"SoundDuration":120967,"Delta":180280857},{"NoteNumber":57,"Velocity":26,"Duration":120967,"SoundDuration":120967,"Delta":180522793},{"NoteNumber":62,"Velocity":31,"Duration":120967,"SoundDuration":120967,"Delta":180522793},{"NoteNumber":54,"Velocity":26,"Duration":120967,"SoundDuration":120967,"Delta":180522793},{"NoteNumber":62,"Velocity":31,"Duration":120967,"SoundDuration":120967,"Delta":180764728},{"NoteNumber":57,"Velocity":25,"Duration":120967,"SoundDuration":120967,"Delta":180764728},{"NoteNumber":54,"Velocity":25,"Duration":120967,"SoundDuration":120967,"Delta":180764728},{"NoteNumber":62,"Velocity":42,"Duration":120967,"SoundDuration":120967,"Delta":181006664},{"NoteNumber":55,"Velocity":35,"Duration":120967,"SoundDuration":120967,"Delta":181006664},{"NoteNumber":83,"Velocity":52,"Duration":116278,"SoundDuration":116278,"Delta":181248599},{"NoteNumber":84,"Velocity":54,"Duration":116279,"SoundDuration":116279,"Delta":181364878},{"NoteNumber":86,"Velocity":55,"Duration":116278,"SoundDuration":116278,"Delta":181481157},{"NoteNumber":83,"Velocity":51,"Duration":124481,"SoundDuration":124481,"Delta":181597436},{"NoteNumber":79,"Velocity":55,"Duration":116278,"SoundDuration":116278,"Delta":181721917},{"NoteNumber":59,"Velocity":35,"Duration":116278,"SoundDuration":116278,"Delta":181721917},{"NoteNumber":62,"Velocity":42,"Duration":116278,"SoundDuration":116278,"Delta":181721917},{"NoteNumber":79,"Velocity":53,"Duration":116278,"SoundDuration":116278,"Delta":181954475},{"NoteNumber":81,"Velocity":55,"Duration":116278,"SoundDuration":116278,"Delta":182070754},{"NoteNumber":83,"Velocity":58,"Duration":116278,"SoundDuration":116278,"Delta":182187033},{"NoteNumber":79,"Velocity":52,"Duration":123966,"SoundDuration":123966,"Delta":182303312},{"NoteNumber":76,"Velocity":55,"Duration":115829,"SoundDuration":115829,"Delta":182427279},{"NoteNumber":67,"Velocity":42,"Duration":115829,"SoundDuration":115829,"Delta":182427279},{"NoteNumber":60,"Velocity":35,"Duration":115829,"SoundDuration":115829,"Delta":182427279},{"NoteNumber":76,"Velocity":51,"Duration":115829,"SoundDuration":115829,"Delta":182658939},{"NoteNumber":78,"Velocity":54,"Duration":115830,"SoundDuration":115830,"Delta":182774769},{"NoteNumber":79,"Velocity":56,"Duration":115829,"SoundDuration":115829,"Delta":182890599},{"NoteNumber":76,"Velocity":51,"Duration":115473,"SoundDuration":115473,"Delta":183006429},{"NoteNumber":73,"Velocity":55,"Duration":114942,"SoundDuration":114942,"Delta":183121903},{"NoteNumber":67,"Velocity":42,"Duration":114942,"SoundDuration":114942,"Delta":183121903},{"NoteNumber":64,"Velocity":35,"Duration":114942,"SoundDuration":114942,"Delta":183121903},{"NoteNumber":73,"Velocity":51,"Duration":114942,"SoundDuration":114942,"Delta":183351788},{"NoteNumber":74,"Velocity":53,"Duration":114942,"SoundDuration":114942,"Delta":183466730},{"NoteNumber":76,"Velocity":56,"Duration":114942,"SoundDuration":114942,"Delta":183581673},{"NoteNumber":73,"Velocity":52,"Duration":122701,"SoundDuration":122701,"Delta":183696615},{"NoteNumber":74,"Velocity":54,"Duration":231468,"SoundDuration":231468,"Delta":183819317},{"NoteNumber":62,"Velocity":38,"Duration":231468,"SoundDuration":231468,"Delta":183819317},{"NoteNumber":76,"Velocity":56,"Duration":235581,"SoundDuration":235581,"Delta":184050785},{"NoteNumber":61,"Velocity":40,"Duration":235581,"SoundDuration":235581,"Delta":184050785},{"NoteNumber":78,"Velocity":58,"Duration":241935,"SoundDuration":241935,"Delta":184286366},{"NoteNumber":60,"Velocity":42,"Duration":241935,"SoundDuration":241935,"Delta":184286366},{"NoteNumber":79,"Velocity":61,"Duration":241935,"SoundDuration":241935,"Delta":184528302},{"NoteNumber":59,"Velocity":44,"Duration":241935,"SoundDuration":241935,"Delta":184528302},{"NoteNumber":76,"Velocity":58,"Duration":120967,"SoundDuration":120967,"Delta":184770237},{"NoteNumber":60,"Velocity":43,"Duration":241935,"SoundDuration":241935,"Delta":184770237},{"NoteNumber":72,"Velocity":54,"Duration":127118,"SoundDuration":127118,"Delta":185012173},{"NoteNumber":64,"Velocity":39,"Duration":254237,"SoundDuration":254237,"Delta":185012173},{"NoteNumber":67,"Velocity":55,"Duration":743801,"SoundDuration":743801,"Delta":185266410},{"NoteNumber":71,"Velocity":55,"Duration":743801,"SoundDuration":743801,"Delta":185266410},{"NoteNumber":62,"Velocity":41,"Duration":123967,"SoundDuration":123967,"Delta":185514344},{"NoteNumber":62,"Velocity":41,"Duration":123966,"SoundDuration":123966,"Delta":185762278},{"NoteNumber":66,"Velocity":50,"Duration":247934,"SoundDuration":247934,"Delta":186010212},{"NoteNumber":69,"Velocity":50,"Duration":247934,"SoundDuration":247934,"Delta":186010212},{"NoteNumber":62,"Velocity":38,"Duration":123967,"SoundDuration":123967,"Delta":186010212},{"NoteNumber":64,"Velocity":40,"Duration":123966,"SoundDuration":123966,"Delta":186134179},{"NoteNumber":62,"Velocity":42,"Duration":123966,"SoundDuration":123966,"Delta":186258146},{"NoteNumber":60,"Velocity":44,"Duration":123966,"SoundDuration":123966,"Delta":186382113},{"NoteNumber":59,"Velocity":42,"Duration":123967,"SoundDuration":123967,"Delta":186506080},{"NoteNumber":57,"Velocity":40,"Duration":123966,"SoundDuration":123966,"Delta":186630047},{"NoteNumber":55,"Velocity":47,"Duration":238094,"SoundDuration":238094,"Delta":186754014},{"NoteNumber":74,"Velocity":48,"Duration":123966,"SoundDuration":123966,"Delta":186992109},{"NoteNumber":74,"Velocity":49,"Duration":123967,"SoundDuration":123967,"Delta":187240043},{"NoteNumber":76,"Velocity":51,"Duration":61983,"SoundDuration":61983,"Delta":187487977},{"NoteNumber":78,"Velocity":51,"Duration":61983,"SoundDuration":61983,"Delta":187549961},{"NoteNumber":76,"Velocity":51,"Duration":123966,"SoundDuration":123966,"Delta":187611944},{"NoteNumber":74,"Velocity":52,"Duration":123967,"SoundDuration":123967,"Delta":187735911},{"NoteNumber":74,"Velocity":54,"Duration":120967,"SoundDuration":120967,"Delta":187983845},{"NoteNumber":74,"Velocity":56,"Duration":737729,"SoundDuration":737729,"Delta":188225781},{"NoteNumber":60,"Velocity":25,"Duration":123456,"SoundDuration":123456,"Delta":188469683},{"NoteNumber":57,"Velocity":25,"Duration":123456,"SoundDuration":123456,"Delta":188469683},{"NoteNumber":62,"Velocity":30,"Duration":123456,"SoundDuration":123456,"Delta":188469683},{"NoteNumber":62,"Velocity":30,"Duration":123456,"SoundDuration":123456,"Delta":188716597},{"NoteNumber":60,"Velocity":25,"Duration":123456,"SoundDuration":123456,"Delta":188716597},{"NoteNumber":57,"Velocity":25,"Duration":123456,"SoundDuration":123456,"Delta":188716597},{"NoteNumber":66,"Velocity":52,"Duration":246913,"SoundDuration":246913,"Delta":188963510},{"NoteNumber":60,"Velocity":28,"Duration":123456,"SoundDuration":123456,"Delta":188963510},{"NoteNumber":57,"Velocity":28,"Duration":123456,"SoundDuration":123456,"Delta":188963510},{"NoteNumber":62,"Velocity":34,"Duration":123456,"SoundDuration":123456,"Delta":188963510},{"NoteNumber":62,"Velocity":30,"Duration":123456,"SoundDuration":123456,"Delta":189210424},{"NoteNumber":60,"Velocity":25,"Duration":123456,"SoundDuration":123456,"Delta":189210424},{"NoteNumber":57,"Velocity":25,"Duration":123456,"SoundDuration":123456,"Delta":189210424},{"NoteNumber":62,"Velocity":29,"Duration":121457,"SoundDuration":121457,"Delta":189457337},{"NoteNumber":60,"Velocity":25,"Duration":121457,"SoundDuration":121457,"Delta":189457337},{"NoteNumber":57,"Velocity":25,"Duration":121457,"SoundDuration":121457,"Delta":189457337},{"NoteNumber":59,"Velocity":34,"Duration":235294,"SoundDuration":235294,"Delta":189700252},{"NoteNumber":62,"Velocity":41,"Duration":235294,"SoundDuration":235294,"Delta":189700252},{"NoteNumber":67,"Velocity":50,"Duration":117647,"SoundDuration":117647,"Delta":189817899},{"NoteNumber":71,"Velocity":52,"Duration":117646,"SoundDuration":117646,"Delta":189935546},{"NoteNumber":67,"Velocity":52,"Duration":117647,"SoundDuration":117647,"Delta":190053193},{"NoteNumber":74,"Velocity":53,"Duration":113636,"SoundDuration":113636,"Delta":190170840},{"NoteNumber":71,"Velocity":54,"Duration":113636,"SoundDuration":113636,"Delta":190284476},{"NoteNumber":79,"Velocity":55,"Duration":113636,"SoundDuration":113636,"Delta":190398113},{"NoteNumber":74,"Velocity":56,"Duration":113636,"SoundDuration":113636,"Delta":190511749},{"NoteNumber":83,"Velocity":57,"Duration":115829,"SoundDuration":115829,"Delta":190625385},{"NoteNumber":79,"Velocity":58,"Duration":115830,"SoundDuration":115830,"Delta":190741215},{"NoteNumber":86,"Velocity":59,"Duration":120482,"SoundDuration":120482,"Delta":190857045},{"NoteNumber":83,"Velocity":60,"Duration":120481,"SoundDuration":120481,"Delta":190977527},{"NoteNumber":86,"Velocity":66,"Duration":622406,"SoundDuration":622406,"Delta":191098009},{"NoteNumber":54,"Velocity":28,"Duration":124481,"SoundDuration":124481,"Delta":191346972},{"NoteNumber":57,"Velocity":28,"Duration":124481,"SoundDuration":124481,"Delta":191346972},{"NoteNumber":62,"Velocity":33,"Duration":124481,"SoundDuration":124481,"Delta":191346972},{"NoteNumber":54,"Velocity":27,"Duration":124481,"SoundDuration":124481,"Delta":191595934},{"NoteNumber":57,"Velocity":27,"Duration":124481,"SoundDuration":124481,"Delta":191595934},{"NoteNumber":62,"Velocity":32,"Duration":124481,"SoundDuration":124481,"Delta":191595934},{"NoteNumber":85,"Velocity":57,"Duration":124481,"SoundDuration":124481,"Delta":191720415},{"NoteNumber":84,"Velocity":64,"Duration":247933,"SoundDuration":247933,"Delta":191844897},{"NoteNumber":62,"Velocity":36,"Duration":123966,"SoundDuration":123966,"Delta":191844897},{"NoteNumber":57,"Velocity":30,"Duration":123966,"SoundDuration":123966,"Delta":191844897},{"NoteNumber":54,"Velocity":30,"Duration":123966,"SoundDuration":123966,"Delta":191844897},{"NoteNumber":62,"Velocity":31,"Duration":123967,"SoundDuration":123967,"Delta":192092831},{"NoteNumber":57,"Velocity":26,"Duration":123967,"SoundDuration":123967,"Delta":192092831},{"NoteNumber":54,"Velocity":26,"Duration":123967,"SoundDuration":123967,"Delta":192092831},{"NoteNumber":62,"Velocity":31,"Duration":123966,"SoundDuration":123966,"Delta":192340765},{"NoteNumber":54,"Velocity":25,"Duration":123966,"SoundDuration":123966,"Delta":192340765},{"NoteNumber":57,"Velocity":25,"Duration":123966,"SoundDuration":123966,"Delta":192340765},{"NoteNumber":55,"Velocity":35,"Duration":123967,"SoundDuration":123967,"Delta":192588699},{"NoteNumber":62,"Velocity":42,"Duration":123967,"SoundDuration":123967,"Delta":192588699},{"NoteNumber":83,"Velocity":52,"Duration":114942,"SoundDuration":114942,"Delta":192836633},{"NoteNumber":84,"Velocity":54,"Duration":114942,"SoundDuration":114942,"Delta":192951575},{"NoteNumber":86,"Velocity":55,"Duration":114942,"SoundDuration":114942,"Delta":193066518},{"NoteNumber":83,"Velocity":51,"Duration":120967,"SoundDuration":120967,"Delta":193181460},{"NoteNumber":79,"Velocity":55,"Duration":115829,"SoundDuration":115829,"Delta":193302428},{"NoteNumber":59,"Velocity":35,"Duration":115829,"SoundDuration":115829,"Delta":193302428},{"NoteNumber":62,"Velocity":42,"Duration":115829,"SoundDuration":115829,"Delta":193302428},{"NoteNumber":79,"Velocity":53,"Duration":115829,"SoundDuration":115829,"Delta":193534088},{"NoteNumber":81,"Velocity":55,"Duration":115830,"SoundDuration":115830,"Delta":193649918},{"NoteNumber":83,"Velocity":58,"Duration":115829,"SoundDuration":115829,"Delta":193765748},{"NoteNumber":79,"Velocity":52,"Duration":121457,"SoundDuration":121457,"Delta":193881578},{"NoteNumber":76,"Velocity":55,"Duration":116278,"SoundDuration":116278,"Delta":194003035},{"NoteNumber":60,"Velocity":35,"Duration":116278,"SoundDuration":116278,"Delta":194003035},{"NoteNumber":67,"Velocity":42,"Duration":116278,"SoundDuration":116278,"Delta":194003035},{"NoteNumber":76,"Velocity":51,"Duration":116278,"SoundDuration":116278,"Delta":194235593},{"NoteNumber":78,"Velocity":54,"Duration":116278,"SoundDuration":116278,"Delta":194351872},{"NoteNumber":79,"Velocity":56,"Duration":116278,"SoundDuration":116278,"Delta":194468151},{"NoteNumber":76,"Velocity":51,"Duration":121457,"SoundDuration":121457,"Delta":194584430},{"NoteNumber":73,"Velocity":55,"Duration":114503,"SoundDuration":114503,"Delta":194705888},{"NoteNumber":64,"Velocity":35,"Duration":114503,"SoundDuration":114503,"Delta":194705888},{"NoteNumber":67,"Velocity":42,"Duration":114503,"SoundDuration":114503,"Delta":194705888},{"NoteNumber":73,"Velocity":51,"Duration":114503,"SoundDuration":114503,"Delta":194934895},{"NoteNumber":74,"Velocity":53,"Duration":114503,"SoundDuration":114503,"Delta":195049399},{"NoteNumber":76,"Velocity":56,"Duration":114503,"SoundDuration":114503,"Delta":195163903},{"NoteNumber":73,"Velocity":52,"Duration":119684,"SoundDuration":119684,"Delta":195278407},{"NoteNumber":74,"Velocity":54,"Duration":232960,"SoundDuration":232960,"Delta":195398091},{"NoteNumber":50,"Velocity":38,"Duration":1448449,"SoundDuration":1448449,"Delta":195398091},{"NoteNumber":62,"Velocity":38,"Duration":1448449,"SoundDuration":1448449,"Delta":195398091},{"NoteNumber":73,"Velocity":56,"Duration":241561,"SoundDuration":241561,"Delta":195631051},{"NoteNumber":72,"Velocity":58,"Duration":244898,"SoundDuration":244898,"Delta":195872612},{"NoteNumber":71,"Velocity":61,"Duration":244898,"SoundDuration":244898,"Delta":196117510},{"NoteNumber":72,"Velocity":58,"Duration":244897,"SoundDuration":244897,"Delta":196362408},{"NoteNumber":69,"Velocity":55,"Duration":39872,"SoundDuration":39872,"Delta":196607306},{"NoteNumber":71,"Velocity":50,"Duration":39872,"SoundDuration":39872,"Delta":196647179},{"NoteNumber":69,"Velocity":51,"Duration":39872,"SoundDuration":39872,"Delta":196687051},{"NoteNumber":67,"Velocity":54,"Duration":59808,"SoundDuration":59808,"Delta":196726923},{"NoteNumber":69,"Velocity":49,"Duration":59808,"SoundDuration":59808,"Delta":196786732},{"NoteNumber":67,"Velocity":55,"Duration":112866,"SoundDuration":112866,"Delta":196846541},{"NoteNumber":55,"Velocity":46,"Duration":112866,"SoundDuration":112866,"Delta":196846541},{"NoteNumber":59,"Velocity":66,"Duration":100341,"SoundDuration":100341,"Delta":197298008},{"NoteNumber":47,"Velocity":45,"Duration":100341,"SoundDuration":100341,"Delta":197298008},{"NoteNumber":62,"Velocity":66,"Duration":104536,"SoundDuration":104536,"Delta":197398349},{"NoteNumber":50,"Velocity":45,"Duration":104536,"SoundDuration":104536,"Delta":197398349},{"NoteNumber":67,"Velocity":73,"Duration":102395,"SoundDuration":102395,"Delta":197502886},{"NoteNumber":55,"Velocity":52,"Duration":102395,"SoundDuration":102395,"Delta":197502886},{"NoteNumber":62,"Velocity":70,"Duration":99674,"SoundDuration":99674,"Delta":197912470},{"NoteNumber":50,"Velocity":48,"Duration":99674,"SoundDuration":99674,"Delta":197912470},{"NoteNumber":67,"Velocity":70,"Duration":105641,"SoundDuration":105641,"Delta":198012144},{"NoteNumber":55,"Velocity":48,"Duration":105641,"SoundDuration":105641,"Delta":198012144},{"NoteNumber":71,"Velocity":75,"Duration":102395,"SoundDuration":102395,"Delta":198117786},{"NoteNumber":59,"Velocity":57,"Duration":102395,"SoundDuration":102395,"Delta":198117786},{"NoteNumber":67,"Velocity":69,"Duration":100341,"SoundDuration":100341,"Delta":198527370},{"NoteNumber":55,"Velocity":51,"Duration":100341,"SoundDuration":100341,"Delta":198527370},{"NoteNumber":71,"Velocity":69,"Duration":105641,"SoundDuration":105641,"Delta":198627711},{"NoteNumber":59,"Velocity":51,"Duration":105641,"SoundDuration":105641,"Delta":198627711},{"NoteNumber":74,"Velocity":81,"Duration":102395,"SoundDuration":102395,"Delta":198733352},{"NoteNumber":62,"Velocity":57,"Duration":102395,"SoundDuration":102395,"Delta":198733352},{"NoteNumber":71,"Velocity":70,"Duration":100677,"SoundDuration":100677,"Delta":199142936},{"NoteNumber":59,"Velocity":48,"Duration":100677,"SoundDuration":100677,"Delta":199142936},{"NoteNumber":74,"Velocity":70,"Duration":106014,"SoundDuration":106014,"Delta":199243614},{"NoteNumber":62,"Velocity":48,"Duration":106014,"SoundDuration":106014,"Delta":199243614},{"NoteNumber":79,"Velocity":82,"Duration":102395,"SoundDuration":102395,"Delta":199349629},{"NoteNumber":67,"Velocity":57,"Duration":102395,"SoundDuration":102395,"Delta":199349629},{"NoteNumber":83,"Velocity":45,"Duration":511979,"SoundDuration":511979,"Delta":200578381},{"NoteNumber":84,"Velocity":42,"Duration":105641,"SoundDuration":105641,"Delta":201090361},{"NoteNumber":76,"Velocity":47,"Duration":409583,"SoundDuration":409583,"Delta":201196002},{"NoteNumber":66,"Velocity":27,"Duration":615077,"SoundDuration":615077,"Delta":201196002},{"NoteNumber":69,"Velocity":32,"Duration":615077,"SoundDuration":615077,"Delta":201196002},{"NoteNumber":59,"Velocity":29,"Duration":615077,"SoundDuration":615077,"Delta":201196002},{"NoteNumber":75,"Velocity":47,"Duration":205493,"SoundDuration":205493,"Delta":201605586},{"NoteNumber":76,"Velocity":55,"Duration":152552,"SoundDuration":152552,"Delta":201811079},{"NoteNumber":67,"Velocity":35,"Duration":203403,"SoundDuration":203403,"Delta":201811079},{"NoteNumber":64,"Velocity":29,"Duration":203403,"SoundDuration":203403,"Delta":201811079},{"NoteNumber":88,"Velocity":54,"Duration":100341,"SoundDuration":100341,"Delta":202014483},{"NoteNumber":86,"Velocity":52,"Duration":100341,"SoundDuration":100341,"Delta":202215165},{"NoteNumber":84,"Velocity":50,"Duration":100341,"SoundDuration":100341,"Delta":202415848},{"NoteNumber":83,"Velocity":49,"Duration":100341,"SoundDuration":100341,"Delta":202616530},{"NoteNumber":82,"Velocity":47,"Duration":103455,"SoundDuration":103455,"Delta":202817213},{"NoteNumber":83,"Velocity":45,"Duration":259198,"SoundDuration":259198,"Delta":203024124},{"NoteNumber":84,"Velocity":35,"Duration":50850,"SoundDuration":50850,"Delta":203283323},{"NoteNumber":83,"Velocity":35,"Duration":50850,"SoundDuration":50850,"Delta":203334174},{"NoteNumber":82,"Velocity":35,"Duration":50850,"SoundDuration":50850,"Delta":203385025},{"NoteNumber":83,"Velocity":45,"Duration":101701,"SoundDuration":101701,"Delta":203435875},{"NoteNumber":84,"Velocity":42,"Duration":107534,"SoundDuration":107534,"Delta":203537577},{"NoteNumber":76,"Velocity":47,"Duration":409583,"SoundDuration":409583,"Delta":203645112},{"NoteNumber":69,"Velocity":32,"Duration":615077,"SoundDuration":615077,"Delta":203645112},{"NoteNumber":66,"Velocity":27,"Duration":615077,"SoundDuration":615077,"Delta":203645112},{"NoteNumber":59,"Velocity":29,"Duration":615077,"SoundDuration":615077,"Delta":203645112},{"NoteNumber":75,"Velocity":47,"Duration":205249,"SoundDuration":205249,"Delta":204078670},{"NoteNumber":76,"Velocity":55,"Duration":152552,"SoundDuration":152552,"Delta":204260189},{"NoteNumber":64,"Velocity":29,"Duration":203403,"SoundDuration":203403,"Delta":204260189},{"NoteNumber":67,"Velocity":35,"Duration":203403,"SoundDuration":203403,"Delta":204260189},{"NoteNumber":88,"Velocity":54,"Duration":100341,"SoundDuration":100341,"Delta":204463593},{"NoteNumber":86,"Velocity":52,"Duration":100341,"SoundDuration":100341,"Delta":204664275},{"NoteNumber":84,"Velocity":50,"Duration":100341,"SoundDuration":100341,"Delta":204864958},{"NoteNumber":83,"Velocity":49,"Duration":100341,"SoundDuration":100341,"Delta":205065640},{"NoteNumber":82,"Velocity":47,"Duration":103455,"SoundDuration":103455,"Delta":205266323},{"NoteNumber":81,"Velocity":45,"Duration":259198,"SoundDuration":259198,"Delta":205473234},{"NoteNumber":83,"Velocity":35,"Duration":50850,"SoundDuration":50850,"Delta":205732433},{"NoteNumber":81,"Velocity":35,"Duration":50850,"SoundDuration":50850,"Delta":205783283},{"NoteNumber":80,"Velocity":35,"Duration":50850,"SoundDuration":50850,"Delta":205834134},{"NoteNumber":81,"Velocity":45,"Duration":101701,"SoundDuration":101701,"Delta":205884985},{"NoteNumber":83,"Velocity":42,"Duration":107534,"SoundDuration":107534,"Delta":205986687},{"NoteNumber":74,"Velocity":47,"Duration":409583,"SoundDuration":409583,"Delta":206094221},{"NoteNumber":57,"Velocity":29,"Duration":620866,"SoundDuration":620866,"Delta":206094221},{"NoteNumber":64,"Velocity":27,"Duration":620866,"SoundDuration":620866,"Delta":206094221},{"NoteNumber":67,"Velocity":32,"Duration":620866,"SoundDuration":620866,"Delta":206094221},{"NoteNumber":73,"Velocity":47,"Duration":210363,"SoundDuration":210363,"Delta":206528455},{"NoteNumber":74,"Velocity":55,"Duration":152552,"SoundDuration":152552,"Delta":206715088},{"NoteNumber":66,"Velocity":35,"Duration":203403,"SoundDuration":203403,"Delta":206715088},{"NoteNumber":62,"Velocity":29,"Duration":203403,"SoundDuration":203403,"Delta":206715088},{"NoteNumber":86,"Velocity":54,"Duration":100341,"SoundDuration":100341,"Delta":206918491},{"NoteNumber":85,"Velocity":52,"Duration":100341,"SoundDuration":100341,"Delta":207119174},{"NoteNumber":83,"Velocity":50,"Duration":100341,"SoundDuration":100341,"Delta":207319856},{"NoteNumber":81,"Velocity":49,"Duration":100341,"SoundDuration":100341,"Delta":207520539},{"NoteNumber":80,"Velocity":47,"Duration":103455,"SoundDuration":103455,"Delta":207721221},{"NoteNumber":81,"Velocity":45,"Duration":259198,"SoundDuration":259198,"Delta":207928132},{"NoteNumber":83,"Velocity":35,"Duration":50850,"SoundDuration":50850,"Delta":208187331},{"NoteNumber":81,"Velocity":35,"Duration":50850,"SoundDuration":50850,"Delta":208238182},{"NoteNumber":80,"Velocity":35,"Duration":50850,"SoundDuration":50850,"Delta":208289033},{"NoteNumber":81,"Velocity":45,"Duration":101701,"SoundDuration":101701,"Delta":208339884},{"NoteNumber":83,"Velocity":42,"Duration":107534,"SoundDuration":107534,"Delta":208441586},{"NoteNumber":74,"Velocity":47,"Duration":409583,"SoundDuration":409583,"Delta":208549120},{"NoteNumber":64,"Velocity":27,"Duration":615077,"SoundDuration":615077,"Delta":208549120},{"NoteNumber":57,"Velocity":29,"Duration":615077,"SoundDuration":615077,"Delta":208549120},{"NoteNumber":67,"Velocity":32,"Duration":615077,"SoundDuration":615077,"Delta":208549120},{"NoteNumber":73,"Velocity":47,"Duration":205249,"SoundDuration":205249,"Delta":208982678},{"NoteNumber":74,"Velocity":55,"Duration":152552,"SoundDuration":152552,"Delta":209164198},{"NoteNumber":62,"Velocity":29,"Duration":203403,"SoundDuration":203403,"Delta":209164198},{"NoteNumber":66,"Velocity":35,"Duration":203403,"SoundDuration":203403,"Delta":209164198},{"NoteNumber":78,"Velocity":54,"Duration":100341,"SoundDuration":100341,"Delta":209367601},{"NoteNumber":76,"Velocity":52,"Duration":100341,"SoundDuration":100341,"Delta":209568284},{"NoteNumber":74,"Velocity":50,"Duration":100341,"SoundDuration":100341,"Delta":209768966},{"NoteNumber":73,"Velocity":49,"Duration":100341,"SoundDuration":100341,"Delta":209969649},{"NoteNumber":71,"Velocity":47,"Duration":103455,"SoundDuration":103455,"Delta":210170331},{"NoteNumber":76,"Velocity":45,"Duration":259198,"SoundDuration":259198,"Delta":210377242},{"NoteNumber":78,"Velocity":35,"Duration":50850,"SoundDuration":50850,"Delta":210636441},{"NoteNumber":76,"Velocity":35,"Duration":50850,"SoundDuration":50850,"Delta":210687292},{"NoteNumber":75,"Velocity":35,"Duration":50850,"SoundDuration":50850,"Delta":210738143},{"NoteNumber":76,"Velocity":45,"Duration":101701,"SoundDuration":101701,"Delta":210788994},{"NoteNumber":78,"Velocity":42,"Duration":107534,"SoundDuration":107534,"Delta":210890695},{"NoteNumber":69,"Velocity":47,"Duration":409583,"SoundDuration":409583,"Delta":210998230},{"NoteNumber":59,"Velocity":27,"Duration":620866,"SoundDuration":620866,"Delta":210998230},{"NoteNumber":52,"Velocity":29,"Duration":620866,"SoundDuration":620866,"Delta":210998230},{"NoteNumber":62,"Velocity":32,"Duration":620866,"SoundDuration":620866,"Delta":210998230},{"NoteNumber":68,"Velocity":47,"Duration":211282,"SoundDuration":211282,"Delta":211407814},{"NoteNumber":69,"Velocity":55,"Duration":152552,"SoundDuration":152552,"Delta":211619096},{"NoteNumber":57,"Velocity":29,"Duration":203403,"SoundDuration":203403,"Delta":211619096},{"NoteNumber":61,"Velocity":35,"Duration":203403,"SoundDuration":203403,"Delta":211619096},{"NoteNumber":81,"Velocity":54,"Duration":100341,"SoundDuration":100341,"Delta":211822500},{"NoteNumber":80,"Velocity":52,"Duration":100341,"SoundDuration":100341,"Delta":212023182},{"NoteNumber":78,"Velocity":50,"Duration":100341,"SoundDuration":100341,"Delta":212223865},{"NoteNumber":76,"Velocity":49,"Duration":100341,"SoundDuration":100341,"Delta":212424547},{"NoteNumber":75,"Velocity":47,"Duration":103455,"SoundDuration":103455,"Delta":212625230},{"NoteNumber":76,"Velocity":45,"Duration":259198,"SoundDuration":259198,"Delta":212832141},{"NoteNumber":78,"Velocity":35,"Duration":50850,"SoundDuration":50850,"Delta":213091340},{"NoteNumber":76,"Velocity":35,"Duration":50850,"SoundDuration":50850,"Delta":213142191},{"NoteNumber":75,"Velocity":35,"Duration":50850,"SoundDuration":50850,"Delta":213193042},{"NoteNumber":76,"Velocity":45,"Duration":101701,"SoundDuration":101701,"Delta":213243892},{"NoteNumber":78,"Velocity":42,"Duration":107534,"SoundDuration":107534,"Delta":213345594},{"NoteNumber":69,"Velocity":47,"Duration":409583,"SoundDuration":409583,"Delta":213453129},{"NoteNumber":62,"Velocity":32,"Duration":620866,"SoundDuration":620866,"Delta":213453129},{"NoteNumber":52,"Velocity":29,"Duration":620866,"SoundDuration":620866,"Delta":213453129},{"NoteNumber":59,"Velocity":27,"Duration":620866,"SoundDuration":620866,"Delta":213453129},{"NoteNumber":68,"Velocity":47,"Duration":211282,"SoundDuration":211282,"Delta":213862713},{"NoteNumber":69,"Velocity":36,"Duration":105641,"SoundDuration":105641,"Delta":214073995},{"NoteNumber":57,"Velocity":30,"Duration":200718,"SoundDuration":200718,"Delta":214073995},{"NoteNumber":45,"Velocity":25,"Duration":200718,"SoundDuration":200718,"Delta":214073995},{"NoteNumber":64,"Velocity":28,"Duration":105641,"SoundDuration":105641,"Delta":214179636},{"NoteNumber":61,"Velocity":28,"Duration":103099,"SoundDuration":103099,"Delta":214285278},{"NoteNumber":45,"Velocity":20,"Duration":195889,"SoundDuration":195889,"Delta":214285278},{"NoteNumber":57,"Velocity":24,"Duration":195889,"SoundDuration":195889,"Delta":214285278},{"NoteNumber":64,"Velocity":28,"Duration":103099,"SoundDuration":103099,"Delta":214388377},{"NoteNumber":69,"Velocity":28,"Duration":103099,"SoundDuration":103099,"Delta":214491477},{"NoteNumber":45,"Velocity":20,"Duration":195889,"SoundDuration":195889,"Delta":214491477},{"NoteNumber":57,"Velocity":24,"Duration":195889,"SoundDuration":195889,"Delta":214491477},{"NoteNumber":64,"Velocity":28,"Duration":103099,"SoundDuration":103099,"Delta":214594577},{"NoteNumber":69,"Velocity":36,"Duration":103099,"SoundDuration":103099,"Delta":214697677},{"NoteNumber":45,"Velocity":25,"Duration":195889,"SoundDuration":195889,"Delta":214697677},{"NoteNumber":57,"Velocity":30,"Duration":195889,"SoundDuration":195889,"Delta":214697677},{"NoteNumber":64,"Velocity":27,"Duration":103099,"SoundDuration":103099,"Delta":214800776},{"NoteNumber":61,"Velocity":27,"Duration":103099,"SoundDuration":103099,"Delta":214903876},{"NoteNumber":57,"Velocity":23,"Duration":195889,"SoundDuration":195889,"Delta":214903876},{"NoteNumber":45,"Velocity":19,"Duration":195889,"SoundDuration":195889,"Delta":214903876},{"NoteNumber":64,"Velocity":27,"Duration":103099,"SoundDuration":103099,"Delta":215006976},{"NoteNumber":69,"Velocity":28,"Duration":106390,"SoundDuration":106390,"Delta":215110076},{"NoteNumber":57,"Velocity":23,"Duration":202141,"SoundDuration":202141,"Delta":215110076},{"NoteNumber":45,"Velocity":19,"Duration":202141,"SoundDuration":202141,"Delta":215110076},{"NoteNumber":64,"Velocity":28,"Duration":106390,"SoundDuration":106390,"Delta":215216466},{"NoteNumber":71,"Velocity":38,"Duration":106390,"SoundDuration":106390,"Delta":215322857},{"NoteNumber":56,"Velocity":32,"Duration":202141,"SoundDuration":202141,"Delta":215322857},{"NoteNumber":45,"Velocity":27,"Duration":202141,"SoundDuration":202141,"Delta":215322857},{"NoteNumber":64,"Velocity":30,"Duration":106390,"SoundDuration":106390,"Delta":215429247},{"NoteNumber":62,"Velocity":31,"Duration":103813,"SoundDuration":103813,"Delta":215535638},{"NoteNumber":56,"Velocity":27,"Duration":197245,"SoundDuration":197245,"Delta":215535638},{"NoteNumber":45,"Velocity":23,"Duration":197245,"SoundDuration":197245,"Delta":215535638},{"NoteNumber":64,"Velocity":32,"Duration":103813,"SoundDuration":103813,"Delta":215639451},{"NoteNumber":71,"Velocity":33,"Duration":103813,"SoundDuration":103813,"Delta":215743265},{"NoteNumber":45,"Velocity":23,"Duration":197245,"SoundDuration":197245,"Delta":215743265},{"NoteNumber":56,"Velocity":28,"Duration":197245,"SoundDuration":197245,"Delta":215743265},{"NoteNumber":64,"Velocity":35,"Duration":103813,"SoundDuration":103813,"Delta":215847078},{"NoteNumber":71,"Velocity":46,"Duration":103813,"SoundDuration":103813,"Delta":215950892},{"NoteNumber":56,"Velocity":38,"Duration":197245,"SoundDuration":197245,"Delta":215950892},{"NoteNumber":45,"Velocity":32,"Duration":197245,"SoundDuration":197245,"Delta":215950892},{"NoteNumber":64,"Velocity":35,"Duration":103813,"SoundDuration":103813,"Delta":216054705},{"NoteNumber":62,"Velocity":36,"Duration":103813,"SoundDuration":103813,"Delta":216158519},{"NoteNumber":45,"Velocity":24,"Duration":197245,"SoundDuration":197245,"Delta":216158519},{"NoteNumber":56,"Velocity":30,"Duration":197245,"SoundDuration":197245,"Delta":216158519},{"NoteNumber":64,"Velocity":36,"Duration":103813,"SoundDuration":103813,"Delta":216262332},{"NoteNumber":71,"Velocity":38,"Duration":106390,"SoundDuration":106390,"Delta":216366146},{"NoteNumber":56,"Velocity":32,"Duration":202141,"SoundDuration":202141,"Delta":216366146},{"NoteNumber":45,"Velocity":27,"Duration":202141,"SoundDuration":202141,"Delta":216366146},{"NoteNumber":64,"Velocity":39,"Duration":106390,"SoundDuration":106390,"Delta":216472536},{"NoteNumber":73,"Velocity":52,"Duration":103099,"SoundDuration":103099,"Delta":216578927},{"NoteNumber":55,"Velocity":44,"Duration":195889,"SoundDuration":195889,"Delta":216578927},{"NoteNumber":45,"Velocity":37,"Duration":195889,"SoundDuration":195889,"Delta":216578927},{"NoteNumber":67,"Velocity":41,"Duration":103099,"SoundDuration":103099,"Delta":216682026},{"NoteNumber":64,"Velocity":42,"Duration":103099,"SoundDuration":103099,"Delta":216785126},{"NoteNumber":45,"Velocity":30,"Duration":195889,"SoundDuration":195889,"Delta":216785126},{"NoteNumber":55,"Velocity":36,"Duration":195889,"SoundDuration":195889,"Delta":216785126},{"NoteNumber":67,"Velocity":44,"Duration":103099,"SoundDuration":103099,"Delta":216888226},{"NoteNumber":73,"Velocity":45,"Duration":108303,"SoundDuration":108303,"Delta":216991326},{"NoteNumber":45,"Velocity":32,"Duration":205776,"SoundDuration":205776,"Delta":216991326},{"NoteNumber":55,"Velocity":38,"Duration":205776,"SoundDuration":205776,"Delta":216991326},{"NoteNumber":64,"Velocity":45,"Duration":108303,"SoundDuration":108303,"Delta":217099629},{"NoteNumber":74,"Velocity":60,"Duration":104529,"SoundDuration":104529,"Delta":217207932},{"NoteNumber":45,"Velocity":42,"Duration":198606,"SoundDuration":198606,"Delta":217207932},{"NoteNumber":54,"Velocity":50,"Duration":198606,"SoundDuration":198606,"Delta":217207932},{"NoteNumber":69,"Velocity":49,"Duration":104529,"SoundDuration":104529,"Delta":217312462},{"NoteNumber":66,"Velocity":50,"Duration":104529,"SoundDuration":104529,"Delta":217416991},{"NoteNumber":45,"Velocity":33,"Duration":198606,"SoundDuration":198606,"Delta":217416991},{"NoteNumber":54,"Velocity":40,"Duration":198606,"SoundDuration":198606,"Delta":217416991},{"NoteNumber":69,"Velocity":51,"Duration":104529,"SoundDuration":104529,"Delta":217521521},{"NoteNumber":74,"Velocity":53,"Duration":110294,"SoundDuration":110294,"Delta":217626050},{"NoteNumber":54,"Velocity":42,"Duration":209558,"SoundDuration":209558,"Delta":217626050},{"NoteNumber":45,"Velocity":35,"Duration":209558,"SoundDuration":209558,"Delta":217626050},{"NoteNumber":69,"Velocity":54,"Duration":110293,"SoundDuration":110293,"Delta":217736344},{"NoteNumber":76,"Velocity":69,"Duration":105633,"SoundDuration":105633,"Delta":217846638},{"NoteNumber":52,"Velocity":57,"Duration":200704,"SoundDuration":200704,"Delta":217846638},{"NoteNumber":45,"Velocity":48,"Duration":200704,"SoundDuration":200704,"Delta":217846638},{"NoteNumber":73,"Velocity":58,"Duration":105633,"SoundDuration":105633,"Delta":217952272},{"NoteNumber":69,"Velocity":59,"Duration":105633,"SoundDuration":105633,"Delta":218057906},{"NoteNumber":45,"Velocity":42,"Duration":200704,"SoundDuration":200704,"Delta":218057906},{"NoteNumber":52,"Velocity":50,"Duration":200704,"SoundDuration":200704,"Delta":218057906},{"NoteNumber":73,"Velocity":61,"Duration":105633,"SoundDuration":105633,"Delta":218163539},{"NoteNumber":76,"Velocity":63,"Duration":110701,"SoundDuration":110701,"Delta":218269173},{"NoteNumber":45,"Velocity":45,"Duration":210331,"SoundDuration":210331,"Delta":218269173},{"NoteNumber":52,"Velocity":54,"Duration":210331,"SoundDuration":210331,"Delta":218269173},{"NoteNumber":73,"Velocity":65,"Duration":110701,"SoundDuration":110701,"Delta":218379874},{"NoteNumber":78,"Velocity":77,"Duration":106761,"SoundDuration":106761,"Delta":218490575},{"NoteNumber":50,"Velocity":64,"Duration":202846,"SoundDuration":202846,"Delta":218490575},{"NoteNumber":45,"Velocity":53,"Duration":202846,"SoundDuration":202846,"Delta":218490575},{"NoteNumber":74,"Velocity":66,"Duration":106761,"SoundDuration":106761,"Delta":218597337},{"NoteNumber":69,"Velocity":68,"Duration":106761,"SoundDuration":106761,"Delta":218704098},{"NoteNumber":50,"Velocity":56,"Duration":202846,"SoundDuration":202846,"Delta":218704098},{"NoteNumber":45,"Velocity":47,"Duration":202846,"SoundDuration":202846,"Delta":218704098},{"NoteNumber":74,"Velocity":70,"Duration":106761,"SoundDuration":106761,"Delta":218810860},{"NoteNumber":78,"Velocity":72,"Duration":111110,"SoundDuration":111110,"Delta":218917621},{"NoteNumber":50,"Velocity":59,"Duration":251312,"SoundDuration":251312,"Delta":218917621},{"NoteNumber":45,"Velocity":49,"Duration":251312,"SoundDuration":251312,"Delta":218917621},{"NoteNumber":74,"Velocity":73,"Duration":155779,"SoundDuration":155779,"Delta":219028732},{"NoteNumber":79,"Velocity":75,"Duration":2278481,"SoundDuration":2278481,"Delta":219184512},{"NoteNumber":76,"Velocity":63,"Duration":2278481,"SoundDuration":2278481,"Delta":219184512},{"NoteNumber":69,"Velocity":63,"Duration":2278481,"SoundDuration":2278481,"Delta":219184512},{"NoteNumber":73,"Velocity":63,"Duration":2278481,"SoundDuration":2278481,"Delta":219184512},{"NoteNumber":57,"Velocity":58,"Duration":2278481,"SoundDuration":2278481,"Delta":219184512},{"NoteNumber":52,"Velocity":49,"Duration":2278481,"SoundDuration":2278481,"Delta":219184512},{"NoteNumber":49,"Velocity":49,"Duration":2278481,"SoundDuration":2278481,"Delta":219184512},{"NoteNumber":45,"Velocity":49,"Duration":2278481,"SoundDuration":2278481,"Delta":219184512},{"NoteNumber":79,"Velocity":74,"Duration":502849,"SoundDuration":502849,"Delta":221462994},{"NoteNumber":76,"Velocity":69,"Duration":167616,"SoundDuration":167616,"Delta":221965843},{"NoteNumber":85,"Velocity":76,"Duration":502849,"SoundDuration":502849,"Delta":222133460},{"NoteNumber":79,"Velocity":69,"Duration":167616,"SoundDuration":167616,"Delta":222636309},{"NoteNumber":88,"Velocity":77,"Duration":1005698,"SoundDuration":1005698,"Delta":222803926},{"NoteNumber":86,"Velocity":64,"Duration":335232,"SoundDuration":335232,"Delta":223809625},{"NoteNumber":85,"Velocity":66,"Duration":351994,"SoundDuration":351994,"Delta":224144858},{"NoteNumber":83,"Velocity":63,"Duration":351994,"SoundDuration":351994,"Delta":224480091},{"NoteNumber":81,"Velocity":63,"Duration":351994,"SoundDuration":351994,"Delta":224815324},{"NoteNumber":80,"Velocity":60,"Duration":351258,"SoundDuration":351258,"Delta":225150557},{"NoteNumber":81,"Velocity":57,"Duration":179953,"SoundDuration":179953,"Delta":225485684},{"NoteNumber":82,"Velocity":53,"Duration":177574,"SoundDuration":177574,"Delta":225649332},{"NoteNumber":83,"Velocity":53,"Duration":174216,"SoundDuration":174216,"Delta":225810890},{"NoteNumber":81,"Velocity":54,"Duration":171343,"SoundDuration":171343,"Delta":225969398},{"NoteNumber":79,"Velocity":54,"Duration":168261,"SoundDuration":168261,"Delta":226125276},{"NoteNumber":78,"Velocity":57,"Duration":165516,"SoundDuration":165516,"Delta":226278384},{"NoteNumber":81,"Velocity":60,"Duration":162686,"SoundDuration":162686,"Delta":226428973},{"NoteNumber":79,"Velocity":57,"Duration":159195,"SoundDuration":159195,"Delta":226577007},{"NoteNumber":83,"Velocity":60,"Duration":154222,"SoundDuration":154222,"Delta":226721982},{"NoteNumber":81,"Velocity":57,"Duration":149865,"SoundDuration":149865,"Delta":226862378},{"NoteNumber":79,"Velocity":58,"Duration":146311,"SoundDuration":146311,"Delta":226998790},{"NoteNumber":78,"Velocity":58,"Duration":141581,"SoundDuration":141581,"Delta":227131985},{"NoteNumber":76,"Velocity":62,"Duration":136531,"SoundDuration":136531,"Delta":227261065},{"NoteNumber":78,"Velocity":58,"Duration":134541,"SoundDuration":134541,"Delta":227385250},{"NoteNumber":79,"Velocity":58,"Duration":132693,"SoundDuration":132693,"Delta":227507645},{"NoteNumber":78,"Velocity":59,"Duration":130646,"SoundDuration":130646,"Delta":227628373},{"NoteNumber":81,"Velocity":64,"Duration":128669,"SoundDuration":128669,"Delta":227747301},{"NoteNumber":79,"Velocity":61,"Duration":127891,"SoundDuration":127891,"Delta":227864296},{"NoteNumber":78,"Velocity":63,"Duration":127014,"SoundDuration":127014,"Delta":227980603},{"NoteNumber":76,"Velocity":60,"Duration":126226,"SoundDuration":126226,"Delta":228096123},{"NoteNumber":74,"Velocity":63,"Duration":125427,"SoundDuration":125427,"Delta":228210899},{"NoteNumber":73,"Velocity":62,"Duration":125009,"SoundDuration":125009,"Delta":228324962},{"NoteNumber":71,"Velocity":62,"Duration":125009,"SoundDuration":125009,"Delta":228438607},{"NoteNumber":69,"Velocity":63,"Duration":132468,"SoundDuration":132468,"Delta":228552252},{"NoteNumber":67,"Velocity":62,"Duration":77923,"SoundDuration":77923,"Delta":228669094},{"NoteNumber":69,"Velocity":53,"Duration":77281,"SoundDuration":77281,"Delta":228747018},{"NoteNumber":67,"Velocity":62,"Duration":76585,"SoundDuration":76585,"Delta":228824300},{"NoteNumber":69,"Velocity":53,"Duration":75906,"SoundDuration":75906,"Delta":228900885},{"NoteNumber":67,"Velocity":63,"Duration":75252,"SoundDuration":75252,"Delta":228976791},{"NoteNumber":69,"Velocity":53,"Duration":74592,"SoundDuration":74592,"Delta":229052044},{"NoteNumber":67,"Velocity":61,"Duration":73948,"SoundDuration":73948,"Delta":229126636},{"NoteNumber":69,"Velocity":53,"Duration":73363,"SoundDuration":73363,"Delta":229200584},{"NoteNumber":67,"Velocity":62,"Duration":72700,"SoundDuration":72700,"Delta":229273947},{"NoteNumber":69,"Velocity":53,"Duration":72082,"SoundDuration":72082,"Delta":229346647},{"NoteNumber":67,"Velocity":65,"Duration":71572,"SoundDuration":71572,"Delta":229418730},{"NoteNumber":69,"Velocity":57,"Duration":70901,"SoundDuration":70901,"Delta":229490302},{"NoteNumber":67,"Velocity":68,"Duration":70878,"SoundDuration":70878,"Delta":229561203},{"NoteNumber":69,"Velocity":60,"Duration":71232,"SoundDuration":71232,"Delta":229632082},{"NoteNumber":67,"Velocity":66,"Duration":71475,"SoundDuration":71475,"Delta":229703314},{"NoteNumber":69,"Velocity":57,"Duration":71829,"SoundDuration":71829,"Delta":229774789},{"NoteNumber":67,"Velocity":66,"Duration":96238,"SoundDuration":96238,"Delta":229846618},{"NoteNumber":69,"Velocity":60,"Duration":96832,"SoundDuration":96832,"Delta":229942857},{"NoteNumber":67,"Velocity":68,"Duration":97321,"SoundDuration":97321,"Delta":230039690},{"NoteNumber":66,"Velocity":59,"Duration":147104,"SoundDuration":147104,"Delta":230137012},{"NoteNumber":67,"Velocity":63,"Duration":150238,"SoundDuration":150238,"Delta":230284116},{"NoteNumber":68,"Velocity":64,"Duration":86316,"SoundDuration":86316,"Delta":230434355},{"NoteNumber":69,"Velocity":64,"Duration":86832,"SoundDuration":86832,"Delta":230520671},{"NoteNumber":70,"Velocity":63,"Duration":87363,"SoundDuration":87363,"Delta":230607504},{"NoteNumber":71,"Velocity":62,"Duration":87892,"SoundDuration":87892,"Delta":230694868},{"NoteNumber":72,"Velocity":61,"Duration":88428,"SoundDuration":88428,"Delta":230782761},{"NoteNumber":73,"Velocity":60,"Duration":88979,"SoundDuration":88979,"Delta":230871189},{"NoteNumber":74,"Velocity":59,"Duration":89528,"SoundDuration":89528,"Delta":230960169},{"NoteNumber":75,"Velocity":58,"Duration":90092,"SoundDuration":90092,"Delta":231049697},{"NoteNumber":76,"Velocity":57,"Duration":90655,"SoundDuration":90655,"Delta":231139789},{"NoteNumber":77,"Velocity":56,"Duration":91225,"SoundDuration":91225,"Delta":231230445},{"NoteNumber":78,"Velocity":55,"Duration":91811,"SoundDuration":91811,"Delta":231321670},{"NoteNumber":79,"Velocity":54,"Duration":92395,"SoundDuration":92395,"Delta":231413481},{"NoteNumber":80,"Velocity":53,"Duration":124056,"SoundDuration":124056,"Delta":231505877},{"NoteNumber":81,"Velocity":53,"Duration":124238,"SoundDuration":124238,"Delta":231629934},{"NoteNumber":82,"Velocity":52,"Duration":124239,"SoundDuration":124239,"Delta":231754173},{"NoteNumber":83,"Velocity":50,"Duration":508474,"SoundDuration":508474,"Delta":231878412},{"NoteNumber":81,"Velocity":56,"Duration":375000,"SoundDuration":375000,"Delta":233611376},{"NoteNumber":79,"Velocity":51,"Duration":780405,"SoundDuration":780405,"Delta":233986376},{"NoteNumber":78,"Velocity":53,"Duration":340909,"SoundDuration":340909,"Delta":235577593},{"NoteNumber":76,"Velocity":47,"Duration":751868,"SoundDuration":751868,"Delta":235918502},{"NoteNumber":78,"Velocity":53,"Duration":447761,"SoundDuration":447761,"Delta":237492288},{"NoteNumber":79,"Velocity":43,"Duration":105633,"SoundDuration":105633,"Delta":237940049},{"NoteNumber":78,"Velocity":43,"Duration":105633,"SoundDuration":105633,"Delta":238045683},{"NoteNumber":76,"Velocity":43,"Duration":105633,"SoundDuration":105633,"Delta":238151317},{"NoteNumber":78,"Velocity":43,"Duration":105633,"SoundDuration":105633,"Delta":238256951},{"NoteNumber":81,"Velocity":55,"Duration":681155,"SoundDuration":681155,"Delta":238362584},{"NoteNumber":79,"Velocity":50,"Duration":245689,"SoundDuration":245689,"Delta":239043740},{"NoteNumber":79,"Velocity":54,"Duration":468750,"SoundDuration":468750,"Delta":239302361},{"NoteNumber":81,"Velocity":41,"Duration":117187,"SoundDuration":117187,"Delta":239771111},{"NoteNumber":79,"Velocity":41,"Duration":117187,"SoundDuration":117187,"Delta":239888299},{"NoteNumber":78,"Velocity":41,"Duration":117187,"SoundDuration":117187,"Delta":240005486},{"NoteNumber":79,"Velocity":41,"Duration":117187,"SoundDuration":117187,"Delta":240122674},{"NoteNumber":80,"Velocity":53,"Duration":937500,"SoundDuration":937500,"Delta":240239861},{"NoteNumber":83,"Velocity":50,"Duration":1199999,"SoundDuration":1199999,"Delta":241177361},{"NoteNumber":81,"Velocity":41,"Duration":1578947,"SoundDuration":1578947,"Delta":242377361},{"NoteNumber":69,"Velocity":40,"Duration":99674,"SoundDuration":99674,"Delta":243956308},{"NoteNumber":81,"Velocity":45,"Duration":402712,"SoundDuration":402712,"Delta":244055983},{"NoteNumber":78,"Velocity":42,"Duration":151016,"SoundDuration":151016,"Delta":244458695},{"NoteNumber":76,"Velocity":42,"Duration":50339,"SoundDuration":50339,"Delta":244609712},{"NoteNumber":74,"Velocity":46,"Duration":75508,"SoundDuration":75508,"Delta":244660051},{"NoteNumber":62,"Velocity":26,"Duration":611059,"SoundDuration":611059,"Delta":244660051},{"NoteNumber":66,"Velocity":31,"Duration":611059,"SoundDuration":611059,"Delta":244660051},{"NoteNumber":73,"Velocity":42,"Duration":75508,"SoundDuration":75508,"Delta":244861407},{"NoteNumber":74,"Velocity":42,"Duration":78130,"SoundDuration":78130,"Delta":245062763},{"NoteNumber":76,"Velocity":41,"Duration":52087,"SoundDuration":52087,"Delta":245219024},{"NoteNumber":74,"Velocity":45,"Duration":75508,"SoundDuration":75508,"Delta":245271111},{"NoteNumber":68,"Velocity":31,"Duration":619334,"SoundDuration":619334,"Delta":245271111},{"NoteNumber":59,"Velocity":26,"Duration":619334,"SoundDuration":619334,"Delta":245271111},{"NoteNumber":73,"Velocity":41,"Duration":75508,"SoundDuration":75508,"Delta":245472467},{"NoteNumber":74,"Velocity":40,"Duration":81233,"SoundDuration":81233,"Delta":245673823},{"NoteNumber":74,"Velocity":39,"Duration":422564,"SoundDuration":422564,"Delta":245890445},{"NoteNumber":78,"Velocity":46,"Duration":422564,"SoundDuration":422564,"Delta":245890445},{"NoteNumber":69,"Velocity":31,"Duration":653255,"SoundDuration":653255,"Delta":245890445},{"NoteNumber":57,"Velocity":26,"Duration":653255,"SoundDuration":653255,"Delta":245890445},{"NoteNumber":73,"Velocity":33,"Duration":131015,"SoundDuration":131015,"Delta":246313010},{"NoteNumber":76,"Velocity":39,"Duration":131015,"SoundDuration":131015,"Delta":246313010},{"NoteNumber":67,"Velocity":40,"Duration":99674,"SoundDuration":99674,"Delta":246444026},{"NoteNumber":79,"Velocity":45,"Duration":402712,"SoundDuration":402712,"Delta":246543700},{"NoteNumber":76,"Velocity":42,"Duration":151016,"SoundDuration":151016,"Delta":246946412},{"NoteNumber":74,"Velocity":42,"Duration":50339,"SoundDuration":50339,"Delta":247097429},{"NoteNumber":73,"Velocity":46,"Duration":75508,"SoundDuration":75508,"Delta":247147768},{"NoteNumber":64,"Velocity":31,"Duration":611059,"SoundDuration":611059,"Delta":247147768},{"NoteNumber":57,"Velocity":26,"Duration":611059,"SoundDuration":611059,"Delta":247147768},{"NoteNumber":71,"Velocity":42,"Duration":75508,"SoundDuration":75508,"Delta":247349124},{"NoteNumber":73,"Velocity":42,"Duration":78130,"SoundDuration":78130,"Delta":247550480},{"NoteNumber":69,"Velocity":45,"Duration":75508,"SoundDuration":75508,"Delta":247758828},{"NoteNumber":61,"Velocity":26,"Duration":619334,"SoundDuration":619334,"Delta":247758828},{"NoteNumber":64,"Velocity":31,"Duration":619334,"SoundDuration":619334,"Delta":247758828},{"NoteNumber":76,"Velocity":41,"Duration":75508,"SoundDuration":75508,"Delta":247960184},{"NoteNumber":81,"Velocity":40,"Duration":81233,"SoundDuration":81233,"Delta":248161540},{"NoteNumber":79,"Velocity":46,"Duration":422564,"SoundDuration":422564,"Delta":248378162},{"NoteNumber":76,"Velocity":39,"Duration":422564,"SoundDuration":422564,"Delta":248378162},{"NoteNumber":62,"Velocity":26,"Duration":633847,"SoundDuration":633847,"Delta":248378162},{"NoteNumber":69,"Velocity":31,"Duration":633847,"SoundDuration":633847,"Delta":248378162},{"NoteNumber":74,"Velocity":33,"Duration":155820,"SoundDuration":155820,"Delta":248800727},{"NoteNumber":78,"Velocity":39,"Duration":158461,"SoundDuration":158461,"Delta":248800727},{"NoteNumber":74,"Velocity":48,"Duration":52820,"SoundDuration":52820,"Delta":248959189},{"NoteNumber":78,"Velocity":52,"Duration":405432,"SoundDuration":405432,"Delta":249012010},{"NoteNumber":50,"Velocity":51,"Duration":202716,"SoundDuration":202716,"Delta":249012010},{"NoteNumber":62,"Velocity":45,"Duration":101358,"SoundDuration":101358,"Delta":249214726},{"NoteNumber":79,"Velocity":48,"Duration":206910,"SoundDuration":206910,"Delta":249417443},{"NoteNumber":64,"Velocity":48,"Duration":103455,"SoundDuration":103455,"Delta":249417443},{"NoteNumber":83,"Velocity":59,"Duration":101358,"SoundDuration":101358,"Delta":249624354},{"NoteNumber":66,"Velocity":52,"Duration":202716,"SoundDuration":202716,"Delta":249624354},{"NoteNumber":81,"Velocity":57,"Duration":101358,"SoundDuration":101358,"Delta":249725712},{"NoteNumber":79,"Velocity":55,"Duration":101358,"SoundDuration":101358,"Delta":249827070},{"NoteNumber":78,"Velocity":53,"Duration":101358,"SoundDuration":101358,"Delta":249928428},{"NoteNumber":76,"Velocity":51,"Duration":109497,"SoundDuration":109497,"Delta":250029787},{"NoteNumber":74,"Velocity":47,"Duration":49311,"SoundDuration":49311,"Delta":250139284},{"NoteNumber":74,"Velocity":46,"Duration":51906,"SoundDuration":51906,"Delta":250191190},{"NoteNumber":78,"Velocity":58,"Duration":404067,"SoundDuration":404067,"Delta":250243097},{"NoteNumber":50,"Velocity":50,"Duration":202033,"SoundDuration":202033,"Delta":250243097},{"NoteNumber":62,"Velocity":44,"Duration":101017,"SoundDuration":101017,"Delta":250445131},{"NoteNumber":79,"Velocity":49,"Duration":208348,"SoundDuration":208348,"Delta":250647165},{"NoteNumber":64,"Velocity":48,"Duration":104174,"SoundDuration":104174,"Delta":250647165},{"NoteNumber":83,"Velocity":59,"Duration":101017,"SoundDuration":101017,"Delta":250855513},{"NoteNumber":66,"Velocity":53,"Duration":202033,"SoundDuration":202033,"Delta":250855513},{"NoteNumber":81,"Velocity":57,"Duration":101016,"SoundDuration":101016,"Delta":250956530},{"NoteNumber":79,"Velocity":55,"Duration":101017,"SoundDuration":101017,"Delta":251057547},{"NoteNumber":78,"Velocity":53,"Duration":101016,"SoundDuration":101016,"Delta":251158564},{"NoteNumber":76,"Velocity":51,"Duration":111532,"SoundDuration":111532,"Delta":251259581},{"NoteNumber":74,"Velocity":51,"Duration":43709,"SoundDuration":43709,"Delta":251371114},{"NoteNumber":74,"Velocity":46,"Duration":52451,"SoundDuration":52451,"Delta":251423565},{"NoteNumber":83,"Velocity":58,"Duration":404067,"SoundDuration":404067,"Delta":251476016},{"NoteNumber":55,"Velocity":50,"Duration":202033,"SoundDuration":202033,"Delta":251476016},{"NoteNumber":67,"Velocity":44,"Duration":101017,"SoundDuration":101017,"Delta":251678050},{"NoteNumber":85,"Velocity":49,"Duration":206910,"SoundDuration":206910,"Delta":251880084},{"NoteNumber":64,"Velocity":48,"Duration":103455,"SoundDuration":103455,"Delta":251880084},{"NoteNumber":86,"Velocity":59,"Duration":101017,"SoundDuration":101017,"Delta":252086995},{"NoteNumber":54,"Velocity":45,"Duration":202033,"SoundDuration":202033,"Delta":252086995},{"NoteNumber":66,"Velocity":53,"Duration":202033,"SoundDuration":202033,"Delta":252086995},{"NoteNumber":85,"Velocity":57,"Duration":101016,"SoundDuration":101016,"Delta":252188012},{"NoteNumber":83,"Velocity":55,"Duration":101017,"SoundDuration":101017,"Delta":252289029},{"NoteNumber":81,"Velocity":53,"Duration":101016,"SoundDuration":101016,"Delta":252390046},{"NoteNumber":79,"Velocity":51,"Duration":102746,"SoundDuration":102746,"Delta":252491063},{"NoteNumber":78,"Velocity":51,"Duration":102746,"SoundDuration":102746,"Delta":252593810},{"NoteNumber":83,"Velocity":59,"Duration":101017,"SoundDuration":101017,"Delta":252696557},{"NoteNumber":67,"Velocity":53,"Duration":202033,"SoundDuration":202033,"Delta":252696557},{"NoteNumber":55,"Velocity":45,"Duration":202033,"SoundDuration":202033,"Delta":252696557},{"NoteNumber":81,"Velocity":58,"Duration":101016,"SoundDuration":101016,"Delta":252797574},{"NoteNumber":79,"Velocity":56,"Duration":101017,"SoundDuration":101017,"Delta":252898591},{"NoteNumber":78,"Velocity":55,"Duration":101016,"SoundDuration":101016,"Delta":252999608},{"NoteNumber":76,"Velocity":58,"Duration":105270,"SoundDuration":105270,"Delta":253100625},{"NoteNumber":74,"Velocity":62,"Duration":122458,"SoundDuration":122458,"Delta":253205895},{"NoteNumber":81,"Velocity":59,"Duration":208348,"SoundDuration":208348,"Delta":253328354},{"NoteNumber":76,"Velocity":50,"Duration":208348,"SoundDuration":208348,"Delta":253328354},{"NoteNumber":73,"Velocity":50,"Duration":208348,"SoundDuration":208348,"Delta":253328354},{"NoteNumber":57,"Velocity":45,"Duration":208348,"SoundDuration":208348,"Delta":253328354},{"NoteNumber":69,"Velocity":53,"Duration":208348,"SoundDuration":208348,"Delta":253328354},{"NoteNumber":57,"Velocity":40,"Duration":99674,"SoundDuration":99674,"Delta":253849224},{"NoteNumber":69,"Velocity":45,"Duration":402712,"SoundDuration":402712,"Delta":253948899},{"NoteNumber":66,"Velocity":42,"Duration":151016,"SoundDuration":151016,"Delta":254351611},{"NoteNumber":64,"Velocity":42,"Duration":50339,"SoundDuration":50339,"Delta":254502628},{"NoteNumber":62,"Velocity":46,"Duration":75508,"SoundDuration":75508,"Delta":254552967},{"NoteNumber":50,"Velocity":26,"Duration":611059,"SoundDuration":611059,"Delta":254552967},{"NoteNumber":54,"Velocity":31,"Duration":611059,"SoundDuration":611059,"Delta":254552967},{"NoteNumber":61,"Velocity":42,"Duration":75508,"SoundDuration":75508,"Delta":254754323},{"NoteNumber":62,"Velocity":42,"Duration":78130,"SoundDuration":78130,"Delta":254955679},{"NoteNumber":64,"Velocity":41,"Duration":52087,"SoundDuration":52087,"Delta":255111940},{"NoteNumber":62,"Velocity":45,"Duration":75508,"SoundDuration":75508,"Delta":255164027},{"NoteNumber":56,"Velocity":31,"Duration":619333,"SoundDuration":619333,"Delta":255164027},{"NoteNumber":47,"Velocity":26,"Duration":619333,"SoundDuration":619333,"Delta":255164027},{"NoteNumber":61,"Velocity":41,"Duration":75508,"SoundDuration":75508,"Delta":255365383},{"NoteNumber":62,"Velocity":40,"Duration":81233,"SoundDuration":81233,"Delta":255566739},{"NoteNumber":62,"Velocity":39,"Duration":422565,"SoundDuration":422565,"Delta":255783361},{"NoteNumber":66,"Velocity":46,"Duration":422565,"SoundDuration":422565,"Delta":255783361},{"NoteNumber":45,"Velocity":26,"Duration":653255,"SoundDuration":653255,"Delta":255783361},{"NoteNumber":57,"Velocity":31,"Duration":653255,"SoundDuration":653255,"Delta":255783361},{"NoteNumber":61,"Velocity":33,"Duration":131015,"SoundDuration":131015,"Delta":256205926},{"NoteNumber":64,"Velocity":39,"Duration":131015,"SoundDuration":131015,"Delta":256205926},{"NoteNumber":55,"Velocity":40,"Duration":99674,"SoundDuration":99674,"Delta":256336941},{"NoteNumber":67,"Velocity":45,"Duration":402712,"SoundDuration":402712,"Delta":256436616},{"NoteNumber":64,"Velocity":42,"Duration":151016,"SoundDuration":151016,"Delta":256839328},{"NoteNumber":62,"Velocity":42,"Duration":50339,"SoundDuration":50339,"Delta":256990345},{"NoteNumber":61,"Velocity":46,"Duration":75508,"SoundDuration":75508,"Delta":257040684},{"NoteNumber":52,"Velocity":31,"Duration":611060,"SoundDuration":611060,"Delta":257040684},{"NoteNumber":45,"Velocity":26,"Duration":611060,"SoundDuration":611060,"Delta":257040684},{"NoteNumber":59,"Velocity":42,"Duration":75508,"SoundDuration":75508,"Delta":257242040},{"NoteNumber":61,"Velocity":42,"Duration":78130,"SoundDuration":78130,"Delta":257443396},{"NoteNumber":57,"Velocity":45,"Duration":75508,"SoundDuration":75508,"Delta":257651744},{"NoteNumber":52,"Velocity":31,"Duration":619333,"SoundDuration":619333,"Delta":257651744},{"NoteNumber":49,"Velocity":26,"Duration":619333,"SoundDuration":619333,"Delta":257651744},{"NoteNumber":64,"Velocity":41,"Duration":75508,"SoundDuration":75508,"Delta":257853100},{"NoteNumber":69,"Velocity":40,"Duration":81233,"SoundDuration":81233,"Delta":258054456},{"NoteNumber":67,"Velocity":46,"Duration":422565,"SoundDuration":422565,"Delta":258271078},{"NoteNumber":64,"Velocity":39,"Duration":422565,"SoundDuration":422565,"Delta":258271078},{"NoteNumber":57,"Velocity":31,"Duration":633847,"SoundDuration":633847,"Delta":258271078},{"NoteNumber":50,"Velocity":26,"Duration":633847,"SoundDuration":633847,"Delta":258271078},{"NoteNumber":62,"Velocity":33,"Duration":158461,"SoundDuration":158461,"Delta":258693643},{"NoteNumber":66,"Velocity":39,"Duration":158461,"SoundDuration":158461,"Delta":258693643},{"NoteNumber":74,"Velocity":48,"Duration":52820,"SoundDuration":52820,"Delta":258852105},{"NoteNumber":78,"Velocity":52,"Duration":405433,"SoundDuration":405433,"Delta":258904925},{"NoteNumber":50,"Velocity":51,"Duration":202716,"SoundDuration":202716,"Delta":258904925},{"NoteNumber":62,"Velocity":45,"Duration":101358,"SoundDuration":101358,"Delta":259107642},{"NoteNumber":79,"Velocity":48,"Duration":206910,"SoundDuration":206910,"Delta":259310358},{"NoteNumber":64,"Velocity":48,"Duration":103455,"SoundDuration":103455,"Delta":259310358},{"NoteNumber":83,"Velocity":59,"Duration":101358,"SoundDuration":101358,"Delta":259517269},{"NoteNumber":66,"Velocity":52,"Duration":202716,"SoundDuration":202716,"Delta":259517269},{"NoteNumber":81,"Velocity":57,"Duration":101358,"SoundDuration":101358,"Delta":259618628},{"NoteNumber":79,"Velocity":55,"Duration":101358,"SoundDuration":101358,"Delta":259719986},{"NoteNumber":78,"Velocity":53,"Duration":101358,"SoundDuration":101358,"Delta":259821344},{"NoteNumber":76,"Velocity":51,"Duration":109496,"SoundDuration":109496,"Delta":259922702},{"NoteNumber":74,"Velocity":47,"Duration":51906,"SoundDuration":51906,"Delta":260032199},{"NoteNumber":79,"Velocity":46,"Duration":51906,"SoundDuration":51906,"Delta":260084106},{"NoteNumber":83,"Velocity":58,"Duration":404301,"SoundDuration":404301,"Delta":260136013},{"NoteNumber":43,"Velocity":50,"Duration":202267,"SoundDuration":202267,"Delta":260136013},{"NoteNumber":55,"Velocity":44,"Duration":101017,"SoundDuration":101017,"Delta":260338280},{"NoteNumber":85,"Velocity":49,"Duration":206707,"SoundDuration":206707,"Delta":260540314},{"NoteNumber":57,"Velocity":48,"Duration":103252,"SoundDuration":103252,"Delta":260540314},{"NoteNumber":88,"Velocity":59,"Duration":101220,"SoundDuration":101220,"Delta":260747022},{"NoteNumber":59,"Velocity":53,"Duration":202237,"SoundDuration":202237,"Delta":260747022},{"NoteNumber":86,"Velocity":57,"Duration":101017,"SoundDuration":101017,"Delta":260848242},{"NoteNumber":85,"Velocity":55,"Duration":101017,"SoundDuration":101017,"Delta":260949259},{"NoteNumber":83,"Velocity":53,"Duration":101017,"SoundDuration":101017,"Delta":261050276},{"NoteNumber":81,"Velocity":51,"Duration":102602,"SoundDuration":102602,"Delta":261151293},{"NoteNumber":79,"Velocity":51,"Duration":102746,"SoundDuration":102746,"Delta":261253896},{"NoteNumber":85,"Velocity":59,"Duration":101161,"SoundDuration":101161,"Delta":261356642},{"NoteNumber":64,"Velocity":53,"Duration":101161,"SoundDuration":101161,"Delta":261356642},{"NoteNumber":59,"Velocity":45,"Duration":101161,"SoundDuration":101161,"Delta":261356642},{"NoteNumber":55,"Velocity":45,"Duration":101017,"SoundDuration":101017,"Delta":261365205},{"NoteNumber":83,"Velocity":58,"Duration":101017,"SoundDuration":101017,"Delta":261457804},{"NoteNumber":81,"Velocity":56,"Duration":101017,"SoundDuration":101017,"Delta":261558821},{"NoteNumber":79,"Velocity":55,"Duration":101017,"SoundDuration":101017,"Delta":261659838},{"NoteNumber":78,"Velocity":54,"Duration":104916,"SoundDuration":104916,"Delta":261760855},{"NoteNumber":76,"Velocity":52,"Duration":121026,"SoundDuration":121026,"Delta":261865771},{"NoteNumber":83,"Velocity":63,"Duration":101220,"SoundDuration":101220,"Delta":261986797},{"NoteNumber":66,"Velocity":53,"Duration":101220,"SoundDuration":101220,"Delta":261986797},{"NoteNumber":62,"Velocity":45,"Duration":101220,"SoundDuration":101220,"Delta":261986797},{"NoteNumber":57,"Velocity":45,"Duration":101220,"SoundDuration":101220,"Delta":261986797},{"NoteNumber":81,"Velocity":61,"Duration":101017,"SoundDuration":101017,"Delta":262088017},{"NoteNumber":79,"Velocity":59,"Duration":101017,"SoundDuration":101017,"Delta":262189034},{"NoteNumber":78,"Velocity":57,"Duration":101017,"SoundDuration":101017,"Delta":262290051},{"NoteNumber":76,"Velocity":56,"Duration":102602,"SoundDuration":102602,"Delta":262391068},{"NoteNumber":74,"Velocity":54,"Duration":102746,"SoundDuration":102746,"Delta":262493671},{"NoteNumber":81,"Velocity":59,"Duration":101161,"SoundDuration":101161,"Delta":262596418},{"NoteNumber":67,"Velocity":53,"Duration":101161,"SoundDuration":101161,"Delta":262596418},{"NoteNumber":64,"Velocity":45,"Duration":101161,"SoundDuration":101161,"Delta":262596418},{"NoteNumber":57,"Velocity":45,"Duration":101161,"SoundDuration":101161,"Delta":262596418},{"NoteNumber":79,"Velocity":61,"Duration":101017,"SoundDuration":101017,"Delta":262697579},{"NoteNumber":78,"Velocity":60,"Duration":101017,"SoundDuration":101017,"Delta":262798596},{"NoteNumber":76,"Velocity":59,"Duration":101017,"SoundDuration":101017,"Delta":262899613},{"NoteNumber":74,"Velocity":58,"Duration":104916,"SoundDuration":104916,"Delta":263000630},{"NoteNumber":73,"Velocity":61,"Duration":121026,"SoundDuration":121026,"Delta":263105546},{"NoteNumber":74,"Velocity":63,"Duration":104536,"SoundDuration":104536,"Delta":263226573},{"NoteNumber":66,"Velocity":53,"Duration":104536,"SoundDuration":104536,"Delta":263226573},{"NoteNumber":62,"Velocity":45,"Duration":104536,"SoundDuration":104536,"Delta":263226573},{"NoteNumber":62,"Velocity":61,"Duration":75508,"SoundDuration":75508,"Delta":264062869},{"NoteNumber":38,"Velocity":44,"Duration":75508,"SoundDuration":75508,"Delta":264062869},{"NoteNumber":50,"Velocity":44,"Duration":75508,"SoundDuration":75508,"Delta":264062869},{"NoteNumber":62,"Velocity":62,"Duration":77860,"SoundDuration":77860,"Delta":264264225},{"NoteNumber":50,"Velocity":44,"Duration":77860,"SoundDuration":77860,"Delta":264264225},{"NoteNumber":38,"Velocity":44,"Duration":77860,"SoundDuration":77860,"Delta":264264225},{"NoteNumber":64,"Velocity":40,"Duration":34604,"SoundDuration":34604,"Delta":264368038},{"NoteNumber":62,"Velocity":40,"Duration":34604,"SoundDuration":34604,"Delta":264402643},{"NoteNumber":61,"Velocity":40,"Duration":34589,"SoundDuration":34589,"Delta":264438112},{"NoteNumber":62,"Velocity":69,"Duration":408190,"SoundDuration":408190,"Delta":264471852},{"NoteNumber":50,"Velocity":52,"Duration":408190,"SoundDuration":408190,"Delta":264471852},{"NoteNumber":38,"Velocity":52,"Duration":408190,"SoundDuration":408190,"Delta":264471852},{"NoteNumber":62,"Velocity":60,"Duration":76535,"SoundDuration":76535,"Delta":264880043},{"NoteNumber":38,"Velocity":44,"Duration":76535,"SoundDuration":76535,"Delta":264880043},{"NoteNumber":50,"Velocity":44,"Duration":76535,"SoundDuration":76535,"Delta":264880043},{"NoteNumber":64,"Velocity":40,"Duration":34015,"SoundDuration":34015,"Delta":264982090},{"NoteNumber":62,"Velocity":40,"Duration":34015,"SoundDuration":34015,"Delta":265016106},{"NoteNumber":61,"Velocity":40,"Duration":34015,"SoundDuration":34015,"Delta":265050973},{"NoteNumber":62,"Velocity":64,"Duration":408191,"SoundDuration":408191,"Delta":265084138},{"NoteNumber":38,"Velocity":44,"Duration":408191,"SoundDuration":408191,"Delta":265084138},{"NoteNumber":50,"Velocity":44,"Duration":408191,"SoundDuration":408191,"Delta":265084138},{"NoteNumber":62,"Velocity":59,"Duration":78402,"SoundDuration":78402,"Delta":265492329},{"NoteNumber":50,"Velocity":44,"Duration":78402,"SoundDuration":78402,"Delta":265492329},{"NoteNumber":38,"Velocity":44,"Duration":78402,"SoundDuration":78402,"Delta":265492329},{"NoteNumber":60,"Velocity":66,"Duration":447761,"SoundDuration":447761,"Delta":265701403},{"NoteNumber":36,"Velocity":52,"Duration":447761,"SoundDuration":447761,"Delta":265701403},{"NoteNumber":48,"Velocity":52,"Duration":447761,"SoundDuration":447761,"Delta":265701403},{"NoteNumber":69,"Velocity":54,"Duration":102040,"SoundDuration":102040,"Delta":266251205},{"NoteNumber":81,"Velocity":63,"Duration":816340,"SoundDuration":816340,"Delta":266353246},{"NoteNumber":74,"Velocity":30,"Duration":76535,"SoundDuration":76535,"Delta":266965490},{"NoteNumber":72,"Velocity":25,"Duration":76535,"SoundDuration":76535,"Delta":266965490},{"NoteNumber":84,"Velocity":45,"Duration":75508,"SoundDuration":75508,"Delta":267169586},{"NoteNumber":74,"Velocity":30,"Duration":75508,"SoundDuration":75508,"Delta":267169586},{"NoteNumber":72,"Velocity":25,"Duration":75508,"SoundDuration":75508,"Delta":267169586},{"NoteNumber":83,"Velocity":43,"Duration":75508,"SoundDuration":75508,"Delta":267370942},{"NoteNumber":72,"Velocity":25,"Duration":75508,"SoundDuration":75508,"Delta":267370942},{"NoteNumber":74,"Velocity":30,"Duration":75508,"SoundDuration":75508,"Delta":267370942},{"NoteNumber":81,"Velocity":41,"Duration":75508,"SoundDuration":75508,"Delta":267572298},{"NoteNumber":72,"Velocity":25,"Duration":75508,"SoundDuration":75508,"Delta":267572298},{"NoteNumber":74,"Velocity":30,"Duration":75508,"SoundDuration":75508,"Delta":267572298},{"NoteNumber":79,"Velocity":39,"Duration":77060,"SoundDuration":77060,"Delta":267773654},{"NoteNumber":72,"Velocity":25,"Duration":77060,"SoundDuration":77060,"Delta":267773654},{"NoteNumber":74,"Velocity":30,"Duration":77060,"SoundDuration":77060,"Delta":267773654},{"NoteNumber":78,"Velocity":37,"Duration":82726,"SoundDuration":82726,"Delta":267979147},{"NoteNumber":74,"Velocity":30,"Duration":82726,"SoundDuration":82726,"Delta":267979147},{"NoteNumber":72,"Velocity":25,"Duration":82726,"SoundDuration":82726,"Delta":267979147},{"NoteNumber":81,"Velocity":35,"Duration":614375,"SoundDuration":614375,"Delta":268199752},{"NoteNumber":74,"Velocity":35,"Duration":850596,"SoundDuration":850596,"Delta":268199752},{"NoteNumber":71,"Velocity":29,"Duration":850596,"SoundDuration":850596,"Delta":268199752},{"NoteNumber":79,"Velocity":35,"Duration":236220,"SoundDuration":236220,"Delta":268814128},{"NoteNumber":59,"Velocity":61,"Duration":75508,"SoundDuration":75508,"Delta":269050348},{"NoteNumber":35,"Velocity":44,"Duration":75508,"SoundDuration":75508,"Delta":269050348},{"NoteNumber":47,"Velocity":44,"Duration":75508,"SoundDuration":75508,"Delta":269050348},{"NoteNumber":59,"Velocity":62,"Duration":77860,"SoundDuration":77860,"Delta":269251704},{"NoteNumber":35,"Velocity":44,"Duration":77860,"SoundDuration":77860,"Delta":269251704},{"NoteNumber":47,"Velocity":44,"Duration":77860,"SoundDuration":77860,"Delta":269251704},{"NoteNumber":59,"Velocity":40,"Duration":34604,"SoundDuration":34604,"Delta":269355518},{"NoteNumber":57,"Velocity":40,"Duration":34604,"SoundDuration":34604,"Delta":269390122},{"NoteNumber":56,"Velocity":40,"Duration":34604,"SoundDuration":34604,"Delta":269424727},{"NoteNumber":57,"Velocity":69,"Duration":408190,"SoundDuration":408190,"Delta":269459331},{"NoteNumber":33,"Velocity":52,"Duration":408190,"SoundDuration":408190,"Delta":269459331},{"NoteNumber":45,"Velocity":52,"Duration":408190,"SoundDuration":408190,"Delta":269459331},{"NoteNumber":57,"Velocity":60,"Duration":76535,"SoundDuration":76535,"Delta":269867522},{"NoteNumber":45,"Velocity":44,"Duration":76535,"SoundDuration":76535,"Delta":269867522},{"NoteNumber":33,"Velocity":44,"Duration":76535,"SoundDuration":76535,"Delta":269867522},{"NoteNumber":57,"Velocity":40,"Duration":34015,"SoundDuration":34015,"Delta":269969570},{"NoteNumber":55,"Velocity":40,"Duration":34015,"SoundDuration":34015,"Delta":270003586},{"NoteNumber":54,"Velocity":40,"Duration":34015,"SoundDuration":34015,"Delta":270037602},{"NoteNumber":55,"Velocity":64,"Duration":408191,"SoundDuration":408191,"Delta":270071618},{"NoteNumber":31,"Velocity":44,"Duration":408191,"SoundDuration":408191,"Delta":270071618},{"NoteNumber":43,"Velocity":44,"Duration":408191,"SoundDuration":408191,"Delta":270071618},{"NoteNumber":55,"Velocity":59,"Duration":78402,"SoundDuration":78402,"Delta":270479809},{"NoteNumber":31,"Velocity":44,"Duration":78402,"SoundDuration":78402,"Delta":270479809},{"NoteNumber":43,"Velocity":44,"Duration":78402,"SoundDuration":78402,"Delta":270479809},{"NoteNumber":54,"Velocity":66,"Duration":465116,"SoundDuration":465116,"Delta":270688883},{"NoteNumber":42,"Velocity":52,"Duration":465116,"SoundDuration":465116,"Delta":270688883},{"NoteNumber":30,"Velocity":52,"Duration":465116,"SoundDuration":465116,"Delta":270688883},{"NoteNumber":74,"Velocity":54,"Duration":102047,"SoundDuration":102047,"Delta":271256039},{"NoteNumber":84,"Velocity":63,"Duration":714334,"SoundDuration":714334,"Delta":271358087},{"NoteNumber":54,"Velocity":40,"Duration":614405,"SoundDuration":614405,"Delta":271970374},{"NoteNumber":83,"Velocity":53,"Duration":102047,"SoundDuration":102047,"Delta":272072421},{"NoteNumber":81,"Velocity":53,"Duration":102047,"SoundDuration":102047,"Delta":272174469},{"NoteNumber":57,"Velocity":30,"Duration":204095,"SoundDuration":204095,"Delta":272174469},{"NoteNumber":79,"Velocity":52,"Duration":102047,"SoundDuration":102047,"Delta":272276517},{"NoteNumber":78,"Velocity":51,"Duration":102047,"SoundDuration":102047,"Delta":272378565},{"NoteNumber":62,"Velocity":26,"Duration":206214,"SoundDuration":206214,"Delta":272378565},{"NoteNumber":76,"Velocity":51,"Duration":104166,"SoundDuration":104166,"Delta":272480612},{"NoteNumber":74,"Velocity":54,"Duration":102040,"SoundDuration":102040,"Delta":272584779},{"NoteNumber":54,"Velocity":40,"Duration":617346,"SoundDuration":617346,"Delta":272584779},{"NoteNumber":76,"Velocity":49,"Duration":102040,"SoundDuration":102040,"Delta":272686820},{"NoteNumber":74,"Velocity":50,"Duration":102040,"SoundDuration":102040,"Delta":272788861},{"NoteNumber":57,"Velocity":30,"Duration":204081,"SoundDuration":204081,"Delta":272788861},{"NoteNumber":72,"Velocity":49,"Duration":102040,"SoundDuration":102040,"Delta":272890901},{"NoteNumber":71,"Velocity":48,"Duration":102040,"SoundDuration":102040,"Delta":272992942},{"NoteNumber":62,"Velocity":27,"Duration":209183,"SoundDuration":209183,"Delta":272992942},{"NoteNumber":69,"Velocity":47,"Duration":107142,"SoundDuration":107142,"Delta":273094983},{"NoteNumber":71,"Velocity":47,"Duration":102640,"SoundDuration":102640,"Delta":273202126},{"NoteNumber":55,"Velocity":40,"Duration":616448,"SoundDuration":616448,"Delta":273202126},{"NoteNumber":74,"Velocity":47,"Duration":102479,"SoundDuration":102479,"Delta":273304766},{"NoteNumber":76,"Velocity":48,"Duration":102116,"SoundDuration":102116,"Delta":273407246},{"NoteNumber":59,"Velocity":33,"Duration":204331,"SoundDuration":204331,"Delta":273407246},{"NoteNumber":78,"Velocity":50,"Duration":102214,"SoundDuration":102214,"Delta":273509362},{"NoteNumber":79,"Velocity":52,"Duration":102467,"SoundDuration":102467,"Delta":273611577},{"NoteNumber":62,"Velocity":36,"Duration":206997,"SoundDuration":206997,"Delta":273611577},{"NoteNumber":81,"Velocity":53,"Duration":104529,"SoundDuration":104529,"Delta":273714045},{"NoteNumber":83,"Velocity":55,"Duration":102040,"SoundDuration":102040,"Delta":273818574},{"NoteNumber":55,"Velocity":40,"Duration":617631,"SoundDuration":617631,"Delta":273818574},{"NoteNumber":84,"Velocity":57,"Duration":102040,"SoundDuration":102040,"Delta":273920615},{"NoteNumber":86,"Velocity":61,"Duration":102389,"SoundDuration":102389,"Delta":274022656},{"NoteNumber":59,"Velocity":33,"Duration":204777,"SoundDuration":204777,"Delta":274022656},{"NoteNumber":83,"Velocity":57,"Duration":102388,"SoundDuration":102388,"Delta":274125045},{"NoteNumber":81,"Velocity":57,"Duration":102389,"SoundDuration":102389,"Delta":274227434},{"NoteNumber":62,"Velocity":33,"Duration":208772,"SoundDuration":208772,"Delta":274227434},{"NoteNumber":79,"Velocity":53,"Duration":106382,"SoundDuration":106382,"Delta":274329823},{"NoteNumber":84,"Velocity":62,"Duration":102040,"SoundDuration":102040,"Delta":274436206},{"NoteNumber":54,"Velocity":40,"Duration":617255,"SoundDuration":617255,"Delta":274436206},{"NoteNumber":83,"Velocity":60,"Duration":102040,"SoundDuration":102040,"Delta":274538247},{"NoteNumber":81,"Velocity":58,"Duration":102389,"SoundDuration":102389,"Delta":274640287},{"NoteNumber":57,"Velocity":34,"Duration":204777,"SoundDuration":204777,"Delta":274640287},{"NoteNumber":79,"Velocity":57,"Duration":102388,"SoundDuration":102388,"Delta":274742676},{"NoteNumber":78,"Velocity":55,"Duration":102389,"SoundDuration":102389,"Delta":274845065},{"NoteNumber":62,"Velocity":31,"Duration":208395,"SoundDuration":208395,"Delta":274845065},{"NoteNumber":76,"Velocity":53,"Duration":106006,"SoundDuration":106006,"Delta":274947454},{"NoteNumber":74,"Velocity":59,"Duration":102040,"SoundDuration":102040,"Delta":275053461},{"NoteNumber":54,"Velocity":40,"Duration":618009,"SoundDuration":618009,"Delta":275053461},{"NoteNumber":76,"Velocity":58,"Duration":102040,"SoundDuration":102040,"Delta":275155502},{"NoteNumber":74,"Velocity":56,"Duration":102389,"SoundDuration":102389,"Delta":275257543},{"NoteNumber":57,"Velocity":33,"Duration":204777,"SoundDuration":204777,"Delta":275257543},{"NoteNumber":72,"Velocity":55,"Duration":102388,"SoundDuration":102388,"Delta":275359932},{"NoteNumber":71,"Velocity":53,"Duration":102389,"SoundDuration":102389,"Delta":275462321},{"NoteNumber":62,"Velocity":28,"Duration":209150,"SoundDuration":209150,"Delta":275462321},{"NoteNumber":69,"Velocity":52,"Duration":106761,"SoundDuration":106761,"Delta":275564710},{"NoteNumber":71,"Velocity":48,"Duration":102587,"SoundDuration":102587,"Delta":275671471},{"NoteNumber":55,"Velocity":40,"Duration":613825,"SoundDuration":613825,"Delta":275671471},{"NoteNumber":74,"Velocity":50,"Duration":101995,"SoundDuration":101995,"Delta":275774059},{"NoteNumber":76,"Velocity":51,"Duration":101405,"SoundDuration":101405,"Delta":275876054},{"NoteNumber":59,"Velocity":34,"Duration":203060,"SoundDuration":203060,"Delta":275876054},{"NoteNumber":78,"Velocity":52,"Duration":101654,"SoundDuration":101654,"Delta":275977460},{"NoteNumber":79,"Velocity":54,"Duration":102014,"SoundDuration":102014,"Delta":276079115},{"NoteNumber":62,"Velocity":37,"Duration":206181,"SoundDuration":206181,"Delta":276079115},{"NoteNumber":81,"Velocity":55,"Duration":104166,"SoundDuration":104166,"Delta":276181130},{"NoteNumber":83,"Velocity":56,"Duration":102040,"SoundDuration":102040,"Delta":276285297},{"NoteNumber":55,"Velocity":40,"Duration":634068,"SoundDuration":634068,"Delta":276285297},{"NoteNumber":84,"Velocity":58,"Duration":102040,"SoundDuration":102040,"Delta":276387337},{"NoteNumber":86,"Velocity":60,"Duration":102040,"SoundDuration":102040,"Delta":276489378},{"NoteNumber":59,"Velocity":34,"Duration":204081,"SoundDuration":204081,"Delta":276489378},{"NoteNumber":83,"Velocity":52,"Duration":102040,"SoundDuration":102040,"Delta":276591419},{"NoteNumber":81,"Velocity":51,"Duration":106382,"SoundDuration":106382,"Delta":276693460},{"NoteNumber":62,"Velocity":34,"Duration":225905,"SoundDuration":225905,"Delta":276693460},{"NoteNumber":79,"Velocity":47,"Duration":119522,"SoundDuration":119522,"Delta":276799843},{"NoteNumber":81,"Velocity":53,"Duration":106592,"SoundDuration":106592,"Delta":276919365},{"NoteNumber":51,"Velocity":40,"Duration":621923,"SoundDuration":621923,"Delta":276919365},{"NoteNumber":79,"Velocity":51,"Duration":102570,"SoundDuration":102570,"Delta":277025957},{"NoteNumber":78,"Velocity":51,"Duration":101969,"SoundDuration":101969,"Delta":277128527},{"NoteNumber":54,"Velocity":33,"Duration":203805,"SoundDuration":203805,"Delta":277128527},{"NoteNumber":76,"Velocity":50,"Duration":101836,"SoundDuration":101836,"Delta":277230496},{"NoteNumber":75,"Velocity":49,"Duration":102194,"SoundDuration":102194,"Delta":277332332},{"NoteNumber":59,"Velocity":30,"Duration":208956,"SoundDuration":208956,"Delta":277332332},{"NoteNumber":72,"Velocity":48,"Duration":106761,"SoundDuration":106761,"Delta":277434527},{"NoteNumber":71,"Velocity":52,"Duration":102739,"SoundDuration":102739,"Delta":277541289},{"NoteNumber":51,"Velocity":40,"Duration":616990,"SoundDuration":616990,"Delta":277541289},{"NoteNumber":72,"Velocity":52,"Duration":102739,"SoundDuration":102739,"Delta":277644028},{"NoteNumber":71,"Velocity":51,"Duration":101695,"SoundDuration":101695,"Delta":277746768},{"NoteNumber":54,"Velocity":34,"Duration":203390,"SoundDuration":203390,"Delta":277746768},{"NoteNumber":69,"Velocity":51,"Duration":101695,"SoundDuration":101695,"Delta":277848463},{"NoteNumber":67,"Velocity":50,"Duration":101695,"SoundDuration":101695,"Delta":277950158},{"NoteNumber":59,"Velocity":32,"Duration":208121,"SoundDuration":208121,"Delta":277950158},{"NoteNumber":66,"Velocity":50,"Duration":106426,"SoundDuration":106426,"Delta":278051853},{"NoteNumber":67,"Velocity":56,"Duration":102640,"SoundDuration":102640,"Delta":278158279},{"NoteNumber":52,"Velocity":40,"Duration":616915,"SoundDuration":616915,"Delta":278158279},{"NoteNumber":71,"Velocity":50,"Duration":102220,"SoundDuration":102220,"Delta":278260920},{"NoteNumber":73,"Velocity":52,"Duration":101749,"SoundDuration":101749,"Delta":278363140},{"NoteNumber":55,"Velocity":33,"Duration":203444,"SoundDuration":203444,"Delta":278363140},{"NoteNumber":75,"Velocity":53,"Duration":101695,"SoundDuration":101695,"Delta":278464890},{"NoteNumber":76,"Velocity":55,"Duration":101847,"SoundDuration":101847,"Delta":278566585},{"NoteNumber":59,"Velocity":30,"Duration":208609,"SoundDuration":208609,"Delta":278566585},{"NoteNumber":78,"Velocity":57,"Duration":106761,"SoundDuration":106761,"Delta":278668433},{"NoteNumber":79,"Velocity":62,"Duration":101695,"SoundDuration":101695,"Delta":278775194},{"NoteNumber":52,"Velocity":40,"Duration":615014,"SoundDuration":615014,"Delta":278775194},{"NoteNumber":81,"Velocity":57,"Duration":101695,"SoundDuration":101695,"Delta":278876889},{"NoteNumber":83,"Velocity":56,"Duration":102040,"SoundDuration":102040,"Delta":278978584},{"NoteNumber":55,"Velocity":34,"Duration":204081,"SoundDuration":204081,"Delta":278978584},{"NoteNumber":79,"Velocity":54,"Duration":102040,"SoundDuration":102040,"Delta":279080625},{"NoteNumber":78,"Velocity":53,"Duration":102040,"SoundDuration":102040,"Delta":279182666},{"NoteNumber":59,"Velocity":32,"Duration":207543,"SoundDuration":207543,"Delta":279182666},{"NoteNumber":76,"Velocity":52,"Duration":105502,"SoundDuration":105502,"Delta":279284707},{"NoteNumber":79,"Velocity":63,"Duration":102482,"SoundDuration":102482,"Delta":279390209},{"NoteNumber":49,"Velocity":40,"Duration":615938,"SoundDuration":615938,"Delta":279390209},{"NoteNumber":78,"Velocity":61,"Duration":101870,"SoundDuration":101870,"Delta":279492692},{"NoteNumber":76,"Velocity":59,"Duration":101351,"SoundDuration":101351,"Delta":279594563},{"NoteNumber":52,"Velocity":33,"Duration":202951,"SoundDuration":202951,"Delta":279594563},{"NoteNumber":74,"Velocity":58,"Duration":101600,"SoundDuration":101600,"Delta":279695914},{"NoteNumber":73,"Velocity":56,"Duration":101905,"SoundDuration":101905,"Delta":279797515},{"NoteNumber":57,"Velocity":30,"Duration":208633,"SoundDuration":208633,"Delta":279797515},{"NoteNumber":71,"Velocity":54,"Duration":106727,"SoundDuration":106727,"Delta":279899420},{"NoteNumber":69,"Velocity":60,"Duration":102541,"SoundDuration":102541,"Delta":280006148},{"NoteNumber":49,"Velocity":40,"Duration":615547,"SoundDuration":615547,"Delta":280006148},{"NoteNumber":71,"Velocity":58,"Duration":101816,"SoundDuration":101816,"Delta":280108689},{"NoteNumber":69,"Velocity":56,"Duration":101394,"SoundDuration":101394,"Delta":280210505},{"NoteNumber":52,"Velocity":34,"Duration":203146,"SoundDuration":203146,"Delta":280210505},{"NoteNumber":67,"Velocity":55,"Duration":101752,"SoundDuration":101752,"Delta":280311899},{"NoteNumber":66,"Velocity":54,"Duration":102168,"SoundDuration":102168,"Delta":280413652},{"NoteNumber":57,"Velocity":32,"Duration":208043,"SoundDuration":208043,"Delta":280413652},{"NoteNumber":64,"Velocity":52,"Duration":105874,"SoundDuration":105874,"Delta":280515820},{"NoteNumber":66,"Velocity":56,"Duration":102936,"SoundDuration":102936,"Delta":280621695},{"NoteNumber":50,"Velocity":40,"Duration":619035,"SoundDuration":619035,"Delta":280621695},{"NoteNumber":69,"Velocity":50,"Duration":102514,"SoundDuration":102514,"Delta":280724632},{"NoteNumber":71,"Velocity":52,"Duration":102095,"SoundDuration":102095,"Delta":280827147},{"NoteNumber":54,"Velocity":33,"Duration":204333,"SoundDuration":204333,"Delta":280827147},{"NoteNumber":73,"Velocity":53,"Duration":102238,"SoundDuration":102238,"Delta":280929243},{"NoteNumber":74,"Velocity":55,"Duration":102488,"SoundDuration":102488,"Delta":281031481},{"NoteNumber":57,"Velocity":30,"Duration":209249,"SoundDuration":209249,"Delta":281031481},{"NoteNumber":76,"Velocity":57,"Duration":106761,"SoundDuration":106761,"Delta":281133969},{"NoteNumber":78,"Velocity":62,"Duration":103092,"SoundDuration":103092,"Delta":281240731},{"NoteNumber":50,"Velocity":40,"Duration":618690,"SoundDuration":618690,"Delta":281240731},{"NoteNumber":79,"Velocity":57,"Duration":103092,"SoundDuration":103092,"Delta":281343823},{"NoteNumber":81,"Velocity":56,"Duration":102040,"SoundDuration":102040,"Delta":281446916},{"NoteNumber":54,"Velocity":34,"Duration":204081,"SoundDuration":204081,"Delta":281446916},{"NoteNumber":83,"Velocity":54,"Duration":102040,"SoundDuration":102040,"Delta":281548957},{"NoteNumber":85,"Velocity":53,"Duration":102040,"SoundDuration":102040,"Delta":281650998},{"NoteNumber":57,"Velocity":32,"Duration":208423,"SoundDuration":208423,"Delta":281650998},{"NoteNumber":86,"Velocity":52,"Duration":106382,"SoundDuration":106382,"Delta":281753038},{"NoteNumber":83,"Velocity":60,"Duration":106382,"SoundDuration":106382,"Delta":281859421},{"NoteNumber":55,"Velocity":46,"Duration":425532,"SoundDuration":425532,"Delta":281859421},{"NoteNumber":81,"Velocity":59,"Duration":106382,"SoundDuration":106382,"Delta":281965804},{"NoteNumber":79,"Velocity":57,"Duration":106382,"SoundDuration":106382,"Delta":282072187},{"NoteNumber":78,"Velocity":56,"Duration":106383,"SoundDuration":106383,"Delta":282178570},{"NoteNumber":76,"Velocity":55,"Duration":106382,"SoundDuration":106382,"Delta":282284953},{"NoteNumber":74,"Velocity":53,"Duration":106527,"SoundDuration":106527,"Delta":282391336},{"NoteNumber":79,"Velocity":52,"Duration":103005,"SoundDuration":103005,"Delta":282497863},{"NoteNumber":67,"Velocity":45,"Duration":103005,"SoundDuration":103005,"Delta":282497863},{"NoteNumber":78,"Velocity":54,"Duration":101954,"SoundDuration":101954,"Delta":282600869},{"NoteNumber":66,"Velocity":42,"Duration":101954,"SoundDuration":101954,"Delta":282600869},{"NoteNumber":76,"Velocity":57,"Duration":100968,"SoundDuration":100968,"Delta":282702823},{"NoteNumber":64,"Velocity":43,"Duration":100968,"SoundDuration":100968,"Delta":282702823},{"NoteNumber":74,"Velocity":60,"Duration":100009,"SoundDuration":100009,"Delta":282803792},{"NoteNumber":62,"Velocity":46,"Duration":100009,"SoundDuration":100009,"Delta":282803792},{"NoteNumber":73,"Velocity":64,"Duration":101702,"SoundDuration":101702,"Delta":282903801},{"NoteNumber":61,"Velocity":48,"Duration":101702,"SoundDuration":101702,"Delta":282903801},{"NoteNumber":71,"Velocity":67,"Duration":104166,"SoundDuration":104166,"Delta":283005504},{"NoteNumber":59,"Velocity":51,"Duration":104166,"SoundDuration":104166,"Delta":283005504},{"NoteNumber":69,"Velocity":70,"Duration":83643,"SoundDuration":83643,"Delta":283109671},{"NoteNumber":57,"Velocity":54,"Duration":83643,"SoundDuration":83643,"Delta":283109671},{"NoteNumber":76,"Velocity":52,"Duration":77319,"SoundDuration":77319,"Delta":283332719},{"NoteNumber":73,"Velocity":52,"Duration":77319,"SoundDuration":77319,"Delta":283332719},{"NoteNumber":81,"Velocity":62,"Duration":77319,"SoundDuration":77319,"Delta":283332719},{"NoteNumber":45,"Velocity":42,"Duration":77319,"SoundDuration":77319,"Delta":283332719},{"NoteNumber":57,"Velocity":50,"Duration":77319,"SoundDuration":77319,"Delta":283332719},{"NoteNumber":73,"Velocity":52,"Duration":79787,"SoundDuration":79787,"Delta":283538905},{"NoteNumber":76,"Velocity":52,"Duration":79787,"SoundDuration":79787,"Delta":283538905},{"NoteNumber":81,"Velocity":62,"Duration":79787,"SoundDuration":79787,"Delta":283538905},{"NoteNumber":45,"Velocity":42,"Duration":79787,"SoundDuration":79787,"Delta":283538905},{"NoteNumber":57,"Velocity":50,"Duration":79787,"SoundDuration":79787,"Delta":283538905},{"NoteNumber":76,"Velocity":56,"Duration":87890,"SoundDuration":87890,"Delta":283751671},{"NoteNumber":81,"Velocity":67,"Duration":87890,"SoundDuration":87890,"Delta":283751671},{"NoteNumber":73,"Velocity":56,"Duration":87890,"SoundDuration":87890,"Delta":283751671},{"NoteNumber":45,"Velocity":45,"Duration":87890,"SoundDuration":87890,"Delta":283751671},{"NoteNumber":57,"Velocity":54,"Duration":87890,"SoundDuration":87890,"Delta":283751671},{"NoteNumber":69,"Velocity":42,"Duration":645439,"SoundDuration":645439,"Delta":284454796},{"NoteNumber":78,"Velocity":50,"Duration":645439,"SoundDuration":645439,"Delta":284454796},{"NoteNumber":67,"Velocity":39,"Duration":649994,"SoundDuration":649994,"Delta":285100235},{"NoteNumber":76,"Velocity":47,"Duration":215146,"SoundDuration":215146,"Delta":285100235},{"NoteNumber":78,"Velocity":44,"Duration":213690,"SoundDuration":213690,"Delta":285315382},{"NoteNumber":76,"Velocity":44,"Duration":221157,"SoundDuration":221157,"Delta":285529072},{"NoteNumber":66,"Velocity":42,"Duration":1723435,"SoundDuration":1723435,"Delta":285750230},{"NoteNumber":74,"Velocity":50,"Duration":1723435,"SoundDuration":1723435,"Delta":285750230},{"NoteNumber":62,"Velocity":41,"Duration":645439,"SoundDuration":645439,"Delta":285750230},{"NoteNumber":61,"Velocity":46,"Duration":215146,"SoundDuration":215146,"Delta":286395669},{"NoteNumber":62,"Velocity":44,"Duration":213690,"SoundDuration":213690,"Delta":286610816},{"NoteNumber":61,"Velocity":44,"Duration":218866,"SoundDuration":218866,"Delta":286824506},{"NoteNumber":59,"Velocity":51,"Duration":1073548,"SoundDuration":1073548,"Delta":287043373},{"NoteNumber":78,"Velocity":50,"Duration":212962,"SoundDuration":212962,"Delta":287473666},{"NoteNumber":79,"Velocity":50,"Duration":430293,"SoundDuration":430293,"Delta":287686628},{"NoteNumber":74,"Velocity":42,"Duration":649159,"SoundDuration":649159,"Delta":287686628},{"NoteNumber":83,"Velocity":54,"Duration":218866,"SoundDuration":218866,"Delta":288116921},{"NoteNumber":55,"Velocity":36,"Duration":218866,"SoundDuration":218866,"Delta":288116921},{"NoteNumber":73,"Velocity":45,"Duration":214407,"SoundDuration":214407,"Delta":288335788},{"NoteNumber":81,"Velocity":53,"Duration":428815,"SoundDuration":428815,"Delta":288335788},{"NoteNumber":57,"Velocity":41,"Duration":214407,"SoundDuration":214407,"Delta":288335788},{"NoteNumber":74,"Velocity":50,"Duration":214407,"SoundDuration":214407,"Delta":288550196},{"NoteNumber":59,"Velocity":37,"Duration":214407,"SoundDuration":214407,"Delta":288550196},{"NoteNumber":79,"Velocity":50,"Duration":217359,"SoundDuration":217359,"Delta":288764604},{"NoteNumber":76,"Velocity":42,"Duration":217359,"SoundDuration":217359,"Delta":288764604},{"NoteNumber":61,"Velocity":37,"Duration":217359,"SoundDuration":217359,"Delta":288764604},{"NoteNumber":78,"Velocity":54,"Duration":430293,"SoundDuration":430293,"Delta":288981964},{"NoteNumber":74,"Velocity":45,"Duration":430293,"SoundDuration":430293,"Delta":288981964},{"NoteNumber":62,"Velocity":42,"Duration":215146,"SoundDuration":215146,"Delta":288981964},{"NoteNumber":64,"Velocity":38,"Duration":215146,"SoundDuration":215146,"Delta":289197110},{"NoteNumber":66,"Velocity":38,"Duration":224298,"SoundDuration":224298,"Delta":289412257},{"NoteNumber":76,"Velocity":50,"Duration":860586,"SoundDuration":860586,"Delta":289636556},{"NoteNumber":67,"Velocity":42,"Duration":645439,"SoundDuration":645439,"Delta":289636556},{"NoteNumber":71,"Velocity":35,"Duration":1295434,"SoundDuration":1295434,"Delta":289636556},{"NoteNumber":74,"Velocity":35,"Duration":1295434,"SoundDuration":1295434,"Delta":289636556},{"NoteNumber":68,"Velocity":42,"Duration":649994,"SoundDuration":649994,"Delta":290281995},{"NoteNumber":78,"Velocity":44,"Duration":213690,"SoundDuration":213690,"Delta":290497142},{"NoteNumber":76,"Velocity":44,"Duration":221157,"SoundDuration":221157,"Delta":290710832},{"NoteNumber":76,"Velocity":50,"Duration":860586,"SoundDuration":860586,"Delta":290931990},{"NoteNumber":73,"Velocity":35,"Duration":645439,"SoundDuration":645439,"Delta":290931990},{"NoteNumber":69,"Velocity":42,"Duration":645439,"SoundDuration":645439,"Delta":290931990},{"NoteNumber":69,"Velocity":35,"Duration":653135,"SoundDuration":653135,"Delta":291577429},{"NoteNumber":73,"Velocity":35,"Duration":653135,"SoundDuration":653135,"Delta":291577429},{"NoteNumber":67,"Velocity":42,"Duration":653135,"SoundDuration":653135,"Delta":291577429},{"NoteNumber":78,"Velocity":45,"Duration":213690,"SoundDuration":213690,"Delta":291792576},{"NoteNumber":79,"Velocity":46,"Duration":224298,"SoundDuration":224298,"Delta":292006266},{"NoteNumber":81,"Velocity":52,"Duration":221157,"SoundDuration":221157,"Delta":292230565},{"NoteNumber":74,"Velocity":35,"Duration":221157,"SoundDuration":221157,"Delta":292230565},{"NoteNumber":69,"Velocity":29,"Duration":221157,"SoundDuration":221157,"Delta":292230565},{"NoteNumber":66,"Velocity":29,"Duration":221157,"SoundDuration":221157,"Delta":292230565},{"NoteNumber":86,"Velocity":49,"Duration":162454,"SoundDuration":162454,"Delta":292451723},{"NoteNumber":85,"Velocity":48,"Duration":164714,"SoundDuration":164714,"Delta":292668329},{"NoteNumber":83,"Velocity":49,"Duration":162454,"SoundDuration":162454,"Delta":292887949},{"NoteNumber":67,"Velocity":35,"Duration":433213,"SoundDuration":433213,"Delta":292887949},{"NoteNumber":81,"Velocity":48,"Duration":162454,"SoundDuration":162454,"Delta":293104555},{"NoteNumber":79,"Velocity":46,"Duration":174404,"SoundDuration":174404,"Delta":293321162},{"NoteNumber":62,"Velocity":31,"Duration":232539,"SoundDuration":232539,"Delta":293321162},{"NoteNumber":59,"Velocity":26,"Duration":232539,"SoundDuration":232539,"Delta":293321162},{"NoteNumber":78,"Velocity":45,"Duration":453697,"SoundDuration":453697,"Delta":293553702},{"NoteNumber":62,"Velocity":36,"Duration":693778,"SoundDuration":693778,"Delta":293553702},{"NoteNumber":57,"Velocity":30,"Duration":928906,"SoundDuration":928906,"Delta":293553702},{"NoteNumber":79,"Velocity":42,"Duration":118446,"SoundDuration":118446,"Delta":294007399},{"NoteNumber":78,"Velocity":43,"Duration":121634,"SoundDuration":121634,"Delta":294125845},{"NoteNumber":76,"Velocity":37,"Duration":235127,"SoundDuration":235127,"Delta":294247480},{"NoteNumber":61,"Velocity":32,"Duration":235127,"SoundDuration":235127,"Delta":294247480},{"NoteNumber":69,"Velocity":42,"Duration":645439,"SoundDuration":645439,"Delta":294952864},{"NoteNumber":78,"Velocity":50,"Duration":645439,"SoundDuration":645439,"Delta":294952864},{"NoteNumber":76,"Velocity":47,"Duration":215146,"SoundDuration":215146,"Delta":295598304},{"NoteNumber":67,"Velocity":39,"Duration":649994,"SoundDuration":649994,"Delta":295598304},{"NoteNumber":78,"Velocity":44,"Duration":213690,"SoundDuration":213690,"Delta":295813450},{"NoteNumber":76,"Velocity":44,"Duration":221157,"SoundDuration":221157,"Delta":296027141},{"NoteNumber":66,"Velocity":42,"Duration":645439,"SoundDuration":645439,"Delta":296248298},{"NoteNumber":74,"Velocity":50,"Duration":1723435,"SoundDuration":1723435,"Delta":296248298},{"NoteNumber":59,"Velocity":41,"Duration":645439,"SoundDuration":645439,"Delta":296248298},{"NoteNumber":66,"Velocity":42,"Duration":647703,"SoundDuration":647703,"Delta":296893738},{"NoteNumber":72,"Velocity":42,"Duration":647703,"SoundDuration":647703,"Delta":296893738},{"NoteNumber":57,"Velocity":46,"Duration":215146,"SoundDuration":215146,"Delta":296893738},{"NoteNumber":59,"Velocity":44,"Duration":213690,"SoundDuration":213690,"Delta":297108884},{"NoteNumber":57,"Velocity":44,"Duration":218866,"SoundDuration":218866,"Delta":297322575},{"NoteNumber":71,"Velocity":42,"Duration":430293,"SoundDuration":430293,"Delta":297541441},{"NoteNumber":67,"Velocity":42,"Duration":430293,"SoundDuration":430293,"Delta":297541441},{"NoteNumber":55,"Velocity":51,"Duration":430293,"SoundDuration":430293,"Delta":297541441},{"NoteNumber":75,"Velocity":50,"Duration":212962,"SoundDuration":212962,"Delta":297971734},{"NoteNumber":69,"Velocity":50,"Duration":212962,"SoundDuration":212962,"Delta":297971734},{"NoteNumber":71,"Velocity":50,"Duration":212962,"SoundDuration":212962,"Delta":297971734},{"NoteNumber":54,"Velocity":36,"Duration":212962,"SoundDuration":212962,"Delta":297971734},{"NoteNumber":76,"Velocity":50,"Duration":430293,"SoundDuration":430293,"Delta":298184697},{"NoteNumber":67,"Velocity":42,"Duration":430293,"SoundDuration":430293,"Delta":298184697},{"NoteNumber":71,"Velocity":42,"Duration":430293,"SoundDuration":430293,"Delta":298184697},{"NoteNumber":52,"Velocity":51,"Duration":430293,"SoundDuration":430293,"Delta":298184697},{"NoteNumber":78,"Velocity":54,"Duration":218866,"SoundDuration":218866,"Delta":298614990},{"NoteNumber":83,"Velocity":54,"Duration":218866,"SoundDuration":218866,"Delta":298614990},{"NoteNumber":50,"Velocity":36,"Duration":218866,"SoundDuration":218866,"Delta":298614990},{"NoteNumber":76,"Velocity":45,"Duration":428815,"SoundDuration":428815,"Delta":298833856},{"NoteNumber":81,"Velocity":53,"Duration":428815,"SoundDuration":428815,"Delta":298833856},{"NoteNumber":49,"Velocity":41,"Duration":428815,"SoundDuration":428815,"Delta":298833856},{"NoteNumber":73,"Velocity":42,"Duration":217359,"SoundDuration":217359,"Delta":299262672},{"NoteNumber":79,"Velocity":50,"Duration":217359,"SoundDuration":217359,"Delta":299262672},{"NoteNumber":45,"Velocity":37,"Duration":217359,"SoundDuration":217359,"Delta":299262672},{"NoteNumber":78,"Velocity":54,"Duration":430293,"SoundDuration":430293,"Delta":299480032},{"NoteNumber":74,"Velocity":45,"Duration":430293,"SoundDuration":430293,"Delta":299480032},{"NoteNumber":50,"Velocity":42,"Duration":215146,"SoundDuration":215146,"Delta":299480032},{"NoteNumber":52,"Velocity":38,"Duration":215146,"SoundDuration":215146,"Delta":299695179},{"NoteNumber":54,"Velocity":38,"Duration":218866,"SoundDuration":218866,"Delta":299910325},{"NoteNumber":76,"Velocity":50,"Duration":218977,"SoundDuration":218977,"Delta":300129192},{"NoteNumber":59,"Velocity":35,"Duration":1298988,"SoundDuration":1298988,"Delta":300129192},{"NoteNumber":55,"Velocity":42,"Duration":649086,"SoundDuration":649086,"Delta":300129192},{"NoteNumber":62,"Velocity":35,"Duration":1298988,"SoundDuration":1298988,"Delta":300129192},{"NoteNumber":88,"Velocity":55,"Duration":107527,"SoundDuration":107527,"Delta":300348170},{"NoteNumber":88,"Velocity":55,"Duration":107527,"SoundDuration":107527,"Delta":300563224},{"NoteNumber":88,"Velocity":59,"Duration":107527,"SoundDuration":107527,"Delta":300778278},{"NoteNumber":56,"Velocity":42,"Duration":649901,"SoundDuration":649901,"Delta":300778278},{"NoteNumber":88,"Velocity":53,"Duration":106845,"SoundDuration":106845,"Delta":300993332},{"NoteNumber":88,"Velocity":53,"Duration":110578,"SoundDuration":110578,"Delta":301207022},{"NoteNumber":88,"Velocity":60,"Duration":215146,"SoundDuration":215146,"Delta":301428180},{"NoteNumber":61,"Velocity":35,"Duration":645439,"SoundDuration":645439,"Delta":301428180},{"NoteNumber":55,"Velocity":42,"Duration":645439,"SoundDuration":645439,"Delta":301428180},{"NoteNumber":57,"Velocity":42,"Duration":645439,"SoundDuration":645439,"Delta":301428180},{"NoteNumber":81,"Velocity":53,"Duration":107573,"SoundDuration":107573,"Delta":301643326},{"NoteNumber":81,"Velocity":53,"Duration":107573,"SoundDuration":107573,"Delta":301858473},{"NoteNumber":81,"Velocity":62,"Duration":107573,"SoundDuration":107573,"Delta":302073619},{"NoteNumber":60,"Velocity":35,"Duration":649994,"SoundDuration":649994,"Delta":302073619},{"NoteNumber":57,"Velocity":35,"Duration":649994,"SoundDuration":649994,"Delta":302073619},{"NoteNumber":54,"Velocity":42,"Duration":649994,"SoundDuration":649994,"Delta":302073619},{"NoteNumber":86,"Velocity":56,"Duration":106845,"SoundDuration":106845,"Delta":302288766},{"NoteNumber":86,"Velocity":56,"Duration":110578,"SoundDuration":110578,"Delta":302502456},{"NoteNumber":86,"Velocity":57,"Duration":110578,"SoundDuration":110578,"Delta":302723614},{"NoteNumber":59,"Velocity":42,"Duration":110578,"SoundDuration":110578,"Delta":302723614},{"NoteNumber":55,"Velocity":35,"Duration":110578,"SoundDuration":110578,"Delta":302723614},{"NoteNumber":83,"Velocity":53,"Duration":108303,"SoundDuration":108303,"Delta":302944771},{"NoteNumber":79,"Velocity":45,"Duration":108303,"SoundDuration":108303,"Delta":302944771},{"NoteNumber":78,"Velocity":45,"Duration":109809,"SoundDuration":109809,"Delta":303161378},{"NoteNumber":81,"Velocity":54,"Duration":109809,"SoundDuration":109809,"Delta":303161378},{"NoteNumber":76,"Velocity":47,"Duration":107204,"SoundDuration":107204,"Delta":303380997},{"NoteNumber":79,"Velocity":56,"Duration":107204,"SoundDuration":107204,"Delta":303380997},{"NoteNumber":57,"Velocity":47,"Duration":107204,"SoundDuration":107204,"Delta":303380997},{"NoteNumber":74,"Velocity":49,"Duration":108303,"SoundDuration":108303,"Delta":303595405},{"NoteNumber":78,"Velocity":58,"Duration":108303,"SoundDuration":108303,"Delta":303595405},{"NoteNumber":73,"Velocity":50,"Duration":116269,"SoundDuration":116269,"Delta":303812012},{"NoteNumber":76,"Velocity":59,"Duration":116269,"SoundDuration":116269,"Delta":303812012},{"NoteNumber":74,"Velocity":65,"Duration":617952,"SoundDuration":617952,"Delta":304044552},{"NoteNumber":50,"Velocity":60,"Duration":102389,"SoundDuration":102389,"Delta":304044552},{"NoteNumber":57,"Velocity":44,"Duration":102388,"SoundDuration":102388,"Delta":304146941},{"NoteNumber":54,"Velocity":44,"Duration":102389,"SoundDuration":102389,"Delta":304249330},{"NoteNumber":57,"Velocity":44,"Duration":102389,"SoundDuration":102389,"Delta":304351719},{"NoteNumber":54,"Velocity":44,"Duration":102389,"SoundDuration":102389,"Delta":304454108},{"NoteNumber":57,"Velocity":44,"Duration":106006,"SoundDuration":106006,"Delta":304556497},{"NoteNumber":78,"Velocity":65,"Duration":622239,"SoundDuration":622239,"Delta":304662504},{"NoteNumber":50,"Velocity":55,"Duration":102389,"SoundDuration":102389,"Delta":304662504},{"NoteNumber":57,"Velocity":48,"Duration":102388,"SoundDuration":102388,"Delta":304764893},{"NoteNumber":54,"Velocity":45,"Duration":102389,"SoundDuration":102389,"Delta":304867282},{"NoteNumber":57,"Velocity":43,"Duration":102389,"SoundDuration":102389,"Delta":304969671},{"NoteNumber":54,"Velocity":43,"Duration":102389,"SoundDuration":102389,"Delta":305072060},{"NoteNumber":57,"Velocity":43,"Duration":110294,"SoundDuration":110294,"Delta":305174449},{"NoteNumber":79,"Velocity":67,"Duration":102389,"SoundDuration":102389,"Delta":305284743},{"NoteNumber":52,"Velocity":60,"Duration":102389,"SoundDuration":102389,"Delta":305284743},{"NoteNumber":78,"Velocity":65,"Duration":102388,"SoundDuration":102388,"Delta":305387132},{"NoteNumber":57,"Velocity":44,"Duration":102388,"SoundDuration":102388,"Delta":305387132},{"NoteNumber":76,"Velocity":64,"Duration":102389,"SoundDuration":102389,"Delta":305489521},{"NoteNumber":55,"Velocity":44,"Duration":102389,"SoundDuration":102389,"Delta":305489521},{"NoteNumber":74,"Velocity":63,"Duration":102389,"SoundDuration":102389,"Delta":305591910},{"NoteNumber":57,"Velocity":44,"Duration":102389,"SoundDuration":102389,"Delta":305591910},{"NoteNumber":73,"Velocity":61,"Duration":102389,"SoundDuration":102389,"Delta":305694299},{"NoteNumber":55,"Velocity":44,"Duration":102389,"SoundDuration":102389,"Delta":305694299},{"NoteNumber":57,"Velocity":44,"Duration":106761,"SoundDuration":106761,"Delta":305796688},{"NoteNumber":76,"Velocity":65,"Duration":102389,"SoundDuration":102389,"Delta":305903449},{"NoteNumber":49,"Velocity":55,"Duration":102389,"SoundDuration":102389,"Delta":305903449},{"NoteNumber":74,"Velocity":64,"Duration":102388,"SoundDuration":102388,"Delta":306005838},{"NoteNumber":57,"Velocity":42,"Duration":102388,"SoundDuration":102388,"Delta":306005838},{"NoteNumber":73,"Velocity":62,"Duration":102389,"SoundDuration":102389,"Delta":306108227},{"NoteNumber":52,"Velocity":42,"Duration":102389,"SoundDuration":102389,"Delta":306108227},{"NoteNumber":71,"Velocity":61,"Duration":102389,"SoundDuration":102389,"Delta":306210616},{"NoteNumber":57,"Velocity":42,"Duration":102389,"SoundDuration":102389,"Delta":306210616},{"NoteNumber":69,"Velocity":60,"Duration":102389,"SoundDuration":102389,"Delta":306313005},{"NoteNumber":52,"Velocity":42,"Duration":102389,"SoundDuration":102389,"Delta":306313005},{"NoteNumber":67,"Velocity":58,"Duration":109090,"SoundDuration":109090,"Delta":306415394},{"NoteNumber":57,"Velocity":42,"Duration":109090,"SoundDuration":109090,"Delta":306415394},{"NoteNumber":66,"Velocity":61,"Duration":102389,"SoundDuration":102389,"Delta":306524485},{"NoteNumber":50,"Velocity":51,"Duration":102389,"SoundDuration":102389,"Delta":306524485},{"NoteNumber":57,"Velocity":39,"Duration":102388,"SoundDuration":102388,"Delta":306626874},{"NoteNumber":69,"Velocity":49,"Duration":103806,"SoundDuration":103806,"Delta":306729263},{"NoteNumber":54,"Velocity":39,"Duration":103806,"SoundDuration":103806,"Delta":306729263},{"NoteNumber":57,"Velocity":39,"Duration":103806,"SoundDuration":103806,"Delta":306833069},{"NoteNumber":74,"Velocity":52,"Duration":103806,"SoundDuration":103806,"Delta":306936876},{"NoteNumber":54,"Velocity":39,"Duration":103806,"SoundDuration":103806,"Delta":306936876},{"NoteNumber":57,"Velocity":39,"Duration":103806,"SoundDuration":103806,"Delta":307040682},{"NoteNumber":78,"Velocity":55,"Duration":103806,"SoundDuration":103806,"Delta":307144488},{"NoteNumber":50,"Velocity":50,"Duration":103806,"SoundDuration":103806,"Delta":307144488},{"NoteNumber":57,"Velocity":40,"Duration":103806,"SoundDuration":103806,"Delta":307248294},{"NoteNumber":81,"Velocity":58,"Duration":103806,"SoundDuration":103806,"Delta":307352101},{"NoteNumber":54,"Velocity":40,"Duration":103806,"SoundDuration":103806,"Delta":307352101},{"NoteNumber":57,"Velocity":40,"Duration":103806,"SoundDuration":103806,"Delta":307455907},{"NoteNumber":54,"Velocity":40,"Duration":103806,"SoundDuration":103806,"Delta":307559713},{"NoteNumber":57,"Velocity":40,"Duration":103806,"SoundDuration":103806,"Delta":307663519},{"NoteNumber":79,"Velocity":67,"Duration":102389,"SoundDuration":102389,"Delta":307767326},{"NoteNumber":52,"Velocity":60,"Duration":102389,"SoundDuration":102389,"Delta":307767326},{"NoteNumber":78,"Velocity":65,"Duration":102388,"SoundDuration":102388,"Delta":307869715},{"NoteNumber":57,"Velocity":44,"Duration":102388,"SoundDuration":102388,"Delta":307869715},{"NoteNumber":76,"Velocity":64,"Duration":102389,"SoundDuration":102389,"Delta":307972104},{"NoteNumber":55,"Velocity":44,"Duration":102389,"SoundDuration":102389,"Delta":307972104},{"NoteNumber":74,"Velocity":63,"Duration":102389,"SoundDuration":102389,"Delta":308074493},{"NoteNumber":57,"Velocity":44,"Duration":102389,"SoundDuration":102389,"Delta":308074493},{"NoteNumber":73,"Velocity":61,"Duration":102389,"SoundDuration":102389,"Delta":308176882},{"NoteNumber":55,"Velocity":44,"Duration":102389,"SoundDuration":102389,"Delta":308176882},{"NoteNumber":57,"Velocity":44,"Duration":106761,"SoundDuration":106761,"Delta":308279271},{"NoteNumber":76,"Velocity":65,"Duration":102389,"SoundDuration":102389,"Delta":308386032},{"NoteNumber":49,"Velocity":55,"Duration":102389,"SoundDuration":102389,"Delta":308386032},{"NoteNumber":74,"Velocity":64,"Duration":102388,"SoundDuration":102388,"Delta":308488421},{"NoteNumber":57,"Velocity":42,"Duration":102388,"SoundDuration":102388,"Delta":308488421},{"NoteNumber":73,"Velocity":62,"Duration":102389,"SoundDuration":102389,"Delta":308590810},{"NoteNumber":52,"Velocity":42,"Duration":102389,"SoundDuration":102389,"Delta":308590810},{"NoteNumber":71,"Velocity":61,"Duration":102389,"SoundDuration":102389,"Delta":308693199},{"NoteNumber":57,"Velocity":42,"Duration":102389,"SoundDuration":102389,"Delta":308693199},{"NoteNumber":69,"Velocity":60,"Duration":102389,"SoundDuration":102389,"Delta":308795588},{"NoteNumber":52,"Velocity":42,"Duration":102389,"SoundDuration":102389,"Delta":308795588},{"NoteNumber":67,"Velocity":58,"Duration":109090,"SoundDuration":109090,"Delta":308897977},{"NoteNumber":57,"Velocity":42,"Duration":109090,"SoundDuration":109090,"Delta":308897977},{"NoteNumber":66,"Velocity":61,"Duration":102389,"SoundDuration":102389,"Delta":309007068},{"NoteNumber":50,"Velocity":51,"Duration":102389,"SoundDuration":102389,"Delta":309007068},{"NoteNumber":57,"Velocity":39,"Duration":102388,"SoundDuration":102388,"Delta":309109457},{"NoteNumber":69,"Velocity":49,"Duration":103806,"SoundDuration":103806,"Delta":309211846},{"NoteNumber":54,"Velocity":39,"Duration":103806,"SoundDuration":103806,"Delta":309211846},{"NoteNumber":57,"Velocity":39,"Duration":103806,"SoundDuration":103806,"Delta":309315652},{"NoteNumber":74,"Velocity":52,"Duration":103806,"SoundDuration":103806,"Delta":309419459},{"NoteNumber":54,"Velocity":39,"Duration":103806,"SoundDuration":103806,"Delta":309419459},{"NoteNumber":57,"Velocity":39,"Duration":103806,"SoundDuration":103806,"Delta":309523265},{"NoteNumber":78,"Velocity":55,"Duration":103806,"SoundDuration":103806,"Delta":309627071},{"NoteNumber":50,"Velocity":50,"Duration":103806,"SoundDuration":103806,"Delta":309627071},{"NoteNumber":57,"Velocity":40,"Duration":103806,"SoundDuration":103806,"Delta":309730877},{"NoteNumber":81,"Velocity":58,"Duration":103806,"SoundDuration":103806,"Delta":309834684},{"NoteNumber":54,"Velocity":40,"Duration":103806,"SoundDuration":103806,"Delta":309834684},{"NoteNumber":57,"Velocity":40,"Duration":103806,"SoundDuration":103806,"Delta":309938490},{"NoteNumber":54,"Velocity":40,"Duration":103806,"SoundDuration":103806,"Delta":310042296},{"NoteNumber":57,"Velocity":40,"Duration":103806,"SoundDuration":103806,"Delta":310146102},{"NoteNumber":55,"Velocity":45,"Duration":106761,"SoundDuration":106761,"Delta":310249909},{"NoteNumber":82,"Velocity":45,"Duration":209059,"SoundDuration":209059,"Delta":310463432},{"NoteNumber":83,"Velocity":45,"Duration":209058,"SoundDuration":209058,"Delta":310672491},{"NoteNumber":67,"Velocity":34,"Duration":107142,"SoundDuration":107142,"Delta":310881550},{"NoteNumber":74,"Velocity":40,"Duration":107142,"SoundDuration":107142,"Delta":310881550},{"NoteNumber":86,"Velocity":45,"Duration":208333,"SoundDuration":208333,"Delta":311095835},{"NoteNumber":83,"Velocity":45,"Duration":208333,"SoundDuration":208333,"Delta":311304169},{"NoteNumber":66,"Velocity":34,"Duration":107527,"SoundDuration":107527,"Delta":311512502},{"NoteNumber":74,"Velocity":40,"Duration":107527,"SoundDuration":107527,"Delta":311512502},{"NoteNumber":80,"Velocity":45,"Duration":209059,"SoundDuration":209059,"Delta":311727556},{"NoteNumber":81,"Velocity":45,"Duration":209058,"SoundDuration":209058,"Delta":311936615},{"NoteNumber":74,"Velocity":40,"Duration":107142,"SoundDuration":107142,"Delta":312145674},{"NoteNumber":67,"Velocity":34,"Duration":107142,"SoundDuration":107142,"Delta":312145674},{"NoteNumber":83,"Velocity":45,"Duration":209789,"SoundDuration":209789,"Delta":312359960},{"NoteNumber":79,"Velocity":45,"Duration":209789,"SoundDuration":209789,"Delta":312569750},{"NoteNumber":69,"Velocity":34,"Duration":107142,"SoundDuration":107142,"Delta":312779540},{"NoteNumber":74,"Velocity":40,"Duration":107142,"SoundDuration":107142,"Delta":312779540},{"NoteNumber":77,"Velocity":45,"Duration":209059,"SoundDuration":209059,"Delta":312993825},{"NoteNumber":78,"Velocity":45,"Duration":209058,"SoundDuration":209058,"Delta":313202884},{"NoteNumber":69,"Velocity":34,"Duration":106761,"SoundDuration":106761,"Delta":313411943},{"NoteNumber":73,"Velocity":40,"Duration":106761,"SoundDuration":106761,"Delta":313411943},{"NoteNumber":79,"Velocity":45,"Duration":210526,"SoundDuration":210526,"Delta":313625466},{"NoteNumber":76,"Velocity":45,"Duration":210526,"SoundDuration":210526,"Delta":313835993},{"NoteNumber":74,"Velocity":65,"Duration":617952,"SoundDuration":617952,"Delta":314046519},{"NoteNumber":50,"Velocity":60,"Duration":102389,"SoundDuration":102389,"Delta":314046519},{"NoteNumber":57,"Velocity":44,"Duration":102388,"SoundDuration":102388,"Delta":314148908},{"NoteNumber":54,"Velocity":44,"Duration":102389,"SoundDuration":102389,"Delta":314251297},{"NoteNumber":57,"Velocity":44,"Duration":102389,"SoundDuration":102389,"Delta":314353686},{"NoteNumber":54,"Velocity":44,"Duration":102389,"SoundDuration":102389,"Delta":314456075},{"NoteNumber":57,"Velocity":44,"Duration":106006,"SoundDuration":106006,"Delta":314558464},{"NoteNumber":78,"Velocity":65,"Duration":622239,"SoundDuration":622239,"Delta":314664471},{"NoteNumber":50,"Velocity":55,"Duration":102389,"SoundDuration":102389,"Delta":314664471},{"NoteNumber":57,"Velocity":48,"Duration":102388,"SoundDuration":102388,"Delta":314766860},{"NoteNumber":54,"Velocity":45,"Duration":102389,"SoundDuration":102389,"Delta":314869249},{"NoteNumber":57,"Velocity":43,"Duration":102389,"SoundDuration":102389,"Delta":314971638},{"NoteNumber":54,"Velocity":43,"Duration":102389,"SoundDuration":102389,"Delta":315074027},{"NoteNumber":57,"Velocity":43,"Duration":110294,"SoundDuration":110294,"Delta":315176416},{"NoteNumber":79,"Velocity":67,"Duration":102389,"SoundDuration":102389,"Delta":315286710},{"NoteNumber":52,"Velocity":60,"Duration":102389,"SoundDuration":102389,"Delta":315286710},{"NoteNumber":78,"Velocity":65,"Duration":102388,"SoundDuration":102388,"Delta":315389099},{"NoteNumber":57,"Velocity":44,"Duration":102388,"SoundDuration":102388,"Delta":315389099},{"NoteNumber":76,"Velocity":64,"Duration":102389,"SoundDuration":102389,"Delta":315491488},{"NoteNumber":55,"Velocity":44,"Duration":102389,"SoundDuration":102389,"Delta":315491488},{"NoteNumber":74,"Velocity":63,"Duration":102389,"SoundDuration":102389,"Delta":315593877},{"NoteNumber":57,"Velocity":44,"Duration":102389,"SoundDuration":102389,"Delta":315593877},{"NoteNumber":73,"Velocity":61,"Duration":102389,"SoundDuration":102389,"Delta":315696266},{"NoteNumber":55,"Velocity":44,"Duration":102389,"SoundDuration":102389,"Delta":315696266},{"NoteNumber":57,"Velocity":44,"Duration":106761,"SoundDuration":106761,"Delta":315798655},{"NoteNumber":76,"Velocity":65,"Duration":102389,"SoundDuration":102389,"Delta":315905417},{"NoteNumber":49,"Velocity":55,"Duration":102389,"SoundDuration":102389,"Delta":315905417},{"NoteNumber":74,"Velocity":64,"Duration":102388,"SoundDuration":102388,"Delta":316007806},{"NoteNumber":57,"Velocity":42,"Duration":102388,"SoundDuration":102388,"Delta":316007806},{"NoteNumber":73,"Velocity":62,"Duration":102389,"SoundDuration":102389,"Delta":316110195},{"NoteNumber":52,"Velocity":42,"Duration":102389,"SoundDuration":102389,"Delta":316110195},{"NoteNumber":71,"Velocity":61,"Duration":102389,"SoundDuration":102389,"Delta":316212584},{"NoteNumber":57,"Velocity":42,"Duration":102389,"SoundDuration":102389,"Delta":316212584},{"NoteNumber":69,"Velocity":60,"Duration":102389,"SoundDuration":102389,"Delta":316314973},{"NoteNumber":52,"Velocity":42,"Duration":102389,"SoundDuration":102389,"Delta":316314973},{"NoteNumber":67,"Velocity":58,"Duration":109090,"SoundDuration":109090,"Delta":316417362},{"NoteNumber":57,"Velocity":42,"Duration":109090,"SoundDuration":109090,"Delta":316417362},{"NoteNumber":66,"Velocity":61,"Duration":102389,"SoundDuration":102389,"Delta":316526453},{"NoteNumber":50,"Velocity":51,"Duration":102389,"SoundDuration":102389,"Delta":316526453},{"NoteNumber":57,"Velocity":39,"Duration":102388,"SoundDuration":102388,"Delta":316628842},{"NoteNumber":69,"Velocity":49,"Duration":103806,"SoundDuration":103806,"Delta":316731231},{"NoteNumber":54,"Velocity":39,"Duration":103806,"SoundDuration":103806,"Delta":316731231},{"NoteNumber":57,"Velocity":39,"Duration":103806,"SoundDuration":103806,"Delta":316835037},{"NoteNumber":74,"Velocity":52,"Duration":103806,"SoundDuration":103806,"Delta":316938843},{"NoteNumber":54,"Velocity":39,"Duration":103806,"SoundDuration":103806,"Delta":316938843},{"NoteNumber":57,"Velocity":39,"Duration":103806,"SoundDuration":103806,"Delta":317042649},{"NoteNumber":78,"Velocity":55,"Duration":103806,"SoundDuration":103806,"Delta":317146456},{"NoteNumber":50,"Velocity":50,"Duration":103806,"SoundDuration":103806,"Delta":317146456},{"NoteNumber":57,"Velocity":40,"Duration":103806,"SoundDuration":103806,"Delta":317250262},{"NoteNumber":81,"Velocity":58,"Duration":103806,"SoundDuration":103806,"Delta":317354068},{"NoteNumber":54,"Velocity":40,"Duration":103806,"SoundDuration":103806,"Delta":317354068},{"NoteNumber":57,"Velocity":40,"Duration":103806,"SoundDuration":103806,"Delta":317457874},{"NoteNumber":54,"Velocity":40,"Duration":103806,"SoundDuration":103806,"Delta":317561681},{"NoteNumber":57,"Velocity":40,"Duration":103806,"SoundDuration":103806,"Delta":317665487},{"NoteNumber":79,"Velocity":67,"Duration":102389,"SoundDuration":102389,"Delta":317769293},{"NoteNumber":52,"Velocity":60,"Duration":102389,"SoundDuration":102389,"Delta":317769293},{"NoteNumber":78,"Velocity":65,"Duration":102388,"SoundDuration":102388,"Delta":317871682},{"NoteNumber":57,"Velocity":44,"Duration":102388,"SoundDuration":102388,"Delta":317871682},{"NoteNumber":76,"Velocity":64,"Duration":102389,"SoundDuration":102389,"Delta":317974071},{"NoteNumber":55,"Velocity":44,"Duration":102389,"SoundDuration":102389,"Delta":317974071},{"NoteNumber":74,"Velocity":63,"Duration":102389,"SoundDuration":102389,"Delta":318076460},{"NoteNumber":57,"Velocity":44,"Duration":102389,"SoundDuration":102389,"Delta":318076460},{"NoteNumber":73,"Velocity":61,"Duration":102389,"SoundDuration":102389,"Delta":318178849},{"NoteNumber":55,"Velocity":44,"Duration":102389,"SoundDuration":102389,"Delta":318178849},{"NoteNumber":57,"Velocity":44,"Duration":106761,"SoundDuration":106761,"Delta":318281238},{"NoteNumber":76,"Velocity":65,"Duration":102389,"SoundDuration":102389,"Delta":318388000},{"NoteNumber":49,"Velocity":55,"Duration":102389,"SoundDuration":102389,"Delta":318388000},{"NoteNumber":74,"Velocity":64,"Duration":102388,"SoundDuration":102388,"Delta":318490389},{"NoteNumber":57,"Velocity":42,"Duration":102388,"SoundDuration":102388,"Delta":318490389},{"NoteNumber":73,"Velocity":62,"Duration":102389,"SoundDuration":102389,"Delta":318592778},{"NoteNumber":52,"Velocity":42,"Duration":102389,"SoundDuration":102389,"Delta":318592778},{"NoteNumber":71,"Velocity":61,"Duration":102389,"SoundDuration":102389,"Delta":318695167},{"NoteNumber":57,"Velocity":42,"Duration":102389,"SoundDuration":102389,"Delta":318695167},{"NoteNumber":69,"Velocity":60,"Duration":102389,"SoundDuration":102389,"Delta":318797556},{"NoteNumber":52,"Velocity":42,"Duration":102389,"SoundDuration":102389,"Delta":318797556},{"NoteNumber":67,"Velocity":58,"Duration":109090,"SoundDuration":109090,"Delta":318899945},{"NoteNumber":57,"Velocity":42,"Duration":109090,"SoundDuration":109090,"Delta":318899945},{"NoteNumber":66,"Velocity":61,"Duration":102389,"SoundDuration":102389,"Delta":319009036},{"NoteNumber":50,"Velocity":51,"Duration":102389,"SoundDuration":102389,"Delta":319009036},{"NoteNumber":57,"Velocity":39,"Duration":102388,"SoundDuration":102388,"Delta":319111425},{"NoteNumber":69,"Velocity":49,"Duration":103806,"SoundDuration":103806,"Delta":319213814},{"NoteNumber":54,"Velocity":39,"Duration":103806,"SoundDuration":103806,"Delta":319213814},{"NoteNumber":57,"Velocity":39,"Duration":103806,"SoundDuration":103806,"Delta":319317620},{"NoteNumber":74,"Velocity":52,"Duration":103806,"SoundDuration":103806,"Delta":319421426},{"NoteNumber":54,"Velocity":39,"Duration":103806,"SoundDuration":103806,"Delta":319421426},{"NoteNumber":57,"Velocity":39,"Duration":103806,"SoundDuration":103806,"Delta":319525232},{"NoteNumber":78,"Velocity":55,"Duration":103806,"SoundDuration":103806,"Delta":319629039},{"NoteNumber":50,"Velocity":50,"Duration":103806,"SoundDuration":103806,"Delta":319629039},{"NoteNumber":57,"Velocity":40,"Duration":103806,"SoundDuration":103806,"Delta":319732845},{"NoteNumber":81,"Velocity":58,"Duration":103806,"SoundDuration":103806,"Delta":319836651},{"NoteNumber":54,"Velocity":40,"Duration":103806,"SoundDuration":103806,"Delta":319836651},{"NoteNumber":57,"Velocity":40,"Duration":103806,"SoundDuration":103806,"Delta":319940457},{"NoteNumber":54,"Velocity":40,"Duration":103806,"SoundDuration":103806,"Delta":320044264},{"NoteNumber":57,"Velocity":40,"Duration":103806,"SoundDuration":103806,"Delta":320148070},{"NoteNumber":55,"Velocity":45,"Duration":108695,"SoundDuration":108695,"Delta":320251876},{"NoteNumber":82,"Velocity":45,"Duration":208333,"SoundDuration":208333,"Delta":320469268},{"NoteNumber":83,"Velocity":43,"Duration":208333,"SoundDuration":208333,"Delta":320677601},{"NoteNumber":74,"Velocity":40,"Duration":106761,"SoundDuration":106761,"Delta":320885935},{"NoteNumber":67,"Velocity":34,"Duration":106761,"SoundDuration":106761,"Delta":320885935},{"NoteNumber":86,"Velocity":45,"Duration":208333,"SoundDuration":208333,"Delta":321099458},{"NoteNumber":83,"Velocity":41,"Duration":208333,"SoundDuration":208333,"Delta":321307791},{"NoteNumber":74,"Velocity":40,"Duration":107142,"SoundDuration":107142,"Delta":321516125},{"NoteNumber":66,"Velocity":34,"Duration":107142,"SoundDuration":107142,"Delta":321516125},{"NoteNumber":80,"Velocity":45,"Duration":208333,"SoundDuration":208333,"Delta":321730410},{"NoteNumber":81,"Velocity":44,"Duration":208333,"SoundDuration":208333,"Delta":321938744},{"NoteNumber":74,"Velocity":40,"Duration":106761,"SoundDuration":106761,"Delta":322147077},{"NoteNumber":67,"Velocity":34,"Duration":106761,"SoundDuration":106761,"Delta":322147077},{"NoteNumber":83,"Velocity":45,"Duration":208333,"SoundDuration":208333,"Delta":322360600},{"NoteNumber":79,"Velocity":43,"Duration":208333,"SoundDuration":208333,"Delta":322568934},{"NoteNumber":74,"Velocity":40,"Duration":107913,"SoundDuration":107913,"Delta":322777267},{"NoteNumber":69,"Velocity":34,"Duration":107913,"SoundDuration":107913,"Delta":322777267},{"NoteNumber":77,"Velocity":45,"Duration":209789,"SoundDuration":209789,"Delta":322993095},{"NoteNumber":78,"Velocity":43,"Duration":209789,"SoundDuration":209789,"Delta":323202885},{"NoteNumber":73,"Velocity":40,"Duration":107527,"SoundDuration":107527,"Delta":323412675},{"NoteNumber":69,"Velocity":34,"Duration":107527,"SoundDuration":107527,"Delta":323412675},{"NoteNumber":79,"Velocity":45,"Duration":210526,"SoundDuration":210526,"Delta":323627729},{"NoteNumber":76,"Velocity":43,"Duration":215827,"SoundDuration":215827,"Delta":323838255},{"NoteNumber":55,"Velocity":55,"Duration":109890,"SoundDuration":109890,"Delta":324054083},{"NoteNumber":62,"Velocity":63,"Duration":109890,"SoundDuration":109890,"Delta":324054083},{"NoteNumber":70,"Velocity":58,"Duration":103806,"SoundDuration":103806,"Delta":324273863},{"NoteNumber":82,"Velocity":69,"Duration":103806,"SoundDuration":103806,"Delta":324273863},{"NoteNumber":83,"Velocity":67,"Duration":103806,"SoundDuration":103806,"Delta":324481475},{"NoteNumber":71,"Velocity":56,"Duration":103806,"SoundDuration":103806,"Delta":324481475},{"NoteNumber":62,"Velocity":57,"Duration":107913,"SoundDuration":107913,"Delta":324689088},{"NoteNumber":55,"Velocity":48,"Duration":107913,"SoundDuration":107913,"Delta":324689088},{"NoteNumber":74,"Velocity":58,"Duration":103448,"SoundDuration":103448,"Delta":324904915},{"NoteNumber":86,"Velocity":69,"Duration":103448,"SoundDuration":103448,"Delta":324904915},{"NoteNumber":71,"Velocity":56,"Duration":103448,"SoundDuration":103448,"Delta":325111812},{"NoteNumber":83,"Velocity":67,"Duration":103448,"SoundDuration":103448,"Delta":325111812},{"NoteNumber":62,"Velocity":57,"Duration":107527,"SoundDuration":107527,"Delta":325318708},{"NoteNumber":54,"Velocity":48,"Duration":107527,"SoundDuration":107527,"Delta":325318708},{"NoteNumber":68,"Velocity":58,"Duration":104529,"SoundDuration":104529,"Delta":325533762},{"NoteNumber":80,"Velocity":69,"Duration":104529,"SoundDuration":104529,"Delta":325533762},{"NoteNumber":69,"Velocity":56,"Duration":104529,"SoundDuration":104529,"Delta":325742821},{"NoteNumber":81,"Velocity":67,"Duration":104529,"SoundDuration":104529,"Delta":325742821},{"NoteNumber":55,"Velocity":48,"Duration":108303,"SoundDuration":108303,"Delta":325951880},{"NoteNumber":62,"Velocity":57,"Duration":108303,"SoundDuration":108303,"Delta":325951880},{"NoteNumber":71,"Velocity":58,"Duration":104894,"SoundDuration":104894,"Delta":326168487},{"NoteNumber":83,"Velocity":69,"Duration":104894,"SoundDuration":104894,"Delta":326168487},{"NoteNumber":79,"Velocity":67,"Duration":104894,"SoundDuration":104894,"Delta":326378277},{"NoteNumber":67,"Velocity":56,"Duration":104894,"SoundDuration":104894,"Delta":326378277},{"NoteNumber":62,"Velocity":57,"Duration":108303,"SoundDuration":108303,"Delta":326588067},{"NoteNumber":57,"Velocity":48,"Duration":108303,"SoundDuration":108303,"Delta":326588067},{"NoteNumber":77,"Velocity":69,"Duration":103806,"SoundDuration":103806,"Delta":326804673},{"NoteNumber":65,"Velocity":58,"Duration":103806,"SoundDuration":103806,"Delta":326804673},{"NoteNumber":78,"Velocity":67,"Duration":103806,"SoundDuration":103806,"Delta":327012286},{"NoteNumber":66,"Velocity":56,"Duration":103806,"SoundDuration":103806,"Delta":327012286},{"NoteNumber":57,"Velocity":48,"Duration":106761,"SoundDuration":106761,"Delta":327219898},{"NoteNumber":61,"Velocity":57,"Duration":106761,"SoundDuration":106761,"Delta":327219898},{"NoteNumber":67,"Velocity":58,"Duration":103806,"SoundDuration":103806,"Delta":327433421},{"NoteNumber":79,"Velocity":69,"Duration":103806,"SoundDuration":103806,"Delta":327433421},{"NoteNumber":64,"Velocity":56,"Duration":103806,"SoundDuration":103806,"Delta":327641034},{"NoteNumber":76,"Velocity":67,"Duration":103806,"SoundDuration":103806,"Delta":327641034},{"NoteNumber":74,"Velocity":72,"Duration":204777,"SoundDuration":204777,"Delta":327848646},{"NoteNumber":66,"Velocity":72,"Duration":204777,"SoundDuration":204777,"Delta":327848646},{"NoteNumber":50,"Velocity":67,"Duration":102389,"SoundDuration":102389,"Delta":327848646},{"NoteNumber":62,"Velocity":44,"Duration":102388,"SoundDuration":102388,"Delta":327951035},{"NoteNumber":61,"Velocity":48,"Duration":102389,"SoundDuration":102389,"Delta":328053424},{"NoteNumber":62,"Velocity":44,"Duration":102389,"SoundDuration":102389,"Delta":328155813},{"NoteNumber":61,"Velocity":48,"Duration":102389,"SoundDuration":102389,"Delta":328258202},{"NoteNumber":62,"Velocity":44,"Duration":106006,"SoundDuration":106006,"Delta":328360591},{"NoteNumber":74,"Velocity":73,"Duration":622239,"SoundDuration":622239,"Delta":328466598},{"NoteNumber":66,"Velocity":62,"Duration":622239,"SoundDuration":622239,"Delta":328466598},{"NoteNumber":47,"Velocity":62,"Duration":102389,"SoundDuration":102389,"Delta":328466598},{"NoteNumber":59,"Velocity":43,"Duration":102388,"SoundDuration":102388,"Delta":328568987},{"NoteNumber":58,"Velocity":47,"Duration":102389,"SoundDuration":102389,"Delta":328671376},{"NoteNumber":59,"Velocity":43,"Duration":102389,"SoundDuration":102389,"Delta":328773765},{"NoteNumber":58,"Velocity":47,"Duration":102389,"SoundDuration":102389,"Delta":328876154},{"NoteNumber":59,"Velocity":43,"Duration":110294,"SoundDuration":110294,"Delta":328978543},{"NoteNumber":67,"Velocity":63,"Duration":409556,"SoundDuration":409556,"Delta":329088837},{"NoteNumber":76,"Velocity":75,"Duration":409556,"SoundDuration":409556,"Delta":329088837},{"NoteNumber":43,"Velocity":67,"Duration":102389,"SoundDuration":102389,"Delta":329088837},{"NoteNumber":55,"Velocity":46,"Duration":102388,"SoundDuration":102388,"Delta":329191226},{"NoteNumber":54,"Velocity":50,"Duration":102389,"SoundDuration":102389,"Delta":329293615},{"NoteNumber":55,"Velocity":46,"Duration":102389,"SoundDuration":102389,"Delta":329396004},{"NoteNumber":71,"Velocity":60,"Duration":155020,"SoundDuration":155020,"Delta":329498393},{"NoteNumber":79,"Velocity":71,"Duration":155020,"SoundDuration":155020,"Delta":329498393},{"NoteNumber":54,"Velocity":51,"Duration":102389,"SoundDuration":102389,"Delta":329498393},{"NoteNumber":55,"Velocity":46,"Duration":105263,"SoundDuration":105263,"Delta":329600782},{"NoteNumber":64,"Velocity":65,"Duration":52631,"SoundDuration":52631,"Delta":329653414},{"NoteNumber":74,"Velocity":76,"Duration":410958,"SoundDuration":410958,"Delta":329706045},{"NoteNumber":45,"Velocity":55,"Duration":102739,"SoundDuration":102739,"Delta":329706045},{"NoteNumber":57,"Velocity":46,"Duration":102739,"SoundDuration":102739,"Delta":329808785},{"NoteNumber":56,"Velocity":49,"Duration":102739,"SoundDuration":102739,"Delta":329911525},{"NoteNumber":57,"Velocity":46,"Duration":102739,"SoundDuration":102739,"Delta":330014265},{"NoteNumber":73,"Velocity":69,"Duration":34722,"SoundDuration":34722,"Delta":330117004},{"NoteNumber":56,"Velocity":50,"Duration":104166,"SoundDuration":104166,"Delta":330117004},{"NoteNumber":74,"Velocity":62,"Duration":34722,"SoundDuration":34722,"Delta":330151727},{"NoteNumber":73,"Velocity":63,"Duration":34722,"SoundDuration":34722,"Delta":330186449},{"NoteNumber":71,"Velocity":70,"Duration":52083,"SoundDuration":52083,"Delta":330221171},{"NoteNumber":57,"Velocity":46,"Duration":104166,"SoundDuration":104166,"Delta":330221171},{"NoteNumber":73,"Velocity":64,"Duration":52083,"SoundDuration":52083,"Delta":330273254},{"NoteNumber":74,"Velocity":72,"Duration":204777,"SoundDuration":204777,"Delta":330325338},{"NoteNumber":50,"Velocity":67,"Duration":102389,"SoundDuration":102389,"Delta":330325338},{"NoteNumber":62,"Velocity":44,"Duration":102388,"SoundDuration":102388,"Delta":330427727},{"NoteNumber":61,"Velocity":48,"Duration":102389,"SoundDuration":102389,"Delta":330530116},{"NoteNumber":62,"Velocity":44,"Duration":102389,"SoundDuration":102389,"Delta":330632505},{"NoteNumber":61,"Velocity":48,"Duration":102389,"SoundDuration":102389,"Delta":330734894},{"NoteNumber":62,"Velocity":44,"Duration":106006,"SoundDuration":106006,"Delta":330837283},{"NoteNumber":74,"Velocity":73,"Duration":102389,"SoundDuration":102389,"Delta":330943290},{"NoteNumber":66,"Velocity":62,"Duration":102389,"SoundDuration":102389,"Delta":330943290},{"NoteNumber":47,"Velocity":62,"Duration":102389,"SoundDuration":102389,"Delta":330943290},{"NoteNumber":59,"Velocity":43,"Duration":102388,"SoundDuration":102388,"Delta":331045679},{"NoteNumber":74,"Velocity":73,"Duration":102389,"SoundDuration":102389,"Delta":331148068},{"NoteNumber":66,"Velocity":62,"Duration":102389,"SoundDuration":102389,"Delta":331148068},{"NoteNumber":58,"Velocity":47,"Duration":102389,"SoundDuration":102389,"Delta":331148068},{"NoteNumber":59,"Velocity":43,"Duration":102389,"SoundDuration":102389,"Delta":331250457},{"NoteNumber":66,"Velocity":62,"Duration":102389,"SoundDuration":102389,"Delta":331352846},{"NoteNumber":74,"Velocity":73,"Duration":102389,"SoundDuration":102389,"Delta":331352846},{"NoteNumber":58,"Velocity":47,"Duration":102389,"SoundDuration":102389,"Delta":331352846},{"NoteNumber":59,"Velocity":43,"Duration":110294,"SoundDuration":110294,"Delta":331455235},{"NoteNumber":76,"Velocity":75,"Duration":409556,"SoundDuration":409556,"Delta":331565529},{"NoteNumber":67,"Velocity":63,"Duration":409556,"SoundDuration":409556,"Delta":331565529},{"NoteNumber":43,"Velocity":67,"Duration":102389,"SoundDuration":102389,"Delta":331565529},{"NoteNumber":55,"Velocity":46,"Duration":102388,"SoundDuration":102388,"Delta":331667918},{"NoteNumber":54,"Velocity":50,"Duration":102389,"SoundDuration":102389,"Delta":331770307},{"NoteNumber":55,"Velocity":46,"Duration":102389,"SoundDuration":102389,"Delta":331872696},{"NoteNumber":79,"Velocity":71,"Duration":155020,"SoundDuration":155020,"Delta":331975085},{"NoteNumber":71,"Velocity":60,"Duration":155020,"SoundDuration":155020,"Delta":331975085},{"NoteNumber":54,"Velocity":51,"Duration":102389,"SoundDuration":102389,"Delta":331975085},{"NoteNumber":55,"Velocity":46,"Duration":105263,"SoundDuration":105263,"Delta":332077474},{"NoteNumber":64,"Velocity":65,"Duration":52631,"SoundDuration":52631,"Delta":332130105},{"NoteNumber":74,"Velocity":76,"Duration":410958,"SoundDuration":410958,"Delta":332182737},{"NoteNumber":45,"Velocity":55,"Duration":102739,"SoundDuration":102739,"Delta":332182737},{"NoteNumber":57,"Velocity":46,"Duration":102739,"SoundDuration":102739,"Delta":332285477},{"NoteNumber":56,"Velocity":49,"Duration":102739,"SoundDuration":102739,"Delta":332388217},{"NoteNumber":57,"Velocity":46,"Duration":102739,"SoundDuration":102739,"Delta":332490956},{"NoteNumber":73,"Velocity":69,"Duration":35587,"SoundDuration":35587,"Delta":332593696},{"NoteNumber":56,"Velocity":50,"Duration":106761,"SoundDuration":106761,"Delta":332593696},{"NoteNumber":74,"Velocity":62,"Duration":35587,"SoundDuration":35587,"Delta":332629283},{"NoteNumber":73,"Velocity":63,"Duration":35587,"SoundDuration":35587,"Delta":332664870},{"NoteNumber":71,"Velocity":70,"Duration":53380,"SoundDuration":53380,"Delta":332700458},{"NoteNumber":57,"Velocity":46,"Duration":106761,"SoundDuration":106761,"Delta":332700458},{"NoteNumber":73,"Velocity":64,"Duration":53380,"SoundDuration":53380,"Delta":332753838},{"NoteNumber":74,"Velocity":72,"Duration":216606,"SoundDuration":216606,"Delta":332807219},{"NoteNumber":66,"Velocity":45,"Duration":209059,"SoundDuration":209059,"Delta":333023826},{"NoteNumber":69,"Velocity":39,"Duration":209058,"SoundDuration":209058,"Delta":333232885},{"NoteNumber":71,"Velocity":45,"Duration":209059,"SoundDuration":209059,"Delta":333441944},{"NoteNumber":73,"Velocity":41,"Duration":209789,"SoundDuration":209789,"Delta":333651003},{"NoteNumber":74,"Velocity":42,"Duration":215054,"SoundDuration":215054,"Delta":333860793},{"NoteNumber":76,"Velocity":47,"Duration":216606,"SoundDuration":216606,"Delta":334075847},{"NoteNumber":61,"Velocity":38,"Duration":216606,"SoundDuration":216606,"Delta":334075847},{"NoteNumber":57,"Velocity":32,"Duration":216606,"SoundDuration":216606,"Delta":334075847},{"NoteNumber":69,"Velocity":40,"Duration":209789,"SoundDuration":209789,"Delta":334292453},{"NoteNumber":71,"Velocity":37,"Duration":209789,"SoundDuration":209789,"Delta":334502243},{"NoteNumber":73,"Velocity":46,"Duration":209789,"SoundDuration":209789,"Delta":334712033},{"NoteNumber":74,"Velocity":44,"Duration":212014,"SoundDuration":212014,"Delta":334921823},{"NoteNumber":76,"Velocity":47,"Duration":217391,"SoundDuration":217391,"Delta":335133837},{"NoteNumber":78,"Velocity":49,"Duration":223048,"SoundDuration":223048,"Delta":335351229},{"NoteNumber":62,"Velocity":41,"Duration":223048,"SoundDuration":223048,"Delta":335351229},{"NoteNumber":50,"Velocity":34,"Duration":223048,"SoundDuration":223048,"Delta":335351229},{"NoteNumber":66,"Velocity":37,"Duration":212765,"SoundDuration":212765,"Delta":335574277},{"NoteNumber":69,"Velocity":44,"Duration":212765,"SoundDuration":212765,"Delta":335574277},{"NoteNumber":73,"Velocity":41,"Duration":212765,"SoundDuration":212765,"Delta":335787043},{"NoteNumber":69,"Velocity":34,"Duration":212765,"SoundDuration":212765,"Delta":335787043},{"NoteNumber":74,"Velocity":52,"Duration":212766,"SoundDuration":212766,"Delta":335999809},{"NoteNumber":71,"Velocity":44,"Duration":212766,"SoundDuration":212766,"Delta":335999809},{"NoteNumber":76,"Velocity":50,"Duration":212765,"SoundDuration":212765,"Delta":336212575},{"NoteNumber":73,"Velocity":42,"Duration":212765,"SoundDuration":212765,"Delta":336212575},{"NoteNumber":78,"Velocity":54,"Duration":217391,"SoundDuration":217391,"Delta":336425341},{"NoteNumber":74,"Velocity":45,"Duration":217391,"SoundDuration":217391,"Delta":336425341},{"NoteNumber":76,"Velocity":48,"Duration":223880,"SoundDuration":223880,"Delta":336642733},{"NoteNumber":79,"Velocity":57,"Duration":223880,"SoundDuration":223880,"Delta":336642733},{"NoteNumber":57,"Velocity":41,"Duration":223880,"SoundDuration":223880,"Delta":336642733},{"NoteNumber":64,"Velocity":48,"Duration":223880,"SoundDuration":223880,"Delta":336642733},{"NoteNumber":61,"Velocity":41,"Duration":223880,"SoundDuration":223880,"Delta":336642733},{"NoteNumber":69,"Velocity":45,"Duration":213523,"SoundDuration":213523,"Delta":336866613},{"NoteNumber":73,"Velocity":52,"Duration":213523,"SoundDuration":213523,"Delta":336866613},{"NoteNumber":74,"Velocity":50,"Duration":216606,"SoundDuration":216606,"Delta":337080136},{"NoteNumber":71,"Velocity":42,"Duration":216606,"SoundDuration":216606,"Delta":337080136},{"NoteNumber":76,"Velocity":62,"Duration":217950,"SoundDuration":217950,"Delta":337296743},{"NoteNumber":73,"Velocity":53,"Duration":217950,"SoundDuration":217950,"Delta":337296743},{"NoteNumber":78,"Velocity":59,"Duration":226331,"SoundDuration":226331,"Delta":337514693},{"NoteNumber":74,"Velocity":50,"Duration":226331,"SoundDuration":226331,"Delta":337514693},{"NoteNumber":79,"Velocity":65,"Duration":245901,"SoundDuration":245901,"Delta":337741025},{"NoteNumber":76,"Velocity":54,"Duration":245901,"SoundDuration":245901,"Delta":337741025},{"NoteNumber":78,"Velocity":58,"Duration":468750,"SoundDuration":468750,"Delta":337986927},{"NoteNumber":81,"Velocity":69,"Duration":468750,"SoundDuration":468750,"Delta":337986927},{"NoteNumber":66,"Velocity":58,"Duration":468750,"SoundDuration":468750,"Delta":337986927},{"NoteNumber":62,"Velocity":48,"Duration":468750,"SoundDuration":468750,"Delta":337986927},{"NoteNumber":69,"Velocity":45,"Duration":99674,"SoundDuration":99674,"Delta":339158802},{"NoteNumber":81,"Velocity":50,"Duration":402712,"SoundDuration":402712,"Delta":339258476},{"NoteNumber":78,"Velocity":47,"Duration":151016,"SoundDuration":151016,"Delta":339661188},{"NoteNumber":76,"Velocity":47,"Duration":50339,"SoundDuration":50339,"Delta":339812205},{"NoteNumber":74,"Velocity":52,"Duration":75508,"SoundDuration":75508,"Delta":339862544},{"NoteNumber":62,"Velocity":29,"Duration":611060,"SoundDuration":611060,"Delta":339862544},{"NoteNumber":66,"Velocity":35,"Duration":611060,"SoundDuration":611060,"Delta":339862544},{"NoteNumber":73,"Velocity":47,"Duration":75508,"SoundDuration":75508,"Delta":340063900},{"NoteNumber":74,"Velocity":47,"Duration":78130,"SoundDuration":78130,"Delta":340265256},{"NoteNumber":76,"Velocity":46,"Duration":52087,"SoundDuration":52087,"Delta":340421517},{"NoteNumber":74,"Velocity":50,"Duration":75508,"SoundDuration":75508,"Delta":340473604},{"NoteNumber":68,"Velocity":35,"Duration":619333,"SoundDuration":619333,"Delta":340473604},{"NoteNumber":59,"Velocity":29,"Duration":619333,"SoundDuration":619333,"Delta":340473604},{"NoteNumber":73,"Velocity":46,"Duration":75508,"SoundDuration":75508,"Delta":340674960},{"NoteNumber":74,"Velocity":45,"Duration":81233,"SoundDuration":81233,"Delta":340876316},{"NoteNumber":78,"Velocity":52,"Duration":422565,"SoundDuration":422565,"Delta":341092938},{"NoteNumber":74,"Velocity":44,"Duration":422565,"SoundDuration":422565,"Delta":341092938},{"NoteNumber":69,"Velocity":35,"Duration":653255,"SoundDuration":653255,"Delta":341092938},{"NoteNumber":57,"Velocity":29,"Duration":653255,"SoundDuration":653255,"Delta":341092938},{"NoteNumber":73,"Velocity":37,"Duration":131015,"SoundDuration":131015,"Delta":341515503},{"NoteNumber":76,"Velocity":44,"Duration":131015,"SoundDuration":131015,"Delta":341515503},{"NoteNumber":67,"Velocity":45,"Duration":99674,"SoundDuration":99674,"Delta":341646519},{"NoteNumber":79,"Velocity":50,"Duration":402712,"SoundDuration":402712,"Delta":341746194},{"NoteNumber":76,"Velocity":47,"Duration":151016,"SoundDuration":151016,"Delta":342148906},{"NoteNumber":74,"Velocity":47,"Duration":50339,"SoundDuration":50339,"Delta":342299923},{"NoteNumber":73,"Velocity":52,"Duration":75508,"SoundDuration":75508,"Delta":342350262},{"NoteNumber":64,"Velocity":35,"Duration":611060,"SoundDuration":611060,"Delta":342350262},{"NoteNumber":57,"Velocity":29,"Duration":611060,"SoundDuration":611060,"Delta":342350262},{"NoteNumber":71,"Velocity":47,"Duration":75508,"SoundDuration":75508,"Delta":342551618},{"NoteNumber":73,"Velocity":47,"Duration":78130,"SoundDuration":78130,"Delta":342752974},{"NoteNumber":69,"Velocity":50,"Duration":75508,"SoundDuration":75508,"Delta":342961322},{"NoteNumber":61,"Velocity":29,"Duration":619333,"SoundDuration":619333,"Delta":342961322},{"NoteNumber":64,"Velocity":35,"Duration":619333,"SoundDuration":619333,"Delta":342961322},{"NoteNumber":76,"Velocity":46,"Duration":75508,"SoundDuration":75508,"Delta":343162678},{"NoteNumber":81,"Velocity":45,"Duration":81233,"SoundDuration":81233,"Delta":343364034},{"NoteNumber":79,"Velocity":52,"Duration":422565,"SoundDuration":422565,"Delta":343580656},{"NoteNumber":76,"Velocity":44,"Duration":422565,"SoundDuration":422565,"Delta":343580656},{"NoteNumber":62,"Velocity":29,"Duration":633847,"SoundDuration":633847,"Delta":343580656},{"NoteNumber":69,"Velocity":35,"Duration":633847,"SoundDuration":633847,"Delta":343580656},{"NoteNumber":74,"Velocity":37,"Duration":158461,"SoundDuration":158461,"Delta":344003221},{"NoteNumber":78,"Velocity":44,"Duration":158461,"SoundDuration":158461,"Delta":344003221},{"NoteNumber":74,"Velocity":48,"Duration":52820,"SoundDuration":52820,"Delta":344161682},{"NoteNumber":78,"Velocity":52,"Duration":405433,"SoundDuration":405433,"Delta":344214503},{"NoteNumber":50,"Velocity":51,"Duration":202716,"SoundDuration":202716,"Delta":344214503},{"NoteNumber":62,"Velocity":45,"Duration":101358,"SoundDuration":101358,"Delta":344417220},{"NoteNumber":79,"Velocity":48,"Duration":206910,"SoundDuration":206910,"Delta":344619936},{"NoteNumber":64,"Velocity":48,"Duration":103455,"SoundDuration":103455,"Delta":344619936},{"NoteNumber":83,"Velocity":59,"Duration":101358,"SoundDuration":101358,"Delta":344826847},{"NoteNumber":66,"Velocity":52,"Duration":202716,"SoundDuration":202716,"Delta":344826847},{"NoteNumber":81,"Velocity":57,"Duration":101358,"SoundDuration":101358,"Delta":344928205},{"NoteNumber":79,"Velocity":55,"Duration":101358,"SoundDuration":101358,"Delta":345029564},{"NoteNumber":78,"Velocity":53,"Duration":101358,"SoundDuration":101358,"Delta":345130922},{"NoteNumber":76,"Velocity":51,"Duration":109496,"SoundDuration":109496,"Delta":345232280},{"NoteNumber":74,"Velocity":47,"Duration":51906,"SoundDuration":51906,"Delta":345341777},{"NoteNumber":79,"Velocity":46,"Duration":51906,"SoundDuration":51906,"Delta":345393684},{"NoteNumber":83,"Velocity":58,"Duration":404067,"SoundDuration":404067,"Delta":345445591},{"NoteNumber":55,"Velocity":50,"Duration":202034,"SoundDuration":202034,"Delta":345445591},{"NoteNumber":67,"Velocity":44,"Duration":101016,"SoundDuration":101016,"Delta":345647625},{"NoteNumber":85,"Velocity":49,"Duration":206910,"SoundDuration":206910,"Delta":345849659},{"NoteNumber":69,"Velocity":48,"Duration":103455,"SoundDuration":103455,"Delta":345849659},{"NoteNumber":88,"Velocity":59,"Duration":101017,"SoundDuration":101017,"Delta":346056570},{"NoteNumber":71,"Velocity":53,"Duration":202034,"SoundDuration":202034,"Delta":346056570},{"NoteNumber":86,"Velocity":57,"Duration":101017,"SoundDuration":101017,"Delta":346157587},{"NoteNumber":85,"Velocity":55,"Duration":101016,"SoundDuration":101016,"Delta":346258604},{"NoteNumber":83,"Velocity":53,"Duration":101017,"SoundDuration":101017,"Delta":346359621},{"NoteNumber":81,"Velocity":51,"Duration":102746,"SoundDuration":102746,"Delta":346460638},{"NoteNumber":79,"Velocity":51,"Duration":102746,"SoundDuration":102746,"Delta":346563384},{"NoteNumber":85,"Velocity":59,"Duration":101017,"SoundDuration":101017,"Delta":346666131},{"NoteNumber":59,"Velocity":45,"Duration":202034,"SoundDuration":202034,"Delta":346666131},{"NoteNumber":64,"Velocity":53,"Duration":202034,"SoundDuration":202034,"Delta":346666131},{"NoteNumber":55,"Velocity":45,"Duration":202034,"SoundDuration":202034,"Delta":346666131},{"NoteNumber":83,"Velocity":58,"Duration":101017,"SoundDuration":101017,"Delta":346767148},{"NoteNumber":81,"Velocity":56,"Duration":101016,"SoundDuration":101016,"Delta":346868165},{"NoteNumber":79,"Velocity":55,"Duration":101017,"SoundDuration":101017,"Delta":346969182},{"NoteNumber":78,"Velocity":58,"Duration":105270,"SoundDuration":105270,"Delta":347070199},{"NoteNumber":76,"Velocity":62,"Duration":122458,"SoundDuration":122458,"Delta":347175470},{"NoteNumber":83,"Velocity":63,"Duration":101220,"SoundDuration":101220,"Delta":347297929},{"NoteNumber":62,"Velocity":45,"Duration":101220,"SoundDuration":101220,"Delta":347297929},{"NoteNumber":57,"Velocity":45,"Duration":101220,"SoundDuration":101220,"Delta":347297929},{"NoteNumber":66,"Velocity":53,"Duration":101017,"SoundDuration":101017,"Delta":347306550},{"NoteNumber":81,"Velocity":61,"Duration":101017,"SoundDuration":101017,"Delta":347399149},{"NoteNumber":79,"Velocity":59,"Duration":101017,"SoundDuration":101017,"Delta":347500166},{"NoteNumber":78,"Velocity":57,"Duration":101017,"SoundDuration":101017,"Delta":347601183},{"NoteNumber":76,"Velocity":56,"Duration":102602,"SoundDuration":102602,"Delta":347702200},{"NoteNumber":74,"Velocity":54,"Duration":102746,"SoundDuration":102746,"Delta":347804802},{"NoteNumber":81,"Velocity":59,"Duration":101161,"SoundDuration":101161,"Delta":347907549},{"NoteNumber":64,"Velocity":45,"Duration":101161,"SoundDuration":101161,"Delta":347907549},{"NoteNumber":57,"Velocity":45,"Duration":101161,"SoundDuration":101161,"Delta":347907549},{"NoteNumber":67,"Velocity":53,"Duration":101017,"SoundDuration":101017,"Delta":347916111},{"NoteNumber":79,"Velocity":61,"Duration":101017,"SoundDuration":101017,"Delta":348008710},{"NoteNumber":78,"Velocity":60,"Duration":101017,"SoundDuration":101017,"Delta":348109727},{"NoteNumber":76,"Velocity":59,"Duration":101017,"SoundDuration":101017,"Delta":348210744},{"NoteNumber":74,"Velocity":58,"Duration":104916,"SoundDuration":104916,"Delta":348311761},{"NoteNumber":73,"Velocity":61,"Duration":121026,"SoundDuration":121026,"Delta":348416677},{"NoteNumber":74,"Velocity":63,"Duration":104536,"SoundDuration":104536,"Delta":348537704},{"NoteNumber":66,"Velocity":53,"Duration":104536,"SoundDuration":104536,"Delta":348537704},{"NoteNumber":62,"Velocity":45,"Duration":104536,"SoundDuration":104536,"Delta":348537704},{"NoteNumber":62,"Velocity":66,"Duration":100341,"SoundDuration":100341,"Delta":348955852},{"NoteNumber":38,"Velocity":45,"Duration":100341,"SoundDuration":100341,"Delta":348955852},{"NoteNumber":66,"Velocity":66,"Duration":104536,"SoundDuration":104536,"Delta":349056193},{"NoteNumber":42,"Velocity":45,"Duration":104536,"SoundDuration":104536,"Delta":349056193},{"NoteNumber":69,"Velocity":73,"Duration":102395,"SoundDuration":102395,"Delta":349160730},{"NoteNumber":45,"Velocity":52,"Duration":102395,"SoundDuration":102395,"Delta":349160730},{"NoteNumber":66,"Velocity":70,"Duration":99674,"SoundDuration":99674,"Delta":349570314},{"NoteNumber":42,"Velocity":48,"Duration":99674,"SoundDuration":99674,"Delta":349570314},{"NoteNumber":69,"Velocity":70,"Duration":105641,"SoundDuration":105641,"Delta":349669989},{"NoteNumber":45,"Velocity":48,"Duration":105641,"SoundDuration":105641,"Delta":349669989},{"NoteNumber":74,"Velocity":75,"Duration":102395,"SoundDuration":102395,"Delta":349775630},{"NoteNumber":50,"Velocity":57,"Duration":102395,"SoundDuration":102395,"Delta":349775630},{"NoteNumber":69,"Velocity":69,"Duration":100341,"SoundDuration":100341,"Delta":350185214},{"NoteNumber":45,"Velocity":51,"Duration":100341,"SoundDuration":100341,"Delta":350185214},{"NoteNumber":74,"Velocity":69,"Duration":105641,"SoundDuration":105641,"Delta":350285555},{"NoteNumber":50,"Velocity":51,"Duration":105641,"SoundDuration":105641,"Delta":350285555},{"NoteNumber":78,"Velocity":81,"Duration":102395,"SoundDuration":102395,"Delta":350391196},{"NoteNumber":54,"Velocity":57,"Duration":102395,"SoundDuration":102395,"Delta":350391196},{"NoteNumber":74,"Velocity":70,"Duration":100678,"SoundDuration":100678,"Delta":350800780},{"NoteNumber":50,"Velocity":48,"Duration":100678,"SoundDuration":100678,"Delta":350800780},{"NoteNumber":78,"Velocity":70,"Duration":106014,"SoundDuration":106014,"Delta":350901458},{"NoteNumber":54,"Velocity":48,"Duration":106014,"SoundDuration":106014,"Delta":350901458},{"NoteNumber":81,"Velocity":82,"Duration":102395,"SoundDuration":102395,"Delta":351007473},{"NoteNumber":57,"Velocity":57,"Duration":102395,"SoundDuration":102395,"Delta":351007473},{"NoteNumber":81,"Velocity":45,"Duration":511979,"SoundDuration":511979,"Delta":352236225},{"NoteNumber":57,"Velocity":29,"Duration":1436102,"SoundDuration":1436102,"Delta":352236225},{"NoteNumber":66,"Velocity":35,"Duration":617621,"SoundDuration":617621,"Delta":352236225},{"NoteNumber":62,"Velocity":29,"Duration":617621,"SoundDuration":617621,"Delta":352236225},{"NoteNumber":83,"Velocity":42,"Duration":105641,"SoundDuration":105641,"Delta":352748205},{"NoteNumber":74,"Velocity":47,"Duration":409583,"SoundDuration":409583,"Delta":352853846},{"NoteNumber":64,"Velocity":27,"Duration":615077,"SoundDuration":615077,"Delta":352853846},{"NoteNumber":67,"Velocity":32,"Duration":615077,"SoundDuration":615077,"Delta":352853846},{"NoteNumber":73,"Velocity":47,"Duration":205249,"SoundDuration":205249,"Delta":353287404},{"NoteNumber":74,"Velocity":55,"Duration":152552,"SoundDuration":152552,"Delta":353468924},{"NoteNumber":62,"Velocity":29,"Duration":203403,"SoundDuration":203403,"Delta":353468924},{"NoteNumber":66,"Velocity":35,"Duration":203403,"SoundDuration":203403,"Delta":353468924},{"NoteNumber":86,"Velocity":54,"Duration":100341,"SoundDuration":100341,"Delta":353672327},{"NoteNumber":85,"Velocity":52,"Duration":100341,"SoundDuration":100341,"Delta":353873010},{"NoteNumber":83,"Velocity":50,"Duration":100341,"SoundDuration":100341,"Delta":354073692},{"NoteNumber":81,"Velocity":49,"Duration":100341,"SoundDuration":100341,"Delta":354274375},{"NoteNumber":80,"Velocity":47,"Duration":103455,"SoundDuration":103455,"Delta":354475057},{"NoteNumber":81,"Velocity":45,"Duration":259198,"SoundDuration":259198,"Delta":354681968},{"NoteNumber":57,"Velocity":29,"Duration":1439468,"SoundDuration":1439468,"Delta":354681968},{"NoteNumber":62,"Velocity":29,"Duration":620987,"SoundDuration":620987,"Delta":354681968},{"NoteNumber":66,"Velocity":35,"Duration":620987,"SoundDuration":620987,"Delta":354681968},{"NoteNumber":83,"Velocity":35,"Duration":50850,"SoundDuration":50850,"Delta":354941167},{"NoteNumber":81,"Velocity":35,"Duration":50850,"SoundDuration":50850,"Delta":354992018},{"NoteNumber":80,"Velocity":35,"Duration":50850,"SoundDuration":50850,"Delta":355042869},{"NoteNumber":81,"Velocity":45,"Duration":101701,"SoundDuration":101701,"Delta":355093720},{"NoteNumber":83,"Velocity":42,"Duration":107534,"SoundDuration":107534,"Delta":355195421},{"NoteNumber":74,"Velocity":47,"Duration":409583,"SoundDuration":409583,"Delta":355302956},{"NoteNumber":67,"Velocity":32,"Duration":615077,"SoundDuration":615077,"Delta":355302956},{"NoteNumber":64,"Velocity":27,"Duration":615077,"SoundDuration":615077,"Delta":355302956},{"NoteNumber":73,"Velocity":47,"Duration":205249,"SoundDuration":205249,"Delta":355736514},{"NoteNumber":74,"Velocity":55,"Duration":152552,"SoundDuration":152552,"Delta":355918033},{"NoteNumber":62,"Velocity":29,"Duration":203403,"SoundDuration":203403,"Delta":355918033},{"NoteNumber":66,"Velocity":35,"Duration":203403,"SoundDuration":203403,"Delta":355918033},{"NoteNumber":86,"Velocity":54,"Duration":100341,"SoundDuration":100341,"Delta":356121437},{"NoteNumber":85,"Velocity":52,"Duration":100341,"SoundDuration":100341,"Delta":356322119},{"NoteNumber":83,"Velocity":50,"Duration":100341,"SoundDuration":100341,"Delta":356522802},{"NoteNumber":81,"Velocity":49,"Duration":100341,"SoundDuration":100341,"Delta":356723484},{"NoteNumber":80,"Velocity":47,"Duration":103455,"SoundDuration":103455,"Delta":356924167},{"NoteNumber":81,"Velocity":45,"Duration":259198,"SoundDuration":259198,"Delta":357131078},{"NoteNumber":57,"Velocity":29,"Duration":1241854,"SoundDuration":1241854,"Delta":357131078},{"NoteNumber":62,"Velocity":29,"Duration":620987,"SoundDuration":620987,"Delta":357131078},{"NoteNumber":66,"Velocity":35,"Duration":620987,"SoundDuration":620987,"Delta":357131078},{"NoteNumber":83,"Velocity":35,"Duration":50850,"SoundDuration":50850,"Delta":357390277},{"NoteNumber":81,"Velocity":35,"Duration":50850,"SoundDuration":50850,"Delta":357441128},{"NoteNumber":80,"Velocity":35,"Duration":50850,"SoundDuration":50850,"Delta":357491979},{"NoteNumber":81,"Velocity":45,"Duration":101701,"SoundDuration":101701,"Delta":357542829},{"NoteNumber":83,"Velocity":42,"Duration":107534,"SoundDuration":107534,"Delta":357644531},{"NoteNumber":74,"Velocity":47,"Duration":409583,"SoundDuration":409583,"Delta":357752066},{"NoteNumber":67,"Velocity":32,"Duration":620866,"SoundDuration":620866,"Delta":357752066},{"NoteNumber":64,"Velocity":27,"Duration":620866,"SoundDuration":620866,"Delta":357752066},{"NoteNumber":73,"Velocity":47,"Duration":210363,"SoundDuration":210363,"Delta":358186299},{"NoteNumber":74,"Velocity":52,"Duration":203403,"SoundDuration":203403,"Delta":358372932},{"NoteNumber":62,"Velocity":24,"Duration":203403,"SoundDuration":203403,"Delta":358372932},{"NoteNumber":66,"Velocity":32,"Duration":203403,"SoundDuration":203403,"Delta":358372932},{"NoteNumber":59,"Velocity":29,"Duration":629369,"SoundDuration":629369,"Delta":358983143},{"NoteNumber":62,"Velocity":35,"Duration":629369,"SoundDuration":629369,"Delta":358983143},{"NoteNumber":54,"Velocity":29,"Duration":629369,"SoundDuration":629369,"Delta":358983143},{"NoteNumber":47,"Velocity":35,"Duration":629369,"SoundDuration":629369,"Delta":358983143},{"NoteNumber":59,"Velocity":32,"Duration":610169,"SoundDuration":610169,"Delta":359612513},{"NoteNumber":64,"Velocity":38,"Duration":610169,"SoundDuration":610169,"Delta":359612513},{"NoteNumber":62,"Velocity":32,"Duration":610169,"SoundDuration":610169,"Delta":359612513},{"NoteNumber":43,"Velocity":37,"Duration":610169,"SoundDuration":610169,"Delta":359612513},{"NoteNumber":69,"Velocity":39,"Duration":624442,"SoundDuration":624442,"Delta":360222683},{"NoteNumber":64,"Velocity":33,"Duration":624442,"SoundDuration":624442,"Delta":360222683},{"NoteNumber":61,"Velocity":33,"Duration":624442,"SoundDuration":624442,"Delta":360222683},{"NoteNumber":45,"Velocity":39,"Duration":624442,"SoundDuration":624442,"Delta":360222683},{"NoteNumber":66,"Velocity":35,"Duration":207612,"SoundDuration":207612,"Delta":360847126},{"NoteNumber":57,"Velocity":29,"Duration":207612,"SoundDuration":207612,"Delta":360847126},{"NoteNumber":62,"Velocity":29,"Duration":207612,"SoundDuration":207612,"Delta":360847126},{"NoteNumber":38,"Velocity":35,"Duration":207612,"SoundDuration":207612,"Delta":360847126},{"NoteNumber":83,"Velocity":52,"Duration":105306,"SoundDuration":105306,"Delta":361469963},{"NoteNumber":78,"Velocity":44,"Duration":105306,"SoundDuration":105306,"Delta":361469963},{"NoteNumber":47,"Velocity":50,"Duration":105306,"SoundDuration":105306,"Delta":361469963},{"NoteNumber":59,"Velocity":60,"Duration":105306,"SoundDuration":105306,"Delta":361469963},{"NoteNumber":86,"Velocity":47,"Duration":104892,"SoundDuration":104892,"Delta":361575270},{"NoteNumber":83,"Velocity":52,"Duration":104251,"SoundDuration":104251,"Delta":361680163},{"NoteNumber":78,"Velocity":44,"Duration":104251,"SoundDuration":104251,"Delta":361680163},{"NoteNumber":47,"Velocity":45,"Duration":104251,"SoundDuration":104251,"Delta":361680163},{"NoteNumber":59,"Velocity":53,"Duration":104251,"SoundDuration":104251,"Delta":361680163},{"NoteNumber":86,"Velocity":47,"Duration":103502,"SoundDuration":103502,"Delta":361784414},{"NoteNumber":78,"Velocity":45,"Duration":102878,"SoundDuration":102878,"Delta":361887917},{"NoteNumber":83,"Velocity":53,"Duration":102878,"SoundDuration":102878,"Delta":361887917},{"NoteNumber":47,"Velocity":46,"Duration":102878,"SoundDuration":102878,"Delta":361887917},{"NoteNumber":59,"Velocity":55,"Duration":102878,"SoundDuration":102878,"Delta":361887917},{"NoteNumber":86,"Velocity":49,"Duration":102148,"SoundDuration":102148,"Delta":361990795},{"NoteNumber":83,"Velocity":59,"Duration":101694,"SoundDuration":101694,"Delta":362092943},{"NoteNumber":76,"Velocity":50,"Duration":101694,"SoundDuration":101694,"Delta":362092943},{"NoteNumber":43,"Velocity":59,"Duration":101694,"SoundDuration":101694,"Delta":362092943},{"NoteNumber":55,"Velocity":71,"Duration":101694,"SoundDuration":101694,"Delta":362092943},{"NoteNumber":86,"Velocity":53,"Duration":101695,"SoundDuration":101695,"Delta":362194638},{"NoteNumber":76,"Velocity":51,"Duration":101695,"SoundDuration":101695,"Delta":362296333},{"NoteNumber":83,"Velocity":62,"Duration":101695,"SoundDuration":101695,"Delta":362296333},{"NoteNumber":43,"Velocity":52,"Duration":101695,"SoundDuration":101695,"Delta":362296333},{"NoteNumber":55,"Velocity":63,"Duration":101695,"SoundDuration":101695,"Delta":362296333},{"NoteNumber":86,"Velocity":57,"Duration":101695,"SoundDuration":101695,"Delta":362398028},{"NoteNumber":83,"Velocity":64,"Duration":101695,"SoundDuration":101695,"Delta":362499723},{"NoteNumber":76,"Velocity":53,"Duration":101695,"SoundDuration":101695,"Delta":362499723},{"NoteNumber":43,"Velocity":55,"Duration":101695,"SoundDuration":101695,"Delta":362499723},{"NoteNumber":55,"Velocity":66,"Duration":101695,"SoundDuration":101695,"Delta":362499723},{"NoteNumber":86,"Velocity":59,"Duration":101695,"SoundDuration":101695,"Delta":362601418},{"NoteNumber":79,"Velocity":68,"Duration":101695,"SoundDuration":101695,"Delta":362703113},{"NoteNumber":76,"Velocity":57,"Duration":101695,"SoundDuration":101695,"Delta":362703113},{"NoteNumber":45,"Velocity":67,"Duration":101695,"SoundDuration":101695,"Delta":362703113},{"NoteNumber":57,"Velocity":80,"Duration":101695,"SoundDuration":101695,"Delta":362703113},{"NoteNumber":85,"Velocity":62,"Duration":101695,"SoundDuration":101695,"Delta":362804808},{"NoteNumber":76,"Velocity":60,"Duration":101695,"SoundDuration":101695,"Delta":362906503},{"NoteNumber":79,"Velocity":71,"Duration":101695,"SoundDuration":101695,"Delta":362906503},{"NoteNumber":45,"Velocity":61,"Duration":101695,"SoundDuration":101695,"Delta":362906503},{"NoteNumber":57,"Velocity":72,"Duration":101695,"SoundDuration":101695,"Delta":362906503},{"NoteNumber":85,"Velocity":64,"Duration":102623,"SoundDuration":102623,"Delta":363008198},{"NoteNumber":76,"Velocity":62,"Duration":106761,"SoundDuration":106761,"Delta":363110822},{"NoteNumber":79,"Velocity":73,"Duration":106761,"SoundDuration":106761,"Delta":363110822},{"NoteNumber":45,"Velocity":62,"Duration":106761,"SoundDuration":106761,"Delta":363110822},{"NoteNumber":57,"Velocity":74,"Duration":106761,"SoundDuration":106761,"Delta":363110822},{"NoteNumber":85,"Velocity":68,"Duration":106761,"SoundDuration":106761,"Delta":363217584},{"NoteNumber":86,"Velocity":88,"Duration":109488,"SoundDuration":109488,"Delta":363324345},{"NoteNumber":81,"Velocity":73,"Duration":109488,"SoundDuration":109488,"Delta":363324345},{"NoteNumber":78,"Velocity":73,"Duration":109488,"SoundDuration":109488,"Delta":363324345},{"NoteNumber":74,"Velocity":73,"Duration":109488,"SoundDuration":109488,"Delta":363324345},{"NoteNumber":38,"Velocity":78,"Duration":109488,"SoundDuration":109488,"Delta":363324345},{"NoteNumber":50,"Velocity":93,"Duration":109488,"SoundDuration":109488,"Delta":363324345},{"NoteNumber":78,"Velocity":72,"Duration":111110,"SoundDuration":111110,"Delta":363981279},{"NoteNumber":74,"Velocity":72,"Duration":111110,"SoundDuration":111110,"Delta":363981279},{"NoteNumber":69,"Velocity":72,"Duration":111110,"SoundDuration":111110,"Delta":363981279},{"NoteNumber":81,"Velocity":85,"Duration":111110,"SoundDuration":111110,"Delta":363981279},{"NoteNumber":38,"Velocity":72,"Duration":111110,"SoundDuration":111110,"Delta":363981279},{"NoteNumber":45,"Velocity":72,"Duration":111110,"SoundDuration":111110,"Delta":363981279},{"NoteNumber":42,"Velocity":72,"Duration":111110,"SoundDuration":111110,"Delta":363981279},{"NoteNumber":50,"Velocity":85,"Duration":111110,"SoundDuration":111110,"Delta":363981279},{"NoteNumber":78,"Velocity":85,"Duration":111110,"SoundDuration":111110,"Delta":364647945},{"NoteNumber":74,"Velocity":72,"Duration":111110,"SoundDuration":111110,"Delta":364647945},{"NoteNumber":69,"Velocity":72,"Duration":111110,"SoundDuration":111110,"Delta":364647945},{"NoteNumber":38,"Velocity":72,"Duration":111110,"SoundDuration":111110,"Delta":364647945},{"NoteNumber":42,"Velocity":72,"Duration":111110,"SoundDuration":111110,"Delta":364647945},{"NoteNumber":45,"Velocity":72,"Duration":111110,"SoundDuration":111110,"Delta":364647945},{"NoteNumber":50,"Velocity":85,"Duration":111110,"SoundDuration":111110,"Delta":364647945}]}