{"title":"Klaviersonate Nr. 8 KV 311 1. Satz","artist":"Mozart","durationMs":259669,"midiSha256":"a28e4f106ea47cafbeeb4199d02fbc83f5b563f8aa5c7507ffde8472e6f2dab6","midiObject":[{"NoteNumber":69,"Velocity":60,"Duration":423042,"SoundDuration":423042,"Delta":0},{"NoteNumber":74,"Velocity":73,"Duration":423042,"SoundDuration":423042,"Delta":0},{"NoteNumber":66,"Velocity":60,"Duration":423042,"SoundDuration":423042,"Delta":0},{"NoteNumber":45,"Velocity":57,"Duration":423042,"SoundDuration":423042,"Delta":0},{"NoteNumber":38,"Velocity":57,"Duration":423042,"SoundDuration":423042,"Delta":0},{"NoteNumber":50,"Velocity":69,"Duration":423042,"SoundDuration":423042,"Delta":0},{"NoteNumber":79,"Velocity":66,"Duration":111614,"SoundDuration":111614,"Delta":846084},{"NoteNumber":66,"Velocity":45,"Duration":405872,"SoundDuration":405872,"Delta":846084},{"NoteNumber":62,"Velocity":37,"Duration":405872,"SoundDuration":405872,"Delta":846084},{"NoteNumber":78,"Velocity":55,"Duration":111614,"SoundDuration":111614,"Delta":947552},{"NoteNumber":76,"Velocity":54,"Duration":111614,"SoundDuration":111614,"Delta":1049020},{"NoteNumber":78,"Velocity":54,"Duration":111614,"SoundDuration":111614,"Delta":1150488},{"NoteNumber":81,"Velocity":65,"Duration":111614,"SoundDuration":111614,"Delta":1251956},{"NoteNumber":64,"Velocity":37,"Duration":423800,"SoundDuration":423800,"Delta":1251956},{"NoteNumber":67,"Velocity":45,"Duration":423800,"SoundDuration":423800,"Delta":1251956},{"NoteNumber":79,"Velocity":55,"Duration":112511,"SoundDuration":112511,"Delta":1353424},{"NoteNumber":78,"Velocity":55,"Duration":121475,"SoundDuration":121475,"Delta":1454892},{"NoteNumber":79,"Velocity":55,"Duration":120510,"SoundDuration":120510,"Delta":1565324},{"NoteNumber":81,"Velocity":62,"Duration":403145,"SoundDuration":403145,"Delta":1675756},{"NoteNumber":69,"Velocity":45,"Duration":403145,"SoundDuration":403145,"Delta":1675756},{"NoteNumber":66,"Velocity":37,"Duration":403145,"SoundDuration":403145,"Delta":1675756},{"NoteNumber":81,"Velocity":50,"Duration":50393,"SoundDuration":50393,"Delta":2487537},{"NoteNumber":83,"Velocity":45,"Duration":50393,"SoundDuration":50393,"Delta":2689110},{"NoteNumber":85,"Velocity":45,"Duration":50393,"SoundDuration":50393,"Delta":2890682},{"NoteNumber":86,"Velocity":45,"Duration":52144,"SoundDuration":52144,"Delta":3092255},{"NoteNumber":81,"Velocity":54,"Duration":403144,"SoundDuration":403144,"Delta":3300834},{"NoteNumber":54,"Velocity":38,"Duration":201572,"SoundDuration":201572,"Delta":3300834},{"NoteNumber":62,"Velocity":32,"Duration":201572,"SoundDuration":201572,"Delta":3502407},{"NoteNumber":78,"Velocity":45,"Duration":403145,"SoundDuration":403145,"Delta":3703979},{"NoteNumber":50,"Velocity":38,"Duration":201572,"SoundDuration":201572,"Delta":3703979},{"NoteNumber":62,"Velocity":33,"Duration":201572,"SoundDuration":201572,"Delta":3905552},{"NoteNumber":81,"Velocity":50,"Duration":100786,"SoundDuration":100786,"Delta":4107124},{"NoteNumber":52,"Velocity":37,"Duration":201572,"SoundDuration":201572,"Delta":4107124},{"NoteNumber":79,"Velocity":44,"Duration":100786,"SoundDuration":100786,"Delta":4207910},{"NoteNumber":78,"Velocity":44,"Duration":100786,"SoundDuration":100786,"Delta":4308697},{"NoteNumber":62,"Velocity":32,"Duration":201572,"SoundDuration":201572,"Delta":4308697},{"NoteNumber":79,"Velocity":44,"Duration":100786,"SoundDuration":100786,"Delta":4409483},{"NoteNumber":81,"Velocity":49,"Duration":50393,"SoundDuration":50393,"Delta":4510269},{"NoteNumber":57,"Velocity":37,"Duration":50393,"SoundDuration":50393,"Delta":4510269},{"NoteNumber":79,"Velocity":46,"Duration":54022,"SoundDuration":54022,"Delta":4711842},{"NoteNumber":61,"Velocity":30,"Duration":54022,"SoundDuration":54022,"Delta":4711842},{"NoteNumber":77,"Velocity":54,"Duration":208579,"SoundDuration":208579,"Delta":4927933},{"NoteNumber":50,"Velocity":42,"Duration":408806,"SoundDuration":408806,"Delta":4927933},{"NoteNumber":62,"Velocity":42,"Duration":408806,"SoundDuration":408806,"Delta":4927933},{"NoteNumber":78,"Velocity":45,"Duration":200226,"SoundDuration":200226,"Delta":5136513},{"NoteNumber":79,"Velocity":66,"Duration":111614,"SoundDuration":111614,"Delta":5751018},{"NoteNumber":62,"Velocity":37,"Duration":405872,"SoundDuration":405872,"Delta":5751018},{"NoteNumber":66,"Velocity":45,"Duration":405872,"SoundDuration":405872,"Delta":5751018},{"NoteNumber":78,"Velocity":55,"Duration":111614,"SoundDuration":111614,"Delta":5852486},{"NoteNumber":76,"Velocity":54,"Duration":111614,"SoundDuration":111614,"Delta":5953955},{"NoteNumber":78,"Velocity":54,"Duration":111614,"SoundDuration":111614,"Delta":6055422},{"NoteNumber":81,"Velocity":65,"Duration":111614,"SoundDuration":111614,"Delta":6156891},{"NoteNumber":64,"Velocity":37,"Duration":423800,"SoundDuration":423800,"Delta":6156891},{"NoteNumber":67,"Velocity":45,"Duration":423800,"SoundDuration":423800,"Delta":6156891},{"NoteNumber":79,"Velocity":55,"Duration":112511,"SoundDuration":112511,"Delta":6258359},{"NoteNumber":78,"Velocity":55,"Duration":121475,"SoundDuration":121475,"Delta":6359826},{"NoteNumber":79,"Velocity":55,"Duration":120510,"SoundDuration":120510,"Delta":6470259},{"NoteNumber":81,"Velocity":62,"Duration":403145,"SoundDuration":403145,"Delta":6580691},{"NoteNumber":66,"Velocity":37,"Duration":403145,"SoundDuration":403145,"Delta":6580691},{"NoteNumber":69,"Velocity":45,"Duration":403145,"SoundDuration":403145,"Delta":6580691},{"NoteNumber":81,"Velocity":50,"Duration":50393,"SoundDuration":50393,"Delta":7392472},{"NoteNumber":83,"Velocity":45,"Duration":50393,"SoundDuration":50393,"Delta":7594045},{"NoteNumber":85,"Velocity":45,"Duration":50393,"SoundDuration":50393,"Delta":7795617},{"NoteNumber":86,"Velocity":45,"Duration":52144,"SoundDuration":52144,"Delta":7997190},{"NoteNumber":81,"Velocity":54,"Duration":403145,"SoundDuration":403145,"Delta":8205769},{"NoteNumber":54,"Velocity":38,"Duration":201572,"SoundDuration":201572,"Delta":8205769},{"NoteNumber":62,"Velocity":32,"Duration":201572,"SoundDuration":201572,"Delta":8407342},{"NoteNumber":78,"Velocity":45,"Duration":403145,"SoundDuration":403145,"Delta":8608914},{"NoteNumber":50,"Velocity":38,"Duration":201572,"SoundDuration":201572,"Delta":8608914},{"NoteNumber":62,"Velocity":33,"Duration":201572,"SoundDuration":201572,"Delta":8810487},{"NoteNumber":81,"Velocity":50,"Duration":100786,"SoundDuration":100786,"Delta":9012059},{"NoteNumber":52,"Velocity":37,"Duration":201572,"SoundDuration":201572,"Delta":9012059},{"NoteNumber":79,"Velocity":44,"Duration":100786,"SoundDuration":100786,"Delta":9112845},{"NoteNumber":78,"Velocity":44,"Duration":100786,"SoundDuration":100786,"Delta":9213632},{"NoteNumber":62,"Velocity":32,"Duration":201572,"SoundDuration":201572,"Delta":9213632},{"NoteNumber":79,"Velocity":44,"Duration":100786,"SoundDuration":100786,"Delta":9314418},{"NoteNumber":81,"Velocity":50,"Duration":100786,"SoundDuration":100786,"Delta":9415204},{"NoteNumber":57,"Velocity":37,"Duration":201572,"SoundDuration":201572,"Delta":9415204},{"NoteNumber":79,"Velocity":44,"Duration":100786,"SoundDuration":100786,"Delta":9515990},{"NoteNumber":78,"Velocity":44,"Duration":104289,"SoundDuration":104289,"Delta":9616777},{"NoteNumber":61,"Velocity":32,"Duration":208579,"SoundDuration":208579,"Delta":9616777},{"NoteNumber":76,"Velocity":44,"Duration":104289,"SoundDuration":104289,"Delta":9721066},{"NoteNumber":74,"Velocity":50,"Duration":104289,"SoundDuration":104289,"Delta":9825356},{"NoteNumber":62,"Velocity":37,"Duration":104289,"SoundDuration":104289,"Delta":9825356},{"NoteNumber":66,"Velocity":26,"Duration":100113,"SoundDuration":100113,"Delta":10033936},{"NoteNumber":69,"Velocity":42,"Duration":100113,"SoundDuration":100113,"Delta":10234163},{"NoteNumber":62,"Velocity":35,"Duration":100113,"SoundDuration":100113,"Delta":10234163},{"NoteNumber":66,"Velocity":28,"Duration":100113,"SoundDuration":100113,"Delta":10434390},{"NoteNumber":78,"Velocity":47,"Duration":78123,"SoundDuration":78123,"Delta":10636406},{"NoteNumber":62,"Velocity":36,"Duration":106141,"SoundDuration":106141,"Delta":10636406},{"NoteNumber":79,"Velocity":43,"Duration":76676,"SoundDuration":76676,"Delta":10707479},{"NoteNumber":78,"Velocity":48,"Duration":75280,"SoundDuration":75280,"Delta":10777251},{"NoteNumber":79,"Velocity":43,"Duration":73923,"SoundDuration":73923,"Delta":10845767},{"NoteNumber":66,"Velocity":26,"Duration":100454,"SoundDuration":100454,"Delta":10845767},{"NoteNumber":78,"Velocity":48,"Duration":72990,"SoundDuration":72990,"Delta":10912182},{"NoteNumber":79,"Velocity":44,"Duration":72528,"SoundDuration":72528,"Delta":10978543},{"NoteNumber":78,"Velocity":48,"Duration":72120,"SoundDuration":72120,"Delta":11044528},{"NoteNumber":62,"Velocity":35,"Duration":98471,"SoundDuration":98471,"Delta":11045346},{"NoteNumber":79,"Velocity":44,"Duration":72542,"SoundDuration":72542,"Delta":11110063},{"NoteNumber":78,"Velocity":44,"Duration":72968,"SoundDuration":72968,"Delta":11175975},{"NoteNumber":76,"Velocity":48,"Duration":110124,"SoundDuration":110124,"Delta":11243103},{"NoteNumber":66,"Velocity":30,"Duration":100113,"SoundDuration":100113,"Delta":11243103},{"NoteNumber":74,"Velocity":44,"Duration":110124,"SoundDuration":110124,"Delta":11343217},{"NoteNumber":73,"Velocity":50,"Duration":100113,"SoundDuration":100113,"Delta":11443330},{"NoteNumber":64,"Velocity":37,"Duration":100113,"SoundDuration":100113,"Delta":11443330},{"NoteNumber":67,"Velocity":29,"Duration":100113,"SoundDuration":100113,"Delta":11643557},{"NoteNumber":69,"Velocity":42,"Duration":100113,"SoundDuration":100113,"Delta":11843784},{"NoteNumber":64,"Velocity":37,"Duration":100113,"SoundDuration":100113,"Delta":11843784},{"NoteNumber":67,"Velocity":29,"Duration":100113,"SoundDuration":100113,"Delta":12044011},{"NoteNumber":76,"Velocity":50,"Duration":100786,"SoundDuration":100786,"Delta":12244238},{"NoteNumber":64,"Velocity":43,"Duration":110864,"SoundDuration":110864,"Delta":12244238},{"NoteNumber":66,"Velocity":38,"Duration":110797,"SoundDuration":110797,"Delta":12345025},{"NoteNumber":67,"Velocity":38,"Duration":110124,"SoundDuration":110124,"Delta":12445811},{"NoteNumber":66,"Velocity":38,"Duration":110058,"SoundDuration":110058,"Delta":12545924},{"NoteNumber":64,"Velocity":38,"Duration":109627,"SoundDuration":109627,"Delta":12646038},{"NoteNumber":62,"Velocity":40,"Duration":110764,"SoundDuration":110764,"Delta":12745654},{"NoteNumber":61,"Velocity":40,"Duration":112029,"SoundDuration":112029,"Delta":12846272},{"NoteNumber":59,"Velocity":40,"Duration":113290,"SoundDuration":113290,"Delta":12948085},{"NoteNumber":76,"Velocity":50,"Duration":104289,"SoundDuration":104289,"Delta":13050947},{"NoteNumber":57,"Velocity":37,"Duration":104289,"SoundDuration":104289,"Delta":13050947},{"NoteNumber":61,"Velocity":26,"Duration":100113,"SoundDuration":100113,"Delta":13259527},{"NoteNumber":69,"Velocity":42,"Duration":100113,"SoundDuration":100113,"Delta":13459754},{"NoteNumber":57,"Velocity":35,"Duration":100113,"SoundDuration":100113,"Delta":13459754},{"NoteNumber":61,"Velocity":28,"Duration":100113,"SoundDuration":100113,"Delta":13659981},{"NoteNumber":79,"Velocity":47,"Duration":78123,"SoundDuration":78123,"Delta":13861997},{"NoteNumber":57,"Velocity":36,"Duration":106141,"SoundDuration":106141,"Delta":13861997},{"NoteNumber":81,"Velocity":43,"Duration":76676,"SoundDuration":76676,"Delta":13933070},{"NoteNumber":79,"Velocity":48,"Duration":75280,"SoundDuration":75280,"Delta":14002842},{"NoteNumber":81,"Velocity":43,"Duration":73923,"SoundDuration":73923,"Delta":14071358},{"NoteNumber":61,"Velocity":26,"Duration":100454,"SoundDuration":100454,"Delta":14071358},{"NoteNumber":79,"Velocity":48,"Duration":72990,"SoundDuration":72990,"Delta":14137773},{"NoteNumber":81,"Velocity":44,"Duration":72528,"SoundDuration":72528,"Delta":14204134},{"NoteNumber":79,"Velocity":48,"Duration":72120,"SoundDuration":72120,"Delta":14270119},{"NoteNumber":55,"Velocity":35,"Duration":98471,"SoundDuration":98471,"Delta":14270937},{"NoteNumber":81,"Velocity":44,"Duration":72542,"SoundDuration":72542,"Delta":14335654},{"NoteNumber":79,"Velocity":44,"Duration":72968,"SoundDuration":72968,"Delta":14401566},{"NoteNumber":78,"Velocity":48,"Duration":110124,"SoundDuration":110124,"Delta":14468694},{"NoteNumber":61,"Velocity":30,"Duration":100113,"SoundDuration":100113,"Delta":14468694},{"NoteNumber":76,"Velocity":44,"Duration":110124,"SoundDuration":110124,"Delta":14568808},{"NoteNumber":74,"Velocity":50,"Duration":100113,"SoundDuration":100113,"Delta":14668921},{"NoteNumber":54,"Velocity":37,"Duration":100113,"SoundDuration":100113,"Delta":14668921},{"NoteNumber":62,"Velocity":29,"Duration":100113,"SoundDuration":100113,"Delta":14869148},{"NoteNumber":69,"Velocity":42,"Duration":100113,"SoundDuration":100113,"Delta":15069375},{"NoteNumber":54,"Velocity":37,"Duration":100113,"SoundDuration":100113,"Delta":15069375},{"NoteNumber":62,"Velocity":29,"Duration":100113,"SoundDuration":100113,"Delta":15269602},{"NoteNumber":78,"Velocity":50,"Duration":100786,"SoundDuration":100786,"Delta":15469829},{"NoteNumber":54,"Velocity":43,"Duration":110864,"SoundDuration":110864,"Delta":15469829},{"NoteNumber":50,"Velocity":36,"Duration":110797,"SoundDuration":110797,"Delta":15570616},{"NoteNumber":52,"Velocity":37,"Duration":110124,"SoundDuration":110124,"Delta":15671402},{"NoteNumber":54,"Velocity":38,"Duration":110058,"SoundDuration":110058,"Delta":15771515},{"NoteNumber":55,"Velocity":39,"Duration":109627,"SoundDuration":109627,"Delta":15871629},{"NoteNumber":57,"Velocity":40,"Duration":110764,"SoundDuration":110764,"Delta":15971245},{"NoteNumber":59,"Velocity":41,"Duration":112029,"SoundDuration":112029,"Delta":16071863},{"NoteNumber":61,"Velocity":42,"Duration":113218,"SoundDuration":113218,"Delta":16173676},{"NoteNumber":78,"Velocity":54,"Duration":103935,"SoundDuration":103935,"Delta":16276538},{"NoteNumber":62,"Velocity":44,"Duration":414820,"SoundDuration":414820,"Delta":16276538},{"NoteNumber":74,"Velocity":47,"Duration":114640,"SoundDuration":114640,"Delta":16380474},{"NoteNumber":76,"Velocity":48,"Duration":113926,"SoundDuration":113926,"Delta":16484758},{"NoteNumber":78,"Velocity":49,"Duration":113317,"SoundDuration":113317,"Delta":16588327},{"NoteNumber":79,"Velocity":50,"Duration":112719,"SoundDuration":112719,"Delta":16691359},{"NoteNumber":81,"Velocity":51,"Duration":112300,"SoundDuration":112300,"Delta":16793862},{"NoteNumber":83,"Velocity":52,"Duration":111614,"SoundDuration":111614,"Delta":16896015},{"NoteNumber":85,"Velocity":53,"Duration":110813,"SoundDuration":110813,"Delta":16997483},{"NoteNumber":86,"Velocity":55,"Duration":108674,"SoundDuration":108674,"Delta":17098418},{"NoteNumber":85,"Velocity":56,"Duration":109236,"SoundDuration":109236,"Delta":17197212},{"NoteNumber":83,"Velocity":56,"Duration":109798,"SoundDuration":109798,"Delta":17296504},{"NoteNumber":57,"Velocity":37,"Duration":99787,"SoundDuration":99787,"Delta":17296504},{"NoteNumber":54,"Velocity":31,"Duration":99787,"SoundDuration":99787,"Delta":17296504},{"NoteNumber":81,"Velocity":56,"Duration":110365,"SoundDuration":110365,"Delta":17396291},{"NoteNumber":79,"Velocity":56,"Duration":110938,"SoundDuration":110938,"Delta":17496578},{"NoteNumber":54,"Velocity":31,"Duration":100791,"SoundDuration":100791,"Delta":17496578},{"NoteNumber":57,"Velocity":37,"Duration":100791,"SoundDuration":100791,"Delta":17496578},{"NoteNumber":78,"Velocity":55,"Duration":111614,"SoundDuration":111614,"Delta":17597370},{"NoteNumber":76,"Velocity":50,"Duration":112207,"SoundDuration":112207,"Delta":17698838},{"NoteNumber":57,"Velocity":37,"Duration":101992,"SoundDuration":101992,"Delta":17698838},{"NoteNumber":54,"Velocity":31,"Duration":101992,"SoundDuration":101992,"Delta":17698838},{"NoteNumber":74,"Velocity":49,"Duration":112801,"SoundDuration":112801,"Delta":17800830},{"NoteNumber":76,"Velocity":51,"Duration":113145,"SoundDuration":113145,"Delta":17903345},{"NoteNumber":55,"Velocity":37,"Duration":410556,"SoundDuration":410556,"Delta":17903345},{"NoteNumber":59,"Velocity":44,"Duration":410556,"SoundDuration":410556,"Delta":17903345},{"NoteNumber":78,"Velocity":48,"Duration":113145,"SoundDuration":113145,"Delta":18006205},{"NoteNumber":76,"Velocity":45,"Duration":112894,"SoundDuration":112894,"Delta":18109064},{"NoteNumber":75,"Velocity":43,"Duration":112374,"SoundDuration":112374,"Delta":18211743},{"NoteNumber":76,"Velocity":45,"Duration":112374,"SoundDuration":112374,"Delta":18313902},{"NoteNumber":78,"Velocity":47,"Duration":111781,"SoundDuration":111781,"Delta":18416061},{"NoteNumber":79,"Velocity":49,"Duration":111614,"SoundDuration":111614,"Delta":18517696},{"NoteNumber":81,"Velocity":51,"Duration":111370,"SoundDuration":111370,"Delta":18619164},{"NoteNumber":83,"Velocity":53,"Duration":110864,"SoundDuration":110864,"Delta":18720456},{"NoteNumber":81,"Velocity":54,"Duration":110864,"SoundDuration":110864,"Delta":18821242},{"NoteNumber":79,"Velocity":53,"Duration":111279,"SoundDuration":111279,"Delta":18922028},{"NoteNumber":55,"Velocity":30,"Duration":101132,"SoundDuration":101132,"Delta":18922028},{"NoteNumber":59,"Velocity":36,"Duration":101132,"SoundDuration":101132,"Delta":18922028},{"NoteNumber":78,"Velocity":51,"Duration":111614,"SoundDuration":111614,"Delta":19023161},{"NoteNumber":76,"Velocity":49,"Duration":111689,"SoundDuration":111689,"Delta":19124629},{"NoteNumber":59,"Velocity":36,"Duration":101473,"SoundDuration":101473,"Delta":19124629},{"NoteNumber":55,"Velocity":30,"Duration":101473,"SoundDuration":101473,"Delta":19124629},{"NoteNumber":74,"Velocity":48,"Duration":112374,"SoundDuration":112374,"Delta":19226103},{"NoteNumber":73,"Velocity":46,"Duration":112374,"SoundDuration":112374,"Delta":19328262},{"NoteNumber":59,"Velocity":36,"Duration":102159,"SoundDuration":102159,"Delta":19328262},{"NoteNumber":56,"Velocity":30,"Duration":102159,"SoundDuration":102159,"Delta":19328262},{"NoteNumber":71,"Velocity":44,"Duration":112593,"SoundDuration":112593,"Delta":19430421},{"NoteNumber":73,"Velocity":50,"Duration":110864,"SoundDuration":110864,"Delta":19532936},{"NoteNumber":57,"Velocity":46,"Duration":201572,"SoundDuration":201572,"Delta":19532936},{"NoteNumber":74,"Velocity":42,"Duration":110864,"SoundDuration":110864,"Delta":19633722},{"NoteNumber":73,"Velocity":42,"Duration":111748,"SoundDuration":111748,"Delta":19734508},{"NoteNumber":55,"Velocity":40,"Duration":210411,"SoundDuration":210411,"Delta":19734508},{"NoteNumber":69,"Velocity":40,"Duration":119703,"SoundDuration":119703,"Delta":19835295},{"NoteNumber":74,"Velocity":47,"Duration":100786,"SoundDuration":100786,"Delta":19944920},{"NoteNumber":54,"Velocity":40,"Duration":100786,"SoundDuration":100786,"Delta":19944920},{"NoteNumber":50,"Velocity":40,"Duration":105019,"SoundDuration":105019,"Delta":20146492},{"NoteNumber":79,"Velocity":55,"Duration":110864,"SoundDuration":110864,"Delta":20356532},{"NoteNumber":49,"Velocity":50,"Duration":201572,"SoundDuration":201572,"Delta":20356532},{"NoteNumber":81,"Velocity":46,"Duration":110864,"SoundDuration":110864,"Delta":20457318},{"NoteNumber":79,"Velocity":46,"Duration":110864,"SoundDuration":110864,"Delta":20558105},{"NoteNumber":45,"Velocity":44,"Duration":201572,"SoundDuration":201572,"Delta":20558105},{"NoteNumber":76,"Velocity":46,"Duration":110864,"SoundDuration":110864,"Delta":20658891},{"NoteNumber":79,"Velocity":56,"Duration":110864,"SoundDuration":110864,"Delta":20759677},{"NoteNumber":50,"Velocity":44,"Duration":100786,"SoundDuration":100786,"Delta":20759677},{"NoteNumber":78,"Velocity":47,"Duration":110864,"SoundDuration":110864,"Delta":20860463},{"NoteNumber":76,"Velocity":48,"Duration":111829,"SoundDuration":111829,"Delta":20961250},{"NoteNumber":54,"Velocity":44,"Duration":100786,"SoundDuration":100786,"Delta":20961250},{"NoteNumber":74,"Velocity":48,"Duration":120443,"SoundDuration":120443,"Delta":21062036},{"NoteNumber":73,"Velocity":57,"Duration":110124,"SoundDuration":110124,"Delta":21172468},{"NoteNumber":57,"Velocity":51,"Duration":200227,"SoundDuration":200227,"Delta":21172468},{"NoteNumber":74,"Velocity":44,"Duration":110124,"SoundDuration":110124,"Delta":21272582},{"NoteNumber":73,"Velocity":44,"Duration":110124,"SoundDuration":110124,"Delta":21372695},{"NoteNumber":55,"Velocity":44,"Duration":200226,"SoundDuration":200226,"Delta":21372695},{"NoteNumber":69,"Velocity":44,"Duration":110124,"SoundDuration":110124,"Delta":21472809},{"NoteNumber":74,"Velocity":57,"Duration":100113,"SoundDuration":100113,"Delta":21572922},{"NoteNumber":54,"Velocity":45,"Duration":100113,"SoundDuration":100113,"Delta":21572922},{"NoteNumber":50,"Velocity":45,"Duration":105760,"SoundDuration":105760,"Delta":21773149},{"NoteNumber":79,"Velocity":65,"Duration":110864,"SoundDuration":110864,"Delta":21984670},{"NoteNumber":49,"Velocity":54,"Duration":201572,"SoundDuration":201572,"Delta":21984670},{"NoteNumber":81,"Velocity":54,"Duration":110864,"SoundDuration":110864,"Delta":22085456},{"NoteNumber":79,"Velocity":54,"Duration":110864,"SoundDuration":110864,"Delta":22186243},{"NoteNumber":45,"Velocity":47,"Duration":201572,"SoundDuration":201572,"Delta":22186243},{"NoteNumber":76,"Velocity":56,"Duration":110864,"SoundDuration":110864,"Delta":22287029},{"NoteNumber":79,"Velocity":69,"Duration":110864,"SoundDuration":110864,"Delta":22387815},{"NoteNumber":50,"Velocity":48,"Duration":100786,"SoundDuration":100786,"Delta":22387815},{"NoteNumber":78,"Velocity":56,"Duration":111215,"SoundDuration":111215,"Delta":22488601},{"NoteNumber":76,"Velocity":56,"Duration":114718,"SoundDuration":114718,"Delta":22589388},{"NoteNumber":54,"Velocity":48,"Duration":104289,"SoundDuration":104289,"Delta":22589388},{"NoteNumber":74,"Velocity":59,"Duration":114301,"SoundDuration":114301,"Delta":22693677},{"NoteNumber":73,"Velocity":79,"Duration":100113,"SoundDuration":100113,"Delta":22797967},{"NoteNumber":52,"Velocity":50,"Duration":200227,"SoundDuration":200227,"Delta":22797967},{"NoteNumber":57,"Velocity":60,"Duration":200227,"SoundDuration":200227,"Delta":22797967},{"NoteNumber":45,"Velocity":50,"Duration":200227,"SoundDuration":200227,"Delta":22797967},{"NoteNumber":76,"Velocity":63,"Duration":100113,"SoundDuration":100113,"Delta":22898081},{"NoteNumber":73,"Velocity":63,"Duration":100113,"SoundDuration":100113,"Delta":22998194},{"NoteNumber":69,"Velocity":63,"Duration":107272,"SoundDuration":107272,"Delta":23098308},{"NoteNumber":78,"Velocity":74,"Duration":100113,"SoundDuration":100113,"Delta":23205581},{"NoteNumber":50,"Velocity":51,"Duration":200227,"SoundDuration":200227,"Delta":23205581},{"NoteNumber":57,"Velocity":60,"Duration":200227,"SoundDuration":200227,"Delta":23205581},{"NoteNumber":54,"Velocity":51,"Duration":200227,"SoundDuration":200227,"Delta":23205581},{"NoteNumber":81,"Velocity":64,"Duration":100113,"SoundDuration":100113,"Delta":23305694},{"NoteNumber":78,"Velocity":64,"Duration":107272,"SoundDuration":107272,"Delta":23405808},{"NoteNumber":74,"Velocity":64,"Duration":107272,"SoundDuration":107272,"Delta":23513081},{"NoteNumber":73,"Velocity":77,"Duration":101468,"SoundDuration":101468,"Delta":23620354},{"NoteNumber":57,"Velocity":61,"Duration":202936,"SoundDuration":202936,"Delta":23620354},{"NoteNumber":52,"Velocity":51,"Duration":202936,"SoundDuration":202936,"Delta":23620354},{"NoteNumber":45,"Velocity":51,"Duration":202936,"SoundDuration":202936,"Delta":23620354},{"NoteNumber":76,"Velocity":64,"Duration":101468,"SoundDuration":101468,"Delta":23721822},{"NoteNumber":73,"Velocity":64,"Duration":101468,"SoundDuration":101468,"Delta":23823290},{"NoteNumber":69,"Velocity":64,"Duration":106511,"SoundDuration":106511,"Delta":23924758},{"NoteNumber":78,"Velocity":77,"Duration":101468,"SoundDuration":101468,"Delta":24031269},{"NoteNumber":50,"Velocity":52,"Duration":202936,"SoundDuration":202936,"Delta":24031269},{"NoteNumber":54,"Velocity":52,"Duration":202936,"SoundDuration":202936,"Delta":24031269},{"NoteNumber":57,"Velocity":62,"Duration":202936,"SoundDuration":202936,"Delta":24031269},{"NoteNumber":81,"Velocity":64,"Duration":101468,"SoundDuration":101468,"Delta":24132737},{"NoteNumber":78,"Velocity":64,"Duration":107272,"SoundDuration":107272,"Delta":24234205},{"NoteNumber":74,"Velocity":64,"Duration":107272,"SoundDuration":107272,"Delta":24341478},{"NoteNumber":73,"Velocity":69,"Duration":77144,"SoundDuration":77144,"Delta":24448751},{"NoteNumber":76,"Velocity":84,"Duration":77144,"SoundDuration":77144,"Delta":24448751},{"NoteNumber":81,"Velocity":74,"Duration":77144,"SoundDuration":77144,"Delta":24654470},{"NoteNumber":73,"Velocity":60,"Duration":77144,"SoundDuration":77144,"Delta":24654470},{"NoteNumber":76,"Velocity":60,"Duration":77144,"SoundDuration":77144,"Delta":24654470},{"NoteNumber":45,"Velocity":45,"Duration":77144,"SoundDuration":77144,"Delta":24654470},{"NoteNumber":57,"Velocity":55,"Duration":77144,"SoundDuration":77144,"Delta":24654470},{"NoteNumber":52,"Velocity":45,"Duration":77144,"SoundDuration":77144,"Delta":24654470},{"NoteNumber":49,"Velocity":45,"Duration":77144,"SoundDuration":77144,"Delta":24654470},{"NoteNumber":76,"Velocity":60,"Duration":77144,"SoundDuration":77144,"Delta":24860189},{"NoteNumber":73,"Velocity":60,"Duration":77144,"SoundDuration":77144,"Delta":24860189},{"NoteNumber":81,"Velocity":74,"Duration":77144,"SoundDuration":77144,"Delta":24860189},{"NoteNumber":52,"Velocity":45,"Duration":77144,"SoundDuration":77144,"Delta":24860189},{"NoteNumber":49,"Velocity":45,"Duration":77144,"SoundDuration":77144,"Delta":24860189},{"NoteNumber":45,"Velocity":45,"Duration":77144,"SoundDuration":77144,"Delta":24860189},{"NoteNumber":57,"Velocity":55,"Duration":77144,"SoundDuration":77144,"Delta":24860189},{"NoteNumber":76,"Velocity":60,"Duration":77144,"SoundDuration":77144,"Delta":25065908},{"NoteNumber":73,"Velocity":60,"Duration":77144,"SoundDuration":77144,"Delta":25065908},{"NoteNumber":81,"Velocity":74,"Duration":77144,"SoundDuration":77144,"Delta":25065908},{"NoteNumber":45,"Velocity":45,"Duration":77144,"SoundDuration":77144,"Delta":25065908},{"NoteNumber":52,"Velocity":45,"Duration":77144,"SoundDuration":77144,"Delta":25065908},{"NoteNumber":49,"Velocity":45,"Duration":77144,"SoundDuration":77144,"Delta":25065908},{"NoteNumber":57,"Velocity":55,"Duration":77144,"SoundDuration":77144,"Delta":25065908},{"NoteNumber":73,"Velocity":60,"Duration":502911,"SoundDuration":502911,"Delta":25271627},{"NoteNumber":81,"Velocity":74,"Duration":502911,"SoundDuration":502911,"Delta":25271627},{"NoteNumber":76,"Velocity":60,"Duration":502911,"SoundDuration":502911,"Delta":25271627},{"NoteNumber":49,"Velocity":49,"Duration":502911,"SoundDuration":502911,"Delta":25271627},{"NoteNumber":57,"Velocity":58,"Duration":502911,"SoundDuration":502911,"Delta":25271627},{"NoteNumber":52,"Velocity":49,"Duration":502911,"SoundDuration":502911,"Delta":25271627},{"NoteNumber":45,"Velocity":49,"Duration":502911,"SoundDuration":502911,"Delta":25271627},{"NoteNumber":74,"Velocity":41,"Duration":52144,"SoundDuration":52144,"Delta":25774538},{"NoteNumber":73,"Velocity":42,"Duration":103569,"SoundDuration":103569,"Delta":25826683},{"NoteNumber":71,"Velocity":40,"Duration":103569,"SoundDuration":103569,"Delta":25930253},{"NoteNumber":73,"Velocity":40,"Duration":103569,"SoundDuration":103569,"Delta":26033823},{"NoteNumber":74,"Velocity":40,"Duration":115535,"SoundDuration":115535,"Delta":26137393},{"NoteNumber":75,"Velocity":45,"Duration":213022,"SoundDuration":213022,"Delta":26252928},{"NoteNumber":57,"Velocity":34,"Duration":213022,"SoundDuration":213022,"Delta":26252928},{"NoteNumber":76,"Velocity":42,"Duration":207139,"SoundDuration":207139,"Delta":26465951},{"NoteNumber":61,"Velocity":27,"Duration":207139,"SoundDuration":207139,"Delta":26465951},{"NoteNumber":59,"Velocity":30,"Duration":217659,"SoundDuration":217659,"Delta":26673091},{"NoteNumber":76,"Velocity":40,"Duration":205718,"SoundDuration":205718,"Delta":26890750},{"NoteNumber":62,"Velocity":27,"Duration":205718,"SoundDuration":205718,"Delta":26890750},{"NoteNumber":81,"Velocity":46,"Duration":205719,"SoundDuration":205719,"Delta":27096469},{"NoteNumber":61,"Velocity":32,"Duration":205719,"SoundDuration":205719,"Delta":27096469},{"NoteNumber":80,"Velocity":42,"Duration":205718,"SoundDuration":205718,"Delta":27302188},{"NoteNumber":64,"Velocity":26,"Duration":205718,"SoundDuration":205718,"Delta":27302188},{"NoteNumber":78,"Velocity":44,"Duration":205719,"SoundDuration":205719,"Delta":27507907},{"NoteNumber":57,"Velocity":29,"Duration":205719,"SoundDuration":205719,"Delta":27507907},{"NoteNumber":76,"Velocity":42,"Duration":217659,"SoundDuration":217659,"Delta":27713626},{"NoteNumber":61,"Velocity":26,"Duration":217659,"SoundDuration":217659,"Delta":27713626},{"NoteNumber":73,"Velocity":48,"Duration":210039,"SoundDuration":210039,"Delta":27931286},{"NoteNumber":59,"Velocity":34,"Duration":210039,"SoundDuration":210039,"Delta":27931286},{"NoteNumber":74,"Velocity":42,"Duration":202936,"SoundDuration":202936,"Delta":28141326},{"NoteNumber":66,"Velocity":28,"Duration":202936,"SoundDuration":202936,"Delta":28141326},{"NoteNumber":62,"Velocity":32,"Duration":217659,"SoundDuration":217659,"Delta":28344262},{"NoteNumber":74,"Velocity":40,"Duration":205718,"SoundDuration":205718,"Delta":28561921},{"NoteNumber":59,"Velocity":28,"Duration":205718,"SoundDuration":205718,"Delta":28561921},{"NoteNumber":76,"Velocity":45,"Duration":205719,"SoundDuration":205719,"Delta":28767640},{"NoteNumber":56,"Velocity":34,"Duration":205719,"SoundDuration":205719,"Delta":28767640},{"NoteNumber":74,"Velocity":42,"Duration":205718,"SoundDuration":205718,"Delta":28973359},{"NoteNumber":59,"Velocity":29,"Duration":205718,"SoundDuration":205718,"Delta":28973359},{"NoteNumber":73,"Velocity":45,"Duration":205719,"SoundDuration":205719,"Delta":29179078},{"NoteNumber":52,"Velocity":30,"Duration":205719,"SoundDuration":205719,"Delta":29179078},{"NoteNumber":71,"Velocity":42,"Duration":219249,"SoundDuration":219249,"Delta":29384797},{"NoteNumber":62,"Velocity":28,"Duration":219249,"SoundDuration":219249,"Delta":29384797},{"NoteNumber":68,"Velocity":48,"Duration":207139,"SoundDuration":207139,"Delta":29604047},{"NoteNumber":61,"Velocity":34,"Duration":207139,"SoundDuration":207139,"Delta":29604047},{"NoteNumber":69,"Velocity":44,"Duration":202936,"SoundDuration":202936,"Delta":29811187},{"NoteNumber":64,"Velocity":28,"Duration":202936,"SoundDuration":202936,"Delta":29811187},{"NoteNumber":56,"Velocity":30,"Duration":202935,"SoundDuration":202935,"Delta":30014123},{"NoteNumber":71,"Velocity":45,"Duration":213022,"SoundDuration":213022,"Delta":30217059},{"NoteNumber":64,"Velocity":28,"Duration":213022,"SoundDuration":213022,"Delta":30217059},{"NoteNumber":72,"Velocity":50,"Duration":207139,"SoundDuration":207139,"Delta":30430082},{"NoteNumber":57,"Velocity":34,"Duration":207139,"SoundDuration":207139,"Delta":30430082},{"NoteNumber":73,"Velocity":46,"Duration":201572,"SoundDuration":201572,"Delta":30637221},{"NoteNumber":64,"Velocity":26,"Duration":201572,"SoundDuration":201572,"Delta":30637221},{"NoteNumber":54,"Velocity":29,"Duration":201572,"SoundDuration":201572,"Delta":30838794},{"NoteNumber":76,"Velocity":42,"Duration":50393,"SoundDuration":50393,"Delta":30989973},{"NoteNumber":74,"Velocity":47,"Duration":216091,"SoundDuration":216091,"Delta":31040366},{"NoteNumber":57,"Velocity":26,"Duration":216091,"SoundDuration":216091,"Delta":31040366},{"NoteNumber":73,"Velocity":51,"Duration":634563,"SoundDuration":634563,"Delta":31256458},{"NoteNumber":52,"Velocity":34,"Duration":211521,"SoundDuration":211521,"Delta":31256458},{"NoteNumber":57,"Velocity":27,"Duration":211520,"SoundDuration":211520,"Delta":31467979},{"NoteNumber":61,"Velocity":30,"Duration":211521,"SoundDuration":211521,"Delta":31679500},{"NoteNumber":74,"Velocity":44,"Duration":105760,"SoundDuration":105760,"Delta":31891021},{"NoteNumber":57,"Velocity":27,"Duration":211520,"SoundDuration":211520,"Delta":31891021},{"NoteNumber":73,"Velocity":42,"Duration":105760,"SoundDuration":105760,"Delta":31996781},{"NoteNumber":71,"Velocity":47,"Duration":211521,"SoundDuration":211521,"Delta":32102542},{"NoteNumber":52,"Velocity":33,"Duration":424287,"SoundDuration":424287,"Delta":32102542},{"NoteNumber":56,"Velocity":33,"Duration":424287,"SoundDuration":424287,"Delta":32102542},{"NoteNumber":73,"Velocity":42,"Duration":106383,"SoundDuration":106383,"Delta":32314063},{"NoteNumber":74,"Velocity":44,"Duration":109489,"SoundDuration":109489,"Delta":32526829},{"NoteNumber":75,"Velocity":47,"Duration":112082,"SoundDuration":112082,"Delta":32745807},{"NoteNumber":75,"Velocity":43,"Duration":213022,"SoundDuration":213022,"Delta":32969972},{"NoteNumber":57,"Velocity":34,"Duration":213022,"SoundDuration":213022,"Delta":32969972},{"NoteNumber":76,"Velocity":42,"Duration":207139,"SoundDuration":207139,"Delta":33182995},{"NoteNumber":61,"Velocity":27,"Duration":207139,"SoundDuration":207139,"Delta":33182995},{"NoteNumber":59,"Velocity":30,"Duration":217659,"SoundDuration":217659,"Delta":33390134},{"NoteNumber":78,"Velocity":40,"Duration":51429,"SoundDuration":51429,"Delta":33607794},{"NoteNumber":62,"Velocity":27,"Duration":205719,"SoundDuration":205719,"Delta":33607794},{"NoteNumber":76,"Velocity":37,"Duration":51429,"SoundDuration":51429,"Delta":33659224},{"NoteNumber":75,"Velocity":37,"Duration":51429,"SoundDuration":51429,"Delta":33710653},{"NoteNumber":76,"Velocity":37,"Duration":51429,"SoundDuration":51429,"Delta":33762083},{"NoteNumber":81,"Velocity":46,"Duration":102859,"SoundDuration":102859,"Delta":33813513},{"NoteNumber":61,"Velocity":32,"Duration":205718,"SoundDuration":205718,"Delta":33813513},{"NoteNumber":80,"Velocity":42,"Duration":102859,"SoundDuration":102859,"Delta":34019232},{"NoteNumber":64,"Velocity":26,"Duration":102859,"SoundDuration":102859,"Delta":34019232},{"NoteNumber":78,"Velocity":44,"Duration":102859,"SoundDuration":102859,"Delta":34224951},{"NoteNumber":57,"Velocity":29,"Duration":205719,"SoundDuration":205719,"Delta":34224951},{"NoteNumber":76,"Velocity":42,"Duration":108829,"SoundDuration":108829,"Delta":34430670},{"NoteNumber":61,"Velocity":26,"Duration":108829,"SoundDuration":108829,"Delta":34430670},{"NoteNumber":73,"Velocity":48,"Duration":210039,"SoundDuration":210039,"Delta":34648329},{"NoteNumber":59,"Velocity":34,"Duration":210039,"SoundDuration":210039,"Delta":34648329},{"NoteNumber":74,"Velocity":42,"Duration":202936,"SoundDuration":202936,"Delta":34858369},{"NoteNumber":66,"Velocity":28,"Duration":202936,"SoundDuration":202936,"Delta":34858369},{"NoteNumber":62,"Velocity":32,"Duration":217659,"SoundDuration":217659,"Delta":35061305},{"NoteNumber":76,"Velocity":40,"Duration":51429,"SoundDuration":51429,"Delta":35278965},{"NoteNumber":59,"Velocity":28,"Duration":205719,"SoundDuration":205719,"Delta":35278965},{"NoteNumber":74,"Velocity":37,"Duration":51429,"SoundDuration":51429,"Delta":35330395},{"NoteNumber":73,"Velocity":37,"Duration":51429,"SoundDuration":51429,"Delta":35381824},{"NoteNumber":74,"Velocity":37,"Duration":51429,"SoundDuration":51429,"Delta":35433254},{"NoteNumber":76,"Velocity":45,"Duration":102859,"SoundDuration":102859,"Delta":35484684},{"NoteNumber":56,"Velocity":34,"Duration":205718,"SoundDuration":205718,"Delta":35484684},{"NoteNumber":74,"Velocity":42,"Duration":102859,"SoundDuration":102859,"Delta":35690403},{"NoteNumber":59,"Velocity":29,"Duration":102859,"SoundDuration":102859,"Delta":35690403},{"NoteNumber":73,"Velocity":45,"Duration":102859,"SoundDuration":102859,"Delta":35896122},{"NoteNumber":52,"Velocity":30,"Duration":205719,"SoundDuration":205719,"Delta":35896122},{"NoteNumber":71,"Velocity":42,"Duration":109625,"SoundDuration":109625,"Delta":36101841},{"NoteNumber":56,"Velocity":28,"Duration":109625,"SoundDuration":109625,"Delta":36101841},{"NoteNumber":73,"Velocity":45,"Duration":328874,"SoundDuration":328874,"Delta":36321091},{"NoteNumber":57,"Velocity":30,"Duration":438499,"SoundDuration":438499,"Delta":36321091},{"NoteNumber":76,"Velocity":42,"Duration":109625,"SoundDuration":109625,"Delta":36649966},{"NoteNumber":66,"Velocity":45,"Duration":328874,"SoundDuration":328874,"Delta":36759591},{"NoteNumber":62,"Velocity":30,"Duration":438499,"SoundDuration":438499,"Delta":36759591},{"NoteNumber":50,"Velocity":30,"Duration":438499,"SoundDuration":438499,"Delta":36759591},{"NoteNumber":71,"Velocity":41,"Duration":109625,"SoundDuration":109625,"Delta":37088466},{"NoteNumber":69,"Velocity":45,"Duration":438500,"SoundDuration":438500,"Delta":37198091},{"NoteNumber":61,"Velocity":30,"Duration":438500,"SoundDuration":438500,"Delta":37198091},{"NoteNumber":52,"Velocity":30,"Duration":877000,"SoundDuration":877000,"Delta":37198091},{"NoteNumber":68,"Velocity":43,"Duration":54812,"SoundDuration":54812,"Delta":37636591},{"NoteNumber":59,"Velocity":30,"Duration":438499,"SoundDuration":438499,"Delta":37636591},{"NoteNumber":69,"Velocity":39,"Duration":54812,"SoundDuration":54812,"Delta":37691403},{"NoteNumber":68,"Velocity":43,"Duration":54812,"SoundDuration":54812,"Delta":37746216},{"NoteNumber":69,"Velocity":40,"Duration":54812,"SoundDuration":54812,"Delta":37801028},{"NoteNumber":68,"Velocity":43,"Duration":73083,"SoundDuration":73083,"Delta":37855841},{"NoteNumber":66,"Velocity":40,"Duration":73083,"SoundDuration":73083,"Delta":37928924},{"NoteNumber":68,"Velocity":40,"Duration":73083,"SoundDuration":73083,"Delta":38002007},{"NoteNumber":69,"Velocity":46,"Duration":110432,"SoundDuration":110432,"Delta":38075091},{"NoteNumber":57,"Velocity":38,"Duration":426583,"SoundDuration":426583,"Delta":38075091},{"NoteNumber":76,"Velocity":44,"Duration":110432,"SoundDuration":110432,"Delta":38185523},{"NoteNumber":75,"Velocity":47,"Duration":102859,"SoundDuration":102859,"Delta":38295955},{"NoteNumber":76,"Velocity":43,"Duration":102859,"SoundDuration":102859,"Delta":38398815},{"NoteNumber":78,"Velocity":50,"Duration":102859,"SoundDuration":102859,"Delta":38501674},{"NoteNumber":76,"Velocity":47,"Duration":102859,"SoundDuration":102859,"Delta":38604534},{"NoteNumber":75,"Velocity":51,"Duration":109625,"SoundDuration":109625,"Delta":38707393},{"NoteNumber":69,"Velocity":49,"Duration":109625,"SoundDuration":109625,"Delta":38707393},{"NoteNumber":76,"Velocity":51,"Duration":109625,"SoundDuration":109625,"Delta":38817018},{"NoteNumber":74,"Velocity":59,"Duration":105020,"SoundDuration":105020,"Delta":38926643},{"NoteNumber":71,"Velocity":55,"Duration":105020,"SoundDuration":105020,"Delta":38926643},{"NoteNumber":76,"Velocity":50,"Duration":105019,"SoundDuration":105019,"Delta":39031663},{"NoteNumber":74,"Velocity":52,"Duration":102859,"SoundDuration":102859,"Delta":39136683},{"NoteNumber":69,"Velocity":49,"Duration":102859,"SoundDuration":102859,"Delta":39136683},{"NoteNumber":76,"Velocity":50,"Duration":102859,"SoundDuration":102859,"Delta":39239543},{"NoteNumber":74,"Velocity":62,"Duration":102859,"SoundDuration":102859,"Delta":39342402},{"NoteNumber":68,"Velocity":56,"Duration":102859,"SoundDuration":102859,"Delta":39342402},{"NoteNumber":76,"Velocity":49,"Duration":102859,"SoundDuration":102859,"Delta":39445262},{"NoteNumber":74,"Velocity":52,"Duration":108829,"SoundDuration":108829,"Delta":39548121},{"NoteNumber":64,"Velocity":48,"Duration":108829,"SoundDuration":108829,"Delta":39548121},{"NoteNumber":76,"Velocity":49,"Duration":108829,"SoundDuration":108829,"Delta":39656951},{"NoteNumber":73,"Velocity":50,"Duration":110432,"SoundDuration":110432,"Delta":39765781},{"NoteNumber":69,"Velocity":55,"Duration":425182,"SoundDuration":425182,"Delta":39765781},{"NoteNumber":76,"Velocity":44,"Duration":110432,"SoundDuration":110432,"Delta":39876213},{"NoteNumber":75,"Velocity":47,"Duration":102159,"SoundDuration":102159,"Delta":39986645},{"NoteNumber":76,"Velocity":43,"Duration":102159,"SoundDuration":102159,"Delta":40088804},{"NoteNumber":78,"Velocity":50,"Duration":102159,"SoundDuration":102159,"Delta":40190963},{"NoteNumber":76,"Velocity":47,"Duration":102159,"SoundDuration":102159,"Delta":40293122},{"NoteNumber":75,"Velocity":51,"Duration":109625,"SoundDuration":109625,"Delta":40395281},{"NoteNumber":57,"Velocity":50,"Duration":109625,"SoundDuration":109625,"Delta":40395281},{"NoteNumber":76,"Velocity":51,"Duration":109625,"SoundDuration":109625,"Delta":40504906},{"NoteNumber":74,"Velocity":59,"Duration":105760,"SoundDuration":105760,"Delta":40614531},{"NoteNumber":59,"Velocity":56,"Duration":105760,"SoundDuration":105760,"Delta":40614531},{"NoteNumber":76,"Velocity":50,"Duration":105760,"SoundDuration":105760,"Delta":40720292},{"NoteNumber":74,"Velocity":52,"Duration":102859,"SoundDuration":102859,"Delta":40826052},{"NoteNumber":57,"Velocity":50,"Duration":102859,"SoundDuration":102859,"Delta":40826052},{"NoteNumber":76,"Velocity":50,"Duration":102859,"SoundDuration":102859,"Delta":40928912},{"NoteNumber":74,"Velocity":62,"Duration":102859,"SoundDuration":102859,"Delta":41031771},{"NoteNumber":56,"Velocity":56,"Duration":102859,"SoundDuration":102859,"Delta":41031771},{"NoteNumber":76,"Velocity":49,"Duration":102859,"SoundDuration":102859,"Delta":41134631},{"NoteNumber":74,"Velocity":52,"Duration":108829,"SoundDuration":108829,"Delta":41237490},{"NoteNumber":52,"Velocity":51,"Duration":108829,"SoundDuration":108829,"Delta":41237490},{"NoteNumber":76,"Velocity":49,"Duration":108829,"SoundDuration":108829,"Delta":41346320},{"NoteNumber":69,"Velocity":41,"Duration":426583,"SoundDuration":426583,"Delta":41455150},{"NoteNumber":57,"Velocity":45,"Duration":110432,"SoundDuration":110432,"Delta":41455150},{"NoteNumber":64,"Velocity":35,"Duration":110432,"SoundDuration":110432,"Delta":41565582},{"NoteNumber":63,"Velocity":37,"Duration":102859,"SoundDuration":102859,"Delta":41676014},{"NoteNumber":64,"Velocity":34,"Duration":102859,"SoundDuration":102859,"Delta":41778874},{"NoteNumber":66,"Velocity":40,"Duration":104166,"SoundDuration":104166,"Delta":41881733},{"NoteNumber":64,"Velocity":37,"Duration":104166,"SoundDuration":104166,"Delta":41985900},{"NoteNumber":81,"Velocity":57,"Duration":107142,"SoundDuration":107142,"Delta":42090067},{"NoteNumber":63,"Velocity":40,"Duration":107142,"SoundDuration":107142,"Delta":42090067},{"NoteNumber":64,"Velocity":40,"Duration":107142,"SoundDuration":107142,"Delta":42197210},{"NoteNumber":83,"Velocity":63,"Duration":105020,"SoundDuration":105020,"Delta":42304352},{"NoteNumber":62,"Velocity":47,"Duration":105020,"SoundDuration":105020,"Delta":42304352},{"NoteNumber":64,"Velocity":39,"Duration":105019,"SoundDuration":105019,"Delta":42409372},{"NoteNumber":81,"Velocity":58,"Duration":102859,"SoundDuration":102859,"Delta":42514392},{"NoteNumber":62,"Velocity":41,"Duration":102859,"SoundDuration":102859,"Delta":42514392},{"NoteNumber":64,"Velocity":39,"Duration":102859,"SoundDuration":102859,"Delta":42617252},{"NoteNumber":80,"Velocity":63,"Duration":102859,"SoundDuration":102859,"Delta":42720111},{"NoteNumber":62,"Velocity":49,"Duration":102859,"SoundDuration":102859,"Delta":42720111},{"NoteNumber":64,"Velocity":39,"Duration":102859,"SoundDuration":102859,"Delta":42822971},{"NoteNumber":76,"Velocity":58,"Duration":108829,"SoundDuration":108829,"Delta":42925830},{"NoteNumber":62,"Velocity":41,"Duration":108829,"SoundDuration":108829,"Delta":42925830},{"NoteNumber":64,"Velocity":39,"Duration":108829,"SoundDuration":108829,"Delta":43034660},{"NoteNumber":81,"Velocity":60,"Duration":426583,"SoundDuration":426583,"Delta":43143490},{"NoteNumber":61,"Velocity":39,"Duration":110432,"SoundDuration":110432,"Delta":43143490},{"NoteNumber":64,"Velocity":35,"Duration":110432,"SoundDuration":110432,"Delta":43253922},{"NoteNumber":63,"Velocity":37,"Duration":102859,"SoundDuration":102859,"Delta":43364354},{"NoteNumber":64,"Velocity":34,"Duration":102859,"SoundDuration":102859,"Delta":43467214},{"NoteNumber":66,"Velocity":40,"Duration":102859,"SoundDuration":102859,"Delta":43570073},{"NoteNumber":64,"Velocity":37,"Duration":102859,"SoundDuration":102859,"Delta":43672933},{"NoteNumber":45,"Velocity":57,"Duration":109625,"SoundDuration":109625,"Delta":43775792},{"NoteNumber":63,"Velocity":40,"Duration":109625,"SoundDuration":109625,"Delta":43775792},{"NoteNumber":64,"Velocity":40,"Duration":109625,"SoundDuration":109625,"Delta":43885417},{"NoteNumber":47,"Velocity":63,"Duration":107272,"SoundDuration":107272,"Delta":43995042},{"NoteNumber":62,"Velocity":47,"Duration":107272,"SoundDuration":107272,"Delta":43995042},{"NoteNumber":64,"Velocity":39,"Duration":107272,"SoundDuration":107272,"Delta":44102315},{"NoteNumber":45,"Velocity":58,"Duration":102739,"SoundDuration":102739,"Delta":44209588},{"NoteNumber":62,"Velocity":41,"Duration":102739,"SoundDuration":102739,"Delta":44209588},{"NoteNumber":64,"Velocity":39,"Duration":102739,"SoundDuration":102739,"Delta":44312328},{"NoteNumber":44,"Velocity":60,"Duration":102739,"SoundDuration":102739,"Delta":44415068},{"NoteNumber":62,"Velocity":49,"Duration":102739,"SoundDuration":102739,"Delta":44415068},{"NoteNumber":64,"Velocity":39,"Duration":102739,"SoundDuration":102739,"Delta":44517808},{"NoteNumber":40,"Velocity":58,"Duration":108829,"SoundDuration":108829,"Delta":44620547},{"NoteNumber":62,"Velocity":41,"Duration":108829,"SoundDuration":108829,"Delta":44620547},{"NoteNumber":64,"Velocity":39,"Duration":108829,"SoundDuration":108829,"Delta":44729377},{"NoteNumber":45,"Velocity":60,"Duration":435318,"SoundDuration":435318,"Delta":44838207},{"NoteNumber":61,"Velocity":41,"Duration":435318,"SoundDuration":435318,"Delta":44838207},{"NoteNumber":76,"Velocity":50,"Duration":423042,"SoundDuration":423042,"Delta":45273526},{"NoteNumber":61,"Velocity":35,"Duration":105760,"SoundDuration":105760,"Delta":45273526},{"NoteNumber":69,"Velocity":29,"Duration":105760,"SoundDuration":105760,"Delta":45379286},{"NoteNumber":61,"Velocity":29,"Duration":105760,"SoundDuration":105760,"Delta":45485047},{"NoteNumber":69,"Velocity":29,"Duration":105760,"SoundDuration":105760,"Delta":45590807},{"NoteNumber":74,"Velocity":47,"Duration":429091,"SoundDuration":429091,"Delta":45696568},{"NoteNumber":59,"Velocity":35,"Duration":107272,"SoundDuration":107272,"Delta":45696568},{"NoteNumber":69,"Velocity":30,"Duration":107272,"SoundDuration":107272,"Delta":45803841},{"NoteNumber":59,"Velocity":30,"Duration":107272,"SoundDuration":107272,"Delta":45911114},{"NoteNumber":69,"Velocity":30,"Duration":107272,"SoundDuration":107272,"Delta":46018387},{"NoteNumber":73,"Velocity":46,"Duration":448329,"SoundDuration":448329,"Delta":46125660},{"NoteNumber":57,"Velocity":35,"Duration":112082,"SoundDuration":112082,"Delta":46125660},{"NoteNumber":69,"Velocity":31,"Duration":112082,"SoundDuration":112082,"Delta":46237742},{"NoteNumber":57,"Velocity":31,"Duration":112082,"SoundDuration":112082,"Delta":46349825},{"NoteNumber":69,"Velocity":31,"Duration":112082,"SoundDuration":112082,"Delta":46461907},{"NoteNumber":78,"Velocity":50,"Duration":324137,"SoundDuration":324137,"Delta":46573990},{"NoteNumber":62,"Velocity":35,"Duration":108045,"SoundDuration":108045,"Delta":46573990},{"NoteNumber":69,"Velocity":30,"Duration":108045,"SoundDuration":108045,"Delta":46682036},{"NoteNumber":68,"Velocity":30,"Duration":108045,"SoundDuration":108045,"Delta":46790081},{"NoteNumber":80,"Velocity":45,"Duration":39736,"SoundDuration":39736,"Delta":46898127},{"NoteNumber":69,"Velocity":30,"Duration":119208,"SoundDuration":119208,"Delta":46898127},{"NoteNumber":78,"Velocity":45,"Duration":39736,"SoundDuration":39736,"Delta":46937863},{"NoteNumber":76,"Velocity":45,"Duration":39636,"SoundDuration":39636,"Delta":46978593},{"NoteNumber":78,"Velocity":50,"Duration":107272,"SoundDuration":107272,"Delta":47017336},{"NoteNumber":62,"Velocity":35,"Duration":107272,"SoundDuration":107272,"Delta":47017336},{"NoteNumber":69,"Velocity":30,"Duration":107272,"SoundDuration":107272,"Delta":47124609},{"NoteNumber":80,"Velocity":47,"Duration":112082,"SoundDuration":112082,"Delta":47231882},{"NoteNumber":68,"Velocity":30,"Duration":112082,"SoundDuration":112082,"Delta":47231882},{"NoteNumber":69,"Velocity":30,"Duration":112082,"SoundDuration":112082,"Delta":47343964},{"NoteNumber":83,"Velocity":50,"Duration":213022,"SoundDuration":213022,"Delta":47456047},{"NoteNumber":62,"Velocity":30,"Duration":106511,"SoundDuration":106511,"Delta":47456047},{"NoteNumber":69,"Velocity":32,"Duration":106511,"SoundDuration":106511,"Delta":47562558},{"NoteNumber":81,"Velocity":45,"Duration":213022,"SoundDuration":213022,"Delta":47669070},{"NoteNumber":68,"Velocity":32,"Duration":106511,"SoundDuration":106511,"Delta":47669070},{"NoteNumber":69,"Velocity":32,"Duration":106511,"SoundDuration":106511,"Delta":47775581},{"NoteNumber":80,"Velocity":47,"Duration":213022,"SoundDuration":213022,"Delta":47882093},{"NoteNumber":62,"Velocity":34,"Duration":106511,"SoundDuration":106511,"Delta":47882093},{"NoteNumber":69,"Velocity":30,"Duration":106511,"SoundDuration":106511,"Delta":47988604},{"NoteNumber":78,"Velocity":45,"Duration":231071,"SoundDuration":231071,"Delta":48095116},{"NoteNumber":68,"Velocity":30,"Duration":115535,"SoundDuration":115535,"Delta":48095116},{"NoteNumber":69,"Velocity":30,"Duration":115535,"SoundDuration":115535,"Delta":48210651},{"NoteNumber":76,"Velocity":50,"Duration":227566,"SoundDuration":227566,"Delta":48326187},{"NoteNumber":61,"Velocity":37,"Duration":113782,"SoundDuration":113782,"Delta":48326187},{"NoteNumber":69,"Velocity":37,"Duration":113783,"SoundDuration":113783,"Delta":48439970},{"NoteNumber":68,"Velocity":28,"Duration":113782,"SoundDuration":113782,"Delta":48553753},{"NoteNumber":69,"Velocity":28,"Duration":113782,"SoundDuration":113782,"Delta":48667536},{"NoteNumber":76,"Velocity":60,"Duration":423042,"SoundDuration":423042,"Delta":48781319},{"NoteNumber":61,"Velocity":45,"Duration":105760,"SoundDuration":105760,"Delta":48781319},{"NoteNumber":69,"Velocity":37,"Duration":105760,"SoundDuration":105760,"Delta":48887080},{"NoteNumber":61,"Velocity":37,"Duration":105760,"SoundDuration":105760,"Delta":48992840},{"NoteNumber":69,"Velocity":37,"Duration":105760,"SoundDuration":105760,"Delta":49098601},{"NoteNumber":74,"Velocity":60,"Duration":429091,"SoundDuration":429091,"Delta":49204361},{"NoteNumber":59,"Velocity":45,"Duration":107272,"SoundDuration":107272,"Delta":49204361},{"NoteNumber":69,"Velocity":39,"Duration":107272,"SoundDuration":107272,"Delta":49311634},{"NoteNumber":59,"Velocity":39,"Duration":107272,"SoundDuration":107272,"Delta":49418907},{"NoteNumber":69,"Velocity":39,"Duration":107272,"SoundDuration":107272,"Delta":49526180},{"NoteNumber":73,"Velocity":59,"Duration":448329,"SoundDuration":448329,"Delta":49633453},{"NoteNumber":57,"Velocity":45,"Duration":112082,"SoundDuration":112082,"Delta":49633453},{"NoteNumber":69,"Velocity":40,"Duration":112082,"SoundDuration":112082,"Delta":49745536},{"NoteNumber":57,"Velocity":40,"Duration":112082,"SoundDuration":112082,"Delta":49857618},{"NoteNumber":69,"Velocity":40,"Duration":112082,"SoundDuration":112082,"Delta":49969701},{"NoteNumber":71,"Velocity":68,"Duration":324137,"SoundDuration":324137,"Delta":50081783},{"NoteNumber":50,"Velocity":45,"Duration":108045,"SoundDuration":108045,"Delta":50081783},{"NoteNumber":59,"Velocity":39,"Duration":108045,"SoundDuration":108045,"Delta":50189829},{"NoteNumber":54,"Velocity":39,"Duration":108045,"SoundDuration":108045,"Delta":50297875},{"NoteNumber":78,"Velocity":53,"Duration":119208,"SoundDuration":119208,"Delta":50405920},{"NoteNumber":59,"Velocity":39,"Duration":119208,"SoundDuration":119208,"Delta":50405920},{"NoteNumber":76,"Velocity":60,"Duration":107272,"SoundDuration":107272,"Delta":50525129},{"NoteNumber":50,"Velocity":45,"Duration":107272,"SoundDuration":107272,"Delta":50525129},{"NoteNumber":74,"Velocity":58,"Duration":107272,"SoundDuration":107272,"Delta":50632402},{"NoteNumber":59,"Velocity":39,"Duration":107272,"SoundDuration":107272,"Delta":50632402},{"NoteNumber":73,"Velocity":58,"Duration":112082,"SoundDuration":112082,"Delta":50739675},{"NoteNumber":54,"Velocity":39,"Duration":112082,"SoundDuration":112082,"Delta":50739675},{"NoteNumber":71,"Velocity":58,"Duration":112082,"SoundDuration":112082,"Delta":50851757},{"NoteNumber":59,"Velocity":39,"Duration":112082,"SoundDuration":112082,"Delta":50851757},{"NoteNumber":69,"Velocity":63,"Duration":426045,"SoundDuration":426045,"Delta":50963840},{"NoteNumber":52,"Velocity":39,"Duration":106511,"SoundDuration":106511,"Delta":50963840},{"NoteNumber":61,"Velocity":41,"Duration":106511,"SoundDuration":106511,"Delta":51070351},{"NoteNumber":57,"Velocity":41,"Duration":106511,"SoundDuration":106511,"Delta":51176863},{"NoteNumber":61,"Velocity":41,"Duration":106511,"SoundDuration":106511,"Delta":51283374},{"NoteNumber":71,"Velocity":55,"Duration":54164,"SoundDuration":54164,"Delta":51389886},{"NoteNumber":52,"Velocity":44,"Duration":110629,"SoundDuration":110629,"Delta":51389886},{"NoteNumber":73,"Velocity":49,"Duration":56464,"SoundDuration":56464,"Delta":51444051},{"NoteNumber":71,"Velocity":56,"Duration":55627,"SoundDuration":55627,"Delta":51500515},{"NoteNumber":62,"Velocity":39,"Duration":110441,"SoundDuration":110441,"Delta":51500515},{"NoteNumber":73,"Velocity":50,"Duration":54814,"SoundDuration":54814,"Delta":51556142},{"NoteNumber":71,"Velocity":56,"Duration":74055,"SoundDuration":74055,"Delta":51610956},{"NoteNumber":56,"Velocity":39,"Duration":112272,"SoundDuration":112272,"Delta":51610956},{"NoteNumber":69,"Velocity":48,"Duration":76435,"SoundDuration":76435,"Delta":51685012},{"NoteNumber":62,"Velocity":39,"Duration":114652,"SoundDuration":114652,"Delta":51723229},{"NoteNumber":71,"Velocity":48,"Duration":76434,"SoundDuration":76434,"Delta":51761447},{"NoteNumber":69,"Velocity":66,"Duration":214545,"SoundDuration":214545,"Delta":51837882},{"NoteNumber":57,"Velocity":48,"Duration":107272,"SoundDuration":107272,"Delta":51837882},{"NoteNumber":64,"Velocity":42,"Duration":107272,"SoundDuration":107272,"Delta":51945155},{"NoteNumber":61,"Velocity":36,"Duration":110432,"SoundDuration":110432,"Delta":52052428},{"NoteNumber":64,"Velocity":36,"Duration":135342,"SoundDuration":135342,"Delta":52162860},{"NoteNumber":76,"Velocity":50,"Duration":423042,"SoundDuration":423042,"Delta":52298203},{"NoteNumber":61,"Velocity":35,"Duration":105760,"SoundDuration":105760,"Delta":52298203},{"NoteNumber":69,"Velocity":29,"Duration":105760,"SoundDuration":105760,"Delta":52403963},{"NoteNumber":61,"Velocity":29,"Duration":105760,"SoundDuration":105760,"Delta":52509724},{"NoteNumber":69,"Velocity":29,"Duration":105760,"SoundDuration":105760,"Delta":52615484},{"NoteNumber":74,"Velocity":47,"Duration":429091,"SoundDuration":429091,"Delta":52721245},{"NoteNumber":59,"Velocity":35,"Duration":107272,"SoundDuration":107272,"Delta":52721245},{"NoteNumber":69,"Velocity":30,"Duration":107272,"SoundDuration":107272,"Delta":52828518},{"NoteNumber":59,"Velocity":30,"Duration":107272,"SoundDuration":107272,"Delta":52935791},{"NoteNumber":69,"Velocity":30,"Duration":107272,"SoundDuration":107272,"Delta":53043064},{"NoteNumber":73,"Velocity":46,"Duration":448329,"SoundDuration":448329,"Delta":53150337},{"NoteNumber":57,"Velocity":35,"Duration":112082,"SoundDuration":112082,"Delta":53150337},{"NoteNumber":69,"Velocity":31,"Duration":112082,"SoundDuration":112082,"Delta":53262419},{"NoteNumber":57,"Velocity":31,"Duration":112082,"SoundDuration":112082,"Delta":53374502},{"NoteNumber":69,"Velocity":31,"Duration":112082,"SoundDuration":112082,"Delta":53486584},{"NoteNumber":78,"Velocity":50,"Duration":324137,"SoundDuration":324137,"Delta":53598667},{"NoteNumber":62,"Velocity":35,"Duration":108045,"SoundDuration":108045,"Delta":53598667},{"NoteNumber":69,"Velocity":30,"Duration":108045,"SoundDuration":108045,"Delta":53706712},{"NoteNumber":68,"Velocity":30,"Duration":108045,"SoundDuration":108045,"Delta":53814758},{"NoteNumber":80,"Velocity":45,"Duration":39736,"SoundDuration":39736,"Delta":53922804},{"NoteNumber":69,"Velocity":30,"Duration":119208,"SoundDuration":119208,"Delta":53922804},{"NoteNumber":78,"Velocity":45,"Duration":39736,"SoundDuration":39736,"Delta":53962540},{"NoteNumber":76,"Velocity":45,"Duration":39636,"SoundDuration":39636,"Delta":54003270},{"NoteNumber":78,"Velocity":50,"Duration":107272,"SoundDuration":107272,"Delta":54042012},{"NoteNumber":62,"Velocity":35,"Duration":107272,"SoundDuration":107272,"Delta":54042012},{"NoteNumber":69,"Velocity":30,"Duration":107272,"SoundDuration":107272,"Delta":54149285},{"NoteNumber":80,"Velocity":47,"Duration":112082,"SoundDuration":112082,"Delta":54256558},{"NoteNumber":68,"Velocity":30,"Duration":112082,"SoundDuration":112082,"Delta":54256558},{"NoteNumber":69,"Velocity":30,"Duration":112082,"SoundDuration":112082,"Delta":54368641},{"NoteNumber":83,"Velocity":50,"Duration":213022,"SoundDuration":213022,"Delta":54480723},{"NoteNumber":62,"Velocity":30,"Duration":106511,"SoundDuration":106511,"Delta":54480723},{"NoteNumber":69,"Velocity":32,"Duration":106511,"SoundDuration":106511,"Delta":54587235},{"NoteNumber":81,"Velocity":45,"Duration":213022,"SoundDuration":213022,"Delta":54693746},{"NoteNumber":68,"Velocity":32,"Duration":106511,"SoundDuration":106511,"Delta":54693746},{"NoteNumber":69,"Velocity":32,"Duration":106511,"SoundDuration":106511,"Delta":54800258},{"NoteNumber":80,"Velocity":47,"Duration":213022,"SoundDuration":213022,"Delta":54906769},{"NoteNumber":62,"Velocity":34,"Duration":106511,"SoundDuration":106511,"Delta":54906769},{"NoteNumber":69,"Velocity":30,"Duration":106511,"SoundDuration":106511,"Delta":55013281},{"NoteNumber":78,"Velocity":45,"Duration":231071,"SoundDuration":231071,"Delta":55119792},{"NoteNumber":68,"Velocity":30,"Duration":115535,"SoundDuration":115535,"Delta":55119792},{"NoteNumber":69,"Velocity":30,"Duration":115535,"SoundDuration":115535,"Delta":55235328},{"NoteNumber":76,"Velocity":50,"Duration":227566,"SoundDuration":227566,"Delta":55350864},{"NoteNumber":61,"Velocity":37,"Duration":113782,"SoundDuration":113782,"Delta":55350864},{"NoteNumber":69,"Velocity":37,"Duration":113783,"SoundDuration":113783,"Delta":55464647},{"NoteNumber":68,"Velocity":28,"Duration":113782,"SoundDuration":113782,"Delta":55578430},{"NoteNumber":69,"Velocity":28,"Duration":113782,"SoundDuration":113782,"Delta":55692213},{"NoteNumber":76,"Velocity":60,"Duration":423042,"SoundDuration":423042,"Delta":55805996},{"NoteNumber":61,"Velocity":45,"Duration":105760,"SoundDuration":105760,"Delta":55805996},{"NoteNumber":69,"Velocity":37,"Duration":105760,"SoundDuration":105760,"Delta":55911756},{"NoteNumber":61,"Velocity":37,"Duration":105760,"SoundDuration":105760,"Delta":56017517},{"NoteNumber":69,"Velocity":37,"Duration":105760,"SoundDuration":105760,"Delta":56123277},{"NoteNumber":74,"Velocity":60,"Duration":429091,"SoundDuration":429091,"Delta":56229038},{"NoteNumber":59,"Velocity":45,"Duration":107272,"SoundDuration":107272,"Delta":56229038},{"NoteNumber":69,"Velocity":39,"Duration":107272,"SoundDuration":107272,"Delta":56336311},{"NoteNumber":59,"Velocity":39,"Duration":107272,"SoundDuration":107272,"Delta":56443584},{"NoteNumber":69,"Velocity":39,"Duration":107272,"SoundDuration":107272,"Delta":56550857},{"NoteNumber":73,"Velocity":59,"Duration":448329,"SoundDuration":448329,"Delta":56658130},{"NoteNumber":57,"Velocity":45,"Duration":112082,"SoundDuration":112082,"Delta":56658130},{"NoteNumber":69,"Velocity":40,"Duration":112082,"SoundDuration":112082,"Delta":56770212},{"NoteNumber":57,"Velocity":40,"Duration":112082,"SoundDuration":112082,"Delta":56882295},{"NoteNumber":69,"Velocity":40,"Duration":112082,"SoundDuration":112082,"Delta":56994377},{"NoteNumber":71,"Velocity":68,"Duration":324137,"SoundDuration":324137,"Delta":57106460},{"NoteNumber":50,"Velocity":45,"Duration":108045,"SoundDuration":108045,"Delta":57106460},{"NoteNumber":59,"Velocity":39,"Duration":108045,"SoundDuration":108045,"Delta":57214506},{"NoteNumber":54,"Velocity":39,"Duration":108045,"SoundDuration":108045,"Delta":57322551},{"NoteNumber":78,"Velocity":53,"Duration":119208,"SoundDuration":119208,"Delta":57430597},{"NoteNumber":59,"Velocity":39,"Duration":119208,"SoundDuration":119208,"Delta":57430597},{"NoteNumber":76,"Velocity":60,"Duration":107272,"SoundDuration":107272,"Delta":57549806},{"NoteNumber":50,"Velocity":45,"Duration":107272,"SoundDuration":107272,"Delta":57549806},{"NoteNumber":74,"Velocity":58,"Duration":107272,"SoundDuration":107272,"Delta":57657079},{"NoteNumber":59,"Velocity":39,"Duration":107272,"SoundDuration":107272,"Delta":57657079},{"NoteNumber":73,"Velocity":58,"Duration":112082,"SoundDuration":112082,"Delta":57764352},{"NoteNumber":54,"Velocity":39,"Duration":112082,"SoundDuration":112082,"Delta":57764352},{"NoteNumber":71,"Velocity":58,"Duration":112082,"SoundDuration":112082,"Delta":57876434},{"NoteNumber":59,"Velocity":39,"Duration":112082,"SoundDuration":112082,"Delta":57876434},{"NoteNumber":69,"Velocity":63,"Duration":426045,"SoundDuration":426045,"Delta":57988517},{"NoteNumber":52,"Velocity":39,"Duration":106511,"SoundDuration":106511,"Delta":57988517},{"NoteNumber":61,"Velocity":41,"Duration":106511,"SoundDuration":106511,"Delta":58095028},{"NoteNumber":57,"Velocity":41,"Duration":106511,"SoundDuration":106511,"Delta":58201540},{"NoteNumber":61,"Velocity":41,"Duration":106511,"SoundDuration":106511,"Delta":58308051},{"NoteNumber":71,"Velocity":55,"Duration":54164,"SoundDuration":54164,"Delta":58414563},{"NoteNumber":52,"Velocity":44,"Duration":110629,"SoundDuration":110629,"Delta":58414563},{"NoteNumber":73,"Velocity":49,"Duration":56464,"SoundDuration":56464,"Delta":58468727},{"NoteNumber":71,"Velocity":56,"Duration":55627,"SoundDuration":55627,"Delta":58525192},{"NoteNumber":62,"Velocity":39,"Duration":110441,"SoundDuration":110441,"Delta":58525192},{"NoteNumber":73,"Velocity":50,"Duration":54814,"SoundDuration":54814,"Delta":58580819},{"NoteNumber":71,"Velocity":56,"Duration":74055,"SoundDuration":74055,"Delta":58635633},{"NoteNumber":56,"Velocity":39,"Duration":112272,"SoundDuration":112272,"Delta":58635633},{"NoteNumber":69,"Velocity":48,"Duration":76435,"SoundDuration":76435,"Delta":58709689},{"NoteNumber":62,"Velocity":39,"Duration":114652,"SoundDuration":114652,"Delta":58747906},{"NoteNumber":71,"Velocity":48,"Duration":76434,"SoundDuration":76434,"Delta":58786124},{"NoteNumber":69,"Velocity":66,"Duration":107272,"SoundDuration":107272,"Delta":58862559},{"NoteNumber":61,"Velocity":54,"Duration":429091,"SoundDuration":429091,"Delta":58862559},{"NoteNumber":57,"Velocity":45,"Duration":429091,"SoundDuration":429091,"Delta":58862559},{"NoteNumber":64,"Velocity":59,"Duration":107272,"SoundDuration":107272,"Delta":58969832},{"NoteNumber":69,"Velocity":66,"Duration":107272,"SoundDuration":107272,"Delta":59077105},{"NoteNumber":73,"Velocity":58,"Duration":107272,"SoundDuration":107272,"Delta":59184378},{"NoteNumber":76,"Velocity":66,"Duration":107273,"SoundDuration":107273,"Delta":59291651},{"NoteNumber":73,"Velocity":60,"Duration":107272,"SoundDuration":107272,"Delta":59398924},{"NoteNumber":74,"Velocity":66,"Duration":112926,"SoundDuration":112926,"Delta":59506197},{"NoteNumber":52,"Velocity":46,"Duration":112926,"SoundDuration":112926,"Delta":59506197},{"NoteNumber":56,"Velocity":46,"Duration":112926,"SoundDuration":112926,"Delta":59506197},{"NoteNumber":59,"Velocity":55,"Duration":112926,"SoundDuration":112926,"Delta":59506197},{"NoteNumber":71,"Velocity":59,"Duration":112926,"SoundDuration":112926,"Delta":59619123},{"NoteNumber":69,"Velocity":66,"Duration":107273,"SoundDuration":107273,"Delta":59732049},{"NoteNumber":57,"Velocity":45,"Duration":429092,"SoundDuration":429092,"Delta":59732049},{"NoteNumber":61,"Velocity":54,"Duration":429092,"SoundDuration":429092,"Delta":59732049},{"NoteNumber":64,"Velocity":59,"Duration":107272,"SoundDuration":107272,"Delta":59839322},{"NoteNumber":69,"Velocity":66,"Duration":107272,"SoundDuration":107272,"Delta":59946595},{"NoteNumber":73,"Velocity":58,"Duration":107272,"SoundDuration":107272,"Delta":60053868},{"NoteNumber":76,"Velocity":66,"Duration":107272,"SoundDuration":107272,"Delta":60161141},{"NoteNumber":73,"Velocity":60,"Duration":112926,"SoundDuration":112926,"Delta":60268414},{"NoteNumber":74,"Velocity":66,"Duration":112926,"SoundDuration":112926,"Delta":60381340},{"NoteNumber":52,"Velocity":46,"Duration":112926,"SoundDuration":112926,"Delta":60381340},{"NoteNumber":59,"Velocity":55,"Duration":112926,"SoundDuration":112926,"Delta":60381340},{"NoteNumber":56,"Velocity":46,"Duration":112926,"SoundDuration":112926,"Delta":60381340},{"NoteNumber":71,"Velocity":59,"Duration":112926,"SoundDuration":112926,"Delta":60494267},{"NoteNumber":69,"Velocity":75,"Duration":238416,"SoundDuration":238416,"Delta":60607193},{"NoteNumber":61,"Velocity":63,"Duration":238416,"SoundDuration":238416,"Delta":60607193},{"NoteNumber":57,"Velocity":52,"Duration":238416,"SoundDuration":238416,"Delta":60607193},{"NoteNumber":80,"Velocity":75,"Duration":250354,"SoundDuration":250354,"Delta":61084027},{"NoteNumber":71,"Velocity":64,"Duration":250354,"SoundDuration":250354,"Delta":61084027},{"NoteNumber":74,"Velocity":64,"Duration":250354,"SoundDuration":250354,"Delta":61084027},{"NoteNumber":41,"Velocity":52,"Duration":250354,"SoundDuration":250354,"Delta":61084027},{"NoteNumber":53,"Velocity":63,"Duration":250354,"SoundDuration":250354,"Delta":61084027},{"NoteNumber":81,"Velocity":75,"Duration":250354,"SoundDuration":250354,"Delta":61584736},{"NoteNumber":73,"Velocity":64,"Duration":250354,"SoundDuration":250354,"Delta":61584736},{"NoteNumber":69,"Velocity":64,"Duration":250354,"SoundDuration":250354,"Delta":61584736},{"NoteNumber":42,"Velocity":52,"Duration":250354,"SoundDuration":250354,"Delta":61584736},{"NoteNumber":54,"Velocity":63,"Duration":250354,"SoundDuration":250354,"Delta":61584736},{"NoteNumber":66,"Velocity":39,"Duration":220864,"SoundDuration":220864,"Delta":62586154},{"NoteNumber":74,"Velocity":47,"Duration":220864,"SoundDuration":220864,"Delta":62586154},{"NoteNumber":50,"Velocity":40,"Duration":927493,"SoundDuration":927493,"Delta":62586154},{"NoteNumber":64,"Velocity":36,"Duration":118268,"SoundDuration":118268,"Delta":62807018},{"NoteNumber":73,"Velocity":43,"Duration":118268,"SoundDuration":118268,"Delta":62807018},{"NoteNumber":73,"Velocity":47,"Duration":225852,"SoundDuration":225852,"Delta":63043555},{"NoteNumber":64,"Velocity":39,"Duration":225852,"SoundDuration":225852,"Delta":63043555},{"NoteNumber":62,"Velocity":35,"Duration":122120,"SoundDuration":122120,"Delta":63269408},{"NoteNumber":71,"Velocity":42,"Duration":122120,"SoundDuration":122120,"Delta":63269408},{"NoteNumber":71,"Velocity":47,"Duration":231071,"SoundDuration":231071,"Delta":63513648},{"NoteNumber":62,"Velocity":39,"Duration":231071,"SoundDuration":231071,"Delta":63513648},{"NoteNumber":52,"Velocity":40,"Duration":1024532,"SoundDuration":1024532,"Delta":63513648},{"NoteNumber":61,"Velocity":34,"Duration":129500,"SoundDuration":129500,"Delta":63744719},{"NoteNumber":69,"Velocity":41,"Duration":129500,"SoundDuration":129500,"Delta":63744719},{"NoteNumber":61,"Velocity":39,"Duration":248282,"SoundDuration":248282,"Delta":64003720},{"NoteNumber":69,"Velocity":47,"Duration":248282,"SoundDuration":248282,"Delta":64003720},{"NoteNumber":68,"Velocity":41,"Duration":143088,"SoundDuration":143088,"Delta":64252002},{"NoteNumber":59,"Velocity":34,"Duration":143088,"SoundDuration":143088,"Delta":64252002},{"NoteNumber":62,"Velocity":45,"Duration":1172408,"SoundDuration":1172408,"Delta":64538180},{"NoteNumber":59,"Velocity":37,"Duration":1172408,"SoundDuration":1172408,"Delta":64538180},{"NoteNumber":68,"Velocity":54,"Duration":1172408,"SoundDuration":1172408,"Delta":64538180},{"NoteNumber":57,"Velocity":39,"Duration":546299,"SoundDuration":546299,"Delta":64538180},{"NoteNumber":52,"Velocity":39,"Duration":626108,"SoundDuration":626108,"Delta":65084479},{"NoteNumber":61,"Velocity":35,"Duration":572355,"SoundDuration":572355,"Delta":65710588},{"NoteNumber":69,"Velocity":42,"Duration":572355,"SoundDuration":572355,"Delta":65710588},{"NoteNumber":45,"Velocity":35,"Duration":572355,"SoundDuration":572355,"Delta":65710588},{"NoteNumber":66,"Velocity":60,"Duration":423041,"SoundDuration":423041,"Delta":66855298},{"NoteNumber":69,"Velocity":60,"Duration":423041,"SoundDuration":423041,"Delta":66855298},{"NoteNumber":74,"Velocity":73,"Duration":423041,"SoundDuration":423041,"Delta":66855298},{"NoteNumber":38,"Velocity":57,"Duration":423041,"SoundDuration":423041,"Delta":66855298},{"NoteNumber":50,"Velocity":69,"Duration":423041,"SoundDuration":423041,"Delta":66855298},{"NoteNumber":45,"Velocity":57,"Duration":423041,"SoundDuration":423041,"Delta":66855298},{"NoteNumber":79,"Velocity":66,"Duration":113013,"SoundDuration":113013,"Delta":67701382},{"NoteNumber":66,"Velocity":45,"Duration":410959,"SoundDuration":410959,"Delta":67701382},{"NoteNumber":62,"Velocity":37,"Duration":410959,"SoundDuration":410959,"Delta":67701382},{"NoteNumber":78,"Velocity":55,"Duration":113013,"SoundDuration":113013,"Delta":67804122},{"NoteNumber":76,"Velocity":54,"Duration":113013,"SoundDuration":113013,"Delta":67906861},{"NoteNumber":78,"Velocity":54,"Duration":112874,"SoundDuration":112874,"Delta":68009601},{"NoteNumber":81,"Velocity":65,"Duration":111486,"SoundDuration":111486,"Delta":68112341},{"NoteNumber":67,"Velocity":45,"Duration":423567,"SoundDuration":423567,"Delta":68112341},{"NoteNumber":64,"Velocity":37,"Duration":423567,"SoundDuration":423567,"Delta":68112341},{"NoteNumber":79,"Velocity":55,"Duration":112394,"SoundDuration":112394,"Delta":68213692},{"NoteNumber":78,"Velocity":55,"Duration":121475,"SoundDuration":121475,"Delta":68315043},{"NoteNumber":79,"Velocity":55,"Duration":120510,"SoundDuration":120510,"Delta":68425476},{"NoteNumber":81,"Velocity":62,"Duration":403144,"SoundDuration":403144,"Delta":68535908},{"NoteNumber":66,"Velocity":37,"Duration":403144,"SoundDuration":403144,"Delta":68535908},{"NoteNumber":69,"Velocity":45,"Duration":403144,"SoundDuration":403144,"Delta":68535908},{"NoteNumber":81,"Velocity":50,"Duration":50393,"SoundDuration":50393,"Delta":69347689},{"NoteNumber":83,"Velocity":45,"Duration":50393,"SoundDuration":50393,"Delta":69549261},{"NoteNumber":85,"Velocity":45,"Duration":50393,"SoundDuration":50393,"Delta":69750834},{"NoteNumber":86,"Velocity":45,"Duration":52144,"SoundDuration":52144,"Delta":69952406},{"NoteNumber":81,"Velocity":54,"Duration":403144,"SoundDuration":403144,"Delta":70160986},{"NoteNumber":54,"Velocity":38,"Duration":201572,"SoundDuration":201572,"Delta":70160986},{"NoteNumber":62,"Velocity":32,"Duration":201572,"SoundDuration":201572,"Delta":70362558},{"NoteNumber":78,"Velocity":45,"Duration":403145,"SoundDuration":403145,"Delta":70564131},{"NoteNumber":50,"Velocity":38,"Duration":201572,"SoundDuration":201572,"Delta":70564131},{"NoteNumber":62,"Velocity":33,"Duration":201572,"SoundDuration":201572,"Delta":70765703},{"NoteNumber":81,"Velocity":50,"Duration":100786,"SoundDuration":100786,"Delta":70967276},{"NoteNumber":52,"Velocity":37,"Duration":201572,"SoundDuration":201572,"Delta":70967276},{"NoteNumber":79,"Velocity":44,"Duration":100786,"SoundDuration":100786,"Delta":71068062},{"NoteNumber":78,"Velocity":44,"Duration":100786,"SoundDuration":100786,"Delta":71168848},{"NoteNumber":62,"Velocity":32,"Duration":201572,"SoundDuration":201572,"Delta":71168848},{"NoteNumber":79,"Velocity":44,"Duration":100786,"SoundDuration":100786,"Delta":71269635},{"NoteNumber":81,"Velocity":49,"Duration":50393,"SoundDuration":50393,"Delta":71370421},{"NoteNumber":57,"Velocity":37,"Duration":50393,"SoundDuration":50393,"Delta":71370421},{"NoteNumber":79,"Velocity":46,"Duration":54022,"SoundDuration":54022,"Delta":71571993},{"NoteNumber":61,"Velocity":30,"Duration":54022,"SoundDuration":54022,"Delta":71571993},{"NoteNumber":77,"Velocity":54,"Duration":208579,"SoundDuration":208579,"Delta":71788085},{"NoteNumber":62,"Velocity":42,"Duration":408806,"SoundDuration":408806,"Delta":71788085},{"NoteNumber":50,"Velocity":42,"Duration":408806,"SoundDuration":408806,"Delta":71788085},{"NoteNumber":78,"Velocity":45,"Duration":200227,"SoundDuration":200227,"Delta":71996664},{"NoteNumber":79,"Velocity":66,"Duration":111614,"SoundDuration":111614,"Delta":72632210},{"NoteNumber":62,"Velocity":37,"Duration":405872,"SoundDuration":405872,"Delta":72632210},{"NoteNumber":66,"Velocity":45,"Duration":405872,"SoundDuration":405872,"Delta":72632210},{"NoteNumber":78,"Velocity":55,"Duration":111614,"SoundDuration":111614,"Delta":72733678},{"NoteNumber":76,"Velocity":54,"Duration":111614,"SoundDuration":111614,"Delta":72835146},{"NoteNumber":78,"Velocity":54,"Duration":111614,"SoundDuration":111614,"Delta":72936614},{"NoteNumber":81,"Velocity":65,"Duration":111614,"SoundDuration":111614,"Delta":73038082},{"NoteNumber":67,"Velocity":45,"Duration":423800,"SoundDuration":423800,"Delta":73038082},{"NoteNumber":64,"Velocity":37,"Duration":423800,"SoundDuration":423800,"Delta":73038082},{"NoteNumber":79,"Velocity":55,"Duration":112511,"SoundDuration":112511,"Delta":73139550},{"NoteNumber":78,"Velocity":55,"Duration":121475,"SoundDuration":121475,"Delta":73241018},{"NoteNumber":79,"Velocity":55,"Duration":120510,"SoundDuration":120510,"Delta":73351451},{"NoteNumber":81,"Velocity":62,"Duration":403144,"SoundDuration":403144,"Delta":73461883},{"NoteNumber":69,"Velocity":45,"Duration":403144,"SoundDuration":403144,"Delta":73461883},{"NoteNumber":66,"Velocity":37,"Duration":403144,"SoundDuration":403144,"Delta":73461883},{"NoteNumber":81,"Velocity":50,"Duration":50393,"SoundDuration":50393,"Delta":74273664},{"NoteNumber":83,"Velocity":45,"Duration":50393,"SoundDuration":50393,"Delta":74475236},{"NoteNumber":85,"Velocity":45,"Duration":50393,"SoundDuration":50393,"Delta":74676809},{"NoteNumber":86,"Velocity":45,"Duration":52144,"SoundDuration":52144,"Delta":74878381},{"NoteNumber":81,"Velocity":54,"Duration":403144,"SoundDuration":403144,"Delta":75086961},{"NoteNumber":54,"Velocity":38,"Duration":201572,"SoundDuration":201572,"Delta":75086961},{"NoteNumber":62,"Velocity":32,"Duration":201572,"SoundDuration":201572,"Delta":75288533},{"NoteNumber":78,"Velocity":45,"Duration":403145,"SoundDuration":403145,"Delta":75490106},{"NoteNumber":50,"Velocity":38,"Duration":201572,"SoundDuration":201572,"Delta":75490106},{"NoteNumber":62,"Velocity":33,"Duration":201572,"SoundDuration":201572,"Delta":75691678},{"NoteNumber":81,"Velocity":50,"Duration":100786,"SoundDuration":100786,"Delta":75893251},{"NoteNumber":52,"Velocity":37,"Duration":201572,"SoundDuration":201572,"Delta":75893251},{"NoteNumber":79,"Velocity":44,"Duration":100786,"SoundDuration":100786,"Delta":75994037},{"NoteNumber":78,"Velocity":44,"Duration":100786,"SoundDuration":100786,"Delta":76094823},{"NoteNumber":62,"Velocity":32,"Duration":201572,"SoundDuration":201572,"Delta":76094823},{"NoteNumber":79,"Velocity":44,"Duration":100786,"SoundDuration":100786,"Delta":76195610},{"NoteNumber":81,"Velocity":50,"Duration":100786,"SoundDuration":100786,"Delta":76296396},{"NoteNumber":57,"Velocity":37,"Duration":201572,"SoundDuration":201572,"Delta":76296396},{"NoteNumber":79,"Velocity":44,"Duration":100786,"SoundDuration":100786,"Delta":76397182},{"NoteNumber":78,"Velocity":44,"Duration":104289,"SoundDuration":104289,"Delta":76497968},{"NoteNumber":61,"Velocity":32,"Duration":208579,"SoundDuration":208579,"Delta":76497968},{"NoteNumber":76,"Velocity":44,"Duration":104289,"SoundDuration":104289,"Delta":76602258},{"NoteNumber":74,"Velocity":50,"Duration":104289,"SoundDuration":104289,"Delta":76706548},{"NoteNumber":62,"Velocity":37,"Duration":104289,"SoundDuration":104289,"Delta":76706548},{"NoteNumber":66,"Velocity":26,"Duration":100113,"SoundDuration":100113,"Delta":76915127},{"NoteNumber":69,"Velocity":42,"Duration":100113,"SoundDuration":100113,"Delta":77115354},{"NoteNumber":62,"Velocity":35,"Duration":100113,"SoundDuration":100113,"Delta":77115354},{"NoteNumber":66,"Velocity":28,"Duration":100113,"SoundDuration":100113,"Delta":77315581},{"NoteNumber":78,"Velocity":47,"Duration":78123,"SoundDuration":78123,"Delta":77517598},{"NoteNumber":62,"Velocity":36,"Duration":106141,"SoundDuration":106141,"Delta":77517598},{"NoteNumber":79,"Velocity":43,"Duration":76676,"SoundDuration":76676,"Delta":77588671},{"NoteNumber":78,"Velocity":48,"Duration":75280,"SoundDuration":75280,"Delta":77658443},{"NoteNumber":79,"Velocity":43,"Duration":73923,"SoundDuration":73923,"Delta":77726959},{"NoteNumber":66,"Velocity":26,"Duration":100454,"SoundDuration":100454,"Delta":77726959},{"NoteNumber":78,"Velocity":48,"Duration":72990,"SoundDuration":72990,"Delta":77793374},{"NoteNumber":79,"Velocity":44,"Duration":72528,"SoundDuration":72528,"Delta":77859735},{"NoteNumber":78,"Velocity":48,"Duration":72120,"SoundDuration":72120,"Delta":77925720},{"NoteNumber":62,"Velocity":35,"Duration":98471,"SoundDuration":98471,"Delta":77926538},{"NoteNumber":79,"Velocity":44,"Duration":72542,"SoundDuration":72542,"Delta":77991254},{"NoteNumber":78,"Velocity":44,"Duration":72968,"SoundDuration":72968,"Delta":78057167},{"NoteNumber":76,"Velocity":48,"Duration":110124,"SoundDuration":110124,"Delta":78124295},{"NoteNumber":66,"Velocity":30,"Duration":100113,"SoundDuration":100113,"Delta":78124295},{"NoteNumber":74,"Velocity":44,"Duration":110124,"SoundDuration":110124,"Delta":78224409},{"NoteNumber":73,"Velocity":50,"Duration":100113,"SoundDuration":100113,"Delta":78324522},{"NoteNumber":64,"Velocity":37,"Duration":100113,"SoundDuration":100113,"Delta":78324522},{"NoteNumber":67,"Velocity":29,"Duration":100113,"SoundDuration":100113,"Delta":78524749},{"NoteNumber":69,"Velocity":42,"Duration":100113,"SoundDuration":100113,"Delta":78724976},{"NoteNumber":64,"Velocity":37,"Duration":100113,"SoundDuration":100113,"Delta":78724976},{"NoteNumber":67,"Velocity":29,"Duration":100113,"SoundDuration":100113,"Delta":78925203},{"NoteNumber":76,"Velocity":50,"Duration":100786,"SoundDuration":100786,"Delta":79125430},{"NoteNumber":64,"Velocity":43,"Duration":110864,"SoundDuration":110864,"Delta":79125430},{"NoteNumber":66,"Velocity":38,"Duration":110797,"SoundDuration":110797,"Delta":79226217},{"NoteNumber":67,"Velocity":38,"Duration":110124,"SoundDuration":110124,"Delta":79327003},{"NoteNumber":66,"Velocity":38,"Duration":110058,"SoundDuration":110058,"Delta":79427116},{"NoteNumber":64,"Velocity":38,"Duration":109627,"SoundDuration":109627,"Delta":79527230},{"NoteNumber":62,"Velocity":40,"Duration":110764,"SoundDuration":110764,"Delta":79626846},{"NoteNumber":61,"Velocity":40,"Duration":112029,"SoundDuration":112029,"Delta":79727464},{"NoteNumber":59,"Velocity":40,"Duration":113290,"SoundDuration":113290,"Delta":79829277},{"NoteNumber":76,"Velocity":50,"Duration":104289,"SoundDuration":104289,"Delta":79932139},{"NoteNumber":57,"Velocity":37,"Duration":104289,"SoundDuration":104289,"Delta":79932139},{"NoteNumber":61,"Velocity":26,"Duration":100113,"SoundDuration":100113,"Delta":80140719},{"NoteNumber":69,"Velocity":42,"Duration":100113,"SoundDuration":100113,"Delta":80340946},{"NoteNumber":57,"Velocity":35,"Duration":100113,"SoundDuration":100113,"Delta":80340946},{"NoteNumber":61,"Velocity":28,"Duration":100113,"SoundDuration":100113,"Delta":80541173},{"NoteNumber":79,"Velocity":47,"Duration":78123,"SoundDuration":78123,"Delta":80743189},{"NoteNumber":57,"Velocity":36,"Duration":106141,"SoundDuration":106141,"Delta":80743189},{"NoteNumber":81,"Velocity":43,"Duration":76676,"SoundDuration":76676,"Delta":80814262},{"NoteNumber":79,"Velocity":48,"Duration":75280,"SoundDuration":75280,"Delta":80884034},{"NoteNumber":81,"Velocity":43,"Duration":73923,"SoundDuration":73923,"Delta":80952550},{"NoteNumber":61,"Velocity":26,"Duration":100454,"SoundDuration":100454,"Delta":80952550},{"NoteNumber":79,"Velocity":48,"Duration":72990,"SoundDuration":72990,"Delta":81018965},{"NoteNumber":81,"Velocity":44,"Duration":72528,"SoundDuration":72528,"Delta":81085326},{"NoteNumber":79,"Velocity":48,"Duration":72120,"SoundDuration":72120,"Delta":81151311},{"NoteNumber":55,"Velocity":35,"Duration":98471,"SoundDuration":98471,"Delta":81152129},{"NoteNumber":81,"Velocity":44,"Duration":72542,"SoundDuration":72542,"Delta":81216846},{"NoteNumber":79,"Velocity":44,"Duration":72968,"SoundDuration":72968,"Delta":81282758},{"NoteNumber":78,"Velocity":48,"Duration":110124,"SoundDuration":110124,"Delta":81349886},{"NoteNumber":61,"Velocity":30,"Duration":100113,"SoundDuration":100113,"Delta":81349886},{"NoteNumber":76,"Velocity":44,"Duration":110124,"SoundDuration":110124,"Delta":81450000},{"NoteNumber":74,"Velocity":50,"Duration":100113,"SoundDuration":100113,"Delta":81550113},{"NoteNumber":54,"Velocity":37,"Duration":100113,"SoundDuration":100113,"Delta":81550113},{"NoteNumber":62,"Velocity":29,"Duration":100113,"SoundDuration":100113,"Delta":81750340},{"NoteNumber":69,"Velocity":42,"Duration":100113,"SoundDuration":100113,"Delta":81950567},{"NoteNumber":54,"Velocity":37,"Duration":100113,"SoundDuration":100113,"Delta":81950567},{"NoteNumber":62,"Velocity":29,"Duration":100113,"SoundDuration":100113,"Delta":82150794},{"NoteNumber":78,"Velocity":50,"Duration":100786,"SoundDuration":100786,"Delta":82351021},{"NoteNumber":54,"Velocity":43,"Duration":110864,"SoundDuration":110864,"Delta":82351021},{"NoteNumber":50,"Velocity":36,"Duration":110797,"SoundDuration":110797,"Delta":82451808},{"NoteNumber":52,"Velocity":37,"Duration":110124,"SoundDuration":110124,"Delta":82552594},{"NoteNumber":54,"Velocity":38,"Duration":110058,"SoundDuration":110058,"Delta":82652707},{"NoteNumber":55,"Velocity":39,"Duration":109627,"SoundDuration":109627,"Delta":82752821},{"NoteNumber":57,"Velocity":40,"Duration":110764,"SoundDuration":110764,"Delta":82852437},{"NoteNumber":59,"Velocity":41,"Duration":112029,"SoundDuration":112029,"Delta":82953055},{"NoteNumber":61,"Velocity":42,"Duration":113218,"SoundDuration":113218,"Delta":83054868},{"NoteNumber":78,"Velocity":54,"Duration":103935,"SoundDuration":103935,"Delta":83157730},{"NoteNumber":62,"Velocity":44,"Duration":414820,"SoundDuration":414820,"Delta":83157730},{"NoteNumber":74,"Velocity":47,"Duration":114640,"SoundDuration":114640,"Delta":83261666},{"NoteNumber":76,"Velocity":48,"Duration":113926,"SoundDuration":113926,"Delta":83365950},{"NoteNumber":78,"Velocity":49,"Duration":113317,"SoundDuration":113317,"Delta":83469519},{"NoteNumber":79,"Velocity":50,"Duration":112719,"SoundDuration":112719,"Delta":83572550},{"NoteNumber":81,"Velocity":51,"Duration":112300,"SoundDuration":112300,"Delta":83675054},{"NoteNumber":83,"Velocity":52,"Duration":111614,"SoundDuration":111614,"Delta":83777207},{"NoteNumber":85,"Velocity":53,"Duration":110813,"SoundDuration":110813,"Delta":83878675},{"NoteNumber":86,"Velocity":55,"Duration":108674,"SoundDuration":108674,"Delta":83979610},{"NoteNumber":85,"Velocity":56,"Duration":109236,"SoundDuration":109236,"Delta":84078404},{"NoteNumber":83,"Velocity":56,"Duration":109798,"SoundDuration":109798,"Delta":84177696},{"NoteNumber":57,"Velocity":37,"Duration":99787,"SoundDuration":99787,"Delta":84177696},{"NoteNumber":54,"Velocity":31,"Duration":99787,"SoundDuration":99787,"Delta":84177696},{"NoteNumber":81,"Velocity":56,"Duration":110365,"SoundDuration":110365,"Delta":84277483},{"NoteNumber":79,"Velocity":56,"Duration":109663,"SoundDuration":109663,"Delta":84377770},{"NoteNumber":57,"Velocity":37,"Duration":99663,"SoundDuration":99663,"Delta":84377770},{"NoteNumber":54,"Velocity":31,"Duration":99663,"SoundDuration":99663,"Delta":84377770},{"NoteNumber":78,"Velocity":55,"Duration":111286,"SoundDuration":111286,"Delta":84477434},{"NoteNumber":76,"Velocity":50,"Duration":112900,"SoundDuration":112900,"Delta":84578516},{"NoteNumber":57,"Velocity":37,"Duration":102555,"SoundDuration":102555,"Delta":84578516},{"NoteNumber":54,"Velocity":31,"Duration":102555,"SoundDuration":102555,"Delta":84578516},{"NoteNumber":74,"Velocity":49,"Duration":113710,"SoundDuration":113710,"Delta":84681071},{"NoteNumber":76,"Velocity":51,"Duration":113145,"SoundDuration":113145,"Delta":84784496},{"NoteNumber":59,"Velocity":44,"Duration":410556,"SoundDuration":410556,"Delta":84784496},{"NoteNumber":55,"Velocity":37,"Duration":410556,"SoundDuration":410556,"Delta":84784496},{"NoteNumber":78,"Velocity":48,"Duration":113145,"SoundDuration":113145,"Delta":84887355},{"NoteNumber":76,"Velocity":45,"Duration":112894,"SoundDuration":112894,"Delta":84990215},{"NoteNumber":75,"Velocity":43,"Duration":112374,"SoundDuration":112374,"Delta":85092893},{"NoteNumber":76,"Velocity":45,"Duration":112374,"SoundDuration":112374,"Delta":85195052},{"NoteNumber":78,"Velocity":47,"Duration":111781,"SoundDuration":111781,"Delta":85297211},{"NoteNumber":79,"Velocity":49,"Duration":111614,"SoundDuration":111614,"Delta":85398846},{"NoteNumber":81,"Velocity":51,"Duration":111370,"SoundDuration":111370,"Delta":85500314},{"NoteNumber":83,"Velocity":53,"Duration":110864,"SoundDuration":110864,"Delta":85601606},{"NoteNumber":81,"Velocity":54,"Duration":110864,"SoundDuration":110864,"Delta":85702392},{"NoteNumber":79,"Velocity":53,"Duration":111279,"SoundDuration":111279,"Delta":85803179},{"NoteNumber":59,"Velocity":36,"Duration":101132,"SoundDuration":101132,"Delta":85803179},{"NoteNumber":55,"Velocity":30,"Duration":101132,"SoundDuration":101132,"Delta":85803179},{"NoteNumber":78,"Velocity":51,"Duration":111614,"SoundDuration":111614,"Delta":85904311},{"NoteNumber":76,"Velocity":49,"Duration":111689,"SoundDuration":111689,"Delta":86005779},{"NoteNumber":59,"Velocity":36,"Duration":101473,"SoundDuration":101473,"Delta":86005779},{"NoteNumber":55,"Velocity":30,"Duration":101473,"SoundDuration":101473,"Delta":86005779},{"NoteNumber":74,"Velocity":48,"Duration":112374,"SoundDuration":112374,"Delta":86107253},{"NoteNumber":73,"Velocity":46,"Duration":112374,"SoundDuration":112374,"Delta":86209412},{"NoteNumber":56,"Velocity":30,"Duration":102159,"SoundDuration":102159,"Delta":86209412},{"NoteNumber":59,"Velocity":36,"Duration":102159,"SoundDuration":102159,"Delta":86209412},{"NoteNumber":71,"Velocity":44,"Duration":112593,"SoundDuration":112593,"Delta":86311571},{"NoteNumber":73,"Velocity":50,"Duration":110864,"SoundDuration":110864,"Delta":86414086},{"NoteNumber":57,"Velocity":46,"Duration":201572,"SoundDuration":201572,"Delta":86414086},{"NoteNumber":74,"Velocity":42,"Duration":110864,"SoundDuration":110864,"Delta":86514873},{"NoteNumber":73,"Velocity":42,"Duration":111748,"SoundDuration":111748,"Delta":86615659},{"NoteNumber":55,"Velocity":40,"Duration":210411,"SoundDuration":210411,"Delta":86615659},{"NoteNumber":69,"Velocity":40,"Duration":119703,"SoundDuration":119703,"Delta":86716445},{"NoteNumber":74,"Velocity":47,"Duration":100786,"SoundDuration":100786,"Delta":86826070},{"NoteNumber":54,"Velocity":40,"Duration":100786,"SoundDuration":100786,"Delta":86826070},{"NoteNumber":50,"Velocity":40,"Duration":109624,"SoundDuration":109624,"Delta":87027643},{"NoteNumber":79,"Velocity":55,"Duration":110864,"SoundDuration":110864,"Delta":87246893},{"NoteNumber":49,"Velocity":50,"Duration":201572,"SoundDuration":201572,"Delta":87246893},{"NoteNumber":81,"Velocity":46,"Duration":110864,"SoundDuration":110864,"Delta":87347679},{"NoteNumber":79,"Velocity":46,"Duration":110864,"SoundDuration":110864,"Delta":87448465},{"NoteNumber":45,"Velocity":44,"Duration":201572,"SoundDuration":201572,"Delta":87448465},{"NoteNumber":76,"Velocity":46,"Duration":110864,"SoundDuration":110864,"Delta":87549251},{"NoteNumber":79,"Velocity":56,"Duration":110864,"SoundDuration":110864,"Delta":87650038},{"NoteNumber":50,"Velocity":44,"Duration":100786,"SoundDuration":100786,"Delta":87650038},{"NoteNumber":78,"Velocity":47,"Duration":110864,"SoundDuration":110864,"Delta":87750824},{"NoteNumber":76,"Velocity":48,"Duration":111829,"SoundDuration":111829,"Delta":87851610},{"NoteNumber":54,"Velocity":44,"Duration":100786,"SoundDuration":100786,"Delta":87851610},{"NoteNumber":74,"Velocity":48,"Duration":120443,"SoundDuration":120443,"Delta":87952396},{"NoteNumber":73,"Velocity":57,"Duration":110124,"SoundDuration":110124,"Delta":88062829},{"NoteNumber":57,"Velocity":51,"Duration":200226,"SoundDuration":200226,"Delta":88062829},{"NoteNumber":74,"Velocity":47,"Duration":110124,"SoundDuration":110124,"Delta":88162942},{"NoteNumber":73,"Velocity":47,"Duration":110124,"SoundDuration":110124,"Delta":88263056},{"NoteNumber":55,"Velocity":44,"Duration":200226,"SoundDuration":200226,"Delta":88263056},{"NoteNumber":69,"Velocity":47,"Duration":110124,"SoundDuration":110124,"Delta":88363169},{"NoteNumber":74,"Velocity":57,"Duration":100113,"SoundDuration":100113,"Delta":88463283},{"NoteNumber":54,"Velocity":45,"Duration":100113,"SoundDuration":100113,"Delta":88463283},{"NoteNumber":50,"Velocity":45,"Duration":107913,"SoundDuration":107913,"Delta":88663510},{"NoteNumber":79,"Velocity":65,"Duration":110864,"SoundDuration":110864,"Delta":88879337},{"NoteNumber":49,"Velocity":54,"Duration":201572,"SoundDuration":201572,"Delta":88879337},{"NoteNumber":81,"Velocity":54,"Duration":110864,"SoundDuration":110864,"Delta":88980123},{"NoteNumber":79,"Velocity":54,"Duration":110864,"SoundDuration":110864,"Delta":89080910},{"NoteNumber":45,"Velocity":47,"Duration":201572,"SoundDuration":201572,"Delta":89080910},{"NoteNumber":76,"Velocity":56,"Duration":110864,"SoundDuration":110864,"Delta":89181696},{"NoteNumber":79,"Velocity":70,"Duration":110864,"SoundDuration":110864,"Delta":89282482},{"NoteNumber":50,"Velocity":48,"Duration":100786,"SoundDuration":100786,"Delta":89282482},{"NoteNumber":78,"Velocity":56,"Duration":111215,"SoundDuration":111215,"Delta":89383268},{"NoteNumber":76,"Velocity":56,"Duration":114718,"SoundDuration":114718,"Delta":89484055},{"NoteNumber":54,"Velocity":48,"Duration":104289,"SoundDuration":104289,"Delta":89484055},{"NoteNumber":74,"Velocity":59,"Duration":114301,"SoundDuration":114301,"Delta":89588344},{"NoteNumber":73,"Velocity":79,"Duration":100113,"SoundDuration":100113,"Delta":89692634},{"NoteNumber":45,"Velocity":50,"Duration":200226,"SoundDuration":200226,"Delta":89692634},{"NoteNumber":57,"Velocity":60,"Duration":200226,"SoundDuration":200226,"Delta":89692634},{"NoteNumber":52,"Velocity":50,"Duration":200226,"SoundDuration":200226,"Delta":89692634},{"NoteNumber":76,"Velocity":63,"Duration":100113,"SoundDuration":100113,"Delta":89792748},{"NoteNumber":73,"Velocity":63,"Duration":100113,"SoundDuration":100113,"Delta":89892861},{"NoteNumber":69,"Velocity":63,"Duration":107273,"SoundDuration":107273,"Delta":89992975},{"NoteNumber":78,"Velocity":74,"Duration":100113,"SoundDuration":100113,"Delta":90100248},{"NoteNumber":54,"Velocity":51,"Duration":200226,"SoundDuration":200226,"Delta":90100248},{"NoteNumber":50,"Velocity":51,"Duration":200226,"SoundDuration":200226,"Delta":90100248},{"NoteNumber":57,"Velocity":60,"Duration":200226,"SoundDuration":200226,"Delta":90100248},{"NoteNumber":81,"Velocity":64,"Duration":100113,"SoundDuration":100113,"Delta":90200361},{"NoteNumber":78,"Velocity":64,"Duration":107273,"SoundDuration":107273,"Delta":90300475},{"NoteNumber":74,"Velocity":64,"Duration":107272,"SoundDuration":107272,"Delta":90407748},{"NoteNumber":73,"Velocity":77,"Duration":101467,"SoundDuration":101467,"Delta":90515021},{"NoteNumber":52,"Velocity":51,"Duration":202935,"SoundDuration":202935,"Delta":90515021},{"NoteNumber":45,"Velocity":51,"Duration":202935,"SoundDuration":202935,"Delta":90515021},{"NoteNumber":57,"Velocity":61,"Duration":202935,"SoundDuration":202935,"Delta":90515021},{"NoteNumber":76,"Velocity":62,"Duration":101467,"SoundDuration":101467,"Delta":90616489},{"NoteNumber":73,"Velocity":62,"Duration":101468,"SoundDuration":101468,"Delta":90717957},{"NoteNumber":69,"Velocity":62,"Duration":106511,"SoundDuration":106511,"Delta":90819425},{"NoteNumber":78,"Velocity":77,"Duration":101467,"SoundDuration":101467,"Delta":90925936},{"NoteNumber":50,"Velocity":52,"Duration":202935,"SoundDuration":202935,"Delta":90925936},{"NoteNumber":54,"Velocity":52,"Duration":202935,"SoundDuration":202935,"Delta":90925936},{"NoteNumber":57,"Velocity":62,"Duration":202935,"SoundDuration":202935,"Delta":90925936},{"NoteNumber":81,"Velocity":64,"Duration":101467,"SoundDuration":101467,"Delta":91027404},{"NoteNumber":78,"Velocity":64,"Duration":107273,"SoundDuration":107273,"Delta":91128872},{"NoteNumber":74,"Velocity":64,"Duration":107272,"SoundDuration":107272,"Delta":91236145},{"NoteNumber":73,"Velocity":69,"Duration":77144,"SoundDuration":77144,"Delta":91343418},{"NoteNumber":76,"Velocity":84,"Duration":77144,"SoundDuration":77144,"Delta":91343418},{"NoteNumber":73,"Velocity":60,"Duration":77144,"SoundDuration":77144,"Delta":91549137},{"NoteNumber":81,"Velocity":74,"Duration":77144,"SoundDuration":77144,"Delta":91549137},{"NoteNumber":76,"Velocity":60,"Duration":77144,"SoundDuration":77144,"Delta":91549137},{"NoteNumber":45,"Velocity":45,"Duration":77144,"SoundDuration":77144,"Delta":91549137},{"NoteNumber":49,"Velocity":45,"Duration":77144,"SoundDuration":77144,"Delta":91549137},{"NoteNumber":57,"Velocity":55,"Duration":77144,"SoundDuration":77144,"Delta":91549137},{"NoteNumber":52,"Velocity":45,"Duration":77144,"SoundDuration":77144,"Delta":91549137},{"NoteNumber":81,"Velocity":74,"Duration":77144,"SoundDuration":77144,"Delta":91754856},{"NoteNumber":73,"Velocity":60,"Duration":77144,"SoundDuration":77144,"Delta":91754856},{"NoteNumber":76,"Velocity":60,"Duration":77144,"SoundDuration":77144,"Delta":91754856},{"NoteNumber":49,"Velocity":45,"Duration":77144,"SoundDuration":77144,"Delta":91754856},{"NoteNumber":57,"Velocity":55,"Duration":77144,"SoundDuration":77144,"Delta":91754856},{"NoteNumber":52,"Velocity":45,"Duration":77144,"SoundDuration":77144,"Delta":91754856},{"NoteNumber":45,"Velocity":45,"Duration":77144,"SoundDuration":77144,"Delta":91754856},{"NoteNumber":76,"Velocity":60,"Duration":77144,"SoundDuration":77144,"Delta":91960575},{"NoteNumber":73,"Velocity":60,"Duration":77144,"SoundDuration":77144,"Delta":91960575},{"NoteNumber":81,"Velocity":74,"Duration":77144,"SoundDuration":77144,"Delta":91960575},{"NoteNumber":49,"Velocity":45,"Duration":77144,"SoundDuration":77144,"Delta":91960575},{"NoteNumber":52,"Velocity":45,"Duration":77144,"SoundDuration":77144,"Delta":91960575},{"NoteNumber":57,"Velocity":55,"Duration":77144,"SoundDuration":77144,"Delta":91960575},{"NoteNumber":45,"Velocity":45,"Duration":77144,"SoundDuration":77144,"Delta":91960575},{"NoteNumber":81,"Velocity":74,"Duration":498080,"SoundDuration":498080,"Delta":92166294},{"NoteNumber":73,"Velocity":60,"Duration":498080,"SoundDuration":498080,"Delta":92166294},{"NoteNumber":76,"Velocity":60,"Duration":498080,"SoundDuration":498080,"Delta":92166294},{"NoteNumber":52,"Velocity":49,"Duration":498080,"SoundDuration":498080,"Delta":92166294},{"NoteNumber":57,"Velocity":58,"Duration":498080,"SoundDuration":498080,"Delta":92166294},{"NoteNumber":49,"Velocity":49,"Duration":498080,"SoundDuration":498080,"Delta":92166294},{"NoteNumber":45,"Velocity":49,"Duration":498080,"SoundDuration":498080,"Delta":92166294},{"NoteNumber":74,"Velocity":41,"Duration":51784,"SoundDuration":51784,"Delta":92664375},{"NoteNumber":73,"Velocity":42,"Duration":103569,"SoundDuration":103569,"Delta":92716160},{"NoteNumber":71,"Velocity":40,"Duration":103569,"SoundDuration":103569,"Delta":92819729},{"NoteNumber":73,"Velocity":40,"Duration":103569,"SoundDuration":103569,"Delta":92923299},{"NoteNumber":74,"Velocity":40,"Duration":115535,"SoundDuration":115535,"Delta":93026869},{"NoteNumber":75,"Velocity":45,"Duration":213023,"SoundDuration":213023,"Delta":93142405},{"NoteNumber":57,"Velocity":34,"Duration":213023,"SoundDuration":213023,"Delta":93142405},{"NoteNumber":76,"Velocity":42,"Duration":207139,"SoundDuration":207139,"Delta":93355428},{"NoteNumber":61,"Velocity":27,"Duration":207139,"SoundDuration":207139,"Delta":93355428},{"NoteNumber":59,"Velocity":30,"Duration":217659,"SoundDuration":217659,"Delta":93562567},{"NoteNumber":76,"Velocity":40,"Duration":205719,"SoundDuration":205719,"Delta":93780227},{"NoteNumber":62,"Velocity":27,"Duration":205719,"SoundDuration":205719,"Delta":93780227},{"NoteNumber":81,"Velocity":46,"Duration":205719,"SoundDuration":205719,"Delta":93985946},{"NoteNumber":61,"Velocity":32,"Duration":205719,"SoundDuration":205719,"Delta":93985946},{"NoteNumber":80,"Velocity":42,"Duration":205719,"SoundDuration":205719,"Delta":94191665},{"NoteNumber":64,"Velocity":26,"Duration":205719,"SoundDuration":205719,"Delta":94191665},{"NoteNumber":78,"Velocity":44,"Duration":205718,"SoundDuration":205718,"Delta":94397384},{"NoteNumber":57,"Velocity":29,"Duration":205718,"SoundDuration":205718,"Delta":94397384},{"NoteNumber":76,"Velocity":42,"Duration":217659,"SoundDuration":217659,"Delta":94603103},{"NoteNumber":61,"Velocity":26,"Duration":217659,"SoundDuration":217659,"Delta":94603103},{"NoteNumber":73,"Velocity":48,"Duration":210040,"SoundDuration":210040,"Delta":94820762},{"NoteNumber":59,"Velocity":34,"Duration":210040,"SoundDuration":210040,"Delta":94820762},{"NoteNumber":74,"Velocity":42,"Duration":202935,"SoundDuration":202935,"Delta":95030802},{"NoteNumber":66,"Velocity":28,"Duration":202935,"SoundDuration":202935,"Delta":95030802},{"NoteNumber":62,"Velocity":32,"Duration":217659,"SoundDuration":217659,"Delta":95233738},{"NoteNumber":74,"Velocity":40,"Duration":205719,"SoundDuration":205719,"Delta":95451398},{"NoteNumber":59,"Velocity":28,"Duration":205719,"SoundDuration":205719,"Delta":95451398},{"NoteNumber":76,"Velocity":45,"Duration":205719,"SoundDuration":205719,"Delta":95657117},{"NoteNumber":56,"Velocity":34,"Duration":205719,"SoundDuration":205719,"Delta":95657117},{"NoteNumber":74,"Velocity":42,"Duration":205719,"SoundDuration":205719,"Delta":95862836},{"NoteNumber":59,"Velocity":29,"Duration":205719,"SoundDuration":205719,"Delta":95862836},{"NoteNumber":73,"Velocity":45,"Duration":205718,"SoundDuration":205718,"Delta":96068555},{"NoteNumber":52,"Velocity":30,"Duration":205718,"SoundDuration":205718,"Delta":96068555},{"NoteNumber":71,"Velocity":42,"Duration":219250,"SoundDuration":219250,"Delta":96274274},{"NoteNumber":62,"Velocity":28,"Duration":219250,"SoundDuration":219250,"Delta":96274274},{"NoteNumber":68,"Velocity":48,"Duration":207139,"SoundDuration":207139,"Delta":96493524},{"NoteNumber":61,"Velocity":34,"Duration":207139,"SoundDuration":207139,"Delta":96493524},{"NoteNumber":69,"Velocity":44,"Duration":202935,"SoundDuration":202935,"Delta":96700663},{"NoteNumber":64,"Velocity":28,"Duration":202935,"SoundDuration":202935,"Delta":96700663},{"NoteNumber":56,"Velocity":30,"Duration":202936,"SoundDuration":202936,"Delta":96903599},{"NoteNumber":71,"Velocity":45,"Duration":213023,"SoundDuration":213023,"Delta":97106535},{"NoteNumber":64,"Velocity":28,"Duration":213023,"SoundDuration":213023,"Delta":97106535},{"NoteNumber":72,"Velocity":50,"Duration":207139,"SoundDuration":207139,"Delta":97319558},{"NoteNumber":57,"Velocity":34,"Duration":207139,"SoundDuration":207139,"Delta":97319558},{"NoteNumber":73,"Velocity":46,"Duration":201572,"SoundDuration":201572,"Delta":97526698},{"NoteNumber":64,"Velocity":26,"Duration":201572,"SoundDuration":201572,"Delta":97526698},{"NoteNumber":54,"Velocity":29,"Duration":201572,"SoundDuration":201572,"Delta":97728270},{"NoteNumber":76,"Velocity":42,"Duration":50393,"SoundDuration":50393,"Delta":97879449},{"NoteNumber":74,"Velocity":47,"Duration":216091,"SoundDuration":216091,"Delta":97929843},{"NoteNumber":57,"Velocity":26,"Duration":216091,"SoundDuration":216091,"Delta":97929843},{"NoteNumber":73,"Velocity":51,"Duration":634563,"SoundDuration":634563,"Delta":98145934},{"NoteNumber":52,"Velocity":34,"Duration":211521,"SoundDuration":211521,"Delta":98145934},{"NoteNumber":57,"Velocity":27,"Duration":211520,"SoundDuration":211520,"Delta":98357455},{"NoteNumber":61,"Velocity":30,"Duration":211521,"SoundDuration":211521,"Delta":98568976},{"NoteNumber":74,"Velocity":44,"Duration":105760,"SoundDuration":105760,"Delta":98780497},{"NoteNumber":57,"Velocity":27,"Duration":211521,"SoundDuration":211521,"Delta":98780497},{"NoteNumber":73,"Velocity":42,"Duration":105760,"SoundDuration":105760,"Delta":98886258},{"NoteNumber":71,"Velocity":47,"Duration":211520,"SoundDuration":211520,"Delta":98992018},{"NoteNumber":56,"Velocity":33,"Duration":423041,"SoundDuration":423041,"Delta":98992018},{"NoteNumber":52,"Velocity":33,"Duration":423041,"SoundDuration":423041,"Delta":98992018},{"NoteNumber":73,"Velocity":42,"Duration":105760,"SoundDuration":105760,"Delta":99203539},{"NoteNumber":74,"Velocity":44,"Duration":109488,"SoundDuration":109488,"Delta":99415060},{"NoteNumber":75,"Velocity":47,"Duration":114503,"SoundDuration":114503,"Delta":99634038},{"NoteNumber":75,"Velocity":45,"Duration":213023,"SoundDuration":213023,"Delta":99863046},{"NoteNumber":57,"Velocity":34,"Duration":213023,"SoundDuration":213023,"Delta":99863046},{"NoteNumber":76,"Velocity":42,"Duration":207139,"SoundDuration":207139,"Delta":100076069},{"NoteNumber":61,"Velocity":27,"Duration":207139,"SoundDuration":207139,"Delta":100076069},{"NoteNumber":59,"Velocity":30,"Duration":217659,"SoundDuration":217659,"Delta":100283208},{"NoteNumber":78,"Velocity":40,"Duration":51429,"SoundDuration":51429,"Delta":100500868},{"NoteNumber":62,"Velocity":27,"Duration":205719,"SoundDuration":205719,"Delta":100500868},{"NoteNumber":76,"Velocity":37,"Duration":51429,"SoundDuration":51429,"Delta":100552297},{"NoteNumber":75,"Velocity":37,"Duration":51429,"SoundDuration":51429,"Delta":100603727},{"NoteNumber":76,"Velocity":37,"Duration":51429,"SoundDuration":51429,"Delta":100655157},{"NoteNumber":81,"Velocity":46,"Duration":102859,"SoundDuration":102859,"Delta":100706587},{"NoteNumber":61,"Velocity":32,"Duration":205719,"SoundDuration":205719,"Delta":100706587},{"NoteNumber":80,"Velocity":42,"Duration":102859,"SoundDuration":102859,"Delta":100912306},{"NoteNumber":64,"Velocity":26,"Duration":102859,"SoundDuration":102859,"Delta":100912306},{"NoteNumber":78,"Velocity":44,"Duration":102859,"SoundDuration":102859,"Delta":101118025},{"NoteNumber":57,"Velocity":29,"Duration":205718,"SoundDuration":205718,"Delta":101118025},{"NoteNumber":76,"Velocity":42,"Duration":108829,"SoundDuration":108829,"Delta":101323744},{"NoteNumber":61,"Velocity":26,"Duration":108829,"SoundDuration":108829,"Delta":101323744},{"NoteNumber":73,"Velocity":48,"Duration":210040,"SoundDuration":210040,"Delta":101541403},{"NoteNumber":59,"Velocity":34,"Duration":210040,"SoundDuration":210040,"Delta":101541403},{"NoteNumber":74,"Velocity":42,"Duration":202935,"SoundDuration":202935,"Delta":101751443},{"NoteNumber":66,"Velocity":28,"Duration":202935,"SoundDuration":202935,"Delta":101751443},{"NoteNumber":62,"Velocity":32,"Duration":217659,"SoundDuration":217659,"Delta":101954379},{"NoteNumber":76,"Velocity":40,"Duration":51429,"SoundDuration":51429,"Delta":102172039},{"NoteNumber":59,"Velocity":28,"Duration":205719,"SoundDuration":205719,"Delta":102172039},{"NoteNumber":74,"Velocity":37,"Duration":51429,"SoundDuration":51429,"Delta":102223468},{"NoteNumber":73,"Velocity":37,"Duration":51429,"SoundDuration":51429,"Delta":102274898},{"NoteNumber":74,"Velocity":37,"Duration":51429,"SoundDuration":51429,"Delta":102326328},{"NoteNumber":76,"Velocity":45,"Duration":102859,"SoundDuration":102859,"Delta":102377758},{"NoteNumber":56,"Velocity":34,"Duration":205719,"SoundDuration":205719,"Delta":102377758},{"NoteNumber":74,"Velocity":42,"Duration":102859,"SoundDuration":102859,"Delta":102583477},{"NoteNumber":59,"Velocity":29,"Duration":102859,"SoundDuration":102859,"Delta":102583477},{"NoteNumber":73,"Velocity":45,"Duration":102859,"SoundDuration":102859,"Delta":102789196},{"NoteNumber":52,"Velocity":30,"Duration":205718,"SoundDuration":205718,"Delta":102789196},{"NoteNumber":71,"Velocity":42,"Duration":109624,"SoundDuration":109624,"Delta":102994915},{"NoteNumber":56,"Velocity":28,"Duration":109624,"SoundDuration":109624,"Delta":102994915},{"NoteNumber":73,"Velocity":45,"Duration":328874,"SoundDuration":328874,"Delta":103214165},{"NoteNumber":57,"Velocity":30,"Duration":438499,"SoundDuration":438499,"Delta":103214165},{"NoteNumber":76,"Velocity":42,"Duration":109624,"SoundDuration":109624,"Delta":103543040},{"NoteNumber":66,"Velocity":45,"Duration":328875,"SoundDuration":328875,"Delta":103652665},{"NoteNumber":62,"Velocity":30,"Duration":438500,"SoundDuration":438500,"Delta":103652665},{"NoteNumber":50,"Velocity":30,"Duration":438500,"SoundDuration":438500,"Delta":103652665},{"NoteNumber":71,"Velocity":41,"Duration":109624,"SoundDuration":109624,"Delta":103981540},{"NoteNumber":69,"Velocity":45,"Duration":438500,"SoundDuration":438500,"Delta":104091165},{"NoteNumber":52,"Velocity":30,"Duration":876999,"SoundDuration":876999,"Delta":104091165},{"NoteNumber":61,"Velocity":30,"Duration":438500,"SoundDuration":438500,"Delta":104091165},{"NoteNumber":68,"Velocity":43,"Duration":54812,"SoundDuration":54812,"Delta":104529665},{"NoteNumber":59,"Velocity":30,"Duration":438499,"SoundDuration":438499,"Delta":104529665},{"NoteNumber":69,"Velocity":39,"Duration":54812,"SoundDuration":54812,"Delta":104584477},{"NoteNumber":68,"Velocity":43,"Duration":54812,"SoundDuration":54812,"Delta":104639290},{"NoteNumber":69,"Velocity":40,"Duration":54812,"SoundDuration":54812,"Delta":104694102},{"NoteNumber":68,"Velocity":43,"Duration":73083,"SoundDuration":73083,"Delta":104748915},{"NoteNumber":66,"Velocity":40,"Duration":73083,"SoundDuration":73083,"Delta":104821998},{"NoteNumber":68,"Velocity":40,"Duration":73083,"SoundDuration":73083,"Delta":104895081},{"NoteNumber":69,"Velocity":46,"Duration":110432,"SoundDuration":110432,"Delta":104968165},{"NoteNumber":57,"Velocity":38,"Duration":426583,"SoundDuration":426583,"Delta":104968165},{"NoteNumber":76,"Velocity":44,"Duration":110432,"SoundDuration":110432,"Delta":105078597},{"NoteNumber":75,"Velocity":47,"Duration":102859,"SoundDuration":102859,"Delta":105189029},{"NoteNumber":76,"Velocity":43,"Duration":102859,"SoundDuration":102859,"Delta":105291889},{"NoteNumber":78,"Velocity":50,"Duration":104894,"SoundDuration":104894,"Delta":105394748},{"NoteNumber":76,"Velocity":47,"Duration":104894,"SoundDuration":104894,"Delta":105499643},{"NoteNumber":75,"Velocity":51,"Duration":109624,"SoundDuration":109624,"Delta":105604538},{"NoteNumber":69,"Velocity":51,"Duration":109624,"SoundDuration":109624,"Delta":105604538},{"NoteNumber":76,"Velocity":51,"Duration":109625,"SoundDuration":109625,"Delta":105714163},{"NoteNumber":74,"Velocity":59,"Duration":105019,"SoundDuration":105019,"Delta":105823788},{"NoteNumber":71,"Velocity":55,"Duration":105019,"SoundDuration":105019,"Delta":105823788},{"NoteNumber":76,"Velocity":50,"Duration":105020,"SoundDuration":105020,"Delta":105928808},{"NoteNumber":74,"Velocity":52,"Duration":102859,"SoundDuration":102859,"Delta":106033828},{"NoteNumber":69,"Velocity":51,"Duration":102859,"SoundDuration":102859,"Delta":106033828},{"NoteNumber":76,"Velocity":50,"Duration":102859,"SoundDuration":102859,"Delta":106136688},{"NoteNumber":74,"Velocity":62,"Duration":102859,"SoundDuration":102859,"Delta":106239547},{"NoteNumber":68,"Velocity":58,"Duration":102859,"SoundDuration":102859,"Delta":106239547},{"NoteNumber":76,"Velocity":49,"Duration":102859,"SoundDuration":102859,"Delta":106342407},{"NoteNumber":74,"Velocity":52,"Duration":108829,"SoundDuration":108829,"Delta":106445266},{"NoteNumber":64,"Velocity":53,"Duration":108829,"SoundDuration":108829,"Delta":106445266},{"NoteNumber":76,"Velocity":49,"Duration":108829,"SoundDuration":108829,"Delta":106554096},{"NoteNumber":73,"Velocity":50,"Duration":110432,"SoundDuration":110432,"Delta":106662926},{"NoteNumber":69,"Velocity":55,"Duration":425182,"SoundDuration":425182,"Delta":106662926},{"NoteNumber":76,"Velocity":44,"Duration":110432,"SoundDuration":110432,"Delta":106773358},{"NoteNumber":75,"Velocity":47,"Duration":102159,"SoundDuration":102159,"Delta":106883790},{"NoteNumber":76,"Velocity":43,"Duration":102159,"SoundDuration":102159,"Delta":106985949},{"NoteNumber":78,"Velocity":50,"Duration":102159,"SoundDuration":102159,"Delta":107088108},{"NoteNumber":76,"Velocity":47,"Duration":102159,"SoundDuration":102159,"Delta":107190267},{"NoteNumber":75,"Velocity":51,"Duration":109624,"SoundDuration":109624,"Delta":107292426},{"NoteNumber":57,"Velocity":52,"Duration":109624,"SoundDuration":109624,"Delta":107292426},{"NoteNumber":76,"Velocity":51,"Duration":109625,"SoundDuration":109625,"Delta":107402051},{"NoteNumber":74,"Velocity":59,"Duration":105760,"SoundDuration":105760,"Delta":107511676},{"NoteNumber":59,"Velocity":57,"Duration":105760,"SoundDuration":105760,"Delta":107511676},{"NoteNumber":76,"Velocity":50,"Duration":105760,"SoundDuration":105760,"Delta":107617437},{"NoteNumber":74,"Velocity":52,"Duration":102859,"SoundDuration":102859,"Delta":107723197},{"NoteNumber":57,"Velocity":51,"Duration":102859,"SoundDuration":102859,"Delta":107723197},{"NoteNumber":76,"Velocity":50,"Duration":102859,"SoundDuration":102859,"Delta":107826057},{"NoteNumber":74,"Velocity":62,"Duration":102859,"SoundDuration":102859,"Delta":107928916},{"NoteNumber":56,"Velocity":57,"Duration":102859,"SoundDuration":102859,"Delta":107928916},{"NoteNumber":76,"Velocity":49,"Duration":102859,"SoundDuration":102859,"Delta":108031776},{"NoteNumber":74,"Velocity":52,"Duration":108829,"SoundDuration":108829,"Delta":108134635},{"NoteNumber":52,"Velocity":53,"Duration":108829,"SoundDuration":108829,"Delta":108134635},{"NoteNumber":76,"Velocity":49,"Duration":108829,"SoundDuration":108829,"Delta":108243465},{"NoteNumber":69,"Velocity":41,"Duration":426583,"SoundDuration":426583,"Delta":108352295},{"NoteNumber":57,"Velocity":56,"Duration":110432,"SoundDuration":110432,"Delta":108352295},{"NoteNumber":64,"Velocity":35,"Duration":110432,"SoundDuration":110432,"Delta":108462727},{"NoteNumber":63,"Velocity":37,"Duration":102859,"SoundDuration":102859,"Delta":108573159},{"NoteNumber":64,"Velocity":34,"Duration":102859,"SoundDuration":102859,"Delta":108676019},{"NoteNumber":66,"Velocity":40,"Duration":104894,"SoundDuration":104894,"Delta":108778878},{"NoteNumber":64,"Velocity":37,"Duration":104894,"SoundDuration":104894,"Delta":108883773},{"NoteNumber":81,"Velocity":57,"Duration":107913,"SoundDuration":107913,"Delta":108988668},{"NoteNumber":63,"Velocity":40,"Duration":107913,"SoundDuration":107913,"Delta":108988668},{"NoteNumber":64,"Velocity":40,"Duration":107913,"SoundDuration":107913,"Delta":109096582},{"NoteNumber":83,"Velocity":63,"Duration":105019,"SoundDuration":105019,"Delta":109204496},{"NoteNumber":62,"Velocity":47,"Duration":105019,"SoundDuration":105019,"Delta":109204496},{"NoteNumber":64,"Velocity":39,"Duration":105020,"SoundDuration":105020,"Delta":109309516},{"NoteNumber":81,"Velocity":58,"Duration":102859,"SoundDuration":102859,"Delta":109414536},{"NoteNumber":62,"Velocity":41,"Duration":102859,"SoundDuration":102859,"Delta":109414536},{"NoteNumber":64,"Velocity":39,"Duration":102859,"SoundDuration":102859,"Delta":109517395},{"NoteNumber":80,"Velocity":63,"Duration":102859,"SoundDuration":102859,"Delta":109620255},{"NoteNumber":62,"Velocity":49,"Duration":102859,"SoundDuration":102859,"Delta":109620255},{"NoteNumber":64,"Velocity":39,"Duration":102859,"SoundDuration":102859,"Delta":109723114},{"NoteNumber":76,"Velocity":58,"Duration":108829,"SoundDuration":108829,"Delta":109825974},{"NoteNumber":62,"Velocity":41,"Duration":108829,"SoundDuration":108829,"Delta":109825974},{"NoteNumber":64,"Velocity":39,"Duration":108829,"SoundDuration":108829,"Delta":109934803},{"NoteNumber":81,"Velocity":60,"Duration":426583,"SoundDuration":426583,"Delta":110043633},{"NoteNumber":61,"Velocity":39,"Duration":110432,"SoundDuration":110432,"Delta":110043633},{"NoteNumber":64,"Velocity":35,"Duration":110432,"SoundDuration":110432,"Delta":110154065},{"NoteNumber":63,"Velocity":37,"Duration":102859,"SoundDuration":102859,"Delta":110264498},{"NoteNumber":64,"Velocity":34,"Duration":102859,"SoundDuration":102859,"Delta":110367357},{"NoteNumber":66,"Velocity":40,"Duration":105633,"SoundDuration":105633,"Delta":110470217},{"NoteNumber":64,"Velocity":37,"Duration":105633,"SoundDuration":105633,"Delta":110575850},{"NoteNumber":45,"Velocity":57,"Duration":107913,"SoundDuration":107913,"Delta":110681484},{"NoteNumber":63,"Velocity":40,"Duration":107913,"SoundDuration":107913,"Delta":110681484},{"NoteNumber":64,"Velocity":40,"Duration":107913,"SoundDuration":107913,"Delta":110789398},{"NoteNumber":47,"Velocity":63,"Duration":107273,"SoundDuration":107273,"Delta":110897312},{"NoteNumber":62,"Velocity":47,"Duration":107273,"SoundDuration":107273,"Delta":110897312},{"NoteNumber":64,"Velocity":39,"Duration":107272,"SoundDuration":107272,"Delta":111004585},{"NoteNumber":45,"Velocity":58,"Duration":104166,"SoundDuration":104166,"Delta":111111858},{"NoteNumber":62,"Velocity":41,"Duration":104166,"SoundDuration":104166,"Delta":111111858},{"NoteNumber":64,"Velocity":39,"Duration":104166,"SoundDuration":104166,"Delta":111216024},{"NoteNumber":44,"Velocity":60,"Duration":104166,"SoundDuration":104166,"Delta":111320191},{"NoteNumber":62,"Velocity":49,"Duration":104166,"SoundDuration":104166,"Delta":111320191},{"NoteNumber":64,"Velocity":39,"Duration":104166,"SoundDuration":104166,"Delta":111424358},{"NoteNumber":40,"Velocity":58,"Duration":108829,"SoundDuration":108829,"Delta":111528525},{"NoteNumber":62,"Velocity":41,"Duration":108829,"SoundDuration":108829,"Delta":111528525},{"NoteNumber":64,"Velocity":39,"Duration":108829,"SoundDuration":108829,"Delta":111637354},{"NoteNumber":45,"Velocity":60,"Duration":435319,"SoundDuration":435319,"Delta":111746184},{"NoteNumber":61,"Velocity":41,"Duration":435319,"SoundDuration":435319,"Delta":111746184},{"NoteNumber":76,"Velocity":50,"Duration":423041,"SoundDuration":423041,"Delta":112181503},{"NoteNumber":61,"Velocity":35,"Duration":105760,"SoundDuration":105760,"Delta":112181503},{"NoteNumber":69,"Velocity":29,"Duration":105760,"SoundDuration":105760,"Delta":112287264},{"NoteNumber":61,"Velocity":29,"Duration":105760,"SoundDuration":105760,"Delta":112393024},{"NoteNumber":69,"Velocity":29,"Duration":105760,"SoundDuration":105760,"Delta":112498785},{"NoteNumber":74,"Velocity":47,"Duration":429091,"SoundDuration":429091,"Delta":112604545},{"NoteNumber":59,"Velocity":35,"Duration":107273,"SoundDuration":107273,"Delta":112604545},{"NoteNumber":69,"Velocity":30,"Duration":107272,"SoundDuration":107272,"Delta":112711818},{"NoteNumber":59,"Velocity":30,"Duration":107273,"SoundDuration":107273,"Delta":112819091},{"NoteNumber":69,"Velocity":30,"Duration":107272,"SoundDuration":107272,"Delta":112926364},{"NoteNumber":73,"Velocity":46,"Duration":448329,"SoundDuration":448329,"Delta":113033637},{"NoteNumber":57,"Velocity":35,"Duration":112082,"SoundDuration":112082,"Delta":113033637},{"NoteNumber":69,"Velocity":31,"Duration":112082,"SoundDuration":112082,"Delta":113145720},{"NoteNumber":57,"Velocity":31,"Duration":112082,"SoundDuration":112082,"Delta":113257802},{"NoteNumber":69,"Velocity":31,"Duration":112082,"SoundDuration":112082,"Delta":113369885},{"NoteNumber":78,"Velocity":50,"Duration":324137,"SoundDuration":324137,"Delta":113481967},{"NoteNumber":62,"Velocity":35,"Duration":108045,"SoundDuration":108045,"Delta":113481967},{"NoteNumber":69,"Velocity":30,"Duration":108045,"SoundDuration":108045,"Delta":113590013},{"NoteNumber":68,"Velocity":30,"Duration":108045,"SoundDuration":108045,"Delta":113698059},{"NoteNumber":80,"Velocity":45,"Duration":39736,"SoundDuration":39736,"Delta":113806104},{"NoteNumber":69,"Velocity":30,"Duration":119208,"SoundDuration":119208,"Delta":113806104},{"NoteNumber":78,"Velocity":45,"Duration":39736,"SoundDuration":39736,"Delta":113845840},{"NoteNumber":76,"Velocity":45,"Duration":39636,"SoundDuration":39636,"Delta":113886570},{"NoteNumber":78,"Velocity":50,"Duration":107273,"SoundDuration":107273,"Delta":113925313},{"NoteNumber":62,"Velocity":35,"Duration":107273,"SoundDuration":107273,"Delta":113925313},{"NoteNumber":69,"Velocity":30,"Duration":107272,"SoundDuration":107272,"Delta":114032586},{"NoteNumber":80,"Velocity":47,"Duration":112082,"SoundDuration":112082,"Delta":114139859},{"NoteNumber":68,"Velocity":30,"Duration":112082,"SoundDuration":112082,"Delta":114139859},{"NoteNumber":69,"Velocity":30,"Duration":112082,"SoundDuration":112082,"Delta":114251941},{"NoteNumber":83,"Velocity":50,"Duration":213023,"SoundDuration":213023,"Delta":114364024},{"NoteNumber":62,"Velocity":30,"Duration":106511,"SoundDuration":106511,"Delta":114364024},{"NoteNumber":69,"Velocity":32,"Duration":106511,"SoundDuration":106511,"Delta":114470535},{"NoteNumber":81,"Velocity":45,"Duration":213022,"SoundDuration":213022,"Delta":114577047},{"NoteNumber":68,"Velocity":32,"Duration":106511,"SoundDuration":106511,"Delta":114577047},{"NoteNumber":69,"Velocity":32,"Duration":106511,"SoundDuration":106511,"Delta":114683558},{"NoteNumber":80,"Velocity":47,"Duration":213023,"SoundDuration":213023,"Delta":114790070},{"NoteNumber":62,"Velocity":34,"Duration":106511,"SoundDuration":106511,"Delta":114790070},{"NoteNumber":69,"Velocity":30,"Duration":106511,"SoundDuration":106511,"Delta":114896581},{"NoteNumber":78,"Velocity":45,"Duration":231071,"SoundDuration":231071,"Delta":115003093},{"NoteNumber":68,"Velocity":30,"Duration":115535,"SoundDuration":115535,"Delta":115003093},{"NoteNumber":69,"Velocity":30,"Duration":115535,"SoundDuration":115535,"Delta":115118629},{"NoteNumber":76,"Velocity":50,"Duration":227565,"SoundDuration":227565,"Delta":115234164},{"NoteNumber":61,"Velocity":37,"Duration":113782,"SoundDuration":113782,"Delta":115234164},{"NoteNumber":69,"Velocity":37,"Duration":113782,"SoundDuration":113782,"Delta":115347947},{"NoteNumber":68,"Velocity":28,"Duration":113782,"SoundDuration":113782,"Delta":115461730},{"NoteNumber":69,"Velocity":28,"Duration":113783,"SoundDuration":113783,"Delta":115575513},{"NoteNumber":76,"Velocity":60,"Duration":423041,"SoundDuration":423041,"Delta":115689296},{"NoteNumber":61,"Velocity":45,"Duration":105760,"SoundDuration":105760,"Delta":115689296},{"NoteNumber":69,"Velocity":37,"Duration":105760,"SoundDuration":105760,"Delta":115795057},{"NoteNumber":61,"Velocity":37,"Duration":105760,"SoundDuration":105760,"Delta":115900817},{"NoteNumber":69,"Velocity":37,"Duration":105760,"SoundDuration":105760,"Delta":116006578},{"NoteNumber":74,"Velocity":60,"Duration":429091,"SoundDuration":429091,"Delta":116112338},{"NoteNumber":59,"Velocity":45,"Duration":107273,"SoundDuration":107273,"Delta":116112338},{"NoteNumber":69,"Velocity":39,"Duration":107272,"SoundDuration":107272,"Delta":116219611},{"NoteNumber":59,"Velocity":39,"Duration":107273,"SoundDuration":107273,"Delta":116326884},{"NoteNumber":69,"Velocity":39,"Duration":107272,"SoundDuration":107272,"Delta":116434157},{"NoteNumber":73,"Velocity":59,"Duration":448329,"SoundDuration":448329,"Delta":116541430},{"NoteNumber":57,"Velocity":45,"Duration":112082,"SoundDuration":112082,"Delta":116541430},{"NoteNumber":69,"Velocity":40,"Duration":112082,"SoundDuration":112082,"Delta":116653513},{"NoteNumber":57,"Velocity":40,"Duration":112082,"SoundDuration":112082,"Delta":116765595},{"NoteNumber":69,"Velocity":40,"Duration":112082,"SoundDuration":112082,"Delta":116877678},{"NoteNumber":71,"Velocity":68,"Duration":324137,"SoundDuration":324137,"Delta":116989760},{"NoteNumber":50,"Velocity":45,"Duration":108045,"SoundDuration":108045,"Delta":116989760},{"NoteNumber":59,"Velocity":39,"Duration":108045,"SoundDuration":108045,"Delta":117097806},{"NoteNumber":54,"Velocity":39,"Duration":108045,"SoundDuration":108045,"Delta":117205852},{"NoteNumber":78,"Velocity":53,"Duration":119208,"SoundDuration":119208,"Delta":117313898},{"NoteNumber":59,"Velocity":39,"Duration":119208,"SoundDuration":119208,"Delta":117313898},{"NoteNumber":76,"Velocity":60,"Duration":107273,"SoundDuration":107273,"Delta":117433106},{"NoteNumber":50,"Velocity":45,"Duration":107273,"SoundDuration":107273,"Delta":117433106},{"NoteNumber":74,"Velocity":58,"Duration":107272,"SoundDuration":107272,"Delta":117540379},{"NoteNumber":59,"Velocity":39,"Duration":107272,"SoundDuration":107272,"Delta":117540379},{"NoteNumber":73,"Velocity":58,"Duration":112082,"SoundDuration":112082,"Delta":117647652},{"NoteNumber":54,"Velocity":39,"Duration":112082,"SoundDuration":112082,"Delta":117647652},{"NoteNumber":71,"Velocity":58,"Duration":112082,"SoundDuration":112082,"Delta":117759735},{"NoteNumber":59,"Velocity":39,"Duration":112082,"SoundDuration":112082,"Delta":117759735},{"NoteNumber":69,"Velocity":63,"Duration":426045,"SoundDuration":426045,"Delta":117871817},{"NoteNumber":52,"Velocity":39,"Duration":106511,"SoundDuration":106511,"Delta":117871817},{"NoteNumber":61,"Velocity":41,"Duration":106511,"SoundDuration":106511,"Delta":117978329},{"NoteNumber":57,"Velocity":41,"Duration":106511,"SoundDuration":106511,"Delta":118084840},{"NoteNumber":61,"Velocity":41,"Duration":106511,"SoundDuration":106511,"Delta":118191352},{"NoteNumber":71,"Velocity":55,"Duration":54164,"SoundDuration":54164,"Delta":118297863},{"NoteNumber":52,"Velocity":44,"Duration":110629,"SoundDuration":110629,"Delta":118297863},{"NoteNumber":73,"Velocity":49,"Duration":56464,"SoundDuration":56464,"Delta":118352028},{"NoteNumber":71,"Velocity":56,"Duration":55627,"SoundDuration":55627,"Delta":118408492},{"NoteNumber":62,"Velocity":39,"Duration":110441,"SoundDuration":110441,"Delta":118408492},{"NoteNumber":73,"Velocity":50,"Duration":54813,"SoundDuration":54813,"Delta":118464120},{"NoteNumber":71,"Velocity":56,"Duration":74055,"SoundDuration":74055,"Delta":118518934},{"NoteNumber":56,"Velocity":39,"Duration":112272,"SoundDuration":112272,"Delta":118518934},{"NoteNumber":69,"Velocity":48,"Duration":76434,"SoundDuration":76434,"Delta":118592989},{"NoteNumber":62,"Velocity":39,"Duration":114652,"SoundDuration":114652,"Delta":118631207},{"NoteNumber":71,"Velocity":48,"Duration":76435,"SoundDuration":76435,"Delta":118669424},{"NoteNumber":69,"Velocity":66,"Duration":214545,"SoundDuration":214545,"Delta":118745859},{"NoteNumber":57,"Velocity":48,"Duration":107273,"SoundDuration":107273,"Delta":118745859},{"NoteNumber":64,"Velocity":42,"Duration":107272,"SoundDuration":107272,"Delta":118853132},{"NoteNumber":61,"Velocity":36,"Duration":110432,"SoundDuration":110432,"Delta":118960405},{"NoteNumber":64,"Velocity":36,"Duration":135342,"SoundDuration":135342,"Delta":119070837},{"NoteNumber":76,"Velocity":50,"Duration":423041,"SoundDuration":423041,"Delta":119206180},{"NoteNumber":61,"Velocity":35,"Duration":105760,"SoundDuration":105760,"Delta":119206180},{"NoteNumber":69,"Velocity":29,"Duration":105760,"SoundDuration":105760,"Delta":119311940},{"NoteNumber":61,"Velocity":29,"Duration":105760,"SoundDuration":105760,"Delta":119417701},{"NoteNumber":69,"Velocity":29,"Duration":105760,"SoundDuration":105760,"Delta":119523461},{"NoteNumber":74,"Velocity":47,"Duration":429091,"SoundDuration":429091,"Delta":119629222},{"NoteNumber":59,"Velocity":35,"Duration":107273,"SoundDuration":107273,"Delta":119629222},{"NoteNumber":69,"Velocity":30,"Duration":107272,"SoundDuration":107272,"Delta":119736495},{"NoteNumber":59,"Velocity":30,"Duration":107273,"SoundDuration":107273,"Delta":119843768},{"NoteNumber":69,"Velocity":30,"Duration":107272,"SoundDuration":107272,"Delta":119951041},{"NoteNumber":73,"Velocity":46,"Duration":448329,"SoundDuration":448329,"Delta":120058314},{"NoteNumber":57,"Velocity":35,"Duration":112082,"SoundDuration":112082,"Delta":120058314},{"NoteNumber":69,"Velocity":31,"Duration":112082,"SoundDuration":112082,"Delta":120170396},{"NoteNumber":57,"Velocity":31,"Duration":112082,"SoundDuration":112082,"Delta":120282479},{"NoteNumber":69,"Velocity":31,"Duration":112082,"SoundDuration":112082,"Delta":120394561},{"NoteNumber":78,"Velocity":50,"Duration":324137,"SoundDuration":324137,"Delta":120506644},{"NoteNumber":62,"Velocity":35,"Duration":108045,"SoundDuration":108045,"Delta":120506644},{"NoteNumber":69,"Velocity":30,"Duration":108045,"SoundDuration":108045,"Delta":120614690},{"NoteNumber":68,"Velocity":30,"Duration":108045,"SoundDuration":108045,"Delta":120722735},{"NoteNumber":80,"Velocity":45,"Duration":39736,"SoundDuration":39736,"Delta":120830781},{"NoteNumber":69,"Velocity":30,"Duration":119208,"SoundDuration":119208,"Delta":120830781},{"NoteNumber":78,"Velocity":45,"Duration":39736,"SoundDuration":39736,"Delta":120870517},{"NoteNumber":76,"Velocity":45,"Duration":39636,"SoundDuration":39636,"Delta":120911247},{"NoteNumber":78,"Velocity":50,"Duration":107273,"SoundDuration":107273,"Delta":120949990},{"NoteNumber":62,"Velocity":35,"Duration":107273,"SoundDuration":107273,"Delta":120949990},{"NoteNumber":69,"Velocity":30,"Duration":107272,"SoundDuration":107272,"Delta":121057263},{"NoteNumber":80,"Velocity":47,"Duration":112082,"SoundDuration":112082,"Delta":121164536},{"NoteNumber":68,"Velocity":30,"Duration":112082,"SoundDuration":112082,"Delta":121164536},{"NoteNumber":69,"Velocity":30,"Duration":112082,"SoundDuration":112082,"Delta":121276618},{"NoteNumber":83,"Velocity":50,"Duration":213023,"SoundDuration":213023,"Delta":121388701},{"NoteNumber":62,"Velocity":30,"Duration":106511,"SoundDuration":106511,"Delta":121388701},{"NoteNumber":69,"Velocity":32,"Duration":106511,"SoundDuration":106511,"Delta":121495212},{"NoteNumber":81,"Velocity":45,"Duration":213022,"SoundDuration":213022,"Delta":121601724},{"NoteNumber":68,"Velocity":32,"Duration":106511,"SoundDuration":106511,"Delta":121601724},{"NoteNumber":69,"Velocity":32,"Duration":106511,"SoundDuration":106511,"Delta":121708235},{"NoteNumber":80,"Velocity":47,"Duration":213023,"SoundDuration":213023,"Delta":121814747},{"NoteNumber":62,"Velocity":34,"Duration":106511,"SoundDuration":106511,"Delta":121814747},{"NoteNumber":69,"Velocity":30,"Duration":106511,"SoundDuration":106511,"Delta":121921258},{"NoteNumber":78,"Velocity":45,"Duration":231071,"SoundDuration":231071,"Delta":122027770},{"NoteNumber":68,"Velocity":30,"Duration":115535,"SoundDuration":115535,"Delta":122027770},{"NoteNumber":69,"Velocity":30,"Duration":115535,"SoundDuration":115535,"Delta":122143305},{"NoteNumber":76,"Velocity":50,"Duration":227565,"SoundDuration":227565,"Delta":122258841},{"NoteNumber":61,"Velocity":37,"Duration":113782,"SoundDuration":113782,"Delta":122258841},{"NoteNumber":69,"Velocity":37,"Duration":113782,"SoundDuration":113782,"Delta":122372624},{"NoteNumber":68,"Velocity":28,"Duration":113782,"SoundDuration":113782,"Delta":122486407},{"NoteNumber":69,"Velocity":28,"Duration":113783,"SoundDuration":113783,"Delta":122600190},{"NoteNumber":76,"Velocity":60,"Duration":423041,"SoundDuration":423041,"Delta":122713973},{"NoteNumber":61,"Velocity":45,"Duration":105760,"SoundDuration":105760,"Delta":122713973},{"NoteNumber":69,"Velocity":37,"Duration":105760,"SoundDuration":105760,"Delta":122819734},{"NoteNumber":61,"Velocity":37,"Duration":105760,"SoundDuration":105760,"Delta":122925494},{"NoteNumber":69,"Velocity":37,"Duration":105760,"SoundDuration":105760,"Delta":123031255},{"NoteNumber":74,"Velocity":60,"Duration":429091,"SoundDuration":429091,"Delta":123137015},{"NoteNumber":59,"Velocity":45,"Duration":107273,"SoundDuration":107273,"Delta":123137015},{"NoteNumber":69,"Velocity":39,"Duration":107272,"SoundDuration":107272,"Delta":123244288},{"NoteNumber":59,"Velocity":39,"Duration":107273,"SoundDuration":107273,"Delta":123351561},{"NoteNumber":69,"Velocity":39,"Duration":107272,"SoundDuration":107272,"Delta":123458834},{"NoteNumber":73,"Velocity":59,"Duration":448329,"SoundDuration":448329,"Delta":123566107},{"NoteNumber":57,"Velocity":45,"Duration":112082,"SoundDuration":112082,"Delta":123566107},{"NoteNumber":69,"Velocity":40,"Duration":112082,"SoundDuration":112082,"Delta":123678190},{"NoteNumber":57,"Velocity":40,"Duration":112082,"SoundDuration":112082,"Delta":123790272},{"NoteNumber":69,"Velocity":40,"Duration":112082,"SoundDuration":112082,"Delta":123902355},{"NoteNumber":71,"Velocity":68,"Duration":324137,"SoundDuration":324137,"Delta":124014437},{"NoteNumber":50,"Velocity":45,"Duration":108045,"SoundDuration":108045,"Delta":124014437},{"NoteNumber":59,"Velocity":39,"Duration":108045,"SoundDuration":108045,"Delta":124122483},{"NoteNumber":54,"Velocity":39,"Duration":108045,"SoundDuration":108045,"Delta":124230529},{"NoteNumber":78,"Velocity":53,"Duration":119208,"SoundDuration":119208,"Delta":124338574},{"NoteNumber":59,"Velocity":39,"Duration":119208,"SoundDuration":119208,"Delta":124338574},{"NoteNumber":76,"Velocity":60,"Duration":107273,"SoundDuration":107273,"Delta":124457783},{"NoteNumber":50,"Velocity":45,"Duration":107273,"SoundDuration":107273,"Delta":124457783},{"NoteNumber":74,"Velocity":58,"Duration":107272,"SoundDuration":107272,"Delta":124565056},{"NoteNumber":59,"Velocity":39,"Duration":107272,"SoundDuration":107272,"Delta":124565056},{"NoteNumber":73,"Velocity":58,"Duration":112082,"SoundDuration":112082,"Delta":124672329},{"NoteNumber":54,"Velocity":39,"Duration":112082,"SoundDuration":112082,"Delta":124672329},{"NoteNumber":71,"Velocity":58,"Duration":112082,"SoundDuration":112082,"Delta":124784411},{"NoteNumber":59,"Velocity":39,"Duration":112082,"SoundDuration":112082,"Delta":124784411},{"NoteNumber":69,"Velocity":63,"Duration":426045,"SoundDuration":426045,"Delta":124896494},{"NoteNumber":52,"Velocity":39,"Duration":106511,"SoundDuration":106511,"Delta":124896494},{"NoteNumber":61,"Velocity":41,"Duration":106511,"SoundDuration":106511,"Delta":125003005},{"NoteNumber":57,"Velocity":41,"Duration":106511,"SoundDuration":106511,"Delta":125109517},{"NoteNumber":61,"Velocity":41,"Duration":106511,"SoundDuration":106511,"Delta":125216028},{"NoteNumber":71,"Velocity":55,"Duration":54164,"SoundDuration":54164,"Delta":125322540},{"NoteNumber":52,"Velocity":44,"Duration":110629,"SoundDuration":110629,"Delta":125322540},{"NoteNumber":73,"Velocity":49,"Duration":56464,"SoundDuration":56464,"Delta":125376705},{"NoteNumber":71,"Velocity":56,"Duration":55627,"SoundDuration":55627,"Delta":125433169},{"NoteNumber":62,"Velocity":39,"Duration":110441,"SoundDuration":110441,"Delta":125433169},{"NoteNumber":73,"Velocity":50,"Duration":54813,"SoundDuration":54813,"Delta":125488796},{"NoteNumber":71,"Velocity":56,"Duration":74055,"SoundDuration":74055,"Delta":125543610},{"NoteNumber":56,"Velocity":39,"Duration":112272,"SoundDuration":112272,"Delta":125543610},{"NoteNumber":69,"Velocity":48,"Duration":76434,"SoundDuration":76434,"Delta":125617666},{"NoteNumber":62,"Velocity":39,"Duration":114652,"SoundDuration":114652,"Delta":125655883},{"NoteNumber":71,"Velocity":48,"Duration":76435,"SoundDuration":76435,"Delta":125694101},{"NoteNumber":69,"Velocity":66,"Duration":107273,"SoundDuration":107273,"Delta":125770536},{"NoteNumber":57,"Velocity":45,"Duration":429091,"SoundDuration":429091,"Delta":125770536},{"NoteNumber":61,"Velocity":54,"Duration":429091,"SoundDuration":429091,"Delta":125770536},{"NoteNumber":64,"Velocity":59,"Duration":107272,"SoundDuration":107272,"Delta":125877809},{"NoteNumber":69,"Velocity":66,"Duration":107273,"SoundDuration":107273,"Delta":125985082},{"NoteNumber":73,"Velocity":58,"Duration":107272,"SoundDuration":107272,"Delta":126092355},{"NoteNumber":76,"Velocity":66,"Duration":107273,"SoundDuration":107273,"Delta":126199628},{"NoteNumber":73,"Velocity":60,"Duration":107272,"SoundDuration":107272,"Delta":126306901},{"NoteNumber":74,"Velocity":66,"Duration":112926,"SoundDuration":112926,"Delta":126414174},{"NoteNumber":56,"Velocity":46,"Duration":112926,"SoundDuration":112926,"Delta":126414174},{"NoteNumber":52,"Velocity":46,"Duration":112926,"SoundDuration":112926,"Delta":126414174},{"NoteNumber":59,"Velocity":55,"Duration":112926,"SoundDuration":112926,"Delta":126414174},{"NoteNumber":71,"Velocity":59,"Duration":112926,"SoundDuration":112926,"Delta":126527100},{"NoteNumber":69,"Velocity":66,"Duration":107273,"SoundDuration":107273,"Delta":126640026},{"NoteNumber":57,"Velocity":45,"Duration":429092,"SoundDuration":429092,"Delta":126640026},{"NoteNumber":61,"Velocity":54,"Duration":429092,"SoundDuration":429092,"Delta":126640026},{"NoteNumber":64,"Velocity":59,"Duration":107272,"SoundDuration":107272,"Delta":126747299},{"NoteNumber":69,"Velocity":66,"Duration":107273,"SoundDuration":107273,"Delta":126854572},{"NoteNumber":73,"Velocity":58,"Duration":107273,"SoundDuration":107273,"Delta":126961845},{"NoteNumber":76,"Velocity":66,"Duration":107272,"SoundDuration":107272,"Delta":127069118},{"NoteNumber":73,"Velocity":60,"Duration":112926,"SoundDuration":112926,"Delta":127176391},{"NoteNumber":74,"Velocity":66,"Duration":112926,"SoundDuration":112926,"Delta":127289318},{"NoteNumber":52,"Velocity":46,"Duration":112926,"SoundDuration":112926,"Delta":127289318},{"NoteNumber":59,"Velocity":55,"Duration":112926,"SoundDuration":112926,"Delta":127289318},{"NoteNumber":56,"Velocity":46,"Duration":112926,"SoundDuration":112926,"Delta":127289318},{"NoteNumber":71,"Velocity":59,"Duration":112926,"SoundDuration":112926,"Delta":127402244},{"NoteNumber":69,"Velocity":75,"Duration":238416,"SoundDuration":238416,"Delta":127515170},{"NoteNumber":57,"Velocity":52,"Duration":238416,"SoundDuration":238416,"Delta":127515170},{"NoteNumber":61,"Velocity":63,"Duration":238416,"SoundDuration":238416,"Delta":127515170},{"NoteNumber":71,"Velocity":64,"Duration":250354,"SoundDuration":250354,"Delta":127992004},{"NoteNumber":80,"Velocity":75,"Duration":250354,"SoundDuration":250354,"Delta":127992004},{"NoteNumber":74,"Velocity":64,"Duration":250354,"SoundDuration":250354,"Delta":127992004},{"NoteNumber":41,"Velocity":52,"Duration":250354,"SoundDuration":250354,"Delta":127992004},{"NoteNumber":53,"Velocity":63,"Duration":250354,"SoundDuration":250354,"Delta":127992004},{"NoteNumber":73,"Velocity":64,"Duration":250354,"SoundDuration":250354,"Delta":128492713},{"NoteNumber":69,"Velocity":64,"Duration":250354,"SoundDuration":250354,"Delta":128492713},{"NoteNumber":81,"Velocity":75,"Duration":250354,"SoundDuration":250354,"Delta":128492713},{"NoteNumber":42,"Velocity":52,"Duration":250354,"SoundDuration":250354,"Delta":128492713},{"NoteNumber":54,"Velocity":63,"Duration":250354,"SoundDuration":250354,"Delta":128492713},{"NoteNumber":66,"Velocity":39,"Duration":220864,"SoundDuration":220864,"Delta":129494131},{"NoteNumber":74,"Velocity":47,"Duration":220864,"SoundDuration":220864,"Delta":129494131},{"NoteNumber":50,"Velocity":40,"Duration":927493,"SoundDuration":927493,"Delta":129494131},{"NoteNumber":73,"Velocity":43,"Duration":118268,"SoundDuration":118268,"Delta":129714996},{"NoteNumber":64,"Velocity":36,"Duration":118268,"SoundDuration":118268,"Delta":129714996},{"NoteNumber":73,"Velocity":47,"Duration":225852,"SoundDuration":225852,"Delta":129951533},{"NoteNumber":64,"Velocity":39,"Duration":225852,"SoundDuration":225852,"Delta":129951533},{"NoteNumber":71,"Velocity":42,"Duration":122119,"SoundDuration":122119,"Delta":130177385},{"NoteNumber":62,"Velocity":35,"Duration":122119,"SoundDuration":122119,"Delta":130177385},{"NoteNumber":62,"Velocity":39,"Duration":231071,"SoundDuration":231071,"Delta":130421625},{"NoteNumber":71,"Velocity":47,"Duration":231071,"SoundDuration":231071,"Delta":130421625},{"NoteNumber":52,"Velocity":40,"Duration":1024532,"SoundDuration":1024532,"Delta":130421625},{"NoteNumber":61,"Velocity":34,"Duration":129500,"SoundDuration":129500,"Delta":130652697},{"NoteNumber":69,"Velocity":41,"Duration":129500,"SoundDuration":129500,"Delta":130652697},{"NoteNumber":61,"Velocity":39,"Duration":248282,"SoundDuration":248282,"Delta":130911697},{"NoteNumber":69,"Velocity":47,"Duration":248282,"SoundDuration":248282,"Delta":130911697},{"NoteNumber":59,"Velocity":34,"Duration":143088,"SoundDuration":143088,"Delta":131159980},{"NoteNumber":68,"Velocity":41,"Duration":143088,"SoundDuration":143088,"Delta":131159980},{"NoteNumber":59,"Velocity":37,"Duration":1172408,"SoundDuration":1172408,"Delta":131446157},{"NoteNumber":68,"Velocity":54,"Duration":1172408,"SoundDuration":1172408,"Delta":131446157},{"NoteNumber":62,"Velocity":45,"Duration":1172408,"SoundDuration":1172408,"Delta":131446157},{"NoteNumber":57,"Velocity":39,"Duration":546299,"SoundDuration":546299,"Delta":131446157},{"NoteNumber":52,"Velocity":39,"Duration":626109,"SoundDuration":626109,"Delta":131992456},{"NoteNumber":61,"Velocity":35,"Duration":572354,"SoundDuration":572354,"Delta":132618565},{"NoteNumber":69,"Velocity":42,"Duration":572354,"SoundDuration":572354,"Delta":132618565},{"NoteNumber":45,"Velocity":35,"Duration":572354,"SoundDuration":572354,"Delta":132618565},{"NoteNumber":81,"Velocity":47,"Duration":208579,"SoundDuration":208579,"Delta":133763275},{"NoteNumber":79,"Velocity":43,"Duration":109624,"SoundDuration":109624,"Delta":133971855},{"NoteNumber":79,"Velocity":47,"Duration":208579,"SoundDuration":208579,"Delta":134191105},{"NoteNumber":78,"Velocity":42,"Duration":109624,"SoundDuration":109624,"Delta":134399684},{"NoteNumber":78,"Velocity":51,"Duration":208579,"SoundDuration":208579,"Delta":134618934},{"NoteNumber":76,"Velocity":45,"Duration":109624,"SoundDuration":109624,"Delta":134827514},{"NoteNumber":76,"Velocity":55,"Duration":210039,"SoundDuration":210039,"Delta":135046764},{"NoteNumber":75,"Velocity":50,"Duration":113783,"SoundDuration":113783,"Delta":135256804},{"NoteNumber":72,"Velocity":62,"Duration":202935,"SoundDuration":202935,"Delta":135484370},{"NoteNumber":75,"Velocity":62,"Duration":1706494,"SoundDuration":1706494,"Delta":135484370},{"NoteNumber":47,"Velocity":44,"Duration":1706494,"SoundDuration":1706494,"Delta":135484370},{"NoteNumber":59,"Velocity":44,"Duration":1706494,"SoundDuration":1706494,"Delta":135484370},{"NoteNumber":71,"Velocity":55,"Duration":109624,"SoundDuration":109624,"Delta":135687306},{"NoteNumber":71,"Velocity":61,"Duration":204318,"SoundDuration":204318,"Delta":135906556},{"NoteNumber":69,"Velocity":53,"Duration":110432,"SoundDuration":110432,"Delta":136110874},{"NoteNumber":69,"Velocity":58,"Duration":205718,"SoundDuration":205718,"Delta":136331738},{"NoteNumber":67,"Velocity":49,"Duration":111251,"SoundDuration":111251,"Delta":136537457},{"NoteNumber":67,"Velocity":58,"Duration":210039,"SoundDuration":210039,"Delta":136759960},{"NoteNumber":66,"Velocity":44,"Duration":110432,"SoundDuration":110432,"Delta":136970000},{"NoteNumber":75,"Velocity":47,"Duration":217659,"SoundDuration":217659,"Delta":137190864},{"NoteNumber":76,"Velocity":43,"Duration":101468,"SoundDuration":101468,"Delta":137408524},{"NoteNumber":71,"Velocity":43,"Duration":216091,"SoundDuration":216091,"Delta":137611460},{"NoteNumber":67,"Velocity":36,"Duration":216091,"SoundDuration":216091,"Delta":137611460},{"NoteNumber":79,"Velocity":43,"Duration":214546,"SoundDuration":214546,"Delta":137827551},{"NoteNumber":77,"Velocity":47,"Duration":220864,"SoundDuration":220864,"Delta":138042097},{"NoteNumber":78,"Velocity":43,"Duration":104289,"SoundDuration":104289,"Delta":138262962},{"NoteNumber":63,"Velocity":36,"Duration":214546,"SoundDuration":214546,"Delta":138471541},{"NoteNumber":71,"Velocity":43,"Duration":214546,"SoundDuration":214546,"Delta":138471541},{"NoteNumber":81,"Velocity":43,"Duration":214545,"SoundDuration":214545,"Delta":138686087},{"NoteNumber":78,"Velocity":57,"Duration":855303,"SoundDuration":855303,"Delta":138900633},{"NoteNumber":75,"Velocity":57,"Duration":855303,"SoundDuration":855303,"Delta":138900633},{"NoteNumber":47,"Velocity":69,"Duration":204318,"SoundDuration":204318,"Delta":138900633},{"NoteNumber":45,"Velocity":62,"Duration":112082,"SoundDuration":112082,"Delta":139104951},{"NoteNumber":45,"Velocity":67,"Duration":204318,"SoundDuration":204318,"Delta":139329116},{"NoteNumber":43,"Velocity":59,"Duration":111251,"SoundDuration":111251,"Delta":139533434},{"NoteNumber":76,"Velocity":51,"Duration":430904,"SoundDuration":430904,"Delta":139755937},{"NoteNumber":79,"Velocity":51,"Duration":430904,"SoundDuration":430904,"Delta":139755937},{"NoteNumber":43,"Velocity":61,"Duration":210039,"SoundDuration":210039,"Delta":139755937},{"NoteNumber":42,"Velocity":52,"Duration":110432,"SoundDuration":110432,"Delta":139965977},{"NoteNumber":42,"Velocity":51,"Duration":208579,"SoundDuration":208579,"Delta":140186841},{"NoteNumber":40,"Velocity":45,"Duration":112082,"SoundDuration":112082,"Delta":140395421},{"NoteNumber":79,"Velocity":47,"Duration":201572,"SoundDuration":201572,"Delta":140619586},{"NoteNumber":78,"Velocity":43,"Duration":108829,"SoundDuration":108829,"Delta":140821158},{"NoteNumber":78,"Velocity":47,"Duration":204318,"SoundDuration":204318,"Delta":141038818},{"NoteNumber":76,"Velocity":42,"Duration":108829,"SoundDuration":108829,"Delta":141243136},{"NoteNumber":76,"Velocity":51,"Duration":204318,"SoundDuration":204318,"Delta":141460795},{"NoteNumber":74,"Velocity":45,"Duration":109624,"SoundDuration":109624,"Delta":141665113},{"NoteNumber":74,"Velocity":55,"Duration":208579,"SoundDuration":208579,"Delta":141884363},{"NoteNumber":73,"Velocity":50,"Duration":112926,"SoundDuration":112926,"Delta":142092943},{"NoteNumber":73,"Velocity":62,"Duration":1717060,"SoundDuration":1717060,"Delta":142318795},{"NoteNumber":70,"Velocity":68,"Duration":207139,"SoundDuration":207139,"Delta":142318795},{"NoteNumber":45,"Velocity":44,"Duration":1717060,"SoundDuration":1717060,"Delta":142318795},{"NoteNumber":57,"Velocity":44,"Duration":1717060,"SoundDuration":1717060,"Delta":142318795},{"NoteNumber":69,"Velocity":60,"Duration":110432,"SoundDuration":110432,"Delta":142525935},{"NoteNumber":69,"Velocity":67,"Duration":208579,"SoundDuration":208579,"Delta":142745992},{"NoteNumber":67,"Velocity":58,"Duration":109624,"SoundDuration":109624,"Delta":142954571},{"NoteNumber":67,"Velocity":63,"Duration":208579,"SoundDuration":208579,"Delta":143173821},{"NoteNumber":66,"Velocity":53,"Duration":109624,"SoundDuration":109624,"Delta":143382401},{"NoteNumber":66,"Velocity":63,"Duration":210039,"SoundDuration":210039,"Delta":143601651},{"NoteNumber":64,"Velocity":48,"Duration":112082,"SoundDuration":112082,"Delta":143811691},{"NoteNumber":73,"Velocity":47,"Duration":217659,"SoundDuration":217659,"Delta":144035856},{"NoteNumber":74,"Velocity":43,"Duration":101468,"SoundDuration":101468,"Delta":144253515},{"NoteNumber":66,"Velocity":36,"Duration":216091,"SoundDuration":216091,"Delta":144456451},{"NoteNumber":69,"Velocity":43,"Duration":216091,"SoundDuration":216091,"Delta":144456451},{"NoteNumber":78,"Velocity":43,"Duration":214546,"SoundDuration":214546,"Delta":144672543},{"NoteNumber":75,"Velocity":47,"Duration":220864,"SoundDuration":220864,"Delta":144887089},{"NoteNumber":76,"Velocity":43,"Duration":102159,"SoundDuration":102159,"Delta":145107953},{"NoteNumber":69,"Velocity":43,"Duration":214546,"SoundDuration":214546,"Delta":145312271},{"NoteNumber":61,"Velocity":36,"Duration":214546,"SoundDuration":214546,"Delta":145312271},{"NoteNumber":79,"Velocity":43,"Duration":214545,"SoundDuration":214545,"Delta":145526817},{"NoteNumber":76,"Velocity":57,"Duration":847154,"SoundDuration":847154,"Delta":145741363},{"NoteNumber":73,"Velocity":57,"Duration":847154,"SoundDuration":847154,"Delta":145741363},{"NoteNumber":45,"Velocity":69,"Duration":202935,"SoundDuration":202935,"Delta":145741363},{"NoteNumber":43,"Velocity":62,"Duration":109624,"SoundDuration":109624,"Delta":145944299},{"NoteNumber":43,"Velocity":67,"Duration":205718,"SoundDuration":205718,"Delta":146163549},{"NoteNumber":42,"Velocity":59,"Duration":109624,"SoundDuration":109624,"Delta":146369268},{"NoteNumber":74,"Velocity":51,"Duration":426389,"SoundDuration":426389,"Delta":146588518},{"NoteNumber":78,"Velocity":51,"Duration":426389,"SoundDuration":426389,"Delta":146588518},{"NoteNumber":42,"Velocity":61,"Duration":207139,"SoundDuration":207139,"Delta":146588518},{"NoteNumber":40,"Velocity":52,"Duration":109624,"SoundDuration":109624,"Delta":146795658},{"NoteNumber":40,"Velocity":51,"Duration":210039,"SoundDuration":210039,"Delta":147014908},{"NoteNumber":38,"Velocity":45,"Duration":113783,"SoundDuration":113783,"Delta":147224948},{"NoteNumber":78,"Velocity":47,"Duration":105019,"SoundDuration":105019,"Delta":147452514},{"NoteNumber":62,"Velocity":47,"Duration":210039,"SoundDuration":210039,"Delta":147452514},{"NoteNumber":86,"Velocity":44,"Duration":105019,"SoundDuration":105019,"Delta":147557534},{"NoteNumber":78,"Velocity":48,"Duration":109624,"SoundDuration":109624,"Delta":147662554},{"NoteNumber":61,"Velocity":42,"Duration":109624,"SoundDuration":109624,"Delta":147662554},{"NoteNumber":86,"Velocity":44,"Duration":109624,"SoundDuration":109624,"Delta":147772179},{"NoteNumber":78,"Velocity":51,"Duration":105019,"SoundDuration":105019,"Delta":147881804},{"NoteNumber":61,"Velocity":53,"Duration":210039,"SoundDuration":210039,"Delta":147881804},{"NoteNumber":86,"Velocity":47,"Duration":105019,"SoundDuration":105019,"Delta":147986824},{"NoteNumber":78,"Velocity":52,"Duration":109624,"SoundDuration":109624,"Delta":148091844},{"NoteNumber":59,"Velocity":46,"Duration":109624,"SoundDuration":109624,"Delta":148091844},{"NoteNumber":86,"Velocity":47,"Duration":109624,"SoundDuration":109624,"Delta":148201469},{"NoteNumber":78,"Velocity":55,"Duration":105019,"SoundDuration":105019,"Delta":148311094},{"NoteNumber":59,"Velocity":58,"Duration":210039,"SoundDuration":210039,"Delta":148311094},{"NoteNumber":86,"Velocity":50,"Duration":105019,"SoundDuration":105019,"Delta":148416114},{"NoteNumber":78,"Velocity":57,"Duration":110432,"SoundDuration":110432,"Delta":148521134},{"NoteNumber":57,"Velocity":50,"Duration":110432,"SoundDuration":110432,"Delta":148521134},{"NoteNumber":86,"Velocity":51,"Duration":110432,"SoundDuration":110432,"Delta":148631566},{"NoteNumber":78,"Velocity":58,"Duration":106511,"SoundDuration":106511,"Delta":148741998},{"NoteNumber":57,"Velocity":60,"Duration":213022,"SoundDuration":213022,"Delta":148741998},{"NoteNumber":86,"Velocity":55,"Duration":106511,"SoundDuration":106511,"Delta":148848510},{"NoteNumber":78,"Velocity":60,"Duration":113783,"SoundDuration":113783,"Delta":148955021},{"NoteNumber":56,"Velocity":52,"Duration":113783,"SoundDuration":113783,"Delta":148955021},{"NoteNumber":86,"Velocity":55,"Duration":113428,"SoundDuration":113428,"Delta":149068804},{"NoteNumber":76,"Velocity":64,"Duration":112082,"SoundDuration":112082,"Delta":149182233},{"NoteNumber":56,"Velocity":66,"Duration":882682,"SoundDuration":882682,"Delta":149182233},{"NoteNumber":44,"Velocity":56,"Duration":882682,"SoundDuration":882682,"Delta":149182233},{"NoteNumber":86,"Velocity":57,"Duration":112082,"SoundDuration":112082,"Delta":149294316},{"NoteNumber":76,"Velocity":63,"Duration":111493,"SoundDuration":111493,"Delta":149406398},{"NoteNumber":86,"Velocity":57,"Duration":111251,"SoundDuration":111251,"Delta":149517892},{"NoteNumber":76,"Velocity":63,"Duration":110502,"SoundDuration":110502,"Delta":149629143},{"NoteNumber":86,"Velocity":57,"Duration":108898,"SoundDuration":108898,"Delta":149739646},{"NoteNumber":76,"Velocity":63,"Duration":107149,"SoundDuration":107149,"Delta":149848544},{"NoteNumber":86,"Velocity":57,"Duration":109221,"SoundDuration":109221,"Delta":149955694},{"NoteNumber":76,"Velocity":63,"Duration":108829,"SoundDuration":108829,"Delta":150064915},{"NoteNumber":58,"Velocity":61,"Duration":870638,"SoundDuration":870638,"Delta":150064915},{"NoteNumber":46,"Velocity":51,"Duration":870638,"SoundDuration":870638,"Delta":150064915},{"NoteNumber":85,"Velocity":57,"Duration":108829,"SoundDuration":108829,"Delta":150173745},{"NoteNumber":76,"Velocity":62,"Duration":108829,"SoundDuration":108829,"Delta":150282575},{"NoteNumber":85,"Velocity":57,"Duration":108829,"SoundDuration":108829,"Delta":150391404},{"NoteNumber":76,"Velocity":60,"Duration":108829,"SoundDuration":108829,"Delta":150500234},{"NoteNumber":85,"Velocity":55,"Duration":108829,"SoundDuration":108829,"Delta":150609064},{"NoteNumber":76,"Velocity":59,"Duration":108829,"SoundDuration":108829,"Delta":150717894},{"NoteNumber":85,"Velocity":52,"Duration":108829,"SoundDuration":108829,"Delta":150826723},{"NoteNumber":74,"Velocity":47,"Duration":104289,"SoundDuration":104289,"Delta":150935553},{"NoteNumber":59,"Velocity":47,"Duration":208579,"SoundDuration":208579,"Delta":150935553},{"NoteNumber":85,"Velocity":44,"Duration":104289,"SoundDuration":104289,"Delta":151039843},{"NoteNumber":74,"Velocity":48,"Duration":110432,"SoundDuration":110432,"Delta":151144133},{"NoteNumber":57,"Velocity":42,"Duration":110432,"SoundDuration":110432,"Delta":151144133},{"NoteNumber":85,"Velocity":44,"Duration":110432,"SoundDuration":110432,"Delta":151254565},{"NoteNumber":74,"Velocity":51,"Duration":105019,"SoundDuration":105019,"Delta":151364997},{"NoteNumber":57,"Velocity":53,"Duration":210039,"SoundDuration":210039,"Delta":151364997},{"NoteNumber":85,"Velocity":47,"Duration":105019,"SoundDuration":105019,"Delta":151470017},{"NoteNumber":74,"Velocity":52,"Duration":109624,"SoundDuration":109624,"Delta":151575037},{"NoteNumber":55,"Velocity":46,"Duration":109624,"SoundDuration":109624,"Delta":151575037},{"NoteNumber":85,"Velocity":47,"Duration":109624,"SoundDuration":109624,"Delta":151684662},{"NoteNumber":74,"Velocity":55,"Duration":105019,"SoundDuration":105019,"Delta":151794287},{"NoteNumber":55,"Velocity":58,"Duration":210039,"SoundDuration":210039,"Delta":151794287},{"NoteNumber":83,"Velocity":50,"Duration":105019,"SoundDuration":105019,"Delta":151899307},{"NoteNumber":74,"Velocity":57,"Duration":110432,"SoundDuration":110432,"Delta":152004327},{"NoteNumber":54,"Velocity":50,"Duration":110432,"SoundDuration":110432,"Delta":152004327},{"NoteNumber":83,"Velocity":51,"Duration":110432,"SoundDuration":110432,"Delta":152114759},{"NoteNumber":74,"Velocity":58,"Duration":106511,"SoundDuration":106511,"Delta":152225192},{"NoteNumber":54,"Velocity":60,"Duration":213022,"SoundDuration":213022,"Delta":152225192},{"NoteNumber":83,"Velocity":55,"Duration":106511,"SoundDuration":106511,"Delta":152331703},{"NoteNumber":74,"Velocity":60,"Duration":113783,"SoundDuration":113783,"Delta":152438215},{"NoteNumber":53,"Velocity":52,"Duration":113783,"SoundDuration":113783,"Delta":152438215},{"NoteNumber":83,"Velocity":55,"Duration":113782,"SoundDuration":113782,"Delta":152551998},{"NoteNumber":73,"Velocity":64,"Duration":109591,"SoundDuration":109591,"Delta":152665781},{"NoteNumber":41,"Velocity":56,"Duration":870710,"SoundDuration":870710,"Delta":152665781},{"NoteNumber":53,"Velocity":66,"Duration":870710,"SoundDuration":870710,"Delta":152665781},{"NoteNumber":83,"Velocity":57,"Duration":109260,"SoundDuration":109260,"Delta":152775373},{"NoteNumber":73,"Velocity":63,"Duration":108829,"SoundDuration":108829,"Delta":152884633},{"NoteNumber":83,"Velocity":57,"Duration":108078,"SoundDuration":108078,"Delta":152993463},{"NoteNumber":73,"Velocity":63,"Duration":107691,"SoundDuration":107691,"Delta":153101541},{"NoteNumber":83,"Velocity":57,"Duration":107503,"SoundDuration":107503,"Delta":153209233},{"NoteNumber":73,"Velocity":63,"Duration":109624,"SoundDuration":109624,"Delta":153316736},{"NoteNumber":83,"Velocity":57,"Duration":110129,"SoundDuration":110129,"Delta":153426361},{"NoteNumber":72,"Velocity":63,"Duration":108829,"SoundDuration":108829,"Delta":153536491},{"NoteNumber":42,"Velocity":51,"Duration":870638,"SoundDuration":870638,"Delta":153536491},{"NoteNumber":54,"Velocity":61,"Duration":870638,"SoundDuration":870638,"Delta":153536491},{"NoteNumber":81,"Velocity":57,"Duration":108829,"SoundDuration":108829,"Delta":153645321},{"NoteNumber":72,"Velocity":62,"Duration":108829,"SoundDuration":108829,"Delta":153754150},{"NoteNumber":81,"Velocity":57,"Duration":108829,"SoundDuration":108829,"Delta":153862980},{"NoteNumber":72,"Velocity":60,"Duration":108829,"SoundDuration":108829,"Delta":153971810},{"NoteNumber":81,"Velocity":55,"Duration":108829,"SoundDuration":108829,"Delta":154080640},{"NoteNumber":72,"Velocity":59,"Duration":108829,"SoundDuration":108829,"Delta":154189469},{"NoteNumber":81,"Velocity":52,"Duration":108829,"SoundDuration":108829,"Delta":154298299},{"NoteNumber":81,"Velocity":51,"Duration":210039,"SoundDuration":210039,"Delta":154407129},{"NoteNumber":71,"Velocity":41,"Duration":429289,"SoundDuration":429289,"Delta":154407129},{"NoteNumber":55,"Velocity":41,"Duration":105019,"SoundDuration":105019,"Delta":154407129},{"NoteNumber":62,"Velocity":36,"Duration":105019,"SoundDuration":105019,"Delta":154512149},{"NoteNumber":79,"Velocity":47,"Duration":164437,"SoundDuration":164437,"Delta":154617169},{"NoteNumber":59,"Velocity":41,"Duration":109624,"SoundDuration":109624,"Delta":154617169},{"NoteNumber":62,"Velocity":35,"Duration":109624,"SoundDuration":109624,"Delta":154726794},{"NoteNumber":79,"Velocity":51,"Duration":210039,"SoundDuration":210039,"Delta":154836419},{"NoteNumber":55,"Velocity":41,"Duration":105019,"SoundDuration":105019,"Delta":154836419},{"NoteNumber":62,"Velocity":36,"Duration":105019,"SoundDuration":105019,"Delta":154941439},{"NoteNumber":78,"Velocity":46,"Duration":174648,"SoundDuration":174648,"Delta":155046459},{"NoteNumber":59,"Velocity":41,"Duration":116432,"SoundDuration":116432,"Delta":155046459},{"NoteNumber":62,"Velocity":35,"Duration":116432,"SoundDuration":116432,"Delta":155162891},{"NoteNumber":86,"Velocity":51,"Duration":208579,"SoundDuration":208579,"Delta":155279324},{"NoteNumber":77,"Velocity":40,"Duration":431082,"SoundDuration":431082,"Delta":155279324},{"NoteNumber":55,"Velocity":41,"Duration":104289,"SoundDuration":104289,"Delta":155279324},{"NoteNumber":62,"Velocity":36,"Duration":104289,"SoundDuration":104289,"Delta":155383614},{"NoteNumber":85,"Velocity":47,"Duration":166876,"SoundDuration":166876,"Delta":155487903},{"NoteNumber":59,"Velocity":41,"Duration":111251,"SoundDuration":111251,"Delta":155487903},{"NoteNumber":62,"Velocity":35,"Duration":111251,"SoundDuration":111251,"Delta":155599155},{"NoteNumber":85,"Velocity":51,"Duration":210039,"SoundDuration":210039,"Delta":155710406},{"NoteNumber":55,"Velocity":41,"Duration":105019,"SoundDuration":105019,"Delta":155710406},{"NoteNumber":62,"Velocity":36,"Duration":105019,"SoundDuration":105019,"Delta":155815426},{"NoteNumber":83,"Velocity":46,"Duration":168123,"SoundDuration":168123,"Delta":155920446},{"NoteNumber":59,"Velocity":41,"Duration":112082,"SoundDuration":112082,"Delta":155920446},{"NoteNumber":62,"Velocity":35,"Duration":112082,"SoundDuration":112082,"Delta":156032528},{"NoteNumber":79,"Velocity":59,"Duration":210039,"SoundDuration":210039,"Delta":156144611},{"NoteNumber":82,"Velocity":59,"Duration":865109,"SoundDuration":865109,"Delta":156144611},{"NoteNumber":54,"Velocity":45,"Duration":105019,"SoundDuration":105019,"Delta":156144611},{"NoteNumber":61,"Velocity":39,"Duration":105019,"SoundDuration":105019,"Delta":156249631},{"NoteNumber":78,"Velocity":52,"Duration":165648,"SoundDuration":165648,"Delta":156354651},{"NoteNumber":58,"Velocity":45,"Duration":110432,"SoundDuration":110432,"Delta":156354651},{"NoteNumber":61,"Velocity":38,"Duration":110432,"SoundDuration":110432,"Delta":156465083},{"NoteNumber":78,"Velocity":59,"Duration":210039,"SoundDuration":210039,"Delta":156575515},{"NoteNumber":54,"Velocity":45,"Duration":105019,"SoundDuration":105019,"Delta":156575515},{"NoteNumber":61,"Velocity":39,"Duration":105019,"SoundDuration":105019,"Delta":156680535},{"NoteNumber":76,"Velocity":51,"Duration":168123,"SoundDuration":168123,"Delta":156785555},{"NoteNumber":58,"Velocity":45,"Duration":112082,"SoundDuration":112082,"Delta":156785555},{"NoteNumber":61,"Velocity":38,"Duration":112082,"SoundDuration":112082,"Delta":156897638},{"NoteNumber":74,"Velocity":61,"Duration":210039,"SoundDuration":210039,"Delta":157009720},{"NoteNumber":83,"Velocity":61,"Duration":865084,"SoundDuration":865084,"Delta":157009720},{"NoteNumber":53,"Velocity":45,"Duration":105019,"SoundDuration":105019,"Delta":157009720},{"NoteNumber":62,"Velocity":39,"Duration":105019,"SoundDuration":105019,"Delta":157114740},{"NoteNumber":73,"Velocity":51,"Duration":166876,"SoundDuration":166876,"Delta":157219760},{"NoteNumber":56,"Velocity":45,"Duration":111251,"SoundDuration":111251,"Delta":157219760},{"NoteNumber":62,"Velocity":38,"Duration":111251,"SoundDuration":111251,"Delta":157331012},{"NoteNumber":73,"Velocity":61,"Duration":210039,"SoundDuration":210039,"Delta":157442263},{"NoteNumber":53,"Velocity":45,"Duration":105019,"SoundDuration":105019,"Delta":157442263},{"NoteNumber":62,"Velocity":39,"Duration":105019,"SoundDuration":105019,"Delta":157547283},{"NoteNumber":71,"Velocity":55,"Duration":166876,"SoundDuration":166876,"Delta":157652303},{"NoteNumber":56,"Velocity":45,"Duration":111251,"SoundDuration":111251,"Delta":157652303},{"NoteNumber":62,"Velocity":38,"Duration":111251,"SoundDuration":111251,"Delta":157763554},{"NoteNumber":67,"Velocity":39,"Duration":216091,"SoundDuration":216091,"Delta":157874805},{"NoteNumber":76,"Velocity":47,"Duration":216091,"SoundDuration":216091,"Delta":157874805},{"NoteNumber":54,"Velocity":40,"Duration":888882,"SoundDuration":888882,"Delta":157874805},{"NoteNumber":74,"Velocity":43,"Duration":113783,"SoundDuration":113783,"Delta":158090897},{"NoteNumber":66,"Velocity":36,"Duration":113783,"SoundDuration":113783,"Delta":158090897},{"NoteNumber":66,"Velocity":39,"Duration":217659,"SoundDuration":217659,"Delta":158318463},{"NoteNumber":74,"Velocity":47,"Duration":217659,"SoundDuration":217659,"Delta":158318463},{"NoteNumber":73,"Velocity":42,"Duration":113783,"SoundDuration":113783,"Delta":158536122},{"NoteNumber":64,"Velocity":35,"Duration":113783,"SoundDuration":113783,"Delta":158536122},{"NoteNumber":73,"Velocity":47,"Duration":219249,"SoundDuration":219249,"Delta":158763688},{"NoteNumber":64,"Velocity":39,"Duration":219249,"SoundDuration":219249,"Delta":158763688},{"NoteNumber":42,"Velocity":40,"Duration":920278,"SoundDuration":920278,"Delta":158763688},{"NoteNumber":71,"Velocity":41,"Duration":120163,"SoundDuration":120163,"Delta":158982938},{"NoteNumber":62,"Velocity":34,"Duration":120163,"SoundDuration":120163,"Delta":158982938},{"NoteNumber":71,"Velocity":47,"Duration":224164,"SoundDuration":224164,"Delta":159223265},{"NoteNumber":62,"Velocity":39,"Duration":224164,"SoundDuration":224164,"Delta":159223265},{"NoteNumber":61,"Velocity":34,"Duration":118268,"SoundDuration":118268,"Delta":159447430},{"NoteNumber":70,"Velocity":41,"Duration":118268,"SoundDuration":118268,"Delta":159447430},{"NoteNumber":64,"Velocity":45,"Duration":1047008,"SoundDuration":1047008,"Delta":159683967},{"NoteNumber":70,"Velocity":54,"Duration":1047008,"SoundDuration":1047008,"Delta":159683967},{"NoteNumber":61,"Velocity":37,"Duration":1047008,"SoundDuration":1047008,"Delta":159683967},{"NoteNumber":47,"Velocity":39,"Duration":500709,"SoundDuration":500709,"Delta":159683967},{"NoteNumber":42,"Velocity":39,"Duration":546299,"SoundDuration":546299,"Delta":160184676},{"NoteNumber":62,"Velocity":35,"Duration":500709,"SoundDuration":500709,"Delta":160730975},{"NoteNumber":71,"Velocity":42,"Duration":500709,"SoundDuration":500709,"Delta":160730975},{"NoteNumber":35,"Velocity":35,"Duration":500709,"SoundDuration":500709,"Delta":160730975},{"NoteNumber":71,"Velocity":68,"Duration":1001418,"SoundDuration":1001418,"Delta":161732393},{"NoteNumber":66,"Velocity":57,"Duration":1001418,"SoundDuration":1001418,"Delta":161732393},{"NoteNumber":62,"Velocity":57,"Duration":1001418,"SoundDuration":1001418,"Delta":161732393},{"NoteNumber":47,"Velocity":54,"Duration":1001418,"SoundDuration":1001418,"Delta":161732393},{"NoteNumber":59,"Velocity":65,"Duration":1001418,"SoundDuration":1001418,"Delta":161732393},{"NoteNumber":62,"Velocity":51,"Duration":500709,"SoundDuration":500709,"Delta":162733811},{"NoteNumber":66,"Velocity":51,"Duration":500709,"SoundDuration":500709,"Delta":162733811},{"NoteNumber":72,"Velocity":61,"Duration":500709,"SoundDuration":500709,"Delta":162733811},{"NoteNumber":45,"Velocity":49,"Duration":500709,"SoundDuration":500709,"Delta":162733811},{"NoteNumber":57,"Velocity":58,"Duration":500709,"SoundDuration":500709,"Delta":162733811},{"NoteNumber":71,"Velocity":39,"Duration":1019327,"SoundDuration":1019327,"Delta":163735229},{"NoteNumber":74,"Velocity":46,"Duration":751063,"SoundDuration":751063,"Delta":163735229},{"NoteNumber":55,"Velocity":38,"Duration":1019327,"SoundDuration":1019327,"Delta":163735229},{"NoteNumber":43,"Velocity":32,"Duration":1019327,"SoundDuration":1019327,"Delta":163735229},{"NoteNumber":75,"Velocity":40,"Duration":268264,"SoundDuration":268264,"Delta":164486293},{"NoteNumber":72,"Velocity":39,"Duration":536529,"SoundDuration":536529,"Delta":164754557},{"NoteNumber":76,"Velocity":46,"Duration":536529,"SoundDuration":536529,"Delta":164754557},{"NoteNumber":54,"Velocity":38,"Duration":536529,"SoundDuration":536529,"Delta":164754557},{"NoteNumber":42,"Velocity":32,"Duration":536529,"SoundDuration":536529,"Delta":164754557},{"NoteNumber":74,"Velocity":60,"Duration":423042,"SoundDuration":423042,"Delta":166364144},{"NoteNumber":59,"Velocity":42,"Duration":105760,"SoundDuration":105760,"Delta":166364144},{"NoteNumber":67,"Velocity":34,"Duration":105760,"SoundDuration":105760,"Delta":166469905},{"NoteNumber":59,"Velocity":34,"Duration":105760,"SoundDuration":105760,"Delta":166575665},{"NoteNumber":67,"Velocity":34,"Duration":105760,"SoundDuration":105760,"Delta":166681426},{"NoteNumber":72,"Velocity":56,"Duration":429091,"SoundDuration":429091,"Delta":166787186},{"NoteNumber":57,"Velocity":42,"Duration":107272,"SoundDuration":107272,"Delta":166787186},{"NoteNumber":67,"Velocity":36,"Duration":107273,"SoundDuration":107273,"Delta":166894459},{"NoteNumber":57,"Velocity":36,"Duration":107272,"SoundDuration":107272,"Delta":167001732},{"NoteNumber":67,"Velocity":36,"Duration":107272,"SoundDuration":107272,"Delta":167109005},{"NoteNumber":71,"Velocity":55,"Duration":448329,"SoundDuration":448329,"Delta":167216278},{"NoteNumber":55,"Velocity":42,"Duration":112082,"SoundDuration":112082,"Delta":167216278},{"NoteNumber":67,"Velocity":37,"Duration":112082,"SoundDuration":112082,"Delta":167328361},{"NoteNumber":55,"Velocity":37,"Duration":112082,"SoundDuration":112082,"Delta":167440443},{"NoteNumber":67,"Velocity":37,"Duration":112082,"SoundDuration":112082,"Delta":167552526},{"NoteNumber":76,"Velocity":60,"Duration":324137,"SoundDuration":324137,"Delta":167664608},{"NoteNumber":60,"Velocity":42,"Duration":108045,"SoundDuration":108045,"Delta":167664608},{"NoteNumber":67,"Velocity":36,"Duration":108045,"SoundDuration":108045,"Delta":167772654},{"NoteNumber":66,"Velocity":36,"Duration":108045,"SoundDuration":108045,"Delta":167880700},{"NoteNumber":78,"Velocity":54,"Duration":39736,"SoundDuration":39736,"Delta":167988746},{"NoteNumber":67,"Velocity":36,"Duration":119208,"SoundDuration":119208,"Delta":167988746},{"NoteNumber":76,"Velocity":54,"Duration":39736,"SoundDuration":39736,"Delta":168028482},{"NoteNumber":74,"Velocity":54,"Duration":39636,"SoundDuration":39636,"Delta":168069211},{"NoteNumber":76,"Velocity":60,"Duration":107272,"SoundDuration":107272,"Delta":168107954},{"NoteNumber":60,"Velocity":42,"Duration":107272,"SoundDuration":107272,"Delta":168107954},{"NoteNumber":67,"Velocity":36,"Duration":107273,"SoundDuration":107273,"Delta":168215227},{"NoteNumber":78,"Velocity":56,"Duration":112082,"SoundDuration":112082,"Delta":168322500},{"NoteNumber":66,"Velocity":36,"Duration":112082,"SoundDuration":112082,"Delta":168322500},{"NoteNumber":67,"Velocity":36,"Duration":112082,"SoundDuration":112082,"Delta":168434583},{"NoteNumber":81,"Velocity":60,"Duration":213022,"SoundDuration":213022,"Delta":168546665},{"NoteNumber":60,"Velocity":36,"Duration":106511,"SoundDuration":106511,"Delta":168546665},{"NoteNumber":67,"Velocity":38,"Duration":106511,"SoundDuration":106511,"Delta":168653177},{"NoteNumber":79,"Velocity":54,"Duration":106511,"SoundDuration":106511,"Delta":168759688},{"NoteNumber":66,"Velocity":38,"Duration":106511,"SoundDuration":106511,"Delta":168759688},{"NoteNumber":67,"Velocity":38,"Duration":106511,"SoundDuration":106511,"Delta":168866200},{"NoteNumber":78,"Velocity":56,"Duration":213022,"SoundDuration":213022,"Delta":168972711},{"NoteNumber":60,"Velocity":40,"Duration":106511,"SoundDuration":106511,"Delta":168972711},{"NoteNumber":67,"Velocity":36,"Duration":106511,"SoundDuration":106511,"Delta":169079223},{"NoteNumber":76,"Velocity":54,"Duration":115535,"SoundDuration":115535,"Delta":169185734},{"NoteNumber":66,"Velocity":36,"Duration":115535,"SoundDuration":115535,"Delta":169185734},{"NoteNumber":67,"Velocity":36,"Duration":115535,"SoundDuration":115535,"Delta":169301270},{"NoteNumber":74,"Velocity":60,"Duration":227565,"SoundDuration":227565,"Delta":169416806},{"NoteNumber":59,"Velocity":44,"Duration":113783,"SoundDuration":113783,"Delta":169416806},{"NoteNumber":67,"Velocity":44,"Duration":113782,"SoundDuration":113782,"Delta":169530589},{"NoteNumber":66,"Velocity":33,"Duration":113783,"SoundDuration":113783,"Delta":169644372},{"NoteNumber":67,"Velocity":33,"Duration":113782,"SoundDuration":113782,"Delta":169758155},{"NoteNumber":74,"Velocity":49,"Duration":423042,"SoundDuration":423042,"Delta":169871938},{"NoteNumber":59,"Velocity":37,"Duration":105760,"SoundDuration":105760,"Delta":169871938},{"NoteNumber":67,"Velocity":30,"Duration":105760,"SoundDuration":105760,"Delta":169977698},{"NoteNumber":59,"Velocity":30,"Duration":105760,"SoundDuration":105760,"Delta":170083459},{"NoteNumber":67,"Velocity":30,"Duration":105760,"SoundDuration":105760,"Delta":170189219},{"NoteNumber":72,"Velocity":49,"Duration":429091,"SoundDuration":429091,"Delta":170294980},{"NoteNumber":57,"Velocity":37,"Duration":107272,"SoundDuration":107272,"Delta":170294980},{"NoteNumber":67,"Velocity":32,"Duration":107273,"SoundDuration":107273,"Delta":170402253},{"NoteNumber":57,"Velocity":32,"Duration":107272,"SoundDuration":107272,"Delta":170509526},{"NoteNumber":67,"Velocity":32,"Duration":107272,"SoundDuration":107272,"Delta":170616799},{"NoteNumber":71,"Velocity":48,"Duration":448329,"SoundDuration":448329,"Delta":170724072},{"NoteNumber":55,"Velocity":37,"Duration":112082,"SoundDuration":112082,"Delta":170724072},{"NoteNumber":67,"Velocity":33,"Duration":112082,"SoundDuration":112082,"Delta":170836154},{"NoteNumber":55,"Velocity":33,"Duration":112082,"SoundDuration":112082,"Delta":170948237},{"NoteNumber":67,"Velocity":33,"Duration":112082,"SoundDuration":112082,"Delta":171060319},{"NoteNumber":69,"Velocity":56,"Duration":324137,"SoundDuration":324137,"Delta":171172402},{"NoteNumber":48,"Velocity":37,"Duration":108045,"SoundDuration":108045,"Delta":171172402},{"NoteNumber":57,"Velocity":32,"Duration":108045,"SoundDuration":108045,"Delta":171280447},{"NoteNumber":52,"Velocity":32,"Duration":108045,"SoundDuration":108045,"Delta":171388493},{"NoteNumber":76,"Velocity":43,"Duration":119208,"SoundDuration":119208,"Delta":171496539},{"NoteNumber":57,"Velocity":32,"Duration":119208,"SoundDuration":119208,"Delta":171496539},{"NoteNumber":74,"Velocity":49,"Duration":107272,"SoundDuration":107272,"Delta":171615747},{"NoteNumber":48,"Velocity":37,"Duration":107272,"SoundDuration":107272,"Delta":171615747},{"NoteNumber":72,"Velocity":48,"Duration":107273,"SoundDuration":107273,"Delta":171723020},{"NoteNumber":57,"Velocity":32,"Duration":107273,"SoundDuration":107273,"Delta":171723020},{"NoteNumber":71,"Velocity":48,"Duration":112082,"SoundDuration":112082,"Delta":171830293},{"NoteNumber":52,"Velocity":32,"Duration":112082,"SoundDuration":112082,"Delta":171830293},{"NoteNumber":69,"Velocity":48,"Duration":112082,"SoundDuration":112082,"Delta":171942376},{"NoteNumber":57,"Velocity":32,"Duration":112082,"SoundDuration":112082,"Delta":171942376},{"NoteNumber":67,"Velocity":52,"Duration":426046,"SoundDuration":426046,"Delta":172054458},{"NoteNumber":50,"Velocity":32,"Duration":106511,"SoundDuration":106511,"Delta":172054458},{"NoteNumber":59,"Velocity":34,"Duration":106511,"SoundDuration":106511,"Delta":172160970},{"NoteNumber":55,"Velocity":34,"Duration":106511,"SoundDuration":106511,"Delta":172267481},{"NoteNumber":59,"Velocity":34,"Duration":106511,"SoundDuration":106511,"Delta":172373993},{"NoteNumber":69,"Velocity":45,"Duration":54164,"SoundDuration":54164,"Delta":172480504},{"NoteNumber":50,"Velocity":36,"Duration":110629,"SoundDuration":110629,"Delta":172480504},{"NoteNumber":71,"Velocity":40,"Duration":56464,"SoundDuration":56464,"Delta":172534669},{"NoteNumber":69,"Velocity":46,"Duration":55627,"SoundDuration":55627,"Delta":172591134},{"NoteNumber":60,"Velocity":32,"Duration":110441,"SoundDuration":110441,"Delta":172591134},{"NoteNumber":71,"Velocity":41,"Duration":54814,"SoundDuration":54814,"Delta":172646761},{"NoteNumber":69,"Velocity":46,"Duration":74055,"SoundDuration":74055,"Delta":172701575},{"NoteNumber":54,"Velocity":32,"Duration":112272,"SoundDuration":112272,"Delta":172701575},{"NoteNumber":67,"Velocity":39,"Duration":76435,"SoundDuration":76435,"Delta":172775630},{"NoteNumber":60,"Velocity":32,"Duration":114652,"SoundDuration":114652,"Delta":172813848},{"NoteNumber":69,"Velocity":39,"Duration":76435,"SoundDuration":76435,"Delta":172852065},{"NoteNumber":67,"Velocity":54,"Duration":214546,"SoundDuration":214546,"Delta":172928500},{"NoteNumber":55,"Velocity":39,"Duration":107272,"SoundDuration":107272,"Delta":172928500},{"NoteNumber":62,"Velocity":34,"Duration":107273,"SoundDuration":107273,"Delta":173035773},{"NoteNumber":59,"Velocity":29,"Duration":110432,"SoundDuration":110432,"Delta":173143046},{"NoteNumber":62,"Velocity":29,"Duration":135342,"SoundDuration":135342,"Delta":173253479},{"NoteNumber":74,"Velocity":60,"Duration":423042,"SoundDuration":423042,"Delta":173388821},{"NoteNumber":59,"Velocity":42,"Duration":105760,"SoundDuration":105760,"Delta":173388821},{"NoteNumber":67,"Velocity":34,"Duration":105760,"SoundDuration":105760,"Delta":173494582},{"NoteNumber":59,"Velocity":34,"Duration":105760,"SoundDuration":105760,"Delta":173600342},{"NoteNumber":67,"Velocity":34,"Duration":105760,"SoundDuration":105760,"Delta":173706103},{"NoteNumber":72,"Velocity":56,"Duration":429091,"SoundDuration":429091,"Delta":173811863},{"NoteNumber":57,"Velocity":42,"Duration":107272,"SoundDuration":107272,"Delta":173811863},{"NoteNumber":67,"Velocity":36,"Duration":107273,"SoundDuration":107273,"Delta":173919136},{"NoteNumber":57,"Velocity":36,"Duration":107272,"SoundDuration":107272,"Delta":174026409},{"NoteNumber":67,"Velocity":36,"Duration":107272,"SoundDuration":107272,"Delta":174133682},{"NoteNumber":71,"Velocity":55,"Duration":448329,"SoundDuration":448329,"Delta":174240955},{"NoteNumber":55,"Velocity":42,"Duration":112082,"SoundDuration":112082,"Delta":174240955},{"NoteNumber":67,"Velocity":37,"Duration":112082,"SoundDuration":112082,"Delta":174353038},{"NoteNumber":55,"Velocity":37,"Duration":112082,"SoundDuration":112082,"Delta":174465120},{"NoteNumber":67,"Velocity":37,"Duration":112082,"SoundDuration":112082,"Delta":174577203},{"NoteNumber":76,"Velocity":60,"Duration":324137,"SoundDuration":324137,"Delta":174689285},{"NoteNumber":60,"Velocity":42,"Duration":108045,"SoundDuration":108045,"Delta":174689285},{"NoteNumber":67,"Velocity":36,"Duration":108045,"SoundDuration":108045,"Delta":174797331},{"NoteNumber":66,"Velocity":36,"Duration":108045,"SoundDuration":108045,"Delta":174905377},{"NoteNumber":78,"Velocity":54,"Duration":39736,"SoundDuration":39736,"Delta":175013422},{"NoteNumber":67,"Velocity":36,"Duration":119208,"SoundDuration":119208,"Delta":175013422},{"NoteNumber":76,"Velocity":54,"Duration":39736,"SoundDuration":39736,"Delta":175053159},{"NoteNumber":74,"Velocity":54,"Duration":39636,"SoundDuration":39636,"Delta":175093888},{"NoteNumber":76,"Velocity":60,"Duration":107272,"SoundDuration":107272,"Delta":175132631},{"NoteNumber":60,"Velocity":42,"Duration":107272,"SoundDuration":107272,"Delta":175132631},{"NoteNumber":67,"Velocity":36,"Duration":107273,"SoundDuration":107273,"Delta":175239904},{"NoteNumber":78,"Velocity":56,"Duration":111940,"SoundDuration":111940,"Delta":175347177},{"NoteNumber":66,"Velocity":36,"Duration":111940,"SoundDuration":111940,"Delta":175347177},{"NoteNumber":67,"Velocity":36,"Duration":111940,"SoundDuration":111940,"Delta":175459117},{"NoteNumber":81,"Velocity":60,"Duration":211267,"SoundDuration":211267,"Delta":175571057},{"NoteNumber":60,"Velocity":36,"Duration":105633,"SoundDuration":105633,"Delta":175571057},{"NoteNumber":67,"Velocity":38,"Duration":105633,"SoundDuration":105633,"Delta":175676691},{"NoteNumber":79,"Velocity":54,"Duration":106382,"SoundDuration":106382,"Delta":175782325},{"NoteNumber":66,"Velocity":38,"Duration":106382,"SoundDuration":106382,"Delta":175782325},{"NoteNumber":67,"Velocity":38,"Duration":106382,"SoundDuration":106382,"Delta":175888708},{"NoteNumber":78,"Velocity":56,"Duration":212766,"SoundDuration":212766,"Delta":175995091},{"NoteNumber":60,"Velocity":40,"Duration":106383,"SoundDuration":106383,"Delta":175995091},{"NoteNumber":67,"Velocity":36,"Duration":106382,"SoundDuration":106382,"Delta":176101474},{"NoteNumber":76,"Velocity":54,"Duration":115535,"SoundDuration":115535,"Delta":176207857},{"NoteNumber":66,"Velocity":36,"Duration":115535,"SoundDuration":115535,"Delta":176207857},{"NoteNumber":67,"Velocity":36,"Duration":115535,"SoundDuration":115535,"Delta":176323393},{"NoteNumber":74,"Velocity":60,"Duration":227565,"SoundDuration":227565,"Delta":176438928},{"NoteNumber":59,"Velocity":44,"Duration":113783,"SoundDuration":113783,"Delta":176438928},{"NoteNumber":67,"Velocity":44,"Duration":113782,"SoundDuration":113782,"Delta":176552711},{"NoteNumber":66,"Velocity":33,"Duration":113783,"SoundDuration":113783,"Delta":176666494},{"NoteNumber":67,"Velocity":33,"Duration":113782,"SoundDuration":113782,"Delta":176780277},{"NoteNumber":74,"Velocity":49,"Duration":423042,"SoundDuration":423042,"Delta":176894060},{"NoteNumber":59,"Velocity":37,"Duration":105760,"SoundDuration":105760,"Delta":176894060},{"NoteNumber":67,"Velocity":30,"Duration":105760,"SoundDuration":105760,"Delta":176999821},{"NoteNumber":59,"Velocity":30,"Duration":105760,"SoundDuration":105760,"Delta":177105581},{"NoteNumber":67,"Velocity":30,"Duration":105760,"SoundDuration":105760,"Delta":177211342},{"NoteNumber":72,"Velocity":49,"Duration":429091,"SoundDuration":429091,"Delta":177317102},{"NoteNumber":57,"Velocity":37,"Duration":107272,"SoundDuration":107272,"Delta":177317102},{"NoteNumber":67,"Velocity":32,"Duration":107273,"SoundDuration":107273,"Delta":177424375},{"NoteNumber":57,"Velocity":32,"Duration":107272,"SoundDuration":107272,"Delta":177531648},{"NoteNumber":67,"Velocity":32,"Duration":107272,"SoundDuration":107272,"Delta":177638921},{"NoteNumber":71,"Velocity":48,"Duration":448329,"SoundDuration":448329,"Delta":177746194},{"NoteNumber":55,"Velocity":37,"Duration":112082,"SoundDuration":112082,"Delta":177746194},{"NoteNumber":67,"Velocity":33,"Duration":112082,"SoundDuration":112082,"Delta":177858277},{"NoteNumber":55,"Velocity":33,"Duration":112082,"SoundDuration":112082,"Delta":177970359},{"NoteNumber":67,"Velocity":33,"Duration":112082,"SoundDuration":112082,"Delta":178082442},{"NoteNumber":69,"Velocity":56,"Duration":324137,"SoundDuration":324137,"Delta":178194524},{"NoteNumber":48,"Velocity":37,"Duration":108045,"SoundDuration":108045,"Delta":178194524},{"NoteNumber":57,"Velocity":32,"Duration":108045,"SoundDuration":108045,"Delta":178302570},{"NoteNumber":52,"Velocity":32,"Duration":108045,"SoundDuration":108045,"Delta":178410616},{"NoteNumber":76,"Velocity":43,"Duration":119208,"SoundDuration":119208,"Delta":178518662},{"NoteNumber":57,"Velocity":32,"Duration":119208,"SoundDuration":119208,"Delta":178518662},{"NoteNumber":74,"Velocity":49,"Duration":107272,"SoundDuration":107272,"Delta":178637870},{"NoteNumber":48,"Velocity":37,"Duration":107272,"SoundDuration":107272,"Delta":178637870},{"NoteNumber":72,"Velocity":48,"Duration":107273,"SoundDuration":107273,"Delta":178745143},{"NoteNumber":57,"Velocity":32,"Duration":107273,"SoundDuration":107273,"Delta":178745143},{"NoteNumber":71,"Velocity":48,"Duration":112082,"SoundDuration":112082,"Delta":178852416},{"NoteNumber":52,"Velocity":32,"Duration":112082,"SoundDuration":112082,"Delta":178852416},{"NoteNumber":69,"Velocity":48,"Duration":112082,"SoundDuration":112082,"Delta":178964499},{"NoteNumber":57,"Velocity":32,"Duration":112082,"SoundDuration":112082,"Delta":178964499},{"NoteNumber":67,"Velocity":52,"Duration":426046,"SoundDuration":426046,"Delta":179076581},{"NoteNumber":50,"Velocity":32,"Duration":106511,"SoundDuration":106511,"Delta":179076581},{"NoteNumber":59,"Velocity":34,"Duration":106511,"SoundDuration":106511,"Delta":179183093},{"NoteNumber":55,"Velocity":34,"Duration":106511,"SoundDuration":106511,"Delta":179289604},{"NoteNumber":59,"Velocity":34,"Duration":106511,"SoundDuration":106511,"Delta":179396116},{"NoteNumber":69,"Velocity":45,"Duration":54164,"SoundDuration":54164,"Delta":179502627},{"NoteNumber":50,"Velocity":36,"Duration":110629,"SoundDuration":110629,"Delta":179502627},{"NoteNumber":71,"Velocity":40,"Duration":56464,"SoundDuration":56464,"Delta":179556792},{"NoteNumber":69,"Velocity":46,"Duration":55627,"SoundDuration":55627,"Delta":179613257},{"NoteNumber":60,"Velocity":32,"Duration":110441,"SoundDuration":110441,"Delta":179613257},{"NoteNumber":71,"Velocity":41,"Duration":54814,"SoundDuration":54814,"Delta":179668884},{"NoteNumber":69,"Velocity":46,"Duration":74055,"SoundDuration":74055,"Delta":179723698},{"NoteNumber":54,"Velocity":32,"Duration":112272,"SoundDuration":112272,"Delta":179723698},{"NoteNumber":67,"Velocity":39,"Duration":76435,"SoundDuration":76435,"Delta":179797753},{"NoteNumber":60,"Velocity":32,"Duration":114652,"SoundDuration":114652,"Delta":179835971},{"NoteNumber":69,"Velocity":39,"Duration":76435,"SoundDuration":76435,"Delta":179874188},{"NoteNumber":67,"Velocity":59,"Duration":104289,"SoundDuration":104289,"Delta":179950623},{"NoteNumber":59,"Velocity":52,"Duration":417158,"SoundDuration":417158,"Delta":179950623},{"NoteNumber":55,"Velocity":44,"Duration":417158,"SoundDuration":417158,"Delta":179950623},{"NoteNumber":69,"Velocity":53,"Duration":104289,"SoundDuration":104289,"Delta":180054913},{"NoteNumber":67,"Velocity":59,"Duration":104289,"SoundDuration":104289,"Delta":180159203},{"NoteNumber":66,"Velocity":52,"Duration":104289,"SoundDuration":104289,"Delta":180263493},{"NoteNumber":67,"Velocity":59,"Duration":104289,"SoundDuration":104289,"Delta":180367782},{"NoteNumber":71,"Velocity":54,"Duration":104289,"SoundDuration":104289,"Delta":180472072},{"NoteNumber":69,"Velocity":59,"Duration":109624,"SoundDuration":109624,"Delta":180576362},{"NoteNumber":54,"Velocity":40,"Duration":109624,"SoundDuration":109624,"Delta":180576362},{"NoteNumber":62,"Velocity":48,"Duration":109624,"SoundDuration":109624,"Delta":180576362},{"NoteNumber":72,"Velocity":53,"Duration":109624,"SoundDuration":109624,"Delta":180685987},{"NoteNumber":71,"Velocity":59,"Duration":104289,"SoundDuration":104289,"Delta":180795612},{"NoteNumber":62,"Velocity":52,"Duration":417158,"SoundDuration":417158,"Delta":180795612},{"NoteNumber":55,"Velocity":44,"Duration":417158,"SoundDuration":417158,"Delta":180795612},{"NoteNumber":69,"Velocity":53,"Duration":104289,"SoundDuration":104289,"Delta":180899902},{"NoteNumber":67,"Velocity":59,"Duration":104289,"SoundDuration":104289,"Delta":181004191},{"NoteNumber":66,"Velocity":52,"Duration":104289,"SoundDuration":104289,"Delta":181108481},{"NoteNumber":67,"Velocity":59,"Duration":104289,"SoundDuration":104289,"Delta":181212771},{"NoteNumber":71,"Velocity":54,"Duration":108829,"SoundDuration":108829,"Delta":181317061},{"NoteNumber":69,"Velocity":59,"Duration":108829,"SoundDuration":108829,"Delta":181425890},{"NoteNumber":54,"Velocity":39,"Duration":108829,"SoundDuration":108829,"Delta":181425890},{"NoteNumber":62,"Velocity":47,"Duration":108829,"SoundDuration":108829,"Delta":181425890},{"NoteNumber":72,"Velocity":53,"Duration":108829,"SoundDuration":108829,"Delta":181534720},{"NoteNumber":71,"Velocity":59,"Duration":104289,"SoundDuration":104289,"Delta":181643550},{"NoteNumber":55,"Velocity":43,"Duration":417158,"SoundDuration":417158,"Delta":181643550},{"NoteNumber":62,"Velocity":51,"Duration":417158,"SoundDuration":417158,"Delta":181643550},{"NoteNumber":69,"Velocity":53,"Duration":104289,"SoundDuration":104289,"Delta":181747840},{"NoteNumber":67,"Velocity":59,"Duration":104289,"SoundDuration":104289,"Delta":181852129},{"NoteNumber":66,"Velocity":52,"Duration":104289,"SoundDuration":104289,"Delta":181956419},{"NoteNumber":67,"Velocity":59,"Duration":104289,"SoundDuration":104289,"Delta":182060709},{"NoteNumber":71,"Velocity":54,"Duration":104289,"SoundDuration":104289,"Delta":182164999},{"NoteNumber":69,"Velocity":59,"Duration":108045,"SoundDuration":108045,"Delta":182269288},{"NoteNumber":62,"Velocity":46,"Duration":108045,"SoundDuration":108045,"Delta":182269288},{"NoteNumber":54,"Velocity":39,"Duration":108045,"SoundDuration":108045,"Delta":182269288},{"NoteNumber":72,"Velocity":53,"Duration":108045,"SoundDuration":108045,"Delta":182377334},{"NoteNumber":71,"Velocity":59,"Duration":105019,"SoundDuration":105019,"Delta":182485380},{"NoteNumber":62,"Velocity":50,"Duration":105019,"SoundDuration":105019,"Delta":182485380},{"NoteNumber":55,"Velocity":42,"Duration":105019,"SoundDuration":105019,"Delta":182485380},{"NoteNumber":74,"Velocity":53,"Duration":105019,"SoundDuration":105019,"Delta":182590400},{"NoteNumber":72,"Velocity":59,"Duration":105633,"SoundDuration":105633,"Delta":182695420},{"NoteNumber":62,"Velocity":46,"Duration":105633,"SoundDuration":105633,"Delta":182695420},{"NoteNumber":54,"Velocity":39,"Duration":105633,"SoundDuration":105633,"Delta":182695420},{"NoteNumber":69,"Velocity":52,"Duration":105633,"SoundDuration":105633,"Delta":182801054},{"NoteNumber":71,"Velocity":59,"Duration":105633,"SoundDuration":105633,"Delta":182906687},{"NoteNumber":62,"Velocity":46,"Duration":105633,"SoundDuration":105633,"Delta":182906687},{"NoteNumber":55,"Velocity":39,"Duration":105633,"SoundDuration":105633,"Delta":182906687},{"NoteNumber":74,"Velocity":54,"Duration":110294,"SoundDuration":110294,"Delta":183012321},{"NoteNumber":73,"Velocity":59,"Duration":110293,"SoundDuration":110293,"Delta":183122615},{"NoteNumber":55,"Velocity":46,"Duration":110293,"SoundDuration":110293,"Delta":183122615},{"NoteNumber":52,"Velocity":39,"Duration":110293,"SoundDuration":110293,"Delta":183122615},{"NoteNumber":76,"Velocity":53,"Duration":110294,"SoundDuration":110294,"Delta":183232909},{"NoteNumber":74,"Velocity":59,"Duration":104289,"SoundDuration":104289,"Delta":183343203},{"NoteNumber":57,"Velocity":50,"Duration":417158,"SoundDuration":417158,"Delta":183343203},{"NoteNumber":54,"Velocity":42,"Duration":417158,"SoundDuration":417158,"Delta":183343203},{"NoteNumber":76,"Velocity":53,"Duration":104289,"SoundDuration":104289,"Delta":183447493},{"NoteNumber":74,"Velocity":59,"Duration":104289,"SoundDuration":104289,"Delta":183551783},{"NoteNumber":73,"Velocity":52,"Duration":104289,"SoundDuration":104289,"Delta":183656072},{"NoteNumber":74,"Velocity":59,"Duration":104289,"SoundDuration":104289,"Delta":183760362},{"NoteNumber":78,"Velocity":54,"Duration":104289,"SoundDuration":104289,"Delta":183864652},{"NoteNumber":76,"Velocity":59,"Duration":109624,"SoundDuration":109624,"Delta":183968942},{"NoteNumber":49,"Velocity":42,"Duration":109624,"SoundDuration":109624,"Delta":183968942},{"NoteNumber":57,"Velocity":50,"Duration":109624,"SoundDuration":109624,"Delta":183968942},{"NoteNumber":79,"Velocity":53,"Duration":109624,"SoundDuration":109624,"Delta":184078567},{"NoteNumber":78,"Velocity":59,"Duration":104289,"SoundDuration":104289,"Delta":184188192},{"NoteNumber":57,"Velocity":52,"Duration":417158,"SoundDuration":417158,"Delta":184188192},{"NoteNumber":50,"Velocity":44,"Duration":417158,"SoundDuration":417158,"Delta":184188192},{"NoteNumber":76,"Velocity":53,"Duration":104289,"SoundDuration":104289,"Delta":184292481},{"NoteNumber":74,"Velocity":59,"Duration":104289,"SoundDuration":104289,"Delta":184396771},{"NoteNumber":73,"Velocity":52,"Duration":104289,"SoundDuration":104289,"Delta":184501061},{"NoteNumber":74,"Velocity":59,"Duration":104289,"SoundDuration":104289,"Delta":184605351},{"NoteNumber":78,"Velocity":54,"Duration":109624,"SoundDuration":109624,"Delta":184709640},{"NoteNumber":76,"Velocity":59,"Duration":109624,"SoundDuration":109624,"Delta":184819265},{"NoteNumber":57,"Velocity":50,"Duration":109624,"SoundDuration":109624,"Delta":184819265},{"NoteNumber":49,"Velocity":42,"Duration":109624,"SoundDuration":109624,"Delta":184819265},{"NoteNumber":79,"Velocity":53,"Duration":109625,"SoundDuration":109625,"Delta":184928890},{"NoteNumber":78,"Velocity":59,"Duration":103569,"SoundDuration":103569,"Delta":185038515},{"NoteNumber":50,"Velocity":45,"Duration":414278,"SoundDuration":414278,"Delta":185038515},{"NoteNumber":57,"Velocity":54,"Duration":414278,"SoundDuration":414278,"Delta":185038515},{"NoteNumber":76,"Velocity":53,"Duration":103569,"SoundDuration":103569,"Delta":185142085},{"NoteNumber":74,"Velocity":59,"Duration":103569,"SoundDuration":103569,"Delta":185245655},{"NoteNumber":73,"Velocity":52,"Duration":103569,"SoundDuration":103569,"Delta":185349225},{"NoteNumber":74,"Velocity":59,"Duration":103569,"SoundDuration":103569,"Delta":185452794},{"NoteNumber":76,"Velocity":54,"Duration":103569,"SoundDuration":103569,"Delta":185556364},{"NoteNumber":78,"Velocity":64,"Duration":108045,"SoundDuration":108045,"Delta":185659934},{"NoteNumber":51,"Velocity":45,"Duration":108045,"SoundDuration":108045,"Delta":185659934},{"NoteNumber":59,"Velocity":54,"Duration":108045,"SoundDuration":108045,"Delta":185659934},{"NoteNumber":81,"Velocity":58,"Duration":108045,"SoundDuration":108045,"Delta":185767980},{"NoteNumber":79,"Velocity":64,"Duration":103569,"SoundDuration":103569,"Delta":185876025},{"NoteNumber":59,"Velocity":56,"Duration":414278,"SoundDuration":414278,"Delta":185876025},{"NoteNumber":52,"Velocity":47,"Duration":414278,"SoundDuration":414278,"Delta":185876025},{"NoteNumber":78,"Velocity":58,"Duration":103569,"SoundDuration":103569,"Delta":185979595},{"NoteNumber":76,"Velocity":64,"Duration":103569,"SoundDuration":103569,"Delta":186083165},{"NoteNumber":75,"Velocity":57,"Duration":103569,"SoundDuration":103569,"Delta":186186735},{"NoteNumber":76,"Velocity":64,"Duration":103569,"SoundDuration":103569,"Delta":186290304},{"NoteNumber":78,"Velocity":59,"Duration":108045,"SoundDuration":108045,"Delta":186393874},{"NoteNumber":79,"Velocity":64,"Duration":108045,"SoundDuration":108045,"Delta":186501920},{"NoteNumber":59,"Velocity":53,"Duration":108045,"SoundDuration":108045,"Delta":186501920},{"NoteNumber":51,"Velocity":45,"Duration":108045,"SoundDuration":108045,"Delta":186501920},{"NoteNumber":81,"Velocity":58,"Duration":108045,"SoundDuration":108045,"Delta":186609966},{"NoteNumber":79,"Velocity":69,"Duration":104289,"SoundDuration":104289,"Delta":186718011},{"NoteNumber":52,"Velocity":51,"Duration":417158,"SoundDuration":417158,"Delta":186718011},{"NoteNumber":59,"Velocity":60,"Duration":417158,"SoundDuration":417158,"Delta":186718011},{"NoteNumber":78,"Velocity":67,"Duration":104289,"SoundDuration":104289,"Delta":186822301},{"NoteNumber":76,"Velocity":65,"Duration":104289,"SoundDuration":104289,"Delta":186926591},{"NoteNumber":75,"Velocity":62,"Duration":104289,"SoundDuration":104289,"Delta":187030881},{"NoteNumber":76,"Velocity":64,"Duration":104289,"SoundDuration":104289,"Delta":187135170},{"NoteNumber":78,"Velocity":65,"Duration":104289,"SoundDuration":104289,"Delta":187239460},{"NoteNumber":79,"Velocity":67,"Duration":108829,"SoundDuration":108829,"Delta":187343750},{"NoteNumber":61,"Velocity":55,"Duration":108829,"SoundDuration":108829,"Delta":187343750},{"NoteNumber":52,"Velocity":46,"Duration":108829,"SoundDuration":108829,"Delta":187343750},{"NoteNumber":83,"Velocity":60,"Duration":108829,"SoundDuration":108829,"Delta":187452580},{"NoteNumber":81,"Velocity":67,"Duration":103569,"SoundDuration":103569,"Delta":187561409},{"NoteNumber":62,"Velocity":62,"Duration":414278,"SoundDuration":414278,"Delta":187561409},{"NoteNumber":54,"Velocity":52,"Duration":414278,"SoundDuration":414278,"Delta":187561409},{"NoteNumber":79,"Velocity":60,"Duration":103569,"SoundDuration":103569,"Delta":187664979},{"NoteNumber":78,"Velocity":67,"Duration":103569,"SoundDuration":103569,"Delta":187768549},{"NoteNumber":76,"Velocity":59,"Duration":103569,"SoundDuration":103569,"Delta":187872119},{"NoteNumber":78,"Velocity":67,"Duration":103569,"SoundDuration":103569,"Delta":187975688},{"NoteNumber":79,"Velocity":61,"Duration":108829,"SoundDuration":108829,"Delta":188079258},{"NoteNumber":81,"Velocity":67,"Duration":108829,"SoundDuration":108829,"Delta":188188088},{"NoteNumber":52,"Velocity":48,"Duration":108829,"SoundDuration":108829,"Delta":188188088},{"NoteNumber":61,"Velocity":57,"Duration":108829,"SoundDuration":108829,"Delta":188188088},{"NoteNumber":83,"Velocity":60,"Duration":108829,"SoundDuration":108829,"Delta":188296918},{"NoteNumber":81,"Velocity":67,"Duration":102859,"SoundDuration":102859,"Delta":188405747},{"NoteNumber":54,"Velocity":52,"Duration":411438,"SoundDuration":411438,"Delta":188405747},{"NoteNumber":62,"Velocity":62,"Duration":411438,"SoundDuration":411438,"Delta":188405747},{"NoteNumber":79,"Velocity":66,"Duration":102859,"SoundDuration":102859,"Delta":188508607},{"NoteNumber":78,"Velocity":65,"Duration":102859,"SoundDuration":102859,"Delta":188611466},{"NoteNumber":76,"Velocity":64,"Duration":102859,"SoundDuration":102859,"Delta":188714326},{"NoteNumber":78,"Velocity":67,"Duration":112082,"SoundDuration":112082,"Delta":188817185},{"NoteNumber":79,"Velocity":61,"Duration":112082,"SoundDuration":112082,"Delta":188929268},{"NoteNumber":81,"Velocity":67,"Duration":108829,"SoundDuration":108829,"Delta":189041350},{"NoteNumber":66,"Velocity":54,"Duration":108829,"SoundDuration":108829,"Delta":189041350},{"NoteNumber":84,"Velocity":60,"Duration":108829,"SoundDuration":108829,"Delta":189150180},{"NoteNumber":83,"Velocity":67,"Duration":105760,"SoundDuration":105760,"Delta":189259010},{"NoteNumber":67,"Velocity":62,"Duration":105760,"SoundDuration":105760,"Delta":189259010},{"NoteNumber":86,"Velocity":57,"Duration":105760,"SoundDuration":105760,"Delta":189364770},{"NoteNumber":81,"Velocity":62,"Duration":101468,"SoundDuration":101468,"Delta":189470531},{"NoteNumber":66,"Velocity":56,"Duration":101468,"SoundDuration":101468,"Delta":189470531},{"NoteNumber":86,"Velocity":57,"Duration":101467,"SoundDuration":101467,"Delta":189571999},{"NoteNumber":83,"Velocity":67,"Duration":101468,"SoundDuration":101468,"Delta":189673467},{"NoteNumber":67,"Velocity":61,"Duration":101468,"SoundDuration":101468,"Delta":189673467},{"NoteNumber":86,"Velocity":56,"Duration":101467,"SoundDuration":101467,"Delta":189774935},{"NoteNumber":78,"Velocity":62,"Duration":105019,"SoundDuration":105019,"Delta":189876403},{"NoteNumber":63,"Velocity":53,"Duration":105019,"SoundDuration":105019,"Delta":189876403},{"NoteNumber":83,"Velocity":56,"Duration":105760,"SoundDuration":105760,"Delta":189981423},{"NoteNumber":79,"Velocity":67,"Duration":103569,"SoundDuration":103569,"Delta":190087183},{"NoteNumber":64,"Velocity":62,"Duration":103569,"SoundDuration":103569,"Delta":190087183},{"NoteNumber":83,"Velocity":57,"Duration":103569,"SoundDuration":103569,"Delta":190190753},{"NoteNumber":78,"Velocity":62,"Duration":100786,"SoundDuration":100786,"Delta":190294323},{"NoteNumber":63,"Velocity":56,"Duration":100786,"SoundDuration":100786,"Delta":190294323},{"NoteNumber":83,"Velocity":57,"Duration":100786,"SoundDuration":100786,"Delta":190395109},{"NoteNumber":79,"Velocity":67,"Duration":100786,"SoundDuration":100786,"Delta":190495895},{"NoteNumber":64,"Velocity":64,"Duration":100786,"SoundDuration":100786,"Delta":190495895},{"NoteNumber":83,"Velocity":58,"Duration":100786,"SoundDuration":100786,"Delta":190596682},{"NoteNumber":76,"Velocity":62,"Duration":103569,"SoundDuration":103569,"Delta":190697468},{"NoteNumber":61,"Velocity":56,"Duration":103569,"SoundDuration":103569,"Delta":190697468},{"NoteNumber":81,"Velocity":57,"Duration":103569,"SoundDuration":103569,"Delta":190801038},{"NoteNumber":78,"Velocity":67,"Duration":100113,"SoundDuration":100113,"Delta":190904607},{"NoteNumber":62,"Velocity":66,"Duration":100113,"SoundDuration":100113,"Delta":190904607},{"NoteNumber":81,"Velocity":57,"Duration":100113,"SoundDuration":100113,"Delta":191004721},{"NoteNumber":76,"Velocity":62,"Duration":100113,"SoundDuration":100113,"Delta":191104834},{"NoteNumber":61,"Velocity":57,"Duration":100113,"SoundDuration":100113,"Delta":191104834},{"NoteNumber":81,"Velocity":57,"Duration":100113,"SoundDuration":100113,"Delta":191204948},{"NoteNumber":78,"Velocity":67,"Duration":103569,"SoundDuration":103569,"Delta":191305061},{"NoteNumber":62,"Velocity":66,"Duration":103569,"SoundDuration":103569,"Delta":191305061},{"NoteNumber":81,"Velocity":57,"Duration":103569,"SoundDuration":103569,"Delta":191408631},{"NoteNumber":73,"Velocity":62,"Duration":103569,"SoundDuration":103569,"Delta":191512201},{"NoteNumber":58,"Velocity":57,"Duration":103569,"SoundDuration":103569,"Delta":191512201},{"NoteNumber":78,"Velocity":57,"Duration":103569,"SoundDuration":103569,"Delta":191615771},{"NoteNumber":74,"Velocity":67,"Duration":99449,"SoundDuration":99449,"Delta":191719340},{"NoteNumber":59,"Velocity":66,"Duration":99449,"SoundDuration":99449,"Delta":191719340},{"NoteNumber":78,"Velocity":59,"Duration":99449,"SoundDuration":99449,"Delta":191818790},{"NoteNumber":73,"Velocity":61,"Duration":104289,"SoundDuration":104289,"Delta":191918240},{"NoteNumber":58,"Velocity":57,"Duration":104289,"SoundDuration":104289,"Delta":191918240},{"NoteNumber":78,"Velocity":58,"Duration":104289,"SoundDuration":104289,"Delta":192022530},{"NoteNumber":74,"Velocity":67,"Duration":99449,"SoundDuration":99449,"Delta":192126819},{"NoteNumber":59,"Velocity":63,"Duration":99449,"SoundDuration":99449,"Delta":192126819},{"NoteNumber":78,"Velocity":59,"Duration":99449,"SoundDuration":99449,"Delta":192226269},{"NoteNumber":75,"Velocity":62,"Duration":104289,"SoundDuration":104289,"Delta":192325719},{"NoteNumber":60,"Velocity":57,"Duration":104289,"SoundDuration":104289,"Delta":192325719},{"NoteNumber":57,"Velocity":57,"Duration":104289,"SoundDuration":104289,"Delta":192325719},{"NoteNumber":78,"Velocity":59,"Duration":104253,"SoundDuration":104253,"Delta":192430009},{"NoteNumber":76,"Velocity":67,"Duration":99449,"SoundDuration":99449,"Delta":192534263},{"NoteNumber":59,"Velocity":64,"Duration":397798,"SoundDuration":397798,"Delta":192534263},{"NoteNumber":55,"Velocity":53,"Duration":397798,"SoundDuration":397798,"Delta":192534263},{"NoteNumber":75,"Velocity":61,"Duration":99449,"SoundDuration":99449,"Delta":192633712},{"NoteNumber":76,"Velocity":65,"Duration":99449,"SoundDuration":99449,"Delta":192733162},{"NoteNumber":78,"Velocity":60,"Duration":99449,"SoundDuration":99449,"Delta":192832612},{"NoteNumber":79,"Velocity":70,"Duration":99449,"SoundDuration":99449,"Delta":192932062},{"NoteNumber":78,"Velocity":60,"Duration":99532,"SoundDuration":99532,"Delta":193031511},{"NoteNumber":79,"Velocity":65,"Duration":101474,"SoundDuration":101474,"Delta":193131044},{"NoteNumber":81,"Velocity":60,"Duration":106439,"SoundDuration":106439,"Delta":193232519},{"NoteNumber":83,"Velocity":59,"Duration":119394,"SoundDuration":119394,"Delta":193338958},{"NoteNumber":64,"Velocity":50,"Duration":108743,"SoundDuration":108743,"Delta":193338958},{"NoteNumber":55,"Velocity":42,"Duration":108743,"SoundDuration":108743,"Delta":193338958},{"NoteNumber":85,"Velocity":60,"Duration":115384,"SoundDuration":115384,"Delta":193447701},{"NoteNumber":86,"Velocity":61,"Duration":112632,"SoundDuration":112632,"Delta":193552729},{"NoteNumber":55,"Velocity":34,"Duration":102417,"SoundDuration":102417,"Delta":193552729},{"NoteNumber":64,"Velocity":40,"Duration":102417,"SoundDuration":102417,"Delta":193552729},{"NoteNumber":85,"Velocity":64,"Duration":112374,"SoundDuration":112374,"Delta":193655146},{"NoteNumber":83,"Velocity":65,"Duration":112374,"SoundDuration":112374,"Delta":193757305},{"NoteNumber":64,"Velocity":40,"Duration":102159,"SoundDuration":102159,"Delta":193757305},{"NoteNumber":55,"Velocity":34,"Duration":102159,"SoundDuration":102159,"Delta":193757305},{"NoteNumber":81,"Velocity":66,"Duration":111781,"SoundDuration":111781,"Delta":193859464},{"NoteNumber":79,"Velocity":66,"Duration":111614,"SoundDuration":111614,"Delta":193961099},{"NoteNumber":55,"Velocity":34,"Duration":101468,"SoundDuration":101468,"Delta":193961099},{"NoteNumber":64,"Velocity":40,"Duration":101468,"SoundDuration":101468,"Delta":193961099},{"NoteNumber":78,"Velocity":65,"Duration":111370,"SoundDuration":111370,"Delta":194062567},{"NoteNumber":76,"Velocity":63,"Duration":110864,"SoundDuration":110864,"Delta":194163859},{"NoteNumber":64,"Velocity":50,"Duration":100786,"SoundDuration":100786,"Delta":194163859},{"NoteNumber":55,"Velocity":42,"Duration":100786,"SoundDuration":100786,"Delta":194163859},{"NoteNumber":78,"Velocity":64,"Duration":110864,"SoundDuration":110864,"Delta":194264645},{"NoteNumber":79,"Velocity":67,"Duration":111279,"SoundDuration":111279,"Delta":194365431},{"NoteNumber":64,"Velocity":40,"Duration":101132,"SoundDuration":101132,"Delta":194365431},{"NoteNumber":55,"Velocity":34,"Duration":101132,"SoundDuration":101132,"Delta":194365431},{"NoteNumber":78,"Velocity":70,"Duration":111614,"SoundDuration":111614,"Delta":194466564},{"NoteNumber":76,"Velocity":68,"Duration":111689,"SoundDuration":111689,"Delta":194568032},{"NoteNumber":56,"Velocity":34,"Duration":101473,"SoundDuration":101473,"Delta":194568032},{"NoteNumber":64,"Velocity":40,"Duration":101473,"SoundDuration":101473,"Delta":194568032},{"NoteNumber":74,"Velocity":67,"Duration":112374,"SoundDuration":112374,"Delta":194669506},{"NoteNumber":73,"Velocity":65,"Duration":112374,"SoundDuration":112374,"Delta":194771665},{"NoteNumber":64,"Velocity":40,"Duration":102159,"SoundDuration":102159,"Delta":194771665},{"NoteNumber":56,"Velocity":34,"Duration":102159,"SoundDuration":102159,"Delta":194771665},{"NoteNumber":71,"Velocity":64,"Duration":112593,"SoundDuration":112593,"Delta":194873824},{"NoteNumber":73,"Velocity":67,"Duration":110864,"SoundDuration":110864,"Delta":194976339},{"NoteNumber":57,"Velocity":48,"Duration":201572,"SoundDuration":201572,"Delta":194976339},{"NoteNumber":74,"Velocity":67,"Duration":110864,"SoundDuration":110864,"Delta":195077125},{"NoteNumber":73,"Velocity":57,"Duration":111748,"SoundDuration":111748,"Delta":195177911},{"NoteNumber":55,"Velocity":42,"Duration":210411,"SoundDuration":210411,"Delta":195177911},{"NoteNumber":69,"Velocity":57,"Duration":119703,"SoundDuration":119703,"Delta":195278698},{"NoteNumber":74,"Velocity":66,"Duration":100786,"SoundDuration":100786,"Delta":195388323},{"NoteNumber":54,"Velocity":42,"Duration":100786,"SoundDuration":100786,"Delta":195388323},{"NoteNumber":50,"Velocity":42,"Duration":105019,"SoundDuration":105019,"Delta":195589895},{"NoteNumber":79,"Velocity":66,"Duration":110864,"SoundDuration":110864,"Delta":195799935},{"NoteNumber":49,"Velocity":52,"Duration":201572,"SoundDuration":201572,"Delta":195799935},{"NoteNumber":81,"Velocity":56,"Duration":110864,"SoundDuration":110864,"Delta":195900721},{"NoteNumber":79,"Velocity":56,"Duration":110864,"SoundDuration":110864,"Delta":196001508},{"NoteNumber":45,"Velocity":46,"Duration":201572,"SoundDuration":201572,"Delta":196001508},{"NoteNumber":76,"Velocity":56,"Duration":110864,"SoundDuration":110864,"Delta":196102294},{"NoteNumber":79,"Velocity":66,"Duration":110864,"SoundDuration":110864,"Delta":196203080},{"NoteNumber":50,"Velocity":46,"Duration":100786,"SoundDuration":100786,"Delta":196203080},{"NoteNumber":78,"Velocity":57,"Duration":110864,"SoundDuration":110864,"Delta":196303866},{"NoteNumber":76,"Velocity":57,"Duration":111829,"SoundDuration":111829,"Delta":196404653},{"NoteNumber":54,"Velocity":46,"Duration":100786,"SoundDuration":100786,"Delta":196404653},{"NoteNumber":74,"Velocity":57,"Duration":120443,"SoundDuration":120443,"Delta":196505439},{"NoteNumber":73,"Velocity":68,"Duration":110124,"SoundDuration":110124,"Delta":196615871},{"NoteNumber":57,"Velocity":53,"Duration":200227,"SoundDuration":200227,"Delta":196615871},{"NoteNumber":74,"Velocity":56,"Duration":110124,"SoundDuration":110124,"Delta":196715985},{"NoteNumber":73,"Velocity":55,"Duration":110124,"SoundDuration":110124,"Delta":196816098},{"NoteNumber":55,"Velocity":46,"Duration":200226,"SoundDuration":200226,"Delta":196816098},{"NoteNumber":69,"Velocity":55,"Duration":110124,"SoundDuration":110124,"Delta":196916212},{"NoteNumber":74,"Velocity":68,"Duration":100113,"SoundDuration":100113,"Delta":197016325},{"NoteNumber":54,"Velocity":47,"Duration":100113,"SoundDuration":100113,"Delta":197016325},{"NoteNumber":50,"Velocity":47,"Duration":105760,"SoundDuration":105760,"Delta":197216552},{"NoteNumber":79,"Velocity":68,"Duration":110864,"SoundDuration":110864,"Delta":197428073},{"NoteNumber":49,"Velocity":56,"Duration":201572,"SoundDuration":201572,"Delta":197428073},{"NoteNumber":81,"Velocity":56,"Duration":110864,"SoundDuration":110864,"Delta":197528859},{"NoteNumber":79,"Velocity":56,"Duration":110864,"SoundDuration":110864,"Delta":197629646},{"NoteNumber":45,"Velocity":49,"Duration":201572,"SoundDuration":201572,"Delta":197629646},{"NoteNumber":76,"Velocity":58,"Duration":110864,"SoundDuration":110864,"Delta":197730432},{"NoteNumber":79,"Velocity":70,"Duration":110864,"SoundDuration":110864,"Delta":197831218},{"NoteNumber":50,"Velocity":50,"Duration":100786,"SoundDuration":100786,"Delta":197831218},{"NoteNumber":78,"Velocity":58,"Duration":111215,"SoundDuration":111215,"Delta":197932004},{"NoteNumber":76,"Velocity":58,"Duration":114718,"SoundDuration":114718,"Delta":198032791},{"NoteNumber":54,"Velocity":50,"Duration":104289,"SoundDuration":104289,"Delta":198032791},{"NoteNumber":74,"Velocity":61,"Duration":114301,"SoundDuration":114301,"Delta":198137080},{"NoteNumber":73,"Velocity":79,"Duration":100113,"SoundDuration":100113,"Delta":198241370},{"NoteNumber":57,"Velocity":60,"Duration":200227,"SoundDuration":200227,"Delta":198241370},{"NoteNumber":45,"Velocity":50,"Duration":200227,"SoundDuration":200227,"Delta":198241370},{"NoteNumber":52,"Velocity":50,"Duration":200227,"SoundDuration":200227,"Delta":198241370},{"NoteNumber":76,"Velocity":63,"Duration":100113,"SoundDuration":100113,"Delta":198341484},{"NoteNumber":73,"Velocity":63,"Duration":100113,"SoundDuration":100113,"Delta":198441597},{"NoteNumber":69,"Velocity":63,"Duration":107272,"SoundDuration":107272,"Delta":198541711},{"NoteNumber":78,"Velocity":74,"Duration":100113,"SoundDuration":100113,"Delta":198648984},{"NoteNumber":57,"Velocity":60,"Duration":200227,"SoundDuration":200227,"Delta":198648984},{"NoteNumber":50,"Velocity":51,"Duration":200227,"SoundDuration":200227,"Delta":198648984},{"NoteNumber":54,"Velocity":51,"Duration":200227,"SoundDuration":200227,"Delta":198648984},{"NoteNumber":81,"Velocity":64,"Duration":100113,"SoundDuration":100113,"Delta":198749097},{"NoteNumber":78,"Velocity":64,"Duration":107272,"SoundDuration":107272,"Delta":198849211},{"NoteNumber":74,"Velocity":64,"Duration":107273,"SoundDuration":107273,"Delta":198956484},{"NoteNumber":73,"Velocity":77,"Duration":101468,"SoundDuration":101468,"Delta":199063757},{"NoteNumber":57,"Velocity":61,"Duration":202935,"SoundDuration":202935,"Delta":199063757},{"NoteNumber":45,"Velocity":51,"Duration":202935,"SoundDuration":202935,"Delta":199063757},{"NoteNumber":52,"Velocity":51,"Duration":202935,"SoundDuration":202935,"Delta":199063757},{"NoteNumber":76,"Velocity":59,"Duration":101467,"SoundDuration":101467,"Delta":199165225},{"NoteNumber":73,"Velocity":60,"Duration":101468,"SoundDuration":101468,"Delta":199266693},{"NoteNumber":69,"Velocity":60,"Duration":106511,"SoundDuration":106511,"Delta":199368161},{"NoteNumber":78,"Velocity":77,"Duration":101468,"SoundDuration":101468,"Delta":199474672},{"NoteNumber":54,"Velocity":52,"Duration":202935,"SoundDuration":202935,"Delta":199474672},{"NoteNumber":50,"Velocity":52,"Duration":202935,"SoundDuration":202935,"Delta":199474672},{"NoteNumber":57,"Velocity":62,"Duration":202935,"SoundDuration":202935,"Delta":199474672},{"NoteNumber":81,"Velocity":64,"Duration":101467,"SoundDuration":101467,"Delta":199576140},{"NoteNumber":78,"Velocity":64,"Duration":107272,"SoundDuration":107272,"Delta":199677608},{"NoteNumber":74,"Velocity":64,"Duration":107273,"SoundDuration":107273,"Delta":199784881},{"NoteNumber":76,"Velocity":84,"Duration":77144,"SoundDuration":77144,"Delta":199892154},{"NoteNumber":73,"Velocity":69,"Duration":77144,"SoundDuration":77144,"Delta":199892154},{"NoteNumber":76,"Velocity":60,"Duration":77144,"SoundDuration":77144,"Delta":200097873},{"NoteNumber":81,"Velocity":74,"Duration":77144,"SoundDuration":77144,"Delta":200097873},{"NoteNumber":73,"Velocity":60,"Duration":77144,"SoundDuration":77144,"Delta":200097873},{"NoteNumber":52,"Velocity":45,"Duration":77144,"SoundDuration":77144,"Delta":200097873},{"NoteNumber":45,"Velocity":45,"Duration":77144,"SoundDuration":77144,"Delta":200097873},{"NoteNumber":49,"Velocity":45,"Duration":77144,"SoundDuration":77144,"Delta":200097873},{"NoteNumber":57,"Velocity":55,"Duration":77144,"SoundDuration":77144,"Delta":200097873},{"NoteNumber":81,"Velocity":74,"Duration":77144,"SoundDuration":77144,"Delta":200303592},{"NoteNumber":73,"Velocity":60,"Duration":77144,"SoundDuration":77144,"Delta":200303592},{"NoteNumber":76,"Velocity":60,"Duration":77144,"SoundDuration":77144,"Delta":200303592},{"NoteNumber":52,"Velocity":45,"Duration":77144,"SoundDuration":77144,"Delta":200303592},{"NoteNumber":49,"Velocity":45,"Duration":77144,"SoundDuration":77144,"Delta":200303592},{"NoteNumber":45,"Velocity":45,"Duration":77144,"SoundDuration":77144,"Delta":200303592},{"NoteNumber":57,"Velocity":55,"Duration":77144,"SoundDuration":77144,"Delta":200303592},{"NoteNumber":73,"Velocity":60,"Duration":77144,"SoundDuration":77144,"Delta":200509311},{"NoteNumber":76,"Velocity":60,"Duration":77144,"SoundDuration":77144,"Delta":200509311},{"NoteNumber":81,"Velocity":74,"Duration":77144,"SoundDuration":77144,"Delta":200509311},{"NoteNumber":52,"Velocity":45,"Duration":77144,"SoundDuration":77144,"Delta":200509311},{"NoteNumber":49,"Velocity":45,"Duration":77144,"SoundDuration":77144,"Delta":200509311},{"NoteNumber":45,"Velocity":45,"Duration":77144,"SoundDuration":77144,"Delta":200509311},{"NoteNumber":57,"Velocity":55,"Duration":77144,"SoundDuration":77144,"Delta":200509311},{"NoteNumber":81,"Velocity":74,"Duration":439715,"SoundDuration":439715,"Delta":200715030},{"NoteNumber":73,"Velocity":60,"Duration":439715,"SoundDuration":439715,"Delta":200715030},{"NoteNumber":76,"Velocity":60,"Duration":439715,"SoundDuration":439715,"Delta":200715030},{"NoteNumber":49,"Velocity":49,"Duration":439715,"SoundDuration":439715,"Delta":200715030},{"NoteNumber":57,"Velocity":58,"Duration":439715,"SoundDuration":439715,"Delta":200715030},{"NoteNumber":45,"Velocity":49,"Duration":439715,"SoundDuration":439715,"Delta":200715030},{"NoteNumber":52,"Velocity":49,"Duration":439715,"SoundDuration":439715,"Delta":200715030},{"NoteNumber":79,"Velocity":41,"Duration":51784,"SoundDuration":51784,"Delta":201154746},{"NoteNumber":78,"Velocity":42,"Duration":103569,"SoundDuration":103569,"Delta":201206531},{"NoteNumber":76,"Velocity":40,"Duration":103569,"SoundDuration":103569,"Delta":201310100},{"NoteNumber":78,"Velocity":40,"Duration":103569,"SoundDuration":103569,"Delta":201413670},{"NoteNumber":79,"Velocity":40,"Duration":115535,"SoundDuration":115535,"Delta":201517240},{"NoteNumber":80,"Velocity":45,"Duration":213022,"SoundDuration":213022,"Delta":201632776},{"NoteNumber":62,"Velocity":30,"Duration":213022,"SoundDuration":213022,"Delta":201632776},{"NoteNumber":81,"Velocity":42,"Duration":207139,"SoundDuration":207139,"Delta":201845799},{"NoteNumber":66,"Velocity":23,"Duration":207139,"SoundDuration":207139,"Delta":201845799},{"NoteNumber":64,"Velocity":30,"Duration":217659,"SoundDuration":217659,"Delta":202052938},{"NoteNumber":81,"Velocity":40,"Duration":205718,"SoundDuration":205718,"Delta":202270598},{"NoteNumber":67,"Velocity":27,"Duration":205718,"SoundDuration":205718,"Delta":202270598},{"NoteNumber":86,"Velocity":46,"Duration":205719,"SoundDuration":205719,"Delta":202476317},{"NoteNumber":66,"Velocity":32,"Duration":205719,"SoundDuration":205719,"Delta":202476317},{"NoteNumber":85,"Velocity":42,"Duration":205718,"SoundDuration":205718,"Delta":202682036},{"NoteNumber":69,"Velocity":26,"Duration":205718,"SoundDuration":205718,"Delta":202682036},{"NoteNumber":83,"Velocity":44,"Duration":205719,"SoundDuration":205719,"Delta":202887755},{"NoteNumber":62,"Velocity":29,"Duration":205719,"SoundDuration":205719,"Delta":202887755},{"NoteNumber":81,"Velocity":42,"Duration":217659,"SoundDuration":217659,"Delta":203093474},{"NoteNumber":66,"Velocity":26,"Duration":217659,"SoundDuration":217659,"Delta":203093474},{"NoteNumber":78,"Velocity":48,"Duration":210039,"SoundDuration":210039,"Delta":203311133},{"NoteNumber":64,"Velocity":34,"Duration":210039,"SoundDuration":210039,"Delta":203311133},{"NoteNumber":79,"Velocity":42,"Duration":202935,"SoundDuration":202935,"Delta":203521173},{"NoteNumber":71,"Velocity":28,"Duration":202935,"SoundDuration":202935,"Delta":203521173},{"NoteNumber":67,"Velocity":32,"Duration":217659,"SoundDuration":217659,"Delta":203724109},{"NoteNumber":79,"Velocity":40,"Duration":205718,"SoundDuration":205718,"Delta":203941769},{"NoteNumber":64,"Velocity":28,"Duration":205718,"SoundDuration":205718,"Delta":203941769},{"NoteNumber":81,"Velocity":45,"Duration":205719,"SoundDuration":205719,"Delta":204147488},{"NoteNumber":61,"Velocity":34,"Duration":205719,"SoundDuration":205719,"Delta":204147488},{"NoteNumber":79,"Velocity":42,"Duration":205718,"SoundDuration":205718,"Delta":204353207},{"NoteNumber":64,"Velocity":29,"Duration":205718,"SoundDuration":205718,"Delta":204353207},{"NoteNumber":78,"Velocity":45,"Duration":205719,"SoundDuration":205719,"Delta":204558926},{"NoteNumber":57,"Velocity":30,"Duration":205719,"SoundDuration":205719,"Delta":204558926},{"NoteNumber":76,"Velocity":42,"Duration":219249,"SoundDuration":219249,"Delta":204764645},{"NoteNumber":67,"Velocity":28,"Duration":219249,"SoundDuration":219249,"Delta":204764645},{"NoteNumber":73,"Velocity":48,"Duration":207139,"SoundDuration":207139,"Delta":204983895},{"NoteNumber":66,"Velocity":34,"Duration":207139,"SoundDuration":207139,"Delta":204983895},{"NoteNumber":74,"Velocity":44,"Duration":202935,"SoundDuration":202935,"Delta":205191034},{"NoteNumber":69,"Velocity":28,"Duration":202935,"SoundDuration":202935,"Delta":205191034},{"NoteNumber":61,"Velocity":30,"Duration":202935,"SoundDuration":202935,"Delta":205393970},{"NoteNumber":76,"Velocity":45,"Duration":213022,"SoundDuration":213022,"Delta":205596906},{"NoteNumber":69,"Velocity":28,"Duration":213022,"SoundDuration":213022,"Delta":205596906},{"NoteNumber":77,"Velocity":50,"Duration":207139,"SoundDuration":207139,"Delta":205809929},{"NoteNumber":62,"Velocity":34,"Duration":207139,"SoundDuration":207139,"Delta":205809929},{"NoteNumber":78,"Velocity":46,"Duration":201572,"SoundDuration":201572,"Delta":206017069},{"NoteNumber":69,"Velocity":26,"Duration":201572,"SoundDuration":201572,"Delta":206017069},{"NoteNumber":59,"Velocity":29,"Duration":201572,"SoundDuration":201572,"Delta":206218641},{"NoteNumber":81,"Velocity":42,"Duration":50393,"SoundDuration":50393,"Delta":206369821},{"NoteNumber":79,"Velocity":47,"Duration":216091,"SoundDuration":216091,"Delta":206420214},{"NoteNumber":62,"Velocity":26,"Duration":216091,"SoundDuration":216091,"Delta":206420214},{"NoteNumber":78,"Velocity":51,"Duration":634563,"SoundDuration":634563,"Delta":206636305},{"NoteNumber":57,"Velocity":34,"Duration":211521,"SoundDuration":211521,"Delta":206636305},{"NoteNumber":62,"Velocity":27,"Duration":211521,"SoundDuration":211521,"Delta":206847826},{"NoteNumber":66,"Velocity":30,"Duration":211521,"SoundDuration":211521,"Delta":207059347},{"NoteNumber":79,"Velocity":44,"Duration":105760,"SoundDuration":105760,"Delta":207270868},{"NoteNumber":62,"Velocity":27,"Duration":211520,"SoundDuration":211520,"Delta":207270868},{"NoteNumber":78,"Velocity":42,"Duration":105760,"SoundDuration":105760,"Delta":207376629},{"NoteNumber":76,"Velocity":47,"Duration":223880,"SoundDuration":223880,"Delta":207482389},{"NoteNumber":61,"Velocity":33,"Duration":436646,"SoundDuration":436646,"Delta":207482389},{"NoteNumber":57,"Velocity":33,"Duration":436646,"SoundDuration":436646,"Delta":207482389},{"NoteNumber":78,"Velocity":42,"Duration":106382,"SoundDuration":106382,"Delta":207706270},{"NoteNumber":79,"Velocity":44,"Duration":107142,"SoundDuration":107142,"Delta":207919036},{"NoteNumber":80,"Velocity":47,"Duration":112082,"SoundDuration":112082,"Delta":208133321},{"NoteNumber":80,"Velocity":45,"Duration":218977,"SoundDuration":218977,"Delta":208357486},{"NoteNumber":62,"Velocity":34,"Duration":218977,"SoundDuration":218977,"Delta":208357486},{"NoteNumber":81,"Velocity":42,"Duration":208333,"SoundDuration":208333,"Delta":208576464},{"NoteNumber":65,"Velocity":27,"Duration":208333,"SoundDuration":208333,"Delta":208576464},{"NoteNumber":64,"Velocity":30,"Duration":217659,"SoundDuration":217659,"Delta":208784798},{"NoteNumber":81,"Velocity":40,"Duration":205718,"SoundDuration":205718,"Delta":209002457},{"NoteNumber":67,"Velocity":27,"Duration":205718,"SoundDuration":205718,"Delta":209002457},{"NoteNumber":86,"Velocity":46,"Duration":102859,"SoundDuration":102859,"Delta":209208176},{"NoteNumber":65,"Velocity":32,"Duration":205719,"SoundDuration":205719,"Delta":209208176},{"NoteNumber":84,"Velocity":42,"Duration":102859,"SoundDuration":102859,"Delta":209413895},{"NoteNumber":69,"Velocity":26,"Duration":102859,"SoundDuration":102859,"Delta":209413895},{"NoteNumber":82,"Velocity":44,"Duration":102859,"SoundDuration":102859,"Delta":209619614},{"NoteNumber":62,"Velocity":29,"Duration":205719,"SoundDuration":205719,"Delta":209619614},{"NoteNumber":81,"Velocity":42,"Duration":108829,"SoundDuration":108829,"Delta":209825333},{"NoteNumber":65,"Velocity":26,"Duration":108829,"SoundDuration":108829,"Delta":209825333},{"NoteNumber":78,"Velocity":48,"Duration":210039,"SoundDuration":210039,"Delta":210042993},{"NoteNumber":64,"Velocity":34,"Duration":210039,"SoundDuration":210039,"Delta":210042993},{"NoteNumber":79,"Velocity":42,"Duration":202935,"SoundDuration":202935,"Delta":210253033},{"NoteNumber":70,"Velocity":28,"Duration":202935,"SoundDuration":202935,"Delta":210253033},{"NoteNumber":67,"Velocity":32,"Duration":217659,"SoundDuration":217659,"Delta":210455969},{"NoteNumber":81,"Velocity":40,"Duration":51429,"SoundDuration":51429,"Delta":210673628},{"NoteNumber":64,"Velocity":28,"Duration":205718,"SoundDuration":205718,"Delta":210673628},{"NoteNumber":79,"Velocity":37,"Duration":51429,"SoundDuration":51429,"Delta":210725058},{"NoteNumber":78,"Velocity":37,"Duration":51429,"SoundDuration":51429,"Delta":210776488},{"NoteNumber":79,"Velocity":37,"Duration":51429,"SoundDuration":51429,"Delta":210827917},{"NoteNumber":81,"Velocity":45,"Duration":102859,"SoundDuration":102859,"Delta":210879347},{"NoteNumber":61,"Velocity":34,"Duration":205719,"SoundDuration":205719,"Delta":210879347},{"NoteNumber":79,"Velocity":42,"Duration":102859,"SoundDuration":102859,"Delta":211085066},{"NoteNumber":64,"Velocity":29,"Duration":102859,"SoundDuration":102859,"Delta":211085066},{"NoteNumber":77,"Velocity":45,"Duration":102859,"SoundDuration":102859,"Delta":211290785},{"NoteNumber":57,"Velocity":30,"Duration":205719,"SoundDuration":205719,"Delta":211290785},{"NoteNumber":76,"Velocity":42,"Duration":109624,"SoundDuration":109624,"Delta":211496504},{"NoteNumber":61,"Velocity":28,"Duration":109624,"SoundDuration":109624,"Delta":211496504},{"NoteNumber":79,"Velocity":45,"Duration":213022,"SoundDuration":213022,"Delta":211715754},{"NoteNumber":62,"Velocity":34,"Duration":213022,"SoundDuration":213022,"Delta":211715754},{"NoteNumber":77,"Velocity":42,"Duration":207139,"SoundDuration":207139,"Delta":211928777},{"NoteNumber":69,"Velocity":27,"Duration":207139,"SoundDuration":207139,"Delta":211928777},{"NoteNumber":60,"Velocity":30,"Duration":217659,"SoundDuration":217659,"Delta":212135917},{"NoteNumber":76,"Velocity":40,"Duration":205718,"SoundDuration":205718,"Delta":212353576},{"NoteNumber":69,"Velocity":27,"Duration":205718,"SoundDuration":205718,"Delta":212353576},{"NoteNumber":73,"Velocity":46,"Duration":205719,"SoundDuration":205719,"Delta":212559295},{"NoteNumber":58,"Velocity":32,"Duration":205719,"SoundDuration":205719,"Delta":212559295},{"NoteNumber":74,"Velocity":42,"Duration":205718,"SoundDuration":205718,"Delta":212765014},{"NoteNumber":65,"Velocity":26,"Duration":205718,"SoundDuration":205718,"Delta":212765014},{"NoteNumber":64,"Velocity":29,"Duration":205719,"SoundDuration":205719,"Delta":212970733},{"NoteNumber":80,"Velocity":46,"Duration":217659,"SoundDuration":217659,"Delta":213176452},{"NoteNumber":62,"Velocity":26,"Duration":217659,"SoundDuration":217659,"Delta":213176452},{"NoteNumber":80,"Velocity":49,"Duration":870638,"SoundDuration":870638,"Delta":213394112},{"NoteNumber":57,"Velocity":33,"Duration":217659,"SoundDuration":217659,"Delta":213394112},{"NoteNumber":62,"Velocity":22,"Duration":217659,"SoundDuration":217659,"Delta":213611771},{"NoteNumber":65,"Velocity":28,"Duration":217659,"SoundDuration":217659,"Delta":213829431},{"NoteNumber":62,"Velocity":24,"Duration":217659,"SoundDuration":217659,"Delta":214047090},{"NoteNumber":81,"Velocity":42,"Duration":217659,"SoundDuration":217659,"Delta":214264750},{"NoteNumber":61,"Velocity":31,"Duration":217659,"SoundDuration":217659,"Delta":214264750},{"NoteNumber":57,"Velocity":24,"Duration":217659,"SoundDuration":217659,"Delta":214264750},{"NoteNumber":43,"Velocity":45,"Duration":108829,"SoundDuration":108829,"Delta":214482409},{"NoteNumber":55,"Velocity":53,"Duration":108829,"SoundDuration":108829,"Delta":214482409},{"NoteNumber":42,"Velocity":48,"Duration":108829,"SoundDuration":108829,"Delta":214700069},{"NoteNumber":54,"Velocity":57,"Duration":108829,"SoundDuration":108829,"Delta":214700069},{"NoteNumber":52,"Velocity":61,"Duration":108829,"SoundDuration":108829,"Delta":214917728},{"NoteNumber":40,"Velocity":51,"Duration":108829,"SoundDuration":108829,"Delta":214917728},{"NoteNumber":78,"Velocity":46,"Duration":110432,"SoundDuration":110432,"Delta":215135388},{"NoteNumber":50,"Velocity":65,"Duration":426583,"SoundDuration":426583,"Delta":215135388},{"NoteNumber":38,"Velocity":55,"Duration":426583,"SoundDuration":426583,"Delta":215135388},{"NoteNumber":81,"Velocity":44,"Duration":110432,"SoundDuration":110432,"Delta":215245820},{"NoteNumber":80,"Velocity":47,"Duration":102859,"SoundDuration":102859,"Delta":215356252},{"NoteNumber":81,"Velocity":43,"Duration":102859,"SoundDuration":102859,"Delta":215459112},{"NoteNumber":83,"Velocity":50,"Duration":102859,"SoundDuration":102859,"Delta":215561971},{"NoteNumber":81,"Velocity":47,"Duration":102859,"SoundDuration":102859,"Delta":215664831},{"NoteNumber":80,"Velocity":53,"Duration":109624,"SoundDuration":109624,"Delta":215767690},{"NoteNumber":74,"Velocity":49,"Duration":109624,"SoundDuration":109624,"Delta":215767690},{"NoteNumber":81,"Velocity":53,"Duration":109624,"SoundDuration":109624,"Delta":215877315},{"NoteNumber":79,"Velocity":62,"Duration":105019,"SoundDuration":105019,"Delta":215986940},{"NoteNumber":76,"Velocity":55,"Duration":105019,"SoundDuration":105019,"Delta":215986940},{"NoteNumber":81,"Velocity":53,"Duration":105019,"SoundDuration":105019,"Delta":216091960},{"NoteNumber":79,"Velocity":55,"Duration":102859,"SoundDuration":102859,"Delta":216196980},{"NoteNumber":74,"Velocity":49,"Duration":102859,"SoundDuration":102859,"Delta":216196980},{"NoteNumber":81,"Velocity":52,"Duration":102859,"SoundDuration":102859,"Delta":216299840},{"NoteNumber":79,"Velocity":64,"Duration":102859,"SoundDuration":102859,"Delta":216402699},{"NoteNumber":73,"Velocity":58,"Duration":102859,"SoundDuration":102859,"Delta":216402699},{"NoteNumber":81,"Velocity":51,"Duration":102859,"SoundDuration":102859,"Delta":216505559},{"NoteNumber":79,"Velocity":55,"Duration":108829,"SoundDuration":108829,"Delta":216608418},{"NoteNumber":69,"Velocity":48,"Duration":108829,"SoundDuration":108829,"Delta":216608418},{"NoteNumber":81,"Velocity":49,"Duration":108829,"SoundDuration":108829,"Delta":216717248},{"NoteNumber":78,"Velocity":56,"Duration":110432,"SoundDuration":110432,"Delta":216826078},{"NoteNumber":74,"Velocity":54,"Duration":425182,"SoundDuration":425182,"Delta":216826078},{"NoteNumber":81,"Velocity":49,"Duration":110432,"SoundDuration":110432,"Delta":216936510},{"NoteNumber":80,"Velocity":51,"Duration":102159,"SoundDuration":102159,"Delta":217046942},{"NoteNumber":81,"Velocity":47,"Duration":102159,"SoundDuration":102159,"Delta":217149101},{"NoteNumber":83,"Velocity":54,"Duration":102159,"SoundDuration":102159,"Delta":217251260},{"NoteNumber":81,"Velocity":47,"Duration":102159,"SoundDuration":102159,"Delta":217353419},{"NoteNumber":80,"Velocity":51,"Duration":107913,"SoundDuration":107913,"Delta":217455578},{"NoteNumber":62,"Velocity":49,"Duration":107913,"SoundDuration":107913,"Delta":217455578},{"NoteNumber":81,"Velocity":53,"Duration":107913,"SoundDuration":107913,"Delta":217563492},{"NoteNumber":79,"Velocity":59,"Duration":105760,"SoundDuration":105760,"Delta":217671406},{"NoteNumber":64,"Velocity":55,"Duration":105760,"SoundDuration":105760,"Delta":217671406},{"NoteNumber":81,"Velocity":50,"Duration":105760,"SoundDuration":105760,"Delta":217777166},{"NoteNumber":79,"Velocity":55,"Duration":102859,"SoundDuration":102859,"Delta":217882927},{"NoteNumber":62,"Velocity":48,"Duration":102859,"SoundDuration":102859,"Delta":217882927},{"NoteNumber":81,"Velocity":52,"Duration":102859,"SoundDuration":102859,"Delta":217985786},{"NoteNumber":79,"Velocity":62,"Duration":102859,"SoundDuration":102859,"Delta":218088646},{"NoteNumber":61,"Velocity":54,"Duration":102859,"SoundDuration":102859,"Delta":218088646},{"NoteNumber":81,"Velocity":49,"Duration":102859,"SoundDuration":102859,"Delta":218191505},{"NoteNumber":79,"Velocity":55,"Duration":108829,"SoundDuration":108829,"Delta":218294365},{"NoteNumber":57,"Velocity":47,"Duration":108829,"SoundDuration":108829,"Delta":218294365},{"NoteNumber":81,"Velocity":49,"Duration":108829,"SoundDuration":108829,"Delta":218403194},{"NoteNumber":78,"Velocity":41,"Duration":418484,"SoundDuration":418484,"Delta":218512024},{"NoteNumber":62,"Velocity":52,"Duration":106382,"SoundDuration":106382,"Delta":218512024},{"NoteNumber":69,"Velocity":35,"Duration":106382,"SoundDuration":106382,"Delta":218618407},{"NoteNumber":68,"Velocity":42,"Duration":102859,"SoundDuration":102859,"Delta":218724790},{"NoteNumber":69,"Velocity":38,"Duration":102859,"SoundDuration":102859,"Delta":218827650},{"NoteNumber":71,"Velocity":47,"Duration":102859,"SoundDuration":102859,"Delta":218930509},{"NoteNumber":69,"Velocity":39,"Duration":102859,"SoundDuration":102859,"Delta":219033369},{"NoteNumber":86,"Velocity":57,"Duration":105633,"SoundDuration":105633,"Delta":219136228},{"NoteNumber":68,"Velocity":44,"Duration":105633,"SoundDuration":105633,"Delta":219136228},{"NoteNumber":69,"Velocity":40,"Duration":105633,"SoundDuration":105633,"Delta":219241862},{"NoteNumber":88,"Velocity":63,"Duration":105019,"SoundDuration":105019,"Delta":219347496},{"NoteNumber":67,"Velocity":47,"Duration":105019,"SoundDuration":105019,"Delta":219347496},{"NoteNumber":69,"Velocity":39,"Duration":105019,"SoundDuration":105019,"Delta":219452516},{"NoteNumber":86,"Velocity":58,"Duration":102859,"SoundDuration":102859,"Delta":219557536},{"NoteNumber":67,"Velocity":41,"Duration":102859,"SoundDuration":102859,"Delta":219557536},{"NoteNumber":69,"Velocity":39,"Duration":102859,"SoundDuration":102859,"Delta":219660395},{"NoteNumber":85,"Velocity":63,"Duration":102859,"SoundDuration":102859,"Delta":219763255},{"NoteNumber":67,"Velocity":49,"Duration":102859,"SoundDuration":102859,"Delta":219763255},{"NoteNumber":69,"Velocity":39,"Duration":102859,"SoundDuration":102859,"Delta":219866114},{"NoteNumber":81,"Velocity":58,"Duration":108829,"SoundDuration":108829,"Delta":219968974},{"NoteNumber":67,"Velocity":44,"Duration":108829,"SoundDuration":108829,"Delta":219968974},{"NoteNumber":69,"Velocity":39,"Duration":108829,"SoundDuration":108829,"Delta":220077803},{"NoteNumber":86,"Velocity":60,"Duration":426583,"SoundDuration":426583,"Delta":220186633},{"NoteNumber":66,"Velocity":39,"Duration":110432,"SoundDuration":110432,"Delta":220186633},{"NoteNumber":69,"Velocity":38,"Duration":110432,"SoundDuration":110432,"Delta":220297065},{"NoteNumber":68,"Velocity":41,"Duration":102859,"SoundDuration":102859,"Delta":220407498},{"NoteNumber":69,"Velocity":37,"Duration":102859,"SoundDuration":102859,"Delta":220510357},{"NoteNumber":71,"Velocity":40,"Duration":102859,"SoundDuration":102859,"Delta":220613217},{"NoteNumber":69,"Velocity":37,"Duration":102859,"SoundDuration":102859,"Delta":220716076},{"NoteNumber":50,"Velocity":57,"Duration":107142,"SoundDuration":107142,"Delta":220818936},{"NoteNumber":68,"Velocity":44,"Duration":107142,"SoundDuration":107142,"Delta":220818936},{"NoteNumber":69,"Velocity":40,"Duration":107142,"SoundDuration":107142,"Delta":220926078},{"NoteNumber":52,"Velocity":63,"Duration":107272,"SoundDuration":107272,"Delta":221033221},{"NoteNumber":67,"Velocity":47,"Duration":107272,"SoundDuration":107272,"Delta":221033221},{"NoteNumber":69,"Velocity":42,"Duration":107273,"SoundDuration":107273,"Delta":221140494},{"NoteNumber":50,"Velocity":58,"Duration":102159,"SoundDuration":102159,"Delta":221247767},{"NoteNumber":67,"Velocity":44,"Duration":102159,"SoundDuration":102159,"Delta":221247767},{"NoteNumber":69,"Velocity":39,"Duration":102159,"SoundDuration":102159,"Delta":221349926},{"NoteNumber":49,"Velocity":60,"Duration":102159,"SoundDuration":102159,"Delta":221452085},{"NoteNumber":67,"Velocity":49,"Duration":102159,"SoundDuration":102159,"Delta":221452085},{"NoteNumber":69,"Velocity":43,"Duration":102159,"SoundDuration":102159,"Delta":221554244},{"NoteNumber":45,"Velocity":58,"Duration":108829,"SoundDuration":108829,"Delta":221656403},{"NoteNumber":67,"Velocity":47,"Duration":108829,"SoundDuration":108829,"Delta":221656403},{"NoteNumber":69,"Velocity":39,"Duration":108829,"SoundDuration":108829,"Delta":221765233},{"NoteNumber":50,"Velocity":60,"Duration":435318,"SoundDuration":435318,"Delta":221874063},{"NoteNumber":66,"Velocity":41,"Duration":435318,"SoundDuration":435318,"Delta":221874063},{"NoteNumber":81,"Velocity":50,"Duration":423042,"SoundDuration":423042,"Delta":222309382},{"NoteNumber":66,"Velocity":35,"Duration":105760,"SoundDuration":105760,"Delta":222309382},{"NoteNumber":74,"Velocity":29,"Duration":105760,"SoundDuration":105760,"Delta":222415142},{"NoteNumber":66,"Velocity":29,"Duration":105760,"SoundDuration":105760,"Delta":222520903},{"NoteNumber":74,"Velocity":29,"Duration":105760,"SoundDuration":105760,"Delta":222626663},{"NoteNumber":79,"Velocity":47,"Duration":429091,"SoundDuration":429091,"Delta":222732424},{"NoteNumber":64,"Velocity":35,"Duration":107272,"SoundDuration":107272,"Delta":222732424},{"NoteNumber":74,"Velocity":30,"Duration":107273,"SoundDuration":107273,"Delta":222839697},{"NoteNumber":64,"Velocity":30,"Duration":107272,"SoundDuration":107272,"Delta":222946970},{"NoteNumber":74,"Velocity":30,"Duration":107272,"SoundDuration":107272,"Delta":223054243},{"NoteNumber":78,"Velocity":46,"Duration":448329,"SoundDuration":448329,"Delta":223161516},{"NoteNumber":62,"Velocity":35,"Duration":112082,"SoundDuration":112082,"Delta":223161516},{"NoteNumber":74,"Velocity":31,"Duration":112082,"SoundDuration":112082,"Delta":223273598},{"NoteNumber":62,"Velocity":31,"Duration":112082,"SoundDuration":112082,"Delta":223385681},{"NoteNumber":74,"Velocity":31,"Duration":112082,"SoundDuration":112082,"Delta":223497763},{"NoteNumber":83,"Velocity":50,"Duration":324137,"SoundDuration":324137,"Delta":223609846},{"NoteNumber":67,"Velocity":35,"Duration":108045,"SoundDuration":108045,"Delta":223609846},{"NoteNumber":74,"Velocity":30,"Duration":108045,"SoundDuration":108045,"Delta":223717891},{"NoteNumber":73,"Velocity":30,"Duration":108045,"SoundDuration":108045,"Delta":223825937},{"NoteNumber":85,"Velocity":45,"Duration":39736,"SoundDuration":39736,"Delta":223933983},{"NoteNumber":74,"Velocity":30,"Duration":119208,"SoundDuration":119208,"Delta":223933983},{"NoteNumber":83,"Velocity":45,"Duration":39736,"SoundDuration":39736,"Delta":223973719},{"NoteNumber":81,"Velocity":45,"Duration":39636,"SoundDuration":39636,"Delta":224014449},{"NoteNumber":83,"Velocity":50,"Duration":107272,"SoundDuration":107272,"Delta":224053191},{"NoteNumber":67,"Velocity":35,"Duration":107272,"SoundDuration":107272,"Delta":224053191},{"NoteNumber":74,"Velocity":30,"Duration":107273,"SoundDuration":107273,"Delta":224160464},{"NoteNumber":85,"Velocity":47,"Duration":112082,"SoundDuration":112082,"Delta":224267737},{"NoteNumber":73,"Velocity":30,"Duration":112082,"SoundDuration":112082,"Delta":224267737},{"NoteNumber":74,"Velocity":30,"Duration":112082,"SoundDuration":112082,"Delta":224379820},{"NoteNumber":88,"Velocity":50,"Duration":213022,"SoundDuration":213022,"Delta":224491902},{"NoteNumber":67,"Velocity":30,"Duration":106511,"SoundDuration":106511,"Delta":224491902},{"NoteNumber":74,"Velocity":32,"Duration":106511,"SoundDuration":106511,"Delta":224598414},{"NoteNumber":86,"Velocity":45,"Duration":106511,"SoundDuration":106511,"Delta":224704925},{"NoteNumber":73,"Velocity":32,"Duration":106511,"SoundDuration":106511,"Delta":224704925},{"NoteNumber":74,"Velocity":32,"Duration":106511,"SoundDuration":106511,"Delta":224811437},{"NoteNumber":85,"Velocity":47,"Duration":213022,"SoundDuration":213022,"Delta":224917948},{"NoteNumber":67,"Velocity":34,"Duration":106511,"SoundDuration":106511,"Delta":224917948},{"NoteNumber":74,"Velocity":30,"Duration":106511,"SoundDuration":106511,"Delta":225024460},{"NoteNumber":83,"Velocity":45,"Duration":115535,"SoundDuration":115535,"Delta":225130971},{"NoteNumber":73,"Velocity":30,"Duration":115535,"SoundDuration":115535,"Delta":225130971},{"NoteNumber":74,"Velocity":30,"Duration":115535,"SoundDuration":115535,"Delta":225246507},{"NoteNumber":81,"Velocity":50,"Duration":227565,"SoundDuration":227565,"Delta":225362043},{"NoteNumber":66,"Velocity":37,"Duration":113783,"SoundDuration":113783,"Delta":225362043},{"NoteNumber":74,"Velocity":37,"Duration":113782,"SoundDuration":113782,"Delta":225475826},{"NoteNumber":73,"Velocity":28,"Duration":113783,"SoundDuration":113783,"Delta":225589609},{"NoteNumber":74,"Velocity":28,"Duration":113782,"SoundDuration":113782,"Delta":225703392},{"NoteNumber":81,"Velocity":60,"Duration":423042,"SoundDuration":423042,"Delta":225817175},{"NoteNumber":66,"Velocity":45,"Duration":105760,"SoundDuration":105760,"Delta":225817175},{"NoteNumber":74,"Velocity":37,"Duration":105760,"SoundDuration":105760,"Delta":225922935},{"NoteNumber":66,"Velocity":37,"Duration":105760,"SoundDuration":105760,"Delta":226028696},{"NoteNumber":74,"Velocity":37,"Duration":105760,"SoundDuration":105760,"Delta":226134456},{"NoteNumber":79,"Velocity":60,"Duration":429091,"SoundDuration":429091,"Delta":226240217},{"NoteNumber":64,"Velocity":45,"Duration":107272,"SoundDuration":107272,"Delta":226240217},{"NoteNumber":74,"Velocity":39,"Duration":107273,"SoundDuration":107273,"Delta":226347490},{"NoteNumber":64,"Velocity":39,"Duration":107272,"SoundDuration":107272,"Delta":226454763},{"NoteNumber":74,"Velocity":39,"Duration":107272,"SoundDuration":107272,"Delta":226562036},{"NoteNumber":78,"Velocity":59,"Duration":448329,"SoundDuration":448329,"Delta":226669309},{"NoteNumber":62,"Velocity":45,"Duration":112082,"SoundDuration":112082,"Delta":226669309},{"NoteNumber":74,"Velocity":40,"Duration":112082,"SoundDuration":112082,"Delta":226781391},{"NoteNumber":62,"Velocity":40,"Duration":112082,"SoundDuration":112082,"Delta":226893474},{"NoteNumber":74,"Velocity":40,"Duration":112082,"SoundDuration":112082,"Delta":227005556},{"NoteNumber":76,"Velocity":68,"Duration":324137,"SoundDuration":324137,"Delta":227117639},{"NoteNumber":55,"Velocity":45,"Duration":108045,"SoundDuration":108045,"Delta":227117639},{"NoteNumber":64,"Velocity":39,"Duration":108045,"SoundDuration":108045,"Delta":227225685},{"NoteNumber":59,"Velocity":39,"Duration":108045,"SoundDuration":108045,"Delta":227333730},{"NoteNumber":83,"Velocity":53,"Duration":119208,"SoundDuration":119208,"Delta":227441776},{"NoteNumber":64,"Velocity":39,"Duration":119208,"SoundDuration":119208,"Delta":227441776},{"NoteNumber":81,"Velocity":60,"Duration":107272,"SoundDuration":107272,"Delta":227560985},{"NoteNumber":55,"Velocity":45,"Duration":107272,"SoundDuration":107272,"Delta":227560985},{"NoteNumber":79,"Velocity":58,"Duration":107273,"SoundDuration":107273,"Delta":227668258},{"NoteNumber":64,"Velocity":39,"Duration":107273,"SoundDuration":107273,"Delta":227668258},{"NoteNumber":78,"Velocity":58,"Duration":112082,"SoundDuration":112082,"Delta":227775531},{"NoteNumber":59,"Velocity":39,"Duration":112082,"SoundDuration":112082,"Delta":227775531},{"NoteNumber":76,"Velocity":58,"Duration":112082,"SoundDuration":112082,"Delta":227887613},{"NoteNumber":64,"Velocity":39,"Duration":112082,"SoundDuration":112082,"Delta":227887613},{"NoteNumber":74,"Velocity":63,"Duration":426046,"SoundDuration":426046,"Delta":227999696},{"NoteNumber":57,"Velocity":39,"Duration":106511,"SoundDuration":106511,"Delta":227999696},{"NoteNumber":66,"Velocity":41,"Duration":106511,"SoundDuration":106511,"Delta":228106207},{"NoteNumber":62,"Velocity":41,"Duration":106511,"SoundDuration":106511,"Delta":228212719},{"NoteNumber":66,"Velocity":41,"Duration":106511,"SoundDuration":106511,"Delta":228319230},{"NoteNumber":76,"Velocity":55,"Duration":54164,"SoundDuration":54164,"Delta":228425742},{"NoteNumber":57,"Velocity":44,"Duration":110629,"SoundDuration":110629,"Delta":228425742},{"NoteNumber":78,"Velocity":49,"Duration":56464,"SoundDuration":56464,"Delta":228479906},{"NoteNumber":76,"Velocity":56,"Duration":55627,"SoundDuration":55627,"Delta":228536371},{"NoteNumber":67,"Velocity":39,"Duration":110441,"SoundDuration":110441,"Delta":228536371},{"NoteNumber":78,"Velocity":50,"Duration":54814,"SoundDuration":54814,"Delta":228591998},{"NoteNumber":76,"Velocity":56,"Duration":74055,"SoundDuration":74055,"Delta":228646812},{"NoteNumber":61,"Velocity":39,"Duration":112272,"SoundDuration":112272,"Delta":228646812},{"NoteNumber":74,"Velocity":48,"Duration":76435,"SoundDuration":76435,"Delta":228720868},{"NoteNumber":67,"Velocity":39,"Duration":114652,"SoundDuration":114652,"Delta":228759085},{"NoteNumber":76,"Velocity":48,"Duration":76435,"SoundDuration":76435,"Delta":228797303},{"NoteNumber":74,"Velocity":66,"Duration":214546,"SoundDuration":214546,"Delta":228873738},{"NoteNumber":62,"Velocity":48,"Duration":107272,"SoundDuration":107272,"Delta":228873738},{"NoteNumber":66,"Velocity":42,"Duration":107273,"SoundDuration":107273,"Delta":228981011},{"NoteNumber":62,"Velocity":36,"Duration":110432,"SoundDuration":110432,"Delta":229088284},{"NoteNumber":66,"Velocity":36,"Duration":135342,"SoundDuration":135342,"Delta":229198716},{"NoteNumber":69,"Velocity":50,"Duration":423042,"SoundDuration":423042,"Delta":229334059},{"NoteNumber":54,"Velocity":35,"Duration":105760,"SoundDuration":105760,"Delta":229334059},{"NoteNumber":62,"Velocity":29,"Duration":105760,"SoundDuration":105760,"Delta":229439819},{"NoteNumber":54,"Velocity":29,"Duration":105760,"SoundDuration":105760,"Delta":229545580},{"NoteNumber":62,"Velocity":29,"Duration":105760,"SoundDuration":105760,"Delta":229651340},{"NoteNumber":67,"Velocity":47,"Duration":429091,"SoundDuration":429091,"Delta":229757101},{"NoteNumber":52,"Velocity":35,"Duration":107272,"SoundDuration":107272,"Delta":229757101},{"NoteNumber":62,"Velocity":30,"Duration":107273,"SoundDuration":107273,"Delta":229864374},{"NoteNumber":52,"Velocity":30,"Duration":107272,"SoundDuration":107272,"Delta":229971647},{"NoteNumber":62,"Velocity":30,"Duration":107272,"SoundDuration":107272,"Delta":230078920},{"NoteNumber":66,"Velocity":46,"Duration":448329,"SoundDuration":448329,"Delta":230186193},{"NoteNumber":50,"Velocity":35,"Duration":112082,"SoundDuration":112082,"Delta":230186193},{"NoteNumber":62,"Velocity":31,"Duration":112082,"SoundDuration":112082,"Delta":230298275},{"NoteNumber":50,"Velocity":31,"Duration":112082,"SoundDuration":112082,"Delta":230410358},{"NoteNumber":62,"Velocity":31,"Duration":112082,"SoundDuration":112082,"Delta":230522440},{"NoteNumber":71,"Velocity":50,"Duration":324137,"SoundDuration":324137,"Delta":230634523},{"NoteNumber":55,"Velocity":35,"Duration":108045,"SoundDuration":108045,"Delta":230634523},{"NoteNumber":62,"Velocity":30,"Duration":108045,"SoundDuration":108045,"Delta":230742568},{"NoteNumber":61,"Velocity":30,"Duration":108045,"SoundDuration":108045,"Delta":230850614},{"NoteNumber":73,"Velocity":45,"Duration":39736,"SoundDuration":39736,"Delta":230958660},{"NoteNumber":62,"Velocity":30,"Duration":119208,"SoundDuration":119208,"Delta":230958660},{"NoteNumber":71,"Velocity":45,"Duration":39736,"SoundDuration":39736,"Delta":230998396},{"NoteNumber":69,"Velocity":45,"Duration":39636,"SoundDuration":39636,"Delta":231039126},{"NoteNumber":71,"Velocity":50,"Duration":107272,"SoundDuration":107272,"Delta":231077868},{"NoteNumber":55,"Velocity":35,"Duration":107272,"SoundDuration":107272,"Delta":231077868},{"NoteNumber":62,"Velocity":30,"Duration":107273,"SoundDuration":107273,"Delta":231185141},{"NoteNumber":73,"Velocity":47,"Duration":112082,"SoundDuration":112082,"Delta":231292414},{"NoteNumber":61,"Velocity":30,"Duration":112082,"SoundDuration":112082,"Delta":231292414},{"NoteNumber":62,"Velocity":30,"Duration":112082,"SoundDuration":112082,"Delta":231404497},{"NoteNumber":76,"Velocity":50,"Duration":213022,"SoundDuration":213022,"Delta":231516579},{"NoteNumber":55,"Velocity":30,"Duration":106511,"SoundDuration":106511,"Delta":231516579},{"NoteNumber":62,"Velocity":32,"Duration":106511,"SoundDuration":106511,"Delta":231623091},{"NoteNumber":74,"Velocity":45,"Duration":213023,"SoundDuration":213023,"Delta":231729602},{"NoteNumber":61,"Velocity":32,"Duration":106511,"SoundDuration":106511,"Delta":231729602},{"NoteNumber":62,"Velocity":32,"Duration":106511,"SoundDuration":106511,"Delta":231836114},{"NoteNumber":73,"Velocity":47,"Duration":213022,"SoundDuration":213022,"Delta":231942625},{"NoteNumber":55,"Velocity":34,"Duration":106511,"SoundDuration":106511,"Delta":231942625},{"NoteNumber":62,"Velocity":30,"Duration":106511,"SoundDuration":106511,"Delta":232049137},{"NoteNumber":71,"Velocity":45,"Duration":231071,"SoundDuration":231071,"Delta":232155648},{"NoteNumber":61,"Velocity":30,"Duration":115535,"SoundDuration":115535,"Delta":232155648},{"NoteNumber":62,"Velocity":30,"Duration":115535,"SoundDuration":115535,"Delta":232271184},{"NoteNumber":69,"Velocity":50,"Duration":227565,"SoundDuration":227565,"Delta":232386720},{"NoteNumber":54,"Velocity":37,"Duration":113783,"SoundDuration":113783,"Delta":232386720},{"NoteNumber":62,"Velocity":37,"Duration":113782,"SoundDuration":113782,"Delta":232500503},{"NoteNumber":61,"Velocity":28,"Duration":113783,"SoundDuration":113783,"Delta":232614286},{"NoteNumber":62,"Velocity":28,"Duration":113782,"SoundDuration":113782,"Delta":232728069},{"NoteNumber":69,"Velocity":56,"Duration":423042,"SoundDuration":423042,"Delta":232841852},{"NoteNumber":81,"Velocity":66,"Duration":423042,"SoundDuration":423042,"Delta":232841852},{"NoteNumber":42,"Velocity":49,"Duration":105760,"SoundDuration":105760,"Delta":232841852},{"NoteNumber":50,"Velocity":40,"Duration":105760,"SoundDuration":105760,"Delta":232947612},{"NoteNumber":42,"Velocity":40,"Duration":105760,"SoundDuration":105760,"Delta":233053373},{"NoteNumber":50,"Velocity":40,"Duration":105760,"SoundDuration":105760,"Delta":233159133},{"NoteNumber":79,"Velocity":66,"Duration":429091,"SoundDuration":429091,"Delta":233264894},{"NoteNumber":67,"Velocity":56,"Duration":429091,"SoundDuration":429091,"Delta":233264894},{"NoteNumber":40,"Velocity":49,"Duration":107272,"SoundDuration":107272,"Delta":233264894},{"NoteNumber":50,"Velocity":42,"Duration":107273,"SoundDuration":107273,"Delta":233372167},{"NoteNumber":40,"Velocity":42,"Duration":107272,"SoundDuration":107272,"Delta":233479440},{"NoteNumber":50,"Velocity":42,"Duration":107272,"SoundDuration":107272,"Delta":233586713},{"NoteNumber":66,"Velocity":55,"Duration":448329,"SoundDuration":448329,"Delta":233693986},{"NoteNumber":78,"Velocity":64,"Duration":448329,"SoundDuration":448329,"Delta":233693986},{"NoteNumber":38,"Velocity":49,"Duration":112082,"SoundDuration":112082,"Delta":233693986},{"NoteNumber":50,"Velocity":44,"Duration":112082,"SoundDuration":112082,"Delta":233806068},{"NoteNumber":38,"Velocity":44,"Duration":112082,"SoundDuration":112082,"Delta":233918151},{"NoteNumber":50,"Velocity":44,"Duration":112082,"SoundDuration":112082,"Delta":234030233},{"NoteNumber":64,"Velocity":57,"Duration":324137,"SoundDuration":324137,"Delta":234142316},{"NoteNumber":76,"Velocity":70,"Duration":324137,"SoundDuration":324137,"Delta":234142316},{"NoteNumber":43,"Velocity":49,"Duration":108045,"SoundDuration":108045,"Delta":234142316},{"NoteNumber":52,"Velocity":42,"Duration":108045,"SoundDuration":108045,"Delta":234250362},{"NoteNumber":47,"Velocity":42,"Duration":108045,"SoundDuration":108045,"Delta":234358407},{"NoteNumber":83,"Velocity":58,"Duration":119208,"SoundDuration":119208,"Delta":234466453},{"NoteNumber":52,"Velocity":42,"Duration":119208,"SoundDuration":119208,"Delta":234466453},{"NoteNumber":81,"Velocity":66,"Duration":107272,"SoundDuration":107272,"Delta":234585662},{"NoteNumber":43,"Velocity":49,"Duration":107272,"SoundDuration":107272,"Delta":234585662},{"NoteNumber":79,"Velocity":63,"Duration":107273,"SoundDuration":107273,"Delta":234692935},{"NoteNumber":52,"Velocity":42,"Duration":107273,"SoundDuration":107273,"Delta":234692935},{"NoteNumber":78,"Velocity":63,"Duration":112082,"SoundDuration":112082,"Delta":234800208},{"NoteNumber":47,"Velocity":42,"Duration":112082,"SoundDuration":112082,"Delta":234800208},{"NoteNumber":76,"Velocity":63,"Duration":112082,"SoundDuration":112082,"Delta":234912290},{"NoteNumber":52,"Velocity":42,"Duration":112082,"SoundDuration":112082,"Delta":234912290},{"NoteNumber":74,"Velocity":69,"Duration":426046,"SoundDuration":426046,"Delta":235024373},{"NoteNumber":45,"Velocity":42,"Duration":106511,"SoundDuration":106511,"Delta":235024373},{"NoteNumber":54,"Velocity":45,"Duration":106511,"SoundDuration":106511,"Delta":235130884},{"NoteNumber":50,"Velocity":45,"Duration":106511,"SoundDuration":106511,"Delta":235237396},{"NoteNumber":54,"Velocity":45,"Duration":106511,"SoundDuration":106511,"Delta":235343907},{"NoteNumber":76,"Velocity":60,"Duration":54164,"SoundDuration":54164,"Delta":235450419},{"NoteNumber":45,"Velocity":48,"Duration":110629,"SoundDuration":110629,"Delta":235450419},{"NoteNumber":78,"Velocity":53,"Duration":56464,"SoundDuration":56464,"Delta":235504583},{"NoteNumber":76,"Velocity":61,"Duration":55627,"SoundDuration":55627,"Delta":235561048},{"NoteNumber":55,"Velocity":42,"Duration":110441,"SoundDuration":110441,"Delta":235561048},{"NoteNumber":78,"Velocity":55,"Duration":54814,"SoundDuration":54814,"Delta":235616675},{"NoteNumber":76,"Velocity":61,"Duration":74055,"SoundDuration":74055,"Delta":235671489},{"NoteNumber":49,"Velocity":42,"Duration":112272,"SoundDuration":112272,"Delta":235671489},{"NoteNumber":74,"Velocity":52,"Duration":76435,"SoundDuration":76435,"Delta":235745545},{"NoteNumber":55,"Velocity":42,"Duration":114652,"SoundDuration":114652,"Delta":235783762},{"NoteNumber":76,"Velocity":52,"Duration":76435,"SoundDuration":76435,"Delta":235821980},{"NoteNumber":69,"Velocity":62,"Duration":423042,"SoundDuration":423042,"Delta":235898415},{"NoteNumber":74,"Velocity":74,"Duration":423042,"SoundDuration":423042,"Delta":235898415},{"NoteNumber":66,"Velocity":62,"Duration":423042,"SoundDuration":423042,"Delta":235898415},{"NoteNumber":38,"Velocity":59,"Duration":423042,"SoundDuration":423042,"Delta":235898415},{"NoteNumber":50,"Velocity":70,"Duration":423042,"SoundDuration":423042,"Delta":235898415},{"NoteNumber":45,"Velocity":59,"Duration":423042,"SoundDuration":423042,"Delta":235898415},{"NoteNumber":79,"Velocity":66,"Duration":111614,"SoundDuration":111614,"Delta":236744499},{"NoteNumber":62,"Velocity":37,"Duration":405871,"SoundDuration":405871,"Delta":236744499},{"NoteNumber":66,"Velocity":45,"Duration":405871,"SoundDuration":405871,"Delta":236744499},{"NoteNumber":78,"Velocity":55,"Duration":111614,"SoundDuration":111614,"Delta":236845967},{"NoteNumber":76,"Velocity":54,"Duration":111614,"SoundDuration":111614,"Delta":236947435},{"NoteNumber":78,"Velocity":54,"Duration":111614,"SoundDuration":111614,"Delta":237048903},{"NoteNumber":81,"Velocity":65,"Duration":111614,"SoundDuration":111614,"Delta":237150371},{"NoteNumber":64,"Velocity":37,"Duration":423800,"SoundDuration":423800,"Delta":237150371},{"NoteNumber":67,"Velocity":45,"Duration":423800,"SoundDuration":423800,"Delta":237150371},{"NoteNumber":79,"Velocity":55,"Duration":112511,"SoundDuration":112511,"Delta":237251839},{"NoteNumber":78,"Velocity":55,"Duration":121475,"SoundDuration":121475,"Delta":237353307},{"NoteNumber":79,"Velocity":55,"Duration":120510,"SoundDuration":120510,"Delta":237463739},{"NoteNumber":81,"Velocity":62,"Duration":403144,"SoundDuration":403144,"Delta":237574171},{"NoteNumber":69,"Velocity":45,"Duration":403144,"SoundDuration":403144,"Delta":237574171},{"NoteNumber":66,"Velocity":37,"Duration":403144,"SoundDuration":403144,"Delta":237574171},{"NoteNumber":81,"Velocity":50,"Duration":50393,"SoundDuration":50393,"Delta":238385952},{"NoteNumber":83,"Velocity":45,"Duration":50393,"SoundDuration":50393,"Delta":238587525},{"NoteNumber":85,"Velocity":45,"Duration":50393,"SoundDuration":50393,"Delta":238789097},{"NoteNumber":86,"Velocity":45,"Duration":52144,"SoundDuration":52144,"Delta":238990670},{"NoteNumber":81,"Velocity":54,"Duration":403144,"SoundDuration":403144,"Delta":239199249},{"NoteNumber":54,"Velocity":38,"Duration":201572,"SoundDuration":201572,"Delta":239199249},{"NoteNumber":62,"Velocity":32,"Duration":201572,"SoundDuration":201572,"Delta":239400822},{"NoteNumber":78,"Velocity":45,"Duration":403144,"SoundDuration":403144,"Delta":239602394},{"NoteNumber":50,"Velocity":38,"Duration":201572,"SoundDuration":201572,"Delta":239602394},{"NoteNumber":62,"Velocity":33,"Duration":201572,"SoundDuration":201572,"Delta":239803967},{"NoteNumber":81,"Velocity":50,"Duration":100786,"SoundDuration":100786,"Delta":240005539},{"NoteNumber":52,"Velocity":37,"Duration":201572,"SoundDuration":201572,"Delta":240005539},{"NoteNumber":79,"Velocity":44,"Duration":100786,"SoundDuration":100786,"Delta":240106325},{"NoteNumber":78,"Velocity":44,"Duration":100786,"SoundDuration":100786,"Delta":240207112},{"NoteNumber":62,"Velocity":32,"Duration":201572,"SoundDuration":201572,"Delta":240207112},{"NoteNumber":79,"Velocity":44,"Duration":100786,"SoundDuration":100786,"Delta":240307898},{"NoteNumber":81,"Velocity":49,"Duration":50393,"SoundDuration":50393,"Delta":240408684},{"NoteNumber":57,"Velocity":37,"Duration":50393,"SoundDuration":50393,"Delta":240408684},{"NoteNumber":79,"Velocity":46,"Duration":54022,"SoundDuration":54022,"Delta":240610257},{"NoteNumber":61,"Velocity":30,"Duration":54022,"SoundDuration":54022,"Delta":240610257},{"NoteNumber":77,"Velocity":54,"Duration":208579,"SoundDuration":208579,"Delta":240826348},{"NoteNumber":62,"Velocity":42,"Duration":408806,"SoundDuration":408806,"Delta":240826348},{"NoteNumber":50,"Velocity":42,"Duration":408806,"SoundDuration":408806,"Delta":240826348},{"NoteNumber":78,"Velocity":45,"Duration":200226,"SoundDuration":200226,"Delta":241034928},{"NoteNumber":79,"Velocity":66,"Duration":111614,"SoundDuration":111614,"Delta":241635609},{"NoteNumber":62,"Velocity":37,"Duration":101468,"SoundDuration":101468,"Delta":241635609},{"NoteNumber":66,"Velocity":45,"Duration":101468,"SoundDuration":101468,"Delta":241635609},{"NoteNumber":78,"Velocity":55,"Duration":111614,"SoundDuration":111614,"Delta":241737077},{"NoteNumber":76,"Velocity":54,"Duration":111614,"SoundDuration":111614,"Delta":241838545},{"NoteNumber":62,"Velocity":31,"Duration":101468,"SoundDuration":101468,"Delta":241838545},{"NoteNumber":66,"Velocity":38,"Duration":101468,"SoundDuration":101468,"Delta":241838545},{"NoteNumber":78,"Velocity":54,"Duration":111614,"SoundDuration":111614,"Delta":241940013},{"NoteNumber":81,"Velocity":65,"Duration":111614,"SoundDuration":111614,"Delta":242041481},{"NoteNumber":64,"Velocity":37,"Duration":101468,"SoundDuration":101468,"Delta":242041481},{"NoteNumber":67,"Velocity":45,"Duration":101468,"SoundDuration":101468,"Delta":242041481},{"NoteNumber":79,"Velocity":55,"Duration":112511,"SoundDuration":112511,"Delta":242142949},{"NoteNumber":78,"Velocity":55,"Duration":121475,"SoundDuration":121475,"Delta":242244417},{"NoteNumber":67,"Velocity":38,"Duration":110432,"SoundDuration":110432,"Delta":242244417},{"NoteNumber":64,"Velocity":31,"Duration":110432,"SoundDuration":110432,"Delta":242244417},{"NoteNumber":79,"Velocity":55,"Duration":120510,"SoundDuration":120510,"Delta":242354849},{"NoteNumber":81,"Velocity":62,"Duration":403144,"SoundDuration":403144,"Delta":242465281},{"NoteNumber":66,"Velocity":37,"Duration":403144,"SoundDuration":403144,"Delta":242465281},{"NoteNumber":69,"Velocity":45,"Duration":403144,"SoundDuration":403144,"Delta":242465281},{"NoteNumber":81,"Velocity":50,"Duration":50393,"SoundDuration":50393,"Delta":243277062},{"NoteNumber":83,"Velocity":45,"Duration":50393,"SoundDuration":50393,"Delta":243478635},{"NoteNumber":85,"Velocity":45,"Duration":50393,"SoundDuration":50393,"Delta":243680207},{"NoteNumber":86,"Velocity":45,"Duration":52144,"SoundDuration":52144,"Delta":243881780},{"NoteNumber":81,"Velocity":54,"Duration":403144,"SoundDuration":403144,"Delta":244090359},{"NoteNumber":54,"Velocity":38,"Duration":201572,"SoundDuration":201572,"Delta":244090359},{"NoteNumber":62,"Velocity":32,"Duration":201572,"SoundDuration":201572,"Delta":244291932},{"NoteNumber":78,"Velocity":45,"Duration":403144,"SoundDuration":403144,"Delta":244493504},{"NoteNumber":50,"Velocity":38,"Duration":201572,"SoundDuration":201572,"Delta":244493504},{"NoteNumber":62,"Velocity":33,"Duration":201572,"SoundDuration":201572,"Delta":244695077},{"NoteNumber":81,"Velocity":50,"Duration":100786,"SoundDuration":100786,"Delta":244896649},{"NoteNumber":52,"Velocity":37,"Duration":201572,"SoundDuration":201572,"Delta":244896649},{"NoteNumber":79,"Velocity":44,"Duration":100786,"SoundDuration":100786,"Delta":244997435},{"NoteNumber":78,"Velocity":44,"Duration":100786,"SoundDuration":100786,"Delta":245098222},{"NoteNumber":62,"Velocity":32,"Duration":201572,"SoundDuration":201572,"Delta":245098222},{"NoteNumber":79,"Velocity":44,"Duration":100786,"SoundDuration":100786,"Delta":245199008},{"NoteNumber":81,"Velocity":50,"Duration":100786,"SoundDuration":100786,"Delta":245299794},{"NoteNumber":57,"Velocity":37,"Duration":201572,"SoundDuration":201572,"Delta":245299794},{"NoteNumber":79,"Velocity":44,"Duration":100786,"SoundDuration":100786,"Delta":245400580},{"NoteNumber":78,"Velocity":44,"Duration":104289,"SoundDuration":104289,"Delta":245501367},{"NoteNumber":61,"Velocity":32,"Duration":207685,"SoundDuration":207685,"Delta":245501367},{"NoteNumber":76,"Velocity":44,"Duration":103395,"SoundDuration":103395,"Delta":245605656},{"NoteNumber":74,"Velocity":45,"Duration":102771,"SoundDuration":102771,"Delta":245709052},{"NoteNumber":54,"Velocity":47,"Duration":102771,"SoundDuration":102771,"Delta":245709052},{"NoteNumber":76,"Velocity":46,"Duration":102159,"SoundDuration":102159,"Delta":245811824},{"NoteNumber":62,"Velocity":39,"Duration":102159,"SoundDuration":102159,"Delta":245811824},{"NoteNumber":78,"Velocity":48,"Duration":101554,"SoundDuration":101554,"Delta":245913983},{"NoteNumber":57,"Velocity":39,"Duration":101554,"SoundDuration":101554,"Delta":245913983},{"NoteNumber":79,"Velocity":49,"Duration":101212,"SoundDuration":101212,"Delta":246015538},{"NoteNumber":62,"Velocity":39,"Duration":101212,"SoundDuration":101212,"Delta":246015538},{"NoteNumber":81,"Velocity":50,"Duration":100702,"SoundDuration":100702,"Delta":246116750},{"NoteNumber":54,"Velocity":48,"Duration":100702,"SoundDuration":100702,"Delta":246116750},{"NoteNumber":83,"Velocity":51,"Duration":100113,"SoundDuration":100113,"Delta":246217452},{"NoteNumber":62,"Velocity":40,"Duration":100113,"SoundDuration":100113,"Delta":246217452},{"NoteNumber":85,"Velocity":53,"Duration":100113,"SoundDuration":100113,"Delta":246317566},{"NoteNumber":57,"Velocity":40,"Duration":100113,"SoundDuration":100113,"Delta":246317566},{"NoteNumber":86,"Velocity":54,"Duration":102742,"SoundDuration":102742,"Delta":246417679},{"NoteNumber":62,"Velocity":40,"Duration":112082,"SoundDuration":112082,"Delta":246417679},{"NoteNumber":86,"Velocity":58,"Duration":403144,"SoundDuration":403144,"Delta":246529762},{"NoteNumber":55,"Velocity":48,"Duration":100786,"SoundDuration":100786,"Delta":246529762},{"NoteNumber":62,"Velocity":40,"Duration":100786,"SoundDuration":100786,"Delta":246630548},{"NoteNumber":59,"Velocity":40,"Duration":100786,"SoundDuration":100786,"Delta":246731334},{"NoteNumber":62,"Velocity":40,"Duration":100786,"SoundDuration":100786,"Delta":246832120},{"NoteNumber":83,"Velocity":49,"Duration":100786,"SoundDuration":100786,"Delta":246932907},{"NoteNumber":55,"Velocity":49,"Duration":100786,"SoundDuration":100786,"Delta":246932907},{"NoteNumber":62,"Velocity":40,"Duration":100786,"SoundDuration":100786,"Delta":247033693},{"NoteNumber":59,"Velocity":40,"Duration":100786,"SoundDuration":100786,"Delta":247134479},{"NoteNumber":79,"Velocity":54,"Duration":108829,"SoundDuration":108829,"Delta":247235265},{"NoteNumber":62,"Velocity":40,"Duration":108829,"SoundDuration":108829,"Delta":247235265},{"NoteNumber":78,"Velocity":59,"Duration":400453,"SoundDuration":400453,"Delta":247344095},{"NoteNumber":57,"Velocity":47,"Duration":100113,"SoundDuration":100113,"Delta":247344095},{"NoteNumber":66,"Velocity":38,"Duration":100113,"SoundDuration":100113,"Delta":247444209},{"NoteNumber":62,"Velocity":38,"Duration":100113,"SoundDuration":100113,"Delta":247544322},{"NoteNumber":66,"Velocity":38,"Duration":100113,"SoundDuration":100113,"Delta":247644436},{"NoteNumber":81,"Velocity":54,"Duration":200227,"SoundDuration":200227,"Delta":247744549},{"NoteNumber":57,"Velocity":48,"Duration":100113,"SoundDuration":100113,"Delta":247744549},{"NoteNumber":66,"Velocity":40,"Duration":100113,"SoundDuration":100113,"Delta":247844663},{"NoteNumber":62,"Velocity":40,"Duration":100113,"SoundDuration":100113,"Delta":247944776},{"NoteNumber":74,"Velocity":54,"Duration":107272,"SoundDuration":107272,"Delta":248044890},{"NoteNumber":66,"Velocity":40,"Duration":107272,"SoundDuration":107272,"Delta":248044890},{"NoteNumber":76,"Velocity":59,"Duration":400453,"SoundDuration":400453,"Delta":248152163},{"NoteNumber":57,"Velocity":48,"Duration":100113,"SoundDuration":100113,"Delta":248152163},{"NoteNumber":67,"Velocity":39,"Duration":100113,"SoundDuration":100113,"Delta":248252276},{"NoteNumber":64,"Velocity":39,"Duration":100113,"SoundDuration":100113,"Delta":248352390},{"NoteNumber":67,"Velocity":39,"Duration":100113,"SoundDuration":100113,"Delta":248452503},{"NoteNumber":79,"Velocity":54,"Duration":200227,"SoundDuration":200227,"Delta":248552617},{"NoteNumber":57,"Velocity":49,"Duration":100113,"SoundDuration":100113,"Delta":248552617},{"NoteNumber":67,"Velocity":40,"Duration":100113,"SoundDuration":100113,"Delta":248652730},{"NoteNumber":64,"Velocity":40,"Duration":100113,"SoundDuration":100113,"Delta":248752844},{"NoteNumber":73,"Velocity":54,"Duration":108045,"SoundDuration":108045,"Delta":248852957},{"NoteNumber":67,"Velocity":40,"Duration":108045,"SoundDuration":108045,"Delta":248852957},{"NoteNumber":74,"Velocity":53,"Duration":104406,"SoundDuration":104406,"Delta":248961003},{"NoteNumber":54,"Velocity":47,"Duration":104406,"SoundDuration":104406,"Delta":248961003},{"NoteNumber":76,"Velocity":53,"Duration":104563,"SoundDuration":104563,"Delta":249065409},{"NoteNumber":62,"Velocity":39,"Duration":104563,"SoundDuration":104563,"Delta":249065409},{"NoteNumber":78,"Velocity":54,"Duration":103839,"SoundDuration":103839,"Delta":249169973},{"NoteNumber":57,"Velocity":41,"Duration":103839,"SoundDuration":103839,"Delta":249169973},{"NoteNumber":79,"Velocity":55,"Duration":103125,"SoundDuration":103125,"Delta":249273813},{"NoteNumber":62,"Velocity":42,"Duration":103125,"SoundDuration":103125,"Delta":249273813},{"NoteNumber":81,"Velocity":56,"Duration":102421,"SoundDuration":102421,"Delta":249376939},{"NoteNumber":54,"Velocity":48,"Duration":102421,"SoundDuration":102421,"Delta":249376939},{"NoteNumber":83,"Velocity":56,"Duration":101727,"SoundDuration":101727,"Delta":249479360},{"NoteNumber":62,"Velocity":41,"Duration":101727,"SoundDuration":101727,"Delta":249479360},{"NoteNumber":85,"Velocity":57,"Duration":101467,"SoundDuration":101467,"Delta":249581087},{"NoteNumber":57,"Velocity":42,"Duration":101467,"SoundDuration":101467,"Delta":249581087},{"NoteNumber":86,"Velocity":60,"Duration":110432,"SoundDuration":110432,"Delta":249682555},{"NoteNumber":62,"Velocity":44,"Duration":110432,"SoundDuration":110432,"Delta":249682555},{"NoteNumber":88,"Velocity":63,"Duration":105019,"SoundDuration":105019,"Delta":249792988},{"NoteNumber":55,"Velocity":52,"Duration":105019,"SoundDuration":105019,"Delta":249792988},{"NoteNumber":86,"Velocity":55,"Duration":100786,"SoundDuration":100786,"Delta":249898008},{"NoteNumber":62,"Velocity":43,"Duration":100786,"SoundDuration":100786,"Delta":249898008},{"NoteNumber":85,"Velocity":55,"Duration":100786,"SoundDuration":100786,"Delta":249998794},{"NoteNumber":59,"Velocity":43,"Duration":100786,"SoundDuration":100786,"Delta":249998794},{"NoteNumber":86,"Velocity":55,"Duration":100786,"SoundDuration":100786,"Delta":250099580},{"NoteNumber":62,"Velocity":43,"Duration":100786,"SoundDuration":100786,"Delta":250099580},{"NoteNumber":85,"Velocity":63,"Duration":100786,"SoundDuration":100786,"Delta":250200366},{"NoteNumber":55,"Velocity":49,"Duration":100786,"SoundDuration":100786,"Delta":250200366},{"NoteNumber":83,"Velocity":51,"Duration":100786,"SoundDuration":100786,"Delta":250301153},{"NoteNumber":62,"Velocity":40,"Duration":100786,"SoundDuration":100786,"Delta":250301153},{"NoteNumber":81,"Velocity":54,"Duration":100786,"SoundDuration":100786,"Delta":250401939},{"NoteNumber":59,"Velocity":40,"Duration":100786,"SoundDuration":100786,"Delta":250401939},{"NoteNumber":79,"Velocity":54,"Duration":108045,"SoundDuration":108045,"Delta":250502725},{"NoteNumber":62,"Velocity":40,"Duration":108045,"SoundDuration":108045,"Delta":250502725},{"NoteNumber":78,"Velocity":61,"Duration":106511,"SoundDuration":106511,"Delta":250610771},{"NoteNumber":57,"Velocity":47,"Duration":106511,"SoundDuration":106511,"Delta":250610771},{"NoteNumber":79,"Velocity":51,"Duration":100786,"SoundDuration":100786,"Delta":250717282},{"NoteNumber":66,"Velocity":37,"Duration":100786,"SoundDuration":100786,"Delta":250717282},{"NoteNumber":80,"Velocity":54,"Duration":100786,"SoundDuration":100786,"Delta":250818069},{"NoteNumber":62,"Velocity":37,"Duration":100786,"SoundDuration":100786,"Delta":250818069},{"NoteNumber":81,"Velocity":54,"Duration":100786,"SoundDuration":100786,"Delta":250918855},{"NoteNumber":66,"Velocity":37,"Duration":100786,"SoundDuration":100786,"Delta":250918855},{"NoteNumber":79,"Velocity":58,"Duration":100786,"SoundDuration":100786,"Delta":251019641},{"NoteNumber":57,"Velocity":48,"Duration":100786,"SoundDuration":100786,"Delta":251019641},{"NoteNumber":78,"Velocity":51,"Duration":100786,"SoundDuration":100786,"Delta":251120427},{"NoteNumber":66,"Velocity":39,"Duration":100786,"SoundDuration":100786,"Delta":251120427},{"NoteNumber":76,"Velocity":54,"Duration":100786,"SoundDuration":100786,"Delta":251221214},{"NoteNumber":62,"Velocity":39,"Duration":100786,"SoundDuration":100786,"Delta":251221214},{"NoteNumber":74,"Velocity":50,"Duration":108829,"SoundDuration":108829,"Delta":251322000},{"NoteNumber":66,"Velocity":39,"Duration":108829,"SoundDuration":108829,"Delta":251322000},{"NoteNumber":75,"Velocity":59,"Duration":104289,"SoundDuration":104289,"Delta":251430830},{"NoteNumber":57,"Velocity":47,"Duration":104289,"SoundDuration":104289,"Delta":251430830},{"NoteNumber":76,"Velocity":51,"Duration":100786,"SoundDuration":100786,"Delta":251535119},{"NoteNumber":67,"Velocity":37,"Duration":100786,"SoundDuration":100786,"Delta":251535119},{"NoteNumber":78,"Velocity":54,"Duration":100786,"SoundDuration":100786,"Delta":251635906},{"NoteNumber":64,"Velocity":37,"Duration":100786,"SoundDuration":100786,"Delta":251635906},{"NoteNumber":79,"Velocity":54,"Duration":100786,"SoundDuration":100786,"Delta":251736692},{"NoteNumber":67,"Velocity":37,"Duration":100786,"SoundDuration":100786,"Delta":251736692},{"NoteNumber":78,"Velocity":57,"Duration":100786,"SoundDuration":100786,"Delta":251837478},{"NoteNumber":57,"Velocity":48,"Duration":100786,"SoundDuration":100786,"Delta":251837478},{"NoteNumber":76,"Velocity":53,"Duration":100786,"SoundDuration":100786,"Delta":251938264},{"NoteNumber":67,"Velocity":38,"Duration":100786,"SoundDuration":100786,"Delta":251938264},{"NoteNumber":74,"Velocity":56,"Duration":100786,"SoundDuration":100786,"Delta":252039051},{"NoteNumber":64,"Velocity":38,"Duration":100786,"SoundDuration":100786,"Delta":252039051},{"NoteNumber":73,"Velocity":54,"Duration":109624,"SoundDuration":109624,"Delta":252139837},{"NoteNumber":67,"Velocity":38,"Duration":109624,"SoundDuration":109624,"Delta":252139837},{"NoteNumber":74,"Velocity":66,"Duration":107272,"SoundDuration":107272,"Delta":252249462},{"NoteNumber":62,"Velocity":45,"Duration":429091,"SoundDuration":429091,"Delta":252249462},{"NoteNumber":66,"Velocity":54,"Duration":429091,"SoundDuration":429091,"Delta":252249462},{"NoteNumber":69,"Velocity":59,"Duration":107273,"SoundDuration":107273,"Delta":252356735},{"NoteNumber":74,"Velocity":66,"Duration":107272,"SoundDuration":107272,"Delta":252464008},{"NoteNumber":78,"Velocity":58,"Duration":107272,"SoundDuration":107272,"Delta":252571281},{"NoteNumber":81,"Velocity":66,"Duration":107272,"SoundDuration":107272,"Delta":252678554},{"NoteNumber":78,"Velocity":60,"Duration":107273,"SoundDuration":107273,"Delta":252785827},{"NoteNumber":79,"Velocity":66,"Duration":112926,"SoundDuration":112926,"Delta":252893100},{"NoteNumber":57,"Velocity":46,"Duration":112926,"SoundDuration":112926,"Delta":252893100},{"NoteNumber":64,"Velocity":55,"Duration":112926,"SoundDuration":112926,"Delta":252893100},{"NoteNumber":76,"Velocity":59,"Duration":112926,"SoundDuration":112926,"Delta":253006026},{"NoteNumber":74,"Velocity":66,"Duration":107272,"SoundDuration":107272,"Delta":253118952},{"NoteNumber":62,"Velocity":45,"Duration":429091,"SoundDuration":429091,"Delta":253118952},{"NoteNumber":66,"Velocity":54,"Duration":429091,"SoundDuration":429091,"Delta":253118952},{"NoteNumber":69,"Velocity":59,"Duration":107273,"SoundDuration":107273,"Delta":253226225},{"NoteNumber":74,"Velocity":66,"Duration":107272,"SoundDuration":107272,"Delta":253333498},{"NoteNumber":78,"Velocity":58,"Duration":107272,"SoundDuration":107272,"Delta":253440771},{"NoteNumber":81,"Velocity":66,"Duration":107272,"SoundDuration":107272,"Delta":253548044},{"NoteNumber":78,"Velocity":60,"Duration":112926,"SoundDuration":112926,"Delta":253655317},{"NoteNumber":79,"Velocity":66,"Duration":112926,"SoundDuration":112926,"Delta":253768244},{"NoteNumber":57,"Velocity":46,"Duration":112926,"SoundDuration":112926,"Delta":253768244},{"NoteNumber":64,"Velocity":55,"Duration":112926,"SoundDuration":112926,"Delta":253768244},{"NoteNumber":76,"Velocity":59,"Duration":112926,"SoundDuration":112926,"Delta":253881170},{"NoteNumber":74,"Velocity":75,"Duration":238416,"SoundDuration":238416,"Delta":253994096},{"NoteNumber":66,"Velocity":63,"Duration":238416,"SoundDuration":238416,"Delta":253994096},{"NoteNumber":62,"Velocity":52,"Duration":238416,"SoundDuration":238416,"Delta":253994096},{"NoteNumber":85,"Velocity":75,"Duration":250354,"SoundDuration":250354,"Delta":254470930},{"NoteNumber":79,"Velocity":64,"Duration":250354,"SoundDuration":250354,"Delta":254470930},{"NoteNumber":76,"Velocity":64,"Duration":250354,"SoundDuration":250354,"Delta":254470930},{"NoteNumber":46,"Velocity":52,"Duration":250354,"SoundDuration":250354,"Delta":254470930},{"NoteNumber":58,"Velocity":63,"Duration":250354,"SoundDuration":250354,"Delta":254470930},{"NoteNumber":78,"Velocity":64,"Duration":250354,"SoundDuration":250354,"Delta":254971639},{"NoteNumber":86,"Velocity":75,"Duration":250354,"SoundDuration":250354,"Delta":254971639},{"NoteNumber":74,"Velocity":64,"Duration":250354,"SoundDuration":250354,"Delta":254971639},{"NoteNumber":47,"Velocity":52,"Duration":250354,"SoundDuration":250354,"Delta":254971639},{"NoteNumber":59,"Velocity":63,"Duration":250354,"SoundDuration":250354,"Delta":254971639},{"NoteNumber":79,"Velocity":47,"Duration":220864,"SoundDuration":220864,"Delta":255973057},{"NoteNumber":71,"Velocity":39,"Duration":220864,"SoundDuration":220864,"Delta":255973057},{"NoteNumber":43,"Velocity":40,"Duration":927493,"SoundDuration":927493,"Delta":255973057},{"NoteNumber":55,"Velocity":40,"Duration":927493,"SoundDuration":927493,"Delta":255973057},{"NoteNumber":69,"Velocity":36,"Duration":118268,"SoundDuration":118268,"Delta":256193922},{"NoteNumber":78,"Velocity":43,"Duration":118268,"SoundDuration":118268,"Delta":256193922},{"NoteNumber":69,"Velocity":39,"Duration":225852,"SoundDuration":225852,"Delta":256430459},{"NoteNumber":78,"Velocity":47,"Duration":225852,"SoundDuration":225852,"Delta":256430459},{"NoteNumber":76,"Velocity":42,"Duration":122119,"SoundDuration":122119,"Delta":256656311},{"NoteNumber":67,"Velocity":35,"Duration":122119,"SoundDuration":122119,"Delta":256656311},{"NoteNumber":76,"Velocity":47,"Duration":231071,"SoundDuration":231071,"Delta":256900551},{"NoteNumber":67,"Velocity":39,"Duration":231071,"SoundDuration":231071,"Delta":256900551},{"NoteNumber":45,"Velocity":40,"Duration":1024532,"SoundDuration":1024532,"Delta":256900551},{"NoteNumber":57,"Velocity":40,"Duration":1024532,"SoundDuration":1024532,"Delta":256900551},{"NoteNumber":74,"Velocity":41,"Duration":129500,"SoundDuration":129500,"Delta":257131623},{"NoteNumber":66,"Velocity":34,"Duration":129500,"SoundDuration":129500,"Delta":257131623},{"NoteNumber":66,"Velocity":39,"Duration":248282,"SoundDuration":248282,"Delta":257390623},{"NoteNumber":74,"Velocity":47,"Duration":248282,"SoundDuration":248282,"Delta":257390623},{"NoteNumber":64,"Velocity":34,"Duration":143088,"SoundDuration":143088,"Delta":257638906},{"NoteNumber":73,"Velocity":41,"Duration":143088,"SoundDuration":143088,"Delta":257638906},{"NoteNumber":67,"Velocity":45,"Duration":1172407,"SoundDuration":1172407,"Delta":257925083},{"NoteNumber":73,"Velocity":54,"Duration":1172407,"SoundDuration":1172407,"Delta":257925083},{"NoteNumber":64,"Velocity":37,"Duration":1172407,"SoundDuration":1172407,"Delta":257925083},{"NoteNumber":50,"Velocity":39,"Duration":546298,"SoundDuration":546298,"Delta":257925083},{"NoteNumber":45,"Velocity":39,"Duration":626108,"SoundDuration":626108,"Delta":258471382},{"NoteNumber":66,"Velocity":35,"Duration":572355,"SoundDuration":572355,"Delta":259097491},{"NoteNumber":74,"Velocity":42,"Duration":572355,"SoundDuration":572355,"Delta":259097491},{"NoteNumber":38,"Velocity":35,"Duration":572355,"SoundDuration":572355,"Delta":259097491}]}