{"title":"Piano Sonata No. 12 in F major, K. 332: III. Allegro assai","artist":"Mozart","durationMs":589926,"midiSha256":"0086f00a0296c877e054f936f76f3d7ba55bbdd0cfe446788889e31a98485fa9","midiObject":[{"NoteNumber":53,"Velocity":70,"Duration":385282,"SoundDuration":385282,"Delta":0},{"NoteNumber":45,"Velocity":59,"Duration":385282,"SoundDuration":385282,"Delta":0},{"NoteNumber":48,"Velocity":59,"Duration":385282,"SoundDuration":385282,"Delta":0},{"NoteNumber":41,"Velocity":59,"Duration":385282,"SoundDuration":385282,"Delta":0},{"NoteNumber":84,"Velocity":66,"Duration":105952,"SoundDuration":105952,"Delta":96320},{"NoteNumber":83,"Velocity":68,"Duration":105952,"SoundDuration":105952,"Delta":192641},{"NoteNumber":84,"Velocity":69,"Duration":105952,"SoundDuration":105952,"Delta":288961},{"NoteNumber":89,"Velocity":70,"Duration":106272,"SoundDuration":106272,"Delta":385282},{"NoteNumber":84,"Velocity":63,"Duration":109086,"SoundDuration":109086,"Delta":481602},{"NoteNumber":82,"Velocity":70,"Duration":105276,"SoundDuration":105276,"Delta":581118},{"NoteNumber":81,"Velocity":66,"Duration":105276,"SoundDuration":105276,"Delta":676824},{"NoteNumber":80,"Velocity":64,"Duration":105276,"SoundDuration":105276,"Delta":772530},{"NoteNumber":81,"Velocity":64,"Duration":105276,"SoundDuration":105276,"Delta":868236},{"NoteNumber":84,"Velocity":70,"Duration":105591,"SoundDuration":105591,"Delta":963942},{"NoteNumber":81,"Velocity":64,"Duration":108369,"SoundDuration":108369,"Delta":1059648},{"NoteNumber":79,"Velocity":70,"Duration":104609,"SoundDuration":104609,"Delta":1158508},{"NoteNumber":77,"Velocity":64,"Duration":104609,"SoundDuration":104609,"Delta":1253607},{"NoteNumber":76,"Velocity":64,"Duration":104609,"SoundDuration":104609,"Delta":1348706},{"NoteNumber":77,"Velocity":64,"Duration":104609,"SoundDuration":104609,"Delta":1443805},{"NoteNumber":81,"Velocity":70,"Duration":104985,"SoundDuration":104985,"Delta":1538905},{"NoteNumber":77,"Velocity":65,"Duration":108430,"SoundDuration":108430,"Delta":1634004},{"NoteNumber":74,"Velocity":70,"Duration":105276,"SoundDuration":105276,"Delta":1732864},{"NoteNumber":72,"Velocity":65,"Duration":105276,"SoundDuration":105276,"Delta":1828570},{"NoteNumber":71,"Velocity":65,"Duration":105276,"SoundDuration":105276,"Delta":1924276},{"NoteNumber":72,"Velocity":65,"Duration":105276,"SoundDuration":105276,"Delta":2019982},{"NoteNumber":77,"Velocity":70,"Duration":105791,"SoundDuration":105791,"Delta":2115688},{"NoteNumber":72,"Velocity":65,"Duration":110363,"SoundDuration":110363,"Delta":2211394},{"NoteNumber":70,"Velocity":70,"Duration":104609,"SoundDuration":104609,"Delta":2312248},{"NoteNumber":69,"Velocity":66,"Duration":104985,"SoundDuration":104985,"Delta":2407347},{"NoteNumber":68,"Velocity":66,"Duration":108745,"SoundDuration":108745,"Delta":2502446},{"NoteNumber":69,"Velocity":66,"Duration":108745,"SoundDuration":108745,"Delta":2601306},{"NoteNumber":72,"Velocity":70,"Duration":110982,"SoundDuration":110982,"Delta":2700166},{"NoteNumber":69,"Velocity":64,"Duration":131317,"SoundDuration":131317,"Delta":2799025},{"NoteNumber":65,"Velocity":70,"Duration":100854,"SoundDuration":100854,"Delta":2920257},{"NoteNumber":57,"Velocity":70,"Duration":100854,"SoundDuration":100854,"Delta":2920257},{"NoteNumber":77,"Velocity":64,"Duration":96320,"SoundDuration":96320,"Delta":3021111},{"NoteNumber":64,"Velocity":70,"Duration":96320,"SoundDuration":96320,"Delta":3117432},{"NoteNumber":55,"Velocity":66,"Duration":96320,"SoundDuration":96320,"Delta":3117432},{"NoteNumber":77,"Velocity":64,"Duration":96320,"SoundDuration":96320,"Delta":3213752},{"NoteNumber":65,"Velocity":70,"Duration":96320,"SoundDuration":96320,"Delta":3310073},{"NoteNumber":57,"Velocity":66,"Duration":96320,"SoundDuration":96320,"Delta":3310073},{"NoteNumber":77,"Velocity":64,"Duration":101536,"SoundDuration":101536,"Delta":3406393},{"NoteNumber":67,"Velocity":70,"Duration":95705,"SoundDuration":95705,"Delta":3507930},{"NoteNumber":58,"Velocity":70,"Duration":95705,"SoundDuration":95705,"Delta":3507930},{"NoteNumber":77,"Velocity":64,"Duration":95706,"SoundDuration":95706,"Delta":3603636},{"NoteNumber":65,"Velocity":65,"Duration":95705,"SoundDuration":95705,"Delta":3699342},{"NoteNumber":57,"Velocity":67,"Duration":95705,"SoundDuration":95705,"Delta":3699342},{"NoteNumber":77,"Velocity":58,"Duration":95706,"SoundDuration":95706,"Delta":3795048},{"NoteNumber":67,"Velocity":67,"Duration":95705,"SoundDuration":95705,"Delta":3890754},{"NoteNumber":58,"Velocity":67,"Duration":95705,"SoundDuration":95705,"Delta":3890754},{"NoteNumber":77,"Velocity":61,"Duration":100854,"SoundDuration":100854,"Delta":3986460},{"NoteNumber":69,"Velocity":70,"Duration":95099,"SoundDuration":95099,"Delta":4087314},{"NoteNumber":60,"Velocity":70,"Duration":95099,"SoundDuration":95099,"Delta":4087314},{"NoteNumber":77,"Velocity":60,"Duration":95099,"SoundDuration":95099,"Delta":4182413},{"NoteNumber":67,"Velocity":66,"Duration":95099,"SoundDuration":95099,"Delta":4277512},{"NoteNumber":58,"Velocity":67,"Duration":95099,"SoundDuration":95099,"Delta":4277512},{"NoteNumber":77,"Velocity":62,"Duration":95099,"SoundDuration":95099,"Delta":4372611},{"NoteNumber":69,"Velocity":67,"Duration":95099,"SoundDuration":95099,"Delta":4467711},{"NoteNumber":60,"Velocity":67,"Duration":95099,"SoundDuration":95099,"Delta":4467711},{"NoteNumber":77,"Velocity":62,"Duration":114740,"SoundDuration":114740,"Delta":4562810},{"NoteNumber":70,"Velocity":74,"Duration":96320,"SoundDuration":96320,"Delta":4677550},{"NoteNumber":61,"Velocity":74,"Duration":385282,"SoundDuration":385282,"Delta":4677550},{"NoteNumber":77,"Velocity":61,"Duration":96320,"SoundDuration":96320,"Delta":4773871},{"NoteNumber":70,"Velocity":65,"Duration":96320,"SoundDuration":96320,"Delta":4870191},{"NoteNumber":77,"Velocity":61,"Duration":96320,"SoundDuration":96320,"Delta":4966512},{"NoteNumber":69,"Velocity":65,"Duration":96320,"SoundDuration":96320,"Delta":5062832},{"NoteNumber":60,"Velocity":67,"Duration":96320,"SoundDuration":96320,"Delta":5062832},{"NoteNumber":77,"Velocity":60,"Duration":103641,"SoundDuration":103641,"Delta":5159153},{"NoteNumber":70,"Velocity":70,"Duration":95705,"SoundDuration":95705,"Delta":5262794},{"NoteNumber":61,"Velocity":74,"Duration":382824,"SoundDuration":382824,"Delta":5262794},{"NoteNumber":77,"Velocity":60,"Duration":95705,"SoundDuration":95705,"Delta":5358500},{"NoteNumber":70,"Velocity":65,"Duration":95706,"SoundDuration":95706,"Delta":5454206},{"NoteNumber":77,"Velocity":60,"Duration":95705,"SoundDuration":95705,"Delta":5549912},{"NoteNumber":69,"Velocity":65,"Duration":95705,"SoundDuration":95705,"Delta":5645618},{"NoteNumber":60,"Velocity":66,"Duration":95705,"SoundDuration":95705,"Delta":5645618},{"NoteNumber":77,"Velocity":54,"Duration":116207,"SoundDuration":116207,"Delta":5741324},{"NoteNumber":68,"Velocity":49,"Duration":95705,"SoundDuration":95705,"Delta":5857531},{"NoteNumber":59,"Velocity":47,"Duration":95705,"SoundDuration":95705,"Delta":5857531},{"NoteNumber":77,"Velocity":41,"Duration":95705,"SoundDuration":95705,"Delta":5953237},{"NoteNumber":68,"Velocity":49,"Duration":95706,"SoundDuration":95706,"Delta":6048943},{"NoteNumber":59,"Velocity":47,"Duration":95706,"SoundDuration":95706,"Delta":6048943},{"NoteNumber":77,"Velocity":42,"Duration":95705,"SoundDuration":95705,"Delta":6144649},{"NoteNumber":68,"Velocity":49,"Duration":95705,"SoundDuration":95705,"Delta":6240355},{"NoteNumber":59,"Velocity":47,"Duration":95705,"SoundDuration":95705,"Delta":6240355},{"NoteNumber":77,"Velocity":40,"Duration":103641,"SoundDuration":103641,"Delta":6336061},{"NoteNumber":67,"Velocity":48,"Duration":210187,"SoundDuration":210187,"Delta":6439702},{"NoteNumber":76,"Velocity":48,"Duration":210187,"SoundDuration":210187,"Delta":6439702},{"NoteNumber":60,"Velocity":50,"Duration":210187,"SoundDuration":210187,"Delta":6439702},{"NoteNumber":45,"Velocity":59,"Duration":385282,"SoundDuration":385282,"Delta":7070263},{"NoteNumber":48,"Velocity":59,"Duration":385282,"SoundDuration":385282,"Delta":7070263},{"NoteNumber":53,"Velocity":70,"Duration":385282,"SoundDuration":385282,"Delta":7070263},{"NoteNumber":41,"Velocity":59,"Duration":385282,"SoundDuration":385282,"Delta":7070263},{"NoteNumber":84,"Velocity":66,"Duration":105952,"SoundDuration":105952,"Delta":7166584},{"NoteNumber":83,"Velocity":68,"Duration":105952,"SoundDuration":105952,"Delta":7262904},{"NoteNumber":84,"Velocity":69,"Duration":105952,"SoundDuration":105952,"Delta":7359225},{"NoteNumber":89,"Velocity":70,"Duration":106272,"SoundDuration":106272,"Delta":7455545},{"NoteNumber":84,"Velocity":63,"Duration":109086,"SoundDuration":109086,"Delta":7551866},{"NoteNumber":82,"Velocity":70,"Duration":105276,"SoundDuration":105276,"Delta":7651381},{"NoteNumber":81,"Velocity":66,"Duration":105276,"SoundDuration":105276,"Delta":7747087},{"NoteNumber":80,"Velocity":64,"Duration":105276,"SoundDuration":105276,"Delta":7842793},{"NoteNumber":81,"Velocity":64,"Duration":105276,"SoundDuration":105276,"Delta":7938499},{"NoteNumber":84,"Velocity":70,"Duration":105591,"SoundDuration":105591,"Delta":8034205},{"NoteNumber":81,"Velocity":64,"Duration":108369,"SoundDuration":108369,"Delta":8129911},{"NoteNumber":79,"Velocity":70,"Duration":104609,"SoundDuration":104609,"Delta":8228771},{"NoteNumber":77,"Velocity":64,"Duration":104609,"SoundDuration":104609,"Delta":8323870},{"NoteNumber":76,"Velocity":64,"Duration":104609,"SoundDuration":104609,"Delta":8418970},{"NoteNumber":77,"Velocity":64,"Duration":104609,"SoundDuration":104609,"Delta":8514069},{"NoteNumber":81,"Velocity":70,"Duration":104985,"SoundDuration":104985,"Delta":8609168},{"NoteNumber":77,"Velocity":65,"Duration":108430,"SoundDuration":108430,"Delta":8704267},{"NoteNumber":74,"Velocity":70,"Duration":105276,"SoundDuration":105276,"Delta":8803127},{"NoteNumber":72,"Velocity":65,"Duration":105276,"SoundDuration":105276,"Delta":8898833},{"NoteNumber":71,"Velocity":65,"Duration":105276,"SoundDuration":105276,"Delta":8994539},{"NoteNumber":72,"Velocity":65,"Duration":105276,"SoundDuration":105276,"Delta":9090245},{"NoteNumber":77,"Velocity":70,"Duration":105791,"SoundDuration":105791,"Delta":9185951},{"NoteNumber":72,"Velocity":65,"Duration":110363,"SoundDuration":110363,"Delta":9281657},{"NoteNumber":70,"Velocity":70,"Duration":104609,"SoundDuration":104609,"Delta":9382511},{"NoteNumber":69,"Velocity":66,"Duration":104985,"SoundDuration":104985,"Delta":9477610},{"NoteNumber":68,"Velocity":66,"Duration":108745,"SoundDuration":108745,"Delta":9572710},{"NoteNumber":69,"Velocity":66,"Duration":108745,"SoundDuration":108745,"Delta":9671569},{"NoteNumber":72,"Velocity":70,"Duration":110982,"SoundDuration":110982,"Delta":9770429},{"NoteNumber":69,"Velocity":64,"Duration":131249,"SoundDuration":131249,"Delta":9869289},{"NoteNumber":65,"Velocity":70,"Duration":100180,"SoundDuration":100180,"Delta":9990521},{"NoteNumber":57,"Velocity":70,"Duration":100180,"SoundDuration":100180,"Delta":9990521},{"NoteNumber":77,"Velocity":64,"Duration":95705,"SoundDuration":95705,"Delta":10090701},{"NoteNumber":64,"Velocity":70,"Duration":95705,"SoundDuration":95705,"Delta":10186407},{"NoteNumber":55,"Velocity":66,"Duration":95705,"SoundDuration":95705,"Delta":10186407},{"NoteNumber":77,"Velocity":64,"Duration":95705,"SoundDuration":95705,"Delta":10282113},{"NoteNumber":65,"Velocity":70,"Duration":95705,"SoundDuration":95705,"Delta":10377819},{"NoteNumber":57,"Velocity":66,"Duration":95705,"SoundDuration":95705,"Delta":10377819},{"NoteNumber":77,"Velocity":64,"Duration":101536,"SoundDuration":101536,"Delta":10473525},{"NoteNumber":67,"Velocity":70,"Duration":95705,"SoundDuration":95705,"Delta":10575061},{"NoteNumber":58,"Velocity":70,"Duration":95705,"SoundDuration":95705,"Delta":10575061},{"NoteNumber":77,"Velocity":64,"Duration":95705,"SoundDuration":95705,"Delta":10670767},{"NoteNumber":65,"Velocity":65,"Duration":95705,"SoundDuration":95705,"Delta":10766473},{"NoteNumber":57,"Velocity":67,"Duration":95705,"SoundDuration":95705,"Delta":10766473},{"NoteNumber":77,"Velocity":58,"Duration":95705,"SoundDuration":95705,"Delta":10862179},{"NoteNumber":67,"Velocity":67,"Duration":95705,"SoundDuration":95705,"Delta":10957885},{"NoteNumber":58,"Velocity":67,"Duration":95705,"SoundDuration":95705,"Delta":10957885},{"NoteNumber":77,"Velocity":61,"Duration":100854,"SoundDuration":100854,"Delta":11053591},{"NoteNumber":69,"Velocity":70,"Duration":95099,"SoundDuration":95099,"Delta":11154445},{"NoteNumber":60,"Velocity":70,"Duration":95099,"SoundDuration":95099,"Delta":11154445},{"NoteNumber":77,"Velocity":60,"Duration":95099,"SoundDuration":95099,"Delta":11249545},{"NoteNumber":67,"Velocity":66,"Duration":95099,"SoundDuration":95099,"Delta":11344644},{"NoteNumber":58,"Velocity":67,"Duration":95099,"SoundDuration":95099,"Delta":11344644},{"NoteNumber":77,"Velocity":62,"Duration":95099,"SoundDuration":95099,"Delta":11439743},{"NoteNumber":69,"Velocity":67,"Duration":95099,"SoundDuration":95099,"Delta":11534842},{"NoteNumber":60,"Velocity":67,"Duration":95099,"SoundDuration":95099,"Delta":11534842},{"NoteNumber":77,"Velocity":62,"Duration":114740,"SoundDuration":114740,"Delta":11629942},{"NoteNumber":70,"Velocity":74,"Duration":96320,"SoundDuration":96320,"Delta":11744682},{"NoteNumber":61,"Velocity":74,"Duration":385282,"SoundDuration":385282,"Delta":11744682},{"NoteNumber":77,"Velocity":61,"Duration":96320,"SoundDuration":96320,"Delta":11841002},{"NoteNumber":70,"Velocity":65,"Duration":96320,"SoundDuration":96320,"Delta":11937323},{"NoteNumber":77,"Velocity":61,"Duration":96320,"SoundDuration":96320,"Delta":12033643},{"NoteNumber":69,"Velocity":65,"Duration":96320,"SoundDuration":96320,"Delta":12129964},{"NoteNumber":60,"Velocity":67,"Duration":96320,"SoundDuration":96320,"Delta":12129964},{"NoteNumber":77,"Velocity":60,"Duration":103641,"SoundDuration":103641,"Delta":12226284},{"NoteNumber":70,"Velocity":70,"Duration":95705,"SoundDuration":95705,"Delta":12329926},{"NoteNumber":61,"Velocity":74,"Duration":382823,"SoundDuration":382823,"Delta":12329926},{"NoteNumber":77,"Velocity":60,"Duration":95705,"SoundDuration":95705,"Delta":12425632},{"NoteNumber":70,"Velocity":65,"Duration":95705,"SoundDuration":95705,"Delta":12521338},{"NoteNumber":77,"Velocity":60,"Duration":95705,"SoundDuration":95705,"Delta":12617044},{"NoteNumber":69,"Velocity":65,"Duration":95705,"SoundDuration":95705,"Delta":12712750},{"NoteNumber":60,"Velocity":66,"Duration":95705,"SoundDuration":95705,"Delta":12712750},{"NoteNumber":77,"Velocity":46,"Duration":102930,"SoundDuration":102930,"Delta":12808456},{"NoteNumber":68,"Velocity":42,"Duration":119923,"SoundDuration":119923,"Delta":12911386},{"NoteNumber":59,"Velocity":35,"Duration":119923,"SoundDuration":119923,"Delta":12911386},{"NoteNumber":77,"Velocity":37,"Duration":119923,"SoundDuration":119923,"Delta":13031309},{"NoteNumber":67,"Velocity":42,"Duration":118036,"SoundDuration":118036,"Delta":13588102},{"NoteNumber":58,"Velocity":34,"Duration":118036,"SoundDuration":118036,"Delta":13588102},{"NoteNumber":76,"Velocity":36,"Duration":118036,"SoundDuration":118036,"Delta":13706138},{"NoteNumber":66,"Velocity":42,"Duration":118036,"SoundDuration":118036,"Delta":14268434},{"NoteNumber":57,"Velocity":34,"Duration":118036,"SoundDuration":118036,"Delta":14268434},{"NoteNumber":75,"Velocity":35,"Duration":118036,"SoundDuration":118036,"Delta":14386470},{"NoteNumber":46,"Velocity":58,"Duration":99515,"SoundDuration":99515,"Delta":14942207},{"NoteNumber":58,"Velocity":61,"Duration":99515,"SoundDuration":99515,"Delta":15041723},{"NoteNumber":62,"Velocity":58,"Duration":99515,"SoundDuration":99515,"Delta":15141239},{"NoteNumber":67,"Velocity":59,"Duration":99515,"SoundDuration":99515,"Delta":15240754},{"NoteNumber":70,"Velocity":60,"Duration":99515,"SoundDuration":99515,"Delta":15340270},{"NoteNumber":74,"Velocity":61,"Duration":99515,"SoundDuration":99515,"Delta":15439786},{"NoteNumber":72,"Velocity":62,"Duration":109467,"SoundDuration":109467,"Delta":15539302},{"NoteNumber":52,"Velocity":36,"Duration":622395,"SoundDuration":622395,"Delta":15539302},{"NoteNumber":58,"Velocity":57,"Duration":622395,"SoundDuration":622395,"Delta":15539302},{"NoteNumber":48,"Velocity":36,"Duration":622395,"SoundDuration":622395,"Delta":15539302},{"NoteNumber":70,"Velocity":62,"Duration":109467,"SoundDuration":109467,"Delta":15638817},{"NoteNumber":69,"Velocity":60,"Duration":109467,"SoundDuration":109467,"Delta":15738333},{"NoteNumber":67,"Velocity":59,"Duration":110732,"SoundDuration":110732,"Delta":15837849},{"NoteNumber":65,"Velocity":57,"Duration":123382,"SoundDuration":123382,"Delta":15937365},{"NoteNumber":64,"Velocity":55,"Duration":122117,"SoundDuration":122117,"Delta":16049531},{"NoteNumber":65,"Velocity":58,"Duration":99515,"SoundDuration":99515,"Delta":16161697},{"NoteNumber":53,"Velocity":32,"Duration":199031,"SoundDuration":199031,"Delta":16161697},{"NoteNumber":57,"Velocity":51,"Duration":199031,"SoundDuration":199031,"Delta":16161697},{"NoteNumber":60,"Velocity":49,"Duration":199031,"SoundDuration":199031,"Delta":16360729},{"NoteNumber":60,"Velocity":49,"Duration":153970,"SoundDuration":153970,"Delta":16559760},{"NoteNumber":64,"Velocity":41,"Duration":54454,"SoundDuration":54454,"Delta":16713730},{"NoteNumber":70,"Velocity":49,"Duration":796126,"SoundDuration":796126,"Delta":16768185},{"NoteNumber":48,"Velocity":41,"Duration":199031,"SoundDuration":199031,"Delta":16768185},{"NoteNumber":60,"Velocity":31,"Duration":99515,"SoundDuration":99515,"Delta":16967216},{"NoteNumber":58,"Velocity":24,"Duration":99515,"SoundDuration":99515,"Delta":16967216},{"NoteNumber":60,"Velocity":31,"Duration":99515,"SoundDuration":99515,"Delta":17166248},{"NoteNumber":58,"Velocity":24,"Duration":99515,"SoundDuration":99515,"Delta":17166248},{"NoteNumber":58,"Velocity":24,"Duration":99515,"SoundDuration":99515,"Delta":17365279},{"NoteNumber":60,"Velocity":31,"Duration":99515,"SoundDuration":99515,"Delta":17365279},{"NoteNumber":69,"Velocity":43,"Duration":99515,"SoundDuration":99515,"Delta":17564311},{"NoteNumber":58,"Velocity":24,"Duration":99515,"SoundDuration":99515,"Delta":17564311},{"NoteNumber":60,"Velocity":31,"Duration":99515,"SoundDuration":99515,"Delta":17564311},{"NoteNumber":67,"Velocity":43,"Duration":99515,"SoundDuration":99515,"Delta":17763342},{"NoteNumber":58,"Velocity":24,"Duration":99515,"SoundDuration":99515,"Delta":17763342},{"NoteNumber":60,"Velocity":31,"Duration":99515,"SoundDuration":99515,"Delta":17763342},{"NoteNumber":67,"Velocity":49,"Duration":199031,"SoundDuration":199031,"Delta":17970982},{"NoteNumber":53,"Velocity":41,"Duration":199031,"SoundDuration":199031,"Delta":17970982},{"NoteNumber":65,"Velocity":45,"Duration":398063,"SoundDuration":398063,"Delta":18170013},{"NoteNumber":57,"Velocity":24,"Duration":99515,"SoundDuration":99515,"Delta":18170013},{"NoteNumber":60,"Velocity":31,"Duration":99515,"SoundDuration":99515,"Delta":18170013},{"NoteNumber":57,"Velocity":24,"Duration":99515,"SoundDuration":99515,"Delta":18369045},{"NoteNumber":60,"Velocity":31,"Duration":99515,"SoundDuration":99515,"Delta":18369045},{"NoteNumber":65,"Velocity":45,"Duration":552835,"SoundDuration":552835,"Delta":18568076},{"NoteNumber":60,"Velocity":31,"Duration":99515,"SoundDuration":99515,"Delta":18568076},{"NoteNumber":57,"Velocity":24,"Duration":99515,"SoundDuration":99515,"Delta":18568076},{"NoteNumber":60,"Velocity":31,"Duration":99515,"SoundDuration":99515,"Delta":18767108},{"NoteNumber":57,"Velocity":24,"Duration":99515,"SoundDuration":99515,"Delta":18767108},{"NoteNumber":60,"Velocity":31,"Duration":99515,"SoundDuration":99515,"Delta":18966139},{"NoteNumber":57,"Velocity":24,"Duration":99515,"SoundDuration":99515,"Delta":18966139},{"NoteNumber":64,"Velocity":41,"Duration":55256,"SoundDuration":55256,"Delta":19120912},{"NoteNumber":70,"Velocity":49,"Duration":796126,"SoundDuration":796126,"Delta":19176168},{"NoteNumber":48,"Velocity":41,"Duration":199031,"SoundDuration":199031,"Delta":19176168},{"NoteNumber":55,"Velocity":24,"Duration":99515,"SoundDuration":99515,"Delta":19375200},{"NoteNumber":60,"Velocity":31,"Duration":99515,"SoundDuration":99515,"Delta":19375200},{"NoteNumber":55,"Velocity":24,"Duration":99515,"SoundDuration":99515,"Delta":19574231},{"NoteNumber":60,"Velocity":31,"Duration":99515,"SoundDuration":99515,"Delta":19574231},{"NoteNumber":60,"Velocity":31,"Duration":99515,"SoundDuration":99515,"Delta":19773263},{"NoteNumber":55,"Velocity":24,"Duration":99515,"SoundDuration":99515,"Delta":19773263},{"NoteNumber":69,"Velocity":43,"Duration":99515,"SoundDuration":99515,"Delta":19972294},{"NoteNumber":55,"Velocity":24,"Duration":99515,"SoundDuration":99515,"Delta":19972294},{"NoteNumber":60,"Velocity":31,"Duration":99515,"SoundDuration":99515,"Delta":19972294},{"NoteNumber":67,"Velocity":43,"Duration":99515,"SoundDuration":99515,"Delta":20171326},{"NoteNumber":55,"Velocity":24,"Duration":99515,"SoundDuration":99515,"Delta":20171326},{"NoteNumber":60,"Velocity":31,"Duration":99515,"SoundDuration":99515,"Delta":20171326},{"NoteNumber":71,"Velocity":51,"Duration":597094,"SoundDuration":597094,"Delta":20388277},{"NoteNumber":53,"Velocity":41,"Duration":199031,"SoundDuration":199031,"Delta":20388277},{"NoteNumber":57,"Velocity":24,"Duration":99515,"SoundDuration":99515,"Delta":20587308},{"NoteNumber":60,"Velocity":31,"Duration":99515,"SoundDuration":99515,"Delta":20587308},{"NoteNumber":60,"Velocity":31,"Duration":99515,"SoundDuration":99515,"Delta":20786340},{"NoteNumber":57,"Velocity":24,"Duration":99515,"SoundDuration":99515,"Delta":20786340},{"NoteNumber":72,"Velocity":45,"Duration":199031,"SoundDuration":199031,"Delta":20985371},{"NoteNumber":57,"Velocity":24,"Duration":99515,"SoundDuration":99515,"Delta":20985371},{"NoteNumber":60,"Velocity":31,"Duration":99515,"SoundDuration":99515,"Delta":20985371},{"NoteNumber":57,"Velocity":24,"Duration":99515,"SoundDuration":99515,"Delta":21184403},{"NoteNumber":60,"Velocity":31,"Duration":99515,"SoundDuration":99515,"Delta":21184403},{"NoteNumber":60,"Velocity":31,"Duration":99515,"SoundDuration":99515,"Delta":21383434},{"NoteNumber":57,"Velocity":24,"Duration":99515,"SoundDuration":99515,"Delta":21383434},{"NoteNumber":64,"Velocity":41,"Duration":54454,"SoundDuration":54454,"Delta":21532708},{"NoteNumber":70,"Velocity":49,"Duration":796126,"SoundDuration":796126,"Delta":21587162},{"NoteNumber":48,"Velocity":41,"Duration":199031,"SoundDuration":199031,"Delta":21587162},{"NoteNumber":58,"Velocity":24,"Duration":99515,"SoundDuration":99515,"Delta":21786194},{"NoteNumber":60,"Velocity":31,"Duration":99515,"SoundDuration":99515,"Delta":21786194},{"NoteNumber":60,"Velocity":31,"Duration":99515,"SoundDuration":99515,"Delta":21985225},{"NoteNumber":58,"Velocity":24,"Duration":99515,"SoundDuration":99515,"Delta":21985225},{"NoteNumber":60,"Velocity":31,"Duration":99515,"SoundDuration":99515,"Delta":22184257},{"NoteNumber":58,"Velocity":24,"Duration":99515,"SoundDuration":99515,"Delta":22184257},{"NoteNumber":69,"Velocity":43,"Duration":99515,"SoundDuration":99515,"Delta":22383288},{"NoteNumber":60,"Velocity":31,"Duration":99515,"SoundDuration":99515,"Delta":22383288},{"NoteNumber":58,"Velocity":24,"Duration":99515,"SoundDuration":99515,"Delta":22383288},{"NoteNumber":67,"Velocity":43,"Duration":99515,"SoundDuration":99515,"Delta":22582320},{"NoteNumber":60,"Velocity":31,"Duration":99515,"SoundDuration":99515,"Delta":22582320},{"NoteNumber":58,"Velocity":24,"Duration":99515,"SoundDuration":99515,"Delta":22582320},{"NoteNumber":65,"Velocity":54,"Duration":398063,"SoundDuration":398063,"Delta":22789959},{"NoteNumber":53,"Velocity":41,"Duration":199031,"SoundDuration":199031,"Delta":22789959},{"NoteNumber":60,"Velocity":31,"Duration":99515,"SoundDuration":99515,"Delta":22988991},{"NoteNumber":57,"Velocity":24,"Duration":99515,"SoundDuration":99515,"Delta":22988991},{"NoteNumber":69,"Velocity":60,"Duration":597094,"SoundDuration":597094,"Delta":23188022},{"NoteNumber":57,"Velocity":24,"Duration":99515,"SoundDuration":99515,"Delta":23188022},{"NoteNumber":60,"Velocity":31,"Duration":99515,"SoundDuration":99515,"Delta":23188022},{"NoteNumber":60,"Velocity":31,"Duration":99515,"SoundDuration":99515,"Delta":23387054},{"NoteNumber":57,"Velocity":24,"Duration":99515,"SoundDuration":99515,"Delta":23387054},{"NoteNumber":57,"Velocity":24,"Duration":99515,"SoundDuration":99515,"Delta":23586085},{"NoteNumber":60,"Velocity":31,"Duration":99515,"SoundDuration":99515,"Delta":23586085},{"NoteNumber":72,"Velocity":60,"Duration":597094,"SoundDuration":597094,"Delta":23785117},{"NoteNumber":60,"Velocity":31,"Duration":99515,"SoundDuration":99515,"Delta":23785117},{"NoteNumber":57,"Velocity":24,"Duration":99515,"SoundDuration":99515,"Delta":23785117},{"NoteNumber":48,"Velocity":41,"Duration":199031,"SoundDuration":199031,"Delta":23984148},{"NoteNumber":55,"Velocity":24,"Duration":99515,"SoundDuration":99515,"Delta":24183180},{"NoteNumber":60,"Velocity":31,"Duration":99515,"SoundDuration":99515,"Delta":24183180},{"NoteNumber":70,"Velocity":58,"Duration":597094,"SoundDuration":597094,"Delta":24382211},{"NoteNumber":55,"Velocity":24,"Duration":99515,"SoundDuration":99515,"Delta":24382211},{"NoteNumber":60,"Velocity":31,"Duration":99515,"SoundDuration":99515,"Delta":24382211},{"NoteNumber":60,"Velocity":31,"Duration":99515,"SoundDuration":99515,"Delta":24581243},{"NoteNumber":58,"Velocity":24,"Duration":99515,"SoundDuration":99515,"Delta":24581243},{"NoteNumber":58,"Velocity":24,"Duration":99515,"SoundDuration":99515,"Delta":24780274},{"NoteNumber":60,"Velocity":31,"Duration":99515,"SoundDuration":99515,"Delta":24780274},{"NoteNumber":67,"Velocity":50,"Duration":193885,"SoundDuration":193885,"Delta":24979306},{"NoteNumber":58,"Velocity":24,"Duration":96942,"SoundDuration":96942,"Delta":24979306},{"NoteNumber":60,"Velocity":31,"Duration":96942,"SoundDuration":96942,"Delta":24979306},{"NoteNumber":65,"Velocity":56,"Duration":199031,"SoundDuration":199031,"Delta":25173192},{"NoteNumber":53,"Velocity":32,"Duration":199031,"SoundDuration":199031,"Delta":25173192},{"NoteNumber":57,"Velocity":32,"Duration":199031,"SoundDuration":199031,"Delta":25173192},{"NoteNumber":60,"Velocity":41,"Duration":199031,"SoundDuration":199031,"Delta":25173192},{"NoteNumber":57,"Velocity":71,"Duration":199031,"SoundDuration":199031,"Delta":25571255},{"NoteNumber":45,"Velocity":60,"Duration":199031,"SoundDuration":199031,"Delta":25571255},{"NoteNumber":58,"Velocity":78,"Duration":97352,"SoundDuration":97352,"Delta":25770286},{"NoteNumber":46,"Velocity":66,"Duration":97352,"SoundDuration":97352,"Delta":25770286},{"NoteNumber":67,"Velocity":73,"Duration":97351,"SoundDuration":97351,"Delta":25964990},{"NoteNumber":55,"Velocity":61,"Duration":97351,"SoundDuration":97351,"Delta":25964990},{"NoteNumber":59,"Velocity":72,"Duration":99946,"SoundDuration":99946,"Delta":26159694},{"NoteNumber":47,"Velocity":61,"Duration":99946,"SoundDuration":99946,"Delta":26159694},{"NoteNumber":60,"Velocity":78,"Duration":97352,"SoundDuration":97352,"Delta":26359588},{"NoteNumber":48,"Velocity":66,"Duration":97352,"SoundDuration":97352,"Delta":26359588},{"NoteNumber":69,"Velocity":73,"Duration":97351,"SoundDuration":97351,"Delta":26554292},{"NoteNumber":57,"Velocity":61,"Duration":97351,"SoundDuration":97351,"Delta":26554292},{"NoteNumber":61,"Velocity":73,"Duration":98632,"SoundDuration":98632,"Delta":26748996},{"NoteNumber":49,"Velocity":61,"Duration":98632,"SoundDuration":98632,"Delta":26748996},{"NoteNumber":62,"Velocity":78,"Duration":97352,"SoundDuration":97352,"Delta":26946260},{"NoteNumber":50,"Velocity":66,"Duration":97352,"SoundDuration":97352,"Delta":26946260},{"NoteNumber":70,"Velocity":72,"Duration":97351,"SoundDuration":97351,"Delta":27140964},{"NoteNumber":58,"Velocity":61,"Duration":97351,"SoundDuration":97351,"Delta":27140964},{"NoteNumber":64,"Velocity":72,"Duration":99285,"SoundDuration":99285,"Delta":27335668},{"NoteNumber":52,"Velocity":61,"Duration":99285,"SoundDuration":99285,"Delta":27335668},{"NoteNumber":82,"Velocity":68,"Duration":778815,"SoundDuration":778815,"Delta":27534239},{"NoteNumber":58,"Velocity":28,"Duration":574258,"SoundDuration":574258,"Delta":28118351},{"NoteNumber":60,"Velocity":28,"Duration":574258,"SoundDuration":574258,"Delta":28118351},{"NoteNumber":67,"Velocity":34,"Duration":574258,"SoundDuration":574258,"Delta":28118351},{"NoteNumber":64,"Velocity":28,"Duration":574258,"SoundDuration":574258,"Delta":28118351},{"NoteNumber":81,"Velocity":62,"Duration":94888,"SoundDuration":94888,"Delta":28313055},{"NoteNumber":79,"Velocity":61,"Duration":94888,"SoundDuration":94888,"Delta":28407943},{"NoteNumber":77,"Velocity":59,"Duration":94888,"SoundDuration":94888,"Delta":28502832},{"NoteNumber":76,"Velocity":57,"Duration":94888,"SoundDuration":94888,"Delta":28597721},{"NoteNumber":77,"Velocity":56,"Duration":97352,"SoundDuration":97352,"Delta":28692610},{"NoteNumber":60,"Velocity":41,"Duration":194704,"SoundDuration":194704,"Delta":28692610},{"NoteNumber":57,"Velocity":41,"Duration":194704,"SoundDuration":194704,"Delta":28692610},{"NoteNumber":65,"Velocity":49,"Duration":194704,"SoundDuration":194704,"Delta":28692610},{"NoteNumber":79,"Velocity":49,"Duration":97351,"SoundDuration":97351,"Delta":28887314},{"NoteNumber":81,"Velocity":54,"Duration":106383,"SoundDuration":106383,"Delta":29082018},{"NoteNumber":69,"Velocity":46,"Duration":389407,"SoundDuration":389407,"Delta":29294784},{"NoteNumber":72,"Velocity":46,"Duration":389407,"SoundDuration":389407,"Delta":29294784},{"NoteNumber":60,"Velocity":42,"Duration":389407,"SoundDuration":389407,"Delta":29294784},{"NoteNumber":70,"Velocity":40,"Duration":211267,"SoundDuration":211267,"Delta":29684192},{"NoteNumber":67,"Velocity":40,"Duration":211267,"SoundDuration":211267,"Delta":29684192},{"NoteNumber":61,"Velocity":42,"Duration":211267,"SoundDuration":211267,"Delta":29684192},{"NoteNumber":70,"Velocity":46,"Duration":608107,"SoundDuration":608107,"Delta":29895459},{"NoteNumber":67,"Velocity":46,"Duration":608107,"SoundDuration":608107,"Delta":29895459},{"NoteNumber":62,"Velocity":47,"Duration":806782,"SoundDuration":806782,"Delta":29895459},{"NoteNumber":65,"Velocity":41,"Duration":198675,"SoundDuration":198675,"Delta":30503567},{"NoteNumber":69,"Velocity":41,"Duration":198675,"SoundDuration":198675,"Delta":30503567},{"NoteNumber":57,"Velocity":71,"Duration":199031,"SoundDuration":199031,"Delta":31496944},{"NoteNumber":45,"Velocity":60,"Duration":199031,"SoundDuration":199031,"Delta":31496944},{"NoteNumber":58,"Velocity":78,"Duration":97352,"SoundDuration":97352,"Delta":31695976},{"NoteNumber":46,"Velocity":66,"Duration":97352,"SoundDuration":97352,"Delta":31695976},{"NoteNumber":67,"Velocity":73,"Duration":97351,"SoundDuration":97351,"Delta":31890680},{"NoteNumber":55,"Velocity":61,"Duration":97351,"SoundDuration":97351,"Delta":31890680},{"NoteNumber":59,"Velocity":72,"Duration":99946,"SoundDuration":99946,"Delta":32085384},{"NoteNumber":47,"Velocity":61,"Duration":99946,"SoundDuration":99946,"Delta":32085384},{"NoteNumber":60,"Velocity":78,"Duration":97352,"SoundDuration":97352,"Delta":32285277},{"NoteNumber":48,"Velocity":66,"Duration":97352,"SoundDuration":97352,"Delta":32285277},{"NoteNumber":69,"Velocity":73,"Duration":97352,"SoundDuration":97352,"Delta":32479981},{"NoteNumber":57,"Velocity":61,"Duration":97352,"SoundDuration":97352,"Delta":32479981},{"NoteNumber":61,"Velocity":73,"Duration":98632,"SoundDuration":98632,"Delta":32674685},{"NoteNumber":49,"Velocity":61,"Duration":98632,"SoundDuration":98632,"Delta":32674685},{"NoteNumber":62,"Velocity":78,"Duration":97352,"SoundDuration":97352,"Delta":32871950},{"NoteNumber":50,"Velocity":66,"Duration":97352,"SoundDuration":97352,"Delta":32871950},{"NoteNumber":70,"Velocity":72,"Duration":97352,"SoundDuration":97352,"Delta":33066654},{"NoteNumber":58,"Velocity":61,"Duration":97352,"SoundDuration":97352,"Delta":33066654},{"NoteNumber":64,"Velocity":72,"Duration":99285,"SoundDuration":99285,"Delta":33261358},{"NoteNumber":52,"Velocity":61,"Duration":99285,"SoundDuration":99285,"Delta":33261358},{"NoteNumber":82,"Velocity":68,"Duration":778815,"SoundDuration":778815,"Delta":33459928},{"NoteNumber":58,"Velocity":28,"Duration":574259,"SoundDuration":574259,"Delta":34044040},{"NoteNumber":60,"Velocity":28,"Duration":574259,"SoundDuration":574259,"Delta":34044040},{"NoteNumber":67,"Velocity":34,"Duration":574259,"SoundDuration":574259,"Delta":34044040},{"NoteNumber":64,"Velocity":28,"Duration":574259,"SoundDuration":574259,"Delta":34044040},{"NoteNumber":81,"Velocity":62,"Duration":94888,"SoundDuration":94888,"Delta":34238744},{"NoteNumber":79,"Velocity":61,"Duration":94888,"SoundDuration":94888,"Delta":34333633},{"NoteNumber":77,"Velocity":59,"Duration":94888,"SoundDuration":94888,"Delta":34428522},{"NoteNumber":76,"Velocity":57,"Duration":94888,"SoundDuration":94888,"Delta":34523411},{"NoteNumber":77,"Velocity":56,"Duration":63516,"SoundDuration":63516,"Delta":34618299},{"NoteNumber":57,"Velocity":41,"Duration":254064,"SoundDuration":254064,"Delta":34618299},{"NoteNumber":60,"Velocity":41,"Duration":254064,"SoundDuration":254064,"Delta":34618299},{"NoteNumber":65,"Velocity":49,"Duration":254064,"SoundDuration":254064,"Delta":34618299},{"NoteNumber":79,"Velocity":49,"Duration":63516,"SoundDuration":63516,"Delta":34681816},{"NoteNumber":81,"Velocity":49,"Duration":63516,"SoundDuration":63516,"Delta":34745332},{"NoteNumber":74,"Velocity":47,"Duration":63516,"SoundDuration":63516,"Delta":35274851},{"NoteNumber":62,"Velocity":33,"Duration":254064,"SoundDuration":254064,"Delta":35274851},{"NoteNumber":65,"Velocity":42,"Duration":254064,"SoundDuration":254064,"Delta":35274851},{"NoteNumber":58,"Velocity":33,"Duration":254064,"SoundDuration":254064,"Delta":35274851},{"NoteNumber":76,"Velocity":41,"Duration":63516,"SoundDuration":63516,"Delta":35338367},{"NoteNumber":77,"Velocity":41,"Duration":63516,"SoundDuration":63516,"Delta":35401883},{"NoteNumber":65,"Velocity":44,"Duration":518661,"SoundDuration":518661,"Delta":35967522},{"NoteNumber":48,"Velocity":27,"Duration":1315973,"SoundDuration":1315973,"Delta":35967522},{"NoteNumber":57,"Velocity":32,"Duration":630535,"SoundDuration":630535,"Delta":35967522},{"NoteNumber":69,"Velocity":39,"Duration":111873,"SoundDuration":111873,"Delta":36486184},{"NoteNumber":67,"Velocity":44,"Duration":447493,"SoundDuration":447493,"Delta":36598057},{"NoteNumber":64,"Velocity":36,"Duration":447493,"SoundDuration":447493,"Delta":36598057},{"NoteNumber":58,"Velocity":28,"Duration":685437,"SoundDuration":685437,"Delta":36598057},{"NoteNumber":65,"Velocity":41,"Duration":237943,"SoundDuration":237943,"Delta":37045551},{"NoteNumber":65,"Velocity":41,"Duration":597319,"SoundDuration":597319,"Delta":37283495},{"NoteNumber":53,"Velocity":28,"Duration":597319,"SoundDuration":597319,"Delta":37283495},{"NoteNumber":57,"Velocity":24,"Duration":195976,"SoundDuration":195976,"Delta":37488862},{"NoteNumber":69,"Velocity":39,"Duration":195976,"SoundDuration":195976,"Delta":37684838},{"NoteNumber":60,"Velocity":24,"Duration":195976,"SoundDuration":195976,"Delta":37684838},{"NoteNumber":72,"Velocity":44,"Duration":197264,"SoundDuration":197264,"Delta":37880814},{"NoteNumber":64,"Velocity":37,"Duration":597121,"SoundDuration":597121,"Delta":37880814},{"NoteNumber":53,"Velocity":28,"Duration":597121,"SoundDuration":597121,"Delta":37880814},{"NoteNumber":70,"Velocity":39,"Duration":197264,"SoundDuration":197264,"Delta":38078079},{"NoteNumber":55,"Velocity":26,"Duration":197264,"SoundDuration":197264,"Delta":38078079},{"NoteNumber":67,"Velocity":39,"Duration":202593,"SoundDuration":202593,"Delta":38275343},{"NoteNumber":58,"Velocity":26,"Duration":202593,"SoundDuration":202593,"Delta":38275343},{"NoteNumber":65,"Velocity":44,"Duration":595762,"SoundDuration":595762,"Delta":38477936},{"NoteNumber":53,"Velocity":28,"Duration":595762,"SoundDuration":595762,"Delta":38477936},{"NoteNumber":60,"Velocity":40,"Duration":194798,"SoundDuration":194798,"Delta":38675201},{"NoteNumber":57,"Velocity":24,"Duration":197264,"SoundDuration":197264,"Delta":38675201},{"NoteNumber":69,"Velocity":40,"Duration":201233,"SoundDuration":201233,"Delta":38872465},{"NoteNumber":60,"Velocity":24,"Duration":201233,"SoundDuration":201233,"Delta":38872465},{"NoteNumber":72,"Velocity":44,"Duration":197264,"SoundDuration":197264,"Delta":39073699},{"NoteNumber":64,"Velocity":37,"Duration":597121,"SoundDuration":597121,"Delta":39073699},{"NoteNumber":53,"Velocity":28,"Duration":597121,"SoundDuration":597121,"Delta":39073699},{"NoteNumber":70,"Velocity":40,"Duration":197264,"SoundDuration":197264,"Delta":39270964},{"NoteNumber":55,"Velocity":24,"Duration":197264,"SoundDuration":197264,"Delta":39270964},{"NoteNumber":67,"Velocity":40,"Duration":202593,"SoundDuration":202593,"Delta":39468228},{"NoteNumber":58,"Velocity":24,"Duration":202593,"SoundDuration":202593,"Delta":39468228},{"NoteNumber":65,"Velocity":44,"Duration":197264,"SoundDuration":197264,"Delta":39670821},{"NoteNumber":53,"Velocity":28,"Duration":604202,"SoundDuration":604202,"Delta":39670821},{"NoteNumber":60,"Velocity":41,"Duration":194798,"SoundDuration":194798,"Delta":39868086},{"NoteNumber":57,"Velocity":24,"Duration":197264,"SoundDuration":197264,"Delta":39868086},{"NoteNumber":69,"Velocity":41,"Duration":209673,"SoundDuration":209673,"Delta":40065350},{"NoteNumber":60,"Velocity":24,"Duration":209673,"SoundDuration":209673,"Delta":40065350},{"NoteNumber":65,"Velocity":44,"Duration":198570,"SoundDuration":198570,"Delta":40275023},{"NoteNumber":53,"Velocity":28,"Duration":702147,"SoundDuration":702147,"Delta":40275023},{"NoteNumber":60,"Velocity":40,"Duration":203336,"SoundDuration":203336,"Delta":40473594},{"NoteNumber":57,"Velocity":24,"Duration":206782,"SoundDuration":206782,"Delta":40473594},{"NoteNumber":69,"Velocity":40,"Duration":296794,"SoundDuration":296794,"Delta":40680376},{"NoteNumber":60,"Velocity":24,"Duration":296794,"SoundDuration":296794,"Delta":40680376},{"NoteNumber":58,"Velocity":36,"Duration":802998,"SoundDuration":802998,"Delta":40977171},{"NoteNumber":67,"Velocity":42,"Duration":802998,"SoundDuration":802998,"Delta":40977171},{"NoteNumber":53,"Velocity":28,"Duration":1070664,"SoundDuration":1070664,"Delta":40977171},{"NoteNumber":41,"Velocity":23,"Duration":1070664,"SoundDuration":1070664,"Delta":40977171},{"NoteNumber":65,"Velocity":36,"Duration":267665,"SoundDuration":267665,"Delta":41780169},{"NoteNumber":57,"Velocity":31,"Duration":267665,"SoundDuration":267665,"Delta":41780169},{"NoteNumber":69,"Velocity":68,"Duration":595711,"SoundDuration":595711,"Delta":42583167},{"NoteNumber":81,"Velocity":80,"Duration":595711,"SoundDuration":595711,"Delta":42583167},{"NoteNumber":79,"Velocity":77,"Duration":595711,"SoundDuration":595711,"Delta":43178878},{"NoteNumber":69,"Velocity":65,"Duration":595711,"SoundDuration":595711,"Delta":43178878},{"NoteNumber":77,"Velocity":78,"Duration":595711,"SoundDuration":595711,"Delta":43774590},{"NoteNumber":69,"Velocity":66,"Duration":595711,"SoundDuration":595711,"Delta":43774590},{"NoteNumber":45,"Velocity":63,"Duration":595711,"SoundDuration":595711,"Delta":43774590},{"NoteNumber":57,"Velocity":74,"Duration":595711,"SoundDuration":595711,"Delta":43774590},{"NoteNumber":69,"Velocity":65,"Duration":595711,"SoundDuration":595711,"Delta":44370301},{"NoteNumber":76,"Velocity":76,"Duration":595711,"SoundDuration":595711,"Delta":44370301},{"NoteNumber":55,"Velocity":74,"Duration":595711,"SoundDuration":595711,"Delta":44370301},{"NoteNumber":43,"Velocity":63,"Duration":595711,"SoundDuration":595711,"Delta":44370301},{"NoteNumber":69,"Velocity":67,"Duration":595711,"SoundDuration":595711,"Delta":44966013},{"NoteNumber":74,"Velocity":79,"Duration":595711,"SoundDuration":595711,"Delta":44966013},{"NoteNumber":53,"Velocity":74,"Duration":595711,"SoundDuration":595711,"Delta":44966013},{"NoteNumber":41,"Velocity":63,"Duration":595711,"SoundDuration":595711,"Delta":44966013},{"NoteNumber":67,"Velocity":65,"Duration":629018,"SoundDuration":629018,"Delta":45561724},{"NoteNumber":73,"Velocity":76,"Duration":629018,"SoundDuration":629018,"Delta":45561724},{"NoteNumber":69,"Velocity":65,"Duration":629018,"SoundDuration":629018,"Delta":45561724},{"NoteNumber":40,"Velocity":63,"Duration":629018,"SoundDuration":629018,"Delta":45561724},{"NoteNumber":52,"Velocity":74,"Duration":629018,"SoundDuration":629018,"Delta":45561724},{"NoteNumber":74,"Velocity":65,"Duration":99285,"SoundDuration":99285,"Delta":46190743},{"NoteNumber":50,"Velocity":59,"Duration":198570,"SoundDuration":198570,"Delta":46190743},{"NoteNumber":69,"Velocity":54,"Duration":99285,"SoundDuration":99285,"Delta":46290029},{"NoteNumber":65,"Velocity":54,"Duration":96724,"SoundDuration":96724,"Delta":46389314},{"NoteNumber":53,"Velocity":54,"Duration":193448,"SoundDuration":193448,"Delta":46389314},{"NoteNumber":69,"Velocity":54,"Duration":96724,"SoundDuration":96724,"Delta":46486038},{"NoteNumber":74,"Velocity":65,"Duration":102683,"SoundDuration":102683,"Delta":46582762},{"NoteNumber":57,"Velocity":54,"Duration":205367,"SoundDuration":205367,"Delta":46582762},{"NoteNumber":69,"Velocity":54,"Duration":102683,"SoundDuration":102683,"Delta":46685446},{"NoteNumber":76,"Velocity":65,"Duration":98632,"SoundDuration":98632,"Delta":46788129},{"NoteNumber":49,"Velocity":59,"Duration":197264,"SoundDuration":197264,"Delta":46788129},{"NoteNumber":69,"Velocity":54,"Duration":98632,"SoundDuration":98632,"Delta":46886762},{"NoteNumber":67,"Velocity":54,"Duration":96104,"SoundDuration":96104,"Delta":46985394},{"NoteNumber":52,"Velocity":54,"Duration":192208,"SoundDuration":192208,"Delta":46985394},{"NoteNumber":69,"Velocity":54,"Duration":96104,"SoundDuration":96104,"Delta":47081498},{"NoteNumber":76,"Velocity":65,"Duration":100616,"SoundDuration":100616,"Delta":47177603},{"NoteNumber":57,"Velocity":54,"Duration":201233,"SoundDuration":201233,"Delta":47177603},{"NoteNumber":69,"Velocity":55,"Duration":100616,"SoundDuration":100616,"Delta":47278220},{"NoteNumber":77,"Velocity":65,"Duration":97988,"SoundDuration":97988,"Delta":47378837},{"NoteNumber":50,"Velocity":59,"Duration":195976,"SoundDuration":195976,"Delta":47378837},{"NoteNumber":74,"Velocity":55,"Duration":97988,"SoundDuration":97988,"Delta":47476825},{"NoteNumber":69,"Velocity":55,"Duration":97988,"SoundDuration":97988,"Delta":47574813},{"NoteNumber":53,"Velocity":54,"Duration":195976,"SoundDuration":195976,"Delta":47574813},{"NoteNumber":74,"Velocity":55,"Duration":97988,"SoundDuration":97988,"Delta":47672801},{"NoteNumber":77,"Velocity":65,"Duration":100616,"SoundDuration":100616,"Delta":47770789},{"NoteNumber":57,"Velocity":54,"Duration":201233,"SoundDuration":201233,"Delta":47770789},{"NoteNumber":74,"Velocity":55,"Duration":100616,"SoundDuration":100616,"Delta":47871406},{"NoteNumber":78,"Velocity":65,"Duration":97988,"SoundDuration":97988,"Delta":47972023},{"NoteNumber":48,"Velocity":59,"Duration":195976,"SoundDuration":195976,"Delta":47972023},{"NoteNumber":74,"Velocity":55,"Duration":97988,"SoundDuration":97988,"Delta":48070011},{"NoteNumber":69,"Velocity":55,"Duration":96104,"SoundDuration":96104,"Delta":48167999},{"NoteNumber":54,"Velocity":53,"Duration":192208,"SoundDuration":192208,"Delta":48167999},{"NoteNumber":74,"Velocity":55,"Duration":96104,"SoundDuration":96104,"Delta":48264103},{"NoteNumber":78,"Velocity":65,"Duration":100616,"SoundDuration":100616,"Delta":48360208},{"NoteNumber":57,"Velocity":53,"Duration":201233,"SoundDuration":201233,"Delta":48360208},{"NoteNumber":74,"Velocity":56,"Duration":100616,"SoundDuration":100616,"Delta":48460825},{"NoteNumber":79,"Velocity":65,"Duration":394528,"SoundDuration":394528,"Delta":48561442},{"NoteNumber":47,"Velocity":58,"Duration":394528,"SoundDuration":394528,"Delta":48561442},{"NoteNumber":81,"Velocity":59,"Duration":97352,"SoundDuration":97352,"Delta":48955971},{"NoteNumber":79,"Velocity":59,"Duration":97352,"SoundDuration":97352,"Delta":49053323},{"NoteNumber":77,"Velocity":65,"Duration":397140,"SoundDuration":397140,"Delta":49150675},{"NoteNumber":79,"Velocity":57,"Duration":97988,"SoundDuration":97988,"Delta":49547816},{"NoteNumber":77,"Velocity":57,"Duration":97988,"SoundDuration":97988,"Delta":49645804},{"NoteNumber":76,"Velocity":65,"Duration":399787,"SoundDuration":399787,"Delta":49743792},{"NoteNumber":67,"Velocity":54,"Duration":597051,"SoundDuration":597051,"Delta":49743792},{"NoteNumber":77,"Velocity":57,"Duration":98632,"SoundDuration":98632,"Delta":50143579},{"NoteNumber":76,"Velocity":57,"Duration":98632,"SoundDuration":98632,"Delta":50242211},{"NoteNumber":74,"Velocity":65,"Duration":399787,"SoundDuration":399787,"Delta":50340843},{"NoteNumber":65,"Velocity":44,"Duration":595763,"SoundDuration":595763,"Delta":50340843},{"NoteNumber":67,"Velocity":52,"Duration":595763,"SoundDuration":595763,"Delta":50340843},{"NoteNumber":76,"Velocity":59,"Duration":97988,"SoundDuration":97988,"Delta":50740630},{"NoteNumber":74,"Velocity":59,"Duration":97988,"SoundDuration":97988,"Delta":50838618},{"NoteNumber":72,"Velocity":65,"Duration":399787,"SoundDuration":399787,"Delta":50936606},{"NoteNumber":64,"Velocity":40,"Duration":595763,"SoundDuration":595763,"Delta":50936606},{"NoteNumber":67,"Velocity":47,"Duration":595763,"SoundDuration":595763,"Delta":50936606},{"NoteNumber":74,"Velocity":59,"Duration":97988,"SoundDuration":97988,"Delta":51336393},{"NoteNumber":72,"Velocity":59,"Duration":97988,"SoundDuration":97988,"Delta":51434381},{"NoteNumber":71,"Velocity":65,"Duration":399787,"SoundDuration":399787,"Delta":51532369},{"NoteNumber":67,"Velocity":46,"Duration":602380,"SoundDuration":602380,"Delta":51532369},{"NoteNumber":65,"Velocity":39,"Duration":602380,"SoundDuration":602380,"Delta":51532369},{"NoteNumber":62,"Velocity":39,"Duration":602380,"SoundDuration":602380,"Delta":51532369},{"NoteNumber":72,"Velocity":56,"Duration":101296,"SoundDuration":101296,"Delta":51932156},{"NoteNumber":71,"Velocity":56,"Duration":101296,"SoundDuration":101296,"Delta":52033453},{"NoteNumber":74,"Velocity":62,"Duration":109941,"SoundDuration":109941,"Delta":52134749},{"NoteNumber":60,"Velocity":44,"Duration":99946,"SoundDuration":99946,"Delta":52134749},{"NoteNumber":72,"Velocity":54,"Duration":109941,"SoundDuration":109941,"Delta":52234696},{"NoteNumber":71,"Velocity":54,"Duration":109941,"SoundDuration":109941,"Delta":52334643},{"NoteNumber":64,"Velocity":37,"Duration":99946,"SoundDuration":99946,"Delta":52334643},{"NoteNumber":72,"Velocity":54,"Duration":109941,"SoundDuration":109941,"Delta":52434590},{"NoteNumber":71,"Velocity":53,"Duration":110215,"SoundDuration":110215,"Delta":52534536},{"NoteNumber":67,"Velocity":37,"Duration":99946,"SoundDuration":99946,"Delta":52534536},{"NoteNumber":72,"Velocity":55,"Duration":112612,"SoundDuration":112612,"Delta":52634483},{"NoteNumber":76,"Velocity":59,"Duration":109213,"SoundDuration":109213,"Delta":52737167},{"NoteNumber":59,"Velocity":43,"Duration":99285,"SoundDuration":99285,"Delta":52737167},{"NoteNumber":74,"Velocity":55,"Duration":109213,"SoundDuration":109213,"Delta":52836452},{"NoteNumber":73,"Velocity":55,"Duration":109213,"SoundDuration":109213,"Delta":52935737},{"NoteNumber":65,"Velocity":37,"Duration":99285,"SoundDuration":99285,"Delta":52935737},{"NoteNumber":74,"Velocity":55,"Duration":109213,"SoundDuration":109213,"Delta":53035022},{"NoteNumber":73,"Velocity":55,"Duration":109624,"SoundDuration":109624,"Delta":53134308},{"NoteNumber":67,"Velocity":37,"Duration":99285,"SoundDuration":99285,"Delta":53134308},{"NoteNumber":74,"Velocity":55,"Duration":113319,"SoundDuration":113319,"Delta":53233593},{"NoteNumber":76,"Velocity":59,"Duration":109213,"SoundDuration":109213,"Delta":53336984},{"NoteNumber":60,"Velocity":46,"Duration":198570,"SoundDuration":198570,"Delta":53336984},{"NoteNumber":64,"Velocity":46,"Duration":198570,"SoundDuration":198570,"Delta":53336984},{"NoteNumber":67,"Velocity":46,"Duration":198570,"SoundDuration":198570,"Delta":53336984},{"NoteNumber":74,"Velocity":54,"Duration":109213,"SoundDuration":109213,"Delta":53436269},{"NoteNumber":72,"Velocity":54,"Duration":109213,"SoundDuration":109213,"Delta":53535555},{"NoteNumber":74,"Velocity":54,"Duration":109213,"SoundDuration":109213,"Delta":53634840},{"NoteNumber":76,"Velocity":54,"Duration":109213,"SoundDuration":109213,"Delta":53734125},{"NoteNumber":77,"Velocity":54,"Duration":109213,"SoundDuration":109213,"Delta":53833410},{"NoteNumber":79,"Velocity":59,"Duration":109213,"SoundDuration":109213,"Delta":53932696},{"NoteNumber":77,"Velocity":55,"Duration":109213,"SoundDuration":109213,"Delta":54031981},{"NoteNumber":76,"Velocity":55,"Duration":109213,"SoundDuration":109213,"Delta":54131266},{"NoteNumber":77,"Velocity":55,"Duration":109213,"SoundDuration":109213,"Delta":54230551},{"NoteNumber":79,"Velocity":55,"Duration":109624,"SoundDuration":109624,"Delta":54329837},{"NoteNumber":80,"Velocity":55,"Duration":113319,"SoundDuration":113319,"Delta":54429122},{"NoteNumber":81,"Velocity":59,"Duration":99285,"SoundDuration":99285,"Delta":54532513},{"NoteNumber":53,"Velocity":41,"Duration":99285,"SoundDuration":99285,"Delta":54532513},{"NoteNumber":82,"Velocity":55,"Duration":109213,"SoundDuration":109213,"Delta":54631798},{"NoteNumber":81,"Velocity":55,"Duration":109213,"SoundDuration":109213,"Delta":54731084},{"NoteNumber":65,"Velocity":35,"Duration":99285,"SoundDuration":99285,"Delta":54731084},{"NoteNumber":79,"Velocity":55,"Duration":109213,"SoundDuration":109213,"Delta":54830369},{"NoteNumber":77,"Velocity":55,"Duration":109213,"SoundDuration":109213,"Delta":54929654},{"NoteNumber":76,"Velocity":54,"Duration":109768,"SoundDuration":109768,"Delta":55028939},{"NoteNumber":74,"Velocity":59,"Duration":104836,"SoundDuration":104836,"Delta":55128225},{"NoteNumber":47,"Velocity":43,"Duration":104836,"SoundDuration":104836,"Delta":55128225},{"NoteNumber":85,"Velocity":54,"Duration":109213,"SoundDuration":109213,"Delta":55233061},{"NoteNumber":86,"Velocity":63,"Duration":109213,"SoundDuration":109213,"Delta":55332346},{"NoteNumber":59,"Velocity":38,"Duration":99285,"SoundDuration":99285,"Delta":55332346},{"NoteNumber":84,"Velocity":62,"Duration":109213,"SoundDuration":109213,"Delta":55431632},{"NoteNumber":83,"Velocity":60,"Duration":109483,"SoundDuration":109483,"Delta":55530917},{"NoteNumber":81,"Velocity":59,"Duration":111913,"SoundDuration":111913,"Delta":55630202},{"NoteNumber":79,"Velocity":59,"Duration":99285,"SoundDuration":99285,"Delta":55732187},{"NoteNumber":52,"Velocity":44,"Duration":99285,"SoundDuration":99285,"Delta":55732187},{"NoteNumber":81,"Velocity":60,"Duration":99285,"SoundDuration":99285,"Delta":55831473},{"NoteNumber":79,"Velocity":60,"Duration":99285,"SoundDuration":99285,"Delta":55930758},{"NoteNumber":64,"Velocity":40,"Duration":99285,"SoundDuration":99285,"Delta":55930758},{"NoteNumber":77,"Velocity":60,"Duration":99285,"SoundDuration":99285,"Delta":56030043},{"NoteNumber":76,"Velocity":60,"Duration":99285,"SoundDuration":99285,"Delta":56129328},{"NoteNumber":74,"Velocity":59,"Duration":99285,"SoundDuration":99285,"Delta":56228614},{"NoteNumber":72,"Velocity":59,"Duration":104836,"SoundDuration":104836,"Delta":56327899},{"NoteNumber":45,"Velocity":43,"Duration":104836,"SoundDuration":104836,"Delta":56327899},{"NoteNumber":83,"Velocity":56,"Duration":109213,"SoundDuration":109213,"Delta":56432735},{"NoteNumber":84,"Velocity":63,"Duration":109213,"SoundDuration":109213,"Delta":56532021},{"NoteNumber":57,"Velocity":40,"Duration":99285,"SoundDuration":99285,"Delta":56532021},{"NoteNumber":83,"Velocity":62,"Duration":109213,"SoundDuration":109213,"Delta":56631306},{"NoteNumber":81,"Velocity":60,"Duration":109213,"SoundDuration":109213,"Delta":56730591},{"NoteNumber":79,"Velocity":59,"Duration":109842,"SoundDuration":109842,"Delta":56829876},{"NoteNumber":77,"Velocity":56,"Duration":105574,"SoundDuration":105574,"Delta":56929162},{"NoteNumber":50,"Velocity":48,"Duration":105574,"SoundDuration":105574,"Delta":56929162},{"NoteNumber":85,"Velocity":61,"Duration":98632,"SoundDuration":98632,"Delta":57034736},{"NoteNumber":86,"Velocity":68,"Duration":98632,"SoundDuration":98632,"Delta":57133368},{"NoteNumber":83,"Velocity":63,"Duration":98632,"SoundDuration":98632,"Delta":57232000},{"NoteNumber":79,"Velocity":63,"Duration":98632,"SoundDuration":98632,"Delta":57330633},{"NoteNumber":59,"Velocity":43,"Duration":98632,"SoundDuration":98632,"Delta":57330633},{"NoteNumber":77,"Velocity":63,"Duration":98632,"SoundDuration":98632,"Delta":57429265},{"NoteNumber":76,"Velocity":60,"Duration":104836,"SoundDuration":104836,"Delta":57527897},{"NoteNumber":60,"Velocity":49,"Duration":104836,"SoundDuration":104836,"Delta":57527897},{"NoteNumber":83,"Velocity":53,"Duration":108495,"SoundDuration":108495,"Delta":57632734},{"NoteNumber":84,"Velocity":59,"Duration":108495,"SoundDuration":108495,"Delta":57731366},{"NoteNumber":79,"Velocity":54,"Duration":108495,"SoundDuration":108495,"Delta":57829998},{"NoteNumber":77,"Velocity":54,"Duration":108560,"SoundDuration":108560,"Delta":57928630},{"NoteNumber":48,"Velocity":40,"Duration":98632,"SoundDuration":98632,"Delta":57928630},{"NoteNumber":76,"Velocity":54,"Duration":109148,"SoundDuration":109148,"Delta":58027263},{"NoteNumber":74,"Velocity":59,"Duration":98632,"SoundDuration":98632,"Delta":58126548},{"NoteNumber":55,"Velocity":47,"Duration":98632,"SoundDuration":98632,"Delta":58126548},{"NoteNumber":76,"Velocity":58,"Duration":108495,"SoundDuration":108495,"Delta":58225180},{"NoteNumber":74,"Velocity":62,"Duration":108495,"SoundDuration":108495,"Delta":58323812},{"NoteNumber":72,"Velocity":61,"Duration":108495,"SoundDuration":108495,"Delta":58422445},{"NoteNumber":71,"Velocity":60,"Duration":108495,"SoundDuration":108495,"Delta":58521077},{"NoteNumber":69,"Velocity":59,"Duration":108474,"SoundDuration":108474,"Delta":58619709},{"NoteNumber":67,"Velocity":57,"Duration":108092,"SoundDuration":108092,"Delta":58718341},{"NoteNumber":69,"Velocity":57,"Duration":109358,"SoundDuration":109358,"Delta":58816571},{"NoteNumber":67,"Velocity":56,"Duration":110742,"SoundDuration":110742,"Delta":58915935},{"NoteNumber":65,"Velocity":55,"Duration":112163,"SoundDuration":112163,"Delta":59016548},{"NoteNumber":64,"Velocity":52,"Duration":117573,"SoundDuration":117573,"Delta":59118443},{"NoteNumber":62,"Velocity":51,"Duration":142748,"SoundDuration":142748,"Delta":59221742},{"NoteNumber":75,"Velocity":49,"Duration":796126,"SoundDuration":796126,"Delta":59364490},{"NoteNumber":60,"Velocity":41,"Duration":199031,"SoundDuration":199031,"Delta":59364490},{"NoteNumber":63,"Velocity":31,"Duration":199031,"SoundDuration":199031,"Delta":59563522},{"NoteNumber":67,"Velocity":31,"Duration":199031,"SoundDuration":199031,"Delta":59762553},{"NoteNumber":60,"Velocity":37,"Duration":199031,"SoundDuration":199031,"Delta":59961585},{"NoteNumber":74,"Velocity":43,"Duration":98632,"SoundDuration":98632,"Delta":60160616},{"NoteNumber":63,"Velocity":31,"Duration":197264,"SoundDuration":197264,"Delta":60160616},{"NoteNumber":72,"Velocity":43,"Duration":98632,"SoundDuration":98632,"Delta":60357881},{"NoteNumber":67,"Velocity":31,"Duration":206755,"SoundDuration":206755,"Delta":60357881},{"NoteNumber":78,"Velocity":49,"Duration":398063,"SoundDuration":398063,"Delta":60564637},{"NoteNumber":59,"Velocity":41,"Duration":199031,"SoundDuration":199031,"Delta":60564637},{"NoteNumber":62,"Velocity":31,"Duration":199031,"SoundDuration":199031,"Delta":60763668},{"NoteNumber":79,"Velocity":43,"Duration":199031,"SoundDuration":199031,"Delta":60962700},{"NoteNumber":67,"Velocity":31,"Duration":199031,"SoundDuration":199031,"Delta":60962700},{"NoteNumber":74,"Velocity":43,"Duration":398063,"SoundDuration":398063,"Delta":61161731},{"NoteNumber":59,"Velocity":36,"Duration":199031,"SoundDuration":199031,"Delta":61161731},{"NoteNumber":62,"Velocity":31,"Duration":199031,"SoundDuration":199031,"Delta":61360763},{"NoteNumber":67,"Velocity":31,"Duration":210029,"SoundDuration":210029,"Delta":61559794},{"NoteNumber":80,"Velocity":58,"Duration":796126,"SoundDuration":796126,"Delta":61769824},{"NoteNumber":59,"Velocity":41,"Duration":199031,"SoundDuration":199031,"Delta":61769824},{"NoteNumber":62,"Velocity":31,"Duration":199031,"SoundDuration":199031,"Delta":61968855},{"NoteNumber":65,"Velocity":31,"Duration":199031,"SoundDuration":199031,"Delta":62167887},{"NoteNumber":59,"Velocity":37,"Duration":199031,"SoundDuration":199031,"Delta":62366918},{"NoteNumber":79,"Velocity":49,"Duration":98632,"SoundDuration":98632,"Delta":62565950},{"NoteNumber":62,"Velocity":31,"Duration":197264,"SoundDuration":197264,"Delta":62565950},{"NoteNumber":77,"Velocity":49,"Duration":98632,"SoundDuration":98632,"Delta":62763214},{"NoteNumber":67,"Velocity":31,"Duration":206755,"SoundDuration":206755,"Delta":62763214},{"NoteNumber":75,"Velocity":60,"Duration":199031,"SoundDuration":199031,"Delta":62969970},{"NoteNumber":60,"Velocity":41,"Duration":199031,"SoundDuration":199031,"Delta":62969970},{"NoteNumber":77,"Velocity":42,"Duration":67990,"SoundDuration":67990,"Delta":63169002},{"NoteNumber":63,"Velocity":31,"Duration":203970,"SoundDuration":203970,"Delta":63169002},{"NoteNumber":75,"Velocity":42,"Duration":67990,"SoundDuration":67990,"Delta":63236992},{"NoteNumber":74,"Velocity":42,"Duration":67990,"SoundDuration":67990,"Delta":63304982},{"NoteNumber":75,"Velocity":51,"Duration":102683,"SoundDuration":102683,"Delta":63372972},{"NoteNumber":67,"Velocity":31,"Duration":218890,"SoundDuration":218890,"Delta":63372972},{"NoteNumber":77,"Velocity":44,"Duration":116207,"SoundDuration":116207,"Delta":63475656},{"NoteNumber":79,"Velocity":51,"Duration":397140,"SoundDuration":397140,"Delta":63591863},{"NoteNumber":60,"Velocity":36,"Duration":198570,"SoundDuration":198570,"Delta":63591863},{"NoteNumber":63,"Velocity":31,"Duration":198570,"SoundDuration":198570,"Delta":63790433},{"NoteNumber":67,"Velocity":31,"Duration":209798,"SoundDuration":209798,"Delta":63989004},{"NoteNumber":84,"Velocity":66,"Duration":603701,"SoundDuration":603701,"Delta":64198802},{"NoteNumber":63,"Velocity":47,"Duration":201233,"SoundDuration":201233,"Delta":64198802},{"NoteNumber":67,"Velocity":36,"Duration":201233,"SoundDuration":201233,"Delta":64400036},{"NoteNumber":72,"Velocity":36,"Duration":201233,"SoundDuration":201233,"Delta":64601270},{"NoteNumber":82,"Velocity":54,"Duration":397395,"SoundDuration":397395,"Delta":64802504},{"NoteNumber":62,"Velocity":44,"Duration":197381,"SoundDuration":197381,"Delta":64802504},{"NoteNumber":65,"Velocity":32,"Duration":200013,"SoundDuration":200013,"Delta":64999886},{"NoteNumber":84,"Velocity":50,"Duration":205493,"SoundDuration":205493,"Delta":65199899},{"NoteNumber":70,"Velocity":33,"Duration":205493,"SoundDuration":205493,"Delta":65199899},{"NoteNumber":82,"Velocity":57,"Duration":397377,"SoundDuration":397377,"Delta":65405393},{"NoteNumber":60,"Velocity":48,"Duration":198688,"SoundDuration":198688,"Delta":65405393},{"NoteNumber":63,"Velocity":36,"Duration":198688,"SoundDuration":198688,"Delta":65604081},{"NoteNumber":80,"Velocity":52,"Duration":198688,"SoundDuration":198688,"Delta":65802770},{"NoteNumber":68,"Velocity":36,"Duration":198688,"SoundDuration":198688,"Delta":65802770},{"NoteNumber":79,"Velocity":55,"Duration":601472,"SoundDuration":601472,"Delta":66001458},{"NoteNumber":58,"Velocity":45,"Duration":198688,"SoundDuration":198688,"Delta":66001458},{"NoteNumber":62,"Velocity":31,"Duration":198688,"SoundDuration":198688,"Delta":66200147},{"NoteNumber":67,"Velocity":31,"Duration":204095,"SoundDuration":204095,"Delta":66398835},{"NoteNumber":77,"Velocity":59,"Duration":397377,"SoundDuration":397377,"Delta":66602931},{"NoteNumber":56,"Velocity":46,"Duration":198688,"SoundDuration":198688,"Delta":66602931},{"NoteNumber":60,"Velocity":35,"Duration":198688,"SoundDuration":198688,"Delta":66801619},{"NoteNumber":75,"Velocity":53,"Duration":198688,"SoundDuration":198688,"Delta":67000308},{"NoteNumber":65,"Velocity":35,"Duration":198688,"SoundDuration":198688,"Delta":67000308},{"NoteNumber":74,"Velocity":57,"Duration":397377,"SoundDuration":397377,"Delta":67198996},{"NoteNumber":56,"Velocity":43,"Duration":198688,"SoundDuration":198688,"Delta":67198996},{"NoteNumber":60,"Velocity":36,"Duration":198688,"SoundDuration":198688,"Delta":67397685},{"NoteNumber":72,"Velocity":47,"Duration":211282,"SoundDuration":211282,"Delta":67596373},{"NoteNumber":66,"Velocity":34,"Duration":211282,"SoundDuration":211282,"Delta":67596373},{"NoteNumber":75,"Velocity":53,"Duration":596065,"SoundDuration":596065,"Delta":67807656},{"NoteNumber":55,"Velocity":43,"Duration":198688,"SoundDuration":198688,"Delta":67807656},{"NoteNumber":60,"Velocity":29,"Duration":198688,"SoundDuration":198688,"Delta":68006344},{"NoteNumber":67,"Velocity":30,"Duration":198688,"SoundDuration":198688,"Delta":68205033},{"NoteNumber":74,"Velocity":45,"Duration":198688,"SoundDuration":198688,"Delta":68403721},{"NoteNumber":55,"Velocity":39,"Duration":198688,"SoundDuration":198688,"Delta":68403721},{"NoteNumber":59,"Velocity":27,"Duration":198688,"SoundDuration":198688,"Delta":68602410},{"NoteNumber":67,"Velocity":27,"Duration":211282,"SoundDuration":211282,"Delta":68801098},{"NoteNumber":75,"Velocity":49,"Duration":794753,"SoundDuration":794753,"Delta":69012381},{"NoteNumber":60,"Velocity":41,"Duration":198688,"SoundDuration":198688,"Delta":69012381},{"NoteNumber":63,"Velocity":31,"Duration":198688,"SoundDuration":198688,"Delta":69211069},{"NoteNumber":67,"Velocity":31,"Duration":198688,"SoundDuration":198688,"Delta":69409758},{"NoteNumber":60,"Velocity":37,"Duration":198688,"SoundDuration":198688,"Delta":69608446},{"NoteNumber":74,"Velocity":43,"Duration":98632,"SoundDuration":98632,"Delta":69807135},{"NoteNumber":63,"Velocity":31,"Duration":197264,"SoundDuration":197264,"Delta":69807135},{"NoteNumber":72,"Velocity":43,"Duration":98632,"SoundDuration":98632,"Delta":70004399},{"NoteNumber":67,"Velocity":31,"Duration":206755,"SoundDuration":206755,"Delta":70004399},{"NoteNumber":78,"Velocity":49,"Duration":398062,"SoundDuration":398062,"Delta":70211155},{"NoteNumber":59,"Velocity":41,"Duration":199031,"SoundDuration":199031,"Delta":70211155},{"NoteNumber":62,"Velocity":31,"Duration":199031,"SoundDuration":199031,"Delta":70410187},{"NoteNumber":79,"Velocity":43,"Duration":199031,"SoundDuration":199031,"Delta":70609218},{"NoteNumber":67,"Velocity":31,"Duration":199031,"SoundDuration":199031,"Delta":70609218},{"NoteNumber":74,"Velocity":43,"Duration":398063,"SoundDuration":398063,"Delta":70808250},{"NoteNumber":59,"Velocity":36,"Duration":199031,"SoundDuration":199031,"Delta":70808250},{"NoteNumber":62,"Velocity":31,"Duration":199031,"SoundDuration":199031,"Delta":71007281},{"NoteNumber":67,"Velocity":31,"Duration":210029,"SoundDuration":210029,"Delta":71206313},{"NoteNumber":80,"Velocity":58,"Duration":796126,"SoundDuration":796126,"Delta":71416342},{"NoteNumber":59,"Velocity":41,"Duration":199031,"SoundDuration":199031,"Delta":71416342},{"NoteNumber":62,"Velocity":31,"Duration":199031,"SoundDuration":199031,"Delta":71615374},{"NoteNumber":65,"Velocity":31,"Duration":199031,"SoundDuration":199031,"Delta":71814405},{"NoteNumber":59,"Velocity":37,"Duration":199031,"SoundDuration":199031,"Delta":72013437},{"NoteNumber":79,"Velocity":49,"Duration":98632,"SoundDuration":98632,"Delta":72212468},{"NoteNumber":62,"Velocity":31,"Duration":197264,"SoundDuration":197264,"Delta":72212468},{"NoteNumber":77,"Velocity":49,"Duration":98632,"SoundDuration":98632,"Delta":72409733},{"NoteNumber":67,"Velocity":31,"Duration":206755,"SoundDuration":206755,"Delta":72409733},{"NoteNumber":76,"Velocity":60,"Duration":199031,"SoundDuration":199031,"Delta":72616489},{"NoteNumber":58,"Velocity":41,"Duration":199031,"SoundDuration":199031,"Delta":72616489},{"NoteNumber":61,"Velocity":31,"Duration":203970,"SoundDuration":203970,"Delta":72815520},{"NoteNumber":77,"Velocity":51,"Duration":102683,"SoundDuration":102683,"Delta":73019491},{"NoteNumber":67,"Velocity":31,"Duration":218890,"SoundDuration":218890,"Delta":73019491},{"NoteNumber":79,"Velocity":44,"Duration":116207,"SoundDuration":116207,"Delta":73122174},{"NoteNumber":77,"Velocity":51,"Duration":397141,"SoundDuration":397141,"Delta":73238381},{"NoteNumber":57,"Velocity":36,"Duration":198570,"SoundDuration":198570,"Delta":73238381},{"NoteNumber":60,"Velocity":31,"Duration":198570,"SoundDuration":198570,"Delta":73436952},{"NoteNumber":65,"Velocity":31,"Duration":209798,"SoundDuration":209798,"Delta":73635522},{"NoteNumber":87,"Velocity":71,"Duration":603701,"SoundDuration":603701,"Delta":73845321},{"NoteNumber":56,"Velocity":52,"Duration":201233,"SoundDuration":201233,"Delta":73845321},{"NoteNumber":60,"Velocity":41,"Duration":201233,"SoundDuration":201233,"Delta":74046555},{"NoteNumber":66,"Velocity":41,"Duration":201233,"SoundDuration":201233,"Delta":74247789},{"NoteNumber":55,"Velocity":51,"Duration":201233,"SoundDuration":201233,"Delta":74449023},{"NoteNumber":86,"Velocity":58,"Duration":96780,"SoundDuration":96780,"Delta":74650257},{"NoteNumber":60,"Velocity":36,"Duration":199527,"SoundDuration":199527,"Delta":74650257},{"NoteNumber":84,"Velocity":58,"Duration":99344,"SoundDuration":99344,"Delta":74849784},{"NoteNumber":67,"Velocity":36,"Duration":198688,"SoundDuration":198688,"Delta":74849784},{"NoteNumber":83,"Velocity":66,"Duration":596065,"SoundDuration":596065,"Delta":75048473},{"NoteNumber":53,"Velocity":56,"Duration":198688,"SoundDuration":198688,"Delta":75048473},{"NoteNumber":56,"Velocity":36,"Duration":198688,"SoundDuration":198688,"Delta":75247161},{"NoteNumber":62,"Velocity":36,"Duration":198688,"SoundDuration":198688,"Delta":75445850},{"NoteNumber":84,"Velocity":68,"Duration":397377,"SoundDuration":397377,"Delta":75644538},{"NoteNumber":51,"Velocity":45,"Duration":198688,"SoundDuration":198688,"Delta":75644538},{"NoteNumber":60,"Velocity":31,"Duration":198688,"SoundDuration":198688,"Delta":75843227},{"NoteNumber":80,"Velocity":46,"Duration":194817,"SoundDuration":194817,"Delta":76041915},{"NoteNumber":53,"Velocity":31,"Duration":194817,"SoundDuration":194817,"Delta":76041915},{"NoteNumber":72,"Velocity":55,"Duration":546393,"SoundDuration":546393,"Delta":76236733},{"NoteNumber":55,"Velocity":45,"Duration":198688,"SoundDuration":198688,"Delta":76236733},{"NoteNumber":60,"Velocity":30,"Duration":198688,"SoundDuration":198688,"Delta":76435422},{"NoteNumber":63,"Velocity":30,"Duration":198688,"SoundDuration":198688,"Delta":76634110},{"NoteNumber":75,"Velocity":40,"Duration":49672,"SoundDuration":49672,"Delta":76783126},{"NoteNumber":74,"Velocity":51,"Duration":613918,"SoundDuration":613918,"Delta":76832799},{"NoteNumber":71,"Velocity":51,"Duration":613918,"SoundDuration":613918,"Delta":76832799},{"NoteNumber":55,"Velocity":38,"Duration":198688,"SoundDuration":198688,"Delta":76832799},{"NoteNumber":62,"Velocity":31,"Duration":198688,"SoundDuration":198688,"Delta":77031487},{"NoteNumber":65,"Velocity":31,"Duration":216541,"SoundDuration":216541,"Delta":77230176},{"NoteNumber":72,"Velocity":74,"Duration":101225,"SoundDuration":101225,"Delta":77446717},{"NoteNumber":60,"Velocity":67,"Duration":394236,"SoundDuration":394236,"Delta":77446717},{"NoteNumber":64,"Velocity":67,"Duration":394236,"SoundDuration":394236,"Delta":77446717},{"NoteNumber":79,"Velocity":62,"Duration":99285,"SoundDuration":99285,"Delta":77547942},{"NoteNumber":78,"Velocity":62,"Duration":97001,"SoundDuration":97001,"Delta":77647227},{"NoteNumber":79,"Velocity":62,"Duration":96724,"SoundDuration":96724,"Delta":77744229},{"NoteNumber":81,"Velocity":69,"Duration":102037,"SoundDuration":102037,"Delta":77840953},{"NoteNumber":79,"Velocity":62,"Duration":102683,"SoundDuration":102683,"Delta":77942991},{"NoteNumber":77,"Velocity":65,"Duration":97352,"SoundDuration":97352,"Delta":78045675},{"NoteNumber":62,"Velocity":67,"Duration":97352,"SoundDuration":97352,"Delta":78045675},{"NoteNumber":79,"Velocity":60,"Duration":97352,"SoundDuration":97352,"Delta":78143027},{"NoteNumber":77,"Velocity":65,"Duration":96104,"SoundDuration":96104,"Delta":78240379},{"NoteNumber":59,"Velocity":62,"Duration":96104,"SoundDuration":96104,"Delta":78240379},{"NoteNumber":79,"Velocity":59,"Duration":96104,"SoundDuration":96104,"Delta":78336483},{"NoteNumber":77,"Velocity":65,"Duration":100128,"SoundDuration":100128,"Delta":78432588},{"NoteNumber":55,"Velocity":62,"Duration":100128,"SoundDuration":100128,"Delta":78432588},{"NoteNumber":79,"Velocity":59,"Duration":100616,"SoundDuration":100616,"Delta":78532716},{"NoteNumber":76,"Velocity":74,"Duration":99429,"SoundDuration":99429,"Delta":78633333},{"NoteNumber":60,"Velocity":67,"Duration":392440,"SoundDuration":392440,"Delta":78633333},{"NoteNumber":79,"Velocity":62,"Duration":99285,"SoundDuration":99285,"Delta":78732763},{"NoteNumber":78,"Velocity":62,"Duration":97001,"SoundDuration":97001,"Delta":78832048},{"NoteNumber":79,"Velocity":62,"Duration":96724,"SoundDuration":96724,"Delta":78929049},{"NoteNumber":84,"Velocity":74,"Duration":102037,"SoundDuration":102037,"Delta":79025774},{"NoteNumber":79,"Velocity":62,"Duration":102683,"SoundDuration":102683,"Delta":79127812},{"NoteNumber":77,"Velocity":65,"Duration":97988,"SoundDuration":97988,"Delta":79230495},{"NoteNumber":62,"Velocity":67,"Duration":97988,"SoundDuration":97988,"Delta":79230495},{"NoteNumber":79,"Velocity":60,"Duration":97988,"SoundDuration":97988,"Delta":79328483},{"NoteNumber":77,"Velocity":65,"Duration":95492,"SoundDuration":95492,"Delta":79426471},{"NoteNumber":59,"Velocity":62,"Duration":95492,"SoundDuration":95492,"Delta":79426471},{"NoteNumber":79,"Velocity":59,"Duration":95492,"SoundDuration":95492,"Delta":79521964},{"NoteNumber":77,"Velocity":65,"Duration":100061,"SoundDuration":100061,"Delta":79617457},{"NoteNumber":55,"Velocity":62,"Duration":100061,"SoundDuration":100061,"Delta":79617457},{"NoteNumber":79,"Velocity":59,"Duration":100616,"SoundDuration":100616,"Delta":79717519},{"NoteNumber":76,"Velocity":74,"Duration":99429,"SoundDuration":99429,"Delta":79818136},{"NoteNumber":60,"Velocity":67,"Duration":392440,"SoundDuration":392440,"Delta":79818136},{"NoteNumber":79,"Velocity":62,"Duration":99285,"SoundDuration":99285,"Delta":79917565},{"NoteNumber":78,"Velocity":62,"Duration":97001,"SoundDuration":97001,"Delta":80016850},{"NoteNumber":79,"Velocity":62,"Duration":96724,"SoundDuration":96724,"Delta":80113852},{"NoteNumber":84,"Velocity":72,"Duration":102037,"SoundDuration":102037,"Delta":80210576},{"NoteNumber":79,"Velocity":62,"Duration":102683,"SoundDuration":102683,"Delta":80312614},{"NoteNumber":77,"Velocity":65,"Duration":96104,"SoundDuration":96104,"Delta":80415298},{"NoteNumber":62,"Velocity":67,"Duration":96104,"SoundDuration":96104,"Delta":80415298},{"NoteNumber":79,"Velocity":60,"Duration":96104,"SoundDuration":96104,"Delta":80511402},{"NoteNumber":77,"Velocity":65,"Duration":96104,"SoundDuration":96104,"Delta":80607507},{"NoteNumber":59,"Velocity":62,"Duration":96104,"SoundDuration":96104,"Delta":80607507},{"NoteNumber":79,"Velocity":59,"Duration":96104,"SoundDuration":96104,"Delta":80703611},{"NoteNumber":77,"Velocity":65,"Duration":100128,"SoundDuration":100128,"Delta":80799716},{"NoteNumber":55,"Velocity":62,"Duration":100128,"SoundDuration":100128,"Delta":80799716},{"NoteNumber":79,"Velocity":59,"Duration":100616,"SoundDuration":100616,"Delta":80899844},{"NoteNumber":76,"Velocity":74,"Duration":99429,"SoundDuration":99429,"Delta":81000461},{"NoteNumber":60,"Velocity":67,"Duration":392440,"SoundDuration":392440,"Delta":81000461},{"NoteNumber":79,"Velocity":62,"Duration":99285,"SoundDuration":99285,"Delta":81099890},{"NoteNumber":84,"Velocity":71,"Duration":97001,"SoundDuration":97001,"Delta":81199176},{"NoteNumber":76,"Velocity":60,"Duration":96724,"SoundDuration":96724,"Delta":81296177},{"NoteNumber":74,"Velocity":70,"Duration":102037,"SoundDuration":102037,"Delta":81392901},{"NoteNumber":83,"Velocity":62,"Duration":101670,"SoundDuration":101670,"Delta":81494939},{"NoteNumber":72,"Velocity":70,"Duration":98054,"SoundDuration":98054,"Delta":81596610},{"NoteNumber":81,"Velocity":62,"Duration":96789,"SoundDuration":96789,"Delta":81694665},{"NoteNumber":71,"Velocity":69,"Duration":94979,"SoundDuration":94979,"Delta":81791454},{"NoteNumber":79,"Velocity":60,"Duration":94739,"SoundDuration":94739,"Delta":81886433},{"NoteNumber":69,"Velocity":67,"Duration":94292,"SoundDuration":94292,"Delta":81981173},{"NoteNumber":77,"Velocity":58,"Duration":94535,"SoundDuration":94535,"Delta":82075465},{"NoteNumber":67,"Velocity":69,"Duration":93703,"SoundDuration":93703,"Delta":82170001},{"NoteNumber":76,"Velocity":62,"Duration":93703,"SoundDuration":93703,"Delta":82263704},{"NoteNumber":65,"Velocity":67,"Duration":93703,"SoundDuration":93703,"Delta":82357407},{"NoteNumber":74,"Velocity":59,"Duration":93703,"SoundDuration":93703,"Delta":82451110},{"NoteNumber":64,"Velocity":66,"Duration":93703,"SoundDuration":93703,"Delta":82544814},{"NoteNumber":72,"Velocity":56,"Duration":93703,"SoundDuration":93703,"Delta":82638517},{"NoteNumber":62,"Velocity":62,"Duration":96582,"SoundDuration":96582,"Delta":82732220},{"NoteNumber":71,"Velocity":54,"Duration":98150,"SoundDuration":98150,"Delta":82828802},{"NoteNumber":60,"Velocity":63,"Duration":99451,"SoundDuration":99451,"Delta":82926952},{"NoteNumber":69,"Velocity":55,"Duration":100788,"SoundDuration":100788,"Delta":83026404},{"NoteNumber":59,"Velocity":62,"Duration":102161,"SoundDuration":102161,"Delta":83127192},{"NoteNumber":67,"Velocity":51,"Duration":103571,"SoundDuration":103571,"Delta":83229353},{"NoteNumber":57,"Velocity":45,"Duration":595780,"SoundDuration":595780,"Delta":83332925},{"NoteNumber":66,"Velocity":55,"Duration":595780,"SoundDuration":595780,"Delta":83332925},{"NoteNumber":45,"Velocity":46,"Duration":215833,"SoundDuration":215833,"Delta":83534159},{"NoteNumber":48,"Velocity":49,"Duration":218168,"SoundDuration":218168,"Delta":83730135},{"NoteNumber":56,"Velocity":45,"Duration":591845,"SoundDuration":591845,"Delta":83928705},{"NoteNumber":65,"Velocity":55,"Duration":591845,"SoundDuration":591845,"Delta":83928705},{"NoteNumber":51,"Velocity":51,"Duration":215573,"SoundDuration":215573,"Delta":83928705},{"NoteNumber":50,"Velocity":46,"Duration":215965,"SoundDuration":215965,"Delta":84124681},{"NoteNumber":48,"Velocity":46,"Duration":402486,"SoundDuration":402486,"Delta":84320657},{"NoteNumber":68,"Velocity":45,"Duration":594561,"SoundDuration":594561,"Delta":84520551},{"NoteNumber":77,"Velocity":55,"Duration":594561,"SoundDuration":594561,"Delta":84520551},{"NoteNumber":47,"Velocity":45,"Duration":214430,"SoundDuration":214430,"Delta":84723144},{"NoteNumber":50,"Velocity":46,"Duration":216734,"SoundDuration":216734,"Delta":84917848},{"NoteNumber":62,"Velocity":45,"Duration":589301,"SoundDuration":589301,"Delta":85115112},{"NoteNumber":71,"Velocity":55,"Duration":589301,"SoundDuration":589301,"Delta":85115112},{"NoteNumber":56,"Velocity":51,"Duration":214174,"SoundDuration":214174,"Delta":85115112},{"NoteNumber":55,"Velocity":46,"Duration":214693,"SoundDuration":214693,"Delta":85309816},{"NoteNumber":53,"Velocity":46,"Duration":220016,"SoundDuration":220016,"Delta":85504520},{"NoteNumber":52,"Velocity":36,"Duration":201233,"SoundDuration":201233,"Delta":85704414},{"NoteNumber":79,"Velocity":49,"Duration":97352,"SoundDuration":97352,"Delta":85905648},{"NoteNumber":79,"Velocity":49,"Duration":97352,"SoundDuration":97352,"Delta":86100352},{"NoteNumber":53,"Velocity":40,"Duration":201233,"SoundDuration":201233,"Delta":86295056},{"NoteNumber":81,"Velocity":49,"Duration":97352,"SoundDuration":97352,"Delta":86496290},{"NoteNumber":81,"Velocity":49,"Duration":101985,"SoundDuration":101985,"Delta":86690994},{"NoteNumber":67,"Velocity":39,"Duration":553393,"SoundDuration":553393,"Delta":86894964},{"NoteNumber":72,"Velocity":47,"Duration":553393,"SoundDuration":553393,"Delta":86894964},{"NoteNumber":55,"Velocity":34,"Duration":1228354,"SoundDuration":1228354,"Delta":86894964},{"NoteNumber":64,"Velocity":40,"Duration":603701,"SoundDuration":603701,"Delta":86894964},{"NoteNumber":76,"Velocity":40,"Duration":50308,"SoundDuration":50308,"Delta":87448358},{"NoteNumber":71,"Velocity":37,"Duration":624652,"SoundDuration":624652,"Delta":87498666},{"NoteNumber":74,"Velocity":44,"Duration":624652,"SoundDuration":624652,"Delta":87498666},{"NoteNumber":65,"Velocity":40,"Duration":624652,"SoundDuration":624652,"Delta":87498666},{"NoteNumber":72,"Velocity":74,"Duration":99429,"SoundDuration":99429,"Delta":88123319},{"NoteNumber":64,"Velocity":67,"Duration":392440,"SoundDuration":392440,"Delta":88123319},{"NoteNumber":60,"Velocity":67,"Duration":392440,"SoundDuration":392440,"Delta":88123319},{"NoteNumber":79,"Velocity":62,"Duration":99285,"SoundDuration":99285,"Delta":88222748},{"NoteNumber":78,"Velocity":62,"Duration":97001,"SoundDuration":97001,"Delta":88322034},{"NoteNumber":79,"Velocity":62,"Duration":96724,"SoundDuration":96724,"Delta":88419035},{"NoteNumber":81,"Velocity":68,"Duration":102037,"SoundDuration":102037,"Delta":88515759},{"NoteNumber":79,"Velocity":62,"Duration":102683,"SoundDuration":102683,"Delta":88617797},{"NoteNumber":77,"Velocity":65,"Duration":99071,"SoundDuration":99071,"Delta":88720481},{"NoteNumber":62,"Velocity":67,"Duration":99071,"SoundDuration":99071,"Delta":88720481},{"NoteNumber":79,"Velocity":60,"Duration":98632,"SoundDuration":98632,"Delta":88819552},{"NoteNumber":77,"Velocity":65,"Duration":96378,"SoundDuration":96378,"Delta":88918184},{"NoteNumber":59,"Velocity":62,"Duration":96378,"SoundDuration":96378,"Delta":88918184},{"NoteNumber":79,"Velocity":59,"Duration":96104,"SoundDuration":96104,"Delta":89014563},{"NoteNumber":77,"Velocity":65,"Duration":100128,"SoundDuration":100128,"Delta":89110667},{"NoteNumber":55,"Velocity":62,"Duration":100128,"SoundDuration":100128,"Delta":89110667},{"NoteNumber":79,"Velocity":59,"Duration":100616,"SoundDuration":100616,"Delta":89210795},{"NoteNumber":76,"Velocity":74,"Duration":99429,"SoundDuration":99429,"Delta":89311412},{"NoteNumber":60,"Velocity":67,"Duration":392440,"SoundDuration":392440,"Delta":89311412},{"NoteNumber":79,"Velocity":62,"Duration":99285,"SoundDuration":99285,"Delta":89410842},{"NoteNumber":78,"Velocity":62,"Duration":97001,"SoundDuration":97001,"Delta":89510127},{"NoteNumber":79,"Velocity":62,"Duration":96724,"SoundDuration":96724,"Delta":89607129},{"NoteNumber":84,"Velocity":74,"Duration":102037,"SoundDuration":102037,"Delta":89703853},{"NoteNumber":79,"Velocity":62,"Duration":102683,"SoundDuration":102683,"Delta":89805891},{"NoteNumber":77,"Velocity":65,"Duration":99071,"SoundDuration":99071,"Delta":89908574},{"NoteNumber":62,"Velocity":67,"Duration":99071,"SoundDuration":99071,"Delta":89908574},{"NoteNumber":79,"Velocity":60,"Duration":98632,"SoundDuration":98632,"Delta":90007646},{"NoteNumber":77,"Velocity":65,"Duration":96378,"SoundDuration":96378,"Delta":90106278},{"NoteNumber":59,"Velocity":62,"Duration":96378,"SoundDuration":96378,"Delta":90106278},{"NoteNumber":79,"Velocity":59,"Duration":96104,"SoundDuration":96104,"Delta":90202656},{"NoteNumber":77,"Velocity":65,"Duration":100128,"SoundDuration":100128,"Delta":90298761},{"NoteNumber":55,"Velocity":62,"Duration":100128,"SoundDuration":100128,"Delta":90298761},{"NoteNumber":79,"Velocity":59,"Duration":100616,"SoundDuration":100616,"Delta":90398889},{"NoteNumber":76,"Velocity":74,"Duration":99429,"SoundDuration":99429,"Delta":90499506},{"NoteNumber":60,"Velocity":67,"Duration":392440,"SoundDuration":392440,"Delta":90499506},{"NoteNumber":79,"Velocity":62,"Duration":99285,"SoundDuration":99285,"Delta":90598935},{"NoteNumber":78,"Velocity":62,"Duration":97001,"SoundDuration":97001,"Delta":90698221},{"NoteNumber":79,"Velocity":62,"Duration":96724,"SoundDuration":96724,"Delta":90795222},{"NoteNumber":84,"Velocity":72,"Duration":102037,"SoundDuration":102037,"Delta":90891946},{"NoteNumber":79,"Velocity":62,"Duration":102683,"SoundDuration":102683,"Delta":90993984},{"NoteNumber":77,"Velocity":65,"Duration":99071,"SoundDuration":99071,"Delta":91096668},{"NoteNumber":62,"Velocity":67,"Duration":99071,"SoundDuration":99071,"Delta":91096668},{"NoteNumber":79,"Velocity":60,"Duration":98632,"SoundDuration":98632,"Delta":91195739},{"NoteNumber":77,"Velocity":65,"Duration":96378,"SoundDuration":96378,"Delta":91294371},{"NoteNumber":59,"Velocity":62,"Duration":96378,"SoundDuration":96378,"Delta":91294371},{"NoteNumber":79,"Velocity":59,"Duration":96104,"SoundDuration":96104,"Delta":91390750},{"NoteNumber":77,"Velocity":65,"Duration":100128,"SoundDuration":100128,"Delta":91486854},{"NoteNumber":55,"Velocity":62,"Duration":100128,"SoundDuration":100128,"Delta":91486854},{"NoteNumber":79,"Velocity":59,"Duration":100616,"SoundDuration":100616,"Delta":91586982},{"NoteNumber":76,"Velocity":74,"Duration":99429,"SoundDuration":99429,"Delta":91687599},{"NoteNumber":60,"Velocity":67,"Duration":393112,"SoundDuration":393112,"Delta":91687599},{"NoteNumber":79,"Velocity":62,"Duration":99285,"SoundDuration":99285,"Delta":91787029},{"NoteNumber":84,"Velocity":71,"Duration":97001,"SoundDuration":97001,"Delta":91886314},{"NoteNumber":76,"Velocity":60,"Duration":97395,"SoundDuration":97395,"Delta":91983316},{"NoteNumber":74,"Velocity":70,"Duration":99781,"SoundDuration":99781,"Delta":92080711},{"NoteNumber":83,"Velocity":62,"Duration":99160,"SoundDuration":99160,"Delta":92180493},{"NoteNumber":72,"Velocity":70,"Duration":98436,"SoundDuration":98436,"Delta":92279653},{"NoteNumber":81,"Velocity":62,"Duration":97121,"SoundDuration":97121,"Delta":92378090},{"NoteNumber":71,"Velocity":69,"Duration":96018,"SoundDuration":96018,"Delta":92475211},{"NoteNumber":79,"Velocity":60,"Duration":95125,"SoundDuration":95125,"Delta":92571230},{"NoteNumber":69,"Velocity":67,"Duration":94115,"SoundDuration":94115,"Delta":92666355},{"NoteNumber":77,"Velocity":58,"Duration":93272,"SoundDuration":93272,"Delta":92760471},{"NoteNumber":67,"Velocity":69,"Duration":92546,"SoundDuration":92546,"Delta":92853743},{"NoteNumber":76,"Velocity":62,"Duration":92546,"SoundDuration":92546,"Delta":92946290},{"NoteNumber":65,"Velocity":67,"Duration":92546,"SoundDuration":92546,"Delta":93038837},{"NoteNumber":74,"Velocity":59,"Duration":92547,"SoundDuration":92547,"Delta":93131384},{"NoteNumber":64,"Velocity":66,"Duration":92546,"SoundDuration":92546,"Delta":93223931},{"NoteNumber":72,"Velocity":56,"Duration":92546,"SoundDuration":92546,"Delta":93316478},{"NoteNumber":62,"Velocity":64,"Duration":92655,"SoundDuration":92655,"Delta":93409025},{"NoteNumber":71,"Velocity":55,"Duration":94868,"SoundDuration":94868,"Delta":93501681},{"NoteNumber":60,"Velocity":63,"Duration":97331,"SoundDuration":97331,"Delta":93596550},{"NoteNumber":69,"Velocity":55,"Duration":100661,"SoundDuration":100661,"Delta":93693881},{"NoteNumber":59,"Velocity":62,"Duration":102161,"SoundDuration":102161,"Delta":93794543},{"NoteNumber":67,"Velocity":51,"Duration":103571,"SoundDuration":103571,"Delta":93896704},{"NoteNumber":66,"Velocity":55,"Duration":595780,"SoundDuration":595780,"Delta":94000276},{"NoteNumber":57,"Velocity":45,"Duration":595780,"SoundDuration":595780,"Delta":94000276},{"NoteNumber":45,"Velocity":46,"Duration":215833,"SoundDuration":215833,"Delta":94201510},{"NoteNumber":48,"Velocity":49,"Duration":218168,"SoundDuration":218168,"Delta":94397486},{"NoteNumber":56,"Velocity":45,"Duration":591845,"SoundDuration":591845,"Delta":94596056},{"NoteNumber":65,"Velocity":55,"Duration":591845,"SoundDuration":591845,"Delta":94596056},{"NoteNumber":51,"Velocity":51,"Duration":215573,"SoundDuration":215573,"Delta":94596056},{"NoteNumber":50,"Velocity":46,"Duration":215965,"SoundDuration":215965,"Delta":94792032},{"NoteNumber":48,"Velocity":46,"Duration":402486,"SoundDuration":402486,"Delta":94988008},{"NoteNumber":77,"Velocity":55,"Duration":594561,"SoundDuration":594561,"Delta":95187902},{"NoteNumber":68,"Velocity":45,"Duration":594561,"SoundDuration":594561,"Delta":95187902},{"NoteNumber":47,"Velocity":45,"Duration":214430,"SoundDuration":214430,"Delta":95390495},{"NoteNumber":50,"Velocity":46,"Duration":216734,"SoundDuration":216734,"Delta":95585199},{"NoteNumber":62,"Velocity":45,"Duration":589301,"SoundDuration":589301,"Delta":95782463},{"NoteNumber":71,"Velocity":55,"Duration":589301,"SoundDuration":589301,"Delta":95782463},{"NoteNumber":56,"Velocity":51,"Duration":214174,"SoundDuration":214174,"Delta":95782463},{"NoteNumber":55,"Velocity":46,"Duration":214693,"SoundDuration":214693,"Delta":95977167},{"NoteNumber":53,"Velocity":46,"Duration":220016,"SoundDuration":220016,"Delta":96171871},{"NoteNumber":52,"Velocity":36,"Duration":201233,"SoundDuration":201233,"Delta":96371765},{"NoteNumber":79,"Velocity":49,"Duration":97352,"SoundDuration":97352,"Delta":96572999},{"NoteNumber":79,"Velocity":49,"Duration":97352,"SoundDuration":97352,"Delta":96767703},{"NoteNumber":53,"Velocity":40,"Duration":201233,"SoundDuration":201233,"Delta":96962407},{"NoteNumber":81,"Velocity":49,"Duration":97352,"SoundDuration":97352,"Delta":97163641},{"NoteNumber":81,"Velocity":49,"Duration":101985,"SoundDuration":101985,"Delta":97358345},{"NoteNumber":67,"Velocity":39,"Duration":1236959,"SoundDuration":1236959,"Delta":97562315},{"NoteNumber":72,"Velocity":47,"Duration":603701,"SoundDuration":603701,"Delta":97562315},{"NoteNumber":55,"Velocity":34,"Duration":603701,"SoundDuration":603701,"Delta":97562315},{"NoteNumber":64,"Velocity":40,"Duration":603701,"SoundDuration":603701,"Delta":97562315},{"NoteNumber":71,"Velocity":37,"Duration":633257,"SoundDuration":633257,"Delta":98166017},{"NoteNumber":62,"Velocity":40,"Duration":633257,"SoundDuration":633257,"Delta":98166017},{"NoteNumber":53,"Velocity":32,"Duration":633257,"SoundDuration":633257,"Delta":98166017},{"NoteNumber":78,"Velocity":71,"Duration":102683,"SoundDuration":102683,"Delta":98799275},{"NoteNumber":52,"Velocity":64,"Duration":205366,"SoundDuration":205366,"Delta":98799275},{"NoteNumber":79,"Velocity":55,"Duration":112612,"SoundDuration":112612,"Delta":98901959},{"NoteNumber":78,"Velocity":55,"Duration":109213,"SoundDuration":109213,"Delta":99004642},{"NoteNumber":55,"Velocity":53,"Duration":198570,"SoundDuration":198570,"Delta":99004642},{"NoteNumber":79,"Velocity":55,"Duration":109213,"SoundDuration":109213,"Delta":99103928},{"NoteNumber":78,"Velocity":55,"Duration":112583,"SoundDuration":112583,"Delta":99203213},{"NoteNumber":60,"Velocity":53,"Duration":204998,"SoundDuration":204998,"Delta":99203213},{"NoteNumber":79,"Velocity":55,"Duration":102683,"SoundDuration":102683,"Delta":99305528},{"NoteNumber":80,"Velocity":62,"Duration":111426,"SoundDuration":111426,"Delta":99408212},{"NoteNumber":53,"Velocity":61,"Duration":202592,"SoundDuration":202592,"Delta":99408212},{"NoteNumber":81,"Velocity":55,"Duration":111225,"SoundDuration":111225,"Delta":99509508},{"NoteNumber":80,"Velocity":55,"Duration":109213,"SoundDuration":109213,"Delta":99610805},{"NoteNumber":57,"Velocity":53,"Duration":198570,"SoundDuration":198570,"Delta":99610805},{"NoteNumber":81,"Velocity":55,"Duration":109213,"SoundDuration":109213,"Delta":99710090},{"NoteNumber":83,"Velocity":59,"Duration":110534,"SoundDuration":110534,"Delta":99809375},{"NoteNumber":62,"Velocity":50,"Duration":201089,"SoundDuration":201089,"Delta":99809375},{"NoteNumber":84,"Velocity":55,"Duration":100616,"SoundDuration":100616,"Delta":99909848},{"NoteNumber":72,"Velocity":47,"Duration":553393,"SoundDuration":553393,"Delta":100010465},{"NoteNumber":55,"Velocity":38,"Duration":201233,"SoundDuration":201233,"Delta":100010465},{"NoteNumber":60,"Velocity":34,"Duration":201233,"SoundDuration":201233,"Delta":100211699},{"NoteNumber":64,"Velocity":34,"Duration":201233,"SoundDuration":201233,"Delta":100412933},{"NoteNumber":76,"Velocity":37,"Duration":50308,"SoundDuration":50308,"Delta":100563858},{"NoteNumber":74,"Velocity":43,"Duration":520543,"SoundDuration":520543,"Delta":100614167},{"NoteNumber":71,"Velocity":43,"Duration":416435,"SoundDuration":416435,"Delta":100614167},{"NoteNumber":55,"Velocity":39,"Duration":208217,"SoundDuration":208217,"Delta":100614167},{"NoteNumber":62,"Velocity":33,"Duration":208217,"SoundDuration":208217,"Delta":100822384},{"NoteNumber":65,"Velocity":33,"Duration":208217,"SoundDuration":208217,"Delta":101030602},{"NoteNumber":72,"Velocity":37,"Duration":99770,"SoundDuration":99770,"Delta":101134711},{"NoteNumber":72,"Velocity":71,"Duration":114519,"SoundDuration":114519,"Delta":101238819},{"NoteNumber":64,"Velocity":66,"Duration":406788,"SoundDuration":406788,"Delta":101238819},{"NoteNumber":60,"Velocity":56,"Duration":406788,"SoundDuration":406788,"Delta":101238819},{"NoteNumber":76,"Velocity":64,"Duration":114037,"SoundDuration":114037,"Delta":101342928},{"NoteNumber":79,"Velocity":67,"Duration":109213,"SoundDuration":109213,"Delta":101447037},{"NoteNumber":84,"Velocity":68,"Duration":109020,"SoundDuration":109020,"Delta":101546322},{"NoteNumber":83,"Velocity":69,"Duration":107087,"SoundDuration":107087,"Delta":101645607},{"NoteNumber":81,"Velocity":69,"Duration":107087,"SoundDuration":107087,"Delta":101742959},{"NoteNumber":79,"Velocity":71,"Duration":107087,"SoundDuration":107087,"Delta":101840311},{"NoteNumber":59,"Velocity":66,"Duration":389408,"SoundDuration":389408,"Delta":101840311},{"NoteNumber":65,"Velocity":66,"Duration":389408,"SoundDuration":389408,"Delta":101840311},{"NoteNumber":55,"Velocity":56,"Duration":389408,"SoundDuration":389408,"Delta":101840311},{"NoteNumber":81,"Velocity":67,"Duration":107087,"SoundDuration":107087,"Delta":101937663},{"NoteNumber":79,"Velocity":67,"Duration":107087,"SoundDuration":107087,"Delta":102035015},{"NoteNumber":77,"Velocity":67,"Duration":107087,"SoundDuration":107087,"Delta":102132367},{"NoteNumber":76,"Velocity":67,"Duration":108215,"SoundDuration":108215,"Delta":102229719},{"NoteNumber":74,"Velocity":67,"Duration":108632,"SoundDuration":108632,"Delta":102327071},{"NoteNumber":72,"Velocity":71,"Duration":114519,"SoundDuration":114519,"Delta":102435704},{"NoteNumber":60,"Velocity":56,"Duration":405482,"SoundDuration":405482,"Delta":102435704},{"NoteNumber":64,"Velocity":66,"Duration":405482,"SoundDuration":405482,"Delta":102435704},{"NoteNumber":76,"Velocity":64,"Duration":113971,"SoundDuration":113971,"Delta":102539813},{"NoteNumber":74,"Velocity":64,"Duration":108495,"SoundDuration":108495,"Delta":102643922},{"NoteNumber":72,"Velocity":68,"Duration":108367,"SoundDuration":108367,"Delta":102742554},{"NoteNumber":71,"Velocity":64,"Duration":107087,"SoundDuration":107087,"Delta":102841186},{"NoteNumber":69,"Velocity":64,"Duration":107087,"SoundDuration":107087,"Delta":102938538},{"NoteNumber":67,"Velocity":69,"Duration":107087,"SoundDuration":107087,"Delta":103035890},{"NoteNumber":59,"Velocity":56,"Duration":389408,"SoundDuration":389408,"Delta":103035890},{"NoteNumber":55,"Velocity":56,"Duration":389408,"SoundDuration":389408,"Delta":103035890},{"NoteNumber":65,"Velocity":66,"Duration":389408,"SoundDuration":389408,"Delta":103035890},{"NoteNumber":69,"Velocity":63,"Duration":107087,"SoundDuration":107087,"Delta":103133242},{"NoteNumber":67,"Velocity":63,"Duration":107087,"SoundDuration":107087,"Delta":103230594},{"NoteNumber":65,"Velocity":63,"Duration":107087,"SoundDuration":107087,"Delta":103327946},{"NoteNumber":64,"Velocity":63,"Duration":108137,"SoundDuration":108137,"Delta":103425298},{"NoteNumber":62,"Velocity":63,"Duration":107851,"SoundDuration":107851,"Delta":103522650},{"NoteNumber":60,"Velocity":71,"Duration":112183,"SoundDuration":112183,"Delta":103630502},{"NoteNumber":52,"Velocity":66,"Duration":399946,"SoundDuration":399946,"Delta":103630502},{"NoteNumber":48,"Velocity":56,"Duration":399946,"SoundDuration":399946,"Delta":103630502},{"NoteNumber":64,"Velocity":63,"Duration":111784,"SoundDuration":111784,"Delta":103732487},{"NoteNumber":62,"Velocity":63,"Duration":107786,"SoundDuration":107786,"Delta":103834472},{"NoteNumber":60,"Velocity":63,"Duration":107723,"SoundDuration":107723,"Delta":103932460},{"NoteNumber":59,"Velocity":63,"Duration":107087,"SoundDuration":107087,"Delta":104030448},{"NoteNumber":57,"Velocity":64,"Duration":107087,"SoundDuration":107087,"Delta":104127800},{"NoteNumber":55,"Velocity":71,"Duration":107087,"SoundDuration":107087,"Delta":104225152},{"NoteNumber":43,"Velocity":56,"Duration":389408,"SoundDuration":389408,"Delta":104225152},{"NoteNumber":53,"Velocity":66,"Duration":389408,"SoundDuration":389408,"Delta":104225152},{"NoteNumber":47,"Velocity":56,"Duration":389408,"SoundDuration":389408,"Delta":104225152},{"NoteNumber":57,"Velocity":64,"Duration":107087,"SoundDuration":107087,"Delta":104322504},{"NoteNumber":55,"Velocity":64,"Duration":107087,"SoundDuration":107087,"Delta":104419856},{"NoteNumber":53,"Velocity":64,"Duration":107087,"SoundDuration":107087,"Delta":104517208},{"NoteNumber":52,"Velocity":64,"Duration":108137,"SoundDuration":108137,"Delta":104614560},{"NoteNumber":50,"Velocity":64,"Duration":107851,"SoundDuration":107851,"Delta":104711912},{"NoteNumber":48,"Velocity":81,"Duration":100616,"SoundDuration":100616,"Delta":104819764},{"NoteNumber":36,"Velocity":70,"Duration":100616,"SoundDuration":100616,"Delta":104819764},{"NoteNumber":52,"Velocity":70,"Duration":100616,"SoundDuration":100616,"Delta":105020998},{"NoteNumber":40,"Velocity":63,"Duration":100616,"SoundDuration":100616,"Delta":105020998},{"NoteNumber":55,"Velocity":70,"Duration":100616,"SoundDuration":100616,"Delta":105222232},{"NoteNumber":43,"Velocity":63,"Duration":100616,"SoundDuration":100616,"Delta":105222232},{"NoteNumber":60,"Velocity":78,"Duration":100616,"SoundDuration":100616,"Delta":105423466},{"NoteNumber":48,"Velocity":70,"Duration":100616,"SoundDuration":100616,"Delta":105423466},{"NoteNumber":64,"Velocity":70,"Duration":100616,"SoundDuration":100616,"Delta":105624700},{"NoteNumber":52,"Velocity":64,"Duration":100616,"SoundDuration":100616,"Delta":105624700},{"NoteNumber":67,"Velocity":70,"Duration":100616,"SoundDuration":100616,"Delta":105825934},{"NoteNumber":55,"Velocity":64,"Duration":100616,"SoundDuration":100616,"Delta":105825934},{"NoteNumber":72,"Velocity":88,"Duration":205366,"SoundDuration":205366,"Delta":106027168},{"NoteNumber":60,"Velocity":74,"Duration":205366,"SoundDuration":205366,"Delta":106027168},{"NoteNumber":76,"Velocity":69,"Duration":431405,"SoundDuration":431405,"Delta":106643269},{"NoteNumber":79,"Velocity":82,"Duration":431405,"SoundDuration":431405,"Delta":106643269},{"NoteNumber":72,"Velocity":69,"Duration":431405,"SoundDuration":431405,"Delta":106643269},{"NoteNumber":67,"Velocity":69,"Duration":431405,"SoundDuration":431405,"Delta":106643269},{"NoteNumber":52,"Velocity":62,"Duration":431405,"SoundDuration":431405,"Delta":106643269},{"NoteNumber":48,"Velocity":62,"Duration":431405,"SoundDuration":431405,"Delta":106643269},{"NoteNumber":55,"Velocity":62,"Duration":431405,"SoundDuration":431405,"Delta":106643269},{"NoteNumber":60,"Velocity":74,"Duration":431405,"SoundDuration":431405,"Delta":106643269},{"NoteNumber":79,"Velocity":74,"Duration":431405,"SoundDuration":431405,"Delta":107290378},{"NoteNumber":76,"Velocity":74,"Duration":431405,"SoundDuration":431405,"Delta":107290378},{"NoteNumber":84,"Velocity":86,"Duration":431405,"SoundDuration":431405,"Delta":107290378},{"NoteNumber":72,"Velocity":72,"Duration":431405,"SoundDuration":431405,"Delta":107290378},{"NoteNumber":48,"Velocity":62,"Duration":431405,"SoundDuration":431405,"Delta":107290378},{"NoteNumber":60,"Velocity":74,"Duration":431405,"SoundDuration":431405,"Delta":107290378},{"NoteNumber":55,"Velocity":62,"Duration":431405,"SoundDuration":431405,"Delta":107290378},{"NoteNumber":52,"Velocity":62,"Duration":431405,"SoundDuration":431405,"Delta":107290378},{"NoteNumber":53,"Velocity":70,"Duration":385282,"SoundDuration":385282,"Delta":108584596},{"NoteNumber":48,"Velocity":59,"Duration":385282,"SoundDuration":385282,"Delta":108584596},{"NoteNumber":41,"Velocity":59,"Duration":385282,"SoundDuration":385282,"Delta":108584596},{"NoteNumber":45,"Velocity":59,"Duration":385282,"SoundDuration":385282,"Delta":108584596},{"NoteNumber":84,"Velocity":66,"Duration":105952,"SoundDuration":105952,"Delta":108680916},{"NoteNumber":83,"Velocity":68,"Duration":105952,"SoundDuration":105952,"Delta":108777237},{"NoteNumber":84,"Velocity":69,"Duration":105952,"SoundDuration":105952,"Delta":108873557},{"NoteNumber":89,"Velocity":70,"Duration":106272,"SoundDuration":106272,"Delta":108969878},{"NoteNumber":84,"Velocity":63,"Duration":109086,"SoundDuration":109086,"Delta":109066198},{"NoteNumber":82,"Velocity":70,"Duration":105276,"SoundDuration":105276,"Delta":109165714},{"NoteNumber":81,"Velocity":66,"Duration":105276,"SoundDuration":105276,"Delta":109261420},{"NoteNumber":80,"Velocity":64,"Duration":105276,"SoundDuration":105276,"Delta":109357126},{"NoteNumber":81,"Velocity":64,"Duration":105276,"SoundDuration":105276,"Delta":109452832},{"NoteNumber":84,"Velocity":70,"Duration":105591,"SoundDuration":105591,"Delta":109548538},{"NoteNumber":81,"Velocity":64,"Duration":108369,"SoundDuration":108369,"Delta":109644244},{"NoteNumber":79,"Velocity":70,"Duration":104609,"SoundDuration":104609,"Delta":109743104},{"NoteNumber":77,"Velocity":64,"Duration":104609,"SoundDuration":104609,"Delta":109838203},{"NoteNumber":76,"Velocity":64,"Duration":104609,"SoundDuration":104609,"Delta":109933302},{"NoteNumber":77,"Velocity":64,"Duration":104609,"SoundDuration":104609,"Delta":110028401},{"NoteNumber":81,"Velocity":70,"Duration":104985,"SoundDuration":104985,"Delta":110123501},{"NoteNumber":77,"Velocity":65,"Duration":108430,"SoundDuration":108430,"Delta":110218600},{"NoteNumber":74,"Velocity":70,"Duration":105276,"SoundDuration":105276,"Delta":110317460},{"NoteNumber":72,"Velocity":65,"Duration":105276,"SoundDuration":105276,"Delta":110413166},{"NoteNumber":71,"Velocity":65,"Duration":105276,"SoundDuration":105276,"Delta":110508872},{"NoteNumber":72,"Velocity":65,"Duration":105276,"SoundDuration":105276,"Delta":110604578},{"NoteNumber":77,"Velocity":70,"Duration":105791,"SoundDuration":105791,"Delta":110700284},{"NoteNumber":72,"Velocity":65,"Duration":110363,"SoundDuration":110363,"Delta":110795990},{"NoteNumber":70,"Velocity":70,"Duration":104609,"SoundDuration":104609,"Delta":110896844},{"NoteNumber":69,"Velocity":66,"Duration":104985,"SoundDuration":104985,"Delta":110991943},{"NoteNumber":68,"Velocity":66,"Duration":108745,"SoundDuration":108745,"Delta":111087042},{"NoteNumber":69,"Velocity":66,"Duration":108745,"SoundDuration":108745,"Delta":111185902},{"NoteNumber":72,"Velocity":70,"Duration":110982,"SoundDuration":110982,"Delta":111284762},{"NoteNumber":69,"Velocity":64,"Duration":131249,"SoundDuration":131249,"Delta":111383621},{"NoteNumber":65,"Velocity":70,"Duration":100180,"SoundDuration":100180,"Delta":111504853},{"NoteNumber":57,"Velocity":70,"Duration":100180,"SoundDuration":100180,"Delta":111504853},{"NoteNumber":77,"Velocity":64,"Duration":95099,"SoundDuration":95099,"Delta":111605033},{"NoteNumber":64,"Velocity":70,"Duration":95099,"SoundDuration":95099,"Delta":111700133},{"NoteNumber":55,"Velocity":66,"Duration":95099,"SoundDuration":95099,"Delta":111700133},{"NoteNumber":77,"Velocity":64,"Duration":95099,"SoundDuration":95099,"Delta":111795232},{"NoteNumber":65,"Velocity":70,"Duration":95099,"SoundDuration":95099,"Delta":111890331},{"NoteNumber":57,"Velocity":66,"Duration":95099,"SoundDuration":95099,"Delta":111890331},{"NoteNumber":77,"Velocity":64,"Duration":101536,"SoundDuration":101536,"Delta":111985430},{"NoteNumber":67,"Velocity":70,"Duration":95706,"SoundDuration":95706,"Delta":112086967},{"NoteNumber":58,"Velocity":70,"Duration":95706,"SoundDuration":95706,"Delta":112086967},{"NoteNumber":77,"Velocity":64,"Duration":95705,"SoundDuration":95705,"Delta":112182673},{"NoteNumber":65,"Velocity":65,"Duration":95706,"SoundDuration":95706,"Delta":112278379},{"NoteNumber":57,"Velocity":67,"Duration":95706,"SoundDuration":95706,"Delta":112278379},{"NoteNumber":77,"Velocity":58,"Duration":95705,"SoundDuration":95705,"Delta":112374085},{"NoteNumber":67,"Velocity":67,"Duration":95706,"SoundDuration":95706,"Delta":112469791},{"NoteNumber":58,"Velocity":67,"Duration":95706,"SoundDuration":95706,"Delta":112469791},{"NoteNumber":77,"Velocity":61,"Duration":100853,"SoundDuration":100853,"Delta":112565497},{"NoteNumber":69,"Velocity":70,"Duration":95099,"SoundDuration":95099,"Delta":112666351},{"NoteNumber":60,"Velocity":70,"Duration":95099,"SoundDuration":95099,"Delta":112666351},{"NoteNumber":77,"Velocity":60,"Duration":95099,"SoundDuration":95099,"Delta":112761450},{"NoteNumber":67,"Velocity":66,"Duration":95099,"SoundDuration":95099,"Delta":112856549},{"NoteNumber":58,"Velocity":67,"Duration":95099,"SoundDuration":95099,"Delta":112856549},{"NoteNumber":77,"Velocity":62,"Duration":95099,"SoundDuration":95099,"Delta":112951649},{"NoteNumber":69,"Velocity":67,"Duration":95099,"SoundDuration":95099,"Delta":113046748},{"NoteNumber":60,"Velocity":67,"Duration":95099,"SoundDuration":95099,"Delta":113046748},{"NoteNumber":77,"Velocity":62,"Duration":114740,"SoundDuration":114740,"Delta":113141847},{"NoteNumber":70,"Velocity":74,"Duration":96320,"SoundDuration":96320,"Delta":113256587},{"NoteNumber":61,"Velocity":74,"Duration":385282,"SoundDuration":385282,"Delta":113256587},{"NoteNumber":77,"Velocity":61,"Duration":96320,"SoundDuration":96320,"Delta":113352908},{"NoteNumber":70,"Velocity":65,"Duration":96320,"SoundDuration":96320,"Delta":113449228},{"NoteNumber":77,"Velocity":61,"Duration":96320,"SoundDuration":96320,"Delta":113545549},{"NoteNumber":69,"Velocity":65,"Duration":96320,"SoundDuration":96320,"Delta":113641869},{"NoteNumber":60,"Velocity":67,"Duration":96320,"SoundDuration":96320,"Delta":113641869},{"NoteNumber":77,"Velocity":60,"Duration":103641,"SoundDuration":103641,"Delta":113738190},{"NoteNumber":70,"Velocity":70,"Duration":95706,"SoundDuration":95706,"Delta":113841831},{"NoteNumber":61,"Velocity":74,"Duration":382823,"SoundDuration":382823,"Delta":113841831},{"NoteNumber":77,"Velocity":60,"Duration":95705,"SoundDuration":95705,"Delta":113937537},{"NoteNumber":70,"Velocity":65,"Duration":95706,"SoundDuration":95706,"Delta":114033243},{"NoteNumber":77,"Velocity":60,"Duration":95705,"SoundDuration":95705,"Delta":114128949},{"NoteNumber":69,"Velocity":65,"Duration":95706,"SoundDuration":95706,"Delta":114224655},{"NoteNumber":60,"Velocity":66,"Duration":95706,"SoundDuration":95706,"Delta":114224655},{"NoteNumber":77,"Velocity":54,"Duration":118971,"SoundDuration":118971,"Delta":114320361},{"NoteNumber":68,"Velocity":49,"Duration":95706,"SoundDuration":95706,"Delta":114439333},{"NoteNumber":59,"Velocity":47,"Duration":95706,"SoundDuration":95706,"Delta":114439333},{"NoteNumber":77,"Velocity":41,"Duration":95705,"SoundDuration":95705,"Delta":114535039},{"NoteNumber":68,"Velocity":49,"Duration":95706,"SoundDuration":95706,"Delta":114630745},{"NoteNumber":59,"Velocity":47,"Duration":95706,"SoundDuration":95706,"Delta":114630745},{"NoteNumber":77,"Velocity":42,"Duration":95705,"SoundDuration":95705,"Delta":114726451},{"NoteNumber":68,"Velocity":49,"Duration":95706,"SoundDuration":95706,"Delta":114822157},{"NoteNumber":59,"Velocity":47,"Duration":95706,"SoundDuration":95706,"Delta":114822157},{"NoteNumber":77,"Velocity":40,"Duration":103641,"SoundDuration":103641,"Delta":114917863},{"NoteNumber":67,"Velocity":48,"Duration":210187,"SoundDuration":210187,"Delta":115021504},{"NoteNumber":76,"Velocity":48,"Duration":210187,"SoundDuration":210187,"Delta":115021504},{"NoteNumber":60,"Velocity":50,"Duration":210187,"SoundDuration":210187,"Delta":115021504},{"NoteNumber":45,"Velocity":59,"Duration":385282,"SoundDuration":385282,"Delta":115652065},{"NoteNumber":53,"Velocity":70,"Duration":385282,"SoundDuration":385282,"Delta":115652065},{"NoteNumber":41,"Velocity":59,"Duration":385282,"SoundDuration":385282,"Delta":115652065},{"NoteNumber":48,"Velocity":59,"Duration":385282,"SoundDuration":385282,"Delta":115652065},{"NoteNumber":84,"Velocity":66,"Duration":105952,"SoundDuration":105952,"Delta":115748386},{"NoteNumber":83,"Velocity":68,"Duration":105952,"SoundDuration":105952,"Delta":115844706},{"NoteNumber":84,"Velocity":69,"Duration":105952,"SoundDuration":105952,"Delta":115941027},{"NoteNumber":89,"Velocity":70,"Duration":106272,"SoundDuration":106272,"Delta":116037347},{"NoteNumber":84,"Velocity":63,"Duration":109086,"SoundDuration":109086,"Delta":116133668},{"NoteNumber":82,"Velocity":70,"Duration":105276,"SoundDuration":105276,"Delta":116233184},{"NoteNumber":81,"Velocity":66,"Duration":105276,"SoundDuration":105276,"Delta":116328890},{"NoteNumber":80,"Velocity":64,"Duration":105276,"SoundDuration":105276,"Delta":116424596},{"NoteNumber":81,"Velocity":64,"Duration":105276,"SoundDuration":105276,"Delta":116520302},{"NoteNumber":84,"Velocity":70,"Duration":105591,"SoundDuration":105591,"Delta":116616008},{"NoteNumber":81,"Velocity":64,"Duration":108369,"SoundDuration":108369,"Delta":116711714},{"NoteNumber":79,"Velocity":70,"Duration":104609,"SoundDuration":104609,"Delta":116810573},{"NoteNumber":77,"Velocity":64,"Duration":104609,"SoundDuration":104609,"Delta":116905673},{"NoteNumber":76,"Velocity":64,"Duration":104609,"SoundDuration":104609,"Delta":117000772},{"NoteNumber":77,"Velocity":64,"Duration":104609,"SoundDuration":104609,"Delta":117095871},{"NoteNumber":81,"Velocity":70,"Duration":104985,"SoundDuration":104985,"Delta":117190970},{"NoteNumber":77,"Velocity":65,"Duration":108430,"SoundDuration":108430,"Delta":117286070},{"NoteNumber":74,"Velocity":70,"Duration":105276,"SoundDuration":105276,"Delta":117384929},{"NoteNumber":72,"Velocity":65,"Duration":105276,"SoundDuration":105276,"Delta":117480635},{"NoteNumber":71,"Velocity":65,"Duration":105276,"SoundDuration":105276,"Delta":117576341},{"NoteNumber":72,"Velocity":65,"Duration":105276,"SoundDuration":105276,"Delta":117672047},{"NoteNumber":77,"Velocity":70,"Duration":105791,"SoundDuration":105791,"Delta":117767753},{"NoteNumber":72,"Velocity":65,"Duration":110363,"SoundDuration":110363,"Delta":117863459},{"NoteNumber":70,"Velocity":70,"Duration":104609,"SoundDuration":104609,"Delta":117964313},{"NoteNumber":69,"Velocity":66,"Duration":104985,"SoundDuration":104985,"Delta":118059413},{"NoteNumber":68,"Velocity":66,"Duration":108745,"SoundDuration":108745,"Delta":118154512},{"NoteNumber":69,"Velocity":66,"Duration":108745,"SoundDuration":108745,"Delta":118253372},{"NoteNumber":72,"Velocity":70,"Duration":110982,"SoundDuration":110982,"Delta":118352231},{"NoteNumber":69,"Velocity":64,"Duration":131317,"SoundDuration":131317,"Delta":118451091},{"NoteNumber":65,"Velocity":70,"Duration":100853,"SoundDuration":100853,"Delta":118572323},{"NoteNumber":57,"Velocity":70,"Duration":100853,"SoundDuration":100853,"Delta":118572323},{"NoteNumber":77,"Velocity":64,"Duration":95706,"SoundDuration":95706,"Delta":118673177},{"NoteNumber":64,"Velocity":70,"Duration":95705,"SoundDuration":95705,"Delta":118768883},{"NoteNumber":55,"Velocity":66,"Duration":95705,"SoundDuration":95705,"Delta":118768883},{"NoteNumber":77,"Velocity":64,"Duration":95706,"SoundDuration":95706,"Delta":118864589},{"NoteNumber":65,"Velocity":70,"Duration":95705,"SoundDuration":95705,"Delta":118960295},{"NoteNumber":57,"Velocity":66,"Duration":95705,"SoundDuration":95705,"Delta":118960295},{"NoteNumber":77,"Velocity":64,"Duration":101536,"SoundDuration":101536,"Delta":119056001},{"NoteNumber":67,"Velocity":70,"Duration":95706,"SoundDuration":95706,"Delta":119157537},{"NoteNumber":58,"Velocity":70,"Duration":95706,"SoundDuration":95706,"Delta":119157537},{"NoteNumber":77,"Velocity":64,"Duration":95705,"SoundDuration":95705,"Delta":119253243},{"NoteNumber":65,"Velocity":65,"Duration":95706,"SoundDuration":95706,"Delta":119348949},{"NoteNumber":57,"Velocity":67,"Duration":95706,"SoundDuration":95706,"Delta":119348949},{"NoteNumber":77,"Velocity":58,"Duration":95705,"SoundDuration":95705,"Delta":119444655},{"NoteNumber":67,"Velocity":67,"Duration":95706,"SoundDuration":95706,"Delta":119540361},{"NoteNumber":58,"Velocity":67,"Duration":95706,"SoundDuration":95706,"Delta":119540361},{"NoteNumber":77,"Velocity":61,"Duration":100853,"SoundDuration":100853,"Delta":119636067},{"NoteNumber":69,"Velocity":70,"Duration":95099,"SoundDuration":95099,"Delta":119736921},{"NoteNumber":60,"Velocity":70,"Duration":95099,"SoundDuration":95099,"Delta":119736921},{"NoteNumber":77,"Velocity":60,"Duration":95099,"SoundDuration":95099,"Delta":119832021},{"NoteNumber":67,"Velocity":66,"Duration":95099,"SoundDuration":95099,"Delta":119927120},{"NoteNumber":58,"Velocity":67,"Duration":95099,"SoundDuration":95099,"Delta":119927120},{"NoteNumber":77,"Velocity":62,"Duration":95099,"SoundDuration":95099,"Delta":120022219},{"NoteNumber":69,"Velocity":67,"Duration":95099,"SoundDuration":95099,"Delta":120117318},{"NoteNumber":60,"Velocity":67,"Duration":95099,"SoundDuration":95099,"Delta":120117318},{"NoteNumber":77,"Velocity":62,"Duration":114740,"SoundDuration":114740,"Delta":120212418},{"NoteNumber":70,"Velocity":74,"Duration":96320,"SoundDuration":96320,"Delta":120327158},{"NoteNumber":61,"Velocity":74,"Duration":385282,"SoundDuration":385282,"Delta":120327158},{"NoteNumber":77,"Velocity":61,"Duration":96320,"SoundDuration":96320,"Delta":120423478},{"NoteNumber":70,"Velocity":65,"Duration":96320,"SoundDuration":96320,"Delta":120519799},{"NoteNumber":77,"Velocity":61,"Duration":96320,"SoundDuration":96320,"Delta":120616119},{"NoteNumber":69,"Velocity":65,"Duration":96320,"SoundDuration":96320,"Delta":120712440},{"NoteNumber":60,"Velocity":67,"Duration":96320,"SoundDuration":96320,"Delta":120712440},{"NoteNumber":77,"Velocity":60,"Duration":103641,"SoundDuration":103641,"Delta":120808760},{"NoteNumber":70,"Velocity":70,"Duration":95706,"SoundDuration":95706,"Delta":120912402},{"NoteNumber":61,"Velocity":74,"Duration":382823,"SoundDuration":382823,"Delta":120912402},{"NoteNumber":77,"Velocity":60,"Duration":95705,"SoundDuration":95705,"Delta":121008108},{"NoteNumber":70,"Velocity":65,"Duration":95706,"SoundDuration":95706,"Delta":121103814},{"NoteNumber":77,"Velocity":60,"Duration":95705,"SoundDuration":95705,"Delta":121199520},{"NoteNumber":69,"Velocity":65,"Duration":95706,"SoundDuration":95706,"Delta":121295226},{"NoteNumber":60,"Velocity":66,"Duration":95706,"SoundDuration":95706,"Delta":121295226},{"NoteNumber":77,"Velocity":46,"Duration":102930,"SoundDuration":102930,"Delta":121390932},{"NoteNumber":68,"Velocity":45,"Duration":115313,"SoundDuration":115313,"Delta":121493862},{"NoteNumber":59,"Velocity":37,"Duration":115313,"SoundDuration":115313,"Delta":121493862},{"NoteNumber":77,"Velocity":36,"Duration":115313,"SoundDuration":115313,"Delta":121609175},{"NoteNumber":67,"Velocity":42,"Duration":115313,"SoundDuration":115313,"Delta":122152440},{"NoteNumber":58,"Velocity":37,"Duration":115313,"SoundDuration":115313,"Delta":122152440},{"NoteNumber":76,"Velocity":34,"Duration":115313,"SoundDuration":115313,"Delta":122267754},{"NoteNumber":66,"Velocity":44,"Duration":116207,"SoundDuration":116207,"Delta":122813756},{"NoteNumber":57,"Velocity":37,"Duration":116207,"SoundDuration":116207,"Delta":122813756},{"NoteNumber":75,"Velocity":35,"Duration":116207,"SoundDuration":116207,"Delta":122929963},{"NoteNumber":46,"Velocity":58,"Duration":99515,"SoundDuration":99515,"Delta":123465516},{"NoteNumber":58,"Velocity":61,"Duration":99515,"SoundDuration":99515,"Delta":123565031},{"NoteNumber":62,"Velocity":58,"Duration":99515,"SoundDuration":99515,"Delta":123664547},{"NoteNumber":67,"Velocity":59,"Duration":99515,"SoundDuration":99515,"Delta":123764063},{"NoteNumber":70,"Velocity":60,"Duration":99515,"SoundDuration":99515,"Delta":123863579},{"NoteNumber":74,"Velocity":61,"Duration":99515,"SoundDuration":99515,"Delta":123963094},{"NoteNumber":72,"Velocity":62,"Duration":109467,"SoundDuration":109467,"Delta":124062610},{"NoteNumber":52,"Velocity":45,"Duration":622395,"SoundDuration":622395,"Delta":124062610},{"NoteNumber":48,"Velocity":45,"Duration":622395,"SoundDuration":622395,"Delta":124062610},{"NoteNumber":58,"Velocity":57,"Duration":622395,"SoundDuration":622395,"Delta":124062610},{"NoteNumber":70,"Velocity":62,"Duration":109467,"SoundDuration":109467,"Delta":124162126},{"NoteNumber":69,"Velocity":60,"Duration":109467,"SoundDuration":109467,"Delta":124261642},{"NoteNumber":67,"Velocity":59,"Duration":110732,"SoundDuration":110732,"Delta":124361157},{"NoteNumber":65,"Velocity":57,"Duration":123382,"SoundDuration":123382,"Delta":124460673},{"NoteNumber":64,"Velocity":55,"Duration":122117,"SoundDuration":122117,"Delta":124572839},{"NoteNumber":65,"Velocity":58,"Duration":99515,"SoundDuration":99515,"Delta":124685006},{"NoteNumber":57,"Velocity":51,"Duration":199031,"SoundDuration":199031,"Delta":124685006},{"NoteNumber":53,"Velocity":40,"Duration":199031,"SoundDuration":199031,"Delta":124685006},{"NoteNumber":60,"Velocity":49,"Duration":199031,"SoundDuration":199031,"Delta":124884037},{"NoteNumber":60,"Velocity":49,"Duration":153970,"SoundDuration":153970,"Delta":125083069},{"NoteNumber":64,"Velocity":41,"Duration":54454,"SoundDuration":54454,"Delta":125237039},{"NoteNumber":70,"Velocity":49,"Duration":796126,"SoundDuration":796126,"Delta":125291493},{"NoteNumber":48,"Velocity":41,"Duration":199031,"SoundDuration":199031,"Delta":125291493},{"NoteNumber":60,"Velocity":31,"Duration":99515,"SoundDuration":99515,"Delta":125490525},{"NoteNumber":58,"Velocity":24,"Duration":99515,"SoundDuration":99515,"Delta":125490525},{"NoteNumber":60,"Velocity":31,"Duration":99515,"SoundDuration":99515,"Delta":125689556},{"NoteNumber":58,"Velocity":24,"Duration":99515,"SoundDuration":99515,"Delta":125689556},{"NoteNumber":60,"Velocity":31,"Duration":99515,"SoundDuration":99515,"Delta":125888588},{"NoteNumber":58,"Velocity":24,"Duration":99515,"SoundDuration":99515,"Delta":125888588},{"NoteNumber":69,"Velocity":43,"Duration":99515,"SoundDuration":99515,"Delta":126087619},{"NoteNumber":60,"Velocity":31,"Duration":99515,"SoundDuration":99515,"Delta":126087619},{"NoteNumber":58,"Velocity":24,"Duration":99515,"SoundDuration":99515,"Delta":126087619},{"NoteNumber":67,"Velocity":43,"Duration":99515,"SoundDuration":99515,"Delta":126286651},{"NoteNumber":60,"Velocity":31,"Duration":99515,"SoundDuration":99515,"Delta":126286651},{"NoteNumber":58,"Velocity":24,"Duration":99515,"SoundDuration":99515,"Delta":126286651},{"NoteNumber":67,"Velocity":49,"Duration":199031,"SoundDuration":199031,"Delta":126494290},{"NoteNumber":53,"Velocity":41,"Duration":199031,"SoundDuration":199031,"Delta":126494290},{"NoteNumber":65,"Velocity":45,"Duration":398062,"SoundDuration":398062,"Delta":126693322},{"NoteNumber":60,"Velocity":31,"Duration":99515,"SoundDuration":99515,"Delta":126693322},{"NoteNumber":57,"Velocity":24,"Duration":99515,"SoundDuration":99515,"Delta":126693322},{"NoteNumber":60,"Velocity":31,"Duration":99515,"SoundDuration":99515,"Delta":126892353},{"NoteNumber":57,"Velocity":24,"Duration":99515,"SoundDuration":99515,"Delta":126892353},{"NoteNumber":65,"Velocity":45,"Duration":552835,"SoundDuration":552835,"Delta":127091385},{"NoteNumber":57,"Velocity":24,"Duration":99515,"SoundDuration":99515,"Delta":127091385},{"NoteNumber":60,"Velocity":31,"Duration":99515,"SoundDuration":99515,"Delta":127091385},{"NoteNumber":57,"Velocity":24,"Duration":99515,"SoundDuration":99515,"Delta":127290416},{"NoteNumber":60,"Velocity":31,"Duration":99515,"SoundDuration":99515,"Delta":127290416},{"NoteNumber":57,"Velocity":24,"Duration":99515,"SoundDuration":99515,"Delta":127489448},{"NoteNumber":60,"Velocity":31,"Duration":99515,"SoundDuration":99515,"Delta":127489448},{"NoteNumber":64,"Velocity":41,"Duration":55256,"SoundDuration":55256,"Delta":127644220},{"NoteNumber":70,"Velocity":49,"Duration":796126,"SoundDuration":796126,"Delta":127699477},{"NoteNumber":48,"Velocity":41,"Duration":199031,"SoundDuration":199031,"Delta":127699477},{"NoteNumber":55,"Velocity":24,"Duration":99515,"SoundDuration":99515,"Delta":127898508},{"NoteNumber":60,"Velocity":31,"Duration":99515,"SoundDuration":99515,"Delta":127898508},{"NoteNumber":55,"Velocity":24,"Duration":99515,"SoundDuration":99515,"Delta":128097540},{"NoteNumber":60,"Velocity":31,"Duration":99515,"SoundDuration":99515,"Delta":128097540},{"NoteNumber":55,"Velocity":24,"Duration":99515,"SoundDuration":99515,"Delta":128296571},{"NoteNumber":60,"Velocity":31,"Duration":99515,"SoundDuration":99515,"Delta":128296571},{"NoteNumber":69,"Velocity":43,"Duration":99515,"SoundDuration":99515,"Delta":128495603},{"NoteNumber":60,"Velocity":31,"Duration":99515,"SoundDuration":99515,"Delta":128495603},{"NoteNumber":55,"Velocity":24,"Duration":99515,"SoundDuration":99515,"Delta":128495603},{"NoteNumber":67,"Velocity":43,"Duration":99515,"SoundDuration":99515,"Delta":128694634},{"NoteNumber":55,"Velocity":24,"Duration":99515,"SoundDuration":99515,"Delta":128694634},{"NoteNumber":60,"Velocity":31,"Duration":99515,"SoundDuration":99515,"Delta":128694634},{"NoteNumber":71,"Velocity":51,"Duration":597094,"SoundDuration":597094,"Delta":128911585},{"NoteNumber":53,"Velocity":41,"Duration":199031,"SoundDuration":199031,"Delta":128911585},{"NoteNumber":60,"Velocity":31,"Duration":99515,"SoundDuration":99515,"Delta":129110617},{"NoteNumber":57,"Velocity":24,"Duration":99515,"SoundDuration":99515,"Delta":129110617},{"NoteNumber":57,"Velocity":24,"Duration":99515,"SoundDuration":99515,"Delta":129309648},{"NoteNumber":60,"Velocity":31,"Duration":99515,"SoundDuration":99515,"Delta":129309648},{"NoteNumber":72,"Velocity":45,"Duration":199031,"SoundDuration":199031,"Delta":129508680},{"NoteNumber":60,"Velocity":31,"Duration":99515,"SoundDuration":99515,"Delta":129508680},{"NoteNumber":57,"Velocity":24,"Duration":99515,"SoundDuration":99515,"Delta":129508680},{"NoteNumber":57,"Velocity":24,"Duration":99515,"SoundDuration":99515,"Delta":129707711},{"NoteNumber":60,"Velocity":31,"Duration":99515,"SoundDuration":99515,"Delta":129707711},{"NoteNumber":60,"Velocity":31,"Duration":99515,"SoundDuration":99515,"Delta":129906743},{"NoteNumber":57,"Velocity":24,"Duration":99515,"SoundDuration":99515,"Delta":129906743},{"NoteNumber":64,"Velocity":41,"Duration":54454,"SoundDuration":54454,"Delta":130056017},{"NoteNumber":70,"Velocity":49,"Duration":796125,"SoundDuration":796125,"Delta":130110471},{"NoteNumber":48,"Velocity":41,"Duration":199031,"SoundDuration":199031,"Delta":130110471},{"NoteNumber":58,"Velocity":24,"Duration":99515,"SoundDuration":99515,"Delta":130309502},{"NoteNumber":60,"Velocity":31,"Duration":99515,"SoundDuration":99515,"Delta":130309502},{"NoteNumber":60,"Velocity":31,"Duration":99515,"SoundDuration":99515,"Delta":130508534},{"NoteNumber":58,"Velocity":24,"Duration":99515,"SoundDuration":99515,"Delta":130508534},{"NoteNumber":60,"Velocity":31,"Duration":99515,"SoundDuration":99515,"Delta":130707565},{"NoteNumber":58,"Velocity":24,"Duration":99515,"SoundDuration":99515,"Delta":130707565},{"NoteNumber":69,"Velocity":43,"Duration":99515,"SoundDuration":99515,"Delta":130906597},{"NoteNumber":60,"Velocity":31,"Duration":99515,"SoundDuration":99515,"Delta":130906597},{"NoteNumber":58,"Velocity":24,"Duration":99515,"SoundDuration":99515,"Delta":130906597},{"NoteNumber":67,"Velocity":43,"Duration":99515,"SoundDuration":99515,"Delta":131105628},{"NoteNumber":60,"Velocity":31,"Duration":99515,"SoundDuration":99515,"Delta":131105628},{"NoteNumber":58,"Velocity":24,"Duration":99515,"SoundDuration":99515,"Delta":131105628},{"NoteNumber":65,"Velocity":54,"Duration":398063,"SoundDuration":398063,"Delta":131313268},{"NoteNumber":53,"Velocity":41,"Duration":199031,"SoundDuration":199031,"Delta":131313268},{"NoteNumber":60,"Velocity":31,"Duration":99515,"SoundDuration":99515,"Delta":131512299},{"NoteNumber":57,"Velocity":24,"Duration":99515,"SoundDuration":99515,"Delta":131512299},{"NoteNumber":69,"Velocity":60,"Duration":597094,"SoundDuration":597094,"Delta":131711331},{"NoteNumber":57,"Velocity":24,"Duration":99515,"SoundDuration":99515,"Delta":131711331},{"NoteNumber":60,"Velocity":31,"Duration":99515,"SoundDuration":99515,"Delta":131711331},{"NoteNumber":60,"Velocity":31,"Duration":99515,"SoundDuration":99515,"Delta":131910362},{"NoteNumber":57,"Velocity":24,"Duration":99515,"SoundDuration":99515,"Delta":131910362},{"NoteNumber":57,"Velocity":24,"Duration":99515,"SoundDuration":99515,"Delta":132109394},{"NoteNumber":60,"Velocity":31,"Duration":99515,"SoundDuration":99515,"Delta":132109394},{"NoteNumber":72,"Velocity":60,"Duration":597094,"SoundDuration":597094,"Delta":132308425},{"NoteNumber":60,"Velocity":31,"Duration":99515,"SoundDuration":99515,"Delta":132308425},{"NoteNumber":57,"Velocity":24,"Duration":99515,"SoundDuration":99515,"Delta":132308425},{"NoteNumber":48,"Velocity":41,"Duration":199031,"SoundDuration":199031,"Delta":132507457},{"NoteNumber":55,"Velocity":24,"Duration":99515,"SoundDuration":99515,"Delta":132706488},{"NoteNumber":60,"Velocity":31,"Duration":99515,"SoundDuration":99515,"Delta":132706488},{"NoteNumber":70,"Velocity":58,"Duration":597094,"SoundDuration":597094,"Delta":132905520},{"NoteNumber":60,"Velocity":31,"Duration":99515,"SoundDuration":99515,"Delta":132905520},{"NoteNumber":55,"Velocity":24,"Duration":99515,"SoundDuration":99515,"Delta":132905520},{"NoteNumber":60,"Velocity":31,"Duration":99515,"SoundDuration":99515,"Delta":133104551},{"NoteNumber":58,"Velocity":24,"Duration":99515,"SoundDuration":99515,"Delta":133104551},{"NoteNumber":60,"Velocity":31,"Duration":99515,"SoundDuration":99515,"Delta":133303583},{"NoteNumber":58,"Velocity":24,"Duration":99515,"SoundDuration":99515,"Delta":133303583},{"NoteNumber":67,"Velocity":50,"Duration":193885,"SoundDuration":193885,"Delta":133502614},{"NoteNumber":58,"Velocity":24,"Duration":96943,"SoundDuration":96943,"Delta":133502614},{"NoteNumber":60,"Velocity":31,"Duration":96943,"SoundDuration":96943,"Delta":133502614},{"NoteNumber":65,"Velocity":56,"Duration":199031,"SoundDuration":199031,"Delta":133696500},{"NoteNumber":57,"Velocity":32,"Duration":199031,"SoundDuration":199031,"Delta":133696500},{"NoteNumber":60,"Velocity":41,"Duration":199031,"SoundDuration":199031,"Delta":133696500},{"NoteNumber":53,"Velocity":32,"Duration":199031,"SoundDuration":199031,"Delta":133696500},{"NoteNumber":57,"Velocity":71,"Duration":199031,"SoundDuration":199031,"Delta":134094563},{"NoteNumber":45,"Velocity":60,"Duration":199031,"SoundDuration":199031,"Delta":134094563},{"NoteNumber":58,"Velocity":78,"Duration":97352,"SoundDuration":97352,"Delta":134293595},{"NoteNumber":46,"Velocity":66,"Duration":97352,"SoundDuration":97352,"Delta":134293595},{"NoteNumber":67,"Velocity":73,"Duration":97352,"SoundDuration":97352,"Delta":134488299},{"NoteNumber":55,"Velocity":61,"Duration":97352,"SoundDuration":97352,"Delta":134488299},{"NoteNumber":59,"Velocity":72,"Duration":99946,"SoundDuration":99946,"Delta":134683003},{"NoteNumber":47,"Velocity":61,"Duration":99946,"SoundDuration":99946,"Delta":134683003},{"NoteNumber":60,"Velocity":78,"Duration":97352,"SoundDuration":97352,"Delta":134882896},{"NoteNumber":48,"Velocity":66,"Duration":97352,"SoundDuration":97352,"Delta":134882896},{"NoteNumber":69,"Velocity":73,"Duration":97352,"SoundDuration":97352,"Delta":135077600},{"NoteNumber":57,"Velocity":61,"Duration":97352,"SoundDuration":97352,"Delta":135077600},{"NoteNumber":61,"Velocity":73,"Duration":98632,"SoundDuration":98632,"Delta":135272304},{"NoteNumber":49,"Velocity":61,"Duration":98632,"SoundDuration":98632,"Delta":135272304},{"NoteNumber":62,"Velocity":78,"Duration":97352,"SoundDuration":97352,"Delta":135469569},{"NoteNumber":50,"Velocity":66,"Duration":97352,"SoundDuration":97352,"Delta":135469569},{"NoteNumber":70,"Velocity":72,"Duration":97352,"SoundDuration":97352,"Delta":135664273},{"NoteNumber":58,"Velocity":61,"Duration":97352,"SoundDuration":97352,"Delta":135664273},{"NoteNumber":64,"Velocity":72,"Duration":99285,"SoundDuration":99285,"Delta":135858977},{"NoteNumber":52,"Velocity":61,"Duration":99285,"SoundDuration":99285,"Delta":135858977},{"NoteNumber":82,"Velocity":68,"Duration":778816,"SoundDuration":778816,"Delta":136057547},{"NoteNumber":60,"Velocity":28,"Duration":574259,"SoundDuration":574259,"Delta":136641659},{"NoteNumber":58,"Velocity":28,"Duration":574259,"SoundDuration":574259,"Delta":136641659},{"NoteNumber":67,"Velocity":34,"Duration":574259,"SoundDuration":574259,"Delta":136641659},{"NoteNumber":64,"Velocity":28,"Duration":574259,"SoundDuration":574259,"Delta":136641659},{"NoteNumber":81,"Velocity":62,"Duration":94888,"SoundDuration":94888,"Delta":136836363},{"NoteNumber":79,"Velocity":61,"Duration":94888,"SoundDuration":94888,"Delta":136931252},{"NoteNumber":77,"Velocity":59,"Duration":94888,"SoundDuration":94888,"Delta":137026141},{"NoteNumber":76,"Velocity":57,"Duration":94888,"SoundDuration":94888,"Delta":137121030},{"NoteNumber":77,"Velocity":56,"Duration":97352,"SoundDuration":97352,"Delta":137215918},{"NoteNumber":57,"Velocity":41,"Duration":194704,"SoundDuration":194704,"Delta":137215918},{"NoteNumber":65,"Velocity":49,"Duration":194704,"SoundDuration":194704,"Delta":137215918},{"NoteNumber":60,"Velocity":41,"Duration":194704,"SoundDuration":194704,"Delta":137215918},{"NoteNumber":79,"Velocity":49,"Duration":97352,"SoundDuration":97352,"Delta":137410622},{"NoteNumber":81,"Velocity":54,"Duration":107142,"SoundDuration":107142,"Delta":137605326},{"NoteNumber":72,"Velocity":46,"Duration":389408,"SoundDuration":389408,"Delta":137819612},{"NoteNumber":69,"Velocity":46,"Duration":389408,"SoundDuration":389408,"Delta":137819612},{"NoteNumber":60,"Velocity":42,"Duration":389408,"SoundDuration":389408,"Delta":137819612},{"NoteNumber":70,"Velocity":40,"Duration":212765,"SoundDuration":212765,"Delta":138209020},{"NoteNumber":67,"Velocity":40,"Duration":212765,"SoundDuration":212765,"Delta":138209020},{"NoteNumber":61,"Velocity":42,"Duration":212765,"SoundDuration":212765,"Delta":138209020},{"NoteNumber":70,"Velocity":46,"Duration":612244,"SoundDuration":612244,"Delta":138421786},{"NoteNumber":67,"Velocity":46,"Duration":612244,"SoundDuration":612244,"Delta":138421786},{"NoteNumber":62,"Velocity":47,"Duration":809613,"SoundDuration":809613,"Delta":138421786},{"NoteNumber":69,"Velocity":41,"Duration":197368,"SoundDuration":197368,"Delta":139034030},{"NoteNumber":65,"Velocity":41,"Duration":197368,"SoundDuration":197368,"Delta":139034030},{"NoteNumber":57,"Velocity":71,"Duration":199031,"SoundDuration":199031,"Delta":140020873},{"NoteNumber":45,"Velocity":60,"Duration":199031,"SoundDuration":199031,"Delta":140020873},{"NoteNumber":58,"Velocity":78,"Duration":97352,"SoundDuration":97352,"Delta":140219904},{"NoteNumber":46,"Velocity":66,"Duration":97352,"SoundDuration":97352,"Delta":140219904},{"NoteNumber":67,"Velocity":73,"Duration":97352,"SoundDuration":97352,"Delta":140414608},{"NoteNumber":55,"Velocity":61,"Duration":97352,"SoundDuration":97352,"Delta":140414608},{"NoteNumber":59,"Velocity":72,"Duration":99946,"SoundDuration":99946,"Delta":140609312},{"NoteNumber":47,"Velocity":61,"Duration":99946,"SoundDuration":99946,"Delta":140609312},{"NoteNumber":60,"Velocity":78,"Duration":97352,"SoundDuration":97352,"Delta":140809206},{"NoteNumber":48,"Velocity":66,"Duration":97352,"SoundDuration":97352,"Delta":140809206},{"NoteNumber":69,"Velocity":73,"Duration":97352,"SoundDuration":97352,"Delta":141003910},{"NoteNumber":57,"Velocity":61,"Duration":97352,"SoundDuration":97352,"Delta":141003910},{"NoteNumber":61,"Velocity":73,"Duration":98632,"SoundDuration":98632,"Delta":141198614},{"NoteNumber":49,"Velocity":61,"Duration":98632,"SoundDuration":98632,"Delta":141198614},{"NoteNumber":62,"Velocity":78,"Duration":97352,"SoundDuration":97352,"Delta":141395878},{"NoteNumber":50,"Velocity":66,"Duration":97352,"SoundDuration":97352,"Delta":141395878},{"NoteNumber":70,"Velocity":72,"Duration":97352,"SoundDuration":97352,"Delta":141590582},{"NoteNumber":58,"Velocity":61,"Duration":97352,"SoundDuration":97352,"Delta":141590582},{"NoteNumber":64,"Velocity":72,"Duration":99285,"SoundDuration":99285,"Delta":141785286},{"NoteNumber":52,"Velocity":61,"Duration":99285,"SoundDuration":99285,"Delta":141785286},{"NoteNumber":82,"Velocity":68,"Duration":778816,"SoundDuration":778816,"Delta":141983857},{"NoteNumber":60,"Velocity":28,"Duration":574259,"SoundDuration":574259,"Delta":142567969},{"NoteNumber":58,"Velocity":28,"Duration":574259,"SoundDuration":574259,"Delta":142567969},{"NoteNumber":64,"Velocity":28,"Duration":574259,"SoundDuration":574259,"Delta":142567969},{"NoteNumber":67,"Velocity":34,"Duration":574259,"SoundDuration":574259,"Delta":142567969},{"NoteNumber":81,"Velocity":62,"Duration":94888,"SoundDuration":94888,"Delta":142762673},{"NoteNumber":79,"Velocity":61,"Duration":94888,"SoundDuration":94888,"Delta":142857562},{"NoteNumber":77,"Velocity":59,"Duration":94888,"SoundDuration":94888,"Delta":142952450},{"NoteNumber":76,"Velocity":57,"Duration":94888,"SoundDuration":94888,"Delta":143047339},{"NoteNumber":77,"Velocity":56,"Duration":62982,"SoundDuration":62982,"Delta":143142228},{"NoteNumber":60,"Velocity":41,"Duration":251931,"SoundDuration":251931,"Delta":143142228},{"NoteNumber":57,"Velocity":41,"Duration":251931,"SoundDuration":251931,"Delta":143142228},{"NoteNumber":65,"Velocity":49,"Duration":251931,"SoundDuration":251931,"Delta":143142228},{"NoteNumber":79,"Velocity":49,"Duration":62982,"SoundDuration":62982,"Delta":143205211},{"NoteNumber":81,"Velocity":49,"Duration":62982,"SoundDuration":62982,"Delta":143268194},{"NoteNumber":74,"Velocity":46,"Duration":63516,"SoundDuration":63516,"Delta":143796646},{"NoteNumber":62,"Velocity":32,"Duration":254064,"SoundDuration":254064,"Delta":143796646},{"NoteNumber":58,"Velocity":32,"Duration":254064,"SoundDuration":254064,"Delta":143796646},{"NoteNumber":65,"Velocity":40,"Duration":254064,"SoundDuration":254064,"Delta":143796646},{"NoteNumber":76,"Velocity":38,"Duration":63516,"SoundDuration":63516,"Delta":143860162},{"NoteNumber":77,"Velocity":38,"Duration":63516,"SoundDuration":63516,"Delta":143923678},{"NoteNumber":65,"Velocity":44,"Duration":518661,"SoundDuration":518661,"Delta":144483510},{"NoteNumber":57,"Velocity":32,"Duration":630534,"SoundDuration":630534,"Delta":144483510},{"NoteNumber":48,"Velocity":27,"Duration":1315972,"SoundDuration":1315972,"Delta":144483510},{"NoteNumber":69,"Velocity":39,"Duration":111873,"SoundDuration":111873,"Delta":145002171},{"NoteNumber":64,"Velocity":36,"Duration":447494,"SoundDuration":447494,"Delta":145114045},{"NoteNumber":67,"Velocity":44,"Duration":447494,"SoundDuration":447494,"Delta":145114045},{"NoteNumber":58,"Velocity":28,"Duration":685438,"SoundDuration":685438,"Delta":145114045},{"NoteNumber":65,"Velocity":41,"Duration":237943,"SoundDuration":237943,"Delta":145561539},{"NoteNumber":65,"Velocity":41,"Duration":597318,"SoundDuration":597318,"Delta":145799483},{"NoteNumber":53,"Velocity":28,"Duration":597318,"SoundDuration":597318,"Delta":145799483},{"NoteNumber":57,"Velocity":24,"Duration":195976,"SoundDuration":195976,"Delta":146004850},{"NoteNumber":69,"Velocity":39,"Duration":195976,"SoundDuration":195976,"Delta":146200826},{"NoteNumber":60,"Velocity":24,"Duration":195976,"SoundDuration":195976,"Delta":146200826},{"NoteNumber":64,"Velocity":37,"Duration":597122,"SoundDuration":597122,"Delta":146396802},{"NoteNumber":72,"Velocity":44,"Duration":197264,"SoundDuration":197264,"Delta":146396802},{"NoteNumber":53,"Velocity":28,"Duration":597122,"SoundDuration":597122,"Delta":146396802},{"NoteNumber":70,"Velocity":39,"Duration":197264,"SoundDuration":197264,"Delta":146594066},{"NoteNumber":55,"Velocity":26,"Duration":197264,"SoundDuration":197264,"Delta":146594066},{"NoteNumber":67,"Velocity":39,"Duration":202593,"SoundDuration":202593,"Delta":146791331},{"NoteNumber":58,"Velocity":26,"Duration":202593,"SoundDuration":202593,"Delta":146791331},{"NoteNumber":65,"Velocity":44,"Duration":595763,"SoundDuration":595763,"Delta":146993924},{"NoteNumber":53,"Velocity":28,"Duration":595763,"SoundDuration":595763,"Delta":146993924},{"NoteNumber":60,"Velocity":40,"Duration":194798,"SoundDuration":194798,"Delta":147191188},{"NoteNumber":57,"Velocity":24,"Duration":197264,"SoundDuration":197264,"Delta":147191188},{"NoteNumber":69,"Velocity":40,"Duration":201233,"SoundDuration":201233,"Delta":147388453},{"NoteNumber":60,"Velocity":24,"Duration":201233,"SoundDuration":201233,"Delta":147388453},{"NoteNumber":72,"Velocity":44,"Duration":197264,"SoundDuration":197264,"Delta":147589687},{"NoteNumber":64,"Velocity":37,"Duration":597122,"SoundDuration":597122,"Delta":147589687},{"NoteNumber":53,"Velocity":28,"Duration":597122,"SoundDuration":597122,"Delta":147589687},{"NoteNumber":70,"Velocity":40,"Duration":197264,"SoundDuration":197264,"Delta":147786951},{"NoteNumber":55,"Velocity":24,"Duration":197264,"SoundDuration":197264,"Delta":147786951},{"NoteNumber":67,"Velocity":40,"Duration":202593,"SoundDuration":202593,"Delta":147984216},{"NoteNumber":58,"Velocity":24,"Duration":202593,"SoundDuration":202593,"Delta":147984216},{"NoteNumber":65,"Velocity":44,"Duration":197264,"SoundDuration":197264,"Delta":148186809},{"NoteNumber":53,"Velocity":28,"Duration":604202,"SoundDuration":604202,"Delta":148186809},{"NoteNumber":60,"Velocity":41,"Duration":193976,"SoundDuration":193976,"Delta":148384073},{"NoteNumber":57,"Velocity":24,"Duration":197264,"SoundDuration":197264,"Delta":148384073},{"NoteNumber":69,"Velocity":41,"Duration":209673,"SoundDuration":209673,"Delta":148581338},{"NoteNumber":60,"Velocity":24,"Duration":209673,"SoundDuration":209673,"Delta":148581338},{"NoteNumber":65,"Velocity":44,"Duration":198570,"SoundDuration":198570,"Delta":148791011},{"NoteNumber":53,"Velocity":28,"Duration":702147,"SoundDuration":702147,"Delta":148791011},{"NoteNumber":60,"Velocity":40,"Duration":203336,"SoundDuration":203336,"Delta":148989581},{"NoteNumber":57,"Velocity":24,"Duration":206782,"SoundDuration":206782,"Delta":148989581},{"NoteNumber":69,"Velocity":40,"Duration":296794,"SoundDuration":296794,"Delta":149196364},{"NoteNumber":60,"Velocity":24,"Duration":296794,"SoundDuration":296794,"Delta":149196364},{"NoteNumber":58,"Velocity":36,"Duration":802998,"SoundDuration":802998,"Delta":149493158},{"NoteNumber":67,"Velocity":42,"Duration":802998,"SoundDuration":802998,"Delta":149493158},{"NoteNumber":53,"Velocity":28,"Duration":1070663,"SoundDuration":1070663,"Delta":149493158},{"NoteNumber":41,"Velocity":23,"Duration":1070663,"SoundDuration":1070663,"Delta":149493158},{"NoteNumber":57,"Velocity":31,"Duration":267665,"SoundDuration":267665,"Delta":150296156},{"NoteNumber":65,"Velocity":36,"Duration":267665,"SoundDuration":267665,"Delta":150296156},{"NoteNumber":81,"Velocity":80,"Duration":595711,"SoundDuration":595711,"Delta":151099154},{"NoteNumber":69,"Velocity":68,"Duration":595711,"SoundDuration":595711,"Delta":151099154},{"NoteNumber":79,"Velocity":77,"Duration":595711,"SoundDuration":595711,"Delta":151694866},{"NoteNumber":69,"Velocity":65,"Duration":595711,"SoundDuration":595711,"Delta":151694866},{"NoteNumber":69,"Velocity":66,"Duration":595711,"SoundDuration":595711,"Delta":152290577},{"NoteNumber":77,"Velocity":78,"Duration":595711,"SoundDuration":595711,"Delta":152290577},{"NoteNumber":45,"Velocity":63,"Duration":595711,"SoundDuration":595711,"Delta":152290577},{"NoteNumber":57,"Velocity":74,"Duration":595711,"SoundDuration":595711,"Delta":152290577},{"NoteNumber":76,"Velocity":76,"Duration":595711,"SoundDuration":595711,"Delta":152886289},{"NoteNumber":69,"Velocity":65,"Duration":595711,"SoundDuration":595711,"Delta":152886289},{"NoteNumber":55,"Velocity":74,"Duration":595711,"SoundDuration":595711,"Delta":152886289},{"NoteNumber":43,"Velocity":63,"Duration":595711,"SoundDuration":595711,"Delta":152886289},{"NoteNumber":74,"Velocity":79,"Duration":595711,"SoundDuration":595711,"Delta":153482000},{"NoteNumber":69,"Velocity":67,"Duration":595711,"SoundDuration":595711,"Delta":153482000},{"NoteNumber":53,"Velocity":74,"Duration":595711,"SoundDuration":595711,"Delta":153482000},{"NoteNumber":41,"Velocity":63,"Duration":595711,"SoundDuration":595711,"Delta":153482000},{"NoteNumber":69,"Velocity":65,"Duration":629018,"SoundDuration":629018,"Delta":154077712},{"NoteNumber":73,"Velocity":76,"Duration":629018,"SoundDuration":629018,"Delta":154077712},{"NoteNumber":67,"Velocity":65,"Duration":629018,"SoundDuration":629018,"Delta":154077712},{"NoteNumber":52,"Velocity":74,"Duration":629018,"SoundDuration":629018,"Delta":154077712},{"NoteNumber":40,"Velocity":63,"Duration":629018,"SoundDuration":629018,"Delta":154077712},{"NoteNumber":74,"Velocity":65,"Duration":99285,"SoundDuration":99285,"Delta":154706731},{"NoteNumber":50,"Velocity":59,"Duration":198570,"SoundDuration":198570,"Delta":154706731},{"NoteNumber":69,"Velocity":54,"Duration":99285,"SoundDuration":99285,"Delta":154806016},{"NoteNumber":65,"Velocity":54,"Duration":96724,"SoundDuration":96724,"Delta":154905301},{"NoteNumber":53,"Velocity":54,"Duration":193448,"SoundDuration":193448,"Delta":154905301},{"NoteNumber":69,"Velocity":54,"Duration":96724,"SoundDuration":96724,"Delta":155002026},{"NoteNumber":74,"Velocity":65,"Duration":102683,"SoundDuration":102683,"Delta":155098750},{"NoteNumber":57,"Velocity":54,"Duration":205366,"SoundDuration":205366,"Delta":155098750},{"NoteNumber":69,"Velocity":54,"Duration":102683,"SoundDuration":102683,"Delta":155201433},{"NoteNumber":76,"Velocity":65,"Duration":98632,"SoundDuration":98632,"Delta":155304117},{"NoteNumber":49,"Velocity":59,"Duration":197264,"SoundDuration":197264,"Delta":155304117},{"NoteNumber":69,"Velocity":54,"Duration":98632,"SoundDuration":98632,"Delta":155402749},{"NoteNumber":67,"Velocity":54,"Duration":96104,"SoundDuration":96104,"Delta":155501381},{"NoteNumber":52,"Velocity":54,"Duration":192208,"SoundDuration":192208,"Delta":155501381},{"NoteNumber":69,"Velocity":54,"Duration":96104,"SoundDuration":96104,"Delta":155597486},{"NoteNumber":76,"Velocity":65,"Duration":100616,"SoundDuration":100616,"Delta":155693590},{"NoteNumber":57,"Velocity":54,"Duration":201233,"SoundDuration":201233,"Delta":155693590},{"NoteNumber":69,"Velocity":55,"Duration":100616,"SoundDuration":100616,"Delta":155794207},{"NoteNumber":77,"Velocity":65,"Duration":97987,"SoundDuration":97987,"Delta":155894824},{"NoteNumber":50,"Velocity":59,"Duration":195976,"SoundDuration":195976,"Delta":155894824},{"NoteNumber":74,"Velocity":55,"Duration":97988,"SoundDuration":97988,"Delta":155992812},{"NoteNumber":69,"Velocity":55,"Duration":97987,"SoundDuration":97987,"Delta":156090800},{"NoteNumber":53,"Velocity":54,"Duration":195976,"SoundDuration":195976,"Delta":156090800},{"NoteNumber":74,"Velocity":55,"Duration":97988,"SoundDuration":97988,"Delta":156188788},{"NoteNumber":77,"Velocity":65,"Duration":100616,"SoundDuration":100616,"Delta":156286776},{"NoteNumber":57,"Velocity":54,"Duration":201233,"SoundDuration":201233,"Delta":156286776},{"NoteNumber":74,"Velocity":55,"Duration":100616,"SoundDuration":100616,"Delta":156387393},{"NoteNumber":78,"Velocity":65,"Duration":97987,"SoundDuration":97987,"Delta":156488010},{"NoteNumber":48,"Velocity":59,"Duration":195976,"SoundDuration":195976,"Delta":156488010},{"NoteNumber":74,"Velocity":55,"Duration":97988,"SoundDuration":97988,"Delta":156585998},{"NoteNumber":69,"Velocity":55,"Duration":96104,"SoundDuration":96104,"Delta":156683986},{"NoteNumber":54,"Velocity":53,"Duration":192208,"SoundDuration":192208,"Delta":156683986},{"NoteNumber":74,"Velocity":55,"Duration":96104,"SoundDuration":96104,"Delta":156780091},{"NoteNumber":78,"Velocity":65,"Duration":100616,"SoundDuration":100616,"Delta":156876195},{"NoteNumber":57,"Velocity":53,"Duration":201233,"SoundDuration":201233,"Delta":156876195},{"NoteNumber":74,"Velocity":56,"Duration":100616,"SoundDuration":100616,"Delta":156976812},{"NoteNumber":79,"Velocity":65,"Duration":394529,"SoundDuration":394529,"Delta":157077429},{"NoteNumber":47,"Velocity":58,"Duration":394529,"SoundDuration":394529,"Delta":157077429},{"NoteNumber":81,"Velocity":59,"Duration":97352,"SoundDuration":97352,"Delta":157471958},{"NoteNumber":79,"Velocity":59,"Duration":97352,"SoundDuration":97352,"Delta":157569310},{"NoteNumber":77,"Velocity":65,"Duration":397141,"SoundDuration":397141,"Delta":157666662},{"NoteNumber":79,"Velocity":57,"Duration":97987,"SoundDuration":97987,"Delta":158063803},{"NoteNumber":77,"Velocity":57,"Duration":97988,"SoundDuration":97988,"Delta":158161791},{"NoteNumber":76,"Velocity":65,"Duration":399787,"SoundDuration":399787,"Delta":158259779},{"NoteNumber":67,"Velocity":54,"Duration":597051,"SoundDuration":597051,"Delta":158259779},{"NoteNumber":77,"Velocity":57,"Duration":98632,"SoundDuration":98632,"Delta":158659566},{"NoteNumber":76,"Velocity":57,"Duration":98632,"SoundDuration":98632,"Delta":158758199},{"NoteNumber":74,"Velocity":65,"Duration":399787,"SoundDuration":399787,"Delta":158856831},{"NoteNumber":67,"Velocity":52,"Duration":595763,"SoundDuration":595763,"Delta":158856831},{"NoteNumber":65,"Velocity":44,"Duration":595763,"SoundDuration":595763,"Delta":158856831},{"NoteNumber":76,"Velocity":59,"Duration":97987,"SoundDuration":97987,"Delta":159256618},{"NoteNumber":74,"Velocity":59,"Duration":97988,"SoundDuration":97988,"Delta":159354606},{"NoteNumber":72,"Velocity":65,"Duration":399787,"SoundDuration":399787,"Delta":159452594},{"NoteNumber":67,"Velocity":47,"Duration":595763,"SoundDuration":595763,"Delta":159452594},{"NoteNumber":64,"Velocity":40,"Duration":595763,"SoundDuration":595763,"Delta":159452594},{"NoteNumber":74,"Velocity":59,"Duration":97987,"SoundDuration":97987,"Delta":159852381},{"NoteNumber":72,"Velocity":59,"Duration":97988,"SoundDuration":97988,"Delta":159950369},{"NoteNumber":71,"Velocity":65,"Duration":399787,"SoundDuration":399787,"Delta":160048357},{"NoteNumber":65,"Velocity":39,"Duration":602380,"SoundDuration":602380,"Delta":160048357},{"NoteNumber":62,"Velocity":39,"Duration":602380,"SoundDuration":602380,"Delta":160048357},{"NoteNumber":67,"Velocity":46,"Duration":602380,"SoundDuration":602380,"Delta":160048357},{"NoteNumber":72,"Velocity":56,"Duration":101296,"SoundDuration":101296,"Delta":160448144},{"NoteNumber":71,"Velocity":56,"Duration":101296,"SoundDuration":101296,"Delta":160549440},{"NoteNumber":74,"Velocity":62,"Duration":109941,"SoundDuration":109941,"Delta":160650737},{"NoteNumber":60,"Velocity":44,"Duration":99946,"SoundDuration":99946,"Delta":160650737},{"NoteNumber":72,"Velocity":54,"Duration":109941,"SoundDuration":109941,"Delta":160750684},{"NoteNumber":71,"Velocity":54,"Duration":109941,"SoundDuration":109941,"Delta":160850630},{"NoteNumber":64,"Velocity":37,"Duration":99946,"SoundDuration":99946,"Delta":160850630},{"NoteNumber":72,"Velocity":54,"Duration":109941,"SoundDuration":109941,"Delta":160950577},{"NoteNumber":71,"Velocity":53,"Duration":110215,"SoundDuration":110215,"Delta":161050524},{"NoteNumber":67,"Velocity":37,"Duration":99946,"SoundDuration":99946,"Delta":161050524},{"NoteNumber":72,"Velocity":55,"Duration":112612,"SoundDuration":112612,"Delta":161150471},{"NoteNumber":76,"Velocity":59,"Duration":109213,"SoundDuration":109213,"Delta":161253154},{"NoteNumber":59,"Velocity":43,"Duration":99285,"SoundDuration":99285,"Delta":161253154},{"NoteNumber":74,"Velocity":55,"Duration":109213,"SoundDuration":109213,"Delta":161352439},{"NoteNumber":73,"Velocity":55,"Duration":109213,"SoundDuration":109213,"Delta":161451725},{"NoteNumber":65,"Velocity":37,"Duration":99285,"SoundDuration":99285,"Delta":161451725},{"NoteNumber":74,"Velocity":55,"Duration":109213,"SoundDuration":109213,"Delta":161551010},{"NoteNumber":73,"Velocity":55,"Duration":109624,"SoundDuration":109624,"Delta":161650295},{"NoteNumber":67,"Velocity":37,"Duration":99285,"SoundDuration":99285,"Delta":161650295},{"NoteNumber":74,"Velocity":55,"Duration":113319,"SoundDuration":113319,"Delta":161749580},{"NoteNumber":76,"Velocity":59,"Duration":109213,"SoundDuration":109213,"Delta":161852972},{"NoteNumber":67,"Velocity":46,"Duration":198570,"SoundDuration":198570,"Delta":161852972},{"NoteNumber":60,"Velocity":46,"Duration":198570,"SoundDuration":198570,"Delta":161852972},{"NoteNumber":64,"Velocity":46,"Duration":198570,"SoundDuration":198570,"Delta":161852972},{"NoteNumber":74,"Velocity":54,"Duration":109213,"SoundDuration":109213,"Delta":161952257},{"NoteNumber":72,"Velocity":54,"Duration":109213,"SoundDuration":109213,"Delta":162051542},{"NoteNumber":74,"Velocity":54,"Duration":109213,"SoundDuration":109213,"Delta":162150827},{"NoteNumber":76,"Velocity":54,"Duration":109213,"SoundDuration":109213,"Delta":162250113},{"NoteNumber":77,"Velocity":54,"Duration":109213,"SoundDuration":109213,"Delta":162349398},{"NoteNumber":79,"Velocity":59,"Duration":109213,"SoundDuration":109213,"Delta":162448683},{"NoteNumber":77,"Velocity":55,"Duration":109213,"SoundDuration":109213,"Delta":162547968},{"NoteNumber":76,"Velocity":55,"Duration":109213,"SoundDuration":109213,"Delta":162647254},{"NoteNumber":77,"Velocity":55,"Duration":109213,"SoundDuration":109213,"Delta":162746539},{"NoteNumber":79,"Velocity":55,"Duration":109624,"SoundDuration":109624,"Delta":162845824},{"NoteNumber":80,"Velocity":55,"Duration":113319,"SoundDuration":113319,"Delta":162945109},{"NoteNumber":81,"Velocity":59,"Duration":99285,"SoundDuration":99285,"Delta":163048501},{"NoteNumber":53,"Velocity":41,"Duration":99285,"SoundDuration":99285,"Delta":163048501},{"NoteNumber":82,"Velocity":55,"Duration":109213,"SoundDuration":109213,"Delta":163147786},{"NoteNumber":81,"Velocity":55,"Duration":109213,"SoundDuration":109213,"Delta":163247071},{"NoteNumber":65,"Velocity":35,"Duration":99285,"SoundDuration":99285,"Delta":163247071},{"NoteNumber":79,"Velocity":55,"Duration":109213,"SoundDuration":109213,"Delta":163346356},{"NoteNumber":77,"Velocity":55,"Duration":109213,"SoundDuration":109213,"Delta":163445642},{"NoteNumber":76,"Velocity":54,"Duration":109768,"SoundDuration":109768,"Delta":163544927},{"NoteNumber":74,"Velocity":59,"Duration":104836,"SoundDuration":104836,"Delta":163644212},{"NoteNumber":47,"Velocity":43,"Duration":104836,"SoundDuration":104836,"Delta":163644212},{"NoteNumber":85,"Velocity":54,"Duration":109213,"SoundDuration":109213,"Delta":163749049},{"NoteNumber":86,"Velocity":63,"Duration":109213,"SoundDuration":109213,"Delta":163848334},{"NoteNumber":59,"Velocity":38,"Duration":99285,"SoundDuration":99285,"Delta":163848334},{"NoteNumber":84,"Velocity":62,"Duration":109213,"SoundDuration":109213,"Delta":163947619},{"NoteNumber":83,"Velocity":60,"Duration":109483,"SoundDuration":109483,"Delta":164046904},{"NoteNumber":81,"Velocity":59,"Duration":111913,"SoundDuration":111913,"Delta":164146190},{"NoteNumber":79,"Velocity":59,"Duration":99285,"SoundDuration":99285,"Delta":164248175},{"NoteNumber":52,"Velocity":44,"Duration":99285,"SoundDuration":99285,"Delta":164248175},{"NoteNumber":81,"Velocity":60,"Duration":99285,"SoundDuration":99285,"Delta":164347460},{"NoteNumber":79,"Velocity":60,"Duration":99285,"SoundDuration":99285,"Delta":164446745},{"NoteNumber":64,"Velocity":40,"Duration":99285,"SoundDuration":99285,"Delta":164446745},{"NoteNumber":77,"Velocity":60,"Duration":99285,"SoundDuration":99285,"Delta":164546031},{"NoteNumber":76,"Velocity":60,"Duration":99285,"SoundDuration":99285,"Delta":164645316},{"NoteNumber":74,"Velocity":59,"Duration":99285,"SoundDuration":99285,"Delta":164744601},{"NoteNumber":72,"Velocity":59,"Duration":104836,"SoundDuration":104836,"Delta":164843886},{"NoteNumber":45,"Velocity":43,"Duration":104836,"SoundDuration":104836,"Delta":164843886},{"NoteNumber":83,"Velocity":56,"Duration":109213,"SoundDuration":109213,"Delta":164948723},{"NoteNumber":84,"Velocity":63,"Duration":109213,"SoundDuration":109213,"Delta":165048008},{"NoteNumber":57,"Velocity":40,"Duration":99285,"SoundDuration":99285,"Delta":165048008},{"NoteNumber":83,"Velocity":62,"Duration":109213,"SoundDuration":109213,"Delta":165147293},{"NoteNumber":81,"Velocity":60,"Duration":109213,"SoundDuration":109213,"Delta":165246579},{"NoteNumber":79,"Velocity":59,"Duration":109842,"SoundDuration":109842,"Delta":165345864},{"NoteNumber":77,"Velocity":56,"Duration":105574,"SoundDuration":105574,"Delta":165445149},{"NoteNumber":50,"Velocity":48,"Duration":105574,"SoundDuration":105574,"Delta":165445149},{"NoteNumber":85,"Velocity":61,"Duration":98632,"SoundDuration":98632,"Delta":165550723},{"NoteNumber":86,"Velocity":68,"Duration":98632,"SoundDuration":98632,"Delta":165649356},{"NoteNumber":83,"Velocity":63,"Duration":98632,"SoundDuration":98632,"Delta":165747988},{"NoteNumber":79,"Velocity":63,"Duration":98632,"SoundDuration":98632,"Delta":165846620},{"NoteNumber":59,"Velocity":43,"Duration":98632,"SoundDuration":98632,"Delta":165846620},{"NoteNumber":77,"Velocity":63,"Duration":98632,"SoundDuration":98632,"Delta":165945252},{"NoteNumber":76,"Velocity":60,"Duration":104836,"SoundDuration":104836,"Delta":166043885},{"NoteNumber":60,"Velocity":49,"Duration":104836,"SoundDuration":104836,"Delta":166043885},{"NoteNumber":83,"Velocity":53,"Duration":108495,"SoundDuration":108495,"Delta":166148721},{"NoteNumber":84,"Velocity":59,"Duration":108495,"SoundDuration":108495,"Delta":166247353},{"NoteNumber":79,"Velocity":54,"Duration":108495,"SoundDuration":108495,"Delta":166345986},{"NoteNumber":77,"Velocity":54,"Duration":108560,"SoundDuration":108560,"Delta":166444618},{"NoteNumber":48,"Velocity":40,"Duration":98632,"SoundDuration":98632,"Delta":166444618},{"NoteNumber":76,"Velocity":54,"Duration":109148,"SoundDuration":109148,"Delta":166543250},{"NoteNumber":74,"Velocity":59,"Duration":98632,"SoundDuration":98632,"Delta":166642535},{"NoteNumber":55,"Velocity":47,"Duration":98632,"SoundDuration":98632,"Delta":166642535},{"NoteNumber":76,"Velocity":58,"Duration":108495,"SoundDuration":108495,"Delta":166741168},{"NoteNumber":74,"Velocity":62,"Duration":108495,"SoundDuration":108495,"Delta":166839800},{"NoteNumber":72,"Velocity":61,"Duration":108495,"SoundDuration":108495,"Delta":166938432},{"NoteNumber":71,"Velocity":60,"Duration":108495,"SoundDuration":108495,"Delta":167037064},{"NoteNumber":69,"Velocity":59,"Duration":108474,"SoundDuration":108474,"Delta":167135697},{"NoteNumber":67,"Velocity":57,"Duration":108092,"SoundDuration":108092,"Delta":167234329},{"NoteNumber":69,"Velocity":57,"Duration":109358,"SoundDuration":109358,"Delta":167332559},{"NoteNumber":67,"Velocity":56,"Duration":110742,"SoundDuration":110742,"Delta":167431923},{"NoteNumber":65,"Velocity":55,"Duration":112163,"SoundDuration":112163,"Delta":167532536},{"NoteNumber":64,"Velocity":52,"Duration":117573,"SoundDuration":117573,"Delta":167634431},{"NoteNumber":62,"Velocity":51,"Duration":142748,"SoundDuration":142748,"Delta":167737730},{"NoteNumber":75,"Velocity":49,"Duration":796125,"SoundDuration":796125,"Delta":167880478},{"NoteNumber":60,"Velocity":41,"Duration":199031,"SoundDuration":199031,"Delta":167880478},{"NoteNumber":63,"Velocity":31,"Duration":199031,"SoundDuration":199031,"Delta":168079510},{"NoteNumber":67,"Velocity":31,"Duration":199031,"SoundDuration":199031,"Delta":168278541},{"NoteNumber":60,"Velocity":37,"Duration":199031,"SoundDuration":199031,"Delta":168477573},{"NoteNumber":74,"Velocity":43,"Duration":98632,"SoundDuration":98632,"Delta":168676604},{"NoteNumber":63,"Velocity":31,"Duration":197264,"SoundDuration":197264,"Delta":168676604},{"NoteNumber":72,"Velocity":43,"Duration":98632,"SoundDuration":98632,"Delta":168873869},{"NoteNumber":67,"Velocity":31,"Duration":206756,"SoundDuration":206756,"Delta":168873869},{"NoteNumber":78,"Velocity":49,"Duration":398063,"SoundDuration":398063,"Delta":169080625},{"NoteNumber":59,"Velocity":41,"Duration":199031,"SoundDuration":199031,"Delta":169080625},{"NoteNumber":62,"Velocity":31,"Duration":199031,"SoundDuration":199031,"Delta":169279656},{"NoteNumber":79,"Velocity":43,"Duration":199031,"SoundDuration":199031,"Delta":169478688},{"NoteNumber":67,"Velocity":31,"Duration":199031,"SoundDuration":199031,"Delta":169478688},{"NoteNumber":74,"Velocity":43,"Duration":398063,"SoundDuration":398063,"Delta":169677719},{"NoteNumber":59,"Velocity":36,"Duration":199031,"SoundDuration":199031,"Delta":169677719},{"NoteNumber":62,"Velocity":31,"Duration":199031,"SoundDuration":199031,"Delta":169876751},{"NoteNumber":67,"Velocity":31,"Duration":210029,"SoundDuration":210029,"Delta":170075782},{"NoteNumber":80,"Velocity":58,"Duration":796125,"SoundDuration":796125,"Delta":170285811},{"NoteNumber":59,"Velocity":41,"Duration":199031,"SoundDuration":199031,"Delta":170285811},{"NoteNumber":62,"Velocity":31,"Duration":199031,"SoundDuration":199031,"Delta":170484843},{"NoteNumber":65,"Velocity":31,"Duration":199031,"SoundDuration":199031,"Delta":170683874},{"NoteNumber":59,"Velocity":37,"Duration":199031,"SoundDuration":199031,"Delta":170882906},{"NoteNumber":79,"Velocity":49,"Duration":98632,"SoundDuration":98632,"Delta":171081937},{"NoteNumber":62,"Velocity":31,"Duration":197264,"SoundDuration":197264,"Delta":171081937},{"NoteNumber":77,"Velocity":49,"Duration":98632,"SoundDuration":98632,"Delta":171279202},{"NoteNumber":67,"Velocity":31,"Duration":206756,"SoundDuration":206756,"Delta":171279202},{"NoteNumber":75,"Velocity":60,"Duration":199031,"SoundDuration":199031,"Delta":171485958},{"NoteNumber":60,"Velocity":41,"Duration":199031,"SoundDuration":199031,"Delta":171485958},{"NoteNumber":77,"Velocity":42,"Duration":67990,"SoundDuration":67990,"Delta":171684989},{"NoteNumber":63,"Velocity":31,"Duration":203970,"SoundDuration":203970,"Delta":171684989},{"NoteNumber":75,"Velocity":42,"Duration":67990,"SoundDuration":67990,"Delta":171752979},{"NoteNumber":74,"Velocity":42,"Duration":67990,"SoundDuration":67990,"Delta":171820970},{"NoteNumber":75,"Velocity":51,"Duration":102683,"SoundDuration":102683,"Delta":171888960},{"NoteNumber":67,"Velocity":31,"Duration":218890,"SoundDuration":218890,"Delta":171888960},{"NoteNumber":77,"Velocity":44,"Duration":116207,"SoundDuration":116207,"Delta":171991643},{"NoteNumber":79,"Velocity":51,"Duration":397141,"SoundDuration":397141,"Delta":172107850},{"NoteNumber":60,"Velocity":36,"Duration":198570,"SoundDuration":198570,"Delta":172107850},{"NoteNumber":63,"Velocity":31,"Duration":198570,"SoundDuration":198570,"Delta":172306421},{"NoteNumber":67,"Velocity":31,"Duration":209798,"SoundDuration":209798,"Delta":172504991},{"NoteNumber":84,"Velocity":66,"Duration":603701,"SoundDuration":603701,"Delta":172714790},{"NoteNumber":63,"Velocity":47,"Duration":201233,"SoundDuration":201233,"Delta":172714790},{"NoteNumber":67,"Velocity":36,"Duration":201233,"SoundDuration":201233,"Delta":172916024},{"NoteNumber":72,"Velocity":36,"Duration":201233,"SoundDuration":201233,"Delta":173117258},{"NoteNumber":82,"Velocity":54,"Duration":394779,"SoundDuration":394779,"Delta":173318492},{"NoteNumber":62,"Velocity":44,"Duration":196090,"SoundDuration":196090,"Delta":173318492},{"NoteNumber":65,"Velocity":32,"Duration":198688,"SoundDuration":198688,"Delta":173514583},{"NoteNumber":84,"Velocity":50,"Duration":198688,"SoundDuration":198688,"Delta":173713272},{"NoteNumber":70,"Velocity":33,"Duration":198688,"SoundDuration":198688,"Delta":173713272},{"NoteNumber":82,"Velocity":57,"Duration":400026,"SoundDuration":400026,"Delta":173911960},{"NoteNumber":60,"Velocity":48,"Duration":200013,"SoundDuration":200013,"Delta":173911960},{"NoteNumber":63,"Velocity":36,"Duration":200013,"SoundDuration":200013,"Delta":174111974},{"NoteNumber":80,"Velocity":52,"Duration":200013,"SoundDuration":200013,"Delta":174311987},{"NoteNumber":68,"Velocity":36,"Duration":200013,"SoundDuration":200013,"Delta":174311987},{"NoteNumber":79,"Velocity":55,"Duration":604122,"SoundDuration":604122,"Delta":174512001},{"NoteNumber":58,"Velocity":45,"Duration":200013,"SoundDuration":200013,"Delta":174512001},{"NoteNumber":62,"Velocity":31,"Duration":200013,"SoundDuration":200013,"Delta":174712014},{"NoteNumber":67,"Velocity":31,"Duration":204095,"SoundDuration":204095,"Delta":174912028},{"NoteNumber":77,"Velocity":59,"Duration":400026,"SoundDuration":400026,"Delta":175116123},{"NoteNumber":56,"Velocity":46,"Duration":200013,"SoundDuration":200013,"Delta":175116123},{"NoteNumber":60,"Velocity":35,"Duration":200013,"SoundDuration":200013,"Delta":175316137},{"NoteNumber":75,"Velocity":53,"Duration":200013,"SoundDuration":200013,"Delta":175516150},{"NoteNumber":65,"Velocity":35,"Duration":200013,"SoundDuration":200013,"Delta":175516150},{"NoteNumber":74,"Velocity":57,"Duration":400026,"SoundDuration":400026,"Delta":175716164},{"NoteNumber":56,"Velocity":43,"Duration":200013,"SoundDuration":200013,"Delta":175716164},{"NoteNumber":60,"Velocity":36,"Duration":200013,"SoundDuration":200013,"Delta":175916177},{"NoteNumber":72,"Velocity":47,"Duration":205493,"SoundDuration":205493,"Delta":176116191},{"NoteNumber":66,"Velocity":34,"Duration":205493,"SoundDuration":205493,"Delta":176116191},{"NoteNumber":75,"Velocity":53,"Duration":600040,"SoundDuration":600040,"Delta":176321684},{"NoteNumber":55,"Velocity":43,"Duration":200013,"SoundDuration":200013,"Delta":176321684},{"NoteNumber":60,"Velocity":29,"Duration":200013,"SoundDuration":200013,"Delta":176521698},{"NoteNumber":67,"Velocity":30,"Duration":200013,"SoundDuration":200013,"Delta":176721711},{"NoteNumber":74,"Velocity":45,"Duration":200013,"SoundDuration":200013,"Delta":176921725},{"NoteNumber":55,"Velocity":39,"Duration":200013,"SoundDuration":200013,"Delta":176921725},{"NoteNumber":59,"Velocity":27,"Duration":200013,"SoundDuration":200013,"Delta":177121738},{"NoteNumber":67,"Velocity":27,"Duration":200013,"SoundDuration":200013,"Delta":177321752},{"NoteNumber":75,"Velocity":49,"Duration":796125,"SoundDuration":796125,"Delta":177521765},{"NoteNumber":60,"Velocity":41,"Duration":199031,"SoundDuration":199031,"Delta":177521765},{"NoteNumber":63,"Velocity":31,"Duration":199031,"SoundDuration":199031,"Delta":177720797},{"NoteNumber":67,"Velocity":31,"Duration":199031,"SoundDuration":199031,"Delta":177919828},{"NoteNumber":60,"Velocity":37,"Duration":199031,"SoundDuration":199031,"Delta":178118860},{"NoteNumber":74,"Velocity":43,"Duration":98632,"SoundDuration":98632,"Delta":178317891},{"NoteNumber":63,"Velocity":31,"Duration":197264,"SoundDuration":197264,"Delta":178317891},{"NoteNumber":72,"Velocity":43,"Duration":98632,"SoundDuration":98632,"Delta":178515156},{"NoteNumber":67,"Velocity":31,"Duration":206756,"SoundDuration":206756,"Delta":178515156},{"NoteNumber":78,"Velocity":49,"Duration":398063,"SoundDuration":398063,"Delta":178721912},{"NoteNumber":59,"Velocity":41,"Duration":199031,"SoundDuration":199031,"Delta":178721912},{"NoteNumber":62,"Velocity":31,"Duration":199031,"SoundDuration":199031,"Delta":178920943},{"NoteNumber":79,"Velocity":43,"Duration":199031,"SoundDuration":199031,"Delta":179119975},{"NoteNumber":67,"Velocity":31,"Duration":199031,"SoundDuration":199031,"Delta":179119975},{"NoteNumber":74,"Velocity":43,"Duration":398063,"SoundDuration":398063,"Delta":179319006},{"NoteNumber":59,"Velocity":36,"Duration":199031,"SoundDuration":199031,"Delta":179319006},{"NoteNumber":62,"Velocity":31,"Duration":199031,"SoundDuration":199031,"Delta":179518038},{"NoteNumber":67,"Velocity":31,"Duration":210029,"SoundDuration":210029,"Delta":179717069},{"NoteNumber":80,"Velocity":58,"Duration":796125,"SoundDuration":796125,"Delta":179927098},{"NoteNumber":59,"Velocity":41,"Duration":199031,"SoundDuration":199031,"Delta":179927098},{"NoteNumber":62,"Velocity":31,"Duration":199031,"SoundDuration":199031,"Delta":180126130},{"NoteNumber":65,"Velocity":31,"Duration":199031,"SoundDuration":199031,"Delta":180325161},{"NoteNumber":59,"Velocity":37,"Duration":199031,"SoundDuration":199031,"Delta":180524193},{"NoteNumber":79,"Velocity":49,"Duration":98632,"SoundDuration":98632,"Delta":180723224},{"NoteNumber":62,"Velocity":31,"Duration":197264,"SoundDuration":197264,"Delta":180723224},{"NoteNumber":77,"Velocity":49,"Duration":98632,"SoundDuration":98632,"Delta":180920489},{"NoteNumber":67,"Velocity":31,"Duration":206756,"SoundDuration":206756,"Delta":180920489},{"NoteNumber":76,"Velocity":60,"Duration":199031,"SoundDuration":199031,"Delta":181127245},{"NoteNumber":58,"Velocity":41,"Duration":199031,"SoundDuration":199031,"Delta":181127245},{"NoteNumber":61,"Velocity":31,"Duration":203970,"SoundDuration":203970,"Delta":181326276},{"NoteNumber":77,"Velocity":51,"Duration":102683,"SoundDuration":102683,"Delta":181530247},{"NoteNumber":67,"Velocity":31,"Duration":218890,"SoundDuration":218890,"Delta":181530247},{"NoteNumber":79,"Velocity":44,"Duration":116207,"SoundDuration":116207,"Delta":181632930},{"NoteNumber":77,"Velocity":51,"Duration":397141,"SoundDuration":397141,"Delta":181749137},{"NoteNumber":57,"Velocity":36,"Duration":198570,"SoundDuration":198570,"Delta":181749137},{"NoteNumber":60,"Velocity":31,"Duration":198570,"SoundDuration":198570,"Delta":181947708},{"NoteNumber":65,"Velocity":31,"Duration":209798,"SoundDuration":209798,"Delta":182146278},{"NoteNumber":87,"Velocity":71,"Duration":603701,"SoundDuration":603701,"Delta":182356077},{"NoteNumber":56,"Velocity":52,"Duration":201233,"SoundDuration":201233,"Delta":182356077},{"NoteNumber":60,"Velocity":41,"Duration":201233,"SoundDuration":201233,"Delta":182557311},{"NoteNumber":66,"Velocity":41,"Duration":201233,"SoundDuration":201233,"Delta":182758545},{"NoteNumber":55,"Velocity":51,"Duration":201233,"SoundDuration":201233,"Delta":182959779},{"NoteNumber":86,"Velocity":58,"Duration":97408,"SoundDuration":97408,"Delta":183161013},{"NoteNumber":60,"Velocity":36,"Duration":200155,"SoundDuration":200155,"Delta":183161013},{"NoteNumber":84,"Velocity":58,"Duration":99344,"SoundDuration":99344,"Delta":183361169},{"NoteNumber":67,"Velocity":36,"Duration":198688,"SoundDuration":198688,"Delta":183361169},{"NoteNumber":83,"Velocity":66,"Duration":600040,"SoundDuration":600040,"Delta":183559857},{"NoteNumber":53,"Velocity":56,"Duration":200013,"SoundDuration":200013,"Delta":183559857},{"NoteNumber":56,"Velocity":36,"Duration":200013,"SoundDuration":200013,"Delta":183759871},{"NoteNumber":62,"Velocity":36,"Duration":200013,"SoundDuration":200013,"Delta":183959884},{"NoteNumber":84,"Velocity":68,"Duration":400026,"SoundDuration":400026,"Delta":184159898},{"NoteNumber":51,"Velocity":45,"Duration":200013,"SoundDuration":200013,"Delta":184159898},{"NoteNumber":60,"Velocity":31,"Duration":200013,"SoundDuration":200013,"Delta":184359911},{"NoteNumber":80,"Velocity":46,"Duration":204095,"SoundDuration":204095,"Delta":184559925},{"NoteNumber":53,"Velocity":31,"Duration":204095,"SoundDuration":204095,"Delta":184559925},{"NoteNumber":72,"Velocity":55,"Duration":546393,"SoundDuration":546393,"Delta":184764020},{"NoteNumber":55,"Velocity":45,"Duration":198688,"SoundDuration":198688,"Delta":184764020},{"NoteNumber":60,"Velocity":30,"Duration":198688,"SoundDuration":198688,"Delta":184962709},{"NoteNumber":63,"Velocity":30,"Duration":198688,"SoundDuration":198688,"Delta":185161397},{"NoteNumber":75,"Velocity":40,"Duration":49672,"SoundDuration":49672,"Delta":185310414},{"NoteNumber":74,"Velocity":51,"Duration":621274,"SoundDuration":621274,"Delta":185360086},{"NoteNumber":71,"Velocity":51,"Duration":621274,"SoundDuration":621274,"Delta":185360086},{"NoteNumber":55,"Velocity":38,"Duration":198688,"SoundDuration":198688,"Delta":185360086},{"NoteNumber":62,"Velocity":31,"Duration":198688,"SoundDuration":198688,"Delta":185558774},{"NoteNumber":65,"Velocity":31,"Duration":223897,"SoundDuration":223897,"Delta":185757463},{"NoteNumber":72,"Velocity":74,"Duration":100657,"SoundDuration":100657,"Delta":185981360},{"NoteNumber":64,"Velocity":67,"Duration":393668,"SoundDuration":393668,"Delta":185981360},{"NoteNumber":60,"Velocity":67,"Duration":393668,"SoundDuration":393668,"Delta":185981360},{"NoteNumber":79,"Velocity":62,"Duration":99285,"SoundDuration":99285,"Delta":186082017},{"NoteNumber":78,"Velocity":62,"Duration":97001,"SoundDuration":97001,"Delta":186181303},{"NoteNumber":79,"Velocity":62,"Duration":96724,"SoundDuration":96724,"Delta":186278304},{"NoteNumber":81,"Velocity":69,"Duration":102037,"SoundDuration":102037,"Delta":186375029},{"NoteNumber":79,"Velocity":62,"Duration":102683,"SoundDuration":102683,"Delta":186477066},{"NoteNumber":77,"Velocity":65,"Duration":97352,"SoundDuration":97352,"Delta":186579750},{"NoteNumber":62,"Velocity":67,"Duration":97352,"SoundDuration":97352,"Delta":186579750},{"NoteNumber":79,"Velocity":60,"Duration":97352,"SoundDuration":97352,"Delta":186677102},{"NoteNumber":77,"Velocity":65,"Duration":96104,"SoundDuration":96104,"Delta":186774454},{"NoteNumber":59,"Velocity":62,"Duration":96104,"SoundDuration":96104,"Delta":186774454},{"NoteNumber":79,"Velocity":59,"Duration":96104,"SoundDuration":96104,"Delta":186870558},{"NoteNumber":77,"Velocity":65,"Duration":100128,"SoundDuration":100128,"Delta":186966663},{"NoteNumber":55,"Velocity":62,"Duration":100128,"SoundDuration":100128,"Delta":186966663},{"NoteNumber":79,"Velocity":59,"Duration":100616,"SoundDuration":100616,"Delta":187066791},{"NoteNumber":76,"Velocity":74,"Duration":99429,"SoundDuration":99429,"Delta":187167408},{"NoteNumber":60,"Velocity":67,"Duration":392440,"SoundDuration":392440,"Delta":187167408},{"NoteNumber":79,"Velocity":62,"Duration":99285,"SoundDuration":99285,"Delta":187266838},{"NoteNumber":78,"Velocity":62,"Duration":97001,"SoundDuration":97001,"Delta":187366123},{"NoteNumber":79,"Velocity":62,"Duration":96724,"SoundDuration":96724,"Delta":187463125},{"NoteNumber":84,"Velocity":74,"Duration":102037,"SoundDuration":102037,"Delta":187559849},{"NoteNumber":79,"Velocity":62,"Duration":102683,"SoundDuration":102683,"Delta":187661887},{"NoteNumber":77,"Velocity":65,"Duration":97987,"SoundDuration":97987,"Delta":187764570},{"NoteNumber":62,"Velocity":67,"Duration":97987,"SoundDuration":97987,"Delta":187764570},{"NoteNumber":79,"Velocity":60,"Duration":97988,"SoundDuration":97988,"Delta":187862558},{"NoteNumber":77,"Velocity":65,"Duration":95492,"SoundDuration":95492,"Delta":187960546},{"NoteNumber":59,"Velocity":62,"Duration":95492,"SoundDuration":95492,"Delta":187960546},{"NoteNumber":79,"Velocity":59,"Duration":95492,"SoundDuration":95492,"Delta":188056039},{"NoteNumber":77,"Velocity":65,"Duration":100061,"SoundDuration":100061,"Delta":188151532},{"NoteNumber":55,"Velocity":62,"Duration":100061,"SoundDuration":100061,"Delta":188151532},{"NoteNumber":79,"Velocity":59,"Duration":100616,"SoundDuration":100616,"Delta":188251594},{"NoteNumber":76,"Velocity":74,"Duration":99429,"SoundDuration":99429,"Delta":188352211},{"NoteNumber":60,"Velocity":67,"Duration":392440,"SoundDuration":392440,"Delta":188352211},{"NoteNumber":79,"Velocity":62,"Duration":99285,"SoundDuration":99285,"Delta":188451640},{"NoteNumber":78,"Velocity":62,"Duration":97001,"SoundDuration":97001,"Delta":188550925},{"NoteNumber":79,"Velocity":62,"Duration":96724,"SoundDuration":96724,"Delta":188647927},{"NoteNumber":84,"Velocity":72,"Duration":102037,"SoundDuration":102037,"Delta":188744651},{"NoteNumber":79,"Velocity":62,"Duration":102683,"SoundDuration":102683,"Delta":188846689},{"NoteNumber":77,"Velocity":65,"Duration":96104,"SoundDuration":96104,"Delta":188949373},{"NoteNumber":62,"Velocity":67,"Duration":96104,"SoundDuration":96104,"Delta":188949373},{"NoteNumber":79,"Velocity":60,"Duration":96104,"SoundDuration":96104,"Delta":189045477},{"NoteNumber":77,"Velocity":65,"Duration":96104,"SoundDuration":96104,"Delta":189141582},{"NoteNumber":59,"Velocity":62,"Duration":96104,"SoundDuration":96104,"Delta":189141582},{"NoteNumber":79,"Velocity":59,"Duration":96104,"SoundDuration":96104,"Delta":189237686},{"NoteNumber":77,"Velocity":65,"Duration":100128,"SoundDuration":100128,"Delta":189333791},{"NoteNumber":55,"Velocity":62,"Duration":100128,"SoundDuration":100128,"Delta":189333791},{"NoteNumber":79,"Velocity":59,"Duration":100616,"SoundDuration":100616,"Delta":189433919},{"NoteNumber":76,"Velocity":74,"Duration":99429,"SoundDuration":99429,"Delta":189534536},{"NoteNumber":60,"Velocity":67,"Duration":392440,"SoundDuration":392440,"Delta":189534536},{"NoteNumber":79,"Velocity":62,"Duration":99285,"SoundDuration":99285,"Delta":189633965},{"NoteNumber":84,"Velocity":71,"Duration":97001,"SoundDuration":97001,"Delta":189733251},{"NoteNumber":76,"Velocity":60,"Duration":96724,"SoundDuration":96724,"Delta":189830252},{"NoteNumber":74,"Velocity":70,"Duration":102037,"SoundDuration":102037,"Delta":189926977},{"NoteNumber":83,"Velocity":62,"Duration":101670,"SoundDuration":101670,"Delta":190029015},{"NoteNumber":72,"Velocity":70,"Duration":98054,"SoundDuration":98054,"Delta":190130685},{"NoteNumber":81,"Velocity":62,"Duration":96789,"SoundDuration":96789,"Delta":190228740},{"NoteNumber":71,"Velocity":69,"Duration":94979,"SoundDuration":94979,"Delta":190325529},{"NoteNumber":79,"Velocity":60,"Duration":94739,"SoundDuration":94739,"Delta":190420508},{"NoteNumber":69,"Velocity":67,"Duration":94292,"SoundDuration":94292,"Delta":190515248},{"NoteNumber":77,"Velocity":58,"Duration":94535,"SoundDuration":94535,"Delta":190609540},{"NoteNumber":67,"Velocity":69,"Duration":93703,"SoundDuration":93703,"Delta":190704076},{"NoteNumber":76,"Velocity":62,"Duration":93703,"SoundDuration":93703,"Delta":190797779},{"NoteNumber":65,"Velocity":67,"Duration":93703,"SoundDuration":93703,"Delta":190891482},{"NoteNumber":74,"Velocity":59,"Duration":93703,"SoundDuration":93703,"Delta":190985185},{"NoteNumber":64,"Velocity":66,"Duration":93703,"SoundDuration":93703,"Delta":191078889},{"NoteNumber":72,"Velocity":56,"Duration":93703,"SoundDuration":93703,"Delta":191172592},{"NoteNumber":62,"Velocity":62,"Duration":96582,"SoundDuration":96582,"Delta":191266295},{"NoteNumber":71,"Velocity":54,"Duration":98150,"SoundDuration":98150,"Delta":191362877},{"NoteNumber":60,"Velocity":63,"Duration":99451,"SoundDuration":99451,"Delta":191461027},{"NoteNumber":69,"Velocity":55,"Duration":100788,"SoundDuration":100788,"Delta":191560479},{"NoteNumber":59,"Velocity":62,"Duration":102160,"SoundDuration":102160,"Delta":191661267},{"NoteNumber":67,"Velocity":51,"Duration":103571,"SoundDuration":103571,"Delta":191763428},{"NoteNumber":57,"Velocity":45,"Duration":595780,"SoundDuration":595780,"Delta":191867000},{"NoteNumber":66,"Velocity":55,"Duration":595780,"SoundDuration":595780,"Delta":191867000},{"NoteNumber":45,"Velocity":46,"Duration":215833,"SoundDuration":215833,"Delta":192068234},{"NoteNumber":48,"Velocity":49,"Duration":218168,"SoundDuration":218168,"Delta":192264210},{"NoteNumber":56,"Velocity":45,"Duration":591845,"SoundDuration":591845,"Delta":192462780},{"NoteNumber":65,"Velocity":55,"Duration":591845,"SoundDuration":591845,"Delta":192462780},{"NoteNumber":51,"Velocity":51,"Duration":215573,"SoundDuration":215573,"Delta":192462780},{"NoteNumber":50,"Velocity":46,"Duration":215965,"SoundDuration":215965,"Delta":192658756},{"NoteNumber":48,"Velocity":46,"Duration":402486,"SoundDuration":402486,"Delta":192854732},{"NoteNumber":68,"Velocity":45,"Duration":594561,"SoundDuration":594561,"Delta":193054626},{"NoteNumber":77,"Velocity":55,"Duration":594561,"SoundDuration":594561,"Delta":193054626},{"NoteNumber":47,"Velocity":45,"Duration":214430,"SoundDuration":214430,"Delta":193257219},{"NoteNumber":50,"Velocity":46,"Duration":216734,"SoundDuration":216734,"Delta":193451923},{"NoteNumber":62,"Velocity":45,"Duration":589301,"SoundDuration":589301,"Delta":193649187},{"NoteNumber":71,"Velocity":55,"Duration":589301,"SoundDuration":589301,"Delta":193649187},{"NoteNumber":56,"Velocity":51,"Duration":214174,"SoundDuration":214174,"Delta":193649187},{"NoteNumber":55,"Velocity":46,"Duration":214693,"SoundDuration":214693,"Delta":193843891},{"NoteNumber":53,"Velocity":46,"Duration":220016,"SoundDuration":220016,"Delta":194038595},{"NoteNumber":52,"Velocity":36,"Duration":201233,"SoundDuration":201233,"Delta":194238489},{"NoteNumber":79,"Velocity":49,"Duration":97352,"SoundDuration":97352,"Delta":194439723},{"NoteNumber":79,"Velocity":49,"Duration":97352,"SoundDuration":97352,"Delta":194634427},{"NoteNumber":53,"Velocity":40,"Duration":201233,"SoundDuration":201233,"Delta":194829131},{"NoteNumber":81,"Velocity":49,"Duration":97352,"SoundDuration":97352,"Delta":195030365},{"NoteNumber":81,"Velocity":49,"Duration":101985,"SoundDuration":101985,"Delta":195225069},{"NoteNumber":67,"Velocity":39,"Duration":553393,"SoundDuration":553393,"Delta":195429039},{"NoteNumber":72,"Velocity":47,"Duration":553393,"SoundDuration":553393,"Delta":195429039},{"NoteNumber":55,"Velocity":34,"Duration":1228354,"SoundDuration":1228354,"Delta":195429039},{"NoteNumber":64,"Velocity":40,"Duration":603701,"SoundDuration":603701,"Delta":195429039},{"NoteNumber":76,"Velocity":40,"Duration":50308,"SoundDuration":50308,"Delta":195982433},{"NoteNumber":74,"Velocity":44,"Duration":624652,"SoundDuration":624652,"Delta":196032741},{"NoteNumber":71,"Velocity":37,"Duration":624652,"SoundDuration":624652,"Delta":196032741},{"NoteNumber":65,"Velocity":40,"Duration":624652,"SoundDuration":624652,"Delta":196032741},{"NoteNumber":72,"Velocity":74,"Duration":99429,"SoundDuration":99429,"Delta":196657394},{"NoteNumber":64,"Velocity":67,"Duration":392440,"SoundDuration":392440,"Delta":196657394},{"NoteNumber":60,"Velocity":67,"Duration":392440,"SoundDuration":392440,"Delta":196657394},{"NoteNumber":79,"Velocity":62,"Duration":99285,"SoundDuration":99285,"Delta":196756823},{"NoteNumber":78,"Velocity":62,"Duration":97001,"SoundDuration":97001,"Delta":196856109},{"NoteNumber":79,"Velocity":62,"Duration":96724,"SoundDuration":96724,"Delta":196953110},{"NoteNumber":81,"Velocity":68,"Duration":102037,"SoundDuration":102037,"Delta":197049835},{"NoteNumber":79,"Velocity":62,"Duration":102683,"SoundDuration":102683,"Delta":197151873},{"NoteNumber":77,"Velocity":65,"Duration":99071,"SoundDuration":99071,"Delta":197254556},{"NoteNumber":62,"Velocity":67,"Duration":99071,"SoundDuration":99071,"Delta":197254556},{"NoteNumber":79,"Velocity":60,"Duration":98632,"SoundDuration":98632,"Delta":197353627},{"NoteNumber":77,"Velocity":65,"Duration":96378,"SoundDuration":96378,"Delta":197452259},{"NoteNumber":59,"Velocity":62,"Duration":96378,"SoundDuration":96378,"Delta":197452259},{"NoteNumber":79,"Velocity":59,"Duration":96104,"SoundDuration":96104,"Delta":197548638},{"NoteNumber":77,"Velocity":65,"Duration":100128,"SoundDuration":100128,"Delta":197644742},{"NoteNumber":55,"Velocity":62,"Duration":100128,"SoundDuration":100128,"Delta":197644742},{"NoteNumber":79,"Velocity":59,"Duration":100616,"SoundDuration":100616,"Delta":197744870},{"NoteNumber":76,"Velocity":74,"Duration":99429,"SoundDuration":99429,"Delta":197845487},{"NoteNumber":60,"Velocity":67,"Duration":392440,"SoundDuration":392440,"Delta":197845487},{"NoteNumber":79,"Velocity":62,"Duration":99285,"SoundDuration":99285,"Delta":197944917},{"NoteNumber":78,"Velocity":62,"Duration":97001,"SoundDuration":97001,"Delta":198044202},{"NoteNumber":79,"Velocity":62,"Duration":96724,"SoundDuration":96724,"Delta":198141204},{"NoteNumber":84,"Velocity":74,"Duration":102037,"SoundDuration":102037,"Delta":198237928},{"NoteNumber":79,"Velocity":62,"Duration":102683,"SoundDuration":102683,"Delta":198339966},{"NoteNumber":77,"Velocity":65,"Duration":99071,"SoundDuration":99071,"Delta":198442650},{"NoteNumber":62,"Velocity":67,"Duration":99071,"SoundDuration":99071,"Delta":198442650},{"NoteNumber":79,"Velocity":60,"Duration":98632,"SoundDuration":98632,"Delta":198541721},{"NoteNumber":77,"Velocity":65,"Duration":96378,"SoundDuration":96378,"Delta":198640353},{"NoteNumber":59,"Velocity":62,"Duration":96378,"SoundDuration":96378,"Delta":198640353},{"NoteNumber":79,"Velocity":59,"Duration":96104,"SoundDuration":96104,"Delta":198736731},{"NoteNumber":77,"Velocity":65,"Duration":100128,"SoundDuration":100128,"Delta":198832836},{"NoteNumber":55,"Velocity":62,"Duration":100128,"SoundDuration":100128,"Delta":198832836},{"NoteNumber":79,"Velocity":59,"Duration":100616,"SoundDuration":100616,"Delta":198932964},{"NoteNumber":76,"Velocity":74,"Duration":99429,"SoundDuration":99429,"Delta":199033581},{"NoteNumber":60,"Velocity":67,"Duration":392440,"SoundDuration":392440,"Delta":199033581},{"NoteNumber":79,"Velocity":62,"Duration":99285,"SoundDuration":99285,"Delta":199133010},{"NoteNumber":78,"Velocity":62,"Duration":97001,"SoundDuration":97001,"Delta":199232296},{"NoteNumber":79,"Velocity":62,"Duration":96724,"SoundDuration":96724,"Delta":199329297},{"NoteNumber":84,"Velocity":72,"Duration":102037,"SoundDuration":102037,"Delta":199426022},{"NoteNumber":79,"Velocity":62,"Duration":102683,"SoundDuration":102683,"Delta":199528060},{"NoteNumber":77,"Velocity":65,"Duration":99071,"SoundDuration":99071,"Delta":199630743},{"NoteNumber":62,"Velocity":67,"Duration":99071,"SoundDuration":99071,"Delta":199630743},{"NoteNumber":79,"Velocity":60,"Duration":98632,"SoundDuration":98632,"Delta":199729814},{"NoteNumber":77,"Velocity":65,"Duration":96378,"SoundDuration":96378,"Delta":199828446},{"NoteNumber":59,"Velocity":62,"Duration":96378,"SoundDuration":96378,"Delta":199828446},{"NoteNumber":79,"Velocity":59,"Duration":96104,"SoundDuration":96104,"Delta":199924825},{"NoteNumber":77,"Velocity":65,"Duration":100128,"SoundDuration":100128,"Delta":200020929},{"NoteNumber":55,"Velocity":62,"Duration":100128,"SoundDuration":100128,"Delta":200020929},{"NoteNumber":79,"Velocity":59,"Duration":100616,"SoundDuration":100616,"Delta":200121057},{"NoteNumber":76,"Velocity":74,"Duration":99429,"SoundDuration":99429,"Delta":200221674},{"NoteNumber":60,"Velocity":67,"Duration":393112,"SoundDuration":393112,"Delta":200221674},{"NoteNumber":79,"Velocity":62,"Duration":99285,"SoundDuration":99285,"Delta":200321104},{"NoteNumber":84,"Velocity":71,"Duration":97001,"SoundDuration":97001,"Delta":200420389},{"NoteNumber":76,"Velocity":60,"Duration":97395,"SoundDuration":97395,"Delta":200517391},{"NoteNumber":74,"Velocity":70,"Duration":99781,"SoundDuration":99781,"Delta":200614786},{"NoteNumber":83,"Velocity":62,"Duration":99160,"SoundDuration":99160,"Delta":200714568},{"NoteNumber":72,"Velocity":70,"Duration":98436,"SoundDuration":98436,"Delta":200813728},{"NoteNumber":81,"Velocity":62,"Duration":97121,"SoundDuration":97121,"Delta":200912165},{"NoteNumber":71,"Velocity":69,"Duration":96018,"SoundDuration":96018,"Delta":201009286},{"NoteNumber":79,"Velocity":60,"Duration":95125,"SoundDuration":95125,"Delta":201105305},{"NoteNumber":69,"Velocity":67,"Duration":94115,"SoundDuration":94115,"Delta":201200431},{"NoteNumber":77,"Velocity":58,"Duration":93272,"SoundDuration":93272,"Delta":201294546},{"NoteNumber":67,"Velocity":69,"Duration":92546,"SoundDuration":92546,"Delta":201387818},{"NoteNumber":76,"Velocity":62,"Duration":92547,"SoundDuration":92547,"Delta":201480365},{"NoteNumber":65,"Velocity":67,"Duration":92546,"SoundDuration":92546,"Delta":201572912},{"NoteNumber":74,"Velocity":59,"Duration":92546,"SoundDuration":92546,"Delta":201665459},{"NoteNumber":64,"Velocity":66,"Duration":92546,"SoundDuration":92546,"Delta":201758006},{"NoteNumber":72,"Velocity":56,"Duration":92546,"SoundDuration":92546,"Delta":201850553},{"NoteNumber":62,"Velocity":64,"Duration":92655,"SoundDuration":92655,"Delta":201943100},{"NoteNumber":71,"Velocity":55,"Duration":94868,"SoundDuration":94868,"Delta":202035756},{"NoteNumber":60,"Velocity":63,"Duration":97331,"SoundDuration":97331,"Delta":202130625},{"NoteNumber":69,"Velocity":55,"Duration":100661,"SoundDuration":100661,"Delta":202227956},{"NoteNumber":59,"Velocity":62,"Duration":102160,"SoundDuration":102160,"Delta":202328618},{"NoteNumber":67,"Velocity":51,"Duration":103571,"SoundDuration":103571,"Delta":202430779},{"NoteNumber":57,"Velocity":45,"Duration":595780,"SoundDuration":595780,"Delta":202534351},{"NoteNumber":66,"Velocity":55,"Duration":595780,"SoundDuration":595780,"Delta":202534351},{"NoteNumber":45,"Velocity":46,"Duration":215833,"SoundDuration":215833,"Delta":202735585},{"NoteNumber":48,"Velocity":49,"Duration":218168,"SoundDuration":218168,"Delta":202931561},{"NoteNumber":65,"Velocity":55,"Duration":591845,"SoundDuration":591845,"Delta":203130131},{"NoteNumber":56,"Velocity":45,"Duration":591845,"SoundDuration":591845,"Delta":203130131},{"NoteNumber":51,"Velocity":51,"Duration":215573,"SoundDuration":215573,"Delta":203130131},{"NoteNumber":50,"Velocity":46,"Duration":215965,"SoundDuration":215965,"Delta":203326107},{"NoteNumber":48,"Velocity":46,"Duration":402486,"SoundDuration":402486,"Delta":203522083},{"NoteNumber":68,"Velocity":45,"Duration":594561,"SoundDuration":594561,"Delta":203721977},{"NoteNumber":77,"Velocity":55,"Duration":594561,"SoundDuration":594561,"Delta":203721977},{"NoteNumber":47,"Velocity":45,"Duration":214430,"SoundDuration":214430,"Delta":203924570},{"NoteNumber":50,"Velocity":46,"Duration":216734,"SoundDuration":216734,"Delta":204119274},{"NoteNumber":62,"Velocity":45,"Duration":589301,"SoundDuration":589301,"Delta":204316538},{"NoteNumber":71,"Velocity":55,"Duration":589301,"SoundDuration":589301,"Delta":204316538},{"NoteNumber":56,"Velocity":51,"Duration":214174,"SoundDuration":214174,"Delta":204316538},{"NoteNumber":55,"Velocity":46,"Duration":214693,"SoundDuration":214693,"Delta":204511242},{"NoteNumber":53,"Velocity":46,"Duration":220016,"SoundDuration":220016,"Delta":204705946},{"NoteNumber":52,"Velocity":36,"Duration":201233,"SoundDuration":201233,"Delta":204905840},{"NoteNumber":79,"Velocity":49,"Duration":97352,"SoundDuration":97352,"Delta":205107074},{"NoteNumber":79,"Velocity":49,"Duration":97352,"SoundDuration":97352,"Delta":205301778},{"NoteNumber":53,"Velocity":40,"Duration":201233,"SoundDuration":201233,"Delta":205496482},{"NoteNumber":81,"Velocity":49,"Duration":97352,"SoundDuration":97352,"Delta":205697716},{"NoteNumber":81,"Velocity":49,"Duration":101985,"SoundDuration":101985,"Delta":205892420},{"NoteNumber":67,"Velocity":39,"Duration":1236960,"SoundDuration":1236960,"Delta":206096390},{"NoteNumber":72,"Velocity":47,"Duration":603701,"SoundDuration":603701,"Delta":206096390},{"NoteNumber":55,"Velocity":34,"Duration":603701,"SoundDuration":603701,"Delta":206096390},{"NoteNumber":64,"Velocity":40,"Duration":603701,"SoundDuration":603701,"Delta":206096390},{"NoteNumber":71,"Velocity":37,"Duration":633258,"SoundDuration":633258,"Delta":206700092},{"NoteNumber":62,"Velocity":40,"Duration":633258,"SoundDuration":633258,"Delta":206700092},{"NoteNumber":53,"Velocity":32,"Duration":633258,"SoundDuration":633258,"Delta":206700092},{"NoteNumber":78,"Velocity":71,"Duration":102683,"SoundDuration":102683,"Delta":207333350},{"NoteNumber":52,"Velocity":64,"Duration":205366,"SoundDuration":205366,"Delta":207333350},{"NoteNumber":79,"Velocity":55,"Duration":112612,"SoundDuration":112612,"Delta":207436034},{"NoteNumber":78,"Velocity":55,"Duration":109213,"SoundDuration":109213,"Delta":207538717},{"NoteNumber":55,"Velocity":53,"Duration":198570,"SoundDuration":198570,"Delta":207538717},{"NoteNumber":79,"Velocity":55,"Duration":109213,"SoundDuration":109213,"Delta":207638003},{"NoteNumber":78,"Velocity":55,"Duration":112583,"SoundDuration":112583,"Delta":207737288},{"NoteNumber":60,"Velocity":53,"Duration":204998,"SoundDuration":204998,"Delta":207737288},{"NoteNumber":79,"Velocity":55,"Duration":102683,"SoundDuration":102683,"Delta":207839603},{"NoteNumber":80,"Velocity":62,"Duration":111426,"SoundDuration":111426,"Delta":207942287},{"NoteNumber":53,"Velocity":61,"Duration":202593,"SoundDuration":202593,"Delta":207942287},{"NoteNumber":81,"Velocity":55,"Duration":111225,"SoundDuration":111225,"Delta":208043583},{"NoteNumber":80,"Velocity":55,"Duration":109213,"SoundDuration":109213,"Delta":208144880},{"NoteNumber":57,"Velocity":53,"Duration":198570,"SoundDuration":198570,"Delta":208144880},{"NoteNumber":81,"Velocity":55,"Duration":109213,"SoundDuration":109213,"Delta":208244165},{"NoteNumber":83,"Velocity":59,"Duration":110534,"SoundDuration":110534,"Delta":208343450},{"NoteNumber":62,"Velocity":50,"Duration":201089,"SoundDuration":201089,"Delta":208343450},{"NoteNumber":84,"Velocity":55,"Duration":100616,"SoundDuration":100616,"Delta":208443923},{"NoteNumber":72,"Velocity":47,"Duration":553393,"SoundDuration":553393,"Delta":208544540},{"NoteNumber":55,"Velocity":38,"Duration":201233,"SoundDuration":201233,"Delta":208544540},{"NoteNumber":60,"Velocity":34,"Duration":201233,"SoundDuration":201233,"Delta":208745774},{"NoteNumber":64,"Velocity":34,"Duration":201233,"SoundDuration":201233,"Delta":208947008},{"NoteNumber":76,"Velocity":37,"Duration":50308,"SoundDuration":50308,"Delta":209097934},{"NoteNumber":74,"Velocity":43,"Duration":520543,"SoundDuration":520543,"Delta":209148242},{"NoteNumber":71,"Velocity":43,"Duration":416435,"SoundDuration":416435,"Delta":209148242},{"NoteNumber":55,"Velocity":39,"Duration":208217,"SoundDuration":208217,"Delta":209148242},{"NoteNumber":62,"Velocity":33,"Duration":208217,"SoundDuration":208217,"Delta":209356460},{"NoteNumber":65,"Velocity":33,"Duration":208217,"SoundDuration":208217,"Delta":209564677},{"NoteNumber":72,"Velocity":37,"Duration":104108,"SoundDuration":104108,"Delta":209668786},{"NoteNumber":72,"Velocity":71,"Duration":114519,"SoundDuration":114519,"Delta":209772895},{"NoteNumber":60,"Velocity":56,"Duration":406788,"SoundDuration":406788,"Delta":209772895},{"NoteNumber":64,"Velocity":66,"Duration":406788,"SoundDuration":406788,"Delta":209772895},{"NoteNumber":76,"Velocity":64,"Duration":114037,"SoundDuration":114037,"Delta":209877003},{"NoteNumber":79,"Velocity":67,"Duration":109213,"SoundDuration":109213,"Delta":209981112},{"NoteNumber":84,"Velocity":68,"Duration":109020,"SoundDuration":109020,"Delta":210080397},{"NoteNumber":83,"Velocity":69,"Duration":107087,"SoundDuration":107087,"Delta":210179683},{"NoteNumber":81,"Velocity":69,"Duration":107087,"SoundDuration":107087,"Delta":210277035},{"NoteNumber":79,"Velocity":71,"Duration":107087,"SoundDuration":107087,"Delta":210374387},{"NoteNumber":55,"Velocity":56,"Duration":389408,"SoundDuration":389408,"Delta":210374387},{"NoteNumber":59,"Velocity":66,"Duration":389408,"SoundDuration":389408,"Delta":210374387},{"NoteNumber":65,"Velocity":66,"Duration":389408,"SoundDuration":389408,"Delta":210374387},{"NoteNumber":81,"Velocity":67,"Duration":107087,"SoundDuration":107087,"Delta":210471739},{"NoteNumber":79,"Velocity":67,"Duration":107087,"SoundDuration":107087,"Delta":210569091},{"NoteNumber":77,"Velocity":67,"Duration":107087,"SoundDuration":107087,"Delta":210666443},{"NoteNumber":76,"Velocity":67,"Duration":108215,"SoundDuration":108215,"Delta":210763795},{"NoteNumber":74,"Velocity":67,"Duration":108632,"SoundDuration":108632,"Delta":210861147},{"NoteNumber":72,"Velocity":71,"Duration":114519,"SoundDuration":114519,"Delta":210969779},{"NoteNumber":64,"Velocity":66,"Duration":405481,"SoundDuration":405481,"Delta":210969779},{"NoteNumber":60,"Velocity":56,"Duration":405481,"SoundDuration":405481,"Delta":210969779},{"NoteNumber":76,"Velocity":64,"Duration":113971,"SoundDuration":113971,"Delta":211073888},{"NoteNumber":74,"Velocity":64,"Duration":108495,"SoundDuration":108495,"Delta":211177997},{"NoteNumber":72,"Velocity":68,"Duration":108367,"SoundDuration":108367,"Delta":211276629},{"NoteNumber":71,"Velocity":64,"Duration":107087,"SoundDuration":107087,"Delta":211375261},{"NoteNumber":69,"Velocity":64,"Duration":107087,"SoundDuration":107087,"Delta":211472613},{"NoteNumber":67,"Velocity":69,"Duration":107087,"SoundDuration":107087,"Delta":211569965},{"NoteNumber":65,"Velocity":66,"Duration":389408,"SoundDuration":389408,"Delta":211569965},{"NoteNumber":59,"Velocity":56,"Duration":389408,"SoundDuration":389408,"Delta":211569965},{"NoteNumber":55,"Velocity":56,"Duration":389408,"SoundDuration":389408,"Delta":211569965},{"NoteNumber":69,"Velocity":63,"Duration":107087,"SoundDuration":107087,"Delta":211667317},{"NoteNumber":67,"Velocity":63,"Duration":107087,"SoundDuration":107087,"Delta":211764669},{"NoteNumber":65,"Velocity":63,"Duration":107087,"SoundDuration":107087,"Delta":211862021},{"NoteNumber":64,"Velocity":63,"Duration":108137,"SoundDuration":108137,"Delta":211959373},{"NoteNumber":62,"Velocity":63,"Duration":107851,"SoundDuration":107851,"Delta":212056725},{"NoteNumber":60,"Velocity":71,"Duration":112183,"SoundDuration":112183,"Delta":212164577},{"NoteNumber":52,"Velocity":66,"Duration":399946,"SoundDuration":399946,"Delta":212164577},{"NoteNumber":48,"Velocity":56,"Duration":399946,"SoundDuration":399946,"Delta":212164577},{"NoteNumber":64,"Velocity":63,"Duration":111784,"SoundDuration":111784,"Delta":212266562},{"NoteNumber":62,"Velocity":63,"Duration":107786,"SoundDuration":107786,"Delta":212368547},{"NoteNumber":60,"Velocity":63,"Duration":107723,"SoundDuration":107723,"Delta":212466535},{"NoteNumber":59,"Velocity":63,"Duration":107087,"SoundDuration":107087,"Delta":212564523},{"NoteNumber":57,"Velocity":64,"Duration":107087,"SoundDuration":107087,"Delta":212661875},{"NoteNumber":55,"Velocity":71,"Duration":107087,"SoundDuration":107087,"Delta":212759227},{"NoteNumber":43,"Velocity":56,"Duration":389408,"SoundDuration":389408,"Delta":212759227},{"NoteNumber":47,"Velocity":56,"Duration":389408,"SoundDuration":389408,"Delta":212759227},{"NoteNumber":53,"Velocity":66,"Duration":389408,"SoundDuration":389408,"Delta":212759227},{"NoteNumber":57,"Velocity":64,"Duration":107087,"SoundDuration":107087,"Delta":212856579},{"NoteNumber":55,"Velocity":64,"Duration":107087,"SoundDuration":107087,"Delta":212953931},{"NoteNumber":53,"Velocity":64,"Duration":107087,"SoundDuration":107087,"Delta":213051283},{"NoteNumber":52,"Velocity":64,"Duration":108137,"SoundDuration":108137,"Delta":213148635},{"NoteNumber":50,"Velocity":64,"Duration":107851,"SoundDuration":107851,"Delta":213245987},{"NoteNumber":48,"Velocity":81,"Duration":100616,"SoundDuration":100616,"Delta":213353839},{"NoteNumber":36,"Velocity":70,"Duration":100616,"SoundDuration":100616,"Delta":213353839},{"NoteNumber":52,"Velocity":70,"Duration":100616,"SoundDuration":100616,"Delta":213555073},{"NoteNumber":40,"Velocity":63,"Duration":100616,"SoundDuration":100616,"Delta":213555073},{"NoteNumber":55,"Velocity":70,"Duration":100616,"SoundDuration":100616,"Delta":213756307},{"NoteNumber":43,"Velocity":63,"Duration":100616,"SoundDuration":100616,"Delta":213756307},{"NoteNumber":60,"Velocity":78,"Duration":100616,"SoundDuration":100616,"Delta":213957541},{"NoteNumber":48,"Velocity":70,"Duration":100616,"SoundDuration":100616,"Delta":213957541},{"NoteNumber":64,"Velocity":70,"Duration":100616,"SoundDuration":100616,"Delta":214158775},{"NoteNumber":52,"Velocity":64,"Duration":100616,"SoundDuration":100616,"Delta":214158775},{"NoteNumber":67,"Velocity":70,"Duration":100616,"SoundDuration":100616,"Delta":214360009},{"NoteNumber":55,"Velocity":64,"Duration":100616,"SoundDuration":100616,"Delta":214360009},{"NoteNumber":72,"Velocity":88,"Duration":205366,"SoundDuration":205366,"Delta":214561243},{"NoteNumber":60,"Velocity":74,"Duration":205366,"SoundDuration":205366,"Delta":214561243},{"NoteNumber":67,"Velocity":69,"Duration":431406,"SoundDuration":431406,"Delta":215177344},{"NoteNumber":72,"Velocity":69,"Duration":431406,"SoundDuration":431406,"Delta":215177344},{"NoteNumber":79,"Velocity":82,"Duration":431406,"SoundDuration":431406,"Delta":215177344},{"NoteNumber":76,"Velocity":69,"Duration":431406,"SoundDuration":431406,"Delta":215177344},{"NoteNumber":52,"Velocity":62,"Duration":431406,"SoundDuration":431406,"Delta":215177344},{"NoteNumber":60,"Velocity":74,"Duration":431406,"SoundDuration":431406,"Delta":215177344},{"NoteNumber":48,"Velocity":62,"Duration":431406,"SoundDuration":431406,"Delta":215177344},{"NoteNumber":55,"Velocity":62,"Duration":431406,"SoundDuration":431406,"Delta":215177344},{"NoteNumber":79,"Velocity":74,"Duration":431406,"SoundDuration":431406,"Delta":215824453},{"NoteNumber":76,"Velocity":74,"Duration":431406,"SoundDuration":431406,"Delta":215824453},{"NoteNumber":84,"Velocity":86,"Duration":431406,"SoundDuration":431406,"Delta":215824453},{"NoteNumber":72,"Velocity":72,"Duration":431406,"SoundDuration":431406,"Delta":215824453},{"NoteNumber":48,"Velocity":62,"Duration":431406,"SoundDuration":431406,"Delta":215824453},{"NoteNumber":52,"Velocity":62,"Duration":431406,"SoundDuration":431406,"Delta":215824453},{"NoteNumber":60,"Velocity":74,"Duration":431406,"SoundDuration":431406,"Delta":215824453},{"NoteNumber":55,"Velocity":62,"Duration":431406,"SoundDuration":431406,"Delta":215824453},{"NoteNumber":48,"Velocity":70,"Duration":385281,"SoundDuration":385281,"Delta":217118671},{"NoteNumber":39,"Velocity":59,"Duration":385281,"SoundDuration":385281,"Delta":217118671},{"NoteNumber":43,"Velocity":59,"Duration":385281,"SoundDuration":385281,"Delta":217118671},{"NoteNumber":36,"Velocity":59,"Duration":385281,"SoundDuration":385281,"Delta":217118671},{"NoteNumber":79,"Velocity":66,"Duration":105952,"SoundDuration":105952,"Delta":217214991},{"NoteNumber":78,"Velocity":68,"Duration":105952,"SoundDuration":105952,"Delta":217311312},{"NoteNumber":79,"Velocity":69,"Duration":105952,"SoundDuration":105952,"Delta":217407632},{"NoteNumber":84,"Velocity":70,"Duration":106272,"SoundDuration":106272,"Delta":217503953},{"NoteNumber":79,"Velocity":63,"Duration":109086,"SoundDuration":109086,"Delta":217600273},{"NoteNumber":77,"Velocity":70,"Duration":105276,"SoundDuration":105276,"Delta":217699789},{"NoteNumber":75,"Velocity":66,"Duration":105276,"SoundDuration":105276,"Delta":217795495},{"NoteNumber":74,"Velocity":64,"Duration":105276,"SoundDuration":105276,"Delta":217891201},{"NoteNumber":75,"Velocity":64,"Duration":105276,"SoundDuration":105276,"Delta":217986907},{"NoteNumber":79,"Velocity":70,"Duration":105591,"SoundDuration":105591,"Delta":218082613},{"NoteNumber":75,"Velocity":64,"Duration":108369,"SoundDuration":108369,"Delta":218178319},{"NoteNumber":74,"Velocity":70,"Duration":104609,"SoundDuration":104609,"Delta":218277179},{"NoteNumber":72,"Velocity":64,"Duration":104609,"SoundDuration":104609,"Delta":218372278},{"NoteNumber":71,"Velocity":64,"Duration":104609,"SoundDuration":104609,"Delta":218467377},{"NoteNumber":72,"Velocity":64,"Duration":104609,"SoundDuration":104609,"Delta":218562477},{"NoteNumber":75,"Velocity":70,"Duration":104985,"SoundDuration":104985,"Delta":218657576},{"NoteNumber":72,"Velocity":65,"Duration":108430,"SoundDuration":108430,"Delta":218752675},{"NoteNumber":68,"Velocity":70,"Duration":105276,"SoundDuration":105276,"Delta":218851535},{"NoteNumber":67,"Velocity":65,"Duration":105276,"SoundDuration":105276,"Delta":218947241},{"NoteNumber":66,"Velocity":65,"Duration":105276,"SoundDuration":105276,"Delta":219042947},{"NoteNumber":67,"Velocity":65,"Duration":105276,"SoundDuration":105276,"Delta":219138653},{"NoteNumber":72,"Velocity":70,"Duration":105791,"SoundDuration":105791,"Delta":219234359},{"NoteNumber":67,"Velocity":65,"Duration":110363,"SoundDuration":110363,"Delta":219330065},{"NoteNumber":65,"Velocity":70,"Duration":104609,"SoundDuration":104609,"Delta":219430919},{"NoteNumber":63,"Velocity":66,"Duration":104985,"SoundDuration":104985,"Delta":219526018},{"NoteNumber":62,"Velocity":66,"Duration":108745,"SoundDuration":108745,"Delta":219621117},{"NoteNumber":63,"Velocity":66,"Duration":108745,"SoundDuration":108745,"Delta":219719977},{"NoteNumber":67,"Velocity":70,"Duration":110982,"SoundDuration":110982,"Delta":219818837},{"NoteNumber":63,"Velocity":64,"Duration":131454,"SoundDuration":131454,"Delta":219917697},{"NoteNumber":60,"Velocity":70,"Duration":102228,"SoundDuration":102228,"Delta":220038928},{"NoteNumber":51,"Velocity":70,"Duration":102228,"SoundDuration":102228,"Delta":220038928},{"NoteNumber":72,"Velocity":64,"Duration":95099,"SoundDuration":95099,"Delta":220141157},{"NoteNumber":59,"Velocity":70,"Duration":95099,"SoundDuration":95099,"Delta":220236256},{"NoteNumber":50,"Velocity":66,"Duration":95099,"SoundDuration":95099,"Delta":220236256},{"NoteNumber":72,"Velocity":64,"Duration":95099,"SoundDuration":95099,"Delta":220331355},{"NoteNumber":60,"Velocity":70,"Duration":95099,"SoundDuration":95099,"Delta":220426455},{"NoteNumber":51,"Velocity":66,"Duration":95099,"SoundDuration":95099,"Delta":220426455},{"NoteNumber":72,"Velocity":64,"Duration":101536,"SoundDuration":101536,"Delta":220521554},{"NoteNumber":62,"Velocity":70,"Duration":95706,"SoundDuration":95706,"Delta":220623090},{"NoteNumber":53,"Velocity":70,"Duration":95706,"SoundDuration":95706,"Delta":220623090},{"NoteNumber":72,"Velocity":64,"Duration":95706,"SoundDuration":95706,"Delta":220718796},{"NoteNumber":60,"Velocity":65,"Duration":95705,"SoundDuration":95705,"Delta":220814502},{"NoteNumber":51,"Velocity":67,"Duration":95705,"SoundDuration":95705,"Delta":220814502},{"NoteNumber":72,"Velocity":58,"Duration":95706,"SoundDuration":95706,"Delta":220910208},{"NoteNumber":62,"Velocity":67,"Duration":95706,"SoundDuration":95706,"Delta":221005914},{"NoteNumber":53,"Velocity":67,"Duration":95706,"SoundDuration":95706,"Delta":221005914},{"NoteNumber":72,"Velocity":61,"Duration":100853,"SoundDuration":100853,"Delta":221101620},{"NoteNumber":64,"Velocity":70,"Duration":95099,"SoundDuration":95099,"Delta":221202474},{"NoteNumber":55,"Velocity":70,"Duration":95099,"SoundDuration":95099,"Delta":221202474},{"NoteNumber":72,"Velocity":60,"Duration":95099,"SoundDuration":95099,"Delta":221297574},{"NoteNumber":62,"Velocity":66,"Duration":95099,"SoundDuration":95099,"Delta":221392673},{"NoteNumber":53,"Velocity":67,"Duration":95099,"SoundDuration":95099,"Delta":221392673},{"NoteNumber":72,"Velocity":62,"Duration":95099,"SoundDuration":95099,"Delta":221487772},{"NoteNumber":64,"Velocity":67,"Duration":95099,"SoundDuration":95099,"Delta":221582871},{"NoteNumber":55,"Velocity":67,"Duration":95099,"SoundDuration":95099,"Delta":221582871},{"NoteNumber":72,"Velocity":62,"Duration":114740,"SoundDuration":114740,"Delta":221677971},{"NoteNumber":65,"Velocity":74,"Duration":96320,"SoundDuration":96320,"Delta":221792711},{"NoteNumber":56,"Velocity":74,"Duration":385281,"SoundDuration":385281,"Delta":221792711},{"NoteNumber":72,"Velocity":61,"Duration":96320,"SoundDuration":96320,"Delta":221889031},{"NoteNumber":65,"Velocity":65,"Duration":96320,"SoundDuration":96320,"Delta":221985352},{"NoteNumber":72,"Velocity":61,"Duration":96320,"SoundDuration":96320,"Delta":222081672},{"NoteNumber":63,"Velocity":65,"Duration":96320,"SoundDuration":96320,"Delta":222177993},{"NoteNumber":55,"Velocity":67,"Duration":96320,"SoundDuration":96320,"Delta":222177993},{"NoteNumber":72,"Velocity":60,"Duration":103641,"SoundDuration":103641,"Delta":222274313},{"NoteNumber":65,"Velocity":70,"Duration":95706,"SoundDuration":95706,"Delta":222377955},{"NoteNumber":56,"Velocity":74,"Duration":382823,"SoundDuration":382823,"Delta":222377955},{"NoteNumber":72,"Velocity":60,"Duration":95706,"SoundDuration":95706,"Delta":222473661},{"NoteNumber":65,"Velocity":65,"Duration":95705,"SoundDuration":95705,"Delta":222569367},{"NoteNumber":72,"Velocity":60,"Duration":95706,"SoundDuration":95706,"Delta":222665073},{"NoteNumber":63,"Velocity":65,"Duration":95706,"SoundDuration":95706,"Delta":222760779},{"NoteNumber":55,"Velocity":66,"Duration":95706,"SoundDuration":95706,"Delta":222760779},{"NoteNumber":72,"Velocity":54,"Duration":102929,"SoundDuration":102929,"Delta":222856485},{"NoteNumber":62,"Velocity":49,"Duration":199387,"SoundDuration":199387,"Delta":222959415},{"NoteNumber":54,"Velocity":44,"Duration":199387,"SoundDuration":199387,"Delta":222959415},{"NoteNumber":72,"Velocity":43,"Duration":95706,"SoundDuration":95706,"Delta":223055121},{"NoteNumber":63,"Velocity":52,"Duration":191411,"SoundDuration":191411,"Delta":223150827},{"NoteNumber":55,"Velocity":38,"Duration":191411,"SoundDuration":191411,"Delta":223150827},{"NoteNumber":72,"Velocity":45,"Duration":95706,"SoundDuration":95706,"Delta":223246533},{"NoteNumber":62,"Velocity":55,"Duration":199387,"SoundDuration":199387,"Delta":223342239},{"NoteNumber":54,"Velocity":55,"Duration":199387,"SoundDuration":199387,"Delta":223342239},{"NoteNumber":72,"Velocity":52,"Duration":95706,"SoundDuration":95706,"Delta":223437945},{"NoteNumber":63,"Velocity":59,"Duration":197691,"SoundDuration":197691,"Delta":223533651},{"NoteNumber":55,"Velocity":60,"Duration":197691,"SoundDuration":197691,"Delta":223533651},{"NoteNumber":72,"Velocity":59,"Duration":101985,"SoundDuration":101985,"Delta":223629357},{"NoteNumber":65,"Velocity":66,"Duration":198943,"SoundDuration":198943,"Delta":223731342},{"NoteNumber":56,"Velocity":63,"Duration":198943,"SoundDuration":198943,"Delta":223731342},{"NoteNumber":72,"Velocity":55,"Duration":95492,"SoundDuration":95492,"Delta":223826835},{"NoteNumber":63,"Velocity":52,"Duration":199133,"SoundDuration":199133,"Delta":223922327},{"NoteNumber":55,"Velocity":47,"Duration":199133,"SoundDuration":199133,"Delta":223922327},{"NoteNumber":72,"Velocity":43,"Duration":103641,"SoundDuration":103641,"Delta":224017820},{"NoteNumber":62,"Velocity":50,"Duration":198943,"SoundDuration":198943,"Delta":224121461},{"NoteNumber":54,"Velocity":47,"Duration":198943,"SoundDuration":198943,"Delta":224121461},{"NoteNumber":72,"Velocity":44,"Duration":95492,"SoundDuration":95492,"Delta":224216954},{"NoteNumber":63,"Velocity":54,"Duration":190985,"SoundDuration":190985,"Delta":224312447},{"NoteNumber":55,"Velocity":42,"Duration":190985,"SoundDuration":190985,"Delta":224312447},{"NoteNumber":72,"Velocity":49,"Duration":95492,"SoundDuration":95492,"Delta":224407940},{"NoteNumber":62,"Velocity":57,"Duration":198943,"SoundDuration":198943,"Delta":224503432},{"NoteNumber":54,"Velocity":59,"Duration":198943,"SoundDuration":198943,"Delta":224503432},{"NoteNumber":72,"Velocity":53,"Duration":95492,"SoundDuration":95492,"Delta":224598925},{"NoteNumber":63,"Velocity":59,"Duration":196789,"SoundDuration":196789,"Delta":224694418},{"NoteNumber":55,"Velocity":53,"Duration":196789,"SoundDuration":196789,"Delta":224694418},{"NoteNumber":72,"Velocity":55,"Duration":101296,"SoundDuration":101296,"Delta":224789911},{"NoteNumber":65,"Velocity":64,"Duration":198943,"SoundDuration":198943,"Delta":224891207},{"NoteNumber":56,"Velocity":64,"Duration":198943,"SoundDuration":198943,"Delta":224891207},{"NoteNumber":72,"Velocity":54,"Duration":95492,"SoundDuration":95492,"Delta":224986700},{"NoteNumber":63,"Velocity":56,"Duration":199133,"SoundDuration":199133,"Delta":225082193},{"NoteNumber":55,"Velocity":41,"Duration":199133,"SoundDuration":199133,"Delta":225082193},{"NoteNumber":72,"Velocity":43,"Duration":103641,"SoundDuration":103641,"Delta":225177685},{"NoteNumber":62,"Velocity":60,"Duration":77730,"SoundDuration":77730,"Delta":225281327},{"NoteNumber":54,"Velocity":42,"Duration":97987,"SoundDuration":97987,"Delta":225384968},{"NoteNumber":57,"Velocity":44,"Duration":97988,"SoundDuration":97988,"Delta":225482956},{"NoteNumber":60,"Velocity":46,"Duration":97987,"SoundDuration":97987,"Delta":225580944},{"NoteNumber":62,"Velocity":48,"Duration":103391,"SoundDuration":103391,"Delta":225678932},{"NoteNumber":66,"Velocity":51,"Duration":97987,"SoundDuration":97987,"Delta":225782323},{"NoteNumber":72,"Velocity":55,"Duration":77543,"SoundDuration":77543,"Delta":225880311},{"NoteNumber":62,"Velocity":48,"Duration":97352,"SoundDuration":97352,"Delta":225983702},{"NoteNumber":66,"Velocity":51,"Duration":97352,"SoundDuration":97352,"Delta":226081054},{"NoteNumber":69,"Velocity":53,"Duration":97352,"SoundDuration":97352,"Delta":226178406},{"NoteNumber":72,"Velocity":56,"Duration":77012,"SoundDuration":77012,"Delta":226275758},{"NoteNumber":78,"Velocity":53,"Duration":97352,"SoundDuration":97352,"Delta":226378442},{"NoteNumber":84,"Velocity":62,"Duration":97352,"SoundDuration":97352,"Delta":226475794},{"NoteNumber":82,"Velocity":61,"Duration":97352,"SoundDuration":97352,"Delta":226573146},{"NoteNumber":81,"Velocity":60,"Duration":97352,"SoundDuration":97352,"Delta":226670498},{"NoteNumber":79,"Velocity":59,"Duration":97352,"SoundDuration":97352,"Delta":226767850},{"NoteNumber":78,"Velocity":58,"Duration":97352,"SoundDuration":97352,"Delta":226865202},{"NoteNumber":79,"Velocity":55,"Duration":97352,"SoundDuration":97352,"Delta":226962554},{"NoteNumber":78,"Velocity":59,"Duration":97352,"SoundDuration":97352,"Delta":227059906},{"NoteNumber":79,"Velocity":55,"Duration":101985,"SoundDuration":101985,"Delta":227157258},{"NoteNumber":78,"Velocity":58,"Duration":97352,"SoundDuration":97352,"Delta":227259243},{"NoteNumber":75,"Velocity":57,"Duration":97352,"SoundDuration":97352,"Delta":227356595},{"NoteNumber":74,"Velocity":56,"Duration":97352,"SoundDuration":97352,"Delta":227453947},{"NoteNumber":72,"Velocity":55,"Duration":97352,"SoundDuration":97352,"Delta":227551299},{"NoteNumber":71,"Velocity":49,"Duration":199387,"SoundDuration":199387,"Delta":227648651},{"NoteNumber":55,"Velocity":44,"Duration":199387,"SoundDuration":199387,"Delta":227648651},{"NoteNumber":77,"Velocity":43,"Duration":95706,"SoundDuration":95706,"Delta":227744357},{"NoteNumber":72,"Velocity":52,"Duration":191411,"SoundDuration":191411,"Delta":227840063},{"NoteNumber":56,"Velocity":38,"Duration":191411,"SoundDuration":191411,"Delta":227840063},{"NoteNumber":77,"Velocity":45,"Duration":95706,"SoundDuration":95706,"Delta":227935769},{"NoteNumber":71,"Velocity":55,"Duration":199387,"SoundDuration":199387,"Delta":228031475},{"NoteNumber":55,"Velocity":55,"Duration":199387,"SoundDuration":199387,"Delta":228031475},{"NoteNumber":77,"Velocity":52,"Duration":95706,"SoundDuration":95706,"Delta":228127181},{"NoteNumber":72,"Velocity":62,"Duration":197691,"SoundDuration":197691,"Delta":228222887},{"NoteNumber":56,"Velocity":55,"Duration":197691,"SoundDuration":197691,"Delta":228222887},{"NoteNumber":77,"Velocity":60,"Duration":101985,"SoundDuration":101985,"Delta":228318593},{"NoteNumber":73,"Velocity":67,"Duration":198943,"SoundDuration":198943,"Delta":228420578},{"NoteNumber":58,"Velocity":63,"Duration":198943,"SoundDuration":198943,"Delta":228420578},{"NoteNumber":77,"Velocity":55,"Duration":95492,"SoundDuration":95492,"Delta":228516071},{"NoteNumber":72,"Velocity":52,"Duration":199133,"SoundDuration":199133,"Delta":228611564},{"NoteNumber":56,"Velocity":47,"Duration":199133,"SoundDuration":199133,"Delta":228611564},{"NoteNumber":77,"Velocity":43,"Duration":103641,"SoundDuration":103641,"Delta":228707057},{"NoteNumber":71,"Velocity":50,"Duration":198943,"SoundDuration":198943,"Delta":228810698},{"NoteNumber":55,"Velocity":47,"Duration":198943,"SoundDuration":198943,"Delta":228810698},{"NoteNumber":77,"Velocity":44,"Duration":95492,"SoundDuration":95492,"Delta":228906191},{"NoteNumber":72,"Velocity":54,"Duration":190985,"SoundDuration":190985,"Delta":229001683},{"NoteNumber":56,"Velocity":42,"Duration":190985,"SoundDuration":190985,"Delta":229001683},{"NoteNumber":77,"Velocity":49,"Duration":95492,"SoundDuration":95492,"Delta":229097176},{"NoteNumber":71,"Velocity":57,"Duration":198943,"SoundDuration":198943,"Delta":229192669},{"NoteNumber":55,"Velocity":59,"Duration":198943,"SoundDuration":198943,"Delta":229192669},{"NoteNumber":77,"Velocity":53,"Duration":95492,"SoundDuration":95492,"Delta":229288162},{"NoteNumber":72,"Velocity":63,"Duration":196789,"SoundDuration":196789,"Delta":229383654},{"NoteNumber":56,"Velocity":53,"Duration":196789,"SoundDuration":196789,"Delta":229383654},{"NoteNumber":77,"Velocity":55,"Duration":101296,"SoundDuration":101296,"Delta":229479147},{"NoteNumber":73,"Velocity":68,"Duration":198943,"SoundDuration":198943,"Delta":229580444},{"NoteNumber":58,"Velocity":64,"Duration":198943,"SoundDuration":198943,"Delta":229580444},{"NoteNumber":77,"Velocity":54,"Duration":95492,"SoundDuration":95492,"Delta":229675936},{"NoteNumber":72,"Velocity":56,"Duration":199133,"SoundDuration":199133,"Delta":229771429},{"NoteNumber":56,"Velocity":41,"Duration":199133,"SoundDuration":199133,"Delta":229771429},{"NoteNumber":77,"Velocity":43,"Duration":103641,"SoundDuration":103641,"Delta":229866922},{"NoteNumber":71,"Velocity":60,"Duration":77730,"SoundDuration":77730,"Delta":229970563},{"NoteNumber":55,"Velocity":42,"Duration":97987,"SoundDuration":97987,"Delta":230074204},{"NoteNumber":59,"Velocity":44,"Duration":97988,"SoundDuration":97988,"Delta":230172192},{"NoteNumber":62,"Velocity":46,"Duration":97987,"SoundDuration":97987,"Delta":230270180},{"NoteNumber":65,"Velocity":48,"Duration":103391,"SoundDuration":103391,"Delta":230368168},{"NoteNumber":71,"Velocity":51,"Duration":97987,"SoundDuration":97987,"Delta":230471560},{"NoteNumber":77,"Velocity":55,"Duration":77543,"SoundDuration":77543,"Delta":230569548},{"NoteNumber":67,"Velocity":48,"Duration":97352,"SoundDuration":97352,"Delta":230672939},{"NoteNumber":71,"Velocity":51,"Duration":97352,"SoundDuration":97352,"Delta":230770291},{"NoteNumber":74,"Velocity":53,"Duration":97352,"SoundDuration":97352,"Delta":230867643},{"NoteNumber":77,"Velocity":56,"Duration":77012,"SoundDuration":77012,"Delta":230964995},{"NoteNumber":83,"Velocity":53,"Duration":97352,"SoundDuration":97352,"Delta":231067678},{"NoteNumber":89,"Velocity":62,"Duration":97352,"SoundDuration":97352,"Delta":231165030},{"NoteNumber":87,"Velocity":61,"Duration":97352,"SoundDuration":97352,"Delta":231262382},{"NoteNumber":86,"Velocity":60,"Duration":97352,"SoundDuration":97352,"Delta":231359734},{"NoteNumber":84,"Velocity":59,"Duration":97352,"SoundDuration":97352,"Delta":231457086},{"NoteNumber":83,"Velocity":58,"Duration":97352,"SoundDuration":97352,"Delta":231554438},{"NoteNumber":80,"Velocity":55,"Duration":97352,"SoundDuration":97352,"Delta":231651790},{"NoteNumber":79,"Velocity":59,"Duration":97352,"SoundDuration":97352,"Delta":231749142},{"NoteNumber":78,"Velocity":55,"Duration":101985,"SoundDuration":101985,"Delta":231846494},{"NoteNumber":79,"Velocity":58,"Duration":97352,"SoundDuration":97352,"Delta":231948480},{"NoteNumber":80,"Velocity":57,"Duration":97352,"SoundDuration":97352,"Delta":232045832},{"NoteNumber":79,"Velocity":56,"Duration":97352,"SoundDuration":97352,"Delta":232143184},{"NoteNumber":77,"Velocity":55,"Duration":97352,"SoundDuration":97352,"Delta":232240536},{"NoteNumber":76,"Velocity":49,"Duration":199387,"SoundDuration":199387,"Delta":232337888},{"NoteNumber":60,"Velocity":44,"Duration":199387,"SoundDuration":199387,"Delta":232337888},{"NoteNumber":67,"Velocity":43,"Duration":95706,"SoundDuration":95706,"Delta":232433594},{"NoteNumber":77,"Velocity":52,"Duration":191411,"SoundDuration":191411,"Delta":232529300},{"NoteNumber":59,"Velocity":38,"Duration":191411,"SoundDuration":191411,"Delta":232529300},{"NoteNumber":67,"Velocity":45,"Duration":95706,"SoundDuration":95706,"Delta":232625006},{"NoteNumber":76,"Velocity":55,"Duration":199387,"SoundDuration":199387,"Delta":232720712},{"NoteNumber":60,"Velocity":45,"Duration":199387,"SoundDuration":199387,"Delta":232720712},{"NoteNumber":67,"Velocity":52,"Duration":95706,"SoundDuration":95706,"Delta":232816418},{"NoteNumber":77,"Velocity":59,"Duration":197691,"SoundDuration":197691,"Delta":232912124},{"NoteNumber":61,"Velocity":54,"Duration":197691,"SoundDuration":197691,"Delta":232912124},{"NoteNumber":67,"Velocity":53,"Duration":101985,"SoundDuration":101985,"Delta":233007830},{"NoteNumber":76,"Velocity":59,"Duration":198943,"SoundDuration":198943,"Delta":233109815},{"NoteNumber":60,"Velocity":49,"Duration":198943,"SoundDuration":198943,"Delta":233109815},{"NoteNumber":67,"Velocity":55,"Duration":95492,"SoundDuration":95492,"Delta":233205308},{"NoteNumber":77,"Velocity":52,"Duration":199133,"SoundDuration":199133,"Delta":233300800},{"NoteNumber":59,"Velocity":44,"Duration":199133,"SoundDuration":199133,"Delta":233300800},{"NoteNumber":67,"Velocity":43,"Duration":103641,"SoundDuration":103641,"Delta":233396293},{"NoteNumber":76,"Velocity":50,"Duration":198943,"SoundDuration":198943,"Delta":233499934},{"NoteNumber":60,"Velocity":47,"Duration":198943,"SoundDuration":198943,"Delta":233499934},{"NoteNumber":67,"Velocity":44,"Duration":95492,"SoundDuration":95492,"Delta":233595427},{"NoteNumber":77,"Velocity":54,"Duration":190985,"SoundDuration":190985,"Delta":233690920},{"NoteNumber":59,"Velocity":42,"Duration":190985,"SoundDuration":190985,"Delta":233690920},{"NoteNumber":67,"Velocity":49,"Duration":95492,"SoundDuration":95492,"Delta":233786413},{"NoteNumber":76,"Velocity":57,"Duration":198943,"SoundDuration":198943,"Delta":233881905},{"NoteNumber":60,"Velocity":48,"Duration":198943,"SoundDuration":198943,"Delta":233881905},{"NoteNumber":67,"Velocity":53,"Duration":95492,"SoundDuration":95492,"Delta":233977398},{"NoteNumber":77,"Velocity":61,"Duration":196789,"SoundDuration":196789,"Delta":234072891},{"NoteNumber":61,"Velocity":51,"Duration":196789,"SoundDuration":196789,"Delta":234072891},{"NoteNumber":67,"Velocity":55,"Duration":101296,"SoundDuration":101296,"Delta":234168384},{"NoteNumber":76,"Velocity":60,"Duration":198943,"SoundDuration":198943,"Delta":234269680},{"NoteNumber":60,"Velocity":46,"Duration":198943,"SoundDuration":198943,"Delta":234269680},{"NoteNumber":67,"Velocity":50,"Duration":95492,"SoundDuration":95492,"Delta":234365173},{"NoteNumber":77,"Velocity":56,"Duration":199133,"SoundDuration":199133,"Delta":234460666},{"NoteNumber":59,"Velocity":41,"Duration":199133,"SoundDuration":199133,"Delta":234460666},{"NoteNumber":67,"Velocity":43,"Duration":103641,"SoundDuration":103641,"Delta":234556158},{"NoteNumber":76,"Velocity":60,"Duration":77730,"SoundDuration":77730,"Delta":234659800},{"NoteNumber":48,"Velocity":42,"Duration":97987,"SoundDuration":97987,"Delta":234763441},{"NoteNumber":52,"Velocity":44,"Duration":97988,"SoundDuration":97988,"Delta":234861429},{"NoteNumber":55,"Velocity":46,"Duration":97987,"SoundDuration":97987,"Delta":234959417},{"NoteNumber":58,"Velocity":48,"Duration":103391,"SoundDuration":103391,"Delta":235057405},{"NoteNumber":64,"Velocity":51,"Duration":97987,"SoundDuration":97987,"Delta":235160796},{"NoteNumber":70,"Velocity":55,"Duration":77543,"SoundDuration":77543,"Delta":235258784},{"NoteNumber":60,"Velocity":48,"Duration":97352,"SoundDuration":97352,"Delta":235362175},{"NoteNumber":64,"Velocity":51,"Duration":97352,"SoundDuration":97352,"Delta":235459527},{"NoteNumber":67,"Velocity":53,"Duration":97352,"SoundDuration":97352,"Delta":235556879},{"NoteNumber":70,"Velocity":56,"Duration":77012,"SoundDuration":77012,"Delta":235654231},{"NoteNumber":76,"Velocity":53,"Duration":97352,"SoundDuration":97352,"Delta":235756915},{"NoteNumber":82,"Velocity":62,"Duration":97352,"SoundDuration":97352,"Delta":235854267},{"NoteNumber":81,"Velocity":61,"Duration":97352,"SoundDuration":97352,"Delta":235951619},{"NoteNumber":79,"Velocity":60,"Duration":97352,"SoundDuration":97352,"Delta":236048971},{"NoteNumber":77,"Velocity":59,"Duration":97352,"SoundDuration":97352,"Delta":236146323},{"NoteNumber":76,"Velocity":58,"Duration":97352,"SoundDuration":97352,"Delta":236243675},{"NoteNumber":74,"Velocity":55,"Duration":97352,"SoundDuration":97352,"Delta":236341027},{"NoteNumber":72,"Velocity":59,"Duration":97352,"SoundDuration":97352,"Delta":236438379},{"NoteNumber":74,"Velocity":55,"Duration":101985,"SoundDuration":101985,"Delta":236535731},{"NoteNumber":72,"Velocity":58,"Duration":97352,"SoundDuration":97352,"Delta":236637716},{"NoteNumber":70,"Velocity":57,"Duration":97352,"SoundDuration":97352,"Delta":236735068},{"NoteNumber":69,"Velocity":56,"Duration":97352,"SoundDuration":97352,"Delta":236832420},{"NoteNumber":67,"Velocity":55,"Duration":97352,"SoundDuration":97352,"Delta":236929772},{"NoteNumber":65,"Velocity":49,"Duration":199387,"SoundDuration":199387,"Delta":237027124},{"NoteNumber":57,"Velocity":44,"Duration":199387,"SoundDuration":199387,"Delta":237027124},{"NoteNumber":75,"Velocity":43,"Duration":95706,"SoundDuration":95706,"Delta":237122830},{"NoteNumber":66,"Velocity":52,"Duration":191411,"SoundDuration":191411,"Delta":237218536},{"NoteNumber":58,"Velocity":38,"Duration":191411,"SoundDuration":191411,"Delta":237218536},{"NoteNumber":75,"Velocity":45,"Duration":95706,"SoundDuration":95706,"Delta":237314242},{"NoteNumber":65,"Velocity":55,"Duration":199387,"SoundDuration":199387,"Delta":237409948},{"NoteNumber":57,"Velocity":55,"Duration":199387,"SoundDuration":199387,"Delta":237409948},{"NoteNumber":75,"Velocity":52,"Duration":95706,"SoundDuration":95706,"Delta":237505654},{"NoteNumber":66,"Velocity":62,"Duration":197691,"SoundDuration":197691,"Delta":237601360},{"NoteNumber":58,"Velocity":55,"Duration":197691,"SoundDuration":197691,"Delta":237601360},{"NoteNumber":75,"Velocity":56,"Duration":101985,"SoundDuration":101985,"Delta":237697066},{"NoteNumber":68,"Velocity":65,"Duration":198943,"SoundDuration":198943,"Delta":237799051},{"NoteNumber":59,"Velocity":63,"Duration":198943,"SoundDuration":198943,"Delta":237799051},{"NoteNumber":75,"Velocity":55,"Duration":95492,"SoundDuration":95492,"Delta":237894544},{"NoteNumber":66,"Velocity":52,"Duration":199133,"SoundDuration":199133,"Delta":237990037},{"NoteNumber":58,"Velocity":47,"Duration":199133,"SoundDuration":199133,"Delta":237990037},{"NoteNumber":75,"Velocity":43,"Duration":103641,"SoundDuration":103641,"Delta":238085530},{"NoteNumber":65,"Velocity":50,"Duration":198943,"SoundDuration":198943,"Delta":238189171},{"NoteNumber":57,"Velocity":47,"Duration":198943,"SoundDuration":198943,"Delta":238189171},{"NoteNumber":75,"Velocity":44,"Duration":95492,"SoundDuration":95492,"Delta":238284664},{"NoteNumber":66,"Velocity":54,"Duration":190985,"SoundDuration":190985,"Delta":238380156},{"NoteNumber":58,"Velocity":42,"Duration":190985,"SoundDuration":190985,"Delta":238380156},{"NoteNumber":75,"Velocity":49,"Duration":95492,"SoundDuration":95492,"Delta":238475649},{"NoteNumber":65,"Velocity":57,"Duration":198943,"SoundDuration":198943,"Delta":238571142},{"NoteNumber":57,"Velocity":59,"Duration":198943,"SoundDuration":198943,"Delta":238571142},{"NoteNumber":75,"Velocity":53,"Duration":95492,"SoundDuration":95492,"Delta":238666635},{"NoteNumber":66,"Velocity":63,"Duration":196789,"SoundDuration":196789,"Delta":238762127},{"NoteNumber":58,"Velocity":53,"Duration":196789,"SoundDuration":196789,"Delta":238762127},{"NoteNumber":75,"Velocity":55,"Duration":101296,"SoundDuration":101296,"Delta":238857620},{"NoteNumber":68,"Velocity":66,"Duration":198943,"SoundDuration":198943,"Delta":238958917},{"NoteNumber":59,"Velocity":64,"Duration":198943,"SoundDuration":198943,"Delta":238958917},{"NoteNumber":75,"Velocity":54,"Duration":95492,"SoundDuration":95492,"Delta":239054409},{"NoteNumber":66,"Velocity":56,"Duration":199133,"SoundDuration":199133,"Delta":239149902},{"NoteNumber":58,"Velocity":41,"Duration":199133,"SoundDuration":199133,"Delta":239149902},{"NoteNumber":75,"Velocity":43,"Duration":103641,"SoundDuration":103641,"Delta":239245395},{"NoteNumber":65,"Velocity":60,"Duration":77730,"SoundDuration":77730,"Delta":239349036},{"NoteNumber":57,"Velocity":42,"Duration":97987,"SoundDuration":97987,"Delta":239452677},{"NoteNumber":60,"Velocity":44,"Duration":97988,"SoundDuration":97988,"Delta":239550665},{"NoteNumber":63,"Velocity":46,"Duration":97987,"SoundDuration":97987,"Delta":239648653},{"NoteNumber":65,"Velocity":48,"Duration":103391,"SoundDuration":103391,"Delta":239746641},{"NoteNumber":69,"Velocity":51,"Duration":97987,"SoundDuration":97987,"Delta":239850033},{"NoteNumber":75,"Velocity":55,"Duration":77543,"SoundDuration":77543,"Delta":239948021},{"NoteNumber":65,"Velocity":48,"Duration":97352,"SoundDuration":97352,"Delta":240051412},{"NoteNumber":69,"Velocity":51,"Duration":97352,"SoundDuration":97352,"Delta":240148764},{"NoteNumber":72,"Velocity":53,"Duration":97352,"SoundDuration":97352,"Delta":240246116},{"NoteNumber":75,"Velocity":56,"Duration":77012,"SoundDuration":77012,"Delta":240343468},{"NoteNumber":81,"Velocity":53,"Duration":97352,"SoundDuration":97352,"Delta":240446151},{"NoteNumber":87,"Velocity":62,"Duration":97352,"SoundDuration":97352,"Delta":240543503},{"NoteNumber":86,"Velocity":61,"Duration":97352,"SoundDuration":97352,"Delta":240640855},{"NoteNumber":84,"Velocity":60,"Duration":97352,"SoundDuration":97352,"Delta":240738207},{"NoteNumber":82,"Velocity":59,"Duration":97352,"SoundDuration":97352,"Delta":240835559},{"NoteNumber":81,"Velocity":58,"Duration":97352,"SoundDuration":97352,"Delta":240932911},{"NoteNumber":79,"Velocity":55,"Duration":97352,"SoundDuration":97352,"Delta":241030263},{"NoteNumber":77,"Velocity":59,"Duration":97352,"SoundDuration":97352,"Delta":241127615},{"NoteNumber":79,"Velocity":55,"Duration":101985,"SoundDuration":101985,"Delta":241224967},{"NoteNumber":77,"Velocity":56,"Duration":97352,"SoundDuration":97352,"Delta":241326953},{"NoteNumber":75,"Velocity":54,"Duration":97352,"SoundDuration":97352,"Delta":241424305},{"NoteNumber":74,"Velocity":52,"Duration":97352,"SoundDuration":97352,"Delta":241521657},{"NoteNumber":72,"Velocity":50,"Duration":114433,"SoundDuration":114433,"Delta":241619009},{"NoteNumber":74,"Velocity":54,"Duration":194704,"SoundDuration":194704,"Delta":241733443},{"NoteNumber":58,"Velocity":29,"Duration":194704,"SoundDuration":194704,"Delta":241733443},{"NoteNumber":62,"Velocity":25,"Duration":194704,"SoundDuration":194704,"Delta":241928147},{"NoteNumber":74,"Velocity":42,"Duration":194704,"SoundDuration":194704,"Delta":242122851},{"NoteNumber":65,"Velocity":25,"Duration":194704,"SoundDuration":194704,"Delta":242122851},{"NoteNumber":72,"Velocity":46,"Duration":194704,"SoundDuration":194704,"Delta":242317555},{"NoteNumber":57,"Velocity":30,"Duration":194704,"SoundDuration":194704,"Delta":242317555},{"NoteNumber":60,"Velocity":26,"Duration":194704,"SoundDuration":194704,"Delta":242512259},{"NoteNumber":72,"Velocity":45,"Duration":200743,"SoundDuration":200743,"Delta":242706963},{"NoteNumber":65,"Velocity":26,"Duration":200743,"SoundDuration":200743,"Delta":242706963},{"NoteNumber":75,"Velocity":52,"Duration":966686,"SoundDuration":966686,"Delta":242907706},{"NoteNumber":55,"Velocity":30,"Duration":194704,"SoundDuration":194704,"Delta":242907706},{"NoteNumber":58,"Velocity":27,"Duration":194704,"SoundDuration":194704,"Delta":243102410},{"NoteNumber":63,"Velocity":27,"Duration":190985,"SoundDuration":190985,"Delta":243297114},{"NoteNumber":54,"Velocity":29,"Duration":192844,"SoundDuration":192844,"Delta":243488099},{"NoteNumber":57,"Velocity":25,"Duration":193448,"SoundDuration":193448,"Delta":243680944},{"NoteNumber":74,"Velocity":42,"Duration":198020,"SoundDuration":198020,"Delta":243874393},{"NoteNumber":62,"Velocity":25,"Duration":198020,"SoundDuration":198020,"Delta":243874393},{"NoteNumber":75,"Velocity":46,"Duration":194704,"SoundDuration":194704,"Delta":244072413},{"NoteNumber":55,"Velocity":32,"Duration":194704,"SoundDuration":194704,"Delta":244072413},{"NoteNumber":58,"Velocity":25,"Duration":193448,"SoundDuration":193448,"Delta":244267117},{"NoteNumber":75,"Velocity":42,"Duration":195356,"SoundDuration":195356,"Delta":244460566},{"NoteNumber":63,"Velocity":25,"Duration":195356,"SoundDuration":195356,"Delta":244460566},{"NoteNumber":74,"Velocity":43,"Duration":194704,"SoundDuration":194704,"Delta":244655922},{"NoteNumber":53,"Velocity":31,"Duration":194704,"SoundDuration":194704,"Delta":244655922},{"NoteNumber":57,"Velocity":27,"Duration":194704,"SoundDuration":194704,"Delta":244850626},{"NoteNumber":74,"Velocity":43,"Duration":197969,"SoundDuration":197969,"Delta":245045330},{"NoteNumber":62,"Velocity":27,"Duration":197969,"SoundDuration":197969,"Delta":245045330},{"NoteNumber":79,"Velocity":52,"Duration":974859,"SoundDuration":974859,"Delta":245243299},{"NoteNumber":51,"Velocity":37,"Duration":194704,"SoundDuration":194704,"Delta":245243299},{"NoteNumber":55,"Velocity":32,"Duration":193448,"SoundDuration":193448,"Delta":245438003},{"NoteNumber":60,"Velocity":32,"Duration":197298,"SoundDuration":197298,"Delta":245631452},{"NoteNumber":50,"Velocity":34,"Duration":194704,"SoundDuration":194704,"Delta":245828751},{"NoteNumber":53,"Velocity":28,"Duration":194704,"SoundDuration":194704,"Delta":246023455},{"NoteNumber":77,"Velocity":44,"Duration":199337,"SoundDuration":199337,"Delta":246218159},{"NoteNumber":58,"Velocity":24,"Duration":199337,"SoundDuration":199337,"Delta":246218159},{"NoteNumber":77,"Velocity":47,"Duration":196670,"SoundDuration":196670,"Delta":246417496},{"NoteNumber":48,"Velocity":32,"Duration":196670,"SoundDuration":196670,"Delta":246417496},{"NoteNumber":76,"Velocity":44,"Duration":195976,"SoundDuration":195976,"Delta":246614167},{"NoteNumber":55,"Velocity":27,"Duration":195976,"SoundDuration":195976,"Delta":246614167},{"NoteNumber":72,"Velocity":48,"Duration":391952,"SoundDuration":391952,"Delta":246810143},{"NoteNumber":58,"Velocity":27,"Duration":195976,"SoundDuration":195976,"Delta":246810143},{"NoteNumber":53,"Velocity":33,"Duration":195976,"SoundDuration":195976,"Delta":247006119},{"NoteNumber":74,"Velocity":45,"Duration":192208,"SoundDuration":192208,"Delta":247202095},{"NoteNumber":57,"Velocity":29,"Duration":192208,"SoundDuration":192208,"Delta":247202095},{"NoteNumber":75,"Velocity":45,"Duration":194024,"SoundDuration":194024,"Delta":247394304},{"NoteNumber":60,"Velocity":29,"Duration":197400,"SoundDuration":197400,"Delta":247394304},{"NoteNumber":75,"Velocity":45,"Duration":195976,"SoundDuration":195976,"Delta":247591705},{"NoteNumber":46,"Velocity":36,"Duration":195976,"SoundDuration":195976,"Delta":247591705},{"NoteNumber":74,"Velocity":42,"Duration":195976,"SoundDuration":195976,"Delta":247787681},{"NoteNumber":53,"Velocity":31,"Duration":195976,"SoundDuration":195976,"Delta":247787681},{"NoteNumber":70,"Velocity":46,"Duration":394580,"SoundDuration":394580,"Delta":247983657},{"NoteNumber":58,"Velocity":29,"Duration":195976,"SoundDuration":195976,"Delta":247983657},{"NoteNumber":54,"Velocity":33,"Duration":198604,"SoundDuration":198604,"Delta":248179633},{"NoteNumber":72,"Velocity":46,"Duration":202096,"SoundDuration":202096,"Delta":248378238},{"NoteNumber":58,"Velocity":33,"Duration":202096,"SoundDuration":202096,"Delta":248378238},{"NoteNumber":73,"Velocity":51,"Duration":397355,"SoundDuration":397355,"Delta":248580335},{"NoteNumber":61,"Velocity":33,"Duration":195976,"SoundDuration":195976,"Delta":248580335},{"NoteNumber":51,"Velocity":39,"Duration":201379,"SoundDuration":201379,"Delta":248776311},{"NoteNumber":72,"Velocity":51,"Duration":195976,"SoundDuration":195976,"Delta":248977690},{"NoteNumber":54,"Velocity":35,"Duration":195976,"SoundDuration":195976,"Delta":248977690},{"NoteNumber":73,"Velocity":55,"Duration":391952,"SoundDuration":391952,"Delta":249173666},{"NoteNumber":58,"Velocity":36,"Duration":195976,"SoundDuration":195976,"Delta":249173666},{"NoteNumber":52,"Velocity":45,"Duration":195976,"SoundDuration":195976,"Delta":249369642},{"NoteNumber":72,"Velocity":50,"Duration":195976,"SoundDuration":195976,"Delta":249565618},{"NoteNumber":55,"Velocity":38,"Duration":195976,"SoundDuration":195976,"Delta":249565618},{"NoteNumber":70,"Velocity":51,"Duration":200115,"SoundDuration":200115,"Delta":249761594},{"NoteNumber":61,"Velocity":39,"Duration":200115,"SoundDuration":200115,"Delta":249761594},{"NoteNumber":69,"Velocity":57,"Duration":607778,"SoundDuration":607778,"Delta":249961709},{"NoteNumber":53,"Velocity":47,"Duration":202593,"SoundDuration":202593,"Delta":249961709},{"NoteNumber":57,"Velocity":40,"Duration":202592,"SoundDuration":202592,"Delta":250164302},{"NoteNumber":60,"Velocity":40,"Duration":202593,"SoundDuration":202593,"Delta":250366895},{"NoteNumber":72,"Velocity":55,"Duration":202593,"SoundDuration":202593,"Delta":250569488},{"NoteNumber":53,"Velocity":48,"Duration":202593,"SoundDuration":202593,"Delta":250569488},{"NoteNumber":51,"Velocity":42,"Duration":202593,"SoundDuration":202593,"Delta":250772081},{"NoteNumber":48,"Velocity":43,"Duration":202592,"SoundDuration":202592,"Delta":250974674},{"NoteNumber":74,"Velocity":75,"Duration":97352,"SoundDuration":97352,"Delta":251177267},{"NoteNumber":58,"Velocity":58,"Duration":389408,"SoundDuration":389408,"Delta":251177267},{"NoteNumber":46,"Velocity":49,"Duration":389408,"SoundDuration":389408,"Delta":251177267},{"NoteNumber":70,"Velocity":57,"Duration":97352,"SoundDuration":97352,"Delta":251274619},{"NoteNumber":65,"Velocity":57,"Duration":97352,"SoundDuration":97352,"Delta":251371971},{"NoteNumber":70,"Velocity":57,"Duration":97352,"SoundDuration":97352,"Delta":251469323},{"NoteNumber":74,"Velocity":57,"Duration":97352,"SoundDuration":97352,"Delta":251566675},{"NoteNumber":70,"Velocity":57,"Duration":97352,"SoundDuration":97352,"Delta":251664027},{"NoteNumber":72,"Velocity":73,"Duration":97352,"SoundDuration":97352,"Delta":251761379},{"NoteNumber":45,"Velocity":49,"Duration":389408,"SoundDuration":389408,"Delta":251761379},{"NoteNumber":57,"Velocity":58,"Duration":389408,"SoundDuration":389408,"Delta":251761379},{"NoteNumber":69,"Velocity":56,"Duration":97352,"SoundDuration":97352,"Delta":251858731},{"NoteNumber":65,"Velocity":56,"Duration":97352,"SoundDuration":97352,"Delta":251956083},{"NoteNumber":69,"Velocity":56,"Duration":97352,"SoundDuration":97352,"Delta":252053435},{"NoteNumber":72,"Velocity":56,"Duration":97352,"SoundDuration":97352,"Delta":252150787},{"NoteNumber":69,"Velocity":56,"Duration":103391,"SoundDuration":103391,"Delta":252248139},{"NoteNumber":75,"Velocity":76,"Duration":97352,"SoundDuration":97352,"Delta":252351531},{"NoteNumber":43,"Velocity":49,"Duration":966686,"SoundDuration":966686,"Delta":252351531},{"NoteNumber":55,"Velocity":58,"Duration":966686,"SoundDuration":966686,"Delta":252351531},{"NoteNumber":70,"Velocity":55,"Duration":97352,"SoundDuration":97352,"Delta":252448883},{"NoteNumber":67,"Velocity":55,"Duration":97352,"SoundDuration":97352,"Delta":252546235},{"NoteNumber":70,"Velocity":55,"Duration":97352,"SoundDuration":97352,"Delta":252643587},{"NoteNumber":75,"Velocity":60,"Duration":95492,"SoundDuration":95492,"Delta":252740939},{"NoteNumber":70,"Velocity":53,"Duration":95492,"SoundDuration":95492,"Delta":252836431},{"NoteNumber":75,"Velocity":59,"Duration":95492,"SoundDuration":95492,"Delta":252931924},{"NoteNumber":70,"Velocity":52,"Duration":97352,"SoundDuration":97352,"Delta":253027417},{"NoteNumber":75,"Velocity":60,"Duration":96724,"SoundDuration":96724,"Delta":253124769},{"NoteNumber":70,"Velocity":48,"Duration":96724,"SoundDuration":96724,"Delta":253221493},{"NoteNumber":74,"Velocity":74,"Duration":96724,"SoundDuration":96724,"Delta":253318217},{"NoteNumber":54,"Velocity":57,"Duration":198020,"SoundDuration":198020,"Delta":253318217},{"NoteNumber":42,"Velocity":48,"Duration":198020,"SoundDuration":198020,"Delta":253318217},{"NoteNumber":69,"Velocity":51,"Duration":101296,"SoundDuration":101296,"Delta":253414942},{"NoteNumber":75,"Velocity":78,"Duration":97352,"SoundDuration":97352,"Delta":253516238},{"NoteNumber":55,"Velocity":57,"Duration":388152,"SoundDuration":388152,"Delta":253516238},{"NoteNumber":43,"Velocity":48,"Duration":388152,"SoundDuration":388152,"Delta":253516238},{"NoteNumber":70,"Velocity":53,"Duration":97352,"SoundDuration":97352,"Delta":253613590},{"NoteNumber":67,"Velocity":54,"Duration":96724,"SoundDuration":96724,"Delta":253710942},{"NoteNumber":70,"Velocity":54,"Duration":96724,"SoundDuration":96724,"Delta":253807666},{"NoteNumber":75,"Velocity":60,"Duration":96724,"SoundDuration":96724,"Delta":253904391},{"NoteNumber":70,"Velocity":54,"Duration":98632,"SoundDuration":98632,"Delta":254001115},{"NoteNumber":74,"Velocity":64,"Duration":97352,"SoundDuration":97352,"Delta":254099747},{"NoteNumber":41,"Velocity":48,"Duration":389408,"SoundDuration":389408,"Delta":254099747},{"NoteNumber":53,"Velocity":57,"Duration":389408,"SoundDuration":389408,"Delta":254099747},{"NoteNumber":69,"Velocity":52,"Duration":97352,"SoundDuration":97352,"Delta":254197099},{"NoteNumber":65,"Velocity":53,"Duration":97352,"SoundDuration":97352,"Delta":254294451},{"NoteNumber":69,"Velocity":53,"Duration":97352,"SoundDuration":97352,"Delta":254391803},{"NoteNumber":74,"Velocity":73,"Duration":97352,"SoundDuration":97352,"Delta":254489155},{"NoteNumber":69,"Velocity":57,"Duration":100616,"SoundDuration":100616,"Delta":254586507},{"NoteNumber":79,"Velocity":75,"Duration":97352,"SoundDuration":97352,"Delta":254687124},{"NoteNumber":51,"Velocity":47,"Duration":974859,"SoundDuration":974859,"Delta":254687124},{"NoteNumber":39,"Velocity":39,"Duration":974859,"SoundDuration":974859,"Delta":254687124},{"NoteNumber":70,"Velocity":52,"Duration":97352,"SoundDuration":97352,"Delta":254784476},{"NoteNumber":67,"Velocity":52,"Duration":96724,"SoundDuration":96724,"Delta":254881828},{"NoteNumber":70,"Velocity":52,"Duration":96724,"SoundDuration":96724,"Delta":254978552},{"NoteNumber":79,"Velocity":61,"Duration":99946,"SoundDuration":99946,"Delta":255075277},{"NoteNumber":70,"Velocity":51,"Duration":97352,"SoundDuration":97352,"Delta":255175223},{"NoteNumber":79,"Velocity":63,"Duration":97352,"SoundDuration":97352,"Delta":255272575},{"NoteNumber":70,"Velocity":52,"Duration":97352,"SoundDuration":97352,"Delta":255369927},{"NoteNumber":79,"Velocity":65,"Duration":97352,"SoundDuration":97352,"Delta":255467279},{"NoteNumber":70,"Velocity":53,"Duration":97352,"SoundDuration":97352,"Delta":255564631},{"NoteNumber":77,"Velocity":51,"Duration":97352,"SoundDuration":97352,"Delta":255661983},{"NoteNumber":38,"Velocity":35,"Duration":199337,"SoundDuration":199337,"Delta":255661983},{"NoteNumber":50,"Velocity":42,"Duration":199337,"SoundDuration":199337,"Delta":255661983},{"NoteNumber":70,"Velocity":45,"Duration":101985,"SoundDuration":101985,"Delta":255759335},{"NoteNumber":48,"Velocity":51,"Duration":98632,"SoundDuration":98632,"Delta":255861321},{"NoteNumber":55,"Velocity":44,"Duration":98632,"SoundDuration":98632,"Delta":255959953},{"NoteNumber":58,"Velocity":44,"Duration":98632,"SoundDuration":98632,"Delta":256058585},{"NoteNumber":67,"Velocity":51,"Duration":98632,"SoundDuration":98632,"Delta":256157217},{"NoteNumber":70,"Velocity":44,"Duration":98632,"SoundDuration":98632,"Delta":256255850},{"NoteNumber":76,"Velocity":44,"Duration":105574,"SoundDuration":105574,"Delta":256354482},{"NoteNumber":54,"Velocity":51,"Duration":98632,"SoundDuration":98632,"Delta":256460056},{"NoteNumber":57,"Velocity":42,"Duration":98632,"SoundDuration":98632,"Delta":256558688},{"NoteNumber":60,"Velocity":44,"Duration":98632,"SoundDuration":98632,"Delta":256657321},{"NoteNumber":69,"Velocity":51,"Duration":98632,"SoundDuration":98632,"Delta":256755953},{"NoteNumber":72,"Velocity":46,"Duration":98632,"SoundDuration":98632,"Delta":256854585},{"NoteNumber":75,"Velocity":46,"Duration":105574,"SoundDuration":105574,"Delta":256953217},{"NoteNumber":55,"Velocity":51,"Duration":98632,"SoundDuration":98632,"Delta":257058792},{"NoteNumber":58,"Velocity":42,"Duration":98632,"SoundDuration":98632,"Delta":257157424},{"NoteNumber":62,"Velocity":42,"Duration":98632,"SoundDuration":98632,"Delta":257256056},{"NoteNumber":67,"Velocity":51,"Duration":98632,"SoundDuration":98632,"Delta":257354688},{"NoteNumber":70,"Velocity":44,"Duration":98632,"SoundDuration":98632,"Delta":257453321},{"NoteNumber":74,"Velocity":44,"Duration":105574,"SoundDuration":105574,"Delta":257551953},{"NoteNumber":51,"Velocity":57,"Duration":97987,"SoundDuration":97987,"Delta":257657527},{"NoteNumber":55,"Velocity":49,"Duration":97987,"SoundDuration":97987,"Delta":257755515},{"NoteNumber":60,"Velocity":49,"Duration":97988,"SoundDuration":97988,"Delta":257853503},{"NoteNumber":63,"Velocity":57,"Duration":97987,"SoundDuration":97987,"Delta":257951491},{"NoteNumber":67,"Velocity":48,"Duration":97987,"SoundDuration":97987,"Delta":258049479},{"NoteNumber":72,"Velocity":49,"Duration":104108,"SoundDuration":104108,"Delta":258147467},{"NoteNumber":41,"Velocity":63,"Duration":98632,"SoundDuration":98632,"Delta":258251576},{"NoteNumber":50,"Velocity":56,"Duration":98632,"SoundDuration":98632,"Delta":258350208},{"NoteNumber":53,"Velocity":56,"Duration":98632,"SoundDuration":98632,"Delta":258448840},{"NoteNumber":62,"Velocity":56,"Duration":98632,"SoundDuration":98632,"Delta":258547473},{"NoteNumber":65,"Velocity":48,"Duration":98632,"SoundDuration":98632,"Delta":258646105},{"NoteNumber":70,"Velocity":48,"Duration":105574,"SoundDuration":105574,"Delta":258744737},{"NoteNumber":41,"Velocity":70,"Duration":99285,"SoundDuration":99285,"Delta":258850311},{"NoteNumber":48,"Velocity":61,"Duration":99385,"SoundDuration":99385,"Delta":258949597},{"NoteNumber":53,"Velocity":61,"Duration":102132,"SoundDuration":102132,"Delta":259048982},{"NoteNumber":63,"Velocity":59,"Duration":105760,"SoundDuration":105760,"Delta":259151114},{"NoteNumber":65,"Velocity":52,"Duration":108701,"SoundDuration":108701,"Delta":259256874},{"NoteNumber":69,"Velocity":52,"Duration":133832,"SoundDuration":133832,"Delta":259365576},{"NoteNumber":34,"Velocity":72,"Duration":789058,"SoundDuration":789058,"Delta":259499409},{"NoteNumber":38,"Velocity":42,"Duration":197264,"SoundDuration":197264,"Delta":260288467},{"NoteNumber":41,"Velocity":44,"Duration":197264,"SoundDuration":197264,"Delta":260485731},{"NoteNumber":46,"Velocity":46,"Duration":1188346,"SoundDuration":1188346,"Delta":260682996},{"NoteNumber":50,"Velocity":48,"Duration":197264,"SoundDuration":197264,"Delta":260880260},{"NoteNumber":53,"Velocity":50,"Duration":197264,"SoundDuration":197264,"Delta":261077525},{"NoteNumber":58,"Velocity":52,"Duration":197264,"SoundDuration":197264,"Delta":261274789},{"NoteNumber":62,"Velocity":51,"Duration":197264,"SoundDuration":197264,"Delta":261472054},{"NoteNumber":65,"Velocity":56,"Duration":202023,"SoundDuration":202023,"Delta":261669318},{"NoteNumber":66,"Velocity":57,"Duration":197264,"SoundDuration":197264,"Delta":261871342},{"NoteNumber":45,"Velocity":45,"Duration":2353657,"SoundDuration":2353657,"Delta":261871342},{"NoteNumber":48,"Velocity":45,"Duration":2353657,"SoundDuration":2353657,"Delta":261871342},{"NoteNumber":51,"Velocity":45,"Duration":1176116,"SoundDuration":1176116,"Delta":261871342},{"NoteNumber":69,"Velocity":58,"Duration":194704,"SoundDuration":194704,"Delta":262068606},{"NoteNumber":72,"Velocity":60,"Duration":194704,"SoundDuration":194704,"Delta":262263310},{"NoteNumber":75,"Velocity":61,"Duration":194704,"SoundDuration":194704,"Delta":262458014},{"NoteNumber":78,"Velocity":63,"Duration":194704,"SoundDuration":194704,"Delta":262652718},{"NoteNumber":81,"Velocity":64,"Duration":200035,"SoundDuration":200035,"Delta":262847422},{"NoteNumber":84,"Velocity":66,"Duration":197264,"SoundDuration":197264,"Delta":263047458},{"NoteNumber":54,"Velocity":45,"Duration":1177541,"SoundDuration":1177541,"Delta":263047458},{"NoteNumber":81,"Velocity":64,"Duration":194704,"SoundDuration":194704,"Delta":263244722},{"NoteNumber":78,"Velocity":62,"Duration":194704,"SoundDuration":194704,"Delta":263439426},{"NoteNumber":75,"Velocity":60,"Duration":194704,"SoundDuration":194704,"Delta":263634130},{"NoteNumber":74,"Velocity":58,"Duration":194704,"SoundDuration":194704,"Delta":263828834},{"NoteNumber":66,"Velocity":57,"Duration":201460,"SoundDuration":201460,"Delta":264023538},{"NoteNumber":69,"Velocity":55,"Duration":197264,"SoundDuration":197264,"Delta":264224999},{"NoteNumber":55,"Velocity":45,"Duration":2424812,"SoundDuration":2424812,"Delta":264224999},{"NoteNumber":50,"Velocity":45,"Duration":2424812,"SoundDuration":2424812,"Delta":264224999},{"NoteNumber":46,"Velocity":45,"Duration":2424812,"SoundDuration":2424812,"Delta":264224999},{"NoteNumber":67,"Velocity":45,"Duration":197264,"SoundDuration":197264,"Delta":264422264},{"NoteNumber":73,"Velocity":45,"Duration":203468,"SoundDuration":203468,"Delta":264619528},{"NoteNumber":74,"Velocity":50,"Duration":197264,"SoundDuration":197264,"Delta":264822997},{"NoteNumber":78,"Velocity":47,"Duration":197264,"SoundDuration":197264,"Delta":265020261},{"NoteNumber":79,"Velocity":47,"Duration":207265,"SoundDuration":207265,"Delta":265217526},{"NoteNumber":85,"Velocity":52,"Duration":201233,"SoundDuration":201233,"Delta":265424791},{"NoteNumber":86,"Velocity":45,"Duration":201233,"SoundDuration":201233,"Delta":265626025},{"NoteNumber":81,"Velocity":41,"Duration":210042,"SoundDuration":210042,"Delta":265827259},{"NoteNumber":82,"Velocity":49,"Duration":201233,"SoundDuration":201233,"Delta":266037301},{"NoteNumber":78,"Velocity":43,"Duration":201233,"SoundDuration":201233,"Delta":266238535},{"NoteNumber":79,"Velocity":43,"Duration":210042,"SoundDuration":210042,"Delta":266439769},{"NoteNumber":61,"Velocity":33,"Duration":402467,"SoundDuration":402467,"Delta":266649811},{"NoteNumber":58,"Velocity":26,"Duration":402467,"SoundDuration":402467,"Delta":266649811},{"NoteNumber":77,"Velocity":39,"Duration":201233,"SoundDuration":201233,"Delta":266851045},{"NoteNumber":76,"Velocity":35,"Duration":209673,"SoundDuration":209673,"Delta":267052279},{"NoteNumber":61,"Velocity":33,"Duration":399787,"SoundDuration":399787,"Delta":267261952},{"NoteNumber":58,"Velocity":26,"Duration":399787,"SoundDuration":399787,"Delta":267261952},{"NoteNumber":76,"Velocity":35,"Duration":199893,"SoundDuration":199893,"Delta":267461846},{"NoteNumber":85,"Velocity":41,"Duration":206782,"SoundDuration":206782,"Delta":267661739},{"NoteNumber":58,"Velocity":26,"Duration":399787,"SoundDuration":399787,"Delta":267868522},{"NoteNumber":60,"Velocity":33,"Duration":399787,"SoundDuration":399787,"Delta":267868522},{"NoteNumber":85,"Velocity":41,"Duration":199893,"SoundDuration":199893,"Delta":268068415},{"NoteNumber":84,"Velocity":43,"Duration":202592,"SoundDuration":202592,"Delta":268268309},{"NoteNumber":60,"Velocity":33,"Duration":399787,"SoundDuration":399787,"Delta":268470902},{"NoteNumber":58,"Velocity":26,"Duration":399787,"SoundDuration":399787,"Delta":268470902},{"NoteNumber":84,"Velocity":43,"Duration":199893,"SoundDuration":199893,"Delta":268670795},{"NoteNumber":76,"Velocity":41,"Duration":208217,"SoundDuration":208217,"Delta":268870689},{"NoteNumber":44,"Velocity":50,"Duration":2405610,"SoundDuration":2405610,"Delta":269078906},{"NoteNumber":56,"Velocity":60,"Duration":2405610,"SoundDuration":2405610,"Delta":269078906},{"NoteNumber":76,"Velocity":56,"Duration":199893,"SoundDuration":199893,"Delta":269278800},{"NoteNumber":77,"Velocity":53,"Duration":199893,"SoundDuration":199893,"Delta":269478693},{"NoteNumber":84,"Velocity":63,"Duration":199893,"SoundDuration":199893,"Delta":269678587},{"NoteNumber":79,"Velocity":56,"Duration":199893,"SoundDuration":199893,"Delta":269878480},{"NoteNumber":82,"Velocity":56,"Duration":199893,"SoundDuration":199893,"Delta":270078374},{"NoteNumber":80,"Velocity":63,"Duration":199893,"SoundDuration":199893,"Delta":270278267},{"NoteNumber":76,"Velocity":56,"Duration":199893,"SoundDuration":199893,"Delta":270478161},{"NoteNumber":79,"Velocity":56,"Duration":199893,"SoundDuration":199893,"Delta":270678054},{"NoteNumber":77,"Velocity":60,"Duration":199893,"SoundDuration":199893,"Delta":270877948},{"NoteNumber":75,"Velocity":52,"Duration":199893,"SoundDuration":199893,"Delta":271077841},{"NoteNumber":73,"Velocity":52,"Duration":206782,"SoundDuration":206782,"Delta":271277735},{"NoteNumber":72,"Velocity":51,"Duration":597034,"SoundDuration":597034,"Delta":271484517},{"NoteNumber":62,"Velocity":45,"Duration":1196768,"SoundDuration":1196768,"Delta":271484517},{"NoteNumber":64,"Velocity":41,"Duration":198570,"SoundDuration":198570,"Delta":271684411},{"NoteNumber":65,"Velocity":41,"Duration":198570,"SoundDuration":198570,"Delta":271882981},{"NoteNumber":71,"Velocity":45,"Duration":599734,"SoundDuration":599734,"Delta":272081552},{"NoteNumber":68,"Velocity":45,"Duration":198570,"SoundDuration":198570,"Delta":272081552},{"NoteNumber":64,"Velocity":41,"Duration":198570,"SoundDuration":198570,"Delta":272280122},{"NoteNumber":65,"Velocity":41,"Duration":202592,"SoundDuration":202592,"Delta":272478693},{"NoteNumber":77,"Velocity":50,"Duration":599680,"SoundDuration":599680,"Delta":272681286},{"NoteNumber":61,"Velocity":45,"Duration":1206249,"SoundDuration":1206249,"Delta":272681286},{"NoteNumber":68,"Velocity":54,"Duration":199893,"SoundDuration":199893,"Delta":272681286},{"NoteNumber":64,"Velocity":42,"Duration":199893,"SoundDuration":199893,"Delta":272881179},{"NoteNumber":65,"Velocity":42,"Duration":199893,"SoundDuration":199893,"Delta":273081073},{"NoteNumber":71,"Velocity":45,"Duration":606569,"SoundDuration":606569,"Delta":273280966},{"NoteNumber":68,"Velocity":52,"Duration":199893,"SoundDuration":199893,"Delta":273280966},{"NoteNumber":67,"Velocity":47,"Duration":199893,"SoundDuration":199893,"Delta":273480860},{"NoteNumber":65,"Velocity":52,"Duration":206782,"SoundDuration":206782,"Delta":273680753},{"NoteNumber":48,"Velocity":49,"Duration":403937,"SoundDuration":403937,"Delta":273887536},{"NoteNumber":60,"Velocity":58,"Duration":403937,"SoundDuration":403937,"Delta":273887536},{"NoteNumber":64,"Velocity":55,"Duration":198570,"SoundDuration":198570,"Delta":274092903},{"NoteNumber":72,"Velocity":66,"Duration":198570,"SoundDuration":198570,"Delta":274092903},{"NoteNumber":67,"Velocity":55,"Duration":198570,"SoundDuration":198570,"Delta":274092903},{"NoteNumber":71,"Velocity":60,"Duration":99285,"SoundDuration":99285,"Delta":274291473},{"NoteNumber":65,"Velocity":60,"Duration":99285,"SoundDuration":99285,"Delta":274291473},{"NoteNumber":74,"Velocity":73,"Duration":99285,"SoundDuration":99285,"Delta":274291473},{"NoteNumber":60,"Velocity":58,"Duration":404046,"SoundDuration":404046,"Delta":274490044},{"NoteNumber":48,"Velocity":49,"Duration":404046,"SoundDuration":404046,"Delta":274490044},{"NoteNumber":74,"Velocity":66,"Duration":197264,"SoundDuration":197264,"Delta":274696826},{"NoteNumber":65,"Velocity":55,"Duration":197264,"SoundDuration":197264,"Delta":274696826},{"NoteNumber":71,"Velocity":55,"Duration":197264,"SoundDuration":197264,"Delta":274696826},{"NoteNumber":70,"Velocity":61,"Duration":98632,"SoundDuration":98632,"Delta":274894091},{"NoteNumber":67,"Velocity":61,"Duration":98632,"SoundDuration":98632,"Delta":274894091},{"NoteNumber":76,"Velocity":74,"Duration":98632,"SoundDuration":98632,"Delta":274894091},{"NoteNumber":48,"Velocity":49,"Duration":401163,"SoundDuration":401163,"Delta":275091355},{"NoteNumber":60,"Velocity":57,"Duration":401163,"SoundDuration":401163,"Delta":275091355},{"NoteNumber":67,"Velocity":55,"Duration":198570,"SoundDuration":198570,"Delta":275293948},{"NoteNumber":76,"Velocity":66,"Duration":198570,"SoundDuration":198570,"Delta":275293948},{"NoteNumber":70,"Velocity":55,"Duration":198570,"SoundDuration":198570,"Delta":275293948},{"NoteNumber":72,"Velocity":60,"Duration":99285,"SoundDuration":99285,"Delta":275492519},{"NoteNumber":69,"Velocity":60,"Duration":99285,"SoundDuration":99285,"Delta":275492519},{"NoteNumber":77,"Velocity":72,"Duration":99285,"SoundDuration":99285,"Delta":275492519},{"NoteNumber":60,"Velocity":57,"Duration":401163,"SoundDuration":401163,"Delta":275691089},{"NoteNumber":48,"Velocity":49,"Duration":401163,"SoundDuration":401163,"Delta":275691089},{"NoteNumber":78,"Velocity":66,"Duration":198570,"SoundDuration":198570,"Delta":275893682},{"NoteNumber":72,"Velocity":55,"Duration":198570,"SoundDuration":198570,"Delta":275893682},{"NoteNumber":69,"Velocity":55,"Duration":198570,"SoundDuration":198570,"Delta":275893682},{"NoteNumber":79,"Velocity":71,"Duration":99285,"SoundDuration":99285,"Delta":276092253},{"NoteNumber":76,"Velocity":59,"Duration":99285,"SoundDuration":99285,"Delta":276092253},{"NoteNumber":70,"Velocity":59,"Duration":99285,"SoundDuration":99285,"Delta":276092253},{"NoteNumber":48,"Velocity":49,"Duration":403937,"SoundDuration":403937,"Delta":276290823},{"NoteNumber":60,"Velocity":57,"Duration":403937,"SoundDuration":403937,"Delta":276290823},{"NoteNumber":76,"Velocity":55,"Duration":198570,"SoundDuration":198570,"Delta":276496190},{"NoteNumber":70,"Velocity":55,"Duration":198570,"SoundDuration":198570,"Delta":276496190},{"NoteNumber":79,"Velocity":66,"Duration":198570,"SoundDuration":198570,"Delta":276496190},{"NoteNumber":81,"Velocity":73,"Duration":99285,"SoundDuration":99285,"Delta":276694761},{"NoteNumber":72,"Velocity":60,"Duration":99285,"SoundDuration":99285,"Delta":276694761},{"NoteNumber":77,"Velocity":60,"Duration":99285,"SoundDuration":99285,"Delta":276694761},{"NoteNumber":60,"Velocity":56,"Duration":413584,"SoundDuration":413584,"Delta":276893331},{"NoteNumber":48,"Velocity":48,"Duration":413584,"SoundDuration":413584,"Delta":276893331},{"NoteNumber":78,"Velocity":55,"Duration":208217,"SoundDuration":208217,"Delta":277098698},{"NoteNumber":72,"Velocity":55,"Duration":208217,"SoundDuration":208217,"Delta":277098698},{"NoteNumber":81,"Velocity":66,"Duration":208217,"SoundDuration":208217,"Delta":277098698},{"NoteNumber":76,"Velocity":58,"Duration":111873,"SoundDuration":111873,"Delta":277306916},{"NoteNumber":82,"Velocity":70,"Duration":111873,"SoundDuration":111873,"Delta":277306916},{"NoteNumber":79,"Velocity":58,"Duration":111873,"SoundDuration":111873,"Delta":277306916},{"NoteNumber":79,"Velocity":71,"Duration":1212744,"SoundDuration":1212744,"Delta":277530663},{"NoteNumber":76,"Velocity":71,"Duration":1212744,"SoundDuration":1212744,"Delta":277530663},{"NoteNumber":82,"Velocity":86,"Duration":1313361,"SoundDuration":1313361,"Delta":277530663},{"NoteNumber":36,"Velocity":72,"Duration":100616,"SoundDuration":100616,"Delta":277530663},{"NoteNumber":40,"Velocity":60,"Duration":100616,"SoundDuration":100616,"Delta":277731897},{"NoteNumber":43,"Velocity":60,"Duration":100616,"SoundDuration":100616,"Delta":277933131},{"NoteNumber":48,"Velocity":69,"Duration":100616,"SoundDuration":100616,"Delta":278134365},{"NoteNumber":52,"Velocity":60,"Duration":100616,"SoundDuration":100616,"Delta":278335599},{"NoteNumber":55,"Velocity":60,"Duration":103391,"SoundDuration":103391,"Delta":278536833},{"NoteNumber":60,"Velocity":69,"Duration":200591,"SoundDuration":200591,"Delta":278743407},{"NoteNumber":84,"Velocity":63,"Duration":109903,"SoundDuration":109903,"Delta":278844024},{"NoteNumber":86,"Velocity":66,"Duration":109121,"SoundDuration":109121,"Delta":278943999},{"NoteNumber":84,"Velocity":65,"Duration":107358,"SoundDuration":107358,"Delta":279043257},{"NoteNumber":82,"Velocity":63,"Duration":108135,"SoundDuration":108135,"Delta":279140817},{"NoteNumber":81,"Velocity":62,"Duration":109254,"SoundDuration":109254,"Delta":279239089},{"NoteNumber":79,"Velocity":62,"Duration":109941,"SoundDuration":109941,"Delta":279338349},{"NoteNumber":81,"Velocity":64,"Duration":109401,"SoundDuration":109401,"Delta":279438295},{"NoteNumber":82,"Velocity":67,"Duration":108860,"SoundDuration":108860,"Delta":279537768},{"NoteNumber":81,"Velocity":66,"Duration":108495,"SoundDuration":108495,"Delta":279636765},{"NoteNumber":79,"Velocity":64,"Duration":109110,"SoundDuration":109110,"Delta":279735397},{"NoteNumber":77,"Velocity":62,"Duration":109428,"SoundDuration":109428,"Delta":279834579},{"NoteNumber":76,"Velocity":63,"Duration":110211,"SoundDuration":110211,"Delta":279934079},{"NoteNumber":77,"Velocity":63,"Duration":109561,"SoundDuration":109561,"Delta":280034296},{"NoteNumber":79,"Velocity":64,"Duration":108405,"SoundDuration":108405,"Delta":280133929},{"NoteNumber":77,"Velocity":64,"Duration":107368,"SoundDuration":107368,"Delta":280232536},{"NoteNumber":76,"Velocity":62,"Duration":108134,"SoundDuration":108134,"Delta":280330169},{"NoteNumber":74,"Velocity":60,"Duration":109279,"SoundDuration":109279,"Delta":280428374},{"NoteNumber":72,"Velocity":62,"Duration":109941,"SoundDuration":109941,"Delta":280527660},{"NoteNumber":73,"Velocity":62,"Duration":110382,"SoundDuration":110382,"Delta":280627606},{"NoteNumber":74,"Velocity":64,"Duration":109960,"SoundDuration":109960,"Delta":280727927},{"NoteNumber":72,"Velocity":63,"Duration":108903,"SoundDuration":108903,"Delta":280827959},{"NoteNumber":70,"Velocity":61,"Duration":110033,"SoundDuration":110033,"Delta":280926934},{"NoteNumber":69,"Velocity":60,"Duration":111559,"SoundDuration":111559,"Delta":281026906},{"NoteNumber":67,"Velocity":59,"Duration":111058,"SoundDuration":111058,"Delta":281128336},{"NoteNumber":69,"Velocity":61,"Duration":110181,"SoundDuration":110181,"Delta":281229332},{"NoteNumber":70,"Velocity":64,"Duration":108723,"SoundDuration":108723,"Delta":281329519},{"NoteNumber":69,"Velocity":63,"Duration":108427,"SoundDuration":108427,"Delta":281428444},{"NoteNumber":67,"Velocity":61,"Duration":109572,"SoundDuration":109572,"Delta":281526943},{"NoteNumber":65,"Velocity":60,"Duration":110827,"SoundDuration":110827,"Delta":281626520},{"NoteNumber":64,"Velocity":60,"Duration":110698,"SoundDuration":110698,"Delta":281727218},{"NoteNumber":65,"Velocity":62,"Duration":109178,"SoundDuration":109178,"Delta":281827922},{"NoteNumber":67,"Velocity":63,"Duration":107468,"SoundDuration":107468,"Delta":281927237},{"NoteNumber":65,"Velocity":62,"Duration":107026,"SoundDuration":107026,"Delta":282025033},{"NoteNumber":64,"Velocity":60,"Duration":108378,"SoundDuration":108378,"Delta":282122261},{"NoteNumber":62,"Velocity":59,"Duration":99704,"SoundDuration":99704,"Delta":282220711},{"NoteNumber":60,"Velocity":59,"Duration":110678,"SoundDuration":110678,"Delta":282320416},{"NoteNumber":61,"Velocity":60,"Duration":110399,"SoundDuration":110399,"Delta":282421033},{"NoteNumber":62,"Velocity":62,"Duration":109755,"SoundDuration":109755,"Delta":282521438},{"NoteNumber":60,"Velocity":63,"Duration":108495,"SoundDuration":108495,"Delta":282621330},{"NoteNumber":58,"Velocity":62,"Duration":108952,"SoundDuration":108952,"Delta":282719962},{"NoteNumber":57,"Velocity":60,"Duration":109232,"SoundDuration":109232,"Delta":282818986},{"NoteNumber":55,"Velocity":59,"Duration":107136,"SoundDuration":107136,"Delta":282918461},{"NoteNumber":57,"Velocity":61,"Duration":106217,"SoundDuration":106217,"Delta":283015903},{"NoteNumber":58,"Velocity":62,"Duration":105273,"SoundDuration":105273,"Delta":283112488},{"NoteNumber":57,"Velocity":61,"Duration":104968,"SoundDuration":104968,"Delta":283208252},{"NoteNumber":55,"Velocity":59,"Duration":106052,"SoundDuration":106052,"Delta":283303649},{"NoteNumber":53,"Velocity":57,"Duration":107185,"SoundDuration":107185,"Delta":283400007},{"NoteNumber":52,"Velocity":58,"Duration":108033,"SoundDuration":108033,"Delta":283497371},{"NoteNumber":53,"Velocity":60,"Duration":107655,"SoundDuration":107655,"Delta":283595584},{"NoteNumber":55,"Velocity":62,"Duration":106944,"SoundDuration":106944,"Delta":283693482},{"NoteNumber":53,"Velocity":61,"Duration":106268,"SoundDuration":106268,"Delta":283790795},{"NoteNumber":52,"Velocity":61,"Duration":107084,"SoundDuration":107084,"Delta":283887370},{"NoteNumber":50,"Velocity":60,"Duration":108089,"SoundDuration":108089,"Delta":283984696},{"NoteNumber":48,"Velocity":59,"Duration":108036,"SoundDuration":108036,"Delta":284082900},{"NoteNumber":50,"Velocity":60,"Duration":106468,"SoundDuration":106468,"Delta":284181179},{"NoteNumber":48,"Velocity":61,"Duration":104844,"SoundDuration":104844,"Delta":284278036},{"NoteNumber":46,"Velocity":61,"Duration":104662,"SoundDuration":104662,"Delta":284373430},{"NoteNumber":45,"Velocity":60,"Duration":106349,"SoundDuration":106349,"Delta":284468521},{"NoteNumber":43,"Velocity":58,"Duration":99556,"SoundDuration":99556,"Delta":284565113},{"NoteNumber":53,"Velocity":70,"Duration":385282,"SoundDuration":385282,"Delta":284664670},{"NoteNumber":45,"Velocity":59,"Duration":385282,"SoundDuration":385282,"Delta":284664670},{"NoteNumber":48,"Velocity":59,"Duration":385282,"SoundDuration":385282,"Delta":284664670},{"NoteNumber":41,"Velocity":59,"Duration":385282,"SoundDuration":385282,"Delta":284664670},{"NoteNumber":84,"Velocity":66,"Duration":105952,"SoundDuration":105952,"Delta":284760991},{"NoteNumber":83,"Velocity":68,"Duration":105952,"SoundDuration":105952,"Delta":284857311},{"NoteNumber":84,"Velocity":69,"Duration":105952,"SoundDuration":105952,"Delta":284953632},{"NoteNumber":89,"Velocity":70,"Duration":106272,"SoundDuration":106272,"Delta":285049952},{"NoteNumber":84,"Velocity":63,"Duration":109086,"SoundDuration":109086,"Delta":285146273},{"NoteNumber":82,"Velocity":70,"Duration":105276,"SoundDuration":105276,"Delta":285245788},{"NoteNumber":81,"Velocity":66,"Duration":105276,"SoundDuration":105276,"Delta":285341494},{"NoteNumber":80,"Velocity":64,"Duration":105276,"SoundDuration":105276,"Delta":285437200},{"NoteNumber":81,"Velocity":64,"Duration":105276,"SoundDuration":105276,"Delta":285532906},{"NoteNumber":84,"Velocity":70,"Duration":105591,"SoundDuration":105591,"Delta":285628612},{"NoteNumber":81,"Velocity":64,"Duration":108369,"SoundDuration":108369,"Delta":285724318},{"NoteNumber":79,"Velocity":70,"Duration":104609,"SoundDuration":104609,"Delta":285823178},{"NoteNumber":77,"Velocity":64,"Duration":104609,"SoundDuration":104609,"Delta":285918277},{"NoteNumber":76,"Velocity":64,"Duration":104609,"SoundDuration":104609,"Delta":286013377},{"NoteNumber":77,"Velocity":64,"Duration":104609,"SoundDuration":104609,"Delta":286108476},{"NoteNumber":81,"Velocity":70,"Duration":104985,"SoundDuration":104985,"Delta":286203575},{"NoteNumber":77,"Velocity":65,"Duration":108430,"SoundDuration":108430,"Delta":286298674},{"NoteNumber":74,"Velocity":70,"Duration":105276,"SoundDuration":105276,"Delta":286397534},{"NoteNumber":72,"Velocity":65,"Duration":105276,"SoundDuration":105276,"Delta":286493240},{"NoteNumber":71,"Velocity":65,"Duration":105276,"SoundDuration":105276,"Delta":286588946},{"NoteNumber":72,"Velocity":65,"Duration":105276,"SoundDuration":105276,"Delta":286684652},{"NoteNumber":77,"Velocity":70,"Duration":105791,"SoundDuration":105791,"Delta":286780358},{"NoteNumber":72,"Velocity":65,"Duration":110363,"SoundDuration":110363,"Delta":286876064},{"NoteNumber":70,"Velocity":70,"Duration":104609,"SoundDuration":104609,"Delta":286976918},{"NoteNumber":69,"Velocity":66,"Duration":104985,"SoundDuration":104985,"Delta":287072017},{"NoteNumber":68,"Velocity":66,"Duration":108745,"SoundDuration":108745,"Delta":287167117},{"NoteNumber":69,"Velocity":66,"Duration":108745,"SoundDuration":108745,"Delta":287265976},{"NoteNumber":72,"Velocity":70,"Duration":110982,"SoundDuration":110982,"Delta":287364836},{"NoteNumber":69,"Velocity":64,"Duration":131249,"SoundDuration":131249,"Delta":287463696},{"NoteNumber":65,"Velocity":70,"Duration":100180,"SoundDuration":100180,"Delta":287584928},{"NoteNumber":57,"Velocity":70,"Duration":100180,"SoundDuration":100180,"Delta":287584928},{"NoteNumber":77,"Velocity":64,"Duration":95706,"SoundDuration":95706,"Delta":287685108},{"NoteNumber":64,"Velocity":70,"Duration":95706,"SoundDuration":95706,"Delta":287780814},{"NoteNumber":55,"Velocity":66,"Duration":95706,"SoundDuration":95706,"Delta":287780814},{"NoteNumber":77,"Velocity":64,"Duration":95706,"SoundDuration":95706,"Delta":287876520},{"NoteNumber":65,"Velocity":70,"Duration":95706,"SoundDuration":95706,"Delta":287972226},{"NoteNumber":57,"Velocity":66,"Duration":95706,"SoundDuration":95706,"Delta":287972226},{"NoteNumber":77,"Velocity":64,"Duration":101536,"SoundDuration":101536,"Delta":288067932},{"NoteNumber":67,"Velocity":70,"Duration":95706,"SoundDuration":95706,"Delta":288169468},{"NoteNumber":58,"Velocity":70,"Duration":95706,"SoundDuration":95706,"Delta":288169468},{"NoteNumber":77,"Velocity":64,"Duration":95706,"SoundDuration":95706,"Delta":288265174},{"NoteNumber":65,"Velocity":65,"Duration":95706,"SoundDuration":95706,"Delta":288360880},{"NoteNumber":57,"Velocity":67,"Duration":95706,"SoundDuration":95706,"Delta":288360880},{"NoteNumber":77,"Velocity":58,"Duration":95706,"SoundDuration":95706,"Delta":288456586},{"NoteNumber":67,"Velocity":67,"Duration":95705,"SoundDuration":95705,"Delta":288552292},{"NoteNumber":58,"Velocity":67,"Duration":95705,"SoundDuration":95705,"Delta":288552292},{"NoteNumber":77,"Velocity":61,"Duration":100854,"SoundDuration":100854,"Delta":288647998},{"NoteNumber":69,"Velocity":70,"Duration":95099,"SoundDuration":95099,"Delta":288748852},{"NoteNumber":60,"Velocity":70,"Duration":95099,"SoundDuration":95099,"Delta":288748852},{"NoteNumber":77,"Velocity":60,"Duration":95099,"SoundDuration":95099,"Delta":288843952},{"NoteNumber":67,"Velocity":66,"Duration":95099,"SoundDuration":95099,"Delta":288939051},{"NoteNumber":58,"Velocity":67,"Duration":95099,"SoundDuration":95099,"Delta":288939051},{"NoteNumber":77,"Velocity":62,"Duration":95099,"SoundDuration":95099,"Delta":289034150},{"NoteNumber":69,"Velocity":67,"Duration":95099,"SoundDuration":95099,"Delta":289129249},{"NoteNumber":60,"Velocity":67,"Duration":95099,"SoundDuration":95099,"Delta":289129249},{"NoteNumber":77,"Velocity":62,"Duration":114740,"SoundDuration":114740,"Delta":289224349},{"NoteNumber":70,"Velocity":74,"Duration":96320,"SoundDuration":96320,"Delta":289339089},{"NoteNumber":61,"Velocity":74,"Duration":385282,"SoundDuration":385282,"Delta":289339089},{"NoteNumber":77,"Velocity":61,"Duration":96320,"SoundDuration":96320,"Delta":289435409},{"NoteNumber":70,"Velocity":65,"Duration":96320,"SoundDuration":96320,"Delta":289531730},{"NoteNumber":77,"Velocity":61,"Duration":96320,"SoundDuration":96320,"Delta":289628050},{"NoteNumber":69,"Velocity":65,"Duration":96320,"SoundDuration":96320,"Delta":289724371},{"NoteNumber":60,"Velocity":67,"Duration":96320,"SoundDuration":96320,"Delta":289724371},{"NoteNumber":77,"Velocity":60,"Duration":103641,"SoundDuration":103641,"Delta":289820691},{"NoteNumber":70,"Velocity":70,"Duration":95706,"SoundDuration":95706,"Delta":289924333},{"NoteNumber":61,"Velocity":74,"Duration":382824,"SoundDuration":382824,"Delta":289924333},{"NoteNumber":77,"Velocity":60,"Duration":95706,"SoundDuration":95706,"Delta":290020039},{"NoteNumber":70,"Velocity":65,"Duration":95706,"SoundDuration":95706,"Delta":290115745},{"NoteNumber":77,"Velocity":60,"Duration":95706,"SoundDuration":95706,"Delta":290211451},{"NoteNumber":69,"Velocity":65,"Duration":95705,"SoundDuration":95705,"Delta":290307157},{"NoteNumber":60,"Velocity":66,"Duration":95705,"SoundDuration":95705,"Delta":290307157},{"NoteNumber":77,"Velocity":54,"Duration":123884,"SoundDuration":123884,"Delta":290402863},{"NoteNumber":68,"Velocity":49,"Duration":95706,"SoundDuration":95706,"Delta":290526748},{"NoteNumber":59,"Velocity":47,"Duration":95706,"SoundDuration":95706,"Delta":290526748},{"NoteNumber":77,"Velocity":41,"Duration":95706,"SoundDuration":95706,"Delta":290622454},{"NoteNumber":68,"Velocity":49,"Duration":95706,"SoundDuration":95706,"Delta":290718160},{"NoteNumber":59,"Velocity":47,"Duration":95706,"SoundDuration":95706,"Delta":290718160},{"NoteNumber":77,"Velocity":42,"Duration":95706,"SoundDuration":95706,"Delta":290813866},{"NoteNumber":68,"Velocity":49,"Duration":95705,"SoundDuration":95705,"Delta":290909572},{"NoteNumber":59,"Velocity":47,"Duration":95705,"SoundDuration":95705,"Delta":290909572},{"NoteNumber":77,"Velocity":40,"Duration":103641,"SoundDuration":103641,"Delta":291005278},{"NoteNumber":67,"Velocity":48,"Duration":210187,"SoundDuration":210187,"Delta":291108919},{"NoteNumber":76,"Velocity":48,"Duration":210187,"SoundDuration":210187,"Delta":291108919},{"NoteNumber":60,"Velocity":50,"Duration":210187,"SoundDuration":210187,"Delta":291108919},{"NoteNumber":45,"Velocity":59,"Duration":385282,"SoundDuration":385282,"Delta":291739480},{"NoteNumber":48,"Velocity":59,"Duration":385282,"SoundDuration":385282,"Delta":291739480},{"NoteNumber":53,"Velocity":70,"Duration":385282,"SoundDuration":385282,"Delta":291739480},{"NoteNumber":41,"Velocity":59,"Duration":385282,"SoundDuration":385282,"Delta":291739480},{"NoteNumber":84,"Velocity":66,"Duration":105952,"SoundDuration":105952,"Delta":291835800},{"NoteNumber":83,"Velocity":68,"Duration":105952,"SoundDuration":105952,"Delta":291932121},{"NoteNumber":84,"Velocity":69,"Duration":105952,"SoundDuration":105952,"Delta":292028441},{"NoteNumber":89,"Velocity":70,"Duration":106272,"SoundDuration":106272,"Delta":292124762},{"NoteNumber":84,"Velocity":63,"Duration":109086,"SoundDuration":109086,"Delta":292221082},{"NoteNumber":82,"Velocity":70,"Duration":105276,"SoundDuration":105276,"Delta":292320598},{"NoteNumber":81,"Velocity":66,"Duration":105276,"SoundDuration":105276,"Delta":292416304},{"NoteNumber":80,"Velocity":64,"Duration":105276,"SoundDuration":105276,"Delta":292512010},{"NoteNumber":81,"Velocity":64,"Duration":105276,"SoundDuration":105276,"Delta":292607716},{"NoteNumber":84,"Velocity":70,"Duration":105591,"SoundDuration":105591,"Delta":292703422},{"NoteNumber":81,"Velocity":64,"Duration":108369,"SoundDuration":108369,"Delta":292799128},{"NoteNumber":79,"Velocity":70,"Duration":104609,"SoundDuration":104609,"Delta":292897988},{"NoteNumber":77,"Velocity":64,"Duration":104609,"SoundDuration":104609,"Delta":292993087},{"NoteNumber":76,"Velocity":64,"Duration":104609,"SoundDuration":104609,"Delta":293088186},{"NoteNumber":77,"Velocity":64,"Duration":104609,"SoundDuration":104609,"Delta":293183286},{"NoteNumber":81,"Velocity":70,"Duration":104985,"SoundDuration":104985,"Delta":293278385},{"NoteNumber":77,"Velocity":65,"Duration":108430,"SoundDuration":108430,"Delta":293373484},{"NoteNumber":74,"Velocity":70,"Duration":105276,"SoundDuration":105276,"Delta":293472344},{"NoteNumber":72,"Velocity":65,"Duration":105276,"SoundDuration":105276,"Delta":293568050},{"NoteNumber":71,"Velocity":65,"Duration":105276,"SoundDuration":105276,"Delta":293663756},{"NoteNumber":72,"Velocity":65,"Duration":105276,"SoundDuration":105276,"Delta":293759462},{"NoteNumber":77,"Velocity":70,"Duration":105791,"SoundDuration":105791,"Delta":293855168},{"NoteNumber":72,"Velocity":65,"Duration":110363,"SoundDuration":110363,"Delta":293950874},{"NoteNumber":70,"Velocity":70,"Duration":104609,"SoundDuration":104609,"Delta":294051728},{"NoteNumber":69,"Velocity":66,"Duration":104985,"SoundDuration":104985,"Delta":294146827},{"NoteNumber":68,"Velocity":66,"Duration":108745,"SoundDuration":108745,"Delta":294241926},{"NoteNumber":69,"Velocity":66,"Duration":108745,"SoundDuration":108745,"Delta":294340786},{"NoteNumber":72,"Velocity":70,"Duration":110982,"SoundDuration":110982,"Delta":294439646},{"NoteNumber":69,"Velocity":64,"Duration":131183,"SoundDuration":131183,"Delta":294538506},{"NoteNumber":65,"Velocity":70,"Duration":99515,"SoundDuration":99515,"Delta":294659737},{"NoteNumber":57,"Velocity":70,"Duration":99515,"SoundDuration":99515,"Delta":294659737},{"NoteNumber":77,"Velocity":64,"Duration":95706,"SoundDuration":95706,"Delta":294759253},{"NoteNumber":64,"Velocity":70,"Duration":95706,"SoundDuration":95706,"Delta":294854959},{"NoteNumber":55,"Velocity":66,"Duration":95706,"SoundDuration":95706,"Delta":294854959},{"NoteNumber":77,"Velocity":64,"Duration":95706,"SoundDuration":95706,"Delta":294950665},{"NoteNumber":65,"Velocity":70,"Duration":95706,"SoundDuration":95706,"Delta":295046371},{"NoteNumber":57,"Velocity":66,"Duration":95706,"SoundDuration":95706,"Delta":295046371},{"NoteNumber":77,"Velocity":64,"Duration":101536,"SoundDuration":101536,"Delta":295142077},{"NoteNumber":67,"Velocity":70,"Duration":95706,"SoundDuration":95706,"Delta":295243614},{"NoteNumber":58,"Velocity":70,"Duration":95706,"SoundDuration":95706,"Delta":295243614},{"NoteNumber":77,"Velocity":64,"Duration":95706,"SoundDuration":95706,"Delta":295339320},{"NoteNumber":65,"Velocity":65,"Duration":95706,"SoundDuration":95706,"Delta":295435026},{"NoteNumber":57,"Velocity":67,"Duration":95706,"SoundDuration":95706,"Delta":295435026},{"NoteNumber":77,"Velocity":58,"Duration":95706,"SoundDuration":95706,"Delta":295530732},{"NoteNumber":67,"Velocity":67,"Duration":95705,"SoundDuration":95705,"Delta":295626438},{"NoteNumber":58,"Velocity":67,"Duration":95705,"SoundDuration":95705,"Delta":295626438},{"NoteNumber":77,"Velocity":61,"Duration":100854,"SoundDuration":100854,"Delta":295722144},{"NoteNumber":69,"Velocity":70,"Duration":95099,"SoundDuration":95099,"Delta":295822998},{"NoteNumber":60,"Velocity":70,"Duration":95099,"SoundDuration":95099,"Delta":295822998},{"NoteNumber":77,"Velocity":60,"Duration":95099,"SoundDuration":95099,"Delta":295918097},{"NoteNumber":67,"Velocity":66,"Duration":95099,"SoundDuration":95099,"Delta":296013196},{"NoteNumber":58,"Velocity":67,"Duration":95099,"SoundDuration":95099,"Delta":296013196},{"NoteNumber":77,"Velocity":62,"Duration":95099,"SoundDuration":95099,"Delta":296108295},{"NoteNumber":69,"Velocity":67,"Duration":95099,"SoundDuration":95099,"Delta":296203395},{"NoteNumber":60,"Velocity":67,"Duration":95099,"SoundDuration":95099,"Delta":296203395},{"NoteNumber":77,"Velocity":62,"Duration":114740,"SoundDuration":114740,"Delta":296298494},{"NoteNumber":70,"Velocity":74,"Duration":96320,"SoundDuration":96320,"Delta":296413234},{"NoteNumber":61,"Velocity":74,"Duration":385282,"SoundDuration":385282,"Delta":296413234},{"NoteNumber":77,"Velocity":61,"Duration":96320,"SoundDuration":96320,"Delta":296509555},{"NoteNumber":70,"Velocity":65,"Duration":96320,"SoundDuration":96320,"Delta":296605875},{"NoteNumber":77,"Velocity":61,"Duration":96320,"SoundDuration":96320,"Delta":296702196},{"NoteNumber":69,"Velocity":65,"Duration":96320,"SoundDuration":96320,"Delta":296798516},{"NoteNumber":60,"Velocity":67,"Duration":96320,"SoundDuration":96320,"Delta":296798516},{"NoteNumber":77,"Velocity":60,"Duration":103641,"SoundDuration":103641,"Delta":296894837},{"NoteNumber":70,"Velocity":70,"Duration":95706,"SoundDuration":95706,"Delta":296998478},{"NoteNumber":61,"Velocity":74,"Duration":382824,"SoundDuration":382824,"Delta":296998478},{"NoteNumber":77,"Velocity":60,"Duration":95706,"SoundDuration":95706,"Delta":297094184},{"NoteNumber":70,"Velocity":65,"Duration":95706,"SoundDuration":95706,"Delta":297189890},{"NoteNumber":77,"Velocity":60,"Duration":95706,"SoundDuration":95706,"Delta":297285596},{"NoteNumber":69,"Velocity":65,"Duration":95705,"SoundDuration":95705,"Delta":297381302},{"NoteNumber":60,"Velocity":66,"Duration":95705,"SoundDuration":95705,"Delta":297381302},{"NoteNumber":77,"Velocity":46,"Duration":102930,"SoundDuration":102930,"Delta":297477008},{"NoteNumber":68,"Velocity":44,"Duration":123884,"SoundDuration":123884,"Delta":297579938},{"NoteNumber":59,"Velocity":36,"Duration":123884,"SoundDuration":123884,"Delta":297579938},{"NoteNumber":77,"Velocity":36,"Duration":123885,"SoundDuration":123885,"Delta":297703823},{"NoteNumber":67,"Velocity":42,"Duration":116206,"SoundDuration":116206,"Delta":298249288},{"NoteNumber":58,"Velocity":36,"Duration":116206,"SoundDuration":116206,"Delta":298249288},{"NoteNumber":76,"Velocity":34,"Duration":116207,"SoundDuration":116207,"Delta":298365495},{"NoteNumber":66,"Velocity":43,"Duration":118971,"SoundDuration":118971,"Delta":298910238},{"NoteNumber":57,"Velocity":35,"Duration":118971,"SoundDuration":118971,"Delta":298910238},{"NoteNumber":75,"Velocity":36,"Duration":118972,"SoundDuration":118972,"Delta":299029210},{"NoteNumber":46,"Velocity":58,"Duration":99515,"SoundDuration":99515,"Delta":299567528},{"NoteNumber":58,"Velocity":61,"Duration":99515,"SoundDuration":99515,"Delta":299667044},{"NoteNumber":62,"Velocity":58,"Duration":99515,"SoundDuration":99515,"Delta":299766559},{"NoteNumber":67,"Velocity":59,"Duration":99515,"SoundDuration":99515,"Delta":299866075},{"NoteNumber":70,"Velocity":60,"Duration":99515,"SoundDuration":99515,"Delta":299965591},{"NoteNumber":74,"Velocity":61,"Duration":99515,"SoundDuration":99515,"Delta":300065107},{"NoteNumber":72,"Velocity":62,"Duration":109467,"SoundDuration":109467,"Delta":300164622},{"NoteNumber":52,"Velocity":45,"Duration":622395,"SoundDuration":622395,"Delta":300164622},{"NoteNumber":58,"Velocity":57,"Duration":622395,"SoundDuration":622395,"Delta":300164622},{"NoteNumber":48,"Velocity":45,"Duration":622395,"SoundDuration":622395,"Delta":300164622},{"NoteNumber":70,"Velocity":62,"Duration":109467,"SoundDuration":109467,"Delta":300264138},{"NoteNumber":69,"Velocity":60,"Duration":109467,"SoundDuration":109467,"Delta":300363654},{"NoteNumber":67,"Velocity":59,"Duration":110732,"SoundDuration":110732,"Delta":300463170},{"NoteNumber":65,"Velocity":57,"Duration":123382,"SoundDuration":123382,"Delta":300562685},{"NoteNumber":64,"Velocity":55,"Duration":122117,"SoundDuration":122117,"Delta":300674852},{"NoteNumber":65,"Velocity":58,"Duration":99515,"SoundDuration":99515,"Delta":300787018},{"NoteNumber":53,"Velocity":40,"Duration":199031,"SoundDuration":199031,"Delta":300787018},{"NoteNumber":57,"Velocity":51,"Duration":199031,"SoundDuration":199031,"Delta":300787018},{"NoteNumber":60,"Velocity":49,"Duration":199031,"SoundDuration":199031,"Delta":300986049},{"NoteNumber":60,"Velocity":49,"Duration":153970,"SoundDuration":153970,"Delta":301185081},{"NoteNumber":64,"Velocity":41,"Duration":54454,"SoundDuration":54454,"Delta":301339051},{"NoteNumber":70,"Velocity":49,"Duration":796126,"SoundDuration":796126,"Delta":301393505},{"NoteNumber":48,"Velocity":41,"Duration":199031,"SoundDuration":199031,"Delta":301393505},{"NoteNumber":60,"Velocity":31,"Duration":99515,"SoundDuration":99515,"Delta":301592537},{"NoteNumber":58,"Velocity":24,"Duration":99515,"SoundDuration":99515,"Delta":301592537},{"NoteNumber":60,"Velocity":31,"Duration":99515,"SoundDuration":99515,"Delta":301791568},{"NoteNumber":58,"Velocity":24,"Duration":99515,"SoundDuration":99515,"Delta":301791568},{"NoteNumber":60,"Velocity":31,"Duration":99515,"SoundDuration":99515,"Delta":301990600},{"NoteNumber":58,"Velocity":24,"Duration":99515,"SoundDuration":99515,"Delta":301990600},{"NoteNumber":69,"Velocity":43,"Duration":99515,"SoundDuration":99515,"Delta":302189631},{"NoteNumber":60,"Velocity":31,"Duration":99515,"SoundDuration":99515,"Delta":302189631},{"NoteNumber":58,"Velocity":24,"Duration":99515,"SoundDuration":99515,"Delta":302189631},{"NoteNumber":67,"Velocity":43,"Duration":99515,"SoundDuration":99515,"Delta":302388663},{"NoteNumber":60,"Velocity":31,"Duration":99515,"SoundDuration":99515,"Delta":302388663},{"NoteNumber":58,"Velocity":24,"Duration":99515,"SoundDuration":99515,"Delta":302388663},{"NoteNumber":67,"Velocity":49,"Duration":199031,"SoundDuration":199031,"Delta":302596302},{"NoteNumber":53,"Velocity":41,"Duration":199031,"SoundDuration":199031,"Delta":302596302},{"NoteNumber":65,"Velocity":45,"Duration":398063,"SoundDuration":398063,"Delta":302795334},{"NoteNumber":57,"Velocity":24,"Duration":99515,"SoundDuration":99515,"Delta":302795334},{"NoteNumber":60,"Velocity":31,"Duration":99515,"SoundDuration":99515,"Delta":302795334},{"NoteNumber":57,"Velocity":24,"Duration":99515,"SoundDuration":99515,"Delta":302994365},{"NoteNumber":60,"Velocity":31,"Duration":99515,"SoundDuration":99515,"Delta":302994365},{"NoteNumber":65,"Velocity":45,"Duration":552835,"SoundDuration":552835,"Delta":303193397},{"NoteNumber":60,"Velocity":31,"Duration":99515,"SoundDuration":99515,"Delta":303193397},{"NoteNumber":57,"Velocity":24,"Duration":99515,"SoundDuration":99515,"Delta":303193397},{"NoteNumber":60,"Velocity":31,"Duration":99515,"SoundDuration":99515,"Delta":303392428},{"NoteNumber":57,"Velocity":24,"Duration":99515,"SoundDuration":99515,"Delta":303392428},{"NoteNumber":60,"Velocity":31,"Duration":99515,"SoundDuration":99515,"Delta":303591460},{"NoteNumber":57,"Velocity":24,"Duration":99515,"SoundDuration":99515,"Delta":303591460},{"NoteNumber":64,"Velocity":41,"Duration":55256,"SoundDuration":55256,"Delta":303746232},{"NoteNumber":70,"Velocity":49,"Duration":796126,"SoundDuration":796126,"Delta":303801489},{"NoteNumber":48,"Velocity":41,"Duration":199031,"SoundDuration":199031,"Delta":303801489},{"NoteNumber":55,"Velocity":24,"Duration":99515,"SoundDuration":99515,"Delta":304000521},{"NoteNumber":60,"Velocity":31,"Duration":99515,"SoundDuration":99515,"Delta":304000521},{"NoteNumber":55,"Velocity":24,"Duration":99515,"SoundDuration":99515,"Delta":304199552},{"NoteNumber":60,"Velocity":31,"Duration":99515,"SoundDuration":99515,"Delta":304199552},{"NoteNumber":55,"Velocity":24,"Duration":99515,"SoundDuration":99515,"Delta":304398584},{"NoteNumber":60,"Velocity":31,"Duration":99515,"SoundDuration":99515,"Delta":304398584},{"NoteNumber":69,"Velocity":43,"Duration":99515,"SoundDuration":99515,"Delta":304597615},{"NoteNumber":55,"Velocity":24,"Duration":99515,"SoundDuration":99515,"Delta":304597615},{"NoteNumber":60,"Velocity":31,"Duration":99515,"SoundDuration":99515,"Delta":304597615},{"NoteNumber":67,"Velocity":43,"Duration":99515,"SoundDuration":99515,"Delta":304796647},{"NoteNumber":55,"Velocity":24,"Duration":99515,"SoundDuration":99515,"Delta":304796647},{"NoteNumber":60,"Velocity":31,"Duration":99515,"SoundDuration":99515,"Delta":304796647},{"NoteNumber":71,"Velocity":51,"Duration":597094,"SoundDuration":597094,"Delta":305013598},{"NoteNumber":53,"Velocity":41,"Duration":199031,"SoundDuration":199031,"Delta":305013598},{"NoteNumber":57,"Velocity":24,"Duration":99515,"SoundDuration":99515,"Delta":305212629},{"NoteNumber":60,"Velocity":31,"Duration":99515,"SoundDuration":99515,"Delta":305212629},{"NoteNumber":57,"Velocity":24,"Duration":99515,"SoundDuration":99515,"Delta":305411661},{"NoteNumber":60,"Velocity":31,"Duration":99515,"SoundDuration":99515,"Delta":305411661},{"NoteNumber":72,"Velocity":45,"Duration":199031,"SoundDuration":199031,"Delta":305610692},{"NoteNumber":57,"Velocity":24,"Duration":99515,"SoundDuration":99515,"Delta":305610692},{"NoteNumber":60,"Velocity":31,"Duration":99515,"SoundDuration":99515,"Delta":305610692},{"NoteNumber":57,"Velocity":24,"Duration":99515,"SoundDuration":99515,"Delta":305809724},{"NoteNumber":60,"Velocity":31,"Duration":99515,"SoundDuration":99515,"Delta":305809724},{"NoteNumber":57,"Velocity":24,"Duration":99515,"SoundDuration":99515,"Delta":306008755},{"NoteNumber":60,"Velocity":31,"Duration":99515,"SoundDuration":99515,"Delta":306008755},{"NoteNumber":64,"Velocity":41,"Duration":54454,"SoundDuration":54454,"Delta":306158029},{"NoteNumber":70,"Velocity":49,"Duration":796126,"SoundDuration":796126,"Delta":306212483},{"NoteNumber":48,"Velocity":41,"Duration":199031,"SoundDuration":199031,"Delta":306212483},{"NoteNumber":60,"Velocity":31,"Duration":99515,"SoundDuration":99515,"Delta":306411515},{"NoteNumber":58,"Velocity":24,"Duration":99515,"SoundDuration":99515,"Delta":306411515},{"NoteNumber":60,"Velocity":31,"Duration":99515,"SoundDuration":99515,"Delta":306610546},{"NoteNumber":58,"Velocity":24,"Duration":99515,"SoundDuration":99515,"Delta":306610546},{"NoteNumber":60,"Velocity":31,"Duration":99515,"SoundDuration":99515,"Delta":306809578},{"NoteNumber":58,"Velocity":24,"Duration":99515,"SoundDuration":99515,"Delta":306809578},{"NoteNumber":69,"Velocity":43,"Duration":99515,"SoundDuration":99515,"Delta":307008609},{"NoteNumber":60,"Velocity":31,"Duration":99515,"SoundDuration":99515,"Delta":307008609},{"NoteNumber":58,"Velocity":24,"Duration":99515,"SoundDuration":99515,"Delta":307008609},{"NoteNumber":67,"Velocity":43,"Duration":99515,"SoundDuration":99515,"Delta":307207641},{"NoteNumber":58,"Velocity":24,"Duration":99515,"SoundDuration":99515,"Delta":307207641},{"NoteNumber":60,"Velocity":31,"Duration":99515,"SoundDuration":99515,"Delta":307207641},{"NoteNumber":65,"Velocity":54,"Duration":398062,"SoundDuration":398062,"Delta":307415280},{"NoteNumber":53,"Velocity":41,"Duration":199031,"SoundDuration":199031,"Delta":307415280},{"NoteNumber":57,"Velocity":24,"Duration":99515,"SoundDuration":99515,"Delta":307614312},{"NoteNumber":60,"Velocity":31,"Duration":99515,"SoundDuration":99515,"Delta":307614312},{"NoteNumber":69,"Velocity":60,"Duration":597094,"SoundDuration":597094,"Delta":307813343},{"NoteNumber":57,"Velocity":24,"Duration":99515,"SoundDuration":99515,"Delta":307813343},{"NoteNumber":60,"Velocity":31,"Duration":99515,"SoundDuration":99515,"Delta":307813343},{"NoteNumber":60,"Velocity":31,"Duration":99515,"SoundDuration":99515,"Delta":308012375},{"NoteNumber":57,"Velocity":24,"Duration":99515,"SoundDuration":99515,"Delta":308012375},{"NoteNumber":60,"Velocity":31,"Duration":99515,"SoundDuration":99515,"Delta":308211406},{"NoteNumber":57,"Velocity":24,"Duration":99515,"SoundDuration":99515,"Delta":308211406},{"NoteNumber":72,"Velocity":60,"Duration":597094,"SoundDuration":597094,"Delta":308410438},{"NoteNumber":60,"Velocity":31,"Duration":99515,"SoundDuration":99515,"Delta":308410438},{"NoteNumber":57,"Velocity":24,"Duration":99515,"SoundDuration":99515,"Delta":308410438},{"NoteNumber":48,"Velocity":41,"Duration":199031,"SoundDuration":199031,"Delta":308609469},{"NoteNumber":55,"Velocity":24,"Duration":99515,"SoundDuration":99515,"Delta":308808501},{"NoteNumber":60,"Velocity":31,"Duration":99515,"SoundDuration":99515,"Delta":308808501},{"NoteNumber":70,"Velocity":58,"Duration":597094,"SoundDuration":597094,"Delta":309007532},{"NoteNumber":60,"Velocity":31,"Duration":99515,"SoundDuration":99515,"Delta":309007532},{"NoteNumber":55,"Velocity":24,"Duration":99515,"SoundDuration":99515,"Delta":309007532},{"NoteNumber":58,"Velocity":24,"Duration":99515,"SoundDuration":99515,"Delta":309206564},{"NoteNumber":60,"Velocity":31,"Duration":99515,"SoundDuration":99515,"Delta":309206564},{"NoteNumber":60,"Velocity":31,"Duration":99515,"SoundDuration":99515,"Delta":309405595},{"NoteNumber":58,"Velocity":24,"Duration":99515,"SoundDuration":99515,"Delta":309405595},{"NoteNumber":67,"Velocity":50,"Duration":193886,"SoundDuration":193886,"Delta":309604627},{"NoteNumber":58,"Velocity":24,"Duration":96943,"SoundDuration":96943,"Delta":309604627},{"NoteNumber":60,"Velocity":31,"Duration":96943,"SoundDuration":96943,"Delta":309604627},{"NoteNumber":65,"Velocity":56,"Duration":199031,"SoundDuration":199031,"Delta":309798513},{"NoteNumber":60,"Velocity":41,"Duration":199031,"SoundDuration":199031,"Delta":309798513},{"NoteNumber":53,"Velocity":32,"Duration":199031,"SoundDuration":199031,"Delta":309798513},{"NoteNumber":57,"Velocity":32,"Duration":199031,"SoundDuration":199031,"Delta":309798513},{"NoteNumber":73,"Velocity":69,"Duration":597094,"SoundDuration":597094,"Delta":310395607},{"NoteNumber":85,"Velocity":82,"Duration":597094,"SoundDuration":597094,"Delta":310395607},{"NoteNumber":51,"Velocity":52,"Duration":597094,"SoundDuration":597094,"Delta":310395607},{"NoteNumber":55,"Velocity":52,"Duration":597094,"SoundDuration":597094,"Delta":310395607},{"NoteNumber":61,"Velocity":62,"Duration":597094,"SoundDuration":597094,"Delta":310395607},{"NoteNumber":74,"Velocity":74,"Duration":595711,"SoundDuration":595711,"Delta":310992702},{"NoteNumber":86,"Velocity":88,"Duration":595711,"SoundDuration":595711,"Delta":310992702},{"NoteNumber":62,"Velocity":68,"Duration":595711,"SoundDuration":595711,"Delta":310992702},{"NoteNumber":54,"Velocity":57,"Duration":595711,"SoundDuration":595711,"Delta":310992702},{"NoteNumber":50,"Velocity":57,"Duration":595711,"SoundDuration":595711,"Delta":310992702},{"NoteNumber":84,"Velocity":84,"Duration":595711,"SoundDuration":595711,"Delta":311588413},{"NoteNumber":74,"Velocity":71,"Duration":595711,"SoundDuration":595711,"Delta":311588413},{"NoteNumber":74,"Velocity":72,"Duration":595711,"SoundDuration":595711,"Delta":312184125},{"NoteNumber":82,"Velocity":85,"Duration":595711,"SoundDuration":595711,"Delta":312184125},{"NoteNumber":50,"Velocity":63,"Duration":595711,"SoundDuration":595711,"Delta":312184125},{"NoteNumber":62,"Velocity":74,"Duration":595711,"SoundDuration":595711,"Delta":312184125},{"NoteNumber":74,"Velocity":65,"Duration":595711,"SoundDuration":595711,"Delta":312779836},{"NoteNumber":81,"Velocity":76,"Duration":595711,"SoundDuration":595711,"Delta":312779836},{"NoteNumber":48,"Velocity":63,"Duration":595711,"SoundDuration":595711,"Delta":312779836},{"NoteNumber":60,"Velocity":74,"Duration":595711,"SoundDuration":595711,"Delta":312779836},{"NoteNumber":79,"Velocity":79,"Duration":595711,"SoundDuration":595711,"Delta":313375548},{"NoteNumber":74,"Velocity":67,"Duration":595711,"SoundDuration":595711,"Delta":313375548},{"NoteNumber":46,"Velocity":63,"Duration":595711,"SoundDuration":595711,"Delta":313375548},{"NoteNumber":58,"Velocity":74,"Duration":595711,"SoundDuration":595711,"Delta":313375548},{"NoteNumber":72,"Velocity":65,"Duration":629019,"SoundDuration":629019,"Delta":313971259},{"NoteNumber":78,"Velocity":76,"Duration":629019,"SoundDuration":629019,"Delta":313971259},{"NoteNumber":74,"Velocity":65,"Duration":629019,"SoundDuration":629019,"Delta":313971259},{"NoteNumber":45,"Velocity":63,"Duration":629019,"SoundDuration":629019,"Delta":313971259},{"NoteNumber":57,"Velocity":74,"Duration":629019,"SoundDuration":629019,"Delta":313971259},{"NoteNumber":79,"Velocity":65,"Duration":99285,"SoundDuration":99285,"Delta":314600278},{"NoteNumber":55,"Velocity":59,"Duration":198570,"SoundDuration":198570,"Delta":314600278},{"NoteNumber":74,"Velocity":54,"Duration":99285,"SoundDuration":99285,"Delta":314699563},{"NoteNumber":70,"Velocity":54,"Duration":96724,"SoundDuration":96724,"Delta":314798849},{"NoteNumber":58,"Velocity":54,"Duration":193448,"SoundDuration":193448,"Delta":314798849},{"NoteNumber":74,"Velocity":54,"Duration":96724,"SoundDuration":96724,"Delta":314895573},{"NoteNumber":79,"Velocity":65,"Duration":102683,"SoundDuration":102683,"Delta":314992297},{"NoteNumber":62,"Velocity":54,"Duration":205367,"SoundDuration":205367,"Delta":314992297},{"NoteNumber":74,"Velocity":54,"Duration":102683,"SoundDuration":102683,"Delta":315094981},{"NoteNumber":81,"Velocity":65,"Duration":98632,"SoundDuration":98632,"Delta":315197664},{"NoteNumber":54,"Velocity":59,"Duration":197264,"SoundDuration":197264,"Delta":315197664},{"NoteNumber":74,"Velocity":54,"Duration":98632,"SoundDuration":98632,"Delta":315296296},{"NoteNumber":72,"Velocity":54,"Duration":96104,"SoundDuration":96104,"Delta":315394929},{"NoteNumber":57,"Velocity":54,"Duration":192208,"SoundDuration":192208,"Delta":315394929},{"NoteNumber":74,"Velocity":54,"Duration":96104,"SoundDuration":96104,"Delta":315491033},{"NoteNumber":81,"Velocity":65,"Duration":100616,"SoundDuration":100616,"Delta":315587138},{"NoteNumber":62,"Velocity":54,"Duration":201233,"SoundDuration":201233,"Delta":315587138},{"NoteNumber":74,"Velocity":55,"Duration":100616,"SoundDuration":100616,"Delta":315687755},{"NoteNumber":82,"Velocity":65,"Duration":97987,"SoundDuration":97987,"Delta":315788372},{"NoteNumber":55,"Velocity":59,"Duration":195975,"SoundDuration":195975,"Delta":315788372},{"NoteNumber":79,"Velocity":55,"Duration":97987,"SoundDuration":97987,"Delta":315886360},{"NoteNumber":74,"Velocity":55,"Duration":97988,"SoundDuration":97988,"Delta":315984348},{"NoteNumber":58,"Velocity":54,"Duration":195976,"SoundDuration":195976,"Delta":315984348},{"NoteNumber":79,"Velocity":55,"Duration":97987,"SoundDuration":97987,"Delta":316082336},{"NoteNumber":82,"Velocity":65,"Duration":100616,"SoundDuration":100616,"Delta":316180324},{"NoteNumber":62,"Velocity":54,"Duration":201233,"SoundDuration":201233,"Delta":316180324},{"NoteNumber":79,"Velocity":55,"Duration":100616,"SoundDuration":100616,"Delta":316280941},{"NoteNumber":83,"Velocity":65,"Duration":97987,"SoundDuration":97987,"Delta":316381558},{"NoteNumber":53,"Velocity":59,"Duration":195975,"SoundDuration":195975,"Delta":316381558},{"NoteNumber":79,"Velocity":55,"Duration":97987,"SoundDuration":97987,"Delta":316479546},{"NoteNumber":74,"Velocity":55,"Duration":96104,"SoundDuration":96104,"Delta":316577534},{"NoteNumber":59,"Velocity":53,"Duration":192208,"SoundDuration":192208,"Delta":316577534},{"NoteNumber":79,"Velocity":55,"Duration":96104,"SoundDuration":96104,"Delta":316673638},{"NoteNumber":83,"Velocity":65,"Duration":100616,"SoundDuration":100616,"Delta":316769743},{"NoteNumber":62,"Velocity":53,"Duration":201233,"SoundDuration":201233,"Delta":316769743},{"NoteNumber":79,"Velocity":56,"Duration":100616,"SoundDuration":100616,"Delta":316870360},{"NoteNumber":84,"Velocity":65,"Duration":394528,"SoundDuration":394528,"Delta":316970977},{"NoteNumber":52,"Velocity":58,"Duration":394528,"SoundDuration":394528,"Delta":316970977},{"NoteNumber":86,"Velocity":59,"Duration":97352,"SoundDuration":97352,"Delta":317365506},{"NoteNumber":84,"Velocity":59,"Duration":97352,"SoundDuration":97352,"Delta":317462858},{"NoteNumber":82,"Velocity":65,"Duration":397140,"SoundDuration":397140,"Delta":317560210},{"NoteNumber":84,"Velocity":57,"Duration":97987,"SoundDuration":97987,"Delta":317957351},{"NoteNumber":82,"Velocity":57,"Duration":97987,"SoundDuration":97987,"Delta":318055339},{"NoteNumber":81,"Velocity":65,"Duration":399787,"SoundDuration":399787,"Delta":318153327},{"NoteNumber":72,"Velocity":54,"Duration":597051,"SoundDuration":597051,"Delta":318153327},{"NoteNumber":82,"Velocity":57,"Duration":98632,"SoundDuration":98632,"Delta":318553114},{"NoteNumber":81,"Velocity":57,"Duration":98632,"SoundDuration":98632,"Delta":318651746},{"NoteNumber":79,"Velocity":65,"Duration":399787,"SoundDuration":399787,"Delta":318750378},{"NoteNumber":70,"Velocity":44,"Duration":595762,"SoundDuration":595762,"Delta":318750378},{"NoteNumber":72,"Velocity":52,"Duration":595762,"SoundDuration":595762,"Delta":318750378},{"NoteNumber":81,"Velocity":59,"Duration":97987,"SoundDuration":97987,"Delta":319150165},{"NoteNumber":79,"Velocity":59,"Duration":97987,"SoundDuration":97987,"Delta":319248153},{"NoteNumber":77,"Velocity":65,"Duration":399787,"SoundDuration":399787,"Delta":319346141},{"NoteNumber":72,"Velocity":47,"Duration":595762,"SoundDuration":595762,"Delta":319346141},{"NoteNumber":69,"Velocity":40,"Duration":595762,"SoundDuration":595762,"Delta":319346141},{"NoteNumber":79,"Velocity":59,"Duration":97987,"SoundDuration":97987,"Delta":319745928},{"NoteNumber":77,"Velocity":59,"Duration":97987,"SoundDuration":97987,"Delta":319843916},{"NoteNumber":76,"Velocity":65,"Duration":399786,"SoundDuration":399786,"Delta":319941904},{"NoteNumber":70,"Velocity":39,"Duration":602379,"SoundDuration":602379,"Delta":319941904},{"NoteNumber":72,"Velocity":46,"Duration":602379,"SoundDuration":602379,"Delta":319941904},{"NoteNumber":67,"Velocity":39,"Duration":602379,"SoundDuration":602379,"Delta":319941904},{"NoteNumber":77,"Velocity":56,"Duration":101296,"SoundDuration":101296,"Delta":320341691},{"NoteNumber":76,"Velocity":56,"Duration":101296,"SoundDuration":101296,"Delta":320442988},{"NoteNumber":79,"Velocity":62,"Duration":109941,"SoundDuration":109941,"Delta":320544284},{"NoteNumber":65,"Velocity":44,"Duration":99946,"SoundDuration":99946,"Delta":320544284},{"NoteNumber":77,"Velocity":54,"Duration":109941,"SoundDuration":109941,"Delta":320644231},{"NoteNumber":76,"Velocity":54,"Duration":109941,"SoundDuration":109941,"Delta":320744178},{"NoteNumber":69,"Velocity":37,"Duration":99946,"SoundDuration":99946,"Delta":320744178},{"NoteNumber":77,"Velocity":54,"Duration":109941,"SoundDuration":109941,"Delta":320844124},{"NoteNumber":76,"Velocity":53,"Duration":110215,"SoundDuration":110215,"Delta":320944071},{"NoteNumber":72,"Velocity":37,"Duration":99946,"SoundDuration":99946,"Delta":320944071},{"NoteNumber":77,"Velocity":55,"Duration":112612,"SoundDuration":112612,"Delta":321044018},{"NoteNumber":81,"Velocity":59,"Duration":109213,"SoundDuration":109213,"Delta":321146701},{"NoteNumber":64,"Velocity":43,"Duration":99285,"SoundDuration":99285,"Delta":321146701},{"NoteNumber":79,"Velocity":55,"Duration":109213,"SoundDuration":109213,"Delta":321245987},{"NoteNumber":78,"Velocity":55,"Duration":109213,"SoundDuration":109213,"Delta":321345272},{"NoteNumber":67,"Velocity":37,"Duration":99285,"SoundDuration":99285,"Delta":321345272},{"NoteNumber":79,"Velocity":55,"Duration":109213,"SoundDuration":109213,"Delta":321444557},{"NoteNumber":78,"Velocity":55,"Duration":109624,"SoundDuration":109624,"Delta":321543842},{"NoteNumber":72,"Velocity":37,"Duration":99285,"SoundDuration":99285,"Delta":321543842},{"NoteNumber":79,"Velocity":55,"Duration":113319,"SoundDuration":113319,"Delta":321643128},{"NoteNumber":81,"Velocity":59,"Duration":109213,"SoundDuration":109213,"Delta":321746519},{"NoteNumber":69,"Velocity":46,"Duration":198570,"SoundDuration":198570,"Delta":321746519},{"NoteNumber":72,"Velocity":46,"Duration":198570,"SoundDuration":198570,"Delta":321746519},{"NoteNumber":65,"Velocity":46,"Duration":198570,"SoundDuration":198570,"Delta":321746519},{"NoteNumber":79,"Velocity":54,"Duration":109213,"SoundDuration":109213,"Delta":321845804},{"NoteNumber":77,"Velocity":54,"Duration":109213,"SoundDuration":109213,"Delta":321945089},{"NoteNumber":79,"Velocity":54,"Duration":109213,"SoundDuration":109213,"Delta":322044375},{"NoteNumber":81,"Velocity":54,"Duration":109213,"SoundDuration":109213,"Delta":322143660},{"NoteNumber":82,"Velocity":54,"Duration":109213,"SoundDuration":109213,"Delta":322242945},{"NoteNumber":84,"Velocity":59,"Duration":109213,"SoundDuration":109213,"Delta":322342230},{"NoteNumber":82,"Velocity":55,"Duration":109213,"SoundDuration":109213,"Delta":322441516},{"NoteNumber":81,"Velocity":55,"Duration":109213,"SoundDuration":109213,"Delta":322540801},{"NoteNumber":82,"Velocity":55,"Duration":109213,"SoundDuration":109213,"Delta":322640086},{"NoteNumber":84,"Velocity":55,"Duration":109624,"SoundDuration":109624,"Delta":322739371},{"NoteNumber":85,"Velocity":55,"Duration":113319,"SoundDuration":113319,"Delta":322838657},{"NoteNumber":86,"Velocity":59,"Duration":99285,"SoundDuration":99285,"Delta":322942048},{"NoteNumber":46,"Velocity":49,"Duration":99285,"SoundDuration":99285,"Delta":322942048},{"NoteNumber":74,"Velocity":55,"Duration":109213,"SoundDuration":109213,"Delta":323041333},{"NoteNumber":86,"Velocity":55,"Duration":109213,"SoundDuration":109213,"Delta":323140618},{"NoteNumber":58,"Velocity":40,"Duration":99285,"SoundDuration":99285,"Delta":323140618},{"NoteNumber":84,"Velocity":55,"Duration":109213,"SoundDuration":109213,"Delta":323239904},{"NoteNumber":82,"Velocity":55,"Duration":109213,"SoundDuration":109213,"Delta":323339189},{"NoteNumber":81,"Velocity":54,"Duration":109768,"SoundDuration":109768,"Delta":323438474},{"NoteNumber":79,"Velocity":59,"Duration":104836,"SoundDuration":104836,"Delta":323537759},{"NoteNumber":52,"Velocity":48,"Duration":104836,"SoundDuration":104836,"Delta":323537759},{"NoteNumber":78,"Velocity":54,"Duration":109213,"SoundDuration":109213,"Delta":323642596},{"NoteNumber":79,"Velocity":63,"Duration":109213,"SoundDuration":109213,"Delta":323741881},{"NoteNumber":64,"Velocity":43,"Duration":99285,"SoundDuration":99285,"Delta":323741881},{"NoteNumber":81,"Velocity":62,"Duration":109213,"SoundDuration":109213,"Delta":323841166},{"NoteNumber":82,"Velocity":60,"Duration":109483,"SoundDuration":109483,"Delta":323940452},{"NoteNumber":83,"Velocity":59,"Duration":111913,"SoundDuration":111913,"Delta":324039737},{"NoteNumber":84,"Velocity":59,"Duration":99285,"SoundDuration":99285,"Delta":324141722},{"NoteNumber":45,"Velocity":50,"Duration":99285,"SoundDuration":99285,"Delta":324141722},{"NoteNumber":72,"Velocity":60,"Duration":99285,"SoundDuration":99285,"Delta":324241007},{"NoteNumber":84,"Velocity":60,"Duration":99285,"SoundDuration":99285,"Delta":324340293},{"NoteNumber":57,"Velocity":43,"Duration":99285,"SoundDuration":99285,"Delta":324340293},{"NoteNumber":82,"Velocity":60,"Duration":99285,"SoundDuration":99285,"Delta":324439578},{"NoteNumber":81,"Velocity":60,"Duration":99285,"SoundDuration":99285,"Delta":324538863},{"NoteNumber":79,"Velocity":59,"Duration":99285,"SoundDuration":99285,"Delta":324638148},{"NoteNumber":77,"Velocity":59,"Duration":104836,"SoundDuration":104836,"Delta":324737434},{"NoteNumber":50,"Velocity":47,"Duration":104836,"SoundDuration":104836,"Delta":324737434},{"NoteNumber":76,"Velocity":56,"Duration":109213,"SoundDuration":109213,"Delta":324842270},{"NoteNumber":77,"Velocity":63,"Duration":109213,"SoundDuration":109213,"Delta":324941555},{"NoteNumber":62,"Velocity":40,"Duration":99285,"SoundDuration":99285,"Delta":324941555},{"NoteNumber":79,"Velocity":62,"Duration":109213,"SoundDuration":109213,"Delta":325040841},{"NoteNumber":80,"Velocity":60,"Duration":109213,"SoundDuration":109213,"Delta":325140126},{"NoteNumber":81,"Velocity":59,"Duration":99285,"SoundDuration":99285,"Delta":325239411},{"NoteNumber":82,"Velocity":59,"Duration":99285,"SoundDuration":99285,"Delta":325338696},{"NoteNumber":43,"Velocity":45,"Duration":99285,"SoundDuration":99285,"Delta":325338696},{"NoteNumber":84,"Velocity":60,"Duration":99285,"SoundDuration":99285,"Delta":325437982},{"NoteNumber":82,"Velocity":60,"Duration":99285,"SoundDuration":99285,"Delta":325537267},{"NoteNumber":45,"Velocity":47,"Duration":99285,"SoundDuration":99285,"Delta":325537267},{"NoteNumber":81,"Velocity":60,"Duration":99285,"SoundDuration":99285,"Delta":325636552},{"NoteNumber":79,"Velocity":60,"Duration":99285,"SoundDuration":99285,"Delta":325735837},{"NoteNumber":46,"Velocity":49,"Duration":99285,"SoundDuration":99285,"Delta":325735837},{"NoteNumber":77,"Velocity":59,"Duration":99285,"SoundDuration":99285,"Delta":325835123},{"NoteNumber":76,"Velocity":59,"Duration":104836,"SoundDuration":104836,"Delta":325934408},{"NoteNumber":48,"Velocity":51,"Duration":104836,"SoundDuration":104836,"Delta":325934408},{"NoteNumber":77,"Velocity":56,"Duration":109213,"SoundDuration":109213,"Delta":326039244},{"NoteNumber":76,"Velocity":63,"Duration":109213,"SoundDuration":109213,"Delta":326138530},{"NoteNumber":50,"Velocity":53,"Duration":99285,"SoundDuration":99285,"Delta":326138530},{"NoteNumber":74,"Velocity":62,"Duration":109213,"SoundDuration":109213,"Delta":326237815},{"NoteNumber":72,"Velocity":60,"Duration":109213,"SoundDuration":109213,"Delta":326337100},{"NoteNumber":52,"Velocity":55,"Duration":99285,"SoundDuration":99285,"Delta":326337100},{"NoteNumber":70,"Velocity":59,"Duration":109213,"SoundDuration":109213,"Delta":326436385},{"NoteNumber":69,"Velocity":56,"Duration":99285,"SoundDuration":99285,"Delta":326535671},{"NoteNumber":53,"Velocity":57,"Duration":99285,"SoundDuration":99285,"Delta":326535671},{"NoteNumber":72,"Velocity":61,"Duration":98632,"SoundDuration":98632,"Delta":326634956},{"NoteNumber":77,"Velocity":68,"Duration":98632,"SoundDuration":98632,"Delta":326733588},{"NoteNumber":79,"Velocity":62,"Duration":98632,"SoundDuration":98632,"Delta":326832220},{"NoteNumber":77,"Velocity":63,"Duration":98632,"SoundDuration":98632,"Delta":326930853},{"NoteNumber":45,"Velocity":49,"Duration":98632,"SoundDuration":98632,"Delta":326930853},{"NoteNumber":76,"Velocity":63,"Duration":98632,"SoundDuration":98632,"Delta":327029485},{"NoteNumber":74,"Velocity":60,"Duration":104836,"SoundDuration":104836,"Delta":327128117},{"NoteNumber":46,"Velocity":59,"Duration":104836,"SoundDuration":104836,"Delta":327128117},{"NoteNumber":72,"Velocity":53,"Duration":108495,"SoundDuration":108495,"Delta":327232954},{"NoteNumber":70,"Velocity":59,"Duration":108495,"SoundDuration":108495,"Delta":327331586},{"NoteNumber":69,"Velocity":54,"Duration":108495,"SoundDuration":108495,"Delta":327430218},{"NoteNumber":67,"Velocity":54,"Duration":108560,"SoundDuration":108560,"Delta":327528850},{"NoteNumber":47,"Velocity":50,"Duration":98632,"SoundDuration":98632,"Delta":327528850},{"NoteNumber":65,"Velocity":54,"Duration":109148,"SoundDuration":109148,"Delta":327627483},{"NoteNumber":64,"Velocity":59,"Duration":98632,"SoundDuration":98632,"Delta":327726768},{"NoteNumber":48,"Velocity":56,"Duration":98632,"SoundDuration":98632,"Delta":327726768},{"NoteNumber":65,"Velocity":58,"Duration":108495,"SoundDuration":108495,"Delta":327825400},{"NoteNumber":67,"Velocity":62,"Duration":108495,"SoundDuration":108495,"Delta":327924032},{"NoteNumber":65,"Velocity":61,"Duration":108495,"SoundDuration":108495,"Delta":328022665},{"NoteNumber":64,"Velocity":60,"Duration":108495,"SoundDuration":108495,"Delta":328121297},{"NoteNumber":62,"Velocity":59,"Duration":108474,"SoundDuration":108474,"Delta":328219929},{"NoteNumber":60,"Velocity":57,"Duration":108092,"SoundDuration":108092,"Delta":328318561},{"NoteNumber":62,"Velocity":57,"Duration":109358,"SoundDuration":109358,"Delta":328416791},{"NoteNumber":60,"Velocity":56,"Duration":110742,"SoundDuration":110742,"Delta":328516155},{"NoteNumber":58,"Velocity":55,"Duration":112163,"SoundDuration":112163,"Delta":328616768},{"NoteNumber":57,"Velocity":52,"Duration":117573,"SoundDuration":117573,"Delta":328718663},{"NoteNumber":55,"Velocity":51,"Duration":142748,"SoundDuration":142748,"Delta":328821962},{"NoteNumber":68,"Velocity":49,"Duration":796126,"SoundDuration":796126,"Delta":328964710},{"NoteNumber":53,"Velocity":41,"Duration":199031,"SoundDuration":199031,"Delta":328964710},{"NoteNumber":56,"Velocity":31,"Duration":199031,"SoundDuration":199031,"Delta":329163742},{"NoteNumber":60,"Velocity":31,"Duration":199031,"SoundDuration":199031,"Delta":329362773},{"NoteNumber":53,"Velocity":37,"Duration":199031,"SoundDuration":199031,"Delta":329561805},{"NoteNumber":67,"Velocity":43,"Duration":98632,"SoundDuration":98632,"Delta":329760836},{"NoteNumber":56,"Velocity":31,"Duration":197264,"SoundDuration":197264,"Delta":329760836},{"NoteNumber":65,"Velocity":43,"Duration":98632,"SoundDuration":98632,"Delta":329958101},{"NoteNumber":60,"Velocity":31,"Duration":206755,"SoundDuration":206755,"Delta":329958101},{"NoteNumber":71,"Velocity":49,"Duration":398062,"SoundDuration":398062,"Delta":330164857},{"NoteNumber":52,"Velocity":41,"Duration":199031,"SoundDuration":199031,"Delta":330164857},{"NoteNumber":55,"Velocity":31,"Duration":199031,"SoundDuration":199031,"Delta":330363888},{"NoteNumber":72,"Velocity":43,"Duration":199031,"SoundDuration":199031,"Delta":330562920},{"NoteNumber":60,"Velocity":31,"Duration":199031,"SoundDuration":199031,"Delta":330562920},{"NoteNumber":67,"Velocity":43,"Duration":398062,"SoundDuration":398062,"Delta":330761951},{"NoteNumber":52,"Velocity":36,"Duration":199031,"SoundDuration":199031,"Delta":330761951},{"NoteNumber":55,"Velocity":31,"Duration":199031,"SoundDuration":199031,"Delta":330960983},{"NoteNumber":60,"Velocity":31,"Duration":210029,"SoundDuration":210029,"Delta":331160014},{"NoteNumber":73,"Velocity":58,"Duration":796126,"SoundDuration":796126,"Delta":331370044},{"NoteNumber":52,"Velocity":41,"Duration":199031,"SoundDuration":199031,"Delta":331370044},{"NoteNumber":55,"Velocity":31,"Duration":199031,"SoundDuration":199031,"Delta":331569075},{"NoteNumber":58,"Velocity":31,"Duration":199031,"SoundDuration":199031,"Delta":331768107},{"NoteNumber":52,"Velocity":37,"Duration":199031,"SoundDuration":199031,"Delta":331967138},{"NoteNumber":72,"Velocity":49,"Duration":98632,"SoundDuration":98632,"Delta":332166170},{"NoteNumber":55,"Velocity":31,"Duration":197264,"SoundDuration":197264,"Delta":332166170},{"NoteNumber":70,"Velocity":49,"Duration":98632,"SoundDuration":98632,"Delta":332363434},{"NoteNumber":60,"Velocity":31,"Duration":206755,"SoundDuration":206755,"Delta":332363434},{"NoteNumber":68,"Velocity":60,"Duration":199031,"SoundDuration":199031,"Delta":332570190},{"NoteNumber":53,"Velocity":41,"Duration":199031,"SoundDuration":199031,"Delta":332570190},{"NoteNumber":70,"Velocity":42,"Duration":67990,"SoundDuration":67990,"Delta":332769222},{"NoteNumber":56,"Velocity":31,"Duration":203970,"SoundDuration":203970,"Delta":332769222},{"NoteNumber":68,"Velocity":42,"Duration":67990,"SoundDuration":67990,"Delta":332837212},{"NoteNumber":67,"Velocity":42,"Duration":67990,"SoundDuration":67990,"Delta":332905202},{"NoteNumber":68,"Velocity":51,"Duration":102683,"SoundDuration":102683,"Delta":332973192},{"NoteNumber":60,"Velocity":31,"Duration":218890,"SoundDuration":218890,"Delta":332973192},{"NoteNumber":70,"Velocity":44,"Duration":116206,"SoundDuration":116206,"Delta":333075876},{"NoteNumber":72,"Velocity":51,"Duration":397140,"SoundDuration":397140,"Delta":333192083},{"NoteNumber":53,"Velocity":36,"Duration":198570,"SoundDuration":198570,"Delta":333192083},{"NoteNumber":56,"Velocity":31,"Duration":198570,"SoundDuration":198570,"Delta":333390653},{"NoteNumber":60,"Velocity":31,"Duration":209798,"SoundDuration":209798,"Delta":333589224},{"NoteNumber":77,"Velocity":66,"Duration":603701,"SoundDuration":603701,"Delta":333799022},{"NoteNumber":56,"Velocity":47,"Duration":201233,"SoundDuration":201233,"Delta":333799022},{"NoteNumber":60,"Velocity":36,"Duration":201233,"SoundDuration":201233,"Delta":334000256},{"NoteNumber":65,"Velocity":36,"Duration":201233,"SoundDuration":201233,"Delta":334201490},{"NoteNumber":75,"Velocity":54,"Duration":397377,"SoundDuration":397377,"Delta":334402724},{"NoteNumber":55,"Velocity":44,"Duration":198688,"SoundDuration":198688,"Delta":334402724},{"NoteNumber":58,"Velocity":32,"Duration":198688,"SoundDuration":198688,"Delta":334601413},{"NoteNumber":77,"Velocity":50,"Duration":201355,"SoundDuration":201355,"Delta":334800101},{"NoteNumber":63,"Velocity":33,"Duration":201355,"SoundDuration":201355,"Delta":334800101},{"NoteNumber":75,"Velocity":57,"Duration":400027,"SoundDuration":400027,"Delta":335001457},{"NoteNumber":53,"Velocity":48,"Duration":200013,"SoundDuration":200013,"Delta":335001457},{"NoteNumber":56,"Velocity":36,"Duration":200013,"SoundDuration":200013,"Delta":335201471},{"NoteNumber":73,"Velocity":52,"Duration":200013,"SoundDuration":200013,"Delta":335401484},{"NoteNumber":61,"Velocity":36,"Duration":200013,"SoundDuration":200013,"Delta":335401484},{"NoteNumber":72,"Velocity":55,"Duration":606938,"SoundDuration":606938,"Delta":335601498},{"NoteNumber":51,"Velocity":45,"Duration":200013,"SoundDuration":200013,"Delta":335601498},{"NoteNumber":55,"Velocity":31,"Duration":200013,"SoundDuration":200013,"Delta":335801511},{"NoteNumber":60,"Velocity":31,"Duration":206910,"SoundDuration":206910,"Delta":336001525},{"NoteNumber":70,"Velocity":59,"Duration":397377,"SoundDuration":397377,"Delta":336208436},{"NoteNumber":49,"Velocity":46,"Duration":198688,"SoundDuration":198688,"Delta":336208436},{"NoteNumber":53,"Velocity":35,"Duration":198688,"SoundDuration":198688,"Delta":336407124},{"NoteNumber":68,"Velocity":53,"Duration":198688,"SoundDuration":198688,"Delta":336605813},{"NoteNumber":58,"Velocity":35,"Duration":198688,"SoundDuration":198688,"Delta":336605813},{"NoteNumber":67,"Velocity":57,"Duration":397377,"SoundDuration":397377,"Delta":336804501},{"NoteNumber":49,"Velocity":43,"Duration":198688,"SoundDuration":198688,"Delta":336804501},{"NoteNumber":53,"Velocity":36,"Duration":198688,"SoundDuration":198688,"Delta":337003190},{"NoteNumber":65,"Velocity":47,"Duration":211282,"SoundDuration":211282,"Delta":337201878},{"NoteNumber":59,"Velocity":34,"Duration":211282,"SoundDuration":211282,"Delta":337201878},{"NoteNumber":68,"Velocity":53,"Duration":596065,"SoundDuration":596065,"Delta":337413161},{"NoteNumber":48,"Velocity":43,"Duration":198688,"SoundDuration":198688,"Delta":337413161},{"NoteNumber":53,"Velocity":29,"Duration":198688,"SoundDuration":198688,"Delta":337611849},{"NoteNumber":60,"Velocity":30,"Duration":198688,"SoundDuration":198688,"Delta":337810538},{"NoteNumber":67,"Velocity":45,"Duration":198688,"SoundDuration":198688,"Delta":338009226},{"NoteNumber":48,"Velocity":39,"Duration":198688,"SoundDuration":198688,"Delta":338009226},{"NoteNumber":52,"Velocity":27,"Duration":198688,"SoundDuration":198688,"Delta":338207915},{"NoteNumber":60,"Velocity":27,"Duration":212781,"SoundDuration":212781,"Delta":338406603},{"NoteNumber":80,"Velocity":49,"Duration":794754,"SoundDuration":794754,"Delta":338619384},{"NoteNumber":68,"Velocity":41,"Duration":794754,"SoundDuration":794754,"Delta":338619384},{"NoteNumber":53,"Velocity":41,"Duration":198688,"SoundDuration":198688,"Delta":338619384},{"NoteNumber":56,"Velocity":31,"Duration":198688,"SoundDuration":198688,"Delta":338818073},{"NoteNumber":60,"Velocity":31,"Duration":198688,"SoundDuration":198688,"Delta":339016761},{"NoteNumber":53,"Velocity":37,"Duration":198688,"SoundDuration":198688,"Delta":339215450},{"NoteNumber":67,"Velocity":36,"Duration":98632,"SoundDuration":98632,"Delta":339414138},{"NoteNumber":79,"Velocity":43,"Duration":98632,"SoundDuration":98632,"Delta":339414138},{"NoteNumber":56,"Velocity":31,"Duration":197264,"SoundDuration":197264,"Delta":339414138},{"NoteNumber":77,"Velocity":43,"Duration":98632,"SoundDuration":98632,"Delta":339611403},{"NoteNumber":65,"Velocity":36,"Duration":98632,"SoundDuration":98632,"Delta":339611403},{"NoteNumber":60,"Velocity":31,"Duration":206755,"SoundDuration":206755,"Delta":339611403},{"NoteNumber":71,"Velocity":41,"Duration":398062,"SoundDuration":398062,"Delta":339818159},{"NoteNumber":83,"Velocity":49,"Duration":398062,"SoundDuration":398062,"Delta":339818159},{"NoteNumber":52,"Velocity":41,"Duration":199031,"SoundDuration":199031,"Delta":339818159},{"NoteNumber":55,"Velocity":31,"Duration":199031,"SoundDuration":199031,"Delta":340017190},{"NoteNumber":84,"Velocity":43,"Duration":199031,"SoundDuration":199031,"Delta":340216222},{"NoteNumber":72,"Velocity":36,"Duration":199031,"SoundDuration":199031,"Delta":340216222},{"NoteNumber":60,"Velocity":31,"Duration":199031,"SoundDuration":199031,"Delta":340216222},{"NoteNumber":67,"Velocity":36,"Duration":398062,"SoundDuration":398062,"Delta":340415253},{"NoteNumber":79,"Velocity":43,"Duration":398062,"SoundDuration":398062,"Delta":340415253},{"NoteNumber":52,"Velocity":36,"Duration":199031,"SoundDuration":199031,"Delta":340415253},{"NoteNumber":55,"Velocity":31,"Duration":199031,"SoundDuration":199031,"Delta":340614285},{"NoteNumber":60,"Velocity":31,"Duration":210029,"SoundDuration":210029,"Delta":340813316},{"NoteNumber":73,"Velocity":49,"Duration":796126,"SoundDuration":796126,"Delta":341023346},{"NoteNumber":85,"Velocity":58,"Duration":796126,"SoundDuration":796126,"Delta":341023346},{"NoteNumber":52,"Velocity":41,"Duration":199031,"SoundDuration":199031,"Delta":341023346},{"NoteNumber":55,"Velocity":31,"Duration":199031,"SoundDuration":199031,"Delta":341222377},{"NoteNumber":58,"Velocity":31,"Duration":199031,"SoundDuration":199031,"Delta":341421409},{"NoteNumber":52,"Velocity":37,"Duration":199031,"SoundDuration":199031,"Delta":341620440},{"NoteNumber":72,"Velocity":41,"Duration":98632,"SoundDuration":98632,"Delta":341819472},{"NoteNumber":84,"Velocity":49,"Duration":98632,"SoundDuration":98632,"Delta":341819472},{"NoteNumber":55,"Velocity":31,"Duration":197264,"SoundDuration":197264,"Delta":341819472},{"NoteNumber":82,"Velocity":49,"Duration":98632,"SoundDuration":98632,"Delta":342016736},{"NoteNumber":70,"Velocity":41,"Duration":98632,"SoundDuration":98632,"Delta":342016736},{"NoteNumber":60,"Velocity":31,"Duration":206755,"SoundDuration":206755,"Delta":342016736},{"NoteNumber":81,"Velocity":60,"Duration":403002,"SoundDuration":403002,"Delta":342223492},{"NoteNumber":69,"Velocity":51,"Duration":403002,"SoundDuration":403002,"Delta":342223492},{"NoteNumber":51,"Velocity":41,"Duration":199113,"SoundDuration":199113,"Delta":342226809},{"NoteNumber":54,"Velocity":31,"Duration":203970,"SoundDuration":203970,"Delta":342422524},{"NoteNumber":84,"Velocity":51,"Duration":218890,"SoundDuration":218890,"Delta":342626494},{"NoteNumber":72,"Velocity":43,"Duration":218890,"SoundDuration":218890,"Delta":342626494},{"NoteNumber":57,"Velocity":31,"Duration":218890,"SoundDuration":218890,"Delta":342626494},{"NoteNumber":82,"Velocity":51,"Duration":397140,"SoundDuration":397140,"Delta":342845385},{"NoteNumber":70,"Velocity":43,"Duration":397140,"SoundDuration":397140,"Delta":342845385},{"NoteNumber":50,"Velocity":36,"Duration":198570,"SoundDuration":198570,"Delta":342845385},{"NoteNumber":53,"Velocity":31,"Duration":198570,"SoundDuration":198570,"Delta":343043955},{"NoteNumber":58,"Velocity":31,"Duration":209798,"SoundDuration":209798,"Delta":343242526},{"NoteNumber":83,"Velocity":71,"Duration":603701,"SoundDuration":603701,"Delta":343452324},{"NoteNumber":71,"Velocity":56,"Duration":603701,"SoundDuration":603701,"Delta":343452324},{"NoteNumber":49,"Velocity":57,"Duration":201233,"SoundDuration":201233,"Delta":343452324},{"NoteNumber":53,"Velocity":46,"Duration":201233,"SoundDuration":201233,"Delta":343653558},{"NoteNumber":56,"Velocity":47,"Duration":201233,"SoundDuration":201233,"Delta":343854792},{"NoteNumber":72,"Velocity":56,"Duration":603701,"SoundDuration":603701,"Delta":344056026},{"NoteNumber":84,"Velocity":71,"Duration":603701,"SoundDuration":603701,"Delta":344056026},{"NoteNumber":48,"Velocity":55,"Duration":201233,"SoundDuration":201233,"Delta":344056026},{"NoteNumber":53,"Velocity":46,"Duration":201233,"SoundDuration":201233,"Delta":344257260},{"NoteNumber":56,"Velocity":46,"Duration":201233,"SoundDuration":201233,"Delta":344458494},{"NoteNumber":85,"Velocity":69,"Duration":603701,"SoundDuration":603701,"Delta":344659728},{"NoteNumber":73,"Velocity":54,"Duration":603701,"SoundDuration":603701,"Delta":344659728},{"NoteNumber":46,"Velocity":59,"Duration":201233,"SoundDuration":201233,"Delta":344659728},{"NoteNumber":52,"Velocity":39,"Duration":201233,"SoundDuration":201233,"Delta":344860962},{"NoteNumber":55,"Velocity":39,"Duration":201233,"SoundDuration":201233,"Delta":345062196},{"NoteNumber":72,"Velocity":56,"Duration":201233,"SoundDuration":201233,"Delta":345263430},{"NoteNumber":84,"Velocity":71,"Duration":201233,"SoundDuration":201233,"Delta":345263430},{"NoteNumber":44,"Velocity":45,"Duration":201233,"SoundDuration":201233,"Delta":345263430},{"NoteNumber":48,"Velocity":31,"Duration":201233,"SoundDuration":201233,"Delta":345464664},{"NoteNumber":53,"Velocity":31,"Duration":202716,"SoundDuration":202716,"Delta":345665898},{"NoteNumber":89,"Velocity":53,"Duration":101358,"SoundDuration":101358,"Delta":345767257},{"NoteNumber":72,"Velocity":51,"Duration":600040,"SoundDuration":600040,"Delta":345868615},{"NoteNumber":77,"Velocity":64,"Duration":550037,"SoundDuration":550037,"Delta":345868615},{"NoteNumber":48,"Velocity":45,"Duration":200013,"SoundDuration":200013,"Delta":345868615},{"NoteNumber":53,"Velocity":30,"Duration":200013,"SoundDuration":200013,"Delta":346068628},{"NoteNumber":56,"Velocity":30,"Duration":200013,"SoundDuration":200013,"Delta":346268642},{"NoteNumber":80,"Velocity":40,"Duration":50003,"SoundDuration":50003,"Delta":346418652},{"NoteNumber":76,"Velocity":51,"Duration":622265,"SoundDuration":622265,"Delta":346468655},{"NoteNumber":79,"Velocity":51,"Duration":622265,"SoundDuration":622265,"Delta":346468655},{"NoteNumber":48,"Velocity":38,"Duration":200013,"SoundDuration":200013,"Delta":346468655},{"NoteNumber":55,"Velocity":31,"Duration":200013,"SoundDuration":200013,"Delta":346668669},{"NoteNumber":58,"Velocity":31,"Duration":222238,"SoundDuration":222238,"Delta":346868682},{"NoteNumber":77,"Velocity":74,"Duration":100567,"SoundDuration":100567,"Delta":347090921},{"NoteNumber":53,"Velocity":67,"Duration":393578,"SoundDuration":393578,"Delta":347090921},{"NoteNumber":57,"Velocity":67,"Duration":393578,"SoundDuration":393578,"Delta":347090921},{"NoteNumber":72,"Velocity":62,"Duration":99285,"SoundDuration":99285,"Delta":347191488},{"NoteNumber":71,"Velocity":62,"Duration":97001,"SoundDuration":97001,"Delta":347290773},{"NoteNumber":72,"Velocity":62,"Duration":96724,"SoundDuration":96724,"Delta":347387775},{"NoteNumber":74,"Velocity":69,"Duration":102037,"SoundDuration":102037,"Delta":347484499},{"NoteNumber":72,"Velocity":62,"Duration":102683,"SoundDuration":102683,"Delta":347586537},{"NoteNumber":70,"Velocity":65,"Duration":97352,"SoundDuration":97352,"Delta":347689221},{"NoteNumber":55,"Velocity":67,"Duration":97352,"SoundDuration":97352,"Delta":347689221},{"NoteNumber":72,"Velocity":60,"Duration":97352,"SoundDuration":97352,"Delta":347786573},{"NoteNumber":70,"Velocity":65,"Duration":96104,"SoundDuration":96104,"Delta":347883925},{"NoteNumber":52,"Velocity":62,"Duration":96104,"SoundDuration":96104,"Delta":347883925},{"NoteNumber":72,"Velocity":59,"Duration":96104,"SoundDuration":96104,"Delta":347980029},{"NoteNumber":70,"Velocity":65,"Duration":100128,"SoundDuration":100128,"Delta":348076134},{"NoteNumber":48,"Velocity":62,"Duration":100128,"SoundDuration":100128,"Delta":348076134},{"NoteNumber":72,"Velocity":59,"Duration":100617,"SoundDuration":100617,"Delta":348176262},{"NoteNumber":69,"Velocity":74,"Duration":99429,"SoundDuration":99429,"Delta":348276879},{"NoteNumber":53,"Velocity":67,"Duration":392440,"SoundDuration":392440,"Delta":348276879},{"NoteNumber":72,"Velocity":62,"Duration":99285,"SoundDuration":99285,"Delta":348376308},{"NoteNumber":71,"Velocity":62,"Duration":97001,"SoundDuration":97001,"Delta":348475594},{"NoteNumber":72,"Velocity":62,"Duration":96724,"SoundDuration":96724,"Delta":348572595},{"NoteNumber":77,"Velocity":74,"Duration":102037,"SoundDuration":102037,"Delta":348669320},{"NoteNumber":72,"Velocity":62,"Duration":102683,"SoundDuration":102683,"Delta":348771358},{"NoteNumber":70,"Velocity":65,"Duration":97987,"SoundDuration":97987,"Delta":348874041},{"NoteNumber":55,"Velocity":67,"Duration":97987,"SoundDuration":97987,"Delta":348874041},{"NoteNumber":72,"Velocity":60,"Duration":97987,"SoundDuration":97987,"Delta":348972029},{"NoteNumber":70,"Velocity":65,"Duration":95492,"SoundDuration":95492,"Delta":349070017},{"NoteNumber":52,"Velocity":62,"Duration":95492,"SoundDuration":95492,"Delta":349070017},{"NoteNumber":72,"Velocity":59,"Duration":95492,"SoundDuration":95492,"Delta":349165510},{"NoteNumber":70,"Velocity":65,"Duration":100061,"SoundDuration":100061,"Delta":349261003},{"NoteNumber":48,"Velocity":62,"Duration":100061,"SoundDuration":100061,"Delta":349261003},{"NoteNumber":72,"Velocity":59,"Duration":100617,"SoundDuration":100617,"Delta":349361064},{"NoteNumber":69,"Velocity":74,"Duration":99429,"SoundDuration":99429,"Delta":349461681},{"NoteNumber":53,"Velocity":67,"Duration":392440,"SoundDuration":392440,"Delta":349461681},{"NoteNumber":84,"Velocity":62,"Duration":99285,"SoundDuration":99285,"Delta":349561111},{"NoteNumber":83,"Velocity":62,"Duration":97001,"SoundDuration":97001,"Delta":349660396},{"NoteNumber":84,"Velocity":62,"Duration":96724,"SoundDuration":96724,"Delta":349757398},{"NoteNumber":86,"Velocity":72,"Duration":102037,"SoundDuration":102037,"Delta":349854122},{"NoteNumber":84,"Velocity":62,"Duration":102683,"SoundDuration":102683,"Delta":349956160},{"NoteNumber":82,"Velocity":65,"Duration":96104,"SoundDuration":96104,"Delta":350058844},{"NoteNumber":67,"Velocity":67,"Duration":96104,"SoundDuration":96104,"Delta":350058844},{"NoteNumber":84,"Velocity":60,"Duration":96104,"SoundDuration":96104,"Delta":350154948},{"NoteNumber":82,"Velocity":65,"Duration":96104,"SoundDuration":96104,"Delta":350251053},{"NoteNumber":64,"Velocity":62,"Duration":96104,"SoundDuration":96104,"Delta":350251053},{"NoteNumber":84,"Velocity":59,"Duration":96104,"SoundDuration":96104,"Delta":350347157},{"NoteNumber":82,"Velocity":65,"Duration":100128,"SoundDuration":100128,"Delta":350443262},{"NoteNumber":60,"Velocity":62,"Duration":100128,"SoundDuration":100128,"Delta":350443262},{"NoteNumber":84,"Velocity":59,"Duration":100617,"SoundDuration":100617,"Delta":350543390},{"NoteNumber":81,"Velocity":74,"Duration":99429,"SoundDuration":99429,"Delta":350644007},{"NoteNumber":65,"Velocity":67,"Duration":392440,"SoundDuration":392440,"Delta":350644007},{"NoteNumber":84,"Velocity":62,"Duration":99285,"SoundDuration":99285,"Delta":350743436},{"NoteNumber":83,"Velocity":62,"Duration":97001,"SoundDuration":97001,"Delta":350842721},{"NoteNumber":84,"Velocity":62,"Duration":96724,"SoundDuration":96724,"Delta":350939723},{"NoteNumber":89,"Velocity":69,"Duration":102037,"SoundDuration":102037,"Delta":351036447},{"NoteNumber":84,"Velocity":62,"Duration":102683,"SoundDuration":102683,"Delta":351138485},{"NoteNumber":82,"Velocity":65,"Duration":96104,"SoundDuration":96104,"Delta":351241169},{"NoteNumber":67,"Velocity":67,"Duration":96104,"SoundDuration":96104,"Delta":351241169},{"NoteNumber":84,"Velocity":60,"Duration":96104,"SoundDuration":96104,"Delta":351337273},{"NoteNumber":82,"Velocity":65,"Duration":96104,"SoundDuration":96104,"Delta":351433378},{"NoteNumber":64,"Velocity":62,"Duration":96104,"SoundDuration":96104,"Delta":351433378},{"NoteNumber":84,"Velocity":59,"Duration":96104,"SoundDuration":96104,"Delta":351529482},{"NoteNumber":82,"Velocity":65,"Duration":100128,"SoundDuration":100128,"Delta":351625587},{"NoteNumber":60,"Velocity":62,"Duration":100128,"SoundDuration":100128,"Delta":351625587},{"NoteNumber":84,"Velocity":59,"Duration":100616,"SoundDuration":100616,"Delta":351725715},{"NoteNumber":81,"Velocity":74,"Duration":99429,"SoundDuration":99429,"Delta":351826332},{"NoteNumber":65,"Velocity":67,"Duration":392440,"SoundDuration":392440,"Delta":351826332},{"NoteNumber":84,"Velocity":62,"Duration":99285,"SoundDuration":99285,"Delta":351925761},{"NoteNumber":89,"Velocity":71,"Duration":97001,"SoundDuration":97001,"Delta":352025047},{"NoteNumber":81,"Velocity":60,"Duration":96724,"SoundDuration":96724,"Delta":352122048},{"NoteNumber":79,"Velocity":70,"Duration":102037,"SoundDuration":102037,"Delta":352218773},{"NoteNumber":88,"Velocity":62,"Duration":101670,"SoundDuration":101670,"Delta":352320811},{"NoteNumber":77,"Velocity":70,"Duration":98054,"SoundDuration":98054,"Delta":352422481},{"NoteNumber":86,"Velocity":62,"Duration":96789,"SoundDuration":96789,"Delta":352520536},{"NoteNumber":76,"Velocity":69,"Duration":94979,"SoundDuration":94979,"Delta":352617325},{"NoteNumber":84,"Velocity":60,"Duration":94739,"SoundDuration":94739,"Delta":352712304},{"NoteNumber":74,"Velocity":67,"Duration":94292,"SoundDuration":94292,"Delta":352807044},{"NoteNumber":82,"Velocity":58,"Duration":94535,"SoundDuration":94535,"Delta":352901336},{"NoteNumber":72,"Velocity":69,"Duration":93703,"SoundDuration":93703,"Delta":352995872},{"NoteNumber":81,"Velocity":62,"Duration":93703,"SoundDuration":93703,"Delta":353089575},{"NoteNumber":70,"Velocity":67,"Duration":93703,"SoundDuration":93703,"Delta":353183278},{"NoteNumber":79,"Velocity":59,"Duration":93703,"SoundDuration":93703,"Delta":353276981},{"NoteNumber":69,"Velocity":66,"Duration":93703,"SoundDuration":93703,"Delta":353370685},{"NoteNumber":77,"Velocity":56,"Duration":93703,"SoundDuration":93703,"Delta":353464388},{"NoteNumber":67,"Velocity":62,"Duration":96582,"SoundDuration":96582,"Delta":353558091},{"NoteNumber":76,"Velocity":54,"Duration":98150,"SoundDuration":98150,"Delta":353654673},{"NoteNumber":65,"Velocity":63,"Duration":99451,"SoundDuration":99451,"Delta":353752823},{"NoteNumber":74,"Velocity":55,"Duration":100788,"SoundDuration":100788,"Delta":353852275},{"NoteNumber":64,"Velocity":62,"Duration":102160,"SoundDuration":102160,"Delta":353953063},{"NoteNumber":72,"Velocity":51,"Duration":103571,"SoundDuration":103571,"Delta":354055224},{"NoteNumber":71,"Velocity":55,"Duration":595780,"SoundDuration":595780,"Delta":354158796},{"NoteNumber":62,"Velocity":45,"Duration":595780,"SoundDuration":595780,"Delta":354158796},{"NoteNumber":50,"Velocity":49,"Duration":215833,"SoundDuration":215833,"Delta":354360030},{"NoteNumber":53,"Velocity":52,"Duration":218168,"SoundDuration":218168,"Delta":354556006},{"NoteNumber":70,"Velocity":55,"Duration":591845,"SoundDuration":591845,"Delta":354754576},{"NoteNumber":61,"Velocity":45,"Duration":591845,"SoundDuration":591845,"Delta":354754576},{"NoteNumber":56,"Velocity":54,"Duration":215573,"SoundDuration":215573,"Delta":354754576},{"NoteNumber":55,"Velocity":49,"Duration":215965,"SoundDuration":215965,"Delta":354950552},{"NoteNumber":53,"Velocity":49,"Duration":402486,"SoundDuration":402486,"Delta":355146528},{"NoteNumber":82,"Velocity":55,"Duration":594561,"SoundDuration":594561,"Delta":355346422},{"NoteNumber":73,"Velocity":45,"Duration":594561,"SoundDuration":594561,"Delta":355346422},{"NoteNumber":52,"Velocity":47,"Duration":214430,"SoundDuration":214430,"Delta":355549015},{"NoteNumber":55,"Velocity":49,"Duration":216734,"SoundDuration":216734,"Delta":355743719},{"NoteNumber":76,"Velocity":55,"Duration":589301,"SoundDuration":589301,"Delta":355940983},{"NoteNumber":67,"Velocity":45,"Duration":589301,"SoundDuration":589301,"Delta":355940983},{"NoteNumber":61,"Velocity":54,"Duration":214174,"SoundDuration":214174,"Delta":355940983},{"NoteNumber":60,"Velocity":49,"Duration":214693,"SoundDuration":214693,"Delta":356135687},{"NoteNumber":58,"Velocity":49,"Duration":220016,"SoundDuration":220016,"Delta":356330391},{"NoteNumber":57,"Velocity":38,"Duration":201233,"SoundDuration":201233,"Delta":356530285},{"NoteNumber":84,"Velocity":49,"Duration":97352,"SoundDuration":97352,"Delta":356731519},{"NoteNumber":84,"Velocity":49,"Duration":97352,"SoundDuration":97352,"Delta":356926223},{"NoteNumber":58,"Velocity":40,"Duration":201233,"SoundDuration":201233,"Delta":357120927},{"NoteNumber":86,"Velocity":49,"Duration":97352,"SoundDuration":97352,"Delta":357322161},{"NoteNumber":86,"Velocity":49,"Duration":101985,"SoundDuration":101985,"Delta":357516865},{"NoteNumber":72,"Velocity":39,"Duration":553393,"SoundDuration":553393,"Delta":357720835},{"NoteNumber":77,"Velocity":47,"Duration":553393,"SoundDuration":553393,"Delta":357720835},{"NoteNumber":69,"Velocity":40,"Duration":603701,"SoundDuration":603701,"Delta":357720835},{"NoteNumber":60,"Velocity":34,"Duration":1228354,"SoundDuration":1228354,"Delta":357720835},{"NoteNumber":81,"Velocity":40,"Duration":50308,"SoundDuration":50308,"Delta":358274229},{"NoteNumber":79,"Velocity":44,"Duration":624652,"SoundDuration":624652,"Delta":358324537},{"NoteNumber":76,"Velocity":37,"Duration":624652,"SoundDuration":624652,"Delta":358324537},{"NoteNumber":70,"Velocity":40,"Duration":624652,"SoundDuration":624652,"Delta":358324537},{"NoteNumber":77,"Velocity":74,"Duration":99429,"SoundDuration":99429,"Delta":358949190},{"NoteNumber":69,"Velocity":67,"Duration":392440,"SoundDuration":392440,"Delta":358949190},{"NoteNumber":65,"Velocity":67,"Duration":392440,"SoundDuration":392440,"Delta":358949190},{"NoteNumber":72,"Velocity":62,"Duration":99285,"SoundDuration":99285,"Delta":359048619},{"NoteNumber":71,"Velocity":62,"Duration":97001,"SoundDuration":97001,"Delta":359147905},{"NoteNumber":72,"Velocity":62,"Duration":96724,"SoundDuration":96724,"Delta":359244906},{"NoteNumber":74,"Velocity":68,"Duration":102037,"SoundDuration":102037,"Delta":359341631},{"NoteNumber":72,"Velocity":62,"Duration":102683,"SoundDuration":102683,"Delta":359443669},{"NoteNumber":70,"Velocity":65,"Duration":99071,"SoundDuration":99071,"Delta":359546352},{"NoteNumber":55,"Velocity":67,"Duration":99071,"SoundDuration":99071,"Delta":359546352},{"NoteNumber":72,"Velocity":60,"Duration":98632,"SoundDuration":98632,"Delta":359645423},{"NoteNumber":70,"Velocity":65,"Duration":96378,"SoundDuration":96378,"Delta":359744055},{"NoteNumber":52,"Velocity":62,"Duration":96378,"SoundDuration":96378,"Delta":359744055},{"NoteNumber":72,"Velocity":59,"Duration":96104,"SoundDuration":96104,"Delta":359840434},{"NoteNumber":70,"Velocity":65,"Duration":100128,"SoundDuration":100128,"Delta":359936538},{"NoteNumber":48,"Velocity":62,"Duration":100128,"SoundDuration":100128,"Delta":359936538},{"NoteNumber":72,"Velocity":59,"Duration":100617,"SoundDuration":100617,"Delta":360036666},{"NoteNumber":69,"Velocity":74,"Duration":99429,"SoundDuration":99429,"Delta":360137283},{"NoteNumber":53,"Velocity":67,"Duration":392440,"SoundDuration":392440,"Delta":360137283},{"NoteNumber":72,"Velocity":62,"Duration":99285,"SoundDuration":99285,"Delta":360236713},{"NoteNumber":71,"Velocity":62,"Duration":97001,"SoundDuration":97001,"Delta":360335998},{"NoteNumber":72,"Velocity":62,"Duration":96724,"SoundDuration":96724,"Delta":360433000},{"NoteNumber":77,"Velocity":74,"Duration":102037,"SoundDuration":102037,"Delta":360529724},{"NoteNumber":72,"Velocity":62,"Duration":102683,"SoundDuration":102683,"Delta":360631762},{"NoteNumber":70,"Velocity":65,"Duration":99071,"SoundDuration":99071,"Delta":360734446},{"NoteNumber":55,"Velocity":67,"Duration":99071,"SoundDuration":99071,"Delta":360734446},{"NoteNumber":72,"Velocity":60,"Duration":98632,"SoundDuration":98632,"Delta":360833517},{"NoteNumber":70,"Velocity":65,"Duration":96378,"SoundDuration":96378,"Delta":360932149},{"NoteNumber":52,"Velocity":62,"Duration":96378,"SoundDuration":96378,"Delta":360932149},{"NoteNumber":72,"Velocity":59,"Duration":96104,"SoundDuration":96104,"Delta":361028527},{"NoteNumber":70,"Velocity":65,"Duration":100128,"SoundDuration":100128,"Delta":361124632},{"NoteNumber":48,"Velocity":62,"Duration":100128,"SoundDuration":100128,"Delta":361124632},{"NoteNumber":72,"Velocity":59,"Duration":100617,"SoundDuration":100617,"Delta":361224760},{"NoteNumber":69,"Velocity":74,"Duration":99429,"SoundDuration":99429,"Delta":361325377},{"NoteNumber":53,"Velocity":67,"Duration":392440,"SoundDuration":392440,"Delta":361325377},{"NoteNumber":84,"Velocity":62,"Duration":99285,"SoundDuration":99285,"Delta":361424806},{"NoteNumber":83,"Velocity":62,"Duration":97001,"SoundDuration":97001,"Delta":361524092},{"NoteNumber":84,"Velocity":62,"Duration":96724,"SoundDuration":96724,"Delta":361621093},{"NoteNumber":86,"Velocity":72,"Duration":102037,"SoundDuration":102037,"Delta":361717818},{"NoteNumber":84,"Velocity":62,"Duration":102683,"SoundDuration":102683,"Delta":361819856},{"NoteNumber":82,"Velocity":65,"Duration":99071,"SoundDuration":99071,"Delta":361922539},{"NoteNumber":67,"Velocity":67,"Duration":99071,"SoundDuration":99071,"Delta":361922539},{"NoteNumber":84,"Velocity":60,"Duration":98632,"SoundDuration":98632,"Delta":362021610},{"NoteNumber":82,"Velocity":65,"Duration":96378,"SoundDuration":96378,"Delta":362120242},{"NoteNumber":64,"Velocity":62,"Duration":96378,"SoundDuration":96378,"Delta":362120242},{"NoteNumber":84,"Velocity":59,"Duration":96104,"SoundDuration":96104,"Delta":362216621},{"NoteNumber":82,"Velocity":65,"Duration":100128,"SoundDuration":100128,"Delta":362312725},{"NoteNumber":60,"Velocity":62,"Duration":100128,"SoundDuration":100128,"Delta":362312725},{"NoteNumber":84,"Velocity":59,"Duration":100617,"SoundDuration":100617,"Delta":362412853},{"NoteNumber":81,"Velocity":74,"Duration":99429,"SoundDuration":99429,"Delta":362513470},{"NoteNumber":65,"Velocity":67,"Duration":392440,"SoundDuration":392440,"Delta":362513470},{"NoteNumber":84,"Velocity":62,"Duration":99285,"SoundDuration":99285,"Delta":362612900},{"NoteNumber":83,"Velocity":62,"Duration":97001,"SoundDuration":97001,"Delta":362712185},{"NoteNumber":84,"Velocity":62,"Duration":96724,"SoundDuration":96724,"Delta":362809187},{"NoteNumber":89,"Velocity":72,"Duration":102037,"SoundDuration":102037,"Delta":362905911},{"NoteNumber":84,"Velocity":62,"Duration":102683,"SoundDuration":102683,"Delta":363007949},{"NoteNumber":82,"Velocity":65,"Duration":99071,"SoundDuration":99071,"Delta":363110633},{"NoteNumber":67,"Velocity":67,"Duration":99071,"SoundDuration":99071,"Delta":363110633},{"NoteNumber":84,"Velocity":60,"Duration":98632,"SoundDuration":98632,"Delta":363209704},{"NoteNumber":82,"Velocity":65,"Duration":96378,"SoundDuration":96378,"Delta":363308336},{"NoteNumber":64,"Velocity":62,"Duration":96378,"SoundDuration":96378,"Delta":363308336},{"NoteNumber":84,"Velocity":59,"Duration":96104,"SoundDuration":96104,"Delta":363404714},{"NoteNumber":82,"Velocity":65,"Duration":100128,"SoundDuration":100128,"Delta":363500819},{"NoteNumber":60,"Velocity":62,"Duration":100128,"SoundDuration":100128,"Delta":363500819},{"NoteNumber":84,"Velocity":59,"Duration":100616,"SoundDuration":100616,"Delta":363600947},{"NoteNumber":81,"Velocity":74,"Duration":99429,"SoundDuration":99429,"Delta":363701564},{"NoteNumber":65,"Velocity":67,"Duration":393112,"SoundDuration":393112,"Delta":363701564},{"NoteNumber":84,"Velocity":62,"Duration":99285,"SoundDuration":99285,"Delta":363800993},{"NoteNumber":89,"Velocity":71,"Duration":97001,"SoundDuration":97001,"Delta":363900279},{"NoteNumber":81,"Velocity":60,"Duration":97395,"SoundDuration":97395,"Delta":363997280},{"NoteNumber":79,"Velocity":70,"Duration":99781,"SoundDuration":99781,"Delta":364094676},{"NoteNumber":88,"Velocity":62,"Duration":99160,"SoundDuration":99160,"Delta":364194457},{"NoteNumber":77,"Velocity":70,"Duration":98436,"SoundDuration":98436,"Delta":364293617},{"NoteNumber":86,"Velocity":62,"Duration":97121,"SoundDuration":97121,"Delta":364392054},{"NoteNumber":76,"Velocity":69,"Duration":96018,"SoundDuration":96018,"Delta":364489176},{"NoteNumber":84,"Velocity":60,"Duration":95125,"SoundDuration":95125,"Delta":364585195},{"NoteNumber":74,"Velocity":67,"Duration":94115,"SoundDuration":94115,"Delta":364680320},{"NoteNumber":82,"Velocity":58,"Duration":93272,"SoundDuration":93272,"Delta":364774436},{"NoteNumber":72,"Velocity":69,"Duration":92546,"SoundDuration":92546,"Delta":364867708},{"NoteNumber":81,"Velocity":62,"Duration":92547,"SoundDuration":92547,"Delta":364960255},{"NoteNumber":70,"Velocity":67,"Duration":92546,"SoundDuration":92546,"Delta":365052802},{"NoteNumber":79,"Velocity":59,"Duration":92547,"SoundDuration":92547,"Delta":365145349},{"NoteNumber":69,"Velocity":66,"Duration":92546,"SoundDuration":92546,"Delta":365237896},{"NoteNumber":77,"Velocity":56,"Duration":92547,"SoundDuration":92547,"Delta":365330443},{"NoteNumber":67,"Velocity":64,"Duration":92655,"SoundDuration":92655,"Delta":365422990},{"NoteNumber":76,"Velocity":55,"Duration":94868,"SoundDuration":94868,"Delta":365515646},{"NoteNumber":65,"Velocity":63,"Duration":97331,"SoundDuration":97331,"Delta":365610514},{"NoteNumber":74,"Velocity":55,"Duration":100661,"SoundDuration":100661,"Delta":365707846},{"NoteNumber":64,"Velocity":62,"Duration":102160,"SoundDuration":102160,"Delta":365808508},{"NoteNumber":72,"Velocity":51,"Duration":103571,"SoundDuration":103571,"Delta":365910669},{"NoteNumber":71,"Velocity":55,"Duration":595780,"SoundDuration":595780,"Delta":366014240},{"NoteNumber":62,"Velocity":45,"Duration":595780,"SoundDuration":595780,"Delta":366014240},{"NoteNumber":50,"Velocity":49,"Duration":215833,"SoundDuration":215833,"Delta":366215474},{"NoteNumber":53,"Velocity":52,"Duration":218168,"SoundDuration":218168,"Delta":366411450},{"NoteNumber":70,"Velocity":55,"Duration":591845,"SoundDuration":591845,"Delta":366610021},{"NoteNumber":61,"Velocity":45,"Duration":591845,"SoundDuration":591845,"Delta":366610021},{"NoteNumber":56,"Velocity":54,"Duration":215573,"SoundDuration":215573,"Delta":366610021},{"NoteNumber":55,"Velocity":49,"Duration":215965,"SoundDuration":215965,"Delta":366805997},{"NoteNumber":53,"Velocity":49,"Duration":402486,"SoundDuration":402486,"Delta":367001973},{"NoteNumber":82,"Velocity":55,"Duration":594561,"SoundDuration":594561,"Delta":367201866},{"NoteNumber":73,"Velocity":45,"Duration":594561,"SoundDuration":594561,"Delta":367201866},{"NoteNumber":52,"Velocity":47,"Duration":214430,"SoundDuration":214430,"Delta":367404459},{"NoteNumber":55,"Velocity":49,"Duration":216734,"SoundDuration":216734,"Delta":367599163},{"NoteNumber":76,"Velocity":55,"Duration":589301,"SoundDuration":589301,"Delta":367796428},{"NoteNumber":67,"Velocity":45,"Duration":589301,"SoundDuration":589301,"Delta":367796428},{"NoteNumber":61,"Velocity":54,"Duration":214174,"SoundDuration":214174,"Delta":367796428},{"NoteNumber":60,"Velocity":49,"Duration":214693,"SoundDuration":214693,"Delta":367991132},{"NoteNumber":58,"Velocity":49,"Duration":220016,"SoundDuration":220016,"Delta":368185836},{"NoteNumber":57,"Velocity":38,"Duration":201233,"SoundDuration":201233,"Delta":368385729},{"NoteNumber":84,"Velocity":49,"Duration":97352,"SoundDuration":97352,"Delta":368586963},{"NoteNumber":84,"Velocity":49,"Duration":97352,"SoundDuration":97352,"Delta":368781667},{"NoteNumber":58,"Velocity":40,"Duration":201233,"SoundDuration":201233,"Delta":368976371},{"NoteNumber":86,"Velocity":49,"Duration":97352,"SoundDuration":97352,"Delta":369177605},{"NoteNumber":86,"Velocity":49,"Duration":101985,"SoundDuration":101985,"Delta":369372309},{"NoteNumber":72,"Velocity":39,"Duration":1236960,"SoundDuration":1236960,"Delta":369576280},{"NoteNumber":77,"Velocity":47,"Duration":603701,"SoundDuration":603701,"Delta":369576280},{"NoteNumber":60,"Velocity":34,"Duration":603701,"SoundDuration":603701,"Delta":369576280},{"NoteNumber":69,"Velocity":40,"Duration":603701,"SoundDuration":603701,"Delta":369576280},{"NoteNumber":76,"Velocity":37,"Duration":633258,"SoundDuration":633258,"Delta":370179982},{"NoteNumber":58,"Velocity":32,"Duration":633258,"SoundDuration":633258,"Delta":370179982},{"NoteNumber":67,"Velocity":40,"Duration":633258,"SoundDuration":633258,"Delta":370179982},{"NoteNumber":83,"Velocity":71,"Duration":102683,"SoundDuration":102683,"Delta":370813240},{"NoteNumber":57,"Velocity":64,"Duration":205367,"SoundDuration":205367,"Delta":370813240},{"NoteNumber":84,"Velocity":55,"Duration":112612,"SoundDuration":112612,"Delta":370915923},{"NoteNumber":83,"Velocity":55,"Duration":109213,"SoundDuration":109213,"Delta":371018607},{"NoteNumber":60,"Velocity":53,"Duration":198570,"SoundDuration":198570,"Delta":371018607},{"NoteNumber":84,"Velocity":55,"Duration":109213,"SoundDuration":109213,"Delta":371117892},{"NoteNumber":83,"Velocity":55,"Duration":112583,"SoundDuration":112583,"Delta":371217177},{"NoteNumber":65,"Velocity":53,"Duration":204998,"SoundDuration":204998,"Delta":371217177},{"NoteNumber":84,"Velocity":55,"Duration":102683,"SoundDuration":102683,"Delta":371319493},{"NoteNumber":85,"Velocity":62,"Duration":111426,"SoundDuration":111426,"Delta":371422176},{"NoteNumber":58,"Velocity":61,"Duration":202592,"SoundDuration":202592,"Delta":371422176},{"NoteNumber":86,"Velocity":55,"Duration":111225,"SoundDuration":111225,"Delta":371523473},{"NoteNumber":85,"Velocity":55,"Duration":109213,"SoundDuration":109213,"Delta":371624769},{"NoteNumber":62,"Velocity":53,"Duration":198570,"SoundDuration":198570,"Delta":371624769},{"NoteNumber":86,"Velocity":55,"Duration":109213,"SoundDuration":109213,"Delta":371724055},{"NoteNumber":88,"Velocity":59,"Duration":110534,"SoundDuration":110534,"Delta":371823340},{"NoteNumber":67,"Velocity":50,"Duration":201089,"SoundDuration":201089,"Delta":371823340},{"NoteNumber":89,"Velocity":54,"Duration":100617,"SoundDuration":100617,"Delta":371923813},{"NoteNumber":72,"Velocity":39,"Duration":603701,"SoundDuration":603701,"Delta":372024430},{"NoteNumber":77,"Velocity":47,"Duration":553393,"SoundDuration":553393,"Delta":372024430},{"NoteNumber":60,"Velocity":38,"Duration":201233,"SoundDuration":201233,"Delta":372024430},{"NoteNumber":65,"Velocity":34,"Duration":201233,"SoundDuration":201233,"Delta":372225664},{"NoteNumber":69,"Velocity":34,"Duration":201233,"SoundDuration":201233,"Delta":372426898},{"NoteNumber":81,"Velocity":37,"Duration":50308,"SoundDuration":50308,"Delta":372577823},{"NoteNumber":79,"Velocity":43,"Duration":520543,"SoundDuration":520543,"Delta":372628132},{"NoteNumber":76,"Velocity":43,"Duration":416434,"SoundDuration":416434,"Delta":372628132},{"NoteNumber":60,"Velocity":39,"Duration":208217,"SoundDuration":208217,"Delta":372628132},{"NoteNumber":67,"Velocity":33,"Duration":208217,"SoundDuration":208217,"Delta":372836349},{"NoteNumber":70,"Velocity":33,"Duration":208217,"SoundDuration":208217,"Delta":373044567},{"NoteNumber":77,"Velocity":37,"Duration":104108,"SoundDuration":104108,"Delta":373148675},{"NoteNumber":77,"Velocity":71,"Duration":114519,"SoundDuration":114519,"Delta":373252784},{"NoteNumber":69,"Velocity":66,"Duration":406788,"SoundDuration":406788,"Delta":373252784},{"NoteNumber":65,"Velocity":56,"Duration":406788,"SoundDuration":406788,"Delta":373252784},{"NoteNumber":81,"Velocity":64,"Duration":114037,"SoundDuration":114037,"Delta":373356893},{"NoteNumber":84,"Velocity":67,"Duration":109213,"SoundDuration":109213,"Delta":373461002},{"NoteNumber":89,"Velocity":68,"Duration":109020,"SoundDuration":109020,"Delta":373560287},{"NoteNumber":88,"Velocity":69,"Duration":107087,"SoundDuration":107087,"Delta":373659572},{"NoteNumber":86,"Velocity":69,"Duration":107087,"SoundDuration":107087,"Delta":373756924},{"NoteNumber":84,"Velocity":71,"Duration":107087,"SoundDuration":107087,"Delta":373854276},{"NoteNumber":70,"Velocity":66,"Duration":389408,"SoundDuration":389408,"Delta":373854276},{"NoteNumber":60,"Velocity":56,"Duration":389408,"SoundDuration":389408,"Delta":373854276},{"NoteNumber":64,"Velocity":66,"Duration":389408,"SoundDuration":389408,"Delta":373854276},{"NoteNumber":86,"Velocity":67,"Duration":107087,"SoundDuration":107087,"Delta":373951628},{"NoteNumber":84,"Velocity":67,"Duration":107087,"SoundDuration":107087,"Delta":374048980},{"NoteNumber":82,"Velocity":67,"Duration":107087,"SoundDuration":107087,"Delta":374146332},{"NoteNumber":81,"Velocity":67,"Duration":108215,"SoundDuration":108215,"Delta":374243684},{"NoteNumber":79,"Velocity":67,"Duration":108632,"SoundDuration":108632,"Delta":374341036},{"NoteNumber":77,"Velocity":71,"Duration":114519,"SoundDuration":114519,"Delta":374449669},{"NoteNumber":65,"Velocity":56,"Duration":405482,"SoundDuration":405482,"Delta":374449669},{"NoteNumber":69,"Velocity":66,"Duration":405482,"SoundDuration":405482,"Delta":374449669},{"NoteNumber":81,"Velocity":64,"Duration":113971,"SoundDuration":113971,"Delta":374553778},{"NoteNumber":79,"Velocity":64,"Duration":108495,"SoundDuration":108495,"Delta":374657886},{"NoteNumber":77,"Velocity":68,"Duration":108367,"SoundDuration":108367,"Delta":374756519},{"NoteNumber":76,"Velocity":64,"Duration":107087,"SoundDuration":107087,"Delta":374855151},{"NoteNumber":74,"Velocity":64,"Duration":107087,"SoundDuration":107087,"Delta":374952503},{"NoteNumber":72,"Velocity":69,"Duration":107087,"SoundDuration":107087,"Delta":375049855},{"NoteNumber":70,"Velocity":66,"Duration":389408,"SoundDuration":389408,"Delta":375049855},{"NoteNumber":60,"Velocity":56,"Duration":389408,"SoundDuration":389408,"Delta":375049855},{"NoteNumber":64,"Velocity":56,"Duration":389408,"SoundDuration":389408,"Delta":375049855},{"NoteNumber":74,"Velocity":63,"Duration":107087,"SoundDuration":107087,"Delta":375147207},{"NoteNumber":72,"Velocity":63,"Duration":107087,"SoundDuration":107087,"Delta":375244559},{"NoteNumber":70,"Velocity":63,"Duration":107087,"SoundDuration":107087,"Delta":375341911},{"NoteNumber":69,"Velocity":63,"Duration":108137,"SoundDuration":108137,"Delta":375439263},{"NoteNumber":67,"Velocity":63,"Duration":107851,"SoundDuration":107851,"Delta":375536615},{"NoteNumber":65,"Velocity":71,"Duration":112183,"SoundDuration":112183,"Delta":375644466},{"NoteNumber":57,"Velocity":66,"Duration":399946,"SoundDuration":399946,"Delta":375644466},{"NoteNumber":53,"Velocity":56,"Duration":399946,"SoundDuration":399946,"Delta":375644466},{"NoteNumber":69,"Velocity":63,"Duration":111784,"SoundDuration":111784,"Delta":375746452},{"NoteNumber":67,"Velocity":63,"Duration":107786,"SoundDuration":107786,"Delta":375848437},{"NoteNumber":65,"Velocity":63,"Duration":107723,"SoundDuration":107723,"Delta":375946425},{"NoteNumber":64,"Velocity":63,"Duration":107087,"SoundDuration":107087,"Delta":376044413},{"NoteNumber":62,"Velocity":64,"Duration":107087,"SoundDuration":107087,"Delta":376141765},{"NoteNumber":60,"Velocity":71,"Duration":107087,"SoundDuration":107087,"Delta":376239117},{"NoteNumber":48,"Velocity":56,"Duration":389408,"SoundDuration":389408,"Delta":376239117},{"NoteNumber":52,"Velocity":56,"Duration":389408,"SoundDuration":389408,"Delta":376239117},{"NoteNumber":58,"Velocity":66,"Duration":389408,"SoundDuration":389408,"Delta":376239117},{"NoteNumber":62,"Velocity":64,"Duration":107087,"SoundDuration":107087,"Delta":376336469},{"NoteNumber":60,"Velocity":64,"Duration":107087,"SoundDuration":107087,"Delta":376433821},{"NoteNumber":58,"Velocity":64,"Duration":107087,"SoundDuration":107087,"Delta":376531173},{"NoteNumber":57,"Velocity":64,"Duration":108137,"SoundDuration":108137,"Delta":376628525},{"NoteNumber":55,"Velocity":64,"Duration":107851,"SoundDuration":107851,"Delta":376725877},{"NoteNumber":53,"Velocity":81,"Duration":100616,"SoundDuration":100616,"Delta":376833728},{"NoteNumber":41,"Velocity":70,"Duration":100616,"SoundDuration":100616,"Delta":376833728},{"NoteNumber":57,"Velocity":70,"Duration":100616,"SoundDuration":100616,"Delta":377034962},{"NoteNumber":45,"Velocity":63,"Duration":100616,"SoundDuration":100616,"Delta":377034962},{"NoteNumber":60,"Velocity":70,"Duration":100616,"SoundDuration":100616,"Delta":377236196},{"NoteNumber":48,"Velocity":63,"Duration":100616,"SoundDuration":100616,"Delta":377236196},{"NoteNumber":65,"Velocity":78,"Duration":100616,"SoundDuration":100616,"Delta":377437430},{"NoteNumber":53,"Velocity":70,"Duration":100616,"SoundDuration":100616,"Delta":377437430},{"NoteNumber":69,"Velocity":70,"Duration":100616,"SoundDuration":100616,"Delta":377638664},{"NoteNumber":57,"Velocity":64,"Duration":100616,"SoundDuration":100616,"Delta":377638664},{"NoteNumber":72,"Velocity":70,"Duration":100616,"SoundDuration":100616,"Delta":377839898},{"NoteNumber":60,"Velocity":64,"Duration":100616,"SoundDuration":100616,"Delta":377839898},{"NoteNumber":77,"Velocity":88,"Duration":200360,"SoundDuration":200360,"Delta":378041132},{"NoteNumber":65,"Velocity":74,"Duration":200360,"SoundDuration":200360,"Delta":378041132},{"NoteNumber":81,"Velocity":75,"Duration":400720,"SoundDuration":400720,"Delta":378642214},{"NoteNumber":84,"Velocity":90,"Duration":400720,"SoundDuration":400720,"Delta":378642214},{"NoteNumber":72,"Velocity":75,"Duration":400720,"SoundDuration":400720,"Delta":378642214},{"NoteNumber":65,"Velocity":74,"Duration":400720,"SoundDuration":400720,"Delta":378642214},{"NoteNumber":53,"Velocity":62,"Duration":400720,"SoundDuration":400720,"Delta":378642214},{"NoteNumber":87,"Velocity":94,"Duration":403415,"SoundDuration":403415,"Delta":379243295},{"NoteNumber":77,"Velocity":79,"Duration":403415,"SoundDuration":403415,"Delta":379243295},{"NoteNumber":84,"Velocity":81,"Duration":403415,"SoundDuration":403415,"Delta":379243295},{"NoteNumber":45,"Velocity":62,"Duration":403415,"SoundDuration":403415,"Delta":379243295},{"NoteNumber":57,"Velocity":74,"Duration":403415,"SoundDuration":403415,"Delta":379243295},{"NoteNumber":86,"Velocity":86,"Duration":403416,"SoundDuration":403416,"Delta":380453543},{"NoteNumber":77,"Velocity":74,"Duration":403416,"SoundDuration":403416,"Delta":380453543},{"NoteNumber":82,"Velocity":74,"Duration":403416,"SoundDuration":403416,"Delta":380453543},{"NoteNumber":46,"Velocity":62,"Duration":403416,"SoundDuration":403416,"Delta":380453543},{"NoteNumber":58,"Velocity":74,"Duration":403416,"SoundDuration":403416,"Delta":380453543},{"NoteNumber":80,"Velocity":74,"Duration":403415,"SoundDuration":403415,"Delta":381663791},{"NoteNumber":86,"Velocity":86,"Duration":403415,"SoundDuration":403415,"Delta":381663791},{"NoteNumber":89,"Velocity":74,"Duration":403415,"SoundDuration":403415,"Delta":381663791},{"NoteNumber":77,"Velocity":74,"Duration":403415,"SoundDuration":403415,"Delta":381663791},{"NoteNumber":47,"Velocity":62,"Duration":403415,"SoundDuration":403415,"Delta":381663791},{"NoteNumber":59,"Velocity":74,"Duration":403415,"SoundDuration":403415,"Delta":381663791},{"NoteNumber":60,"Velocity":39,"Duration":1208136,"SoundDuration":1208136,"Delta":382880679},{"NoteNumber":65,"Velocity":47,"Duration":1107458,"SoundDuration":1107458,"Delta":382880679},{"NoteNumber":57,"Velocity":42,"Duration":1208136,"SoundDuration":1208136,"Delta":382880679},{"NoteNumber":48,"Velocity":35,"Duration":1208136,"SoundDuration":1208136,"Delta":382880679},{"NoteNumber":69,"Velocity":47,"Duration":100678,"SoundDuration":100678,"Delta":383988137},{"NoteNumber":60,"Velocity":42,"Duration":1539977,"SoundDuration":1539977,"Delta":384088815},{"NoteNumber":67,"Velocity":50,"Duration":1027407,"SoundDuration":1027407,"Delta":384088815},{"NoteNumber":64,"Velocity":42,"Duration":1273854,"SoundDuration":1273854,"Delta":384088815},{"NoteNumber":58,"Velocity":42,"Duration":1273854,"SoundDuration":1273854,"Delta":384088815},{"NoteNumber":48,"Velocity":35,"Duration":1273854,"SoundDuration":1273854,"Delta":384088815},{"NoteNumber":65,"Velocity":41,"Duration":246446,"SoundDuration":246446,"Delta":385116223},{"NoteNumber":65,"Velocity":46,"Duration":266122,"SoundDuration":266122,"Delta":385362670},{"NoteNumber":57,"Velocity":42,"Duration":266122,"SoundDuration":266122,"Delta":385362670},{"NoteNumber":53,"Velocity":35,"Duration":266122,"SoundDuration":266122,"Delta":385362670},{"NoteNumber":57,"Velocity":71,"Duration":199031,"SoundDuration":199031,"Delta":385894915},{"NoteNumber":45,"Velocity":60,"Duration":199031,"SoundDuration":199031,"Delta":385894915},{"NoteNumber":58,"Velocity":78,"Duration":97352,"SoundDuration":97352,"Delta":386093947},{"NoteNumber":46,"Velocity":66,"Duration":97352,"SoundDuration":97352,"Delta":386093947},{"NoteNumber":67,"Velocity":73,"Duration":97352,"SoundDuration":97352,"Delta":386288651},{"NoteNumber":55,"Velocity":61,"Duration":97352,"SoundDuration":97352,"Delta":386288651},{"NoteNumber":59,"Velocity":72,"Duration":99946,"SoundDuration":99946,"Delta":386483355},{"NoteNumber":47,"Velocity":61,"Duration":99946,"SoundDuration":99946,"Delta":386483355},{"NoteNumber":60,"Velocity":78,"Duration":97352,"SoundDuration":97352,"Delta":386683248},{"NoteNumber":48,"Velocity":66,"Duration":97352,"SoundDuration":97352,"Delta":386683248},{"NoteNumber":69,"Velocity":73,"Duration":97352,"SoundDuration":97352,"Delta":386877952},{"NoteNumber":57,"Velocity":61,"Duration":97352,"SoundDuration":97352,"Delta":386877952},{"NoteNumber":61,"Velocity":73,"Duration":98632,"SoundDuration":98632,"Delta":387072656},{"NoteNumber":49,"Velocity":61,"Duration":98632,"SoundDuration":98632,"Delta":387072656},{"NoteNumber":62,"Velocity":78,"Duration":97352,"SoundDuration":97352,"Delta":387269921},{"NoteNumber":50,"Velocity":66,"Duration":97352,"SoundDuration":97352,"Delta":387269921},{"NoteNumber":70,"Velocity":72,"Duration":97352,"SoundDuration":97352,"Delta":387464625},{"NoteNumber":58,"Velocity":61,"Duration":97352,"SoundDuration":97352,"Delta":387464625},{"NoteNumber":64,"Velocity":72,"Duration":99285,"SoundDuration":99285,"Delta":387659329},{"NoteNumber":52,"Velocity":61,"Duration":99285,"SoundDuration":99285,"Delta":387659329},{"NoteNumber":82,"Velocity":68,"Duration":778816,"SoundDuration":778816,"Delta":387857899},{"NoteNumber":58,"Velocity":28,"Duration":574258,"SoundDuration":574258,"Delta":388442011},{"NoteNumber":60,"Velocity":28,"Duration":574258,"SoundDuration":574258,"Delta":388442011},{"NoteNumber":67,"Velocity":34,"Duration":574258,"SoundDuration":574258,"Delta":388442011},{"NoteNumber":64,"Velocity":28,"Duration":574258,"SoundDuration":574258,"Delta":388442011},{"NoteNumber":81,"Velocity":62,"Duration":94888,"SoundDuration":94888,"Delta":388636715},{"NoteNumber":79,"Velocity":61,"Duration":94888,"SoundDuration":94888,"Delta":388731604},{"NoteNumber":77,"Velocity":59,"Duration":94888,"SoundDuration":94888,"Delta":388826493},{"NoteNumber":76,"Velocity":57,"Duration":94888,"SoundDuration":94888,"Delta":388921382},{"NoteNumber":77,"Velocity":56,"Duration":97352,"SoundDuration":97352,"Delta":389016270},{"NoteNumber":60,"Velocity":41,"Duration":194704,"SoundDuration":194704,"Delta":389016270},{"NoteNumber":57,"Velocity":41,"Duration":194704,"SoundDuration":194704,"Delta":389016270},{"NoteNumber":65,"Velocity":49,"Duration":194704,"SoundDuration":194704,"Delta":389016270},{"NoteNumber":79,"Velocity":49,"Duration":97352,"SoundDuration":97352,"Delta":389210974},{"NoteNumber":81,"Velocity":54,"Duration":107913,"SoundDuration":107913,"Delta":389405678},{"NoteNumber":69,"Velocity":46,"Duration":389408,"SoundDuration":389408,"Delta":389621506},{"NoteNumber":72,"Velocity":46,"Duration":389408,"SoundDuration":389408,"Delta":389621506},{"NoteNumber":60,"Velocity":42,"Duration":389408,"SoundDuration":389408,"Delta":389621506},{"NoteNumber":70,"Velocity":40,"Duration":215827,"SoundDuration":215827,"Delta":390010914},{"NoteNumber":67,"Velocity":40,"Duration":215827,"SoundDuration":215827,"Delta":390010914},{"NoteNumber":61,"Velocity":42,"Duration":215827,"SoundDuration":215827,"Delta":390010914},{"NoteNumber":70,"Velocity":46,"Duration":625000,"SoundDuration":625000,"Delta":390226741},{"NoteNumber":67,"Velocity":46,"Duration":625000,"SoundDuration":625000,"Delta":390226741},{"NoteNumber":62,"Velocity":47,"Duration":823675,"SoundDuration":823675,"Delta":390226741},{"NoteNumber":65,"Velocity":41,"Duration":198675,"SoundDuration":198675,"Delta":390851742},{"NoteNumber":69,"Velocity":41,"Duration":198675,"SoundDuration":198675,"Delta":390851742},{"NoteNumber":57,"Velocity":71,"Duration":198675,"SoundDuration":198675,"Delta":391845119},{"NoteNumber":45,"Velocity":60,"Duration":198675,"SoundDuration":198675,"Delta":391845119},{"NoteNumber":58,"Velocity":78,"Duration":96780,"SoundDuration":96780,"Delta":392043795},{"NoteNumber":46,"Velocity":66,"Duration":96780,"SoundDuration":96780,"Delta":392043795},{"NoteNumber":67,"Velocity":73,"Duration":96780,"SoundDuration":96780,"Delta":392237356},{"NoteNumber":55,"Velocity":61,"Duration":96780,"SoundDuration":96780,"Delta":392237356},{"NoteNumber":59,"Velocity":72,"Duration":99344,"SoundDuration":99344,"Delta":392430917},{"NoteNumber":47,"Velocity":61,"Duration":99344,"SoundDuration":99344,"Delta":392430917},{"NoteNumber":60,"Velocity":78,"Duration":96780,"SoundDuration":96780,"Delta":392629605},{"NoteNumber":48,"Velocity":66,"Duration":96780,"SoundDuration":96780,"Delta":392629605},{"NoteNumber":69,"Velocity":73,"Duration":96780,"SoundDuration":96780,"Delta":392823166},{"NoteNumber":57,"Velocity":61,"Duration":96780,"SoundDuration":96780,"Delta":392823166},{"NoteNumber":61,"Velocity":73,"Duration":99344,"SoundDuration":99344,"Delta":393016727},{"NoteNumber":49,"Velocity":61,"Duration":99344,"SoundDuration":99344,"Delta":393016727},{"NoteNumber":62,"Velocity":78,"Duration":97409,"SoundDuration":97409,"Delta":393215416},{"NoteNumber":50,"Velocity":66,"Duration":97409,"SoundDuration":97409,"Delta":393215416},{"NoteNumber":70,"Velocity":72,"Duration":97409,"SoundDuration":97409,"Delta":393410234},{"NoteNumber":58,"Velocity":61,"Duration":97409,"SoundDuration":97409,"Delta":393410234},{"NoteNumber":64,"Velocity":72,"Duration":100006,"SoundDuration":100006,"Delta":393605052},{"NoteNumber":52,"Velocity":61,"Duration":100006,"SoundDuration":100006,"Delta":393605052},{"NoteNumber":82,"Velocity":68,"Duration":800053,"SoundDuration":800053,"Delta":393805065},{"NoteNumber":58,"Velocity":28,"Duration":579568,"SoundDuration":579568,"Delta":394405106},{"NoteNumber":60,"Velocity":28,"Duration":579568,"SoundDuration":579568,"Delta":394405106},{"NoteNumber":64,"Velocity":28,"Duration":579568,"SoundDuration":579568,"Delta":394405106},{"NoteNumber":67,"Velocity":34,"Duration":579568,"SoundDuration":579568,"Delta":394405106},{"NoteNumber":81,"Velocity":62,"Duration":94888,"SoundDuration":94888,"Delta":394605119},{"NoteNumber":79,"Velocity":61,"Duration":94888,"SoundDuration":94888,"Delta":394700008},{"NoteNumber":77,"Velocity":59,"Duration":94888,"SoundDuration":94888,"Delta":394794897},{"NoteNumber":76,"Velocity":57,"Duration":94888,"SoundDuration":94888,"Delta":394889786},{"NoteNumber":77,"Velocity":56,"Duration":55114,"SoundDuration":55114,"Delta":394984674},{"NoteNumber":57,"Velocity":41,"Duration":220458,"SoundDuration":220458,"Delta":394984674},{"NoteNumber":65,"Velocity":49,"Duration":220458,"SoundDuration":220458,"Delta":394984674},{"NoteNumber":60,"Velocity":41,"Duration":220458,"SoundDuration":220458,"Delta":394984674},{"NoteNumber":79,"Velocity":49,"Duration":55114,"SoundDuration":55114,"Delta":395039789},{"NoteNumber":81,"Velocity":49,"Duration":55114,"SoundDuration":55114,"Delta":395094904},{"NoteNumber":74,"Velocity":46,"Duration":69618,"SoundDuration":69618,"Delta":395622844},{"NoteNumber":58,"Velocity":32,"Duration":261456,"SoundDuration":261456,"Delta":395622844},{"NoteNumber":62,"Velocity":32,"Duration":261456,"SoundDuration":261456,"Delta":395622844},{"NoteNumber":65,"Velocity":41,"Duration":261456,"SoundDuration":261456,"Delta":395622844},{"NoteNumber":76,"Velocity":39,"Duration":69618,"SoundDuration":69618,"Delta":395692462},{"NoteNumber":77,"Velocity":39,"Duration":61109,"SoundDuration":61109,"Delta":395762081},{"NoteNumber":60,"Velocity":37,"Duration":1315973,"SoundDuration":1315973,"Delta":396329233},{"NoteNumber":65,"Velocity":44,"Duration":518661,"SoundDuration":518661,"Delta":396329233},{"NoteNumber":57,"Velocity":32,"Duration":630535,"SoundDuration":630535,"Delta":396329233},{"NoteNumber":48,"Velocity":27,"Duration":1315973,"SoundDuration":1315973,"Delta":396329233},{"NoteNumber":69,"Velocity":39,"Duration":111873,"SoundDuration":111873,"Delta":396847895},{"NoteNumber":67,"Velocity":44,"Duration":447494,"SoundDuration":447494,"Delta":396959768},{"NoteNumber":64,"Velocity":36,"Duration":447494,"SoundDuration":447494,"Delta":396959768},{"NoteNumber":58,"Velocity":28,"Duration":685438,"SoundDuration":685438,"Delta":396959768},{"NoteNumber":65,"Velocity":41,"Duration":237944,"SoundDuration":237944,"Delta":397407262},{"NoteNumber":65,"Velocity":41,"Duration":597319,"SoundDuration":597319,"Delta":397645206},{"NoteNumber":53,"Velocity":28,"Duration":597319,"SoundDuration":597319,"Delta":397645206},{"NoteNumber":57,"Velocity":24,"Duration":195975,"SoundDuration":195975,"Delta":397850573},{"NoteNumber":69,"Velocity":39,"Duration":195976,"SoundDuration":195976,"Delta":398046549},{"NoteNumber":60,"Velocity":24,"Duration":195976,"SoundDuration":195976,"Delta":398046549},{"NoteNumber":64,"Velocity":37,"Duration":597121,"SoundDuration":597121,"Delta":398242525},{"NoteNumber":72,"Velocity":44,"Duration":197264,"SoundDuration":197264,"Delta":398242525},{"NoteNumber":53,"Velocity":28,"Duration":597121,"SoundDuration":597121,"Delta":398242525},{"NoteNumber":70,"Velocity":39,"Duration":197264,"SoundDuration":197264,"Delta":398439790},{"NoteNumber":55,"Velocity":26,"Duration":197264,"SoundDuration":197264,"Delta":398439790},{"NoteNumber":67,"Velocity":39,"Duration":202592,"SoundDuration":202592,"Delta":398637054},{"NoteNumber":58,"Velocity":26,"Duration":202592,"SoundDuration":202592,"Delta":398637054},{"NoteNumber":65,"Velocity":44,"Duration":595762,"SoundDuration":595762,"Delta":398839647},{"NoteNumber":53,"Velocity":28,"Duration":595762,"SoundDuration":595762,"Delta":398839647},{"NoteNumber":60,"Velocity":40,"Duration":193976,"SoundDuration":193976,"Delta":399036912},{"NoteNumber":57,"Velocity":24,"Duration":197264,"SoundDuration":197264,"Delta":399036912},{"NoteNumber":69,"Velocity":40,"Duration":201233,"SoundDuration":201233,"Delta":399234176},{"NoteNumber":60,"Velocity":24,"Duration":201233,"SoundDuration":201233,"Delta":399234176},{"NoteNumber":64,"Velocity":37,"Duration":601811,"SoundDuration":601811,"Delta":399435410},{"NoteNumber":72,"Velocity":44,"Duration":197264,"SoundDuration":197264,"Delta":399435410},{"NoteNumber":53,"Velocity":28,"Duration":601811,"SoundDuration":601811,"Delta":399435410},{"NoteNumber":70,"Velocity":40,"Duration":197264,"SoundDuration":197264,"Delta":399632675},{"NoteNumber":55,"Velocity":24,"Duration":197264,"SoundDuration":197264,"Delta":399632675},{"NoteNumber":67,"Velocity":40,"Duration":207282,"SoundDuration":207282,"Delta":399829939},{"NoteNumber":58,"Velocity":24,"Duration":207282,"SoundDuration":207282,"Delta":399829939},{"NoteNumber":65,"Velocity":44,"Duration":201707,"SoundDuration":201707,"Delta":400037222},{"NoteNumber":53,"Velocity":28,"Duration":627748,"SoundDuration":627748,"Delta":400037222},{"NoteNumber":60,"Velocity":41,"Duration":198346,"SoundDuration":198346,"Delta":400238930},{"NoteNumber":57,"Velocity":24,"Duration":201707,"SoundDuration":201707,"Delta":400238930},{"NoteNumber":69,"Velocity":41,"Duration":224332,"SoundDuration":224332,"Delta":400440638},{"NoteNumber":60,"Velocity":24,"Duration":224332,"SoundDuration":224332,"Delta":400440638},{"NoteNumber":65,"Velocity":44,"Duration":207282,"SoundDuration":207282,"Delta":400664970},{"NoteNumber":53,"Velocity":28,"Duration":827440,"SoundDuration":827440,"Delta":400664970},{"NoteNumber":60,"Velocity":40,"Duration":251080,"SoundDuration":251080,"Delta":400872253},{"NoteNumber":57,"Velocity":24,"Duration":254258,"SoundDuration":254258,"Delta":400872253},{"NoteNumber":69,"Velocity":40,"Duration":365898,"SoundDuration":365898,"Delta":401126512},{"NoteNumber":60,"Velocity":24,"Duration":365898,"SoundDuration":365898,"Delta":401126512},{"NoteNumber":67,"Velocity":42,"Duration":937597,"SoundDuration":937597,"Delta":401492410},{"NoteNumber":58,"Velocity":36,"Duration":937597,"SoundDuration":937597,"Delta":401492410},{"NoteNumber":53,"Velocity":28,"Duration":1250130,"SoundDuration":1250130,"Delta":401492410},{"NoteNumber":41,"Velocity":23,"Duration":1250130,"SoundDuration":1250130,"Delta":401492410},{"NoteNumber":65,"Velocity":36,"Duration":312532,"SoundDuration":312532,"Delta":402430008},{"NoteNumber":57,"Velocity":31,"Duration":312532,"SoundDuration":312532,"Delta":402430008},{"NoteNumber":48,"Velocity":70,"Duration":385282,"SoundDuration":385282,"Delta":403367605},{"NoteNumber":39,"Velocity":59,"Duration":385282,"SoundDuration":385282,"Delta":403367605},{"NoteNumber":43,"Velocity":59,"Duration":385282,"SoundDuration":385282,"Delta":403367605},{"NoteNumber":36,"Velocity":59,"Duration":385282,"SoundDuration":385282,"Delta":403367605},{"NoteNumber":79,"Velocity":66,"Duration":105952,"SoundDuration":105952,"Delta":403463926},{"NoteNumber":78,"Velocity":68,"Duration":105952,"SoundDuration":105952,"Delta":403560246},{"NoteNumber":79,"Velocity":69,"Duration":105952,"SoundDuration":105952,"Delta":403656567},{"NoteNumber":84,"Velocity":70,"Duration":106272,"SoundDuration":106272,"Delta":403752887},{"NoteNumber":79,"Velocity":63,"Duration":109086,"SoundDuration":109086,"Delta":403849208},{"NoteNumber":77,"Velocity":70,"Duration":105276,"SoundDuration":105276,"Delta":403948724},{"NoteNumber":75,"Velocity":66,"Duration":105276,"SoundDuration":105276,"Delta":404044430},{"NoteNumber":74,"Velocity":64,"Duration":105276,"SoundDuration":105276,"Delta":404140136},{"NoteNumber":75,"Velocity":64,"Duration":105276,"SoundDuration":105276,"Delta":404235842},{"NoteNumber":79,"Velocity":70,"Duration":105591,"SoundDuration":105591,"Delta":404331548},{"NoteNumber":75,"Velocity":64,"Duration":108369,"SoundDuration":108369,"Delta":404427254},{"NoteNumber":74,"Velocity":70,"Duration":104609,"SoundDuration":104609,"Delta":404526113},{"NoteNumber":72,"Velocity":64,"Duration":104609,"SoundDuration":104609,"Delta":404621213},{"NoteNumber":71,"Velocity":64,"Duration":104609,"SoundDuration":104609,"Delta":404716312},{"NoteNumber":72,"Velocity":64,"Duration":104609,"SoundDuration":104609,"Delta":404811411},{"NoteNumber":75,"Velocity":70,"Duration":104985,"SoundDuration":104985,"Delta":404906510},{"NoteNumber":72,"Velocity":65,"Duration":108430,"SoundDuration":108430,"Delta":405001610},{"NoteNumber":68,"Velocity":70,"Duration":105276,"SoundDuration":105276,"Delta":405100469},{"NoteNumber":67,"Velocity":65,"Duration":105276,"SoundDuration":105276,"Delta":405196175},{"NoteNumber":66,"Velocity":65,"Duration":105276,"SoundDuration":105276,"Delta":405291881},{"NoteNumber":67,"Velocity":65,"Duration":105276,"SoundDuration":105276,"Delta":405387587},{"NoteNumber":72,"Velocity":70,"Duration":105791,"SoundDuration":105791,"Delta":405483293},{"NoteNumber":67,"Velocity":65,"Duration":110363,"SoundDuration":110363,"Delta":405578999},{"NoteNumber":65,"Velocity":70,"Duration":104609,"SoundDuration":104609,"Delta":405679853},{"NoteNumber":63,"Velocity":66,"Duration":104985,"SoundDuration":104985,"Delta":405774953},{"NoteNumber":62,"Velocity":66,"Duration":108745,"SoundDuration":108745,"Delta":405870052},{"NoteNumber":63,"Velocity":66,"Duration":108745,"SoundDuration":108745,"Delta":405968912},{"NoteNumber":67,"Velocity":70,"Duration":110982,"SoundDuration":110982,"Delta":406067771},{"NoteNumber":63,"Velocity":64,"Duration":131506,"SoundDuration":131506,"Delta":406166631},{"NoteNumber":60,"Velocity":70,"Duration":102746,"SoundDuration":102746,"Delta":406287863},{"NoteNumber":51,"Velocity":70,"Duration":102746,"SoundDuration":102746,"Delta":406287863},{"NoteNumber":72,"Velocity":64,"Duration":95547,"SoundDuration":95547,"Delta":406390610},{"NoteNumber":59,"Velocity":70,"Duration":95547,"SoundDuration":95547,"Delta":406486157},{"NoteNumber":50,"Velocity":66,"Duration":95547,"SoundDuration":95547,"Delta":406486157},{"NoteNumber":72,"Velocity":64,"Duration":95547,"SoundDuration":95547,"Delta":406581705},{"NoteNumber":60,"Velocity":70,"Duration":95547,"SoundDuration":95547,"Delta":406677252},{"NoteNumber":51,"Velocity":66,"Duration":95547,"SoundDuration":95547,"Delta":406677252},{"NoteNumber":72,"Velocity":64,"Duration":101536,"SoundDuration":101536,"Delta":406772800},{"NoteNumber":62,"Velocity":70,"Duration":95706,"SoundDuration":95706,"Delta":406874336},{"NoteNumber":53,"Velocity":70,"Duration":95706,"SoundDuration":95706,"Delta":406874336},{"NoteNumber":72,"Velocity":64,"Duration":95706,"SoundDuration":95706,"Delta":406970042},{"NoteNumber":60,"Velocity":65,"Duration":95706,"SoundDuration":95706,"Delta":407065748},{"NoteNumber":51,"Velocity":67,"Duration":95706,"SoundDuration":95706,"Delta":407065748},{"NoteNumber":72,"Velocity":58,"Duration":95706,"SoundDuration":95706,"Delta":407161454},{"NoteNumber":62,"Velocity":67,"Duration":95705,"SoundDuration":95705,"Delta":407257160},{"NoteNumber":53,"Velocity":67,"Duration":95705,"SoundDuration":95705,"Delta":407257160},{"NoteNumber":72,"Velocity":61,"Duration":100854,"SoundDuration":100854,"Delta":407352866},{"NoteNumber":64,"Velocity":70,"Duration":95099,"SoundDuration":95099,"Delta":407453720},{"NoteNumber":55,"Velocity":70,"Duration":95099,"SoundDuration":95099,"Delta":407453720},{"NoteNumber":72,"Velocity":60,"Duration":95099,"SoundDuration":95099,"Delta":407548819},{"NoteNumber":62,"Velocity":66,"Duration":95099,"SoundDuration":95099,"Delta":407643919},{"NoteNumber":53,"Velocity":67,"Duration":95099,"SoundDuration":95099,"Delta":407643919},{"NoteNumber":72,"Velocity":62,"Duration":95099,"SoundDuration":95099,"Delta":407739018},{"NoteNumber":64,"Velocity":67,"Duration":95099,"SoundDuration":95099,"Delta":407834117},{"NoteNumber":55,"Velocity":67,"Duration":95099,"SoundDuration":95099,"Delta":407834117},{"NoteNumber":72,"Velocity":62,"Duration":114740,"SoundDuration":114740,"Delta":407929216},{"NoteNumber":65,"Velocity":74,"Duration":96320,"SoundDuration":96320,"Delta":408043957},{"NoteNumber":56,"Velocity":74,"Duration":385282,"SoundDuration":385282,"Delta":408043957},{"NoteNumber":72,"Velocity":61,"Duration":96320,"SoundDuration":96320,"Delta":408140277},{"NoteNumber":65,"Velocity":65,"Duration":96320,"SoundDuration":96320,"Delta":408236598},{"NoteNumber":72,"Velocity":61,"Duration":96320,"SoundDuration":96320,"Delta":408332918},{"NoteNumber":63,"Velocity":65,"Duration":96320,"SoundDuration":96320,"Delta":408429239},{"NoteNumber":55,"Velocity":67,"Duration":96320,"SoundDuration":96320,"Delta":408429239},{"NoteNumber":72,"Velocity":60,"Duration":103641,"SoundDuration":103641,"Delta":408525559},{"NoteNumber":65,"Velocity":70,"Duration":95706,"SoundDuration":95706,"Delta":408629200},{"NoteNumber":56,"Velocity":74,"Duration":382824,"SoundDuration":382824,"Delta":408629200},{"NoteNumber":72,"Velocity":60,"Duration":95706,"SoundDuration":95706,"Delta":408724906},{"NoteNumber":65,"Velocity":65,"Duration":95706,"SoundDuration":95706,"Delta":408820612},{"NoteNumber":72,"Velocity":60,"Duration":95706,"SoundDuration":95706,"Delta":408916318},{"NoteNumber":63,"Velocity":65,"Duration":95705,"SoundDuration":95705,"Delta":409012024},{"NoteNumber":55,"Velocity":66,"Duration":95705,"SoundDuration":95705,"Delta":409012024},{"NoteNumber":72,"Velocity":54,"Duration":102930,"SoundDuration":102930,"Delta":409107730},{"NoteNumber":62,"Velocity":49,"Duration":199387,"SoundDuration":199387,"Delta":409210660},{"NoteNumber":54,"Velocity":44,"Duration":199387,"SoundDuration":199387,"Delta":409210660},{"NoteNumber":72,"Velocity":43,"Duration":95706,"SoundDuration":95706,"Delta":409306366},{"NoteNumber":63,"Velocity":52,"Duration":191412,"SoundDuration":191412,"Delta":409402072},{"NoteNumber":55,"Velocity":38,"Duration":191412,"SoundDuration":191412,"Delta":409402072},{"NoteNumber":72,"Velocity":45,"Duration":95706,"SoundDuration":95706,"Delta":409497778},{"NoteNumber":62,"Velocity":55,"Duration":199387,"SoundDuration":199387,"Delta":409593484},{"NoteNumber":54,"Velocity":55,"Duration":199387,"SoundDuration":199387,"Delta":409593484},{"NoteNumber":72,"Velocity":52,"Duration":95706,"SoundDuration":95706,"Delta":409689190},{"NoteNumber":63,"Velocity":59,"Duration":197691,"SoundDuration":197691,"Delta":409784896},{"NoteNumber":55,"Velocity":60,"Duration":197691,"SoundDuration":197691,"Delta":409784896},{"NoteNumber":72,"Velocity":59,"Duration":101985,"SoundDuration":101985,"Delta":409880602},{"NoteNumber":65,"Velocity":66,"Duration":198943,"SoundDuration":198943,"Delta":409982588},{"NoteNumber":56,"Velocity":63,"Duration":198943,"SoundDuration":198943,"Delta":409982588},{"NoteNumber":72,"Velocity":55,"Duration":95492,"SoundDuration":95492,"Delta":410078080},{"NoteNumber":63,"Velocity":52,"Duration":199134,"SoundDuration":199134,"Delta":410173573},{"NoteNumber":55,"Velocity":47,"Duration":199134,"SoundDuration":199134,"Delta":410173573},{"NoteNumber":72,"Velocity":43,"Duration":103641,"SoundDuration":103641,"Delta":410269066},{"NoteNumber":62,"Velocity":50,"Duration":198943,"SoundDuration":198943,"Delta":410372707},{"NoteNumber":54,"Velocity":47,"Duration":198943,"SoundDuration":198943,"Delta":410372707},{"NoteNumber":72,"Velocity":44,"Duration":95492,"SoundDuration":95492,"Delta":410468200},{"NoteNumber":63,"Velocity":54,"Duration":190985,"SoundDuration":190985,"Delta":410563693},{"NoteNumber":55,"Velocity":42,"Duration":190985,"SoundDuration":190985,"Delta":410563693},{"NoteNumber":72,"Velocity":49,"Duration":95492,"SoundDuration":95492,"Delta":410659185},{"NoteNumber":62,"Velocity":57,"Duration":198943,"SoundDuration":198943,"Delta":410754678},{"NoteNumber":54,"Velocity":59,"Duration":198943,"SoundDuration":198943,"Delta":410754678},{"NoteNumber":72,"Velocity":53,"Duration":95492,"SoundDuration":95492,"Delta":410850171},{"NoteNumber":63,"Velocity":59,"Duration":196789,"SoundDuration":196789,"Delta":410945664},{"NoteNumber":55,"Velocity":53,"Duration":196789,"SoundDuration":196789,"Delta":410945664},{"NoteNumber":72,"Velocity":55,"Duration":101296,"SoundDuration":101296,"Delta":411041156},{"NoteNumber":65,"Velocity":64,"Duration":198943,"SoundDuration":198943,"Delta":411142453},{"NoteNumber":56,"Velocity":64,"Duration":198943,"SoundDuration":198943,"Delta":411142453},{"NoteNumber":72,"Velocity":54,"Duration":95492,"SoundDuration":95492,"Delta":411237946},{"NoteNumber":63,"Velocity":56,"Duration":199134,"SoundDuration":199134,"Delta":411333438},{"NoteNumber":55,"Velocity":41,"Duration":199134,"SoundDuration":199134,"Delta":411333438},{"NoteNumber":72,"Velocity":43,"Duration":103641,"SoundDuration":103641,"Delta":411428931},{"NoteNumber":62,"Velocity":60,"Duration":77730,"SoundDuration":77730,"Delta":411532572},{"NoteNumber":54,"Velocity":42,"Duration":97987,"SoundDuration":97987,"Delta":411636214},{"NoteNumber":57,"Velocity":44,"Duration":97987,"SoundDuration":97987,"Delta":411734202},{"NoteNumber":60,"Velocity":46,"Duration":97988,"SoundDuration":97988,"Delta":411832190},{"NoteNumber":62,"Velocity":48,"Duration":103391,"SoundDuration":103391,"Delta":411930178},{"NoteNumber":66,"Velocity":51,"Duration":97987,"SoundDuration":97987,"Delta":412033569},{"NoteNumber":72,"Velocity":55,"Duration":77543,"SoundDuration":77543,"Delta":412131557},{"NoteNumber":62,"Velocity":48,"Duration":97352,"SoundDuration":97352,"Delta":412234948},{"NoteNumber":66,"Velocity":51,"Duration":97352,"SoundDuration":97352,"Delta":412332300},{"NoteNumber":69,"Velocity":53,"Duration":97352,"SoundDuration":97352,"Delta":412429652},{"NoteNumber":72,"Velocity":56,"Duration":77012,"SoundDuration":77012,"Delta":412527004},{"NoteNumber":78,"Velocity":53,"Duration":97352,"SoundDuration":97352,"Delta":412629688},{"NoteNumber":84,"Velocity":62,"Duration":97352,"SoundDuration":97352,"Delta":412727040},{"NoteNumber":82,"Velocity":61,"Duration":97352,"SoundDuration":97352,"Delta":412824392},{"NoteNumber":81,"Velocity":60,"Duration":97352,"SoundDuration":97352,"Delta":412921744},{"NoteNumber":79,"Velocity":59,"Duration":97352,"SoundDuration":97352,"Delta":413019096},{"NoteNumber":78,"Velocity":58,"Duration":97352,"SoundDuration":97352,"Delta":413116448},{"NoteNumber":79,"Velocity":55,"Duration":97352,"SoundDuration":97352,"Delta":413213800},{"NoteNumber":78,"Velocity":59,"Duration":97352,"SoundDuration":97352,"Delta":413311152},{"NoteNumber":79,"Velocity":55,"Duration":101985,"SoundDuration":101985,"Delta":413408504},{"NoteNumber":78,"Velocity":58,"Duration":97352,"SoundDuration":97352,"Delta":413510489},{"NoteNumber":75,"Velocity":57,"Duration":97352,"SoundDuration":97352,"Delta":413607841},{"NoteNumber":74,"Velocity":56,"Duration":97352,"SoundDuration":97352,"Delta":413705193},{"NoteNumber":72,"Velocity":55,"Duration":97352,"SoundDuration":97352,"Delta":413802545},{"NoteNumber":71,"Velocity":49,"Duration":199387,"SoundDuration":199387,"Delta":413899897},{"NoteNumber":55,"Velocity":44,"Duration":199387,"SoundDuration":199387,"Delta":413899897},{"NoteNumber":77,"Velocity":43,"Duration":95706,"SoundDuration":95706,"Delta":413995603},{"NoteNumber":72,"Velocity":52,"Duration":191412,"SoundDuration":191412,"Delta":414091309},{"NoteNumber":56,"Velocity":38,"Duration":191412,"SoundDuration":191412,"Delta":414091309},{"NoteNumber":77,"Velocity":45,"Duration":95706,"SoundDuration":95706,"Delta":414187015},{"NoteNumber":71,"Velocity":55,"Duration":199387,"SoundDuration":199387,"Delta":414282721},{"NoteNumber":55,"Velocity":55,"Duration":199387,"SoundDuration":199387,"Delta":414282721},{"NoteNumber":77,"Velocity":52,"Duration":95706,"SoundDuration":95706,"Delta":414378427},{"NoteNumber":72,"Velocity":62,"Duration":197691,"SoundDuration":197691,"Delta":414474133},{"NoteNumber":56,"Velocity":55,"Duration":197691,"SoundDuration":197691,"Delta":414474133},{"NoteNumber":77,"Velocity":60,"Duration":101985,"SoundDuration":101985,"Delta":414569839},{"NoteNumber":73,"Velocity":67,"Duration":198943,"SoundDuration":198943,"Delta":414671824},{"NoteNumber":58,"Velocity":63,"Duration":198943,"SoundDuration":198943,"Delta":414671824},{"NoteNumber":77,"Velocity":55,"Duration":95492,"SoundDuration":95492,"Delta":414767317},{"NoteNumber":72,"Velocity":52,"Duration":199134,"SoundDuration":199134,"Delta":414862810},{"NoteNumber":56,"Velocity":47,"Duration":199134,"SoundDuration":199134,"Delta":414862810},{"NoteNumber":77,"Velocity":43,"Duration":103641,"SoundDuration":103641,"Delta":414958302},{"NoteNumber":71,"Velocity":50,"Duration":198943,"SoundDuration":198943,"Delta":415061944},{"NoteNumber":55,"Velocity":47,"Duration":198943,"SoundDuration":198943,"Delta":415061944},{"NoteNumber":77,"Velocity":44,"Duration":95492,"SoundDuration":95492,"Delta":415157436},{"NoteNumber":72,"Velocity":54,"Duration":190985,"SoundDuration":190985,"Delta":415252929},{"NoteNumber":56,"Velocity":42,"Duration":190985,"SoundDuration":190985,"Delta":415252929},{"NoteNumber":77,"Velocity":49,"Duration":95492,"SoundDuration":95492,"Delta":415348422},{"NoteNumber":71,"Velocity":57,"Duration":198943,"SoundDuration":198943,"Delta":415443915},{"NoteNumber":55,"Velocity":59,"Duration":198943,"SoundDuration":198943,"Delta":415443915},{"NoteNumber":77,"Velocity":53,"Duration":95492,"SoundDuration":95492,"Delta":415539407},{"NoteNumber":72,"Velocity":63,"Duration":196789,"SoundDuration":196789,"Delta":415634900},{"NoteNumber":56,"Velocity":53,"Duration":196789,"SoundDuration":196789,"Delta":415634900},{"NoteNumber":77,"Velocity":55,"Duration":101296,"SoundDuration":101296,"Delta":415730393},{"NoteNumber":73,"Velocity":68,"Duration":198943,"SoundDuration":198943,"Delta":415831689},{"NoteNumber":58,"Velocity":64,"Duration":198943,"SoundDuration":198943,"Delta":415831689},{"NoteNumber":77,"Velocity":54,"Duration":95492,"SoundDuration":95492,"Delta":415927182},{"NoteNumber":72,"Velocity":56,"Duration":199134,"SoundDuration":199134,"Delta":416022675},{"NoteNumber":56,"Velocity":41,"Duration":199134,"SoundDuration":199134,"Delta":416022675},{"NoteNumber":77,"Velocity":43,"Duration":103641,"SoundDuration":103641,"Delta":416118168},{"NoteNumber":71,"Velocity":60,"Duration":77730,"SoundDuration":77730,"Delta":416221809},{"NoteNumber":55,"Velocity":42,"Duration":97987,"SoundDuration":97987,"Delta":416325450},{"NoteNumber":59,"Velocity":44,"Duration":97987,"SoundDuration":97987,"Delta":416423438},{"NoteNumber":62,"Velocity":46,"Duration":97988,"SoundDuration":97988,"Delta":416521426},{"NoteNumber":65,"Velocity":48,"Duration":103391,"SoundDuration":103391,"Delta":416619414},{"NoteNumber":71,"Velocity":51,"Duration":97987,"SoundDuration":97987,"Delta":416722805},{"NoteNumber":77,"Velocity":55,"Duration":77543,"SoundDuration":77543,"Delta":416820793},{"NoteNumber":67,"Velocity":48,"Duration":97352,"SoundDuration":97352,"Delta":416924185},{"NoteNumber":71,"Velocity":51,"Duration":97352,"SoundDuration":97352,"Delta":417021537},{"NoteNumber":74,"Velocity":53,"Duration":97352,"SoundDuration":97352,"Delta":417118889},{"NoteNumber":77,"Velocity":56,"Duration":77012,"SoundDuration":77012,"Delta":417216241},{"NoteNumber":83,"Velocity":53,"Duration":97352,"SoundDuration":97352,"Delta":417318924},{"NoteNumber":89,"Velocity":62,"Duration":97352,"SoundDuration":97352,"Delta":417416276},{"NoteNumber":87,"Velocity":61,"Duration":97352,"SoundDuration":97352,"Delta":417513628},{"NoteNumber":86,"Velocity":60,"Duration":97352,"SoundDuration":97352,"Delta":417610980},{"NoteNumber":84,"Velocity":59,"Duration":97352,"SoundDuration":97352,"Delta":417708332},{"NoteNumber":83,"Velocity":58,"Duration":97352,"SoundDuration":97352,"Delta":417805684},{"NoteNumber":80,"Velocity":55,"Duration":97352,"SoundDuration":97352,"Delta":417903036},{"NoteNumber":79,"Velocity":59,"Duration":97352,"SoundDuration":97352,"Delta":418000388},{"NoteNumber":78,"Velocity":55,"Duration":101985,"SoundDuration":101985,"Delta":418097740},{"NoteNumber":79,"Velocity":58,"Duration":97352,"SoundDuration":97352,"Delta":418199725},{"NoteNumber":80,"Velocity":57,"Duration":97352,"SoundDuration":97352,"Delta":418297077},{"NoteNumber":79,"Velocity":56,"Duration":97352,"SoundDuration":97352,"Delta":418394429},{"NoteNumber":77,"Velocity":55,"Duration":97352,"SoundDuration":97352,"Delta":418491781},{"NoteNumber":76,"Velocity":49,"Duration":199387,"SoundDuration":199387,"Delta":418589133},{"NoteNumber":60,"Velocity":44,"Duration":199387,"SoundDuration":199387,"Delta":418589133},{"NoteNumber":67,"Velocity":43,"Duration":95706,"SoundDuration":95706,"Delta":418684839},{"NoteNumber":77,"Velocity":52,"Duration":191412,"SoundDuration":191412,"Delta":418780545},{"NoteNumber":59,"Velocity":38,"Duration":191412,"SoundDuration":191412,"Delta":418780545},{"NoteNumber":67,"Velocity":45,"Duration":95706,"SoundDuration":95706,"Delta":418876251},{"NoteNumber":76,"Velocity":55,"Duration":199387,"SoundDuration":199387,"Delta":418971957},{"NoteNumber":60,"Velocity":45,"Duration":199387,"SoundDuration":199387,"Delta":418971957},{"NoteNumber":67,"Velocity":52,"Duration":95706,"SoundDuration":95706,"Delta":419067663},{"NoteNumber":77,"Velocity":59,"Duration":197691,"SoundDuration":197691,"Delta":419163369},{"NoteNumber":61,"Velocity":54,"Duration":197691,"SoundDuration":197691,"Delta":419163369},{"NoteNumber":67,"Velocity":53,"Duration":101985,"SoundDuration":101985,"Delta":419259075},{"NoteNumber":76,"Velocity":59,"Duration":198943,"SoundDuration":198943,"Delta":419361061},{"NoteNumber":60,"Velocity":49,"Duration":198943,"SoundDuration":198943,"Delta":419361061},{"NoteNumber":67,"Velocity":55,"Duration":95492,"SoundDuration":95492,"Delta":419456553},{"NoteNumber":77,"Velocity":52,"Duration":199134,"SoundDuration":199134,"Delta":419552046},{"NoteNumber":59,"Velocity":44,"Duration":199134,"SoundDuration":199134,"Delta":419552046},{"NoteNumber":67,"Velocity":43,"Duration":103641,"SoundDuration":103641,"Delta":419647539},{"NoteNumber":76,"Velocity":50,"Duration":198943,"SoundDuration":198943,"Delta":419751180},{"NoteNumber":60,"Velocity":47,"Duration":198943,"SoundDuration":198943,"Delta":419751180},{"NoteNumber":67,"Velocity":44,"Duration":95492,"SoundDuration":95492,"Delta":419846673},{"NoteNumber":77,"Velocity":54,"Duration":190985,"SoundDuration":190985,"Delta":419942166},{"NoteNumber":59,"Velocity":42,"Duration":190985,"SoundDuration":190985,"Delta":419942166},{"NoteNumber":67,"Velocity":49,"Duration":95492,"SoundDuration":95492,"Delta":420037658},{"NoteNumber":76,"Velocity":57,"Duration":198943,"SoundDuration":198943,"Delta":420133151},{"NoteNumber":60,"Velocity":48,"Duration":198943,"SoundDuration":198943,"Delta":420133151},{"NoteNumber":67,"Velocity":53,"Duration":95492,"SoundDuration":95492,"Delta":420228644},{"NoteNumber":77,"Velocity":61,"Duration":196789,"SoundDuration":196789,"Delta":420324137},{"NoteNumber":61,"Velocity":51,"Duration":196789,"SoundDuration":196789,"Delta":420324137},{"NoteNumber":67,"Velocity":55,"Duration":101296,"SoundDuration":101296,"Delta":420419629},{"NoteNumber":76,"Velocity":60,"Duration":198943,"SoundDuration":198943,"Delta":420520926},{"NoteNumber":60,"Velocity":46,"Duration":198943,"SoundDuration":198943,"Delta":420520926},{"NoteNumber":67,"Velocity":50,"Duration":95492,"SoundDuration":95492,"Delta":420616419},{"NoteNumber":77,"Velocity":56,"Duration":199134,"SoundDuration":199134,"Delta":420711911},{"NoteNumber":59,"Velocity":41,"Duration":199134,"SoundDuration":199134,"Delta":420711911},{"NoteNumber":67,"Velocity":43,"Duration":103641,"SoundDuration":103641,"Delta":420807404},{"NoteNumber":76,"Velocity":60,"Duration":77730,"SoundDuration":77730,"Delta":420911045},{"NoteNumber":48,"Velocity":42,"Duration":97987,"SoundDuration":97987,"Delta":421014687},{"NoteNumber":52,"Velocity":44,"Duration":97987,"SoundDuration":97987,"Delta":421112675},{"NoteNumber":55,"Velocity":46,"Duration":97988,"SoundDuration":97988,"Delta":421210663},{"NoteNumber":58,"Velocity":48,"Duration":103391,"SoundDuration":103391,"Delta":421308651},{"NoteNumber":64,"Velocity":51,"Duration":97987,"SoundDuration":97987,"Delta":421412042},{"NoteNumber":70,"Velocity":55,"Duration":77543,"SoundDuration":77543,"Delta":421510030},{"NoteNumber":60,"Velocity":48,"Duration":97352,"SoundDuration":97352,"Delta":421613421},{"NoteNumber":64,"Velocity":51,"Duration":97352,"SoundDuration":97352,"Delta":421710773},{"NoteNumber":67,"Velocity":53,"Duration":97352,"SoundDuration":97352,"Delta":421808125},{"NoteNumber":70,"Velocity":56,"Duration":77012,"SoundDuration":77012,"Delta":421905477},{"NoteNumber":76,"Velocity":53,"Duration":97352,"SoundDuration":97352,"Delta":422008161},{"NoteNumber":82,"Velocity":62,"Duration":97352,"SoundDuration":97352,"Delta":422105513},{"NoteNumber":81,"Velocity":61,"Duration":97352,"SoundDuration":97352,"Delta":422202865},{"NoteNumber":79,"Velocity":60,"Duration":97352,"SoundDuration":97352,"Delta":422300217},{"NoteNumber":77,"Velocity":59,"Duration":97352,"SoundDuration":97352,"Delta":422397569},{"NoteNumber":76,"Velocity":58,"Duration":97352,"SoundDuration":97352,"Delta":422494921},{"NoteNumber":74,"Velocity":55,"Duration":97352,"SoundDuration":97352,"Delta":422592273},{"NoteNumber":72,"Velocity":59,"Duration":97352,"SoundDuration":97352,"Delta":422689625},{"NoteNumber":74,"Velocity":55,"Duration":101985,"SoundDuration":101985,"Delta":422786977},{"NoteNumber":72,"Velocity":58,"Duration":97352,"SoundDuration":97352,"Delta":422888962},{"NoteNumber":70,"Velocity":57,"Duration":97352,"SoundDuration":97352,"Delta":422986314},{"NoteNumber":69,"Velocity":56,"Duration":97352,"SoundDuration":97352,"Delta":423083666},{"NoteNumber":67,"Velocity":55,"Duration":97352,"SoundDuration":97352,"Delta":423181018},{"NoteNumber":65,"Velocity":49,"Duration":199387,"SoundDuration":199387,"Delta":423278370},{"NoteNumber":57,"Velocity":44,"Duration":199387,"SoundDuration":199387,"Delta":423278370},{"NoteNumber":75,"Velocity":43,"Duration":95706,"SoundDuration":95706,"Delta":423374076},{"NoteNumber":66,"Velocity":52,"Duration":191412,"SoundDuration":191412,"Delta":423469782},{"NoteNumber":58,"Velocity":38,"Duration":191412,"SoundDuration":191412,"Delta":423469782},{"NoteNumber":75,"Velocity":45,"Duration":95706,"SoundDuration":95706,"Delta":423565488},{"NoteNumber":65,"Velocity":55,"Duration":199387,"SoundDuration":199387,"Delta":423661194},{"NoteNumber":57,"Velocity":55,"Duration":199387,"SoundDuration":199387,"Delta":423661194},{"NoteNumber":75,"Velocity":52,"Duration":95706,"SoundDuration":95706,"Delta":423756900},{"NoteNumber":66,"Velocity":62,"Duration":197691,"SoundDuration":197691,"Delta":423852606},{"NoteNumber":58,"Velocity":55,"Duration":197691,"SoundDuration":197691,"Delta":423852606},{"NoteNumber":75,"Velocity":56,"Duration":101985,"SoundDuration":101985,"Delta":423948312},{"NoteNumber":68,"Velocity":65,"Duration":198943,"SoundDuration":198943,"Delta":424050297},{"NoteNumber":59,"Velocity":63,"Duration":198943,"SoundDuration":198943,"Delta":424050297},{"NoteNumber":75,"Velocity":55,"Duration":95492,"SoundDuration":95492,"Delta":424145790},{"NoteNumber":66,"Velocity":52,"Duration":199134,"SoundDuration":199134,"Delta":424241283},{"NoteNumber":58,"Velocity":47,"Duration":199134,"SoundDuration":199134,"Delta":424241283},{"NoteNumber":75,"Velocity":43,"Duration":103641,"SoundDuration":103641,"Delta":424336775},{"NoteNumber":65,"Velocity":50,"Duration":198943,"SoundDuration":198943,"Delta":424440417},{"NoteNumber":57,"Velocity":47,"Duration":198943,"SoundDuration":198943,"Delta":424440417},{"NoteNumber":75,"Velocity":44,"Duration":95492,"SoundDuration":95492,"Delta":424535909},{"NoteNumber":66,"Velocity":54,"Duration":190985,"SoundDuration":190985,"Delta":424631402},{"NoteNumber":58,"Velocity":42,"Duration":190985,"SoundDuration":190985,"Delta":424631402},{"NoteNumber":75,"Velocity":49,"Duration":95492,"SoundDuration":95492,"Delta":424726895},{"NoteNumber":65,"Velocity":57,"Duration":198943,"SoundDuration":198943,"Delta":424822388},{"NoteNumber":57,"Velocity":59,"Duration":198943,"SoundDuration":198943,"Delta":424822388},{"NoteNumber":75,"Velocity":53,"Duration":95492,"SoundDuration":95492,"Delta":424917880},{"NoteNumber":66,"Velocity":63,"Duration":196789,"SoundDuration":196789,"Delta":425013373},{"NoteNumber":58,"Velocity":53,"Duration":196789,"SoundDuration":196789,"Delta":425013373},{"NoteNumber":75,"Velocity":55,"Duration":101296,"SoundDuration":101296,"Delta":425108866},{"NoteNumber":68,"Velocity":66,"Duration":198943,"SoundDuration":198943,"Delta":425210162},{"NoteNumber":59,"Velocity":64,"Duration":198943,"SoundDuration":198943,"Delta":425210162},{"NoteNumber":75,"Velocity":54,"Duration":95492,"SoundDuration":95492,"Delta":425305655},{"NoteNumber":66,"Velocity":56,"Duration":199134,"SoundDuration":199134,"Delta":425401148},{"NoteNumber":58,"Velocity":41,"Duration":199134,"SoundDuration":199134,"Delta":425401148},{"NoteNumber":75,"Velocity":43,"Duration":103641,"SoundDuration":103641,"Delta":425496641},{"NoteNumber":65,"Velocity":60,"Duration":77730,"SoundDuration":77730,"Delta":425600282},{"NoteNumber":57,"Velocity":42,"Duration":97987,"SoundDuration":97987,"Delta":425703923},{"NoteNumber":60,"Velocity":44,"Duration":97987,"SoundDuration":97987,"Delta":425801911},{"NoteNumber":63,"Velocity":46,"Duration":97988,"SoundDuration":97988,"Delta":425899899},{"NoteNumber":65,"Velocity":48,"Duration":103391,"SoundDuration":103391,"Delta":425997887},{"NoteNumber":69,"Velocity":51,"Duration":97987,"SoundDuration":97987,"Delta":426101278},{"NoteNumber":75,"Velocity":55,"Duration":77543,"SoundDuration":77543,"Delta":426199266},{"NoteNumber":65,"Velocity":48,"Duration":97352,"SoundDuration":97352,"Delta":426302658},{"NoteNumber":69,"Velocity":51,"Duration":97352,"SoundDuration":97352,"Delta":426400010},{"NoteNumber":72,"Velocity":53,"Duration":97352,"SoundDuration":97352,"Delta":426497362},{"NoteNumber":75,"Velocity":56,"Duration":77012,"SoundDuration":77012,"Delta":426594714},{"NoteNumber":81,"Velocity":53,"Duration":97352,"SoundDuration":97352,"Delta":426697397},{"NoteNumber":87,"Velocity":62,"Duration":97352,"SoundDuration":97352,"Delta":426794749},{"NoteNumber":86,"Velocity":61,"Duration":97352,"SoundDuration":97352,"Delta":426892101},{"NoteNumber":84,"Velocity":60,"Duration":97352,"SoundDuration":97352,"Delta":426989453},{"NoteNumber":82,"Velocity":59,"Duration":97352,"SoundDuration":97352,"Delta":427086805},{"NoteNumber":81,"Velocity":58,"Duration":97352,"SoundDuration":97352,"Delta":427184157},{"NoteNumber":79,"Velocity":55,"Duration":97352,"SoundDuration":97352,"Delta":427281509},{"NoteNumber":77,"Velocity":59,"Duration":97352,"SoundDuration":97352,"Delta":427378861},{"NoteNumber":79,"Velocity":55,"Duration":101985,"SoundDuration":101985,"Delta":427476213},{"NoteNumber":77,"Velocity":56,"Duration":97352,"SoundDuration":97352,"Delta":427578198},{"NoteNumber":75,"Velocity":54,"Duration":97352,"SoundDuration":97352,"Delta":427675550},{"NoteNumber":74,"Velocity":52,"Duration":97352,"SoundDuration":97352,"Delta":427772902},{"NoteNumber":72,"Velocity":50,"Duration":114434,"SoundDuration":114434,"Delta":427870254},{"NoteNumber":74,"Velocity":54,"Duration":194704,"SoundDuration":194704,"Delta":427984688},{"NoteNumber":58,"Velocity":29,"Duration":194704,"SoundDuration":194704,"Delta":427984688},{"NoteNumber":62,"Velocity":25,"Duration":194704,"SoundDuration":194704,"Delta":428179392},{"NoteNumber":74,"Velocity":42,"Duration":194704,"SoundDuration":194704,"Delta":428374096},{"NoteNumber":65,"Velocity":25,"Duration":194704,"SoundDuration":194704,"Delta":428374096},{"NoteNumber":72,"Velocity":46,"Duration":194704,"SoundDuration":194704,"Delta":428568800},{"NoteNumber":57,"Velocity":30,"Duration":194704,"SoundDuration":194704,"Delta":428568800},{"NoteNumber":60,"Velocity":26,"Duration":194704,"SoundDuration":194704,"Delta":428763504},{"NoteNumber":72,"Velocity":45,"Duration":200743,"SoundDuration":200743,"Delta":428958208},{"NoteNumber":65,"Velocity":26,"Duration":200743,"SoundDuration":200743,"Delta":428958208},{"NoteNumber":75,"Velocity":52,"Duration":966686,"SoundDuration":966686,"Delta":429158952},{"NoteNumber":55,"Velocity":30,"Duration":194704,"SoundDuration":194704,"Delta":429158952},{"NoteNumber":58,"Velocity":27,"Duration":194704,"SoundDuration":194704,"Delta":429353656},{"NoteNumber":63,"Velocity":27,"Duration":190985,"SoundDuration":190985,"Delta":429548360},{"NoteNumber":54,"Velocity":29,"Duration":192844,"SoundDuration":192844,"Delta":429739345},{"NoteNumber":57,"Velocity":25,"Duration":193448,"SoundDuration":193448,"Delta":429932190},{"NoteNumber":74,"Velocity":42,"Duration":198020,"SoundDuration":198020,"Delta":430125638},{"NoteNumber":62,"Velocity":25,"Duration":198020,"SoundDuration":198020,"Delta":430125638},{"NoteNumber":75,"Velocity":46,"Duration":194704,"SoundDuration":194704,"Delta":430323659},{"NoteNumber":55,"Velocity":32,"Duration":194704,"SoundDuration":194704,"Delta":430323659},{"NoteNumber":58,"Velocity":25,"Duration":193448,"SoundDuration":193448,"Delta":430518363},{"NoteNumber":75,"Velocity":42,"Duration":195356,"SoundDuration":195356,"Delta":430711812},{"NoteNumber":63,"Velocity":25,"Duration":195356,"SoundDuration":195356,"Delta":430711812},{"NoteNumber":74,"Velocity":43,"Duration":194704,"SoundDuration":194704,"Delta":430907168},{"NoteNumber":53,"Velocity":31,"Duration":194704,"SoundDuration":194704,"Delta":430907168},{"NoteNumber":57,"Velocity":27,"Duration":194704,"SoundDuration":194704,"Delta":431101872},{"NoteNumber":74,"Velocity":43,"Duration":197969,"SoundDuration":197969,"Delta":431296576},{"NoteNumber":62,"Velocity":27,"Duration":197969,"SoundDuration":197969,"Delta":431296576},{"NoteNumber":79,"Velocity":52,"Duration":974859,"SoundDuration":974859,"Delta":431494545},{"NoteNumber":51,"Velocity":37,"Duration":194704,"SoundDuration":194704,"Delta":431494545},{"NoteNumber":55,"Velocity":32,"Duration":193448,"SoundDuration":193448,"Delta":431689249},{"NoteNumber":60,"Velocity":32,"Duration":197298,"SoundDuration":197298,"Delta":431882698},{"NoteNumber":50,"Velocity":34,"Duration":194704,"SoundDuration":194704,"Delta":432079996},{"NoteNumber":53,"Velocity":28,"Duration":194704,"SoundDuration":194704,"Delta":432274700},{"NoteNumber":77,"Velocity":44,"Duration":199337,"SoundDuration":199337,"Delta":432469404},{"NoteNumber":58,"Velocity":24,"Duration":199337,"SoundDuration":199337,"Delta":432469404},{"NoteNumber":77,"Velocity":47,"Duration":196671,"SoundDuration":196671,"Delta":432668742},{"NoteNumber":48,"Velocity":32,"Duration":196671,"SoundDuration":196671,"Delta":432668742},{"NoteNumber":76,"Velocity":44,"Duration":195975,"SoundDuration":195975,"Delta":432865413},{"NoteNumber":55,"Velocity":27,"Duration":195975,"SoundDuration":195975,"Delta":432865413},{"NoteNumber":72,"Velocity":48,"Duration":391952,"SoundDuration":391952,"Delta":433061389},{"NoteNumber":58,"Velocity":27,"Duration":195976,"SoundDuration":195976,"Delta":433061389},{"NoteNumber":53,"Velocity":33,"Duration":195975,"SoundDuration":195975,"Delta":433257365},{"NoteNumber":74,"Velocity":45,"Duration":192208,"SoundDuration":192208,"Delta":433453341},{"NoteNumber":57,"Velocity":29,"Duration":192208,"SoundDuration":192208,"Delta":433453341},{"NoteNumber":75,"Velocity":45,"Duration":194024,"SoundDuration":194024,"Delta":433645550},{"NoteNumber":60,"Velocity":29,"Duration":197401,"SoundDuration":197401,"Delta":433645550},{"NoteNumber":75,"Velocity":45,"Duration":195975,"SoundDuration":195975,"Delta":433842951},{"NoteNumber":46,"Velocity":36,"Duration":195975,"SoundDuration":195975,"Delta":433842951},{"NoteNumber":74,"Velocity":42,"Duration":195976,"SoundDuration":195976,"Delta":434038927},{"NoteNumber":53,"Velocity":31,"Duration":195976,"SoundDuration":195976,"Delta":434038927},{"NoteNumber":70,"Velocity":46,"Duration":394581,"SoundDuration":394581,"Delta":434234903},{"NoteNumber":58,"Velocity":29,"Duration":195975,"SoundDuration":195975,"Delta":434234903},{"NoteNumber":54,"Velocity":33,"Duration":198605,"SoundDuration":198605,"Delta":434430879},{"NoteNumber":72,"Velocity":46,"Duration":202096,"SoundDuration":202096,"Delta":434629484},{"NoteNumber":58,"Velocity":33,"Duration":202096,"SoundDuration":202096,"Delta":434629484},{"NoteNumber":73,"Velocity":51,"Duration":397355,"SoundDuration":397355,"Delta":434831580},{"NoteNumber":61,"Velocity":33,"Duration":195976,"SoundDuration":195976,"Delta":434831580},{"NoteNumber":51,"Velocity":39,"Duration":201379,"SoundDuration":201379,"Delta":435027556},{"NoteNumber":72,"Velocity":51,"Duration":195975,"SoundDuration":195975,"Delta":435228936},{"NoteNumber":54,"Velocity":35,"Duration":195975,"SoundDuration":195975,"Delta":435228936},{"NoteNumber":73,"Velocity":55,"Duration":391952,"SoundDuration":391952,"Delta":435424912},{"NoteNumber":58,"Velocity":36,"Duration":195976,"SoundDuration":195976,"Delta":435424912},{"NoteNumber":52,"Velocity":45,"Duration":195975,"SoundDuration":195975,"Delta":435620888},{"NoteNumber":72,"Velocity":50,"Duration":195976,"SoundDuration":195976,"Delta":435816864},{"NoteNumber":55,"Velocity":38,"Duration":195976,"SoundDuration":195976,"Delta":435816864},{"NoteNumber":70,"Velocity":51,"Duration":200115,"SoundDuration":200115,"Delta":436012840},{"NoteNumber":61,"Velocity":39,"Duration":200115,"SoundDuration":200115,"Delta":436012840},{"NoteNumber":69,"Velocity":57,"Duration":607778,"SoundDuration":607778,"Delta":436212955},{"NoteNumber":53,"Velocity":47,"Duration":202592,"SoundDuration":202592,"Delta":436212955},{"NoteNumber":57,"Velocity":40,"Duration":202593,"SoundDuration":202593,"Delta":436415548},{"NoteNumber":60,"Velocity":40,"Duration":202592,"SoundDuration":202592,"Delta":436618141},{"NoteNumber":72,"Velocity":55,"Duration":202592,"SoundDuration":202592,"Delta":436820734},{"NoteNumber":53,"Velocity":48,"Duration":202592,"SoundDuration":202592,"Delta":436820734},{"NoteNumber":51,"Velocity":42,"Duration":202593,"SoundDuration":202593,"Delta":437023327},{"NoteNumber":48,"Velocity":43,"Duration":202592,"SoundDuration":202592,"Delta":437225920},{"NoteNumber":74,"Velocity":75,"Duration":97352,"SoundDuration":97352,"Delta":437428513},{"NoteNumber":58,"Velocity":58,"Duration":389408,"SoundDuration":389408,"Delta":437428513},{"NoteNumber":46,"Velocity":49,"Duration":389408,"SoundDuration":389408,"Delta":437428513},{"NoteNumber":70,"Velocity":57,"Duration":97352,"SoundDuration":97352,"Delta":437525865},{"NoteNumber":65,"Velocity":57,"Duration":97352,"SoundDuration":97352,"Delta":437623217},{"NoteNumber":70,"Velocity":57,"Duration":97352,"SoundDuration":97352,"Delta":437720569},{"NoteNumber":74,"Velocity":57,"Duration":97352,"SoundDuration":97352,"Delta":437817921},{"NoteNumber":70,"Velocity":57,"Duration":97352,"SoundDuration":97352,"Delta":437915273},{"NoteNumber":72,"Velocity":73,"Duration":97352,"SoundDuration":97352,"Delta":438012625},{"NoteNumber":45,"Velocity":49,"Duration":389408,"SoundDuration":389408,"Delta":438012625},{"NoteNumber":57,"Velocity":58,"Duration":389408,"SoundDuration":389408,"Delta":438012625},{"NoteNumber":69,"Velocity":56,"Duration":97352,"SoundDuration":97352,"Delta":438109977},{"NoteNumber":65,"Velocity":56,"Duration":97352,"SoundDuration":97352,"Delta":438207329},{"NoteNumber":69,"Velocity":56,"Duration":97352,"SoundDuration":97352,"Delta":438304681},{"NoteNumber":72,"Velocity":56,"Duration":97352,"SoundDuration":97352,"Delta":438402033},{"NoteNumber":69,"Velocity":56,"Duration":103391,"SoundDuration":103391,"Delta":438499385},{"NoteNumber":75,"Velocity":76,"Duration":97352,"SoundDuration":97352,"Delta":438602776},{"NoteNumber":43,"Velocity":49,"Duration":966686,"SoundDuration":966686,"Delta":438602776},{"NoteNumber":55,"Velocity":58,"Duration":966686,"SoundDuration":966686,"Delta":438602776},{"NoteNumber":70,"Velocity":55,"Duration":97352,"SoundDuration":97352,"Delta":438700128},{"NoteNumber":67,"Velocity":55,"Duration":97352,"SoundDuration":97352,"Delta":438797480},{"NoteNumber":70,"Velocity":55,"Duration":97352,"SoundDuration":97352,"Delta":438894832},{"NoteNumber":75,"Velocity":60,"Duration":95492,"SoundDuration":95492,"Delta":438992184},{"NoteNumber":70,"Velocity":53,"Duration":95492,"SoundDuration":95492,"Delta":439087677},{"NoteNumber":75,"Velocity":59,"Duration":95492,"SoundDuration":95492,"Delta":439183170},{"NoteNumber":70,"Velocity":52,"Duration":97352,"SoundDuration":97352,"Delta":439278663},{"NoteNumber":75,"Velocity":60,"Duration":96724,"SoundDuration":96724,"Delta":439376015},{"NoteNumber":70,"Velocity":48,"Duration":96724,"SoundDuration":96724,"Delta":439472739},{"NoteNumber":74,"Velocity":74,"Duration":96724,"SoundDuration":96724,"Delta":439569463},{"NoteNumber":54,"Velocity":57,"Duration":198020,"SoundDuration":198020,"Delta":439569463},{"NoteNumber":42,"Velocity":48,"Duration":198020,"SoundDuration":198020,"Delta":439569463},{"NoteNumber":69,"Velocity":51,"Duration":101296,"SoundDuration":101296,"Delta":439666187},{"NoteNumber":75,"Velocity":78,"Duration":97352,"SoundDuration":97352,"Delta":439767484},{"NoteNumber":55,"Velocity":57,"Duration":388152,"SoundDuration":388152,"Delta":439767484},{"NoteNumber":43,"Velocity":48,"Duration":388152,"SoundDuration":388152,"Delta":439767484},{"NoteNumber":70,"Velocity":53,"Duration":97352,"SoundDuration":97352,"Delta":439864836},{"NoteNumber":67,"Velocity":54,"Duration":96724,"SoundDuration":96724,"Delta":439962188},{"NoteNumber":70,"Velocity":54,"Duration":96724,"SoundDuration":96724,"Delta":440058912},{"NoteNumber":75,"Velocity":60,"Duration":96724,"SoundDuration":96724,"Delta":440155636},{"NoteNumber":70,"Velocity":54,"Duration":98632,"SoundDuration":98632,"Delta":440252361},{"NoteNumber":74,"Velocity":64,"Duration":97352,"SoundDuration":97352,"Delta":440350993},{"NoteNumber":41,"Velocity":48,"Duration":389408,"SoundDuration":389408,"Delta":440350993},{"NoteNumber":53,"Velocity":57,"Duration":389408,"SoundDuration":389408,"Delta":440350993},{"NoteNumber":69,"Velocity":52,"Duration":97352,"SoundDuration":97352,"Delta":440448345},{"NoteNumber":65,"Velocity":53,"Duration":97352,"SoundDuration":97352,"Delta":440545697},{"NoteNumber":69,"Velocity":53,"Duration":97352,"SoundDuration":97352,"Delta":440643049},{"NoteNumber":74,"Velocity":73,"Duration":97352,"SoundDuration":97352,"Delta":440740401},{"NoteNumber":69,"Velocity":57,"Duration":100616,"SoundDuration":100616,"Delta":440837753},{"NoteNumber":79,"Velocity":75,"Duration":97352,"SoundDuration":97352,"Delta":440938370},{"NoteNumber":51,"Velocity":47,"Duration":974859,"SoundDuration":974859,"Delta":440938370},{"NoteNumber":39,"Velocity":39,"Duration":974859,"SoundDuration":974859,"Delta":440938370},{"NoteNumber":70,"Velocity":52,"Duration":97352,"SoundDuration":97352,"Delta":441035722},{"NoteNumber":67,"Velocity":52,"Duration":96724,"SoundDuration":96724,"Delta":441133074},{"NoteNumber":70,"Velocity":52,"Duration":96724,"SoundDuration":96724,"Delta":441229798},{"NoteNumber":79,"Velocity":61,"Duration":99946,"SoundDuration":99946,"Delta":441326522},{"NoteNumber":70,"Velocity":51,"Duration":97352,"SoundDuration":97352,"Delta":441426469},{"NoteNumber":79,"Velocity":63,"Duration":97352,"SoundDuration":97352,"Delta":441523821},{"NoteNumber":70,"Velocity":52,"Duration":97352,"SoundDuration":97352,"Delta":441621173},{"NoteNumber":79,"Velocity":65,"Duration":97352,"SoundDuration":97352,"Delta":441718525},{"NoteNumber":70,"Velocity":53,"Duration":97352,"SoundDuration":97352,"Delta":441815877},{"NoteNumber":77,"Velocity":51,"Duration":97352,"SoundDuration":97352,"Delta":441913229},{"NoteNumber":38,"Velocity":35,"Duration":199337,"SoundDuration":199337,"Delta":441913229},{"NoteNumber":50,"Velocity":42,"Duration":199337,"SoundDuration":199337,"Delta":441913229},{"NoteNumber":70,"Velocity":45,"Duration":101985,"SoundDuration":101985,"Delta":442010581},{"NoteNumber":48,"Velocity":51,"Duration":98632,"SoundDuration":98632,"Delta":442112566},{"NoteNumber":55,"Velocity":44,"Duration":98632,"SoundDuration":98632,"Delta":442211199},{"NoteNumber":58,"Velocity":44,"Duration":98632,"SoundDuration":98632,"Delta":442309831},{"NoteNumber":67,"Velocity":51,"Duration":98632,"SoundDuration":98632,"Delta":442408463},{"NoteNumber":70,"Velocity":44,"Duration":98632,"SoundDuration":98632,"Delta":442507095},{"NoteNumber":76,"Velocity":44,"Duration":105574,"SoundDuration":105574,"Delta":442605728},{"NoteNumber":54,"Velocity":51,"Duration":98632,"SoundDuration":98632,"Delta":442711302},{"NoteNumber":57,"Velocity":42,"Duration":98632,"SoundDuration":98632,"Delta":442809934},{"NoteNumber":60,"Velocity":44,"Duration":98632,"SoundDuration":98632,"Delta":442908566},{"NoteNumber":69,"Velocity":51,"Duration":98632,"SoundDuration":98632,"Delta":443007199},{"NoteNumber":72,"Velocity":46,"Duration":98632,"SoundDuration":98632,"Delta":443105831},{"NoteNumber":75,"Velocity":46,"Duration":105574,"SoundDuration":105574,"Delta":443204463},{"NoteNumber":55,"Velocity":51,"Duration":98632,"SoundDuration":98632,"Delta":443310037},{"NoteNumber":58,"Velocity":42,"Duration":98632,"SoundDuration":98632,"Delta":443408670},{"NoteNumber":62,"Velocity":42,"Duration":98632,"SoundDuration":98632,"Delta":443507302},{"NoteNumber":67,"Velocity":51,"Duration":98632,"SoundDuration":98632,"Delta":443605934},{"NoteNumber":70,"Velocity":44,"Duration":98632,"SoundDuration":98632,"Delta":443704566},{"NoteNumber":74,"Velocity":44,"Duration":105574,"SoundDuration":105574,"Delta":443803199},{"NoteNumber":51,"Velocity":57,"Duration":97987,"SoundDuration":97987,"Delta":443908773},{"NoteNumber":55,"Velocity":49,"Duration":97987,"SoundDuration":97987,"Delta":444006761},{"NoteNumber":60,"Velocity":49,"Duration":97988,"SoundDuration":97988,"Delta":444104749},{"NoteNumber":63,"Velocity":57,"Duration":97987,"SoundDuration":97987,"Delta":444202737},{"NoteNumber":67,"Velocity":48,"Duration":97987,"SoundDuration":97987,"Delta":444300725},{"NoteNumber":72,"Velocity":49,"Duration":104108,"SoundDuration":104108,"Delta":444398713},{"NoteNumber":41,"Velocity":63,"Duration":98632,"SoundDuration":98632,"Delta":444502822},{"NoteNumber":50,"Velocity":56,"Duration":98632,"SoundDuration":98632,"Delta":444601454},{"NoteNumber":53,"Velocity":56,"Duration":98632,"SoundDuration":98632,"Delta":444700086},{"NoteNumber":62,"Velocity":56,"Duration":98632,"SoundDuration":98632,"Delta":444798718},{"NoteNumber":65,"Velocity":48,"Duration":98632,"SoundDuration":98632,"Delta":444897351},{"NoteNumber":70,"Velocity":48,"Duration":105574,"SoundDuration":105574,"Delta":444995983},{"NoteNumber":41,"Velocity":70,"Duration":99285,"SoundDuration":99285,"Delta":445101557},{"NoteNumber":48,"Velocity":61,"Duration":99385,"SoundDuration":99385,"Delta":445200842},{"NoteNumber":53,"Velocity":61,"Duration":102132,"SoundDuration":102132,"Delta":445300227},{"NoteNumber":63,"Velocity":59,"Duration":105760,"SoundDuration":105760,"Delta":445402360},{"NoteNumber":65,"Velocity":52,"Duration":108701,"SoundDuration":108701,"Delta":445508120},{"NoteNumber":69,"Velocity":52,"Duration":133832,"SoundDuration":133832,"Delta":445616822},{"NoteNumber":34,"Velocity":72,"Duration":789058,"SoundDuration":789058,"Delta":445750655},{"NoteNumber":38,"Velocity":42,"Duration":197264,"SoundDuration":197264,"Delta":446539713},{"NoteNumber":41,"Velocity":44,"Duration":197264,"SoundDuration":197264,"Delta":446736977},{"NoteNumber":46,"Velocity":46,"Duration":1188346,"SoundDuration":1188346,"Delta":446934242},{"NoteNumber":50,"Velocity":48,"Duration":197264,"SoundDuration":197264,"Delta":447131506},{"NoteNumber":53,"Velocity":50,"Duration":197264,"SoundDuration":197264,"Delta":447328771},{"NoteNumber":58,"Velocity":52,"Duration":197264,"SoundDuration":197264,"Delta":447526035},{"NoteNumber":62,"Velocity":51,"Duration":197264,"SoundDuration":197264,"Delta":447723300},{"NoteNumber":65,"Velocity":56,"Duration":202023,"SoundDuration":202023,"Delta":447920564},{"NoteNumber":66,"Velocity":57,"Duration":197264,"SoundDuration":197264,"Delta":448122588},{"NoteNumber":45,"Velocity":45,"Duration":2353657,"SoundDuration":2353657,"Delta":448122588},{"NoteNumber":48,"Velocity":45,"Duration":2353657,"SoundDuration":2353657,"Delta":448122588},{"NoteNumber":51,"Velocity":45,"Duration":1176116,"SoundDuration":1176116,"Delta":448122588},{"NoteNumber":69,"Velocity":58,"Duration":194704,"SoundDuration":194704,"Delta":448319852},{"NoteNumber":72,"Velocity":60,"Duration":194704,"SoundDuration":194704,"Delta":448514556},{"NoteNumber":75,"Velocity":61,"Duration":194704,"SoundDuration":194704,"Delta":448709260},{"NoteNumber":78,"Velocity":63,"Duration":194704,"SoundDuration":194704,"Delta":448903964},{"NoteNumber":81,"Velocity":64,"Duration":200035,"SoundDuration":200035,"Delta":449098668},{"NoteNumber":84,"Velocity":66,"Duration":197264,"SoundDuration":197264,"Delta":449298704},{"NoteNumber":54,"Velocity":45,"Duration":1177541,"SoundDuration":1177541,"Delta":449298704},{"NoteNumber":81,"Velocity":64,"Duration":194704,"SoundDuration":194704,"Delta":449495968},{"NoteNumber":78,"Velocity":62,"Duration":194704,"SoundDuration":194704,"Delta":449690672},{"NoteNumber":75,"Velocity":60,"Duration":194704,"SoundDuration":194704,"Delta":449885376},{"NoteNumber":74,"Velocity":58,"Duration":194704,"SoundDuration":194704,"Delta":450080080},{"NoteNumber":66,"Velocity":57,"Duration":201460,"SoundDuration":201460,"Delta":450274784},{"NoteNumber":69,"Velocity":55,"Duration":197264,"SoundDuration":197264,"Delta":450476245},{"NoteNumber":55,"Velocity":45,"Duration":2424812,"SoundDuration":2424812,"Delta":450476245},{"NoteNumber":50,"Velocity":45,"Duration":2424812,"SoundDuration":2424812,"Delta":450476245},{"NoteNumber":46,"Velocity":45,"Duration":2424812,"SoundDuration":2424812,"Delta":450476245},{"NoteNumber":67,"Velocity":45,"Duration":197264,"SoundDuration":197264,"Delta":450673509},{"NoteNumber":73,"Velocity":45,"Duration":203468,"SoundDuration":203468,"Delta":450870774},{"NoteNumber":74,"Velocity":50,"Duration":197264,"SoundDuration":197264,"Delta":451074243},{"NoteNumber":78,"Velocity":47,"Duration":197264,"SoundDuration":197264,"Delta":451271507},{"NoteNumber":79,"Velocity":47,"Duration":207265,"SoundDuration":207265,"Delta":451468772},{"NoteNumber":85,"Velocity":52,"Duration":201233,"SoundDuration":201233,"Delta":451676037},{"NoteNumber":86,"Velocity":45,"Duration":201233,"SoundDuration":201233,"Delta":451877271},{"NoteNumber":81,"Velocity":41,"Duration":210042,"SoundDuration":210042,"Delta":452078505},{"NoteNumber":82,"Velocity":49,"Duration":201233,"SoundDuration":201233,"Delta":452288547},{"NoteNumber":78,"Velocity":43,"Duration":201233,"SoundDuration":201233,"Delta":452489781},{"NoteNumber":79,"Velocity":43,"Duration":210042,"SoundDuration":210042,"Delta":452691015},{"NoteNumber":61,"Velocity":33,"Duration":402467,"SoundDuration":402467,"Delta":452901057},{"NoteNumber":58,"Velocity":26,"Duration":402467,"SoundDuration":402467,"Delta":452901057},{"NoteNumber":77,"Velocity":39,"Duration":201233,"SoundDuration":201233,"Delta":453102291},{"NoteNumber":76,"Velocity":35,"Duration":209673,"SoundDuration":209673,"Delta":453303525},{"NoteNumber":61,"Velocity":33,"Duration":399787,"SoundDuration":399787,"Delta":453513198},{"NoteNumber":58,"Velocity":26,"Duration":399787,"SoundDuration":399787,"Delta":453513198},{"NoteNumber":76,"Velocity":35,"Duration":199893,"SoundDuration":199893,"Delta":453713092},{"NoteNumber":85,"Velocity":41,"Duration":206782,"SoundDuration":206782,"Delta":453912985},{"NoteNumber":58,"Velocity":26,"Duration":399787,"SoundDuration":399787,"Delta":454119768},{"NoteNumber":60,"Velocity":33,"Duration":399787,"SoundDuration":399787,"Delta":454119768},{"NoteNumber":85,"Velocity":41,"Duration":199893,"SoundDuration":199893,"Delta":454319661},{"NoteNumber":84,"Velocity":43,"Duration":202592,"SoundDuration":202592,"Delta":454519555},{"NoteNumber":60,"Velocity":33,"Duration":399787,"SoundDuration":399787,"Delta":454722148},{"NoteNumber":58,"Velocity":26,"Duration":399787,"SoundDuration":399787,"Delta":454722148},{"NoteNumber":84,"Velocity":43,"Duration":199893,"SoundDuration":199893,"Delta":454922041},{"NoteNumber":76,"Velocity":41,"Duration":208217,"SoundDuration":208217,"Delta":455121935},{"NoteNumber":44,"Velocity":50,"Duration":2405610,"SoundDuration":2405610,"Delta":455330152},{"NoteNumber":56,"Velocity":60,"Duration":2405610,"SoundDuration":2405610,"Delta":455330152},{"NoteNumber":76,"Velocity":56,"Duration":199893,"SoundDuration":199893,"Delta":455530046},{"NoteNumber":77,"Velocity":53,"Duration":199893,"SoundDuration":199893,"Delta":455729939},{"NoteNumber":84,"Velocity":63,"Duration":199893,"SoundDuration":199893,"Delta":455929833},{"NoteNumber":79,"Velocity":56,"Duration":199893,"SoundDuration":199893,"Delta":456129726},{"NoteNumber":82,"Velocity":56,"Duration":199893,"SoundDuration":199893,"Delta":456329620},{"NoteNumber":80,"Velocity":63,"Duration":199893,"SoundDuration":199893,"Delta":456529513},{"NoteNumber":76,"Velocity":56,"Duration":199893,"SoundDuration":199893,"Delta":456729407},{"NoteNumber":79,"Velocity":56,"Duration":199893,"SoundDuration":199893,"Delta":456929300},{"NoteNumber":77,"Velocity":60,"Duration":199893,"SoundDuration":199893,"Delta":457129194},{"NoteNumber":75,"Velocity":52,"Duration":199893,"SoundDuration":199893,"Delta":457329087},{"NoteNumber":73,"Velocity":52,"Duration":206782,"SoundDuration":206782,"Delta":457528981},{"NoteNumber":72,"Velocity":51,"Duration":597034,"SoundDuration":597034,"Delta":457735763},{"NoteNumber":62,"Velocity":45,"Duration":1196768,"SoundDuration":1196768,"Delta":457735763},{"NoteNumber":64,"Velocity":41,"Duration":198570,"SoundDuration":198570,"Delta":457935657},{"NoteNumber":65,"Velocity":41,"Duration":198570,"SoundDuration":198570,"Delta":458134227},{"NoteNumber":71,"Velocity":45,"Duration":599734,"SoundDuration":599734,"Delta":458332798},{"NoteNumber":68,"Velocity":45,"Duration":198570,"SoundDuration":198570,"Delta":458332798},{"NoteNumber":64,"Velocity":41,"Duration":198570,"SoundDuration":198570,"Delta":458531368},{"NoteNumber":65,"Velocity":41,"Duration":202592,"SoundDuration":202592,"Delta":458729939},{"NoteNumber":77,"Velocity":50,"Duration":599680,"SoundDuration":599680,"Delta":458932532},{"NoteNumber":61,"Velocity":45,"Duration":1206249,"SoundDuration":1206249,"Delta":458932532},{"NoteNumber":68,"Velocity":54,"Duration":199893,"SoundDuration":199893,"Delta":458932532},{"NoteNumber":64,"Velocity":42,"Duration":199893,"SoundDuration":199893,"Delta":459132425},{"NoteNumber":65,"Velocity":42,"Duration":199893,"SoundDuration":199893,"Delta":459332319},{"NoteNumber":71,"Velocity":45,"Duration":606569,"SoundDuration":606569,"Delta":459532212},{"NoteNumber":68,"Velocity":52,"Duration":199893,"SoundDuration":199893,"Delta":459532212},{"NoteNumber":67,"Velocity":47,"Duration":199893,"SoundDuration":199893,"Delta":459732106},{"NoteNumber":65,"Velocity":52,"Duration":206782,"SoundDuration":206782,"Delta":459931999},{"NoteNumber":48,"Velocity":49,"Duration":403937,"SoundDuration":403937,"Delta":460138782},{"NoteNumber":60,"Velocity":58,"Duration":403937,"SoundDuration":403937,"Delta":460138782},{"NoteNumber":64,"Velocity":55,"Duration":198570,"SoundDuration":198570,"Delta":460344149},{"NoteNumber":72,"Velocity":66,"Duration":198570,"SoundDuration":198570,"Delta":460344149},{"NoteNumber":67,"Velocity":55,"Duration":198570,"SoundDuration":198570,"Delta":460344149},{"NoteNumber":71,"Velocity":60,"Duration":99285,"SoundDuration":99285,"Delta":460542719},{"NoteNumber":65,"Velocity":60,"Duration":99285,"SoundDuration":99285,"Delta":460542719},{"NoteNumber":74,"Velocity":73,"Duration":99285,"SoundDuration":99285,"Delta":460542719},{"NoteNumber":60,"Velocity":58,"Duration":404046,"SoundDuration":404046,"Delta":460741290},{"NoteNumber":48,"Velocity":49,"Duration":404046,"SoundDuration":404046,"Delta":460741290},{"NoteNumber":74,"Velocity":66,"Duration":197264,"SoundDuration":197264,"Delta":460948072},{"NoteNumber":65,"Velocity":55,"Duration":197264,"SoundDuration":197264,"Delta":460948072},{"NoteNumber":71,"Velocity":55,"Duration":197264,"SoundDuration":197264,"Delta":460948072},{"NoteNumber":70,"Velocity":61,"Duration":98632,"SoundDuration":98632,"Delta":461145337},{"NoteNumber":67,"Velocity":61,"Duration":98632,"SoundDuration":98632,"Delta":461145337},{"NoteNumber":76,"Velocity":74,"Duration":98632,"SoundDuration":98632,"Delta":461145337},{"NoteNumber":48,"Velocity":49,"Duration":401163,"SoundDuration":401163,"Delta":461342601},{"NoteNumber":60,"Velocity":57,"Duration":401163,"SoundDuration":401163,"Delta":461342601},{"NoteNumber":67,"Velocity":55,"Duration":198570,"SoundDuration":198570,"Delta":461545194},{"NoteNumber":76,"Velocity":66,"Duration":198570,"SoundDuration":198570,"Delta":461545194},{"NoteNumber":70,"Velocity":55,"Duration":198570,"SoundDuration":198570,"Delta":461545194},{"NoteNumber":72,"Velocity":60,"Duration":99285,"SoundDuration":99285,"Delta":461743765},{"NoteNumber":69,"Velocity":60,"Duration":99285,"SoundDuration":99285,"Delta":461743765},{"NoteNumber":77,"Velocity":72,"Duration":99285,"SoundDuration":99285,"Delta":461743765},{"NoteNumber":60,"Velocity":57,"Duration":401163,"SoundDuration":401163,"Delta":461942335},{"NoteNumber":48,"Velocity":49,"Duration":401163,"SoundDuration":401163,"Delta":461942335},{"NoteNumber":78,"Velocity":66,"Duration":198570,"SoundDuration":198570,"Delta":462144928},{"NoteNumber":72,"Velocity":55,"Duration":198570,"SoundDuration":198570,"Delta":462144928},{"NoteNumber":69,"Velocity":55,"Duration":198570,"SoundDuration":198570,"Delta":462144928},{"NoteNumber":79,"Velocity":71,"Duration":99285,"SoundDuration":99285,"Delta":462343499},{"NoteNumber":76,"Velocity":59,"Duration":99285,"SoundDuration":99285,"Delta":462343499},{"NoteNumber":70,"Velocity":59,"Duration":99285,"SoundDuration":99285,"Delta":462343499},{"NoteNumber":48,"Velocity":49,"Duration":403937,"SoundDuration":403937,"Delta":462542069},{"NoteNumber":60,"Velocity":57,"Duration":403937,"SoundDuration":403937,"Delta":462542069},{"NoteNumber":76,"Velocity":55,"Duration":198570,"SoundDuration":198570,"Delta":462747436},{"NoteNumber":70,"Velocity":55,"Duration":198570,"SoundDuration":198570,"Delta":462747436},{"NoteNumber":79,"Velocity":66,"Duration":198570,"SoundDuration":198570,"Delta":462747436},{"NoteNumber":81,"Velocity":73,"Duration":99285,"SoundDuration":99285,"Delta":462946007},{"NoteNumber":72,"Velocity":60,"Duration":99285,"SoundDuration":99285,"Delta":462946007},{"NoteNumber":77,"Velocity":60,"Duration":99285,"SoundDuration":99285,"Delta":462946007},{"NoteNumber":60,"Velocity":56,"Duration":413584,"SoundDuration":413584,"Delta":463144577},{"NoteNumber":48,"Velocity":48,"Duration":413584,"SoundDuration":413584,"Delta":463144577},{"NoteNumber":78,"Velocity":55,"Duration":208217,"SoundDuration":208217,"Delta":463349944},{"NoteNumber":72,"Velocity":55,"Duration":208217,"SoundDuration":208217,"Delta":463349944},{"NoteNumber":81,"Velocity":66,"Duration":208217,"SoundDuration":208217,"Delta":463349944},{"NoteNumber":76,"Velocity":58,"Duration":111873,"SoundDuration":111873,"Delta":463558162},{"NoteNumber":82,"Velocity":70,"Duration":111873,"SoundDuration":111873,"Delta":463558162},{"NoteNumber":79,"Velocity":58,"Duration":111873,"SoundDuration":111873,"Delta":463558162},{"NoteNumber":79,"Velocity":71,"Duration":1212744,"SoundDuration":1212744,"Delta":463781909},{"NoteNumber":76,"Velocity":71,"Duration":1212744,"SoundDuration":1212744,"Delta":463781909},{"NoteNumber":82,"Velocity":86,"Duration":1313361,"SoundDuration":1313361,"Delta":463781909},{"NoteNumber":36,"Velocity":72,"Duration":100616,"SoundDuration":100616,"Delta":463781909},{"NoteNumber":40,"Velocity":60,"Duration":100616,"SoundDuration":100616,"Delta":463983143},{"NoteNumber":43,"Velocity":60,"Duration":100616,"SoundDuration":100616,"Delta":464184377},{"NoteNumber":48,"Velocity":69,"Duration":100616,"SoundDuration":100616,"Delta":464385611},{"NoteNumber":52,"Velocity":60,"Duration":100616,"SoundDuration":100616,"Delta":464586845},{"NoteNumber":55,"Velocity":60,"Duration":103391,"SoundDuration":103391,"Delta":464788079},{"NoteNumber":60,"Velocity":69,"Duration":200591,"SoundDuration":200591,"Delta":464994653},{"NoteNumber":84,"Velocity":63,"Duration":109903,"SoundDuration":109903,"Delta":465095270},{"NoteNumber":86,"Velocity":66,"Duration":109121,"SoundDuration":109121,"Delta":465195245},{"NoteNumber":84,"Velocity":65,"Duration":107358,"SoundDuration":107358,"Delta":465294503},{"NoteNumber":82,"Velocity":63,"Duration":108135,"SoundDuration":108135,"Delta":465392063},{"NoteNumber":81,"Velocity":62,"Duration":109254,"SoundDuration":109254,"Delta":465490335},{"NoteNumber":79,"Velocity":62,"Duration":109941,"SoundDuration":109941,"Delta":465589595},{"NoteNumber":81,"Velocity":64,"Duration":109401,"SoundDuration":109401,"Delta":465689541},{"NoteNumber":82,"Velocity":67,"Duration":108860,"SoundDuration":108860,"Delta":465789014},{"NoteNumber":81,"Velocity":66,"Duration":108495,"SoundDuration":108495,"Delta":465888011},{"NoteNumber":79,"Velocity":64,"Duration":109110,"SoundDuration":109110,"Delta":465986643},{"NoteNumber":77,"Velocity":62,"Duration":109428,"SoundDuration":109428,"Delta":466085825},{"NoteNumber":76,"Velocity":63,"Duration":110211,"SoundDuration":110211,"Delta":466185325},{"NoteNumber":77,"Velocity":63,"Duration":109561,"SoundDuration":109561,"Delta":466285542},{"NoteNumber":79,"Velocity":64,"Duration":108405,"SoundDuration":108405,"Delta":466385175},{"NoteNumber":77,"Velocity":64,"Duration":107368,"SoundDuration":107368,"Delta":466483781},{"NoteNumber":76,"Velocity":62,"Duration":108134,"SoundDuration":108134,"Delta":466581414},{"NoteNumber":74,"Velocity":60,"Duration":109279,"SoundDuration":109279,"Delta":466679620},{"NoteNumber":72,"Velocity":62,"Duration":109941,"SoundDuration":109941,"Delta":466778905},{"NoteNumber":73,"Velocity":62,"Duration":110382,"SoundDuration":110382,"Delta":466878852},{"NoteNumber":74,"Velocity":64,"Duration":109960,"SoundDuration":109960,"Delta":466979173},{"NoteNumber":72,"Velocity":63,"Duration":108903,"SoundDuration":108903,"Delta":467079205},{"NoteNumber":70,"Velocity":61,"Duration":110033,"SoundDuration":110033,"Delta":467178180},{"NoteNumber":69,"Velocity":60,"Duration":111559,"SoundDuration":111559,"Delta":467278152},{"NoteNumber":67,"Velocity":59,"Duration":111058,"SoundDuration":111058,"Delta":467379581},{"NoteNumber":69,"Velocity":61,"Duration":110181,"SoundDuration":110181,"Delta":467480578},{"NoteNumber":70,"Velocity":64,"Duration":108723,"SoundDuration":108723,"Delta":467580765},{"NoteNumber":69,"Velocity":63,"Duration":108427,"SoundDuration":108427,"Delta":467679690},{"NoteNumber":67,"Velocity":61,"Duration":109572,"SoundDuration":109572,"Delta":467778189},{"NoteNumber":65,"Velocity":60,"Duration":110827,"SoundDuration":110827,"Delta":467877766},{"NoteNumber":64,"Velocity":60,"Duration":110698,"SoundDuration":110698,"Delta":467978464},{"NoteNumber":65,"Velocity":62,"Duration":109178,"SoundDuration":109178,"Delta":468079168},{"NoteNumber":67,"Velocity":63,"Duration":107468,"SoundDuration":107468,"Delta":468178483},{"NoteNumber":65,"Velocity":62,"Duration":107026,"SoundDuration":107026,"Delta":468276279},{"NoteNumber":64,"Velocity":60,"Duration":108378,"SoundDuration":108378,"Delta":468373507},{"NoteNumber":62,"Velocity":59,"Duration":99704,"SoundDuration":99704,"Delta":468471957},{"NoteNumber":60,"Velocity":59,"Duration":110678,"SoundDuration":110678,"Delta":468571662},{"NoteNumber":61,"Velocity":60,"Duration":110399,"SoundDuration":110399,"Delta":468672279},{"NoteNumber":62,"Velocity":62,"Duration":109755,"SoundDuration":109755,"Delta":468772683},{"NoteNumber":60,"Velocity":63,"Duration":108495,"SoundDuration":108495,"Delta":468872575},{"NoteNumber":58,"Velocity":62,"Duration":108952,"SoundDuration":108952,"Delta":468971208},{"NoteNumber":57,"Velocity":60,"Duration":109232,"SoundDuration":109232,"Delta":469070232},{"NoteNumber":55,"Velocity":59,"Duration":107136,"SoundDuration":107136,"Delta":469169707},{"NoteNumber":57,"Velocity":61,"Duration":106217,"SoundDuration":106217,"Delta":469267149},{"NoteNumber":58,"Velocity":62,"Duration":105273,"SoundDuration":105273,"Delta":469363734},{"NoteNumber":57,"Velocity":61,"Duration":104968,"SoundDuration":104968,"Delta":469459497},{"NoteNumber":55,"Velocity":59,"Duration":106052,"SoundDuration":106052,"Delta":469554895},{"NoteNumber":53,"Velocity":57,"Duration":107185,"SoundDuration":107185,"Delta":469651253},{"NoteNumber":52,"Velocity":58,"Duration":108033,"SoundDuration":108033,"Delta":469748617},{"NoteNumber":53,"Velocity":60,"Duration":107655,"SoundDuration":107655,"Delta":469846830},{"NoteNumber":55,"Velocity":62,"Duration":106944,"SoundDuration":106944,"Delta":469944728},{"NoteNumber":53,"Velocity":61,"Duration":106268,"SoundDuration":106268,"Delta":470042041},{"NoteNumber":52,"Velocity":61,"Duration":107084,"SoundDuration":107084,"Delta":470138615},{"NoteNumber":50,"Velocity":60,"Duration":108089,"SoundDuration":108089,"Delta":470235942},{"NoteNumber":48,"Velocity":59,"Duration":108036,"SoundDuration":108036,"Delta":470334145},{"NoteNumber":50,"Velocity":60,"Duration":106468,"SoundDuration":106468,"Delta":470432424},{"NoteNumber":48,"Velocity":61,"Duration":104844,"SoundDuration":104844,"Delta":470529281},{"NoteNumber":46,"Velocity":61,"Duration":104662,"SoundDuration":104662,"Delta":470624675},{"NoteNumber":45,"Velocity":60,"Duration":106349,"SoundDuration":106349,"Delta":470719767},{"NoteNumber":43,"Velocity":58,"Duration":99556,"SoundDuration":99556,"Delta":470816359},{"NoteNumber":53,"Velocity":70,"Duration":385282,"SoundDuration":385282,"Delta":470915916},{"NoteNumber":45,"Velocity":59,"Duration":385282,"SoundDuration":385282,"Delta":470915916},{"NoteNumber":48,"Velocity":59,"Duration":385282,"SoundDuration":385282,"Delta":470915916},{"NoteNumber":41,"Velocity":59,"Duration":385282,"SoundDuration":385282,"Delta":470915916},{"NoteNumber":84,"Velocity":66,"Duration":105952,"SoundDuration":105952,"Delta":471012236},{"NoteNumber":83,"Velocity":68,"Duration":105952,"SoundDuration":105952,"Delta":471108557},{"NoteNumber":84,"Velocity":69,"Duration":105952,"SoundDuration":105952,"Delta":471204877},{"NoteNumber":89,"Velocity":70,"Duration":106272,"SoundDuration":106272,"Delta":471301198},{"NoteNumber":84,"Velocity":63,"Duration":109086,"SoundDuration":109086,"Delta":471397518},{"NoteNumber":82,"Velocity":70,"Duration":105276,"SoundDuration":105276,"Delta":471497034},{"NoteNumber":81,"Velocity":66,"Duration":105276,"SoundDuration":105276,"Delta":471592740},{"NoteNumber":80,"Velocity":64,"Duration":105276,"SoundDuration":105276,"Delta":471688446},{"NoteNumber":81,"Velocity":64,"Duration":105276,"SoundDuration":105276,"Delta":471784152},{"NoteNumber":84,"Velocity":70,"Duration":105591,"SoundDuration":105591,"Delta":471879858},{"NoteNumber":81,"Velocity":64,"Duration":108369,"SoundDuration":108369,"Delta":471975564},{"NoteNumber":79,"Velocity":70,"Duration":104609,"SoundDuration":104609,"Delta":472074424},{"NoteNumber":77,"Velocity":64,"Duration":104609,"SoundDuration":104609,"Delta":472169523},{"NoteNumber":76,"Velocity":64,"Duration":104609,"SoundDuration":104609,"Delta":472264622},{"NoteNumber":77,"Velocity":64,"Duration":104609,"SoundDuration":104609,"Delta":472359722},{"NoteNumber":81,"Velocity":70,"Duration":104985,"SoundDuration":104985,"Delta":472454821},{"NoteNumber":77,"Velocity":65,"Duration":108430,"SoundDuration":108430,"Delta":472549920},{"NoteNumber":74,"Velocity":70,"Duration":105276,"SoundDuration":105276,"Delta":472648780},{"NoteNumber":72,"Velocity":65,"Duration":105276,"SoundDuration":105276,"Delta":472744486},{"NoteNumber":71,"Velocity":65,"Duration":105276,"SoundDuration":105276,"Delta":472840192},{"NoteNumber":72,"Velocity":65,"Duration":105276,"SoundDuration":105276,"Delta":472935898},{"NoteNumber":77,"Velocity":70,"Duration":105791,"SoundDuration":105791,"Delta":473031604},{"NoteNumber":72,"Velocity":65,"Duration":110363,"SoundDuration":110363,"Delta":473127310},{"NoteNumber":70,"Velocity":70,"Duration":104609,"SoundDuration":104609,"Delta":473228164},{"NoteNumber":69,"Velocity":66,"Duration":104985,"SoundDuration":104985,"Delta":473323263},{"NoteNumber":68,"Velocity":66,"Duration":108745,"SoundDuration":108745,"Delta":473418362},{"NoteNumber":69,"Velocity":66,"Duration":108745,"SoundDuration":108745,"Delta":473517222},{"NoteNumber":72,"Velocity":70,"Duration":110982,"SoundDuration":110982,"Delta":473616082},{"NoteNumber":69,"Velocity":64,"Duration":131385,"SoundDuration":131385,"Delta":473714942},{"NoteNumber":65,"Velocity":70,"Duration":101536,"SoundDuration":101536,"Delta":473836173},{"NoteNumber":57,"Velocity":70,"Duration":101536,"SoundDuration":101536,"Delta":473836173},{"NoteNumber":77,"Velocity":64,"Duration":95706,"SoundDuration":95706,"Delta":473937710},{"NoteNumber":64,"Velocity":70,"Duration":95706,"SoundDuration":95706,"Delta":474033416},{"NoteNumber":55,"Velocity":66,"Duration":95706,"SoundDuration":95706,"Delta":474033416},{"NoteNumber":77,"Velocity":64,"Duration":95706,"SoundDuration":95706,"Delta":474129122},{"NoteNumber":65,"Velocity":70,"Duration":95706,"SoundDuration":95706,"Delta":474224828},{"NoteNumber":57,"Velocity":66,"Duration":95706,"SoundDuration":95706,"Delta":474224828},{"NoteNumber":77,"Velocity":64,"Duration":101536,"SoundDuration":101536,"Delta":474320534},{"NoteNumber":67,"Velocity":70,"Duration":95706,"SoundDuration":95706,"Delta":474422070},{"NoteNumber":58,"Velocity":70,"Duration":95706,"SoundDuration":95706,"Delta":474422070},{"NoteNumber":77,"Velocity":64,"Duration":95706,"SoundDuration":95706,"Delta":474517776},{"NoteNumber":65,"Velocity":65,"Duration":95706,"SoundDuration":95706,"Delta":474613482},{"NoteNumber":57,"Velocity":67,"Duration":95706,"SoundDuration":95706,"Delta":474613482},{"NoteNumber":77,"Velocity":58,"Duration":95706,"SoundDuration":95706,"Delta":474709188},{"NoteNumber":67,"Velocity":67,"Duration":95705,"SoundDuration":95705,"Delta":474804894},{"NoteNumber":58,"Velocity":67,"Duration":95705,"SoundDuration":95705,"Delta":474804894},{"NoteNumber":77,"Velocity":61,"Duration":100854,"SoundDuration":100854,"Delta":474900600},{"NoteNumber":69,"Velocity":70,"Duration":95099,"SoundDuration":95099,"Delta":475001454},{"NoteNumber":60,"Velocity":70,"Duration":95099,"SoundDuration":95099,"Delta":475001454},{"NoteNumber":77,"Velocity":60,"Duration":95099,"SoundDuration":95099,"Delta":475096554},{"NoteNumber":67,"Velocity":66,"Duration":95099,"SoundDuration":95099,"Delta":475191653},{"NoteNumber":58,"Velocity":67,"Duration":95099,"SoundDuration":95099,"Delta":475191653},{"NoteNumber":77,"Velocity":62,"Duration":95099,"SoundDuration":95099,"Delta":475286752},{"NoteNumber":69,"Velocity":67,"Duration":95099,"SoundDuration":95099,"Delta":475381851},{"NoteNumber":60,"Velocity":67,"Duration":95099,"SoundDuration":95099,"Delta":475381851},{"NoteNumber":77,"Velocity":62,"Duration":114740,"SoundDuration":114740,"Delta":475476951},{"NoteNumber":70,"Velocity":74,"Duration":96320,"SoundDuration":96320,"Delta":475591691},{"NoteNumber":61,"Velocity":74,"Duration":385282,"SoundDuration":385282,"Delta":475591691},{"NoteNumber":77,"Velocity":61,"Duration":96320,"SoundDuration":96320,"Delta":475688011},{"NoteNumber":70,"Velocity":65,"Duration":96320,"SoundDuration":96320,"Delta":475784332},{"NoteNumber":77,"Velocity":61,"Duration":96320,"SoundDuration":96320,"Delta":475880652},{"NoteNumber":69,"Velocity":65,"Duration":96320,"SoundDuration":96320,"Delta":475976973},{"NoteNumber":60,"Velocity":67,"Duration":96320,"SoundDuration":96320,"Delta":475976973},{"NoteNumber":77,"Velocity":60,"Duration":103641,"SoundDuration":103641,"Delta":476073293},{"NoteNumber":70,"Velocity":70,"Duration":95706,"SoundDuration":95706,"Delta":476176935},{"NoteNumber":61,"Velocity":74,"Duration":382824,"SoundDuration":382824,"Delta":476176935},{"NoteNumber":77,"Velocity":60,"Duration":95706,"SoundDuration":95706,"Delta":476272641},{"NoteNumber":70,"Velocity":65,"Duration":95706,"SoundDuration":95706,"Delta":476368347},{"NoteNumber":77,"Velocity":60,"Duration":95706,"SoundDuration":95706,"Delta":476464053},{"NoteNumber":69,"Velocity":65,"Duration":95705,"SoundDuration":95705,"Delta":476559759},{"NoteNumber":60,"Velocity":66,"Duration":95705,"SoundDuration":95705,"Delta":476559759},{"NoteNumber":77,"Velocity":54,"Duration":122870,"SoundDuration":122870,"Delta":476655465},{"NoteNumber":68,"Velocity":49,"Duration":95706,"SoundDuration":95706,"Delta":476778335},{"NoteNumber":59,"Velocity":47,"Duration":95706,"SoundDuration":95706,"Delta":476778335},{"NoteNumber":77,"Velocity":41,"Duration":95706,"SoundDuration":95706,"Delta":476874041},{"NoteNumber":68,"Velocity":49,"Duration":95706,"SoundDuration":95706,"Delta":476969747},{"NoteNumber":59,"Velocity":47,"Duration":95706,"SoundDuration":95706,"Delta":476969747},{"NoteNumber":77,"Velocity":42,"Duration":95706,"SoundDuration":95706,"Delta":477065453},{"NoteNumber":68,"Velocity":49,"Duration":95705,"SoundDuration":95705,"Delta":477161159},{"NoteNumber":59,"Velocity":47,"Duration":95705,"SoundDuration":95705,"Delta":477161159},{"NoteNumber":77,"Velocity":40,"Duration":103641,"SoundDuration":103641,"Delta":477256865},{"NoteNumber":67,"Velocity":48,"Duration":210187,"SoundDuration":210187,"Delta":477360506},{"NoteNumber":76,"Velocity":48,"Duration":210187,"SoundDuration":210187,"Delta":477360506},{"NoteNumber":60,"Velocity":50,"Duration":210187,"SoundDuration":210187,"Delta":477360506},{"NoteNumber":45,"Velocity":59,"Duration":385282,"SoundDuration":385282,"Delta":477991067},{"NoteNumber":48,"Velocity":59,"Duration":385282,"SoundDuration":385282,"Delta":477991067},{"NoteNumber":53,"Velocity":70,"Duration":385282,"SoundDuration":385282,"Delta":477991067},{"NoteNumber":41,"Velocity":59,"Duration":385282,"SoundDuration":385282,"Delta":477991067},{"NoteNumber":84,"Velocity":66,"Duration":105952,"SoundDuration":105952,"Delta":478087388},{"NoteNumber":83,"Velocity":68,"Duration":105952,"SoundDuration":105952,"Delta":478183708},{"NoteNumber":84,"Velocity":69,"Duration":105952,"SoundDuration":105952,"Delta":478280029},{"NoteNumber":89,"Velocity":70,"Duration":106272,"SoundDuration":106272,"Delta":478376349},{"NoteNumber":84,"Velocity":63,"Duration":109086,"SoundDuration":109086,"Delta":478472670},{"NoteNumber":82,"Velocity":70,"Duration":105276,"SoundDuration":105276,"Delta":478572185},{"NoteNumber":81,"Velocity":66,"Duration":105276,"SoundDuration":105276,"Delta":478667891},{"NoteNumber":80,"Velocity":64,"Duration":105276,"SoundDuration":105276,"Delta":478763597},{"NoteNumber":81,"Velocity":64,"Duration":105276,"SoundDuration":105276,"Delta":478859303},{"NoteNumber":84,"Velocity":70,"Duration":105591,"SoundDuration":105591,"Delta":478955009},{"NoteNumber":81,"Velocity":64,"Duration":108369,"SoundDuration":108369,"Delta":479050715},{"NoteNumber":79,"Velocity":70,"Duration":104609,"SoundDuration":104609,"Delta":479149575},{"NoteNumber":77,"Velocity":64,"Duration":104609,"SoundDuration":104609,"Delta":479244674},{"NoteNumber":76,"Velocity":64,"Duration":104609,"SoundDuration":104609,"Delta":479339774},{"NoteNumber":77,"Velocity":64,"Duration":104609,"SoundDuration":104609,"Delta":479434873},{"NoteNumber":81,"Velocity":70,"Duration":104985,"SoundDuration":104985,"Delta":479529972},{"NoteNumber":77,"Velocity":65,"Duration":108430,"SoundDuration":108430,"Delta":479625071},{"NoteNumber":74,"Velocity":70,"Duration":105276,"SoundDuration":105276,"Delta":479723931},{"NoteNumber":72,"Velocity":65,"Duration":105276,"SoundDuration":105276,"Delta":479819637},{"NoteNumber":71,"Velocity":65,"Duration":105276,"SoundDuration":105276,"Delta":479915343},{"NoteNumber":72,"Velocity":65,"Duration":105276,"SoundDuration":105276,"Delta":480011049},{"NoteNumber":77,"Velocity":70,"Duration":105791,"SoundDuration":105791,"Delta":480106755},{"NoteNumber":72,"Velocity":65,"Duration":110363,"SoundDuration":110363,"Delta":480202461},{"NoteNumber":70,"Velocity":70,"Duration":104609,"SoundDuration":104609,"Delta":480303315},{"NoteNumber":69,"Velocity":66,"Duration":104985,"SoundDuration":104985,"Delta":480398414},{"NoteNumber":68,"Velocity":66,"Duration":108745,"SoundDuration":108745,"Delta":480493514},{"NoteNumber":69,"Velocity":66,"Duration":108745,"SoundDuration":108745,"Delta":480592373},{"NoteNumber":72,"Velocity":70,"Duration":110982,"SoundDuration":110982,"Delta":480691233},{"NoteNumber":69,"Velocity":64,"Duration":131454,"SoundDuration":131454,"Delta":480790093},{"NoteNumber":65,"Velocity":70,"Duration":102228,"SoundDuration":102228,"Delta":480911325},{"NoteNumber":57,"Velocity":70,"Duration":102228,"SoundDuration":102228,"Delta":480911325},{"NoteNumber":77,"Velocity":64,"Duration":95706,"SoundDuration":95706,"Delta":481013553},{"NoteNumber":64,"Velocity":70,"Duration":95706,"SoundDuration":95706,"Delta":481109259},{"NoteNumber":55,"Velocity":66,"Duration":95706,"SoundDuration":95706,"Delta":481109259},{"NoteNumber":77,"Velocity":64,"Duration":95706,"SoundDuration":95706,"Delta":481204965},{"NoteNumber":65,"Velocity":70,"Duration":95706,"SoundDuration":95706,"Delta":481300671},{"NoteNumber":57,"Velocity":66,"Duration":95706,"SoundDuration":95706,"Delta":481300671},{"NoteNumber":77,"Velocity":64,"Duration":101536,"SoundDuration":101536,"Delta":481396377},{"NoteNumber":67,"Velocity":70,"Duration":95706,"SoundDuration":95706,"Delta":481497914},{"NoteNumber":58,"Velocity":70,"Duration":95706,"SoundDuration":95706,"Delta":481497914},{"NoteNumber":77,"Velocity":64,"Duration":95706,"SoundDuration":95706,"Delta":481593620},{"NoteNumber":65,"Velocity":65,"Duration":95706,"SoundDuration":95706,"Delta":481689326},{"NoteNumber":57,"Velocity":67,"Duration":95706,"SoundDuration":95706,"Delta":481689326},{"NoteNumber":77,"Velocity":58,"Duration":95706,"SoundDuration":95706,"Delta":481785032},{"NoteNumber":67,"Velocity":67,"Duration":95705,"SoundDuration":95705,"Delta":481880738},{"NoteNumber":58,"Velocity":67,"Duration":95705,"SoundDuration":95705,"Delta":481880738},{"NoteNumber":77,"Velocity":61,"Duration":100854,"SoundDuration":100854,"Delta":481976444},{"NoteNumber":69,"Velocity":70,"Duration":95099,"SoundDuration":95099,"Delta":482077298},{"NoteNumber":60,"Velocity":70,"Duration":95099,"SoundDuration":95099,"Delta":482077298},{"NoteNumber":77,"Velocity":60,"Duration":95099,"SoundDuration":95099,"Delta":482172397},{"NoteNumber":67,"Velocity":66,"Duration":95099,"SoundDuration":95099,"Delta":482267496},{"NoteNumber":58,"Velocity":67,"Duration":95099,"SoundDuration":95099,"Delta":482267496},{"NoteNumber":77,"Velocity":62,"Duration":95099,"SoundDuration":95099,"Delta":482362595},{"NoteNumber":69,"Velocity":67,"Duration":95099,"SoundDuration":95099,"Delta":482457695},{"NoteNumber":60,"Velocity":67,"Duration":95099,"SoundDuration":95099,"Delta":482457695},{"NoteNumber":77,"Velocity":62,"Duration":114740,"SoundDuration":114740,"Delta":482552794},{"NoteNumber":70,"Velocity":74,"Duration":96320,"SoundDuration":96320,"Delta":482667534},{"NoteNumber":61,"Velocity":74,"Duration":385282,"SoundDuration":385282,"Delta":482667534},{"NoteNumber":77,"Velocity":61,"Duration":96320,"SoundDuration":96320,"Delta":482763855},{"NoteNumber":70,"Velocity":65,"Duration":96320,"SoundDuration":96320,"Delta":482860175},{"NoteNumber":77,"Velocity":61,"Duration":96320,"SoundDuration":96320,"Delta":482956496},{"NoteNumber":69,"Velocity":65,"Duration":96320,"SoundDuration":96320,"Delta":483052816},{"NoteNumber":60,"Velocity":67,"Duration":96320,"SoundDuration":96320,"Delta":483052816},{"NoteNumber":77,"Velocity":60,"Duration":103641,"SoundDuration":103641,"Delta":483149137},{"NoteNumber":70,"Velocity":70,"Duration":95706,"SoundDuration":95706,"Delta":483252778},{"NoteNumber":61,"Velocity":74,"Duration":382824,"SoundDuration":382824,"Delta":483252778},{"NoteNumber":77,"Velocity":60,"Duration":95706,"SoundDuration":95706,"Delta":483348484},{"NoteNumber":70,"Velocity":65,"Duration":95706,"SoundDuration":95706,"Delta":483444190},{"NoteNumber":77,"Velocity":60,"Duration":95706,"SoundDuration":95706,"Delta":483539896},{"NoteNumber":69,"Velocity":65,"Duration":95705,"SoundDuration":95705,"Delta":483635602},{"NoteNumber":60,"Velocity":66,"Duration":95705,"SoundDuration":95705,"Delta":483635602},{"NoteNumber":77,"Velocity":46,"Duration":102930,"SoundDuration":102930,"Delta":483731308},{"NoteNumber":68,"Velocity":44,"Duration":118036,"SoundDuration":118036,"Delta":483834238},{"NoteNumber":59,"Velocity":36,"Duration":118036,"SoundDuration":118036,"Delta":483834238},{"NoteNumber":77,"Velocity":36,"Duration":118035,"SoundDuration":118035,"Delta":483952274},{"NoteNumber":67,"Velocity":42,"Duration":116206,"SoundDuration":116206,"Delta":484491890},{"NoteNumber":58,"Velocity":36,"Duration":116206,"SoundDuration":116206,"Delta":484491890},{"NoteNumber":76,"Velocity":34,"Duration":116207,"SoundDuration":116207,"Delta":484608097},{"NoteNumber":66,"Velocity":43,"Duration":116206,"SoundDuration":116206,"Delta":485154992},{"NoteNumber":57,"Velocity":35,"Duration":116206,"SoundDuration":116206,"Delta":485154992},{"NoteNumber":75,"Velocity":36,"Duration":116207,"SoundDuration":116207,"Delta":485271199},{"NoteNumber":46,"Velocity":58,"Duration":99515,"SoundDuration":99515,"Delta":485806752},{"NoteNumber":58,"Velocity":61,"Duration":99515,"SoundDuration":99515,"Delta":485906268},{"NoteNumber":62,"Velocity":58,"Duration":99515,"SoundDuration":99515,"Delta":486005784},{"NoteNumber":67,"Velocity":59,"Duration":99515,"SoundDuration":99515,"Delta":486105300},{"NoteNumber":70,"Velocity":60,"Duration":99515,"SoundDuration":99515,"Delta":486204815},{"NoteNumber":74,"Velocity":61,"Duration":99515,"SoundDuration":99515,"Delta":486304331},{"NoteNumber":72,"Velocity":62,"Duration":109467,"SoundDuration":109467,"Delta":486403847},{"NoteNumber":52,"Velocity":45,"Duration":622395,"SoundDuration":622395,"Delta":486403847},{"NoteNumber":58,"Velocity":57,"Duration":622395,"SoundDuration":622395,"Delta":486403847},{"NoteNumber":48,"Velocity":45,"Duration":622395,"SoundDuration":622395,"Delta":486403847},{"NoteNumber":70,"Velocity":62,"Duration":109467,"SoundDuration":109467,"Delta":486503363},{"NoteNumber":69,"Velocity":60,"Duration":109467,"SoundDuration":109467,"Delta":486602878},{"NoteNumber":67,"Velocity":59,"Duration":110732,"SoundDuration":110732,"Delta":486702394},{"NoteNumber":65,"Velocity":57,"Duration":123382,"SoundDuration":123382,"Delta":486801910},{"NoteNumber":64,"Velocity":55,"Duration":122117,"SoundDuration":122117,"Delta":486914076},{"NoteNumber":65,"Velocity":58,"Duration":99515,"SoundDuration":99515,"Delta":487026242},{"NoteNumber":53,"Velocity":40,"Duration":199031,"SoundDuration":199031,"Delta":487026242},{"NoteNumber":57,"Velocity":51,"Duration":199031,"SoundDuration":199031,"Delta":487026242},{"NoteNumber":60,"Velocity":49,"Duration":199031,"SoundDuration":199031,"Delta":487225274},{"NoteNumber":60,"Velocity":49,"Duration":153970,"SoundDuration":153970,"Delta":487424305},{"NoteNumber":64,"Velocity":41,"Duration":54454,"SoundDuration":54454,"Delta":487578275},{"NoteNumber":70,"Velocity":49,"Duration":796126,"SoundDuration":796126,"Delta":487632730},{"NoteNumber":48,"Velocity":41,"Duration":199031,"SoundDuration":199031,"Delta":487632730},{"NoteNumber":60,"Velocity":31,"Duration":99515,"SoundDuration":99515,"Delta":487831761},{"NoteNumber":58,"Velocity":24,"Duration":99515,"SoundDuration":99515,"Delta":487831761},{"NoteNumber":60,"Velocity":31,"Duration":99515,"SoundDuration":99515,"Delta":488030793},{"NoteNumber":58,"Velocity":24,"Duration":99515,"SoundDuration":99515,"Delta":488030793},{"NoteNumber":60,"Velocity":31,"Duration":99515,"SoundDuration":99515,"Delta":488229824},{"NoteNumber":58,"Velocity":24,"Duration":99515,"SoundDuration":99515,"Delta":488229824},{"NoteNumber":69,"Velocity":43,"Duration":99515,"SoundDuration":99515,"Delta":488428856},{"NoteNumber":60,"Velocity":31,"Duration":99515,"SoundDuration":99515,"Delta":488428856},{"NoteNumber":58,"Velocity":24,"Duration":99515,"SoundDuration":99515,"Delta":488428856},{"NoteNumber":67,"Velocity":43,"Duration":99515,"SoundDuration":99515,"Delta":488627887},{"NoteNumber":60,"Velocity":31,"Duration":99515,"SoundDuration":99515,"Delta":488627887},{"NoteNumber":58,"Velocity":24,"Duration":99515,"SoundDuration":99515,"Delta":488627887},{"NoteNumber":67,"Velocity":49,"Duration":199031,"SoundDuration":199031,"Delta":488835527},{"NoteNumber":53,"Velocity":41,"Duration":199031,"SoundDuration":199031,"Delta":488835527},{"NoteNumber":65,"Velocity":45,"Duration":398063,"SoundDuration":398063,"Delta":489034558},{"NoteNumber":57,"Velocity":24,"Duration":99515,"SoundDuration":99515,"Delta":489034558},{"NoteNumber":60,"Velocity":31,"Duration":99515,"SoundDuration":99515,"Delta":489034558},{"NoteNumber":57,"Velocity":24,"Duration":99515,"SoundDuration":99515,"Delta":489233590},{"NoteNumber":60,"Velocity":31,"Duration":99515,"SoundDuration":99515,"Delta":489233590},{"NoteNumber":65,"Velocity":45,"Duration":552835,"SoundDuration":552835,"Delta":489432621},{"NoteNumber":60,"Velocity":31,"Duration":99515,"SoundDuration":99515,"Delta":489432621},{"NoteNumber":57,"Velocity":24,"Duration":99515,"SoundDuration":99515,"Delta":489432621},{"NoteNumber":60,"Velocity":31,"Duration":99515,"SoundDuration":99515,"Delta":489631653},{"NoteNumber":57,"Velocity":24,"Duration":99515,"SoundDuration":99515,"Delta":489631653},{"NoteNumber":60,"Velocity":31,"Duration":99515,"SoundDuration":99515,"Delta":489830684},{"NoteNumber":57,"Velocity":24,"Duration":99515,"SoundDuration":99515,"Delta":489830684},{"NoteNumber":64,"Velocity":41,"Duration":55256,"SoundDuration":55256,"Delta":489985457},{"NoteNumber":70,"Velocity":49,"Duration":796126,"SoundDuration":796126,"Delta":490040714},{"NoteNumber":48,"Velocity":41,"Duration":199031,"SoundDuration":199031,"Delta":490040714},{"NoteNumber":55,"Velocity":24,"Duration":99515,"SoundDuration":99515,"Delta":490239745},{"NoteNumber":60,"Velocity":31,"Duration":99515,"SoundDuration":99515,"Delta":490239745},{"NoteNumber":55,"Velocity":24,"Duration":99515,"SoundDuration":99515,"Delta":490438777},{"NoteNumber":60,"Velocity":31,"Duration":99515,"SoundDuration":99515,"Delta":490438777},{"NoteNumber":55,"Velocity":24,"Duration":99515,"SoundDuration":99515,"Delta":490637808},{"NoteNumber":60,"Velocity":31,"Duration":99515,"SoundDuration":99515,"Delta":490637808},{"NoteNumber":69,"Velocity":43,"Duration":99515,"SoundDuration":99515,"Delta":490836840},{"NoteNumber":55,"Velocity":24,"Duration":99515,"SoundDuration":99515,"Delta":490836840},{"NoteNumber":60,"Velocity":31,"Duration":99515,"SoundDuration":99515,"Delta":490836840},{"NoteNumber":67,"Velocity":43,"Duration":99515,"SoundDuration":99515,"Delta":491035871},{"NoteNumber":55,"Velocity":24,"Duration":99515,"SoundDuration":99515,"Delta":491035871},{"NoteNumber":60,"Velocity":31,"Duration":99515,"SoundDuration":99515,"Delta":491035871},{"NoteNumber":71,"Velocity":51,"Duration":597094,"SoundDuration":597094,"Delta":491252822},{"NoteNumber":53,"Velocity":41,"Duration":199031,"SoundDuration":199031,"Delta":491252822},{"NoteNumber":57,"Velocity":24,"Duration":99515,"SoundDuration":99515,"Delta":491451854},{"NoteNumber":60,"Velocity":31,"Duration":99515,"SoundDuration":99515,"Delta":491451854},{"NoteNumber":57,"Velocity":24,"Duration":99515,"SoundDuration":99515,"Delta":491650885},{"NoteNumber":60,"Velocity":31,"Duration":99515,"SoundDuration":99515,"Delta":491650885},{"NoteNumber":72,"Velocity":45,"Duration":199031,"SoundDuration":199031,"Delta":491849917},{"NoteNumber":57,"Velocity":24,"Duration":99515,"SoundDuration":99515,"Delta":491849917},{"NoteNumber":60,"Velocity":31,"Duration":99515,"SoundDuration":99515,"Delta":491849917},{"NoteNumber":57,"Velocity":24,"Duration":99515,"SoundDuration":99515,"Delta":492048948},{"NoteNumber":60,"Velocity":31,"Duration":99515,"SoundDuration":99515,"Delta":492048948},{"NoteNumber":57,"Velocity":24,"Duration":99515,"SoundDuration":99515,"Delta":492247980},{"NoteNumber":60,"Velocity":31,"Duration":99515,"SoundDuration":99515,"Delta":492247980},{"NoteNumber":64,"Velocity":41,"Duration":54454,"SoundDuration":54454,"Delta":492397253},{"NoteNumber":70,"Velocity":49,"Duration":796126,"SoundDuration":796126,"Delta":492451708},{"NoteNumber":48,"Velocity":41,"Duration":199031,"SoundDuration":199031,"Delta":492451708},{"NoteNumber":60,"Velocity":31,"Duration":99515,"SoundDuration":99515,"Delta":492650739},{"NoteNumber":58,"Velocity":24,"Duration":99515,"SoundDuration":99515,"Delta":492650739},{"NoteNumber":60,"Velocity":31,"Duration":99515,"SoundDuration":99515,"Delta":492849771},{"NoteNumber":58,"Velocity":24,"Duration":99515,"SoundDuration":99515,"Delta":492849771},{"NoteNumber":60,"Velocity":31,"Duration":99515,"SoundDuration":99515,"Delta":493048802},{"NoteNumber":58,"Velocity":24,"Duration":99515,"SoundDuration":99515,"Delta":493048802},{"NoteNumber":69,"Velocity":43,"Duration":99515,"SoundDuration":99515,"Delta":493247834},{"NoteNumber":60,"Velocity":31,"Duration":99515,"SoundDuration":99515,"Delta":493247834},{"NoteNumber":58,"Velocity":24,"Duration":99515,"SoundDuration":99515,"Delta":493247834},{"NoteNumber":67,"Velocity":43,"Duration":99515,"SoundDuration":99515,"Delta":493446865},{"NoteNumber":58,"Velocity":24,"Duration":99515,"SoundDuration":99515,"Delta":493446865},{"NoteNumber":60,"Velocity":31,"Duration":99515,"SoundDuration":99515,"Delta":493446865},{"NoteNumber":65,"Velocity":54,"Duration":398062,"SoundDuration":398062,"Delta":493654505},{"NoteNumber":53,"Velocity":41,"Duration":199031,"SoundDuration":199031,"Delta":493654505},{"NoteNumber":57,"Velocity":24,"Duration":99515,"SoundDuration":99515,"Delta":493853536},{"NoteNumber":60,"Velocity":31,"Duration":99515,"SoundDuration":99515,"Delta":493853536},{"NoteNumber":69,"Velocity":60,"Duration":597094,"SoundDuration":597094,"Delta":494052568},{"NoteNumber":57,"Velocity":24,"Duration":99515,"SoundDuration":99515,"Delta":494052568},{"NoteNumber":60,"Velocity":31,"Duration":99515,"SoundDuration":99515,"Delta":494052568},{"NoteNumber":60,"Velocity":31,"Duration":99515,"SoundDuration":99515,"Delta":494251599},{"NoteNumber":57,"Velocity":24,"Duration":99515,"SoundDuration":99515,"Delta":494251599},{"NoteNumber":60,"Velocity":31,"Duration":99515,"SoundDuration":99515,"Delta":494450631},{"NoteNumber":57,"Velocity":24,"Duration":99515,"SoundDuration":99515,"Delta":494450631},{"NoteNumber":72,"Velocity":60,"Duration":597094,"SoundDuration":597094,"Delta":494649662},{"NoteNumber":60,"Velocity":31,"Duration":99515,"SoundDuration":99515,"Delta":494649662},{"NoteNumber":57,"Velocity":24,"Duration":99515,"SoundDuration":99515,"Delta":494649662},{"NoteNumber":48,"Velocity":41,"Duration":199031,"SoundDuration":199031,"Delta":494848694},{"NoteNumber":55,"Velocity":24,"Duration":99515,"SoundDuration":99515,"Delta":495047725},{"NoteNumber":60,"Velocity":31,"Duration":99515,"SoundDuration":99515,"Delta":495047725},{"NoteNumber":70,"Velocity":58,"Duration":597094,"SoundDuration":597094,"Delta":495246757},{"NoteNumber":60,"Velocity":31,"Duration":99515,"SoundDuration":99515,"Delta":495246757},{"NoteNumber":55,"Velocity":24,"Duration":99515,"SoundDuration":99515,"Delta":495246757},{"NoteNumber":58,"Velocity":24,"Duration":99515,"SoundDuration":99515,"Delta":495445788},{"NoteNumber":60,"Velocity":31,"Duration":99515,"SoundDuration":99515,"Delta":495445788},{"NoteNumber":60,"Velocity":31,"Duration":99515,"SoundDuration":99515,"Delta":495644820},{"NoteNumber":58,"Velocity":24,"Duration":99515,"SoundDuration":99515,"Delta":495644820},{"NoteNumber":67,"Velocity":50,"Duration":193886,"SoundDuration":193886,"Delta":495843851},{"NoteNumber":58,"Velocity":24,"Duration":96943,"SoundDuration":96943,"Delta":495843851},{"NoteNumber":60,"Velocity":31,"Duration":96943,"SoundDuration":96943,"Delta":495843851},{"NoteNumber":65,"Velocity":56,"Duration":199031,"SoundDuration":199031,"Delta":496037737},{"NoteNumber":60,"Velocity":41,"Duration":199031,"SoundDuration":199031,"Delta":496037737},{"NoteNumber":53,"Velocity":32,"Duration":199031,"SoundDuration":199031,"Delta":496037737},{"NoteNumber":57,"Velocity":32,"Duration":199031,"SoundDuration":199031,"Delta":496037737},{"NoteNumber":73,"Velocity":69,"Duration":597094,"SoundDuration":597094,"Delta":496634832},{"NoteNumber":85,"Velocity":82,"Duration":597094,"SoundDuration":597094,"Delta":496634832},{"NoteNumber":51,"Velocity":52,"Duration":597094,"SoundDuration":597094,"Delta":496634832},{"NoteNumber":55,"Velocity":52,"Duration":597094,"SoundDuration":597094,"Delta":496634832},{"NoteNumber":61,"Velocity":62,"Duration":597094,"SoundDuration":597094,"Delta":496634832},{"NoteNumber":74,"Velocity":74,"Duration":595711,"SoundDuration":595711,"Delta":497231926},{"NoteNumber":86,"Velocity":88,"Duration":595711,"SoundDuration":595711,"Delta":497231926},{"NoteNumber":62,"Velocity":68,"Duration":595711,"SoundDuration":595711,"Delta":497231926},{"NoteNumber":54,"Velocity":57,"Duration":595711,"SoundDuration":595711,"Delta":497231926},{"NoteNumber":50,"Velocity":57,"Duration":595711,"SoundDuration":595711,"Delta":497231926},{"NoteNumber":84,"Velocity":84,"Duration":595711,"SoundDuration":595711,"Delta":497827638},{"NoteNumber":74,"Velocity":71,"Duration":595711,"SoundDuration":595711,"Delta":497827638},{"NoteNumber":74,"Velocity":72,"Duration":595711,"SoundDuration":595711,"Delta":498423349},{"NoteNumber":82,"Velocity":85,"Duration":595711,"SoundDuration":595711,"Delta":498423349},{"NoteNumber":50,"Velocity":63,"Duration":595711,"SoundDuration":595711,"Delta":498423349},{"NoteNumber":62,"Velocity":74,"Duration":595711,"SoundDuration":595711,"Delta":498423349},{"NoteNumber":74,"Velocity":65,"Duration":595711,"SoundDuration":595711,"Delta":499019061},{"NoteNumber":81,"Velocity":76,"Duration":595711,"SoundDuration":595711,"Delta":499019061},{"NoteNumber":48,"Velocity":63,"Duration":595711,"SoundDuration":595711,"Delta":499019061},{"NoteNumber":60,"Velocity":74,"Duration":595711,"SoundDuration":595711,"Delta":499019061},{"NoteNumber":79,"Velocity":79,"Duration":595711,"SoundDuration":595711,"Delta":499614772},{"NoteNumber":74,"Velocity":67,"Duration":595711,"SoundDuration":595711,"Delta":499614772},{"NoteNumber":46,"Velocity":63,"Duration":595711,"SoundDuration":595711,"Delta":499614772},{"NoteNumber":58,"Velocity":74,"Duration":595711,"SoundDuration":595711,"Delta":499614772},{"NoteNumber":72,"Velocity":65,"Duration":629019,"SoundDuration":629019,"Delta":500210484},{"NoteNumber":78,"Velocity":76,"Duration":629019,"SoundDuration":629019,"Delta":500210484},{"NoteNumber":74,"Velocity":65,"Duration":629019,"SoundDuration":629019,"Delta":500210484},{"NoteNumber":45,"Velocity":63,"Duration":629019,"SoundDuration":629019,"Delta":500210484},{"NoteNumber":57,"Velocity":74,"Duration":629019,"SoundDuration":629019,"Delta":500210484},{"NoteNumber":79,"Velocity":65,"Duration":99285,"SoundDuration":99285,"Delta":500839503},{"NoteNumber":55,"Velocity":59,"Duration":198570,"SoundDuration":198570,"Delta":500839503},{"NoteNumber":74,"Velocity":54,"Duration":99285,"SoundDuration":99285,"Delta":500938788},{"NoteNumber":70,"Velocity":54,"Duration":96724,"SoundDuration":96724,"Delta":501038073},{"NoteNumber":58,"Velocity":54,"Duration":193448,"SoundDuration":193448,"Delta":501038073},{"NoteNumber":74,"Velocity":54,"Duration":96724,"SoundDuration":96724,"Delta":501134797},{"NoteNumber":79,"Velocity":65,"Duration":102683,"SoundDuration":102683,"Delta":501231522},{"NoteNumber":62,"Velocity":54,"Duration":205367,"SoundDuration":205367,"Delta":501231522},{"NoteNumber":74,"Velocity":54,"Duration":102683,"SoundDuration":102683,"Delta":501334205},{"NoteNumber":81,"Velocity":65,"Duration":98632,"SoundDuration":98632,"Delta":501436889},{"NoteNumber":54,"Velocity":59,"Duration":197264,"SoundDuration":197264,"Delta":501436889},{"NoteNumber":74,"Velocity":54,"Duration":98632,"SoundDuration":98632,"Delta":501535521},{"NoteNumber":72,"Velocity":54,"Duration":96104,"SoundDuration":96104,"Delta":501634153},{"NoteNumber":57,"Velocity":54,"Duration":192208,"SoundDuration":192208,"Delta":501634153},{"NoteNumber":74,"Velocity":54,"Duration":96104,"SoundDuration":96104,"Delta":501730258},{"NoteNumber":81,"Velocity":65,"Duration":100616,"SoundDuration":100616,"Delta":501826362},{"NoteNumber":62,"Velocity":54,"Duration":201233,"SoundDuration":201233,"Delta":501826362},{"NoteNumber":74,"Velocity":55,"Duration":100616,"SoundDuration":100616,"Delta":501926979},{"NoteNumber":82,"Velocity":65,"Duration":97987,"SoundDuration":97987,"Delta":502027596},{"NoteNumber":55,"Velocity":59,"Duration":195975,"SoundDuration":195975,"Delta":502027596},{"NoteNumber":79,"Velocity":55,"Duration":97987,"SoundDuration":97987,"Delta":502125584},{"NoteNumber":74,"Velocity":55,"Duration":97988,"SoundDuration":97988,"Delta":502223572},{"NoteNumber":58,"Velocity":54,"Duration":195976,"SoundDuration":195976,"Delta":502223572},{"NoteNumber":79,"Velocity":55,"Duration":97987,"SoundDuration":97987,"Delta":502321560},{"NoteNumber":82,"Velocity":65,"Duration":100616,"SoundDuration":100616,"Delta":502419548},{"NoteNumber":62,"Velocity":54,"Duration":201233,"SoundDuration":201233,"Delta":502419548},{"NoteNumber":79,"Velocity":55,"Duration":100616,"SoundDuration":100616,"Delta":502520165},{"NoteNumber":83,"Velocity":65,"Duration":97987,"SoundDuration":97987,"Delta":502620782},{"NoteNumber":53,"Velocity":59,"Duration":195975,"SoundDuration":195975,"Delta":502620782},{"NoteNumber":79,"Velocity":55,"Duration":97987,"SoundDuration":97987,"Delta":502718770},{"NoteNumber":74,"Velocity":55,"Duration":96104,"SoundDuration":96104,"Delta":502816758},{"NoteNumber":59,"Velocity":53,"Duration":192208,"SoundDuration":192208,"Delta":502816758},{"NoteNumber":79,"Velocity":55,"Duration":96104,"SoundDuration":96104,"Delta":502912863},{"NoteNumber":83,"Velocity":65,"Duration":100616,"SoundDuration":100616,"Delta":503008967},{"NoteNumber":62,"Velocity":53,"Duration":201233,"SoundDuration":201233,"Delta":503008967},{"NoteNumber":79,"Velocity":56,"Duration":100616,"SoundDuration":100616,"Delta":503109584},{"NoteNumber":84,"Velocity":65,"Duration":394528,"SoundDuration":394528,"Delta":503210201},{"NoteNumber":52,"Velocity":58,"Duration":394528,"SoundDuration":394528,"Delta":503210201},{"NoteNumber":86,"Velocity":59,"Duration":97352,"SoundDuration":97352,"Delta":503604730},{"NoteNumber":84,"Velocity":59,"Duration":97352,"SoundDuration":97352,"Delta":503702082},{"NoteNumber":82,"Velocity":65,"Duration":397140,"SoundDuration":397140,"Delta":503799434},{"NoteNumber":84,"Velocity":57,"Duration":97987,"SoundDuration":97987,"Delta":504196575},{"NoteNumber":82,"Velocity":57,"Duration":97987,"SoundDuration":97987,"Delta":504294563},{"NoteNumber":81,"Velocity":65,"Duration":399787,"SoundDuration":399787,"Delta":504392551},{"NoteNumber":72,"Velocity":54,"Duration":597051,"SoundDuration":597051,"Delta":504392551},{"NoteNumber":82,"Velocity":57,"Duration":98632,"SoundDuration":98632,"Delta":504792338},{"NoteNumber":81,"Velocity":57,"Duration":98632,"SoundDuration":98632,"Delta":504890970},{"NoteNumber":79,"Velocity":65,"Duration":399787,"SoundDuration":399787,"Delta":504989603},{"NoteNumber":70,"Velocity":44,"Duration":595762,"SoundDuration":595762,"Delta":504989603},{"NoteNumber":72,"Velocity":52,"Duration":595762,"SoundDuration":595762,"Delta":504989603},{"NoteNumber":81,"Velocity":59,"Duration":97987,"SoundDuration":97987,"Delta":505389390},{"NoteNumber":79,"Velocity":59,"Duration":97987,"SoundDuration":97987,"Delta":505487378},{"NoteNumber":77,"Velocity":65,"Duration":399787,"SoundDuration":399787,"Delta":505585366},{"NoteNumber":72,"Velocity":47,"Duration":595762,"SoundDuration":595762,"Delta":505585366},{"NoteNumber":69,"Velocity":40,"Duration":595762,"SoundDuration":595762,"Delta":505585366},{"NoteNumber":79,"Velocity":59,"Duration":97987,"SoundDuration":97987,"Delta":505985153},{"NoteNumber":77,"Velocity":59,"Duration":97987,"SoundDuration":97987,"Delta":506083141},{"NoteNumber":76,"Velocity":65,"Duration":399786,"SoundDuration":399786,"Delta":506181129},{"NoteNumber":70,"Velocity":39,"Duration":602379,"SoundDuration":602379,"Delta":506181129},{"NoteNumber":72,"Velocity":46,"Duration":602379,"SoundDuration":602379,"Delta":506181129},{"NoteNumber":67,"Velocity":39,"Duration":602379,"SoundDuration":602379,"Delta":506181129},{"NoteNumber":77,"Velocity":56,"Duration":101296,"SoundDuration":101296,"Delta":506580916},{"NoteNumber":76,"Velocity":56,"Duration":101296,"SoundDuration":101296,"Delta":506682212},{"NoteNumber":79,"Velocity":62,"Duration":109941,"SoundDuration":109941,"Delta":506783509},{"NoteNumber":65,"Velocity":44,"Duration":99946,"SoundDuration":99946,"Delta":506783509},{"NoteNumber":77,"Velocity":54,"Duration":109941,"SoundDuration":109941,"Delta":506883455},{"NoteNumber":76,"Velocity":54,"Duration":109941,"SoundDuration":109941,"Delta":506983402},{"NoteNumber":69,"Velocity":37,"Duration":99946,"SoundDuration":99946,"Delta":506983402},{"NoteNumber":77,"Velocity":54,"Duration":109941,"SoundDuration":109941,"Delta":507083349},{"NoteNumber":76,"Velocity":53,"Duration":110215,"SoundDuration":110215,"Delta":507183296},{"NoteNumber":72,"Velocity":37,"Duration":99946,"SoundDuration":99946,"Delta":507183296},{"NoteNumber":77,"Velocity":55,"Duration":112612,"SoundDuration":112612,"Delta":507283242},{"NoteNumber":81,"Velocity":59,"Duration":109213,"SoundDuration":109213,"Delta":507385926},{"NoteNumber":64,"Velocity":43,"Duration":99285,"SoundDuration":99285,"Delta":507385926},{"NoteNumber":79,"Velocity":55,"Duration":109213,"SoundDuration":109213,"Delta":507485211},{"NoteNumber":78,"Velocity":55,"Duration":109213,"SoundDuration":109213,"Delta":507584496},{"NoteNumber":67,"Velocity":37,"Duration":99285,"SoundDuration":99285,"Delta":507584496},{"NoteNumber":79,"Velocity":55,"Duration":109213,"SoundDuration":109213,"Delta":507683782},{"NoteNumber":78,"Velocity":55,"Duration":109624,"SoundDuration":109624,"Delta":507783067},{"NoteNumber":72,"Velocity":37,"Duration":99285,"SoundDuration":99285,"Delta":507783067},{"NoteNumber":79,"Velocity":55,"Duration":113319,"SoundDuration":113319,"Delta":507882352},{"NoteNumber":81,"Velocity":59,"Duration":109213,"SoundDuration":109213,"Delta":507985743},{"NoteNumber":69,"Velocity":46,"Duration":198570,"SoundDuration":198570,"Delta":507985743},{"NoteNumber":72,"Velocity":46,"Duration":198570,"SoundDuration":198570,"Delta":507985743},{"NoteNumber":65,"Velocity":46,"Duration":198570,"SoundDuration":198570,"Delta":507985743},{"NoteNumber":79,"Velocity":54,"Duration":109213,"SoundDuration":109213,"Delta":508085029},{"NoteNumber":77,"Velocity":54,"Duration":109213,"SoundDuration":109213,"Delta":508184314},{"NoteNumber":79,"Velocity":54,"Duration":109213,"SoundDuration":109213,"Delta":508283599},{"NoteNumber":81,"Velocity":54,"Duration":109213,"SoundDuration":109213,"Delta":508382884},{"NoteNumber":82,"Velocity":54,"Duration":109213,"SoundDuration":109213,"Delta":508482170},{"NoteNumber":84,"Velocity":59,"Duration":109213,"SoundDuration":109213,"Delta":508581455},{"NoteNumber":82,"Velocity":55,"Duration":109213,"SoundDuration":109213,"Delta":508680740},{"NoteNumber":81,"Velocity":55,"Duration":109213,"SoundDuration":109213,"Delta":508780025},{"NoteNumber":82,"Velocity":55,"Duration":109213,"SoundDuration":109213,"Delta":508879311},{"NoteNumber":84,"Velocity":55,"Duration":109624,"SoundDuration":109624,"Delta":508978596},{"NoteNumber":85,"Velocity":55,"Duration":113319,"SoundDuration":113319,"Delta":509077881},{"NoteNumber":86,"Velocity":59,"Duration":99285,"SoundDuration":99285,"Delta":509181272},{"NoteNumber":46,"Velocity":49,"Duration":99285,"SoundDuration":99285,"Delta":509181272},{"NoteNumber":74,"Velocity":55,"Duration":109213,"SoundDuration":109213,"Delta":509280558},{"NoteNumber":86,"Velocity":55,"Duration":109213,"SoundDuration":109213,"Delta":509379843},{"NoteNumber":58,"Velocity":40,"Duration":99285,"SoundDuration":99285,"Delta":509379843},{"NoteNumber":84,"Velocity":55,"Duration":109213,"SoundDuration":109213,"Delta":509479128},{"NoteNumber":82,"Velocity":55,"Duration":109213,"SoundDuration":109213,"Delta":509578413},{"NoteNumber":81,"Velocity":54,"Duration":109768,"SoundDuration":109768,"Delta":509677699},{"NoteNumber":79,"Velocity":59,"Duration":104836,"SoundDuration":104836,"Delta":509776984},{"NoteNumber":52,"Velocity":48,"Duration":104836,"SoundDuration":104836,"Delta":509776984},{"NoteNumber":78,"Velocity":54,"Duration":109213,"SoundDuration":109213,"Delta":509881820},{"NoteNumber":79,"Velocity":63,"Duration":109213,"SoundDuration":109213,"Delta":509981106},{"NoteNumber":64,"Velocity":43,"Duration":99285,"SoundDuration":99285,"Delta":509981106},{"NoteNumber":81,"Velocity":62,"Duration":109213,"SoundDuration":109213,"Delta":510080391},{"NoteNumber":82,"Velocity":60,"Duration":109483,"SoundDuration":109483,"Delta":510179676},{"NoteNumber":83,"Velocity":59,"Duration":111913,"SoundDuration":111913,"Delta":510278961},{"NoteNumber":84,"Velocity":59,"Duration":99285,"SoundDuration":99285,"Delta":510380947},{"NoteNumber":45,"Velocity":50,"Duration":99285,"SoundDuration":99285,"Delta":510380947},{"NoteNumber":72,"Velocity":60,"Duration":99285,"SoundDuration":99285,"Delta":510480232},{"NoteNumber":84,"Velocity":60,"Duration":99285,"SoundDuration":99285,"Delta":510579517},{"NoteNumber":57,"Velocity":43,"Duration":99285,"SoundDuration":99285,"Delta":510579517},{"NoteNumber":82,"Velocity":60,"Duration":99285,"SoundDuration":99285,"Delta":510678802},{"NoteNumber":81,"Velocity":60,"Duration":99285,"SoundDuration":99285,"Delta":510778088},{"NoteNumber":79,"Velocity":59,"Duration":99285,"SoundDuration":99285,"Delta":510877373},{"NoteNumber":77,"Velocity":59,"Duration":104836,"SoundDuration":104836,"Delta":510976658},{"NoteNumber":50,"Velocity":47,"Duration":104836,"SoundDuration":104836,"Delta":510976658},{"NoteNumber":76,"Velocity":56,"Duration":109213,"SoundDuration":109213,"Delta":511081495},{"NoteNumber":77,"Velocity":63,"Duration":109213,"SoundDuration":109213,"Delta":511180780},{"NoteNumber":62,"Velocity":40,"Duration":99285,"SoundDuration":99285,"Delta":511180780},{"NoteNumber":79,"Velocity":62,"Duration":109213,"SoundDuration":109213,"Delta":511280065},{"NoteNumber":80,"Velocity":60,"Duration":109213,"SoundDuration":109213,"Delta":511379350},{"NoteNumber":81,"Velocity":59,"Duration":99285,"SoundDuration":99285,"Delta":511478636},{"NoteNumber":82,"Velocity":59,"Duration":99285,"SoundDuration":99285,"Delta":511577921},{"NoteNumber":43,"Velocity":45,"Duration":99285,"SoundDuration":99285,"Delta":511577921},{"NoteNumber":84,"Velocity":60,"Duration":99285,"SoundDuration":99285,"Delta":511677206},{"NoteNumber":82,"Velocity":60,"Duration":99285,"SoundDuration":99285,"Delta":511776491},{"NoteNumber":45,"Velocity":47,"Duration":99285,"SoundDuration":99285,"Delta":511776491},{"NoteNumber":81,"Velocity":60,"Duration":99285,"SoundDuration":99285,"Delta":511875777},{"NoteNumber":79,"Velocity":60,"Duration":99285,"SoundDuration":99285,"Delta":511975062},{"NoteNumber":46,"Velocity":49,"Duration":99285,"SoundDuration":99285,"Delta":511975062},{"NoteNumber":77,"Velocity":59,"Duration":99285,"SoundDuration":99285,"Delta":512074347},{"NoteNumber":76,"Velocity":59,"Duration":104836,"SoundDuration":104836,"Delta":512173632},{"NoteNumber":48,"Velocity":51,"Duration":104836,"SoundDuration":104836,"Delta":512173632},{"NoteNumber":77,"Velocity":56,"Duration":109213,"SoundDuration":109213,"Delta":512278469},{"NoteNumber":76,"Velocity":63,"Duration":109213,"SoundDuration":109213,"Delta":512377754},{"NoteNumber":50,"Velocity":53,"Duration":99285,"SoundDuration":99285,"Delta":512377754},{"NoteNumber":74,"Velocity":62,"Duration":109213,"SoundDuration":109213,"Delta":512477039},{"NoteNumber":72,"Velocity":60,"Duration":109213,"SoundDuration":109213,"Delta":512576325},{"NoteNumber":52,"Velocity":55,"Duration":99285,"SoundDuration":99285,"Delta":512576325},{"NoteNumber":70,"Velocity":59,"Duration":109213,"SoundDuration":109213,"Delta":512675610},{"NoteNumber":69,"Velocity":56,"Duration":99285,"SoundDuration":99285,"Delta":512774895},{"NoteNumber":53,"Velocity":57,"Duration":99285,"SoundDuration":99285,"Delta":512774895},{"NoteNumber":72,"Velocity":61,"Duration":98632,"SoundDuration":98632,"Delta":512874180},{"NoteNumber":77,"Velocity":68,"Duration":98632,"SoundDuration":98632,"Delta":512972813},{"NoteNumber":79,"Velocity":62,"Duration":98632,"SoundDuration":98632,"Delta":513071445},{"NoteNumber":77,"Velocity":63,"Duration":98632,"SoundDuration":98632,"Delta":513170077},{"NoteNumber":45,"Velocity":49,"Duration":98632,"SoundDuration":98632,"Delta":513170077},{"NoteNumber":76,"Velocity":63,"Duration":98632,"SoundDuration":98632,"Delta":513268709},{"NoteNumber":74,"Velocity":60,"Duration":104836,"SoundDuration":104836,"Delta":513367342},{"NoteNumber":46,"Velocity":59,"Duration":104836,"SoundDuration":104836,"Delta":513367342},{"NoteNumber":72,"Velocity":53,"Duration":108495,"SoundDuration":108495,"Delta":513472178},{"NoteNumber":70,"Velocity":59,"Duration":108495,"SoundDuration":108495,"Delta":513570810},{"NoteNumber":69,"Velocity":54,"Duration":108495,"SoundDuration":108495,"Delta":513669443},{"NoteNumber":67,"Velocity":54,"Duration":108560,"SoundDuration":108560,"Delta":513768075},{"NoteNumber":47,"Velocity":50,"Duration":98632,"SoundDuration":98632,"Delta":513768075},{"NoteNumber":65,"Velocity":54,"Duration":109148,"SoundDuration":109148,"Delta":513866707},{"NoteNumber":64,"Velocity":59,"Duration":98632,"SoundDuration":98632,"Delta":513965992},{"NoteNumber":48,"Velocity":56,"Duration":98632,"SoundDuration":98632,"Delta":513965992},{"NoteNumber":65,"Velocity":58,"Duration":108495,"SoundDuration":108495,"Delta":514064625},{"NoteNumber":67,"Velocity":62,"Duration":108495,"SoundDuration":108495,"Delta":514163257},{"NoteNumber":65,"Velocity":61,"Duration":108495,"SoundDuration":108495,"Delta":514261889},{"NoteNumber":64,"Velocity":60,"Duration":108495,"SoundDuration":108495,"Delta":514360521},{"NoteNumber":62,"Velocity":59,"Duration":108474,"SoundDuration":108474,"Delta":514459154},{"NoteNumber":60,"Velocity":57,"Duration":108092,"SoundDuration":108092,"Delta":514557786},{"NoteNumber":62,"Velocity":57,"Duration":109358,"SoundDuration":109358,"Delta":514656015},{"NoteNumber":60,"Velocity":56,"Duration":110742,"SoundDuration":110742,"Delta":514755379},{"NoteNumber":58,"Velocity":55,"Duration":112163,"SoundDuration":112163,"Delta":514855993},{"NoteNumber":57,"Velocity":52,"Duration":117573,"SoundDuration":117573,"Delta":514957888},{"NoteNumber":55,"Velocity":51,"Duration":142748,"SoundDuration":142748,"Delta":515061186},{"NoteNumber":68,"Velocity":49,"Duration":796125,"SoundDuration":796125,"Delta":515203935},{"NoteNumber":53,"Velocity":41,"Duration":199031,"SoundDuration":199031,"Delta":515203935},{"NoteNumber":56,"Velocity":31,"Duration":199031,"SoundDuration":199031,"Delta":515402966},{"NoteNumber":60,"Velocity":31,"Duration":199031,"SoundDuration":199031,"Delta":515601998},{"NoteNumber":53,"Velocity":37,"Duration":199031,"SoundDuration":199031,"Delta":515801029},{"NoteNumber":67,"Velocity":43,"Duration":98632,"SoundDuration":98632,"Delta":516000061},{"NoteNumber":56,"Velocity":31,"Duration":197264,"SoundDuration":197264,"Delta":516000061},{"NoteNumber":65,"Velocity":43,"Duration":98632,"SoundDuration":98632,"Delta":516197325},{"NoteNumber":60,"Velocity":31,"Duration":206756,"SoundDuration":206756,"Delta":516197325},{"NoteNumber":71,"Velocity":49,"Duration":398062,"SoundDuration":398062,"Delta":516404081},{"NoteNumber":52,"Velocity":41,"Duration":199031,"SoundDuration":199031,"Delta":516404081},{"NoteNumber":55,"Velocity":31,"Duration":199031,"SoundDuration":199031,"Delta":516603113},{"NoteNumber":72,"Velocity":43,"Duration":199031,"SoundDuration":199031,"Delta":516802144},{"NoteNumber":60,"Velocity":31,"Duration":199031,"SoundDuration":199031,"Delta":516802144},{"NoteNumber":67,"Velocity":43,"Duration":398062,"SoundDuration":398062,"Delta":517001176},{"NoteNumber":52,"Velocity":36,"Duration":199031,"SoundDuration":199031,"Delta":517001176},{"NoteNumber":55,"Velocity":31,"Duration":199031,"SoundDuration":199031,"Delta":517200207},{"NoteNumber":60,"Velocity":31,"Duration":210029,"SoundDuration":210029,"Delta":517399239},{"NoteNumber":73,"Velocity":58,"Duration":796125,"SoundDuration":796125,"Delta":517609268},{"NoteNumber":52,"Velocity":41,"Duration":199031,"SoundDuration":199031,"Delta":517609268},{"NoteNumber":55,"Velocity":31,"Duration":199031,"SoundDuration":199031,"Delta":517808300},{"NoteNumber":58,"Velocity":31,"Duration":199031,"SoundDuration":199031,"Delta":518007331},{"NoteNumber":52,"Velocity":37,"Duration":199031,"SoundDuration":199031,"Delta":518206363},{"NoteNumber":72,"Velocity":49,"Duration":98632,"SoundDuration":98632,"Delta":518405394},{"NoteNumber":55,"Velocity":31,"Duration":197264,"SoundDuration":197264,"Delta":518405394},{"NoteNumber":70,"Velocity":49,"Duration":98632,"SoundDuration":98632,"Delta":518602659},{"NoteNumber":60,"Velocity":31,"Duration":206756,"SoundDuration":206756,"Delta":518602659},{"NoteNumber":68,"Velocity":60,"Duration":199031,"SoundDuration":199031,"Delta":518809415},{"NoteNumber":53,"Velocity":41,"Duration":199031,"SoundDuration":199031,"Delta":518809415},{"NoteNumber":70,"Velocity":42,"Duration":67990,"SoundDuration":67990,"Delta":519008446},{"NoteNumber":56,"Velocity":31,"Duration":203970,"SoundDuration":203970,"Delta":519008446},{"NoteNumber":68,"Velocity":42,"Duration":67990,"SoundDuration":67990,"Delta":519076436},{"NoteNumber":67,"Velocity":42,"Duration":67990,"SoundDuration":67990,"Delta":519144426},{"NoteNumber":68,"Velocity":51,"Duration":102683,"SoundDuration":102683,"Delta":519212417},{"NoteNumber":60,"Velocity":31,"Duration":218890,"SoundDuration":218890,"Delta":519212417},{"NoteNumber":70,"Velocity":44,"Duration":116207,"SoundDuration":116207,"Delta":519315100},{"NoteNumber":72,"Velocity":51,"Duration":397141,"SoundDuration":397141,"Delta":519431307},{"NoteNumber":53,"Velocity":36,"Duration":198570,"SoundDuration":198570,"Delta":519431307},{"NoteNumber":56,"Velocity":31,"Duration":198570,"SoundDuration":198570,"Delta":519629878},{"NoteNumber":60,"Velocity":31,"Duration":209798,"SoundDuration":209798,"Delta":519828448},{"NoteNumber":77,"Velocity":66,"Duration":603701,"SoundDuration":603701,"Delta":520038247},{"NoteNumber":56,"Velocity":47,"Duration":201233,"SoundDuration":201233,"Delta":520038247},{"NoteNumber":60,"Velocity":36,"Duration":201233,"SoundDuration":201233,"Delta":520239481},{"NoteNumber":65,"Velocity":36,"Duration":201233,"SoundDuration":201233,"Delta":520440715},{"NoteNumber":75,"Velocity":54,"Duration":402467,"SoundDuration":402467,"Delta":520641949},{"NoteNumber":55,"Velocity":44,"Duration":201233,"SoundDuration":201233,"Delta":520641949},{"NoteNumber":58,"Velocity":32,"Duration":201233,"SoundDuration":201233,"Delta":520843183},{"NoteNumber":77,"Velocity":50,"Duration":201233,"SoundDuration":201233,"Delta":521044417},{"NoteNumber":63,"Velocity":33,"Duration":201233,"SoundDuration":201233,"Delta":521044417},{"NoteNumber":75,"Velocity":57,"Duration":402467,"SoundDuration":402467,"Delta":521245651},{"NoteNumber":53,"Velocity":48,"Duration":201233,"SoundDuration":201233,"Delta":521245651},{"NoteNumber":56,"Velocity":36,"Duration":201233,"SoundDuration":201233,"Delta":521446885},{"NoteNumber":73,"Velocity":52,"Duration":201233,"SoundDuration":201233,"Delta":521648119},{"NoteNumber":61,"Velocity":36,"Duration":201233,"SoundDuration":201233,"Delta":521648119},{"NoteNumber":72,"Velocity":55,"Duration":603701,"SoundDuration":603701,"Delta":521849353},{"NoteNumber":51,"Velocity":45,"Duration":201233,"SoundDuration":201233,"Delta":521849353},{"NoteNumber":55,"Velocity":31,"Duration":201233,"SoundDuration":201233,"Delta":522050587},{"NoteNumber":60,"Velocity":31,"Duration":201233,"SoundDuration":201233,"Delta":522251821},{"NoteNumber":70,"Velocity":59,"Duration":402467,"SoundDuration":402467,"Delta":522453055},{"NoteNumber":49,"Velocity":46,"Duration":201233,"SoundDuration":201233,"Delta":522453055},{"NoteNumber":53,"Velocity":35,"Duration":201233,"SoundDuration":201233,"Delta":522654289},{"NoteNumber":68,"Velocity":53,"Duration":201233,"SoundDuration":201233,"Delta":522855523},{"NoteNumber":58,"Velocity":35,"Duration":201233,"SoundDuration":201233,"Delta":522855523},{"NoteNumber":67,"Velocity":57,"Duration":402467,"SoundDuration":402467,"Delta":523056757},{"NoteNumber":49,"Velocity":43,"Duration":201233,"SoundDuration":201233,"Delta":523056757},{"NoteNumber":53,"Velocity":36,"Duration":201233,"SoundDuration":201233,"Delta":523257991},{"NoteNumber":65,"Velocity":47,"Duration":201233,"SoundDuration":201233,"Delta":523459225},{"NoteNumber":59,"Velocity":34,"Duration":201233,"SoundDuration":201233,"Delta":523459225},{"NoteNumber":68,"Velocity":53,"Duration":603701,"SoundDuration":603701,"Delta":523660459},{"NoteNumber":48,"Velocity":43,"Duration":201233,"SoundDuration":201233,"Delta":523660459},{"NoteNumber":53,"Velocity":29,"Duration":201233,"SoundDuration":201233,"Delta":523861693},{"NoteNumber":60,"Velocity":30,"Duration":201233,"SoundDuration":201233,"Delta":524062927},{"NoteNumber":67,"Velocity":45,"Duration":201233,"SoundDuration":201233,"Delta":524264161},{"NoteNumber":48,"Velocity":39,"Duration":201233,"SoundDuration":201233,"Delta":524264161},{"NoteNumber":52,"Velocity":27,"Duration":201233,"SoundDuration":201233,"Delta":524465395},{"NoteNumber":60,"Velocity":27,"Duration":201233,"SoundDuration":201233,"Delta":524666629},{"NoteNumber":80,"Velocity":49,"Duration":796125,"SoundDuration":796125,"Delta":524867863},{"NoteNumber":68,"Velocity":41,"Duration":796125,"SoundDuration":796125,"Delta":524867863},{"NoteNumber":53,"Velocity":41,"Duration":199031,"SoundDuration":199031,"Delta":524867863},{"NoteNumber":56,"Velocity":31,"Duration":199031,"SoundDuration":199031,"Delta":525066894},{"NoteNumber":60,"Velocity":31,"Duration":199031,"SoundDuration":199031,"Delta":525265926},{"NoteNumber":53,"Velocity":37,"Duration":199031,"SoundDuration":199031,"Delta":525464957},{"NoteNumber":67,"Velocity":36,"Duration":98632,"SoundDuration":98632,"Delta":525663989},{"NoteNumber":79,"Velocity":43,"Duration":98632,"SoundDuration":98632,"Delta":525663989},{"NoteNumber":56,"Velocity":31,"Duration":197264,"SoundDuration":197264,"Delta":525663989},{"NoteNumber":77,"Velocity":43,"Duration":98632,"SoundDuration":98632,"Delta":525861253},{"NoteNumber":65,"Velocity":36,"Duration":98632,"SoundDuration":98632,"Delta":525861253},{"NoteNumber":60,"Velocity":31,"Duration":206756,"SoundDuration":206756,"Delta":525861253},{"NoteNumber":71,"Velocity":41,"Duration":398062,"SoundDuration":398062,"Delta":526068009},{"NoteNumber":83,"Velocity":49,"Duration":398062,"SoundDuration":398062,"Delta":526068009},{"NoteNumber":52,"Velocity":41,"Duration":199031,"SoundDuration":199031,"Delta":526068009},{"NoteNumber":55,"Velocity":31,"Duration":199031,"SoundDuration":199031,"Delta":526267041},{"NoteNumber":84,"Velocity":43,"Duration":199031,"SoundDuration":199031,"Delta":526466072},{"NoteNumber":72,"Velocity":36,"Duration":199031,"SoundDuration":199031,"Delta":526466072},{"NoteNumber":60,"Velocity":31,"Duration":199031,"SoundDuration":199031,"Delta":526466072},{"NoteNumber":67,"Velocity":36,"Duration":398062,"SoundDuration":398062,"Delta":526665104},{"NoteNumber":79,"Velocity":43,"Duration":398062,"SoundDuration":398062,"Delta":526665104},{"NoteNumber":52,"Velocity":36,"Duration":199031,"SoundDuration":199031,"Delta":526665104},{"NoteNumber":55,"Velocity":31,"Duration":199031,"SoundDuration":199031,"Delta":526864135},{"NoteNumber":60,"Velocity":31,"Duration":210029,"SoundDuration":210029,"Delta":527063167},{"NoteNumber":73,"Velocity":49,"Duration":796125,"SoundDuration":796125,"Delta":527273196},{"NoteNumber":85,"Velocity":58,"Duration":796125,"SoundDuration":796125,"Delta":527273196},{"NoteNumber":52,"Velocity":41,"Duration":199031,"SoundDuration":199031,"Delta":527273196},{"NoteNumber":55,"Velocity":31,"Duration":199031,"SoundDuration":199031,"Delta":527472228},{"NoteNumber":58,"Velocity":31,"Duration":199031,"SoundDuration":199031,"Delta":527671259},{"NoteNumber":52,"Velocity":37,"Duration":199031,"SoundDuration":199031,"Delta":527870291},{"NoteNumber":72,"Velocity":41,"Duration":98632,"SoundDuration":98632,"Delta":528069322},{"NoteNumber":84,"Velocity":49,"Duration":98632,"SoundDuration":98632,"Delta":528069322},{"NoteNumber":55,"Velocity":31,"Duration":197264,"SoundDuration":197264,"Delta":528069322},{"NoteNumber":82,"Velocity":49,"Duration":98632,"SoundDuration":98632,"Delta":528266587},{"NoteNumber":70,"Velocity":41,"Duration":98632,"SoundDuration":98632,"Delta":528266587},{"NoteNumber":60,"Velocity":31,"Duration":206756,"SoundDuration":206756,"Delta":528266587},{"NoteNumber":81,"Velocity":60,"Duration":403002,"SoundDuration":403002,"Delta":528473343},{"NoteNumber":69,"Velocity":51,"Duration":403002,"SoundDuration":403002,"Delta":528473343},{"NoteNumber":51,"Velocity":41,"Duration":199113,"SoundDuration":199113,"Delta":528476660},{"NoteNumber":54,"Velocity":31,"Duration":203970,"SoundDuration":203970,"Delta":528672374},{"NoteNumber":84,"Velocity":51,"Duration":218890,"SoundDuration":218890,"Delta":528876345},{"NoteNumber":72,"Velocity":43,"Duration":218890,"SoundDuration":218890,"Delta":528876345},{"NoteNumber":57,"Velocity":31,"Duration":218890,"SoundDuration":218890,"Delta":528876345},{"NoteNumber":82,"Velocity":51,"Duration":397141,"SoundDuration":397141,"Delta":529095235},{"NoteNumber":70,"Velocity":43,"Duration":397141,"SoundDuration":397141,"Delta":529095235},{"NoteNumber":50,"Velocity":36,"Duration":198570,"SoundDuration":198570,"Delta":529095235},{"NoteNumber":53,"Velocity":31,"Duration":198570,"SoundDuration":198570,"Delta":529293806},{"NoteNumber":58,"Velocity":31,"Duration":209798,"SoundDuration":209798,"Delta":529492376},{"NoteNumber":83,"Velocity":71,"Duration":603701,"SoundDuration":603701,"Delta":529702175},{"NoteNumber":71,"Velocity":56,"Duration":603701,"SoundDuration":603701,"Delta":529702175},{"NoteNumber":49,"Velocity":57,"Duration":201233,"SoundDuration":201233,"Delta":529702175},{"NoteNumber":53,"Velocity":46,"Duration":201233,"SoundDuration":201233,"Delta":529903409},{"NoteNumber":56,"Velocity":47,"Duration":201233,"SoundDuration":201233,"Delta":530104643},{"NoteNumber":72,"Velocity":56,"Duration":603701,"SoundDuration":603701,"Delta":530305877},{"NoteNumber":84,"Velocity":71,"Duration":603701,"SoundDuration":603701,"Delta":530305877},{"NoteNumber":48,"Velocity":55,"Duration":201233,"SoundDuration":201233,"Delta":530305877},{"NoteNumber":53,"Velocity":46,"Duration":201233,"SoundDuration":201233,"Delta":530507111},{"NoteNumber":56,"Velocity":46,"Duration":201233,"SoundDuration":201233,"Delta":530708345},{"NoteNumber":85,"Velocity":69,"Duration":603701,"SoundDuration":603701,"Delta":530909579},{"NoteNumber":73,"Velocity":54,"Duration":603701,"SoundDuration":603701,"Delta":530909579},{"NoteNumber":46,"Velocity":59,"Duration":201233,"SoundDuration":201233,"Delta":530909579},{"NoteNumber":52,"Velocity":39,"Duration":201233,"SoundDuration":201233,"Delta":531110813},{"NoteNumber":55,"Velocity":39,"Duration":201233,"SoundDuration":201233,"Delta":531312047},{"NoteNumber":72,"Velocity":56,"Duration":204095,"SoundDuration":204095,"Delta":531513281},{"NoteNumber":84,"Velocity":71,"Duration":204095,"SoundDuration":204095,"Delta":531513281},{"NoteNumber":44,"Velocity":45,"Duration":204095,"SoundDuration":204095,"Delta":531513281},{"NoteNumber":48,"Velocity":31,"Duration":200013,"SoundDuration":200013,"Delta":531717376},{"NoteNumber":53,"Velocity":31,"Duration":200013,"SoundDuration":200013,"Delta":531917390},{"NoteNumber":89,"Velocity":53,"Duration":100006,"SoundDuration":100006,"Delta":532017397},{"NoteNumber":72,"Velocity":51,"Duration":600040,"SoundDuration":600040,"Delta":532117403},{"NoteNumber":77,"Velocity":64,"Duration":550037,"SoundDuration":550037,"Delta":532117403},{"NoteNumber":48,"Velocity":45,"Duration":200013,"SoundDuration":200013,"Delta":532117403},{"NoteNumber":53,"Velocity":30,"Duration":200013,"SoundDuration":200013,"Delta":532317417},{"NoteNumber":56,"Velocity":30,"Duration":200013,"SoundDuration":200013,"Delta":532517430},{"NoteNumber":80,"Velocity":40,"Duration":50003,"SoundDuration":50003,"Delta":532667440},{"NoteNumber":76,"Velocity":51,"Duration":615869,"SoundDuration":615869,"Delta":532717444},{"NoteNumber":79,"Velocity":51,"Duration":615869,"SoundDuration":615869,"Delta":532717444},{"NoteNumber":48,"Velocity":38,"Duration":200013,"SoundDuration":200013,"Delta":532717444},{"NoteNumber":55,"Velocity":31,"Duration":200013,"SoundDuration":200013,"Delta":532917457},{"NoteNumber":58,"Velocity":31,"Duration":215842,"SoundDuration":215842,"Delta":533117471},{"NoteNumber":77,"Velocity":74,"Duration":100220,"SoundDuration":100220,"Delta":533333314},{"NoteNumber":53,"Velocity":67,"Duration":393232,"SoundDuration":393232,"Delta":533333314},{"NoteNumber":57,"Velocity":67,"Duration":393232,"SoundDuration":393232,"Delta":533333314},{"NoteNumber":72,"Velocity":62,"Duration":99285,"SoundDuration":99285,"Delta":533433535},{"NoteNumber":71,"Velocity":62,"Duration":97001,"SoundDuration":97001,"Delta":533532820},{"NoteNumber":72,"Velocity":62,"Duration":96724,"SoundDuration":96724,"Delta":533629822},{"NoteNumber":74,"Velocity":69,"Duration":102037,"SoundDuration":102037,"Delta":533726546},{"NoteNumber":72,"Velocity":62,"Duration":102683,"SoundDuration":102683,"Delta":533828584},{"NoteNumber":70,"Velocity":65,"Duration":97352,"SoundDuration":97352,"Delta":533931267},{"NoteNumber":55,"Velocity":67,"Duration":97352,"SoundDuration":97352,"Delta":533931267},{"NoteNumber":72,"Velocity":60,"Duration":97352,"SoundDuration":97352,"Delta":534028619},{"NoteNumber":70,"Velocity":65,"Duration":96104,"SoundDuration":96104,"Delta":534125971},{"NoteNumber":52,"Velocity":62,"Duration":96104,"SoundDuration":96104,"Delta":534125971},{"NoteNumber":72,"Velocity":59,"Duration":96104,"SoundDuration":96104,"Delta":534222076},{"NoteNumber":70,"Velocity":65,"Duration":100128,"SoundDuration":100128,"Delta":534318180},{"NoteNumber":48,"Velocity":62,"Duration":100128,"SoundDuration":100128,"Delta":534318180},{"NoteNumber":72,"Velocity":59,"Duration":100616,"SoundDuration":100616,"Delta":534418308},{"NoteNumber":69,"Velocity":74,"Duration":99429,"SoundDuration":99429,"Delta":534518925},{"NoteNumber":53,"Velocity":67,"Duration":392440,"SoundDuration":392440,"Delta":534518925},{"NoteNumber":72,"Velocity":62,"Duration":99285,"SoundDuration":99285,"Delta":534618355},{"NoteNumber":71,"Velocity":62,"Duration":97001,"SoundDuration":97001,"Delta":534717640},{"NoteNumber":72,"Velocity":62,"Duration":96724,"SoundDuration":96724,"Delta":534814642},{"NoteNumber":77,"Velocity":74,"Duration":102037,"SoundDuration":102037,"Delta":534911366},{"NoteNumber":72,"Velocity":62,"Duration":102683,"SoundDuration":102683,"Delta":535013404},{"NoteNumber":70,"Velocity":65,"Duration":97987,"SoundDuration":97987,"Delta":535116088},{"NoteNumber":55,"Velocity":67,"Duration":97987,"SoundDuration":97987,"Delta":535116088},{"NoteNumber":72,"Velocity":60,"Duration":97987,"SoundDuration":97987,"Delta":535214076},{"NoteNumber":70,"Velocity":65,"Duration":95492,"SoundDuration":95492,"Delta":535312064},{"NoteNumber":52,"Velocity":62,"Duration":95492,"SoundDuration":95492,"Delta":535312064},{"NoteNumber":72,"Velocity":59,"Duration":95492,"SoundDuration":95492,"Delta":535407556},{"NoteNumber":70,"Velocity":65,"Duration":100061,"SoundDuration":100061,"Delta":535503049},{"NoteNumber":48,"Velocity":62,"Duration":100061,"SoundDuration":100061,"Delta":535503049},{"NoteNumber":72,"Velocity":59,"Duration":100616,"SoundDuration":100616,"Delta":535603111},{"NoteNumber":69,"Velocity":74,"Duration":99429,"SoundDuration":99429,"Delta":535703728},{"NoteNumber":53,"Velocity":67,"Duration":392440,"SoundDuration":392440,"Delta":535703728},{"NoteNumber":84,"Velocity":62,"Duration":99285,"SoundDuration":99285,"Delta":535803157},{"NoteNumber":83,"Velocity":62,"Duration":97001,"SoundDuration":97001,"Delta":535902443},{"NoteNumber":84,"Velocity":62,"Duration":96724,"SoundDuration":96724,"Delta":535999444},{"NoteNumber":86,"Velocity":72,"Duration":102037,"SoundDuration":102037,"Delta":536096169},{"NoteNumber":84,"Velocity":62,"Duration":102683,"SoundDuration":102683,"Delta":536198207},{"NoteNumber":82,"Velocity":65,"Duration":96104,"SoundDuration":96104,"Delta":536300890},{"NoteNumber":67,"Velocity":67,"Duration":96104,"SoundDuration":96104,"Delta":536300890},{"NoteNumber":84,"Velocity":60,"Duration":96104,"SoundDuration":96104,"Delta":536396995},{"NoteNumber":82,"Velocity":65,"Duration":96104,"SoundDuration":96104,"Delta":536493099},{"NoteNumber":64,"Velocity":62,"Duration":96104,"SoundDuration":96104,"Delta":536493099},{"NoteNumber":84,"Velocity":59,"Duration":96104,"SoundDuration":96104,"Delta":536589204},{"NoteNumber":82,"Velocity":65,"Duration":100128,"SoundDuration":100128,"Delta":536685308},{"NoteNumber":60,"Velocity":62,"Duration":100128,"SoundDuration":100128,"Delta":536685308},{"NoteNumber":84,"Velocity":59,"Duration":100616,"SoundDuration":100616,"Delta":536785436},{"NoteNumber":81,"Velocity":74,"Duration":99429,"SoundDuration":99429,"Delta":536886053},{"NoteNumber":65,"Velocity":67,"Duration":392440,"SoundDuration":392440,"Delta":536886053},{"NoteNumber":84,"Velocity":62,"Duration":99285,"SoundDuration":99285,"Delta":536985483},{"NoteNumber":83,"Velocity":62,"Duration":97001,"SoundDuration":97001,"Delta":537084768},{"NoteNumber":84,"Velocity":62,"Duration":96724,"SoundDuration":96724,"Delta":537181770},{"NoteNumber":89,"Velocity":69,"Duration":102037,"SoundDuration":102037,"Delta":537278494},{"NoteNumber":84,"Velocity":62,"Duration":102683,"SoundDuration":102683,"Delta":537380532},{"NoteNumber":82,"Velocity":65,"Duration":96104,"SoundDuration":96104,"Delta":537483215},{"NoteNumber":67,"Velocity":67,"Duration":96104,"SoundDuration":96104,"Delta":537483215},{"NoteNumber":84,"Velocity":60,"Duration":96104,"SoundDuration":96104,"Delta":537579320},{"NoteNumber":82,"Velocity":65,"Duration":96104,"SoundDuration":96104,"Delta":537675424},{"NoteNumber":64,"Velocity":62,"Duration":96104,"SoundDuration":96104,"Delta":537675424},{"NoteNumber":84,"Velocity":59,"Duration":96104,"SoundDuration":96104,"Delta":537771529},{"NoteNumber":82,"Velocity":65,"Duration":100128,"SoundDuration":100128,"Delta":537867633},{"NoteNumber":60,"Velocity":62,"Duration":100128,"SoundDuration":100128,"Delta":537867633},{"NoteNumber":84,"Velocity":59,"Duration":100617,"SoundDuration":100617,"Delta":537967762},{"NoteNumber":81,"Velocity":74,"Duration":99429,"SoundDuration":99429,"Delta":538068379},{"NoteNumber":65,"Velocity":67,"Duration":392440,"SoundDuration":392440,"Delta":538068379},{"NoteNumber":84,"Velocity":62,"Duration":99285,"SoundDuration":99285,"Delta":538167808},{"NoteNumber":89,"Velocity":71,"Duration":97001,"SoundDuration":97001,"Delta":538267093},{"NoteNumber":81,"Velocity":60,"Duration":96724,"SoundDuration":96724,"Delta":538364095},{"NoteNumber":79,"Velocity":70,"Duration":102037,"SoundDuration":102037,"Delta":538460819},{"NoteNumber":88,"Velocity":62,"Duration":101670,"SoundDuration":101670,"Delta":538562857},{"NoteNumber":77,"Velocity":70,"Duration":98054,"SoundDuration":98054,"Delta":538664528},{"NoteNumber":86,"Velocity":62,"Duration":96789,"SoundDuration":96789,"Delta":538762582},{"NoteNumber":76,"Velocity":69,"Duration":94979,"SoundDuration":94979,"Delta":538859371},{"NoteNumber":84,"Velocity":60,"Duration":94739,"SoundDuration":94739,"Delta":538954351},{"NoteNumber":74,"Velocity":67,"Duration":94292,"SoundDuration":94292,"Delta":539049090},{"NoteNumber":82,"Velocity":58,"Duration":94535,"SoundDuration":94535,"Delta":539143383},{"NoteNumber":72,"Velocity":69,"Duration":93703,"SoundDuration":93703,"Delta":539237918},{"NoteNumber":81,"Velocity":62,"Duration":93703,"SoundDuration":93703,"Delta":539331622},{"NoteNumber":70,"Velocity":67,"Duration":93703,"SoundDuration":93703,"Delta":539425325},{"NoteNumber":79,"Velocity":59,"Duration":93703,"SoundDuration":93703,"Delta":539519028},{"NoteNumber":69,"Velocity":66,"Duration":93703,"SoundDuration":93703,"Delta":539612731},{"NoteNumber":77,"Velocity":56,"Duration":93703,"SoundDuration":93703,"Delta":539706435},{"NoteNumber":67,"Velocity":62,"Duration":96582,"SoundDuration":96582,"Delta":539800138},{"NoteNumber":76,"Velocity":54,"Duration":98150,"SoundDuration":98150,"Delta":539896720},{"NoteNumber":65,"Velocity":63,"Duration":99451,"SoundDuration":99451,"Delta":539994870},{"NoteNumber":74,"Velocity":55,"Duration":100788,"SoundDuration":100788,"Delta":540094322},{"NoteNumber":64,"Velocity":62,"Duration":102161,"SoundDuration":102161,"Delta":540195110},{"NoteNumber":72,"Velocity":51,"Duration":103571,"SoundDuration":103571,"Delta":540297271},{"NoteNumber":71,"Velocity":55,"Duration":595780,"SoundDuration":595780,"Delta":540400842},{"NoteNumber":62,"Velocity":45,"Duration":595780,"SoundDuration":595780,"Delta":540400842},{"NoteNumber":50,"Velocity":49,"Duration":215833,"SoundDuration":215833,"Delta":540602076},{"NoteNumber":53,"Velocity":52,"Duration":218168,"SoundDuration":218168,"Delta":540798052},{"NoteNumber":70,"Velocity":55,"Duration":591845,"SoundDuration":591845,"Delta":540996623},{"NoteNumber":61,"Velocity":45,"Duration":591845,"SoundDuration":591845,"Delta":540996623},{"NoteNumber":56,"Velocity":54,"Duration":215573,"SoundDuration":215573,"Delta":540996623},{"NoteNumber":55,"Velocity":49,"Duration":215965,"SoundDuration":215965,"Delta":541192599},{"NoteNumber":53,"Velocity":49,"Duration":402486,"SoundDuration":402486,"Delta":541388575},{"NoteNumber":82,"Velocity":55,"Duration":594561,"SoundDuration":594561,"Delta":541588468},{"NoteNumber":73,"Velocity":45,"Duration":594561,"SoundDuration":594561,"Delta":541588468},{"NoteNumber":52,"Velocity":47,"Duration":214430,"SoundDuration":214430,"Delta":541791061},{"NoteNumber":55,"Velocity":49,"Duration":216734,"SoundDuration":216734,"Delta":541985765},{"NoteNumber":76,"Velocity":55,"Duration":589301,"SoundDuration":589301,"Delta":542183030},{"NoteNumber":67,"Velocity":45,"Duration":589301,"SoundDuration":589301,"Delta":542183030},{"NoteNumber":61,"Velocity":54,"Duration":214174,"SoundDuration":214174,"Delta":542183030},{"NoteNumber":60,"Velocity":49,"Duration":214693,"SoundDuration":214693,"Delta":542377734},{"NoteNumber":58,"Velocity":49,"Duration":220016,"SoundDuration":220016,"Delta":542572438},{"NoteNumber":57,"Velocity":38,"Duration":201233,"SoundDuration":201233,"Delta":542772331},{"NoteNumber":84,"Velocity":49,"Duration":97352,"SoundDuration":97352,"Delta":542973565},{"NoteNumber":84,"Velocity":49,"Duration":97352,"SoundDuration":97352,"Delta":543168269},{"NoteNumber":58,"Velocity":40,"Duration":201233,"SoundDuration":201233,"Delta":543362973},{"NoteNumber":86,"Velocity":49,"Duration":97352,"SoundDuration":97352,"Delta":543564207},{"NoteNumber":86,"Velocity":49,"Duration":101985,"SoundDuration":101985,"Delta":543758911},{"NoteNumber":72,"Velocity":39,"Duration":553393,"SoundDuration":553393,"Delta":543962882},{"NoteNumber":77,"Velocity":47,"Duration":553393,"SoundDuration":553393,"Delta":543962882},{"NoteNumber":69,"Velocity":40,"Duration":603701,"SoundDuration":603701,"Delta":543962882},{"NoteNumber":60,"Velocity":34,"Duration":1228354,"SoundDuration":1228354,"Delta":543962882},{"NoteNumber":81,"Velocity":40,"Duration":50308,"SoundDuration":50308,"Delta":544516275},{"NoteNumber":79,"Velocity":44,"Duration":624652,"SoundDuration":624652,"Delta":544566584},{"NoteNumber":76,"Velocity":37,"Duration":624652,"SoundDuration":624652,"Delta":544566584},{"NoteNumber":70,"Velocity":40,"Duration":624652,"SoundDuration":624652,"Delta":544566584},{"NoteNumber":77,"Velocity":74,"Duration":99429,"SoundDuration":99429,"Delta":545191236},{"NoteNumber":69,"Velocity":67,"Duration":392440,"SoundDuration":392440,"Delta":545191236},{"NoteNumber":65,"Velocity":67,"Duration":392440,"SoundDuration":392440,"Delta":545191236},{"NoteNumber":72,"Velocity":62,"Duration":99285,"SoundDuration":99285,"Delta":545290666},{"NoteNumber":71,"Velocity":62,"Duration":97001,"SoundDuration":97001,"Delta":545389951},{"NoteNumber":72,"Velocity":62,"Duration":96724,"SoundDuration":96724,"Delta":545486953},{"NoteNumber":74,"Velocity":68,"Duration":102037,"SoundDuration":102037,"Delta":545583677},{"NoteNumber":72,"Velocity":62,"Duration":102683,"SoundDuration":102683,"Delta":545685715},{"NoteNumber":70,"Velocity":65,"Duration":99071,"SoundDuration":99071,"Delta":545788399},{"NoteNumber":55,"Velocity":67,"Duration":99071,"SoundDuration":99071,"Delta":545788399},{"NoteNumber":72,"Velocity":60,"Duration":98632,"SoundDuration":98632,"Delta":545887470},{"NoteNumber":70,"Velocity":65,"Duration":96378,"SoundDuration":96378,"Delta":545986102},{"NoteNumber":52,"Velocity":62,"Duration":96378,"SoundDuration":96378,"Delta":545986102},{"NoteNumber":72,"Velocity":59,"Duration":96104,"SoundDuration":96104,"Delta":546082480},{"NoteNumber":70,"Velocity":65,"Duration":100128,"SoundDuration":100128,"Delta":546178585},{"NoteNumber":48,"Velocity":62,"Duration":100128,"SoundDuration":100128,"Delta":546178585},{"NoteNumber":72,"Velocity":59,"Duration":100616,"SoundDuration":100616,"Delta":546278713},{"NoteNumber":69,"Velocity":74,"Duration":99429,"SoundDuration":99429,"Delta":546379330},{"NoteNumber":53,"Velocity":67,"Duration":392440,"SoundDuration":392440,"Delta":546379330},{"NoteNumber":72,"Velocity":62,"Duration":99285,"SoundDuration":99285,"Delta":546478760},{"NoteNumber":71,"Velocity":62,"Duration":97001,"SoundDuration":97001,"Delta":546578045},{"NoteNumber":72,"Velocity":62,"Duration":96724,"SoundDuration":96724,"Delta":546675046},{"NoteNumber":77,"Velocity":74,"Duration":102037,"SoundDuration":102037,"Delta":546771771},{"NoteNumber":72,"Velocity":62,"Duration":102683,"SoundDuration":102683,"Delta":546873809},{"NoteNumber":70,"Velocity":65,"Duration":99071,"SoundDuration":99071,"Delta":546976492},{"NoteNumber":55,"Velocity":67,"Duration":99071,"SoundDuration":99071,"Delta":546976492},{"NoteNumber":72,"Velocity":60,"Duration":98632,"SoundDuration":98632,"Delta":547075563},{"NoteNumber":70,"Velocity":65,"Duration":96378,"SoundDuration":96378,"Delta":547174195},{"NoteNumber":52,"Velocity":62,"Duration":96378,"SoundDuration":96378,"Delta":547174195},{"NoteNumber":72,"Velocity":59,"Duration":96104,"SoundDuration":96104,"Delta":547270574},{"NoteNumber":70,"Velocity":65,"Duration":100128,"SoundDuration":100128,"Delta":547366678},{"NoteNumber":48,"Velocity":62,"Duration":100128,"SoundDuration":100128,"Delta":547366678},{"NoteNumber":72,"Velocity":59,"Duration":100616,"SoundDuration":100616,"Delta":547466806},{"NoteNumber":69,"Velocity":74,"Duration":99429,"SoundDuration":99429,"Delta":547567423},{"NoteNumber":53,"Velocity":67,"Duration":392440,"SoundDuration":392440,"Delta":547567423},{"NoteNumber":84,"Velocity":62,"Duration":99285,"SoundDuration":99285,"Delta":547666853},{"NoteNumber":83,"Velocity":62,"Duration":97001,"SoundDuration":97001,"Delta":547766138},{"NoteNumber":84,"Velocity":62,"Duration":96724,"SoundDuration":96724,"Delta":547863140},{"NoteNumber":86,"Velocity":72,"Duration":102037,"SoundDuration":102037,"Delta":547959864},{"NoteNumber":84,"Velocity":62,"Duration":102683,"SoundDuration":102683,"Delta":548061902},{"NoteNumber":82,"Velocity":65,"Duration":99071,"SoundDuration":99071,"Delta":548164586},{"NoteNumber":67,"Velocity":67,"Duration":99071,"SoundDuration":99071,"Delta":548164586},{"NoteNumber":84,"Velocity":60,"Duration":98632,"SoundDuration":98632,"Delta":548263657},{"NoteNumber":82,"Velocity":65,"Duration":96378,"SoundDuration":96378,"Delta":548362289},{"NoteNumber":64,"Velocity":62,"Duration":96378,"SoundDuration":96378,"Delta":548362289},{"NoteNumber":84,"Velocity":59,"Duration":96104,"SoundDuration":96104,"Delta":548458667},{"NoteNumber":82,"Velocity":65,"Duration":100128,"SoundDuration":100128,"Delta":548554772},{"NoteNumber":60,"Velocity":62,"Duration":100128,"SoundDuration":100128,"Delta":548554772},{"NoteNumber":84,"Velocity":59,"Duration":100616,"SoundDuration":100616,"Delta":548654900},{"NoteNumber":81,"Velocity":74,"Duration":99429,"SoundDuration":99429,"Delta":548755517},{"NoteNumber":65,"Velocity":67,"Duration":392440,"SoundDuration":392440,"Delta":548755517},{"NoteNumber":84,"Velocity":62,"Duration":99285,"SoundDuration":99285,"Delta":548854947},{"NoteNumber":83,"Velocity":62,"Duration":97001,"SoundDuration":97001,"Delta":548954232},{"NoteNumber":84,"Velocity":62,"Duration":96724,"SoundDuration":96724,"Delta":549051233},{"NoteNumber":89,"Velocity":72,"Duration":102037,"SoundDuration":102037,"Delta":549147958},{"NoteNumber":84,"Velocity":62,"Duration":102683,"SoundDuration":102683,"Delta":549249996},{"NoteNumber":82,"Velocity":65,"Duration":99071,"SoundDuration":99071,"Delta":549352679},{"NoteNumber":67,"Velocity":67,"Duration":99071,"SoundDuration":99071,"Delta":549352679},{"NoteNumber":84,"Velocity":60,"Duration":98632,"SoundDuration":98632,"Delta":549451750},{"NoteNumber":82,"Velocity":65,"Duration":96378,"SoundDuration":96378,"Delta":549550382},{"NoteNumber":64,"Velocity":62,"Duration":96378,"SoundDuration":96378,"Delta":549550382},{"NoteNumber":84,"Velocity":59,"Duration":96104,"SoundDuration":96104,"Delta":549646761},{"NoteNumber":82,"Velocity":65,"Duration":100128,"SoundDuration":100128,"Delta":549742865},{"NoteNumber":60,"Velocity":62,"Duration":100128,"SoundDuration":100128,"Delta":549742865},{"NoteNumber":84,"Velocity":59,"Duration":100617,"SoundDuration":100617,"Delta":549842993},{"NoteNumber":81,"Velocity":74,"Duration":99429,"SoundDuration":99429,"Delta":549943610},{"NoteNumber":65,"Velocity":67,"Duration":393112,"SoundDuration":393112,"Delta":549943610},{"NoteNumber":84,"Velocity":62,"Duration":99285,"SoundDuration":99285,"Delta":550043040},{"NoteNumber":89,"Velocity":71,"Duration":97001,"SoundDuration":97001,"Delta":550142325},{"NoteNumber":81,"Velocity":60,"Duration":97395,"SoundDuration":97395,"Delta":550239327},{"NoteNumber":79,"Velocity":70,"Duration":99781,"SoundDuration":99781,"Delta":550336723},{"NoteNumber":88,"Velocity":62,"Duration":99160,"SoundDuration":99160,"Delta":550436504},{"NoteNumber":77,"Velocity":70,"Duration":98436,"SoundDuration":98436,"Delta":550535664},{"NoteNumber":86,"Velocity":62,"Duration":97121,"SoundDuration":97121,"Delta":550634101},{"NoteNumber":76,"Velocity":69,"Duration":96018,"SoundDuration":96018,"Delta":550731223},{"NoteNumber":84,"Velocity":60,"Duration":95125,"SoundDuration":95125,"Delta":550827241},{"NoteNumber":74,"Velocity":67,"Duration":94115,"SoundDuration":94115,"Delta":550922367},{"NoteNumber":82,"Velocity":58,"Duration":93272,"SoundDuration":93272,"Delta":551016482},{"NoteNumber":72,"Velocity":69,"Duration":92547,"SoundDuration":92547,"Delta":551109755},{"NoteNumber":81,"Velocity":62,"Duration":92546,"SoundDuration":92546,"Delta":551202302},{"NoteNumber":70,"Velocity":67,"Duration":92546,"SoundDuration":92546,"Delta":551294849},{"NoteNumber":79,"Velocity":59,"Duration":92546,"SoundDuration":92546,"Delta":551387396},{"NoteNumber":69,"Velocity":66,"Duration":92547,"SoundDuration":92547,"Delta":551479943},{"NoteNumber":77,"Velocity":56,"Duration":92546,"SoundDuration":92546,"Delta":551572490},{"NoteNumber":67,"Velocity":64,"Duration":92655,"SoundDuration":92655,"Delta":551665037},{"NoteNumber":76,"Velocity":55,"Duration":94868,"SoundDuration":94868,"Delta":551757692},{"NoteNumber":65,"Velocity":63,"Duration":97331,"SoundDuration":97331,"Delta":551852561},{"NoteNumber":74,"Velocity":55,"Duration":100661,"SoundDuration":100661,"Delta":551949892},{"NoteNumber":64,"Velocity":62,"Duration":102161,"SoundDuration":102161,"Delta":552050554},{"NoteNumber":72,"Velocity":51,"Duration":103571,"SoundDuration":103571,"Delta":552152715},{"NoteNumber":71,"Velocity":55,"Duration":595780,"SoundDuration":595780,"Delta":552256287},{"NoteNumber":62,"Velocity":45,"Duration":595780,"SoundDuration":595780,"Delta":552256287},{"NoteNumber":50,"Velocity":49,"Duration":215833,"SoundDuration":215833,"Delta":552457521},{"NoteNumber":53,"Velocity":52,"Duration":218168,"SoundDuration":218168,"Delta":552653497},{"NoteNumber":70,"Velocity":55,"Duration":591845,"SoundDuration":591845,"Delta":552852068},{"NoteNumber":61,"Velocity":45,"Duration":591845,"SoundDuration":591845,"Delta":552852068},{"NoteNumber":56,"Velocity":54,"Duration":215573,"SoundDuration":215573,"Delta":552852068},{"NoteNumber":55,"Velocity":49,"Duration":215965,"SoundDuration":215965,"Delta":553048044},{"NoteNumber":53,"Velocity":49,"Duration":402486,"SoundDuration":402486,"Delta":553244020},{"NoteNumber":82,"Velocity":55,"Duration":594561,"SoundDuration":594561,"Delta":553443913},{"NoteNumber":73,"Velocity":45,"Duration":594561,"SoundDuration":594561,"Delta":553443913},{"NoteNumber":52,"Velocity":47,"Duration":214430,"SoundDuration":214430,"Delta":553646506},{"NoteNumber":55,"Velocity":49,"Duration":216734,"SoundDuration":216734,"Delta":553841210},{"NoteNumber":76,"Velocity":55,"Duration":589301,"SoundDuration":589301,"Delta":554038475},{"NoteNumber":67,"Velocity":45,"Duration":589301,"SoundDuration":589301,"Delta":554038475},{"NoteNumber":61,"Velocity":54,"Duration":214174,"SoundDuration":214174,"Delta":554038475},{"NoteNumber":60,"Velocity":49,"Duration":214693,"SoundDuration":214693,"Delta":554233179},{"NoteNumber":58,"Velocity":49,"Duration":220016,"SoundDuration":220016,"Delta":554427883},{"NoteNumber":57,"Velocity":38,"Duration":201233,"SoundDuration":201233,"Delta":554627776},{"NoteNumber":84,"Velocity":49,"Duration":97352,"SoundDuration":97352,"Delta":554829010},{"NoteNumber":84,"Velocity":49,"Duration":97352,"SoundDuration":97352,"Delta":555023714},{"NoteNumber":58,"Velocity":40,"Duration":201233,"SoundDuration":201233,"Delta":555218418},{"NoteNumber":86,"Velocity":49,"Duration":97352,"SoundDuration":97352,"Delta":555419652},{"NoteNumber":86,"Velocity":49,"Duration":101985,"SoundDuration":101985,"Delta":555614356},{"NoteNumber":72,"Velocity":39,"Duration":1236959,"SoundDuration":1236959,"Delta":555818327},{"NoteNumber":77,"Velocity":47,"Duration":603701,"SoundDuration":603701,"Delta":555818327},{"NoteNumber":60,"Velocity":34,"Duration":603701,"SoundDuration":603701,"Delta":555818327},{"NoteNumber":69,"Velocity":40,"Duration":603701,"SoundDuration":603701,"Delta":555818327},{"NoteNumber":76,"Velocity":37,"Duration":633257,"SoundDuration":633257,"Delta":556422029},{"NoteNumber":58,"Velocity":32,"Duration":633257,"SoundDuration":633257,"Delta":556422029},{"NoteNumber":67,"Velocity":40,"Duration":633257,"SoundDuration":633257,"Delta":556422029},{"NoteNumber":83,"Velocity":71,"Duration":102683,"SoundDuration":102683,"Delta":557055287},{"NoteNumber":57,"Velocity":64,"Duration":205367,"SoundDuration":205367,"Delta":557055287},{"NoteNumber":84,"Velocity":55,"Duration":112612,"SoundDuration":112612,"Delta":557157970},{"NoteNumber":83,"Velocity":55,"Duration":109213,"SoundDuration":109213,"Delta":557260654},{"NoteNumber":60,"Velocity":53,"Duration":198570,"SoundDuration":198570,"Delta":557260654},{"NoteNumber":84,"Velocity":55,"Duration":109213,"SoundDuration":109213,"Delta":557359939},{"NoteNumber":83,"Velocity":55,"Duration":112583,"SoundDuration":112583,"Delta":557459224},{"NoteNumber":65,"Velocity":53,"Duration":204998,"SoundDuration":204998,"Delta":557459224},{"NoteNumber":84,"Velocity":55,"Duration":102683,"SoundDuration":102683,"Delta":557561539},{"NoteNumber":85,"Velocity":62,"Duration":111426,"SoundDuration":111426,"Delta":557664223},{"NoteNumber":58,"Velocity":61,"Duration":202592,"SoundDuration":202592,"Delta":557664223},{"NoteNumber":86,"Velocity":55,"Duration":111225,"SoundDuration":111225,"Delta":557765519},{"NoteNumber":85,"Velocity":55,"Duration":109213,"SoundDuration":109213,"Delta":557866816},{"NoteNumber":62,"Velocity":53,"Duration":198570,"SoundDuration":198570,"Delta":557866816},{"NoteNumber":86,"Velocity":55,"Duration":109213,"SoundDuration":109213,"Delta":557966101},{"NoteNumber":88,"Velocity":59,"Duration":110534,"SoundDuration":110534,"Delta":558065386},{"NoteNumber":67,"Velocity":50,"Duration":201089,"SoundDuration":201089,"Delta":558065386},{"NoteNumber":89,"Velocity":54,"Duration":100616,"SoundDuration":100616,"Delta":558165859},{"NoteNumber":72,"Velocity":39,"Duration":603701,"SoundDuration":603701,"Delta":558266476},{"NoteNumber":77,"Velocity":47,"Duration":553393,"SoundDuration":553393,"Delta":558266476},{"NoteNumber":60,"Velocity":38,"Duration":201233,"SoundDuration":201233,"Delta":558266476},{"NoteNumber":65,"Velocity":34,"Duration":201233,"SoundDuration":201233,"Delta":558467710},{"NoteNumber":69,"Velocity":34,"Duration":201233,"SoundDuration":201233,"Delta":558668944},{"NoteNumber":81,"Velocity":37,"Duration":50308,"SoundDuration":50308,"Delta":558819870},{"NoteNumber":79,"Velocity":43,"Duration":520543,"SoundDuration":520543,"Delta":558870178},{"NoteNumber":76,"Velocity":43,"Duration":416434,"SoundDuration":416434,"Delta":558870178},{"NoteNumber":60,"Velocity":39,"Duration":208217,"SoundDuration":208217,"Delta":558870178},{"NoteNumber":67,"Velocity":33,"Duration":208217,"SoundDuration":208217,"Delta":559078396},{"NoteNumber":70,"Velocity":33,"Duration":208217,"SoundDuration":208217,"Delta":559286613},{"NoteNumber":77,"Velocity":37,"Duration":104108,"SoundDuration":104108,"Delta":559390722},{"NoteNumber":77,"Velocity":71,"Duration":114519,"SoundDuration":114519,"Delta":559494831},{"NoteNumber":69,"Velocity":66,"Duration":406787,"SoundDuration":406787,"Delta":559494831},{"NoteNumber":65,"Velocity":56,"Duration":406787,"SoundDuration":406787,"Delta":559494831},{"NoteNumber":81,"Velocity":64,"Duration":114037,"SoundDuration":114037,"Delta":559598939},{"NoteNumber":84,"Velocity":67,"Duration":109213,"SoundDuration":109213,"Delta":559703048},{"NoteNumber":89,"Velocity":68,"Duration":109020,"SoundDuration":109020,"Delta":559802333},{"NoteNumber":88,"Velocity":69,"Duration":107087,"SoundDuration":107087,"Delta":559901619},{"NoteNumber":86,"Velocity":69,"Duration":107087,"SoundDuration":107087,"Delta":559998971},{"NoteNumber":84,"Velocity":71,"Duration":107087,"SoundDuration":107087,"Delta":560096323},{"NoteNumber":70,"Velocity":66,"Duration":389408,"SoundDuration":389408,"Delta":560096323},{"NoteNumber":60,"Velocity":56,"Duration":389408,"SoundDuration":389408,"Delta":560096323},{"NoteNumber":64,"Velocity":66,"Duration":389408,"SoundDuration":389408,"Delta":560096323},{"NoteNumber":86,"Velocity":67,"Duration":107087,"SoundDuration":107087,"Delta":560193675},{"NoteNumber":84,"Velocity":67,"Duration":107087,"SoundDuration":107087,"Delta":560291027},{"NoteNumber":82,"Velocity":67,"Duration":107087,"SoundDuration":107087,"Delta":560388379},{"NoteNumber":81,"Velocity":67,"Duration":108215,"SoundDuration":108215,"Delta":560485731},{"NoteNumber":79,"Velocity":67,"Duration":108632,"SoundDuration":108632,"Delta":560583083},{"NoteNumber":77,"Velocity":71,"Duration":114519,"SoundDuration":114519,"Delta":560691715},{"NoteNumber":65,"Velocity":56,"Duration":405482,"SoundDuration":405482,"Delta":560691715},{"NoteNumber":69,"Velocity":66,"Duration":405482,"SoundDuration":405482,"Delta":560691715},{"NoteNumber":81,"Velocity":64,"Duration":113971,"SoundDuration":113971,"Delta":560795824},{"NoteNumber":79,"Velocity":64,"Duration":108495,"SoundDuration":108495,"Delta":560899933},{"NoteNumber":77,"Velocity":68,"Duration":108367,"SoundDuration":108367,"Delta":560998565},{"NoteNumber":76,"Velocity":64,"Duration":107087,"SoundDuration":107087,"Delta":561097197},{"NoteNumber":74,"Velocity":64,"Duration":107087,"SoundDuration":107087,"Delta":561194549},{"NoteNumber":72,"Velocity":69,"Duration":107087,"SoundDuration":107087,"Delta":561291901},{"NoteNumber":70,"Velocity":66,"Duration":389408,"SoundDuration":389408,"Delta":561291901},{"NoteNumber":60,"Velocity":56,"Duration":389408,"SoundDuration":389408,"Delta":561291901},{"NoteNumber":64,"Velocity":56,"Duration":389408,"SoundDuration":389408,"Delta":561291901},{"NoteNumber":74,"Velocity":63,"Duration":107087,"SoundDuration":107087,"Delta":561389253},{"NoteNumber":72,"Velocity":63,"Duration":107087,"SoundDuration":107087,"Delta":561486605},{"NoteNumber":70,"Velocity":63,"Duration":107087,"SoundDuration":107087,"Delta":561583957},{"NoteNumber":69,"Velocity":63,"Duration":108137,"SoundDuration":108137,"Delta":561681309},{"NoteNumber":67,"Velocity":63,"Duration":107851,"SoundDuration":107851,"Delta":561778661},{"NoteNumber":65,"Velocity":71,"Duration":112183,"SoundDuration":112183,"Delta":561886513},{"NoteNumber":57,"Velocity":66,"Duration":399946,"SoundDuration":399946,"Delta":561886513},{"NoteNumber":53,"Velocity":56,"Duration":399946,"SoundDuration":399946,"Delta":561886513},{"NoteNumber":69,"Velocity":63,"Duration":111784,"SoundDuration":111784,"Delta":561988498},{"NoteNumber":67,"Velocity":63,"Duration":107786,"SoundDuration":107786,"Delta":562090483},{"NoteNumber":65,"Velocity":63,"Duration":107723,"SoundDuration":107723,"Delta":562188471},{"NoteNumber":64,"Velocity":63,"Duration":107087,"SoundDuration":107087,"Delta":562286459},{"NoteNumber":62,"Velocity":64,"Duration":107087,"SoundDuration":107087,"Delta":562383811},{"NoteNumber":60,"Velocity":71,"Duration":107087,"SoundDuration":107087,"Delta":562481163},{"NoteNumber":48,"Velocity":56,"Duration":389408,"SoundDuration":389408,"Delta":562481163},{"NoteNumber":52,"Velocity":56,"Duration":389408,"SoundDuration":389408,"Delta":562481163},{"NoteNumber":58,"Velocity":66,"Duration":389408,"SoundDuration":389408,"Delta":562481163},{"NoteNumber":62,"Velocity":64,"Duration":107087,"SoundDuration":107087,"Delta":562578515},{"NoteNumber":60,"Velocity":64,"Duration":107087,"SoundDuration":107087,"Delta":562675867},{"NoteNumber":58,"Velocity":64,"Duration":107087,"SoundDuration":107087,"Delta":562773219},{"NoteNumber":57,"Velocity":64,"Duration":108137,"SoundDuration":108137,"Delta":562870571},{"NoteNumber":55,"Velocity":64,"Duration":107851,"SoundDuration":107851,"Delta":562967923},{"NoteNumber":53,"Velocity":81,"Duration":100617,"SoundDuration":100617,"Delta":563075775},{"NoteNumber":41,"Velocity":70,"Duration":100617,"SoundDuration":100617,"Delta":563075775},{"NoteNumber":57,"Velocity":70,"Duration":100617,"SoundDuration":100617,"Delta":563277009},{"NoteNumber":45,"Velocity":63,"Duration":100617,"SoundDuration":100617,"Delta":563277009},{"NoteNumber":60,"Velocity":70,"Duration":100617,"SoundDuration":100617,"Delta":563478243},{"NoteNumber":48,"Velocity":63,"Duration":100617,"SoundDuration":100617,"Delta":563478243},{"NoteNumber":65,"Velocity":78,"Duration":100617,"SoundDuration":100617,"Delta":563679477},{"NoteNumber":53,"Velocity":70,"Duration":100617,"SoundDuration":100617,"Delta":563679477},{"NoteNumber":69,"Velocity":70,"Duration":100617,"SoundDuration":100617,"Delta":563880711},{"NoteNumber":57,"Velocity":64,"Duration":100617,"SoundDuration":100617,"Delta":563880711},{"NoteNumber":72,"Velocity":70,"Duration":100617,"SoundDuration":100617,"Delta":564081945},{"NoteNumber":60,"Velocity":64,"Duration":100617,"SoundDuration":100617,"Delta":564081945},{"NoteNumber":77,"Velocity":88,"Duration":200360,"SoundDuration":200360,"Delta":564283179},{"NoteNumber":65,"Velocity":74,"Duration":200360,"SoundDuration":200360,"Delta":564283179},{"NoteNumber":81,"Velocity":75,"Duration":400720,"SoundDuration":400720,"Delta":564884260},{"NoteNumber":84,"Velocity":90,"Duration":400720,"SoundDuration":400720,"Delta":564884260},{"NoteNumber":72,"Velocity":75,"Duration":400720,"SoundDuration":400720,"Delta":564884260},{"NoteNumber":65,"Velocity":74,"Duration":400720,"SoundDuration":400720,"Delta":564884260},{"NoteNumber":53,"Velocity":62,"Duration":400720,"SoundDuration":400720,"Delta":564884260},{"NoteNumber":87,"Velocity":94,"Duration":403415,"SoundDuration":403415,"Delta":565485342},{"NoteNumber":77,"Velocity":79,"Duration":403415,"SoundDuration":403415,"Delta":565485342},{"NoteNumber":84,"Velocity":81,"Duration":403415,"SoundDuration":403415,"Delta":565485342},{"NoteNumber":45,"Velocity":62,"Duration":403415,"SoundDuration":403415,"Delta":565485342},{"NoteNumber":57,"Velocity":74,"Duration":403415,"SoundDuration":403415,"Delta":565485342},{"NoteNumber":86,"Velocity":86,"Duration":403415,"SoundDuration":403415,"Delta":566695590},{"NoteNumber":77,"Velocity":74,"Duration":403415,"SoundDuration":403415,"Delta":566695590},{"NoteNumber":82,"Velocity":74,"Duration":403415,"SoundDuration":403415,"Delta":566695590},{"NoteNumber":46,"Velocity":62,"Duration":403415,"SoundDuration":403415,"Delta":566695590},{"NoteNumber":58,"Velocity":74,"Duration":403415,"SoundDuration":403415,"Delta":566695590},{"NoteNumber":80,"Velocity":74,"Duration":403415,"SoundDuration":403415,"Delta":567905838},{"NoteNumber":86,"Velocity":86,"Duration":403415,"SoundDuration":403415,"Delta":567905838},{"NoteNumber":89,"Velocity":74,"Duration":403415,"SoundDuration":403415,"Delta":567905838},{"NoteNumber":77,"Velocity":74,"Duration":403415,"SoundDuration":403415,"Delta":567905838},{"NoteNumber":47,"Velocity":62,"Duration":403415,"SoundDuration":403415,"Delta":567905838},{"NoteNumber":59,"Velocity":74,"Duration":403415,"SoundDuration":403415,"Delta":567905838},{"NoteNumber":60,"Velocity":39,"Duration":1210247,"SoundDuration":1210247,"Delta":569116086},{"NoteNumber":65,"Velocity":47,"Duration":1109393,"SoundDuration":1109393,"Delta":569116086},{"NoteNumber":57,"Velocity":42,"Duration":1210247,"SoundDuration":1210247,"Delta":569116086},{"NoteNumber":48,"Velocity":35,"Duration":1210247,"SoundDuration":1210247,"Delta":569116086},{"NoteNumber":69,"Velocity":47,"Duration":100854,"SoundDuration":100854,"Delta":570225480},{"NoteNumber":60,"Velocity":42,"Duration":1541033,"SoundDuration":1541033,"Delta":570326334},{"NoteNumber":67,"Velocity":50,"Duration":1028463,"SoundDuration":1028463,"Delta":570326334},{"NoteNumber":64,"Velocity":42,"Duration":1274910,"SoundDuration":1274910,"Delta":570326334},{"NoteNumber":58,"Velocity":42,"Duration":1274910,"SoundDuration":1274910,"Delta":570326334},{"NoteNumber":48,"Velocity":35,"Duration":1274910,"SoundDuration":1274910,"Delta":570326334},{"NoteNumber":65,"Velocity":41,"Duration":246446,"SoundDuration":246446,"Delta":571354798},{"NoteNumber":65,"Velocity":46,"Duration":266122,"SoundDuration":266122,"Delta":571601245},{"NoteNumber":57,"Velocity":42,"Duration":266122,"SoundDuration":266122,"Delta":571601245},{"NoteNumber":53,"Velocity":35,"Duration":266122,"SoundDuration":266122,"Delta":571601245},{"NoteNumber":57,"Velocity":71,"Duration":199031,"SoundDuration":199031,"Delta":572133490},{"NoteNumber":45,"Velocity":60,"Duration":199031,"SoundDuration":199031,"Delta":572133490},{"NoteNumber":58,"Velocity":78,"Duration":97352,"SoundDuration":97352,"Delta":572332521},{"NoteNumber":46,"Velocity":66,"Duration":97352,"SoundDuration":97352,"Delta":572332521},{"NoteNumber":67,"Velocity":73,"Duration":97352,"SoundDuration":97352,"Delta":572527225},{"NoteNumber":55,"Velocity":61,"Duration":97352,"SoundDuration":97352,"Delta":572527225},{"NoteNumber":59,"Velocity":72,"Duration":99946,"SoundDuration":99946,"Delta":572721929},{"NoteNumber":47,"Velocity":61,"Duration":99946,"SoundDuration":99946,"Delta":572721929},{"NoteNumber":60,"Velocity":78,"Duration":97352,"SoundDuration":97352,"Delta":572921823},{"NoteNumber":48,"Velocity":66,"Duration":97352,"SoundDuration":97352,"Delta":572921823},{"NoteNumber":69,"Velocity":73,"Duration":97352,"SoundDuration":97352,"Delta":573116527},{"NoteNumber":57,"Velocity":61,"Duration":97352,"SoundDuration":97352,"Delta":573116527},{"NoteNumber":61,"Velocity":73,"Duration":98632,"SoundDuration":98632,"Delta":573311231},{"NoteNumber":49,"Velocity":61,"Duration":98632,"SoundDuration":98632,"Delta":573311231},{"NoteNumber":62,"Velocity":78,"Duration":97352,"SoundDuration":97352,"Delta":573508495},{"NoteNumber":50,"Velocity":66,"Duration":97352,"SoundDuration":97352,"Delta":573508495},{"NoteNumber":70,"Velocity":72,"Duration":97352,"SoundDuration":97352,"Delta":573703199},{"NoteNumber":58,"Velocity":61,"Duration":97352,"SoundDuration":97352,"Delta":573703199},{"NoteNumber":64,"Velocity":72,"Duration":99285,"SoundDuration":99285,"Delta":573897903},{"NoteNumber":52,"Velocity":61,"Duration":99285,"SoundDuration":99285,"Delta":573897903},{"NoteNumber":82,"Velocity":68,"Duration":778816,"SoundDuration":778816,"Delta":574096474},{"NoteNumber":58,"Velocity":28,"Duration":574258,"SoundDuration":574258,"Delta":574680586},{"NoteNumber":60,"Velocity":28,"Duration":574258,"SoundDuration":574258,"Delta":574680586},{"NoteNumber":67,"Velocity":34,"Duration":574258,"SoundDuration":574258,"Delta":574680586},{"NoteNumber":64,"Velocity":28,"Duration":574258,"SoundDuration":574258,"Delta":574680586},{"NoteNumber":81,"Velocity":62,"Duration":94888,"SoundDuration":94888,"Delta":574875290},{"NoteNumber":79,"Velocity":61,"Duration":94888,"SoundDuration":94888,"Delta":574970179},{"NoteNumber":77,"Velocity":59,"Duration":94888,"SoundDuration":94888,"Delta":575065067},{"NoteNumber":76,"Velocity":57,"Duration":94888,"SoundDuration":94888,"Delta":575159956},{"NoteNumber":77,"Velocity":56,"Duration":97352,"SoundDuration":97352,"Delta":575254845},{"NoteNumber":60,"Velocity":41,"Duration":194704,"SoundDuration":194704,"Delta":575254845},{"NoteNumber":57,"Velocity":41,"Duration":194704,"SoundDuration":194704,"Delta":575254845},{"NoteNumber":65,"Velocity":49,"Duration":194704,"SoundDuration":194704,"Delta":575254845},{"NoteNumber":79,"Velocity":49,"Duration":97352,"SoundDuration":97352,"Delta":575449549},{"NoteNumber":81,"Velocity":54,"Duration":110293,"SoundDuration":110293,"Delta":575644253},{"NoteNumber":69,"Velocity":46,"Duration":389408,"SoundDuration":389408,"Delta":575864841},{"NoteNumber":72,"Velocity":46,"Duration":389408,"SoundDuration":389408,"Delta":575864841},{"NoteNumber":60,"Velocity":42,"Duration":389408,"SoundDuration":389408,"Delta":575864841},{"NoteNumber":70,"Velocity":40,"Duration":211267,"SoundDuration":211267,"Delta":576254249},{"NoteNumber":67,"Velocity":40,"Duration":211267,"SoundDuration":211267,"Delta":576254249},{"NoteNumber":61,"Velocity":42,"Duration":211267,"SoundDuration":211267,"Delta":576254249},{"NoteNumber":70,"Velocity":46,"Duration":616438,"SoundDuration":616438,"Delta":576465516},{"NoteNumber":67,"Velocity":46,"Duration":616438,"SoundDuration":616438,"Delta":576465516},{"NoteNumber":62,"Velocity":47,"Duration":815113,"SoundDuration":815113,"Delta":576465516},{"NoteNumber":65,"Velocity":41,"Duration":198675,"SoundDuration":198675,"Delta":577081955},{"NoteNumber":69,"Velocity":41,"Duration":198675,"SoundDuration":198675,"Delta":577081955},{"NoteNumber":57,"Velocity":71,"Duration":198675,"SoundDuration":198675,"Delta":578075332},{"NoteNumber":45,"Velocity":60,"Duration":198675,"SoundDuration":198675,"Delta":578075332},{"NoteNumber":58,"Velocity":78,"Duration":97408,"SoundDuration":97408,"Delta":578274008},{"NoteNumber":46,"Velocity":66,"Duration":97408,"SoundDuration":97408,"Delta":578274008},{"NoteNumber":67,"Velocity":73,"Duration":97408,"SoundDuration":97408,"Delta":578468826},{"NoteNumber":55,"Velocity":61,"Duration":97408,"SoundDuration":97408,"Delta":578468826},{"NoteNumber":59,"Velocity":72,"Duration":98690,"SoundDuration":98690,"Delta":578663644},{"NoteNumber":47,"Velocity":61,"Duration":98690,"SoundDuration":98690,"Delta":578663644},{"NoteNumber":60,"Velocity":78,"Duration":96780,"SoundDuration":96780,"Delta":578861025},{"NoteNumber":48,"Velocity":66,"Duration":96780,"SoundDuration":96780,"Delta":578861025},{"NoteNumber":69,"Velocity":73,"Duration":96780,"SoundDuration":96780,"Delta":579054586},{"NoteNumber":57,"Velocity":61,"Duration":96780,"SoundDuration":96780,"Delta":579054586},{"NoteNumber":61,"Velocity":73,"Duration":98690,"SoundDuration":98690,"Delta":579248147},{"NoteNumber":49,"Velocity":61,"Duration":98690,"SoundDuration":98690,"Delta":579248147},{"NoteNumber":62,"Velocity":78,"Duration":96780,"SoundDuration":96780,"Delta":579445529},{"NoteNumber":50,"Velocity":66,"Duration":96780,"SoundDuration":96780,"Delta":579445529},{"NoteNumber":70,"Velocity":72,"Duration":96780,"SoundDuration":96780,"Delta":579639090},{"NoteNumber":58,"Velocity":61,"Duration":96780,"SoundDuration":96780,"Delta":579639090},{"NoteNumber":64,"Velocity":72,"Duration":98690,"SoundDuration":98690,"Delta":579832651},{"NoteNumber":52,"Velocity":61,"Duration":98690,"SoundDuration":98690,"Delta":579832651},{"NoteNumber":82,"Velocity":68,"Duration":789526,"SoundDuration":789526,"Delta":580030032},{"NoteNumber":58,"Velocity":28,"Duration":576936,"SoundDuration":576936,"Delta":580622177},{"NoteNumber":60,"Velocity":28,"Duration":576936,"SoundDuration":576936,"Delta":580622177},{"NoteNumber":64,"Velocity":28,"Duration":576936,"SoundDuration":576936,"Delta":580622177},{"NoteNumber":67,"Velocity":34,"Duration":576936,"SoundDuration":576936,"Delta":580622177},{"NoteNumber":81,"Velocity":62,"Duration":94888,"SoundDuration":94888,"Delta":580819558},{"NoteNumber":79,"Velocity":61,"Duration":94888,"SoundDuration":94888,"Delta":580914447},{"NoteNumber":77,"Velocity":59,"Duration":94888,"SoundDuration":94888,"Delta":581009336},{"NoteNumber":76,"Velocity":57,"Duration":94888,"SoundDuration":94888,"Delta":581104225},{"NoteNumber":77,"Velocity":56,"Duration":55114,"SoundDuration":55114,"Delta":581199113},{"NoteNumber":57,"Velocity":41,"Duration":220458,"SoundDuration":220458,"Delta":581199113},{"NoteNumber":65,"Velocity":49,"Duration":220458,"SoundDuration":220458,"Delta":581199113},{"NoteNumber":60,"Velocity":41,"Duration":220458,"SoundDuration":220458,"Delta":581199113},{"NoteNumber":79,"Velocity":49,"Duration":55114,"SoundDuration":55114,"Delta":581254228},{"NoteNumber":81,"Velocity":49,"Duration":55114,"SoundDuration":55114,"Delta":581309343},{"NoteNumber":74,"Velocity":46,"Duration":69618,"SoundDuration":69618,"Delta":581837283},{"NoteNumber":58,"Velocity":32,"Duration":261456,"SoundDuration":261456,"Delta":581837283},{"NoteNumber":62,"Velocity":32,"Duration":261456,"SoundDuration":261456,"Delta":581837283},{"NoteNumber":65,"Velocity":41,"Duration":261456,"SoundDuration":261456,"Delta":581837283},{"NoteNumber":76,"Velocity":39,"Duration":69618,"SoundDuration":69618,"Delta":581906901},{"NoteNumber":77,"Velocity":39,"Duration":61109,"SoundDuration":61109,"Delta":581976520},{"NoteNumber":60,"Velocity":37,"Duration":1315972,"SoundDuration":1315972,"Delta":582545705},{"NoteNumber":65,"Velocity":44,"Duration":518661,"SoundDuration":518661,"Delta":582545705},{"NoteNumber":57,"Velocity":32,"Duration":630535,"SoundDuration":630535,"Delta":582545705},{"NoteNumber":48,"Velocity":27,"Duration":1315972,"SoundDuration":1315972,"Delta":582545705},{"NoteNumber":69,"Velocity":39,"Duration":111873,"SoundDuration":111873,"Delta":583064366},{"NoteNumber":67,"Velocity":44,"Duration":447494,"SoundDuration":447494,"Delta":583176240},{"NoteNumber":64,"Velocity":36,"Duration":447494,"SoundDuration":447494,"Delta":583176240},{"NoteNumber":58,"Velocity":28,"Duration":685437,"SoundDuration":685437,"Delta":583176240},{"NoteNumber":65,"Velocity":41,"Duration":237943,"SoundDuration":237943,"Delta":583623734},{"NoteNumber":65,"Velocity":41,"Duration":597318,"SoundDuration":597318,"Delta":583861678},{"NoteNumber":53,"Velocity":28,"Duration":597318,"SoundDuration":597318,"Delta":583861678},{"NoteNumber":57,"Velocity":24,"Duration":195975,"SoundDuration":195975,"Delta":584067045},{"NoteNumber":69,"Velocity":39,"Duration":195975,"SoundDuration":195975,"Delta":584263021},{"NoteNumber":60,"Velocity":24,"Duration":195975,"SoundDuration":195975,"Delta":584263021},{"NoteNumber":64,"Velocity":37,"Duration":597122,"SoundDuration":597122,"Delta":584458997},{"NoteNumber":72,"Velocity":44,"Duration":197264,"SoundDuration":197264,"Delta":584458997},{"NoteNumber":53,"Velocity":28,"Duration":597122,"SoundDuration":597122,"Delta":584458997},{"NoteNumber":70,"Velocity":39,"Duration":197264,"SoundDuration":197264,"Delta":584656261},{"NoteNumber":55,"Velocity":26,"Duration":197264,"SoundDuration":197264,"Delta":584656261},{"NoteNumber":67,"Velocity":39,"Duration":202592,"SoundDuration":202592,"Delta":584853526},{"NoteNumber":58,"Velocity":26,"Duration":202592,"SoundDuration":202592,"Delta":584853526},{"NoteNumber":65,"Velocity":44,"Duration":595763,"SoundDuration":595763,"Delta":585056119},{"NoteNumber":53,"Velocity":28,"Duration":595763,"SoundDuration":595763,"Delta":585056119},{"NoteNumber":60,"Velocity":40,"Duration":193976,"SoundDuration":193976,"Delta":585253383},{"NoteNumber":57,"Velocity":24,"Duration":197264,"SoundDuration":197264,"Delta":585253383},{"NoteNumber":69,"Velocity":40,"Duration":201233,"SoundDuration":201233,"Delta":585450648},{"NoteNumber":60,"Velocity":24,"Duration":201233,"SoundDuration":201233,"Delta":585450648},{"NoteNumber":64,"Velocity":37,"Duration":601811,"SoundDuration":601811,"Delta":585651882},{"NoteNumber":72,"Velocity":44,"Duration":197264,"SoundDuration":197264,"Delta":585651882},{"NoteNumber":53,"Velocity":28,"Duration":601811,"SoundDuration":601811,"Delta":585651882},{"NoteNumber":70,"Velocity":40,"Duration":197264,"SoundDuration":197264,"Delta":585849146},{"NoteNumber":55,"Velocity":24,"Duration":197264,"SoundDuration":197264,"Delta":585849146},{"NoteNumber":67,"Velocity":40,"Duration":207282,"SoundDuration":207282,"Delta":586046411},{"NoteNumber":58,"Velocity":24,"Duration":207282,"SoundDuration":207282,"Delta":586046411},{"NoteNumber":65,"Velocity":44,"Duration":201708,"SoundDuration":201708,"Delta":586253693},{"NoteNumber":53,"Velocity":28,"Duration":627748,"SoundDuration":627748,"Delta":586253693},{"NoteNumber":60,"Velocity":41,"Duration":198346,"SoundDuration":198346,"Delta":586455401},{"NoteNumber":57,"Velocity":24,"Duration":201707,"SoundDuration":201707,"Delta":586455401},{"NoteNumber":69,"Velocity":41,"Duration":224332,"SoundDuration":224332,"Delta":586657109},{"NoteNumber":60,"Velocity":24,"Duration":224332,"SoundDuration":224332,"Delta":586657109},{"NoteNumber":65,"Velocity":44,"Duration":214300,"SoundDuration":214300,"Delta":586881442},{"NoteNumber":53,"Velocity":28,"Duration":924434,"SoundDuration":924434,"Delta":586881442},{"NoteNumber":60,"Velocity":40,"Duration":269342,"SoundDuration":269342,"Delta":587095743},{"NoteNumber":57,"Velocity":24,"Duration":272751,"SoundDuration":272751,"Delta":587095743},{"NoteNumber":69,"Velocity":40,"Duration":437381,"SoundDuration":437381,"Delta":587368495},{"NoteNumber":60,"Velocity":24,"Duration":437381,"SoundDuration":437381,"Delta":587368495},{"NoteNumber":67,"Velocity":42,"Duration":1590386,"SoundDuration":1590386,"Delta":587805876},{"NoteNumber":58,"Velocity":36,"Duration":1590386,"SoundDuration":1590386,"Delta":587805876},{"NoteNumber":53,"Velocity":28,"Duration":2120515,"SoundDuration":2120515,"Delta":587805876},{"NoteNumber":41,"Velocity":23,"Duration":2120515,"SoundDuration":2120515,"Delta":587805876},{"NoteNumber":65,"Velocity":36,"Duration":530128,"SoundDuration":530128,"Delta":589396263},{"NoteNumber":57,"Velocity":31,"Duration":530128,"SoundDuration":530128,"Delta":589396263}],"license":{"name":"Creative Commons Attribution-ShareAlike 3.0 Germany","url":"http://creativecommons.org/licenses/by-sa/3.0/de/deed.en","text":"The MIDI files in this folder were downloaded from http://www.piano-midi.de and are licensed under the Creative Commons Attribution-ShareAlike 3.0 Germany license by Bernd Krueger.\n\nThe MIDI, audio(MP3, OGG) and video files of Bernd Krueger are licensed under the cc-by-sa Germany License . This means, that you can use and adapt the files, as long as you attribute to the copyright holder Name: Bernd Krueger Source: http://www.piano-midi.de The distribution or public playback of the files is only allowed under identical license conditions . The scores are open source.","attribution":"Bernd Krueger","attributionUrl":"http://www.piano-midi.de"}}