{"title":"Piano Sonata in B-flat major, K. 333: III. Allegretto grazioso","artist":"Mozart","durationMs":348068,"midiSha256":"0daec7d902eebb88f0c40d818c0c203cf5caa2461c5ef2661c626f452d03b1fd","midiObject":[{"NoteNumber":77,"Velocity":60,"Duration":545454,"SoundDuration":545454,"Delta":0},{"NoteNumber":58,"Velocity":42,"Duration":363636,"SoundDuration":363636,"Delta":362879},{"NoteNumber":74,"Velocity":53,"Duration":181818,"SoundDuration":181818,"Delta":544697},{"NoteNumber":70,"Velocity":55,"Duration":90909,"SoundDuration":90909,"Delta":726515},{"NoteNumber":62,"Velocity":48,"Duration":90909,"SoundDuration":90909,"Delta":726515},{"NoteNumber":70,"Velocity":55,"Duration":94339,"SoundDuration":94339,"Delta":1090151},{"NoteNumber":67,"Velocity":47,"Duration":94339,"SoundDuration":94339,"Delta":1090151},{"NoteNumber":75,"Velocity":60,"Duration":363636,"SoundDuration":363636,"Delta":1467509},{"NoteNumber":60,"Velocity":52,"Duration":363636,"SoundDuration":363636,"Delta":1467509},{"NoteNumber":79,"Velocity":55,"Duration":90908,"SoundDuration":90908,"Delta":1831145},{"NoteNumber":63,"Velocity":47,"Duration":90908,"SoundDuration":90908,"Delta":1831145},{"NoteNumber":69,"Velocity":52,"Duration":366972,"SoundDuration":366972,"Delta":2194781},{"NoteNumber":65,"Velocity":48,"Duration":366972,"SoundDuration":366972,"Delta":2194781},{"NoteNumber":63,"Velocity":46,"Duration":366972,"SoundDuration":366972,"Delta":2561753},{"NoteNumber":72,"Velocity":55,"Duration":181817,"SoundDuration":181817,"Delta":2928725},{"NoteNumber":62,"Velocity":53,"Duration":363636,"SoundDuration":363636,"Delta":2928725},{"NoteNumber":70,"Velocity":53,"Duration":90909,"SoundDuration":90909,"Delta":3110543},{"NoteNumber":74,"Velocity":57,"Duration":181817,"SoundDuration":181817,"Delta":3292361},{"NoteNumber":57,"Velocity":47,"Duration":363636,"SoundDuration":363636,"Delta":3292361},{"NoteNumber":72,"Velocity":54,"Duration":90909,"SoundDuration":90909,"Delta":3474179},{"NoteNumber":75,"Velocity":58,"Duration":181817,"SoundDuration":181817,"Delta":3655997},{"NoteNumber":58,"Velocity":51,"Duration":363635,"SoundDuration":363635,"Delta":3655997},{"NoteNumber":74,"Velocity":56,"Duration":90908,"SoundDuration":90908,"Delta":3837815},{"NoteNumber":77,"Velocity":60,"Duration":184615,"SoundDuration":184615,"Delta":4019633},{"NoteNumber":51,"Velocity":51,"Duration":369231,"SoundDuration":369231,"Delta":4019633},{"NoteNumber":60,"Velocity":51,"Duration":369231,"SoundDuration":369231,"Delta":4019633},{"NoteNumber":75,"Velocity":57,"Duration":92307,"SoundDuration":92307,"Delta":4204248},{"NoteNumber":74,"Velocity":60,"Duration":548781,"SoundDuration":548781,"Delta":4388864},{"NoteNumber":58,"Velocity":52,"Duration":731708,"SoundDuration":731708,"Delta":4388864},{"NoteNumber":53,"Velocity":52,"Duration":1102687,"SoundDuration":1102687,"Delta":4388864},{"NoteNumber":75,"Velocity":57,"Duration":91463,"SoundDuration":91463,"Delta":4937645},{"NoteNumber":74,"Velocity":53,"Duration":91463,"SoundDuration":91463,"Delta":5029108},{"NoteNumber":72,"Velocity":52,"Duration":182927,"SoundDuration":182927,"Delta":5120572},{"NoteNumber":57,"Velocity":47,"Duration":370979,"SoundDuration":370979,"Delta":5120572},{"NoteNumber":74,"Velocity":54,"Duration":188052,"SoundDuration":188052,"Delta":5303499},{"NoteNumber":75,"Velocity":55,"Duration":190125,"SoundDuration":190125,"Delta":5491551},{"NoteNumber":76,"Velocity":57,"Duration":191848,"SoundDuration":191848,"Delta":5681677},{"NoteNumber":77,"Velocity":59,"Duration":545454,"SoundDuration":545454,"Delta":5873525},{"NoteNumber":58,"Velocity":39,"Duration":363636,"SoundDuration":363636,"Delta":6237161},{"NoteNumber":75,"Velocity":53,"Duration":60605,"SoundDuration":60605,"Delta":6418979},{"NoteNumber":74,"Velocity":53,"Duration":60605,"SoundDuration":60605,"Delta":6479585},{"NoteNumber":72,"Velocity":53,"Duration":60605,"SoundDuration":60605,"Delta":6540191},{"NoteNumber":70,"Velocity":56,"Duration":90090,"SoundDuration":90090,"Delta":6600797},{"NoteNumber":62,"Velocity":47,"Duration":90090,"SoundDuration":90090,"Delta":6600797},{"NoteNumber":70,"Velocity":56,"Duration":92879,"SoundDuration":92879,"Delta":6961157},{"NoteNumber":67,"Velocity":46,"Duration":92879,"SoundDuration":92879,"Delta":6961157},{"NoteNumber":75,"Velocity":60,"Duration":363635,"SoundDuration":363635,"Delta":7332674},{"NoteNumber":60,"Velocity":51,"Duration":363635,"SoundDuration":363635,"Delta":7332674},{"NoteNumber":79,"Velocity":55,"Duration":90909,"SoundDuration":90909,"Delta":7696310},{"NoteNumber":63,"Velocity":45,"Duration":90909,"SoundDuration":90909,"Delta":7696310},{"NoteNumber":69,"Velocity":58,"Duration":363635,"SoundDuration":363635,"Delta":8059946},{"NoteNumber":65,"Velocity":48,"Duration":363635,"SoundDuration":363635,"Delta":8059946},{"NoteNumber":63,"Velocity":43,"Duration":363635,"SoundDuration":363635,"Delta":8423582},{"NoteNumber":69,"Velocity":52,"Duration":181817,"SoundDuration":181817,"Delta":8605400},{"NoteNumber":70,"Velocity":58,"Duration":181360,"SoundDuration":181360,"Delta":8787218},{"NoteNumber":62,"Velocity":51,"Duration":363408,"SoundDuration":363408,"Delta":8787218},{"NoteNumber":74,"Velocity":55,"Duration":90908,"SoundDuration":90908,"Delta":8968578},{"NoteNumber":67,"Velocity":58,"Duration":182741,"SoundDuration":182741,"Delta":9150627},{"NoteNumber":51,"Velocity":47,"Duration":366274,"SoundDuration":366274,"Delta":9150627},{"NoteNumber":63,"Velocity":47,"Duration":366274,"SoundDuration":366274,"Delta":9150627},{"NoteNumber":72,"Velocity":55,"Duration":91696,"SoundDuration":91696,"Delta":9333369},{"NoteNumber":70,"Velocity":58,"Duration":375000,"SoundDuration":375000,"Delta":9516902},{"NoteNumber":62,"Velocity":50,"Duration":375000,"SoundDuration":375000,"Delta":9516902},{"NoteNumber":53,"Velocity":50,"Duration":750000,"SoundDuration":750000,"Delta":9516902},{"NoteNumber":69,"Velocity":55,"Duration":375000,"SoundDuration":375000,"Delta":9891902},{"NoteNumber":60,"Velocity":48,"Duration":375000,"SoundDuration":375000,"Delta":9891902},{"NoteNumber":70,"Velocity":58,"Duration":187500,"SoundDuration":187500,"Delta":10266902},{"NoteNumber":58,"Velocity":51,"Duration":370288,"SoundDuration":370288,"Delta":10266902},{"NoteNumber":65,"Velocity":56,"Duration":91463,"SoundDuration":91463,"Delta":10454402},{"NoteNumber":67,"Velocity":60,"Duration":91185,"SoundDuration":91185,"Delta":10637190},{"NoteNumber":69,"Velocity":63,"Duration":90771,"SoundDuration":90771,"Delta":10819284},{"NoteNumber":70,"Velocity":67,"Duration":90361,"SoundDuration":90361,"Delta":11000691},{"NoteNumber":72,"Velocity":70,"Duration":90090,"SoundDuration":90090,"Delta":11181278},{"NoteNumber":74,"Velocity":74,"Duration":89686,"SoundDuration":89686,"Delta":11361188},{"NoteNumber":75,"Velocity":77,"Duration":95846,"SoundDuration":95846,"Delta":11540382},{"NoteNumber":58,"Velocity":64,"Duration":181817,"SoundDuration":181817,"Delta":11732076},{"NoteNumber":77,"Velocity":85,"Duration":545453,"SoundDuration":545453,"Delta":11732833},{"NoteNumber":65,"Velocity":54,"Duration":181817,"SoundDuration":181817,"Delta":11913894},{"NoteNumber":62,"Velocity":59,"Duration":181817,"SoundDuration":181817,"Delta":12095712},{"NoteNumber":74,"Velocity":74,"Duration":181817,"SoundDuration":181817,"Delta":12277530},{"NoteNumber":65,"Velocity":54,"Duration":181817,"SoundDuration":181817,"Delta":12277530},{"NoteNumber":70,"Velocity":78,"Duration":181818,"SoundDuration":181818,"Delta":12459348},{"NoteNumber":55,"Velocity":63,"Duration":181818,"SoundDuration":181818,"Delta":12459348},{"NoteNumber":62,"Velocity":56,"Duration":181817,"SoundDuration":181817,"Delta":12641166},{"NoteNumber":70,"Velocity":78,"Duration":185185,"SoundDuration":185185,"Delta":12822984},{"NoteNumber":58,"Velocity":59,"Duration":185185,"SoundDuration":185185,"Delta":12822984},{"NoteNumber":62,"Velocity":55,"Duration":185184,"SoundDuration":185184,"Delta":13008169},{"NoteNumber":75,"Velocity":85,"Duration":72727,"SoundDuration":72727,"Delta":13193354},{"NoteNumber":51,"Velocity":64,"Duration":181817,"SoundDuration":181817,"Delta":13193354},{"NoteNumber":77,"Velocity":72,"Duration":72727,"SoundDuration":72727,"Delta":13266081},{"NoteNumber":75,"Velocity":61,"Duration":72727,"SoundDuration":72727,"Delta":13338808},{"NoteNumber":60,"Velocity":54,"Duration":181817,"SoundDuration":181817,"Delta":13375172},{"NoteNumber":74,"Velocity":70,"Duration":72727,"SoundDuration":72727,"Delta":13411535},{"NoteNumber":75,"Velocity":72,"Duration":72727,"SoundDuration":72727,"Delta":13484262},{"NoteNumber":79,"Velocity":78,"Duration":363635,"SoundDuration":363635,"Delta":13556990},{"NoteNumber":55,"Velocity":59,"Duration":181817,"SoundDuration":181817,"Delta":13556990},{"NoteNumber":60,"Velocity":55,"Duration":181817,"SoundDuration":181817,"Delta":13738808},{"NoteNumber":69,"Velocity":81,"Duration":366972,"SoundDuration":366972,"Delta":13920626},{"NoteNumber":53,"Velocity":64,"Duration":183486,"SoundDuration":183486,"Delta":13920626},{"NoteNumber":63,"Velocity":54,"Duration":183486,"SoundDuration":183486,"Delta":14104112},{"NoteNumber":60,"Velocity":60,"Duration":183486,"SoundDuration":183486,"Delta":14287598},{"NoteNumber":63,"Velocity":56,"Duration":183485,"SoundDuration":183485,"Delta":14471084},{"NoteNumber":72,"Velocity":78,"Duration":181817,"SoundDuration":181817,"Delta":14654570},{"NoteNumber":62,"Velocity":66,"Duration":363635,"SoundDuration":363635,"Delta":14654570},{"NoteNumber":70,"Velocity":74,"Duration":90908,"SoundDuration":90908,"Delta":14836388},{"NoteNumber":74,"Velocity":81,"Duration":181817,"SoundDuration":181817,"Delta":15018206},{"NoteNumber":62,"Velocity":60,"Duration":727272,"SoundDuration":727272,"Delta":15018206},{"NoteNumber":57,"Velocity":60,"Duration":363635,"SoundDuration":363635,"Delta":15018206},{"NoteNumber":72,"Velocity":77,"Duration":90908,"SoundDuration":90908,"Delta":15200024},{"NoteNumber":75,"Velocity":82,"Duration":181818,"SoundDuration":181818,"Delta":15381842},{"NoteNumber":58,"Velocity":64,"Duration":363636,"SoundDuration":363636,"Delta":15381842},{"NoteNumber":74,"Velocity":79,"Duration":90908,"SoundDuration":90908,"Delta":15563660},{"NoteNumber":77,"Velocity":85,"Duration":184615,"SoundDuration":184615,"Delta":15745478},{"NoteNumber":51,"Velocity":64,"Duration":369231,"SoundDuration":369231,"Delta":15745478},{"NoteNumber":60,"Velocity":64,"Duration":369231,"SoundDuration":369231,"Delta":15745478},{"NoteNumber":75,"Velocity":81,"Duration":92307,"SoundDuration":92307,"Delta":15930093},{"NoteNumber":74,"Velocity":85,"Duration":548781,"SoundDuration":548781,"Delta":16114709},{"NoteNumber":58,"Velocity":65,"Duration":731708,"SoundDuration":731708,"Delta":16114709},{"NoteNumber":53,"Velocity":65,"Duration":1102687,"SoundDuration":1102687,"Delta":16114709},{"NoteNumber":75,"Velocity":81,"Duration":91463,"SoundDuration":91463,"Delta":16663490},{"NoteNumber":74,"Velocity":81,"Duration":91463,"SoundDuration":91463,"Delta":16754953},{"NoteNumber":72,"Velocity":73,"Duration":182926,"SoundDuration":182926,"Delta":16846417},{"NoteNumber":57,"Velocity":60,"Duration":370979,"SoundDuration":370979,"Delta":16846417},{"NoteNumber":74,"Velocity":77,"Duration":188052,"SoundDuration":188052,"Delta":17029344},{"NoteNumber":75,"Velocity":78,"Duration":190125,"SoundDuration":190125,"Delta":17217396},{"NoteNumber":76,"Velocity":81,"Duration":191848,"SoundDuration":191848,"Delta":17407522},{"NoteNumber":77,"Velocity":83,"Duration":545453,"SoundDuration":545453,"Delta":17599370},{"NoteNumber":58,"Velocity":65,"Duration":181817,"SoundDuration":181817,"Delta":17599370},{"NoteNumber":65,"Velocity":55,"Duration":181817,"SoundDuration":181817,"Delta":17781188},{"NoteNumber":62,"Velocity":60,"Duration":181817,"SoundDuration":181817,"Delta":17963006},{"NoteNumber":75,"Velocity":74,"Duration":60605,"SoundDuration":60605,"Delta":18144824},{"NoteNumber":65,"Velocity":55,"Duration":181817,"SoundDuration":181817,"Delta":18144824},{"NoteNumber":74,"Velocity":74,"Duration":60605,"SoundDuration":60605,"Delta":18205430},{"NoteNumber":72,"Velocity":74,"Duration":60605,"SoundDuration":60605,"Delta":18266036},{"NoteNumber":70,"Velocity":79,"Duration":90090,"SoundDuration":90090,"Delta":18326642},{"NoteNumber":55,"Velocity":64,"Duration":90090,"SoundDuration":90090,"Delta":18326642},{"NoteNumber":70,"Velocity":76,"Duration":90090,"SoundDuration":90090,"Delta":18506822},{"NoteNumber":62,"Velocity":57,"Duration":90090,"SoundDuration":90090,"Delta":18506822},{"NoteNumber":70,"Velocity":79,"Duration":92879,"SoundDuration":92879,"Delta":18687002},{"NoteNumber":58,"Velocity":60,"Duration":92879,"SoundDuration":92879,"Delta":18687002},{"NoteNumber":70,"Velocity":76,"Duration":92879,"SoundDuration":92879,"Delta":18872760},{"NoteNumber":62,"Velocity":57,"Duration":92879,"SoundDuration":92879,"Delta":18872760},{"NoteNumber":75,"Velocity":85,"Duration":72727,"SoundDuration":72727,"Delta":19058519},{"NoteNumber":51,"Velocity":64,"Duration":181817,"SoundDuration":181817,"Delta":19058519},{"NoteNumber":77,"Velocity":72,"Duration":72727,"SoundDuration":72727,"Delta":19131246},{"NoteNumber":75,"Velocity":61,"Duration":72727,"SoundDuration":72727,"Delta":19203973},{"NoteNumber":60,"Velocity":55,"Duration":181817,"SoundDuration":181817,"Delta":19240337},{"NoteNumber":74,"Velocity":70,"Duration":72727,"SoundDuration":72727,"Delta":19276701},{"NoteNumber":75,"Velocity":72,"Duration":72727,"SoundDuration":72727,"Delta":19349428},{"NoteNumber":79,"Velocity":78,"Duration":363635,"SoundDuration":363635,"Delta":19422155},{"NoteNumber":55,"Velocity":59,"Duration":181817,"SoundDuration":181817,"Delta":19422155},{"NoteNumber":60,"Velocity":55,"Duration":181817,"SoundDuration":181817,"Delta":19603973},{"NoteNumber":69,"Velocity":82,"Duration":363635,"SoundDuration":363635,"Delta":19785791},{"NoteNumber":53,"Velocity":64,"Duration":181817,"SoundDuration":181817,"Delta":19785791},{"NoteNumber":63,"Velocity":55,"Duration":181817,"SoundDuration":181817,"Delta":19967609},{"NoteNumber":60,"Velocity":59,"Duration":185185,"SoundDuration":185185,"Delta":20149427},{"NoteNumber":81,"Velocity":77,"Duration":180723,"SoundDuration":180723,"Delta":20334612},{"NoteNumber":63,"Velocity":55,"Duration":180723,"SoundDuration":180723,"Delta":20334612},{"NoteNumber":82,"Velocity":85,"Duration":120481,"SoundDuration":120481,"Delta":20515335},{"NoteNumber":58,"Velocity":59,"Duration":722891,"SoundDuration":722891,"Delta":20515335},{"NoteNumber":50,"Velocity":59,"Duration":361446,"SoundDuration":361446,"Delta":20515335},{"NoteNumber":77,"Velocity":74,"Duration":120481,"SoundDuration":120481,"Delta":20635817},{"NoteNumber":74,"Velocity":72,"Duration":120482,"SoundDuration":120482,"Delta":20756299},{"NoteNumber":79,"Velocity":84,"Duration":120481,"SoundDuration":120481,"Delta":20876781},{"NoteNumber":51,"Velocity":55,"Duration":361445,"SoundDuration":361445,"Delta":20876781},{"NoteNumber":75,"Velocity":73,"Duration":120481,"SoundDuration":120481,"Delta":20997263},{"NoteNumber":72,"Velocity":74,"Duration":120481,"SoundDuration":120481,"Delta":21117745},{"NoteNumber":77,"Velocity":84,"Duration":120481,"SoundDuration":120481,"Delta":21238227},{"NoteNumber":62,"Velocity":59,"Duration":361992,"SoundDuration":361992,"Delta":21238227},{"NoteNumber":53,"Velocity":59,"Duration":726181,"SoundDuration":726181,"Delta":21238227},{"NoteNumber":74,"Velocity":75,"Duration":120664,"SoundDuration":120664,"Delta":21358709},{"NoteNumber":70,"Velocity":74,"Duration":120846,"SoundDuration":120846,"Delta":21479373},{"NoteNumber":75,"Velocity":84,"Duration":121211,"SoundDuration":121211,"Delta":21600219},{"NoteNumber":63,"Velocity":56,"Duration":364188,"SoundDuration":364188,"Delta":21600219},{"NoteNumber":72,"Velocity":74,"Duration":121396,"SoundDuration":121396,"Delta":21721431},{"NoteNumber":69,"Velocity":74,"Duration":121580,"SoundDuration":121580,"Delta":21842827},{"NoteNumber":70,"Velocity":83,"Duration":390879,"SoundDuration":390879,"Delta":21964408},{"NoteNumber":58,"Velocity":59,"Duration":390879,"SoundDuration":390879,"Delta":21964408},{"NoteNumber":62,"Velocity":59,"Duration":390879,"SoundDuration":390879,"Delta":21964408},{"NoteNumber":46,"Velocity":64,"Duration":385313,"SoundDuration":385313,"Delta":22355287},{"NoteNumber":65,"Velocity":53,"Duration":189873,"SoundDuration":189873,"Delta":22550727},{"NoteNumber":70,"Velocity":58,"Duration":94936,"SoundDuration":94936,"Delta":22740600},{"NoteNumber":69,"Velocity":53,"Duration":94936,"SoundDuration":94936,"Delta":22930473},{"NoteNumber":70,"Velocity":55,"Duration":94936,"SoundDuration":94936,"Delta":23120347},{"NoteNumber":72,"Velocity":53,"Duration":94936,"SoundDuration":94936,"Delta":23310221},{"NoteNumber":74,"Velocity":55,"Duration":99337,"SoundDuration":99337,"Delta":23500094},{"NoteNumber":74,"Velocity":56,"Duration":145631,"SoundDuration":145631,"Delta":23897445},{"NoteNumber":70,"Velocity":56,"Duration":145631,"SoundDuration":145631,"Delta":23897445},{"NoteNumber":58,"Velocity":48,"Duration":145631,"SoundDuration":145631,"Delta":23897445},{"NoteNumber":70,"Velocity":59,"Duration":388350,"SoundDuration":388350,"Delta":24285795},{"NoteNumber":74,"Velocity":59,"Duration":388350,"SoundDuration":388350,"Delta":24285795},{"NoteNumber":55,"Velocity":48,"Duration":388350,"SoundDuration":388350,"Delta":24285795},{"NoteNumber":75,"Velocity":55,"Duration":392157,"SoundDuration":392157,"Delta":24674145},{"NoteNumber":72,"Velocity":55,"Duration":392157,"SoundDuration":392157,"Delta":24674145},{"NoteNumber":51,"Velocity":45,"Duration":392157,"SoundDuration":392157,"Delta":24674145},{"NoteNumber":72,"Velocity":54,"Duration":392156,"SoundDuration":392156,"Delta":25066302},{"NoteNumber":69,"Velocity":54,"Duration":392156,"SoundDuration":392156,"Delta":25066302},{"NoteNumber":53,"Velocity":47,"Duration":392156,"SoundDuration":392156,"Delta":25066302},{"NoteNumber":41,"Velocity":55,"Duration":384166,"SoundDuration":384166,"Delta":25458459},{"NoteNumber":65,"Velocity":55,"Duration":188088,"SoundDuration":188088,"Delta":25654538},{"NoteNumber":72,"Velocity":57,"Duration":94044,"SoundDuration":94044,"Delta":25842626},{"NoteNumber":70,"Velocity":55,"Duration":94044,"SoundDuration":94044,"Delta":26030714},{"NoteNumber":72,"Velocity":56,"Duration":94936,"SoundDuration":94936,"Delta":26218802},{"NoteNumber":74,"Velocity":53,"Duration":94936,"SoundDuration":94936,"Delta":26408675},{"NoteNumber":75,"Velocity":56,"Duration":100334,"SoundDuration":100334,"Delta":26598549},{"NoteNumber":67,"Velocity":56,"Duration":144230,"SoundDuration":144230,"Delta":26999887},{"NoteNumber":75,"Velocity":56,"Duration":144230,"SoundDuration":144230,"Delta":26999887},{"NoteNumber":60,"Velocity":45,"Duration":144230,"SoundDuration":144230,"Delta":26999887},{"NoteNumber":72,"Velocity":58,"Duration":393443,"SoundDuration":393443,"Delta":27384502},{"NoteNumber":75,"Velocity":58,"Duration":393443,"SoundDuration":393443,"Delta":27384502},{"NoteNumber":57,"Velocity":45,"Duration":393443,"SoundDuration":393443,"Delta":27384502},{"NoteNumber":77,"Velocity":56,"Duration":393442,"SoundDuration":393442,"Delta":27777945},{"NoteNumber":69,"Velocity":56,"Duration":393442,"SoundDuration":393442,"Delta":27777945},{"NoteNumber":53,"Velocity":42,"Duration":393442,"SoundDuration":393442,"Delta":27777945},{"NoteNumber":70,"Velocity":54,"Duration":393443,"SoundDuration":393443,"Delta":28171388},{"NoteNumber":74,"Velocity":54,"Duration":393443,"SoundDuration":393443,"Delta":28171388},{"NoteNumber":58,"Velocity":46,"Duration":393443,"SoundDuration":393443,"Delta":28171388},{"NoteNumber":46,"Velocity":65,"Duration":383056,"SoundDuration":383056,"Delta":28564831},{"NoteNumber":70,"Velocity":73,"Duration":186335,"SoundDuration":186335,"Delta":28761552},{"NoteNumber":74,"Velocity":79,"Duration":92879,"SoundDuration":92879,"Delta":28947888},{"NoteNumber":72,"Velocity":72,"Duration":92688,"SoundDuration":92688,"Delta":29133646},{"NoteNumber":74,"Velocity":75,"Duration":92497,"SoundDuration":92497,"Delta":29318927},{"NoteNumber":76,"Velocity":72,"Duration":92307,"SoundDuration":92307,"Delta":29503732},{"NoteNumber":77,"Velocity":79,"Duration":367254,"SoundDuration":367254,"Delta":29688064},{"NoteNumber":57,"Velocity":53,"Duration":183392,"SoundDuration":183392,"Delta":29871926},{"NoteNumber":60,"Velocity":57,"Duration":181817,"SoundDuration":181817,"Delta":30055318},{"NoteNumber":77,"Velocity":77,"Duration":121211,"SoundDuration":121211,"Delta":30176530},{"NoteNumber":57,"Velocity":53,"Duration":181817,"SoundDuration":181817,"Delta":30237136},{"NoteNumber":79,"Velocity":79,"Duration":121211,"SoundDuration":121211,"Delta":30297742},{"NoteNumber":81,"Velocity":82,"Duration":121211,"SoundDuration":121211,"Delta":30418954},{"NoteNumber":65,"Velocity":67,"Duration":363635,"SoundDuration":363635,"Delta":30418954},{"NoteNumber":79,"Velocity":76,"Duration":121211,"SoundDuration":121211,"Delta":30540166},{"NoteNumber":77,"Velocity":76,"Duration":121211,"SoundDuration":121211,"Delta":30661378},{"NoteNumber":76,"Velocity":79,"Duration":121166,"SoundDuration":121166,"Delta":30782590},{"NoteNumber":74,"Velocity":77,"Duration":122138,"SoundDuration":122138,"Delta":30903757},{"NoteNumber":72,"Velocity":76,"Duration":123124,"SoundDuration":123124,"Delta":31025896},{"NoteNumber":70,"Velocity":75,"Duration":371517,"SoundDuration":371517,"Delta":31149020},{"NoteNumber":55,"Velocity":53,"Duration":185758,"SoundDuration":185758,"Delta":31334779},{"NoteNumber":58,"Velocity":58,"Duration":180723,"SoundDuration":180723,"Delta":31520537},{"NoteNumber":76,"Velocity":73,"Duration":120482,"SoundDuration":120482,"Delta":31641019},{"NoteNumber":55,"Velocity":54,"Duration":180723,"SoundDuration":180723,"Delta":31701260},{"NoteNumber":77,"Velocity":76,"Duration":120481,"SoundDuration":120481,"Delta":31761501},{"NoteNumber":79,"Velocity":80,"Duration":120482,"SoundDuration":120482,"Delta":31881983},{"NoteNumber":64,"Velocity":66,"Duration":361446,"SoundDuration":361446,"Delta":31881983},{"NoteNumber":77,"Velocity":79,"Duration":120481,"SoundDuration":120481,"Delta":32002465},{"NoteNumber":76,"Velocity":78,"Duration":120482,"SoundDuration":120482,"Delta":32122947},{"NoteNumber":74,"Velocity":77,"Duration":120255,"SoundDuration":120255,"Delta":32243429},{"NoteNumber":72,"Velocity":76,"Duration":120800,"SoundDuration":120800,"Delta":32363685},{"NoteNumber":70,"Velocity":75,"Duration":121396,"SoundDuration":121396,"Delta":32484486},{"NoteNumber":69,"Velocity":73,"Duration":92592,"SoundDuration":92592,"Delta":32605882},{"NoteNumber":65,"Velocity":69,"Duration":366102,"SoundDuration":366102,"Delta":32605882},{"NoteNumber":72,"Velocity":69,"Duration":91185,"SoundDuration":91185,"Delta":32698475},{"NoteNumber":70,"Velocity":71,"Duration":91185,"SoundDuration":91185,"Delta":32789660},{"NoteNumber":69,"Velocity":72,"Duration":91139,"SoundDuration":91139,"Delta":32880846},{"NoteNumber":70,"Velocity":74,"Duration":90908,"SoundDuration":90908,"Delta":32971985},{"NoteNumber":72,"Velocity":76,"Duration":90909,"SoundDuration":90909,"Delta":33062894},{"NoteNumber":74,"Velocity":77,"Duration":90771,"SoundDuration":90771,"Delta":33153803},{"NoteNumber":76,"Velocity":79,"Duration":90634,"SoundDuration":90634,"Delta":33244575},{"NoteNumber":77,"Velocity":81,"Duration":90634,"SoundDuration":90634,"Delta":33335209},{"NoteNumber":79,"Velocity":82,"Duration":90452,"SoundDuration":90452,"Delta":33425844},{"NoteNumber":81,"Velocity":84,"Duration":90361,"SoundDuration":90361,"Delta":33516296},{"NoteNumber":82,"Velocity":86,"Duration":90361,"SoundDuration":90361,"Delta":33606658},{"NoteNumber":84,"Velocity":87,"Duration":94936,"SoundDuration":94936,"Delta":33697019},{"NoteNumber":53,"Velocity":53,"Duration":375058,"SoundDuration":375058,"Delta":33697019},{"NoteNumber":69,"Velocity":59,"Duration":83333,"SoundDuration":83333,"Delta":33886893},{"NoteNumber":65,"Velocity":59,"Duration":83333,"SoundDuration":83333,"Delta":33886893},{"NoteNumber":69,"Velocity":56,"Duration":366971,"SoundDuration":366971,"Delta":34072078},{"NoteNumber":65,"Velocity":56,"Duration":366971,"SoundDuration":366971,"Delta":34072078},{"NoteNumber":48,"Velocity":53,"Duration":183486,"SoundDuration":183486,"Delta":34072078},{"NoteNumber":60,"Velocity":47,"Duration":183485,"SoundDuration":183485,"Delta":34255564},{"NoteNumber":67,"Velocity":52,"Duration":183486,"SoundDuration":183486,"Delta":34439050},{"NoteNumber":64,"Velocity":52,"Duration":183486,"SoundDuration":183486,"Delta":34439050},{"NoteNumber":59,"Velocity":49,"Duration":183486,"SoundDuration":183486,"Delta":34439050},{"NoteNumber":60,"Velocity":47,"Duration":188088,"SoundDuration":188088,"Delta":34622536},{"NoteNumber":79,"Velocity":76,"Duration":545453,"SoundDuration":545453,"Delta":34810624},{"NoteNumber":58,"Velocity":54,"Duration":181817,"SoundDuration":181817,"Delta":34810624},{"NoteNumber":60,"Velocity":50,"Duration":181817,"SoundDuration":181817,"Delta":34992442},{"NoteNumber":58,"Velocity":45,"Duration":181817,"SoundDuration":181817,"Delta":35174260},{"NoteNumber":76,"Velocity":60,"Duration":90909,"SoundDuration":90909,"Delta":35356078},{"NoteNumber":60,"Velocity":41,"Duration":181817,"SoundDuration":181817,"Delta":35356078},{"NoteNumber":72,"Velocity":60,"Duration":90908,"SoundDuration":90908,"Delta":35446987},{"NoteNumber":77,"Velocity":67,"Duration":371092,"SoundDuration":371092,"Delta":35537896},{"NoteNumber":57,"Velocity":48,"Duration":181817,"SoundDuration":181817,"Delta":35537896},{"NoteNumber":60,"Velocity":45,"Duration":189274,"SoundDuration":189274,"Delta":35719714},{"NoteNumber":78,"Velocity":70,"Duration":366971,"SoundDuration":366971,"Delta":35908988},{"NoteNumber":57,"Velocity":51,"Duration":183486,"SoundDuration":183486,"Delta":35908988},{"NoteNumber":60,"Velocity":47,"Duration":183485,"SoundDuration":183485,"Delta":36092474},{"NoteNumber":79,"Velocity":74,"Duration":545453,"SoundDuration":545453,"Delta":36275960},{"NoteNumber":58,"Velocity":53,"Duration":181817,"SoundDuration":181817,"Delta":36275960},{"NoteNumber":60,"Velocity":50,"Duration":181817,"SoundDuration":181817,"Delta":36457778},{"NoteNumber":58,"Velocity":47,"Duration":181817,"SoundDuration":181817,"Delta":36639596},{"NoteNumber":76,"Velocity":61,"Duration":90909,"SoundDuration":90909,"Delta":36821414},{"NoteNumber":60,"Velocity":43,"Duration":181817,"SoundDuration":181817,"Delta":36821414},{"NoteNumber":72,"Velocity":61,"Duration":90908,"SoundDuration":90908,"Delta":36912323},{"NoteNumber":77,"Velocity":65,"Duration":363635,"SoundDuration":363635,"Delta":37003232},{"NoteNumber":57,"Velocity":46,"Duration":181817,"SoundDuration":181817,"Delta":37003232},{"NoteNumber":60,"Velocity":36,"Duration":181817,"SoundDuration":181817,"Delta":37185050},{"NoteNumber":57,"Velocity":43,"Duration":181817,"SoundDuration":181817,"Delta":37366868},{"NoteNumber":60,"Velocity":36,"Duration":188653,"SoundDuration":188653,"Delta":37548686},{"NoteNumber":79,"Velocity":75,"Duration":90909,"SoundDuration":90909,"Delta":37737340},{"NoteNumber":58,"Velocity":56,"Duration":181817,"SoundDuration":181817,"Delta":37737340},{"NoteNumber":79,"Velocity":75,"Duration":363635,"SoundDuration":363635,"Delta":37919158},{"NoteNumber":60,"Velocity":55,"Duration":181817,"SoundDuration":181817,"Delta":37919158},{"NoteNumber":58,"Velocity":49,"Duration":181817,"SoundDuration":181817,"Delta":38100976},{"NoteNumber":76,"Velocity":61,"Duration":91743,"SoundDuration":91743,"Delta":38282794},{"NoteNumber":60,"Velocity":46,"Duration":183486,"SoundDuration":183486,"Delta":38282794},{"NoteNumber":72,"Velocity":61,"Duration":91743,"SoundDuration":91743,"Delta":38374537},{"NoteNumber":77,"Velocity":64,"Duration":91743,"SoundDuration":91743,"Delta":38466280},{"NoteNumber":57,"Velocity":48,"Duration":183485,"SoundDuration":183485,"Delta":38466280},{"NoteNumber":77,"Velocity":68,"Duration":91743,"SoundDuration":91743,"Delta":38649766},{"NoteNumber":60,"Velocity":45,"Duration":183486,"SoundDuration":183486,"Delta":38649766},{"NoteNumber":78,"Velocity":71,"Duration":91743,"SoundDuration":91743,"Delta":38833252},{"NoteNumber":57,"Velocity":50,"Duration":183206,"SoundDuration":183206,"Delta":38833252},{"NoteNumber":78,"Velocity":71,"Duration":91185,"SoundDuration":91185,"Delta":39016458},{"NoteNumber":60,"Velocity":47,"Duration":182094,"SoundDuration":182094,"Delta":39016458},{"NoteNumber":79,"Velocity":77,"Duration":90634,"SoundDuration":90634,"Delta":39198553},{"NoteNumber":58,"Velocity":53,"Duration":181269,"SoundDuration":181269,"Delta":39198553},{"NoteNumber":79,"Velocity":77,"Duration":362538,"SoundDuration":362538,"Delta":39379822},{"NoteNumber":60,"Velocity":50,"Duration":181269,"SoundDuration":181269,"Delta":39379822},{"NoteNumber":58,"Velocity":48,"Duration":181269,"SoundDuration":181269,"Delta":39561091},{"NoteNumber":76,"Velocity":60,"Duration":90634,"SoundDuration":90634,"Delta":39742360},{"NoteNumber":60,"Velocity":45,"Duration":181269,"SoundDuration":181269,"Delta":39742360},{"NoteNumber":72,"Velocity":62,"Duration":90634,"SoundDuration":90634,"Delta":39832994},{"NoteNumber":77,"Velocity":66,"Duration":363635,"SoundDuration":363635,"Delta":39923629},{"NoteNumber":57,"Velocity":53,"Duration":181817,"SoundDuration":181817,"Delta":39923629},{"NoteNumber":60,"Velocity":49,"Duration":181817,"SoundDuration":181817,"Delta":40105447},{"NoteNumber":57,"Velocity":53,"Duration":181817,"SoundDuration":181817,"Delta":40287265},{"NoteNumber":60,"Velocity":49,"Duration":181817,"SoundDuration":181817,"Delta":40469083},{"NoteNumber":78,"Velocity":69,"Duration":108244,"SoundDuration":108244,"Delta":40650901},{"NoteNumber":58,"Velocity":54,"Duration":180497,"SoundDuration":180497,"Delta":40650901},{"NoteNumber":79,"Velocity":70,"Duration":108343,"SoundDuration":108343,"Delta":40741127},{"NoteNumber":81,"Velocity":71,"Duration":108624,"SoundDuration":108624,"Delta":40831398},{"NoteNumber":60,"Velocity":48,"Duration":181224,"SoundDuration":181224,"Delta":40831398},{"NoteNumber":79,"Velocity":71,"Duration":108907,"SoundDuration":108907,"Delta":40921896},{"NoteNumber":77,"Velocity":72,"Duration":109238,"SoundDuration":109238,"Delta":41012622},{"NoteNumber":58,"Velocity":57,"Duration":182232,"SoundDuration":182232,"Delta":41012622},{"NoteNumber":76,"Velocity":73,"Duration":109524,"SoundDuration":109524,"Delta":41103623},{"NoteNumber":74,"Velocity":74,"Duration":109812,"SoundDuration":109812,"Delta":41194855},{"NoteNumber":60,"Velocity":52,"Duration":183206,"SoundDuration":183206,"Delta":41194855},{"NoteNumber":72,"Velocity":75,"Duration":110147,"SoundDuration":110147,"Delta":41286319},{"NoteNumber":77,"Velocity":80,"Duration":92024,"SoundDuration":92024,"Delta":41378062},{"NoteNumber":57,"Velocity":64,"Duration":366974,"SoundDuration":366974,"Delta":41378062},{"NoteNumber":72,"Velocity":76,"Duration":91836,"SoundDuration":91836,"Delta":41470086},{"NoteNumber":81,"Velocity":80,"Duration":91649,"SoundDuration":91649,"Delta":41561923},{"NoteNumber":77,"Velocity":76,"Duration":91463,"SoundDuration":91463,"Delta":41653573},{"NoteNumber":84,"Velocity":80,"Duration":91185,"SoundDuration":91185,"Delta":41745036},{"NoteNumber":81,"Velocity":76,"Duration":91001,"SoundDuration":91001,"Delta":41836222},{"NoteNumber":84,"Velocity":80,"Duration":90817,"SoundDuration":90817,"Delta":41927223},{"NoteNumber":81,"Velocity":75,"Duration":90634,"SoundDuration":90634,"Delta":42018040},{"NoteNumber":84,"Velocity":78,"Duration":108433,"SoundDuration":108433,"Delta":42108675},{"NoteNumber":82,"Velocity":78,"Duration":108533,"SoundDuration":108533,"Delta":42199036},{"NoteNumber":81,"Velocity":77,"Duration":108761,"SoundDuration":108761,"Delta":42289443},{"NoteNumber":79,"Velocity":76,"Duration":108999,"SoundDuration":108999,"Delta":42380078},{"NoteNumber":77,"Velocity":76,"Duration":109146,"SoundDuration":109146,"Delta":42470895},{"NoteNumber":65,"Velocity":71,"Duration":364882,"SoundDuration":364882,"Delta":42470895},{"NoteNumber":57,"Velocity":71,"Duration":364882,"SoundDuration":364882,"Delta":42470895},{"NoteNumber":75,"Velocity":76,"Duration":109422,"SoundDuration":109422,"Delta":42561804},{"NoteNumber":74,"Velocity":75,"Duration":109617,"SoundDuration":109617,"Delta":42652990},{"NoteNumber":72,"Velocity":75,"Duration":109812,"SoundDuration":109812,"Delta":42744314},{"NoteNumber":74,"Velocity":79,"Duration":91556,"SoundDuration":91556,"Delta":42835778},{"NoteNumber":58,"Velocity":81,"Duration":365022,"SoundDuration":365022,"Delta":42835778},{"NoteNumber":65,"Velocity":81,"Duration":365022,"SoundDuration":365022,"Delta":42835778},{"NoteNumber":70,"Velocity":74,"Duration":91370,"SoundDuration":91370,"Delta":42927335},{"NoteNumber":77,"Velocity":81,"Duration":91185,"SoundDuration":91185,"Delta":43018705},{"NoteNumber":74,"Velocity":75,"Duration":90909,"SoundDuration":90909,"Delta":43109891},{"NoteNumber":82,"Velocity":84,"Duration":90680,"SoundDuration":90680,"Delta":43200800},{"NoteNumber":77,"Velocity":79,"Duration":90498,"SoundDuration":90498,"Delta":43291480},{"NoteNumber":86,"Velocity":82,"Duration":90316,"SoundDuration":90316,"Delta":43381978},{"NoteNumber":82,"Velocity":80,"Duration":90090,"SoundDuration":90090,"Delta":43472294},{"NoteNumber":86,"Velocity":78,"Duration":107784,"SoundDuration":107784,"Delta":43562384},{"NoteNumber":84,"Velocity":76,"Duration":107838,"SoundDuration":107838,"Delta":43652205},{"NoteNumber":82,"Velocity":75,"Duration":108108,"SoundDuration":108108,"Delta":43742025},{"NoteNumber":81,"Velocity":73,"Duration":108162,"SoundDuration":108162,"Delta":43832115},{"NoteNumber":79,"Velocity":72,"Duration":108433,"SoundDuration":108433,"Delta":43922205},{"NoteNumber":65,"Velocity":51,"Duration":361992,"SoundDuration":361992,"Delta":43922205},{"NoteNumber":67,"Velocity":51,"Duration":361992,"SoundDuration":361992,"Delta":43922205},{"NoteNumber":58,"Velocity":51,"Duration":361992,"SoundDuration":361992,"Delta":43922205},{"NoteNumber":77,"Velocity":69,"Duration":108488,"SoundDuration":108488,"Delta":44012566},{"NoteNumber":76,"Velocity":67,"Duration":108761,"SoundDuration":108761,"Delta":44102928},{"NoteNumber":74,"Velocity":65,"Duration":108816,"SoundDuration":108816,"Delta":44193562},{"NoteNumber":72,"Velocity":63,"Duration":727271,"SoundDuration":727271,"Delta":44284197},{"NoteNumber":60,"Velocity":55,"Duration":181817,"SoundDuration":181817,"Delta":44284197},{"NoteNumber":69,"Velocity":51,"Duration":181817,"SoundDuration":181817,"Delta":44466015},{"NoteNumber":65,"Velocity":56,"Duration":181817,"SoundDuration":181817,"Delta":44647833},{"NoteNumber":69,"Velocity":51,"Duration":181817,"SoundDuration":181817,"Delta":44829651},{"NoteNumber":79,"Velocity":67,"Duration":60605,"SoundDuration":60605,"Delta":45011469},{"NoteNumber":60,"Velocity":55,"Duration":181817,"SoundDuration":181817,"Delta":45011469},{"NoteNumber":81,"Velocity":61,"Duration":60605,"SoundDuration":60605,"Delta":45072075},{"NoteNumber":79,"Velocity":59,"Duration":60605,"SoundDuration":60605,"Delta":45132681},{"NoteNumber":81,"Velocity":67,"Duration":60605,"SoundDuration":60605,"Delta":45193287},{"NoteNumber":70,"Velocity":49,"Duration":181817,"SoundDuration":181817,"Delta":45193287},{"NoteNumber":79,"Velocity":59,"Duration":60605,"SoundDuration":60605,"Delta":45253893},{"NoteNumber":81,"Velocity":59,"Duration":60605,"SoundDuration":60605,"Delta":45314499},{"NoteNumber":79,"Velocity":61,"Duration":60605,"SoundDuration":60605,"Delta":45375105},{"NoteNumber":64,"Velocity":55,"Duration":181817,"SoundDuration":181817,"Delta":45375105},{"NoteNumber":81,"Velocity":67,"Duration":60605,"SoundDuration":60605,"Delta":45435711},{"NoteNumber":79,"Velocity":67,"Duration":60605,"SoundDuration":60605,"Delta":45496317},{"NoteNumber":77,"Velocity":69,"Duration":90909,"SoundDuration":90909,"Delta":45556923},{"NoteNumber":70,"Velocity":49,"Duration":181817,"SoundDuration":181817,"Delta":45556923},{"NoteNumber":79,"Velocity":70,"Duration":90908,"SoundDuration":90908,"Delta":45647832},{"NoteNumber":81,"Velocity":72,"Duration":91278,"SoundDuration":91278,"Delta":45738741},{"NoteNumber":65,"Velocity":55,"Duration":363001,"SoundDuration":363001,"Delta":45738741},{"NoteNumber":82,"Velocity":74,"Duration":90863,"SoundDuration":90863,"Delta":45830019},{"NoteNumber":84,"Velocity":74,"Duration":90361,"SoundDuration":90361,"Delta":45920883},{"NoteNumber":82,"Velocity":72,"Duration":90497,"SoundDuration":90497,"Delta":46011244},{"NoteNumber":81,"Velocity":71,"Duration":90634,"SoundDuration":90634,"Delta":46101742},{"NoteNumber":79,"Velocity":70,"Duration":90909,"SoundDuration":90909,"Delta":46192377},{"NoteNumber":77,"Velocity":68,"Duration":91047,"SoundDuration":91047,"Delta":46283286},{"NoteNumber":67,"Velocity":61,"Duration":182232,"SoundDuration":182232,"Delta":46283286},{"NoteNumber":76,"Velocity":67,"Duration":91185,"SoundDuration":91185,"Delta":46374333},{"NoteNumber":77,"Velocity":69,"Duration":91278,"SoundDuration":91278,"Delta":46465519},{"NoteNumber":69,"Velocity":66,"Duration":362229,"SoundDuration":362229,"Delta":46465519},{"NoteNumber":79,"Velocity":71,"Duration":90634,"SoundDuration":90634,"Delta":46556797},{"NoteNumber":81,"Velocity":72,"Duration":90089,"SoundDuration":90089,"Delta":46647432},{"NoteNumber":79,"Velocity":70,"Duration":90225,"SoundDuration":90225,"Delta":46737522},{"NoteNumber":77,"Velocity":69,"Duration":90361,"SoundDuration":90361,"Delta":46827748},{"NoteNumber":75,"Velocity":69,"Duration":90634,"SoundDuration":90634,"Delta":46918109},{"NoteNumber":74,"Velocity":68,"Duration":90771,"SoundDuration":90771,"Delta":47008744},{"NoteNumber":57,"Velocity":60,"Duration":181680,"SoundDuration":181680,"Delta":47008744},{"NoteNumber":73,"Velocity":67,"Duration":90909,"SoundDuration":90909,"Delta":47099516},{"NoteNumber":74,"Velocity":67,"Duration":90634,"SoundDuration":90634,"Delta":47190425},{"NoteNumber":58,"Velocity":66,"Duration":361356,"SoundDuration":361356,"Delta":47190425},{"NoteNumber":76,"Velocity":70,"Duration":90361,"SoundDuration":90361,"Delta":47281059},{"NoteNumber":77,"Velocity":72,"Duration":90090,"SoundDuration":90090,"Delta":47371421},{"NoteNumber":76,"Velocity":71,"Duration":90270,"SoundDuration":90270,"Delta":47461511},{"NoteNumber":74,"Velocity":70,"Duration":90497,"SoundDuration":90497,"Delta":47551782},{"NoteNumber":72,"Velocity":69,"Duration":90726,"SoundDuration":90726,"Delta":47642280},{"NoteNumber":70,"Velocity":68,"Duration":90955,"SoundDuration":90955,"Delta":47733006},{"NoteNumber":69,"Velocity":68,"Duration":91185,"SoundDuration":91185,"Delta":47823961},{"NoteNumber":67,"Velocity":67,"Duration":91324,"SoundDuration":91324,"Delta":47915146},{"NoteNumber":34,"Velocity":67,"Duration":363274,"SoundDuration":363274,"Delta":47915146},{"NoteNumber":46,"Velocity":67,"Duration":363274,"SoundDuration":363274,"Delta":47915146},{"NoteNumber":69,"Velocity":68,"Duration":90771,"SoundDuration":90771,"Delta":48006471},{"NoteNumber":70,"Velocity":69,"Duration":90406,"SoundDuration":90406,"Delta":48097242},{"NoteNumber":69,"Velocity":68,"Duration":90771,"SoundDuration":90771,"Delta":48187649},{"NoteNumber":67,"Velocity":66,"Duration":91093,"SoundDuration":91093,"Delta":48278421},{"NoteNumber":65,"Velocity":65,"Duration":91510,"SoundDuration":91510,"Delta":48369514},{"NoteNumber":64,"Velocity":63,"Duration":91883,"SoundDuration":91883,"Delta":48461025},{"NoteNumber":62,"Velocity":61,"Duration":92260,"SoundDuration":92260,"Delta":48552908},{"NoteNumber":60,"Velocity":60,"Duration":182371,"SoundDuration":182371,"Delta":48645169},{"NoteNumber":48,"Velocity":57,"Duration":182371,"SoundDuration":182371,"Delta":48645169},{"NoteNumber":62,"Velocity":60,"Duration":90909,"SoundDuration":90909,"Delta":48827540},{"NoteNumber":57,"Velocity":54,"Duration":181817,"SoundDuration":181817,"Delta":48827540},{"NoteNumber":64,"Velocity":61,"Duration":90908,"SoundDuration":90908,"Delta":48918449},{"NoteNumber":65,"Velocity":62,"Duration":90634,"SoundDuration":90634,"Delta":49009358},{"NoteNumber":53,"Velocity":57,"Duration":181269,"SoundDuration":181269,"Delta":49009358},{"NoteNumber":67,"Velocity":64,"Duration":90634,"SoundDuration":90634,"Delta":49099993},{"NoteNumber":69,"Velocity":65,"Duration":90361,"SoundDuration":90361,"Delta":49190627},{"NoteNumber":57,"Velocity":54,"Duration":180723,"SoundDuration":180723,"Delta":49190627},{"NoteNumber":70,"Velocity":66,"Duration":90361,"SoundDuration":90361,"Delta":49280989},{"NoteNumber":72,"Velocity":67,"Duration":90090,"SoundDuration":90090,"Delta":49371350},{"NoteNumber":48,"Velocity":63,"Duration":180180,"SoundDuration":180180,"Delta":49371350},{"NoteNumber":74,"Velocity":69,"Duration":90089,"SoundDuration":90089,"Delta":49461440},{"NoteNumber":76,"Velocity":70,"Duration":89820,"SoundDuration":89820,"Delta":49551530},{"NoteNumber":57,"Velocity":57,"Duration":179640,"SoundDuration":179640,"Delta":49551530},{"NoteNumber":77,"Velocity":71,"Duration":89820,"SoundDuration":89820,"Delta":49641350},{"NoteNumber":79,"Velocity":73,"Duration":89552,"SoundDuration":89552,"Delta":49731171},{"NoteNumber":53,"Velocity":67,"Duration":179104,"SoundDuration":179104,"Delta":49731171},{"NoteNumber":81,"Velocity":74,"Duration":89552,"SoundDuration":89552,"Delta":49820723},{"NoteNumber":82,"Velocity":75,"Duration":89285,"SoundDuration":89285,"Delta":49910275},{"NoteNumber":57,"Velocity":61,"Duration":182388,"SoundDuration":182388,"Delta":49910275},{"NoteNumber":84,"Velocity":77,"Duration":93102,"SoundDuration":93102,"Delta":49999561},{"NoteNumber":77,"Velocity":71,"Duration":64830,"SoundDuration":64830,"Delta":50092664},{"NoteNumber":48,"Velocity":57,"Duration":191573,"SoundDuration":191573,"Delta":50092664},{"NoteNumber":79,"Velocity":64,"Duration":63848,"SoundDuration":63848,"Delta":50157494},{"NoteNumber":81,"Velocity":58,"Duration":62894,"SoundDuration":62894,"Delta":50221343},{"NoteNumber":79,"Velocity":64,"Duration":61899,"SoundDuration":61899,"Delta":50284237},{"NoteNumber":58,"Velocity":53,"Duration":184985,"SoundDuration":184985,"Delta":50284237},{"NoteNumber":81,"Velocity":58,"Duration":61762,"SoundDuration":61762,"Delta":50346137},{"NoteNumber":79,"Velocity":65,"Duration":61323,"SoundDuration":61323,"Delta":50407899},{"NoteNumber":81,"Velocity":62,"Duration":62013,"SoundDuration":62013,"Delta":50469222},{"NoteNumber":52,"Velocity":57,"Duration":182839,"SoundDuration":182839,"Delta":50469222},{"NoteNumber":79,"Velocity":67,"Duration":60410,"SoundDuration":60410,"Delta":50531236},{"NoteNumber":81,"Velocity":61,"Duration":60414,"SoundDuration":60414,"Delta":50591647},{"NoteNumber":79,"Velocity":68,"Duration":60416,"SoundDuration":60416,"Delta":50652062},{"NoteNumber":58,"Velocity":53,"Duration":180945,"SoundDuration":180945,"Delta":50652062},{"NoteNumber":81,"Velocity":61,"Duration":60151,"SoundDuration":60151,"Delta":50712478},{"NoteNumber":79,"Velocity":69,"Duration":60377,"SoundDuration":60377,"Delta":50772629},{"NoteNumber":81,"Velocity":64,"Duration":60240,"SoundDuration":60240,"Delta":50833007},{"NoteNumber":48,"Velocity":57,"Duration":181178,"SoundDuration":181178,"Delta":50833007},{"NoteNumber":79,"Velocity":70,"Duration":60377,"SoundDuration":60377,"Delta":50893248},{"NoteNumber":81,"Velocity":64,"Duration":60560,"SoundDuration":60560,"Delta":50953625},{"NoteNumber":79,"Velocity":70,"Duration":60698,"SoundDuration":60698,"Delta":51014186},{"NoteNumber":58,"Velocity":53,"Duration":182522,"SoundDuration":182522,"Delta":51014186},{"NoteNumber":81,"Velocity":66,"Duration":60813,"SoundDuration":60813,"Delta":51074884},{"NoteNumber":79,"Velocity":69,"Duration":61011,"SoundDuration":61011,"Delta":51135697},{"NoteNumber":81,"Velocity":72,"Duration":91967,"SoundDuration":91967,"Delta":51196709},{"NoteNumber":52,"Velocity":57,"Duration":184381,"SoundDuration":184381,"Delta":51196709},{"NoteNumber":79,"Velocity":72,"Duration":92413,"SoundDuration":92413,"Delta":51288676},{"NoteNumber":77,"Velocity":73,"Duration":93234,"SoundDuration":93234,"Delta":51381090},{"NoteNumber":58,"Velocity":52,"Duration":191274,"SoundDuration":191274,"Delta":51381090},{"NoteNumber":79,"Velocity":70,"Duration":98039,"SoundDuration":98039,"Delta":51474325},{"NoteNumber":77,"Velocity":76,"Duration":90909,"SoundDuration":90909,"Delta":51572364},{"NoteNumber":53,"Velocity":57,"Duration":90909,"SoundDuration":90909,"Delta":51572364},{"NoteNumber":57,"Velocity":57,"Duration":90909,"SoundDuration":90909,"Delta":51572364},{"NoteNumber":77,"Velocity":72,"Duration":90909,"SoundDuration":90909,"Delta":51754182},{"NoteNumber":57,"Velocity":47,"Duration":363635,"SoundDuration":363635,"Delta":51936000},{"NoteNumber":53,"Velocity":47,"Duration":363635,"SoundDuration":363635,"Delta":51936000},{"NoteNumber":77,"Velocity":55,"Duration":90909,"SoundDuration":90909,"Delta":52117818},{"NoteNumber":77,"Velocity":57,"Duration":90909,"SoundDuration":90909,"Delta":52299636},{"NoteNumber":77,"Velocity":54,"Duration":90909,"SoundDuration":90909,"Delta":52481454},{"NoteNumber":57,"Velocity":47,"Duration":363635,"SoundDuration":363635,"Delta":52663272},{"NoteNumber":53,"Velocity":47,"Duration":363635,"SoundDuration":363635,"Delta":52663272},{"NoteNumber":77,"Velocity":55,"Duration":90909,"SoundDuration":90909,"Delta":52845090},{"NoteNumber":77,"Velocity":57,"Duration":90909,"SoundDuration":90909,"Delta":53026908},{"NoteNumber":55,"Velocity":50,"Duration":90909,"SoundDuration":90909,"Delta":53026908},{"NoteNumber":58,"Velocity":50,"Duration":90909,"SoundDuration":90909,"Delta":53026908},{"NoteNumber":53,"Velocity":50,"Duration":90909,"SoundDuration":90909,"Delta":53026908},{"NoteNumber":77,"Velocity":53,"Duration":90909,"SoundDuration":90909,"Delta":53208726},{"NoteNumber":53,"Velocity":50,"Duration":363635,"SoundDuration":363635,"Delta":53390544},{"NoteNumber":55,"Velocity":50,"Duration":363635,"SoundDuration":363635,"Delta":53390544},{"NoteNumber":58,"Velocity":50,"Duration":363635,"SoundDuration":363635,"Delta":53390544},{"NoteNumber":77,"Velocity":60,"Duration":90909,"SoundDuration":90909,"Delta":53572362},{"NoteNumber":77,"Velocity":64,"Duration":90909,"SoundDuration":90909,"Delta":53754180},{"NoteNumber":77,"Velocity":60,"Duration":90909,"SoundDuration":90909,"Delta":53935998},{"NoteNumber":53,"Velocity":54,"Duration":363635,"SoundDuration":363635,"Delta":54117816},{"NoteNumber":56,"Velocity":54,"Duration":363635,"SoundDuration":363635,"Delta":54117816},{"NoteNumber":59,"Velocity":54,"Duration":363635,"SoundDuration":363635,"Delta":54117816},{"NoteNumber":77,"Velocity":69,"Duration":90909,"SoundDuration":90909,"Delta":54299634},{"NoteNumber":77,"Velocity":72,"Duration":90634,"SoundDuration":90634,"Delta":54481452},{"NoteNumber":53,"Velocity":55,"Duration":732204,"SoundDuration":732204,"Delta":54481452},{"NoteNumber":60,"Velocity":55,"Duration":364008,"SoundDuration":364008,"Delta":54481452},{"NoteNumber":57,"Velocity":55,"Duration":364008,"SoundDuration":364008,"Delta":54481452},{"NoteNumber":77,"Velocity":69,"Duration":91139,"SoundDuration":91139,"Delta":54662950},{"NoteNumber":57,"Velocity":61,"Duration":368196,"SoundDuration":368196,"Delta":54845460},{"NoteNumber":61,"Velocity":61,"Duration":368196,"SoundDuration":368196,"Delta":54845460},{"NoteNumber":77,"Velocity":79,"Duration":92166,"SoundDuration":92166,"Delta":55029041},{"NoteNumber":77,"Velocity":82,"Duration":92688,"SoundDuration":92688,"Delta":55213657},{"NoteNumber":58,"Velocity":66,"Duration":372434,"SoundDuration":372434,"Delta":55213657},{"NoteNumber":62,"Velocity":66,"Duration":372434,"SoundDuration":372434,"Delta":55213657},{"NoteNumber":53,"Velocity":66,"Duration":749254,"SoundDuration":749254,"Delta":55213657},{"NoteNumber":77,"Velocity":78,"Duration":93264,"SoundDuration":93264,"Delta":55399320},{"NoteNumber":59,"Velocity":71,"Duration":376819,"SoundDuration":376819,"Delta":55586092},{"NoteNumber":62,"Velocity":71,"Duration":376819,"SoundDuration":376819,"Delta":55586092},{"NoteNumber":77,"Velocity":80,"Duration":94339,"SoundDuration":94339,"Delta":55773935},{"NoteNumber":77,"Velocity":86,"Duration":182371,"SoundDuration":182371,"Delta":55962911},{"NoteNumber":60,"Velocity":77,"Duration":1458967,"SoundDuration":1458967,"Delta":55962911},{"NoteNumber":53,"Velocity":77,"Duration":1458967,"SoundDuration":1458967,"Delta":55962911},{"NoteNumber":63,"Velocity":77,"Duration":1458967,"SoundDuration":1458967,"Delta":55962911},{"NoteNumber":81,"Velocity":81,"Duration":91185,"SoundDuration":91185,"Delta":56145282},{"NoteNumber":81,"Velocity":86,"Duration":182371,"SoundDuration":182371,"Delta":56327653},{"NoteNumber":84,"Velocity":81,"Duration":91185,"SoundDuration":91185,"Delta":56510024},{"NoteNumber":84,"Velocity":86,"Duration":182371,"SoundDuration":182371,"Delta":56692395},{"NoteNumber":87,"Velocity":81,"Duration":91185,"SoundDuration":91185,"Delta":56874766},{"NoteNumber":87,"Velocity":86,"Duration":182371,"SoundDuration":182371,"Delta":57057137},{"NoteNumber":84,"Velocity":75,"Duration":91185,"SoundDuration":91185,"Delta":57239508},{"NoteNumber":84,"Velocity":81,"Duration":183486,"SoundDuration":183486,"Delta":57421879},{"NoteNumber":81,"Velocity":73,"Duration":91743,"SoundDuration":91743,"Delta":57605365},{"NoteNumber":81,"Velocity":79,"Duration":183486,"SoundDuration":183486,"Delta":57788851},{"NoteNumber":77,"Velocity":71,"Duration":91743,"SoundDuration":91743,"Delta":57972337},{"NoteNumber":77,"Velocity":68,"Duration":189777,"SoundDuration":189777,"Delta":58155823},{"NoteNumber":76,"Velocity":57,"Duration":95949,"SoundDuration":95949,"Delta":58345600},{"NoteNumber":76,"Velocity":57,"Duration":195709,"SoundDuration":195709,"Delta":58538272},{"NoteNumber":77,"Velocity":57,"Duration":124481,"SoundDuration":124481,"Delta":58733982},{"NoteNumber":77,"Velocity":67,"Duration":545453,"SoundDuration":545453,"Delta":58983702},{"NoteNumber":58,"Velocity":45,"Duration":363635,"SoundDuration":363635,"Delta":59346581},{"NoteNumber":74,"Velocity":53,"Duration":181817,"SoundDuration":181817,"Delta":59528399},{"NoteNumber":70,"Velocity":55,"Duration":90909,"SoundDuration":90909,"Delta":59710217},{"NoteNumber":62,"Velocity":48,"Duration":90909,"SoundDuration":90909,"Delta":59710217},{"NoteNumber":70,"Velocity":53,"Duration":94339,"SoundDuration":94339,"Delta":60073853},{"NoteNumber":67,"Velocity":46,"Duration":94339,"SoundDuration":94339,"Delta":60073853},{"NoteNumber":75,"Velocity":60,"Duration":363635,"SoundDuration":363635,"Delta":60451211},{"NoteNumber":60,"Velocity":52,"Duration":363635,"SoundDuration":363635,"Delta":60451211},{"NoteNumber":79,"Velocity":55,"Duration":90909,"SoundDuration":90909,"Delta":60814847},{"NoteNumber":63,"Velocity":46,"Duration":90909,"SoundDuration":90909,"Delta":60814847},{"NoteNumber":69,"Velocity":57,"Duration":366971,"SoundDuration":366971,"Delta":61178483},{"NoteNumber":65,"Velocity":48,"Duration":366971,"SoundDuration":366971,"Delta":61178483},{"NoteNumber":63,"Velocity":46,"Duration":366972,"SoundDuration":366972,"Delta":61545455},{"NoteNumber":72,"Velocity":55,"Duration":181817,"SoundDuration":181817,"Delta":61912427},{"NoteNumber":62,"Velocity":53,"Duration":363635,"SoundDuration":363635,"Delta":61912427},{"NoteNumber":70,"Velocity":53,"Duration":90909,"SoundDuration":90909,"Delta":62094245},{"NoteNumber":74,"Velocity":57,"Duration":181817,"SoundDuration":181817,"Delta":62276063},{"NoteNumber":57,"Velocity":47,"Duration":363635,"SoundDuration":363635,"Delta":62276063},{"NoteNumber":72,"Velocity":54,"Duration":90909,"SoundDuration":90909,"Delta":62457881},{"NoteNumber":75,"Velocity":58,"Duration":181817,"SoundDuration":181817,"Delta":62639699},{"NoteNumber":58,"Velocity":51,"Duration":363635,"SoundDuration":363635,"Delta":62639699},{"NoteNumber":74,"Velocity":56,"Duration":90909,"SoundDuration":90909,"Delta":62821517},{"NoteNumber":77,"Velocity":60,"Duration":184615,"SoundDuration":184615,"Delta":63003335},{"NoteNumber":60,"Velocity":49,"Duration":369230,"SoundDuration":369230,"Delta":63003335},{"NoteNumber":51,"Velocity":49,"Duration":369230,"SoundDuration":369230,"Delta":63003335},{"NoteNumber":75,"Velocity":57,"Duration":92307,"SoundDuration":92307,"Delta":63187950},{"NoteNumber":74,"Velocity":60,"Duration":548780,"SoundDuration":548780,"Delta":63372566},{"NoteNumber":53,"Velocity":52,"Duration":1102687,"SoundDuration":1102687,"Delta":63372566},{"NoteNumber":58,"Velocity":52,"Duration":731707,"SoundDuration":731707,"Delta":63372566},{"NoteNumber":75,"Velocity":57,"Duration":91463,"SoundDuration":91463,"Delta":63921347},{"NoteNumber":74,"Velocity":57,"Duration":91463,"SoundDuration":91463,"Delta":64012810},{"NoteNumber":72,"Velocity":52,"Duration":182927,"SoundDuration":182927,"Delta":64104274},{"NoteNumber":57,"Velocity":47,"Duration":370979,"SoundDuration":370979,"Delta":64104274},{"NoteNumber":74,"Velocity":54,"Duration":188052,"SoundDuration":188052,"Delta":64287201},{"NoteNumber":75,"Velocity":55,"Duration":190125,"SoundDuration":190125,"Delta":64475253},{"NoteNumber":76,"Velocity":57,"Duration":191848,"SoundDuration":191848,"Delta":64665379},{"NoteNumber":77,"Velocity":59,"Duration":545454,"SoundDuration":545454,"Delta":64857227},{"NoteNumber":58,"Velocity":41,"Duration":363635,"SoundDuration":363635,"Delta":65220863},{"NoteNumber":75,"Velocity":53,"Duration":60605,"SoundDuration":60605,"Delta":65402681},{"NoteNumber":74,"Velocity":53,"Duration":60606,"SoundDuration":60606,"Delta":65463287},{"NoteNumber":72,"Velocity":53,"Duration":60605,"SoundDuration":60605,"Delta":65523893},{"NoteNumber":70,"Velocity":56,"Duration":90090,"SoundDuration":90090,"Delta":65584499},{"NoteNumber":62,"Velocity":47,"Duration":90090,"SoundDuration":90090,"Delta":65584499},{"NoteNumber":70,"Velocity":56,"Duration":92879,"SoundDuration":92879,"Delta":65944859},{"NoteNumber":67,"Velocity":45,"Duration":92879,"SoundDuration":92879,"Delta":65944859},{"NoteNumber":75,"Velocity":60,"Duration":363635,"SoundDuration":363635,"Delta":66316376},{"NoteNumber":60,"Velocity":51,"Duration":363635,"SoundDuration":363635,"Delta":66316376},{"NoteNumber":79,"Velocity":55,"Duration":90908,"SoundDuration":90908,"Delta":66680012},{"NoteNumber":63,"Velocity":47,"Duration":90908,"SoundDuration":90908,"Delta":66680012},{"NoteNumber":69,"Velocity":58,"Duration":363635,"SoundDuration":363635,"Delta":67043648},{"NoteNumber":65,"Velocity":48,"Duration":363635,"SoundDuration":363635,"Delta":67043648},{"NoteNumber":63,"Velocity":45,"Duration":363635,"SoundDuration":363635,"Delta":67407284},{"NoteNumber":69,"Velocity":54,"Duration":181817,"SoundDuration":181817,"Delta":67589102},{"NoteNumber":70,"Velocity":58,"Duration":181360,"SoundDuration":181360,"Delta":67770920},{"NoteNumber":62,"Velocity":51,"Duration":363408,"SoundDuration":363408,"Delta":67770920},{"NoteNumber":74,"Velocity":55,"Duration":90908,"SoundDuration":90908,"Delta":67952281},{"NoteNumber":67,"Velocity":58,"Duration":182741,"SoundDuration":182741,"Delta":68134329},{"NoteNumber":63,"Velocity":47,"Duration":366274,"SoundDuration":366274,"Delta":68134329},{"NoteNumber":51,"Velocity":47,"Duration":366274,"SoundDuration":366274,"Delta":68134329},{"NoteNumber":72,"Velocity":55,"Duration":91696,"SoundDuration":91696,"Delta":68317071},{"NoteNumber":70,"Velocity":58,"Duration":375000,"SoundDuration":375000,"Delta":68500604},{"NoteNumber":53,"Velocity":50,"Duration":750000,"SoundDuration":750000,"Delta":68500604},{"NoteNumber":62,"Velocity":50,"Duration":375000,"SoundDuration":375000,"Delta":68500604},{"NoteNumber":69,"Velocity":55,"Duration":375000,"SoundDuration":375000,"Delta":68875604},{"NoteNumber":60,"Velocity":48,"Duration":375000,"SoundDuration":375000,"Delta":68875604},{"NoteNumber":70,"Velocity":58,"Duration":187500,"SoundDuration":187500,"Delta":69250604},{"NoteNumber":58,"Velocity":51,"Duration":370288,"SoundDuration":370288,"Delta":69250604},{"NoteNumber":65,"Velocity":56,"Duration":91463,"SoundDuration":91463,"Delta":69438104},{"NoteNumber":67,"Velocity":60,"Duration":91185,"SoundDuration":91185,"Delta":69620892},{"NoteNumber":69,"Velocity":63,"Duration":90771,"SoundDuration":90771,"Delta":69802986},{"NoteNumber":70,"Velocity":67,"Duration":90361,"SoundDuration":90361,"Delta":69984393},{"NoteNumber":72,"Velocity":70,"Duration":90090,"SoundDuration":90090,"Delta":70164980},{"NoteNumber":74,"Velocity":74,"Duration":89686,"SoundDuration":89686,"Delta":70344890},{"NoteNumber":75,"Velocity":77,"Duration":95846,"SoundDuration":95846,"Delta":70524084},{"NoteNumber":58,"Velocity":64,"Duration":181818,"SoundDuration":181818,"Delta":70715778},{"NoteNumber":77,"Velocity":85,"Duration":545454,"SoundDuration":545454,"Delta":70716535},{"NoteNumber":65,"Velocity":54,"Duration":181817,"SoundDuration":181817,"Delta":70897596},{"NoteNumber":62,"Velocity":59,"Duration":181818,"SoundDuration":181818,"Delta":71079414},{"NoteNumber":74,"Velocity":74,"Duration":181817,"SoundDuration":181817,"Delta":71261232},{"NoteNumber":65,"Velocity":54,"Duration":181817,"SoundDuration":181817,"Delta":71261232},{"NoteNumber":70,"Velocity":78,"Duration":181818,"SoundDuration":181818,"Delta":71443050},{"NoteNumber":55,"Velocity":63,"Duration":181818,"SoundDuration":181818,"Delta":71443050},{"NoteNumber":62,"Velocity":55,"Duration":181817,"SoundDuration":181817,"Delta":71624868},{"NoteNumber":70,"Velocity":78,"Duration":185185,"SoundDuration":185185,"Delta":71806686},{"NoteNumber":58,"Velocity":59,"Duration":185185,"SoundDuration":185185,"Delta":71806686},{"NoteNumber":62,"Velocity":55,"Duration":185184,"SoundDuration":185184,"Delta":71991871},{"NoteNumber":75,"Velocity":85,"Duration":72727,"SoundDuration":72727,"Delta":72177056},{"NoteNumber":51,"Velocity":64,"Duration":181818,"SoundDuration":181818,"Delta":72177056},{"NoteNumber":77,"Velocity":61,"Duration":72727,"SoundDuration":72727,"Delta":72249783},{"NoteNumber":75,"Velocity":61,"Duration":72727,"SoundDuration":72727,"Delta":72322510},{"NoteNumber":60,"Velocity":56,"Duration":181817,"SoundDuration":181817,"Delta":72358874},{"NoteNumber":74,"Velocity":61,"Duration":72727,"SoundDuration":72727,"Delta":72395237},{"NoteNumber":75,"Velocity":61,"Duration":72727,"SoundDuration":72727,"Delta":72467965},{"NoteNumber":79,"Velocity":78,"Duration":363635,"SoundDuration":363635,"Delta":72540692},{"NoteNumber":55,"Velocity":59,"Duration":181818,"SoundDuration":181818,"Delta":72540692},{"NoteNumber":60,"Velocity":55,"Duration":181817,"SoundDuration":181817,"Delta":72722510},{"NoteNumber":69,"Velocity":81,"Duration":366972,"SoundDuration":366972,"Delta":72904328},{"NoteNumber":53,"Velocity":64,"Duration":183486,"SoundDuration":183486,"Delta":72904328},{"NoteNumber":63,"Velocity":56,"Duration":183486,"SoundDuration":183486,"Delta":73087814},{"NoteNumber":60,"Velocity":60,"Duration":183486,"SoundDuration":183486,"Delta":73271300},{"NoteNumber":63,"Velocity":56,"Duration":183485,"SoundDuration":183485,"Delta":73454786},{"NoteNumber":72,"Velocity":78,"Duration":181818,"SoundDuration":181818,"Delta":73638272},{"NoteNumber":62,"Velocity":66,"Duration":363635,"SoundDuration":363635,"Delta":73638272},{"NoteNumber":70,"Velocity":71,"Duration":90908,"SoundDuration":90908,"Delta":73820090},{"NoteNumber":74,"Velocity":81,"Duration":181818,"SoundDuration":181818,"Delta":74001908},{"NoteNumber":62,"Velocity":57,"Duration":727271,"SoundDuration":727271,"Delta":74001908},{"NoteNumber":57,"Velocity":57,"Duration":363635,"SoundDuration":363635,"Delta":74001908},{"NoteNumber":72,"Velocity":75,"Duration":90908,"SoundDuration":90908,"Delta":74183726},{"NoteNumber":75,"Velocity":82,"Duration":181818,"SoundDuration":181818,"Delta":74365544},{"NoteNumber":58,"Velocity":64,"Duration":363635,"SoundDuration":363635,"Delta":74365544},{"NoteNumber":74,"Velocity":77,"Duration":90908,"SoundDuration":90908,"Delta":74547362},{"NoteNumber":77,"Velocity":85,"Duration":184615,"SoundDuration":184615,"Delta":74729180},{"NoteNumber":51,"Velocity":64,"Duration":369230,"SoundDuration":369230,"Delta":74729180},{"NoteNumber":60,"Velocity":64,"Duration":369230,"SoundDuration":369230,"Delta":74729180},{"NoteNumber":75,"Velocity":81,"Duration":92307,"SoundDuration":92307,"Delta":74913795},{"NoteNumber":74,"Velocity":85,"Duration":548781,"SoundDuration":548781,"Delta":75098411},{"NoteNumber":58,"Velocity":65,"Duration":731707,"SoundDuration":731707,"Delta":75098411},{"NoteNumber":53,"Velocity":65,"Duration":1102687,"SoundDuration":1102687,"Delta":75098411},{"NoteNumber":75,"Velocity":78,"Duration":91463,"SoundDuration":91463,"Delta":75647192},{"NoteNumber":74,"Velocity":76,"Duration":91463,"SoundDuration":91463,"Delta":75738655},{"NoteNumber":72,"Velocity":73,"Duration":182927,"SoundDuration":182927,"Delta":75830119},{"NoteNumber":57,"Velocity":60,"Duration":370979,"SoundDuration":370979,"Delta":75830119},{"NoteNumber":74,"Velocity":77,"Duration":188052,"SoundDuration":188052,"Delta":76013046},{"NoteNumber":75,"Velocity":78,"Duration":190125,"SoundDuration":190125,"Delta":76201098},{"NoteNumber":76,"Velocity":81,"Duration":191848,"SoundDuration":191848,"Delta":76391224},{"NoteNumber":77,"Velocity":83,"Duration":545454,"SoundDuration":545454,"Delta":76583072},{"NoteNumber":58,"Velocity":65,"Duration":181818,"SoundDuration":181818,"Delta":76583072},{"NoteNumber":65,"Velocity":55,"Duration":181817,"SoundDuration":181817,"Delta":76764890},{"NoteNumber":62,"Velocity":60,"Duration":181818,"SoundDuration":181818,"Delta":76946708},{"NoteNumber":75,"Velocity":74,"Duration":60605,"SoundDuration":60605,"Delta":77128526},{"NoteNumber":65,"Velocity":55,"Duration":181817,"SoundDuration":181817,"Delta":77128526},{"NoteNumber":74,"Velocity":74,"Duration":60606,"SoundDuration":60606,"Delta":77189132},{"NoteNumber":72,"Velocity":74,"Duration":60605,"SoundDuration":60605,"Delta":77249738},{"NoteNumber":70,"Velocity":79,"Duration":90090,"SoundDuration":90090,"Delta":77310344},{"NoteNumber":55,"Velocity":64,"Duration":90090,"SoundDuration":90090,"Delta":77310344},{"NoteNumber":70,"Velocity":79,"Duration":90089,"SoundDuration":90089,"Delta":77490524},{"NoteNumber":62,"Velocity":56,"Duration":90089,"SoundDuration":90089,"Delta":77490524},{"NoteNumber":70,"Velocity":79,"Duration":92879,"SoundDuration":92879,"Delta":77670704},{"NoteNumber":58,"Velocity":60,"Duration":92879,"SoundDuration":92879,"Delta":77670704},{"NoteNumber":70,"Velocity":79,"Duration":92879,"SoundDuration":92879,"Delta":77856463},{"NoteNumber":62,"Velocity":55,"Duration":92879,"SoundDuration":92879,"Delta":77856463},{"NoteNumber":75,"Velocity":85,"Duration":72727,"SoundDuration":72727,"Delta":78042221},{"NoteNumber":51,"Velocity":64,"Duration":181818,"SoundDuration":181818,"Delta":78042221},{"NoteNumber":77,"Velocity":61,"Duration":72727,"SoundDuration":72727,"Delta":78114948},{"NoteNumber":75,"Velocity":61,"Duration":72727,"SoundDuration":72727,"Delta":78187676},{"NoteNumber":60,"Velocity":55,"Duration":181817,"SoundDuration":181817,"Delta":78224039},{"NoteNumber":74,"Velocity":61,"Duration":72727,"SoundDuration":72727,"Delta":78260403},{"NoteNumber":75,"Velocity":61,"Duration":72727,"SoundDuration":72727,"Delta":78333130},{"NoteNumber":79,"Velocity":78,"Duration":363635,"SoundDuration":363635,"Delta":78405857},{"NoteNumber":55,"Velocity":59,"Duration":181818,"SoundDuration":181818,"Delta":78405857},{"NoteNumber":60,"Velocity":55,"Duration":181817,"SoundDuration":181817,"Delta":78587675},{"NoteNumber":69,"Velocity":82,"Duration":363635,"SoundDuration":363635,"Delta":78769493},{"NoteNumber":53,"Velocity":64,"Duration":181818,"SoundDuration":181818,"Delta":78769493},{"NoteNumber":63,"Velocity":55,"Duration":181817,"SoundDuration":181817,"Delta":78951311},{"NoteNumber":60,"Velocity":59,"Duration":185185,"SoundDuration":185185,"Delta":79133129},{"NoteNumber":81,"Velocity":77,"Duration":180723,"SoundDuration":180723,"Delta":79318314},{"NoteNumber":63,"Velocity":54,"Duration":180723,"SoundDuration":180723,"Delta":79318314},{"NoteNumber":82,"Velocity":85,"Duration":120481,"SoundDuration":120481,"Delta":79499037},{"NoteNumber":50,"Velocity":59,"Duration":361446,"SoundDuration":361446,"Delta":79499037},{"NoteNumber":58,"Velocity":59,"Duration":722892,"SoundDuration":722892,"Delta":79499037},{"NoteNumber":77,"Velocity":75,"Duration":120482,"SoundDuration":120482,"Delta":79619519},{"NoteNumber":74,"Velocity":74,"Duration":120481,"SoundDuration":120481,"Delta":79740001},{"NoteNumber":79,"Velocity":84,"Duration":120481,"SoundDuration":120481,"Delta":79860483},{"NoteNumber":51,"Velocity":56,"Duration":361446,"SoundDuration":361446,"Delta":79860483},{"NoteNumber":75,"Velocity":75,"Duration":120482,"SoundDuration":120482,"Delta":79980965},{"NoteNumber":72,"Velocity":75,"Duration":120481,"SoundDuration":120481,"Delta":80101447},{"NoteNumber":77,"Velocity":84,"Duration":120481,"SoundDuration":120481,"Delta":80221929},{"NoteNumber":53,"Velocity":59,"Duration":726181,"SoundDuration":726181,"Delta":80221929},{"NoteNumber":62,"Velocity":59,"Duration":361992,"SoundDuration":361992,"Delta":80221929},{"NoteNumber":74,"Velocity":74,"Duration":120664,"SoundDuration":120664,"Delta":80342411},{"NoteNumber":70,"Velocity":74,"Duration":120846,"SoundDuration":120846,"Delta":80463075},{"NoteNumber":75,"Velocity":84,"Duration":121211,"SoundDuration":121211,"Delta":80583921},{"NoteNumber":63,"Velocity":56,"Duration":364189,"SoundDuration":364189,"Delta":80583921},{"NoteNumber":72,"Velocity":74,"Duration":121396,"SoundDuration":121396,"Delta":80705133},{"NoteNumber":69,"Velocity":72,"Duration":121580,"SoundDuration":121580,"Delta":80826529},{"NoteNumber":70,"Velocity":83,"Duration":390878,"SoundDuration":390878,"Delta":80948110},{"NoteNumber":62,"Velocity":59,"Duration":390878,"SoundDuration":390878,"Delta":80948110},{"NoteNumber":58,"Velocity":59,"Duration":390878,"SoundDuration":390878,"Delta":80948110},{"NoteNumber":46,"Velocity":63,"Duration":385313,"SoundDuration":385313,"Delta":81338989},{"NoteNumber":65,"Velocity":55,"Duration":189873,"SoundDuration":189873,"Delta":81534429},{"NoteNumber":70,"Velocity":58,"Duration":94936,"SoundDuration":94936,"Delta":81724302},{"NoteNumber":69,"Velocity":52,"Duration":94936,"SoundDuration":94936,"Delta":81914176},{"NoteNumber":70,"Velocity":55,"Duration":94936,"SoundDuration":94936,"Delta":82104049},{"NoteNumber":72,"Velocity":51,"Duration":94936,"SoundDuration":94936,"Delta":82293923},{"NoteNumber":74,"Velocity":55,"Duration":99337,"SoundDuration":99337,"Delta":82483796},{"NoteNumber":70,"Velocity":56,"Duration":145631,"SoundDuration":145631,"Delta":82881147},{"NoteNumber":74,"Velocity":56,"Duration":145631,"SoundDuration":145631,"Delta":82881147},{"NoteNumber":58,"Velocity":46,"Duration":145631,"SoundDuration":145631,"Delta":82881147},{"NoteNumber":70,"Velocity":59,"Duration":388350,"SoundDuration":388350,"Delta":83269497},{"NoteNumber":74,"Velocity":59,"Duration":388350,"SoundDuration":388350,"Delta":83269497},{"NoteNumber":55,"Velocity":48,"Duration":388350,"SoundDuration":388350,"Delta":83269497},{"NoteNumber":72,"Velocity":55,"Duration":392156,"SoundDuration":392156,"Delta":83657847},{"NoteNumber":75,"Velocity":55,"Duration":392156,"SoundDuration":392156,"Delta":83657847},{"NoteNumber":51,"Velocity":46,"Duration":392156,"SoundDuration":392156,"Delta":83657847},{"NoteNumber":72,"Velocity":54,"Duration":392156,"SoundDuration":392156,"Delta":84050004},{"NoteNumber":69,"Velocity":54,"Duration":392156,"SoundDuration":392156,"Delta":84050004},{"NoteNumber":53,"Velocity":47,"Duration":392156,"SoundDuration":392156,"Delta":84050004},{"NoteNumber":41,"Velocity":57,"Duration":384166,"SoundDuration":384166,"Delta":84442161},{"NoteNumber":65,"Velocity":55,"Duration":188087,"SoundDuration":188087,"Delta":84638240},{"NoteNumber":72,"Velocity":57,"Duration":94044,"SoundDuration":94044,"Delta":84826328},{"NoteNumber":70,"Velocity":54,"Duration":94043,"SoundDuration":94043,"Delta":85014416},{"NoteNumber":72,"Velocity":56,"Duration":94936,"SoundDuration":94936,"Delta":85202504},{"NoteNumber":74,"Velocity":54,"Duration":94936,"SoundDuration":94936,"Delta":85392377},{"NoteNumber":75,"Velocity":56,"Duration":100334,"SoundDuration":100334,"Delta":85582251},{"NoteNumber":67,"Velocity":56,"Duration":144230,"SoundDuration":144230,"Delta":85983589},{"NoteNumber":75,"Velocity":56,"Duration":144230,"SoundDuration":144230,"Delta":85983589},{"NoteNumber":60,"Velocity":45,"Duration":144230,"SoundDuration":144230,"Delta":85983589},{"NoteNumber":75,"Velocity":58,"Duration":368852,"SoundDuration":368852,"Delta":86368204},{"NoteNumber":72,"Velocity":58,"Duration":368852,"SoundDuration":368852,"Delta":86368204},{"NoteNumber":57,"Velocity":45,"Duration":393443,"SoundDuration":393443,"Delta":86368204},{"NoteNumber":77,"Velocity":56,"Duration":393442,"SoundDuration":393442,"Delta":86761647},{"NoteNumber":69,"Velocity":56,"Duration":393442,"SoundDuration":393442,"Delta":86761647},{"NoteNumber":53,"Velocity":42,"Duration":393442,"SoundDuration":393442,"Delta":86761647},{"NoteNumber":74,"Velocity":54,"Duration":393443,"SoundDuration":393443,"Delta":87155090},{"NoteNumber":70,"Velocity":54,"Duration":393443,"SoundDuration":393443,"Delta":87155090},{"NoteNumber":58,"Velocity":46,"Duration":393443,"SoundDuration":393443,"Delta":87155090},{"NoteNumber":46,"Velocity":58,"Duration":383637,"SoundDuration":383637,"Delta":87548533},{"NoteNumber":70,"Velocity":58,"Duration":186915,"SoundDuration":186915,"Delta":87745254},{"NoteNumber":74,"Velocity":64,"Duration":93457,"SoundDuration":93457,"Delta":87932170},{"NoteNumber":72,"Velocity":59,"Duration":93458,"SoundDuration":93458,"Delta":88119086},{"NoteNumber":74,"Velocity":64,"Duration":93457,"SoundDuration":93457,"Delta":88306002},{"NoteNumber":75,"Velocity":67,"Duration":93457,"SoundDuration":93457,"Delta":88492918},{"NoteNumber":77,"Velocity":71,"Duration":298013,"SoundDuration":298013,"Delta":88679834},{"NoteNumber":77,"Velocity":76,"Duration":298673,"SoundDuration":298673,"Delta":89077185},{"NoteNumber":62,"Velocity":53,"Duration":298673,"SoundDuration":298673,"Delta":89077185},{"NoteNumber":58,"Velocity":53,"Duration":298673,"SoundDuration":298673,"Delta":89077185},{"NoteNumber":77,"Velocity":79,"Duration":301677,"SoundDuration":301677,"Delta":89475859},{"NoteNumber":58,"Velocity":56,"Duration":301677,"SoundDuration":301677,"Delta":89475859},{"NoteNumber":62,"Velocity":56,"Duration":301677,"SoundDuration":301677,"Delta":89475859},{"NoteNumber":77,"Velocity":82,"Duration":304741,"SoundDuration":304741,"Delta":89878547},{"NoteNumber":62,"Velocity":60,"Duration":304741,"SoundDuration":304741,"Delta":89878547},{"NoteNumber":58,"Velocity":60,"Duration":304741,"SoundDuration":304741,"Delta":89878547},{"NoteNumber":78,"Velocity":91,"Duration":1506426,"SoundDuration":1506426,"Delta":90285329},{"NoteNumber":57,"Velocity":68,"Duration":755236,"SoundDuration":755236,"Delta":90285329},{"NoteNumber":60,"Velocity":68,"Duration":755236,"SoundDuration":755236,"Delta":90285329},{"NoteNumber":72,"Velocity":59,"Duration":183486,"SoundDuration":183486,"Delta":90490107},{"NoteNumber":74,"Velocity":59,"Duration":183486,"SoundDuration":183486,"Delta":90673593},{"NoteNumber":75,"Velocity":63,"Duration":132262,"SoundDuration":132262,"Delta":90857079},{"NoteNumber":75,"Velocity":63,"Duration":186915,"SoundDuration":186915,"Delta":91040565},{"NoteNumber":57,"Velocity":54,"Duration":751189,"SoundDuration":751189,"Delta":91040565},{"NoteNumber":50,"Velocity":54,"Duration":751189,"SoundDuration":751189,"Delta":91040565},{"NoteNumber":74,"Velocity":62,"Duration":140186,"SoundDuration":140186,"Delta":91227481},{"NoteNumber":74,"Velocity":61,"Duration":188678,"SoundDuration":188678,"Delta":91414397},{"NoteNumber":72,"Velocity":57,"Duration":141509,"SoundDuration":141509,"Delta":91603076},{"NoteNumber":70,"Velocity":70,"Duration":769306,"SoundDuration":769306,"Delta":91791755},{"NoteNumber":79,"Velocity":70,"Duration":769306,"SoundDuration":769306,"Delta":91791755},{"NoteNumber":51,"Velocity":53,"Duration":1542294,"SoundDuration":1542294,"Delta":91791755},{"NoteNumber":55,"Velocity":52,"Duration":186915,"SoundDuration":186915,"Delta":91992424},{"NoteNumber":57,"Velocity":54,"Duration":186915,"SoundDuration":186915,"Delta":92179340},{"NoteNumber":58,"Velocity":57,"Duration":140421,"SoundDuration":140421,"Delta":92366256},{"NoteNumber":73,"Velocity":64,"Duration":772988,"SoundDuration":772988,"Delta":92561061},{"NoteNumber":58,"Velocity":57,"Duration":191388,"SoundDuration":191388,"Delta":92561061},{"NoteNumber":57,"Velocity":55,"Duration":138758,"SoundDuration":138758,"Delta":92752450},{"NoteNumber":57,"Velocity":55,"Duration":193861,"SoundDuration":193861,"Delta":92945066},{"NoteNumber":55,"Velocity":54,"Duration":146262,"SoundDuration":146262,"Delta":93138928},{"NoteNumber":74,"Velocity":69,"Duration":392156,"SoundDuration":392156,"Delta":93334050},{"NoteNumber":50,"Velocity":47,"Duration":392156,"SoundDuration":392156,"Delta":93334050},{"NoteNumber":54,"Velocity":47,"Duration":392156,"SoundDuration":392156,"Delta":93334050},{"NoteNumber":62,"Velocity":63,"Duration":98039,"SoundDuration":98039,"Delta":94020325},{"NoteNumber":74,"Velocity":80,"Duration":367647,"SoundDuration":367647,"Delta":94118364},{"NoteNumber":74,"Velocity":76,"Duration":392156,"SoundDuration":392156,"Delta":94510521},{"NoteNumber":82,"Velocity":85,"Duration":576772,"SoundDuration":576772,"Delta":94902678},{"NoteNumber":55,"Velocity":58,"Duration":196078,"SoundDuration":196078,"Delta":94902678},{"NoteNumber":58,"Velocity":50,"Duration":196078,"SoundDuration":196078,"Delta":95098757},{"NoteNumber":62,"Velocity":54,"Duration":184615,"SoundDuration":184615,"Delta":95294835},{"NoteNumber":81,"Velocity":75,"Duration":61538,"SoundDuration":61538,"Delta":95479451},{"NoteNumber":58,"Velocity":50,"Duration":184615,"SoundDuration":184615,"Delta":95479451},{"NoteNumber":79,"Velocity":72,"Duration":61538,"SoundDuration":61538,"Delta":95540989},{"NoteNumber":78,"Velocity":72,"Duration":61538,"SoundDuration":61538,"Delta":95602528},{"NoteNumber":79,"Velocity":79,"Duration":369230,"SoundDuration":369230,"Delta":95664066},{"NoteNumber":55,"Velocity":54,"Duration":184615,"SoundDuration":184615,"Delta":95664066},{"NoteNumber":58,"Velocity":47,"Duration":184615,"SoundDuration":184615,"Delta":95848682},{"NoteNumber":74,"Velocity":73,"Duration":389610,"SoundDuration":389610,"Delta":96033297},{"NoteNumber":62,"Velocity":50,"Duration":194805,"SoundDuration":194805,"Delta":96033297},{"NoteNumber":58,"Velocity":47,"Duration":194805,"SoundDuration":194805,"Delta":96228102},{"NoteNumber":75,"Velocity":80,"Duration":389609,"SoundDuration":389609,"Delta":96422907},{"NoteNumber":55,"Velocity":58,"Duration":194805,"SoundDuration":194805,"Delta":96422907},{"NoteNumber":60,"Velocity":51,"Duration":194804,"SoundDuration":194804,"Delta":96617712},{"NoteNumber":63,"Velocity":54,"Duration":184049,"SoundDuration":184049,"Delta":96812517},{"NoteNumber":60,"Velocity":51,"Duration":184049,"SoundDuration":184049,"Delta":96996566},{"NoteNumber":67,"Velocity":71,"Duration":92024,"SoundDuration":92024,"Delta":97088591},{"NoteNumber":79,"Velocity":86,"Duration":345091,"SoundDuration":345091,"Delta":97180615},{"NoteNumber":55,"Velocity":53,"Duration":184049,"SoundDuration":184049,"Delta":97180615},{"NoteNumber":60,"Velocity":49,"Duration":184049,"SoundDuration":184049,"Delta":97364664},{"NoteNumber":79,"Velocity":83,"Duration":380951,"SoundDuration":380951,"Delta":97548713},{"NoteNumber":63,"Velocity":51,"Duration":190476,"SoundDuration":190476,"Delta":97548713},{"NoteNumber":60,"Velocity":48,"Duration":190475,"SoundDuration":190475,"Delta":97739189},{"NoteNumber":87,"Velocity":101,"Duration":565001,"SoundDuration":565001,"Delta":97929665},{"NoteNumber":53,"Velocity":58,"Duration":190476,"SoundDuration":190476,"Delta":97929665},{"NoteNumber":60,"Velocity":51,"Duration":190476,"SoundDuration":190476,"Delta":98120141},{"NoteNumber":63,"Velocity":54,"Duration":184049,"SoundDuration":184049,"Delta":98310617},{"NoteNumber":86,"Velocity":75,"Duration":61349,"SoundDuration":61349,"Delta":98494666},{"NoteNumber":60,"Velocity":51,"Duration":184049,"SoundDuration":184049,"Delta":98494666},{"NoteNumber":84,"Velocity":71,"Duration":61349,"SoundDuration":61349,"Delta":98556016},{"NoteNumber":83,"Velocity":71,"Duration":61349,"SoundDuration":61349,"Delta":98617366},{"NoteNumber":84,"Velocity":79,"Duration":368098,"SoundDuration":368098,"Delta":98678715},{"NoteNumber":55,"Velocity":56,"Duration":184049,"SoundDuration":184049,"Delta":98678715},{"NoteNumber":60,"Velocity":50,"Duration":184049,"SoundDuration":184049,"Delta":98862764},{"NoteNumber":75,"Velocity":78,"Duration":396039,"SoundDuration":396039,"Delta":99046813},{"NoteNumber":63,"Velocity":52,"Duration":198019,"SoundDuration":198019,"Delta":99046813},{"NoteNumber":60,"Velocity":49,"Duration":198019,"SoundDuration":198019,"Delta":99244833},{"NoteNumber":74,"Velocity":74,"Duration":396039,"SoundDuration":396039,"Delta":99442853},{"NoteNumber":55,"Velocity":53,"Duration":198019,"SoundDuration":198019,"Delta":99442853},{"NoteNumber":58,"Velocity":50,"Duration":198019,"SoundDuration":198019,"Delta":99640873},{"NoteNumber":62,"Velocity":50,"Duration":198019,"SoundDuration":198019,"Delta":99838893},{"NoteNumber":73,"Velocity":69,"Duration":186242,"SoundDuration":186242,"Delta":100036913},{"NoteNumber":74,"Velocity":73,"Duration":189178,"SoundDuration":189178,"Delta":100223156},{"NoteNumber":82,"Velocity":72,"Duration":97402,"SoundDuration":97402,"Delta":100412335},{"NoteNumber":81,"Velocity":71,"Duration":97402,"SoundDuration":97402,"Delta":100607140},{"NoteNumber":79,"Velocity":69,"Duration":97402,"SoundDuration":97402,"Delta":100801945},{"NoteNumber":78,"Velocity":74,"Duration":292207,"SoundDuration":292207,"Delta":100996750},{"NoteNumber":60,"Velocity":50,"Duration":389609,"SoundDuration":389609,"Delta":100996750},{"NoteNumber":57,"Velocity":50,"Duration":389609,"SoundDuration":389609,"Delta":100996750},{"NoteNumber":63,"Velocity":50,"Duration":389609,"SoundDuration":389609,"Delta":100996750},{"NoteNumber":79,"Velocity":64,"Duration":48701,"SoundDuration":48701,"Delta":101288957},{"NoteNumber":81,"Velocity":64,"Duration":48701,"SoundDuration":48701,"Delta":101337658},{"NoteNumber":79,"Velocity":78,"Duration":94936,"SoundDuration":94936,"Delta":101386360},{"NoteNumber":58,"Velocity":46,"Duration":189873,"SoundDuration":189873,"Delta":101386360},{"NoteNumber":62,"Velocity":46,"Duration":189873,"SoundDuration":189873,"Delta":101386360},{"NoteNumber":79,"Velocity":74,"Duration":100671,"SoundDuration":100671,"Delta":101576233},{"NoteNumber":85,"Velocity":83,"Duration":194805,"SoundDuration":194805,"Delta":101777576},{"NoteNumber":86,"Velocity":78,"Duration":194805,"SoundDuration":194805,"Delta":101972381},{"NoteNumber":82,"Velocity":74,"Duration":95339,"SoundDuration":95339,"Delta":102167186},{"NoteNumber":79,"Velocity":74,"Duration":99337,"SoundDuration":99337,"Delta":102358372},{"NoteNumber":78,"Velocity":77,"Duration":289388,"SoundDuration":289388,"Delta":102557047},{"NoteNumber":63,"Velocity":49,"Duration":385851,"SoundDuration":385851,"Delta":102557047},{"NoteNumber":57,"Velocity":49,"Duration":385851,"SoundDuration":385851,"Delta":102557047},{"NoteNumber":60,"Velocity":49,"Duration":385851,"SoundDuration":385851,"Delta":102557047},{"NoteNumber":79,"Velocity":66,"Duration":48231,"SoundDuration":48231,"Delta":102846436},{"NoteNumber":81,"Velocity":66,"Duration":48231,"SoundDuration":48231,"Delta":102894668},{"NoteNumber":79,"Velocity":77,"Duration":96462,"SoundDuration":96462,"Delta":102942899},{"NoteNumber":58,"Velocity":45,"Duration":192977,"SoundDuration":192977,"Delta":102942899},{"NoteNumber":62,"Velocity":45,"Duration":192977,"SoundDuration":192977,"Delta":102942899},{"NoteNumber":74,"Velocity":67,"Duration":194333,"SoundDuration":194333,"Delta":103135877},{"NoteNumber":79,"Velocity":71,"Duration":97879,"SoundDuration":97879,"Delta":103330211},{"NoteNumber":79,"Velocity":71,"Duration":98847,"SoundDuration":98847,"Delta":103526452},{"NoteNumber":79,"Velocity":71,"Duration":99833,"SoundDuration":99833,"Delta":103724637},{"NoteNumber":79,"Velocity":71,"Duration":100840,"SoundDuration":100840,"Delta":103924806},{"NoteNumber":79,"Velocity":78,"Duration":305833,"SoundDuration":305833,"Delta":104127055},{"NoteNumber":51,"Velocity":53,"Duration":1580116,"SoundDuration":1580116,"Delta":104127055},{"NoteNumber":58,"Velocity":53,"Duration":789704,"SoundDuration":789704,"Delta":104127055},{"NoteNumber":81,"Velocity":63,"Duration":48387,"SoundDuration":48387,"Delta":104432888},{"NoteNumber":82,"Velocity":63,"Duration":48387,"SoundDuration":48387,"Delta":104481276},{"NoteNumber":81,"Velocity":75,"Duration":96774,"SoundDuration":96774,"Delta":104529663},{"NoteNumber":79,"Velocity":72,"Duration":96774,"SoundDuration":96774,"Delta":104723211},{"NoteNumber":77,"Velocity":72,"Duration":97455,"SoundDuration":97455,"Delta":104916760},{"NoteNumber":55,"Velocity":47,"Duration":790411,"SoundDuration":790411,"Delta":104916760},{"NoteNumber":75,"Velocity":70,"Duration":98146,"SoundDuration":98146,"Delta":105111988},{"NoteNumber":74,"Velocity":68,"Duration":98955,"SoundDuration":98955,"Delta":105308711},{"NoteNumber":73,"Velocity":67,"Duration":99833,"SoundDuration":99833,"Delta":105507114},{"NoteNumber":73,"Velocity":71,"Duration":201342,"SoundDuration":201342,"Delta":105707171},{"NoteNumber":54,"Velocity":40,"Duration":385906,"SoundDuration":385906,"Delta":105707171},{"NoteNumber":57,"Velocity":40,"Duration":393456,"SoundDuration":393456,"Delta":105707171},{"NoteNumber":74,"Velocity":68,"Duration":201342,"SoundDuration":201342,"Delta":105908514},{"NoteNumber":74,"Velocity":59,"Duration":295082,"SoundDuration":295082,"Delta":106109856},{"NoteNumber":50,"Velocity":28,"Duration":295082,"SoundDuration":295082,"Delta":106109856},{"NoteNumber":54,"Velocity":28,"Duration":295082,"SoundDuration":295082,"Delta":106109856},{"NoteNumber":57,"Velocity":34,"Duration":295082,"SoundDuration":295082,"Delta":106109856},{"NoteNumber":74,"Velocity":58,"Duration":299003,"SoundDuration":299003,"Delta":106503299},{"NoteNumber":50,"Velocity":29,"Duration":299003,"SoundDuration":299003,"Delta":106503299},{"NoteNumber":54,"Velocity":29,"Duration":299003,"SoundDuration":299003,"Delta":106503299},{"NoteNumber":57,"Velocity":35,"Duration":299003,"SoundDuration":299003,"Delta":106503299},{"NoteNumber":74,"Velocity":54,"Duration":306122,"SoundDuration":306122,"Delta":106901970},{"NoteNumber":50,"Velocity":28,"Duration":306122,"SoundDuration":306122,"Delta":106901970},{"NoteNumber":54,"Velocity":28,"Duration":306122,"SoundDuration":306122,"Delta":106901970},{"NoteNumber":57,"Velocity":34,"Duration":306122,"SoundDuration":306122,"Delta":106901970},{"NoteNumber":73,"Velocity":40,"Duration":68027,"SoundDuration":68027,"Delta":107310133},{"NoteNumber":74,"Velocity":44,"Duration":68027,"SoundDuration":68027,"Delta":107378160},{"NoteNumber":75,"Velocity":49,"Duration":68027,"SoundDuration":68027,"Delta":107446188},{"NoteNumber":74,"Velocity":62,"Duration":1410410,"SoundDuration":1410410,"Delta":107514215},{"NoteNumber":53,"Velocity":27,"Duration":293159,"SoundDuration":293159,"Delta":107709654},{"NoteNumber":57,"Velocity":37,"Duration":293159,"SoundDuration":293159,"Delta":107709654},{"NoteNumber":50,"Velocity":27,"Duration":293159,"SoundDuration":293159,"Delta":107709654},{"NoteNumber":53,"Velocity":27,"Duration":293159,"SoundDuration":293159,"Delta":108100533},{"NoteNumber":57,"Velocity":37,"Duration":293159,"SoundDuration":293159,"Delta":108100533},{"NoteNumber":50,"Velocity":27,"Duration":293159,"SoundDuration":293159,"Delta":108100533},{"NoteNumber":53,"Velocity":26,"Duration":324909,"SoundDuration":324909,"Delta":108491412},{"NoteNumber":57,"Velocity":36,"Duration":324909,"SoundDuration":324909,"Delta":108491412},{"NoteNumber":50,"Velocity":26,"Duration":324909,"SoundDuration":324909,"Delta":108491412},{"NoteNumber":77,"Velocity":72,"Duration":1585007,"SoundDuration":1585007,"Delta":108924625},{"NoteNumber":50,"Velocity":38,"Duration":293159,"SoundDuration":293159,"Delta":109315504},{"NoteNumber":58,"Velocity":51,"Duration":293159,"SoundDuration":293159,"Delta":109315504},{"NoteNumber":53,"Velocity":38,"Duration":293159,"SoundDuration":293159,"Delta":109315504},{"NoteNumber":50,"Velocity":41,"Duration":293159,"SoundDuration":293159,"Delta":109706383},{"NoteNumber":53,"Velocity":41,"Duration":293159,"SoundDuration":293159,"Delta":109706383},{"NoteNumber":58,"Velocity":56,"Duration":293159,"SoundDuration":293159,"Delta":109706383},{"NoteNumber":50,"Velocity":45,"Duration":309278,"SoundDuration":309278,"Delta":110097262},{"NoteNumber":53,"Velocity":45,"Duration":309278,"SoundDuration":309278,"Delta":110097262},{"NoteNumber":58,"Velocity":60,"Duration":309278,"SoundDuration":309278,"Delta":110097262},{"NoteNumber":62,"Velocity":74,"Duration":1558440,"SoundDuration":1558440,"Delta":110509633},{"NoteNumber":56,"Velocity":74,"Duration":1558440,"SoundDuration":1558440,"Delta":110509633},{"NoteNumber":53,"Velocity":60,"Duration":292207,"SoundDuration":292207,"Delta":110899243},{"NoteNumber":46,"Velocity":45,"Duration":292207,"SoundDuration":292207,"Delta":110899243},{"NoteNumber":46,"Velocity":48,"Duration":292207,"SoundDuration":292207,"Delta":111288853},{"NoteNumber":53,"Velocity":63,"Duration":292207,"SoundDuration":292207,"Delta":111288853},{"NoteNumber":53,"Velocity":60,"Duration":292207,"SoundDuration":292207,"Delta":111678463},{"NoteNumber":46,"Velocity":45,"Duration":292207,"SoundDuration":292207,"Delta":111678463},{"NoteNumber":55,"Velocity":74,"Duration":389609,"SoundDuration":389609,"Delta":112068073},{"NoteNumber":63,"Velocity":74,"Duration":1025972,"SoundDuration":1025972,"Delta":112068073},{"NoteNumber":39,"Velocity":48,"Duration":389609,"SoundDuration":389609,"Delta":112068073},{"NoteNumber":51,"Velocity":63,"Duration":389609,"SoundDuration":389609,"Delta":112068073},{"NoteNumber":51,"Velocity":46,"Duration":363635,"SoundDuration":363635,"Delta":112457683},{"NoteNumber":55,"Velocity":41,"Duration":363635,"SoundDuration":363635,"Delta":112821319},{"NoteNumber":58,"Velocity":45,"Duration":90908,"SoundDuration":90908,"Delta":113094046},{"NoteNumber":62,"Velocity":49,"Duration":276073,"SoundDuration":276073,"Delta":113184955},{"NoteNumber":56,"Velocity":38,"Duration":368098,"SoundDuration":368098,"Delta":113184955},{"NoteNumber":58,"Velocity":46,"Duration":92024,"SoundDuration":92024,"Delta":113461029},{"NoteNumber":63,"Velocity":52,"Duration":276073,"SoundDuration":276073,"Delta":113553053},{"NoteNumber":55,"Velocity":44,"Duration":368098,"SoundDuration":368098,"Delta":113553053},{"NoteNumber":58,"Velocity":49,"Duration":92024,"SoundDuration":92024,"Delta":113829127},{"NoteNumber":65,"Velocity":51,"Duration":273512,"SoundDuration":273512,"Delta":113921151},{"NoteNumber":50,"Velocity":35,"Duration":365349,"SoundDuration":365349,"Delta":113921151},{"NoteNumber":58,"Velocity":51,"Duration":91836,"SoundDuration":91836,"Delta":114194664},{"NoteNumber":67,"Velocity":53,"Duration":277495,"SoundDuration":277495,"Delta":114286501},{"NoteNumber":51,"Velocity":41,"Duration":370711,"SoundDuration":370711,"Delta":114286501},{"NoteNumber":58,"Velocity":54,"Duration":93216,"SoundDuration":93216,"Delta":114563996},{"NoteNumber":68,"Velocity":56,"Duration":288461,"SoundDuration":288461,"Delta":114657212},{"NoteNumber":53,"Velocity":46,"Duration":384614,"SoundDuration":384614,"Delta":114657212},{"NoteNumber":58,"Velocity":54,"Duration":96153,"SoundDuration":96153,"Delta":114945673},{"NoteNumber":65,"Velocity":57,"Duration":1016109,"SoundDuration":1016109,"Delta":115041827},{"NoteNumber":46,"Velocity":41,"Duration":363635,"SoundDuration":363635,"Delta":115421574},{"NoteNumber":50,"Velocity":45,"Duration":363635,"SoundDuration":363635,"Delta":115785210},{"NoteNumber":58,"Velocity":50,"Duration":90908,"SoundDuration":90908,"Delta":116057937},{"NoteNumber":64,"Velocity":52,"Duration":276073,"SoundDuration":276073,"Delta":116148846},{"NoteNumber":49,"Velocity":41,"Duration":368098,"SoundDuration":368098,"Delta":116148846},{"NoteNumber":58,"Velocity":53,"Duration":92024,"SoundDuration":92024,"Delta":116424920},{"NoteNumber":65,"Velocity":55,"Duration":276073,"SoundDuration":276073,"Delta":116516944},{"NoteNumber":50,"Velocity":47,"Duration":368098,"SoundDuration":368098,"Delta":116516944},{"NoteNumber":58,"Velocity":51,"Duration":92024,"SoundDuration":92024,"Delta":116793018},{"NoteNumber":67,"Velocity":52,"Duration":272727,"SoundDuration":272727,"Delta":116885042},{"NoteNumber":52,"Velocity":38,"Duration":363635,"SoundDuration":363635,"Delta":116885042},{"NoteNumber":58,"Velocity":54,"Duration":90908,"SoundDuration":90908,"Delta":117157769},{"NoteNumber":68,"Velocity":56,"Duration":272727,"SoundDuration":272727,"Delta":117248678},{"NoteNumber":53,"Velocity":42,"Duration":363635,"SoundDuration":363635,"Delta":117248678},{"NoteNumber":58,"Velocity":56,"Duration":90908,"SoundDuration":90908,"Delta":117521405},{"NoteNumber":70,"Velocity":57,"Duration":294117,"SoundDuration":294117,"Delta":117612314},{"NoteNumber":50,"Velocity":48,"Duration":392156,"SoundDuration":392156,"Delta":117612314},{"NoteNumber":58,"Velocity":55,"Duration":98039,"SoundDuration":98039,"Delta":117906432},{"NoteNumber":67,"Velocity":58,"Duration":376258,"SoundDuration":376258,"Delta":118004471},{"NoteNumber":51,"Velocity":50,"Duration":376258,"SoundDuration":376258,"Delta":118004471},{"NoteNumber":39,"Velocity":45,"Duration":360360,"SoundDuration":360360,"Delta":118380730},{"NoteNumber":70,"Velocity":63,"Duration":90090,"SoundDuration":90090,"Delta":118560910},{"NoteNumber":75,"Velocity":67,"Duration":270269,"SoundDuration":270269,"Delta":118741090},{"NoteNumber":77,"Velocity":69,"Duration":90089,"SoundDuration":90089,"Delta":119011360},{"NoteNumber":79,"Velocity":72,"Duration":283018,"SoundDuration":283018,"Delta":119101450},{"NoteNumber":55,"Velocity":49,"Duration":373652,"SoundDuration":373652,"Delta":119101450},{"NoteNumber":63,"Velocity":49,"Duration":373652,"SoundDuration":373652,"Delta":119101450},{"NoteNumber":70,"Velocity":63,"Duration":45317,"SoundDuration":45317,"Delta":119384468},{"NoteNumber":72,"Velocity":66,"Duration":271903,"SoundDuration":271903,"Delta":119475103},{"NoteNumber":74,"Velocity":68,"Duration":90634,"SoundDuration":90634,"Delta":119747006},{"NoteNumber":75,"Velocity":71,"Duration":281250,"SoundDuration":281250,"Delta":119837641},{"NoteNumber":56,"Velocity":47,"Duration":371884,"SoundDuration":371884,"Delta":119837641},{"NoteNumber":63,"Velocity":47,"Duration":371884,"SoundDuration":371884,"Delta":119837641},{"NoteNumber":67,"Velocity":63,"Duration":45317,"SoundDuration":45317,"Delta":120118891},{"NoteNumber":68,"Velocity":65,"Duration":271903,"SoundDuration":271903,"Delta":120209525},{"NoteNumber":70,"Velocity":67,"Duration":90634,"SoundDuration":90634,"Delta":120481429},{"NoteNumber":72,"Velocity":70,"Duration":276073,"SoundDuration":276073,"Delta":120572063},{"NoteNumber":60,"Velocity":46,"Duration":371311,"SoundDuration":371311,"Delta":120572063},{"NoteNumber":63,"Velocity":46,"Duration":371311,"SoundDuration":371311,"Delta":120572063},{"NoteNumber":68,"Velocity":63,"Duration":47618,"SoundDuration":47618,"Delta":120848137},{"NoteNumber":67,"Velocity":61,"Duration":363087,"SoundDuration":363087,"Delta":120943375},{"NoteNumber":58,"Velocity":46,"Duration":181818,"SoundDuration":181818,"Delta":120943375},{"NoteNumber":63,"Velocity":46,"Duration":181818,"SoundDuration":181818,"Delta":120943375},{"NoteNumber":46,"Velocity":58,"Duration":181269,"SoundDuration":181269,"Delta":121306462},{"NoteNumber":70,"Velocity":63,"Duration":90634,"SoundDuration":90634,"Delta":121487731},{"NoteNumber":75,"Velocity":65,"Duration":271903,"SoundDuration":271903,"Delta":121669000},{"NoteNumber":77,"Velocity":67,"Duration":90634,"SoundDuration":90634,"Delta":121940903},{"NoteNumber":79,"Velocity":70,"Duration":279503,"SoundDuration":279503,"Delta":122031538},{"NoteNumber":55,"Velocity":47,"Duration":369593,"SoundDuration":369593,"Delta":122031538},{"NoteNumber":63,"Velocity":47,"Duration":369593,"SoundDuration":369593,"Delta":122031538},{"NoteNumber":71,"Velocity":63,"Duration":45045,"SoundDuration":45045,"Delta":122311041},{"NoteNumber":72,"Velocity":66,"Duration":270269,"SoundDuration":270269,"Delta":122401131},{"NoteNumber":74,"Velocity":67,"Duration":90090,"SoundDuration":90090,"Delta":122671401},{"NoteNumber":75,"Velocity":71,"Duration":280373,"SoundDuration":280373,"Delta":122761491},{"NoteNumber":56,"Velocity":47,"Duration":371282,"SoundDuration":371282,"Delta":122761491},{"NoteNumber":63,"Velocity":47,"Duration":371282,"SoundDuration":371282,"Delta":122761491},{"NoteNumber":67,"Velocity":61,"Duration":45454,"SoundDuration":45454,"Delta":123041865},{"NoteNumber":68,"Velocity":63,"Duration":272727,"SoundDuration":272727,"Delta":123132774},{"NoteNumber":70,"Velocity":64,"Duration":90908,"SoundDuration":90908,"Delta":123405501},{"NoteNumber":72,"Velocity":68,"Duration":277777,"SoundDuration":277777,"Delta":123496410},{"NoteNumber":63,"Velocity":47,"Duration":373015,"SoundDuration":373015,"Delta":123496410},{"NoteNumber":60,"Velocity":47,"Duration":373015,"SoundDuration":373015,"Delta":123496410},{"NoteNumber":68,"Velocity":61,"Duration":47618,"SoundDuration":47618,"Delta":123774187},{"NoteNumber":67,"Velocity":57,"Duration":380952,"SoundDuration":380952,"Delta":123869425},{"NoteNumber":63,"Velocity":52,"Duration":190476,"SoundDuration":190476,"Delta":123869425},{"NoteNumber":58,"Velocity":52,"Duration":190476,"SoundDuration":190476,"Delta":123869425},{"NoteNumber":46,"Velocity":62,"Duration":190476,"SoundDuration":190476,"Delta":124250377},{"NoteNumber":67,"Velocity":49,"Duration":183486,"SoundDuration":183486,"Delta":124440853},{"NoteNumber":70,"Velocity":53,"Duration":186335,"SoundDuration":186335,"Delta":124624339},{"NoteNumber":69,"Velocity":49,"Duration":186335,"SoundDuration":186335,"Delta":124810675},{"NoteNumber":60,"Velocity":47,"Duration":373403,"SoundDuration":373403,"Delta":124997010},{"NoteNumber":63,"Velocity":47,"Duration":373403,"SoundDuration":373403,"Delta":124997010},{"NoteNumber":69,"Velocity":54,"Duration":182927,"SoundDuration":182927,"Delta":125187486},{"NoteNumber":72,"Velocity":58,"Duration":186335,"SoundDuration":186335,"Delta":125370413},{"NoteNumber":70,"Velocity":55,"Duration":186335,"SoundDuration":186335,"Delta":125556749},{"NoteNumber":63,"Velocity":49,"Duration":373403,"SoundDuration":373403,"Delta":125743084},{"NoteNumber":55,"Velocity":49,"Duration":373403,"SoundDuration":373403,"Delta":125743084},{"NoteNumber":71,"Velocity":61,"Duration":182927,"SoundDuration":182927,"Delta":125933560},{"NoteNumber":74,"Velocity":66,"Duration":182926,"SoundDuration":182926,"Delta":126116487},{"NoteNumber":56,"Velocity":52,"Duration":365853,"SoundDuration":365853,"Delta":126116487},{"NoteNumber":63,"Velocity":52,"Duration":365853,"SoundDuration":365853,"Delta":126116487},{"NoteNumber":72,"Velocity":60,"Duration":91463,"SoundDuration":91463,"Delta":126299414},{"NoteNumber":75,"Velocity":71,"Duration":182926,"SoundDuration":182926,"Delta":126482341},{"NoteNumber":56,"Velocity":55,"Duration":365853,"SoundDuration":365853,"Delta":126482341},{"NoteNumber":53,"Velocity":55,"Duration":365853,"SoundDuration":365853,"Delta":126482341},{"NoteNumber":74,"Velocity":62,"Duration":91463,"SoundDuration":91463,"Delta":126665268},{"NoteNumber":77,"Velocity":74,"Duration":182927,"SoundDuration":182927,"Delta":126848195},{"NoteNumber":58,"Velocity":56,"Duration":365853,"SoundDuration":365853,"Delta":126848195},{"NoteNumber":55,"Velocity":56,"Duration":365853,"SoundDuration":365853,"Delta":126848195},{"NoteNumber":75,"Velocity":63,"Duration":91463,"SoundDuration":91463,"Delta":127031122},{"NoteNumber":77,"Velocity":79,"Duration":182927,"SoundDuration":182927,"Delta":127214049},{"NoteNumber":55,"Velocity":57,"Duration":365853,"SoundDuration":365853,"Delta":127214049},{"NoteNumber":58,"Velocity":57,"Duration":365853,"SoundDuration":365853,"Delta":127214049},{"NoteNumber":76,"Velocity":69,"Duration":91463,"SoundDuration":91463,"Delta":127396976},{"NoteNumber":79,"Velocity":86,"Duration":182927,"SoundDuration":182927,"Delta":127579903},{"NoteNumber":53,"Velocity":57,"Duration":365853,"SoundDuration":365853,"Delta":127579903},{"NoteNumber":56,"Velocity":57,"Duration":365853,"SoundDuration":365853,"Delta":127579903},{"NoteNumber":58,"Velocity":57,"Duration":365853,"SoundDuration":365853,"Delta":127579903},{"NoteNumber":77,"Velocity":74,"Duration":91463,"SoundDuration":91463,"Delta":127762830},{"NoteNumber":80,"Velocity":91,"Duration":182926,"SoundDuration":182926,"Delta":127945757},{"NoteNumber":51,"Velocity":59,"Duration":365853,"SoundDuration":365853,"Delta":127945757},{"NoteNumber":55,"Velocity":59,"Duration":365853,"SoundDuration":365853,"Delta":127945757},{"NoteNumber":58,"Velocity":59,"Duration":365853,"SoundDuration":365853,"Delta":127945757},{"NoteNumber":79,"Velocity":83,"Duration":91463,"SoundDuration":91463,"Delta":128128684},{"NoteNumber":82,"Velocity":99,"Duration":185758,"SoundDuration":185758,"Delta":128311611},{"NoteNumber":50,"Velocity":65,"Duration":371517,"SoundDuration":371517,"Delta":128311611},{"NoteNumber":53,"Velocity":65,"Duration":371517,"SoundDuration":371517,"Delta":128311611},{"NoteNumber":58,"Velocity":65,"Duration":371517,"SoundDuration":371517,"Delta":128311611},{"NoteNumber":80,"Velocity":83,"Duration":92879,"SoundDuration":92879,"Delta":128497370},{"NoteNumber":77,"Velocity":49,"Duration":182927,"SoundDuration":182927,"Delta":129597763},{"NoteNumber":79,"Velocity":52,"Duration":274390,"SoundDuration":274390,"Delta":129780690},{"NoteNumber":63,"Velocity":48,"Duration":365853,"SoundDuration":365853,"Delta":129780690},{"NoteNumber":70,"Velocity":48,"Duration":365853,"SoundDuration":365853,"Delta":129780690},{"NoteNumber":75,"Velocity":49,"Duration":91463,"SoundDuration":91463,"Delta":130055081},{"NoteNumber":72,"Velocity":53,"Duration":274390,"SoundDuration":274390,"Delta":130146544},{"NoteNumber":68,"Velocity":47,"Duration":365854,"SoundDuration":365854,"Delta":130146544},{"NoteNumber":56,"Velocity":47,"Duration":365854,"SoundDuration":365854,"Delta":130146544},{"NoteNumber":77,"Velocity":49,"Duration":91463,"SoundDuration":91463,"Delta":130420935},{"NoteNumber":75,"Velocity":53,"Duration":369231,"SoundDuration":369231,"Delta":130512398},{"NoteNumber":58,"Velocity":48,"Duration":760110,"SoundDuration":760110,"Delta":130512398},{"NoteNumber":67,"Velocity":48,"Duration":369231,"SoundDuration":369231,"Delta":130512398},{"NoteNumber":74,"Velocity":49,"Duration":390879,"SoundDuration":390879,"Delta":130881629},{"NoteNumber":65,"Velocity":45,"Duration":390879,"SoundDuration":390879,"Delta":130881629},{"NoteNumber":82,"Velocity":97,"Duration":186335,"SoundDuration":186335,"Delta":131272508},{"NoteNumber":50,"Velocity":68,"Duration":372670,"SoundDuration":372670,"Delta":131272508},{"NoteNumber":53,"Velocity":68,"Duration":372670,"SoundDuration":372670,"Delta":131272508},{"NoteNumber":58,"Velocity":68,"Duration":372670,"SoundDuration":372670,"Delta":131272508},{"NoteNumber":80,"Velocity":87,"Duration":186335,"SoundDuration":186335,"Delta":131458844},{"NoteNumber":77,"Velocity":48,"Duration":182927,"SoundDuration":182927,"Delta":132559814},{"NoteNumber":79,"Velocity":51,"Duration":274390,"SoundDuration":274390,"Delta":132742741},{"NoteNumber":63,"Velocity":46,"Duration":365853,"SoundDuration":365853,"Delta":132742741},{"NoteNumber":70,"Velocity":46,"Duration":365853,"SoundDuration":365853,"Delta":132742741},{"NoteNumber":75,"Velocity":48,"Duration":91463,"SoundDuration":91463,"Delta":133017132},{"NoteNumber":72,"Velocity":51,"Duration":274390,"SoundDuration":274390,"Delta":133108595},{"NoteNumber":68,"Velocity":43,"Duration":365854,"SoundDuration":365854,"Delta":133108595},{"NoteNumber":56,"Velocity":43,"Duration":365854,"SoundDuration":365854,"Delta":133108595},{"NoteNumber":77,"Velocity":48,"Duration":91463,"SoundDuration":91463,"Delta":133382986},{"NoteNumber":75,"Velocity":51,"Duration":370370,"SoundDuration":370370,"Delta":133474449},{"NoteNumber":58,"Velocity":46,"Duration":756222,"SoundDuration":756222,"Delta":133474449},{"NoteNumber":67,"Velocity":46,"Duration":370370,"SoundDuration":370370,"Delta":133474449},{"NoteNumber":74,"Velocity":48,"Duration":385851,"SoundDuration":385851,"Delta":133844819},{"NoteNumber":65,"Velocity":43,"Duration":385851,"SoundDuration":385851,"Delta":133844819},{"NoteNumber":67,"Velocity":69,"Duration":96462,"SoundDuration":96462,"Delta":134230671},{"NoteNumber":79,"Velocity":74,"Duration":475724,"SoundDuration":475724,"Delta":134327134},{"NoteNumber":75,"Velocity":56,"Duration":186335,"SoundDuration":186335,"Delta":134802859},{"NoteNumber":72,"Velocity":51,"Duration":186335,"SoundDuration":186335,"Delta":134989194},{"NoteNumber":67,"Velocity":44,"Duration":754837,"SoundDuration":754837,"Delta":134989194},{"NoteNumber":63,"Velocity":44,"Duration":754837,"SoundDuration":754837,"Delta":134989194},{"NoteNumber":72,"Velocity":47,"Duration":191082,"SoundDuration":191082,"Delta":135361865},{"NoteNumber":77,"Velocity":55,"Duration":368098,"SoundDuration":368098,"Delta":135744031},{"NoteNumber":71,"Velocity":49,"Duration":742703,"SoundDuration":742703,"Delta":135744031},{"NoteNumber":62,"Velocity":49,"Duration":746646,"SoundDuration":746646,"Delta":135744031},{"NoteNumber":80,"Velocity":56,"Duration":378548,"SoundDuration":378548,"Delta":136112129},{"NoteNumber":71,"Velocity":46,"Duration":189274,"SoundDuration":189274,"Delta":136490678},{"NoteNumber":65,"Velocity":46,"Duration":378549,"SoundDuration":378549,"Delta":136490678},{"NoteNumber":68,"Velocity":46,"Duration":378549,"SoundDuration":378549,"Delta":136490678},{"NoteNumber":71,"Velocity":46,"Duration":183485,"SoundDuration":183485,"Delta":137058502},{"NoteNumber":74,"Velocity":52,"Duration":183486,"SoundDuration":183486,"Delta":137241988},{"NoteNumber":67,"Velocity":40,"Duration":1463509,"SoundDuration":1463509,"Delta":137241988},{"NoteNumber":63,"Velocity":40,"Duration":366972,"SoundDuration":366972,"Delta":137241988},{"NoteNumber":72,"Velocity":49,"Duration":183485,"SoundDuration":183485,"Delta":137425474},{"NoteNumber":75,"Velocity":55,"Duration":183486,"SoundDuration":183486,"Delta":137608960},{"NoteNumber":59,"Velocity":42,"Duration":366972,"SoundDuration":366972,"Delta":137608960},{"NoteNumber":74,"Velocity":50,"Duration":183485,"SoundDuration":183485,"Delta":137792446},{"NoteNumber":77,"Velocity":58,"Duration":181268,"SoundDuration":181268,"Delta":137975932},{"NoteNumber":60,"Velocity":45,"Duration":362538,"SoundDuration":362538,"Delta":137975932},{"NoteNumber":75,"Velocity":53,"Duration":181269,"SoundDuration":181269,"Delta":138157201},{"NoteNumber":62,"Velocity":46,"Duration":367027,"SoundDuration":367027,"Delta":138338470},{"NoteNumber":71,"Velocity":46,"Duration":181268,"SoundDuration":181268,"Delta":138524228},{"NoteNumber":74,"Velocity":50,"Duration":181269,"SoundDuration":181269,"Delta":138705497},{"NoteNumber":67,"Velocity":42,"Duration":1088438,"SoundDuration":1088438,"Delta":138705497},{"NoteNumber":63,"Velocity":42,"Duration":362538,"SoundDuration":362538,"Delta":138705497},{"NoteNumber":72,"Velocity":48,"Duration":181268,"SoundDuration":181268,"Delta":138886766},{"NoteNumber":75,"Velocity":55,"Duration":181269,"SoundDuration":181269,"Delta":139068035},{"NoteNumber":59,"Velocity":46,"Duration":362538,"SoundDuration":362538,"Delta":139068035},{"NoteNumber":74,"Velocity":51,"Duration":181268,"SoundDuration":181268,"Delta":139249304},{"NoteNumber":77,"Velocity":58,"Duration":181360,"SoundDuration":181360,"Delta":139430573},{"NoteNumber":60,"Velocity":49,"Duration":363362,"SoundDuration":363362,"Delta":139430573},{"NoteNumber":75,"Velocity":51,"Duration":182002,"SoundDuration":182002,"Delta":139611934},{"NoteNumber":77,"Velocity":62,"Duration":182649,"SoundDuration":182649,"Delta":139793936},{"NoteNumber":76,"Velocity":56,"Duration":191693,"SoundDuration":191693,"Delta":139976585},{"NoteNumber":77,"Velocity":75,"Duration":545454,"SoundDuration":545454,"Delta":140168279},{"NoteNumber":74,"Velocity":44,"Duration":181817,"SoundDuration":181817,"Delta":140713733},{"NoteNumber":70,"Velocity":48,"Duration":181817,"SoundDuration":181817,"Delta":140895551},{"NoteNumber":65,"Velocity":41,"Duration":735153,"SoundDuration":735153,"Delta":140895551},{"NoteNumber":62,"Velocity":41,"Duration":735153,"SoundDuration":735153,"Delta":140895551},{"NoteNumber":70,"Velocity":48,"Duration":185758,"SoundDuration":185758,"Delta":141259187},{"NoteNumber":75,"Velocity":52,"Duration":364742,"SoundDuration":364742,"Delta":141630704},{"NoteNumber":69,"Velocity":49,"Duration":725684,"SoundDuration":725684,"Delta":141630704},{"NoteNumber":60,"Velocity":49,"Duration":729484,"SoundDuration":729484,"Delta":141630704},{"NoteNumber":78,"Velocity":49,"Duration":364742,"SoundDuration":364742,"Delta":141995446},{"NoteNumber":69,"Velocity":52,"Duration":185758,"SoundDuration":185758,"Delta":142360188},{"NoteNumber":66,"Velocity":40,"Duration":371517,"SoundDuration":371517,"Delta":142360188},{"NoteNumber":63,"Velocity":40,"Duration":371517,"SoundDuration":371517,"Delta":142360188},{"NoteNumber":69,"Velocity":44,"Duration":182927,"SoundDuration":182927,"Delta":142917463},{"NoteNumber":72,"Velocity":49,"Duration":182927,"SoundDuration":182927,"Delta":143100390},{"NoteNumber":61,"Velocity":42,"Duration":365853,"SoundDuration":365853,"Delta":143100390},{"NoteNumber":65,"Velocity":42,"Duration":1479562,"SoundDuration":1479562,"Delta":143100390},{"NoteNumber":70,"Velocity":47,"Duration":182926,"SoundDuration":182926,"Delta":143283317},{"NoteNumber":73,"Velocity":51,"Duration":182927,"SoundDuration":182927,"Delta":143466244},{"NoteNumber":57,"Velocity":44,"Duration":365854,"SoundDuration":365854,"Delta":143466244},{"NoteNumber":72,"Velocity":47,"Duration":182927,"SoundDuration":182927,"Delta":143649171},{"NoteNumber":75,"Velocity":54,"Duration":188679,"SoundDuration":188679,"Delta":143832098},{"NoteNumber":58,"Velocity":47,"Duration":377357,"SoundDuration":377357,"Delta":143832098},{"NoteNumber":73,"Velocity":51,"Duration":188678,"SoundDuration":188678,"Delta":144020777},{"NoteNumber":60,"Velocity":42,"Duration":370497,"SoundDuration":370497,"Delta":144209456},{"NoteNumber":69,"Velocity":45,"Duration":181817,"SoundDuration":181817,"Delta":144398135},{"NoteNumber":72,"Velocity":50,"Duration":181818,"SoundDuration":181818,"Delta":144579953},{"NoteNumber":61,"Velocity":43,"Duration":363636,"SoundDuration":363636,"Delta":144579953},{"NoteNumber":65,"Velocity":43,"Duration":1101103,"SoundDuration":1101103,"Delta":144579953},{"NoteNumber":70,"Velocity":45,"Duration":181817,"SoundDuration":181817,"Delta":144761771},{"NoteNumber":73,"Velocity":52,"Duration":181817,"SoundDuration":181817,"Delta":144943589},{"NoteNumber":57,"Velocity":46,"Duration":363635,"SoundDuration":363635,"Delta":144943589},{"NoteNumber":72,"Velocity":48,"Duration":181817,"SoundDuration":181817,"Delta":145125407},{"NoteNumber":75,"Velocity":55,"Duration":186915,"SoundDuration":186915,"Delta":145307225},{"NoteNumber":58,"Velocity":48,"Duration":373831,"SoundDuration":373831,"Delta":145307225},{"NoteNumber":73,"Velocity":50,"Duration":186915,"SoundDuration":186915,"Delta":145494141},{"NoteNumber":58,"Velocity":44,"Duration":368184,"SoundDuration":368184,"Delta":145681057},{"NoteNumber":65,"Velocity":44,"Duration":368184,"SoundDuration":368184,"Delta":145681057},{"NoteNumber":73,"Velocity":51,"Duration":90634,"SoundDuration":90634,"Delta":145867973},{"NoteNumber":73,"Velocity":55,"Duration":183485,"SoundDuration":183485,"Delta":146049242},{"NoteNumber":71,"Velocity":52,"Duration":183486,"SoundDuration":183486,"Delta":146232728},{"NoteNumber":65,"Velocity":49,"Duration":361446,"SoundDuration":361446,"Delta":146416214},{"NoteNumber":56,"Velocity":49,"Duration":361446,"SoundDuration":361446,"Delta":146416214},{"NoteNumber":71,"Velocity":48,"Duration":171686,"SoundDuration":171686,"Delta":146596937},{"NoteNumber":71,"Velocity":53,"Duration":182370,"SoundDuration":182370,"Delta":146777660},{"NoteNumber":70,"Velocity":49,"Duration":182371,"SoundDuration":182371,"Delta":146960031},{"NoteNumber":54,"Velocity":49,"Duration":361446,"SoundDuration":361446,"Delta":147142402},{"NoteNumber":61,"Velocity":49,"Duration":361446,"SoundDuration":361446,"Delta":147142402},{"NoteNumber":70,"Velocity":52,"Duration":171686,"SoundDuration":171686,"Delta":147323125},{"NoteNumber":70,"Velocity":71,"Duration":185184,"SoundDuration":185184,"Delta":147503848},{"NoteNumber":80,"Velocity":73,"Duration":185185,"SoundDuration":185185,"Delta":147689033},{"NoteNumber":53,"Velocity":49,"Duration":364754,"SoundDuration":364754,"Delta":147874218},{"NoteNumber":62,"Velocity":49,"Duration":364754,"SoundDuration":364754,"Delta":147874218},{"NoteNumber":80,"Velocity":74,"Duration":174311,"SoundDuration":174311,"Delta":148055487},{"NoteNumber":80,"Velocity":78,"Duration":183486,"SoundDuration":183486,"Delta":148238973},{"NoteNumber":78,"Velocity":75,"Duration":183485,"SoundDuration":183485,"Delta":148422459},{"NoteNumber":63,"Velocity":58,"Duration":363636,"SoundDuration":363636,"Delta":148605945},{"NoteNumber":51,"Velocity":58,"Duration":363636,"SoundDuration":363636,"Delta":148605945},{"NoteNumber":78,"Velocity":76,"Duration":172727,"SoundDuration":172727,"Delta":148787763},{"NoteNumber":78,"Velocity":81,"Duration":183485,"SoundDuration":183485,"Delta":148969581},{"NoteNumber":77,"Velocity":78,"Duration":183486,"SoundDuration":183486,"Delta":149153067},{"NoteNumber":53,"Velocity":66,"Duration":362538,"SoundDuration":362538,"Delta":149336553},{"NoteNumber":61,"Velocity":66,"Duration":362538,"SoundDuration":362538,"Delta":149336553},{"NoteNumber":77,"Velocity":84,"Duration":172205,"SoundDuration":172205,"Delta":149517822},{"NoteNumber":77,"Velocity":89,"Duration":182927,"SoundDuration":182927,"Delta":149699091},{"NoteNumber":76,"Velocity":84,"Duration":182927,"SoundDuration":182927,"Delta":149882018},{"NoteNumber":61,"Velocity":71,"Duration":365853,"SoundDuration":365853,"Delta":150064945},{"NoteNumber":54,"Velocity":71,"Duration":365853,"SoundDuration":365853,"Delta":150064945},{"NoteNumber":76,"Velocity":91,"Duration":182927,"SoundDuration":182927,"Delta":150247872},{"NoteNumber":82,"Velocity":93,"Duration":179640,"SoundDuration":179640,"Delta":150430799},{"NoteNumber":64,"Velocity":71,"Duration":719103,"SoundDuration":719103,"Delta":150430799},{"NoteNumber":54,"Velocity":71,"Duration":1445291,"SoundDuration":1445291,"Delta":150430799},{"NoteNumber":84,"Velocity":76,"Duration":59880,"SoundDuration":59880,"Delta":150610440},{"NoteNumber":82,"Velocity":78,"Duration":59880,"SoundDuration":59880,"Delta":150670320},{"NoteNumber":81,"Velocity":80,"Duration":59880,"SoundDuration":59880,"Delta":150730200},{"NoteNumber":82,"Velocity":79,"Duration":179640,"SoundDuration":179640,"Delta":150790080},{"NoteNumber":84,"Velocity":86,"Duration":180181,"SoundDuration":180181,"Delta":150969721},{"NoteNumber":85,"Velocity":92,"Duration":361446,"SoundDuration":361446,"Delta":151149902},{"NoteNumber":58,"Velocity":76,"Duration":726188,"SoundDuration":726188,"Delta":151149902},{"NoteNumber":76,"Velocity":89,"Duration":364742,"SoundDuration":364742,"Delta":151511348},{"NoteNumber":77,"Velocity":91,"Duration":180723,"SoundDuration":180723,"Delta":151876090},{"NoteNumber":57,"Velocity":74,"Duration":722892,"SoundDuration":722892,"Delta":151876090},{"NoteNumber":53,"Velocity":74,"Duration":1453590,"SoundDuration":1453590,"Delta":151876090},{"NoteNumber":76,"Velocity":79,"Duration":180723,"SoundDuration":180723,"Delta":152056813},{"NoteNumber":77,"Velocity":85,"Duration":180723,"SoundDuration":180723,"Delta":152237536},{"NoteNumber":72,"Velocity":74,"Duration":180723,"SoundDuration":180723,"Delta":152418259},{"NoteNumber":75,"Velocity":78,"Duration":180587,"SoundDuration":180587,"Delta":152598982},{"NoteNumber":58,"Velocity":65,"Duration":730698,"SoundDuration":730698,"Delta":152598982},{"NoteNumber":73,"Velocity":70,"Duration":181911,"SoundDuration":181911,"Delta":152779570},{"NoteNumber":72,"Velocity":68,"Duration":183393,"SoundDuration":183393,"Delta":152961481},{"NoteNumber":70,"Velocity":64,"Duration":184806,"SoundDuration":184806,"Delta":153144875},{"NoteNumber":78,"Velocity":76,"Duration":180723,"SoundDuration":180723,"Delta":153329681},{"NoteNumber":57,"Velocity":59,"Duration":722892,"SoundDuration":722892,"Delta":153329681},{"NoteNumber":53,"Velocity":59,"Duration":1465925,"SoundDuration":1465925,"Delta":153329681},{"NoteNumber":77,"Velocity":71,"Duration":180723,"SoundDuration":180723,"Delta":153510404},{"NoteNumber":76,"Velocity":71,"Duration":180723,"SoundDuration":180723,"Delta":153691127},{"NoteNumber":77,"Velocity":61,"Duration":180723,"SoundDuration":180723,"Delta":153871850},{"NoteNumber":75,"Velocity":66,"Duration":185758,"SoundDuration":185758,"Delta":154052573},{"NoteNumber":58,"Velocity":47,"Duration":743033,"SoundDuration":743033,"Delta":154052573},{"NoteNumber":73,"Velocity":60,"Duration":185758,"SoundDuration":185758,"Delta":154238332},{"NoteNumber":72,"Velocity":56,"Duration":185758,"SoundDuration":185758,"Delta":154424090},{"NoteNumber":70,"Velocity":53,"Duration":185758,"SoundDuration":185758,"Delta":154609849},{"NoteNumber":69,"Velocity":50,"Duration":371517,"SoundDuration":371517,"Delta":154795607},{"NoteNumber":72,"Velocity":50,"Duration":371517,"SoundDuration":371517,"Delta":154795607},{"NoteNumber":65,"Velocity":47,"Duration":176470,"SoundDuration":176470,"Delta":154795607},{"NoteNumber":65,"Velocity":47,"Duration":185758,"SoundDuration":185758,"Delta":154981366},{"NoteNumber":70,"Velocity":62,"Duration":364742,"SoundDuration":364742,"Delta":155167124},{"NoteNumber":73,"Velocity":62,"Duration":364742,"SoundDuration":364742,"Delta":155167124},{"NoteNumber":65,"Velocity":45,"Duration":173252,"SoundDuration":173252,"Delta":155349495},{"NoteNumber":72,"Velocity":57,"Duration":364742,"SoundDuration":364742,"Delta":155531866},{"NoteNumber":69,"Velocity":57,"Duration":364742,"SoundDuration":364742,"Delta":155531866},{"NoteNumber":65,"Velocity":47,"Duration":173252,"SoundDuration":173252,"Delta":155531866},{"NoteNumber":65,"Velocity":47,"Duration":182371,"SoundDuration":182371,"Delta":155714237},{"NoteNumber":70,"Velocity":62,"Duration":376175,"SoundDuration":376175,"Delta":155896608},{"NoteNumber":76,"Velocity":62,"Duration":376175,"SoundDuration":376175,"Delta":155896608},{"NoteNumber":65,"Velocity":44,"Duration":178683,"SoundDuration":178683,"Delta":156084696},{"NoteNumber":77,"Velocity":65,"Duration":369231,"SoundDuration":369231,"Delta":156272784},{"NoteNumber":69,"Velocity":65,"Duration":369231,"SoundDuration":369231,"Delta":156272784},{"NoteNumber":65,"Velocity":47,"Duration":175384,"SoundDuration":175384,"Delta":156272784},{"NoteNumber":65,"Velocity":47,"Duration":184615,"SoundDuration":184615,"Delta":156457400},{"NoteNumber":73,"Velocity":62,"Duration":362538,"SoundDuration":362538,"Delta":156642015},{"NoteNumber":70,"Velocity":62,"Duration":362538,"SoundDuration":362538,"Delta":156642015},{"NoteNumber":65,"Velocity":44,"Duration":172205,"SoundDuration":172205,"Delta":156823284},{"NoteNumber":72,"Velocity":57,"Duration":372962,"SoundDuration":372962,"Delta":157004553},{"NoteNumber":69,"Velocity":57,"Duration":372962,"SoundDuration":372962,"Delta":157004553},{"NoteNumber":65,"Velocity":47,"Duration":172205,"SoundDuration":172205,"Delta":157004553},{"NoteNumber":65,"Velocity":47,"Duration":191693,"SoundDuration":191693,"Delta":157185822},{"NoteNumber":70,"Velocity":62,"Duration":368098,"SoundDuration":368098,"Delta":157377516},{"NoteNumber":76,"Velocity":62,"Duration":368098,"SoundDuration":368098,"Delta":157377516},{"NoteNumber":65,"Velocity":47,"Duration":174846,"SoundDuration":174846,"Delta":157561565},{"NoteNumber":77,"Velocity":68,"Duration":172727,"SoundDuration":172727,"Delta":157745614},{"NoteNumber":69,"Velocity":68,"Duration":172727,"SoundDuration":172727,"Delta":157745614},{"NoteNumber":53,"Velocity":53,"Duration":356817,"SoundDuration":356817,"Delta":157745614},{"NoteNumber":65,"Velocity":53,"Duration":356817,"SoundDuration":356817,"Delta":157745614},{"NoteNumber":77,"Velocity":68,"Duration":181818,"SoundDuration":181818,"Delta":157927432},{"NoteNumber":53,"Velocity":50,"Duration":363635,"SoundDuration":363635,"Delta":158109250},{"NoteNumber":57,"Velocity":50,"Duration":363635,"SoundDuration":363635,"Delta":158109250},{"NoteNumber":77,"Velocity":60,"Duration":172727,"SoundDuration":172727,"Delta":158291068},{"NoteNumber":77,"Velocity":64,"Duration":172727,"SoundDuration":172727,"Delta":158472886},{"NoteNumber":77,"Velocity":60,"Duration":181818,"SoundDuration":181818,"Delta":158654704},{"NoteNumber":53,"Velocity":50,"Duration":363635,"SoundDuration":363635,"Delta":158836522},{"NoteNumber":57,"Velocity":50,"Duration":363635,"SoundDuration":363635,"Delta":158836522},{"NoteNumber":77,"Velocity":60,"Duration":172727,"SoundDuration":172727,"Delta":159018340},{"NoteNumber":77,"Velocity":63,"Duration":172727,"SoundDuration":172727,"Delta":159200158},{"NoteNumber":53,"Velocity":53,"Duration":356817,"SoundDuration":356817,"Delta":159200158},{"NoteNumber":55,"Velocity":53,"Duration":356817,"SoundDuration":356817,"Delta":159200158},{"NoteNumber":58,"Velocity":53,"Duration":356817,"SoundDuration":356817,"Delta":159200158},{"NoteNumber":77,"Velocity":60,"Duration":181818,"SoundDuration":181818,"Delta":159381976},{"NoteNumber":53,"Velocity":50,"Duration":363635,"SoundDuration":363635,"Delta":159563794},{"NoteNumber":58,"Velocity":50,"Duration":363635,"SoundDuration":363635,"Delta":159563794},{"NoteNumber":55,"Velocity":50,"Duration":363635,"SoundDuration":363635,"Delta":159563794},{"NoteNumber":77,"Velocity":64,"Duration":172727,"SoundDuration":172727,"Delta":159745612},{"NoteNumber":77,"Velocity":67,"Duration":172727,"SoundDuration":172727,"Delta":159927430},{"NoteNumber":77,"Velocity":64,"Duration":181818,"SoundDuration":181818,"Delta":160109248},{"NoteNumber":53,"Velocity":54,"Duration":363635,"SoundDuration":363635,"Delta":160291066},{"NoteNumber":59,"Velocity":54,"Duration":363635,"SoundDuration":363635,"Delta":160291066},{"NoteNumber":56,"Velocity":54,"Duration":363635,"SoundDuration":363635,"Delta":160291066},{"NoteNumber":77,"Velocity":69,"Duration":172727,"SoundDuration":172727,"Delta":160472884},{"NoteNumber":77,"Velocity":72,"Duration":172406,"SoundDuration":172406,"Delta":160654702},{"NoteNumber":53,"Velocity":55,"Duration":732204,"SoundDuration":732204,"Delta":160654702},{"NoteNumber":60,"Velocity":55,"Duration":364008,"SoundDuration":364008,"Delta":160654702},{"NoteNumber":57,"Velocity":55,"Duration":364008,"SoundDuration":364008,"Delta":160654702},{"NoteNumber":77,"Velocity":74,"Duration":182510,"SoundDuration":182510,"Delta":160836200},{"NoteNumber":57,"Velocity":61,"Duration":368196,"SoundDuration":368196,"Delta":161018710},{"NoteNumber":61,"Velocity":61,"Duration":368196,"SoundDuration":368196,"Delta":161018710},{"NoteNumber":77,"Velocity":79,"Duration":175356,"SoundDuration":175356,"Delta":161202290},{"NoteNumber":77,"Velocity":82,"Duration":176346,"SoundDuration":176346,"Delta":161386907},{"NoteNumber":53,"Velocity":66,"Duration":749254,"SoundDuration":749254,"Delta":161386907},{"NoteNumber":62,"Velocity":66,"Duration":372434,"SoundDuration":372434,"Delta":161386907},{"NoteNumber":58,"Velocity":66,"Duration":372434,"SoundDuration":372434,"Delta":161386907},{"NoteNumber":77,"Velocity":84,"Duration":186771,"SoundDuration":186771,"Delta":161572570},{"NoteNumber":59,"Velocity":71,"Duration":376819,"SoundDuration":376819,"Delta":161759341},{"NoteNumber":62,"Velocity":71,"Duration":376819,"SoundDuration":376819,"Delta":161759341},{"NoteNumber":77,"Velocity":86,"Duration":179513,"SoundDuration":179513,"Delta":161947184},{"NoteNumber":77,"Velocity":86,"Duration":91185,"SoundDuration":91185,"Delta":162136161},{"NoteNumber":63,"Velocity":77,"Duration":1458967,"SoundDuration":1458967,"Delta":162136161},{"NoteNumber":60,"Velocity":77,"Duration":1458967,"SoundDuration":1458967,"Delta":162136161},{"NoteNumber":53,"Velocity":77,"Duration":1458967,"SoundDuration":1458967,"Delta":162136161},{"NoteNumber":65,"Velocity":67,"Duration":182371,"SoundDuration":182371,"Delta":162318532},{"NoteNumber":64,"Velocity":66,"Duration":182370,"SoundDuration":182370,"Delta":162500903},{"NoteNumber":65,"Velocity":65,"Duration":182371,"SoundDuration":182371,"Delta":162683274},{"NoteNumber":66,"Velocity":64,"Duration":182370,"SoundDuration":182370,"Delta":162865645},{"NoteNumber":67,"Velocity":63,"Duration":182370,"SoundDuration":182370,"Delta":163048016},{"NoteNumber":68,"Velocity":62,"Duration":182371,"SoundDuration":182371,"Delta":163230387},{"NoteNumber":69,"Velocity":61,"Duration":182370,"SoundDuration":182370,"Delta":163412758},{"NoteNumber":70,"Velocity":60,"Duration":182370,"SoundDuration":182370,"Delta":163595129},{"NoteNumber":71,"Velocity":59,"Duration":182371,"SoundDuration":182371,"Delta":163777500},{"NoteNumber":72,"Velocity":58,"Duration":182370,"SoundDuration":182370,"Delta":163959871},{"NoteNumber":73,"Velocity":57,"Duration":182371,"SoundDuration":182371,"Delta":164142242},{"NoteNumber":74,"Velocity":56,"Duration":184616,"SoundDuration":184616,"Delta":164324613},{"NoteNumber":75,"Velocity":55,"Duration":185562,"SoundDuration":185562,"Delta":164509230},{"NoteNumber":76,"Velocity":54,"Duration":189855,"SoundDuration":189855,"Delta":164694792},{"NoteNumber":77,"Velocity":52,"Duration":223088,"SoundDuration":223088,"Delta":164884647},{"NoteNumber":77,"Velocity":66,"Duration":545454,"SoundDuration":545454,"Delta":165116455},{"NoteNumber":58,"Velocity":42,"Duration":363635,"SoundDuration":363635,"Delta":165479334},{"NoteNumber":74,"Velocity":53,"Duration":181817,"SoundDuration":181817,"Delta":165661152},{"NoteNumber":70,"Velocity":55,"Duration":90909,"SoundDuration":90909,"Delta":165842970},{"NoteNumber":62,"Velocity":48,"Duration":90909,"SoundDuration":90909,"Delta":165842970},{"NoteNumber":70,"Velocity":55,"Duration":94339,"SoundDuration":94339,"Delta":166206606},{"NoteNumber":67,"Velocity":46,"Duration":94339,"SoundDuration":94339,"Delta":166206606},{"NoteNumber":75,"Velocity":60,"Duration":363636,"SoundDuration":363636,"Delta":166583964},{"NoteNumber":60,"Velocity":52,"Duration":363636,"SoundDuration":363636,"Delta":166583964},{"NoteNumber":79,"Velocity":55,"Duration":90908,"SoundDuration":90908,"Delta":166947600},{"NoteNumber":63,"Velocity":46,"Duration":90908,"SoundDuration":90908,"Delta":166947600},{"NoteNumber":69,"Velocity":57,"Duration":366972,"SoundDuration":366972,"Delta":167311236},{"NoteNumber":65,"Velocity":48,"Duration":366972,"SoundDuration":366972,"Delta":167311236},{"NoteNumber":63,"Velocity":47,"Duration":366972,"SoundDuration":366972,"Delta":167678208},{"NoteNumber":72,"Velocity":55,"Duration":181817,"SoundDuration":181817,"Delta":168045180},{"NoteNumber":62,"Velocity":53,"Duration":363636,"SoundDuration":363636,"Delta":168045180},{"NoteNumber":70,"Velocity":53,"Duration":90909,"SoundDuration":90909,"Delta":168226998},{"NoteNumber":74,"Velocity":57,"Duration":181817,"SoundDuration":181817,"Delta":168408816},{"NoteNumber":57,"Velocity":47,"Duration":363635,"SoundDuration":363635,"Delta":168408816},{"NoteNumber":72,"Velocity":54,"Duration":90908,"SoundDuration":90908,"Delta":168590634},{"NoteNumber":75,"Velocity":58,"Duration":181817,"SoundDuration":181817,"Delta":168772452},{"NoteNumber":58,"Velocity":51,"Duration":363636,"SoundDuration":363636,"Delta":168772452},{"NoteNumber":74,"Velocity":56,"Duration":90909,"SoundDuration":90909,"Delta":168954270},{"NoteNumber":77,"Velocity":60,"Duration":184615,"SoundDuration":184615,"Delta":169136088},{"NoteNumber":51,"Velocity":51,"Duration":369231,"SoundDuration":369231,"Delta":169136088},{"NoteNumber":60,"Velocity":51,"Duration":369231,"SoundDuration":369231,"Delta":169136088},{"NoteNumber":75,"Velocity":57,"Duration":92307,"SoundDuration":92307,"Delta":169320703},{"NoteNumber":74,"Velocity":60,"Duration":548780,"SoundDuration":548780,"Delta":169505319},{"NoteNumber":58,"Velocity":52,"Duration":731707,"SoundDuration":731707,"Delta":169505319},{"NoteNumber":53,"Velocity":52,"Duration":1102687,"SoundDuration":1102687,"Delta":169505319},{"NoteNumber":75,"Velocity":57,"Duration":91463,"SoundDuration":91463,"Delta":170054100},{"NoteNumber":74,"Velocity":55,"Duration":91463,"SoundDuration":91463,"Delta":170145563},{"NoteNumber":72,"Velocity":52,"Duration":182927,"SoundDuration":182927,"Delta":170237027},{"NoteNumber":57,"Velocity":47,"Duration":370979,"SoundDuration":370979,"Delta":170237027},{"NoteNumber":74,"Velocity":54,"Duration":188052,"SoundDuration":188052,"Delta":170419954},{"NoteNumber":75,"Velocity":55,"Duration":190125,"SoundDuration":190125,"Delta":170608006},{"NoteNumber":76,"Velocity":57,"Duration":191848,"SoundDuration":191848,"Delta":170798132},{"NoteNumber":77,"Velocity":59,"Duration":545454,"SoundDuration":545454,"Delta":170989980},{"NoteNumber":58,"Velocity":45,"Duration":363635,"SoundDuration":363635,"Delta":171353616},{"NoteNumber":75,"Velocity":53,"Duration":60606,"SoundDuration":60606,"Delta":171535434},{"NoteNumber":74,"Velocity":53,"Duration":60605,"SoundDuration":60605,"Delta":171596040},{"NoteNumber":72,"Velocity":53,"Duration":60606,"SoundDuration":60606,"Delta":171656646},{"NoteNumber":70,"Velocity":56,"Duration":90090,"SoundDuration":90090,"Delta":171717252},{"NoteNumber":62,"Velocity":47,"Duration":90090,"SoundDuration":90090,"Delta":171717252},{"NoteNumber":70,"Velocity":56,"Duration":92879,"SoundDuration":92879,"Delta":172077612},{"NoteNumber":67,"Velocity":47,"Duration":92879,"SoundDuration":92879,"Delta":172077612},{"NoteNumber":75,"Velocity":60,"Duration":363636,"SoundDuration":363636,"Delta":172449129},{"NoteNumber":60,"Velocity":51,"Duration":363636,"SoundDuration":363636,"Delta":172449129},{"NoteNumber":79,"Velocity":55,"Duration":90908,"SoundDuration":90908,"Delta":172812765},{"NoteNumber":63,"Velocity":46,"Duration":90908,"SoundDuration":90908,"Delta":172812765},{"NoteNumber":69,"Velocity":58,"Duration":363636,"SoundDuration":363636,"Delta":173176401},{"NoteNumber":65,"Velocity":48,"Duration":363636,"SoundDuration":363636,"Delta":173176401},{"NoteNumber":63,"Velocity":48,"Duration":363635,"SoundDuration":363635,"Delta":173540037},{"NoteNumber":69,"Velocity":54,"Duration":181817,"SoundDuration":181817,"Delta":173721855},{"NoteNumber":70,"Velocity":58,"Duration":181360,"SoundDuration":181360,"Delta":173903673},{"NoteNumber":62,"Velocity":51,"Duration":363408,"SoundDuration":363408,"Delta":173903673},{"NoteNumber":74,"Velocity":55,"Duration":90909,"SoundDuration":90909,"Delta":174085034},{"NoteNumber":67,"Velocity":58,"Duration":182741,"SoundDuration":182741,"Delta":174267082},{"NoteNumber":51,"Velocity":47,"Duration":366274,"SoundDuration":366274,"Delta":174267082},{"NoteNumber":63,"Velocity":47,"Duration":366274,"SoundDuration":366274,"Delta":174267082},{"NoteNumber":72,"Velocity":55,"Duration":91696,"SoundDuration":91696,"Delta":174449824},{"NoteNumber":70,"Velocity":58,"Duration":375000,"SoundDuration":375000,"Delta":174633357},{"NoteNumber":62,"Velocity":50,"Duration":375000,"SoundDuration":375000,"Delta":174633357},{"NoteNumber":53,"Velocity":50,"Duration":750000,"SoundDuration":750000,"Delta":174633357},{"NoteNumber":69,"Velocity":55,"Duration":375000,"SoundDuration":375000,"Delta":175008357},{"NoteNumber":60,"Velocity":48,"Duration":375000,"SoundDuration":375000,"Delta":175008357},{"NoteNumber":70,"Velocity":58,"Duration":187500,"SoundDuration":187500,"Delta":175383357},{"NoteNumber":58,"Velocity":51,"Duration":370287,"SoundDuration":370287,"Delta":175383357},{"NoteNumber":65,"Velocity":56,"Duration":91463,"SoundDuration":91463,"Delta":175570857},{"NoteNumber":67,"Velocity":60,"Duration":91185,"SoundDuration":91185,"Delta":175753645},{"NoteNumber":69,"Velocity":63,"Duration":90771,"SoundDuration":90771,"Delta":175935739},{"NoteNumber":70,"Velocity":67,"Duration":90361,"SoundDuration":90361,"Delta":176117146},{"NoteNumber":72,"Velocity":70,"Duration":90090,"SoundDuration":90090,"Delta":176297733},{"NoteNumber":74,"Velocity":74,"Duration":89686,"SoundDuration":89686,"Delta":176477643},{"NoteNumber":75,"Velocity":77,"Duration":95846,"SoundDuration":95846,"Delta":176656837},{"NoteNumber":58,"Velocity":64,"Duration":181817,"SoundDuration":181817,"Delta":176848531},{"NoteNumber":77,"Velocity":85,"Duration":545454,"SoundDuration":545454,"Delta":176849288},{"NoteNumber":65,"Velocity":56,"Duration":181818,"SoundDuration":181818,"Delta":177030349},{"NoteNumber":62,"Velocity":59,"Duration":181817,"SoundDuration":181817,"Delta":177212167},{"NoteNumber":74,"Velocity":74,"Duration":181817,"SoundDuration":181817,"Delta":177393985},{"NoteNumber":65,"Velocity":56,"Duration":181817,"SoundDuration":181817,"Delta":177393985},{"NoteNumber":70,"Velocity":78,"Duration":181817,"SoundDuration":181817,"Delta":177575803},{"NoteNumber":55,"Velocity":63,"Duration":181817,"SoundDuration":181817,"Delta":177575803},{"NoteNumber":62,"Velocity":57,"Duration":181818,"SoundDuration":181818,"Delta":177757621},{"NoteNumber":70,"Velocity":78,"Duration":185184,"SoundDuration":185184,"Delta":177939439},{"NoteNumber":58,"Velocity":59,"Duration":185184,"SoundDuration":185184,"Delta":177939439},{"NoteNumber":62,"Velocity":56,"Duration":185185,"SoundDuration":185185,"Delta":178124624},{"NoteNumber":75,"Velocity":85,"Duration":72727,"SoundDuration":72727,"Delta":178309809},{"NoteNumber":51,"Velocity":64,"Duration":181817,"SoundDuration":181817,"Delta":178309809},{"NoteNumber":77,"Velocity":61,"Duration":72727,"SoundDuration":72727,"Delta":178382536},{"NoteNumber":75,"Velocity":61,"Duration":72727,"SoundDuration":72727,"Delta":178455263},{"NoteNumber":60,"Velocity":56,"Duration":181818,"SoundDuration":181818,"Delta":178491627},{"NoteNumber":74,"Velocity":61,"Duration":72727,"SoundDuration":72727,"Delta":178527990},{"NoteNumber":75,"Velocity":61,"Duration":72727,"SoundDuration":72727,"Delta":178600718},{"NoteNumber":79,"Velocity":78,"Duration":363635,"SoundDuration":363635,"Delta":178673445},{"NoteNumber":55,"Velocity":59,"Duration":181817,"SoundDuration":181817,"Delta":178673445},{"NoteNumber":60,"Velocity":56,"Duration":181817,"SoundDuration":181817,"Delta":178855263},{"NoteNumber":69,"Velocity":81,"Duration":366972,"SoundDuration":366972,"Delta":179037081},{"NoteNumber":53,"Velocity":64,"Duration":183485,"SoundDuration":183485,"Delta":179037081},{"NoteNumber":63,"Velocity":57,"Duration":183486,"SoundDuration":183486,"Delta":179220567},{"NoteNumber":60,"Velocity":60,"Duration":183485,"SoundDuration":183485,"Delta":179404053},{"NoteNumber":63,"Velocity":57,"Duration":183486,"SoundDuration":183486,"Delta":179587539},{"NoteNumber":72,"Velocity":78,"Duration":181817,"SoundDuration":181817,"Delta":179771025},{"NoteNumber":62,"Velocity":66,"Duration":363636,"SoundDuration":363636,"Delta":179771025},{"NoteNumber":70,"Velocity":73,"Duration":90909,"SoundDuration":90909,"Delta":179952843},{"NoteNumber":74,"Velocity":81,"Duration":181817,"SoundDuration":181817,"Delta":180134661},{"NoteNumber":65,"Velocity":60,"Duration":727271,"SoundDuration":727271,"Delta":180134661},{"NoteNumber":57,"Velocity":60,"Duration":363635,"SoundDuration":363635,"Delta":180134661},{"NoteNumber":72,"Velocity":75,"Duration":90908,"SoundDuration":90908,"Delta":180316479},{"NoteNumber":75,"Velocity":82,"Duration":181817,"SoundDuration":181817,"Delta":180498297},{"NoteNumber":58,"Velocity":64,"Duration":363636,"SoundDuration":363636,"Delta":180498297},{"NoteNumber":74,"Velocity":77,"Duration":90909,"SoundDuration":90909,"Delta":180680115},{"NoteNumber":77,"Velocity":85,"Duration":184615,"SoundDuration":184615,"Delta":180861933},{"NoteNumber":51,"Velocity":58,"Duration":369231,"SoundDuration":369231,"Delta":180861933},{"NoteNumber":60,"Velocity":58,"Duration":369231,"SoundDuration":369231,"Delta":180861933},{"NoteNumber":75,"Velocity":81,"Duration":92307,"SoundDuration":92307,"Delta":181046548},{"NoteNumber":74,"Velocity":85,"Duration":548780,"SoundDuration":548780,"Delta":181231164},{"NoteNumber":58,"Velocity":65,"Duration":731707,"SoundDuration":731707,"Delta":181231164},{"NoteNumber":53,"Velocity":65,"Duration":1102687,"SoundDuration":1102687,"Delta":181231164},{"NoteNumber":75,"Velocity":81,"Duration":91463,"SoundDuration":91463,"Delta":181779945},{"NoteNumber":74,"Velocity":76,"Duration":91463,"SoundDuration":91463,"Delta":181871408},{"NoteNumber":72,"Velocity":73,"Duration":182927,"SoundDuration":182927,"Delta":181962872},{"NoteNumber":57,"Velocity":60,"Duration":370979,"SoundDuration":370979,"Delta":181962872},{"NoteNumber":74,"Velocity":77,"Duration":188052,"SoundDuration":188052,"Delta":182145799},{"NoteNumber":75,"Velocity":78,"Duration":190125,"SoundDuration":190125,"Delta":182333851},{"NoteNumber":76,"Velocity":81,"Duration":191848,"SoundDuration":191848,"Delta":182523977},{"NoteNumber":77,"Velocity":83,"Duration":545454,"SoundDuration":545454,"Delta":182715825},{"NoteNumber":58,"Velocity":65,"Duration":181817,"SoundDuration":181817,"Delta":182715825},{"NoteNumber":65,"Velocity":57,"Duration":181818,"SoundDuration":181818,"Delta":182897643},{"NoteNumber":62,"Velocity":60,"Duration":181817,"SoundDuration":181817,"Delta":183079461},{"NoteNumber":75,"Velocity":74,"Duration":60606,"SoundDuration":60606,"Delta":183261279},{"NoteNumber":65,"Velocity":56,"Duration":181817,"SoundDuration":181817,"Delta":183261279},{"NoteNumber":74,"Velocity":74,"Duration":60605,"SoundDuration":60605,"Delta":183321885},{"NoteNumber":72,"Velocity":74,"Duration":60606,"SoundDuration":60606,"Delta":183382491},{"NoteNumber":70,"Velocity":79,"Duration":90090,"SoundDuration":90090,"Delta":183443097},{"NoteNumber":55,"Velocity":64,"Duration":90090,"SoundDuration":90090,"Delta":183443097},{"NoteNumber":70,"Velocity":76,"Duration":90090,"SoundDuration":90090,"Delta":183623277},{"NoteNumber":62,"Velocity":57,"Duration":90090,"SoundDuration":90090,"Delta":183623277},{"NoteNumber":70,"Velocity":79,"Duration":92879,"SoundDuration":92879,"Delta":183803457},{"NoteNumber":58,"Velocity":60,"Duration":92879,"SoundDuration":92879,"Delta":183803457},{"NoteNumber":70,"Velocity":77,"Duration":92879,"SoundDuration":92879,"Delta":183989216},{"NoteNumber":62,"Velocity":57,"Duration":92879,"SoundDuration":92879,"Delta":183989216},{"NoteNumber":75,"Velocity":85,"Duration":72727,"SoundDuration":72727,"Delta":184174974},{"NoteNumber":51,"Velocity":64,"Duration":181817,"SoundDuration":181817,"Delta":184174974},{"NoteNumber":77,"Velocity":61,"Duration":72727,"SoundDuration":72727,"Delta":184247701},{"NoteNumber":75,"Velocity":61,"Duration":72727,"SoundDuration":72727,"Delta":184320429},{"NoteNumber":60,"Velocity":56,"Duration":181818,"SoundDuration":181818,"Delta":184356792},{"NoteNumber":74,"Velocity":61,"Duration":72727,"SoundDuration":72727,"Delta":184393156},{"NoteNumber":75,"Velocity":61,"Duration":72727,"SoundDuration":72727,"Delta":184465883},{"NoteNumber":79,"Velocity":78,"Duration":363635,"SoundDuration":363635,"Delta":184538610},{"NoteNumber":55,"Velocity":59,"Duration":181817,"SoundDuration":181817,"Delta":184538610},{"NoteNumber":60,"Velocity":56,"Duration":181817,"SoundDuration":181817,"Delta":184720428},{"NoteNumber":69,"Velocity":82,"Duration":363636,"SoundDuration":363636,"Delta":184902246},{"NoteNumber":53,"Velocity":64,"Duration":181817,"SoundDuration":181817,"Delta":184902246},{"NoteNumber":63,"Velocity":56,"Duration":181818,"SoundDuration":181818,"Delta":185084064},{"NoteNumber":60,"Velocity":59,"Duration":185184,"SoundDuration":185184,"Delta":185265882},{"NoteNumber":81,"Velocity":77,"Duration":180723,"SoundDuration":180723,"Delta":185451067},{"NoteNumber":63,"Velocity":55,"Duration":180723,"SoundDuration":180723,"Delta":185451067},{"NoteNumber":82,"Velocity":85,"Duration":120482,"SoundDuration":120482,"Delta":185631790},{"NoteNumber":58,"Velocity":59,"Duration":722892,"SoundDuration":722892,"Delta":185631790},{"NoteNumber":50,"Velocity":59,"Duration":361446,"SoundDuration":361446,"Delta":185631790},{"NoteNumber":77,"Velocity":75,"Duration":120481,"SoundDuration":120481,"Delta":185752272},{"NoteNumber":74,"Velocity":74,"Duration":120482,"SoundDuration":120482,"Delta":185872754},{"NoteNumber":79,"Velocity":84,"Duration":120482,"SoundDuration":120482,"Delta":185993236},{"NoteNumber":51,"Velocity":57,"Duration":361446,"SoundDuration":361446,"Delta":185993236},{"NoteNumber":75,"Velocity":76,"Duration":120481,"SoundDuration":120481,"Delta":186113718},{"NoteNumber":72,"Velocity":75,"Duration":120482,"SoundDuration":120482,"Delta":186234200},{"NoteNumber":77,"Velocity":84,"Duration":120482,"SoundDuration":120482,"Delta":186354682},{"NoteNumber":62,"Velocity":59,"Duration":361991,"SoundDuration":361991,"Delta":186354682},{"NoteNumber":53,"Velocity":59,"Duration":726180,"SoundDuration":726180,"Delta":186354682},{"NoteNumber":74,"Velocity":76,"Duration":120663,"SoundDuration":120663,"Delta":186475164},{"NoteNumber":70,"Velocity":77,"Duration":120846,"SoundDuration":120846,"Delta":186595828},{"NoteNumber":75,"Velocity":84,"Duration":121212,"SoundDuration":121212,"Delta":186716674},{"NoteNumber":63,"Velocity":57,"Duration":364188,"SoundDuration":364188,"Delta":186716674},{"NoteNumber":72,"Velocity":76,"Duration":121396,"SoundDuration":121396,"Delta":186837886},{"NoteNumber":69,"Velocity":75,"Duration":121580,"SoundDuration":121580,"Delta":186959282},{"NoteNumber":70,"Velocity":83,"Duration":390879,"SoundDuration":390879,"Delta":187080863},{"NoteNumber":58,"Velocity":59,"Duration":390879,"SoundDuration":390879,"Delta":187080863},{"NoteNumber":62,"Velocity":59,"Duration":390879,"SoundDuration":390879,"Delta":187080863},{"NoteNumber":46,"Velocity":63,"Duration":385312,"SoundDuration":385312,"Delta":187471742},{"NoteNumber":65,"Velocity":55,"Duration":189873,"SoundDuration":189873,"Delta":187667182},{"NoteNumber":70,"Velocity":58,"Duration":94936,"SoundDuration":94936,"Delta":187857055},{"NoteNumber":69,"Velocity":53,"Duration":94936,"SoundDuration":94936,"Delta":188046929},{"NoteNumber":70,"Velocity":55,"Duration":94936,"SoundDuration":94936,"Delta":188236802},{"NoteNumber":72,"Velocity":52,"Duration":94936,"SoundDuration":94936,"Delta":188426676},{"NoteNumber":74,"Velocity":55,"Duration":99337,"SoundDuration":99337,"Delta":188616549},{"NoteNumber":70,"Velocity":56,"Duration":145631,"SoundDuration":145631,"Delta":189013900},{"NoteNumber":74,"Velocity":56,"Duration":145631,"SoundDuration":145631,"Delta":189013900},{"NoteNumber":58,"Velocity":47,"Duration":145631,"SoundDuration":145631,"Delta":189013900},{"NoteNumber":70,"Velocity":59,"Duration":388350,"SoundDuration":388350,"Delta":189402250},{"NoteNumber":74,"Velocity":59,"Duration":388350,"SoundDuration":388350,"Delta":189402250},{"NoteNumber":55,"Velocity":48,"Duration":388350,"SoundDuration":388350,"Delta":189402250},{"NoteNumber":72,"Velocity":55,"Duration":392156,"SoundDuration":392156,"Delta":189790600},{"NoteNumber":75,"Velocity":55,"Duration":392156,"SoundDuration":392156,"Delta":189790600},{"NoteNumber":51,"Velocity":46,"Duration":392156,"SoundDuration":392156,"Delta":189790600},{"NoteNumber":72,"Velocity":54,"Duration":392156,"SoundDuration":392156,"Delta":190182757},{"NoteNumber":69,"Velocity":54,"Duration":392156,"SoundDuration":392156,"Delta":190182757},{"NoteNumber":53,"Velocity":47,"Duration":392156,"SoundDuration":392156,"Delta":190182757},{"NoteNumber":41,"Velocity":57,"Duration":384166,"SoundDuration":384166,"Delta":190574914},{"NoteNumber":65,"Velocity":55,"Duration":188087,"SoundDuration":188087,"Delta":190770993},{"NoteNumber":72,"Velocity":57,"Duration":94043,"SoundDuration":94043,"Delta":190959081},{"NoteNumber":70,"Velocity":53,"Duration":94044,"SoundDuration":94044,"Delta":191147169},{"NoteNumber":72,"Velocity":56,"Duration":94936,"SoundDuration":94936,"Delta":191335257},{"NoteNumber":74,"Velocity":52,"Duration":94936,"SoundDuration":94936,"Delta":191525130},{"NoteNumber":75,"Velocity":56,"Duration":100334,"SoundDuration":100334,"Delta":191715004},{"NoteNumber":67,"Velocity":56,"Duration":144230,"SoundDuration":144230,"Delta":192116342},{"NoteNumber":75,"Velocity":56,"Duration":144230,"SoundDuration":144230,"Delta":192116342},{"NoteNumber":60,"Velocity":45,"Duration":144230,"SoundDuration":144230,"Delta":192116342},{"NoteNumber":75,"Velocity":58,"Duration":393442,"SoundDuration":393442,"Delta":192500957},{"NoteNumber":72,"Velocity":58,"Duration":393442,"SoundDuration":393442,"Delta":192500957},{"NoteNumber":57,"Velocity":45,"Duration":393442,"SoundDuration":393442,"Delta":192500957},{"NoteNumber":77,"Velocity":56,"Duration":393443,"SoundDuration":393443,"Delta":192894400},{"NoteNumber":69,"Velocity":56,"Duration":393443,"SoundDuration":393443,"Delta":192894400},{"NoteNumber":53,"Velocity":45,"Duration":393443,"SoundDuration":393443,"Delta":192894400},{"NoteNumber":70,"Velocity":54,"Duration":393442,"SoundDuration":393442,"Delta":193287843},{"NoteNumber":74,"Velocity":54,"Duration":393442,"SoundDuration":393442,"Delta":193287843},{"NoteNumber":58,"Velocity":46,"Duration":393442,"SoundDuration":393442,"Delta":193287843},{"NoteNumber":46,"Velocity":70,"Duration":383057,"SoundDuration":383057,"Delta":193681286},{"NoteNumber":70,"Velocity":56,"Duration":186335,"SoundDuration":186335,"Delta":193878007},{"NoteNumber":74,"Velocity":60,"Duration":92879,"SoundDuration":92879,"Delta":194064343},{"NoteNumber":75,"Velocity":64,"Duration":92688,"SoundDuration":92688,"Delta":194250101},{"NoteNumber":77,"Velocity":68,"Duration":92497,"SoundDuration":92497,"Delta":194435382},{"NoteNumber":79,"Velocity":72,"Duration":92307,"SoundDuration":92307,"Delta":194620187},{"NoteNumber":80,"Velocity":76,"Duration":187500,"SoundDuration":187500,"Delta":194804519},{"NoteNumber":65,"Velocity":72,"Duration":199999,"SoundDuration":199999,"Delta":195179519},{"NoteNumber":68,"Velocity":72,"Duration":199999,"SoundDuration":199999,"Delta":195179519},{"NoteNumber":58,"Velocity":64,"Duration":199999,"SoundDuration":199999,"Delta":195179519},{"NoteNumber":50,"Velocity":59,"Duration":199999,"SoundDuration":199999,"Delta":195179519},{"NoteNumber":38,"Velocity":53,"Duration":199999,"SoundDuration":199999,"Delta":195179519},{"NoteNumber":68,"Velocity":73,"Duration":199999,"SoundDuration":199999,"Delta":195579519},{"NoteNumber":58,"Velocity":65,"Duration":199999,"SoundDuration":199999,"Delta":195579519},{"NoteNumber":65,"Velocity":73,"Duration":199999,"SoundDuration":199999,"Delta":195579519},{"NoteNumber":38,"Velocity":57,"Duration":199999,"SoundDuration":199999,"Delta":195579519},{"NoteNumber":50,"Velocity":64,"Duration":199999,"SoundDuration":199999,"Delta":195579519},{"NoteNumber":68,"Velocity":71,"Duration":216606,"SoundDuration":216606,"Delta":195979519},{"NoteNumber":65,"Velocity":71,"Duration":216606,"SoundDuration":216606,"Delta":195979519},{"NoteNumber":60,"Velocity":63,"Duration":216606,"SoundDuration":216606,"Delta":195979519},{"NoteNumber":48,"Velocity":58,"Duration":216606,"SoundDuration":216606,"Delta":195979519},{"NoteNumber":36,"Velocity":52,"Duration":216606,"SoundDuration":216606,"Delta":195979519},{"NoteNumber":65,"Velocity":72,"Duration":383386,"SoundDuration":383386,"Delta":196412732},{"NoteNumber":62,"Velocity":64,"Duration":383386,"SoundDuration":383386,"Delta":196412732},{"NoteNumber":67,"Velocity":72,"Duration":383386,"SoundDuration":383386,"Delta":196412732},{"NoteNumber":47,"Velocity":57,"Duration":383386,"SoundDuration":383386,"Delta":196412732},{"NoteNumber":35,"Velocity":51,"Duration":383386,"SoundDuration":383386,"Delta":196412732},{"NoteNumber":59,"Velocity":66,"Duration":375179,"SoundDuration":375179,"Delta":196796119},{"NoteNumber":74,"Velocity":53,"Duration":183485,"SoundDuration":183485,"Delta":196987813},{"NoteNumber":79,"Velocity":58,"Duration":91743,"SoundDuration":91743,"Delta":197171299},{"NoteNumber":78,"Velocity":53,"Duration":91743,"SoundDuration":91743,"Delta":197354785},{"NoteNumber":79,"Velocity":56,"Duration":92879,"SoundDuration":92879,"Delta":197538271},{"NoteNumber":67,"Velocity":47,"Duration":371517,"SoundDuration":371517,"Delta":197538271},{"NoteNumber":58,"Velocity":47,"Duration":371517,"SoundDuration":371517,"Delta":197538271},{"NoteNumber":74,"Velocity":53,"Duration":92879,"SoundDuration":92879,"Delta":197724029},{"NoteNumber":77,"Velocity":57,"Duration":192925,"SoundDuration":192925,"Delta":197909788},{"NoteNumber":60,"Velocity":48,"Duration":385851,"SoundDuration":385851,"Delta":197909788},{"NoteNumber":67,"Velocity":48,"Duration":385851,"SoundDuration":385851,"Delta":197909788},{"NoteNumber":75,"Velocity":53,"Duration":192925,"SoundDuration":192925,"Delta":198102714},{"NoteNumber":48,"Velocity":55,"Duration":374515,"SoundDuration":374515,"Delta":198295640},{"NoteNumber":67,"Velocity":53,"Duration":181589,"SoundDuration":181589,"Delta":198488566},{"NoteNumber":72,"Velocity":54,"Duration":90406,"SoundDuration":90406,"Delta":198670155},{"NoteNumber":71,"Velocity":58,"Duration":90180,"SoundDuration":90180,"Delta":198760562},{"NoteNumber":74,"Velocity":61,"Duration":89910,"SoundDuration":89910,"Delta":198850743},{"NoteNumber":72,"Velocity":65,"Duration":89686,"SoundDuration":89686,"Delta":198940653},{"NoteNumber":75,"Velocity":69,"Duration":89418,"SoundDuration":89418,"Delta":199030339},{"NoteNumber":74,"Velocity":73,"Duration":89197,"SoundDuration":89197,"Delta":199119758},{"NoteNumber":77,"Velocity":76,"Duration":88932,"SoundDuration":88932,"Delta":199208955},{"NoteNumber":75,"Velocity":80,"Duration":88670,"SoundDuration":88670,"Delta":199297888},{"NoteNumber":79,"Velocity":84,"Duration":186335,"SoundDuration":186335,"Delta":199386559},{"NoteNumber":67,"Velocity":74,"Duration":201342,"SoundDuration":201342,"Delta":199759230},{"NoteNumber":60,"Velocity":66,"Duration":201342,"SoundDuration":201342,"Delta":199759230},{"NoteNumber":63,"Velocity":74,"Duration":201342,"SoundDuration":201342,"Delta":199759230},{"NoteNumber":36,"Velocity":52,"Duration":201342,"SoundDuration":201342,"Delta":199759230},{"NoteNumber":48,"Velocity":58,"Duration":201342,"SoundDuration":201342,"Delta":199759230},{"NoteNumber":60,"Velocity":66,"Duration":201342,"SoundDuration":201342,"Delta":200161915},{"NoteNumber":63,"Velocity":74,"Duration":201342,"SoundDuration":201342,"Delta":200161915},{"NoteNumber":67,"Velocity":74,"Duration":201342,"SoundDuration":201342,"Delta":200161915},{"NoteNumber":48,"Velocity":62,"Duration":201342,"SoundDuration":201342,"Delta":200161915},{"NoteNumber":36,"Velocity":55,"Duration":201342,"SoundDuration":201342,"Delta":200161915},{"NoteNumber":60,"Velocity":64,"Duration":217391,"SoundDuration":217391,"Delta":200564600},{"NoteNumber":66,"Velocity":72,"Duration":217391,"SoundDuration":217391,"Delta":200564600},{"NoteNumber":63,"Velocity":72,"Duration":217391,"SoundDuration":217391,"Delta":200564600},{"NoteNumber":34,"Velocity":52,"Duration":217391,"SoundDuration":217391,"Delta":200564600},{"NoteNumber":46,"Velocity":58,"Duration":217391,"SoundDuration":217391,"Delta":200564600},{"NoteNumber":63,"Velocity":71,"Duration":383386,"SoundDuration":383386,"Delta":200999383},{"NoteNumber":65,"Velocity":71,"Duration":383386,"SoundDuration":383386,"Delta":200999383},{"NoteNumber":60,"Velocity":63,"Duration":383386,"SoundDuration":383386,"Delta":200999383},{"NoteNumber":45,"Velocity":57,"Duration":383386,"SoundDuration":383386,"Delta":200999383},{"NoteNumber":33,"Velocity":51,"Duration":383386,"SoundDuration":383386,"Delta":200999383},{"NoteNumber":57,"Velocity":60,"Duration":375742,"SoundDuration":375742,"Delta":201382770},{"NoteNumber":72,"Velocity":52,"Duration":184048,"SoundDuration":184048,"Delta":201574463},{"NoteNumber":77,"Velocity":55,"Duration":92024,"SoundDuration":92024,"Delta":201758512},{"NoteNumber":76,"Velocity":52,"Duration":92024,"SoundDuration":92024,"Delta":201942561},{"NoteNumber":77,"Velocity":55,"Duration":92879,"SoundDuration":92879,"Delta":202126610},{"NoteNumber":57,"Velocity":44,"Duration":371517,"SoundDuration":371517,"Delta":202126610},{"NoteNumber":65,"Velocity":44,"Duration":371517,"SoundDuration":371517,"Delta":202126610},{"NoteNumber":72,"Velocity":52,"Duration":92879,"SoundDuration":92879,"Delta":202312369},{"NoteNumber":75,"Velocity":55,"Duration":191693,"SoundDuration":191693,"Delta":202498127},{"NoteNumber":58,"Velocity":44,"Duration":383386,"SoundDuration":383386,"Delta":202498127},{"NoteNumber":65,"Velocity":44,"Duration":383386,"SoundDuration":383386,"Delta":202498127},{"NoteNumber":74,"Velocity":52,"Duration":191693,"SoundDuration":191693,"Delta":202689821},{"NoteNumber":46,"Velocity":51,"Duration":364420,"SoundDuration":364420,"Delta":202881514},{"NoteNumber":82,"Velocity":73,"Duration":120846,"SoundDuration":120846,"Delta":203002360},{"NoteNumber":81,"Velocity":69,"Duration":122728,"SoundDuration":122728,"Delta":203123206},{"NoteNumber":82,"Velocity":77,"Duration":120846,"SoundDuration":120846,"Delta":203245934},{"NoteNumber":81,"Velocity":69,"Duration":120937,"SoundDuration":120937,"Delta":203366780},{"NoteNumber":79,"Velocity":70,"Duration":121350,"SoundDuration":121350,"Delta":203487718},{"NoteNumber":77,"Velocity":73,"Duration":121766,"SoundDuration":121766,"Delta":203609068},{"NoteNumber":75,"Velocity":72,"Duration":122184,"SoundDuration":122184,"Delta":203730834},{"NoteNumber":74,"Velocity":71,"Duration":122605,"SoundDuration":122605,"Delta":203853018},{"NoteNumber":72,"Velocity":70,"Duration":184615,"SoundDuration":184615,"Delta":203975624},{"NoteNumber":51,"Velocity":52,"Duration":184615,"SoundDuration":184615,"Delta":204160239},{"NoteNumber":58,"Velocity":55,"Duration":183955,"SoundDuration":183955,"Delta":204344855},{"NoteNumber":72,"Velocity":70,"Duration":122417,"SoundDuration":122417,"Delta":204467554},{"NoteNumber":55,"Velocity":51,"Duration":183253,"SoundDuration":183253,"Delta":204528810},{"NoteNumber":74,"Velocity":72,"Duration":122091,"SoundDuration":122091,"Delta":204589972},{"NoteNumber":75,"Velocity":74,"Duration":121812,"SoundDuration":121812,"Delta":204712063},{"NoteNumber":60,"Velocity":60,"Duration":364467,"SoundDuration":364467,"Delta":204712063},{"NoteNumber":74,"Velocity":73,"Duration":121488,"SoundDuration":121488,"Delta":204833875},{"NoteNumber":72,"Velocity":68,"Duration":121166,"SoundDuration":121166,"Delta":204955364},{"NoteNumber":79,"Velocity":73,"Duration":120846,"SoundDuration":120846,"Delta":205076530},{"NoteNumber":77,"Velocity":72,"Duration":120846,"SoundDuration":120846,"Delta":205197376},{"NoteNumber":75,"Velocity":71,"Duration":120846,"SoundDuration":120846,"Delta":205318222},{"NoteNumber":74,"Velocity":69,"Duration":362538,"SoundDuration":362538,"Delta":205439068},{"NoteNumber":53,"Velocity":57,"Duration":181269,"SoundDuration":181269,"Delta":205620337},{"NoteNumber":58,"Velocity":60,"Duration":181268,"SoundDuration":181268,"Delta":205801606},{"NoteNumber":82,"Velocity":74,"Duration":120846,"SoundDuration":120846,"Delta":205922452},{"NoteNumber":56,"Velocity":54,"Duration":183739,"SoundDuration":183739,"Delta":205982875},{"NoteNumber":81,"Velocity":74,"Duration":123315,"SoundDuration":123315,"Delta":206043298},{"NoteNumber":82,"Velocity":76,"Duration":120846,"SoundDuration":120846,"Delta":206166614},{"NoteNumber":62,"Velocity":68,"Duration":362538,"SoundDuration":362538,"Delta":206166614},{"NoteNumber":80,"Velocity":72,"Duration":120846,"SoundDuration":120846,"Delta":206287460},{"NoteNumber":79,"Velocity":71,"Duration":120846,"SoundDuration":120846,"Delta":206408306},{"NoteNumber":77,"Velocity":73,"Duration":122323,"SoundDuration":122323,"Delta":206529152},{"NoteNumber":75,"Velocity":71,"Duration":122324,"SoundDuration":122324,"Delta":206651476},{"NoteNumber":74,"Velocity":70,"Duration":122323,"SoundDuration":122323,"Delta":206773800},{"NoteNumber":75,"Velocity":74,"Duration":366972,"SoundDuration":366972,"Delta":206896124},{"NoteNumber":55,"Velocity":54,"Duration":183486,"SoundDuration":183486,"Delta":207079610},{"NoteNumber":63,"Velocity":58,"Duration":181268,"SoundDuration":181268,"Delta":207263096},{"NoteNumber":75,"Velocity":71,"Duration":120846,"SoundDuration":120846,"Delta":207383942},{"NoteNumber":58,"Velocity":54,"Duration":181269,"SoundDuration":181269,"Delta":207444365},{"NoteNumber":77,"Velocity":72,"Duration":120846,"SoundDuration":120846,"Delta":207504788},{"NoteNumber":79,"Velocity":74,"Duration":120846,"SoundDuration":120846,"Delta":207625634},{"NoteNumber":67,"Velocity":65,"Duration":366631,"SoundDuration":366631,"Delta":207625634},{"NoteNumber":77,"Velocity":73,"Duration":120846,"SoundDuration":120846,"Delta":207746480},{"NoteNumber":75,"Velocity":72,"Duration":124939,"SoundDuration":124939,"Delta":207867326},{"NoteNumber":82,"Velocity":79,"Duration":124223,"SoundDuration":124223,"Delta":207992265},{"NoteNumber":80,"Velocity":72,"Duration":124223,"SoundDuration":124223,"Delta":208116489},{"NoteNumber":79,"Velocity":70,"Duration":124223,"SoundDuration":124223,"Delta":208240713},{"NoteNumber":77,"Velocity":72,"Duration":368098,"SoundDuration":368098,"Delta":208364936},{"NoteNumber":50,"Velocity":55,"Duration":184049,"SoundDuration":184049,"Delta":208548985},{"NoteNumber":58,"Velocity":58,"Duration":181817,"SoundDuration":181817,"Delta":208733034},{"NoteNumber":82,"Velocity":74,"Duration":121211,"SoundDuration":121211,"Delta":208854246},{"NoteNumber":53,"Velocity":55,"Duration":181818,"SoundDuration":181818,"Delta":208914852},{"NoteNumber":81,"Velocity":71,"Duration":121212,"SoundDuration":121212,"Delta":208975458},{"NoteNumber":82,"Velocity":76,"Duration":120937,"SoundDuration":120937,"Delta":209096670},{"NoteNumber":62,"Velocity":64,"Duration":364192,"SoundDuration":364192,"Delta":209096670},{"NoteNumber":80,"Velocity":72,"Duration":121396,"SoundDuration":121396,"Delta":209217608},{"NoteNumber":79,"Velocity":73,"Duration":121858,"SoundDuration":121858,"Delta":209339004},{"NoteNumber":77,"Velocity":71,"Duration":122184,"SoundDuration":122184,"Delta":209460863},{"NoteNumber":79,"Velocity":72,"Duration":121627,"SoundDuration":121627,"Delta":209583047},{"NoteNumber":80,"Velocity":74,"Duration":121028,"SoundDuration":121028,"Delta":209704674},{"NoteNumber":79,"Velocity":72,"Duration":123316,"SoundDuration":123316,"Delta":209825703},{"NoteNumber":51,"Velocity":73,"Duration":2179622,"SoundDuration":2179622,"Delta":209825703},{"NoteNumber":82,"Velocity":78,"Duration":120845,"SoundDuration":120845,"Delta":209949019},{"NoteNumber":81,"Velocity":75,"Duration":121212,"SoundDuration":121212,"Delta":210069865},{"NoteNumber":79,"Velocity":71,"Duration":121488,"SoundDuration":121488,"Delta":210191077},{"NoteNumber":81,"Velocity":73,"Duration":121766,"SoundDuration":121766,"Delta":210312566},{"NoteNumber":82,"Velocity":75,"Duration":122044,"SoundDuration":122044,"Delta":210434332},{"NoteNumber":75,"Velocity":70,"Duration":122160,"SoundDuration":122160,"Delta":210556376},{"NoteNumber":55,"Velocity":70,"Duration":724570,"SoundDuration":724570,"Delta":210556376},{"NoteNumber":79,"Velocity":74,"Duration":120482,"SoundDuration":120482,"Delta":210678537},{"NoteNumber":77,"Velocity":69,"Duration":120482,"SoundDuration":120482,"Delta":210799019},{"NoteNumber":75,"Velocity":70,"Duration":120481,"SoundDuration":120481,"Delta":210919501},{"NoteNumber":77,"Velocity":72,"Duration":120482,"SoundDuration":120482,"Delta":211039983},{"NoteNumber":79,"Velocity":75,"Duration":120482,"SoundDuration":120482,"Delta":211160465},{"NoteNumber":72,"Velocity":73,"Duration":121969,"SoundDuration":121969,"Delta":211280947},{"NoteNumber":60,"Velocity":74,"Duration":724379,"SoundDuration":724379,"Delta":211280947},{"NoteNumber":75,"Velocity":76,"Duration":120482,"SoundDuration":120482,"Delta":211402916},{"NoteNumber":74,"Velocity":74,"Duration":120482,"SoundDuration":120482,"Delta":211523398},{"NoteNumber":72,"Velocity":73,"Duration":120481,"SoundDuration":120481,"Delta":211643880},{"NoteNumber":74,"Velocity":74,"Duration":120482,"SoundDuration":120482,"Delta":211764362},{"NoteNumber":75,"Velocity":69,"Duration":120482,"SoundDuration":120482,"Delta":211884844},{"NoteNumber":67,"Velocity":72,"Duration":122144,"SoundDuration":122144,"Delta":212005326},{"NoteNumber":60,"Velocity":70,"Duration":729224,"SoundDuration":729224,"Delta":212005326},{"NoteNumber":52,"Velocity":70,"Duration":729224,"SoundDuration":729224,"Delta":212005326},{"NoteNumber":70,"Velocity":74,"Duration":121211,"SoundDuration":121211,"Delta":212127471},{"NoteNumber":69,"Velocity":72,"Duration":121212,"SoundDuration":121212,"Delta":212248683},{"NoteNumber":67,"Velocity":68,"Duration":120983,"SoundDuration":120983,"Delta":212369895},{"NoteNumber":69,"Velocity":70,"Duration":121534,"SoundDuration":121534,"Delta":212490878},{"NoteNumber":70,"Velocity":71,"Duration":122137,"SoundDuration":122137,"Delta":212612413},{"NoteNumber":69,"Velocity":71,"Duration":92183,"SoundDuration":92183,"Delta":212734550},{"NoteNumber":53,"Velocity":65,"Duration":183092,"SoundDuration":183092,"Delta":212734550},{"NoteNumber":65,"Velocity":69,"Duration":90908,"SoundDuration":90908,"Delta":212826734},{"NoteNumber":67,"Velocity":70,"Duration":90863,"SoundDuration":90863,"Delta":212917643},{"NoteNumber":60,"Velocity":60,"Duration":181497,"SoundDuration":181497,"Delta":212917643},{"NoteNumber":69,"Velocity":71,"Duration":90634,"SoundDuration":90634,"Delta":213008506},{"NoteNumber":70,"Velocity":72,"Duration":90634,"SoundDuration":90634,"Delta":213099141},{"NoteNumber":57,"Velocity":68,"Duration":181041,"SoundDuration":181041,"Delta":213099141},{"NoteNumber":72,"Velocity":73,"Duration":90406,"SoundDuration":90406,"Delta":213189775},{"NoteNumber":74,"Velocity":74,"Duration":90361,"SoundDuration":90361,"Delta":213280182},{"NoteNumber":60,"Velocity":66,"Duration":180587,"SoundDuration":180587,"Delta":213280182},{"NoteNumber":76,"Velocity":76,"Duration":90225,"SoundDuration":90225,"Delta":213370544},{"NoteNumber":77,"Velocity":77,"Duration":90090,"SoundDuration":90090,"Delta":213460769},{"NoteNumber":53,"Velocity":69,"Duration":180135,"SoundDuration":180135,"Delta":213460769},{"NoteNumber":79,"Velocity":78,"Duration":90045,"SoundDuration":90045,"Delta":213550859},{"NoteNumber":81,"Velocity":79,"Duration":89820,"SoundDuration":89820,"Delta":213640905},{"NoteNumber":60,"Velocity":65,"Duration":179640,"SoundDuration":179640,"Delta":213640905},{"NoteNumber":82,"Velocity":80,"Duration":89820,"SoundDuration":89820,"Delta":213730725},{"NoteNumber":84,"Velocity":93,"Duration":91743,"SoundDuration":91743,"Delta":213820545},{"NoteNumber":57,"Velocity":71,"Duration":91743,"SoundDuration":91743,"Delta":213820545},{"NoteNumber":75,"Velocity":76,"Duration":91743,"SoundDuration":91743,"Delta":214004031},{"NoteNumber":60,"Velocity":66,"Duration":91743,"SoundDuration":91743,"Delta":214004031},{"NoteNumber":74,"Velocity":74,"Duration":91419,"SoundDuration":91419,"Delta":214187517},{"NoteNumber":53,"Velocity":65,"Duration":182053,"SoundDuration":182053,"Delta":214187517},{"NoteNumber":70,"Velocity":69,"Duration":90634,"SoundDuration":90634,"Delta":214278936},{"NoteNumber":72,"Velocity":71,"Duration":90634,"SoundDuration":90634,"Delta":214369571},{"NoteNumber":62,"Velocity":58,"Duration":181041,"SoundDuration":181041,"Delta":214369571},{"NoteNumber":74,"Velocity":72,"Duration":90406,"SoundDuration":90406,"Delta":214460205},{"NoteNumber":75,"Velocity":74,"Duration":90361,"SoundDuration":90361,"Delta":214550612},{"NoteNumber":58,"Velocity":66,"Duration":180542,"SoundDuration":180542,"Delta":214550612},{"NoteNumber":77,"Velocity":75,"Duration":90180,"SoundDuration":90180,"Delta":214640974},{"NoteNumber":79,"Velocity":77,"Duration":90090,"SoundDuration":90090,"Delta":214731154},{"NoteNumber":62,"Velocity":62,"Duration":180090,"SoundDuration":180090,"Delta":214731154},{"NoteNumber":81,"Velocity":78,"Duration":90000,"SoundDuration":90000,"Delta":214821244},{"NoteNumber":82,"Velocity":80,"Duration":89820,"SoundDuration":89820,"Delta":214911244},{"NoteNumber":53,"Velocity":69,"Duration":179595,"SoundDuration":179595,"Delta":214911244},{"NoteNumber":84,"Velocity":81,"Duration":89775,"SoundDuration":89775,"Delta":215001065},{"NoteNumber":86,"Velocity":83,"Duration":89552,"SoundDuration":89552,"Delta":215090840},{"NoteNumber":62,"Velocity":64,"Duration":179104,"SoundDuration":179104,"Delta":215090840},{"NoteNumber":87,"Velocity":84,"Duration":89552,"SoundDuration":89552,"Delta":215180392},{"NoteNumber":89,"Velocity":99,"Duration":92307,"SoundDuration":92307,"Delta":215269945},{"NoteNumber":58,"Velocity":71,"Duration":92307,"SoundDuration":92307,"Delta":215269945},{"NoteNumber":82,"Velocity":82,"Duration":92307,"SoundDuration":92307,"Delta":215454560},{"NoteNumber":62,"Velocity":66,"Duration":92307,"SoundDuration":92307,"Delta":215454560},{"NoteNumber":81,"Velocity":78,"Duration":91185,"SoundDuration":91185,"Delta":215639176},{"NoteNumber":53,"Velocity":71,"Duration":182370,"SoundDuration":182370,"Delta":215639176},{"NoteNumber":82,"Velocity":81,"Duration":91185,"SoundDuration":91185,"Delta":215730361},{"NoteNumber":84,"Velocity":83,"Duration":91185,"SoundDuration":91185,"Delta":215821547},{"NoteNumber":63,"Velocity":67,"Duration":182371,"SoundDuration":182371,"Delta":215821547},{"NoteNumber":82,"Velocity":80,"Duration":91185,"SoundDuration":91185,"Delta":215912732},{"NoteNumber":81,"Velocity":79,"Duration":90863,"SoundDuration":90863,"Delta":216003918},{"NoteNumber":60,"Velocity":71,"Duration":181406,"SoundDuration":181406,"Delta":216003918},{"NoteNumber":82,"Velocity":82,"Duration":90543,"SoundDuration":90543,"Delta":216094781},{"NoteNumber":84,"Velocity":85,"Duration":90225,"SoundDuration":90225,"Delta":216185324},{"NoteNumber":63,"Velocity":66,"Duration":180135,"SoundDuration":180135,"Delta":216185324},{"NoteNumber":86,"Velocity":88,"Duration":89910,"SoundDuration":89910,"Delta":216275550},{"NoteNumber":87,"Velocity":89,"Duration":89552,"SoundDuration":89552,"Delta":216365460},{"NoteNumber":53,"Velocity":75,"Duration":179372,"SoundDuration":179372,"Delta":216365460},{"NoteNumber":86,"Velocity":87,"Duration":89820,"SoundDuration":89820,"Delta":216455013},{"NoteNumber":84,"Velocity":86,"Duration":90090,"SoundDuration":90090,"Delta":216544833},{"NoteNumber":60,"Velocity":71,"Duration":180451,"SoundDuration":180451,"Delta":216544833},{"NoteNumber":82,"Velocity":84,"Duration":90361,"SoundDuration":90361,"Delta":216634923},{"NoteNumber":81,"Velocity":82,"Duration":90634,"SoundDuration":90634,"Delta":216725284},{"NoteNumber":57,"Velocity":73,"Duration":181543,"SoundDuration":181543,"Delta":216725284},{"NoteNumber":79,"Velocity":80,"Duration":90909,"SoundDuration":90909,"Delta":216815919},{"NoteNumber":77,"Velocity":78,"Duration":91185,"SoundDuration":91185,"Delta":216906828},{"NoteNumber":60,"Velocity":66,"Duration":182648,"SoundDuration":182648,"Delta":216906828},{"NoteNumber":75,"Velocity":77,"Duration":91463,"SoundDuration":91463,"Delta":216998013},{"NoteNumber":74,"Velocity":75,"Duration":91743,"SoundDuration":91743,"Delta":217089477},{"NoteNumber":53,"Velocity":69,"Duration":183485,"SoundDuration":183485,"Delta":217089477},{"NoteNumber":77,"Velocity":75,"Duration":91742,"SoundDuration":91742,"Delta":217181220},{"NoteNumber":75,"Velocity":74,"Duration":91743,"SoundDuration":91743,"Delta":217272963},{"NoteNumber":62,"Velocity":65,"Duration":183486,"SoundDuration":183486,"Delta":217272963},{"NoteNumber":74,"Velocity":73,"Duration":91743,"SoundDuration":91743,"Delta":217364706},{"NoteNumber":75,"Velocity":71,"Duration":91649,"SoundDuration":91649,"Delta":217456449},{"NoteNumber":58,"Velocity":67,"Duration":182835,"SoundDuration":182835,"Delta":217456449},{"NoteNumber":77,"Velocity":73,"Duration":91185,"SoundDuration":91185,"Delta":217548099},{"NoteNumber":79,"Velocity":76,"Duration":90725,"SoundDuration":90725,"Delta":217639284},{"NoteNumber":62,"Velocity":63,"Duration":180951,"SoundDuration":180951,"Delta":217639284},{"NoteNumber":81,"Velocity":78,"Duration":90225,"SoundDuration":90225,"Delta":217730010},{"NoteNumber":82,"Velocity":79,"Duration":89910,"SoundDuration":89910,"Delta":217820236},{"NoteNumber":53,"Velocity":68,"Duration":180181,"SoundDuration":180181,"Delta":217820236},{"NoteNumber":81,"Velocity":78,"Duration":90271,"SoundDuration":90271,"Delta":217910146},{"NoteNumber":79,"Velocity":77,"Duration":90771,"SoundDuration":90771,"Delta":218000417},{"NoteNumber":62,"Velocity":63,"Duration":181957,"SoundDuration":181957,"Delta":218000417},{"NoteNumber":77,"Velocity":76,"Duration":91185,"SoundDuration":91185,"Delta":218091189},{"NoteNumber":75,"Velocity":75,"Duration":91649,"SoundDuration":91649,"Delta":218182375},{"NoteNumber":58,"Velocity":65,"Duration":183768,"SoundDuration":183768,"Delta":218182375},{"NoteNumber":74,"Velocity":74,"Duration":92118,"SoundDuration":92118,"Delta":218274025},{"NoteNumber":72,"Velocity":72,"Duration":92592,"SoundDuration":92592,"Delta":218366144},{"NoteNumber":62,"Velocity":56,"Duration":185616,"SoundDuration":185616,"Delta":218366144},{"NoteNumber":70,"Velocity":71,"Duration":93023,"SoundDuration":93023,"Delta":218458736},{"NoteNumber":77,"Velocity":70,"Duration":94043,"SoundDuration":94043,"Delta":218551760},{"NoteNumber":69,"Velocity":70,"Duration":94043,"SoundDuration":94043,"Delta":218551760},{"NoteNumber":72,"Velocity":70,"Duration":94043,"SoundDuration":94043,"Delta":218551760},{"NoteNumber":57,"Velocity":60,"Duration":94043,"SoundDuration":94043,"Delta":218551760},{"NoteNumber":60,"Velocity":60,"Duration":94043,"SoundDuration":94043,"Delta":218551760},{"NoteNumber":53,"Velocity":60,"Duration":94043,"SoundDuration":94043,"Delta":218551760},{"NoteNumber":65,"Velocity":71,"Duration":194175,"SoundDuration":194175,"Delta":218927936},{"NoteNumber":72,"Velocity":76,"Duration":545454,"SoundDuration":545454,"Delta":219316286},{"NoteNumber":51,"Velocity":54,"Duration":181817,"SoundDuration":181817,"Delta":219316286},{"NoteNumber":53,"Velocity":50,"Duration":181818,"SoundDuration":181818,"Delta":219498104},{"NoteNumber":51,"Velocity":45,"Duration":181817,"SoundDuration":181817,"Delta":219679922},{"NoteNumber":69,"Velocity":60,"Duration":90908,"SoundDuration":90908,"Delta":219861740},{"NoteNumber":53,"Velocity":41,"Duration":181817,"SoundDuration":181817,"Delta":219861740},{"NoteNumber":65,"Velocity":60,"Duration":90909,"SoundDuration":90909,"Delta":219952649},{"NoteNumber":70,"Velocity":67,"Duration":371092,"SoundDuration":371092,"Delta":220043558},{"NoteNumber":50,"Velocity":48,"Duration":181817,"SoundDuration":181817,"Delta":220043558},{"NoteNumber":53,"Velocity":45,"Duration":189274,"SoundDuration":189274,"Delta":220225376},{"NoteNumber":71,"Velocity":70,"Duration":366972,"SoundDuration":366972,"Delta":220414650},{"NoteNumber":50,"Velocity":51,"Duration":183485,"SoundDuration":183485,"Delta":220414650},{"NoteNumber":53,"Velocity":47,"Duration":183486,"SoundDuration":183486,"Delta":220598136},{"NoteNumber":72,"Velocity":74,"Duration":545454,"SoundDuration":545454,"Delta":220781622},{"NoteNumber":51,"Velocity":53,"Duration":181817,"SoundDuration":181817,"Delta":220781622},{"NoteNumber":53,"Velocity":50,"Duration":181818,"SoundDuration":181818,"Delta":220963440},{"NoteNumber":51,"Velocity":47,"Duration":181817,"SoundDuration":181817,"Delta":221145258},{"NoteNumber":69,"Velocity":61,"Duration":90909,"SoundDuration":90909,"Delta":221327076},{"NoteNumber":53,"Velocity":43,"Duration":181818,"SoundDuration":181818,"Delta":221327076},{"NoteNumber":65,"Velocity":61,"Duration":90909,"SoundDuration":90909,"Delta":221417985},{"NoteNumber":70,"Velocity":65,"Duration":363635,"SoundDuration":363635,"Delta":221508894},{"NoteNumber":50,"Velocity":46,"Duration":181817,"SoundDuration":181817,"Delta":221508894},{"NoteNumber":53,"Velocity":38,"Duration":181817,"SoundDuration":181817,"Delta":221690712},{"NoteNumber":50,"Velocity":44,"Duration":181817,"SoundDuration":181817,"Delta":221872530},{"NoteNumber":53,"Velocity":42,"Duration":188653,"SoundDuration":188653,"Delta":222054348},{"NoteNumber":72,"Velocity":75,"Duration":90909,"SoundDuration":90909,"Delta":222243002},{"NoteNumber":51,"Velocity":56,"Duration":181817,"SoundDuration":181817,"Delta":222243002},{"NoteNumber":72,"Velocity":75,"Duration":363636,"SoundDuration":363636,"Delta":222424820},{"NoteNumber":53,"Velocity":55,"Duration":181818,"SoundDuration":181818,"Delta":222424820},{"NoteNumber":51,"Velocity":49,"Duration":181817,"SoundDuration":181817,"Delta":222606638},{"NoteNumber":69,"Velocity":61,"Duration":91743,"SoundDuration":91743,"Delta":222788456},{"NoteNumber":53,"Velocity":46,"Duration":183485,"SoundDuration":183485,"Delta":222788456},{"NoteNumber":65,"Velocity":61,"Duration":91742,"SoundDuration":91742,"Delta":222880199},{"NoteNumber":70,"Velocity":64,"Duration":91743,"SoundDuration":91743,"Delta":222971942},{"NoteNumber":50,"Velocity":48,"Duration":183486,"SoundDuration":183486,"Delta":222971942},{"NoteNumber":70,"Velocity":68,"Duration":91743,"SoundDuration":91743,"Delta":223155428},{"NoteNumber":53,"Velocity":45,"Duration":183485,"SoundDuration":183485,"Delta":223155428},{"NoteNumber":71,"Velocity":71,"Duration":91743,"SoundDuration":91743,"Delta":223338914},{"NoteNumber":50,"Velocity":50,"Duration":183206,"SoundDuration":183206,"Delta":223338914},{"NoteNumber":71,"Velocity":71,"Duration":91185,"SoundDuration":91185,"Delta":223522120},{"NoteNumber":53,"Velocity":47,"Duration":182094,"SoundDuration":182094,"Delta":223522120},{"NoteNumber":72,"Velocity":77,"Duration":90634,"SoundDuration":90634,"Delta":223704215},{"NoteNumber":51,"Velocity":53,"Duration":181268,"SoundDuration":181268,"Delta":223704215},{"NoteNumber":72,"Velocity":77,"Duration":362538,"SoundDuration":362538,"Delta":223885484},{"NoteNumber":53,"Velocity":50,"Duration":181269,"SoundDuration":181269,"Delta":223885484},{"NoteNumber":51,"Velocity":48,"Duration":181268,"SoundDuration":181268,"Delta":224066753},{"NoteNumber":69,"Velocity":60,"Duration":90634,"SoundDuration":90634,"Delta":224248022},{"NoteNumber":53,"Velocity":45,"Duration":181269,"SoundDuration":181269,"Delta":224248022},{"NoteNumber":65,"Velocity":62,"Duration":90634,"SoundDuration":90634,"Delta":224338656},{"NoteNumber":70,"Velocity":66,"Duration":363636,"SoundDuration":363636,"Delta":224429291},{"NoteNumber":50,"Velocity":53,"Duration":181817,"SoundDuration":181817,"Delta":224429291},{"NoteNumber":65,"Velocity":49,"Duration":181818,"SoundDuration":181818,"Delta":224611109},{"NoteNumber":62,"Velocity":53,"Duration":181817,"SoundDuration":181817,"Delta":224792927},{"NoteNumber":65,"Velocity":49,"Duration":181817,"SoundDuration":181817,"Delta":224974745},{"NoteNumber":83,"Velocity":65,"Duration":108244,"SoundDuration":108244,"Delta":225156563},{"NoteNumber":63,"Velocity":54,"Duration":180497,"SoundDuration":180497,"Delta":225156563},{"NoteNumber":84,"Velocity":68,"Duration":108343,"SoundDuration":108343,"Delta":225246789},{"NoteNumber":86,"Velocity":70,"Duration":108624,"SoundDuration":108624,"Delta":225337060},{"NoteNumber":65,"Velocity":48,"Duration":181223,"SoundDuration":181223,"Delta":225337060},{"NoteNumber":84,"Velocity":73,"Duration":108907,"SoundDuration":108907,"Delta":225427558},{"NoteNumber":82,"Velocity":76,"Duration":109238,"SoundDuration":109238,"Delta":225518284},{"NoteNumber":63,"Velocity":57,"Duration":182233,"SoundDuration":182233,"Delta":225518284},{"NoteNumber":81,"Velocity":77,"Duration":109524,"SoundDuration":109524,"Delta":225609285},{"NoteNumber":79,"Velocity":80,"Duration":109812,"SoundDuration":109812,"Delta":225700517},{"NoteNumber":65,"Velocity":52,"Duration":183206,"SoundDuration":183206,"Delta":225700517},{"NoteNumber":77,"Velocity":79,"Duration":110147,"SoundDuration":110147,"Delta":225791981},{"NoteNumber":82,"Velocity":85,"Duration":92024,"SoundDuration":92024,"Delta":225883724},{"NoteNumber":62,"Velocity":64,"Duration":366974,"SoundDuration":366974,"Delta":225883724},{"NoteNumber":77,"Velocity":75,"Duration":91836,"SoundDuration":91836,"Delta":225975748},{"NoteNumber":86,"Velocity":85,"Duration":91649,"SoundDuration":91649,"Delta":226067585},{"NoteNumber":82,"Velocity":79,"Duration":91463,"SoundDuration":91463,"Delta":226159235},{"NoteNumber":89,"Velocity":85,"Duration":91185,"SoundDuration":91185,"Delta":226250698},{"NoteNumber":86,"Velocity":78,"Duration":91001,"SoundDuration":91001,"Delta":226341884},{"NoteNumber":89,"Velocity":85,"Duration":90817,"SoundDuration":90817,"Delta":226432885},{"NoteNumber":86,"Velocity":77,"Duration":90634,"SoundDuration":90634,"Delta":226523702},{"NoteNumber":89,"Velocity":83,"Duration":108433,"SoundDuration":108433,"Delta":226614337},{"NoteNumber":87,"Velocity":83,"Duration":108533,"SoundDuration":108533,"Delta":226704698},{"NoteNumber":86,"Velocity":82,"Duration":108761,"SoundDuration":108761,"Delta":226795105},{"NoteNumber":84,"Velocity":81,"Duration":108999,"SoundDuration":108999,"Delta":226885740},{"NoteNumber":82,"Velocity":81,"Duration":109146,"SoundDuration":109146,"Delta":226976557},{"NoteNumber":58,"Velocity":75,"Duration":364882,"SoundDuration":364882,"Delta":226976557},{"NoteNumber":50,"Velocity":75,"Duration":364882,"SoundDuration":364882,"Delta":226976557},{"NoteNumber":81,"Velocity":80,"Duration":109422,"SoundDuration":109422,"Delta":227067466},{"NoteNumber":79,"Velocity":79,"Duration":109617,"SoundDuration":109617,"Delta":227158652},{"NoteNumber":77,"Velocity":79,"Duration":109812,"SoundDuration":109812,"Delta":227249976},{"NoteNumber":79,"Velocity":87,"Duration":91556,"SoundDuration":91556,"Delta":227341440},{"NoteNumber":51,"Velocity":85,"Duration":363743,"SoundDuration":363743,"Delta":227341440},{"NoteNumber":58,"Velocity":85,"Duration":363743,"SoundDuration":363743,"Delta":227341440},{"NoteNumber":75,"Velocity":78,"Duration":91463,"SoundDuration":91463,"Delta":227432997},{"NoteNumber":82,"Velocity":86,"Duration":90361,"SoundDuration":90361,"Delta":227524460},{"NoteNumber":79,"Velocity":76,"Duration":90361,"SoundDuration":90361,"Delta":227614822},{"NoteNumber":82,"Velocity":86,"Duration":90361,"SoundDuration":90361,"Delta":227705183},{"NoteNumber":81,"Velocity":77,"Duration":90361,"SoundDuration":90361,"Delta":227795545},{"NoteNumber":82,"Velocity":83,"Duration":90361,"SoundDuration":90361,"Delta":227885906},{"NoteNumber":81,"Velocity":77,"Duration":90361,"SoundDuration":90361,"Delta":227976268},{"NoteNumber":82,"Velocity":79,"Duration":90090,"SoundDuration":90090,"Delta":228066629},{"NoteNumber":81,"Velocity":73,"Duration":90316,"SoundDuration":90316,"Delta":228156719},{"NoteNumber":79,"Velocity":76,"Duration":90543,"SoundDuration":90543,"Delta":228247035},{"NoteNumber":77,"Velocity":68,"Duration":90771,"SoundDuration":90771,"Delta":228337579},{"NoteNumber":75,"Velocity":72,"Duration":91001,"SoundDuration":91001,"Delta":228428351},{"NoteNumber":58,"Velocity":57,"Duration":365439,"SoundDuration":365439,"Delta":228428351},{"NoteNumber":60,"Velocity":57,"Duration":365439,"SoundDuration":365439,"Delta":228428351},{"NoteNumber":51,"Velocity":57,"Duration":365439,"SoundDuration":365439,"Delta":228428351},{"NoteNumber":74,"Velocity":67,"Duration":91231,"SoundDuration":91231,"Delta":228519352},{"NoteNumber":72,"Velocity":68,"Duration":91463,"SoundDuration":91463,"Delta":228610584},{"NoteNumber":70,"Velocity":63,"Duration":91743,"SoundDuration":91743,"Delta":228702047},{"NoteNumber":65,"Velocity":67,"Duration":45454,"SoundDuration":45454,"Delta":228793790},{"NoteNumber":53,"Velocity":61,"Duration":181817,"SoundDuration":181817,"Delta":228793790},{"NoteNumber":77,"Velocity":67,"Duration":90908,"SoundDuration":90908,"Delta":228884699},{"NoteNumber":79,"Velocity":69,"Duration":90909,"SoundDuration":90909,"Delta":228975608},{"NoteNumber":62,"Velocity":57,"Duration":181818,"SoundDuration":181818,"Delta":228975608},{"NoteNumber":77,"Velocity":67,"Duration":90909,"SoundDuration":90909,"Delta":229066517},{"NoteNumber":75,"Velocity":67,"Duration":90908,"SoundDuration":90908,"Delta":229157426},{"NoteNumber":58,"Velocity":62,"Duration":181817,"SoundDuration":181817,"Delta":229157426},{"NoteNumber":74,"Velocity":64,"Duration":90909,"SoundDuration":90909,"Delta":229248335},{"NoteNumber":72,"Velocity":67,"Duration":90908,"SoundDuration":90908,"Delta":229339244},{"NoteNumber":62,"Velocity":57,"Duration":181817,"SoundDuration":181817,"Delta":229339244},{"NoteNumber":70,"Velocity":64,"Duration":90909,"SoundDuration":90909,"Delta":229430153},{"NoteNumber":72,"Velocity":67,"Duration":60606,"SoundDuration":60606,"Delta":229521062},{"NoteNumber":53,"Velocity":61,"Duration":181817,"SoundDuration":181817,"Delta":229521062},{"NoteNumber":74,"Velocity":61,"Duration":60606,"SoundDuration":60606,"Delta":229581668},{"NoteNumber":72,"Velocity":59,"Duration":60605,"SoundDuration":60605,"Delta":229642274},{"NoteNumber":74,"Velocity":67,"Duration":60606,"SoundDuration":60606,"Delta":229702880},{"NoteNumber":63,"Velocity":55,"Duration":181818,"SoundDuration":181818,"Delta":229702880},{"NoteNumber":72,"Velocity":59,"Duration":60606,"SoundDuration":60606,"Delta":229763486},{"NoteNumber":74,"Velocity":59,"Duration":60606,"SoundDuration":60606,"Delta":229824092},{"NoteNumber":72,"Velocity":61,"Duration":60605,"SoundDuration":60605,"Delta":229884698},{"NoteNumber":57,"Velocity":61,"Duration":181817,"SoundDuration":181817,"Delta":229884698},{"NoteNumber":74,"Velocity":67,"Duration":60606,"SoundDuration":60606,"Delta":229945304},{"NoteNumber":72,"Velocity":67,"Duration":60606,"SoundDuration":60606,"Delta":230005910},{"NoteNumber":70,"Velocity":69,"Duration":90908,"SoundDuration":90908,"Delta":230066516},{"NoteNumber":63,"Velocity":55,"Duration":181817,"SoundDuration":181817,"Delta":230066516},{"NoteNumber":72,"Velocity":70,"Duration":90909,"SoundDuration":90909,"Delta":230157425},{"NoteNumber":74,"Velocity":72,"Duration":91278,"SoundDuration":91278,"Delta":230248334},{"NoteNumber":58,"Velocity":61,"Duration":363001,"SoundDuration":363001,"Delta":230248334},{"NoteNumber":75,"Velocity":74,"Duration":90863,"SoundDuration":90863,"Delta":230339612},{"NoteNumber":77,"Velocity":74,"Duration":90361,"SoundDuration":90361,"Delta":230430476},{"NoteNumber":75,"Velocity":72,"Duration":90497,"SoundDuration":90497,"Delta":230520838},{"NoteNumber":74,"Velocity":71,"Duration":90634,"SoundDuration":90634,"Delta":230611336},{"NoteNumber":72,"Velocity":70,"Duration":90909,"SoundDuration":90909,"Delta":230701970},{"NoteNumber":70,"Velocity":68,"Duration":91047,"SoundDuration":91047,"Delta":230792879},{"NoteNumber":60,"Velocity":69,"Duration":182232,"SoundDuration":182232,"Delta":230792879},{"NoteNumber":69,"Velocity":67,"Duration":91185,"SoundDuration":91185,"Delta":230883926},{"NoteNumber":70,"Velocity":69,"Duration":91278,"SoundDuration":91278,"Delta":230975112},{"NoteNumber":62,"Velocity":74,"Duration":362229,"SoundDuration":362229,"Delta":230975112},{"NoteNumber":72,"Velocity":71,"Duration":90634,"SoundDuration":90634,"Delta":231066390},{"NoteNumber":74,"Velocity":72,"Duration":90090,"SoundDuration":90090,"Delta":231157025},{"NoteNumber":72,"Velocity":70,"Duration":90225,"SoundDuration":90225,"Delta":231247115},{"NoteNumber":70,"Velocity":69,"Duration":90361,"SoundDuration":90361,"Delta":231337341},{"NoteNumber":68,"Velocity":69,"Duration":90634,"SoundDuration":90634,"Delta":231427702},{"NoteNumber":67,"Velocity":68,"Duration":90771,"SoundDuration":90771,"Delta":231518337},{"NoteNumber":38,"Velocity":64,"Duration":181680,"SoundDuration":181680,"Delta":231518337},{"NoteNumber":50,"Velocity":64,"Duration":181680,"SoundDuration":181680,"Delta":231518337},{"NoteNumber":66,"Velocity":67,"Duration":90908,"SoundDuration":90908,"Delta":231609109},{"NoteNumber":67,"Velocity":67,"Duration":90634,"SoundDuration":90634,"Delta":231700018},{"NoteNumber":39,"Velocity":69,"Duration":361356,"SoundDuration":361356,"Delta":231700018},{"NoteNumber":51,"Velocity":69,"Duration":361356,"SoundDuration":361356,"Delta":231700018},{"NoteNumber":69,"Velocity":70,"Duration":90361,"SoundDuration":90361,"Delta":231790652},{"NoteNumber":70,"Velocity":72,"Duration":90090,"SoundDuration":90090,"Delta":231881014},{"NoteNumber":69,"Velocity":71,"Duration":90271,"SoundDuration":90271,"Delta":231971104},{"NoteNumber":67,"Velocity":70,"Duration":90497,"SoundDuration":90497,"Delta":232061375},{"NoteNumber":65,"Velocity":69,"Duration":90725,"SoundDuration":90725,"Delta":232151873},{"NoteNumber":63,"Velocity":68,"Duration":90955,"SoundDuration":90955,"Delta":232242599},{"NoteNumber":62,"Velocity":68,"Duration":91185,"SoundDuration":91185,"Delta":232333554},{"NoteNumber":60,"Velocity":67,"Duration":91324,"SoundDuration":91324,"Delta":232424739},{"NoteNumber":62,"Velocity":68,"Duration":90771,"SoundDuration":90771,"Delta":232516064},{"NoteNumber":63,"Velocity":69,"Duration":90407,"SoundDuration":90407,"Delta":232606836},{"NoteNumber":62,"Velocity":68,"Duration":90771,"SoundDuration":90771,"Delta":232697243},{"NoteNumber":60,"Velocity":66,"Duration":91093,"SoundDuration":91093,"Delta":232788014},{"NoteNumber":58,"Velocity":65,"Duration":91510,"SoundDuration":91510,"Delta":232879108},{"NoteNumber":57,"Velocity":63,"Duration":91883,"SoundDuration":91883,"Delta":232970618},{"NoteNumber":55,"Velocity":61,"Duration":92260,"SoundDuration":92260,"Delta":233062501},{"NoteNumber":53,"Velocity":60,"Duration":182370,"SoundDuration":182370,"Delta":233154762},{"NoteNumber":41,"Velocity":88,"Duration":1451266,"SoundDuration":1451266,"Delta":233154762},{"NoteNumber":29,"Velocity":88,"Duration":1451266,"SoundDuration":1451266,"Delta":233154762},{"NoteNumber":55,"Velocity":62,"Duration":90909,"SoundDuration":90909,"Delta":233337133},{"NoteNumber":57,"Velocity":64,"Duration":90908,"SoundDuration":90908,"Delta":233428042},{"NoteNumber":58,"Velocity":66,"Duration":90634,"SoundDuration":90634,"Delta":233518951},{"NoteNumber":60,"Velocity":68,"Duration":90634,"SoundDuration":90634,"Delta":233609586},{"NoteNumber":62,"Velocity":70,"Duration":90361,"SoundDuration":90361,"Delta":233700220},{"NoteNumber":63,"Velocity":69,"Duration":90361,"SoundDuration":90361,"Delta":233790582},{"NoteNumber":67,"Velocity":72,"Duration":90090,"SoundDuration":90090,"Delta":233880943},{"NoteNumber":65,"Velocity":71,"Duration":90361,"SoundDuration":90361,"Delta":233971033},{"NoteNumber":63,"Velocity":70,"Duration":90634,"SoundDuration":90634,"Delta":234061395},{"NoteNumber":62,"Velocity":69,"Duration":90909,"SoundDuration":90909,"Delta":234152029},{"NoteNumber":63,"Velocity":67,"Duration":91185,"SoundDuration":91185,"Delta":234242938},{"NoteNumber":65,"Velocity":67,"Duration":90909,"SoundDuration":90909,"Delta":234334124},{"NoteNumber":67,"Velocity":68,"Duration":90634,"SoundDuration":90634,"Delta":234425033},{"NoteNumber":69,"Velocity":69,"Duration":90361,"SoundDuration":90361,"Delta":234515667},{"NoteNumber":70,"Velocity":71,"Duration":90090,"SoundDuration":90090,"Delta":234606029},{"NoteNumber":41,"Velocity":70,"Duration":360903,"SoundDuration":360903,"Delta":234606029},{"NoteNumber":50,"Velocity":70,"Duration":360903,"SoundDuration":360903,"Delta":234606029},{"NoteNumber":46,"Velocity":70,"Duration":360903,"SoundDuration":360903,"Delta":234606029},{"NoteNumber":69,"Velocity":71,"Duration":90090,"SoundDuration":90090,"Delta":234696119},{"NoteNumber":67,"Velocity":70,"Duration":90361,"SoundDuration":90361,"Delta":234786209},{"NoteNumber":65,"Velocity":69,"Duration":90361,"SoundDuration":90361,"Delta":234876570},{"NoteNumber":67,"Velocity":68,"Duration":90634,"SoundDuration":90634,"Delta":234966932},{"NoteNumber":69,"Velocity":69,"Duration":90452,"SoundDuration":90452,"Delta":235057566},{"NoteNumber":70,"Velocity":70,"Duration":90271,"SoundDuration":90271,"Delta":235148019},{"NoteNumber":72,"Velocity":71,"Duration":90090,"SoundDuration":90090,"Delta":235238290},{"NoteNumber":74,"Velocity":73,"Duration":89820,"SoundDuration":89820,"Delta":235328380},{"NoteNumber":46,"Velocity":71,"Duration":360906,"SoundDuration":360906,"Delta":235328380},{"NoteNumber":50,"Velocity":71,"Duration":360906,"SoundDuration":360906,"Delta":235328380},{"NoteNumber":41,"Velocity":71,"Duration":360906,"SoundDuration":360906,"Delta":235328380},{"NoteNumber":72,"Velocity":73,"Duration":90090,"SoundDuration":90090,"Delta":235418200},{"NoteNumber":70,"Velocity":72,"Duration":90361,"SoundDuration":90361,"Delta":235508290},{"NoteNumber":69,"Velocity":71,"Duration":90634,"SoundDuration":90634,"Delta":235598652},{"NoteNumber":70,"Velocity":70,"Duration":90909,"SoundDuration":90909,"Delta":235689286},{"NoteNumber":72,"Velocity":71,"Duration":90725,"SoundDuration":90725,"Delta":235780195},{"NoteNumber":74,"Velocity":73,"Duration":90543,"SoundDuration":90543,"Delta":235870921},{"NoteNumber":75,"Velocity":75,"Duration":90361,"SoundDuration":90361,"Delta":235961465},{"NoteNumber":77,"Velocity":76,"Duration":90272,"SoundDuration":90272,"Delta":236051826},{"NoteNumber":58,"Velocity":81,"Duration":360542,"SoundDuration":360542,"Delta":236051826},{"NoteNumber":53,"Velocity":81,"Duration":360542,"SoundDuration":360542,"Delta":236051826},{"NoteNumber":62,"Velocity":81,"Duration":360542,"SoundDuration":360542,"Delta":236051826},{"NoteNumber":74,"Velocity":71,"Duration":90090,"SoundDuration":90090,"Delta":236142099},{"NoteNumber":77,"Velocity":76,"Duration":90090,"SoundDuration":90090,"Delta":236232189},{"NoteNumber":74,"Velocity":70,"Duration":90090,"SoundDuration":90090,"Delta":236322279},{"NoteNumber":82,"Velocity":82,"Duration":90090,"SoundDuration":90090,"Delta":236412369},{"NoteNumber":77,"Velocity":76,"Duration":89955,"SoundDuration":89955,"Delta":236502459},{"NoteNumber":82,"Velocity":82,"Duration":89820,"SoundDuration":89820,"Delta":236592414},{"NoteNumber":77,"Velocity":76,"Duration":89820,"SoundDuration":89820,"Delta":236682234},{"NoteNumber":86,"Velocity":88,"Duration":89820,"SoundDuration":89820,"Delta":236772054},{"NoteNumber":82,"Velocity":83,"Duration":89820,"SoundDuration":89820,"Delta":236861874},{"NoteNumber":86,"Velocity":88,"Duration":89730,"SoundDuration":89730,"Delta":236951695},{"NoteNumber":82,"Velocity":83,"Duration":89552,"SoundDuration":89552,"Delta":237041426},{"NoteNumber":89,"Velocity":95,"Duration":89552,"SoundDuration":89552,"Delta":237130978},{"NoteNumber":86,"Velocity":88,"Duration":89552,"SoundDuration":89552,"Delta":237220530},{"NoteNumber":89,"Velocity":95,"Duration":89552,"SoundDuration":89552,"Delta":237310082},{"NoteNumber":86,"Velocity":85,"Duration":89507,"SoundDuration":89507,"Delta":237399635},{"NoteNumber":82,"Velocity":93,"Duration":89285,"SoundDuration":89285,"Delta":237489142},{"NoteNumber":86,"Velocity":89,"Duration":89285,"SoundDuration":89285,"Delta":237578428},{"NoteNumber":82,"Velocity":93,"Duration":89285,"SoundDuration":89285,"Delta":237667714},{"NoteNumber":86,"Velocity":87,"Duration":89463,"SoundDuration":89463,"Delta":237757000},{"NoteNumber":77,"Velocity":89,"Duration":89552,"SoundDuration":89552,"Delta":237846463},{"NoteNumber":82,"Velocity":84,"Duration":89552,"SoundDuration":89552,"Delta":237936015},{"NoteNumber":77,"Velocity":90,"Duration":89686,"SoundDuration":89686,"Delta":238025568},{"NoteNumber":82,"Velocity":84,"Duration":89820,"SoundDuration":89820,"Delta":238115254},{"NoteNumber":74,"Velocity":87,"Duration":89820,"SoundDuration":89820,"Delta":238205074},{"NoteNumber":77,"Velocity":80,"Duration":89910,"SoundDuration":89910,"Delta":238294894},{"NoteNumber":74,"Velocity":87,"Duration":90090,"SoundDuration":90090,"Delta":238384805},{"NoteNumber":77,"Velocity":80,"Duration":90089,"SoundDuration":90089,"Delta":238474895},{"NoteNumber":70,"Velocity":81,"Duration":90135,"SoundDuration":90135,"Delta":238564985},{"NoteNumber":74,"Velocity":73,"Duration":90361,"SoundDuration":90361,"Delta":238655120},{"NoteNumber":70,"Velocity":81,"Duration":90361,"SoundDuration":90361,"Delta":238745481},{"NoteNumber":74,"Velocity":73,"Duration":90361,"SoundDuration":90361,"Delta":238835843},{"NoteNumber":65,"Velocity":83,"Duration":185758,"SoundDuration":185758,"Delta":238926204},{"NoteNumber":53,"Velocity":57,"Duration":185758,"SoundDuration":185758,"Delta":238926204},{"NoteNumber":62,"Velocity":54,"Duration":185758,"SoundDuration":185758,"Delta":239111963},{"NoteNumber":77,"Velocity":91,"Duration":543806,"SoundDuration":543806,"Delta":239297721},{"NoteNumber":58,"Velocity":57,"Duration":181268,"SoundDuration":181268,"Delta":239297721},{"NoteNumber":62,"Velocity":53,"Duration":181269,"SoundDuration":181269,"Delta":239478990},{"NoteNumber":53,"Velocity":57,"Duration":181268,"SoundDuration":181268,"Delta":239660259},{"NoteNumber":79,"Velocity":77,"Duration":90634,"SoundDuration":90634,"Delta":239841528},{"NoteNumber":62,"Velocity":52,"Duration":181269,"SoundDuration":181269,"Delta":239841528},{"NoteNumber":77,"Velocity":76,"Duration":90634,"SoundDuration":90634,"Delta":239932163},{"NoteNumber":75,"Velocity":76,"Duration":90634,"SoundDuration":90634,"Delta":240022797},{"NoteNumber":58,"Velocity":57,"Duration":181268,"SoundDuration":181268,"Delta":240022797},{"NoteNumber":74,"Velocity":75,"Duration":90634,"SoundDuration":90634,"Delta":240113432},{"NoteNumber":72,"Velocity":74,"Duration":90634,"SoundDuration":90634,"Delta":240204066},{"NoteNumber":62,"Velocity":53,"Duration":181269,"SoundDuration":181269,"Delta":240204066},{"NoteNumber":70,"Velocity":73,"Duration":90634,"SoundDuration":90634,"Delta":240294701},{"NoteNumber":70,"Velocity":53,"Duration":61161,"SoundDuration":61161,"Delta":240385335},{"NoteNumber":53,"Velocity":66,"Duration":183299,"SoundDuration":183299,"Delta":240385335},{"NoteNumber":72,"Velocity":48,"Duration":61162,"SoundDuration":61162,"Delta":240446497},{"NoteNumber":74,"Velocity":49,"Duration":60975,"SoundDuration":60975,"Delta":240507659},{"NoteNumber":72,"Velocity":53,"Duration":60975,"SoundDuration":60975,"Delta":240568635},{"NoteNumber":63,"Velocity":59,"Duration":182556,"SoundDuration":182556,"Delta":240568635},{"NoteNumber":74,"Velocity":51,"Duration":60790,"SoundDuration":60790,"Delta":240629611},{"NoteNumber":72,"Velocity":55,"Duration":60790,"SoundDuration":60790,"Delta":240690401},{"NoteNumber":74,"Velocity":52,"Duration":60606,"SoundDuration":60606,"Delta":240751191},{"NoteNumber":57,"Velocity":65,"Duration":181635,"SoundDuration":181635,"Delta":240751191},{"NoteNumber":72,"Velocity":56,"Duration":60606,"SoundDuration":60606,"Delta":240811797},{"NoteNumber":74,"Velocity":52,"Duration":60422,"SoundDuration":60422,"Delta":240872403},{"NoteNumber":72,"Velocity":56,"Duration":60422,"SoundDuration":60422,"Delta":240932826},{"NoteNumber":63,"Velocity":61,"Duration":180814,"SoundDuration":180814,"Delta":240932826},{"NoteNumber":74,"Velocity":54,"Duration":60240,"SoundDuration":60240,"Delta":240993249},{"NoteNumber":72,"Velocity":58,"Duration":60150,"SoundDuration":60150,"Delta":241053490},{"NoteNumber":74,"Velocity":55,"Duration":60240,"SoundDuration":60240,"Delta":241113641},{"NoteNumber":53,"Velocity":65,"Duration":181132,"SoundDuration":181132,"Delta":241113641},{"NoteNumber":72,"Velocity":59,"Duration":60377,"SoundDuration":60377,"Delta":241173882},{"NoteNumber":74,"Velocity":54,"Duration":60514,"SoundDuration":60514,"Delta":241234259},{"NoteNumber":72,"Velocity":60,"Duration":60698,"SoundDuration":60698,"Delta":241294774},{"NoteNumber":63,"Velocity":61,"Duration":182557,"SoundDuration":182557,"Delta":241294774},{"NoteNumber":74,"Velocity":56,"Duration":60836,"SoundDuration":60836,"Delta":241355472},{"NoteNumber":72,"Velocity":57,"Duration":61022,"SoundDuration":61022,"Delta":241416309},{"NoteNumber":74,"Velocity":65,"Duration":91836,"SoundDuration":91836,"Delta":241477331},{"NoteNumber":57,"Velocity":65,"Duration":184002,"SoundDuration":184002,"Delta":241477331},{"NoteNumber":72,"Velocity":61,"Duration":92166,"SoundDuration":92166,"Delta":241569168},{"NoteNumber":70,"Velocity":67,"Duration":92545,"SoundDuration":92545,"Delta":241661334},{"NoteNumber":63,"Velocity":61,"Duration":185520,"SoundDuration":185520,"Delta":241661334},{"NoteNumber":72,"Velocity":64,"Duration":92975,"SoundDuration":92975,"Delta":241753879},{"NoteNumber":70,"Velocity":70,"Duration":181268,"SoundDuration":181268,"Delta":241846854},{"NoteNumber":58,"Velocity":52,"Duration":362538,"SoundDuration":362538,"Delta":241846854},{"NoteNumber":62,"Velocity":52,"Duration":362538,"SoundDuration":362538,"Delta":241846854},{"NoteNumber":70,"Velocity":59,"Duration":181269,"SoundDuration":181269,"Delta":242028123},{"NoteNumber":62,"Velocity":52,"Duration":362538,"SoundDuration":362538,"Delta":242209392},{"NoteNumber":58,"Velocity":52,"Duration":362538,"SoundDuration":362538,"Delta":242209392},{"NoteNumber":70,"Velocity":56,"Duration":181269,"SoundDuration":181269,"Delta":242390661},{"NoteNumber":70,"Velocity":57,"Duration":181268,"SoundDuration":181268,"Delta":242571930},{"NoteNumber":70,"Velocity":57,"Duration":181269,"SoundDuration":181269,"Delta":242753199},{"NoteNumber":62,"Velocity":56,"Duration":362538,"SoundDuration":362538,"Delta":242934468},{"NoteNumber":58,"Velocity":56,"Duration":362538,"SoundDuration":362538,"Delta":242934468},{"NoteNumber":70,"Velocity":56,"Duration":181269,"SoundDuration":181269,"Delta":243115737},{"NoteNumber":72,"Velocity":60,"Duration":181268,"SoundDuration":181268,"Delta":243297006},{"NoteNumber":58,"Velocity":58,"Duration":362538,"SoundDuration":362538,"Delta":243297006},{"NoteNumber":69,"Velocity":58,"Duration":362538,"SoundDuration":362538,"Delta":243297006},{"NoteNumber":72,"Velocity":57,"Duration":90634,"SoundDuration":90634,"Delta":243478275},{"NoteNumber":58,"Velocity":54,"Duration":362538,"SoundDuration":362538,"Delta":243659544},{"NoteNumber":69,"Velocity":54,"Duration":362538,"SoundDuration":362538,"Delta":243659544},{"NoteNumber":72,"Velocity":57,"Duration":181269,"SoundDuration":181269,"Delta":243840813},{"NoteNumber":72,"Velocity":60,"Duration":181268,"SoundDuration":181268,"Delta":244022082},{"NoteNumber":72,"Velocity":57,"Duration":181269,"SoundDuration":181269,"Delta":244203351},{"NoteNumber":58,"Velocity":61,"Duration":362538,"SoundDuration":362538,"Delta":244384620},{"NoteNumber":69,"Velocity":61,"Duration":362538,"SoundDuration":362538,"Delta":244384620},{"NoteNumber":72,"Velocity":61,"Duration":181269,"SoundDuration":181269,"Delta":244565889},{"NoteNumber":74,"Velocity":65,"Duration":181268,"SoundDuration":181268,"Delta":244747158},{"NoteNumber":58,"Velocity":67,"Duration":362538,"SoundDuration":362538,"Delta":244747158},{"NoteNumber":68,"Velocity":67,"Duration":362538,"SoundDuration":362538,"Delta":244747158},{"NoteNumber":74,"Velocity":61,"Duration":90634,"SoundDuration":90634,"Delta":244928427},{"NoteNumber":68,"Velocity":62,"Duration":362538,"SoundDuration":362538,"Delta":245109696},{"NoteNumber":58,"Velocity":62,"Duration":362538,"SoundDuration":362538,"Delta":245109696},{"NoteNumber":74,"Velocity":70,"Duration":181269,"SoundDuration":181269,"Delta":245290965},{"NoteNumber":75,"Velocity":72,"Duration":181268,"SoundDuration":181268,"Delta":245472234},{"NoteNumber":67,"Velocity":71,"Duration":362538,"SoundDuration":362538,"Delta":245472234},{"NoteNumber":58,"Velocity":71,"Duration":362538,"SoundDuration":362538,"Delta":245472234},{"NoteNumber":75,"Velocity":70,"Duration":90634,"SoundDuration":90634,"Delta":245653503},{"NoteNumber":67,"Velocity":68,"Duration":362538,"SoundDuration":362538,"Delta":245834772},{"NoteNumber":58,"Velocity":68,"Duration":362538,"SoundDuration":362538,"Delta":245834772},{"NoteNumber":76,"Velocity":77,"Duration":181269,"SoundDuration":181269,"Delta":246016041},{"NoteNumber":77,"Velocity":81,"Duration":181268,"SoundDuration":181268,"Delta":246197310},{"NoteNumber":62,"Velocity":82,"Duration":362538,"SoundDuration":362538,"Delta":246197310},{"NoteNumber":58,"Velocity":82,"Duration":362538,"SoundDuration":362538,"Delta":246197310},{"NoteNumber":77,"Velocity":78,"Duration":90634,"SoundDuration":90634,"Delta":246378579},{"NoteNumber":58,"Velocity":76,"Duration":362538,"SoundDuration":362538,"Delta":246559848},{"NoteNumber":62,"Velocity":76,"Duration":362538,"SoundDuration":362538,"Delta":246559848},{"NoteNumber":78,"Velocity":85,"Duration":181269,"SoundDuration":181269,"Delta":246741117},{"NoteNumber":79,"Velocity":92,"Duration":181819,"SoundDuration":181819,"Delta":246922386},{"NoteNumber":58,"Velocity":85,"Duration":365447,"SoundDuration":365447,"Delta":246922386},{"NoteNumber":63,"Velocity":85,"Duration":365447,"SoundDuration":365447,"Delta":246922386},{"NoteNumber":79,"Velocity":92,"Duration":91603,"SoundDuration":91603,"Delta":247104206},{"NoteNumber":81,"Velocity":96,"Duration":92497,"SoundDuration":92497,"Delta":247287834},{"NoteNumber":58,"Velocity":91,"Duration":372828,"SoundDuration":372828,"Delta":247287834},{"NoteNumber":60,"Velocity":91,"Duration":372828,"SoundDuration":372828,"Delta":247287834},{"NoteNumber":81,"Velocity":96,"Duration":93458,"SoundDuration":93458,"Delta":247473307},{"NoteNumber":74,"Velocity":109,"Duration":90361,"SoundDuration":90361,"Delta":247660662},{"NoteNumber":58,"Velocity":90,"Duration":90361,"SoundDuration":90361,"Delta":247660662},{"NoteNumber":46,"Velocity":76,"Duration":90361,"SoundDuration":90361,"Delta":247660662},{"NoteNumber":82,"Velocity":93,"Duration":90361,"SoundDuration":90361,"Delta":247751023},{"NoteNumber":86,"Velocity":105,"Duration":90361,"SoundDuration":90361,"Delta":247841385},{"NoteNumber":58,"Velocity":87,"Duration":90361,"SoundDuration":90361,"Delta":247841385},{"NoteNumber":46,"Velocity":73,"Duration":90361,"SoundDuration":90361,"Delta":247841385},{"NoteNumber":82,"Velocity":96,"Duration":90361,"SoundDuration":90361,"Delta":247931746},{"NoteNumber":86,"Velocity":105,"Duration":90361,"SoundDuration":90361,"Delta":248022108},{"NoteNumber":82,"Velocity":96,"Duration":90361,"SoundDuration":90361,"Delta":248112469},{"NoteNumber":86,"Velocity":103,"Duration":90361,"SoundDuration":90361,"Delta":248202831},{"NoteNumber":46,"Velocity":71,"Duration":180723,"SoundDuration":180723,"Delta":248202831},{"NoteNumber":58,"Velocity":84,"Duration":180723,"SoundDuration":180723,"Delta":248202831},{"NoteNumber":82,"Velocity":94,"Duration":90361,"SoundDuration":90361,"Delta":248293192},{"NoteNumber":74,"Velocity":110,"Duration":90361,"SoundDuration":90361,"Delta":248383554},{"NoteNumber":62,"Velocity":90,"Duration":90361,"SoundDuration":90361,"Delta":248383554},{"NoteNumber":50,"Velocity":76,"Duration":90361,"SoundDuration":90361,"Delta":248383554},{"NoteNumber":82,"Velocity":94,"Duration":90361,"SoundDuration":90361,"Delta":248473915},{"NoteNumber":86,"Velocity":103,"Duration":90361,"SoundDuration":90361,"Delta":248564277},{"NoteNumber":50,"Velocity":74,"Duration":90361,"SoundDuration":90361,"Delta":248564277},{"NoteNumber":62,"Velocity":88,"Duration":90361,"SoundDuration":90361,"Delta":248564277},{"NoteNumber":82,"Velocity":100,"Duration":90361,"SoundDuration":90361,"Delta":248654638},{"NoteNumber":86,"Velocity":105,"Duration":90361,"SoundDuration":90361,"Delta":248745000},{"NoteNumber":82,"Velocity":94,"Duration":90361,"SoundDuration":90361,"Delta":248835361},{"NoteNumber":86,"Velocity":100,"Duration":90361,"SoundDuration":90361,"Delta":248925723},{"NoteNumber":46,"Velocity":72,"Duration":180723,"SoundDuration":180723,"Delta":248925723},{"NoteNumber":58,"Velocity":85,"Duration":180723,"SoundDuration":180723,"Delta":248925723},{"NoteNumber":82,"Velocity":95,"Duration":90361,"SoundDuration":90361,"Delta":249016084},{"NoteNumber":74,"Velocity":109,"Duration":90361,"SoundDuration":90361,"Delta":249106446},{"NoteNumber":43,"Velocity":76,"Duration":90361,"SoundDuration":90361,"Delta":249106446},{"NoteNumber":55,"Velocity":90,"Duration":90361,"SoundDuration":90361,"Delta":249106446},{"NoteNumber":82,"Velocity":95,"Duration":90361,"SoundDuration":90361,"Delta":249196807},{"NoteNumber":86,"Velocity":100,"Duration":90361,"SoundDuration":90361,"Delta":249287169},{"NoteNumber":43,"Velocity":74,"Duration":90361,"SoundDuration":90361,"Delta":249287169},{"NoteNumber":55,"Velocity":88,"Duration":90361,"SoundDuration":90361,"Delta":249287169},{"NoteNumber":82,"Velocity":93,"Duration":90361,"SoundDuration":90361,"Delta":249377530},{"NoteNumber":86,"Velocity":105,"Duration":90361,"SoundDuration":90361,"Delta":249467892},{"NoteNumber":82,"Velocity":95,"Duration":90361,"SoundDuration":90361,"Delta":249558253},{"NoteNumber":86,"Velocity":100,"Duration":90361,"SoundDuration":90361,"Delta":249648615},{"NoteNumber":43,"Velocity":71,"Duration":180723,"SoundDuration":180723,"Delta":249648615},{"NoteNumber":55,"Velocity":84,"Duration":180723,"SoundDuration":180723,"Delta":249648615},{"NoteNumber":82,"Velocity":93,"Duration":90361,"SoundDuration":90361,"Delta":249738976},{"NoteNumber":74,"Velocity":109,"Duration":90361,"SoundDuration":90361,"Delta":249829338},{"NoteNumber":58,"Velocity":90,"Duration":90361,"SoundDuration":90361,"Delta":249829338},{"NoteNumber":46,"Velocity":76,"Duration":90361,"SoundDuration":90361,"Delta":249829338},{"NoteNumber":82,"Velocity":95,"Duration":90361,"SoundDuration":90361,"Delta":249919699},{"NoteNumber":86,"Velocity":101,"Duration":90361,"SoundDuration":90361,"Delta":250010061},{"NoteNumber":58,"Velocity":87,"Duration":90361,"SoundDuration":90361,"Delta":250010061},{"NoteNumber":46,"Velocity":73,"Duration":90361,"SoundDuration":90361,"Delta":250010061},{"NoteNumber":82,"Velocity":94,"Duration":90361,"SoundDuration":90361,"Delta":250100422},{"NoteNumber":86,"Velocity":105,"Duration":90361,"SoundDuration":90361,"Delta":250190784},{"NoteNumber":82,"Velocity":96,"Duration":90361,"SoundDuration":90361,"Delta":250281145},{"NoteNumber":86,"Velocity":100,"Duration":92024,"SoundDuration":92024,"Delta":250371507},{"NoteNumber":43,"Velocity":71,"Duration":184048,"SoundDuration":184048,"Delta":250371507},{"NoteNumber":55,"Velocity":84,"Duration":184048,"SoundDuration":184048,"Delta":250371507},{"NoteNumber":82,"Velocity":93,"Duration":92024,"SoundDuration":92024,"Delta":250463531},{"NoteNumber":74,"Velocity":109,"Duration":92024,"SoundDuration":92024,"Delta":250555556},{"NoteNumber":38,"Velocity":76,"Duration":92024,"SoundDuration":92024,"Delta":250555556},{"NoteNumber":50,"Velocity":90,"Duration":92024,"SoundDuration":92024,"Delta":250555556},{"NoteNumber":82,"Velocity":95,"Duration":92024,"SoundDuration":92024,"Delta":250647580},{"NoteNumber":86,"Velocity":100,"Duration":92024,"SoundDuration":92024,"Delta":250739605},{"NoteNumber":50,"Velocity":89,"Duration":92024,"SoundDuration":92024,"Delta":250739605},{"NoteNumber":38,"Velocity":75,"Duration":92024,"SoundDuration":92024,"Delta":250739605},{"NoteNumber":82,"Velocity":95,"Duration":92024,"SoundDuration":92024,"Delta":250831629},{"NoteNumber":86,"Velocity":104,"Duration":92024,"SoundDuration":92024,"Delta":250923654},{"NoteNumber":82,"Velocity":94,"Duration":94611,"SoundDuration":94611,"Delta":251015678},{"NoteNumber":86,"Velocity":101,"Duration":99607,"SoundDuration":99607,"Delta":251110290},{"NoteNumber":38,"Velocity":74,"Duration":198917,"SoundDuration":198917,"Delta":251110290},{"NoteNumber":50,"Velocity":88,"Duration":198917,"SoundDuration":198917,"Delta":251110290},{"NoteNumber":82,"Velocity":93,"Duration":99309,"SoundDuration":99309,"Delta":251209898},{"NoteNumber":74,"Velocity":109,"Duration":102692,"SoundDuration":102692,"Delta":251309208},{"NoteNumber":51,"Velocity":91,"Duration":102692,"SoundDuration":102692,"Delta":251309208},{"NoteNumber":39,"Velocity":77,"Duration":102692,"SoundDuration":102692,"Delta":251309208},{"NoteNumber":82,"Velocity":95,"Duration":105286,"SoundDuration":105286,"Delta":251411900},{"NoteNumber":86,"Velocity":100,"Duration":107457,"SoundDuration":107457,"Delta":251517186},{"NoteNumber":39,"Velocity":77,"Duration":107457,"SoundDuration":107457,"Delta":251517186},{"NoteNumber":51,"Velocity":91,"Duration":107457,"SoundDuration":107457,"Delta":251517186},{"NoteNumber":82,"Velocity":95,"Duration":110409,"SoundDuration":110409,"Delta":251624644},{"NoteNumber":86,"Velocity":104,"Duration":112941,"SoundDuration":112941,"Delta":251735053},{"NoteNumber":52,"Velocity":96,"Duration":112941,"SoundDuration":112941,"Delta":251735053},{"NoteNumber":40,"Velocity":81,"Duration":112941,"SoundDuration":112941,"Delta":251735053},{"NoteNumber":82,"Velocity":95,"Duration":115988,"SoundDuration":115988,"Delta":251847995},{"NoteNumber":86,"Velocity":100,"Duration":119035,"SoundDuration":119035,"Delta":251963983},{"NoteNumber":40,"Velocity":78,"Duration":119035,"SoundDuration":119035,"Delta":251963983},{"NoteNumber":52,"Velocity":92,"Duration":119035,"SoundDuration":119035,"Delta":251963983},{"NoteNumber":82,"Velocity":95,"Duration":229007,"SoundDuration":229007,"Delta":252083019},{"NoteNumber":82,"Velocity":99,"Duration":693642,"SoundDuration":693642,"Delta":252312027},{"NoteNumber":86,"Velocity":99,"Duration":1387283,"SoundDuration":1387283,"Delta":252312027},{"NoteNumber":74,"Velocity":99,"Duration":693642,"SoundDuration":693642,"Delta":252312027},{"NoteNumber":77,"Velocity":99,"Duration":693642,"SoundDuration":693642,"Delta":252312027},{"NoteNumber":41,"Velocity":79,"Duration":1387283,"SoundDuration":1387283,"Delta":252312027},{"NoteNumber":53,"Velocity":93,"Duration":1387283,"SoundDuration":1387283,"Delta":252312027},{"NoteNumber":65,"Velocity":57,"Duration":87976,"SoundDuration":87976,"Delta":253875264},{"NoteNumber":69,"Velocity":59,"Duration":87976,"SoundDuration":87976,"Delta":253963240},{"NoteNumber":67,"Velocity":61,"Duration":87976,"SoundDuration":87976,"Delta":254051217},{"NoteNumber":70,"Velocity":62,"Duration":87976,"SoundDuration":87976,"Delta":254139193},{"NoteNumber":69,"Velocity":64,"Duration":87976,"SoundDuration":87976,"Delta":254227170},{"NoteNumber":72,"Velocity":66,"Duration":87976,"SoundDuration":87976,"Delta":254315146},{"NoteNumber":70,"Velocity":68,"Duration":99337,"SoundDuration":99337,"Delta":254403123},{"NoteNumber":69,"Velocity":54,"Duration":89552,"SoundDuration":89552,"Delta":254601798},{"NoteNumber":72,"Velocity":56,"Duration":89552,"SoundDuration":89552,"Delta":254691350},{"NoteNumber":70,"Velocity":58,"Duration":89552,"SoundDuration":89552,"Delta":254780903},{"NoteNumber":74,"Velocity":60,"Duration":89552,"SoundDuration":89552,"Delta":254870455},{"NoteNumber":72,"Velocity":61,"Duration":89552,"SoundDuration":89552,"Delta":254960007},{"NoteNumber":75,"Velocity":63,"Duration":89552,"SoundDuration":89552,"Delta":255049559},{"NoteNumber":74,"Velocity":65,"Duration":94637,"SoundDuration":94637,"Delta":255139112},{"NoteNumber":72,"Velocity":56,"Duration":94842,"SoundDuration":94842,"Delta":255327682},{"NoteNumber":75,"Velocity":58,"Duration":95904,"SoundDuration":95904,"Delta":255422525},{"NoteNumber":74,"Velocity":59,"Duration":97996,"SoundDuration":97996,"Delta":255518430},{"NoteNumber":77,"Velocity":60,"Duration":100452,"SoundDuration":100452,"Delta":255616426},{"NoteNumber":75,"Velocity":62,"Duration":101995,"SoundDuration":101995,"Delta":255716878},{"NoteNumber":79,"Velocity":63,"Duration":135746,"SoundDuration":135746,"Delta":255818874},{"NoteNumber":53,"Velocity":51,"Duration":181817,"SoundDuration":181817,"Delta":255954620},{"NoteNumber":77,"Velocity":69,"Duration":545454,"SoundDuration":545454,"Delta":255955378},{"NoteNumber":62,"Velocity":45,"Duration":181818,"SoundDuration":181818,"Delta":256136438},{"NoteNumber":58,"Velocity":47,"Duration":181817,"SoundDuration":181817,"Delta":256318256},{"NoteNumber":74,"Velocity":66,"Duration":181818,"SoundDuration":181818,"Delta":256500074},{"NoteNumber":62,"Velocity":44,"Duration":181818,"SoundDuration":181818,"Delta":256500074},{"NoteNumber":70,"Velocity":70,"Duration":181818,"SoundDuration":181818,"Delta":256681892},{"NoteNumber":53,"Velocity":50,"Duration":181818,"SoundDuration":181818,"Delta":256681892},{"NoteNumber":62,"Velocity":44,"Duration":181817,"SoundDuration":181817,"Delta":256863710},{"NoteNumber":70,"Velocity":70,"Duration":185184,"SoundDuration":185184,"Delta":257045528},{"NoteNumber":58,"Velocity":47,"Duration":185184,"SoundDuration":185184,"Delta":257045528},{"NoteNumber":62,"Velocity":44,"Duration":185184,"SoundDuration":185184,"Delta":257230713},{"NoteNumber":75,"Velocity":76,"Duration":72727,"SoundDuration":72727,"Delta":257415898},{"NoteNumber":53,"Velocity":51,"Duration":181818,"SoundDuration":181818,"Delta":257415898},{"NoteNumber":77,"Velocity":54,"Duration":72727,"SoundDuration":72727,"Delta":257488625},{"NoteNumber":75,"Velocity":54,"Duration":72727,"SoundDuration":72727,"Delta":257561353},{"NoteNumber":63,"Velocity":44,"Duration":181817,"SoundDuration":181817,"Delta":257597716},{"NoteNumber":74,"Velocity":54,"Duration":72727,"SoundDuration":72727,"Delta":257634080},{"NoteNumber":75,"Velocity":54,"Duration":72727,"SoundDuration":72727,"Delta":257706807},{"NoteNumber":79,"Velocity":70,"Duration":363636,"SoundDuration":363636,"Delta":257779534},{"NoteNumber":60,"Velocity":47,"Duration":181818,"SoundDuration":181818,"Delta":257779534},{"NoteNumber":63,"Velocity":45,"Duration":181818,"SoundDuration":181818,"Delta":257961352},{"NoteNumber":69,"Velocity":72,"Duration":366971,"SoundDuration":366971,"Delta":258143170},{"NoteNumber":53,"Velocity":50,"Duration":183486,"SoundDuration":183486,"Delta":258143170},{"NoteNumber":63,"Velocity":39,"Duration":183485,"SoundDuration":183485,"Delta":258326656},{"NoteNumber":60,"Velocity":44,"Duration":183486,"SoundDuration":183486,"Delta":258510142},{"NoteNumber":63,"Velocity":38,"Duration":188678,"SoundDuration":188678,"Delta":258693628},{"NoteNumber":53,"Velocity":51,"Duration":181818,"SoundDuration":181818,"Delta":258882307},{"NoteNumber":77,"Velocity":68,"Duration":545453,"SoundDuration":545453,"Delta":258883065},{"NoteNumber":61,"Velocity":41,"Duration":181817,"SoundDuration":181817,"Delta":259064125},{"NoteNumber":58,"Velocity":45,"Duration":181818,"SoundDuration":181818,"Delta":259245943},{"NoteNumber":73,"Velocity":59,"Duration":181818,"SoundDuration":181818,"Delta":259427761},{"NoteNumber":61,"Velocity":41,"Duration":181818,"SoundDuration":181818,"Delta":259427761},{"NoteNumber":70,"Velocity":63,"Duration":181817,"SoundDuration":181817,"Delta":259609579},{"NoteNumber":53,"Velocity":47,"Duration":181817,"SoundDuration":181817,"Delta":259609579},{"NoteNumber":61,"Velocity":40,"Duration":181818,"SoundDuration":181818,"Delta":259791397},{"NoteNumber":70,"Velocity":63,"Duration":185184,"SoundDuration":185184,"Delta":259973215},{"NoteNumber":58,"Velocity":45,"Duration":185184,"SoundDuration":185184,"Delta":259973215},{"NoteNumber":61,"Velocity":40,"Duration":185184,"SoundDuration":185184,"Delta":260158400},{"NoteNumber":75,"Velocity":68,"Duration":72727,"SoundDuration":72727,"Delta":260343585},{"NoteNumber":53,"Velocity":48,"Duration":181818,"SoundDuration":181818,"Delta":260343585},{"NoteNumber":77,"Velocity":48,"Duration":72727,"SoundDuration":72727,"Delta":260416312},{"NoteNumber":75,"Velocity":48,"Duration":72727,"SoundDuration":72727,"Delta":260489040},{"NoteNumber":63,"Velocity":40,"Duration":181817,"SoundDuration":181817,"Delta":260525403},{"NoteNumber":74,"Velocity":48,"Duration":72727,"SoundDuration":72727,"Delta":260561767},{"NoteNumber":75,"Velocity":48,"Duration":72727,"SoundDuration":72727,"Delta":260634494},{"NoteNumber":78,"Velocity":63,"Duration":363636,"SoundDuration":363636,"Delta":260707221},{"NoteNumber":60,"Velocity":45,"Duration":181818,"SoundDuration":181818,"Delta":260707221},{"NoteNumber":63,"Velocity":40,"Duration":181818,"SoundDuration":181818,"Delta":260889039},{"NoteNumber":69,"Velocity":64,"Duration":366971,"SoundDuration":366971,"Delta":261070857},{"NoteNumber":53,"Velocity":48,"Duration":183486,"SoundDuration":183486,"Delta":261070857},{"NoteNumber":63,"Velocity":36,"Duration":183485,"SoundDuration":183485,"Delta":261254343},{"NoteNumber":60,"Velocity":41,"Duration":183486,"SoundDuration":183486,"Delta":261437829},{"NoteNumber":63,"Velocity":35,"Duration":183486,"SoundDuration":183486,"Delta":261621315},{"NoteNumber":70,"Velocity":76,"Duration":91743,"SoundDuration":91743,"Delta":261804801},{"NoteNumber":54,"Velocity":75,"Duration":364755,"SoundDuration":364755,"Delta":261804801},{"NoteNumber":61,"Velocity":75,"Duration":364755,"SoundDuration":364755,"Delta":261804801},{"NoteNumber":82,"Velocity":79,"Duration":181268,"SoundDuration":181268,"Delta":261988287},{"NoteNumber":84,"Velocity":81,"Duration":181268,"SoundDuration":181268,"Delta":262169556},{"NoteNumber":85,"Velocity":77,"Duration":185184,"SoundDuration":185184,"Delta":262350825},{"NoteNumber":84,"Velocity":84,"Duration":180813,"SoundDuration":180813,"Delta":262536010},{"NoteNumber":82,"Velocity":77,"Duration":181452,"SoundDuration":181452,"Delta":262716824},{"NoteNumber":80,"Velocity":79,"Duration":182140,"SoundDuration":182140,"Delta":262898276},{"NoteNumber":78,"Velocity":78,"Duration":182787,"SoundDuration":182787,"Delta":263080417},{"NoteNumber":77,"Velocity":76,"Duration":734622,"SoundDuration":734622,"Delta":263263205},{"NoteNumber":54,"Velocity":66,"Duration":1466330,"SoundDuration":1466330,"Delta":263263205},{"NoteNumber":58,"Velocity":63,"Duration":181818,"SoundDuration":181818,"Delta":263446691},{"NoteNumber":60,"Velocity":66,"Duration":181817,"SoundDuration":181817,"Delta":263628509},{"NoteNumber":61,"Velocity":70,"Duration":82031,"SoundDuration":82031,"Delta":263810327},{"NoteNumber":76,"Velocity":72,"Duration":731708,"SoundDuration":731708,"Delta":263997827},{"NoteNumber":61,"Velocity":70,"Duration":182927,"SoundDuration":182927,"Delta":263997827},{"NoteNumber":60,"Velocity":65,"Duration":80030,"SoundDuration":80030,"Delta":264180754},{"NoteNumber":60,"Velocity":69,"Duration":182927,"SoundDuration":182927,"Delta":264363681},{"NoteNumber":58,"Velocity":66,"Duration":91463,"SoundDuration":91463,"Delta":264546608},{"NoteNumber":77,"Velocity":86,"Duration":90909,"SoundDuration":90909,"Delta":264729535},{"NoteNumber":57,"Velocity":67,"Duration":90909,"SoundDuration":90909,"Delta":264729535},{"NoteNumber":53,"Velocity":47,"Duration":90909,"SoundDuration":90909,"Delta":264729535},{"NoteNumber":77,"Velocity":86,"Duration":90908,"SoundDuration":90908,"Delta":264911353},{"NoteNumber":57,"Velocity":50,"Duration":363636,"SoundDuration":363636,"Delta":265093171},{"NoteNumber":53,"Velocity":35,"Duration":363636,"SoundDuration":363636,"Delta":265093171},{"NoteNumber":77,"Velocity":60,"Duration":90909,"SoundDuration":90909,"Delta":265274989},{"NoteNumber":77,"Velocity":65,"Duration":90908,"SoundDuration":90908,"Delta":265456807},{"NoteNumber":77,"Velocity":60,"Duration":90909,"SoundDuration":90909,"Delta":265638625},{"NoteNumber":53,"Velocity":35,"Duration":363635,"SoundDuration":363635,"Delta":265820443},{"NoteNumber":57,"Velocity":50,"Duration":363635,"SoundDuration":363635,"Delta":265820443},{"NoteNumber":77,"Velocity":60,"Duration":90909,"SoundDuration":90909,"Delta":266002261},{"NoteNumber":77,"Velocity":65,"Duration":90909,"SoundDuration":90909,"Delta":266184079},{"NoteNumber":53,"Velocity":38,"Duration":90909,"SoundDuration":90909,"Delta":266184079},{"NoteNumber":58,"Velocity":53,"Duration":90909,"SoundDuration":90909,"Delta":266184079},{"NoteNumber":55,"Velocity":38,"Duration":90909,"SoundDuration":90909,"Delta":266184079},{"NoteNumber":77,"Velocity":60,"Duration":90908,"SoundDuration":90908,"Delta":266365897},{"NoteNumber":55,"Velocity":35,"Duration":363636,"SoundDuration":363636,"Delta":266547715},{"NoteNumber":58,"Velocity":50,"Duration":363636,"SoundDuration":363636,"Delta":266547715},{"NoteNumber":53,"Velocity":35,"Duration":363636,"SoundDuration":363636,"Delta":266547715},{"NoteNumber":77,"Velocity":64,"Duration":90909,"SoundDuration":90909,"Delta":266729533},{"NoteNumber":77,"Velocity":66,"Duration":90908,"SoundDuration":90908,"Delta":266911351},{"NoteNumber":77,"Velocity":64,"Duration":90909,"SoundDuration":90909,"Delta":267093169},{"NoteNumber":56,"Velocity":54,"Duration":363635,"SoundDuration":363635,"Delta":267274987},{"NoteNumber":59,"Velocity":54,"Duration":363635,"SoundDuration":363635,"Delta":267274987},{"NoteNumber":53,"Velocity":38,"Duration":363635,"SoundDuration":363635,"Delta":267274987},{"NoteNumber":77,"Velocity":69,"Duration":90909,"SoundDuration":90909,"Delta":267456805},{"NoteNumber":77,"Velocity":72,"Duration":90634,"SoundDuration":90634,"Delta":267638623},{"NoteNumber":57,"Velocity":39,"Duration":364008,"SoundDuration":364008,"Delta":267638623},{"NoteNumber":60,"Velocity":55,"Duration":364008,"SoundDuration":364008,"Delta":267638623},{"NoteNumber":53,"Velocity":39,"Duration":732204,"SoundDuration":732204,"Delta":267638623},{"NoteNumber":77,"Velocity":72,"Duration":91139,"SoundDuration":91139,"Delta":267820121},{"NoteNumber":57,"Velocity":43,"Duration":368196,"SoundDuration":368196,"Delta":268002631},{"NoteNumber":61,"Velocity":61,"Duration":368196,"SoundDuration":368196,"Delta":268002631},{"NoteNumber":77,"Velocity":79,"Duration":92166,"SoundDuration":92166,"Delta":268186211},{"NoteNumber":77,"Velocity":82,"Duration":92688,"SoundDuration":92688,"Delta":268370828},{"NoteNumber":58,"Velocity":47,"Duration":372434,"SoundDuration":372434,"Delta":268370828},{"NoteNumber":62,"Velocity":66,"Duration":372434,"SoundDuration":372434,"Delta":268370828},{"NoteNumber":53,"Velocity":47,"Duration":749254,"SoundDuration":749254,"Delta":268370828},{"NoteNumber":77,"Velocity":84,"Duration":93264,"SoundDuration":93264,"Delta":268556491},{"NoteNumber":59,"Velocity":51,"Duration":376819,"SoundDuration":376819,"Delta":268743262},{"NoteNumber":62,"Velocity":71,"Duration":376819,"SoundDuration":376819,"Delta":268743262},{"NoteNumber":77,"Velocity":86,"Duration":94339,"SoundDuration":94339,"Delta":268931105},{"NoteNumber":77,"Velocity":86,"Duration":182370,"SoundDuration":182370,"Delta":269120082},{"NoteNumber":63,"Velocity":77,"Duration":1458968,"SoundDuration":1458968,"Delta":269120082},{"NoteNumber":53,"Velocity":55,"Duration":1458968,"SoundDuration":1458968,"Delta":269120082},{"NoteNumber":60,"Velocity":55,"Duration":1458968,"SoundDuration":1458968,"Delta":269120082},{"NoteNumber":81,"Velocity":81,"Duration":91185,"SoundDuration":91185,"Delta":269302453},{"NoteNumber":81,"Velocity":86,"Duration":182371,"SoundDuration":182371,"Delta":269484824},{"NoteNumber":84,"Velocity":81,"Duration":91185,"SoundDuration":91185,"Delta":269667195},{"NoteNumber":84,"Velocity":86,"Duration":182370,"SoundDuration":182370,"Delta":269849566},{"NoteNumber":87,"Velocity":81,"Duration":91185,"SoundDuration":91185,"Delta":270031937},{"NoteNumber":87,"Velocity":86,"Duration":182370,"SoundDuration":182370,"Delta":270214308},{"NoteNumber":84,"Velocity":75,"Duration":91185,"SoundDuration":91185,"Delta":270396679},{"NoteNumber":84,"Velocity":81,"Duration":183486,"SoundDuration":183486,"Delta":270579050},{"NoteNumber":81,"Velocity":73,"Duration":91743,"SoundDuration":91743,"Delta":270762536},{"NoteNumber":81,"Velocity":79,"Duration":183486,"SoundDuration":183486,"Delta":270946022},{"NoteNumber":77,"Velocity":71,"Duration":91743,"SoundDuration":91743,"Delta":271129508},{"NoteNumber":77,"Velocity":68,"Duration":189777,"SoundDuration":189777,"Delta":271312994},{"NoteNumber":76,"Velocity":57,"Duration":95949,"SoundDuration":95949,"Delta":271502771},{"NoteNumber":76,"Velocity":60,"Duration":195709,"SoundDuration":195709,"Delta":271695443},{"NoteNumber":77,"Velocity":57,"Duration":114503,"SoundDuration":114503,"Delta":271891153},{"NoteNumber":77,"Velocity":57,"Duration":195439,"SoundDuration":195439,"Delta":272120160},{"NoteNumber":53,"Velocity":36,"Duration":195439,"SoundDuration":195439,"Delta":272120160},{"NoteNumber":76,"Velocity":56,"Duration":195439,"SoundDuration":195439,"Delta":272315600},{"NoteNumber":57,"Velocity":36,"Duration":87947,"SoundDuration":87947,"Delta":272315600},{"NoteNumber":75,"Velocity":54,"Duration":767330,"SoundDuration":767330,"Delta":272511039},{"NoteNumber":57,"Velocity":42,"Duration":194230,"SoundDuration":194230,"Delta":272511039},{"NoteNumber":60,"Velocity":42,"Duration":86518,"SoundDuration":86518,"Delta":272705270},{"NoteNumber":60,"Velocity":50,"Duration":188879,"SoundDuration":188879,"Delta":272896814},{"NoteNumber":63,"Velocity":48,"Duration":87378,"SoundDuration":87378,"Delta":273085693},{"NoteNumber":75,"Velocity":66,"Duration":739035,"SoundDuration":739035,"Delta":273278370},{"NoteNumber":63,"Velocity":56,"Duration":184615,"SoundDuration":184615,"Delta":273278370},{"NoteNumber":60,"Velocity":51,"Duration":92307,"SoundDuration":92307,"Delta":273462986},{"NoteNumber":60,"Velocity":55,"Duration":184332,"SoundDuration":184332,"Delta":273647601},{"NoteNumber":57,"Velocity":53,"Duration":83333,"SoundDuration":83333,"Delta":273831933},{"NoteNumber":75,"Velocity":68,"Duration":280375,"SoundDuration":280375,"Delta":274017405},{"NoteNumber":57,"Velocity":55,"Duration":186625,"SoundDuration":186625,"Delta":274017405},{"NoteNumber":53,"Velocity":51,"Duration":187793,"SoundDuration":187793,"Delta":274204031},{"NoteNumber":75,"Velocity":70,"Duration":281401,"SoundDuration":281401,"Delta":274391825},{"NoteNumber":54,"Velocity":56,"Duration":188088,"SoundDuration":188088,"Delta":274391825},{"NoteNumber":55,"Velocity":59,"Duration":186192,"SoundDuration":186192,"Delta":274579914},{"NoteNumber":75,"Velocity":76,"Duration":275797,"SoundDuration":275797,"Delta":274766106},{"NoteNumber":56,"Velocity":62,"Duration":184333,"SoundDuration":184333,"Delta":274766106},{"NoteNumber":57,"Velocity":65,"Duration":182511,"SoundDuration":182511,"Delta":274950440},{"NoteNumber":74,"Velocity":84,"Duration":372671,"SoundDuration":372671,"Delta":275132951},{"NoteNumber":58,"Velocity":69,"Duration":93167,"SoundDuration":93167,"Delta":275132951},{"NoteNumber":58,"Velocity":46,"Duration":93167,"SoundDuration":93167,"Delta":275319286},{"NoteNumber":68,"Velocity":58,"Duration":361084,"SoundDuration":361084,"Delta":275505622},{"NoteNumber":77,"Velocity":58,"Duration":361084,"SoundDuration":361084,"Delta":275505622},{"NoteNumber":58,"Velocity":46,"Duration":90361,"SoundDuration":90361,"Delta":275685847},{"NoteNumber":75,"Velocity":54,"Duration":363592,"SoundDuration":363592,"Delta":275866706},{"NoteNumber":67,"Velocity":54,"Duration":363592,"SoundDuration":363592,"Delta":275866706},{"NoteNumber":58,"Velocity":48,"Duration":90634,"SoundDuration":90634,"Delta":275866706},{"NoteNumber":58,"Velocity":46,"Duration":90909,"SoundDuration":90909,"Delta":276048204},{"NoteNumber":66,"Velocity":48,"Duration":366134,"SoundDuration":366134,"Delta":276230299},{"NoteNumber":74,"Velocity":48,"Duration":366134,"SoundDuration":366134,"Delta":276230299},{"NoteNumber":58,"Velocity":46,"Duration":91649,"SoundDuration":91649,"Delta":276413040},{"NoteNumber":67,"Velocity":48,"Duration":373831,"SoundDuration":373831,"Delta":276596433},{"NoteNumber":75,"Velocity":48,"Duration":373831,"SoundDuration":373831,"Delta":276596433},{"NoteNumber":58,"Velocity":49,"Duration":93457,"SoundDuration":93457,"Delta":276596433},{"NoteNumber":58,"Velocity":46,"Duration":93457,"SoundDuration":93457,"Delta":276783349},{"NoteNumber":79,"Velocity":56,"Duration":361311,"SoundDuration":361311,"Delta":276970265},{"NoteNumber":70,"Velocity":56,"Duration":361311,"SoundDuration":361311,"Delta":276970265},{"NoteNumber":58,"Velocity":46,"Duration":90361,"SoundDuration":90361,"Delta":277150581},{"NoteNumber":77,"Velocity":54,"Duration":364190,"SoundDuration":364190,"Delta":277331577},{"NoteNumber":68,"Velocity":54,"Duration":364190,"SoundDuration":364190,"Delta":277331577},{"NoteNumber":58,"Velocity":49,"Duration":90771,"SoundDuration":90771,"Delta":277331577},{"NoteNumber":58,"Velocity":46,"Duration":91185,"SoundDuration":91185,"Delta":277513258},{"NoteNumber":76,"Velocity":51,"Duration":367114,"SoundDuration":367114,"Delta":277695768},{"NoteNumber":67,"Velocity":51,"Duration":367114,"SoundDuration":367114,"Delta":277695768},{"NoteNumber":58,"Velocity":45,"Duration":91883,"SoundDuration":91883,"Delta":277878974},{"NoteNumber":68,"Velocity":56,"Duration":369231,"SoundDuration":369231,"Delta":278062882},{"NoteNumber":77,"Velocity":56,"Duration":369231,"SoundDuration":369231,"Delta":278062882},{"NoteNumber":58,"Velocity":48,"Duration":92307,"SoundDuration":92307,"Delta":278062882},{"NoteNumber":58,"Velocity":51,"Duration":92307,"SoundDuration":92307,"Delta":278247498},{"NoteNumber":80,"Velocity":63,"Duration":362537,"SoundDuration":362537,"Delta":278432113},{"NoteNumber":77,"Velocity":63,"Duration":362537,"SoundDuration":362537,"Delta":278432113},{"NoteNumber":58,"Velocity":57,"Duration":90634,"SoundDuration":90634,"Delta":278613382},{"NoteNumber":79,"Velocity":69,"Duration":362538,"SoundDuration":362538,"Delta":278794651},{"NoteNumber":75,"Velocity":69,"Duration":362538,"SoundDuration":362538,"Delta":278794651},{"NoteNumber":58,"Velocity":60,"Duration":90634,"SoundDuration":90634,"Delta":278794651},{"NoteNumber":58,"Velocity":64,"Duration":90634,"SoundDuration":90634,"Delta":278975920},{"NoteNumber":77,"Velocity":78,"Duration":362537,"SoundDuration":362537,"Delta":279157189},{"NoteNumber":74,"Velocity":78,"Duration":362537,"SoundDuration":362537,"Delta":279157189},{"NoteNumber":58,"Velocity":70,"Duration":90634,"SoundDuration":90634,"Delta":279338458},{"NoteNumber":79,"Velocity":78,"Duration":90634,"SoundDuration":90634,"Delta":279519727},{"NoteNumber":74,"Velocity":66,"Duration":90634,"SoundDuration":90634,"Delta":279519727},{"NoteNumber":77,"Velocity":78,"Duration":90634,"SoundDuration":90634,"Delta":279519727},{"NoteNumber":59,"Velocity":66,"Duration":362538,"SoundDuration":362538,"Delta":279519727},{"NoteNumber":79,"Velocity":78,"Duration":90634,"SoundDuration":90634,"Delta":279700996},{"NoteNumber":74,"Velocity":66,"Duration":90634,"SoundDuration":90634,"Delta":279700996},{"NoteNumber":77,"Velocity":78,"Duration":90634,"SoundDuration":90634,"Delta":279700996},{"NoteNumber":47,"Velocity":56,"Duration":364195,"SoundDuration":364195,"Delta":279882265},{"NoteNumber":59,"Velocity":66,"Duration":364195,"SoundDuration":364195,"Delta":279882265},{"NoteNumber":74,"Velocity":66,"Duration":182927,"SoundDuration":182927,"Delta":280063534},{"NoteNumber":77,"Velocity":78,"Duration":182927,"SoundDuration":182927,"Delta":280063534},{"NoteNumber":79,"Velocity":78,"Duration":182927,"SoundDuration":182927,"Delta":280063534},{"NoteNumber":75,"Velocity":69,"Duration":91463,"SoundDuration":91463,"Delta":280246461},{"NoteNumber":79,"Velocity":69,"Duration":91463,"SoundDuration":91463,"Delta":280246461},{"NoteNumber":87,"Velocity":82,"Duration":91463,"SoundDuration":91463,"Delta":280246461},{"NoteNumber":60,"Velocity":71,"Duration":365854,"SoundDuration":365854,"Delta":280246461},{"NoteNumber":48,"Velocity":60,"Duration":365854,"SoundDuration":365854,"Delta":280246461},{"NoteNumber":79,"Velocity":66,"Duration":91463,"SoundDuration":91463,"Delta":280429388},{"NoteNumber":87,"Velocity":78,"Duration":91463,"SoundDuration":91463,"Delta":280429388},{"NoteNumber":75,"Velocity":66,"Duration":91463,"SoundDuration":91463,"Delta":280429388},{"NoteNumber":58,"Velocity":66,"Duration":363650,"SoundDuration":363650,"Delta":280612315},{"NoteNumber":46,"Velocity":56,"Duration":363650,"SoundDuration":363650,"Delta":280612315},{"NoteNumber":79,"Velocity":75,"Duration":180723,"SoundDuration":180723,"Delta":280795242},{"NoteNumber":72,"Velocity":63,"Duration":180723,"SoundDuration":180723,"Delta":280795242},{"NoteNumber":75,"Velocity":63,"Duration":180723,"SoundDuration":180723,"Delta":280795242},{"NoteNumber":75,"Velocity":78,"Duration":90361,"SoundDuration":90361,"Delta":280975965},{"NoteNumber":72,"Velocity":66,"Duration":90361,"SoundDuration":90361,"Delta":280975965},{"NoteNumber":77,"Velocity":78,"Duration":90361,"SoundDuration":90361,"Delta":280975965},{"NoteNumber":45,"Velocity":61,"Duration":361446,"SoundDuration":361446,"Delta":280975965},{"NoteNumber":57,"Velocity":72,"Duration":361446,"SoundDuration":361446,"Delta":280975965},{"NoteNumber":72,"Velocity":63,"Duration":90361,"SoundDuration":90361,"Delta":281156688},{"NoteNumber":75,"Velocity":75,"Duration":90361,"SoundDuration":90361,"Delta":281156688},{"NoteNumber":77,"Velocity":75,"Duration":90361,"SoundDuration":90361,"Delta":281156688},{"NoteNumber":57,"Velocity":66,"Duration":361446,"SoundDuration":361446,"Delta":281337411},{"NoteNumber":45,"Velocity":56,"Duration":361446,"SoundDuration":361446,"Delta":281337411},{"NoteNumber":75,"Velocity":82,"Duration":180723,"SoundDuration":180723,"Delta":281518134},{"NoteNumber":72,"Velocity":69,"Duration":180723,"SoundDuration":180723,"Delta":281518134},{"NoteNumber":77,"Velocity":82,"Duration":180723,"SoundDuration":180723,"Delta":281518134},{"NoteNumber":74,"Velocity":73,"Duration":90361,"SoundDuration":90361,"Delta":281698857},{"NoteNumber":77,"Velocity":73,"Duration":90361,"SoundDuration":90361,"Delta":281698857},{"NoteNumber":86,"Velocity":86,"Duration":90361,"SoundDuration":90361,"Delta":281698857},{"NoteNumber":46,"Velocity":58,"Duration":361446,"SoundDuration":361446,"Delta":281698857},{"NoteNumber":58,"Velocity":69,"Duration":361446,"SoundDuration":361446,"Delta":281698857},{"NoteNumber":74,"Velocity":68,"Duration":90361,"SoundDuration":90361,"Delta":281879580},{"NoteNumber":77,"Velocity":68,"Duration":90361,"SoundDuration":90361,"Delta":281879580},{"NoteNumber":86,"Velocity":81,"Duration":90361,"SoundDuration":90361,"Delta":281879580},{"NoteNumber":57,"Velocity":66,"Duration":363650,"SoundDuration":363650,"Delta":282060303},{"NoteNumber":45,"Velocity":56,"Duration":363650,"SoundDuration":363650,"Delta":282060303},{"NoteNumber":70,"Velocity":63,"Duration":182927,"SoundDuration":182927,"Delta":282241026},{"NoteNumber":77,"Velocity":75,"Duration":182927,"SoundDuration":182927,"Delta":282241026},{"NoteNumber":74,"Velocity":63,"Duration":182927,"SoundDuration":182927,"Delta":282241026},{"NoteNumber":74,"Velocity":78,"Duration":91463,"SoundDuration":91463,"Delta":282423953},{"NoteNumber":70,"Velocity":66,"Duration":91463,"SoundDuration":91463,"Delta":282423953},{"NoteNumber":75,"Velocity":78,"Duration":91463,"SoundDuration":91463,"Delta":282423953},{"NoteNumber":55,"Velocity":70,"Duration":365854,"SoundDuration":365854,"Delta":282423953},{"NoteNumber":43,"Velocity":59,"Duration":365854,"SoundDuration":365854,"Delta":282423953},{"NoteNumber":70,"Velocity":62,"Duration":91463,"SoundDuration":91463,"Delta":282606880},{"NoteNumber":75,"Velocity":74,"Duration":91463,"SoundDuration":91463,"Delta":282606880},{"NoteNumber":74,"Velocity":74,"Duration":91463,"SoundDuration":91463,"Delta":282606880},{"NoteNumber":43,"Velocity":56,"Duration":365297,"SoundDuration":365297,"Delta":282789807},{"NoteNumber":55,"Velocity":66,"Duration":365297,"SoundDuration":365297,"Delta":282789807},{"NoteNumber":75,"Velocity":79,"Duration":182370,"SoundDuration":182370,"Delta":282972734},{"NoteNumber":74,"Velocity":79,"Duration":182370,"SoundDuration":182370,"Delta":282972734},{"NoteNumber":70,"Velocity":67,"Duration":182370,"SoundDuration":182370,"Delta":282972734},{"NoteNumber":84,"Velocity":84,"Duration":91185,"SoundDuration":91185,"Delta":283155105},{"NoteNumber":72,"Velocity":71,"Duration":91185,"SoundDuration":91185,"Delta":283155105},{"NoteNumber":75,"Velocity":71,"Duration":91185,"SoundDuration":91185,"Delta":283155105},{"NoteNumber":57,"Velocity":69,"Duration":364742,"SoundDuration":364742,"Delta":283155105},{"NoteNumber":45,"Velocity":58,"Duration":364742,"SoundDuration":364742,"Delta":283155105},{"NoteNumber":72,"Velocity":65,"Duration":91185,"SoundDuration":91185,"Delta":283337476},{"NoteNumber":84,"Velocity":77,"Duration":91185,"SoundDuration":91185,"Delta":283337476},{"NoteNumber":75,"Velocity":65,"Duration":91185,"SoundDuration":91185,"Delta":283337476},{"NoteNumber":43,"Velocity":56,"Duration":365857,"SoundDuration":365857,"Delta":283519847},{"NoteNumber":55,"Velocity":66,"Duration":365857,"SoundDuration":365857,"Delta":283519847},{"NoteNumber":75,"Velocity":74,"Duration":183486,"SoundDuration":183486,"Delta":283702218},{"NoteNumber":69,"Velocity":62,"Duration":183486,"SoundDuration":183486,"Delta":283702218},{"NoteNumber":72,"Velocity":62,"Duration":183486,"SoundDuration":183486,"Delta":283702218},{"NoteNumber":69,"Velocity":66,"Duration":91743,"SoundDuration":91743,"Delta":283885704},{"NoteNumber":72,"Velocity":78,"Duration":91743,"SoundDuration":91743,"Delta":283885704},{"NoteNumber":74,"Velocity":78,"Duration":91743,"SoundDuration":91743,"Delta":283885704},{"NoteNumber":54,"Velocity":68,"Duration":366971,"SoundDuration":366971,"Delta":283885704},{"NoteNumber":42,"Velocity":57,"Duration":366971,"SoundDuration":366971,"Delta":283885704},{"NoteNumber":74,"Velocity":74,"Duration":91743,"SoundDuration":91743,"Delta":284069190},{"NoteNumber":72,"Velocity":74,"Duration":91743,"SoundDuration":91743,"Delta":284069190},{"NoteNumber":69,"Velocity":62,"Duration":91743,"SoundDuration":91743,"Delta":284069190},{"NoteNumber":54,"Velocity":66,"Duration":364755,"SoundDuration":364755,"Delta":284252676},{"NoteNumber":42,"Velocity":56,"Duration":364755,"SoundDuration":364755,"Delta":284252676},{"NoteNumber":69,"Velocity":64,"Duration":181268,"SoundDuration":181268,"Delta":284436162},{"NoteNumber":72,"Velocity":76,"Duration":181268,"SoundDuration":181268,"Delta":284436162},{"NoteNumber":74,"Velocity":76,"Duration":181268,"SoundDuration":181268,"Delta":284436162},{"NoteNumber":82,"Velocity":83,"Duration":90634,"SoundDuration":90634,"Delta":284617431},{"NoteNumber":74,"Velocity":70,"Duration":90634,"SoundDuration":90634,"Delta":284617431},{"NoteNumber":70,"Velocity":70,"Duration":90634,"SoundDuration":90634,"Delta":284617431},{"NoteNumber":43,"Velocity":59,"Duration":362538,"SoundDuration":362538,"Delta":284617431},{"NoteNumber":55,"Velocity":70,"Duration":362538,"SoundDuration":362538,"Delta":284617431},{"NoteNumber":70,"Velocity":65,"Duration":90634,"SoundDuration":90634,"Delta":284798700},{"NoteNumber":82,"Velocity":77,"Duration":90634,"SoundDuration":90634,"Delta":284798700},{"NoteNumber":74,"Velocity":65,"Duration":90634,"SoundDuration":90634,"Delta":284798700},{"NoteNumber":53,"Velocity":66,"Duration":364755,"SoundDuration":364755,"Delta":284979969},{"NoteNumber":41,"Velocity":56,"Duration":364755,"SoundDuration":364755,"Delta":284979969},{"NoteNumber":74,"Velocity":75,"Duration":183486,"SoundDuration":183486,"Delta":285161238},{"NoteNumber":70,"Velocity":63,"Duration":183486,"SoundDuration":183486,"Delta":285161238},{"NoteNumber":67,"Velocity":63,"Duration":183486,"SoundDuration":183486,"Delta":285161238},{"NoteNumber":67,"Velocity":66,"Duration":91743,"SoundDuration":91743,"Delta":285344724},{"NoteNumber":72,"Velocity":78,"Duration":91743,"SoundDuration":91743,"Delta":285344724},{"NoteNumber":70,"Velocity":78,"Duration":91743,"SoundDuration":91743,"Delta":285344724},{"NoteNumber":39,"Velocity":62,"Duration":183485,"SoundDuration":183485,"Delta":285344724},{"NoteNumber":51,"Velocity":73,"Duration":183485,"SoundDuration":183485,"Delta":285344724},{"NoteNumber":72,"Velocity":75,"Duration":91743,"SoundDuration":91743,"Delta":285528210},{"NoteNumber":67,"Velocity":63,"Duration":91743,"SoundDuration":91743,"Delta":285528210},{"NoteNumber":70,"Velocity":75,"Duration":91743,"SoundDuration":91743,"Delta":285528210},{"NoteNumber":55,"Velocity":65,"Duration":183486,"SoundDuration":183486,"Delta":285528210},{"NoteNumber":58,"Velocity":65,"Duration":183486,"SoundDuration":183486,"Delta":285711696},{"NoteNumber":72,"Velocity":78,"Duration":180723,"SoundDuration":180723,"Delta":285895182},{"NoteNumber":55,"Velocity":65,"Duration":180723,"SoundDuration":180723,"Delta":285895182},{"NoteNumber":82,"Velocity":86,"Duration":90361,"SoundDuration":90361,"Delta":286075905},{"NoteNumber":51,"Velocity":71,"Duration":180723,"SoundDuration":180723,"Delta":286075905},{"NoteNumber":82,"Velocity":82,"Duration":90361,"SoundDuration":90361,"Delta":286256628},{"NoteNumber":55,"Velocity":65,"Duration":180723,"SoundDuration":180723,"Delta":286256628},{"NoteNumber":82,"Velocity":84,"Duration":180723,"SoundDuration":180723,"Delta":286437351},{"NoteNumber":58,"Velocity":65,"Duration":180723,"SoundDuration":180723,"Delta":286437351},{"NoteNumber":72,"Velocity":76,"Duration":182927,"SoundDuration":182927,"Delta":286618074},{"NoteNumber":55,"Velocity":60,"Duration":182927,"SoundDuration":182927,"Delta":286618074},{"NoteNumber":74,"Velocity":79,"Duration":91463,"SoundDuration":91463,"Delta":286801001},{"NoteNumber":53,"Velocity":69,"Duration":182927,"SoundDuration":182927,"Delta":286801001},{"NoteNumber":74,"Velocity":79,"Duration":91463,"SoundDuration":91463,"Delta":286983928},{"NoteNumber":56,"Velocity":60,"Duration":182927,"SoundDuration":182927,"Delta":286983928},{"NoteNumber":58,"Velocity":65,"Duration":182927,"SoundDuration":182927,"Delta":287166855},{"NoteNumber":74,"Velocity":74,"Duration":179640,"SoundDuration":179640,"Delta":287349782},{"NoteNumber":56,"Velocity":60,"Duration":179640,"SoundDuration":179640,"Delta":287349782},{"NoteNumber":82,"Velocity":86,"Duration":89820,"SoundDuration":89820,"Delta":287529423},{"NoteNumber":53,"Velocity":69,"Duration":179640,"SoundDuration":179640,"Delta":287529423},{"NoteNumber":82,"Velocity":82,"Duration":89820,"SoundDuration":89820,"Delta":287709063},{"NoteNumber":56,"Velocity":61,"Duration":179640,"SoundDuration":179640,"Delta":287709063},{"NoteNumber":82,"Velocity":82,"Duration":179640,"SoundDuration":179640,"Delta":287888704},{"NoteNumber":58,"Velocity":65,"Duration":179640,"SoundDuration":179640,"Delta":287888704},{"NoteNumber":74,"Velocity":76,"Duration":182370,"SoundDuration":182370,"Delta":288068344},{"NoteNumber":56,"Velocity":61,"Duration":182370,"SoundDuration":182370,"Delta":288068344},{"NoteNumber":75,"Velocity":80,"Duration":91185,"SoundDuration":91185,"Delta":288250715},{"NoteNumber":55,"Velocity":71,"Duration":182370,"SoundDuration":182370,"Delta":288250715},{"NoteNumber":75,"Velocity":80,"Duration":91185,"SoundDuration":91185,"Delta":288433086},{"NoteNumber":58,"Velocity":64,"Duration":182371,"SoundDuration":182371,"Delta":288433086},{"NoteNumber":63,"Velocity":68,"Duration":182370,"SoundDuration":182370,"Delta":288615457},{"NoteNumber":76,"Velocity":77,"Duration":182370,"SoundDuration":182370,"Delta":288797828},{"NoteNumber":58,"Velocity":65,"Duration":182370,"SoundDuration":182370,"Delta":288797828},{"NoteNumber":77,"Velocity":82,"Duration":91185,"SoundDuration":91185,"Delta":288980199},{"NoteNumber":50,"Velocity":78,"Duration":182370,"SoundDuration":182370,"Delta":288980199},{"NoteNumber":77,"Velocity":82,"Duration":91185,"SoundDuration":91185,"Delta":289162570},{"NoteNumber":56,"Velocity":66,"Duration":182370,"SoundDuration":182370,"Delta":289162570},{"NoteNumber":58,"Velocity":71,"Duration":182371,"SoundDuration":182371,"Delta":289344941},{"NoteNumber":78,"Velocity":79,"Duration":182370,"SoundDuration":182370,"Delta":289527312},{"NoteNumber":56,"Velocity":69,"Duration":182370,"SoundDuration":182370,"Delta":289527312},{"NoteNumber":79,"Velocity":80,"Duration":91185,"SoundDuration":91185,"Delta":289709683},{"NoteNumber":51,"Velocity":79,"Duration":182556,"SoundDuration":182556,"Delta":289709683},{"NoteNumber":79,"Velocity":82,"Duration":91556,"SoundDuration":91556,"Delta":289892240},{"NoteNumber":63,"Velocity":72,"Duration":183299,"SoundDuration":183299,"Delta":289892240},{"NoteNumber":81,"Velocity":83,"Duration":92024,"SoundDuration":92024,"Delta":290075539},{"NoteNumber":48,"Velocity":82,"Duration":184237,"SoundDuration":184237,"Delta":290075539},{"NoteNumber":81,"Velocity":85,"Duration":92402,"SoundDuration":92402,"Delta":290259777},{"NoteNumber":60,"Velocity":73,"Duration":184995,"SoundDuration":184995,"Delta":290259777},{"NoteNumber":82,"Velocity":86,"Duration":92402,"SoundDuration":92402,"Delta":290444772},{"NoteNumber":50,"Velocity":83,"Duration":185330,"SoundDuration":185330,"Delta":290444772},{"NoteNumber":82,"Velocity":88,"Duration":93506,"SoundDuration":93506,"Delta":290630103},{"NoteNumber":62,"Velocity":76,"Duration":187600,"SoundDuration":187600,"Delta":290630103},{"NoteNumber":84,"Velocity":89,"Duration":94587,"SoundDuration":94587,"Delta":290817703},{"NoteNumber":45,"Velocity":84,"Duration":189776,"SoundDuration":189776,"Delta":290817703},{"NoteNumber":84,"Velocity":91,"Duration":95796,"SoundDuration":95796,"Delta":291007479},{"NoteNumber":57,"Velocity":78,"Duration":192207,"SoundDuration":192207,"Delta":291007479},{"NoteNumber":85,"Velocity":98,"Duration":580645,"SoundDuration":580645,"Delta":291199687},{"NoteNumber":46,"Velocity":90,"Duration":774193,"SoundDuration":774193,"Delta":291199687},{"NoteNumber":58,"Velocity":90,"Duration":774193,"SoundDuration":774193,"Delta":291199687},{"NoteNumber":84,"Velocity":84,"Duration":48387,"SoundDuration":48387,"Delta":291780333},{"NoteNumber":82,"Velocity":87,"Duration":48387,"SoundDuration":48387,"Delta":291828720},{"NoteNumber":81,"Velocity":89,"Duration":48387,"SoundDuration":48387,"Delta":291877107},{"NoteNumber":82,"Velocity":92,"Duration":48387,"SoundDuration":48387,"Delta":291925494},{"NoteNumber":85,"Velocity":94,"Duration":600000,"SoundDuration":600000,"Delta":291973881},{"NoteNumber":42,"Velocity":89,"Duration":800000,"SoundDuration":800000,"Delta":291973881},{"NoteNumber":54,"Velocity":89,"Duration":800000,"SoundDuration":800000,"Delta":291973881},{"NoteNumber":84,"Velocity":87,"Duration":49999,"SoundDuration":49999,"Delta":292573881},{"NoteNumber":82,"Velocity":89,"Duration":50000,"SoundDuration":50000,"Delta":292623881},{"NoteNumber":81,"Velocity":91,"Duration":50000,"SoundDuration":50000,"Delta":292673881},{"NoteNumber":82,"Velocity":94,"Duration":50000,"SoundDuration":50000,"Delta":292723881},{"NoteNumber":85,"Velocity":95,"Duration":1202446,"SoundDuration":1202446,"Delta":292773881},{"NoteNumber":40,"Velocity":89,"Duration":1116280,"SoundDuration":1116280,"Delta":292773881},{"NoteNumber":52,"Velocity":89,"Duration":1116280,"SoundDuration":1116280,"Delta":292773881},{"NoteNumber":82,"Velocity":87,"Duration":87278,"SoundDuration":87278,"Delta":293976328},{"NoteNumber":79,"Velocity":86,"Duration":88453,"SoundDuration":88453,"Delta":294063606},{"NoteNumber":76,"Velocity":84,"Duration":89624,"SoundDuration":89624,"Delta":294152060},{"NoteNumber":73,"Velocity":83,"Duration":90919,"SoundDuration":90919,"Delta":294241685},{"NoteNumber":70,"Velocity":82,"Duration":92186,"SoundDuration":92186,"Delta":294332604},{"NoteNumber":67,"Velocity":81,"Duration":93469,"SoundDuration":93469,"Delta":294424791},{"NoteNumber":64,"Velocity":79,"Duration":94808,"SoundDuration":94808,"Delta":294518260},{"NoteNumber":61,"Velocity":69,"Duration":96237,"SoundDuration":96237,"Delta":294613068},{"NoteNumber":58,"Velocity":71,"Duration":97668,"SoundDuration":97668,"Delta":294709306},{"NoteNumber":55,"Velocity":74,"Duration":99099,"SoundDuration":99099,"Delta":294806975},{"NoteNumber":52,"Velocity":77,"Duration":100616,"SoundDuration":100616,"Delta":294906074},{"NoteNumber":49,"Velocity":80,"Duration":102239,"SoundDuration":102239,"Delta":295006691},{"NoteNumber":46,"Velocity":82,"Duration":103820,"SoundDuration":103820,"Delta":295108931},{"NoteNumber":43,"Velocity":85,"Duration":105475,"SoundDuration":105475,"Delta":295212751},{"NoteNumber":40,"Velocity":88,"Duration":107158,"SoundDuration":107158,"Delta":295318226},{"NoteNumber":41,"Velocity":108,"Duration":1095889,"SoundDuration":1095889,"Delta":295425384},{"NoteNumber":53,"Velocity":108,"Duration":1194848,"SoundDuration":1194848,"Delta":295425384},{"NoteNumber":57,"Velocity":66,"Duration":148082,"SoundDuration":148082,"Delta":296620232},{"NoteNumber":55,"Velocity":67,"Duration":145318,"SoundDuration":145318,"Delta":296717703},{"NoteNumber":53,"Velocity":69,"Duration":142654,"SoundDuration":142654,"Delta":296813315},{"NoteNumber":55,"Velocity":70,"Duration":140086,"SoundDuration":140086,"Delta":296907138},{"NoteNumber":57,"Velocity":71,"Duration":137608,"SoundDuration":137608,"Delta":296999239},{"NoteNumber":58,"Velocity":72,"Duration":135132,"SoundDuration":135132,"Delta":297089678},{"NoteNumber":60,"Velocity":74,"Duration":132744,"SoundDuration":132744,"Delta":297178514},{"NoteNumber":62,"Velocity":74,"Duration":131087,"SoundDuration":131087,"Delta":297265804},{"NoteNumber":63,"Velocity":76,"Duration":128918,"SoundDuration":128918,"Delta":297352167},{"NoteNumber":65,"Velocity":78,"Duration":126820,"SoundDuration":126820,"Delta":297437070},{"NoteNumber":67,"Velocity":79,"Duration":124788,"SoundDuration":124788,"Delta":297520560},{"NoteNumber":69,"Velocity":81,"Duration":122820,"SoundDuration":122820,"Delta":297602683},{"NoteNumber":70,"Velocity":83,"Duration":120913,"SoundDuration":120913,"Delta":297683484},{"NoteNumber":72,"Velocity":84,"Duration":119063,"SoundDuration":119063,"Delta":297763004},{"NoteNumber":74,"Velocity":86,"Duration":117270,"SoundDuration":117270,"Delta":297841283},{"NoteNumber":75,"Velocity":88,"Duration":115591,"SoundDuration":115591,"Delta":297918358},{"NoteNumber":77,"Velocity":89,"Duration":114335,"SoundDuration":114335,"Delta":297994267},{"NoteNumber":79,"Velocity":91,"Duration":112620,"SoundDuration":112620,"Delta":298069540},{"NoteNumber":81,"Velocity":93,"Duration":110955,"SoundDuration":110955,"Delta":298143699},{"NoteNumber":82,"Velocity":94,"Duration":109339,"SoundDuration":109339,"Delta":298216776},{"NoteNumber":84,"Velocity":94,"Duration":107826,"SoundDuration":107826,"Delta":298288745},{"NoteNumber":86,"Velocity":96,"Duration":106354,"SoundDuration":106354,"Delta":298359697},{"NoteNumber":87,"Velocity":98,"Duration":104921,"SoundDuration":104921,"Delta":298429660},{"NoteNumber":89,"Velocity":99,"Duration":71635,"SoundDuration":71635,"Delta":298498660},{"NoteNumber":70,"Velocity":63,"Duration":143318,"SoundDuration":143318,"Delta":299466935},{"NoteNumber":70,"Velocity":64,"Duration":93170,"SoundDuration":93170,"Delta":299657423},{"NoteNumber":72,"Velocity":60,"Duration":92026,"SoundDuration":92026,"Delta":299750593},{"NoteNumber":74,"Velocity":65,"Duration":90544,"SoundDuration":90544,"Delta":299842620},{"NoteNumber":72,"Velocity":60,"Duration":89287,"SoundDuration":89287,"Delta":299933164},{"NoteNumber":74,"Velocity":66,"Duration":88237,"SoundDuration":88237,"Delta":300022452},{"NoteNumber":72,"Velocity":61,"Duration":87041,"SoundDuration":87041,"Delta":300110689},{"NoteNumber":74,"Velocity":67,"Duration":85716,"SoundDuration":85716,"Delta":300197730},{"NoteNumber":72,"Velocity":63,"Duration":84747,"SoundDuration":84747,"Delta":300283447},{"NoteNumber":74,"Velocity":68,"Duration":83643,"SoundDuration":83643,"Delta":300368194},{"NoteNumber":72,"Velocity":63,"Duration":82569,"SoundDuration":82569,"Delta":300451838},{"NoteNumber":74,"Velocity":69,"Duration":81523,"SoundDuration":81523,"Delta":300534407},{"NoteNumber":72,"Velocity":65,"Duration":80501,"SoundDuration":80501,"Delta":300615931},{"NoteNumber":74,"Velocity":70,"Duration":79505,"SoundDuration":79505,"Delta":300696432},{"NoteNumber":72,"Velocity":65,"Duration":78535,"SoundDuration":78535,"Delta":300775938},{"NoteNumber":74,"Velocity":69,"Duration":77720,"SoundDuration":77720,"Delta":300854473},{"NoteNumber":60,"Velocity":54,"Duration":2203478,"SoundDuration":2203478,"Delta":300854473},{"NoteNumber":63,"Velocity":54,"Duration":2203478,"SoundDuration":2203478,"Delta":300854473},{"NoteNumber":53,"Velocity":54,"Duration":2203478,"SoundDuration":2203478,"Delta":300854473},{"NoteNumber":57,"Velocity":54,"Duration":2203478,"SoundDuration":2203478,"Delta":300854473},{"NoteNumber":72,"Velocity":64,"Duration":77720,"SoundDuration":77720,"Delta":300932194},{"NoteNumber":74,"Velocity":68,"Duration":77720,"SoundDuration":77720,"Delta":301009914},{"NoteNumber":72,"Velocity":67,"Duration":77720,"SoundDuration":77720,"Delta":301087634},{"NoteNumber":74,"Velocity":66,"Duration":77720,"SoundDuration":77720,"Delta":301165354},{"NoteNumber":72,"Velocity":62,"Duration":77720,"SoundDuration":77720,"Delta":301243075},{"NoteNumber":74,"Velocity":65,"Duration":77720,"SoundDuration":77720,"Delta":301320795},{"NoteNumber":72,"Velocity":64,"Duration":77720,"SoundDuration":77720,"Delta":301398515},{"NoteNumber":71,"Velocity":63,"Duration":119303,"SoundDuration":119303,"Delta":301476235},{"NoteNumber":72,"Velocity":65,"Duration":117990,"SoundDuration":117990,"Delta":301555981},{"NoteNumber":74,"Velocity":66,"Duration":116523,"SoundDuration":116523,"Delta":301634909},{"NoteNumber":75,"Velocity":68,"Duration":115269,"SoundDuration":115269,"Delta":301712792},{"NoteNumber":77,"Velocity":69,"Duration":113869,"SoundDuration":113869,"Delta":301789894},{"NoteNumber":79,"Velocity":71,"Duration":112672,"SoundDuration":112672,"Delta":301865998},{"NoteNumber":81,"Velocity":72,"Duration":111333,"SoundDuration":111333,"Delta":301941357},{"NoteNumber":82,"Velocity":74,"Duration":110189,"SoundDuration":110189,"Delta":302015763},{"NoteNumber":84,"Velocity":75,"Duration":108908,"SoundDuration":108908,"Delta":302089456},{"NoteNumber":86,"Velocity":76,"Duration":107813,"SoundDuration":107813,"Delta":302162237},{"NoteNumber":87,"Velocity":78,"Duration":106587,"SoundDuration":106587,"Delta":302234336},{"NoteNumber":86,"Velocity":79,"Duration":98981,"SoundDuration":98981,"Delta":302305562},{"NoteNumber":89,"Velocity":96,"Duration":127840,"SoundDuration":127840,"Delta":302376134},{"NoteNumber":87,"Velocity":94,"Duration":127840,"SoundDuration":127840,"Delta":302461361},{"NoteNumber":86,"Velocity":91,"Duration":63920,"SoundDuration":63920,"Delta":302546588},{"NoteNumber":84,"Velocity":89,"Duration":42613,"SoundDuration":42613,"Delta":302631816},{"NoteNumber":87,"Velocity":92,"Duration":127840,"SoundDuration":127840,"Delta":302717043},{"NoteNumber":86,"Velocity":91,"Duration":127840,"SoundDuration":127840,"Delta":302802270},{"NoteNumber":84,"Velocity":89,"Duration":63920,"SoundDuration":63920,"Delta":302887497},{"NoteNumber":82,"Velocity":87,"Duration":42613,"SoundDuration":42613,"Delta":302972725},{"NoteNumber":86,"Velocity":91,"Duration":127840,"SoundDuration":127840,"Delta":303057952},{"NoteNumber":84,"Velocity":89,"Duration":127840,"SoundDuration":127840,"Delta":303143179},{"NoteNumber":82,"Velocity":87,"Duration":63920,"SoundDuration":63920,"Delta":303228406},{"NoteNumber":81,"Velocity":85,"Duration":42613,"SoundDuration":42613,"Delta":303313634},{"NoteNumber":84,"Velocity":89,"Duration":127840,"SoundDuration":127840,"Delta":303398861},{"NoteNumber":82,"Velocity":88,"Duration":127840,"SoundDuration":127840,"Delta":303484088},{"NoteNumber":81,"Velocity":86,"Duration":63920,"SoundDuration":63920,"Delta":303569315},{"NoteNumber":79,"Velocity":88,"Duration":42613,"SoundDuration":42613,"Delta":303654543},{"NoteNumber":82,"Velocity":90,"Duration":254397,"SoundDuration":254397,"Delta":303739770},{"NoteNumber":81,"Velocity":82,"Duration":255360,"SoundDuration":255360,"Delta":303909261},{"NoteNumber":79,"Velocity":80,"Duration":85227,"SoundDuration":85227,"Delta":304079395},{"NoteNumber":77,"Velocity":75,"Duration":85714,"SoundDuration":85714,"Delta":304250174},{"NoteNumber":81,"Velocity":81,"Duration":258786,"SoundDuration":258786,"Delta":304421603},{"NoteNumber":79,"Velocity":74,"Duration":259783,"SoundDuration":259783,"Delta":304594016},{"NoteNumber":77,"Velocity":71,"Duration":86705,"SoundDuration":86705,"Delta":304767095},{"NoteNumber":75,"Velocity":67,"Duration":87209,"SoundDuration":87209,"Delta":304940841},{"NoteNumber":79,"Velocity":72,"Duration":263329,"SoundDuration":263329,"Delta":305115260},{"NoteNumber":77,"Velocity":68,"Duration":264361,"SoundDuration":264361,"Delta":305290698},{"NoteNumber":75,"Velocity":65,"Duration":88235,"SoundDuration":88235,"Delta":305466825},{"NoteNumber":74,"Velocity":62,"Duration":88757,"SoundDuration":88757,"Delta":305643643},{"NoteNumber":77,"Velocity":64,"Duration":428571,"SoundDuration":428571,"Delta":305821158},{"NoteNumber":75,"Velocity":60,"Duration":357143,"SoundDuration":357143,"Delta":306178301},{"NoteNumber":74,"Velocity":56,"Duration":178571,"SoundDuration":178571,"Delta":306535444},{"NoteNumber":72,"Velocity":52,"Duration":178571,"SoundDuration":178571,"Delta":306892587},{"NoteNumber":70,"Velocity":51,"Duration":91783,"SoundDuration":91783,"Delta":307249554},{"NoteNumber":72,"Velocity":49,"Duration":95779,"SoundDuration":95779,"Delta":307441713},{"NoteNumber":73,"Velocity":48,"Duration":100639,"SoundDuration":100639,"Delta":307635608},{"NoteNumber":74,"Velocity":46,"Duration":105975,"SoundDuration":105975,"Delta":307839499},{"NoteNumber":75,"Velocity":47,"Duration":1303781,"SoundDuration":1303781,"Delta":308054323},{"NoteNumber":76,"Velocity":40,"Duration":1578117,"SoundDuration":1578117,"Delta":309358104},{"NoteNumber":77,"Velocity":60,"Duration":545453,"SoundDuration":545453,"Delta":310936978},{"NoteNumber":58,"Velocity":42,"Duration":363636,"SoundDuration":363636,"Delta":311299857},{"NoteNumber":74,"Velocity":53,"Duration":181818,"SoundDuration":181818,"Delta":311481675},{"NoteNumber":70,"Velocity":55,"Duration":90908,"SoundDuration":90908,"Delta":311663493},{"NoteNumber":62,"Velocity":48,"Duration":90908,"SoundDuration":90908,"Delta":311663493},{"NoteNumber":70,"Velocity":55,"Duration":94339,"SoundDuration":94339,"Delta":312027129},{"NoteNumber":67,"Velocity":46,"Duration":94339,"SoundDuration":94339,"Delta":312027129},{"NoteNumber":75,"Velocity":60,"Duration":72727,"SoundDuration":72727,"Delta":312404487},{"NoteNumber":60,"Velocity":52,"Duration":363635,"SoundDuration":363635,"Delta":312404487},{"NoteNumber":77,"Velocity":47,"Duration":72727,"SoundDuration":72727,"Delta":312477214},{"NoteNumber":75,"Velocity":47,"Duration":72727,"SoundDuration":72727,"Delta":312549941},{"NoteNumber":74,"Velocity":47,"Duration":72727,"SoundDuration":72727,"Delta":312622668},{"NoteNumber":75,"Velocity":49,"Duration":72727,"SoundDuration":72727,"Delta":312695395},{"NoteNumber":79,"Velocity":55,"Duration":363636,"SoundDuration":363636,"Delta":312768123},{"NoteNumber":63,"Velocity":47,"Duration":363636,"SoundDuration":363636,"Delta":312768123},{"NoteNumber":69,"Velocity":57,"Duration":366971,"SoundDuration":366971,"Delta":313131759},{"NoteNumber":65,"Velocity":48,"Duration":366971,"SoundDuration":366971,"Delta":313131759},{"NoteNumber":63,"Velocity":45,"Duration":366972,"SoundDuration":366972,"Delta":313498731},{"NoteNumber":69,"Velocity":52,"Duration":183486,"SoundDuration":183486,"Delta":313682217},{"NoteNumber":72,"Velocity":55,"Duration":181818,"SoundDuration":181818,"Delta":313865703},{"NoteNumber":62,"Velocity":53,"Duration":363635,"SoundDuration":363635,"Delta":313865703},{"NoteNumber":70,"Velocity":53,"Duration":90908,"SoundDuration":90908,"Delta":314047521},{"NoteNumber":74,"Velocity":57,"Duration":181818,"SoundDuration":181818,"Delta":314229339},{"NoteNumber":65,"Velocity":47,"Duration":727272,"SoundDuration":727272,"Delta":314229339},{"NoteNumber":57,"Velocity":47,"Duration":363636,"SoundDuration":363636,"Delta":314229339},{"NoteNumber":72,"Velocity":54,"Duration":90909,"SoundDuration":90909,"Delta":314411157},{"NoteNumber":75,"Velocity":58,"Duration":181817,"SoundDuration":181817,"Delta":314592975},{"NoteNumber":58,"Velocity":51,"Duration":363635,"SoundDuration":363635,"Delta":314592975},{"NoteNumber":74,"Velocity":56,"Duration":90909,"SoundDuration":90909,"Delta":314774793},{"NoteNumber":77,"Velocity":60,"Duration":184615,"SoundDuration":184615,"Delta":314956611},{"NoteNumber":51,"Velocity":48,"Duration":369231,"SoundDuration":369231,"Delta":314956611},{"NoteNumber":60,"Velocity":48,"Duration":369231,"SoundDuration":369231,"Delta":314956611},{"NoteNumber":75,"Velocity":57,"Duration":92307,"SoundDuration":92307,"Delta":315141226},{"NoteNumber":74,"Velocity":60,"Duration":548781,"SoundDuration":548781,"Delta":315325842},{"NoteNumber":58,"Velocity":52,"Duration":731708,"SoundDuration":731708,"Delta":315325842},{"NoteNumber":53,"Velocity":52,"Duration":1102687,"SoundDuration":1102687,"Delta":315325842},{"NoteNumber":75,"Velocity":57,"Duration":91463,"SoundDuration":91463,"Delta":315874623},{"NoteNumber":74,"Velocity":54,"Duration":91463,"SoundDuration":91463,"Delta":315966086},{"NoteNumber":72,"Velocity":52,"Duration":182926,"SoundDuration":182926,"Delta":316057550},{"NoteNumber":57,"Velocity":47,"Duration":370979,"SoundDuration":370979,"Delta":316057550},{"NoteNumber":74,"Velocity":58,"Duration":188052,"SoundDuration":188052,"Delta":316240477},{"NoteNumber":75,"Velocity":64,"Duration":190125,"SoundDuration":190125,"Delta":316428529},{"NoteNumber":76,"Velocity":69,"Duration":191848,"SoundDuration":191848,"Delta":316618655},{"NoteNumber":77,"Velocity":76,"Duration":545454,"SoundDuration":545454,"Delta":316810503},{"NoteNumber":46,"Velocity":62,"Duration":90909,"SoundDuration":90909,"Delta":316810503},{"NoteNumber":58,"Velocity":50,"Duration":181817,"SoundDuration":181817,"Delta":316992321},{"NoteNumber":62,"Velocity":53,"Duration":181818,"SoundDuration":181818,"Delta":317174139},{"NoteNumber":75,"Velocity":68,"Duration":60606,"SoundDuration":60606,"Delta":317355957},{"NoteNumber":58,"Velocity":50,"Duration":181818,"SoundDuration":181818,"Delta":317355957},{"NoteNumber":74,"Velocity":68,"Duration":60606,"SoundDuration":60606,"Delta":317416563},{"NoteNumber":72,"Velocity":68,"Duration":60606,"SoundDuration":60606,"Delta":317477169},{"NoteNumber":70,"Velocity":72,"Duration":180180,"SoundDuration":180180,"Delta":317537775},{"NoteNumber":43,"Velocity":62,"Duration":90089,"SoundDuration":90089,"Delta":317537775},{"NoteNumber":70,"Velocity":65,"Duration":90089,"SoundDuration":90089,"Delta":317717955},{"NoteNumber":55,"Velocity":52,"Duration":90089,"SoundDuration":90089,"Delta":317717955},{"NoteNumber":70,"Velocity":65,"Duration":92879,"SoundDuration":92879,"Delta":317898135},{"NoteNumber":58,"Velocity":54,"Duration":92879,"SoundDuration":92879,"Delta":317898135},{"NoteNumber":70,"Velocity":65,"Duration":92879,"SoundDuration":92879,"Delta":318083893},{"NoteNumber":55,"Velocity":52,"Duration":92879,"SoundDuration":92879,"Delta":318083893},{"NoteNumber":75,"Velocity":78,"Duration":72727,"SoundDuration":72727,"Delta":318269652},{"NoteNumber":36,"Velocity":64,"Duration":90909,"SoundDuration":90909,"Delta":318269652},{"NoteNumber":77,"Velocity":60,"Duration":72727,"SoundDuration":72727,"Delta":318342379},{"NoteNumber":75,"Velocity":60,"Duration":72727,"SoundDuration":72727,"Delta":318415106},{"NoteNumber":48,"Velocity":51,"Duration":181817,"SoundDuration":181817,"Delta":318451470},{"NoteNumber":74,"Velocity":60,"Duration":72727,"SoundDuration":72727,"Delta":318487834},{"NoteNumber":75,"Velocity":60,"Duration":72727,"SoundDuration":72727,"Delta":318560561},{"NoteNumber":79,"Velocity":71,"Duration":363636,"SoundDuration":363636,"Delta":318633288},{"NoteNumber":51,"Velocity":54,"Duration":181818,"SoundDuration":181818,"Delta":318633288},{"NoteNumber":48,"Velocity":52,"Duration":181818,"SoundDuration":181818,"Delta":318815106},{"NoteNumber":69,"Velocity":75,"Duration":363635,"SoundDuration":363635,"Delta":318996924},{"NoteNumber":41,"Velocity":64,"Duration":90908,"SoundDuration":90908,"Delta":318996924},{"NoteNumber":53,"Velocity":53,"Duration":181818,"SoundDuration":181818,"Delta":319178742},{"NoteNumber":57,"Velocity":54,"Duration":181817,"SoundDuration":181817,"Delta":319360560},{"NoteNumber":77,"Velocity":77,"Duration":181818,"SoundDuration":181818,"Delta":319542378},{"NoteNumber":53,"Velocity":54,"Duration":181818,"SoundDuration":181818,"Delta":319542378},{"NoteNumber":74,"Velocity":84,"Duration":121212,"SoundDuration":121212,"Delta":319724196},{"NoteNumber":58,"Velocity":63,"Duration":363635,"SoundDuration":363635,"Delta":319724196},{"NoteNumber":77,"Velocity":74,"Duration":121212,"SoundDuration":121212,"Delta":319845408},{"NoteNumber":82,"Velocity":78,"Duration":121211,"SoundDuration":121211,"Delta":319966620},{"NoteNumber":79,"Velocity":89,"Duration":121212,"SoundDuration":121212,"Delta":320087832},{"NoteNumber":51,"Velocity":54,"Duration":363636,"SoundDuration":363636,"Delta":320087832},{"NoteNumber":75,"Velocity":76,"Duration":121212,"SoundDuration":121212,"Delta":320209044},{"NoteNumber":72,"Velocity":76,"Duration":121212,"SoundDuration":121212,"Delta":320330256},{"NoteNumber":77,"Velocity":88,"Duration":121211,"SoundDuration":121211,"Delta":320451468},{"NoteNumber":53,"Velocity":57,"Duration":363635,"SoundDuration":363635,"Delta":320451468},{"NoteNumber":74,"Velocity":76,"Duration":121212,"SoundDuration":121212,"Delta":320572680},{"NoteNumber":70,"Velocity":76,"Duration":121212,"SoundDuration":121212,"Delta":320693892},{"NoteNumber":75,"Velocity":85,"Duration":123456,"SoundDuration":123456,"Delta":320815104},{"NoteNumber":41,"Velocity":54,"Duration":370369,"SoundDuration":370369,"Delta":320815104},{"NoteNumber":72,"Velocity":76,"Duration":123456,"SoundDuration":123456,"Delta":320938561},{"NoteNumber":69,"Velocity":76,"Duration":123456,"SoundDuration":123456,"Delta":321062017},{"NoteNumber":70,"Velocity":90,"Duration":123456,"SoundDuration":123456,"Delta":321185474},{"NoteNumber":50,"Velocity":69,"Duration":370370,"SoundDuration":370370,"Delta":321185474},{"NoteNumber":58,"Velocity":69,"Duration":370370,"SoundDuration":370370,"Delta":321185474},{"NoteNumber":82,"Velocity":86,"Duration":92592,"SoundDuration":92592,"Delta":321308931},{"NoteNumber":82,"Velocity":82,"Duration":92592,"SoundDuration":92592,"Delta":321432387},{"NoteNumber":82,"Velocity":87,"Duration":92592,"SoundDuration":92592,"Delta":321555844},{"NoteNumber":82,"Velocity":79,"Duration":92592,"SoundDuration":92592,"Delta":321679301},{"NoteNumber":82,"Velocity":80,"Duration":92592,"SoundDuration":92592,"Delta":321802757},{"NoteNumber":82,"Velocity":86,"Duration":119850,"SoundDuration":119850,"Delta":321926214},{"NoteNumber":81,"Velocity":77,"Duration":120300,"SoundDuration":120300,"Delta":322046064},{"NoteNumber":79,"Velocity":77,"Duration":120754,"SoundDuration":120754,"Delta":322166365},{"NoteNumber":77,"Velocity":81,"Duration":121304,"SoundDuration":121304,"Delta":322287120},{"NoteNumber":50,"Velocity":63,"Duration":365300,"SoundDuration":365300,"Delta":322287120},{"NoteNumber":58,"Velocity":63,"Duration":365300,"SoundDuration":365300,"Delta":322287120},{"NoteNumber":75,"Velocity":78,"Duration":121765,"SoundDuration":121765,"Delta":322408424},{"NoteNumber":74,"Velocity":77,"Duration":122230,"SoundDuration":122230,"Delta":322530190},{"NoteNumber":72,"Velocity":88,"Duration":122699,"SoundDuration":122699,"Delta":322652421},{"NoteNumber":58,"Velocity":68,"Duration":368097,"SoundDuration":368097,"Delta":322652421},{"NoteNumber":51,"Velocity":68,"Duration":368097,"SoundDuration":368097,"Delta":322652421},{"NoteNumber":79,"Velocity":77,"Duration":92024,"SoundDuration":92024,"Delta":322775121},{"NoteNumber":79,"Velocity":77,"Duration":92024,"SoundDuration":92024,"Delta":322897820},{"NoteNumber":79,"Velocity":83,"Duration":92024,"SoundDuration":92024,"Delta":323020519},{"NoteNumber":79,"Velocity":76,"Duration":92024,"SoundDuration":92024,"Delta":323143219},{"NoteNumber":79,"Velocity":76,"Duration":122699,"SoundDuration":122699,"Delta":323265918},{"NoteNumber":79,"Velocity":80,"Duration":120481,"SoundDuration":120481,"Delta":323388617},{"NoteNumber":77,"Velocity":76,"Duration":120482,"SoundDuration":120482,"Delta":323509099},{"NoteNumber":75,"Velocity":75,"Duration":120481,"SoundDuration":120481,"Delta":323629581},{"NoteNumber":74,"Velocity":78,"Duration":120481,"SoundDuration":120481,"Delta":323750063},{"NoteNumber":51,"Velocity":64,"Duration":361446,"SoundDuration":361446,"Delta":323750063},{"NoteNumber":57,"Velocity":64,"Duration":361446,"SoundDuration":361446,"Delta":323750063},{"NoteNumber":75,"Velocity":73,"Duration":120482,"SoundDuration":120482,"Delta":323870545},{"NoteNumber":72,"Velocity":73,"Duration":120481,"SoundDuration":120481,"Delta":323991027},{"NoteNumber":76,"Velocity":81,"Duration":108433,"SoundDuration":108433,"Delta":324111509},{"NoteNumber":50,"Velocity":69,"Duration":361446,"SoundDuration":361446,"Delta":324111509},{"NoteNumber":58,"Velocity":69,"Duration":1092784,"SoundDuration":1092784,"Delta":324111509},{"NoteNumber":77,"Velocity":83,"Duration":108433,"SoundDuration":108433,"Delta":324201871},{"NoteNumber":79,"Velocity":85,"Duration":108433,"SoundDuration":108433,"Delta":324292232},{"NoteNumber":77,"Velocity":83,"Duration":108379,"SoundDuration":108379,"Delta":324382594},{"NoteNumber":75,"Velocity":80,"Duration":108252,"SoundDuration":108252,"Delta":324472955},{"NoteNumber":55,"Velocity":59,"Duration":363096,"SoundDuration":363096,"Delta":324472955},{"NoteNumber":74,"Velocity":79,"Duration":108725,"SoundDuration":108725,"Delta":324563136},{"NoteNumber":72,"Velocity":77,"Duration":109238,"SoundDuration":109238,"Delta":324653679},{"NoteNumber":70,"Velocity":76,"Duration":91370,"SoundDuration":91370,"Delta":324744680},{"NoteNumber":72,"Velocity":74,"Duration":61161,"SoundDuration":61161,"Delta":324836051},{"NoteNumber":51,"Velocity":66,"Duration":368242,"SoundDuration":368242,"Delta":324836051},{"NoteNumber":74,"Velocity":68,"Duration":61162,"SoundDuration":61162,"Delta":324897213},{"NoteNumber":72,"Velocity":68,"Duration":61349,"SoundDuration":61349,"Delta":324958375},{"NoteNumber":74,"Velocity":66,"Duration":61396,"SoundDuration":61396,"Delta":325019725},{"NoteNumber":72,"Velocity":63,"Duration":61538,"SoundDuration":61538,"Delta":325081122},{"NoteNumber":74,"Velocity":66,"Duration":61633,"SoundDuration":61633,"Delta":325142660},{"NoteNumber":72,"Velocity":66,"Duration":61728,"SoundDuration":61728,"Delta":325204294},{"NoteNumber":57,"Velocity":59,"Duration":372241,"SoundDuration":372241,"Delta":325204294},{"NoteNumber":53,"Velocity":59,"Duration":372241,"SoundDuration":372241,"Delta":325204294},{"NoteNumber":74,"Velocity":66,"Duration":61919,"SoundDuration":61919,"Delta":325266022},{"NoteNumber":72,"Velocity":66,"Duration":61967,"SoundDuration":61967,"Delta":325327941},{"NoteNumber":70,"Velocity":69,"Duration":93167,"SoundDuration":93167,"Delta":325389909},{"NoteNumber":72,"Velocity":69,"Duration":93457,"SoundDuration":93457,"Delta":325483077},{"NoteNumber":70,"Velocity":74,"Duration":93750,"SoundDuration":93750,"Delta":325576535},{"NoteNumber":50,"Velocity":64,"Duration":375000,"SoundDuration":375000,"Delta":325576535},{"NoteNumber":58,"Velocity":64,"Duration":375000,"SoundDuration":375000,"Delta":325576535},{"NoteNumber":82,"Velocity":74,"Duration":93750,"SoundDuration":93750,"Delta":325764035},{"NoteNumber":81,"Velocity":72,"Duration":93750,"SoundDuration":93750,"Delta":325857785},{"NoteNumber":82,"Velocity":74,"Duration":91743,"SoundDuration":91743,"Delta":325951535},{"NoteNumber":81,"Velocity":70,"Duration":91743,"SoundDuration":91743,"Delta":326043278},{"NoteNumber":82,"Velocity":74,"Duration":91743,"SoundDuration":91743,"Delta":326135021},{"NoteNumber":81,"Velocity":71,"Duration":91742,"SoundDuration":91742,"Delta":326226764},{"NoteNumber":82,"Velocity":74,"Duration":91463,"SoundDuration":91463,"Delta":326318507},{"NoteNumber":81,"Velocity":74,"Duration":91463,"SoundDuration":91463,"Delta":326409970},{"NoteNumber":79,"Velocity":73,"Duration":91370,"SoundDuration":91370,"Delta":326501434},{"NoteNumber":77,"Velocity":72,"Duration":91185,"SoundDuration":91185,"Delta":326592805},{"NoteNumber":75,"Velocity":71,"Duration":91185,"SoundDuration":91185,"Delta":326683990},{"NoteNumber":58,"Velocity":54,"Duration":364004,"SoundDuration":364004,"Delta":326683990},{"NoteNumber":50,"Velocity":54,"Duration":364004,"SoundDuration":364004,"Delta":326683990},{"NoteNumber":74,"Velocity":70,"Duration":91001,"SoundDuration":91001,"Delta":326775176},{"NoteNumber":72,"Velocity":70,"Duration":90909,"SoundDuration":90909,"Delta":326866177},{"NoteNumber":70,"Velocity":69,"Duration":90908,"SoundDuration":90908,"Delta":326957086},{"NoteNumber":67,"Velocity":77,"Duration":93457,"SoundDuration":93457,"Delta":327047995},{"NoteNumber":58,"Velocity":58,"Duration":370965,"SoundDuration":370965,"Delta":327047995},{"NoteNumber":51,"Velocity":58,"Duration":370965,"SoundDuration":370965,"Delta":327047995},{"NoteNumber":79,"Velocity":75,"Duration":92024,"SoundDuration":92024,"Delta":327234911},{"NoteNumber":78,"Velocity":72,"Duration":92024,"SoundDuration":92024,"Delta":327326935},{"NoteNumber":79,"Velocity":75,"Duration":92024,"SoundDuration":92024,"Delta":327418960},{"NoteNumber":78,"Velocity":71,"Duration":92024,"SoundDuration":92024,"Delta":327510984},{"NoteNumber":79,"Velocity":75,"Duration":92024,"SoundDuration":92024,"Delta":327603009},{"NoteNumber":78,"Velocity":72,"Duration":92024,"SoundDuration":92024,"Delta":327695033},{"NoteNumber":79,"Velocity":74,"Duration":92592,"SoundDuration":92592,"Delta":327787058},{"NoteNumber":77,"Velocity":74,"Duration":92355,"SoundDuration":92355,"Delta":327879650},{"NoteNumber":75,"Velocity":73,"Duration":92118,"SoundDuration":92118,"Delta":327972006},{"NoteNumber":74,"Velocity":72,"Duration":91883,"SoundDuration":91883,"Delta":328064124},{"NoteNumber":72,"Velocity":71,"Duration":91603,"SoundDuration":91603,"Delta":328156008},{"NoteNumber":51,"Velocity":55,"Duration":364976,"SoundDuration":364976,"Delta":328156008},{"NoteNumber":60,"Velocity":55,"Duration":364976,"SoundDuration":364976,"Delta":328156008},{"NoteNumber":70,"Velocity":70,"Duration":91370,"SoundDuration":91370,"Delta":328247611},{"NoteNumber":69,"Velocity":70,"Duration":91139,"SoundDuration":91139,"Delta":328338982},{"NoteNumber":67,"Velocity":69,"Duration":90863,"SoundDuration":90863,"Delta":328430122},{"NoteNumber":65,"Velocity":77,"Duration":185184,"SoundDuration":185184,"Delta":328520985},{"NoteNumber":53,"Velocity":64,"Duration":185184,"SoundDuration":185184,"Delta":328520985},{"NoteNumber":67,"Velocity":70,"Duration":110420,"SoundDuration":110420,"Delta":328706170},{"NoteNumber":62,"Velocity":57,"Duration":183814,"SoundDuration":183814,"Delta":328706170},{"NoteNumber":69,"Velocity":72,"Duration":110129,"SoundDuration":110129,"Delta":328798194},{"NoteNumber":70,"Velocity":73,"Duration":109802,"SoundDuration":109802,"Delta":328889984},{"NoteNumber":58,"Velocity":64,"Duration":182788,"SoundDuration":182788,"Delta":328889984},{"NoteNumber":72,"Velocity":74,"Duration":109515,"SoundDuration":109515,"Delta":328981494},{"NoteNumber":74,"Velocity":76,"Duration":109182,"SoundDuration":109182,"Delta":329072773},{"NoteNumber":62,"Velocity":58,"Duration":181772,"SoundDuration":181772,"Delta":329072773},{"NoteNumber":75,"Velocity":77,"Duration":108898,"SoundDuration":108898,"Delta":329163774},{"NoteNumber":77,"Velocity":79,"Duration":108570,"SoundDuration":108570,"Delta":329254546},{"NoteNumber":53,"Velocity":64,"Duration":180769,"SoundDuration":180769,"Delta":329254546},{"NoteNumber":79,"Velocity":80,"Duration":108289,"SoundDuration":108289,"Delta":329345044},{"NoteNumber":81,"Velocity":82,"Duration":107964,"SoundDuration":107964,"Delta":329435315},{"NoteNumber":62,"Velocity":58,"Duration":179775,"SoundDuration":179775,"Delta":329435315},{"NoteNumber":82,"Velocity":83,"Duration":107686,"SoundDuration":107686,"Delta":329525315},{"NoteNumber":84,"Velocity":84,"Duration":107364,"SoundDuration":107364,"Delta":329615090},{"NoteNumber":58,"Velocity":64,"Duration":178793,"SoundDuration":178793,"Delta":329615090},{"NoteNumber":86,"Velocity":86,"Duration":107089,"SoundDuration":107089,"Delta":329704598},{"NoteNumber":87,"Velocity":87,"Duration":106772,"SoundDuration":106772,"Delta":329793884},{"NoteNumber":62,"Velocity":58,"Duration":177778,"SoundDuration":177778,"Delta":329793884},{"NoteNumber":89,"Velocity":89,"Duration":107249,"SoundDuration":107249,"Delta":329882905},{"NoteNumber":82,"Velocity":71,"Duration":61688,"SoundDuration":61688,"Delta":329971662},{"NoteNumber":53,"Velocity":64,"Duration":184479,"SoundDuration":184479,"Delta":329971662},{"NoteNumber":84,"Velocity":66,"Duration":61378,"SoundDuration":61378,"Delta":330033350},{"NoteNumber":86,"Velocity":67,"Duration":61412,"SoundDuration":61412,"Delta":330094729},{"NoteNumber":84,"Velocity":72,"Duration":60601,"SoundDuration":60601,"Delta":330156141},{"NoteNumber":63,"Velocity":64,"Duration":181797,"SoundDuration":181797,"Delta":330156141},{"NoteNumber":86,"Velocity":69,"Duration":61116,"SoundDuration":61116,"Delta":330216743},{"NoteNumber":84,"Velocity":73,"Duration":60078,"SoundDuration":60078,"Delta":330277860},{"NoteNumber":86,"Velocity":69,"Duration":60461,"SoundDuration":60461,"Delta":330337939},{"NoteNumber":57,"Velocity":67,"Duration":181214,"SoundDuration":181214,"Delta":330337939},{"NoteNumber":84,"Velocity":74,"Duration":60538,"SoundDuration":60538,"Delta":330398400},{"NoteNumber":86,"Velocity":71,"Duration":60214,"SoundDuration":60214,"Delta":330458939},{"NoteNumber":84,"Velocity":75,"Duration":60015,"SoundDuration":60015,"Delta":330519154},{"NoteNumber":63,"Velocity":64,"Duration":180815,"SoundDuration":180815,"Delta":330519154},{"NoteNumber":86,"Velocity":71,"Duration":60377,"SoundDuration":60377,"Delta":330579169},{"NoteNumber":84,"Velocity":75,"Duration":60423,"SoundDuration":60423,"Delta":330639546},{"NoteNumber":86,"Velocity":71,"Duration":60241,"SoundDuration":60241,"Delta":330699969},{"NoteNumber":53,"Velocity":70,"Duration":180950,"SoundDuration":180950,"Delta":330699969},{"NoteNumber":84,"Velocity":77,"Duration":60286,"SoundDuration":60286,"Delta":330760210},{"NoteNumber":86,"Velocity":73,"Duration":60423,"SoundDuration":60423,"Delta":330820497},{"NoteNumber":84,"Velocity":79,"Duration":60514,"SoundDuration":60514,"Delta":330880920},{"NoteNumber":63,"Velocity":64,"Duration":181864,"SoundDuration":181864,"Delta":330880920},{"NoteNumber":86,"Velocity":74,"Duration":60606,"SoundDuration":60606,"Delta":330941434},{"NoteNumber":84,"Velocity":79,"Duration":60744,"SoundDuration":60744,"Delta":331002040},{"NoteNumber":86,"Velocity":82,"Duration":91278,"SoundDuration":91278,"Delta":331062784},{"NoteNumber":57,"Velocity":71,"Duration":182788,"SoundDuration":182788,"Delta":331062784},{"NoteNumber":84,"Velocity":79,"Duration":91510,"SoundDuration":91510,"Delta":331154062},{"NoteNumber":82,"Velocity":87,"Duration":91743,"SoundDuration":91743,"Delta":331245573},{"NoteNumber":63,"Velocity":66,"Duration":183767,"SoundDuration":183767,"Delta":331245573},{"NoteNumber":84,"Velocity":85,"Duration":92024,"SoundDuration":92024,"Delta":331337316},{"NoteNumber":82,"Velocity":93,"Duration":368097,"SoundDuration":368097,"Delta":331429340},{"NoteNumber":62,"Velocity":66,"Duration":184049,"SoundDuration":184049,"Delta":331429340},{"NoteNumber":58,"Velocity":49,"Duration":184048,"SoundDuration":184048,"Delta":331613389},{"NoteNumber":62,"Velocity":41,"Duration":182927,"SoundDuration":182927,"Delta":331797438},{"NoteNumber":58,"Velocity":34,"Duration":182927,"SoundDuration":182927,"Delta":331980365},{"NoteNumber":62,"Velocity":40,"Duration":182927,"SoundDuration":182927,"Delta":332163292},{"NoteNumber":58,"Velocity":35,"Duration":182927,"SoundDuration":182927,"Delta":332346219},{"NoteNumber":62,"Velocity":40,"Duration":182926,"SoundDuration":182926,"Delta":332529146},{"NoteNumber":70,"Velocity":51,"Duration":192307,"SoundDuration":192307,"Delta":332712073},{"NoteNumber":58,"Velocity":35,"Duration":192307,"SoundDuration":192307,"Delta":332712073},{"NoteNumber":80,"Velocity":54,"Duration":548781,"SoundDuration":548781,"Delta":332904381},{"NoteNumber":65,"Velocity":43,"Duration":182927,"SoundDuration":182927,"Delta":332904381},{"NoteNumber":58,"Velocity":39,"Duration":182927,"SoundDuration":182927,"Delta":333087308},{"NoteNumber":65,"Velocity":44,"Duration":182927,"SoundDuration":182927,"Delta":333270235},{"NoteNumber":77,"Velocity":52,"Duration":182927,"SoundDuration":182927,"Delta":333453162},{"NoteNumber":58,"Velocity":38,"Duration":182927,"SoundDuration":182927,"Delta":333453162},{"NoteNumber":74,"Velocity":50,"Duration":182926,"SoundDuration":182926,"Delta":333636089},{"NoteNumber":68,"Velocity":44,"Duration":182926,"SoundDuration":182926,"Delta":333636089},{"NoteNumber":58,"Velocity":38,"Duration":182927,"SoundDuration":182927,"Delta":333819016},{"NoteNumber":74,"Velocity":51,"Duration":182927,"SoundDuration":182927,"Delta":334001943},{"NoteNumber":68,"Velocity":44,"Duration":182927,"SoundDuration":182927,"Delta":334001943},{"NoteNumber":58,"Velocity":38,"Duration":182927,"SoundDuration":182927,"Delta":334184870},{"NoteNumber":75,"Velocity":56,"Duration":185184,"SoundDuration":185184,"Delta":334367797},{"NoteNumber":67,"Velocity":44,"Duration":185184,"SoundDuration":185184,"Delta":334367797},{"NoteNumber":58,"Velocity":42,"Duration":185184,"SoundDuration":185184,"Delta":334552982},{"NoteNumber":77,"Velocity":57,"Duration":185185,"SoundDuration":185185,"Delta":334738167},{"NoteNumber":62,"Velocity":47,"Duration":185185,"SoundDuration":185185,"Delta":334738167},{"NoteNumber":58,"Velocity":44,"Duration":185184,"SoundDuration":185184,"Delta":334923352},{"NoteNumber":79,"Velocity":61,"Duration":185184,"SoundDuration":185184,"Delta":335108537},{"NoteNumber":63,"Velocity":50,"Duration":185184,"SoundDuration":185184,"Delta":335108537},{"NoteNumber":58,"Velocity":46,"Duration":185184,"SoundDuration":185184,"Delta":335293722},{"NoteNumber":63,"Velocity":44,"Duration":185184,"SoundDuration":185184,"Delta":335478907},{"NoteNumber":79,"Velocity":53,"Duration":181818,"SoundDuration":181818,"Delta":335664092},{"NoteNumber":58,"Velocity":44,"Duration":181818,"SoundDuration":181818,"Delta":335664092},{"NoteNumber":77,"Velocity":57,"Duration":201834,"SoundDuration":201834,"Delta":335845910},{"NoteNumber":60,"Velocity":43,"Duration":183486,"SoundDuration":183486,"Delta":335845910},{"NoteNumber":75,"Velocity":57,"Duration":201834,"SoundDuration":201834,"Delta":336029396},{"NoteNumber":58,"Velocity":38,"Duration":183485,"SoundDuration":183485,"Delta":336029396},{"NoteNumber":74,"Velocity":56,"Duration":201834,"SoundDuration":201834,"Delta":336212882},{"NoteNumber":60,"Velocity":41,"Duration":183486,"SoundDuration":183486,"Delta":336212882},{"NoteNumber":72,"Velocity":56,"Duration":201834,"SoundDuration":201834,"Delta":336396368},{"NoteNumber":58,"Velocity":40,"Duration":183486,"SoundDuration":183486,"Delta":336396368},{"NoteNumber":70,"Velocity":55,"Duration":201834,"SoundDuration":201834,"Delta":336579854},{"NoteNumber":60,"Velocity":48,"Duration":183486,"SoundDuration":183486,"Delta":336579854},{"NoteNumber":69,"Velocity":55,"Duration":202353,"SoundDuration":202353,"Delta":336763340},{"NoteNumber":58,"Velocity":43,"Duration":183485,"SoundDuration":183485,"Delta":336763340},{"NoteNumber":75,"Velocity":62,"Duration":207546,"SoundDuration":207546,"Delta":336946826},{"NoteNumber":60,"Velocity":43,"Duration":188678,"SoundDuration":188678,"Delta":336946826},{"NoteNumber":69,"Velocity":58,"Duration":188679,"SoundDuration":188679,"Delta":337135505},{"NoteNumber":58,"Velocity":39,"Duration":188679,"SoundDuration":188679,"Delta":337135505},{"NoteNumber":70,"Velocity":58,"Duration":90909,"SoundDuration":90909,"Delta":337324184},{"NoteNumber":58,"Velocity":45,"Duration":363635,"SoundDuration":363635,"Delta":337324184},{"NoteNumber":62,"Velocity":45,"Duration":363635,"SoundDuration":363635,"Delta":337324184},{"NoteNumber":72,"Velocity":60,"Duration":90908,"SoundDuration":90908,"Delta":337506002},{"NoteNumber":74,"Velocity":61,"Duration":90909,"SoundDuration":90909,"Delta":337687820},{"NoteNumber":75,"Velocity":63,"Duration":90909,"SoundDuration":90909,"Delta":337869638},{"NoteNumber":76,"Velocity":65,"Duration":91556,"SoundDuration":91556,"Delta":338051456},{"NoteNumber":77,"Velocity":67,"Duration":92640,"SoundDuration":92640,"Delta":338235084},{"NoteNumber":78,"Velocity":69,"Duration":93701,"SoundDuration":93701,"Delta":338420845},{"NoteNumber":79,"Velocity":71,"Duration":94786,"SoundDuration":94786,"Delta":338608787},{"NoteNumber":80,"Velocity":73,"Duration":545454,"SoundDuration":545454,"Delta":338798964},{"NoteNumber":65,"Velocity":42,"Duration":181818,"SoundDuration":181818,"Delta":338798964},{"NoteNumber":58,"Velocity":38,"Duration":181817,"SoundDuration":181817,"Delta":338980782},{"NoteNumber":65,"Velocity":42,"Duration":181818,"SoundDuration":181818,"Delta":339162600},{"NoteNumber":79,"Velocity":58,"Duration":60606,"SoundDuration":60606,"Delta":339344418},{"NoteNumber":58,"Velocity":39,"Duration":181818,"SoundDuration":181818,"Delta":339344418},{"NoteNumber":77,"Velocity":58,"Duration":60606,"SoundDuration":60606,"Delta":339405024},{"NoteNumber":75,"Velocity":58,"Duration":60606,"SoundDuration":60606,"Delta":339465630},{"NoteNumber":74,"Velocity":63,"Duration":90908,"SoundDuration":90908,"Delta":339526236},{"NoteNumber":68,"Velocity":42,"Duration":90908,"SoundDuration":90908,"Delta":339526236},{"NoteNumber":74,"Velocity":60,"Duration":90909,"SoundDuration":90909,"Delta":339708054},{"NoteNumber":58,"Velocity":39,"Duration":90909,"SoundDuration":90909,"Delta":339708054},{"NoteNumber":74,"Velocity":64,"Duration":90909,"SoundDuration":90909,"Delta":339889872},{"NoteNumber":68,"Velocity":42,"Duration":90909,"SoundDuration":90909,"Delta":339889872},{"NoteNumber":74,"Velocity":60,"Duration":90909,"SoundDuration":90909,"Delta":340071690},{"NoteNumber":58,"Velocity":38,"Duration":90909,"SoundDuration":90909,"Delta":340071690},{"NoteNumber":75,"Velocity":66,"Duration":368097,"SoundDuration":368097,"Delta":340253508},{"NoteNumber":67,"Velocity":42,"Duration":184049,"SoundDuration":184049,"Delta":340253508},{"NoteNumber":58,"Velocity":42,"Duration":184048,"SoundDuration":184048,"Delta":340437557},{"NoteNumber":77,"Velocity":59,"Duration":61349,"SoundDuration":61349,"Delta":340621606},{"NoteNumber":62,"Velocity":46,"Duration":184049,"SoundDuration":184049,"Delta":340621606},{"NoteNumber":79,"Velocity":59,"Duration":61349,"SoundDuration":61349,"Delta":340682956},{"NoteNumber":77,"Velocity":60,"Duration":61349,"SoundDuration":61349,"Delta":340744306},{"NoteNumber":79,"Velocity":60,"Duration":46012,"SoundDuration":46012,"Delta":340805655},{"NoteNumber":58,"Velocity":42,"Duration":184049,"SoundDuration":184049,"Delta":340805655},{"NoteNumber":77,"Velocity":60,"Duration":46012,"SoundDuration":46012,"Delta":340867005},{"NoteNumber":75,"Velocity":59,"Duration":46012,"SoundDuration":46012,"Delta":340897680},{"NoteNumber":77,"Velocity":63,"Duration":46012,"SoundDuration":46012,"Delta":340943692},{"NoteNumber":79,"Velocity":66,"Duration":368097,"SoundDuration":368097,"Delta":340989704},{"NoteNumber":63,"Velocity":45,"Duration":184049,"SoundDuration":184049,"Delta":340989704},{"NoteNumber":58,"Velocity":34,"Duration":184048,"SoundDuration":184048,"Delta":341173753},{"NoteNumber":63,"Velocity":39,"Duration":184049,"SoundDuration":184049,"Delta":341357802},{"NoteNumber":79,"Velocity":55,"Duration":184049,"SoundDuration":184049,"Delta":341541851},{"NoteNumber":58,"Velocity":35,"Duration":184049,"SoundDuration":184049,"Delta":341541851},{"NoteNumber":77,"Velocity":59,"Duration":202453,"SoundDuration":202453,"Delta":341725900},{"NoteNumber":60,"Velocity":45,"Duration":184048,"SoundDuration":184048,"Delta":341725900},{"NoteNumber":75,"Velocity":58,"Duration":202453,"SoundDuration":202453,"Delta":341909949},{"NoteNumber":58,"Velocity":42,"Duration":184049,"SoundDuration":184049,"Delta":341909949},{"NoteNumber":74,"Velocity":57,"Duration":202453,"SoundDuration":202453,"Delta":342093998},{"NoteNumber":60,"Velocity":45,"Duration":184049,"SoundDuration":184049,"Delta":342093998},{"NoteNumber":72,"Velocity":57,"Duration":202682,"SoundDuration":202682,"Delta":342278047},{"NoteNumber":58,"Velocity":42,"Duration":184049,"SoundDuration":184049,"Delta":342278047},{"NoteNumber":70,"Velocity":56,"Duration":204969,"SoundDuration":204969,"Delta":342462096},{"NoteNumber":60,"Velocity":46,"Duration":186335,"SoundDuration":186335,"Delta":342462096},{"NoteNumber":69,"Velocity":56,"Duration":205443,"SoundDuration":205443,"Delta":342648432},{"NoteNumber":58,"Velocity":42,"Duration":186335,"SoundDuration":186335,"Delta":342648432},{"NoteNumber":75,"Velocity":60,"Duration":210191,"SoundDuration":210191,"Delta":342834767},{"NoteNumber":60,"Velocity":46,"Duration":191082,"SoundDuration":191082,"Delta":342834767},{"NoteNumber":69,"Velocity":57,"Duration":210191,"SoundDuration":210191,"Delta":343025850},{"NoteNumber":58,"Velocity":44,"Duration":191082,"SoundDuration":191082,"Delta":343025850},{"NoteNumber":70,"Velocity":61,"Duration":382166,"SoundDuration":382166,"Delta":343216933},{"NoteNumber":62,"Velocity":49,"Duration":382166,"SoundDuration":382166,"Delta":343216933},{"NoteNumber":58,"Velocity":49,"Duration":382166,"SoundDuration":382166,"Delta":343216933},{"NoteNumber":74,"Velocity":53,"Duration":185184,"SoundDuration":185184,"Delta":343790182},{"NoteNumber":77,"Velocity":56,"Duration":185184,"SoundDuration":185184,"Delta":343975367},{"NoteNumber":60,"Velocity":39,"Duration":370370,"SoundDuration":370370,"Delta":343975367},{"NoteNumber":53,"Velocity":39,"Duration":746546,"SoundDuration":746546,"Delta":343975367},{"NoteNumber":75,"Velocity":54,"Duration":185185,"SoundDuration":185185,"Delta":344160552},{"NoteNumber":72,"Velocity":54,"Duration":188087,"SoundDuration":188087,"Delta":344345737},{"NoteNumber":63,"Velocity":39,"Duration":376175,"SoundDuration":376175,"Delta":344345737},{"NoteNumber":69,"Velocity":54,"Duration":188087,"SoundDuration":188087,"Delta":344533825},{"NoteNumber":70,"Velocity":57,"Duration":376175,"SoundDuration":376175,"Delta":344721913},{"NoteNumber":62,"Velocity":46,"Duration":376175,"SoundDuration":376175,"Delta":344721913},{"NoteNumber":58,"Velocity":46,"Duration":376175,"SoundDuration":376175,"Delta":344721913},{"NoteNumber":74,"Velocity":50,"Duration":98684,"SoundDuration":98684,"Delta":345286177},{"NoteNumber":70,"Velocity":48,"Duration":98684,"SoundDuration":98684,"Delta":345384861},{"NoteNumber":77,"Velocity":54,"Duration":191693,"SoundDuration":191693,"Delta":345483546},{"NoteNumber":60,"Velocity":37,"Duration":383387,"SoundDuration":383387,"Delta":345483546},{"NoteNumber":53,"Velocity":37,"Duration":775544,"SoundDuration":775544,"Delta":345483546},{"NoteNumber":75,"Velocity":51,"Duration":191693,"SoundDuration":191693,"Delta":345675239},{"NoteNumber":72,"Velocity":51,"Duration":196078,"SoundDuration":196078,"Delta":345866933},{"NoteNumber":63,"Velocity":37,"Duration":392156,"SoundDuration":392156,"Delta":345866933},{"NoteNumber":69,"Velocity":49,"Duration":196078,"SoundDuration":196078,"Delta":346063011},{"NoteNumber":70,"Velocity":55,"Duration":415225,"SoundDuration":415225,"Delta":346259090},{"NoteNumber":58,"Velocity":43,"Duration":415225,"SoundDuration":415225,"Delta":346259090},{"NoteNumber":62,"Velocity":43,"Duration":415225,"SoundDuration":415225,"Delta":346259090},{"NoteNumber":77,"Velocity":91,"Duration":196078,"SoundDuration":196078,"Delta":346870393},{"NoteNumber":81,"Velocity":96,"Duration":196078,"SoundDuration":196078,"Delta":347066472},{"NoteNumber":72,"Velocity":81,"Duration":196078,"SoundDuration":196078,"Delta":347066472},{"NoteNumber":75,"Velocity":81,"Duration":196078,"SoundDuration":196078,"Delta":347066472},{"NoteNumber":77,"Velocity":96,"Duration":196078,"SoundDuration":196078,"Delta":347066472},{"NoteNumber":53,"Velocity":84,"Duration":196078,"SoundDuration":196078,"Delta":347066472},{"NoteNumber":41,"Velocity":71,"Duration":196078,"SoundDuration":196078,"Delta":347066472},{"NoteNumber":72,"Velocity":81,"Duration":203390,"SoundDuration":203390,"Delta":347458629},{"NoteNumber":75,"Velocity":81,"Duration":203390,"SoundDuration":203390,"Delta":347458629},{"NoteNumber":77,"Velocity":96,"Duration":203390,"SoundDuration":203390,"Delta":347458629},{"NoteNumber":81,"Velocity":96,"Duration":203390,"SoundDuration":203390,"Delta":347458629},{"NoteNumber":41,"Velocity":71,"Duration":203390,"SoundDuration":203390,"Delta":347458629},{"NoteNumber":53,"Velocity":84,"Duration":203390,"SoundDuration":203390,"Delta":347458629},{"NoteNumber":74,"Velocity":84,"Duration":203389,"SoundDuration":203389,"Delta":347865409},{"NoteNumber":77,"Velocity":99,"Duration":203389,"SoundDuration":203389,"Delta":347865409},{"NoteNumber":70,"Velocity":84,"Duration":203389,"SoundDuration":203389,"Delta":347865409},{"NoteNumber":82,"Velocity":99,"Duration":203389,"SoundDuration":203389,"Delta":347865409},{"NoteNumber":34,"Velocity":75,"Duration":203389,"SoundDuration":203389,"Delta":347865409},{"NoteNumber":46,"Velocity":89,"Duration":203389,"SoundDuration":203389,"Delta":347865409}],"license":{"name":"Creative Commons Attribution-ShareAlike 3.0 Germany","url":"http://creativecommons.org/licenses/by-sa/3.0/de/deed.en","text":"The MIDI files in this folder were downloaded from http://www.piano-midi.de and are licensed under the Creative Commons Attribution-ShareAlike 3.0 Germany license by Bernd Krueger.\n\nThe MIDI, audio(MP3, OGG) and video files of Bernd Krueger are licensed under the cc-by-sa Germany License . This means, that you can use and adapt the files, as long as you attribute to the copyright holder Name: Bernd Krueger Source: http://www.piano-midi.de The distribution or public playback of the files is only allowed under identical license conditions . The scores are open source.","attribution":"Bernd Krueger","attributionUrl":"http://www.piano-midi.de"}}