{"title":"Sonate KV 570 3. Satz","artist":"Mozart","durationMs":198895,"midiSha256":"e2bdae8b6e9f6aa657cf640f838ec7b7eb9ecb7800d7b8a75a227270d20f671f","midiObject":[{"NoteNumber":70,"Velocity":47,"Duration":211715,"SoundDuration":211715,"Delta":0},{"NoteNumber":74,"Velocity":50,"Duration":205874,"SoundDuration":205874,"Delta":211715},{"NoteNumber":58,"Velocity":30,"Duration":205874,"SoundDuration":205874,"Delta":211715},{"NoteNumber":65,"Velocity":23,"Duration":205874,"SoundDuration":205874,"Delta":417590},{"NoteNumber":75,"Velocity":51,"Duration":211067,"SoundDuration":211067,"Delta":623464},{"NoteNumber":60,"Velocity":23,"Duration":211067,"SoundDuration":211067,"Delta":623464},{"NoteNumber":65,"Velocity":23,"Duration":210852,"SoundDuration":210852,"Delta":834532},{"NoteNumber":76,"Velocity":52,"Duration":410115,"SoundDuration":410115,"Delta":1045384},{"NoteNumber":62,"Velocity":23,"Duration":205058,"SoundDuration":205058,"Delta":1045384},{"NoteNumber":65,"Velocity":23,"Duration":205057,"SoundDuration":205057,"Delta":1250442},{"NoteNumber":77,"Velocity":52,"Duration":205874,"SoundDuration":205874,"Delta":1455500},{"NoteNumber":58,"Velocity":23,"Duration":205874,"SoundDuration":205874,"Delta":1455500},{"NoteNumber":74,"Velocity":51,"Duration":102937,"SoundDuration":102937,"Delta":1661374},{"NoteNumber":65,"Velocity":25,"Duration":205874,"SoundDuration":205874,"Delta":1661374},{"NoteNumber":74,"Velocity":52,"Duration":51468,"SoundDuration":51468,"Delta":1815780},{"NoteNumber":72,"Velocity":54,"Duration":98658,"SoundDuration":98658,"Delta":1867249},{"NoteNumber":57,"Velocity":30,"Duration":98658,"SoundDuration":98658,"Delta":1867249},{"NoteNumber":71,"Velocity":50,"Duration":104166,"SoundDuration":104166,"Delta":2064565},{"NoteNumber":65,"Velocity":23,"Duration":104166,"SoundDuration":104166,"Delta":2064565},{"NoteNumber":72,"Velocity":52,"Duration":100173,"SoundDuration":100173,"Delta":2272899},{"NoteNumber":58,"Velocity":25,"Duration":100173,"SoundDuration":100173,"Delta":2272899},{"NoteNumber":74,"Velocity":50,"Duration":102529,"SoundDuration":102529,"Delta":2473246},{"NoteNumber":65,"Velocity":25,"Duration":102529,"SoundDuration":102529,"Delta":2473246},{"NoteNumber":77,"Velocity":54,"Duration":410969,"SoundDuration":410969,"Delta":2678304},{"NoteNumber":60,"Velocity":25,"Duration":203472,"SoundDuration":203472,"Delta":2678304},{"NoteNumber":65,"Velocity":25,"Duration":207497,"SoundDuration":207497,"Delta":2881777},{"NoteNumber":75,"Velocity":46,"Duration":203472,"SoundDuration":203472,"Delta":3089274},{"NoteNumber":63,"Velocity":25,"Duration":203472,"SoundDuration":203472,"Delta":3089274},{"NoteNumber":69,"Velocity":46,"Duration":101736,"SoundDuration":101736,"Delta":3292747},{"NoteNumber":65,"Velocity":24,"Duration":203472,"SoundDuration":203472,"Delta":3292747},{"NoteNumber":70,"Velocity":52,"Duration":97188,"SoundDuration":97188,"Delta":3496219},{"NoteNumber":62,"Velocity":31,"Duration":194376,"SoundDuration":194376,"Delta":3496219},{"NoteNumber":70,"Velocity":48,"Duration":412633,"SoundDuration":412633,"Delta":3690595},{"NoteNumber":65,"Velocity":24,"Duration":209161,"SoundDuration":209161,"Delta":3690595},{"NoteNumber":62,"Velocity":31,"Duration":203472,"SoundDuration":203472,"Delta":3899757},{"NoteNumber":71,"Velocity":47,"Duration":203472,"SoundDuration":203472,"Delta":4103229},{"NoteNumber":65,"Velocity":24,"Duration":203472,"SoundDuration":203472,"Delta":4103229},{"NoteNumber":72,"Velocity":51,"Duration":96836,"SoundDuration":96836,"Delta":4306702},{"NoteNumber":57,"Velocity":32,"Duration":193673,"SoundDuration":193673,"Delta":4306702},{"NoteNumber":72,"Velocity":50,"Duration":410540,"SoundDuration":410540,"Delta":4500375},{"NoteNumber":65,"Velocity":26,"Duration":205874,"SoundDuration":205874,"Delta":4500375},{"NoteNumber":57,"Velocity":32,"Duration":204665,"SoundDuration":204665,"Delta":4706250},{"NoteNumber":73,"Velocity":50,"Duration":204262,"SoundDuration":204262,"Delta":4910915},{"NoteNumber":65,"Velocity":27,"Duration":204262,"SoundDuration":204262,"Delta":4910915},{"NoteNumber":74,"Velocity":54,"Duration":97560,"SoundDuration":97560,"Delta":5115178},{"NoteNumber":58,"Velocity":32,"Duration":97560,"SoundDuration":97560,"Delta":5115178},{"NoteNumber":72,"Velocity":50,"Duration":102937,"SoundDuration":102937,"Delta":5310300},{"NoteNumber":57,"Velocity":28,"Duration":102937,"SoundDuration":102937,"Delta":5310300},{"NoteNumber":74,"Velocity":55,"Duration":98658,"SoundDuration":98658,"Delta":5516174},{"NoteNumber":58,"Velocity":28,"Duration":98658,"SoundDuration":98658,"Delta":5516174},{"NoteNumber":72,"Velocity":50,"Duration":105425,"SoundDuration":105425,"Delta":5713491},{"NoteNumber":75,"Velocity":50,"Duration":105425,"SoundDuration":105425,"Delta":5713491},{"NoteNumber":51,"Velocity":28,"Duration":105425,"SoundDuration":105425,"Delta":5713491},{"NoteNumber":70,"Velocity":55,"Duration":402253,"SoundDuration":402253,"Delta":5924343},{"NoteNumber":74,"Velocity":55,"Duration":402253,"SoundDuration":402253,"Delta":5924343},{"NoteNumber":53,"Velocity":32,"Duration":402253,"SoundDuration":402253,"Delta":5924343},{"NoteNumber":69,"Velocity":50,"Duration":150844,"SoundDuration":150844,"Delta":6326596},{"NoteNumber":72,"Velocity":50,"Duration":150844,"SoundDuration":150844,"Delta":6326596},{"NoteNumber":70,"Velocity":47,"Duration":105857,"SoundDuration":105857,"Delta":6527722},{"NoteNumber":72,"Velocity":47,"Duration":105857,"SoundDuration":105857,"Delta":6633580},{"NoteNumber":74,"Velocity":50,"Duration":205874,"SoundDuration":205874,"Delta":6739437},{"NoteNumber":58,"Velocity":30,"Duration":205874,"SoundDuration":205874,"Delta":6739437},{"NoteNumber":65,"Velocity":23,"Duration":205874,"SoundDuration":205874,"Delta":6945312},{"NoteNumber":75,"Velocity":51,"Duration":211067,"SoundDuration":211067,"Delta":7151186},{"NoteNumber":60,"Velocity":23,"Duration":211067,"SoundDuration":211067,"Delta":7151186},{"NoteNumber":65,"Velocity":23,"Duration":210851,"SoundDuration":210851,"Delta":7362254},{"NoteNumber":76,"Velocity":52,"Duration":410116,"SoundDuration":410116,"Delta":7573106},{"NoteNumber":62,"Velocity":23,"Duration":205057,"SoundDuration":205057,"Delta":7573106},{"NoteNumber":65,"Velocity":23,"Duration":205058,"SoundDuration":205058,"Delta":7778164},{"NoteNumber":77,"Velocity":52,"Duration":205874,"SoundDuration":205874,"Delta":7983222},{"NoteNumber":58,"Velocity":23,"Duration":205874,"SoundDuration":205874,"Delta":7983222},{"NoteNumber":74,"Velocity":51,"Duration":102937,"SoundDuration":102937,"Delta":8189097},{"NoteNumber":65,"Velocity":25,"Duration":205874,"SoundDuration":205874,"Delta":8189097},{"NoteNumber":74,"Velocity":52,"Duration":51468,"SoundDuration":51468,"Delta":8343502},{"NoteNumber":72,"Velocity":54,"Duration":98658,"SoundDuration":98658,"Delta":8394971},{"NoteNumber":57,"Velocity":30,"Duration":98658,"SoundDuration":98658,"Delta":8394971},{"NoteNumber":71,"Velocity":50,"Duration":104166,"SoundDuration":104166,"Delta":8592288},{"NoteNumber":65,"Velocity":23,"Duration":104166,"SoundDuration":104166,"Delta":8592288},{"NoteNumber":72,"Velocity":52,"Duration":100173,"SoundDuration":100173,"Delta":8800621},{"NoteNumber":58,"Velocity":25,"Duration":100173,"SoundDuration":100173,"Delta":8800621},{"NoteNumber":74,"Velocity":50,"Duration":102529,"SoundDuration":102529,"Delta":9000969},{"NoteNumber":65,"Velocity":25,"Duration":102529,"SoundDuration":102529,"Delta":9000969},{"NoteNumber":77,"Velocity":54,"Duration":410970,"SoundDuration":410970,"Delta":9206027},{"NoteNumber":60,"Velocity":25,"Duration":203472,"SoundDuration":203472,"Delta":9206027},{"NoteNumber":65,"Velocity":25,"Duration":207497,"SoundDuration":207497,"Delta":9409499},{"NoteNumber":75,"Velocity":46,"Duration":203472,"SoundDuration":203472,"Delta":9616997},{"NoteNumber":63,"Velocity":25,"Duration":203472,"SoundDuration":203472,"Delta":9616997},{"NoteNumber":69,"Velocity":46,"Duration":101736,"SoundDuration":101736,"Delta":9820469},{"NoteNumber":65,"Velocity":24,"Duration":203472,"SoundDuration":203472,"Delta":9820469},{"NoteNumber":70,"Velocity":56,"Duration":97187,"SoundDuration":97187,"Delta":10023942},{"NoteNumber":62,"Velocity":31,"Duration":395502,"SoundDuration":395502,"Delta":10023942},{"NoteNumber":82,"Velocity":50,"Duration":201126,"SoundDuration":201126,"Delta":10218318},{"NoteNumber":82,"Velocity":53,"Duration":100173,"SoundDuration":100173,"Delta":10419444},{"NoteNumber":82,"Velocity":48,"Duration":100173,"SoundDuration":100173,"Delta":10619792},{"NoteNumber":72,"Velocity":56,"Duration":96836,"SoundDuration":96836,"Delta":10820139},{"NoteNumber":67,"Velocity":32,"Duration":397145,"SoundDuration":397145,"Delta":10820139},{"NoteNumber":63,"Velocity":23,"Duration":397145,"SoundDuration":397145,"Delta":10820139},{"NoteNumber":79,"Velocity":50,"Duration":203472,"SoundDuration":203472,"Delta":11013813},{"NoteNumber":79,"Velocity":53,"Duration":101933,"SoundDuration":101933,"Delta":11217285},{"NoteNumber":79,"Velocity":50,"Duration":102131,"SoundDuration":102131,"Delta":11421350},{"NoteNumber":70,"Velocity":54,"Duration":97561,"SoundDuration":97561,"Delta":11625613},{"NoteNumber":53,"Velocity":25,"Duration":796552,"SoundDuration":796552,"Delta":11625613},{"NoteNumber":62,"Velocity":30,"Duration":395469,"SoundDuration":395469,"Delta":11625613},{"NoteNumber":70,"Velocity":50,"Duration":100173,"SoundDuration":100173,"Delta":11820735},{"NoteNumber":72,"Velocity":50,"Duration":48780,"SoundDuration":48780,"Delta":12021082},{"NoteNumber":63,"Velocity":28,"Duration":401083,"SoundDuration":401083,"Delta":12021082},{"NoteNumber":74,"Velocity":45,"Duration":48780,"SoundDuration":48780,"Delta":12069862},{"NoteNumber":72,"Velocity":45,"Duration":48780,"SoundDuration":48780,"Delta":12118643},{"NoteNumber":70,"Velocity":45,"Duration":48780,"SoundDuration":48780,"Delta":12167424},{"NoteNumber":72,"Velocity":50,"Duration":100948,"SoundDuration":100948,"Delta":12216204},{"NoteNumber":74,"Velocity":45,"Duration":105012,"SoundDuration":105012,"Delta":12317153},{"NoteNumber":70,"Velocity":55,"Duration":402253,"SoundDuration":402253,"Delta":12422166},{"NoteNumber":58,"Velocity":28,"Duration":402253,"SoundDuration":402253,"Delta":12422166},{"NoteNumber":62,"Velocity":32,"Duration":402253,"SoundDuration":402253,"Delta":12422166},{"NoteNumber":70,"Velocity":47,"Duration":105857,"SoundDuration":105857,"Delta":13025545},{"NoteNumber":74,"Velocity":47,"Duration":105857,"SoundDuration":105857,"Delta":13131403},{"NoteNumber":77,"Velocity":54,"Duration":202908,"SoundDuration":202908,"Delta":13237260},{"NoteNumber":53,"Velocity":30,"Duration":202908,"SoundDuration":202908,"Delta":13237260},{"NoteNumber":57,"Velocity":23,"Duration":202908,"SoundDuration":202908,"Delta":13440169},{"NoteNumber":76,"Velocity":51,"Duration":208059,"SoundDuration":208059,"Delta":13643077},{"NoteNumber":55,"Velocity":23,"Duration":208059,"SoundDuration":208059,"Delta":13643077},{"NoteNumber":58,"Velocity":23,"Duration":208058,"SoundDuration":208058,"Delta":13851136},{"NoteNumber":84,"Velocity":59,"Duration":99009,"SoundDuration":99009,"Delta":14059195},{"NoteNumber":57,"Velocity":23,"Duration":198887,"SoundDuration":198887,"Delta":14059195},{"NoteNumber":75,"Velocity":52,"Duration":201491,"SoundDuration":201491,"Delta":14258083},{"NoteNumber":60,"Velocity":23,"Duration":201491,"SoundDuration":201491,"Delta":14258083},{"NoteNumber":58,"Velocity":23,"Duration":205874,"SoundDuration":205874,"Delta":14459574},{"NoteNumber":74,"Velocity":51,"Duration":403190,"SoundDuration":403190,"Delta":14665448},{"NoteNumber":65,"Velocity":25,"Duration":205874,"SoundDuration":205874,"Delta":14665448},{"NoteNumber":63,"Velocity":30,"Duration":605997,"SoundDuration":605997,"Delta":14871323},{"NoteNumber":71,"Velocity":50,"Duration":208333,"SoundDuration":208333,"Delta":15068639},{"NoteNumber":72,"Velocity":52,"Duration":200347,"SoundDuration":200347,"Delta":15276973},{"NoteNumber":79,"Velocity":50,"Duration":205058,"SoundDuration":205058,"Delta":15477320},{"NoteNumber":64,"Velocity":30,"Duration":205058,"SoundDuration":205058,"Delta":15477320},{"NoteNumber":70,"Velocity":54,"Duration":307221,"SoundDuration":307221,"Delta":15682378},{"NoteNumber":65,"Velocity":25,"Duration":410969,"SoundDuration":410969,"Delta":15682378},{"NoteNumber":72,"Velocity":43,"Duration":51874,"SoundDuration":51874,"Delta":15989600},{"NoteNumber":70,"Velocity":43,"Duration":51874,"SoundDuration":51874,"Delta":16041474},{"NoteNumber":69,"Velocity":48,"Duration":164377,"SoundDuration":164377,"Delta":16093348},{"NoteNumber":69,"Velocity":47,"Duration":105174,"SoundDuration":105174,"Delta":16312518},{"NoteNumber":72,"Velocity":47,"Duration":105174,"SoundDuration":105174,"Delta":16417693},{"NoteNumber":77,"Velocity":54,"Duration":202908,"SoundDuration":202908,"Delta":16522867},{"NoteNumber":53,"Velocity":30,"Duration":202908,"SoundDuration":202908,"Delta":16522867},{"NoteNumber":57,"Velocity":23,"Duration":202908,"SoundDuration":202908,"Delta":16725776},{"NoteNumber":76,"Velocity":51,"Duration":208058,"SoundDuration":208058,"Delta":16928684},{"NoteNumber":55,"Velocity":23,"Duration":208058,"SoundDuration":208058,"Delta":16928684},{"NoteNumber":58,"Velocity":23,"Duration":208059,"SoundDuration":208059,"Delta":17136743},{"NoteNumber":84,"Velocity":59,"Duration":99009,"SoundDuration":99009,"Delta":17344802},{"NoteNumber":57,"Velocity":23,"Duration":198887,"SoundDuration":198887,"Delta":17344802},{"NoteNumber":75,"Velocity":52,"Duration":201490,"SoundDuration":201490,"Delta":17543690},{"NoteNumber":60,"Velocity":23,"Duration":201490,"SoundDuration":201490,"Delta":17543690},{"NoteNumber":58,"Velocity":23,"Duration":205874,"SoundDuration":205874,"Delta":17745181},{"NoteNumber":74,"Velocity":51,"Duration":205874,"SoundDuration":205874,"Delta":17951055},{"NoteNumber":65,"Velocity":25,"Duration":205874,"SoundDuration":205874,"Delta":17951055},{"NoteNumber":67,"Velocity":30,"Duration":811055,"SoundDuration":811055,"Delta":18156930},{"NoteNumber":70,"Velocity":37,"Duration":811055,"SoundDuration":811055,"Delta":18156930},{"NoteNumber":82,"Velocity":50,"Duration":208333,"SoundDuration":208333,"Delta":18354246},{"NoteNumber":79,"Velocity":52,"Duration":200347,"SoundDuration":200347,"Delta":18562580},{"NoteNumber":76,"Velocity":50,"Duration":205058,"SoundDuration":205058,"Delta":18762927},{"NoteNumber":77,"Velocity":60,"Duration":203472,"SoundDuration":203472,"Delta":18967985},{"NoteNumber":69,"Velocity":30,"Duration":410969,"SoundDuration":410969,"Delta":18967985},{"NoteNumber":65,"Velocity":25,"Duration":410969,"SoundDuration":410969,"Delta":18967985},{"NoteNumber":81,"Velocity":53,"Duration":207497,"SoundDuration":207497,"Delta":19171458},{"NoteNumber":84,"Velocity":58,"Duration":101736,"SoundDuration":101736,"Delta":19378955},{"NoteNumber":84,"Velocity":51,"Duration":101736,"SoundDuration":101736,"Delta":19582428},{"NoteNumber":67,"Velocity":30,"Duration":814285,"SoundDuration":814285,"Delta":19785900},{"NoteNumber":70,"Velocity":37,"Duration":814285,"SoundDuration":814285,"Delta":19785900},{"NoteNumber":84,"Velocity":54,"Duration":108531,"SoundDuration":108531,"Delta":19988809},{"NoteNumber":82,"Velocity":48,"Duration":108774,"SoundDuration":108774,"Delta":20087474},{"NoteNumber":81,"Velocity":48,"Duration":111208,"SoundDuration":111208,"Delta":20186138},{"NoteNumber":79,"Velocity":48,"Duration":111208,"SoundDuration":111208,"Delta":20287237},{"NoteNumber":77,"Velocity":48,"Duration":115069,"SoundDuration":115069,"Delta":20388335},{"NoteNumber":76,"Velocity":48,"Duration":117435,"SoundDuration":117435,"Delta":20492652},{"NoteNumber":77,"Velocity":55,"Duration":99009,"SoundDuration":99009,"Delta":20600186},{"NoteNumber":65,"Velocity":25,"Duration":400378,"SoundDuration":400378,"Delta":20600186},{"NoteNumber":69,"Velocity":30,"Duration":400378,"SoundDuration":400378,"Delta":20600186},{"NoteNumber":72,"Velocity":45,"Duration":99877,"SoundDuration":99877,"Delta":20699196},{"NoteNumber":77,"Velocity":53,"Duration":100745,"SoundDuration":100745,"Delta":20799074},{"NoteNumber":81,"Velocity":48,"Duration":100745,"SoundDuration":100745,"Delta":20899820},{"NoteNumber":84,"Velocity":59,"Duration":102937,"SoundDuration":102937,"Delta":21000565},{"NoteNumber":84,"Velocity":52,"Duration":102937,"SoundDuration":102937,"Delta":21206440},{"NoteNumber":67,"Velocity":30,"Duration":814285,"SoundDuration":814285,"Delta":21412314},{"NoteNumber":70,"Velocity":37,"Duration":814285,"SoundDuration":814285,"Delta":21412314},{"NoteNumber":81,"Velocity":48,"Duration":101454,"SoundDuration":101454,"Delta":21513768},{"NoteNumber":84,"Velocity":54,"Duration":108531,"SoundDuration":108531,"Delta":21615223},{"NoteNumber":82,"Velocity":48,"Duration":108774,"SoundDuration":108774,"Delta":21713887},{"NoteNumber":81,"Velocity":48,"Duration":111208,"SoundDuration":111208,"Delta":21812552},{"NoteNumber":79,"Velocity":48,"Duration":111208,"SoundDuration":111208,"Delta":21913651},{"NoteNumber":77,"Velocity":48,"Duration":115069,"SoundDuration":115069,"Delta":22014749},{"NoteNumber":76,"Velocity":48,"Duration":117435,"SoundDuration":117435,"Delta":22119066},{"NoteNumber":77,"Velocity":51,"Duration":99009,"SoundDuration":99009,"Delta":22226600},{"NoteNumber":65,"Velocity":25,"Duration":397623,"SoundDuration":397623,"Delta":22226600},{"NoteNumber":69,"Velocity":30,"Duration":397623,"SoundDuration":397623,"Delta":22226600},{"NoteNumber":78,"Velocity":42,"Duration":99009,"SoundDuration":99009,"Delta":22325610},{"NoteNumber":81,"Velocity":49,"Duration":99496,"SoundDuration":99496,"Delta":22424620},{"NoteNumber":79,"Velocity":48,"Duration":100106,"SoundDuration":100106,"Delta":22524117},{"NoteNumber":77,"Velocity":46,"Duration":100784,"SoundDuration":100784,"Delta":22624224},{"NoteNumber":75,"Velocity":45,"Duration":101407,"SoundDuration":101407,"Delta":22725008},{"NoteNumber":74,"Velocity":43,"Duration":102099,"SoundDuration":102099,"Delta":22826415},{"NoteNumber":73,"Velocity":42,"Duration":113938,"SoundDuration":113938,"Delta":22928514},{"NoteNumber":74,"Velocity":46,"Duration":205874,"SoundDuration":205874,"Delta":23042453},{"NoteNumber":58,"Velocity":30,"Duration":205874,"SoundDuration":205874,"Delta":23042453},{"NoteNumber":65,"Velocity":23,"Duration":205874,"SoundDuration":205874,"Delta":23248327},{"NoteNumber":75,"Velocity":49,"Duration":211067,"SoundDuration":211067,"Delta":23454202},{"NoteNumber":60,"Velocity":23,"Duration":211067,"SoundDuration":211067,"Delta":23454202},{"NoteNumber":65,"Velocity":23,"Duration":210852,"SoundDuration":210852,"Delta":23665270},{"NoteNumber":76,"Velocity":50,"Duration":410115,"SoundDuration":410115,"Delta":23876122},{"NoteNumber":62,"Velocity":23,"Duration":205058,"SoundDuration":205058,"Delta":23876122},{"NoteNumber":65,"Velocity":23,"Duration":205057,"SoundDuration":205057,"Delta":24081180},{"NoteNumber":77,"Velocity":50,"Duration":205874,"SoundDuration":205874,"Delta":24286238},{"NoteNumber":58,"Velocity":23,"Duration":205874,"SoundDuration":205874,"Delta":24286238},{"NoteNumber":74,"Velocity":47,"Duration":102937,"SoundDuration":102937,"Delta":24492112},{"NoteNumber":65,"Velocity":25,"Duration":205874,"SoundDuration":205874,"Delta":24492112},{"NoteNumber":74,"Velocity":47,"Duration":51468,"SoundDuration":51468,"Delta":24646518},{"NoteNumber":72,"Velocity":52,"Duration":98658,"SoundDuration":98658,"Delta":24697987},{"NoteNumber":57,"Velocity":30,"Duration":98658,"SoundDuration":98658,"Delta":24697987},{"NoteNumber":71,"Velocity":50,"Duration":104166,"SoundDuration":104166,"Delta":24895303},{"NoteNumber":65,"Velocity":23,"Duration":104166,"SoundDuration":104166,"Delta":24895303},{"NoteNumber":72,"Velocity":52,"Duration":100173,"SoundDuration":100173,"Delta":25103637},{"NoteNumber":58,"Velocity":25,"Duration":100173,"SoundDuration":100173,"Delta":25103637},{"NoteNumber":74,"Velocity":50,"Duration":102529,"SoundDuration":102529,"Delta":25303984},{"NoteNumber":65,"Velocity":25,"Duration":102529,"SoundDuration":102529,"Delta":25303984},{"NoteNumber":77,"Velocity":54,"Duration":410969,"SoundDuration":410969,"Delta":25509042},{"NoteNumber":60,"Velocity":25,"Duration":203472,"SoundDuration":203472,"Delta":25509042},{"NoteNumber":65,"Velocity":25,"Duration":207497,"SoundDuration":207497,"Delta":25712515},{"NoteNumber":75,"Velocity":46,"Duration":203472,"SoundDuration":203472,"Delta":25920012},{"NoteNumber":63,"Velocity":25,"Duration":203472,"SoundDuration":203472,"Delta":25920012},{"NoteNumber":69,"Velocity":46,"Duration":101736,"SoundDuration":101736,"Delta":26123485},{"NoteNumber":65,"Velocity":24,"Duration":203472,"SoundDuration":203472,"Delta":26123485},{"NoteNumber":70,"Velocity":52,"Duration":97187,"SoundDuration":97187,"Delta":26326957},{"NoteNumber":62,"Velocity":31,"Duration":194375,"SoundDuration":194375,"Delta":26326957},{"NoteNumber":70,"Velocity":48,"Duration":412634,"SoundDuration":412634,"Delta":26521333},{"NoteNumber":65,"Velocity":24,"Duration":209161,"SoundDuration":209161,"Delta":26521333},{"NoteNumber":62,"Velocity":31,"Duration":203472,"SoundDuration":203472,"Delta":26730495},{"NoteNumber":71,"Velocity":47,"Duration":203472,"SoundDuration":203472,"Delta":26933967},{"NoteNumber":65,"Velocity":24,"Duration":203472,"SoundDuration":203472,"Delta":26933967},{"NoteNumber":72,"Velocity":51,"Duration":96836,"SoundDuration":96836,"Delta":27137440},{"NoteNumber":57,"Velocity":32,"Duration":193673,"SoundDuration":193673,"Delta":27137440},{"NoteNumber":72,"Velocity":50,"Duration":410539,"SoundDuration":410539,"Delta":27331113},{"NoteNumber":65,"Velocity":26,"Duration":205874,"SoundDuration":205874,"Delta":27331113},{"NoteNumber":57,"Velocity":32,"Duration":204665,"SoundDuration":204665,"Delta":27536988},{"NoteNumber":73,"Velocity":50,"Duration":204262,"SoundDuration":204262,"Delta":27741653},{"NoteNumber":65,"Velocity":27,"Duration":204262,"SoundDuration":204262,"Delta":27741653},{"NoteNumber":74,"Velocity":54,"Duration":97560,"SoundDuration":97560,"Delta":27945916},{"NoteNumber":58,"Velocity":32,"Duration":97560,"SoundDuration":97560,"Delta":27945916},{"NoteNumber":72,"Velocity":50,"Duration":102937,"SoundDuration":102937,"Delta":28141038},{"NoteNumber":57,"Velocity":28,"Duration":102937,"SoundDuration":102937,"Delta":28141038},{"NoteNumber":74,"Velocity":55,"Duration":98658,"SoundDuration":98658,"Delta":28346912},{"NoteNumber":58,"Velocity":28,"Duration":98658,"SoundDuration":98658,"Delta":28346912},{"NoteNumber":72,"Velocity":50,"Duration":105426,"SoundDuration":105426,"Delta":28544229},{"NoteNumber":75,"Velocity":50,"Duration":105426,"SoundDuration":105426,"Delta":28544229},{"NoteNumber":51,"Velocity":28,"Duration":105426,"SoundDuration":105426,"Delta":28544229},{"NoteNumber":70,"Velocity":55,"Duration":402253,"SoundDuration":402253,"Delta":28755081},{"NoteNumber":74,"Velocity":55,"Duration":402253,"SoundDuration":402253,"Delta":28755081},{"NoteNumber":53,"Velocity":32,"Duration":402253,"SoundDuration":402253,"Delta":28755081},{"NoteNumber":69,"Velocity":50,"Duration":150844,"SoundDuration":150844,"Delta":29157334},{"NoteNumber":72,"Velocity":50,"Duration":150844,"SoundDuration":150844,"Delta":29157334},{"NoteNumber":70,"Velocity":47,"Duration":105857,"SoundDuration":105857,"Delta":29358460},{"NoteNumber":72,"Velocity":47,"Duration":105857,"SoundDuration":105857,"Delta":29464318},{"NoteNumber":74,"Velocity":50,"Duration":205874,"SoundDuration":205874,"Delta":29570175},{"NoteNumber":58,"Velocity":30,"Duration":205874,"SoundDuration":205874,"Delta":29570175},{"NoteNumber":65,"Velocity":23,"Duration":205874,"SoundDuration":205874,"Delta":29776050},{"NoteNumber":75,"Velocity":51,"Duration":211067,"SoundDuration":211067,"Delta":29981924},{"NoteNumber":60,"Velocity":23,"Duration":211067,"SoundDuration":211067,"Delta":29981924},{"NoteNumber":65,"Velocity":23,"Duration":210852,"SoundDuration":210852,"Delta":30192992},{"NoteNumber":76,"Velocity":52,"Duration":410116,"SoundDuration":410116,"Delta":30403844},{"NoteNumber":62,"Velocity":23,"Duration":205058,"SoundDuration":205058,"Delta":30403844},{"NoteNumber":65,"Velocity":23,"Duration":205058,"SoundDuration":205058,"Delta":30608902},{"NoteNumber":77,"Velocity":52,"Duration":205874,"SoundDuration":205874,"Delta":30813960},{"NoteNumber":58,"Velocity":23,"Duration":205874,"SoundDuration":205874,"Delta":30813960},{"NoteNumber":74,"Velocity":51,"Duration":102937,"SoundDuration":102937,"Delta":31019834},{"NoteNumber":65,"Velocity":25,"Duration":205874,"SoundDuration":205874,"Delta":31019834},{"NoteNumber":74,"Velocity":52,"Duration":51468,"SoundDuration":51468,"Delta":31174240},{"NoteNumber":72,"Velocity":54,"Duration":98658,"SoundDuration":98658,"Delta":31225709},{"NoteNumber":57,"Velocity":30,"Duration":197316,"SoundDuration":197316,"Delta":31225709},{"NoteNumber":71,"Velocity":50,"Duration":104166,"SoundDuration":104166,"Delta":31423025},{"NoteNumber":65,"Velocity":23,"Duration":208333,"SoundDuration":208333,"Delta":31423025},{"NoteNumber":72,"Velocity":52,"Duration":100173,"SoundDuration":100173,"Delta":31631359},{"NoteNumber":58,"Velocity":25,"Duration":200347,"SoundDuration":200347,"Delta":31631359},{"NoteNumber":74,"Velocity":50,"Duration":102528,"SoundDuration":102528,"Delta":31831706},{"NoteNumber":65,"Velocity":25,"Duration":205058,"SoundDuration":205058,"Delta":31831706},{"NoteNumber":77,"Velocity":54,"Duration":410969,"SoundDuration":410969,"Delta":32036764},{"NoteNumber":60,"Velocity":25,"Duration":203472,"SoundDuration":203472,"Delta":32036764},{"NoteNumber":65,"Velocity":25,"Duration":207497,"SoundDuration":207497,"Delta":32240237},{"NoteNumber":75,"Velocity":46,"Duration":203472,"SoundDuration":203472,"Delta":32447734},{"NoteNumber":63,"Velocity":25,"Duration":203472,"SoundDuration":203472,"Delta":32447734},{"NoteNumber":69,"Velocity":46,"Duration":101736,"SoundDuration":101736,"Delta":32651207},{"NoteNumber":65,"Velocity":24,"Duration":203472,"SoundDuration":203472,"Delta":32651207},{"NoteNumber":70,"Velocity":56,"Duration":97188,"SoundDuration":97188,"Delta":32854679},{"NoteNumber":62,"Velocity":31,"Duration":395502,"SoundDuration":395502,"Delta":32854679},{"NoteNumber":82,"Velocity":50,"Duration":201126,"SoundDuration":201126,"Delta":33049055},{"NoteNumber":82,"Velocity":53,"Duration":100173,"SoundDuration":100173,"Delta":33250182},{"NoteNumber":82,"Velocity":48,"Duration":100173,"SoundDuration":100173,"Delta":33450529},{"NoteNumber":72,"Velocity":56,"Duration":96836,"SoundDuration":96836,"Delta":33650877},{"NoteNumber":67,"Velocity":32,"Duration":397145,"SoundDuration":397145,"Delta":33650877},{"NoteNumber":63,"Velocity":27,"Duration":397145,"SoundDuration":397145,"Delta":33650877},{"NoteNumber":79,"Velocity":50,"Duration":203472,"SoundDuration":203472,"Delta":33844550},{"NoteNumber":79,"Velocity":53,"Duration":101933,"SoundDuration":101933,"Delta":34048023},{"NoteNumber":79,"Velocity":50,"Duration":102131,"SoundDuration":102131,"Delta":34252088},{"NoteNumber":70,"Velocity":54,"Duration":97560,"SoundDuration":97560,"Delta":34456350},{"NoteNumber":53,"Velocity":21,"Duration":796552,"SoundDuration":796552,"Delta":34456350},{"NoteNumber":62,"Velocity":30,"Duration":395469,"SoundDuration":395469,"Delta":34456350},{"NoteNumber":70,"Velocity":50,"Duration":100173,"SoundDuration":100173,"Delta":34651472},{"NoteNumber":72,"Velocity":50,"Duration":48780,"SoundDuration":48780,"Delta":34851820},{"NoteNumber":63,"Velocity":28,"Duration":401083,"SoundDuration":401083,"Delta":34851820},{"NoteNumber":74,"Velocity":45,"Duration":48780,"SoundDuration":48780,"Delta":34900600},{"NoteNumber":72,"Velocity":45,"Duration":48780,"SoundDuration":48780,"Delta":34949381},{"NoteNumber":70,"Velocity":45,"Duration":48780,"SoundDuration":48780,"Delta":34998161},{"NoteNumber":72,"Velocity":50,"Duration":100948,"SoundDuration":100948,"Delta":35046942},{"NoteNumber":74,"Velocity":45,"Duration":105012,"SoundDuration":105012,"Delta":35147891},{"NoteNumber":70,"Velocity":55,"Duration":402253,"SoundDuration":402253,"Delta":35252903},{"NoteNumber":58,"Velocity":28,"Duration":402253,"SoundDuration":402253,"Delta":35252903},{"NoteNumber":62,"Velocity":32,"Duration":402253,"SoundDuration":402253,"Delta":35252903},{"NoteNumber":65,"Velocity":60,"Duration":105857,"SoundDuration":105857,"Delta":35856283},{"NoteNumber":65,"Velocity":55,"Duration":98489,"SoundDuration":98489,"Delta":36067998},{"NoteNumber":74,"Velocity":66,"Duration":98489,"SoundDuration":98489,"Delta":36067998},{"NoteNumber":46,"Velocity":59,"Duration":98489,"SoundDuration":98489,"Delta":36067998},{"NoteNumber":65,"Velocity":54,"Duration":416504,"SoundDuration":416504,"Delta":36264977},{"NoteNumber":74,"Velocity":64,"Duration":416504,"SoundDuration":416504,"Delta":36264977},{"NoteNumber":58,"Velocity":54,"Duration":154077,"SoundDuration":154077,"Delta":36264977},{"NoteNumber":58,"Velocity":54,"Duration":158354,"SoundDuration":158354,"Delta":36470414},{"NoteNumber":62,"Velocity":49,"Duration":158138,"SoundDuration":158138,"Delta":36681482},{"NoteNumber":70,"Velocity":59,"Duration":158138,"SoundDuration":158138,"Delta":36681482},{"NoteNumber":58,"Velocity":54,"Duration":158138,"SoundDuration":158138,"Delta":36681482},{"NoteNumber":67,"Velocity":55,"Duration":98489,"SoundDuration":98489,"Delta":36892334},{"NoteNumber":75,"Velocity":66,"Duration":98489,"SoundDuration":98489,"Delta":36892334},{"NoteNumber":46,"Velocity":59,"Duration":98489,"SoundDuration":98489,"Delta":36892334},{"NoteNumber":67,"Velocity":54,"Duration":416504,"SoundDuration":416504,"Delta":37089314},{"NoteNumber":75,"Velocity":64,"Duration":416504,"SoundDuration":416504,"Delta":37089314},{"NoteNumber":58,"Velocity":54,"Duration":154077,"SoundDuration":154077,"Delta":37089314},{"NoteNumber":58,"Velocity":54,"Duration":158354,"SoundDuration":158354,"Delta":37294751},{"NoteNumber":63,"Velocity":49,"Duration":158138,"SoundDuration":158138,"Delta":37505818},{"NoteNumber":72,"Velocity":59,"Duration":158138,"SoundDuration":158138,"Delta":37505818},{"NoteNumber":58,"Velocity":54,"Duration":158138,"SoundDuration":158138,"Delta":37505818},{"NoteNumber":67,"Velocity":63,"Duration":199720,"SoundDuration":199720,"Delta":37716670},{"NoteNumber":58,"Velocity":57,"Duration":803809,"SoundDuration":803809,"Delta":37716670},{"NoteNumber":63,"Velocity":57,"Duration":402259,"SoundDuration":402259,"Delta":37716670},{"NoteNumber":70,"Velocity":59,"Duration":202538,"SoundDuration":202538,"Delta":37916391},{"NoteNumber":69,"Velocity":65,"Duration":199720,"SoundDuration":199720,"Delta":38118929},{"NoteNumber":60,"Velocity":52,"Duration":401550,"SoundDuration":401550,"Delta":38118929},{"NoteNumber":72,"Velocity":59,"Duration":201830,"SoundDuration":201830,"Delta":38318650},{"NoteNumber":70,"Velocity":63,"Duration":98827,"SoundDuration":98827,"Delta":38520480},{"NoteNumber":62,"Velocity":52,"Duration":400691,"SoundDuration":400691,"Delta":38520480},{"NoteNumber":58,"Velocity":52,"Duration":400691,"SoundDuration":400691,"Delta":38520480},{"NoteNumber":69,"Velocity":59,"Duration":98827,"SoundDuration":98827,"Delta":38619307},{"NoteNumber":70,"Velocity":57,"Duration":98827,"SoundDuration":98827,"Delta":38718134},{"NoteNumber":72,"Velocity":57,"Duration":104210,"SoundDuration":104210,"Delta":38816962},{"NoteNumber":70,"Velocity":64,"Duration":100915,"SoundDuration":100915,"Delta":38921172},{"NoteNumber":70,"Velocity":59,"Duration":100915,"SoundDuration":100915,"Delta":39123002},{"NoteNumber":74,"Velocity":55,"Duration":98489,"SoundDuration":98489,"Delta":39324832},{"NoteNumber":77,"Velocity":66,"Duration":98489,"SoundDuration":98489,"Delta":39324832},{"NoteNumber":46,"Velocity":59,"Duration":98489,"SoundDuration":98489,"Delta":39324832},{"NoteNumber":74,"Velocity":54,"Duration":416504,"SoundDuration":416504,"Delta":39521811},{"NoteNumber":77,"Velocity":64,"Duration":416504,"SoundDuration":416504,"Delta":39521811},{"NoteNumber":58,"Velocity":54,"Duration":154077,"SoundDuration":154077,"Delta":39521811},{"NoteNumber":58,"Velocity":54,"Duration":158354,"SoundDuration":158354,"Delta":39727248},{"NoteNumber":70,"Velocity":49,"Duration":158138,"SoundDuration":158138,"Delta":39938316},{"NoteNumber":74,"Velocity":59,"Duration":158138,"SoundDuration":158138,"Delta":39938316},{"NoteNumber":58,"Velocity":54,"Duration":158138,"SoundDuration":158138,"Delta":39938316},{"NoteNumber":75,"Velocity":55,"Duration":98489,"SoundDuration":98489,"Delta":40149168},{"NoteNumber":79,"Velocity":66,"Duration":98489,"SoundDuration":98489,"Delta":40149168},{"NoteNumber":46,"Velocity":59,"Duration":98489,"SoundDuration":98489,"Delta":40149168},{"NoteNumber":75,"Velocity":54,"Duration":416504,"SoundDuration":416504,"Delta":40346147},{"NoteNumber":79,"Velocity":64,"Duration":416504,"SoundDuration":416504,"Delta":40346147},{"NoteNumber":58,"Velocity":54,"Duration":154077,"SoundDuration":154077,"Delta":40346147},{"NoteNumber":58,"Velocity":54,"Duration":158354,"SoundDuration":158354,"Delta":40551584},{"NoteNumber":72,"Velocity":49,"Duration":158138,"SoundDuration":158138,"Delta":40762652},{"NoteNumber":75,"Velocity":59,"Duration":158138,"SoundDuration":158138,"Delta":40762652},{"NoteNumber":58,"Velocity":54,"Duration":158138,"SoundDuration":158138,"Delta":40762652},{"NoteNumber":70,"Velocity":63,"Duration":199720,"SoundDuration":199720,"Delta":40973504},{"NoteNumber":58,"Velocity":57,"Duration":803809,"SoundDuration":803809,"Delta":40973504},{"NoteNumber":67,"Velocity":57,"Duration":402259,"SoundDuration":402259,"Delta":40973504},{"NoteNumber":74,"Velocity":59,"Duration":202538,"SoundDuration":202538,"Delta":41173225},{"NoteNumber":72,"Velocity":63,"Duration":199720,"SoundDuration":199720,"Delta":41375763},{"NoteNumber":69,"Velocity":52,"Duration":401550,"SoundDuration":401550,"Delta":41375763},{"NoteNumber":75,"Velocity":59,"Duration":201830,"SoundDuration":201830,"Delta":41575484},{"NoteNumber":74,"Velocity":63,"Duration":98827,"SoundDuration":98827,"Delta":41777314},{"NoteNumber":70,"Velocity":52,"Duration":400691,"SoundDuration":400691,"Delta":41777314},{"NoteNumber":58,"Velocity":52,"Duration":400691,"SoundDuration":400691,"Delta":41777314},{"NoteNumber":72,"Velocity":59,"Duration":98827,"SoundDuration":98827,"Delta":41876141},{"NoteNumber":74,"Velocity":59,"Duration":98827,"SoundDuration":98827,"Delta":41974968},{"NoteNumber":75,"Velocity":59,"Duration":104210,"SoundDuration":104210,"Delta":42073795},{"NoteNumber":74,"Velocity":66,"Duration":106360,"SoundDuration":106360,"Delta":42178005},{"NoteNumber":74,"Velocity":46,"Duration":100650,"SoundDuration":100650,"Delta":42390726},{"NoteNumber":86,"Velocity":53,"Duration":100650,"SoundDuration":100650,"Delta":42592028},{"NoteNumber":66,"Velocity":36,"Duration":201301,"SoundDuration":201301,"Delta":42592028},{"NoteNumber":86,"Velocity":46,"Duration":201302,"SoundDuration":201302,"Delta":42793330},{"NoteNumber":69,"Velocity":30,"Duration":201302,"SoundDuration":201302,"Delta":42793330},{"NoteNumber":82,"Velocity":50,"Duration":201301,"SoundDuration":201301,"Delta":42994632},{"NoteNumber":67,"Velocity":30,"Duration":201301,"SoundDuration":201301,"Delta":42994632},{"NoteNumber":79,"Velocity":46,"Duration":209951,"SoundDuration":209951,"Delta":43195934},{"NoteNumber":70,"Velocity":30,"Duration":209951,"SoundDuration":209951,"Delta":43195934},{"NoteNumber":78,"Velocity":51,"Duration":402253,"SoundDuration":402253,"Delta":43405885},{"NoteNumber":69,"Velocity":36,"Duration":201126,"SoundDuration":201126,"Delta":43405885},{"NoteNumber":72,"Velocity":32,"Duration":201126,"SoundDuration":201126,"Delta":43607012},{"NoteNumber":79,"Velocity":46,"Duration":201126,"SoundDuration":201126,"Delta":43808138},{"NoteNumber":70,"Velocity":32,"Duration":201126,"SoundDuration":201126,"Delta":43808138},{"NoteNumber":86,"Velocity":50,"Duration":103462,"SoundDuration":103462,"Delta":44009265},{"NoteNumber":74,"Velocity":32,"Duration":206924,"SoundDuration":206924,"Delta":44009265},{"NoteNumber":83,"Velocity":51,"Duration":108709,"SoundDuration":108709,"Delta":44216190},{"NoteNumber":64,"Velocity":36,"Duration":197654,"SoundDuration":197654,"Delta":44216190},{"NoteNumber":84,"Velocity":46,"Duration":108709,"SoundDuration":108709,"Delta":44315017},{"NoteNumber":86,"Velocity":46,"Duration":108709,"SoundDuration":108709,"Delta":44413844},{"NoteNumber":67,"Velocity":32,"Duration":197654,"SoundDuration":197654,"Delta":44413844},{"NoteNumber":84,"Velocity":48,"Duration":108709,"SoundDuration":108709,"Delta":44512672},{"NoteNumber":82,"Velocity":47,"Duration":108709,"SoundDuration":108709,"Delta":44611499},{"NoteNumber":65,"Velocity":32,"Duration":197654,"SoundDuration":197654,"Delta":44611499},{"NoteNumber":81,"Velocity":45,"Duration":108709,"SoundDuration":108709,"Delta":44710326},{"NoteNumber":79,"Velocity":44,"Duration":109173,"SoundDuration":109173,"Delta":44809153},{"NoteNumber":69,"Velocity":32,"Duration":202289,"SoundDuration":202289,"Delta":44809153},{"NoteNumber":77,"Velocity":42,"Duration":113311,"SoundDuration":113311,"Delta":44907981},{"NoteNumber":76,"Velocity":49,"Duration":393959,"SoundDuration":393959,"Delta":45011443},{"NoteNumber":67,"Velocity":36,"Duration":196979,"SoundDuration":196979,"Delta":45011443},{"NoteNumber":70,"Velocity":31,"Duration":196979,"SoundDuration":196979,"Delta":45208423},{"NoteNumber":77,"Velocity":46,"Duration":196979,"SoundDuration":196979,"Delta":45405402},{"NoteNumber":69,"Velocity":31,"Duration":196979,"SoundDuration":196979,"Delta":45405402},{"NoteNumber":84,"Velocity":49,"Duration":101626,"SoundDuration":101626,"Delta":45602382},{"NoteNumber":72,"Velocity":31,"Duration":203061,"SoundDuration":203061,"Delta":45602382},{"NoteNumber":89,"Velocity":55,"Duration":107664,"SoundDuration":107664,"Delta":45805444},{"NoteNumber":57,"Velocity":36,"Duration":393546,"SoundDuration":393546,"Delta":45805444},{"NoteNumber":65,"Velocity":36,"Duration":393546,"SoundDuration":393546,"Delta":45805444},{"NoteNumber":88,"Velocity":54,"Duration":108045,"SoundDuration":108045,"Delta":45903293},{"NoteNumber":86,"Velocity":53,"Duration":108428,"SoundDuration":108428,"Delta":46001490},{"NoteNumber":84,"Velocity":52,"Duration":108871,"SoundDuration":108871,"Delta":46100036},{"NoteNumber":82,"Velocity":51,"Duration":120045,"SoundDuration":120045,"Delta":46198990},{"NoteNumber":81,"Velocity":50,"Duration":120474,"SoundDuration":120474,"Delta":46298303},{"NoteNumber":79,"Velocity":49,"Duration":120962,"SoundDuration":120962,"Delta":46397974},{"NoteNumber":77,"Velocity":48,"Duration":100104,"SoundDuration":100104,"Delta":46498060},{"NoteNumber":86,"Velocity":53,"Duration":108031,"SoundDuration":108031,"Delta":46598164},{"NoteNumber":58,"Velocity":36,"Duration":394953,"SoundDuration":394953,"Delta":46598164},{"NoteNumber":67,"Velocity":36,"Duration":394953,"SoundDuration":394953,"Delta":46598164},{"NoteNumber":65,"Velocity":36,"Duration":394953,"SoundDuration":394953,"Delta":46598164},{"NoteNumber":84,"Velocity":52,"Duration":108414,"SoundDuration":108414,"Delta":46696347},{"NoteNumber":82,"Velocity":50,"Duration":108857,"SoundDuration":108857,"Delta":46794879},{"NoteNumber":81,"Velocity":49,"Duration":109250,"SoundDuration":109250,"Delta":46893818},{"NoteNumber":79,"Velocity":48,"Duration":120460,"SoundDuration":120460,"Delta":46993117},{"NoteNumber":77,"Velocity":47,"Duration":120947,"SoundDuration":120947,"Delta":47092774},{"NoteNumber":76,"Velocity":45,"Duration":121409,"SoundDuration":121409,"Delta":47192845},{"NoteNumber":74,"Velocity":44,"Duration":100724,"SoundDuration":100724,"Delta":47293283},{"NoteNumber":72,"Velocity":50,"Duration":101269,"SoundDuration":101269,"Delta":47394008},{"NoteNumber":60,"Velocity":36,"Duration":863064,"SoundDuration":863064,"Delta":47394008},{"NoteNumber":69,"Velocity":36,"Duration":405076,"SoundDuration":405076,"Delta":47394008},{"NoteNumber":77,"Velocity":46,"Duration":101269,"SoundDuration":101269,"Delta":47495277},{"NoteNumber":81,"Velocity":46,"Duration":101269,"SoundDuration":101269,"Delta":47596546},{"NoteNumber":84,"Velocity":46,"Duration":75951,"SoundDuration":75951,"Delta":47697815},{"NoteNumber":84,"Velocity":50,"Duration":115473,"SoundDuration":115473,"Delta":47799085},{"NoteNumber":70,"Velocity":31,"Duration":457988,"SoundDuration":457988,"Delta":47799085},{"NoteNumber":82,"Velocity":44,"Duration":117377,"SoundDuration":117377,"Delta":47904060},{"NoteNumber":81,"Velocity":44,"Duration":136420,"SoundDuration":136420,"Delta":48009036},{"NoteNumber":79,"Velocity":44,"Duration":93013,"SoundDuration":93013,"Delta":48133054},{"NoteNumber":79,"Velocity":47,"Duration":458435,"SoundDuration":458435,"Delta":48257073},{"NoteNumber":65,"Velocity":36,"Duration":686968,"SoundDuration":686968,"Delta":48257073},{"NoteNumber":70,"Velocity":36,"Duration":458435,"SoundDuration":458435,"Delta":48257073},{"NoteNumber":77,"Velocity":40,"Duration":175795,"SoundDuration":175795,"Delta":48715508},{"NoteNumber":69,"Velocity":33,"Duration":175795,"SoundDuration":175795,"Delta":48715508},{"NoteNumber":65,"Velocity":60,"Duration":105857,"SoundDuration":105857,"Delta":48949901},{"NoteNumber":65,"Velocity":55,"Duration":98489,"SoundDuration":98489,"Delta":49161616},{"NoteNumber":74,"Velocity":66,"Duration":98489,"SoundDuration":98489,"Delta":49161616},{"NoteNumber":46,"Velocity":59,"Duration":98489,"SoundDuration":98489,"Delta":49161616},{"NoteNumber":65,"Velocity":54,"Duration":416504,"SoundDuration":416504,"Delta":49358596},{"NoteNumber":74,"Velocity":64,"Duration":416504,"SoundDuration":416504,"Delta":49358596},{"NoteNumber":58,"Velocity":54,"Duration":154077,"SoundDuration":154077,"Delta":49358596},{"NoteNumber":58,"Velocity":54,"Duration":158354,"SoundDuration":158354,"Delta":49564033},{"NoteNumber":62,"Velocity":49,"Duration":158138,"SoundDuration":158138,"Delta":49775100},{"NoteNumber":70,"Velocity":59,"Duration":158138,"SoundDuration":158138,"Delta":49775100},{"NoteNumber":58,"Velocity":54,"Duration":158138,"SoundDuration":158138,"Delta":49775100},{"NoteNumber":67,"Velocity":55,"Duration":98489,"SoundDuration":98489,"Delta":49985952},{"NoteNumber":75,"Velocity":66,"Duration":98489,"SoundDuration":98489,"Delta":49985952},{"NoteNumber":46,"Velocity":59,"Duration":98489,"SoundDuration":98489,"Delta":49985952},{"NoteNumber":67,"Velocity":54,"Duration":416504,"SoundDuration":416504,"Delta":50182932},{"NoteNumber":75,"Velocity":64,"Duration":416504,"SoundDuration":416504,"Delta":50182932},{"NoteNumber":58,"Velocity":54,"Duration":154077,"SoundDuration":154077,"Delta":50182932},{"NoteNumber":58,"Velocity":54,"Duration":158354,"SoundDuration":158354,"Delta":50388369},{"NoteNumber":63,"Velocity":49,"Duration":158138,"SoundDuration":158138,"Delta":50599437},{"NoteNumber":72,"Velocity":59,"Duration":158138,"SoundDuration":158138,"Delta":50599437},{"NoteNumber":58,"Velocity":54,"Duration":158138,"SoundDuration":158138,"Delta":50599437},{"NoteNumber":67,"Velocity":63,"Duration":199720,"SoundDuration":199720,"Delta":50810289},{"NoteNumber":58,"Velocity":57,"Duration":803809,"SoundDuration":803809,"Delta":50810289},{"NoteNumber":63,"Velocity":57,"Duration":402259,"SoundDuration":402259,"Delta":50810289},{"NoteNumber":70,"Velocity":59,"Duration":202538,"SoundDuration":202538,"Delta":51010009},{"NoteNumber":69,"Velocity":65,"Duration":199720,"SoundDuration":199720,"Delta":51212548},{"NoteNumber":60,"Velocity":52,"Duration":401550,"SoundDuration":401550,"Delta":51212548},{"NoteNumber":72,"Velocity":59,"Duration":201830,"SoundDuration":201830,"Delta":51412268},{"NoteNumber":70,"Velocity":63,"Duration":98827,"SoundDuration":98827,"Delta":51614098},{"NoteNumber":62,"Velocity":52,"Duration":404372,"SoundDuration":404372,"Delta":51614098},{"NoteNumber":58,"Velocity":52,"Duration":404372,"SoundDuration":404372,"Delta":51614098},{"NoteNumber":69,"Velocity":59,"Duration":98827,"SoundDuration":98827,"Delta":51712925},{"NoteNumber":70,"Velocity":57,"Duration":98827,"SoundDuration":98827,"Delta":51811753},{"NoteNumber":72,"Velocity":57,"Duration":107890,"SoundDuration":107890,"Delta":51910580},{"NoteNumber":70,"Velocity":64,"Duration":107503,"SoundDuration":107503,"Delta":52018470},{"NoteNumber":70,"Velocity":59,"Duration":100650,"SoundDuration":100650,"Delta":52226625},{"NoteNumber":74,"Velocity":55,"Duration":98489,"SoundDuration":98489,"Delta":52427927},{"NoteNumber":77,"Velocity":66,"Duration":98489,"SoundDuration":98489,"Delta":52427927},{"NoteNumber":46,"Velocity":59,"Duration":98489,"SoundDuration":98489,"Delta":52427927},{"NoteNumber":74,"Velocity":54,"Duration":416504,"SoundDuration":416504,"Delta":52624907},{"NoteNumber":77,"Velocity":64,"Duration":416504,"SoundDuration":416504,"Delta":52624907},{"NoteNumber":58,"Velocity":54,"Duration":154077,"SoundDuration":154077,"Delta":52624907},{"NoteNumber":58,"Velocity":54,"Duration":158354,"SoundDuration":158354,"Delta":52830344},{"NoteNumber":70,"Velocity":49,"Duration":158138,"SoundDuration":158138,"Delta":53041411},{"NoteNumber":74,"Velocity":59,"Duration":158138,"SoundDuration":158138,"Delta":53041411},{"NoteNumber":58,"Velocity":54,"Duration":158138,"SoundDuration":158138,"Delta":53041411},{"NoteNumber":75,"Velocity":55,"Duration":98489,"SoundDuration":98489,"Delta":53252263},{"NoteNumber":79,"Velocity":66,"Duration":98489,"SoundDuration":98489,"Delta":53252263},{"NoteNumber":46,"Velocity":59,"Duration":98489,"SoundDuration":98489,"Delta":53252263},{"NoteNumber":75,"Velocity":54,"Duration":416504,"SoundDuration":416504,"Delta":53449243},{"NoteNumber":79,"Velocity":64,"Duration":416504,"SoundDuration":416504,"Delta":53449243},{"NoteNumber":58,"Velocity":54,"Duration":154077,"SoundDuration":154077,"Delta":53449243},{"NoteNumber":58,"Velocity":54,"Duration":158354,"SoundDuration":158354,"Delta":53654680},{"NoteNumber":72,"Velocity":49,"Duration":158138,"SoundDuration":158138,"Delta":53865748},{"NoteNumber":75,"Velocity":59,"Duration":158138,"SoundDuration":158138,"Delta":53865748},{"NoteNumber":58,"Velocity":54,"Duration":158138,"SoundDuration":158138,"Delta":53865748},{"NoteNumber":70,"Velocity":63,"Duration":199720,"SoundDuration":199720,"Delta":54076600},{"NoteNumber":58,"Velocity":57,"Duration":803809,"SoundDuration":803809,"Delta":54076600},{"NoteNumber":67,"Velocity":57,"Duration":402259,"SoundDuration":402259,"Delta":54076600},{"NoteNumber":74,"Velocity":59,"Duration":202538,"SoundDuration":202538,"Delta":54276320},{"NoteNumber":72,"Velocity":63,"Duration":199720,"SoundDuration":199720,"Delta":54478859},{"NoteNumber":69,"Velocity":52,"Duration":401550,"SoundDuration":401550,"Delta":54478859},{"NoteNumber":75,"Velocity":59,"Duration":201830,"SoundDuration":201830,"Delta":54678579},{"NoteNumber":74,"Velocity":63,"Duration":98827,"SoundDuration":98827,"Delta":54880409},{"NoteNumber":70,"Velocity":52,"Duration":400691,"SoundDuration":400691,"Delta":54880409},{"NoteNumber":58,"Velocity":52,"Duration":400691,"SoundDuration":400691,"Delta":54880409},{"NoteNumber":72,"Velocity":59,"Duration":98827,"SoundDuration":98827,"Delta":54979236},{"NoteNumber":74,"Velocity":59,"Duration":98827,"SoundDuration":98827,"Delta":55078064},{"NoteNumber":75,"Velocity":59,"Duration":104210,"SoundDuration":104210,"Delta":55176891},{"NoteNumber":74,"Velocity":66,"Duration":100915,"SoundDuration":100915,"Delta":55281101},{"NoteNumber":74,"Velocity":46,"Duration":100915,"SoundDuration":100915,"Delta":55482931},{"NoteNumber":86,"Velocity":53,"Duration":100915,"SoundDuration":100915,"Delta":55684761},{"NoteNumber":66,"Velocity":36,"Duration":201830,"SoundDuration":201830,"Delta":55684761},{"NoteNumber":86,"Velocity":46,"Duration":201829,"SoundDuration":201829,"Delta":55886591},{"NoteNumber":69,"Velocity":30,"Duration":201829,"SoundDuration":201829,"Delta":55886591},{"NoteNumber":82,"Velocity":50,"Duration":201830,"SoundDuration":201830,"Delta":56088421},{"NoteNumber":67,"Velocity":30,"Duration":201830,"SoundDuration":201830,"Delta":56088421},{"NoteNumber":79,"Velocity":46,"Duration":209951,"SoundDuration":209951,"Delta":56290251},{"NoteNumber":70,"Velocity":30,"Duration":209951,"SoundDuration":209951,"Delta":56290251},{"NoteNumber":78,"Velocity":51,"Duration":402253,"SoundDuration":402253,"Delta":56500202},{"NoteNumber":69,"Velocity":36,"Duration":201126,"SoundDuration":201126,"Delta":56500202},{"NoteNumber":72,"Velocity":32,"Duration":201126,"SoundDuration":201126,"Delta":56701329},{"NoteNumber":79,"Velocity":46,"Duration":201126,"SoundDuration":201126,"Delta":56902455},{"NoteNumber":70,"Velocity":32,"Duration":201126,"SoundDuration":201126,"Delta":56902455},{"NoteNumber":86,"Velocity":50,"Duration":103462,"SoundDuration":103462,"Delta":57103582},{"NoteNumber":74,"Velocity":32,"Duration":206924,"SoundDuration":206924,"Delta":57103582},{"NoteNumber":83,"Velocity":51,"Duration":108709,"SoundDuration":108709,"Delta":57310507},{"NoteNumber":64,"Velocity":36,"Duration":197654,"SoundDuration":197654,"Delta":57310507},{"NoteNumber":84,"Velocity":46,"Duration":108709,"SoundDuration":108709,"Delta":57409334},{"NoteNumber":86,"Velocity":46,"Duration":108709,"SoundDuration":108709,"Delta":57508161},{"NoteNumber":67,"Velocity":32,"Duration":197654,"SoundDuration":197654,"Delta":57508161},{"NoteNumber":84,"Velocity":48,"Duration":108709,"SoundDuration":108709,"Delta":57606989},{"NoteNumber":82,"Velocity":47,"Duration":108709,"SoundDuration":108709,"Delta":57705816},{"NoteNumber":65,"Velocity":32,"Duration":197654,"SoundDuration":197654,"Delta":57705816},{"NoteNumber":81,"Velocity":45,"Duration":108709,"SoundDuration":108709,"Delta":57804643},{"NoteNumber":79,"Velocity":44,"Duration":109173,"SoundDuration":109173,"Delta":57903470},{"NoteNumber":69,"Velocity":32,"Duration":202289,"SoundDuration":202289,"Delta":57903470},{"NoteNumber":77,"Velocity":42,"Duration":113311,"SoundDuration":113311,"Delta":58002298},{"NoteNumber":76,"Velocity":49,"Duration":393959,"SoundDuration":393959,"Delta":58105760},{"NoteNumber":67,"Velocity":36,"Duration":196979,"SoundDuration":196979,"Delta":58105760},{"NoteNumber":70,"Velocity":31,"Duration":196979,"SoundDuration":196979,"Delta":58302740},{"NoteNumber":77,"Velocity":46,"Duration":196979,"SoundDuration":196979,"Delta":58499719},{"NoteNumber":69,"Velocity":31,"Duration":196979,"SoundDuration":196979,"Delta":58499719},{"NoteNumber":84,"Velocity":49,"Duration":101626,"SoundDuration":101626,"Delta":58696699},{"NoteNumber":72,"Velocity":31,"Duration":203061,"SoundDuration":203061,"Delta":58696699},{"NoteNumber":89,"Velocity":55,"Duration":107664,"SoundDuration":107664,"Delta":58899760},{"NoteNumber":57,"Velocity":36,"Duration":393546,"SoundDuration":393546,"Delta":58899760},{"NoteNumber":65,"Velocity":36,"Duration":393546,"SoundDuration":393546,"Delta":58899760},{"NoteNumber":88,"Velocity":54,"Duration":108045,"SoundDuration":108045,"Delta":58997610},{"NoteNumber":86,"Velocity":53,"Duration":108428,"SoundDuration":108428,"Delta":59095807},{"NoteNumber":84,"Velocity":52,"Duration":108871,"SoundDuration":108871,"Delta":59194353},{"NoteNumber":82,"Velocity":51,"Duration":120045,"SoundDuration":120045,"Delta":59293307},{"NoteNumber":81,"Velocity":50,"Duration":120474,"SoundDuration":120474,"Delta":59392620},{"NoteNumber":79,"Velocity":49,"Duration":120962,"SoundDuration":120962,"Delta":59492291},{"NoteNumber":77,"Velocity":48,"Duration":100104,"SoundDuration":100104,"Delta":59592376},{"NoteNumber":86,"Velocity":53,"Duration":108031,"SoundDuration":108031,"Delta":59692481},{"NoteNumber":58,"Velocity":36,"Duration":394953,"SoundDuration":394953,"Delta":59692481},{"NoteNumber":67,"Velocity":36,"Duration":394953,"SoundDuration":394953,"Delta":59692481},{"NoteNumber":65,"Velocity":36,"Duration":394953,"SoundDuration":394953,"Delta":59692481},{"NoteNumber":84,"Velocity":52,"Duration":108414,"SoundDuration":108414,"Delta":59790664},{"NoteNumber":82,"Velocity":50,"Duration":108857,"SoundDuration":108857,"Delta":59889195},{"NoteNumber":81,"Velocity":49,"Duration":109250,"SoundDuration":109250,"Delta":59988135},{"NoteNumber":79,"Velocity":48,"Duration":120460,"SoundDuration":120460,"Delta":60087434},{"NoteNumber":77,"Velocity":47,"Duration":120947,"SoundDuration":120947,"Delta":60187091},{"NoteNumber":76,"Velocity":45,"Duration":121409,"SoundDuration":121409,"Delta":60287162},{"NoteNumber":74,"Velocity":44,"Duration":100724,"SoundDuration":100724,"Delta":60387600},{"NoteNumber":72,"Velocity":50,"Duration":101269,"SoundDuration":101269,"Delta":60488325},{"NoteNumber":60,"Velocity":36,"Duration":863064,"SoundDuration":863064,"Delta":60488325},{"NoteNumber":69,"Velocity":36,"Duration":405076,"SoundDuration":405076,"Delta":60488325},{"NoteNumber":77,"Velocity":46,"Duration":101269,"SoundDuration":101269,"Delta":60589594},{"NoteNumber":81,"Velocity":46,"Duration":101269,"SoundDuration":101269,"Delta":60690863},{"NoteNumber":84,"Velocity":46,"Duration":75951,"SoundDuration":75951,"Delta":60792132},{"NoteNumber":84,"Velocity":50,"Duration":115473,"SoundDuration":115473,"Delta":60893402},{"NoteNumber":70,"Velocity":31,"Duration":457988,"SoundDuration":457988,"Delta":60893402},{"NoteNumber":82,"Velocity":44,"Duration":117377,"SoundDuration":117377,"Delta":60998377},{"NoteNumber":81,"Velocity":44,"Duration":136420,"SoundDuration":136420,"Delta":61103353},{"NoteNumber":79,"Velocity":44,"Duration":93013,"SoundDuration":93013,"Delta":61227371},{"NoteNumber":79,"Velocity":47,"Duration":458435,"SoundDuration":458435,"Delta":61351390},{"NoteNumber":65,"Velocity":36,"Duration":696676,"SoundDuration":696676,"Delta":61351390},{"NoteNumber":70,"Velocity":36,"Duration":458435,"SoundDuration":458435,"Delta":61351390},{"NoteNumber":77,"Velocity":40,"Duration":184049,"SoundDuration":184049,"Delta":61809825},{"NoteNumber":69,"Velocity":33,"Duration":184049,"SoundDuration":184049,"Delta":61809825},{"NoteNumber":65,"Velocity":60,"Duration":105857,"SoundDuration":105857,"Delta":62055224},{"NoteNumber":74,"Velocity":55,"Duration":98489,"SoundDuration":98489,"Delta":62266939},{"NoteNumber":77,"Velocity":66,"Duration":98489,"SoundDuration":98489,"Delta":62266939},{"NoteNumber":38,"Velocity":59,"Duration":98489,"SoundDuration":98489,"Delta":62266939},{"NoteNumber":74,"Velocity":54,"Duration":416504,"SoundDuration":416504,"Delta":62463918},{"NoteNumber":77,"Velocity":64,"Duration":416504,"SoundDuration":416504,"Delta":62463918},{"NoteNumber":50,"Velocity":54,"Duration":154077,"SoundDuration":154077,"Delta":62463918},{"NoteNumber":50,"Velocity":54,"Duration":158354,"SoundDuration":158354,"Delta":62669355},{"NoteNumber":77,"Velocity":49,"Duration":158138,"SoundDuration":158138,"Delta":62880423},{"NoteNumber":80,"Velocity":59,"Duration":158138,"SoundDuration":158138,"Delta":62880423},{"NoteNumber":50,"Velocity":54,"Duration":158138,"SoundDuration":158138,"Delta":62880423},{"NoteNumber":71,"Velocity":55,"Duration":98489,"SoundDuration":98489,"Delta":63091275},{"NoteNumber":74,"Velocity":66,"Duration":98489,"SoundDuration":98489,"Delta":63091275},{"NoteNumber":43,"Velocity":59,"Duration":98489,"SoundDuration":98489,"Delta":63091275},{"NoteNumber":71,"Velocity":54,"Duration":416504,"SoundDuration":416504,"Delta":63288254},{"NoteNumber":74,"Velocity":64,"Duration":416504,"SoundDuration":416504,"Delta":63288254},{"NoteNumber":55,"Velocity":54,"Duration":154077,"SoundDuration":154077,"Delta":63288254},{"NoteNumber":55,"Velocity":54,"Duration":158354,"SoundDuration":158354,"Delta":63493691},{"NoteNumber":74,"Velocity":49,"Duration":158138,"SoundDuration":158138,"Delta":63704759},{"NoteNumber":77,"Velocity":59,"Duration":158138,"SoundDuration":158138,"Delta":63704759},{"NoteNumber":55,"Velocity":54,"Duration":158138,"SoundDuration":158138,"Delta":63704759},{"NoteNumber":72,"Velocity":55,"Duration":98489,"SoundDuration":98489,"Delta":63915611},{"NoteNumber":75,"Velocity":66,"Duration":98489,"SoundDuration":98489,"Delta":63915611},{"NoteNumber":36,"Velocity":59,"Duration":98489,"SoundDuration":98489,"Delta":63915611},{"NoteNumber":72,"Velocity":54,"Duration":416504,"SoundDuration":416504,"Delta":64112591},{"NoteNumber":75,"Velocity":64,"Duration":416504,"SoundDuration":416504,"Delta":64112591},{"NoteNumber":48,"Velocity":54,"Duration":154077,"SoundDuration":154077,"Delta":64112591},{"NoteNumber":48,"Velocity":54,"Duration":158354,"SoundDuration":158354,"Delta":64318028},{"NoteNumber":75,"Velocity":49,"Duration":158138,"SoundDuration":158138,"Delta":64529095},{"NoteNumber":79,"Velocity":59,"Duration":158138,"SoundDuration":158138,"Delta":64529095},{"NoteNumber":48,"Velocity":54,"Duration":158138,"SoundDuration":158138,"Delta":64529095},{"NoteNumber":69,"Velocity":55,"Duration":98489,"SoundDuration":98489,"Delta":64739947},{"NoteNumber":72,"Velocity":66,"Duration":98489,"SoundDuration":98489,"Delta":64739947},{"NoteNumber":41,"Velocity":59,"Duration":98489,"SoundDuration":98489,"Delta":64739947},{"NoteNumber":69,"Velocity":54,"Duration":416504,"SoundDuration":416504,"Delta":64936927},{"NoteNumber":72,"Velocity":64,"Duration":416504,"SoundDuration":416504,"Delta":64936927},{"NoteNumber":53,"Velocity":54,"Duration":154077,"SoundDuration":154077,"Delta":64936927},{"NoteNumber":53,"Velocity":54,"Duration":158354,"SoundDuration":158354,"Delta":65142364},{"NoteNumber":72,"Velocity":49,"Duration":158138,"SoundDuration":158138,"Delta":65353432},{"NoteNumber":75,"Velocity":59,"Duration":158138,"SoundDuration":158138,"Delta":65353432},{"NoteNumber":53,"Velocity":54,"Duration":158138,"SoundDuration":158138,"Delta":65353432},{"NoteNumber":75,"Velocity":54,"Duration":108709,"SoundDuration":108709,"Delta":65564284},{"NoteNumber":58,"Velocity":38,"Duration":197654,"SoundDuration":197654,"Delta":65564284},{"NoteNumber":73,"Velocity":49,"Duration":108709,"SoundDuration":108709,"Delta":65663111},{"NoteNumber":72,"Velocity":49,"Duration":108709,"SoundDuration":108709,"Delta":65761938},{"NoteNumber":61,"Velocity":34,"Duration":197654,"SoundDuration":197654,"Delta":65761938},{"NoteNumber":70,"Velocity":51,"Duration":108709,"SoundDuration":108709,"Delta":65860765},{"NoteNumber":69,"Velocity":50,"Duration":108709,"SoundDuration":108709,"Delta":65959593},{"NoteNumber":58,"Velocity":34,"Duration":197654,"SoundDuration":197654,"Delta":65959593},{"NoteNumber":70,"Velocity":48,"Duration":108709,"SoundDuration":108709,"Delta":66058420},{"NoteNumber":72,"Velocity":46,"Duration":109173,"SoundDuration":109173,"Delta":66157247},{"NoteNumber":56,"Velocity":34,"Duration":202289,"SoundDuration":202289,"Delta":66157247},{"NoteNumber":70,"Velocity":45,"Duration":103462,"SoundDuration":103462,"Delta":66256074},{"NoteNumber":75,"Velocity":54,"Duration":108709,"SoundDuration":108709,"Delta":66359537},{"NoteNumber":54,"Velocity":38,"Duration":197654,"SoundDuration":197654,"Delta":66359537},{"NoteNumber":73,"Velocity":49,"Duration":108709,"SoundDuration":108709,"Delta":66458364},{"NoteNumber":72,"Velocity":49,"Duration":108709,"SoundDuration":108709,"Delta":66557191},{"NoteNumber":58,"Velocity":34,"Duration":197654,"SoundDuration":197654,"Delta":66557191},{"NoteNumber":70,"Velocity":51,"Duration":108709,"SoundDuration":108709,"Delta":66656019},{"NoteNumber":69,"Velocity":50,"Duration":108709,"SoundDuration":108709,"Delta":66754846},{"NoteNumber":54,"Velocity":34,"Duration":197654,"SoundDuration":197654,"Delta":66754846},{"NoteNumber":70,"Velocity":48,"Duration":108709,"SoundDuration":108709,"Delta":66853673},{"NoteNumber":72,"Velocity":46,"Duration":110275,"SoundDuration":110275,"Delta":66952500},{"NoteNumber":53,"Velocity":34,"Duration":213304,"SoundDuration":213304,"Delta":66952500},{"NoteNumber":70,"Velocity":45,"Duration":114477,"SoundDuration":114477,"Delta":67051328},{"NoteNumber":82,"Velocity":66,"Duration":97994,"SoundDuration":97994,"Delta":67165805},{"NoteNumber":52,"Velocity":34,"Duration":195988,"SoundDuration":195988,"Delta":67165805},{"NoteNumber":82,"Velocity":57,"Duration":428540,"SoundDuration":428540,"Delta":67361794},{"NoteNumber":60,"Velocity":25,"Duration":436838,"SoundDuration":436838,"Delta":67576065},{"NoteNumber":67,"Velocity":30,"Duration":436838,"SoundDuration":436838,"Delta":67576065},{"NoteNumber":70,"Velocity":38,"Duration":222568,"SoundDuration":222568,"Delta":67790335},{"NoteNumber":76,"Velocity":45,"Duration":222568,"SoundDuration":222568,"Delta":67790335},{"NoteNumber":70,"Velocity":43,"Duration":426955,"SoundDuration":426955,"Delta":68012904},{"NoteNumber":79,"Velocity":51,"Duration":426955,"SoundDuration":426955,"Delta":68012904},{"NoteNumber":65,"Velocity":37,"Duration":597862,"SoundDuration":597862,"Delta":68012904},{"NoteNumber":69,"Velocity":39,"Duration":170907,"SoundDuration":170907,"Delta":68439859},{"NoteNumber":77,"Velocity":46,"Duration":170907,"SoundDuration":170907,"Delta":68439859},{"NoteNumber":65,"Velocity":60,"Duration":105857,"SoundDuration":105857,"Delta":68667736},{"NoteNumber":65,"Velocity":55,"Duration":98489,"SoundDuration":98489,"Delta":68879451},{"NoteNumber":74,"Velocity":66,"Duration":98489,"SoundDuration":98489,"Delta":68879451},{"NoteNumber":46,"Velocity":59,"Duration":98489,"SoundDuration":98489,"Delta":68879451},{"NoteNumber":65,"Velocity":54,"Duration":416504,"SoundDuration":416504,"Delta":69076430},{"NoteNumber":74,"Velocity":64,"Duration":416504,"SoundDuration":416504,"Delta":69076430},{"NoteNumber":58,"Velocity":54,"Duration":154077,"SoundDuration":154077,"Delta":69076430},{"NoteNumber":58,"Velocity":54,"Duration":158354,"SoundDuration":158354,"Delta":69281867},{"NoteNumber":62,"Velocity":49,"Duration":158138,"SoundDuration":158138,"Delta":69492935},{"NoteNumber":70,"Velocity":59,"Duration":158138,"SoundDuration":158138,"Delta":69492935},{"NoteNumber":58,"Velocity":54,"Duration":158138,"SoundDuration":158138,"Delta":69492935},{"NoteNumber":67,"Velocity":55,"Duration":98489,"SoundDuration":98489,"Delta":69703787},{"NoteNumber":75,"Velocity":66,"Duration":98489,"SoundDuration":98489,"Delta":69703787},{"NoteNumber":46,"Velocity":59,"Duration":98489,"SoundDuration":98489,"Delta":69703787},{"NoteNumber":67,"Velocity":54,"Duration":416504,"SoundDuration":416504,"Delta":69900766},{"NoteNumber":75,"Velocity":64,"Duration":416504,"SoundDuration":416504,"Delta":69900766},{"NoteNumber":58,"Velocity":54,"Duration":154077,"SoundDuration":154077,"Delta":69900766},{"NoteNumber":58,"Velocity":54,"Duration":158354,"SoundDuration":158354,"Delta":70106203},{"NoteNumber":63,"Velocity":49,"Duration":158138,"SoundDuration":158138,"Delta":70317271},{"NoteNumber":72,"Velocity":59,"Duration":158138,"SoundDuration":158138,"Delta":70317271},{"NoteNumber":58,"Velocity":54,"Duration":158138,"SoundDuration":158138,"Delta":70317271},{"NoteNumber":67,"Velocity":65,"Duration":199720,"SoundDuration":199720,"Delta":70528123},{"NoteNumber":58,"Velocity":57,"Duration":803809,"SoundDuration":803809,"Delta":70528123},{"NoteNumber":63,"Velocity":57,"Duration":402259,"SoundDuration":402259,"Delta":70528123},{"NoteNumber":70,"Velocity":59,"Duration":202538,"SoundDuration":202538,"Delta":70727844},{"NoteNumber":69,"Velocity":65,"Duration":199720,"SoundDuration":199720,"Delta":70930382},{"NoteNumber":60,"Velocity":52,"Duration":401550,"SoundDuration":401550,"Delta":70930382},{"NoteNumber":72,"Velocity":59,"Duration":201830,"SoundDuration":201830,"Delta":71130103},{"NoteNumber":70,"Velocity":63,"Duration":98827,"SoundDuration":98827,"Delta":71331933},{"NoteNumber":62,"Velocity":52,"Duration":400691,"SoundDuration":400691,"Delta":71331933},{"NoteNumber":58,"Velocity":52,"Duration":400691,"SoundDuration":400691,"Delta":71331933},{"NoteNumber":69,"Velocity":56,"Duration":98827,"SoundDuration":98827,"Delta":71430760},{"NoteNumber":70,"Velocity":56,"Duration":98827,"SoundDuration":98827,"Delta":71529587},{"NoteNumber":72,"Velocity":56,"Duration":104209,"SoundDuration":104209,"Delta":71628414},{"NoteNumber":70,"Velocity":62,"Duration":106738,"SoundDuration":106738,"Delta":71732624},{"NoteNumber":70,"Velocity":59,"Duration":100650,"SoundDuration":100650,"Delta":71946102},{"NoteNumber":74,"Velocity":55,"Duration":98489,"SoundDuration":98489,"Delta":72147404},{"NoteNumber":77,"Velocity":66,"Duration":98489,"SoundDuration":98489,"Delta":72147404},{"NoteNumber":46,"Velocity":59,"Duration":98489,"SoundDuration":98489,"Delta":72147404},{"NoteNumber":74,"Velocity":54,"Duration":416504,"SoundDuration":416504,"Delta":72344383},{"NoteNumber":77,"Velocity":64,"Duration":416504,"SoundDuration":416504,"Delta":72344383},{"NoteNumber":58,"Velocity":54,"Duration":154077,"SoundDuration":154077,"Delta":72344383},{"NoteNumber":58,"Velocity":54,"Duration":158354,"SoundDuration":158354,"Delta":72549820},{"NoteNumber":70,"Velocity":49,"Duration":158138,"SoundDuration":158138,"Delta":72760888},{"NoteNumber":74,"Velocity":59,"Duration":158138,"SoundDuration":158138,"Delta":72760888},{"NoteNumber":58,"Velocity":54,"Duration":158138,"SoundDuration":158138,"Delta":72760888},{"NoteNumber":75,"Velocity":55,"Duration":98489,"SoundDuration":98489,"Delta":72971740},{"NoteNumber":79,"Velocity":66,"Duration":98489,"SoundDuration":98489,"Delta":72971740},{"NoteNumber":46,"Velocity":59,"Duration":98489,"SoundDuration":98489,"Delta":72971740},{"NoteNumber":75,"Velocity":54,"Duration":416504,"SoundDuration":416504,"Delta":73168720},{"NoteNumber":79,"Velocity":64,"Duration":416504,"SoundDuration":416504,"Delta":73168720},{"NoteNumber":58,"Velocity":54,"Duration":154077,"SoundDuration":154077,"Delta":73168720},{"NoteNumber":58,"Velocity":54,"Duration":158354,"SoundDuration":158354,"Delta":73374157},{"NoteNumber":72,"Velocity":49,"Duration":158138,"SoundDuration":158138,"Delta":73585224},{"NoteNumber":75,"Velocity":59,"Duration":158138,"SoundDuration":158138,"Delta":73585224},{"NoteNumber":58,"Velocity":54,"Duration":158138,"SoundDuration":158138,"Delta":73585224},{"NoteNumber":70,"Velocity":65,"Duration":199720,"SoundDuration":199720,"Delta":73796076},{"NoteNumber":58,"Velocity":57,"Duration":803809,"SoundDuration":803809,"Delta":73796076},{"NoteNumber":67,"Velocity":57,"Duration":402259,"SoundDuration":402259,"Delta":73796076},{"NoteNumber":74,"Velocity":59,"Duration":202538,"SoundDuration":202538,"Delta":73995797},{"NoteNumber":72,"Velocity":65,"Duration":199720,"SoundDuration":199720,"Delta":74198335},{"NoteNumber":69,"Velocity":52,"Duration":401550,"SoundDuration":401550,"Delta":74198335},{"NoteNumber":75,"Velocity":59,"Duration":201830,"SoundDuration":201830,"Delta":74398056},{"NoteNumber":74,"Velocity":63,"Duration":98827,"SoundDuration":98827,"Delta":74599886},{"NoteNumber":70,"Velocity":52,"Duration":400691,"SoundDuration":400691,"Delta":74599886},{"NoteNumber":58,"Velocity":52,"Duration":400691,"SoundDuration":400691,"Delta":74599886},{"NoteNumber":72,"Velocity":59,"Duration":98827,"SoundDuration":98827,"Delta":74698713},{"NoteNumber":74,"Velocity":59,"Duration":98827,"SoundDuration":98827,"Delta":74797540},{"NoteNumber":75,"Velocity":59,"Duration":104209,"SoundDuration":104209,"Delta":74896368},{"NoteNumber":74,"Velocity":66,"Duration":100915,"SoundDuration":100915,"Delta":75000578},{"NoteNumber":70,"Velocity":46,"Duration":100915,"SoundDuration":100915,"Delta":75202408},{"NoteNumber":79,"Velocity":53,"Duration":100915,"SoundDuration":100915,"Delta":75404238},{"NoteNumber":59,"Velocity":36,"Duration":201830,"SoundDuration":201830,"Delta":75404238},{"NoteNumber":79,"Velocity":46,"Duration":201830,"SoundDuration":201830,"Delta":75606068},{"NoteNumber":62,"Velocity":30,"Duration":201830,"SoundDuration":201830,"Delta":75606068},{"NoteNumber":75,"Velocity":50,"Duration":201830,"SoundDuration":201830,"Delta":75807898},{"NoteNumber":60,"Velocity":30,"Duration":201830,"SoundDuration":201830,"Delta":75807898},{"NoteNumber":72,"Velocity":46,"Duration":209951,"SoundDuration":209951,"Delta":76009728},{"NoteNumber":63,"Velocity":30,"Duration":209951,"SoundDuration":209951,"Delta":76009728},{"NoteNumber":71,"Velocity":51,"Duration":402253,"SoundDuration":402253,"Delta":76219679},{"NoteNumber":62,"Velocity":36,"Duration":201126,"SoundDuration":201126,"Delta":76219679},{"NoteNumber":65,"Velocity":32,"Duration":201126,"SoundDuration":201126,"Delta":76420806},{"NoteNumber":72,"Velocity":46,"Duration":201126,"SoundDuration":201126,"Delta":76621932},{"NoteNumber":63,"Velocity":32,"Duration":201126,"SoundDuration":201126,"Delta":76621932},{"NoteNumber":79,"Velocity":50,"Duration":103462,"SoundDuration":103462,"Delta":76823059},{"NoteNumber":67,"Velocity":32,"Duration":206924,"SoundDuration":206924,"Delta":76823059},{"NoteNumber":76,"Velocity":51,"Duration":108709,"SoundDuration":108709,"Delta":77029984},{"NoteNumber":57,"Velocity":36,"Duration":197654,"SoundDuration":197654,"Delta":77029984},{"NoteNumber":77,"Velocity":46,"Duration":108709,"SoundDuration":108709,"Delta":77128811},{"NoteNumber":79,"Velocity":46,"Duration":108709,"SoundDuration":108709,"Delta":77227638},{"NoteNumber":60,"Velocity":32,"Duration":197654,"SoundDuration":197654,"Delta":77227638},{"NoteNumber":77,"Velocity":48,"Duration":108709,"SoundDuration":108709,"Delta":77326465},{"NoteNumber":75,"Velocity":47,"Duration":108709,"SoundDuration":108709,"Delta":77425293},{"NoteNumber":58,"Velocity":32,"Duration":197654,"SoundDuration":197654,"Delta":77425293},{"NoteNumber":74,"Velocity":45,"Duration":108709,"SoundDuration":108709,"Delta":77524120},{"NoteNumber":72,"Velocity":44,"Duration":109173,"SoundDuration":109173,"Delta":77622947},{"NoteNumber":62,"Velocity":32,"Duration":202289,"SoundDuration":202289,"Delta":77622947},{"NoteNumber":70,"Velocity":42,"Duration":113311,"SoundDuration":113311,"Delta":77721774},{"NoteNumber":69,"Velocity":49,"Duration":393958,"SoundDuration":393958,"Delta":77825237},{"NoteNumber":60,"Velocity":36,"Duration":196979,"SoundDuration":196979,"Delta":77825237},{"NoteNumber":63,"Velocity":31,"Duration":196979,"SoundDuration":196979,"Delta":78022216},{"NoteNumber":70,"Velocity":46,"Duration":196979,"SoundDuration":196979,"Delta":78219196},{"NoteNumber":62,"Velocity":31,"Duration":196979,"SoundDuration":196979,"Delta":78219196},{"NoteNumber":77,"Velocity":49,"Duration":101625,"SoundDuration":101625,"Delta":78416175},{"NoteNumber":65,"Velocity":31,"Duration":203061,"SoundDuration":203061,"Delta":78416175},{"NoteNumber":82,"Velocity":61,"Duration":107664,"SoundDuration":107664,"Delta":78619237},{"NoteNumber":50,"Velocity":36,"Duration":393546,"SoundDuration":393546,"Delta":78619237},{"NoteNumber":53,"Velocity":36,"Duration":393546,"SoundDuration":393546,"Delta":78619237},{"NoteNumber":58,"Velocity":36,"Duration":393546,"SoundDuration":393546,"Delta":78619237},{"NoteNumber":81,"Velocity":60,"Duration":108045,"SoundDuration":108045,"Delta":78717087},{"NoteNumber":79,"Velocity":58,"Duration":108428,"SoundDuration":108428,"Delta":78815283},{"NoteNumber":77,"Velocity":57,"Duration":108871,"SoundDuration":108871,"Delta":78913829},{"NoteNumber":75,"Velocity":56,"Duration":109264,"SoundDuration":109264,"Delta":79012784},{"NoteNumber":74,"Velocity":54,"Duration":109656,"SoundDuration":109656,"Delta":79112097},{"NoteNumber":72,"Velocity":53,"Duration":110106,"SoundDuration":110106,"Delta":79211768},{"NoteNumber":70,"Velocity":50,"Duration":100104,"SoundDuration":100104,"Delta":79311853},{"NoteNumber":79,"Velocity":58,"Duration":108031,"SoundDuration":108031,"Delta":79411958},{"NoteNumber":51,"Velocity":36,"Duration":394953,"SoundDuration":394953,"Delta":79411958},{"NoteNumber":60,"Velocity":36,"Duration":394953,"SoundDuration":394953,"Delta":79411958},{"NoteNumber":58,"Velocity":36,"Duration":394953,"SoundDuration":394953,"Delta":79411958},{"NoteNumber":77,"Velocity":57,"Duration":108414,"SoundDuration":108414,"Delta":79510140},{"NoteNumber":75,"Velocity":55,"Duration":108857,"SoundDuration":108857,"Delta":79608672},{"NoteNumber":74,"Velocity":53,"Duration":109250,"SoundDuration":109250,"Delta":79707612},{"NoteNumber":72,"Velocity":52,"Duration":109642,"SoundDuration":109642,"Delta":79806911},{"NoteNumber":70,"Velocity":50,"Duration":110091,"SoundDuration":110091,"Delta":79906567},{"NoteNumber":69,"Velocity":48,"Duration":110494,"SoundDuration":110494,"Delta":80006639},{"NoteNumber":67,"Velocity":47,"Duration":100724,"SoundDuration":100724,"Delta":80107077},{"NoteNumber":65,"Velocity":50,"Duration":101269,"SoundDuration":101269,"Delta":80207801},{"NoteNumber":53,"Velocity":36,"Duration":863065,"SoundDuration":863065,"Delta":80207801},{"NoteNumber":62,"Velocity":36,"Duration":405077,"SoundDuration":405077,"Delta":80207801},{"NoteNumber":70,"Velocity":46,"Duration":101269,"SoundDuration":101269,"Delta":80309071},{"NoteNumber":74,"Velocity":46,"Duration":101269,"SoundDuration":101269,"Delta":80410340},{"NoteNumber":77,"Velocity":46,"Duration":75951,"SoundDuration":75951,"Delta":80511609},{"NoteNumber":77,"Velocity":50,"Duration":104975,"SoundDuration":104975,"Delta":80612878},{"NoteNumber":63,"Velocity":31,"Duration":457988,"SoundDuration":457988,"Delta":80612878},{"NoteNumber":75,"Velocity":44,"Duration":104975,"SoundDuration":104975,"Delta":80717854},{"NoteNumber":74,"Velocity":44,"Duration":124018,"SoundDuration":124018,"Delta":80822830},{"NoteNumber":72,"Velocity":44,"Duration":93013,"SoundDuration":93013,"Delta":80946848},{"NoteNumber":72,"Velocity":47,"Duration":458434,"SoundDuration":458434,"Delta":81070866},{"NoteNumber":58,"Velocity":36,"Duration":692828,"SoundDuration":692828,"Delta":81070866},{"NoteNumber":63,"Velocity":36,"Duration":458434,"SoundDuration":458434,"Delta":81070866},{"NoteNumber":70,"Velocity":40,"Duration":175795,"SoundDuration":175795,"Delta":81529301},{"NoteNumber":62,"Velocity":33,"Duration":175795,"SoundDuration":175795,"Delta":81529301},{"NoteNumber":65,"Velocity":60,"Duration":105857,"SoundDuration":105857,"Delta":81763695},{"NoteNumber":74,"Velocity":55,"Duration":98489,"SoundDuration":98489,"Delta":81975410},{"NoteNumber":77,"Velocity":66,"Duration":98489,"SoundDuration":98489,"Delta":81975410},{"NoteNumber":38,"Velocity":59,"Duration":98489,"SoundDuration":98489,"Delta":81975410},{"NoteNumber":74,"Velocity":54,"Duration":416504,"SoundDuration":416504,"Delta":82172389},{"NoteNumber":77,"Velocity":64,"Duration":416504,"SoundDuration":416504,"Delta":82172389},{"NoteNumber":50,"Velocity":54,"Duration":154077,"SoundDuration":154077,"Delta":82172389},{"NoteNumber":50,"Velocity":54,"Duration":158354,"SoundDuration":158354,"Delta":82377826},{"NoteNumber":77,"Velocity":49,"Duration":158138,"SoundDuration":158138,"Delta":82588894},{"NoteNumber":80,"Velocity":59,"Duration":158138,"SoundDuration":158138,"Delta":82588894},{"NoteNumber":50,"Velocity":54,"Duration":158138,"SoundDuration":158138,"Delta":82588894},{"NoteNumber":71,"Velocity":55,"Duration":98489,"SoundDuration":98489,"Delta":82799746},{"NoteNumber":74,"Velocity":66,"Duration":98489,"SoundDuration":98489,"Delta":82799746},{"NoteNumber":43,"Velocity":59,"Duration":98489,"SoundDuration":98489,"Delta":82799746},{"NoteNumber":71,"Velocity":54,"Duration":416504,"SoundDuration":416504,"Delta":82996726},{"NoteNumber":74,"Velocity":64,"Duration":416504,"SoundDuration":416504,"Delta":82996726},{"NoteNumber":55,"Velocity":54,"Duration":154077,"SoundDuration":154077,"Delta":82996726},{"NoteNumber":55,"Velocity":54,"Duration":158354,"SoundDuration":158354,"Delta":83202163},{"NoteNumber":74,"Velocity":49,"Duration":158138,"SoundDuration":158138,"Delta":83413230},{"NoteNumber":77,"Velocity":59,"Duration":158138,"SoundDuration":158138,"Delta":83413230},{"NoteNumber":55,"Velocity":54,"Duration":158138,"SoundDuration":158138,"Delta":83413230},{"NoteNumber":72,"Velocity":55,"Duration":98489,"SoundDuration":98489,"Delta":83624082},{"NoteNumber":75,"Velocity":66,"Duration":98489,"SoundDuration":98489,"Delta":83624082},{"NoteNumber":36,"Velocity":59,"Duration":98489,"SoundDuration":98489,"Delta":83624082},{"NoteNumber":72,"Velocity":54,"Duration":416504,"SoundDuration":416504,"Delta":83821062},{"NoteNumber":75,"Velocity":64,"Duration":416504,"SoundDuration":416504,"Delta":83821062},{"NoteNumber":48,"Velocity":54,"Duration":154077,"SoundDuration":154077,"Delta":83821062},{"NoteNumber":48,"Velocity":54,"Duration":158354,"SoundDuration":158354,"Delta":84026499},{"NoteNumber":75,"Velocity":49,"Duration":158138,"SoundDuration":158138,"Delta":84237567},{"NoteNumber":79,"Velocity":59,"Duration":158138,"SoundDuration":158138,"Delta":84237567},{"NoteNumber":48,"Velocity":54,"Duration":158138,"SoundDuration":158138,"Delta":84237567},{"NoteNumber":69,"Velocity":55,"Duration":98489,"SoundDuration":98489,"Delta":84448419},{"NoteNumber":72,"Velocity":66,"Duration":98489,"SoundDuration":98489,"Delta":84448419},{"NoteNumber":41,"Velocity":59,"Duration":98489,"SoundDuration":98489,"Delta":84448419},{"NoteNumber":69,"Velocity":54,"Duration":416504,"SoundDuration":416504,"Delta":84645398},{"NoteNumber":72,"Velocity":64,"Duration":416504,"SoundDuration":416504,"Delta":84645398},{"NoteNumber":53,"Velocity":54,"Duration":154077,"SoundDuration":154077,"Delta":84645398},{"NoteNumber":53,"Velocity":54,"Duration":158354,"SoundDuration":158354,"Delta":84850835},{"NoteNumber":72,"Velocity":49,"Duration":158138,"SoundDuration":158138,"Delta":85061903},{"NoteNumber":75,"Velocity":59,"Duration":158138,"SoundDuration":158138,"Delta":85061903},{"NoteNumber":53,"Velocity":54,"Duration":158138,"SoundDuration":158138,"Delta":85061903},{"NoteNumber":75,"Velocity":54,"Duration":108709,"SoundDuration":108709,"Delta":85272755},{"NoteNumber":58,"Velocity":38,"Duration":197654,"SoundDuration":197654,"Delta":85272755},{"NoteNumber":73,"Velocity":49,"Duration":108709,"SoundDuration":108709,"Delta":85371582},{"NoteNumber":72,"Velocity":49,"Duration":108709,"SoundDuration":108709,"Delta":85470409},{"NoteNumber":61,"Velocity":34,"Duration":197654,"SoundDuration":197654,"Delta":85470409},{"NoteNumber":70,"Velocity":51,"Duration":108709,"SoundDuration":108709,"Delta":85569237},{"NoteNumber":69,"Velocity":50,"Duration":108709,"SoundDuration":108709,"Delta":85668064},{"NoteNumber":58,"Velocity":34,"Duration":197654,"SoundDuration":197654,"Delta":85668064},{"NoteNumber":70,"Velocity":48,"Duration":108709,"SoundDuration":108709,"Delta":85766891},{"NoteNumber":72,"Velocity":46,"Duration":109173,"SoundDuration":109173,"Delta":85865718},{"NoteNumber":56,"Velocity":34,"Duration":202289,"SoundDuration":202289,"Delta":85865718},{"NoteNumber":70,"Velocity":45,"Duration":103462,"SoundDuration":103462,"Delta":85964546},{"NoteNumber":75,"Velocity":54,"Duration":108709,"SoundDuration":108709,"Delta":86068008},{"NoteNumber":54,"Velocity":38,"Duration":197654,"SoundDuration":197654,"Delta":86068008},{"NoteNumber":73,"Velocity":49,"Duration":108709,"SoundDuration":108709,"Delta":86166835},{"NoteNumber":72,"Velocity":49,"Duration":108709,"SoundDuration":108709,"Delta":86265663},{"NoteNumber":58,"Velocity":34,"Duration":197654,"SoundDuration":197654,"Delta":86265663},{"NoteNumber":70,"Velocity":51,"Duration":108709,"SoundDuration":108709,"Delta":86364490},{"NoteNumber":69,"Velocity":50,"Duration":108709,"SoundDuration":108709,"Delta":86463317},{"NoteNumber":54,"Velocity":34,"Duration":197654,"SoundDuration":197654,"Delta":86463317},{"NoteNumber":70,"Velocity":48,"Duration":108709,"SoundDuration":108709,"Delta":86562144},{"NoteNumber":72,"Velocity":46,"Duration":111867,"SoundDuration":111867,"Delta":86660972},{"NoteNumber":53,"Velocity":34,"Duration":229228,"SoundDuration":229228,"Delta":86660972},{"NoteNumber":70,"Velocity":45,"Duration":130400,"SoundDuration":130400,"Delta":86759799},{"NoteNumber":82,"Velocity":66,"Duration":97994,"SoundDuration":97994,"Delta":86890200},{"NoteNumber":52,"Velocity":34,"Duration":195988,"SoundDuration":195988,"Delta":86890200},{"NoteNumber":82,"Velocity":57,"Duration":428540,"SoundDuration":428540,"Delta":87086189},{"NoteNumber":60,"Velocity":25,"Duration":436838,"SoundDuration":436838,"Delta":87300459},{"NoteNumber":67,"Velocity":30,"Duration":436838,"SoundDuration":436838,"Delta":87300459},{"NoteNumber":70,"Velocity":38,"Duration":222568,"SoundDuration":222568,"Delta":87514730},{"NoteNumber":76,"Velocity":45,"Duration":222568,"SoundDuration":222568,"Delta":87514730},{"NoteNumber":70,"Velocity":43,"Duration":426955,"SoundDuration":426955,"Delta":87737298},{"NoteNumber":79,"Velocity":51,"Duration":426955,"SoundDuration":426955,"Delta":87737298},{"NoteNumber":65,"Velocity":37,"Duration":597862,"SoundDuration":597862,"Delta":87737298},{"NoteNumber":69,"Velocity":39,"Duration":170907,"SoundDuration":170907,"Delta":88164253},{"NoteNumber":77,"Velocity":46,"Duration":170907,"SoundDuration":170907,"Delta":88164253},{"NoteNumber":65,"Velocity":60,"Duration":105857,"SoundDuration":105857,"Delta":88392130},{"NoteNumber":65,"Velocity":55,"Duration":98489,"SoundDuration":98489,"Delta":88603845},{"NoteNumber":74,"Velocity":66,"Duration":98489,"SoundDuration":98489,"Delta":88603845},{"NoteNumber":46,"Velocity":59,"Duration":98489,"SoundDuration":98489,"Delta":88603845},{"NoteNumber":65,"Velocity":54,"Duration":416504,"SoundDuration":416504,"Delta":88800825},{"NoteNumber":74,"Velocity":64,"Duration":416504,"SoundDuration":416504,"Delta":88800825},{"NoteNumber":58,"Velocity":54,"Duration":154077,"SoundDuration":154077,"Delta":88800825},{"NoteNumber":58,"Velocity":54,"Duration":158354,"SoundDuration":158354,"Delta":89006262},{"NoteNumber":62,"Velocity":49,"Duration":158138,"SoundDuration":158138,"Delta":89217329},{"NoteNumber":70,"Velocity":59,"Duration":158138,"SoundDuration":158138,"Delta":89217329},{"NoteNumber":58,"Velocity":54,"Duration":158138,"SoundDuration":158138,"Delta":89217329},{"NoteNumber":67,"Velocity":55,"Duration":98489,"SoundDuration":98489,"Delta":89428181},{"NoteNumber":75,"Velocity":66,"Duration":98489,"SoundDuration":98489,"Delta":89428181},{"NoteNumber":46,"Velocity":59,"Duration":98489,"SoundDuration":98489,"Delta":89428181},{"NoteNumber":67,"Velocity":54,"Duration":416504,"SoundDuration":416504,"Delta":89625161},{"NoteNumber":75,"Velocity":64,"Duration":416504,"SoundDuration":416504,"Delta":89625161},{"NoteNumber":58,"Velocity":54,"Duration":154077,"SoundDuration":154077,"Delta":89625161},{"NoteNumber":58,"Velocity":54,"Duration":158354,"SoundDuration":158354,"Delta":89830598},{"NoteNumber":63,"Velocity":49,"Duration":158138,"SoundDuration":158138,"Delta":90041666},{"NoteNumber":72,"Velocity":59,"Duration":158138,"SoundDuration":158138,"Delta":90041666},{"NoteNumber":58,"Velocity":54,"Duration":158138,"SoundDuration":158138,"Delta":90041666},{"NoteNumber":67,"Velocity":65,"Duration":199720,"SoundDuration":199720,"Delta":90252518},{"NoteNumber":58,"Velocity":57,"Duration":803809,"SoundDuration":803809,"Delta":90252518},{"NoteNumber":63,"Velocity":57,"Duration":402259,"SoundDuration":402259,"Delta":90252518},{"NoteNumber":70,"Velocity":59,"Duration":202538,"SoundDuration":202538,"Delta":90452238},{"NoteNumber":69,"Velocity":65,"Duration":199720,"SoundDuration":199720,"Delta":90654777},{"NoteNumber":60,"Velocity":52,"Duration":401550,"SoundDuration":401550,"Delta":90654777},{"NoteNumber":72,"Velocity":59,"Duration":201830,"SoundDuration":201830,"Delta":90854497},{"NoteNumber":70,"Velocity":63,"Duration":98827,"SoundDuration":98827,"Delta":91056327},{"NoteNumber":62,"Velocity":52,"Duration":405153,"SoundDuration":405153,"Delta":91056327},{"NoteNumber":58,"Velocity":52,"Duration":405153,"SoundDuration":405153,"Delta":91056327},{"NoteNumber":69,"Velocity":56,"Duration":98827,"SoundDuration":98827,"Delta":91155154},{"NoteNumber":70,"Velocity":56,"Duration":98827,"SoundDuration":98827,"Delta":91253982},{"NoteNumber":72,"Velocity":56,"Duration":108671,"SoundDuration":108671,"Delta":91352809},{"NoteNumber":70,"Velocity":62,"Duration":108671,"SoundDuration":108671,"Delta":91461481},{"NoteNumber":70,"Velocity":59,"Duration":100314,"SoundDuration":100314,"Delta":91670467},{"NoteNumber":74,"Velocity":55,"Duration":98489,"SoundDuration":98489,"Delta":91871096},{"NoteNumber":77,"Velocity":66,"Duration":98489,"SoundDuration":98489,"Delta":91871096},{"NoteNumber":46,"Velocity":59,"Duration":98489,"SoundDuration":98489,"Delta":91871096},{"NoteNumber":74,"Velocity":54,"Duration":416504,"SoundDuration":416504,"Delta":92068075},{"NoteNumber":77,"Velocity":64,"Duration":416504,"SoundDuration":416504,"Delta":92068075},{"NoteNumber":58,"Velocity":54,"Duration":154077,"SoundDuration":154077,"Delta":92068075},{"NoteNumber":58,"Velocity":54,"Duration":158354,"SoundDuration":158354,"Delta":92273512},{"NoteNumber":70,"Velocity":49,"Duration":158138,"SoundDuration":158138,"Delta":92484580},{"NoteNumber":74,"Velocity":59,"Duration":158138,"SoundDuration":158138,"Delta":92484580},{"NoteNumber":58,"Velocity":54,"Duration":158138,"SoundDuration":158138,"Delta":92484580},{"NoteNumber":75,"Velocity":55,"Duration":98489,"SoundDuration":98489,"Delta":92695432},{"NoteNumber":79,"Velocity":66,"Duration":98489,"SoundDuration":98489,"Delta":92695432},{"NoteNumber":46,"Velocity":59,"Duration":98489,"SoundDuration":98489,"Delta":92695432},{"NoteNumber":75,"Velocity":54,"Duration":416504,"SoundDuration":416504,"Delta":92892411},{"NoteNumber":79,"Velocity":64,"Duration":416504,"SoundDuration":416504,"Delta":92892411},{"NoteNumber":58,"Velocity":54,"Duration":154077,"SoundDuration":154077,"Delta":92892411},{"NoteNumber":58,"Velocity":54,"Duration":158354,"SoundDuration":158354,"Delta":93097848},{"NoteNumber":72,"Velocity":49,"Duration":158138,"SoundDuration":158138,"Delta":93308916},{"NoteNumber":75,"Velocity":59,"Duration":158138,"SoundDuration":158138,"Delta":93308916},{"NoteNumber":58,"Velocity":54,"Duration":158138,"SoundDuration":158138,"Delta":93308916},{"NoteNumber":70,"Velocity":65,"Duration":199720,"SoundDuration":199720,"Delta":93519768},{"NoteNumber":58,"Velocity":57,"Duration":803809,"SoundDuration":803809,"Delta":93519768},{"NoteNumber":67,"Velocity":57,"Duration":402259,"SoundDuration":402259,"Delta":93519768},{"NoteNumber":74,"Velocity":59,"Duration":202538,"SoundDuration":202538,"Delta":93719489},{"NoteNumber":72,"Velocity":65,"Duration":199720,"SoundDuration":199720,"Delta":93922027},{"NoteNumber":69,"Velocity":52,"Duration":401550,"SoundDuration":401550,"Delta":93922027},{"NoteNumber":75,"Velocity":59,"Duration":201830,"SoundDuration":201830,"Delta":94121748},{"NoteNumber":74,"Velocity":63,"Duration":98827,"SoundDuration":98827,"Delta":94323578},{"NoteNumber":70,"Velocity":52,"Duration":400691,"SoundDuration":400691,"Delta":94323578},{"NoteNumber":58,"Velocity":52,"Duration":400691,"SoundDuration":400691,"Delta":94323578},{"NoteNumber":72,"Velocity":59,"Duration":98827,"SoundDuration":98827,"Delta":94422405},{"NoteNumber":74,"Velocity":59,"Duration":98827,"SoundDuration":98827,"Delta":94521232},{"NoteNumber":75,"Velocity":59,"Duration":104209,"SoundDuration":104209,"Delta":94620059},{"NoteNumber":74,"Velocity":66,"Duration":100915,"SoundDuration":100915,"Delta":94724269},{"NoteNumber":70,"Velocity":46,"Duration":100915,"SoundDuration":100915,"Delta":94926099},{"NoteNumber":79,"Velocity":53,"Duration":100915,"SoundDuration":100915,"Delta":95127929},{"NoteNumber":59,"Velocity":36,"Duration":201830,"SoundDuration":201830,"Delta":95127929},{"NoteNumber":79,"Velocity":46,"Duration":201830,"SoundDuration":201830,"Delta":95329759},{"NoteNumber":62,"Velocity":30,"Duration":201830,"SoundDuration":201830,"Delta":95329759},{"NoteNumber":75,"Velocity":50,"Duration":201830,"SoundDuration":201830,"Delta":95531589},{"NoteNumber":60,"Velocity":30,"Duration":201830,"SoundDuration":201830,"Delta":95531589},{"NoteNumber":72,"Velocity":46,"Duration":209951,"SoundDuration":209951,"Delta":95733419},{"NoteNumber":63,"Velocity":30,"Duration":209951,"SoundDuration":209951,"Delta":95733419},{"NoteNumber":71,"Velocity":51,"Duration":402253,"SoundDuration":402253,"Delta":95943371},{"NoteNumber":62,"Velocity":36,"Duration":201126,"SoundDuration":201126,"Delta":95943371},{"NoteNumber":65,"Velocity":32,"Duration":201126,"SoundDuration":201126,"Delta":96144497},{"NoteNumber":72,"Velocity":46,"Duration":201126,"SoundDuration":201126,"Delta":96345624},{"NoteNumber":63,"Velocity":32,"Duration":201126,"SoundDuration":201126,"Delta":96345624},{"NoteNumber":79,"Velocity":50,"Duration":103462,"SoundDuration":103462,"Delta":96546750},{"NoteNumber":67,"Velocity":32,"Duration":206924,"SoundDuration":206924,"Delta":96546750},{"NoteNumber":76,"Velocity":51,"Duration":108709,"SoundDuration":108709,"Delta":96753675},{"NoteNumber":57,"Velocity":36,"Duration":197654,"SoundDuration":197654,"Delta":96753675},{"NoteNumber":77,"Velocity":46,"Duration":108709,"SoundDuration":108709,"Delta":96852503},{"NoteNumber":79,"Velocity":46,"Duration":108709,"SoundDuration":108709,"Delta":96951330},{"NoteNumber":60,"Velocity":32,"Duration":197654,"SoundDuration":197654,"Delta":96951330},{"NoteNumber":77,"Velocity":48,"Duration":108709,"SoundDuration":108709,"Delta":97050157},{"NoteNumber":75,"Velocity":47,"Duration":108709,"SoundDuration":108709,"Delta":97148984},{"NoteNumber":58,"Velocity":32,"Duration":197654,"SoundDuration":197654,"Delta":97148984},{"NoteNumber":74,"Velocity":45,"Duration":108709,"SoundDuration":108709,"Delta":97247812},{"NoteNumber":72,"Velocity":44,"Duration":109173,"SoundDuration":109173,"Delta":97346639},{"NoteNumber":62,"Velocity":32,"Duration":202289,"SoundDuration":202289,"Delta":97346639},{"NoteNumber":70,"Velocity":42,"Duration":113311,"SoundDuration":113311,"Delta":97445466},{"NoteNumber":69,"Velocity":49,"Duration":393958,"SoundDuration":393958,"Delta":97548929},{"NoteNumber":60,"Velocity":36,"Duration":196979,"SoundDuration":196979,"Delta":97548929},{"NoteNumber":63,"Velocity":31,"Duration":196979,"SoundDuration":196979,"Delta":97745908},{"NoteNumber":70,"Velocity":46,"Duration":196979,"SoundDuration":196979,"Delta":97942888},{"NoteNumber":62,"Velocity":31,"Duration":196979,"SoundDuration":196979,"Delta":97942888},{"NoteNumber":77,"Velocity":49,"Duration":101625,"SoundDuration":101625,"Delta":98139867},{"NoteNumber":65,"Velocity":31,"Duration":203061,"SoundDuration":203061,"Delta":98139867},{"NoteNumber":82,"Velocity":61,"Duration":107664,"SoundDuration":107664,"Delta":98342929},{"NoteNumber":50,"Velocity":36,"Duration":393546,"SoundDuration":393546,"Delta":98342929},{"NoteNumber":53,"Velocity":36,"Duration":393546,"SoundDuration":393546,"Delta":98342929},{"NoteNumber":58,"Velocity":36,"Duration":393546,"SoundDuration":393546,"Delta":98342929},{"NoteNumber":81,"Velocity":60,"Duration":108045,"SoundDuration":108045,"Delta":98440778},{"NoteNumber":79,"Velocity":58,"Duration":108428,"SoundDuration":108428,"Delta":98538975},{"NoteNumber":77,"Velocity":57,"Duration":108871,"SoundDuration":108871,"Delta":98637521},{"NoteNumber":75,"Velocity":56,"Duration":109264,"SoundDuration":109264,"Delta":98736475},{"NoteNumber":74,"Velocity":54,"Duration":109656,"SoundDuration":109656,"Delta":98835788},{"NoteNumber":72,"Velocity":53,"Duration":110106,"SoundDuration":110106,"Delta":98935459},{"NoteNumber":70,"Velocity":50,"Duration":100104,"SoundDuration":100104,"Delta":99035545},{"NoteNumber":79,"Velocity":58,"Duration":108031,"SoundDuration":108031,"Delta":99135649},{"NoteNumber":51,"Velocity":36,"Duration":394953,"SoundDuration":394953,"Delta":99135649},{"NoteNumber":60,"Velocity":36,"Duration":394953,"SoundDuration":394953,"Delta":99135649},{"NoteNumber":58,"Velocity":36,"Duration":394953,"SoundDuration":394953,"Delta":99135649},{"NoteNumber":77,"Velocity":57,"Duration":108414,"SoundDuration":108414,"Delta":99233832},{"NoteNumber":75,"Velocity":55,"Duration":108857,"SoundDuration":108857,"Delta":99332364},{"NoteNumber":74,"Velocity":53,"Duration":109250,"SoundDuration":109250,"Delta":99431304},{"NoteNumber":72,"Velocity":52,"Duration":109642,"SoundDuration":109642,"Delta":99530603},{"NoteNumber":70,"Velocity":50,"Duration":110091,"SoundDuration":110091,"Delta":99630259},{"NoteNumber":69,"Velocity":48,"Duration":110494,"SoundDuration":110494,"Delta":99730330},{"NoteNumber":67,"Velocity":47,"Duration":100724,"SoundDuration":100724,"Delta":99830769},{"NoteNumber":65,"Velocity":50,"Duration":101269,"SoundDuration":101269,"Delta":99931493},{"NoteNumber":53,"Velocity":36,"Duration":873582,"SoundDuration":873582,"Delta":99931493},{"NoteNumber":62,"Velocity":36,"Duration":405077,"SoundDuration":405077,"Delta":99931493},{"NoteNumber":70,"Velocity":46,"Duration":101269,"SoundDuration":101269,"Delta":100032762},{"NoteNumber":74,"Velocity":46,"Duration":101269,"SoundDuration":101269,"Delta":100134032},{"NoteNumber":77,"Velocity":46,"Duration":75951,"SoundDuration":75951,"Delta":100235301},{"NoteNumber":77,"Velocity":50,"Duration":104975,"SoundDuration":104975,"Delta":100336570},{"NoteNumber":63,"Velocity":31,"Duration":468505,"SoundDuration":468505,"Delta":100336570},{"NoteNumber":75,"Velocity":44,"Duration":104975,"SoundDuration":104975,"Delta":100441546},{"NoteNumber":74,"Velocity":44,"Duration":129277,"SoundDuration":129277,"Delta":100546522},{"NoteNumber":72,"Velocity":44,"Duration":96957,"SoundDuration":96957,"Delta":100675799},{"NoteNumber":72,"Velocity":47,"Duration":458434,"SoundDuration":458434,"Delta":100805076},{"NoteNumber":58,"Velocity":36,"Duration":692828,"SoundDuration":692828,"Delta":100805076},{"NoteNumber":63,"Velocity":36,"Duration":458434,"SoundDuration":458434,"Delta":100805076},{"NoteNumber":70,"Velocity":40,"Duration":175795,"SoundDuration":175795,"Delta":101263511},{"NoteNumber":62,"Velocity":33,"Duration":175795,"SoundDuration":175795,"Delta":101263511},{"NoteNumber":70,"Velocity":38,"Duration":111715,"SoundDuration":111715,"Delta":101497904},{"NoteNumber":72,"Velocity":43,"Duration":111715,"SoundDuration":111715,"Delta":101609619},{"NoteNumber":74,"Velocity":47,"Duration":439352,"SoundDuration":439352,"Delta":101721335},{"NoteNumber":58,"Velocity":26,"Duration":112149,"SoundDuration":112149,"Delta":101936389},{"NoteNumber":62,"Velocity":33,"Duration":112149,"SoundDuration":112149,"Delta":101936389},{"NoteNumber":58,"Velocity":26,"Duration":107527,"SoundDuration":107527,"Delta":102160688},{"NoteNumber":62,"Velocity":33,"Duration":107527,"SoundDuration":107527,"Delta":102160688},{"NoteNumber":74,"Velocity":46,"Duration":107527,"SoundDuration":107527,"Delta":102375742},{"NoteNumber":75,"Velocity":48,"Duration":107527,"SoundDuration":107527,"Delta":102483269},{"NoteNumber":77,"Velocity":50,"Duration":443498,"SoundDuration":443498,"Delta":102590796},{"NoteNumber":58,"Velocity":26,"Duration":112587,"SoundDuration":112587,"Delta":102809120},{"NoteNumber":62,"Velocity":33,"Duration":112587,"SoundDuration":112587,"Delta":102809120},{"NoteNumber":58,"Velocity":26,"Duration":109162,"SoundDuration":109162,"Delta":103034295},{"NoteNumber":62,"Velocity":33,"Duration":109162,"SoundDuration":109162,"Delta":103034295},{"NoteNumber":77,"Velocity":53,"Duration":109162,"SoundDuration":109162,"Delta":103252619},{"NoteNumber":79,"Velocity":55,"Duration":116234,"SoundDuration":116234,"Delta":103361781},{"NoteNumber":80,"Velocity":62,"Duration":216684,"SoundDuration":216684,"Delta":103478015},{"NoteNumber":77,"Velocity":54,"Duration":216684,"SoundDuration":216684,"Delta":103694700},{"NoteNumber":74,"Velocity":53,"Duration":216684,"SoundDuration":216684,"Delta":103911384},{"NoteNumber":70,"Velocity":52,"Duration":224299,"SoundDuration":224299,"Delta":104128069},{"NoteNumber":69,"Velocity":40,"Duration":220005,"SoundDuration":220005,"Delta":104352368},{"NoteNumber":70,"Velocity":43,"Duration":220005,"SoundDuration":220005,"Delta":104572374},{"NoteNumber":68,"Velocity":40,"Duration":225174,"SoundDuration":225174,"Delta":104792380},{"NoteNumber":65,"Velocity":37,"Duration":225174,"SoundDuration":225174,"Delta":105017554},{"NoteNumber":63,"Velocity":39,"Duration":104478,"SoundDuration":104478,"Delta":105242729},{"NoteNumber":63,"Velocity":36,"Duration":104478,"SoundDuration":104478,"Delta":105451686},{"NoteNumber":63,"Velocity":35,"Duration":102242,"SoundDuration":102242,"Delta":105660644},{"NoteNumber":55,"Velocity":24,"Duration":417311,"SoundDuration":417311,"Delta":105660644},{"NoteNumber":58,"Velocity":29,"Duration":417311,"SoundDuration":417311,"Delta":105660644},{"NoteNumber":63,"Velocity":35,"Duration":106413,"SoundDuration":106413,"Delta":105865129},{"NoteNumber":72,"Velocity":41,"Duration":102718,"SoundDuration":102718,"Delta":106077955},{"NoteNumber":72,"Velocity":37,"Duration":102718,"SoundDuration":102718,"Delta":106283392},{"NoteNumber":72,"Velocity":37,"Duration":102718,"SoundDuration":102718,"Delta":106488829},{"NoteNumber":56,"Velocity":24,"Duration":416689,"SoundDuration":416689,"Delta":106488829},{"NoteNumber":63,"Velocity":29,"Duration":416689,"SoundDuration":416689,"Delta":106488829},{"NoteNumber":72,"Velocity":37,"Duration":105626,"SoundDuration":105626,"Delta":106694266},{"NoteNumber":65,"Velocity":40,"Duration":104858,"SoundDuration":104858,"Delta":106905519},{"NoteNumber":65,"Velocity":37,"Duration":104858,"SoundDuration":104858,"Delta":107115236},{"NoteNumber":70,"Velocity":40,"Duration":102718,"SoundDuration":102718,"Delta":107324953},{"NoteNumber":50,"Velocity":24,"Duration":414394,"SoundDuration":414394,"Delta":107324953},{"NoteNumber":53,"Velocity":29,"Duration":414394,"SoundDuration":414394,"Delta":107324953},{"NoteNumber":70,"Velocity":37,"Duration":104478,"SoundDuration":104478,"Delta":107530390},{"NoteNumber":68,"Velocity":36,"Duration":205437,"SoundDuration":205437,"Delta":107739347},{"NoteNumber":51,"Velocity":24,"Duration":205437,"SoundDuration":205437,"Delta":107739347},{"NoteNumber":58,"Velocity":29,"Duration":205437,"SoundDuration":205437,"Delta":107739347},{"NoteNumber":67,"Velocity":39,"Duration":154077,"SoundDuration":154077,"Delta":107944784},{"NoteNumber":65,"Velocity":42,"Duration":103114,"SoundDuration":103114,"Delta":108150221},{"NoteNumber":63,"Velocity":45,"Duration":103114,"SoundDuration":103114,"Delta":108356449},{"NoteNumber":79,"Velocity":48,"Duration":102908,"SoundDuration":102908,"Delta":108562677},{"NoteNumber":79,"Velocity":43,"Duration":101098,"SoundDuration":101098,"Delta":108768495},{"NoteNumber":63,"Velocity":30,"Duration":101098,"SoundDuration":101098,"Delta":108768495},{"NoteNumber":78,"Velocity":48,"Duration":101098,"SoundDuration":101098,"Delta":108970692},{"NoteNumber":62,"Velocity":35,"Duration":101098,"SoundDuration":101098,"Delta":108970692},{"NoteNumber":77,"Velocity":43,"Duration":103505,"SoundDuration":103505,"Delta":109172889},{"NoteNumber":59,"Velocity":32,"Duration":103505,"SoundDuration":103505,"Delta":109172889},{"NoteNumber":76,"Velocity":48,"Duration":101228,"SoundDuration":101228,"Delta":109379900},{"NoteNumber":60,"Velocity":35,"Duration":101228,"SoundDuration":101228,"Delta":109379900},{"NoteNumber":75,"Velocity":46,"Duration":101228,"SoundDuration":101228,"Delta":109582357},{"NoteNumber":57,"Velocity":29,"Duration":101228,"SoundDuration":101228,"Delta":109582357},{"NoteNumber":74,"Velocity":49,"Duration":101228,"SoundDuration":101228,"Delta":109784813},{"NoteNumber":58,"Velocity":35,"Duration":815139,"SoundDuration":815139,"Delta":109784813},{"NoteNumber":73,"Velocity":42,"Duration":103885,"SoundDuration":103885,"Delta":109987270},{"NoteNumber":52,"Velocity":31,"Duration":207770,"SoundDuration":207770,"Delta":109987270},{"NoteNumber":72,"Velocity":45,"Duration":101228,"SoundDuration":101228,"Delta":110195040},{"NoteNumber":53,"Velocity":35,"Duration":820756,"SoundDuration":820756,"Delta":110195040},{"NoteNumber":72,"Velocity":40,"Duration":101228,"SoundDuration":101228,"Delta":110397497},{"NoteNumber":77,"Velocity":48,"Duration":101228,"SoundDuration":101228,"Delta":110599953},{"NoteNumber":57,"Velocity":35,"Duration":415843,"SoundDuration":415843,"Delta":110599953},{"NoteNumber":77,"Velocity":43,"Duration":106693,"SoundDuration":106693,"Delta":110802410},{"NoteNumber":70,"Velocity":50,"Duration":416406,"SoundDuration":416406,"Delta":111015796},{"NoteNumber":58,"Velocity":39,"Duration":102725,"SoundDuration":102725,"Delta":111015796},{"NoteNumber":53,"Velocity":36,"Duration":105477,"SoundDuration":105477,"Delta":111221248},{"NoteNumber":50,"Velocity":35,"Duration":107112,"SoundDuration":107112,"Delta":111432203},{"NoteNumber":46,"Velocity":35,"Duration":113258,"SoundDuration":113258,"Delta":111646428},{"NoteNumber":63,"Velocity":39,"Duration":103719,"SoundDuration":103719,"Delta":111872945},{"NoteNumber":63,"Velocity":36,"Duration":103719,"SoundDuration":103719,"Delta":112080385},{"NoteNumber":63,"Velocity":35,"Duration":101881,"SoundDuration":101881,"Delta":112287825},{"NoteNumber":55,"Velocity":24,"Duration":415522,"SoundDuration":415522,"Delta":112287825},{"NoteNumber":58,"Velocity":29,"Duration":415522,"SoundDuration":415522,"Delta":112287825},{"NoteNumber":63,"Velocity":35,"Duration":105879,"SoundDuration":105879,"Delta":112491588},{"NoteNumber":72,"Velocity":41,"Duration":101881,"SoundDuration":101881,"Delta":112703348},{"NoteNumber":72,"Velocity":37,"Duration":101881,"SoundDuration":101881,"Delta":112907111},{"NoteNumber":72,"Velocity":37,"Duration":101881,"SoundDuration":101881,"Delta":113110874},{"NoteNumber":56,"Velocity":24,"Duration":413890,"SoundDuration":413890,"Delta":113110874},{"NoteNumber":63,"Velocity":29,"Duration":413890,"SoundDuration":413890,"Delta":113110874},{"NoteNumber":72,"Velocity":37,"Duration":105063,"SoundDuration":105063,"Delta":113314637},{"NoteNumber":65,"Velocity":40,"Duration":103348,"SoundDuration":103348,"Delta":113524765},{"NoteNumber":65,"Velocity":37,"Duration":103348,"SoundDuration":103348,"Delta":113731462},{"NoteNumber":70,"Velocity":40,"Duration":101522,"SoundDuration":101522,"Delta":113938159},{"NoteNumber":50,"Velocity":24,"Duration":413527,"SoundDuration":413527,"Delta":113938159},{"NoteNumber":53,"Velocity":29,"Duration":413527,"SoundDuration":413527,"Delta":113938159},{"NoteNumber":70,"Velocity":37,"Duration":105241,"SoundDuration":105241,"Delta":114141204},{"NoteNumber":68,"Velocity":36,"Duration":203045,"SoundDuration":203045,"Delta":114351686},{"NoteNumber":51,"Velocity":24,"Duration":203045,"SoundDuration":203045,"Delta":114351686},{"NoteNumber":58,"Velocity":29,"Duration":203045,"SoundDuration":203045,"Delta":114351686},{"NoteNumber":67,"Velocity":39,"Duration":152284,"SoundDuration":152284,"Delta":114554732},{"NoteNumber":65,"Velocity":42,"Duration":103114,"SoundDuration":103114,"Delta":114757777},{"NoteNumber":63,"Velocity":45,"Duration":103114,"SoundDuration":103114,"Delta":114964005},{"NoteNumber":79,"Velocity":48,"Duration":104405,"SoundDuration":104405,"Delta":115170233},{"NoteNumber":79,"Velocity":43,"Duration":101674,"SoundDuration":101674,"Delta":115379045},{"NoteNumber":63,"Velocity":30,"Duration":101674,"SoundDuration":101674,"Delta":115379045},{"NoteNumber":78,"Velocity":48,"Duration":101674,"SoundDuration":101674,"Delta":115582394},{"NoteNumber":62,"Velocity":35,"Duration":101674,"SoundDuration":101674,"Delta":115582394},{"NoteNumber":77,"Velocity":43,"Duration":103505,"SoundDuration":103505,"Delta":115785742},{"NoteNumber":59,"Velocity":32,"Duration":103505,"SoundDuration":103505,"Delta":115785742},{"NoteNumber":76,"Velocity":48,"Duration":100650,"SoundDuration":100650,"Delta":115992753},{"NoteNumber":60,"Velocity":35,"Duration":100650,"SoundDuration":100650,"Delta":115992753},{"NoteNumber":75,"Velocity":46,"Duration":100650,"SoundDuration":100650,"Delta":116194055},{"NoteNumber":57,"Velocity":29,"Duration":100650,"SoundDuration":100650,"Delta":116194055},{"NoteNumber":74,"Velocity":49,"Duration":100650,"SoundDuration":100650,"Delta":116395357},{"NoteNumber":58,"Velocity":35,"Duration":815769,"SoundDuration":815769,"Delta":116395357},{"NoteNumber":73,"Velocity":42,"Duration":103885,"SoundDuration":103885,"Delta":116596659},{"NoteNumber":52,"Velocity":31,"Duration":207770,"SoundDuration":207770,"Delta":116596659},{"NoteNumber":72,"Velocity":45,"Duration":101674,"SoundDuration":101674,"Delta":116804430},{"NoteNumber":53,"Velocity":35,"Duration":823431,"SoundDuration":823431,"Delta":116804430},{"NoteNumber":72,"Velocity":40,"Duration":101674,"SoundDuration":101674,"Delta":117007778},{"NoteNumber":77,"Velocity":48,"Duration":101674,"SoundDuration":101674,"Delta":117211127},{"NoteNumber":57,"Velocity":35,"Duration":416735,"SoundDuration":416735,"Delta":117211127},{"NoteNumber":77,"Velocity":43,"Duration":106693,"SoundDuration":106693,"Delta":117414475},{"NoteNumber":70,"Velocity":50,"Duration":416406,"SoundDuration":416406,"Delta":117627862},{"NoteNumber":58,"Velocity":39,"Duration":102725,"SoundDuration":102725,"Delta":117627862},{"NoteNumber":53,"Velocity":36,"Duration":105477,"SoundDuration":105477,"Delta":117833313},{"NoteNumber":50,"Velocity":35,"Duration":107112,"SoundDuration":107112,"Delta":118044269},{"NoteNumber":46,"Velocity":35,"Duration":112790,"SoundDuration":112790,"Delta":118258493},{"NoteNumber":61,"Velocity":46,"Duration":106413,"SoundDuration":106413,"Delta":118484074},{"NoteNumber":70,"Velocity":35,"Duration":206697,"SoundDuration":206697,"Delta":118696901},{"NoteNumber":61,"Velocity":39,"Duration":103348,"SoundDuration":103348,"Delta":118696901},{"NoteNumber":73,"Velocity":40,"Duration":203197,"SoundDuration":203197,"Delta":118903598},{"NoteNumber":61,"Velocity":39,"Duration":101598,"SoundDuration":101598,"Delta":118903598},{"NoteNumber":76,"Velocity":44,"Duration":203197,"SoundDuration":203197,"Delta":119106795},{"NoteNumber":61,"Velocity":39,"Duration":101598,"SoundDuration":101598,"Delta":119106795},{"NoteNumber":79,"Velocity":48,"Duration":201734,"SoundDuration":201734,"Delta":119309992},{"NoteNumber":52,"Velocity":44,"Duration":100867,"SoundDuration":100867,"Delta":119309992},{"NoteNumber":73,"Velocity":45,"Duration":201734,"SoundDuration":201734,"Delta":119511727},{"NoteNumber":52,"Velocity":39,"Duration":100867,"SoundDuration":100867,"Delta":119511727},{"NoteNumber":72,"Velocity":42,"Duration":201734,"SoundDuration":201734,"Delta":119713462},{"NoteNumber":52,"Velocity":39,"Duration":100867,"SoundDuration":100867,"Delta":119713462},{"NoteNumber":70,"Velocity":39,"Duration":206554,"SoundDuration":206554,"Delta":119915197},{"NoteNumber":52,"Velocity":39,"Duration":103277,"SoundDuration":103277,"Delta":119915197},{"NoteNumber":69,"Velocity":35,"Duration":203197,"SoundDuration":203197,"Delta":120121751},{"NoteNumber":60,"Velocity":44,"Duration":101598,"SoundDuration":101598,"Delta":120121751},{"NoteNumber":68,"Velocity":37,"Duration":201734,"SoundDuration":201734,"Delta":120324948},{"NoteNumber":60,"Velocity":38,"Duration":100867,"SoundDuration":100867,"Delta":120324948},{"NoteNumber":74,"Velocity":40,"Duration":201734,"SoundDuration":201734,"Delta":120526683},{"NoteNumber":60,"Velocity":38,"Duration":100867,"SoundDuration":100867,"Delta":120526683},{"NoteNumber":75,"Velocity":42,"Duration":201734,"SoundDuration":201734,"Delta":120728418},{"NoteNumber":60,"Velocity":39,"Duration":100867,"SoundDuration":100867,"Delta":120728418},{"NoteNumber":77,"Velocity":44,"Duration":203197,"SoundDuration":203197,"Delta":120930153},{"NoteNumber":50,"Velocity":44,"Duration":101598,"SoundDuration":101598,"Delta":120930153},{"NoteNumber":71,"Velocity":40,"Duration":203197,"SoundDuration":203197,"Delta":121133350},{"NoteNumber":50,"Velocity":37,"Duration":101598,"SoundDuration":101598,"Delta":121133350},{"NoteNumber":70,"Velocity":39,"Duration":203196,"SoundDuration":203196,"Delta":121336547},{"NoteNumber":50,"Velocity":37,"Duration":101598,"SoundDuration":101598,"Delta":121336547},{"NoteNumber":68,"Velocity":39,"Duration":211759,"SoundDuration":211759,"Delta":121539744},{"NoteNumber":50,"Velocity":39,"Duration":105879,"SoundDuration":105879,"Delta":121539744},{"NoteNumber":67,"Velocity":47,"Duration":202456,"SoundDuration":202456,"Delta":121751504},{"NoteNumber":51,"Velocity":41,"Duration":101228,"SoundDuration":101228,"Delta":121751504},{"NoteNumber":66,"Velocity":42,"Duration":202456,"SoundDuration":202456,"Delta":121953960},{"NoteNumber":51,"Velocity":42,"Duration":101228,"SoundDuration":101228,"Delta":121953960},{"NoteNumber":65,"Velocity":48,"Duration":202456,"SoundDuration":202456,"Delta":122156417},{"NoteNumber":50,"Velocity":44,"Duration":101228,"SoundDuration":101228,"Delta":122156417},{"NoteNumber":70,"Velocity":44,"Duration":202456,"SoundDuration":202456,"Delta":122358873},{"NoteNumber":49,"Velocity":47,"Duration":101228,"SoundDuration":101228,"Delta":122358873},{"NoteNumber":63,"Velocity":52,"Duration":203942,"SoundDuration":203942,"Delta":122561330},{"NoteNumber":48,"Velocity":49,"Duration":101971,"SoundDuration":101971,"Delta":122561330},{"NoteNumber":69,"Velocity":46,"Duration":203943,"SoundDuration":203943,"Delta":122765273},{"NoteNumber":47,"Velocity":49,"Duration":101971,"SoundDuration":101971,"Delta":122765273},{"NoteNumber":62,"Velocity":54,"Duration":204694,"SoundDuration":204694,"Delta":122969216},{"NoteNumber":46,"Velocity":47,"Duration":102347,"SoundDuration":102347,"Delta":122969216},{"NoteNumber":66,"Velocity":45,"Duration":209350,"SoundDuration":209350,"Delta":123173910},{"NoteNumber":63,"Velocity":45,"Duration":209350,"SoundDuration":209350,"Delta":123173910},{"NoteNumber":45,"Velocity":47,"Duration":104675,"SoundDuration":104675,"Delta":123173910},{"NoteNumber":62,"Velocity":49,"Duration":205451,"SoundDuration":205451,"Delta":123383261},{"NoteNumber":65,"Velocity":49,"Duration":205451,"SoundDuration":205451,"Delta":123383261},{"NoteNumber":46,"Velocity":50,"Duration":205451,"SoundDuration":205451,"Delta":123383261},{"NoteNumber":63,"Velocity":40,"Duration":205451,"SoundDuration":205451,"Delta":123588713},{"NoteNumber":66,"Velocity":40,"Duration":205451,"SoundDuration":205451,"Delta":123588713},{"NoteNumber":45,"Velocity":44,"Duration":205451,"SoundDuration":205451,"Delta":123588713},{"NoteNumber":62,"Velocity":48,"Duration":205451,"SoundDuration":205451,"Delta":123794164},{"NoteNumber":65,"Velocity":48,"Duration":205451,"SoundDuration":205451,"Delta":123794164},{"NoteNumber":46,"Velocity":50,"Duration":205451,"SoundDuration":205451,"Delta":123794164},{"NoteNumber":63,"Velocity":40,"Duration":205451,"SoundDuration":205451,"Delta":123999616},{"NoteNumber":66,"Velocity":40,"Duration":205451,"SoundDuration":205451,"Delta":123999616},{"NoteNumber":45,"Velocity":44,"Duration":205451,"SoundDuration":205451,"Delta":123999616},{"NoteNumber":62,"Velocity":41,"Duration":207112,"SoundDuration":207112,"Delta":124205067},{"NoteNumber":65,"Velocity":41,"Duration":207112,"SoundDuration":207112,"Delta":124205067},{"NoteNumber":46,"Velocity":44,"Duration":207112,"SoundDuration":207112,"Delta":124205067},{"NoteNumber":63,"Velocity":35,"Duration":208352,"SoundDuration":208352,"Delta":124412180},{"NoteNumber":67,"Velocity":35,"Duration":208352,"SoundDuration":208352,"Delta":124412180},{"NoteNumber":65,"Velocity":35,"Duration":209697,"SoundDuration":209697,"Delta":124620532},{"NoteNumber":68,"Velocity":35,"Duration":209697,"SoundDuration":209697,"Delta":124620532},{"NoteNumber":62,"Velocity":35,"Duration":210994,"SoundDuration":210994,"Delta":124830229},{"NoteNumber":65,"Velocity":35,"Duration":210994,"SoundDuration":210994,"Delta":124830229},{"NoteNumber":63,"Velocity":39,"Duration":102347,"SoundDuration":102347,"Delta":125041224},{"NoteNumber":63,"Velocity":36,"Duration":102347,"SoundDuration":102347,"Delta":125245919},{"NoteNumber":63,"Velocity":35,"Duration":101228,"SoundDuration":101228,"Delta":125450613},{"NoteNumber":55,"Velocity":29,"Duration":414215,"SoundDuration":414215,"Delta":125450613},{"NoteNumber":58,"Velocity":35,"Duration":414215,"SoundDuration":414215,"Delta":125450613},{"NoteNumber":63,"Velocity":35,"Duration":105879,"SoundDuration":105879,"Delta":125653070},{"NoteNumber":72,"Velocity":41,"Duration":101228,"SoundDuration":101228,"Delta":125864829},{"NoteNumber":72,"Velocity":37,"Duration":101228,"SoundDuration":101228,"Delta":126067286},{"NoteNumber":72,"Velocity":37,"Duration":101228,"SoundDuration":101228,"Delta":126269742},{"NoteNumber":56,"Velocity":29,"Duration":412584,"SoundDuration":412584,"Delta":126269742},{"NoteNumber":63,"Velocity":35,"Duration":412584,"SoundDuration":412584,"Delta":126269742},{"NoteNumber":72,"Velocity":37,"Duration":105063,"SoundDuration":105063,"Delta":126472199},{"NoteNumber":65,"Velocity":40,"Duration":101971,"SoundDuration":101971,"Delta":126682327},{"NoteNumber":65,"Velocity":37,"Duration":101971,"SoundDuration":101971,"Delta":126886270},{"NoteNumber":70,"Velocity":40,"Duration":101228,"SoundDuration":101228,"Delta":127090213},{"NoteNumber":50,"Velocity":29,"Duration":410645,"SoundDuration":410645,"Delta":127090213},{"NoteNumber":53,"Velocity":35,"Duration":410645,"SoundDuration":410645,"Delta":127090213},{"NoteNumber":70,"Velocity":37,"Duration":104094,"SoundDuration":104094,"Delta":127292669},{"NoteNumber":68,"Velocity":36,"Duration":201613,"SoundDuration":201613,"Delta":127500858},{"NoteNumber":51,"Velocity":29,"Duration":201613,"SoundDuration":201613,"Delta":127500858},{"NoteNumber":58,"Velocity":35,"Duration":201613,"SoundDuration":201613,"Delta":127500858},{"NoteNumber":67,"Velocity":39,"Duration":151209,"SoundDuration":151209,"Delta":127702471},{"NoteNumber":65,"Velocity":42,"Duration":103114,"SoundDuration":103114,"Delta":127904084},{"NoteNumber":63,"Velocity":45,"Duration":103113,"SoundDuration":103113,"Delta":128110312},{"NoteNumber":72,"Velocity":48,"Duration":103277,"SoundDuration":103277,"Delta":128316540},{"NoteNumber":84,"Velocity":43,"Duration":101098,"SoundDuration":101098,"Delta":128523095},{"NoteNumber":68,"Velocity":30,"Duration":101098,"SoundDuration":101098,"Delta":128523095},{"NoteNumber":83,"Velocity":48,"Duration":101098,"SoundDuration":101098,"Delta":128725292},{"NoteNumber":67,"Velocity":35,"Duration":101098,"SoundDuration":101098,"Delta":128725292},{"NoteNumber":82,"Velocity":43,"Duration":103505,"SoundDuration":103505,"Delta":128927489},{"NoteNumber":64,"Velocity":32,"Duration":103505,"SoundDuration":103505,"Delta":128927489},{"NoteNumber":81,"Velocity":48,"Duration":101228,"SoundDuration":101228,"Delta":129134500},{"NoteNumber":65,"Velocity":35,"Duration":101228,"SoundDuration":101228,"Delta":129134500},{"NoteNumber":80,"Velocity":46,"Duration":101228,"SoundDuration":101228,"Delta":129336956},{"NoteNumber":62,"Velocity":29,"Duration":101228,"SoundDuration":101228,"Delta":129336956},{"NoteNumber":79,"Velocity":49,"Duration":101228,"SoundDuration":101228,"Delta":129539413},{"NoteNumber":63,"Velocity":35,"Duration":815140,"SoundDuration":815140,"Delta":129539413},{"NoteNumber":78,"Velocity":42,"Duration":103885,"SoundDuration":103885,"Delta":129741869},{"NoteNumber":57,"Velocity":31,"Duration":207770,"SoundDuration":207770,"Delta":129741869},{"NoteNumber":77,"Velocity":45,"Duration":101228,"SoundDuration":101228,"Delta":129949640},{"NoteNumber":58,"Velocity":35,"Duration":820756,"SoundDuration":820756,"Delta":129949640},{"NoteNumber":77,"Velocity":40,"Duration":101228,"SoundDuration":101228,"Delta":130152096},{"NoteNumber":82,"Velocity":48,"Duration":101228,"SoundDuration":101228,"Delta":130354553},{"NoteNumber":62,"Velocity":35,"Duration":415843,"SoundDuration":415843,"Delta":130354553},{"NoteNumber":82,"Velocity":43,"Duration":106693,"SoundDuration":106693,"Delta":130557009},{"NoteNumber":75,"Velocity":50,"Duration":416407,"SoundDuration":416407,"Delta":130770396},{"NoteNumber":63,"Velocity":39,"Duration":102725,"SoundDuration":102725,"Delta":130770396},{"NoteNumber":58,"Velocity":36,"Duration":105477,"SoundDuration":105477,"Delta":130975847},{"NoteNumber":55,"Velocity":35,"Duration":107112,"SoundDuration":107112,"Delta":131186803},{"NoteNumber":51,"Velocity":35,"Duration":113258,"SoundDuration":113258,"Delta":131401027},{"NoteNumber":61,"Velocity":46,"Duration":104406,"SoundDuration":104406,"Delta":131627545},{"NoteNumber":70,"Velocity":35,"Duration":206696,"SoundDuration":206696,"Delta":131836357},{"NoteNumber":61,"Velocity":39,"Duration":103348,"SoundDuration":103348,"Delta":131836357},{"NoteNumber":73,"Velocity":40,"Duration":203196,"SoundDuration":203196,"Delta":132043054},{"NoteNumber":61,"Velocity":39,"Duration":101598,"SoundDuration":101598,"Delta":132043054},{"NoteNumber":76,"Velocity":44,"Duration":203197,"SoundDuration":203197,"Delta":132246251},{"NoteNumber":61,"Velocity":39,"Duration":101598,"SoundDuration":101598,"Delta":132246251},{"NoteNumber":79,"Velocity":48,"Duration":201735,"SoundDuration":201735,"Delta":132449448},{"NoteNumber":52,"Velocity":44,"Duration":100867,"SoundDuration":100867,"Delta":132449448},{"NoteNumber":73,"Velocity":45,"Duration":201734,"SoundDuration":201734,"Delta":132651183},{"NoteNumber":52,"Velocity":39,"Duration":100867,"SoundDuration":100867,"Delta":132651183},{"NoteNumber":72,"Velocity":42,"Duration":201735,"SoundDuration":201735,"Delta":132852918},{"NoteNumber":52,"Velocity":39,"Duration":100867,"SoundDuration":100867,"Delta":132852918},{"NoteNumber":70,"Velocity":39,"Duration":205085,"SoundDuration":205085,"Delta":133054653},{"NoteNumber":52,"Velocity":39,"Duration":102542,"SoundDuration":102542,"Delta":133054653},{"NoteNumber":69,"Velocity":35,"Duration":203196,"SoundDuration":203196,"Delta":133259739},{"NoteNumber":60,"Velocity":44,"Duration":101598,"SoundDuration":101598,"Delta":133259739},{"NoteNumber":68,"Velocity":37,"Duration":201735,"SoundDuration":201735,"Delta":133462936},{"NoteNumber":60,"Velocity":38,"Duration":100867,"SoundDuration":100867,"Delta":133462936},{"NoteNumber":74,"Velocity":40,"Duration":201734,"SoundDuration":201734,"Delta":133664671},{"NoteNumber":60,"Velocity":38,"Duration":100867,"SoundDuration":100867,"Delta":133664671},{"NoteNumber":75,"Velocity":42,"Duration":201735,"SoundDuration":201735,"Delta":133866406},{"NoteNumber":60,"Velocity":39,"Duration":100867,"SoundDuration":100867,"Delta":133866406},{"NoteNumber":77,"Velocity":44,"Duration":203196,"SoundDuration":203196,"Delta":134068141},{"NoteNumber":50,"Velocity":44,"Duration":101598,"SoundDuration":101598,"Delta":134068141},{"NoteNumber":71,"Velocity":40,"Duration":203197,"SoundDuration":203197,"Delta":134271338},{"NoteNumber":50,"Velocity":37,"Duration":101598,"SoundDuration":101598,"Delta":134271338},{"NoteNumber":70,"Velocity":39,"Duration":203196,"SoundDuration":203196,"Delta":134474535},{"NoteNumber":50,"Velocity":37,"Duration":101598,"SoundDuration":101598,"Delta":134474535},{"NoteNumber":68,"Velocity":39,"Duration":211759,"SoundDuration":211759,"Delta":134677732},{"NoteNumber":50,"Velocity":39,"Duration":105879,"SoundDuration":105879,"Delta":134677732},{"NoteNumber":67,"Velocity":47,"Duration":202456,"SoundDuration":202456,"Delta":134889491},{"NoteNumber":51,"Velocity":41,"Duration":101228,"SoundDuration":101228,"Delta":134889491},{"NoteNumber":66,"Velocity":42,"Duration":202456,"SoundDuration":202456,"Delta":135091948},{"NoteNumber":51,"Velocity":42,"Duration":101228,"SoundDuration":101228,"Delta":135091948},{"NoteNumber":65,"Velocity":48,"Duration":202456,"SoundDuration":202456,"Delta":135294404},{"NoteNumber":50,"Velocity":44,"Duration":101228,"SoundDuration":101228,"Delta":135294404},{"NoteNumber":70,"Velocity":44,"Duration":202456,"SoundDuration":202456,"Delta":135496861},{"NoteNumber":49,"Velocity":47,"Duration":101228,"SoundDuration":101228,"Delta":135496861},{"NoteNumber":63,"Velocity":52,"Duration":203943,"SoundDuration":203943,"Delta":135699317},{"NoteNumber":48,"Velocity":49,"Duration":101971,"SoundDuration":101971,"Delta":135699317},{"NoteNumber":69,"Velocity":46,"Duration":203942,"SoundDuration":203942,"Delta":135903260},{"NoteNumber":47,"Velocity":49,"Duration":101971,"SoundDuration":101971,"Delta":135903260},{"NoteNumber":62,"Velocity":54,"Duration":204694,"SoundDuration":204694,"Delta":136107203},{"NoteNumber":46,"Velocity":47,"Duration":102347,"SoundDuration":102347,"Delta":136107203},{"NoteNumber":66,"Velocity":45,"Duration":209350,"SoundDuration":209350,"Delta":136311898},{"NoteNumber":63,"Velocity":45,"Duration":209350,"SoundDuration":209350,"Delta":136311898},{"NoteNumber":45,"Velocity":47,"Duration":104675,"SoundDuration":104675,"Delta":136311898},{"NoteNumber":62,"Velocity":49,"Duration":205451,"SoundDuration":205451,"Delta":136521249},{"NoteNumber":65,"Velocity":49,"Duration":205451,"SoundDuration":205451,"Delta":136521249},{"NoteNumber":46,"Velocity":50,"Duration":205451,"SoundDuration":205451,"Delta":136521249},{"NoteNumber":63,"Velocity":40,"Duration":205451,"SoundDuration":205451,"Delta":136726700},{"NoteNumber":66,"Velocity":40,"Duration":205451,"SoundDuration":205451,"Delta":136726700},{"NoteNumber":45,"Velocity":44,"Duration":205451,"SoundDuration":205451,"Delta":136726700},{"NoteNumber":62,"Velocity":48,"Duration":205451,"SoundDuration":205451,"Delta":136932152},{"NoteNumber":65,"Velocity":48,"Duration":205451,"SoundDuration":205451,"Delta":136932152},{"NoteNumber":46,"Velocity":50,"Duration":205451,"SoundDuration":205451,"Delta":136932152},{"NoteNumber":63,"Velocity":40,"Duration":205451,"SoundDuration":205451,"Delta":137137603},{"NoteNumber":66,"Velocity":40,"Duration":205451,"SoundDuration":205451,"Delta":137137603},{"NoteNumber":45,"Velocity":44,"Duration":205451,"SoundDuration":205451,"Delta":137137603},{"NoteNumber":62,"Velocity":41,"Duration":207112,"SoundDuration":207112,"Delta":137343055},{"NoteNumber":65,"Velocity":41,"Duration":207112,"SoundDuration":207112,"Delta":137343055},{"NoteNumber":46,"Velocity":44,"Duration":207112,"SoundDuration":207112,"Delta":137343055},{"NoteNumber":63,"Velocity":35,"Duration":208352,"SoundDuration":208352,"Delta":137550167},{"NoteNumber":67,"Velocity":35,"Duration":208352,"SoundDuration":208352,"Delta":137550167},{"NoteNumber":65,"Velocity":35,"Duration":209697,"SoundDuration":209697,"Delta":137758519},{"NoteNumber":68,"Velocity":35,"Duration":209697,"SoundDuration":209697,"Delta":137758519},{"NoteNumber":62,"Velocity":35,"Duration":210994,"SoundDuration":210994,"Delta":137968217},{"NoteNumber":65,"Velocity":35,"Duration":210994,"SoundDuration":210994,"Delta":137968217},{"NoteNumber":63,"Velocity":39,"Duration":102347,"SoundDuration":102347,"Delta":138179211},{"NoteNumber":63,"Velocity":36,"Duration":102347,"SoundDuration":102347,"Delta":138383906},{"NoteNumber":63,"Velocity":35,"Duration":101228,"SoundDuration":101228,"Delta":138588600},{"NoteNumber":55,"Velocity":29,"Duration":414216,"SoundDuration":414216,"Delta":138588600},{"NoteNumber":58,"Velocity":35,"Duration":414216,"SoundDuration":414216,"Delta":138588600},{"NoteNumber":63,"Velocity":35,"Duration":105879,"SoundDuration":105879,"Delta":138791057},{"NoteNumber":72,"Velocity":41,"Duration":101228,"SoundDuration":101228,"Delta":139002816},{"NoteNumber":72,"Velocity":37,"Duration":101228,"SoundDuration":101228,"Delta":139205273},{"NoteNumber":72,"Velocity":37,"Duration":101228,"SoundDuration":101228,"Delta":139407729},{"NoteNumber":56,"Velocity":29,"Duration":412584,"SoundDuration":412584,"Delta":139407729},{"NoteNumber":63,"Velocity":35,"Duration":412584,"SoundDuration":412584,"Delta":139407729},{"NoteNumber":72,"Velocity":37,"Duration":105063,"SoundDuration":105063,"Delta":139610186},{"NoteNumber":65,"Velocity":40,"Duration":101971,"SoundDuration":101971,"Delta":139820314},{"NoteNumber":65,"Velocity":37,"Duration":101971,"SoundDuration":101971,"Delta":140024257},{"NoteNumber":70,"Velocity":40,"Duration":101228,"SoundDuration":101228,"Delta":140228200},{"NoteNumber":50,"Velocity":29,"Duration":410645,"SoundDuration":410645,"Delta":140228200},{"NoteNumber":53,"Velocity":35,"Duration":410645,"SoundDuration":410645,"Delta":140228200},{"NoteNumber":70,"Velocity":37,"Duration":104094,"SoundDuration":104094,"Delta":140430656},{"NoteNumber":68,"Velocity":36,"Duration":201613,"SoundDuration":201613,"Delta":140638845},{"NoteNumber":51,"Velocity":29,"Duration":201613,"SoundDuration":201613,"Delta":140638845},{"NoteNumber":58,"Velocity":35,"Duration":201613,"SoundDuration":201613,"Delta":140638845},{"NoteNumber":67,"Velocity":39,"Duration":151209,"SoundDuration":151209,"Delta":140840458},{"NoteNumber":65,"Velocity":42,"Duration":103114,"SoundDuration":103114,"Delta":141042071},{"NoteNumber":63,"Velocity":45,"Duration":103113,"SoundDuration":103113,"Delta":141248299},{"NoteNumber":72,"Velocity":48,"Duration":103277,"SoundDuration":103277,"Delta":141454527},{"NoteNumber":84,"Velocity":43,"Duration":101674,"SoundDuration":101674,"Delta":141661082},{"NoteNumber":68,"Velocity":30,"Duration":101674,"SoundDuration":101674,"Delta":141661082},{"NoteNumber":83,"Velocity":48,"Duration":101674,"SoundDuration":101674,"Delta":141864430},{"NoteNumber":67,"Velocity":35,"Duration":101674,"SoundDuration":101674,"Delta":141864430},{"NoteNumber":82,"Velocity":43,"Duration":103505,"SoundDuration":103505,"Delta":142067779},{"NoteNumber":64,"Velocity":32,"Duration":103505,"SoundDuration":103505,"Delta":142067779},{"NoteNumber":81,"Velocity":48,"Duration":101330,"SoundDuration":101330,"Delta":142274790},{"NoteNumber":65,"Velocity":35,"Duration":101330,"SoundDuration":101330,"Delta":142274790},{"NoteNumber":80,"Velocity":46,"Duration":101330,"SoundDuration":101330,"Delta":142477451},{"NoteNumber":62,"Velocity":29,"Duration":101330,"SoundDuration":101330,"Delta":142477451},{"NoteNumber":79,"Velocity":49,"Duration":101330,"SoundDuration":101330,"Delta":142680113},{"NoteNumber":63,"Velocity":35,"Duration":815344,"SoundDuration":815344,"Delta":142680113},{"NoteNumber":78,"Velocity":42,"Duration":103885,"SoundDuration":103885,"Delta":142882774},{"NoteNumber":57,"Velocity":31,"Duration":207770,"SoundDuration":207770,"Delta":142882774},{"NoteNumber":77,"Velocity":45,"Duration":101228,"SoundDuration":101228,"Delta":143090545},{"NoteNumber":58,"Velocity":35,"Duration":820756,"SoundDuration":820756,"Delta":143090545},{"NoteNumber":77,"Velocity":40,"Duration":101228,"SoundDuration":101228,"Delta":143293001},{"NoteNumber":82,"Velocity":48,"Duration":101228,"SoundDuration":101228,"Delta":143495458},{"NoteNumber":62,"Velocity":35,"Duration":415843,"SoundDuration":415843,"Delta":143495458},{"NoteNumber":82,"Velocity":43,"Duration":106693,"SoundDuration":106693,"Delta":143697914},{"NoteNumber":75,"Velocity":50,"Duration":416407,"SoundDuration":416407,"Delta":143911301},{"NoteNumber":63,"Velocity":39,"Duration":102725,"SoundDuration":102725,"Delta":143911301},{"NoteNumber":58,"Velocity":36,"Duration":105477,"SoundDuration":105477,"Delta":144116752},{"NoteNumber":55,"Velocity":35,"Duration":107112,"SoundDuration":107112,"Delta":144327708},{"NoteNumber":51,"Velocity":35,"Duration":107936,"SoundDuration":107936,"Delta":144541932},{"NoteNumber":55,"Velocity":35,"Duration":100806,"SoundDuration":100806,"Delta":144757806},{"NoteNumber":67,"Velocity":38,"Duration":211693,"SoundDuration":211693,"Delta":144959419},{"NoteNumber":66,"Velocity":39,"Duration":210065,"SoundDuration":210065,"Delta":145161032},{"NoteNumber":71,"Velocity":37,"Duration":208141,"SoundDuration":208141,"Delta":145361140},{"NoteNumber":65,"Velocity":39,"Duration":208141,"SoundDuration":208141,"Delta":145361140},{"NoteNumber":72,"Velocity":39,"Duration":208757,"SoundDuration":208757,"Delta":145559380},{"NoteNumber":63,"Velocity":40,"Duration":208757,"SoundDuration":208757,"Delta":145559380},{"NoteNumber":74,"Velocity":40,"Duration":209548,"SoundDuration":209548,"Delta":145758161},{"NoteNumber":62,"Velocity":41,"Duration":209548,"SoundDuration":209548,"Delta":145758161},{"NoteNumber":75,"Velocity":42,"Duration":210314,"SoundDuration":210314,"Delta":145957699},{"NoteNumber":60,"Velocity":42,"Duration":210314,"SoundDuration":210314,"Delta":145957699},{"NoteNumber":76,"Velocity":44,"Duration":200995,"SoundDuration":200995,"Delta":146157968},{"NoteNumber":58,"Velocity":43,"Duration":200995,"SoundDuration":200995,"Delta":146157968},{"NoteNumber":77,"Velocity":46,"Duration":100806,"SoundDuration":100806,"Delta":146358963},{"NoteNumber":57,"Velocity":44,"Duration":396675,"SoundDuration":396675,"Delta":146358963},{"NoteNumber":89,"Velocity":54,"Duration":205127,"SoundDuration":205127,"Delta":146560314},{"NoteNumber":88,"Velocity":50,"Duration":206037,"SoundDuration":206037,"Delta":146755639},{"NoteNumber":87,"Velocity":52,"Duration":209747,"SoundDuration":209747,"Delta":146951677},{"NoteNumber":69,"Velocity":40,"Duration":209747,"SoundDuration":209747,"Delta":146951677},{"NoteNumber":86,"Velocity":53,"Duration":205229,"SoundDuration":205229,"Delta":147151664},{"NoteNumber":70,"Velocity":45,"Duration":205229,"SoundDuration":205229,"Delta":147151664},{"NoteNumber":84,"Velocity":55,"Duration":206489,"SoundDuration":206489,"Delta":147347061},{"NoteNumber":72,"Velocity":40,"Duration":206489,"SoundDuration":206489,"Delta":147347061},{"NoteNumber":82,"Velocity":57,"Duration":206837,"SoundDuration":206837,"Delta":147543718},{"NoteNumber":74,"Velocity":44,"Duration":206837,"SoundDuration":206837,"Delta":147543718},{"NoteNumber":80,"Velocity":59,"Duration":200306,"SoundDuration":200306,"Delta":147740509},{"NoteNumber":72,"Velocity":42,"Duration":200306,"SoundDuration":200306,"Delta":147740509},{"NoteNumber":79,"Velocity":59,"Duration":98386,"SoundDuration":98386,"Delta":147940816},{"NoteNumber":71,"Velocity":49,"Duration":98386,"SoundDuration":98386,"Delta":147940816},{"NoteNumber":87,"Velocity":51,"Duration":101522,"SoundDuration":101522,"Delta":148137589},{"NoteNumber":72,"Velocity":43,"Duration":101522,"SoundDuration":101522,"Delta":148137589},{"NoteNumber":77,"Velocity":58,"Duration":98386,"SoundDuration":98386,"Delta":148340635},{"NoteNumber":69,"Velocity":49,"Duration":98386,"SoundDuration":98386,"Delta":148340635},{"NoteNumber":86,"Velocity":51,"Duration":101522,"SoundDuration":101522,"Delta":148537408},{"NoteNumber":70,"Velocity":44,"Duration":101522,"SoundDuration":101522,"Delta":148537408},{"NoteNumber":75,"Velocity":60,"Duration":98386,"SoundDuration":98386,"Delta":148740453},{"NoteNumber":67,"Velocity":49,"Duration":98386,"SoundDuration":98386,"Delta":148740453},{"NoteNumber":84,"Velocity":52,"Duration":101159,"SoundDuration":101159,"Delta":148937226},{"NoteNumber":69,"Velocity":43,"Duration":101159,"SoundDuration":101159,"Delta":148937226},{"NoteNumber":74,"Velocity":60,"Duration":98386,"SoundDuration":98386,"Delta":149139546},{"NoteNumber":66,"Velocity":48,"Duration":98386,"SoundDuration":98386,"Delta":149139546},{"NoteNumber":82,"Velocity":53,"Duration":101881,"SoundDuration":101881,"Delta":149336319},{"NoteNumber":67,"Velocity":43,"Duration":101881,"SoundDuration":101881,"Delta":149336319},{"NoteNumber":67,"Velocity":48,"Duration":803901,"SoundDuration":803901,"Delta":149540082},{"NoteNumber":70,"Velocity":57,"Duration":803901,"SoundDuration":803901,"Delta":149540082},{"NoteNumber":82,"Velocity":51,"Duration":198820,"SoundDuration":198820,"Delta":149738903},{"NoteNumber":79,"Velocity":59,"Duration":198820,"SoundDuration":198820,"Delta":149937723},{"NoteNumber":76,"Velocity":51,"Duration":207439,"SoundDuration":207439,"Delta":150136544},{"NoteNumber":77,"Velocity":59,"Duration":199508,"SoundDuration":199508,"Delta":150343984},{"NoteNumber":65,"Velocity":29,"Duration":399015,"SoundDuration":399015,"Delta":150343984},{"NoteNumber":69,"Velocity":35,"Duration":399015,"SoundDuration":399015,"Delta":150343984},{"NoteNumber":81,"Velocity":49,"Duration":199507,"SoundDuration":199507,"Delta":150543492},{"NoteNumber":84,"Velocity":61,"Duration":99754,"SoundDuration":99754,"Delta":150743000},{"NoteNumber":84,"Velocity":51,"Duration":99753,"SoundDuration":99753,"Delta":150942508},{"NoteNumber":67,"Velocity":33,"Duration":793587,"SoundDuration":793587,"Delta":151142016},{"NoteNumber":70,"Velocity":39,"Duration":793587,"SoundDuration":793587,"Delta":151142016},{"NoteNumber":84,"Velocity":55,"Duration":107624,"SoundDuration":107624,"Delta":151339287},{"NoteNumber":82,"Velocity":54,"Duration":108069,"SoundDuration":108069,"Delta":151437107},{"NoteNumber":81,"Velocity":52,"Duration":108630,"SoundDuration":108630,"Delta":151535337},{"NoteNumber":79,"Velocity":51,"Duration":109338,"SoundDuration":109338,"Delta":151634061},{"NoteNumber":77,"Velocity":50,"Duration":111276,"SoundDuration":111276,"Delta":151733283},{"NoteNumber":76,"Velocity":48,"Duration":101159,"SoundDuration":101159,"Delta":151834443},{"NoteNumber":77,"Velocity":52,"Duration":98386,"SoundDuration":98386,"Delta":151935603},{"NoteNumber":65,"Velocity":27,"Duration":398139,"SoundDuration":398139,"Delta":151935603},{"NoteNumber":69,"Velocity":32,"Duration":398139,"SoundDuration":398139,"Delta":151935603},{"NoteNumber":72,"Velocity":45,"Duration":98386,"SoundDuration":98386,"Delta":152033990},{"NoteNumber":77,"Velocity":48,"Duration":98386,"SoundDuration":98386,"Delta":152132376},{"NoteNumber":81,"Velocity":45,"Duration":102979,"SoundDuration":102979,"Delta":152230763},{"NoteNumber":84,"Velocity":52,"Duration":99753,"SoundDuration":99753,"Delta":152333742},{"NoteNumber":84,"Velocity":49,"Duration":103720,"SoundDuration":103720,"Delta":152533250},{"NoteNumber":67,"Velocity":29,"Duration":793448,"SoundDuration":793448,"Delta":152740690},{"NoteNumber":70,"Velocity":35,"Duration":793448,"SoundDuration":793448,"Delta":152740690},{"NoteNumber":81,"Velocity":47,"Duration":107622,"SoundDuration":107622,"Delta":152840100},{"NoteNumber":84,"Velocity":53,"Duration":107624,"SoundDuration":107624,"Delta":152937962},{"NoteNumber":82,"Velocity":51,"Duration":108069,"SoundDuration":108069,"Delta":153035781},{"NoteNumber":81,"Velocity":49,"Duration":108630,"SoundDuration":108630,"Delta":153134012},{"NoteNumber":79,"Velocity":47,"Duration":109338,"SoundDuration":109338,"Delta":153232735},{"NoteNumber":77,"Velocity":45,"Duration":111276,"SoundDuration":111276,"Delta":153331958},{"NoteNumber":76,"Velocity":43,"Duration":101021,"SoundDuration":101021,"Delta":153433118},{"NoteNumber":77,"Velocity":48,"Duration":108032,"SoundDuration":108032,"Delta":153534139},{"NoteNumber":65,"Velocity":28,"Duration":400934,"SoundDuration":400934,"Delta":153534139},{"NoteNumber":69,"Velocity":33,"Duration":400934,"SoundDuration":400934,"Delta":153534139},{"NoteNumber":78,"Velocity":40,"Duration":109489,"SoundDuration":109489,"Delta":153632287},{"NoteNumber":81,"Velocity":47,"Duration":111097,"SoundDuration":111097,"Delta":153731743},{"NoteNumber":79,"Velocity":46,"Duration":112756,"SoundDuration":112756,"Delta":153832652},{"NoteNumber":77,"Velocity":45,"Duration":114242,"SoundDuration":114242,"Delta":153935074},{"NoteNumber":75,"Velocity":43,"Duration":115487,"SoundDuration":115487,"Delta":154038907},{"NoteNumber":74,"Velocity":42,"Duration":122195,"SoundDuration":122195,"Delta":154143286},{"NoteNumber":73,"Velocity":41,"Duration":111086,"SoundDuration":111086,"Delta":154254372},{"NoteNumber":74,"Velocity":47,"Duration":205874,"SoundDuration":205874,"Delta":154365459},{"NoteNumber":58,"Velocity":29,"Duration":205874,"SoundDuration":205874,"Delta":154365459},{"NoteNumber":65,"Velocity":23,"Duration":205874,"SoundDuration":205874,"Delta":154571333},{"NoteNumber":75,"Velocity":48,"Duration":211067,"SoundDuration":211067,"Delta":154777208},{"NoteNumber":60,"Velocity":23,"Duration":211067,"SoundDuration":211067,"Delta":154777208},{"NoteNumber":65,"Velocity":23,"Duration":210851,"SoundDuration":210851,"Delta":154988275},{"NoteNumber":76,"Velocity":52,"Duration":410115,"SoundDuration":410115,"Delta":155199127},{"NoteNumber":62,"Velocity":23,"Duration":205058,"SoundDuration":205058,"Delta":155199127},{"NoteNumber":65,"Velocity":23,"Duration":205057,"SoundDuration":205057,"Delta":155404185},{"NoteNumber":77,"Velocity":48,"Duration":205874,"SoundDuration":205874,"Delta":155609243},{"NoteNumber":58,"Velocity":23,"Duration":205874,"SoundDuration":205874,"Delta":155609243},{"NoteNumber":74,"Velocity":44,"Duration":102937,"SoundDuration":102937,"Delta":155815118},{"NoteNumber":65,"Velocity":25,"Duration":205874,"SoundDuration":205874,"Delta":155815118},{"NoteNumber":74,"Velocity":45,"Duration":51468,"SoundDuration":51468,"Delta":155969524},{"NoteNumber":72,"Velocity":49,"Duration":98658,"SoundDuration":98658,"Delta":156020992},{"NoteNumber":57,"Velocity":30,"Duration":197316,"SoundDuration":197316,"Delta":156020992},{"NoteNumber":71,"Velocity":45,"Duration":104166,"SoundDuration":104166,"Delta":156218309},{"NoteNumber":65,"Velocity":23,"Duration":208333,"SoundDuration":208333,"Delta":156218309},{"NoteNumber":72,"Velocity":48,"Duration":100173,"SoundDuration":100173,"Delta":156426642},{"NoteNumber":58,"Velocity":25,"Duration":200347,"SoundDuration":200347,"Delta":156426642},{"NoteNumber":74,"Velocity":47,"Duration":102529,"SoundDuration":102529,"Delta":156626990},{"NoteNumber":65,"Velocity":25,"Duration":205058,"SoundDuration":205058,"Delta":156626990},{"NoteNumber":77,"Velocity":51,"Duration":410969,"SoundDuration":410969,"Delta":156832048},{"NoteNumber":60,"Velocity":25,"Duration":203472,"SoundDuration":203472,"Delta":156832048},{"NoteNumber":65,"Velocity":25,"Duration":207497,"SoundDuration":207497,"Delta":157035520},{"NoteNumber":75,"Velocity":46,"Duration":203472,"SoundDuration":203472,"Delta":157243018},{"NoteNumber":63,"Velocity":25,"Duration":203472,"SoundDuration":203472,"Delta":157243018},{"NoteNumber":69,"Velocity":43,"Duration":101736,"SoundDuration":101736,"Delta":157446490},{"NoteNumber":65,"Velocity":24,"Duration":203472,"SoundDuration":203472,"Delta":157446490},{"NoteNumber":70,"Velocity":49,"Duration":97187,"SoundDuration":97187,"Delta":157649963},{"NoteNumber":62,"Velocity":31,"Duration":97187,"SoundDuration":97187,"Delta":157649963},{"NoteNumber":70,"Velocity":46,"Duration":412633,"SoundDuration":412633,"Delta":157844339},{"NoteNumber":65,"Velocity":24,"Duration":209161,"SoundDuration":209161,"Delta":157844339},{"NoteNumber":62,"Velocity":31,"Duration":203472,"SoundDuration":203472,"Delta":158053500},{"NoteNumber":71,"Velocity":46,"Duration":203472,"SoundDuration":203472,"Delta":158256973},{"NoteNumber":65,"Velocity":24,"Duration":203472,"SoundDuration":203472,"Delta":158256973},{"NoteNumber":72,"Velocity":50,"Duration":96836,"SoundDuration":96836,"Delta":158460445},{"NoteNumber":57,"Velocity":32,"Duration":96836,"SoundDuration":96836,"Delta":158460445},{"NoteNumber":72,"Velocity":47,"Duration":410539,"SoundDuration":410539,"Delta":158654119},{"NoteNumber":65,"Velocity":26,"Duration":205874,"SoundDuration":205874,"Delta":158654119},{"NoteNumber":57,"Velocity":32,"Duration":204665,"SoundDuration":204665,"Delta":158859993},{"NoteNumber":73,"Velocity":47,"Duration":204262,"SoundDuration":204262,"Delta":159064659},{"NoteNumber":65,"Velocity":27,"Duration":204262,"SoundDuration":204262,"Delta":159064659},{"NoteNumber":74,"Velocity":53,"Duration":97561,"SoundDuration":97561,"Delta":159268921},{"NoteNumber":58,"Velocity":32,"Duration":97561,"SoundDuration":97561,"Delta":159268921},{"NoteNumber":72,"Velocity":49,"Duration":102937,"SoundDuration":102937,"Delta":159464043},{"NoteNumber":57,"Velocity":28,"Duration":102937,"SoundDuration":102937,"Delta":159464043},{"NoteNumber":74,"Velocity":54,"Duration":98658,"SoundDuration":98658,"Delta":159669918},{"NoteNumber":58,"Velocity":28,"Duration":98658,"SoundDuration":98658,"Delta":159669918},{"NoteNumber":72,"Velocity":50,"Duration":105425,"SoundDuration":105425,"Delta":159867234},{"NoteNumber":75,"Velocity":50,"Duration":105425,"SoundDuration":105425,"Delta":159867234},{"NoteNumber":51,"Velocity":28,"Duration":105425,"SoundDuration":105425,"Delta":159867234},{"NoteNumber":70,"Velocity":55,"Duration":402253,"SoundDuration":402253,"Delta":160078086},{"NoteNumber":74,"Velocity":55,"Duration":402253,"SoundDuration":402253,"Delta":160078086},{"NoteNumber":53,"Velocity":32,"Duration":402253,"SoundDuration":402253,"Delta":160078086},{"NoteNumber":69,"Velocity":50,"Duration":150844,"SoundDuration":150844,"Delta":160480339},{"NoteNumber":72,"Velocity":50,"Duration":150844,"SoundDuration":150844,"Delta":160480339},{"NoteNumber":70,"Velocity":47,"Duration":105857,"SoundDuration":105857,"Delta":160681466},{"NoteNumber":72,"Velocity":47,"Duration":105857,"SoundDuration":105857,"Delta":160787323},{"NoteNumber":74,"Velocity":50,"Duration":205874,"SoundDuration":205874,"Delta":160893181},{"NoteNumber":58,"Velocity":30,"Duration":205874,"SoundDuration":205874,"Delta":160893181},{"NoteNumber":65,"Velocity":23,"Duration":205874,"SoundDuration":205874,"Delta":161099055},{"NoteNumber":75,"Velocity":51,"Duration":211067,"SoundDuration":211067,"Delta":161304930},{"NoteNumber":60,"Velocity":23,"Duration":211067,"SoundDuration":211067,"Delta":161304930},{"NoteNumber":65,"Velocity":23,"Duration":210851,"SoundDuration":210851,"Delta":161515998},{"NoteNumber":76,"Velocity":52,"Duration":410115,"SoundDuration":410115,"Delta":161726850},{"NoteNumber":62,"Velocity":23,"Duration":205058,"SoundDuration":205058,"Delta":161726850},{"NoteNumber":65,"Velocity":23,"Duration":205057,"SoundDuration":205057,"Delta":161931908},{"NoteNumber":77,"Velocity":52,"Duration":205874,"SoundDuration":205874,"Delta":162136966},{"NoteNumber":58,"Velocity":23,"Duration":205874,"SoundDuration":205874,"Delta":162136966},{"NoteNumber":74,"Velocity":51,"Duration":102937,"SoundDuration":102937,"Delta":162342840},{"NoteNumber":65,"Velocity":25,"Duration":205874,"SoundDuration":205874,"Delta":162342840},{"NoteNumber":74,"Velocity":52,"Duration":51468,"SoundDuration":51468,"Delta":162497246},{"NoteNumber":72,"Velocity":54,"Duration":98658,"SoundDuration":98658,"Delta":162548715},{"NoteNumber":57,"Velocity":30,"Duration":197316,"SoundDuration":197316,"Delta":162548715},{"NoteNumber":71,"Velocity":50,"Duration":104166,"SoundDuration":104166,"Delta":162746031},{"NoteNumber":65,"Velocity":23,"Duration":208333,"SoundDuration":208333,"Delta":162746031},{"NoteNumber":72,"Velocity":52,"Duration":100173,"SoundDuration":100173,"Delta":162954365},{"NoteNumber":58,"Velocity":25,"Duration":200347,"SoundDuration":200347,"Delta":162954365},{"NoteNumber":74,"Velocity":50,"Duration":102529,"SoundDuration":102529,"Delta":163154712},{"NoteNumber":65,"Velocity":25,"Duration":205058,"SoundDuration":205058,"Delta":163154712},{"NoteNumber":77,"Velocity":54,"Duration":410969,"SoundDuration":410969,"Delta":163359770},{"NoteNumber":60,"Velocity":25,"Duration":203472,"SoundDuration":203472,"Delta":163359770},{"NoteNumber":65,"Velocity":25,"Duration":207497,"SoundDuration":207497,"Delta":163563243},{"NoteNumber":75,"Velocity":46,"Duration":203472,"SoundDuration":203472,"Delta":163770740},{"NoteNumber":63,"Velocity":25,"Duration":203472,"SoundDuration":203472,"Delta":163770740},{"NoteNumber":69,"Velocity":46,"Duration":101736,"SoundDuration":101736,"Delta":163974213},{"NoteNumber":65,"Velocity":24,"Duration":203472,"SoundDuration":203472,"Delta":163974213},{"NoteNumber":70,"Velocity":56,"Duration":97187,"SoundDuration":97187,"Delta":164177685},{"NoteNumber":62,"Velocity":31,"Duration":395502,"SoundDuration":395502,"Delta":164177685},{"NoteNumber":82,"Velocity":50,"Duration":201126,"SoundDuration":201126,"Delta":164372061},{"NoteNumber":82,"Velocity":53,"Duration":100173,"SoundDuration":100173,"Delta":164573188},{"NoteNumber":82,"Velocity":48,"Duration":100173,"SoundDuration":100173,"Delta":164773535},{"NoteNumber":72,"Velocity":56,"Duration":96836,"SoundDuration":96836,"Delta":164973883},{"NoteNumber":67,"Velocity":32,"Duration":397145,"SoundDuration":397145,"Delta":164973883},{"NoteNumber":63,"Velocity":25,"Duration":397145,"SoundDuration":397145,"Delta":164973883},{"NoteNumber":79,"Velocity":50,"Duration":203472,"SoundDuration":203472,"Delta":165167556},{"NoteNumber":79,"Velocity":53,"Duration":101933,"SoundDuration":101933,"Delta":165371029},{"NoteNumber":79,"Velocity":50,"Duration":102131,"SoundDuration":102131,"Delta":165575094},{"NoteNumber":70,"Velocity":54,"Duration":97561,"SoundDuration":97561,"Delta":165779356},{"NoteNumber":53,"Velocity":27,"Duration":796552,"SoundDuration":796552,"Delta":165779356},{"NoteNumber":62,"Velocity":32,"Duration":395469,"SoundDuration":395469,"Delta":165779356},{"NoteNumber":70,"Velocity":50,"Duration":100173,"SoundDuration":100173,"Delta":165974478},{"NoteNumber":72,"Velocity":50,"Duration":48780,"SoundDuration":48780,"Delta":166174826},{"NoteNumber":63,"Velocity":28,"Duration":401083,"SoundDuration":401083,"Delta":166174826},{"NoteNumber":74,"Velocity":45,"Duration":48780,"SoundDuration":48780,"Delta":166223606},{"NoteNumber":72,"Velocity":45,"Duration":48780,"SoundDuration":48780,"Delta":166272387},{"NoteNumber":70,"Velocity":45,"Duration":48780,"SoundDuration":48780,"Delta":166321167},{"NoteNumber":72,"Velocity":50,"Duration":100949,"SoundDuration":100949,"Delta":166369948},{"NoteNumber":74,"Velocity":45,"Duration":105012,"SoundDuration":105012,"Delta":166470897},{"NoteNumber":70,"Velocity":55,"Duration":402253,"SoundDuration":402253,"Delta":166575909},{"NoteNumber":58,"Velocity":28,"Duration":402253,"SoundDuration":402253,"Delta":166575909},{"NoteNumber":62,"Velocity":32,"Duration":402253,"SoundDuration":402253,"Delta":166575909},{"NoteNumber":70,"Velocity":60,"Duration":105857,"SoundDuration":105857,"Delta":167179289},{"NoteNumber":79,"Velocity":55,"Duration":98489,"SoundDuration":98489,"Delta":167391004},{"NoteNumber":82,"Velocity":66,"Duration":98489,"SoundDuration":98489,"Delta":167391004},{"NoteNumber":46,"Velocity":59,"Duration":98489,"SoundDuration":98489,"Delta":167391004},{"NoteNumber":79,"Velocity":54,"Duration":416504,"SoundDuration":416504,"Delta":167587983},{"NoteNumber":82,"Velocity":64,"Duration":416504,"SoundDuration":416504,"Delta":167587983},{"NoteNumber":58,"Velocity":54,"Duration":154077,"SoundDuration":154077,"Delta":167587983},{"NoteNumber":58,"Velocity":54,"Duration":158354,"SoundDuration":158354,"Delta":167793420},{"NoteNumber":75,"Velocity":49,"Duration":210851,"SoundDuration":210851,"Delta":168004488},{"NoteNumber":79,"Velocity":59,"Duration":210851,"SoundDuration":210851,"Delta":168004488},{"NoteNumber":58,"Velocity":54,"Duration":158139,"SoundDuration":158139,"Delta":168004488},{"NoteNumber":74,"Velocity":55,"Duration":98489,"SoundDuration":98489,"Delta":168215340},{"NoteNumber":77,"Velocity":66,"Duration":98489,"SoundDuration":98489,"Delta":168215340},{"NoteNumber":46,"Velocity":59,"Duration":98489,"SoundDuration":98489,"Delta":168215340},{"NoteNumber":74,"Velocity":54,"Duration":416504,"SoundDuration":416504,"Delta":168412319},{"NoteNumber":77,"Velocity":64,"Duration":416504,"SoundDuration":416504,"Delta":168412319},{"NoteNumber":58,"Velocity":54,"Duration":154077,"SoundDuration":154077,"Delta":168412319},{"NoteNumber":58,"Velocity":54,"Duration":158354,"SoundDuration":158354,"Delta":168617756},{"NoteNumber":70,"Velocity":49,"Duration":210851,"SoundDuration":210851,"Delta":168828824},{"NoteNumber":74,"Velocity":59,"Duration":210851,"SoundDuration":210851,"Delta":168828824},{"NoteNumber":58,"Velocity":54,"Duration":158139,"SoundDuration":158139,"Delta":168828824},{"NoteNumber":69,"Velocity":55,"Duration":98489,"SoundDuration":98489,"Delta":169039676},{"NoteNumber":72,"Velocity":66,"Duration":98489,"SoundDuration":98489,"Delta":169039676},{"NoteNumber":41,"Velocity":59,"Duration":98489,"SoundDuration":98489,"Delta":169039676},{"NoteNumber":69,"Velocity":54,"Duration":416504,"SoundDuration":416504,"Delta":169236656},{"NoteNumber":72,"Velocity":64,"Duration":416504,"SoundDuration":416504,"Delta":169236656},{"NoteNumber":53,"Velocity":54,"Duration":154077,"SoundDuration":154077,"Delta":169236656},{"NoteNumber":53,"Velocity":54,"Duration":158354,"SoundDuration":158354,"Delta":169442093},{"NoteNumber":72,"Velocity":49,"Duration":210851,"SoundDuration":210851,"Delta":169653160},{"NoteNumber":75,"Velocity":59,"Duration":210851,"SoundDuration":210851,"Delta":169653160},{"NoteNumber":53,"Velocity":54,"Duration":158139,"SoundDuration":158139,"Delta":169653160},{"NoteNumber":69,"Velocity":55,"Duration":196979,"SoundDuration":196979,"Delta":169864012},{"NoteNumber":73,"Velocity":66,"Duration":196979,"SoundDuration":196979,"Delta":169864012},{"NoteNumber":46,"Velocity":59,"Duration":147734,"SoundDuration":147734,"Delta":169864012},{"NoteNumber":70,"Velocity":55,"Duration":205436,"SoundDuration":205436,"Delta":170060992},{"NoteNumber":74,"Velocity":66,"Duration":205436,"SoundDuration":205436,"Delta":170060992},{"NoteNumber":58,"Velocity":54,"Duration":205436,"SoundDuration":205436,"Delta":170060992},{"NoteNumber":70,"Velocity":54,"Duration":165648,"SoundDuration":165648,"Delta":170266429},{"NoteNumber":74,"Velocity":64,"Duration":165648,"SoundDuration":165648,"Delta":170266429},{"NoteNumber":58,"Velocity":54,"Duration":165648,"SoundDuration":165648,"Delta":170266429},{"NoteNumber":70,"Velocity":43,"Duration":105857,"SoundDuration":105857,"Delta":170487293},{"NoteNumber":58,"Velocity":34,"Duration":105857,"SoundDuration":105857,"Delta":170487293},{"NoteNumber":79,"Velocity":39,"Duration":98489,"SoundDuration":98489,"Delta":170699008},{"NoteNumber":82,"Velocity":46,"Duration":98489,"SoundDuration":98489,"Delta":170699008},{"NoteNumber":46,"Velocity":41,"Duration":98489,"SoundDuration":98489,"Delta":170699008},{"NoteNumber":79,"Velocity":38,"Duration":416504,"SoundDuration":416504,"Delta":170895988},{"NoteNumber":82,"Velocity":45,"Duration":416504,"SoundDuration":416504,"Delta":170895988},{"NoteNumber":58,"Velocity":37,"Duration":154077,"SoundDuration":154077,"Delta":170895988},{"NoteNumber":58,"Velocity":37,"Duration":158354,"SoundDuration":158354,"Delta":171101425},{"NoteNumber":75,"Velocity":34,"Duration":210851,"SoundDuration":210851,"Delta":171312493},{"NoteNumber":79,"Velocity":41,"Duration":210851,"SoundDuration":210851,"Delta":171312493},{"NoteNumber":58,"Velocity":37,"Duration":158139,"SoundDuration":158139,"Delta":171312493},{"NoteNumber":74,"Velocity":39,"Duration":98489,"SoundDuration":98489,"Delta":171523345},{"NoteNumber":77,"Velocity":46,"Duration":98489,"SoundDuration":98489,"Delta":171523345},{"NoteNumber":46,"Velocity":41,"Duration":98489,"SoundDuration":98489,"Delta":171523345},{"NoteNumber":74,"Velocity":38,"Duration":416504,"SoundDuration":416504,"Delta":171720324},{"NoteNumber":77,"Velocity":45,"Duration":416504,"SoundDuration":416504,"Delta":171720324},{"NoteNumber":58,"Velocity":37,"Duration":154077,"SoundDuration":154077,"Delta":171720324},{"NoteNumber":58,"Velocity":37,"Duration":158354,"SoundDuration":158354,"Delta":171925761},{"NoteNumber":70,"Velocity":34,"Duration":210851,"SoundDuration":210851,"Delta":172136829},{"NoteNumber":74,"Velocity":41,"Duration":210851,"SoundDuration":210851,"Delta":172136829},{"NoteNumber":58,"Velocity":37,"Duration":158139,"SoundDuration":158139,"Delta":172136829},{"NoteNumber":69,"Velocity":39,"Duration":98489,"SoundDuration":98489,"Delta":172347681},{"NoteNumber":72,"Velocity":46,"Duration":98489,"SoundDuration":98489,"Delta":172347681},{"NoteNumber":41,"Velocity":41,"Duration":98489,"SoundDuration":98489,"Delta":172347681},{"NoteNumber":69,"Velocity":38,"Duration":416504,"SoundDuration":416504,"Delta":172544660},{"NoteNumber":72,"Velocity":45,"Duration":416504,"SoundDuration":416504,"Delta":172544660},{"NoteNumber":53,"Velocity":37,"Duration":154077,"SoundDuration":154077,"Delta":172544660},{"NoteNumber":53,"Velocity":37,"Duration":158354,"SoundDuration":158354,"Delta":172750097},{"NoteNumber":72,"Velocity":34,"Duration":210851,"SoundDuration":210851,"Delta":172961165},{"NoteNumber":75,"Velocity":41,"Duration":210851,"SoundDuration":210851,"Delta":172961165},{"NoteNumber":53,"Velocity":37,"Duration":158139,"SoundDuration":158139,"Delta":172961165},{"NoteNumber":69,"Velocity":39,"Duration":196979,"SoundDuration":196979,"Delta":173172017},{"NoteNumber":73,"Velocity":46,"Duration":196979,"SoundDuration":196979,"Delta":173172017},{"NoteNumber":46,"Velocity":41,"Duration":147734,"SoundDuration":147734,"Delta":173172017},{"NoteNumber":70,"Velocity":39,"Duration":205436,"SoundDuration":205436,"Delta":173368997},{"NoteNumber":74,"Velocity":46,"Duration":205436,"SoundDuration":205436,"Delta":173368997},{"NoteNumber":58,"Velocity":37,"Duration":205436,"SoundDuration":205436,"Delta":173368997},{"NoteNumber":70,"Velocity":38,"Duration":164173,"SoundDuration":164173,"Delta":173574434},{"NoteNumber":74,"Velocity":45,"Duration":164173,"SoundDuration":164173,"Delta":173574434},{"NoteNumber":58,"Velocity":37,"Duration":164173,"SoundDuration":164173,"Delta":173574434},{"NoteNumber":70,"Velocity":53,"Duration":105812,"SoundDuration":105812,"Delta":173793332},{"NoteNumber":82,"Velocity":55,"Duration":105425,"SoundDuration":105425,"Delta":174004957},{"NoteNumber":82,"Velocity":50,"Duration":103156,"SoundDuration":103156,"Delta":174215809},{"NoteNumber":82,"Velocity":50,"Duration":103156,"SoundDuration":103156,"Delta":174422122},{"NoteNumber":55,"Velocity":55,"Duration":625872,"SoundDuration":625872,"Delta":174422122},{"NoteNumber":82,"Velocity":50,"Duration":106997,"SoundDuration":106997,"Delta":174628435},{"NoteNumber":76,"Velocity":55,"Duration":102781,"SoundDuration":102781,"Delta":174842431},{"NoteNumber":76,"Velocity":50,"Duration":102781,"SoundDuration":102781,"Delta":175047995},{"NoteNumber":57,"Velocity":50,"Duration":102781,"SoundDuration":102781,"Delta":175047995},{"NoteNumber":58,"Velocity":50,"Duration":102781,"SoundDuration":102781,"Delta":175150777},{"NoteNumber":76,"Velocity":50,"Duration":102782,"SoundDuration":102782,"Delta":175253559},{"NoteNumber":60,"Velocity":55,"Duration":205564,"SoundDuration":205564,"Delta":175253559},{"NoteNumber":76,"Velocity":50,"Duration":104660,"SoundDuration":104660,"Delta":175459123},{"NoteNumber":58,"Velocity":50,"Duration":414155,"SoundDuration":414155,"Delta":175459123},{"NoteNumber":84,"Velocity":55,"Duration":102417,"SoundDuration":102417,"Delta":175668445},{"NoteNumber":84,"Velocity":52,"Duration":102417,"SoundDuration":102417,"Delta":175873279},{"NoteNumber":57,"Velocity":55,"Duration":204834,"SoundDuration":204834,"Delta":175873279},{"NoteNumber":84,"Velocity":51,"Duration":102417,"SoundDuration":102417,"Delta":176078113},{"NoteNumber":84,"Velocity":51,"Duration":105812,"SoundDuration":105812,"Delta":176282947},{"NoteNumber":41,"Velocity":46,"Duration":211625,"SoundDuration":211625,"Delta":176282947},{"NoteNumber":75,"Velocity":55,"Duration":102417,"SoundDuration":102417,"Delta":176494572},{"NoteNumber":42,"Velocity":48,"Duration":204834,"SoundDuration":204834,"Delta":176494572},{"NoteNumber":75,"Velocity":50,"Duration":102417,"SoundDuration":102417,"Delta":176699406},{"NoteNumber":43,"Velocity":49,"Duration":204834,"SoundDuration":204834,"Delta":176699406},{"NoteNumber":75,"Velocity":50,"Duration":102417,"SoundDuration":102417,"Delta":176904240},{"NoteNumber":44,"Velocity":51,"Duration":204833,"SoundDuration":204833,"Delta":176904240},{"NoteNumber":75,"Velocity":50,"Duration":102417,"SoundDuration":102417,"Delta":177109074},{"NoteNumber":45,"Velocity":52,"Duration":204834,"SoundDuration":204834,"Delta":177109074},{"NoteNumber":74,"Velocity":60,"Duration":105041,"SoundDuration":105041,"Delta":177313908},{"NoteNumber":46,"Velocity":55,"Duration":210083,"SoundDuration":210083,"Delta":177313908},{"NoteNumber":82,"Velocity":67,"Duration":101330,"SoundDuration":101330,"Delta":177523992},{"NoteNumber":58,"Velocity":50,"Duration":101330,"SoundDuration":101330,"Delta":177523992},{"NoteNumber":81,"Velocity":66,"Duration":103156,"SoundDuration":103156,"Delta":177726654},{"NoteNumber":60,"Velocity":50,"Duration":103156,"SoundDuration":103156,"Delta":177726654},{"NoteNumber":80,"Velocity":63,"Duration":100623,"SoundDuration":100623,"Delta":177932967},{"NoteNumber":62,"Velocity":49,"Duration":100623,"SoundDuration":100623,"Delta":177932967},{"NoteNumber":79,"Velocity":62,"Duration":100623,"SoundDuration":100623,"Delta":178134214},{"NoteNumber":63,"Velocity":48,"Duration":100623,"SoundDuration":100623,"Delta":178134214},{"NoteNumber":78,"Velocity":60,"Duration":100623,"SoundDuration":100623,"Delta":178335462},{"NoteNumber":63,"Velocity":48,"Duration":100623,"SoundDuration":100623,"Delta":178335462},{"NoteNumber":77,"Velocity":58,"Duration":100623,"SoundDuration":100623,"Delta":178536709},{"NoteNumber":65,"Velocity":46,"Duration":100623,"SoundDuration":100623,"Delta":178536709},{"NoteNumber":76,"Velocity":56,"Duration":103899,"SoundDuration":103899,"Delta":178737957},{"NoteNumber":66,"Velocity":45,"Duration":103899,"SoundDuration":103899,"Delta":178737957},{"NoteNumber":77,"Velocity":63,"Duration":200547,"SoundDuration":200547,"Delta":178945756},{"NoteNumber":65,"Velocity":49,"Duration":401095,"SoundDuration":401095,"Delta":178945756},{"NoteNumber":74,"Velocity":55,"Duration":200547,"SoundDuration":200547,"Delta":179146304},{"NoteNumber":69,"Velocity":47,"Duration":419445,"SoundDuration":419445,"Delta":179346852},{"NoteNumber":72,"Velocity":55,"Duration":200547,"SoundDuration":200547,"Delta":179346852},{"NoteNumber":65,"Velocity":49,"Duration":419445,"SoundDuration":419445,"Delta":179346852},{"NoteNumber":77,"Velocity":55,"Duration":218897,"SoundDuration":218897,"Delta":179547400},{"NoteNumber":72,"Velocity":55,"Duration":405323,"SoundDuration":405323,"Delta":179766298},{"NoteNumber":75,"Velocity":64,"Duration":405323,"SoundDuration":405323,"Delta":179766298},{"NoteNumber":66,"Velocity":52,"Duration":405323,"SoundDuration":405323,"Delta":179766298},{"NoteNumber":70,"Velocity":52,"Duration":202661,"SoundDuration":202661,"Delta":180171621},{"NoteNumber":74,"Velocity":62,"Duration":202661,"SoundDuration":202661,"Delta":180171621},{"NoteNumber":67,"Velocity":49,"Duration":202661,"SoundDuration":202661,"Delta":180171621},{"NoteNumber":43,"Velocity":49,"Duration":202661,"SoundDuration":202661,"Delta":180374283},{"NoteNumber":58,"Velocity":44,"Duration":105425,"SoundDuration":105425,"Delta":180576944},{"NoteNumber":78,"Velocity":50,"Duration":206312,"SoundDuration":206312,"Delta":180787796},{"NoteNumber":58,"Velocity":34,"Duration":103156,"SoundDuration":103156,"Delta":180787796},{"NoteNumber":79,"Velocity":55,"Duration":206312,"SoundDuration":206312,"Delta":180994109},{"NoteNumber":58,"Velocity":34,"Duration":103156,"SoundDuration":103156,"Delta":180994109},{"NoteNumber":82,"Velocity":51,"Duration":213995,"SoundDuration":213995,"Delta":181200422},{"NoteNumber":58,"Velocity":34,"Duration":106997,"SoundDuration":106997,"Delta":181200422},{"NoteNumber":85,"Velocity":58,"Duration":308346,"SoundDuration":308346,"Delta":181414418},{"NoteNumber":52,"Velocity":39,"Duration":102781,"SoundDuration":102781,"Delta":181414418},{"NoteNumber":52,"Velocity":35,"Duration":102781,"SoundDuration":102781,"Delta":181619982},{"NoteNumber":87,"Velocity":49,"Duration":51390,"SoundDuration":51390,"Delta":181722764},{"NoteNumber":85,"Velocity":49,"Duration":51390,"SoundDuration":51390,"Delta":181774155},{"NoteNumber":84,"Velocity":55,"Duration":205564,"SoundDuration":205564,"Delta":181825546},{"NoteNumber":52,"Velocity":35,"Duration":102782,"SoundDuration":102782,"Delta":181825546},{"NoteNumber":82,"Velocity":49,"Duration":209321,"SoundDuration":209321,"Delta":182031110},{"NoteNumber":52,"Velocity":35,"Duration":104660,"SoundDuration":104660,"Delta":182031110},{"NoteNumber":81,"Velocity":56,"Duration":204834,"SoundDuration":204834,"Delta":182240432},{"NoteNumber":54,"Velocity":44,"Duration":102417,"SoundDuration":102417,"Delta":182240432},{"NoteNumber":69,"Velocity":45,"Duration":204834,"SoundDuration":204834,"Delta":182445266},{"NoteNumber":54,"Velocity":35,"Duration":102417,"SoundDuration":102417,"Delta":182445266},{"NoteNumber":72,"Velocity":49,"Duration":204833,"SoundDuration":204833,"Delta":182650100},{"NoteNumber":54,"Velocity":35,"Duration":102417,"SoundDuration":102417,"Delta":182650100},{"NoteNumber":75,"Velocity":45,"Duration":211625,"SoundDuration":211625,"Delta":182854934},{"NoteNumber":54,"Velocity":35,"Duration":105812,"SoundDuration":105812,"Delta":182854934},{"NoteNumber":78,"Velocity":49,"Duration":307251,"SoundDuration":307251,"Delta":183066559},{"NoteNumber":45,"Velocity":44,"Duration":102417,"SoundDuration":102417,"Delta":183066559},{"NoteNumber":45,"Velocity":36,"Duration":102417,"SoundDuration":102417,"Delta":183271393},{"NoteNumber":80,"Velocity":48,"Duration":51208,"SoundDuration":51208,"Delta":183373810},{"NoteNumber":78,"Velocity":48,"Duration":51208,"SoundDuration":51208,"Delta":183425019},{"NoteNumber":77,"Velocity":55,"Duration":204833,"SoundDuration":204833,"Delta":183476227},{"NoteNumber":45,"Velocity":36,"Duration":102417,"SoundDuration":102417,"Delta":183476227},{"NoteNumber":75,"Velocity":51,"Duration":204834,"SoundDuration":204834,"Delta":183681061},{"NoteNumber":45,"Velocity":36,"Duration":102417,"SoundDuration":102417,"Delta":183681061},{"NoteNumber":74,"Velocity":55,"Duration":210083,"SoundDuration":210083,"Delta":183885895},{"NoteNumber":46,"Velocity":48,"Duration":105041,"SoundDuration":105041,"Delta":183885895},{"NoteNumber":70,"Velocity":59,"Duration":101330,"SoundDuration":101330,"Delta":184095979},{"NoteNumber":58,"Velocity":49,"Duration":101330,"SoundDuration":101330,"Delta":184095979},{"NoteNumber":72,"Velocity":60,"Duration":103156,"SoundDuration":103156,"Delta":184298641},{"NoteNumber":57,"Velocity":51,"Duration":103156,"SoundDuration":103156,"Delta":184298641},{"NoteNumber":74,"Velocity":61,"Duration":100623,"SoundDuration":100623,"Delta":184504954},{"NoteNumber":56,"Velocity":55,"Duration":100623,"SoundDuration":100623,"Delta":184504954},{"NoteNumber":75,"Velocity":63,"Duration":100750,"SoundDuration":100750,"Delta":184706061},{"NoteNumber":55,"Velocity":57,"Duration":100750,"SoundDuration":100750,"Delta":184706061},{"NoteNumber":76,"Velocity":64,"Duration":102372,"SoundDuration":102372,"Delta":184908357},{"NoteNumber":54,"Velocity":59,"Duration":102372,"SoundDuration":102372,"Delta":184908357},{"NoteNumber":77,"Velocity":66,"Duration":104034,"SoundDuration":104034,"Delta":185113928},{"NoteNumber":53,"Velocity":62,"Duration":104034,"SoundDuration":104034,"Delta":185113928},{"NoteNumber":78,"Velocity":69,"Duration":105766,"SoundDuration":105766,"Delta":185322849},{"NoteNumber":50,"Velocity":64,"Duration":105766,"SoundDuration":105766,"Delta":185322849},{"NoteNumber":79,"Velocity":74,"Duration":338676,"SoundDuration":338676,"Delta":185535265},{"NoteNumber":51,"Velocity":67,"Duration":338676,"SoundDuration":338676,"Delta":185535265},{"NoteNumber":73,"Velocity":64,"Duration":451569,"SoundDuration":451569,"Delta":185986834},{"NoteNumber":79,"Velocity":64,"Duration":451569,"SoundDuration":451569,"Delta":185986834},{"NoteNumber":82,"Velocity":77,"Duration":451569,"SoundDuration":451569,"Delta":185986834},{"NoteNumber":40,"Velocity":58,"Duration":451569,"SoundDuration":451569,"Delta":185986834},{"NoteNumber":52,"Velocity":69,"Duration":451569,"SoundDuration":451569,"Delta":185986834},{"NoteNumber":79,"Velocity":59,"Duration":209467,"SoundDuration":209467,"Delta":186664188},{"NoteNumber":81,"Velocity":61,"Duration":205718,"SoundDuration":205718,"Delta":186873656},{"NoteNumber":82,"Velocity":64,"Duration":215609,"SoundDuration":215609,"Delta":187079375},{"NoteNumber":82,"Velocity":67,"Duration":105507,"SoundDuration":105507,"Delta":187294985},{"NoteNumber":53,"Velocity":56,"Duration":211015,"SoundDuration":211015,"Delta":187294985},{"NoteNumber":84,"Velocity":60,"Duration":105507,"SoundDuration":105507,"Delta":187400492},{"NoteNumber":86,"Velocity":60,"Duration":105507,"SoundDuration":105507,"Delta":187506000},{"NoteNumber":62,"Velocity":47,"Duration":211015,"SoundDuration":211015,"Delta":187506000},{"NoteNumber":87,"Velocity":60,"Duration":105507,"SoundDuration":105507,"Delta":187611507},{"NoteNumber":89,"Velocity":67,"Duration":104689,"SoundDuration":104689,"Delta":187717015},{"NoteNumber":58,"Velocity":47,"Duration":209423,"SoundDuration":209423,"Delta":187717015},{"NoteNumber":87,"Velocity":61,"Duration":104733,"SoundDuration":104733,"Delta":187821704},{"NoteNumber":86,"Velocity":61,"Duration":104399,"SoundDuration":104399,"Delta":187926438},{"NoteNumber":62,"Velocity":47,"Duration":208722,"SoundDuration":208722,"Delta":187926438},{"NoteNumber":84,"Velocity":61,"Duration":104323,"SoundDuration":104323,"Delta":188030838},{"NoteNumber":82,"Velocity":67,"Duration":103978,"SoundDuration":103978,"Delta":188135161},{"NoteNumber":53,"Velocity":52,"Duration":207850,"SoundDuration":207850,"Delta":188135161},{"NoteNumber":81,"Velocity":67,"Duration":103871,"SoundDuration":103871,"Delta":188239140},{"NoteNumber":79,"Velocity":66,"Duration":103598,"SoundDuration":103598,"Delta":188343011},{"NoteNumber":62,"Velocity":44,"Duration":207196,"SoundDuration":207196,"Delta":188343011},{"NoteNumber":77,"Velocity":64,"Duration":103598,"SoundDuration":103598,"Delta":188446610},{"NoteNumber":75,"Velocity":64,"Duration":103706,"SoundDuration":103706,"Delta":188550208},{"NoteNumber":58,"Velocity":44,"Duration":207685,"SoundDuration":207685,"Delta":188550208},{"NoteNumber":74,"Velocity":63,"Duration":103978,"SoundDuration":103978,"Delta":188653914},{"NoteNumber":72,"Velocity":62,"Duration":103979,"SoundDuration":103979,"Delta":188757893},{"NoteNumber":62,"Velocity":44,"Duration":208139,"SoundDuration":208139,"Delta":188757893},{"NoteNumber":70,"Velocity":62,"Duration":104160,"SoundDuration":104160,"Delta":188861872},{"NoteNumber":72,"Velocity":50,"Duration":52906,"SoundDuration":52906,"Delta":188966033},{"NoteNumber":53,"Velocity":49,"Duration":212810,"SoundDuration":212810,"Delta":188966033},{"NoteNumber":74,"Velocity":41,"Duration":52906,"SoundDuration":52906,"Delta":189018939},{"NoteNumber":72,"Velocity":49,"Duration":53498,"SoundDuration":53498,"Delta":189071846},{"NoteNumber":74,"Velocity":41,"Duration":53498,"SoundDuration":53498,"Delta":189125344},{"NoteNumber":72,"Velocity":49,"Duration":52906,"SoundDuration":52906,"Delta":189178843},{"NoteNumber":63,"Velocity":27,"Duration":212415,"SoundDuration":212415,"Delta":189178843},{"NoteNumber":74,"Velocity":40,"Duration":52906,"SoundDuration":52906,"Delta":189231750},{"NoteNumber":72,"Velocity":50,"Duration":53301,"SoundDuration":53301,"Delta":189284656},{"NoteNumber":74,"Velocity":44,"Duration":53301,"SoundDuration":53301,"Delta":189337957},{"NoteNumber":72,"Velocity":49,"Duration":53902,"SoundDuration":53902,"Delta":189391258},{"NoteNumber":60,"Velocity":34,"Duration":213231,"SoundDuration":213231,"Delta":189391258},{"NoteNumber":74,"Velocity":44,"Duration":53902,"SoundDuration":53902,"Delta":189445161},{"NoteNumber":72,"Velocity":50,"Duration":52713,"SoundDuration":52713,"Delta":189499063},{"NoteNumber":74,"Velocity":44,"Duration":52712,"SoundDuration":52712,"Delta":189551776},{"NoteNumber":72,"Velocity":51,"Duration":54724,"SoundDuration":54724,"Delta":189604489},{"NoteNumber":63,"Velocity":34,"Duration":215261,"SoundDuration":215261,"Delta":189604489},{"NoteNumber":74,"Velocity":45,"Duration":54724,"SoundDuration":54724,"Delta":189659214},{"NoteNumber":72,"Velocity":53,"Duration":52906,"SoundDuration":52906,"Delta":189713938},{"NoteNumber":74,"Velocity":46,"Duration":52906,"SoundDuration":52906,"Delta":189766845},{"NoteNumber":72,"Velocity":55,"Duration":54104,"SoundDuration":54104,"Delta":189819751},{"NoteNumber":53,"Velocity":41,"Duration":215605,"SoundDuration":215605,"Delta":189819751},{"NoteNumber":74,"Velocity":47,"Duration":54104,"SoundDuration":54104,"Delta":189873856},{"NoteNumber":72,"Velocity":52,"Duration":53697,"SoundDuration":53697,"Delta":189927961},{"NoteNumber":74,"Velocity":45,"Duration":53697,"SoundDuration":53697,"Delta":189981659},{"NoteNumber":72,"Velocity":51,"Duration":52906,"SoundDuration":52906,"Delta":190035357},{"NoteNumber":63,"Velocity":34,"Duration":214767,"SoundDuration":214767,"Delta":190035357},{"NoteNumber":74,"Velocity":44,"Duration":53196,"SoundDuration":53196,"Delta":190088263},{"NoteNumber":72,"Velocity":50,"Duration":54023,"SoundDuration":54023,"Delta":190141460},{"NoteNumber":74,"Velocity":44,"Duration":54640,"SoundDuration":54640,"Delta":190195483},{"NoteNumber":72,"Velocity":49,"Duration":55270,"SoundDuration":55270,"Delta":190250124},{"NoteNumber":60,"Velocity":35,"Duration":224910,"SoundDuration":224910,"Delta":190250124},{"NoteNumber":74,"Velocity":42,"Duration":55917,"SoundDuration":55917,"Delta":190305395},{"NoteNumber":72,"Velocity":47,"Duration":56523,"SoundDuration":56523,"Delta":190361312},{"NoteNumber":74,"Velocity":40,"Duration":57198,"SoundDuration":57198,"Delta":190417836},{"NoteNumber":72,"Velocity":46,"Duration":77364,"SoundDuration":77364,"Delta":190475034},{"NoteNumber":63,"Velocity":35,"Duration":245507,"SoundDuration":245507,"Delta":190475034},{"NoteNumber":70,"Velocity":52,"Duration":82054,"SoundDuration":82054,"Delta":190552398},{"NoteNumber":72,"Velocity":47,"Duration":86088,"SoundDuration":86088,"Delta":190634453},{"NoteNumber":70,"Velocity":55,"Duration":218054,"SoundDuration":218054,"Delta":190720541},{"NoteNumber":46,"Velocity":38,"Duration":163541,"SoundDuration":163541,"Delta":190720541},{"NoteNumber":58,"Velocity":31,"Duration":163541,"SoundDuration":163541,"Delta":190938596},{"NoteNumber":58,"Velocity":31,"Duration":163541,"SoundDuration":163541,"Delta":191156651},{"NoteNumber":58,"Velocity":31,"Duration":163541,"SoundDuration":163541,"Delta":191374706},{"NoteNumber":58,"Velocity":38,"Duration":433150,"SoundDuration":433150,"Delta":191592761},{"NoteNumber":77,"Velocity":35,"Duration":216575,"SoundDuration":216575,"Delta":191809336},{"NoteNumber":74,"Velocity":35,"Duration":216575,"SoundDuration":216575,"Delta":191809336},{"NoteNumber":72,"Velocity":36,"Duration":216574,"SoundDuration":216574,"Delta":192025911},{"NoteNumber":75,"Velocity":36,"Duration":216574,"SoundDuration":216574,"Delta":192025911},{"NoteNumber":70,"Velocity":32,"Duration":228466,"SoundDuration":228466,"Delta":192242486},{"NoteNumber":74,"Velocity":32,"Duration":228466,"SoundDuration":228466,"Delta":192242486},{"NoteNumber":79,"Velocity":39,"Duration":434468,"SoundDuration":434468,"Delta":192470953},{"NoteNumber":75,"Velocity":39,"Duration":434468,"SoundDuration":434468,"Delta":192470953},{"NoteNumber":46,"Velocity":35,"Duration":162925,"SoundDuration":162925,"Delta":192470953},{"NoteNumber":58,"Velocity":31,"Duration":162925,"SoundDuration":162925,"Delta":192688187},{"NoteNumber":58,"Velocity":31,"Duration":162925,"SoundDuration":162925,"Delta":192905421},{"NoteNumber":58,"Velocity":31,"Duration":162925,"SoundDuration":162925,"Delta":193122655},{"NoteNumber":58,"Velocity":35,"Duration":428326,"SoundDuration":428326,"Delta":193339889},{"NoteNumber":79,"Velocity":36,"Duration":214163,"SoundDuration":214163,"Delta":193554053},{"NoteNumber":75,"Velocity":36,"Duration":214163,"SoundDuration":214163,"Delta":193554053},{"NoteNumber":81,"Velocity":41,"Duration":214163,"SoundDuration":214163,"Delta":193768216},{"NoteNumber":77,"Velocity":41,"Duration":214163,"SoundDuration":214163,"Delta":193768216},{"NoteNumber":79,"Velocity":35,"Duration":227565,"SoundDuration":227565,"Delta":193982380},{"NoteNumber":82,"Velocity":35,"Duration":227565,"SoundDuration":227565,"Delta":193982380},{"NoteNumber":77,"Velocity":43,"Duration":432838,"SoundDuration":432838,"Delta":194209946},{"NoteNumber":74,"Velocity":43,"Duration":432838,"SoundDuration":432838,"Delta":194209946},{"NoteNumber":46,"Velocity":35,"Duration":162314,"SoundDuration":162314,"Delta":194209946},{"NoteNumber":58,"Velocity":30,"Duration":162314,"SoundDuration":162314,"Delta":194426365},{"NoteNumber":58,"Velocity":30,"Duration":160622,"SoundDuration":160622,"Delta":194642784},{"NoteNumber":58,"Velocity":30,"Duration":169338,"SoundDuration":169338,"Delta":194856947},{"NoteNumber":58,"Velocity":35,"Duration":431219,"SoundDuration":431219,"Delta":195082732},{"NoteNumber":70,"Velocity":32,"Duration":215609,"SoundDuration":215609,"Delta":195298342},{"NoteNumber":74,"Velocity":32,"Duration":215609,"SoundDuration":215609,"Delta":195298342},{"NoteNumber":75,"Velocity":39,"Duration":215609,"SoundDuration":215609,"Delta":195513952},{"NoteNumber":72,"Velocity":39,"Duration":215609,"SoundDuration":215609,"Delta":195513952},{"NoteNumber":74,"Velocity":33,"Duration":227565,"SoundDuration":227565,"Delta":195729562},{"NoteNumber":77,"Velocity":33,"Duration":227565,"SoundDuration":227565,"Delta":195729562},{"NoteNumber":72,"Velocity":38,"Duration":429584,"SoundDuration":429584,"Delta":195957128},{"NoteNumber":75,"Velocity":38,"Duration":429584,"SoundDuration":429584,"Delta":195957128},{"NoteNumber":41,"Velocity":40,"Duration":161093,"SoundDuration":161093,"Delta":195957128},{"NoteNumber":53,"Velocity":35,"Duration":161094,"SoundDuration":161094,"Delta":196171920},{"NoteNumber":53,"Velocity":35,"Duration":161093,"SoundDuration":161093,"Delta":196386712},{"NoteNumber":53,"Velocity":35,"Duration":170003,"SoundDuration":170003,"Delta":196601504},{"NoteNumber":53,"Velocity":38,"Duration":431219,"SoundDuration":431219,"Delta":196828175},{"NoteNumber":62,"Velocity":41,"Duration":226390,"SoundDuration":226390,"Delta":197043785},{"NoteNumber":65,"Velocity":49,"Duration":226390,"SoundDuration":226390,"Delta":197043785},{"NoteNumber":64,"Velocity":47,"Duration":227171,"SoundDuration":227171,"Delta":197259395},{"NoteNumber":67,"Velocity":56,"Duration":227171,"SoundDuration":227171,"Delta":197259395},{"NoteNumber":63,"Velocity":53,"Duration":231231,"SoundDuration":231231,"Delta":197475005},{"NoteNumber":69,"Velocity":64,"Duration":231231,"SoundDuration":231231,"Delta":197475005},{"NoteNumber":62,"Velocity":61,"Duration":237943,"SoundDuration":237943,"Delta":197706237},{"NoteNumber":70,"Velocity":72,"Duration":237943,"SoundDuration":237943,"Delta":197706237},{"NoteNumber":46,"Velocity":47,"Duration":237943,"SoundDuration":237943,"Delta":197706237},{"NoteNumber":65,"Velocity":60,"Duration":237943,"SoundDuration":237943,"Delta":198182125},{"NoteNumber":74,"Velocity":70,"Duration":237943,"SoundDuration":237943,"Delta":198182125},{"NoteNumber":58,"Velocity":49,"Duration":237943,"SoundDuration":237943,"Delta":198182125},{"NoteNumber":62,"Velocity":60,"Duration":237943,"SoundDuration":237943,"Delta":198658013},{"NoteNumber":70,"Velocity":70,"Duration":237943,"SoundDuration":237943,"Delta":198658013},{"NoteNumber":46,"Velocity":49,"Duration":237943,"SoundDuration":237943,"Delta":198658013}],"license":{"name":"Creative Commons Attribution-ShareAlike 3.0 Germany","url":"http://creativecommons.org/licenses/by-sa/3.0/de/deed.en","text":"The MIDI, audio (MP3, OGG) and video files of Bernd Krueger are licensed under the cc-by-sa Germany License. This means that you can use and adapt the files, as long as you attribute the copyright holder.\n\nName: Bernd Krueger\nSource: http://www.piano-midi.de\n\nThe distribution or public playback of the files is only allowed under identical license conditions.\n\nThe scores are open source.","attribution":"MIDI files by Bernd Krueger (piano-midi.de)","attributionUrl":"http://www.piano-midi.de"}}