{"title":"Le Gibet","artist":"Ravel","durationMs":362483,"midiSha256":"72eb30259a48c6fbacc38e851cf511d443ea1c0d557bd0a5fca96673957d3b16","midiObject":[{"NoteNumber":58,"Velocity":31,"Duration":2195550,"SoundDuration":2195550,"Delta":0},{"NoteNumber":70,"Velocity":31,"Duration":878219,"SoundDuration":878219,"Delta":0},{"NoteNumber":70,"Velocity":21,"Duration":1317330,"SoundDuration":1317330,"Delta":878220},{"NoteNumber":58,"Velocity":31,"Duration":2224021,"SoundDuration":2224021,"Delta":2634660},{"NoteNumber":70,"Velocity":31,"Duration":878220,"SoundDuration":878220,"Delta":2634660},{"NoteNumber":70,"Velocity":21,"Duration":1345800,"SoundDuration":1345800,"Delta":3512881},{"NoteNumber":70,"Velocity":34,"Duration":1811594,"SoundDuration":1811594,"Delta":5326263},{"NoteNumber":58,"Velocity":31,"Duration":2195550,"SoundDuration":2195550,"Delta":7137857},{"NoteNumber":70,"Velocity":31,"Duration":878220,"SoundDuration":878220,"Delta":7137857},{"NoteNumber":70,"Velocity":20,"Duration":1317330,"SoundDuration":1317330,"Delta":8016077},{"NoteNumber":58,"Velocity":32,"Duration":6471370,"SoundDuration":6471370,"Delta":9772517},{"NoteNumber":70,"Velocity":32,"Duration":878219,"SoundDuration":878219,"Delta":9772517},{"NoteNumber":70,"Velocity":21,"Duration":1668338,"SoundDuration":1668338,"Delta":10650737},{"NoteNumber":65,"Velocity":33,"Duration":4366063,"SoundDuration":4366063,"Delta":11858953},{"NoteNumber":39,"Velocity":22,"Duration":4369837,"SoundDuration":4369837,"Delta":11858953},{"NoteNumber":53,"Velocity":30,"Duration":4369837,"SoundDuration":4369837,"Delta":11858953},{"NoteNumber":46,"Velocity":22,"Duration":4369837,"SoundDuration":4369837,"Delta":11858953},{"NoteNumber":70,"Velocity":34,"Duration":1680672,"SoundDuration":1680672,"Delta":12779198},{"NoteNumber":58,"Velocity":31,"Duration":2223126,"SoundDuration":2223126,"Delta":14459870},{"NoteNumber":70,"Velocity":31,"Duration":878219,"SoundDuration":878219,"Delta":14459870},{"NoteNumber":70,"Velocity":24,"Duration":1344906,"SoundDuration":1344906,"Delta":15338090},{"NoteNumber":42,"Velocity":19,"Duration":878334,"SoundDuration":878334,"Delta":16240113},{"NoteNumber":54,"Velocity":19,"Duration":878219,"SoundDuration":878219,"Delta":16243887},{"NoteNumber":61,"Velocity":28,"Duration":878219,"SoundDuration":878219,"Delta":16243887},{"NoteNumber":35,"Velocity":19,"Duration":878219,"SoundDuration":878219,"Delta":16243887},{"NoteNumber":49,"Velocity":24,"Duration":878219,"SoundDuration":878219,"Delta":16243887},{"NoteNumber":56,"Velocity":20,"Duration":1319343,"SoundDuration":1319343,"Delta":17122107},{"NoteNumber":63,"Velocity":33,"Duration":1319343,"SoundDuration":1319343,"Delta":17122107},{"NoteNumber":44,"Velocity":20,"Duration":1319343,"SoundDuration":1319343,"Delta":17122107},{"NoteNumber":51,"Velocity":27,"Duration":1319343,"SoundDuration":1319343,"Delta":17122107},{"NoteNumber":37,"Velocity":20,"Duration":1319343,"SoundDuration":1319343,"Delta":17122107},{"NoteNumber":58,"Velocity":33,"Duration":840336,"SoundDuration":840336,"Delta":17122107},{"NoteNumber":70,"Velocity":33,"Duration":840336,"SoundDuration":840336,"Delta":17122107},{"NoteNumber":70,"Velocity":24,"Duration":1459789,"SoundDuration":1459789,"Delta":17962443},{"NoteNumber":63,"Velocity":31,"Duration":499833,"SoundDuration":499833,"Delta":18462277},{"NoteNumber":59,"Velocity":24,"Duration":499833,"SoundDuration":499833,"Delta":18462277},{"NoteNumber":58,"Velocity":26,"Duration":491502,"SoundDuration":491502,"Delta":18462277},{"NoteNumber":44,"Velocity":20,"Duration":499833,"SoundDuration":499833,"Delta":18462277},{"NoteNumber":51,"Velocity":20,"Duration":499833,"SoundDuration":499833,"Delta":18462277},{"NoteNumber":65,"Velocity":33,"Duration":4376376,"SoundDuration":4376376,"Delta":18962110},{"NoteNumber":58,"Velocity":26,"Duration":4376376,"SoundDuration":4376376,"Delta":18962110},{"NoteNumber":39,"Velocity":20,"Duration":4384045,"SoundDuration":4384045,"Delta":18962110},{"NoteNumber":46,"Velocity":20,"Duration":4380211,"SoundDuration":4380211,"Delta":18962110},{"NoteNumber":53,"Velocity":27,"Duration":4380211,"SoundDuration":4380211,"Delta":18962110},{"NoteNumber":70,"Velocity":36,"Duration":1680672,"SoundDuration":1680672,"Delta":19882355},{"NoteNumber":58,"Velocity":32,"Duration":2237575,"SoundDuration":2237575,"Delta":21563028},{"NoteNumber":70,"Velocity":32,"Duration":878219,"SoundDuration":878219,"Delta":21563028},{"NoteNumber":70,"Velocity":21,"Duration":1359355,"SoundDuration":1359355,"Delta":22441247},{"NoteNumber":61,"Velocity":28,"Duration":878219,"SoundDuration":878219,"Delta":23361493},{"NoteNumber":54,"Velocity":19,"Duration":878219,"SoundDuration":878219,"Delta":23361493},{"NoteNumber":49,"Velocity":24,"Duration":878219,"SoundDuration":878219,"Delta":23361493},{"NoteNumber":35,"Velocity":19,"Duration":878219,"SoundDuration":878219,"Delta":23361493},{"NoteNumber":42,"Velocity":19,"Duration":878219,"SoundDuration":878219,"Delta":23361493},{"NoteNumber":56,"Velocity":20,"Duration":1319343,"SoundDuration":1319343,"Delta":24239713},{"NoteNumber":63,"Velocity":33,"Duration":1315177,"SoundDuration":1315177,"Delta":24239713},{"NoteNumber":37,"Velocity":20,"Duration":1323508,"SoundDuration":1323508,"Delta":24239713},{"NoteNumber":44,"Velocity":20,"Duration":1340169,"SoundDuration":1340169,"Delta":24239713},{"NoteNumber":51,"Velocity":27,"Duration":1319343,"SoundDuration":1319343,"Delta":24239713},{"NoteNumber":58,"Velocity":34,"Duration":840336,"SoundDuration":840336,"Delta":24239713},{"NoteNumber":70,"Velocity":34,"Duration":840336,"SoundDuration":840336,"Delta":24239713},{"NoteNumber":70,"Velocity":21,"Duration":1482758,"SoundDuration":1482758,"Delta":25080049},{"NoteNumber":59,"Velocity":20,"Duration":499833,"SoundDuration":499833,"Delta":25579883},{"NoteNumber":63,"Velocity":31,"Duration":499833,"SoundDuration":499833,"Delta":25579883},{"NoteNumber":44,"Velocity":20,"Duration":499833,"SoundDuration":499833,"Delta":25579883},{"NoteNumber":51,"Velocity":20,"Duration":499833,"SoundDuration":499833,"Delta":25579883},{"NoteNumber":58,"Velocity":26,"Duration":491502,"SoundDuration":491502,"Delta":25579883},{"NoteNumber":65,"Velocity":33,"Duration":7569796,"SoundDuration":7569796,"Delta":26079716},{"NoteNumber":58,"Velocity":26,"Duration":7569796,"SoundDuration":7569796,"Delta":26079716},{"NoteNumber":39,"Velocity":20,"Duration":7569796,"SoundDuration":7569796,"Delta":26079716},{"NoteNumber":46,"Velocity":20,"Duration":7569796,"SoundDuration":7569796,"Delta":26079716},{"NoteNumber":53,"Velocity":27,"Duration":7569796,"SoundDuration":7569796,"Delta":26079716},{"NoteNumber":70,"Velocity":37,"Duration":1756440,"SoundDuration":1756440,"Delta":27045899},{"NoteNumber":58,"Velocity":31,"Duration":2300613,"SoundDuration":2300613,"Delta":28802339},{"NoteNumber":70,"Velocity":31,"Duration":920245,"SoundDuration":920245,"Delta":28802339},{"NoteNumber":70,"Velocity":19,"Duration":1380368,"SoundDuration":1380368,"Delta":29722585},{"NoteNumber":58,"Velocity":36,"Duration":2518962,"SoundDuration":2518962,"Delta":31563076},{"NoteNumber":70,"Velocity":36,"Duration":878219,"SoundDuration":878219,"Delta":31563076},{"NoteNumber":70,"Velocity":20,"Duration":1640742,"SoundDuration":1640742,"Delta":32441296},{"NoteNumber":73,"Velocity":42,"Duration":1265383,"SoundDuration":1265383,"Delta":33649512},{"NoteNumber":61,"Velocity":37,"Duration":1265383,"SoundDuration":1265383,"Delta":33649512},{"NoteNumber":58,"Velocity":30,"Duration":1680786,"SoundDuration":1680786,"Delta":34514564},{"NoteNumber":70,"Velocity":36,"Duration":1680786,"SoundDuration":1680786,"Delta":34514564},{"NoteNumber":75,"Velocity":39,"Duration":414135,"SoundDuration":414135,"Delta":34928700},{"NoteNumber":63,"Velocity":33,"Duration":414135,"SoundDuration":414135,"Delta":34928700},{"NoteNumber":73,"Velocity":37,"Duration":1694373,"SoundDuration":1694373,"Delta":35342835},{"NoteNumber":61,"Velocity":32,"Duration":1687269,"SoundDuration":1687269,"Delta":35342835},{"NoteNumber":58,"Velocity":30,"Duration":2095321,"SoundDuration":2095321,"Delta":36195350},{"NoteNumber":70,"Velocity":36,"Duration":852515,"SoundDuration":852515,"Delta":36195350},{"NoteNumber":76,"Velocity":45,"Duration":816548,"SoundDuration":816548,"Delta":37047865},{"NoteNumber":64,"Velocity":40,"Duration":823652,"SoundDuration":823652,"Delta":37047865},{"NoteNumber":70,"Velocity":25,"Duration":1242806,"SoundDuration":1242806,"Delta":37047865},{"NoteNumber":75,"Velocity":42,"Duration":859946,"SoundDuration":859946,"Delta":37864414},{"NoteNumber":63,"Velocity":37,"Duration":852514,"SoundDuration":852514,"Delta":37864414},{"NoteNumber":72,"Velocity":39,"Duration":1319114,"SoundDuration":1319114,"Delta":38716929},{"NoteNumber":60,"Velocity":34,"Duration":1319114,"SoundDuration":1319114,"Delta":38716929},{"NoteNumber":58,"Velocity":31,"Duration":2348005,"SoundDuration":2348005,"Delta":38716929},{"NoteNumber":70,"Velocity":37,"Duration":891795,"SoundDuration":891795,"Delta":38716929},{"NoteNumber":70,"Velocity":28,"Duration":1456209,"SoundDuration":1456209,"Delta":39608724},{"NoteNumber":75,"Velocity":39,"Duration":548123,"SoundDuration":548123,"Delta":40054622},{"NoteNumber":63,"Velocity":34,"Duration":548123,"SoundDuration":548123,"Delta":40054622},{"NoteNumber":75,"Velocity":39,"Duration":1770848,"SoundDuration":1770848,"Delta":40612036},{"NoteNumber":64,"Velocity":25,"Duration":3602141,"SoundDuration":3602141,"Delta":40612036},{"NoteNumber":63,"Velocity":33,"Duration":1770848,"SoundDuration":1770848,"Delta":40612036},{"NoteNumber":58,"Velocity":26,"Duration":1785297,"SoundDuration":1785297,"Delta":41517833},{"NoteNumber":70,"Velocity":31,"Duration":1785297,"SoundDuration":1785297,"Delta":41517833},{"NoteNumber":73,"Velocity":28,"Duration":5634664,"SoundDuration":5634664,"Delta":42382885},{"NoteNumber":61,"Velocity":25,"Duration":5634664,"SoundDuration":5634664,"Delta":42382885},{"NoteNumber":58,"Velocity":26,"Duration":2208624,"SoundDuration":2208624,"Delta":43303130},{"NoteNumber":70,"Velocity":31,"Duration":911046,"SoundDuration":911046,"Delta":43303130},{"NoteNumber":70,"Velocity":21,"Duration":1297577,"SoundDuration":1297577,"Delta":44214177},{"NoteNumber":58,"Velocity":37,"Duration":6458202,"SoundDuration":6458202,"Delta":45944281},{"NoteNumber":70,"Velocity":37,"Duration":865051,"SoundDuration":865051,"Delta":45944281},{"NoteNumber":70,"Velocity":21,"Duration":1668338,"SoundDuration":1668338,"Delta":46809333},{"NoteNumber":65,"Velocity":42,"Duration":4366063,"SoundDuration":4366063,"Delta":48017549},{"NoteNumber":46,"Velocity":26,"Duration":4369837,"SoundDuration":4369837,"Delta":48017549},{"NoteNumber":53,"Velocity":33,"Duration":4366063,"SoundDuration":4366063,"Delta":48017549},{"NoteNumber":39,"Velocity":26,"Duration":4369837,"SoundDuration":4369837,"Delta":48017549},{"NoteNumber":70,"Velocity":37,"Duration":1680672,"SoundDuration":1680672,"Delta":48937794},{"NoteNumber":58,"Velocity":34,"Duration":2223126,"SoundDuration":2223126,"Delta":50618466},{"NoteNumber":70,"Velocity":34,"Duration":878219,"SoundDuration":878219,"Delta":50618466},{"NoteNumber":70,"Velocity":21,"Duration":1344906,"SoundDuration":1344906,"Delta":51496686},{"NoteNumber":61,"Velocity":34,"Duration":878219,"SoundDuration":878219,"Delta":52402483},{"NoteNumber":54,"Velocity":21,"Duration":878219,"SoundDuration":878219,"Delta":52402483},{"NoteNumber":49,"Velocity":28,"Duration":878219,"SoundDuration":878219,"Delta":52402483},{"NoteNumber":35,"Velocity":21,"Duration":878219,"SoundDuration":878219,"Delta":52402483},{"NoteNumber":42,"Velocity":21,"Duration":878219,"SoundDuration":878219,"Delta":52402483},{"NoteNumber":63,"Velocity":42,"Duration":1327356,"SoundDuration":1327356,"Delta":53280703},{"NoteNumber":56,"Velocity":26,"Duration":1331522,"SoundDuration":1331522,"Delta":53280703},{"NoteNumber":44,"Velocity":26,"Duration":1327356,"SoundDuration":1327356,"Delta":53280703},{"NoteNumber":51,"Velocity":33,"Duration":1335687,"SoundDuration":1335687,"Delta":53280703},{"NoteNumber":37,"Velocity":26,"Duration":1335687,"SoundDuration":1335687,"Delta":53280703},{"NoteNumber":58,"Velocity":32,"Duration":852514,"SoundDuration":852514,"Delta":53280703},{"NoteNumber":70,"Velocity":38,"Duration":852514,"SoundDuration":852514,"Delta":53280703},{"NoteNumber":70,"Velocity":21,"Duration":1490987,"SoundDuration":1490987,"Delta":54133218},{"NoteNumber":63,"Velocity":38,"Duration":499833,"SoundDuration":499833,"Delta":54633052},{"NoteNumber":59,"Velocity":30,"Duration":499833,"SoundDuration":499833,"Delta":54633052},{"NoteNumber":44,"Velocity":24,"Duration":499833,"SoundDuration":499833,"Delta":54633052},{"NoteNumber":51,"Velocity":24,"Duration":499833,"SoundDuration":499833,"Delta":54633052},{"NoteNumber":58,"Velocity":31,"Duration":491502,"SoundDuration":491502,"Delta":54633052},{"NoteNumber":65,"Velocity":42,"Duration":7658152,"SoundDuration":7658152,"Delta":55132885},{"NoteNumber":58,"Velocity":32,"Duration":7658152,"SoundDuration":7658152,"Delta":55132885},{"NoteNumber":39,"Velocity":26,"Duration":7658152,"SoundDuration":7658152,"Delta":55132885},{"NoteNumber":46,"Velocity":26,"Duration":7658152,"SoundDuration":7658152,"Delta":55132885},{"NoteNumber":53,"Velocity":33,"Duration":7658152,"SoundDuration":7658152,"Delta":55132885},{"NoteNumber":70,"Velocity":40,"Duration":1783591,"SoundDuration":1783591,"Delta":56115525},{"NoteNumber":58,"Velocity":30,"Duration":935161,"SoundDuration":935161,"Delta":57899116},{"NoteNumber":70,"Velocity":36,"Duration":935161,"SoundDuration":935161,"Delta":57899116},{"NoteNumber":58,"Velocity":16,"Duration":1402743,"SoundDuration":1402743,"Delta":58834278},{"NoteNumber":70,"Velocity":19,"Duration":1402743,"SoundDuration":1402743,"Delta":58834278},{"NoteNumber":58,"Velocity":32,"Duration":878219,"SoundDuration":878219,"Delta":60704602},{"NoteNumber":70,"Velocity":38,"Duration":878219,"SoundDuration":878219,"Delta":60704602},{"NoteNumber":58,"Velocity":16,"Duration":1634473,"SoundDuration":1634473,"Delta":61582822},{"NoteNumber":70,"Velocity":20,"Duration":1634473,"SoundDuration":1634473,"Delta":61582822},{"NoteNumber":73,"Velocity":38,"Duration":1243777,"SoundDuration":1243777,"Delta":62791038},{"NoteNumber":76,"Velocity":43,"Duration":1243777,"SoundDuration":1243777,"Delta":62791038},{"NoteNumber":61,"Velocity":33,"Duration":1243777,"SoundDuration":1243777,"Delta":62791038},{"NoteNumber":64,"Velocity":38,"Duration":1247180,"SoundDuration":1247180,"Delta":62791038},{"NoteNumber":58,"Velocity":32,"Duration":1669063,"SoundDuration":1669063,"Delta":63643553},{"NoteNumber":70,"Velocity":38,"Duration":1669063,"SoundDuration":1669063,"Delta":63643553},{"NoteNumber":78,"Velocity":39,"Duration":408274,"SoundDuration":408274,"Delta":64051828},{"NoteNumber":75,"Velocity":34,"Duration":408274,"SoundDuration":408274,"Delta":64051828},{"NoteNumber":63,"Velocity":31,"Duration":408274,"SoundDuration":408274,"Delta":64051828},{"NoteNumber":66,"Velocity":34,"Duration":408274,"SoundDuration":408274,"Delta":64051828},{"NoteNumber":76,"Velocity":38,"Duration":1690821,"SoundDuration":1690821,"Delta":64460102},{"NoteNumber":73,"Velocity":33,"Duration":1687269,"SoundDuration":1687269,"Delta":64460102},{"NoteNumber":61,"Velocity":30,"Duration":1683717,"SoundDuration":1683717,"Delta":64460102},{"NoteNumber":64,"Velocity":33,"Duration":1687269,"SoundDuration":1687269,"Delta":64460102},{"NoteNumber":58,"Velocity":40,"Duration":2095320,"SoundDuration":2095320,"Delta":65312617},{"NoteNumber":70,"Velocity":45,"Duration":852514,"SoundDuration":852514,"Delta":65312617},{"NoteNumber":76,"Velocity":42,"Duration":816548,"SoundDuration":816548,"Delta":66165132},{"NoteNumber":80,"Velocity":46,"Duration":816548,"SoundDuration":816548,"Delta":66165132},{"NoteNumber":64,"Velocity":37,"Duration":816548,"SoundDuration":816548,"Delta":66165132},{"NoteNumber":68,"Velocity":42,"Duration":816548,"SoundDuration":816548,"Delta":66165132},{"NoteNumber":70,"Velocity":37,"Duration":1242806,"SoundDuration":1242806,"Delta":66165132},{"NoteNumber":79,"Velocity":43,"Duration":852514,"SoundDuration":852514,"Delta":66981680},{"NoteNumber":75,"Velocity":38,"Duration":852514,"SoundDuration":852514,"Delta":66981680},{"NoteNumber":67,"Velocity":38,"Duration":852514,"SoundDuration":852514,"Delta":66981680},{"NoteNumber":63,"Velocity":33,"Duration":852514,"SoundDuration":852514,"Delta":66981680},{"NoteNumber":70,"Velocity":37,"Duration":1315398,"SoundDuration":1315398,"Delta":67834195},{"NoteNumber":73,"Velocity":42,"Duration":1322829,"SoundDuration":1322829,"Delta":67834195},{"NoteNumber":58,"Velocity":32,"Duration":1322829,"SoundDuration":1322829,"Delta":67834195},{"NoteNumber":61,"Velocity":37,"Duration":1322829,"SoundDuration":1322829,"Delta":67834195},{"NoteNumber":58,"Velocity":32,"Duration":2348005,"SoundDuration":2348005,"Delta":67834195},{"NoteNumber":70,"Velocity":38,"Duration":891795,"SoundDuration":891795,"Delta":67834195},{"NoteNumber":70,"Velocity":28,"Duration":1456209,"SoundDuration":1456209,"Delta":68725991},{"NoteNumber":78,"Velocity":43,"Duration":543478,"SoundDuration":543478,"Delta":69171889},{"NoteNumber":75,"Velocity":38,"Duration":548123,"SoundDuration":548123,"Delta":69171889},{"NoteNumber":63,"Velocity":33,"Duration":538833,"SoundDuration":538833,"Delta":69171889},{"NoteNumber":66,"Velocity":38,"Duration":538833,"SoundDuration":538833,"Delta":69171889},{"NoteNumber":78,"Velocity":39,"Duration":1784017,"SoundDuration":1784017,"Delta":69729302},{"NoteNumber":75,"Velocity":34,"Duration":1784017,"SoundDuration":1784017,"Delta":69729302},{"NoteNumber":63,"Velocity":31,"Duration":1784017,"SoundDuration":1784017,"Delta":69729302},{"NoteNumber":66,"Velocity":34,"Duration":1784017,"SoundDuration":1784017,"Delta":69729302},{"NoteNumber":58,"Velocity":25,"Duration":1798465,"SoundDuration":1798465,"Delta":70635099},{"NoteNumber":70,"Velocity":30,"Duration":1798465,"SoundDuration":1798465,"Delta":70635099},{"NoteNumber":73,"Velocity":26,"Duration":5481816,"SoundDuration":5481816,"Delta":71513319},{"NoteNumber":76,"Velocity":28,"Duration":5481816,"SoundDuration":5481816,"Delta":71513319},{"NoteNumber":64,"Velocity":25,"Duration":5481816,"SoundDuration":5481816,"Delta":71513319},{"NoteNumber":61,"Velocity":21,"Duration":5481816,"SoundDuration":5481816,"Delta":71513319},{"NoteNumber":58,"Velocity":26,"Duration":2217823,"SoundDuration":2217823,"Delta":72433565},{"NoteNumber":70,"Velocity":31,"Duration":920245,"SoundDuration":920245,"Delta":72433565},{"NoteNumber":70,"Velocity":21,"Duration":1297578,"SoundDuration":1297578,"Delta":73353810},{"NoteNumber":58,"Velocity":32,"Duration":2378802,"SoundDuration":2378802,"Delta":75083914},{"NoteNumber":70,"Velocity":32,"Duration":876025,"SoundDuration":876025,"Delta":75083914},{"NoteNumber":70,"Velocity":21,"Duration":1502777,"SoundDuration":1502777,"Delta":75959939},{"NoteNumber":71,"Velocity":45,"Duration":4437735,"SoundDuration":4437735,"Delta":76995136},{"NoteNumber":75,"Velocity":45,"Duration":4437735,"SoundDuration":4437735,"Delta":76995136},{"NoteNumber":80,"Velocity":51,"Duration":4437735,"SoundDuration":4437735,"Delta":76995136},{"NoteNumber":68,"Velocity":45,"Duration":4437735,"SoundDuration":4437735,"Delta":76995136},{"NoteNumber":53,"Velocity":38,"Duration":4437735,"SoundDuration":4437735,"Delta":76995136},{"NoteNumber":63,"Velocity":38,"Duration":4437735,"SoundDuration":4437735,"Delta":76995136},{"NoteNumber":59,"Velocity":38,"Duration":4437735,"SoundDuration":4437735,"Delta":76995136},{"NoteNumber":58,"Velocity":45,"Duration":1718555,"SoundDuration":1718555,"Delta":77930298},{"NoteNumber":70,"Velocity":45,"Duration":1718555,"SoundDuration":1718555,"Delta":77930298},{"NoteNumber":34,"Velocity":36,"Duration":6980322,"SoundDuration":6980322,"Delta":78770634},{"NoteNumber":46,"Velocity":36,"Duration":6980322,"SoundDuration":6980322,"Delta":78770634},{"NoteNumber":58,"Velocity":44,"Duration":2198152,"SoundDuration":2198152,"Delta":79648854},{"NoteNumber":70,"Velocity":44,"Duration":878219,"SoundDuration":878219,"Delta":79648854},{"NoteNumber":70,"Velocity":32,"Duration":1319932,"SoundDuration":1319932,"Delta":80527074},{"NoteNumber":64,"Velocity":44,"Duration":828271,"SoundDuration":828271,"Delta":81432871},{"NoteNumber":76,"Velocity":50,"Duration":828271,"SoundDuration":828271,"Delta":81432871},{"NoteNumber":68,"Velocity":44,"Duration":828271,"SoundDuration":828271,"Delta":81432871},{"NoteNumber":71,"Velocity":44,"Duration":828271,"SoundDuration":828271,"Delta":81432871},{"NoteNumber":56,"Velocity":37,"Duration":828271,"SoundDuration":828271,"Delta":81432871},{"NoteNumber":49,"Velocity":37,"Duration":828271,"SoundDuration":828271,"Delta":81432871},{"NoteNumber":59,"Velocity":37,"Duration":828271,"SoundDuration":828271,"Delta":81432871},{"NoteNumber":72,"Velocity":48,"Duration":1242169,"SoundDuration":1242169,"Delta":82261142},{"NoteNumber":77,"Velocity":54,"Duration":1246065,"SoundDuration":1246065,"Delta":82261142},{"NoteNumber":65,"Velocity":48,"Duration":1242169,"SoundDuration":1242169,"Delta":82261142},{"NoteNumber":68,"Velocity":48,"Duration":1238272,"SoundDuration":1238272,"Delta":82261142},{"NoteNumber":50,"Velocity":39,"Duration":1238272,"SoundDuration":1238272,"Delta":82261142},{"NoteNumber":56,"Velocity":39,"Duration":1246065,"SoundDuration":1246065,"Delta":82261142},{"NoteNumber":58,"Velocity":39,"Duration":1238272,"SoundDuration":1238272,"Delta":82261142},{"NoteNumber":60,"Velocity":39,"Duration":1238272,"SoundDuration":1238272,"Delta":82261142},{"NoteNumber":70,"Velocity":45,"Duration":794071,"SoundDuration":794071,"Delta":82261142},{"NoteNumber":70,"Velocity":38,"Duration":1395284,"SoundDuration":1395284,"Delta":83055213},{"NoteNumber":78,"Velocity":51,"Duration":467581,"SoundDuration":467581,"Delta":83522794},{"NoteNumber":70,"Velocity":51,"Duration":467581,"SoundDuration":467581,"Delta":83522794},{"NoteNumber":74,"Velocity":51,"Duration":467581,"SoundDuration":467581,"Delta":83522794},{"NoteNumber":82,"Velocity":58,"Duration":467581,"SoundDuration":467581,"Delta":83522794},{"NoteNumber":56,"Velocity":43,"Duration":467581,"SoundDuration":467581,"Delta":83522794},{"NoteNumber":58,"Velocity":43,"Duration":467581,"SoundDuration":467581,"Delta":83522794},{"NoteNumber":62,"Velocity":43,"Duration":467581,"SoundDuration":467581,"Delta":83522794},{"NoteNumber":66,"Velocity":43,"Duration":467581,"SoundDuration":467581,"Delta":83522794},{"NoteNumber":71,"Velocity":50,"Duration":4422818,"SoundDuration":4422818,"Delta":83990375},{"NoteNumber":68,"Velocity":50,"Duration":4422818,"SoundDuration":4422818,"Delta":83990375},{"NoteNumber":80,"Velocity":55,"Duration":4422818,"SoundDuration":4422818,"Delta":83990375},{"NoteNumber":75,"Velocity":50,"Duration":4422818,"SoundDuration":4422818,"Delta":83990375},{"NoteNumber":53,"Velocity":38,"Duration":4422818,"SoundDuration":4422818,"Delta":83990375},{"NoteNumber":59,"Velocity":38,"Duration":4422818,"SoundDuration":4422818,"Delta":83990375},{"NoteNumber":63,"Velocity":38,"Duration":4422818,"SoundDuration":4422818,"Delta":83990375},{"NoteNumber":58,"Velocity":45,"Duration":1718555,"SoundDuration":1718555,"Delta":84910621},{"NoteNumber":70,"Velocity":49,"Duration":1718555,"SoundDuration":1718555,"Delta":84910621},{"NoteNumber":34,"Velocity":36,"Duration":6812060,"SoundDuration":6812060,"Delta":85750957},{"NoteNumber":46,"Velocity":36,"Duration":6812060,"SoundDuration":6812060,"Delta":85750957},{"NoteNumber":58,"Velocity":32,"Duration":2198152,"SoundDuration":2198152,"Delta":86629177},{"NoteNumber":70,"Velocity":38,"Duration":878219,"SoundDuration":878219,"Delta":86629177},{"NoteNumber":70,"Velocity":21,"Duration":1319932,"SoundDuration":1319932,"Delta":87507397},{"NoteNumber":71,"Velocity":44,"Duration":828271,"SoundDuration":828271,"Delta":88413194},{"NoteNumber":64,"Velocity":44,"Duration":828271,"SoundDuration":828271,"Delta":88413194},{"NoteNumber":68,"Velocity":44,"Duration":828271,"SoundDuration":828271,"Delta":88413194},{"NoteNumber":76,"Velocity":50,"Duration":828271,"SoundDuration":828271,"Delta":88413194},{"NoteNumber":49,"Velocity":37,"Duration":828271,"SoundDuration":828271,"Delta":88413194},{"NoteNumber":56,"Velocity":37,"Duration":828271,"SoundDuration":828271,"Delta":88413194},{"NoteNumber":59,"Velocity":37,"Duration":828271,"SoundDuration":828271,"Delta":88413194},{"NoteNumber":77,"Velocity":54,"Duration":526704,"SoundDuration":526704,"Delta":89241465},{"NoteNumber":65,"Velocity":48,"Duration":526704,"SoundDuration":526704,"Delta":89241465},{"NoteNumber":72,"Velocity":48,"Duration":526704,"SoundDuration":526704,"Delta":89241465},{"NoteNumber":68,"Velocity":48,"Duration":523349,"SoundDuration":523349,"Delta":89241465},{"NoteNumber":50,"Velocity":39,"Duration":526704,"SoundDuration":526704,"Delta":89241465},{"NoteNumber":58,"Velocity":39,"Duration":526704,"SoundDuration":526704,"Delta":89241465},{"NoteNumber":56,"Velocity":39,"Duration":523349,"SoundDuration":523349,"Delta":89241465},{"NoteNumber":60,"Velocity":39,"Duration":526704,"SoundDuration":526704,"Delta":89241465},{"NoteNumber":70,"Velocity":54,"Duration":787709,"SoundDuration":787709,"Delta":89241465},{"NoteNumber":74,"Velocity":52,"Duration":501881,"SoundDuration":501881,"Delta":89778234},{"NoteNumber":78,"Velocity":52,"Duration":501881,"SoundDuration":501881,"Delta":89778234},{"NoteNumber":82,"Velocity":58,"Duration":501881,"SoundDuration":501881,"Delta":89778234},{"NoteNumber":70,"Velocity":52,"Duration":501881,"SoundDuration":501881,"Delta":89778234},{"NoteNumber":62,"Velocity":43,"Duration":501881,"SoundDuration":501881,"Delta":89778234},{"NoteNumber":56,"Velocity":43,"Duration":1038650,"SoundDuration":1038650,"Delta":89778234},{"NoteNumber":58,"Velocity":43,"Duration":1038650,"SoundDuration":1038650,"Delta":89778234},{"NoteNumber":66,"Velocity":43,"Duration":501881,"SoundDuration":501881,"Delta":89778234},{"NoteNumber":70,"Velocity":44,"Duration":1240608,"SoundDuration":1240608,"Delta":90029175},{"NoteNumber":77,"Velocity":50,"Duration":536768,"SoundDuration":536768,"Delta":90280116},{"NoteNumber":73,"Velocity":50,"Duration":536768,"SoundDuration":536768,"Delta":90280116},{"NoteNumber":81,"Velocity":55,"Duration":536768,"SoundDuration":536768,"Delta":90280116},{"NoteNumber":69,"Velocity":50,"Duration":536768,"SoundDuration":536768,"Delta":90280116},{"NoteNumber":61,"Velocity":40,"Duration":536768,"SoundDuration":536768,"Delta":90280116},{"NoteNumber":65,"Velocity":40,"Duration":536768,"SoundDuration":536768,"Delta":90280116},{"NoteNumber":71,"Velocity":50,"Duration":4377375,"SoundDuration":4377375,"Delta":90816885},{"NoteNumber":68,"Velocity":50,"Duration":4377375,"SoundDuration":4377375,"Delta":90816885},{"NoteNumber":80,"Velocity":55,"Duration":4377375,"SoundDuration":4377375,"Delta":90816885},{"NoteNumber":75,"Velocity":50,"Duration":4377375,"SoundDuration":4377375,"Delta":90816885},{"NoteNumber":53,"Velocity":38,"Duration":4377375,"SoundDuration":4377375,"Delta":90816885},{"NoteNumber":59,"Velocity":38,"Duration":4377375,"SoundDuration":4377375,"Delta":90816885},{"NoteNumber":63,"Velocity":38,"Duration":4377375,"SoundDuration":4377375,"Delta":90816885},{"NoteNumber":58,"Velocity":44,"Duration":1680672,"SoundDuration":1680672,"Delta":91722682},{"NoteNumber":70,"Velocity":44,"Duration":1680672,"SoundDuration":1680672,"Delta":91722682},{"NoteNumber":34,"Velocity":36,"Duration":5363529,"SoundDuration":5363529,"Delta":92563018},{"NoteNumber":46,"Velocity":36,"Duration":5363529,"SoundDuration":5363529,"Delta":92563018},{"NoteNumber":58,"Velocity":32,"Duration":2236804,"SoundDuration":2236804,"Delta":93403354},{"NoteNumber":70,"Velocity":38,"Duration":840335,"SoundDuration":840335,"Delta":93403354},{"NoteNumber":70,"Velocity":31,"Duration":1396468,"SoundDuration":1396468,"Delta":94243690},{"NoteNumber":70,"Velocity":48,"Duration":1812041,"SoundDuration":1812041,"Delta":95194260},{"NoteNumber":66,"Velocity":48,"Duration":1812041,"SoundDuration":1812041,"Delta":95194260},{"NoteNumber":78,"Velocity":52,"Duration":1812041,"SoundDuration":1812041,"Delta":95194260},{"NoteNumber":74,"Velocity":48,"Duration":1812041,"SoundDuration":1812041,"Delta":95194260},{"NoteNumber":53,"Velocity":31,"Duration":1812041,"SoundDuration":1812041,"Delta":95194260},{"NoteNumber":62,"Velocity":36,"Duration":1812041,"SoundDuration":1812041,"Delta":95194260},{"NoteNumber":58,"Velocity":31,"Duration":1812041,"SoundDuration":1812041,"Delta":95194260},{"NoteNumber":70,"Velocity":38,"Duration":920245,"SoundDuration":920245,"Delta":96086056},{"NoteNumber":68,"Velocity":38,"Duration":920245,"SoundDuration":920245,"Delta":97006301},{"NoteNumber":65,"Velocity":38,"Duration":920245,"SoundDuration":920245,"Delta":97006301},{"NoteNumber":77,"Velocity":43,"Duration":920245,"SoundDuration":920245,"Delta":97006301},{"NoteNumber":72,"Velocity":38,"Duration":920245,"SoundDuration":920245,"Delta":97006301},{"NoteNumber":50,"Velocity":24,"Duration":920245,"SoundDuration":920245,"Delta":97006301},{"NoteNumber":56,"Velocity":24,"Duration":920245,"SoundDuration":920245,"Delta":97006301},{"NoteNumber":60,"Velocity":28,"Duration":920245,"SoundDuration":920245,"Delta":97006301},{"NoteNumber":58,"Velocity":24,"Duration":920245,"SoundDuration":920245,"Delta":97006301},{"NoteNumber":70,"Velocity":33,"Duration":1411565,"SoundDuration":1411565,"Delta":97006301},{"NoteNumber":51,"Velocity":27,"Duration":3743376,"SoundDuration":3743376,"Delta":97926547},{"NoteNumber":56,"Velocity":27,"Duration":3743376,"SoundDuration":3743376,"Delta":97926547},{"NoteNumber":39,"Velocity":24,"Duration":3743376,"SoundDuration":3743376,"Delta":97926547},{"NoteNumber":46,"Velocity":24,"Duration":3743376,"SoundDuration":3743376,"Delta":97926547},{"NoteNumber":58,"Velocity":26,"Duration":3220859,"SoundDuration":3220859,"Delta":98909187},{"NoteNumber":70,"Velocity":32,"Duration":920245,"SoundDuration":920245,"Delta":98909187},{"NoteNumber":70,"Velocity":21,"Duration":2300613,"SoundDuration":2300613,"Delta":99829432},{"NoteNumber":46,"Velocity":20,"Duration":1974356,"SoundDuration":1974356,"Delta":101669923},{"NoteNumber":51,"Velocity":20,"Duration":1974356,"SoundDuration":1974356,"Delta":101669923},{"NoteNumber":34,"Velocity":20,"Duration":1974356,"SoundDuration":1974356,"Delta":101669923},{"NoteNumber":41,"Velocity":20,"Duration":1974356,"SoundDuration":1974356,"Delta":101669923},{"NoteNumber":58,"Velocity":26,"Duration":2053778,"SoundDuration":2053778,"Delta":102590169},{"NoteNumber":70,"Velocity":32,"Duration":2053778,"SoundDuration":2053778,"Delta":102590169},{"NoteNumber":51,"Velocity":24,"Duration":3805153,"SoundDuration":3805153,"Delta":103644280},{"NoteNumber":56,"Velocity":24,"Duration":3805153,"SoundDuration":3805153,"Delta":103644280},{"NoteNumber":39,"Velocity":22,"Duration":3805153,"SoundDuration":3805153,"Delta":103644280},{"NoteNumber":46,"Velocity":22,"Duration":3805153,"SoundDuration":3805153,"Delta":103644280},{"NoteNumber":58,"Velocity":26,"Duration":3314132,"SoundDuration":3314132,"Delta":104643947},{"NoteNumber":70,"Velocity":32,"Duration":935162,"SoundDuration":935162,"Delta":104643947},{"NoteNumber":70,"Velocity":21,"Duration":2378970,"SoundDuration":2378970,"Delta":105579109},{"NoteNumber":46,"Velocity":20,"Duration":2251354,"SoundDuration":2251354,"Delta":107449433},{"NoteNumber":51,"Velocity":20,"Duration":2251354,"SoundDuration":2251354,"Delta":107449433},{"NoteNumber":34,"Velocity":19,"Duration":2251354,"SoundDuration":2251354,"Delta":107449433},{"NoteNumber":41,"Velocity":19,"Duration":2251354,"SoundDuration":2251354,"Delta":107449433},{"NoteNumber":58,"Velocity":22,"Duration":2169222,"SoundDuration":2169222,"Delta":108466727},{"NoteNumber":70,"Velocity":27,"Duration":2169222,"SoundDuration":2169222,"Delta":108466727},{"NoteNumber":39,"Velocity":36,"Duration":2392527,"SoundDuration":2392527,"Delta":109083757},{"NoteNumber":46,"Velocity":36,"Duration":2392527,"SoundDuration":2392527,"Delta":109083757},{"NoteNumber":73,"Velocity":45,"Duration":4437735,"SoundDuration":4437735,"Delta":109700787},{"NoteNumber":80,"Velocity":45,"Duration":4437735,"SoundDuration":4437735,"Delta":109700787},{"NoteNumber":76,"Velocity":45,"Duration":4437735,"SoundDuration":4437735,"Delta":109700787},{"NoteNumber":85,"Velocity":51,"Duration":4437735,"SoundDuration":4437735,"Delta":109700787},{"NoteNumber":58,"Velocity":38,"Duration":4437735,"SoundDuration":4437735,"Delta":109700787},{"NoteNumber":68,"Velocity":38,"Duration":4437735,"SoundDuration":4437735,"Delta":109700787},{"NoteNumber":64,"Velocity":38,"Duration":4437735,"SoundDuration":4437735,"Delta":109700787},{"NoteNumber":58,"Velocity":42,"Duration":1718555,"SoundDuration":1718555,"Delta":110635949},{"NoteNumber":70,"Velocity":46,"Duration":1718555,"SoundDuration":1718555,"Delta":110635949},{"NoteNumber":39,"Velocity":36,"Duration":6980323,"SoundDuration":6980323,"Delta":111476285},{"NoteNumber":27,"Velocity":36,"Duration":6980323,"SoundDuration":6980323,"Delta":111476285},{"NoteNumber":58,"Velocity":32,"Duration":2198152,"SoundDuration":2198152,"Delta":112354505},{"NoteNumber":70,"Velocity":38,"Duration":878219,"SoundDuration":878219,"Delta":112354505},{"NoteNumber":70,"Velocity":28,"Duration":1319932,"SoundDuration":1319932,"Delta":113232725},{"NoteNumber":81,"Velocity":50,"Duration":828271,"SoundDuration":828271,"Delta":114138522},{"NoteNumber":69,"Velocity":44,"Duration":828271,"SoundDuration":828271,"Delta":114138522},{"NoteNumber":72,"Velocity":44,"Duration":828271,"SoundDuration":828271,"Delta":114138522},{"NoteNumber":76,"Velocity":44,"Duration":828271,"SoundDuration":828271,"Delta":114138522},{"NoteNumber":64,"Velocity":37,"Duration":828271,"SoundDuration":828271,"Delta":114138522},{"NoteNumber":54,"Velocity":31,"Duration":828271,"SoundDuration":828271,"Delta":114138522},{"NoteNumber":60,"Velocity":31,"Duration":828271,"SoundDuration":828271,"Delta":114138522},{"NoteNumber":77,"Velocity":48,"Duration":1238272,"SoundDuration":1238272,"Delta":114966793},{"NoteNumber":82,"Velocity":54,"Duration":1238272,"SoundDuration":1238272,"Delta":114966793},{"NoteNumber":73,"Velocity":48,"Duration":1242169,"SoundDuration":1242169,"Delta":114966793},{"NoteNumber":61,"Velocity":33,"Duration":1238272,"SoundDuration":1238272,"Delta":114966793},{"NoteNumber":65,"Velocity":39,"Duration":1242169,"SoundDuration":1242169,"Delta":114966793},{"NoteNumber":55,"Velocity":33,"Duration":1242169,"SoundDuration":1242169,"Delta":114966793},{"NoteNumber":58,"Velocity":42,"Duration":2189355,"SoundDuration":2189355,"Delta":114966793},{"NoteNumber":70,"Velocity":44,"Duration":794071,"SoundDuration":794071,"Delta":114966793},{"NoteNumber":70,"Velocity":39,"Duration":1395284,"SoundDuration":1395284,"Delta":115760864},{"NoteNumber":83,"Velocity":51,"Duration":467581,"SoundDuration":467581,"Delta":116228445},{"NoteNumber":87,"Velocity":58,"Duration":467581,"SoundDuration":467581,"Delta":116228445},{"NoteNumber":76,"Velocity":51,"Duration":467581,"SoundDuration":467581,"Delta":116228445},{"NoteNumber":79,"Velocity":51,"Duration":467581,"SoundDuration":467581,"Delta":116228445},{"NoteNumber":71,"Velocity":43,"Duration":467581,"SoundDuration":467581,"Delta":116228445},{"NoteNumber":61,"Velocity":36,"Duration":467581,"SoundDuration":467581,"Delta":116228445},{"NoteNumber":67,"Velocity":36,"Duration":467581,"SoundDuration":467581,"Delta":116228445},{"NoteNumber":76,"Velocity":50,"Duration":4422818,"SoundDuration":4422818,"Delta":116696026},{"NoteNumber":80,"Velocity":50,"Duration":4422818,"SoundDuration":4422818,"Delta":116696026},{"NoteNumber":85,"Velocity":55,"Duration":4422818,"SoundDuration":4422818,"Delta":116696026},{"NoteNumber":73,"Velocity":50,"Duration":4422818,"SoundDuration":4422818,"Delta":116696026},{"NoteNumber":61,"Velocity":32,"Duration":4422818,"SoundDuration":4422818,"Delta":116696026},{"NoteNumber":64,"Velocity":32,"Duration":4422818,"SoundDuration":4422818,"Delta":116696026},{"NoteNumber":68,"Velocity":38,"Duration":4422818,"SoundDuration":4422818,"Delta":116696026},{"NoteNumber":58,"Velocity":43,"Duration":1718555,"SoundDuration":1718555,"Delta":117616272},{"NoteNumber":70,"Velocity":46,"Duration":1718555,"SoundDuration":1718555,"Delta":117616272},{"NoteNumber":39,"Velocity":36,"Duration":6928164,"SoundDuration":6928164,"Delta":118456608},{"NoteNumber":27,"Velocity":36,"Duration":6928164,"SoundDuration":6928164,"Delta":118456608},{"NoteNumber":58,"Velocity":42,"Duration":2198152,"SoundDuration":2198152,"Delta":119334828},{"NoteNumber":70,"Velocity":42,"Duration":878219,"SoundDuration":878219,"Delta":119334828},{"NoteNumber":70,"Velocity":31,"Duration":1319932,"SoundDuration":1319932,"Delta":120213048},{"NoteNumber":76,"Velocity":44,"Duration":828271,"SoundDuration":828271,"Delta":121118845},{"NoteNumber":69,"Velocity":44,"Duration":828271,"SoundDuration":828271,"Delta":121118845},{"NoteNumber":81,"Velocity":50,"Duration":828271,"SoundDuration":828271,"Delta":121118845},{"NoteNumber":72,"Velocity":44,"Duration":828271,"SoundDuration":828271,"Delta":121118845},{"NoteNumber":64,"Velocity":37,"Duration":828271,"SoundDuration":828271,"Delta":121118845},{"NoteNumber":54,"Velocity":31,"Duration":828271,"SoundDuration":828271,"Delta":121118845},{"NoteNumber":60,"Velocity":31,"Duration":828271,"SoundDuration":828271,"Delta":121118845},{"NoteNumber":77,"Velocity":48,"Duration":526704,"SoundDuration":526704,"Delta":121947116},{"NoteNumber":73,"Velocity":48,"Duration":526704,"SoundDuration":526704,"Delta":121947116},{"NoteNumber":82,"Velocity":54,"Duration":526704,"SoundDuration":526704,"Delta":121947116},{"NoteNumber":61,"Velocity":33,"Duration":526704,"SoundDuration":526704,"Delta":121947116},{"NoteNumber":55,"Velocity":33,"Duration":523349,"SoundDuration":523349,"Delta":121947116},{"NoteNumber":65,"Velocity":39,"Duration":526704,"SoundDuration":526704,"Delta":121947116},{"NoteNumber":58,"Velocity":56,"Duration":2144421,"SoundDuration":2144421,"Delta":121947116},{"NoteNumber":70,"Velocity":61,"Duration":816880,"SoundDuration":816880,"Delta":121947116},{"NoteNumber":87,"Velocity":58,"Duration":560224,"SoundDuration":560224,"Delta":122483885},{"NoteNumber":79,"Velocity":52,"Duration":560224,"SoundDuration":560224,"Delta":122483885},{"NoteNumber":83,"Velocity":52,"Duration":560224,"SoundDuration":560224,"Delta":122483885},{"NoteNumber":76,"Velocity":52,"Duration":560224,"SoundDuration":560224,"Delta":122483885},{"NoteNumber":67,"Velocity":36,"Duration":560224,"SoundDuration":560224,"Delta":122483885},{"NoteNumber":71,"Velocity":43,"Duration":560224,"SoundDuration":560224,"Delta":122483885},{"NoteNumber":61,"Velocity":36,"Duration":560224,"SoundDuration":560224,"Delta":122483885},{"NoteNumber":70,"Velocity":58,"Duration":1327540,"SoundDuration":1327540,"Delta":122763997},{"NoteNumber":78,"Velocity":50,"Duration":594530,"SoundDuration":594530,"Delta":123044109},{"NoteNumber":82,"Velocity":50,"Duration":594530,"SoundDuration":594530,"Delta":123044109},{"NoteNumber":86,"Velocity":55,"Duration":594530,"SoundDuration":594530,"Delta":123044109},{"NoteNumber":74,"Velocity":50,"Duration":594530,"SoundDuration":594530,"Delta":123044109},{"NoteNumber":66,"Velocity":34,"Duration":594530,"SoundDuration":594530,"Delta":123044109},{"NoteNumber":60,"Velocity":34,"Duration":594530,"SoundDuration":594530,"Delta":123044109},{"NoteNumber":70,"Velocity":40,"Duration":594530,"SoundDuration":594530,"Delta":123044109},{"NoteNumber":76,"Velocity":50,"Duration":4377375,"SoundDuration":4377375,"Delta":123638639},{"NoteNumber":80,"Velocity":50,"Duration":4377375,"SoundDuration":4377375,"Delta":123638639},{"NoteNumber":85,"Velocity":55,"Duration":4377375,"SoundDuration":4377375,"Delta":123638639},{"NoteNumber":73,"Velocity":50,"Duration":4377375,"SoundDuration":4377375,"Delta":123638639},{"NoteNumber":58,"Velocity":32,"Duration":4377375,"SoundDuration":4377375,"Delta":123638639},{"NoteNumber":64,"Velocity":32,"Duration":4377375,"SoundDuration":4377375,"Delta":123638639},{"NoteNumber":68,"Velocity":38,"Duration":4377375,"SoundDuration":4377375,"Delta":123638639},{"NoteNumber":58,"Velocity":45,"Duration":1680671,"SoundDuration":1680671,"Delta":124544436},{"NoteNumber":70,"Velocity":45,"Duration":1680671,"SoundDuration":1680671,"Delta":124544436},{"NoteNumber":39,"Velocity":36,"Duration":5363529,"SoundDuration":5363529,"Delta":125384772},{"NoteNumber":27,"Velocity":36,"Duration":5363529,"SoundDuration":5363529,"Delta":125384772},{"NoteNumber":58,"Velocity":44,"Duration":2236804,"SoundDuration":2236804,"Delta":126225108},{"NoteNumber":70,"Velocity":44,"Duration":840336,"SoundDuration":840336,"Delta":126225108},{"NoteNumber":70,"Velocity":33,"Duration":1396468,"SoundDuration":1396468,"Delta":127065444},{"NoteNumber":75,"Velocity":48,"Duration":1812040,"SoundDuration":1812040,"Delta":128016015},{"NoteNumber":79,"Velocity":48,"Duration":1812040,"SoundDuration":1812040,"Delta":128016015},{"NoteNumber":83,"Velocity":52,"Duration":1812040,"SoundDuration":1812040,"Delta":128016015},{"NoteNumber":71,"Velocity":48,"Duration":1812040,"SoundDuration":1812040,"Delta":128016015},{"NoteNumber":58,"Velocity":31,"Duration":1812040,"SoundDuration":1812040,"Delta":128016015},{"NoteNumber":67,"Velocity":36,"Duration":1812040,"SoundDuration":1812040,"Delta":128016015},{"NoteNumber":63,"Velocity":31,"Duration":1812040,"SoundDuration":1812040,"Delta":128016015},{"NoteNumber":70,"Velocity":38,"Duration":920245,"SoundDuration":920245,"Delta":128907810},{"NoteNumber":77,"Velocity":38,"Duration":920245,"SoundDuration":920245,"Delta":129828056},{"NoteNumber":82,"Velocity":43,"Duration":920245,"SoundDuration":920245,"Delta":129828056},{"NoteNumber":73,"Velocity":38,"Duration":920245,"SoundDuration":920245,"Delta":129828056},{"NoteNumber":55,"Velocity":24,"Duration":920245,"SoundDuration":920245,"Delta":129828056},{"NoteNumber":61,"Velocity":24,"Duration":920245,"SoundDuration":920245,"Delta":129828056},{"NoteNumber":65,"Velocity":28,"Duration":920245,"SoundDuration":920245,"Delta":129828056},{"NoteNumber":70,"Velocity":33,"Duration":920245,"SoundDuration":920245,"Delta":129828056},{"NoteNumber":44,"Velocity":28,"Duration":1736794,"SoundDuration":1736794,"Delta":130748301},{"NoteNumber":32,"Velocity":28,"Duration":13041109,"SoundDuration":13041109,"Delta":130748301},{"NoteNumber":70,"Velocity":34,"Duration":1690807,"SoundDuration":1690807,"Delta":131208424},{"NoteNumber":58,"Velocity":34,"Duration":1690807,"SoundDuration":1690807,"Delta":131208424},{"NoteNumber":95,"Velocity":31,"Duration":816548,"SoundDuration":816548,"Delta":131668547},{"NoteNumber":90,"Velocity":31,"Duration":816548,"SoundDuration":816548,"Delta":131668547},{"NoteNumber":86,"Velocity":31,"Duration":816548,"SoundDuration":816548,"Delta":131668547},{"NoteNumber":100,"Velocity":33,"Duration":816548,"SoundDuration":816548,"Delta":131668547},{"NoteNumber":44,"Velocity":20,"Duration":8831477,"SoundDuration":8831477,"Delta":131668547},{"NoteNumber":59,"Velocity":20,"Duration":816548,"SoundDuration":816548,"Delta":131668547},{"NoteNumber":50,"Velocity":20,"Duration":816548,"SoundDuration":816548,"Delta":131668547},{"NoteNumber":80,"Velocity":30,"Duration":828271,"SoundDuration":828271,"Delta":132485095},{"NoteNumber":90,"Velocity":30,"Duration":828271,"SoundDuration":828271,"Delta":132485095},{"NoteNumber":95,"Velocity":33,"Duration":828271,"SoundDuration":828271,"Delta":132485095},{"NoteNumber":86,"Velocity":30,"Duration":828271,"SoundDuration":828271,"Delta":132485095},{"NoteNumber":52,"Velocity":20,"Duration":828271,"SoundDuration":828271,"Delta":132485095},{"NoteNumber":62,"Velocity":20,"Duration":828271,"SoundDuration":828271,"Delta":132485095},{"NoteNumber":47,"Velocity":20,"Duration":828271,"SoundDuration":828271,"Delta":132485095},{"NoteNumber":70,"Velocity":31,"Duration":805882,"SoundDuration":805882,"Delta":132899231},{"NoteNumber":88,"Velocity":30,"Duration":783494,"SoundDuration":783494,"Delta":133313367},{"NoteNumber":78,"Velocity":30,"Duration":783494,"SoundDuration":783494,"Delta":133313367},{"NoteNumber":92,"Velocity":35,"Duration":783494,"SoundDuration":783494,"Delta":133313367},{"NoteNumber":83,"Velocity":30,"Duration":783494,"SoundDuration":783494,"Delta":133313367},{"NoteNumber":50,"Velocity":19,"Duration":783494,"SoundDuration":783494,"Delta":133313367},{"NoteNumber":64,"Velocity":19,"Duration":783494,"SoundDuration":783494,"Delta":133313367},{"NoteNumber":56,"Velocity":19,"Duration":783494,"SoundDuration":783494,"Delta":133313367},{"NoteNumber":70,"Velocity":21,"Duration":2014089,"SoundDuration":2014089,"Delta":133705114},{"NoteNumber":86,"Velocity":31,"Duration":828271,"SoundDuration":828271,"Delta":134096861},{"NoteNumber":76,"Velocity":31,"Duration":828271,"SoundDuration":828271,"Delta":134096861},{"NoteNumber":90,"Velocity":34,"Duration":828271,"SoundDuration":828271,"Delta":134096861},{"NoteNumber":80,"Velocity":31,"Duration":828271,"SoundDuration":828271,"Delta":134096861},{"NoteNumber":56,"Velocity":20,"Duration":828271,"SoundDuration":828271,"Delta":134096861},{"NoteNumber":62,"Velocity":20,"Duration":828271,"SoundDuration":828271,"Delta":134096861},{"NoteNumber":52,"Velocity":20,"Duration":828271,"SoundDuration":828271,"Delta":134096861},{"NoteNumber":88,"Velocity":27,"Duration":794071,"SoundDuration":794071,"Delta":134925133},{"NoteNumber":83,"Velocity":24,"Duration":794071,"SoundDuration":794071,"Delta":134925133},{"NoteNumber":75,"Velocity":24,"Duration":794071,"SoundDuration":794071,"Delta":134925133},{"NoteNumber":78,"Velocity":24,"Duration":794071,"SoundDuration":794071,"Delta":134925133},{"NoteNumber":66,"Velocity":19,"Duration":794071,"SoundDuration":794071,"Delta":134925133},{"NoteNumber":62,"Velocity":19,"Duration":794071,"SoundDuration":794071,"Delta":134925133},{"NoteNumber":56,"Velocity":19,"Duration":794071,"SoundDuration":794071,"Delta":134925133},{"NoteNumber":75,"Velocity":22,"Duration":828271,"SoundDuration":828271,"Delta":135719204},{"NoteNumber":78,"Velocity":22,"Duration":828271,"SoundDuration":828271,"Delta":135719204},{"NoteNumber":83,"Velocity":26,"Duration":828271,"SoundDuration":828271,"Delta":135719204},{"NoteNumber":68,"Velocity":22,"Duration":828271,"SoundDuration":828271,"Delta":135719204},{"NoteNumber":59,"Velocity":18,"Duration":828271,"SoundDuration":828271,"Delta":135719204},{"NoteNumber":64,"Velocity":18,"Duration":828271,"SoundDuration":828271,"Delta":135719204},{"NoteNumber":70,"Velocity":32,"Duration":828271,"SoundDuration":828271,"Delta":135719204},{"NoteNumber":76,"Velocity":22,"Duration":794071,"SoundDuration":794071,"Delta":136547475},{"NoteNumber":71,"Velocity":22,"Duration":794071,"SoundDuration":794071,"Delta":136547475},{"NoteNumber":66,"Velocity":22,"Duration":794071,"SoundDuration":794071,"Delta":136547475},{"NoteNumber":80,"Velocity":26,"Duration":794071,"SoundDuration":794071,"Delta":136547475},{"NoteNumber":66,"Velocity":18,"Duration":794071,"SoundDuration":794071,"Delta":136547475},{"NoteNumber":62,"Velocity":18,"Duration":794071,"SoundDuration":794071,"Delta":136547475},{"NoteNumber":70,"Velocity":21,"Duration":1208206,"SoundDuration":1208206,"Delta":136547475},{"NoteNumber":68,"Velocity":26,"Duration":828271,"SoundDuration":828271,"Delta":137341546},{"NoteNumber":74,"Velocity":26,"Duration":828271,"SoundDuration":828271,"Delta":137341546},{"NoteNumber":78,"Velocity":28,"Duration":828271,"SoundDuration":828271,"Delta":137341546},{"NoteNumber":64,"Velocity":20,"Duration":828271,"SoundDuration":828271,"Delta":137341546},{"NoteNumber":59,"Velocity":20,"Duration":828271,"SoundDuration":828271,"Delta":137341546},{"NoteNumber":66,"Velocity":20,"Duration":794071,"SoundDuration":794071,"Delta":138169818},{"NoteNumber":76,"Velocity":21,"Duration":794071,"SoundDuration":794071,"Delta":138169818},{"NoteNumber":71,"Velocity":20,"Duration":794071,"SoundDuration":794071,"Delta":138169818},{"NoteNumber":56,"Velocity":18,"Duration":794071,"SoundDuration":794071,"Delta":138169818},{"NoteNumber":62,"Velocity":18,"Duration":794071,"SoundDuration":794071,"Delta":138169818},{"NoteNumber":70,"Velocity":33,"Duration":1622342,"SoundDuration":1622342,"Delta":138169818},{"NoteNumber":66,"Velocity":20,"Duration":828271,"SoundDuration":828271,"Delta":138963889},{"NoteNumber":71,"Velocity":21,"Duration":828271,"SoundDuration":828271,"Delta":138963889},{"NoteNumber":56,"Velocity":18,"Duration":828271,"SoundDuration":828271,"Delta":138963889},{"NoteNumber":62,"Velocity":18,"Duration":828271,"SoundDuration":828271,"Delta":138963889},{"NoteNumber":53,"Velocity":18,"Duration":828271,"SoundDuration":828271,"Delta":138963889},{"NoteNumber":68,"Velocity":21,"Duration":805152,"SoundDuration":805152,"Delta":139792160},{"NoteNumber":64,"Velocity":18,"Duration":805152,"SoundDuration":805152,"Delta":139792160},{"NoteNumber":47,"Velocity":13,"Duration":805152,"SoundDuration":805152,"Delta":139792160},{"NoteNumber":54,"Velocity":15,"Duration":805152,"SoundDuration":805152,"Delta":139792160},{"NoteNumber":59,"Velocity":18,"Duration":805152,"SoundDuration":805152,"Delta":139792160},{"NoteNumber":58,"Velocity":27,"Duration":2047560,"SoundDuration":2047560,"Delta":139792160},{"NoteNumber":70,"Velocity":33,"Duration":805152,"SoundDuration":805152,"Delta":139792160},{"NoteNumber":66,"Velocity":26,"Duration":828271,"SoundDuration":828271,"Delta":140597313},{"NoteNumber":62,"Velocity":24,"Duration":828271,"SoundDuration":828271,"Delta":140597313},{"NoteNumber":44,"Velocity":20,"Duration":6606533,"SoundDuration":6606533,"Delta":140597313},{"NoteNumber":56,"Velocity":20,"Duration":828271,"SoundDuration":828271,"Delta":140597313},{"NoteNumber":52,"Velocity":20,"Duration":828271,"SoundDuration":828271,"Delta":140597313},{"NoteNumber":70,"Velocity":27,"Duration":1242407,"SoundDuration":1242407,"Delta":140597313},{"NoteNumber":65,"Velocity":21,"Duration":828271,"SoundDuration":828271,"Delta":141425585},{"NoteNumber":61,"Velocity":20,"Duration":828271,"SoundDuration":828271,"Delta":141425585},{"NoteNumber":49,"Velocity":16,"Duration":828271,"SoundDuration":828271,"Delta":141425585},{"NoteNumber":53,"Velocity":16,"Duration":828271,"SoundDuration":828271,"Delta":141425585},{"NoteNumber":64,"Velocity":21,"Duration":828271,"SoundDuration":828271,"Delta":142253856},{"NoteNumber":60,"Velocity":20,"Duration":828271,"SoundDuration":828271,"Delta":142253856},{"NoteNumber":54,"Velocity":15,"Duration":828271,"SoundDuration":828271,"Delta":142253856},{"NoteNumber":50,"Velocity":15,"Duration":828271,"SoundDuration":828271,"Delta":142253856},{"NoteNumber":70,"Velocity":33,"Duration":828271,"SoundDuration":828271,"Delta":142253856},{"NoteNumber":63,"Velocity":21,"Duration":867945,"SoundDuration":867945,"Delta":143082128},{"NoteNumber":59,"Velocity":20,"Duration":867945,"SoundDuration":867945,"Delta":143082128},{"NoteNumber":47,"Velocity":15,"Duration":867945,"SoundDuration":867945,"Delta":143082128},{"NoteNumber":51,"Velocity":15,"Duration":867945,"SoundDuration":867945,"Delta":143082128},{"NoteNumber":70,"Velocity":21,"Duration":1254471,"SoundDuration":1254471,"Delta":143082128},{"NoteNumber":66,"Velocity":28,"Duration":828271,"SoundDuration":828271,"Delta":143922464},{"NoteNumber":62,"Velocity":26,"Duration":828271,"SoundDuration":828271,"Delta":143922464},{"NoteNumber":52,"Velocity":20,"Duration":828271,"SoundDuration":828271,"Delta":143922464},{"NoteNumber":56,"Velocity":20,"Duration":828271,"SoundDuration":828271,"Delta":143922464},{"NoteNumber":61,"Velocity":21,"Duration":828271,"SoundDuration":828271,"Delta":144750735},{"NoteNumber":65,"Velocity":22,"Duration":828271,"SoundDuration":828271,"Delta":144750735},{"NoteNumber":53,"Velocity":16,"Duration":828271,"SoundDuration":828271,"Delta":144750735},{"NoteNumber":49,"Velocity":16,"Duration":828271,"SoundDuration":828271,"Delta":144750735},{"NoteNumber":70,"Velocity":37,"Duration":1656542,"SoundDuration":1656542,"Delta":144750735},{"NoteNumber":64,"Velocity":21,"Duration":828271,"SoundDuration":828271,"Delta":145579007},{"NoteNumber":60,"Velocity":20,"Duration":828271,"SoundDuration":828271,"Delta":145579007},{"NoteNumber":50,"Velocity":15,"Duration":828271,"SoundDuration":828271,"Delta":145579007},{"NoteNumber":54,"Velocity":15,"Duration":828271,"SoundDuration":828271,"Delta":145579007},{"NoteNumber":63,"Velocity":21,"Duration":894778,"SoundDuration":894778,"Delta":146407278},{"NoteNumber":59,"Velocity":20,"Duration":894778,"SoundDuration":894778,"Delta":146407278},{"NoteNumber":47,"Velocity":15,"Duration":894778,"SoundDuration":894778,"Delta":146407278},{"NoteNumber":51,"Velocity":15,"Duration":894778,"SoundDuration":894778,"Delta":146407278},{"NoteNumber":70,"Velocity":33,"Duration":865051,"SoundDuration":865051,"Delta":146407278},{"NoteNumber":66,"Velocity":26,"Duration":891795,"SoundDuration":891795,"Delta":147272330},{"NoteNumber":62,"Velocity":24,"Duration":891795,"SoundDuration":891795,"Delta":147272330},{"NoteNumber":44,"Velocity":20,"Duration":3693659,"SoundDuration":3693659,"Delta":147272330},{"NoteNumber":56,"Velocity":20,"Duration":891795,"SoundDuration":891795,"Delta":147272330},{"NoteNumber":52,"Velocity":20,"Duration":891795,"SoundDuration":891795,"Delta":147272330},{"NoteNumber":70,"Velocity":21,"Duration":1337693,"SoundDuration":1337693,"Delta":147272330},{"NoteNumber":61,"Velocity":20,"Duration":891795,"SoundDuration":891795,"Delta":148164126},{"NoteNumber":65,"Velocity":21,"Duration":891795,"SoundDuration":891795,"Delta":148164126},{"NoteNumber":49,"Velocity":16,"Duration":891795,"SoundDuration":891795,"Delta":148164126},{"NoteNumber":53,"Velocity":16,"Duration":891795,"SoundDuration":891795,"Delta":148164126},{"NoteNumber":64,"Velocity":19,"Duration":934981,"SoundDuration":934981,"Delta":149052205},{"NoteNumber":50,"Velocity":14,"Duration":934981,"SoundDuration":934981,"Delta":149052205},{"NoteNumber":60,"Velocity":18,"Duration":935161,"SoundDuration":935161,"Delta":149055921},{"NoteNumber":54,"Velocity":14,"Duration":935161,"SoundDuration":935161,"Delta":149055921},{"NoteNumber":70,"Velocity":32,"Duration":935161,"SoundDuration":935161,"Delta":149055921},{"NoteNumber":63,"Velocity":18,"Duration":1046129,"SoundDuration":1046129,"Delta":149991083},{"NoteNumber":59,"Velocity":16,"Duration":1046129,"SoundDuration":1046129,"Delta":149991083},{"NoteNumber":47,"Velocity":13,"Duration":1046129,"SoundDuration":1046129,"Delta":149991083},{"NoteNumber":51,"Velocity":13,"Duration":1046129,"SoundDuration":1046129,"Delta":149991083},{"NoteNumber":70,"Velocity":18,"Duration":1017293,"SoundDuration":1017293,"Delta":149991083},{"NoteNumber":31,"Velocity":28,"Duration":13084597,"SoundDuration":13084597,"Delta":151008377},{"NoteNumber":43,"Velocity":28,"Duration":9863985,"SoundDuration":9863985,"Delta":151008377},{"NoteNumber":58,"Velocity":36,"Duration":1651814,"SoundDuration":1651814,"Delta":151440903},{"NoteNumber":70,"Velocity":36,"Duration":1651814,"SoundDuration":1651814,"Delta":151440903},{"NoteNumber":92,"Velocity":33,"Duration":805152,"SoundDuration":805152,"Delta":151873429},{"NoteNumber":100,"Velocity":35,"Duration":805152,"SoundDuration":805152,"Delta":151873429},{"NoteNumber":95,"Velocity":32,"Duration":805152,"SoundDuration":805152,"Delta":151873429},{"NoteNumber":86,"Velocity":32,"Duration":805152,"SoundDuration":805152,"Delta":151873429},{"NoteNumber":53,"Velocity":20,"Duration":805152,"SoundDuration":805152,"Delta":151873429},{"NoteNumber":47,"Velocity":20,"Duration":805152,"SoundDuration":805152,"Delta":151873429},{"NoteNumber":62,"Velocity":20,"Duration":805152,"SoundDuration":805152,"Delta":151873429},{"NoteNumber":88,"Velocity":28,"Duration":828271,"SoundDuration":828271,"Delta":152678582},{"NoteNumber":83,"Velocity":28,"Duration":828271,"SoundDuration":828271,"Delta":152678582},{"NoteNumber":97,"Velocity":30,"Duration":828271,"SoundDuration":828271,"Delta":152678582},{"NoteNumber":91,"Velocity":28,"Duration":828271,"SoundDuration":828271,"Delta":152678582},{"NoteNumber":56,"Velocity":20,"Duration":828271,"SoundDuration":828271,"Delta":152678582},{"NoteNumber":64,"Velocity":20,"Duration":828271,"SoundDuration":828271,"Delta":152678582},{"NoteNumber":50,"Velocity":20,"Duration":1677337,"SoundDuration":1677337,"Delta":152678582},{"NoteNumber":70,"Velocity":37,"Duration":805882,"SoundDuration":805882,"Delta":153092718},{"NoteNumber":89,"Velocity":28,"Duration":783494,"SoundDuration":783494,"Delta":153506854},{"NoteNumber":80,"Velocity":28,"Duration":783494,"SoundDuration":783494,"Delta":153506854},{"NoteNumber":94,"Velocity":30,"Duration":783494,"SoundDuration":783494,"Delta":153506854},{"NoteNumber":86,"Velocity":28,"Duration":783494,"SoundDuration":783494,"Delta":153506854},{"NoteNumber":59,"Velocity":19,"Duration":783494,"SoundDuration":783494,"Delta":153506854},{"NoteNumber":65,"Velocity":19,"Duration":783494,"SoundDuration":783494,"Delta":153506854},{"NoteNumber":70,"Velocity":32,"Duration":2014089,"SoundDuration":2014089,"Delta":153898601},{"NoteNumber":83,"Velocity":31,"Duration":828271,"SoundDuration":828271,"Delta":154290348},{"NoteNumber":88,"Velocity":31,"Duration":828271,"SoundDuration":828271,"Delta":154290348},{"NoteNumber":91,"Velocity":34,"Duration":828271,"SoundDuration":828271,"Delta":154290348},{"NoteNumber":77,"Velocity":31,"Duration":828271,"SoundDuration":828271,"Delta":154290348},{"NoteNumber":53,"Velocity":20,"Duration":828271,"SoundDuration":828271,"Delta":154290348},{"NoteNumber":62,"Velocity":20,"Duration":828271,"SoundDuration":828271,"Delta":154290348},{"NoteNumber":67,"Velocity":20,"Duration":828271,"SoundDuration":828271,"Delta":154290348},{"NoteNumber":88,"Velocity":27,"Duration":794071,"SoundDuration":794071,"Delta":155118620},{"NoteNumber":74,"Velocity":24,"Duration":794071,"SoundDuration":794071,"Delta":155118620},{"NoteNumber":83,"Velocity":24,"Duration":794071,"SoundDuration":794071,"Delta":155118620},{"NoteNumber":77,"Velocity":24,"Duration":794071,"SoundDuration":794071,"Delta":155118620},{"NoteNumber":56,"Velocity":19,"Duration":794071,"SoundDuration":794071,"Delta":155118620},{"NoteNumber":62,"Velocity":19,"Duration":794071,"SoundDuration":794071,"Delta":155118620},{"NoteNumber":68,"Velocity":19,"Duration":794071,"SoundDuration":794071,"Delta":155118620},{"NoteNumber":84,"Velocity":26,"Duration":828271,"SoundDuration":828271,"Delta":155912691},{"NoteNumber":76,"Velocity":22,"Duration":828271,"SoundDuration":828271,"Delta":155912691},{"NoteNumber":79,"Velocity":22,"Duration":828271,"SoundDuration":828271,"Delta":155912691},{"NoteNumber":59,"Velocity":18,"Duration":828271,"SoundDuration":828271,"Delta":155912691},{"NoteNumber":62,"Velocity":18,"Duration":828271,"SoundDuration":828271,"Delta":155912691},{"NoteNumber":70,"Velocity":32,"Duration":828271,"SoundDuration":828271,"Delta":155912691},{"NoteNumber":77,"Velocity":22,"Duration":794071,"SoundDuration":794071,"Delta":156740962},{"NoteNumber":74,"Velocity":22,"Duration":794071,"SoundDuration":794071,"Delta":156740962},{"NoteNumber":81,"Velocity":26,"Duration":794071,"SoundDuration":794071,"Delta":156740962},{"NoteNumber":64,"Velocity":18,"Duration":794071,"SoundDuration":794071,"Delta":156740962},{"NoteNumber":59,"Velocity":18,"Duration":794071,"SoundDuration":794071,"Delta":156740962},{"NoteNumber":70,"Velocity":21,"Duration":1208206,"SoundDuration":1208206,"Delta":156740962},{"NoteNumber":71,"Velocity":26,"Duration":828271,"SoundDuration":828271,"Delta":157535033},{"NoteNumber":76,"Velocity":26,"Duration":828271,"SoundDuration":828271,"Delta":157535033},{"NoteNumber":79,"Velocity":28,"Duration":828271,"SoundDuration":828271,"Delta":157535033},{"NoteNumber":65,"Velocity":20,"Duration":828271,"SoundDuration":828271,"Delta":157535033},{"NoteNumber":56,"Velocity":20,"Duration":828271,"SoundDuration":828271,"Delta":157535033},{"NoteNumber":62,"Velocity":20,"Duration":828271,"SoundDuration":828271,"Delta":157535033},{"NoteNumber":65,"Velocity":20,"Duration":828271,"SoundDuration":828271,"Delta":158363305},{"NoteNumber":76,"Velocity":21,"Duration":828271,"SoundDuration":828271,"Delta":158363305},{"NoteNumber":59,"Velocity":18,"Duration":828271,"SoundDuration":828271,"Delta":158363305},{"NoteNumber":62,"Velocity":18,"Duration":828271,"SoundDuration":828271,"Delta":158363305},{"NoteNumber":53,"Velocity":18,"Duration":828271,"SoundDuration":828271,"Delta":158363305},{"NoteNumber":70,"Velocity":32,"Duration":1656542,"SoundDuration":1656542,"Delta":158363305},{"NoteNumber":67,"Velocity":20,"Duration":828271,"SoundDuration":828271,"Delta":159191576},{"NoteNumber":73,"Velocity":21,"Duration":828271,"SoundDuration":828271,"Delta":159191576},{"NoteNumber":64,"Velocity":20,"Duration":828271,"SoundDuration":828271,"Delta":159191576},{"NoteNumber":59,"Velocity":18,"Duration":828271,"SoundDuration":828271,"Delta":159191576},{"NoteNumber":56,"Velocity":18,"Duration":828271,"SoundDuration":828271,"Delta":159191576},{"NoteNumber":50,"Velocity":18,"Duration":828271,"SoundDuration":828271,"Delta":159191576},{"NoteNumber":62,"Velocity":20,"Duration":852515,"SoundDuration":852515,"Delta":160019848},{"NoteNumber":65,"Velocity":21,"Duration":852515,"SoundDuration":852515,"Delta":160019848},{"NoteNumber":47,"Velocity":18,"Duration":852515,"SoundDuration":852515,"Delta":160019848},{"NoteNumber":55,"Velocity":18,"Duration":852515,"SoundDuration":852515,"Delta":160019848},{"NoteNumber":70,"Velocity":33,"Duration":852515,"SoundDuration":852515,"Delta":160019848},{"NoteNumber":64,"Velocity":26,"Duration":1610306,"SoundDuration":1610306,"Delta":160872363},{"NoteNumber":59,"Velocity":24,"Duration":805152,"SoundDuration":805152,"Delta":160872363},{"NoteNumber":53,"Velocity":20,"Duration":805152,"SoundDuration":805152,"Delta":160872363},{"NoteNumber":43,"Velocity":20,"Duration":805152,"SoundDuration":805152,"Delta":160872363},{"NoteNumber":70,"Velocity":21,"Duration":1207729,"SoundDuration":1207729,"Delta":160872363},{"NoteNumber":69,"Velocity":25,"Duration":805153,"SoundDuration":805153,"Delta":161677516},{"NoteNumber":58,"Velocity":24,"Duration":805153,"SoundDuration":805153,"Delta":161677516},{"NoteNumber":52,"Velocity":18,"Duration":805153,"SoundDuration":805153,"Delta":161677516},{"NoteNumber":36,"Velocity":16,"Duration":805153,"SoundDuration":805153,"Delta":161677516},{"NoteNumber":58,"Velocity":20,"Duration":805152,"SoundDuration":805152,"Delta":162482669},{"NoteNumber":68,"Velocity":21,"Duration":805152,"SoundDuration":805152,"Delta":162482669},{"NoteNumber":64,"Velocity":20,"Duration":805152,"SoundDuration":805152,"Delta":162482669},{"NoteNumber":42,"Velocity":15,"Duration":805152,"SoundDuration":805152,"Delta":162482669},{"NoteNumber":30,"Velocity":15,"Duration":805152,"SoundDuration":805152,"Delta":162482669},{"NoteNumber":70,"Velocity":32,"Duration":805152,"SoundDuration":805152,"Delta":162482669},{"NoteNumber":56,"Velocity":20,"Duration":805152,"SoundDuration":805152,"Delta":163287822},{"NoteNumber":62,"Velocity":20,"Duration":805152,"SoundDuration":805152,"Delta":163287822},{"NoteNumber":67,"Velocity":21,"Duration":805152,"SoundDuration":805152,"Delta":163287822},{"NoteNumber":46,"Velocity":15,"Duration":805152,"SoundDuration":805152,"Delta":163287822},{"NoteNumber":34,"Velocity":15,"Duration":805152,"SoundDuration":805152,"Delta":163287822},{"NoteNumber":70,"Velocity":21,"Duration":1219288,"SoundDuration":1219288,"Delta":163287822},{"NoteNumber":55,"Velocity":19,"Duration":828271,"SoundDuration":828271,"Delta":164092975},{"NoteNumber":66,"Velocity":20,"Duration":828271,"SoundDuration":828271,"Delta":164092975},{"NoteNumber":61,"Velocity":19,"Duration":828271,"SoundDuration":828271,"Delta":164092975},{"NoteNumber":39,"Velocity":20,"Duration":828271,"SoundDuration":828271,"Delta":164092975},{"NoteNumber":65,"Velocity":19,"Duration":828271,"SoundDuration":828271,"Delta":164921246},{"NoteNumber":54,"Velocity":18,"Duration":828271,"SoundDuration":828271,"Delta":164921246},{"NoteNumber":60,"Velocity":18,"Duration":828271,"SoundDuration":828271,"Delta":164921246},{"NoteNumber":44,"Velocity":14,"Duration":828271,"SoundDuration":828271,"Delta":164921246},{"NoteNumber":70,"Velocity":32,"Duration":1633424,"SoundDuration":1633424,"Delta":164921246},{"NoteNumber":59,"Velocity":24,"Duration":805152,"SoundDuration":805152,"Delta":165749518},{"NoteNumber":64,"Velocity":26,"Duration":1675877,"SoundDuration":1675877,"Delta":165749518},{"NoteNumber":43,"Velocity":20,"Duration":805152,"SoundDuration":805152,"Delta":165749518},{"NoteNumber":53,"Velocity":20,"Duration":805152,"SoundDuration":805152,"Delta":165749518},{"NoteNumber":58,"Velocity":20,"Duration":805153,"SoundDuration":805153,"Delta":166554671},{"NoteNumber":69,"Velocity":20,"Duration":805153,"SoundDuration":805153,"Delta":166554671},{"NoteNumber":36,"Velocity":16,"Duration":805153,"SoundDuration":805153,"Delta":166554671},{"NoteNumber":52,"Velocity":16,"Duration":805153,"SoundDuration":805153,"Delta":166554671},{"NoteNumber":70,"Velocity":31,"Duration":805153,"SoundDuration":805153,"Delta":166554671},{"NoteNumber":58,"Velocity":20,"Duration":828271,"SoundDuration":828271,"Delta":167359824},{"NoteNumber":64,"Velocity":20,"Duration":828271,"SoundDuration":828271,"Delta":167359824},{"NoteNumber":68,"Velocity":21,"Duration":828271,"SoundDuration":828271,"Delta":167359824},{"NoteNumber":30,"Velocity":15,"Duration":828271,"SoundDuration":828271,"Delta":167359824},{"NoteNumber":42,"Velocity":15,"Duration":828271,"SoundDuration":828271,"Delta":167359824},{"NoteNumber":70,"Velocity":21,"Duration":1242407,"SoundDuration":1242407,"Delta":167359824},{"NoteNumber":62,"Velocity":20,"Duration":828271,"SoundDuration":828271,"Delta":168188095},{"NoteNumber":56,"Velocity":20,"Duration":828271,"SoundDuration":828271,"Delta":168188095},{"NoteNumber":67,"Velocity":21,"Duration":828271,"SoundDuration":828271,"Delta":168188095},{"NoteNumber":34,"Velocity":15,"Duration":828271,"SoundDuration":828271,"Delta":168188095},{"NoteNumber":46,"Velocity":15,"Duration":828271,"SoundDuration":828271,"Delta":168188095},{"NoteNumber":66,"Velocity":20,"Duration":878219,"SoundDuration":878219,"Delta":169016367},{"NoteNumber":61,"Velocity":19,"Duration":878219,"SoundDuration":878219,"Delta":169016367},{"NoteNumber":55,"Velocity":19,"Duration":878219,"SoundDuration":878219,"Delta":169016367},{"NoteNumber":39,"Velocity":15,"Duration":878219,"SoundDuration":878219,"Delta":169016367},{"NoteNumber":70,"Velocity":34,"Duration":878219,"SoundDuration":878219,"Delta":169016367},{"NoteNumber":65,"Velocity":19,"Duration":878219,"SoundDuration":878219,"Delta":169894587},{"NoteNumber":54,"Velocity":18,"Duration":878219,"SoundDuration":878219,"Delta":169894587},{"NoteNumber":60,"Velocity":18,"Duration":878219,"SoundDuration":878219,"Delta":169894587},{"NoteNumber":32,"Velocity":14,"Duration":878219,"SoundDuration":878219,"Delta":169894587},{"NoteNumber":44,"Velocity":14,"Duration":878219,"SoundDuration":878219,"Delta":169894587},{"NoteNumber":70,"Velocity":31,"Duration":1813381,"SoundDuration":1813381,"Delta":169894587},{"NoteNumber":59,"Velocity":18,"Duration":7137173,"SoundDuration":7137173,"Delta":170772807},{"NoteNumber":53,"Velocity":18,"Duration":7137173,"SoundDuration":7137173,"Delta":170772807},{"NoteNumber":64,"Velocity":34,"Duration":1763433,"SoundDuration":1763433,"Delta":170772807},{"NoteNumber":25,"Velocity":18,"Duration":7137173,"SoundDuration":7137173,"Delta":170772807},{"NoteNumber":37,"Velocity":18,"Duration":7137173,"SoundDuration":7137173,"Delta":170772807},{"NoteNumber":58,"Velocity":28,"Duration":1706491,"SoundDuration":1706491,"Delta":171707969},{"NoteNumber":70,"Velocity":34,"Duration":1706491,"SoundDuration":1706491,"Delta":171707969},{"NoteNumber":62,"Velocity":31,"Duration":5373739,"SoundDuration":5373739,"Delta":172536240},{"NoteNumber":58,"Velocity":26,"Duration":2195549,"SoundDuration":2195549,"Delta":173414460},{"NoteNumber":70,"Velocity":26,"Duration":878219,"SoundDuration":878219,"Delta":173414460},{"NoteNumber":70,"Velocity":21,"Duration":1317329,"SoundDuration":1317329,"Delta":174292680},{"NoteNumber":58,"Velocity":30,"Duration":2328440,"SoundDuration":2328440,"Delta":176049120},{"NoteNumber":70,"Velocity":30,"Duration":878219,"SoundDuration":878219,"Delta":176049120},{"NoteNumber":70,"Velocity":21,"Duration":1450220,"SoundDuration":1450220,"Delta":176927340},{"NoteNumber":59,"Velocity":18,"Duration":7032753,"SoundDuration":7032753,"Delta":177909980},{"NoteNumber":53,"Velocity":18,"Duration":7032753,"SoundDuration":7032753,"Delta":177909980},{"NoteNumber":64,"Velocity":34,"Duration":1763433,"SoundDuration":1763433,"Delta":177909980},{"NoteNumber":25,"Velocity":18,"Duration":7032753,"SoundDuration":7032753,"Delta":177909980},{"NoteNumber":37,"Velocity":18,"Duration":7032753,"SoundDuration":7032753,"Delta":177909980},{"NoteNumber":58,"Velocity":33,"Duration":1706491,"SoundDuration":1706491,"Delta":178845142},{"NoteNumber":70,"Velocity":33,"Duration":1706491,"SoundDuration":1706491,"Delta":178845142},{"NoteNumber":62,"Velocity":31,"Duration":5269319,"SoundDuration":5269319,"Delta":179673414},{"NoteNumber":58,"Velocity":28,"Duration":2195549,"SoundDuration":2195549,"Delta":180551634},{"NoteNumber":70,"Velocity":28,"Duration":878219,"SoundDuration":878219,"Delta":180551634},{"NoteNumber":70,"Velocity":21,"Duration":1317329,"SoundDuration":1317329,"Delta":181429854},{"NoteNumber":58,"Velocity":32,"Duration":2164714,"SoundDuration":2164714,"Delta":183186294},{"NoteNumber":70,"Velocity":32,"Duration":878219,"SoundDuration":878219,"Delta":183186294},{"NoteNumber":70,"Velocity":21,"Duration":1286494,"SoundDuration":1286494,"Delta":184064514},{"NoteNumber":77,"Velocity":43,"Duration":1604777,"SoundDuration":1604777,"Delta":184942734},{"NoteNumber":58,"Velocity":21,"Duration":1624116,"SoundDuration":1624116,"Delta":185759282},{"NoteNumber":70,"Velocity":26,"Duration":1624116,"SoundDuration":1624116,"Delta":185759282},{"NoteNumber":76,"Velocity":36,"Duration":4088188,"SoundDuration":4088188,"Delta":186547511},{"NoteNumber":58,"Velocity":20,"Duration":2026993,"SoundDuration":2026993,"Delta":187383399},{"NoteNumber":70,"Velocity":20,"Duration":835887,"SoundDuration":835887,"Delta":187383399},{"NoteNumber":70,"Velocity":16,"Duration":1191106,"SoundDuration":1191106,"Delta":188219286},{"NoteNumber":58,"Velocity":21,"Duration":1967188,"SoundDuration":1967188,"Delta":189807428},{"NoteNumber":70,"Velocity":26,"Duration":828271,"SoundDuration":828271,"Delta":189807428},{"NoteNumber":77,"Velocity":39,"Duration":776598,"SoundDuration":776598,"Delta":190635700},{"NoteNumber":70,"Velocity":12,"Duration":1138917,"SoundDuration":1138917,"Delta":190635700},{"NoteNumber":73,"Velocity":39,"Duration":1489876,"SoundDuration":1489876,"Delta":191412298},{"NoteNumber":58,"Velocity":21,"Duration":1953126,"SoundDuration":1953126,"Delta":192136936},{"NoteNumber":70,"Velocity":26,"Duration":788229,"SoundDuration":788229,"Delta":192136936},{"NoteNumber":77,"Velocity":39,"Duration":1553197,"SoundDuration":1553197,"Delta":192925165},{"NoteNumber":70,"Velocity":15,"Duration":1164897,"SoundDuration":1164897,"Delta":192925165},{"NoteNumber":77,"Velocity":43,"Duration":1612486,"SoundDuration":1612486,"Delta":194478362},{"NoteNumber":58,"Velocity":25,"Duration":2030429,"SoundDuration":2030429,"Delta":194478362},{"NoteNumber":70,"Velocity":25,"Duration":835887,"SoundDuration":835887,"Delta":194478362},{"NoteNumber":70,"Velocity":16,"Duration":1194542,"SoundDuration":1194542,"Delta":195314249},{"NoteNumber":76,"Velocity":33,"Duration":3260867,"SoundDuration":3260867,"Delta":196090848},{"NoteNumber":58,"Velocity":21,"Duration":2056390,"SoundDuration":2056390,"Delta":196926735},{"NoteNumber":70,"Velocity":21,"Duration":835887,"SoundDuration":835887,"Delta":196926735},{"NoteNumber":70,"Velocity":16,"Duration":1220503,"SoundDuration":1220503,"Delta":197762623},{"NoteNumber":67,"Velocity":30,"Duration":5595312,"SoundDuration":5595312,"Delta":198598510},{"NoteNumber":61,"Velocity":25,"Duration":5595312,"SoundDuration":5595312,"Delta":198598510},{"NoteNumber":57,"Velocity":25,"Duration":5595312,"SoundDuration":5595312,"Delta":198598510},{"NoteNumber":76,"Velocity":40,"Duration":740740,"SoundDuration":740740,"Delta":199367741},{"NoteNumber":58,"Velocity":27,"Duration":1911791,"SoundDuration":1911791,"Delta":199367741},{"NoteNumber":70,"Velocity":27,"Duration":740740,"SoundDuration":740740,"Delta":199367741},{"NoteNumber":77,"Velocity":44,"Duration":762776,"SoundDuration":762776,"Delta":200108482},{"NoteNumber":70,"Velocity":16,"Duration":1171050,"SoundDuration":1171050,"Delta":200108482},{"NoteNumber":79,"Velocity":46,"Duration":1593147,"SoundDuration":1593147,"Delta":200871258},{"NoteNumber":58,"Velocity":24,"Duration":1612486,"SoundDuration":1612486,"Delta":201687807},{"NoteNumber":70,"Velocity":28,"Duration":1612486,"SoundDuration":1612486,"Delta":201687807},{"NoteNumber":77,"Velocity":46,"Duration":828921,"SoundDuration":828921,"Delta":202464405},{"NoteNumber":76,"Velocity":43,"Duration":893530,"SoundDuration":893530,"Delta":203300293},{"NoteNumber":58,"Velocity":24,"Duration":1783209,"SoundDuration":1783209,"Delta":203300293},{"NoteNumber":70,"Velocity":28,"Duration":893530,"SoundDuration":893530,"Delta":203300293},{"NoteNumber":53,"Velocity":21,"Duration":3898862,"SoundDuration":3898862,"Delta":203718237},{"NoteNumber":37,"Velocity":20,"Duration":3898862,"SoundDuration":3898862,"Delta":203718237},{"NoteNumber":64,"Velocity":20,"Duration":2227087,"SoundDuration":2227087,"Delta":203718237},{"NoteNumber":59,"Velocity":20,"Duration":3898862,"SoundDuration":3898862,"Delta":203718237},{"NoteNumber":49,"Velocity":20,"Duration":3898862,"SoundDuration":3898862,"Delta":203718237},{"NoteNumber":76,"Velocity":44,"Duration":1751500,"SoundDuration":1751500,"Delta":204193823},{"NoteNumber":70,"Velocity":16,"Duration":889679,"SoundDuration":889679,"Delta":204193823},{"NoteNumber":58,"Velocity":20,"Duration":1697709,"SoundDuration":1697709,"Delta":205083503},{"NoteNumber":70,"Velocity":25,"Duration":1697709,"SoundDuration":1697709,"Delta":205083503},{"NoteNumber":74,"Velocity":33,"Duration":1671774,"SoundDuration":1671774,"Delta":205945324},{"NoteNumber":62,"Velocity":30,"Duration":1671774,"SoundDuration":1671774,"Delta":205945324},{"NoteNumber":58,"Velocity":24,"Duration":2089718,"SoundDuration":2089718,"Delta":206781212},{"NoteNumber":70,"Velocity":28,"Duration":835887,"SoundDuration":835887,"Delta":206781212},{"NoteNumber":70,"Velocity":16,"Duration":1253831,"SoundDuration":1253831,"Delta":207617099},{"NoteNumber":58,"Velocity":31,"Duration":2110884,"SoundDuration":2110884,"Delta":209288874},{"NoteNumber":70,"Velocity":31,"Duration":835887,"SoundDuration":835887,"Delta":209288874},{"NoteNumber":70,"Velocity":19,"Duration":1274997,"SoundDuration":1274997,"Delta":210124762},{"NoteNumber":50,"Velocity":27,"Duration":6872087,"SoundDuration":6872087,"Delta":210960649},{"NoteNumber":56,"Velocity":27,"Duration":6872087,"SoundDuration":6872087,"Delta":210960649},{"NoteNumber":34,"Velocity":22,"Duration":6872087,"SoundDuration":6872087,"Delta":210960649},{"NoteNumber":46,"Velocity":22,"Duration":6872087,"SoundDuration":6872087,"Delta":210960649},{"NoteNumber":64,"Velocity":27,"Duration":1718556,"SoundDuration":1718556,"Delta":210960649},{"NoteNumber":58,"Velocity":30,"Duration":1705387,"SoundDuration":1705387,"Delta":211838869},{"NoteNumber":70,"Velocity":33,"Duration":1705387,"SoundDuration":1705387,"Delta":211838869},{"NoteNumber":62,"Velocity":32,"Duration":1730104,"SoundDuration":1730104,"Delta":212679205},{"NoteNumber":58,"Velocity":30,"Duration":2144239,"SoundDuration":2144239,"Delta":213544257},{"NoteNumber":70,"Velocity":30,"Duration":865052,"SoundDuration":865052,"Delta":213544257},{"NoteNumber":70,"Velocity":21,"Duration":1279187,"SoundDuration":1279187,"Delta":214409309},{"NoteNumber":65,"Velocity":45,"Duration":1693323,"SoundDuration":1693323,"Delta":215274361},{"NoteNumber":77,"Velocity":45,"Duration":1693323,"SoundDuration":1693323,"Delta":215274361},{"NoteNumber":58,"Velocity":36,"Duration":865051,"SoundDuration":865051,"Delta":216102632},{"NoteNumber":70,"Velocity":36,"Duration":865051,"SoundDuration":865051,"Delta":216102632},{"NoteNumber":79,"Velocity":46,"Duration":865052,"SoundDuration":865052,"Delta":216967684},{"NoteNumber":67,"Velocity":46,"Duration":865052,"SoundDuration":865052,"Delta":216967684},{"NoteNumber":58,"Velocity":21,"Duration":1310949,"SoundDuration":1310949,"Delta":216967684},{"NoteNumber":70,"Velocity":21,"Duration":1310949,"SoundDuration":1310949,"Delta":216967684},{"NoteNumber":81,"Velocity":52,"Duration":1708344,"SoundDuration":1708344,"Delta":217832737},{"NoteNumber":74,"Velocity":52,"Duration":5144939,"SoundDuration":5144939,"Delta":217832737},{"NoteNumber":69,"Velocity":52,"Duration":1708344,"SoundDuration":1708344,"Delta":217832737},{"NoteNumber":43,"Velocity":27,"Duration":8557400,"SoundDuration":8557400,"Delta":217832737},{"NoteNumber":50,"Velocity":27,"Duration":8557400,"SoundDuration":8557400,"Delta":217832737},{"NoteNumber":58,"Velocity":27,"Duration":8557400,"SoundDuration":8557400,"Delta":217832737},{"NoteNumber":58,"Velocity":36,"Duration":1681600,"SoundDuration":1681600,"Delta":218724532},{"NoteNumber":70,"Velocity":36,"Duration":1681600,"SoundDuration":1681600,"Delta":218724532},{"NoteNumber":79,"Velocity":49,"Duration":2558375,"SoundDuration":2558375,"Delta":219541081},{"NoteNumber":67,"Velocity":49,"Duration":2558375,"SoundDuration":2558375,"Delta":219541081},{"NoteNumber":58,"Velocity":33,"Duration":2132433,"SoundDuration":2132433,"Delta":220406133},{"NoteNumber":70,"Velocity":33,"Duration":865052,"SoundDuration":865052,"Delta":220406133},{"NoteNumber":70,"Velocity":22,"Duration":1267381,"SoundDuration":1267381,"Delta":221271185},{"NoteNumber":81,"Velocity":51,"Duration":878219,"SoundDuration":878219,"Delta":222099456},{"NoteNumber":69,"Velocity":51,"Duration":878219,"SoundDuration":878219,"Delta":222099456},{"NoteNumber":72,"Velocity":56,"Duration":1694768,"SoundDuration":1694768,"Delta":222977676},{"NoteNumber":84,"Velocity":56,"Duration":1694768,"SoundDuration":1694768,"Delta":222977676},{"NoteNumber":58,"Velocity":45,"Duration":2523040,"SoundDuration":2523040,"Delta":222977676},{"NoteNumber":70,"Velocity":45,"Duration":878219,"SoundDuration":878219,"Delta":222977676},{"NoteNumber":70,"Velocity":37,"Duration":1644820,"SoundDuration":1644820,"Delta":223855896},{"NoteNumber":70,"Velocity":56,"Duration":828271,"SoundDuration":828271,"Delta":224672445},{"NoteNumber":82,"Velocity":56,"Duration":828271,"SoundDuration":828271,"Delta":224672445},{"NoteNumber":81,"Velocity":54,"Duration":885460,"SoundDuration":885460,"Delta":225500716},{"NoteNumber":69,"Velocity":54,"Duration":885460,"SoundDuration":885460,"Delta":225500716},{"NoteNumber":58,"Velocity":34,"Duration":1729757,"SoundDuration":1729757,"Delta":225500716},{"NoteNumber":70,"Velocity":34,"Duration":1729757,"SoundDuration":1729757,"Delta":225500716},{"NoteNumber":65,"Velocity":31,"Duration":7214249,"SoundDuration":7214249,"Delta":225914852},{"NoteNumber":61,"Velocity":31,"Duration":7214249,"SoundDuration":7214249,"Delta":225914852},{"NoteNumber":55,"Velocity":31,"Duration":7214249,"SoundDuration":7214249,"Delta":225914852},{"NoteNumber":39,"Velocity":25,"Duration":7214249,"SoundDuration":7214249,"Delta":225914852},{"NoteNumber":46,"Velocity":26,"Duration":7214249,"SoundDuration":7214249,"Delta":225914852},{"NoteNumber":69,"Velocity":48,"Duration":1645488,"SoundDuration":1645488,"Delta":226390137},{"NoteNumber":81,"Velocity":48,"Duration":1645488,"SoundDuration":1645488,"Delta":226390137},{"NoteNumber":58,"Velocity":30,"Duration":1645488,"SoundDuration":1645488,"Delta":227230473},{"NoteNumber":70,"Velocity":32,"Duration":1645488,"SoundDuration":1645488,"Delta":227230473},{"NoteNumber":67,"Velocity":44,"Duration":5093475,"SoundDuration":5093475,"Delta":228035626},{"NoteNumber":79,"Velocity":44,"Duration":5093475,"SoundDuration":5093475,"Delta":228035626},{"NoteNumber":58,"Velocity":26,"Duration":2100840,"SoundDuration":2100840,"Delta":228875962},{"NoteNumber":70,"Velocity":26,"Duration":840335,"SoundDuration":840335,"Delta":228875962},{"NoteNumber":70,"Velocity":22,"Duration":1260504,"SoundDuration":1260504,"Delta":229716298},{"NoteNumber":58,"Velocity":27,"Duration":2164657,"SoundDuration":2164657,"Delta":231396970},{"NoteNumber":70,"Velocity":27,"Duration":840336,"SoundDuration":840336,"Delta":231396970},{"NoteNumber":70,"Velocity":22,"Duration":1324321,"SoundDuration":1324321,"Delta":232237306},{"NoteNumber":55,"Velocity":24,"Duration":7054312,"SoundDuration":7054312,"Delta":233129102},{"NoteNumber":64,"Velocity":24,"Duration":5108405,"SoundDuration":5108405,"Delta":233129102},{"NoteNumber":69,"Velocity":48,"Duration":1681600,"SoundDuration":1681600,"Delta":233129102},{"NoteNumber":61,"Velocity":24,"Duration":7054312,"SoundDuration":7054312,"Delta":233129102},{"NoteNumber":39,"Velocity":22,"Duration":7054312,"SoundDuration":7054312,"Delta":233129102},{"NoteNumber":46,"Velocity":22,"Duration":7054312,"SoundDuration":7054312,"Delta":233129102},{"NoteNumber":58,"Velocity":29,"Duration":1656884,"SoundDuration":1656884,"Delta":233994154},{"NoteNumber":70,"Velocity":31,"Duration":1656884,"SoundDuration":1656884,"Delta":233994154},{"NoteNumber":67,"Velocity":42,"Duration":2586468,"SoundDuration":2586468,"Delta":234810702},{"NoteNumber":58,"Velocity":26,"Duration":2166300,"SoundDuration":2166300,"Delta":235651038},{"NoteNumber":70,"Velocity":26,"Duration":840335,"SoundDuration":840335,"Delta":235651038},{"NoteNumber":70,"Velocity":22,"Duration":1325964,"SoundDuration":1325964,"Delta":236491374},{"NoteNumber":69,"Velocity":42,"Duration":840336,"SoundDuration":840336,"Delta":237397171},{"NoteNumber":72,"Velocity":46,"Duration":891795,"SoundDuration":891795,"Delta":238237507},{"NoteNumber":64,"Velocity":24,"Duration":1945906,"SoundDuration":1945906,"Delta":238237507},{"NoteNumber":58,"Velocity":26,"Duration":891795,"SoundDuration":891795,"Delta":238237507},{"NoteNumber":70,"Velocity":26,"Duration":884363,"SoundDuration":884363,"Delta":238237507},{"NoteNumber":70,"Velocity":37,"Duration":2089307,"SoundDuration":2089307,"Delta":239129303},{"NoteNumber":58,"Velocity":25,"Duration":2089307,"SoundDuration":2089307,"Delta":239129303},{"NoteNumber":58,"Velocity":27,"Duration":7095274,"SoundDuration":7095274,"Delta":240183414},{"NoteNumber":36,"Velocity":18,"Duration":8015519,"SoundDuration":8015519,"Delta":240183414},{"NoteNumber":48,"Velocity":18,"Duration":8015519,"SoundDuration":8015519,"Delta":240183414},{"NoteNumber":51,"Velocity":18,"Duration":7095274,"SoundDuration":7095274,"Delta":240183414},{"NoteNumber":54,"Velocity":18,"Duration":7095274,"SoundDuration":7095274,"Delta":240183414},{"NoteNumber":78,"Velocity":45,"Duration":3502573,"SoundDuration":3502573,"Delta":241218610},{"NoteNumber":75,"Velocity":45,"Duration":3502573,"SoundDuration":3502573,"Delta":241218610},{"NoteNumber":87,"Velocity":51,"Duration":3502573,"SoundDuration":3502573,"Delta":241218610},{"NoteNumber":82,"Velocity":45,"Duration":3502573,"SoundDuration":3502573,"Delta":241218610},{"NoteNumber":63,"Velocity":22,"Duration":3502573,"SoundDuration":3502573,"Delta":241218610},{"NoteNumber":66,"Velocity":38,"Duration":3502573,"SoundDuration":3502573,"Delta":241218610},{"NoteNumber":70,"Velocity":38,"Duration":3502573,"SoundDuration":3502573,"Delta":241218610},{"NoteNumber":58,"Velocity":32,"Duration":2157666,"SoundDuration":2157666,"Delta":241218610},{"NoteNumber":70,"Velocity":38,"Duration":840336,"SoundDuration":840336,"Delta":241218610},{"NoteNumber":70,"Velocity":37,"Duration":1317329,"SoundDuration":1317329,"Delta":242058946},{"NoteNumber":58,"Velocity":32,"Duration":2131103,"SoundDuration":2131103,"Delta":243815386},{"NoteNumber":70,"Velocity":38,"Duration":905797,"SoundDuration":905797,"Delta":243815386},{"NoteNumber":71,"Velocity":44,"Duration":828271,"SoundDuration":828271,"Delta":244721183},{"NoteNumber":83,"Velocity":50,"Duration":828271,"SoundDuration":828271,"Delta":244721183},{"NoteNumber":78,"Velocity":44,"Duration":828271,"SoundDuration":828271,"Delta":244721183},{"NoteNumber":75,"Velocity":44,"Duration":828271,"SoundDuration":828271,"Delta":244721183},{"NoteNumber":63,"Velocity":31,"Duration":828271,"SoundDuration":828271,"Delta":244721183},{"NoteNumber":59,"Velocity":31,"Duration":828271,"SoundDuration":828271,"Delta":244721183},{"NoteNumber":66,"Velocity":37,"Duration":828271,"SoundDuration":828271,"Delta":244721183},{"NoteNumber":70,"Velocity":26,"Duration":1225306,"SoundDuration":1225306,"Delta":244721183},{"NoteNumber":78,"Velocity":48,"Duration":1246065,"SoundDuration":1246065,"Delta":245549455},{"NoteNumber":84,"Velocity":54,"Duration":1246065,"SoundDuration":1246065,"Delta":245549455},{"NoteNumber":75,"Velocity":48,"Duration":1242169,"SoundDuration":1242169,"Delta":245549455},{"NoteNumber":72,"Velocity":48,"Duration":1242169,"SoundDuration":1242169,"Delta":245549455},{"NoteNumber":66,"Velocity":39,"Duration":1242169,"SoundDuration":1242169,"Delta":245549455},{"NoteNumber":63,"Velocity":33,"Duration":1242169,"SoundDuration":1242169,"Delta":245549455},{"NoteNumber":60,"Velocity":33,"Duration":1238272,"SoundDuration":1238272,"Delta":245549455},{"NoteNumber":58,"Velocity":34,"Duration":2275575,"SoundDuration":2275575,"Delta":246343526},{"NoteNumber":70,"Velocity":34,"Duration":935161,"SoundDuration":935161,"Delta":246343526},{"NoteNumber":77,"Velocity":51,"Duration":467580,"SoundDuration":467580,"Delta":246811107},{"NoteNumber":85,"Velocity":51,"Duration":467580,"SoundDuration":467580,"Delta":246811107},{"NoteNumber":82,"Velocity":51,"Duration":467580,"SoundDuration":467580,"Delta":246811107},{"NoteNumber":89,"Velocity":58,"Duration":467580,"SoundDuration":467580,"Delta":246811107},{"NoteNumber":65,"Velocity":36,"Duration":467580,"SoundDuration":467580,"Delta":246811107},{"NoteNumber":66,"Velocity":36,"Duration":467580,"SoundDuration":467580,"Delta":246811107},{"NoteNumber":73,"Velocity":43,"Duration":467580,"SoundDuration":467580,"Delta":246811107},{"NoteNumber":78,"Velocity":50,"Duration":4422818,"SoundDuration":4422818,"Delta":247278688},{"NoteNumber":75,"Velocity":50,"Duration":4422818,"SoundDuration":4422818,"Delta":247278688},{"NoteNumber":87,"Velocity":55,"Duration":4422818,"SoundDuration":4422818,"Delta":247278688},{"NoteNumber":82,"Velocity":50,"Duration":4422818,"SoundDuration":4422818,"Delta":247278688},{"NoteNumber":63,"Velocity":32,"Duration":4422818,"SoundDuration":4422818,"Delta":247278688},{"NoteNumber":66,"Velocity":32,"Duration":4422818,"SoundDuration":4422818,"Delta":247278688},{"NoteNumber":70,"Velocity":38,"Duration":4422818,"SoundDuration":4422818,"Delta":247278688},{"NoteNumber":70,"Velocity":28,"Duration":1340413,"SoundDuration":1340413,"Delta":247278688},{"NoteNumber":36,"Velocity":36,"Duration":6850639,"SoundDuration":6850639,"Delta":248198933},{"NoteNumber":48,"Velocity":36,"Duration":6850639,"SoundDuration":6850639,"Delta":248198933},{"NoteNumber":58,"Velocity":32,"Duration":2209338,"SoundDuration":2209338,"Delta":249039269},{"NoteNumber":70,"Velocity":38,"Duration":878219,"SoundDuration":878219,"Delta":249039269},{"NoteNumber":70,"Velocity":28,"Duration":1331118,"SoundDuration":1331118,"Delta":249917489},{"NoteNumber":83,"Velocity":50,"Duration":828271,"SoundDuration":828271,"Delta":251701506},{"NoteNumber":75,"Velocity":44,"Duration":828271,"SoundDuration":828271,"Delta":251701506},{"NoteNumber":71,"Velocity":44,"Duration":828271,"SoundDuration":828271,"Delta":251701506},{"NoteNumber":78,"Velocity":44,"Duration":828271,"SoundDuration":828271,"Delta":251701506},{"NoteNumber":59,"Velocity":31,"Duration":828271,"SoundDuration":828271,"Delta":251701506},{"NoteNumber":66,"Velocity":37,"Duration":828271,"SoundDuration":828271,"Delta":251701506},{"NoteNumber":63,"Velocity":31,"Duration":828271,"SoundDuration":828271,"Delta":251701506},{"NoteNumber":58,"Velocity":31,"Duration":2073896,"SoundDuration":2073896,"Delta":251701506},{"NoteNumber":70,"Velocity":31,"Duration":828271,"SoundDuration":828271,"Delta":251701506},{"NoteNumber":75,"Velocity":40,"Duration":530059,"SoundDuration":530059,"Delta":252529778},{"NoteNumber":84,"Velocity":54,"Duration":530059,"SoundDuration":530059,"Delta":252529778},{"NoteNumber":78,"Velocity":48,"Duration":530059,"SoundDuration":530059,"Delta":252529778},{"NoteNumber":72,"Velocity":40,"Duration":530059,"SoundDuration":530059,"Delta":252529778},{"NoteNumber":63,"Velocity":28,"Duration":530059,"SoundDuration":530059,"Delta":252529778},{"NoteNumber":66,"Velocity":39,"Duration":530059,"SoundDuration":530059,"Delta":252529778},{"NoteNumber":60,"Velocity":28,"Duration":530059,"SoundDuration":530059,"Delta":252529778},{"NoteNumber":70,"Velocity":24,"Duration":1245625,"SoundDuration":1245625,"Delta":252529778},{"NoteNumber":80,"Velocity":44,"Duration":560223,"SoundDuration":560223,"Delta":253066546},{"NoteNumber":77,"Velocity":44,"Duration":560223,"SoundDuration":560223,"Delta":253066546},{"NoteNumber":84,"Velocity":52,"Duration":560223,"SoundDuration":560223,"Delta":253066546},{"NoteNumber":89,"Velocity":58,"Duration":560223,"SoundDuration":560223,"Delta":253066546},{"NoteNumber":72,"Velocity":43,"Duration":560223,"SoundDuration":560223,"Delta":253066546},{"NoteNumber":65,"Velocity":30,"Duration":560223,"SoundDuration":560223,"Delta":253066546},{"NoteNumber":68,"Velocity":30,"Duration":560223,"SoundDuration":560223,"Delta":253066546},{"NoteNumber":58,"Velocity":39,"Duration":1702913,"SoundDuration":1702913,"Delta":253346658},{"NoteNumber":79,"Velocity":42,"Duration":594530,"SoundDuration":594530,"Delta":253626770},{"NoteNumber":83,"Velocity":50,"Duration":594530,"SoundDuration":594530,"Delta":253626770},{"NoteNumber":76,"Velocity":42,"Duration":594530,"SoundDuration":594530,"Delta":253626770},{"NoteNumber":88,"Velocity":55,"Duration":594530,"SoundDuration":594530,"Delta":253626770},{"NoteNumber":67,"Velocity":28,"Duration":594530,"SoundDuration":594530,"Delta":253626770},{"NoteNumber":64,"Velocity":28,"Duration":594530,"SoundDuration":594530,"Delta":253626770},{"NoteNumber":71,"Velocity":40,"Duration":594530,"SoundDuration":594530,"Delta":253626770},{"NoteNumber":87,"Velocity":50,"Duration":2484814,"SoundDuration":2484814,"Delta":254221301},{"NoteNumber":78,"Velocity":42,"Duration":2484814,"SoundDuration":2484814,"Delta":254221301},{"NoteNumber":82,"Velocity":50,"Duration":2484814,"SoundDuration":2484814,"Delta":254221301},{"NoteNumber":75,"Velocity":42,"Duration":2484814,"SoundDuration":2484814,"Delta":254221301},{"NoteNumber":60,"Velocity":35,"Duration":2484814,"SoundDuration":2484814,"Delta":254221301},{"NoteNumber":63,"Velocity":35,"Duration":2484814,"SoundDuration":2484814,"Delta":254221301},{"NoteNumber":66,"Velocity":42,"Duration":2484814,"SoundDuration":2484814,"Delta":254221301},{"NoteNumber":70,"Velocity":42,"Duration":2484814,"SoundDuration":2484814,"Delta":254221301},{"NoteNumber":36,"Velocity":36,"Duration":11398102,"SoundDuration":11398102,"Delta":255049572},{"NoteNumber":48,"Velocity":36,"Duration":11398102,"SoundDuration":11398102,"Delta":255049572},{"NoteNumber":58,"Velocity":44,"Duration":2059119,"SoundDuration":2059119,"Delta":255049572},{"NoteNumber":70,"Velocity":44,"Duration":828271,"SoundDuration":828271,"Delta":255049572},{"NoteNumber":70,"Velocity":38,"Duration":1230848,"SoundDuration":1230848,"Delta":255877844},{"NoteNumber":75,"Velocity":38,"Duration":805153,"SoundDuration":805153,"Delta":256706115},{"NoteNumber":82,"Velocity":45,"Duration":805153,"SoundDuration":805153,"Delta":256706115},{"NoteNumber":78,"Velocity":45,"Duration":805153,"SoundDuration":805153,"Delta":256706115},{"NoteNumber":58,"Velocity":32,"Duration":805153,"SoundDuration":805153,"Delta":256706115},{"NoteNumber":63,"Velocity":32,"Duration":805153,"SoundDuration":805153,"Delta":256706115},{"NoteNumber":66,"Velocity":38,"Duration":805153,"SoundDuration":805153,"Delta":256706115},{"NoteNumber":72,"Velocity":35,"Duration":1680672,"SoundDuration":1680672,"Delta":257511268},{"NoteNumber":75,"Velocity":42,"Duration":1680672,"SoundDuration":1680672,"Delta":257511268},{"NoteNumber":80,"Velocity":42,"Duration":1680672,"SoundDuration":1680672,"Delta":257511268},{"NoteNumber":68,"Velocity":35,"Duration":1680672,"SoundDuration":1680672,"Delta":257511268},{"NoteNumber":56,"Velocity":28,"Duration":1680672,"SoundDuration":1680672,"Delta":257511268},{"NoteNumber":60,"Velocity":28,"Duration":1680672,"SoundDuration":1680672,"Delta":257511268},{"NoteNumber":63,"Velocity":34,"Duration":1680672,"SoundDuration":1680672,"Delta":257511268},{"NoteNumber":70,"Velocity":42,"Duration":840335,"SoundDuration":840335,"Delta":257511268},{"NoteNumber":70,"Velocity":33,"Duration":1242912,"SoundDuration":1242912,"Delta":258351604},{"NoteNumber":73,"Velocity":44,"Duration":805153,"SoundDuration":805153,"Delta":259191940},{"NoteNumber":78,"Velocity":44,"Duration":805153,"SoundDuration":805153,"Delta":259191940},{"NoteNumber":66,"Velocity":37,"Duration":805153,"SoundDuration":805153,"Delta":259191940},{"NoteNumber":54,"Velocity":31,"Duration":805153,"SoundDuration":805153,"Delta":259191940},{"NoteNumber":58,"Velocity":31,"Duration":805153,"SoundDuration":805153,"Delta":259191940},{"NoteNumber":63,"Velocity":37,"Duration":805153,"SoundDuration":805153,"Delta":259191940},{"NoteNumber":68,"Velocity":38,"Duration":762776,"SoundDuration":762776,"Delta":259997093},{"NoteNumber":80,"Velocity":45,"Duration":762776,"SoundDuration":762776,"Delta":259997093},{"NoteNumber":75,"Velocity":45,"Duration":762776,"SoundDuration":762776,"Delta":259997093},{"NoteNumber":56,"Velocity":32,"Duration":762776,"SoundDuration":762776,"Delta":259997093},{"NoteNumber":60,"Velocity":32,"Duration":762776,"SoundDuration":762776,"Delta":259997093},{"NoteNumber":63,"Velocity":38,"Duration":762776,"SoundDuration":762776,"Delta":259997093},{"NoteNumber":70,"Velocity":46,"Duration":762776,"SoundDuration":762776,"Delta":259997093},{"NoteNumber":78,"Velocity":42,"Duration":783494,"SoundDuration":783494,"Delta":260759870},{"NoteNumber":73,"Velocity":42,"Duration":1623830,"SoundDuration":1623830,"Delta":260759870},{"NoteNumber":82,"Velocity":50,"Duration":783494,"SoundDuration":783494,"Delta":260759870},{"NoteNumber":85,"Velocity":50,"Duration":783494,"SoundDuration":783494,"Delta":260759870},{"NoteNumber":61,"Velocity":35,"Duration":783494,"SoundDuration":783494,"Delta":260759870},{"NoteNumber":66,"Velocity":42,"Duration":783494,"SoundDuration":783494,"Delta":260759870},{"NoteNumber":70,"Velocity":42,"Duration":783494,"SoundDuration":783494,"Delta":260759870},{"NoteNumber":70,"Velocity":42,"Duration":1203662,"SoundDuration":1203662,"Delta":260759870},{"NoteNumber":78,"Velocity":44,"Duration":840335,"SoundDuration":840335,"Delta":261543364},{"NoteNumber":75,"Velocity":37,"Duration":840335,"SoundDuration":840335,"Delta":261543364},{"NoteNumber":82,"Velocity":44,"Duration":840335,"SoundDuration":840335,"Delta":261543364},{"NoteNumber":58,"Velocity":31,"Duration":840335,"SoundDuration":840335,"Delta":261543364},{"NoteNumber":63,"Velocity":37,"Duration":840335,"SoundDuration":840335,"Delta":261543364},{"NoteNumber":66,"Velocity":37,"Duration":840335,"SoundDuration":840335,"Delta":261543364},{"NoteNumber":65,"Velocity":33,"Duration":1680672,"SoundDuration":1680672,"Delta":262383700},{"NoteNumber":72,"Velocity":39,"Duration":1680672,"SoundDuration":1680672,"Delta":262383700},{"NoteNumber":68,"Velocity":33,"Duration":1680672,"SoundDuration":1680672,"Delta":262383700},{"NoteNumber":77,"Velocity":39,"Duration":1680672,"SoundDuration":1680672,"Delta":262383700},{"NoteNumber":56,"Velocity":28,"Duration":1680672,"SoundDuration":1680672,"Delta":262383700},{"NoteNumber":53,"Velocity":28,"Duration":1680672,"SoundDuration":1680672,"Delta":262383700},{"NoteNumber":60,"Velocity":33,"Duration":1680672,"SoundDuration":1680672,"Delta":262383700},{"NoteNumber":58,"Velocity":33,"Duration":1680672,"SoundDuration":1680672,"Delta":262383700},{"NoteNumber":70,"Velocity":45,"Duration":840336,"SoundDuration":840336,"Delta":262383700},{"NoteNumber":70,"Velocity":39,"Duration":1226834,"SoundDuration":1226834,"Delta":263224036},{"NoteNumber":66,"Velocity":43,"Duration":772996,"SoundDuration":772996,"Delta":264064372},{"NoteNumber":75,"Velocity":43,"Duration":772996,"SoundDuration":772996,"Delta":264064372},{"NoteNumber":63,"Velocity":36,"Duration":772996,"SoundDuration":772996,"Delta":264064372},{"NoteNumber":51,"Velocity":30,"Duration":772996,"SoundDuration":772996,"Delta":264064372},{"NoteNumber":54,"Velocity":36,"Duration":772996,"SoundDuration":772996,"Delta":264064372},{"NoteNumber":58,"Velocity":36,"Duration":772996,"SoundDuration":772996,"Delta":264064372},{"NoteNumber":72,"Velocity":44,"Duration":805153,"SoundDuration":805153,"Delta":264837369},{"NoteNumber":68,"Velocity":37,"Duration":805153,"SoundDuration":805153,"Delta":264837369},{"NoteNumber":65,"Velocity":37,"Duration":805153,"SoundDuration":805153,"Delta":264837369},{"NoteNumber":77,"Velocity":44,"Duration":805153,"SoundDuration":805153,"Delta":264837369},{"NoteNumber":53,"Velocity":31,"Duration":805153,"SoundDuration":805153,"Delta":264837369},{"NoteNumber":56,"Velocity":31,"Duration":805153,"SoundDuration":805153,"Delta":264837369},{"NoteNumber":58,"Velocity":37,"Duration":805153,"SoundDuration":805153,"Delta":264837369},{"NoteNumber":60,"Velocity":37,"Duration":805153,"SoundDuration":805153,"Delta":264837369},{"NoteNumber":70,"Velocity":43,"Duration":805153,"SoundDuration":805153,"Delta":264837369},{"NoteNumber":68,"Velocity":42,"Duration":2415458,"SoundDuration":2415458,"Delta":265642522},{"NoteNumber":75,"Velocity":50,"Duration":2415458,"SoundDuration":2415458,"Delta":265642522},{"NoteNumber":72,"Velocity":42,"Duration":2415458,"SoundDuration":2415458,"Delta":265642522},{"NoteNumber":80,"Velocity":50,"Duration":2415458,"SoundDuration":2415458,"Delta":265642522},{"NoteNumber":63,"Velocity":42,"Duration":2415458,"SoundDuration":2415458,"Delta":265642522},{"NoteNumber":60,"Velocity":42,"Duration":2415458,"SoundDuration":2415458,"Delta":265642522},{"NoteNumber":58,"Velocity":35,"Duration":2415458,"SoundDuration":2415458,"Delta":265642522},{"NoteNumber":56,"Velocity":35,"Duration":2415458,"SoundDuration":2415458,"Delta":265642522},{"NoteNumber":70,"Velocity":37,"Duration":1207729,"SoundDuration":1207729,"Delta":265642522},{"NoteNumber":36,"Velocity":36,"Duration":6001637,"SoundDuration":6001637,"Delta":266447675},{"NoteNumber":48,"Velocity":36,"Duration":6001637,"SoundDuration":6001637,"Delta":266447675},{"NoteNumber":58,"Velocity":33,"Duration":1645488,"SoundDuration":1645488,"Delta":267252828},{"NoteNumber":70,"Velocity":33,"Duration":3326161,"SoundDuration":3326161,"Delta":267252828},{"NoteNumber":66,"Velocity":38,"Duration":840335,"SoundDuration":840335,"Delta":268057981},{"NoteNumber":78,"Velocity":45,"Duration":840335,"SoundDuration":840335,"Delta":268057981},{"NoteNumber":75,"Velocity":45,"Duration":840335,"SoundDuration":840335,"Delta":268057981},{"NoteNumber":63,"Velocity":38,"Duration":840335,"SoundDuration":840335,"Delta":268057981},{"NoteNumber":54,"Velocity":32,"Duration":840335,"SoundDuration":840335,"Delta":268057981},{"NoteNumber":66,"Velocity":42,"Duration":1680672,"SoundDuration":1680672,"Delta":268898317},{"NoteNumber":75,"Velocity":42,"Duration":1680672,"SoundDuration":1680672,"Delta":268898317},{"NoteNumber":63,"Velocity":35,"Duration":1680672,"SoundDuration":1680672,"Delta":268898317},{"NoteNumber":51,"Velocity":28,"Duration":1680672,"SoundDuration":1680672,"Delta":268898317},{"NoteNumber":54,"Velocity":34,"Duration":1680672,"SoundDuration":1680672,"Delta":268898317},{"NoteNumber":58,"Velocity":38,"Duration":840336,"SoundDuration":840336,"Delta":268898317},{"NoteNumber":58,"Velocity":24,"Duration":1307916,"SoundDuration":1307916,"Delta":269738653},{"NoteNumber":63,"Velocity":34,"Duration":1870323,"SoundDuration":1870323,"Delta":270578989},{"NoteNumber":70,"Velocity":40,"Duration":1870323,"SoundDuration":1870323,"Delta":270578989},{"NoteNumber":66,"Velocity":40,"Duration":1870323,"SoundDuration":1870323,"Delta":270578989},{"NoteNumber":46,"Velocity":27,"Duration":1870323,"SoundDuration":1870323,"Delta":270578989},{"NoteNumber":51,"Velocity":27,"Duration":1870323,"SoundDuration":1870323,"Delta":270578989},{"NoteNumber":54,"Velocity":32,"Duration":1870323,"SoundDuration":1870323,"Delta":270578989},{"NoteNumber":58,"Velocity":31,"Duration":4310361,"SoundDuration":4310361,"Delta":271514151},{"NoteNumber":70,"Velocity":38,"Duration":3375199,"SoundDuration":3375199,"Delta":272449313},{"NoteNumber":64,"Velocity":32,"Duration":3375199,"SoundDuration":3375199,"Delta":272449313},{"NoteNumber":73,"Velocity":38,"Duration":3375199,"SoundDuration":3375199,"Delta":272449313},{"NoteNumber":22,"Velocity":25,"Duration":3375199,"SoundDuration":3375199,"Delta":272449313},{"NoteNumber":34,"Velocity":25,"Duration":3375199,"SoundDuration":3375199,"Delta":272449313},{"NoteNumber":102,"Velocity":36,"Duration":828271,"SoundDuration":828271,"Delta":273384475},{"NoteNumber":94,"Velocity":30,"Duration":828271,"SoundDuration":828271,"Delta":273384475},{"NoteNumber":88,"Velocity":30,"Duration":828271,"SoundDuration":828271,"Delta":273384475},{"NoteNumber":97,"Velocity":30,"Duration":828271,"SoundDuration":828271,"Delta":273384475},{"NoteNumber":52,"Velocity":15,"Duration":828271,"SoundDuration":828271,"Delta":273384475},{"NoteNumber":46,"Velocity":15,"Duration":828271,"SoundDuration":828271,"Delta":273384475},{"NoteNumber":61,"Velocity":18,"Duration":828271,"SoundDuration":828271,"Delta":273384475},{"NoteNumber":92,"Velocity":30,"Duration":828271,"SoundDuration":828271,"Delta":274212746},{"NoteNumber":88,"Velocity":30,"Duration":828271,"SoundDuration":828271,"Delta":274212746},{"NoteNumber":82,"Velocity":30,"Duration":828271,"SoundDuration":828271,"Delta":274212746},{"NoteNumber":97,"Velocity":35,"Duration":828271,"SoundDuration":828271,"Delta":274212746},{"NoteNumber":63,"Velocity":18,"Duration":828271,"SoundDuration":828271,"Delta":274212746},{"NoteNumber":49,"Velocity":14,"Duration":1677337,"SoundDuration":1677337,"Delta":274212746},{"NoteNumber":54,"Velocity":14,"Duration":828271,"SoundDuration":828271,"Delta":274212746},{"NoteNumber":90,"Velocity":26,"Duration":783494,"SoundDuration":783494,"Delta":275041018},{"NoteNumber":85,"Velocity":26,"Duration":783494,"SoundDuration":783494,"Delta":275041018},{"NoteNumber":80,"Velocity":26,"Duration":783494,"SoundDuration":783494,"Delta":275041018},{"NoteNumber":94,"Velocity":30,"Duration":783494,"SoundDuration":783494,"Delta":275041018},{"NoteNumber":64,"Velocity":19,"Duration":783494,"SoundDuration":783494,"Delta":275041018},{"NoteNumber":58,"Velocity":32,"Duration":783494,"SoundDuration":783494,"Delta":275041018},{"NoteNumber":82,"Velocity":28,"Duration":828271,"SoundDuration":828271,"Delta":275824512},{"NoteNumber":88,"Velocity":28,"Duration":828271,"SoundDuration":828271,"Delta":275824512},{"NoteNumber":78,"Velocity":28,"Duration":828271,"SoundDuration":828271,"Delta":275824512},{"NoteNumber":92,"Velocity":34,"Duration":828271,"SoundDuration":828271,"Delta":275824512},{"NoteNumber":66,"Velocity":16,"Duration":828271,"SoundDuration":828271,"Delta":275824512},{"NoteNumber":52,"Velocity":14,"Duration":828271,"SoundDuration":828271,"Delta":275824512},{"NoteNumber":58,"Velocity":21,"Duration":2036478,"SoundDuration":2036478,"Delta":275824512},{"NoteNumber":85,"Velocity":26,"Duration":794070,"SoundDuration":794070,"Delta":276652784},{"NoteNumber":90,"Velocity":28,"Duration":794070,"SoundDuration":794070,"Delta":276652784},{"NoteNumber":76,"Velocity":26,"Duration":794070,"SoundDuration":794070,"Delta":276652784},{"NoteNumber":82,"Velocity":26,"Duration":794070,"SoundDuration":794070,"Delta":276652784},{"NoteNumber":61,"Velocity":14,"Duration":794070,"SoundDuration":794070,"Delta":276652784},{"NoteNumber":68,"Velocity":18,"Duration":794070,"SoundDuration":794070,"Delta":276652784},{"NoteNumber":52,"Velocity":14,"Duration":794070,"SoundDuration":794070,"Delta":276652784},{"NoteNumber":82,"Velocity":26,"Duration":828271,"SoundDuration":828271,"Delta":277446855},{"NoteNumber":73,"Velocity":26,"Duration":828271,"SoundDuration":828271,"Delta":277446855},{"NoteNumber":87,"Velocity":28,"Duration":828271,"SoundDuration":828271,"Delta":277446855},{"NoteNumber":78,"Velocity":26,"Duration":828271,"SoundDuration":828271,"Delta":277446855},{"NoteNumber":61,"Velocity":18,"Duration":828271,"SoundDuration":828271,"Delta":277446855},{"NoteNumber":56,"Velocity":18,"Duration":828271,"SoundDuration":828271,"Delta":277446855},{"NoteNumber":70,"Velocity":32,"Duration":824820,"SoundDuration":824820,"Delta":277446855},{"NoteNumber":85,"Velocity":28,"Duration":828271,"SoundDuration":828271,"Delta":278275126},{"NoteNumber":70,"Velocity":26,"Duration":828271,"SoundDuration":828271,"Delta":278275126},{"NoteNumber":80,"Velocity":26,"Duration":828271,"SoundDuration":828271,"Delta":278275126},{"NoteNumber":76,"Velocity":26,"Duration":828271,"SoundDuration":828271,"Delta":278275126},{"NoteNumber":61,"Velocity":18,"Duration":828271,"SoundDuration":828271,"Delta":278275126},{"NoteNumber":68,"Velocity":18,"Duration":821369,"SoundDuration":821369,"Delta":278275126},{"NoteNumber":58,"Velocity":18,"Duration":828271,"SoundDuration":828271,"Delta":278275126},{"NoteNumber":70,"Velocity":21,"Duration":828271,"SoundDuration":828271,"Delta":278275126},{"NoteNumber":73,"Velocity":26,"Duration":828271,"SoundDuration":828271,"Delta":279103398},{"NoteNumber":78,"Velocity":26,"Duration":828271,"SoundDuration":828271,"Delta":279103398},{"NoteNumber":82,"Velocity":28,"Duration":828271,"SoundDuration":828271,"Delta":279103398},{"NoteNumber":68,"Velocity":26,"Duration":828271,"SoundDuration":828271,"Delta":279103398},{"NoteNumber":61,"Velocity":14,"Duration":853502,"SoundDuration":853502,"Delta":279103398},{"NoteNumber":66,"Velocity":16,"Duration":821369,"SoundDuration":821369,"Delta":279103398},{"NoteNumber":76,"Velocity":20,"Duration":865051,"SoundDuration":865051,"Delta":279931669},{"NoteNumber":70,"Velocity":20,"Duration":865051,"SoundDuration":865051,"Delta":279931669},{"NoteNumber":80,"Velocity":23,"Duration":865051,"SoundDuration":865051,"Delta":279931669},{"NoteNumber":66,"Velocity":20,"Duration":865051,"SoundDuration":865051,"Delta":279931669},{"NoteNumber":64,"Velocity":16,"Duration":857843,"SoundDuration":857843,"Delta":279931669},{"NoteNumber":58,"Velocity":33,"Duration":2692009,"SoundDuration":2692009,"Delta":279931669},{"NoteNumber":70,"Velocity":33,"Duration":865051,"SoundDuration":865051,"Delta":279931669},{"NoteNumber":78,"Velocity":23,"Duration":891795,"SoundDuration":891795,"Delta":280796721},{"NoteNumber":64,"Velocity":20,"Duration":891795,"SoundDuration":891795,"Delta":280796721},{"NoteNumber":70,"Velocity":20,"Duration":891795,"SoundDuration":891795,"Delta":280796721},{"NoteNumber":73,"Velocity":20,"Duration":891795,"SoundDuration":891795,"Delta":280796721},{"NoteNumber":64,"Velocity":18,"Duration":891795,"SoundDuration":891795,"Delta":280796721},{"NoteNumber":56,"Velocity":18,"Duration":891795,"SoundDuration":891795,"Delta":280796721},{"NoteNumber":70,"Velocity":21,"Duration":1826957,"SoundDuration":1826957,"Delta":280796721},{"NoteNumber":61,"Velocity":20,"Duration":935161,"SoundDuration":935161,"Delta":281688517},{"NoteNumber":66,"Velocity":20,"Duration":935161,"SoundDuration":935161,"Delta":281688517},{"NoteNumber":75,"Velocity":23,"Duration":935161,"SoundDuration":935161,"Delta":281688517},{"NoteNumber":58,"Velocity":18,"Duration":935161,"SoundDuration":935161,"Delta":281688517},{"NoteNumber":52,"Velocity":18,"Duration":935161,"SoundDuration":935161,"Delta":281688517},{"NoteNumber":61,"Velocity":21,"Duration":1775497,"SoundDuration":1775497,"Delta":282623679},{"NoteNumber":73,"Velocity":23,"Duration":1775497,"SoundDuration":1775497,"Delta":282623679},{"NoteNumber":22,"Velocity":25,"Duration":13701481,"SoundDuration":13701481,"Delta":282623679},{"NoteNumber":34,"Velocity":25,"Duration":3456169,"SoundDuration":3456169,"Delta":282623679},{"NoteNumber":58,"Velocity":32,"Duration":1775497,"SoundDuration":1775497,"Delta":282623679},{"NoteNumber":70,"Velocity":32,"Duration":1775497,"SoundDuration":1775497,"Delta":282623679},{"NoteNumber":64,"Velocity":43,"Duration":3781512,"SoundDuration":3781512,"Delta":283558841},{"NoteNumber":52,"Velocity":43,"Duration":3781512,"SoundDuration":3781512,"Delta":283558841},{"NoteNumber":58,"Velocity":38,"Duration":2100840,"SoundDuration":2100840,"Delta":284399177},{"NoteNumber":70,"Velocity":38,"Duration":840336,"SoundDuration":840336,"Delta":284399177},{"NoteNumber":70,"Velocity":30,"Duration":1260503,"SoundDuration":1260503,"Delta":285239513},{"NoteNumber":34,"Velocity":30,"Duration":10245311,"SoundDuration":10245311,"Delta":286079849},{"NoteNumber":46,"Velocity":30,"Duration":6807791,"SoundDuration":6807791,"Delta":286079849},{"NoteNumber":61,"Velocity":21,"Duration":1680672,"SoundDuration":1680672,"Delta":286920185},{"NoteNumber":73,"Velocity":21,"Duration":1680672,"SoundDuration":1680672,"Delta":286920185},{"NoteNumber":58,"Velocity":37,"Duration":1680672,"SoundDuration":1680672,"Delta":286920185},{"NoteNumber":70,"Velocity":37,"Duration":1680672,"SoundDuration":1680672,"Delta":286920185},{"NoteNumber":54,"Velocity":36,"Duration":420167,"SoundDuration":420167,"Delta":287340353},{"NoteNumber":66,"Velocity":36,"Duration":420167,"SoundDuration":420167,"Delta":287340353},{"NoteNumber":52,"Velocity":39,"Duration":1732131,"SoundDuration":1732131,"Delta":287760521},{"NoteNumber":64,"Velocity":39,"Duration":1732131,"SoundDuration":1732131,"Delta":287760521},{"NoteNumber":58,"Velocity":37,"Duration":2129166,"SoundDuration":2129166,"Delta":288600857},{"NoteNumber":70,"Velocity":37,"Duration":891795,"SoundDuration":891795,"Delta":288600857},{"NoteNumber":56,"Velocity":43,"Duration":840335,"SoundDuration":840335,"Delta":289492652},{"NoteNumber":68,"Velocity":43,"Duration":840335,"SoundDuration":840335,"Delta":289492652},{"NoteNumber":70,"Velocity":21,"Duration":1237371,"SoundDuration":1237371,"Delta":289492652},{"NoteNumber":55,"Velocity":37,"Duration":794070,"SoundDuration":794070,"Delta":290332988},{"NoteNumber":67,"Velocity":37,"Duration":794070,"SoundDuration":794070,"Delta":290332988},{"NoteNumber":73,"Velocity":21,"Duration":1741409,"SoundDuration":1741409,"Delta":291127059},{"NoteNumber":61,"Velocity":33,"Duration":1285121,"SoundDuration":1285121,"Delta":291127059},{"NoteNumber":49,"Velocity":33,"Duration":1285121,"SoundDuration":1285121,"Delta":291127059},{"NoteNumber":58,"Velocity":37,"Duration":2180749,"SoundDuration":2180749,"Delta":291127059},{"NoteNumber":70,"Velocity":37,"Duration":840335,"SoundDuration":840335,"Delta":291127059},{"NoteNumber":70,"Velocity":21,"Duration":1340413,"SoundDuration":1340413,"Delta":291967395},{"NoteNumber":66,"Velocity":37,"Duration":460122,"SoundDuration":460122,"Delta":292427518},{"NoteNumber":54,"Velocity":37,"Duration":460122,"SoundDuration":460122,"Delta":292427518},{"NoteNumber":66,"Velocity":37,"Duration":1705387,"SoundDuration":1705387,"Delta":292887641},{"NoteNumber":54,"Velocity":37,"Duration":1705387,"SoundDuration":1705387,"Delta":292887641},{"NoteNumber":73,"Velocity":19,"Duration":1756847,"SoundDuration":1756847,"Delta":293727977},{"NoteNumber":61,"Velocity":19,"Duration":1756847,"SoundDuration":1756847,"Delta":293727977},{"NoteNumber":58,"Velocity":30,"Duration":1756847,"SoundDuration":1756847,"Delta":293727977},{"NoteNumber":70,"Velocity":30,"Duration":1756847,"SoundDuration":1756847,"Delta":293727977},{"NoteNumber":64,"Velocity":31,"Duration":3366538,"SoundDuration":3366538,"Delta":294593029},{"NoteNumber":52,"Velocity":31,"Duration":3366538,"SoundDuration":3366538,"Delta":294593029},{"NoteNumber":58,"Velocity":30,"Duration":2077707,"SoundDuration":2077707,"Delta":295484824},{"NoteNumber":70,"Velocity":30,"Duration":840335,"SoundDuration":840335,"Delta":295484824},{"NoteNumber":22,"Velocity":30,"Duration":9616717,"SoundDuration":9616717,"Delta":296325160},{"NoteNumber":34,"Velocity":30,"Duration":9616717,"SoundDuration":9616717,"Delta":296325160},{"NoteNumber":70,"Velocity":21,"Duration":1237371,"SoundDuration":1237371,"Delta":296325160},{"NoteNumber":82,"Velocity":29,"Duration":794070,"SoundDuration":794070,"Delta":297165496},{"NoteNumber":85,"Velocity":33,"Duration":794070,"SoundDuration":794070,"Delta":297165496},{"NoteNumber":90,"Velocity":36,"Duration":794070,"SoundDuration":794070,"Delta":297165496},{"NoteNumber":76,"Velocity":29,"Duration":794070,"SoundDuration":794070,"Delta":297165496},{"NoteNumber":54,"Velocity":18,"Duration":794070,"SoundDuration":794070,"Delta":297165496},{"NoteNumber":46,"Velocity":14,"Duration":794070,"SoundDuration":794070,"Delta":297165496},{"NoteNumber":40,"Velocity":14,"Duration":1687913,"SoundDuration":1687913,"Delta":297165496},{"NoteNumber":49,"Velocity":18,"Duration":828128,"SoundDuration":828128,"Delta":297956258},{"NoteNumber":82,"Velocity":30,"Duration":828271,"SoundDuration":828271,"Delta":297959567},{"NoteNumber":87,"Velocity":33,"Duration":828271,"SoundDuration":828271,"Delta":297959567},{"NoteNumber":73,"Velocity":27,"Duration":828271,"SoundDuration":828271,"Delta":297959567},{"NoteNumber":78,"Velocity":27,"Duration":828271,"SoundDuration":828271,"Delta":297959567},{"NoteNumber":58,"Velocity":18,"Duration":828271,"SoundDuration":828271,"Delta":297959567},{"NoteNumber":58,"Velocity":31,"Duration":828271,"SoundDuration":828271,"Delta":297959567},{"NoteNumber":70,"Velocity":27,"Duration":828271,"SoundDuration":828271,"Delta":298787839},{"NoteNumber":76,"Velocity":27,"Duration":828271,"SoundDuration":828271,"Delta":298787839},{"NoteNumber":80,"Velocity":30,"Duration":828271,"SoundDuration":828271,"Delta":298787839},{"NoteNumber":85,"Velocity":33,"Duration":828271,"SoundDuration":828271,"Delta":298787839},{"NoteNumber":64,"Velocity":18,"Duration":828271,"SoundDuration":828271,"Delta":298787839},{"NoteNumber":49,"Velocity":18,"Duration":828271,"SoundDuration":828271,"Delta":298787839},{"NoteNumber":58,"Velocity":21,"Duration":1242407,"SoundDuration":1242407,"Delta":298787839},{"NoteNumber":68,"Velocity":25,"Duration":828271,"SoundDuration":828271,"Delta":299616110},{"NoteNumber":82,"Velocity":30,"Duration":828271,"SoundDuration":828271,"Delta":299616110},{"NoteNumber":73,"Velocity":25,"Duration":828271,"SoundDuration":828271,"Delta":299616110},{"NoteNumber":78,"Velocity":28,"Duration":828271,"SoundDuration":828271,"Delta":299616110},{"NoteNumber":61,"Velocity":16,"Duration":828271,"SoundDuration":828271,"Delta":299616110},{"NoteNumber":54,"Velocity":14,"Duration":828271,"SoundDuration":828271,"Delta":299616110},{"NoteNumber":66,"Velocity":19,"Duration":865051,"SoundDuration":865051,"Delta":300444382},{"NoteNumber":76,"Velocity":22,"Duration":865051,"SoundDuration":865051,"Delta":300444382},{"NoteNumber":80,"Velocity":26,"Duration":865051,"SoundDuration":865051,"Delta":300444382},{"NoteNumber":70,"Velocity":19,"Duration":865051,"SoundDuration":865051,"Delta":300444382},{"NoteNumber":64,"Velocity":16,"Duration":857843,"SoundDuration":857843,"Delta":300444382},{"NoteNumber":58,"Velocity":31,"Duration":2692009,"SoundDuration":2692009,"Delta":300444382},{"NoteNumber":70,"Velocity":31,"Duration":865051,"SoundDuration":865051,"Delta":300444382},{"NoteNumber":64,"Velocity":18,"Duration":891795,"SoundDuration":891795,"Delta":301309434},{"NoteNumber":70,"Velocity":18,"Duration":891795,"SoundDuration":891795,"Delta":301309434},{"NoteNumber":78,"Velocity":24,"Duration":891795,"SoundDuration":891795,"Delta":301309434},{"NoteNumber":73,"Velocity":21,"Duration":891795,"SoundDuration":891795,"Delta":301309434},{"NoteNumber":61,"Velocity":18,"Duration":884363,"SoundDuration":884363,"Delta":301309434},{"NoteNumber":56,"Velocity":18,"Duration":891795,"SoundDuration":891795,"Delta":301309434},{"NoteNumber":70,"Velocity":21,"Duration":1826957,"SoundDuration":1826957,"Delta":301309434},{"NoteNumber":61,"Velocity":18,"Duration":935161,"SoundDuration":935161,"Delta":302201229},{"NoteNumber":66,"Velocity":20,"Duration":935161,"SoundDuration":935161,"Delta":302201229},{"NoteNumber":75,"Velocity":23,"Duration":935161,"SoundDuration":935161,"Delta":302201229},{"NoteNumber":58,"Velocity":18,"Duration":935161,"SoundDuration":935161,"Delta":302201229},{"NoteNumber":52,"Velocity":18,"Duration":935161,"SoundDuration":935161,"Delta":302201229},{"NoteNumber":64,"Velocity":40,"Duration":2314525,"SoundDuration":2314525,"Delta":302668810},{"NoteNumber":61,"Velocity":21,"Duration":927368,"SoundDuration":927368,"Delta":303136391},{"NoteNumber":73,"Velocity":23,"Duration":927368,"SoundDuration":927368,"Delta":303136391},{"NoteNumber":70,"Velocity":21,"Duration":927368,"SoundDuration":927368,"Delta":303136391},{"NoteNumber":49,"Velocity":21,"Duration":3740648,"SoundDuration":3740648,"Delta":303136391},{"NoteNumber":54,"Velocity":21,"Duration":3740648,"SoundDuration":3740648,"Delta":303136391},{"NoteNumber":58,"Velocity":21,"Duration":3740648,"SoundDuration":3740648,"Delta":303136391},{"NoteNumber":70,"Velocity":30,"Duration":1870324,"SoundDuration":1870324,"Delta":304071553},{"NoteNumber":58,"Velocity":30,"Duration":5610972,"SoundDuration":5610972,"Delta":305006715},{"NoteNumber":22,"Velocity":18,"Duration":11265255,"SoundDuration":11265255,"Delta":305941877},{"NoteNumber":34,"Velocity":18,"Duration":11265255,"SoundDuration":11265255,"Delta":305941877},{"NoteNumber":70,"Velocity":36,"Duration":935161,"SoundDuration":935161,"Delta":305941877},{"NoteNumber":70,"Velocity":21,"Duration":1402742,"SoundDuration":1402742,"Delta":306877039},{"NoteNumber":70,"Velocity":34,"Duration":935161,"SoundDuration":935161,"Delta":308747363},{"NoteNumber":70,"Velocity":21,"Duration":1402742,"SoundDuration":1402742,"Delta":309682525},{"NoteNumber":64,"Velocity":32,"Duration":3740648,"SoundDuration":3740648,"Delta":310617687},{"NoteNumber":70,"Velocity":32,"Duration":935161,"SoundDuration":935161,"Delta":311552849},{"NoteNumber":70,"Velocity":21,"Duration":1402742,"SoundDuration":1402742,"Delta":312488011},{"NoteNumber":63,"Velocity":33,"Duration":1913635,"SoundDuration":1913635,"Delta":314358335},{"NoteNumber":46,"Velocity":18,"Duration":7524607,"SoundDuration":7524607,"Delta":314358335},{"NoteNumber":51,"Velocity":18,"Duration":7524607,"SoundDuration":7524607,"Delta":314358335},{"NoteNumber":56,"Velocity":18,"Duration":7524607,"SoundDuration":7524607,"Delta":314358335},{"NoteNumber":58,"Velocity":18,"Duration":7524607,"SoundDuration":7524607,"Delta":314358335},{"NoteNumber":70,"Velocity":34,"Duration":935161,"SoundDuration":935161,"Delta":314358335},{"NoteNumber":70,"Velocity":21,"Duration":1446054,"SoundDuration":1446054,"Delta":315293497},{"NoteNumber":58,"Velocity":21,"Duration":5583696,"SoundDuration":5583696,"Delta":316271971},{"NoteNumber":22,"Velocity":18,"Duration":7509524,"SoundDuration":7509524,"Delta":317207133},{"NoteNumber":34,"Velocity":18,"Duration":7509524,"SoundDuration":7509524,"Delta":317207133},{"NoteNumber":70,"Velocity":32,"Duration":935161,"SoundDuration":935161,"Delta":317207133},{"NoteNumber":70,"Velocity":20,"Duration":1402742,"SoundDuration":1402742,"Delta":318142295},{"NoteNumber":70,"Velocity":32,"Duration":935162,"SoundDuration":935162,"Delta":320012619},{"NoteNumber":70,"Velocity":20,"Duration":1402742,"SoundDuration":1402742,"Delta":320947781},{"NoteNumber":62,"Velocity":30,"Duration":1898552,"SoundDuration":1898552,"Delta":321882943},{"NoteNumber":44,"Velocity":18,"Duration":7509524,"SoundDuration":7509524,"Delta":321882943},{"NoteNumber":48,"Velocity":18,"Duration":7509524,"SoundDuration":7509524,"Delta":321882943},{"NoteNumber":54,"Velocity":18,"Duration":7509524,"SoundDuration":7509524,"Delta":321882943},{"NoteNumber":70,"Velocity":32,"Duration":1898552,"SoundDuration":1898552,"Delta":322818105},{"NoteNumber":58,"Velocity":21,"Duration":5599282,"SoundDuration":5599282,"Delta":323781496},{"NoteNumber":22,"Velocity":18,"Duration":7481295,"SoundDuration":7481295,"Delta":324716658},{"NoteNumber":34,"Velocity":18,"Duration":7481295,"SoundDuration":7481295,"Delta":324716658},{"NoteNumber":70,"Velocity":32,"Duration":935161,"SoundDuration":935161,"Delta":324716658},{"NoteNumber":70,"Velocity":20,"Duration":1402742,"SoundDuration":1402742,"Delta":325651820},{"NoteNumber":70,"Velocity":31,"Duration":935162,"SoundDuration":935162,"Delta":327522144},{"NoteNumber":70,"Velocity":20,"Duration":1402742,"SoundDuration":1402742,"Delta":328457306},{"NoteNumber":61,"Velocity":27,"Duration":1870323,"SoundDuration":1870323,"Delta":329392468},{"NoteNumber":39,"Velocity":20,"Duration":4675809,"SoundDuration":4675809,"Delta":329392468},{"NoteNumber":46,"Velocity":20,"Duration":4675809,"SoundDuration":4675809,"Delta":329392468},{"NoteNumber":53,"Velocity":26,"Duration":4675809,"SoundDuration":4675809,"Delta":329392468},{"NoteNumber":70,"Velocity":30,"Duration":1870323,"SoundDuration":1870323,"Delta":330327630},{"NoteNumber":58,"Velocity":21,"Duration":5668985,"SoundDuration":5668985,"Delta":331262792},{"NoteNumber":22,"Velocity":19,"Duration":7585107,"SoundDuration":7585107,"Delta":332197954},{"NoteNumber":70,"Velocity":30,"Duration":935161,"SoundDuration":935161,"Delta":332197954},{"NoteNumber":70,"Velocity":19,"Duration":1381059,"SoundDuration":1381059,"Delta":333133116},{"NoteNumber":42,"Velocity":18,"Duration":891795,"SoundDuration":891795,"Delta":334068278},{"NoteNumber":49,"Velocity":22,"Duration":891795,"SoundDuration":891795,"Delta":334068278},{"NoteNumber":35,"Velocity":18,"Duration":891795,"SoundDuration":891795,"Delta":334068278},{"NoteNumber":44,"Velocity":20,"Duration":1444648,"SoundDuration":1444648,"Delta":334960073},{"NoteNumber":37,"Velocity":20,"Duration":1444648,"SoundDuration":1444648,"Delta":334960073},{"NoteNumber":51,"Velocity":26,"Duration":1444648,"SoundDuration":1444648,"Delta":334960073},{"NoteNumber":70,"Velocity":33,"Duration":935161,"SoundDuration":935161,"Delta":334960073},{"NoteNumber":70,"Velocity":21,"Duration":1521691,"SoundDuration":1521691,"Delta":335895235},{"NoteNumber":58,"Velocity":22,"Duration":527055,"SoundDuration":527055,"Delta":336422291},{"NoteNumber":44,"Velocity":18,"Duration":527055,"SoundDuration":527055,"Delta":336422291},{"NoteNumber":47,"Velocity":18,"Duration":527055,"SoundDuration":527055,"Delta":336422291},{"NoteNumber":51,"Velocity":18,"Duration":527055,"SoundDuration":527055,"Delta":336422291},{"NoteNumber":61,"Velocity":25,"Duration":1898552,"SoundDuration":1898552,"Delta":336949346},{"NoteNumber":46,"Velocity":20,"Duration":4786170,"SoundDuration":4786170,"Delta":336949346},{"NoteNumber":53,"Velocity":26,"Duration":4786170,"SoundDuration":4786170,"Delta":336949346},{"NoteNumber":39,"Velocity":20,"Duration":4786170,"SoundDuration":4786170,"Delta":336949346},{"NoteNumber":70,"Velocity":30,"Duration":1898552,"SoundDuration":1898552,"Delta":337884508},{"NoteNumber":58,"Velocity":19,"Duration":5716952,"SoundDuration":5716952,"Delta":338847899},{"NoteNumber":22,"Velocity":18,"Duration":7692353,"SoundDuration":7692353,"Delta":339783061},{"NoteNumber":70,"Velocity":30,"Duration":935161,"SoundDuration":935161,"Delta":339783061},{"NoteNumber":70,"Velocity":19,"Duration":1463191,"SoundDuration":1463191,"Delta":340718223},{"NoteNumber":49,"Velocity":19,"Duration":891795,"SoundDuration":891795,"Delta":341735517},{"NoteNumber":42,"Velocity":15,"Duration":891795,"SoundDuration":891795,"Delta":341735517},{"NoteNumber":35,"Velocity":15,"Duration":891795,"SoundDuration":891795,"Delta":341735517},{"NoteNumber":37,"Velocity":18,"Duration":1416176,"SoundDuration":1416176,"Delta":342627313},{"NoteNumber":51,"Velocity":22,"Duration":1416176,"SoundDuration":1416176,"Delta":342627313},{"NoteNumber":44,"Velocity":18,"Duration":1416176,"SoundDuration":1416176,"Delta":342627313},{"NoteNumber":70,"Velocity":32,"Duration":920245,"SoundDuration":920245,"Delta":342627313},{"NoteNumber":70,"Velocity":21,"Duration":1492579,"SoundDuration":1492579,"Delta":343547558},{"NoteNumber":44,"Velocity":15,"Duration":508646,"SoundDuration":508646,"Delta":344056205},{"NoteNumber":47,"Velocity":15,"Duration":508646,"SoundDuration":508646,"Delta":344056205},{"NoteNumber":58,"Velocity":19,"Duration":508646,"SoundDuration":508646,"Delta":344056205},{"NoteNumber":51,"Velocity":15,"Duration":508646,"SoundDuration":508646,"Delta":344056205},{"NoteNumber":61,"Velocity":21,"Duration":1901140,"SoundDuration":1901140,"Delta":344564852},{"NoteNumber":39,"Velocity":18,"Duration":7948905,"SoundDuration":7948905,"Delta":344564852},{"NoteNumber":46,"Velocity":18,"Duration":7948905,"SoundDuration":7948905,"Delta":344564852},{"NoteNumber":53,"Velocity":22,"Duration":7948905,"SoundDuration":7948905,"Delta":344564852},{"NoteNumber":70,"Velocity":28,"Duration":1959991,"SoundDuration":1959991,"Delta":345515423},{"NoteNumber":58,"Velocity":16,"Duration":6047764,"SoundDuration":6047764,"Delta":346465993},{"NoteNumber":22,"Velocity":18,"Duration":5038343,"SoundDuration":5038343,"Delta":347475415},{"NoteNumber":70,"Velocity":28,"Duration":982640,"SoundDuration":982640,"Delta":347475415},{"NoteNumber":70,"Velocity":18,"Duration":1519504,"SoundDuration":1519504,"Delta":348458055},{"NoteNumber":58,"Velocity":16,"Duration":2499167,"SoundDuration":2499167,"Delta":350514424},{"NoteNumber":70,"Velocity":25,"Duration":999666,"SoundDuration":999666,"Delta":350514424},{"NoteNumber":70,"Velocity":16,"Duration":1499500,"SoundDuration":1499500,"Delta":351514091},{"NoteNumber":70,"Velocity":25,"Duration":2136460,"SoundDuration":2136460,"Delta":353513425},{"NoteNumber":58,"Velocity":15,"Duration":2543234,"SoundDuration":2543234,"Delta":355649886},{"NoteNumber":70,"Velocity":22,"Duration":1017293,"SoundDuration":1017293,"Delta":355649886},{"NoteNumber":70,"Velocity":13,"Duration":1525940,"SoundDuration":1525940,"Delta":356667180},{"NoteNumber":58,"Velocity":14,"Duration":3781512,"SoundDuration":3781512,"Delta":358701768},{"NoteNumber":70,"Velocity":20,"Duration":1260504,"SoundDuration":1260504,"Delta":358701768},{"NoteNumber":70,"Velocity":13,"Duration":2521007,"SoundDuration":2521007,"Delta":359962272}],"license":{"name":"Creative Commons Attribution-ShareAlike 3.0 Germany","url":"http://creativecommons.org/licenses/by-sa/3.0/de/deed.en","text":"The MIDI, audio (MP3, OGG) and video files of Bernd Krueger are licensed under the cc-by-sa Germany License. This means that you can use and adapt the files, as long as you attribute the copyright holder.\n\nName: Bernd Krueger\nSource: http://www.piano-midi.de\n\nThe distribution or public playback of the files is only allowed under identical license conditions.\n\nThe scores are open source.","attribution":"MIDI files by Bernd Krueger (piano-midi.de)","attributionUrl":"http://www.piano-midi.de"}}