{"title":"Ondine","artist":"Ravel","durationMs":350347,"midiSha256":"fd0eb4f13ec47e791b78518ad0fcf02400bb09eee54d213cbf3c187e43cc828b","midiObject":[{"NoteNumber":73,"Velocity":22,"Duration":111669,"SoundDuration":111669,"Delta":0},{"NoteNumber":80,"Velocity":22,"Duration":111669,"SoundDuration":111669,"Delta":6979},{"NoteNumber":77,"Velocity":22,"Duration":111669,"SoundDuration":111669,"Delta":6979},{"NoteNumber":81,"Velocity":27,"Duration":88405,"SoundDuration":88405,"Delta":144240},{"NoteNumber":73,"Velocity":22,"Duration":101939,"SoundDuration":101939,"Delta":279113},{"NoteNumber":77,"Velocity":22,"Duration":101939,"SoundDuration":101939,"Delta":281378},{"NoteNumber":80,"Velocity":22,"Duration":101939,"SoundDuration":101939,"Delta":281378},{"NoteNumber":73,"Velocity":22,"Duration":108734,"SoundDuration":108734,"Delta":417297},{"NoteNumber":77,"Velocity":22,"Duration":108735,"SoundDuration":108735,"Delta":419562},{"NoteNumber":80,"Velocity":22,"Duration":108735,"SoundDuration":108735,"Delta":419562},{"NoteNumber":81,"Velocity":27,"Duration":83877,"SoundDuration":83877,"Delta":555307},{"NoteNumber":80,"Velocity":22,"Duration":99328,"SoundDuration":99328,"Delta":676709},{"NoteNumber":77,"Velocity":22,"Duration":99328,"SoundDuration":99328,"Delta":681123},{"NoteNumber":73,"Velocity":22,"Duration":99328,"SoundDuration":99328,"Delta":683331},{"NoteNumber":73,"Velocity":22,"Duration":105950,"SoundDuration":105950,"Delta":813562},{"NoteNumber":80,"Velocity":22,"Duration":105950,"SoundDuration":105950,"Delta":813562},{"NoteNumber":77,"Velocity":22,"Duration":105950,"SoundDuration":105950,"Delta":817977},{"NoteNumber":81,"Velocity":25,"Duration":83877,"SoundDuration":83877,"Delta":943793},{"NoteNumber":73,"Velocity":22,"Duration":102570,"SoundDuration":102570,"Delta":1074025},{"NoteNumber":77,"Velocity":22,"Duration":102424,"SoundDuration":102424,"Delta":1080573},{"NoteNumber":80,"Velocity":22,"Duration":102424,"SoundDuration":102424,"Delta":1082707},{"NoteNumber":81,"Velocity":27,"Duration":81085,"SoundDuration":81085,"Delta":1202202},{"NoteNumber":73,"Velocity":22,"Duration":96022,"SoundDuration":96022,"Delta":1330232},{"NoteNumber":77,"Velocity":22,"Duration":96022,"SoundDuration":96022,"Delta":1334499},{"NoteNumber":80,"Velocity":22,"Duration":96022,"SoundDuration":96022,"Delta":1338767},{"NoteNumber":77,"Velocity":22,"Duration":102424,"SoundDuration":102424,"Delta":1458262},{"NoteNumber":80,"Velocity":22,"Duration":102424,"SoundDuration":102424,"Delta":1458262},{"NoteNumber":73,"Velocity":22,"Duration":102424,"SoundDuration":102424,"Delta":1466797},{"NoteNumber":81,"Velocity":25,"Duration":81085,"SoundDuration":81085,"Delta":1586292},{"NoteNumber":77,"Velocity":18,"Duration":96022,"SoundDuration":96022,"Delta":1714322},{"NoteNumber":73,"Velocity":18,"Duration":96022,"SoundDuration":96022,"Delta":1718589},{"NoteNumber":80,"Velocity":18,"Duration":96022,"SoundDuration":96022,"Delta":1724991},{"NoteNumber":77,"Velocity":18,"Duration":102423,"SoundDuration":102423,"Delta":1842352},{"NoteNumber":73,"Velocity":18,"Duration":102424,"SoundDuration":102424,"Delta":1848753},{"NoteNumber":80,"Velocity":18,"Duration":102424,"SoundDuration":102424,"Delta":1853021},{"NoteNumber":81,"Velocity":25,"Duration":81085,"SoundDuration":81085,"Delta":1976783},{"NoteNumber":77,"Velocity":22,"Duration":102424,"SoundDuration":102424,"Delta":2098412},{"NoteNumber":80,"Velocity":22,"Duration":102423,"SoundDuration":102423,"Delta":2100545},{"NoteNumber":73,"Velocity":22,"Duration":102424,"SoundDuration":102424,"Delta":2102679},{"NoteNumber":81,"Velocity":25,"Duration":81085,"SoundDuration":81085,"Delta":2230709},{"NoteNumber":80,"Velocity":22,"Duration":96022,"SoundDuration":96022,"Delta":2354472},{"NoteNumber":73,"Velocity":22,"Duration":96022,"SoundDuration":96022,"Delta":2360873},{"NoteNumber":77,"Velocity":22,"Duration":96022,"SoundDuration":96022,"Delta":2363007},{"NoteNumber":77,"Velocity":22,"Duration":102424,"SoundDuration":102424,"Delta":2482502},{"NoteNumber":80,"Velocity":22,"Duration":102424,"SoundDuration":102424,"Delta":2488903},{"NoteNumber":73,"Velocity":22,"Duration":102424,"SoundDuration":102424,"Delta":2491037},{"NoteNumber":81,"Velocity":25,"Duration":81085,"SoundDuration":81085,"Delta":2616933},{"NoteNumber":80,"Velocity":22,"Duration":96022,"SoundDuration":96022,"Delta":2740695},{"NoteNumber":77,"Velocity":22,"Duration":96022,"SoundDuration":96022,"Delta":2742829},{"NoteNumber":73,"Velocity":22,"Duration":96022,"SoundDuration":96022,"Delta":2749231},{"NoteNumber":73,"Velocity":22,"Duration":102424,"SoundDuration":102424,"Delta":2868725},{"NoteNumber":80,"Velocity":22,"Duration":102424,"SoundDuration":102424,"Delta":2870859},{"NoteNumber":77,"Velocity":22,"Duration":102423,"SoundDuration":102423,"Delta":2875127},{"NoteNumber":81,"Velocity":25,"Duration":102424,"SoundDuration":102424,"Delta":2998889},{"NoteNumber":77,"Velocity":22,"Duration":102424,"SoundDuration":102424,"Delta":3122652},{"NoteNumber":73,"Velocity":22,"Duration":102424,"SoundDuration":102424,"Delta":3129053},{"NoteNumber":80,"Velocity":22,"Duration":102423,"SoundDuration":102423,"Delta":3133321},{"NoteNumber":81,"Velocity":25,"Duration":81085,"SoundDuration":81085,"Delta":3259217},{"NoteNumber":73,"Velocity":18,"Duration":96022,"SoundDuration":96022,"Delta":3378712},{"NoteNumber":77,"Velocity":18,"Duration":96022,"SoundDuration":96022,"Delta":3382979},{"NoteNumber":80,"Velocity":18,"Duration":96022,"SoundDuration":96022,"Delta":3387247},{"NoteNumber":80,"Velocity":18,"Duration":102423,"SoundDuration":102423,"Delta":3513143},{"NoteNumber":77,"Velocity":18,"Duration":102423,"SoundDuration":102423,"Delta":3515277},{"NoteNumber":73,"Velocity":18,"Duration":102424,"SoundDuration":102424,"Delta":3517411},{"NoteNumber":81,"Velocity":23,"Duration":81085,"SoundDuration":81085,"Delta":3641173},{"NoteNumber":80,"Velocity":18,"Duration":96022,"SoundDuration":96022,"Delta":3764935},{"NoteNumber":77,"Velocity":18,"Duration":96022,"SoundDuration":96022,"Delta":3771337},{"NoteNumber":73,"Velocity":18,"Duration":96022,"SoundDuration":96022,"Delta":3773471},{"NoteNumber":77,"Velocity":18,"Duration":102424,"SoundDuration":102424,"Delta":3892965},{"NoteNumber":73,"Velocity":18,"Duration":102424,"SoundDuration":102424,"Delta":3897233},{"NoteNumber":80,"Velocity":18,"Duration":102424,"SoundDuration":102424,"Delta":3897233},{"NoteNumber":81,"Velocity":22,"Duration":81085,"SoundDuration":81085,"Delta":4027397},{"NoteNumber":73,"Velocity":20,"Duration":102424,"SoundDuration":102424,"Delta":4149025},{"NoteNumber":80,"Velocity":20,"Duration":102424,"SoundDuration":102424,"Delta":4151159},{"NoteNumber":77,"Velocity":20,"Duration":102423,"SoundDuration":102423,"Delta":4153293},{"NoteNumber":81,"Velocity":23,"Duration":81085,"SoundDuration":81085,"Delta":4285591},{"NoteNumber":80,"Velocity":18,"Duration":96022,"SoundDuration":96022,"Delta":4409353},{"NoteNumber":73,"Velocity":18,"Duration":96022,"SoundDuration":96022,"Delta":4411487},{"NoteNumber":77,"Velocity":18,"Duration":96022,"SoundDuration":96022,"Delta":4411487},{"NoteNumber":73,"Velocity":18,"Duration":102424,"SoundDuration":102424,"Delta":4535249},{"NoteNumber":77,"Velocity":18,"Duration":102424,"SoundDuration":102424,"Delta":4539517},{"NoteNumber":80,"Velocity":18,"Duration":102424,"SoundDuration":102424,"Delta":4539517},{"NoteNumber":81,"Velocity":23,"Duration":81085,"SoundDuration":81085,"Delta":4669681},{"NoteNumber":73,"Velocity":18,"Duration":96022,"SoundDuration":96022,"Delta":4789175},{"NoteNumber":77,"Velocity":18,"Duration":96022,"SoundDuration":96022,"Delta":4793443},{"NoteNumber":80,"Velocity":18,"Duration":96022,"SoundDuration":96022,"Delta":4797711},{"NoteNumber":73,"Velocity":18,"Duration":102424,"SoundDuration":102424,"Delta":4921473},{"NoteNumber":80,"Velocity":18,"Duration":102424,"SoundDuration":102424,"Delta":4921473},{"NoteNumber":77,"Velocity":18,"Duration":102424,"SoundDuration":102424,"Delta":4925741},{"NoteNumber":81,"Velocity":22,"Duration":81085,"SoundDuration":81085,"Delta":5047369},{"NoteNumber":73,"Velocity":18,"Duration":102424,"SoundDuration":102424,"Delta":5175399},{"NoteNumber":77,"Velocity":18,"Duration":102424,"SoundDuration":102424,"Delta":5181801},{"NoteNumber":80,"Velocity":18,"Duration":102424,"SoundDuration":102424,"Delta":5181801},{"NoteNumber":81,"Velocity":23,"Duration":81085,"SoundDuration":81085,"Delta":5301295},{"NoteNumber":73,"Velocity":18,"Duration":96022,"SoundDuration":96022,"Delta":5429325},{"NoteNumber":77,"Velocity":18,"Duration":96022,"SoundDuration":96022,"Delta":5429325},{"NoteNumber":80,"Velocity":18,"Duration":96022,"SoundDuration":96022,"Delta":5435727},{"NoteNumber":80,"Velocity":18,"Duration":102424,"SoundDuration":102424,"Delta":5555222},{"NoteNumber":77,"Velocity":18,"Duration":102424,"SoundDuration":102424,"Delta":5561623},{"NoteNumber":73,"Velocity":18,"Duration":102424,"SoundDuration":102424,"Delta":5565891},{"NoteNumber":81,"Velocity":23,"Duration":81085,"SoundDuration":81085,"Delta":5689653},{"NoteNumber":73,"Velocity":18,"Duration":96022,"SoundDuration":96022,"Delta":5811282},{"NoteNumber":77,"Velocity":18,"Duration":96022,"SoundDuration":96022,"Delta":5817683},{"NoteNumber":80,"Velocity":18,"Duration":96022,"SoundDuration":96022,"Delta":5817683},{"NoteNumber":77,"Velocity":18,"Duration":102423,"SoundDuration":102423,"Delta":5939312},{"NoteNumber":73,"Velocity":18,"Duration":102423,"SoundDuration":102423,"Delta":5943579},{"NoteNumber":80,"Velocity":18,"Duration":102423,"SoundDuration":102423,"Delta":5949981},{"NoteNumber":81,"Velocity":23,"Duration":81085,"SoundDuration":81085,"Delta":6067342},{"NoteNumber":77,"Velocity":22,"Duration":104529,"SoundDuration":104529,"Delta":6195372},{"NoteNumber":80,"Velocity":22,"Duration":104574,"SoundDuration":104574,"Delta":6197505},{"NoteNumber":75,"Velocity":56,"Duration":1089798,"SoundDuration":1089798,"Delta":6199639},{"NoteNumber":73,"Velocity":22,"Duration":104620,"SoundDuration":104620,"Delta":6201819},{"NoteNumber":81,"Velocity":25,"Duration":82824,"SoundDuration":82824,"Delta":6332595},{"NoteNumber":73,"Velocity":22,"Duration":98081,"SoundDuration":98081,"Delta":6459011},{"NoteNumber":77,"Velocity":22,"Duration":98081,"SoundDuration":98081,"Delta":6459011},{"NoteNumber":80,"Velocity":22,"Duration":98081,"SoundDuration":98081,"Delta":6463371},{"NoteNumber":80,"Velocity":22,"Duration":104620,"SoundDuration":104620,"Delta":6589787},{"NoteNumber":73,"Velocity":22,"Duration":104620,"SoundDuration":104620,"Delta":6591967},{"NoteNumber":77,"Velocity":22,"Duration":104620,"SoundDuration":104620,"Delta":6591967},{"NoteNumber":81,"Velocity":23,"Duration":82824,"SoundDuration":82824,"Delta":6727102},{"NoteNumber":73,"Velocity":18,"Duration":98081,"SoundDuration":98081,"Delta":6849159},{"NoteNumber":77,"Velocity":18,"Duration":98081,"SoundDuration":98081,"Delta":6853519},{"NoteNumber":80,"Velocity":18,"Duration":98081,"SoundDuration":98081,"Delta":6855698},{"NoteNumber":80,"Velocity":18,"Duration":104620,"SoundDuration":104620,"Delta":6979935},{"NoteNumber":77,"Velocity":18,"Duration":104620,"SoundDuration":104620,"Delta":6984295},{"NoteNumber":73,"Velocity":18,"Duration":104620,"SoundDuration":104620,"Delta":6988654},{"NoteNumber":81,"Velocity":23,"Duration":82824,"SoundDuration":82824,"Delta":7115070},{"NoteNumber":77,"Velocity":18,"Duration":104620,"SoundDuration":104620,"Delta":7241487},{"NoteNumber":73,"Velocity":18,"Duration":104620,"SoundDuration":104620,"Delta":7245846},{"NoteNumber":71,"Velocity":46,"Duration":1569310,"SoundDuration":1569310,"Delta":7245846},{"NoteNumber":80,"Velocity":18,"Duration":104620,"SoundDuration":104620,"Delta":7250205},{"NoteNumber":81,"Velocity":23,"Duration":82824,"SoundDuration":82824,"Delta":7380981},{"NoteNumber":77,"Velocity":18,"Duration":98081,"SoundDuration":98081,"Delta":7509578},{"NoteNumber":80,"Velocity":18,"Duration":98081,"SoundDuration":98081,"Delta":7509578},{"NoteNumber":73,"Velocity":18,"Duration":98081,"SoundDuration":98081,"Delta":7513937},{"NoteNumber":73,"Velocity":18,"Duration":104620,"SoundDuration":104620,"Delta":7640353},{"NoteNumber":77,"Velocity":18,"Duration":104620,"SoundDuration":104620,"Delta":7642533},{"NoteNumber":80,"Velocity":18,"Duration":104620,"SoundDuration":104620,"Delta":7642533},{"NoteNumber":81,"Velocity":22,"Duration":82824,"SoundDuration":82824,"Delta":7775489},{"NoteNumber":80,"Velocity":17,"Duration":98081,"SoundDuration":98081,"Delta":7895366},{"NoteNumber":73,"Velocity":17,"Duration":98081,"SoundDuration":98081,"Delta":7899726},{"NoteNumber":77,"Velocity":17,"Duration":98081,"SoundDuration":98081,"Delta":7899726},{"NoteNumber":80,"Velocity":17,"Duration":104620,"SoundDuration":104620,"Delta":8030502},{"NoteNumber":77,"Velocity":17,"Duration":104620,"SoundDuration":104620,"Delta":8034861},{"NoteNumber":73,"Velocity":17,"Duration":104620,"SoundDuration":104620,"Delta":8037040},{"NoteNumber":81,"Velocity":22,"Duration":82824,"SoundDuration":82824,"Delta":8156918},{"NoteNumber":80,"Velocity":18,"Duration":104620,"SoundDuration":104620,"Delta":8287694},{"NoteNumber":77,"Velocity":18,"Duration":104620,"SoundDuration":104620,"Delta":8296412},{"NoteNumber":73,"Velocity":18,"Duration":104620,"SoundDuration":104620,"Delta":8298592},{"NoteNumber":81,"Velocity":23,"Duration":82824,"SoundDuration":82824,"Delta":8422829},{"NoteNumber":77,"Velocity":18,"Duration":98081,"SoundDuration":98081,"Delta":8549246},{"NoteNumber":80,"Velocity":18,"Duration":98081,"SoundDuration":98081,"Delta":8549246},{"NoteNumber":73,"Velocity":18,"Duration":98081,"SoundDuration":98081,"Delta":8560144},{"NoteNumber":77,"Velocity":18,"Duration":104620,"SoundDuration":104620,"Delta":8680022},{"NoteNumber":73,"Velocity":18,"Duration":104620,"SoundDuration":104620,"Delta":8682201},{"NoteNumber":80,"Velocity":18,"Duration":104620,"SoundDuration":104620,"Delta":8686560},{"NoteNumber":81,"Velocity":23,"Duration":79147,"SoundDuration":79147,"Delta":8810798},{"NoteNumber":68,"Velocity":46,"Duration":519940,"SoundDuration":519940,"Delta":8815157},{"NoteNumber":73,"Velocity":18,"Duration":93485,"SoundDuration":93485,"Delta":8941881},{"NoteNumber":77,"Velocity":18,"Duration":93485,"SoundDuration":93485,"Delta":8941881},{"NoteNumber":80,"Velocity":18,"Duration":93485,"SoundDuration":93485,"Delta":8943959},{"NoteNumber":73,"Velocity":18,"Duration":99717,"SoundDuration":99717,"Delta":9068605},{"NoteNumber":80,"Velocity":18,"Duration":99717,"SoundDuration":99717,"Delta":9068605},{"NoteNumber":77,"Velocity":18,"Duration":99717,"SoundDuration":99717,"Delta":9070683},{"NoteNumber":81,"Velocity":23,"Duration":78943,"SoundDuration":78943,"Delta":9187020},{"NoteNumber":73,"Velocity":17,"Duration":102494,"SoundDuration":102494,"Delta":9313744},{"NoteNumber":80,"Velocity":17,"Duration":102494,"SoundDuration":102494,"Delta":9313744},{"NoteNumber":71,"Velocity":53,"Duration":533822,"SoundDuration":533822,"Delta":9313744},{"NoteNumber":77,"Velocity":17,"Duration":102494,"SoundDuration":102494,"Delta":9318015},{"NoteNumber":81,"Velocity":22,"Duration":81141,"SoundDuration":81141,"Delta":9448268},{"NoteNumber":80,"Velocity":17,"Duration":96088,"SoundDuration":96088,"Delta":9567844},{"NoteNumber":77,"Velocity":17,"Duration":96088,"SoundDuration":96088,"Delta":9574250},{"NoteNumber":77,"Velocity":18,"Duration":102494,"SoundDuration":102494,"Delta":9695961},{"NoteNumber":80,"Velocity":18,"Duration":102494,"SoundDuration":102494,"Delta":9698097},{"NoteNumber":81,"Velocity":23,"Duration":81141,"SoundDuration":81141,"Delta":9824079},{"NoteNumber":73,"Velocity":56,"Duration":559436,"SoundDuration":559436,"Delta":9826214},{"NoteNumber":80,"Velocity":18,"Duration":96088,"SoundDuration":96088,"Delta":9952196},{"NoteNumber":77,"Velocity":18,"Duration":96088,"SoundDuration":96088,"Delta":9956467},{"NoteNumber":80,"Velocity":18,"Duration":104676,"SoundDuration":104676,"Delta":10080314},{"NoteNumber":77,"Velocity":18,"Duration":105924,"SoundDuration":105924,"Delta":10088855},{"NoteNumber":81,"Velocity":23,"Duration":92991,"SoundDuration":92991,"Delta":10216804},{"NoteNumber":77,"Velocity":18,"Duration":106180,"SoundDuration":106180,"Delta":10358738},{"NoteNumber":73,"Velocity":18,"Duration":105934,"SoundDuration":105934,"Delta":10361185},{"NoteNumber":80,"Velocity":18,"Duration":105934,"SoundDuration":105934,"Delta":10361185},{"NoteNumber":75,"Velocity":56,"Duration":1054316,"SoundDuration":1054316,"Delta":10363632},{"NoteNumber":81,"Velocity":23,"Duration":83670,"SoundDuration":83670,"Delta":10491341},{"NoteNumber":73,"Velocity":18,"Duration":99083,"SoundDuration":99083,"Delta":10632260},{"NoteNumber":77,"Velocity":18,"Duration":99083,"SoundDuration":99083,"Delta":10632260},{"NoteNumber":80,"Velocity":18,"Duration":99083,"SoundDuration":99083,"Delta":10634462},{"NoteNumber":73,"Velocity":18,"Duration":105689,"SoundDuration":105689,"Delta":10755565},{"NoteNumber":77,"Velocity":18,"Duration":105689,"SoundDuration":105689,"Delta":10759968},{"NoteNumber":80,"Velocity":18,"Duration":105689,"SoundDuration":105689,"Delta":10759968},{"NoteNumber":81,"Velocity":23,"Duration":83670,"SoundDuration":83670,"Delta":10896484},{"NoteNumber":73,"Velocity":18,"Duration":99083,"SoundDuration":99083,"Delta":11024192},{"NoteNumber":77,"Velocity":18,"Duration":99083,"SoundDuration":99083,"Delta":11024192},{"NoteNumber":80,"Velocity":18,"Duration":99083,"SoundDuration":99083,"Delta":11028596},{"NoteNumber":80,"Velocity":18,"Duration":105555,"SoundDuration":105555,"Delta":11151901},{"NoteNumber":73,"Velocity":18,"Duration":105533,"SoundDuration":105533,"Delta":11154102},{"NoteNumber":77,"Velocity":18,"Duration":105489,"SoundDuration":105489,"Delta":11158506},{"NoteNumber":81,"Velocity":23,"Duration":82405,"SoundDuration":82405,"Delta":11294510},{"NoteNumber":80,"Velocity":18,"Duration":103662,"SoundDuration":103662,"Delta":11413629},{"NoteNumber":71,"Velocity":52,"Duration":1554942,"SoundDuration":1554942,"Delta":11417949},{"NoteNumber":73,"Velocity":18,"Duration":103662,"SoundDuration":103662,"Delta":11424427},{"NoteNumber":77,"Velocity":18,"Duration":103662,"SoundDuration":103662,"Delta":11424427},{"NoteNumber":81,"Velocity":23,"Duration":82066,"SoundDuration":82066,"Delta":11547527},{"NoteNumber":73,"Velocity":18,"Duration":97183,"SoundDuration":97183,"Delta":11679265},{"NoteNumber":77,"Velocity":18,"Duration":97183,"SoundDuration":97183,"Delta":11681425},{"NoteNumber":80,"Velocity":18,"Duration":97183,"SoundDuration":97183,"Delta":11681425},{"NoteNumber":73,"Velocity":18,"Duration":103662,"SoundDuration":103662,"Delta":11804524},{"NoteNumber":80,"Velocity":18,"Duration":103662,"SoundDuration":103662,"Delta":11811003},{"NoteNumber":77,"Velocity":18,"Duration":103662,"SoundDuration":103662,"Delta":11813163},{"NoteNumber":81,"Velocity":23,"Duration":82066,"SoundDuration":82066,"Delta":11934103},{"NoteNumber":77,"Velocity":17,"Duration":97183,"SoundDuration":97183,"Delta":12061522},{"NoteNumber":73,"Velocity":17,"Duration":97183,"SoundDuration":97183,"Delta":12068001},{"NoteNumber":80,"Velocity":17,"Duration":97183,"SoundDuration":97183,"Delta":12068001},{"NoteNumber":80,"Velocity":17,"Duration":103662,"SoundDuration":103662,"Delta":12191100},{"NoteNumber":73,"Velocity":17,"Duration":103662,"SoundDuration":103662,"Delta":12199739},{"NoteNumber":77,"Velocity":17,"Duration":103662,"SoundDuration":103662,"Delta":12199739},{"NoteNumber":81,"Velocity":22,"Duration":103662,"SoundDuration":103662,"Delta":12329317},{"NoteNumber":73,"Velocity":16,"Duration":103662,"SoundDuration":103662,"Delta":12456736},{"NoteNumber":77,"Velocity":16,"Duration":103662,"SoundDuration":103662,"Delta":12461055},{"NoteNumber":80,"Velocity":16,"Duration":103662,"SoundDuration":103662,"Delta":12461055},{"NoteNumber":81,"Velocity":22,"Duration":82066,"SoundDuration":82066,"Delta":12588474},{"NoteNumber":73,"Velocity":16,"Duration":97183,"SoundDuration":97183,"Delta":12711574},{"NoteNumber":77,"Velocity":16,"Duration":97183,"SoundDuration":97183,"Delta":12713734},{"NoteNumber":80,"Velocity":16,"Duration":97183,"SoundDuration":97183,"Delta":12713734},{"NoteNumber":73,"Velocity":16,"Duration":103662,"SoundDuration":103662,"Delta":12838993},{"NoteNumber":80,"Velocity":16,"Duration":103662,"SoundDuration":103662,"Delta":12838993},{"NoteNumber":77,"Velocity":16,"Duration":103662,"SoundDuration":103662,"Delta":12845472},{"NoteNumber":68,"Velocity":52,"Duration":523341,"SoundDuration":523341,"Delta":12972891},{"NoteNumber":81,"Velocity":22,"Duration":79604,"SoundDuration":79604,"Delta":12977080},{"NoteNumber":80,"Velocity":17,"Duration":94268,"SoundDuration":94268,"Delta":13094392},{"NoteNumber":77,"Velocity":17,"Duration":94268,"SoundDuration":94268,"Delta":13096487},{"NoteNumber":73,"Velocity":17,"Duration":94268,"SoundDuration":94268,"Delta":13102771},{"NoteNumber":73,"Velocity":17,"Duration":100552,"SoundDuration":100552,"Delta":13220083},{"NoteNumber":80,"Velocity":17,"Duration":100552,"SoundDuration":100552,"Delta":13220083},{"NoteNumber":77,"Velocity":17,"Duration":100552,"SoundDuration":100552,"Delta":13228463},{"NoteNumber":81,"Velocity":23,"Duration":79604,"SoundDuration":79604,"Delta":13349964},{"NoteNumber":80,"Velocity":18,"Duration":98765,"SoundDuration":98765,"Delta":13475656},{"NoteNumber":71,"Velocity":53,"Duration":515209,"SoundDuration":515209,"Delta":13475656},{"NoteNumber":73,"Velocity":18,"Duration":98765,"SoundDuration":98765,"Delta":13479771},{"NoteNumber":77,"Velocity":18,"Duration":98765,"SoundDuration":98765,"Delta":13479771},{"NoteNumber":81,"Velocity":23,"Duration":78189,"SoundDuration":78189,"Delta":13605285},{"NoteNumber":80,"Velocity":18,"Duration":92592,"SoundDuration":92592,"Delta":13720511},{"NoteNumber":77,"Velocity":18,"Duration":92592,"SoundDuration":92592,"Delta":13724627},{"NoteNumber":77,"Velocity":18,"Duration":98765,"SoundDuration":98765,"Delta":13846026},{"NoteNumber":80,"Velocity":18,"Duration":98765,"SoundDuration":98765,"Delta":13852199},{"NoteNumber":81,"Velocity":23,"Duration":81090,"SoundDuration":81090,"Delta":13965367},{"NoteNumber":73,"Velocity":53,"Duration":533747,"SoundDuration":533747,"Delta":13969483},{"NoteNumber":77,"Velocity":18,"Duration":96219,"SoundDuration":96219,"Delta":14093499},{"NoteNumber":80,"Velocity":18,"Duration":96219,"SoundDuration":96219,"Delta":14093499},{"NoteNumber":77,"Velocity":22,"Duration":102634,"SoundDuration":102634,"Delta":14221792},{"NoteNumber":80,"Velocity":22,"Duration":102634,"SoundDuration":102634,"Delta":14232483},{"NoteNumber":81,"Velocity":25,"Duration":81252,"SoundDuration":81252,"Delta":14352223},{"NoteNumber":80,"Velocity":18,"Duration":98926,"SoundDuration":98926,"Delta":14478378},{"NoteNumber":73,"Velocity":18,"Duration":98765,"SoundDuration":98765,"Delta":14482654},{"NoteNumber":75,"Velocity":56,"Duration":493451,"SoundDuration":493451,"Delta":14482654},{"NoteNumber":77,"Velocity":18,"Duration":98765,"SoundDuration":98765,"Delta":14486769},{"NoteNumber":81,"Velocity":23,"Duration":78189,"SoundDuration":78189,"Delta":14610226},{"NoteNumber":73,"Velocity":18,"Duration":92592,"SoundDuration":92592,"Delta":14727510},{"NoteNumber":80,"Velocity":18,"Duration":92592,"SoundDuration":92592,"Delta":14727510},{"NoteNumber":77,"Velocity":18,"Duration":92592,"SoundDuration":92592,"Delta":14735740},{"NoteNumber":73,"Velocity":22,"Duration":98633,"SoundDuration":98633,"Delta":14850967},{"NoteNumber":77,"Velocity":22,"Duration":98633,"SoundDuration":98633,"Delta":14850967},{"NoteNumber":80,"Velocity":22,"Duration":98633,"SoundDuration":98633,"Delta":14850967},{"NoteNumber":73,"Velocity":53,"Duration":497804,"SoundDuration":497804,"Delta":14976105},{"NoteNumber":81,"Velocity":25,"Duration":77493,"SoundDuration":77493,"Delta":14982222},{"NoteNumber":73,"Velocity":22,"Duration":92751,"SoundDuration":92751,"Delta":15104983},{"NoteNumber":77,"Velocity":22,"Duration":92751,"SoundDuration":92751,"Delta":15104983},{"NoteNumber":80,"Velocity":22,"Duration":92751,"SoundDuration":92751,"Delta":15104983},{"NoteNumber":77,"Velocity":22,"Duration":99832,"SoundDuration":99832,"Delta":15218509},{"NoteNumber":80,"Velocity":22,"Duration":99851,"SoundDuration":99851,"Delta":15220586},{"NoteNumber":73,"Velocity":22,"Duration":99889,"SoundDuration":99889,"Delta":15224741},{"NoteNumber":81,"Velocity":27,"Duration":79671,"SoundDuration":79671,"Delta":15345597},{"NoteNumber":73,"Velocity":25,"Duration":96961,"SoundDuration":96961,"Delta":15473910},{"NoteNumber":77,"Velocity":25,"Duration":96961,"SoundDuration":96961,"Delta":15473910},{"NoteNumber":80,"Velocity":61,"Duration":506828,"SoundDuration":506828,"Delta":15473910},{"NoteNumber":81,"Velocity":30,"Duration":76761,"SoundDuration":76761,"Delta":15593092},{"NoteNumber":81,"Velocity":30,"Duration":76761,"SoundDuration":76761,"Delta":15722374},{"NoteNumber":73,"Velocity":25,"Duration":96961,"SoundDuration":96961,"Delta":15839537},{"NoteNumber":77,"Velocity":56,"Duration":561688,"SoundDuration":561688,"Delta":15958719},{"NoteNumber":81,"Velocity":33,"Duration":83670,"SoundDuration":83670,"Delta":15960921},{"NoteNumber":80,"Velocity":25,"Duration":99084,"SoundDuration":99084,"Delta":16093033},{"NoteNumber":73,"Velocity":25,"Duration":99084,"SoundDuration":99084,"Delta":16097437},{"NoteNumber":73,"Velocity":25,"Duration":107092,"SoundDuration":107092,"Delta":16227347},{"NoteNumber":80,"Velocity":25,"Duration":107232,"SoundDuration":107232,"Delta":16229549},{"NoteNumber":81,"Velocity":28,"Duration":89001,"SoundDuration":89001,"Delta":16364887},{"NoteNumber":80,"Velocity":23,"Duration":105970,"SoundDuration":105970,"Delta":16493705},{"NoteNumber":72,"Velocity":50,"Duration":1057342,"SoundDuration":1057342,"Delta":16498389},{"NoteNumber":73,"Velocity":23,"Duration":105689,"SoundDuration":105689,"Delta":16504995},{"NoteNumber":77,"Velocity":23,"Duration":105689,"SoundDuration":105689,"Delta":16504995},{"NoteNumber":81,"Velocity":28,"Duration":83670,"SoundDuration":83670,"Delta":16630501},{"NoteNumber":81,"Velocity":27,"Duration":83670,"SoundDuration":83670,"Delta":16760411},{"NoteNumber":73,"Velocity":22,"Duration":105689,"SoundDuration":105689,"Delta":16892523},{"NoteNumber":80,"Velocity":22,"Duration":105689,"SoundDuration":105689,"Delta":16899129},{"NoteNumber":77,"Velocity":22,"Duration":105689,"SoundDuration":105689,"Delta":16901331},{"NoteNumber":81,"Velocity":25,"Duration":83670,"SoundDuration":83670,"Delta":17031241},{"NoteNumber":73,"Velocity":18,"Duration":99084,"SoundDuration":99084,"Delta":17154545},{"NoteNumber":77,"Velocity":18,"Duration":99084,"SoundDuration":99084,"Delta":17161151},{"NoteNumber":80,"Velocity":18,"Duration":99084,"SoundDuration":99084,"Delta":17163353},{"NoteNumber":80,"Velocity":18,"Duration":105689,"SoundDuration":105689,"Delta":17286657},{"NoteNumber":73,"Velocity":18,"Duration":105689,"SoundDuration":105689,"Delta":17295465},{"NoteNumber":77,"Velocity":18,"Duration":105689,"SoundDuration":105689,"Delta":17295465},{"NoteNumber":81,"Velocity":23,"Duration":83670,"SoundDuration":83670,"Delta":17427577},{"NoteNumber":73,"Velocity":22,"Duration":101643,"SoundDuration":101643,"Delta":17555732},{"NoteNumber":70,"Velocity":46,"Duration":529985,"SoundDuration":529985,"Delta":17555732},{"NoteNumber":77,"Velocity":22,"Duration":101643,"SoundDuration":101643,"Delta":17557849},{"NoteNumber":80,"Velocity":22,"Duration":101643,"SoundDuration":101643,"Delta":17562084},{"NoteNumber":82,"Velocity":23,"Duration":80467,"SoundDuration":80467,"Delta":17689138},{"NoteNumber":82,"Velocity":23,"Duration":80467,"SoundDuration":80467,"Delta":17805604},{"NoteNumber":80,"Velocity":18,"Duration":101643,"SoundDuration":101643,"Delta":17932658},{"NoteNumber":77,"Velocity":18,"Duration":101643,"SoundDuration":101643,"Delta":17936894},{"NoteNumber":73,"Velocity":18,"Duration":101643,"SoundDuration":101643,"Delta":17941129},{"NoteNumber":82,"Velocity":23,"Duration":83088,"SoundDuration":83088,"Delta":18061830},{"NoteNumber":68,"Velocity":45,"Duration":571253,"SoundDuration":571253,"Delta":18063948},{"NoteNumber":77,"Velocity":18,"Duration":99083,"SoundDuration":99083,"Delta":18191157},{"NoteNumber":73,"Velocity":18,"Duration":99083,"SoundDuration":99083,"Delta":18195561},{"NoteNumber":80,"Velocity":18,"Duration":99083,"SoundDuration":99083,"Delta":18202167},{"NoteNumber":77,"Velocity":18,"Duration":107054,"SoundDuration":107054,"Delta":18325471},{"NoteNumber":73,"Velocity":18,"Duration":107599,"SoundDuration":107599,"Delta":18329875},{"NoteNumber":80,"Velocity":18,"Duration":107872,"SoundDuration":107872,"Delta":18332077},{"NoteNumber":82,"Velocity":23,"Duration":94040,"SoundDuration":94040,"Delta":18472121},{"NoteNumber":77,"Velocity":18,"Duration":106235,"SoundDuration":106235,"Delta":18608233},{"NoteNumber":74,"Velocity":18,"Duration":105962,"SoundDuration":105962,"Delta":18610708},{"NoteNumber":72,"Velocity":45,"Duration":2591772,"SoundDuration":2591772,"Delta":18613183},{"NoteNumber":80,"Velocity":18,"Duration":105689,"SoundDuration":105689,"Delta":18617586},{"NoteNumber":82,"Velocity":23,"Duration":83670,"SoundDuration":83670,"Delta":18743093},{"NoteNumber":82,"Velocity":23,"Duration":83670,"SoundDuration":83670,"Delta":18879609},{"NoteNumber":80,"Velocity":18,"Duration":105689,"SoundDuration":105689,"Delta":19007317},{"NoteNumber":74,"Velocity":18,"Duration":105689,"SoundDuration":105689,"Delta":19013922},{"NoteNumber":77,"Velocity":18,"Duration":105689,"SoundDuration":105689,"Delta":19016124},{"NoteNumber":82,"Velocity":23,"Duration":83670,"SoundDuration":83670,"Delta":19143833},{"NoteNumber":80,"Velocity":18,"Duration":99084,"SoundDuration":99084,"Delta":19275945},{"NoteNumber":74,"Velocity":18,"Duration":99083,"SoundDuration":99083,"Delta":19280348},{"NoteNumber":77,"Velocity":18,"Duration":99083,"SoundDuration":99083,"Delta":19280348},{"NoteNumber":74,"Velocity":18,"Duration":105689,"SoundDuration":105689,"Delta":19403653},{"NoteNumber":80,"Velocity":18,"Duration":105689,"SoundDuration":105689,"Delta":19405855},{"NoteNumber":77,"Velocity":18,"Duration":105689,"SoundDuration":105689,"Delta":19410258},{"NoteNumber":82,"Velocity":23,"Duration":82066,"SoundDuration":82066,"Delta":19537967},{"NoteNumber":74,"Velocity":22,"Duration":102542,"SoundDuration":102542,"Delta":19663226},{"NoteNumber":80,"Velocity":22,"Duration":102494,"SoundDuration":102494,"Delta":19667545},{"NoteNumber":77,"Velocity":22,"Duration":102494,"SoundDuration":102494,"Delta":19669680},{"NoteNumber":82,"Velocity":25,"Duration":81141,"SoundDuration":81141,"Delta":19791392},{"NoteNumber":82,"Velocity":25,"Duration":81141,"SoundDuration":81141,"Delta":19921645},{"NoteNumber":77,"Velocity":18,"Duration":102494,"SoundDuration":102494,"Delta":20049762},{"NoteNumber":74,"Velocity":18,"Duration":102494,"SoundDuration":102494,"Delta":20058304},{"NoteNumber":80,"Velocity":18,"Duration":102494,"SoundDuration":102494,"Delta":20058304},{"NoteNumber":82,"Velocity":23,"Duration":81141,"SoundDuration":81141,"Delta":20175745},{"NoteNumber":80,"Velocity":18,"Duration":96088,"SoundDuration":96088,"Delta":20308133},{"NoteNumber":74,"Velocity":18,"Duration":96088,"SoundDuration":96088,"Delta":20314539},{"NoteNumber":77,"Velocity":18,"Duration":96088,"SoundDuration":96088,"Delta":20314539},{"NoteNumber":74,"Velocity":18,"Duration":102494,"SoundDuration":102494,"Delta":20434115},{"NoteNumber":77,"Velocity":18,"Duration":102494,"SoundDuration":102494,"Delta":20438385},{"NoteNumber":80,"Velocity":18,"Duration":102494,"SoundDuration":102494,"Delta":20438385},{"NoteNumber":82,"Velocity":23,"Duration":81141,"SoundDuration":81141,"Delta":20566503},{"NoteNumber":77,"Velocity":18,"Duration":102494,"SoundDuration":102494,"Delta":20688215},{"NoteNumber":74,"Velocity":18,"Duration":102494,"SoundDuration":102494,"Delta":20692485},{"NoteNumber":80,"Velocity":18,"Duration":102494,"SoundDuration":102494,"Delta":20698891},{"NoteNumber":82,"Velocity":23,"Duration":81141,"SoundDuration":81141,"Delta":20816332},{"NoteNumber":82,"Velocity":23,"Duration":81141,"SoundDuration":81141,"Delta":20946585},{"NoteNumber":74,"Velocity":18,"Duration":102494,"SoundDuration":102494,"Delta":21074702},{"NoteNumber":80,"Velocity":18,"Duration":102494,"SoundDuration":102494,"Delta":21078973},{"NoteNumber":77,"Velocity":18,"Duration":102494,"SoundDuration":102494,"Delta":21081108},{"NoteNumber":65,"Velocity":46,"Duration":529391,"SoundDuration":529391,"Delta":21204955},{"NoteNumber":82,"Velocity":23,"Duration":80467,"SoundDuration":80467,"Delta":21211308},{"NoteNumber":80,"Velocity":20,"Duration":95290,"SoundDuration":95290,"Delta":21332009},{"NoteNumber":74,"Velocity":20,"Duration":95290,"SoundDuration":95290,"Delta":21334127},{"NoteNumber":77,"Velocity":20,"Duration":95290,"SoundDuration":95290,"Delta":21336244},{"NoteNumber":80,"Velocity":20,"Duration":101643,"SoundDuration":101643,"Delta":21454828},{"NoteNumber":74,"Velocity":20,"Duration":101643,"SoundDuration":101643,"Delta":21463298},{"NoteNumber":77,"Velocity":20,"Duration":101643,"SoundDuration":101643,"Delta":21463298},{"NoteNumber":82,"Velocity":25,"Duration":80467,"SoundDuration":80467,"Delta":21588235},{"NoteNumber":73,"Velocity":25,"Duration":101643,"SoundDuration":101643,"Delta":21708936},{"NoteNumber":77,"Velocity":25,"Duration":101643,"SoundDuration":101643,"Delta":21708936},{"NoteNumber":70,"Velocity":51,"Duration":531524,"SoundDuration":531524,"Delta":21713171},{"NoteNumber":80,"Velocity":25,"Duration":101643,"SoundDuration":101643,"Delta":21717406},{"NoteNumber":82,"Velocity":33,"Duration":80467,"SoundDuration":80467,"Delta":21840225},{"NoteNumber":82,"Velocity":33,"Duration":80467,"SoundDuration":80467,"Delta":21973632},{"NoteNumber":80,"Velocity":25,"Duration":101643,"SoundDuration":101643,"Delta":22090098},{"NoteNumber":73,"Velocity":25,"Duration":101643,"SoundDuration":101643,"Delta":22094333},{"NoteNumber":77,"Velocity":25,"Duration":101643,"SoundDuration":101643,"Delta":22098568},{"NoteNumber":68,"Velocity":50,"Duration":555157,"SoundDuration":555157,"Delta":22222453},{"NoteNumber":82,"Velocity":33,"Duration":84519,"SoundDuration":84519,"Delta":22224678},{"NoteNumber":73,"Velocity":25,"Duration":100089,"SoundDuration":100089,"Delta":22351457},{"NoteNumber":77,"Velocity":25,"Duration":100088,"SoundDuration":100088,"Delta":22360354},{"NoteNumber":80,"Velocity":25,"Duration":100089,"SoundDuration":100089,"Delta":22362578},{"NoteNumber":80,"Velocity":23,"Duration":106761,"SoundDuration":106761,"Delta":22487133},{"NoteNumber":73,"Velocity":23,"Duration":106761,"SoundDuration":106761,"Delta":22491582},{"NoteNumber":77,"Velocity":23,"Duration":106761,"SoundDuration":106761,"Delta":22493806},{"NoteNumber":82,"Velocity":25,"Duration":84519,"SoundDuration":84519,"Delta":22627258},{"NoteNumber":80,"Velocity":22,"Duration":104620,"SoundDuration":104620,"Delta":22753636},{"NoteNumber":72,"Velocity":45,"Duration":1032547,"SoundDuration":1032547,"Delta":22755815},{"NoteNumber":74,"Velocity":22,"Duration":104620,"SoundDuration":104620,"Delta":22757995},{"NoteNumber":77,"Velocity":22,"Duration":104620,"SoundDuration":104620,"Delta":22757995},{"NoteNumber":82,"Velocity":27,"Duration":82685,"SoundDuration":82685,"Delta":22893130},{"NoteNumber":82,"Velocity":27,"Duration":82066,"SoundDuration":82066,"Delta":23016848},{"NoteNumber":80,"Velocity":22,"Duration":103148,"SoundDuration":103148,"Delta":23142108},{"NoteNumber":77,"Velocity":22,"Duration":103105,"SoundDuration":103105,"Delta":23146427},{"NoteNumber":74,"Velocity":22,"Duration":103062,"SoundDuration":103062,"Delta":23150746},{"NoteNumber":82,"Velocity":25,"Duration":81252,"SoundDuration":81252,"Delta":23275191},{"NoteNumber":77,"Velocity":22,"Duration":96219,"SoundDuration":96219,"Delta":23403484},{"NoteNumber":80,"Velocity":22,"Duration":96219,"SoundDuration":96219,"Delta":23403484},{"NoteNumber":74,"Velocity":22,"Duration":96219,"SoundDuration":96219,"Delta":23405622},{"NoteNumber":74,"Velocity":18,"Duration":102634,"SoundDuration":102634,"Delta":23527500},{"NoteNumber":80,"Velocity":18,"Duration":102634,"SoundDuration":102634,"Delta":23529639},{"NoteNumber":77,"Velocity":18,"Duration":102634,"SoundDuration":102634,"Delta":23533915},{"NoteNumber":82,"Velocity":23,"Duration":81252,"SoundDuration":81252,"Delta":23666484},{"NoteNumber":74,"Velocity":22,"Duration":102634,"SoundDuration":102634,"Delta":23788363},{"NoteNumber":80,"Velocity":22,"Duration":102634,"SoundDuration":102634,"Delta":23788363},{"NoteNumber":65,"Velocity":45,"Duration":1026342,"SoundDuration":1026342,"Delta":23788363},{"NoteNumber":77,"Velocity":22,"Duration":102634,"SoundDuration":102634,"Delta":23794777},{"NoteNumber":82,"Velocity":25,"Duration":81252,"SoundDuration":81252,"Delta":23918794},{"NoteNumber":82,"Velocity":23,"Duration":81252,"SoundDuration":81252,"Delta":24040672},{"NoteNumber":80,"Velocity":18,"Duration":102634,"SoundDuration":102634,"Delta":24173241},{"NoteNumber":74,"Velocity":18,"Duration":102634,"SoundDuration":102634,"Delta":24179656},{"NoteNumber":77,"Velocity":18,"Duration":102634,"SoundDuration":102634,"Delta":24179656},{"NoteNumber":82,"Velocity":23,"Duration":81252,"SoundDuration":81252,"Delta":24305811},{"NoteNumber":74,"Velocity":22,"Duration":96219,"SoundDuration":96219,"Delta":24427689},{"NoteNumber":80,"Velocity":22,"Duration":96219,"SoundDuration":96219,"Delta":24429827},{"NoteNumber":77,"Velocity":22,"Duration":96219,"SoundDuration":96219,"Delta":24431965},{"NoteNumber":77,"Velocity":20,"Duration":102634,"SoundDuration":102634,"Delta":24553843},{"NoteNumber":80,"Velocity":20,"Duration":102634,"SoundDuration":102634,"Delta":24558120},{"NoteNumber":74,"Velocity":20,"Duration":102634,"SoundDuration":102634,"Delta":24560258},{"NoteNumber":82,"Velocity":27,"Duration":81252,"SoundDuration":81252,"Delta":24684275},{"NoteNumber":68,"Velocity":53,"Duration":521057,"SoundDuration":521057,"Delta":24814706},{"NoteNumber":74,"Velocity":18,"Duration":99717,"SoundDuration":99717,"Delta":24820938},{"NoteNumber":77,"Velocity":18,"Duration":99717,"SoundDuration":99717,"Delta":24820938},{"NoteNumber":80,"Velocity":18,"Duration":99717,"SoundDuration":99717,"Delta":24820938},{"NoteNumber":82,"Velocity":23,"Duration":78943,"SoundDuration":78943,"Delta":24941430},{"NoteNumber":82,"Velocity":25,"Duration":78943,"SoundDuration":78943,"Delta":25066077},{"NoteNumber":74,"Velocity":22,"Duration":99717,"SoundDuration":99717,"Delta":25184491},{"NoteNumber":80,"Velocity":22,"Duration":99717,"SoundDuration":99717,"Delta":25186569},{"NoteNumber":77,"Velocity":22,"Duration":99717,"SoundDuration":99717,"Delta":25188646},{"NoteNumber":82,"Velocity":28,"Duration":85385,"SoundDuration":85385,"Delta":25313293},{"NoteNumber":70,"Velocity":56,"Duration":562451,"SoundDuration":562451,"Delta":25313293},{"NoteNumber":74,"Velocity":23,"Duration":101114,"SoundDuration":101114,"Delta":25443619},{"NoteNumber":80,"Velocity":23,"Duration":101114,"SoundDuration":101114,"Delta":25445865},{"NoteNumber":77,"Velocity":23,"Duration":101114,"SoundDuration":101114,"Delta":25454853},{"NoteNumber":80,"Velocity":23,"Duration":107855,"SoundDuration":107855,"Delta":25585179},{"NoteNumber":74,"Velocity":23,"Duration":107855,"SoundDuration":107855,"Delta":25587426},{"NoteNumber":77,"Velocity":23,"Duration":107855,"SoundDuration":107855,"Delta":25589673},{"NoteNumber":82,"Velocity":33,"Duration":85385,"SoundDuration":85385,"Delta":25715504},{"NoteNumber":74,"Velocity":25,"Duration":111164,"SoundDuration":111164,"Delta":25850324},{"NoteNumber":77,"Velocity":62,"Duration":2623345,"SoundDuration":2623345,"Delta":25852571},{"NoteNumber":80,"Velocity":25,"Duration":111234,"SoundDuration":111234,"Delta":25854888},{"NoteNumber":82,"Velocity":25,"Duration":111234,"SoundDuration":111234,"Delta":25859523},{"NoteNumber":84,"Velocity":33,"Duration":87195,"SoundDuration":87195,"Delta":25989297},{"NoteNumber":84,"Velocity":33,"Duration":86262,"SoundDuration":86262,"Delta":26126960},{"NoteNumber":82,"Velocity":25,"Duration":107718,"SoundDuration":107718,"Delta":26263150},{"NoteNumber":74,"Velocity":25,"Duration":107627,"SoundDuration":107627,"Delta":26269913},{"NoteNumber":80,"Velocity":25,"Duration":107604,"SoundDuration":107604,"Delta":26272160},{"NoteNumber":84,"Velocity":33,"Duration":84519,"SoundDuration":84519,"Delta":26397559},{"NoteNumber":74,"Velocity":25,"Duration":98972,"SoundDuration":98972,"Delta":26532788},{"NoteNumber":82,"Velocity":25,"Duration":98950,"SoundDuration":98950,"Delta":26534990},{"NoteNumber":80,"Velocity":25,"Duration":98905,"SoundDuration":98905,"Delta":26539394},{"NoteNumber":74,"Velocity":25,"Duration":104500,"SoundDuration":104500,"Delta":26660096},{"NoteNumber":80,"Velocity":25,"Duration":104500,"SoundDuration":104500,"Delta":26660096},{"NoteNumber":82,"Velocity":25,"Duration":104401,"SoundDuration":104401,"Delta":26670994},{"NoteNumber":84,"Velocity":33,"Duration":81659,"SoundDuration":81659,"Delta":26796991},{"NoteNumber":82,"Velocity":25,"Duration":102634,"SoundDuration":102634,"Delta":26919277},{"NoteNumber":74,"Velocity":25,"Duration":102634,"SoundDuration":102634,"Delta":26921415},{"NoteNumber":80,"Velocity":25,"Duration":102634,"SoundDuration":102634,"Delta":26921415},{"NoteNumber":84,"Velocity":33,"Duration":81252,"SoundDuration":81252,"Delta":27049708},{"NoteNumber":84,"Velocity":33,"Duration":81252,"SoundDuration":81252,"Delta":27180139},{"NoteNumber":80,"Velocity":25,"Duration":102634,"SoundDuration":102634,"Delta":27304155},{"NoteNumber":82,"Velocity":25,"Duration":102634,"SoundDuration":102634,"Delta":27304155},{"NoteNumber":74,"Velocity":25,"Duration":102634,"SoundDuration":102634,"Delta":27314846},{"NoteNumber":84,"Velocity":33,"Duration":81252,"SoundDuration":81252,"Delta":27436725},{"NoteNumber":74,"Velocity":25,"Duration":96219,"SoundDuration":96219,"Delta":27562879},{"NoteNumber":82,"Velocity":25,"Duration":96219,"SoundDuration":96219,"Delta":27565018},{"NoteNumber":80,"Velocity":25,"Duration":96219,"SoundDuration":96219,"Delta":27567156},{"NoteNumber":74,"Velocity":23,"Duration":102634,"SoundDuration":102634,"Delta":27693310},{"NoteNumber":82,"Velocity":23,"Duration":102634,"SoundDuration":102634,"Delta":27695449},{"NoteNumber":80,"Velocity":23,"Duration":102634,"SoundDuration":102634,"Delta":27699725},{"NoteNumber":84,"Velocity":30,"Duration":81252,"SoundDuration":81252,"Delta":27819465},{"NoteNumber":74,"Velocity":23,"Duration":102805,"SoundDuration":102805,"Delta":27949896},{"NoteNumber":80,"Velocity":23,"Duration":102805,"SoundDuration":102805,"Delta":27949896},{"NoteNumber":82,"Velocity":23,"Duration":102869,"SoundDuration":102869,"Delta":27956311},{"NoteNumber":84,"Velocity":28,"Duration":82445,"SoundDuration":82445,"Delta":28080777},{"NoteNumber":84,"Velocity":27,"Duration":83693,"SoundDuration":83693,"Delta":28215600},{"NoteNumber":82,"Velocity":22,"Duration":107422,"SoundDuration":107422,"Delta":28343777},{"NoteNumber":74,"Velocity":22,"Duration":107445,"SoundDuration":107445,"Delta":28346001},{"NoteNumber":80,"Velocity":22,"Duration":107445,"SoundDuration":107445,"Delta":28346001},{"NoteNumber":77,"Velocity":56,"Duration":580411,"SoundDuration":580411,"Delta":28475917},{"NoteNumber":84,"Velocity":25,"Duration":86262,"SoundDuration":86262,"Delta":28482725},{"NoteNumber":74,"Velocity":18,"Duration":104956,"SoundDuration":104956,"Delta":28610280},{"NoteNumber":82,"Velocity":18,"Duration":104956,"SoundDuration":104956,"Delta":28610280},{"NoteNumber":80,"Velocity":18,"Duration":105181,"SoundDuration":105181,"Delta":28619526},{"NoteNumber":82,"Velocity":18,"Duration":115775,"SoundDuration":115775,"Delta":28748386},{"NoteNumber":80,"Velocity":18,"Duration":116735,"SoundDuration":116735,"Delta":28757910},{"NoteNumber":74,"Velocity":18,"Duration":116962,"SoundDuration":116962,"Delta":28760304},{"NoteNumber":84,"Velocity":23,"Duration":99601,"SoundDuration":99601,"Delta":28906099},{"NoteNumber":82,"Velocity":18,"Duration":113830,"SoundDuration":113830,"Delta":29051266},{"NoteNumber":78,"Velocity":18,"Duration":113641,"SoundDuration":113641,"Delta":29053797},{"NoteNumber":75,"Velocity":18,"Duration":113452,"SoundDuration":113452,"Delta":29056328},{"NoteNumber":77,"Velocity":56,"Duration":1073937,"SoundDuration":1073937,"Delta":29056328},{"NoteNumber":84,"Velocity":23,"Duration":88605,"SoundDuration":88605,"Delta":29193202},{"NoteNumber":82,"Velocity":18,"Duration":103202,"SoundDuration":103202,"Delta":29332790},{"NoteNumber":75,"Velocity":18,"Duration":103107,"SoundDuration":103107,"Delta":29337424},{"NoteNumber":78,"Velocity":18,"Duration":103033,"SoundDuration":103033,"Delta":29344306},{"NoteNumber":75,"Velocity":18,"Duration":108349,"SoundDuration":108349,"Delta":29470034},{"NoteNumber":78,"Velocity":18,"Duration":108326,"SoundDuration":108326,"Delta":29472303},{"NoteNumber":82,"Velocity":18,"Duration":108259,"SoundDuration":108259,"Delta":29479112},{"NoteNumber":84,"Velocity":23,"Duration":84519,"SoundDuration":84519,"Delta":29614289},{"NoteNumber":82,"Velocity":18,"Duration":98549,"SoundDuration":98549,"Delta":29740644},{"NoteNumber":78,"Velocity":18,"Duration":98505,"SoundDuration":98505,"Delta":29745048},{"NoteNumber":75,"Velocity":18,"Duration":98482,"SoundDuration":98482,"Delta":29747250},{"NoteNumber":75,"Velocity":18,"Duration":103448,"SoundDuration":103448,"Delta":29878387},{"NoteNumber":78,"Velocity":18,"Duration":103427,"SoundDuration":103427,"Delta":29880547},{"NoteNumber":82,"Velocity":18,"Duration":103427,"SoundDuration":103427,"Delta":29880547},{"NoteNumber":84,"Velocity":23,"Duration":101930,"SoundDuration":101930,"Delta":30001079},{"NoteNumber":78,"Velocity":16,"Duration":99755,"SoundDuration":99755,"Delta":30126072},{"NoteNumber":82,"Velocity":16,"Duration":99755,"SoundDuration":99755,"Delta":30126072},{"NoteNumber":75,"Velocity":16,"Duration":99717,"SoundDuration":99717,"Delta":30130265},{"NoteNumber":73,"Velocity":45,"Duration":1463731,"SoundDuration":1463731,"Delta":30130265},{"NoteNumber":84,"Velocity":22,"Duration":78943,"SoundDuration":78943,"Delta":30250757},{"NoteNumber":75,"Velocity":17,"Duration":92592,"SoundDuration":92592,"Delta":30379559},{"NoteNumber":82,"Velocity":17,"Duration":92592,"SoundDuration":92592,"Delta":30379559},{"NoteNumber":78,"Velocity":17,"Duration":92592,"SoundDuration":92592,"Delta":30383674},{"NoteNumber":75,"Velocity":17,"Duration":98765,"SoundDuration":98765,"Delta":30500958},{"NoteNumber":78,"Velocity":17,"Duration":98765,"SoundDuration":98765,"Delta":30500958},{"NoteNumber":82,"Velocity":17,"Duration":98765,"SoundDuration":98765,"Delta":30500958},{"NoteNumber":84,"Velocity":23,"Duration":77475,"SoundDuration":77475,"Delta":30630550},{"NoteNumber":75,"Velocity":18,"Duration":91746,"SoundDuration":91746,"Delta":30744724},{"NoteNumber":78,"Velocity":18,"Duration":91746,"SoundDuration":91746,"Delta":30744724},{"NoteNumber":82,"Velocity":18,"Duration":91746,"SoundDuration":91746,"Delta":30750841},{"NoteNumber":82,"Velocity":18,"Duration":96999,"SoundDuration":96999,"Delta":30867053},{"NoteNumber":75,"Velocity":18,"Duration":96961,"SoundDuration":96961,"Delta":30871131},{"NoteNumber":78,"Velocity":18,"Duration":96961,"SoundDuration":96961,"Delta":30875171},{"NoteNumber":84,"Velocity":25,"Duration":76761,"SoundDuration":76761,"Delta":30998393},{"NoteNumber":75,"Velocity":22,"Duration":96128,"SoundDuration":96128,"Delta":31109496},{"NoteNumber":78,"Velocity":22,"Duration":96128,"SoundDuration":96128,"Delta":31109496},{"NoteNumber":82,"Velocity":22,"Duration":96110,"SoundDuration":96110,"Delta":31111516},{"NoteNumber":84,"Velocity":25,"Duration":76072,"SoundDuration":76072,"Delta":31237655},{"NoteNumber":75,"Velocity":22,"Duration":90086,"SoundDuration":90086,"Delta":31351764},{"NoteNumber":82,"Velocity":22,"Duration":90086,"SoundDuration":90086,"Delta":31353766},{"NoteNumber":78,"Velocity":22,"Duration":90086,"SoundDuration":90086,"Delta":31355768},{"NoteNumber":75,"Velocity":23,"Duration":96092,"SoundDuration":96092,"Delta":31475883},{"NoteNumber":78,"Velocity":23,"Duration":96092,"SoundDuration":96092,"Delta":31475883},{"NoteNumber":82,"Velocity":23,"Duration":96092,"SoundDuration":96092,"Delta":31479887},{"NoteNumber":70,"Velocity":52,"Duration":495618,"SoundDuration":495618,"Delta":31593997},{"NoteNumber":84,"Velocity":30,"Duration":75360,"SoundDuration":75360,"Delta":31599946},{"NoteNumber":78,"Velocity":25,"Duration":89243,"SoundDuration":89243,"Delta":31709021},{"NoteNumber":82,"Velocity":25,"Duration":89243,"SoundDuration":89243,"Delta":31709021},{"NoteNumber":75,"Velocity":25,"Duration":89243,"SoundDuration":89243,"Delta":31718937},{"NoteNumber":75,"Velocity":25,"Duration":95192,"SoundDuration":95192,"Delta":31833962},{"NoteNumber":78,"Velocity":25,"Duration":95192,"SoundDuration":95192,"Delta":31835945},{"NoteNumber":82,"Velocity":25,"Duration":95192,"SoundDuration":95192,"Delta":31837928},{"NoteNumber":84,"Velocity":33,"Duration":75360,"SoundDuration":75360,"Delta":31947003},{"NoteNumber":81,"Velocity":25,"Duration":94339,"SoundDuration":94339,"Delta":32069961},{"NoteNumber":73,"Velocity":56,"Duration":498996,"SoundDuration":498996,"Delta":32069961},{"NoteNumber":78,"Velocity":25,"Duration":94339,"SoundDuration":94339,"Delta":32073892},{"NoteNumber":75,"Velocity":25,"Duration":94339,"SoundDuration":94339,"Delta":32075857},{"NoteNumber":83,"Velocity":33,"Duration":75360,"SoundDuration":75360,"Delta":32189868},{"NoteNumber":81,"Velocity":25,"Duration":90067,"SoundDuration":90067,"Delta":32304893},{"NoteNumber":78,"Velocity":25,"Duration":90086,"SoundDuration":90086,"Delta":32306876},{"NoteNumber":75,"Velocity":25,"Duration":90086,"SoundDuration":90086,"Delta":32310880},{"NoteNumber":81,"Velocity":25,"Duration":97149,"SoundDuration":97149,"Delta":32431032},{"NoteNumber":75,"Velocity":25,"Duration":97168,"SoundDuration":97168,"Delta":32433052},{"NoteNumber":78,"Velocity":25,"Duration":97168,"SoundDuration":97168,"Delta":32433052},{"NoteNumber":75,"Velocity":58,"Duration":518998,"SoundDuration":518998,"Delta":32548569},{"NoteNumber":83,"Velocity":33,"Duration":77475,"SoundDuration":77475,"Delta":32550608},{"NoteNumber":78,"Velocity":25,"Duration":92652,"SoundDuration":92652,"Delta":32667159},{"NoteNumber":75,"Velocity":25,"Duration":92671,"SoundDuration":92671,"Delta":32669217},{"NoteNumber":81,"Velocity":25,"Duration":92671,"SoundDuration":92671,"Delta":32669217},{"NoteNumber":78,"Velocity":25,"Duration":99870,"SoundDuration":99870,"Delta":32795128},{"NoteNumber":81,"Velocity":25,"Duration":99870,"SoundDuration":99870,"Delta":32795128},{"NoteNumber":75,"Velocity":25,"Duration":99889,"SoundDuration":99889,"Delta":32797205},{"NoteNumber":83,"Velocity":33,"Duration":80027,"SoundDuration":80027,"Delta":32918061},{"NoteNumber":75,"Velocity":25,"Duration":99717,"SoundDuration":99717,"Delta":33046793},{"NoteNumber":77,"Velocity":62,"Duration":997174,"SoundDuration":997174,"Delta":33046793},{"NoteNumber":78,"Velocity":25,"Duration":99717,"SoundDuration":99717,"Delta":33050948},{"NoteNumber":82,"Velocity":25,"Duration":99717,"SoundDuration":99717,"Delta":33053025},{"NoteNumber":84,"Velocity":28,"Duration":78943,"SoundDuration":78943,"Delta":33175595},{"NoteNumber":78,"Velocity":23,"Duration":93485,"SoundDuration":93485,"Delta":33294009},{"NoteNumber":82,"Velocity":23,"Duration":93485,"SoundDuration":93485,"Delta":33298164},{"NoteNumber":75,"Velocity":23,"Duration":93485,"SoundDuration":93485,"Delta":33302319},{"NoteNumber":75,"Velocity":23,"Duration":99717,"SoundDuration":99717,"Delta":33418656},{"NoteNumber":82,"Velocity":23,"Duration":99717,"SoundDuration":99717,"Delta":33420734},{"NoteNumber":78,"Velocity":23,"Duration":99717,"SoundDuration":99717,"Delta":33426966},{"NoteNumber":84,"Velocity":28,"Duration":78943,"SoundDuration":78943,"Delta":33543303},{"NoteNumber":82,"Velocity":23,"Duration":93485,"SoundDuration":93485,"Delta":33670027},{"NoteNumber":75,"Velocity":23,"Duration":93485,"SoundDuration":93485,"Delta":33672105},{"NoteNumber":78,"Velocity":23,"Duration":93485,"SoundDuration":93485,"Delta":33672105},{"NoteNumber":78,"Velocity":22,"Duration":99717,"SoundDuration":99717,"Delta":33792597},{"NoteNumber":82,"Velocity":22,"Duration":99717,"SoundDuration":99717,"Delta":33792597},{"NoteNumber":75,"Velocity":22,"Duration":99717,"SoundDuration":99717,"Delta":33794674},{"NoteNumber":84,"Velocity":27,"Duration":78943,"SoundDuration":78943,"Delta":33917244},{"NoteNumber":73,"Velocity":52,"Duration":1441383,"SoundDuration":1441383,"Delta":34043968},{"NoteNumber":78,"Velocity":22,"Duration":96092,"SoundDuration":96092,"Delta":34047972},{"NoteNumber":82,"Velocity":22,"Duration":96092,"SoundDuration":96092,"Delta":34047972},{"NoteNumber":75,"Velocity":22,"Duration":96092,"SoundDuration":96092,"Delta":34049974},{"NoteNumber":84,"Velocity":27,"Duration":76072,"SoundDuration":76072,"Delta":34166085},{"NoteNumber":78,"Velocity":22,"Duration":90086,"SoundDuration":90086,"Delta":34282197},{"NoteNumber":75,"Velocity":22,"Duration":90086,"SoundDuration":90086,"Delta":34288202},{"NoteNumber":82,"Velocity":22,"Duration":90086,"SoundDuration":90086,"Delta":34288202},{"NoteNumber":75,"Velocity":22,"Duration":96092,"SoundDuration":96092,"Delta":34400310},{"NoteNumber":78,"Velocity":22,"Duration":96092,"SoundDuration":96092,"Delta":34408318},{"NoteNumber":82,"Velocity":22,"Duration":96092,"SoundDuration":96092,"Delta":34410319},{"NoteNumber":84,"Velocity":25,"Duration":76072,"SoundDuration":76072,"Delta":34524429},{"NoteNumber":75,"Velocity":22,"Duration":90086,"SoundDuration":90086,"Delta":34640540},{"NoteNumber":82,"Velocity":22,"Duration":90086,"SoundDuration":90086,"Delta":34640540},{"NoteNumber":78,"Velocity":22,"Duration":90086,"SoundDuration":90086,"Delta":34644544},{"NoteNumber":78,"Velocity":22,"Duration":96092,"SoundDuration":96092,"Delta":34766661},{"NoteNumber":82,"Velocity":22,"Duration":96092,"SoundDuration":96092,"Delta":34766661},{"NoteNumber":75,"Velocity":22,"Duration":96092,"SoundDuration":96092,"Delta":34770665},{"NoteNumber":84,"Velocity":25,"Duration":76072,"SoundDuration":76072,"Delta":34886777},{"NoteNumber":75,"Velocity":22,"Duration":96092,"SoundDuration":96092,"Delta":35006892},{"NoteNumber":82,"Velocity":22,"Duration":96092,"SoundDuration":96092,"Delta":35006892},{"NoteNumber":78,"Velocity":22,"Duration":96092,"SoundDuration":96092,"Delta":35008894},{"NoteNumber":84,"Velocity":23,"Duration":76072,"SoundDuration":76072,"Delta":35129009},{"NoteNumber":82,"Velocity":18,"Duration":90086,"SoundDuration":90086,"Delta":35241117},{"NoteNumber":75,"Velocity":18,"Duration":90086,"SoundDuration":90086,"Delta":35249124},{"NoteNumber":78,"Velocity":18,"Duration":90086,"SoundDuration":90086,"Delta":35251126},{"NoteNumber":82,"Velocity":22,"Duration":96092,"SoundDuration":96092,"Delta":35361232},{"NoteNumber":75,"Velocity":22,"Duration":96092,"SoundDuration":96092,"Delta":35365236},{"NoteNumber":78,"Velocity":22,"Duration":96092,"SoundDuration":96092,"Delta":35369240},{"NoteNumber":84,"Velocity":25,"Duration":76072,"SoundDuration":76072,"Delta":35485351},{"NoteNumber":70,"Velocity":53,"Duration":501636,"SoundDuration":501636,"Delta":35485351},{"NoteNumber":75,"Velocity":22,"Duration":90086,"SoundDuration":90086,"Delta":35601462},{"NoteNumber":82,"Velocity":22,"Duration":90086,"SoundDuration":90086,"Delta":35603464},{"NoteNumber":78,"Velocity":22,"Duration":90086,"SoundDuration":90086,"Delta":35607468},{"NoteNumber":75,"Velocity":22,"Duration":96092,"SoundDuration":96092,"Delta":35721578},{"NoteNumber":78,"Velocity":22,"Duration":96092,"SoundDuration":96092,"Delta":35723580},{"NoteNumber":82,"Velocity":22,"Duration":96092,"SoundDuration":96092,"Delta":35731587},{"NoteNumber":84,"Velocity":27,"Duration":76072,"SoundDuration":76072,"Delta":35847699},{"NoteNumber":78,"Velocity":23,"Duration":101411,"SoundDuration":101411,"Delta":35961808},{"NoteNumber":81,"Velocity":23,"Duration":101643,"SoundDuration":101643,"Delta":35965812},{"NoteNumber":73,"Velocity":57,"Duration":531389,"SoundDuration":531389,"Delta":35965812},{"NoteNumber":75,"Velocity":23,"Duration":101643,"SoundDuration":101643,"Delta":35967930},{"NoteNumber":83,"Velocity":30,"Duration":80467,"SoundDuration":80467,"Delta":36099219},{"NoteNumber":81,"Velocity":25,"Duration":95290,"SoundDuration":95290,"Delta":36217802},{"NoteNumber":78,"Velocity":25,"Duration":95290,"SoundDuration":95290,"Delta":36219920},{"NoteNumber":75,"Velocity":25,"Duration":101643,"SoundDuration":101643,"Delta":36226273},{"NoteNumber":78,"Velocity":25,"Duration":101643,"SoundDuration":101643,"Delta":36342739},{"NoteNumber":75,"Velocity":25,"Duration":101643,"SoundDuration":101643,"Delta":36344856},{"NoteNumber":81,"Velocity":25,"Duration":101643,"SoundDuration":101643,"Delta":36353327},{"NoteNumber":83,"Velocity":31,"Duration":87860,"SoundDuration":87860,"Delta":36471910},{"NoteNumber":75,"Velocity":56,"Duration":587850,"SoundDuration":587850,"Delta":36474028},{"NoteNumber":75,"Velocity":27,"Duration":111234,"SoundDuration":111234,"Delta":36608437},{"NoteNumber":78,"Velocity":27,"Duration":104282,"SoundDuration":104282,"Delta":36610754},{"NoteNumber":81,"Velocity":27,"Duration":104282,"SoundDuration":104282,"Delta":36610754},{"NoteNumber":81,"Velocity":27,"Duration":111234,"SoundDuration":111234,"Delta":36747480},{"NoteNumber":78,"Velocity":27,"Duration":111234,"SoundDuration":111234,"Delta":36754432},{"NoteNumber":75,"Velocity":27,"Duration":111234,"SoundDuration":111234,"Delta":36756749},{"NoteNumber":83,"Velocity":33,"Duration":88060,"SoundDuration":88060,"Delta":36888841},{"NoteNumber":73,"Velocity":25,"Duration":123861,"SoundDuration":123861,"Delta":37030486},{"NoteNumber":78,"Velocity":25,"Duration":123773,"SoundDuration":123773,"Delta":37033076},{"NoteNumber":85,"Velocity":67,"Duration":1086614,"SoundDuration":1086614,"Delta":37035667},{"NoteNumber":81,"Velocity":25,"Duration":123567,"SoundDuration":123567,"Delta":37038288},{"NoteNumber":83,"Velocity":30,"Duration":92146,"SoundDuration":92146,"Delta":37186886},{"NoteNumber":78,"Velocity":25,"Duration":102109,"SoundDuration":102109,"Delta":37328374},{"NoteNumber":81,"Velocity":25,"Duration":101829,"SoundDuration":101829,"Delta":37333058},{"NoteNumber":73,"Velocity":25,"Duration":108342,"SoundDuration":108342,"Delta":37335352},{"NoteNumber":81,"Velocity":25,"Duration":103747,"SoundDuration":103747,"Delta":37463512},{"NoteNumber":78,"Velocity":25,"Duration":103662,"SoundDuration":103662,"Delta":37467915},{"NoteNumber":73,"Velocity":25,"Duration":103662,"SoundDuration":103662,"Delta":37472235},{"NoteNumber":83,"Velocity":33,"Duration":82066,"SoundDuration":82066,"Delta":37595334},{"NoteNumber":81,"Velocity":25,"Duration":97183,"SoundDuration":97183,"Delta":37729232},{"NoteNumber":73,"Velocity":25,"Duration":103662,"SoundDuration":103662,"Delta":37731392},{"NoteNumber":78,"Velocity":25,"Duration":97183,"SoundDuration":97183,"Delta":37733551},{"NoteNumber":78,"Velocity":27,"Duration":105933,"SoundDuration":105933,"Delta":37852332},{"NoteNumber":81,"Velocity":27,"Duration":106283,"SoundDuration":106283,"Delta":37860970},{"NoteNumber":73,"Velocity":27,"Duration":106370,"SoundDuration":106370,"Delta":37863130},{"NoteNumber":83,"Velocity":33,"Duration":84050,"SoundDuration":84050,"Delta":37996396},{"NoteNumber":78,"Velocity":67,"Duration":1067616,"SoundDuration":1067616,"Delta":38122282},{"NoteNumber":73,"Velocity":28,"Duration":106761,"SoundDuration":106761,"Delta":38124506},{"NoteNumber":81,"Velocity":28,"Duration":106761,"SoundDuration":106761,"Delta":38124506},{"NoteNumber":83,"Velocity":36,"Duration":84519,"SoundDuration":84519,"Delta":38257958},{"NoteNumber":81,"Velocity":28,"Duration":100088,"SoundDuration":100088,"Delta":38386962},{"NoteNumber":73,"Velocity":28,"Duration":106761,"SoundDuration":106761,"Delta":38391410},{"NoteNumber":81,"Velocity":28,"Duration":106761,"SoundDuration":106761,"Delta":38520414},{"NoteNumber":73,"Velocity":28,"Duration":106761,"SoundDuration":106761,"Delta":38529310},{"NoteNumber":83,"Velocity":36,"Duration":84519,"SoundDuration":84519,"Delta":38651641},{"NoteNumber":73,"Velocity":25,"Duration":106761,"SoundDuration":106761,"Delta":38787318},{"NoteNumber":81,"Velocity":25,"Duration":100089,"SoundDuration":100089,"Delta":38787318},{"NoteNumber":73,"Velocity":25,"Duration":106761,"SoundDuration":106761,"Delta":38922994},{"NoteNumber":81,"Velocity":25,"Duration":106761,"SoundDuration":106761,"Delta":38927442},{"NoteNumber":83,"Velocity":33,"Duration":84519,"SoundDuration":84519,"Delta":39054222},{"NoteNumber":78,"Velocity":23,"Duration":102634,"SoundDuration":102634,"Delta":39189898},{"NoteNumber":81,"Velocity":61,"Duration":535865,"SoundDuration":535865,"Delta":39189898},{"NoteNumber":73,"Velocity":23,"Duration":102634,"SoundDuration":102634,"Delta":39196313},{"NoteNumber":83,"Velocity":25,"Duration":81252,"SoundDuration":81252,"Delta":39322467},{"NoteNumber":78,"Velocity":22,"Duration":96219,"SoundDuration":96219,"Delta":39442207},{"NoteNumber":73,"Velocity":22,"Duration":102634,"SoundDuration":102634,"Delta":39444345},{"NoteNumber":78,"Velocity":22,"Duration":102634,"SoundDuration":102634,"Delta":39574777},{"NoteNumber":73,"Velocity":22,"Duration":102634,"SoundDuration":102634,"Delta":39576915},{"NoteNumber":83,"Velocity":28,"Duration":86238,"SoundDuration":86238,"Delta":39703069},{"NoteNumber":85,"Velocity":63,"Duration":566681,"SoundDuration":566681,"Delta":39703069},{"NoteNumber":81,"Velocity":23,"Duration":102124,"SoundDuration":102124,"Delta":39836966},{"NoteNumber":78,"Velocity":23,"Duration":102124,"SoundDuration":102124,"Delta":39843774},{"NoteNumber":73,"Velocity":23,"Duration":108932,"SoundDuration":108932,"Delta":39846043},{"NoteNumber":73,"Velocity":23,"Duration":108932,"SoundDuration":108932,"Delta":39975401},{"NoteNumber":78,"Velocity":23,"Duration":102124,"SoundDuration":102124,"Delta":39982209},{"NoteNumber":81,"Velocity":23,"Duration":108932,"SoundDuration":108932,"Delta":39982209},{"NoteNumber":83,"Velocity":33,"Duration":86238,"SoundDuration":86238,"Delta":40113836},{"NoteNumber":75,"Velocity":25,"Duration":105757,"SoundDuration":105757,"Delta":40245462},{"NoteNumber":78,"Velocity":25,"Duration":105757,"SoundDuration":105757,"Delta":40245462},{"NoteNumber":81,"Velocity":25,"Duration":105689,"SoundDuration":105689,"Delta":40247732},{"NoteNumber":87,"Velocity":72,"Duration":1585343,"SoundDuration":1585343,"Delta":40247732},{"NoteNumber":83,"Velocity":33,"Duration":83670,"SoundDuration":83670,"Delta":40382046},{"NoteNumber":81,"Velocity":23,"Duration":99084,"SoundDuration":99084,"Delta":40507552},{"NoteNumber":75,"Velocity":23,"Duration":105689,"SoundDuration":105689,"Delta":40509754},{"NoteNumber":78,"Velocity":23,"Duration":99084,"SoundDuration":99084,"Delta":40509754},{"NoteNumber":75,"Velocity":25,"Duration":105689,"SoundDuration":105689,"Delta":40639664},{"NoteNumber":78,"Velocity":25,"Duration":105689,"SoundDuration":105689,"Delta":40648472},{"NoteNumber":81,"Velocity":25,"Duration":105689,"SoundDuration":105689,"Delta":40650673},{"NoteNumber":83,"Velocity":31,"Duration":83670,"SoundDuration":83670,"Delta":40780584},{"NoteNumber":78,"Velocity":25,"Duration":99084,"SoundDuration":99084,"Delta":40903888},{"NoteNumber":81,"Velocity":25,"Duration":99084,"SoundDuration":99084,"Delta":40908292},{"NoteNumber":75,"Velocity":25,"Duration":105689,"SoundDuration":105689,"Delta":40912696},{"NoteNumber":81,"Velocity":25,"Duration":105689,"SoundDuration":105689,"Delta":41038202},{"NoteNumber":75,"Velocity":25,"Duration":105689,"SoundDuration":105689,"Delta":41042606},{"NoteNumber":78,"Velocity":25,"Duration":105689,"SoundDuration":105689,"Delta":41047009},{"NoteNumber":83,"Velocity":33,"Duration":83670,"SoundDuration":83670,"Delta":41174718},{"NoteNumber":75,"Velocity":25,"Duration":105689,"SoundDuration":105689,"Delta":41309032},{"NoteNumber":78,"Velocity":25,"Duration":105689,"SoundDuration":105689,"Delta":41311233},{"NoteNumber":81,"Velocity":25,"Duration":105689,"SoundDuration":105689,"Delta":41311233},{"NoteNumber":83,"Velocity":36,"Duration":83670,"SoundDuration":83670,"Delta":41441144},{"NoteNumber":78,"Velocity":27,"Duration":99083,"SoundDuration":99083,"Delta":41566650},{"NoteNumber":75,"Velocity":27,"Duration":105689,"SoundDuration":105689,"Delta":41571054},{"NoteNumber":81,"Velocity":27,"Duration":99083,"SoundDuration":99083,"Delta":41573256},{"NoteNumber":75,"Velocity":28,"Duration":105689,"SoundDuration":105689,"Delta":41696560},{"NoteNumber":78,"Velocity":28,"Duration":105689,"SoundDuration":105689,"Delta":41703166},{"NoteNumber":81,"Velocity":28,"Duration":105689,"SoundDuration":105689,"Delta":41705368},{"NoteNumber":83,"Velocity":36,"Duration":83670,"SoundDuration":83670,"Delta":41833076},{"NoteNumber":85,"Velocity":71,"Duration":549623,"SoundDuration":549623,"Delta":41833076},{"NoteNumber":78,"Velocity":28,"Duration":99084,"SoundDuration":99084,"Delta":41960784},{"NoteNumber":81,"Velocity":28,"Duration":99084,"SoundDuration":99084,"Delta":41965188},{"NoteNumber":73,"Velocity":28,"Duration":105689,"SoundDuration":105689,"Delta":41971793},{"NoteNumber":73,"Velocity":30,"Duration":105689,"SoundDuration":105689,"Delta":42092896},{"NoteNumber":81,"Velocity":30,"Duration":105689,"SoundDuration":105689,"Delta":42095098},{"NoteNumber":78,"Velocity":30,"Duration":105689,"SoundDuration":105689,"Delta":42101704},{"NoteNumber":83,"Velocity":38,"Duration":83670,"SoundDuration":83670,"Delta":42227210},{"NoteNumber":78,"Velocity":28,"Duration":101727,"SoundDuration":101727,"Delta":42359322},{"NoteNumber":81,"Velocity":28,"Duration":101727,"SoundDuration":101727,"Delta":42359322},{"NoteNumber":90,"Velocity":75,"Duration":531155,"SoundDuration":531155,"Delta":42361524},{"NoteNumber":83,"Velocity":36,"Duration":80467,"SoundDuration":80467,"Delta":42494931},{"NoteNumber":81,"Velocity":27,"Duration":95290,"SoundDuration":95290,"Delta":42611397},{"NoteNumber":78,"Velocity":27,"Duration":95290,"SoundDuration":95290,"Delta":42619867},{"NoteNumber":81,"Velocity":27,"Duration":264341,"SoundDuration":264341,"Delta":42738451},{"NoteNumber":78,"Velocity":27,"Duration":264693,"SoundDuration":264693,"Delta":42742686},{"NoteNumber":89,"Velocity":73,"Duration":572801,"SoundDuration":572801,"Delta":42869740},{"NoteNumber":77,"Velocity":27,"Duration":110111,"SoundDuration":110111,"Delta":42876622},{"NoteNumber":83,"Velocity":33,"Duration":87171,"SoundDuration":87171,"Delta":43002792},{"NoteNumber":77,"Velocity":25,"Duration":103229,"SoundDuration":103229,"Delta":43147314},{"NoteNumber":81,"Velocity":25,"Duration":103229,"SoundDuration":103229,"Delta":43147314},{"NoteNumber":78,"Velocity":25,"Duration":103229,"SoundDuration":103229,"Delta":43151902},{"NoteNumber":78,"Velocity":25,"Duration":271091,"SoundDuration":271091,"Delta":43282660},{"NoteNumber":81,"Velocity":25,"Duration":271091,"SoundDuration":271091,"Delta":43282660},{"NoteNumber":77,"Velocity":25,"Duration":110111,"SoundDuration":110111,"Delta":43289542},{"NoteNumber":75,"Velocity":25,"Duration":106761,"SoundDuration":106761,"Delta":43420299},{"NoteNumber":87,"Velocity":75,"Duration":1067616,"SoundDuration":1067616,"Delta":43420299},{"NoteNumber":83,"Velocity":33,"Duration":84519,"SoundDuration":84519,"Delta":43555976},{"NoteNumber":81,"Velocity":23,"Duration":100088,"SoundDuration":100088,"Delta":43684979},{"NoteNumber":75,"Velocity":23,"Duration":106761,"SoundDuration":106761,"Delta":43691652},{"NoteNumber":78,"Velocity":23,"Duration":100089,"SoundDuration":100089,"Delta":43693876},{"NoteNumber":75,"Velocity":23,"Duration":106761,"SoundDuration":106761,"Delta":43816207},{"NoteNumber":81,"Velocity":23,"Duration":106761,"SoundDuration":106761,"Delta":43816207},{"NoteNumber":78,"Velocity":23,"Duration":106761,"SoundDuration":106761,"Delta":43822880},{"NoteNumber":83,"Velocity":30,"Duration":84519,"SoundDuration":84519,"Delta":43956332},{"NoteNumber":75,"Velocity":23,"Duration":106761,"SoundDuration":106761,"Delta":44087559},{"NoteNumber":81,"Velocity":23,"Duration":100088,"SoundDuration":100088,"Delta":44089784},{"NoteNumber":78,"Velocity":23,"Duration":100088,"SoundDuration":100088,"Delta":44094232},{"NoteNumber":75,"Velocity":23,"Duration":106761,"SoundDuration":106761,"Delta":44218787},{"NoteNumber":78,"Velocity":23,"Duration":106761,"SoundDuration":106761,"Delta":44221011},{"NoteNumber":81,"Velocity":23,"Duration":106761,"SoundDuration":106761,"Delta":44221011},{"NoteNumber":83,"Velocity":28,"Duration":84519,"SoundDuration":84519,"Delta":44356688},{"NoteNumber":78,"Velocity":23,"Duration":107809,"SoundDuration":107809,"Delta":44483467},{"NoteNumber":81,"Velocity":23,"Duration":107809,"SoundDuration":107809,"Delta":44483467},{"NoteNumber":85,"Velocity":67,"Duration":560659,"SoundDuration":560659,"Delta":44487915},{"NoteNumber":73,"Velocity":23,"Duration":107855,"SoundDuration":107855,"Delta":44492409},{"NoteNumber":83,"Velocity":30,"Duration":85385,"SoundDuration":85385,"Delta":44622735},{"NoteNumber":73,"Velocity":23,"Duration":107855,"SoundDuration":107855,"Delta":44755307},{"NoteNumber":78,"Velocity":23,"Duration":101114,"SoundDuration":101114,"Delta":44755307},{"NoteNumber":81,"Velocity":23,"Duration":101114,"SoundDuration":101114,"Delta":44762048},{"NoteNumber":78,"Velocity":23,"Duration":107855,"SoundDuration":107855,"Delta":44890127},{"NoteNumber":81,"Velocity":23,"Duration":107855,"SoundDuration":107855,"Delta":44890127},{"NoteNumber":73,"Velocity":23,"Duration":107855,"SoundDuration":107855,"Delta":44899114},{"NoteNumber":87,"Velocity":67,"Duration":534553,"SoundDuration":534553,"Delta":45027193},{"NoteNumber":83,"Velocity":33,"Duration":81252,"SoundDuration":81252,"Delta":45029331},{"NoteNumber":75,"Velocity":25,"Duration":102634,"SoundDuration":102634,"Delta":45155486},{"NoteNumber":81,"Velocity":25,"Duration":96219,"SoundDuration":96219,"Delta":45155486},{"NoteNumber":78,"Velocity":25,"Duration":96219,"SoundDuration":96219,"Delta":45161900},{"NoteNumber":75,"Velocity":25,"Duration":102634,"SoundDuration":102634,"Delta":45283779},{"NoteNumber":78,"Velocity":25,"Duration":102634,"SoundDuration":102634,"Delta":45283779},{"NoteNumber":81,"Velocity":25,"Duration":102634,"SoundDuration":102634,"Delta":45283779},{"NoteNumber":83,"Velocity":33,"Duration":81252,"SoundDuration":81252,"Delta":45414210},{"NoteNumber":81,"Velocity":25,"Duration":102634,"SoundDuration":102634,"Delta":45540364},{"NoteNumber":90,"Velocity":71,"Duration":536111,"SoundDuration":536111,"Delta":45540364},{"NoteNumber":78,"Velocity":25,"Duration":102634,"SoundDuration":102634,"Delta":45546779},{"NoteNumber":83,"Velocity":33,"Duration":102634,"SoundDuration":102634,"Delta":45668657},{"NoteNumber":81,"Velocity":25,"Duration":96219,"SoundDuration":96219,"Delta":45799088},{"NoteNumber":78,"Velocity":25,"Duration":96219,"SoundDuration":96219,"Delta":45803365},{"NoteNumber":78,"Velocity":25,"Duration":265932,"SoundDuration":265932,"Delta":45925243},{"NoteNumber":81,"Velocity":25,"Duration":266088,"SoundDuration":266088,"Delta":45927381},{"NoteNumber":89,"Velocity":68,"Duration":550559,"SoundDuration":550559,"Delta":46053536},{"NoteNumber":77,"Velocity":25,"Duration":110111,"SoundDuration":110111,"Delta":46058124},{"NoteNumber":83,"Velocity":33,"Duration":87171,"SoundDuration":87171,"Delta":46186588},{"NoteNumber":77,"Velocity":25,"Duration":103229,"SoundDuration":103229,"Delta":46324228},{"NoteNumber":81,"Velocity":25,"Duration":103229,"SoundDuration":103229,"Delta":46324228},{"NoteNumber":78,"Velocity":25,"Duration":103229,"SoundDuration":103229,"Delta":46326522},{"NoteNumber":77,"Velocity":25,"Duration":110111,"SoundDuration":110111,"Delta":46464162},{"NoteNumber":78,"Velocity":25,"Duration":110111,"SoundDuration":110111,"Delta":46466456},{"NoteNumber":81,"Velocity":25,"Duration":110111,"SoundDuration":110111,"Delta":46468750},{"NoteNumber":78,"Velocity":25,"Duration":113510,"SoundDuration":113510,"Delta":46599507},{"NoteNumber":73,"Velocity":25,"Duration":113584,"SoundDuration":113584,"Delta":46601801},{"NoteNumber":85,"Velocity":67,"Duration":1136578,"SoundDuration":1136578,"Delta":46604095},{"NoteNumber":81,"Velocity":25,"Duration":113657,"SoundDuration":113657,"Delta":46606463},{"NoteNumber":83,"Velocity":27,"Duration":89979,"SoundDuration":89979,"Delta":46741432},{"NoteNumber":73,"Velocity":23,"Duration":113657,"SoundDuration":113657,"Delta":46885872},{"NoteNumber":81,"Velocity":23,"Duration":106554,"SoundDuration":106554,"Delta":46888240},{"NoteNumber":78,"Velocity":23,"Duration":106554,"SoundDuration":106554,"Delta":46892976},{"NoteNumber":81,"Velocity":23,"Duration":113657,"SoundDuration":113657,"Delta":47025577},{"NoteNumber":78,"Velocity":23,"Duration":113657,"SoundDuration":113657,"Delta":47027945},{"NoteNumber":73,"Velocity":23,"Duration":113657,"SoundDuration":113657,"Delta":47037416},{"NoteNumber":83,"Velocity":27,"Duration":89979,"SoundDuration":89979,"Delta":47174753},{"NoteNumber":78,"Velocity":22,"Duration":106554,"SoundDuration":106554,"Delta":47309722},{"NoteNumber":73,"Velocity":22,"Duration":113657,"SoundDuration":113657,"Delta":47312089},{"NoteNumber":81,"Velocity":22,"Duration":106554,"SoundDuration":106554,"Delta":47316825},{"NoteNumber":78,"Velocity":22,"Duration":113657,"SoundDuration":113657,"Delta":47451794},{"NoteNumber":73,"Velocity":22,"Duration":113657,"SoundDuration":113657,"Delta":47461265},{"NoteNumber":81,"Velocity":22,"Duration":113657,"SoundDuration":113657,"Delta":47463633},{"NoteNumber":83,"Velocity":25,"Duration":89979,"SoundDuration":89979,"Delta":47598602},{"NoteNumber":83,"Velocity":53,"Duration":593941,"SoundDuration":593941,"Delta":47740674},{"NoteNumber":78,"Velocity":18,"Duration":118788,"SoundDuration":118788,"Delta":47743149},{"NoteNumber":71,"Velocity":18,"Duration":118788,"SoundDuration":118788,"Delta":47748099},{"NoteNumber":81,"Velocity":18,"Duration":94040,"SoundDuration":94040,"Delta":47886685},{"NoteNumber":71,"Velocity":18,"Duration":118788,"SoundDuration":118788,"Delta":48035171},{"NoteNumber":78,"Velocity":18,"Duration":111364,"SoundDuration":111364,"Delta":48037645},{"NoteNumber":71,"Velocity":18,"Duration":118788,"SoundDuration":118788,"Delta":48183656},{"NoteNumber":78,"Velocity":18,"Duration":118788,"SoundDuration":118788,"Delta":48186131},{"NoteNumber":81,"Velocity":18,"Duration":125812,"SoundDuration":125812,"Delta":48334616},{"NoteNumber":85,"Velocity":52,"Duration":629062,"SoundDuration":629062,"Delta":48334616},{"NoteNumber":73,"Velocity":18,"Duration":125812,"SoundDuration":125812,"Delta":48339859},{"NoteNumber":78,"Velocity":18,"Duration":125812,"SoundDuration":125812,"Delta":48342480},{"NoteNumber":83,"Velocity":22,"Duration":99601,"SoundDuration":99601,"Delta":48491882},{"NoteNumber":81,"Velocity":17,"Duration":117949,"SoundDuration":117949,"Delta":48643905},{"NoteNumber":73,"Velocity":17,"Duration":125812,"SoundDuration":125812,"Delta":48654390},{"NoteNumber":78,"Velocity":17,"Duration":117949,"SoundDuration":117949,"Delta":48654390},{"NoteNumber":73,"Velocity":16,"Duration":125812,"SoundDuration":125812,"Delta":48801171},{"NoteNumber":75,"Velocity":45,"Duration":1203472,"SoundDuration":1203472,"Delta":48806413},{"NoteNumber":78,"Velocity":16,"Duration":125812,"SoundDuration":125812,"Delta":48811655},{"NoteNumber":81,"Velocity":16,"Duration":125812,"SoundDuration":125812,"Delta":48814277},{"NoteNumber":77,"Velocity":22,"Duration":98964,"SoundDuration":98964,"Delta":48958437},{"NoteNumber":87,"Velocity":62,"Duration":1046207,"SoundDuration":1046207,"Delta":48963679},{"NoteNumber":80,"Velocity":22,"Duration":98081,"SoundDuration":98081,"Delta":48965858},{"NoteNumber":81,"Velocity":27,"Duration":98081,"SoundDuration":98081,"Delta":49092275},{"NoteNumber":80,"Velocity":27,"Duration":69747,"SoundDuration":69747,"Delta":49227410},{"NoteNumber":77,"Velocity":27,"Duration":69747,"SoundDuration":69747,"Delta":49229590},{"NoteNumber":80,"Velocity":27,"Duration":98081,"SoundDuration":98081,"Delta":49356007},{"NoteNumber":93,"Velocity":33,"Duration":98081,"SoundDuration":98081,"Delta":49486782},{"NoteNumber":92,"Velocity":33,"Duration":98081,"SoundDuration":98081,"Delta":49621917},{"NoteNumber":89,"Velocity":33,"Duration":98081,"SoundDuration":98081,"Delta":49624097},{"NoteNumber":80,"Velocity":27,"Duration":98081,"SoundDuration":98081,"Delta":49752693},{"NoteNumber":81,"Velocity":27,"Duration":98081,"SoundDuration":98081,"Delta":49876930},{"NoteNumber":71,"Velocity":40,"Duration":1700086,"SoundDuration":1700086,"Delta":49879110},{"NoteNumber":83,"Velocity":56,"Duration":1569310,"SoundDuration":1569310,"Delta":50009886},{"NoteNumber":80,"Velocity":27,"Duration":98081,"SoundDuration":98081,"Delta":50014245},{"NoteNumber":77,"Velocity":27,"Duration":98081,"SoundDuration":98081,"Delta":50016425},{"NoteNumber":81,"Velocity":25,"Duration":98081,"SoundDuration":98081,"Delta":50142841},{"NoteNumber":80,"Velocity":25,"Duration":98081,"SoundDuration":98081,"Delta":50267078},{"NoteNumber":77,"Velocity":25,"Duration":98081,"SoundDuration":98081,"Delta":50269258},{"NoteNumber":68,"Velocity":28,"Duration":98081,"SoundDuration":98081,"Delta":50397854},{"NoteNumber":69,"Velocity":30,"Duration":98081,"SoundDuration":98081,"Delta":50532989},{"NoteNumber":65,"Velocity":28,"Duration":98081,"SoundDuration":98081,"Delta":50659406},{"NoteNumber":68,"Velocity":28,"Duration":98081,"SoundDuration":98081,"Delta":50659406},{"NoteNumber":68,"Velocity":28,"Duration":98081,"SoundDuration":98081,"Delta":50801080},{"NoteNumber":81,"Velocity":31,"Duration":98081,"SoundDuration":98081,"Delta":50925317},{"NoteNumber":77,"Velocity":28,"Duration":98081,"SoundDuration":98081,"Delta":51051734},{"NoteNumber":80,"Velocity":28,"Duration":98081,"SoundDuration":98081,"Delta":51051734},{"NoteNumber":81,"Velocity":30,"Duration":98081,"SoundDuration":98081,"Delta":51182510},{"NoteNumber":77,"Velocity":28,"Duration":69747,"SoundDuration":69747,"Delta":51317645},{"NoteNumber":80,"Velocity":28,"Duration":69747,"SoundDuration":69747,"Delta":51319824},{"NoteNumber":68,"Velocity":45,"Duration":629363,"SoundDuration":629363,"Delta":51448421},{"NoteNumber":80,"Velocity":28,"Duration":98081,"SoundDuration":98081,"Delta":51450600},{"NoteNumber":80,"Velocity":56,"Duration":498587,"SoundDuration":498587,"Delta":51579196},{"NoteNumber":93,"Velocity":31,"Duration":93485,"SoundDuration":93485,"Delta":51581274},{"NoteNumber":92,"Velocity":31,"Duration":93485,"SoundDuration":93485,"Delta":51699688},{"NoteNumber":89,"Velocity":31,"Duration":93485,"SoundDuration":93485,"Delta":51705921},{"NoteNumber":80,"Velocity":23,"Duration":93485,"SoundDuration":93485,"Delta":51830568},{"NoteNumber":81,"Velocity":25,"Duration":93485,"SoundDuration":93485,"Delta":51953137},{"NoteNumber":71,"Velocity":51,"Duration":627327,"SoundDuration":627327,"Delta":51953137},{"NoteNumber":80,"Velocity":25,"Duration":94218,"SoundDuration":94218,"Delta":52073629},{"NoteNumber":77,"Velocity":25,"Duration":94252,"SoundDuration":94252,"Delta":52077784},{"NoteNumber":83,"Velocity":61,"Duration":502681,"SoundDuration":502681,"Delta":52077784},{"NoteNumber":81,"Velocity":25,"Duration":94252,"SoundDuration":94252,"Delta":52205549},{"NoteNumber":77,"Velocity":25,"Duration":94252,"SoundDuration":94252,"Delta":52333313},{"NoteNumber":80,"Velocity":25,"Duration":94252,"SoundDuration":94252,"Delta":52333313},{"NoteNumber":73,"Velocity":53,"Duration":669570,"SoundDuration":669570,"Delta":52454795},{"NoteNumber":68,"Velocity":28,"Duration":94252,"SoundDuration":94252,"Delta":52456889},{"NoteNumber":69,"Velocity":30,"Duration":97829,"SoundDuration":97829,"Delta":52578370},{"NoteNumber":85,"Velocity":62,"Duration":543900,"SoundDuration":543900,"Delta":52580465},{"NoteNumber":68,"Velocity":25,"Duration":97911,"SoundDuration":97911,"Delta":52715365},{"NoteNumber":65,"Velocity":25,"Duration":97911,"SoundDuration":97911,"Delta":52717541},{"NoteNumber":68,"Velocity":25,"Duration":100081,"SoundDuration":100081,"Delta":52848089},{"NoteNumber":81,"Velocity":28,"Duration":110121,"SoundDuration":110121,"Delta":52984878},{"NoteNumber":75,"Velocity":46,"Duration":1144092,"SoundDuration":1144092,"Delta":53026479},{"NoteNumber":80,"Velocity":25,"Duration":98616,"SoundDuration":98616,"Delta":53119471},{"NoteNumber":87,"Velocity":67,"Duration":1046207,"SoundDuration":1046207,"Delta":53124365},{"NoteNumber":77,"Velocity":25,"Duration":98081,"SoundDuration":98081,"Delta":53126544},{"NoteNumber":81,"Velocity":27,"Duration":98081,"SoundDuration":98081,"Delta":53255141},{"NoteNumber":77,"Velocity":27,"Duration":69747,"SoundDuration":69747,"Delta":53383737},{"NoteNumber":80,"Velocity":27,"Duration":69747,"SoundDuration":69747,"Delta":53392455},{"NoteNumber":80,"Velocity":27,"Duration":98081,"SoundDuration":98081,"Delta":53514513},{"NoteNumber":93,"Velocity":30,"Duration":98081,"SoundDuration":98081,"Delta":53651828},{"NoteNumber":89,"Velocity":30,"Duration":98081,"SoundDuration":98081,"Delta":53784783},{"NoteNumber":92,"Velocity":30,"Duration":98081,"SoundDuration":98081,"Delta":53784783},{"NoteNumber":80,"Velocity":27,"Duration":98081,"SoundDuration":98081,"Delta":53915559},{"NoteNumber":71,"Velocity":40,"Duration":1700086,"SoundDuration":1700086,"Delta":54039796},{"NoteNumber":81,"Velocity":27,"Duration":98081,"SoundDuration":98081,"Delta":54041976},{"NoteNumber":80,"Velocity":27,"Duration":98081,"SoundDuration":98081,"Delta":54168392},{"NoteNumber":77,"Velocity":27,"Duration":98081,"SoundDuration":98081,"Delta":54170572},{"NoteNumber":83,"Velocity":61,"Duration":1569310,"SoundDuration":1569310,"Delta":54170572},{"NoteNumber":81,"Velocity":25,"Duration":98081,"SoundDuration":98081,"Delta":54299168},{"NoteNumber":80,"Velocity":25,"Duration":69747,"SoundDuration":69747,"Delta":54427764},{"NoteNumber":77,"Velocity":25,"Duration":69747,"SoundDuration":69747,"Delta":54438662},{"NoteNumber":68,"Velocity":23,"Duration":98081,"SoundDuration":98081,"Delta":54562900},{"NoteNumber":69,"Velocity":30,"Duration":98081,"SoundDuration":98081,"Delta":54689316},{"NoteNumber":68,"Velocity":25,"Duration":98081,"SoundDuration":98081,"Delta":54820092},{"NoteNumber":65,"Velocity":25,"Duration":98081,"SoundDuration":98081,"Delta":54828810},{"NoteNumber":68,"Velocity":25,"Duration":98081,"SoundDuration":98081,"Delta":54950868},{"NoteNumber":81,"Velocity":25,"Duration":98081,"SoundDuration":98081,"Delta":55092542},{"NoteNumber":77,"Velocity":25,"Duration":98081,"SoundDuration":98081,"Delta":55214599},{"NoteNumber":80,"Velocity":25,"Duration":98081,"SoundDuration":98081,"Delta":55214599},{"NoteNumber":81,"Velocity":25,"Duration":98081,"SoundDuration":98081,"Delta":55349734},{"NoteNumber":77,"Velocity":25,"Duration":69747,"SoundDuration":69747,"Delta":55482690},{"NoteNumber":80,"Velocity":25,"Duration":69747,"SoundDuration":69747,"Delta":55484869},{"NoteNumber":68,"Velocity":51,"Duration":629363,"SoundDuration":629363,"Delta":55609107},{"NoteNumber":80,"Velocity":25,"Duration":98081,"SoundDuration":98081,"Delta":55613466},{"NoteNumber":93,"Velocity":33,"Duration":93485,"SoundDuration":93485,"Delta":55739882},{"NoteNumber":80,"Velocity":61,"Duration":520135,"SoundDuration":520135,"Delta":55739882},{"NoteNumber":89,"Velocity":33,"Duration":93485,"SoundDuration":93485,"Delta":55862452},{"NoteNumber":92,"Velocity":33,"Duration":93485,"SoundDuration":93485,"Delta":55868684},{"NoteNumber":80,"Velocity":27,"Duration":93485,"SoundDuration":93485,"Delta":55989176},{"NoteNumber":81,"Velocity":27,"Duration":93485,"SoundDuration":93485,"Delta":56113823},{"NoteNumber":71,"Velocity":45,"Duration":641798,"SoundDuration":641798,"Delta":56113823},{"NoteNumber":83,"Velocity":61,"Duration":517152,"SoundDuration":517152,"Delta":56238470},{"NoteNumber":80,"Velocity":27,"Duration":96966,"SoundDuration":96966,"Delta":56242779},{"NoteNumber":77,"Velocity":27,"Duration":96966,"SoundDuration":96966,"Delta":56244934},{"NoteNumber":81,"Velocity":27,"Duration":96965,"SoundDuration":96965,"Delta":56363448},{"NoteNumber":80,"Velocity":27,"Duration":68953,"SoundDuration":68953,"Delta":56497046},{"NoteNumber":77,"Velocity":27,"Duration":68953,"SoundDuration":68953,"Delta":56499201},{"NoteNumber":73,"Velocity":45,"Duration":674422,"SoundDuration":674422,"Delta":56626334},{"NoteNumber":68,"Velocity":25,"Duration":96966,"SoundDuration":96966,"Delta":56630643},{"NoteNumber":85,"Velocity":61,"Duration":545134,"SoundDuration":545134,"Delta":56755622},{"NoteNumber":69,"Velocity":30,"Duration":97911,"SoundDuration":97911,"Delta":56757798},{"NoteNumber":68,"Velocity":25,"Duration":97911,"SoundDuration":97911,"Delta":56886170},{"NoteNumber":65,"Velocity":25,"Duration":97911,"SoundDuration":97911,"Delta":56888346},{"NoteNumber":68,"Velocity":25,"Duration":98771,"SoundDuration":98771,"Delta":57012367},{"NoteNumber":81,"Velocity":27,"Duration":73877,"SoundDuration":73877,"Delta":57150539},{"NoteNumber":76,"Velocity":41,"Duration":591029,"SoundDuration":591029,"Delta":57226879},{"NoteNumber":80,"Velocity":45,"Duration":554090,"SoundDuration":554090,"Delta":57263818},{"NoteNumber":87,"Velocity":67,"Duration":538910,"SoundDuration":538910,"Delta":57300756},{"NoteNumber":61,"Velocity":31,"Duration":129288,"SoundDuration":129288,"Delta":57300756},{"NoteNumber":64,"Velocity":31,"Duration":129287,"SoundDuration":129287,"Delta":57430044},{"NoteNumber":66,"Velocity":32,"Duration":129288,"SoundDuration":129288,"Delta":57559332},{"NoteNumber":68,"Velocity":35,"Duration":129288,"SoundDuration":129288,"Delta":57688620},{"NoteNumber":85,"Velocity":61,"Duration":543951,"SoundDuration":543951,"Delta":57817908},{"NoteNumber":70,"Velocity":36,"Duration":130548,"SoundDuration":130548,"Delta":57817908},{"NoteNumber":73,"Velocity":38,"Duration":130548,"SoundDuration":130548,"Delta":57948456},{"NoteNumber":76,"Velocity":40,"Duration":130548,"SoundDuration":130548,"Delta":58079005},{"NoteNumber":78,"Velocity":40,"Duration":130548,"SoundDuration":130548,"Delta":58209553},{"NoteNumber":80,"Velocity":60,"Duration":1024320,"SoundDuration":1024320,"Delta":58340101},{"NoteNumber":78,"Velocity":42,"Duration":130128,"SoundDuration":130128,"Delta":58470649},{"NoteNumber":76,"Velocity":40,"Duration":129288,"SoundDuration":129288,"Delta":58600777},{"NoteNumber":73,"Velocity":38,"Duration":128478,"SoundDuration":128478,"Delta":58730065},{"NoteNumber":70,"Velocity":36,"Duration":127669,"SoundDuration":127669,"Delta":58858544},{"NoteNumber":68,"Velocity":36,"Duration":126860,"SoundDuration":126860,"Delta":58986213},{"NoteNumber":66,"Velocity":35,"Duration":126067,"SoundDuration":126067,"Delta":59113074},{"NoteNumber":64,"Velocity":33,"Duration":125280,"SoundDuration":125280,"Delta":59239141},{"NoteNumber":82,"Velocity":59,"Duration":511797,"SoundDuration":511797,"Delta":59364422},{"NoteNumber":61,"Velocity":36,"Duration":124891,"SoundDuration":124891,"Delta":59364422},{"NoteNumber":66,"Velocity":32,"Duration":126787,"SoundDuration":126787,"Delta":59489313},{"NoteNumber":68,"Velocity":33,"Duration":128970,"SoundDuration":128970,"Delta":59616101},{"NoteNumber":70,"Velocity":35,"Duration":131147,"SoundDuration":131147,"Delta":59745071},{"NoteNumber":83,"Velocity":59,"Duration":564152,"SoundDuration":564152,"Delta":59876219},{"NoteNumber":76,"Velocity":35,"Duration":134036,"SoundDuration":134036,"Delta":59876219},{"NoteNumber":70,"Velocity":36,"Duration":135820,"SoundDuration":135820,"Delta":60010255},{"NoteNumber":68,"Velocity":40,"Duration":141484,"SoundDuration":141484,"Delta":60146075},{"NoteNumber":66,"Velocity":42,"Duration":152811,"SoundDuration":152811,"Delta":60287560},{"NoteNumber":72,"Velocity":50,"Duration":450795,"SoundDuration":450795,"Delta":60440371},{"NoteNumber":76,"Velocity":50,"Duration":543966,"SoundDuration":543966,"Delta":60440371},{"NoteNumber":80,"Velocity":50,"Duration":1164847,"SoundDuration":1164847,"Delta":60440371},{"NoteNumber":84,"Velocity":50,"Duration":2170657,"SoundDuration":2170657,"Delta":60440371},{"NoteNumber":58,"Velocity":38,"Duration":2170657,"SoundDuration":2170657,"Delta":60440371},{"NoteNumber":60,"Velocity":40,"Duration":73977,"SoundDuration":73977,"Delta":60518700},{"NoteNumber":68,"Velocity":45,"Duration":73977,"SoundDuration":73977,"Delta":60592678},{"NoteNumber":64,"Velocity":40,"Duration":73977,"SoundDuration":73977,"Delta":60666655},{"NoteNumber":68,"Velocity":45,"Duration":73977,"SoundDuration":73977,"Delta":60740632},{"NoteNumber":72,"Velocity":47,"Duration":504734,"SoundDuration":504734,"Delta":60814610},{"NoteNumber":76,"Velocity":50,"Duration":627019,"SoundDuration":627019,"Delta":60891167},{"NoteNumber":63,"Velocity":65,"Duration":538422,"SoundDuration":538422,"Delta":60979764},{"NoteNumber":75,"Velocity":65,"Duration":538422,"SoundDuration":538422,"Delta":60979764},{"NoteNumber":64,"Velocity":47,"Duration":90825,"SoundDuration":90825,"Delta":61071239},{"NoteNumber":68,"Velocity":47,"Duration":90183,"SoundDuration":90183,"Delta":61162064},{"NoteNumber":72,"Velocity":47,"Duration":178050,"SoundDuration":178050,"Delta":61252247},{"NoteNumber":72,"Velocity":46,"Duration":416632,"SoundDuration":416632,"Delta":61341535},{"NoteNumber":76,"Velocity":46,"Duration":261953,"SoundDuration":261953,"Delta":61430298},{"NoteNumber":80,"Velocity":46,"Duration":1092842,"SoundDuration":1092842,"Delta":61518186},{"NoteNumber":76,"Velocity":45,"Duration":1005810,"SoundDuration":1005810,"Delta":61605219},{"NoteNumber":72,"Velocity":45,"Duration":176389,"SoundDuration":176389,"Delta":61692251},{"NoteNumber":72,"Velocity":42,"Duration":830889,"SoundDuration":830889,"Delta":61780140},{"NoteNumber":68,"Velocity":42,"Duration":89112,"SoundDuration":89112,"Delta":61868640},{"NoteNumber":64,"Velocity":42,"Duration":89637,"SoundDuration":89637,"Delta":61957753},{"NoteNumber":60,"Velocity":45,"Duration":563638,"SoundDuration":563638,"Delta":62047391},{"NoteNumber":64,"Velocity":40,"Duration":90546,"SoundDuration":90546,"Delta":62137938},{"NoteNumber":68,"Velocity":40,"Duration":90546,"SoundDuration":90546,"Delta":62228485},{"NoteNumber":72,"Velocity":38,"Duration":90546,"SoundDuration":90546,"Delta":62319032},{"NoteNumber":76,"Velocity":38,"Duration":734026,"SoundDuration":734026,"Delta":62409578},{"NoteNumber":80,"Velocity":38,"Duration":633301,"SoundDuration":633301,"Delta":62510304},{"NoteNumber":87,"Velocity":81,"Duration":554334,"SoundDuration":554334,"Delta":62611029},{"NoteNumber":56,"Velocity":31,"Duration":133144,"SoundDuration":133144,"Delta":62611029},{"NoteNumber":58,"Velocity":31,"Duration":133144,"SoundDuration":133144,"Delta":62744173},{"NoteNumber":61,"Velocity":36,"Duration":133144,"SoundDuration":133144,"Delta":62877317},{"NoteNumber":64,"Velocity":36,"Duration":133144,"SoundDuration":133144,"Delta":63010461},{"NoteNumber":85,"Velocity":67,"Duration":543951,"SoundDuration":543951,"Delta":63143605},{"NoteNumber":68,"Velocity":36,"Duration":130548,"SoundDuration":130548,"Delta":63143605},{"NoteNumber":70,"Velocity":37,"Duration":130548,"SoundDuration":130548,"Delta":63274153},{"NoteNumber":73,"Velocity":43,"Duration":130548,"SoundDuration":130548,"Delta":63404701},{"NoteNumber":76,"Velocity":43,"Duration":130548,"SoundDuration":130548,"Delta":63535250},{"NoteNumber":80,"Velocity":76,"Duration":1024320,"SoundDuration":1024320,"Delta":63665798},{"NoteNumber":76,"Velocity":42,"Duration":130128,"SoundDuration":130128,"Delta":63796346},{"NoteNumber":73,"Velocity":40,"Duration":129287,"SoundDuration":129287,"Delta":63926474},{"NoteNumber":70,"Velocity":38,"Duration":128478,"SoundDuration":128478,"Delta":64055762},{"NoteNumber":68,"Velocity":40,"Duration":127669,"SoundDuration":127669,"Delta":64184241},{"NoteNumber":64,"Velocity":40,"Duration":126860,"SoundDuration":126860,"Delta":64311910},{"NoteNumber":61,"Velocity":40,"Duration":126067,"SoundDuration":126067,"Delta":64438771},{"NoteNumber":58,"Velocity":38,"Duration":125280,"SoundDuration":125280,"Delta":64564838},{"NoteNumber":82,"Velocity":66,"Duration":515191,"SoundDuration":515191,"Delta":64690119},{"NoteNumber":56,"Velocity":36,"Duration":125361,"SoundDuration":125361,"Delta":64690119},{"NoteNumber":58,"Velocity":36,"Duration":127426,"SoundDuration":127426,"Delta":64815480},{"NoteNumber":61,"Velocity":38,"Duration":130044,"SoundDuration":130044,"Delta":64942907},{"NoteNumber":64,"Velocity":40,"Duration":132359,"SoundDuration":132359,"Delta":65072951},{"NoteNumber":83,"Velocity":71,"Duration":558251,"SoundDuration":558251,"Delta":65205311},{"NoteNumber":71,"Velocity":40,"Duration":134911,"SoundDuration":134911,"Delta":65205311},{"NoteNumber":68,"Velocity":42,"Duration":137685,"SoundDuration":137685,"Delta":65340222},{"NoteNumber":64,"Velocity":42,"Duration":141051,"SoundDuration":141051,"Delta":65477907},{"NoteNumber":61,"Velocity":43,"Duration":144603,"SoundDuration":144603,"Delta":65618959},{"NoteNumber":72,"Velocity":50,"Duration":450795,"SoundDuration":450795,"Delta":65763562},{"NoteNumber":80,"Velocity":50,"Duration":1164847,"SoundDuration":1164847,"Delta":65763562},{"NoteNumber":84,"Velocity":75,"Duration":2159355,"SoundDuration":2159355,"Delta":65763562},{"NoteNumber":52,"Velocity":40,"Duration":2159355,"SoundDuration":2159355,"Delta":65763562},{"NoteNumber":56,"Velocity":45,"Duration":73977,"SoundDuration":73977,"Delta":65841891},{"NoteNumber":58,"Velocity":45,"Duration":73977,"SoundDuration":73977,"Delta":65915868},{"NoteNumber":64,"Velocity":45,"Duration":73977,"SoundDuration":73977,"Delta":65989846},{"NoteNumber":68,"Velocity":46,"Duration":73977,"SoundDuration":73977,"Delta":66063823},{"NoteNumber":72,"Velocity":50,"Duration":504734,"SoundDuration":504734,"Delta":66137800},{"NoteNumber":76,"Velocity":50,"Duration":93170,"SoundDuration":93170,"Delta":66214358},{"NoteNumber":63,"Velocity":62,"Duration":538422,"SoundDuration":538422,"Delta":66302955},{"NoteNumber":75,"Velocity":68,"Duration":538422,"SoundDuration":538422,"Delta":66302955},{"NoteNumber":64,"Velocity":47,"Duration":90825,"SoundDuration":90825,"Delta":66394429},{"NoteNumber":68,"Velocity":47,"Duration":90183,"SoundDuration":90183,"Delta":66485255},{"NoteNumber":72,"Velocity":47,"Duration":178050,"SoundDuration":178050,"Delta":66575438},{"NoteNumber":72,"Velocity":46,"Duration":416632,"SoundDuration":416632,"Delta":66664726},{"NoteNumber":76,"Velocity":46,"Duration":87888,"SoundDuration":87888,"Delta":66753488},{"NoteNumber":80,"Velocity":46,"Duration":1081540,"SoundDuration":1081540,"Delta":66841377},{"NoteNumber":76,"Velocity":45,"Duration":87032,"SoundDuration":87032,"Delta":66928409},{"NoteNumber":72,"Velocity":45,"Duration":176389,"SoundDuration":176389,"Delta":67015442},{"NoteNumber":72,"Velocity":42,"Duration":819587,"SoundDuration":819587,"Delta":67103331},{"NoteNumber":68,"Velocity":42,"Duration":89112,"SoundDuration":89112,"Delta":67191831},{"NoteNumber":64,"Velocity":42,"Duration":89637,"SoundDuration":89637,"Delta":67280944},{"NoteNumber":60,"Velocity":45,"Duration":552336,"SoundDuration":552336,"Delta":67370582},{"NoteNumber":64,"Velocity":40,"Duration":90546,"SoundDuration":90546,"Delta":67461129},{"NoteNumber":68,"Velocity":40,"Duration":90546,"SoundDuration":90546,"Delta":67551675},{"NoteNumber":72,"Velocity":38,"Duration":90546,"SoundDuration":90546,"Delta":67642222},{"NoteNumber":76,"Velocity":38,"Duration":90546,"SoundDuration":90546,"Delta":67732769},{"NoteNumber":80,"Velocity":38,"Duration":99601,"SoundDuration":99601,"Delta":67823316},{"NoteNumber":75,"Velocity":45,"Duration":572709,"SoundDuration":572709,"Delta":67848217},{"NoteNumber":80,"Velocity":55,"Duration":535358,"SoundDuration":535358,"Delta":67885567},{"NoteNumber":87,"Velocity":83,"Duration":519766,"SoundDuration":519766,"Delta":67922918},{"NoteNumber":49,"Velocity":31,"Duration":124502,"SoundDuration":124502,"Delta":67922918},{"NoteNumber":54,"Velocity":31,"Duration":124501,"SoundDuration":124501,"Delta":68047420},{"NoteNumber":56,"Velocity":36,"Duration":124502,"SoundDuration":124502,"Delta":68171922},{"NoteNumber":58,"Velocity":38,"Duration":124501,"SoundDuration":124501,"Delta":68296424},{"NoteNumber":73,"Velocity":67,"Duration":522193,"SoundDuration":522193,"Delta":68420926},{"NoteNumber":85,"Velocity":67,"Duration":543138,"SoundDuration":543138,"Delta":68420926},{"NoteNumber":64,"Velocity":38,"Duration":130548,"SoundDuration":130548,"Delta":68420926},{"NoteNumber":66,"Velocity":38,"Duration":130548,"SoundDuration":130548,"Delta":68551474},{"NoteNumber":68,"Velocity":38,"Duration":130548,"SoundDuration":130548,"Delta":68682022},{"NoteNumber":70,"Velocity":43,"Duration":130548,"SoundDuration":130548,"Delta":68812571},{"NoteNumber":80,"Velocity":76,"Duration":1005362,"SoundDuration":1005362,"Delta":68943119},{"NoteNumber":76,"Velocity":50,"Duration":1005362,"SoundDuration":1005362,"Delta":68943119},{"NoteNumber":78,"Velocity":42,"Duration":100536,"SoundDuration":100536,"Delta":69043655},{"NoteNumber":73,"Velocity":40,"Duration":100536,"SoundDuration":100536,"Delta":69144191},{"NoteNumber":68,"Velocity":38,"Duration":100536,"SoundDuration":100536,"Delta":69244727},{"NoteNumber":66,"Velocity":40,"Duration":100536,"SoundDuration":100536,"Delta":69345264},{"NoteNumber":64,"Velocity":40,"Duration":125670,"SoundDuration":125670,"Delta":69445800},{"NoteNumber":58,"Velocity":40,"Duration":125670,"SoundDuration":125670,"Delta":69571470},{"NoteNumber":56,"Velocity":40,"Duration":125670,"SoundDuration":125670,"Delta":69697140},{"NoteNumber":54,"Velocity":38,"Duration":125670,"SoundDuration":125670,"Delta":69822811},{"NoteNumber":70,"Velocity":65,"Duration":507442,"SoundDuration":507442,"Delta":69948481},{"NoteNumber":82,"Velocity":65,"Duration":507442,"SoundDuration":507442,"Delta":69948481},{"NoteNumber":49,"Velocity":36,"Duration":101488,"SoundDuration":101488,"Delta":69948481},{"NoteNumber":54,"Velocity":36,"Duration":101488,"SoundDuration":101488,"Delta":70049969},{"NoteNumber":56,"Velocity":38,"Duration":101488,"SoundDuration":101488,"Delta":70151458},{"NoteNumber":58,"Velocity":40,"Duration":101488,"SoundDuration":101488,"Delta":70252946},{"NoteNumber":64,"Velocity":40,"Duration":101488,"SoundDuration":101488,"Delta":70354435},{"NoteNumber":71,"Velocity":68,"Duration":537811,"SoundDuration":537811,"Delta":70455923},{"NoteNumber":83,"Velocity":68,"Duration":537811,"SoundDuration":537811,"Delta":70455923},{"NoteNumber":68,"Velocity":40,"Duration":101488,"SoundDuration":101488,"Delta":70455923},{"NoteNumber":64,"Velocity":45,"Duration":101488,"SoundDuration":101488,"Delta":70557412},{"NoteNumber":58,"Velocity":45,"Duration":101488,"SoundDuration":101488,"Delta":70658900},{"NoteNumber":56,"Velocity":45,"Duration":101488,"SoundDuration":101488,"Delta":70760389},{"NoteNumber":54,"Velocity":46,"Duration":131857,"SoundDuration":131857,"Delta":70861877},{"NoteNumber":84,"Velocity":71,"Duration":554528,"SoundDuration":554528,"Delta":70993735},{"NoteNumber":92,"Velocity":71,"Duration":577165,"SoundDuration":577165,"Delta":70993735},{"NoteNumber":80,"Velocity":71,"Duration":554528,"SoundDuration":554528,"Delta":70993735},{"NoteNumber":46,"Velocity":45,"Duration":138632,"SoundDuration":138632,"Delta":70993735},{"NoteNumber":52,"Velocity":45,"Duration":138632,"SoundDuration":138632,"Delta":71132367},{"NoteNumber":56,"Velocity":45,"Duration":138632,"SoundDuration":138632,"Delta":71270999},{"NoteNumber":60,"Velocity":45,"Duration":115526,"SoundDuration":115526,"Delta":71409631},{"NoteNumber":88,"Velocity":68,"Duration":565253,"SoundDuration":565253,"Delta":71548263},{"NoteNumber":76,"Velocity":68,"Duration":543281,"SoundDuration":543281,"Delta":71548263},{"NoteNumber":60,"Velocity":40,"Duration":135820,"SoundDuration":135820,"Delta":71548263},{"NoteNumber":64,"Velocity":40,"Duration":135820,"SoundDuration":135820,"Delta":71684083},{"NoteNumber":68,"Velocity":40,"Duration":135820,"SoundDuration":135820,"Delta":71819904},{"NoteNumber":72,"Velocity":40,"Duration":135820,"SoundDuration":135820,"Delta":71955724},{"NoteNumber":72,"Velocity":66,"Duration":1039034,"SoundDuration":1039034,"Delta":72091545},{"NoteNumber":76,"Velocity":66,"Duration":1039034,"SoundDuration":1039034,"Delta":72091545},{"NoteNumber":84,"Velocity":66,"Duration":1039034,"SoundDuration":1039034,"Delta":72091545},{"NoteNumber":75,"Velocity":40,"Duration":131833,"SoundDuration":131833,"Delta":72091545},{"NoteNumber":80,"Velocity":40,"Duration":130976,"SoundDuration":130976,"Delta":72223378},{"NoteNumber":75,"Velocity":40,"Duration":130128,"SoundDuration":130128,"Delta":72354355},{"NoteNumber":70,"Velocity":45,"Duration":128883,"SoundDuration":128883,"Delta":72484483},{"NoteNumber":72,"Velocity":45,"Duration":128073,"SoundDuration":128073,"Delta":72613366},{"NoteNumber":68,"Velocity":45,"Duration":128883,"SoundDuration":128883,"Delta":72741440},{"NoteNumber":64,"Velocity":40,"Duration":129708,"SoundDuration":129708,"Delta":72870323},{"NoteNumber":60,"Velocity":40,"Duration":130548,"SoundDuration":130548,"Delta":73000031},{"NoteNumber":85,"Velocity":57,"Duration":366410,"SoundDuration":366410,"Delta":73130579},{"NoteNumber":73,"Velocity":57,"Duration":366410,"SoundDuration":366410,"Delta":73130579},{"NoteNumber":80,"Velocity":57,"Duration":1146435,"SoundDuration":1146435,"Delta":73130579},{"NoteNumber":63,"Velocity":36,"Duration":90546,"SoundDuration":90546,"Delta":73130579},{"NoteNumber":61,"Velocity":36,"Duration":91010,"SoundDuration":91010,"Delta":73221126},{"NoteNumber":58,"Velocity":36,"Duration":91947,"SoundDuration":91947,"Delta":73312137},{"NoteNumber":56,"Velocity":36,"Duration":92904,"SoundDuration":92904,"Delta":73404085},{"NoteNumber":87,"Velocity":56,"Duration":381534,"SoundDuration":381534,"Delta":73496990},{"NoteNumber":75,"Velocity":56,"Duration":381534,"SoundDuration":381534,"Delta":73496990},{"NoteNumber":61,"Velocity":36,"Duration":93872,"SoundDuration":93872,"Delta":73496990},{"NoteNumber":58,"Velocity":36,"Duration":94861,"SoundDuration":94861,"Delta":73590862},{"NoteNumber":56,"Velocity":35,"Duration":95880,"SoundDuration":95880,"Delta":73685724},{"NoteNumber":52,"Velocity":35,"Duration":96920,"SoundDuration":96920,"Delta":73781604},{"NoteNumber":88,"Velocity":53,"Duration":398490,"SoundDuration":398490,"Delta":73878525},{"NoteNumber":76,"Velocity":53,"Duration":398490,"SoundDuration":398490,"Delta":73878525},{"NoteNumber":56,"Velocity":35,"Duration":97974,"SoundDuration":97974,"Delta":73878525},{"NoteNumber":52,"Velocity":35,"Duration":99052,"SoundDuration":99052,"Delta":73976500},{"NoteNumber":49,"Velocity":35,"Duration":100163,"SoundDuration":100163,"Delta":74075552},{"NoteNumber":46,"Velocity":35,"Duration":101299,"SoundDuration":101299,"Delta":74175715},{"NoteNumber":94,"Velocity":53,"Duration":717102,"SoundDuration":717102,"Delta":74277015},{"NoteNumber":87,"Velocity":53,"Duration":717102,"SoundDuration":717102,"Delta":74277015},{"NoteNumber":82,"Velocity":53,"Duration":717102,"SoundDuration":717102,"Delta":74277015},{"NoteNumber":32,"Velocity":27,"Duration":89637,"SoundDuration":89637,"Delta":74277015},{"NoteNumber":34,"Velocity":30,"Duration":89637,"SoundDuration":89637,"Delta":74366653},{"NoteNumber":36,"Velocity":30,"Duration":89637,"SoundDuration":89637,"Delta":74456291},{"NoteNumber":37,"Velocity":30,"Duration":89637,"SoundDuration":89637,"Delta":74545929},{"NoteNumber":39,"Velocity":30,"Duration":89637,"SoundDuration":89637,"Delta":74635567},{"NoteNumber":41,"Velocity":30,"Duration":89637,"SoundDuration":89637,"Delta":74725204},{"NoteNumber":43,"Velocity":30,"Duration":89637,"SoundDuration":89637,"Delta":74814842},{"NoteNumber":44,"Velocity":30,"Duration":89637,"SoundDuration":89637,"Delta":74904480},{"NoteNumber":92,"Velocity":53,"Duration":717103,"SoundDuration":717103,"Delta":74994118},{"NoteNumber":89,"Velocity":53,"Duration":717103,"SoundDuration":717103,"Delta":74994118},{"NoteNumber":80,"Velocity":53,"Duration":717103,"SoundDuration":717103,"Delta":74994118},{"NoteNumber":46,"Velocity":30,"Duration":89637,"SoundDuration":89637,"Delta":74994118},{"NoteNumber":48,"Velocity":30,"Duration":89637,"SoundDuration":89637,"Delta":75083756},{"NoteNumber":49,"Velocity":30,"Duration":89637,"SoundDuration":89637,"Delta":75173394},{"NoteNumber":51,"Velocity":30,"Duration":89637,"SoundDuration":89637,"Delta":75263032},{"NoteNumber":53,"Velocity":30,"Duration":89637,"SoundDuration":89637,"Delta":75352670},{"NoteNumber":55,"Velocity":30,"Duration":89637,"SoundDuration":89637,"Delta":75442307},{"NoteNumber":56,"Velocity":30,"Duration":89637,"SoundDuration":89637,"Delta":75531945},{"NoteNumber":58,"Velocity":30,"Duration":89637,"SoundDuration":89637,"Delta":75621583},{"NoteNumber":72,"Velocity":42,"Duration":809409,"SoundDuration":809409,"Delta":75711221},{"NoteNumber":75,"Velocity":42,"Duration":809409,"SoundDuration":809409,"Delta":75711221},{"NoteNumber":79,"Velocity":42,"Duration":809409,"SoundDuration":809409,"Delta":75711221},{"NoteNumber":84,"Velocity":42,"Duration":809409,"SoundDuration":809409,"Delta":75711221},{"NoteNumber":60,"Velocity":23,"Duration":89839,"SoundDuration":89839,"Delta":75711221},{"NoteNumber":61,"Velocity":23,"Duration":91267,"SoundDuration":91267,"Delta":75801060},{"NoteNumber":63,"Velocity":23,"Duration":92736,"SoundDuration":92736,"Delta":75892328},{"NoteNumber":65,"Velocity":22,"Duration":94035,"SoundDuration":94035,"Delta":75985065},{"NoteNumber":67,"Velocity":22,"Duration":76378,"SoundDuration":76378,"Delta":76079100},{"NoteNumber":68,"Velocity":22,"Duration":77438,"SoundDuration":77438,"Delta":76155478},{"NoteNumber":70,"Velocity":22,"Duration":78285,"SoundDuration":78285,"Delta":76232917},{"NoteNumber":72,"Velocity":22,"Duration":79634,"SoundDuration":79634,"Delta":76311202},{"NoteNumber":73,"Velocity":22,"Duration":129794,"SoundDuration":129794,"Delta":76390837},{"NoteNumber":63,"Velocity":30,"Duration":3330436,"SoundDuration":3330436,"Delta":76447872},{"NoteNumber":68,"Velocity":22,"Duration":185812,"SoundDuration":185812,"Delta":76462424},{"NoteNumber":70,"Velocity":22,"Duration":171260,"SoundDuration":171260,"Delta":76476975},{"NoteNumber":73,"Velocity":22,"Duration":159367,"SoundDuration":159367,"Delta":76491527},{"NoteNumber":77,"Velocity":22,"Duration":142157,"SoundDuration":142157,"Delta":76506079},{"NoteNumber":82,"Velocity":62,"Duration":2098018,"SoundDuration":2098018,"Delta":76520631},{"NoteNumber":79,"Velocity":23,"Duration":122000,"SoundDuration":122000,"Delta":76680137},{"NoteNumber":75,"Velocity":23,"Duration":122000,"SoundDuration":122000,"Delta":76680137},{"NoteNumber":79,"Velocity":27,"Duration":108833,"SoundDuration":108833,"Delta":76832638},{"NoteNumber":75,"Velocity":27,"Duration":108833,"SoundDuration":108833,"Delta":76832638},{"NoteNumber":77,"Velocity":22,"Duration":111008,"SoundDuration":111008,"Delta":76968681},{"NoteNumber":73,"Velocity":22,"Duration":111008,"SoundDuration":111008,"Delta":76968681},{"NoteNumber":70,"Velocity":22,"Duration":111008,"SoundDuration":111008,"Delta":76968681},{"NoteNumber":68,"Velocity":22,"Duration":111008,"SoundDuration":111008,"Delta":76968681},{"NoteNumber":75,"Velocity":27,"Duration":104748,"SoundDuration":104748,"Delta":77107441},{"NoteNumber":79,"Velocity":27,"Duration":104748,"SoundDuration":104748,"Delta":77107441},{"NoteNumber":68,"Velocity":22,"Duration":104748,"SoundDuration":104748,"Delta":77238377},{"NoteNumber":77,"Velocity":22,"Duration":104748,"SoundDuration":104748,"Delta":77238377},{"NoteNumber":70,"Velocity":22,"Duration":104748,"SoundDuration":104748,"Delta":77238377},{"NoteNumber":73,"Velocity":22,"Duration":104748,"SoundDuration":104748,"Delta":77238377},{"NoteNumber":68,"Velocity":22,"Duration":104748,"SoundDuration":104748,"Delta":77369312},{"NoteNumber":70,"Velocity":22,"Duration":104748,"SoundDuration":104748,"Delta":77369312},{"NoteNumber":77,"Velocity":22,"Duration":104748,"SoundDuration":104748,"Delta":77369312},{"NoteNumber":73,"Velocity":22,"Duration":104748,"SoundDuration":104748,"Delta":77369312},{"NoteNumber":75,"Velocity":28,"Duration":104748,"SoundDuration":104748,"Delta":77500248},{"NoteNumber":79,"Velocity":28,"Duration":104748,"SoundDuration":104748,"Delta":77500248},{"NoteNumber":68,"Velocity":22,"Duration":105726,"SoundDuration":105726,"Delta":77631184},{"NoteNumber":77,"Velocity":22,"Duration":105726,"SoundDuration":105726,"Delta":77631184},{"NoteNumber":70,"Velocity":22,"Duration":105726,"SoundDuration":105726,"Delta":77631184},{"NoteNumber":73,"Velocity":22,"Duration":105726,"SoundDuration":105726,"Delta":77631184},{"NoteNumber":75,"Velocity":28,"Duration":99124,"SoundDuration":99124,"Delta":77763343},{"NoteNumber":79,"Velocity":28,"Duration":99124,"SoundDuration":99124,"Delta":77763343},{"NoteNumber":75,"Velocity":30,"Duration":92506,"SoundDuration":92506,"Delta":77887248},{"NoteNumber":79,"Velocity":30,"Duration":92506,"SoundDuration":92506,"Delta":77887248},{"NoteNumber":68,"Velocity":22,"Duration":103752,"SoundDuration":103752,"Delta":78002882},{"NoteNumber":70,"Velocity":22,"Duration":103752,"SoundDuration":103752,"Delta":78002882},{"NoteNumber":73,"Velocity":22,"Duration":103752,"SoundDuration":103752,"Delta":78002882},{"NoteNumber":77,"Velocity":22,"Duration":103752,"SoundDuration":103752,"Delta":78002882},{"NoteNumber":75,"Velocity":30,"Duration":96525,"SoundDuration":96525,"Delta":78132572},{"NoteNumber":79,"Velocity":30,"Duration":96525,"SoundDuration":96525,"Delta":78132572},{"NoteNumber":68,"Velocity":22,"Duration":99124,"SoundDuration":99124,"Delta":78253229},{"NoteNumber":70,"Velocity":22,"Duration":99124,"SoundDuration":99124,"Delta":78253229},{"NoteNumber":73,"Velocity":22,"Duration":99124,"SoundDuration":99124,"Delta":78253229},{"NoteNumber":77,"Velocity":22,"Duration":99124,"SoundDuration":99124,"Delta":78253229},{"NoteNumber":77,"Velocity":22,"Duration":99124,"SoundDuration":99124,"Delta":78377134},{"NoteNumber":73,"Velocity":22,"Duration":99124,"SoundDuration":99124,"Delta":78377134},{"NoteNumber":70,"Velocity":22,"Duration":99124,"SoundDuration":99124,"Delta":78377134},{"NoteNumber":68,"Velocity":22,"Duration":99124,"SoundDuration":99124,"Delta":78377134},{"NoteNumber":75,"Velocity":31,"Duration":94088,"SoundDuration":94088,"Delta":78501040},{"NoteNumber":79,"Velocity":31,"Duration":94088,"SoundDuration":94088,"Delta":78501040},{"NoteNumber":81,"Velocity":65,"Duration":590696,"SoundDuration":590696,"Delta":78618650},{"NoteNumber":67,"Velocity":23,"Duration":109930,"SoundDuration":109930,"Delta":78618650},{"NoteNumber":69,"Velocity":23,"Duration":109930,"SoundDuration":109930,"Delta":78618650},{"NoteNumber":76,"Velocity":23,"Duration":109930,"SoundDuration":109930,"Delta":78618650},{"NoteNumber":73,"Velocity":31,"Duration":106742,"SoundDuration":106742,"Delta":78756063},{"NoteNumber":78,"Velocity":31,"Duration":106742,"SoundDuration":106742,"Delta":78756063},{"NoteNumber":73,"Velocity":31,"Duration":118203,"SoundDuration":118203,"Delta":78889491},{"NoteNumber":78,"Velocity":31,"Duration":118203,"SoundDuration":118203,"Delta":78889491},{"NoteNumber":67,"Velocity":23,"Duration":118203,"SoundDuration":118203,"Delta":79037245},{"NoteNumber":69,"Velocity":23,"Duration":118203,"SoundDuration":118203,"Delta":79037245},{"NoteNumber":76,"Velocity":23,"Duration":118203,"SoundDuration":118203,"Delta":79037245},{"NoteNumber":84,"Velocity":68,"Duration":615546,"SoundDuration":615546,"Delta":79184999},{"NoteNumber":81,"Velocity":31,"Duration":116867,"SoundDuration":116867,"Delta":79184999},{"NoteNumber":76,"Velocity":31,"Duration":116867,"SoundDuration":116867,"Delta":79184999},{"NoteNumber":70,"Velocity":22,"Duration":116867,"SoundDuration":116867,"Delta":79331084},{"NoteNumber":72,"Velocity":22,"Duration":116867,"SoundDuration":116867,"Delta":79331084},{"NoteNumber":79,"Velocity":22,"Duration":116867,"SoundDuration":116867,"Delta":79331084},{"NoteNumber":70,"Velocity":22,"Duration":117764,"SoundDuration":117764,"Delta":79477169},{"NoteNumber":72,"Velocity":22,"Duration":117764,"SoundDuration":117764,"Delta":79477169},{"NoteNumber":79,"Velocity":22,"Duration":117764,"SoundDuration":117764,"Delta":79477169},{"NoteNumber":81,"Velocity":23,"Duration":122249,"SoundDuration":122249,"Delta":79625496},{"NoteNumber":76,"Velocity":23,"Duration":122249,"SoundDuration":122249,"Delta":79625496},{"NoteNumber":63,"Velocity":31,"Duration":3273570,"SoundDuration":3273570,"Delta":79714636},{"NoteNumber":68,"Velocity":22,"Duration":157679,"SoundDuration":157679,"Delta":79727371},{"NoteNumber":70,"Velocity":22,"Duration":144945,"SoundDuration":144945,"Delta":79740105},{"NoteNumber":73,"Velocity":22,"Duration":132211,"SoundDuration":132211,"Delta":79752839},{"NoteNumber":77,"Velocity":22,"Duration":119476,"SoundDuration":119476,"Delta":79765574},{"NoteNumber":82,"Velocity":63,"Duration":1560187,"SoundDuration":1560187,"Delta":79778308},{"NoteNumber":79,"Velocity":23,"Duration":103752,"SoundDuration":103752,"Delta":79911736},{"NoteNumber":75,"Velocity":23,"Duration":103752,"SoundDuration":103752,"Delta":79911736},{"NoteNumber":75,"Velocity":23,"Duration":103752,"SoundDuration":103752,"Delta":80041427},{"NoteNumber":79,"Velocity":23,"Duration":103752,"SoundDuration":103752,"Delta":80041427},{"NoteNumber":73,"Velocity":22,"Duration":107797,"SoundDuration":107797,"Delta":80171117},{"NoteNumber":77,"Velocity":22,"Duration":107797,"SoundDuration":107797,"Delta":80171117},{"NoteNumber":70,"Velocity":22,"Duration":107797,"SoundDuration":107797,"Delta":80171117},{"NoteNumber":68,"Velocity":22,"Duration":107797,"SoundDuration":107797,"Delta":80171117},{"NoteNumber":79,"Velocity":23,"Duration":107797,"SoundDuration":107797,"Delta":80305864},{"NoteNumber":75,"Velocity":23,"Duration":107797,"SoundDuration":107797,"Delta":80305864},{"NoteNumber":68,"Velocity":22,"Duration":101850,"SoundDuration":101850,"Delta":80440610},{"NoteNumber":73,"Velocity":22,"Duration":101850,"SoundDuration":101850,"Delta":80440610},{"NoteNumber":70,"Velocity":22,"Duration":101850,"SoundDuration":101850,"Delta":80440610},{"NoteNumber":77,"Velocity":22,"Duration":101850,"SoundDuration":101850,"Delta":80440610},{"NoteNumber":70,"Velocity":22,"Duration":101850,"SoundDuration":101850,"Delta":80567923},{"NoteNumber":68,"Velocity":22,"Duration":101850,"SoundDuration":101850,"Delta":80567923},{"NoteNumber":77,"Velocity":22,"Duration":101850,"SoundDuration":101850,"Delta":80567923},{"NoteNumber":73,"Velocity":22,"Duration":101850,"SoundDuration":101850,"Delta":80567923},{"NoteNumber":79,"Velocity":27,"Duration":99124,"SoundDuration":99124,"Delta":80695236},{"NoteNumber":75,"Velocity":27,"Duration":99124,"SoundDuration":99124,"Delta":80695236},{"NoteNumber":68,"Velocity":22,"Duration":99124,"SoundDuration":99124,"Delta":80819142},{"NoteNumber":73,"Velocity":22,"Duration":99124,"SoundDuration":99124,"Delta":80819142},{"NoteNumber":70,"Velocity":22,"Duration":99124,"SoundDuration":99124,"Delta":80819142},{"NoteNumber":77,"Velocity":22,"Duration":99124,"SoundDuration":99124,"Delta":80819142},{"NoteNumber":79,"Velocity":27,"Duration":99124,"SoundDuration":99124,"Delta":80943047},{"NoteNumber":75,"Velocity":27,"Duration":99124,"SoundDuration":99124,"Delta":80943047},{"NoteNumber":75,"Velocity":28,"Duration":99124,"SoundDuration":99124,"Delta":81066953},{"NoteNumber":79,"Velocity":28,"Duration":99124,"SoundDuration":99124,"Delta":81066953},{"NoteNumber":70,"Velocity":22,"Duration":118110,"SoundDuration":118110,"Delta":81190858},{"NoteNumber":73,"Velocity":22,"Duration":118110,"SoundDuration":118110,"Delta":81190858},{"NoteNumber":77,"Velocity":22,"Duration":118110,"SoundDuration":118110,"Delta":81190858},{"NoteNumber":68,"Velocity":22,"Duration":118110,"SoundDuration":118110,"Delta":81190858},{"NoteNumber":82,"Velocity":67,"Duration":544168,"SoundDuration":544168,"Delta":81338496},{"NoteNumber":75,"Velocity":28,"Duration":108833,"SoundDuration":108833,"Delta":81338496},{"NoteNumber":79,"Velocity":28,"Duration":108833,"SoundDuration":108833,"Delta":81338496},{"NoteNumber":77,"Velocity":22,"Duration":108833,"SoundDuration":108833,"Delta":81474538},{"NoteNumber":68,"Velocity":22,"Duration":108833,"SoundDuration":108833,"Delta":81474538},{"NoteNumber":70,"Velocity":22,"Duration":108833,"SoundDuration":108833,"Delta":81474538},{"NoteNumber":73,"Velocity":22,"Duration":108833,"SoundDuration":108833,"Delta":81474538},{"NoteNumber":70,"Velocity":22,"Duration":108833,"SoundDuration":108833,"Delta":81610580},{"NoteNumber":77,"Velocity":22,"Duration":108833,"SoundDuration":108833,"Delta":81610580},{"NoteNumber":73,"Velocity":22,"Duration":108833,"SoundDuration":108833,"Delta":81610580},{"NoteNumber":68,"Velocity":22,"Duration":108833,"SoundDuration":108833,"Delta":81610580},{"NoteNumber":79,"Velocity":30,"Duration":108833,"SoundDuration":108833,"Delta":81746622},{"NoteNumber":75,"Velocity":30,"Duration":108833,"SoundDuration":108833,"Delta":81746622},{"NoteNumber":81,"Velocity":72,"Duration":557981,"SoundDuration":557981,"Delta":81882664},{"NoteNumber":76,"Velocity":22,"Duration":111008,"SoundDuration":111008,"Delta":81882664},{"NoteNumber":67,"Velocity":22,"Duration":111008,"SoundDuration":111008,"Delta":81882664},{"NoteNumber":69,"Velocity":22,"Duration":111008,"SoundDuration":111008,"Delta":81882664},{"NoteNumber":73,"Velocity":30,"Duration":106742,"SoundDuration":106742,"Delta":82021425},{"NoteNumber":78,"Velocity":30,"Duration":106742,"SoundDuration":106742,"Delta":82021425},{"NoteNumber":73,"Velocity":31,"Duration":106742,"SoundDuration":106742,"Delta":82154853},{"NoteNumber":78,"Velocity":31,"Duration":106742,"SoundDuration":106742,"Delta":82154853},{"NoteNumber":69,"Velocity":22,"Duration":103752,"SoundDuration":103752,"Delta":82288281},{"NoteNumber":67,"Velocity":22,"Duration":103752,"SoundDuration":103752,"Delta":82288281},{"NoteNumber":76,"Velocity":22,"Duration":103752,"SoundDuration":103752,"Delta":82288281},{"NoteNumber":85,"Velocity":67,"Duration":592692,"SoundDuration":592692,"Delta":82417972},{"NoteNumber":76,"Velocity":31,"Duration":108833,"SoundDuration":108833,"Delta":82417972},{"NoteNumber":82,"Velocity":31,"Duration":108833,"SoundDuration":108833,"Delta":82417972},{"NoteNumber":79,"Velocity":22,"Duration":108833,"SoundDuration":108833,"Delta":82554014},{"NoteNumber":70,"Velocity":22,"Duration":108833,"SoundDuration":108833,"Delta":82554014},{"NoteNumber":73,"Velocity":22,"Duration":108833,"SoundDuration":108833,"Delta":82554014},{"NoteNumber":79,"Velocity":22,"Duration":108833,"SoundDuration":108833,"Delta":82690056},{"NoteNumber":70,"Velocity":22,"Duration":108833,"SoundDuration":108833,"Delta":82690056},{"NoteNumber":73,"Velocity":22,"Duration":108833,"SoundDuration":108833,"Delta":82690056},{"NoteNumber":82,"Velocity":23,"Duration":129314,"SoundDuration":129314,"Delta":82826098},{"NoteNumber":76,"Velocity":23,"Duration":129314,"SoundDuration":129314,"Delta":82826098},{"NoteNumber":63,"Velocity":31,"Duration":3259288,"SoundDuration":3259288,"Delta":82919886},{"NoteNumber":68,"Velocity":22,"Duration":162454,"SoundDuration":162454,"Delta":82933550},{"NoteNumber":70,"Velocity":22,"Duration":148789,"SoundDuration":148789,"Delta":82947214},{"NoteNumber":73,"Velocity":22,"Duration":135125,"SoundDuration":135125,"Delta":82960878},{"NoteNumber":77,"Velocity":22,"Duration":121461,"SoundDuration":121461,"Delta":82974542},{"NoteNumber":82,"Velocity":63,"Duration":1555837,"SoundDuration":1555837,"Delta":82988207},{"NoteNumber":79,"Velocity":23,"Duration":103752,"SoundDuration":103752,"Delta":83122953},{"NoteNumber":75,"Velocity":23,"Duration":103752,"SoundDuration":103752,"Delta":83122953},{"NoteNumber":79,"Velocity":23,"Duration":103752,"SoundDuration":103752,"Delta":83252644},{"NoteNumber":75,"Velocity":23,"Duration":103752,"SoundDuration":103752,"Delta":83252644},{"NoteNumber":77,"Velocity":22,"Duration":103752,"SoundDuration":103752,"Delta":83382334},{"NoteNumber":73,"Velocity":22,"Duration":103752,"SoundDuration":103752,"Delta":83382334},{"NoteNumber":70,"Velocity":22,"Duration":103752,"SoundDuration":103752,"Delta":83382334},{"NoteNumber":68,"Velocity":22,"Duration":103752,"SoundDuration":103752,"Delta":83382334},{"NoteNumber":75,"Velocity":23,"Duration":106742,"SoundDuration":106742,"Delta":83512025},{"NoteNumber":79,"Velocity":23,"Duration":106742,"SoundDuration":106742,"Delta":83512025},{"NoteNumber":68,"Velocity":22,"Duration":103752,"SoundDuration":103752,"Delta":83645453},{"NoteNumber":77,"Velocity":22,"Duration":103752,"SoundDuration":103752,"Delta":83645453},{"NoteNumber":70,"Velocity":22,"Duration":103752,"SoundDuration":103752,"Delta":83645453},{"NoteNumber":73,"Velocity":22,"Duration":103752,"SoundDuration":103752,"Delta":83645453},{"NoteNumber":68,"Velocity":22,"Duration":103752,"SoundDuration":103752,"Delta":83775143},{"NoteNumber":70,"Velocity":22,"Duration":103752,"SoundDuration":103752,"Delta":83775143},{"NoteNumber":77,"Velocity":22,"Duration":103752,"SoundDuration":103752,"Delta":83775143},{"NoteNumber":73,"Velocity":22,"Duration":103752,"SoundDuration":103752,"Delta":83775143},{"NoteNumber":75,"Velocity":27,"Duration":103752,"SoundDuration":103752,"Delta":83904834},{"NoteNumber":79,"Velocity":27,"Duration":103752,"SoundDuration":103752,"Delta":83904834},{"NoteNumber":68,"Velocity":22,"Duration":100016,"SoundDuration":100016,"Delta":84034524},{"NoteNumber":77,"Velocity":22,"Duration":100016,"SoundDuration":100016,"Delta":84034524},{"NoteNumber":70,"Velocity":22,"Duration":100016,"SoundDuration":100016,"Delta":84034524},{"NoteNumber":73,"Velocity":22,"Duration":100016,"SoundDuration":100016,"Delta":84034524},{"NoteNumber":75,"Velocity":27,"Duration":100016,"SoundDuration":100016,"Delta":84159545},{"NoteNumber":79,"Velocity":27,"Duration":100016,"SoundDuration":100016,"Delta":84159545},{"NoteNumber":75,"Velocity":28,"Duration":100016,"SoundDuration":100016,"Delta":84284566},{"NoteNumber":79,"Velocity":28,"Duration":100016,"SoundDuration":100016,"Delta":84284566},{"NoteNumber":68,"Velocity":22,"Duration":107565,"SoundDuration":107565,"Delta":84409587},{"NoteNumber":73,"Velocity":22,"Duration":107565,"SoundDuration":107565,"Delta":84409587},{"NoteNumber":77,"Velocity":22,"Duration":107565,"SoundDuration":107565,"Delta":84409587},{"NoteNumber":70,"Velocity":63,"Duration":992016,"SoundDuration":992016,"Delta":84544044},{"NoteNumber":82,"Velocity":63,"Duration":992016,"SoundDuration":992016,"Delta":84544044},{"NoteNumber":75,"Velocity":28,"Duration":101488,"SoundDuration":101488,"Delta":84544044},{"NoteNumber":79,"Velocity":28,"Duration":101488,"SoundDuration":101488,"Delta":84544044},{"NoteNumber":68,"Velocity":22,"Duration":101488,"SoundDuration":101488,"Delta":84670904},{"NoteNumber":77,"Velocity":22,"Duration":101488,"SoundDuration":101488,"Delta":84670904},{"NoteNumber":77,"Velocity":22,"Duration":101488,"SoundDuration":101488,"Delta":84797765},{"NoteNumber":68,"Velocity":22,"Duration":101488,"SoundDuration":101488,"Delta":84797765},{"NoteNumber":75,"Velocity":28,"Duration":101488,"SoundDuration":101488,"Delta":84924626},{"NoteNumber":79,"Velocity":28,"Duration":101488,"SoundDuration":101488,"Delta":84924626},{"NoteNumber":73,"Velocity":22,"Duration":96914,"SoundDuration":96914,"Delta":85051486},{"NoteNumber":70,"Velocity":22,"Duration":96914,"SoundDuration":96914,"Delta":85051486},{"NoteNumber":68,"Velocity":22,"Duration":96914,"SoundDuration":96914,"Delta":85051486},{"NoteNumber":77,"Velocity":22,"Duration":96914,"SoundDuration":96914,"Delta":85051486},{"NoteNumber":75,"Velocity":30,"Duration":96914,"SoundDuration":96914,"Delta":85172630},{"NoteNumber":79,"Velocity":30,"Duration":96914,"SoundDuration":96914,"Delta":85172630},{"NoteNumber":75,"Velocity":30,"Duration":96914,"SoundDuration":96914,"Delta":85293774},{"NoteNumber":79,"Velocity":30,"Duration":96914,"SoundDuration":96914,"Delta":85293774},{"NoteNumber":68,"Velocity":22,"Duration":96914,"SoundDuration":96914,"Delta":85414917},{"NoteNumber":70,"Velocity":22,"Duration":96914,"SoundDuration":96914,"Delta":85414917},{"NoteNumber":82,"Velocity":62,"Duration":643113,"SoundDuration":643113,"Delta":85536061},{"NoteNumber":77,"Velocity":62,"Duration":643113,"SoundDuration":643113,"Delta":85536061},{"NoteNumber":89,"Velocity":62,"Duration":643113,"SoundDuration":643113,"Delta":85536061},{"NoteNumber":79,"Velocity":30,"Duration":119521,"SoundDuration":119521,"Delta":85536061},{"NoteNumber":73,"Velocity":30,"Duration":119521,"SoundDuration":119521,"Delta":85536061},{"NoteNumber":68,"Velocity":22,"Duration":119521,"SoundDuration":119521,"Delta":85685463},{"NoteNumber":70,"Velocity":22,"Duration":119521,"SoundDuration":119521,"Delta":85685463},{"NoteNumber":68,"Velocity":22,"Duration":119521,"SoundDuration":119521,"Delta":85834866},{"NoteNumber":70,"Velocity":22,"Duration":119521,"SoundDuration":119521,"Delta":85834866},{"NoteNumber":79,"Velocity":31,"Duration":155925,"SoundDuration":155925,"Delta":85984268},{"NoteNumber":73,"Velocity":31,"Duration":155925,"SoundDuration":155925,"Delta":85984268},{"NoteNumber":78,"Velocity":53,"Duration":741839,"SoundDuration":741839,"Delta":86179174},{"NoteNumber":89,"Velocity":53,"Duration":741839,"SoundDuration":741839,"Delta":86179174},{"NoteNumber":82,"Velocity":53,"Duration":741839,"SoundDuration":741839,"Delta":86179174},{"NoteNumber":77,"Velocity":53,"Duration":741839,"SoundDuration":741839,"Delta":86179174},{"NoteNumber":60,"Velocity":35,"Duration":92730,"SoundDuration":92730,"Delta":86179174},{"NoteNumber":63,"Velocity":38,"Duration":92730,"SoundDuration":92730,"Delta":86271904},{"NoteNumber":66,"Velocity":38,"Duration":92729,"SoundDuration":92729,"Delta":86364634},{"NoteNumber":70,"Velocity":38,"Duration":92730,"SoundDuration":92730,"Delta":86457364},{"NoteNumber":72,"Velocity":38,"Duration":92730,"SoundDuration":92730,"Delta":86550094},{"NoteNumber":75,"Velocity":38,"Duration":92730,"SoundDuration":92730,"Delta":86642824},{"NoteNumber":78,"Velocity":38,"Duration":92729,"SoundDuration":92729,"Delta":86735554},{"NoteNumber":82,"Velocity":38,"Duration":92730,"SoundDuration":92730,"Delta":86828284},{"NoteNumber":87,"Velocity":60,"Duration":702879,"SoundDuration":702879,"Delta":86921014},{"NoteNumber":84,"Velocity":36,"Duration":99601,"SoundDuration":99601,"Delta":86921014},{"NoteNumber":82,"Velocity":36,"Duration":99601,"SoundDuration":99601,"Delta":87020616},{"NoteNumber":78,"Velocity":36,"Duration":99601,"SoundDuration":99601,"Delta":87120218},{"NoteNumber":75,"Velocity":36,"Duration":99601,"SoundDuration":99601,"Delta":87219819},{"NoteNumber":72,"Velocity":36,"Duration":99601,"SoundDuration":99601,"Delta":87319421},{"NoteNumber":70,"Velocity":36,"Duration":99601,"SoundDuration":99601,"Delta":87419022},{"NoteNumber":66,"Velocity":36,"Duration":105269,"SoundDuration":105269,"Delta":87518624},{"NoteNumber":70,"Velocity":42,"Duration":811293,"SoundDuration":811293,"Delta":87623893},{"NoteNumber":75,"Velocity":42,"Duration":811293,"SoundDuration":811293,"Delta":87623893},{"NoteNumber":78,"Velocity":42,"Duration":811293,"SoundDuration":811293,"Delta":87623893},{"NoteNumber":82,"Velocity":42,"Duration":811293,"SoundDuration":811293,"Delta":87623893},{"NoteNumber":63,"Velocity":38,"Duration":117180,"SoundDuration":117180,"Delta":87623893},{"NoteNumber":60,"Velocity":31,"Duration":119328,"SoundDuration":119328,"Delta":87741074},{"NoteNumber":58,"Velocity":31,"Duration":121348,"SoundDuration":121348,"Delta":87860403},{"NoteNumber":54,"Velocity":31,"Duration":123646,"SoundDuration":123646,"Delta":87981751},{"NoteNumber":51,"Velocity":30,"Duration":126040,"SoundDuration":126040,"Delta":88105398},{"NoteNumber":48,"Velocity":30,"Duration":203749,"SoundDuration":203749,"Delta":88231438},{"NoteNumber":67,"Velocity":38,"Duration":1138419,"SoundDuration":1138419,"Delta":88358781},{"NoteNumber":41,"Velocity":30,"Duration":3150782,"SoundDuration":3150782,"Delta":88358781},{"NoteNumber":75,"Velocity":38,"Duration":1100216,"SoundDuration":1100216,"Delta":88396984},{"NoteNumber":48,"Velocity":28,"Duration":3112579,"SoundDuration":3112579,"Delta":88396984},{"NoteNumber":79,"Velocity":55,"Duration":1062013,"SoundDuration":1062013,"Delta":88435187},{"NoteNumber":67,"Velocity":36,"Duration":112065,"SoundDuration":112065,"Delta":88435187},{"NoteNumber":63,"Velocity":36,"Duration":112065,"SoundDuration":112065,"Delta":88435187},{"NoteNumber":57,"Velocity":36,"Duration":512885,"SoundDuration":512885,"Delta":88435187},{"NoteNumber":75,"Velocity":31,"Duration":106515,"SoundDuration":106515,"Delta":88575269},{"NoteNumber":69,"Velocity":31,"Duration":106515,"SoundDuration":106515,"Delta":88575269},{"NoteNumber":75,"Velocity":31,"Duration":106515,"SoundDuration":106515,"Delta":88708413},{"NoteNumber":69,"Velocity":31,"Duration":106515,"SoundDuration":106515,"Delta":88708413},{"NoteNumber":67,"Velocity":28,"Duration":106515,"SoundDuration":106515,"Delta":88841557},{"NoteNumber":63,"Velocity":28,"Duration":106515,"SoundDuration":106515,"Delta":88841557},{"NoteNumber":57,"Velocity":28,"Duration":370324,"SoundDuration":370324,"Delta":88841557},{"NoteNumber":69,"Velocity":31,"Duration":106742,"SoundDuration":106742,"Delta":88974701},{"NoteNumber":75,"Velocity":31,"Duration":106742,"SoundDuration":106742,"Delta":88974701},{"NoteNumber":57,"Velocity":28,"Duration":233442,"SoundDuration":233442,"Delta":89108129},{"NoteNumber":63,"Velocity":28,"Duration":103752,"SoundDuration":103752,"Delta":89108129},{"NoteNumber":67,"Velocity":28,"Duration":103752,"SoundDuration":103752,"Delta":89108129},{"NoteNumber":57,"Velocity":28,"Duration":360869,"SoundDuration":360869,"Delta":89237820},{"NoteNumber":63,"Velocity":28,"Duration":103752,"SoundDuration":103752,"Delta":89237820},{"NoteNumber":67,"Velocity":28,"Duration":103752,"SoundDuration":103752,"Delta":89237820},{"NoteNumber":69,"Velocity":35,"Duration":103752,"SoundDuration":103752,"Delta":89367510},{"NoteNumber":75,"Velocity":35,"Duration":103752,"SoundDuration":103752,"Delta":89367510},{"NoteNumber":57,"Velocity":28,"Duration":488147,"SoundDuration":488147,"Delta":89497201},{"NoteNumber":63,"Velocity":28,"Duration":101488,"SoundDuration":101488,"Delta":89497201},{"NoteNumber":67,"Velocity":28,"Duration":101488,"SoundDuration":101488,"Delta":89497201},{"NoteNumber":69,"Velocity":35,"Duration":101488,"SoundDuration":101488,"Delta":89624061},{"NoteNumber":75,"Velocity":35,"Duration":101488,"SoundDuration":101488,"Delta":89624061},{"NoteNumber":69,"Velocity":36,"Duration":101488,"SoundDuration":101488,"Delta":89750922},{"NoteNumber":75,"Velocity":36,"Duration":101488,"SoundDuration":101488,"Delta":89750922},{"NoteNumber":57,"Velocity":30,"Duration":368421,"SoundDuration":368421,"Delta":89877783},{"NoteNumber":63,"Velocity":30,"Duration":107565,"SoundDuration":107565,"Delta":89877783},{"NoteNumber":67,"Velocity":30,"Duration":107565,"SoundDuration":107565,"Delta":89877783},{"NoteNumber":75,"Velocity":31,"Duration":106742,"SoundDuration":106742,"Delta":90012239},{"NoteNumber":69,"Velocity":31,"Duration":106742,"SoundDuration":106742,"Delta":90012239},{"NoteNumber":63,"Velocity":28,"Duration":100536,"SoundDuration":100536,"Delta":90145668},{"NoteNumber":57,"Velocity":28,"Duration":226206,"SoundDuration":226206,"Delta":90145668},{"NoteNumber":67,"Velocity":28,"Duration":100536,"SoundDuration":100536,"Delta":90145668},{"NoteNumber":67,"Velocity":28,"Duration":100536,"SoundDuration":100536,"Delta":90271338},{"NoteNumber":57,"Velocity":28,"Duration":348255,"SoundDuration":348255,"Delta":90271338},{"NoteNumber":63,"Velocity":28,"Duration":100536,"SoundDuration":100536,"Delta":90271338},{"NoteNumber":75,"Velocity":35,"Duration":100536,"SoundDuration":100536,"Delta":90397008},{"NoteNumber":69,"Velocity":35,"Duration":100536,"SoundDuration":100536,"Delta":90397008},{"NoteNumber":63,"Velocity":28,"Duration":96914,"SoundDuration":96914,"Delta":90522678},{"NoteNumber":67,"Velocity":28,"Duration":96914,"SoundDuration":96914,"Delta":90522678},{"NoteNumber":57,"Velocity":28,"Duration":470996,"SoundDuration":470996,"Delta":90522678},{"NoteNumber":69,"Velocity":35,"Duration":96914,"SoundDuration":96914,"Delta":90643822},{"NoteNumber":75,"Velocity":35,"Duration":96914,"SoundDuration":96914,"Delta":90643822},{"NoteNumber":69,"Velocity":36,"Duration":96914,"SoundDuration":96914,"Delta":90764966},{"NoteNumber":75,"Velocity":36,"Duration":96914,"SoundDuration":96914,"Delta":90764966},{"NoteNumber":57,"Velocity":30,"Duration":354505,"SoundDuration":354505,"Delta":90886109},{"NoteNumber":63,"Velocity":30,"Duration":107565,"SoundDuration":107565,"Delta":90886109},{"NoteNumber":67,"Velocity":30,"Duration":107565,"SoundDuration":107565,"Delta":90886109},{"NoteNumber":79,"Velocity":66,"Duration":991678,"SoundDuration":991678,"Delta":91020566},{"NoteNumber":69,"Velocity":36,"Duration":97799,"SoundDuration":97799,"Delta":91020566},{"NoteNumber":75,"Velocity":36,"Duration":97799,"SoundDuration":97799,"Delta":91020566},{"NoteNumber":67,"Velocity":30,"Duration":97799,"SoundDuration":97799,"Delta":91142815},{"NoteNumber":57,"Velocity":30,"Duration":220048,"SoundDuration":220048,"Delta":91142815},{"NoteNumber":63,"Velocity":30,"Duration":97799,"SoundDuration":97799,"Delta":91142815},{"NoteNumber":67,"Velocity":30,"Duration":97799,"SoundDuration":97799,"Delta":91265065},{"NoteNumber":63,"Velocity":30,"Duration":97799,"SoundDuration":97799,"Delta":91265065},{"NoteNumber":57,"Velocity":30,"Duration":244498,"SoundDuration":244498,"Delta":91265065},{"NoteNumber":69,"Velocity":36,"Duration":97799,"SoundDuration":97799,"Delta":91387314},{"NoteNumber":75,"Velocity":36,"Duration":97799,"SoundDuration":97799,"Delta":91387314},{"NoteNumber":75,"Velocity":30,"Duration":100536,"SoundDuration":100536,"Delta":91509563},{"NoteNumber":69,"Velocity":30,"Duration":100536,"SoundDuration":100536,"Delta":91509563},{"NoteNumber":67,"Velocity":38,"Duration":100536,"SoundDuration":100536,"Delta":91635234},{"NoteNumber":63,"Velocity":38,"Duration":100536,"SoundDuration":100536,"Delta":91635234},{"NoteNumber":57,"Velocity":38,"Duration":100536,"SoundDuration":100536,"Delta":91635234},{"NoteNumber":67,"Velocity":38,"Duration":100536,"SoundDuration":100536,"Delta":91760904},{"NoteNumber":63,"Velocity":38,"Duration":100536,"SoundDuration":100536,"Delta":91760904},{"NoteNumber":57,"Velocity":38,"Duration":100536,"SoundDuration":100536,"Delta":91760904},{"NoteNumber":75,"Velocity":30,"Duration":100536,"SoundDuration":100536,"Delta":91886574},{"NoteNumber":69,"Velocity":30,"Duration":100536,"SoundDuration":100536,"Delta":91886574},{"NoteNumber":81,"Velocity":72,"Duration":591679,"SoundDuration":591679,"Delta":92012244},{"NoteNumber":69,"Velocity":38,"Duration":115673,"SoundDuration":115673,"Delta":92012244},{"NoteNumber":75,"Velocity":38,"Duration":115673,"SoundDuration":115673,"Delta":92012244},{"NoteNumber":78,"Velocity":38,"Duration":115673,"SoundDuration":115673,"Delta":92012244},{"NoteNumber":66,"Velocity":30,"Duration":115673,"SoundDuration":115673,"Delta":92156837},{"NoteNumber":63,"Velocity":30,"Duration":115673,"SoundDuration":115673,"Delta":92156837},{"NoteNumber":57,"Velocity":30,"Duration":115673,"SoundDuration":115673,"Delta":92156837},{"NoteNumber":66,"Velocity":30,"Duration":117004,"SoundDuration":117004,"Delta":92301429},{"NoteNumber":63,"Velocity":30,"Duration":117004,"SoundDuration":117004,"Delta":92301429},{"NoteNumber":57,"Velocity":30,"Duration":117004,"SoundDuration":117004,"Delta":92301429},{"NoteNumber":78,"Velocity":40,"Duration":123660,"SoundDuration":123660,"Delta":92449349},{"NoteNumber":69,"Velocity":40,"Duration":123660,"SoundDuration":123660,"Delta":92449349},{"NoteNumber":75,"Velocity":40,"Duration":123660,"SoundDuration":123660,"Delta":92449349},{"NoteNumber":76,"Velocity":70,"Duration":554528,"SoundDuration":554528,"Delta":92603924},{"NoteNumber":72,"Velocity":70,"Duration":554528,"SoundDuration":554528,"Delta":92603924},{"NoteNumber":84,"Velocity":70,"Duration":554528,"SoundDuration":554528,"Delta":92603924},{"NoteNumber":46,"Velocity":27,"Duration":78558,"SoundDuration":78558,"Delta":92603924},{"NoteNumber":52,"Velocity":28,"Duration":78558,"SoundDuration":78558,"Delta":92682482},{"NoteNumber":56,"Velocity":30,"Duration":78558,"SoundDuration":78558,"Delta":92761041},{"NoteNumber":60,"Velocity":31,"Duration":78558,"SoundDuration":78558,"Delta":92839599},{"NoteNumber":64,"Velocity":33,"Duration":78558,"SoundDuration":78558,"Delta":92918157},{"NoteNumber":68,"Velocity":33,"Duration":78558,"SoundDuration":78558,"Delta":92996715},{"NoteNumber":72,"Velocity":36,"Duration":78558,"SoundDuration":78558,"Delta":93075273},{"NoteNumber":82,"Velocity":68,"Duration":1057288,"SoundDuration":1057288,"Delta":93158453},{"NoteNumber":76,"Velocity":38,"Duration":79100,"SoundDuration":79100,"Delta":93158453},{"NoteNumber":72,"Velocity":36,"Duration":79100,"SoundDuration":79100,"Delta":93239750},{"NoteNumber":68,"Velocity":36,"Duration":79100,"SoundDuration":79100,"Delta":93321047},{"NoteNumber":64,"Velocity":36,"Duration":79100,"SoundDuration":79100,"Delta":93402344},{"NoteNumber":64,"Velocity":35,"Duration":79100,"SoundDuration":79100,"Delta":93483642},{"NoteNumber":60,"Velocity":35,"Duration":79100,"SoundDuration":79100,"Delta":93564939},{"NoteNumber":56,"Velocity":35,"Duration":79100,"SoundDuration":79100,"Delta":93646236},{"NoteNumber":52,"Velocity":35,"Duration":79100,"SoundDuration":79100,"Delta":93727533},{"NoteNumber":56,"Velocity":36,"Duration":79100,"SoundDuration":79100,"Delta":93808831},{"NoteNumber":60,"Velocity":35,"Duration":79296,"SoundDuration":79296,"Delta":93890128},{"NoteNumber":64,"Velocity":36,"Duration":79886,"SoundDuration":79886,"Delta":93971644},{"NoteNumber":68,"Velocity":38,"Duration":79886,"SoundDuration":79886,"Delta":94053749},{"NoteNumber":72,"Velocity":38,"Duration":75448,"SoundDuration":75448,"Delta":94135855},{"NoteNumber":80,"Velocity":67,"Duration":550190,"SoundDuration":550190,"Delta":94215741},{"NoteNumber":76,"Velocity":38,"Duration":67228,"SoundDuration":67228,"Delta":94215741},{"NoteNumber":72,"Velocity":38,"Duration":67228,"SoundDuration":67228,"Delta":94282969},{"NoteNumber":68,"Velocity":36,"Duration":67228,"SoundDuration":67228,"Delta":94350198},{"NoteNumber":64,"Velocity":36,"Duration":67228,"SoundDuration":67228,"Delta":94417426},{"NoteNumber":64,"Velocity":36,"Duration":67910,"SoundDuration":67910,"Delta":94484654},{"NoteNumber":60,"Velocity":35,"Duration":70319,"SoundDuration":70319,"Delta":94552565},{"NoteNumber":56,"Velocity":35,"Duration":71523,"SoundDuration":71523,"Delta":94622884},{"NoteNumber":52,"Velocity":35,"Duration":71523,"SoundDuration":71523,"Delta":94694408},{"NoteNumber":61,"Velocity":53,"Duration":539687,"SoundDuration":539687,"Delta":94765932},{"NoteNumber":69,"Velocity":53,"Duration":539687,"SoundDuration":539687,"Delta":94765932},{"NoteNumber":73,"Velocity":53,"Duration":539687,"SoundDuration":539687,"Delta":94765932},{"NoteNumber":47,"Velocity":31,"Duration":141937,"SoundDuration":141937,"Delta":94765932},{"NoteNumber":54,"Velocity":35,"Duration":137287,"SoundDuration":137287,"Delta":94907870},{"NoteNumber":57,"Velocity":36,"Duration":130230,"SoundDuration":130230,"Delta":95045157},{"NoteNumber":61,"Velocity":40,"Duration":130231,"SoundDuration":130231,"Delta":95175388},{"NoteNumber":66,"Velocity":62,"Duration":1520272,"SoundDuration":1520272,"Delta":95305619},{"NoteNumber":63,"Velocity":38,"Duration":125062,"SoundDuration":125062,"Delta":95430682},{"NoteNumber":61,"Velocity":36,"Duration":125062,"SoundDuration":125062,"Delta":95555744},{"NoteNumber":57,"Velocity":35,"Duration":125062,"SoundDuration":125062,"Delta":95680807},{"NoteNumber":54,"Velocity":33,"Duration":125062,"SoundDuration":125062,"Delta":95805869},{"NoteNumber":49,"Velocity":33,"Duration":125476,"SoundDuration":125476,"Delta":95930932},{"NoteNumber":47,"Velocity":30,"Duration":126305,"SoundDuration":126305,"Delta":96056408},{"NoteNumber":42,"Velocity":30,"Duration":127150,"SoundDuration":127150,"Delta":96182713},{"NoteNumber":35,"Velocity":31,"Duration":127572,"SoundDuration":127572,"Delta":96309864},{"NoteNumber":47,"Velocity":35,"Duration":128888,"SoundDuration":128888,"Delta":96437436},{"NoteNumber":51,"Velocity":36,"Duration":129335,"SoundDuration":129335,"Delta":96566324},{"NoteNumber":57,"Velocity":36,"Duration":130231,"SoundDuration":130231,"Delta":96695660},{"NoteNumber":68,"Velocity":50,"Duration":526223,"SoundDuration":526223,"Delta":96825891},{"NoteNumber":60,"Velocity":38,"Duration":526223,"SoundDuration":526223,"Delta":96825891},{"NoteNumber":63,"Velocity":36,"Duration":131555,"SoundDuration":131555,"Delta":96957447},{"NoteNumber":60,"Velocity":36,"Duration":131555,"SoundDuration":131555,"Delta":97089003},{"NoteNumber":57,"Velocity":36,"Duration":131555,"SoundDuration":131555,"Delta":97220559},{"NoteNumber":57,"Velocity":35,"Duration":132022,"SoundDuration":132022,"Delta":97352115},{"NoteNumber":54,"Velocity":35,"Duration":133892,"SoundDuration":133892,"Delta":97484137},{"NoteNumber":51,"Velocity":35,"Duration":136790,"SoundDuration":136790,"Delta":97618029},{"NoteNumber":48,"Velocity":35,"Duration":139305,"SoundDuration":139305,"Delta":97754819},{"NoteNumber":59,"Velocity":33,"Duration":108705,"SoundDuration":108705,"Delta":97894125},{"NoteNumber":63,"Velocity":33,"Duration":108705,"SoundDuration":108705,"Delta":97894125},{"NoteNumber":44,"Velocity":35,"Duration":108705,"SoundDuration":108705,"Delta":97894125},{"NoteNumber":64,"Velocity":35,"Duration":88405,"SoundDuration":88405,"Delta":98030748},{"NoteNumber":51,"Velocity":35,"Duration":111669,"SoundDuration":111669,"Delta":98030748},{"NoteNumber":63,"Velocity":33,"Duration":101939,"SoundDuration":101939,"Delta":98170335},{"NoteNumber":56,"Velocity":35,"Duration":2337952,"SoundDuration":2337952,"Delta":98170335},{"NoteNumber":63,"Velocity":33,"Duration":108734,"SoundDuration":108734,"Delta":98306253},{"NoteNumber":60,"Velocity":35,"Duration":2202033,"SoundDuration":2202033,"Delta":98306253},{"NoteNumber":76,"Velocity":35,"Duration":83993,"SoundDuration":83993,"Delta":98437641},{"NoteNumber":68,"Velocity":25,"Duration":99328,"SoundDuration":99328,"Delta":98576818},{"NoteNumber":75,"Velocity":25,"Duration":99328,"SoundDuration":99328,"Delta":98579025},{"NoteNumber":72,"Velocity":25,"Duration":99328,"SoundDuration":99328,"Delta":98581233},{"NoteNumber":72,"Velocity":25,"Duration":105950,"SoundDuration":105950,"Delta":98704842},{"NoteNumber":75,"Velocity":25,"Duration":105950,"SoundDuration":105950,"Delta":98707049},{"NoteNumber":68,"Velocity":25,"Duration":105950,"SoundDuration":105950,"Delta":98713671},{"NoteNumber":76,"Velocity":35,"Duration":83877,"SoundDuration":83877,"Delta":98837281},{"NoteNumber":72,"Velocity":28,"Duration":102423,"SoundDuration":102423,"Delta":98971927},{"NoteNumber":68,"Velocity":28,"Duration":102423,"SoundDuration":102423,"Delta":98978328},{"NoteNumber":75,"Velocity":28,"Duration":102423,"SoundDuration":102423,"Delta":98978328},{"NoteNumber":76,"Velocity":35,"Duration":81085,"SoundDuration":81085,"Delta":99095689},{"NoteNumber":72,"Velocity":23,"Duration":96022,"SoundDuration":96022,"Delta":99223719},{"NoteNumber":75,"Velocity":23,"Duration":96022,"SoundDuration":96022,"Delta":99227987},{"NoteNumber":68,"Velocity":23,"Duration":96022,"SoundDuration":96022,"Delta":99230120},{"NoteNumber":72,"Velocity":23,"Duration":102423,"SoundDuration":102423,"Delta":99351749},{"NoteNumber":68,"Velocity":23,"Duration":102423,"SoundDuration":102423,"Delta":99362418},{"NoteNumber":75,"Velocity":23,"Duration":102423,"SoundDuration":102423,"Delta":99362418},{"NoteNumber":76,"Velocity":33,"Duration":81085,"SoundDuration":81085,"Delta":99481913},{"NoteNumber":68,"Velocity":23,"Duration":96022,"SoundDuration":96022,"Delta":99609943},{"NoteNumber":75,"Velocity":23,"Duration":96022,"SoundDuration":96022,"Delta":99612077},{"NoteNumber":72,"Velocity":23,"Duration":96022,"SoundDuration":96022,"Delta":99616344},{"NoteNumber":68,"Velocity":27,"Duration":102423,"SoundDuration":102423,"Delta":99737973},{"NoteNumber":72,"Velocity":27,"Duration":102423,"SoundDuration":102423,"Delta":99742240},{"NoteNumber":75,"Velocity":27,"Duration":102423,"SoundDuration":102423,"Delta":99742240},{"NoteNumber":76,"Velocity":33,"Duration":81085,"SoundDuration":81085,"Delta":99868137},{"NoteNumber":68,"Velocity":27,"Duration":102423,"SoundDuration":102423,"Delta":99996167},{"NoteNumber":72,"Velocity":27,"Duration":102423,"SoundDuration":102423,"Delta":99998300},{"NoteNumber":75,"Velocity":27,"Duration":102423,"SoundDuration":102423,"Delta":99998300},{"NoteNumber":76,"Velocity":33,"Duration":81085,"SoundDuration":81085,"Delta":100130598},{"NoteNumber":72,"Velocity":27,"Duration":96022,"SoundDuration":96022,"Delta":100254360},{"NoteNumber":68,"Velocity":27,"Duration":96022,"SoundDuration":96022,"Delta":100256494},{"NoteNumber":75,"Velocity":27,"Duration":96022,"SoundDuration":96022,"Delta":100256494},{"NoteNumber":75,"Velocity":25,"Duration":102424,"SoundDuration":102424,"Delta":100378123},{"NoteNumber":72,"Velocity":25,"Duration":102423,"SoundDuration":102423,"Delta":100380257},{"NoteNumber":68,"Velocity":25,"Duration":102423,"SoundDuration":102423,"Delta":100382390},{"NoteNumber":76,"Velocity":33,"Duration":81085,"SoundDuration":81085,"Delta":100512554},{"NoteNumber":75,"Velocity":27,"Duration":96022,"SoundDuration":96022,"Delta":100634183},{"NoteNumber":68,"Velocity":27,"Duration":96022,"SoundDuration":96022,"Delta":100638450},{"NoteNumber":72,"Velocity":27,"Duration":96022,"SoundDuration":96022,"Delta":100642718},{"NoteNumber":68,"Velocity":25,"Duration":102423,"SoundDuration":102423,"Delta":100762213},{"NoteNumber":72,"Velocity":25,"Duration":102423,"SoundDuration":102423,"Delta":100766480},{"NoteNumber":75,"Velocity":25,"Duration":102423,"SoundDuration":102423,"Delta":100768614},{"NoteNumber":76,"Velocity":33,"Duration":102423,"SoundDuration":102423,"Delta":100894510},{"NoteNumber":75,"Velocity":27,"Duration":102423,"SoundDuration":102423,"Delta":101016139},{"NoteNumber":68,"Velocity":27,"Duration":102423,"SoundDuration":102423,"Delta":101020407},{"NoteNumber":72,"Velocity":27,"Duration":102423,"SoundDuration":102423,"Delta":101020407},{"NoteNumber":76,"Velocity":33,"Duration":81085,"SoundDuration":81085,"Delta":101152704},{"NoteNumber":68,"Velocity":27,"Duration":96022,"SoundDuration":96022,"Delta":101278600},{"NoteNumber":72,"Velocity":27,"Duration":96022,"SoundDuration":96022,"Delta":101278600},{"NoteNumber":75,"Velocity":27,"Duration":96022,"SoundDuration":96022,"Delta":101280734},{"NoteNumber":72,"Velocity":25,"Duration":102423,"SoundDuration":102423,"Delta":101400229},{"NoteNumber":75,"Velocity":25,"Duration":102423,"SoundDuration":102423,"Delta":101406630},{"NoteNumber":68,"Velocity":25,"Duration":102423,"SoundDuration":102423,"Delta":101408764},{"NoteNumber":76,"Velocity":33,"Duration":81085,"SoundDuration":81085,"Delta":101538928},{"NoteNumber":72,"Velocity":25,"Duration":96022,"SoundDuration":96022,"Delta":101662690},{"NoteNumber":75,"Velocity":25,"Duration":96022,"SoundDuration":96022,"Delta":101664824},{"NoteNumber":68,"Velocity":25,"Duration":96022,"SoundDuration":96022,"Delta":101666958},{"NoteNumber":68,"Velocity":23,"Duration":102423,"SoundDuration":102423,"Delta":101784319},{"NoteNumber":72,"Velocity":23,"Duration":102423,"SoundDuration":102423,"Delta":101792854},{"NoteNumber":75,"Velocity":23,"Duration":102423,"SoundDuration":102423,"Delta":101794988},{"NoteNumber":76,"Velocity":33,"Duration":81085,"SoundDuration":81085,"Delta":101914483},{"NoteNumber":72,"Velocity":23,"Duration":102423,"SoundDuration":102423,"Delta":102042513},{"NoteNumber":75,"Velocity":23,"Duration":102423,"SoundDuration":102423,"Delta":102042513},{"NoteNumber":68,"Velocity":23,"Duration":102423,"SoundDuration":102423,"Delta":102046780},{"NoteNumber":76,"Velocity":33,"Duration":81085,"SoundDuration":81085,"Delta":102168409},{"NoteNumber":75,"Velocity":23,"Duration":96022,"SoundDuration":96022,"Delta":102304974},{"NoteNumber":68,"Velocity":23,"Duration":96022,"SoundDuration":96022,"Delta":102307108},{"NoteNumber":72,"Velocity":23,"Duration":96022,"SoundDuration":96022,"Delta":102307108},{"NoteNumber":68,"Velocity":23,"Duration":102424,"SoundDuration":102424,"Delta":102424469},{"NoteNumber":75,"Velocity":23,"Duration":102424,"SoundDuration":102424,"Delta":102424469},{"NoteNumber":72,"Velocity":23,"Duration":102423,"SoundDuration":102423,"Delta":102426603},{"NoteNumber":76,"Velocity":33,"Duration":81085,"SoundDuration":81085,"Delta":102552499},{"NoteNumber":68,"Velocity":23,"Duration":96022,"SoundDuration":96022,"Delta":102686930},{"NoteNumber":75,"Velocity":23,"Duration":96022,"SoundDuration":96022,"Delta":102686930},{"NoteNumber":72,"Velocity":23,"Duration":96022,"SoundDuration":96022,"Delta":102689064},{"NoteNumber":75,"Velocity":25,"Duration":102423,"SoundDuration":102423,"Delta":102810693},{"NoteNumber":68,"Velocity":25,"Duration":102423,"SoundDuration":102423,"Delta":102812827},{"NoteNumber":72,"Velocity":25,"Duration":102423,"SoundDuration":102423,"Delta":102812827},{"NoteNumber":76,"Velocity":33,"Duration":81085,"SoundDuration":81085,"Delta":102940857},{"NoteNumber":72,"Velocity":23,"Duration":102423,"SoundDuration":102423,"Delta":103064619},{"NoteNumber":75,"Velocity":23,"Duration":102423,"SoundDuration":102423,"Delta":103066753},{"NoteNumber":68,"Velocity":23,"Duration":102423,"SoundDuration":102423,"Delta":103071020},{"NoteNumber":76,"Velocity":33,"Duration":81085,"SoundDuration":81085,"Delta":103201184},{"NoteNumber":68,"Velocity":23,"Duration":96022,"SoundDuration":96022,"Delta":103322813},{"NoteNumber":72,"Velocity":23,"Duration":96022,"SoundDuration":96022,"Delta":103329214},{"NoteNumber":75,"Velocity":23,"Duration":96022,"SoundDuration":96022,"Delta":103331348},{"NoteNumber":75,"Velocity":23,"Duration":102423,"SoundDuration":102423,"Delta":103450843},{"NoteNumber":72,"Velocity":23,"Duration":102423,"SoundDuration":102423,"Delta":103457244},{"NoteNumber":68,"Velocity":23,"Duration":102423,"SoundDuration":102423,"Delta":103459378},{"NoteNumber":76,"Velocity":33,"Duration":81085,"SoundDuration":81085,"Delta":103587408},{"NoteNumber":68,"Velocity":23,"Duration":96022,"SoundDuration":96022,"Delta":103704769},{"NoteNumber":72,"Velocity":23,"Duration":96022,"SoundDuration":96022,"Delta":103704769},{"NoteNumber":75,"Velocity":23,"Duration":96022,"SoundDuration":96022,"Delta":103713304},{"NoteNumber":68,"Velocity":23,"Duration":102423,"SoundDuration":102423,"Delta":103839200},{"NoteNumber":72,"Velocity":23,"Duration":102423,"SoundDuration":102423,"Delta":103839200},{"NoteNumber":75,"Velocity":23,"Duration":102423,"SoundDuration":102423,"Delta":103843468},{"NoteNumber":76,"Velocity":33,"Duration":81085,"SoundDuration":81085,"Delta":103960829},{"NoteNumber":75,"Velocity":27,"Duration":107458,"SoundDuration":107458,"Delta":104090993},{"NoteNumber":70,"Velocity":56,"Duration":558970,"SoundDuration":558970,"Delta":104093127},{"NoteNumber":72,"Velocity":27,"Duration":107565,"SoundDuration":107565,"Delta":104095367},{"NoteNumber":68,"Velocity":27,"Duration":107565,"SoundDuration":107565,"Delta":104099849},{"NoteNumber":76,"Velocity":33,"Duration":85155,"SoundDuration":85155,"Delta":104223101},{"NoteNumber":72,"Velocity":27,"Duration":100842,"SoundDuration":100842,"Delta":104359799},{"NoteNumber":75,"Velocity":27,"Duration":100842,"SoundDuration":100842,"Delta":104359799},{"NoteNumber":68,"Velocity":27,"Duration":100842,"SoundDuration":100842,"Delta":104364281},{"NoteNumber":72,"Velocity":27,"Duration":107565,"SoundDuration":107565,"Delta":104498738},{"NoteNumber":75,"Velocity":27,"Duration":107565,"SoundDuration":107565,"Delta":104498738},{"NoteNumber":68,"Velocity":27,"Duration":107565,"SoundDuration":107565,"Delta":104503220},{"NoteNumber":76,"Velocity":33,"Duration":80598,"SoundDuration":80598,"Delta":104626472},{"NoteNumber":68,"Velocity":56,"Duration":529414,"SoundDuration":529414,"Delta":104630954},{"NoteNumber":72,"Velocity":28,"Duration":95145,"SoundDuration":95145,"Delta":104757814},{"NoteNumber":75,"Velocity":28,"Duration":95145,"SoundDuration":95145,"Delta":104757814},{"NoteNumber":72,"Velocity":28,"Duration":101488,"SoundDuration":101488,"Delta":104884675},{"NoteNumber":75,"Velocity":28,"Duration":101488,"SoundDuration":101488,"Delta":104888903},{"NoteNumber":76,"Velocity":33,"Duration":80345,"SoundDuration":80345,"Delta":105013650},{"NoteNumber":68,"Velocity":23,"Duration":105466,"SoundDuration":105466,"Delta":105138396},{"NoteNumber":66,"Velocity":56,"Duration":549970,"SoundDuration":549970,"Delta":105138396},{"NoteNumber":75,"Velocity":23,"Duration":105466,"SoundDuration":105466,"Delta":105140593},{"NoteNumber":72,"Velocity":23,"Duration":105466,"SoundDuration":105466,"Delta":105142790},{"NoteNumber":76,"Velocity":33,"Duration":83494,"SoundDuration":83494,"Delta":105272427},{"NoteNumber":72,"Velocity":23,"Duration":98875,"SoundDuration":98875,"Delta":105397668},{"NoteNumber":68,"Velocity":23,"Duration":98875,"SoundDuration":98875,"Delta":105402063},{"NoteNumber":75,"Velocity":23,"Duration":98875,"SoundDuration":98875,"Delta":105406457},{"NoteNumber":68,"Velocity":23,"Duration":105466,"SoundDuration":105466,"Delta":105529502},{"NoteNumber":72,"Velocity":23,"Duration":105466,"SoundDuration":105466,"Delta":105536093},{"NoteNumber":75,"Velocity":23,"Duration":105466,"SoundDuration":105466,"Delta":105540488},{"NoteNumber":76,"Velocity":33,"Duration":86019,"SoundDuration":86019,"Delta":105665730},{"NoteNumber":64,"Velocity":56,"Duration":564627,"SoundDuration":564627,"Delta":105665730},{"NoteNumber":72,"Velocity":27,"Duration":101865,"SoundDuration":101865,"Delta":105801550},{"NoteNumber":75,"Velocity":27,"Duration":101865,"SoundDuration":101865,"Delta":105801550},{"NoteNumber":68,"Velocity":27,"Duration":101865,"SoundDuration":101865,"Delta":105806077},{"NoteNumber":75,"Velocity":27,"Duration":108656,"SoundDuration":108656,"Delta":105937370},{"NoteNumber":72,"Velocity":27,"Duration":108656,"SoundDuration":108656,"Delta":105939634},{"NoteNumber":68,"Velocity":27,"Duration":108656,"SoundDuration":108656,"Delta":105941898},{"NoteNumber":76,"Velocity":36,"Duration":86019,"SoundDuration":86019,"Delta":106079982},{"NoteNumber":72,"Velocity":31,"Duration":102588,"SoundDuration":102588,"Delta":106206747},{"NoteNumber":75,"Velocity":31,"Duration":102458,"SoundDuration":102458,"Delta":106209011},{"NoteNumber":70,"Velocity":61,"Duration":1010882,"SoundDuration":1010882,"Delta":106209011},{"NoteNumber":68,"Velocity":31,"Duration":102458,"SoundDuration":102458,"Delta":106211146},{"NoteNumber":76,"Velocity":36,"Duration":81113,"SoundDuration":81113,"Delta":106332816},{"NoteNumber":75,"Velocity":28,"Duration":96055,"SoundDuration":96055,"Delta":106467293},{"NoteNumber":68,"Velocity":28,"Duration":96055,"SoundDuration":96055,"Delta":106469428},{"NoteNumber":72,"Velocity":28,"Duration":96055,"SoundDuration":96055,"Delta":106471562},{"NoteNumber":68,"Velocity":28,"Duration":102458,"SoundDuration":102458,"Delta":106588963},{"NoteNumber":75,"Velocity":28,"Duration":102458,"SoundDuration":102458,"Delta":106588963},{"NoteNumber":72,"Velocity":28,"Duration":102458,"SoundDuration":102458,"Delta":106591098},{"NoteNumber":76,"Velocity":33,"Duration":78943,"SoundDuration":78943,"Delta":106723383},{"NoteNumber":68,"Velocity":25,"Duration":93485,"SoundDuration":93485,"Delta":106841798},{"NoteNumber":72,"Velocity":25,"Duration":93485,"SoundDuration":93485,"Delta":106852185},{"NoteNumber":75,"Velocity":25,"Duration":93485,"SoundDuration":93485,"Delta":106852185},{"NoteNumber":68,"Velocity":25,"Duration":99717,"SoundDuration":99717,"Delta":106972677},{"NoteNumber":72,"Velocity":25,"Duration":99717,"SoundDuration":99717,"Delta":106974755},{"NoteNumber":75,"Velocity":25,"Duration":99717,"SoundDuration":99717,"Delta":106976832},{"NoteNumber":76,"Velocity":30,"Duration":78943,"SoundDuration":78943,"Delta":107091092},{"NoteNumber":72,"Velocity":22,"Duration":102378,"SoundDuration":102378,"Delta":107215739},{"NoteNumber":68,"Velocity":53,"Duration":533822,"SoundDuration":533822,"Delta":107219894},{"NoteNumber":75,"Velocity":22,"Duration":102493,"SoundDuration":102493,"Delta":107224164},{"NoteNumber":76,"Velocity":28,"Duration":81141,"SoundDuration":81141,"Delta":107350146},{"NoteNumber":75,"Velocity":22,"Duration":96088,"SoundDuration":96088,"Delta":107471858},{"NoteNumber":72,"Velocity":22,"Duration":96088,"SoundDuration":96088,"Delta":107473993},{"NoteNumber":72,"Velocity":23,"Duration":102494,"SoundDuration":102494,"Delta":107602111},{"NoteNumber":75,"Velocity":23,"Duration":102493,"SoundDuration":102493,"Delta":107606381},{"NoteNumber":76,"Velocity":33,"Duration":81141,"SoundDuration":81141,"Delta":107732364},{"NoteNumber":63,"Velocity":52,"Duration":512946,"SoundDuration":512946,"Delta":107732364},{"NoteNumber":68,"Velocity":27,"Duration":96088,"SoundDuration":96088,"Delta":107858346},{"NoteNumber":72,"Velocity":27,"Duration":96088,"SoundDuration":96088,"Delta":107860481},{"NoteNumber":75,"Velocity":27,"Duration":96088,"SoundDuration":96088,"Delta":107862616},{"NoteNumber":75,"Velocity":27,"Duration":105300,"SoundDuration":105300,"Delta":107990734},{"NoteNumber":68,"Velocity":27,"Duration":105612,"SoundDuration":105612,"Delta":107992869},{"NoteNumber":72,"Velocity":27,"Duration":105612,"SoundDuration":105612,"Delta":107992869},{"NoteNumber":76,"Velocity":36,"Duration":92991,"SoundDuration":92991,"Delta":108125400},{"NoteNumber":73,"Velocity":30,"Duration":103084,"SoundDuration":103084,"Delta":108264887},{"NoteNumber":63,"Velocity":56,"Duration":1496665,"SoundDuration":1496665,"Delta":108269782},{"NoteNumber":66,"Velocity":30,"Duration":102459,"SoundDuration":102459,"Delta":108274051},{"NoteNumber":69,"Velocity":30,"Duration":102458,"SoundDuration":102458,"Delta":108276185},{"NoteNumber":75,"Velocity":36,"Duration":81113,"SoundDuration":81113,"Delta":108399990},{"NoteNumber":73,"Velocity":28,"Duration":96055,"SoundDuration":96055,"Delta":108521660},{"NoteNumber":69,"Velocity":28,"Duration":96055,"SoundDuration":96055,"Delta":108523794},{"NoteNumber":66,"Velocity":28,"Duration":96055,"SoundDuration":96055,"Delta":108525929},{"NoteNumber":69,"Velocity":28,"Duration":102458,"SoundDuration":102458,"Delta":108649734},{"NoteNumber":73,"Velocity":28,"Duration":102459,"SoundDuration":102459,"Delta":108654003},{"NoteNumber":66,"Velocity":28,"Duration":102459,"SoundDuration":102459,"Delta":108660406},{"NoteNumber":75,"Velocity":35,"Duration":78124,"SoundDuration":78124,"Delta":108784132},{"NoteNumber":66,"Velocity":28,"Duration":92516,"SoundDuration":92516,"Delta":108903376},{"NoteNumber":73,"Velocity":28,"Duration":92516,"SoundDuration":92516,"Delta":108903376},{"NoteNumber":69,"Velocity":28,"Duration":92516,"SoundDuration":92516,"Delta":108907488},{"NoteNumber":69,"Velocity":28,"Duration":98684,"SoundDuration":98684,"Delta":109024675},{"NoteNumber":66,"Velocity":28,"Duration":92516,"SoundDuration":92516,"Delta":109026731},{"NoteNumber":73,"Velocity":28,"Duration":98684,"SoundDuration":98684,"Delta":109032899},{"NoteNumber":75,"Velocity":36,"Duration":78124,"SoundDuration":78124,"Delta":109148030},{"NoteNumber":66,"Velocity":30,"Duration":102380,"SoundDuration":102380,"Delta":109273442},{"NoteNumber":69,"Velocity":30,"Duration":102459,"SoundDuration":102459,"Delta":109279767},{"NoteNumber":73,"Velocity":30,"Duration":102458,"SoundDuration":102458,"Delta":109281901},{"NoteNumber":75,"Velocity":36,"Duration":81113,"SoundDuration":81113,"Delta":109407840},{"NoteNumber":73,"Velocity":28,"Duration":96055,"SoundDuration":96055,"Delta":109531645},{"NoteNumber":69,"Velocity":28,"Duration":96055,"SoundDuration":96055,"Delta":109533780},{"NoteNumber":66,"Velocity":28,"Duration":96055,"SoundDuration":96055,"Delta":109535914},{"NoteNumber":69,"Velocity":28,"Duration":102458,"SoundDuration":102458,"Delta":109657584},{"NoteNumber":66,"Velocity":28,"Duration":102459,"SoundDuration":102459,"Delta":109666122},{"NoteNumber":73,"Velocity":28,"Duration":102459,"SoundDuration":102459,"Delta":109666122},{"NoteNumber":75,"Velocity":36,"Duration":83431,"SoundDuration":83431,"Delta":109785658},{"NoteNumber":61,"Velocity":61,"Duration":549742,"SoundDuration":549742,"Delta":109787793},{"NoteNumber":66,"Velocity":28,"Duration":98875,"SoundDuration":98875,"Delta":109917429},{"NoteNumber":69,"Velocity":28,"Duration":98875,"SoundDuration":98875,"Delta":109921823},{"NoteNumber":73,"Velocity":28,"Duration":98875,"SoundDuration":98875,"Delta":109926218},{"NoteNumber":66,"Velocity":28,"Duration":105466,"SoundDuration":105466,"Delta":110047065},{"NoteNumber":69,"Velocity":28,"Duration":105466,"SoundDuration":105466,"Delta":110047065},{"NoteNumber":73,"Velocity":28,"Duration":105466,"SoundDuration":105466,"Delta":110053657},{"NoteNumber":75,"Velocity":33,"Duration":83494,"SoundDuration":83494,"Delta":110183293},{"NoteNumber":69,"Velocity":28,"Duration":107477,"SoundDuration":107477,"Delta":110310732},{"NoteNumber":73,"Velocity":28,"Duration":107521,"SoundDuration":107521,"Delta":110312929},{"NoteNumber":66,"Velocity":61,"Duration":561668,"SoundDuration":561668,"Delta":110315126},{"NoteNumber":75,"Velocity":33,"Duration":85155,"SoundDuration":85155,"Delta":110456306},{"NoteNumber":69,"Velocity":27,"Duration":100842,"SoundDuration":100842,"Delta":110579558},{"NoteNumber":73,"Velocity":27,"Duration":100842,"SoundDuration":100842,"Delta":110579558},{"NoteNumber":66,"Velocity":27,"Duration":100842,"SoundDuration":100842,"Delta":110581799},{"NoteNumber":69,"Velocity":27,"Duration":107565,"SoundDuration":107565,"Delta":110714014},{"NoteNumber":73,"Velocity":27,"Duration":107565,"SoundDuration":107565,"Delta":110714014},{"NoteNumber":66,"Velocity":27,"Duration":107565,"SoundDuration":107565,"Delta":110725219},{"NoteNumber":75,"Velocity":33,"Duration":90310,"SoundDuration":90310,"Delta":110848471},{"NoteNumber":65,"Velocity":52,"Duration":606500,"SoundDuration":606500,"Delta":110852953},{"NoteNumber":66,"Velocity":23,"Duration":107285,"SoundDuration":107285,"Delta":110996001},{"NoteNumber":73,"Velocity":23,"Duration":107285,"SoundDuration":107285,"Delta":110996001},{"NoteNumber":69,"Velocity":23,"Duration":107285,"SoundDuration":107285,"Delta":111003153},{"NoteNumber":66,"Velocity":23,"Duration":115510,"SoundDuration":115510,"Delta":111139049},{"NoteNumber":69,"Velocity":23,"Duration":115912,"SoundDuration":115912,"Delta":111146201},{"NoteNumber":73,"Velocity":23,"Duration":115912,"SoundDuration":115912,"Delta":111146201},{"NoteNumber":75,"Velocity":30,"Duration":95688,"SoundDuration":95688,"Delta":111287295},{"NoteNumber":73,"Velocity":23,"Duration":113228,"SoundDuration":113228,"Delta":111435865},{"NoteNumber":63,"Velocity":45,"Duration":1074224,"SoundDuration":1074224,"Delta":111435865},{"NoteNumber":69,"Velocity":23,"Duration":113228,"SoundDuration":113228,"Delta":111440582},{"NoteNumber":66,"Velocity":23,"Duration":113228,"SoundDuration":113228,"Delta":111442941},{"NoteNumber":75,"Velocity":33,"Duration":89639,"SoundDuration":89639,"Delta":111575042},{"NoteNumber":66,"Velocity":27,"Duration":97374,"SoundDuration":97374,"Delta":111714219},{"NoteNumber":69,"Velocity":27,"Duration":96965,"SoundDuration":96965,"Delta":111721092},{"NoteNumber":73,"Velocity":27,"Duration":96965,"SoundDuration":96965,"Delta":111725401},{"NoteNumber":69,"Velocity":27,"Duration":103430,"SoundDuration":103430,"Delta":111846070},{"NoteNumber":66,"Velocity":27,"Duration":103430,"SoundDuration":103430,"Delta":111848225},{"NoteNumber":73,"Velocity":27,"Duration":103430,"SoundDuration":103430,"Delta":111850380},{"NoteNumber":75,"Velocity":33,"Duration":84260,"SoundDuration":84260,"Delta":111975358},{"NoteNumber":73,"Velocity":23,"Duration":99857,"SoundDuration":99857,"Delta":112110657},{"NoteNumber":66,"Velocity":23,"Duration":99857,"SoundDuration":99857,"Delta":112115095},{"NoteNumber":69,"Velocity":23,"Duration":99858,"SoundDuration":99858,"Delta":112117314},{"NoteNumber":69,"Velocity":23,"Duration":106515,"SoundDuration":106515,"Delta":112239363},{"NoteNumber":66,"Velocity":23,"Duration":99858,"SoundDuration":99858,"Delta":112250458},{"NoteNumber":73,"Velocity":23,"Duration":106515,"SoundDuration":106515,"Delta":112250458},{"NoteNumber":75,"Velocity":33,"Duration":84324,"SoundDuration":84324,"Delta":112379164},{"NoteNumber":73,"Velocity":23,"Duration":102628,"SoundDuration":102628,"Delta":112505651},{"NoteNumber":61,"Velocity":45,"Duration":534267,"SoundDuration":534267,"Delta":112510089},{"NoteNumber":69,"Velocity":23,"Duration":102458,"SoundDuration":102458,"Delta":112512223},{"NoteNumber":66,"Velocity":23,"Duration":102459,"SoundDuration":102459,"Delta":112514358},{"NoteNumber":75,"Velocity":30,"Duration":81113,"SoundDuration":81113,"Delta":112636028},{"NoteNumber":69,"Velocity":23,"Duration":96055,"SoundDuration":96055,"Delta":112761967},{"NoteNumber":66,"Velocity":23,"Duration":96055,"SoundDuration":96055,"Delta":112766236},{"NoteNumber":73,"Velocity":23,"Duration":96055,"SoundDuration":96055,"Delta":112766236},{"NoteNumber":66,"Velocity":23,"Duration":102458,"SoundDuration":102458,"Delta":112890041},{"NoteNumber":69,"Velocity":23,"Duration":102458,"SoundDuration":102458,"Delta":112896445},{"NoteNumber":73,"Velocity":23,"Duration":102459,"SoundDuration":102459,"Delta":112900714},{"NoteNumber":75,"Velocity":30,"Duration":83369,"SoundDuration":83369,"Delta":113018115},{"NoteNumber":63,"Velocity":46,"Duration":549742,"SoundDuration":549742,"Delta":113022384},{"NoteNumber":69,"Velocity":23,"Duration":98875,"SoundDuration":98875,"Delta":113156414},{"NoteNumber":66,"Velocity":23,"Duration":98875,"SoundDuration":98875,"Delta":113158612},{"NoteNumber":73,"Velocity":23,"Duration":98875,"SoundDuration":98875,"Delta":113158612},{"NoteNumber":69,"Velocity":23,"Duration":105466,"SoundDuration":105466,"Delta":113288248},{"NoteNumber":66,"Velocity":23,"Duration":105466,"SoundDuration":105466,"Delta":113290445},{"NoteNumber":73,"Velocity":23,"Duration":105466,"SoundDuration":105466,"Delta":113290445},{"NoteNumber":75,"Velocity":33,"Duration":83494,"SoundDuration":83494,"Delta":113413489},{"NoteNumber":66,"Velocity":52,"Duration":561668,"SoundDuration":561668,"Delta":113549717},{"NoteNumber":69,"Velocity":23,"Duration":107565,"SoundDuration":107565,"Delta":113554199},{"NoteNumber":73,"Velocity":23,"Duration":107565,"SoundDuration":107565,"Delta":113554199},{"NoteNumber":75,"Velocity":33,"Duration":85155,"SoundDuration":85155,"Delta":113688656},{"NoteNumber":69,"Velocity":23,"Duration":100842,"SoundDuration":100842,"Delta":113814149},{"NoteNumber":73,"Velocity":23,"Duration":100842,"SoundDuration":100842,"Delta":113825354},{"NoteNumber":69,"Velocity":23,"Duration":107565,"SoundDuration":107565,"Delta":113955328},{"NoteNumber":73,"Velocity":23,"Duration":107565,"SoundDuration":107565,"Delta":113957569},{"NoteNumber":75,"Velocity":33,"Duration":90310,"SoundDuration":90310,"Delta":114083062},{"NoteNumber":65,"Velocity":45,"Duration":595060,"SoundDuration":595060,"Delta":114087544},{"NoteNumber":73,"Velocity":23,"Duration":107285,"SoundDuration":107285,"Delta":114225824},{"NoteNumber":66,"Velocity":23,"Duration":107285,"SoundDuration":107285,"Delta":114232976},{"NoteNumber":69,"Velocity":23,"Duration":107285,"SoundDuration":107285,"Delta":114237745},{"NoteNumber":69,"Velocity":23,"Duration":114438,"SoundDuration":114438,"Delta":114368872},{"NoteNumber":66,"Velocity":23,"Duration":114438,"SoundDuration":114438,"Delta":114371256},{"NoteNumber":73,"Velocity":23,"Duration":114438,"SoundDuration":114438,"Delta":114380792},{"NoteNumber":75,"Velocity":30,"Duration":90596,"SoundDuration":90596,"Delta":114519072},{"NoteNumber":66,"Velocity":27,"Duration":109866,"SoundDuration":109866,"Delta":114657352},{"NoteNumber":73,"Velocity":27,"Duration":109769,"SoundDuration":109769,"Delta":114659736},{"NoteNumber":61,"Velocity":45,"Duration":1593718,"SoundDuration":1593718,"Delta":114659736},{"NoteNumber":69,"Velocity":27,"Duration":109769,"SoundDuration":109769,"Delta":114666596},{"NoteNumber":75,"Velocity":33,"Duration":86900,"SoundDuration":86900,"Delta":114801521},{"NoteNumber":69,"Velocity":27,"Duration":102908,"SoundDuration":102908,"Delta":114929586},{"NoteNumber":66,"Velocity":27,"Duration":102908,"SoundDuration":102908,"Delta":114931873},{"NoteNumber":73,"Velocity":27,"Duration":102908,"SoundDuration":102908,"Delta":114931873},{"NoteNumber":73,"Velocity":27,"Duration":109769,"SoundDuration":109769,"Delta":115066798},{"NoteNumber":66,"Velocity":27,"Duration":109769,"SoundDuration":109769,"Delta":115073658},{"NoteNumber":69,"Velocity":27,"Duration":109769,"SoundDuration":109769,"Delta":115078232},{"NoteNumber":75,"Velocity":33,"Duration":84324,"SoundDuration":84324,"Delta":115215240},{"NoteNumber":69,"Velocity":23,"Duration":99857,"SoundDuration":99857,"Delta":115337289},{"NoteNumber":66,"Velocity":23,"Duration":99857,"SoundDuration":99857,"Delta":115341727},{"NoteNumber":73,"Velocity":23,"Duration":99857,"SoundDuration":99857,"Delta":115346165},{"NoteNumber":66,"Velocity":23,"Duration":99857,"SoundDuration":99857,"Delta":115472652},{"NoteNumber":73,"Velocity":23,"Duration":106515,"SoundDuration":106515,"Delta":115479309},{"NoteNumber":69,"Velocity":23,"Duration":106515,"SoundDuration":106515,"Delta":115481528},{"NoteNumber":75,"Velocity":33,"Duration":84324,"SoundDuration":84324,"Delta":115614672},{"NoteNumber":73,"Velocity":23,"Duration":102628,"SoundDuration":102628,"Delta":115736721},{"NoteNumber":66,"Velocity":23,"Duration":102543,"SoundDuration":102543,"Delta":115738940},{"NoteNumber":69,"Velocity":23,"Duration":102458,"SoundDuration":102458,"Delta":115741159},{"NoteNumber":75,"Velocity":30,"Duration":81113,"SoundDuration":81113,"Delta":115873502},{"NoteNumber":66,"Velocity":23,"Duration":96055,"SoundDuration":96055,"Delta":115993038},{"NoteNumber":73,"Velocity":23,"Duration":96055,"SoundDuration":96055,"Delta":115995172},{"NoteNumber":69,"Velocity":23,"Duration":96055,"SoundDuration":96055,"Delta":115997307},{"NoteNumber":69,"Velocity":23,"Duration":102458,"SoundDuration":102458,"Delta":116121111},{"NoteNumber":73,"Velocity":23,"Duration":102458,"SoundDuration":102458,"Delta":116123246},{"NoteNumber":66,"Velocity":23,"Duration":102459,"SoundDuration":102459,"Delta":116131784},{"NoteNumber":75,"Velocity":28,"Duration":95305,"SoundDuration":95305,"Delta":116251320},{"NoteNumber":59,"Velocity":45,"Duration":604351,"SoundDuration":604351,"Delta":116253454},{"NoteNumber":69,"Velocity":22,"Duration":113315,"SoundDuration":113315,"Delta":116399506},{"NoteNumber":66,"Velocity":22,"Duration":113315,"SoundDuration":113315,"Delta":116402024},{"NoteNumber":73,"Velocity":22,"Duration":113315,"SoundDuration":113315,"Delta":116407060},{"NoteNumber":73,"Velocity":22,"Duration":120870,"SoundDuration":120870,"Delta":116553112},{"NoteNumber":66,"Velocity":22,"Duration":120870,"SoundDuration":120870,"Delta":116563184},{"NoteNumber":69,"Velocity":22,"Duration":120870,"SoundDuration":120870,"Delta":116563184},{"NoteNumber":75,"Velocity":28,"Duration":95688,"SoundDuration":95688,"Delta":116711754},{"NoteNumber":63,"Velocity":45,"Duration":1046206,"SoundDuration":1046206,"Delta":116857806},{"NoteNumber":68,"Velocity":28,"Duration":98081,"SoundDuration":98081,"Delta":116859985},{"NoteNumber":72,"Velocity":28,"Duration":98081,"SoundDuration":98081,"Delta":116859985},{"NoteNumber":75,"Velocity":28,"Duration":98081,"SoundDuration":98081,"Delta":116864345},{"NoteNumber":76,"Velocity":35,"Duration":98081,"SoundDuration":98081,"Delta":116988582},{"NoteNumber":75,"Velocity":35,"Duration":69747,"SoundDuration":69747,"Delta":117125896},{"NoteNumber":75,"Velocity":35,"Duration":98081,"SoundDuration":98081,"Delta":117252313},{"NoteNumber":88,"Velocity":45,"Duration":98081,"SoundDuration":98081,"Delta":117376550},{"NoteNumber":84,"Velocity":36,"Duration":98081,"SoundDuration":98081,"Delta":117513865},{"NoteNumber":87,"Velocity":36,"Duration":98081,"SoundDuration":98081,"Delta":117513865},{"NoteNumber":75,"Velocity":35,"Duration":98081,"SoundDuration":98081,"Delta":117642461},{"NoteNumber":76,"Velocity":35,"Duration":98081,"SoundDuration":98081,"Delta":117779776},{"NoteNumber":72,"Velocity":33,"Duration":98081,"SoundDuration":98081,"Delta":117906192},{"NoteNumber":75,"Velocity":33,"Duration":98081,"SoundDuration":98081,"Delta":117906192},{"NoteNumber":76,"Velocity":33,"Duration":98081,"SoundDuration":98081,"Delta":118036968},{"NoteNumber":75,"Velocity":31,"Duration":98081,"SoundDuration":98081,"Delta":118163385},{"NoteNumber":63,"Velocity":31,"Duration":98081,"SoundDuration":98081,"Delta":118296340},{"NoteNumber":64,"Velocity":38,"Duration":98081,"SoundDuration":98081,"Delta":118427116},{"NoteNumber":60,"Velocity":33,"Duration":98081,"SoundDuration":98081,"Delta":118553533},{"NoteNumber":63,"Velocity":33,"Duration":98081,"SoundDuration":98081,"Delta":118562251},{"NoteNumber":63,"Velocity":38,"Duration":98081,"SoundDuration":98081,"Delta":118686488},{"NoteNumber":76,"Velocity":35,"Duration":98081,"SoundDuration":98081,"Delta":118815085},{"NoteNumber":72,"Velocity":28,"Duration":105061,"SoundDuration":105061,"Delta":118950220},{"NoteNumber":82,"Velocity":61,"Duration":564595,"SoundDuration":564595,"Delta":118950220},{"NoteNumber":70,"Velocity":56,"Duration":564595,"SoundDuration":564595,"Delta":118950220},{"NoteNumber":75,"Velocity":28,"Duration":105061,"SoundDuration":105061,"Delta":118952554},{"NoteNumber":76,"Velocity":35,"Duration":101030,"SoundDuration":101030,"Delta":119085633},{"NoteNumber":75,"Velocity":35,"Duration":71710,"SoundDuration":71710,"Delta":119222518},{"NoteNumber":75,"Velocity":35,"Duration":100842,"SoundDuration":100842,"Delta":119354734},{"NoteNumber":80,"Velocity":52,"Duration":529414,"SoundDuration":529414,"Delta":119493672},{"NoteNumber":68,"Velocity":46,"Duration":529414,"SoundDuration":529414,"Delta":119493672},{"NoteNumber":88,"Velocity":46,"Duration":95145,"SoundDuration":95145,"Delta":119495787},{"NoteNumber":84,"Velocity":42,"Duration":95145,"SoundDuration":95145,"Delta":119620533},{"NoteNumber":87,"Velocity":42,"Duration":95145,"SoundDuration":95145,"Delta":119622647},{"NoteNumber":75,"Velocity":35,"Duration":95145,"SoundDuration":95145,"Delta":119751622},{"NoteNumber":76,"Velocity":35,"Duration":95145,"SoundDuration":95145,"Delta":119874254},{"NoteNumber":75,"Velocity":33,"Duration":98875,"SoundDuration":98875,"Delta":120001115},{"NoteNumber":78,"Velocity":61,"Duration":549970,"SoundDuration":549970,"Delta":120001115},{"NoteNumber":66,"Velocity":56,"Duration":549970,"SoundDuration":549970,"Delta":120001115},{"NoteNumber":72,"Velocity":33,"Duration":98875,"SoundDuration":98875,"Delta":120005509},{"NoteNumber":76,"Velocity":33,"Duration":98875,"SoundDuration":98875,"Delta":120139540},{"NoteNumber":75,"Velocity":33,"Duration":98875,"SoundDuration":98875,"Delta":120266979},{"NoteNumber":63,"Velocity":33,"Duration":98875,"SoundDuration":98875,"Delta":120394418},{"NoteNumber":76,"Velocity":62,"Duration":555214,"SoundDuration":555214,"Delta":120528448},{"NoteNumber":64,"Velocity":38,"Duration":101865,"SoundDuration":101865,"Delta":120535239},{"NoteNumber":63,"Velocity":33,"Duration":101865,"SoundDuration":101865,"Delta":120664269},{"NoteNumber":60,"Velocity":33,"Duration":101865,"SoundDuration":101865,"Delta":120671060},{"NoteNumber":63,"Velocity":38,"Duration":101865,"SoundDuration":101865,"Delta":120806880},{"NoteNumber":76,"Velocity":35,"Duration":107831,"SoundDuration":107831,"Delta":120933646},{"NoteNumber":70,"Velocity":50,"Duration":1089979,"SoundDuration":1089979,"Delta":121004565},{"NoteNumber":82,"Velocity":53,"Duration":1010882,"SoundDuration":1010882,"Delta":121083663},{"NoteNumber":72,"Velocity":57,"Duration":96055,"SoundDuration":96055,"Delta":121083663},{"NoteNumber":75,"Velocity":33,"Duration":96055,"SoundDuration":96055,"Delta":121083663},{"NoteNumber":44,"Velocity":25,"Duration":128073,"SoundDuration":128073,"Delta":121083663},{"NoteNumber":76,"Velocity":35,"Duration":96055,"SoundDuration":96055,"Delta":121211736},{"NoteNumber":51,"Velocity":27,"Duration":128073,"SoundDuration":128073,"Delta":121211736},{"NoteNumber":75,"Velocity":35,"Duration":68306,"SoundDuration":68306,"Delta":121339810},{"NoteNumber":56,"Velocity":28,"Duration":128073,"SoundDuration":128073,"Delta":121339810},{"NoteNumber":75,"Velocity":35,"Duration":96055,"SoundDuration":96055,"Delta":121467884},{"NoteNumber":60,"Velocity":30,"Duration":128073,"SoundDuration":128073,"Delta":121467884},{"NoteNumber":88,"Velocity":46,"Duration":93485,"SoundDuration":93485,"Delta":121595958},{"NoteNumber":63,"Velocity":31,"Duration":124646,"SoundDuration":124646,"Delta":121595958},{"NoteNumber":84,"Velocity":36,"Duration":93485,"SoundDuration":93485,"Delta":121720604},{"NoteNumber":87,"Velocity":36,"Duration":93485,"SoundDuration":93485,"Delta":121720604},{"NoteNumber":64,"Velocity":33,"Duration":124646,"SoundDuration":124646,"Delta":121720604},{"NoteNumber":75,"Velocity":35,"Duration":93485,"SoundDuration":93485,"Delta":121845251},{"NoteNumber":68,"Velocity":33,"Duration":124646,"SoundDuration":124646,"Delta":121845251},{"NoteNumber":76,"Velocity":35,"Duration":93485,"SoundDuration":93485,"Delta":121969898},{"NoteNumber":72,"Velocity":35,"Duration":124646,"SoundDuration":124646,"Delta":121969898},{"NoteNumber":80,"Velocity":64,"Duration":512469,"SoundDuration":512469,"Delta":122094545},{"NoteNumber":68,"Velocity":36,"Duration":128117,"SoundDuration":128117,"Delta":122094545},{"NoteNumber":72,"Velocity":33,"Duration":96088,"SoundDuration":96088,"Delta":122222663},{"NoteNumber":76,"Velocity":33,"Duration":96088,"SoundDuration":96088,"Delta":122222663},{"NoteNumber":64,"Velocity":36,"Duration":128117,"SoundDuration":128117,"Delta":122222663},{"NoteNumber":68,"Velocity":33,"Duration":96088,"SoundDuration":96088,"Delta":122350780},{"NoteNumber":63,"Velocity":35,"Duration":128117,"SoundDuration":128117,"Delta":122350780},{"NoteNumber":68,"Velocity":33,"Duration":96088,"SoundDuration":96088,"Delta":122478898},{"NoteNumber":60,"Velocity":35,"Duration":128117,"SoundDuration":128117,"Delta":122478898},{"NoteNumber":75,"Velocity":63,"Duration":532523,"SoundDuration":532523,"Delta":122607015},{"NoteNumber":63,"Velocity":42,"Duration":96088,"SoundDuration":96088,"Delta":122607015},{"NoteNumber":58,"Velocity":33,"Duration":128117,"SoundDuration":128117,"Delta":122607015},{"NoteNumber":72,"Velocity":30,"Duration":96088,"SoundDuration":96088,"Delta":122735133},{"NoteNumber":56,"Velocity":33,"Duration":128117,"SoundDuration":128117,"Delta":122735133},{"NoteNumber":64,"Velocity":42,"Duration":97647,"SoundDuration":97647,"Delta":122863250},{"NoteNumber":51,"Velocity":33,"Duration":134354,"SoundDuration":134354,"Delta":122863250},{"NoteNumber":63,"Velocity":35,"Duration":110121,"SoundDuration":110121,"Delta":122997605},{"NoteNumber":44,"Velocity":31,"Duration":146828,"SoundDuration":146828,"Delta":122997605},{"NoteNumber":68,"Velocity":33,"Duration":96055,"SoundDuration":96055,"Delta":123144433},{"NoteNumber":75,"Velocity":53,"Duration":1496665,"SoundDuration":1496665,"Delta":123144433},{"NoteNumber":63,"Velocity":53,"Duration":1496665,"SoundDuration":1496665,"Delta":123144433},{"NoteNumber":42,"Velocity":30,"Duration":128073,"SoundDuration":128073,"Delta":123144433},{"NoteNumber":70,"Velocity":33,"Duration":96055,"SoundDuration":96055,"Delta":123272507},{"NoteNumber":49,"Velocity":30,"Duration":128073,"SoundDuration":128073,"Delta":123272507},{"NoteNumber":68,"Velocity":33,"Duration":96055,"SoundDuration":96055,"Delta":123400581},{"NoteNumber":52,"Velocity":31,"Duration":128073,"SoundDuration":128073,"Delta":123400581},{"NoteNumber":68,"Velocity":33,"Duration":96055,"SoundDuration":96055,"Delta":123528654},{"NoteNumber":56,"Velocity":35,"Duration":128073,"SoundDuration":128073,"Delta":123528654},{"NoteNumber":70,"Velocity":35,"Duration":92516,"SoundDuration":92516,"Delta":123656728},{"NoteNumber":58,"Velocity":36,"Duration":123355,"SoundDuration":123355,"Delta":123656728},{"NoteNumber":68,"Velocity":35,"Duration":92516,"SoundDuration":92516,"Delta":123780083},{"NoteNumber":61,"Velocity":38,"Duration":123355,"SoundDuration":123355,"Delta":123780083},{"NoteNumber":68,"Velocity":36,"Duration":92516,"SoundDuration":92516,"Delta":123903439},{"NoteNumber":64,"Velocity":40,"Duration":123355,"SoundDuration":123355,"Delta":123903439},{"NoteNumber":70,"Velocity":38,"Duration":92516,"SoundDuration":92516,"Delta":124026794},{"NoteNumber":68,"Velocity":40,"Duration":123355,"SoundDuration":123355,"Delta":124026794},{"NoteNumber":68,"Velocity":38,"Duration":96055,"SoundDuration":96055,"Delta":124150149},{"NoteNumber":68,"Velocity":40,"Duration":128073,"SoundDuration":128073,"Delta":124150149},{"NoteNumber":70,"Velocity":35,"Duration":96055,"SoundDuration":96055,"Delta":124278223},{"NoteNumber":66,"Velocity":40,"Duration":128073,"SoundDuration":128073,"Delta":124278223},{"NoteNumber":68,"Velocity":35,"Duration":96055,"SoundDuration":96055,"Delta":124406297},{"NoteNumber":64,"Velocity":40,"Duration":128073,"SoundDuration":128073,"Delta":124406297},{"NoteNumber":68,"Velocity":33,"Duration":96055,"SoundDuration":96055,"Delta":124534370},{"NoteNumber":61,"Velocity":38,"Duration":128073,"SoundDuration":128073,"Delta":124534370},{"NoteNumber":70,"Velocity":55,"Duration":98875,"SoundDuration":98875,"Delta":124662444},{"NoteNumber":73,"Velocity":55,"Duration":527333,"SoundDuration":527333,"Delta":124662444},{"NoteNumber":61,"Velocity":55,"Duration":527333,"SoundDuration":527333,"Delta":124662444},{"NoteNumber":58,"Velocity":36,"Duration":131833,"SoundDuration":131833,"Delta":124662444},{"NoteNumber":68,"Velocity":33,"Duration":98875,"SoundDuration":98875,"Delta":124794277},{"NoteNumber":56,"Velocity":36,"Duration":131833,"SoundDuration":131833,"Delta":124794277},{"NoteNumber":68,"Velocity":35,"Duration":98875,"SoundDuration":98875,"Delta":124926111},{"NoteNumber":52,"Velocity":35,"Duration":131833,"SoundDuration":131833,"Delta":124926111},{"NoteNumber":70,"Velocity":33,"Duration":98875,"SoundDuration":98875,"Delta":125057944},{"NoteNumber":49,"Velocity":31,"Duration":131833,"SoundDuration":131833,"Delta":125057944},{"NoteNumber":68,"Velocity":59,"Duration":100842,"SoundDuration":100842,"Delta":125189778},{"NoteNumber":78,"Velocity":59,"Duration":537826,"SoundDuration":537826,"Delta":125189778},{"NoteNumber":66,"Velocity":59,"Duration":537826,"SoundDuration":537826,"Delta":125189778},{"NoteNumber":42,"Velocity":30,"Duration":134456,"SoundDuration":134456,"Delta":125189778},{"NoteNumber":70,"Velocity":36,"Duration":100842,"SoundDuration":100842,"Delta":125324234},{"NoteNumber":49,"Velocity":31,"Duration":134456,"SoundDuration":134456,"Delta":125324234},{"NoteNumber":70,"Velocity":36,"Duration":100842,"SoundDuration":100842,"Delta":125458691},{"NoteNumber":52,"Velocity":35,"Duration":134456,"SoundDuration":134456,"Delta":125458691},{"NoteNumber":68,"Velocity":36,"Duration":100842,"SoundDuration":100842,"Delta":125593148},{"NoteNumber":56,"Velocity":38,"Duration":134456,"SoundDuration":134456,"Delta":125593148},{"NoteNumber":70,"Velocity":54,"Duration":107285,"SoundDuration":107285,"Delta":125727605},{"NoteNumber":76,"Velocity":54,"Duration":572191,"SoundDuration":572191,"Delta":125727605},{"NoteNumber":64,"Velocity":54,"Duration":572191,"SoundDuration":572191,"Delta":125727605},{"NoteNumber":58,"Velocity":36,"Duration":143047,"SoundDuration":143047,"Delta":125727605},{"NoteNumber":68,"Velocity":36,"Duration":107285,"SoundDuration":107285,"Delta":125870652},{"NoteNumber":56,"Velocity":35,"Duration":143047,"SoundDuration":143047,"Delta":125870652},{"NoteNumber":68,"Velocity":36,"Duration":107285,"SoundDuration":107285,"Delta":126013700},{"NoteNumber":52,"Velocity":31,"Duration":143047,"SoundDuration":143047,"Delta":126013700},{"NoteNumber":70,"Velocity":36,"Duration":107285,"SoundDuration":107285,"Delta":126156748},{"NoteNumber":49,"Velocity":35,"Duration":143047,"SoundDuration":143047,"Delta":126156748},{"NoteNumber":61,"Velocity":54,"Duration":523494,"SoundDuration":523494,"Delta":126299796},{"NoteNumber":73,"Velocity":54,"Duration":866238,"SoundDuration":866238,"Delta":126299796},{"NoteNumber":42,"Velocity":30,"Duration":87888,"SoundDuration":87888,"Delta":126299796},{"NoteNumber":49,"Velocity":35,"Duration":87888,"SoundDuration":87888,"Delta":126387685},{"NoteNumber":52,"Velocity":36,"Duration":87460,"SoundDuration":87460,"Delta":126475574},{"NoteNumber":56,"Velocity":40,"Duration":87032,"SoundDuration":87032,"Delta":126563034},{"NoteNumber":57,"Velocity":33,"Duration":87032,"SoundDuration":87032,"Delta":126650067},{"NoteNumber":61,"Velocity":33,"Duration":598083,"SoundDuration":598083,"Delta":126737099},{"NoteNumber":64,"Velocity":36,"Duration":86191,"SoundDuration":86191,"Delta":126823291},{"NoteNumber":67,"Velocity":38,"Duration":85787,"SoundDuration":85787,"Delta":126909483},{"NoteNumber":69,"Velocity":40,"Duration":85382,"SoundDuration":85382,"Delta":126995270},{"NoteNumber":73,"Velocity":45,"Duration":254530,"SoundDuration":254530,"Delta":127080652},{"NoteNumber":76,"Velocity":46,"Duration":84573,"SoundDuration":84573,"Delta":127166035},{"NoteNumber":79,"Velocity":47,"Duration":84573,"SoundDuration":84573,"Delta":127250609},{"NoteNumber":81,"Velocity":47,"Duration":78978,"SoundDuration":78978,"Delta":127335182},{"NoteNumber":59,"Velocity":51,"Duration":1027065,"SoundDuration":1027065,"Delta":127335182},{"NoteNumber":71,"Velocity":51,"Duration":1027065,"SoundDuration":1027065,"Delta":127335182},{"NoteNumber":79,"Velocity":46,"Duration":78978,"SoundDuration":78978,"Delta":127414161},{"NoteNumber":76,"Velocity":45,"Duration":78978,"SoundDuration":78978,"Delta":127493140},{"NoteNumber":73,"Velocity":42,"Duration":78978,"SoundDuration":78978,"Delta":127572119},{"NoteNumber":69,"Velocity":40,"Duration":78978,"SoundDuration":78978,"Delta":127651098},{"NoteNumber":67,"Velocity":38,"Duration":78978,"SoundDuration":78978,"Delta":127730077},{"NoteNumber":64,"Velocity":38,"Duration":78594,"SoundDuration":78594,"Delta":127809055},{"NoteNumber":61,"Velocity":46,"Duration":276482,"SoundDuration":276482,"Delta":127847477},{"NoteNumber":73,"Velocity":46,"Duration":514770,"SoundDuration":514770,"Delta":127847477},{"NoteNumber":67,"Velocity":36,"Duration":78230,"SoundDuration":78230,"Delta":127887650},{"NoteNumber":64,"Velocity":36,"Duration":78897,"SoundDuration":78897,"Delta":127965881},{"NoteNumber":61,"Velocity":36,"Duration":317469,"SoundDuration":317469,"Delta":128044779},{"NoteNumber":57,"Velocity":36,"Duration":79727,"SoundDuration":79727,"Delta":128123960},{"NoteNumber":52,"Velocity":35,"Duration":80231,"SoundDuration":80231,"Delta":128203687},{"NoteNumber":49,"Velocity":35,"Duration":78328,"SoundDuration":78328,"Delta":128283919},{"NoteNumber":63,"Velocity":54,"Duration":517152,"SoundDuration":517152,"Delta":128362248},{"NoteNumber":75,"Velocity":54,"Duration":517152,"SoundDuration":517152,"Delta":128362248},{"NoteNumber":68,"Velocity":54,"Duration":96966,"SoundDuration":96966,"Delta":128362248},{"NoteNumber":42,"Velocity":30,"Duration":129288,"SoundDuration":129288,"Delta":128362248},{"NoteNumber":70,"Velocity":33,"Duration":96966,"SoundDuration":96966,"Delta":128491536},{"NoteNumber":49,"Velocity":30,"Duration":129288,"SoundDuration":129288,"Delta":128491536},{"NoteNumber":68,"Velocity":33,"Duration":96966,"SoundDuration":96966,"Delta":128620824},{"NoteNumber":52,"Velocity":31,"Duration":129288,"SoundDuration":129288,"Delta":128620824},{"NoteNumber":68,"Velocity":33,"Duration":96965,"SoundDuration":96965,"Delta":128750112},{"NoteNumber":56,"Velocity":35,"Duration":129288,"SoundDuration":129288,"Delta":128750112},{"NoteNumber":70,"Velocity":50,"Duration":94252,"SoundDuration":94252,"Delta":128879400},{"NoteNumber":61,"Velocity":50,"Duration":502680,"SoundDuration":502680,"Delta":128879400},{"NoteNumber":73,"Velocity":50,"Duration":502680,"SoundDuration":502680,"Delta":128879400},{"NoteNumber":58,"Velocity":36,"Duration":125670,"SoundDuration":125670,"Delta":128879400},{"NoteNumber":68,"Velocity":35,"Duration":94252,"SoundDuration":94252,"Delta":129005070},{"NoteNumber":61,"Velocity":38,"Duration":125670,"SoundDuration":125670,"Delta":129005070},{"NoteNumber":68,"Velocity":36,"Duration":94252,"SoundDuration":94252,"Delta":129130741},{"NoteNumber":64,"Velocity":40,"Duration":125670,"SoundDuration":125670,"Delta":129130741},{"NoteNumber":70,"Velocity":38,"Duration":94252,"SoundDuration":94252,"Delta":129256411},{"NoteNumber":66,"Velocity":40,"Duration":125670,"SoundDuration":125670,"Delta":129256411},{"NoteNumber":78,"Velocity":57,"Duration":522192,"SoundDuration":522192,"Delta":129382081},{"NoteNumber":68,"Velocity":57,"Duration":97911,"SoundDuration":97911,"Delta":129382081},{"NoteNumber":66,"Velocity":57,"Duration":522192,"SoundDuration":522192,"Delta":129382081},{"NoteNumber":68,"Velocity":40,"Duration":130548,"SoundDuration":130548,"Delta":129382081},{"NoteNumber":70,"Velocity":35,"Duration":97911,"SoundDuration":97911,"Delta":129512629},{"NoteNumber":66,"Velocity":40,"Duration":130548,"SoundDuration":130548,"Delta":129512629},{"NoteNumber":68,"Velocity":35,"Duration":97911,"SoundDuration":97911,"Delta":129643178},{"NoteNumber":64,"Velocity":40,"Duration":130548,"SoundDuration":130548,"Delta":129643178},{"NoteNumber":68,"Velocity":33,"Duration":97911,"SoundDuration":97911,"Delta":129773726},{"NoteNumber":61,"Velocity":38,"Duration":130548,"SoundDuration":130548,"Delta":129773726},{"NoteNumber":64,"Velocity":53,"Duration":507442,"SoundDuration":507442,"Delta":129904274},{"NoteNumber":70,"Velocity":53,"Duration":95145,"SoundDuration":95145,"Delta":129904274},{"NoteNumber":76,"Velocity":53,"Duration":507442,"SoundDuration":507442,"Delta":129904274},{"NoteNumber":58,"Velocity":36,"Duration":126860,"SoundDuration":126860,"Delta":129904274},{"NoteNumber":68,"Velocity":33,"Duration":95145,"SoundDuration":95145,"Delta":130031135},{"NoteNumber":56,"Velocity":36,"Duration":126860,"SoundDuration":126860,"Delta":130031135},{"NoteNumber":68,"Velocity":35,"Duration":95145,"SoundDuration":95145,"Delta":130157995},{"NoteNumber":52,"Velocity":35,"Duration":126860,"SoundDuration":126860,"Delta":130157995},{"NoteNumber":70,"Velocity":33,"Duration":95145,"SoundDuration":95145,"Delta":130284856},{"NoteNumber":49,"Velocity":31,"Duration":126860,"SoundDuration":126860,"Delta":130284856},{"NoteNumber":63,"Velocity":58,"Duration":1014884,"SoundDuration":1014884,"Delta":130411717},{"NoteNumber":75,"Velocity":58,"Duration":1014884,"SoundDuration":1014884,"Delta":130411717},{"NoteNumber":42,"Velocity":30,"Duration":84573,"SoundDuration":84573,"Delta":130411717},{"NoteNumber":49,"Velocity":35,"Duration":84573,"SoundDuration":84573,"Delta":130496290},{"NoteNumber":52,"Velocity":36,"Duration":84573,"SoundDuration":84573,"Delta":130580864},{"NoteNumber":56,"Velocity":40,"Duration":84573,"SoundDuration":84573,"Delta":130665438},{"NoteNumber":57,"Velocity":33,"Duration":84573,"SoundDuration":84573,"Delta":130750012},{"NoteNumber":61,"Velocity":33,"Duration":84573,"SoundDuration":84573,"Delta":130834585},{"NoteNumber":64,"Velocity":36,"Duration":84573,"SoundDuration":84573,"Delta":130919159},{"NoteNumber":67,"Velocity":38,"Duration":84573,"SoundDuration":84573,"Delta":131003733},{"NoteNumber":69,"Velocity":40,"Duration":84573,"SoundDuration":84573,"Delta":131088307},{"NoteNumber":73,"Velocity":45,"Duration":84573,"SoundDuration":84573,"Delta":131172880},{"NoteNumber":76,"Velocity":46,"Duration":84573,"SoundDuration":84573,"Delta":131257454},{"NoteNumber":79,"Velocity":47,"Duration":84573,"SoundDuration":84573,"Delta":131342028},{"NoteNumber":81,"Velocity":47,"Duration":78978,"SoundDuration":78978,"Delta":131426602},{"NoteNumber":73,"Velocity":51,"Duration":512294,"SoundDuration":512294,"Delta":131426602},{"NoteNumber":61,"Velocity":51,"Duration":512294,"SoundDuration":512294,"Delta":131426602},{"NoteNumber":79,"Velocity":46,"Duration":78978,"SoundDuration":78978,"Delta":131505580},{"NoteNumber":76,"Velocity":45,"Duration":78978,"SoundDuration":78978,"Delta":131584559},{"NoteNumber":73,"Velocity":42,"Duration":78978,"SoundDuration":78978,"Delta":131663538},{"NoteNumber":69,"Velocity":40,"Duration":78978,"SoundDuration":78978,"Delta":131742517},{"NoteNumber":67,"Velocity":38,"Duration":78978,"SoundDuration":78978,"Delta":131821496},{"NoteNumber":64,"Velocity":38,"Duration":80169,"SoundDuration":80169,"Delta":131900474},{"NoteNumber":71,"Velocity":46,"Duration":527333,"SoundDuration":527333,"Delta":131938897},{"NoteNumber":59,"Velocity":46,"Duration":527333,"SoundDuration":527333,"Delta":131938897},{"NoteNumber":67,"Velocity":36,"Duration":81297,"SoundDuration":81297,"Delta":131980644},{"NoteNumber":64,"Velocity":36,"Duration":81297,"SoundDuration":81297,"Delta":132061941},{"NoteNumber":61,"Velocity":36,"Duration":81297,"SoundDuration":81297,"Delta":132143238},{"NoteNumber":57,"Velocity":36,"Duration":81297,"SoundDuration":81297,"Delta":132224536},{"NoteNumber":52,"Velocity":35,"Duration":81297,"SoundDuration":81297,"Delta":132305833},{"NoteNumber":49,"Velocity":35,"Duration":79100,"SoundDuration":79100,"Delta":132387130},{"NoteNumber":55,"Velocity":23,"Duration":98081,"SoundDuration":98081,"Delta":132466230},{"NoteNumber":58,"Velocity":23,"Duration":98081,"SoundDuration":98081,"Delta":132466230},{"NoteNumber":39,"Velocity":36,"Duration":261551,"SoundDuration":261551,"Delta":132466230},{"NoteNumber":59,"Velocity":31,"Duration":98081,"SoundDuration":98081,"Delta":132597006},{"NoteNumber":58,"Velocity":31,"Duration":69747,"SoundDuration":69747,"Delta":132727782},{"NoteNumber":46,"Velocity":28,"Duration":261551,"SoundDuration":261551,"Delta":132727782},{"NoteNumber":58,"Velocity":31,"Duration":98081,"SoundDuration":98081,"Delta":132858558},{"NoteNumber":71,"Velocity":35,"Duration":98081,"SoundDuration":98081,"Delta":132989334},{"NoteNumber":51,"Velocity":28,"Duration":261551,"SoundDuration":261551,"Delta":132989334},{"NoteNumber":67,"Velocity":27,"Duration":98081,"SoundDuration":98081,"Delta":133120109},{"NoteNumber":70,"Velocity":27,"Duration":98081,"SoundDuration":98081,"Delta":133120109},{"NoteNumber":58,"Velocity":33,"Duration":98081,"SoundDuration":98081,"Delta":133250885},{"NoteNumber":55,"Velocity":28,"Duration":261551,"SoundDuration":261551,"Delta":133250885},{"NoteNumber":71,"Velocity":33,"Duration":98081,"SoundDuration":98081,"Delta":133381661},{"NoteNumber":67,"Velocity":31,"Duration":98081,"SoundDuration":98081,"Delta":133512437},{"NoteNumber":70,"Velocity":31,"Duration":98081,"SoundDuration":98081,"Delta":133512437},{"NoteNumber":58,"Velocity":31,"Duration":261551,"SoundDuration":261551,"Delta":133512437},{"NoteNumber":71,"Velocity":33,"Duration":98081,"SoundDuration":98081,"Delta":133643213},{"NoteNumber":70,"Velocity":33,"Duration":98081,"SoundDuration":98081,"Delta":133773989},{"NoteNumber":63,"Velocity":28,"Duration":261551,"SoundDuration":261551,"Delta":133773989},{"NoteNumber":70,"Velocity":33,"Duration":98081,"SoundDuration":98081,"Delta":133904765},{"NoteNumber":83,"Velocity":36,"Duration":98081,"SoundDuration":98081,"Delta":134035541},{"NoteNumber":67,"Velocity":28,"Duration":261551,"SoundDuration":261551,"Delta":134035541},{"NoteNumber":82,"Velocity":30,"Duration":98081,"SoundDuration":98081,"Delta":134166316},{"NoteNumber":79,"Velocity":30,"Duration":98081,"SoundDuration":98081,"Delta":134166316},{"NoteNumber":70,"Velocity":33,"Duration":98081,"SoundDuration":98081,"Delta":134297092},{"NoteNumber":75,"Velocity":28,"Duration":261551,"SoundDuration":261551,"Delta":134297092},{"NoteNumber":83,"Velocity":30,"Duration":98081,"SoundDuration":98081,"Delta":134427868},{"NoteNumber":82,"Velocity":35,"Duration":104438,"SoundDuration":104438,"Delta":134558644},{"NoteNumber":79,"Velocity":28,"Duration":522192,"SoundDuration":522192,"Delta":134558644},{"NoteNumber":83,"Velocity":35,"Duration":82680,"SoundDuration":82680,"Delta":134689192},{"NoteNumber":82,"Velocity":35,"Duration":97911,"SoundDuration":97911,"Delta":134819741},{"NoteNumber":82,"Velocity":35,"Duration":104438,"SoundDuration":104438,"Delta":134950289},{"NoteNumber":87,"Velocity":31,"Duration":80345,"SoundDuration":80345,"Delta":135080837},{"NoteNumber":83,"Velocity":31,"Duration":80345,"SoundDuration":80345,"Delta":135080837},{"NoteNumber":82,"Velocity":36,"Duration":95145,"SoundDuration":95145,"Delta":135207698},{"NoteNumber":82,"Velocity":36,"Duration":101488,"SoundDuration":101488,"Delta":135334558},{"NoteNumber":83,"Velocity":36,"Duration":80345,"SoundDuration":80345,"Delta":135461419},{"NoteNumber":79,"Velocity":33,"Duration":101488,"SoundDuration":101488,"Delta":135588280},{"NoteNumber":82,"Velocity":33,"Duration":101488,"SoundDuration":101488,"Delta":135588280},{"NoteNumber":83,"Velocity":35,"Duration":80345,"SoundDuration":80345,"Delta":135715140},{"NoteNumber":82,"Velocity":35,"Duration":95145,"SoundDuration":95145,"Delta":135842001},{"NoteNumber":82,"Velocity":35,"Duration":101488,"SoundDuration":101488,"Delta":135968861},{"NoteNumber":87,"Velocity":31,"Duration":80345,"SoundDuration":80345,"Delta":136095722},{"NoteNumber":83,"Velocity":31,"Duration":80345,"SoundDuration":80345,"Delta":136095722},{"NoteNumber":82,"Velocity":36,"Duration":95145,"SoundDuration":95145,"Delta":136222583},{"NoteNumber":82,"Velocity":36,"Duration":101488,"SoundDuration":101488,"Delta":136349443},{"NoteNumber":83,"Velocity":36,"Duration":80345,"SoundDuration":80345,"Delta":136476304},{"NoteNumber":79,"Velocity":31,"Duration":101488,"SoundDuration":101488,"Delta":136603165},{"NoteNumber":82,"Velocity":31,"Duration":101488,"SoundDuration":101488,"Delta":136603165},{"NoteNumber":83,"Velocity":35,"Duration":80345,"SoundDuration":80345,"Delta":136730025},{"NoteNumber":82,"Velocity":35,"Duration":95145,"SoundDuration":95145,"Delta":136856886},{"NoteNumber":82,"Velocity":35,"Duration":101488,"SoundDuration":101488,"Delta":136983746},{"NoteNumber":87,"Velocity":31,"Duration":80345,"SoundDuration":80345,"Delta":137110607},{"NoteNumber":83,"Velocity":31,"Duration":80345,"SoundDuration":80345,"Delta":137110607},{"NoteNumber":82,"Velocity":36,"Duration":95145,"SoundDuration":95145,"Delta":137237468},{"NoteNumber":82,"Velocity":36,"Duration":101488,"SoundDuration":101488,"Delta":137364328},{"NoteNumber":83,"Velocity":36,"Duration":80345,"SoundDuration":80345,"Delta":137491189},{"NoteNumber":79,"Velocity":30,"Duration":104620,"SoundDuration":104620,"Delta":137618050},{"NoteNumber":82,"Velocity":30,"Duration":104620,"SoundDuration":104620,"Delta":137618050},{"NoteNumber":77,"Velocity":56,"Duration":1089798,"SoundDuration":1089798,"Delta":137618050},{"NoteNumber":83,"Velocity":33,"Duration":82824,"SoundDuration":82824,"Delta":137748825},{"NoteNumber":82,"Velocity":33,"Duration":98081,"SoundDuration":98081,"Delta":137879601},{"NoteNumber":82,"Velocity":33,"Duration":104620,"SoundDuration":104620,"Delta":138010377},{"NoteNumber":87,"Velocity":28,"Duration":82824,"SoundDuration":82824,"Delta":138141153},{"NoteNumber":83,"Velocity":28,"Duration":82824,"SoundDuration":82824,"Delta":138141153},{"NoteNumber":82,"Velocity":33,"Duration":98081,"SoundDuration":98081,"Delta":138271929},{"NoteNumber":82,"Velocity":33,"Duration":104620,"SoundDuration":104620,"Delta":138402705},{"NoteNumber":83,"Velocity":33,"Duration":82824,"SoundDuration":82824,"Delta":138533481},{"NoteNumber":79,"Velocity":28,"Duration":104620,"SoundDuration":104620,"Delta":138664257},{"NoteNumber":82,"Velocity":28,"Duration":104620,"SoundDuration":104620,"Delta":138664257},{"NoteNumber":73,"Velocity":46,"Duration":1569310,"SoundDuration":1569310,"Delta":138664257},{"NoteNumber":83,"Velocity":31,"Duration":82824,"SoundDuration":82824,"Delta":138795032},{"NoteNumber":82,"Velocity":31,"Duration":98081,"SoundDuration":98081,"Delta":138925808},{"NoteNumber":82,"Velocity":31,"Duration":104620,"SoundDuration":104620,"Delta":139056584},{"NoteNumber":87,"Velocity":28,"Duration":82824,"SoundDuration":82824,"Delta":139187360},{"NoteNumber":83,"Velocity":28,"Duration":82824,"SoundDuration":82824,"Delta":139187360},{"NoteNumber":82,"Velocity":31,"Duration":98081,"SoundDuration":98081,"Delta":139318136},{"NoteNumber":82,"Velocity":31,"Duration":104620,"SoundDuration":104620,"Delta":139448912},{"NoteNumber":83,"Velocity":31,"Duration":82824,"SoundDuration":82824,"Delta":139579688},{"NoteNumber":79,"Velocity":28,"Duration":104620,"SoundDuration":104620,"Delta":139710464},{"NoteNumber":82,"Velocity":28,"Duration":104620,"SoundDuration":104620,"Delta":139710464},{"NoteNumber":83,"Velocity":30,"Duration":82824,"SoundDuration":82824,"Delta":139841239},{"NoteNumber":82,"Velocity":30,"Duration":98081,"SoundDuration":98081,"Delta":139972015},{"NoteNumber":82,"Velocity":30,"Duration":104620,"SoundDuration":104620,"Delta":140102791},{"NoteNumber":87,"Velocity":25,"Duration":78943,"SoundDuration":78943,"Delta":140233567},{"NoteNumber":83,"Velocity":25,"Duration":78943,"SoundDuration":78943,"Delta":140233567},{"NoteNumber":70,"Velocity":51,"Duration":519933,"SoundDuration":519933,"Delta":140233567},{"NoteNumber":82,"Velocity":31,"Duration":93485,"SoundDuration":93485,"Delta":140358214},{"NoteNumber":82,"Velocity":31,"Duration":99717,"SoundDuration":99717,"Delta":140482861},{"NoteNumber":83,"Velocity":31,"Duration":78943,"SoundDuration":78943,"Delta":140607508},{"NoteNumber":81,"Velocity":28,"Duration":64036,"SoundDuration":64036,"Delta":140732155},{"NoteNumber":79,"Velocity":28,"Duration":64036,"SoundDuration":64036,"Delta":140732155},{"NoteNumber":73,"Velocity":56,"Duration":537726,"SoundDuration":537726,"Delta":140732155},{"NoteNumber":83,"Velocity":30,"Duration":64036,"SoundDuration":64036,"Delta":140817537},{"NoteNumber":81,"Velocity":31,"Duration":64239,"SoundDuration":64239,"Delta":140902920},{"NoteNumber":81,"Velocity":33,"Duration":64644,"SoundDuration":64644,"Delta":140988707},{"NoteNumber":85,"Velocity":33,"Duration":64643,"SoundDuration":64643,"Delta":141074899},{"NoteNumber":88,"Velocity":35,"Duration":65274,"SoundDuration":65274,"Delta":141161091},{"NoteNumber":91,"Velocity":36,"Duration":65274,"SoundDuration":65274,"Delta":141248123},{"NoteNumber":75,"Velocity":61,"Duration":571929,"SoundDuration":571929,"Delta":141248123},{"NoteNumber":88,"Velocity":33,"Duration":65488,"SoundDuration":65488,"Delta":141335155},{"NoteNumber":85,"Velocity":33,"Duration":65916,"SoundDuration":65916,"Delta":141422616},{"NoteNumber":81,"Velocity":31,"Duration":66135,"SoundDuration":66135,"Delta":141510505},{"NoteNumber":81,"Velocity":31,"Duration":74701,"SoundDuration":74701,"Delta":141598830},{"NoteNumber":83,"Velocity":30,"Duration":74701,"SoundDuration":74701,"Delta":141698432},{"NoteNumber":79,"Velocity":28,"Duration":105689,"SoundDuration":105689,"Delta":141798034},{"NoteNumber":82,"Velocity":28,"Duration":105689,"SoundDuration":105689,"Delta":141798034},{"NoteNumber":77,"Velocity":56,"Duration":1054316,"SoundDuration":1054316,"Delta":141798034},{"NoteNumber":83,"Velocity":31,"Duration":83670,"SoundDuration":83670,"Delta":141930146},{"NoteNumber":82,"Velocity":31,"Duration":99083,"SoundDuration":99083,"Delta":142062258},{"NoteNumber":82,"Velocity":31,"Duration":105689,"SoundDuration":105689,"Delta":142194370},{"NoteNumber":87,"Velocity":28,"Duration":83670,"SoundDuration":83670,"Delta":142326482},{"NoteNumber":83,"Velocity":28,"Duration":83670,"SoundDuration":83670,"Delta":142326482},{"NoteNumber":82,"Velocity":31,"Duration":99084,"SoundDuration":99084,"Delta":142458594},{"NoteNumber":82,"Velocity":31,"Duration":105511,"SoundDuration":105511,"Delta":142590706},{"NoteNumber":83,"Velocity":31,"Duration":82465,"SoundDuration":82465,"Delta":142722372},{"NoteNumber":79,"Velocity":25,"Duration":103662,"SoundDuration":103662,"Delta":142852350},{"NoteNumber":82,"Velocity":25,"Duration":103662,"SoundDuration":103662,"Delta":142852350},{"NoteNumber":73,"Velocity":52,"Duration":1554942,"SoundDuration":1554942,"Delta":142852350},{"NoteNumber":83,"Velocity":30,"Duration":82066,"SoundDuration":82066,"Delta":142981928},{"NoteNumber":82,"Velocity":30,"Duration":97183,"SoundDuration":97183,"Delta":143111507},{"NoteNumber":82,"Velocity":30,"Duration":103662,"SoundDuration":103662,"Delta":143241085},{"NoteNumber":87,"Velocity":25,"Duration":82066,"SoundDuration":82066,"Delta":143370664},{"NoteNumber":83,"Velocity":25,"Duration":82066,"SoundDuration":82066,"Delta":143370664},{"NoteNumber":82,"Velocity":30,"Duration":97183,"SoundDuration":97183,"Delta":143500242},{"NoteNumber":82,"Velocity":30,"Duration":103662,"SoundDuration":103662,"Delta":143629821},{"NoteNumber":83,"Velocity":30,"Duration":103662,"SoundDuration":103662,"Delta":143759399},{"NoteNumber":79,"Velocity":28,"Duration":103662,"SoundDuration":103662,"Delta":143888978},{"NoteNumber":82,"Velocity":28,"Duration":103662,"SoundDuration":103662,"Delta":143888978},{"NoteNumber":83,"Velocity":30,"Duration":82066,"SoundDuration":82066,"Delta":144018556},{"NoteNumber":82,"Velocity":30,"Duration":97183,"SoundDuration":97183,"Delta":144148135},{"NoteNumber":82,"Velocity":30,"Duration":103662,"SoundDuration":103662,"Delta":144277713},{"NoteNumber":87,"Velocity":25,"Duration":79604,"SoundDuration":79604,"Delta":144407292},{"NoteNumber":83,"Velocity":25,"Duration":79604,"SoundDuration":79604,"Delta":144407292},{"NoteNumber":70,"Velocity":52,"Duration":523341,"SoundDuration":523341,"Delta":144407292},{"NoteNumber":82,"Velocity":31,"Duration":94268,"SoundDuration":94268,"Delta":144532983},{"NoteNumber":82,"Velocity":31,"Duration":100552,"SoundDuration":100552,"Delta":144658674},{"NoteNumber":83,"Velocity":31,"Duration":79604,"SoundDuration":79604,"Delta":144784366},{"NoteNumber":81,"Velocity":28,"Duration":61728,"SoundDuration":61728,"Delta":144910057},{"NoteNumber":79,"Velocity":28,"Duration":61728,"SoundDuration":61728,"Delta":144910057},{"NoteNumber":73,"Velocity":53,"Duration":515209,"SoundDuration":515209,"Delta":144910057},{"NoteNumber":83,"Velocity":28,"Duration":61728,"SoundDuration":61728,"Delta":144992361},{"NoteNumber":81,"Velocity":30,"Duration":61728,"SoundDuration":61728,"Delta":145074666},{"NoteNumber":81,"Velocity":31,"Duration":61728,"SoundDuration":61728,"Delta":145156970},{"NoteNumber":85,"Velocity":33,"Duration":61728,"SoundDuration":61728,"Delta":145239275},{"NoteNumber":88,"Velocity":33,"Duration":61728,"SoundDuration":61728,"Delta":145321579},{"NoteNumber":91,"Velocity":33,"Duration":64146,"SoundDuration":64146,"Delta":145403884},{"NoteNumber":75,"Velocity":53,"Duration":533921,"SoundDuration":533921,"Delta":145403884},{"NoteNumber":88,"Velocity":36,"Duration":64146,"SoundDuration":64146,"Delta":145489412},{"NoteNumber":85,"Velocity":35,"Duration":64146,"SoundDuration":64146,"Delta":145574941},{"NoteNumber":81,"Velocity":33,"Duration":64146,"SoundDuration":64146,"Delta":145660470},{"NoteNumber":81,"Velocity":33,"Duration":64146,"SoundDuration":64146,"Delta":145745998},{"NoteNumber":83,"Velocity":31,"Duration":64146,"SoundDuration":64146,"Delta":145831527},{"NoteNumber":79,"Velocity":27,"Duration":99601,"SoundDuration":99601,"Delta":145917055},{"NoteNumber":82,"Velocity":27,"Duration":99601,"SoundDuration":99601,"Delta":145917055},{"NoteNumber":77,"Velocity":56,"Duration":496935,"SoundDuration":496935,"Delta":145917055},{"NoteNumber":83,"Velocity":31,"Duration":78851,"SoundDuration":78851,"Delta":146041557},{"NoteNumber":82,"Velocity":31,"Duration":93376,"SoundDuration":93376,"Delta":146166059},{"NoteNumber":82,"Velocity":31,"Duration":98963,"SoundDuration":98963,"Delta":146290561},{"NoteNumber":87,"Velocity":30,"Duration":78851,"SoundDuration":78851,"Delta":146413991},{"NoteNumber":83,"Velocity":30,"Duration":78851,"SoundDuration":78851,"Delta":146413991},{"NoteNumber":75,"Velocity":53,"Duration":505511,"SoundDuration":505511,"Delta":146413991},{"NoteNumber":82,"Velocity":35,"Duration":94252,"SoundDuration":94252,"Delta":146538493},{"NoteNumber":82,"Velocity":35,"Duration":101488,"SoundDuration":101488,"Delta":146664163},{"NoteNumber":83,"Velocity":36,"Duration":81113,"SoundDuration":81113,"Delta":146791024},{"NoteNumber":82,"Velocity":67,"Duration":570866,"SoundDuration":570866,"Delta":146919502},{"NoteNumber":83,"Velocity":35,"Duration":68605,"SoundDuration":68605,"Delta":147010977},{"NoteNumber":84,"Velocity":35,"Duration":68605,"SoundDuration":68605,"Delta":147102451},{"NoteNumber":85,"Velocity":36,"Duration":68605,"SoundDuration":68605,"Delta":147193926},{"NoteNumber":87,"Velocity":36,"Duration":68605,"SoundDuration":68605,"Delta":147285400},{"NoteNumber":88,"Velocity":40,"Duration":68605,"SoundDuration":68605,"Delta":147376875},{"NoteNumber":94,"Velocity":40,"Duration":77065,"SoundDuration":77065,"Delta":147468350},{"NoteNumber":79,"Velocity":62,"Duration":561688,"SoundDuration":561688,"Delta":147468350},{"NoteNumber":91,"Velocity":40,"Duration":77065,"SoundDuration":77065,"Delta":147574039},{"NoteNumber":89,"Velocity":40,"Duration":77065,"SoundDuration":77065,"Delta":147679729},{"NoteNumber":85,"Velocity":36,"Duration":79730,"SoundDuration":79730,"Delta":147785418},{"NoteNumber":82,"Velocity":35,"Duration":81974,"SoundDuration":81974,"Delta":147895597},{"NoteNumber":77,"Velocity":61,"Duration":1057342,"SoundDuration":1057342,"Delta":148008019},{"NoteNumber":78,"Velocity":36,"Duration":66056,"SoundDuration":66056,"Delta":148082883},{"NoteNumber":79,"Velocity":36,"Duration":66056,"SoundDuration":66056,"Delta":148157746},{"NoteNumber":80,"Velocity":36,"Duration":66056,"SoundDuration":66056,"Delta":148232610},{"NoteNumber":81,"Velocity":36,"Duration":66056,"SoundDuration":66056,"Delta":148307473},{"NoteNumber":82,"Velocity":36,"Duration":66056,"SoundDuration":66056,"Delta":148382337},{"NoteNumber":85,"Velocity":40,"Duration":66056,"SoundDuration":66056,"Delta":148457200},{"NoteNumber":89,"Velocity":40,"Duration":77065,"SoundDuration":77065,"Delta":148536467},{"NoteNumber":88,"Velocity":36,"Duration":77065,"SoundDuration":77065,"Delta":148642157},{"NoteNumber":85,"Velocity":36,"Duration":77065,"SoundDuration":77065,"Delta":148747847},{"NoteNumber":82,"Velocity":36,"Duration":77065,"SoundDuration":77065,"Delta":148853536},{"NoteNumber":79,"Velocity":36,"Duration":77221,"SoundDuration":77221,"Delta":148959226},{"NoteNumber":75,"Velocity":56,"Duration":556417,"SoundDuration":556417,"Delta":149065362},{"NoteNumber":77,"Velocity":36,"Duration":77667,"SoundDuration":77667,"Delta":149171877},{"NoteNumber":73,"Velocity":36,"Duration":77667,"SoundDuration":77667,"Delta":149278392},{"NoteNumber":67,"Velocity":35,"Duration":77667,"SoundDuration":77667,"Delta":149384908},{"NoteNumber":65,"Velocity":35,"Duration":77667,"SoundDuration":77667,"Delta":149491423},{"NoteNumber":63,"Velocity":33,"Duration":83444,"SoundDuration":83444,"Delta":149597938},{"NoteNumber":70,"Velocity":51,"Duration":621448,"SoundDuration":621448,"Delta":149597938},{"NoteNumber":61,"Velocity":33,"Duration":85029,"SoundDuration":85029,"Delta":149712582},{"NoteNumber":58,"Velocity":33,"Duration":87041,"SoundDuration":87041,"Delta":149829625},{"NoteNumber":55,"Velocity":31,"Duration":88680,"SoundDuration":88680,"Delta":149949150},{"NoteNumber":53,"Velocity":31,"Duration":91181,"SoundDuration":91181,"Delta":150071292},{"NoteNumber":52,"Velocity":27,"Duration":108656,"SoundDuration":108656,"Delta":150196750},{"NoteNumber":55,"Velocity":27,"Duration":108656,"SoundDuration":108656,"Delta":150196750},{"NoteNumber":36,"Velocity":36,"Duration":3206483,"SoundDuration":3206483,"Delta":150196750},{"NoteNumber":43,"Velocity":45,"Duration":565918,"SoundDuration":565918,"Delta":150196750},{"NoteNumber":56,"Velocity":30,"Duration":108656,"SoundDuration":108656,"Delta":150332570},{"NoteNumber":55,"Velocity":30,"Duration":108656,"SoundDuration":108656,"Delta":150468390},{"NoteNumber":55,"Velocity":30,"Duration":108656,"SoundDuration":108656,"Delta":150604211},{"NoteNumber":64,"Velocity":25,"Duration":108656,"SoundDuration":108656,"Delta":150740031},{"NoteNumber":67,"Velocity":25,"Duration":108656,"SoundDuration":108656,"Delta":150740031},{"NoteNumber":44,"Velocity":45,"Duration":565472,"SoundDuration":565472,"Delta":150740031},{"NoteNumber":55,"Velocity":28,"Duration":108656,"SoundDuration":108656,"Delta":150875851},{"NoteNumber":55,"Velocity":28,"Duration":108656,"SoundDuration":108656,"Delta":151011672},{"NoteNumber":56,"Velocity":28,"Duration":108656,"SoundDuration":108656,"Delta":151147492},{"NoteNumber":52,"Velocity":27,"Duration":106515,"SoundDuration":106515,"Delta":151283313},{"NoteNumber":55,"Velocity":27,"Duration":106515,"SoundDuration":106515,"Delta":151283313},{"NoteNumber":46,"Velocity":45,"Duration":1597727,"SoundDuration":1597727,"Delta":151283313},{"NoteNumber":56,"Velocity":30,"Duration":106515,"SoundDuration":106515,"Delta":151416457},{"NoteNumber":55,"Velocity":30,"Duration":106515,"SoundDuration":106515,"Delta":151549601},{"NoteNumber":55,"Velocity":30,"Duration":106515,"SoundDuration":106515,"Delta":151682745},{"NoteNumber":64,"Velocity":25,"Duration":106515,"SoundDuration":106515,"Delta":151815889},{"NoteNumber":67,"Velocity":25,"Duration":106515,"SoundDuration":106515,"Delta":151815889},{"NoteNumber":55,"Velocity":28,"Duration":106515,"SoundDuration":106515,"Delta":151949033},{"NoteNumber":55,"Velocity":28,"Duration":106515,"SoundDuration":106515,"Delta":152082177},{"NoteNumber":56,"Velocity":28,"Duration":106515,"SoundDuration":106515,"Delta":152215321},{"NoteNumber":52,"Velocity":27,"Duration":106515,"SoundDuration":106515,"Delta":152348465},{"NoteNumber":55,"Velocity":27,"Duration":106515,"SoundDuration":106515,"Delta":152348465},{"NoteNumber":56,"Velocity":33,"Duration":106515,"SoundDuration":106515,"Delta":152481609},{"NoteNumber":55,"Velocity":33,"Duration":106515,"SoundDuration":106515,"Delta":152614753},{"NoteNumber":55,"Velocity":33,"Duration":106515,"SoundDuration":106515,"Delta":152747897},{"NoteNumber":64,"Velocity":33,"Duration":104438,"SoundDuration":104438,"Delta":152881041},{"NoteNumber":67,"Velocity":33,"Duration":104438,"SoundDuration":104438,"Delta":152881041},{"NoteNumber":48,"Velocity":46,"Duration":522192,"SoundDuration":522192,"Delta":152881041},{"NoteNumber":55,"Velocity":35,"Duration":104438,"SoundDuration":104438,"Delta":153011589},{"NoteNumber":55,"Velocity":35,"Duration":104438,"SoundDuration":104438,"Delta":153142137},{"NoteNumber":56,"Velocity":35,"Duration":104438,"SoundDuration":104438,"Delta":153272685},{"NoteNumber":63,"Velocity":36,"Duration":86019,"SoundDuration":86019,"Delta":153403234},{"NoteNumber":42,"Velocity":42,"Duration":1121650,"SoundDuration":1121650,"Delta":153403234},{"NoteNumber":51,"Velocity":52,"Duration":543281,"SoundDuration":543281,"Delta":153403234},{"NoteNumber":52,"Velocity":36,"Duration":90546,"SoundDuration":90546,"Delta":153511890},{"NoteNumber":54,"Velocity":36,"Duration":90546,"SoundDuration":90546,"Delta":153620546},{"NoteNumber":56,"Velocity":35,"Duration":90546,"SoundDuration":90546,"Delta":153729202},{"NoteNumber":58,"Velocity":35,"Duration":90546,"SoundDuration":90546,"Delta":153837859},{"NoteNumber":61,"Velocity":35,"Duration":96394,"SoundDuration":96394,"Delta":153946515},{"NoteNumber":49,"Velocity":51,"Duration":578369,"SoundDuration":578369,"Delta":153946515},{"NoteNumber":64,"Velocity":35,"Duration":96394,"SoundDuration":96394,"Delta":154062189},{"NoteNumber":66,"Velocity":33,"Duration":96394,"SoundDuration":96394,"Delta":154177863},{"NoteNumber":68,"Velocity":33,"Duration":96394,"SoundDuration":96394,"Delta":154293536},{"NoteNumber":70,"Velocity":33,"Duration":96394,"SoundDuration":96394,"Delta":154409210},{"NoteNumber":55,"Velocity":28,"Duration":101865,"SoundDuration":101865,"Delta":154524884},{"NoteNumber":52,"Velocity":28,"Duration":101865,"SoundDuration":101865,"Delta":154524884},{"NoteNumber":36,"Velocity":38,"Duration":3186922,"SoundDuration":3186922,"Delta":154524884},{"NoteNumber":43,"Velocity":45,"Duration":3186922,"SoundDuration":3186922,"Delta":154524884},{"NoteNumber":56,"Velocity":35,"Duration":101865,"SoundDuration":101865,"Delta":154660704},{"NoteNumber":55,"Velocity":35,"Duration":72437,"SoundDuration":72437,"Delta":154796525},{"NoteNumber":55,"Velocity":35,"Duration":101865,"SoundDuration":101865,"Delta":154932345},{"NoteNumber":68,"Velocity":40,"Duration":97911,"SoundDuration":97911,"Delta":155068166},{"NoteNumber":48,"Velocity":45,"Duration":522192,"SoundDuration":522192,"Delta":155068166},{"NoteNumber":67,"Velocity":30,"Duration":97911,"SoundDuration":97911,"Delta":155198714},{"NoteNumber":64,"Velocity":30,"Duration":97911,"SoundDuration":97911,"Delta":155198714},{"NoteNumber":55,"Velocity":33,"Duration":97911,"SoundDuration":97911,"Delta":155329262},{"NoteNumber":68,"Velocity":33,"Duration":97911,"SoundDuration":97911,"Delta":155459810},{"NoteNumber":67,"Velocity":28,"Duration":98081,"SoundDuration":98081,"Delta":155590359},{"NoteNumber":64,"Velocity":28,"Duration":98081,"SoundDuration":98081,"Delta":155590359},{"NoteNumber":55,"Velocity":49,"Duration":523103,"SoundDuration":523103,"Delta":155590359},{"NoteNumber":68,"Velocity":35,"Duration":98081,"SoundDuration":98081,"Delta":155721134},{"NoteNumber":67,"Velocity":35,"Duration":69747,"SoundDuration":69747,"Delta":155851910},{"NoteNumber":67,"Velocity":35,"Duration":98081,"SoundDuration":98081,"Delta":155982686},{"NoteNumber":80,"Velocity":40,"Duration":98081,"SoundDuration":98081,"Delta":156113462},{"NoteNumber":64,"Velocity":52,"Duration":533192,"SoundDuration":533192,"Delta":156113462},{"NoteNumber":79,"Velocity":31,"Duration":98081,"SoundDuration":98081,"Delta":156244238},{"NoteNumber":76,"Velocity":31,"Duration":98081,"SoundDuration":98081,"Delta":156244238},{"NoteNumber":67,"Velocity":33,"Duration":101865,"SoundDuration":101865,"Delta":156375014},{"NoteNumber":80,"Velocity":33,"Duration":101865,"SoundDuration":101865,"Delta":156510834},{"NoteNumber":79,"Velocity":33,"Duration":99858,"SoundDuration":99858,"Delta":156646655},{"NoteNumber":76,"Velocity":33,"Duration":99858,"SoundDuration":99858,"Delta":156646655},{"NoteNumber":67,"Velocity":52,"Duration":532576,"SoundDuration":532576,"Delta":156646655},{"NoteNumber":80,"Velocity":35,"Duration":99858,"SoundDuration":99858,"Delta":156779799},{"NoteNumber":79,"Velocity":35,"Duration":71010,"SoundDuration":71010,"Delta":156912943},{"NoteNumber":79,"Velocity":35,"Duration":99858,"SoundDuration":99858,"Delta":157046087},{"NoteNumber":92,"Velocity":40,"Duration":99857,"SoundDuration":99857,"Delta":157179231},{"NoteNumber":76,"Velocity":52,"Duration":532576,"SoundDuration":532576,"Delta":157179231},{"NoteNumber":91,"Velocity":35,"Duration":99858,"SoundDuration":99858,"Delta":157312375},{"NoteNumber":88,"Velocity":35,"Duration":99858,"SoundDuration":99858,"Delta":157312375},{"NoteNumber":79,"Velocity":36,"Duration":99857,"SoundDuration":99857,"Delta":157445519},{"NoteNumber":80,"Velocity":36,"Duration":99858,"SoundDuration":99858,"Delta":157578663},{"NoteNumber":76,"Velocity":28,"Duration":98081,"SoundDuration":98081,"Delta":157711807},{"NoteNumber":79,"Velocity":28,"Duration":98081,"SoundDuration":98081,"Delta":157711807},{"NoteNumber":74,"Velocity":56,"Duration":1045296,"SoundDuration":1045296,"Delta":157711807},{"NoteNumber":86,"Velocity":56,"Duration":1045296,"SoundDuration":1045296,"Delta":157711807},{"NoteNumber":80,"Velocity":35,"Duration":98081,"SoundDuration":98081,"Delta":157842582},{"NoteNumber":79,"Velocity":35,"Duration":69747,"SoundDuration":69747,"Delta":157973358},{"NoteNumber":79,"Velocity":35,"Duration":98081,"SoundDuration":98081,"Delta":158104134},{"NoteNumber":92,"Velocity":50,"Duration":97911,"SoundDuration":97911,"Delta":158234910},{"NoteNumber":88,"Velocity":33,"Duration":97911,"SoundDuration":97911,"Delta":158365458},{"NoteNumber":91,"Velocity":33,"Duration":97911,"SoundDuration":97911,"Delta":158365458},{"NoteNumber":79,"Velocity":35,"Duration":97911,"SoundDuration":97911,"Delta":158496007},{"NoteNumber":80,"Velocity":35,"Duration":97911,"SoundDuration":97911,"Delta":158626555},{"NoteNumber":76,"Velocity":35,"Duration":97911,"SoundDuration":97911,"Delta":158757103},{"NoteNumber":79,"Velocity":35,"Duration":97911,"SoundDuration":97911,"Delta":158757103},{"NoteNumber":70,"Velocity":52,"Duration":1566579,"SoundDuration":1566579,"Delta":158757103},{"NoteNumber":82,"Velocity":52,"Duration":1566579,"SoundDuration":1566579,"Delta":158757103},{"NoteNumber":80,"Velocity":33,"Duration":97911,"SoundDuration":97911,"Delta":158887651},{"NoteNumber":79,"Velocity":33,"Duration":97911,"SoundDuration":97911,"Delta":159018200},{"NoteNumber":79,"Velocity":50,"Duration":97911,"SoundDuration":97911,"Delta":159148748},{"NoteNumber":92,"Velocity":36,"Duration":97911,"SoundDuration":97911,"Delta":159279296},{"NoteNumber":88,"Velocity":33,"Duration":97911,"SoundDuration":97911,"Delta":159409844},{"NoteNumber":91,"Velocity":33,"Duration":97911,"SoundDuration":97911,"Delta":159409844},{"NoteNumber":79,"Velocity":33,"Duration":97911,"SoundDuration":97911,"Delta":159540393},{"NoteNumber":80,"Velocity":40,"Duration":97911,"SoundDuration":97911,"Delta":159670941},{"NoteNumber":76,"Velocity":36,"Duration":97911,"SoundDuration":97911,"Delta":159801489},{"NoteNumber":79,"Velocity":36,"Duration":97911,"SoundDuration":97911,"Delta":159801489},{"NoteNumber":80,"Velocity":38,"Duration":97911,"SoundDuration":97911,"Delta":159932037},{"NoteNumber":79,"Velocity":36,"Duration":69625,"SoundDuration":69625,"Delta":160062586},{"NoteNumber":79,"Velocity":36,"Duration":97911,"SoundDuration":97911,"Delta":160193134},{"NoteNumber":92,"Velocity":50,"Duration":93485,"SoundDuration":93485,"Delta":160323682},{"NoteNumber":67,"Velocity":40,"Duration":498587,"SoundDuration":498587,"Delta":160323682},{"NoteNumber":79,"Velocity":46,"Duration":519532,"SoundDuration":519532,"Delta":160323682},{"NoteNumber":88,"Velocity":35,"Duration":93485,"SoundDuration":93485,"Delta":160448329},{"NoteNumber":91,"Velocity":35,"Duration":93485,"SoundDuration":93485,"Delta":160448329},{"NoteNumber":79,"Velocity":33,"Duration":93485,"SoundDuration":93485,"Delta":160572976},{"NoteNumber":80,"Velocity":33,"Duration":93485,"SoundDuration":93485,"Delta":160697623},{"NoteNumber":82,"Velocity":30,"Duration":62835,"SoundDuration":62835,"Delta":160822270},{"NoteNumber":70,"Velocity":45,"Duration":502680,"SoundDuration":502680,"Delta":160822270},{"NoteNumber":82,"Velocity":53,"Duration":524439,"SoundDuration":524439,"Delta":160822270},{"NoteNumber":76,"Velocity":30,"Duration":62835,"SoundDuration":62835,"Delta":160885105},{"NoteNumber":78,"Velocity":31,"Duration":62835,"SoundDuration":62835,"Delta":160947940},{"NoteNumber":82,"Velocity":33,"Duration":62835,"SoundDuration":62835,"Delta":161010775},{"NoteNumber":85,"Velocity":33,"Duration":62835,"SoundDuration":62835,"Delta":161073610},{"NoteNumber":88,"Velocity":33,"Duration":62835,"SoundDuration":62835,"Delta":161136445},{"NoteNumber":90,"Velocity":33,"Duration":62835,"SoundDuration":62835,"Delta":161199280},{"NoteNumber":94,"Velocity":35,"Duration":62835,"SoundDuration":62835,"Delta":161262115},{"NoteNumber":97,"Velocity":35,"Duration":65274,"SoundDuration":65274,"Delta":161324951},{"NoteNumber":72,"Velocity":45,"Duration":543899,"SoundDuration":543899,"Delta":161324951},{"NoteNumber":84,"Velocity":56,"Duration":565695,"SoundDuration":565695,"Delta":161324951},{"NoteNumber":94,"Velocity":35,"Duration":65274,"SoundDuration":65274,"Delta":161390225},{"NoteNumber":90,"Velocity":35,"Duration":65274,"SoundDuration":65274,"Delta":161455499},{"NoteNumber":88,"Velocity":33,"Duration":65274,"SoundDuration":65274,"Delta":161520773},{"NoteNumber":85,"Velocity":33,"Duration":65274,"SoundDuration":65274,"Delta":161586047},{"NoteNumber":82,"Velocity":33,"Duration":70700,"SoundDuration":70700,"Delta":161651321},{"NoteNumber":78,"Velocity":33,"Duration":73414,"SoundDuration":73414,"Delta":161722022},{"NoteNumber":76,"Velocity":33,"Duration":73414,"SoundDuration":73414,"Delta":161795436},{"NoteNumber":76,"Velocity":28,"Duration":98081,"SoundDuration":98081,"Delta":161868851},{"NoteNumber":79,"Velocity":28,"Duration":98081,"SoundDuration":98081,"Delta":161868851},{"NoteNumber":74,"Velocity":53,"Duration":1046207,"SoundDuration":1046207,"Delta":161868851},{"NoteNumber":86,"Velocity":53,"Duration":1046207,"SoundDuration":1046207,"Delta":161868851},{"NoteNumber":80,"Velocity":35,"Duration":98081,"SoundDuration":98081,"Delta":161999626},{"NoteNumber":79,"Velocity":35,"Duration":69747,"SoundDuration":69747,"Delta":162130402},{"NoteNumber":79,"Velocity":33,"Duration":98081,"SoundDuration":98081,"Delta":162261178},{"NoteNumber":92,"Velocity":50,"Duration":98081,"SoundDuration":98081,"Delta":162391954},{"NoteNumber":88,"Velocity":35,"Duration":98081,"SoundDuration":98081,"Delta":162522730},{"NoteNumber":91,"Velocity":35,"Duration":98081,"SoundDuration":98081,"Delta":162522730},{"NoteNumber":79,"Velocity":35,"Duration":98081,"SoundDuration":98081,"Delta":162653506},{"NoteNumber":80,"Velocity":35,"Duration":98081,"SoundDuration":98081,"Delta":162784282},{"NoteNumber":76,"Velocity":30,"Duration":98081,"SoundDuration":98081,"Delta":162915058},{"NoteNumber":79,"Velocity":30,"Duration":98081,"SoundDuration":98081,"Delta":162915058},{"NoteNumber":70,"Velocity":35,"Duration":1569310,"SoundDuration":1569310,"Delta":162915058},{"NoteNumber":82,"Velocity":46,"Duration":1569310,"SoundDuration":1569310,"Delta":162915058},{"NoteNumber":80,"Velocity":33,"Duration":98081,"SoundDuration":98081,"Delta":163045833},{"NoteNumber":79,"Velocity":33,"Duration":98081,"SoundDuration":98081,"Delta":163176609},{"NoteNumber":79,"Velocity":33,"Duration":98081,"SoundDuration":98081,"Delta":163307385},{"NoteNumber":92,"Velocity":38,"Duration":98081,"SoundDuration":98081,"Delta":163438161},{"NoteNumber":88,"Velocity":33,"Duration":98081,"SoundDuration":98081,"Delta":163568937},{"NoteNumber":91,"Velocity":33,"Duration":98081,"SoundDuration":98081,"Delta":163568937},{"NoteNumber":79,"Velocity":33,"Duration":98081,"SoundDuration":98081,"Delta":163699713},{"NoteNumber":80,"Velocity":30,"Duration":98081,"SoundDuration":98081,"Delta":163830489},{"NoteNumber":76,"Velocity":36,"Duration":98081,"SoundDuration":98081,"Delta":163961265},{"NoteNumber":79,"Velocity":36,"Duration":98081,"SoundDuration":98081,"Delta":163961265},{"NoteNumber":80,"Velocity":38,"Duration":98081,"SoundDuration":98081,"Delta":164092040},{"NoteNumber":79,"Velocity":36,"Duration":69747,"SoundDuration":69747,"Delta":164222816},{"NoteNumber":79,"Velocity":33,"Duration":98081,"SoundDuration":98081,"Delta":164353592},{"NoteNumber":92,"Velocity":50,"Duration":95145,"SoundDuration":95145,"Delta":164484368},{"NoteNumber":67,"Velocity":40,"Duration":507442,"SoundDuration":507442,"Delta":164484368},{"NoteNumber":79,"Velocity":46,"Duration":528990,"SoundDuration":528990,"Delta":164484368},{"NoteNumber":88,"Velocity":36,"Duration":95145,"SoundDuration":95145,"Delta":164611229},{"NoteNumber":91,"Velocity":36,"Duration":95145,"SoundDuration":95145,"Delta":164611229},{"NoteNumber":79,"Velocity":33,"Duration":95145,"SoundDuration":95145,"Delta":164738089},{"NoteNumber":80,"Velocity":33,"Duration":95145,"SoundDuration":95145,"Delta":164864950},{"NoteNumber":82,"Velocity":28,"Duration":64643,"SoundDuration":64643,"Delta":164991811},{"NoteNumber":70,"Velocity":45,"Duration":517152,"SoundDuration":517152,"Delta":164991811},{"NoteNumber":82,"Velocity":53,"Duration":538295,"SoundDuration":538295,"Delta":164991811},{"NoteNumber":76,"Velocity":28,"Duration":64644,"SoundDuration":64644,"Delta":165056455},{"NoteNumber":78,"Velocity":30,"Duration":64643,"SoundDuration":64643,"Delta":165121099},{"NoteNumber":82,"Velocity":30,"Duration":64644,"SoundDuration":64644,"Delta":165185743},{"NoteNumber":85,"Velocity":31,"Duration":64643,"SoundDuration":64643,"Delta":165250387},{"NoteNumber":88,"Velocity":33,"Duration":64644,"SoundDuration":64644,"Delta":165315031},{"NoteNumber":90,"Velocity":33,"Duration":64643,"SoundDuration":64643,"Delta":165379675},{"NoteNumber":94,"Velocity":33,"Duration":64644,"SoundDuration":64644,"Delta":165444319},{"NoteNumber":97,"Velocity":33,"Duration":63430,"SoundDuration":63430,"Delta":165508963},{"NoteNumber":72,"Velocity":45,"Duration":507442,"SoundDuration":507442,"Delta":165508963},{"NoteNumber":84,"Velocity":56,"Duration":528387,"SoundDuration":528387,"Delta":165508963},{"NoteNumber":94,"Velocity":33,"Duration":63430,"SoundDuration":63430,"Delta":165572393},{"NoteNumber":90,"Velocity":33,"Duration":63430,"SoundDuration":63430,"Delta":165635823},{"NoteNumber":88,"Velocity":33,"Duration":63430,"SoundDuration":63430,"Delta":165699253},{"NoteNumber":85,"Velocity":33,"Duration":63430,"SoundDuration":63430,"Delta":165762684},{"NoteNumber":82,"Velocity":31,"Duration":63430,"SoundDuration":63430,"Delta":165826114},{"NoteNumber":78,"Velocity":31,"Duration":63430,"SoundDuration":63430,"Delta":165889544},{"NoteNumber":76,"Velocity":33,"Duration":63430,"SoundDuration":63430,"Delta":165952975},{"NoteNumber":76,"Velocity":28,"Duration":94252,"SoundDuration":94252,"Delta":166016405},{"NoteNumber":79,"Velocity":28,"Duration":94252,"SoundDuration":94252,"Delta":166016405},{"NoteNumber":86,"Velocity":56,"Duration":502680,"SoundDuration":502680,"Delta":166016405},{"NoteNumber":74,"Velocity":56,"Duration":502680,"SoundDuration":502680,"Delta":166016405},{"NoteNumber":80,"Velocity":35,"Duration":94252,"SoundDuration":94252,"Delta":166142075},{"NoteNumber":79,"Velocity":35,"Duration":67024,"SoundDuration":67024,"Delta":166267746},{"NoteNumber":79,"Velocity":35,"Duration":94252,"SoundDuration":94252,"Delta":166393416},{"NoteNumber":92,"Velocity":50,"Duration":102908,"SoundDuration":102908,"Delta":166519086},{"NoteNumber":72,"Velocity":52,"Duration":560792,"SoundDuration":560792,"Delta":166519086},{"NoteNumber":84,"Velocity":52,"Duration":560792,"SoundDuration":560792,"Delta":166519086},{"NoteNumber":88,"Velocity":33,"Duration":102908,"SoundDuration":102908,"Delta":166656298},{"NoteNumber":91,"Velocity":33,"Duration":102908,"SoundDuration":102908,"Delta":166656298},{"NoteNumber":79,"Velocity":35,"Duration":103655,"SoundDuration":103655,"Delta":166793510},{"NoteNumber":80,"Velocity":35,"Duration":109627,"SoundDuration":109627,"Delta":166933708},{"NoteNumber":91,"Velocity":61,"Duration":527333,"SoundDuration":527333,"Delta":167079878},{"NoteNumber":79,"Velocity":61,"Duration":527333,"SoundDuration":527333,"Delta":167079878},{"NoteNumber":86,"Velocity":33,"Duration":87888,"SoundDuration":87888,"Delta":167167767},{"NoteNumber":90,"Velocity":33,"Duration":87888,"SoundDuration":87888,"Delta":167255656},{"NoteNumber":94,"Velocity":33,"Duration":87888,"SoundDuration":87888,"Delta":167343545},{"NoteNumber":87,"Velocity":33,"Duration":87888,"SoundDuration":87888,"Delta":167431434},{"NoteNumber":91,"Velocity":33,"Duration":87888,"SoundDuration":87888,"Delta":167519323},{"NoteNumber":95,"Velocity":33,"Duration":85382,"SoundDuration":85382,"Delta":167607212},{"NoteNumber":88,"Velocity":52,"Duration":525060,"SoundDuration":525060,"Delta":167607212},{"NoteNumber":76,"Velocity":52,"Duration":525060,"SoundDuration":525060,"Delta":167607212},{"NoteNumber":89,"Velocity":33,"Duration":85382,"SoundDuration":85382,"Delta":167692594},{"NoteNumber":90,"Velocity":33,"Duration":85382,"SoundDuration":85382,"Delta":167777977},{"NoteNumber":91,"Velocity":33,"Duration":89637,"SoundDuration":89637,"Delta":167863359},{"NoteNumber":94,"Velocity":33,"Duration":89637,"SoundDuration":89637,"Delta":167952997},{"NoteNumber":98,"Velocity":35,"Duration":89637,"SoundDuration":89637,"Delta":168042635},{"NoteNumber":103,"Velocity":33,"Duration":78978,"SoundDuration":78978,"Delta":168132273},{"NoteNumber":74,"Velocity":50,"Duration":1024589,"SoundDuration":1024589,"Delta":168132273},{"NoteNumber":86,"Velocity":50,"Duration":1024589,"SoundDuration":1024589,"Delta":168132273},{"NoteNumber":98,"Velocity":33,"Duration":78978,"SoundDuration":78978,"Delta":168211252},{"NoteNumber":94,"Velocity":33,"Duration":78978,"SoundDuration":78978,"Delta":168290230},{"NoteNumber":91,"Velocity":33,"Duration":78978,"SoundDuration":78978,"Delta":168369209},{"NoteNumber":90,"Velocity":33,"Duration":78978,"SoundDuration":78978,"Delta":168448188},{"NoteNumber":85,"Velocity":33,"Duration":78978,"SoundDuration":78978,"Delta":168527167},{"NoteNumber":82,"Velocity":33,"Duration":78978,"SoundDuration":78978,"Delta":168606146},{"NoteNumber":78,"Velocity":33,"Duration":78978,"SoundDuration":78978,"Delta":168685124},{"NoteNumber":82,"Velocity":33,"Duration":78978,"SoundDuration":78978,"Delta":168764103},{"NoteNumber":85,"Velocity":33,"Duration":78978,"SoundDuration":78978,"Delta":168843082},{"NoteNumber":79,"Velocity":33,"Duration":78978,"SoundDuration":78978,"Delta":168922061},{"NoteNumber":82,"Velocity":33,"Duration":78978,"SoundDuration":78978,"Delta":169001040},{"NoteNumber":86,"Velocity":33,"Duration":76844,"SoundDuration":76844,"Delta":169080018},{"NoteNumber":84,"Velocity":52,"Duration":522192,"SoundDuration":522192,"Delta":169156863},{"NoteNumber":72,"Velocity":52,"Duration":522192,"SoundDuration":522192,"Delta":169156863},{"NoteNumber":82,"Velocity":33,"Duration":87032,"SoundDuration":87032,"Delta":169243895},{"NoteNumber":79,"Velocity":33,"Duration":87032,"SoundDuration":87032,"Delta":169330927},{"NoteNumber":76,"Velocity":33,"Duration":87032,"SoundDuration":87032,"Delta":169417959},{"NoteNumber":74,"Velocity":33,"Duration":87032,"SoundDuration":87032,"Delta":169504991},{"NoteNumber":70,"Velocity":33,"Duration":87032,"SoundDuration":87032,"Delta":169592024},{"NoteNumber":67,"Velocity":49,"Duration":554528,"SoundDuration":554528,"Delta":169679056},{"NoteNumber":79,"Velocity":49,"Duration":554528,"SoundDuration":554528,"Delta":169679056},{"NoteNumber":76,"Velocity":33,"Duration":92421,"SoundDuration":92421,"Delta":169771477},{"NoteNumber":74,"Velocity":33,"Duration":92421,"SoundDuration":92421,"Delta":169863899},{"NoteNumber":70,"Velocity":33,"Duration":92421,"SoundDuration":92421,"Delta":169956320},{"NoteNumber":64,"Velocity":33,"Duration":92421,"SoundDuration":92421,"Delta":170048741},{"NoteNumber":62,"Velocity":33,"Duration":92421,"SoundDuration":92421,"Delta":170141163},{"NoteNumber":33,"Velocity":37,"Duration":3275800,"SoundDuration":3275800,"Delta":170164268},{"NoteNumber":61,"Velocity":30,"Duration":108656,"SoundDuration":108656,"Delta":170233584},{"NoteNumber":64,"Velocity":30,"Duration":108656,"SoundDuration":108656,"Delta":170233584},{"NoteNumber":45,"Velocity":39,"Duration":3206483,"SoundDuration":3206483,"Delta":170233584},{"NoteNumber":52,"Velocity":45,"Duration":565918,"SoundDuration":565918,"Delta":170233584},{"NoteNumber":65,"Velocity":31,"Duration":108656,"SoundDuration":108656,"Delta":170369405},{"NoteNumber":64,"Velocity":31,"Duration":108656,"SoundDuration":108656,"Delta":170505225},{"NoteNumber":64,"Velocity":31,"Duration":108656,"SoundDuration":108656,"Delta":170641045},{"NoteNumber":73,"Velocity":25,"Duration":108656,"SoundDuration":108656,"Delta":170776866},{"NoteNumber":76,"Velocity":25,"Duration":108656,"SoundDuration":108656,"Delta":170776866},{"NoteNumber":53,"Velocity":45,"Duration":565472,"SoundDuration":565472,"Delta":170776866},{"NoteNumber":64,"Velocity":30,"Duration":108656,"SoundDuration":108656,"Delta":170912686},{"NoteNumber":64,"Velocity":30,"Duration":108656,"SoundDuration":108656,"Delta":171048506},{"NoteNumber":65,"Velocity":30,"Duration":108656,"SoundDuration":108656,"Delta":171184327},{"NoteNumber":61,"Velocity":30,"Duration":106515,"SoundDuration":106515,"Delta":171320147},{"NoteNumber":64,"Velocity":30,"Duration":106515,"SoundDuration":106515,"Delta":171320147},{"NoteNumber":55,"Velocity":45,"Duration":1597727,"SoundDuration":1597727,"Delta":171320147},{"NoteNumber":65,"Velocity":31,"Duration":106515,"SoundDuration":106515,"Delta":171453291},{"NoteNumber":64,"Velocity":31,"Duration":106515,"SoundDuration":106515,"Delta":171586435},{"NoteNumber":64,"Velocity":31,"Duration":106515,"SoundDuration":106515,"Delta":171719579},{"NoteNumber":73,"Velocity":28,"Duration":106515,"SoundDuration":106515,"Delta":171852723},{"NoteNumber":76,"Velocity":28,"Duration":106515,"SoundDuration":106515,"Delta":171852723},{"NoteNumber":64,"Velocity":30,"Duration":106515,"SoundDuration":106515,"Delta":171985867},{"NoteNumber":64,"Velocity":30,"Duration":106515,"SoundDuration":106515,"Delta":172119011},{"NoteNumber":65,"Velocity":30,"Duration":106515,"SoundDuration":106515,"Delta":172252155},{"NoteNumber":61,"Velocity":30,"Duration":106515,"SoundDuration":106515,"Delta":172385299},{"NoteNumber":64,"Velocity":30,"Duration":106515,"SoundDuration":106515,"Delta":172385299},{"NoteNumber":65,"Velocity":36,"Duration":106515,"SoundDuration":106515,"Delta":172518443},{"NoteNumber":64,"Velocity":36,"Duration":106515,"SoundDuration":106515,"Delta":172651587},{"NoteNumber":64,"Velocity":36,"Duration":106515,"SoundDuration":106515,"Delta":172784731},{"NoteNumber":73,"Velocity":33,"Duration":104438,"SoundDuration":104438,"Delta":172917875},{"NoteNumber":76,"Velocity":33,"Duration":104438,"SoundDuration":104438,"Delta":172917875},{"NoteNumber":57,"Velocity":46,"Duration":522192,"SoundDuration":522192,"Delta":172917875},{"NoteNumber":64,"Velocity":36,"Duration":104438,"SoundDuration":104438,"Delta":173048423},{"NoteNumber":64,"Velocity":36,"Duration":104438,"SoundDuration":104438,"Delta":173178972},{"NoteNumber":65,"Velocity":36,"Duration":104438,"SoundDuration":104438,"Delta":173309520},{"NoteNumber":72,"Velocity":38,"Duration":108656,"SoundDuration":108656,"Delta":173440068},{"NoteNumber":45,"Velocity":29,"Duration":1121650,"SoundDuration":1121650,"Delta":173440068},{"NoteNumber":49,"Velocity":29,"Duration":1121650,"SoundDuration":1121650,"Delta":173440068},{"NoteNumber":51,"Velocity":29,"Duration":1121650,"SoundDuration":1121650,"Delta":173440068},{"NoteNumber":55,"Velocity":35,"Duration":1121650,"SoundDuration":1121650,"Delta":173440068},{"NoteNumber":60,"Velocity":52,"Duration":543281,"SoundDuration":543281,"Delta":173440068},{"NoteNumber":61,"Velocity":38,"Duration":108656,"SoundDuration":108656,"Delta":173548725},{"NoteNumber":63,"Velocity":38,"Duration":108656,"SoundDuration":108656,"Delta":173657381},{"NoteNumber":65,"Velocity":36,"Duration":108656,"SoundDuration":108656,"Delta":173766037},{"NoteNumber":67,"Velocity":36,"Duration":108656,"SoundDuration":108656,"Delta":173874693},{"NoteNumber":70,"Velocity":36,"Duration":96394,"SoundDuration":96394,"Delta":173983350},{"NoteNumber":58,"Velocity":51,"Duration":578369,"SoundDuration":578369,"Delta":173983350},{"NoteNumber":67,"Velocity":36,"Duration":96394,"SoundDuration":96394,"Delta":174079745},{"NoteNumber":65,"Velocity":36,"Duration":96394,"SoundDuration":96394,"Delta":174176139},{"NoteNumber":63,"Velocity":36,"Duration":96394,"SoundDuration":96394,"Delta":174272534},{"NoteNumber":61,"Velocity":36,"Duration":96394,"SoundDuration":96394,"Delta":174368929},{"NoteNumber":55,"Velocity":36,"Duration":96394,"SoundDuration":96394,"Delta":174465324},{"NoteNumber":33,"Velocity":37,"Duration":3259218,"SoundDuration":3259218,"Delta":174489423},{"NoteNumber":64,"Velocity":31,"Duration":101865,"SoundDuration":101865,"Delta":174561719},{"NoteNumber":61,"Velocity":31,"Duration":101865,"SoundDuration":101865,"Delta":174561719},{"NoteNumber":52,"Velocity":45,"Duration":543281,"SoundDuration":543281,"Delta":174561719},{"NoteNumber":45,"Velocity":39,"Duration":3186922,"SoundDuration":3186922,"Delta":174561719},{"NoteNumber":65,"Velocity":36,"Duration":101865,"SoundDuration":101865,"Delta":174697539},{"NoteNumber":64,"Velocity":36,"Duration":72437,"SoundDuration":72437,"Delta":174833359},{"NoteNumber":64,"Velocity":36,"Duration":101865,"SoundDuration":101865,"Delta":174969180},{"NoteNumber":77,"Velocity":45,"Duration":97911,"SoundDuration":97911,"Delta":175105000},{"NoteNumber":61,"Velocity":50,"Duration":522192,"SoundDuration":522192,"Delta":175105000},{"NoteNumber":76,"Velocity":30,"Duration":97911,"SoundDuration":97911,"Delta":175235548},{"NoteNumber":73,"Velocity":30,"Duration":97911,"SoundDuration":97911,"Delta":175235548},{"NoteNumber":64,"Velocity":38,"Duration":97911,"SoundDuration":97911,"Delta":175366097},{"NoteNumber":77,"Velocity":33,"Duration":97911,"SoundDuration":97911,"Delta":175496645},{"NoteNumber":76,"Velocity":31,"Duration":98081,"SoundDuration":98081,"Delta":175627193},{"NoteNumber":73,"Velocity":31,"Duration":98081,"SoundDuration":98081,"Delta":175627193},{"NoteNumber":64,"Velocity":51,"Duration":523103,"SoundDuration":523103,"Delta":175627193},{"NoteNumber":77,"Velocity":36,"Duration":98081,"SoundDuration":98081,"Delta":175757969},{"NoteNumber":76,"Velocity":36,"Duration":69747,"SoundDuration":69747,"Delta":175888745},{"NoteNumber":76,"Velocity":36,"Duration":98081,"SoundDuration":98081,"Delta":176019521},{"NoteNumber":89,"Velocity":45,"Duration":98081,"SoundDuration":98081,"Delta":176150297},{"NoteNumber":69,"Velocity":55,"Duration":533192,"SoundDuration":533192,"Delta":176150297},{"NoteNumber":88,"Velocity":33,"Duration":98081,"SoundDuration":98081,"Delta":176281073},{"NoteNumber":85,"Velocity":33,"Duration":98081,"SoundDuration":98081,"Delta":176281073},{"NoteNumber":76,"Velocity":38,"Duration":101865,"SoundDuration":101865,"Delta":176411848},{"NoteNumber":77,"Velocity":33,"Duration":101865,"SoundDuration":101865,"Delta":176547669},{"NoteNumber":76,"Velocity":33,"Duration":99858,"SoundDuration":99858,"Delta":176683489},{"NoteNumber":73,"Velocity":33,"Duration":99858,"SoundDuration":99858,"Delta":176683489},{"NoteNumber":73,"Velocity":54,"Duration":532576,"SoundDuration":532576,"Delta":176683489},{"NoteNumber":77,"Velocity":36,"Duration":99858,"SoundDuration":99858,"Delta":176816633},{"NoteNumber":76,"Velocity":36,"Duration":71010,"SoundDuration":71010,"Delta":176949777},{"NoteNumber":76,"Velocity":36,"Duration":99858,"SoundDuration":99858,"Delta":177082921},{"NoteNumber":89,"Velocity":45,"Duration":99857,"SoundDuration":99857,"Delta":177216065},{"NoteNumber":76,"Velocity":58,"Duration":532576,"SoundDuration":532576,"Delta":177216065},{"NoteNumber":88,"Velocity":36,"Duration":99858,"SoundDuration":99858,"Delta":177349209},{"NoteNumber":85,"Velocity":36,"Duration":99858,"SoundDuration":99858,"Delta":177349209},{"NoteNumber":77,"Velocity":38,"Duration":99857,"SoundDuration":99857,"Delta":177482353},{"NoteNumber":73,"Velocity":36,"Duration":99858,"SoundDuration":99858,"Delta":177615497},{"NoteNumber":81,"Velocity":67,"Duration":533580,"SoundDuration":533580,"Delta":177748641},{"NoteNumber":57,"Velocity":51,"Duration":189717,"SoundDuration":189717,"Delta":177748641},{"NoteNumber":69,"Velocity":45,"Duration":142287,"SoundDuration":142287,"Delta":177890929},{"NoteNumber":61,"Velocity":42,"Duration":189717,"SoundDuration":189717,"Delta":177938359},{"NoteNumber":73,"Velocity":45,"Duration":142288,"SoundDuration":142288,"Delta":178033217},{"NoteNumber":67,"Velocity":42,"Duration":189717,"SoundDuration":189717,"Delta":178128076},{"NoteNumber":81,"Velocity":45,"Duration":142288,"SoundDuration":142288,"Delta":178175505},{"NoteNumber":79,"Velocity":67,"Duration":541028,"SoundDuration":541028,"Delta":178317793},{"NoteNumber":81,"Velocity":46,"Duration":101442,"SoundDuration":101442,"Delta":178453050},{"NoteNumber":70,"Velocity":40,"Duration":225428,"SoundDuration":225428,"Delta":178498136},{"NoteNumber":73,"Velocity":40,"Duration":180342,"SoundDuration":180342,"Delta":178543222},{"NoteNumber":81,"Velocity":50,"Duration":101442,"SoundDuration":101442,"Delta":178588307},{"NoteNumber":82,"Velocity":40,"Duration":135256,"SoundDuration":135256,"Delta":178588307},{"NoteNumber":93,"Velocity":46,"Duration":101442,"SoundDuration":101442,"Delta":178723564},{"NoteNumber":77,"Velocity":68,"Duration":520381,"SoundDuration":520381,"Delta":178858821},{"NoteNumber":57,"Velocity":51,"Duration":173460,"SoundDuration":173460,"Delta":178858821},{"NoteNumber":69,"Velocity":47,"Duration":130095,"SoundDuration":130095,"Delta":178988917},{"NoteNumber":61,"Velocity":42,"Duration":173460,"SoundDuration":173460,"Delta":179032282},{"NoteNumber":73,"Velocity":47,"Duration":130095,"SoundDuration":130095,"Delta":179119012},{"NoteNumber":67,"Velocity":42,"Duration":173460,"SoundDuration":173460,"Delta":179205742},{"NoteNumber":81,"Velocity":47,"Duration":130095,"SoundDuration":130095,"Delta":179249107},{"NoteNumber":76,"Velocity":59,"Duration":557516,"SoundDuration":557516,"Delta":179379203},{"NoteNumber":81,"Velocity":50,"Duration":104534,"SoundDuration":104534,"Delta":179518582},{"NoteNumber":70,"Velocity":40,"Duration":232298,"SoundDuration":232298,"Delta":179565042},{"NoteNumber":73,"Velocity":40,"Duration":185838,"SoundDuration":185838,"Delta":179611501},{"NoteNumber":81,"Velocity":50,"Duration":104534,"SoundDuration":104534,"Delta":179657961},{"NoteNumber":82,"Velocity":40,"Duration":139379,"SoundDuration":139379,"Delta":179657961},{"NoteNumber":93,"Velocity":46,"Duration":104534,"SoundDuration":104534,"Delta":179797340},{"NoteNumber":81,"Velocity":67,"Duration":525302,"SoundDuration":525302,"Delta":179936720},{"NoteNumber":57,"Velocity":45,"Duration":175100,"SoundDuration":175100,"Delta":179936720},{"NoteNumber":69,"Velocity":41,"Duration":131325,"SoundDuration":131325,"Delta":180068045},{"NoteNumber":62,"Velocity":39,"Duration":175100,"SoundDuration":175100,"Delta":180111820},{"NoteNumber":74,"Velocity":45,"Duration":131325,"SoundDuration":131325,"Delta":180199371},{"NoteNumber":71,"Velocity":39,"Duration":175100,"SoundDuration":175100,"Delta":180286921},{"NoteNumber":81,"Velocity":45,"Duration":370352,"SoundDuration":370352,"Delta":180330696},{"NoteNumber":77,"Velocity":40,"Duration":273174,"SoundDuration":273174,"Delta":180462022},{"NoteNumber":81,"Velocity":41,"Duration":240152,"SoundDuration":240152,"Delta":180598609},{"NoteNumber":81,"Velocity":41,"Duration":291178,"SoundDuration":291178,"Delta":180735196},{"NoteNumber":71,"Velocity":40,"Duration":141088,"SoundDuration":141088,"Delta":180735196},{"NoteNumber":83,"Velocity":40,"Duration":141088,"SoundDuration":141088,"Delta":180735196},{"NoteNumber":93,"Velocity":36,"Duration":112567,"SoundDuration":112567,"Delta":180876284},{"NoteNumber":79,"Velocity":66,"Duration":510638,"SoundDuration":510638,"Delta":181026374},{"NoteNumber":57,"Velocity":45,"Duration":170212,"SoundDuration":170212,"Delta":181026374},{"NoteNumber":69,"Velocity":42,"Duration":127659,"SoundDuration":127659,"Delta":181154034},{"NoteNumber":62,"Velocity":39,"Duration":170212,"SoundDuration":170212,"Delta":181196587},{"NoteNumber":74,"Velocity":42,"Duration":127659,"SoundDuration":127659,"Delta":181281693},{"NoteNumber":71,"Velocity":39,"Duration":170212,"SoundDuration":170212,"Delta":181366800},{"NoteNumber":81,"Velocity":42,"Duration":127659,"SoundDuration":127659,"Delta":181409353},{"NoteNumber":74,"Velocity":53,"Duration":558580,"SoundDuration":558580,"Delta":181537013},{"NoteNumber":81,"Velocity":38,"Duration":105613,"SoundDuration":105613,"Delta":181677831},{"NoteNumber":71,"Velocity":40,"Duration":187758,"SoundDuration":187758,"Delta":181771710},{"NoteNumber":81,"Velocity":38,"Duration":105613,"SoundDuration":105613,"Delta":181818650},{"NoteNumber":83,"Velocity":40,"Duration":140818,"SoundDuration":140818,"Delta":181818650},{"NoteNumber":93,"Velocity":37,"Duration":105613,"SoundDuration":105613,"Delta":181959468},{"NoteNumber":74,"Velocity":68,"Duration":1591618,"SoundDuration":1591618,"Delta":182100287},{"NoteNumber":57,"Velocity":35,"Duration":178539,"SoundDuration":178539,"Delta":182100287},{"NoteNumber":69,"Velocity":41,"Duration":133904,"SoundDuration":133904,"Delta":182234192},{"NoteNumber":63,"Velocity":35,"Duration":178539,"SoundDuration":178539,"Delta":182278827},{"NoteNumber":79,"Velocity":42,"Duration":133904,"SoundDuration":133904,"Delta":182368096},{"NoteNumber":67,"Velocity":35,"Duration":178539,"SoundDuration":178539,"Delta":182457366},{"NoteNumber":81,"Velocity":44,"Duration":100428,"SoundDuration":100428,"Delta":182502001},{"NoteNumber":69,"Velocity":38,"Duration":267809,"SoundDuration":267809,"Delta":182635906},{"NoteNumber":81,"Velocity":44,"Duration":100428,"SoundDuration":100428,"Delta":182769810},{"NoteNumber":75,"Velocity":30,"Duration":178539,"SoundDuration":178539,"Delta":182859080},{"NoteNumber":81,"Velocity":44,"Duration":100428,"SoundDuration":100428,"Delta":182903715},{"NoteNumber":79,"Velocity":30,"Duration":133904,"SoundDuration":133904,"Delta":182903715},{"NoteNumber":93,"Velocity":36,"Duration":100428,"SoundDuration":100428,"Delta":183037619},{"NoteNumber":57,"Velocity":35,"Duration":173460,"SoundDuration":173460,"Delta":183171524},{"NoteNumber":69,"Velocity":41,"Duration":130095,"SoundDuration":130095,"Delta":183301619},{"NoteNumber":63,"Velocity":35,"Duration":173460,"SoundDuration":173460,"Delta":183344985},{"NoteNumber":79,"Velocity":41,"Duration":130095,"SoundDuration":130095,"Delta":183431715},{"NoteNumber":67,"Velocity":35,"Duration":173460,"SoundDuration":173460,"Delta":183518445},{"NoteNumber":81,"Velocity":41,"Duration":130095,"SoundDuration":130095,"Delta":183561810},{"NoteNumber":72,"Velocity":59,"Duration":541028,"SoundDuration":541028,"Delta":183691906},{"NoteNumber":81,"Velocity":37,"Duration":101442,"SoundDuration":101442,"Delta":183827163},{"NoteNumber":75,"Velocity":30,"Duration":180342,"SoundDuration":180342,"Delta":183917334},{"NoteNumber":81,"Velocity":37,"Duration":101442,"SoundDuration":101442,"Delta":183962420},{"NoteNumber":79,"Velocity":30,"Duration":135256,"SoundDuration":135256,"Delta":183962420},{"NoteNumber":93,"Velocity":33,"Duration":101442,"SoundDuration":101442,"Delta":184097677},{"NoteNumber":77,"Velocity":64,"Duration":390286,"SoundDuration":390286,"Delta":184232934},{"NoteNumber":57,"Velocity":35,"Duration":173460,"SoundDuration":173460,"Delta":184232934},{"NoteNumber":69,"Velocity":38,"Duration":130095,"SoundDuration":130095,"Delta":184363029},{"NoteNumber":63,"Velocity":35,"Duration":173460,"SoundDuration":173460,"Delta":184406394},{"NoteNumber":77,"Velocity":40,"Duration":260190,"SoundDuration":260190,"Delta":184493124},{"NoteNumber":67,"Velocity":35,"Duration":173460,"SoundDuration":173460,"Delta":184579855},{"NoteNumber":81,"Velocity":38,"Duration":130095,"SoundDuration":130095,"Delta":184623220},{"NoteNumber":75,"Velocity":56,"Duration":581169,"SoundDuration":581169,"Delta":184753315},{"NoteNumber":81,"Velocity":38,"Duration":108969,"SoundDuration":108969,"Delta":184898608},{"NoteNumber":69,"Velocity":30,"Duration":193723,"SoundDuration":193723,"Delta":184995469},{"NoteNumber":81,"Velocity":38,"Duration":108969,"SoundDuration":108969,"Delta":185043900},{"NoteNumber":79,"Velocity":30,"Duration":145292,"SoundDuration":145292,"Delta":185043900},{"NoteNumber":93,"Velocity":35,"Duration":108969,"SoundDuration":108969,"Delta":185189193},{"NoteNumber":74,"Velocity":63,"Duration":1083502,"SoundDuration":1083502,"Delta":185334485},{"NoteNumber":57,"Velocity":35,"Duration":178539,"SoundDuration":178539,"Delta":185334485},{"NoteNumber":69,"Velocity":39,"Duration":133904,"SoundDuration":133904,"Delta":185468390},{"NoteNumber":66,"Velocity":35,"Duration":178539,"SoundDuration":178539,"Delta":185513025},{"NoteNumber":78,"Velocity":39,"Duration":133904,"SoundDuration":133904,"Delta":185602294},{"NoteNumber":69,"Velocity":35,"Duration":179891,"SoundDuration":179891,"Delta":185691564},{"NoteNumber":81,"Velocity":37,"Duration":101442,"SoundDuration":101442,"Delta":185736199},{"NoteNumber":66,"Velocity":38,"Duration":270957,"SoundDuration":270957,"Delta":185871456},{"NoteNumber":81,"Velocity":39,"Duration":101553,"SoundDuration":101553,"Delta":186006713},{"NoteNumber":69,"Velocity":30,"Duration":182116,"SoundDuration":182116,"Delta":186096884},{"NoteNumber":81,"Velocity":37,"Duration":102440,"SoundDuration":102440,"Delta":186142413},{"NoteNumber":78,"Velocity":30,"Duration":136587,"SoundDuration":136587,"Delta":186142413},{"NoteNumber":93,"Velocity":37,"Duration":103940,"SoundDuration":103940,"Delta":186279000},{"NoteNumber":72,"Velocity":61,"Duration":590587,"SoundDuration":590587,"Delta":186417987},{"NoteNumber":57,"Velocity":30,"Duration":190942,"SoundDuration":190942,"Delta":186417987},{"NoteNumber":67,"Velocity":38,"Duration":145640,"SoundDuration":145640,"Delta":186560853},{"NoteNumber":63,"Velocity":30,"Duration":196573,"SoundDuration":196573,"Delta":186608930},{"NoteNumber":73,"Velocity":38,"Duration":149009,"SoundDuration":149009,"Delta":186706493},{"NoteNumber":67,"Velocity":30,"Duration":203071,"SoundDuration":203071,"Delta":186805503},{"NoteNumber":81,"Velocity":38,"Duration":114412,"SoundDuration":114412,"Delta":186855503},{"NoteNumber":70,"Velocity":53,"Duration":637465,"SoundDuration":637465,"Delta":187008575},{"NoteNumber":81,"Velocity":37,"Duration":118561,"SoundDuration":118561,"Delta":187164288},{"NoteNumber":72,"Velocity":30,"Duration":267697,"SoundDuration":267697,"Delta":187216920},{"NoteNumber":75,"Velocity":30,"Duration":215066,"SoundDuration":215066,"Delta":187269551},{"NoteNumber":81,"Velocity":37,"Duration":121113,"SoundDuration":121113,"Delta":187322743},{"NoteNumber":82,"Velocity":30,"Duration":161874,"SoundDuration":161874,"Delta":187322743},{"NoteNumber":93,"Velocity":39,"Duration":122778,"SoundDuration":122778,"Delta":187484618},{"NoteNumber":57,"Velocity":52,"Duration":105819,"SoundDuration":105819,"Delta":187646040},{"NoteNumber":45,"Velocity":45,"Duration":159365,"SoundDuration":159365,"Delta":187646040},{"NoteNumber":61,"Velocity":53,"Duration":104654,"SoundDuration":104654,"Delta":187751860},{"NoteNumber":49,"Velocity":47,"Duration":156245,"SoundDuration":156245,"Delta":187805406},{"NoteNumber":64,"Velocity":56,"Duration":103205,"SoundDuration":103205,"Delta":187856515},{"NoteNumber":69,"Velocity":57,"Duration":101865,"SoundDuration":101865,"Delta":187959720},{"NoteNumber":58,"Velocity":50,"Duration":153238,"SoundDuration":153238,"Delta":187961652},{"NoteNumber":73,"Velocity":58,"Duration":100390,"SoundDuration":100390,"Delta":188061585},{"NoteNumber":61,"Velocity":52,"Duration":150040,"SoundDuration":150040,"Delta":188114891},{"NoteNumber":76,"Velocity":61,"Duration":99220,"SoundDuration":99220,"Delta":188161975},{"NoteNumber":81,"Velocity":63,"Duration":98026,"SoundDuration":98026,"Delta":188261196},{"NoteNumber":70,"Velocity":56,"Duration":147260,"SoundDuration":147260,"Delta":188264931},{"NoteNumber":85,"Velocity":66,"Duration":96637,"SoundDuration":96637,"Delta":188359222},{"NoteNumber":73,"Velocity":57,"Duration":144591,"SoundDuration":144591,"Delta":188412191},{"NoteNumber":88,"Velocity":67,"Duration":100924,"SoundDuration":100924,"Delta":188455859},{"NoteNumber":93,"Velocity":71,"Duration":484574,"SoundDuration":484574,"Delta":188556783},{"NoteNumber":88,"Velocity":60,"Duration":484574,"SoundDuration":484574,"Delta":188556783},{"NoteNumber":81,"Velocity":60,"Duration":484574,"SoundDuration":484574,"Delta":188556783},{"NoteNumber":82,"Velocity":67,"Duration":107010,"SoundDuration":107010,"Delta":188556783},{"NoteNumber":79,"Velocity":72,"Duration":107010,"SoundDuration":107010,"Delta":188663793},{"NoteNumber":73,"Velocity":72,"Duration":107010,"SoundDuration":107010,"Delta":188770803},{"NoteNumber":70,"Velocity":68,"Duration":107010,"SoundDuration":107010,"Delta":188877814},{"NoteNumber":67,"Velocity":68,"Duration":105676,"SoundDuration":105676,"Delta":188984824},{"NoteNumber":91,"Velocity":71,"Duration":471772,"SoundDuration":471772,"Delta":189041358},{"NoteNumber":79,"Velocity":60,"Duration":471772,"SoundDuration":471772,"Delta":189041358},{"NoteNumber":61,"Velocity":67,"Duration":104183,"SoundDuration":104183,"Delta":189090500},{"NoteNumber":58,"Velocity":67,"Duration":104183,"SoundDuration":104183,"Delta":189194684},{"NoteNumber":55,"Velocity":67,"Duration":104183,"SoundDuration":104183,"Delta":189298867},{"NoteNumber":52,"Velocity":63,"Duration":104183,"SoundDuration":104183,"Delta":189403050},{"NoteNumber":89,"Velocity":75,"Duration":463678,"SoundDuration":463678,"Delta":189513130},{"NoteNumber":77,"Velocity":63,"Duration":463678,"SoundDuration":463678,"Delta":189513130},{"NoteNumber":45,"Velocity":61,"Duration":92735,"SoundDuration":92735,"Delta":189513130},{"NoteNumber":49,"Velocity":56,"Duration":92735,"SoundDuration":92735,"Delta":189605866},{"NoteNumber":55,"Velocity":61,"Duration":92735,"SoundDuration":92735,"Delta":189698601},{"NoteNumber":58,"Velocity":62,"Duration":92735,"SoundDuration":92735,"Delta":189791337},{"NoteNumber":61,"Velocity":67,"Duration":92735,"SoundDuration":92735,"Delta":189884073},{"NoteNumber":88,"Velocity":77,"Duration":507442,"SoundDuration":507442,"Delta":189976809},{"NoteNumber":76,"Velocity":65,"Duration":507442,"SoundDuration":507442,"Delta":189976809},{"NoteNumber":64,"Velocity":62,"Duration":101488,"SoundDuration":101488,"Delta":189976809},{"NoteNumber":61,"Velocity":62,"Duration":101488,"SoundDuration":101488,"Delta":190078297},{"NoteNumber":58,"Velocity":63,"Duration":101488,"SoundDuration":101488,"Delta":190179786},{"NoteNumber":55,"Velocity":63,"Duration":101488,"SoundDuration":101488,"Delta":190281274},{"NoteNumber":49,"Velocity":67,"Duration":101488,"SoundDuration":101488,"Delta":190382763},{"NoteNumber":93,"Velocity":78,"Duration":983207,"SoundDuration":983207,"Delta":190484251},{"NoteNumber":86,"Velocity":64,"Duration":983207,"SoundDuration":983207,"Delta":190484251},{"NoteNumber":81,"Velocity":64,"Duration":983207,"SoundDuration":983207,"Delta":190484251},{"NoteNumber":43,"Velocity":67,"Duration":107010,"SoundDuration":107010,"Delta":190484251},{"NoteNumber":50,"Velocity":67,"Duration":107010,"SoundDuration":107010,"Delta":190591261},{"NoteNumber":55,"Velocity":67,"Duration":107010,"SoundDuration":107010,"Delta":190698271},{"NoteNumber":59,"Velocity":67,"Duration":107010,"SoundDuration":107010,"Delta":190805282},{"NoteNumber":62,"Velocity":68,"Duration":107010,"SoundDuration":107010,"Delta":190912292},{"NoteNumber":67,"Velocity":72,"Duration":107710,"SoundDuration":107710,"Delta":191019302},{"NoteNumber":71,"Velocity":68,"Duration":109519,"SoundDuration":109519,"Delta":191127013},{"NoteNumber":74,"Velocity":72,"Duration":111309,"SoundDuration":111309,"Delta":191236532},{"NoteNumber":79,"Velocity":72,"Duration":115307,"SoundDuration":115307,"Delta":191347842},{"NoteNumber":91,"Velocity":80,"Duration":517152,"SoundDuration":517152,"Delta":191467458},{"NoteNumber":79,"Velocity":68,"Duration":517152,"SoundDuration":517152,"Delta":191467458},{"NoteNumber":83,"Velocity":67,"Duration":114204,"SoundDuration":114204,"Delta":191467458},{"NoteNumber":79,"Velocity":67,"Duration":114204,"SoundDuration":114204,"Delta":191581663},{"NoteNumber":74,"Velocity":67,"Duration":114204,"SoundDuration":114204,"Delta":191695867},{"NoteNumber":71,"Velocity":67,"Duration":114204,"SoundDuration":114204,"Delta":191810072},{"NoteNumber":67,"Velocity":67,"Duration":108044,"SoundDuration":108044,"Delta":191924276},{"NoteNumber":86,"Velocity":67,"Duration":447471,"SoundDuration":447471,"Delta":191984610},{"NoteNumber":74,"Velocity":56,"Duration":447471,"SoundDuration":447471,"Delta":191984610},{"NoteNumber":62,"Velocity":67,"Duration":101145,"SoundDuration":101145,"Delta":192032320},{"NoteNumber":59,"Velocity":67,"Duration":101145,"SoundDuration":101145,"Delta":192133465},{"NoteNumber":55,"Velocity":67,"Duration":101145,"SoundDuration":101145,"Delta":192234610},{"NoteNumber":50,"Velocity":63,"Duration":30534,"SoundDuration":30534,"Delta":192335756},{"NoteNumber":62,"Velocity":56,"Duration":63915,"SoundDuration":63915,"Delta":192432082},{"NoteNumber":37,"Velocity":56,"Duration":3476981,"SoundDuration":3476981,"Delta":192432082},{"NoteNumber":65,"Velocity":53,"Duration":63131,"SoundDuration":63131,"Delta":192495998},{"NoteNumber":71,"Velocity":52,"Duration":62178,"SoundDuration":62178,"Delta":192559129},{"NoteNumber":74,"Velocity":51,"Duration":61251,"SoundDuration":61251,"Delta":192621308},{"NoteNumber":77,"Velocity":50,"Duration":60530,"SoundDuration":60530,"Delta":192682559},{"NoteNumber":83,"Velocity":50,"Duration":61019,"SoundDuration":61019,"Delta":192743090},{"NoteNumber":86,"Velocity":50,"Duration":62124,"SoundDuration":62124,"Delta":192804109},{"NoteNumber":89,"Velocity":47,"Duration":63326,"SoundDuration":63326,"Delta":192866234},{"NoteNumber":95,"Velocity":46,"Duration":64576,"SoundDuration":64576,"Delta":192929560},{"NoteNumber":98,"Velocity":46,"Duration":54766,"SoundDuration":54766,"Delta":192994137},{"NoteNumber":98,"Velocity":38,"Duration":124502,"SoundDuration":124502,"Delta":193059953},{"NoteNumber":95,"Velocity":38,"Duration":124502,"SoundDuration":124502,"Delta":193059953},{"NoteNumber":49,"Velocity":43,"Duration":1010302,"SoundDuration":1010302,"Delta":193059953},{"NoteNumber":53,"Velocity":51,"Duration":1010302,"SoundDuration":1010302,"Delta":193059953},{"NoteNumber":44,"Velocity":47,"Duration":498007,"SoundDuration":498007,"Delta":193059953},{"NoteNumber":56,"Velocity":56,"Duration":498007,"SoundDuration":498007,"Delta":193059953},{"NoteNumber":100,"Velocity":38,"Duration":124502,"SoundDuration":124502,"Delta":193184455},{"NoteNumber":97,"Velocity":38,"Duration":124502,"SoundDuration":124502,"Delta":193184455},{"NoteNumber":95,"Velocity":38,"Duration":124501,"SoundDuration":124501,"Delta":193308957},{"NoteNumber":98,"Velocity":38,"Duration":124501,"SoundDuration":124501,"Delta":193308957},{"NoteNumber":94,"Velocity":40,"Duration":124502,"SoundDuration":124502,"Delta":193433459},{"NoteNumber":97,"Velocity":40,"Duration":124502,"SoundDuration":124502,"Delta":193433459},{"NoteNumber":89,"Velocity":41,"Duration":128073,"SoundDuration":128073,"Delta":193557961},{"NoteNumber":95,"Velocity":41,"Duration":128073,"SoundDuration":128073,"Delta":193557961},{"NoteNumber":46,"Velocity":51,"Duration":512294,"SoundDuration":512294,"Delta":193557961},{"NoteNumber":58,"Velocity":61,"Duration":512294,"SoundDuration":512294,"Delta":193557961},{"NoteNumber":94,"Velocity":42,"Duration":128073,"SoundDuration":128073,"Delta":193686035},{"NoteNumber":97,"Velocity":42,"Duration":128073,"SoundDuration":128073,"Delta":193686035},{"NoteNumber":89,"Velocity":42,"Duration":128073,"SoundDuration":128073,"Delta":193814109},{"NoteNumber":95,"Velocity":42,"Duration":128073,"SoundDuration":128073,"Delta":193814109},{"NoteNumber":89,"Velocity":45,"Duration":128073,"SoundDuration":128073,"Delta":193942182},{"NoteNumber":94,"Velocity":45,"Duration":128073,"SoundDuration":128073,"Delta":193942182},{"NoteNumber":88,"Velocity":42,"Duration":123355,"SoundDuration":123355,"Delta":194070256},{"NoteNumber":91,"Velocity":42,"Duration":123355,"SoundDuration":123355,"Delta":194070256},{"NoteNumber":52,"Velocity":47,"Duration":977995,"SoundDuration":977995,"Delta":194070256},{"NoteNumber":55,"Velocity":47,"Duration":977995,"SoundDuration":977995,"Delta":194070256},{"NoteNumber":47,"Velocity":47,"Duration":1458225,"SoundDuration":1458225,"Delta":194070256},{"NoteNumber":59,"Velocity":63,"Duration":1458225,"SoundDuration":1458225,"Delta":194070256},{"NoteNumber":95,"Velocity":42,"Duration":123355,"SoundDuration":123355,"Delta":194193611},{"NoteNumber":90,"Velocity":42,"Duration":123355,"SoundDuration":123355,"Delta":194193611},{"NoteNumber":88,"Velocity":45,"Duration":122986,"SoundDuration":122986,"Delta":194316967},{"NoteNumber":91,"Velocity":45,"Duration":122986,"SoundDuration":122986,"Delta":194316967},{"NoteNumber":87,"Velocity":45,"Duration":122249,"SoundDuration":122249,"Delta":194439953},{"NoteNumber":90,"Velocity":45,"Duration":122249,"SoundDuration":122249,"Delta":194439953},{"NoteNumber":83,"Velocity":45,"Duration":122249,"SoundDuration":122249,"Delta":194562203},{"NoteNumber":88,"Velocity":45,"Duration":122249,"SoundDuration":122249,"Delta":194562203},{"NoteNumber":87,"Velocity":45,"Duration":121512,"SoundDuration":121512,"Delta":194684452},{"NoteNumber":90,"Velocity":45,"Duration":121512,"SoundDuration":121512,"Delta":194684452},{"NoteNumber":83,"Velocity":46,"Duration":121143,"SoundDuration":121143,"Delta":194805964},{"NoteNumber":88,"Velocity":46,"Duration":121143,"SoundDuration":121143,"Delta":194805964},{"NoteNumber":82,"Velocity":46,"Duration":121143,"SoundDuration":121143,"Delta":194927108},{"NoteNumber":87,"Velocity":46,"Duration":121143,"SoundDuration":121143,"Delta":194927108},{"NoteNumber":83,"Velocity":45,"Duration":120057,"SoundDuration":120057,"Delta":195048251},{"NoteNumber":79,"Velocity":45,"Duration":120057,"SoundDuration":120057,"Delta":195048251},{"NoteNumber":82,"Velocity":45,"Duration":120057,"SoundDuration":120057,"Delta":195168309},{"NoteNumber":87,"Velocity":45,"Duration":120057,"SoundDuration":120057,"Delta":195168309},{"NoteNumber":79,"Velocity":46,"Duration":120057,"SoundDuration":120057,"Delta":195288367},{"NoteNumber":83,"Velocity":46,"Duration":120057,"SoundDuration":120057,"Delta":195288367},{"NoteNumber":78,"Velocity":47,"Duration":120057,"SoundDuration":120057,"Delta":195408424},{"NoteNumber":82,"Velocity":47,"Duration":120057,"SoundDuration":120057,"Delta":195408424},{"NoteNumber":76,"Velocity":50,"Duration":126860,"SoundDuration":126860,"Delta":195528482},{"NoteNumber":79,"Velocity":50,"Duration":126860,"SoundDuration":126860,"Delta":195528482},{"NoteNumber":49,"Velocity":73,"Duration":507442,"SoundDuration":507442,"Delta":195528482},{"NoteNumber":61,"Velocity":73,"Duration":507442,"SoundDuration":507442,"Delta":195528482},{"NoteNumber":78,"Velocity":50,"Duration":126860,"SoundDuration":126860,"Delta":195655343},{"NoteNumber":82,"Velocity":50,"Duration":126860,"SoundDuration":126860,"Delta":195655343},{"NoteNumber":76,"Velocity":50,"Duration":126860,"SoundDuration":126860,"Delta":195782203},{"NoteNumber":79,"Velocity":50,"Duration":126860,"SoundDuration":126860,"Delta":195782203},{"NoteNumber":73,"Velocity":50,"Duration":126860,"SoundDuration":126860,"Delta":195909064},{"NoteNumber":78,"Velocity":50,"Duration":126860,"SoundDuration":126860,"Delta":195909064},{"NoteNumber":43,"Velocity":47,"Duration":1014885,"SoundDuration":1014885,"Delta":195909064},{"NoteNumber":76,"Velocity":67,"Duration":317151,"SoundDuration":317151,"Delta":196035924},{"NoteNumber":53,"Velocity":66,"Duration":1031072,"SoundDuration":1031072,"Delta":196035924},{"NoteNumber":55,"Velocity":66,"Duration":1031072,"SoundDuration":1031072,"Delta":196035924},{"NoteNumber":59,"Velocity":78,"Duration":1031072,"SoundDuration":1031072,"Delta":196035924},{"NoteNumber":64,"Velocity":78,"Duration":507442,"SoundDuration":507442,"Delta":196035924},{"NoteNumber":65,"Velocity":50,"Duration":63430,"SoundDuration":63430,"Delta":196099355},{"NoteNumber":67,"Velocity":50,"Duration":63430,"SoundDuration":63430,"Delta":196162785},{"NoteNumber":71,"Velocity":50,"Duration":63430,"SoundDuration":63430,"Delta":196226215},{"NoteNumber":76,"Velocity":50,"Duration":253721,"SoundDuration":253721,"Delta":196289646},{"NoteNumber":79,"Velocity":50,"Duration":63430,"SoundDuration":63430,"Delta":196353076},{"NoteNumber":83,"Velocity":50,"Duration":63430,"SoundDuration":63430,"Delta":196416506},{"NoteNumber":88,"Velocity":50,"Duration":63430,"SoundDuration":63430,"Delta":196479937},{"NoteNumber":86,"Velocity":63,"Duration":306579,"SoundDuration":306579,"Delta":196543367},{"NoteNumber":62,"Velocity":73,"Duration":523629,"SoundDuration":523629,"Delta":196543367},{"NoteNumber":83,"Velocity":50,"Duration":63430,"SoundDuration":63430,"Delta":196606797},{"NoteNumber":74,"Velocity":50,"Duration":63430,"SoundDuration":63430,"Delta":196670228},{"NoteNumber":83,"Velocity":50,"Duration":63430,"SoundDuration":63430,"Delta":196733658},{"NoteNumber":86,"Velocity":46,"Duration":116288,"SoundDuration":116288,"Delta":196797088},{"NoteNumber":86,"Velocity":45,"Duration":206478,"SoundDuration":206478,"Delta":196860518},{"NoteNumber":95,"Velocity":42,"Duration":71523,"SoundDuration":71523,"Delta":196923949},{"NoteNumber":37,"Velocity":47,"Duration":3006127,"SoundDuration":3006127,"Delta":196923949},{"NoteNumber":98,"Velocity":41,"Duration":71523,"SoundDuration":71523,"Delta":196995473},{"NoteNumber":98,"Velocity":42,"Duration":130548,"SoundDuration":130548,"Delta":197066997},{"NoteNumber":95,"Velocity":42,"Duration":130548,"SoundDuration":130548,"Delta":197066997},{"NoteNumber":49,"Velocity":43,"Duration":1024272,"SoundDuration":1024272,"Delta":197066997},{"NoteNumber":53,"Velocity":43,"Duration":1024272,"SoundDuration":1024272,"Delta":197066997},{"NoteNumber":44,"Velocity":47,"Duration":511977,"SoundDuration":511977,"Delta":197066997},{"NoteNumber":56,"Velocity":56,"Duration":511977,"SoundDuration":511977,"Delta":197066997},{"NoteNumber":100,"Velocity":38,"Duration":128883,"SoundDuration":128883,"Delta":197197545},{"NoteNumber":97,"Velocity":38,"Duration":128883,"SoundDuration":128883,"Delta":197197545},{"NoteNumber":95,"Velocity":38,"Duration":127264,"SoundDuration":127264,"Delta":197326428},{"NoteNumber":98,"Velocity":38,"Duration":127264,"SoundDuration":127264,"Delta":197326428},{"NoteNumber":94,"Velocity":40,"Duration":125280,"SoundDuration":125280,"Delta":197453693},{"NoteNumber":97,"Velocity":40,"Duration":125280,"SoundDuration":125280,"Delta":197453693},{"NoteNumber":89,"Velocity":41,"Duration":128073,"SoundDuration":128073,"Delta":197578974},{"NoteNumber":95,"Velocity":41,"Duration":128073,"SoundDuration":128073,"Delta":197578974},{"NoteNumber":46,"Velocity":51,"Duration":512294,"SoundDuration":512294,"Delta":197578974},{"NoteNumber":58,"Velocity":61,"Duration":512294,"SoundDuration":512294,"Delta":197578974},{"NoteNumber":94,"Velocity":42,"Duration":128073,"SoundDuration":128073,"Delta":197707048},{"NoteNumber":97,"Velocity":42,"Duration":128073,"SoundDuration":128073,"Delta":197707048},{"NoteNumber":89,"Velocity":42,"Duration":128073,"SoundDuration":128073,"Delta":197835121},{"NoteNumber":95,"Velocity":42,"Duration":128073,"SoundDuration":128073,"Delta":197835121},{"NoteNumber":89,"Velocity":45,"Duration":128073,"SoundDuration":128073,"Delta":197963195},{"NoteNumber":94,"Velocity":45,"Duration":128073,"SoundDuration":128073,"Delta":197963195},{"NoteNumber":88,"Velocity":42,"Duration":123355,"SoundDuration":123355,"Delta":198091269},{"NoteNumber":91,"Velocity":42,"Duration":123355,"SoundDuration":123355,"Delta":198091269},{"NoteNumber":52,"Velocity":47,"Duration":977995,"SoundDuration":977995,"Delta":198091269},{"NoteNumber":55,"Velocity":56,"Duration":977995,"SoundDuration":977995,"Delta":198091269},{"NoteNumber":47,"Velocity":49,"Duration":1458225,"SoundDuration":1458225,"Delta":198091269},{"NoteNumber":59,"Velocity":63,"Duration":1458225,"SoundDuration":1458225,"Delta":198091269},{"NoteNumber":95,"Velocity":42,"Duration":123355,"SoundDuration":123355,"Delta":198214624},{"NoteNumber":90,"Velocity":42,"Duration":123355,"SoundDuration":123355,"Delta":198214624},{"NoteNumber":88,"Velocity":45,"Duration":122986,"SoundDuration":122986,"Delta":198337979},{"NoteNumber":91,"Velocity":45,"Duration":122986,"SoundDuration":122986,"Delta":198337979},{"NoteNumber":87,"Velocity":45,"Duration":122249,"SoundDuration":122249,"Delta":198460966},{"NoteNumber":90,"Velocity":45,"Duration":122249,"SoundDuration":122249,"Delta":198460966},{"NoteNumber":83,"Velocity":45,"Duration":122249,"SoundDuration":122249,"Delta":198583215},{"NoteNumber":88,"Velocity":45,"Duration":122249,"SoundDuration":122249,"Delta":198583215},{"NoteNumber":87,"Velocity":45,"Duration":121512,"SoundDuration":121512,"Delta":198705465},{"NoteNumber":90,"Velocity":45,"Duration":121512,"SoundDuration":121512,"Delta":198705465},{"NoteNumber":83,"Velocity":46,"Duration":121143,"SoundDuration":121143,"Delta":198826977},{"NoteNumber":88,"Velocity":46,"Duration":121143,"SoundDuration":121143,"Delta":198826977},{"NoteNumber":82,"Velocity":46,"Duration":121143,"SoundDuration":121143,"Delta":198948121},{"NoteNumber":87,"Velocity":46,"Duration":121143,"SoundDuration":121143,"Delta":198948121},{"NoteNumber":83,"Velocity":45,"Duration":120057,"SoundDuration":120057,"Delta":199069264},{"NoteNumber":79,"Velocity":45,"Duration":120057,"SoundDuration":120057,"Delta":199069264},{"NoteNumber":82,"Velocity":45,"Duration":120057,"SoundDuration":120057,"Delta":199189322},{"NoteNumber":87,"Velocity":45,"Duration":120057,"SoundDuration":120057,"Delta":199189322},{"NoteNumber":79,"Velocity":46,"Duration":120057,"SoundDuration":120057,"Delta":199309380},{"NoteNumber":83,"Velocity":46,"Duration":120057,"SoundDuration":120057,"Delta":199309380},{"NoteNumber":78,"Velocity":47,"Duration":120057,"SoundDuration":120057,"Delta":199429437},{"NoteNumber":82,"Velocity":47,"Duration":120057,"SoundDuration":120057,"Delta":199429437},{"NoteNumber":76,"Velocity":50,"Duration":126860,"SoundDuration":126860,"Delta":199549495},{"NoteNumber":79,"Velocity":50,"Duration":126860,"SoundDuration":126860,"Delta":199549495},{"NoteNumber":49,"Velocity":73,"Duration":507442,"SoundDuration":507442,"Delta":199549495},{"NoteNumber":61,"Velocity":73,"Duration":507442,"SoundDuration":507442,"Delta":199549495},{"NoteNumber":78,"Velocity":50,"Duration":126860,"SoundDuration":126860,"Delta":199676355},{"NoteNumber":82,"Velocity":50,"Duration":126860,"SoundDuration":126860,"Delta":199676355},{"NoteNumber":76,"Velocity":50,"Duration":126860,"SoundDuration":126860,"Delta":199803216},{"NoteNumber":79,"Velocity":50,"Duration":126860,"SoundDuration":126860,"Delta":199803216},{"NoteNumber":73,"Velocity":50,"Duration":126860,"SoundDuration":126860,"Delta":199930077},{"NoteNumber":78,"Velocity":50,"Duration":126860,"SoundDuration":126860,"Delta":199930077},{"NoteNumber":43,"Velocity":47,"Duration":1014885,"SoundDuration":1014885,"Delta":199930077},{"NoteNumber":76,"Velocity":67,"Duration":317151,"SoundDuration":317151,"Delta":200056937},{"NoteNumber":53,"Velocity":66,"Duration":1025236,"SoundDuration":1025236,"Delta":200056937},{"NoteNumber":55,"Velocity":66,"Duration":1025236,"SoundDuration":1025236,"Delta":200056937},{"NoteNumber":59,"Velocity":78,"Duration":1025236,"SoundDuration":1025236,"Delta":200056937},{"NoteNumber":64,"Velocity":78,"Duration":507442,"SoundDuration":507442,"Delta":200056937},{"NoteNumber":65,"Velocity":50,"Duration":63430,"SoundDuration":63430,"Delta":200120368},{"NoteNumber":67,"Velocity":50,"Duration":63430,"SoundDuration":63430,"Delta":200183798},{"NoteNumber":71,"Velocity":50,"Duration":63430,"SoundDuration":63430,"Delta":200247228},{"NoteNumber":76,"Velocity":50,"Duration":253721,"SoundDuration":253721,"Delta":200310659},{"NoteNumber":79,"Velocity":50,"Duration":63430,"SoundDuration":63430,"Delta":200374089},{"NoteNumber":83,"Velocity":50,"Duration":63430,"SoundDuration":63430,"Delta":200437519},{"NoteNumber":88,"Velocity":50,"Duration":63430,"SoundDuration":63430,"Delta":200500949},{"NoteNumber":86,"Velocity":63,"Duration":306579,"SoundDuration":306579,"Delta":200564380},{"NoteNumber":62,"Velocity":73,"Duration":517793,"SoundDuration":517793,"Delta":200564380},{"NoteNumber":83,"Velocity":50,"Duration":63430,"SoundDuration":63430,"Delta":200627810},{"NoteNumber":74,"Velocity":50,"Duration":63430,"SoundDuration":63430,"Delta":200691240},{"NoteNumber":83,"Velocity":50,"Duration":63430,"SoundDuration":63430,"Delta":200754671},{"NoteNumber":86,"Velocity":50,"Duration":116288,"SoundDuration":116288,"Delta":200818101},{"NoteNumber":86,"Velocity":50,"Duration":200642,"SoundDuration":200642,"Delta":200881531},{"NoteNumber":95,"Velocity":47,"Duration":68605,"SoundDuration":68605,"Delta":200944962},{"NoteNumber":37,"Velocity":56,"Duration":2901456,"SoundDuration":2901456,"Delta":200944962},{"NoteNumber":98,"Velocity":47,"Duration":68605,"SoundDuration":68605,"Delta":201013568},{"NoteNumber":98,"Velocity":45,"Duration":124502,"SoundDuration":124502,"Delta":201082174},{"NoteNumber":95,"Velocity":45,"Duration":124502,"SoundDuration":124502,"Delta":201082174},{"NoteNumber":49,"Velocity":43,"Duration":996015,"SoundDuration":996015,"Delta":201082174},{"NoteNumber":53,"Velocity":43,"Duration":996015,"SoundDuration":996015,"Delta":201082174},{"NoteNumber":44,"Velocity":47,"Duration":498007,"SoundDuration":498007,"Delta":201082174},{"NoteNumber":56,"Velocity":56,"Duration":498007,"SoundDuration":498007,"Delta":201082174},{"NoteNumber":100,"Velocity":45,"Duration":124502,"SoundDuration":124502,"Delta":201206676},{"NoteNumber":97,"Velocity":45,"Duration":124502,"SoundDuration":124502,"Delta":201206676},{"NoteNumber":95,"Velocity":45,"Duration":124501,"SoundDuration":124501,"Delta":201331178},{"NoteNumber":98,"Velocity":45,"Duration":124501,"SoundDuration":124501,"Delta":201331178},{"NoteNumber":94,"Velocity":45,"Duration":124502,"SoundDuration":124502,"Delta":201455680},{"NoteNumber":97,"Velocity":45,"Duration":124502,"SoundDuration":124502,"Delta":201455680},{"NoteNumber":89,"Velocity":45,"Duration":124502,"SoundDuration":124502,"Delta":201580182},{"NoteNumber":95,"Velocity":45,"Duration":124502,"SoundDuration":124502,"Delta":201580182},{"NoteNumber":46,"Velocity":51,"Duration":498007,"SoundDuration":498007,"Delta":201580182},{"NoteNumber":58,"Velocity":61,"Duration":498007,"SoundDuration":498007,"Delta":201580182},{"NoteNumber":94,"Velocity":46,"Duration":124502,"SoundDuration":124502,"Delta":201704684},{"NoteNumber":97,"Velocity":46,"Duration":124502,"SoundDuration":124502,"Delta":201704684},{"NoteNumber":89,"Velocity":46,"Duration":124501,"SoundDuration":124501,"Delta":201829186},{"NoteNumber":95,"Velocity":46,"Duration":124501,"SoundDuration":124501,"Delta":201829186},{"NoteNumber":89,"Velocity":46,"Duration":124502,"SoundDuration":124502,"Delta":201953688},{"NoteNumber":94,"Velocity":46,"Duration":124502,"SoundDuration":124502,"Delta":201953688},{"NoteNumber":88,"Velocity":46,"Duration":123355,"SoundDuration":123355,"Delta":202078190},{"NoteNumber":91,"Velocity":46,"Duration":123355,"SoundDuration":123355,"Delta":202078190},{"NoteNumber":52,"Velocity":51,"Duration":977995,"SoundDuration":977995,"Delta":202078190},{"NoteNumber":55,"Velocity":51,"Duration":977995,"SoundDuration":977995,"Delta":202078190},{"NoteNumber":47,"Velocity":52,"Duration":491946,"SoundDuration":491946,"Delta":202078190},{"NoteNumber":59,"Velocity":65,"Duration":491946,"SoundDuration":491946,"Delta":202078190},{"NoteNumber":95,"Velocity":46,"Duration":123355,"SoundDuration":123355,"Delta":202201545},{"NoteNumber":90,"Velocity":46,"Duration":123355,"SoundDuration":123355,"Delta":202201545},{"NoteNumber":88,"Velocity":47,"Duration":122986,"SoundDuration":122986,"Delta":202324900},{"NoteNumber":91,"Velocity":47,"Duration":122986,"SoundDuration":122986,"Delta":202324900},{"NoteNumber":87,"Velocity":50,"Duration":122249,"SoundDuration":122249,"Delta":202447887},{"NoteNumber":90,"Velocity":50,"Duration":122249,"SoundDuration":122249,"Delta":202447887},{"NoteNumber":83,"Velocity":50,"Duration":122249,"SoundDuration":122249,"Delta":202570136},{"NoteNumber":88,"Velocity":50,"Duration":122249,"SoundDuration":122249,"Delta":202570136},{"NoteNumber":49,"Velocity":70,"Duration":486048,"SoundDuration":486048,"Delta":202570136},{"NoteNumber":61,"Velocity":70,"Duration":486048,"SoundDuration":486048,"Delta":202570136},{"NoteNumber":87,"Velocity":50,"Duration":121512,"SoundDuration":121512,"Delta":202692385},{"NoteNumber":90,"Velocity":50,"Duration":121512,"SoundDuration":121512,"Delta":202692385},{"NoteNumber":83,"Velocity":52,"Duration":121143,"SoundDuration":121143,"Delta":202813898},{"NoteNumber":88,"Velocity":52,"Duration":121143,"SoundDuration":121143,"Delta":202813898},{"NoteNumber":82,"Velocity":52,"Duration":121143,"SoundDuration":121143,"Delta":202935041},{"NoteNumber":87,"Velocity":52,"Duration":121143,"SoundDuration":121143,"Delta":202935041},{"NoteNumber":83,"Velocity":50,"Duration":120057,"SoundDuration":120057,"Delta":203056185},{"NoteNumber":79,"Velocity":50,"Duration":120057,"SoundDuration":120057,"Delta":203056185},{"NoteNumber":55,"Velocity":61,"Duration":893567,"SoundDuration":893567,"Delta":203056185},{"NoteNumber":59,"Velocity":72,"Duration":893567,"SoundDuration":893567,"Delta":203056185},{"NoteNumber":51,"Velocity":61,"Duration":480230,"SoundDuration":480230,"Delta":203056185},{"NoteNumber":63,"Velocity":72,"Duration":480230,"SoundDuration":480230,"Delta":203056185},{"NoteNumber":82,"Velocity":50,"Duration":120057,"SoundDuration":120057,"Delta":203176243},{"NoteNumber":87,"Velocity":50,"Duration":120057,"SoundDuration":120057,"Delta":203176243},{"NoteNumber":79,"Velocity":52,"Duration":120057,"SoundDuration":120057,"Delta":203296300},{"NoteNumber":83,"Velocity":52,"Duration":120057,"SoundDuration":120057,"Delta":203296300},{"NoteNumber":78,"Velocity":53,"Duration":120057,"SoundDuration":120057,"Delta":203416358},{"NoteNumber":82,"Velocity":53,"Duration":120057,"SoundDuration":120057,"Delta":203416358},{"NoteNumber":76,"Velocity":53,"Duration":103334,"SoundDuration":103334,"Delta":203536415},{"NoteNumber":79,"Velocity":53,"Duration":103334,"SoundDuration":103334,"Delta":203536415},{"NoteNumber":52,"Velocity":73,"Duration":413337,"SoundDuration":413337,"Delta":203536415},{"NoteNumber":64,"Velocity":73,"Duration":413337,"SoundDuration":413337,"Delta":203536415},{"NoteNumber":78,"Velocity":53,"Duration":103334,"SoundDuration":103334,"Delta":203639750},{"NoteNumber":82,"Velocity":53,"Duration":103334,"SoundDuration":103334,"Delta":203639750},{"NoteNumber":76,"Velocity":56,"Duration":103334,"SoundDuration":103334,"Delta":203743084},{"NoteNumber":79,"Velocity":56,"Duration":103334,"SoundDuration":103334,"Delta":203743084},{"NoteNumber":71,"Velocity":56,"Duration":103334,"SoundDuration":103334,"Delta":203846418},{"NoteNumber":78,"Velocity":56,"Duration":103334,"SoundDuration":103334,"Delta":203846418},{"NoteNumber":65,"Velocity":62,"Duration":68460,"SoundDuration":68460,"Delta":203949752},{"NoteNumber":34,"Velocity":67,"Duration":2405671,"SoundDuration":2405671,"Delta":203949752},{"NoteNumber":68,"Velocity":62,"Duration":65949,"SoundDuration":65949,"Delta":204018213},{"NoteNumber":72,"Velocity":58,"Duration":63625,"SoundDuration":63625,"Delta":204084162},{"NoteNumber":77,"Velocity":58,"Duration":61691,"SoundDuration":61691,"Delta":204147788},{"NoteNumber":80,"Velocity":56,"Duration":61230,"SoundDuration":61230,"Delta":204209480},{"NoteNumber":84,"Velocity":53,"Duration":60805,"SoundDuration":60805,"Delta":204270710},{"NoteNumber":89,"Velocity":53,"Duration":58907,"SoundDuration":58907,"Delta":204331516},{"NoteNumber":92,"Velocity":45,"Duration":124502,"SoundDuration":124502,"Delta":204390423},{"NoteNumber":96,"Velocity":45,"Duration":124502,"SoundDuration":124502,"Delta":204390423},{"NoteNumber":56,"Velocity":51,"Duration":987005,"SoundDuration":987005,"Delta":204390423},{"NoteNumber":60,"Velocity":61,"Duration":987005,"SoundDuration":987005,"Delta":204390423},{"NoteNumber":53,"Velocity":51,"Duration":498007,"SoundDuration":498007,"Delta":204390423},{"NoteNumber":65,"Velocity":61,"Duration":498007,"SoundDuration":498007,"Delta":204390423},{"NoteNumber":98,"Velocity":45,"Duration":124502,"SoundDuration":124502,"Delta":204514925},{"NoteNumber":91,"Velocity":45,"Duration":124502,"SoundDuration":124502,"Delta":204514925},{"NoteNumber":90,"Velocity":46,"Duration":124501,"SoundDuration":124501,"Delta":204639427},{"NoteNumber":95,"Velocity":46,"Duration":124501,"SoundDuration":124501,"Delta":204639427},{"NoteNumber":89,"Velocity":47,"Duration":124502,"SoundDuration":124502,"Delta":204763929},{"NoteNumber":96,"Velocity":47,"Duration":124502,"SoundDuration":124502,"Delta":204763929},{"NoteNumber":88,"Velocity":50,"Duration":122249,"SoundDuration":122249,"Delta":204888431},{"NoteNumber":92,"Velocity":50,"Duration":122249,"SoundDuration":122249,"Delta":204888431},{"NoteNumber":55,"Velocity":56,"Duration":488997,"SoundDuration":488997,"Delta":204888431},{"NoteNumber":67,"Velocity":67,"Duration":488997,"SoundDuration":488997,"Delta":204888431},{"NoteNumber":87,"Velocity":50,"Duration":122249,"SoundDuration":122249,"Delta":205010681},{"NoteNumber":94,"Velocity":50,"Duration":122249,"SoundDuration":122249,"Delta":205010681},{"NoteNumber":91,"Velocity":50,"Duration":122249,"SoundDuration":122249,"Delta":205132930},{"NoteNumber":86,"Velocity":50,"Duration":122249,"SoundDuration":122249,"Delta":205132930},{"NoteNumber":93,"Velocity":50,"Duration":122249,"SoundDuration":122249,"Delta":205255179},{"NoteNumber":85,"Velocity":50,"Duration":122249,"SoundDuration":122249,"Delta":205255179},{"NoteNumber":84,"Velocity":50,"Duration":123355,"SoundDuration":123355,"Delta":205377429},{"NoteNumber":88,"Velocity":50,"Duration":123355,"SoundDuration":123355,"Delta":205377429},{"NoteNumber":60,"Velocity":52,"Duration":977995,"SoundDuration":977995,"Delta":205377429},{"NoteNumber":65,"Velocity":57,"Duration":977995,"SoundDuration":977995,"Delta":205377429},{"NoteNumber":56,"Velocity":57,"Duration":1458225,"SoundDuration":1458225,"Delta":205377429},{"NoteNumber":68,"Velocity":68,"Duration":1458225,"SoundDuration":1458225,"Delta":205377429},{"NoteNumber":83,"Velocity":50,"Duration":123355,"SoundDuration":123355,"Delta":205500784},{"NoteNumber":89,"Velocity":50,"Duration":123355,"SoundDuration":123355,"Delta":205500784},{"NoteNumber":85,"Velocity":50,"Duration":122986,"SoundDuration":122986,"Delta":205624139},{"NoteNumber":82,"Velocity":50,"Duration":122986,"SoundDuration":122986,"Delta":205624139},{"NoteNumber":81,"Velocity":50,"Duration":122249,"SoundDuration":122249,"Delta":205747126},{"NoteNumber":86,"Velocity":50,"Duration":122249,"SoundDuration":122249,"Delta":205747126},{"NoteNumber":80,"Velocity":50,"Duration":122249,"SoundDuration":122249,"Delta":205869375},{"NoteNumber":83,"Velocity":50,"Duration":122249,"SoundDuration":122249,"Delta":205869375},{"NoteNumber":79,"Velocity":52,"Duration":121512,"SoundDuration":121512,"Delta":205991625},{"NoteNumber":85,"Velocity":52,"Duration":121512,"SoundDuration":121512,"Delta":205991625},{"NoteNumber":78,"Velocity":53,"Duration":121143,"SoundDuration":121143,"Delta":206113137},{"NoteNumber":80,"Velocity":53,"Duration":121143,"SoundDuration":121143,"Delta":206113137},{"NoteNumber":77,"Velocity":53,"Duration":121143,"SoundDuration":121143,"Delta":206234280},{"NoteNumber":83,"Velocity":53,"Duration":121143,"SoundDuration":121143,"Delta":206234280},{"NoteNumber":76,"Velocity":50,"Duration":120057,"SoundDuration":120057,"Delta":206355424},{"NoteNumber":79,"Velocity":50,"Duration":120057,"SoundDuration":120057,"Delta":206355424},{"NoteNumber":75,"Velocity":50,"Duration":120057,"SoundDuration":120057,"Delta":206475482},{"NoteNumber":82,"Velocity":50,"Duration":120057,"SoundDuration":120057,"Delta":206475482},{"NoteNumber":77,"Velocity":50,"Duration":120057,"SoundDuration":120057,"Delta":206595539},{"NoteNumber":74,"Velocity":50,"Duration":120057,"SoundDuration":120057,"Delta":206595539},{"NoteNumber":73,"Velocity":52,"Duration":120057,"SoundDuration":120057,"Delta":206715597},{"NoteNumber":80,"Velocity":52,"Duration":120057,"SoundDuration":120057,"Delta":206715597},{"NoteNumber":76,"Velocity":53,"Duration":130548,"SoundDuration":130548,"Delta":206835654},{"NoteNumber":72,"Velocity":53,"Duration":130548,"SoundDuration":130548,"Delta":206835654},{"NoteNumber":58,"Velocity":68,"Duration":522192,"SoundDuration":522192,"Delta":206835654},{"NoteNumber":70,"Velocity":80,"Duration":522192,"SoundDuration":522192,"Delta":206835654},{"NoteNumber":75,"Velocity":56,"Duration":130548,"SoundDuration":130548,"Delta":206966203},{"NoteNumber":79,"Velocity":56,"Duration":130548,"SoundDuration":130548,"Delta":206966203},{"NoteNumber":72,"Velocity":57,"Duration":130548,"SoundDuration":130548,"Delta":207096751},{"NoteNumber":77,"Velocity":57,"Duration":130548,"SoundDuration":130548,"Delta":207096751},{"NoteNumber":68,"Velocity":61,"Duration":130548,"SoundDuration":130548,"Delta":207227299},{"NoteNumber":76,"Velocity":61,"Duration":130548,"SoundDuration":130548,"Delta":207227299},{"NoteNumber":40,"Velocity":56,"Duration":1055424,"SoundDuration":1055424,"Delta":207227299},{"NoteNumber":73,"Velocity":73,"Duration":323219,"SoundDuration":323219,"Delta":207357847},{"NoteNumber":61,"Velocity":64,"Duration":1079451,"SoundDuration":1079451,"Delta":207357847},{"NoteNumber":56,"Velocity":64,"Duration":1079451,"SoundDuration":1079451,"Delta":207357847},{"NoteNumber":64,"Velocity":81,"Duration":517152,"SoundDuration":517152,"Delta":207357847},{"NoteNumber":62,"Velocity":50,"Duration":64644,"SoundDuration":64644,"Delta":207422491},{"NoteNumber":66,"Velocity":50,"Duration":64643,"SoundDuration":64643,"Delta":207487135},{"NoteNumber":68,"Velocity":50,"Duration":64644,"SoundDuration":64644,"Delta":207551779},{"NoteNumber":73,"Velocity":50,"Duration":258576,"SoundDuration":258576,"Delta":207616423},{"NoteNumber":74,"Velocity":50,"Duration":64644,"SoundDuration":64644,"Delta":207681067},{"NoteNumber":78,"Velocity":50,"Duration":64643,"SoundDuration":64643,"Delta":207745711},{"NoteNumber":85,"Velocity":50,"Duration":64644,"SoundDuration":64644,"Delta":207810355},{"NoteNumber":83,"Velocity":68,"Duration":332852,"SoundDuration":332852,"Delta":207874999},{"NoteNumber":62,"Velocity":65,"Duration":562299,"SoundDuration":562299,"Delta":207874999},{"NoteNumber":66,"Velocity":65,"Duration":562299,"SoundDuration":562299,"Delta":207874999},{"NoteNumber":59,"Velocity":65,"Duration":562299,"SoundDuration":562299,"Delta":207874999},{"NoteNumber":71,"Velocity":71,"Duration":562299,"SoundDuration":562299,"Delta":207874999},{"NoteNumber":71,"Velocity":50,"Duration":65278,"SoundDuration":65278,"Delta":207939239},{"NoteNumber":74,"Velocity":50,"Duration":66572,"SoundDuration":66572,"Delta":208004517},{"NoteNumber":78,"Velocity":50,"Duration":67682,"SoundDuration":67682,"Delta":208071089},{"NoteNumber":83,"Velocity":46,"Duration":298526,"SoundDuration":298526,"Delta":208138772},{"NoteNumber":86,"Velocity":45,"Duration":74872,"SoundDuration":74872,"Delta":208207852},{"NoteNumber":90,"Velocity":42,"Duration":77287,"SoundDuration":77287,"Delta":208282724},{"NoteNumber":34,"Velocity":56,"Duration":3044251,"SoundDuration":3044251,"Delta":208282724},{"NoteNumber":95,"Velocity":42,"Duration":77287,"SoundDuration":77287,"Delta":208360011},{"NoteNumber":96,"Velocity":45,"Duration":124502,"SoundDuration":124502,"Delta":208437299},{"NoteNumber":92,"Velocity":45,"Duration":124502,"SoundDuration":124502,"Delta":208437299},{"NoteNumber":56,"Velocity":56,"Duration":996015,"SoundDuration":996015,"Delta":208437299},{"NoteNumber":60,"Velocity":56,"Duration":996015,"SoundDuration":996015,"Delta":208437299},{"NoteNumber":53,"Velocity":56,"Duration":498007,"SoundDuration":498007,"Delta":208437299},{"NoteNumber":65,"Velocity":67,"Duration":498007,"SoundDuration":498007,"Delta":208437299},{"NoteNumber":98,"Velocity":45,"Duration":124502,"SoundDuration":124502,"Delta":208561801},{"NoteNumber":91,"Velocity":45,"Duration":124502,"SoundDuration":124502,"Delta":208561801},{"NoteNumber":90,"Velocity":45,"Duration":124501,"SoundDuration":124501,"Delta":208686303},{"NoteNumber":95,"Velocity":45,"Duration":124501,"SoundDuration":124501,"Delta":208686303},{"NoteNumber":89,"Velocity":45,"Duration":124502,"SoundDuration":124502,"Delta":208810805},{"NoteNumber":96,"Velocity":45,"Duration":124502,"SoundDuration":124502,"Delta":208810805},{"NoteNumber":88,"Velocity":45,"Duration":124502,"SoundDuration":124502,"Delta":208935307},{"NoteNumber":92,"Velocity":45,"Duration":124502,"SoundDuration":124502,"Delta":208935307},{"NoteNumber":55,"Velocity":55,"Duration":498007,"SoundDuration":498007,"Delta":208935307},{"NoteNumber":67,"Velocity":65,"Duration":498007,"SoundDuration":498007,"Delta":208935307},{"NoteNumber":87,"Velocity":47,"Duration":124502,"SoundDuration":124502,"Delta":209059809},{"NoteNumber":94,"Velocity":47,"Duration":124502,"SoundDuration":124502,"Delta":209059809},{"NoteNumber":86,"Velocity":47,"Duration":124501,"SoundDuration":124501,"Delta":209184311},{"NoteNumber":91,"Velocity":47,"Duration":124501,"SoundDuration":124501,"Delta":209184311},{"NoteNumber":85,"Velocity":47,"Duration":124502,"SoundDuration":124502,"Delta":209308813},{"NoteNumber":92,"Velocity":47,"Duration":124502,"SoundDuration":124502,"Delta":209308813},{"NoteNumber":84,"Velocity":47,"Duration":123355,"SoundDuration":123355,"Delta":209433315},{"NoteNumber":88,"Velocity":47,"Duration":123355,"SoundDuration":123355,"Delta":209433315},{"NoteNumber":60,"Velocity":61,"Duration":977995,"SoundDuration":977995,"Delta":209433315},{"NoteNumber":65,"Velocity":61,"Duration":977995,"SoundDuration":977995,"Delta":209433315},{"NoteNumber":56,"Velocity":61,"Duration":491946,"SoundDuration":491946,"Delta":209433315},{"NoteNumber":68,"Velocity":72,"Duration":491946,"SoundDuration":491946,"Delta":209433315},{"NoteNumber":89,"Velocity":47,"Duration":123355,"SoundDuration":123355,"Delta":209556670},{"NoteNumber":83,"Velocity":47,"Duration":123355,"SoundDuration":123355,"Delta":209556670},{"NoteNumber":82,"Velocity":50,"Duration":122986,"SoundDuration":122986,"Delta":209680026},{"NoteNumber":85,"Velocity":50,"Duration":122986,"SoundDuration":122986,"Delta":209680026},{"NoteNumber":81,"Velocity":50,"Duration":122249,"SoundDuration":122249,"Delta":209803012},{"NoteNumber":86,"Velocity":50,"Duration":122249,"SoundDuration":122249,"Delta":209803012},{"NoteNumber":80,"Velocity":50,"Duration":122249,"SoundDuration":122249,"Delta":209925262},{"NoteNumber":83,"Velocity":50,"Duration":122249,"SoundDuration":122249,"Delta":209925262},{"NoteNumber":58,"Velocity":77,"Duration":486048,"SoundDuration":486048,"Delta":209925262},{"NoteNumber":70,"Velocity":77,"Duration":486048,"SoundDuration":486048,"Delta":209925262},{"NoteNumber":79,"Velocity":52,"Duration":121512,"SoundDuration":121512,"Delta":210047511},{"NoteNumber":85,"Velocity":52,"Duration":121512,"SoundDuration":121512,"Delta":210047511},{"NoteNumber":78,"Velocity":53,"Duration":121143,"SoundDuration":121143,"Delta":210169023},{"NoteNumber":80,"Velocity":53,"Duration":121143,"SoundDuration":121143,"Delta":210169023},{"NoteNumber":77,"Velocity":53,"Duration":121143,"SoundDuration":121143,"Delta":210290167},{"NoteNumber":83,"Velocity":53,"Duration":121143,"SoundDuration":121143,"Delta":210290167},{"NoteNumber":79,"Velocity":52,"Duration":128073,"SoundDuration":128073,"Delta":210411310},{"NoteNumber":76,"Velocity":52,"Duration":128073,"SoundDuration":128073,"Delta":210411310},{"NoteNumber":65,"Velocity":69,"Duration":1050121,"SoundDuration":1050121,"Delta":210411310},{"NoteNumber":68,"Velocity":69,"Duration":1050121,"SoundDuration":1050121,"Delta":210411310},{"NoteNumber":60,"Velocity":69,"Duration":512294,"SoundDuration":512294,"Delta":210411310},{"NoteNumber":72,"Velocity":82,"Duration":512294,"SoundDuration":512294,"Delta":210411310},{"NoteNumber":75,"Velocity":52,"Duration":128073,"SoundDuration":128073,"Delta":210539384},{"NoteNumber":82,"Velocity":52,"Duration":128073,"SoundDuration":128073,"Delta":210539384},{"NoteNumber":77,"Velocity":53,"Duration":128073,"SoundDuration":128073,"Delta":210667458},{"NoteNumber":74,"Velocity":53,"Duration":128073,"SoundDuration":128073,"Delta":210667458},{"NoteNumber":73,"Velocity":56,"Duration":128073,"SoundDuration":128073,"Delta":210795532},{"NoteNumber":80,"Velocity":56,"Duration":128073,"SoundDuration":128073,"Delta":210795532},{"NoteNumber":71,"Velocity":56,"Duration":134456,"SoundDuration":134456,"Delta":210923605},{"NoteNumber":76,"Velocity":56,"Duration":134456,"SoundDuration":134456,"Delta":210923605},{"NoteNumber":62,"Velocity":73,"Duration":537826,"SoundDuration":537826,"Delta":210923605},{"NoteNumber":74,"Velocity":86,"Duration":537826,"SoundDuration":537826,"Delta":210923605},{"NoteNumber":70,"Velocity":56,"Duration":134456,"SoundDuration":134456,"Delta":211058062},{"NoteNumber":79,"Velocity":56,"Duration":134456,"SoundDuration":134456,"Delta":211058062},{"NoteNumber":69,"Velocity":58,"Duration":134456,"SoundDuration":134456,"Delta":211192519},{"NoteNumber":73,"Velocity":58,"Duration":134456,"SoundDuration":134456,"Delta":211192519},{"NoteNumber":68,"Velocity":58,"Duration":134456,"SoundDuration":134456,"Delta":211326976},{"NoteNumber":74,"Velocity":58,"Duration":134456,"SoundDuration":134456,"Delta":211326976},{"NoteNumber":75,"Velocity":75,"Duration":863699,"SoundDuration":863699,"Delta":211461432},{"NoteNumber":51,"Velocity":95,"Duration":863699,"SoundDuration":863699,"Delta":211461432},{"NoteNumber":68,"Velocity":50,"Duration":145021,"SoundDuration":145021,"Delta":211605235},{"NoteNumber":63,"Velocity":53,"Duration":112227,"SoundDuration":112227,"Delta":211750257},{"NoteNumber":44,"Velocity":62,"Duration":305556,"SoundDuration":305556,"Delta":211750257},{"NoteNumber":63,"Velocity":50,"Duration":116263,"SoundDuration":116263,"Delta":211900328},{"NoteNumber":56,"Velocity":50,"Duration":161304,"SoundDuration":161304,"Delta":212055813},{"NoteNumber":39,"Velocity":56,"Duration":269319,"SoundDuration":269319,"Delta":212055813},{"NoteNumber":51,"Velocity":46,"Duration":108014,"SoundDuration":108014,"Delta":212217118},{"NoteNumber":53,"Velocity":40,"Duration":641339,"SoundDuration":641339,"Delta":212244121},{"NoteNumber":48,"Velocity":40,"Duration":590988,"SoundDuration":590988,"Delta":212271125},{"NoteNumber":44,"Velocity":34,"Duration":587332,"SoundDuration":587332,"Delta":212298129},{"NoteNumber":41,"Velocity":42,"Duration":560328,"SoundDuration":560328,"Delta":212325132},{"NoteNumber":32,"Velocity":51,"Duration":186776,"SoundDuration":186776,"Delta":212325132},{"NoteNumber":39,"Velocity":53,"Duration":186776,"SoundDuration":186776,"Delta":212511908},{"NoteNumber":44,"Velocity":53,"Duration":186776,"SoundDuration":186776,"Delta":212698685},{"NoteNumber":43,"Velocity":42,"Duration":554528,"SoundDuration":554528,"Delta":212885461},{"NoteNumber":48,"Velocity":40,"Duration":1061970,"SoundDuration":1061970,"Delta":212885461},{"NoteNumber":55,"Velocity":50,"Duration":554528,"SoundDuration":554528,"Delta":212885461},{"NoteNumber":51,"Velocity":56,"Duration":184842,"SoundDuration":184842,"Delta":212885461},{"NoteNumber":44,"Velocity":53,"Duration":184842,"SoundDuration":184842,"Delta":213070304},{"NoteNumber":39,"Velocity":53,"Duration":184842,"SoundDuration":184842,"Delta":213255146},{"NoteNumber":44,"Velocity":44,"Duration":507442,"SoundDuration":507442,"Delta":213439989},{"NoteNumber":56,"Velocity":52,"Duration":507442,"SoundDuration":507442,"Delta":213439989},{"NoteNumber":32,"Velocity":56,"Duration":169147,"SoundDuration":169147,"Delta":213439989},{"NoteNumber":39,"Velocity":53,"Duration":169147,"SoundDuration":169147,"Delta":213609137},{"NoteNumber":44,"Velocity":56,"Duration":169147,"SoundDuration":169147,"Delta":213778284},{"NoteNumber":56,"Velocity":45,"Duration":1029635,"SoundDuration":1029635,"Delta":213947432},{"NoteNumber":46,"Velocity":47,"Duration":522192,"SoundDuration":522192,"Delta":213947432},{"NoteNumber":58,"Velocity":56,"Duration":522192,"SoundDuration":522192,"Delta":213947432},{"NoteNumber":51,"Velocity":56,"Duration":174064,"SoundDuration":174064,"Delta":213947432},{"NoteNumber":44,"Velocity":56,"Duration":174064,"SoundDuration":174064,"Delta":214121496},{"NoteNumber":39,"Velocity":56,"Duration":174064,"SoundDuration":174064,"Delta":214295560},{"NoteNumber":48,"Velocity":47,"Duration":507442,"SoundDuration":507442,"Delta":214469625},{"NoteNumber":60,"Velocity":56,"Duration":507442,"SoundDuration":507442,"Delta":214469625},{"NoteNumber":32,"Velocity":56,"Duration":169147,"SoundDuration":169147,"Delta":214469625},{"NoteNumber":39,"Velocity":56,"Duration":169147,"SoundDuration":169147,"Delta":214638772},{"NoteNumber":44,"Velocity":56,"Duration":169147,"SoundDuration":169147,"Delta":214807920},{"NoteNumber":49,"Velocity":49,"Duration":517152,"SoundDuration":517152,"Delta":214977067},{"NoteNumber":54,"Velocity":45,"Duration":1019833,"SoundDuration":1019833,"Delta":214977067},{"NoteNumber":57,"Velocity":45,"Duration":1019833,"SoundDuration":1019833,"Delta":214977067},{"NoteNumber":61,"Velocity":58,"Duration":517152,"SoundDuration":517152,"Delta":214977067},{"NoteNumber":30,"Velocity":63,"Duration":172383,"SoundDuration":172383,"Delta":214977067},{"NoteNumber":37,"Velocity":61,"Duration":172383,"SoundDuration":172383,"Delta":215149451},{"NoteNumber":42,"Velocity":61,"Duration":172384,"SoundDuration":172384,"Delta":215321835},{"NoteNumber":63,"Velocity":65,"Duration":502680,"SoundDuration":502680,"Delta":215494219},{"NoteNumber":51,"Velocity":55,"Duration":502680,"SoundDuration":502680,"Delta":215494219},{"NoteNumber":49,"Velocity":65,"Duration":167560,"SoundDuration":167560,"Delta":215494219},{"NoteNumber":42,"Velocity":67,"Duration":167560,"SoundDuration":167560,"Delta":215661780},{"NoteNumber":37,"Velocity":67,"Duration":167560,"SoundDuration":167560,"Delta":215829340},{"NoteNumber":53,"Velocity":53,"Duration":512294,"SoundDuration":512294,"Delta":215996900},{"NoteNumber":57,"Velocity":50,"Duration":1010302,"SoundDuration":1010302,"Delta":215996900},{"NoteNumber":61,"Velocity":50,"Duration":1010302,"SoundDuration":1010302,"Delta":215996900},{"NoteNumber":65,"Velocity":63,"Duration":512294,"SoundDuration":512294,"Delta":215996900},{"NoteNumber":30,"Velocity":68,"Duration":170764,"SoundDuration":170764,"Delta":215996900},{"NoteNumber":37,"Velocity":67,"Duration":170765,"SoundDuration":170765,"Delta":216167665},{"NoteNumber":42,"Velocity":67,"Duration":170764,"SoundDuration":170764,"Delta":216338430},{"NoteNumber":66,"Velocity":63,"Duration":498007,"SoundDuration":498007,"Delta":216509195},{"NoteNumber":54,"Velocity":53,"Duration":498007,"SoundDuration":498007,"Delta":216509195},{"NoteNumber":49,"Velocity":68,"Duration":166002,"SoundDuration":166002,"Delta":216509195},{"NoteNumber":42,"Velocity":67,"Duration":166002,"SoundDuration":166002,"Delta":216675198},{"NoteNumber":37,"Velocity":67,"Duration":166002,"SoundDuration":166002,"Delta":216841201},{"NoteNumber":61,"Velocity":56,"Duration":974453,"SoundDuration":974453,"Delta":217007203},{"NoteNumber":66,"Velocity":56,"Duration":974453,"SoundDuration":974453,"Delta":217007203},{"NoteNumber":56,"Velocity":57,"Duration":502680,"SoundDuration":502680,"Delta":217007203},{"NoteNumber":68,"Velocity":68,"Duration":502680,"SoundDuration":502680,"Delta":217007203},{"NoteNumber":30,"Velocity":73,"Duration":167560,"SoundDuration":167560,"Delta":217007203},{"NoteNumber":37,"Velocity":72,"Duration":167560,"SoundDuration":167560,"Delta":217174764},{"NoteNumber":42,"Velocity":72,"Duration":167560,"SoundDuration":167560,"Delta":217342324},{"NoteNumber":69,"Velocity":68,"Duration":471772,"SoundDuration":471772,"Delta":217509884},{"NoteNumber":57,"Velocity":57,"Duration":471772,"SoundDuration":471772,"Delta":217509884},{"NoteNumber":49,"Velocity":73,"Duration":157257,"SoundDuration":157257,"Delta":217509884},{"NoteNumber":42,"Velocity":72,"Duration":157257,"SoundDuration":157257,"Delta":217667142},{"NoteNumber":37,"Velocity":72,"Duration":157257,"SoundDuration":157257,"Delta":217824399},{"NoteNumber":64,"Velocity":56,"Duration":956346,"SoundDuration":956346,"Delta":217981657},{"NoteNumber":67,"Velocity":56,"Duration":956346,"SoundDuration":956346,"Delta":217981657},{"NoteNumber":59,"Velocity":63,"Duration":484574,"SoundDuration":484574,"Delta":217981657},{"NoteNumber":71,"Velocity":75,"Duration":484574,"SoundDuration":484574,"Delta":217981657},{"NoteNumber":28,"Velocity":78,"Duration":161524,"SoundDuration":161524,"Delta":217981657},{"NoteNumber":40,"Velocity":73,"Duration":161524,"SoundDuration":161524,"Delta":218143182},{"NoteNumber":47,"Velocity":73,"Duration":161524,"SoundDuration":161524,"Delta":218304706},{"NoteNumber":61,"Velocity":66,"Duration":471772,"SoundDuration":471772,"Delta":218466231},{"NoteNumber":73,"Velocity":78,"Duration":471772,"SoundDuration":471772,"Delta":218466231},{"NoteNumber":59,"Velocity":78,"Duration":157257,"SoundDuration":157257,"Delta":218466231},{"NoteNumber":52,"Velocity":78,"Duration":157257,"SoundDuration":157257,"Delta":218466231},{"NoteNumber":47,"Velocity":78,"Duration":157257,"SoundDuration":157257,"Delta":218623489},{"NoteNumber":40,"Velocity":78,"Duration":157257,"SoundDuration":157257,"Delta":218780746},{"NoteNumber":67,"Velocity":65,"Duration":952002,"SoundDuration":952002,"Delta":218938004},{"NoteNumber":71,"Velocity":65,"Duration":952002,"SoundDuration":952002,"Delta":218938004},{"NoteNumber":63,"Velocity":72,"Duration":480230,"SoundDuration":480230,"Delta":218938004},{"NoteNumber":75,"Velocity":85,"Duration":480230,"SoundDuration":480230,"Delta":218938004},{"NoteNumber":28,"Velocity":78,"Duration":160076,"SoundDuration":160076,"Delta":218938004},{"NoteNumber":40,"Velocity":78,"Duration":160076,"SoundDuration":160076,"Delta":219098081},{"NoteNumber":47,"Velocity":78,"Duration":160076,"SoundDuration":160076,"Delta":219258157},{"NoteNumber":64,"Velocity":85,"Duration":471772,"SoundDuration":471772,"Delta":219418234},{"NoteNumber":76,"Velocity":85,"Duration":471772,"SoundDuration":471772,"Delta":219418234},{"NoteNumber":59,"Velocity":81,"Duration":157257,"SoundDuration":157257,"Delta":219418234},{"NoteNumber":52,"Velocity":81,"Duration":157257,"SoundDuration":157257,"Delta":219418234},{"NoteNumber":47,"Velocity":78,"Duration":157257,"SoundDuration":157257,"Delta":219575492},{"NoteNumber":40,"Velocity":78,"Duration":157257,"SoundDuration":157257,"Delta":219732749},{"NoteNumber":71,"Velocity":76,"Duration":958948,"SoundDuration":958948,"Delta":219890007},{"NoteNumber":76,"Velocity":76,"Duration":958948,"SoundDuration":958948,"Delta":219890007},{"NoteNumber":66,"Velocity":77,"Duration":488360,"SoundDuration":488360,"Delta":219890007},{"NoteNumber":78,"Velocity":91,"Duration":488360,"SoundDuration":488360,"Delta":219890007},{"NoteNumber":28,"Velocity":87,"Duration":162786,"SoundDuration":162786,"Delta":219890007},{"NoteNumber":40,"Velocity":83,"Duration":162786,"SoundDuration":162786,"Delta":220052794},{"NoteNumber":47,"Velocity":87,"Duration":162786,"SoundDuration":162786,"Delta":220215580},{"NoteNumber":67,"Velocity":78,"Duration":470587,"SoundDuration":470587,"Delta":220378367},{"NoteNumber":79,"Velocity":92,"Duration":470587,"SoundDuration":470587,"Delta":220378367},{"NoteNumber":59,"Velocity":91,"Duration":156862,"SoundDuration":156862,"Delta":220378367},{"NoteNumber":52,"Velocity":91,"Duration":156862,"SoundDuration":156862,"Delta":220378367},{"NoteNumber":47,"Velocity":90,"Duration":156862,"SoundDuration":156862,"Delta":220535230},{"NoteNumber":40,"Velocity":90,"Duration":156862,"SoundDuration":156862,"Delta":220692093},{"NoteNumber":68,"Velocity":80,"Duration":502680,"SoundDuration":502680,"Delta":220848955},{"NoteNumber":71,"Velocity":80,"Duration":502680,"SoundDuration":502680,"Delta":220848955},{"NoteNumber":77,"Velocity":80,"Duration":502680,"SoundDuration":502680,"Delta":220848955},{"NoteNumber":80,"Velocity":95,"Duration":502680,"SoundDuration":502680,"Delta":220848955},{"NoteNumber":25,"Velocity":91,"Duration":167560,"SoundDuration":167560,"Delta":220848955},{"NoteNumber":37,"Velocity":83,"Duration":167560,"SoundDuration":167560,"Delta":221016516},{"NoteNumber":37,"Velocity":83,"Duration":167560,"SoundDuration":167560,"Delta":221184076},{"NoteNumber":70,"Velocity":81,"Duration":484574,"SoundDuration":484574,"Delta":221351636},{"NoteNumber":73,"Velocity":81,"Duration":484574,"SoundDuration":484574,"Delta":221351636},{"NoteNumber":77,"Velocity":81,"Duration":484574,"SoundDuration":484574,"Delta":221351636},{"NoteNumber":82,"Velocity":96,"Duration":484574,"SoundDuration":484574,"Delta":221351636},{"NoteNumber":49,"Velocity":91,"Duration":161524,"SoundDuration":161524,"Delta":221351636},{"NoteNumber":49,"Velocity":87,"Duration":161524,"SoundDuration":161524,"Delta":221513161},{"NoteNumber":61,"Velocity":87,"Duration":161524,"SoundDuration":161524,"Delta":221674686},{"NoteNumber":71,"Velocity":85,"Duration":528262,"SoundDuration":528262,"Delta":221836211},{"NoteNumber":75,"Velocity":85,"Duration":528262,"SoundDuration":528262,"Delta":221836211},{"NoteNumber":83,"Velocity":101,"Duration":528262,"SoundDuration":528262,"Delta":221836211},{"NoteNumber":80,"Velocity":85,"Duration":528262,"SoundDuration":528262,"Delta":221836211},{"NoteNumber":59,"Velocity":85,"Duration":176087,"SoundDuration":176087,"Delta":221836211},{"NoteNumber":56,"Velocity":85,"Duration":176087,"SoundDuration":176087,"Delta":221836211},{"NoteNumber":51,"Velocity":85,"Duration":176087,"SoundDuration":176087,"Delta":221836211},{"NoteNumber":49,"Velocity":90,"Duration":176087,"SoundDuration":176087,"Delta":222012298},{"NoteNumber":37,"Velocity":91,"Duration":176087,"SoundDuration":176087,"Delta":222188385},{"NoteNumber":73,"Velocity":87,"Duration":502596,"SoundDuration":502596,"Delta":222364473},{"NoteNumber":77,"Velocity":87,"Duration":502596,"SoundDuration":502596,"Delta":222364473},{"NoteNumber":80,"Velocity":87,"Duration":502596,"SoundDuration":502596,"Delta":222364473},{"NoteNumber":85,"Velocity":103,"Duration":502596,"SoundDuration":502596,"Delta":222364473},{"NoteNumber":49,"Velocity":96,"Duration":167532,"SoundDuration":167532,"Delta":222364473},{"NoteNumber":49,"Velocity":91,"Duration":167532,"SoundDuration":167532,"Delta":222532005},{"NoteNumber":61,"Velocity":91,"Duration":167532,"SoundDuration":167532,"Delta":222699537},{"NoteNumber":87,"Velocity":110,"Duration":556586,"SoundDuration":556586,"Delta":222867069},{"NoteNumber":83,"Velocity":93,"Duration":556586,"SoundDuration":556586,"Delta":222867069},{"NoteNumber":80,"Velocity":93,"Duration":556586,"SoundDuration":556586,"Delta":222867069},{"NoteNumber":75,"Velocity":93,"Duration":556586,"SoundDuration":556586,"Delta":222867069},{"NoteNumber":63,"Velocity":87,"Duration":185528,"SoundDuration":185528,"Delta":222867069},{"NoteNumber":59,"Velocity":87,"Duration":185528,"SoundDuration":185528,"Delta":222867069},{"NoteNumber":53,"Velocity":87,"Duration":185528,"SoundDuration":185528,"Delta":222867069},{"NoteNumber":37,"Velocity":87,"Duration":185528,"SoundDuration":185528,"Delta":223052598},{"NoteNumber":49,"Velocity":87,"Duration":185528,"SoundDuration":185528,"Delta":223238127},{"NoteNumber":89,"Velocity":112,"Duration":609013,"SoundDuration":609013,"Delta":223423656},{"NoteNumber":85,"Velocity":95,"Duration":609013,"SoundDuration":609013,"Delta":223423656},{"NoteNumber":80,"Velocity":95,"Duration":609013,"SoundDuration":609013,"Delta":223423656},{"NoteNumber":77,"Velocity":95,"Duration":609013,"SoundDuration":609013,"Delta":223423656},{"NoteNumber":68,"Velocity":91,"Duration":203004,"SoundDuration":203004,"Delta":223423656},{"NoteNumber":61,"Velocity":91,"Duration":203004,"SoundDuration":203004,"Delta":223423656},{"NoteNumber":56,"Velocity":91,"Duration":203004,"SoundDuration":203004,"Delta":223423656},{"NoteNumber":49,"Velocity":97,"Duration":203004,"SoundDuration":203004,"Delta":223626660},{"NoteNumber":37,"Velocity":98,"Duration":203004,"SoundDuration":203004,"Delta":223829665},{"NoteNumber":23,"Velocity":101,"Duration":129605,"SoundDuration":129605,"Delta":224032669},{"NoteNumber":85,"Velocity":115,"Duration":406714,"SoundDuration":406714,"Delta":224036128},{"NoteNumber":97,"Velocity":80,"Duration":101312,"SoundDuration":101312,"Delta":224144146},{"NoteNumber":35,"Velocity":81,"Duration":118502,"SoundDuration":118502,"Delta":224162275},{"NoteNumber":90,"Velocity":80,"Duration":99242,"SoundDuration":99242,"Delta":224245458},{"NoteNumber":42,"Velocity":81,"Duration":116225,"SoundDuration":116225,"Delta":224280777},{"NoteNumber":85,"Velocity":80,"Duration":194133,"SoundDuration":194133,"Delta":224344701},{"NoteNumber":50,"Velocity":72,"Duration":113886,"SoundDuration":113886,"Delta":224397002},{"NoteNumber":85,"Velocity":70,"Duration":292121,"SoundDuration":292121,"Delta":224442842},{"NoteNumber":54,"Velocity":80,"Duration":111781,"SoundDuration":111781,"Delta":224510889},{"NoteNumber":78,"Velocity":80,"Duration":94873,"SoundDuration":94873,"Delta":224538835},{"NoteNumber":62,"Velocity":73,"Duration":109653,"SoundDuration":109653,"Delta":224622671},{"NoteNumber":73,"Velocity":66,"Duration":93169,"SoundDuration":93169,"Delta":224633709},{"NoteNumber":83,"Velocity":102,"Duration":525232,"SoundDuration":525232,"Delta":224734964},{"NoteNumber":64,"Velocity":78,"Duration":89738,"SoundDuration":89738,"Delta":224734964},{"NoteNumber":60,"Velocity":76,"Duration":89738,"SoundDuration":89738,"Delta":224822063},{"NoteNumber":78,"Velocity":72,"Duration":105574,"SoundDuration":105574,"Delta":224837899},{"NoteNumber":54,"Velocity":76,"Duration":89738,"SoundDuration":89738,"Delta":224911801},{"NoteNumber":71,"Velocity":72,"Duration":105574,"SoundDuration":105574,"Delta":224943474},{"NoteNumber":50,"Velocity":75,"Duration":89738,"SoundDuration":89738,"Delta":225001539},{"NoteNumber":78,"Velocity":62,"Duration":105574,"SoundDuration":105574,"Delta":225049048},{"NoteNumber":38,"Velocity":75,"Duration":89738,"SoundDuration":89738,"Delta":225091278},{"NoteNumber":83,"Velocity":72,"Duration":213880,"SoundDuration":213880,"Delta":225154622},{"NoteNumber":38,"Velocity":73,"Duration":89738,"SoundDuration":89738,"Delta":225181016},{"NoteNumber":95,"Velocity":66,"Duration":105574,"SoundDuration":105574,"Delta":225260197},{"NoteNumber":26,"Velocity":78,"Duration":89738,"SoundDuration":89738,"Delta":225270754},{"NoteNumber":81,"Velocity":97,"Duration":368771,"SoundDuration":368771,"Delta":225368503},{"NoteNumber":31,"Velocity":91,"Duration":131118,"SoundDuration":131118,"Delta":225368503},{"NoteNumber":93,"Velocity":68,"Duration":92875,"SoundDuration":92875,"Delta":225458647},{"NoteNumber":43,"Velocity":76,"Duration":131118,"SoundDuration":131118,"Delta":225496890},{"NoteNumber":86,"Velocity":68,"Duration":92875,"SoundDuration":92875,"Delta":225551523},{"NoteNumber":50,"Velocity":76,"Duration":131118,"SoundDuration":131118,"Delta":225628009},{"NoteNumber":81,"Velocity":68,"Duration":185751,"SoundDuration":185751,"Delta":225644399},{"NoteNumber":81,"Velocity":63,"Duration":286701,"SoundDuration":286701,"Delta":225737274},{"NoteNumber":58,"Velocity":78,"Duration":131118,"SoundDuration":131118,"Delta":225759128},{"NoteNumber":74,"Velocity":68,"Duration":92875,"SoundDuration":92875,"Delta":225830150},{"NoteNumber":62,"Velocity":75,"Duration":131118,"SoundDuration":131118,"Delta":225890246},{"NoteNumber":69,"Velocity":62,"Duration":92875,"SoundDuration":92875,"Delta":225923026},{"NoteNumber":79,"Velocity":92,"Duration":519528,"SoundDuration":519528,"Delta":226023976},{"NoteNumber":60,"Velocity":75,"Duration":125313,"SoundDuration":125313,"Delta":226023976},{"NoteNumber":74,"Velocity":63,"Duration":104427,"SoundDuration":104427,"Delta":226125793},{"NoteNumber":56,"Velocity":76,"Duration":125313,"SoundDuration":125313,"Delta":226146679},{"NoteNumber":67,"Velocity":63,"Duration":104427,"SoundDuration":104427,"Delta":226230221},{"NoteNumber":50,"Velocity":78,"Duration":125313,"SoundDuration":125313,"Delta":226271992},{"NoteNumber":74,"Velocity":60,"Duration":104427,"SoundDuration":104427,"Delta":226334649},{"NoteNumber":46,"Velocity":76,"Duration":125313,"SoundDuration":125313,"Delta":226397305},{"NoteNumber":79,"Velocity":63,"Duration":211720,"SoundDuration":211720,"Delta":226439076},{"NoteNumber":34,"Velocity":76,"Duration":125313,"SoundDuration":125313,"Delta":226522619},{"NoteNumber":91,"Velocity":61,"Duration":104427,"SoundDuration":104427,"Delta":226543504},{"NoteNumber":77,"Velocity":91,"Duration":386775,"SoundDuration":386775,"Delta":226650797},{"NoteNumber":39,"Velocity":97,"Duration":137520,"SoundDuration":137520,"Delta":226650797},{"NoteNumber":89,"Velocity":67,"Duration":97410,"SoundDuration":97410,"Delta":226745342},{"NoteNumber":46,"Velocity":78,"Duration":137520,"SoundDuration":137520,"Delta":226785452},{"NoteNumber":82,"Velocity":67,"Duration":97410,"SoundDuration":97410,"Delta":226842752},{"NoteNumber":51,"Velocity":76,"Duration":137520,"SoundDuration":137520,"Delta":226922972},{"NoteNumber":77,"Velocity":61,"Duration":194820,"SoundDuration":194820,"Delta":226940162},{"NoteNumber":77,"Velocity":66,"Duration":622004,"SoundDuration":622004,"Delta":227037572},{"NoteNumber":54,"Velocity":72,"Duration":137520,"SoundDuration":137520,"Delta":227060492},{"NoteNumber":70,"Velocity":66,"Duration":97410,"SoundDuration":97410,"Delta":227134982},{"NoteNumber":58,"Velocity":72,"Duration":137520,"SoundDuration":137520,"Delta":227198012},{"NoteNumber":65,"Velocity":66,"Duration":97410,"SoundDuration":97410,"Delta":227232392},{"NoteNumber":65,"Velocity":60,"Duration":108014,"SoundDuration":108014,"Delta":227335532},{"NoteNumber":66,"Velocity":70,"Duration":108014,"SoundDuration":108014,"Delta":227335532},{"NoteNumber":70,"Velocity":66,"Duration":108014,"SoundDuration":108014,"Delta":227443547},{"NoteNumber":58,"Velocity":70,"Duration":108014,"SoundDuration":108014,"Delta":227443547},{"NoteNumber":77,"Velocity":66,"Duration":324044,"SoundDuration":324044,"Delta":227551562},{"NoteNumber":54,"Velocity":70,"Duration":108014,"SoundDuration":108014,"Delta":227551562},{"NoteNumber":70,"Velocity":63,"Duration":108014,"SoundDuration":108014,"Delta":227659576},{"NoteNumber":51,"Velocity":70,"Duration":108014,"SoundDuration":108014,"Delta":227659576},{"NoteNumber":77,"Velocity":68,"Duration":218545,"SoundDuration":218545,"Delta":227767591},{"NoteNumber":46,"Velocity":70,"Duration":108014,"SoundDuration":108014,"Delta":227767591},{"NoteNumber":82,"Velocity":68,"Duration":107736,"SoundDuration":107736,"Delta":227875606},{"NoteNumber":39,"Velocity":70,"Duration":107736,"SoundDuration":107736,"Delta":227875606},{"NoteNumber":87,"Velocity":90,"Duration":679019,"SoundDuration":679019,"Delta":227986136},{"NoteNumber":42,"Velocity":91,"Duration":134138,"SoundDuration":134138,"Delta":227986136},{"NoteNumber":82,"Velocity":67,"Duration":111781,"SoundDuration":111781,"Delta":228095124},{"NoteNumber":49,"Velocity":73,"Duration":134694,"SoundDuration":134694,"Delta":228117480},{"NoteNumber":75,"Velocity":68,"Duration":113173,"SoundDuration":113173,"Delta":228206906},{"NoteNumber":54,"Velocity":72,"Duration":135808,"SoundDuration":135808,"Delta":228252175},{"NoteNumber":75,"Velocity":61,"Duration":113173,"SoundDuration":113173,"Delta":228320079},{"NoteNumber":58,"Velocity":68,"Duration":136949,"SoundDuration":136949,"Delta":228387983},{"NoteNumber":70,"Velocity":66,"Duration":114600,"SoundDuration":114600,"Delta":228433252},{"NoteNumber":64,"Velocity":67,"Duration":137520,"SoundDuration":137520,"Delta":228524932},{"NoteNumber":68,"Velocity":61,"Duration":114600,"SoundDuration":114600,"Delta":228547852},{"NoteNumber":82,"Velocity":86,"Duration":690232,"SoundDuration":690232,"Delta":228665156},{"NoteNumber":67,"Velocity":67,"Duration":129785,"SoundDuration":129785,"Delta":228665156},{"NoteNumber":79,"Velocity":61,"Duration":108154,"SoundDuration":108154,"Delta":228770607},{"NoteNumber":64,"Velocity":67,"Duration":129785,"SoundDuration":129785,"Delta":228792238},{"NoteNumber":76,"Velocity":58,"Duration":108154,"SoundDuration":108154,"Delta":228878762},{"NoteNumber":58,"Velocity":67,"Duration":129785,"SoundDuration":129785,"Delta":228922024},{"NoteNumber":70,"Velocity":56,"Duration":108154,"SoundDuration":108154,"Delta":228986917},{"NoteNumber":54,"Velocity":65,"Duration":146248,"SoundDuration":146248,"Delta":229051810},{"NoteNumber":67,"Velocity":55,"Duration":128733,"SoundDuration":128733,"Delta":229095072},{"NoteNumber":42,"Velocity":65,"Duration":154479,"SoundDuration":154479,"Delta":229198059},{"NoteNumber":65,"Velocity":55,"Duration":128733,"SoundDuration":128733,"Delta":229223805},{"NoteNumber":73,"Velocity":90,"Duration":671541,"SoundDuration":671541,"Delta":229355389},{"NoteNumber":35,"Velocity":85,"Duration":136830,"SoundDuration":136830,"Delta":229355389},{"NoteNumber":85,"Velocity":62,"Duration":113318,"SoundDuration":113318,"Delta":229466564},{"NoteNumber":42,"Velocity":72,"Duration":135558,"SoundDuration":135558,"Delta":229489369},{"NoteNumber":78,"Velocity":62,"Duration":112612,"SoundDuration":112612,"Delta":229579883},{"NoteNumber":50,"Velocity":67,"Duration":134308,"SoundDuration":134308,"Delta":229624928},{"NoteNumber":74,"Velocity":56,"Duration":111234,"SoundDuration":111234,"Delta":229692495},{"NoteNumber":54,"Velocity":67,"Duration":133099,"SoundDuration":133099,"Delta":229759236},{"NoteNumber":66,"Velocity":61,"Duration":110598,"SoundDuration":110598,"Delta":229803730},{"NoteNumber":62,"Velocity":65,"Duration":131955,"SoundDuration":131955,"Delta":229892336},{"NoteNumber":78,"Velocity":55,"Duration":109962,"SoundDuration":109962,"Delta":229914328},{"NoteNumber":71,"Velocity":85,"Duration":633538,"SoundDuration":633538,"Delta":230026930},{"NoteNumber":64,"Velocity":63,"Duration":126689,"SoundDuration":126689,"Delta":230026930},{"NoteNumber":83,"Velocity":55,"Duration":105574,"SoundDuration":105574,"Delta":230129865},{"NoteNumber":60,"Velocity":61,"Duration":126689,"SoundDuration":126689,"Delta":230150980},{"NoteNumber":78,"Velocity":56,"Duration":105574,"SoundDuration":105574,"Delta":230235440},{"NoteNumber":54,"Velocity":63,"Duration":126689,"SoundDuration":126689,"Delta":230277669},{"NoteNumber":74,"Velocity":48,"Duration":105574,"SoundDuration":105574,"Delta":230341014},{"NoteNumber":50,"Velocity":65,"Duration":126689,"SoundDuration":126689,"Delta":230404359},{"NoteNumber":66,"Velocity":56,"Duration":105574,"SoundDuration":105574,"Delta":230446588},{"NoteNumber":38,"Velocity":65,"Duration":126689,"SoundDuration":126689,"Delta":230531048},{"NoteNumber":78,"Velocity":55,"Duration":105574,"SoundDuration":105574,"Delta":230552163},{"NoteNumber":69,"Velocity":80,"Duration":655473,"SoundDuration":655473,"Delta":230660469},{"NoteNumber":43,"Velocity":72,"Duration":131118,"SoundDuration":131118,"Delta":230660469},{"NoteNumber":81,"Velocity":56,"Duration":109265,"SoundDuration":109265,"Delta":230767003},{"NoteNumber":50,"Velocity":58,"Duration":131118,"SoundDuration":131118,"Delta":230788856},{"NoteNumber":74,"Velocity":56,"Duration":109265,"SoundDuration":109265,"Delta":230876269},{"NoteNumber":58,"Velocity":58,"Duration":131118,"SoundDuration":131118,"Delta":230919975},{"NoteNumber":70,"Velocity":50,"Duration":109265,"SoundDuration":109265,"Delta":230985534},{"NoteNumber":50,"Velocity":57,"Duration":131118,"SoundDuration":131118,"Delta":231051094},{"NoteNumber":62,"Velocity":57,"Duration":109265,"SoundDuration":109265,"Delta":231094800},{"NoteNumber":58,"Velocity":57,"Duration":131118,"SoundDuration":131118,"Delta":231182213},{"NoteNumber":74,"Velocity":55,"Duration":109265,"SoundDuration":109265,"Delta":231204066},{"NoteNumber":67,"Velocity":73,"Duration":626850,"SoundDuration":626850,"Delta":231315942},{"NoteNumber":60,"Velocity":57,"Duration":125313,"SoundDuration":125313,"Delta":231315942},{"NoteNumber":79,"Velocity":55,"Duration":104427,"SoundDuration":104427,"Delta":231417759},{"NoteNumber":56,"Velocity":56,"Duration":125313,"SoundDuration":125313,"Delta":231438645},{"NoteNumber":74,"Velocity":50,"Duration":104427,"SoundDuration":104427,"Delta":231522187},{"NoteNumber":50,"Velocity":56,"Duration":125313,"SoundDuration":125313,"Delta":231563958},{"NoteNumber":70,"Velocity":48,"Duration":104427,"SoundDuration":104427,"Delta":231626615},{"NoteNumber":46,"Velocity":56,"Duration":125313,"SoundDuration":125313,"Delta":231689271},{"NoteNumber":62,"Velocity":48,"Duration":104427,"SoundDuration":104427,"Delta":231731043},{"NoteNumber":34,"Velocity":56,"Duration":125313,"SoundDuration":125313,"Delta":231814585},{"NoteNumber":74,"Velocity":48,"Duration":104427,"SoundDuration":104427,"Delta":231835470},{"NoteNumber":65,"Velocity":78,"Duration":791528,"SoundDuration":791528,"Delta":231942793},{"NoteNumber":39,"Velocity":70,"Duration":138953,"SoundDuration":138953,"Delta":231942793},{"NoteNumber":77,"Velocity":48,"Duration":98425,"SoundDuration":98425,"Delta":232055692},{"NoteNumber":46,"Velocity":53,"Duration":138454,"SoundDuration":138454,"Delta":232078851},{"NoteNumber":70,"Velocity":55,"Duration":97365,"SoundDuration":97365,"Delta":232171487},{"NoteNumber":54,"Velocity":53,"Duration":137457,"SoundDuration":137457,"Delta":232217306},{"NoteNumber":66,"Velocity":50,"Duration":97365,"SoundDuration":97365,"Delta":232286034},{"NoteNumber":46,"Velocity":53,"Duration":136398,"SoundDuration":136398,"Delta":232354763},{"NoteNumber":58,"Velocity":55,"Duration":96240,"SoundDuration":96240,"Delta":232400582},{"NoteNumber":54,"Velocity":51,"Duration":135248,"SoundDuration":135248,"Delta":232491161},{"NoteNumber":70,"Velocity":48,"Duration":95806,"SoundDuration":95806,"Delta":232513806},{"NoteNumber":65,"Velocity":55,"Duration":664045,"SoundDuration":664045,"Delta":232626410},{"NoteNumber":58,"Velocity":51,"Duration":128680,"SoundDuration":128680,"Delta":232626410},{"NoteNumber":70,"Velocity":48,"Duration":103842,"SoundDuration":103842,"Delta":232734322},{"NoteNumber":54,"Velocity":51,"Duration":124610,"SoundDuration":124610,"Delta":232755090},{"NoteNumber":66,"Velocity":50,"Duration":103842,"SoundDuration":103842,"Delta":232838164},{"NoteNumber":46,"Velocity":47,"Duration":126326,"SoundDuration":126326,"Delta":232879701},{"NoteNumber":58,"Velocity":43,"Duration":106929,"SoundDuration":106929,"Delta":232942006},{"NoteNumber":54,"Velocity":47,"Duration":137718,"SoundDuration":137718,"Delta":233006027},{"NoteNumber":70,"Velocity":48,"Duration":118511,"SoundDuration":118511,"Delta":233048936},{"NoteNumber":46,"Velocity":47,"Duration":143635,"SoundDuration":143635,"Delta":233143745},{"NoteNumber":66,"Velocity":42,"Duration":119932,"SoundDuration":119932,"Delta":233167448},{"NoteNumber":75,"Velocity":66,"Duration":740344,"SoundDuration":740344,"Delta":233290456},{"NoteNumber":42,"Velocity":56,"Duration":147601,"SoundDuration":147601,"Delta":233290456},{"NoteNumber":64,"Velocity":45,"Duration":123001,"SoundDuration":123001,"Delta":233410382},{"NoteNumber":49,"Velocity":47,"Duration":147601,"SoundDuration":147601,"Delta":233471882},{"NoteNumber":68,"Velocity":48,"Duration":123001,"SoundDuration":123001,"Delta":233533383},{"NoteNumber":63,"Velocity":42,"Duration":123001,"SoundDuration":123001,"Delta":233656384},{"NoteNumber":52,"Velocity":47,"Duration":147601,"SoundDuration":147601,"Delta":233656384},{"NoteNumber":68,"Velocity":48,"Duration":123001,"SoundDuration":123001,"Delta":233779386},{"NoteNumber":56,"Velocity":47,"Duration":148491,"SoundDuration":148491,"Delta":233840886},{"NoteNumber":64,"Velocity":43,"Duration":125227,"SoundDuration":125227,"Delta":233902387},{"NoteNumber":70,"Velocity":57,"Duration":773500,"SoundDuration":773500,"Delta":234030801},{"NoteNumber":58,"Velocity":47,"Duration":153299,"SoundDuration":153299,"Delta":234030801},{"NoteNumber":64,"Velocity":36,"Duration":129032,"SoundDuration":129032,"Delta":234155068},{"NoteNumber":55,"Velocity":47,"Duration":154838,"SoundDuration":154838,"Delta":234180874},{"NoteNumber":67,"Velocity":42,"Duration":129858,"SoundDuration":129858,"Delta":234284100},{"NoteNumber":52,"Velocity":45,"Duration":156656,"SoundDuration":156656,"Delta":234335713},{"NoteNumber":58,"Velocity":36,"Duration":130684,"SoundDuration":130684,"Delta":234413958},{"NoteNumber":49,"Velocity":45,"Duration":164624,"SoundDuration":164624,"Delta":234492369},{"NoteNumber":67,"Velocity":38,"Duration":143100,"SoundDuration":143100,"Delta":234544643},{"NoteNumber":42,"Velocity":45,"Duration":179560,"SoundDuration":179560,"Delta":234656994},{"NoteNumber":64,"Velocity":36,"Duration":148810,"SoundDuration":148810,"Delta":234687744},{"NoteNumber":70,"Velocity":64,"Duration":1445178,"SoundDuration":1445178,"Delta":234836554},{"NoteNumber":35,"Velocity":40,"Duration":246099,"SoundDuration":246099,"Delta":234836554},{"NoteNumber":66,"Velocity":36,"Duration":124192,"SoundDuration":124192,"Delta":234958461},{"NoteNumber":62,"Velocity":35,"Duration":124192,"SoundDuration":124192,"Delta":235082654},{"NoteNumber":42,"Velocity":40,"Duration":247638,"SoundDuration":247638,"Delta":235082654},{"NoteNumber":56,"Velocity":33,"Duration":123445,"SoundDuration":123445,"Delta":235206847},{"NoteNumber":54,"Velocity":33,"Duration":122311,"SoundDuration":122311,"Delta":235330292},{"NoteNumber":50,"Velocity":38,"Duration":243535,"SoundDuration":243535,"Delta":235330292},{"NoteNumber":56,"Velocity":33,"Duration":121223,"SoundDuration":121223,"Delta":235452604},{"NoteNumber":62,"Velocity":33,"Duration":120162,"SoundDuration":120162,"Delta":235573828},{"NoteNumber":54,"Velocity":38,"Duration":239287,"SoundDuration":239287,"Delta":235573828},{"NoteNumber":66,"Velocity":33,"Duration":119125,"SoundDuration":119125,"Delta":235693990},{"NoteNumber":62,"Velocity":38,"Duration":235154,"SoundDuration":235154,"Delta":235813115},{"NoteNumber":66,"Velocity":33,"Duration":117067,"SoundDuration":117067,"Delta":235931203},{"NoteNumber":62,"Velocity":33,"Duration":116731,"SoundDuration":116731,"Delta":236048270},{"NoteNumber":54,"Velocity":36,"Duration":233463,"SoundDuration":233463,"Delta":236048270},{"NoteNumber":56,"Velocity":33,"Duration":116731,"SoundDuration":116731,"Delta":236165002},{"NoteNumber":68,"Velocity":59,"Duration":447894,"SoundDuration":447894,"Delta":236281733},{"NoteNumber":50,"Velocity":38,"Duration":223947,"SoundDuration":223947,"Delta":236281733},{"NoteNumber":66,"Velocity":33,"Duration":111973,"SoundDuration":111973,"Delta":236393707},{"NoteNumber":62,"Velocity":33,"Duration":111973,"SoundDuration":111973,"Delta":236505681},{"NoteNumber":42,"Velocity":38,"Duration":223947,"SoundDuration":223947,"Delta":236505681},{"NoteNumber":54,"Velocity":33,"Duration":111973,"SoundDuration":111973,"Delta":236617654},{"NoteNumber":73,"Velocity":64,"Duration":925926,"SoundDuration":925926,"Delta":236729628},{"NoteNumber":35,"Velocity":36,"Duration":231481,"SoundDuration":231481,"Delta":236729628},{"NoteNumber":68,"Velocity":36,"Duration":115740,"SoundDuration":115740,"Delta":236845369},{"NoteNumber":66,"Velocity":36,"Duration":115740,"SoundDuration":115740,"Delta":236961110},{"NoteNumber":42,"Velocity":36,"Duration":231481,"SoundDuration":231481,"Delta":236961110},{"NoteNumber":62,"Velocity":36,"Duration":115740,"SoundDuration":115740,"Delta":237076850},{"NoteNumber":61,"Velocity":36,"Duration":115740,"SoundDuration":115740,"Delta":237192591},{"NoteNumber":50,"Velocity":35,"Duration":231481,"SoundDuration":231481,"Delta":237192591},{"NoteNumber":62,"Velocity":36,"Duration":115740,"SoundDuration":115740,"Delta":237308332},{"NoteNumber":66,"Velocity":36,"Duration":115740,"SoundDuration":115740,"Delta":237424073},{"NoteNumber":54,"Velocity":35,"Duration":231481,"SoundDuration":231481,"Delta":237424073},{"NoteNumber":68,"Velocity":36,"Duration":115740,"SoundDuration":115740,"Delta":237539813},{"NoteNumber":71,"Velocity":63,"Duration":966961,"SoundDuration":966961,"Delta":237655554},{"NoteNumber":62,"Velocity":33,"Duration":241740,"SoundDuration":241740,"Delta":237655554},{"NoteNumber":68,"Velocity":33,"Duration":120870,"SoundDuration":120870,"Delta":237776424},{"NoteNumber":66,"Velocity":33,"Duration":120870,"SoundDuration":120870,"Delta":237897295},{"NoteNumber":54,"Velocity":33,"Duration":241740,"SoundDuration":241740,"Delta":237897295},{"NoteNumber":62,"Velocity":33,"Duration":120870,"SoundDuration":120870,"Delta":238018165},{"NoteNumber":59,"Velocity":33,"Duration":120870,"SoundDuration":120870,"Delta":238139035},{"NoteNumber":50,"Velocity":33,"Duration":241740,"SoundDuration":241740,"Delta":238139035},{"NoteNumber":62,"Velocity":31,"Duration":120870,"SoundDuration":120870,"Delta":238259905},{"NoteNumber":66,"Velocity":33,"Duration":120870,"SoundDuration":120870,"Delta":238380776},{"NoteNumber":42,"Velocity":31,"Duration":241740,"SoundDuration":241740,"Delta":238380776},{"NoteNumber":68,"Velocity":35,"Duration":120870,"SoundDuration":120870,"Delta":238501646},{"NoteNumber":82,"Velocity":71,"Duration":1463187,"SoundDuration":1463187,"Delta":238622516},{"NoteNumber":35,"Velocity":33,"Duration":3592186,"SoundDuration":3592186,"Delta":238622516},{"NoteNumber":47,"Velocity":33,"Duration":3592186,"SoundDuration":3592186,"Delta":238622516},{"NoteNumber":78,"Velocity":33,"Duration":131348,"SoundDuration":131348,"Delta":238753865},{"NoteNumber":74,"Velocity":33,"Duration":131348,"SoundDuration":131348,"Delta":238885213},{"NoteNumber":54,"Velocity":30,"Duration":262697,"SoundDuration":262697,"Delta":238885213},{"NoteNumber":68,"Velocity":33,"Duration":131348,"SoundDuration":131348,"Delta":239016562},{"NoteNumber":66,"Velocity":30,"Duration":117224,"SoundDuration":117224,"Delta":239147910},{"NoteNumber":58,"Velocity":54,"Duration":937792,"SoundDuration":937792,"Delta":239147910},{"NoteNumber":68,"Velocity":30,"Duration":117224,"SoundDuration":117224,"Delta":239265134},{"NoteNumber":74,"Velocity":33,"Duration":117224,"SoundDuration":117224,"Delta":239382358},{"NoteNumber":70,"Velocity":30,"Duration":234448,"SoundDuration":234448,"Delta":239382358},{"NoteNumber":78,"Velocity":33,"Duration":117224,"SoundDuration":117224,"Delta":239499582},{"NoteNumber":74,"Velocity":33,"Duration":234448,"SoundDuration":234448,"Delta":239616807},{"NoteNumber":78,"Velocity":33,"Duration":117224,"SoundDuration":117224,"Delta":239734031},{"NoteNumber":74,"Velocity":33,"Duration":117224,"SoundDuration":117224,"Delta":239851255},{"NoteNumber":66,"Velocity":31,"Duration":234448,"SoundDuration":234448,"Delta":239851255},{"NoteNumber":68,"Velocity":33,"Duration":117224,"SoundDuration":117224,"Delta":239968479},{"NoteNumber":80,"Velocity":65,"Duration":483714,"SoundDuration":483714,"Delta":240085703},{"NoteNumber":56,"Velocity":45,"Duration":483714,"SoundDuration":483714,"Delta":240085703},{"NoteNumber":78,"Velocity":33,"Duration":120928,"SoundDuration":120928,"Delta":240206632},{"NoteNumber":74,"Velocity":33,"Duration":120928,"SoundDuration":120928,"Delta":240327561},{"NoteNumber":68,"Velocity":33,"Duration":241857,"SoundDuration":241857,"Delta":240327561},{"NoteNumber":66,"Velocity":35,"Duration":120928,"SoundDuration":120928,"Delta":240448489},{"NoteNumber":85,"Velocity":67,"Duration":918011,"SoundDuration":918011,"Delta":240569418},{"NoteNumber":61,"Velocity":45,"Duration":918011,"SoundDuration":918011,"Delta":240569418},{"NoteNumber":80,"Velocity":33,"Duration":115740,"SoundDuration":115740,"Delta":240685159},{"NoteNumber":78,"Velocity":33,"Duration":115740,"SoundDuration":115740,"Delta":240800900},{"NoteNumber":73,"Velocity":30,"Duration":231481,"SoundDuration":231481,"Delta":240800900},{"NoteNumber":74,"Velocity":33,"Duration":115740,"SoundDuration":115740,"Delta":240916640},{"NoteNumber":73,"Velocity":33,"Duration":115740,"SoundDuration":115740,"Delta":241032381},{"NoteNumber":66,"Velocity":35,"Duration":231481,"SoundDuration":231481,"Delta":241032381},{"NoteNumber":74,"Velocity":33,"Duration":115740,"SoundDuration":115740,"Delta":241148122},{"NoteNumber":78,"Velocity":33,"Duration":113837,"SoundDuration":113837,"Delta":241263863},{"NoteNumber":68,"Velocity":31,"Duration":223566,"SoundDuration":223566,"Delta":241263863},{"NoteNumber":80,"Velocity":33,"Duration":109729,"SoundDuration":109729,"Delta":241377700},{"NoteNumber":83,"Velocity":66,"Duration":727272,"SoundDuration":727272,"Delta":241487429},{"NoteNumber":59,"Velocity":36,"Duration":727272,"SoundDuration":727272,"Delta":241487429},{"NoteNumber":80,"Velocity":33,"Duration":90909,"SoundDuration":90909,"Delta":241578338},{"NoteNumber":78,"Velocity":33,"Duration":90909,"SoundDuration":90909,"Delta":241669247},{"NoteNumber":71,"Velocity":30,"Duration":181818,"SoundDuration":181818,"Delta":241669247},{"NoteNumber":74,"Velocity":33,"Duration":90909,"SoundDuration":90909,"Delta":241760156},{"NoteNumber":71,"Velocity":30,"Duration":90909,"SoundDuration":90909,"Delta":241851066},{"NoteNumber":66,"Velocity":28,"Duration":181818,"SoundDuration":181818,"Delta":241851066},{"NoteNumber":74,"Velocity":33,"Duration":90909,"SoundDuration":90909,"Delta":241941975},{"NoteNumber":78,"Velocity":33,"Duration":90909,"SoundDuration":90909,"Delta":242032884},{"NoteNumber":68,"Velocity":27,"Duration":181818,"SoundDuration":181818,"Delta":242032884},{"NoteNumber":80,"Velocity":33,"Duration":90909,"SoundDuration":90909,"Delta":242123793},{"NoteNumber":66,"Velocity":35,"Duration":43552,"SoundDuration":43552,"Delta":242214702},{"NoteNumber":32,"Velocity":36,"Duration":86770,"SoundDuration":86770,"Delta":242214702},{"NoteNumber":74,"Velocity":35,"Duration":57376,"SoundDuration":57376,"Delta":242272702},{"NoteNumber":44,"Velocity":38,"Duration":85331,"SoundDuration":85331,"Delta":242301472},{"NoteNumber":78,"Velocity":36,"Duration":56725,"SoundDuration":56725,"Delta":242330078},{"NoteNumber":78,"Velocity":36,"Duration":56246,"SoundDuration":56246,"Delta":242386804},{"NoteNumber":54,"Velocity":38,"Duration":84134,"SoundDuration":84134,"Delta":242386804},{"NoteNumber":86,"Velocity":35,"Duration":242857,"SoundDuration":242857,"Delta":242443050},{"NoteNumber":62,"Velocity":38,"Duration":92090,"SoundDuration":92090,"Delta":242470938},{"NoteNumber":90,"Velocity":36,"Duration":187236,"SoundDuration":187236,"Delta":242498671},{"NoteNumber":70,"Velocity":38,"Duration":1509433,"SoundDuration":1509433,"Delta":242563028},{"NoteNumber":82,"Velocity":43,"Duration":1449909,"SoundDuration":1449909,"Delta":242622552},{"NoteNumber":92,"Velocity":33,"Duration":94537,"SoundDuration":94537,"Delta":242685907},{"NoteNumber":94,"Velocity":47,"Duration":1386554,"SoundDuration":1386554,"Delta":242685907},{"NoteNumber":86,"Velocity":33,"Duration":94537,"SoundDuration":94537,"Delta":242811958},{"NoteNumber":90,"Velocity":33,"Duration":94537,"SoundDuration":94537,"Delta":242811958},{"NoteNumber":78,"Velocity":33,"Duration":94537,"SoundDuration":94537,"Delta":242938008},{"NoteNumber":80,"Velocity":33,"Duration":94537,"SoundDuration":94537,"Delta":243064059},{"NoteNumber":74,"Velocity":31,"Duration":94537,"SoundDuration":94537,"Delta":243190109},{"NoteNumber":78,"Velocity":31,"Duration":94537,"SoundDuration":94537,"Delta":243190109},{"NoteNumber":78,"Velocity":31,"Duration":94537,"SoundDuration":94537,"Delta":243316159},{"NoteNumber":92,"Velocity":35,"Duration":94537,"SoundDuration":94537,"Delta":243442210},{"NoteNumber":86,"Velocity":36,"Duration":94537,"SoundDuration":94537,"Delta":243568260},{"NoteNumber":90,"Velocity":36,"Duration":94537,"SoundDuration":94537,"Delta":243568260},{"NoteNumber":92,"Velocity":33,"Duration":94537,"SoundDuration":94537,"Delta":243694310},{"NoteNumber":86,"Velocity":33,"Duration":94537,"SoundDuration":94537,"Delta":243820361},{"NoteNumber":90,"Velocity":33,"Duration":94537,"SoundDuration":94537,"Delta":243820361},{"NoteNumber":78,"Velocity":31,"Duration":94537,"SoundDuration":94537,"Delta":243946411},{"NoteNumber":80,"Velocity":31,"Duration":91687,"SoundDuration":91687,"Delta":244072462},{"NoteNumber":68,"Velocity":38,"Duration":488997,"SoundDuration":488997,"Delta":244072462},{"NoteNumber":74,"Velocity":28,"Duration":91687,"SoundDuration":91687,"Delta":244194711},{"NoteNumber":78,"Velocity":28,"Duration":91687,"SoundDuration":91687,"Delta":244194711},{"NoteNumber":78,"Velocity":28,"Duration":91687,"SoundDuration":91687,"Delta":244316960},{"NoteNumber":92,"Velocity":43,"Duration":244498,"SoundDuration":244498,"Delta":244316960},{"NoteNumber":92,"Velocity":33,"Duration":91687,"SoundDuration":91687,"Delta":244439210},{"NoteNumber":86,"Velocity":35,"Duration":95907,"SoundDuration":95907,"Delta":244561459},{"NoteNumber":90,"Velocity":35,"Duration":95907,"SoundDuration":95907,"Delta":244561459},{"NoteNumber":73,"Velocity":38,"Duration":1023018,"SoundDuration":1023018,"Delta":244561459},{"NoteNumber":92,"Velocity":33,"Duration":95907,"SoundDuration":95907,"Delta":244689336},{"NoteNumber":85,"Velocity":43,"Duration":895140,"SoundDuration":895140,"Delta":244689336},{"NoteNumber":90,"Velocity":33,"Duration":95907,"SoundDuration":95907,"Delta":244817214},{"NoteNumber":86,"Velocity":33,"Duration":95907,"SoundDuration":95907,"Delta":244817214},{"NoteNumber":97,"Velocity":47,"Duration":767263,"SoundDuration":767263,"Delta":244817214},{"NoteNumber":78,"Velocity":28,"Duration":95907,"SoundDuration":95907,"Delta":244945091},{"NoteNumber":80,"Velocity":28,"Duration":95907,"SoundDuration":95907,"Delta":245072968},{"NoteNumber":78,"Velocity":23,"Duration":95907,"SoundDuration":95907,"Delta":245200845},{"NoteNumber":74,"Velocity":23,"Duration":95907,"SoundDuration":95907,"Delta":245200845},{"NoteNumber":78,"Velocity":23,"Duration":95907,"SoundDuration":95907,"Delta":245328723},{"NoteNumber":92,"Velocity":31,"Duration":95907,"SoundDuration":95907,"Delta":245456600},{"NoteNumber":86,"Velocity":33,"Duration":100518,"SoundDuration":100518,"Delta":245584477},{"NoteNumber":90,"Velocity":33,"Duration":100518,"SoundDuration":100518,"Delta":245584477},{"NoteNumber":71,"Velocity":33,"Duration":1072193,"SoundDuration":1072193,"Delta":245584477},{"NoteNumber":92,"Velocity":28,"Duration":100518,"SoundDuration":100518,"Delta":245718501},{"NoteNumber":83,"Velocity":40,"Duration":938169,"SoundDuration":938169,"Delta":245718501},{"NoteNumber":86,"Velocity":28,"Duration":100518,"SoundDuration":100518,"Delta":245852526},{"NoteNumber":90,"Velocity":28,"Duration":100518,"SoundDuration":100518,"Delta":245852526},{"NoteNumber":95,"Velocity":45,"Duration":804145,"SoundDuration":804145,"Delta":245852526},{"NoteNumber":78,"Velocity":23,"Duration":100518,"SoundDuration":100518,"Delta":245986550},{"NoteNumber":80,"Velocity":23,"Duration":100518,"SoundDuration":100518,"Delta":246120574},{"NoteNumber":74,"Velocity":23,"Duration":100518,"SoundDuration":100518,"Delta":246254598},{"NoteNumber":78,"Velocity":23,"Duration":100518,"SoundDuration":100518,"Delta":246254598},{"NoteNumber":78,"Velocity":23,"Duration":100518,"SoundDuration":100518,"Delta":246388623},{"NoteNumber":92,"Velocity":30,"Duration":100518,"SoundDuration":100518,"Delta":246522647},{"NoteNumber":87,"Velocity":30,"Duration":96533,"SoundDuration":96533,"Delta":246656671},{"NoteNumber":90,"Velocity":30,"Duration":96533,"SoundDuration":96533,"Delta":246656671},{"NoteNumber":68,"Velocity":31,"Duration":2089666,"SoundDuration":2089666,"Delta":246656671},{"NoteNumber":92,"Velocity":28,"Duration":96533,"SoundDuration":96533,"Delta":246785382},{"NoteNumber":80,"Velocity":37,"Duration":1960955,"SoundDuration":1960955,"Delta":246785382},{"NoteNumber":87,"Velocity":28,"Duration":96533,"SoundDuration":96533,"Delta":246914093},{"NoteNumber":90,"Velocity":28,"Duration":96533,"SoundDuration":96533,"Delta":246914093},{"NoteNumber":92,"Velocity":43,"Duration":1287111,"SoundDuration":1287111,"Delta":246914093},{"NoteNumber":78,"Velocity":23,"Duration":96533,"SoundDuration":96533,"Delta":247042804},{"NoteNumber":80,"Velocity":23,"Duration":96533,"SoundDuration":96533,"Delta":247171516},{"NoteNumber":75,"Velocity":23,"Duration":96533,"SoundDuration":96533,"Delta":247300227},{"NoteNumber":78,"Velocity":23,"Duration":96533,"SoundDuration":96533,"Delta":247300227},{"NoteNumber":78,"Velocity":23,"Duration":96533,"SoundDuration":96533,"Delta":247428938},{"NoteNumber":92,"Velocity":26,"Duration":96533,"SoundDuration":96533,"Delta":247557649},{"NoteNumber":87,"Velocity":25,"Duration":96533,"SoundDuration":96533,"Delta":247686360},{"NoteNumber":90,"Velocity":25,"Duration":96533,"SoundDuration":96533,"Delta":247686360},{"NoteNumber":92,"Velocity":23,"Duration":96533,"SoundDuration":96533,"Delta":247815071},{"NoteNumber":87,"Velocity":23,"Duration":96533,"SoundDuration":96533,"Delta":247943782},{"NoteNumber":90,"Velocity":23,"Duration":96533,"SoundDuration":96533,"Delta":247943782},{"NoteNumber":78,"Velocity":23,"Duration":96533,"SoundDuration":96533,"Delta":248072493},{"NoteNumber":80,"Velocity":23,"Duration":96533,"SoundDuration":96533,"Delta":248201205},{"NoteNumber":75,"Velocity":22,"Duration":96533,"SoundDuration":96533,"Delta":248329916},{"NoteNumber":78,"Velocity":22,"Duration":96533,"SoundDuration":96533,"Delta":248329916},{"NoteNumber":78,"Velocity":22,"Duration":96533,"SoundDuration":96533,"Delta":248458627},{"NoteNumber":92,"Velocity":23,"Duration":119249,"SoundDuration":119249,"Delta":248587338},{"NoteNumber":87,"Velocity":23,"Duration":107142,"SoundDuration":107142,"Delta":248746337},{"NoteNumber":90,"Velocity":23,"Duration":107142,"SoundDuration":107142,"Delta":248746337},{"NoteNumber":66,"Velocity":33,"Duration":1143314,"SoundDuration":1143314,"Delta":248746337},{"NoteNumber":92,"Velocity":23,"Duration":107142,"SoundDuration":107142,"Delta":248889194},{"NoteNumber":78,"Velocity":38,"Duration":1000457,"SoundDuration":1000457,"Delta":248889194},{"NoteNumber":87,"Velocity":23,"Duration":107142,"SoundDuration":107142,"Delta":249032052},{"NoteNumber":90,"Velocity":23,"Duration":107142,"SoundDuration":107142,"Delta":249032052},{"NoteNumber":78,"Velocity":23,"Duration":107142,"SoundDuration":107142,"Delta":249174909},{"NoteNumber":80,"Velocity":23,"Duration":107142,"SoundDuration":107142,"Delta":249317766},{"NoteNumber":75,"Velocity":22,"Duration":107142,"SoundDuration":107142,"Delta":249460623},{"NoteNumber":78,"Velocity":22,"Duration":107142,"SoundDuration":107142,"Delta":249460623},{"NoteNumber":78,"Velocity":22,"Duration":107142,"SoundDuration":107142,"Delta":249603480},{"NoteNumber":92,"Velocity":25,"Duration":107257,"SoundDuration":107257,"Delta":249746337},{"NoteNumber":87,"Velocity":23,"Duration":110063,"SoundDuration":110063,"Delta":249889652},{"NoteNumber":90,"Velocity":23,"Duration":110063,"SoundDuration":110063,"Delta":249889652},{"NoteNumber":68,"Velocity":28,"Duration":1546549,"SoundDuration":1546549,"Delta":249889652},{"NoteNumber":92,"Velocity":23,"Duration":114546,"SoundDuration":114546,"Delta":250037215},{"NoteNumber":80,"Velocity":33,"Duration":1398986,"SoundDuration":1398986,"Delta":250037215},{"NoteNumber":87,"Velocity":23,"Duration":119410,"SoundDuration":119410,"Delta":250190824},{"NoteNumber":90,"Velocity":23,"Duration":119410,"SoundDuration":119410,"Delta":250190824},{"NoteNumber":78,"Velocity":22,"Duration":124705,"SoundDuration":124705,"Delta":250350995},{"NoteNumber":80,"Velocity":22,"Duration":130491,"SoundDuration":130491,"Delta":250518314},{"NoteNumber":75,"Velocity":20,"Duration":136841,"SoundDuration":136841,"Delta":250693449},{"NoteNumber":78,"Velocity":20,"Duration":136841,"SoundDuration":136841,"Delta":250693449},{"NoteNumber":78,"Velocity":18,"Duration":143841,"SoundDuration":143841,"Delta":250877165},{"NoteNumber":92,"Velocity":23,"Duration":274390,"SoundDuration":274390,"Delta":251070348},{"NoteNumber":57,"Velocity":42,"Duration":123989,"SoundDuration":123989,"Delta":251436202},{"NoteNumber":60,"Velocity":42,"Duration":117206,"SoundDuration":117206,"Delta":251560191},{"NoteNumber":64,"Velocity":42,"Duration":111127,"SoundDuration":111127,"Delta":251677398},{"NoteNumber":69,"Velocity":42,"Duration":105356,"SoundDuration":105356,"Delta":251788525},{"NoteNumber":76,"Velocity":36,"Duration":101781,"SoundDuration":101781,"Delta":251893882},{"NoteNumber":81,"Velocity":36,"Duration":1168024,"SoundDuration":1168024,"Delta":251995664},{"NoteNumber":84,"Velocity":36,"Duration":1065565,"SoundDuration":1065565,"Delta":252098122},{"NoteNumber":88,"Velocity":36,"Duration":957051,"SoundDuration":957051,"Delta":252206637},{"NoteNumber":93,"Velocity":42,"Duration":840101,"SoundDuration":840101,"Delta":252323587},{"NoteNumber":24,"Velocity":34,"Duration":105012,"SoundDuration":105012,"Delta":252323587},{"NoteNumber":26,"Velocity":34,"Duration":105012,"SoundDuration":105012,"Delta":252428599},{"NoteNumber":28,"Velocity":34,"Duration":105012,"SoundDuration":105012,"Delta":252533612},{"NoteNumber":29,"Velocity":34,"Duration":105012,"SoundDuration":105012,"Delta":252638625},{"NoteNumber":31,"Velocity":34,"Duration":105012,"SoundDuration":105012,"Delta":252743637},{"NoteNumber":33,"Velocity":34,"Duration":105012,"SoundDuration":105012,"Delta":252848650},{"NoteNumber":35,"Velocity":36,"Duration":105012,"SoundDuration":105012,"Delta":252953662},{"NoteNumber":36,"Velocity":36,"Duration":105012,"SoundDuration":105012,"Delta":253058675},{"NoteNumber":91,"Velocity":38,"Duration":801924,"SoundDuration":801924,"Delta":253163688},{"NoteNumber":88,"Velocity":38,"Duration":801924,"SoundDuration":801924,"Delta":253163688},{"NoteNumber":84,"Velocity":38,"Duration":801924,"SoundDuration":801924,"Delta":253163688},{"NoteNumber":79,"Velocity":38,"Duration":801924,"SoundDuration":801924,"Delta":253163688},{"NoteNumber":38,"Velocity":34,"Duration":88545,"SoundDuration":88545,"Delta":253163688},{"NoteNumber":40,"Velocity":34,"Duration":88545,"SoundDuration":88545,"Delta":253252234},{"NoteNumber":41,"Velocity":34,"Duration":88545,"SoundDuration":88545,"Delta":253340780},{"NoteNumber":43,"Velocity":34,"Duration":88545,"SoundDuration":88545,"Delta":253429325},{"NoteNumber":45,"Velocity":34,"Duration":88545,"SoundDuration":88545,"Delta":253517871},{"NoteNumber":47,"Velocity":34,"Duration":88545,"SoundDuration":88545,"Delta":253606417},{"NoteNumber":48,"Velocity":32,"Duration":88545,"SoundDuration":88545,"Delta":253694963},{"NoteNumber":50,"Velocity":32,"Duration":88545,"SoundDuration":88545,"Delta":253783509},{"NoteNumber":52,"Velocity":34,"Duration":88545,"SoundDuration":88545,"Delta":253872055},{"NoteNumber":83,"Velocity":36,"Duration":878122,"SoundDuration":878122,"Delta":253965613},{"NoteNumber":79,"Velocity":36,"Duration":878122,"SoundDuration":878122,"Delta":253965613},{"NoteNumber":76,"Velocity":36,"Duration":878122,"SoundDuration":878122,"Delta":253965613},{"NoteNumber":71,"Velocity":36,"Duration":878122,"SoundDuration":878122,"Delta":253965613},{"NoteNumber":53,"Velocity":36,"Duration":107944,"SoundDuration":107944,"Delta":253965613},{"NoteNumber":55,"Velocity":36,"Duration":107944,"SoundDuration":107944,"Delta":254073557},{"NoteNumber":57,"Velocity":34,"Duration":107944,"SoundDuration":107944,"Delta":254181502},{"NoteNumber":59,"Velocity":32,"Duration":107944,"SoundDuration":107944,"Delta":254289447},{"NoteNumber":60,"Velocity":32,"Duration":107944,"SoundDuration":107944,"Delta":254397392},{"NoteNumber":62,"Velocity":31,"Duration":107944,"SoundDuration":107944,"Delta":254505336},{"NoteNumber":64,"Velocity":31,"Duration":107944,"SoundDuration":107944,"Delta":254613281},{"NoteNumber":65,"Velocity":31,"Duration":122508,"SoundDuration":122508,"Delta":254721226},{"NoteNumber":69,"Velocity":33,"Duration":3922937,"SoundDuration":3922937,"Delta":254843735},{"NoteNumber":72,"Velocity":33,"Duration":3922937,"SoundDuration":3922937,"Delta":254843735},{"NoteNumber":76,"Velocity":33,"Duration":3922937,"SoundDuration":3922937,"Delta":254843735},{"NoteNumber":81,"Velocity":33,"Duration":3922937,"SoundDuration":3922937,"Delta":254843735},{"NoteNumber":67,"Velocity":31,"Duration":93091,"SoundDuration":93091,"Delta":254843735},{"NoteNumber":69,"Velocity":31,"Duration":93091,"SoundDuration":93091,"Delta":254936826},{"NoteNumber":71,"Velocity":31,"Duration":93075,"SoundDuration":93075,"Delta":255029918},{"NoteNumber":72,"Velocity":32,"Duration":92345,"SoundDuration":92345,"Delta":255122993},{"NoteNumber":74,"Velocity":32,"Duration":92345,"SoundDuration":92345,"Delta":255215339},{"NoteNumber":76,"Velocity":34,"Duration":92313,"SoundDuration":92313,"Delta":255307684},{"NoteNumber":77,"Velocity":34,"Duration":91610,"SoundDuration":91610,"Delta":255399998},{"NoteNumber":79,"Velocity":37,"Duration":91610,"SoundDuration":91610,"Delta":255491609},{"NoteNumber":81,"Velocity":37,"Duration":91851,"SoundDuration":91851,"Delta":255583219},{"NoteNumber":83,"Velocity":37,"Duration":95388,"SoundDuration":95388,"Delta":255675071},{"NoteNumber":72,"Velocity":34,"Duration":95636,"SoundDuration":95636,"Delta":255770460},{"NoteNumber":74,"Velocity":31,"Duration":94141,"SoundDuration":94141,"Delta":255866096},{"NoteNumber":76,"Velocity":32,"Duration":92452,"SoundDuration":92452,"Delta":255960238},{"NoteNumber":77,"Velocity":32,"Duration":92948,"SoundDuration":92948,"Delta":256052690},{"NoteNumber":79,"Velocity":34,"Duration":94221,"SoundDuration":94221,"Delta":256145639},{"NoteNumber":81,"Velocity":37,"Duration":94910,"SoundDuration":94910,"Delta":256239860},{"NoteNumber":83,"Velocity":32,"Duration":96827,"SoundDuration":96827,"Delta":256334771},{"NoteNumber":84,"Velocity":32,"Duration":99404,"SoundDuration":99404,"Delta":256431598},{"NoteNumber":86,"Velocity":34,"Duration":102159,"SoundDuration":102159,"Delta":256531002},{"NoteNumber":88,"Velocity":37,"Duration":105038,"SoundDuration":105038,"Delta":256633162},{"NoteNumber":89,"Velocity":40,"Duration":107954,"SoundDuration":107954,"Delta":256738200},{"NoteNumber":91,"Velocity":44,"Duration":107782,"SoundDuration":107782,"Delta":256846155},{"NoteNumber":93,"Velocity":40,"Duration":105536,"SoundDuration":105536,"Delta":256953937},{"NoteNumber":93,"Velocity":37,"Duration":103286,"SoundDuration":103286,"Delta":257059474},{"NoteNumber":91,"Velocity":34,"Duration":101518,"SoundDuration":101518,"Delta":257162760},{"NoteNumber":88,"Velocity":32,"Duration":100085,"SoundDuration":100085,"Delta":257264278},{"NoteNumber":84,"Velocity":32,"Duration":98076,"SoundDuration":98076,"Delta":257364364},{"NoteNumber":81,"Velocity":31,"Duration":96231,"SoundDuration":96231,"Delta":257462441},{"NoteNumber":79,"Velocity":31,"Duration":95552,"SoundDuration":95552,"Delta":257558672},{"NoteNumber":76,"Velocity":31,"Duration":95091,"SoundDuration":95091,"Delta":257654224},{"NoteNumber":72,"Velocity":34,"Duration":93813,"SoundDuration":93813,"Delta":257749316},{"NoteNumber":69,"Velocity":32,"Duration":93091,"SoundDuration":93091,"Delta":257843129},{"NoteNumber":79,"Velocity":32,"Duration":92599,"SoundDuration":92599,"Delta":257936220},{"NoteNumber":76,"Velocity":34,"Duration":92345,"SoundDuration":92345,"Delta":258028820},{"NoteNumber":72,"Velocity":34,"Duration":91642,"SoundDuration":91642,"Delta":258121165},{"NoteNumber":69,"Velocity":37,"Duration":91426,"SoundDuration":91426,"Delta":258212807},{"NoteNumber":67,"Velocity":37,"Duration":90888,"SoundDuration":90888,"Delta":258304233},{"NoteNumber":64,"Velocity":40,"Duration":90494,"SoundDuration":90494,"Delta":258395121},{"NoteNumber":60,"Velocity":40,"Duration":90176,"SoundDuration":90176,"Delta":258485616},{"NoteNumber":57,"Velocity":40,"Duration":99151,"SoundDuration":99151,"Delta":258575792},{"NoteNumber":55,"Velocity":40,"Duration":91728,"SoundDuration":91728,"Delta":258674944},{"NoteNumber":67,"Velocity":38,"Duration":942631,"SoundDuration":942631,"Delta":258766673},{"NoteNumber":72,"Velocity":38,"Duration":942631,"SoundDuration":942631,"Delta":258766673},{"NoteNumber":79,"Velocity":38,"Duration":942631,"SoundDuration":942631,"Delta":258766673},{"NoteNumber":48,"Velocity":32,"Duration":74847,"SoundDuration":74847,"Delta":258766673},{"NoteNumber":55,"Velocity":34,"Duration":74054,"SoundDuration":74054,"Delta":258841520},{"NoteNumber":60,"Velocity":34,"Duration":73529,"SoundDuration":73529,"Delta":258915575},{"NoteNumber":64,"Velocity":34,"Duration":72830,"SoundDuration":72830,"Delta":258989105},{"NoteNumber":67,"Velocity":34,"Duration":72148,"SoundDuration":72148,"Delta":259061935},{"NoteNumber":69,"Velocity":34,"Duration":71529,"SoundDuration":71529,"Delta":259134084},{"NoteNumber":67,"Velocity":34,"Duration":70794,"SoundDuration":70794,"Delta":259205614},{"NoteNumber":64,"Velocity":34,"Duration":70710,"SoundDuration":70710,"Delta":259276408},{"NoteNumber":60,"Velocity":34,"Duration":71193,"SoundDuration":71193,"Delta":259347119},{"NoteNumber":55,"Velocity":34,"Duration":71867,"SoundDuration":71867,"Delta":259418313},{"NoteNumber":48,"Velocity":34,"Duration":58621,"SoundDuration":58621,"Delta":259490181},{"NoteNumber":48,"Velocity":34,"Duration":72876,"SoundDuration":72876,"Delta":259562550},{"NoteNumber":43,"Velocity":34,"Duration":73877,"SoundDuration":73877,"Delta":259635426},{"NoteNumber":69,"Velocity":35,"Duration":1039887,"SoundDuration":1039887,"Delta":259709304},{"NoteNumber":76,"Velocity":35,"Duration":1039887,"SoundDuration":1039887,"Delta":259709304},{"NoteNumber":81,"Velocity":35,"Duration":1039887,"SoundDuration":1039887,"Delta":259709304},{"NoteNumber":36,"Velocity":29,"Duration":75547,"SoundDuration":75547,"Delta":259709304},{"NoteNumber":43,"Velocity":29,"Duration":75547,"SoundDuration":75547,"Delta":259784851},{"NoteNumber":48,"Velocity":29,"Duration":75547,"SoundDuration":75547,"Delta":259860398},{"NoteNumber":52,"Velocity":29,"Duration":75547,"SoundDuration":75547,"Delta":259935945},{"NoteNumber":55,"Velocity":29,"Duration":75547,"SoundDuration":75547,"Delta":260011493},{"NoteNumber":57,"Velocity":29,"Duration":75942,"SoundDuration":75942,"Delta":260087040},{"NoteNumber":55,"Velocity":29,"Duration":77086,"SoundDuration":77086,"Delta":260162982},{"NoteNumber":52,"Velocity":29,"Duration":77663,"SoundDuration":77663,"Delta":260240069},{"NoteNumber":48,"Velocity":29,"Duration":78831,"SoundDuration":78831,"Delta":260317733},{"NoteNumber":43,"Velocity":29,"Duration":79509,"SoundDuration":79509,"Delta":260396565},{"NoteNumber":36,"Velocity":29,"Duration":88625,"SoundDuration":88625,"Delta":260476074},{"NoteNumber":43,"Velocity":29,"Duration":100836,"SoundDuration":100836,"Delta":260564699},{"NoteNumber":36,"Velocity":29,"Duration":83655,"SoundDuration":83655,"Delta":260665536},{"NoteNumber":87,"Velocity":40,"Duration":864279,"SoundDuration":864279,"Delta":260749191},{"NoteNumber":82,"Velocity":36,"Duration":864279,"SoundDuration":864279,"Delta":260749191},{"NoteNumber":75,"Velocity":36,"Duration":864279,"SoundDuration":864279,"Delta":260749191},{"NoteNumber":30,"Velocity":30,"Duration":169891,"SoundDuration":169891,"Delta":260749191},{"NoteNumber":32,"Velocity":30,"Duration":111113,"SoundDuration":111113,"Delta":260919082},{"NoteNumber":34,"Velocity":30,"Duration":109093,"SoundDuration":109093,"Delta":261057702},{"NoteNumber":37,"Velocity":30,"Duration":142607,"SoundDuration":142607,"Delta":261193774},{"NoteNumber":39,"Velocity":30,"Duration":140048,"SoundDuration":140048,"Delta":261327516},{"NoteNumber":42,"Velocity":30,"Duration":137580,"SoundDuration":137580,"Delta":261458883},{"NoteNumber":44,"Velocity":33,"Duration":135307,"SoundDuration":135307,"Delta":261587960},{"NoteNumber":85,"Velocity":40,"Duration":810811,"SoundDuration":810811,"Delta":261613470},{"NoteNumber":78,"Velocity":36,"Duration":810811,"SoundDuration":810811,"Delta":261613470},{"NoteNumber":73,"Velocity":36,"Duration":810811,"SoundDuration":810811,"Delta":261613470},{"NoteNumber":46,"Velocity":33,"Duration":135135,"SoundDuration":135135,"Delta":261714822},{"NoteNumber":49,"Velocity":30,"Duration":135135,"SoundDuration":135135,"Delta":261841511},{"NoteNumber":51,"Velocity":30,"Duration":135135,"SoundDuration":135135,"Delta":261968200},{"NoteNumber":54,"Velocity":30,"Duration":135135,"SoundDuration":135135,"Delta":262094889},{"NoteNumber":56,"Velocity":30,"Duration":135135,"SoundDuration":135135,"Delta":262221579},{"NoteNumber":58,"Velocity":30,"Duration":134738,"SoundDuration":134738,"Delta":262348268},{"NoteNumber":73,"Velocity":35,"Duration":856699,"SoundDuration":856699,"Delta":262424281},{"NoteNumber":76,"Velocity":35,"Duration":856699,"SoundDuration":856699,"Delta":262424281},{"NoteNumber":64,"Velocity":35,"Duration":856699,"SoundDuration":856699,"Delta":262424281},{"NoteNumber":61,"Velocity":33,"Duration":135712,"SoundDuration":135712,"Delta":262474617},{"NoteNumber":63,"Velocity":33,"Duration":138113,"SoundDuration":138113,"Delta":262601768},{"NoteNumber":66,"Velocity":30,"Duration":140602,"SoundDuration":140602,"Delta":262731141},{"NoteNumber":68,"Velocity":28,"Duration":142990,"SoundDuration":142990,"Delta":262862878},{"NoteNumber":70,"Velocity":28,"Duration":145592,"SoundDuration":145592,"Delta":262996875},{"NoteNumber":73,"Velocity":27,"Duration":161908,"SoundDuration":161908,"Delta":263133276},{"NoteNumber":63,"Velocity":33,"Duration":90526,"SoundDuration":90526,"Delta":263280980},{"NoteNumber":75,"Velocity":30,"Duration":650582,"SoundDuration":650582,"Delta":263280980},{"NoteNumber":66,"Velocity":33,"Duration":89263,"SoundDuration":89263,"Delta":263371506},{"NoteNumber":68,"Velocity":33,"Duration":88156,"SoundDuration":88156,"Delta":263460770},{"NoteNumber":70,"Velocity":33,"Duration":86959,"SoundDuration":86959,"Delta":263548926},{"NoteNumber":73,"Velocity":33,"Duration":85792,"SoundDuration":85792,"Delta":263635885},{"NoteNumber":75,"Velocity":33,"Duration":84770,"SoundDuration":84770,"Delta":263721678},{"NoteNumber":78,"Velocity":33,"Duration":83662,"SoundDuration":83662,"Delta":263806448},{"NoteNumber":80,"Velocity":33,"Duration":82688,"SoundDuration":82688,"Delta":263890111},{"NoteNumber":82,"Velocity":33,"Duration":81634,"SoundDuration":81634,"Delta":263972800},{"NoteNumber":85,"Velocity":33,"Duration":83058,"SoundDuration":83058,"Delta":264054434},{"NoteNumber":87,"Velocity":33,"Duration":89679,"SoundDuration":89679,"Delta":264137493},{"NoteNumber":90,"Velocity":33,"Duration":97917,"SoundDuration":97917,"Delta":264227173},{"NoteNumber":92,"Velocity":33,"Duration":107307,"SoundDuration":107307,"Delta":264325090},{"NoteNumber":94,"Velocity":33,"Duration":118694,"SoundDuration":118694,"Delta":264432398},{"NoteNumber":97,"Velocity":33,"Duration":130952,"SoundDuration":130952,"Delta":264551093},{"NoteNumber":99,"Velocity":33,"Duration":742114,"SoundDuration":742114,"Delta":264682045},{"NoteNumber":42,"Velocity":35,"Duration":259740,"SoundDuration":259740,"Delta":264682045},{"NoteNumber":49,"Velocity":31,"Duration":246913,"SoundDuration":246913,"Delta":264941785},{"NoteNumber":58,"Velocity":27,"Duration":235460,"SoundDuration":235460,"Delta":265188699},{"NoteNumber":63,"Velocity":28,"Duration":116333,"SoundDuration":116333,"Delta":265424159},{"NoteNumber":58,"Velocity":33,"Duration":174499,"SoundDuration":174499,"Delta":265424159},{"NoteNumber":65,"Velocity":28,"Duration":116333,"SoundDuration":116333,"Delta":265540492},{"NoteNumber":61,"Velocity":33,"Duration":175786,"SoundDuration":175786,"Delta":265598659},{"NoteNumber":70,"Velocity":28,"Duration":117619,"SoundDuration":117619,"Delta":265656825},{"NoteNumber":75,"Velocity":38,"Duration":110423,"SoundDuration":110423,"Delta":265774445},{"NoteNumber":65,"Velocity":33,"Duration":165635,"SoundDuration":165635,"Delta":265774445},{"NoteNumber":70,"Velocity":33,"Duration":110424,"SoundDuration":110424,"Delta":265884869},{"NoteNumber":63,"Velocity":33,"Duration":165636,"SoundDuration":165636,"Delta":265940081},{"NoteNumber":66,"Velocity":33,"Duration":110424,"SoundDuration":110424,"Delta":265995293},{"NoteNumber":63,"Velocity":28,"Duration":106044,"SoundDuration":106044,"Delta":266105717},{"NoteNumber":58,"Velocity":33,"Duration":159066,"SoundDuration":159066,"Delta":266105717},{"NoteNumber":65,"Velocity":28,"Duration":106044,"SoundDuration":106044,"Delta":266211761},{"NoteNumber":61,"Velocity":33,"Duration":162503,"SoundDuration":162503,"Delta":266264784},{"NoteNumber":70,"Velocity":28,"Duration":109481,"SoundDuration":109481,"Delta":266317806},{"NoteNumber":75,"Velocity":38,"Duration":101812,"SoundDuration":101812,"Delta":266427287},{"NoteNumber":65,"Velocity":33,"Duration":152718,"SoundDuration":152718,"Delta":266427287},{"NoteNumber":70,"Velocity":33,"Duration":101812,"SoundDuration":101812,"Delta":266529099},{"NoteNumber":63,"Velocity":33,"Duration":152718,"SoundDuration":152718,"Delta":266580005},{"NoteNumber":66,"Velocity":33,"Duration":101812,"SoundDuration":101812,"Delta":266630911},{"NoteNumber":63,"Velocity":30,"Duration":103906,"SoundDuration":103906,"Delta":266732724},{"NoteNumber":58,"Velocity":33,"Duration":155860,"SoundDuration":155860,"Delta":266732724},{"NoteNumber":65,"Velocity":28,"Duration":103906,"SoundDuration":103906,"Delta":266836631},{"NoteNumber":61,"Velocity":33,"Duration":157997,"SoundDuration":157997,"Delta":266888584},{"NoteNumber":70,"Velocity":28,"Duration":106044,"SoundDuration":106044,"Delta":266940538},{"NoteNumber":75,"Velocity":38,"Duration":100806,"SoundDuration":100806,"Delta":267046582},{"NoteNumber":65,"Velocity":36,"Duration":151209,"SoundDuration":151209,"Delta":267046582},{"NoteNumber":70,"Velocity":33,"Duration":100806,"SoundDuration":100806,"Delta":267147388},{"NoteNumber":63,"Velocity":33,"Duration":151209,"SoundDuration":151209,"Delta":267197792},{"NoteNumber":66,"Velocity":33,"Duration":100806,"SoundDuration":100806,"Delta":267248195},{"NoteNumber":63,"Velocity":28,"Duration":100563,"SoundDuration":100563,"Delta":267349001},{"NoteNumber":58,"Velocity":33,"Duration":150844,"SoundDuration":150844,"Delta":267349001},{"NoteNumber":65,"Velocity":28,"Duration":100563,"SoundDuration":100563,"Delta":267449564},{"NoteNumber":61,"Velocity":33,"Duration":150844,"SoundDuration":150844,"Delta":267499846},{"NoteNumber":70,"Velocity":28,"Duration":100563,"SoundDuration":100563,"Delta":267550128},{"NoteNumber":75,"Velocity":36,"Duration":96805,"SoundDuration":96805,"Delta":267650691},{"NoteNumber":65,"Velocity":33,"Duration":145208,"SoundDuration":145208,"Delta":267650691},{"NoteNumber":70,"Velocity":30,"Duration":96805,"SoundDuration":96805,"Delta":267747496},{"NoteNumber":63,"Velocity":33,"Duration":145208,"SoundDuration":145208,"Delta":267795899},{"NoteNumber":66,"Velocity":30,"Duration":96805,"SoundDuration":96805,"Delta":267844302},{"NoteNumber":63,"Velocity":28,"Duration":99601,"SoundDuration":99601,"Delta":267941107},{"NoteNumber":58,"Velocity":33,"Duration":149402,"SoundDuration":149402,"Delta":267941107},{"NoteNumber":65,"Velocity":28,"Duration":99601,"SoundDuration":99601,"Delta":268040709},{"NoteNumber":61,"Velocity":33,"Duration":149402,"SoundDuration":149402,"Delta":268090509},{"NoteNumber":70,"Velocity":28,"Duration":99601,"SoundDuration":99601,"Delta":268140310},{"NoteNumber":75,"Velocity":36,"Duration":95038,"SoundDuration":95038,"Delta":268239912},{"NoteNumber":65,"Velocity":33,"Duration":142558,"SoundDuration":142558,"Delta":268239912},{"NoteNumber":70,"Velocity":30,"Duration":95039,"SoundDuration":95039,"Delta":268334951},{"NoteNumber":63,"Velocity":33,"Duration":142558,"SoundDuration":142558,"Delta":268382470},{"NoteNumber":66,"Velocity":30,"Duration":95038,"SoundDuration":95038,"Delta":268429990},{"NoteNumber":63,"Velocity":28,"Duration":97732,"SoundDuration":97732,"Delta":268525029},{"NoteNumber":58,"Velocity":33,"Duration":146598,"SoundDuration":146598,"Delta":268525029},{"NoteNumber":65,"Velocity":28,"Duration":97732,"SoundDuration":97732,"Delta":268622761},{"NoteNumber":61,"Velocity":33,"Duration":146598,"SoundDuration":146598,"Delta":268671628},{"NoteNumber":70,"Velocity":28,"Duration":97732,"SoundDuration":97732,"Delta":268720494},{"NoteNumber":75,"Velocity":36,"Duration":94179,"SoundDuration":94179,"Delta":268818227},{"NoteNumber":65,"Velocity":33,"Duration":141269,"SoundDuration":141269,"Delta":268818227},{"NoteNumber":70,"Velocity":28,"Duration":94179,"SoundDuration":94179,"Delta":268912406},{"NoteNumber":63,"Velocity":33,"Duration":141269,"SoundDuration":141269,"Delta":268959496},{"NoteNumber":66,"Velocity":28,"Duration":94179,"SoundDuration":94179,"Delta":269006586},{"NoteNumber":63,"Velocity":28,"Duration":97885,"SoundDuration":97885,"Delta":269100766},{"NoteNumber":58,"Velocity":33,"Duration":146828,"SoundDuration":146828,"Delta":269100766},{"NoteNumber":65,"Velocity":28,"Duration":97885,"SoundDuration":97885,"Delta":269198651},{"NoteNumber":61,"Velocity":33,"Duration":146828,"SoundDuration":146828,"Delta":269247594},{"NoteNumber":70,"Velocity":28,"Duration":97885,"SoundDuration":97885,"Delta":269296537},{"NoteNumber":75,"Velocity":36,"Duration":96061,"SoundDuration":96061,"Delta":269394423},{"NoteNumber":65,"Velocity":33,"Duration":144092,"SoundDuration":144092,"Delta":269394423},{"NoteNumber":70,"Velocity":28,"Duration":96061,"SoundDuration":96061,"Delta":269490484},{"NoteNumber":63,"Velocity":33,"Duration":144092,"SoundDuration":144092,"Delta":269538515},{"NoteNumber":66,"Velocity":28,"Duration":96061,"SoundDuration":96061,"Delta":269586546},{"NoteNumber":62,"Velocity":30,"Duration":109051,"SoundDuration":109051,"Delta":269682607},{"NoteNumber":57,"Velocity":36,"Duration":163576,"SoundDuration":163576,"Delta":269682607},{"NoteNumber":64,"Velocity":33,"Duration":109051,"SoundDuration":109051,"Delta":269791658},{"NoteNumber":60,"Velocity":33,"Duration":172145,"SoundDuration":172145,"Delta":269846184},{"NoteNumber":69,"Velocity":33,"Duration":117619,"SoundDuration":117619,"Delta":269900710},{"NoteNumber":74,"Velocity":58,"Duration":623509,"SoundDuration":623509,"Delta":270018329},{"NoteNumber":64,"Velocity":38,"Duration":154602,"SoundDuration":154602,"Delta":270018329},{"NoteNumber":69,"Velocity":36,"Duration":101132,"SoundDuration":101132,"Delta":270122366},{"NoteNumber":62,"Velocity":33,"Duration":151699,"SoundDuration":151699,"Delta":270172932},{"NoteNumber":66,"Velocity":36,"Duration":101132,"SoundDuration":101132,"Delta":270223498},{"NoteNumber":65,"Velocity":33,"Duration":101132,"SoundDuration":101132,"Delta":270324631},{"NoteNumber":60,"Velocity":38,"Duration":151699,"SoundDuration":151699,"Delta":270324631},{"NoteNumber":67,"Velocity":33,"Duration":101132,"SoundDuration":101132,"Delta":270425764},{"NoteNumber":63,"Velocity":33,"Duration":165508,"SoundDuration":165508,"Delta":270476330},{"NoteNumber":72,"Velocity":33,"Duration":114942,"SoundDuration":114942,"Delta":270526896},{"NoteNumber":77,"Velocity":60,"Duration":607411,"SoundDuration":607411,"Delta":270641839},{"NoteNumber":67,"Velocity":38,"Duration":154602,"SoundDuration":154602,"Delta":270641839},{"NoteNumber":72,"Velocity":35,"Duration":101132,"SoundDuration":101132,"Delta":270745875},{"NoteNumber":65,"Velocity":36,"Duration":147371,"SoundDuration":147371,"Delta":270796442},{"NoteNumber":69,"Velocity":35,"Duration":96805,"SoundDuration":96805,"Delta":270847008},{"NoteNumber":63,"Velocity":33,"Duration":101812,"SoundDuration":101812,"Delta":270943813},{"NoteNumber":54,"Velocity":33,"Duration":101812,"SoundDuration":101812,"Delta":270943813},{"NoteNumber":65,"Velocity":33,"Duration":101812,"SoundDuration":101812,"Delta":271045626},{"NoteNumber":58,"Velocity":33,"Duration":101812,"SoundDuration":101812,"Delta":271045626},{"NoteNumber":70,"Velocity":33,"Duration":101812,"SoundDuration":101812,"Delta":271147438},{"NoteNumber":61,"Velocity":33,"Duration":101812,"SoundDuration":101812,"Delta":271147438},{"NoteNumber":75,"Velocity":56,"Duration":694893,"SoundDuration":694893,"Delta":271249250},{"NoteNumber":65,"Velocity":33,"Duration":148279,"SoundDuration":148279,"Delta":271249250},{"NoteNumber":70,"Velocity":33,"Duration":98853,"SoundDuration":98853,"Delta":271348103},{"NoteNumber":63,"Velocity":33,"Duration":148280,"SoundDuration":148280,"Delta":271397530},{"NoteNumber":66,"Velocity":33,"Duration":98853,"SoundDuration":98853,"Delta":271446957},{"NoteNumber":63,"Velocity":30,"Duration":100806,"SoundDuration":100806,"Delta":271545810},{"NoteNumber":58,"Velocity":33,"Duration":151209,"SoundDuration":151209,"Delta":271545810},{"NoteNumber":65,"Velocity":28,"Duration":100806,"SoundDuration":100806,"Delta":271646617},{"NoteNumber":61,"Velocity":33,"Duration":151209,"SoundDuration":151209,"Delta":271697020},{"NoteNumber":70,"Velocity":28,"Duration":100806,"SoundDuration":100806,"Delta":271747423},{"NoteNumber":75,"Velocity":35,"Duration":677896,"SoundDuration":677896,"Delta":271848229},{"NoteNumber":65,"Velocity":38,"Duration":143871,"SoundDuration":143871,"Delta":271848229},{"NoteNumber":70,"Velocity":33,"Duration":95914,"SoundDuration":95914,"Delta":271944143},{"NoteNumber":63,"Velocity":33,"Duration":143871,"SoundDuration":143871,"Delta":271992101},{"NoteNumber":66,"Velocity":33,"Duration":95914,"SoundDuration":95914,"Delta":272040058},{"NoteNumber":63,"Velocity":28,"Duration":98658,"SoundDuration":98658,"Delta":272135972},{"NoteNumber":58,"Velocity":33,"Duration":147987,"SoundDuration":147987,"Delta":272135972},{"NoteNumber":65,"Velocity":28,"Duration":98658,"SoundDuration":98658,"Delta":272234630},{"NoteNumber":61,"Velocity":33,"Duration":147987,"SoundDuration":147987,"Delta":272283959},{"NoteNumber":70,"Velocity":28,"Duration":98658,"SoundDuration":98658,"Delta":272333288},{"NoteNumber":75,"Velocity":40,"Duration":584228,"SoundDuration":584228,"Delta":272431946},{"NoteNumber":65,"Velocity":33,"Duration":141269,"SoundDuration":141269,"Delta":272431946},{"NoteNumber":70,"Velocity":33,"Duration":94179,"SoundDuration":94179,"Delta":272526126},{"NoteNumber":63,"Velocity":33,"Duration":141269,"SoundDuration":141269,"Delta":272573216},{"NoteNumber":65,"Velocity":33,"Duration":94179,"SoundDuration":94179,"Delta":272620306},{"NoteNumber":63,"Velocity":33,"Duration":100563,"SoundDuration":100563,"Delta":272714485},{"NoteNumber":58,"Velocity":38,"Duration":150844,"SoundDuration":150844,"Delta":272714485},{"NoteNumber":65,"Velocity":30,"Duration":100563,"SoundDuration":100563,"Delta":272815049},{"NoteNumber":61,"Velocity":33,"Duration":150844,"SoundDuration":150844,"Delta":272865330},{"NoteNumber":70,"Velocity":30,"Duration":100563,"SoundDuration":100563,"Delta":272915612},{"NoteNumber":75,"Velocity":57,"Duration":623887,"SoundDuration":623887,"Delta":273016175},{"NoteNumber":65,"Velocity":38,"Duration":146598,"SoundDuration":146598,"Delta":273016175},{"NoteNumber":70,"Velocity":33,"Duration":97732,"SoundDuration":97732,"Delta":273113907},{"NoteNumber":63,"Velocity":33,"Duration":146598,"SoundDuration":146598,"Delta":273162774},{"NoteNumber":65,"Velocity":33,"Duration":97732,"SoundDuration":97732,"Delta":273211640},{"NoteNumber":62,"Velocity":33,"Duration":109051,"SoundDuration":109051,"Delta":273309373},{"NoteNumber":57,"Velocity":38,"Duration":163576,"SoundDuration":163576,"Delta":273309373},{"NoteNumber":64,"Velocity":33,"Duration":109051,"SoundDuration":109051,"Delta":273418424},{"NoteNumber":60,"Velocity":38,"Duration":167112,"SoundDuration":167112,"Delta":273472950},{"NoteNumber":69,"Velocity":33,"Duration":112587,"SoundDuration":112587,"Delta":273527475},{"NoteNumber":74,"Velocity":59,"Duration":592079,"SoundDuration":592079,"Delta":273640062},{"NoteNumber":64,"Velocity":38,"Duration":154602,"SoundDuration":154602,"Delta":273640062},{"NoteNumber":69,"Velocity":36,"Duration":99585,"SoundDuration":99585,"Delta":273744099},{"NoteNumber":62,"Velocity":36,"Duration":147058,"SoundDuration":147058,"Delta":273794665},{"NoteNumber":66,"Velocity":36,"Duration":98039,"SoundDuration":98039,"Delta":273843685},{"NoteNumber":66,"Velocity":33,"Duration":98039,"SoundDuration":98039,"Delta":273941724},{"NoteNumber":60,"Velocity":38,"Duration":147058,"SoundDuration":147058,"Delta":273941724},{"NoteNumber":68,"Velocity":33,"Duration":98039,"SoundDuration":98039,"Delta":274039763},{"NoteNumber":63,"Velocity":33,"Duration":143359,"SoundDuration":143359,"Delta":274088783},{"NoteNumber":72,"Velocity":30,"Duration":94339,"SoundDuration":94339,"Delta":274137803},{"NoteNumber":78,"Velocity":61,"Duration":607411,"SoundDuration":607411,"Delta":274232142},{"NoteNumber":68,"Velocity":38,"Duration":154602,"SoundDuration":154602,"Delta":274232142},{"NoteNumber":72,"Velocity":35,"Duration":101132,"SoundDuration":101132,"Delta":274336179},{"NoteNumber":66,"Velocity":36,"Duration":147371,"SoundDuration":147371,"Delta":274386745},{"NoteNumber":69,"Velocity":35,"Duration":96805,"SoundDuration":96805,"Delta":274437312},{"NoteNumber":63,"Velocity":33,"Duration":101812,"SoundDuration":101812,"Delta":274534117},{"NoteNumber":54,"Velocity":49,"Duration":1786697,"SoundDuration":1786697,"Delta":274534117},{"NoteNumber":65,"Velocity":33,"Duration":101812,"SoundDuration":101812,"Delta":274635929},{"NoteNumber":58,"Velocity":33,"Duration":101812,"SoundDuration":101812,"Delta":274635929},{"NoteNumber":70,"Velocity":33,"Duration":101812,"SoundDuration":101812,"Delta":274737741},{"NoteNumber":61,"Velocity":33,"Duration":101812,"SoundDuration":101812,"Delta":274737741},{"NoteNumber":75,"Velocity":57,"Duration":694893,"SoundDuration":694893,"Delta":274839554},{"NoteNumber":65,"Velocity":33,"Duration":148279,"SoundDuration":148279,"Delta":274839554},{"NoteNumber":70,"Velocity":33,"Duration":98853,"SoundDuration":98853,"Delta":274938407},{"NoteNumber":63,"Velocity":33,"Duration":148280,"SoundDuration":148280,"Delta":274987834},{"NoteNumber":66,"Velocity":33,"Duration":98853,"SoundDuration":98853,"Delta":275037260},{"NoteNumber":63,"Velocity":30,"Duration":100806,"SoundDuration":100806,"Delta":275136114},{"NoteNumber":58,"Velocity":33,"Duration":151209,"SoundDuration":151209,"Delta":275136114},{"NoteNumber":65,"Velocity":28,"Duration":100806,"SoundDuration":100806,"Delta":275236920},{"NoteNumber":61,"Velocity":33,"Duration":151209,"SoundDuration":151209,"Delta":275287323},{"NoteNumber":70,"Velocity":28,"Duration":100806,"SoundDuration":100806,"Delta":275337727},{"NoteNumber":75,"Velocity":35,"Duration":677896,"SoundDuration":677896,"Delta":275438533},{"NoteNumber":65,"Velocity":38,"Duration":143871,"SoundDuration":143871,"Delta":275438533},{"NoteNumber":70,"Velocity":33,"Duration":95914,"SoundDuration":95914,"Delta":275534447},{"NoteNumber":63,"Velocity":33,"Duration":143871,"SoundDuration":143871,"Delta":275582404},{"NoteNumber":66,"Velocity":33,"Duration":95914,"SoundDuration":95914,"Delta":275630361},{"NoteNumber":63,"Velocity":28,"Duration":98658,"SoundDuration":98658,"Delta":275726275},{"NoteNumber":58,"Velocity":33,"Duration":147987,"SoundDuration":147987,"Delta":275726275},{"NoteNumber":65,"Velocity":28,"Duration":98658,"SoundDuration":98658,"Delta":275824933},{"NoteNumber":61,"Velocity":33,"Duration":147987,"SoundDuration":147987,"Delta":275874263},{"NoteNumber":70,"Velocity":28,"Duration":98658,"SoundDuration":98658,"Delta":275923592},{"NoteNumber":75,"Velocity":35,"Duration":609316,"SoundDuration":609316,"Delta":276022250},{"NoteNumber":65,"Velocity":33,"Duration":141269,"SoundDuration":141269,"Delta":276022250},{"NoteNumber":70,"Velocity":33,"Duration":94179,"SoundDuration":94179,"Delta":276116430},{"NoteNumber":63,"Velocity":33,"Duration":157294,"SoundDuration":157294,"Delta":276163519},{"NoteNumber":66,"Velocity":33,"Duration":110204,"SoundDuration":110204,"Delta":276210609},{"NoteNumber":63,"Velocity":33,"Duration":103584,"SoundDuration":103584,"Delta":276320814},{"NoteNumber":49,"Velocity":49,"Duration":1245470,"SoundDuration":1245470,"Delta":276320814},{"NoteNumber":65,"Velocity":30,"Duration":103584,"SoundDuration":103584,"Delta":276424398},{"NoteNumber":58,"Velocity":38,"Duration":103584,"SoundDuration":103584,"Delta":276424398},{"NoteNumber":70,"Velocity":30,"Duration":103583,"SoundDuration":103583,"Delta":276527982},{"NoteNumber":61,"Velocity":33,"Duration":103583,"SoundDuration":103583,"Delta":276527982},{"NoteNumber":75,"Velocity":56,"Duration":615628,"SoundDuration":615628,"Delta":276631566},{"NoteNumber":65,"Velocity":38,"Duration":150844,"SoundDuration":150844,"Delta":276631566},{"NoteNumber":70,"Velocity":35,"Duration":100563,"SoundDuration":100563,"Delta":276732129},{"NoteNumber":63,"Velocity":33,"Duration":150844,"SoundDuration":150844,"Delta":276782411},{"NoteNumber":66,"Velocity":35,"Duration":100563,"SoundDuration":100563,"Delta":276832693},{"NoteNumber":63,"Velocity":33,"Duration":104646,"SoundDuration":104646,"Delta":276933256},{"NoteNumber":58,"Velocity":38,"Duration":156969,"SoundDuration":156969,"Delta":276933256},{"NoteNumber":65,"Velocity":33,"Duration":104646,"SoundDuration":104646,"Delta":277037902},{"NoteNumber":61,"Velocity":38,"Duration":156969,"SoundDuration":156969,"Delta":277090225},{"NoteNumber":70,"Velocity":33,"Duration":104646,"SoundDuration":104646,"Delta":277142548},{"NoteNumber":75,"Velocity":38,"Duration":104036,"SoundDuration":104036,"Delta":277247195},{"NoteNumber":65,"Velocity":38,"Duration":157800,"SoundDuration":157800,"Delta":277247195},{"NoteNumber":70,"Velocity":36,"Duration":107526,"SoundDuration":107526,"Delta":277351231},{"NoteNumber":63,"Velocity":36,"Duration":161290,"SoundDuration":161290,"Delta":277404995},{"NoteNumber":66,"Velocity":36,"Duration":107526,"SoundDuration":107526,"Delta":277458758},{"NoteNumber":63,"Velocity":33,"Duration":80645,"SoundDuration":80645,"Delta":277566285},{"NoteNumber":42,"Velocity":47,"Duration":633361,"SoundDuration":633361,"Delta":277566285},{"NoteNumber":66,"Velocity":33,"Duration":80645,"SoundDuration":80645,"Delta":277646930},{"NoteNumber":58,"Velocity":38,"Duration":107526,"SoundDuration":107526,"Delta":277673812},{"NoteNumber":70,"Velocity":33,"Duration":68305,"SoundDuration":68305,"Delta":277727576},{"NoteNumber":61,"Velocity":33,"Duration":116333,"SoundDuration":116333,"Delta":277781339},{"NoteNumber":70,"Velocity":33,"Duration":87249,"SoundDuration":87249,"Delta":277810422},{"NoteNumber":82,"Velocity":62,"Duration":301974,"SoundDuration":301974,"Delta":277897672},{"NoteNumber":65,"Velocity":38,"Duration":154602,"SoundDuration":154602,"Delta":277897672},{"NoteNumber":75,"Velocity":36,"Duration":101132,"SoundDuration":101132,"Delta":278001709},{"NoteNumber":63,"Velocity":36,"Duration":147371,"SoundDuration":147371,"Delta":278052275},{"NoteNumber":70,"Velocity":36,"Duration":96805,"SoundDuration":96805,"Delta":278102841},{"NoteNumber":53,"Velocity":36,"Duration":134908,"SoundDuration":134908,"Delta":278199647},{"NoteNumber":39,"Velocity":40,"Duration":134908,"SoundDuration":134908,"Delta":278199647},{"NoteNumber":58,"Velocity":38,"Duration":132459,"SoundDuration":132459,"Delta":278334555},{"NoteNumber":46,"Velocity":41,"Duration":132459,"SoundDuration":132459,"Delta":278334555},{"NoteNumber":61,"Velocity":38,"Duration":128144,"SoundDuration":128144,"Delta":278467014},{"NoteNumber":49,"Velocity":42,"Duration":128144,"SoundDuration":128144,"Delta":278467014},{"NoteNumber":65,"Velocity":42,"Duration":129606,"SoundDuration":129606,"Delta":278595159},{"NoteNumber":55,"Velocity":45,"Duration":129606,"SoundDuration":129606,"Delta":278595159},{"NoteNumber":70,"Velocity":45,"Duration":140632,"SoundDuration":140632,"Delta":278724766},{"NoteNumber":58,"Velocity":45,"Duration":140632,"SoundDuration":140632,"Delta":278724766},{"NoteNumber":73,"Velocity":47,"Duration":153536,"SoundDuration":153536,"Delta":278865399},{"NoteNumber":61,"Velocity":47,"Duration":153536,"SoundDuration":153536,"Delta":278865399},{"NoteNumber":82,"Velocity":67,"Duration":1212121,"SoundDuration":1212121,"Delta":279018936},{"NoteNumber":67,"Velocity":45,"Duration":133838,"SoundDuration":133838,"Delta":279018936},{"NoteNumber":70,"Velocity":45,"Duration":133838,"SoundDuration":133838,"Delta":279152774},{"NoteNumber":73,"Velocity":45,"Duration":133838,"SoundDuration":133838,"Delta":279286612},{"NoteNumber":77,"Velocity":45,"Duration":133838,"SoundDuration":133838,"Delta":279420451},{"NoteNumber":73,"Velocity":45,"Duration":133838,"SoundDuration":133838,"Delta":279554289},{"NoteNumber":70,"Velocity":45,"Duration":133838,"SoundDuration":133838,"Delta":279688128},{"NoteNumber":67,"Velocity":42,"Duration":133838,"SoundDuration":133838,"Delta":279821966},{"NoteNumber":61,"Velocity":42,"Duration":133838,"SoundDuration":133838,"Delta":279955804},{"NoteNumber":58,"Velocity":42,"Duration":133838,"SoundDuration":133838,"Delta":280089643},{"NoteNumber":67,"Velocity":45,"Duration":1250000,"SoundDuration":1250000,"Delta":280231057},{"NoteNumber":75,"Velocity":45,"Duration":1250000,"SoundDuration":1250000,"Delta":280231057},{"NoteNumber":79,"Velocity":45,"Duration":1250000,"SoundDuration":1250000,"Delta":280231057},{"NoteNumber":55,"Velocity":41,"Duration":125000,"SoundDuration":125000,"Delta":280231057},{"NoteNumber":49,"Velocity":41,"Duration":125000,"SoundDuration":125000,"Delta":280356057},{"NoteNumber":46,"Velocity":41,"Duration":125000,"SoundDuration":125000,"Delta":280481057},{"NoteNumber":39,"Velocity":41,"Duration":125000,"SoundDuration":125000,"Delta":280606057},{"NoteNumber":46,"Velocity":41,"Duration":125000,"SoundDuration":125000,"Delta":280731057},{"NoteNumber":49,"Velocity":40,"Duration":125000,"SoundDuration":125000,"Delta":280856057},{"NoteNumber":55,"Velocity":40,"Duration":125000,"SoundDuration":125000,"Delta":280981057},{"NoteNumber":58,"Velocity":40,"Duration":125000,"SoundDuration":125000,"Delta":281106057},{"NoteNumber":61,"Velocity":40,"Duration":125000,"SoundDuration":125000,"Delta":281231057},{"NoteNumber":63,"Velocity":40,"Duration":125000,"SoundDuration":125000,"Delta":281356057},{"NoteNumber":73,"Velocity":46,"Duration":1250000,"SoundDuration":1250000,"Delta":281481057},{"NoteNumber":77,"Velocity":46,"Duration":1250000,"SoundDuration":1250000,"Delta":281481057},{"NoteNumber":65,"Velocity":41,"Duration":125000,"SoundDuration":125000,"Delta":281481057},{"NoteNumber":70,"Velocity":41,"Duration":125000,"SoundDuration":125000,"Delta":281637307},{"NoteNumber":67,"Velocity":41,"Duration":125000,"SoundDuration":125000,"Delta":281793557},{"NoteNumber":65,"Velocity":41,"Duration":125000,"SoundDuration":125000,"Delta":281949807},{"NoteNumber":61,"Velocity":41,"Duration":125000,"SoundDuration":125000,"Delta":282106057},{"NoteNumber":58,"Velocity":41,"Duration":125000,"SoundDuration":125000,"Delta":282262307},{"NoteNumber":55,"Velocity":41,"Duration":125000,"SoundDuration":125000,"Delta":282418557},{"NoteNumber":53,"Velocity":41,"Duration":125000,"SoundDuration":125000,"Delta":282574807},{"NoteNumber":44,"Velocity":30,"Duration":122090,"SoundDuration":122090,"Delta":282731057},{"NoteNumber":51,"Velocity":33,"Duration":119458,"SoundDuration":119458,"Delta":282853147},{"NoteNumber":59,"Velocity":33,"Duration":119161,"SoundDuration":119161,"Delta":282972606},{"NoteNumber":63,"Velocity":36,"Duration":122041,"SoundDuration":122041,"Delta":283091767},{"NoteNumber":66,"Velocity":38,"Duration":160585,"SoundDuration":160585,"Delta":283213808},{"NoteNumber":71,"Velocity":18,"Duration":110728,"SoundDuration":110728,"Delta":283374394},{"NoteNumber":75,"Velocity":18,"Duration":110728,"SoundDuration":110728,"Delta":283374394},{"NoteNumber":44,"Velocity":33,"Duration":4482568,"SoundDuration":4482568,"Delta":283374394},{"NoteNumber":59,"Velocity":33,"Duration":3458903,"SoundDuration":3458903,"Delta":283374394},{"NoteNumber":63,"Velocity":33,"Duration":3458903,"SoundDuration":3458903,"Delta":283374394},{"NoteNumber":70,"Velocity":45,"Duration":1181102,"SoundDuration":1181102,"Delta":283374394},{"NoteNumber":77,"Velocity":23,"Duration":110728,"SoundDuration":110728,"Delta":283522032},{"NoteNumber":71,"Velocity":23,"Duration":78740,"SoundDuration":78740,"Delta":283669669},{"NoteNumber":75,"Velocity":23,"Duration":78740,"SoundDuration":78740,"Delta":283669669},{"NoteNumber":75,"Velocity":23,"Duration":110728,"SoundDuration":110728,"Delta":283817307},{"NoteNumber":89,"Velocity":33,"Duration":110728,"SoundDuration":110728,"Delta":283964945},{"NoteNumber":83,"Velocity":33,"Duration":110728,"SoundDuration":110728,"Delta":284112583},{"NoteNumber":87,"Velocity":33,"Duration":110728,"SoundDuration":110728,"Delta":284112583},{"NoteNumber":75,"Velocity":23,"Duration":110728,"SoundDuration":110728,"Delta":284260220},{"NoteNumber":77,"Velocity":23,"Duration":110728,"SoundDuration":110728,"Delta":284407858},{"NoteNumber":71,"Velocity":23,"Duration":107717,"SoundDuration":107717,"Delta":284555496},{"NoteNumber":75,"Velocity":23,"Duration":107717,"SoundDuration":107717,"Delta":284555496},{"NoteNumber":66,"Velocity":45,"Duration":1723477,"SoundDuration":1723477,"Delta":284555496},{"NoteNumber":77,"Velocity":23,"Duration":107717,"SoundDuration":107717,"Delta":284699119},{"NoteNumber":71,"Velocity":23,"Duration":107717,"SoundDuration":107717,"Delta":284842742},{"NoteNumber":75,"Velocity":23,"Duration":107717,"SoundDuration":107717,"Delta":284842742},{"NoteNumber":63,"Velocity":23,"Duration":107717,"SoundDuration":107717,"Delta":284986365},{"NoteNumber":65,"Velocity":23,"Duration":107717,"SoundDuration":107717,"Delta":285129988},{"NoteNumber":63,"Velocity":22,"Duration":107717,"SoundDuration":107717,"Delta":285273612},{"NoteNumber":63,"Velocity":22,"Duration":107717,"SoundDuration":107717,"Delta":285417235},{"NoteNumber":77,"Velocity":27,"Duration":107717,"SoundDuration":107717,"Delta":285560858},{"NoteNumber":71,"Velocity":23,"Duration":107717,"SoundDuration":107717,"Delta":285704481},{"NoteNumber":75,"Velocity":23,"Duration":107717,"SoundDuration":107717,"Delta":285704481},{"NoteNumber":77,"Velocity":25,"Duration":107717,"SoundDuration":107717,"Delta":285848104},{"NoteNumber":71,"Velocity":23,"Duration":76598,"SoundDuration":76598,"Delta":285991727},{"NoteNumber":75,"Velocity":23,"Duration":76598,"SoundDuration":76598,"Delta":285991727},{"NoteNumber":75,"Velocity":23,"Duration":107717,"SoundDuration":107717,"Delta":286135350},{"NoteNumber":89,"Velocity":30,"Duration":103935,"SoundDuration":103935,"Delta":286278973},{"NoteNumber":63,"Velocity":45,"Duration":578260,"SoundDuration":578260,"Delta":286278973},{"NoteNumber":83,"Velocity":30,"Duration":103935,"SoundDuration":103935,"Delta":286417554},{"NoteNumber":87,"Velocity":30,"Duration":103935,"SoundDuration":103935,"Delta":286417554},{"NoteNumber":75,"Velocity":22,"Duration":103935,"SoundDuration":103935,"Delta":286556135},{"NoteNumber":77,"Velocity":22,"Duration":103935,"SoundDuration":103935,"Delta":286694716},{"NoteNumber":71,"Velocity":22,"Duration":107717,"SoundDuration":107717,"Delta":286833297},{"NoteNumber":74,"Velocity":22,"Duration":107717,"SoundDuration":107717,"Delta":286833297},{"NoteNumber":56,"Velocity":30,"Duration":1178816,"SoundDuration":1178816,"Delta":286833297},{"NoteNumber":60,"Velocity":30,"Duration":1178816,"SoundDuration":1178816,"Delta":286833297},{"NoteNumber":66,"Velocity":50,"Duration":599333,"SoundDuration":599333,"Delta":286833297},{"NoteNumber":76,"Velocity":23,"Duration":107717,"SoundDuration":107717,"Delta":286976920},{"NoteNumber":71,"Velocity":23,"Duration":107717,"SoundDuration":107717,"Delta":287120543},{"NoteNumber":74,"Velocity":23,"Duration":107717,"SoundDuration":107717,"Delta":287120543},{"NoteNumber":62,"Velocity":23,"Duration":107717,"SoundDuration":107717,"Delta":287264166},{"NoteNumber":64,"Velocity":23,"Duration":111784,"SoundDuration":111784,"Delta":287407789},{"NoteNumber":68,"Velocity":50,"Duration":628930,"SoundDuration":628930,"Delta":287407789},{"NoteNumber":62,"Velocity":23,"Duration":111784,"SoundDuration":111784,"Delta":287556836},{"NoteNumber":62,"Velocity":23,"Duration":112293,"SoundDuration":112293,"Delta":287705882},{"NoteNumber":76,"Velocity":23,"Duration":116363,"SoundDuration":116363,"Delta":287856963},{"NoteNumber":44,"Velocity":33,"Duration":4637719,"SoundDuration":4637719,"Delta":287856963},{"NoteNumber":71,"Velocity":18,"Duration":110728,"SoundDuration":110728,"Delta":288012114},{"NoteNumber":75,"Velocity":18,"Duration":110728,"SoundDuration":110728,"Delta":288012114},{"NoteNumber":59,"Velocity":33,"Duration":3458903,"SoundDuration":3458903,"Delta":288012114},{"NoteNumber":63,"Velocity":33,"Duration":3458903,"SoundDuration":3458903,"Delta":288012114},{"NoteNumber":70,"Velocity":45,"Duration":1181102,"SoundDuration":1181102,"Delta":288012114},{"NoteNumber":77,"Velocity":23,"Duration":110728,"SoundDuration":110728,"Delta":288159751},{"NoteNumber":71,"Velocity":23,"Duration":78740,"SoundDuration":78740,"Delta":288307389},{"NoteNumber":75,"Velocity":23,"Duration":78740,"SoundDuration":78740,"Delta":288307389},{"NoteNumber":75,"Velocity":23,"Duration":110728,"SoundDuration":110728,"Delta":288455027},{"NoteNumber":89,"Velocity":33,"Duration":110728,"SoundDuration":110728,"Delta":288602665},{"NoteNumber":83,"Velocity":33,"Duration":110728,"SoundDuration":110728,"Delta":288750302},{"NoteNumber":87,"Velocity":33,"Duration":110728,"SoundDuration":110728,"Delta":288750302},{"NoteNumber":75,"Velocity":23,"Duration":110728,"SoundDuration":110728,"Delta":288897940},{"NoteNumber":77,"Velocity":23,"Duration":110728,"SoundDuration":110728,"Delta":289045578},{"NoteNumber":71,"Velocity":23,"Duration":107717,"SoundDuration":107717,"Delta":289193216},{"NoteNumber":75,"Velocity":23,"Duration":107717,"SoundDuration":107717,"Delta":289193216},{"NoteNumber":66,"Velocity":41,"Duration":1723477,"SoundDuration":1723477,"Delta":289193216},{"NoteNumber":77,"Velocity":23,"Duration":107717,"SoundDuration":107717,"Delta":289336839},{"NoteNumber":71,"Velocity":23,"Duration":107717,"SoundDuration":107717,"Delta":289480462},{"NoteNumber":75,"Velocity":23,"Duration":107717,"SoundDuration":107717,"Delta":289480462},{"NoteNumber":63,"Velocity":23,"Duration":107717,"SoundDuration":107717,"Delta":289624085},{"NoteNumber":65,"Velocity":23,"Duration":107717,"SoundDuration":107717,"Delta":289767708},{"NoteNumber":63,"Velocity":22,"Duration":107717,"SoundDuration":107717,"Delta":289911331},{"NoteNumber":63,"Velocity":22,"Duration":107717,"SoundDuration":107717,"Delta":290054954},{"NoteNumber":77,"Velocity":27,"Duration":107717,"SoundDuration":107717,"Delta":290198578},{"NoteNumber":71,"Velocity":23,"Duration":107717,"SoundDuration":107717,"Delta":290342201},{"NoteNumber":75,"Velocity":23,"Duration":107717,"SoundDuration":107717,"Delta":290342201},{"NoteNumber":77,"Velocity":25,"Duration":107717,"SoundDuration":107717,"Delta":290485824},{"NoteNumber":71,"Velocity":23,"Duration":76598,"SoundDuration":76598,"Delta":290629447},{"NoteNumber":75,"Velocity":23,"Duration":76598,"SoundDuration":76598,"Delta":290629447},{"NoteNumber":75,"Velocity":23,"Duration":107717,"SoundDuration":107717,"Delta":290773070},{"NoteNumber":89,"Velocity":30,"Duration":103935,"SoundDuration":103935,"Delta":290916693},{"NoteNumber":63,"Velocity":45,"Duration":578260,"SoundDuration":578260,"Delta":290916693},{"NoteNumber":83,"Velocity":30,"Duration":103935,"SoundDuration":103935,"Delta":291055274},{"NoteNumber":87,"Velocity":30,"Duration":103935,"SoundDuration":103935,"Delta":291055274},{"NoteNumber":75,"Velocity":22,"Duration":103935,"SoundDuration":103935,"Delta":291193855},{"NoteNumber":77,"Velocity":22,"Duration":103935,"SoundDuration":103935,"Delta":291332436},{"NoteNumber":71,"Velocity":22,"Duration":107717,"SoundDuration":107717,"Delta":291471017},{"NoteNumber":74,"Velocity":22,"Duration":107717,"SoundDuration":107717,"Delta":291471017},{"NoteNumber":56,"Velocity":36,"Duration":1178816,"SoundDuration":1178816,"Delta":291471017},{"NoteNumber":60,"Velocity":36,"Duration":1178816,"SoundDuration":1178816,"Delta":291471017},{"NoteNumber":66,"Velocity":47,"Duration":599333,"SoundDuration":599333,"Delta":291471017},{"NoteNumber":76,"Velocity":23,"Duration":107717,"SoundDuration":107717,"Delta":291614640},{"NoteNumber":71,"Velocity":23,"Duration":107717,"SoundDuration":107717,"Delta":291758263},{"NoteNumber":74,"Velocity":23,"Duration":107717,"SoundDuration":107717,"Delta":291758263},{"NoteNumber":62,"Velocity":23,"Duration":107717,"SoundDuration":107717,"Delta":291901886},{"NoteNumber":64,"Velocity":23,"Duration":111784,"SoundDuration":111784,"Delta":292045509},{"NoteNumber":68,"Velocity":47,"Duration":628930,"SoundDuration":628930,"Delta":292045509},{"NoteNumber":62,"Velocity":23,"Duration":111784,"SoundDuration":111784,"Delta":292194555},{"NoteNumber":62,"Velocity":23,"Duration":112293,"SoundDuration":112293,"Delta":292343601},{"NoteNumber":76,"Velocity":23,"Duration":116363,"SoundDuration":116363,"Delta":292494683},{"NoteNumber":44,"Velocity":33,"Duration":4936257,"SoundDuration":4936257,"Delta":292494683},{"NoteNumber":71,"Velocity":18,"Duration":110728,"SoundDuration":110728,"Delta":292649834},{"NoteNumber":75,"Velocity":18,"Duration":110728,"SoundDuration":110728,"Delta":292649834},{"NoteNumber":59,"Velocity":33,"Duration":4781106,"SoundDuration":4781106,"Delta":292649834},{"NoteNumber":63,"Velocity":33,"Duration":4781106,"SoundDuration":4781106,"Delta":292649834},{"NoteNumber":70,"Velocity":50,"Duration":590551,"SoundDuration":590551,"Delta":292649834},{"NoteNumber":77,"Velocity":25,"Duration":110728,"SoundDuration":110728,"Delta":292797471},{"NoteNumber":71,"Velocity":25,"Duration":78740,"SoundDuration":78740,"Delta":292945109},{"NoteNumber":75,"Velocity":25,"Duration":78740,"SoundDuration":78740,"Delta":292945109},{"NoteNumber":75,"Velocity":25,"Duration":110728,"SoundDuration":110728,"Delta":293092747},{"NoteNumber":89,"Velocity":33,"Duration":119680,"SoundDuration":119680,"Delta":293240385},{"NoteNumber":68,"Velocity":46,"Duration":658090,"SoundDuration":658090,"Delta":293240385},{"NoteNumber":83,"Velocity":33,"Duration":119680,"SoundDuration":119680,"Delta":293399959},{"NoteNumber":87,"Velocity":33,"Duration":119680,"SoundDuration":119680,"Delta":293399959},{"NoteNumber":75,"Velocity":28,"Duration":120917,"SoundDuration":120917,"Delta":293559534},{"NoteNumber":77,"Velocity":28,"Duration":130813,"SoundDuration":130813,"Delta":293724056},{"NoteNumber":71,"Velocity":23,"Duration":110728,"SoundDuration":110728,"Delta":293898475},{"NoteNumber":75,"Velocity":57,"Duration":1771653,"SoundDuration":1771653,"Delta":293898475},{"NoteNumber":77,"Velocity":30,"Duration":110728,"SoundDuration":110728,"Delta":294046112},{"NoteNumber":71,"Velocity":30,"Duration":78740,"SoundDuration":78740,"Delta":294193750},{"NoteNumber":75,"Velocity":30,"Duration":78740,"SoundDuration":78740,"Delta":294193750},{"NoteNumber":75,"Velocity":30,"Duration":110728,"SoundDuration":110728,"Delta":294341388},{"NoteNumber":89,"Velocity":35,"Duration":110728,"SoundDuration":110728,"Delta":294489026},{"NoteNumber":83,"Velocity":35,"Duration":110728,"SoundDuration":110728,"Delta":294636663},{"NoteNumber":87,"Velocity":35,"Duration":110728,"SoundDuration":110728,"Delta":294636663},{"NoteNumber":75,"Velocity":33,"Duration":110728,"SoundDuration":110728,"Delta":294784301},{"NoteNumber":77,"Velocity":33,"Duration":110728,"SoundDuration":110728,"Delta":294931939},{"NoteNumber":71,"Velocity":18,"Duration":110728,"SoundDuration":110728,"Delta":295079577},{"NoteNumber":75,"Velocity":18,"Duration":110728,"SoundDuration":110728,"Delta":295079577},{"NoteNumber":77,"Velocity":25,"Duration":110728,"SoundDuration":110728,"Delta":295227214},{"NoteNumber":71,"Velocity":25,"Duration":78740,"SoundDuration":78740,"Delta":295374852},{"NoteNumber":75,"Velocity":25,"Duration":78740,"SoundDuration":78740,"Delta":295374852},{"NoteNumber":75,"Velocity":25,"Duration":110728,"SoundDuration":110728,"Delta":295522490},{"NoteNumber":89,"Velocity":33,"Duration":108695,"SoundDuration":108695,"Delta":295670128},{"NoteNumber":70,"Velocity":48,"Duration":579709,"SoundDuration":579709,"Delta":295670128},{"NoteNumber":83,"Velocity":31,"Duration":108695,"SoundDuration":108695,"Delta":295815055},{"NoteNumber":87,"Velocity":31,"Duration":108695,"SoundDuration":108695,"Delta":295815055},{"NoteNumber":75,"Velocity":23,"Duration":108695,"SoundDuration":108695,"Delta":295959983},{"NoteNumber":77,"Velocity":23,"Duration":108695,"SoundDuration":108695,"Delta":296104910},{"NoteNumber":71,"Velocity":18,"Duration":110728,"SoundDuration":110728,"Delta":296249838},{"NoteNumber":75,"Velocity":18,"Duration":110728,"SoundDuration":110728,"Delta":296249838},{"NoteNumber":66,"Velocity":44,"Duration":1181102,"SoundDuration":1181102,"Delta":296249838},{"NoteNumber":77,"Velocity":20,"Duration":110728,"SoundDuration":110728,"Delta":296397475},{"NoteNumber":71,"Velocity":20,"Duration":78740,"SoundDuration":78740,"Delta":296545113},{"NoteNumber":75,"Velocity":20,"Duration":78740,"SoundDuration":78740,"Delta":296545113},{"NoteNumber":75,"Velocity":20,"Duration":110728,"SoundDuration":110728,"Delta":296692751},{"NoteNumber":89,"Velocity":23,"Duration":110728,"SoundDuration":110728,"Delta":296840389},{"NoteNumber":83,"Velocity":23,"Duration":110728,"SoundDuration":110728,"Delta":296988026},{"NoteNumber":87,"Velocity":23,"Duration":110728,"SoundDuration":110728,"Delta":296988026},{"NoteNumber":75,"Velocity":22,"Duration":110728,"SoundDuration":110728,"Delta":297135664},{"NoteNumber":77,"Velocity":22,"Duration":110728,"SoundDuration":110728,"Delta":297283302},{"NoteNumber":71,"Velocity":18,"Duration":115979,"SoundDuration":115979,"Delta":297430940},{"NoteNumber":75,"Velocity":18,"Duration":115979,"SoundDuration":115979,"Delta":297430940},{"NoteNumber":63,"Velocity":41,"Duration":618556,"SoundDuration":618556,"Delta":297430940},{"NoteNumber":77,"Velocity":18,"Duration":115979,"SoundDuration":115979,"Delta":297585579},{"NoteNumber":71,"Velocity":20,"Duration":82474,"SoundDuration":82474,"Delta":297740218},{"NoteNumber":75,"Velocity":20,"Duration":82474,"SoundDuration":82474,"Delta":297740218},{"NoteNumber":63,"Velocity":20,"Duration":115979,"SoundDuration":115979,"Delta":297894857},{"NoteNumber":65,"Velocity":20,"Duration":174418,"SoundDuration":174418,"Delta":298049496},{"NoteNumber":58,"Velocity":38,"Duration":697674,"SoundDuration":697674,"Delta":298049496},{"NoteNumber":63,"Velocity":20,"Duration":174418,"SoundDuration":174418,"Delta":298223915},{"NoteNumber":59,"Velocity":20,"Duration":174418,"SoundDuration":174418,"Delta":298398333},{"NoteNumber":51,"Velocity":18,"Duration":174418,"SoundDuration":174418,"Delta":298572752},{"NoteNumber":26,"Velocity":18,"Duration":6627994,"SoundDuration":6627994,"Delta":298747171},{"NoteNumber":38,"Velocity":18,"Duration":6611102,"SoundDuration":6611102,"Delta":298764063},{"NoteNumber":45,"Velocity":18,"Duration":6594210,"SoundDuration":6594210,"Delta":298780955},{"NoteNumber":50,"Velocity":18,"Duration":6577318,"SoundDuration":6577318,"Delta":298797846},{"NoteNumber":53,"Velocity":18,"Duration":6560426,"SoundDuration":6560426,"Delta":298814738},{"NoteNumber":57,"Velocity":18,"Duration":6543534,"SoundDuration":6543534,"Delta":298831630},{"NoteNumber":57,"Velocity":28,"Duration":163043,"SoundDuration":163043,"Delta":298848522},{"NoteNumber":53,"Velocity":28,"Duration":108695,"SoundDuration":108695,"Delta":298848522},{"NoteNumber":59,"Velocity":31,"Duration":126404,"SoundDuration":126404,"Delta":299011566},{"NoteNumber":53,"Velocity":27,"Duration":126404,"SoundDuration":126404,"Delta":299180105},{"NoteNumber":57,"Velocity":27,"Duration":126404,"SoundDuration":126404,"Delta":299180105},{"NoteNumber":53,"Velocity":27,"Duration":89887,"SoundDuration":89887,"Delta":299348644},{"NoteNumber":57,"Velocity":27,"Duration":89887,"SoundDuration":89887,"Delta":299348644},{"NoteNumber":71,"Velocity":33,"Duration":119680,"SoundDuration":119680,"Delta":299517184},{"NoteNumber":65,"Velocity":28,"Duration":119680,"SoundDuration":119680,"Delta":299676758},{"NoteNumber":69,"Velocity":28,"Duration":119680,"SoundDuration":119680,"Delta":299676758},{"NoteNumber":65,"Velocity":28,"Duration":119680,"SoundDuration":119680,"Delta":299836333},{"NoteNumber":69,"Velocity":28,"Duration":119680,"SoundDuration":119680,"Delta":299836333},{"NoteNumber":71,"Velocity":31,"Duration":119680,"SoundDuration":119680,"Delta":299995907},{"NoteNumber":77,"Velocity":31,"Duration":126404,"SoundDuration":126404,"Delta":300155482},{"NoteNumber":81,"Velocity":31,"Duration":126404,"SoundDuration":126404,"Delta":300155482},{"NoteNumber":83,"Velocity":33,"Duration":126404,"SoundDuration":126404,"Delta":300324021},{"NoteNumber":77,"Velocity":30,"Duration":126404,"SoundDuration":126404,"Delta":300492560},{"NoteNumber":81,"Velocity":30,"Duration":126404,"SoundDuration":126404,"Delta":300492560},{"NoteNumber":77,"Velocity":30,"Duration":126404,"SoundDuration":126404,"Delta":300661100},{"NoteNumber":81,"Velocity":30,"Duration":126404,"SoundDuration":126404,"Delta":300661100},{"NoteNumber":95,"Velocity":33,"Duration":138888,"SoundDuration":138888,"Delta":300829639},{"NoteNumber":89,"Velocity":30,"Duration":138888,"SoundDuration":138888,"Delta":301014824},{"NoteNumber":93,"Velocity":30,"Duration":138888,"SoundDuration":138888,"Delta":301014824},{"NoteNumber":89,"Velocity":28,"Duration":142113,"SoundDuration":142113,"Delta":301200009},{"NoteNumber":93,"Velocity":28,"Duration":142113,"SoundDuration":142113,"Delta":301200009},{"NoteNumber":95,"Velocity":30,"Duration":167910,"SoundDuration":167910,"Delta":301398093},{"NoteNumber":105,"Velocity":23,"Duration":1276595,"SoundDuration":1276595,"Delta":301621974},{"NoteNumber":101,"Velocity":23,"Duration":1276595,"SoundDuration":1276595,"Delta":301621974},{"NoteNumber":69,"Velocity":33,"Duration":1267158,"SoundDuration":1267158,"Delta":305375165},{"NoteNumber":62,"Velocity":33,"Duration":1232538,"SoundDuration":1232538,"Delta":306642324},{"NoteNumber":65,"Velocity":33,"Duration":622019,"SoundDuration":622019,"Delta":307874863},{"NoteNumber":69,"Velocity":33,"Duration":599879,"SoundDuration":599879,"Delta":308496882},{"NoteNumber":71,"Velocity":33,"Duration":1267158,"SoundDuration":1267158,"Delta":309096762},{"NoteNumber":69,"Velocity":33,"Duration":610748,"SoundDuration":610748,"Delta":310997501},{"NoteNumber":74,"Velocity":35,"Duration":594648,"SoundDuration":594648,"Delta":311608250},{"NoteNumber":73,"Velocity":33,"Duration":589507,"SoundDuration":589507,"Delta":312202898},{"NoteNumber":71,"Velocity":33,"Duration":1221497,"SoundDuration":1221497,"Delta":312792405},{"NoteNumber":69,"Velocity":33,"Duration":599879,"SoundDuration":599879,"Delta":314013903},{"NoteNumber":71,"Velocity":33,"Duration":584453,"SoundDuration":584453,"Delta":314613783},{"NoteNumber":74,"Velocity":33,"Duration":589507,"SoundDuration":589507,"Delta":315198236},{"NoteNumber":73,"Velocity":33,"Duration":599879,"SoundDuration":599879,"Delta":315787743},{"NoteNumber":69,"Velocity":33,"Duration":924404,"SoundDuration":924404,"Delta":316387623},{"NoteNumber":68,"Velocity":36,"Duration":2571796,"SoundDuration":2571796,"Delta":317620162},{"NoteNumber":69,"Velocity":20,"Duration":2045454,"SoundDuration":2045454,"Delta":320191958},{"NoteNumber":27,"Velocity":58,"Duration":348837,"SoundDuration":348837,"Delta":322237413},{"NoteNumber":39,"Velocity":58,"Duration":420903,"SoundDuration":420903,"Delta":322586250},{"NoteNumber":48,"Velocity":52,"Duration":166666,"SoundDuration":166666,"Delta":322840487},{"NoteNumber":52,"Velocity":53,"Duration":123456,"SoundDuration":123456,"Delta":323007154},{"NoteNumber":43,"Velocity":61,"Duration":123456,"SoundDuration":123456,"Delta":323007154},{"NoteNumber":55,"Velocity":56,"Duration":105976,"SoundDuration":105976,"Delta":323130611},{"NoteNumber":49,"Velocity":63,"Duration":105976,"SoundDuration":105976,"Delta":323130611},{"NoteNumber":60,"Velocity":58,"Duration":86963,"SoundDuration":86963,"Delta":323236587},{"NoteNumber":52,"Velocity":67,"Duration":86963,"SoundDuration":86963,"Delta":323236587},{"NoteNumber":64,"Velocity":58,"Duration":84751,"SoundDuration":84751,"Delta":323323550},{"NoteNumber":55,"Velocity":67,"Duration":84751,"SoundDuration":84751,"Delta":323323550},{"NoteNumber":67,"Velocity":62,"Duration":82650,"SoundDuration":82650,"Delta":323408302},{"NoteNumber":61,"Velocity":68,"Duration":82650,"SoundDuration":82650,"Delta":323408302},{"NoteNumber":72,"Velocity":63,"Duration":80650,"SoundDuration":80650,"Delta":323490952},{"NoteNumber":64,"Velocity":72,"Duration":80650,"SoundDuration":80650,"Delta":323490952},{"NoteNumber":76,"Velocity":65,"Duration":78745,"SoundDuration":78745,"Delta":323571603},{"NoteNumber":67,"Velocity":73,"Duration":78745,"SoundDuration":78745,"Delta":323571603},{"NoteNumber":79,"Velocity":67,"Duration":76927,"SoundDuration":76927,"Delta":323650348},{"NoteNumber":73,"Velocity":76,"Duration":76927,"SoundDuration":76927,"Delta":323650348},{"NoteNumber":84,"Velocity":68,"Duration":75192,"SoundDuration":75192,"Delta":323727275},{"NoteNumber":76,"Velocity":78,"Duration":75192,"SoundDuration":75192,"Delta":323727275},{"NoteNumber":88,"Velocity":70,"Duration":73533,"SoundDuration":73533,"Delta":323802468},{"NoteNumber":79,"Velocity":78,"Duration":73533,"SoundDuration":73533,"Delta":323802468},{"NoteNumber":91,"Velocity":73,"Duration":68078,"SoundDuration":68078,"Delta":323876001},{"NoteNumber":85,"Velocity":81,"Duration":68078,"SoundDuration":68078,"Delta":323876001},{"NoteNumber":96,"Velocity":85,"Duration":84394,"SoundDuration":84394,"Delta":323944080},{"NoteNumber":88,"Velocity":90,"Duration":84394,"SoundDuration":84394,"Delta":323944080},{"NoteNumber":91,"Velocity":72,"Duration":84394,"SoundDuration":84394,"Delta":324028475},{"NoteNumber":85,"Velocity":78,"Duration":84394,"SoundDuration":84394,"Delta":324028475},{"NoteNumber":88,"Velocity":68,"Duration":84394,"SoundDuration":84394,"Delta":324112870},{"NoteNumber":79,"Velocity":75,"Duration":84394,"SoundDuration":84394,"Delta":324112870},{"NoteNumber":84,"Velocity":67,"Duration":84925,"SoundDuration":84925,"Delta":324197265},{"NoteNumber":76,"Velocity":72,"Duration":84925,"SoundDuration":84925,"Delta":324197265},{"NoteNumber":79,"Velocity":65,"Duration":84935,"SoundDuration":84935,"Delta":324282190},{"NoteNumber":73,"Velocity":68,"Duration":84935,"SoundDuration":84935,"Delta":324282190},{"NoteNumber":76,"Velocity":63,"Duration":84935,"SoundDuration":84935,"Delta":324367126},{"NoteNumber":67,"Velocity":67,"Duration":84935,"SoundDuration":84935,"Delta":324367126},{"NoteNumber":72,"Velocity":62,"Duration":85463,"SoundDuration":85463,"Delta":324452062},{"NoteNumber":64,"Velocity":65,"Duration":85463,"SoundDuration":85463,"Delta":324452062},{"NoteNumber":67,"Velocity":58,"Duration":85483,"SoundDuration":85483,"Delta":324537525},{"NoteNumber":61,"Velocity":62,"Duration":85483,"SoundDuration":85483,"Delta":324537525},{"NoteNumber":64,"Velocity":57,"Duration":89511,"SoundDuration":89511,"Delta":324623009},{"NoteNumber":55,"Velocity":58,"Duration":89511,"SoundDuration":89511,"Delta":324623009},{"NoteNumber":60,"Velocity":58,"Duration":83205,"SoundDuration":83205,"Delta":324712520},{"NoteNumber":52,"Velocity":67,"Duration":83205,"SoundDuration":83205,"Delta":324712520},{"NoteNumber":64,"Velocity":58,"Duration":82560,"SoundDuration":82560,"Delta":324795726},{"NoteNumber":55,"Velocity":67,"Duration":82560,"SoundDuration":82560,"Delta":324795726},{"NoteNumber":67,"Velocity":62,"Duration":81924,"SoundDuration":81924,"Delta":324878286},{"NoteNumber":61,"Velocity":68,"Duration":81924,"SoundDuration":81924,"Delta":324878286},{"NoteNumber":72,"Velocity":63,"Duration":81185,"SoundDuration":81185,"Delta":324960211},{"NoteNumber":64,"Velocity":72,"Duration":81185,"SoundDuration":81185,"Delta":324960211},{"NoteNumber":76,"Velocity":65,"Duration":80561,"SoundDuration":80561,"Delta":325041396},{"NoteNumber":67,"Velocity":73,"Duration":80561,"SoundDuration":80561,"Delta":325041396},{"NoteNumber":79,"Velocity":67,"Duration":79956,"SoundDuration":79956,"Delta":325121958},{"NoteNumber":73,"Velocity":76,"Duration":79956,"SoundDuration":79956,"Delta":325121958},{"NoteNumber":84,"Velocity":68,"Duration":79261,"SoundDuration":79261,"Delta":325201914},{"NoteNumber":76,"Velocity":78,"Duration":79261,"SoundDuration":79261,"Delta":325201914},{"NoteNumber":88,"Velocity":70,"Duration":78657,"SoundDuration":78657,"Delta":325281175},{"NoteNumber":79,"Velocity":78,"Duration":78657,"SoundDuration":78657,"Delta":325281175},{"NoteNumber":91,"Velocity":73,"Duration":82492,"SoundDuration":82492,"Delta":325359833},{"NoteNumber":85,"Velocity":81,"Duration":82492,"SoundDuration":82492,"Delta":325359833},{"NoteNumber":96,"Velocity":85,"Duration":88495,"SoundDuration":88495,"Delta":325442325},{"NoteNumber":88,"Velocity":90,"Duration":88495,"SoundDuration":88495,"Delta":325442325},{"NoteNumber":91,"Velocity":72,"Duration":88988,"SoundDuration":88988,"Delta":325530821},{"NoteNumber":85,"Velocity":78,"Duration":88988,"SoundDuration":88988,"Delta":325530821},{"NoteNumber":88,"Velocity":68,"Duration":89485,"SoundDuration":89485,"Delta":325619809},{"NoteNumber":79,"Velocity":75,"Duration":89485,"SoundDuration":89485,"Delta":325619809},{"NoteNumber":84,"Velocity":67,"Duration":89888,"SoundDuration":89888,"Delta":325709295},{"NoteNumber":76,"Velocity":72,"Duration":89888,"SoundDuration":89888,"Delta":325709295},{"NoteNumber":79,"Velocity":65,"Duration":90395,"SoundDuration":90395,"Delta":325799183},{"NoteNumber":73,"Velocity":68,"Duration":90395,"SoundDuration":90395,"Delta":325799183},{"NoteNumber":76,"Velocity":63,"Duration":91012,"SoundDuration":91012,"Delta":325889579},{"NoteNumber":67,"Velocity":67,"Duration":91012,"SoundDuration":91012,"Delta":325889579},{"NoteNumber":72,"Velocity":62,"Duration":91220,"SoundDuration":91220,"Delta":325980592},{"NoteNumber":64,"Velocity":67,"Duration":91220,"SoundDuration":91220,"Delta":325980592},{"NoteNumber":76,"Velocity":62,"Duration":90703,"SoundDuration":90703,"Delta":326071812},{"NoteNumber":67,"Velocity":70,"Duration":90703,"SoundDuration":90703,"Delta":326071812},{"NoteNumber":79,"Velocity":63,"Duration":89989,"SoundDuration":89989,"Delta":326162515},{"NoteNumber":73,"Velocity":72,"Duration":89989,"SoundDuration":89989,"Delta":326162515},{"NoteNumber":84,"Velocity":67,"Duration":89485,"SoundDuration":89485,"Delta":326252505},{"NoteNumber":76,"Velocity":73,"Duration":89485,"SoundDuration":89485,"Delta":326252505},{"NoteNumber":88,"Velocity":68,"Duration":88790,"SoundDuration":88790,"Delta":326341991},{"NoteNumber":79,"Velocity":76,"Duration":88790,"SoundDuration":88790,"Delta":326341991},{"NoteNumber":91,"Velocity":68,"Duration":88300,"SoundDuration":88300,"Delta":326430781},{"NoteNumber":85,"Velocity":78,"Duration":88300,"SoundDuration":88300,"Delta":326430781},{"NoteNumber":96,"Velocity":81,"Duration":87719,"SoundDuration":87719,"Delta":326519082},{"NoteNumber":88,"Velocity":87,"Duration":87719,"SoundDuration":87719,"Delta":326519082},{"NoteNumber":91,"Velocity":72,"Duration":87719,"SoundDuration":87719,"Delta":326606801},{"NoteNumber":85,"Velocity":78,"Duration":87719,"SoundDuration":87719,"Delta":326606801},{"NoteNumber":88,"Velocity":68,"Duration":87719,"SoundDuration":87719,"Delta":326694520},{"NoteNumber":79,"Velocity":75,"Duration":87719,"SoundDuration":87719,"Delta":326694520},{"NoteNumber":84,"Velocity":67,"Duration":88105,"SoundDuration":88105,"Delta":326782240},{"NoteNumber":76,"Velocity":72,"Duration":88105,"SoundDuration":88105,"Delta":326782240},{"NoteNumber":79,"Velocity":65,"Duration":88105,"SoundDuration":88105,"Delta":326870345},{"NoteNumber":73,"Velocity":68,"Duration":88105,"SoundDuration":88105,"Delta":326870345},{"NoteNumber":76,"Velocity":63,"Duration":88105,"SoundDuration":88105,"Delta":326958451},{"NoteNumber":67,"Velocity":67,"Duration":88105,"SoundDuration":88105,"Delta":326958451},{"NoteNumber":72,"Velocity":62,"Duration":88495,"SoundDuration":88495,"Delta":327046557},{"NoteNumber":64,"Velocity":67,"Duration":88495,"SoundDuration":88495,"Delta":327046557},{"NoteNumber":76,"Velocity":62,"Duration":88105,"SoundDuration":88105,"Delta":327135052},{"NoteNumber":67,"Velocity":70,"Duration":88105,"SoundDuration":88105,"Delta":327135052},{"NoteNumber":79,"Velocity":63,"Duration":87527,"SoundDuration":87527,"Delta":327223158},{"NoteNumber":73,"Velocity":72,"Duration":87527,"SoundDuration":87527,"Delta":327223158},{"NoteNumber":84,"Velocity":67,"Duration":87146,"SoundDuration":87146,"Delta":327310686},{"NoteNumber":76,"Velocity":73,"Duration":87146,"SoundDuration":87146,"Delta":327310686},{"NoteNumber":88,"Velocity":68,"Duration":86580,"SoundDuration":86580,"Delta":327397832},{"NoteNumber":79,"Velocity":76,"Duration":86580,"SoundDuration":86580,"Delta":327397832},{"NoteNumber":91,"Velocity":68,"Duration":86021,"SoundDuration":86021,"Delta":327484412},{"NoteNumber":85,"Velocity":78,"Duration":86021,"SoundDuration":86021,"Delta":327484412},{"NoteNumber":96,"Velocity":76,"Duration":72815,"SoundDuration":72815,"Delta":327570434},{"NoteNumber":88,"Velocity":86,"Duration":72815,"SoundDuration":72815,"Delta":327570434},{"NoteNumber":91,"Velocity":58,"Duration":72815,"SoundDuration":72815,"Delta":327643249},{"NoteNumber":85,"Velocity":67,"Duration":72815,"SoundDuration":72815,"Delta":327643249},{"NoteNumber":88,"Velocity":58,"Duration":72815,"SoundDuration":72815,"Delta":327716065},{"NoteNumber":79,"Velocity":67,"Duration":72815,"SoundDuration":72815,"Delta":327716065},{"NoteNumber":84,"Velocity":58,"Duration":72815,"SoundDuration":72815,"Delta":327788880},{"NoteNumber":76,"Velocity":67,"Duration":72815,"SoundDuration":72815,"Delta":327788880},{"NoteNumber":94,"Velocity":75,"Duration":72815,"SoundDuration":72815,"Delta":327861696},{"NoteNumber":86,"Velocity":85,"Duration":72815,"SoundDuration":72815,"Delta":327861696},{"NoteNumber":89,"Velocity":58,"Duration":72815,"SoundDuration":72815,"Delta":327934511},{"NoteNumber":83,"Velocity":67,"Duration":72815,"SoundDuration":72815,"Delta":327934511},{"NoteNumber":86,"Velocity":58,"Duration":72815,"SoundDuration":72815,"Delta":328007327},{"NoteNumber":77,"Velocity":67,"Duration":72815,"SoundDuration":72815,"Delta":328007327},{"NoteNumber":82,"Velocity":58,"Duration":72815,"SoundDuration":72815,"Delta":328080142},{"NoteNumber":74,"Velocity":67,"Duration":72815,"SoundDuration":72815,"Delta":328080142},{"NoteNumber":91,"Velocity":75,"Duration":72115,"SoundDuration":72115,"Delta":328152958},{"NoteNumber":83,"Velocity":83,"Duration":72115,"SoundDuration":72115,"Delta":328152958},{"NoteNumber":86,"Velocity":57,"Duration":72115,"SoundDuration":72115,"Delta":328225073},{"NoteNumber":80,"Velocity":65,"Duration":72115,"SoundDuration":72115,"Delta":328225073},{"NoteNumber":83,"Velocity":57,"Duration":72115,"SoundDuration":72115,"Delta":328297189},{"NoteNumber":74,"Velocity":65,"Duration":72115,"SoundDuration":72115,"Delta":328297189},{"NoteNumber":79,"Velocity":57,"Duration":72115,"SoundDuration":72115,"Delta":328369304},{"NoteNumber":71,"Velocity":65,"Duration":72115,"SoundDuration":72115,"Delta":328369304},{"NoteNumber":89,"Velocity":75,"Duration":72115,"SoundDuration":72115,"Delta":328441419},{"NoteNumber":81,"Velocity":83,"Duration":72115,"SoundDuration":72115,"Delta":328441419},{"NoteNumber":84,"Velocity":56,"Duration":72115,"SoundDuration":72115,"Delta":328513535},{"NoteNumber":78,"Velocity":62,"Duration":72115,"SoundDuration":72115,"Delta":328513535},{"NoteNumber":81,"Velocity":56,"Duration":72115,"SoundDuration":72115,"Delta":328585650},{"NoteNumber":72,"Velocity":62,"Duration":72115,"SoundDuration":72115,"Delta":328585650},{"NoteNumber":77,"Velocity":56,"Duration":72115,"SoundDuration":72115,"Delta":328657766},{"NoteNumber":69,"Velocity":62,"Duration":72115,"SoundDuration":72115,"Delta":328657766},{"NoteNumber":84,"Velocity":70,"Duration":72815,"SoundDuration":72815,"Delta":328729881},{"NoteNumber":76,"Velocity":80,"Duration":72815,"SoundDuration":72815,"Delta":328729881},{"NoteNumber":79,"Velocity":53,"Duration":72815,"SoundDuration":72815,"Delta":328802696},{"NoteNumber":73,"Velocity":61,"Duration":72815,"SoundDuration":72815,"Delta":328802696},{"NoteNumber":76,"Velocity":53,"Duration":72815,"SoundDuration":72815,"Delta":328875512},{"NoteNumber":67,"Velocity":61,"Duration":72815,"SoundDuration":72815,"Delta":328875512},{"NoteNumber":72,"Velocity":53,"Duration":72815,"SoundDuration":72815,"Delta":328948327},{"NoteNumber":64,"Velocity":61,"Duration":72815,"SoundDuration":72815,"Delta":328948327},{"NoteNumber":82,"Velocity":70,"Duration":72815,"SoundDuration":72815,"Delta":329021143},{"NoteNumber":74,"Velocity":80,"Duration":72815,"SoundDuration":72815,"Delta":329021143},{"NoteNumber":77,"Velocity":52,"Duration":72815,"SoundDuration":72815,"Delta":329093958},{"NoteNumber":71,"Velocity":58,"Duration":72815,"SoundDuration":72815,"Delta":329093958},{"NoteNumber":74,"Velocity":52,"Duration":72815,"SoundDuration":72815,"Delta":329166774},{"NoteNumber":65,"Velocity":58,"Duration":72815,"SoundDuration":72815,"Delta":329166774},{"NoteNumber":70,"Velocity":52,"Duration":72815,"SoundDuration":72815,"Delta":329239589},{"NoteNumber":62,"Velocity":58,"Duration":72815,"SoundDuration":72815,"Delta":329239589},{"NoteNumber":79,"Velocity":70,"Duration":71770,"SoundDuration":71770,"Delta":329312405},{"NoteNumber":71,"Velocity":78,"Duration":71770,"SoundDuration":71770,"Delta":329312405},{"NoteNumber":74,"Velocity":51,"Duration":71770,"SoundDuration":71770,"Delta":329384175},{"NoteNumber":68,"Velocity":57,"Duration":71770,"SoundDuration":71770,"Delta":329384175},{"NoteNumber":71,"Velocity":51,"Duration":71770,"SoundDuration":71770,"Delta":329455946},{"NoteNumber":62,"Velocity":57,"Duration":71770,"SoundDuration":71770,"Delta":329455946},{"NoteNumber":67,"Velocity":51,"Duration":71770,"SoundDuration":71770,"Delta":329527716},{"NoteNumber":59,"Velocity":57,"Duration":71770,"SoundDuration":71770,"Delta":329527716},{"NoteNumber":77,"Velocity":68,"Duration":73891,"SoundDuration":73891,"Delta":329599486},{"NoteNumber":69,"Velocity":78,"Duration":73891,"SoundDuration":73891,"Delta":329599486},{"NoteNumber":72,"Velocity":50,"Duration":73891,"SoundDuration":73891,"Delta":329673378},{"NoteNumber":66,"Velocity":56,"Duration":73891,"SoundDuration":73891,"Delta":329673378},{"NoteNumber":69,"Velocity":50,"Duration":73891,"SoundDuration":73891,"Delta":329747270},{"NoteNumber":60,"Velocity":56,"Duration":73891,"SoundDuration":73891,"Delta":329747270},{"NoteNumber":65,"Velocity":50,"Duration":73891,"SoundDuration":73891,"Delta":329821161},{"NoteNumber":57,"Velocity":56,"Duration":73891,"SoundDuration":73891,"Delta":329821161},{"NoteNumber":72,"Velocity":67,"Duration":77720,"SoundDuration":77720,"Delta":329895053},{"NoteNumber":64,"Velocity":76,"Duration":77720,"SoundDuration":77720,"Delta":329895053},{"NoteNumber":67,"Velocity":50,"Duration":77720,"SoundDuration":77720,"Delta":329972773},{"NoteNumber":61,"Velocity":56,"Duration":77720,"SoundDuration":77720,"Delta":329972773},{"NoteNumber":64,"Velocity":50,"Duration":77720,"SoundDuration":77720,"Delta":330050493},{"NoteNumber":55,"Velocity":56,"Duration":77720,"SoundDuration":77720,"Delta":330050493},{"NoteNumber":60,"Velocity":50,"Duration":77720,"SoundDuration":77720,"Delta":330128214},{"NoteNumber":52,"Velocity":56,"Duration":77720,"SoundDuration":77720,"Delta":330128214},{"NoteNumber":70,"Velocity":67,"Duration":76530,"SoundDuration":76530,"Delta":330205934},{"NoteNumber":62,"Velocity":73,"Duration":76530,"SoundDuration":76530,"Delta":330205934},{"NoteNumber":65,"Velocity":46,"Duration":76530,"SoundDuration":76530,"Delta":330282465},{"NoteNumber":59,"Velocity":52,"Duration":76530,"SoundDuration":76530,"Delta":330282465},{"NoteNumber":62,"Velocity":46,"Duration":76530,"SoundDuration":76530,"Delta":330358995},{"NoteNumber":53,"Velocity":52,"Duration":76530,"SoundDuration":76530,"Delta":330358995},{"NoteNumber":58,"Velocity":46,"Duration":76530,"SoundDuration":76530,"Delta":330435526},{"NoteNumber":50,"Velocity":52,"Duration":76530,"SoundDuration":76530,"Delta":330435526},{"NoteNumber":67,"Velocity":63,"Duration":78125,"SoundDuration":78125,"Delta":330512056},{"NoteNumber":59,"Velocity":72,"Duration":78125,"SoundDuration":78125,"Delta":330512056},{"NoteNumber":62,"Velocity":45,"Duration":78125,"SoundDuration":78125,"Delta":330590181},{"NoteNumber":56,"Velocity":51,"Duration":78125,"SoundDuration":78125,"Delta":330590181},{"NoteNumber":59,"Velocity":45,"Duration":78125,"SoundDuration":78125,"Delta":330668306},{"NoteNumber":50,"Velocity":51,"Duration":78125,"SoundDuration":78125,"Delta":330668306},{"NoteNumber":55,"Velocity":45,"Duration":78125,"SoundDuration":78125,"Delta":330746431},{"NoteNumber":47,"Velocity":51,"Duration":78125,"SoundDuration":78125,"Delta":330746431},{"NoteNumber":65,"Velocity":62,"Duration":79787,"SoundDuration":79787,"Delta":330824556},{"NoteNumber":57,"Velocity":70,"Duration":79787,"SoundDuration":79787,"Delta":330824556},{"NoteNumber":60,"Velocity":45,"Duration":79787,"SoundDuration":79787,"Delta":330904344},{"NoteNumber":54,"Velocity":50,"Duration":79787,"SoundDuration":79787,"Delta":330904344},{"NoteNumber":57,"Velocity":45,"Duration":79787,"SoundDuration":79787,"Delta":330984131},{"NoteNumber":48,"Velocity":50,"Duration":79787,"SoundDuration":79787,"Delta":330984131},{"NoteNumber":53,"Velocity":45,"Duration":79787,"SoundDuration":79787,"Delta":331063918},{"NoteNumber":45,"Velocity":50,"Duration":79787,"SoundDuration":79787,"Delta":331063918},{"NoteNumber":60,"Velocity":62,"Duration":81967,"SoundDuration":81967,"Delta":331143705},{"NoteNumber":52,"Velocity":68,"Duration":109289,"SoundDuration":109289,"Delta":331143705},{"NoteNumber":55,"Velocity":45,"Duration":81967,"SoundDuration":81967,"Delta":331225673},{"NoteNumber":49,"Velocity":50,"Duration":109289,"SoundDuration":109289,"Delta":331252995},{"NoteNumber":52,"Velocity":45,"Duration":81967,"SoundDuration":81967,"Delta":331307640},{"NoteNumber":46,"Velocity":50,"Duration":109289,"SoundDuration":109289,"Delta":331362285},{"NoteNumber":48,"Velocity":45,"Duration":81967,"SoundDuration":81967,"Delta":331389607},{"NoteNumber":58,"Velocity":58,"Duration":89820,"SoundDuration":89820,"Delta":331471574},{"NoteNumber":49,"Velocity":67,"Duration":119760,"SoundDuration":119760,"Delta":331471574},{"NoteNumber":53,"Velocity":41,"Duration":89820,"SoundDuration":89820,"Delta":331561395},{"NoteNumber":47,"Velocity":50,"Duration":119760,"SoundDuration":119760,"Delta":331591335},{"NoteNumber":50,"Velocity":41,"Duration":89820,"SoundDuration":89820,"Delta":331651215},{"NoteNumber":44,"Velocity":50,"Duration":119760,"SoundDuration":119760,"Delta":331711095},{"NoteNumber":46,"Velocity":41,"Duration":89820,"SoundDuration":89820,"Delta":331741036},{"NoteNumber":56,"Velocity":59,"Duration":137195,"SoundDuration":137195,"Delta":331830856},{"NoteNumber":39,"Velocity":67,"Duration":2102186,"SoundDuration":2102186,"Delta":331830856},{"NoteNumber":45,"Velocity":41,"Duration":91463,"SoundDuration":91463,"Delta":331922319},{"NoteNumber":49,"Velocity":36,"Duration":91463,"SoundDuration":91463,"Delta":332013783},{"NoteNumber":51,"Velocity":38,"Duration":91463,"SoundDuration":91463,"Delta":332105246},{"NoteNumber":54,"Velocity":55,"Duration":133136,"SoundDuration":133136,"Delta":332196709},{"NoteNumber":57,"Velocity":36,"Duration":88757,"SoundDuration":88757,"Delta":332285467},{"NoteNumber":61,"Velocity":38,"Duration":88757,"SoundDuration":88757,"Delta":332374224},{"NoteNumber":63,"Velocity":40,"Duration":88757,"SoundDuration":88757,"Delta":332462982},{"NoteNumber":68,"Velocity":40,"Duration":86206,"SoundDuration":86206,"Delta":332551739},{"NoteNumber":49,"Velocity":49,"Duration":129310,"SoundDuration":129310,"Delta":332551739},{"NoteNumber":66,"Velocity":40,"Duration":86206,"SoundDuration":86206,"Delta":332637946},{"NoteNumber":63,"Velocity":38,"Duration":86206,"SoundDuration":86206,"Delta":332724153},{"NoteNumber":61,"Velocity":38,"Duration":86206,"SoundDuration":86206,"Delta":332810360},{"NoteNumber":57,"Velocity":38,"Duration":86206,"SoundDuration":86206,"Delta":332896566},{"NoteNumber":51,"Velocity":50,"Duration":129310,"SoundDuration":129310,"Delta":332896566},{"NoteNumber":54,"Velocity":38,"Duration":86206,"SoundDuration":86206,"Delta":332982773},{"NoteNumber":51,"Velocity":36,"Duration":86206,"SoundDuration":86206,"Delta":333068980},{"NoteNumber":49,"Velocity":36,"Duration":86206,"SoundDuration":86206,"Delta":333155187},{"NoteNumber":56,"Velocity":58,"Duration":130057,"SoundDuration":130057,"Delta":333241394},{"NoteNumber":45,"Velocity":33,"Duration":86705,"SoundDuration":86705,"Delta":333328099},{"NoteNumber":49,"Velocity":33,"Duration":86705,"SoundDuration":86705,"Delta":333414804},{"NoteNumber":51,"Velocity":35,"Duration":86705,"SoundDuration":86705,"Delta":333501510},{"NoteNumber":54,"Velocity":53,"Duration":129310,"SoundDuration":129310,"Delta":333588215},{"NoteNumber":57,"Velocity":35,"Duration":86206,"SoundDuration":86206,"Delta":333674422},{"NoteNumber":61,"Velocity":36,"Duration":86206,"SoundDuration":86206,"Delta":333760629},{"NoteNumber":63,"Velocity":36,"Duration":86206,"SoundDuration":86206,"Delta":333846836},{"NoteNumber":68,"Velocity":36,"Duration":86206,"SoundDuration":86206,"Delta":333933042},{"NoteNumber":49,"Velocity":49,"Duration":129310,"SoundDuration":129310,"Delta":333933042},{"NoteNumber":66,"Velocity":36,"Duration":86206,"SoundDuration":86206,"Delta":334019249},{"NoteNumber":63,"Velocity":36,"Duration":86206,"SoundDuration":86206,"Delta":334105456},{"NoteNumber":61,"Velocity":35,"Duration":86206,"SoundDuration":86206,"Delta":334191663},{"NoteNumber":57,"Velocity":35,"Duration":89820,"SoundDuration":89820,"Delta":334277870},{"NoteNumber":51,"Velocity":49,"Duration":134730,"SoundDuration":134730,"Delta":334277870},{"NoteNumber":54,"Velocity":33,"Duration":89820,"SoundDuration":89820,"Delta":334367690},{"NoteNumber":51,"Velocity":33,"Duration":89820,"SoundDuration":89820,"Delta":334457511},{"NoteNumber":49,"Velocity":33,"Duration":89820,"SoundDuration":89820,"Delta":334547331},{"NoteNumber":56,"Velocity":54,"Duration":130813,"SoundDuration":130813,"Delta":334637151},{"NoteNumber":45,"Velocity":31,"Duration":87209,"SoundDuration":87209,"Delta":334724361},{"NoteNumber":49,"Velocity":33,"Duration":87209,"SoundDuration":87209,"Delta":334811570},{"NoteNumber":51,"Velocity":50,"Duration":87209,"SoundDuration":87209,"Delta":334898779},{"NoteNumber":54,"Velocity":42,"Duration":129310,"SoundDuration":129310,"Delta":334985988},{"NoteNumber":57,"Velocity":33,"Duration":86206,"SoundDuration":86206,"Delta":335072195},{"NoteNumber":61,"Velocity":33,"Duration":86206,"SoundDuration":86206,"Delta":335158402},{"NoteNumber":63,"Velocity":33,"Duration":87774,"SoundDuration":87774,"Delta":335244609},{"NoteNumber":68,"Velocity":33,"Duration":90909,"SoundDuration":90909,"Delta":335332383},{"NoteNumber":49,"Velocity":48,"Duration":136363,"SoundDuration":136363,"Delta":335332383},{"NoteNumber":66,"Velocity":33,"Duration":90909,"SoundDuration":90909,"Delta":335423292},{"NoteNumber":63,"Velocity":33,"Duration":90909,"SoundDuration":90909,"Delta":335514202},{"NoteNumber":61,"Velocity":33,"Duration":90909,"SoundDuration":90909,"Delta":335605111},{"NoteNumber":57,"Velocity":33,"Duration":89285,"SoundDuration":89285,"Delta":335696020},{"NoteNumber":51,"Velocity":48,"Duration":133928,"SoundDuration":133928,"Delta":335696020},{"NoteNumber":54,"Velocity":31,"Duration":89285,"SoundDuration":89285,"Delta":335785306},{"NoteNumber":51,"Velocity":31,"Duration":89285,"SoundDuration":89285,"Delta":335874591},{"NoteNumber":49,"Velocity":28,"Duration":89285,"SoundDuration":89285,"Delta":335963877},{"NoteNumber":56,"Velocity":46,"Duration":142405,"SoundDuration":142405,"Delta":336053163},{"NoteNumber":39,"Velocity":38,"Duration":1570305,"SoundDuration":1570305,"Delta":336053163},{"NoteNumber":45,"Velocity":27,"Duration":94936,"SoundDuration":94936,"Delta":336148100},{"NoteNumber":49,"Velocity":28,"Duration":94936,"SoundDuration":94936,"Delta":336243036},{"NoteNumber":51,"Velocity":28,"Duration":94936,"SoundDuration":94936,"Delta":336337973},{"NoteNumber":56,"Velocity":30,"Duration":142405,"SoundDuration":142405,"Delta":336432910},{"NoteNumber":57,"Velocity":30,"Duration":94936,"SoundDuration":94936,"Delta":336527847},{"NoteNumber":61,"Velocity":31,"Duration":94936,"SoundDuration":94936,"Delta":336622783},{"NoteNumber":63,"Velocity":31,"Duration":94936,"SoundDuration":94936,"Delta":336717720},{"NoteNumber":66,"Velocity":31,"Duration":101351,"SoundDuration":101351,"Delta":336812657},{"NoteNumber":54,"Velocity":39,"Duration":152027,"SoundDuration":152027,"Delta":336812657},{"NoteNumber":63,"Velocity":31,"Duration":101351,"SoundDuration":101351,"Delta":336914008},{"NoteNumber":61,"Velocity":31,"Duration":101351,"SoundDuration":101351,"Delta":337015360},{"NoteNumber":57,"Velocity":30,"Duration":101351,"SoundDuration":101351,"Delta":337116711},{"NoteNumber":54,"Velocity":30,"Duration":101351,"SoundDuration":101351,"Delta":337218062},{"NoteNumber":51,"Velocity":28,"Duration":101351,"SoundDuration":101351,"Delta":337319414},{"NoteNumber":49,"Velocity":28,"Duration":101351,"SoundDuration":101351,"Delta":337420765},{"NoteNumber":45,"Velocity":28,"Duration":101351,"SoundDuration":101351,"Delta":337522116},{"NoteNumber":49,"Velocity":44,"Duration":161870,"SoundDuration":161870,"Delta":337623468},{"NoteNumber":45,"Velocity":27,"Duration":107913,"SoundDuration":107913,"Delta":337731381},{"NoteNumber":49,"Velocity":27,"Duration":107913,"SoundDuration":107913,"Delta":337839295},{"NoteNumber":51,"Velocity":28,"Duration":107913,"SoundDuration":107913,"Delta":337947209},{"NoteNumber":54,"Velocity":28,"Duration":161870,"SoundDuration":161870,"Delta":338055122},{"NoteNumber":57,"Velocity":28,"Duration":107913,"SoundDuration":107913,"Delta":338163036},{"NoteNumber":61,"Velocity":28,"Duration":107913,"SoundDuration":107913,"Delta":338270950},{"NoteNumber":66,"Velocity":30,"Duration":107268,"SoundDuration":107268,"Delta":338378863},{"NoteNumber":63,"Velocity":28,"Duration":109818,"SoundDuration":109818,"Delta":338486132},{"NoteNumber":51,"Velocity":36,"Duration":165706,"SoundDuration":165706,"Delta":338486132},{"NoteNumber":61,"Velocity":28,"Duration":112564,"SoundDuration":112564,"Delta":338595950},{"NoteNumber":57,"Velocity":27,"Duration":115450,"SoundDuration":115450,"Delta":338708514},{"NoteNumber":56,"Velocity":27,"Duration":118805,"SoundDuration":118805,"Delta":338823965},{"NoteNumber":54,"Velocity":25,"Duration":122025,"SoundDuration":122025,"Delta":338942770},{"NoteNumber":51,"Velocity":23,"Duration":125566,"SoundDuration":125566,"Delta":339064796},{"NoteNumber":49,"Velocity":23,"Duration":127408,"SoundDuration":127408,"Delta":339190362},{"NoteNumber":45,"Velocity":23,"Duration":67655,"SoundDuration":67655,"Delta":339317770},{"NoteNumber":37,"Velocity":36,"Duration":62500,"SoundDuration":62500,"Delta":339385425},{"NoteNumber":44,"Velocity":33,"Duration":62500,"SoundDuration":62500,"Delta":339447925},{"NoteNumber":56,"Velocity":25,"Duration":135257,"SoundDuration":135257,"Delta":339510425},{"NoteNumber":49,"Velocity":30,"Duration":135257,"SoundDuration":135257,"Delta":339510425},{"NoteNumber":57,"Velocity":22,"Duration":130412,"SoundDuration":130412,"Delta":339645682},{"NoteNumber":53,"Velocity":23,"Duration":130412,"SoundDuration":130412,"Delta":339645682},{"NoteNumber":65,"Velocity":22,"Duration":125349,"SoundDuration":125349,"Delta":339776095},{"NoteNumber":56,"Velocity":25,"Duration":125349,"SoundDuration":125349,"Delta":339776095},{"NoteNumber":68,"Velocity":23,"Duration":125062,"SoundDuration":125062,"Delta":339901444},{"NoteNumber":61,"Velocity":27,"Duration":125062,"SoundDuration":125062,"Delta":339901444},{"NoteNumber":69,"Velocity":23,"Duration":125062,"SoundDuration":125062,"Delta":340026507},{"NoteNumber":65,"Velocity":27,"Duration":125062,"SoundDuration":125062,"Delta":340026507},{"NoteNumber":77,"Velocity":23,"Duration":124496,"SoundDuration":124496,"Delta":340151569},{"NoteNumber":68,"Velocity":27,"Duration":124496,"SoundDuration":124496,"Delta":340151569},{"NoteNumber":80,"Velocity":23,"Duration":124213,"SoundDuration":124213,"Delta":340276066},{"NoteNumber":73,"Velocity":28,"Duration":124213,"SoundDuration":124213,"Delta":340276066},{"NoteNumber":81,"Velocity":25,"Duration":124213,"SoundDuration":124213,"Delta":340400279},{"NoteNumber":77,"Velocity":30,"Duration":124213,"SoundDuration":124213,"Delta":340400279},{"NoteNumber":89,"Velocity":27,"Duration":123641,"SoundDuration":123641,"Delta":340524492},{"NoteNumber":85,"Velocity":18,"Duration":123641,"SoundDuration":123641,"Delta":340524492},{"NoteNumber":80,"Velocity":31,"Duration":123641,"SoundDuration":123641,"Delta":340524492},{"NoteNumber":81,"Velocity":27,"Duration":123355,"SoundDuration":123355,"Delta":340648134},{"NoteNumber":77,"Velocity":31,"Duration":123355,"SoundDuration":123355,"Delta":340648134},{"NoteNumber":80,"Velocity":25,"Duration":123355,"SoundDuration":123355,"Delta":340771489},{"NoteNumber":73,"Velocity":30,"Duration":123355,"SoundDuration":123355,"Delta":340771489},{"NoteNumber":77,"Velocity":25,"Duration":124213,"SoundDuration":124213,"Delta":340894844},{"NoteNumber":68,"Velocity":30,"Duration":124213,"SoundDuration":124213,"Delta":340894844},{"NoteNumber":69,"Velocity":23,"Duration":124213,"SoundDuration":124213,"Delta":341019057},{"NoteNumber":65,"Velocity":28,"Duration":124213,"SoundDuration":124213,"Delta":341019057},{"NoteNumber":68,"Velocity":23,"Duration":124496,"SoundDuration":124496,"Delta":341143271},{"NoteNumber":61,"Velocity":27,"Duration":124496,"SoundDuration":124496,"Delta":341143271},{"NoteNumber":65,"Velocity":23,"Duration":125062,"SoundDuration":125062,"Delta":341267767},{"NoteNumber":56,"Velocity":27,"Duration":125062,"SoundDuration":125062,"Delta":341267767},{"NoteNumber":57,"Velocity":23,"Duration":125351,"SoundDuration":125351,"Delta":341392830},{"NoteNumber":53,"Velocity":27,"Duration":125351,"SoundDuration":125351,"Delta":341392830},{"NoteNumber":56,"Velocity":25,"Duration":126534,"SoundDuration":126534,"Delta":341518181},{"NoteNumber":49,"Velocity":30,"Duration":126534,"SoundDuration":126534,"Delta":341518181},{"NoteNumber":57,"Velocity":22,"Duration":125550,"SoundDuration":125550,"Delta":341644716},{"NoteNumber":53,"Velocity":23,"Duration":125550,"SoundDuration":125550,"Delta":341644716},{"NoteNumber":65,"Velocity":22,"Duration":124977,"SoundDuration":124977,"Delta":341770266},{"NoteNumber":56,"Velocity":25,"Duration":124977,"SoundDuration":124977,"Delta":341770266},{"NoteNumber":68,"Velocity":23,"Duration":125062,"SoundDuration":125062,"Delta":341895244},{"NoteNumber":61,"Velocity":27,"Duration":125062,"SoundDuration":125062,"Delta":341895244},{"NoteNumber":69,"Velocity":23,"Duration":125062,"SoundDuration":125062,"Delta":342020306},{"NoteNumber":65,"Velocity":27,"Duration":125062,"SoundDuration":125062,"Delta":342020306},{"NoteNumber":77,"Velocity":23,"Duration":124496,"SoundDuration":124496,"Delta":342145369},{"NoteNumber":68,"Velocity":27,"Duration":124496,"SoundDuration":124496,"Delta":342145369},{"NoteNumber":80,"Velocity":23,"Duration":124213,"SoundDuration":124213,"Delta":342269865},{"NoteNumber":73,"Velocity":28,"Duration":124213,"SoundDuration":124213,"Delta":342269865},{"NoteNumber":81,"Velocity":25,"Duration":124213,"SoundDuration":124213,"Delta":342394078},{"NoteNumber":77,"Velocity":30,"Duration":124213,"SoundDuration":124213,"Delta":342394078},{"NoteNumber":89,"Velocity":27,"Duration":123641,"SoundDuration":123641,"Delta":342518292},{"NoteNumber":85,"Velocity":20,"Duration":123641,"SoundDuration":123641,"Delta":342518292},{"NoteNumber":80,"Velocity":31,"Duration":123641,"SoundDuration":123641,"Delta":342518292},{"NoteNumber":81,"Velocity":27,"Duration":123355,"SoundDuration":123355,"Delta":342641933},{"NoteNumber":77,"Velocity":31,"Duration":123355,"SoundDuration":123355,"Delta":342641933},{"NoteNumber":80,"Velocity":25,"Duration":123355,"SoundDuration":123355,"Delta":342765288},{"NoteNumber":73,"Velocity":30,"Duration":123355,"SoundDuration":123355,"Delta":342765288},{"NoteNumber":77,"Velocity":25,"Duration":124213,"SoundDuration":124213,"Delta":342888644},{"NoteNumber":68,"Velocity":30,"Duration":124213,"SoundDuration":124213,"Delta":342888644},{"NoteNumber":69,"Velocity":23,"Duration":124213,"SoundDuration":124213,"Delta":343012857},{"NoteNumber":65,"Velocity":28,"Duration":124213,"SoundDuration":124213,"Delta":343012857},{"NoteNumber":68,"Velocity":23,"Duration":124496,"SoundDuration":124496,"Delta":343137070},{"NoteNumber":61,"Velocity":27,"Duration":124496,"SoundDuration":124496,"Delta":343137070},{"NoteNumber":65,"Velocity":23,"Duration":125062,"SoundDuration":125062,"Delta":343261567},{"NoteNumber":56,"Velocity":27,"Duration":125062,"SoundDuration":125062,"Delta":343261567},{"NoteNumber":57,"Velocity":23,"Duration":125062,"SoundDuration":125062,"Delta":343386629},{"NoteNumber":53,"Velocity":27,"Duration":125062,"SoundDuration":125062,"Delta":343386629},{"NoteNumber":56,"Velocity":25,"Duration":125320,"SoundDuration":125320,"Delta":343511692},{"NoteNumber":49,"Velocity":30,"Duration":125320,"SoundDuration":125320,"Delta":343511692},{"NoteNumber":57,"Velocity":22,"Duration":125550,"SoundDuration":125550,"Delta":343637013},{"NoteNumber":53,"Velocity":23,"Duration":125550,"SoundDuration":125550,"Delta":343637013},{"NoteNumber":65,"Velocity":22,"Duration":124977,"SoundDuration":124977,"Delta":343762563},{"NoteNumber":56,"Velocity":25,"Duration":124977,"SoundDuration":124977,"Delta":343762563},{"NoteNumber":68,"Velocity":23,"Duration":125062,"SoundDuration":125062,"Delta":343887540},{"NoteNumber":61,"Velocity":27,"Duration":125062,"SoundDuration":125062,"Delta":343887540},{"NoteNumber":69,"Velocity":23,"Duration":125062,"SoundDuration":125062,"Delta":344012603},{"NoteNumber":65,"Velocity":27,"Duration":125062,"SoundDuration":125062,"Delta":344012603},{"NoteNumber":77,"Velocity":23,"Duration":124496,"SoundDuration":124496,"Delta":344137665},{"NoteNumber":68,"Velocity":27,"Duration":124496,"SoundDuration":124496,"Delta":344137665},{"NoteNumber":80,"Velocity":23,"Duration":124213,"SoundDuration":124213,"Delta":344262162},{"NoteNumber":73,"Velocity":28,"Duration":124213,"SoundDuration":124213,"Delta":344262162},{"NoteNumber":81,"Velocity":25,"Duration":124213,"SoundDuration":124213,"Delta":344386375},{"NoteNumber":77,"Velocity":30,"Duration":124213,"SoundDuration":124213,"Delta":344386375},{"NoteNumber":89,"Velocity":27,"Duration":123641,"SoundDuration":123641,"Delta":344510589},{"NoteNumber":85,"Velocity":20,"Duration":123641,"SoundDuration":123641,"Delta":344510589},{"NoteNumber":80,"Velocity":31,"Duration":123641,"SoundDuration":123641,"Delta":344510589},{"NoteNumber":81,"Velocity":27,"Duration":123355,"SoundDuration":123355,"Delta":344634230},{"NoteNumber":77,"Velocity":31,"Duration":123355,"SoundDuration":123355,"Delta":344634230},{"NoteNumber":80,"Velocity":25,"Duration":123355,"SoundDuration":123355,"Delta":344757585},{"NoteNumber":73,"Velocity":30,"Duration":123355,"SoundDuration":123355,"Delta":344757585},{"NoteNumber":77,"Velocity":25,"Duration":124213,"SoundDuration":124213,"Delta":344880940},{"NoteNumber":68,"Velocity":30,"Duration":124213,"SoundDuration":124213,"Delta":344880940},{"NoteNumber":69,"Velocity":23,"Duration":124213,"SoundDuration":124213,"Delta":345005154},{"NoteNumber":65,"Velocity":28,"Duration":124213,"SoundDuration":124213,"Delta":345005154},{"NoteNumber":68,"Velocity":23,"Duration":124496,"SoundDuration":124496,"Delta":345129367},{"NoteNumber":61,"Velocity":27,"Duration":124496,"SoundDuration":124496,"Delta":345129367},{"NoteNumber":65,"Velocity":23,"Duration":125062,"SoundDuration":125062,"Delta":345253864},{"NoteNumber":56,"Velocity":27,"Duration":125062,"SoundDuration":125062,"Delta":345253864},{"NoteNumber":57,"Velocity":23,"Duration":125062,"SoundDuration":125062,"Delta":345378926},{"NoteNumber":53,"Velocity":27,"Duration":125062,"SoundDuration":125062,"Delta":345378926},{"NoteNumber":56,"Velocity":25,"Duration":125320,"SoundDuration":125320,"Delta":345503989},{"NoteNumber":49,"Velocity":30,"Duration":125320,"SoundDuration":125320,"Delta":345503989},{"NoteNumber":57,"Velocity":22,"Duration":125550,"SoundDuration":125550,"Delta":345629309},{"NoteNumber":53,"Velocity":23,"Duration":125550,"SoundDuration":125550,"Delta":345629309},{"NoteNumber":65,"Velocity":22,"Duration":124977,"SoundDuration":124977,"Delta":345754860},{"NoteNumber":56,"Velocity":25,"Duration":124977,"SoundDuration":124977,"Delta":345754860},{"NoteNumber":68,"Velocity":23,"Duration":125062,"SoundDuration":125062,"Delta":345879837},{"NoteNumber":61,"Velocity":27,"Duration":125062,"SoundDuration":125062,"Delta":345879837},{"NoteNumber":69,"Velocity":23,"Duration":125062,"SoundDuration":125062,"Delta":346004900},{"NoteNumber":65,"Velocity":27,"Duration":125062,"SoundDuration":125062,"Delta":346004900},{"NoteNumber":77,"Velocity":23,"Duration":124496,"SoundDuration":124496,"Delta":346129962},{"NoteNumber":68,"Velocity":27,"Duration":124496,"SoundDuration":124496,"Delta":346129962},{"NoteNumber":80,"Velocity":23,"Duration":124213,"SoundDuration":124213,"Delta":346254459},{"NoteNumber":73,"Velocity":28,"Duration":124213,"SoundDuration":124213,"Delta":346254459},{"NoteNumber":81,"Velocity":25,"Duration":124213,"SoundDuration":124213,"Delta":346378672},{"NoteNumber":77,"Velocity":30,"Duration":124213,"SoundDuration":124213,"Delta":346378672},{"NoteNumber":89,"Velocity":27,"Duration":123641,"SoundDuration":123641,"Delta":346502886},{"NoteNumber":85,"Velocity":20,"Duration":123641,"SoundDuration":123641,"Delta":346502886},{"NoteNumber":80,"Velocity":31,"Duration":123641,"SoundDuration":123641,"Delta":346502886},{"NoteNumber":81,"Velocity":27,"Duration":123355,"SoundDuration":123355,"Delta":346626527},{"NoteNumber":77,"Velocity":31,"Duration":123355,"SoundDuration":123355,"Delta":346626527},{"NoteNumber":80,"Velocity":25,"Duration":123355,"SoundDuration":123355,"Delta":346749882},{"NoteNumber":73,"Velocity":30,"Duration":123355,"SoundDuration":123355,"Delta":346749882},{"NoteNumber":77,"Velocity":25,"Duration":124213,"SoundDuration":124213,"Delta":346873237},{"NoteNumber":68,"Velocity":30,"Duration":124213,"SoundDuration":124213,"Delta":346873237},{"NoteNumber":69,"Velocity":23,"Duration":124213,"SoundDuration":124213,"Delta":346997451},{"NoteNumber":65,"Velocity":28,"Duration":124213,"SoundDuration":124213,"Delta":346997451},{"NoteNumber":68,"Velocity":23,"Duration":124496,"SoundDuration":124496,"Delta":347121664},{"NoteNumber":61,"Velocity":27,"Duration":124496,"SoundDuration":124496,"Delta":347121664},{"NoteNumber":65,"Velocity":23,"Duration":126545,"SoundDuration":126545,"Delta":347246161},{"NoteNumber":56,"Velocity":27,"Duration":126545,"SoundDuration":126545,"Delta":347246161},{"NoteNumber":57,"Velocity":23,"Duration":129511,"SoundDuration":129511,"Delta":347372706},{"NoteNumber":53,"Velocity":27,"Duration":129511,"SoundDuration":129511,"Delta":347372706},{"NoteNumber":56,"Velocity":25,"Duration":128606,"SoundDuration":128606,"Delta":347502217},{"NoteNumber":49,"Velocity":30,"Duration":128606,"SoundDuration":128606,"Delta":347502217},{"NoteNumber":57,"Velocity":22,"Duration":126505,"SoundDuration":126505,"Delta":347630823},{"NoteNumber":53,"Velocity":23,"Duration":126505,"SoundDuration":126505,"Delta":347630823},{"NoteNumber":65,"Velocity":22,"Duration":125636,"SoundDuration":125636,"Delta":347757329},{"NoteNumber":56,"Velocity":25,"Duration":125636,"SoundDuration":125636,"Delta":347757329},{"NoteNumber":68,"Velocity":23,"Duration":125636,"SoundDuration":125636,"Delta":347882965},{"NoteNumber":61,"Velocity":27,"Duration":125636,"SoundDuration":125636,"Delta":347882965},{"NoteNumber":69,"Velocity":23,"Duration":127386,"SoundDuration":127386,"Delta":348008602},{"NoteNumber":65,"Velocity":27,"Duration":127386,"SoundDuration":127386,"Delta":348008602},{"NoteNumber":77,"Velocity":23,"Duration":129500,"SoundDuration":129500,"Delta":348135988},{"NoteNumber":68,"Velocity":27,"Duration":129500,"SoundDuration":129500,"Delta":348135988},{"NoteNumber":80,"Velocity":23,"Duration":132509,"SoundDuration":132509,"Delta":348265489},{"NoteNumber":73,"Velocity":28,"Duration":2081949,"SoundDuration":2081949,"Delta":348265489},{"NoteNumber":81,"Velocity":25,"Duration":144927,"SoundDuration":144927,"Delta":348397998},{"NoteNumber":77,"Velocity":30,"Duration":1949439,"SoundDuration":1949439,"Delta":348397998},{"NoteNumber":85,"Velocity":27,"Duration":451127,"SoundDuration":451127,"Delta":348542926},{"NoteNumber":89,"Velocity":27,"Duration":451127,"SoundDuration":451127,"Delta":348542926},{"NoteNumber":65,"Velocity":24,"Duration":1804511,"SoundDuration":1804511,"Delta":348542926},{"NoteNumber":68,"Velocity":28,"Duration":1804511,"SoundDuration":1804511,"Delta":348542926}],"license":{"name":"Creative Commons Attribution-ShareAlike 3.0 Germany","url":"http://creativecommons.org/licenses/by-sa/3.0/de/deed.en","text":"The MIDI, audio (MP3, OGG) and video files of Bernd Krueger are licensed under the cc-by-sa Germany License. This means that you can use and adapt the files, as long as you attribute the copyright holder.\n\nName: Bernd Krueger\nSource: http://www.piano-midi.de\n\nThe distribution or public playback of the files is only allowed under identical license conditions.\n\nThe scores are open source.","attribution":"MIDI files by Bernd Krueger (piano-midi.de)","attributionUrl":"http://www.piano-midi.de"}}