{"title":"Scarbo","artist":"Ravel","durationMs":507163,"midiSha256":"b9857f263a2f9d0bd4d2bee60d3c9b2888ee4cf70088a06e9884c53e03f685d0","midiObject":[{"NoteNumber":31,"Velocity":36,"Duration":952381,"SoundDuration":952381,"Delta":0},{"NoteNumber":32,"Velocity":32,"Duration":952381,"SoundDuration":952381,"Delta":952381},{"NoteNumber":39,"Velocity":30,"Duration":937499,"SoundDuration":937499,"Delta":1904762},{"NoteNumber":50,"Velocity":37,"Duration":3864272,"SoundDuration":3864272,"Delta":3779762},{"NoteNumber":52,"Velocity":37,"Duration":3864272,"SoundDuration":3864272,"Delta":3779762},{"NoteNumber":56,"Velocity":37,"Duration":3864272,"SoundDuration":3864272,"Delta":3779762},{"NoteNumber":59,"Velocity":37,"Duration":3864272,"SoundDuration":3864272,"Delta":3779762},{"NoteNumber":64,"Velocity":49,"Duration":3864272,"SoundDuration":3864272,"Delta":3779762},{"NoteNumber":51,"Velocity":53,"Duration":63025,"SoundDuration":63025,"Delta":3779762},{"NoteNumber":51,"Velocity":45,"Duration":62158,"SoundDuration":62158,"Delta":3905462},{"NoteNumber":51,"Velocity":45,"Duration":60483,"SoundDuration":60483,"Delta":4029096},{"NoteNumber":51,"Velocity":41,"Duration":59367,"SoundDuration":59367,"Delta":4149423},{"NoteNumber":51,"Velocity":45,"Duration":58139,"SoundDuration":58139,"Delta":4267846},{"NoteNumber":51,"Velocity":38,"Duration":56964,"SoundDuration":56964,"Delta":4383533},{"NoteNumber":51,"Velocity":40,"Duration":55970,"SoundDuration":55970,"Delta":4496889},{"NoteNumber":51,"Velocity":38,"Duration":54880,"SoundDuration":54880,"Delta":4608281},{"NoteNumber":51,"Velocity":45,"Duration":52892,"SoundDuration":52892,"Delta":4717509},{"NoteNumber":51,"Velocity":39,"Duration":51772,"SoundDuration":51772,"Delta":4822607},{"NoteNumber":51,"Velocity":41,"Duration":53956,"SoundDuration":53956,"Delta":4926686},{"NoteNumber":51,"Velocity":37,"Duration":53444,"SoundDuration":53444,"Delta":5034497},{"NoteNumber":51,"Velocity":45,"Duration":51796,"SoundDuration":51796,"Delta":5140586},{"NoteNumber":51,"Velocity":40,"Duration":52474,"SoundDuration":52474,"Delta":5243848},{"NoteNumber":51,"Velocity":41,"Duration":52743,"SoundDuration":52743,"Delta":5349139},{"NoteNumber":51,"Velocity":37,"Duration":51067,"SoundDuration":51067,"Delta":5453896},{"NoteNumber":51,"Velocity":45,"Duration":51654,"SoundDuration":51654,"Delta":5555481},{"NoteNumber":51,"Velocity":40,"Duration":51653,"SoundDuration":51653,"Delta":5659218},{"NoteNumber":51,"Velocity":42,"Duration":50335,"SoundDuration":50335,"Delta":5761732},{"NoteNumber":51,"Velocity":38,"Duration":51796,"SoundDuration":51796,"Delta":5862953},{"NoteNumber":51,"Velocity":45,"Duration":51232,"SoundDuration":51232,"Delta":5966833},{"NoteNumber":51,"Velocity":38,"Duration":49999,"SoundDuration":49999,"Delta":6068425},{"NoteNumber":51,"Velocity":41,"Duration":51376,"SoundDuration":51376,"Delta":6168604},{"NoteNumber":51,"Velocity":38,"Duration":52012,"SoundDuration":52012,"Delta":6272307},{"NoteNumber":51,"Velocity":45,"Duration":50951,"SoundDuration":50951,"Delta":6375713},{"NoteNumber":51,"Velocity":38,"Duration":52063,"SoundDuration":52063,"Delta":6477432},{"NoteNumber":51,"Velocity":35,"Duration":53956,"SoundDuration":53956,"Delta":6583045},{"NoteNumber":51,"Velocity":38,"Duration":52816,"SoundDuration":52816,"Delta":6690500},{"NoteNumber":51,"Velocity":41,"Duration":52447,"SoundDuration":52447,"Delta":6795937},{"NoteNumber":51,"Velocity":34,"Duration":52326,"SoundDuration":52326,"Delta":6900832},{"NoteNumber":51,"Velocity":38,"Duration":53419,"SoundDuration":53419,"Delta":7005489},{"NoteNumber":51,"Velocity":34,"Duration":54035,"SoundDuration":54035,"Delta":7112480},{"NoteNumber":51,"Velocity":35,"Duration":52595,"SoundDuration":52595,"Delta":7219737},{"NoteNumber":51,"Velocity":35,"Duration":52204,"SoundDuration":52204,"Delta":7324537},{"NoteNumber":51,"Velocity":35,"Duration":53956,"SoundDuration":53956,"Delta":7430443},{"NoteNumber":51,"Velocity":34,"Duration":53117,"SoundDuration":53117,"Delta":7538100},{"NoteNumber":50,"Velocity":33,"Duration":1285222,"SoundDuration":1285222,"Delta":7644034},{"NoteNumber":52,"Velocity":33,"Duration":1285222,"SoundDuration":1285222,"Delta":7644034},{"NoteNumber":56,"Velocity":33,"Duration":1285222,"SoundDuration":1285222,"Delta":7644034},{"NoteNumber":59,"Velocity":39,"Duration":1285222,"SoundDuration":1285222,"Delta":7644034},{"NoteNumber":51,"Velocity":34,"Duration":52447,"SoundDuration":52447,"Delta":7644034},{"NoteNumber":51,"Velocity":33,"Duration":53550,"SoundDuration":53550,"Delta":7748929},{"NoteNumber":51,"Velocity":33,"Duration":53495,"SoundDuration":53495,"Delta":7857171},{"NoteNumber":51,"Velocity":32,"Duration":52131,"SoundDuration":52131,"Delta":7963510},{"NoteNumber":51,"Velocity":32,"Duration":52012,"SoundDuration":52012,"Delta":8067534},{"NoteNumber":51,"Velocity":32,"Duration":52941,"SoundDuration":52941,"Delta":8172092},{"NoteNumber":51,"Velocity":31,"Duration":54744,"SoundDuration":54744,"Delta":8278786},{"NoteNumber":51,"Velocity":31,"Duration":53956,"SoundDuration":53956,"Delta":8387906},{"NoteNumber":51,"Velocity":30,"Duration":53648,"SoundDuration":53648,"Delta":8495460},{"NoteNumber":51,"Velocity":30,"Duration":54347,"SoundDuration":54347,"Delta":8603170},{"NoteNumber":51,"Velocity":29,"Duration":54347,"SoundDuration":54347,"Delta":8711865},{"NoteNumber":51,"Velocity":28,"Duration":54347,"SoundDuration":54347,"Delta":8820561},{"NoteNumber":51,"Velocity":27,"Duration":54480,"SoundDuration":54480,"Delta":8929256},{"NoteNumber":51,"Velocity":27,"Duration":55693,"SoundDuration":55693,"Delta":9038749},{"NoteNumber":51,"Velocity":26,"Duration":56962,"SoundDuration":56962,"Delta":9150694},{"NoteNumber":51,"Velocity":25,"Duration":58290,"SoundDuration":58290,"Delta":9265202},{"NoteNumber":51,"Velocity":24,"Duration":59682,"SoundDuration":59682,"Delta":9382394},{"NoteNumber":51,"Velocity":24,"Duration":61142,"SoundDuration":61142,"Delta":9502399},{"NoteNumber":51,"Velocity":23,"Duration":62675,"SoundDuration":62675,"Delta":9625356},{"NoteNumber":51,"Velocity":22,"Duration":64286,"SoundDuration":64286,"Delta":9751412},{"NoteNumber":31,"Velocity":36,"Duration":952381,"SoundDuration":952381,"Delta":12931576},{"NoteNumber":32,"Velocity":32,"Duration":952380,"SoundDuration":952380,"Delta":13883957},{"NoteNumber":39,"Velocity":30,"Duration":937500,"SoundDuration":937500,"Delta":14836338},{"NoteNumber":38,"Velocity":35,"Duration":3864272,"SoundDuration":3864272,"Delta":16711338},{"NoteNumber":40,"Velocity":35,"Duration":3864272,"SoundDuration":3864272,"Delta":16711338},{"NoteNumber":44,"Velocity":35,"Duration":3864272,"SoundDuration":3864272,"Delta":16711338},{"NoteNumber":47,"Velocity":35,"Duration":3864272,"SoundDuration":3864272,"Delta":16711338},{"NoteNumber":52,"Velocity":46,"Duration":3864272,"SoundDuration":3864272,"Delta":16711338},{"NoteNumber":51,"Velocity":53,"Duration":63025,"SoundDuration":63025,"Delta":16711338},{"NoteNumber":51,"Velocity":45,"Duration":62158,"SoundDuration":62158,"Delta":16837038},{"NoteNumber":51,"Velocity":45,"Duration":60483,"SoundDuration":60483,"Delta":16960672},{"NoteNumber":51,"Velocity":41,"Duration":59367,"SoundDuration":59367,"Delta":17081000},{"NoteNumber":51,"Velocity":45,"Duration":58139,"SoundDuration":58139,"Delta":17199423},{"NoteNumber":51,"Velocity":38,"Duration":56964,"SoundDuration":56964,"Delta":17315110},{"NoteNumber":51,"Velocity":40,"Duration":55970,"SoundDuration":55970,"Delta":17428466},{"NoteNumber":51,"Velocity":38,"Duration":54880,"SoundDuration":54880,"Delta":17539857},{"NoteNumber":51,"Velocity":45,"Duration":52892,"SoundDuration":52892,"Delta":17649086},{"NoteNumber":51,"Velocity":39,"Duration":51772,"SoundDuration":51772,"Delta":17754183},{"NoteNumber":51,"Velocity":41,"Duration":53956,"SoundDuration":53956,"Delta":17858262},{"NoteNumber":51,"Velocity":37,"Duration":53444,"SoundDuration":53444,"Delta":17966073},{"NoteNumber":51,"Velocity":45,"Duration":51796,"SoundDuration":51796,"Delta":18072163},{"NoteNumber":51,"Velocity":40,"Duration":52474,"SoundDuration":52474,"Delta":18175424},{"NoteNumber":51,"Velocity":41,"Duration":52743,"SoundDuration":52743,"Delta":18280715},{"NoteNumber":51,"Velocity":37,"Duration":51067,"SoundDuration":51067,"Delta":18385473},{"NoteNumber":51,"Velocity":45,"Duration":51654,"SoundDuration":51654,"Delta":18487057},{"NoteNumber":51,"Velocity":40,"Duration":51653,"SoundDuration":51653,"Delta":18590795},{"NoteNumber":51,"Velocity":42,"Duration":50335,"SoundDuration":50335,"Delta":18693308},{"NoteNumber":51,"Velocity":38,"Duration":51796,"SoundDuration":51796,"Delta":18794529},{"NoteNumber":51,"Velocity":45,"Duration":51232,"SoundDuration":51232,"Delta":18898409},{"NoteNumber":51,"Velocity":38,"Duration":50000,"SoundDuration":50000,"Delta":19000002},{"NoteNumber":51,"Velocity":41,"Duration":51376,"SoundDuration":51376,"Delta":19100181},{"NoteNumber":51,"Velocity":38,"Duration":52012,"SoundDuration":52012,"Delta":19203883},{"NoteNumber":51,"Velocity":45,"Duration":50951,"SoundDuration":50951,"Delta":19307289},{"NoteNumber":51,"Velocity":38,"Duration":52063,"SoundDuration":52063,"Delta":19409008},{"NoteNumber":51,"Velocity":35,"Duration":53956,"SoundDuration":53956,"Delta":19514621},{"NoteNumber":51,"Velocity":38,"Duration":52816,"SoundDuration":52816,"Delta":19622077},{"NoteNumber":51,"Velocity":41,"Duration":52447,"SoundDuration":52447,"Delta":19727514},{"NoteNumber":51,"Velocity":34,"Duration":52326,"SoundDuration":52326,"Delta":19832409},{"NoteNumber":51,"Velocity":38,"Duration":53419,"SoundDuration":53419,"Delta":19937066},{"NoteNumber":51,"Velocity":34,"Duration":54035,"SoundDuration":54035,"Delta":20044057},{"NoteNumber":51,"Velocity":37,"Duration":52595,"SoundDuration":52595,"Delta":20151313},{"NoteNumber":51,"Velocity":35,"Duration":52204,"SoundDuration":52204,"Delta":20256113},{"NoteNumber":51,"Velocity":37,"Duration":53956,"SoundDuration":53956,"Delta":20362020},{"NoteNumber":51,"Velocity":33,"Duration":53117,"SoundDuration":53117,"Delta":20469677},{"NoteNumber":38,"Velocity":31,"Duration":1285222,"SoundDuration":1285222,"Delta":20575611},{"NoteNumber":40,"Velocity":31,"Duration":1285222,"SoundDuration":1285222,"Delta":20575611},{"NoteNumber":44,"Velocity":31,"Duration":1285222,"SoundDuration":1285222,"Delta":20575611},{"NoteNumber":47,"Velocity":37,"Duration":1285222,"SoundDuration":1285222,"Delta":20575611},{"NoteNumber":51,"Velocity":35,"Duration":52447,"SoundDuration":52447,"Delta":20575611},{"NoteNumber":51,"Velocity":35,"Duration":53550,"SoundDuration":53550,"Delta":20680506},{"NoteNumber":51,"Velocity":34,"Duration":53495,"SoundDuration":53495,"Delta":20788748},{"NoteNumber":51,"Velocity":34,"Duration":52131,"SoundDuration":52131,"Delta":20895087},{"NoteNumber":51,"Velocity":33,"Duration":52012,"SoundDuration":52012,"Delta":20999110},{"NoteNumber":51,"Velocity":33,"Duration":52941,"SoundDuration":52941,"Delta":21103669},{"NoteNumber":51,"Velocity":33,"Duration":54744,"SoundDuration":54744,"Delta":21210362},{"NoteNumber":51,"Velocity":32,"Duration":53956,"SoundDuration":53956,"Delta":21319482},{"NoteNumber":51,"Velocity":32,"Duration":53648,"SoundDuration":53648,"Delta":21427036},{"NoteNumber":51,"Velocity":30,"Duration":54347,"SoundDuration":54347,"Delta":21534746},{"NoteNumber":51,"Velocity":29,"Duration":54347,"SoundDuration":54347,"Delta":21643442},{"NoteNumber":51,"Velocity":29,"Duration":54347,"SoundDuration":54347,"Delta":21752137},{"NoteNumber":51,"Velocity":28,"Duration":54480,"SoundDuration":54480,"Delta":21860833},{"NoteNumber":51,"Velocity":28,"Duration":55693,"SoundDuration":55693,"Delta":21970326},{"NoteNumber":51,"Velocity":27,"Duration":56962,"SoundDuration":56962,"Delta":22082270},{"NoteNumber":51,"Velocity":27,"Duration":58290,"SoundDuration":58290,"Delta":22196779},{"NoteNumber":51,"Velocity":26,"Duration":59682,"SoundDuration":59682,"Delta":22313971},{"NoteNumber":51,"Velocity":26,"Duration":61142,"SoundDuration":61142,"Delta":22433976},{"NoteNumber":51,"Velocity":25,"Duration":62675,"SoundDuration":62675,"Delta":22556932},{"NoteNumber":51,"Velocity":25,"Duration":64286,"SoundDuration":64286,"Delta":22682989},{"NoteNumber":21,"Velocity":33,"Duration":861636,"SoundDuration":861636,"Delta":25062305},{"NoteNumber":22,"Velocity":31,"Duration":802137,"SoundDuration":802137,"Delta":25923942},{"NoteNumber":27,"Velocity":31,"Duration":747936,"SoundDuration":747936,"Delta":26726080},{"NoteNumber":28,"Velocity":28,"Duration":701317,"SoundDuration":701317,"Delta":27474016},{"NoteNumber":26,"Velocity":28,"Duration":701317,"SoundDuration":701317,"Delta":27474016},{"NoteNumber":31,"Velocity":36,"Duration":701317,"SoundDuration":701317,"Delta":27474016},{"NoteNumber":32,"Velocity":33,"Duration":660749,"SoundDuration":660749,"Delta":28175333},{"NoteNumber":39,"Velocity":34,"Duration":623534,"SoundDuration":623534,"Delta":28836083},{"NoteNumber":31,"Velocity":42,"Duration":446097,"SoundDuration":446097,"Delta":29459617},{"NoteNumber":32,"Velocity":38,"Duration":429081,"SoundDuration":429081,"Delta":29905715},{"NoteNumber":39,"Velocity":38,"Duration":412897,"SoundDuration":412897,"Delta":30334796},{"NoteNumber":38,"Velocity":36,"Duration":389191,"SoundDuration":389191,"Delta":30747694},{"NoteNumber":40,"Velocity":36,"Duration":389191,"SoundDuration":389191,"Delta":30747694},{"NoteNumber":43,"Velocity":46,"Duration":389191,"SoundDuration":389191,"Delta":30747694},{"NoteNumber":44,"Velocity":40,"Duration":364648,"SoundDuration":364648,"Delta":31136886},{"NoteNumber":51,"Velocity":41,"Duration":343034,"SoundDuration":343034,"Delta":31501535},{"NoteNumber":43,"Velocity":48,"Duration":324348,"SoundDuration":324348,"Delta":31844569},{"NoteNumber":44,"Velocity":43,"Duration":307117,"SoundDuration":307117,"Delta":32168918},{"NoteNumber":51,"Velocity":43,"Duration":291636,"SoundDuration":291636,"Delta":32476036},{"NoteNumber":50,"Velocity":40,"Duration":277831,"SoundDuration":277831,"Delta":32767672},{"NoteNumber":52,"Velocity":40,"Duration":277831,"SoundDuration":277831,"Delta":32767672},{"NoteNumber":55,"Velocity":50,"Duration":277831,"SoundDuration":277831,"Delta":32767672},{"NoteNumber":56,"Velocity":45,"Duration":265271,"SoundDuration":265271,"Delta":33045504},{"NoteNumber":63,"Velocity":45,"Duration":253638,"SoundDuration":253638,"Delta":33310775},{"NoteNumber":55,"Velocity":52,"Duration":163807,"SoundDuration":163807,"Delta":33564414},{"NoteNumber":56,"Velocity":53,"Duration":151134,"SoundDuration":151134,"Delta":33728221},{"NoteNumber":63,"Velocity":54,"Duration":136872,"SoundDuration":136872,"Delta":33879355},{"NoteNumber":62,"Velocity":48,"Duration":125160,"SoundDuration":125160,"Delta":34016227},{"NoteNumber":64,"Velocity":48,"Duration":125160,"SoundDuration":125160,"Delta":34016227},{"NoteNumber":67,"Velocity":61,"Duration":125160,"SoundDuration":125160,"Delta":34016227},{"NoteNumber":68,"Velocity":63,"Duration":115222,"SoundDuration":115222,"Delta":34141388},{"NoteNumber":75,"Velocity":65,"Duration":108904,"SoundDuration":108904,"Delta":34256611},{"NoteNumber":67,"Velocity":67,"Duration":104485,"SoundDuration":104485,"Delta":34365515},{"NoteNumber":68,"Velocity":70,"Duration":100013,"SoundDuration":100013,"Delta":34470001},{"NoteNumber":75,"Velocity":75,"Duration":96014,"SoundDuration":96014,"Delta":34570014},{"NoteNumber":74,"Velocity":67,"Duration":92317,"SoundDuration":92317,"Delta":34666028},{"NoteNumber":76,"Velocity":67,"Duration":92317,"SoundDuration":92317,"Delta":34666028},{"NoteNumber":79,"Velocity":84,"Duration":92317,"SoundDuration":92317,"Delta":34666028},{"NoteNumber":80,"Velocity":88,"Duration":88766,"SoundDuration":88766,"Delta":34758346},{"NoteNumber":87,"Velocity":90,"Duration":85642,"SoundDuration":85642,"Delta":34847113},{"NoteNumber":79,"Velocity":81,"Duration":81694,"SoundDuration":81694,"Delta":34932756},{"NoteNumber":80,"Velocity":82,"Duration":76878,"SoundDuration":76878,"Delta":35014450},{"NoteNumber":87,"Velocity":85,"Duration":72598,"SoundDuration":72598,"Delta":35091329},{"NoteNumber":86,"Velocity":76,"Duration":69287,"SoundDuration":69287,"Delta":35163927},{"NoteNumber":88,"Velocity":76,"Duration":69287,"SoundDuration":69287,"Delta":35163927},{"NoteNumber":91,"Velocity":95,"Duration":69287,"SoundDuration":69287,"Delta":35163927},{"NoteNumber":92,"Velocity":99,"Duration":104894,"SoundDuration":104894,"Delta":35233214},{"NoteNumber":99,"Velocity":104,"Duration":104894,"SoundDuration":104894,"Delta":35338109},{"NoteNumber":80,"Velocity":35,"Duration":74503,"SoundDuration":74503,"Delta":35443004},{"NoteNumber":87,"Velocity":35,"Duration":74503,"SoundDuration":74503,"Delta":35443004},{"NoteNumber":91,"Velocity":42,"Duration":74503,"SoundDuration":74503,"Delta":35443004},{"NoteNumber":100,"Velocity":43,"Duration":74013,"SoundDuration":74013,"Delta":35517508},{"NoteNumber":98,"Velocity":43,"Duration":74013,"SoundDuration":74013,"Delta":35517508},{"NoteNumber":92,"Velocity":36,"Duration":74013,"SoundDuration":74013,"Delta":35517508},{"NoteNumber":88,"Velocity":36,"Duration":74013,"SoundDuration":74013,"Delta":35517508},{"NoteNumber":86,"Velocity":36,"Duration":74013,"SoundDuration":74013,"Delta":35517508},{"NoteNumber":80,"Velocity":37,"Duration":73290,"SoundDuration":73290,"Delta":35591522},{"NoteNumber":87,"Velocity":37,"Duration":73290,"SoundDuration":73290,"Delta":35591522},{"NoteNumber":91,"Velocity":44,"Duration":73290,"SoundDuration":73290,"Delta":35591522},{"NoteNumber":100,"Velocity":45,"Duration":72698,"SoundDuration":72698,"Delta":35664812},{"NoteNumber":98,"Velocity":45,"Duration":72698,"SoundDuration":72698,"Delta":35664812},{"NoteNumber":92,"Velocity":38,"Duration":72698,"SoundDuration":72698,"Delta":35664812},{"NoteNumber":86,"Velocity":38,"Duration":72698,"SoundDuration":72698,"Delta":35664812},{"NoteNumber":88,"Velocity":38,"Duration":72698,"SoundDuration":72698,"Delta":35664812},{"NoteNumber":80,"Velocity":39,"Duration":72116,"SoundDuration":72116,"Delta":35737510},{"NoteNumber":87,"Velocity":39,"Duration":72116,"SoundDuration":72116,"Delta":35737510},{"NoteNumber":91,"Velocity":46,"Duration":72116,"SoundDuration":72116,"Delta":35737510},{"NoteNumber":100,"Velocity":47,"Duration":71542,"SoundDuration":71542,"Delta":35809627},{"NoteNumber":98,"Velocity":47,"Duration":71542,"SoundDuration":71542,"Delta":35809627},{"NoteNumber":92,"Velocity":39,"Duration":71542,"SoundDuration":71542,"Delta":35809627},{"NoteNumber":88,"Velocity":39,"Duration":71542,"SoundDuration":71542,"Delta":35809627},{"NoteNumber":86,"Velocity":39,"Duration":71542,"SoundDuration":71542,"Delta":35809627},{"NoteNumber":80,"Velocity":40,"Duration":70978,"SoundDuration":70978,"Delta":35881169},{"NoteNumber":87,"Velocity":40,"Duration":70978,"SoundDuration":70978,"Delta":35881169},{"NoteNumber":91,"Velocity":48,"Duration":70978,"SoundDuration":70978,"Delta":35881169},{"NoteNumber":100,"Velocity":49,"Duration":70312,"SoundDuration":70312,"Delta":35952148},{"NoteNumber":98,"Velocity":49,"Duration":70312,"SoundDuration":70312,"Delta":35952148},{"NoteNumber":92,"Velocity":41,"Duration":70312,"SoundDuration":70312,"Delta":35952148},{"NoteNumber":86,"Velocity":41,"Duration":70312,"SoundDuration":70312,"Delta":35952148},{"NoteNumber":88,"Velocity":41,"Duration":70312,"SoundDuration":70312,"Delta":35952148},{"NoteNumber":80,"Velocity":43,"Duration":69876,"SoundDuration":69876,"Delta":36022460},{"NoteNumber":87,"Velocity":43,"Duration":69876,"SoundDuration":69876,"Delta":36022460},{"NoteNumber":91,"Velocity":51,"Duration":69876,"SoundDuration":69876,"Delta":36022460},{"NoteNumber":100,"Velocity":52,"Duration":69231,"SoundDuration":69231,"Delta":36092337},{"NoteNumber":98,"Velocity":52,"Duration":69231,"SoundDuration":69231,"Delta":36092337},{"NoteNumber":92,"Velocity":44,"Duration":69231,"SoundDuration":69231,"Delta":36092337},{"NoteNumber":88,"Velocity":44,"Duration":69231,"SoundDuration":69231,"Delta":36092337},{"NoteNumber":86,"Velocity":44,"Duration":69231,"SoundDuration":69231,"Delta":36092337},{"NoteNumber":80,"Velocity":45,"Duration":68702,"SoundDuration":68702,"Delta":36161568},{"NoteNumber":87,"Velocity":45,"Duration":68702,"SoundDuration":68702,"Delta":36161568},{"NoteNumber":91,"Velocity":53,"Duration":68702,"SoundDuration":68702,"Delta":36161568},{"NoteNumber":100,"Velocity":54,"Duration":68182,"SoundDuration":68182,"Delta":36230270},{"NoteNumber":98,"Velocity":54,"Duration":68182,"SoundDuration":68182,"Delta":36230270},{"NoteNumber":92,"Velocity":45,"Duration":68182,"SoundDuration":68182,"Delta":36230270},{"NoteNumber":86,"Velocity":45,"Duration":68182,"SoundDuration":68182,"Delta":36230270},{"NoteNumber":88,"Velocity":45,"Duration":68182,"SoundDuration":68182,"Delta":36230270},{"NoteNumber":80,"Velocity":46,"Duration":67669,"SoundDuration":67669,"Delta":36298453},{"NoteNumber":87,"Velocity":46,"Duration":67669,"SoundDuration":67669,"Delta":36298453},{"NoteNumber":91,"Velocity":55,"Duration":67669,"SoundDuration":67669,"Delta":36298453},{"NoteNumber":100,"Velocity":56,"Duration":67164,"SoundDuration":67164,"Delta":36366123},{"NoteNumber":98,"Velocity":56,"Duration":67164,"SoundDuration":67164,"Delta":36366123},{"NoteNumber":92,"Velocity":47,"Duration":67164,"SoundDuration":67164,"Delta":36366123},{"NoteNumber":88,"Velocity":47,"Duration":67164,"SoundDuration":67164,"Delta":36366123},{"NoteNumber":86,"Velocity":47,"Duration":67164,"SoundDuration":67164,"Delta":36366123},{"NoteNumber":80,"Velocity":48,"Duration":66765,"SoundDuration":66765,"Delta":36433287},{"NoteNumber":87,"Velocity":48,"Duration":66765,"SoundDuration":66765,"Delta":36433287},{"NoteNumber":91,"Velocity":57,"Duration":66765,"SoundDuration":66765,"Delta":36433287},{"NoteNumber":100,"Velocity":58,"Duration":66274,"SoundDuration":66274,"Delta":36500053},{"NoteNumber":98,"Velocity":58,"Duration":66274,"SoundDuration":66274,"Delta":36500053},{"NoteNumber":92,"Velocity":49,"Duration":66274,"SoundDuration":66274,"Delta":36500053},{"NoteNumber":86,"Velocity":49,"Duration":66274,"SoundDuration":66274,"Delta":36500053},{"NoteNumber":88,"Velocity":49,"Duration":66274,"SoundDuration":66274,"Delta":36500053},{"NoteNumber":80,"Velocity":51,"Duration":65886,"SoundDuration":65886,"Delta":36566327},{"NoteNumber":87,"Velocity":51,"Duration":65886,"SoundDuration":65886,"Delta":36566327},{"NoteNumber":91,"Velocity":60,"Duration":65886,"SoundDuration":65886,"Delta":36566327},{"NoteNumber":100,"Velocity":61,"Duration":65407,"SoundDuration":65407,"Delta":36632213},{"NoteNumber":98,"Velocity":61,"Duration":65407,"SoundDuration":65407,"Delta":36632213},{"NoteNumber":92,"Velocity":51,"Duration":65407,"SoundDuration":65407,"Delta":36632213},{"NoteNumber":88,"Velocity":51,"Duration":65407,"SoundDuration":65407,"Delta":36632213},{"NoteNumber":86,"Velocity":51,"Duration":65407,"SoundDuration":65407,"Delta":36632213},{"NoteNumber":80,"Velocity":52,"Duration":65029,"SoundDuration":65029,"Delta":36697620},{"NoteNumber":87,"Velocity":52,"Duration":65029,"SoundDuration":65029,"Delta":36697620},{"NoteNumber":91,"Velocity":62,"Duration":65029,"SoundDuration":65029,"Delta":36697620},{"NoteNumber":100,"Velocity":63,"Duration":64562,"SoundDuration":64562,"Delta":36762650},{"NoteNumber":98,"Velocity":63,"Duration":64562,"SoundDuration":64562,"Delta":36762650},{"NoteNumber":92,"Velocity":53,"Duration":64562,"SoundDuration":64562,"Delta":36762650},{"NoteNumber":86,"Velocity":53,"Duration":64562,"SoundDuration":64562,"Delta":36762650},{"NoteNumber":88,"Velocity":53,"Duration":64562,"SoundDuration":64562,"Delta":36762650},{"NoteNumber":80,"Velocity":54,"Duration":64194,"SoundDuration":64194,"Delta":36827212},{"NoteNumber":87,"Velocity":54,"Duration":64194,"SoundDuration":64194,"Delta":36827212},{"NoteNumber":91,"Velocity":64,"Duration":64194,"SoundDuration":64194,"Delta":36827212},{"NoteNumber":100,"Velocity":65,"Duration":63739,"SoundDuration":63739,"Delta":36891406},{"NoteNumber":98,"Velocity":65,"Duration":63739,"SoundDuration":63739,"Delta":36891406},{"NoteNumber":92,"Velocity":55,"Duration":63739,"SoundDuration":63739,"Delta":36891406},{"NoteNumber":88,"Velocity":55,"Duration":63739,"SoundDuration":63739,"Delta":36891406},{"NoteNumber":86,"Velocity":55,"Duration":63739,"SoundDuration":63739,"Delta":36891406},{"NoteNumber":80,"Velocity":56,"Duration":63380,"SoundDuration":63380,"Delta":36955146},{"NoteNumber":87,"Velocity":56,"Duration":63380,"SoundDuration":63380,"Delta":36955146},{"NoteNumber":91,"Velocity":67,"Duration":63380,"SoundDuration":63380,"Delta":36955146},{"NoteNumber":100,"Velocity":68,"Duration":62919,"SoundDuration":62919,"Delta":37018527},{"NoteNumber":98,"Velocity":68,"Duration":62919,"SoundDuration":62919,"Delta":37018527},{"NoteNumber":92,"Velocity":57,"Duration":62919,"SoundDuration":62919,"Delta":37018527},{"NoteNumber":86,"Velocity":57,"Duration":62919,"SoundDuration":62919,"Delta":37018527},{"NoteNumber":88,"Velocity":57,"Duration":62919,"SoundDuration":62919,"Delta":37018527},{"NoteNumber":80,"Velocity":58,"Duration":61747,"SoundDuration":61747,"Delta":37081447},{"NoteNumber":87,"Velocity":58,"Duration":61747,"SoundDuration":61747,"Delta":37081447},{"NoteNumber":91,"Velocity":69,"Duration":61747,"SoundDuration":61747,"Delta":37081447},{"NoteNumber":100,"Velocity":70,"Duration":62659,"SoundDuration":62659,"Delta":37143194},{"NoteNumber":98,"Velocity":70,"Duration":62659,"SoundDuration":62659,"Delta":37143194},{"NoteNumber":92,"Velocity":59,"Duration":62659,"SoundDuration":62659,"Delta":37143194},{"NoteNumber":88,"Velocity":59,"Duration":62659,"SoundDuration":62659,"Delta":37143194},{"NoteNumber":86,"Velocity":59,"Duration":62659,"SoundDuration":62659,"Delta":37143194},{"NoteNumber":80,"Velocity":60,"Duration":61663,"SoundDuration":61663,"Delta":37205853},{"NoteNumber":87,"Velocity":60,"Duration":61663,"SoundDuration":61663,"Delta":37205853},{"NoteNumber":91,"Velocity":71,"Duration":61663,"SoundDuration":61663,"Delta":37205853},{"NoteNumber":100,"Velocity":72,"Duration":62658,"SoundDuration":62658,"Delta":37267516},{"NoteNumber":98,"Velocity":72,"Duration":62658,"SoundDuration":62658,"Delta":37267516},{"NoteNumber":92,"Velocity":61,"Duration":62658,"SoundDuration":62658,"Delta":37267516},{"NoteNumber":86,"Velocity":61,"Duration":62658,"SoundDuration":62658,"Delta":37267516},{"NoteNumber":88,"Velocity":61,"Duration":62658,"SoundDuration":62658,"Delta":37267516},{"NoteNumber":80,"Velocity":62,"Duration":61325,"SoundDuration":61325,"Delta":37330175},{"NoteNumber":87,"Velocity":62,"Duration":61325,"SoundDuration":61325,"Delta":37330175},{"NoteNumber":91,"Velocity":73,"Duration":61325,"SoundDuration":61325,"Delta":37330175},{"NoteNumber":100,"Velocity":74,"Duration":63004,"SoundDuration":63004,"Delta":37391501},{"NoteNumber":98,"Velocity":74,"Duration":63004,"SoundDuration":63004,"Delta":37391501},{"NoteNumber":92,"Velocity":62,"Duration":63004,"SoundDuration":63004,"Delta":37391501},{"NoteNumber":88,"Velocity":62,"Duration":63004,"SoundDuration":63004,"Delta":37391501},{"NoteNumber":86,"Velocity":62,"Duration":63004,"SoundDuration":63004,"Delta":37391501},{"NoteNumber":80,"Velocity":64,"Duration":62331,"SoundDuration":62331,"Delta":37454506},{"NoteNumber":87,"Velocity":64,"Duration":62331,"SoundDuration":62331,"Delta":37454506},{"NoteNumber":91,"Velocity":76,"Duration":62331,"SoundDuration":62331,"Delta":37454506},{"NoteNumber":100,"Velocity":77,"Duration":62158,"SoundDuration":62158,"Delta":37516837},{"NoteNumber":98,"Velocity":77,"Duration":62158,"SoundDuration":62158,"Delta":37516837},{"NoteNumber":92,"Velocity":65,"Duration":62158,"SoundDuration":62158,"Delta":37516837},{"NoteNumber":86,"Velocity":65,"Duration":62158,"SoundDuration":62158,"Delta":37516837},{"NoteNumber":88,"Velocity":65,"Duration":62158,"SoundDuration":62158,"Delta":37516837},{"NoteNumber":80,"Velocity":66,"Duration":62854,"SoundDuration":62854,"Delta":37578995},{"NoteNumber":87,"Velocity":66,"Duration":62854,"SoundDuration":62854,"Delta":37578995},{"NoteNumber":91,"Velocity":78,"Duration":62854,"SoundDuration":62854,"Delta":37578995},{"NoteNumber":100,"Velocity":79,"Duration":61143,"SoundDuration":61143,"Delta":37641849},{"NoteNumber":98,"Velocity":79,"Duration":61143,"SoundDuration":61143,"Delta":37641849},{"NoteNumber":92,"Velocity":67,"Duration":61143,"SoundDuration":61143,"Delta":37641849},{"NoteNumber":88,"Velocity":67,"Duration":61143,"SoundDuration":61143,"Delta":37641849},{"NoteNumber":86,"Velocity":67,"Duration":61143,"SoundDuration":61143,"Delta":37641849},{"NoteNumber":80,"Velocity":68,"Duration":62019,"SoundDuration":62019,"Delta":37702993},{"NoteNumber":87,"Velocity":68,"Duration":62019,"SoundDuration":62019,"Delta":37702993},{"NoteNumber":91,"Velocity":80,"Duration":62019,"SoundDuration":62019,"Delta":37702993},{"NoteNumber":100,"Velocity":81,"Duration":60759,"SoundDuration":60759,"Delta":37765012},{"NoteNumber":98,"Velocity":81,"Duration":60759,"SoundDuration":60759,"Delta":37765012},{"NoteNumber":92,"Velocity":68,"Duration":60759,"SoundDuration":60759,"Delta":37765012},{"NoteNumber":86,"Velocity":68,"Duration":60759,"SoundDuration":60759,"Delta":37765012},{"NoteNumber":88,"Velocity":68,"Duration":60759,"SoundDuration":60759,"Delta":37765012},{"NoteNumber":80,"Velocity":70,"Duration":60713,"SoundDuration":60713,"Delta":37825772},{"NoteNumber":87,"Velocity":70,"Duration":60713,"SoundDuration":60713,"Delta":37825772},{"NoteNumber":91,"Velocity":83,"Duration":60713,"SoundDuration":60713,"Delta":37825772},{"NoteNumber":100,"Velocity":84,"Duration":59880,"SoundDuration":59880,"Delta":37886485},{"NoteNumber":98,"Velocity":84,"Duration":59880,"SoundDuration":59880,"Delta":37886485},{"NoteNumber":92,"Velocity":84,"Duration":59880,"SoundDuration":59880,"Delta":37886485},{"NoteNumber":88,"Velocity":71,"Duration":59880,"SoundDuration":59880,"Delta":37886485},{"NoteNumber":86,"Velocity":71,"Duration":59880,"SoundDuration":59880,"Delta":37886485},{"NoteNumber":80,"Velocity":72,"Duration":59971,"SoundDuration":59971,"Delta":37946365},{"NoteNumber":87,"Velocity":72,"Duration":59971,"SoundDuration":59971,"Delta":37946365},{"NoteNumber":91,"Velocity":85,"Duration":59971,"SoundDuration":59971,"Delta":37946365},{"NoteNumber":100,"Velocity":86,"Duration":60241,"SoundDuration":60241,"Delta":38006337},{"NoteNumber":98,"Velocity":86,"Duration":60241,"SoundDuration":60241,"Delta":38006337},{"NoteNumber":92,"Velocity":73,"Duration":60241,"SoundDuration":60241,"Delta":38006337},{"NoteNumber":86,"Velocity":73,"Duration":60241,"SoundDuration":60241,"Delta":38006337},{"NoteNumber":88,"Velocity":73,"Duration":60241,"SoundDuration":60241,"Delta":38006337},{"NoteNumber":80,"Velocity":73,"Duration":60849,"SoundDuration":60849,"Delta":38066578},{"NoteNumber":87,"Velocity":73,"Duration":60849,"SoundDuration":60849,"Delta":38066578},{"NoteNumber":91,"Velocity":87,"Duration":60849,"SoundDuration":60849,"Delta":38066578},{"NoteNumber":100,"Velocity":88,"Duration":62227,"SoundDuration":62227,"Delta":38127427},{"NoteNumber":98,"Velocity":88,"Duration":62227,"SoundDuration":62227,"Delta":38127427},{"NoteNumber":92,"Velocity":74,"Duration":62227,"SoundDuration":62227,"Delta":38127427},{"NoteNumber":88,"Velocity":74,"Duration":62227,"SoundDuration":62227,"Delta":38127427},{"NoteNumber":86,"Velocity":74,"Duration":62227,"SoundDuration":62227,"Delta":38127427},{"NoteNumber":80,"Velocity":75,"Duration":61613,"SoundDuration":61613,"Delta":38189655},{"NoteNumber":87,"Velocity":75,"Duration":61613,"SoundDuration":61613,"Delta":38189655},{"NoteNumber":91,"Velocity":89,"Duration":61613,"SoundDuration":61613,"Delta":38189655},{"NoteNumber":100,"Velocity":90,"Duration":62413,"SoundDuration":62413,"Delta":38251269},{"NoteNumber":98,"Velocity":90,"Duration":62413,"SoundDuration":62413,"Delta":38251269},{"NoteNumber":92,"Velocity":76,"Duration":62413,"SoundDuration":62413,"Delta":38251269},{"NoteNumber":86,"Velocity":76,"Duration":62413,"SoundDuration":62413,"Delta":38251269},{"NoteNumber":88,"Velocity":76,"Duration":62413,"SoundDuration":62413,"Delta":38251269},{"NoteNumber":80,"Velocity":78,"Duration":62134,"SoundDuration":62134,"Delta":38313683},{"NoteNumber":87,"Velocity":78,"Duration":62134,"SoundDuration":62134,"Delta":38313683},{"NoteNumber":91,"Velocity":92,"Duration":62134,"SoundDuration":62134,"Delta":38313683},{"NoteNumber":100,"Velocity":93,"Duration":63829,"SoundDuration":63829,"Delta":38375817},{"NoteNumber":98,"Velocity":93,"Duration":63829,"SoundDuration":63829,"Delta":38375817},{"NoteNumber":92,"Velocity":79,"Duration":63829,"SoundDuration":63829,"Delta":38375817},{"NoteNumber":88,"Velocity":79,"Duration":63829,"SoundDuration":63829,"Delta":38375817},{"NoteNumber":86,"Velocity":79,"Duration":63829,"SoundDuration":63829,"Delta":38375817},{"NoteNumber":80,"Velocity":79,"Duration":62908,"SoundDuration":62908,"Delta":38439647},{"NoteNumber":87,"Velocity":79,"Duration":62908,"SoundDuration":62908,"Delta":38439647},{"NoteNumber":91,"Velocity":94,"Duration":62908,"SoundDuration":62908,"Delta":38439647},{"NoteNumber":100,"Velocity":95,"Duration":61126,"SoundDuration":61126,"Delta":38502555},{"NoteNumber":98,"Velocity":95,"Duration":61126,"SoundDuration":61126,"Delta":38502555},{"NoteNumber":92,"Velocity":80,"Duration":61126,"SoundDuration":61126,"Delta":38502555},{"NoteNumber":86,"Velocity":80,"Duration":61126,"SoundDuration":61126,"Delta":38502555},{"NoteNumber":88,"Velocity":80,"Duration":61126,"SoundDuration":61126,"Delta":38502555},{"NoteNumber":80,"Velocity":79,"Duration":62242,"SoundDuration":62242,"Delta":38563682},{"NoteNumber":87,"Velocity":79,"Duration":62242,"SoundDuration":62242,"Delta":38563682},{"NoteNumber":91,"Velocity":94,"Duration":62242,"SoundDuration":62242,"Delta":38563682},{"NoteNumber":100,"Velocity":93,"Duration":62587,"SoundDuration":62587,"Delta":38625924},{"NoteNumber":98,"Velocity":93,"Duration":62587,"SoundDuration":62587,"Delta":38625924},{"NoteNumber":92,"Velocity":79,"Duration":62587,"SoundDuration":62587,"Delta":38625924},{"NoteNumber":88,"Velocity":79,"Duration":62587,"SoundDuration":62587,"Delta":38625924},{"NoteNumber":86,"Velocity":79,"Duration":62587,"SoundDuration":62587,"Delta":38625924},{"NoteNumber":80,"Velocity":77,"Duration":63291,"SoundDuration":63291,"Delta":38688511},{"NoteNumber":87,"Velocity":77,"Duration":63291,"SoundDuration":63291,"Delta":38688511},{"NoteNumber":91,"Velocity":91,"Duration":63291,"SoundDuration":63291,"Delta":38688511},{"NoteNumber":100,"Velocity":90,"Duration":62575,"SoundDuration":62575,"Delta":38751803},{"NoteNumber":98,"Velocity":90,"Duration":62575,"SoundDuration":62575,"Delta":38751803},{"NoteNumber":92,"Velocity":76,"Duration":62575,"SoundDuration":62575,"Delta":38751803},{"NoteNumber":86,"Velocity":76,"Duration":62575,"SoundDuration":62575,"Delta":38751803},{"NoteNumber":88,"Velocity":76,"Duration":62575,"SoundDuration":62575,"Delta":38751803},{"NoteNumber":80,"Velocity":74,"Duration":61208,"SoundDuration":61208,"Delta":38814378},{"NoteNumber":87,"Velocity":74,"Duration":61208,"SoundDuration":61208,"Delta":38814378},{"NoteNumber":91,"Velocity":88,"Duration":61208,"SoundDuration":61208,"Delta":38814378},{"NoteNumber":100,"Velocity":87,"Duration":62467,"SoundDuration":62467,"Delta":38875586},{"NoteNumber":98,"Velocity":87,"Duration":62467,"SoundDuration":62467,"Delta":38875586},{"NoteNumber":92,"Velocity":73,"Duration":62467,"SoundDuration":62467,"Delta":38875586},{"NoteNumber":88,"Velocity":73,"Duration":62467,"SoundDuration":62467,"Delta":38875586},{"NoteNumber":86,"Velocity":73,"Duration":62467,"SoundDuration":62467,"Delta":38875586},{"NoteNumber":80,"Velocity":72,"Duration":61647,"SoundDuration":61647,"Delta":38938054},{"NoteNumber":87,"Velocity":72,"Duration":61647,"SoundDuration":61647,"Delta":38938054},{"NoteNumber":91,"Velocity":85,"Duration":61647,"SoundDuration":61647,"Delta":38938054},{"NoteNumber":100,"Velocity":83,"Duration":62486,"SoundDuration":62486,"Delta":38999702},{"NoteNumber":98,"Velocity":83,"Duration":62486,"SoundDuration":62486,"Delta":38999702},{"NoteNumber":92,"Velocity":70,"Duration":62486,"SoundDuration":62486,"Delta":38999702},{"NoteNumber":86,"Velocity":70,"Duration":62486,"SoundDuration":62486,"Delta":38999702},{"NoteNumber":88,"Velocity":70,"Duration":62486,"SoundDuration":62486,"Delta":38999702},{"NoteNumber":80,"Velocity":68,"Duration":61867,"SoundDuration":61867,"Delta":39062188},{"NoteNumber":87,"Velocity":68,"Duration":61867,"SoundDuration":61867,"Delta":39062188},{"NoteNumber":91,"Velocity":81,"Duration":61867,"SoundDuration":61867,"Delta":39062188},{"NoteNumber":100,"Velocity":80,"Duration":61075,"SoundDuration":61075,"Delta":39124056},{"NoteNumber":98,"Velocity":80,"Duration":61075,"SoundDuration":61075,"Delta":39124056},{"NoteNumber":92,"Velocity":68,"Duration":61075,"SoundDuration":61075,"Delta":39124056},{"NoteNumber":88,"Velocity":68,"Duration":61075,"SoundDuration":61075,"Delta":39124056},{"NoteNumber":86,"Velocity":68,"Duration":61075,"SoundDuration":61075,"Delta":39124056},{"NoteNumber":80,"Velocity":66,"Duration":62745,"SoundDuration":62745,"Delta":39185132},{"NoteNumber":87,"Velocity":66,"Duration":62745,"SoundDuration":62745,"Delta":39185132},{"NoteNumber":91,"Velocity":78,"Duration":62745,"SoundDuration":62745,"Delta":39185132},{"NoteNumber":100,"Velocity":77,"Duration":62503,"SoundDuration":62503,"Delta":39247878},{"NoteNumber":98,"Velocity":77,"Duration":62503,"SoundDuration":62503,"Delta":39247878},{"NoteNumber":92,"Velocity":65,"Duration":62503,"SoundDuration":62503,"Delta":39247878},{"NoteNumber":86,"Velocity":65,"Duration":62503,"SoundDuration":62503,"Delta":39247878},{"NoteNumber":88,"Velocity":65,"Duration":62503,"SoundDuration":62503,"Delta":39247878},{"NoteNumber":80,"Velocity":63,"Duration":63025,"SoundDuration":63025,"Delta":39310382},{"NoteNumber":87,"Velocity":63,"Duration":63025,"SoundDuration":63025,"Delta":39310382},{"NoteNumber":91,"Velocity":75,"Duration":63025,"SoundDuration":63025,"Delta":39310382},{"NoteNumber":100,"Velocity":73,"Duration":63469,"SoundDuration":63469,"Delta":39373407},{"NoteNumber":98,"Velocity":73,"Duration":63469,"SoundDuration":63469,"Delta":39373407},{"NoteNumber":92,"Velocity":62,"Duration":63469,"SoundDuration":63469,"Delta":39373407},{"NoteNumber":88,"Velocity":62,"Duration":63469,"SoundDuration":63469,"Delta":39373407},{"NoteNumber":86,"Velocity":62,"Duration":63469,"SoundDuration":63469,"Delta":39373407},{"NoteNumber":80,"Velocity":61,"Duration":63920,"SoundDuration":63920,"Delta":39436877},{"NoteNumber":87,"Velocity":61,"Duration":63920,"SoundDuration":63920,"Delta":39436877},{"NoteNumber":91,"Velocity":72,"Duration":63920,"SoundDuration":63920,"Delta":39436877},{"NoteNumber":100,"Velocity":70,"Duration":64285,"SoundDuration":64285,"Delta":39500798},{"NoteNumber":98,"Velocity":70,"Duration":64285,"SoundDuration":64285,"Delta":39500798},{"NoteNumber":92,"Velocity":59,"Duration":64285,"SoundDuration":64285,"Delta":39500798},{"NoteNumber":86,"Velocity":59,"Duration":64285,"SoundDuration":64285,"Delta":39500798},{"NoteNumber":88,"Velocity":59,"Duration":64285,"SoundDuration":64285,"Delta":39500798},{"NoteNumber":80,"Velocity":57,"Duration":64841,"SoundDuration":64841,"Delta":39565084},{"NoteNumber":87,"Velocity":57,"Duration":64841,"SoundDuration":64841,"Delta":39565084},{"NoteNumber":91,"Velocity":68,"Duration":64841,"SoundDuration":64841,"Delta":39565084},{"NoteNumber":100,"Velocity":67,"Duration":65312,"SoundDuration":65312,"Delta":39629926},{"NoteNumber":98,"Velocity":67,"Duration":65312,"SoundDuration":65312,"Delta":39629926},{"NoteNumber":92,"Velocity":56,"Duration":65312,"SoundDuration":65312,"Delta":39629926},{"NoteNumber":88,"Velocity":56,"Duration":65312,"SoundDuration":65312,"Delta":39629926},{"NoteNumber":86,"Velocity":56,"Duration":65312,"SoundDuration":65312,"Delta":39629926},{"NoteNumber":80,"Velocity":55,"Duration":65790,"SoundDuration":65790,"Delta":39695238},{"NoteNumber":87,"Velocity":55,"Duration":65790,"SoundDuration":65790,"Delta":39695238},{"NoteNumber":91,"Velocity":65,"Duration":65790,"SoundDuration":65790,"Delta":39695238},{"NoteNumber":100,"Velocity":64,"Duration":66274,"SoundDuration":66274,"Delta":39761028},{"NoteNumber":98,"Velocity":64,"Duration":66274,"SoundDuration":66274,"Delta":39761028},{"NoteNumber":92,"Velocity":54,"Duration":66274,"SoundDuration":66274,"Delta":39761028},{"NoteNumber":86,"Velocity":54,"Duration":66274,"SoundDuration":66274,"Delta":39761028},{"NoteNumber":88,"Velocity":54,"Duration":66274,"SoundDuration":66274,"Delta":39761028},{"NoteNumber":80,"Velocity":52,"Duration":66765,"SoundDuration":66765,"Delta":39827303},{"NoteNumber":87,"Velocity":52,"Duration":66765,"SoundDuration":66765,"Delta":39827303},{"NoteNumber":91,"Velocity":62,"Duration":66765,"SoundDuration":66765,"Delta":39827303},{"NoteNumber":100,"Velocity":60,"Duration":67265,"SoundDuration":67265,"Delta":39894068},{"NoteNumber":98,"Velocity":60,"Duration":67265,"SoundDuration":67265,"Delta":39894068},{"NoteNumber":92,"Velocity":51,"Duration":67265,"SoundDuration":67265,"Delta":39894068},{"NoteNumber":88,"Velocity":51,"Duration":67265,"SoundDuration":67265,"Delta":39894068},{"NoteNumber":86,"Velocity":51,"Duration":67265,"SoundDuration":67265,"Delta":39894068},{"NoteNumber":80,"Velocity":50,"Duration":67771,"SoundDuration":67771,"Delta":39961334},{"NoteNumber":87,"Velocity":50,"Duration":67771,"SoundDuration":67771,"Delta":39961334},{"NoteNumber":91,"Velocity":59,"Duration":67771,"SoundDuration":67771,"Delta":39961334},{"NoteNumber":100,"Velocity":57,"Duration":68285,"SoundDuration":68285,"Delta":40029105},{"NoteNumber":98,"Velocity":57,"Duration":68285,"SoundDuration":68285,"Delta":40029105},{"NoteNumber":92,"Velocity":48,"Duration":68285,"SoundDuration":68285,"Delta":40029105},{"NoteNumber":86,"Velocity":48,"Duration":68285,"SoundDuration":68285,"Delta":40029105},{"NoteNumber":88,"Velocity":48,"Duration":68285,"SoundDuration":68285,"Delta":40029105},{"NoteNumber":80,"Velocity":46,"Duration":69125,"SoundDuration":69125,"Delta":40097391},{"NoteNumber":87,"Velocity":46,"Duration":69125,"SoundDuration":69125,"Delta":40097391},{"NoteNumber":91,"Velocity":55,"Duration":69125,"SoundDuration":69125,"Delta":40097391},{"NoteNumber":100,"Velocity":54,"Duration":70094,"SoundDuration":70094,"Delta":40166516},{"NoteNumber":98,"Velocity":54,"Duration":70094,"SoundDuration":70094,"Delta":40166516},{"NoteNumber":92,"Velocity":45,"Duration":70094,"SoundDuration":70094,"Delta":40166516},{"NoteNumber":88,"Velocity":45,"Duration":70094,"SoundDuration":70094,"Delta":40166516},{"NoteNumber":86,"Velocity":45,"Duration":70094,"SoundDuration":70094,"Delta":40166516},{"NoteNumber":80,"Velocity":44,"Duration":71317,"SoundDuration":71317,"Delta":40236611},{"NoteNumber":87,"Velocity":44,"Duration":71317,"SoundDuration":71317,"Delta":40236611},{"NoteNumber":91,"Velocity":52,"Duration":71317,"SoundDuration":71317,"Delta":40236611},{"NoteNumber":100,"Velocity":51,"Duration":72464,"SoundDuration":72464,"Delta":40307929},{"NoteNumber":98,"Velocity":51,"Duration":72464,"SoundDuration":72464,"Delta":40307929},{"NoteNumber":92,"Velocity":43,"Duration":72464,"SoundDuration":72464,"Delta":40307929},{"NoteNumber":86,"Velocity":43,"Duration":72464,"SoundDuration":72464,"Delta":40307929},{"NoteNumber":88,"Velocity":43,"Duration":72464,"SoundDuration":72464,"Delta":40307929},{"NoteNumber":80,"Velocity":41,"Duration":73652,"SoundDuration":73652,"Delta":40380394},{"NoteNumber":87,"Velocity":41,"Duration":73652,"SoundDuration":73652,"Delta":40380394},{"NoteNumber":91,"Velocity":49,"Duration":73652,"SoundDuration":73652,"Delta":40380394},{"NoteNumber":100,"Velocity":47,"Duration":75001,"SoundDuration":75001,"Delta":40454046},{"NoteNumber":98,"Velocity":47,"Duration":75001,"SoundDuration":75001,"Delta":40454046},{"NoteNumber":92,"Velocity":39,"Duration":75001,"SoundDuration":75001,"Delta":40454046},{"NoteNumber":88,"Velocity":39,"Duration":75001,"SoundDuration":75001,"Delta":40454046},{"NoteNumber":86,"Velocity":39,"Duration":75001,"SoundDuration":75001,"Delta":40454046},{"NoteNumber":80,"Velocity":39,"Duration":76143,"SoundDuration":76143,"Delta":40529047},{"NoteNumber":87,"Velocity":39,"Duration":76143,"SoundDuration":76143,"Delta":40529047},{"NoteNumber":91,"Velocity":46,"Duration":76143,"SoundDuration":76143,"Delta":40529047},{"NoteNumber":100,"Velocity":44,"Duration":77721,"SoundDuration":77721,"Delta":40605191},{"NoteNumber":98,"Velocity":44,"Duration":77721,"SoundDuration":77721,"Delta":40605191},{"NoteNumber":92,"Velocity":37,"Duration":77721,"SoundDuration":77721,"Delta":40605191},{"NoteNumber":86,"Velocity":37,"Duration":77721,"SoundDuration":77721,"Delta":40605191},{"NoteNumber":88,"Velocity":37,"Duration":77721,"SoundDuration":77721,"Delta":40605191},{"NoteNumber":80,"Velocity":35,"Duration":78948,"SoundDuration":78948,"Delta":40682912},{"NoteNumber":87,"Velocity":35,"Duration":78948,"SoundDuration":78948,"Delta":40682912},{"NoteNumber":91,"Velocity":42,"Duration":78948,"SoundDuration":78948,"Delta":40682912},{"NoteNumber":100,"Velocity":41,"Duration":80504,"SoundDuration":80504,"Delta":40761861},{"NoteNumber":98,"Velocity":41,"Duration":80504,"SoundDuration":80504,"Delta":40761861},{"NoteNumber":92,"Velocity":34,"Duration":80504,"SoundDuration":80504,"Delta":40761861},{"NoteNumber":88,"Velocity":34,"Duration":80504,"SoundDuration":80504,"Delta":40761861},{"NoteNumber":86,"Velocity":34,"Duration":80504,"SoundDuration":80504,"Delta":40761861},{"NoteNumber":80,"Velocity":33,"Duration":81968,"SoundDuration":81968,"Delta":40842366},{"NoteNumber":87,"Velocity":33,"Duration":81968,"SoundDuration":81968,"Delta":40842366},{"NoteNumber":91,"Velocity":39,"Duration":81968,"SoundDuration":81968,"Delta":40842366},{"NoteNumber":100,"Velocity":38,"Duration":83491,"SoundDuration":83491,"Delta":40924335},{"NoteNumber":98,"Velocity":38,"Duration":83491,"SoundDuration":83491,"Delta":40924335},{"NoteNumber":92,"Velocity":32,"Duration":83491,"SoundDuration":83491,"Delta":40924335},{"NoteNumber":86,"Velocity":32,"Duration":83491,"SoundDuration":83491,"Delta":40924335},{"NoteNumber":88,"Velocity":32,"Duration":83491,"SoundDuration":83491,"Delta":40924335},{"NoteNumber":63,"Velocity":53,"Duration":265486,"SoundDuration":265486,"Delta":43579256},{"NoteNumber":70,"Velocity":53,"Duration":509388,"SoundDuration":509388,"Delta":43579256},{"NoteNumber":75,"Velocity":63,"Duration":265486,"SoundDuration":265486,"Delta":43579256},{"NoteNumber":39,"Velocity":55,"Duration":88495,"SoundDuration":88495,"Delta":43579256},{"NoteNumber":46,"Velocity":58,"Duration":88495,"SoundDuration":88495,"Delta":43667751},{"NoteNumber":51,"Velocity":61,"Duration":88495,"SoundDuration":88495,"Delta":43756247},{"NoteNumber":64,"Velocity":68,"Duration":243902,"SoundDuration":243902,"Delta":43844742},{"NoteNumber":76,"Velocity":81,"Duration":243902,"SoundDuration":243902,"Delta":43844742},{"NoteNumber":55,"Velocity":64,"Duration":81300,"SoundDuration":81300,"Delta":43844742},{"NoteNumber":58,"Velocity":67,"Duration":81300,"SoundDuration":81300,"Delta":43926043},{"NoteNumber":63,"Velocity":70,"Duration":81300,"SoundDuration":81300,"Delta":44007344},{"NoteNumber":75,"Velocity":85,"Duration":589025,"SoundDuration":589025,"Delta":44088645},{"NoteNumber":82,"Velocity":85,"Duration":589025,"SoundDuration":589025,"Delta":44088645},{"NoteNumber":87,"Velocity":101,"Duration":589025,"SoundDuration":589025,"Delta":44088645},{"NoteNumber":67,"Velocity":73,"Duration":79523,"SoundDuration":79523,"Delta":44088645},{"NoteNumber":70,"Velocity":76,"Duration":78818,"SoundDuration":78818,"Delta":44168168},{"NoteNumber":75,"Velocity":79,"Duration":78125,"SoundDuration":78125,"Delta":44246986},{"NoteNumber":79,"Velocity":82,"Duration":77519,"SoundDuration":77519,"Delta":44325112},{"NoteNumber":75,"Velocity":80,"Duration":77519,"SoundDuration":77519,"Delta":44402631},{"NoteNumber":70,"Velocity":78,"Duration":77519,"SoundDuration":77519,"Delta":44480151},{"NoteNumber":67,"Velocity":76,"Duration":79999,"SoundDuration":79999,"Delta":44557670},{"NoteNumber":63,"Velocity":74,"Duration":79999,"SoundDuration":79999,"Delta":44637670},{"NoteNumber":85,"Velocity":89,"Duration":120000,"SoundDuration":120000,"Delta":44677670},{"NoteNumber":73,"Velocity":74,"Duration":120000,"SoundDuration":120000,"Delta":44677670},{"NoteNumber":58,"Velocity":72,"Duration":80000,"SoundDuration":80000,"Delta":44717670},{"NoteNumber":71,"Velocity":68,"Duration":240000,"SoundDuration":240000,"Delta":44797670},{"NoteNumber":83,"Velocity":81,"Duration":240000,"SoundDuration":240000,"Delta":44797670},{"NoteNumber":55,"Velocity":70,"Duration":79999,"SoundDuration":79999,"Delta":44797670},{"NoteNumber":51,"Velocity":68,"Duration":79999,"SoundDuration":79999,"Delta":44877670},{"NoteNumber":46,"Velocity":66,"Duration":80000,"SoundDuration":80000,"Delta":44957670},{"NoteNumber":75,"Velocity":74,"Duration":496167,"SoundDuration":496167,"Delta":45037670},{"NoteNumber":70,"Velocity":74,"Duration":254983,"SoundDuration":254983,"Delta":45037670},{"NoteNumber":82,"Velocity":88,"Duration":254983,"SoundDuration":254983,"Delta":45037670},{"NoteNumber":39,"Velocity":64,"Duration":79999,"SoundDuration":79999,"Delta":45037670},{"NoteNumber":47,"Velocity":63,"Duration":85248,"SoundDuration":85248,"Delta":45117670},{"NoteNumber":52,"Velocity":62,"Duration":89734,"SoundDuration":89734,"Delta":45202919},{"NoteNumber":68,"Velocity":68,"Duration":241184,"SoundDuration":241184,"Delta":45292653},{"NoteNumber":80,"Velocity":82,"Duration":241184,"SoundDuration":241184,"Delta":45292653},{"NoteNumber":56,"Velocity":59,"Duration":80321,"SoundDuration":80321,"Delta":45292653},{"NoteNumber":59,"Velocity":58,"Duration":80321,"SoundDuration":80321,"Delta":45372975},{"NoteNumber":64,"Velocity":57,"Duration":80541,"SoundDuration":80541,"Delta":45453296},{"NoteNumber":63,"Velocity":66,"Duration":250252,"SoundDuration":250252,"Delta":45533838},{"NoteNumber":75,"Velocity":78,"Duration":250252,"SoundDuration":250252,"Delta":45533838},{"NoteNumber":59,"Velocity":56,"Duration":82036,"SoundDuration":82036,"Delta":45533838},{"NoteNumber":56,"Velocity":58,"Duration":83405,"SoundDuration":83405,"Delta":45615874},{"NoteNumber":52,"Velocity":56,"Duration":84810,"SoundDuration":84810,"Delta":45699280},{"NoteNumber":68,"Velocity":64,"Duration":512821,"SoundDuration":512821,"Delta":45784090},{"NoteNumber":63,"Velocity":64,"Duration":256410,"SoundDuration":256410,"Delta":45784090},{"NoteNumber":75,"Velocity":77,"Duration":256410,"SoundDuration":256410,"Delta":45784090},{"NoteNumber":37,"Velocity":52,"Duration":85470,"SoundDuration":85470,"Delta":45784090},{"NoteNumber":44,"Velocity":55,"Duration":85470,"SoundDuration":85470,"Delta":45869560},{"NoteNumber":49,"Velocity":59,"Duration":85470,"SoundDuration":85470,"Delta":45955030},{"NoteNumber":64,"Velocity":75,"Duration":256410,"SoundDuration":256410,"Delta":46040500},{"NoteNumber":76,"Velocity":89,"Duration":256410,"SoundDuration":256410,"Delta":46040500},{"NoteNumber":52,"Velocity":63,"Duration":85470,"SoundDuration":85470,"Delta":46040500},{"NoteNumber":56,"Velocity":67,"Duration":85470,"SoundDuration":85470,"Delta":46125971},{"NoteNumber":61,"Velocity":68,"Duration":85470,"SoundDuration":85470,"Delta":46211441},{"NoteNumber":70,"Velocity":82,"Duration":256410,"SoundDuration":256410,"Delta":46296911},{"NoteNumber":75,"Velocity":84,"Duration":256410,"SoundDuration":256410,"Delta":46296911},{"NoteNumber":82,"Velocity":93,"Duration":256410,"SoundDuration":256410,"Delta":46296911},{"NoteNumber":65,"Velocity":71,"Duration":85470,"SoundDuration":85470,"Delta":46296911},{"NoteNumber":68,"Velocity":75,"Duration":85470,"SoundDuration":85470,"Delta":46382381},{"NoteNumber":73,"Velocity":78,"Duration":85470,"SoundDuration":85470,"Delta":46467851},{"NoteNumber":77,"Velocity":81,"Duration":83423,"SoundDuration":83423,"Delta":46553321},{"NoteNumber":73,"Velocity":77,"Duration":81636,"SoundDuration":81636,"Delta":46636745},{"NoteNumber":68,"Velocity":73,"Duration":79763,"SoundDuration":79763,"Delta":46718381},{"NoteNumber":65,"Velocity":70,"Duration":78127,"SoundDuration":78127,"Delta":46798144},{"NoteNumber":61,"Velocity":67,"Duration":76411,"SoundDuration":76411,"Delta":46876272},{"NoteNumber":56,"Velocity":64,"Duration":74838,"SoundDuration":74838,"Delta":46952684},{"NoteNumber":53,"Velocity":62,"Duration":73329,"SoundDuration":73329,"Delta":47027522},{"NoteNumber":49,"Velocity":60,"Duration":71879,"SoundDuration":71879,"Delta":47100851},{"NoteNumber":44,"Velocity":60,"Duration":70388,"SoundDuration":70388,"Delta":47172731},{"NoteNumber":37,"Velocity":53,"Duration":103203,"SoundDuration":103203,"Delta":47243120},{"NoteNumber":44,"Velocity":53,"Duration":103737,"SoundDuration":103737,"Delta":47346323},{"NoteNumber":51,"Velocity":56,"Duration":2499503,"SoundDuration":2499503,"Delta":47450060},{"NoteNumber":58,"Velocity":70,"Duration":2499503,"SoundDuration":2499503,"Delta":47450060},{"NoteNumber":49,"Velocity":53,"Duration":103789,"SoundDuration":103789,"Delta":47450060},{"NoteNumber":53,"Velocity":52,"Duration":104110,"SoundDuration":104110,"Delta":47553850},{"NoteNumber":49,"Velocity":52,"Duration":104280,"SoundDuration":104280,"Delta":47657960},{"NoteNumber":44,"Velocity":52,"Duration":104566,"SoundDuration":104566,"Delta":47762240},{"NoteNumber":37,"Velocity":56,"Duration":103583,"SoundDuration":103583,"Delta":47866807},{"NoteNumber":44,"Velocity":51,"Duration":104724,"SoundDuration":104724,"Delta":47970391},{"NoteNumber":49,"Velocity":51,"Duration":102955,"SoundDuration":102955,"Delta":48075116},{"NoteNumber":53,"Velocity":50,"Duration":105278,"SoundDuration":105278,"Delta":48178071},{"NoteNumber":49,"Velocity":50,"Duration":104390,"SoundDuration":104390,"Delta":48283349},{"NoteNumber":44,"Velocity":50,"Duration":103825,"SoundDuration":103825,"Delta":48387740},{"NoteNumber":37,"Velocity":53,"Duration":104677,"SoundDuration":104677,"Delta":48491565},{"NoteNumber":44,"Velocity":49,"Duration":103450,"SoundDuration":103450,"Delta":48596242},{"NoteNumber":49,"Velocity":49,"Duration":104811,"SoundDuration":104811,"Delta":48699693},{"NoteNumber":53,"Velocity":49,"Duration":103581,"SoundDuration":103581,"Delta":48804504},{"NoteNumber":49,"Velocity":48,"Duration":104765,"SoundDuration":104765,"Delta":48908086},{"NoteNumber":44,"Velocity":48,"Duration":104269,"SoundDuration":104269,"Delta":49012852},{"NoteNumber":37,"Velocity":51,"Duration":102752,"SoundDuration":102752,"Delta":49117122},{"NoteNumber":44,"Velocity":47,"Duration":104408,"SoundDuration":104408,"Delta":49219874},{"NoteNumber":49,"Velocity":47,"Duration":103381,"SoundDuration":103381,"Delta":49324283},{"NoteNumber":53,"Velocity":47,"Duration":104315,"SoundDuration":104315,"Delta":49427664},{"NoteNumber":49,"Velocity":46,"Duration":104640,"SoundDuration":104640,"Delta":49531980},{"NoteNumber":44,"Velocity":46,"Duration":103107,"SoundDuration":103107,"Delta":49636620},{"NoteNumber":37,"Velocity":50,"Duration":105240,"SoundDuration":105240,"Delta":49739728},{"NoteNumber":44,"Velocity":45,"Duration":104595,"SoundDuration":104595,"Delta":49844968},{"NoteNumber":47,"Velocity":47,"Duration":1868090,"SoundDuration":1868090,"Delta":49949564},{"NoteNumber":53,"Velocity":57,"Duration":1868090,"SoundDuration":1868090,"Delta":49949564},{"NoteNumber":49,"Velocity":45,"Duration":102869,"SoundDuration":102869,"Delta":49949564},{"NoteNumber":44,"Velocity":45,"Duration":104398,"SoundDuration":104398,"Delta":50052434},{"NoteNumber":37,"Velocity":49,"Duration":103160,"SoundDuration":103160,"Delta":50156832},{"NoteNumber":44,"Velocity":44,"Duration":105290,"SoundDuration":105290,"Delta":50259993},{"NoteNumber":49,"Velocity":49,"Duration":102800,"SoundDuration":102800,"Delta":50365283},{"NoteNumber":44,"Velocity":43,"Duration":104023,"SoundDuration":104023,"Delta":50468083},{"NoteNumber":37,"Velocity":43,"Duration":104166,"SoundDuration":104166,"Delta":50572106},{"NoteNumber":44,"Velocity":43,"Duration":103143,"SoundDuration":103143,"Delta":50676273},{"NoteNumber":49,"Velocity":46,"Duration":102272,"SoundDuration":102272,"Delta":50779417},{"NoteNumber":44,"Velocity":42,"Duration":101729,"SoundDuration":101729,"Delta":50881690},{"NoteNumber":37,"Velocity":46,"Duration":104580,"SoundDuration":104580,"Delta":50983420},{"NoteNumber":44,"Velocity":41,"Duration":104894,"SoundDuration":104894,"Delta":51088000},{"NoteNumber":49,"Velocity":41,"Duration":104809,"SoundDuration":104809,"Delta":51192895},{"NoteNumber":44,"Velocity":41,"Duration":102912,"SoundDuration":102912,"Delta":51297705},{"NoteNumber":37,"Velocity":46,"Duration":104291,"SoundDuration":104291,"Delta":51400617},{"NoteNumber":44,"Velocity":40,"Duration":104007,"SoundDuration":104007,"Delta":51504908},{"NoteNumber":49,"Velocity":45,"Duration":104038,"SoundDuration":104038,"Delta":51608916},{"NoteNumber":44,"Velocity":39,"Duration":104700,"SoundDuration":104700,"Delta":51712954},{"NoteNumber":37,"Velocity":39,"Duration":104851,"SoundDuration":104851,"Delta":51817654},{"NoteNumber":44,"Velocity":39,"Duration":102790,"SoundDuration":102790,"Delta":51922506},{"NoteNumber":49,"Velocity":43,"Duration":104897,"SoundDuration":104897,"Delta":52025296},{"NoteNumber":44,"Velocity":38,"Duration":103383,"SoundDuration":103383,"Delta":52130193},{"NoteNumber":37,"Velocity":41,"Duration":103191,"SoundDuration":103191,"Delta":52233577},{"NoteNumber":44,"Velocity":36,"Duration":104121,"SoundDuration":104121,"Delta":52336768},{"NoteNumber":37,"Velocity":36,"Duration":102355,"SoundDuration":102355,"Delta":52440889},{"NoteNumber":44,"Velocity":36,"Duration":103854,"SoundDuration":103854,"Delta":52543244},{"NoteNumber":37,"Velocity":35,"Duration":103391,"SoundDuration":103391,"Delta":52647099},{"NoteNumber":44,"Velocity":35,"Duration":101879,"SoundDuration":101879,"Delta":52750491},{"NoteNumber":37,"Velocity":40,"Duration":103482,"SoundDuration":103482,"Delta":52852370},{"NoteNumber":44,"Velocity":35,"Duration":102848,"SoundDuration":102848,"Delta":52955853},{"NoteNumber":37,"Velocity":35,"Duration":103306,"SoundDuration":103306,"Delta":53058702},{"NoteNumber":44,"Velocity":35,"Duration":102495,"SoundDuration":102495,"Delta":53162009},{"NoteNumber":37,"Velocity":35,"Duration":102673,"SoundDuration":102673,"Delta":53264504},{"NoteNumber":44,"Velocity":34,"Duration":103106,"SoundDuration":103106,"Delta":53367178},{"NoteNumber":37,"Velocity":40,"Duration":103887,"SoundDuration":103887,"Delta":53470284},{"NoteNumber":44,"Velocity":34,"Duration":103468,"SoundDuration":103468,"Delta":53574172},{"NoteNumber":37,"Velocity":34,"Duration":104204,"SoundDuration":104204,"Delta":53677640},{"NoteNumber":44,"Velocity":34,"Duration":102252,"SoundDuration":102252,"Delta":53781845},{"NoteNumber":37,"Velocity":33,"Duration":103119,"SoundDuration":103119,"Delta":53884097},{"NoteNumber":44,"Velocity":33,"Duration":102686,"SoundDuration":102686,"Delta":53987217},{"NoteNumber":37,"Velocity":39,"Duration":103156,"SoundDuration":103156,"Delta":54089903},{"NoteNumber":44,"Velocity":33,"Duration":103441,"SoundDuration":103441,"Delta":54193059},{"NoteNumber":37,"Velocity":33,"Duration":102020,"SoundDuration":102020,"Delta":54296501},{"NoteNumber":44,"Velocity":32,"Duration":103120,"SoundDuration":103120,"Delta":54398521},{"NoteNumber":37,"Velocity":32,"Duration":101707,"SoundDuration":101707,"Delta":54501642},{"NoteNumber":44,"Velocity":32,"Duration":103701,"SoundDuration":103701,"Delta":54603349},{"NoteNumber":37,"Velocity":38,"Duration":103110,"SoundDuration":103110,"Delta":54707051},{"NoteNumber":44,"Velocity":32,"Duration":102923,"SoundDuration":102923,"Delta":54810161},{"NoteNumber":37,"Velocity":31,"Duration":102089,"SoundDuration":102089,"Delta":54913085},{"NoteNumber":44,"Velocity":31,"Duration":104767,"SoundDuration":104767,"Delta":55015175},{"NoteNumber":37,"Velocity":31,"Duration":104229,"SoundDuration":104229,"Delta":55119942},{"NoteNumber":44,"Velocity":31,"Duration":104459,"SoundDuration":104459,"Delta":55224172},{"NoteNumber":37,"Velocity":37,"Duration":102814,"SoundDuration":102814,"Delta":55328632},{"NoteNumber":44,"Velocity":30,"Duration":103480,"SoundDuration":103480,"Delta":55431446},{"NoteNumber":37,"Velocity":30,"Duration":104233,"SoundDuration":104233,"Delta":55534927},{"NoteNumber":44,"Velocity":30,"Duration":103858,"SoundDuration":103858,"Delta":55639160},{"NoteNumber":37,"Velocity":30,"Duration":104140,"SoundDuration":104140,"Delta":55743019},{"NoteNumber":44,"Velocity":30,"Duration":102261,"SoundDuration":102261,"Delta":55847159},{"NoteNumber":35,"Velocity":34,"Duration":103415,"SoundDuration":103415,"Delta":55949421},{"NoteNumber":41,"Velocity":34,"Duration":103415,"SoundDuration":103415,"Delta":55949421},{"NoteNumber":43,"Velocity":40,"Duration":103415,"SoundDuration":103415,"Delta":55949421},{"NoteNumber":47,"Velocity":41,"Duration":308809,"SoundDuration":308809,"Delta":55949421},{"NoteNumber":53,"Velocity":27,"Duration":101789,"SoundDuration":101789,"Delta":56052836},{"NoteNumber":55,"Velocity":30,"Duration":103605,"SoundDuration":103605,"Delta":56154625},{"NoteNumber":53,"Velocity":27,"Duration":102589,"SoundDuration":102589,"Delta":56258230},{"NoteNumber":55,"Velocity":30,"Duration":103393,"SoundDuration":103393,"Delta":56360820},{"NoteNumber":53,"Velocity":27,"Duration":102669,"SoundDuration":102669,"Delta":56464214},{"NoteNumber":63,"Velocity":60,"Duration":50505,"SoundDuration":50505,"Delta":56566883},{"NoteNumber":47,"Velocity":30,"Duration":303029,"SoundDuration":303029,"Delta":56566883},{"NoteNumber":63,"Velocity":54,"Duration":50505,"SoundDuration":50505,"Delta":56667893},{"NoteNumber":53,"Velocity":26,"Duration":101009,"SoundDuration":101009,"Delta":56667893},{"NoteNumber":63,"Velocity":58,"Duration":50505,"SoundDuration":50505,"Delta":56768903},{"NoteNumber":55,"Velocity":30,"Duration":101010,"SoundDuration":101010,"Delta":56768903},{"NoteNumber":61,"Velocity":54,"Duration":50505,"SoundDuration":50505,"Delta":56869913},{"NoteNumber":53,"Velocity":26,"Duration":101010,"SoundDuration":101010,"Delta":56869913},{"NoteNumber":63,"Velocity":59,"Duration":102739,"SoundDuration":102739,"Delta":56970923},{"NoteNumber":55,"Velocity":30,"Duration":102739,"SoundDuration":102739,"Delta":56970923},{"NoteNumber":53,"Velocity":26,"Duration":102739,"SoundDuration":102739,"Delta":57073663},{"NoteNumber":47,"Velocity":30,"Duration":308219,"SoundDuration":308219,"Delta":57176403},{"NoteNumber":53,"Velocity":27,"Duration":102739,"SoundDuration":102739,"Delta":57279143},{"NoteNumber":55,"Velocity":30,"Duration":102739,"SoundDuration":102739,"Delta":57381882},{"NoteNumber":53,"Velocity":27,"Duration":102739,"SoundDuration":102739,"Delta":57484622},{"NoteNumber":55,"Velocity":30,"Duration":102739,"SoundDuration":102739,"Delta":57587362},{"NoteNumber":53,"Velocity":26,"Duration":102739,"SoundDuration":102739,"Delta":57690102},{"NoteNumber":47,"Velocity":30,"Duration":305795,"SoundDuration":305795,"Delta":57792841},{"NoteNumber":53,"Velocity":34,"Duration":101351,"SoundDuration":101351,"Delta":57894193},{"NoteNumber":55,"Velocity":55,"Duration":103092,"SoundDuration":103092,"Delta":57995544},{"NoteNumber":67,"Velocity":69,"Duration":103092,"SoundDuration":103092,"Delta":58098637},{"NoteNumber":65,"Velocity":58,"Duration":103092,"SoundDuration":103092,"Delta":58098637},{"NoteNumber":55,"Velocity":56,"Duration":103092,"SoundDuration":103092,"Delta":58201729},{"NoteNumber":53,"Velocity":30,"Duration":103092,"SoundDuration":103092,"Delta":58304822},{"NoteNumber":61,"Velocity":57,"Duration":157894,"SoundDuration":157894,"Delta":58407915},{"NoteNumber":47,"Velocity":34,"Duration":105263,"SoundDuration":105263,"Delta":58407915},{"NoteNumber":55,"Velocity":30,"Duration":105263,"SoundDuration":105263,"Delta":58513178},{"NoteNumber":53,"Velocity":25,"Duration":105263,"SoundDuration":105263,"Delta":58513178},{"NoteNumber":63,"Velocity":56,"Duration":149501,"SoundDuration":149501,"Delta":58618441},{"NoteNumber":67,"Velocity":34,"Duration":99667,"SoundDuration":99667,"Delta":58618441},{"NoteNumber":65,"Velocity":28,"Duration":99667,"SoundDuration":99667,"Delta":58618441},{"NoteNumber":55,"Velocity":30,"Duration":99667,"SoundDuration":99667,"Delta":58718109},{"NoteNumber":53,"Velocity":25,"Duration":99667,"SoundDuration":99667,"Delta":58718109},{"NoteNumber":58,"Velocity":54,"Duration":153061,"SoundDuration":153061,"Delta":58817777},{"NoteNumber":55,"Velocity":30,"Duration":102040,"SoundDuration":102040,"Delta":58919818},{"NoteNumber":53,"Velocity":25,"Duration":102040,"SoundDuration":102040,"Delta":58919818},{"NoteNumber":56,"Velocity":56,"Duration":153061,"SoundDuration":153061,"Delta":59021858},{"NoteNumber":47,"Velocity":34,"Duration":102040,"SoundDuration":102040,"Delta":59021858},{"NoteNumber":50,"Velocity":25,"Duration":101700,"SoundDuration":101700,"Delta":59123899},{"NoteNumber":52,"Velocity":30,"Duration":101700,"SoundDuration":101700,"Delta":59123899},{"NoteNumber":61,"Velocity":52,"Duration":149999,"SoundDuration":149999,"Delta":59225600},{"NoteNumber":64,"Velocity":34,"Duration":100000,"SoundDuration":100000,"Delta":59225600},{"NoteNumber":62,"Velocity":28,"Duration":100000,"SoundDuration":100000,"Delta":59225600},{"NoteNumber":50,"Velocity":25,"Duration":100000,"SoundDuration":100000,"Delta":59325600},{"NoteNumber":52,"Velocity":30,"Duration":100000,"SoundDuration":100000,"Delta":59325600},{"NoteNumber":56,"Velocity":53,"Duration":152542,"SoundDuration":152542,"Delta":59425600},{"NoteNumber":50,"Velocity":25,"Duration":101694,"SoundDuration":101694,"Delta":59527295},{"NoteNumber":52,"Velocity":30,"Duration":101694,"SoundDuration":101694,"Delta":59527295},{"NoteNumber":51,"Velocity":35,"Duration":101694,"SoundDuration":101694,"Delta":59628990},{"NoteNumber":35,"Velocity":34,"Duration":101694,"SoundDuration":101694,"Delta":59628990},{"NoteNumber":52,"Velocity":30,"Duration":101694,"SoundDuration":101694,"Delta":59730685},{"NoteNumber":50,"Velocity":25,"Duration":101694,"SoundDuration":101694,"Delta":59730685},{"NoteNumber":53,"Velocity":34,"Duration":101694,"SoundDuration":101694,"Delta":59832380},{"NoteNumber":50,"Velocity":25,"Duration":101580,"SoundDuration":101580,"Delta":59934075},{"NoteNumber":52,"Velocity":30,"Duration":101580,"SoundDuration":101580,"Delta":59934075},{"NoteNumber":51,"Velocity":30,"Duration":102158,"SoundDuration":102158,"Delta":60035655},{"NoteNumber":50,"Velocity":25,"Duration":103508,"SoundDuration":103508,"Delta":60137813},{"NoteNumber":52,"Velocity":30,"Duration":103508,"SoundDuration":103508,"Delta":60137813},{"NoteNumber":47,"Velocity":30,"Duration":313588,"SoundDuration":313588,"Delta":60241322},{"NoteNumber":53,"Velocity":27,"Duration":104529,"SoundDuration":104529,"Delta":60345851},{"NoteNumber":55,"Velocity":30,"Duration":104529,"SoundDuration":104529,"Delta":60450381},{"NoteNumber":53,"Velocity":27,"Duration":104529,"SoundDuration":104529,"Delta":60554910},{"NoteNumber":55,"Velocity":30,"Duration":104529,"SoundDuration":104529,"Delta":60659440},{"NoteNumber":53,"Velocity":27,"Duration":104529,"SoundDuration":104529,"Delta":60763969},{"NoteNumber":63,"Velocity":62,"Duration":50505,"SoundDuration":50505,"Delta":60868499},{"NoteNumber":47,"Velocity":30,"Duration":303029,"SoundDuration":303029,"Delta":60868499},{"NoteNumber":63,"Velocity":56,"Duration":50505,"SoundDuration":50505,"Delta":60969509},{"NoteNumber":53,"Velocity":26,"Duration":101009,"SoundDuration":101009,"Delta":60969509},{"NoteNumber":63,"Velocity":59,"Duration":50505,"SoundDuration":50505,"Delta":61070519},{"NoteNumber":55,"Velocity":30,"Duration":101010,"SoundDuration":101010,"Delta":61070519},{"NoteNumber":61,"Velocity":55,"Duration":50505,"SoundDuration":50505,"Delta":61171529},{"NoteNumber":53,"Velocity":26,"Duration":101010,"SoundDuration":101010,"Delta":61171529},{"NoteNumber":63,"Velocity":60,"Duration":102739,"SoundDuration":102739,"Delta":61272539},{"NoteNumber":55,"Velocity":30,"Duration":102739,"SoundDuration":102739,"Delta":61272539},{"NoteNumber":53,"Velocity":26,"Duration":102739,"SoundDuration":102739,"Delta":61375279},{"NoteNumber":47,"Velocity":30,"Duration":308219,"SoundDuration":308219,"Delta":61478018},{"NoteNumber":53,"Velocity":27,"Duration":102739,"SoundDuration":102739,"Delta":61580758},{"NoteNumber":55,"Velocity":30,"Duration":102739,"SoundDuration":102739,"Delta":61683498},{"NoteNumber":53,"Velocity":27,"Duration":102739,"SoundDuration":102739,"Delta":61786238},{"NoteNumber":55,"Velocity":30,"Duration":102739,"SoundDuration":102739,"Delta":61888977},{"NoteNumber":53,"Velocity":26,"Duration":102739,"SoundDuration":102739,"Delta":61991717},{"NoteNumber":47,"Velocity":30,"Duration":305795,"SoundDuration":305795,"Delta":62094457},{"NoteNumber":53,"Velocity":34,"Duration":101351,"SoundDuration":101351,"Delta":62195808},{"NoteNumber":55,"Velocity":48,"Duration":103092,"SoundDuration":103092,"Delta":62297159},{"NoteNumber":67,"Velocity":67,"Duration":103092,"SoundDuration":103092,"Delta":62400252},{"NoteNumber":65,"Velocity":53,"Duration":103092,"SoundDuration":103092,"Delta":62400252},{"NoteNumber":55,"Velocity":50,"Duration":103092,"SoundDuration":103092,"Delta":62503345},{"NoteNumber":53,"Velocity":30,"Duration":103092,"SoundDuration":103092,"Delta":62606438},{"NoteNumber":61,"Velocity":56,"Duration":157894,"SoundDuration":157894,"Delta":62709530},{"NoteNumber":47,"Velocity":34,"Duration":105263,"SoundDuration":105263,"Delta":62709530},{"NoteNumber":55,"Velocity":30,"Duration":105263,"SoundDuration":105263,"Delta":62814794},{"NoteNumber":53,"Velocity":25,"Duration":105263,"SoundDuration":105263,"Delta":62814794},{"NoteNumber":63,"Velocity":54,"Duration":149501,"SoundDuration":149501,"Delta":62920057},{"NoteNumber":67,"Velocity":34,"Duration":99667,"SoundDuration":99667,"Delta":62920057},{"NoteNumber":65,"Velocity":28,"Duration":99667,"SoundDuration":99667,"Delta":62920057},{"NoteNumber":55,"Velocity":30,"Duration":99667,"SoundDuration":99667,"Delta":63019725},{"NoteNumber":53,"Velocity":25,"Duration":99667,"SoundDuration":99667,"Delta":63019725},{"NoteNumber":58,"Velocity":53,"Duration":153061,"SoundDuration":153061,"Delta":63119392},{"NoteNumber":55,"Velocity":30,"Duration":102040,"SoundDuration":102040,"Delta":63221433},{"NoteNumber":53,"Velocity":25,"Duration":102040,"SoundDuration":102040,"Delta":63221433},{"NoteNumber":56,"Velocity":56,"Duration":153061,"SoundDuration":153061,"Delta":63323474},{"NoteNumber":47,"Velocity":34,"Duration":102040,"SoundDuration":102040,"Delta":63323474},{"NoteNumber":50,"Velocity":25,"Duration":101700,"SoundDuration":101700,"Delta":63425515},{"NoteNumber":52,"Velocity":30,"Duration":101700,"SoundDuration":101700,"Delta":63425515},{"NoteNumber":61,"Velocity":53,"Duration":149999,"SoundDuration":149999,"Delta":63527215},{"NoteNumber":64,"Velocity":34,"Duration":100000,"SoundDuration":100000,"Delta":63527215},{"NoteNumber":62,"Velocity":28,"Duration":100000,"SoundDuration":100000,"Delta":63527215},{"NoteNumber":50,"Velocity":25,"Duration":100000,"SoundDuration":100000,"Delta":63627215},{"NoteNumber":52,"Velocity":30,"Duration":100000,"SoundDuration":100000,"Delta":63627215},{"NoteNumber":56,"Velocity":53,"Duration":152542,"SoundDuration":152542,"Delta":63727215},{"NoteNumber":50,"Velocity":25,"Duration":101694,"SoundDuration":101694,"Delta":63828910},{"NoteNumber":52,"Velocity":30,"Duration":101694,"SoundDuration":101694,"Delta":63828910},{"NoteNumber":51,"Velocity":35,"Duration":102040,"SoundDuration":102040,"Delta":63930605},{"NoteNumber":35,"Velocity":34,"Duration":102040,"SoundDuration":102040,"Delta":63930605},{"NoteNumber":52,"Velocity":30,"Duration":102040,"SoundDuration":102040,"Delta":64032646},{"NoteNumber":50,"Velocity":25,"Duration":102040,"SoundDuration":102040,"Delta":64032646},{"NoteNumber":53,"Velocity":34,"Duration":102040,"SoundDuration":102040,"Delta":64134687},{"NoteNumber":50,"Velocity":25,"Duration":101810,"SoundDuration":101810,"Delta":64236728},{"NoteNumber":52,"Velocity":30,"Duration":101810,"SoundDuration":101810,"Delta":64236728},{"NoteNumber":51,"Velocity":30,"Duration":102158,"SoundDuration":102158,"Delta":64338538},{"NoteNumber":50,"Velocity":25,"Duration":103508,"SoundDuration":103508,"Delta":64440697},{"NoteNumber":52,"Velocity":30,"Duration":103508,"SoundDuration":103508,"Delta":64440697},{"NoteNumber":44,"Velocity":33,"Duration":285348,"SoundDuration":285348,"Delta":64466470},{"NoteNumber":50,"Velocity":33,"Duration":259515,"SoundDuration":259515,"Delta":64492302},{"NoteNumber":54,"Velocity":33,"Duration":233564,"SoundDuration":233564,"Delta":64518254},{"NoteNumber":62,"Velocity":34,"Duration":311418,"SoundDuration":311418,"Delta":64544205},{"NoteNumber":66,"Velocity":35,"Duration":311418,"SoundDuration":311418,"Delta":64544205},{"NoteNumber":59,"Velocity":33,"Duration":155709,"SoundDuration":155709,"Delta":64544205},{"NoteNumber":58,"Velocity":33,"Duration":51903,"SoundDuration":51903,"Delta":64596108},{"NoteNumber":59,"Velocity":34,"Duration":103806,"SoundDuration":103806,"Delta":64648012},{"NoteNumber":58,"Velocity":34,"Duration":51903,"SoundDuration":51903,"Delta":64699915},{"NoteNumber":59,"Velocity":35,"Duration":51903,"SoundDuration":51903,"Delta":64751818},{"NoteNumber":58,"Velocity":36,"Duration":51903,"SoundDuration":51903,"Delta":64803721},{"NoteNumber":61,"Velocity":32,"Duration":106007,"SoundDuration":106007,"Delta":64855624},{"NoteNumber":65,"Velocity":32,"Duration":106007,"SoundDuration":106007,"Delta":64855624},{"NoteNumber":59,"Velocity":36,"Duration":53003,"SoundDuration":53003,"Delta":64855624},{"NoteNumber":58,"Velocity":37,"Duration":53003,"SoundDuration":53003,"Delta":64908628},{"NoteNumber":62,"Velocity":36,"Duration":310344,"SoundDuration":310344,"Delta":64961631},{"NoteNumber":66,"Velocity":37,"Duration":310344,"SoundDuration":310344,"Delta":64961631},{"NoteNumber":59,"Velocity":37,"Duration":51724,"SoundDuration":51724,"Delta":64961631},{"NoteNumber":58,"Velocity":38,"Duration":51724,"SoundDuration":51724,"Delta":65013355},{"NoteNumber":59,"Velocity":38,"Duration":51724,"SoundDuration":51724,"Delta":65065079},{"NoteNumber":58,"Velocity":39,"Duration":51724,"SoundDuration":51724,"Delta":65116803},{"NoteNumber":59,"Velocity":39,"Duration":51724,"SoundDuration":51724,"Delta":65168528},{"NoteNumber":58,"Velocity":39,"Duration":51724,"SoundDuration":51724,"Delta":65220252},{"NoteNumber":61,"Velocity":40,"Duration":106007,"SoundDuration":106007,"Delta":65271976},{"NoteNumber":65,"Velocity":40,"Duration":106007,"SoundDuration":106007,"Delta":65271976},{"NoteNumber":59,"Velocity":40,"Duration":53003,"SoundDuration":53003,"Delta":65271976},{"NoteNumber":58,"Velocity":41,"Duration":53003,"SoundDuration":53003,"Delta":65324979},{"NoteNumber":62,"Velocity":47,"Duration":310344,"SoundDuration":310344,"Delta":65377983},{"NoteNumber":66,"Velocity":49,"Duration":310344,"SoundDuration":310344,"Delta":65377983},{"NoteNumber":59,"Velocity":42,"Duration":51724,"SoundDuration":51724,"Delta":65377983},{"NoteNumber":58,"Velocity":43,"Duration":51724,"SoundDuration":51724,"Delta":65429707},{"NoteNumber":59,"Velocity":44,"Duration":51724,"SoundDuration":51724,"Delta":65481431},{"NoteNumber":58,"Velocity":46,"Duration":51724,"SoundDuration":51724,"Delta":65533155},{"NoteNumber":59,"Velocity":47,"Duration":51724,"SoundDuration":51724,"Delta":65584879},{"NoteNumber":58,"Velocity":48,"Duration":51724,"SoundDuration":51724,"Delta":65636603},{"NoteNumber":61,"Velocity":44,"Duration":105263,"SoundDuration":105263,"Delta":65688328},{"NoteNumber":65,"Velocity":44,"Duration":105263,"SoundDuration":105263,"Delta":65688328},{"NoteNumber":59,"Velocity":49,"Duration":52631,"SoundDuration":52631,"Delta":65688328},{"NoteNumber":58,"Velocity":50,"Duration":52631,"SoundDuration":52631,"Delta":65740959},{"NoteNumber":62,"Velocity":52,"Duration":363161,"SoundDuration":363161,"Delta":65793591},{"NoteNumber":66,"Velocity":54,"Duration":363161,"SoundDuration":363161,"Delta":65793591},{"NoteNumber":59,"Velocity":51,"Duration":51724,"SoundDuration":51724,"Delta":65793591},{"NoteNumber":58,"Velocity":52,"Duration":51724,"SoundDuration":51724,"Delta":65845315},{"NoteNumber":59,"Velocity":53,"Duration":51724,"SoundDuration":51724,"Delta":65897039},{"NoteNumber":58,"Velocity":55,"Duration":51724,"SoundDuration":51724,"Delta":65948763},{"NoteNumber":59,"Velocity":56,"Duration":51724,"SoundDuration":51724,"Delta":66000487},{"NoteNumber":58,"Velocity":58,"Duration":51724,"SoundDuration":51724,"Delta":66052211},{"NoteNumber":59,"Velocity":59,"Duration":52816,"SoundDuration":52816,"Delta":66103936},{"NoteNumber":61,"Velocity":68,"Duration":52393,"SoundDuration":52393,"Delta":66156752},{"NoteNumber":58,"Velocity":60,"Duration":52393,"SoundDuration":52393,"Delta":66156752},{"NoteNumber":62,"Velocity":71,"Duration":51370,"SoundDuration":51370,"Delta":66209146},{"NoteNumber":59,"Velocity":61,"Duration":68377,"SoundDuration":68377,"Delta":66209146},{"NoteNumber":63,"Velocity":73,"Duration":50847,"SoundDuration":50847,"Delta":66260516},{"NoteNumber":60,"Velocity":63,"Duration":67567,"SoundDuration":67567,"Delta":66277523},{"NoteNumber":64,"Velocity":76,"Duration":50505,"SoundDuration":50505,"Delta":66311364},{"NoteNumber":61,"Velocity":65,"Duration":66778,"SoundDuration":66778,"Delta":66345091},{"NoteNumber":65,"Velocity":79,"Duration":50000,"SoundDuration":50000,"Delta":66361869},{"NoteNumber":66,"Velocity":76,"Duration":99337,"SoundDuration":99337,"Delta":66411870},{"NoteNumber":70,"Velocity":81,"Duration":99337,"SoundDuration":99337,"Delta":66411870},{"NoteNumber":62,"Velocity":71,"Duration":99337,"SoundDuration":99337,"Delta":66411870},{"NoteNumber":65,"Velocity":77,"Duration":99337,"SoundDuration":99337,"Delta":66511207},{"NoteNumber":61,"Velocity":61,"Duration":99337,"SoundDuration":99337,"Delta":66511207},{"NoteNumber":66,"Velocity":73,"Duration":99337,"SoundDuration":99337,"Delta":66610545},{"NoteNumber":70,"Velocity":73,"Duration":99337,"SoundDuration":99337,"Delta":66610545},{"NoteNumber":62,"Velocity":59,"Duration":99337,"SoundDuration":99337,"Delta":66610545},{"NoteNumber":65,"Velocity":70,"Duration":99228,"SoundDuration":99228,"Delta":66709883},{"NoteNumber":61,"Velocity":58,"Duration":99228,"SoundDuration":99228,"Delta":66709883},{"NoteNumber":66,"Velocity":69,"Duration":99174,"SoundDuration":99174,"Delta":66809112},{"NoteNumber":70,"Velocity":69,"Duration":99174,"SoundDuration":99174,"Delta":66809112},{"NoteNumber":62,"Velocity":56,"Duration":99174,"SoundDuration":99174,"Delta":66809112},{"NoteNumber":65,"Velocity":67,"Duration":100168,"SoundDuration":100168,"Delta":66908286},{"NoteNumber":61,"Velocity":54,"Duration":100168,"SoundDuration":100168,"Delta":66908286},{"NoteNumber":66,"Velocity":62,"Duration":101812,"SoundDuration":101812,"Delta":67008454},{"NoteNumber":70,"Velocity":62,"Duration":101812,"SoundDuration":101812,"Delta":67008454},{"NoteNumber":62,"Velocity":54,"Duration":204085,"SoundDuration":204085,"Delta":67008454},{"NoteNumber":62,"Velocity":59,"Duration":102272,"SoundDuration":102272,"Delta":67110267},{"NoteNumber":58,"Velocity":56,"Duration":102564,"SoundDuration":102564,"Delta":67212540},{"NoteNumber":54,"Velocity":53,"Duration":102857,"SoundDuration":102857,"Delta":67315104},{"NoteNumber":50,"Velocity":49,"Duration":103151,"SoundDuration":103151,"Delta":67417962},{"NoteNumber":42,"Velocity":34,"Duration":51724,"SoundDuration":51724,"Delta":67521114},{"NoteNumber":46,"Velocity":34,"Duration":51724,"SoundDuration":51724,"Delta":67521114},{"NoteNumber":63,"Velocity":54,"Duration":51753,"SoundDuration":51753,"Delta":69493134},{"NoteNumber":67,"Velocity":54,"Duration":51753,"SoundDuration":51753,"Delta":69493134},{"NoteNumber":75,"Velocity":54,"Duration":51753,"SoundDuration":51753,"Delta":69493134},{"NoteNumber":35,"Velocity":32,"Duration":68995,"SoundDuration":68995,"Delta":69493134},{"NoteNumber":41,"Velocity":32,"Duration":68876,"SoundDuration":68876,"Delta":69562129},{"NoteNumber":63,"Velocity":47,"Duration":51575,"SoundDuration":51575,"Delta":69596612},{"NoteNumber":43,"Velocity":34,"Duration":68728,"SoundDuration":68728,"Delta":69631006},{"NoteNumber":63,"Velocity":47,"Duration":51399,"SoundDuration":51399,"Delta":69699734},{"NoteNumber":47,"Velocity":36,"Duration":68522,"SoundDuration":68522,"Delta":69699734},{"NoteNumber":53,"Velocity":38,"Duration":68405,"SoundDuration":68405,"Delta":69768257},{"NoteNumber":61,"Velocity":47,"Duration":51223,"SoundDuration":51223,"Delta":69802504},{"NoteNumber":55,"Velocity":41,"Duration":68259,"SoundDuration":68259,"Delta":69836662},{"NoteNumber":75,"Velocity":52,"Duration":102977,"SoundDuration":102977,"Delta":69904922},{"NoteNumber":59,"Velocity":45,"Duration":68435,"SoundDuration":68435,"Delta":69904922},{"NoteNumber":65,"Velocity":48,"Duration":69204,"SoundDuration":69204,"Delta":69973357},{"NoteNumber":67,"Velocity":50,"Duration":69686,"SoundDuration":69686,"Delta":70042561},{"NoteNumber":71,"Velocity":55,"Duration":105020,"SoundDuration":105020,"Delta":70112248},{"NoteNumber":67,"Velocity":50,"Duration":102919,"SoundDuration":102919,"Delta":70217268},{"NoteNumber":65,"Velocity":47,"Duration":101694,"SoundDuration":101694,"Delta":70320188},{"NoteNumber":59,"Velocity":45,"Duration":101580,"SoundDuration":101580,"Delta":70421883},{"NoteNumber":55,"Velocity":42,"Duration":102215,"SoundDuration":102215,"Delta":70523463},{"NoteNumber":53,"Velocity":38,"Duration":103271,"SoundDuration":103271,"Delta":70625679},{"NoteNumber":47,"Velocity":30,"Duration":305795,"SoundDuration":305795,"Delta":70728950},{"NoteNumber":53,"Velocity":34,"Duration":101351,"SoundDuration":101351,"Delta":70830301},{"NoteNumber":55,"Velocity":55,"Duration":103092,"SoundDuration":103092,"Delta":70931653},{"NoteNumber":67,"Velocity":68,"Duration":103092,"SoundDuration":103092,"Delta":71034745},{"NoteNumber":65,"Velocity":57,"Duration":103092,"SoundDuration":103092,"Delta":71034745},{"NoteNumber":55,"Velocity":55,"Duration":103092,"SoundDuration":103092,"Delta":71137838},{"NoteNumber":53,"Velocity":30,"Duration":103092,"SoundDuration":103092,"Delta":71240931},{"NoteNumber":73,"Velocity":59,"Duration":105263,"SoundDuration":105263,"Delta":71344024},{"NoteNumber":47,"Velocity":34,"Duration":105263,"SoundDuration":105263,"Delta":71344024},{"NoteNumber":61,"Velocity":36,"Duration":105263,"SoundDuration":105263,"Delta":71449287},{"NoteNumber":75,"Velocity":56,"Duration":99667,"SoundDuration":99667,"Delta":71554550},{"NoteNumber":67,"Velocity":34,"Duration":99667,"SoundDuration":99667,"Delta":71554550},{"NoteNumber":65,"Velocity":28,"Duration":99667,"SoundDuration":99667,"Delta":71554550},{"NoteNumber":63,"Velocity":36,"Duration":99667,"SoundDuration":99667,"Delta":71654218},{"NoteNumber":70,"Velocity":57,"Duration":102040,"SoundDuration":102040,"Delta":71753886},{"NoteNumber":58,"Velocity":35,"Duration":102040,"SoundDuration":102040,"Delta":71855926},{"NoteNumber":68,"Velocity":56,"Duration":122448,"SoundDuration":122448,"Delta":71957967},{"NoteNumber":47,"Velocity":34,"Duration":102040,"SoundDuration":102040,"Delta":71957967},{"NoteNumber":56,"Velocity":34,"Duration":121292,"SoundDuration":121292,"Delta":72080416},{"NoteNumber":64,"Velocity":34,"Duration":99999,"SoundDuration":99999,"Delta":72161708},{"NoteNumber":62,"Velocity":28,"Duration":99999,"SoundDuration":99999,"Delta":72161708},{"NoteNumber":61,"Velocity":34,"Duration":119999,"SoundDuration":119999,"Delta":72201708},{"NoteNumber":68,"Velocity":54,"Duration":121356,"SoundDuration":121356,"Delta":72321708},{"NoteNumber":56,"Velocity":30,"Duration":122033,"SoundDuration":122033,"Delta":72443064},{"NoteNumber":51,"Velocity":35,"Duration":102040,"SoundDuration":102040,"Delta":72565098},{"NoteNumber":44,"Velocity":34,"Duration":102040,"SoundDuration":102040,"Delta":72565098},{"NoteNumber":35,"Velocity":28,"Duration":102040,"SoundDuration":102040,"Delta":72565098},{"NoteNumber":52,"Velocity":30,"Duration":102040,"SoundDuration":102040,"Delta":72667139},{"NoteNumber":50,"Velocity":25,"Duration":102040,"SoundDuration":102040,"Delta":72667139},{"NoteNumber":53,"Velocity":34,"Duration":102040,"SoundDuration":102040,"Delta":72769180},{"NoteNumber":49,"Velocity":39,"Duration":51020,"SoundDuration":51020,"Delta":72769180},{"NoteNumber":50,"Velocity":25,"Duration":101810,"SoundDuration":101810,"Delta":72871221},{"NoteNumber":52,"Velocity":30,"Duration":101810,"SoundDuration":101810,"Delta":72871221},{"NoteNumber":51,"Velocity":30,"Duration":102158,"SoundDuration":102158,"Delta":72973032},{"NoteNumber":44,"Velocity":38,"Duration":50905,"SoundDuration":50905,"Delta":72973032},{"NoteNumber":50,"Velocity":25,"Duration":103508,"SoundDuration":103508,"Delta":73075190},{"NoteNumber":52,"Velocity":30,"Duration":103508,"SoundDuration":103508,"Delta":73075190},{"NoteNumber":47,"Velocity":39,"Duration":51903,"SoundDuration":51903,"Delta":73178698},{"NoteNumber":56,"Velocity":39,"Duration":51903,"SoundDuration":51903,"Delta":73178698},{"NoteNumber":62,"Velocity":41,"Duration":103806,"SoundDuration":103806,"Delta":73282505},{"NoteNumber":64,"Velocity":41,"Duration":103806,"SoundDuration":103806,"Delta":73282505},{"NoteNumber":61,"Velocity":39,"Duration":51903,"SoundDuration":51903,"Delta":73386311},{"NoteNumber":76,"Velocity":41,"Duration":103806,"SoundDuration":103806,"Delta":73490117},{"NoteNumber":74,"Velocity":41,"Duration":103806,"SoundDuration":103806,"Delta":73490117},{"NoteNumber":56,"Velocity":38,"Duration":51903,"SoundDuration":51903,"Delta":73593923},{"NoteNumber":64,"Velocity":40,"Duration":103806,"SoundDuration":103806,"Delta":73697730},{"NoteNumber":62,"Velocity":40,"Duration":103806,"SoundDuration":103806,"Delta":73697730},{"NoteNumber":74,"Velocity":38,"Duration":97402,"SoundDuration":97402,"Delta":73801536},{"NoteNumber":59,"Velocity":36,"Duration":97402,"SoundDuration":97402,"Delta":73801536},{"NoteNumber":62,"Velocity":36,"Duration":97402,"SoundDuration":97402,"Delta":73801536},{"NoteNumber":64,"Velocity":36,"Duration":97402,"SoundDuration":97402,"Delta":73801536},{"NoteNumber":68,"Velocity":42,"Duration":97402,"SoundDuration":97402,"Delta":73801536},{"NoteNumber":73,"Velocity":40,"Duration":97402,"SoundDuration":97402,"Delta":73898938},{"NoteNumber":74,"Velocity":42,"Duration":97402,"SoundDuration":97402,"Delta":73996341},{"NoteNumber":73,"Velocity":48,"Duration":97402,"SoundDuration":97402,"Delta":73996341},{"NoteNumber":76,"Velocity":44,"Duration":97402,"SoundDuration":97402,"Delta":74093743},{"NoteNumber":77,"Velocity":45,"Duration":97402,"SoundDuration":97402,"Delta":74191146},{"NoteNumber":68,"Velocity":48,"Duration":97402,"SoundDuration":97402,"Delta":74191146},{"NoteNumber":79,"Velocity":47,"Duration":97402,"SoundDuration":97402,"Delta":74288548},{"NoteNumber":77,"Velocity":51,"Duration":97402,"SoundDuration":97402,"Delta":74385951},{"NoteNumber":59,"Velocity":42,"Duration":97402,"SoundDuration":97402,"Delta":74385951},{"NoteNumber":62,"Velocity":42,"Duration":97402,"SoundDuration":97402,"Delta":74385951},{"NoteNumber":64,"Velocity":42,"Duration":97402,"SoundDuration":97402,"Delta":74385951},{"NoteNumber":67,"Velocity":51,"Duration":97402,"SoundDuration":97402,"Delta":74385951},{"NoteNumber":79,"Velocity":49,"Duration":97402,"SoundDuration":97402,"Delta":74483353},{"NoteNumber":77,"Velocity":48,"Duration":97402,"SoundDuration":97402,"Delta":74580756},{"NoteNumber":86,"Velocity":49,"Duration":97402,"SoundDuration":97402,"Delta":74580756},{"NoteNumber":83,"Velocity":41,"Duration":97402,"SoundDuration":97402,"Delta":74580756},{"NoteNumber":76,"Velocity":46,"Duration":97402,"SoundDuration":97402,"Delta":74678158},{"NoteNumber":74,"Velocity":44,"Duration":98147,"SoundDuration":98147,"Delta":74775561},{"NoteNumber":73,"Velocity":42,"Duration":99448,"SoundDuration":99448,"Delta":74873709},{"NoteNumber":74,"Velocity":43,"Duration":97402,"SoundDuration":97402,"Delta":74973157},{"NoteNumber":59,"Velocity":36,"Duration":97402,"SoundDuration":97402,"Delta":74973157},{"NoteNumber":62,"Velocity":36,"Duration":97402,"SoundDuration":97402,"Delta":74973157},{"NoteNumber":64,"Velocity":36,"Duration":97402,"SoundDuration":97402,"Delta":74973157},{"NoteNumber":68,"Velocity":42,"Duration":97402,"SoundDuration":97402,"Delta":74973157},{"NoteNumber":73,"Velocity":44,"Duration":97402,"SoundDuration":97402,"Delta":75070560},{"NoteNumber":74,"Velocity":46,"Duration":97402,"SoundDuration":97402,"Delta":75167962},{"NoteNumber":73,"Velocity":45,"Duration":97402,"SoundDuration":97402,"Delta":75167962},{"NoteNumber":76,"Velocity":47,"Duration":97402,"SoundDuration":97402,"Delta":75265365},{"NoteNumber":77,"Velocity":49,"Duration":97402,"SoundDuration":97402,"Delta":75362767},{"NoteNumber":68,"Velocity":47,"Duration":97402,"SoundDuration":97402,"Delta":75362767},{"NoteNumber":79,"Velocity":50,"Duration":97402,"SoundDuration":97402,"Delta":75460170},{"NoteNumber":77,"Velocity":52,"Duration":97402,"SoundDuration":97402,"Delta":75557572},{"NoteNumber":59,"Velocity":42,"Duration":97402,"SoundDuration":97402,"Delta":75557572},{"NoteNumber":62,"Velocity":42,"Duration":97402,"SoundDuration":97402,"Delta":75557572},{"NoteNumber":64,"Velocity":42,"Duration":97402,"SoundDuration":97402,"Delta":75557572},{"NoteNumber":67,"Velocity":51,"Duration":97402,"SoundDuration":97402,"Delta":75557572},{"NoteNumber":79,"Velocity":50,"Duration":97402,"SoundDuration":97402,"Delta":75654975},{"NoteNumber":77,"Velocity":48,"Duration":97402,"SoundDuration":97402,"Delta":75752377},{"NoteNumber":86,"Velocity":49,"Duration":97402,"SoundDuration":97402,"Delta":75752377},{"NoteNumber":83,"Velocity":41,"Duration":97402,"SoundDuration":97402,"Delta":75752377},{"NoteNumber":76,"Velocity":46,"Duration":97402,"SoundDuration":97402,"Delta":75849780},{"NoteNumber":74,"Velocity":44,"Duration":98039,"SoundDuration":98039,"Delta":75947182},{"NoteNumber":73,"Velocity":42,"Duration":99119,"SoundDuration":99119,"Delta":76045222},{"NoteNumber":74,"Velocity":52,"Duration":97719,"SoundDuration":97719,"Delta":76144342},{"NoteNumber":59,"Velocity":37,"Duration":97719,"SoundDuration":97719,"Delta":76144342},{"NoteNumber":62,"Velocity":37,"Duration":97719,"SoundDuration":97719,"Delta":76144342},{"NoteNumber":64,"Velocity":37,"Duration":97719,"SoundDuration":97719,"Delta":76144342},{"NoteNumber":68,"Velocity":44,"Duration":97719,"SoundDuration":97719,"Delta":76144342},{"NoteNumber":73,"Velocity":45,"Duration":97719,"SoundDuration":97719,"Delta":76242062},{"NoteNumber":74,"Velocity":46,"Duration":97719,"SoundDuration":97719,"Delta":76339782},{"NoteNumber":73,"Velocity":48,"Duration":97719,"SoundDuration":97719,"Delta":76339782},{"NoteNumber":76,"Velocity":47,"Duration":97719,"SoundDuration":97719,"Delta":76437501},{"NoteNumber":77,"Velocity":48,"Duration":97508,"SoundDuration":97508,"Delta":76535221},{"NoteNumber":68,"Velocity":48,"Duration":97508,"SoundDuration":97508,"Delta":76535221},{"NoteNumber":79,"Velocity":48,"Duration":97402,"SoundDuration":97402,"Delta":76632729},{"NoteNumber":77,"Velocity":56,"Duration":97402,"SoundDuration":97402,"Delta":76730132},{"NoteNumber":74,"Velocity":53,"Duration":97402,"SoundDuration":97402,"Delta":76730132},{"NoteNumber":76,"Velocity":50,"Duration":97402,"SoundDuration":97402,"Delta":76827534},{"NoteNumber":77,"Velocity":51,"Duration":97192,"SoundDuration":97192,"Delta":76924937},{"NoteNumber":59,"Velocity":37,"Duration":97192,"SoundDuration":97192,"Delta":76924937},{"NoteNumber":65,"Velocity":37,"Duration":97192,"SoundDuration":97192,"Delta":76924937},{"NoteNumber":67,"Velocity":45,"Duration":97192,"SoundDuration":97192,"Delta":76924937},{"NoteNumber":79,"Velocity":51,"Duration":97087,"SoundDuration":97087,"Delta":77022129},{"NoteNumber":80,"Velocity":52,"Duration":97087,"SoundDuration":97087,"Delta":77119217},{"NoteNumber":74,"Velocity":47,"Duration":97087,"SoundDuration":97087,"Delta":77119217},{"NoteNumber":82,"Velocity":53,"Duration":97087,"SoundDuration":97087,"Delta":77216304},{"NoteNumber":83,"Velocity":65,"Duration":96878,"SoundDuration":96878,"Delta":77313392},{"NoteNumber":56,"Velocity":44,"Duration":96878,"SoundDuration":96878,"Delta":77313392},{"NoteNumber":62,"Velocity":44,"Duration":96878,"SoundDuration":96878,"Delta":77313392},{"NoteNumber":64,"Velocity":44,"Duration":96878,"SoundDuration":96878,"Delta":77313392},{"NoteNumber":71,"Velocity":52,"Duration":96878,"SoundDuration":96878,"Delta":77313392},{"NoteNumber":82,"Velocity":54,"Duration":96774,"SoundDuration":96774,"Delta":77410270},{"NoteNumber":83,"Velocity":55,"Duration":96774,"SoundDuration":96774,"Delta":77507045},{"NoteNumber":76,"Velocity":51,"Duration":96774,"SoundDuration":96774,"Delta":77507045},{"NoteNumber":85,"Velocity":56,"Duration":96774,"SoundDuration":96774,"Delta":77603819},{"NoteNumber":86,"Velocity":56,"Duration":96566,"SoundDuration":96566,"Delta":77700593},{"NoteNumber":71,"Velocity":52,"Duration":96566,"SoundDuration":96566,"Delta":77700593},{"NoteNumber":88,"Velocity":57,"Duration":96462,"SoundDuration":96462,"Delta":77797160},{"NoteNumber":86,"Velocity":69,"Duration":96462,"SoundDuration":96462,"Delta":77893623},{"NoteNumber":62,"Velocity":46,"Duration":96462,"SoundDuration":96462,"Delta":77893623},{"NoteNumber":68,"Velocity":46,"Duration":96462,"SoundDuration":96462,"Delta":77893623},{"NoteNumber":70,"Velocity":56,"Duration":96462,"SoundDuration":96462,"Delta":77893623},{"NoteNumber":88,"Velocity":58,"Duration":96462,"SoundDuration":96462,"Delta":77990086},{"NoteNumber":86,"Velocity":60,"Duration":96256,"SoundDuration":96256,"Delta":78086549},{"NoteNumber":82,"Velocity":52,"Duration":96256,"SoundDuration":96256,"Delta":78086549},{"NoteNumber":80,"Velocity":44,"Duration":96256,"SoundDuration":96256,"Delta":78086549},{"NoteNumber":85,"Velocity":61,"Duration":96153,"SoundDuration":96153,"Delta":78182806},{"NoteNumber":83,"Velocity":62,"Duration":96153,"SoundDuration":96153,"Delta":78278960},{"NoteNumber":82,"Velocity":62,"Duration":96153,"SoundDuration":96153,"Delta":78375113},{"NoteNumber":83,"Velocity":71,"Duration":95949,"SoundDuration":95949,"Delta":78471267},{"NoteNumber":56,"Velocity":51,"Duration":95949,"SoundDuration":95949,"Delta":78471267},{"NoteNumber":62,"Velocity":51,"Duration":95949,"SoundDuration":95949,"Delta":78471267},{"NoteNumber":64,"Velocity":51,"Duration":95949,"SoundDuration":95949,"Delta":78471267},{"NoteNumber":71,"Velocity":61,"Duration":95949,"SoundDuration":95949,"Delta":78471267},{"NoteNumber":82,"Velocity":64,"Duration":95846,"SoundDuration":95846,"Delta":78567216},{"NoteNumber":83,"Velocity":65,"Duration":95846,"SoundDuration":95846,"Delta":78663063},{"NoteNumber":76,"Velocity":57,"Duration":95846,"SoundDuration":95846,"Delta":78663063},{"NoteNumber":85,"Velocity":65,"Duration":95846,"SoundDuration":95846,"Delta":78758910},{"NoteNumber":86,"Velocity":66,"Duration":95846,"SoundDuration":95846,"Delta":78854756},{"NoteNumber":71,"Velocity":58,"Duration":95846,"SoundDuration":95846,"Delta":78854756},{"NoteNumber":88,"Velocity":67,"Duration":95846,"SoundDuration":95846,"Delta":78950603},{"NoteNumber":86,"Velocity":77,"Duration":95846,"SoundDuration":95846,"Delta":79046450},{"NoteNumber":62,"Velocity":53,"Duration":95846,"SoundDuration":95846,"Delta":79046450},{"NoteNumber":68,"Velocity":53,"Duration":95846,"SoundDuration":95846,"Delta":79046450},{"NoteNumber":70,"Velocity":64,"Duration":95846,"SoundDuration":95846,"Delta":79046450},{"NoteNumber":88,"Velocity":69,"Duration":95846,"SoundDuration":95846,"Delta":79142297},{"NoteNumber":86,"Velocity":70,"Duration":95846,"SoundDuration":95846,"Delta":79238143},{"NoteNumber":82,"Velocity":61,"Duration":95846,"SoundDuration":95846,"Delta":79238143},{"NoteNumber":80,"Velocity":51,"Duration":95846,"SoundDuration":95846,"Delta":79238143},{"NoteNumber":85,"Velocity":71,"Duration":95846,"SoundDuration":95846,"Delta":79333990},{"NoteNumber":83,"Velocity":71,"Duration":95846,"SoundDuration":95846,"Delta":79429837},{"NoteNumber":82,"Velocity":72,"Duration":95643,"SoundDuration":95643,"Delta":79525684},{"NoteNumber":83,"Velocity":80,"Duration":95949,"SoundDuration":95949,"Delta":79621327},{"NoteNumber":56,"Velocity":58,"Duration":95949,"SoundDuration":95949,"Delta":79621327},{"NoteNumber":62,"Velocity":58,"Duration":95949,"SoundDuration":95949,"Delta":79621327},{"NoteNumber":64,"Velocity":58,"Duration":95949,"SoundDuration":95949,"Delta":79621327},{"NoteNumber":71,"Velocity":69,"Duration":95949,"SoundDuration":95949,"Delta":79621327},{"NoteNumber":82,"Velocity":73,"Duration":96359,"SoundDuration":96359,"Delta":79717276},{"NoteNumber":83,"Velocity":74,"Duration":96878,"SoundDuration":96878,"Delta":79813636},{"NoteNumber":76,"Velocity":64,"Duration":96878,"SoundDuration":96878,"Delta":79813636},{"NoteNumber":85,"Velocity":75,"Duration":97297,"SoundDuration":97297,"Delta":79910515},{"NoteNumber":86,"Velocity":76,"Duration":97826,"SoundDuration":97826,"Delta":80007812},{"NoteNumber":71,"Velocity":66,"Duration":97826,"SoundDuration":97826,"Delta":80007812},{"NoteNumber":88,"Velocity":76,"Duration":98253,"SoundDuration":98253,"Delta":80105638},{"NoteNumber":86,"Velocity":85,"Duration":98792,"SoundDuration":98792,"Delta":80203892},{"NoteNumber":77,"Velocity":73,"Duration":98792,"SoundDuration":98792,"Delta":80203892},{"NoteNumber":85,"Velocity":78,"Duration":99228,"SoundDuration":99228,"Delta":80302685},{"NoteNumber":86,"Velocity":81,"Duration":99778,"SoundDuration":99778,"Delta":80401913},{"NoteNumber":62,"Velocity":58,"Duration":99778,"SoundDuration":99778,"Delta":80401913},{"NoteNumber":68,"Velocity":58,"Duration":99778,"SoundDuration":99778,"Delta":80401913},{"NoteNumber":70,"Velocity":69,"Duration":99778,"SoundDuration":99778,"Delta":80401913},{"NoteNumber":88,"Velocity":83,"Duration":100223,"SoundDuration":100223,"Delta":80501692},{"NoteNumber":89,"Velocity":86,"Duration":100671,"SoundDuration":100671,"Delta":80601915},{"NoteNumber":77,"Velocity":70,"Duration":100671,"SoundDuration":100671,"Delta":80601915},{"NoteNumber":91,"Velocity":88,"Duration":101010,"SoundDuration":101010,"Delta":80702586},{"NoteNumber":87,"Velocity":91,"Duration":202702,"SoundDuration":202702,"Delta":80803596},{"NoteNumber":83,"Velocity":91,"Duration":202702,"SoundDuration":202702,"Delta":80803596},{"NoteNumber":92,"Velocity":91,"Duration":202702,"SoundDuration":202702,"Delta":80803596},{"NoteNumber":53,"Velocity":66,"Duration":101351,"SoundDuration":101351,"Delta":80803596},{"NoteNumber":59,"Velocity":66,"Duration":101351,"SoundDuration":101351,"Delta":80803596},{"NoteNumber":63,"Velocity":66,"Duration":101351,"SoundDuration":101351,"Delta":80803596},{"NoteNumber":68,"Velocity":78,"Duration":101351,"SoundDuration":101351,"Delta":80803596},{"NoteNumber":67,"Velocity":76,"Duration":52817,"SoundDuration":52817,"Delta":81411749},{"NoteNumber":68,"Velocity":73,"Duration":52205,"SoundDuration":52205,"Delta":81464567},{"NoteNumber":71,"Velocity":69,"Duration":51546,"SoundDuration":51546,"Delta":81516772},{"NoteNumber":74,"Velocity":66,"Duration":50847,"SoundDuration":50847,"Delta":81568319},{"NoteNumber":75,"Velocity":64,"Duration":50224,"SoundDuration":50224,"Delta":81619166},{"NoteNumber":79,"Velocity":61,"Duration":49614,"SoundDuration":49614,"Delta":81669391},{"NoteNumber":80,"Velocity":58,"Duration":49450,"SoundDuration":49450,"Delta":81719006},{"NoteNumber":83,"Velocity":55,"Duration":49288,"SoundDuration":49288,"Delta":81768456},{"NoteNumber":82,"Velocity":52,"Duration":49073,"SoundDuration":49073,"Delta":81817744},{"NoteNumber":83,"Velocity":50,"Duration":48806,"SoundDuration":48806,"Delta":81866818},{"NoteNumber":86,"Velocity":48,"Duration":48596,"SoundDuration":48596,"Delta":81915625},{"NoteNumber":87,"Velocity":46,"Duration":48376,"SoundDuration":48376,"Delta":81964221},{"NoteNumber":90,"Velocity":43,"Duration":49291,"SoundDuration":49291,"Delta":82012598},{"NoteNumber":92,"Velocity":42,"Duration":50805,"SoundDuration":50805,"Delta":82061889},{"NoteNumber":95,"Velocity":39,"Duration":51879,"SoundDuration":51879,"Delta":82112695},{"NoteNumber":63,"Velocity":37,"Duration":162173,"SoundDuration":162173,"Delta":82112695},{"NoteNumber":70,"Velocity":37,"Duration":136245,"SoundDuration":136245,"Delta":82138623},{"NoteNumber":87,"Velocity":38,"Duration":110293,"SoundDuration":110293,"Delta":82164574},{"NoteNumber":94,"Velocity":38,"Duration":110293,"SoundDuration":110293,"Delta":82164574},{"NoteNumber":99,"Velocity":38,"Duration":110293,"SoundDuration":110293,"Delta":82164574},{"NoteNumber":79,"Velocity":37,"Duration":110293,"SoundDuration":110293,"Delta":82164574},{"NoteNumber":63,"Velocity":40,"Duration":50847,"SoundDuration":50847,"Delta":82385162},{"NoteNumber":67,"Velocity":28,"Duration":101695,"SoundDuration":101695,"Delta":82385162},{"NoteNumber":70,"Velocity":34,"Duration":101695,"SoundDuration":101695,"Delta":82385162},{"NoteNumber":63,"Velocity":40,"Duration":50847,"SoundDuration":50847,"Delta":82486857},{"NoteNumber":63,"Velocity":40,"Duration":50847,"SoundDuration":50847,"Delta":82588552},{"NoteNumber":64,"Velocity":40,"Duration":50847,"SoundDuration":50847,"Delta":82690247},{"NoteNumber":66,"Velocity":47,"Duration":49999,"SoundDuration":49999,"Delta":82791942},{"NoteNumber":67,"Velocity":31,"Duration":99999,"SoundDuration":99999,"Delta":82791942},{"NoteNumber":71,"Velocity":37,"Duration":99999,"SoundDuration":99999,"Delta":82791942},{"NoteNumber":66,"Velocity":40,"Duration":50000,"SoundDuration":50000,"Delta":82891942},{"NoteNumber":66,"Velocity":40,"Duration":49999,"SoundDuration":49999,"Delta":82991942},{"NoteNumber":66,"Velocity":40,"Duration":49999,"SoundDuration":49999,"Delta":83091942},{"NoteNumber":66,"Velocity":40,"Duration":50847,"SoundDuration":50847,"Delta":83191942},{"NoteNumber":67,"Velocity":28,"Duration":203389,"SoundDuration":203389,"Delta":83191942},{"NoteNumber":71,"Velocity":33,"Duration":203389,"SoundDuration":203389,"Delta":83191942},{"NoteNumber":64,"Velocity":40,"Duration":50847,"SoundDuration":50847,"Delta":83293637},{"NoteNumber":63,"Velocity":47,"Duration":101695,"SoundDuration":101695,"Delta":83395332},{"NoteNumber":67,"Velocity":31,"Duration":101695,"SoundDuration":101695,"Delta":83395332},{"NoteNumber":70,"Velocity":37,"Duration":101695,"SoundDuration":101695,"Delta":83395332},{"NoteNumber":63,"Velocity":40,"Duration":50847,"SoundDuration":50847,"Delta":83598722},{"NoteNumber":67,"Velocity":28,"Duration":101695,"SoundDuration":101695,"Delta":83598722},{"NoteNumber":70,"Velocity":33,"Duration":101695,"SoundDuration":101695,"Delta":83598722},{"NoteNumber":63,"Velocity":40,"Duration":50847,"SoundDuration":50847,"Delta":83700417},{"NoteNumber":63,"Velocity":40,"Duration":50847,"SoundDuration":50847,"Delta":83802112},{"NoteNumber":64,"Velocity":40,"Duration":50847,"SoundDuration":50847,"Delta":83903807},{"NoteNumber":60,"Velocity":48,"Duration":50167,"SoundDuration":50167,"Delta":84005502},{"NoteNumber":67,"Velocity":31,"Duration":100334,"SoundDuration":100334,"Delta":84005502},{"NoteNumber":69,"Velocity":37,"Duration":100334,"SoundDuration":100334,"Delta":84005502},{"NoteNumber":60,"Velocity":40,"Duration":50167,"SoundDuration":50167,"Delta":84105837},{"NoteNumber":60,"Velocity":40,"Duration":50167,"SoundDuration":50167,"Delta":84206171},{"NoteNumber":60,"Velocity":40,"Duration":50167,"SoundDuration":50167,"Delta":84306506},{"NoteNumber":60,"Velocity":40,"Duration":50847,"SoundDuration":50847,"Delta":84406840},{"NoteNumber":67,"Velocity":28,"Duration":203389,"SoundDuration":203389,"Delta":84406840},{"NoteNumber":69,"Velocity":34,"Duration":203389,"SoundDuration":203389,"Delta":84406840},{"NoteNumber":61,"Velocity":40,"Duration":50847,"SoundDuration":50847,"Delta":84508535},{"NoteNumber":63,"Velocity":47,"Duration":104894,"SoundDuration":104894,"Delta":84610230},{"NoteNumber":67,"Velocity":31,"Duration":104894,"SoundDuration":104894,"Delta":84610230},{"NoteNumber":70,"Velocity":37,"Duration":104894,"SoundDuration":104894,"Delta":84610230},{"NoteNumber":75,"Velocity":58,"Duration":50847,"SoundDuration":50847,"Delta":84820020},{"NoteNumber":67,"Velocity":30,"Duration":101695,"SoundDuration":101695,"Delta":84820020},{"NoteNumber":70,"Velocity":37,"Duration":101695,"SoundDuration":101695,"Delta":84820020},{"NoteNumber":63,"Velocity":46,"Duration":50847,"SoundDuration":50847,"Delta":84921715},{"NoteNumber":63,"Velocity":46,"Duration":50847,"SoundDuration":50847,"Delta":85023410},{"NoteNumber":64,"Velocity":46,"Duration":50847,"SoundDuration":50847,"Delta":85125105},{"NoteNumber":78,"Velocity":58,"Duration":49999,"SoundDuration":49999,"Delta":85226800},{"NoteNumber":67,"Velocity":34,"Duration":99999,"SoundDuration":99999,"Delta":85226800},{"NoteNumber":71,"Velocity":40,"Duration":99999,"SoundDuration":99999,"Delta":85226800},{"NoteNumber":66,"Velocity":47,"Duration":50000,"SoundDuration":50000,"Delta":85326800},{"NoteNumber":66,"Velocity":47,"Duration":49999,"SoundDuration":49999,"Delta":85426800},{"NoteNumber":66,"Velocity":47,"Duration":49999,"SoundDuration":49999,"Delta":85526800},{"NoteNumber":78,"Velocity":53,"Duration":50847,"SoundDuration":50847,"Delta":85626800},{"NoteNumber":67,"Velocity":30,"Duration":203389,"SoundDuration":203389,"Delta":85626800},{"NoteNumber":71,"Velocity":36,"Duration":203389,"SoundDuration":203389,"Delta":85626800},{"NoteNumber":64,"Velocity":46,"Duration":50847,"SoundDuration":50847,"Delta":85728495},{"NoteNumber":63,"Velocity":47,"Duration":101695,"SoundDuration":101695,"Delta":85830190},{"NoteNumber":67,"Velocity":34,"Duration":101695,"SoundDuration":101695,"Delta":85830190},{"NoteNumber":70,"Velocity":40,"Duration":101695,"SoundDuration":101695,"Delta":85830190},{"NoteNumber":75,"Velocity":54,"Duration":50847,"SoundDuration":50847,"Delta":86033580},{"NoteNumber":67,"Velocity":30,"Duration":101695,"SoundDuration":101695,"Delta":86033580},{"NoteNumber":70,"Velocity":36,"Duration":101695,"SoundDuration":101695,"Delta":86033580},{"NoteNumber":63,"Velocity":47,"Duration":50847,"SoundDuration":50847,"Delta":86135275},{"NoteNumber":63,"Velocity":47,"Duration":50847,"SoundDuration":50847,"Delta":86236970},{"NoteNumber":64,"Velocity":47,"Duration":50847,"SoundDuration":50847,"Delta":86338665},{"NoteNumber":72,"Velocity":57,"Duration":49999,"SoundDuration":49999,"Delta":86440360},{"NoteNumber":67,"Velocity":34,"Duration":99999,"SoundDuration":99999,"Delta":86440360},{"NoteNumber":69,"Velocity":40,"Duration":99999,"SoundDuration":99999,"Delta":86440360},{"NoteNumber":60,"Velocity":47,"Duration":50000,"SoundDuration":50000,"Delta":86540360},{"NoteNumber":60,"Velocity":47,"Duration":49999,"SoundDuration":49999,"Delta":86640360},{"NoteNumber":60,"Velocity":47,"Duration":49999,"SoundDuration":49999,"Delta":86740360},{"NoteNumber":72,"Velocity":53,"Duration":50847,"SoundDuration":50847,"Delta":86840360},{"NoteNumber":67,"Velocity":30,"Duration":203389,"SoundDuration":203389,"Delta":86840360},{"NoteNumber":69,"Velocity":37,"Duration":203389,"SoundDuration":203389,"Delta":86840360},{"NoteNumber":61,"Velocity":46,"Duration":50847,"SoundDuration":50847,"Delta":86942055},{"NoteNumber":75,"Velocity":58,"Duration":104529,"SoundDuration":104529,"Delta":87043750},{"NoteNumber":63,"Velocity":34,"Duration":104529,"SoundDuration":104529,"Delta":87043750},{"NoteNumber":67,"Velocity":34,"Duration":104529,"SoundDuration":104529,"Delta":87043750},{"NoteNumber":70,"Velocity":40,"Duration":104529,"SoundDuration":104529,"Delta":87043750},{"NoteNumber":82,"Velocity":49,"Duration":50847,"SoundDuration":50847,"Delta":87252809},{"NoteNumber":87,"Velocity":58,"Duration":50847,"SoundDuration":50847,"Delta":87252809},{"NoteNumber":70,"Velocity":33,"Duration":101695,"SoundDuration":101695,"Delta":87252809},{"NoteNumber":67,"Velocity":33,"Duration":101695,"SoundDuration":101695,"Delta":87252809},{"NoteNumber":79,"Velocity":40,"Duration":101695,"SoundDuration":101695,"Delta":87252809},{"NoteNumber":75,"Velocity":55,"Duration":50847,"SoundDuration":50847,"Delta":87354504},{"NoteNumber":75,"Velocity":55,"Duration":50847,"SoundDuration":50847,"Delta":87456199},{"NoteNumber":76,"Velocity":55,"Duration":50847,"SoundDuration":50847,"Delta":87557894},{"NoteNumber":83,"Velocity":51,"Duration":49999,"SoundDuration":49999,"Delta":87659589},{"NoteNumber":90,"Velocity":60,"Duration":49999,"SoundDuration":49999,"Delta":87659589},{"NoteNumber":71,"Velocity":37,"Duration":99999,"SoundDuration":99999,"Delta":87659589},{"NoteNumber":67,"Velocity":37,"Duration":99999,"SoundDuration":99999,"Delta":87659589},{"NoteNumber":79,"Velocity":44,"Duration":99999,"SoundDuration":99999,"Delta":87659589},{"NoteNumber":78,"Velocity":57,"Duration":50000,"SoundDuration":50000,"Delta":87759589},{"NoteNumber":78,"Velocity":57,"Duration":49999,"SoundDuration":49999,"Delta":87859589},{"NoteNumber":78,"Velocity":57,"Duration":49999,"SoundDuration":49999,"Delta":87959589},{"NoteNumber":83,"Velocity":51,"Duration":50675,"SoundDuration":50675,"Delta":88059589},{"NoteNumber":90,"Velocity":61,"Duration":50675,"SoundDuration":50675,"Delta":88059589},{"NoteNumber":71,"Velocity":33,"Duration":202702,"SoundDuration":202702,"Delta":88059589},{"NoteNumber":67,"Velocity":33,"Duration":202702,"SoundDuration":202702,"Delta":88059589},{"NoteNumber":78,"Velocity":39,"Duration":202702,"SoundDuration":202702,"Delta":88059589},{"NoteNumber":76,"Velocity":56,"Duration":50675,"SoundDuration":50675,"Delta":88160941},{"NoteNumber":87,"Velocity":60,"Duration":102389,"SoundDuration":102389,"Delta":88262292},{"NoteNumber":82,"Velocity":51,"Duration":102389,"SoundDuration":102389,"Delta":88262292},{"NoteNumber":67,"Velocity":45,"Duration":102389,"SoundDuration":102389,"Delta":88262292},{"NoteNumber":75,"Velocity":45,"Duration":102389,"SoundDuration":102389,"Delta":88262292},{"NoteNumber":79,"Velocity":53,"Duration":102389,"SoundDuration":102389,"Delta":88262292},{"NoteNumber":99,"Velocity":70,"Duration":101010,"SoundDuration":101010,"Delta":88467070},{"NoteNumber":94,"Velocity":59,"Duration":101010,"SoundDuration":101010,"Delta":88467070},{"NoteNumber":87,"Velocity":46,"Duration":101010,"SoundDuration":101010,"Delta":88467070},{"NoteNumber":82,"Velocity":39,"Duration":101010,"SoundDuration":101010,"Delta":88467070},{"NoteNumber":79,"Velocity":39,"Duration":101010,"SoundDuration":101010,"Delta":88467070},{"NoteNumber":88,"Velocity":66,"Duration":101010,"SoundDuration":101010,"Delta":88568080},{"NoteNumber":102,"Velocity":67,"Duration":101010,"SoundDuration":101010,"Delta":88669090},{"NoteNumber":95,"Velocity":56,"Duration":101010,"SoundDuration":101010,"Delta":88669090},{"NoteNumber":90,"Velocity":48,"Duration":101010,"SoundDuration":101010,"Delta":88669090},{"NoteNumber":83,"Velocity":40,"Duration":101010,"SoundDuration":101010,"Delta":88669090},{"NoteNumber":88,"Velocity":67,"Duration":101009,"SoundDuration":101009,"Delta":88770100},{"NoteNumber":99,"Velocity":71,"Duration":103092,"SoundDuration":103092,"Delta":88871110},{"NoteNumber":94,"Velocity":60,"Duration":103092,"SoundDuration":103092,"Delta":88871110},{"NoteNumber":87,"Velocity":56,"Duration":103092,"SoundDuration":103092,"Delta":88871110},{"NoteNumber":82,"Velocity":46,"Duration":103092,"SoundDuration":103092,"Delta":88871110},{"NoteNumber":79,"Velocity":46,"Duration":103092,"SoundDuration":103092,"Delta":88871110},{"NoteNumber":99,"Velocity":74,"Duration":99667,"SoundDuration":99667,"Delta":89077295},{"NoteNumber":94,"Velocity":63,"Duration":99667,"SoundDuration":99667,"Delta":89077295},{"NoteNumber":87,"Velocity":51,"Duration":99667,"SoundDuration":99667,"Delta":89077295},{"NoteNumber":82,"Velocity":42,"Duration":99667,"SoundDuration":99667,"Delta":89077295},{"NoteNumber":79,"Velocity":42,"Duration":99667,"SoundDuration":99667,"Delta":89077295},{"NoteNumber":88,"Velocity":73,"Duration":99667,"SoundDuration":99667,"Delta":89176963},{"NoteNumber":102,"Velocity":73,"Duration":99667,"SoundDuration":99667,"Delta":89276631},{"NoteNumber":97,"Velocity":61,"Duration":99667,"SoundDuration":99667,"Delta":89276631},{"NoteNumber":90,"Velocity":51,"Duration":99667,"SoundDuration":99667,"Delta":89276631},{"NoteNumber":81,"Velocity":43,"Duration":99667,"SoundDuration":99667,"Delta":89276631},{"NoteNumber":88,"Velocity":73,"Duration":99667,"SoundDuration":99667,"Delta":89376299},{"NoteNumber":99,"Velocity":76,"Duration":102739,"SoundDuration":102739,"Delta":89475966},{"NoteNumber":94,"Velocity":64,"Duration":102739,"SoundDuration":102739,"Delta":89475966},{"NoteNumber":87,"Velocity":55,"Duration":102739,"SoundDuration":102739,"Delta":89475966},{"NoteNumber":82,"Velocity":46,"Duration":102739,"SoundDuration":102739,"Delta":89475966},{"NoteNumber":79,"Velocity":46,"Duration":102739,"SoundDuration":102739,"Delta":89475966},{"NoteNumber":99,"Velocity":81,"Duration":99667,"SoundDuration":99667,"Delta":89681446},{"NoteNumber":94,"Velocity":68,"Duration":99667,"SoundDuration":99667,"Delta":89681446},{"NoteNumber":87,"Velocity":58,"Duration":99667,"SoundDuration":99667,"Delta":89681446},{"NoteNumber":82,"Velocity":48,"Duration":99667,"SoundDuration":99667,"Delta":89681446},{"NoteNumber":79,"Velocity":48,"Duration":99667,"SoundDuration":99667,"Delta":89681446},{"NoteNumber":88,"Velocity":79,"Duration":99667,"SoundDuration":99667,"Delta":89781114},{"NoteNumber":102,"Velocity":81,"Duration":99667,"SoundDuration":99667,"Delta":89880781},{"NoteNumber":95,"Velocity":69,"Duration":99667,"SoundDuration":99667,"Delta":89880781},{"NoteNumber":90,"Velocity":61,"Duration":99667,"SoundDuration":99667,"Delta":89880781},{"NoteNumber":83,"Velocity":52,"Duration":99667,"SoundDuration":99667,"Delta":89880781},{"NoteNumber":88,"Velocity":78,"Duration":99667,"SoundDuration":99667,"Delta":89980449},{"NoteNumber":99,"Velocity":84,"Duration":99667,"SoundDuration":99667,"Delta":90080117},{"NoteNumber":94,"Velocity":72,"Duration":99667,"SoundDuration":99667,"Delta":90080117},{"NoteNumber":87,"Velocity":65,"Duration":99667,"SoundDuration":99667,"Delta":90080117},{"NoteNumber":82,"Velocity":55,"Duration":99667,"SoundDuration":99667,"Delta":90080117},{"NoteNumber":79,"Velocity":55,"Duration":99667,"SoundDuration":99667,"Delta":90080117},{"NoteNumber":88,"Velocity":82,"Duration":99557,"SoundDuration":99557,"Delta":90179785},{"NoteNumber":102,"Velocity":89,"Duration":100222,"SoundDuration":100222,"Delta":90279342},{"NoteNumber":97,"Velocity":75,"Duration":100222,"SoundDuration":100222,"Delta":90279342},{"NoteNumber":90,"Velocity":68,"Duration":100222,"SoundDuration":100222,"Delta":90279342},{"NoteNumber":81,"Velocity":58,"Duration":100222,"SoundDuration":100222,"Delta":90279342},{"NoteNumber":88,"Velocity":85,"Duration":99778,"SoundDuration":99778,"Delta":90379565},{"NoteNumber":99,"Velocity":98,"Duration":99228,"SoundDuration":99228,"Delta":90479344},{"NoteNumber":94,"Velocity":83,"Duration":99228,"SoundDuration":99228,"Delta":90479344},{"NoteNumber":87,"Velocity":72,"Duration":99228,"SoundDuration":99228,"Delta":90479344},{"NoteNumber":82,"Velocity":60,"Duration":99228,"SoundDuration":99228,"Delta":90479344},{"NoteNumber":79,"Velocity":60,"Duration":99228,"SoundDuration":99228,"Delta":90479344},{"NoteNumber":88,"Velocity":93,"Duration":98792,"SoundDuration":98792,"Delta":90578572},{"NoteNumber":102,"Velocity":102,"Duration":98685,"SoundDuration":98685,"Delta":90677365},{"NoteNumber":95,"Velocity":86,"Duration":98685,"SoundDuration":98685,"Delta":90677365},{"NoteNumber":90,"Velocity":76,"Duration":98685,"SoundDuration":98685,"Delta":90677365},{"NoteNumber":83,"Velocity":64,"Duration":98685,"SoundDuration":98685,"Delta":90677365},{"NoteNumber":88,"Velocity":97,"Duration":99668,"SoundDuration":99668,"Delta":90776050},{"NoteNumber":99,"Velocity":109,"Duration":100671,"SoundDuration":100671,"Delta":90875719},{"NoteNumber":94,"Velocity":91,"Duration":100671,"SoundDuration":100671,"Delta":90875719},{"NoteNumber":87,"Velocity":79,"Duration":100671,"SoundDuration":100671,"Delta":90875719},{"NoteNumber":82,"Velocity":66,"Duration":100671,"SoundDuration":100671,"Delta":90875719},{"NoteNumber":79,"Velocity":66,"Duration":100671,"SoundDuration":100671,"Delta":90875719},{"NoteNumber":88,"Velocity":103,"Duration":101753,"SoundDuration":101753,"Delta":90976391},{"NoteNumber":102,"Velocity":114,"Duration":102389,"SoundDuration":102389,"Delta":91078144},{"NoteNumber":97,"Velocity":97,"Duration":102389,"SoundDuration":102389,"Delta":91078144},{"NoteNumber":90,"Velocity":83,"Duration":102389,"SoundDuration":102389,"Delta":91078144},{"NoteNumber":81,"Velocity":70,"Duration":102389,"SoundDuration":102389,"Delta":91078144},{"NoteNumber":88,"Velocity":107,"Duration":102388,"SoundDuration":102388,"Delta":91180533},{"NoteNumber":63,"Velocity":53,"Duration":265486,"SoundDuration":265486,"Delta":91897256},{"NoteNumber":70,"Velocity":53,"Duration":509388,"SoundDuration":509388,"Delta":91897256},{"NoteNumber":75,"Velocity":63,"Duration":265486,"SoundDuration":265486,"Delta":91897256},{"NoteNumber":39,"Velocity":54,"Duration":88495,"SoundDuration":88495,"Delta":91897256},{"NoteNumber":46,"Velocity":57,"Duration":88495,"SoundDuration":88495,"Delta":91985752},{"NoteNumber":51,"Velocity":61,"Duration":88495,"SoundDuration":88495,"Delta":92074247},{"NoteNumber":64,"Velocity":68,"Duration":243902,"SoundDuration":243902,"Delta":92162743},{"NoteNumber":76,"Velocity":81,"Duration":243902,"SoundDuration":243902,"Delta":92162743},{"NoteNumber":52,"Velocity":64,"Duration":81300,"SoundDuration":81300,"Delta":92162743},{"NoteNumber":55,"Velocity":68,"Duration":81300,"SoundDuration":81300,"Delta":92244044},{"NoteNumber":61,"Velocity":71,"Duration":81300,"SoundDuration":81300,"Delta":92325344},{"NoteNumber":75,"Velocity":85,"Duration":589025,"SoundDuration":589025,"Delta":92406645},{"NoteNumber":82,"Velocity":85,"Duration":589025,"SoundDuration":589025,"Delta":92406645},{"NoteNumber":87,"Velocity":101,"Duration":589025,"SoundDuration":589025,"Delta":92406645},{"NoteNumber":64,"Velocity":75,"Duration":79523,"SoundDuration":79523,"Delta":92406645},{"NoteNumber":67,"Velocity":78,"Duration":78818,"SoundDuration":78818,"Delta":92486168},{"NoteNumber":73,"Velocity":82,"Duration":78125,"SoundDuration":78125,"Delta":92564987},{"NoteNumber":76,"Velocity":83,"Duration":77519,"SoundDuration":77519,"Delta":92643113},{"NoteNumber":73,"Velocity":82,"Duration":77519,"SoundDuration":77519,"Delta":92720632},{"NoteNumber":67,"Velocity":80,"Duration":77519,"SoundDuration":77519,"Delta":92798151},{"NoteNumber":64,"Velocity":78,"Duration":79999,"SoundDuration":79999,"Delta":92875671},{"NoteNumber":61,"Velocity":77,"Duration":81493,"SoundDuration":81493,"Delta":92955671},{"NoteNumber":85,"Velocity":89,"Duration":124481,"SoundDuration":124481,"Delta":92995671},{"NoteNumber":73,"Velocity":74,"Duration":124481,"SoundDuration":124481,"Delta":92995671},{"NoteNumber":55,"Velocity":75,"Duration":82987,"SoundDuration":82987,"Delta":93037164},{"NoteNumber":71,"Velocity":68,"Duration":239999,"SoundDuration":239999,"Delta":93120152},{"NoteNumber":83,"Velocity":81,"Duration":239999,"SoundDuration":239999,"Delta":93120152},{"NoteNumber":51,"Velocity":74,"Duration":79999,"SoundDuration":79999,"Delta":93120152},{"NoteNumber":61,"Velocity":72,"Duration":79999,"SoundDuration":79999,"Delta":93200152},{"NoteNumber":64,"Velocity":71,"Duration":79999,"SoundDuration":79999,"Delta":93280152},{"NoteNumber":75,"Velocity":74,"Duration":501642,"SoundDuration":501642,"Delta":93360152},{"NoteNumber":70,"Velocity":74,"Duration":260458,"SoundDuration":260458,"Delta":93360152},{"NoteNumber":82,"Velocity":88,"Duration":260458,"SoundDuration":260458,"Delta":93360152},{"NoteNumber":65,"Velocity":69,"Duration":79999,"SoundDuration":79999,"Delta":93360152},{"NoteNumber":61,"Velocity":67,"Duration":87169,"SoundDuration":87169,"Delta":93440152},{"NoteNumber":56,"Velocity":66,"Duration":93288,"SoundDuration":93288,"Delta":93527322},{"NoteNumber":68,"Velocity":70,"Duration":241184,"SoundDuration":241184,"Delta":93620610},{"NoteNumber":80,"Velocity":83,"Duration":241184,"SoundDuration":241184,"Delta":93620610},{"NoteNumber":53,"Velocity":64,"Duration":80321,"SoundDuration":80321,"Delta":93620610},{"NoteNumber":44,"Velocity":63,"Duration":80321,"SoundDuration":80321,"Delta":93700931},{"NoteNumber":39,"Velocity":61,"Duration":80541,"SoundDuration":80541,"Delta":93781253},{"NoteNumber":63,"Velocity":66,"Duration":250252,"SoundDuration":250252,"Delta":93861794},{"NoteNumber":75,"Velocity":78,"Duration":250252,"SoundDuration":250252,"Delta":93861794},{"NoteNumber":44,"Velocity":60,"Duration":82036,"SoundDuration":82036,"Delta":93861794},{"NoteNumber":49,"Velocity":58,"Duration":83405,"SoundDuration":83405,"Delta":93943831},{"NoteNumber":53,"Velocity":56,"Duration":84810,"SoundDuration":84810,"Delta":94027236},{"NoteNumber":66,"Velocity":64,"Duration":512821,"SoundDuration":512821,"Delta":94112047},{"NoteNumber":61,"Velocity":64,"Duration":256410,"SoundDuration":256410,"Delta":94112047},{"NoteNumber":73,"Velocity":77,"Duration":256410,"SoundDuration":256410,"Delta":94112047},{"NoteNumber":39,"Velocity":55,"Duration":85470,"SoundDuration":85470,"Delta":94112047},{"NoteNumber":45,"Velocity":55,"Duration":85470,"SoundDuration":85470,"Delta":94197517},{"NoteNumber":49,"Velocity":59,"Duration":85470,"SoundDuration":85470,"Delta":94282987},{"NoteNumber":63,"Velocity":75,"Duration":256410,"SoundDuration":256410,"Delta":94368457},{"NoteNumber":75,"Velocity":89,"Duration":256410,"SoundDuration":256410,"Delta":94368457},{"NoteNumber":54,"Velocity":61,"Duration":85470,"SoundDuration":85470,"Delta":94368457},{"NoteNumber":57,"Velocity":64,"Duration":85470,"SoundDuration":85470,"Delta":94453927},{"NoteNumber":61,"Velocity":67,"Duration":85470,"SoundDuration":85470,"Delta":94539398},{"NoteNumber":80,"Velocity":93,"Duration":256051,"SoundDuration":256051,"Delta":94624868},{"NoteNumber":66,"Velocity":70,"Duration":85470,"SoundDuration":85470,"Delta":94624868},{"NoteNumber":68,"Velocity":73,"Duration":85470,"SoundDuration":85470,"Delta":94710338},{"NoteNumber":73,"Velocity":77,"Duration":85111,"SoundDuration":85111,"Delta":94795808},{"NoteNumber":80,"Velocity":80,"Duration":75489,"SoundDuration":75489,"Delta":94880919},{"NoteNumber":73,"Velocity":78,"Duration":74931,"SoundDuration":74931,"Delta":94956409},{"NoteNumber":69,"Velocity":77,"Duration":74380,"SoundDuration":74380,"Delta":95031340},{"NoteNumber":68,"Velocity":75,"Duration":73955,"SoundDuration":73955,"Delta":95105721},{"NoteNumber":66,"Velocity":73,"Duration":73436,"SoundDuration":73436,"Delta":95179677},{"NoteNumber":61,"Velocity":71,"Duration":72907,"SoundDuration":72907,"Delta":95253113},{"NoteNumber":57,"Velocity":69,"Duration":72402,"SoundDuration":72402,"Delta":95326021},{"NoteNumber":54,"Velocity":67,"Duration":79968,"SoundDuration":79968,"Delta":95398424},{"NoteNumber":49,"Velocity":66,"Duration":71492,"SoundDuration":71492,"Delta":95470424},{"NoteNumber":45,"Velocity":65,"Duration":70990,"SoundDuration":70990,"Delta":95541916},{"NoteNumber":56,"Velocity":62,"Duration":70619,"SoundDuration":70619,"Delta":95612907},{"NoteNumber":54,"Velocity":61,"Duration":70130,"SoundDuration":70130,"Delta":95683526},{"NoteNumber":49,"Velocity":60,"Duration":69632,"SoundDuration":69632,"Delta":95753656},{"NoteNumber":45,"Velocity":59,"Duration":69216,"SoundDuration":69216,"Delta":95823289},{"NoteNumber":44,"Velocity":58,"Duration":68819,"SoundDuration":68819,"Delta":95892505},{"NoteNumber":42,"Velocity":57,"Duration":68325,"SoundDuration":68325,"Delta":95961324},{"NoteNumber":37,"Velocity":56,"Duration":67938,"SoundDuration":67938,"Delta":96029650},{"NoteNumber":33,"Velocity":55,"Duration":75019,"SoundDuration":75019,"Delta":96097589},{"NoteNumber":37,"Velocity":54,"Duration":67081,"SoundDuration":67081,"Delta":96165132},{"NoteNumber":30,"Velocity":53,"Duration":66914,"SoundDuration":66914,"Delta":96232213},{"NoteNumber":27,"Velocity":49,"Duration":111524,"SoundDuration":111524,"Delta":96299127},{"NoteNumber":39,"Velocity":50,"Duration":111524,"SoundDuration":111524,"Delta":96410652},{"NoteNumber":39,"Velocity":53,"Duration":110499,"SoundDuration":110499,"Delta":96522176},{"NoteNumber":51,"Velocity":47,"Duration":110294,"SoundDuration":110294,"Delta":96632675},{"NoteNumber":51,"Velocity":54,"Duration":114942,"SoundDuration":114942,"Delta":96742969},{"NoteNumber":63,"Velocity":51,"Duration":114942,"SoundDuration":114942,"Delta":96857911},{"NoteNumber":39,"Velocity":53,"Duration":111524,"SoundDuration":111524,"Delta":96972854},{"NoteNumber":51,"Velocity":47,"Duration":111524,"SoundDuration":111524,"Delta":97084378},{"NoteNumber":51,"Velocity":52,"Duration":108695,"SoundDuration":108695,"Delta":97195902},{"NoteNumber":63,"Velocity":47,"Duration":108695,"SoundDuration":108695,"Delta":97304598},{"NoteNumber":75,"Velocity":51,"Duration":110701,"SoundDuration":110701,"Delta":97413294},{"NoteNumber":87,"Velocity":46,"Duration":110700,"SoundDuration":110700,"Delta":97523995},{"NoteNumber":51,"Velocity":50,"Duration":110701,"SoundDuration":110701,"Delta":97634696},{"NoteNumber":63,"Velocity":46,"Duration":110700,"SoundDuration":110700,"Delta":97745397},{"NoteNumber":63,"Velocity":51,"Duration":108695,"SoundDuration":108695,"Delta":97856098},{"NoteNumber":75,"Velocity":47,"Duration":108695,"SoundDuration":108695,"Delta":97964794},{"NoteNumber":75,"Velocity":51,"Duration":116146,"SoundDuration":116146,"Delta":98073489},{"NoteNumber":87,"Velocity":48,"Duration":129158,"SoundDuration":129158,"Delta":98189635},{"NoteNumber":99,"Velocity":53,"Duration":223048,"SoundDuration":223048,"Delta":98318794},{"NoteNumber":69,"Velocity":37,"Duration":55762,"SoundDuration":55762,"Delta":99768609},{"NoteNumber":74,"Velocity":37,"Duration":55762,"SoundDuration":55762,"Delta":99768609},{"NoteNumber":77,"Velocity":44,"Duration":55762,"SoundDuration":55762,"Delta":99768609},{"NoteNumber":59,"Velocity":31,"Duration":55762,"SoundDuration":55762,"Delta":99768609},{"NoteNumber":63,"Velocity":37,"Duration":55762,"SoundDuration":55762,"Delta":99768609},{"NoteNumber":68,"Velocity":40,"Duration":5941981,"SoundDuration":5941981,"Delta":99880134},{"NoteNumber":73,"Velocity":40,"Duration":5941981,"SoundDuration":5941981,"Delta":99880134},{"NoteNumber":79,"Velocity":48,"Duration":5941981,"SoundDuration":5941981,"Delta":99880134},{"NoteNumber":53,"Velocity":34,"Duration":5941981,"SoundDuration":5941981,"Delta":99880134},{"NoteNumber":58,"Velocity":34,"Duration":5941981,"SoundDuration":5941981,"Delta":99880134},{"NoteNumber":62,"Velocity":40,"Duration":5941981,"SoundDuration":5941981,"Delta":99880134},{"NoteNumber":64,"Velocity":20,"Duration":101695,"SoundDuration":101695,"Delta":100345250},{"NoteNumber":76,"Velocity":21,"Duration":101694,"SoundDuration":101694,"Delta":100446945},{"NoteNumber":88,"Velocity":27,"Duration":100334,"SoundDuration":100334,"Delta":100548640},{"NoteNumber":76,"Velocity":22,"Duration":100334,"SoundDuration":100334,"Delta":100648974},{"NoteNumber":88,"Velocity":26,"Duration":102040,"SoundDuration":102040,"Delta":100749309},{"NoteNumber":76,"Velocity":24,"Duration":102040,"SoundDuration":102040,"Delta":100851349},{"NoteNumber":64,"Velocity":21,"Duration":102040,"SoundDuration":102040,"Delta":100953390},{"NoteNumber":76,"Velocity":22,"Duration":102040,"SoundDuration":102040,"Delta":101055431},{"NoteNumber":88,"Velocity":25,"Duration":100334,"SoundDuration":100334,"Delta":101157472},{"NoteNumber":76,"Velocity":21,"Duration":100334,"SoundDuration":100334,"Delta":101257806},{"NoteNumber":88,"Velocity":25,"Duration":101695,"SoundDuration":101695,"Delta":101358141},{"NoteNumber":76,"Velocity":21,"Duration":101694,"SoundDuration":101694,"Delta":101459836},{"NoteNumber":64,"Velocity":24,"Duration":102739,"SoundDuration":102739,"Delta":101561531},{"NoteNumber":76,"Velocity":21,"Duration":102739,"SoundDuration":102739,"Delta":101664270},{"NoteNumber":88,"Velocity":25,"Duration":99999,"SoundDuration":99999,"Delta":101767010},{"NoteNumber":76,"Velocity":21,"Duration":100000,"SoundDuration":100000,"Delta":101867010},{"NoteNumber":88,"Velocity":25,"Duration":102739,"SoundDuration":102739,"Delta":101967010},{"NoteNumber":76,"Velocity":21,"Duration":102739,"SoundDuration":102739,"Delta":102069750},{"NoteNumber":64,"Velocity":24,"Duration":101351,"SoundDuration":101351,"Delta":102172490},{"NoteNumber":76,"Velocity":22,"Duration":101351,"SoundDuration":101351,"Delta":102273841},{"NoteNumber":88,"Velocity":26,"Duration":99999,"SoundDuration":99999,"Delta":102375192},{"NoteNumber":76,"Velocity":22,"Duration":100000,"SoundDuration":100000,"Delta":102475192},{"NoteNumber":88,"Velocity":27,"Duration":102040,"SoundDuration":102040,"Delta":102575192},{"NoteNumber":76,"Velocity":21,"Duration":102040,"SoundDuration":102040,"Delta":102677233},{"NoteNumber":64,"Velocity":25,"Duration":101351,"SoundDuration":101351,"Delta":102779274},{"NoteNumber":76,"Velocity":22,"Duration":101351,"SoundDuration":101351,"Delta":102880625},{"NoteNumber":88,"Velocity":28,"Duration":99999,"SoundDuration":99999,"Delta":102981976},{"NoteNumber":76,"Velocity":20,"Duration":100000,"SoundDuration":100000,"Delta":103081976},{"NoteNumber":88,"Velocity":28,"Duration":102389,"SoundDuration":102389,"Delta":103181976},{"NoteNumber":76,"Velocity":21,"Duration":102389,"SoundDuration":102389,"Delta":103284365},{"NoteNumber":64,"Velocity":25,"Duration":102040,"SoundDuration":102040,"Delta":103386754},{"NoteNumber":76,"Velocity":20,"Duration":102040,"SoundDuration":102040,"Delta":103488795},{"NoteNumber":88,"Velocity":26,"Duration":100334,"SoundDuration":100334,"Delta":103590836},{"NoteNumber":76,"Velocity":21,"Duration":100334,"SoundDuration":100334,"Delta":103691170},{"NoteNumber":88,"Velocity":28,"Duration":101695,"SoundDuration":101695,"Delta":103791505},{"NoteNumber":76,"Velocity":22,"Duration":101694,"SoundDuration":101694,"Delta":103893200},{"NoteNumber":64,"Velocity":25,"Duration":102389,"SoundDuration":102389,"Delta":103994895},{"NoteNumber":76,"Velocity":21,"Duration":102389,"SoundDuration":102389,"Delta":104097284},{"NoteNumber":88,"Velocity":26,"Duration":99999,"SoundDuration":99999,"Delta":104199673},{"NoteNumber":76,"Velocity":22,"Duration":100000,"SoundDuration":100000,"Delta":104299673},{"NoteNumber":88,"Velocity":25,"Duration":102040,"SoundDuration":102040,"Delta":104399673},{"NoteNumber":76,"Velocity":22,"Duration":102040,"SoundDuration":102040,"Delta":104501713},{"NoteNumber":64,"Velocity":22,"Duration":102040,"SoundDuration":102040,"Delta":104603754},{"NoteNumber":76,"Velocity":21,"Duration":102040,"SoundDuration":102040,"Delta":104705795},{"NoteNumber":88,"Velocity":26,"Duration":100334,"SoundDuration":100334,"Delta":104807836},{"NoteNumber":76,"Velocity":22,"Duration":100334,"SoundDuration":100334,"Delta":104908170},{"NoteNumber":88,"Velocity":26,"Duration":102040,"SoundDuration":102040,"Delta":105008505},{"NoteNumber":76,"Velocity":22,"Duration":102040,"SoundDuration":102040,"Delta":105110545},{"NoteNumber":64,"Velocity":22,"Duration":102040,"SoundDuration":102040,"Delta":105212586},{"NoteNumber":76,"Velocity":22,"Duration":102040,"SoundDuration":102040,"Delta":105314627},{"NoteNumber":88,"Velocity":27,"Duration":100334,"SoundDuration":100334,"Delta":105416668},{"NoteNumber":76,"Velocity":21,"Duration":100334,"SoundDuration":100334,"Delta":105517002},{"NoteNumber":88,"Velocity":25,"Duration":102389,"SoundDuration":102389,"Delta":105617337},{"NoteNumber":76,"Velocity":22,"Duration":102389,"SoundDuration":102389,"Delta":105719726},{"NoteNumber":69,"Velocity":37,"Duration":45592,"SoundDuration":45592,"Delta":105913300},{"NoteNumber":74,"Velocity":37,"Duration":45592,"SoundDuration":45592,"Delta":105913300},{"NoteNumber":77,"Velocity":44,"Duration":45592,"SoundDuration":45592,"Delta":105913300},{"NoteNumber":63,"Velocity":38,"Duration":45592,"SoundDuration":45592,"Delta":105913300},{"NoteNumber":59,"Velocity":32,"Duration":45592,"SoundDuration":45592,"Delta":105913300},{"NoteNumber":68,"Velocity":40,"Duration":99999,"SoundDuration":99999,"Delta":106004486},{"NoteNumber":73,"Velocity":40,"Duration":99999,"SoundDuration":99999,"Delta":106004486},{"NoteNumber":79,"Velocity":48,"Duration":99999,"SoundDuration":99999,"Delta":106004486},{"NoteNumber":53,"Velocity":35,"Duration":99999,"SoundDuration":99999,"Delta":106004486},{"NoteNumber":58,"Velocity":35,"Duration":99999,"SoundDuration":99999,"Delta":106004486},{"NoteNumber":62,"Velocity":42,"Duration":99999,"SoundDuration":99999,"Delta":106004486},{"NoteNumber":67,"Velocity":37,"Duration":45454,"SoundDuration":45454,"Delta":106295395},{"NoteNumber":72,"Velocity":37,"Duration":45454,"SoundDuration":45454,"Delta":106295395},{"NoteNumber":76,"Velocity":44,"Duration":45454,"SoundDuration":45454,"Delta":106295395},{"NoteNumber":57,"Velocity":30,"Duration":45454,"SoundDuration":45454,"Delta":106295395},{"NoteNumber":61,"Velocity":36,"Duration":45454,"SoundDuration":45454,"Delta":106295395},{"NoteNumber":66,"Velocity":40,"Duration":102389,"SoundDuration":102389,"Delta":106386304},{"NoteNumber":71,"Velocity":40,"Duration":102389,"SoundDuration":102389,"Delta":106386304},{"NoteNumber":77,"Velocity":48,"Duration":102389,"SoundDuration":102389,"Delta":106386304},{"NoteNumber":51,"Velocity":34,"Duration":102389,"SoundDuration":102389,"Delta":106386304},{"NoteNumber":56,"Velocity":34,"Duration":102389,"SoundDuration":102389,"Delta":106386304},{"NoteNumber":60,"Velocity":41,"Duration":102389,"SoundDuration":102389,"Delta":106386304},{"NoteNumber":69,"Velocity":37,"Duration":55762,"SoundDuration":55762,"Delta":107112162},{"NoteNumber":74,"Velocity":37,"Duration":55762,"SoundDuration":55762,"Delta":107112162},{"NoteNumber":77,"Velocity":44,"Duration":55762,"SoundDuration":55762,"Delta":107112162},{"NoteNumber":59,"Velocity":31,"Duration":55762,"SoundDuration":55762,"Delta":107112162},{"NoteNumber":63,"Velocity":37,"Duration":55762,"SoundDuration":55762,"Delta":107112162},{"NoteNumber":68,"Velocity":40,"Duration":4723620,"SoundDuration":4723620,"Delta":107223686},{"NoteNumber":73,"Velocity":40,"Duration":4723620,"SoundDuration":4723620,"Delta":107223686},{"NoteNumber":79,"Velocity":48,"Duration":4723620,"SoundDuration":4723620,"Delta":107223686},{"NoteNumber":53,"Velocity":34,"Duration":4723620,"SoundDuration":4723620,"Delta":107223686},{"NoteNumber":58,"Velocity":34,"Duration":4723620,"SoundDuration":4723620,"Delta":107223686},{"NoteNumber":62,"Velocity":40,"Duration":4723620,"SoundDuration":4723620,"Delta":107223686},{"NoteNumber":64,"Velocity":20,"Duration":101695,"SoundDuration":101695,"Delta":107688802},{"NoteNumber":76,"Velocity":21,"Duration":101694,"SoundDuration":101694,"Delta":107790497},{"NoteNumber":88,"Velocity":27,"Duration":100334,"SoundDuration":100334,"Delta":107892192},{"NoteNumber":76,"Velocity":22,"Duration":100334,"SoundDuration":100334,"Delta":107992527},{"NoteNumber":88,"Velocity":26,"Duration":102040,"SoundDuration":102040,"Delta":108092861},{"NoteNumber":76,"Velocity":24,"Duration":102040,"SoundDuration":102040,"Delta":108194902},{"NoteNumber":64,"Velocity":21,"Duration":102040,"SoundDuration":102040,"Delta":108296943},{"NoteNumber":76,"Velocity":22,"Duration":102040,"SoundDuration":102040,"Delta":108398983},{"NoteNumber":88,"Velocity":25,"Duration":100334,"SoundDuration":100334,"Delta":108501024},{"NoteNumber":76,"Velocity":21,"Duration":100334,"SoundDuration":100334,"Delta":108601359},{"NoteNumber":88,"Velocity":25,"Duration":101695,"SoundDuration":101695,"Delta":108701693},{"NoteNumber":76,"Velocity":21,"Duration":101694,"SoundDuration":101694,"Delta":108803388},{"NoteNumber":64,"Velocity":20,"Duration":102739,"SoundDuration":102739,"Delta":108905083},{"NoteNumber":76,"Velocity":21,"Duration":102739,"SoundDuration":102739,"Delta":109007823},{"NoteNumber":88,"Velocity":25,"Duration":99999,"SoundDuration":99999,"Delta":109110563},{"NoteNumber":76,"Velocity":21,"Duration":100000,"SoundDuration":100000,"Delta":109210563},{"NoteNumber":88,"Velocity":25,"Duration":102739,"SoundDuration":102739,"Delta":109310563},{"NoteNumber":76,"Velocity":21,"Duration":102739,"SoundDuration":102739,"Delta":109413302},{"NoteNumber":64,"Velocity":20,"Duration":101351,"SoundDuration":101351,"Delta":109516042},{"NoteNumber":76,"Velocity":22,"Duration":101351,"SoundDuration":101351,"Delta":109617393},{"NoteNumber":88,"Velocity":26,"Duration":99999,"SoundDuration":99999,"Delta":109718745},{"NoteNumber":76,"Velocity":22,"Duration":100000,"SoundDuration":100000,"Delta":109818745},{"NoteNumber":88,"Velocity":27,"Duration":102040,"SoundDuration":102040,"Delta":109918745},{"NoteNumber":76,"Velocity":21,"Duration":102040,"SoundDuration":102040,"Delta":110020785},{"NoteNumber":64,"Velocity":22,"Duration":101351,"SoundDuration":101351,"Delta":110122826},{"NoteNumber":76,"Velocity":22,"Duration":101351,"SoundDuration":101351,"Delta":110224177},{"NoteNumber":88,"Velocity":28,"Duration":99999,"SoundDuration":99999,"Delta":110325529},{"NoteNumber":76,"Velocity":20,"Duration":100000,"SoundDuration":100000,"Delta":110425529},{"NoteNumber":88,"Velocity":28,"Duration":102389,"SoundDuration":102389,"Delta":110525529},{"NoteNumber":76,"Velocity":21,"Duration":102389,"SoundDuration":102389,"Delta":110627918},{"NoteNumber":64,"Velocity":25,"Duration":102040,"SoundDuration":102040,"Delta":110730307},{"NoteNumber":76,"Velocity":20,"Duration":102040,"SoundDuration":102040,"Delta":110832347},{"NoteNumber":88,"Velocity":26,"Duration":100334,"SoundDuration":100334,"Delta":110934388},{"NoteNumber":76,"Velocity":21,"Duration":100334,"SoundDuration":100334,"Delta":111034723},{"NoteNumber":88,"Velocity":28,"Duration":101695,"SoundDuration":101695,"Delta":111135057},{"NoteNumber":76,"Velocity":22,"Duration":101694,"SoundDuration":101694,"Delta":111236752},{"NoteNumber":64,"Velocity":20,"Duration":102389,"SoundDuration":102389,"Delta":111338447},{"NoteNumber":76,"Velocity":21,"Duration":102389,"SoundDuration":102389,"Delta":111440836},{"NoteNumber":88,"Velocity":26,"Duration":99999,"SoundDuration":99999,"Delta":111543225},{"NoteNumber":76,"Velocity":22,"Duration":100000,"SoundDuration":100000,"Delta":111643225},{"NoteNumber":88,"Velocity":25,"Duration":102040,"SoundDuration":102040,"Delta":111743225},{"NoteNumber":76,"Velocity":22,"Duration":102040,"SoundDuration":102040,"Delta":111845266},{"NoteNumber":69,"Velocity":37,"Duration":46012,"SoundDuration":46012,"Delta":112039331},{"NoteNumber":74,"Velocity":37,"Duration":46012,"SoundDuration":46012,"Delta":112039331},{"NoteNumber":77,"Velocity":44,"Duration":46012,"SoundDuration":46012,"Delta":112039331},{"NoteNumber":63,"Velocity":38,"Duration":46012,"SoundDuration":46012,"Delta":112039331},{"NoteNumber":59,"Velocity":32,"Duration":46012,"SoundDuration":46012,"Delta":112039331},{"NoteNumber":68,"Velocity":40,"Duration":99667,"SoundDuration":99667,"Delta":112131356},{"NoteNumber":73,"Velocity":40,"Duration":99667,"SoundDuration":99667,"Delta":112131356},{"NoteNumber":79,"Velocity":48,"Duration":99667,"SoundDuration":99667,"Delta":112131356},{"NoteNumber":53,"Velocity":35,"Duration":99667,"SoundDuration":99667,"Delta":112131356},{"NoteNumber":58,"Velocity":35,"Duration":99667,"SoundDuration":99667,"Delta":112131356},{"NoteNumber":62,"Velocity":42,"Duration":99667,"SoundDuration":99667,"Delta":112131356},{"NoteNumber":67,"Velocity":37,"Duration":45592,"SoundDuration":45592,"Delta":112421877},{"NoteNumber":72,"Velocity":37,"Duration":45592,"SoundDuration":45592,"Delta":112421877},{"NoteNumber":76,"Velocity":44,"Duration":45592,"SoundDuration":45592,"Delta":112421877},{"NoteNumber":57,"Velocity":30,"Duration":45592,"SoundDuration":45592,"Delta":112421877},{"NoteNumber":61,"Velocity":36,"Duration":45592,"SoundDuration":45592,"Delta":112421877},{"NoteNumber":66,"Velocity":40,"Duration":109488,"SoundDuration":109488,"Delta":112513062},{"NoteNumber":71,"Velocity":40,"Duration":109488,"SoundDuration":109488,"Delta":112513062},{"NoteNumber":77,"Velocity":48,"Duration":109488,"SoundDuration":109488,"Delta":112513062},{"NoteNumber":51,"Velocity":34,"Duration":109488,"SoundDuration":109488,"Delta":112513062},{"NoteNumber":56,"Velocity":34,"Duration":109488,"SoundDuration":109488,"Delta":112513062},{"NoteNumber":60,"Velocity":41,"Duration":109488,"SoundDuration":109488,"Delta":112513062},{"NoteNumber":74,"Velocity":44,"Duration":56603,"SoundDuration":56603,"Delta":113060507},{"NoteNumber":65,"Velocity":37,"Duration":56603,"SoundDuration":56603,"Delta":113060507},{"NoteNumber":71,"Velocity":37,"Duration":56603,"SoundDuration":56603,"Delta":113060507},{"NoteNumber":55,"Velocity":31,"Duration":56603,"SoundDuration":56603,"Delta":113060507},{"NoteNumber":59,"Velocity":37,"Duration":56603,"SoundDuration":56603,"Delta":113060507},{"NoteNumber":64,"Velocity":40,"Duration":773682,"SoundDuration":773682,"Delta":113173715},{"NoteNumber":69,"Velocity":40,"Duration":3713146,"SoundDuration":3713146,"Delta":113173715},{"NoteNumber":75,"Velocity":48,"Duration":3713146,"SoundDuration":3713146,"Delta":113173715},{"NoteNumber":49,"Velocity":34,"Duration":3713146,"SoundDuration":3713146,"Delta":113173715},{"NoteNumber":54,"Velocity":34,"Duration":3713146,"SoundDuration":3713146,"Delta":113173715},{"NoteNumber":58,"Velocity":40,"Duration":3713146,"SoundDuration":3713146,"Delta":113173715},{"NoteNumber":76,"Velocity":22,"Duration":111940,"SoundDuration":111940,"Delta":113509535},{"NoteNumber":88,"Velocity":26,"Duration":111940,"SoundDuration":111940,"Delta":113621476},{"NoteNumber":76,"Velocity":24,"Duration":111940,"SoundDuration":111940,"Delta":113733416},{"NoteNumber":64,"Velocity":21,"Duration":710880,"SoundDuration":710880,"Delta":113845356},{"NoteNumber":88,"Velocity":22,"Duration":102040,"SoundDuration":102040,"Delta":113947397},{"NoteNumber":76,"Velocity":25,"Duration":100334,"SoundDuration":100334,"Delta":114049438},{"NoteNumber":76,"Velocity":21,"Duration":100334,"SoundDuration":100334,"Delta":114149772},{"NoteNumber":88,"Velocity":25,"Duration":101695,"SoundDuration":101695,"Delta":114250107},{"NoteNumber":76,"Velocity":21,"Duration":101694,"SoundDuration":101694,"Delta":114351802},{"NoteNumber":64,"Velocity":20,"Duration":712310,"SoundDuration":712310,"Delta":114453497},{"NoteNumber":88,"Velocity":21,"Duration":102739,"SoundDuration":102739,"Delta":114556236},{"NoteNumber":76,"Velocity":25,"Duration":99999,"SoundDuration":99999,"Delta":114658976},{"NoteNumber":76,"Velocity":21,"Duration":100000,"SoundDuration":100000,"Delta":114758976},{"NoteNumber":88,"Velocity":25,"Duration":102739,"SoundDuration":102739,"Delta":114858976},{"NoteNumber":76,"Velocity":21,"Duration":102739,"SoundDuration":102739,"Delta":114961716},{"NoteNumber":64,"Velocity":20,"Duration":708135,"SoundDuration":708135,"Delta":115064456},{"NoteNumber":88,"Velocity":22,"Duration":101351,"SoundDuration":101351,"Delta":115165807},{"NoteNumber":76,"Velocity":26,"Duration":99999,"SoundDuration":99999,"Delta":115267158},{"NoteNumber":76,"Velocity":22,"Duration":100000,"SoundDuration":100000,"Delta":115367158},{"NoteNumber":88,"Velocity":27,"Duration":102040,"SoundDuration":102040,"Delta":115467158},{"NoteNumber":76,"Velocity":21,"Duration":102040,"SoundDuration":102040,"Delta":115569199},{"NoteNumber":64,"Velocity":22,"Duration":709521,"SoundDuration":709521,"Delta":115671240},{"NoteNumber":88,"Velocity":22,"Duration":101351,"SoundDuration":101351,"Delta":115772591},{"NoteNumber":76,"Velocity":28,"Duration":99999,"SoundDuration":99999,"Delta":115873942},{"NoteNumber":76,"Velocity":20,"Duration":100000,"SoundDuration":100000,"Delta":115973942},{"NoteNumber":88,"Velocity":28,"Duration":102389,"SoundDuration":102389,"Delta":116073942},{"NoteNumber":76,"Velocity":21,"Duration":102389,"SoundDuration":102389,"Delta":116176331},{"NoteNumber":64,"Velocity":25,"Duration":608140,"SoundDuration":608140,"Delta":116278720},{"NoteNumber":88,"Velocity":20,"Duration":102040,"SoundDuration":102040,"Delta":116380761},{"NoteNumber":76,"Velocity":26,"Duration":100334,"SoundDuration":100334,"Delta":116482802},{"NoteNumber":76,"Velocity":21,"Duration":100334,"SoundDuration":100334,"Delta":116583136},{"NoteNumber":88,"Velocity":28,"Duration":101695,"SoundDuration":101695,"Delta":116683471},{"NoteNumber":76,"Velocity":22,"Duration":101694,"SoundDuration":101694,"Delta":116785166},{"NoteNumber":64,"Velocity":37,"Duration":101351,"SoundDuration":101351,"Delta":116988212},{"NoteNumber":69,"Velocity":37,"Duration":101351,"SoundDuration":101351,"Delta":116988212},{"NoteNumber":72,"Velocity":44,"Duration":101351,"SoundDuration":101351,"Delta":116988212},{"NoteNumber":49,"Velocity":32,"Duration":309684,"SoundDuration":309684,"Delta":116988212},{"NoteNumber":58,"Velocity":38,"Duration":309684,"SoundDuration":309684,"Delta":116988212},{"NoteNumber":54,"Velocity":32,"Duration":309684,"SoundDuration":309684,"Delta":116988212},{"NoteNumber":64,"Velocity":32,"Duration":208333,"SoundDuration":208333,"Delta":117089563},{"NoteNumber":68,"Velocity":32,"Duration":208333,"SoundDuration":208333,"Delta":117089563},{"NoteNumber":73,"Velocity":38,"Duration":208333,"SoundDuration":208333,"Delta":117089563},{"NoteNumber":42,"Velocity":28,"Duration":208333,"SoundDuration":208333,"Delta":117089563},{"NoteNumber":59,"Velocity":37,"Duration":320410,"SoundDuration":320410,"Delta":117398231},{"NoteNumber":63,"Velocity":37,"Duration":100334,"SoundDuration":100334,"Delta":117398231},{"NoteNumber":67,"Velocity":44,"Duration":100334,"SoundDuration":100334,"Delta":117398231},{"NoteNumber":47,"Velocity":30,"Duration":320410,"SoundDuration":320410,"Delta":117398231},{"NoteNumber":54,"Velocity":36,"Duration":320410,"SoundDuration":320410,"Delta":117398231},{"NoteNumber":63,"Velocity":32,"Duration":220075,"SoundDuration":220075,"Delta":117498566},{"NoteNumber":66,"Velocity":32,"Duration":220075,"SoundDuration":220075,"Delta":117498566},{"NoteNumber":68,"Velocity":38,"Duration":220075,"SoundDuration":220075,"Delta":117498566},{"NoteNumber":35,"Velocity":27,"Duration":220075,"SoundDuration":220075,"Delta":117498566},{"NoteNumber":42,"Velocity":27,"Duration":220075,"SoundDuration":220075,"Delta":117498566},{"NoteNumber":65,"Velocity":37,"Duration":117187,"SoundDuration":117187,"Delta":117843641},{"NoteNumber":69,"Velocity":37,"Duration":117187,"SoundDuration":117187,"Delta":117843641},{"NoteNumber":71,"Velocity":44,"Duration":117187,"SoundDuration":117187,"Delta":117843641},{"NoteNumber":55,"Velocity":31,"Duration":117187,"SoundDuration":117187,"Delta":117843641},{"NoteNumber":59,"Velocity":37,"Duration":117187,"SoundDuration":117187,"Delta":117843641},{"NoteNumber":64,"Velocity":32,"Duration":334253,"SoundDuration":334253,"Delta":117960829},{"NoteNumber":69,"Velocity":32,"Duration":2059798,"SoundDuration":2059798,"Delta":117960829},{"NoteNumber":75,"Velocity":38,"Duration":2059798,"SoundDuration":2059798,"Delta":117960829},{"NoteNumber":49,"Velocity":27,"Duration":2059798,"SoundDuration":2059798,"Delta":117960829},{"NoteNumber":54,"Velocity":27,"Duration":2059798,"SoundDuration":2059798,"Delta":117960829},{"NoteNumber":58,"Velocity":32,"Duration":2059798,"SoundDuration":2059798,"Delta":117960829},{"NoteNumber":64,"Velocity":20,"Duration":710181,"SoundDuration":710181,"Delta":118193387},{"NoteNumber":76,"Velocity":21,"Duration":101694,"SoundDuration":101694,"Delta":118295082},{"NoteNumber":88,"Velocity":27,"Duration":100334,"SoundDuration":100334,"Delta":118396777},{"NoteNumber":76,"Velocity":22,"Duration":100334,"SoundDuration":100334,"Delta":118497111},{"NoteNumber":88,"Velocity":26,"Duration":102040,"SoundDuration":102040,"Delta":118597446},{"NoteNumber":76,"Velocity":24,"Duration":102040,"SoundDuration":102040,"Delta":118699486},{"NoteNumber":64,"Velocity":21,"Duration":710880,"SoundDuration":710880,"Delta":118801527},{"NoteNumber":76,"Velocity":22,"Duration":102040,"SoundDuration":102040,"Delta":118903568},{"NoteNumber":88,"Velocity":25,"Duration":100334,"SoundDuration":100334,"Delta":119005609},{"NoteNumber":76,"Velocity":21,"Duration":100334,"SoundDuration":100334,"Delta":119105943},{"NoteNumber":88,"Velocity":25,"Duration":101695,"SoundDuration":101695,"Delta":119206278},{"NoteNumber":76,"Velocity":21,"Duration":101694,"SoundDuration":101694,"Delta":119307973},{"NoteNumber":64,"Velocity":20,"Duration":610958,"SoundDuration":610958,"Delta":119409668},{"NoteNumber":76,"Velocity":21,"Duration":102739,"SoundDuration":102739,"Delta":119512407},{"NoteNumber":88,"Velocity":25,"Duration":99999,"SoundDuration":99999,"Delta":119615147},{"NoteNumber":76,"Velocity":21,"Duration":100000,"SoundDuration":100000,"Delta":119715147},{"NoteNumber":88,"Velocity":25,"Duration":102739,"SoundDuration":102739,"Delta":119815147},{"NoteNumber":76,"Velocity":21,"Duration":102739,"SoundDuration":102739,"Delta":119917887},{"NoteNumber":64,"Velocity":37,"Duration":101351,"SoundDuration":101351,"Delta":120121978},{"NoteNumber":69,"Velocity":37,"Duration":101351,"SoundDuration":101351,"Delta":120121978},{"NoteNumber":72,"Velocity":44,"Duration":101351,"SoundDuration":101351,"Delta":120121978},{"NoteNumber":49,"Velocity":32,"Duration":309684,"SoundDuration":309684,"Delta":120121978},{"NoteNumber":58,"Velocity":38,"Duration":309684,"SoundDuration":309684,"Delta":120121978},{"NoteNumber":54,"Velocity":32,"Duration":309684,"SoundDuration":309684,"Delta":120121978},{"NoteNumber":64,"Velocity":32,"Duration":208333,"SoundDuration":208333,"Delta":120223329},{"NoteNumber":68,"Velocity":32,"Duration":208333,"SoundDuration":208333,"Delta":120223329},{"NoteNumber":73,"Velocity":38,"Duration":208333,"SoundDuration":208333,"Delta":120223329},{"NoteNumber":42,"Velocity":28,"Duration":208333,"SoundDuration":208333,"Delta":120223329},{"NoteNumber":59,"Velocity":37,"Duration":605581,"SoundDuration":605581,"Delta":120531997},{"NoteNumber":63,"Velocity":37,"Duration":100334,"SoundDuration":100334,"Delta":120531997},{"NoteNumber":67,"Velocity":44,"Duration":100334,"SoundDuration":100334,"Delta":120531997},{"NoteNumber":47,"Velocity":30,"Duration":548547,"SoundDuration":548547,"Delta":120531997},{"NoteNumber":54,"Velocity":36,"Duration":548547,"SoundDuration":548547,"Delta":120531997},{"NoteNumber":63,"Velocity":32,"Duration":448212,"SoundDuration":448212,"Delta":120632332},{"NoteNumber":66,"Velocity":32,"Duration":448212,"SoundDuration":448212,"Delta":120632332},{"NoteNumber":68,"Velocity":38,"Duration":448212,"SoundDuration":448212,"Delta":120632332},{"NoteNumber":35,"Velocity":27,"Duration":448212,"SoundDuration":448212,"Delta":120632332},{"NoteNumber":42,"Velocity":27,"Duration":448212,"SoundDuration":448212,"Delta":120632332},{"NoteNumber":64,"Velocity":32,"Duration":57034,"SoundDuration":57034,"Delta":121080544},{"NoteNumber":71,"Velocity":38,"Duration":57034,"SoundDuration":57034,"Delta":121080544},{"NoteNumber":53,"Velocity":28,"Duration":57034,"SoundDuration":57034,"Delta":121080544},{"NoteNumber":55,"Velocity":34,"Duration":57034,"SoundDuration":57034,"Delta":121080544},{"NoteNumber":32,"Velocity":39,"Duration":104408,"SoundDuration":104408,"Delta":121307152},{"NoteNumber":44,"Velocity":45,"Duration":103926,"SoundDuration":103926,"Delta":121411561},{"NoteNumber":56,"Velocity":49,"Duration":103329,"SoundDuration":103329,"Delta":121515487},{"NoteNumber":44,"Velocity":44,"Duration":102857,"SoundDuration":102857,"Delta":121618817},{"NoteNumber":68,"Velocity":55,"Duration":102272,"SoundDuration":102272,"Delta":121721674},{"NoteNumber":56,"Velocity":52,"Duration":101810,"SoundDuration":101810,"Delta":121823947},{"NoteNumber":44,"Velocity":55,"Duration":101237,"SoundDuration":101237,"Delta":121925758},{"NoteNumber":56,"Velocity":56,"Duration":100784,"SoundDuration":100784,"Delta":122026995},{"NoteNumber":68,"Velocity":60,"Duration":100222,"SoundDuration":100222,"Delta":122127779},{"NoteNumber":56,"Velocity":66,"Duration":99778,"SoundDuration":99778,"Delta":122228002},{"NoteNumber":80,"Velocity":63,"Duration":99228,"SoundDuration":99228,"Delta":122327781},{"NoteNumber":68,"Velocity":59,"Duration":98792,"SoundDuration":98792,"Delta":122427009},{"NoteNumber":56,"Velocity":84,"Duration":98360,"SoundDuration":98360,"Delta":122525802},{"NoteNumber":68,"Velocity":82,"Duration":98360,"SoundDuration":98360,"Delta":122624163},{"NoteNumber":80,"Velocity":75,"Duration":98360,"SoundDuration":98360,"Delta":122722524},{"NoteNumber":68,"Velocity":76,"Duration":99074,"SoundDuration":99074,"Delta":122820884},{"NoteNumber":92,"Velocity":101,"Duration":101870,"SoundDuration":101870,"Delta":122919959},{"NoteNumber":80,"Velocity":80,"Duration":104351,"SoundDuration":104351,"Delta":123021830},{"NoteNumber":75,"Velocity":72,"Duration":56391,"SoundDuration":56391,"Delta":123232629},{"NoteNumber":82,"Velocity":72,"Duration":56391,"SoundDuration":56391,"Delta":123232629},{"NoteNumber":87,"Velocity":86,"Duration":56391,"SoundDuration":56391,"Delta":123232629},{"NoteNumber":60,"Velocity":59,"Duration":1785104,"SoundDuration":1785104,"Delta":123232629},{"NoteNumber":66,"Velocity":59,"Duration":1785104,"SoundDuration":1785104,"Delta":123232629},{"NoteNumber":70,"Velocity":72,"Duration":112781,"SoundDuration":112781,"Delta":123232629},{"NoteNumber":77,"Velocity":78,"Duration":1672322,"SoundDuration":1672322,"Delta":123345411},{"NoteNumber":86,"Velocity":78,"Duration":1672322,"SoundDuration":1672322,"Delta":123345411},{"NoteNumber":89,"Velocity":94,"Duration":1672322,"SoundDuration":1672322,"Delta":123345411},{"NoteNumber":69,"Velocity":67,"Duration":1672322,"SoundDuration":1672322,"Delta":123345411},{"NoteNumber":74,"Velocity":78,"Duration":1672322,"SoundDuration":1672322,"Delta":123345411},{"NoteNumber":44,"Velocity":50,"Duration":103807,"SoundDuration":103807,"Delta":123810527},{"NoteNumber":56,"Velocity":51,"Duration":102740,"SoundDuration":102740,"Delta":123914335},{"NoteNumber":68,"Velocity":54,"Duration":101695,"SoundDuration":101695,"Delta":124017075},{"NoteNumber":56,"Velocity":60,"Duration":100503,"SoundDuration":100503,"Delta":124118771},{"NoteNumber":68,"Velocity":58,"Duration":99503,"SoundDuration":99503,"Delta":124219274},{"NoteNumber":56,"Velocity":55,"Duration":98576,"SoundDuration":98576,"Delta":124318778},{"NoteNumber":56,"Velocity":74,"Duration":98360,"SoundDuration":98360,"Delta":124417355},{"NoteNumber":68,"Velocity":74,"Duration":98360,"SoundDuration":98360,"Delta":124515715},{"NoteNumber":80,"Velocity":67,"Duration":98360,"SoundDuration":98360,"Delta":124614076},{"NoteNumber":68,"Velocity":71,"Duration":99074,"SoundDuration":99074,"Delta":124712437},{"NoteNumber":80,"Velocity":91,"Duration":101870,"SoundDuration":101870,"Delta":124811512},{"NoteNumber":68,"Velocity":77,"Duration":104351,"SoundDuration":104351,"Delta":124913383},{"NoteNumber":74,"Velocity":63,"Duration":101351,"SoundDuration":101351,"Delta":125119085},{"NoteNumber":82,"Velocity":63,"Duration":309684,"SoundDuration":309684,"Delta":125119085},{"NoteNumber":86,"Velocity":75,"Duration":101351,"SoundDuration":101351,"Delta":125119085},{"NoteNumber":59,"Velocity":54,"Duration":101351,"SoundDuration":101351,"Delta":125119085},{"NoteNumber":70,"Velocity":65,"Duration":309684,"SoundDuration":309684,"Delta":125119085},{"NoteNumber":66,"Velocity":54,"Duration":309684,"SoundDuration":309684,"Delta":125119085},{"NoteNumber":75,"Velocity":61,"Duration":208333,"SoundDuration":208333,"Delta":125220437},{"NoteNumber":87,"Velocity":73,"Duration":208333,"SoundDuration":208333,"Delta":125220437},{"NoteNumber":60,"Velocity":52,"Duration":208333,"SoundDuration":208333,"Delta":125220437},{"NoteNumber":69,"Velocity":63,"Duration":100334,"SoundDuration":100334,"Delta":125529105},{"NoteNumber":77,"Velocity":63,"Duration":309393,"SoundDuration":309393,"Delta":125529105},{"NoteNumber":81,"Velocity":75,"Duration":100334,"SoundDuration":100334,"Delta":125529105},{"NoteNumber":55,"Velocity":51,"Duration":100334,"SoundDuration":100334,"Delta":125529105},{"NoteNumber":61,"Velocity":51,"Duration":309393,"SoundDuration":309393,"Delta":125529105},{"NoteNumber":65,"Velocity":61,"Duration":309393,"SoundDuration":309393,"Delta":125529105},{"NoteNumber":82,"Velocity":67,"Duration":209058,"SoundDuration":209058,"Delta":125629439},{"NoteNumber":70,"Velocity":61,"Duration":209058,"SoundDuration":209058,"Delta":125629439},{"NoteNumber":56,"Velocity":51,"Duration":209058,"SoundDuration":209058,"Delta":125629439},{"NoteNumber":73,"Velocity":63,"Duration":112781,"SoundDuration":112781,"Delta":125943028},{"NoteNumber":81,"Velocity":63,"Duration":1558953,"SoundDuration":1558953,"Delta":125943028},{"NoteNumber":85,"Velocity":75,"Duration":112781,"SoundDuration":112781,"Delta":125943028},{"NoteNumber":60,"Velocity":52,"Duration":1558953,"SoundDuration":1558953,"Delta":125943028},{"NoteNumber":66,"Velocity":52,"Duration":1558953,"SoundDuration":1558953,"Delta":125943028},{"NoteNumber":69,"Velocity":63,"Duration":1558953,"SoundDuration":1558953,"Delta":125943028},{"NoteNumber":77,"Velocity":61,"Duration":1446171,"SoundDuration":1446171,"Delta":126055810},{"NoteNumber":86,"Velocity":61,"Duration":1446171,"SoundDuration":1446171,"Delta":126055810},{"NoteNumber":89,"Velocity":74,"Duration":1446171,"SoundDuration":1446171,"Delta":126055810},{"NoteNumber":74,"Velocity":61,"Duration":1446171,"SoundDuration":1446171,"Delta":126055810},{"NoteNumber":44,"Velocity":50,"Duration":104167,"SoundDuration":104167,"Delta":126288368},{"NoteNumber":56,"Velocity":51,"Duration":103093,"SoundDuration":103093,"Delta":126392535},{"NoteNumber":68,"Velocity":54,"Duration":102041,"SoundDuration":102041,"Delta":126495629},{"NoteNumber":56,"Velocity":60,"Duration":101010,"SoundDuration":101010,"Delta":126597670},{"NoteNumber":68,"Velocity":58,"Duration":100000,"SoundDuration":100000,"Delta":126698681},{"NoteNumber":56,"Velocity":55,"Duration":99337,"SoundDuration":99337,"Delta":126798682},{"NoteNumber":56,"Velocity":60,"Duration":99337,"SoundDuration":99337,"Delta":126898020},{"NoteNumber":68,"Velocity":74,"Duration":99337,"SoundDuration":99337,"Delta":126997357},{"NoteNumber":80,"Velocity":67,"Duration":99337,"SoundDuration":99337,"Delta":127096695},{"NoteNumber":68,"Velocity":71,"Duration":99726,"SoundDuration":99726,"Delta":127196033},{"NoteNumber":80,"Velocity":91,"Duration":101870,"SoundDuration":101870,"Delta":127295759},{"NoteNumber":68,"Velocity":77,"Duration":104351,"SoundDuration":104351,"Delta":127397630},{"NoteNumber":74,"Velocity":63,"Duration":101351,"SoundDuration":101351,"Delta":127603333},{"NoteNumber":82,"Velocity":63,"Duration":309684,"SoundDuration":309684,"Delta":127603333},{"NoteNumber":86,"Velocity":75,"Duration":101351,"SoundDuration":101351,"Delta":127603333},{"NoteNumber":59,"Velocity":54,"Duration":101351,"SoundDuration":101351,"Delta":127603333},{"NoteNumber":70,"Velocity":65,"Duration":309684,"SoundDuration":309684,"Delta":127603333},{"NoteNumber":66,"Velocity":54,"Duration":309684,"SoundDuration":309684,"Delta":127603333},{"NoteNumber":75,"Velocity":61,"Duration":208333,"SoundDuration":208333,"Delta":127704684},{"NoteNumber":87,"Velocity":73,"Duration":208333,"SoundDuration":208333,"Delta":127704684},{"NoteNumber":60,"Velocity":52,"Duration":208333,"SoundDuration":208333,"Delta":127704684},{"NoteNumber":69,"Velocity":48,"Duration":100334,"SoundDuration":100334,"Delta":128013352},{"NoteNumber":77,"Velocity":48,"Duration":374821,"SoundDuration":374821,"Delta":128013352},{"NoteNumber":81,"Velocity":58,"Duration":100334,"SoundDuration":100334,"Delta":128013352},{"NoteNumber":55,"Velocity":39,"Duration":100334,"SoundDuration":100334,"Delta":128013352},{"NoteNumber":61,"Velocity":39,"Duration":322556,"SoundDuration":322556,"Delta":128013352},{"NoteNumber":65,"Velocity":47,"Duration":322556,"SoundDuration":322556,"Delta":128013352},{"NoteNumber":82,"Velocity":52,"Duration":222221,"SoundDuration":222221,"Delta":128113686},{"NoteNumber":70,"Velocity":47,"Duration":222221,"SoundDuration":222221,"Delta":128113686},{"NoteNumber":56,"Velocity":39,"Duration":222221,"SoundDuration":222221,"Delta":128113686},{"NoteNumber":73,"Velocity":46,"Duration":104529,"SoundDuration":104529,"Delta":128335908},{"NoteNumber":85,"Velocity":56,"Duration":104529,"SoundDuration":104529,"Delta":128335908},{"NoteNumber":61,"Velocity":31,"Duration":104529,"SoundDuration":104529,"Delta":128335908},{"NoteNumber":67,"Velocity":31,"Duration":104529,"SoundDuration":104529,"Delta":128335908},{"NoteNumber":69,"Velocity":37,"Duration":104529,"SoundDuration":104529,"Delta":128335908},{"NoteNumber":34,"Velocity":38,"Duration":103092,"SoundDuration":103092,"Delta":128754026},{"NoteNumber":53,"Velocity":33,"Duration":51546,"SoundDuration":51546,"Delta":128857119},{"NoteNumber":61,"Velocity":33,"Duration":51546,"SoundDuration":51546,"Delta":128857119},{"NoteNumber":65,"Velocity":39,"Duration":51546,"SoundDuration":51546,"Delta":128857119},{"NoteNumber":46,"Velocity":34,"Duration":103092,"SoundDuration":103092,"Delta":128857119},{"NoteNumber":67,"Velocity":45,"Duration":2236538,"SoundDuration":2236538,"Delta":128960212},{"NoteNumber":64,"Velocity":38,"Duration":2236538,"SoundDuration":2236538,"Delta":128960212},{"NoteNumber":55,"Velocity":38,"Duration":2236538,"SoundDuration":2236538,"Delta":128960212},{"NoteNumber":46,"Velocity":35,"Duration":99009,"SoundDuration":99009,"Delta":128960212},{"NoteNumber":53,"Velocity":34,"Duration":99010,"SoundDuration":99010,"Delta":129059222},{"NoteNumber":46,"Velocity":34,"Duration":102040,"SoundDuration":102040,"Delta":129158232},{"NoteNumber":46,"Velocity":31,"Duration":102040,"SoundDuration":102040,"Delta":129260273},{"NoteNumber":34,"Velocity":38,"Duration":101695,"SoundDuration":101695,"Delta":129362313},{"NoteNumber":46,"Velocity":34,"Duration":101695,"SoundDuration":101695,"Delta":129464008},{"NoteNumber":46,"Velocity":35,"Duration":100334,"SoundDuration":100334,"Delta":129565703},{"NoteNumber":53,"Velocity":34,"Duration":100334,"SoundDuration":100334,"Delta":129666038},{"NoteNumber":46,"Velocity":34,"Duration":103448,"SoundDuration":103448,"Delta":129766372},{"NoteNumber":46,"Velocity":31,"Duration":103448,"SoundDuration":103448,"Delta":129869821},{"NoteNumber":34,"Velocity":38,"Duration":101695,"SoundDuration":101695,"Delta":129973269},{"NoteNumber":46,"Velocity":34,"Duration":101695,"SoundDuration":101695,"Delta":130074964},{"NoteNumber":46,"Velocity":35,"Duration":100334,"SoundDuration":100334,"Delta":130176659},{"NoteNumber":53,"Velocity":34,"Duration":100334,"SoundDuration":100334,"Delta":130276993},{"NoteNumber":46,"Velocity":34,"Duration":102040,"SoundDuration":102040,"Delta":130377328},{"NoteNumber":46,"Velocity":31,"Duration":102040,"SoundDuration":102040,"Delta":130479369},{"NoteNumber":34,"Velocity":38,"Duration":101697,"SoundDuration":101697,"Delta":130581409},{"NoteNumber":46,"Velocity":34,"Duration":101695,"SoundDuration":101695,"Delta":130683107},{"NoteNumber":34,"Velocity":35,"Duration":50178,"SoundDuration":50178,"Delta":130784802},{"NoteNumber":46,"Velocity":34,"Duration":50167,"SoundDuration":50167,"Delta":130885148},{"NoteNumber":34,"Velocity":34,"Duration":52816,"SoundDuration":52816,"Delta":130985483},{"NoteNumber":32,"Velocity":31,"Duration":52816,"SoundDuration":52816,"Delta":131091116},{"NoteNumber":34,"Velocity":41,"Duration":103806,"SoundDuration":103806,"Delta":131196750},{"NoteNumber":53,"Velocity":36,"Duration":51903,"SoundDuration":51903,"Delta":131300556},{"NoteNumber":61,"Velocity":36,"Duration":51903,"SoundDuration":51903,"Delta":131300556},{"NoteNumber":65,"Velocity":43,"Duration":51903,"SoundDuration":51903,"Delta":131300556},{"NoteNumber":46,"Velocity":37,"Duration":103806,"SoundDuration":103806,"Delta":131300556},{"NoteNumber":67,"Velocity":50,"Duration":100363,"SoundDuration":100363,"Delta":131404363},{"NoteNumber":64,"Velocity":42,"Duration":100363,"SoundDuration":100363,"Delta":131404363},{"NoteNumber":55,"Velocity":42,"Duration":100363,"SoundDuration":100363,"Delta":131404363},{"NoteNumber":46,"Velocity":39,"Duration":100363,"SoundDuration":100363,"Delta":131404363},{"NoteNumber":53,"Velocity":39,"Duration":100334,"SoundDuration":100334,"Delta":131504726},{"NoteNumber":46,"Velocity":42,"Duration":98684,"SoundDuration":98684,"Delta":131605061},{"NoteNumber":53,"Velocity":42,"Duration":49342,"SoundDuration":49342,"Delta":131703745},{"NoteNumber":61,"Velocity":42,"Duration":49342,"SoundDuration":49342,"Delta":131703745},{"NoteNumber":65,"Velocity":50,"Duration":49342,"SoundDuration":49342,"Delta":131703745},{"NoteNumber":46,"Velocity":40,"Duration":98684,"SoundDuration":98684,"Delta":131703745},{"NoteNumber":56,"Velocity":51,"Duration":409762,"SoundDuration":409762,"Delta":131802429},{"NoteNumber":64,"Velocity":51,"Duration":409762,"SoundDuration":409762,"Delta":131802429},{"NoteNumber":68,"Velocity":61,"Duration":409762,"SoundDuration":409762,"Delta":131802429},{"NoteNumber":34,"Velocity":57,"Duration":104529,"SoundDuration":104529,"Delta":131802429},{"NoteNumber":46,"Velocity":45,"Duration":104529,"SoundDuration":104529,"Delta":131906959},{"NoteNumber":46,"Velocity":46,"Duration":100369,"SoundDuration":100369,"Delta":132011488},{"NoteNumber":53,"Velocity":39,"Duration":100334,"SoundDuration":100334,"Delta":132111858},{"NoteNumber":65,"Velocity":55,"Duration":206185,"SoundDuration":206185,"Delta":132212192},{"NoteNumber":46,"Velocity":38,"Duration":103092,"SoundDuration":103092,"Delta":132212192},{"NoteNumber":61,"Velocity":50,"Duration":154639,"SoundDuration":154639,"Delta":132263738},{"NoteNumber":53,"Velocity":50,"Duration":103092,"SoundDuration":103092,"Delta":132315285},{"NoteNumber":46,"Velocity":34,"Duration":103092,"SoundDuration":103092,"Delta":132315285},{"NoteNumber":34,"Velocity":38,"Duration":105633,"SoundDuration":105633,"Delta":132418378},{"NoteNumber":53,"Velocity":33,"Duration":52816,"SoundDuration":52816,"Delta":132524011},{"NoteNumber":61,"Velocity":33,"Duration":52816,"SoundDuration":52816,"Delta":132524011},{"NoteNumber":65,"Velocity":39,"Duration":52816,"SoundDuration":52816,"Delta":132524011},{"NoteNumber":46,"Velocity":34,"Duration":105633,"SoundDuration":105633,"Delta":132524011},{"NoteNumber":67,"Velocity":45,"Duration":1623117,"SoundDuration":1623117,"Delta":132629645},{"NoteNumber":64,"Velocity":38,"Duration":1623117,"SoundDuration":1623117,"Delta":132629645},{"NoteNumber":55,"Velocity":38,"Duration":1623117,"SoundDuration":1623117,"Delta":132629645},{"NoteNumber":46,"Velocity":35,"Duration":100378,"SoundDuration":100378,"Delta":132629645},{"NoteNumber":53,"Velocity":34,"Duration":100334,"SoundDuration":100334,"Delta":132730024},{"NoteNumber":46,"Velocity":34,"Duration":102026,"SoundDuration":102026,"Delta":132830358},{"NoteNumber":46,"Velocity":31,"Duration":102040,"SoundDuration":102040,"Delta":132932385},{"NoteNumber":34,"Velocity":38,"Duration":100671,"SoundDuration":100671,"Delta":133034425},{"NoteNumber":46,"Velocity":34,"Duration":100671,"SoundDuration":100671,"Delta":133135097},{"NoteNumber":46,"Velocity":35,"Duration":98039,"SoundDuration":98039,"Delta":133235768},{"NoteNumber":53,"Velocity":34,"Duration":98039,"SoundDuration":98039,"Delta":133333807},{"NoteNumber":46,"Velocity":34,"Duration":102007,"SoundDuration":102007,"Delta":133431846},{"NoteNumber":46,"Velocity":31,"Duration":102040,"SoundDuration":102040,"Delta":133533854},{"NoteNumber":34,"Velocity":38,"Duration":101703,"SoundDuration":101703,"Delta":133635895},{"NoteNumber":46,"Velocity":34,"Duration":101695,"SoundDuration":101695,"Delta":133737598},{"NoteNumber":34,"Velocity":35,"Duration":50201,"SoundDuration":50201,"Delta":133839293},{"NoteNumber":46,"Velocity":34,"Duration":50167,"SoundDuration":50167,"Delta":133939662},{"NoteNumber":34,"Velocity":34,"Duration":53191,"SoundDuration":53191,"Delta":134039996},{"NoteNumber":32,"Velocity":31,"Duration":53191,"SoundDuration":53191,"Delta":134146379},{"NoteNumber":34,"Velocity":41,"Duration":101812,"SoundDuration":101812,"Delta":134252762},{"NoteNumber":53,"Velocity":36,"Duration":50847,"SoundDuration":50847,"Delta":134354574},{"NoteNumber":61,"Velocity":36,"Duration":50847,"SoundDuration":50847,"Delta":134354574},{"NoteNumber":65,"Velocity":43,"Duration":50847,"SoundDuration":50847,"Delta":134354574},{"NoteNumber":46,"Velocity":37,"Duration":101695,"SoundDuration":101695,"Delta":134354574},{"NoteNumber":68,"Velocity":50,"Duration":100368,"SoundDuration":100368,"Delta":134456269},{"NoteNumber":64,"Velocity":42,"Duration":100368,"SoundDuration":100368,"Delta":134456269},{"NoteNumber":56,"Velocity":42,"Duration":100368,"SoundDuration":100368,"Delta":134456269},{"NoteNumber":46,"Velocity":39,"Duration":100368,"SoundDuration":100368,"Delta":134456269},{"NoteNumber":53,"Velocity":39,"Duration":100334,"SoundDuration":100334,"Delta":134556638},{"NoteNumber":46,"Velocity":42,"Duration":101998,"SoundDuration":101998,"Delta":134656972},{"NoteNumber":53,"Velocity":42,"Duration":51020,"SoundDuration":51020,"Delta":134758971},{"NoteNumber":61,"Velocity":42,"Duration":51020,"SoundDuration":51020,"Delta":134758971},{"NoteNumber":65,"Velocity":50,"Duration":51020,"SoundDuration":51020,"Delta":134758971},{"NoteNumber":46,"Velocity":40,"Duration":102040,"SoundDuration":102040,"Delta":134758971},{"NoteNumber":57,"Velocity":51,"Duration":404101,"SoundDuration":404101,"Delta":134861011},{"NoteNumber":64,"Velocity":51,"Duration":404101,"SoundDuration":404101,"Delta":134861011},{"NoteNumber":69,"Velocity":61,"Duration":404101,"SoundDuration":404101,"Delta":134861011},{"NoteNumber":34,"Velocity":57,"Duration":101703,"SoundDuration":101703,"Delta":134861011},{"NoteNumber":46,"Velocity":45,"Duration":101695,"SoundDuration":101695,"Delta":134962715},{"NoteNumber":46,"Velocity":46,"Duration":100368,"SoundDuration":100368,"Delta":135064410},{"NoteNumber":53,"Velocity":39,"Duration":100334,"SoundDuration":100334,"Delta":135164778},{"NoteNumber":65,"Velocity":55,"Duration":827369,"SoundDuration":827369,"Delta":135265113},{"NoteNumber":46,"Velocity":38,"Duration":104166,"SoundDuration":104166,"Delta":135265113},{"NoteNumber":61,"Velocity":50,"Duration":775286,"SoundDuration":775286,"Delta":135317196},{"NoteNumber":53,"Velocity":50,"Duration":723202,"SoundDuration":723202,"Delta":135369280},{"NoteNumber":46,"Velocity":34,"Duration":104166,"SoundDuration":104166,"Delta":135369280},{"NoteNumber":39,"Velocity":38,"Duration":107142,"SoundDuration":107142,"Delta":135473446},{"NoteNumber":58,"Velocity":35,"Duration":53571,"SoundDuration":53571,"Delta":135580589},{"NoteNumber":66,"Velocity":35,"Duration":53571,"SoundDuration":53571,"Delta":135580589},{"NoteNumber":70,"Velocity":42,"Duration":53571,"SoundDuration":53571,"Delta":135580589},{"NoteNumber":46,"Velocity":37,"Duration":107142,"SoundDuration":107142,"Delta":135580589},{"NoteNumber":72,"Velocity":49,"Duration":2229878,"SoundDuration":2229878,"Delta":135687732},{"NoteNumber":69,"Velocity":41,"Duration":2229878,"SoundDuration":2229878,"Delta":135687732},{"NoteNumber":60,"Velocity":41,"Duration":2229878,"SoundDuration":2229878,"Delta":135687732},{"NoteNumber":46,"Velocity":38,"Duration":100334,"SoundDuration":100334,"Delta":135687732},{"NoteNumber":54,"Velocity":37,"Duration":100334,"SoundDuration":100334,"Delta":135788066},{"NoteNumber":58,"Velocity":37,"Duration":102040,"SoundDuration":102040,"Delta":135888401},{"NoteNumber":46,"Velocity":34,"Duration":102040,"SoundDuration":102040,"Delta":135990442},{"NoteNumber":39,"Velocity":41,"Duration":100334,"SoundDuration":100334,"Delta":136092482},{"NoteNumber":46,"Velocity":37,"Duration":100334,"SoundDuration":100334,"Delta":136192817},{"NoteNumber":46,"Velocity":38,"Duration":98039,"SoundDuration":98039,"Delta":136293151},{"NoteNumber":54,"Velocity":37,"Duration":98039,"SoundDuration":98039,"Delta":136391191},{"NoteNumber":58,"Velocity":37,"Duration":102040,"SoundDuration":102040,"Delta":136489230},{"NoteNumber":46,"Velocity":34,"Duration":102040,"SoundDuration":102040,"Delta":136591271},{"NoteNumber":39,"Velocity":41,"Duration":99337,"SoundDuration":99337,"Delta":136693311},{"NoteNumber":46,"Velocity":37,"Duration":99337,"SoundDuration":99337,"Delta":136792649},{"NoteNumber":46,"Velocity":38,"Duration":97402,"SoundDuration":97402,"Delta":136891987},{"NoteNumber":54,"Velocity":37,"Duration":97402,"SoundDuration":97402,"Delta":136989389},{"NoteNumber":58,"Velocity":37,"Duration":102040,"SoundDuration":102040,"Delta":137086792},{"NoteNumber":46,"Velocity":34,"Duration":102040,"SoundDuration":102040,"Delta":137188833},{"NoteNumber":39,"Velocity":41,"Duration":101697,"SoundDuration":101697,"Delta":137290873},{"NoteNumber":46,"Velocity":37,"Duration":101694,"SoundDuration":101694,"Delta":137392571},{"NoteNumber":39,"Velocity":38,"Duration":52264,"SoundDuration":52264,"Delta":137494266},{"NoteNumber":51,"Velocity":37,"Duration":52264,"SoundDuration":52264,"Delta":137598796},{"NoteNumber":39,"Velocity":37,"Duration":53571,"SoundDuration":53571,"Delta":137703325},{"NoteNumber":37,"Velocity":34,"Duration":53571,"SoundDuration":53571,"Delta":137810468},{"NoteNumber":39,"Velocity":49,"Duration":104529,"SoundDuration":104529,"Delta":137917611},{"NoteNumber":58,"Velocity":42,"Duration":52264,"SoundDuration":52264,"Delta":138022140},{"NoteNumber":66,"Velocity":42,"Duration":52264,"SoundDuration":52264,"Delta":138022140},{"NoteNumber":70,"Velocity":50,"Duration":52264,"SoundDuration":52264,"Delta":138022140},{"NoteNumber":46,"Velocity":44,"Duration":104529,"SoundDuration":104529,"Delta":138022140},{"NoteNumber":72,"Velocity":58,"Duration":100369,"SoundDuration":100369,"Delta":138126670},{"NoteNumber":69,"Velocity":49,"Duration":100369,"SoundDuration":100369,"Delta":138126670},{"NoteNumber":60,"Velocity":49,"Duration":100369,"SoundDuration":100369,"Delta":138126670},{"NoteNumber":46,"Velocity":45,"Duration":100369,"SoundDuration":100369,"Delta":138126670},{"NoteNumber":54,"Velocity":44,"Duration":100334,"SoundDuration":100334,"Delta":138227039},{"NoteNumber":58,"Velocity":48,"Duration":102026,"SoundDuration":102026,"Delta":138327374},{"NoteNumber":58,"Velocity":47,"Duration":51020,"SoundDuration":51020,"Delta":138429400},{"NoteNumber":66,"Velocity":47,"Duration":51020,"SoundDuration":51020,"Delta":138429400},{"NoteNumber":70,"Velocity":56,"Duration":51020,"SoundDuration":51020,"Delta":138429400},{"NoteNumber":46,"Velocity":44,"Duration":102040,"SoundDuration":102040,"Delta":138429400},{"NoteNumber":61,"Velocity":56,"Duration":404073,"SoundDuration":404073,"Delta":138531441},{"NoteNumber":69,"Velocity":56,"Duration":404073,"SoundDuration":404073,"Delta":138531441},{"NoteNumber":73,"Velocity":67,"Duration":404073,"SoundDuration":404073,"Delta":138531441},{"NoteNumber":39,"Velocity":62,"Duration":101697,"SoundDuration":101697,"Delta":138531441},{"NoteNumber":46,"Velocity":49,"Duration":101695,"SoundDuration":101695,"Delta":138633139},{"NoteNumber":46,"Velocity":52,"Duration":100345,"SoundDuration":100345,"Delta":138734834},{"NoteNumber":54,"Velocity":44,"Duration":100334,"SoundDuration":100334,"Delta":138835180},{"NoteNumber":70,"Velocity":58,"Duration":208333,"SoundDuration":208333,"Delta":138935514},{"NoteNumber":58,"Velocity":40,"Duration":104166,"SoundDuration":104166,"Delta":138935514},{"NoteNumber":66,"Velocity":53,"Duration":156250,"SoundDuration":156250,"Delta":138987598},{"NoteNumber":58,"Velocity":53,"Duration":104166,"SoundDuration":104166,"Delta":139039681},{"NoteNumber":46,"Velocity":37,"Duration":104166,"SoundDuration":104166,"Delta":139039681},{"NoteNumber":39,"Velocity":45,"Duration":116731,"SoundDuration":116731,"Delta":139143848},{"NoteNumber":58,"Velocity":39,"Duration":58365,"SoundDuration":58365,"Delta":139260579},{"NoteNumber":66,"Velocity":39,"Duration":58365,"SoundDuration":58365,"Delta":139260579},{"NoteNumber":70,"Velocity":46,"Duration":58365,"SoundDuration":58365,"Delta":139260579},{"NoteNumber":46,"Velocity":40,"Duration":116731,"SoundDuration":116731,"Delta":139260579},{"NoteNumber":72,"Velocity":53,"Duration":1628990,"SoundDuration":1628990,"Delta":139377311},{"NoteNumber":69,"Velocity":45,"Duration":1628990,"SoundDuration":1628990,"Delta":139377311},{"NoteNumber":60,"Velocity":45,"Duration":1628990,"SoundDuration":1628990,"Delta":139377311},{"NoteNumber":46,"Velocity":41,"Duration":100471,"SoundDuration":100471,"Delta":139377311},{"NoteNumber":54,"Velocity":40,"Duration":100334,"SoundDuration":100334,"Delta":139477782},{"NoteNumber":58,"Velocity":40,"Duration":102026,"SoundDuration":102026,"Delta":139578116},{"NoteNumber":46,"Velocity":37,"Duration":102040,"SoundDuration":102040,"Delta":139680143},{"NoteNumber":39,"Velocity":45,"Duration":97719,"SoundDuration":97719,"Delta":139782184},{"NoteNumber":46,"Velocity":40,"Duration":97719,"SoundDuration":97719,"Delta":139879903},{"NoteNumber":46,"Velocity":41,"Duration":97719,"SoundDuration":97719,"Delta":139977623},{"NoteNumber":54,"Velocity":40,"Duration":97719,"SoundDuration":97719,"Delta":140075343},{"NoteNumber":58,"Velocity":40,"Duration":102004,"SoundDuration":102004,"Delta":140173063},{"NoteNumber":46,"Velocity":37,"Duration":102040,"SoundDuration":102040,"Delta":140275067},{"NoteNumber":39,"Velocity":45,"Duration":101703,"SoundDuration":101703,"Delta":140377108},{"NoteNumber":46,"Velocity":40,"Duration":101695,"SoundDuration":101695,"Delta":140478812},{"NoteNumber":39,"Velocity":41,"Duration":51903,"SoundDuration":51903,"Delta":140580507},{"NoteNumber":51,"Velocity":40,"Duration":51903,"SoundDuration":51903,"Delta":140684313},{"NoteNumber":39,"Velocity":40,"Duration":54545,"SoundDuration":54545,"Delta":140788119},{"NoteNumber":37,"Velocity":37,"Duration":54545,"SoundDuration":54545,"Delta":140897210},{"NoteNumber":36,"Velocity":51,"Duration":105263,"SoundDuration":105263,"Delta":141006301},{"NoteNumber":58,"Velocity":44,"Duration":52631,"SoundDuration":52631,"Delta":141111565},{"NoteNumber":66,"Velocity":44,"Duration":52631,"SoundDuration":52631,"Delta":141111565},{"NoteNumber":70,"Velocity":52,"Duration":52631,"SoundDuration":52631,"Delta":141111565},{"NoteNumber":46,"Velocity":46,"Duration":105263,"SoundDuration":105263,"Delta":141111565},{"NoteNumber":73,"Velocity":60,"Duration":100457,"SoundDuration":100457,"Delta":141216828},{"NoteNumber":69,"Velocity":50,"Duration":100457,"SoundDuration":100457,"Delta":141216828},{"NoteNumber":61,"Velocity":50,"Duration":100457,"SoundDuration":100457,"Delta":141216828},{"NoteNumber":46,"Velocity":47,"Duration":100457,"SoundDuration":100457,"Delta":141216828},{"NoteNumber":54,"Velocity":46,"Duration":100334,"SoundDuration":100334,"Delta":141317286},{"NoteNumber":58,"Velocity":50,"Duration":101998,"SoundDuration":101998,"Delta":141417620},{"NoteNumber":58,"Velocity":49,"Duration":51020,"SoundDuration":51020,"Delta":141519618},{"NoteNumber":66,"Velocity":49,"Duration":51020,"SoundDuration":51020,"Delta":141519618},{"NoteNumber":70,"Velocity":58,"Duration":51020,"SoundDuration":51020,"Delta":141519618},{"NoteNumber":54,"Velocity":46,"Duration":102040,"SoundDuration":102040,"Delta":141519618},{"NoteNumber":62,"Velocity":59,"Duration":404101,"SoundDuration":404101,"Delta":141621659},{"NoteNumber":69,"Velocity":59,"Duration":404101,"SoundDuration":404101,"Delta":141621659},{"NoteNumber":74,"Velocity":70,"Duration":404101,"SoundDuration":404101,"Delta":141621659},{"NoteNumber":39,"Velocity":64,"Duration":101703,"SoundDuration":101703,"Delta":141621659},{"NoteNumber":46,"Velocity":51,"Duration":101695,"SoundDuration":101695,"Delta":141723363},{"NoteNumber":46,"Velocity":55,"Duration":100368,"SoundDuration":100368,"Delta":141825058},{"NoteNumber":54,"Velocity":46,"Duration":100334,"SoundDuration":100334,"Delta":141925426},{"NoteNumber":70,"Velocity":66,"Duration":221912,"SoundDuration":221912,"Delta":142025761},{"NoteNumber":58,"Velocity":42,"Duration":105633,"SoundDuration":105633,"Delta":142025761},{"NoteNumber":66,"Velocity":55,"Duration":169095,"SoundDuration":169095,"Delta":142078577},{"NoteNumber":58,"Velocity":55,"Duration":116278,"SoundDuration":116278,"Delta":142131394},{"NoteNumber":46,"Velocity":38,"Duration":116278,"SoundDuration":116278,"Delta":142131394},{"NoteNumber":69,"Velocity":55,"Duration":1203125,"SoundDuration":1203125,"Delta":142247673},{"NoteNumber":65,"Velocity":55,"Duration":1203125,"SoundDuration":1203125,"Delta":142247673},{"NoteNumber":73,"Velocity":55,"Duration":1203125,"SoundDuration":1203125,"Delta":142247673},{"NoteNumber":77,"Velocity":65,"Duration":1203125,"SoundDuration":1203125,"Delta":142247673},{"NoteNumber":39,"Velocity":49,"Duration":102040,"SoundDuration":102040,"Delta":142247673},{"NoteNumber":51,"Velocity":44,"Duration":102040,"SoundDuration":102040,"Delta":142349714},{"NoteNumber":54,"Velocity":45,"Duration":100348,"SoundDuration":100348,"Delta":142451755},{"NoteNumber":61,"Velocity":44,"Duration":100334,"SoundDuration":100334,"Delta":142552104},{"NoteNumber":54,"Velocity":44,"Duration":102026,"SoundDuration":102026,"Delta":142652438},{"NoteNumber":51,"Velocity":40,"Duration":102040,"SoundDuration":102040,"Delta":142754465},{"NoteNumber":39,"Velocity":49,"Duration":98039,"SoundDuration":98039,"Delta":142856505},{"NoteNumber":51,"Velocity":44,"Duration":98039,"SoundDuration":98039,"Delta":142954545},{"NoteNumber":54,"Velocity":45,"Duration":97087,"SoundDuration":97087,"Delta":143052584},{"NoteNumber":61,"Velocity":44,"Duration":97087,"SoundDuration":97087,"Delta":143149671},{"NoteNumber":54,"Velocity":44,"Duration":101999,"SoundDuration":101999,"Delta":143246759},{"NoteNumber":51,"Velocity":40,"Duration":102040,"SoundDuration":102040,"Delta":143348758},{"NoteNumber":39,"Velocity":53,"Duration":101706,"SoundDuration":101706,"Delta":143450799},{"NoteNumber":63,"Velocity":46,"Duration":50847,"SoundDuration":50847,"Delta":143552506},{"NoteNumber":69,"Velocity":46,"Duration":50847,"SoundDuration":50847,"Delta":143552506},{"NoteNumber":75,"Velocity":55,"Duration":50847,"SoundDuration":50847,"Delta":143552506},{"NoteNumber":51,"Velocity":48,"Duration":101694,"SoundDuration":101694,"Delta":143552506},{"NoteNumber":77,"Velocity":63,"Duration":100379,"SoundDuration":100379,"Delta":143654201},{"NoteNumber":73,"Velocity":53,"Duration":100379,"SoundDuration":100379,"Delta":143654201},{"NoteNumber":65,"Velocity":53,"Duration":100379,"SoundDuration":100379,"Delta":143654201},{"NoteNumber":54,"Velocity":49,"Duration":100379,"SoundDuration":100379,"Delta":143654201},{"NoteNumber":61,"Velocity":48,"Duration":100334,"SoundDuration":100334,"Delta":143754580},{"NoteNumber":58,"Velocity":52,"Duration":104894,"SoundDuration":104894,"Delta":143854915},{"NoteNumber":66,"Velocity":50,"Duration":104894,"SoundDuration":104894,"Delta":143959810},{"NoteNumber":72,"Velocity":50,"Duration":515181,"SoundDuration":515181,"Delta":143959810},{"NoteNumber":78,"Velocity":60,"Duration":104894,"SoundDuration":104894,"Delta":143959810},{"NoteNumber":54,"Velocity":48,"Duration":104894,"SoundDuration":104894,"Delta":143959810},{"NoteNumber":68,"Velocity":61,"Duration":410286,"SoundDuration":410286,"Delta":144064705},{"NoteNumber":75,"Velocity":72,"Duration":410286,"SoundDuration":410286,"Delta":144064705},{"NoteNumber":80,"Velocity":72,"Duration":410286,"SoundDuration":410286,"Delta":144064705},{"NoteNumber":35,"Velocity":68,"Duration":103448,"SoundDuration":103448,"Delta":144064705},{"NoteNumber":47,"Velocity":53,"Duration":103448,"SoundDuration":103448,"Delta":144168153},{"NoteNumber":51,"Velocity":57,"Duration":101695,"SoundDuration":101695,"Delta":144271601},{"NoteNumber":57,"Velocity":48,"Duration":101695,"SoundDuration":101695,"Delta":144373296},{"NoteNumber":63,"Velocity":58,"Duration":55147,"SoundDuration":55147,"Delta":144474991},{"NoteNumber":71,"Velocity":58,"Duration":55147,"SoundDuration":55147,"Delta":144474991},{"NoteNumber":75,"Velocity":69,"Duration":55147,"SoundDuration":55147,"Delta":144474991},{"NoteNumber":51,"Velocity":48,"Duration":110294,"SoundDuration":110294,"Delta":144474991},{"NoteNumber":51,"Velocity":40,"Duration":110293,"SoundDuration":110293,"Delta":144585285},{"NoteNumber":39,"Velocity":49,"Duration":104894,"SoundDuration":104894,"Delta":144695579},{"NoteNumber":65,"Velocity":49,"Duration":1117809,"SoundDuration":1117809,"Delta":144800474},{"NoteNumber":69,"Velocity":49,"Duration":1117809,"SoundDuration":1117809,"Delta":144800474},{"NoteNumber":73,"Velocity":49,"Duration":1117809,"SoundDuration":1117809,"Delta":144800474},{"NoteNumber":77,"Velocity":58,"Duration":1117809,"SoundDuration":1117809,"Delta":144800474},{"NoteNumber":51,"Velocity":44,"Duration":104894,"SoundDuration":104894,"Delta":144800474},{"NoteNumber":54,"Velocity":45,"Duration":100372,"SoundDuration":100372,"Delta":144905369},{"NoteNumber":61,"Velocity":44,"Duration":100334,"SoundDuration":100334,"Delta":145005742},{"NoteNumber":54,"Velocity":44,"Duration":102026,"SoundDuration":102026,"Delta":145106076},{"NoteNumber":51,"Velocity":40,"Duration":102040,"SoundDuration":102040,"Delta":145208103},{"NoteNumber":39,"Velocity":49,"Duration":101697,"SoundDuration":101697,"Delta":145310144},{"NoteNumber":51,"Velocity":44,"Duration":101695,"SoundDuration":101695,"Delta":145411842},{"NoteNumber":54,"Velocity":45,"Duration":100345,"SoundDuration":100345,"Delta":145513537},{"NoteNumber":61,"Velocity":44,"Duration":100334,"SoundDuration":100334,"Delta":145613882},{"NoteNumber":54,"Velocity":44,"Duration":102026,"SoundDuration":102026,"Delta":145714217},{"NoteNumber":51,"Velocity":40,"Duration":102040,"SoundDuration":102040,"Delta":145816243},{"NoteNumber":39,"Velocity":56,"Duration":101706,"SoundDuration":101706,"Delta":145918284},{"NoteNumber":63,"Velocity":49,"Duration":50847,"SoundDuration":50847,"Delta":146019991},{"NoteNumber":69,"Velocity":49,"Duration":50847,"SoundDuration":50847,"Delta":146019991},{"NoteNumber":75,"Velocity":58,"Duration":50847,"SoundDuration":50847,"Delta":146019991},{"NoteNumber":51,"Velocity":50,"Duration":101694,"SoundDuration":101694,"Delta":146019991},{"NoteNumber":77,"Velocity":68,"Duration":100379,"SoundDuration":100379,"Delta":146121686},{"NoteNumber":73,"Velocity":57,"Duration":100379,"SoundDuration":100379,"Delta":146121686},{"NoteNumber":65,"Velocity":57,"Duration":100379,"SoundDuration":100379,"Delta":146121686},{"NoteNumber":54,"Velocity":52,"Duration":100379,"SoundDuration":100379,"Delta":146121686},{"NoteNumber":61,"Velocity":51,"Duration":100334,"SoundDuration":100334,"Delta":146222066},{"NoteNumber":58,"Velocity":58,"Duration":101983,"SoundDuration":101983,"Delta":146322400},{"NoteNumber":66,"Velocity":58,"Duration":102040,"SoundDuration":102040,"Delta":146424384},{"NoteNumber":72,"Velocity":58,"Duration":566102,"SoundDuration":566102,"Delta":146424384},{"NoteNumber":78,"Velocity":69,"Duration":102040,"SoundDuration":102040,"Delta":146424384},{"NoteNumber":54,"Velocity":53,"Duration":102040,"SoundDuration":102040,"Delta":146424384},{"NoteNumber":68,"Velocity":71,"Duration":410298,"SoundDuration":410298,"Delta":146526425},{"NoteNumber":75,"Velocity":71,"Duration":464061,"SoundDuration":464061,"Delta":146526425},{"NoteNumber":80,"Velocity":83,"Duration":410298,"SoundDuration":410298,"Delta":146526425},{"NoteNumber":35,"Velocity":79,"Duration":101706,"SoundDuration":101706,"Delta":146526425},{"NoteNumber":47,"Velocity":62,"Duration":101695,"SoundDuration":101695,"Delta":146628131},{"NoteNumber":51,"Velocity":68,"Duration":103448,"SoundDuration":103448,"Delta":146729826},{"NoteNumber":57,"Velocity":59,"Duration":103448,"SoundDuration":103448,"Delta":146833275},{"NoteNumber":70,"Velocity":72,"Duration":53763,"SoundDuration":53763,"Delta":146936723},{"NoteNumber":82,"Velocity":85,"Duration":53763,"SoundDuration":53763,"Delta":146936723},{"NoteNumber":51,"Velocity":60,"Duration":107527,"SoundDuration":107527,"Delta":146936723},{"NoteNumber":51,"Velocity":56,"Duration":107527,"SoundDuration":107527,"Delta":147044250},{"NoteNumber":33,"Velocity":85,"Duration":107527,"SoundDuration":107527,"Delta":147151777},{"NoteNumber":45,"Velocity":74,"Duration":107526,"SoundDuration":107526,"Delta":147259304},{"NoteNumber":81,"Velocity":81,"Duration":1038940,"SoundDuration":1038940,"Delta":147366831},{"NoteNumber":84,"Velocity":81,"Duration":1038940,"SoundDuration":1038940,"Delta":147366831},{"NoteNumber":88,"Velocity":81,"Duration":1038940,"SoundDuration":1038940,"Delta":147366831},{"NoteNumber":93,"Velocity":97,"Duration":1038940,"SoundDuration":1038940,"Delta":147366831},{"NoteNumber":52,"Velocity":82,"Duration":107527,"SoundDuration":107527,"Delta":147366831},{"NoteNumber":60,"Velocity":74,"Duration":107527,"SoundDuration":107527,"Delta":147474358},{"NoteNumber":52,"Velocity":80,"Duration":107527,"SoundDuration":107527,"Delta":147581885},{"NoteNumber":45,"Velocity":73,"Duration":107527,"SoundDuration":107527,"Delta":147689412},{"NoteNumber":33,"Velocity":67,"Duration":102040,"SoundDuration":102040,"Delta":147796939},{"NoteNumber":64,"Velocity":63,"Duration":102040,"SoundDuration":102040,"Delta":147898980},{"NoteNumber":72,"Velocity":63,"Duration":102040,"SoundDuration":102040,"Delta":147898980},{"NoteNumber":76,"Velocity":75,"Duration":102040,"SoundDuration":102040,"Delta":147898980},{"NoteNumber":45,"Velocity":59,"Duration":102040,"SoundDuration":102040,"Delta":147898980},{"NoteNumber":78,"Velocity":81,"Duration":404750,"SoundDuration":404750,"Delta":148001020},{"NoteNumber":75,"Velocity":68,"Duration":404750,"SoundDuration":404750,"Delta":148001020},{"NoteNumber":66,"Velocity":68,"Duration":404750,"SoundDuration":404750,"Delta":148001020},{"NoteNumber":52,"Velocity":61,"Duration":100391,"SoundDuration":100391,"Delta":148001020},{"NoteNumber":60,"Velocity":59,"Duration":100334,"SoundDuration":100334,"Delta":148101412},{"NoteNumber":52,"Velocity":67,"Duration":101983,"SoundDuration":101983,"Delta":148201746},{"NoteNumber":45,"Velocity":61,"Duration":102040,"SoundDuration":102040,"Delta":148303730},{"NoteNumber":33,"Velocity":63,"Duration":105633,"SoundDuration":105633,"Delta":148405771},{"NoteNumber":60,"Velocity":51,"Duration":105633,"SoundDuration":105633,"Delta":148511405},{"NoteNumber":64,"Velocity":61,"Duration":105633,"SoundDuration":105633,"Delta":148511405},{"NoteNumber":45,"Velocity":56,"Duration":105633,"SoundDuration":105633,"Delta":148511405},{"NoteNumber":66,"Velocity":69,"Duration":1017190,"SoundDuration":1017190,"Delta":148617038},{"NoteNumber":63,"Velocity":58,"Duration":1017190,"SoundDuration":1017190,"Delta":148617038},{"NoteNumber":54,"Velocity":58,"Duration":1017190,"SoundDuration":1017190,"Delta":148617038},{"NoteNumber":52,"Velocity":58,"Duration":100511,"SoundDuration":100511,"Delta":148617038},{"NoteNumber":60,"Velocity":57,"Duration":100334,"SoundDuration":100334,"Delta":148717549},{"NoteNumber":52,"Velocity":63,"Duration":101983,"SoundDuration":101983,"Delta":148817884},{"NoteNumber":45,"Velocity":58,"Duration":102040,"SoundDuration":102040,"Delta":148919868},{"NoteNumber":33,"Velocity":60,"Duration":102040,"SoundDuration":102040,"Delta":149021909},{"NoteNumber":45,"Velocity":53,"Duration":102040,"SoundDuration":102040,"Delta":149123949},{"NoteNumber":52,"Velocity":52,"Duration":100671,"SoundDuration":100671,"Delta":149225990},{"NoteNumber":60,"Velocity":52,"Duration":100671,"SoundDuration":100671,"Delta":149326661},{"NoteNumber":52,"Velocity":52,"Duration":103448,"SoundDuration":103448,"Delta":149427333},{"NoteNumber":45,"Velocity":52,"Duration":103448,"SoundDuration":103448,"Delta":149530781},{"NoteNumber":33,"Velocity":68,"Duration":106382,"SoundDuration":106382,"Delta":149634229},{"NoteNumber":88,"Velocity":77,"Duration":53191,"SoundDuration":53191,"Delta":149740612},{"NoteNumber":84,"Velocity":77,"Duration":53191,"SoundDuration":53191,"Delta":149740612},{"NoteNumber":76,"Velocity":77,"Duration":53191,"SoundDuration":53191,"Delta":149740612},{"NoteNumber":45,"Velocity":61,"Duration":106382,"SoundDuration":106382,"Delta":149740612},{"NoteNumber":90,"Velocity":85,"Duration":311418,"SoundDuration":311418,"Delta":149846995},{"NoteNumber":87,"Velocity":85,"Duration":311418,"SoundDuration":311418,"Delta":149846995},{"NoteNumber":78,"Velocity":85,"Duration":311418,"SoundDuration":311418,"Delta":149846995},{"NoteNumber":52,"Velocity":63,"Duration":103806,"SoundDuration":103806,"Delta":149846995},{"NoteNumber":60,"Velocity":63,"Duration":103806,"SoundDuration":103806,"Delta":149950801},{"NoteNumber":52,"Velocity":64,"Duration":103806,"SoundDuration":103806,"Delta":150054608},{"NoteNumber":92,"Velocity":85,"Duration":103806,"SoundDuration":103806,"Delta":150158414},{"NoteNumber":84,"Velocity":85,"Duration":103806,"SoundDuration":103806,"Delta":150158414},{"NoteNumber":80,"Velocity":85,"Duration":103806,"SoundDuration":103806,"Delta":150158414},{"NoteNumber":45,"Velocity":67,"Duration":103806,"SoundDuration":103806,"Delta":150158414},{"NoteNumber":32,"Velocity":84,"Duration":107142,"SoundDuration":107142,"Delta":150262220},{"NoteNumber":93,"Velocity":92,"Duration":53571,"SoundDuration":53571,"Delta":150369363},{"NoteNumber":87,"Velocity":92,"Duration":53571,"SoundDuration":53571,"Delta":150369363},{"NoteNumber":81,"Velocity":92,"Duration":53571,"SoundDuration":53571,"Delta":150369363},{"NoteNumber":44,"Velocity":69,"Duration":107142,"SoundDuration":107142,"Delta":150369363},{"NoteNumber":95,"Velocity":101,"Duration":328466,"SoundDuration":328466,"Delta":150476506},{"NoteNumber":90,"Velocity":93,"Duration":328466,"SoundDuration":328466,"Delta":150476506},{"NoteNumber":83,"Velocity":92,"Duration":328466,"SoundDuration":328466,"Delta":150476506},{"NoteNumber":54,"Velocity":70,"Duration":109488,"SoundDuration":109488,"Delta":150476506},{"NoteNumber":60,"Velocity":66,"Duration":109488,"SoundDuration":109488,"Delta":150585995},{"NoteNumber":54,"Velocity":68,"Duration":109488,"SoundDuration":109488,"Delta":150695484},{"NoteNumber":96,"Velocity":99,"Duration":109489,"SoundDuration":109489,"Delta":150804973},{"NoteNumber":93,"Velocity":99,"Duration":109489,"SoundDuration":109489,"Delta":150804973},{"NoteNumber":84,"Velocity":99,"Duration":109489,"SoundDuration":109489,"Delta":150804973},{"NoteNumber":44,"Velocity":69,"Duration":109489,"SoundDuration":109489,"Delta":150804973},{"NoteNumber":30,"Velocity":91,"Duration":127118,"SoundDuration":127118,"Delta":150914462},{"NoteNumber":97,"Velocity":106,"Duration":127118,"SoundDuration":127118,"Delta":151041580},{"NoteNumber":90,"Velocity":90,"Duration":347706,"SoundDuration":347706,"Delta":151041580},{"NoteNumber":85,"Velocity":90,"Duration":127118,"SoundDuration":127118,"Delta":151041580},{"NoteNumber":42,"Velocity":78,"Duration":127118,"SoundDuration":127118,"Delta":151041580},{"NoteNumber":98,"Velocity":111,"Duration":220587,"SoundDuration":220587,"Delta":151168699},{"NoteNumber":96,"Velocity":99,"Duration":220587,"SoundDuration":220587,"Delta":151168699},{"NoteNumber":94,"Velocity":93,"Duration":220587,"SoundDuration":220587,"Delta":151168699},{"NoteNumber":86,"Velocity":93,"Duration":220587,"SoundDuration":220587,"Delta":151168699},{"NoteNumber":84,"Velocity":86,"Duration":220587,"SoundDuration":220587,"Delta":151168699},{"NoteNumber":49,"Velocity":78,"Duration":110294,"SoundDuration":110294,"Delta":151168699},{"NoteNumber":58,"Velocity":72,"Duration":110293,"SoundDuration":110293,"Delta":151278993},{"NoteNumber":49,"Velocity":79,"Duration":110294,"SoundDuration":110294,"Delta":151389287},{"NoteNumber":73,"Velocity":83,"Duration":118576,"SoundDuration":118576,"Delta":151499581},{"NoteNumber":78,"Velocity":83,"Duration":770751,"SoundDuration":770751,"Delta":151499581},{"NoteNumber":85,"Velocity":98,"Duration":118576,"SoundDuration":118576,"Delta":151499581},{"NoteNumber":42,"Velocity":77,"Duration":118576,"SoundDuration":118576,"Delta":151499581},{"NoteNumber":72,"Velocity":86,"Duration":652174,"SoundDuration":652174,"Delta":151618158},{"NoteNumber":74,"Velocity":86,"Duration":652174,"SoundDuration":652174,"Delta":151618158},{"NoteNumber":82,"Velocity":86,"Duration":652174,"SoundDuration":652174,"Delta":151618158},{"NoteNumber":84,"Velocity":102,"Duration":652174,"SoundDuration":652174,"Delta":151618158},{"NoteNumber":86,"Velocity":95,"Duration":652174,"SoundDuration":652174,"Delta":151618158},{"NoteNumber":30,"Velocity":89,"Duration":108695,"SoundDuration":108695,"Delta":151618158},{"NoteNumber":42,"Velocity":77,"Duration":108695,"SoundDuration":108695,"Delta":151726854},{"NoteNumber":49,"Velocity":75,"Duration":108695,"SoundDuration":108695,"Delta":151835550},{"NoteNumber":58,"Velocity":69,"Duration":108695,"SoundDuration":108695,"Delta":151944245},{"NoteNumber":49,"Velocity":69,"Duration":108695,"SoundDuration":108695,"Delta":152052941},{"NoteNumber":42,"Velocity":69,"Duration":108695,"SoundDuration":108695,"Delta":152161637},{"NoteNumber":30,"Velocity":78,"Duration":108695,"SoundDuration":108695,"Delta":152270333},{"NoteNumber":61,"Velocity":78,"Duration":111110,"SoundDuration":111110,"Delta":152379028},{"NoteNumber":66,"Velocity":78,"Duration":533646,"SoundDuration":533646,"Delta":152379028},{"NoteNumber":73,"Velocity":92,"Duration":111110,"SoundDuration":111110,"Delta":152379028},{"NoteNumber":42,"Velocity":69,"Duration":111110,"SoundDuration":111110,"Delta":152379028},{"NoteNumber":60,"Velocity":80,"Duration":422535,"SoundDuration":422535,"Delta":152490139},{"NoteNumber":62,"Velocity":80,"Duration":422535,"SoundDuration":422535,"Delta":152490139},{"NoteNumber":70,"Velocity":80,"Duration":422535,"SoundDuration":422535,"Delta":152490139},{"NoteNumber":72,"Velocity":84,"Duration":422535,"SoundDuration":422535,"Delta":152490139},{"NoteNumber":74,"Velocity":94,"Duration":422535,"SoundDuration":422535,"Delta":152490139},{"NoteNumber":49,"Velocity":63,"Duration":105633,"SoundDuration":105633,"Delta":152490139},{"NoteNumber":58,"Velocity":59,"Duration":105633,"SoundDuration":105633,"Delta":152595773},{"NoteNumber":49,"Velocity":59,"Duration":105633,"SoundDuration":105633,"Delta":152701407},{"NoteNumber":42,"Velocity":60,"Duration":105633,"SoundDuration":105633,"Delta":152807041},{"NoteNumber":30,"Velocity":58,"Duration":105633,"SoundDuration":105633,"Delta":152912674},{"NoteNumber":49,"Velocity":67,"Duration":112782,"SoundDuration":112782,"Delta":153018308},{"NoteNumber":54,"Velocity":67,"Duration":538314,"SoundDuration":538314,"Delta":153018308},{"NoteNumber":61,"Velocity":81,"Duration":112782,"SoundDuration":112782,"Delta":153018308},{"NoteNumber":37,"Velocity":56,"Duration":112782,"SoundDuration":112782,"Delta":153018308},{"NoteNumber":48,"Velocity":70,"Duration":425532,"SoundDuration":425532,"Delta":153131090},{"NoteNumber":50,"Velocity":70,"Duration":425532,"SoundDuration":425532,"Delta":153131090},{"NoteNumber":58,"Velocity":70,"Duration":425532,"SoundDuration":425532,"Delta":153131090},{"NoteNumber":60,"Velocity":81,"Duration":425532,"SoundDuration":425532,"Delta":153131090},{"NoteNumber":62,"Velocity":81,"Duration":425532,"SoundDuration":425532,"Delta":153131090},{"NoteNumber":37,"Velocity":56,"Duration":106382,"SoundDuration":106382,"Delta":153131090},{"NoteNumber":46,"Velocity":51,"Duration":106382,"SoundDuration":106382,"Delta":153237473},{"NoteNumber":37,"Velocity":51,"Duration":106383,"SoundDuration":106383,"Delta":153343856},{"NoteNumber":37,"Velocity":51,"Duration":106382,"SoundDuration":106382,"Delta":153450239},{"NoteNumber":30,"Velocity":50,"Duration":103627,"SoundDuration":103627,"Delta":153556622},{"NoteNumber":37,"Velocity":47,"Duration":104716,"SoundDuration":104716,"Delta":153660250},{"NoteNumber":37,"Velocity":47,"Duration":103867,"SoundDuration":103867,"Delta":153764966},{"NoteNumber":46,"Velocity":44,"Duration":104356,"SoundDuration":104356,"Delta":153868834},{"NoteNumber":37,"Velocity":44,"Duration":104295,"SoundDuration":104295,"Delta":153973191},{"NoteNumber":37,"Velocity":44,"Duration":103270,"SoundDuration":103270,"Delta":154077486},{"NoteNumber":30,"Velocity":46,"Duration":104591,"SoundDuration":104591,"Delta":154180757},{"NoteNumber":37,"Velocity":42,"Duration":103272,"SoundDuration":103272,"Delta":154285348},{"NoteNumber":37,"Velocity":42,"Duration":103693,"SoundDuration":103693,"Delta":154388620},{"NoteNumber":46,"Velocity":37,"Duration":104416,"SoundDuration":104416,"Delta":154492314},{"NoteNumber":37,"Velocity":37,"Duration":102858,"SoundDuration":102858,"Delta":154596730},{"NoteNumber":37,"Velocity":37,"Duration":103986,"SoundDuration":103986,"Delta":154699588},{"NoteNumber":30,"Velocity":46,"Duration":103628,"SoundDuration":103628,"Delta":154803575},{"NoteNumber":46,"Velocity":49,"Duration":102740,"SoundDuration":102740,"Delta":154907203},{"NoteNumber":49,"Velocity":49,"Duration":102740,"SoundDuration":102740,"Delta":154907203},{"NoteNumber":37,"Velocity":41,"Duration":102740,"SoundDuration":102740,"Delta":154907203},{"NoteNumber":48,"Velocity":53,"Duration":2266332,"SoundDuration":2266332,"Delta":155009943},{"NoteNumber":51,"Velocity":53,"Duration":2266332,"SoundDuration":2266332,"Delta":155009943},{"NoteNumber":37,"Velocity":41,"Duration":103272,"SoundDuration":103272,"Delta":155009943},{"NoteNumber":46,"Velocity":35,"Duration":103512,"SoundDuration":103512,"Delta":155113216},{"NoteNumber":37,"Velocity":35,"Duration":102391,"SoundDuration":102391,"Delta":155216728},{"NoteNumber":37,"Velocity":34,"Duration":103749,"SoundDuration":103749,"Delta":155319120},{"NoteNumber":30,"Velocity":36,"Duration":103813,"SoundDuration":103813,"Delta":155422869},{"NoteNumber":37,"Velocity":33,"Duration":102624,"SoundDuration":102624,"Delta":155526682},{"NoteNumber":37,"Velocity":33,"Duration":103926,"SoundDuration":103926,"Delta":155629306},{"NoteNumber":46,"Velocity":32,"Duration":102799,"SoundDuration":102799,"Delta":155733233},{"NoteNumber":37,"Velocity":32,"Duration":102977,"SoundDuration":102977,"Delta":155836032},{"NoteNumber":37,"Velocity":32,"Duration":103570,"SoundDuration":103570,"Delta":155939009},{"NoteNumber":30,"Velocity":34,"Duration":102505,"SoundDuration":102505,"Delta":156042579},{"NoteNumber":37,"Velocity":31,"Duration":102274,"SoundDuration":102274,"Delta":156145085},{"NoteNumber":37,"Velocity":31,"Duration":103686,"SoundDuration":103686,"Delta":156247359},{"NoteNumber":46,"Velocity":28,"Duration":102625,"SoundDuration":102625,"Delta":156351046},{"NoteNumber":37,"Velocity":29,"Duration":102332,"SoundDuration":102332,"Delta":156453671},{"NoteNumber":37,"Velocity":29,"Duration":103866,"SoundDuration":103866,"Delta":156556004},{"NoteNumber":30,"Velocity":32,"Duration":102277,"SoundDuration":102277,"Delta":156659871},{"NoteNumber":37,"Velocity":31,"Duration":102278,"SoundDuration":102278,"Delta":156762148},{"NoteNumber":37,"Velocity":31,"Duration":103330,"SoundDuration":103330,"Delta":156864427},{"NoteNumber":46,"Velocity":27,"Duration":102331,"SoundDuration":102331,"Delta":156967757},{"NoteNumber":37,"Velocity":27,"Duration":103211,"SoundDuration":103211,"Delta":157070088},{"NoteNumber":37,"Velocity":27,"Duration":102976,"SoundDuration":102976,"Delta":157173300},{"NoteNumber":36,"Velocity":34,"Duration":103415,"SoundDuration":103415,"Delta":157276276},{"NoteNumber":38,"Velocity":40,"Duration":103415,"SoundDuration":103415,"Delta":157276276},{"NoteNumber":30,"Velocity":41,"Duration":154274,"SoundDuration":154274,"Delta":157276276},{"NoteNumber":48,"Velocity":27,"Duration":101789,"SoundDuration":101789,"Delta":157379691},{"NoteNumber":50,"Velocity":30,"Duration":103605,"SoundDuration":103605,"Delta":157481481},{"NoteNumber":48,"Velocity":27,"Duration":102589,"SoundDuration":102589,"Delta":157585086},{"NoteNumber":50,"Velocity":30,"Duration":103393,"SoundDuration":103393,"Delta":157687676},{"NoteNumber":48,"Velocity":27,"Duration":102669,"SoundDuration":102669,"Delta":157791070},{"NoteNumber":58,"Velocity":50,"Duration":49180,"SoundDuration":49180,"Delta":157893739},{"NoteNumber":42,"Velocity":30,"Duration":147541,"SoundDuration":147541,"Delta":157893739},{"NoteNumber":58,"Velocity":46,"Duration":49180,"SoundDuration":49180,"Delta":157992100},{"NoteNumber":48,"Velocity":26,"Duration":98360,"SoundDuration":98360,"Delta":157992100},{"NoteNumber":58,"Velocity":51,"Duration":49180,"SoundDuration":49180,"Delta":158090461},{"NoteNumber":50,"Velocity":30,"Duration":98360,"SoundDuration":98360,"Delta":158090461},{"NoteNumber":56,"Velocity":45,"Duration":49180,"SoundDuration":49180,"Delta":158188821},{"NoteNumber":48,"Velocity":26,"Duration":98360,"SoundDuration":98360,"Delta":158188821},{"NoteNumber":58,"Velocity":50,"Duration":1431390,"SoundDuration":1431390,"Delta":158287182},{"NoteNumber":50,"Velocity":30,"Duration":102739,"SoundDuration":102739,"Delta":158287182},{"NoteNumber":48,"Velocity":26,"Duration":102739,"SoundDuration":102739,"Delta":158389922},{"NoteNumber":42,"Velocity":30,"Duration":154109,"SoundDuration":154109,"Delta":158492662},{"NoteNumber":48,"Velocity":26,"Duration":102739,"SoundDuration":102739,"Delta":158595401},{"NoteNumber":50,"Velocity":29,"Duration":101695,"SoundDuration":101695,"Delta":158698141},{"NoteNumber":48,"Velocity":25,"Duration":101695,"SoundDuration":101695,"Delta":158799836},{"NoteNumber":50,"Velocity":28,"Duration":101694,"SoundDuration":101694,"Delta":158901531},{"NoteNumber":48,"Velocity":23,"Duration":101695,"SoundDuration":101695,"Delta":159003226},{"NoteNumber":42,"Velocity":27,"Duration":154468,"SoundDuration":154468,"Delta":159104921},{"NoteNumber":48,"Velocity":24,"Duration":102040,"SoundDuration":102040,"Delta":159208369},{"NoteNumber":50,"Velocity":26,"Duration":102040,"SoundDuration":102040,"Delta":159310410},{"NoteNumber":48,"Velocity":23,"Duration":102040,"SoundDuration":102040,"Delta":159412451},{"NoteNumber":50,"Velocity":25,"Duration":102040,"SoundDuration":102040,"Delta":159514492},{"NoteNumber":48,"Velocity":21,"Duration":102040,"SoundDuration":102040,"Delta":159616532},{"NoteNumber":56,"Velocity":46,"Duration":102040,"SoundDuration":102040,"Delta":159718573},{"NoteNumber":42,"Velocity":19,"Duration":153061,"SoundDuration":153061,"Delta":159718573},{"NoteNumber":48,"Velocity":21,"Duration":102040,"SoundDuration":102040,"Delta":159820614},{"NoteNumber":58,"Velocity":46,"Duration":101351,"SoundDuration":101351,"Delta":159922655},{"NoteNumber":50,"Velocity":24,"Duration":101351,"SoundDuration":101351,"Delta":159922655},{"NoteNumber":48,"Velocity":21,"Duration":101351,"SoundDuration":101351,"Delta":160024006},{"NoteNumber":53,"Velocity":43,"Duration":103448,"SoundDuration":103448,"Delta":160125357},{"NoteNumber":50,"Velocity":24,"Duration":103448,"SoundDuration":103448,"Delta":160125357},{"NoteNumber":48,"Velocity":20,"Duration":103448,"SoundDuration":103448,"Delta":160228805},{"NoteNumber":51,"Velocity":46,"Duration":103448,"SoundDuration":103448,"Delta":160332254},{"NoteNumber":42,"Velocity":24,"Duration":155172,"SoundDuration":155172,"Delta":160332254},{"NoteNumber":45,"Velocity":21,"Duration":103448,"SoundDuration":103448,"Delta":160435702},{"NoteNumber":56,"Velocity":43,"Duration":101695,"SoundDuration":101695,"Delta":160539150},{"NoteNumber":47,"Velocity":24,"Duration":101695,"SoundDuration":101695,"Delta":160539150},{"NoteNumber":45,"Velocity":21,"Duration":101695,"SoundDuration":101695,"Delta":160640845},{"NoteNumber":51,"Velocity":44,"Duration":103448,"SoundDuration":103448,"Delta":160742540},{"NoteNumber":47,"Velocity":24,"Duration":103448,"SoundDuration":103448,"Delta":160742540},{"NoteNumber":45,"Velocity":20,"Duration":103448,"SoundDuration":103448,"Delta":160845988},{"NoteNumber":46,"Velocity":21,"Duration":103415,"SoundDuration":103415,"Delta":160949437},{"NoteNumber":30,"Velocity":29,"Duration":154274,"SoundDuration":154274,"Delta":160949437},{"NoteNumber":47,"Velocity":21,"Duration":101789,"SoundDuration":101789,"Delta":161052852},{"NoteNumber":45,"Velocity":21,"Duration":101789,"SoundDuration":101789,"Delta":161052852},{"NoteNumber":48,"Velocity":24,"Duration":103605,"SoundDuration":103605,"Delta":161154641},{"NoteNumber":47,"Velocity":21,"Duration":102589,"SoundDuration":102589,"Delta":161258246},{"NoteNumber":45,"Velocity":21,"Duration":102589,"SoundDuration":102589,"Delta":161258246},{"NoteNumber":46,"Velocity":21,"Duration":103393,"SoundDuration":103393,"Delta":161360836},{"NoteNumber":47,"Velocity":22,"Duration":102669,"SoundDuration":102669,"Delta":161464230},{"NoteNumber":45,"Velocity":22,"Duration":102669,"SoundDuration":102669,"Delta":161464230},{"NoteNumber":58,"Velocity":50,"Duration":49833,"SoundDuration":49833,"Delta":161566899},{"NoteNumber":42,"Velocity":25,"Duration":149501,"SoundDuration":149501,"Delta":161566899},{"NoteNumber":58,"Velocity":46,"Duration":49833,"SoundDuration":49833,"Delta":161666567},{"NoteNumber":48,"Velocity":21,"Duration":99667,"SoundDuration":99667,"Delta":161666567},{"NoteNumber":58,"Velocity":52,"Duration":49833,"SoundDuration":49833,"Delta":161766235},{"NoteNumber":50,"Velocity":25,"Duration":99667,"SoundDuration":99667,"Delta":161766235},{"NoteNumber":56,"Velocity":45,"Duration":49833,"SoundDuration":49833,"Delta":161865903},{"NoteNumber":48,"Velocity":22,"Duration":99667,"SoundDuration":99667,"Delta":161865903},{"NoteNumber":58,"Velocity":51,"Duration":1436991,"SoundDuration":1436991,"Delta":161965570},{"NoteNumber":50,"Velocity":26,"Duration":102739,"SoundDuration":102739,"Delta":161965570},{"NoteNumber":48,"Velocity":23,"Duration":102739,"SoundDuration":102739,"Delta":162068310},{"NoteNumber":42,"Velocity":26,"Duration":154109,"SoundDuration":154109,"Delta":162171050},{"NoteNumber":48,"Velocity":21,"Duration":102739,"SoundDuration":102739,"Delta":162273790},{"NoteNumber":50,"Velocity":26,"Duration":102739,"SoundDuration":102739,"Delta":162376529},{"NoteNumber":48,"Velocity":22,"Duration":102739,"SoundDuration":102739,"Delta":162479269},{"NoteNumber":50,"Velocity":28,"Duration":102739,"SoundDuration":102739,"Delta":162582009},{"NoteNumber":48,"Velocity":23,"Duration":102739,"SoundDuration":102739,"Delta":162684749},{"NoteNumber":42,"Velocity":34,"Duration":152026,"SoundDuration":152026,"Delta":162787488},{"NoteNumber":74,"Velocity":46,"Duration":101351,"SoundDuration":101351,"Delta":162888840},{"NoteNumber":72,"Velocity":39,"Duration":101351,"SoundDuration":101351,"Delta":162888840},{"NoteNumber":62,"Velocity":49,"Duration":103092,"SoundDuration":103092,"Delta":162990191},{"NoteNumber":60,"Velocity":45,"Duration":103092,"SoundDuration":103092,"Delta":163093284},{"NoteNumber":50,"Velocity":31,"Duration":103092,"SoundDuration":103092,"Delta":163196376},{"NoteNumber":48,"Velocity":27,"Duration":103092,"SoundDuration":103092,"Delta":163299469},{"NoteNumber":68,"Velocity":40,"Duration":25773,"SoundDuration":25773,"Delta":163376789},{"NoteNumber":56,"Velocity":46,"Duration":103092,"SoundDuration":103092,"Delta":163402562},{"NoteNumber":42,"Velocity":19,"Duration":154639,"SoundDuration":154639,"Delta":163402562},{"NoteNumber":48,"Velocity":21,"Duration":103092,"SoundDuration":103092,"Delta":163505655},{"NoteNumber":58,"Velocity":46,"Duration":99999,"SoundDuration":99999,"Delta":163608747},{"NoteNumber":50,"Velocity":24,"Duration":99999,"SoundDuration":99999,"Delta":163608747},{"NoteNumber":48,"Velocity":21,"Duration":99999,"SoundDuration":99999,"Delta":163708747},{"NoteNumber":65,"Velocity":41,"Duration":24999,"SoundDuration":24999,"Delta":163783747},{"NoteNumber":53,"Velocity":43,"Duration":103448,"SoundDuration":103448,"Delta":163808747},{"NoteNumber":50,"Velocity":24,"Duration":103448,"SoundDuration":103448,"Delta":163808747},{"NoteNumber":48,"Velocity":20,"Duration":103448,"SoundDuration":103448,"Delta":163912196},{"NoteNumber":52,"Velocity":46,"Duration":103448,"SoundDuration":103448,"Delta":164015644},{"NoteNumber":42,"Velocity":24,"Duration":155172,"SoundDuration":155172,"Delta":164015644},{"NoteNumber":48,"Velocity":21,"Duration":103448,"SoundDuration":103448,"Delta":164119092},{"NoteNumber":63,"Velocity":46,"Duration":25862,"SoundDuration":25862,"Delta":164196678},{"NoteNumber":56,"Velocity":43,"Duration":99999,"SoundDuration":99999,"Delta":164222540},{"NoteNumber":50,"Velocity":24,"Duration":99999,"SoundDuration":99999,"Delta":164222540},{"NoteNumber":48,"Velocity":21,"Duration":99999,"SoundDuration":99999,"Delta":164322540},{"NoteNumber":51,"Velocity":44,"Duration":103448,"SoundDuration":103448,"Delta":164422540},{"NoteNumber":50,"Velocity":24,"Duration":103448,"SoundDuration":103448,"Delta":164422540},{"NoteNumber":48,"Velocity":20,"Duration":103448,"SoundDuration":103448,"Delta":164525989},{"NoteNumber":42,"Velocity":31,"Duration":152026,"SoundDuration":152026,"Delta":164629437},{"NoteNumber":59,"Velocity":47,"Duration":101351,"SoundDuration":101351,"Delta":164730788},{"NoteNumber":57,"Velocity":39,"Duration":101351,"SoundDuration":101351,"Delta":164730788},{"NoteNumber":47,"Velocity":51,"Duration":103092,"SoundDuration":103092,"Delta":164832139},{"NoteNumber":45,"Velocity":47,"Duration":103092,"SoundDuration":103092,"Delta":164935232},{"NoteNumber":47,"Velocity":36,"Duration":103092,"SoundDuration":103092,"Delta":165038325},{"NoteNumber":45,"Velocity":31,"Duration":103092,"SoundDuration":103092,"Delta":165141418},{"NoteNumber":39,"Velocity":46,"Duration":110294,"SoundDuration":110294,"Delta":165244510},{"NoteNumber":35,"Velocity":30,"Duration":165440,"SoundDuration":165440,"Delta":165244510},{"NoteNumber":45,"Velocity":25,"Duration":110293,"SoundDuration":110293,"Delta":165354804},{"NoteNumber":44,"Velocity":46,"Duration":107142,"SoundDuration":107142,"Delta":165465098},{"NoteNumber":47,"Velocity":29,"Duration":107142,"SoundDuration":107142,"Delta":165465098},{"NoteNumber":45,"Velocity":26,"Duration":107142,"SoundDuration":107142,"Delta":165572241},{"NoteNumber":39,"Velocity":43,"Duration":110294,"SoundDuration":110294,"Delta":165679384},{"NoteNumber":47,"Velocity":29,"Duration":110294,"SoundDuration":110294,"Delta":165679384},{"NoteNumber":45,"Velocity":24,"Duration":110293,"SoundDuration":110293,"Delta":165789678},{"NoteNumber":27,"Velocity":19,"Duration":712801,"SoundDuration":712801,"Delta":165899972},{"NoteNumber":104,"Velocity":50,"Duration":108108,"SoundDuration":108108,"Delta":166341148},{"NoteNumber":99,"Velocity":27,"Duration":81967,"SoundDuration":81967,"Delta":166449256},{"NoteNumber":95,"Velocity":28,"Duration":81549,"SoundDuration":81549,"Delta":166531223},{"NoteNumber":102,"Velocity":41,"Duration":73121,"SoundDuration":73121,"Delta":166612773},{"NoteNumber":97,"Velocity":32,"Duration":72776,"SoundDuration":72776,"Delta":166685894},{"NoteNumber":93,"Velocity":33,"Duration":72515,"SoundDuration":72515,"Delta":166758671},{"NoteNumber":92,"Velocity":35,"Duration":72176,"SoundDuration":72176,"Delta":166831187},{"NoteNumber":90,"Velocity":36,"Duration":71920,"SoundDuration":71920,"Delta":166903363},{"NoteNumber":85,"Velocity":38,"Duration":71586,"SoundDuration":71586,"Delta":166975284},{"NoteNumber":81,"Velocity":40,"Duration":71334,"SoundDuration":71334,"Delta":167046870},{"NoteNumber":80,"Velocity":41,"Duration":71006,"SoundDuration":71006,"Delta":167118205},{"NoteNumber":75,"Velocity":43,"Duration":70758,"SoundDuration":70758,"Delta":167189211},{"NoteNumber":71,"Velocity":44,"Duration":70435,"SoundDuration":70435,"Delta":167259969},{"NoteNumber":78,"Velocity":53,"Duration":69531,"SoundDuration":69531,"Delta":167330404},{"NoteNumber":73,"Velocity":48,"Duration":69068,"SoundDuration":69068,"Delta":167399935},{"NoteNumber":69,"Velocity":49,"Duration":68833,"SoundDuration":68833,"Delta":167469004},{"NoteNumber":68,"Velocity":51,"Duration":68528,"SoundDuration":68528,"Delta":167537838},{"NoteNumber":66,"Velocity":52,"Duration":68297,"SoundDuration":68297,"Delta":167606366},{"NoteNumber":61,"Velocity":54,"Duration":68067,"SoundDuration":68067,"Delta":167674663},{"NoteNumber":57,"Velocity":56,"Duration":67768,"SoundDuration":67768,"Delta":167742730},{"NoteNumber":56,"Velocity":57,"Duration":67542,"SoundDuration":67542,"Delta":167810499},{"NoteNumber":51,"Velocity":59,"Duration":67317,"SoundDuration":67317,"Delta":167878041},{"NoteNumber":47,"Velocity":60,"Duration":67025,"SoundDuration":67025,"Delta":167945359},{"NoteNumber":54,"Velocity":67,"Duration":74211,"SoundDuration":74211,"Delta":168012385},{"NoteNumber":49,"Velocity":63,"Duration":73937,"SoundDuration":73937,"Delta":168086596},{"NoteNumber":45,"Velocity":66,"Duration":73597,"SoundDuration":73597,"Delta":168160534},{"NoteNumber":44,"Velocity":68,"Duration":73327,"SoundDuration":73327,"Delta":168234131},{"NoteNumber":42,"Velocity":70,"Duration":73059,"SoundDuration":73059,"Delta":168307458},{"NoteNumber":37,"Velocity":73,"Duration":72727,"SoundDuration":72727,"Delta":168380518},{"NoteNumber":33,"Velocity":75,"Duration":72463,"SoundDuration":72463,"Delta":168453245},{"NoteNumber":37,"Velocity":77,"Duration":72137,"SoundDuration":72137,"Delta":168525709},{"NoteNumber":33,"Velocity":80,"Duration":71878,"SoundDuration":71878,"Delta":168597846},{"NoteNumber":27,"Velocity":87,"Duration":263923,"SoundDuration":263923,"Delta":168669724},{"NoteNumber":33,"Velocity":73,"Duration":88242,"SoundDuration":88242,"Delta":168758220},{"NoteNumber":37,"Velocity":71,"Duration":87185,"SoundDuration":87185,"Delta":168846462},{"NoteNumber":42,"Velocity":69,"Duration":85967,"SoundDuration":85967,"Delta":168933648},{"NoteNumber":33,"Velocity":58,"Duration":64599,"SoundDuration":64599,"Delta":168933648},{"NoteNumber":39,"Velocity":57,"Duration":63903,"SoundDuration":63903,"Delta":168998248},{"NoteNumber":45,"Velocity":68,"Duration":84818,"SoundDuration":84818,"Delta":169019615},{"NoteNumber":42,"Velocity":55,"Duration":63291,"SoundDuration":63291,"Delta":169062151},{"NoteNumber":49,"Velocity":66,"Duration":83665,"SoundDuration":83665,"Delta":169104434},{"NoteNumber":44,"Velocity":54,"Duration":62657,"SoundDuration":62657,"Delta":169125443},{"NoteNumber":54,"Velocity":64,"Duration":82628,"SoundDuration":82628,"Delta":169188100},{"NoteNumber":45,"Velocity":53,"Duration":62052,"SoundDuration":62052,"Delta":169188100},{"NoteNumber":51,"Velocity":52,"Duration":61476,"SoundDuration":61476,"Delta":169250153},{"NoteNumber":57,"Velocity":63,"Duration":81534,"SoundDuration":81534,"Delta":169270729},{"NoteNumber":54,"Velocity":51,"Duration":60877,"SoundDuration":60877,"Delta":169311629},{"NoteNumber":61,"Velocity":61,"Duration":80516,"SoundDuration":80516,"Delta":169352263},{"NoteNumber":56,"Velocity":50,"Duration":60273,"SoundDuration":60273,"Delta":169372506},{"NoteNumber":66,"Velocity":59,"Duration":71571,"SoundDuration":71571,"Delta":169432779},{"NoteNumber":57,"Velocity":48,"Duration":59713,"SoundDuration":59713,"Delta":169432779},{"NoteNumber":63,"Velocity":47,"Duration":59164,"SoundDuration":59164,"Delta":169492493},{"NoteNumber":69,"Velocity":58,"Duration":70820,"SoundDuration":70820,"Delta":169504351},{"NoteNumber":66,"Velocity":46,"Duration":58624,"SoundDuration":58624,"Delta":169551657},{"NoteNumber":73,"Velocity":56,"Duration":70024,"SoundDuration":70024,"Delta":169575171},{"NoteNumber":68,"Velocity":45,"Duration":58094,"SoundDuration":58094,"Delta":169610282},{"NoteNumber":78,"Velocity":55,"Duration":69261,"SoundDuration":69261,"Delta":169645196},{"NoteNumber":69,"Velocity":44,"Duration":57530,"SoundDuration":57530,"Delta":169668377},{"NoteNumber":81,"Velocity":54,"Duration":68485,"SoundDuration":68485,"Delta":169714457},{"NoteNumber":75,"Velocity":43,"Duration":57034,"SoundDuration":57034,"Delta":169725907},{"NoteNumber":85,"Velocity":52,"Duration":67754,"SoundDuration":67754,"Delta":169782942},{"NoteNumber":78,"Velocity":42,"Duration":56518,"SoundDuration":56518,"Delta":169782942},{"NoteNumber":80,"Velocity":40,"Duration":56026,"SoundDuration":56026,"Delta":169839461},{"NoteNumber":90,"Velocity":51,"Duration":67081,"SoundDuration":67081,"Delta":169850697},{"NoteNumber":81,"Velocity":39,"Duration":44485,"SoundDuration":44485,"Delta":169895487},{"NoteNumber":93,"Velocity":49,"Duration":66353,"SoundDuration":66353,"Delta":169917778},{"NoteNumber":87,"Velocity":38,"Duration":44158,"SoundDuration":44158,"Delta":169939973},{"NoteNumber":97,"Velocity":48,"Duration":65680,"SoundDuration":65680,"Delta":169984132},{"NoteNumber":90,"Velocity":38,"Duration":43862,"SoundDuration":43862,"Delta":169984132},{"NoteNumber":92,"Velocity":37,"Duration":43544,"SoundDuration":43544,"Delta":170027994},{"NoteNumber":102,"Velocity":46,"Duration":64982,"SoundDuration":64982,"Delta":170049813},{"NoteNumber":93,"Velocity":36,"Duration":43256,"SoundDuration":43256,"Delta":170071539},{"NoteNumber":105,"Velocity":44,"Duration":107527,"SoundDuration":107527,"Delta":170114795},{"NoteNumber":97,"Velocity":35,"Duration":107527,"SoundDuration":107527,"Delta":170114795},{"NoteNumber":65,"Velocity":50,"Duration":49668,"SoundDuration":49668,"Delta":170759957},{"NoteNumber":37,"Velocity":30,"Duration":149006,"SoundDuration":149006,"Delta":170759957},{"NoteNumber":65,"Velocity":46,"Duration":49668,"SoundDuration":49668,"Delta":170859295},{"NoteNumber":55,"Velocity":26,"Duration":99337,"SoundDuration":99337,"Delta":170859295},{"NoteNumber":65,"Velocity":51,"Duration":49668,"SoundDuration":49668,"Delta":170958632},{"NoteNumber":57,"Velocity":30,"Duration":99337,"SoundDuration":99337,"Delta":170958632},{"NoteNumber":63,"Velocity":45,"Duration":49668,"SoundDuration":49668,"Delta":171057970},{"NoteNumber":55,"Velocity":26,"Duration":99337,"SoundDuration":99337,"Delta":171057970},{"NoteNumber":65,"Velocity":50,"Duration":1431390,"SoundDuration":1431390,"Delta":171157308},{"NoteNumber":57,"Velocity":30,"Duration":102739,"SoundDuration":102739,"Delta":171157308},{"NoteNumber":55,"Velocity":26,"Duration":102739,"SoundDuration":102739,"Delta":171260048},{"NoteNumber":49,"Velocity":30,"Duration":154109,"SoundDuration":154109,"Delta":171362787},{"NoteNumber":55,"Velocity":26,"Duration":102739,"SoundDuration":102739,"Delta":171465527},{"NoteNumber":57,"Velocity":29,"Duration":101695,"SoundDuration":101695,"Delta":171568267},{"NoteNumber":55,"Velocity":25,"Duration":101695,"SoundDuration":101695,"Delta":171669962},{"NoteNumber":57,"Velocity":28,"Duration":101694,"SoundDuration":101694,"Delta":171771657},{"NoteNumber":55,"Velocity":23,"Duration":101695,"SoundDuration":101695,"Delta":171873352},{"NoteNumber":49,"Velocity":27,"Duration":154468,"SoundDuration":154468,"Delta":171975047},{"NoteNumber":55,"Velocity":24,"Duration":102040,"SoundDuration":102040,"Delta":172078495},{"NoteNumber":57,"Velocity":26,"Duration":102040,"SoundDuration":102040,"Delta":172180536},{"NoteNumber":55,"Velocity":23,"Duration":102040,"SoundDuration":102040,"Delta":172282577},{"NoteNumber":57,"Velocity":25,"Duration":102040,"SoundDuration":102040,"Delta":172384617},{"NoteNumber":55,"Velocity":21,"Duration":102040,"SoundDuration":102040,"Delta":172486658},{"NoteNumber":63,"Velocity":45,"Duration":102040,"SoundDuration":102040,"Delta":172588699},{"NoteNumber":49,"Velocity":19,"Duration":153061,"SoundDuration":153061,"Delta":172588699},{"NoteNumber":55,"Velocity":21,"Duration":102040,"SoundDuration":102040,"Delta":172690740},{"NoteNumber":65,"Velocity":38,"Duration":99337,"SoundDuration":99337,"Delta":172792780},{"NoteNumber":57,"Velocity":24,"Duration":99337,"SoundDuration":99337,"Delta":172792780},{"NoteNumber":55,"Velocity":21,"Duration":99337,"SoundDuration":99337,"Delta":172892118},{"NoteNumber":60,"Velocity":38,"Duration":103448,"SoundDuration":103448,"Delta":172991456},{"NoteNumber":57,"Velocity":24,"Duration":103448,"SoundDuration":103448,"Delta":172991456},{"NoteNumber":55,"Velocity":20,"Duration":103448,"SoundDuration":103448,"Delta":173094904},{"NoteNumber":58,"Velocity":40,"Duration":103448,"SoundDuration":103448,"Delta":173198352},{"NoteNumber":49,"Velocity":24,"Duration":155172,"SoundDuration":155172,"Delta":173198352},{"NoteNumber":52,"Velocity":21,"Duration":103448,"SoundDuration":103448,"Delta":173301801},{"NoteNumber":63,"Velocity":38,"Duration":99667,"SoundDuration":99667,"Delta":173405249},{"NoteNumber":54,"Velocity":24,"Duration":99667,"SoundDuration":99667,"Delta":173405249},{"NoteNumber":52,"Velocity":21,"Duration":99667,"SoundDuration":99667,"Delta":173504917},{"NoteNumber":58,"Velocity":38,"Duration":103448,"SoundDuration":103448,"Delta":173604584},{"NoteNumber":54,"Velocity":24,"Duration":103448,"SoundDuration":103448,"Delta":173604584},{"NoteNumber":52,"Velocity":20,"Duration":103448,"SoundDuration":103448,"Delta":173708033},{"NoteNumber":46,"Velocity":36,"Duration":103448,"SoundDuration":103448,"Delta":173811481},{"NoteNumber":49,"Velocity":24,"Duration":155172,"SoundDuration":155172,"Delta":173811481},{"NoteNumber":52,"Velocity":21,"Duration":103448,"SoundDuration":103448,"Delta":173914929},{"NoteNumber":51,"Velocity":33,"Duration":101695,"SoundDuration":101695,"Delta":174018377},{"NoteNumber":54,"Velocity":24,"Duration":101695,"SoundDuration":101695,"Delta":174018377},{"NoteNumber":52,"Velocity":21,"Duration":101695,"SoundDuration":101695,"Delta":174120072},{"NoteNumber":46,"Velocity":32,"Duration":103448,"SoundDuration":103448,"Delta":174221767},{"NoteNumber":54,"Velocity":24,"Duration":103448,"SoundDuration":103448,"Delta":174221767},{"NoteNumber":52,"Velocity":20,"Duration":103448,"SoundDuration":103448,"Delta":174325216},{"NoteNumber":69,"Velocity":42,"Duration":49180,"SoundDuration":49180,"Delta":174428664},{"NoteNumber":77,"Velocity":50,"Duration":49180,"SoundDuration":49180,"Delta":174428664},{"NoteNumber":37,"Velocity":30,"Duration":147541,"SoundDuration":147541,"Delta":174428664},{"NoteNumber":65,"Velocity":46,"Duration":49180,"SoundDuration":49180,"Delta":174527025},{"NoteNumber":55,"Velocity":26,"Duration":98360,"SoundDuration":98360,"Delta":174527025},{"NoteNumber":65,"Velocity":51,"Duration":49180,"SoundDuration":49180,"Delta":174625385},{"NoteNumber":57,"Velocity":30,"Duration":98360,"SoundDuration":98360,"Delta":174625385},{"NoteNumber":63,"Velocity":45,"Duration":49180,"SoundDuration":49180,"Delta":174723746},{"NoteNumber":55,"Velocity":26,"Duration":98360,"SoundDuration":98360,"Delta":174723746},{"NoteNumber":65,"Velocity":42,"Duration":1432871,"SoundDuration":1432871,"Delta":174822107},{"NoteNumber":69,"Velocity":42,"Duration":1123534,"SoundDuration":1123534,"Delta":174822107},{"NoteNumber":77,"Velocity":50,"Duration":1432871,"SoundDuration":1432871,"Delta":174822107},{"NoteNumber":57,"Velocity":30,"Duration":102739,"SoundDuration":102739,"Delta":174822107},{"NoteNumber":55,"Velocity":26,"Duration":102739,"SoundDuration":102739,"Delta":174924847},{"NoteNumber":49,"Velocity":30,"Duration":154109,"SoundDuration":154109,"Delta":175027586},{"NoteNumber":55,"Velocity":26,"Duration":102739,"SoundDuration":102739,"Delta":175130326},{"NoteNumber":57,"Velocity":29,"Duration":101695,"SoundDuration":101695,"Delta":175233066},{"NoteNumber":55,"Velocity":25,"Duration":101695,"SoundDuration":101695,"Delta":175334761},{"NoteNumber":57,"Velocity":28,"Duration":101694,"SoundDuration":101694,"Delta":175436456},{"NoteNumber":55,"Velocity":23,"Duration":101695,"SoundDuration":101695,"Delta":175538151},{"NoteNumber":49,"Velocity":31,"Duration":152026,"SoundDuration":152026,"Delta":175639846},{"NoteNumber":81,"Velocity":46,"Duration":101351,"SoundDuration":101351,"Delta":175741197},{"NoteNumber":79,"Velocity":39,"Duration":101351,"SoundDuration":101351,"Delta":175741197},{"NoteNumber":69,"Velocity":50,"Duration":412430,"SoundDuration":412430,"Delta":175842548},{"NoteNumber":67,"Velocity":47,"Duration":103092,"SoundDuration":103092,"Delta":175945641},{"NoteNumber":57,"Velocity":31,"Duration":103092,"SoundDuration":103092,"Delta":176048734},{"NoteNumber":55,"Velocity":28,"Duration":103151,"SoundDuration":103151,"Delta":176151827},{"NoteNumber":69,"Velocity":38,"Duration":103448,"SoundDuration":103448,"Delta":176254979},{"NoteNumber":75,"Velocity":45,"Duration":103448,"SoundDuration":103448,"Delta":176254979},{"NoteNumber":63,"Velocity":38,"Duration":103448,"SoundDuration":103448,"Delta":176254979},{"NoteNumber":49,"Velocity":19,"Duration":155172,"SoundDuration":155172,"Delta":176254979},{"NoteNumber":55,"Velocity":21,"Duration":103448,"SoundDuration":103448,"Delta":176358427},{"NoteNumber":77,"Velocity":38,"Duration":100334,"SoundDuration":100334,"Delta":176461875},{"NoteNumber":65,"Velocity":32,"Duration":100334,"SoundDuration":100334,"Delta":176461875},{"NoteNumber":57,"Velocity":24,"Duration":100334,"SoundDuration":100334,"Delta":176461875},{"NoteNumber":55,"Velocity":21,"Duration":100334,"SoundDuration":100334,"Delta":176562210},{"NoteNumber":69,"Velocity":32,"Duration":103448,"SoundDuration":103448,"Delta":176662544},{"NoteNumber":72,"Velocity":38,"Duration":103448,"SoundDuration":103448,"Delta":176662544},{"NoteNumber":60,"Velocity":32,"Duration":103448,"SoundDuration":103448,"Delta":176662544},{"NoteNumber":57,"Velocity":24,"Duration":103448,"SoundDuration":103448,"Delta":176662544},{"NoteNumber":55,"Velocity":20,"Duration":103448,"SoundDuration":103448,"Delta":176765992},{"NoteNumber":70,"Velocity":40,"Duration":103448,"SoundDuration":103448,"Delta":176869441},{"NoteNumber":58,"Velocity":34,"Duration":103448,"SoundDuration":103448,"Delta":176869441},{"NoteNumber":49,"Velocity":24,"Duration":155172,"SoundDuration":155172,"Delta":176869441},{"NoteNumber":52,"Velocity":21,"Duration":103448,"SoundDuration":103448,"Delta":176972889},{"NoteNumber":75,"Velocity":38,"Duration":101695,"SoundDuration":101695,"Delta":177076337},{"NoteNumber":63,"Velocity":32,"Duration":101695,"SoundDuration":101695,"Delta":177076337},{"NoteNumber":54,"Velocity":24,"Duration":101695,"SoundDuration":101695,"Delta":177076337},{"NoteNumber":52,"Velocity":21,"Duration":101695,"SoundDuration":101695,"Delta":177178032},{"NoteNumber":70,"Velocity":38,"Duration":103448,"SoundDuration":103448,"Delta":177279727},{"NoteNumber":58,"Velocity":32,"Duration":103448,"SoundDuration":103448,"Delta":177279727},{"NoteNumber":54,"Velocity":24,"Duration":103448,"SoundDuration":103448,"Delta":177279727},{"NoteNumber":52,"Velocity":20,"Duration":103448,"SoundDuration":103448,"Delta":177383175},{"NoteNumber":49,"Velocity":31,"Duration":152026,"SoundDuration":152026,"Delta":177486624},{"NoteNumber":78,"Velocity":46,"Duration":101351,"SoundDuration":101351,"Delta":177587975},{"NoteNumber":76,"Velocity":39,"Duration":101351,"SoundDuration":101351,"Delta":177587975},{"NoteNumber":66,"Velocity":50,"Duration":103092,"SoundDuration":103092,"Delta":177689326},{"NoteNumber":64,"Velocity":47,"Duration":103092,"SoundDuration":103092,"Delta":177792419},{"NoteNumber":54,"Velocity":31,"Duration":103092,"SoundDuration":103092,"Delta":177895512},{"NoteNumber":52,"Velocity":28,"Duration":103151,"SoundDuration":103151,"Delta":177998604},{"NoteNumber":46,"Velocity":36,"Duration":105633,"SoundDuration":105633,"Delta":178101756},{"NoteNumber":49,"Velocity":24,"Duration":158450,"SoundDuration":158450,"Delta":178101756},{"NoteNumber":52,"Velocity":21,"Duration":105633,"SoundDuration":105633,"Delta":178207390},{"NoteNumber":51,"Velocity":33,"Duration":103448,"SoundDuration":103448,"Delta":178313024},{"NoteNumber":54,"Velocity":24,"Duration":103448,"SoundDuration":103448,"Delta":178313024},{"NoteNumber":52,"Velocity":21,"Duration":103448,"SoundDuration":103448,"Delta":178416472},{"NoteNumber":46,"Velocity":32,"Duration":106007,"SoundDuration":106007,"Delta":178519920},{"NoteNumber":54,"Velocity":24,"Duration":106007,"SoundDuration":106007,"Delta":178519920},{"NoteNumber":52,"Velocity":20,"Duration":106007,"SoundDuration":106007,"Delta":178625927},{"NoteNumber":34,"Velocity":30,"Duration":114068,"SoundDuration":114068,"Delta":178731934},{"NoteNumber":52,"Velocity":21,"Duration":114068,"SoundDuration":114068,"Delta":178846003},{"NoteNumber":54,"Velocity":24,"Duration":110294,"SoundDuration":110294,"Delta":178960071},{"NoteNumber":39,"Velocity":27,"Duration":110294,"SoundDuration":110294,"Delta":178960071},{"NoteNumber":52,"Velocity":21,"Duration":110293,"SoundDuration":110293,"Delta":179070365},{"NoteNumber":54,"Velocity":24,"Duration":117187,"SoundDuration":117187,"Delta":179180659},{"NoteNumber":34,"Velocity":27,"Duration":117187,"SoundDuration":117187,"Delta":179180659},{"NoteNumber":52,"Velocity":21,"Duration":117187,"SoundDuration":117187,"Delta":179297847},{"NoteNumber":22,"Velocity":24,"Duration":871625,"SoundDuration":871625,"Delta":179415034},{"NoteNumber":99,"Velocity":50,"Duration":108108,"SoundDuration":108108,"Delta":180015034},{"NoteNumber":94,"Velocity":27,"Duration":81967,"SoundDuration":81967,"Delta":180123143},{"NoteNumber":90,"Velocity":28,"Duration":81549,"SoundDuration":81549,"Delta":180205110},{"NoteNumber":97,"Velocity":41,"Duration":73121,"SoundDuration":73121,"Delta":180286660},{"NoteNumber":92,"Velocity":32,"Duration":72776,"SoundDuration":72776,"Delta":180359781},{"NoteNumber":88,"Velocity":33,"Duration":72515,"SoundDuration":72515,"Delta":180432557},{"NoteNumber":87,"Velocity":35,"Duration":72176,"SoundDuration":72176,"Delta":180505073},{"NoteNumber":85,"Velocity":36,"Duration":71920,"SoundDuration":71920,"Delta":180577250},{"NoteNumber":80,"Velocity":38,"Duration":71586,"SoundDuration":71586,"Delta":180649170},{"NoteNumber":76,"Velocity":40,"Duration":71334,"SoundDuration":71334,"Delta":180720757},{"NoteNumber":75,"Velocity":41,"Duration":71006,"SoundDuration":71006,"Delta":180792091},{"NoteNumber":70,"Velocity":43,"Duration":70758,"SoundDuration":70758,"Delta":180863098},{"NoteNumber":66,"Velocity":44,"Duration":70435,"SoundDuration":70435,"Delta":180933856},{"NoteNumber":73,"Velocity":53,"Duration":69531,"SoundDuration":69531,"Delta":181004291},{"NoteNumber":68,"Velocity":48,"Duration":69068,"SoundDuration":69068,"Delta":181073822},{"NoteNumber":64,"Velocity":49,"Duration":68833,"SoundDuration":68833,"Delta":181142891},{"NoteNumber":63,"Velocity":51,"Duration":68528,"SoundDuration":68528,"Delta":181211724},{"NoteNumber":61,"Velocity":52,"Duration":68297,"SoundDuration":68297,"Delta":181280253},{"NoteNumber":56,"Velocity":54,"Duration":68067,"SoundDuration":68067,"Delta":181348550},{"NoteNumber":52,"Velocity":56,"Duration":67768,"SoundDuration":67768,"Delta":181416617},{"NoteNumber":51,"Velocity":57,"Duration":67542,"SoundDuration":67542,"Delta":181484386},{"NoteNumber":46,"Velocity":59,"Duration":67317,"SoundDuration":67317,"Delta":181551928},{"NoteNumber":42,"Velocity":60,"Duration":67025,"SoundDuration":67025,"Delta":181619246},{"NoteNumber":49,"Velocity":67,"Duration":74211,"SoundDuration":74211,"Delta":181686271},{"NoteNumber":44,"Velocity":63,"Duration":73937,"SoundDuration":73937,"Delta":181760483},{"NoteNumber":40,"Velocity":66,"Duration":73597,"SoundDuration":73597,"Delta":181834420},{"NoteNumber":39,"Velocity":68,"Duration":73327,"SoundDuration":73327,"Delta":181908018},{"NoteNumber":37,"Velocity":70,"Duration":73059,"SoundDuration":73059,"Delta":181981345},{"NoteNumber":32,"Velocity":73,"Duration":72727,"SoundDuration":72727,"Delta":182054404},{"NoteNumber":28,"Velocity":75,"Duration":72463,"SoundDuration":72463,"Delta":182127132},{"NoteNumber":32,"Velocity":77,"Duration":72137,"SoundDuration":72137,"Delta":182199596},{"NoteNumber":28,"Velocity":80,"Duration":71878,"SoundDuration":71878,"Delta":182271733},{"NoteNumber":22,"Velocity":90,"Duration":263923,"SoundDuration":263923,"Delta":182343611},{"NoteNumber":28,"Velocity":73,"Duration":88242,"SoundDuration":88242,"Delta":182432106},{"NoteNumber":32,"Velocity":71,"Duration":87185,"SoundDuration":87185,"Delta":182520349},{"NoteNumber":37,"Velocity":69,"Duration":85967,"SoundDuration":85967,"Delta":182607535},{"NoteNumber":28,"Velocity":58,"Duration":64599,"SoundDuration":64599,"Delta":182607535},{"NoteNumber":34,"Velocity":57,"Duration":63903,"SoundDuration":63903,"Delta":182672135},{"NoteNumber":40,"Velocity":68,"Duration":84818,"SoundDuration":84818,"Delta":182693502},{"NoteNumber":37,"Velocity":55,"Duration":63291,"SoundDuration":63291,"Delta":182736038},{"NoteNumber":44,"Velocity":66,"Duration":83665,"SoundDuration":83665,"Delta":182778321},{"NoteNumber":39,"Velocity":54,"Duration":62657,"SoundDuration":62657,"Delta":182799330},{"NoteNumber":49,"Velocity":64,"Duration":82628,"SoundDuration":82628,"Delta":182861987},{"NoteNumber":40,"Velocity":53,"Duration":62052,"SoundDuration":62052,"Delta":182861987},{"NoteNumber":46,"Velocity":52,"Duration":61476,"SoundDuration":61476,"Delta":182924039},{"NoteNumber":52,"Velocity":63,"Duration":81534,"SoundDuration":81534,"Delta":182944615},{"NoteNumber":49,"Velocity":51,"Duration":60877,"SoundDuration":60877,"Delta":182985515},{"NoteNumber":56,"Velocity":61,"Duration":80516,"SoundDuration":80516,"Delta":183026150},{"NoteNumber":51,"Velocity":50,"Duration":60273,"SoundDuration":60273,"Delta":183046392},{"NoteNumber":61,"Velocity":59,"Duration":71571,"SoundDuration":71571,"Delta":183106666},{"NoteNumber":52,"Velocity":48,"Duration":59713,"SoundDuration":59713,"Delta":183106666},{"NoteNumber":58,"Velocity":47,"Duration":59164,"SoundDuration":59164,"Delta":183166380},{"NoteNumber":64,"Velocity":58,"Duration":70820,"SoundDuration":70820,"Delta":183178238},{"NoteNumber":61,"Velocity":46,"Duration":58624,"SoundDuration":58624,"Delta":183225544},{"NoteNumber":68,"Velocity":56,"Duration":70024,"SoundDuration":70024,"Delta":183249058},{"NoteNumber":63,"Velocity":45,"Duration":58094,"SoundDuration":58094,"Delta":183284169},{"NoteNumber":73,"Velocity":55,"Duration":69261,"SoundDuration":69261,"Delta":183319083},{"NoteNumber":64,"Velocity":44,"Duration":57530,"SoundDuration":57530,"Delta":183342264},{"NoteNumber":76,"Velocity":54,"Duration":68485,"SoundDuration":68485,"Delta":183388344},{"NoteNumber":70,"Velocity":43,"Duration":57034,"SoundDuration":57034,"Delta":183399794},{"NoteNumber":80,"Velocity":52,"Duration":67754,"SoundDuration":67754,"Delta":183456829},{"NoteNumber":73,"Velocity":42,"Duration":56518,"SoundDuration":56518,"Delta":183456829},{"NoteNumber":75,"Velocity":40,"Duration":56026,"SoundDuration":56026,"Delta":183513348},{"NoteNumber":85,"Velocity":51,"Duration":67081,"SoundDuration":67081,"Delta":183524584},{"NoteNumber":76,"Velocity":39,"Duration":44485,"SoundDuration":44485,"Delta":183569374},{"NoteNumber":88,"Velocity":49,"Duration":66353,"SoundDuration":66353,"Delta":183591665},{"NoteNumber":82,"Velocity":38,"Duration":44158,"SoundDuration":44158,"Delta":183613860},{"NoteNumber":92,"Velocity":48,"Duration":65680,"SoundDuration":65680,"Delta":183658019},{"NoteNumber":85,"Velocity":38,"Duration":43862,"SoundDuration":43862,"Delta":183658019},{"NoteNumber":87,"Velocity":37,"Duration":43544,"SoundDuration":43544,"Delta":183701881},{"NoteNumber":94,"Velocity":46,"Duration":64982,"SoundDuration":64982,"Delta":183723699},{"NoteNumber":88,"Velocity":36,"Duration":43256,"SoundDuration":43256,"Delta":183745425},{"NoteNumber":97,"Velocity":44,"Duration":107527,"SoundDuration":107527,"Delta":183788682},{"NoteNumber":92,"Velocity":35,"Duration":107527,"SoundDuration":107527,"Delta":183788682},{"NoteNumber":44,"Velocity":46,"Duration":106007,"SoundDuration":106007,"Delta":184433844},{"NoteNumber":63,"Velocity":30,"Duration":53003,"SoundDuration":53003,"Delta":184539851},{"NoteNumber":56,"Velocity":30,"Duration":53003,"SoundDuration":53003,"Delta":184592854},{"NoteNumber":51,"Velocity":34,"Duration":51369,"SoundDuration":51369,"Delta":184645858},{"NoteNumber":60,"Velocity":31,"Duration":102739,"SoundDuration":102739,"Delta":184645858},{"NoteNumber":56,"Velocity":31,"Duration":102739,"SoundDuration":102739,"Delta":184645858},{"NoteNumber":51,"Velocity":34,"Duration":51369,"SoundDuration":51369,"Delta":184748597},{"NoteNumber":51,"Velocity":34,"Duration":51903,"SoundDuration":51903,"Delta":184851337},{"NoteNumber":52,"Velocity":34,"Duration":51903,"SoundDuration":51903,"Delta":184955143},{"NoteNumber":54,"Velocity":37,"Duration":51903,"SoundDuration":51903,"Delta":185058950},{"NoteNumber":55,"Velocity":32,"Duration":103806,"SoundDuration":103806,"Delta":185058950},{"NoteNumber":59,"Velocity":32,"Duration":103806,"SoundDuration":103806,"Delta":185058950},{"NoteNumber":54,"Velocity":35,"Duration":51903,"SoundDuration":51903,"Delta":185162756},{"NoteNumber":54,"Velocity":35,"Duration":48701,"SoundDuration":48701,"Delta":185266562},{"NoteNumber":54,"Velocity":35,"Duration":48701,"SoundDuration":48701,"Delta":185363965},{"NoteNumber":54,"Velocity":35,"Duration":51369,"SoundDuration":51369,"Delta":185461367},{"NoteNumber":59,"Velocity":32,"Duration":102739,"SoundDuration":102739,"Delta":185461367},{"NoteNumber":55,"Velocity":32,"Duration":102739,"SoundDuration":102739,"Delta":185461367},{"NoteNumber":52,"Velocity":35,"Duration":51369,"SoundDuration":51369,"Delta":185564107},{"NoteNumber":44,"Velocity":39,"Duration":104166,"SoundDuration":104166,"Delta":185666847},{"NoteNumber":51,"Velocity":39,"Duration":104166,"SoundDuration":104166,"Delta":185666847},{"NoteNumber":63,"Velocity":30,"Duration":52083,"SoundDuration":52083,"Delta":185771013},{"NoteNumber":56,"Velocity":30,"Duration":52083,"SoundDuration":52083,"Delta":185823097},{"NoteNumber":51,"Velocity":35,"Duration":49180,"SoundDuration":49180,"Delta":185875180},{"NoteNumber":54,"Velocity":31,"Duration":98360,"SoundDuration":98360,"Delta":185875180},{"NoteNumber":58,"Velocity":31,"Duration":98360,"SoundDuration":98360,"Delta":185875180},{"NoteNumber":51,"Velocity":35,"Duration":49180,"SoundDuration":49180,"Delta":185973541},{"NoteNumber":51,"Velocity":35,"Duration":52083,"SoundDuration":52083,"Delta":186071902},{"NoteNumber":52,"Velocity":35,"Duration":52083,"SoundDuration":52083,"Delta":186176068},{"NoteNumber":48,"Velocity":38,"Duration":52083,"SoundDuration":52083,"Delta":186280235},{"NoteNumber":53,"Velocity":35,"Duration":104166,"SoundDuration":104166,"Delta":186280235},{"NoteNumber":57,"Velocity":35,"Duration":104166,"SoundDuration":104166,"Delta":186280235},{"NoteNumber":48,"Velocity":35,"Duration":52083,"SoundDuration":52083,"Delta":186384402},{"NoteNumber":48,"Velocity":35,"Duration":51369,"SoundDuration":51369,"Delta":186488569},{"NoteNumber":48,"Velocity":35,"Duration":51369,"SoundDuration":51369,"Delta":186591308},{"NoteNumber":48,"Velocity":35,"Duration":51369,"SoundDuration":51369,"Delta":186694048},{"NoteNumber":52,"Velocity":31,"Duration":102739,"SoundDuration":102739,"Delta":186694048},{"NoteNumber":56,"Velocity":31,"Duration":102739,"SoundDuration":102739,"Delta":186694048},{"NoteNumber":49,"Velocity":35,"Duration":51369,"SoundDuration":51369,"Delta":186796788},{"NoteNumber":51,"Velocity":47,"Duration":106007,"SoundDuration":106007,"Delta":186899528},{"NoteNumber":44,"Velocity":40,"Duration":106007,"SoundDuration":106007,"Delta":186899528},{"NoteNumber":75,"Velocity":37,"Duration":53003,"SoundDuration":53003,"Delta":187005535},{"NoteNumber":68,"Velocity":37,"Duration":53003,"SoundDuration":53003,"Delta":187058538},{"NoteNumber":63,"Velocity":42,"Duration":49342,"SoundDuration":49342,"Delta":187111542},{"NoteNumber":60,"Velocity":35,"Duration":98684,"SoundDuration":98684,"Delta":187111542},{"NoteNumber":56,"Velocity":35,"Duration":98684,"SoundDuration":98684,"Delta":187111542},{"NoteNumber":63,"Velocity":42,"Duration":49342,"SoundDuration":49342,"Delta":187210226},{"NoteNumber":63,"Velocity":42,"Duration":51903,"SoundDuration":51903,"Delta":187308910},{"NoteNumber":64,"Velocity":42,"Duration":51903,"SoundDuration":51903,"Delta":187412716},{"NoteNumber":66,"Velocity":46,"Duration":51903,"SoundDuration":51903,"Delta":187516523},{"NoteNumber":55,"Velocity":36,"Duration":103806,"SoundDuration":103806,"Delta":187516523},{"NoteNumber":59,"Velocity":36,"Duration":103806,"SoundDuration":103806,"Delta":187516523},{"NoteNumber":54,"Velocity":44,"Duration":51903,"SoundDuration":51903,"Delta":187620329},{"NoteNumber":54,"Velocity":44,"Duration":49180,"SoundDuration":49180,"Delta":187724135},{"NoteNumber":54,"Velocity":44,"Duration":49180,"SoundDuration":49180,"Delta":187822496},{"NoteNumber":66,"Velocity":44,"Duration":51369,"SoundDuration":51369,"Delta":187920857},{"NoteNumber":59,"Velocity":36,"Duration":102739,"SoundDuration":102739,"Delta":187920857},{"NoteNumber":55,"Velocity":36,"Duration":102739,"SoundDuration":102739,"Delta":187920857},{"NoteNumber":52,"Velocity":44,"Duration":51369,"SoundDuration":51369,"Delta":188023596},{"NoteNumber":44,"Velocity":45,"Duration":104166,"SoundDuration":104166,"Delta":188126336},{"NoteNumber":51,"Velocity":45,"Duration":104166,"SoundDuration":104166,"Delta":188126336},{"NoteNumber":75,"Velocity":37,"Duration":52083,"SoundDuration":52083,"Delta":188230503},{"NoteNumber":68,"Velocity":37,"Duration":52083,"SoundDuration":52083,"Delta":188282586},{"NoteNumber":63,"Velocity":44,"Duration":49342,"SoundDuration":49342,"Delta":188334670},{"NoteNumber":54,"Velocity":35,"Duration":98684,"SoundDuration":98684,"Delta":188334670},{"NoteNumber":58,"Velocity":35,"Duration":98684,"SoundDuration":98684,"Delta":188334670},{"NoteNumber":63,"Velocity":44,"Duration":49342,"SoundDuration":49342,"Delta":188433354},{"NoteNumber":63,"Velocity":44,"Duration":52083,"SoundDuration":52083,"Delta":188532038},{"NoteNumber":64,"Velocity":44,"Duration":52083,"SoundDuration":52083,"Delta":188636205},{"NoteNumber":60,"Velocity":47,"Duration":52083,"SoundDuration":52083,"Delta":188740372},{"NoteNumber":53,"Velocity":40,"Duration":104166,"SoundDuration":104166,"Delta":188740372},{"NoteNumber":57,"Velocity":40,"Duration":104166,"SoundDuration":104166,"Delta":188740372},{"NoteNumber":48,"Velocity":44,"Duration":52083,"SoundDuration":52083,"Delta":188844538},{"NoteNumber":48,"Velocity":44,"Duration":51369,"SoundDuration":51369,"Delta":188948705},{"NoteNumber":48,"Velocity":44,"Duration":51369,"SoundDuration":51369,"Delta":189051445},{"NoteNumber":60,"Velocity":44,"Duration":51369,"SoundDuration":51369,"Delta":189154185},{"NoteNumber":52,"Velocity":35,"Duration":102739,"SoundDuration":102739,"Delta":189154185},{"NoteNumber":56,"Velocity":35,"Duration":102739,"SoundDuration":102739,"Delta":189154185},{"NoteNumber":49,"Velocity":44,"Duration":51369,"SoundDuration":51369,"Delta":189256924},{"NoteNumber":42,"Velocity":46,"Duration":111940,"SoundDuration":111940,"Delta":189359664},{"NoteNumber":85,"Velocity":30,"Duration":52083,"SoundDuration":52083,"Delta":189471604},{"NoteNumber":69,"Velocity":27,"Duration":34722,"SoundDuration":34722,"Delta":189471604},{"NoteNumber":67,"Velocity":27,"Duration":34722,"SoundDuration":34722,"Delta":189471604},{"NoteNumber":64,"Velocity":27,"Duration":34722,"SoundDuration":34722,"Delta":189506327},{"NoteNumber":78,"Velocity":30,"Duration":52083,"SoundDuration":52083,"Delta":189523688},{"NoteNumber":61,"Velocity":27,"Duration":34722,"SoundDuration":34722,"Delta":189541049},{"NoteNumber":73,"Velocity":38,"Duration":102739,"SoundDuration":102739,"Delta":189575771},{"NoteNumber":58,"Velocity":31,"Duration":102739,"SoundDuration":102739,"Delta":189575771},{"NoteNumber":73,"Velocity":34,"Duration":102739,"SoundDuration":102739,"Delta":189678511},{"NoteNumber":61,"Velocity":34,"Duration":109890,"SoundDuration":109890,"Delta":189781251},{"NoteNumber":62,"Velocity":34,"Duration":104529,"SoundDuration":104529,"Delta":189891141},{"NoteNumber":69,"Velocity":28,"Duration":34843,"SoundDuration":34843,"Delta":189891141},{"NoteNumber":67,"Velocity":28,"Duration":34843,"SoundDuration":34843,"Delta":189891141},{"NoteNumber":66,"Velocity":28,"Duration":34843,"SoundDuration":34843,"Delta":189925984},{"NoteNumber":61,"Velocity":28,"Duration":34843,"SoundDuration":34843,"Delta":189960827},{"NoteNumber":73,"Velocity":37,"Duration":103806,"SoundDuration":103806,"Delta":189995670},{"NoteNumber":78,"Velocity":44,"Duration":103806,"SoundDuration":103806,"Delta":189995670},{"NoteNumber":58,"Velocity":33,"Duration":103806,"SoundDuration":103806,"Delta":189995670},{"NoteNumber":66,"Velocity":35,"Duration":103806,"SoundDuration":103806,"Delta":190099476},{"NoteNumber":66,"Velocity":35,"Duration":105263,"SoundDuration":105263,"Delta":190203283},{"NoteNumber":66,"Velocity":35,"Duration":101351,"SoundDuration":101351,"Delta":190308546},{"NoteNumber":67,"Velocity":28,"Duration":33783,"SoundDuration":33783,"Delta":190308546},{"NoteNumber":69,"Velocity":28,"Duration":33783,"SoundDuration":33783,"Delta":190308546},{"NoteNumber":66,"Velocity":28,"Duration":33783,"SoundDuration":33783,"Delta":190342330},{"NoteNumber":61,"Velocity":28,"Duration":33783,"SoundDuration":33783,"Delta":190376113},{"NoteNumber":73,"Velocity":34,"Duration":102739,"SoundDuration":102739,"Delta":190409897},{"NoteNumber":78,"Velocity":41,"Duration":102739,"SoundDuration":102739,"Delta":190409897},{"NoteNumber":58,"Velocity":32,"Duration":102739,"SoundDuration":102739,"Delta":190409897},{"NoteNumber":64,"Velocity":35,"Duration":102739,"SoundDuration":102739,"Delta":190512637},{"NoteNumber":62,"Velocity":44,"Duration":212080,"SoundDuration":212080,"Delta":190615377},{"NoteNumber":42,"Velocity":39,"Duration":107913,"SoundDuration":107913,"Delta":190615377},{"NoteNumber":85,"Velocity":30,"Duration":52083,"SoundDuration":52083,"Delta":190723290},{"NoteNumber":67,"Velocity":27,"Duration":34722,"SoundDuration":34722,"Delta":190723290},{"NoteNumber":69,"Velocity":27,"Duration":34722,"SoundDuration":34722,"Delta":190723290},{"NoteNumber":64,"Velocity":27,"Duration":34722,"SoundDuration":34722,"Delta":190758013},{"NoteNumber":78,"Velocity":30,"Duration":52083,"SoundDuration":52083,"Delta":190775374},{"NoteNumber":61,"Velocity":27,"Duration":34722,"SoundDuration":34722,"Delta":190792735},{"NoteNumber":73,"Velocity":44,"Duration":101695,"SoundDuration":101695,"Delta":190827457},{"NoteNumber":58,"Velocity":31,"Duration":101695,"SoundDuration":101695,"Delta":190827457},{"NoteNumber":73,"Velocity":35,"Duration":101695,"SoundDuration":101695,"Delta":190929152},{"NoteNumber":61,"Velocity":35,"Duration":107913,"SoundDuration":107913,"Delta":191030847},{"NoteNumber":62,"Velocity":35,"Duration":105263,"SoundDuration":105263,"Delta":191138761},{"NoteNumber":62,"Velocity":29,"Duration":52631,"SoundDuration":52631,"Delta":191138761},{"NoteNumber":55,"Velocity":29,"Duration":52631,"SoundDuration":52631,"Delta":191191393},{"NoteNumber":65,"Velocity":35,"Duration":104166,"SoundDuration":104166,"Delta":191244024},{"NoteNumber":67,"Velocity":35,"Duration":104166,"SoundDuration":104166,"Delta":191244024},{"NoteNumber":70,"Velocity":42,"Duration":104166,"SoundDuration":104166,"Delta":191244024},{"NoteNumber":54,"Velocity":35,"Duration":104166,"SoundDuration":104166,"Delta":191244024},{"NoteNumber":58,"Velocity":35,"Duration":104166,"SoundDuration":104166,"Delta":191348191},{"NoteNumber":58,"Velocity":35,"Duration":102739,"SoundDuration":102739,"Delta":191452358},{"NoteNumber":58,"Velocity":35,"Duration":102739,"SoundDuration":102739,"Delta":191555097},{"NoteNumber":62,"Velocity":29,"Duration":51369,"SoundDuration":51369,"Delta":191555097},{"NoteNumber":55,"Velocity":29,"Duration":51369,"SoundDuration":51369,"Delta":191606467},{"NoteNumber":65,"Velocity":29,"Duration":102739,"SoundDuration":102739,"Delta":191657837},{"NoteNumber":67,"Velocity":29,"Duration":102739,"SoundDuration":102739,"Delta":191657837},{"NoteNumber":70,"Velocity":35,"Duration":102739,"SoundDuration":102739,"Delta":191657837},{"NoteNumber":54,"Velocity":31,"Duration":102739,"SoundDuration":102739,"Delta":191657837},{"NoteNumber":59,"Velocity":32,"Duration":102739,"SoundDuration":102739,"Delta":191760577},{"NoteNumber":35,"Velocity":20,"Duration":204778,"SoundDuration":204778,"Delta":191863317},{"NoteNumber":42,"Velocity":21,"Duration":102389,"SoundDuration":102389,"Delta":191965706},{"NoteNumber":82,"Velocity":40,"Duration":50504,"SoundDuration":50504,"Delta":192068095},{"NoteNumber":86,"Velocity":40,"Duration":50504,"SoundDuration":50504,"Delta":192068095},{"NoteNumber":94,"Velocity":50,"Duration":50504,"SoundDuration":50504,"Delta":192068095},{"NoteNumber":47,"Velocity":22,"Duration":101010,"SoundDuration":101010,"Delta":192068095},{"NoteNumber":82,"Velocity":53,"Duration":50504,"SoundDuration":50504,"Delta":192169105},{"NoteNumber":50,"Velocity":22,"Duration":101010,"SoundDuration":101010,"Delta":192169105},{"NoteNumber":82,"Velocity":53,"Duration":50504,"SoundDuration":50504,"Delta":192270115},{"NoteNumber":54,"Velocity":23,"Duration":101010,"SoundDuration":101010,"Delta":192270115},{"NoteNumber":79,"Velocity":50,"Duration":54347,"SoundDuration":54347,"Delta":192371125},{"NoteNumber":59,"Velocity":24,"Duration":108695,"SoundDuration":108695,"Delta":192371125},{"NoteNumber":94,"Velocity":48,"Duration":104529,"SoundDuration":104529,"Delta":192479820},{"NoteNumber":86,"Velocity":38,"Duration":104529,"SoundDuration":104529,"Delta":192479820},{"NoteNumber":82,"Velocity":38,"Duration":104529,"SoundDuration":104529,"Delta":192479820},{"NoteNumber":62,"Velocity":25,"Duration":104529,"SoundDuration":104529,"Delta":192479820},{"NoteNumber":66,"Velocity":27,"Duration":104529,"SoundDuration":104529,"Delta":192584350},{"NoteNumber":71,"Velocity":30,"Duration":103448,"SoundDuration":103448,"Delta":192688879},{"NoteNumber":74,"Velocity":30,"Duration":103448,"SoundDuration":103448,"Delta":192792328},{"NoteNumber":71,"Velocity":30,"Duration":103448,"SoundDuration":103448,"Delta":192895776},{"NoteNumber":66,"Velocity":29,"Duration":103448,"SoundDuration":103448,"Delta":192999224},{"NoteNumber":62,"Velocity":28,"Duration":103211,"SoundDuration":103211,"Delta":193102672},{"NoteNumber":59,"Velocity":28,"Duration":103686,"SoundDuration":103686,"Delta":193205884},{"NoteNumber":54,"Velocity":27,"Duration":104348,"SoundDuration":104348,"Delta":193309571},{"NoteNumber":50,"Velocity":26,"Duration":104895,"SoundDuration":104895,"Delta":193413919},{"NoteNumber":47,"Velocity":25,"Duration":105448,"SoundDuration":105448,"Delta":193518814},{"NoteNumber":42,"Velocity":25,"Duration":106007,"SoundDuration":106007,"Delta":193624263},{"NoteNumber":62,"Velocity":36,"Duration":447817,"SoundDuration":447817,"Delta":193730270},{"NoteNumber":68,"Velocity":46,"Duration":226415,"SoundDuration":226415,"Delta":193730270},{"NoteNumber":56,"Velocity":39,"Duration":226415,"SoundDuration":226415,"Delta":193730270},{"NoteNumber":35,"Velocity":19,"Duration":337116,"SoundDuration":337116,"Delta":193730270},{"NoteNumber":50,"Velocity":21,"Duration":113207,"SoundDuration":113207,"Delta":193843477},{"NoteNumber":70,"Velocity":46,"Duration":221402,"SoundDuration":221402,"Delta":193956685},{"NoteNumber":58,"Velocity":39,"Duration":221402,"SoundDuration":221402,"Delta":193956685},{"NoteNumber":42,"Velocity":24,"Duration":110701,"SoundDuration":110701,"Delta":193956685},{"NoteNumber":30,"Velocity":21,"Duration":336264,"SoundDuration":336264,"Delta":194067386},{"NoteNumber":62,"Velocity":36,"Duration":225563,"SoundDuration":225563,"Delta":194178087},{"NoteNumber":65,"Velocity":43,"Duration":225563,"SoundDuration":225563,"Delta":194178087},{"NoteNumber":53,"Velocity":36,"Duration":225563,"SoundDuration":225563,"Delta":194178087},{"NoteNumber":47,"Velocity":24,"Duration":112782,"SoundDuration":112782,"Delta":194178087},{"NoteNumber":38,"Velocity":20,"Duration":112781,"SoundDuration":112781,"Delta":194290869},{"NoteNumber":35,"Velocity":20,"Duration":210526,"SoundDuration":210526,"Delta":194403651},{"NoteNumber":42,"Velocity":21,"Duration":105263,"SoundDuration":105263,"Delta":194508914},{"NoteNumber":70,"Velocity":40,"Duration":51194,"SoundDuration":51194,"Delta":194614177},{"NoteNumber":74,"Velocity":40,"Duration":51194,"SoundDuration":51194,"Delta":194614177},{"NoteNumber":82,"Velocity":50,"Duration":51194,"SoundDuration":51194,"Delta":194614177},{"NoteNumber":47,"Velocity":22,"Duration":102388,"SoundDuration":102388,"Delta":194614177},{"NoteNumber":70,"Velocity":48,"Duration":51194,"SoundDuration":51194,"Delta":194716566},{"NoteNumber":50,"Velocity":22,"Duration":102389,"SoundDuration":102389,"Delta":194716566},{"NoteNumber":70,"Velocity":48,"Duration":51546,"SoundDuration":51546,"Delta":194818955},{"NoteNumber":54,"Velocity":23,"Duration":103092,"SoundDuration":103092,"Delta":194818955},{"NoteNumber":67,"Velocity":46,"Duration":54347,"SoundDuration":54347,"Delta":194922048},{"NoteNumber":59,"Velocity":24,"Duration":108695,"SoundDuration":108695,"Delta":194922048},{"NoteNumber":82,"Velocity":48,"Duration":104529,"SoundDuration":104529,"Delta":195030744},{"NoteNumber":74,"Velocity":38,"Duration":104529,"SoundDuration":104529,"Delta":195030744},{"NoteNumber":70,"Velocity":38,"Duration":104529,"SoundDuration":104529,"Delta":195030744},{"NoteNumber":62,"Velocity":25,"Duration":104529,"SoundDuration":104529,"Delta":195030744},{"NoteNumber":66,"Velocity":27,"Duration":104529,"SoundDuration":104529,"Delta":195135273},{"NoteNumber":71,"Velocity":30,"Duration":103448,"SoundDuration":103448,"Delta":195239803},{"NoteNumber":74,"Velocity":30,"Duration":103448,"SoundDuration":103448,"Delta":195343251},{"NoteNumber":71,"Velocity":30,"Duration":103448,"SoundDuration":103448,"Delta":195446699},{"NoteNumber":66,"Velocity":29,"Duration":103448,"SoundDuration":103448,"Delta":195550147},{"NoteNumber":62,"Velocity":28,"Duration":103211,"SoundDuration":103211,"Delta":195653596},{"NoteNumber":59,"Velocity":28,"Duration":103686,"SoundDuration":103686,"Delta":195756807},{"NoteNumber":54,"Velocity":27,"Duration":104348,"SoundDuration":104348,"Delta":195860494},{"NoteNumber":50,"Velocity":26,"Duration":104895,"SoundDuration":104895,"Delta":195964842},{"NoteNumber":47,"Velocity":25,"Duration":105448,"SoundDuration":105448,"Delta":196069737},{"NoteNumber":42,"Velocity":25,"Duration":106007,"SoundDuration":106007,"Delta":196175186},{"NoteNumber":50,"Velocity":32,"Duration":447002,"SoundDuration":447002,"Delta":196281193},{"NoteNumber":56,"Velocity":41,"Duration":226415,"SoundDuration":226415,"Delta":196281193},{"NoteNumber":44,"Velocity":35,"Duration":226415,"SoundDuration":226415,"Delta":196281193},{"NoteNumber":35,"Velocity":19,"Duration":336709,"SoundDuration":336709,"Delta":196281193},{"NoteNumber":50,"Velocity":21,"Duration":113207,"SoundDuration":113207,"Delta":196394400},{"NoteNumber":58,"Velocity":41,"Duration":220587,"SoundDuration":220587,"Delta":196507608},{"NoteNumber":46,"Velocity":35,"Duration":220587,"SoundDuration":220587,"Delta":196507608},{"NoteNumber":42,"Velocity":24,"Duration":110294,"SoundDuration":110294,"Delta":196507608},{"NoteNumber":30,"Velocity":21,"Duration":335857,"SoundDuration":335857,"Delta":196617902},{"NoteNumber":50,"Velocity":32,"Duration":225563,"SoundDuration":225563,"Delta":196728196},{"NoteNumber":53,"Velocity":38,"Duration":225563,"SoundDuration":225563,"Delta":196728196},{"NoteNumber":41,"Velocity":32,"Duration":225563,"SoundDuration":225563,"Delta":196728196},{"NoteNumber":47,"Velocity":24,"Duration":112782,"SoundDuration":112782,"Delta":196728196},{"NoteNumber":38,"Velocity":20,"Duration":112781,"SoundDuration":112781,"Delta":196840978},{"NoteNumber":23,"Velocity":23,"Duration":112782,"SoundDuration":112782,"Delta":196953760},{"NoteNumber":74,"Velocity":45,"Duration":56390,"SoundDuration":56390,"Delta":197066542},{"NoteNumber":86,"Velocity":50,"Duration":56390,"SoundDuration":56390,"Delta":197066542},{"NoteNumber":83,"Velocity":48,"Duration":56390,"SoundDuration":56390,"Delta":197066542},{"NoteNumber":35,"Velocity":25,"Duration":112782,"SoundDuration":112782,"Delta":197066542},{"NoteNumber":88,"Velocity":50,"Duration":113066,"SoundDuration":113066,"Delta":197179324},{"NoteNumber":85,"Velocity":48,"Duration":113066,"SoundDuration":113066,"Delta":197179324},{"NoteNumber":76,"Velocity":45,"Duration":113066,"SoundDuration":113066,"Delta":197179324},{"NoteNumber":41,"Velocity":28,"Duration":90353,"SoundDuration":90353,"Delta":197179324},{"NoteNumber":43,"Velocity":30,"Duration":91125,"SoundDuration":91125,"Delta":197269677},{"NoteNumber":50,"Velocity":32,"Duration":91954,"SoundDuration":91954,"Delta":197360803},{"NoteNumber":43,"Velocity":30,"Duration":92799,"SoundDuration":92799,"Delta":197452757},{"NoteNumber":41,"Velocity":26,"Duration":93689,"SoundDuration":93689,"Delta":197545557},{"NoteNumber":35,"Velocity":51,"Duration":106007,"SoundDuration":106007,"Delta":197639246},{"NoteNumber":50,"Velocity":34,"Duration":51369,"SoundDuration":51369,"Delta":197851260},{"NoteNumber":59,"Velocity":31,"Duration":102739,"SoundDuration":102739,"Delta":197851260},{"NoteNumber":55,"Velocity":31,"Duration":102739,"SoundDuration":102739,"Delta":197851260},{"NoteNumber":50,"Velocity":34,"Duration":51369,"SoundDuration":51369,"Delta":197954000},{"NoteNumber":50,"Velocity":34,"Duration":51903,"SoundDuration":51903,"Delta":198056740},{"NoteNumber":51,"Velocity":34,"Duration":51903,"SoundDuration":51903,"Delta":198160546},{"NoteNumber":53,"Velocity":37,"Duration":51903,"SoundDuration":51903,"Delta":198264352},{"NoteNumber":54,"Velocity":32,"Duration":103806,"SoundDuration":103806,"Delta":198264352},{"NoteNumber":58,"Velocity":32,"Duration":103806,"SoundDuration":103806,"Delta":198264352},{"NoteNumber":53,"Velocity":35,"Duration":51903,"SoundDuration":51903,"Delta":198368159},{"NoteNumber":53,"Velocity":35,"Duration":48701,"SoundDuration":48701,"Delta":198471965},{"NoteNumber":53,"Velocity":35,"Duration":48701,"SoundDuration":48701,"Delta":198569367},{"NoteNumber":53,"Velocity":35,"Duration":51369,"SoundDuration":51369,"Delta":198666770},{"NoteNumber":58,"Velocity":32,"Duration":102739,"SoundDuration":102739,"Delta":198666770},{"NoteNumber":54,"Velocity":32,"Duration":102739,"SoundDuration":102739,"Delta":198666770},{"NoteNumber":51,"Velocity":35,"Duration":51369,"SoundDuration":51369,"Delta":198769510},{"NoteNumber":35,"Velocity":48,"Duration":104166,"SoundDuration":104166,"Delta":198872249},{"NoteNumber":50,"Velocity":35,"Duration":49180,"SoundDuration":49180,"Delta":199080583},{"NoteNumber":53,"Velocity":31,"Duration":98360,"SoundDuration":98360,"Delta":199080583},{"NoteNumber":57,"Velocity":31,"Duration":98360,"SoundDuration":98360,"Delta":199080583},{"NoteNumber":50,"Velocity":35,"Duration":49180,"SoundDuration":49180,"Delta":199178944},{"NoteNumber":50,"Velocity":35,"Duration":52083,"SoundDuration":52083,"Delta":199277304},{"NoteNumber":51,"Velocity":35,"Duration":52083,"SoundDuration":52083,"Delta":199381471},{"NoteNumber":47,"Velocity":38,"Duration":52083,"SoundDuration":52083,"Delta":199485638},{"NoteNumber":52,"Velocity":35,"Duration":104166,"SoundDuration":104166,"Delta":199485638},{"NoteNumber":56,"Velocity":35,"Duration":104166,"SoundDuration":104166,"Delta":199485638},{"NoteNumber":47,"Velocity":35,"Duration":52083,"SoundDuration":52083,"Delta":199589805},{"NoteNumber":47,"Velocity":35,"Duration":51369,"SoundDuration":51369,"Delta":199693971},{"NoteNumber":47,"Velocity":35,"Duration":51369,"SoundDuration":51369,"Delta":199796711},{"NoteNumber":47,"Velocity":35,"Duration":51369,"SoundDuration":51369,"Delta":199899451},{"NoteNumber":51,"Velocity":31,"Duration":102739,"SoundDuration":102739,"Delta":199899451},{"NoteNumber":55,"Velocity":31,"Duration":102739,"SoundDuration":102739,"Delta":199899451},{"NoteNumber":48,"Velocity":35,"Duration":51369,"SoundDuration":51369,"Delta":200002191},{"NoteNumber":35,"Velocity":51,"Duration":106007,"SoundDuration":106007,"Delta":200104930},{"NoteNumber":62,"Velocity":36,"Duration":51369,"SoundDuration":51369,"Delta":200316944},{"NoteNumber":71,"Velocity":31,"Duration":102739,"SoundDuration":102739,"Delta":200316944},{"NoteNumber":67,"Velocity":31,"Duration":102739,"SoundDuration":102739,"Delta":200316944},{"NoteNumber":50,"Velocity":34,"Duration":51369,"SoundDuration":51369,"Delta":200419684},{"NoteNumber":50,"Velocity":34,"Duration":51903,"SoundDuration":51903,"Delta":200522424},{"NoteNumber":51,"Velocity":34,"Duration":51903,"SoundDuration":51903,"Delta":200626230},{"NoteNumber":58,"Velocity":37,"Duration":51903,"SoundDuration":51903,"Delta":200730036},{"NoteNumber":65,"Velocity":40,"Duration":51903,"SoundDuration":51903,"Delta":200730036},{"NoteNumber":66,"Velocity":32,"Duration":103806,"SoundDuration":103806,"Delta":200730036},{"NoteNumber":70,"Velocity":32,"Duration":103806,"SoundDuration":103806,"Delta":200730036},{"NoteNumber":53,"Velocity":35,"Duration":51903,"SoundDuration":51903,"Delta":200833843},{"NoteNumber":53,"Velocity":35,"Duration":48701,"SoundDuration":48701,"Delta":200937649},{"NoteNumber":53,"Velocity":35,"Duration":48701,"SoundDuration":48701,"Delta":201035051},{"NoteNumber":58,"Velocity":35,"Duration":51369,"SoundDuration":51369,"Delta":201132454},{"NoteNumber":65,"Velocity":35,"Duration":51369,"SoundDuration":51369,"Delta":201132454},{"NoteNumber":70,"Velocity":32,"Duration":102739,"SoundDuration":102739,"Delta":201132454},{"NoteNumber":66,"Velocity":32,"Duration":102739,"SoundDuration":102739,"Delta":201132454},{"NoteNumber":51,"Velocity":35,"Duration":51369,"SoundDuration":51369,"Delta":201235194},{"NoteNumber":35,"Velocity":48,"Duration":104166,"SoundDuration":104166,"Delta":201337933},{"NoteNumber":57,"Velocity":35,"Duration":49180,"SoundDuration":49180,"Delta":201546267},{"NoteNumber":62,"Velocity":38,"Duration":49180,"SoundDuration":49180,"Delta":201546267},{"NoteNumber":65,"Velocity":31,"Duration":98360,"SoundDuration":98360,"Delta":201546267},{"NoteNumber":69,"Velocity":31,"Duration":98360,"SoundDuration":98360,"Delta":201546267},{"NoteNumber":50,"Velocity":35,"Duration":49180,"SoundDuration":49180,"Delta":201644628},{"NoteNumber":50,"Velocity":35,"Duration":52083,"SoundDuration":52083,"Delta":201742988},{"NoteNumber":51,"Velocity":35,"Duration":52083,"SoundDuration":52083,"Delta":201847155},{"NoteNumber":56,"Velocity":36,"Duration":52083,"SoundDuration":52083,"Delta":201951322},{"NoteNumber":59,"Velocity":41,"Duration":52083,"SoundDuration":52083,"Delta":201951322},{"NoteNumber":64,"Velocity":35,"Duration":104166,"SoundDuration":104166,"Delta":201951322},{"NoteNumber":68,"Velocity":35,"Duration":104166,"SoundDuration":104166,"Delta":201951322},{"NoteNumber":47,"Velocity":35,"Duration":52083,"SoundDuration":52083,"Delta":202055489},{"NoteNumber":47,"Velocity":35,"Duration":51369,"SoundDuration":51369,"Delta":202159655},{"NoteNumber":47,"Velocity":35,"Duration":51369,"SoundDuration":51369,"Delta":202262395},{"NoteNumber":55,"Velocity":33,"Duration":51369,"SoundDuration":51369,"Delta":202365135},{"NoteNumber":59,"Velocity":37,"Duration":51369,"SoundDuration":51369,"Delta":202365135},{"NoteNumber":63,"Velocity":31,"Duration":102739,"SoundDuration":102739,"Delta":202365135},{"NoteNumber":67,"Velocity":31,"Duration":102739,"SoundDuration":102739,"Delta":202365135},{"NoteNumber":48,"Velocity":35,"Duration":51369,"SoundDuration":51369,"Delta":202467875},{"NoteNumber":35,"Velocity":48,"Duration":102739,"SoundDuration":102739,"Delta":202570614},{"NoteNumber":74,"Velocity":49,"Duration":51194,"SoundDuration":51194,"Delta":202776094},{"NoteNumber":71,"Velocity":41,"Duration":51194,"SoundDuration":51194,"Delta":202776094},{"NoteNumber":62,"Velocity":41,"Duration":51194,"SoundDuration":51194,"Delta":202776094},{"NoteNumber":67,"Velocity":41,"Duration":51194,"SoundDuration":51194,"Delta":202776094},{"NoteNumber":75,"Velocity":50,"Duration":51136,"SoundDuration":51136,"Delta":202878483},{"NoteNumber":70,"Velocity":42,"Duration":51136,"SoundDuration":51136,"Delta":202878483},{"NoteNumber":78,"Velocity":51,"Duration":51020,"SoundDuration":51020,"Delta":202980640},{"NoteNumber":73,"Velocity":43,"Duration":51020,"SoundDuration":51020,"Delta":202980640},{"NoteNumber":70,"Velocity":41,"Duration":50847,"SoundDuration":50847,"Delta":203082565},{"NoteNumber":75,"Velocity":49,"Duration":50847,"SoundDuration":50847,"Delta":203082565},{"NoteNumber":74,"Velocity":53,"Duration":50675,"SoundDuration":50675,"Delta":203184260},{"NoteNumber":71,"Velocity":45,"Duration":50675,"SoundDuration":50675,"Delta":203184260},{"NoteNumber":67,"Velocity":45,"Duration":50675,"SoundDuration":50675,"Delta":203184260},{"NoteNumber":62,"Velocity":45,"Duration":50675,"SoundDuration":50675,"Delta":203184260},{"NoteNumber":70,"Velocity":45,"Duration":50675,"SoundDuration":50675,"Delta":203285612},{"NoteNumber":75,"Velocity":54,"Duration":50675,"SoundDuration":50675,"Delta":203285612},{"NoteNumber":73,"Velocity":46,"Duration":50675,"SoundDuration":50675,"Delta":203386963},{"NoteNumber":78,"Velocity":55,"Duration":50675,"SoundDuration":50675,"Delta":203386963},{"NoteNumber":71,"Velocity":47,"Duration":50675,"SoundDuration":50675,"Delta":203488314},{"NoteNumber":74,"Velocity":47,"Duration":50675,"SoundDuration":50675,"Delta":203488314},{"NoteNumber":79,"Velocity":56,"Duration":50675,"SoundDuration":50675,"Delta":203488314},{"NoteNumber":82,"Velocity":57,"Duration":50675,"SoundDuration":50675,"Delta":203589665},{"NoteNumber":75,"Velocity":48,"Duration":50675,"SoundDuration":50675,"Delta":203589665},{"NoteNumber":78,"Velocity":49,"Duration":50675,"SoundDuration":50675,"Delta":203691017},{"NoteNumber":83,"Velocity":58,"Duration":50675,"SoundDuration":50675,"Delta":203691017},{"NoteNumber":89,"Velocity":60,"Duration":50335,"SoundDuration":50335,"Delta":203792141},{"NoteNumber":82,"Velocity":51,"Duration":50335,"SoundDuration":50335,"Delta":203792141},{"NoteNumber":74,"Velocity":51,"Duration":201174,"SoundDuration":201174,"Delta":203792141},{"NoteNumber":79,"Velocity":60,"Duration":201174,"SoundDuration":201174,"Delta":203792141},{"NoteNumber":87,"Velocity":60,"Duration":50335,"SoundDuration":50335,"Delta":203892812},{"NoteNumber":78,"Velocity":51,"Duration":50335,"SoundDuration":50335,"Delta":203892812},{"NoteNumber":86,"Velocity":61,"Duration":50167,"SoundDuration":50167,"Delta":203993315},{"NoteNumber":83,"Velocity":51,"Duration":50167,"SoundDuration":50167,"Delta":203993315},{"NoteNumber":79,"Velocity":51,"Duration":50167,"SoundDuration":50167,"Delta":203993315},{"NoteNumber":87,"Velocity":62,"Duration":50111,"SoundDuration":50111,"Delta":204093650},{"NoteNumber":82,"Velocity":52,"Duration":50111,"SoundDuration":50111,"Delta":204093650},{"NoteNumber":90,"Velocity":63,"Duration":50000,"SoundDuration":50000,"Delta":204193761},{"NoteNumber":84,"Velocity":53,"Duration":50000,"SoundDuration":50000,"Delta":204193761},{"NoteNumber":87,"Velocity":64,"Duration":49833,"SoundDuration":49833,"Delta":204293761},{"NoteNumber":82,"Velocity":54,"Duration":49833,"SoundDuration":49833,"Delta":204293761},{"NoteNumber":86,"Velocity":65,"Duration":49833,"SoundDuration":49833,"Delta":204393429},{"NoteNumber":83,"Velocity":55,"Duration":49833,"SoundDuration":49833,"Delta":204393429},{"NoteNumber":79,"Velocity":55,"Duration":49833,"SoundDuration":49833,"Delta":204393429},{"NoteNumber":74,"Velocity":55,"Duration":49833,"SoundDuration":49833,"Delta":204393429},{"NoteNumber":87,"Velocity":68,"Duration":49668,"SoundDuration":49668,"Delta":204493042},{"NoteNumber":82,"Velocity":57,"Duration":49668,"SoundDuration":49668,"Delta":204493042},{"NoteNumber":90,"Velocity":73,"Duration":49668,"SoundDuration":49668,"Delta":204592379},{"NoteNumber":85,"Velocity":62,"Duration":49668,"SoundDuration":49668,"Delta":204592379},{"NoteNumber":91,"Velocity":73,"Duration":49504,"SoundDuration":49504,"Delta":204691553},{"NoteNumber":86,"Velocity":62,"Duration":49504,"SoundDuration":49504,"Delta":204691553},{"NoteNumber":83,"Velocity":62,"Duration":49504,"SoundDuration":49504,"Delta":204691553},{"NoteNumber":94,"Velocity":75,"Duration":49450,"SoundDuration":49450,"Delta":204790563},{"NoteNumber":87,"Velocity":63,"Duration":49450,"SoundDuration":49450,"Delta":204790563},{"NoteNumber":95,"Velocity":77,"Duration":49342,"SoundDuration":49342,"Delta":204889356},{"NoteNumber":90,"Velocity":65,"Duration":49342,"SoundDuration":49342,"Delta":204889356},{"NoteNumber":100,"Velocity":78,"Duration":65573,"SoundDuration":65573,"Delta":204987987},{"NoteNumber":95,"Velocity":66,"Duration":65573,"SoundDuration":65573,"Delta":204987987},{"NoteNumber":92,"Velocity":76,"Duration":65681,"SoundDuration":65681,"Delta":205053560},{"NoteNumber":88,"Velocity":75,"Duration":65789,"SoundDuration":65789,"Delta":205119242},{"NoteNumber":86,"Velocity":63,"Duration":65789,"SoundDuration":65789,"Delta":205119242},{"NoteNumber":83,"Velocity":69,"Duration":66006,"SoundDuration":66006,"Delta":205185032},{"NoteNumber":76,"Velocity":68,"Duration":66115,"SoundDuration":66115,"Delta":205251038},{"NoteNumber":83,"Velocity":60,"Duration":49668,"SoundDuration":49668,"Delta":205284042},{"NoteNumber":80,"Velocity":50,"Duration":49668,"SoundDuration":49668,"Delta":205284042},{"NoteNumber":71,"Velocity":67,"Duration":66225,"SoundDuration":66225,"Delta":205317154},{"NoteNumber":85,"Velocity":58,"Duration":99667,"SoundDuration":99667,"Delta":205383379},{"NoteNumber":82,"Velocity":49,"Duration":99667,"SoundDuration":99667,"Delta":205383379},{"NoteNumber":73,"Velocity":49,"Duration":99667,"SoundDuration":99667,"Delta":205383379},{"NoteNumber":74,"Velocity":56,"Duration":66445,"SoundDuration":66445,"Delta":205383379},{"NoteNumber":76,"Velocity":66,"Duration":66445,"SoundDuration":66445,"Delta":205383379},{"NoteNumber":71,"Velocity":65,"Duration":66555,"SoundDuration":66555,"Delta":205449824},{"NoteNumber":59,"Velocity":64,"Duration":66666,"SoundDuration":66666,"Delta":205516380},{"NoteNumber":74,"Velocity":59,"Duration":66889,"SoundDuration":66889,"Delta":205583047},{"NoteNumber":76,"Velocity":70,"Duration":66889,"SoundDuration":66889,"Delta":205583047},{"NoteNumber":71,"Velocity":69,"Duration":67001,"SoundDuration":67001,"Delta":205649937},{"NoteNumber":62,"Velocity":56,"Duration":67114,"SoundDuration":67114,"Delta":205716939},{"NoteNumber":64,"Velocity":67,"Duration":67114,"SoundDuration":67114,"Delta":205716939},{"NoteNumber":64,"Velocity":59,"Duration":67340,"SoundDuration":67340,"Delta":205784053},{"NoteNumber":62,"Velocity":50,"Duration":67340,"SoundDuration":67340,"Delta":205784053},{"NoteNumber":56,"Velocity":57,"Duration":67453,"SoundDuration":67453,"Delta":205851393},{"NoteNumber":52,"Velocity":56,"Duration":67567,"SoundDuration":67567,"Delta":205918847},{"NoteNumber":56,"Velocity":59,"Duration":67796,"SoundDuration":67796,"Delta":205986414},{"NoteNumber":52,"Velocity":57,"Duration":67911,"SoundDuration":67911,"Delta":206054211},{"NoteNumber":44,"Velocity":56,"Duration":68027,"SoundDuration":68027,"Delta":206122123},{"NoteNumber":32,"Velocity":51,"Duration":106007,"SoundDuration":106007,"Delta":206190150},{"NoteNumber":59,"Velocity":34,"Duration":51369,"SoundDuration":51369,"Delta":206402164},{"NoteNumber":68,"Velocity":31,"Duration":102739,"SoundDuration":102739,"Delta":206402164},{"NoteNumber":64,"Velocity":31,"Duration":102739,"SoundDuration":102739,"Delta":206402164},{"NoteNumber":59,"Velocity":34,"Duration":51369,"SoundDuration":51369,"Delta":206504904},{"NoteNumber":59,"Velocity":34,"Duration":51903,"SoundDuration":51903,"Delta":206607643},{"NoteNumber":60,"Velocity":34,"Duration":51903,"SoundDuration":51903,"Delta":206711450},{"NoteNumber":62,"Velocity":37,"Duration":51903,"SoundDuration":51903,"Delta":206815256},{"NoteNumber":63,"Velocity":32,"Duration":103806,"SoundDuration":103806,"Delta":206815256},{"NoteNumber":67,"Velocity":32,"Duration":103806,"SoundDuration":103806,"Delta":206815256},{"NoteNumber":62,"Velocity":35,"Duration":51903,"SoundDuration":51903,"Delta":206919062},{"NoteNumber":62,"Velocity":35,"Duration":48701,"SoundDuration":48701,"Delta":207022868},{"NoteNumber":62,"Velocity":35,"Duration":48701,"SoundDuration":48701,"Delta":207120271},{"NoteNumber":62,"Velocity":35,"Duration":51369,"SoundDuration":51369,"Delta":207217673},{"NoteNumber":67,"Velocity":32,"Duration":102739,"SoundDuration":102739,"Delta":207217673},{"NoteNumber":63,"Velocity":32,"Duration":102739,"SoundDuration":102739,"Delta":207217673},{"NoteNumber":60,"Velocity":35,"Duration":51369,"SoundDuration":51369,"Delta":207320413},{"NoteNumber":44,"Velocity":48,"Duration":104166,"SoundDuration":104166,"Delta":207423153},{"NoteNumber":59,"Velocity":35,"Duration":49180,"SoundDuration":49180,"Delta":207631486},{"NoteNumber":62,"Velocity":31,"Duration":98360,"SoundDuration":98360,"Delta":207631486},{"NoteNumber":66,"Velocity":31,"Duration":98360,"SoundDuration":98360,"Delta":207631486},{"NoteNumber":59,"Velocity":35,"Duration":49180,"SoundDuration":49180,"Delta":207729847},{"NoteNumber":59,"Velocity":35,"Duration":52083,"SoundDuration":52083,"Delta":207828208},{"NoteNumber":60,"Velocity":35,"Duration":52083,"SoundDuration":52083,"Delta":207932375},{"NoteNumber":56,"Velocity":38,"Duration":52083,"SoundDuration":52083,"Delta":208036541},{"NoteNumber":61,"Velocity":35,"Duration":104166,"SoundDuration":104166,"Delta":208036541},{"NoteNumber":65,"Velocity":35,"Duration":104166,"SoundDuration":104166,"Delta":208036541},{"NoteNumber":56,"Velocity":35,"Duration":52083,"SoundDuration":52083,"Delta":208140708},{"NoteNumber":56,"Velocity":35,"Duration":51369,"SoundDuration":51369,"Delta":208244875},{"NoteNumber":56,"Velocity":35,"Duration":51369,"SoundDuration":51369,"Delta":208347615},{"NoteNumber":56,"Velocity":35,"Duration":51369,"SoundDuration":51369,"Delta":208450354},{"NoteNumber":60,"Velocity":31,"Duration":102739,"SoundDuration":102739,"Delta":208450354},{"NoteNumber":64,"Velocity":31,"Duration":102739,"SoundDuration":102739,"Delta":208450354},{"NoteNumber":57,"Velocity":35,"Duration":51369,"SoundDuration":51369,"Delta":208553094},{"NoteNumber":44,"Velocity":51,"Duration":106007,"SoundDuration":106007,"Delta":208655834},{"NoteNumber":68,"Velocity":32,"Duration":51369,"SoundDuration":51369,"Delta":208867848},{"NoteNumber":71,"Velocity":36,"Duration":51369,"SoundDuration":51369,"Delta":208867848},{"NoteNumber":80,"Velocity":31,"Duration":102739,"SoundDuration":102739,"Delta":208867848},{"NoteNumber":76,"Velocity":31,"Duration":102739,"SoundDuration":102739,"Delta":208867848},{"NoteNumber":59,"Velocity":34,"Duration":51369,"SoundDuration":51369,"Delta":208970588},{"NoteNumber":59,"Velocity":34,"Duration":51903,"SoundDuration":51903,"Delta":209073327},{"NoteNumber":60,"Velocity":34,"Duration":51903,"SoundDuration":51903,"Delta":209177134},{"NoteNumber":67,"Velocity":37,"Duration":51903,"SoundDuration":51903,"Delta":209280940},{"NoteNumber":74,"Velocity":40,"Duration":51903,"SoundDuration":51903,"Delta":209280940},{"NoteNumber":75,"Velocity":32,"Duration":103806,"SoundDuration":103806,"Delta":209280940},{"NoteNumber":79,"Velocity":32,"Duration":103806,"SoundDuration":103806,"Delta":209280940},{"NoteNumber":62,"Velocity":35,"Duration":51903,"SoundDuration":51903,"Delta":209384746},{"NoteNumber":62,"Velocity":35,"Duration":48701,"SoundDuration":48701,"Delta":209488552},{"NoteNumber":62,"Velocity":35,"Duration":48701,"SoundDuration":48701,"Delta":209585955},{"NoteNumber":67,"Velocity":35,"Duration":51369,"SoundDuration":51369,"Delta":209683357},{"NoteNumber":74,"Velocity":35,"Duration":51369,"SoundDuration":51369,"Delta":209683357},{"NoteNumber":79,"Velocity":32,"Duration":102739,"SoundDuration":102739,"Delta":209683357},{"NoteNumber":75,"Velocity":32,"Duration":102739,"SoundDuration":102739,"Delta":209683357},{"NoteNumber":60,"Velocity":35,"Duration":51369,"SoundDuration":51369,"Delta":209786097},{"NoteNumber":44,"Velocity":48,"Duration":104166,"SoundDuration":104166,"Delta":209888837},{"NoteNumber":66,"Velocity":35,"Duration":49180,"SoundDuration":49180,"Delta":210097170},{"NoteNumber":71,"Velocity":38,"Duration":49180,"SoundDuration":49180,"Delta":210097170},{"NoteNumber":74,"Velocity":31,"Duration":98360,"SoundDuration":98360,"Delta":210097170},{"NoteNumber":78,"Velocity":31,"Duration":98360,"SoundDuration":98360,"Delta":210097170},{"NoteNumber":59,"Velocity":35,"Duration":49180,"SoundDuration":49180,"Delta":210195531},{"NoteNumber":59,"Velocity":35,"Duration":52083,"SoundDuration":52083,"Delta":210293892},{"NoteNumber":60,"Velocity":35,"Duration":52083,"SoundDuration":52083,"Delta":210398059},{"NoteNumber":65,"Velocity":36,"Duration":52083,"SoundDuration":52083,"Delta":210502225},{"NoteNumber":68,"Velocity":41,"Duration":52083,"SoundDuration":52083,"Delta":210502225},{"NoteNumber":73,"Velocity":35,"Duration":104166,"SoundDuration":104166,"Delta":210502225},{"NoteNumber":77,"Velocity":35,"Duration":104166,"SoundDuration":104166,"Delta":210502225},{"NoteNumber":56,"Velocity":35,"Duration":52083,"SoundDuration":52083,"Delta":210606392},{"NoteNumber":56,"Velocity":35,"Duration":51369,"SoundDuration":51369,"Delta":210710559},{"NoteNumber":56,"Velocity":35,"Duration":51369,"SoundDuration":51369,"Delta":210813299},{"NoteNumber":64,"Velocity":33,"Duration":51369,"SoundDuration":51369,"Delta":210916038},{"NoteNumber":67,"Velocity":37,"Duration":51369,"SoundDuration":51369,"Delta":210916038},{"NoteNumber":72,"Velocity":31,"Duration":102739,"SoundDuration":102739,"Delta":210916038},{"NoteNumber":76,"Velocity":31,"Duration":102739,"SoundDuration":102739,"Delta":210916038},{"NoteNumber":57,"Velocity":35,"Duration":51369,"SoundDuration":51369,"Delta":211018778},{"NoteNumber":44,"Velocity":48,"Duration":102739,"SoundDuration":102739,"Delta":211121518},{"NoteNumber":71,"Velocity":49,"Duration":51194,"SoundDuration":51194,"Delta":211326997},{"NoteNumber":68,"Velocity":41,"Duration":51194,"SoundDuration":51194,"Delta":211326997},{"NoteNumber":59,"Velocity":41,"Duration":51194,"SoundDuration":51194,"Delta":211326997},{"NoteNumber":64,"Velocity":41,"Duration":51194,"SoundDuration":51194,"Delta":211326997},{"NoteNumber":72,"Velocity":50,"Duration":51136,"SoundDuration":51136,"Delta":211429386},{"NoteNumber":67,"Velocity":42,"Duration":51136,"SoundDuration":51136,"Delta":211429386},{"NoteNumber":75,"Velocity":51,"Duration":51020,"SoundDuration":51020,"Delta":211531543},{"NoteNumber":70,"Velocity":43,"Duration":51020,"SoundDuration":51020,"Delta":211531543},{"NoteNumber":67,"Velocity":41,"Duration":50847,"SoundDuration":50847,"Delta":211633469},{"NoteNumber":72,"Velocity":49,"Duration":50847,"SoundDuration":50847,"Delta":211633469},{"NoteNumber":71,"Velocity":53,"Duration":50675,"SoundDuration":50675,"Delta":211735164},{"NoteNumber":68,"Velocity":45,"Duration":50675,"SoundDuration":50675,"Delta":211735164},{"NoteNumber":64,"Velocity":45,"Duration":50675,"SoundDuration":50675,"Delta":211735164},{"NoteNumber":59,"Velocity":45,"Duration":50675,"SoundDuration":50675,"Delta":211735164},{"NoteNumber":67,"Velocity":45,"Duration":50675,"SoundDuration":50675,"Delta":211836515},{"NoteNumber":72,"Velocity":54,"Duration":50675,"SoundDuration":50675,"Delta":211836515},{"NoteNumber":75,"Velocity":46,"Duration":50675,"SoundDuration":50675,"Delta":211937866},{"NoteNumber":80,"Velocity":55,"Duration":50675,"SoundDuration":50675,"Delta":211937866},{"NoteNumber":68,"Velocity":47,"Duration":50675,"SoundDuration":50675,"Delta":212039217},{"NoteNumber":71,"Velocity":47,"Duration":50675,"SoundDuration":50675,"Delta":212039217},{"NoteNumber":76,"Velocity":56,"Duration":50675,"SoundDuration":50675,"Delta":212039217},{"NoteNumber":79,"Velocity":57,"Duration":50675,"SoundDuration":50675,"Delta":212140569},{"NoteNumber":72,"Velocity":48,"Duration":50675,"SoundDuration":50675,"Delta":212140569},{"NoteNumber":75,"Velocity":49,"Duration":50675,"SoundDuration":50675,"Delta":212241920},{"NoteNumber":82,"Velocity":58,"Duration":50675,"SoundDuration":50675,"Delta":212241920},{"NoteNumber":86,"Velocity":60,"Duration":50335,"SoundDuration":50335,"Delta":212343044},{"NoteNumber":79,"Velocity":51,"Duration":50335,"SoundDuration":50335,"Delta":212343044},{"NoteNumber":71,"Velocity":51,"Duration":201174,"SoundDuration":201174,"Delta":212343044},{"NoteNumber":76,"Velocity":60,"Duration":201174,"SoundDuration":201174,"Delta":212343044},{"NoteNumber":84,"Velocity":60,"Duration":50335,"SoundDuration":50335,"Delta":212443716},{"NoteNumber":76,"Velocity":51,"Duration":50335,"SoundDuration":50335,"Delta":212443716},{"NoteNumber":83,"Velocity":61,"Duration":50167,"SoundDuration":50167,"Delta":212544219},{"NoteNumber":80,"Velocity":51,"Duration":50167,"SoundDuration":50167,"Delta":212544219},{"NoteNumber":76,"Velocity":51,"Duration":50167,"SoundDuration":50167,"Delta":212544219},{"NoteNumber":84,"Velocity":62,"Duration":50111,"SoundDuration":50111,"Delta":212644553},{"NoteNumber":79,"Velocity":52,"Duration":50111,"SoundDuration":50111,"Delta":212644553},{"NoteNumber":87,"Velocity":63,"Duration":50000,"SoundDuration":50000,"Delta":212744665},{"NoteNumber":82,"Velocity":53,"Duration":50000,"SoundDuration":50000,"Delta":212744665},{"NoteNumber":84,"Velocity":64,"Duration":49833,"SoundDuration":49833,"Delta":212844665},{"NoteNumber":79,"Velocity":54,"Duration":49833,"SoundDuration":49833,"Delta":212844665},{"NoteNumber":83,"Velocity":65,"Duration":49833,"SoundDuration":49833,"Delta":212944332},{"NoteNumber":80,"Velocity":55,"Duration":49833,"SoundDuration":49833,"Delta":212944332},{"NoteNumber":76,"Velocity":55,"Duration":49833,"SoundDuration":49833,"Delta":212944332},{"NoteNumber":71,"Velocity":55,"Duration":49833,"SoundDuration":49833,"Delta":212944332},{"NoteNumber":84,"Velocity":68,"Duration":49668,"SoundDuration":49668,"Delta":213043945},{"NoteNumber":79,"Velocity":57,"Duration":49668,"SoundDuration":49668,"Delta":213043945},{"NoteNumber":92,"Velocity":73,"Duration":49668,"SoundDuration":49668,"Delta":213143283},{"NoteNumber":87,"Velocity":62,"Duration":49668,"SoundDuration":49668,"Delta":213143283},{"NoteNumber":76,"Velocity":73,"Duration":49504,"SoundDuration":49504,"Delta":213242457},{"NoteNumber":71,"Velocity":62,"Duration":49504,"SoundDuration":49504,"Delta":213242457},{"NoteNumber":68,"Velocity":62,"Duration":49504,"SoundDuration":49504,"Delta":213242457},{"NoteNumber":95,"Velocity":75,"Duration":49450,"SoundDuration":49450,"Delta":213341467},{"NoteNumber":91,"Velocity":63,"Duration":49450,"SoundDuration":49450,"Delta":213341467},{"NoteNumber":100,"Velocity":77,"Duration":49342,"SoundDuration":49342,"Delta":213440260},{"NoteNumber":92,"Velocity":65,"Duration":49342,"SoundDuration":49342,"Delta":213440260},{"NoteNumber":101,"Velocity":78,"Duration":65573,"SoundDuration":65573,"Delta":213538890},{"NoteNumber":98,"Velocity":76,"Duration":65681,"SoundDuration":65681,"Delta":213604464},{"NoteNumber":89,"Velocity":75,"Duration":65789,"SoundDuration":65789,"Delta":213670145},{"NoteNumber":86,"Velocity":69,"Duration":66006,"SoundDuration":66006,"Delta":213735935},{"NoteNumber":82,"Velocity":68,"Duration":66115,"SoundDuration":66115,"Delta":213801942},{"NoteNumber":89,"Velocity":60,"Duration":49668,"SoundDuration":49668,"Delta":213834945},{"NoteNumber":86,"Velocity":50,"Duration":49668,"SoundDuration":49668,"Delta":213834945},{"NoteNumber":74,"Velocity":67,"Duration":66225,"SoundDuration":66225,"Delta":213868057},{"NoteNumber":91,"Velocity":58,"Duration":99667,"SoundDuration":99667,"Delta":213934283},{"NoteNumber":88,"Velocity":49,"Duration":99667,"SoundDuration":99667,"Delta":213934283},{"NoteNumber":79,"Velocity":49,"Duration":99667,"SoundDuration":99667,"Delta":213934283},{"NoteNumber":80,"Velocity":66,"Duration":66445,"SoundDuration":66445,"Delta":213934283},{"NoteNumber":74,"Velocity":65,"Duration":66555,"SoundDuration":66555,"Delta":214000728},{"NoteNumber":68,"Velocity":64,"Duration":66666,"SoundDuration":66666,"Delta":214067284},{"NoteNumber":70,"Velocity":70,"Duration":66889,"SoundDuration":66889,"Delta":214133950},{"NoteNumber":62,"Velocity":69,"Duration":67001,"SoundDuration":67001,"Delta":214200840},{"NoteNumber":58,"Velocity":67,"Duration":67114,"SoundDuration":67114,"Delta":214267842},{"NoteNumber":62,"Velocity":59,"Duration":67340,"SoundDuration":67340,"Delta":214334956},{"NoteNumber":56,"Velocity":57,"Duration":67453,"SoundDuration":67453,"Delta":214402296},{"NoteNumber":50,"Velocity":56,"Duration":67567,"SoundDuration":67567,"Delta":214469750},{"NoteNumber":58,"Velocity":59,"Duration":67796,"SoundDuration":67796,"Delta":214537317},{"NoteNumber":53,"Velocity":57,"Duration":67911,"SoundDuration":67911,"Delta":214605114},{"NoteNumber":46,"Velocity":56,"Duration":68027,"SoundDuration":68027,"Delta":214673026},{"NoteNumber":32,"Velocity":70,"Duration":106007,"SoundDuration":106007,"Delta":214741053},{"NoteNumber":70,"Velocity":43,"Duration":51369,"SoundDuration":51369,"Delta":214953067},{"NoteNumber":68,"Velocity":43,"Duration":51369,"SoundDuration":51369,"Delta":214953067},{"NoteNumber":77,"Velocity":49,"Duration":51369,"SoundDuration":51369,"Delta":214953067},{"NoteNumber":58,"Velocity":35,"Duration":102739,"SoundDuration":102739,"Delta":214953067},{"NoteNumber":56,"Velocity":35,"Duration":102739,"SoundDuration":102739,"Delta":214953067},{"NoteNumber":53,"Velocity":35,"Duration":102739,"SoundDuration":102739,"Delta":214953067},{"NoteNumber":62,"Velocity":42,"Duration":102739,"SoundDuration":102739,"Delta":214953067},{"NoteNumber":65,"Velocity":46,"Duration":51369,"SoundDuration":51369,"Delta":215055807},{"NoteNumber":65,"Velocity":46,"Duration":51903,"SoundDuration":51903,"Delta":215158547},{"NoteNumber":66,"Velocity":46,"Duration":51903,"SoundDuration":51903,"Delta":215262353},{"NoteNumber":73,"Velocity":50,"Duration":51903,"SoundDuration":51903,"Delta":215366159},{"NoteNumber":75,"Velocity":50,"Duration":51903,"SoundDuration":51903,"Delta":215366159},{"NoteNumber":80,"Velocity":55,"Duration":51903,"SoundDuration":51903,"Delta":215366159},{"NoteNumber":59,"Velocity":36,"Duration":103806,"SoundDuration":103806,"Delta":215366159},{"NoteNumber":57,"Velocity":36,"Duration":103806,"SoundDuration":103806,"Delta":215366159},{"NoteNumber":54,"Velocity":36,"Duration":103806,"SoundDuration":103806,"Delta":215366159},{"NoteNumber":63,"Velocity":43,"Duration":103806,"SoundDuration":103806,"Delta":215366159},{"NoteNumber":68,"Velocity":48,"Duration":51903,"SoundDuration":51903,"Delta":215469965},{"NoteNumber":68,"Velocity":48,"Duration":48701,"SoundDuration":48701,"Delta":215573772},{"NoteNumber":68,"Velocity":48,"Duration":48701,"SoundDuration":48701,"Delta":215671174},{"NoteNumber":73,"Velocity":48,"Duration":51369,"SoundDuration":51369,"Delta":215768577},{"NoteNumber":75,"Velocity":48,"Duration":51369,"SoundDuration":51369,"Delta":215768577},{"NoteNumber":80,"Velocity":48,"Duration":51369,"SoundDuration":51369,"Delta":215768577},{"NoteNumber":63,"Velocity":36,"Duration":102739,"SoundDuration":102739,"Delta":215768577},{"NoteNumber":69,"Velocity":43,"Duration":102739,"SoundDuration":102739,"Delta":215768577},{"NoteNumber":59,"Velocity":36,"Duration":102739,"SoundDuration":102739,"Delta":215768577},{"NoteNumber":66,"Velocity":48,"Duration":51369,"SoundDuration":51369,"Delta":215871316},{"NoteNumber":32,"Velocity":65,"Duration":104166,"SoundDuration":104166,"Delta":215974056},{"NoteNumber":70,"Velocity":48,"Duration":49180,"SoundDuration":49180,"Delta":216182390},{"NoteNumber":68,"Velocity":48,"Duration":49180,"SoundDuration":49180,"Delta":216182390},{"NoteNumber":77,"Velocity":51,"Duration":49180,"SoundDuration":49180,"Delta":216182390},{"NoteNumber":58,"Velocity":35,"Duration":98360,"SoundDuration":98360,"Delta":216182390},{"NoteNumber":53,"Velocity":35,"Duration":98360,"SoundDuration":98360,"Delta":216182390},{"NoteNumber":62,"Velocity":42,"Duration":98360,"SoundDuration":98360,"Delta":216182390},{"NoteNumber":65,"Velocity":48,"Duration":49180,"SoundDuration":49180,"Delta":216280750},{"NoteNumber":65,"Velocity":48,"Duration":52083,"SoundDuration":52083,"Delta":216379111},{"NoteNumber":66,"Velocity":48,"Duration":52083,"SoundDuration":52083,"Delta":216483278},{"NoteNumber":68,"Velocity":49,"Duration":52083,"SoundDuration":52083,"Delta":216587445},{"NoteNumber":66,"Velocity":49,"Duration":52083,"SoundDuration":52083,"Delta":216587445},{"NoteNumber":74,"Velocity":56,"Duration":52083,"SoundDuration":52083,"Delta":216587445},{"NoteNumber":56,"Velocity":40,"Duration":104166,"SoundDuration":104166,"Delta":216587445},{"NoteNumber":51,"Velocity":40,"Duration":104166,"SoundDuration":104166,"Delta":216587445},{"NoteNumber":60,"Velocity":48,"Duration":104166,"SoundDuration":104166,"Delta":216587445},{"NoteNumber":62,"Velocity":48,"Duration":52083,"SoundDuration":52083,"Delta":216691611},{"NoteNumber":62,"Velocity":48,"Duration":51369,"SoundDuration":51369,"Delta":216795778},{"NoteNumber":62,"Velocity":48,"Duration":51369,"SoundDuration":51369,"Delta":216898518},{"NoteNumber":68,"Velocity":44,"Duration":51369,"SoundDuration":51369,"Delta":217001258},{"NoteNumber":66,"Velocity":44,"Duration":51369,"SoundDuration":51369,"Delta":217001258},{"NoteNumber":74,"Velocity":50,"Duration":51369,"SoundDuration":51369,"Delta":217001258},{"NoteNumber":54,"Velocity":35,"Duration":102739,"SoundDuration":102739,"Delta":217001258},{"NoteNumber":60,"Velocity":42,"Duration":102739,"SoundDuration":102739,"Delta":217001258},{"NoteNumber":63,"Velocity":48,"Duration":51369,"SoundDuration":51369,"Delta":217103997},{"NoteNumber":32,"Velocity":57,"Duration":102739,"SoundDuration":102739,"Delta":217206737},{"NoteNumber":65,"Velocity":58,"Duration":51194,"SoundDuration":51194,"Delta":217412217},{"NoteNumber":62,"Velocity":49,"Duration":51194,"SoundDuration":51194,"Delta":217412217},{"NoteNumber":56,"Velocity":49,"Duration":51194,"SoundDuration":51194,"Delta":217412217},{"NoteNumber":58,"Velocity":49,"Duration":51194,"SoundDuration":51194,"Delta":217412217},{"NoteNumber":70,"Velocity":50,"Duration":51136,"SoundDuration":51136,"Delta":217514606},{"NoteNumber":78,"Velocity":60,"Duration":51136,"SoundDuration":51136,"Delta":217514606},{"NoteNumber":66,"Velocity":50,"Duration":51136,"SoundDuration":51136,"Delta":217514606},{"NoteNumber":63,"Velocity":51,"Duration":51020,"SoundDuration":51020,"Delta":217616762},{"NoteNumber":59,"Velocity":51,"Duration":51020,"SoundDuration":51020,"Delta":217616762},{"NoteNumber":68,"Velocity":61,"Duration":51020,"SoundDuration":51020,"Delta":217616762},{"NoteNumber":57,"Velocity":51,"Duration":51020,"SoundDuration":51020,"Delta":217616762},{"NoteNumber":66,"Velocity":49,"Duration":50847,"SoundDuration":50847,"Delta":217718688},{"NoteNumber":73,"Velocity":49,"Duration":50847,"SoundDuration":50847,"Delta":217718688},{"NoteNumber":78,"Velocity":58,"Duration":50847,"SoundDuration":50847,"Delta":217718688},{"NoteNumber":65,"Velocity":63,"Duration":50675,"SoundDuration":50675,"Delta":217820383},{"NoteNumber":62,"Velocity":54,"Duration":50675,"SoundDuration":50675,"Delta":217820383},{"NoteNumber":58,"Velocity":54,"Duration":50675,"SoundDuration":50675,"Delta":217820383},{"NoteNumber":56,"Velocity":54,"Duration":50675,"SoundDuration":50675,"Delta":217820383},{"NoteNumber":66,"Velocity":54,"Duration":50675,"SoundDuration":50675,"Delta":217921734},{"NoteNumber":70,"Velocity":54,"Duration":50675,"SoundDuration":50675,"Delta":217921734},{"NoteNumber":78,"Velocity":64,"Duration":50675,"SoundDuration":50675,"Delta":217921734},{"NoteNumber":69,"Velocity":55,"Duration":50675,"SoundDuration":50675,"Delta":218023085},{"NoteNumber":74,"Velocity":55,"Duration":50675,"SoundDuration":50675,"Delta":218023085},{"NoteNumber":81,"Velocity":66,"Duration":50675,"SoundDuration":50675,"Delta":218023085},{"NoteNumber":65,"Velocity":56,"Duration":50675,"SoundDuration":50675,"Delta":218124437},{"NoteNumber":68,"Velocity":56,"Duration":50675,"SoundDuration":50675,"Delta":218124437},{"NoteNumber":70,"Velocity":67,"Duration":50675,"SoundDuration":50675,"Delta":218124437},{"NoteNumber":82,"Velocity":57,"Duration":50675,"SoundDuration":50675,"Delta":218225788},{"NoteNumber":80,"Velocity":57,"Duration":50675,"SoundDuration":50675,"Delta":218225788},{"NoteNumber":85,"Velocity":68,"Duration":50675,"SoundDuration":50675,"Delta":218225788},{"NoteNumber":73,"Velocity":57,"Duration":50675,"SoundDuration":50675,"Delta":218225788},{"NoteNumber":74,"Velocity":69,"Duration":50675,"SoundDuration":50675,"Delta":218327139},{"NoteNumber":79,"Velocity":61,"Duration":50335,"SoundDuration":50335,"Delta":218428264},{"NoteNumber":91,"Velocity":72,"Duration":50335,"SoundDuration":50335,"Delta":218428264},{"NoteNumber":88,"Velocity":61,"Duration":50335,"SoundDuration":50335,"Delta":218428264},{"NoteNumber":80,"Velocity":72,"Duration":100671,"SoundDuration":100671,"Delta":218428264},{"NoteNumber":82,"Velocity":61,"Duration":50335,"SoundDuration":50335,"Delta":218528935},{"NoteNumber":89,"Velocity":72,"Duration":50335,"SoundDuration":50335,"Delta":218528935},{"NoteNumber":77,"Velocity":61,"Duration":50335,"SoundDuration":50335,"Delta":218528935},{"NoteNumber":74,"Velocity":61,"Duration":50167,"SoundDuration":50167,"Delta":218629438},{"NoteNumber":77,"Velocity":73,"Duration":50167,"SoundDuration":50167,"Delta":218629438},{"NoteNumber":70,"Velocity":61,"Duration":50167,"SoundDuration":50167,"Delta":218629438},{"NoteNumber":68,"Velocity":61,"Duration":50167,"SoundDuration":50167,"Delta":218629438},{"NoteNumber":82,"Velocity":62,"Duration":50111,"SoundDuration":50111,"Delta":218729772},{"NoteNumber":90,"Velocity":74,"Duration":50111,"SoundDuration":50111,"Delta":218729772},{"NoteNumber":78,"Velocity":62,"Duration":50111,"SoundDuration":50111,"Delta":218729772},{"NoteNumber":75,"Velocity":63,"Duration":50000,"SoundDuration":50000,"Delta":218829884},{"NoteNumber":71,"Velocity":63,"Duration":50000,"SoundDuration":50000,"Delta":218829884},{"NoteNumber":80,"Velocity":75,"Duration":50000,"SoundDuration":50000,"Delta":218829884},{"NoteNumber":69,"Velocity":63,"Duration":50000,"SoundDuration":50000,"Delta":218829884},{"NoteNumber":85,"Velocity":64,"Duration":49833,"SoundDuration":49833,"Delta":218929884},{"NoteNumber":90,"Velocity":76,"Duration":49833,"SoundDuration":49833,"Delta":218929884},{"NoteNumber":78,"Velocity":64,"Duration":49833,"SoundDuration":49833,"Delta":218929884},{"NoteNumber":77,"Velocity":78,"Duration":49833,"SoundDuration":49833,"Delta":219029552},{"NoteNumber":74,"Velocity":66,"Duration":49833,"SoundDuration":49833,"Delta":219029552},{"NoteNumber":70,"Velocity":66,"Duration":49833,"SoundDuration":49833,"Delta":219029552},{"NoteNumber":68,"Velocity":66,"Duration":49833,"SoundDuration":49833,"Delta":219029552},{"NoteNumber":82,"Velocity":68,"Duration":49668,"SoundDuration":49668,"Delta":219129164},{"NoteNumber":90,"Velocity":81,"Duration":49668,"SoundDuration":49668,"Delta":219129164},{"NoteNumber":78,"Velocity":68,"Duration":49668,"SoundDuration":49668,"Delta":219129164},{"NoteNumber":86,"Velocity":74,"Duration":49724,"SoundDuration":49724,"Delta":219228502},{"NoteNumber":93,"Velocity":87,"Duration":49724,"SoundDuration":49724,"Delta":219228502},{"NoteNumber":81,"Velocity":74,"Duration":49724,"SoundDuration":49724,"Delta":219228502},{"NoteNumber":82,"Velocity":87,"Duration":51253,"SoundDuration":51253,"Delta":219328676},{"NoteNumber":80,"Velocity":74,"Duration":51253,"SoundDuration":51253,"Delta":219328676},{"NoteNumber":77,"Velocity":74,"Duration":51253,"SoundDuration":51253,"Delta":219328676},{"NoteNumber":92,"Velocity":90,"Duration":52879,"SoundDuration":52879,"Delta":219431954},{"NoteNumber":97,"Velocity":90,"Duration":52879,"SoundDuration":52879,"Delta":219431954},{"NoteNumber":85,"Velocity":75,"Duration":52879,"SoundDuration":52879,"Delta":219431954},{"NoteNumber":86,"Velocity":92,"Duration":62500,"SoundDuration":62500,"Delta":219538470},{"NoteNumber":105,"Velocity":91,"Duration":53042,"SoundDuration":53042,"Delta":219663470},{"NoteNumber":102,"Velocity":87,"Duration":54153,"SoundDuration":54153,"Delta":219716513},{"NoteNumber":99,"Velocity":83,"Duration":55393,"SoundDuration":55393,"Delta":219770667},{"NoteNumber":93,"Velocity":79,"Duration":56720,"SoundDuration":56720,"Delta":219826060},{"NoteNumber":94,"Velocity":74,"Duration":58022,"SoundDuration":58022,"Delta":219882781},{"NoteNumber":90,"Velocity":70,"Duration":59416,"SoundDuration":59416,"Delta":219940803},{"NoteNumber":87,"Velocity":66,"Duration":60929,"SoundDuration":60929,"Delta":220000220},{"NoteNumber":82,"Velocity":62,"Duration":62451,"SoundDuration":62451,"Delta":220061149},{"NoteNumber":70,"Velocity":58,"Duration":64051,"SoundDuration":64051,"Delta":220123600},{"NoteNumber":66,"Velocity":54,"Duration":65793,"SoundDuration":65793,"Delta":220187652},{"NoteNumber":63,"Velocity":50,"Duration":67632,"SoundDuration":67632,"Delta":220253445},{"NoteNumber":58,"Velocity":45,"Duration":69536,"SoundDuration":69536,"Delta":220321078},{"NoteNumber":30,"Velocity":32,"Duration":157894,"SoundDuration":157894,"Delta":220390614},{"NoteNumber":42,"Velocity":22,"Duration":141509,"SoundDuration":141509,"Delta":220548509},{"NoteNumber":45,"Velocity":39,"Duration":267856,"SoundDuration":267856,"Delta":220690019},{"NoteNumber":30,"Velocity":22,"Duration":133928,"SoundDuration":133928,"Delta":220690019},{"NoteNumber":42,"Velocity":23,"Duration":133928,"SoundDuration":133928,"Delta":220823947},{"NoteNumber":46,"Velocity":44,"Duration":255318,"SoundDuration":255318,"Delta":220957876},{"NoteNumber":30,"Velocity":23,"Duration":127659,"SoundDuration":127659,"Delta":220957876},{"NoteNumber":42,"Velocity":23,"Duration":127659,"SoundDuration":127659,"Delta":221085535},{"NoteNumber":53,"Velocity":48,"Duration":365853,"SoundDuration":365853,"Delta":221213195},{"NoteNumber":30,"Velocity":22,"Duration":121951,"SoundDuration":121951,"Delta":221213195},{"NoteNumber":42,"Velocity":23,"Duration":121951,"SoundDuration":121951,"Delta":221335146},{"NoteNumber":54,"Velocity":24,"Duration":121951,"SoundDuration":121951,"Delta":221457097},{"NoteNumber":51,"Velocity":45,"Duration":121951,"SoundDuration":121951,"Delta":221579048},{"NoteNumber":58,"Velocity":26,"Duration":121951,"SoundDuration":121951,"Delta":221579048},{"NoteNumber":46,"Velocity":41,"Duration":498062,"SoundDuration":498062,"Delta":221701000},{"NoteNumber":42,"Velocity":23,"Duration":126582,"SoundDuration":126582,"Delta":221827582},{"NoteNumber":30,"Velocity":27,"Duration":122448,"SoundDuration":122448,"Delta":221954164},{"NoteNumber":42,"Velocity":23,"Duration":122449,"SoundDuration":122449,"Delta":222076613},{"NoteNumber":45,"Velocity":40,"Duration":240000,"SoundDuration":240000,"Delta":222199062},{"NoteNumber":30,"Velocity":23,"Duration":120000,"SoundDuration":120000,"Delta":222199062},{"NoteNumber":42,"Velocity":23,"Duration":120000,"SoundDuration":120000,"Delta":222319062},{"NoteNumber":46,"Velocity":45,"Duration":245901,"SoundDuration":245901,"Delta":222439062},{"NoteNumber":30,"Velocity":23,"Duration":122950,"SoundDuration":122950,"Delta":222439062},{"NoteNumber":42,"Velocity":23,"Duration":122950,"SoundDuration":122950,"Delta":222562013},{"NoteNumber":51,"Velocity":48,"Duration":491803,"SoundDuration":491803,"Delta":222684964},{"NoteNumber":30,"Velocity":21,"Duration":122950,"SoundDuration":122950,"Delta":222684964},{"NoteNumber":42,"Velocity":23,"Duration":122950,"SoundDuration":122950,"Delta":222807914},{"NoteNumber":53,"Velocity":25,"Duration":122950,"SoundDuration":122950,"Delta":222930865},{"NoteNumber":55,"Velocity":27,"Duration":122950,"SoundDuration":122950,"Delta":223053816},{"NoteNumber":46,"Velocity":45,"Duration":256410,"SoundDuration":256410,"Delta":223176767},{"NoteNumber":42,"Velocity":26,"Duration":128205,"SoundDuration":128205,"Delta":223304972},{"NoteNumber":30,"Velocity":36,"Duration":123966,"SoundDuration":123966,"Delta":223433177},{"NoteNumber":42,"Velocity":30,"Duration":115384,"SoundDuration":115384,"Delta":223557144},{"NoteNumber":67,"Velocity":52,"Duration":54744,"SoundDuration":54744,"Delta":223672529},{"NoteNumber":65,"Velocity":52,"Duration":54744,"SoundDuration":54744,"Delta":223672529},{"NoteNumber":42,"Velocity":32,"Duration":109488,"SoundDuration":109488,"Delta":223672529},{"NoteNumber":55,"Velocity":53,"Duration":54744,"SoundDuration":54744,"Delta":223782018},{"NoteNumber":46,"Velocity":33,"Duration":109488,"SoundDuration":109488,"Delta":223782018},{"NoteNumber":55,"Velocity":55,"Duration":54744,"SoundDuration":54744,"Delta":223891507},{"NoteNumber":49,"Velocity":35,"Duration":109488,"SoundDuration":109488,"Delta":223891507},{"NoteNumber":57,"Velocity":56,"Duration":54744,"SoundDuration":54744,"Delta":224000996},{"NoteNumber":54,"Velocity":37,"Duration":109489,"SoundDuration":109489,"Delta":224000996},{"NoteNumber":70,"Velocity":57,"Duration":51903,"SoundDuration":51903,"Delta":224110485},{"NoteNumber":67,"Velocity":57,"Duration":51903,"SoundDuration":51903,"Delta":224110485},{"NoteNumber":52,"Velocity":39,"Duration":103806,"SoundDuration":103806,"Delta":224110485},{"NoteNumber":58,"Velocity":39,"Duration":103806,"SoundDuration":103806,"Delta":224110485},{"NoteNumber":58,"Velocity":55,"Duration":51903,"SoundDuration":51903,"Delta":224214291},{"NoteNumber":58,"Velocity":51,"Duration":53380,"SoundDuration":53380,"Delta":224318097},{"NoteNumber":58,"Velocity":51,"Duration":58139,"SoundDuration":58139,"Delta":224424859},{"NoteNumber":70,"Velocity":48,"Duration":53003,"SoundDuration":53003,"Delta":224541138},{"NoteNumber":67,"Velocity":48,"Duration":53003,"SoundDuration":53003,"Delta":224541138},{"NoteNumber":66,"Velocity":49,"Duration":53003,"SoundDuration":53003,"Delta":224647145},{"NoteNumber":57,"Velocity":49,"Duration":53003,"SoundDuration":53003,"Delta":224647145},{"NoteNumber":67,"Velocity":48,"Duration":74257,"SoundDuration":74257,"Delta":224753152},{"NoteNumber":64,"Velocity":48,"Duration":74257,"SoundDuration":74257,"Delta":224753152},{"NoteNumber":55,"Velocity":48,"Duration":74257,"SoundDuration":74257,"Delta":224753152},{"NoteNumber":57,"Velocity":49,"Duration":265486,"SoundDuration":265486,"Delta":225050181},{"NoteNumber":45,"Velocity":49,"Duration":265486,"SoundDuration":265486,"Delta":225050181},{"NoteNumber":58,"Velocity":52,"Duration":256410,"SoundDuration":256410,"Delta":225315668},{"NoteNumber":46,"Velocity":52,"Duration":256410,"SoundDuration":256410,"Delta":225315668},{"NoteNumber":51,"Velocity":55,"Duration":485829,"SoundDuration":485829,"Delta":225572078},{"NoteNumber":63,"Velocity":55,"Duration":485829,"SoundDuration":485829,"Delta":225572078},{"NoteNumber":30,"Velocity":30,"Duration":121457,"SoundDuration":121457,"Delta":225572078},{"NoteNumber":42,"Velocity":27,"Duration":121457,"SoundDuration":121457,"Delta":225693536},{"NoteNumber":46,"Velocity":28,"Duration":121457,"SoundDuration":121457,"Delta":225814993},{"NoteNumber":55,"Velocity":30,"Duration":121457,"SoundDuration":121457,"Delta":225936451},{"NoteNumber":58,"Velocity":49,"Duration":500078,"SoundDuration":500078,"Delta":226057908},{"NoteNumber":46,"Velocity":30,"Duration":126582,"SoundDuration":126582,"Delta":226057908},{"NoteNumber":42,"Velocity":27,"Duration":126582,"SoundDuration":126582,"Delta":226184490},{"NoteNumber":30,"Velocity":31,"Duration":123456,"SoundDuration":123456,"Delta":226311073},{"NoteNumber":42,"Velocity":27,"Duration":123456,"SoundDuration":123456,"Delta":226434529},{"NoteNumber":49,"Velocity":52,"Duration":489926,"SoundDuration":489926,"Delta":226557986},{"NoteNumber":61,"Velocity":52,"Duration":863370,"SoundDuration":863370,"Delta":226557986},{"NoteNumber":46,"Velocity":27,"Duration":120482,"SoundDuration":120482,"Delta":226557986},{"NoteNumber":55,"Velocity":27,"Duration":120481,"SoundDuration":120481,"Delta":226678468},{"NoteNumber":46,"Velocity":27,"Duration":124481,"SoundDuration":124481,"Delta":226798950},{"NoteNumber":42,"Velocity":27,"Duration":124481,"SoundDuration":124481,"Delta":226923431},{"NoteNumber":49,"Velocity":44,"Duration":373443,"SoundDuration":373443,"Delta":227047913},{"NoteNumber":30,"Velocity":25,"Duration":124481,"SoundDuration":124481,"Delta":227047913},{"NoteNumber":42,"Velocity":27,"Duration":124481,"SoundDuration":124481,"Delta":227172394},{"NoteNumber":42,"Velocity":29,"Duration":124481,"SoundDuration":124481,"Delta":227296875},{"NoteNumber":47,"Velocity":43,"Duration":124481,"SoundDuration":124481,"Delta":227421356},{"NoteNumber":59,"Velocity":43,"Duration":124481,"SoundDuration":124481,"Delta":227421356},{"NoteNumber":50,"Velocity":31,"Duration":124481,"SoundDuration":124481,"Delta":227421356},{"NoteNumber":54,"Velocity":38,"Duration":256410,"SoundDuration":256410,"Delta":227545838},{"NoteNumber":42,"Velocity":31,"Duration":128205,"SoundDuration":128205,"Delta":227545838},{"NoteNumber":50,"Velocity":30,"Duration":128205,"SoundDuration":128205,"Delta":227674043},{"NoteNumber":50,"Velocity":30,"Duration":128205,"SoundDuration":128205,"Delta":227802248},{"NoteNumber":78,"Velocity":39,"Duration":66079,"SoundDuration":66079,"Delta":227930453},{"NoteNumber":74,"Velocity":33,"Duration":66079,"SoundDuration":66079,"Delta":227930453},{"NoteNumber":54,"Velocity":30,"Duration":132158,"SoundDuration":132158,"Delta":227930453},{"NoteNumber":68,"Velocity":37,"Duration":132158,"SoundDuration":132158,"Delta":228062612},{"NoteNumber":77,"Velocity":37,"Duration":132158,"SoundDuration":132158,"Delta":228062612},{"NoteNumber":80,"Velocity":44,"Duration":132158,"SoundDuration":132158,"Delta":228062612},{"NoteNumber":62,"Velocity":30,"Duration":132158,"SoundDuration":132158,"Delta":228062612},{"NoteNumber":62,"Velocity":30,"Duration":132158,"SoundDuration":132158,"Delta":228194770},{"NoteNumber":66,"Velocity":30,"Duration":132158,"SoundDuration":132158,"Delta":228326929},{"NoteNumber":74,"Velocity":30,"Duration":132158,"SoundDuration":132158,"Delta":228459087},{"NoteNumber":53,"Velocity":60,"Duration":267856,"SoundDuration":267856,"Delta":228882508},{"NoteNumber":65,"Velocity":71,"Duration":267856,"SoundDuration":267856,"Delta":228882508},{"NoteNumber":54,"Velocity":68,"Duration":257510,"SoundDuration":257510,"Delta":229150365},{"NoteNumber":66,"Velocity":80,"Duration":257510,"SoundDuration":257510,"Delta":229150365},{"NoteNumber":47,"Velocity":55,"Duration":824448,"SoundDuration":824448,"Delta":229343498},{"NoteNumber":54,"Velocity":60,"Duration":824448,"SoundDuration":824448,"Delta":229343498},{"NoteNumber":97,"Velocity":89,"Duration":81632,"SoundDuration":81632,"Delta":229407875},{"NoteNumber":61,"Velocity":72,"Duration":371480,"SoundDuration":371480,"Delta":229407875},{"NoteNumber":62,"Velocity":72,"Duration":371480,"SoundDuration":371480,"Delta":229407875},{"NoteNumber":66,"Velocity":72,"Duration":371480,"SoundDuration":371480,"Delta":229407875},{"NoteNumber":73,"Velocity":89,"Duration":371480,"SoundDuration":371480,"Delta":229407875},{"NoteNumber":90,"Velocity":85,"Duration":81632,"SoundDuration":81632,"Delta":229489508},{"NoteNumber":86,"Velocity":85,"Duration":81632,"SoundDuration":81632,"Delta":229571141},{"NoteNumber":85,"Velocity":89,"Duration":84388,"SoundDuration":84388,"Delta":229652773},{"NoteNumber":78,"Velocity":80,"Duration":84388,"SoundDuration":84388,"Delta":229737162},{"NoteNumber":59,"Velocity":68,"Duration":126582,"SoundDuration":126582,"Delta":229779356},{"NoteNumber":71,"Velocity":80,"Duration":126582,"SoundDuration":126582,"Delta":229779356},{"NoteNumber":74,"Velocity":80,"Duration":84388,"SoundDuration":84388,"Delta":229821550},{"NoteNumber":73,"Velocity":84,"Duration":87336,"SoundDuration":87336,"Delta":229905938},{"NoteNumber":54,"Velocity":68,"Duration":506906,"SoundDuration":506906,"Delta":229905938},{"NoteNumber":66,"Velocity":80,"Duration":174672,"SoundDuration":174672,"Delta":229905938},{"NoteNumber":66,"Velocity":75,"Duration":419570,"SoundDuration":419570,"Delta":229993274},{"NoteNumber":62,"Velocity":75,"Duration":87336,"SoundDuration":87336,"Delta":230080610},{"NoteNumber":61,"Velocity":72,"Duration":81632,"SoundDuration":81632,"Delta":230167946},{"NoteNumber":54,"Velocity":66,"Duration":81632,"SoundDuration":81632,"Delta":230249579},{"NoteNumber":50,"Velocity":66,"Duration":81632,"SoundDuration":81632,"Delta":230331212},{"NoteNumber":65,"Velocity":73,"Duration":239044,"SoundDuration":239044,"Delta":230412844},{"NoteNumber":53,"Velocity":61,"Duration":239044,"SoundDuration":239044,"Delta":230412844},{"NoteNumber":61,"Velocity":70,"Duration":79681,"SoundDuration":79681,"Delta":230412844},{"NoteNumber":54,"Velocity":71,"Duration":79681,"SoundDuration":79681,"Delta":230492526},{"NoteNumber":50,"Velocity":73,"Duration":79681,"SoundDuration":79681,"Delta":230572207},{"NoteNumber":54,"Velocity":68,"Duration":245901,"SoundDuration":245901,"Delta":230651888},{"NoteNumber":66,"Velocity":81,"Duration":245901,"SoundDuration":245901,"Delta":230651888},{"NoteNumber":47,"Velocity":75,"Duration":81967,"SoundDuration":81967,"Delta":230651888},{"NoteNumber":42,"Velocity":78,"Duration":81967,"SoundDuration":81967,"Delta":230733856},{"NoteNumber":35,"Velocity":80,"Duration":81967,"SoundDuration":81967,"Delta":230815823},{"NoteNumber":71,"Velocity":90,"Duration":485475,"SoundDuration":485475,"Delta":230897790},{"NoteNumber":63,"Velocity":74,"Duration":485475,"SoundDuration":485475,"Delta":230897790},{"NoteNumber":60,"Velocity":74,"Duration":485475,"SoundDuration":485475,"Delta":230897790},{"NoteNumber":59,"Velocity":74,"Duration":485475,"SoundDuration":485475,"Delta":230897790},{"NoteNumber":30,"Velocity":74,"Duration":61475,"SoundDuration":61475,"Delta":230897790},{"NoteNumber":38,"Velocity":72,"Duration":61475,"SoundDuration":61475,"Delta":230959265},{"NoteNumber":42,"Velocity":70,"Duration":61475,"SoundDuration":61475,"Delta":231020741},{"NoteNumber":48,"Velocity":68,"Duration":61475,"SoundDuration":61475,"Delta":231082216},{"NoteNumber":51,"Velocity":66,"Duration":61475,"SoundDuration":61475,"Delta":231143691},{"NoteNumber":57,"Velocity":64,"Duration":61475,"SoundDuration":61475,"Delta":231205167},{"NoteNumber":60,"Velocity":62,"Duration":61475,"SoundDuration":61475,"Delta":231266642},{"NoteNumber":63,"Velocity":60,"Duration":55147,"SoundDuration":55147,"Delta":231328118},{"NoteNumber":54,"Velocity":69,"Duration":329775,"SoundDuration":329775,"Delta":231383265},{"NoteNumber":66,"Velocity":69,"Duration":329775,"SoundDuration":329775,"Delta":231383265},{"NoteNumber":69,"Velocity":72,"Duration":33700,"SoundDuration":33700,"Delta":231417188},{"NoteNumber":72,"Velocity":71,"Duration":33472,"SoundDuration":33472,"Delta":231450888},{"NoteNumber":75,"Velocity":70,"Duration":33248,"SoundDuration":33248,"Delta":231484361},{"NoteNumber":78,"Velocity":69,"Duration":33035,"SoundDuration":33035,"Delta":231517610},{"NoteNumber":81,"Velocity":68,"Duration":32899,"SoundDuration":32899,"Delta":231550645},{"NoteNumber":84,"Velocity":67,"Duration":32690,"SoundDuration":32690,"Delta":231583544},{"NoteNumber":87,"Velocity":66,"Duration":32476,"SoundDuration":32476,"Delta":231616235},{"NoteNumber":90,"Velocity":64,"Duration":32265,"SoundDuration":32265,"Delta":231648711},{"NoteNumber":93,"Velocity":63,"Duration":32064,"SoundDuration":32064,"Delta":231680976},{"NoteNumber":96,"Velocity":62,"Duration":47618,"SoundDuration":47618,"Delta":231713041},{"NoteNumber":62,"Velocity":54,"Duration":79364,"SoundDuration":79364,"Delta":231713041},{"NoteNumber":63,"Velocity":52,"Duration":79364,"SoundDuration":79364,"Delta":231792406},{"NoteNumber":66,"Velocity":51,"Duration":79364,"SoundDuration":79364,"Delta":231871771},{"NoteNumber":102,"Velocity":64,"Duration":112782,"SoundDuration":112782,"Delta":231951136},{"NoteNumber":99,"Velocity":64,"Duration":112782,"SoundDuration":112782,"Delta":231951136},{"NoteNumber":69,"Velocity":50,"Duration":75187,"SoundDuration":75187,"Delta":231951136},{"NoteNumber":72,"Velocity":48,"Duration":75187,"SoundDuration":75187,"Delta":232026324},{"NoteNumber":90,"Velocity":62,"Duration":112781,"SoundDuration":112781,"Delta":232063918},{"NoteNumber":75,"Velocity":47,"Duration":75187,"SoundDuration":75187,"Delta":232101512},{"NoteNumber":90,"Velocity":62,"Duration":112782,"SoundDuration":112782,"Delta":232176700},{"NoteNumber":78,"Velocity":45,"Duration":75187,"SoundDuration":75187,"Delta":232176700},{"NoteNumber":81,"Velocity":44,"Duration":77594,"SoundDuration":77594,"Delta":232251888},{"NoteNumber":89,"Velocity":62,"Duration":120000,"SoundDuration":120000,"Delta":232289482},{"NoteNumber":84,"Velocity":43,"Duration":80000,"SoundDuration":80000,"Delta":232329482},{"NoteNumber":102,"Velocity":65,"Duration":120000,"SoundDuration":120000,"Delta":232409482},{"NoteNumber":99,"Velocity":65,"Duration":120000,"SoundDuration":120000,"Delta":232409482},{"NoteNumber":90,"Velocity":65,"Duration":120000,"SoundDuration":120000,"Delta":232409482},{"NoteNumber":87,"Velocity":41,"Duration":120000,"SoundDuration":120000,"Delta":232409482},{"NoteNumber":53,"Velocity":60,"Duration":267856,"SoundDuration":267856,"Delta":233420744},{"NoteNumber":65,"Velocity":71,"Duration":267856,"SoundDuration":267856,"Delta":233420744},{"NoteNumber":54,"Velocity":68,"Duration":257510,"SoundDuration":257510,"Delta":233688601},{"NoteNumber":66,"Velocity":80,"Duration":257510,"SoundDuration":257510,"Delta":233688601},{"NoteNumber":26,"Velocity":55,"Duration":824448,"SoundDuration":824448,"Delta":233881734},{"NoteNumber":38,"Velocity":60,"Duration":824448,"SoundDuration":824448,"Delta":233881734},{"NoteNumber":95,"Velocity":89,"Duration":81632,"SoundDuration":81632,"Delta":233946111},{"NoteNumber":59,"Velocity":72,"Duration":498062,"SoundDuration":498062,"Delta":233946111},{"NoteNumber":60,"Velocity":72,"Duration":498062,"SoundDuration":498062,"Delta":233946111},{"NoteNumber":63,"Velocity":72,"Duration":498062,"SoundDuration":498062,"Delta":233946111},{"NoteNumber":71,"Velocity":89,"Duration":498062,"SoundDuration":498062,"Delta":233946111},{"NoteNumber":90,"Velocity":80,"Duration":81632,"SoundDuration":81632,"Delta":234027744},{"NoteNumber":87,"Velocity":74,"Duration":81632,"SoundDuration":81632,"Delta":234109377},{"NoteNumber":84,"Velocity":81,"Duration":84388,"SoundDuration":84388,"Delta":234191009},{"NoteNumber":83,"Velocity":73,"Duration":84388,"SoundDuration":84388,"Delta":234275397},{"NoteNumber":78,"Velocity":73,"Duration":84388,"SoundDuration":84388,"Delta":234359786},{"NoteNumber":75,"Velocity":77,"Duration":87336,"SoundDuration":87336,"Delta":234444174},{"NoteNumber":54,"Velocity":62,"Duration":506906,"SoundDuration":506906,"Delta":234444174},{"NoteNumber":66,"Velocity":73,"Duration":506906,"SoundDuration":506906,"Delta":234444174},{"NoteNumber":72,"Velocity":69,"Duration":87336,"SoundDuration":87336,"Delta":234531510},{"NoteNumber":71,"Velocity":69,"Duration":87336,"SoundDuration":87336,"Delta":234618846},{"NoteNumber":66,"Velocity":66,"Duration":81632,"SoundDuration":81632,"Delta":234706182},{"NoteNumber":63,"Velocity":60,"Duration":81632,"SoundDuration":81632,"Delta":234787815},{"NoteNumber":59,"Velocity":60,"Duration":81632,"SoundDuration":81632,"Delta":234869448},{"NoteNumber":64,"Velocity":76,"Duration":484945,"SoundDuration":484945,"Delta":234951080},{"NoteNumber":69,"Velocity":76,"Duration":853797,"SoundDuration":853797,"Delta":234951080},{"NoteNumber":57,"Velocity":64,"Duration":484945,"SoundDuration":484945,"Delta":234951080},{"NoteNumber":60,"Velocity":64,"Duration":79681,"SoundDuration":79681,"Delta":234951080},{"NoteNumber":54,"Velocity":65,"Duration":79681,"SoundDuration":79681,"Delta":235030762},{"NoteNumber":51,"Velocity":67,"Duration":79681,"SoundDuration":79681,"Delta":235110443},{"NoteNumber":48,"Velocity":69,"Duration":81967,"SoundDuration":81967,"Delta":235190124},{"NoteNumber":42,"Velocity":71,"Duration":81967,"SoundDuration":81967,"Delta":235272091},{"NoteNumber":38,"Velocity":73,"Duration":81967,"SoundDuration":81967,"Delta":235354059},{"NoteNumber":62,"Velocity":75,"Duration":368852,"SoundDuration":368852,"Delta":235436026},{"NoteNumber":59,"Velocity":63,"Duration":368852,"SoundDuration":368852,"Delta":235436026},{"NoteNumber":57,"Velocity":63,"Duration":368852,"SoundDuration":368852,"Delta":235436026},{"NoteNumber":21,"Velocity":71,"Duration":81967,"SoundDuration":81967,"Delta":235436026},{"NoteNumber":31,"Velocity":71,"Duration":81967,"SoundDuration":81967,"Delta":235517993},{"NoteNumber":38,"Velocity":71,"Duration":81967,"SoundDuration":81967,"Delta":235599960},{"NoteNumber":47,"Velocity":65,"Duration":81967,"SoundDuration":81967,"Delta":235681927},{"NoteNumber":50,"Velocity":65,"Duration":81967,"SoundDuration":81967,"Delta":235763894},{"NoteNumber":55,"Velocity":67,"Duration":122867,"SoundDuration":122867,"Delta":235804878},{"NoteNumber":67,"Velocity":67,"Duration":122867,"SoundDuration":122867,"Delta":235804878},{"NoteNumber":59,"Velocity":65,"Duration":81883,"SoundDuration":81883,"Delta":235845862},{"NoteNumber":62,"Velocity":69,"Duration":240030,"SoundDuration":240030,"Delta":235927745},{"NoteNumber":50,"Velocity":69,"Duration":485932,"SoundDuration":485932,"Delta":235927745},{"NoteNumber":58,"Velocity":69,"Duration":240030,"SoundDuration":240030,"Delta":235927745},{"NoteNumber":70,"Velocity":66,"Duration":79841,"SoundDuration":79841,"Delta":236008883},{"NoteNumber":74,"Velocity":66,"Duration":79841,"SoundDuration":79841,"Delta":236008883},{"NoteNumber":74,"Velocity":66,"Duration":79051,"SoundDuration":79051,"Delta":236088725},{"NoteNumber":82,"Velocity":52,"Duration":49180,"SoundDuration":49180,"Delta":236167776},{"NoteNumber":86,"Velocity":62,"Duration":49180,"SoundDuration":49180,"Delta":236167776},{"NoteNumber":62,"Velocity":63,"Duration":245901,"SoundDuration":245901,"Delta":236167776},{"NoteNumber":58,"Velocity":63,"Duration":245901,"SoundDuration":245901,"Delta":236167776},{"NoteNumber":86,"Velocity":54,"Duration":110701,"SoundDuration":110701,"Delta":236413677},{"NoteNumber":82,"Velocity":45,"Duration":110701,"SoundDuration":110701,"Delta":236413677},{"NoteNumber":74,"Velocity":45,"Duration":110701,"SoundDuration":110701,"Delta":236413677},{"NoteNumber":98,"Velocity":57,"Duration":110701,"SoundDuration":110701,"Delta":236524378},{"NoteNumber":94,"Velocity":48,"Duration":110701,"SoundDuration":110701,"Delta":236524378},{"NoteNumber":86,"Velocity":48,"Duration":110701,"SoundDuration":110701,"Delta":236524378},{"NoteNumber":86,"Velocity":48,"Duration":110700,"SoundDuration":110700,"Delta":236635079},{"NoteNumber":94,"Velocity":48,"Duration":110700,"SoundDuration":110700,"Delta":236635079},{"NoteNumber":98,"Velocity":57,"Duration":110700,"SoundDuration":110700,"Delta":236635079},{"NoteNumber":88,"Velocity":52,"Duration":116278,"SoundDuration":116278,"Delta":236745780},{"NoteNumber":85,"Velocity":44,"Duration":116278,"SoundDuration":116278,"Delta":236745780},{"NoteNumber":76,"Velocity":44,"Duration":116278,"SoundDuration":116278,"Delta":236745780},{"NoteNumber":89,"Velocity":51,"Duration":116279,"SoundDuration":116279,"Delta":236862059},{"NoteNumber":86,"Velocity":43,"Duration":116279,"SoundDuration":116279,"Delta":236862059},{"NoteNumber":77,"Velocity":43,"Duration":116279,"SoundDuration":116279,"Delta":236862059},{"NoteNumber":101,"Velocity":54,"Duration":110701,"SoundDuration":110701,"Delta":236978338},{"NoteNumber":98,"Velocity":45,"Duration":110701,"SoundDuration":110701,"Delta":236978338},{"NoteNumber":89,"Velocity":45,"Duration":110701,"SoundDuration":110701,"Delta":236978338},{"NoteNumber":101,"Velocity":53,"Duration":110701,"SoundDuration":110701,"Delta":237089039},{"NoteNumber":98,"Velocity":45,"Duration":110701,"SoundDuration":110701,"Delta":237089039},{"NoteNumber":89,"Velocity":45,"Duration":110701,"SoundDuration":110701,"Delta":237089039},{"NoteNumber":101,"Velocity":53,"Duration":116278,"SoundDuration":116278,"Delta":237199740},{"NoteNumber":98,"Velocity":45,"Duration":116278,"SoundDuration":116278,"Delta":237199740},{"NoteNumber":89,"Velocity":45,"Duration":116278,"SoundDuration":116278,"Delta":237199740},{"NoteNumber":89,"Velocity":47,"Duration":110294,"SoundDuration":110294,"Delta":237316019},{"NoteNumber":86,"Velocity":39,"Duration":110294,"SoundDuration":110294,"Delta":237316019},{"NoteNumber":77,"Velocity":39,"Duration":110294,"SoundDuration":110294,"Delta":237316019},{"NoteNumber":100,"Velocity":48,"Duration":120000,"SoundDuration":120000,"Delta":237426313},{"NoteNumber":97,"Velocity":40,"Duration":120000,"SoundDuration":120000,"Delta":237426313},{"NoteNumber":88,"Velocity":40,"Duration":120000,"SoundDuration":120000,"Delta":237426313},{"NoteNumber":98,"Velocity":48,"Duration":291261,"SoundDuration":291261,"Delta":237546313},{"NoteNumber":94,"Velocity":40,"Duration":291261,"SoundDuration":291261,"Delta":237546313},{"NoteNumber":74,"Velocity":36,"Duration":291261,"SoundDuration":291261,"Delta":237546313},{"NoteNumber":82,"Velocity":36,"Duration":291261,"SoundDuration":291261,"Delta":237546313},{"NoteNumber":86,"Velocity":43,"Duration":291261,"SoundDuration":291261,"Delta":237546313},{"NoteNumber":61,"Velocity":55,"Duration":267856,"SoundDuration":267856,"Delta":237837575},{"NoteNumber":73,"Velocity":65,"Duration":267856,"SoundDuration":267856,"Delta":237837575},{"NoteNumber":62,"Velocity":62,"Duration":257510,"SoundDuration":257510,"Delta":238105432},{"NoteNumber":74,"Velocity":73,"Duration":257510,"SoundDuration":257510,"Delta":238105432},{"NoteNumber":74,"Velocity":66,"Duration":498062,"SoundDuration":498062,"Delta":238362943},{"NoteNumber":69,"Velocity":66,"Duration":371480,"SoundDuration":371480,"Delta":238362943},{"NoteNumber":81,"Velocity":81,"Duration":371480,"SoundDuration":371480,"Delta":238362943},{"NoteNumber":70,"Velocity":73,"Duration":81632,"SoundDuration":81632,"Delta":238362943},{"NoteNumber":62,"Velocity":71,"Duration":81632,"SoundDuration":81632,"Delta":238444576},{"NoteNumber":58,"Velocity":69,"Duration":81632,"SoundDuration":81632,"Delta":238526208},{"NoteNumber":57,"Velocity":67,"Duration":84388,"SoundDuration":84388,"Delta":238607841},{"NoteNumber":50,"Velocity":65,"Duration":84388,"SoundDuration":84388,"Delta":238692229},{"NoteNumber":67,"Velocity":67,"Duration":126582,"SoundDuration":126582,"Delta":238734423},{"NoteNumber":79,"Velocity":73,"Duration":126582,"SoundDuration":126582,"Delta":238734423},{"NoteNumber":46,"Velocity":63,"Duration":84388,"SoundDuration":84388,"Delta":238776617},{"NoteNumber":62,"Velocity":62,"Duration":262008,"SoundDuration":262008,"Delta":238861005},{"NoteNumber":70,"Velocity":62,"Duration":262008,"SoundDuration":262008,"Delta":238861005},{"NoteNumber":74,"Velocity":73,"Duration":262008,"SoundDuration":262008,"Delta":238861005},{"NoteNumber":50,"Velocity":61,"Duration":87336,"SoundDuration":87336,"Delta":238861005},{"NoteNumber":46,"Velocity":59,"Duration":87336,"SoundDuration":87336,"Delta":238948342},{"NoteNumber":38,"Velocity":57,"Duration":87336,"SoundDuration":87336,"Delta":239035678},{"NoteNumber":34,"Velocity":63,"Duration":245901,"SoundDuration":245901,"Delta":239123014},{"NoteNumber":62,"Velocity":54,"Duration":108855,"SoundDuration":108855,"Delta":239368915},{"NoteNumber":58,"Velocity":45,"Duration":110701,"SoundDuration":110701,"Delta":239368915},{"NoteNumber":50,"Velocity":45,"Duration":108855,"SoundDuration":108855,"Delta":239368915},{"NoteNumber":62,"Velocity":57,"Duration":110701,"SoundDuration":110701,"Delta":239479616},{"NoteNumber":58,"Velocity":48,"Duration":110701,"SoundDuration":110701,"Delta":239479616},{"NoteNumber":58,"Velocity":48,"Duration":107142,"SoundDuration":107142,"Delta":239590317},{"NoteNumber":62,"Velocity":57,"Duration":107142,"SoundDuration":107142,"Delta":239590317},{"NoteNumber":64,"Velocity":52,"Duration":117647,"SoundDuration":117647,"Delta":239697460},{"NoteNumber":58,"Velocity":44,"Duration":117647,"SoundDuration":117647,"Delta":239697460},{"NoteNumber":52,"Velocity":44,"Duration":117647,"SoundDuration":117647,"Delta":239697460},{"NoteNumber":61,"Velocity":51,"Duration":110902,"SoundDuration":110902,"Delta":239815107},{"NoteNumber":58,"Velocity":43,"Duration":110902,"SoundDuration":110902,"Delta":239815107},{"NoteNumber":49,"Velocity":43,"Duration":112782,"SoundDuration":112782,"Delta":239815107},{"NoteNumber":61,"Velocity":54,"Duration":106761,"SoundDuration":106761,"Delta":239927889},{"NoteNumber":58,"Velocity":45,"Duration":106761,"SoundDuration":106761,"Delta":239927889},{"NoteNumber":61,"Velocity":53,"Duration":106761,"SoundDuration":106761,"Delta":240034651},{"NoteNumber":58,"Velocity":45,"Duration":106761,"SoundDuration":106761,"Delta":240034651},{"NoteNumber":61,"Velocity":53,"Duration":111742,"SoundDuration":111742,"Delta":240141412},{"NoteNumber":58,"Velocity":45,"Duration":111742,"SoundDuration":111742,"Delta":240141412},{"NoteNumber":61,"Velocity":47,"Duration":107272,"SoundDuration":107272,"Delta":240255048},{"NoteNumber":58,"Velocity":39,"Duration":107272,"SoundDuration":107272,"Delta":240255048},{"NoteNumber":49,"Velocity":39,"Duration":107272,"SoundDuration":107272,"Delta":240255048},{"NoteNumber":62,"Velocity":48,"Duration":138889,"SoundDuration":138889,"Delta":240364139},{"NoteNumber":58,"Velocity":40,"Duration":138889,"SoundDuration":138889,"Delta":240364139},{"NoteNumber":31,"Velocity":73,"Duration":97087,"SoundDuration":97087,"Delta":240503028},{"NoteNumber":43,"Velocity":66,"Duration":97087,"SoundDuration":97087,"Delta":240600116},{"NoteNumber":50,"Velocity":67,"Duration":97087,"SoundDuration":97087,"Delta":240697203},{"NoteNumber":82,"Velocity":60,"Duration":525367,"SoundDuration":525367,"Delta":240794290},{"NoteNumber":73,"Velocity":60,"Duration":267856,"SoundDuration":267856,"Delta":240794290},{"NoteNumber":85,"Velocity":71,"Duration":267856,"SoundDuration":267856,"Delta":240794290},{"NoteNumber":55,"Velocity":73,"Duration":89285,"SoundDuration":89285,"Delta":240794290},{"NoteNumber":58,"Velocity":71,"Duration":89285,"SoundDuration":89285,"Delta":240883576},{"NoteNumber":62,"Velocity":73,"Duration":89285,"SoundDuration":89285,"Delta":240972862},{"NoteNumber":74,"Velocity":68,"Duration":257510,"SoundDuration":257510,"Delta":241062147},{"NoteNumber":86,"Velocity":80,"Duration":257510,"SoundDuration":257510,"Delta":241062147},{"NoteNumber":67,"Velocity":75,"Duration":85836,"SoundDuration":85836,"Delta":241062147},{"NoteNumber":70,"Velocity":78,"Duration":85836,"SoundDuration":85836,"Delta":241147984},{"NoteNumber":74,"Velocity":79,"Duration":85836,"SoundDuration":85836,"Delta":241233821},{"NoteNumber":82,"Velocity":72,"Duration":498062,"SoundDuration":498062,"Delta":241319658},{"NoteNumber":86,"Velocity":72,"Duration":498062,"SoundDuration":498062,"Delta":241319658},{"NoteNumber":79,"Velocity":67,"Duration":498062,"SoundDuration":498062,"Delta":241319658},{"NoteNumber":91,"Velocity":89,"Duration":498062,"SoundDuration":498062,"Delta":241319658},{"NoteNumber":80,"Velocity":81,"Duration":81632,"SoundDuration":81632,"Delta":241319658},{"NoteNumber":74,"Velocity":78,"Duration":81632,"SoundDuration":81632,"Delta":241401291},{"NoteNumber":70,"Velocity":75,"Duration":81632,"SoundDuration":81632,"Delta":241482923},{"NoteNumber":68,"Velocity":73,"Duration":84388,"SoundDuration":84388,"Delta":241564556},{"NoteNumber":62,"Velocity":71,"Duration":84388,"SoundDuration":84388,"Delta":241648944},{"NoteNumber":58,"Velocity":69,"Duration":84388,"SoundDuration":84388,"Delta":241733332},{"NoteNumber":74,"Velocity":68,"Duration":262008,"SoundDuration":262008,"Delta":241817720},{"NoteNumber":82,"Velocity":68,"Duration":262008,"SoundDuration":262008,"Delta":241817720},{"NoteNumber":86,"Velocity":80,"Duration":262008,"SoundDuration":262008,"Delta":241817720},{"NoteNumber":56,"Velocity":67,"Duration":87336,"SoundDuration":87336,"Delta":241817720},{"NoteNumber":50,"Velocity":64,"Duration":87336,"SoundDuration":87336,"Delta":241905057},{"NoteNumber":46,"Velocity":62,"Duration":87336,"SoundDuration":87336,"Delta":241992393},{"NoteNumber":41,"Velocity":70,"Duration":245901,"SoundDuration":245901,"Delta":242079729},{"NoteNumber":29,"Velocity":59,"Duration":245901,"SoundDuration":245901,"Delta":242079729},{"NoteNumber":62,"Velocity":71,"Duration":109259,"SoundDuration":109259,"Delta":242325630},{"NoteNumber":58,"Velocity":71,"Duration":111110,"SoundDuration":111110,"Delta":242325630},{"NoteNumber":56,"Velocity":60,"Duration":111110,"SoundDuration":111110,"Delta":242325630},{"NoteNumber":62,"Velocity":51,"Duration":111110,"SoundDuration":111110,"Delta":242436741},{"NoteNumber":68,"Velocity":51,"Duration":111110,"SoundDuration":111110,"Delta":242436741},{"NoteNumber":74,"Velocity":61,"Duration":111110,"SoundDuration":111110,"Delta":242436741},{"NoteNumber":70,"Velocity":51,"Duration":111110,"SoundDuration":111110,"Delta":242436741},{"NoteNumber":62,"Velocity":68,"Duration":107527,"SoundDuration":107527,"Delta":242547852},{"NoteNumber":58,"Velocity":57,"Duration":107527,"SoundDuration":107527,"Delta":242547852},{"NoteNumber":56,"Velocity":57,"Duration":107527,"SoundDuration":107527,"Delta":242547852},{"NoteNumber":64,"Velocity":51,"Duration":115384,"SoundDuration":115384,"Delta":242655379},{"NoteNumber":68,"Velocity":51,"Duration":115384,"SoundDuration":115384,"Delta":242655379},{"NoteNumber":70,"Velocity":51,"Duration":115384,"SoundDuration":115384,"Delta":242655379},{"NoteNumber":76,"Velocity":60,"Duration":115384,"SoundDuration":115384,"Delta":242655379},{"NoteNumber":61,"Velocity":70,"Duration":110074,"SoundDuration":110074,"Delta":242770764},{"NoteNumber":58,"Velocity":59,"Duration":110074,"SoundDuration":110074,"Delta":242770764},{"NoteNumber":56,"Velocity":59,"Duration":111940,"SoundDuration":111940,"Delta":242770764},{"NoteNumber":61,"Velocity":51,"Duration":107142,"SoundDuration":107142,"Delta":242882704},{"NoteNumber":68,"Velocity":51,"Duration":107142,"SoundDuration":107142,"Delta":242882704},{"NoteNumber":73,"Velocity":61,"Duration":107142,"SoundDuration":107142,"Delta":242882704},{"NoteNumber":70,"Velocity":51,"Duration":107142,"SoundDuration":107142,"Delta":242882704},{"NoteNumber":61,"Velocity":52,"Duration":107872,"SoundDuration":107872,"Delta":242989847},{"NoteNumber":68,"Velocity":52,"Duration":107872,"SoundDuration":107872,"Delta":242989847},{"NoteNumber":73,"Velocity":62,"Duration":107872,"SoundDuration":107872,"Delta":242989847},{"NoteNumber":70,"Velocity":52,"Duration":107872,"SoundDuration":107872,"Delta":242989847},{"NoteNumber":61,"Velocity":52,"Duration":110294,"SoundDuration":110294,"Delta":243097720},{"NoteNumber":68,"Velocity":52,"Duration":110294,"SoundDuration":110294,"Delta":243097720},{"NoteNumber":73,"Velocity":62,"Duration":110294,"SoundDuration":110294,"Delta":243097720},{"NoteNumber":70,"Velocity":52,"Duration":110294,"SoundDuration":110294,"Delta":243097720},{"NoteNumber":61,"Velocity":69,"Duration":107142,"SoundDuration":107142,"Delta":243208014},{"NoteNumber":58,"Velocity":58,"Duration":107142,"SoundDuration":107142,"Delta":243208014},{"NoteNumber":56,"Velocity":58,"Duration":107142,"SoundDuration":107142,"Delta":243208014},{"NoteNumber":62,"Velocity":49,"Duration":120000,"SoundDuration":120000,"Delta":243315157},{"NoteNumber":68,"Velocity":49,"Duration":120000,"SoundDuration":120000,"Delta":243315157},{"NoteNumber":74,"Velocity":58,"Duration":120000,"SoundDuration":120000,"Delta":243315157},{"NoteNumber":70,"Velocity":49,"Duration":120000,"SoundDuration":120000,"Delta":243315157},{"NoteNumber":38,"Velocity":70,"Duration":937617,"SoundDuration":937617,"Delta":243435157},{"NoteNumber":65,"Velocity":72,"Duration":117647,"SoundDuration":117647,"Delta":243679059},{"NoteNumber":60,"Velocity":73,"Duration":480192,"SoundDuration":480192,"Delta":243679059},{"NoteNumber":56,"Velocity":61,"Duration":480192,"SoundDuration":480192,"Delta":243679059},{"NoteNumber":53,"Velocity":61,"Duration":235294,"SoundDuration":235294,"Delta":243679059},{"NoteNumber":77,"Velocity":75,"Duration":117647,"SoundDuration":117647,"Delta":243796706},{"NoteNumber":68,"Velocity":64,"Duration":117647,"SoundDuration":117647,"Delta":243796706},{"NoteNumber":72,"Velocity":64,"Duration":117647,"SoundDuration":117647,"Delta":243796706},{"NoteNumber":77,"Velocity":78,"Duration":122448,"SoundDuration":122448,"Delta":243914353},{"NoteNumber":67,"Velocity":77,"Duration":244898,"SoundDuration":244898,"Delta":243914353},{"NoteNumber":55,"Velocity":65,"Duration":244898,"SoundDuration":244898,"Delta":243914353},{"NoteNumber":91,"Velocity":81,"Duration":122449,"SoundDuration":122449,"Delta":244036802},{"NoteNumber":84,"Velocity":69,"Duration":122449,"SoundDuration":122449,"Delta":244036802},{"NoteNumber":94,"Velocity":101,"Duration":106761,"SoundDuration":106761,"Delta":244159251},{"NoteNumber":88,"Velocity":81,"Duration":106761,"SoundDuration":106761,"Delta":244159251},{"NoteNumber":86,"Velocity":77,"Duration":106761,"SoundDuration":106761,"Delta":244159251},{"NoteNumber":70,"Velocity":85,"Duration":437403,"SoundDuration":437403,"Delta":244159251},{"NoteNumber":64,"Velocity":70,"Duration":437403,"SoundDuration":437403,"Delta":244159251},{"NoteNumber":62,"Velocity":67,"Duration":437403,"SoundDuration":437403,"Delta":244159251},{"NoteNumber":59,"Velocity":66,"Duration":437403,"SoundDuration":437403,"Delta":244159251},{"NoteNumber":58,"Velocity":65,"Duration":437403,"SoundDuration":437403,"Delta":244159251},{"NoteNumber":82,"Velocity":94,"Duration":106761,"SoundDuration":106761,"Delta":244266013},{"NoteNumber":74,"Velocity":77,"Duration":111940,"SoundDuration":111940,"Delta":244372774},{"NoteNumber":76,"Velocity":77,"Duration":111940,"SoundDuration":111940,"Delta":244372774},{"NoteNumber":82,"Velocity":92,"Duration":111940,"SoundDuration":111940,"Delta":244372774},{"NoteNumber":28,"Velocity":77,"Duration":457820,"SoundDuration":457820,"Delta":244372774},{"NoteNumber":40,"Velocity":77,"Duration":457820,"SoundDuration":457820,"Delta":244372774},{"NoteNumber":70,"Velocity":90,"Duration":111940,"SoundDuration":111940,"Delta":244484714},{"NoteNumber":68,"Velocity":88,"Duration":115829,"SoundDuration":115829,"Delta":244596655},{"NoteNumber":64,"Velocity":64,"Duration":233940,"SoundDuration":233940,"Delta":244596655},{"NoteNumber":62,"Velocity":53,"Duration":233940,"SoundDuration":233940,"Delta":244596655},{"NoteNumber":56,"Velocity":53,"Duration":233940,"SoundDuration":233940,"Delta":244596655},{"NoteNumber":59,"Velocity":53,"Duration":233940,"SoundDuration":233940,"Delta":244596655},{"NoteNumber":80,"Velocity":85,"Duration":118110,"SoundDuration":118110,"Delta":244712485},{"NoteNumber":76,"Velocity":71,"Duration":118110,"SoundDuration":118110,"Delta":244712485},{"NoteNumber":74,"Velocity":71,"Duration":118110,"SoundDuration":118110,"Delta":244712485},{"NoteNumber":38,"Velocity":70,"Duration":937551,"SoundDuration":937551,"Delta":244830595},{"NoteNumber":65,"Velocity":72,"Duration":117647,"SoundDuration":117647,"Delta":245074497},{"NoteNumber":60,"Velocity":73,"Duration":476258,"SoundDuration":476258,"Delta":245074497},{"NoteNumber":56,"Velocity":61,"Duration":476258,"SoundDuration":476258,"Delta":245074497},{"NoteNumber":53,"Velocity":61,"Duration":235294,"SoundDuration":235294,"Delta":245074497},{"NoteNumber":77,"Velocity":75,"Duration":117647,"SoundDuration":117647,"Delta":245192144},{"NoteNumber":68,"Velocity":64,"Duration":117647,"SoundDuration":117647,"Delta":245192144},{"NoteNumber":72,"Velocity":64,"Duration":117647,"SoundDuration":117647,"Delta":245192144},{"NoteNumber":77,"Velocity":78,"Duration":120482,"SoundDuration":120482,"Delta":245309791},{"NoteNumber":67,"Velocity":77,"Duration":240963,"SoundDuration":240963,"Delta":245309791},{"NoteNumber":55,"Velocity":65,"Duration":240963,"SoundDuration":240963,"Delta":245309791},{"NoteNumber":91,"Velocity":81,"Duration":120481,"SoundDuration":120481,"Delta":245430273},{"NoteNumber":84,"Velocity":69,"Duration":120481,"SoundDuration":120481,"Delta":245430273},{"NoteNumber":88,"Velocity":100,"Duration":108695,"SoundDuration":108695,"Delta":245550755},{"NoteNumber":85,"Velocity":81,"Duration":108695,"SoundDuration":108695,"Delta":245550755},{"NoteNumber":83,"Velocity":75,"Duration":108695,"SoundDuration":108695,"Delta":245550755},{"NoteNumber":64,"Velocity":85,"Duration":439613,"SoundDuration":439613,"Delta":245550755},{"NoteNumber":61,"Velocity":70,"Duration":439613,"SoundDuration":439613,"Delta":245550755},{"NoteNumber":59,"Velocity":67,"Duration":439613,"SoundDuration":439613,"Delta":245550755},{"NoteNumber":56,"Velocity":65,"Duration":439613,"SoundDuration":439613,"Delta":245550755},{"NoteNumber":52,"Velocity":65,"Duration":439613,"SoundDuration":439613,"Delta":245550755},{"NoteNumber":76,"Velocity":94,"Duration":108695,"SoundDuration":108695,"Delta":245659451},{"NoteNumber":71,"Velocity":69,"Duration":111110,"SoundDuration":111110,"Delta":245768147},{"NoteNumber":73,"Velocity":69,"Duration":111110,"SoundDuration":111110,"Delta":245768147},{"NoteNumber":76,"Velocity":82,"Duration":111110,"SoundDuration":111110,"Delta":245768147},{"NoteNumber":25,"Velocity":77,"Duration":453881,"SoundDuration":453881,"Delta":245768147},{"NoteNumber":37,"Velocity":77,"Duration":453881,"SoundDuration":453881,"Delta":245768147},{"NoteNumber":64,"Velocity":90,"Duration":111110,"SoundDuration":111110,"Delta":245879258},{"NoteNumber":65,"Velocity":88,"Duration":115829,"SoundDuration":115829,"Delta":245990369},{"NoteNumber":61,"Velocity":64,"Duration":231660,"SoundDuration":231660,"Delta":245990369},{"NoteNumber":59,"Velocity":53,"Duration":231660,"SoundDuration":231660,"Delta":245990369},{"NoteNumber":53,"Velocity":53,"Duration":231660,"SoundDuration":231660,"Delta":245990369},{"NoteNumber":56,"Velocity":53,"Duration":231660,"SoundDuration":231660,"Delta":245990369},{"NoteNumber":77,"Velocity":85,"Duration":115830,"SoundDuration":115830,"Delta":246106199},{"NoteNumber":73,"Velocity":71,"Duration":115830,"SoundDuration":115830,"Delta":246106199},{"NoteNumber":71,"Velocity":71,"Duration":115830,"SoundDuration":115830,"Delta":246106199},{"NoteNumber":38,"Velocity":70,"Duration":932672,"SoundDuration":932672,"Delta":246222029},{"NoteNumber":65,"Velocity":72,"Duration":117647,"SoundDuration":117647,"Delta":246465931},{"NoteNumber":60,"Velocity":73,"Duration":470587,"SoundDuration":470587,"Delta":246465931},{"NoteNumber":56,"Velocity":61,"Duration":470587,"SoundDuration":470587,"Delta":246465931},{"NoteNumber":53,"Velocity":61,"Duration":235294,"SoundDuration":235294,"Delta":246465931},{"NoteNumber":77,"Velocity":75,"Duration":117647,"SoundDuration":117647,"Delta":246583578},{"NoteNumber":68,"Velocity":64,"Duration":117647,"SoundDuration":117647,"Delta":246583578},{"NoteNumber":72,"Velocity":64,"Duration":117647,"SoundDuration":117647,"Delta":246583578},{"NoteNumber":77,"Velocity":78,"Duration":117646,"SoundDuration":117646,"Delta":246701225},{"NoteNumber":67,"Velocity":77,"Duration":235293,"SoundDuration":235293,"Delta":246701225},{"NoteNumber":55,"Velocity":65,"Duration":235293,"SoundDuration":235293,"Delta":246701225},{"NoteNumber":91,"Velocity":81,"Duration":117647,"SoundDuration":117647,"Delta":246818872},{"NoteNumber":84,"Velocity":69,"Duration":117647,"SoundDuration":117647,"Delta":246818872},{"NoteNumber":94,"Velocity":100,"Duration":109091,"SoundDuration":109091,"Delta":246936519},{"NoteNumber":88,"Velocity":81,"Duration":109091,"SoundDuration":109091,"Delta":246936519},{"NoteNumber":86,"Velocity":75,"Duration":109091,"SoundDuration":109091,"Delta":246936519},{"NoteNumber":70,"Velocity":87,"Duration":442062,"SoundDuration":442062,"Delta":246936519},{"NoteNumber":64,"Velocity":70,"Duration":442062,"SoundDuration":442062,"Delta":246936519},{"NoteNumber":62,"Velocity":64,"Duration":442062,"SoundDuration":442062,"Delta":246936519},{"NoteNumber":59,"Velocity":63,"Duration":442062,"SoundDuration":442062,"Delta":246936519},{"NoteNumber":58,"Velocity":63,"Duration":442062,"SoundDuration":442062,"Delta":246936519},{"NoteNumber":82,"Velocity":94,"Duration":109091,"SoundDuration":109091,"Delta":247045610},{"NoteNumber":74,"Velocity":77,"Duration":111940,"SoundDuration":111940,"Delta":247154701},{"NoteNumber":76,"Velocity":77,"Duration":111940,"SoundDuration":111940,"Delta":247154701},{"NoteNumber":82,"Velocity":92,"Duration":111940,"SoundDuration":111940,"Delta":247154701},{"NoteNumber":28,"Velocity":77,"Duration":458287,"SoundDuration":458287,"Delta":247154701},{"NoteNumber":40,"Velocity":77,"Duration":458287,"SoundDuration":458287,"Delta":247154701},{"NoteNumber":70,"Velocity":90,"Duration":111940,"SoundDuration":111940,"Delta":247266642},{"NoteNumber":68,"Velocity":88,"Duration":234406,"SoundDuration":234406,"Delta":247378582},{"NoteNumber":64,"Velocity":64,"Duration":234406,"SoundDuration":234406,"Delta":247378582},{"NoteNumber":62,"Velocity":53,"Duration":234406,"SoundDuration":234406,"Delta":247378582},{"NoteNumber":56,"Velocity":53,"Duration":234406,"SoundDuration":234406,"Delta":247378582},{"NoteNumber":59,"Velocity":53,"Duration":234406,"SoundDuration":234406,"Delta":247378582},{"NoteNumber":74,"Velocity":72,"Duration":32818,"SoundDuration":32818,"Delta":247413331},{"NoteNumber":76,"Velocity":70,"Duration":32818,"SoundDuration":32818,"Delta":247446149},{"NoteNumber":80,"Velocity":69,"Duration":33230,"SoundDuration":33230,"Delta":247478968},{"NoteNumber":86,"Velocity":67,"Duration":33596,"SoundDuration":33596,"Delta":247512198},{"NoteNumber":88,"Velocity":66,"Duration":33596,"SoundDuration":33596,"Delta":247545795},{"NoteNumber":92,"Velocity":64,"Duration":33596,"SoundDuration":33596,"Delta":247579392},{"NoteNumber":38,"Velocity":70,"Duration":945160,"SoundDuration":945160,"Delta":247612989},{"NoteNumber":65,"Velocity":72,"Duration":117647,"SoundDuration":117647,"Delta":247856891},{"NoteNumber":60,"Velocity":73,"Duration":478209,"SoundDuration":478209,"Delta":247856891},{"NoteNumber":56,"Velocity":61,"Duration":478209,"SoundDuration":478209,"Delta":247856891},{"NoteNumber":53,"Velocity":61,"Duration":235294,"SoundDuration":235294,"Delta":247856891},{"NoteNumber":77,"Velocity":75,"Duration":117647,"SoundDuration":117647,"Delta":247974538},{"NoteNumber":68,"Velocity":64,"Duration":117647,"SoundDuration":117647,"Delta":247974538},{"NoteNumber":72,"Velocity":64,"Duration":117647,"SoundDuration":117647,"Delta":247974538},{"NoteNumber":77,"Velocity":78,"Duration":121457,"SoundDuration":121457,"Delta":248092185},{"NoteNumber":67,"Velocity":77,"Duration":242915,"SoundDuration":242915,"Delta":248092185},{"NoteNumber":55,"Velocity":65,"Duration":242915,"SoundDuration":242915,"Delta":248092185},{"NoteNumber":91,"Velocity":81,"Duration":121457,"SoundDuration":121457,"Delta":248213643},{"NoteNumber":84,"Velocity":69,"Duration":121457,"SoundDuration":121457,"Delta":248213643},{"NoteNumber":88,"Velocity":100,"Duration":111524,"SoundDuration":111524,"Delta":248335100},{"NoteNumber":85,"Velocity":81,"Duration":111524,"SoundDuration":111524,"Delta":248335100},{"NoteNumber":83,"Velocity":75,"Duration":111524,"SoundDuration":111524,"Delta":248335100},{"NoteNumber":64,"Velocity":86,"Duration":447767,"SoundDuration":447767,"Delta":248335100},{"NoteNumber":61,"Velocity":70,"Duration":447767,"SoundDuration":447767,"Delta":248335100},{"NoteNumber":59,"Velocity":70,"Duration":447767,"SoundDuration":447767,"Delta":248335100},{"NoteNumber":56,"Velocity":66,"Duration":447767,"SoundDuration":447767,"Delta":248335100},{"NoteNumber":52,"Velocity":63,"Duration":447767,"SoundDuration":447767,"Delta":248335100},{"NoteNumber":76,"Velocity":94,"Duration":111524,"SoundDuration":111524,"Delta":248446625},{"NoteNumber":71,"Velocity":69,"Duration":112359,"SoundDuration":112359,"Delta":248558149},{"NoteNumber":73,"Velocity":69,"Duration":112359,"SoundDuration":112359,"Delta":248558149},{"NoteNumber":76,"Velocity":82,"Duration":112359,"SoundDuration":112359,"Delta":248558149},{"NoteNumber":25,"Velocity":77,"Duration":463883,"SoundDuration":463883,"Delta":248558149},{"NoteNumber":37,"Velocity":77,"Duration":463883,"SoundDuration":463883,"Delta":248558149},{"NoteNumber":64,"Velocity":90,"Duration":112359,"SoundDuration":112359,"Delta":248670508},{"NoteNumber":65,"Velocity":88,"Duration":239164,"SoundDuration":239164,"Delta":248782868},{"NoteNumber":61,"Velocity":64,"Duration":239164,"SoundDuration":239164,"Delta":248782868},{"NoteNumber":59,"Velocity":53,"Duration":239164,"SoundDuration":239164,"Delta":248782868},{"NoteNumber":53,"Velocity":53,"Duration":239164,"SoundDuration":239164,"Delta":248782868},{"NoteNumber":56,"Velocity":53,"Duration":239164,"SoundDuration":239164,"Delta":248782868},{"NoteNumber":71,"Velocity":72,"Duration":33120,"SoundDuration":33120,"Delta":248817543},{"NoteNumber":73,"Velocity":70,"Duration":33535,"SoundDuration":33535,"Delta":248850663},{"NoteNumber":77,"Velocity":69,"Duration":33872,"SoundDuration":33872,"Delta":248884198},{"NoteNumber":83,"Velocity":68,"Duration":34356,"SoundDuration":34356,"Delta":248918071},{"NoteNumber":85,"Velocity":66,"Duration":34769,"SoundDuration":34769,"Delta":248952427},{"NoteNumber":89,"Velocity":65,"Duration":34836,"SoundDuration":34836,"Delta":248987197},{"NoteNumber":26,"Velocity":62,"Duration":122950,"SoundDuration":122950,"Delta":249022033},{"NoteNumber":53,"Velocity":51,"Duration":56603,"SoundDuration":56603,"Delta":249267934},{"NoteNumber":48,"Velocity":43,"Duration":56603,"SoundDuration":56603,"Delta":249267934},{"NoteNumber":44,"Velocity":43,"Duration":56603,"SoundDuration":56603,"Delta":249267934},{"NoteNumber":52,"Velocity":43,"Duration":56603,"SoundDuration":56603,"Delta":249381142},{"NoteNumber":55,"Velocity":51,"Duration":56603,"SoundDuration":56603,"Delta":249381142},{"NoteNumber":53,"Velocity":45,"Duration":53956,"SoundDuration":53956,"Delta":249494349},{"NoteNumber":56,"Velocity":54,"Duration":53956,"SoundDuration":53956,"Delta":249494349},{"NoteNumber":52,"Velocity":43,"Duration":53956,"SoundDuration":53956,"Delta":249602263},{"NoteNumber":55,"Velocity":51,"Duration":53956,"SoundDuration":53956,"Delta":249602263},{"NoteNumber":38,"Velocity":62,"Duration":464509,"SoundDuration":464509,"Delta":249710177},{"NoteNumber":53,"Velocity":51,"Duration":56603,"SoundDuration":56603,"Delta":249948272},{"NoteNumber":48,"Velocity":43,"Duration":56603,"SoundDuration":56603,"Delta":249948272},{"NoteNumber":44,"Velocity":43,"Duration":56603,"SoundDuration":56603,"Delta":249948272},{"NoteNumber":52,"Velocity":43,"Duration":56603,"SoundDuration":56603,"Delta":250061479},{"NoteNumber":55,"Velocity":51,"Duration":56603,"SoundDuration":56603,"Delta":250061479},{"NoteNumber":53,"Velocity":45,"Duration":53956,"SoundDuration":53956,"Delta":250174687},{"NoteNumber":56,"Velocity":54,"Duration":53956,"SoundDuration":53956,"Delta":250174687},{"NoteNumber":37,"Velocity":62,"Duration":466487,"SoundDuration":466487,"Delta":250174687},{"NoteNumber":52,"Velocity":43,"Duration":66079,"SoundDuration":66079,"Delta":250282600},{"NoteNumber":55,"Velocity":51,"Duration":66079,"SoundDuration":66079,"Delta":250282600},{"NoteNumber":53,"Velocity":43,"Duration":56603,"SoundDuration":56603,"Delta":250414759},{"NoteNumber":49,"Velocity":51,"Duration":56603,"SoundDuration":56603,"Delta":250414759},{"NoteNumber":44,"Velocity":43,"Duration":56603,"SoundDuration":56603,"Delta":250414759},{"NoteNumber":52,"Velocity":47,"Duration":56603,"SoundDuration":56603,"Delta":250527966},{"NoteNumber":55,"Velocity":56,"Duration":56603,"SoundDuration":56603,"Delta":250527966},{"NoteNumber":54,"Velocity":52,"Duration":53956,"SoundDuration":53956,"Delta":250641174},{"NoteNumber":58,"Velocity":62,"Duration":53956,"SoundDuration":53956,"Delta":250641174},{"NoteNumber":40,"Velocity":58,"Duration":215827,"SoundDuration":215827,"Delta":250641174},{"NoteNumber":47,"Velocity":62,"Duration":215827,"SoundDuration":215827,"Delta":250641174},{"NoteNumber":52,"Velocity":47,"Duration":53956,"SoundDuration":53956,"Delta":250749088},{"NoteNumber":56,"Velocity":56,"Duration":53956,"SoundDuration":53956,"Delta":250749088},{"NoteNumber":38,"Velocity":71,"Duration":471313,"SoundDuration":471313,"Delta":250857001},{"NoteNumber":65,"Velocity":58,"Duration":56603,"SoundDuration":56603,"Delta":251101899},{"NoteNumber":56,"Velocity":49,"Duration":56603,"SoundDuration":56603,"Delta":251101899},{"NoteNumber":53,"Velocity":49,"Duration":56603,"SoundDuration":56603,"Delta":251101899},{"NoteNumber":64,"Velocity":49,"Duration":56603,"SoundDuration":56603,"Delta":251215107},{"NoteNumber":67,"Velocity":58,"Duration":56603,"SoundDuration":56603,"Delta":251215107},{"NoteNumber":56,"Velocity":51,"Duration":53956,"SoundDuration":53956,"Delta":251328314},{"NoteNumber":65,"Velocity":51,"Duration":53956,"SoundDuration":53956,"Delta":251328314},{"NoteNumber":68,"Velocity":62,"Duration":53956,"SoundDuration":53956,"Delta":251328314},{"NoteNumber":64,"Velocity":49,"Duration":53956,"SoundDuration":53956,"Delta":251436228},{"NoteNumber":67,"Velocity":58,"Duration":53956,"SoundDuration":53956,"Delta":251436228},{"NoteNumber":38,"Velocity":71,"Duration":464509,"SoundDuration":464509,"Delta":251544142},{"NoteNumber":65,"Velocity":58,"Duration":56603,"SoundDuration":56603,"Delta":251782237},{"NoteNumber":56,"Velocity":49,"Duration":56603,"SoundDuration":56603,"Delta":251782237},{"NoteNumber":53,"Velocity":49,"Duration":56603,"SoundDuration":56603,"Delta":251782237},{"NoteNumber":64,"Velocity":49,"Duration":56603,"SoundDuration":56603,"Delta":251895444},{"NoteNumber":67,"Velocity":58,"Duration":56603,"SoundDuration":56603,"Delta":251895444},{"NoteNumber":56,"Velocity":51,"Duration":53956,"SoundDuration":53956,"Delta":252008652},{"NoteNumber":65,"Velocity":51,"Duration":53956,"SoundDuration":53956,"Delta":252008652},{"NoteNumber":68,"Velocity":62,"Duration":53956,"SoundDuration":53956,"Delta":252008652},{"NoteNumber":37,"Velocity":71,"Duration":466487,"SoundDuration":466487,"Delta":252008652},{"NoteNumber":64,"Velocity":49,"Duration":66079,"SoundDuration":66079,"Delta":252116566},{"NoteNumber":67,"Velocity":58,"Duration":66079,"SoundDuration":66079,"Delta":252116566},{"NoteNumber":65,"Velocity":49,"Duration":56603,"SoundDuration":56603,"Delta":252248724},{"NoteNumber":56,"Velocity":58,"Duration":56603,"SoundDuration":56603,"Delta":252248724},{"NoteNumber":53,"Velocity":49,"Duration":56603,"SoundDuration":56603,"Delta":252248724},{"NoteNumber":64,"Velocity":54,"Duration":56603,"SoundDuration":56603,"Delta":252361932},{"NoteNumber":67,"Velocity":64,"Duration":56603,"SoundDuration":56603,"Delta":252361932},{"NoteNumber":58,"Velocity":59,"Duration":53956,"SoundDuration":53956,"Delta":252475139},{"NoteNumber":66,"Velocity":59,"Duration":53956,"SoundDuration":53956,"Delta":252475139},{"NoteNumber":70,"Velocity":71,"Duration":53956,"SoundDuration":53956,"Delta":252475139},{"NoteNumber":40,"Velocity":64,"Duration":229371,"SoundDuration":229371,"Delta":252475139},{"NoteNumber":47,"Velocity":71,"Duration":229371,"SoundDuration":229371,"Delta":252475139},{"NoteNumber":64,"Velocity":54,"Duration":60728,"SoundDuration":60728,"Delta":252583053},{"NoteNumber":68,"Velocity":64,"Duration":60728,"SoundDuration":60728,"Delta":252583053},{"NoteNumber":38,"Velocity":80,"Duration":887703,"SoundDuration":887703,"Delta":252704510},{"NoteNumber":50,"Velocity":94,"Duration":887703,"SoundDuration":887703,"Delta":252704510},{"NoteNumber":65,"Velocity":82,"Duration":109488,"SoundDuration":109488,"Delta":252935279},{"NoteNumber":56,"Velocity":69,"Duration":109488,"SoundDuration":109488,"Delta":252935279},{"NoteNumber":53,"Velocity":69,"Duration":109488,"SoundDuration":109488,"Delta":252935279},{"NoteNumber":79,"Velocity":75,"Duration":109488,"SoundDuration":109488,"Delta":253044768},{"NoteNumber":72,"Velocity":63,"Duration":109488,"SoundDuration":109488,"Delta":253044768},{"NoteNumber":67,"Velocity":63,"Duration":109488,"SoundDuration":109488,"Delta":253044768},{"NoteNumber":70,"Velocity":81,"Duration":109488,"SoundDuration":109488,"Delta":253154257},{"NoteNumber":64,"Velocity":68,"Duration":109488,"SoundDuration":109488,"Delta":253154257},{"NoteNumber":58,"Velocity":68,"Duration":109488,"SoundDuration":109488,"Delta":253154257},{"NoteNumber":80,"Velocity":74,"Duration":109489,"SoundDuration":109489,"Delta":253263746},{"NoteNumber":77,"Velocity":62,"Duration":109489,"SoundDuration":109489,"Delta":253263746},{"NoteNumber":68,"Velocity":62,"Duration":109489,"SoundDuration":109489,"Delta":253263746},{"NoteNumber":65,"Velocity":88,"Duration":109488,"SoundDuration":109488,"Delta":253373235},{"NoteNumber":56,"Velocity":74,"Duration":109488,"SoundDuration":109488,"Delta":253373235},{"NoteNumber":53,"Velocity":74,"Duration":109488,"SoundDuration":109488,"Delta":253373235},{"NoteNumber":79,"Velocity":76,"Duration":109488,"SoundDuration":109488,"Delta":253482724},{"NoteNumber":74,"Velocity":64,"Duration":109488,"SoundDuration":109488,"Delta":253482724},{"NoteNumber":67,"Velocity":64,"Duration":109488,"SoundDuration":109488,"Delta":253482724},{"NoteNumber":70,"Velocity":64,"Duration":109488,"SoundDuration":109488,"Delta":253592213},{"NoteNumber":76,"Velocity":64,"Duration":109488,"SoundDuration":109488,"Delta":253592213},{"NoteNumber":82,"Velocity":76,"Duration":109488,"SoundDuration":109488,"Delta":253592213},{"NoteNumber":37,"Velocity":84,"Duration":896608,"SoundDuration":896608,"Delta":253592213},{"NoteNumber":49,"Velocity":99,"Duration":896608,"SoundDuration":896608,"Delta":253592213},{"NoteNumber":80,"Velocity":76,"Duration":120482,"SoundDuration":120482,"Delta":253701702},{"NoteNumber":68,"Velocity":64,"Duration":120482,"SoundDuration":120482,"Delta":253701702},{"NoteNumber":77,"Velocity":82,"Duration":109890,"SoundDuration":109890,"Delta":253822184},{"NoteNumber":68,"Velocity":69,"Duration":109890,"SoundDuration":109890,"Delta":253822184},{"NoteNumber":65,"Velocity":69,"Duration":109890,"SoundDuration":109890,"Delta":253822184},{"NoteNumber":91,"Velocity":79,"Duration":109889,"SoundDuration":109889,"Delta":253932074},{"NoteNumber":84,"Velocity":67,"Duration":109889,"SoundDuration":109889,"Delta":253932074},{"NoteNumber":79,"Velocity":67,"Duration":109889,"SoundDuration":109889,"Delta":253932074},{"NoteNumber":82,"Velocity":85,"Duration":109890,"SoundDuration":109890,"Delta":254041964},{"NoteNumber":76,"Velocity":85,"Duration":109890,"SoundDuration":109890,"Delta":254041964},{"NoteNumber":70,"Velocity":72,"Duration":109890,"SoundDuration":109890,"Delta":254041964},{"NoteNumber":92,"Velocity":81,"Duration":109890,"SoundDuration":109890,"Delta":254151854},{"NoteNumber":89,"Velocity":81,"Duration":109890,"SoundDuration":109890,"Delta":254151854},{"NoteNumber":80,"Velocity":68,"Duration":109890,"SoundDuration":109890,"Delta":254151854},{"NoteNumber":77,"Velocity":87,"Duration":109890,"SoundDuration":109890,"Delta":254261744},{"NoteNumber":68,"Velocity":74,"Duration":109890,"SoundDuration":109890,"Delta":254261744},{"NoteNumber":65,"Velocity":74,"Duration":109890,"SoundDuration":109890,"Delta":254261744},{"NoteNumber":91,"Velocity":84,"Duration":117187,"SoundDuration":117187,"Delta":254371634},{"NoteNumber":84,"Velocity":70,"Duration":117187,"SoundDuration":117187,"Delta":254371634},{"NoteNumber":79,"Velocity":70,"Duration":117187,"SoundDuration":117187,"Delta":254371634},{"NoteNumber":94,"Velocity":85,"Duration":109890,"SoundDuration":109890,"Delta":254488822},{"NoteNumber":86,"Velocity":72,"Duration":109890,"SoundDuration":109890,"Delta":254488822},{"NoteNumber":82,"Velocity":72,"Duration":109890,"SoundDuration":109890,"Delta":254488822},{"NoteNumber":40,"Velocity":85,"Duration":668567,"SoundDuration":668567,"Delta":254488822},{"NoteNumber":52,"Velocity":103,"Duration":668567,"SoundDuration":668567,"Delta":254488822},{"NoteNumber":92,"Velocity":86,"Duration":109889,"SoundDuration":109889,"Delta":254598712},{"NoteNumber":80,"Velocity":73,"Duration":109889,"SoundDuration":109889,"Delta":254598712},{"NoteNumber":77,"Velocity":92,"Duration":109890,"SoundDuration":109890,"Delta":254708602},{"NoteNumber":74,"Velocity":78,"Duration":109890,"SoundDuration":109890,"Delta":254708602},{"NoteNumber":65,"Velocity":78,"Duration":109890,"SoundDuration":109890,"Delta":254708602},{"NoteNumber":79,"Velocity":93,"Duration":109890,"SoundDuration":109890,"Delta":254818492},{"NoteNumber":67,"Velocity":79,"Duration":109890,"SoundDuration":109890,"Delta":254818492},{"NoteNumber":94,"Velocity":90,"Duration":114503,"SoundDuration":114503,"Delta":254928382},{"NoteNumber":86,"Velocity":75,"Duration":114503,"SoundDuration":114503,"Delta":254928382},{"NoteNumber":82,"Velocity":75,"Duration":114503,"SoundDuration":114503,"Delta":254928382},{"NoteNumber":92,"Velocity":91,"Duration":114503,"SoundDuration":114503,"Delta":255042886},{"NoteNumber":80,"Velocity":76,"Duration":114503,"SoundDuration":114503,"Delta":255042886},{"NoteNumber":26,"Velocity":82,"Duration":2792032,"SoundDuration":2792032,"Delta":255157389},{"NoteNumber":38,"Velocity":87,"Duration":2792032,"SoundDuration":2792032,"Delta":255157389},{"NoteNumber":41,"Velocity":63,"Duration":115608,"SoundDuration":115608,"Delta":255404303},{"NoteNumber":44,"Velocity":63,"Duration":115608,"SoundDuration":115608,"Delta":255404303},{"NoteNumber":53,"Velocity":75,"Duration":115608,"SoundDuration":115608,"Delta":255404303},{"NoteNumber":43,"Velocity":64,"Duration":115237,"SoundDuration":115237,"Delta":255519912},{"NoteNumber":48,"Velocity":64,"Duration":115237,"SoundDuration":115237,"Delta":255519912},{"NoteNumber":55,"Velocity":76,"Duration":115237,"SoundDuration":115237,"Delta":255519912},{"NoteNumber":68,"Velocity":73,"Duration":114723,"SoundDuration":114723,"Delta":255635149},{"NoteNumber":64,"Velocity":61,"Duration":114723,"SoundDuration":114723,"Delta":255635149},{"NoteNumber":56,"Velocity":73,"Duration":114723,"SoundDuration":114723,"Delta":255635149},{"NoteNumber":71,"Velocity":73,"Duration":114069,"SoundDuration":114069,"Delta":255749872},{"NoteNumber":67,"Velocity":62,"Duration":114069,"SoundDuration":114069,"Delta":255749872},{"NoteNumber":59,"Velocity":62,"Duration":114069,"SoundDuration":114069,"Delta":255749872},{"NoteNumber":48,"Velocity":66,"Duration":113493,"SoundDuration":113493,"Delta":255863941},{"NoteNumber":56,"Velocity":66,"Duration":113493,"SoundDuration":113493,"Delta":255863941},{"NoteNumber":60,"Velocity":78,"Duration":113493,"SoundDuration":113493,"Delta":255863941},{"NoteNumber":76,"Velocity":76,"Duration":112923,"SoundDuration":112923,"Delta":255977435},{"NoteNumber":72,"Velocity":64,"Duration":112923,"SoundDuration":112923,"Delta":255977435},{"NoteNumber":64,"Velocity":64,"Duration":112923,"SoundDuration":112923,"Delta":255977435},{"NoteNumber":53,"Velocity":67,"Duration":112289,"SoundDuration":112289,"Delta":256090358},{"NoteNumber":56,"Velocity":67,"Duration":112289,"SoundDuration":112289,"Delta":256090358},{"NoteNumber":65,"Velocity":80,"Duration":112289,"SoundDuration":112289,"Delta":256090358},{"NoteNumber":55,"Velocity":65,"Duration":111732,"SoundDuration":111732,"Delta":256202648},{"NoteNumber":60,"Velocity":65,"Duration":111732,"SoundDuration":111732,"Delta":256202648},{"NoteNumber":67,"Velocity":77,"Duration":111732,"SoundDuration":111732,"Delta":256202648},{"NoteNumber":80,"Velocity":81,"Duration":111248,"SoundDuration":111248,"Delta":256314380},{"NoteNumber":76,"Velocity":68,"Duration":111248,"SoundDuration":111248,"Delta":256314380},{"NoteNumber":68,"Velocity":68,"Duration":111248,"SoundDuration":111248,"Delta":256314380},{"NoteNumber":71,"Velocity":69,"Duration":110565,"SoundDuration":110565,"Delta":256425629},{"NoteNumber":79,"Velocity":69,"Duration":110565,"SoundDuration":110565,"Delta":256425629},{"NoteNumber":83,"Velocity":81,"Duration":110565,"SoundDuration":110565,"Delta":256425629},{"NoteNumber":72,"Velocity":84,"Duration":110092,"SoundDuration":110092,"Delta":256536194},{"NoteNumber":68,"Velocity":70,"Duration":110092,"SoundDuration":110092,"Delta":256536194},{"NoteNumber":60,"Velocity":70,"Duration":110092,"SoundDuration":110092,"Delta":256536194},{"NoteNumber":88,"Velocity":82,"Duration":109489,"SoundDuration":109489,"Delta":256646286},{"NoteNumber":84,"Velocity":70,"Duration":109489,"SoundDuration":109489,"Delta":256646286},{"NoteNumber":76,"Velocity":70,"Duration":109489,"SoundDuration":109489,"Delta":256646286},{"NoteNumber":65,"Velocity":71,"Duration":108959,"SoundDuration":108959,"Delta":256755776},{"NoteNumber":68,"Velocity":71,"Duration":108959,"SoundDuration":108959,"Delta":256755776},{"NoteNumber":77,"Velocity":83,"Duration":108959,"SoundDuration":108959,"Delta":256755776},{"NoteNumber":67,"Velocity":72,"Duration":108434,"SoundDuration":108434,"Delta":256864735},{"NoteNumber":72,"Velocity":72,"Duration":108434,"SoundDuration":108434,"Delta":256864735},{"NoteNumber":79,"Velocity":85,"Duration":108434,"SoundDuration":108434,"Delta":256864735},{"NoteNumber":92,"Velocity":88,"Duration":107849,"SoundDuration":107849,"Delta":256973169},{"NoteNumber":88,"Velocity":74,"Duration":107849,"SoundDuration":107849,"Delta":256973169},{"NoteNumber":80,"Velocity":74,"Duration":107849,"SoundDuration":107849,"Delta":256973169},{"NoteNumber":83,"Velocity":75,"Duration":107334,"SoundDuration":107334,"Delta":257081018},{"NoteNumber":91,"Velocity":75,"Duration":107334,"SoundDuration":107334,"Delta":257081018},{"NoteNumber":95,"Velocity":89,"Duration":107334,"SoundDuration":107334,"Delta":257081018},{"NoteNumber":84,"Velocity":92,"Duration":106888,"SoundDuration":106888,"Delta":257188353},{"NoteNumber":80,"Velocity":78,"Duration":106888,"SoundDuration":106888,"Delta":257188353},{"NoteNumber":72,"Velocity":78,"Duration":106888,"SoundDuration":106888,"Delta":257188353},{"NoteNumber":100,"Velocity":90,"Duration":106446,"SoundDuration":106446,"Delta":257295242},{"NoteNumber":96,"Velocity":76,"Duration":106446,"SoundDuration":106446,"Delta":257295242},{"NoteNumber":88,"Velocity":76,"Duration":106446,"SoundDuration":106446,"Delta":257295242},{"NoteNumber":89,"Velocity":92,"Duration":112433,"SoundDuration":112433,"Delta":257401689},{"NoteNumber":80,"Velocity":76,"Duration":112433,"SoundDuration":112433,"Delta":257401689},{"NoteNumber":77,"Velocity":76,"Duration":112433,"SoundDuration":112433,"Delta":257401689},{"NoteNumber":91,"Velocity":93,"Duration":123047,"SoundDuration":123047,"Delta":257514122},{"NoteNumber":84,"Velocity":78,"Duration":123047,"SoundDuration":123047,"Delta":257514122},{"NoteNumber":79,"Velocity":78,"Duration":123047,"SoundDuration":123047,"Delta":257514122},{"NoteNumber":104,"Velocity":93,"Duration":130434,"SoundDuration":130434,"Delta":257637169},{"NoteNumber":100,"Velocity":93,"Duration":130434,"SoundDuration":130434,"Delta":257637169},{"NoteNumber":92,"Velocity":79,"Duration":130434,"SoundDuration":130434,"Delta":257637169},{"NoteNumber":107,"Velocity":94,"Duration":181818,"SoundDuration":181818,"Delta":257767604},{"NoteNumber":103,"Velocity":94,"Duration":181818,"SoundDuration":181818,"Delta":257767604},{"NoteNumber":95,"Velocity":79,"Duration":181818,"SoundDuration":181818,"Delta":257767604},{"NoteNumber":24,"Velocity":91,"Duration":1708414,"SoundDuration":1708414,"Delta":257949422},{"NoteNumber":36,"Velocity":120,"Duration":1334231,"SoundDuration":1334231,"Delta":257949422},{"NoteNumber":91,"Velocity":109,"Duration":111940,"SoundDuration":111940,"Delta":258214909},{"NoteNumber":88,"Velocity":84,"Duration":111940,"SoundDuration":111940,"Delta":258214909},{"NoteNumber":84,"Velocity":84,"Duration":111940,"SoundDuration":111940,"Delta":258214909},{"NoteNumber":79,"Velocity":84,"Duration":111940,"SoundDuration":111940,"Delta":258214909},{"NoteNumber":67,"Velocity":95,"Duration":111940,"SoundDuration":111940,"Delta":258214909},{"NoteNumber":64,"Velocity":73,"Duration":111940,"SoundDuration":111940,"Delta":258214909},{"NoteNumber":60,"Velocity":73,"Duration":111940,"SoundDuration":111940,"Delta":258214909},{"NoteNumber":55,"Velocity":73,"Duration":111940,"SoundDuration":111940,"Delta":258214909},{"NoteNumber":92,"Velocity":109,"Duration":1219047,"SoundDuration":1219047,"Delta":258438790},{"NoteNumber":88,"Velocity":76,"Duration":1219047,"SoundDuration":1219047,"Delta":258438790},{"NoteNumber":84,"Velocity":76,"Duration":1219047,"SoundDuration":1219047,"Delta":258438790},{"NoteNumber":80,"Velocity":76,"Duration":1219047,"SoundDuration":1219047,"Delta":258438790},{"NoteNumber":78,"Velocity":76,"Duration":1219047,"SoundDuration":1219047,"Delta":258438790},{"NoteNumber":68,"Velocity":95,"Duration":511450,"SoundDuration":511450,"Delta":258438790},{"NoteNumber":66,"Velocity":67,"Duration":511450,"SoundDuration":511450,"Delta":258438790},{"NoteNumber":64,"Velocity":67,"Duration":511450,"SoundDuration":511450,"Delta":258438790},{"NoteNumber":60,"Velocity":67,"Duration":511450,"SoundDuration":511450,"Delta":258438790},{"NoteNumber":56,"Velocity":67,"Duration":511450,"SoundDuration":511450,"Delta":258438790},{"NoteNumber":72,"Velocity":84,"Duration":118110,"SoundDuration":118110,"Delta":258714019},{"NoteNumber":76,"Velocity":105,"Duration":118110,"SoundDuration":118110,"Delta":258714019},{"NoteNumber":64,"Velocity":100,"Duration":118110,"SoundDuration":118110,"Delta":258832129},{"NoteNumber":60,"Velocity":84,"Duration":112359,"SoundDuration":112359,"Delta":258950240},{"NoteNumber":64,"Velocity":105,"Duration":112359,"SoundDuration":112359,"Delta":258950240},{"NoteNumber":52,"Velocity":99,"Duration":112359,"SoundDuration":112359,"Delta":259062599},{"NoteNumber":48,"Velocity":99,"Duration":108695,"SoundDuration":108695,"Delta":259174959},{"NoteNumber":36,"Velocity":84,"Duration":482878,"SoundDuration":482878,"Delta":259174959},{"NoteNumber":60,"Velocity":99,"Duration":108695,"SoundDuration":108695,"Delta":259283654},{"NoteNumber":48,"Velocity":84,"Duration":108695,"SoundDuration":108695,"Delta":259283654},{"NoteNumber":48,"Velocity":99,"Duration":132743,"SoundDuration":132743,"Delta":259392350},{"NoteNumber":31,"Velocity":84,"Duration":132743,"SoundDuration":132743,"Delta":259525093},{"NoteNumber":43,"Velocity":99,"Duration":132743,"SoundDuration":132743,"Delta":259525093},{"NoteNumber":36,"Velocity":89,"Duration":832388,"SoundDuration":832388,"Delta":259657837},{"NoteNumber":48,"Velocity":105,"Duration":832388,"SoundDuration":832388,"Delta":259657837},{"NoteNumber":67,"Velocity":84,"Duration":129870,"SoundDuration":129870,"Delta":259787707},{"NoteNumber":72,"Velocity":84,"Duration":129870,"SoundDuration":129870,"Delta":259787707},{"NoteNumber":76,"Velocity":84,"Duration":129870,"SoundDuration":129870,"Delta":259787707},{"NoteNumber":79,"Velocity":99,"Duration":129870,"SoundDuration":129870,"Delta":259787707},{"NoteNumber":64,"Velocity":87,"Duration":129870,"SoundDuration":129870,"Delta":259787707},{"NoteNumber":60,"Velocity":73,"Duration":129870,"SoundDuration":129870,"Delta":259787707},{"NoteNumber":55,"Velocity":73,"Duration":129870,"SoundDuration":129870,"Delta":259787707},{"NoteNumber":70,"Velocity":89,"Duration":376569,"SoundDuration":376569,"Delta":259917577},{"NoteNumber":73,"Velocity":89,"Duration":376569,"SoundDuration":376569,"Delta":259917577},{"NoteNumber":75,"Velocity":89,"Duration":376569,"SoundDuration":376569,"Delta":259917577},{"NoteNumber":78,"Velocity":89,"Duration":376569,"SoundDuration":376569,"Delta":259917577},{"NoteNumber":82,"Velocity":105,"Duration":376569,"SoundDuration":376569,"Delta":259917577},{"NoteNumber":66,"Velocity":96,"Duration":376569,"SoundDuration":376569,"Delta":259917577},{"NoteNumber":63,"Velocity":81,"Duration":376569,"SoundDuration":376569,"Delta":259917577},{"NoteNumber":61,"Velocity":81,"Duration":376569,"SoundDuration":376569,"Delta":259917577},{"NoteNumber":58,"Velocity":81,"Duration":376569,"SoundDuration":376569,"Delta":259917577},{"NoteNumber":67,"Velocity":84,"Duration":196078,"SoundDuration":196078,"Delta":260294146},{"NoteNumber":72,"Velocity":84,"Duration":196078,"SoundDuration":196078,"Delta":260294146},{"NoteNumber":76,"Velocity":84,"Duration":196078,"SoundDuration":196078,"Delta":260294146},{"NoteNumber":79,"Velocity":99,"Duration":196078,"SoundDuration":196078,"Delta":260294146},{"NoteNumber":64,"Velocity":91,"Duration":196078,"SoundDuration":196078,"Delta":260294146},{"NoteNumber":60,"Velocity":76,"Duration":196078,"SoundDuration":196078,"Delta":260294146},{"NoteNumber":55,"Velocity":76,"Duration":196078,"SoundDuration":196078,"Delta":260294146},{"NoteNumber":24,"Velocity":86,"Duration":1676867,"SoundDuration":1676867,"Delta":260490225},{"NoteNumber":36,"Velocity":113,"Duration":1304618,"SoundDuration":1304618,"Delta":260490225},{"NoteNumber":91,"Velocity":109,"Duration":104895,"SoundDuration":104895,"Delta":260730225},{"NoteNumber":88,"Velocity":84,"Duration":104895,"SoundDuration":104895,"Delta":260730225},{"NoteNumber":84,"Velocity":84,"Duration":104895,"SoundDuration":104895,"Delta":260730225},{"NoteNumber":79,"Velocity":84,"Duration":104895,"SoundDuration":104895,"Delta":260730225},{"NoteNumber":67,"Velocity":95,"Duration":104895,"SoundDuration":104895,"Delta":260730225},{"NoteNumber":64,"Velocity":73,"Duration":104895,"SoundDuration":104895,"Delta":260730225},{"NoteNumber":60,"Velocity":73,"Duration":104895,"SoundDuration":104895,"Delta":260730225},{"NoteNumber":55,"Velocity":73,"Duration":104895,"SoundDuration":104895,"Delta":260730225},{"NoteNumber":92,"Velocity":109,"Duration":1227077,"SoundDuration":1227077,"Delta":260940015},{"NoteNumber":88,"Velocity":76,"Duration":1227077,"SoundDuration":1227077,"Delta":260940015},{"NoteNumber":84,"Velocity":76,"Duration":1227077,"SoundDuration":1227077,"Delta":260940015},{"NoteNumber":80,"Velocity":76,"Duration":1227077,"SoundDuration":1227077,"Delta":260940015},{"NoteNumber":78,"Velocity":76,"Duration":1227077,"SoundDuration":1227077,"Delta":260940015},{"NoteNumber":68,"Velocity":95,"Duration":520172,"SoundDuration":520172,"Delta":260940015},{"NoteNumber":66,"Velocity":67,"Duration":520172,"SoundDuration":520172,"Delta":260940015},{"NoteNumber":64,"Velocity":67,"Duration":520172,"SoundDuration":520172,"Delta":260940015},{"NoteNumber":60,"Velocity":67,"Duration":520172,"SoundDuration":520172,"Delta":260940015},{"NoteNumber":56,"Velocity":67,"Duration":520172,"SoundDuration":520172,"Delta":260940015},{"NoteNumber":72,"Velocity":84,"Duration":118577,"SoundDuration":118577,"Delta":261223034},{"NoteNumber":76,"Velocity":105,"Duration":118577,"SoundDuration":118577,"Delta":261223034},{"NoteNumber":64,"Velocity":100,"Duration":118576,"SoundDuration":118576,"Delta":261341611},{"NoteNumber":60,"Velocity":84,"Duration":112781,"SoundDuration":112781,"Delta":261460188},{"NoteNumber":64,"Velocity":105,"Duration":112781,"SoundDuration":112781,"Delta":261460188},{"NoteNumber":52,"Velocity":99,"Duration":112782,"SoundDuration":112782,"Delta":261572970},{"NoteNumber":36,"Velocity":84,"Duration":481339,"SoundDuration":481339,"Delta":261685752},{"NoteNumber":48,"Velocity":99,"Duration":109090,"SoundDuration":109090,"Delta":261685752},{"NoteNumber":60,"Velocity":99,"Duration":109091,"SoundDuration":109091,"Delta":261794843},{"NoteNumber":48,"Velocity":84,"Duration":109091,"SoundDuration":109091,"Delta":261794843},{"NoteNumber":48,"Velocity":99,"Duration":131578,"SoundDuration":131578,"Delta":261903934},{"NoteNumber":31,"Velocity":84,"Duration":131578,"SoundDuration":131578,"Delta":262035513},{"NoteNumber":43,"Velocity":99,"Duration":131578,"SoundDuration":131578,"Delta":262035513},{"NoteNumber":36,"Velocity":89,"Duration":765087,"SoundDuration":765087,"Delta":262167092},{"NoteNumber":48,"Velocity":105,"Duration":765087,"SoundDuration":765087,"Delta":262167092},{"NoteNumber":67,"Velocity":84,"Duration":129310,"SoundDuration":129310,"Delta":262296402},{"NoteNumber":72,"Velocity":84,"Duration":129310,"SoundDuration":129310,"Delta":262296402},{"NoteNumber":76,"Velocity":84,"Duration":129310,"SoundDuration":129310,"Delta":262296402},{"NoteNumber":79,"Velocity":99,"Duration":129310,"SoundDuration":129310,"Delta":262296402},{"NoteNumber":64,"Velocity":87,"Duration":129310,"SoundDuration":129310,"Delta":262296402},{"NoteNumber":60,"Velocity":73,"Duration":129310,"SoundDuration":129310,"Delta":262296402},{"NoteNumber":55,"Velocity":73,"Duration":129310,"SoundDuration":129310,"Delta":262296402},{"NoteNumber":70,"Velocity":89,"Duration":368852,"SoundDuration":368852,"Delta":262425712},{"NoteNumber":73,"Velocity":89,"Duration":368852,"SoundDuration":368852,"Delta":262425712},{"NoteNumber":75,"Velocity":89,"Duration":368852,"SoundDuration":368852,"Delta":262425712},{"NoteNumber":78,"Velocity":89,"Duration":368852,"SoundDuration":368852,"Delta":262425712},{"NoteNumber":82,"Velocity":105,"Duration":368852,"SoundDuration":368852,"Delta":262425712},{"NoteNumber":66,"Velocity":96,"Duration":368852,"SoundDuration":368852,"Delta":262425712},{"NoteNumber":63,"Velocity":81,"Duration":368852,"SoundDuration":368852,"Delta":262425712},{"NoteNumber":61,"Velocity":81,"Duration":368852,"SoundDuration":368852,"Delta":262425712},{"NoteNumber":58,"Velocity":81,"Duration":368852,"SoundDuration":368852,"Delta":262425712},{"NoteNumber":67,"Velocity":84,"Duration":137614,"SoundDuration":137614,"Delta":262794565},{"NoteNumber":72,"Velocity":84,"Duration":137614,"SoundDuration":137614,"Delta":262794565},{"NoteNumber":76,"Velocity":84,"Duration":137614,"SoundDuration":137614,"Delta":262794565},{"NoteNumber":79,"Velocity":99,"Duration":137614,"SoundDuration":137614,"Delta":262794565},{"NoteNumber":64,"Velocity":91,"Duration":137614,"SoundDuration":137614,"Delta":262794565},{"NoteNumber":60,"Velocity":76,"Duration":137614,"SoundDuration":137614,"Delta":262794565},{"NoteNumber":55,"Velocity":76,"Duration":137614,"SoundDuration":137614,"Delta":262794565},{"NoteNumber":24,"Velocity":82,"Duration":127659,"SoundDuration":127659,"Delta":262932179},{"NoteNumber":91,"Velocity":98,"Duration":127659,"SoundDuration":127659,"Delta":263059839},{"NoteNumber":84,"Velocity":82,"Duration":127659,"SoundDuration":127659,"Delta":263059839},{"NoteNumber":88,"Velocity":82,"Duration":127659,"SoundDuration":127659,"Delta":263059839},{"NoteNumber":79,"Velocity":82,"Duration":127659,"SoundDuration":127659,"Delta":263059839},{"NoteNumber":36,"Velocity":76,"Duration":127659,"SoundDuration":127659,"Delta":263059839},{"NoteNumber":84,"Velocity":87,"Duration":238094,"SoundDuration":238094,"Delta":263187498},{"NoteNumber":78,"Velocity":87,"Duration":238094,"SoundDuration":238094,"Delta":263187498},{"NoteNumber":80,"Velocity":87,"Duration":238094,"SoundDuration":238094,"Delta":263187498},{"NoteNumber":88,"Velocity":87,"Duration":238094,"SoundDuration":238094,"Delta":263187498},{"NoteNumber":92,"Velocity":102,"Duration":238094,"SoundDuration":238094,"Delta":263187498},{"NoteNumber":36,"Velocity":76,"Duration":119047,"SoundDuration":119047,"Delta":263187498},{"NoteNumber":48,"Velocity":76,"Duration":119047,"SoundDuration":119047,"Delta":263306546},{"NoteNumber":36,"Velocity":75,"Duration":119047,"SoundDuration":119047,"Delta":263425593},{"NoteNumber":67,"Velocity":78,"Duration":137614,"SoundDuration":137614,"Delta":263544641},{"NoteNumber":72,"Velocity":78,"Duration":137614,"SoundDuration":137614,"Delta":263544641},{"NoteNumber":76,"Velocity":78,"Duration":137614,"SoundDuration":137614,"Delta":263544641},{"NoteNumber":79,"Velocity":93,"Duration":137614,"SoundDuration":137614,"Delta":263544641},{"NoteNumber":36,"Velocity":74,"Duration":137614,"SoundDuration":137614,"Delta":263544641},{"NoteNumber":66,"Velocity":82,"Duration":487804,"SoundDuration":487804,"Delta":263682256},{"NoteNumber":68,"Velocity":82,"Duration":487804,"SoundDuration":487804,"Delta":263682256},{"NoteNumber":72,"Velocity":82,"Duration":487804,"SoundDuration":487804,"Delta":263682256},{"NoteNumber":76,"Velocity":82,"Duration":487804,"SoundDuration":487804,"Delta":263682256},{"NoteNumber":80,"Velocity":97,"Duration":487804,"SoundDuration":487804,"Delta":263682256},{"NoteNumber":24,"Velocity":77,"Duration":121951,"SoundDuration":121951,"Delta":263682256},{"NoteNumber":36,"Velocity":71,"Duration":121951,"SoundDuration":121951,"Delta":263804207},{"NoteNumber":36,"Velocity":69,"Duration":121951,"SoundDuration":121951,"Delta":263926158},{"NoteNumber":48,"Velocity":68,"Duration":121951,"SoundDuration":121951,"Delta":264048109},{"NoteNumber":36,"Velocity":68,"Duration":121951,"SoundDuration":121951,"Delta":264170061},{"NoteNumber":36,"Velocity":67,"Duration":121951,"SoundDuration":121951,"Delta":264292012},{"NoteNumber":24,"Velocity":70,"Duration":127659,"SoundDuration":127659,"Delta":264413963},{"NoteNumber":60,"Velocity":63,"Duration":127659,"SoundDuration":127659,"Delta":264541623},{"NoteNumber":64,"Velocity":63,"Duration":127659,"SoundDuration":127659,"Delta":264541623},{"NoteNumber":67,"Velocity":74,"Duration":127659,"SoundDuration":127659,"Delta":264541623},{"NoteNumber":55,"Velocity":63,"Duration":127659,"SoundDuration":127659,"Delta":264541623},{"NoteNumber":36,"Velocity":65,"Duration":127659,"SoundDuration":127659,"Delta":264541623},{"NoteNumber":60,"Velocity":66,"Duration":238094,"SoundDuration":238094,"Delta":264669282},{"NoteNumber":54,"Velocity":66,"Duration":238094,"SoundDuration":238094,"Delta":264669282},{"NoteNumber":56,"Velocity":66,"Duration":238094,"SoundDuration":238094,"Delta":264669282},{"NoteNumber":64,"Velocity":66,"Duration":238094,"SoundDuration":238094,"Delta":264669282},{"NoteNumber":68,"Velocity":77,"Duration":238094,"SoundDuration":238094,"Delta":264669282},{"NoteNumber":36,"Velocity":65,"Duration":119047,"SoundDuration":119047,"Delta":264669282},{"NoteNumber":48,"Velocity":65,"Duration":119047,"SoundDuration":119047,"Delta":264788330},{"NoteNumber":36,"Velocity":63,"Duration":119047,"SoundDuration":119047,"Delta":264907377},{"NoteNumber":36,"Velocity":63,"Duration":119047,"SoundDuration":119047,"Delta":265026425},{"NoteNumber":24,"Velocity":65,"Duration":126582,"SoundDuration":126582,"Delta":265145472},{"NoteNumber":43,"Velocity":58,"Duration":126582,"SoundDuration":126582,"Delta":265272054},{"NoteNumber":48,"Velocity":58,"Duration":126582,"SoundDuration":126582,"Delta":265272054},{"NoteNumber":52,"Velocity":58,"Duration":126582,"SoundDuration":126582,"Delta":265272054},{"NoteNumber":55,"Velocity":70,"Duration":126582,"SoundDuration":126582,"Delta":265272054},{"NoteNumber":36,"Velocity":58,"Duration":126582,"SoundDuration":126582,"Delta":265272054},{"NoteNumber":42,"Velocity":56,"Duration":487804,"SoundDuration":487804,"Delta":265398637},{"NoteNumber":44,"Velocity":59,"Duration":487804,"SoundDuration":487804,"Delta":265398637},{"NoteNumber":48,"Velocity":61,"Duration":487804,"SoundDuration":487804,"Delta":265398637},{"NoteNumber":52,"Velocity":61,"Duration":487804,"SoundDuration":487804,"Delta":265398637},{"NoteNumber":56,"Velocity":73,"Duration":487804,"SoundDuration":487804,"Delta":265398637},{"NoteNumber":36,"Velocity":57,"Duration":121951,"SoundDuration":121951,"Delta":265398637},{"NoteNumber":48,"Velocity":56,"Duration":121951,"SoundDuration":121951,"Delta":265520588},{"NoteNumber":36,"Velocity":56,"Duration":121951,"SoundDuration":121951,"Delta":265642539},{"NoteNumber":36,"Velocity":55,"Duration":121951,"SoundDuration":121951,"Delta":265764490},{"NoteNumber":24,"Velocity":63,"Duration":127659,"SoundDuration":127659,"Delta":265886442},{"NoteNumber":36,"Velocity":55,"Duration":127659,"SoundDuration":127659,"Delta":266014101},{"NoteNumber":36,"Velocity":53,"Duration":119047,"SoundDuration":119047,"Delta":266141761},{"NoteNumber":48,"Velocity":58,"Duration":119047,"SoundDuration":119047,"Delta":266260808},{"NoteNumber":36,"Velocity":61,"Duration":119047,"SoundDuration":119047,"Delta":266379856},{"NoteNumber":36,"Velocity":48,"Duration":119047,"SoundDuration":119047,"Delta":266498903},{"NoteNumber":24,"Velocity":51,"Duration":127659,"SoundDuration":127659,"Delta":266617951},{"NoteNumber":43,"Velocity":52,"Duration":127659,"SoundDuration":127659,"Delta":266745610},{"NoteNumber":40,"Velocity":44,"Duration":603332,"SoundDuration":603332,"Delta":266745610},{"NoteNumber":36,"Velocity":46,"Duration":127659,"SoundDuration":127659,"Delta":266745610},{"NoteNumber":42,"Velocity":53,"Duration":475673,"SoundDuration":475673,"Delta":266873270},{"NoteNumber":44,"Velocity":61,"Duration":475673,"SoundDuration":475673,"Delta":266873270},{"NoteNumber":36,"Velocity":45,"Duration":120000,"SoundDuration":120000,"Delta":266873270},{"NoteNumber":48,"Velocity":44,"Duration":119047,"SoundDuration":119047,"Delta":266993270},{"NoteNumber":36,"Velocity":43,"Duration":118577,"SoundDuration":118577,"Delta":267112317},{"NoteNumber":36,"Velocity":42,"Duration":118048,"SoundDuration":118048,"Delta":267230894},{"NoteNumber":24,"Velocity":39,"Duration":115940,"SoundDuration":115940,"Delta":267348943},{"NoteNumber":36,"Velocity":39,"Duration":118281,"SoundDuration":118281,"Delta":267464883},{"NoteNumber":24,"Velocity":39,"Duration":117408,"SoundDuration":117408,"Delta":267583165},{"NoteNumber":36,"Velocity":38,"Duration":116728,"SoundDuration":116728,"Delta":267700574},{"NoteNumber":24,"Velocity":38,"Duration":118329,"SoundDuration":118329,"Delta":267817302},{"NoteNumber":36,"Velocity":38,"Duration":115803,"SoundDuration":115803,"Delta":267935631},{"NoteNumber":24,"Velocity":37,"Duration":114670,"SoundDuration":114670,"Delta":268051435},{"NoteNumber":36,"Velocity":36,"Duration":117173,"SoundDuration":117173,"Delta":268166105},{"NoteNumber":24,"Velocity":36,"Duration":114940,"SoundDuration":114940,"Delta":268283279},{"NoteNumber":36,"Velocity":34,"Duration":118161,"SoundDuration":118161,"Delta":268398219},{"NoteNumber":24,"Velocity":34,"Duration":115619,"SoundDuration":115619,"Delta":268516381},{"NoteNumber":36,"Velocity":34,"Duration":116785,"SoundDuration":116785,"Delta":268632000},{"NoteNumber":24,"Velocity":32,"Duration":118736,"SoundDuration":118736,"Delta":268748786},{"NoteNumber":36,"Velocity":32,"Duration":114573,"SoundDuration":114573,"Delta":268867523},{"NoteNumber":24,"Velocity":31,"Duration":116717,"SoundDuration":116717,"Delta":268982096},{"NoteNumber":36,"Velocity":30,"Duration":116725,"SoundDuration":116725,"Delta":269098813},{"NoteNumber":24,"Velocity":30,"Duration":114625,"SoundDuration":114625,"Delta":269215539},{"NoteNumber":36,"Velocity":29,"Duration":118175,"SoundDuration":118175,"Delta":269330164},{"NoteNumber":24,"Velocity":32,"Duration":116606,"SoundDuration":116606,"Delta":269448340},{"NoteNumber":36,"Velocity":39,"Duration":118615,"SoundDuration":118615,"Delta":269564946},{"NoteNumber":31,"Velocity":35,"Duration":297846,"SoundDuration":297846,"Delta":269624219},{"NoteNumber":36,"Velocity":41,"Duration":268388,"SoundDuration":268388,"Delta":269653677},{"NoteNumber":40,"Velocity":54,"Duration":238504,"SoundDuration":238504,"Delta":269683561},{"NoteNumber":24,"Velocity":31,"Duration":118912,"SoundDuration":118912,"Delta":269683561},{"NoteNumber":36,"Velocity":26,"Duration":119591,"SoundDuration":119591,"Delta":269802474},{"NoteNumber":24,"Velocity":26,"Duration":116996,"SoundDuration":116996,"Delta":269922065},{"NoteNumber":36,"Velocity":26,"Duration":117520,"SoundDuration":117520,"Delta":270039062},{"NoteNumber":24,"Velocity":25,"Duration":60192,"SoundDuration":60192,"Delta":270156583},{"NoteNumber":25,"Velocity":21,"Duration":59227,"SoundDuration":59227,"Delta":270216775},{"NoteNumber":24,"Velocity":25,"Duration":58276,"SoundDuration":58276,"Delta":270276003},{"NoteNumber":25,"Velocity":21,"Duration":58326,"SoundDuration":58326,"Delta":270334279},{"NoteNumber":24,"Velocity":25,"Duration":60226,"SoundDuration":60226,"Delta":270392606},{"NoteNumber":25,"Velocity":22,"Duration":59222,"SoundDuration":59222,"Delta":270452833},{"NoteNumber":24,"Velocity":26,"Duration":57723,"SoundDuration":57723,"Delta":270512055},{"NoteNumber":25,"Velocity":22,"Duration":57712,"SoundDuration":57712,"Delta":270569778},{"NoteNumber":24,"Velocity":26,"Duration":60035,"SoundDuration":60035,"Delta":270627491},{"NoteNumber":25,"Velocity":21,"Duration":59074,"SoundDuration":59074,"Delta":270687526},{"NoteNumber":24,"Velocity":26,"Duration":58248,"SoundDuration":58248,"Delta":270746601},{"NoteNumber":25,"Velocity":21,"Duration":59936,"SoundDuration":59936,"Delta":270804850},{"NoteNumber":24,"Velocity":27,"Duration":60066,"SoundDuration":60066,"Delta":270864787},{"NoteNumber":25,"Velocity":22,"Duration":58641,"SoundDuration":58641,"Delta":270924853},{"NoteNumber":24,"Velocity":27,"Duration":57605,"SoundDuration":57605,"Delta":270983495},{"NoteNumber":25,"Velocity":23,"Duration":58657,"SoundDuration":58657,"Delta":271041100},{"NoteNumber":24,"Velocity":27,"Duration":59055,"SoundDuration":59055,"Delta":271099757},{"NoteNumber":25,"Velocity":23,"Duration":58297,"SoundDuration":58297,"Delta":271158812},{"NoteNumber":24,"Velocity":27,"Duration":56590,"SoundDuration":56590,"Delta":271217110},{"NoteNumber":25,"Velocity":23,"Duration":57414,"SoundDuration":57414,"Delta":271273700},{"NoteNumber":24,"Velocity":29,"Duration":57195,"SoundDuration":57195,"Delta":271331115},{"NoteNumber":25,"Velocity":23,"Duration":56349,"SoundDuration":56349,"Delta":271388310},{"NoteNumber":24,"Velocity":29,"Duration":56851,"SoundDuration":56851,"Delta":271444659},{"NoteNumber":25,"Velocity":24,"Duration":57530,"SoundDuration":57530,"Delta":271501511},{"NoteNumber":24,"Velocity":29,"Duration":57194,"SoundDuration":57194,"Delta":271559042},{"NoteNumber":25,"Velocity":25,"Duration":59510,"SoundDuration":59510,"Delta":271616236},{"NoteNumber":24,"Velocity":30,"Duration":59180,"SoundDuration":59180,"Delta":271675747},{"NoteNumber":25,"Velocity":26,"Duration":59883,"SoundDuration":59883,"Delta":271734928},{"NoteNumber":24,"Velocity":30,"Duration":60340,"SoundDuration":60340,"Delta":271794812},{"NoteNumber":25,"Velocity":26,"Duration":59383,"SoundDuration":59383,"Delta":271855153},{"NoteNumber":24,"Velocity":32,"Duration":59148,"SoundDuration":59148,"Delta":271914536},{"NoteNumber":25,"Velocity":26,"Duration":60582,"SoundDuration":60582,"Delta":271973685},{"NoteNumber":24,"Velocity":32,"Duration":59939,"SoundDuration":59939,"Delta":272034267},{"NoteNumber":25,"Velocity":26,"Duration":58978,"SoundDuration":58978,"Delta":272094207},{"NoteNumber":24,"Velocity":32,"Duration":58994,"SoundDuration":58994,"Delta":272153186},{"NoteNumber":25,"Velocity":27,"Duration":59888,"SoundDuration":59888,"Delta":272212180},{"NoteNumber":24,"Velocity":34,"Duration":60083,"SoundDuration":60083,"Delta":272272069},{"NoteNumber":25,"Velocity":28,"Duration":60976,"SoundDuration":60976,"Delta":272332152},{"NoteNumber":24,"Velocity":34,"Duration":61729,"SoundDuration":61729,"Delta":272393129},{"NoteNumber":25,"Velocity":29,"Duration":62241,"SoundDuration":62241,"Delta":272454858},{"NoteNumber":24,"Velocity":34,"Duration":63025,"SoundDuration":63025,"Delta":272517099},{"NoteNumber":25,"Velocity":30,"Duration":63649,"SoundDuration":63649,"Delta":272580125},{"NoteNumber":24,"Velocity":35,"Duration":64378,"SoundDuration":64378,"Delta":272643775},{"NoteNumber":25,"Velocity":30,"Duration":65123,"SoundDuration":65123,"Delta":272708153},{"NoteNumber":24,"Velocity":36,"Duration":65790,"SoundDuration":65790,"Delta":272773276},{"NoteNumber":25,"Velocity":29,"Duration":66667,"SoundDuration":66667,"Delta":272839067},{"NoteNumber":24,"Velocity":36,"Duration":67265,"SoundDuration":67265,"Delta":272905734},{"NoteNumber":25,"Velocity":29,"Duration":68182,"SoundDuration":68182,"Delta":272973000},{"NoteNumber":36,"Velocity":68,"Duration":820277,"SoundDuration":820277,"Delta":273041182},{"NoteNumber":48,"Velocity":72,"Duration":820277,"SoundDuration":820277,"Delta":273041182},{"NoteNumber":24,"Velocity":37,"Duration":67630,"SoundDuration":67630,"Delta":273041182},{"NoteNumber":25,"Velocity":32,"Duration":68767,"SoundDuration":68767,"Delta":273108813},{"NoteNumber":24,"Velocity":39,"Duration":67408,"SoundDuration":67408,"Delta":273177580},{"NoteNumber":25,"Velocity":33,"Duration":67888,"SoundDuration":67888,"Delta":273244989},{"NoteNumber":24,"Velocity":41,"Duration":69578,"SoundDuration":69578,"Delta":273312877},{"NoteNumber":25,"Velocity":35,"Duration":67690,"SoundDuration":67690,"Delta":273382455},{"NoteNumber":24,"Velocity":43,"Duration":66906,"SoundDuration":66906,"Delta":273450146},{"NoteNumber":25,"Velocity":37,"Duration":69319,"SoundDuration":69319,"Delta":273517052},{"NoteNumber":24,"Velocity":45,"Duration":69255,"SoundDuration":69255,"Delta":273586372},{"NoteNumber":25,"Velocity":38,"Duration":67752,"SoundDuration":67752,"Delta":273655627},{"NoteNumber":24,"Velocity":48,"Duration":66746,"SoundDuration":66746,"Delta":273723380},{"NoteNumber":25,"Velocity":40,"Duration":71333,"SoundDuration":71333,"Delta":273790126},{"NoteNumber":37,"Velocity":70,"Duration":813566,"SoundDuration":813566,"Delta":273861460},{"NoteNumber":49,"Velocity":75,"Duration":813566,"SoundDuration":813566,"Delta":273861460},{"NoteNumber":24,"Velocity":50,"Duration":70219,"SoundDuration":70219,"Delta":273861460},{"NoteNumber":25,"Velocity":43,"Duration":67856,"SoundDuration":67856,"Delta":273931679},{"NoteNumber":24,"Velocity":52,"Duration":66706,"SoundDuration":66706,"Delta":273999535},{"NoteNumber":25,"Velocity":46,"Duration":66666,"SoundDuration":66666,"Delta":274066242},{"NoteNumber":24,"Velocity":55,"Duration":66666,"SoundDuration":66666,"Delta":274132908},{"NoteNumber":25,"Velocity":47,"Duration":67426,"SoundDuration":67426,"Delta":274199575},{"NoteNumber":24,"Velocity":58,"Duration":68458,"SoundDuration":68458,"Delta":274267002},{"NoteNumber":25,"Velocity":49,"Duration":67126,"SoundDuration":67126,"Delta":274335460},{"NoteNumber":24,"Velocity":61,"Duration":69282,"SoundDuration":69282,"Delta":274402587},{"NoteNumber":25,"Velocity":50,"Duration":68961,"SoundDuration":68961,"Delta":274471870},{"NoteNumber":24,"Velocity":63,"Duration":67427,"SoundDuration":67427,"Delta":274540831},{"NoteNumber":25,"Velocity":52,"Duration":66766,"SoundDuration":66766,"Delta":274608259},{"NoteNumber":60,"Velocity":83,"Duration":1277538,"SoundDuration":1277538,"Delta":274675026},{"NoteNumber":48,"Velocity":80,"Duration":1114956,"SoundDuration":1114956,"Delta":274675026},{"NoteNumber":24,"Velocity":66,"Duration":68452,"SoundDuration":68452,"Delta":274675026},{"NoteNumber":37,"Velocity":56,"Duration":68558,"SoundDuration":68558,"Delta":274743478},{"NoteNumber":24,"Velocity":68,"Duration":68493,"SoundDuration":68493,"Delta":274812037},{"NoteNumber":37,"Velocity":57,"Duration":68807,"SoundDuration":68807,"Delta":274880530},{"NoteNumber":24,"Velocity":69,"Duration":69231,"SoundDuration":69231,"Delta":274949337},{"NoteNumber":37,"Velocity":58,"Duration":70094,"SoundDuration":70094,"Delta":275018568},{"NoteNumber":24,"Velocity":70,"Duration":71091,"SoundDuration":71091,"Delta":275088663},{"NoteNumber":37,"Velocity":58,"Duration":72116,"SoundDuration":72116,"Delta":275159754},{"NoteNumber":24,"Velocity":81,"Duration":73292,"SoundDuration":73292,"Delta":275231870},{"NoteNumber":37,"Velocity":69,"Duration":75381,"SoundDuration":75381,"Delta":275305163},{"NoteNumber":24,"Velocity":86,"Duration":77725,"SoundDuration":77725,"Delta":275380545},{"NoteNumber":37,"Velocity":78,"Duration":80220,"SoundDuration":80220,"Delta":275458271},{"NoteNumber":25,"Velocity":101,"Duration":822628,"SoundDuration":822628,"Delta":275538491},{"NoteNumber":46,"Velocity":71,"Duration":56142,"SoundDuration":56142,"Delta":275622853},{"NoteNumber":46,"Velocity":73,"Duration":682124,"SoundDuration":682124,"Delta":275678996},{"NoteNumber":48,"Velocity":68,"Duration":626331,"SoundDuration":626331,"Delta":275734789},{"NoteNumber":49,"Velocity":70,"Duration":54753,"SoundDuration":54753,"Delta":275789982},{"NoteNumber":53,"Velocity":73,"Duration":54176,"SoundDuration":54176,"Delta":275844736},{"NoteNumber":60,"Velocity":73,"Duration":462207,"SoundDuration":462207,"Delta":275898912},{"NoteNumber":61,"Velocity":75,"Duration":53215,"SoundDuration":53215,"Delta":275952564},{"NoteNumber":65,"Velocity":77,"Duration":52708,"SoundDuration":52708,"Delta":276005779},{"NoteNumber":72,"Velocity":81,"Duration":52631,"SoundDuration":52631,"Delta":276058488},{"NoteNumber":84,"Velocity":94,"Duration":607188,"SoundDuration":607188,"Delta":276111120},{"NoteNumber":77,"Velocity":77,"Duration":125000,"SoundDuration":125000,"Delta":276236120},{"NoteNumber":73,"Velocity":89,"Duration":118110,"SoundDuration":118110,"Delta":276361120},{"NoteNumber":65,"Velocity":94,"Duration":720091,"SoundDuration":720091,"Delta":276361120},{"NoteNumber":61,"Velocity":76,"Duration":720091,"SoundDuration":720091,"Delta":276361120},{"NoteNumber":53,"Velocity":73,"Duration":720091,"SoundDuration":720091,"Delta":276361120},{"NoteNumber":72,"Velocity":81,"Duration":118110,"SoundDuration":118110,"Delta":276479230},{"NoteNumber":73,"Velocity":80,"Duration":120967,"SoundDuration":120967,"Delta":276597340},{"NoteNumber":82,"Velocity":91,"Duration":362903,"SoundDuration":362903,"Delta":276718308},{"NoteNumber":58,"Velocity":83,"Duration":362903,"SoundDuration":362903,"Delta":276718308},{"NoteNumber":77,"Velocity":74,"Duration":120967,"SoundDuration":120967,"Delta":276839276},{"NoteNumber":73,"Velocity":73,"Duration":120967,"SoundDuration":120967,"Delta":276960244},{"NoteNumber":80,"Velocity":84,"Duration":717222,"SoundDuration":717222,"Delta":277081211},{"NoteNumber":56,"Velocity":75,"Duration":717222,"SoundDuration":717222,"Delta":277081211},{"NoteNumber":73,"Velocity":71,"Duration":118576,"SoundDuration":118576,"Delta":277199788},{"NoteNumber":68,"Velocity":71,"Duration":118577,"SoundDuration":118577,"Delta":277318365},{"NoteNumber":68,"Velocity":70,"Duration":118577,"SoundDuration":118577,"Delta":277436942},{"NoteNumber":34,"Velocity":73,"Duration":2995421,"SoundDuration":2995421,"Delta":277436942},{"NoteNumber":61,"Velocity":69,"Duration":121457,"SoundDuration":121457,"Delta":277555519},{"NoteNumber":56,"Velocity":69,"Duration":121457,"SoundDuration":121457,"Delta":277676977},{"NoteNumber":67,"Velocity":74,"Duration":713858,"SoundDuration":713858,"Delta":277798434},{"NoteNumber":55,"Velocity":60,"Duration":713858,"SoundDuration":713858,"Delta":277798434},{"NoteNumber":61,"Velocity":64,"Duration":121457,"SoundDuration":121457,"Delta":277919892},{"NoteNumber":56,"Velocity":64,"Duration":114503,"SoundDuration":114503,"Delta":278041349},{"NoteNumber":55,"Velocity":61,"Duration":114503,"SoundDuration":114503,"Delta":278155853},{"NoteNumber":44,"Velocity":54,"Duration":2276510,"SoundDuration":2276510,"Delta":278155853},{"NoteNumber":49,"Velocity":54,"Duration":2276510,"SoundDuration":2276510,"Delta":278155853},{"NoteNumber":56,"Velocity":60,"Duration":120967,"SoundDuration":120967,"Delta":278270357},{"NoteNumber":61,"Velocity":59,"Duration":120967,"SoundDuration":120967,"Delta":278391325},{"NoteNumber":65,"Velocity":67,"Duration":730342,"SoundDuration":730342,"Delta":278512292},{"NoteNumber":53,"Velocity":56,"Duration":1920071,"SoundDuration":1920071,"Delta":278512292},{"NoteNumber":61,"Velocity":54,"Duration":120967,"SoundDuration":120967,"Delta":278632774},{"NoteNumber":56,"Velocity":52,"Duration":121457,"SoundDuration":121457,"Delta":278753742},{"NoteNumber":53,"Velocity":49,"Duration":121951,"SoundDuration":121951,"Delta":278875200},{"NoteNumber":49,"Velocity":49,"Duration":122449,"SoundDuration":122449,"Delta":278997151},{"NoteNumber":44,"Velocity":45,"Duration":123035,"SoundDuration":123035,"Delta":279119600},{"NoteNumber":48,"Velocity":55,"Duration":123711,"SoundDuration":123711,"Delta":279242635},{"NoteNumber":60,"Velocity":50,"Duration":381781,"SoundDuration":381781,"Delta":279242635},{"NoteNumber":44,"Velocity":43,"Duration":124657,"SoundDuration":124657,"Delta":279366347},{"NoteNumber":41,"Velocity":40,"Duration":133412,"SoundDuration":133412,"Delta":279491004},{"NoteNumber":36,"Velocity":39,"Duration":148630,"SoundDuration":148630,"Delta":279624416},{"NoteNumber":32,"Velocity":37,"Duration":167513,"SoundDuration":167513,"Delta":279773047},{"NoteNumber":29,"Velocity":31,"Duration":491803,"SoundDuration":491803,"Delta":279940560},{"NoteNumber":21,"Velocity":33,"Duration":952381,"SoundDuration":952381,"Delta":280432363},{"NoteNumber":31,"Velocity":39,"Duration":952381,"SoundDuration":952381,"Delta":280432363},{"NoteNumber":22,"Velocity":29,"Duration":952381,"SoundDuration":952381,"Delta":281384744},{"NoteNumber":32,"Velocity":35,"Duration":952381,"SoundDuration":952381,"Delta":281384744},{"NoteNumber":27,"Velocity":27,"Duration":937500,"SoundDuration":937500,"Delta":282337125},{"NoteNumber":39,"Velocity":33,"Duration":937500,"SoundDuration":937500,"Delta":282337125},{"NoteNumber":50,"Velocity":37,"Duration":3842562,"SoundDuration":3842562,"Delta":284212125},{"NoteNumber":52,"Velocity":37,"Duration":3842562,"SoundDuration":3842562,"Delta":284212125},{"NoteNumber":56,"Velocity":37,"Duration":3842562,"SoundDuration":3842562,"Delta":284212125},{"NoteNumber":59,"Velocity":37,"Duration":3842562,"SoundDuration":3842562,"Delta":284212125},{"NoteNumber":64,"Velocity":49,"Duration":3842562,"SoundDuration":3842562,"Delta":284212125},{"NoteNumber":51,"Velocity":53,"Duration":63568,"SoundDuration":63568,"Delta":284212125},{"NoteNumber":51,"Velocity":45,"Duration":63921,"SoundDuration":63921,"Delta":284340349},{"NoteNumber":51,"Velocity":45,"Duration":62327,"SoundDuration":62327,"Delta":284467474},{"NoteNumber":51,"Velocity":41,"Duration":60811,"SoundDuration":60811,"Delta":284591446},{"NoteNumber":51,"Velocity":45,"Duration":59367,"SoundDuration":59367,"Delta":284712419},{"NoteNumber":51,"Velocity":38,"Duration":57990,"SoundDuration":57990,"Delta":284830535},{"NoteNumber":51,"Velocity":40,"Duration":56675,"SoundDuration":56675,"Delta":284945924},{"NoteNumber":51,"Velocity":38,"Duration":55419,"SoundDuration":55419,"Delta":285058710},{"NoteNumber":51,"Velocity":45,"Duration":54116,"SoundDuration":54116,"Delta":285169008},{"NoteNumber":51,"Velocity":39,"Duration":52546,"SoundDuration":52546,"Delta":285276316},{"NoteNumber":51,"Velocity":41,"Duration":53500,"SoundDuration":53500,"Delta":285381310},{"NoteNumber":51,"Velocity":37,"Duration":55040,"SoundDuration":55040,"Delta":285489029},{"NoteNumber":51,"Velocity":45,"Duration":53044,"SoundDuration":53044,"Delta":285598421},{"NoteNumber":51,"Velocity":40,"Duration":51606,"SoundDuration":51606,"Delta":285703574},{"NoteNumber":51,"Velocity":41,"Duration":52375,"SoundDuration":52375,"Delta":285806739},{"NoteNumber":51,"Velocity":37,"Duration":53956,"SoundDuration":53956,"Delta":285912538},{"NoteNumber":51,"Velocity":45,"Duration":53044,"SoundDuration":53044,"Delta":286020451},{"NoteNumber":51,"Velocity":40,"Duration":50952,"SoundDuration":50952,"Delta":286125367},{"NoteNumber":51,"Velocity":42,"Duration":51163,"SoundDuration":51163,"Delta":286226995},{"NoteNumber":51,"Velocity":38,"Duration":52398,"SoundDuration":52398,"Delta":286330121},{"NoteNumber":51,"Velocity":45,"Duration":51441,"SoundDuration":51441,"Delta":286434968},{"NoteNumber":51,"Velocity":38,"Duration":49713,"SoundDuration":49713,"Delta":286536884},{"NoteNumber":51,"Velocity":41,"Duration":50952,"SoundDuration":50952,"Delta":286636621},{"NoteNumber":51,"Velocity":38,"Duration":51253,"SoundDuration":51253,"Delta":286738944},{"NoteNumber":51,"Velocity":45,"Duration":47832,"SoundDuration":47832,"Delta":286839180},{"NoteNumber":51,"Velocity":38,"Duration":47879,"SoundDuration":47879,"Delta":286934481},{"NoteNumber":51,"Velocity":35,"Duration":49735,"SoundDuration":49735,"Delta":287031359},{"NoteNumber":51,"Velocity":38,"Duration":49429,"SoundDuration":49429,"Delta":287131094},{"NoteNumber":51,"Velocity":41,"Duration":49277,"SoundDuration":49277,"Delta":287229866},{"NoteNumber":51,"Velocity":34,"Duration":48914,"SoundDuration":48914,"Delta":287327951},{"NoteNumber":51,"Velocity":38,"Duration":52301,"SoundDuration":52301,"Delta":287428012},{"NoteNumber":51,"Velocity":34,"Duration":52206,"SoundDuration":52206,"Delta":287532762},{"NoteNumber":51,"Velocity":35,"Duration":50813,"SoundDuration":50813,"Delta":287636361},{"NoteNumber":51,"Velocity":35,"Duration":50790,"SoundDuration":50790,"Delta":287737851},{"NoteNumber":51,"Velocity":35,"Duration":53269,"SoundDuration":53269,"Delta":287840704},{"NoteNumber":51,"Velocity":34,"Duration":53571,"SoundDuration":53571,"Delta":287947545},{"NoteNumber":50,"Velocity":33,"Duration":1279850,"SoundDuration":1279850,"Delta":288054688},{"NoteNumber":52,"Velocity":33,"Duration":1279850,"SoundDuration":1279850,"Delta":288054688},{"NoteNumber":56,"Velocity":33,"Duration":1279850,"SoundDuration":1279850,"Delta":288054688},{"NoteNumber":59,"Velocity":39,"Duration":1279850,"SoundDuration":1279850,"Delta":288054688},{"NoteNumber":51,"Velocity":34,"Duration":54269,"SoundDuration":54269,"Delta":288054688},{"NoteNumber":51,"Velocity":33,"Duration":52061,"SoundDuration":52061,"Delta":288162305},{"NoteNumber":51,"Velocity":33,"Duration":50953,"SoundDuration":50953,"Delta":288265901},{"NoteNumber":51,"Velocity":32,"Duration":51277,"SoundDuration":51277,"Delta":288367530},{"NoteNumber":51,"Velocity":32,"Duration":54665,"SoundDuration":54665,"Delta":288472858},{"NoteNumber":51,"Velocity":32,"Duration":53242,"SoundDuration":53242,"Delta":288581507},{"NoteNumber":51,"Velocity":31,"Duration":53191,"SoundDuration":53191,"Delta":288687941},{"NoteNumber":51,"Velocity":31,"Duration":52496,"SoundDuration":52496,"Delta":288794074},{"NoteNumber":51,"Velocity":30,"Duration":54269,"SoundDuration":54269,"Delta":288900121},{"NoteNumber":51,"Velocity":30,"Duration":54347,"SoundDuration":54347,"Delta":289008452},{"NoteNumber":51,"Velocity":29,"Duration":54347,"SoundDuration":54347,"Delta":289117147},{"NoteNumber":51,"Velocity":28,"Duration":54347,"SoundDuration":54347,"Delta":289225843},{"NoteNumber":51,"Velocity":27,"Duration":54480,"SoundDuration":54480,"Delta":289334539},{"NoteNumber":51,"Velocity":27,"Duration":55693,"SoundDuration":55693,"Delta":289444032},{"NoteNumber":51,"Velocity":26,"Duration":56962,"SoundDuration":56962,"Delta":289555976},{"NoteNumber":51,"Velocity":25,"Duration":58290,"SoundDuration":58290,"Delta":289670484},{"NoteNumber":51,"Velocity":24,"Duration":59682,"SoundDuration":59682,"Delta":289787677},{"NoteNumber":51,"Velocity":24,"Duration":61142,"SoundDuration":61142,"Delta":289907682},{"NoteNumber":51,"Velocity":23,"Duration":62675,"SoundDuration":62675,"Delta":290030638},{"NoteNumber":51,"Velocity":22,"Duration":64286,"SoundDuration":64286,"Delta":290156695},{"NoteNumber":21,"Velocity":30,"Duration":952381,"SoundDuration":952381,"Delta":293336858},{"NoteNumber":31,"Velocity":36,"Duration":952381,"SoundDuration":952381,"Delta":293336858},{"NoteNumber":22,"Velocity":27,"Duration":952381,"SoundDuration":952381,"Delta":294289239},{"NoteNumber":32,"Velocity":32,"Duration":952381,"SoundDuration":952381,"Delta":294289239},{"NoteNumber":27,"Velocity":25,"Duration":937500,"SoundDuration":937500,"Delta":295241620},{"NoteNumber":39,"Velocity":30,"Duration":937500,"SoundDuration":937500,"Delta":295241620},{"NoteNumber":38,"Velocity":35,"Duration":3810517,"SoundDuration":3810517,"Delta":297116620},{"NoteNumber":40,"Velocity":35,"Duration":3810517,"SoundDuration":3810517,"Delta":297116620},{"NoteNumber":44,"Velocity":35,"Duration":3810517,"SoundDuration":3810517,"Delta":297116620},{"NoteNumber":47,"Velocity":35,"Duration":3810517,"SoundDuration":3810517,"Delta":297116620},{"NoteNumber":52,"Velocity":46,"Duration":3810517,"SoundDuration":3810517,"Delta":297116620},{"NoteNumber":51,"Velocity":53,"Duration":63025,"SoundDuration":63025,"Delta":297116620},{"NoteNumber":51,"Velocity":45,"Duration":62158,"SoundDuration":62158,"Delta":297242321},{"NoteNumber":51,"Velocity":45,"Duration":60483,"SoundDuration":60483,"Delta":297365954},{"NoteNumber":51,"Velocity":41,"Duration":59367,"SoundDuration":59367,"Delta":297486282},{"NoteNumber":51,"Velocity":45,"Duration":58139,"SoundDuration":58139,"Delta":297604705},{"NoteNumber":51,"Velocity":38,"Duration":56964,"SoundDuration":56964,"Delta":297720392},{"NoteNumber":51,"Velocity":40,"Duration":55970,"SoundDuration":55970,"Delta":297833748},{"NoteNumber":51,"Velocity":38,"Duration":54880,"SoundDuration":54880,"Delta":297945140},{"NoteNumber":51,"Velocity":45,"Duration":53571,"SoundDuration":53571,"Delta":298054368},{"NoteNumber":51,"Velocity":39,"Duration":52012,"SoundDuration":52012,"Delta":298160910},{"NoteNumber":51,"Velocity":41,"Duration":53356,"SoundDuration":53356,"Delta":298264504},{"NoteNumber":51,"Velocity":37,"Duration":55067,"SoundDuration":55067,"Delta":298373146},{"NoteNumber":51,"Velocity":45,"Duration":52595,"SoundDuration":52595,"Delta":298481660},{"NoteNumber":51,"Velocity":40,"Duration":53191,"SoundDuration":53191,"Delta":298586901},{"NoteNumber":51,"Velocity":41,"Duration":54744,"SoundDuration":54744,"Delta":298693999},{"NoteNumber":51,"Velocity":37,"Duration":55093,"SoundDuration":55093,"Delta":298803488},{"NoteNumber":51,"Velocity":45,"Duration":53571,"SoundDuration":53571,"Delta":298913141},{"NoteNumber":51,"Velocity":40,"Duration":52496,"SoundDuration":52496,"Delta":299019931},{"NoteNumber":51,"Velocity":42,"Duration":52447,"SoundDuration":52447,"Delta":299124875},{"NoteNumber":51,"Velocity":38,"Duration":53699,"SoundDuration":53699,"Delta":299230367},{"NoteNumber":51,"Velocity":45,"Duration":53956,"SoundDuration":53956,"Delta":299338024},{"NoteNumber":51,"Velocity":38,"Duration":52289,"SoundDuration":52289,"Delta":299446094},{"NoteNumber":51,"Velocity":41,"Duration":49870,"SoundDuration":49870,"Delta":299549243},{"NoteNumber":51,"Velocity":38,"Duration":50067,"SoundDuration":50067,"Delta":299648414},{"NoteNumber":51,"Velocity":45,"Duration":51020,"SoundDuration":51020,"Delta":299748999},{"NoteNumber":51,"Velocity":38,"Duration":49870,"SoundDuration":49870,"Delta":299850948},{"NoteNumber":51,"Velocity":35,"Duration":47832,"SoundDuration":47832,"Delta":299949395},{"NoteNumber":51,"Velocity":38,"Duration":48724,"SoundDuration":48724,"Delta":300044979},{"NoteNumber":51,"Velocity":41,"Duration":48638,"SoundDuration":48638,"Delta":300143024},{"NoteNumber":51,"Velocity":34,"Duration":47508,"SoundDuration":47508,"Delta":300239761},{"NoteNumber":51,"Velocity":38,"Duration":47409,"SoundDuration":47409,"Delta":300334459},{"NoteNumber":51,"Velocity":34,"Duration":49408,"SoundDuration":49408,"Delta":300430219},{"NoteNumber":51,"Velocity":37,"Duration":49477,"SoundDuration":49477,"Delta":300529605},{"NoteNumber":51,"Velocity":35,"Duration":48387,"SoundDuration":48387,"Delta":300627574},{"NoteNumber":51,"Velocity":37,"Duration":50615,"SoundDuration":50615,"Delta":300725285},{"NoteNumber":51,"Velocity":33,"Duration":50315,"SoundDuration":50315,"Delta":300827437},{"NoteNumber":38,"Velocity":31,"Duration":1259751,"SoundDuration":1259751,"Delta":300927138},{"NoteNumber":40,"Velocity":31,"Duration":1259751,"SoundDuration":1259751,"Delta":300927138},{"NoteNumber":44,"Velocity":31,"Duration":1259751,"SoundDuration":1259751,"Delta":300927138},{"NoteNumber":47,"Velocity":37,"Duration":1259751,"SoundDuration":1259751,"Delta":300927138},{"NoteNumber":51,"Velocity":35,"Duration":48955,"SoundDuration":48955,"Delta":300927138},{"NoteNumber":51,"Velocity":35,"Duration":50890,"SoundDuration":50890,"Delta":301025053},{"NoteNumber":51,"Velocity":34,"Duration":51027,"SoundDuration":51027,"Delta":301127668},{"NoteNumber":51,"Velocity":34,"Duration":50156,"SoundDuration":50156,"Delta":301229030},{"NoteNumber":51,"Velocity":33,"Duration":52301,"SoundDuration":52301,"Delta":301330399},{"NoteNumber":51,"Velocity":33,"Duration":53905,"SoundDuration":53905,"Delta":301435746},{"NoteNumber":51,"Velocity":33,"Duration":52086,"SoundDuration":52086,"Delta":301543200},{"NoteNumber":51,"Velocity":32,"Duration":52796,"SoundDuration":52796,"Delta":301646751},{"NoteNumber":51,"Velocity":32,"Duration":53648,"SoundDuration":53648,"Delta":301753093},{"NoteNumber":51,"Velocity":30,"Duration":54347,"SoundDuration":54347,"Delta":301860802},{"NoteNumber":51,"Velocity":29,"Duration":54347,"SoundDuration":54347,"Delta":301969498},{"NoteNumber":51,"Velocity":29,"Duration":54347,"SoundDuration":54347,"Delta":302078194},{"NoteNumber":51,"Velocity":28,"Duration":54480,"SoundDuration":54480,"Delta":302186889},{"NoteNumber":51,"Velocity":28,"Duration":55693,"SoundDuration":55693,"Delta":302296382},{"NoteNumber":51,"Velocity":27,"Duration":56962,"SoundDuration":56962,"Delta":302408327},{"NoteNumber":51,"Velocity":27,"Duration":58290,"SoundDuration":58290,"Delta":302522835},{"NoteNumber":51,"Velocity":26,"Duration":59682,"SoundDuration":59682,"Delta":302640027},{"NoteNumber":51,"Velocity":26,"Duration":61142,"SoundDuration":61142,"Delta":302760032},{"NoteNumber":51,"Velocity":25,"Duration":62675,"SoundDuration":62675,"Delta":302882989},{"NoteNumber":51,"Velocity":25,"Duration":64286,"SoundDuration":64286,"Delta":303009045},{"NoteNumber":21,"Velocity":25,"Duration":1186274,"SoundDuration":1186274,"Delta":304703579},{"NoteNumber":31,"Velocity":30,"Duration":1186274,"SoundDuration":1186274,"Delta":304703579},{"NoteNumber":22,"Velocity":22,"Duration":1058823,"SoundDuration":1058823,"Delta":305889854},{"NoteNumber":32,"Velocity":27,"Duration":1058823,"SoundDuration":1058823,"Delta":305889854},{"NoteNumber":27,"Velocity":21,"Duration":759493,"SoundDuration":759493,"Delta":306948677},{"NoteNumber":39,"Velocity":25,"Duration":759493,"SoundDuration":759493,"Delta":306948677},{"NoteNumber":32,"Velocity":25,"Duration":5050592,"SoundDuration":5050592,"Delta":309986651},{"NoteNumber":35,"Velocity":23,"Duration":5050592,"SoundDuration":5050592,"Delta":309986651},{"NoteNumber":38,"Velocity":27,"Duration":5050592,"SoundDuration":5050592,"Delta":309986651},{"NoteNumber":40,"Velocity":35,"Duration":5050592,"SoundDuration":5050592,"Delta":309986651},{"NoteNumber":39,"Velocity":40,"Duration":63025,"SoundDuration":63025,"Delta":309986651},{"NoteNumber":39,"Velocity":34,"Duration":62158,"SoundDuration":62158,"Delta":310112352},{"NoteNumber":39,"Velocity":34,"Duration":60483,"SoundDuration":60483,"Delta":310235986},{"NoteNumber":39,"Velocity":30,"Duration":59367,"SoundDuration":59367,"Delta":310356313},{"NoteNumber":39,"Velocity":34,"Duration":58139,"SoundDuration":58139,"Delta":310474736},{"NoteNumber":39,"Velocity":28,"Duration":56964,"SoundDuration":56964,"Delta":310590423},{"NoteNumber":39,"Velocity":30,"Duration":55970,"SoundDuration":55970,"Delta":310703779},{"NoteNumber":39,"Velocity":28,"Duration":54880,"SoundDuration":54880,"Delta":310815171},{"NoteNumber":39,"Velocity":34,"Duration":52595,"SoundDuration":52595,"Delta":310924399},{"NoteNumber":39,"Velocity":29,"Duration":52843,"SoundDuration":52843,"Delta":311029056},{"NoteNumber":39,"Velocity":30,"Duration":52892,"SoundDuration":52892,"Delta":311135091},{"NoteNumber":39,"Velocity":27,"Duration":50494,"SoundDuration":50494,"Delta":311239388},{"NoteNumber":39,"Velocity":34,"Duration":52744,"SoundDuration":52744,"Delta":311341587},{"NoteNumber":39,"Velocity":30,"Duration":54691,"SoundDuration":54691,"Delta":311447982},{"NoteNumber":39,"Velocity":30,"Duration":52383,"SoundDuration":52383,"Delta":311556840},{"NoteNumber":39,"Velocity":27,"Duration":51515,"SoundDuration":51515,"Delta":311660269},{"NoteNumber":39,"Velocity":34,"Duration":53802,"SoundDuration":53802,"Delta":311764604},{"NoteNumber":39,"Velocity":30,"Duration":52794,"SoundDuration":52794,"Delta":311872261},{"NoteNumber":39,"Velocity":31,"Duration":51653,"SoundDuration":51653,"Delta":311977357},{"NoteNumber":39,"Velocity":28,"Duration":50562,"SoundDuration":50562,"Delta":312080055},{"NoteNumber":39,"Velocity":34,"Duration":51300,"SoundDuration":51300,"Delta":312181134},{"NoteNumber":39,"Velocity":28,"Duration":53804,"SoundDuration":53804,"Delta":312284740},{"NoteNumber":39,"Velocity":30,"Duration":51942,"SoundDuration":51942,"Delta":312391939},{"NoteNumber":39,"Velocity":28,"Duration":51704,"SoundDuration":51704,"Delta":312494789},{"NoteNumber":39,"Velocity":34,"Duration":53419,"SoundDuration":53419,"Delta":312598917},{"NoteNumber":39,"Velocity":28,"Duration":52917,"SoundDuration":52917,"Delta":312705907},{"NoteNumber":39,"Velocity":26,"Duration":51867,"SoundDuration":51867,"Delta":312811445},{"NoteNumber":39,"Velocity":28,"Duration":51369,"SoundDuration":51369,"Delta":312914942},{"NoteNumber":39,"Velocity":30,"Duration":53344,"SoundDuration":53344,"Delta":313018595},{"NoteNumber":39,"Velocity":25,"Duration":53956,"SoundDuration":53956,"Delta":313125897},{"NoteNumber":39,"Velocity":28,"Duration":52090,"SoundDuration":52090,"Delta":313233605},{"NoteNumber":39,"Velocity":25,"Duration":51369,"SoundDuration":51369,"Delta":313337065},{"NoteNumber":39,"Velocity":34,"Duration":53880,"SoundDuration":53880,"Delta":313440979},{"NoteNumber":39,"Velocity":28,"Duration":56055,"SoundDuration":56055,"Delta":313549850},{"NoteNumber":39,"Velocity":30,"Duration":55195,"SoundDuration":55195,"Delta":313662296},{"NoteNumber":39,"Velocity":28,"Duration":50090,"SoundDuration":50090,"Delta":313768774},{"NoteNumber":39,"Velocity":34,"Duration":51514,"SoundDuration":51514,"Delta":313869678},{"NoteNumber":39,"Velocity":28,"Duration":51653,"SoundDuration":51653,"Delta":313973276},{"NoteNumber":39,"Velocity":26,"Duration":49408,"SoundDuration":49408,"Delta":314075292},{"NoteNumber":39,"Velocity":28,"Duration":48705,"SoundDuration":48705,"Delta":314173424},{"NoteNumber":39,"Velocity":30,"Duration":49475,"SoundDuration":49475,"Delta":314271776},{"NoteNumber":39,"Velocity":25,"Duration":47368,"SoundDuration":47368,"Delta":314369374},{"NoteNumber":39,"Velocity":28,"Duration":47289,"SoundDuration":47289,"Delta":314463638},{"NoteNumber":39,"Velocity":25,"Duration":48701,"SoundDuration":48701,"Delta":314559193},{"NoteNumber":39,"Velocity":27,"Duration":47470,"SoundDuration":47470,"Delta":314656596},{"NoteNumber":39,"Velocity":26,"Duration":46334,"SoundDuration":46334,"Delta":314750747},{"NoteNumber":39,"Velocity":27,"Duration":47116,"SoundDuration":47116,"Delta":314843378},{"NoteNumber":39,"Velocity":25,"Duration":49234,"SoundDuration":49234,"Delta":314939287},{"NoteNumber":32,"Velocity":26,"Duration":2518567,"SoundDuration":2518567,"Delta":315037244},{"NoteNumber":35,"Velocity":31,"Duration":2518567,"SoundDuration":2518567,"Delta":315037244},{"NoteNumber":39,"Velocity":26,"Duration":48263,"SoundDuration":48263,"Delta":315037244},{"NoteNumber":39,"Velocity":26,"Duration":47468,"SoundDuration":47468,"Delta":315133198},{"NoteNumber":39,"Velocity":25,"Duration":48956,"SoundDuration":48956,"Delta":315228745},{"NoteNumber":39,"Velocity":25,"Duration":50290,"SoundDuration":50290,"Delta":315327350},{"NoteNumber":39,"Velocity":25,"Duration":49148,"SoundDuration":49148,"Delta":315427798},{"NoteNumber":39,"Velocity":25,"Duration":50252,"SoundDuration":50252,"Delta":315526052},{"NoteNumber":39,"Velocity":25,"Duration":51796,"SoundDuration":51796,"Delta":315627700},{"NoteNumber":39,"Velocity":24,"Duration":51020,"SoundDuration":51020,"Delta":315730774},{"NoteNumber":39,"Velocity":24,"Duration":52301,"SoundDuration":52301,"Delta":315833190},{"NoteNumber":39,"Velocity":22,"Duration":52447,"SoundDuration":52447,"Delta":315937940},{"NoteNumber":39,"Velocity":21,"Duration":52083,"SoundDuration":52083,"Delta":316042835},{"NoteNumber":39,"Velocity":21,"Duration":53599,"SoundDuration":53599,"Delta":316147343},{"NoteNumber":39,"Velocity":20,"Duration":55393,"SoundDuration":55393,"Delta":316255908},{"NoteNumber":39,"Velocity":20,"Duration":52743,"SoundDuration":52743,"Delta":316365316},{"NoteNumber":39,"Velocity":19,"Duration":52230,"SoundDuration":52230,"Delta":316470168},{"NoteNumber":39,"Velocity":19,"Duration":53520,"SoundDuration":53520,"Delta":316575464},{"NoteNumber":39,"Velocity":19,"Duration":54986,"SoundDuration":54986,"Delta":316683281},{"NoteNumber":39,"Velocity":19,"Duration":53548,"SoundDuration":53548,"Delta":316793201},{"NoteNumber":39,"Velocity":18,"Duration":53574,"SoundDuration":53574,"Delta":316899941},{"NoteNumber":39,"Velocity":18,"Duration":54744,"SoundDuration":54744,"Delta":317008128},{"NoteNumber":39,"Velocity":24,"Duration":54744,"SoundDuration":54744,"Delta":317117617},{"NoteNumber":39,"Velocity":22,"Duration":54347,"SoundDuration":54347,"Delta":317227325},{"NoteNumber":39,"Velocity":21,"Duration":54480,"SoundDuration":54480,"Delta":317336020},{"NoteNumber":39,"Velocity":21,"Duration":55147,"SoundDuration":55147,"Delta":317445245},{"NoteNumber":39,"Velocity":20,"Duration":55693,"SoundDuration":55693,"Delta":317555811},{"NoteNumber":39,"Velocity":20,"Duration":55693,"SoundDuration":55693,"Delta":317666926},{"NoteNumber":39,"Velocity":19,"Duration":56962,"SoundDuration":56962,"Delta":317778871},{"NoteNumber":39,"Velocity":19,"Duration":58290,"SoundDuration":58290,"Delta":317893379},{"NoteNumber":39,"Velocity":19,"Duration":59682,"SoundDuration":59682,"Delta":318010571},{"NoteNumber":39,"Velocity":19,"Duration":61142,"SoundDuration":61142,"Delta":318130577},{"NoteNumber":39,"Velocity":18,"Duration":62675,"SoundDuration":62675,"Delta":318253533},{"NoteNumber":39,"Velocity":18,"Duration":64102,"SoundDuration":64102,"Delta":318379589},{"NoteNumber":27,"Velocity":21,"Duration":239860,"SoundDuration":239860,"Delta":318506588},{"NoteNumber":27,"Velocity":14,"Duration":252003,"SoundDuration":252003,"Delta":318746449},{"NoteNumber":27,"Velocity":18,"Duration":244302,"SoundDuration":244302,"Delta":318998452},{"NoteNumber":27,"Velocity":13,"Duration":243113,"SoundDuration":243113,"Delta":319242755},{"NoteNumber":27,"Velocity":18,"Duration":252674,"SoundDuration":252674,"Delta":319485869},{"NoteNumber":27,"Velocity":15,"Duration":241932,"SoundDuration":241932,"Delta":319738543},{"NoteNumber":27,"Velocity":20,"Duration":247884,"SoundDuration":247884,"Delta":319980475},{"NoteNumber":27,"Velocity":16,"Duration":242232,"SoundDuration":242232,"Delta":320228360},{"NoteNumber":27,"Velocity":17,"Duration":244415,"SoundDuration":244415,"Delta":320470592},{"NoteNumber":27,"Velocity":15,"Duration":246270,"SoundDuration":246270,"Delta":320715008},{"NoteNumber":27,"Velocity":16,"Duration":239206,"SoundDuration":239206,"Delta":320961278},{"NoteNumber":27,"Velocity":16,"Duration":250569,"SoundDuration":250569,"Delta":321200485},{"NoteNumber":27,"Velocity":21,"Duration":240938,"SoundDuration":240938,"Delta":321451055},{"NoteNumber":27,"Velocity":15,"Duration":237303,"SoundDuration":237303,"Delta":321691993},{"NoteNumber":27,"Velocity":18,"Duration":232356,"SoundDuration":232356,"Delta":321929297},{"NoteNumber":27,"Velocity":16,"Duration":230241,"SoundDuration":230241,"Delta":322161653},{"NoteNumber":27,"Velocity":17,"Duration":234530,"SoundDuration":234530,"Delta":322391895},{"NoteNumber":27,"Velocity":16,"Duration":246120,"SoundDuration":246120,"Delta":322626426},{"NoteNumber":27,"Velocity":24,"Duration":260450,"SoundDuration":260450,"Delta":322872546},{"NoteNumber":27,"Velocity":16,"Duration":240983,"SoundDuration":240983,"Delta":323132996},{"NoteNumber":27,"Velocity":17,"Duration":248898,"SoundDuration":248898,"Delta":323373980},{"NoteNumber":27,"Velocity":16,"Duration":248085,"SoundDuration":248085,"Delta":323622878},{"NoteNumber":27,"Velocity":17,"Duration":248451,"SoundDuration":248451,"Delta":323870963},{"NoteNumber":27,"Velocity":16,"Duration":239506,"SoundDuration":239506,"Delta":324119415},{"NoteNumber":27,"Velocity":21,"Duration":161918,"SoundDuration":161918,"Delta":324358921},{"NoteNumber":30,"Velocity":18,"Duration":160670,"SoundDuration":160670,"Delta":324488582},{"NoteNumber":28,"Velocity":19,"Duration":159238,"SoundDuration":159238,"Delta":324617201},{"NoteNumber":31,"Velocity":20,"Duration":157829,"SoundDuration":157829,"Delta":324744793},{"NoteNumber":34,"Velocity":22,"Duration":156839,"SoundDuration":156839,"Delta":324871177},{"NoteNumber":37,"Velocity":24,"Duration":158031,"SoundDuration":158031,"Delta":324996570},{"NoteNumber":34,"Velocity":22,"Duration":160054,"SoundDuration":160054,"Delta":325122754},{"NoteNumber":31,"Velocity":21,"Duration":162131,"SoundDuration":162131,"Delta":325250551},{"NoteNumber":28,"Velocity":21,"Duration":163200,"SoundDuration":163200,"Delta":325380002},{"NoteNumber":27,"Velocity":21,"Duration":159848,"SoundDuration":159848,"Delta":325511151},{"NoteNumber":30,"Velocity":18,"Duration":158031,"SoundDuration":158031,"Delta":325639152},{"NoteNumber":28,"Velocity":19,"Duration":156449,"SoundDuration":156449,"Delta":325765737},{"NoteNumber":31,"Velocity":20,"Duration":154704,"SoundDuration":154704,"Delta":325891130},{"NoteNumber":34,"Velocity":22,"Duration":153189,"SoundDuration":153189,"Delta":326014970},{"NoteNumber":37,"Velocity":24,"Duration":151884,"SoundDuration":151884,"Delta":326137672},{"NoteNumber":34,"Velocity":22,"Duration":153189,"SoundDuration":153189,"Delta":326259069},{"NoteNumber":31,"Velocity":21,"Duration":155090,"SoundDuration":155090,"Delta":326381394},{"NoteNumber":28,"Velocity":21,"Duration":157038,"SoundDuration":157038,"Delta":326505234},{"NoteNumber":27,"Velocity":21,"Duration":154157,"SoundDuration":154157,"Delta":326630628},{"NoteNumber":30,"Velocity":18,"Duration":151884,"SoundDuration":151884,"Delta":326754298},{"NoteNumber":28,"Velocity":19,"Duration":150424,"SoundDuration":150424,"Delta":326875879},{"NoteNumber":31,"Velocity":20,"Duration":148811,"SoundDuration":148811,"Delta":326996363},{"NoteNumber":34,"Velocity":22,"Duration":147234,"SoundDuration":147234,"Delta":327115589},{"NoteNumber":37,"Velocity":24,"Duration":146542,"SoundDuration":146542,"Delta":327233584},{"NoteNumber":34,"Velocity":22,"Duration":148107,"SoundDuration":148107,"Delta":327350715},{"NoteNumber":31,"Velocity":21,"Duration":149883,"SoundDuration":149883,"Delta":327469061},{"NoteNumber":28,"Velocity":21,"Duration":150800,"SoundDuration":150800,"Delta":327588823},{"NoteNumber":27,"Velocity":21,"Duration":147234,"SoundDuration":147234,"Delta":327710038},{"NoteNumber":30,"Velocity":18,"Duration":145520,"SoundDuration":145520,"Delta":327828033},{"NoteNumber":28,"Velocity":19,"Duration":143681,"SoundDuration":143681,"Delta":327944652},{"NoteNumber":31,"Velocity":20,"Duration":141886,"SoundDuration":141886,"Delta":328059762},{"NoteNumber":34,"Velocity":22,"Duration":140139,"SoundDuration":140139,"Delta":328173400},{"NoteNumber":37,"Velocity":24,"Duration":139511,"SoundDuration":139511,"Delta":328285762},{"NoteNumber":34,"Velocity":22,"Duration":141085,"SoundDuration":141085,"Delta":328397183},{"NoteNumber":31,"Velocity":21,"Duration":142696,"SoundDuration":142696,"Delta":328509860},{"NoteNumber":28,"Velocity":21,"Duration":144387,"SoundDuration":144387,"Delta":328623821},{"NoteNumber":27,"Velocity":21,"Duration":140609,"SoundDuration":140609,"Delta":328739960},{"NoteNumber":30,"Velocity":18,"Duration":139045,"SoundDuration":139045,"Delta":328852637},{"NoteNumber":28,"Velocity":19,"Duration":137516,"SoundDuration":137516,"Delta":328964059},{"NoteNumber":31,"Velocity":20,"Duration":136019,"SoundDuration":136019,"Delta":329074252},{"NoteNumber":34,"Velocity":22,"Duration":134555,"SoundDuration":134555,"Delta":329183245},{"NoteNumber":37,"Velocity":24,"Duration":134558,"SoundDuration":134558,"Delta":329291062},{"NoteNumber":34,"Velocity":22,"Duration":136767,"SoundDuration":136767,"Delta":329398447},{"NoteNumber":31,"Velocity":21,"Duration":139049,"SoundDuration":139049,"Delta":329507590},{"NoteNumber":28,"Velocity":21,"Duration":112332,"SoundDuration":112332,"Delta":329618549},{"NoteNumber":39,"Velocity":24,"Duration":102644,"SoundDuration":102644,"Delta":329730882},{"NoteNumber":42,"Velocity":21,"Duration":101190,"SoundDuration":101190,"Delta":329833527},{"NoteNumber":40,"Velocity":22,"Duration":99852,"SoundDuration":99852,"Delta":329934717},{"NoteNumber":43,"Velocity":23,"Duration":98596,"SoundDuration":98596,"Delta":330034569},{"NoteNumber":46,"Velocity":25,"Duration":96995,"SoundDuration":96995,"Delta":330133166},{"NoteNumber":49,"Velocity":27,"Duration":97562,"SoundDuration":97562,"Delta":330230161},{"NoteNumber":46,"Velocity":25,"Duration":98717,"SoundDuration":98717,"Delta":330327723},{"NoteNumber":43,"Velocity":24,"Duration":99826,"SoundDuration":99826,"Delta":330426441},{"NoteNumber":40,"Velocity":24,"Duration":99999,"SoundDuration":99999,"Delta":330526267},{"NoteNumber":51,"Velocity":24,"Duration":91807,"SoundDuration":91807,"Delta":330626267},{"NoteNumber":54,"Velocity":21,"Duration":90581,"SoundDuration":90581,"Delta":330718074},{"NoteNumber":52,"Velocity":22,"Duration":89366,"SoundDuration":89366,"Delta":330808655},{"NoteNumber":55,"Velocity":23,"Duration":88184,"SoundDuration":88184,"Delta":330898022},{"NoteNumber":58,"Velocity":25,"Duration":87222,"SoundDuration":87222,"Delta":330986207},{"NoteNumber":61,"Velocity":27,"Duration":88029,"SoundDuration":88029,"Delta":331073429},{"NoteNumber":58,"Velocity":25,"Duration":89327,"SoundDuration":89327,"Delta":331161459},{"NoteNumber":55,"Velocity":24,"Duration":90622,"SoundDuration":90622,"Delta":331250787},{"NoteNumber":52,"Velocity":24,"Duration":92150,"SoundDuration":92150,"Delta":331341409},{"NoteNumber":63,"Velocity":24,"Duration":114068,"SoundDuration":114068,"Delta":331433560},{"NoteNumber":64,"Velocity":21,"Duration":114988,"SoundDuration":114988,"Delta":331547628},{"NoteNumber":66,"Velocity":23,"Duration":80306,"SoundDuration":80306,"Delta":331662617},{"NoteNumber":67,"Velocity":25,"Duration":79350,"SoundDuration":79350,"Delta":331742923},{"NoteNumber":70,"Velocity":27,"Duration":80034,"SoundDuration":80034,"Delta":331822273},{"NoteNumber":67,"Velocity":25,"Duration":81485,"SoundDuration":81485,"Delta":331902307},{"NoteNumber":66,"Velocity":24,"Duration":83024,"SoundDuration":83024,"Delta":331983792},{"NoteNumber":64,"Velocity":24,"Duration":84659,"SoundDuration":84659,"Delta":332066816},{"NoteNumber":63,"Velocity":22,"Duration":121990,"SoundDuration":121990,"Delta":332151476},{"NoteNumber":64,"Velocity":23,"Duration":98469,"SoundDuration":98469,"Delta":332273467},{"NoteNumber":66,"Velocity":24,"Duration":97405,"SoundDuration":97405,"Delta":332371936},{"NoteNumber":67,"Velocity":25,"Duration":96156,"SoundDuration":96156,"Delta":332469341},{"NoteNumber":70,"Velocity":24,"Duration":95138,"SoundDuration":95138,"Delta":332565498},{"NoteNumber":67,"Velocity":23,"Duration":96365,"SoundDuration":96365,"Delta":332660636},{"NoteNumber":66,"Velocity":23,"Duration":98907,"SoundDuration":98907,"Delta":332757002},{"NoteNumber":64,"Velocity":22,"Duration":102173,"SoundDuration":102173,"Delta":332855910},{"NoteNumber":63,"Velocity":23,"Duration":120134,"SoundDuration":120134,"Delta":332958084},{"NoteNumber":64,"Velocity":24,"Duration":97827,"SoundDuration":97827,"Delta":333078218},{"NoteNumber":66,"Velocity":25,"Duration":96983,"SoundDuration":96983,"Delta":333176046},{"NoteNumber":67,"Velocity":26,"Duration":95949,"SoundDuration":95949,"Delta":333273029},{"NoteNumber":70,"Velocity":26,"Duration":95339,"SoundDuration":95339,"Delta":333368979},{"NoteNumber":67,"Velocity":26,"Duration":97198,"SoundDuration":97198,"Delta":333464319},{"NoteNumber":66,"Velocity":25,"Duration":100229,"SoundDuration":100229,"Delta":333561517},{"NoteNumber":64,"Velocity":24,"Duration":103777,"SoundDuration":103777,"Delta":333661747},{"NoteNumber":63,"Velocity":23,"Duration":113376,"SoundDuration":113376,"Delta":333765525},{"NoteNumber":64,"Velocity":24,"Duration":102043,"SoundDuration":102043,"Delta":333878902},{"NoteNumber":66,"Velocity":25,"Duration":100002,"SoundDuration":100002,"Delta":333980946},{"NoteNumber":67,"Velocity":25,"Duration":98042,"SoundDuration":98042,"Delta":334080949},{"NoteNumber":70,"Velocity":24,"Duration":96156,"SoundDuration":96156,"Delta":334178991},{"NoteNumber":67,"Velocity":23,"Duration":98259,"SoundDuration":98259,"Delta":334275147},{"NoteNumber":66,"Velocity":22,"Duration":101130,"SoundDuration":101130,"Delta":334373407},{"NoteNumber":64,"Velocity":21,"Duration":105297,"SoundDuration":105297,"Delta":334474538},{"NoteNumber":63,"Velocity":22,"Duration":101953,"SoundDuration":101953,"Delta":334579835},{"NoteNumber":75,"Velocity":51,"Duration":397447,"SoundDuration":397447,"Delta":334579835},{"NoteNumber":64,"Velocity":23,"Duration":100287,"SoundDuration":100287,"Delta":334681789},{"NoteNumber":66,"Velocity":24,"Duration":98479,"SoundDuration":98479,"Delta":334782077},{"NoteNumber":67,"Velocity":25,"Duration":96726,"SoundDuration":96726,"Delta":334880556},{"NoteNumber":70,"Velocity":24,"Duration":95590,"SoundDuration":95590,"Delta":334977283},{"NoteNumber":75,"Velocity":45,"Duration":382360,"SoundDuration":382360,"Delta":334977283},{"NoteNumber":67,"Velocity":23,"Duration":95590,"SoundDuration":95590,"Delta":335072873},{"NoteNumber":66,"Velocity":23,"Duration":95590,"SoundDuration":95590,"Delta":335168463},{"NoteNumber":64,"Velocity":22,"Duration":95590,"SoundDuration":95590,"Delta":335264053},{"NoteNumber":63,"Velocity":23,"Duration":93411,"SoundDuration":93411,"Delta":335359643},{"NoteNumber":75,"Velocity":49,"Duration":373645,"SoundDuration":373645,"Delta":335359643},{"NoteNumber":64,"Velocity":24,"Duration":93411,"SoundDuration":93411,"Delta":335453054},{"NoteNumber":66,"Velocity":25,"Duration":93411,"SoundDuration":93411,"Delta":335546466},{"NoteNumber":67,"Velocity":26,"Duration":93411,"SoundDuration":93411,"Delta":335639877},{"NoteNumber":70,"Velocity":26,"Duration":101392,"SoundDuration":101392,"Delta":335733289},{"NoteNumber":73,"Velocity":46,"Duration":404797,"SoundDuration":404797,"Delta":335733289},{"NoteNumber":67,"Velocity":26,"Duration":101392,"SoundDuration":101392,"Delta":335834681},{"NoteNumber":66,"Velocity":25,"Duration":101392,"SoundDuration":101392,"Delta":335936074},{"NoteNumber":64,"Velocity":24,"Duration":100620,"SoundDuration":100620,"Delta":336037466},{"NoteNumber":63,"Velocity":25,"Duration":99075,"SoundDuration":99075,"Delta":336138086},{"NoteNumber":75,"Velocity":52,"Duration":3210540,"SoundDuration":3210540,"Delta":336138086},{"NoteNumber":64,"Velocity":26,"Duration":98676,"SoundDuration":98676,"Delta":336237161},{"NoteNumber":66,"Velocity":27,"Duration":98476,"SoundDuration":98476,"Delta":336335838},{"NoteNumber":67,"Velocity":29,"Duration":97885,"SoundDuration":97885,"Delta":336434315},{"NoteNumber":70,"Velocity":29,"Duration":98676,"SoundDuration":98676,"Delta":336532200},{"NoteNumber":67,"Velocity":27,"Duration":99479,"SoundDuration":99479,"Delta":336630877},{"NoteNumber":66,"Velocity":24,"Duration":100080,"SoundDuration":100080,"Delta":336730356},{"NoteNumber":64,"Velocity":21,"Duration":101110,"SoundDuration":101110,"Delta":336830436},{"NoteNumber":63,"Velocity":22,"Duration":108178,"SoundDuration":108178,"Delta":336931547},{"NoteNumber":64,"Velocity":26,"Duration":99942,"SoundDuration":99942,"Delta":337039726},{"NoteNumber":66,"Velocity":27,"Duration":99251,"SoundDuration":99251,"Delta":337139668},{"NoteNumber":67,"Velocity":28,"Duration":98176,"SoundDuration":98176,"Delta":337238920},{"NoteNumber":70,"Velocity":27,"Duration":98373,"SoundDuration":98373,"Delta":337337097},{"NoteNumber":67,"Velocity":25,"Duration":99292,"SoundDuration":99292,"Delta":337435471},{"NoteNumber":66,"Velocity":23,"Duration":100185,"SoundDuration":100185,"Delta":337534763},{"NoteNumber":64,"Velocity":22,"Duration":101126,"SoundDuration":101126,"Delta":337634948},{"NoteNumber":63,"Velocity":22,"Duration":107480,"SoundDuration":107480,"Delta":337736075},{"NoteNumber":64,"Velocity":23,"Duration":100510,"SoundDuration":100510,"Delta":337843555},{"NoteNumber":66,"Velocity":24,"Duration":99535,"SoundDuration":99535,"Delta":337944066},{"NoteNumber":67,"Velocity":25,"Duration":98454,"SoundDuration":98454,"Delta":338043601},{"NoteNumber":70,"Velocity":26,"Duration":97424,"SoundDuration":97424,"Delta":338142055},{"NoteNumber":67,"Velocity":27,"Duration":98374,"SoundDuration":98374,"Delta":338239480},{"NoteNumber":66,"Velocity":25,"Duration":99697,"SoundDuration":99697,"Delta":338337855},{"NoteNumber":64,"Velocity":24,"Duration":101085,"SoundDuration":101085,"Delta":338437553},{"NoteNumber":63,"Velocity":26,"Duration":107480,"SoundDuration":107480,"Delta":338538639},{"NoteNumber":64,"Velocity":27,"Duration":101130,"SoundDuration":101130,"Delta":338646119},{"NoteNumber":66,"Velocity":28,"Duration":100469,"SoundDuration":100469,"Delta":338747250},{"NoteNumber":67,"Velocity":29,"Duration":99494,"SoundDuration":99494,"Delta":338847719},{"NoteNumber":70,"Velocity":27,"Duration":99211,"SoundDuration":99211,"Delta":338947214},{"NoteNumber":67,"Velocity":25,"Duration":99900,"SoundDuration":99900,"Delta":339046425},{"NoteNumber":66,"Velocity":22,"Duration":100712,"SoundDuration":100712,"Delta":339146326},{"NoteNumber":64,"Velocity":21,"Duration":101588,"SoundDuration":101588,"Delta":339247038},{"NoteNumber":61,"Velocity":48,"Duration":804527,"SoundDuration":804527,"Delta":339348627},{"NoteNumber":64,"Velocity":23,"Duration":99942,"SoundDuration":99942,"Delta":339456805},{"NoteNumber":66,"Velocity":24,"Duration":99251,"SoundDuration":99251,"Delta":339556748},{"NoteNumber":67,"Velocity":25,"Duration":98176,"SoundDuration":98176,"Delta":339656000},{"NoteNumber":73,"Velocity":24,"Duration":98373,"SoundDuration":98373,"Delta":339754176},{"NoteNumber":67,"Velocity":23,"Duration":99292,"SoundDuration":99292,"Delta":339852550},{"NoteNumber":66,"Velocity":23,"Duration":100185,"SoundDuration":100185,"Delta":339951842},{"NoteNumber":64,"Velocity":22,"Duration":101126,"SoundDuration":101126,"Delta":340052028},{"NoteNumber":63,"Velocity":44,"Duration":802563,"SoundDuration":802563,"Delta":340153154},{"NoteNumber":64,"Velocity":24,"Duration":100510,"SoundDuration":100510,"Delta":340260635},{"NoteNumber":66,"Velocity":25,"Duration":99535,"SoundDuration":99535,"Delta":340361145},{"NoteNumber":67,"Velocity":26,"Duration":98454,"SoundDuration":98454,"Delta":340460681},{"NoteNumber":75,"Velocity":26,"Duration":97424,"SoundDuration":97424,"Delta":340559135},{"NoteNumber":67,"Velocity":26,"Duration":98374,"SoundDuration":98374,"Delta":340656559},{"NoteNumber":66,"Velocity":25,"Duration":99697,"SoundDuration":99697,"Delta":340754934},{"NoteNumber":64,"Velocity":24,"Duration":101085,"SoundDuration":101085,"Delta":340854632},{"NoteNumber":58,"Velocity":44,"Duration":809987,"SoundDuration":809987,"Delta":340955718},{"NoteNumber":64,"Velocity":24,"Duration":101130,"SoundDuration":101130,"Delta":341063199},{"NoteNumber":66,"Velocity":25,"Duration":100469,"SoundDuration":100469,"Delta":341164329},{"NoteNumber":67,"Velocity":25,"Duration":99494,"SoundDuration":99494,"Delta":341264799},{"NoteNumber":70,"Velocity":24,"Duration":99211,"SoundDuration":99211,"Delta":341364293},{"NoteNumber":67,"Velocity":23,"Duration":99900,"SoundDuration":99900,"Delta":341463504},{"NoteNumber":66,"Velocity":22,"Duration":100712,"SoundDuration":100712,"Delta":341563405},{"NoteNumber":64,"Velocity":21,"Duration":101588,"SoundDuration":101588,"Delta":341664117},{"NoteNumber":56,"Velocity":44,"Duration":787196,"SoundDuration":787196,"Delta":341765706},{"NoteNumber":62,"Velocity":23,"Duration":98122,"SoundDuration":98122,"Delta":341872623},{"NoteNumber":63,"Velocity":24,"Duration":96481,"SoundDuration":96481,"Delta":341970746},{"NoteNumber":64,"Velocity":25,"Duration":94886,"SoundDuration":94886,"Delta":342067228},{"NoteNumber":68,"Velocity":24,"Duration":95411,"SoundDuration":95411,"Delta":342162114},{"NoteNumber":64,"Velocity":23,"Duration":96772,"SoundDuration":96772,"Delta":342257526},{"NoteNumber":63,"Velocity":23,"Duration":98165,"SoundDuration":98165,"Delta":342354298},{"NoteNumber":62,"Velocity":22,"Duration":100438,"SoundDuration":100438,"Delta":342452464},{"NoteNumber":61,"Velocity":48,"Duration":779644,"SoundDuration":779644,"Delta":342552902},{"NoteNumber":64,"Velocity":24,"Duration":96752,"SoundDuration":96752,"Delta":342660383},{"NoteNumber":65,"Velocity":25,"Duration":95493,"SoundDuration":95493,"Delta":342757136},{"NoteNumber":68,"Velocity":26,"Duration":94412,"SoundDuration":94412,"Delta":342852629},{"NoteNumber":73,"Velocity":26,"Duration":93590,"SoundDuration":93590,"Delta":342947041},{"NoteNumber":68,"Velocity":26,"Duration":95213,"SoundDuration":95213,"Delta":343040631},{"NoteNumber":65,"Velocity":25,"Duration":97277,"SoundDuration":97277,"Delta":343135844},{"NoteNumber":64,"Velocity":24,"Duration":99425,"SoundDuration":99425,"Delta":343233122},{"NoteNumber":56,"Velocity":44,"Duration":818768,"SoundDuration":818768,"Delta":343332547},{"NoteNumber":62,"Velocity":20,"Duration":101130,"SoundDuration":101130,"Delta":343440028},{"NoteNumber":63,"Velocity":21,"Duration":100469,"SoundDuration":100469,"Delta":343541158},{"NoteNumber":64,"Velocity":22,"Duration":99494,"SoundDuration":99494,"Delta":343641628},{"NoteNumber":68,"Velocity":23,"Duration":99211,"SoundDuration":99211,"Delta":343741122},{"NoteNumber":74,"Velocity":24,"Duration":99900,"SoundDuration":99900,"Delta":343840333},{"NoteNumber":75,"Velocity":25,"Duration":103044,"SoundDuration":103044,"Delta":343940234},{"NoteNumber":76,"Velocity":26,"Duration":108037,"SoundDuration":108037,"Delta":344043278},{"NoteNumber":80,"Velocity":26,"Duration":110711,"SoundDuration":110711,"Delta":344151315},{"NoteNumber":83,"Velocity":26,"Duration":111459,"SoundDuration":111459,"Delta":344262027},{"NoteNumber":86,"Velocity":27,"Duration":112992,"SoundDuration":112992,"Delta":344373486},{"NoteNumber":87,"Velocity":29,"Duration":114849,"SoundDuration":114849,"Delta":344486478},{"NoteNumber":88,"Velocity":30,"Duration":117347,"SoundDuration":117347,"Delta":344601328},{"NoteNumber":86,"Velocity":25,"Duration":117347,"SoundDuration":117347,"Delta":344601328},{"NoteNumber":83,"Velocity":28,"Duration":117347,"SoundDuration":117347,"Delta":344601328},{"NoteNumber":89,"Velocity":30,"Duration":110973,"SoundDuration":110973,"Delta":344718676},{"NoteNumber":87,"Velocity":25,"Duration":110973,"SoundDuration":110973,"Delta":344718676},{"NoteNumber":82,"Velocity":26,"Duration":110973,"SoundDuration":110973,"Delta":344718676},{"NoteNumber":80,"Velocity":21,"Duration":110973,"SoundDuration":110973,"Delta":344718676},{"NoteNumber":88,"Velocity":32,"Duration":106837,"SoundDuration":106837,"Delta":344829649},{"NoteNumber":86,"Velocity":26,"Duration":106837,"SoundDuration":106837,"Delta":344829649},{"NoteNumber":83,"Velocity":29,"Duration":106837,"SoundDuration":106837,"Delta":344829649},{"NoteNumber":89,"Velocity":33,"Duration":107786,"SoundDuration":107786,"Delta":344936487},{"NoteNumber":87,"Velocity":27,"Duration":107786,"SoundDuration":107786,"Delta":344936487},{"NoteNumber":82,"Velocity":26,"Duration":107786,"SoundDuration":107786,"Delta":344936487},{"NoteNumber":80,"Velocity":22,"Duration":107786,"SoundDuration":107786,"Delta":344936487},{"NoteNumber":88,"Velocity":34,"Duration":107307,"SoundDuration":107307,"Delta":345044274},{"NoteNumber":86,"Velocity":28,"Duration":107307,"SoundDuration":107307,"Delta":345044274},{"NoteNumber":83,"Velocity":30,"Duration":107307,"SoundDuration":107307,"Delta":345044274},{"NoteNumber":89,"Velocity":32,"Duration":106605,"SoundDuration":106605,"Delta":345151581},{"NoteNumber":87,"Velocity":26,"Duration":106605,"SoundDuration":106605,"Delta":345151581},{"NoteNumber":82,"Velocity":27,"Duration":106605,"SoundDuration":106605,"Delta":345151581},{"NoteNumber":80,"Velocity":23,"Duration":106605,"SoundDuration":106605,"Delta":345151581},{"NoteNumber":88,"Velocity":36,"Duration":105913,"SoundDuration":105913,"Delta":345258187},{"NoteNumber":86,"Velocity":31,"Duration":105913,"SoundDuration":105913,"Delta":345258187},{"NoteNumber":83,"Velocity":31,"Duration":105913,"SoundDuration":105913,"Delta":345258187},{"NoteNumber":89,"Velocity":33,"Duration":105234,"SoundDuration":105234,"Delta":345364100},{"NoteNumber":87,"Velocity":27,"Duration":105234,"SoundDuration":105234,"Delta":345364100},{"NoteNumber":82,"Velocity":28,"Duration":105234,"SoundDuration":105234,"Delta":345364100},{"NoteNumber":80,"Velocity":23,"Duration":105234,"SoundDuration":105234,"Delta":345364100},{"NoteNumber":88,"Velocity":39,"Duration":104569,"SoundDuration":104569,"Delta":345469335},{"NoteNumber":86,"Velocity":33,"Duration":104569,"SoundDuration":104569,"Delta":345469335},{"NoteNumber":83,"Velocity":31,"Duration":104569,"SoundDuration":104569,"Delta":345469335},{"NoteNumber":89,"Velocity":34,"Duration":103903,"SoundDuration":103903,"Delta":345573904},{"NoteNumber":87,"Velocity":28,"Duration":103903,"SoundDuration":103903,"Delta":345573904},{"NoteNumber":82,"Velocity":29,"Duration":103903,"SoundDuration":103903,"Delta":345573904},{"NoteNumber":80,"Velocity":24,"Duration":103903,"SoundDuration":103903,"Delta":345573904},{"NoteNumber":88,"Velocity":37,"Duration":103245,"SoundDuration":103245,"Delta":345677807},{"NoteNumber":86,"Velocity":31,"Duration":103245,"SoundDuration":103245,"Delta":345677807},{"NoteNumber":83,"Velocity":32,"Duration":103245,"SoundDuration":103245,"Delta":345677807},{"NoteNumber":89,"Velocity":33,"Duration":102380,"SoundDuration":102380,"Delta":345781052},{"NoteNumber":87,"Velocity":28,"Duration":102380,"SoundDuration":102380,"Delta":345781052},{"NoteNumber":82,"Velocity":29,"Duration":102380,"SoundDuration":102380,"Delta":345781052},{"NoteNumber":80,"Velocity":24,"Duration":102380,"SoundDuration":102380,"Delta":345781052},{"NoteNumber":88,"Velocity":39,"Duration":88375,"SoundDuration":88375,"Delta":345883433},{"NoteNumber":86,"Velocity":33,"Duration":88375,"SoundDuration":88375,"Delta":345883433},{"NoteNumber":83,"Velocity":33,"Duration":88375,"SoundDuration":88375,"Delta":345883433},{"NoteNumber":89,"Velocity":34,"Duration":86875,"SoundDuration":86875,"Delta":345971808},{"NoteNumber":87,"Velocity":28,"Duration":86875,"SoundDuration":86875,"Delta":345971808},{"NoteNumber":82,"Velocity":29,"Duration":86875,"SoundDuration":86875,"Delta":345971808},{"NoteNumber":80,"Velocity":24,"Duration":86875,"SoundDuration":86875,"Delta":345971808},{"NoteNumber":88,"Velocity":39,"Duration":85456,"SoundDuration":85456,"Delta":346058683},{"NoteNumber":86,"Velocity":33,"Duration":85456,"SoundDuration":85456,"Delta":346058683},{"NoteNumber":83,"Velocity":32,"Duration":85456,"SoundDuration":85456,"Delta":346058683},{"NoteNumber":89,"Velocity":34,"Duration":83957,"SoundDuration":83957,"Delta":346144139},{"NoteNumber":87,"Velocity":28,"Duration":83957,"SoundDuration":83957,"Delta":346144139},{"NoteNumber":82,"Velocity":29,"Duration":83957,"SoundDuration":83957,"Delta":346144139},{"NoteNumber":80,"Velocity":24,"Duration":83957,"SoundDuration":83957,"Delta":346144139},{"NoteNumber":88,"Velocity":39,"Duration":82753,"SoundDuration":82753,"Delta":346228097},{"NoteNumber":86,"Velocity":33,"Duration":82753,"SoundDuration":82753,"Delta":346228097},{"NoteNumber":83,"Velocity":32,"Duration":82753,"SoundDuration":82753,"Delta":346228097},{"NoteNumber":89,"Velocity":34,"Duration":81464,"SoundDuration":81464,"Delta":346310850},{"NoteNumber":87,"Velocity":28,"Duration":81464,"SoundDuration":81464,"Delta":346310850},{"NoteNumber":82,"Velocity":29,"Duration":81464,"SoundDuration":81464,"Delta":346310850},{"NoteNumber":80,"Velocity":24,"Duration":81464,"SoundDuration":81464,"Delta":346310850},{"NoteNumber":88,"Velocity":39,"Duration":80101,"SoundDuration":80101,"Delta":346392315},{"NoteNumber":86,"Velocity":33,"Duration":80101,"SoundDuration":80101,"Delta":346392315},{"NoteNumber":83,"Velocity":32,"Duration":80101,"SoundDuration":80101,"Delta":346392315},{"NoteNumber":89,"Velocity":34,"Duration":78893,"SoundDuration":78893,"Delta":346472416},{"NoteNumber":87,"Velocity":28,"Duration":78893,"SoundDuration":78893,"Delta":346472416},{"NoteNumber":82,"Velocity":29,"Duration":78893,"SoundDuration":78893,"Delta":346472416},{"NoteNumber":80,"Velocity":24,"Duration":78893,"SoundDuration":78893,"Delta":346472416},{"NoteNumber":88,"Velocity":39,"Duration":79254,"SoundDuration":79254,"Delta":346551310},{"NoteNumber":86,"Velocity":33,"Duration":79254,"SoundDuration":79254,"Delta":346551310},{"NoteNumber":83,"Velocity":33,"Duration":79254,"SoundDuration":79254,"Delta":346551310},{"NoteNumber":89,"Velocity":35,"Duration":80272,"SoundDuration":80272,"Delta":346630564},{"NoteNumber":87,"Velocity":29,"Duration":80272,"SoundDuration":80272,"Delta":346630564},{"NoteNumber":82,"Velocity":29,"Duration":80272,"SoundDuration":80272,"Delta":346630564},{"NoteNumber":80,"Velocity":24,"Duration":80272,"SoundDuration":80272,"Delta":346630564},{"NoteNumber":88,"Velocity":39,"Duration":79424,"SoundDuration":79424,"Delta":346710837},{"NoteNumber":86,"Velocity":33,"Duration":79424,"SoundDuration":79424,"Delta":346710837},{"NoteNumber":83,"Velocity":32,"Duration":79424,"SoundDuration":79424,"Delta":346710837},{"NoteNumber":89,"Velocity":35,"Duration":78925,"SoundDuration":78925,"Delta":346790262},{"NoteNumber":87,"Velocity":29,"Duration":78925,"SoundDuration":78925,"Delta":346790262},{"NoteNumber":82,"Velocity":29,"Duration":78925,"SoundDuration":78925,"Delta":346790262},{"NoteNumber":80,"Velocity":24,"Duration":78925,"SoundDuration":78925,"Delta":346790262},{"NoteNumber":88,"Velocity":39,"Duration":79882,"SoundDuration":79882,"Delta":346869188},{"NoteNumber":86,"Velocity":33,"Duration":79882,"SoundDuration":79882,"Delta":346869188},{"NoteNumber":83,"Velocity":33,"Duration":79882,"SoundDuration":79882,"Delta":346869188},{"NoteNumber":89,"Velocity":35,"Duration":80371,"SoundDuration":80371,"Delta":346949070},{"NoteNumber":87,"Velocity":29,"Duration":80371,"SoundDuration":80371,"Delta":346949070},{"NoteNumber":82,"Velocity":29,"Duration":80371,"SoundDuration":80371,"Delta":346949070},{"NoteNumber":80,"Velocity":24,"Duration":80371,"SoundDuration":80371,"Delta":346949070},{"NoteNumber":88,"Velocity":39,"Duration":83333,"SoundDuration":83333,"Delta":347029441},{"NoteNumber":86,"Velocity":33,"Duration":83333,"SoundDuration":83333,"Delta":347029441},{"NoteNumber":83,"Velocity":33,"Duration":83333,"SoundDuration":83333,"Delta":347029441},{"NoteNumber":89,"Velocity":36,"Duration":82616,"SoundDuration":82616,"Delta":347112775},{"NoteNumber":87,"Velocity":30,"Duration":82616,"SoundDuration":82616,"Delta":347112775},{"NoteNumber":82,"Velocity":29,"Duration":82616,"SoundDuration":82616,"Delta":347112775},{"NoteNumber":80,"Velocity":24,"Duration":82616,"SoundDuration":82616,"Delta":347112775},{"NoteNumber":88,"Velocity":39,"Duration":83333,"SoundDuration":83333,"Delta":347195391},{"NoteNumber":86,"Velocity":33,"Duration":83333,"SoundDuration":83333,"Delta":347195391},{"NoteNumber":83,"Velocity":32,"Duration":83333,"SoundDuration":83333,"Delta":347195391},{"NoteNumber":89,"Velocity":36,"Duration":83333,"SoundDuration":83333,"Delta":347278725},{"NoteNumber":87,"Velocity":30,"Duration":83333,"SoundDuration":83333,"Delta":347278725},{"NoteNumber":82,"Velocity":29,"Duration":83333,"SoundDuration":83333,"Delta":347278725},{"NoteNumber":80,"Velocity":24,"Duration":83333,"SoundDuration":83333,"Delta":347278725},{"NoteNumber":88,"Velocity":39,"Duration":84055,"SoundDuration":84055,"Delta":347362058},{"NoteNumber":86,"Velocity":33,"Duration":84055,"SoundDuration":84055,"Delta":347362058},{"NoteNumber":83,"Velocity":32,"Duration":84055,"SoundDuration":84055,"Delta":347362058},{"NoteNumber":89,"Velocity":35,"Duration":86975,"SoundDuration":86975,"Delta":347446113},{"NoteNumber":87,"Velocity":29,"Duration":86975,"SoundDuration":86975,"Delta":347446113},{"NoteNumber":82,"Velocity":29,"Duration":86975,"SoundDuration":86975,"Delta":347446113},{"NoteNumber":80,"Velocity":24,"Duration":86975,"SoundDuration":86975,"Delta":347446113},{"NoteNumber":88,"Velocity":39,"Duration":89044,"SoundDuration":89044,"Delta":347533089},{"NoteNumber":86,"Velocity":33,"Duration":89044,"SoundDuration":89044,"Delta":347533089},{"NoteNumber":83,"Velocity":32,"Duration":89044,"SoundDuration":89044,"Delta":347533089},{"NoteNumber":89,"Velocity":35,"Duration":91515,"SoundDuration":91515,"Delta":347622134},{"NoteNumber":87,"Velocity":29,"Duration":91515,"SoundDuration":91515,"Delta":347622134},{"NoteNumber":82,"Velocity":29,"Duration":91515,"SoundDuration":91515,"Delta":347622134},{"NoteNumber":80,"Velocity":24,"Duration":91515,"SoundDuration":91515,"Delta":347622134},{"NoteNumber":88,"Velocity":39,"Duration":93830,"SoundDuration":93830,"Delta":347713649},{"NoteNumber":86,"Velocity":33,"Duration":93830,"SoundDuration":93830,"Delta":347713649},{"NoteNumber":83,"Velocity":33,"Duration":93830,"SoundDuration":93830,"Delta":347713649},{"NoteNumber":89,"Velocity":35,"Duration":105661,"SoundDuration":105661,"Delta":347807480},{"NoteNumber":87,"Velocity":29,"Duration":105661,"SoundDuration":105661,"Delta":347807480},{"NoteNumber":82,"Velocity":29,"Duration":105661,"SoundDuration":105661,"Delta":347807480},{"NoteNumber":80,"Velocity":24,"Duration":105661,"SoundDuration":105661,"Delta":347807480},{"NoteNumber":88,"Velocity":45,"Duration":58469,"SoundDuration":58469,"Delta":347913141},{"NoteNumber":86,"Velocity":45,"Duration":57588,"SoundDuration":57588,"Delta":347971610},{"NoteNumber":83,"Velocity":44,"Duration":56341,"SoundDuration":56341,"Delta":348029198},{"NoteNumber":80,"Velocity":43,"Duration":55428,"SoundDuration":55428,"Delta":348085540},{"NoteNumber":74,"Velocity":43,"Duration":54419,"SoundDuration":54419,"Delta":348140969},{"NoteNumber":76,"Velocity":43,"Duration":54419,"SoundDuration":54419,"Delta":348140969},{"NoteNumber":77,"Velocity":42,"Duration":54128,"SoundDuration":54128,"Delta":348195389},{"NoteNumber":73,"Velocity":41,"Duration":54128,"SoundDuration":54128,"Delta":348249517},{"NoteNumber":68,"Velocity":41,"Duration":54128,"SoundDuration":54128,"Delta":348303645},{"NoteNumber":76,"Velocity":40,"Duration":54128,"SoundDuration":54128,"Delta":348357773},{"NoteNumber":74,"Velocity":39,"Duration":54128,"SoundDuration":54128,"Delta":348411902},{"NoteNumber":71,"Velocity":39,"Duration":54128,"SoundDuration":54128,"Delta":348466030},{"NoteNumber":68,"Velocity":38,"Duration":54128,"SoundDuration":54128,"Delta":348520158},{"NoteNumber":64,"Velocity":37,"Duration":54128,"SoundDuration":54128,"Delta":348574286},{"NoteNumber":62,"Velocity":37,"Duration":54128,"SoundDuration":54128,"Delta":348574286},{"NoteNumber":65,"Velocity":37,"Duration":54128,"SoundDuration":54128,"Delta":348628414},{"NoteNumber":61,"Velocity":36,"Duration":54128,"SoundDuration":54128,"Delta":348682543},{"NoteNumber":56,"Velocity":36,"Duration":4856817,"SoundDuration":4856817,"Delta":348736671},{"NoteNumber":71,"Velocity":24,"Duration":108178,"SoundDuration":108178,"Delta":348790799},{"NoteNumber":62,"Velocity":33,"Duration":603215,"SoundDuration":603215,"Delta":348790799},{"NoteNumber":66,"Velocity":39,"Duration":603215,"SoundDuration":603215,"Delta":348790799},{"NoteNumber":68,"Velocity":23,"Duration":99942,"SoundDuration":99942,"Delta":348898977},{"NoteNumber":64,"Velocity":24,"Duration":99251,"SoundDuration":99251,"Delta":348998920},{"NoteNumber":67,"Velocity":25,"Duration":98176,"SoundDuration":98176,"Delta":349098172},{"NoteNumber":71,"Velocity":24,"Duration":98373,"SoundDuration":98373,"Delta":349196349},{"NoteNumber":68,"Velocity":23,"Duration":99292,"SoundDuration":99292,"Delta":349294722},{"NoteNumber":64,"Velocity":23,"Duration":100185,"SoundDuration":100185,"Delta":349394015},{"NoteNumber":61,"Velocity":28,"Duration":201311,"SoundDuration":201311,"Delta":349394015},{"NoteNumber":65,"Velocity":34,"Duration":201311,"SoundDuration":201311,"Delta":349394015},{"NoteNumber":67,"Velocity":22,"Duration":101126,"SoundDuration":101126,"Delta":349494200},{"NoteNumber":71,"Velocity":24,"Duration":107480,"SoundDuration":107480,"Delta":349595326},{"NoteNumber":62,"Velocity":31,"Duration":601780,"SoundDuration":601780,"Delta":349595326},{"NoteNumber":66,"Velocity":37,"Duration":601780,"SoundDuration":601780,"Delta":349595326},{"NoteNumber":68,"Velocity":24,"Duration":100510,"SoundDuration":100510,"Delta":349702807},{"NoteNumber":64,"Velocity":25,"Duration":99535,"SoundDuration":99535,"Delta":349803317},{"NoteNumber":67,"Velocity":26,"Duration":98454,"SoundDuration":98454,"Delta":349902853},{"NoteNumber":71,"Velocity":26,"Duration":97424,"SoundDuration":97424,"Delta":350001307},{"NoteNumber":68,"Velocity":26,"Duration":98374,"SoundDuration":98374,"Delta":350098732},{"NoteNumber":64,"Velocity":25,"Duration":99697,"SoundDuration":99697,"Delta":350197107},{"NoteNumber":65,"Velocity":32,"Duration":200783,"SoundDuration":200783,"Delta":350197107},{"NoteNumber":61,"Velocity":27,"Duration":200783,"SoundDuration":200783,"Delta":350197107},{"NoteNumber":67,"Velocity":24,"Duration":101085,"SoundDuration":101085,"Delta":350296804},{"NoteNumber":71,"Velocity":24,"Duration":107480,"SoundDuration":107480,"Delta":350397890},{"NoteNumber":62,"Velocity":30,"Duration":2376829,"SoundDuration":2376829,"Delta":350397890},{"NoteNumber":66,"Velocity":36,"Duration":2376829,"SoundDuration":2376829,"Delta":350397890},{"NoteNumber":68,"Velocity":24,"Duration":101130,"SoundDuration":101130,"Delta":350505371},{"NoteNumber":64,"Velocity":25,"Duration":100469,"SoundDuration":100469,"Delta":350606501},{"NoteNumber":67,"Velocity":25,"Duration":99494,"SoundDuration":99494,"Delta":350706971},{"NoteNumber":71,"Velocity":24,"Duration":99211,"SoundDuration":99211,"Delta":350806465},{"NoteNumber":68,"Velocity":23,"Duration":99900,"SoundDuration":99900,"Delta":350905677},{"NoteNumber":64,"Velocity":22,"Duration":100712,"SoundDuration":100712,"Delta":351005577},{"NoteNumber":67,"Velocity":21,"Duration":101588,"SoundDuration":101588,"Delta":351106290},{"NoteNumber":71,"Velocity":24,"Duration":106917,"SoundDuration":106917,"Delta":351207878},{"NoteNumber":68,"Velocity":23,"Duration":98122,"SoundDuration":98122,"Delta":351314796},{"NoteNumber":64,"Velocity":24,"Duration":96481,"SoundDuration":96481,"Delta":351412919},{"NoteNumber":67,"Velocity":25,"Duration":94886,"SoundDuration":94886,"Delta":351509400},{"NoteNumber":71,"Velocity":24,"Duration":95411,"SoundDuration":95411,"Delta":351604286},{"NoteNumber":68,"Velocity":23,"Duration":96772,"SoundDuration":96772,"Delta":351699698},{"NoteNumber":64,"Velocity":23,"Duration":98165,"SoundDuration":98165,"Delta":351796471},{"NoteNumber":67,"Velocity":22,"Duration":100438,"SoundDuration":100438,"Delta":351894636},{"NoteNumber":71,"Velocity":24,"Duration":107480,"SoundDuration":107480,"Delta":351995075},{"NoteNumber":68,"Velocity":24,"Duration":96752,"SoundDuration":96752,"Delta":352102555},{"NoteNumber":64,"Velocity":25,"Duration":95493,"SoundDuration":95493,"Delta":352199308},{"NoteNumber":67,"Velocity":26,"Duration":94412,"SoundDuration":94412,"Delta":352294801},{"NoteNumber":71,"Velocity":26,"Duration":93590,"SoundDuration":93590,"Delta":352389213},{"NoteNumber":68,"Velocity":26,"Duration":95213,"SoundDuration":95213,"Delta":352482804},{"NoteNumber":64,"Velocity":25,"Duration":97277,"SoundDuration":97277,"Delta":352578017},{"NoteNumber":67,"Velocity":24,"Duration":99425,"SoundDuration":99425,"Delta":352675294},{"NoteNumber":71,"Velocity":24,"Duration":107480,"SoundDuration":107480,"Delta":352774719},{"NoteNumber":68,"Velocity":23,"Duration":101130,"SoundDuration":101130,"Delta":352882200},{"NoteNumber":64,"Velocity":24,"Duration":100469,"SoundDuration":100469,"Delta":352983330},{"NoteNumber":65,"Velocity":25,"Duration":99494,"SoundDuration":99494,"Delta":353083800},{"NoteNumber":61,"Velocity":25,"Duration":99494,"SoundDuration":99494,"Delta":353083800},{"NoteNumber":66,"Velocity":26,"Duration":99211,"SoundDuration":99211,"Delta":353183294},{"NoteNumber":62,"Velocity":25,"Duration":132416,"SoundDuration":132416,"Delta":353183294},{"NoteNumber":67,"Velocity":28,"Duration":99900,"SoundDuration":99900,"Delta":353282506},{"NoteNumber":63,"Velocity":28,"Duration":134808,"SoundDuration":134808,"Delta":353315711},{"NoteNumber":68,"Velocity":29,"Duration":103044,"SoundDuration":103044,"Delta":353382407},{"NoteNumber":64,"Velocity":31,"Duration":142968,"SoundDuration":142968,"Delta":353450520},{"NoteNumber":70,"Velocity":30,"Duration":108037,"SoundDuration":108037,"Delta":353485451},{"NoteNumber":70,"Velocity":31,"Duration":327428,"SoundDuration":327428,"Delta":353593488},{"NoteNumber":55,"Velocity":25,"Duration":1726501,"SoundDuration":1726501,"Delta":353593488},{"NoteNumber":65,"Velocity":31,"Duration":327428,"SoundDuration":327428,"Delta":353593488},{"NoteNumber":61,"Velocity":25,"Duration":1725533,"SoundDuration":1725533,"Delta":353598974},{"NoteNumber":70,"Velocity":33,"Duration":108256,"SoundDuration":108256,"Delta":353920917},{"NoteNumber":64,"Velocity":33,"Duration":108256,"SoundDuration":108256,"Delta":353920917},{"NoteNumber":70,"Velocity":31,"Duration":72170,"SoundDuration":72170,"Delta":354029173},{"NoteNumber":66,"Velocity":29,"Duration":71932,"SoundDuration":71932,"Delta":354101344},{"NoteNumber":67,"Velocity":29,"Duration":71694,"SoundDuration":71694,"Delta":354173277},{"NoteNumber":70,"Velocity":31,"Duration":71694,"SoundDuration":71694,"Delta":354244972},{"NoteNumber":73,"Velocity":32,"Duration":71459,"SoundDuration":71459,"Delta":354316667},{"NoteNumber":77,"Velocity":33,"Duration":71225,"SoundDuration":71225,"Delta":354388127},{"NoteNumber":78,"Velocity":27,"Duration":85564,"SoundDuration":85564,"Delta":354459352},{"NoteNumber":79,"Velocity":28,"Duration":86224,"SoundDuration":86224,"Delta":354544916},{"NoteNumber":82,"Velocity":30,"Duration":87184,"SoundDuration":87184,"Delta":354631140},{"NoteNumber":85,"Velocity":31,"Duration":87919,"SoundDuration":87919,"Delta":354718325},{"NoteNumber":88,"Velocity":32,"Duration":88867,"SoundDuration":88867,"Delta":354806244},{"NoteNumber":91,"Velocity":33,"Duration":114017,"SoundDuration":114017,"Delta":354895111},{"NoteNumber":89,"Velocity":28,"Duration":114017,"SoundDuration":114017,"Delta":354895111},{"NoteNumber":82,"Velocity":19,"Duration":114017,"SoundDuration":114017,"Delta":354895111},{"NoteNumber":85,"Velocity":23,"Duration":114017,"SoundDuration":114017,"Delta":354895111},{"NoteNumber":90,"Velocity":29,"Duration":106145,"SoundDuration":106145,"Delta":355009128},{"NoteNumber":88,"Velocity":24,"Duration":106145,"SoundDuration":106145,"Delta":355009128},{"NoteNumber":87,"Velocity":21,"Duration":106145,"SoundDuration":106145,"Delta":355009128},{"NoteNumber":91,"Velocity":32,"Duration":104790,"SoundDuration":104790,"Delta":355115274},{"NoteNumber":89,"Velocity":26,"Duration":104790,"SoundDuration":104790,"Delta":355115274},{"NoteNumber":82,"Velocity":19,"Duration":104790,"SoundDuration":104790,"Delta":355115274},{"NoteNumber":85,"Velocity":24,"Duration":104790,"SoundDuration":104790,"Delta":355115274},{"NoteNumber":90,"Velocity":29,"Duration":99925,"SoundDuration":99925,"Delta":355220064},{"NoteNumber":88,"Velocity":24,"Duration":99925,"SoundDuration":99925,"Delta":355220064},{"NoteNumber":87,"Velocity":22,"Duration":99925,"SoundDuration":99925,"Delta":355220064},{"NoteNumber":91,"Velocity":35,"Duration":89537,"SoundDuration":89537,"Delta":355319989},{"NoteNumber":89,"Velocity":29,"Duration":89537,"SoundDuration":89537,"Delta":355319989},{"NoteNumber":82,"Velocity":20,"Duration":89537,"SoundDuration":89537,"Delta":355319989},{"NoteNumber":85,"Velocity":26,"Duration":89537,"SoundDuration":89537,"Delta":355319989},{"NoteNumber":90,"Velocity":30,"Duration":87893,"SoundDuration":87893,"Delta":355409527},{"NoteNumber":88,"Velocity":25,"Duration":87893,"SoundDuration":87893,"Delta":355409527},{"NoteNumber":87,"Velocity":23,"Duration":87893,"SoundDuration":87893,"Delta":355409527},{"NoteNumber":91,"Velocity":35,"Duration":86242,"SoundDuration":86242,"Delta":355497420},{"NoteNumber":89,"Velocity":30,"Duration":86242,"SoundDuration":86242,"Delta":355497420},{"NoteNumber":82,"Velocity":20,"Duration":86242,"SoundDuration":86242,"Delta":355497420},{"NoteNumber":85,"Velocity":26,"Duration":86242,"SoundDuration":86242,"Delta":355497420},{"NoteNumber":90,"Velocity":31,"Duration":84716,"SoundDuration":84716,"Delta":355583662},{"NoteNumber":88,"Velocity":26,"Duration":84716,"SoundDuration":84716,"Delta":355583662},{"NoteNumber":87,"Velocity":23,"Duration":84716,"SoundDuration":84716,"Delta":355583662},{"NoteNumber":91,"Velocity":36,"Duration":83212,"SoundDuration":83212,"Delta":355668379},{"NoteNumber":89,"Velocity":31,"Duration":83212,"SoundDuration":83212,"Delta":355668379},{"NoteNumber":82,"Velocity":21,"Duration":83212,"SoundDuration":83212,"Delta":355668379},{"NoteNumber":85,"Velocity":27,"Duration":83212,"SoundDuration":83212,"Delta":355668379},{"NoteNumber":90,"Velocity":32,"Duration":81671,"SoundDuration":81671,"Delta":355751591},{"NoteNumber":88,"Velocity":26,"Duration":81671,"SoundDuration":81671,"Delta":355751591},{"NoteNumber":87,"Velocity":24,"Duration":81671,"SoundDuration":81671,"Delta":355751591},{"NoteNumber":91,"Velocity":37,"Duration":80331,"SoundDuration":80331,"Delta":355833263},{"NoteNumber":89,"Velocity":32,"Duration":80331,"SoundDuration":80331,"Delta":355833263},{"NoteNumber":82,"Velocity":22,"Duration":80331,"SoundDuration":80331,"Delta":355833263},{"NoteNumber":85,"Velocity":27,"Duration":80331,"SoundDuration":80331,"Delta":355833263},{"NoteNumber":90,"Velocity":33,"Duration":78895,"SoundDuration":78895,"Delta":355913594},{"NoteNumber":88,"Velocity":27,"Duration":78895,"SoundDuration":78895,"Delta":355913594},{"NoteNumber":87,"Velocity":25,"Duration":78895,"SoundDuration":78895,"Delta":355913594},{"NoteNumber":91,"Velocity":38,"Duration":77108,"SoundDuration":77108,"Delta":355992490},{"NoteNumber":89,"Velocity":32,"Duration":77108,"SoundDuration":77108,"Delta":355992490},{"NoteNumber":82,"Velocity":23,"Duration":77108,"SoundDuration":77108,"Delta":355992490},{"NoteNumber":85,"Velocity":29,"Duration":77108,"SoundDuration":77108,"Delta":355992490},{"NoteNumber":90,"Velocity":35,"Duration":79755,"SoundDuration":79755,"Delta":356069598},{"NoteNumber":88,"Velocity":29,"Duration":79755,"SoundDuration":79755,"Delta":356069598},{"NoteNumber":87,"Velocity":26,"Duration":79755,"SoundDuration":79755,"Delta":356069598},{"NoteNumber":91,"Velocity":39,"Duration":80171,"SoundDuration":80171,"Delta":356149354},{"NoteNumber":89,"Velocity":33,"Duration":80171,"SoundDuration":80171,"Delta":356149354},{"NoteNumber":82,"Velocity":23,"Duration":80171,"SoundDuration":80171,"Delta":356149354},{"NoteNumber":85,"Velocity":28,"Duration":80171,"SoundDuration":80171,"Delta":356149354},{"NoteNumber":90,"Velocity":35,"Duration":77802,"SoundDuration":77802,"Delta":356229526},{"NoteNumber":88,"Velocity":29,"Duration":77802,"SoundDuration":77802,"Delta":356229526},{"NoteNumber":87,"Velocity":26,"Duration":77802,"SoundDuration":77802,"Delta":356229526},{"NoteNumber":91,"Velocity":39,"Duration":80714,"SoundDuration":80714,"Delta":356307328},{"NoteNumber":89,"Velocity":33,"Duration":80714,"SoundDuration":80714,"Delta":356307328},{"NoteNumber":82,"Velocity":23,"Duration":80714,"SoundDuration":80714,"Delta":356307328},{"NoteNumber":85,"Velocity":29,"Duration":80714,"SoundDuration":80714,"Delta":356307328},{"NoteNumber":90,"Velocity":35,"Duration":78784,"SoundDuration":78784,"Delta":356388043},{"NoteNumber":88,"Velocity":29,"Duration":78784,"SoundDuration":78784,"Delta":356388043},{"NoteNumber":87,"Velocity":26,"Duration":78784,"SoundDuration":78784,"Delta":356388043},{"NoteNumber":91,"Velocity":39,"Duration":77667,"SoundDuration":77667,"Delta":356466828},{"NoteNumber":89,"Velocity":33,"Duration":77667,"SoundDuration":77667,"Delta":356466828},{"NoteNumber":82,"Velocity":23,"Duration":77667,"SoundDuration":77667,"Delta":356466828},{"NoteNumber":85,"Velocity":29,"Duration":77667,"SoundDuration":77667,"Delta":356466828},{"NoteNumber":90,"Velocity":36,"Duration":77375,"SoundDuration":77375,"Delta":356544495},{"NoteNumber":88,"Velocity":30,"Duration":77375,"SoundDuration":77375,"Delta":356544495},{"NoteNumber":87,"Velocity":26,"Duration":77375,"SoundDuration":77375,"Delta":356544495},{"NoteNumber":91,"Velocity":39,"Duration":80218,"SoundDuration":80218,"Delta":356621871},{"NoteNumber":89,"Velocity":33,"Duration":80218,"SoundDuration":80218,"Delta":356621871},{"NoteNumber":82,"Velocity":23,"Duration":80218,"SoundDuration":80218,"Delta":356621871},{"NoteNumber":85,"Velocity":28,"Duration":80218,"SoundDuration":80218,"Delta":356621871},{"NoteNumber":90,"Velocity":36,"Duration":79116,"SoundDuration":79116,"Delta":356702090},{"NoteNumber":88,"Velocity":30,"Duration":79116,"SoundDuration":79116,"Delta":356702090},{"NoteNumber":87,"Velocity":26,"Duration":79116,"SoundDuration":79116,"Delta":356702090},{"NoteNumber":91,"Velocity":39,"Duration":81199,"SoundDuration":81199,"Delta":356781206},{"NoteNumber":89,"Velocity":33,"Duration":81199,"SoundDuration":81199,"Delta":356781206},{"NoteNumber":82,"Velocity":23,"Duration":81199,"SoundDuration":81199,"Delta":356781206},{"NoteNumber":85,"Velocity":28,"Duration":81199,"SoundDuration":81199,"Delta":356781206},{"NoteNumber":90,"Velocity":35,"Duration":81968,"SoundDuration":81968,"Delta":356862405},{"NoteNumber":88,"Velocity":29,"Duration":81968,"SoundDuration":81968,"Delta":356862405},{"NoteNumber":87,"Velocity":26,"Duration":81968,"SoundDuration":81968,"Delta":356862405},{"NoteNumber":91,"Velocity":39,"Duration":85203,"SoundDuration":85203,"Delta":356944374},{"NoteNumber":89,"Velocity":33,"Duration":85203,"SoundDuration":85203,"Delta":356944374},{"NoteNumber":82,"Velocity":23,"Duration":85203,"SoundDuration":85203,"Delta":356944374},{"NoteNumber":85,"Velocity":28,"Duration":85203,"SoundDuration":85203,"Delta":356944374},{"NoteNumber":90,"Velocity":35,"Duration":86327,"SoundDuration":86327,"Delta":357029577},{"NoteNumber":88,"Velocity":29,"Duration":86327,"SoundDuration":86327,"Delta":357029577},{"NoteNumber":87,"Velocity":26,"Duration":86327,"SoundDuration":86327,"Delta":357029577},{"NoteNumber":91,"Velocity":39,"Duration":93979,"SoundDuration":93979,"Delta":357115905},{"NoteNumber":89,"Velocity":33,"Duration":93979,"SoundDuration":93979,"Delta":357115905},{"NoteNumber":82,"Velocity":23,"Duration":93979,"SoundDuration":93979,"Delta":357115905},{"NoteNumber":85,"Velocity":29,"Duration":93979,"SoundDuration":93979,"Delta":357115905},{"NoteNumber":90,"Velocity":35,"Duration":102501,"SoundDuration":102501,"Delta":357209885},{"NoteNumber":88,"Velocity":29,"Duration":102501,"SoundDuration":102501,"Delta":357209885},{"NoteNumber":87,"Velocity":26,"Duration":102501,"SoundDuration":102501,"Delta":357209885},{"NoteNumber":91,"Velocity":45,"Duration":58469,"SoundDuration":58469,"Delta":357312387},{"NoteNumber":89,"Velocity":45,"Duration":57588,"SoundDuration":57588,"Delta":357370856},{"NoteNumber":85,"Velocity":44,"Duration":56341,"SoundDuration":56341,"Delta":357428445},{"NoteNumber":82,"Velocity":43,"Duration":55428,"SoundDuration":55428,"Delta":357484787},{"NoteNumber":77,"Velocity":43,"Duration":54419,"SoundDuration":54419,"Delta":357540216},{"NoteNumber":79,"Velocity":43,"Duration":54419,"SoundDuration":54419,"Delta":357540216},{"NoteNumber":81,"Velocity":42,"Duration":54128,"SoundDuration":54128,"Delta":357594635},{"NoteNumber":77,"Velocity":41,"Duration":54128,"SoundDuration":54128,"Delta":357648763},{"NoteNumber":73,"Velocity":41,"Duration":54128,"SoundDuration":54128,"Delta":357702891},{"NoteNumber":79,"Velocity":40,"Duration":54128,"SoundDuration":54128,"Delta":357757020},{"NoteNumber":77,"Velocity":39,"Duration":54128,"SoundDuration":54128,"Delta":357811148},{"NoteNumber":73,"Velocity":39,"Duration":54128,"SoundDuration":54128,"Delta":357865276},{"NoteNumber":70,"Velocity":38,"Duration":54128,"SoundDuration":54128,"Delta":357919404},{"NoteNumber":65,"Velocity":37,"Duration":54128,"SoundDuration":54128,"Delta":357973532},{"NoteNumber":67,"Velocity":37,"Duration":54128,"SoundDuration":54128,"Delta":357973532},{"NoteNumber":69,"Velocity":37,"Duration":54128,"SoundDuration":54128,"Delta":358027661},{"NoteNumber":65,"Velocity":36,"Duration":54128,"SoundDuration":54128,"Delta":358081789},{"NoteNumber":61,"Velocity":36,"Duration":54128,"SoundDuration":54128,"Delta":358135917},{"NoteNumber":54,"Velocity":35,"Duration":103462,"SoundDuration":103462,"Delta":358190045},{"NoteNumber":58,"Velocity":36,"Duration":103027,"SoundDuration":103027,"Delta":358293508},{"NoteNumber":61,"Velocity":37,"Duration":102595,"SoundDuration":102595,"Delta":358396535},{"NoteNumber":64,"Velocity":38,"Duration":102165,"SoundDuration":102165,"Delta":358499131},{"NoteNumber":67,"Velocity":39,"Duration":81223,"SoundDuration":81223,"Delta":358601297},{"NoteNumber":70,"Velocity":40,"Duration":81056,"SoundDuration":81056,"Delta":358682520},{"NoteNumber":76,"Velocity":41,"Duration":80721,"SoundDuration":80721,"Delta":358763577},{"NoteNumber":79,"Velocity":42,"Duration":80390,"SoundDuration":80390,"Delta":358844298},{"NoteNumber":82,"Velocity":39,"Duration":80224,"SoundDuration":80224,"Delta":358924688},{"NoteNumber":87,"Velocity":38,"Duration":99680,"SoundDuration":99680,"Delta":359004912},{"NoteNumber":63,"Velocity":51,"Duration":393964,"SoundDuration":393964,"Delta":359004912},{"NoteNumber":75,"Velocity":51,"Duration":393964,"SoundDuration":393964,"Delta":359004912},{"NoteNumber":82,"Velocity":37,"Duration":99277,"SoundDuration":99277,"Delta":359104593},{"NoteNumber":79,"Velocity":37,"Duration":98279,"SoundDuration":98279,"Delta":359203871},{"NoteNumber":76,"Velocity":36,"Duration":96726,"SoundDuration":96726,"Delta":359302150},{"NoteNumber":75,"Velocity":35,"Duration":95590,"SoundDuration":95590,"Delta":359398877},{"NoteNumber":87,"Velocity":49,"Duration":382360,"SoundDuration":382360,"Delta":359398877},{"NoteNumber":76,"Velocity":35,"Duration":95590,"SoundDuration":95590,"Delta":359494467},{"NoteNumber":79,"Velocity":37,"Duration":95590,"SoundDuration":95590,"Delta":359590057},{"NoteNumber":82,"Velocity":40,"Duration":95590,"SoundDuration":95590,"Delta":359685647},{"NoteNumber":87,"Velocity":43,"Duration":93411,"SoundDuration":93411,"Delta":359781237},{"NoteNumber":63,"Velocity":49,"Duration":373645,"SoundDuration":373645,"Delta":359781237},{"NoteNumber":75,"Velocity":49,"Duration":373645,"SoundDuration":373645,"Delta":359781237},{"NoteNumber":82,"Velocity":42,"Duration":93411,"SoundDuration":93411,"Delta":359874649},{"NoteNumber":79,"Velocity":41,"Duration":93411,"SoundDuration":93411,"Delta":359968060},{"NoteNumber":76,"Velocity":39,"Duration":93411,"SoundDuration":93411,"Delta":360061471},{"NoteNumber":73,"Velocity":38,"Duration":101392,"SoundDuration":101392,"Delta":360154883},{"NoteNumber":61,"Velocity":46,"Duration":404598,"SoundDuration":404598,"Delta":360154883},{"NoteNumber":76,"Velocity":36,"Duration":101392,"SoundDuration":101392,"Delta":360256275},{"NoteNumber":79,"Velocity":38,"Duration":101392,"SoundDuration":101392,"Delta":360357668},{"NoteNumber":82,"Velocity":40,"Duration":100420,"SoundDuration":100420,"Delta":360459060},{"NoteNumber":87,"Velocity":43,"Duration":94494,"SoundDuration":94494,"Delta":360559481},{"NoteNumber":63,"Velocity":52,"Duration":2291270,"SoundDuration":2291270,"Delta":360559481},{"NoteNumber":82,"Velocity":39,"Duration":94494,"SoundDuration":94494,"Delta":360653975},{"NoteNumber":79,"Velocity":38,"Duration":95033,"SoundDuration":95033,"Delta":360748469},{"NoteNumber":76,"Velocity":38,"Duration":95033,"SoundDuration":95033,"Delta":360843502},{"NoteNumber":75,"Velocity":37,"Duration":95590,"SoundDuration":95590,"Delta":360938535},{"NoteNumber":70,"Velocity":37,"Duration":95590,"SoundDuration":95590,"Delta":361034125},{"NoteNumber":67,"Velocity":36,"Duration":96153,"SoundDuration":96153,"Delta":361129715},{"NoteNumber":64,"Velocity":35,"Duration":96343,"SoundDuration":96343,"Delta":361225869},{"NoteNumber":63,"Velocity":34,"Duration":96534,"SoundDuration":96534,"Delta":361322213},{"NoteNumber":64,"Velocity":35,"Duration":95778,"SoundDuration":95778,"Delta":361418747},{"NoteNumber":67,"Velocity":36,"Duration":94853,"SoundDuration":94853,"Delta":361514526},{"NoteNumber":70,"Velocity":38,"Duration":94131,"SoundDuration":94131,"Delta":361609379},{"NoteNumber":75,"Velocity":39,"Duration":94312,"SoundDuration":94312,"Delta":361703510},{"NoteNumber":70,"Velocity":40,"Duration":95218,"SoundDuration":95218,"Delta":361797823},{"NoteNumber":67,"Velocity":38,"Duration":95965,"SoundDuration":95965,"Delta":361893041},{"NoteNumber":64,"Velocity":37,"Duration":96916,"SoundDuration":96916,"Delta":361989007},{"NoteNumber":63,"Velocity":35,"Duration":96916,"SoundDuration":96916,"Delta":362085924},{"NoteNumber":64,"Velocity":33,"Duration":95965,"SoundDuration":95965,"Delta":362182841},{"NoteNumber":67,"Velocity":35,"Duration":95218,"SoundDuration":95218,"Delta":362278807},{"NoteNumber":70,"Velocity":37,"Duration":94312,"SoundDuration":94312,"Delta":362374025},{"NoteNumber":75,"Velocity":40,"Duration":94312,"SoundDuration":94312,"Delta":362468338},{"NoteNumber":70,"Velocity":37,"Duration":95218,"SoundDuration":95218,"Delta":362562651},{"NoteNumber":67,"Velocity":33,"Duration":95965,"SoundDuration":95965,"Delta":362657869},{"NoteNumber":64,"Velocity":32,"Duration":96916,"SoundDuration":96916,"Delta":362753835},{"NoteNumber":64,"Velocity":34,"Duration":108178,"SoundDuration":108178,"Delta":362850752},{"NoteNumber":61,"Velocity":48,"Duration":804527,"SoundDuration":804527,"Delta":362850752},{"NoteNumber":67,"Velocity":31,"Duration":99942,"SoundDuration":99942,"Delta":362958930},{"NoteNumber":70,"Velocity":33,"Duration":99251,"SoundDuration":99251,"Delta":363058873},{"NoteNumber":76,"Velocity":36,"Duration":98176,"SoundDuration":98176,"Delta":363158125},{"NoteNumber":85,"Velocity":39,"Duration":98373,"SoundDuration":98373,"Delta":363256301},{"NoteNumber":73,"Velocity":35,"Duration":398977,"SoundDuration":398977,"Delta":363256301},{"NoteNumber":76,"Velocity":33,"Duration":99292,"SoundDuration":99292,"Delta":363354675},{"NoteNumber":70,"Velocity":31,"Duration":100185,"SoundDuration":100185,"Delta":363453968},{"NoteNumber":67,"Velocity":30,"Duration":101126,"SoundDuration":101126,"Delta":363554153},{"NoteNumber":64,"Velocity":31,"Duration":106201,"SoundDuration":106201,"Delta":363655279},{"NoteNumber":63,"Velocity":44,"Duration":780868,"SoundDuration":780868,"Delta":363655279},{"NoteNumber":67,"Velocity":31,"Duration":97342,"SoundDuration":97342,"Delta":363761481},{"NoteNumber":70,"Velocity":33,"Duration":96080,"SoundDuration":96080,"Delta":363858823},{"NoteNumber":76,"Velocity":35,"Duration":94818,"SoundDuration":94818,"Delta":363954903},{"NoteNumber":87,"Velocity":42,"Duration":93698,"SoundDuration":93698,"Delta":364049722},{"NoteNumber":75,"Velocity":36,"Duration":386425,"SoundDuration":386425,"Delta":364049722},{"NoteNumber":76,"Velocity":37,"Duration":95227,"SoundDuration":95227,"Delta":364143420},{"NoteNumber":70,"Velocity":36,"Duration":97230,"SoundDuration":97230,"Delta":364238647},{"NoteNumber":67,"Velocity":33,"Duration":100269,"SoundDuration":100269,"Delta":364335878},{"NoteNumber":64,"Velocity":33,"Duration":107480,"SoundDuration":107480,"Delta":364436147},{"NoteNumber":58,"Velocity":44,"Duration":809987,"SoundDuration":809987,"Delta":364436147},{"NoteNumber":67,"Velocity":33,"Duration":101130,"SoundDuration":101130,"Delta":364543628},{"NoteNumber":70,"Velocity":34,"Duration":100469,"SoundDuration":100469,"Delta":364644758},{"NoteNumber":76,"Velocity":36,"Duration":99494,"SoundDuration":99494,"Delta":364745228},{"NoteNumber":82,"Velocity":44,"Duration":99211,"SoundDuration":99211,"Delta":364844722},{"NoteNumber":70,"Velocity":34,"Duration":401412,"SoundDuration":401412,"Delta":364844722},{"NoteNumber":76,"Velocity":35,"Duration":99900,"SoundDuration":99900,"Delta":364943934},{"NoteNumber":70,"Velocity":32,"Duration":100712,"SoundDuration":100712,"Delta":365043834},{"NoteNumber":67,"Velocity":30,"Duration":101588,"SoundDuration":101588,"Delta":365144547},{"NoteNumber":62,"Velocity":30,"Duration":104944,"SoundDuration":104944,"Delta":365246135},{"NoteNumber":52,"Velocity":40,"Duration":2383651,"SoundDuration":2383651,"Delta":365246135},{"NoteNumber":56,"Velocity":44,"Duration":787539,"SoundDuration":787539,"Delta":365246135},{"NoteNumber":65,"Velocity":31,"Duration":97926,"SoundDuration":97926,"Delta":365351080},{"NoteNumber":68,"Velocity":33,"Duration":96763,"SoundDuration":96763,"Delta":365449007},{"NoteNumber":71,"Velocity":36,"Duration":95778,"SoundDuration":95778,"Delta":365545770},{"NoteNumber":80,"Velocity":43,"Duration":96231,"SoundDuration":96231,"Delta":365641548},{"NoteNumber":68,"Velocity":35,"Duration":392126,"SoundDuration":392126,"Delta":365641548},{"NoteNumber":71,"Velocity":34,"Duration":97264,"SoundDuration":97264,"Delta":365737780},{"NoteNumber":68,"Velocity":31,"Duration":98320,"SoundDuration":98320,"Delta":365835044},{"NoteNumber":65,"Velocity":30,"Duration":100309,"SoundDuration":100309,"Delta":365933365},{"NoteNumber":65,"Velocity":33,"Duration":107480,"SoundDuration":107480,"Delta":366033674},{"NoteNumber":61,"Velocity":48,"Duration":779644,"SoundDuration":779644,"Delta":366033674},{"NoteNumber":68,"Velocity":32,"Duration":96752,"SoundDuration":96752,"Delta":366141155},{"NoteNumber":74,"Velocity":33,"Duration":95493,"SoundDuration":95493,"Delta":366237908},{"NoteNumber":78,"Velocity":34,"Duration":94412,"SoundDuration":94412,"Delta":366333401},{"NoteNumber":85,"Velocity":42,"Duration":93590,"SoundDuration":93590,"Delta":366427813},{"NoteNumber":73,"Velocity":38,"Duration":385505,"SoundDuration":385505,"Delta":366427813},{"NoteNumber":78,"Velocity":32,"Duration":95213,"SoundDuration":95213,"Delta":366521403},{"NoteNumber":74,"Velocity":31,"Duration":97277,"SoundDuration":97277,"Delta":366616617},{"NoteNumber":68,"Velocity":29,"Duration":99425,"SoundDuration":99425,"Delta":366713894},{"NoteNumber":62,"Velocity":30,"Duration":107480,"SoundDuration":107480,"Delta":366813319},{"NoteNumber":56,"Velocity":44,"Duration":816467,"SoundDuration":816467,"Delta":366813319},{"NoteNumber":65,"Velocity":33,"Duration":101130,"SoundDuration":101130,"Delta":366920800},{"NoteNumber":68,"Velocity":35,"Duration":100469,"SoundDuration":100469,"Delta":367021930},{"NoteNumber":71,"Velocity":36,"Duration":99494,"SoundDuration":99494,"Delta":367122400},{"NoteNumber":80,"Velocity":44,"Duration":99211,"SoundDuration":99211,"Delta":367221894},{"NoteNumber":68,"Velocity":34,"Duration":407892,"SoundDuration":407892,"Delta":367221894},{"NoteNumber":71,"Velocity":34,"Duration":99900,"SoundDuration":99900,"Delta":367321106},{"NoteNumber":68,"Velocity":33,"Duration":103044,"SoundDuration":103044,"Delta":367421006},{"NoteNumber":65,"Velocity":31,"Duration":105736,"SoundDuration":105736,"Delta":367524050},{"NoteNumber":59,"Velocity":27,"Duration":102380,"SoundDuration":102380,"Delta":367629787},{"NoteNumber":61,"Velocity":29,"Duration":101320,"SoundDuration":101320,"Delta":367732167},{"NoteNumber":62,"Velocity":31,"Duration":100487,"SoundDuration":100487,"Delta":367833487},{"NoteNumber":64,"Velocity":34,"Duration":99479,"SoundDuration":99479,"Delta":367933975},{"NoteNumber":68,"Velocity":35,"Duration":98676,"SoundDuration":98676,"Delta":368033454},{"NoteNumber":65,"Velocity":33,"Duration":100287,"SoundDuration":100287,"Delta":368132131},{"NoteNumber":63,"Velocity":32,"Duration":102168,"SoundDuration":102168,"Delta":368232418},{"NoteNumber":61,"Velocity":31,"Duration":104126,"SoundDuration":104126,"Delta":368334587},{"NoteNumber":59,"Velocity":29,"Duration":104792,"SoundDuration":104792,"Delta":368438713},{"NoteNumber":61,"Velocity":31,"Duration":103465,"SoundDuration":103465,"Delta":368543505},{"NoteNumber":62,"Velocity":32,"Duration":102168,"SoundDuration":102168,"Delta":368646971},{"NoteNumber":64,"Velocity":34,"Duration":100487,"SoundDuration":100487,"Delta":368749139},{"NoteNumber":68,"Velocity":35,"Duration":100694,"SoundDuration":100694,"Delta":368849627},{"NoteNumber":65,"Velocity":34,"Duration":101741,"SoundDuration":101741,"Delta":368950321},{"NoteNumber":63,"Velocity":33,"Duration":102380,"SoundDuration":102380,"Delta":369052063},{"NoteNumber":61,"Velocity":31,"Duration":103245,"SoundDuration":103245,"Delta":369154444},{"NoteNumber":59,"Velocity":28,"Duration":103903,"SoundDuration":103903,"Delta":369257689},{"NoteNumber":61,"Velocity":30,"Duration":102168,"SoundDuration":102168,"Delta":369361592},{"NoteNumber":62,"Velocity":32,"Duration":100287,"SoundDuration":100287,"Delta":369463760},{"NoteNumber":64,"Velocity":34,"Duration":98676,"SoundDuration":98676,"Delta":369564048},{"NoteNumber":68,"Velocity":34,"Duration":99277,"SoundDuration":99277,"Delta":369662724},{"NoteNumber":65,"Velocity":33,"Duration":100080,"SoundDuration":100080,"Delta":369762002},{"NoteNumber":63,"Velocity":31,"Duration":101110,"SoundDuration":101110,"Delta":369862082},{"NoteNumber":61,"Velocity":30,"Duration":101912,"SoundDuration":101912,"Delta":369963193},{"NoteNumber":59,"Velocity":27,"Duration":100674,"SoundDuration":100674,"Delta":370065105},{"NoteNumber":61,"Velocity":29,"Duration":98902,"SoundDuration":98902,"Delta":370165780},{"NoteNumber":62,"Velocity":31,"Duration":98039,"SoundDuration":98039,"Delta":370264682},{"NoteNumber":64,"Velocity":34,"Duration":99346,"SoundDuration":99346,"Delta":370362721},{"NoteNumber":68,"Velocity":34,"Duration":98904,"SoundDuration":98904,"Delta":370462067},{"NoteNumber":65,"Velocity":32,"Duration":96983,"SoundDuration":96983,"Delta":370560972},{"NoteNumber":63,"Velocity":31,"Duration":96570,"SoundDuration":96570,"Delta":370657956},{"NoteNumber":61,"Velocity":30,"Duration":98486,"SoundDuration":98486,"Delta":370754526},{"NoteNumber":59,"Velocity":28,"Duration":99561,"SoundDuration":99561,"Delta":370853012},{"NoteNumber":61,"Velocity":30,"Duration":98687,"SoundDuration":98687,"Delta":370952574},{"NoteNumber":62,"Velocity":31,"Duration":95551,"SoundDuration":95551,"Delta":371051261},{"NoteNumber":64,"Velocity":32,"Duration":94143,"SoundDuration":94143,"Delta":371146813},{"NoteNumber":68,"Velocity":33,"Duration":93361,"SoundDuration":93361,"Delta":371240956},{"NoteNumber":65,"Velocity":32,"Duration":95750,"SoundDuration":95750,"Delta":371334317},{"NoteNumber":63,"Velocity":31,"Duration":98039,"SoundDuration":98039,"Delta":371430068},{"NoteNumber":61,"Velocity":29,"Duration":96567,"SoundDuration":96567,"Delta":371528108},{"NoteNumber":59,"Velocity":26,"Duration":92405,"SoundDuration":92405,"Delta":371624675},{"NoteNumber":61,"Velocity":28,"Duration":94946,"SoundDuration":94946,"Delta":371717081},{"NoteNumber":62,"Velocity":30,"Duration":98913,"SoundDuration":98913,"Delta":371812027},{"NoteNumber":64,"Velocity":32,"Duration":99561,"SoundDuration":99561,"Delta":371910941},{"NoteNumber":68,"Velocity":31,"Duration":97405,"SoundDuration":97405,"Delta":372010502},{"NoteNumber":65,"Velocity":31,"Duration":99748,"SoundDuration":99748,"Delta":372107908},{"NoteNumber":63,"Velocity":29,"Duration":101110,"SoundDuration":101110,"Delta":372207656},{"NoteNumber":61,"Velocity":27,"Duration":101231,"SoundDuration":101231,"Delta":372308767},{"NoteNumber":59,"Velocity":25,"Duration":98042,"SoundDuration":98042,"Delta":372409999},{"NoteNumber":61,"Velocity":26,"Duration":96774,"SoundDuration":96774,"Delta":372508041},{"NoteNumber":62,"Velocity":28,"Duration":98474,"SoundDuration":98474,"Delta":372604815},{"NoteNumber":64,"Velocity":31,"Duration":100447,"SoundDuration":100447,"Delta":372703290},{"NoteNumber":68,"Velocity":32,"Duration":98469,"SoundDuration":98469,"Delta":372803738},{"NoteNumber":65,"Velocity":30,"Duration":97614,"SoundDuration":97614,"Delta":372902207},{"NoteNumber":63,"Velocity":29,"Duration":100011,"SoundDuration":100011,"Delta":372999822},{"NoteNumber":61,"Velocity":28,"Duration":102742,"SoundDuration":102742,"Delta":373099834},{"NoteNumber":59,"Velocity":26,"Duration":100002,"SoundDuration":100002,"Delta":373202576},{"NoteNumber":61,"Velocity":27,"Duration":99340,"SoundDuration":99340,"Delta":373302579},{"NoteNumber":62,"Velocity":28,"Duration":102988,"SoundDuration":102988,"Delta":373401920},{"NoteNumber":64,"Velocity":30,"Duration":102752,"SoundDuration":102752,"Delta":373504909},{"NoteNumber":68,"Velocity":31,"Duration":100897,"SoundDuration":100897,"Delta":373607661},{"NoteNumber":65,"Velocity":30,"Duration":100000,"SoundDuration":100000,"Delta":373708559},{"NoteNumber":63,"Velocity":29,"Duration":100223,"SoundDuration":100223,"Delta":373808559},{"NoteNumber":61,"Velocity":27,"Duration":104180,"SoundDuration":104180,"Delta":373908783},{"NoteNumber":59,"Velocity":24,"Duration":106382,"SoundDuration":106382,"Delta":374012963},{"NoteNumber":61,"Velocity":26,"Duration":105644,"SoundDuration":105644,"Delta":374119346},{"NoteNumber":62,"Velocity":27,"Duration":102519,"SoundDuration":102519,"Delta":374224990},{"NoteNumber":64,"Velocity":29,"Duration":101351,"SoundDuration":101351,"Delta":374327510},{"NoteNumber":68,"Velocity":29,"Duration":103215,"SoundDuration":103215,"Delta":374428861},{"NoteNumber":65,"Velocity":28,"Duration":103927,"SoundDuration":103927,"Delta":374532077},{"NoteNumber":63,"Velocity":26,"Duration":106896,"SoundDuration":106896,"Delta":374636004},{"NoteNumber":61,"Velocity":25,"Duration":110025,"SoundDuration":110025,"Delta":374742901},{"NoteNumber":67,"Velocity":29,"Duration":397351,"SoundDuration":397351,"Delta":374852926},{"NoteNumber":65,"Velocity":26,"Duration":397351,"SoundDuration":397351,"Delta":374852926},{"NoteNumber":50,"Velocity":40,"Duration":4099203,"SoundDuration":4099203,"Delta":374852926},{"NoteNumber":53,"Velocity":20,"Duration":99337,"SoundDuration":99337,"Delta":374952264},{"NoteNumber":58,"Velocity":20,"Duration":99337,"SoundDuration":99337,"Delta":375051602},{"NoteNumber":62,"Velocity":20,"Duration":99337,"SoundDuration":99337,"Delta":375150940},{"NoteNumber":66,"Velocity":29,"Duration":355029,"SoundDuration":355029,"Delta":375250277},{"NoteNumber":64,"Velocity":26,"Duration":355029,"SoundDuration":355029,"Delta":375250277},{"NoteNumber":52,"Velocity":25,"Duration":118343,"SoundDuration":118343,"Delta":375250277},{"NoteNumber":57,"Velocity":21,"Duration":118343,"SoundDuration":118343,"Delta":375368620},{"NoteNumber":61,"Velocity":21,"Duration":118343,"SoundDuration":118343,"Delta":375486964},{"NoteNumber":67,"Velocity":31,"Duration":344827,"SoundDuration":344827,"Delta":375605307},{"NoteNumber":65,"Velocity":27,"Duration":344827,"SoundDuration":344827,"Delta":375605307},{"NoteNumber":53,"Velocity":26,"Duration":114942,"SoundDuration":114942,"Delta":375605307},{"NoteNumber":58,"Velocity":20,"Duration":114942,"SoundDuration":114942,"Delta":375720249},{"NoteNumber":62,"Velocity":20,"Duration":114942,"SoundDuration":114942,"Delta":375835192},{"NoteNumber":66,"Velocity":28,"Duration":344827,"SoundDuration":344827,"Delta":375950134},{"NoteNumber":68,"Velocity":32,"Duration":344827,"SoundDuration":344827,"Delta":375950134},{"NoteNumber":54,"Velocity":26,"Duration":114942,"SoundDuration":114942,"Delta":375950134},{"NoteNumber":59,"Velocity":21,"Duration":114942,"SoundDuration":114942,"Delta":376065077},{"NoteNumber":63,"Velocity":21,"Duration":114942,"SoundDuration":114942,"Delta":376180019},{"NoteNumber":69,"Velocity":33,"Duration":344827,"SoundDuration":344827,"Delta":376294962},{"NoteNumber":67,"Velocity":29,"Duration":344827,"SoundDuration":344827,"Delta":376294962},{"NoteNumber":55,"Velocity":26,"Duration":114942,"SoundDuration":114942,"Delta":376294962},{"NoteNumber":60,"Velocity":20,"Duration":114942,"SoundDuration":114942,"Delta":376409904},{"NoteNumber":64,"Velocity":20,"Duration":114942,"SoundDuration":114942,"Delta":376524847},{"NoteNumber":68,"Velocity":30,"Duration":344827,"SoundDuration":344827,"Delta":376639789},{"NoteNumber":70,"Velocity":34,"Duration":344827,"SoundDuration":344827,"Delta":376639789},{"NoteNumber":56,"Velocity":26,"Duration":114942,"SoundDuration":114942,"Delta":376639789},{"NoteNumber":61,"Velocity":21,"Duration":114942,"SoundDuration":114942,"Delta":376754732},{"NoteNumber":65,"Velocity":21,"Duration":114942,"SoundDuration":114942,"Delta":376869674},{"NoteNumber":67,"Velocity":30,"Duration":337078,"SoundDuration":337078,"Delta":376984617},{"NoteNumber":69,"Velocity":34,"Duration":337078,"SoundDuration":337078,"Delta":376984617},{"NoteNumber":55,"Velocity":28,"Duration":112359,"SoundDuration":112359,"Delta":376984617},{"NoteNumber":60,"Velocity":20,"Duration":112359,"SoundDuration":112359,"Delta":377096976},{"NoteNumber":64,"Velocity":20,"Duration":112359,"SoundDuration":112359,"Delta":377209336},{"NoteNumber":68,"Velocity":30,"Duration":326086,"SoundDuration":326086,"Delta":377321695},{"NoteNumber":70,"Velocity":34,"Duration":326086,"SoundDuration":326086,"Delta":377321695},{"NoteNumber":56,"Velocity":26,"Duration":108695,"SoundDuration":108695,"Delta":377321695},{"NoteNumber":61,"Velocity":20,"Duration":108695,"SoundDuration":108695,"Delta":377430391},{"NoteNumber":65,"Velocity":20,"Duration":108695,"SoundDuration":108695,"Delta":377539087},{"NoteNumber":69,"Velocity":33,"Duration":326087,"SoundDuration":326087,"Delta":377647782},{"NoteNumber":67,"Velocity":29,"Duration":326087,"SoundDuration":326087,"Delta":377647782},{"NoteNumber":55,"Velocity":26,"Duration":108695,"SoundDuration":108695,"Delta":377647782},{"NoteNumber":60,"Velocity":20,"Duration":108695,"SoundDuration":108695,"Delta":377756478},{"NoteNumber":64,"Velocity":20,"Duration":108695,"SoundDuration":108695,"Delta":377865174},{"NoteNumber":68,"Velocity":32,"Duration":326086,"SoundDuration":326086,"Delta":377973869},{"NoteNumber":66,"Velocity":28,"Duration":326086,"SoundDuration":326086,"Delta":377973869},{"NoteNumber":54,"Velocity":26,"Duration":108695,"SoundDuration":108695,"Delta":377973869},{"NoteNumber":59,"Velocity":20,"Duration":108695,"SoundDuration":108695,"Delta":378082565},{"NoteNumber":63,"Velocity":20,"Duration":108695,"SoundDuration":108695,"Delta":378191261},{"NoteNumber":67,"Velocity":32,"Duration":326087,"SoundDuration":326087,"Delta":378299956},{"NoteNumber":65,"Velocity":28,"Duration":326087,"SoundDuration":326087,"Delta":378299956},{"NoteNumber":53,"Velocity":28,"Duration":108695,"SoundDuration":108695,"Delta":378299956},{"NoteNumber":58,"Velocity":21,"Duration":108695,"SoundDuration":108695,"Delta":378408652},{"NoteNumber":62,"Velocity":22,"Duration":108695,"SoundDuration":108695,"Delta":378517348},{"NoteNumber":66,"Velocity":31,"Duration":326086,"SoundDuration":326086,"Delta":378626043},{"NoteNumber":64,"Velocity":27,"Duration":326086,"SoundDuration":326086,"Delta":378626043},{"NoteNumber":52,"Velocity":26,"Duration":108695,"SoundDuration":108695,"Delta":378626043},{"NoteNumber":57,"Velocity":21,"Duration":108695,"SoundDuration":108695,"Delta":378734739},{"NoteNumber":61,"Velocity":21,"Duration":108695,"SoundDuration":108695,"Delta":378843435},{"NoteNumber":67,"Velocity":29,"Duration":326086,"SoundDuration":326086,"Delta":378952130},{"NoteNumber":65,"Velocity":26,"Duration":326086,"SoundDuration":326086,"Delta":378952130},{"NoteNumber":50,"Velocity":40,"Duration":3774594,"SoundDuration":3774594,"Delta":378952130},{"NoteNumber":53,"Velocity":20,"Duration":81521,"SoundDuration":81521,"Delta":379033652},{"NoteNumber":58,"Velocity":20,"Duration":81521,"SoundDuration":81521,"Delta":379115174},{"NoteNumber":62,"Velocity":20,"Duration":81521,"SoundDuration":81521,"Delta":379196696},{"NoteNumber":66,"Velocity":29,"Duration":319148,"SoundDuration":319148,"Delta":379278217},{"NoteNumber":64,"Velocity":26,"Duration":319148,"SoundDuration":319148,"Delta":379278217},{"NoteNumber":52,"Velocity":25,"Duration":106382,"SoundDuration":106382,"Delta":379278217},{"NoteNumber":57,"Velocity":21,"Duration":106382,"SoundDuration":106382,"Delta":379384600},{"NoteNumber":61,"Velocity":21,"Duration":106382,"SoundDuration":106382,"Delta":379490983},{"NoteNumber":67,"Velocity":31,"Duration":319149,"SoundDuration":319149,"Delta":379597366},{"NoteNumber":65,"Velocity":27,"Duration":319149,"SoundDuration":319149,"Delta":379597366},{"NoteNumber":53,"Velocity":26,"Duration":106382,"SoundDuration":106382,"Delta":379597366},{"NoteNumber":58,"Velocity":20,"Duration":106383,"SoundDuration":106383,"Delta":379703749},{"NoteNumber":62,"Velocity":20,"Duration":106382,"SoundDuration":106382,"Delta":379810132},{"NoteNumber":66,"Velocity":28,"Duration":319148,"SoundDuration":319148,"Delta":379916515},{"NoteNumber":68,"Velocity":32,"Duration":319148,"SoundDuration":319148,"Delta":379916515},{"NoteNumber":54,"Velocity":26,"Duration":106382,"SoundDuration":106382,"Delta":379916515},{"NoteNumber":59,"Velocity":21,"Duration":106382,"SoundDuration":106382,"Delta":380022898},{"NoteNumber":63,"Velocity":21,"Duration":106382,"SoundDuration":106382,"Delta":380129281},{"NoteNumber":69,"Velocity":33,"Duration":319148,"SoundDuration":319148,"Delta":380235664},{"NoteNumber":67,"Velocity":29,"Duration":319148,"SoundDuration":319148,"Delta":380235664},{"NoteNumber":55,"Velocity":26,"Duration":106382,"SoundDuration":106382,"Delta":380235664},{"NoteNumber":60,"Velocity":20,"Duration":106382,"SoundDuration":106382,"Delta":380342047},{"NoteNumber":64,"Velocity":20,"Duration":106382,"SoundDuration":106382,"Delta":380448430},{"NoteNumber":68,"Velocity":30,"Duration":319149,"SoundDuration":319149,"Delta":380554813},{"NoteNumber":70,"Velocity":34,"Duration":319149,"SoundDuration":319149,"Delta":380554813},{"NoteNumber":56,"Velocity":26,"Duration":106382,"SoundDuration":106382,"Delta":380554813},{"NoteNumber":61,"Velocity":21,"Duration":106383,"SoundDuration":106383,"Delta":380661196},{"NoteNumber":65,"Velocity":21,"Duration":106382,"SoundDuration":106382,"Delta":380767579},{"NoteNumber":69,"Velocity":30,"Duration":314136,"SoundDuration":314136,"Delta":380873962},{"NoteNumber":71,"Velocity":34,"Duration":314136,"SoundDuration":314136,"Delta":380873962},{"NoteNumber":57,"Velocity":28,"Duration":104712,"SoundDuration":104712,"Delta":380873962},{"NoteNumber":62,"Velocity":20,"Duration":104712,"SoundDuration":104712,"Delta":380978674},{"NoteNumber":66,"Velocity":20,"Duration":104712,"SoundDuration":104712,"Delta":381083386},{"NoteNumber":70,"Velocity":30,"Duration":306122,"SoundDuration":306122,"Delta":381188098},{"NoteNumber":72,"Velocity":34,"Duration":306122,"SoundDuration":306122,"Delta":381188098},{"NoteNumber":58,"Velocity":26,"Duration":102040,"SoundDuration":102040,"Delta":381188098},{"NoteNumber":63,"Velocity":20,"Duration":102040,"SoundDuration":102040,"Delta":381290139},{"NoteNumber":67,"Velocity":20,"Duration":102040,"SoundDuration":102040,"Delta":381392180},{"NoteNumber":71,"Velocity":33,"Duration":306122,"SoundDuration":306122,"Delta":381494221},{"NoteNumber":69,"Velocity":29,"Duration":306122,"SoundDuration":306122,"Delta":381494221},{"NoteNumber":57,"Velocity":26,"Duration":102040,"SoundDuration":102040,"Delta":381494221},{"NoteNumber":62,"Velocity":20,"Duration":102040,"SoundDuration":102040,"Delta":381596262},{"NoteNumber":66,"Velocity":20,"Duration":102040,"SoundDuration":102040,"Delta":381698302},{"NoteNumber":70,"Velocity":32,"Duration":306122,"SoundDuration":306122,"Delta":381800343},{"NoteNumber":68,"Velocity":28,"Duration":306122,"SoundDuration":306122,"Delta":381800343},{"NoteNumber":56,"Velocity":26,"Duration":102040,"SoundDuration":102040,"Delta":381800343},{"NoteNumber":61,"Velocity":20,"Duration":102040,"SoundDuration":102040,"Delta":381902384},{"NoteNumber":65,"Velocity":20,"Duration":102040,"SoundDuration":102040,"Delta":382004425},{"NoteNumber":69,"Velocity":32,"Duration":306122,"SoundDuration":306122,"Delta":382106466},{"NoteNumber":67,"Velocity":28,"Duration":306122,"SoundDuration":306122,"Delta":382106466},{"NoteNumber":55,"Velocity":28,"Duration":102040,"SoundDuration":102040,"Delta":382106466},{"NoteNumber":60,"Velocity":21,"Duration":102040,"SoundDuration":102040,"Delta":382208507},{"NoteNumber":64,"Velocity":22,"Duration":102040,"SoundDuration":102040,"Delta":382310547},{"NoteNumber":68,"Velocity":31,"Duration":314136,"SoundDuration":314136,"Delta":382412588},{"NoteNumber":66,"Velocity":27,"Duration":314136,"SoundDuration":314136,"Delta":382412588},{"NoteNumber":54,"Velocity":26,"Duration":104712,"SoundDuration":104712,"Delta":382412588},{"NoteNumber":59,"Velocity":21,"Duration":104712,"SoundDuration":104712,"Delta":382517300},{"NoteNumber":63,"Velocity":21,"Duration":104712,"SoundDuration":104712,"Delta":382622012},{"NoteNumber":67,"Velocity":29,"Duration":289854,"SoundDuration":289854,"Delta":382726724},{"NoteNumber":65,"Velocity":26,"Duration":289854,"SoundDuration":289854,"Delta":382726724},{"NoteNumber":50,"Velocity":40,"Duration":3353784,"SoundDuration":3353784,"Delta":382726724},{"NoteNumber":53,"Velocity":20,"Duration":72463,"SoundDuration":72463,"Delta":382799188},{"NoteNumber":58,"Velocity":20,"Duration":72463,"SoundDuration":72463,"Delta":382871652},{"NoteNumber":62,"Velocity":20,"Duration":72463,"SoundDuration":72463,"Delta":382944116},{"NoteNumber":66,"Velocity":29,"Duration":285714,"SoundDuration":285714,"Delta":383016579},{"NoteNumber":64,"Velocity":26,"Duration":285714,"SoundDuration":285714,"Delta":383016579},{"NoteNumber":52,"Velocity":25,"Duration":95238,"SoundDuration":95238,"Delta":383016579},{"NoteNumber":57,"Velocity":21,"Duration":95238,"SoundDuration":95238,"Delta":383111817},{"NoteNumber":61,"Velocity":21,"Duration":95238,"SoundDuration":95238,"Delta":383207056},{"NoteNumber":67,"Velocity":31,"Duration":285714,"SoundDuration":285714,"Delta":383302294},{"NoteNumber":65,"Velocity":27,"Duration":285714,"SoundDuration":285714,"Delta":383302294},{"NoteNumber":53,"Velocity":26,"Duration":95238,"SoundDuration":95238,"Delta":383302294},{"NoteNumber":58,"Velocity":20,"Duration":95238,"SoundDuration":95238,"Delta":383397532},{"NoteNumber":62,"Velocity":20,"Duration":95238,"SoundDuration":95238,"Delta":383492770},{"NoteNumber":66,"Velocity":28,"Duration":285714,"SoundDuration":285714,"Delta":383588008},{"NoteNumber":68,"Velocity":32,"Duration":285714,"SoundDuration":285714,"Delta":383588008},{"NoteNumber":54,"Velocity":26,"Duration":95238,"SoundDuration":95238,"Delta":383588008},{"NoteNumber":59,"Velocity":21,"Duration":95238,"SoundDuration":95238,"Delta":383683246},{"NoteNumber":63,"Velocity":21,"Duration":95238,"SoundDuration":95238,"Delta":383778485},{"NoteNumber":69,"Velocity":33,"Duration":285714,"SoundDuration":285714,"Delta":383873723},{"NoteNumber":67,"Velocity":29,"Duration":285714,"SoundDuration":285714,"Delta":383873723},{"NoteNumber":55,"Velocity":26,"Duration":95238,"SoundDuration":95238,"Delta":383873723},{"NoteNumber":60,"Velocity":20,"Duration":95238,"SoundDuration":95238,"Delta":383968961},{"NoteNumber":64,"Velocity":20,"Duration":95238,"SoundDuration":95238,"Delta":384064199},{"NoteNumber":68,"Velocity":30,"Duration":285714,"SoundDuration":285714,"Delta":384159437},{"NoteNumber":70,"Velocity":34,"Duration":285714,"SoundDuration":285714,"Delta":384159437},{"NoteNumber":56,"Velocity":26,"Duration":95238,"SoundDuration":95238,"Delta":384159437},{"NoteNumber":61,"Velocity":21,"Duration":95238,"SoundDuration":95238,"Delta":384254675},{"NoteNumber":65,"Velocity":21,"Duration":95238,"SoundDuration":95238,"Delta":384349914},{"NoteNumber":67,"Velocity":30,"Duration":277778,"SoundDuration":277778,"Delta":384445152},{"NoteNumber":69,"Velocity":34,"Duration":277778,"SoundDuration":277778,"Delta":384445152},{"NoteNumber":55,"Velocity":28,"Duration":92592,"SoundDuration":92592,"Delta":384445152},{"NoteNumber":60,"Velocity":20,"Duration":92592,"SoundDuration":92592,"Delta":384537744},{"NoteNumber":64,"Velocity":20,"Duration":92592,"SoundDuration":92592,"Delta":384630337},{"NoteNumber":66,"Velocity":30,"Duration":270270,"SoundDuration":270270,"Delta":384722930},{"NoteNumber":68,"Velocity":34,"Duration":270270,"SoundDuration":270270,"Delta":384722930},{"NoteNumber":54,"Velocity":26,"Duration":90090,"SoundDuration":90090,"Delta":384722930},{"NoteNumber":59,"Velocity":20,"Duration":90090,"SoundDuration":90090,"Delta":384813020},{"NoteNumber":63,"Velocity":20,"Duration":90090,"SoundDuration":90090,"Delta":384903110},{"NoteNumber":69,"Velocity":33,"Duration":270270,"SoundDuration":270270,"Delta":384993200},{"NoteNumber":67,"Velocity":29,"Duration":270270,"SoundDuration":270270,"Delta":384993200},{"NoteNumber":55,"Velocity":26,"Duration":90090,"SoundDuration":90090,"Delta":384993200},{"NoteNumber":60,"Velocity":20,"Duration":90090,"SoundDuration":90090,"Delta":385083290},{"NoteNumber":64,"Velocity":20,"Duration":90090,"SoundDuration":90090,"Delta":385173381},{"NoteNumber":70,"Velocity":32,"Duration":270270,"SoundDuration":270270,"Delta":385263471},{"NoteNumber":68,"Velocity":28,"Duration":270270,"SoundDuration":270270,"Delta":385263471},{"NoteNumber":56,"Velocity":26,"Duration":90090,"SoundDuration":90090,"Delta":385263471},{"NoteNumber":61,"Velocity":20,"Duration":90090,"SoundDuration":90090,"Delta":385353561},{"NoteNumber":65,"Velocity":20,"Duration":90090,"SoundDuration":90090,"Delta":385443651},{"NoteNumber":71,"Velocity":32,"Duration":270270,"SoundDuration":270270,"Delta":385533741},{"NoteNumber":69,"Velocity":28,"Duration":270270,"SoundDuration":270270,"Delta":385533741},{"NoteNumber":57,"Velocity":28,"Duration":90090,"SoundDuration":90090,"Delta":385533741},{"NoteNumber":62,"Velocity":21,"Duration":90090,"SoundDuration":90090,"Delta":385623831},{"NoteNumber":66,"Velocity":22,"Duration":90090,"SoundDuration":90090,"Delta":385713922},{"NoteNumber":72,"Velocity":31,"Duration":276497,"SoundDuration":276497,"Delta":385804012},{"NoteNumber":70,"Velocity":27,"Duration":276497,"SoundDuration":276497,"Delta":385804012},{"NoteNumber":58,"Velocity":26,"Duration":92165,"SoundDuration":92165,"Delta":385804012},{"NoteNumber":63,"Velocity":21,"Duration":92165,"SoundDuration":92165,"Delta":385896178},{"NoteNumber":67,"Velocity":21,"Duration":92165,"SoundDuration":92165,"Delta":385988343},{"NoteNumber":73,"Velocity":29,"Duration":228137,"SoundDuration":228137,"Delta":386080509},{"NoteNumber":71,"Velocity":26,"Duration":228137,"SoundDuration":228137,"Delta":386080509},{"NoteNumber":49,"Velocity":28,"Duration":2477859,"SoundDuration":2477859,"Delta":386080509},{"NoteNumber":53,"Velocity":22,"Duration":132921,"SoundDuration":132921,"Delta":386217392},{"NoteNumber":72,"Velocity":29,"Duration":208333,"SoundDuration":208333,"Delta":386308646},{"NoteNumber":70,"Velocity":26,"Duration":208333,"SoundDuration":208333,"Delta":386308646},{"NoteNumber":59,"Velocity":22,"Duration":125000,"SoundDuration":125000,"Delta":386350313},{"NoteNumber":63,"Velocity":24,"Duration":125000,"SoundDuration":125000,"Delta":386475313},{"NoteNumber":73,"Velocity":31,"Duration":208333,"SoundDuration":208333,"Delta":386516980},{"NoteNumber":71,"Velocity":27,"Duration":208333,"SoundDuration":208333,"Delta":386516980},{"NoteNumber":68,"Velocity":24,"Duration":125000,"SoundDuration":125000,"Delta":386600313},{"NoteNumber":72,"Velocity":28,"Duration":208333,"SoundDuration":208333,"Delta":386725313},{"NoteNumber":74,"Velocity":32,"Duration":208333,"SoundDuration":208333,"Delta":386725313},{"NoteNumber":51,"Velocity":28,"Duration":156250,"SoundDuration":156250,"Delta":386725313},{"NoteNumber":58,"Velocity":24,"Duration":156250,"SoundDuration":156250,"Delta":386881563},{"NoteNumber":75,"Velocity":34,"Duration":208333,"SoundDuration":208333,"Delta":386933647},{"NoteNumber":73,"Velocity":30,"Duration":208333,"SoundDuration":208333,"Delta":386933647},{"NoteNumber":61,"Velocity":25,"Duration":156250,"SoundDuration":156250,"Delta":387037814},{"NoteNumber":74,"Velocity":31,"Duration":208333,"SoundDuration":208333,"Delta":387141980},{"NoteNumber":76,"Velocity":35,"Duration":208333,"SoundDuration":208333,"Delta":387141980},{"NoteNumber":67,"Velocity":25,"Duration":156250,"SoundDuration":156250,"Delta":387194064},{"NoteNumber":75,"Velocity":31,"Duration":201342,"SoundDuration":201342,"Delta":387350314},{"NoteNumber":77,"Velocity":36,"Duration":201342,"SoundDuration":201342,"Delta":387350314},{"NoteNumber":53,"Velocity":29,"Duration":151006,"SoundDuration":151006,"Delta":387350314},{"NoteNumber":59,"Velocity":25,"Duration":151006,"SoundDuration":151006,"Delta":387501321},{"NoteNumber":74,"Velocity":32,"Duration":201342,"SoundDuration":201342,"Delta":387551656},{"NoteNumber":78,"Velocity":36,"Duration":201342,"SoundDuration":201342,"Delta":387551656},{"NoteNumber":63,"Velocity":25,"Duration":151006,"SoundDuration":151006,"Delta":387652328},{"NoteNumber":77,"Velocity":35,"Duration":201342,"SoundDuration":201342,"Delta":387752999},{"NoteNumber":75,"Velocity":31,"Duration":201342,"SoundDuration":201342,"Delta":387752999},{"NoteNumber":68,"Velocity":26,"Duration":151006,"SoundDuration":151006,"Delta":387803334},{"NoteNumber":76,"Velocity":35,"Duration":201342,"SoundDuration":201342,"Delta":387954341},{"NoteNumber":74,"Velocity":30,"Duration":201342,"SoundDuration":201342,"Delta":387954341},{"NoteNumber":56,"Velocity":30,"Duration":151006,"SoundDuration":151006,"Delta":387954341},{"NoteNumber":61,"Velocity":26,"Duration":151006,"SoundDuration":151006,"Delta":388105348},{"NoteNumber":75,"Velocity":35,"Duration":201342,"SoundDuration":201342,"Delta":388155684},{"NoteNumber":73,"Velocity":31,"Duration":201342,"SoundDuration":201342,"Delta":388155684},{"NoteNumber":65,"Velocity":26,"Duration":151006,"SoundDuration":151006,"Delta":388256355},{"NoteNumber":74,"Velocity":34,"Duration":201342,"SoundDuration":201342,"Delta":388357026},{"NoteNumber":72,"Velocity":30,"Duration":201342,"SoundDuration":201342,"Delta":388357026},{"NoteNumber":71,"Velocity":26,"Duration":151006,"SoundDuration":151006,"Delta":388407362},{"NoteNumber":73,"Velocity":32,"Duration":191693,"SoundDuration":191693,"Delta":388558369},{"NoteNumber":71,"Velocity":29,"Duration":191693,"SoundDuration":191693,"Delta":388558369},{"NoteNumber":49,"Velocity":31,"Duration":2257854,"SoundDuration":2257854,"Delta":388558369},{"NoteNumber":53,"Velocity":25,"Duration":115016,"SoundDuration":115016,"Delta":388673385},{"NoteNumber":72,"Velocity":33,"Duration":191693,"SoundDuration":191693,"Delta":388750062},{"NoteNumber":70,"Velocity":29,"Duration":191693,"SoundDuration":191693,"Delta":388750062},{"NoteNumber":59,"Velocity":25,"Duration":115016,"SoundDuration":115016,"Delta":388788401},{"NoteNumber":63,"Velocity":27,"Duration":115016,"SoundDuration":115016,"Delta":388903417},{"NoteNumber":73,"Velocity":35,"Duration":191693,"SoundDuration":191693,"Delta":388941756},{"NoteNumber":71,"Velocity":31,"Duration":191693,"SoundDuration":191693,"Delta":388941756},{"NoteNumber":68,"Velocity":27,"Duration":115016,"SoundDuration":115016,"Delta":389018433},{"NoteNumber":72,"Velocity":32,"Duration":191693,"SoundDuration":191693,"Delta":389133449},{"NoteNumber":74,"Velocity":37,"Duration":191693,"SoundDuration":191693,"Delta":389133449},{"NoteNumber":51,"Velocity":32,"Duration":143770,"SoundDuration":143770,"Delta":389133449},{"NoteNumber":58,"Velocity":28,"Duration":143770,"SoundDuration":143770,"Delta":389277219},{"NoteNumber":75,"Velocity":38,"Duration":191693,"SoundDuration":191693,"Delta":389325143},{"NoteNumber":73,"Velocity":33,"Duration":191693,"SoundDuration":191693,"Delta":389325143},{"NoteNumber":61,"Velocity":28,"Duration":143770,"SoundDuration":143770,"Delta":389420990},{"NoteNumber":74,"Velocity":35,"Duration":191693,"SoundDuration":191693,"Delta":389516836},{"NoteNumber":76,"Velocity":40,"Duration":191693,"SoundDuration":191693,"Delta":389516836},{"NoteNumber":67,"Velocity":28,"Duration":143770,"SoundDuration":143770,"Delta":389564760},{"NoteNumber":75,"Velocity":36,"Duration":184615,"SoundDuration":184615,"Delta":389708530},{"NoteNumber":77,"Velocity":40,"Duration":184615,"SoundDuration":184615,"Delta":389708530},{"NoteNumber":53,"Velocity":33,"Duration":138461,"SoundDuration":138461,"Delta":389708530},{"NoteNumber":59,"Velocity":28,"Duration":138461,"SoundDuration":138461,"Delta":389846991},{"NoteNumber":74,"Velocity":36,"Duration":184615,"SoundDuration":184615,"Delta":389893145},{"NoteNumber":78,"Velocity":41,"Duration":184615,"SoundDuration":184615,"Delta":389893145},{"NoteNumber":63,"Velocity":29,"Duration":138461,"SoundDuration":138461,"Delta":389985453},{"NoteNumber":77,"Velocity":40,"Duration":184615,"SoundDuration":184615,"Delta":390077761},{"NoteNumber":75,"Velocity":35,"Duration":184615,"SoundDuration":184615,"Delta":390077761},{"NoteNumber":68,"Velocity":29,"Duration":138461,"SoundDuration":138461,"Delta":390123915},{"NoteNumber":76,"Velocity":39,"Duration":184615,"SoundDuration":184615,"Delta":390262376},{"NoteNumber":74,"Velocity":34,"Duration":184615,"SoundDuration":184615,"Delta":390262376},{"NoteNumber":56,"Velocity":34,"Duration":138461,"SoundDuration":138461,"Delta":390262376},{"NoteNumber":61,"Velocity":29,"Duration":138461,"SoundDuration":138461,"Delta":390400838},{"NoteNumber":75,"Velocity":39,"Duration":184615,"SoundDuration":184615,"Delta":390446992},{"NoteNumber":73,"Velocity":34,"Duration":184615,"SoundDuration":184615,"Delta":390446992},{"NoteNumber":65,"Velocity":30,"Duration":138461,"SoundDuration":138461,"Delta":390539300},{"NoteNumber":74,"Velocity":38,"Duration":184615,"SoundDuration":184615,"Delta":390631607},{"NoteNumber":72,"Velocity":33,"Duration":184615,"SoundDuration":184615,"Delta":390631607},{"NoteNumber":71,"Velocity":30,"Duration":138461,"SoundDuration":138461,"Delta":390677761},{"NoteNumber":73,"Velocity":36,"Duration":171428,"SoundDuration":171428,"Delta":390816223},{"NoteNumber":71,"Velocity":32,"Duration":171428,"SoundDuration":171428,"Delta":390816223},{"NoteNumber":49,"Velocity":35,"Duration":1934397,"SoundDuration":1934397,"Delta":390816223},{"NoteNumber":53,"Velocity":27,"Duration":102857,"SoundDuration":102857,"Delta":390919080},{"NoteNumber":72,"Velocity":36,"Duration":171428,"SoundDuration":171428,"Delta":390987651},{"NoteNumber":70,"Velocity":33,"Duration":171428,"SoundDuration":171428,"Delta":390987651},{"NoteNumber":59,"Velocity":28,"Duration":102857,"SoundDuration":102857,"Delta":391021937},{"NoteNumber":63,"Velocity":30,"Duration":102857,"SoundDuration":102857,"Delta":391124794},{"NoteNumber":73,"Velocity":39,"Duration":171428,"SoundDuration":171428,"Delta":391159080},{"NoteNumber":71,"Velocity":34,"Duration":171428,"SoundDuration":171428,"Delta":391159080},{"NoteNumber":68,"Velocity":30,"Duration":102857,"SoundDuration":102857,"Delta":391227651},{"NoteNumber":72,"Velocity":36,"Duration":171428,"SoundDuration":171428,"Delta":391330508},{"NoteNumber":74,"Velocity":41,"Duration":171428,"SoundDuration":171428,"Delta":391330508},{"NoteNumber":51,"Velocity":36,"Duration":128571,"SoundDuration":128571,"Delta":391330508},{"NoteNumber":58,"Velocity":31,"Duration":128571,"SoundDuration":128571,"Delta":391459080},{"NoteNumber":75,"Velocity":43,"Duration":171428,"SoundDuration":171428,"Delta":391501937},{"NoteNumber":73,"Velocity":37,"Duration":171428,"SoundDuration":171428,"Delta":391501937},{"NoteNumber":61,"Velocity":31,"Duration":128571,"SoundDuration":128571,"Delta":391587651},{"NoteNumber":74,"Velocity":39,"Duration":171758,"SoundDuration":171758,"Delta":391673365},{"NoteNumber":76,"Velocity":44,"Duration":171758,"SoundDuration":171758,"Delta":391673365},{"NoteNumber":67,"Velocity":31,"Duration":128901,"SoundDuration":128901,"Delta":391716222},{"NoteNumber":73,"Velocity":39,"Duration":161919,"SoundDuration":161919,"Delta":391845124},{"NoteNumber":75,"Velocity":45,"Duration":161919,"SoundDuration":161919,"Delta":391845124},{"NoteNumber":53,"Velocity":37,"Duration":121919,"SoundDuration":121919,"Delta":391845124},{"NoteNumber":59,"Velocity":32,"Duration":119156,"SoundDuration":119156,"Delta":391967044},{"NoteNumber":72,"Velocity":41,"Duration":157181,"SoundDuration":157181,"Delta":392007044},{"NoteNumber":74,"Velocity":46,"Duration":157181,"SoundDuration":157181,"Delta":392007044},{"NoteNumber":63,"Velocity":33,"Duration":116585,"SoundDuration":116585,"Delta":392086201},{"NoteNumber":75,"Velocity":46,"Duration":152713,"SoundDuration":152713,"Delta":392164226},{"NoteNumber":73,"Velocity":41,"Duration":152713,"SoundDuration":152713,"Delta":392164226},{"NoteNumber":68,"Velocity":34,"Duration":114152,"SoundDuration":114152,"Delta":392202786},{"NoteNumber":76,"Velocity":47,"Duration":148492,"SoundDuration":148492,"Delta":392316939},{"NoteNumber":74,"Velocity":41,"Duration":148492,"SoundDuration":148492,"Delta":392316939},{"NoteNumber":56,"Velocity":41,"Duration":111727,"SoundDuration":111727,"Delta":392316939},{"NoteNumber":61,"Velocity":35,"Duration":109493,"SoundDuration":109493,"Delta":392428667},{"NoteNumber":77,"Velocity":48,"Duration":144499,"SoundDuration":144499,"Delta":392465432},{"NoteNumber":75,"Velocity":42,"Duration":144499,"SoundDuration":144499,"Delta":392465432},{"NoteNumber":65,"Velocity":37,"Duration":107316,"SoundDuration":107316,"Delta":392538160},{"NoteNumber":78,"Velocity":48,"Duration":140689,"SoundDuration":140689,"Delta":392609931},{"NoteNumber":76,"Velocity":42,"Duration":140689,"SoundDuration":140689,"Delta":392609931},{"NoteNumber":71,"Velocity":38,"Duration":105143,"SoundDuration":105143,"Delta":392645476},{"NoteNumber":79,"Velocity":47,"Duration":129332,"SoundDuration":129332,"Delta":392750620},{"NoteNumber":77,"Velocity":39,"Duration":129332,"SoundDuration":129332,"Delta":392750620},{"NoteNumber":47,"Velocity":52,"Duration":2611353,"SoundDuration":2611353,"Delta":392750620},{"NoteNumber":78,"Velocity":47,"Duration":115216,"SoundDuration":115216,"Delta":392879953},{"NoteNumber":77,"Velocity":39,"Duration":115216,"SoundDuration":115216,"Delta":392879953},{"NoteNumber":79,"Velocity":48,"Duration":115216,"SoundDuration":115216,"Delta":392995169},{"NoteNumber":77,"Velocity":40,"Duration":115216,"SoundDuration":115216,"Delta":392995169},{"NoteNumber":65,"Velocity":35,"Duration":172824,"SoundDuration":172824,"Delta":393052777},{"NoteNumber":67,"Velocity":36,"Duration":144020,"SoundDuration":144020,"Delta":393081581},{"NoteNumber":80,"Velocity":49,"Duration":115216,"SoundDuration":115216,"Delta":393110385},{"NoteNumber":78,"Velocity":41,"Duration":115216,"SoundDuration":115216,"Delta":393110385},{"NoteNumber":74,"Velocity":44,"Duration":115216,"SoundDuration":115216,"Delta":393110385},{"NoteNumber":81,"Velocity":50,"Duration":115216,"SoundDuration":115216,"Delta":393225602},{"NoteNumber":79,"Velocity":42,"Duration":115216,"SoundDuration":115216,"Delta":393225602},{"NoteNumber":82,"Velocity":50,"Duration":115216,"SoundDuration":115216,"Delta":393340818},{"NoteNumber":80,"Velocity":42,"Duration":115216,"SoundDuration":115216,"Delta":393340818},{"NoteNumber":63,"Velocity":36,"Duration":223892,"SoundDuration":223892,"Delta":393398426},{"NoteNumber":69,"Velocity":38,"Duration":195088,"SoundDuration":195088,"Delta":393427230},{"NoteNumber":83,"Velocity":51,"Duration":110856,"SoundDuration":110856,"Delta":393456034},{"NoteNumber":81,"Velocity":43,"Duration":110856,"SoundDuration":110856,"Delta":393456034},{"NoteNumber":71,"Velocity":47,"Duration":166284,"SoundDuration":166284,"Delta":393456034},{"NoteNumber":87,"Velocity":49,"Duration":110856,"SoundDuration":110856,"Delta":393566891},{"NoteNumber":85,"Velocity":41,"Duration":110856,"SoundDuration":110856,"Delta":393566891},{"NoteNumber":83,"Velocity":48,"Duration":110856,"SoundDuration":110856,"Delta":393677747},{"NoteNumber":81,"Velocity":40,"Duration":110856,"SoundDuration":110856,"Delta":393677747},{"NoteNumber":69,"Velocity":33,"Duration":221713,"SoundDuration":221713,"Delta":393733175},{"NoteNumber":71,"Velocity":36,"Duration":193998,"SoundDuration":193998,"Delta":393760890},{"NoteNumber":82,"Velocity":47,"Duration":110856,"SoundDuration":110856,"Delta":393788604},{"NoteNumber":80,"Velocity":39,"Duration":110856,"SoundDuration":110856,"Delta":393788604},{"NoteNumber":78,"Velocity":42,"Duration":166284,"SoundDuration":166284,"Delta":393788604},{"NoteNumber":81,"Velocity":46,"Duration":110856,"SoundDuration":110856,"Delta":393899460},{"NoteNumber":79,"Velocity":39,"Duration":110856,"SoundDuration":110856,"Delta":393899460},{"NoteNumber":80,"Velocity":44,"Duration":110856,"SoundDuration":110856,"Delta":394010317},{"NoteNumber":78,"Velocity":37,"Duration":110856,"SoundDuration":110856,"Delta":394010317},{"NoteNumber":59,"Velocity":36,"Duration":222176,"SoundDuration":222176,"Delta":394065745},{"NoteNumber":67,"Velocity":38,"Duration":194462,"SoundDuration":194462,"Delta":394093459},{"NoteNumber":79,"Velocity":47,"Duration":115216,"SoundDuration":115216,"Delta":394121173},{"NoteNumber":77,"Velocity":39,"Duration":115216,"SoundDuration":115216,"Delta":394121173},{"NoteNumber":65,"Velocity":47,"Duration":166748,"SoundDuration":166748,"Delta":394121173},{"NoteNumber":78,"Velocity":47,"Duration":103064,"SoundDuration":103064,"Delta":394236389},{"NoteNumber":77,"Velocity":39,"Duration":103064,"SoundDuration":103064,"Delta":394236389},{"NoteNumber":79,"Velocity":48,"Duration":103064,"SoundDuration":103064,"Delta":394339454},{"NoteNumber":77,"Velocity":40,"Duration":103064,"SoundDuration":103064,"Delta":394339454},{"NoteNumber":65,"Velocity":35,"Duration":154596,"SoundDuration":154596,"Delta":394390986},{"NoteNumber":67,"Velocity":36,"Duration":128830,"SoundDuration":128830,"Delta":394416752},{"NoteNumber":80,"Velocity":49,"Duration":103064,"SoundDuration":103064,"Delta":394442518},{"NoteNumber":78,"Velocity":41,"Duration":103064,"SoundDuration":103064,"Delta":394442518},{"NoteNumber":74,"Velocity":44,"Duration":103064,"SoundDuration":103064,"Delta":394442518},{"NoteNumber":81,"Velocity":50,"Duration":103064,"SoundDuration":103064,"Delta":394545583},{"NoteNumber":79,"Velocity":42,"Duration":103064,"SoundDuration":103064,"Delta":394545583},{"NoteNumber":82,"Velocity":50,"Duration":103064,"SoundDuration":103064,"Delta":394648647},{"NoteNumber":80,"Velocity":42,"Duration":103064,"SoundDuration":103064,"Delta":394648647},{"NoteNumber":63,"Velocity":36,"Duration":200875,"SoundDuration":200875,"Delta":394700180},{"NoteNumber":69,"Velocity":38,"Duration":175109,"SoundDuration":175109,"Delta":394725946},{"NoteNumber":83,"Velocity":51,"Duration":99561,"SoundDuration":99561,"Delta":394751712},{"NoteNumber":81,"Velocity":43,"Duration":99561,"SoundDuration":99561,"Delta":394751712},{"NoteNumber":71,"Velocity":47,"Duration":149342,"SoundDuration":149342,"Delta":394751712},{"NoteNumber":87,"Velocity":49,"Duration":99561,"SoundDuration":99561,"Delta":394851274},{"NoteNumber":85,"Velocity":41,"Duration":99561,"SoundDuration":99561,"Delta":394851274},{"NoteNumber":83,"Velocity":48,"Duration":99561,"SoundDuration":99561,"Delta":394950836},{"NoteNumber":81,"Velocity":40,"Duration":99561,"SoundDuration":99561,"Delta":394950836},{"NoteNumber":69,"Velocity":33,"Duration":202346,"SoundDuration":202346,"Delta":395000617},{"NoteNumber":71,"Velocity":36,"Duration":177456,"SoundDuration":177456,"Delta":395025507},{"NoteNumber":82,"Velocity":47,"Duration":99562,"SoundDuration":99562,"Delta":395050398},{"NoteNumber":80,"Velocity":39,"Duration":99562,"SoundDuration":99562,"Delta":395050398},{"NoteNumber":78,"Velocity":42,"Duration":152565,"SoundDuration":152565,"Delta":395050398},{"NoteNumber":81,"Velocity":46,"Duration":106006,"SoundDuration":106006,"Delta":395149960},{"NoteNumber":79,"Velocity":39,"Duration":106006,"SoundDuration":106006,"Delta":395149960},{"NoteNumber":80,"Velocity":44,"Duration":106007,"SoundDuration":106007,"Delta":395255967},{"NoteNumber":78,"Velocity":37,"Duration":106007,"SoundDuration":106007,"Delta":395255967},{"NoteNumber":79,"Velocity":47,"Duration":113207,"SoundDuration":113207,"Delta":395361974},{"NoteNumber":77,"Velocity":39,"Duration":113207,"SoundDuration":113207,"Delta":395361974},{"NoteNumber":47,"Velocity":67,"Duration":603526,"SoundDuration":603526,"Delta":395361974},{"NoteNumber":78,"Velocity":47,"Duration":98360,"SoundDuration":98360,"Delta":395475181},{"NoteNumber":77,"Velocity":39,"Duration":98360,"SoundDuration":98360,"Delta":395475181},{"NoteNumber":79,"Velocity":49,"Duration":98360,"SoundDuration":98360,"Delta":395573542},{"NoteNumber":77,"Velocity":41,"Duration":98360,"SoundDuration":98360,"Delta":395573542},{"NoteNumber":59,"Velocity":47,"Duration":72821,"SoundDuration":72821,"Delta":395647313},{"NoteNumber":65,"Velocity":49,"Duration":60526,"SoundDuration":60526,"Delta":395659608},{"NoteNumber":80,"Velocity":51,"Duration":96463,"SoundDuration":96463,"Delta":395671903},{"NoteNumber":78,"Velocity":43,"Duration":96463,"SoundDuration":96463,"Delta":395671903},{"NoteNumber":67,"Velocity":51,"Duration":48231,"SoundDuration":48231,"Delta":395671903},{"NoteNumber":81,"Velocity":54,"Duration":96462,"SoundDuration":96462,"Delta":395768366},{"NoteNumber":79,"Velocity":45,"Duration":96462,"SoundDuration":96462,"Delta":395768366},{"NoteNumber":82,"Velocity":55,"Duration":100671,"SoundDuration":100671,"Delta":395864829},{"NoteNumber":80,"Velocity":46,"Duration":100671,"SoundDuration":100671,"Delta":395864829},{"NoteNumber":81,"Velocity":52,"Duration":103448,"SoundDuration":103448,"Delta":395965500},{"NoteNumber":79,"Velocity":44,"Duration":103448,"SoundDuration":103448,"Delta":395965500},{"NoteNumber":47,"Velocity":73,"Duration":582164,"SoundDuration":582164,"Delta":395965500},{"NoteNumber":80,"Velocity":54,"Duration":97402,"SoundDuration":97402,"Delta":396068948},{"NoteNumber":78,"Velocity":45,"Duration":97402,"SoundDuration":97402,"Delta":396068948},{"NoteNumber":81,"Velocity":56,"Duration":97402,"SoundDuration":97402,"Delta":396166351},{"NoteNumber":79,"Velocity":47,"Duration":97402,"SoundDuration":97402,"Delta":396166351},{"NoteNumber":63,"Velocity":52,"Duration":71669,"SoundDuration":71669,"Delta":396239403},{"NoteNumber":69,"Velocity":54,"Duration":59493,"SoundDuration":59493,"Delta":396251578},{"NoteNumber":82,"Velocity":58,"Duration":94637,"SoundDuration":94637,"Delta":396263753},{"NoteNumber":80,"Velocity":49,"Duration":94637,"SoundDuration":94637,"Delta":396263753},{"NoteNumber":71,"Velocity":56,"Duration":47318,"SoundDuration":47318,"Delta":396263753},{"NoteNumber":83,"Velocity":61,"Duration":94637,"SoundDuration":94637,"Delta":396358391},{"NoteNumber":81,"Velocity":51,"Duration":94637,"SoundDuration":94637,"Delta":396358391},{"NoteNumber":84,"Velocity":62,"Duration":94637,"SoundDuration":94637,"Delta":396453028},{"NoteNumber":82,"Velocity":52,"Duration":94637,"SoundDuration":94637,"Delta":396453028},{"NoteNumber":83,"Velocity":59,"Duration":98684,"SoundDuration":98684,"Delta":396547665},{"NoteNumber":81,"Velocity":50,"Duration":98684,"SoundDuration":98684,"Delta":396547665},{"NoteNumber":46,"Velocity":78,"Duration":570909,"SoundDuration":570909,"Delta":396547665},{"NoteNumber":82,"Velocity":60,"Duration":95846,"SoundDuration":95846,"Delta":396646349},{"NoteNumber":80,"Velocity":51,"Duration":95846,"SoundDuration":95846,"Delta":396646349},{"NoteNumber":83,"Velocity":63,"Duration":95846,"SoundDuration":95846,"Delta":396742196},{"NoteNumber":81,"Velocity":53,"Duration":95846,"SoundDuration":95846,"Delta":396742196},{"NoteNumber":62,"Velocity":66,"Duration":70545,"SoundDuration":70545,"Delta":396814081},{"NoteNumber":68,"Velocity":68,"Duration":58564,"SoundDuration":58564,"Delta":396826062},{"NoteNumber":84,"Velocity":66,"Duration":93167,"SoundDuration":93167,"Delta":396838043},{"NoteNumber":82,"Velocity":56,"Duration":93167,"SoundDuration":93167,"Delta":396838043},{"NoteNumber":72,"Velocity":69,"Duration":46583,"SoundDuration":46583,"Delta":396838043},{"NoteNumber":88,"Velocity":69,"Duration":93167,"SoundDuration":93167,"Delta":396931211},{"NoteNumber":86,"Velocity":58,"Duration":93167,"SoundDuration":93167,"Delta":396931211},{"NoteNumber":94,"Velocity":70,"Duration":94196,"SoundDuration":94196,"Delta":397024378},{"NoteNumber":92,"Velocity":59,"Duration":94196,"SoundDuration":94196,"Delta":397024378},{"NoteNumber":88,"Velocity":73,"Duration":99667,"SoundDuration":99667,"Delta":397118575},{"NoteNumber":86,"Velocity":61,"Duration":99667,"SoundDuration":99667,"Delta":397118575},{"NoteNumber":46,"Velocity":90,"Duration":568709,"SoundDuration":568709,"Delta":397118575},{"NoteNumber":87,"Velocity":73,"Duration":95237,"SoundDuration":95237,"Delta":397218242},{"NoteNumber":85,"Velocity":61,"Duration":95237,"SoundDuration":95237,"Delta":397218242},{"NoteNumber":88,"Velocity":77,"Duration":95598,"SoundDuration":95598,"Delta":397313480},{"NoteNumber":86,"Velocity":64,"Duration":95598,"SoundDuration":95598,"Delta":397313480},{"NoteNumber":68,"Velocity":74,"Duration":116477,"SoundDuration":116477,"Delta":397384909},{"NoteNumber":74,"Velocity":78,"Duration":104483,"SoundDuration":104483,"Delta":397396904},{"NoteNumber":89,"Velocity":81,"Duration":92307,"SoundDuration":92307,"Delta":397409079},{"NoteNumber":87,"Velocity":68,"Duration":92307,"SoundDuration":92307,"Delta":397409079},{"NoteNumber":76,"Velocity":80,"Duration":92307,"SoundDuration":92307,"Delta":397409079},{"NoteNumber":88,"Velocity":83,"Duration":92307,"SoundDuration":92307,"Delta":397501387},{"NoteNumber":86,"Velocity":70,"Duration":92307,"SoundDuration":92307,"Delta":397501387},{"NoteNumber":95,"Velocity":85,"Duration":93589,"SoundDuration":93589,"Delta":397593695},{"NoteNumber":92,"Velocity":72,"Duration":93589,"SoundDuration":93589,"Delta":397593695},{"NoteNumber":90,"Velocity":85,"Duration":100335,"SoundDuration":100335,"Delta":397687284},{"NoteNumber":87,"Velocity":72,"Duration":100335,"SoundDuration":100335,"Delta":397687284},{"NoteNumber":44,"Velocity":75,"Duration":100335,"SoundDuration":100335,"Delta":397687284},{"NoteNumber":82,"Velocity":82,"Duration":101352,"SoundDuration":101352,"Delta":397787620},{"NoteNumber":51,"Velocity":68,"Duration":101352,"SoundDuration":101352,"Delta":397787620},{"NoteNumber":75,"Velocity":67,"Duration":102215,"SoundDuration":102215,"Delta":397888972},{"NoteNumber":78,"Velocity":79,"Duration":102215,"SoundDuration":102215,"Delta":397888972},{"NoteNumber":54,"Velocity":62,"Duration":102215,"SoundDuration":102215,"Delta":397888972},{"NoteNumber":70,"Velocity":76,"Duration":103271,"SoundDuration":103271,"Delta":397991187},{"NoteNumber":58,"Velocity":60,"Duration":103271,"SoundDuration":103271,"Delta":397991187},{"NoteNumber":80,"Velocity":73,"Duration":104167,"SoundDuration":104167,"Delta":398094459},{"NoteNumber":78,"Velocity":62,"Duration":104167,"SoundDuration":104167,"Delta":398094459},{"NoteNumber":61,"Velocity":59,"Duration":104167,"SoundDuration":104167,"Delta":398094459},{"NoteNumber":73,"Velocity":70,"Duration":105263,"SoundDuration":105263,"Delta":398198626},{"NoteNumber":63,"Velocity":57,"Duration":105263,"SoundDuration":105263,"Delta":398198626},{"NoteNumber":80,"Velocity":56,"Duration":104106,"SoundDuration":104106,"Delta":398303890},{"NoteNumber":82,"Velocity":67,"Duration":104106,"SoundDuration":104106,"Delta":398303890},{"NoteNumber":66,"Velocity":53,"Duration":104106,"SoundDuration":104106,"Delta":398303890},{"NoteNumber":75,"Velocity":67,"Duration":103686,"SoundDuration":103686,"Delta":398407997},{"NoteNumber":63,"Velocity":53,"Duration":103686,"SoundDuration":103686,"Delta":398407997},{"NoteNumber":82,"Velocity":58,"Duration":103211,"SoundDuration":103211,"Delta":398511684},{"NoteNumber":85,"Velocity":69,"Duration":103211,"SoundDuration":103211,"Delta":398511684},{"NoteNumber":61,"Velocity":54,"Duration":103211,"SoundDuration":103211,"Delta":398511684},{"NoteNumber":78,"Velocity":66,"Duration":102740,"SoundDuration":102740,"Delta":398614895},{"NoteNumber":58,"Velocity":55,"Duration":102740,"SoundDuration":102740,"Delta":398614895},{"NoteNumber":85,"Velocity":57,"Duration":102272,"SoundDuration":102272,"Delta":398717635},{"NoteNumber":87,"Velocity":68,"Duration":102272,"SoundDuration":102272,"Delta":398717635},{"NoteNumber":54,"Velocity":57,"Duration":102272,"SoundDuration":102272,"Delta":398717635},{"NoteNumber":80,"Velocity":70,"Duration":101810,"SoundDuration":101810,"Delta":398819908},{"NoteNumber":51,"Velocity":58,"Duration":101810,"SoundDuration":101810,"Delta":398819908},{"NoteNumber":87,"Velocity":51,"Duration":101351,"SoundDuration":101351,"Delta":398921718},{"NoteNumber":90,"Velocity":73,"Duration":101351,"SoundDuration":101351,"Delta":398921718},{"NoteNumber":44,"Velocity":55,"Duration":101351,"SoundDuration":101351,"Delta":398921718},{"NoteNumber":82,"Velocity":71,"Duration":100897,"SoundDuration":100897,"Delta":399023070},{"NoteNumber":51,"Velocity":56,"Duration":100897,"SoundDuration":100897,"Delta":399023070},{"NoteNumber":92,"Velocity":75,"Duration":100446,"SoundDuration":100446,"Delta":399123967},{"NoteNumber":90,"Velocity":63,"Duration":100446,"SoundDuration":100446,"Delta":399123967},{"NoteNumber":54,"Velocity":57,"Duration":100446,"SoundDuration":100446,"Delta":399123967},{"NoteNumber":85,"Velocity":77,"Duration":100000,"SoundDuration":100000,"Delta":399224414},{"NoteNumber":58,"Velocity":58,"Duration":100000,"SoundDuration":100000,"Delta":399224414},{"NoteNumber":94,"Velocity":79,"Duration":99557,"SoundDuration":99557,"Delta":399324414},{"NoteNumber":92,"Velocity":67,"Duration":99557,"SoundDuration":99557,"Delta":399324414},{"NoteNumber":61,"Velocity":60,"Duration":99557,"SoundDuration":99557,"Delta":399324414},{"NoteNumber":87,"Velocity":81,"Duration":99119,"SoundDuration":99119,"Delta":399423972},{"NoteNumber":63,"Velocity":61,"Duration":99119,"SoundDuration":99119,"Delta":399423972},{"NoteNumber":97,"Velocity":82,"Duration":98684,"SoundDuration":98684,"Delta":399523091},{"NoteNumber":94,"Velocity":69,"Duration":98684,"SoundDuration":98684,"Delta":399523091},{"NoteNumber":70,"Velocity":62,"Duration":98684,"SoundDuration":98684,"Delta":399523091},{"NoteNumber":90,"Velocity":83,"Duration":98253,"SoundDuration":98253,"Delta":399621776},{"NoteNumber":73,"Velocity":63,"Duration":98253,"SoundDuration":98253,"Delta":399621776},{"NoteNumber":97,"Velocity":72,"Duration":97826,"SoundDuration":97826,"Delta":399720029},{"NoteNumber":99,"Velocity":85,"Duration":97826,"SoundDuration":97826,"Delta":399720029},{"NoteNumber":75,"Velocity":64,"Duration":97826,"SoundDuration":97826,"Delta":399720029},{"NoteNumber":92,"Velocity":85,"Duration":97402,"SoundDuration":97402,"Delta":399817856},{"NoteNumber":82,"Velocity":65,"Duration":97402,"SoundDuration":97402,"Delta":399817856},{"NoteNumber":102,"Velocity":87,"Duration":100019,"SoundDuration":100019,"Delta":399915259},{"NoteNumber":99,"Velocity":73,"Duration":100019,"SoundDuration":100019,"Delta":399915259},{"NoteNumber":85,"Velocity":66,"Duration":100019,"SoundDuration":100019,"Delta":399915259},{"NoteNumber":94,"Velocity":88,"Duration":105350,"SoundDuration":105350,"Delta":400015278},{"NoteNumber":87,"Velocity":67,"Duration":105350,"SoundDuration":105350,"Delta":400015278},{"NoteNumber":80,"Velocity":61,"Duration":121819,"SoundDuration":121819,"Delta":400093746},{"NoteNumber":84,"Velocity":68,"Duration":108425,"SoundDuration":108425,"Delta":400107139},{"NoteNumber":102,"Velocity":86,"Duration":94936,"SoundDuration":94936,"Delta":400120629},{"NoteNumber":104,"Velocity":91,"Duration":94936,"SoundDuration":94936,"Delta":400120629},{"NoteNumber":90,"Velocity":75,"Duration":94936,"SoundDuration":94936,"Delta":400120629},{"NoteNumber":96,"Velocity":73,"Duration":94936,"SoundDuration":94936,"Delta":400215565},{"NoteNumber":98,"Velocity":87,"Duration":94936,"SoundDuration":94936,"Delta":400215565},{"NoteNumber":81,"Velocity":50,"Duration":106803,"SoundDuration":106803,"Delta":400298635},{"NoteNumber":97,"Velocity":72,"Duration":94936,"SoundDuration":94936,"Delta":400310502},{"NoteNumber":99,"Velocity":85,"Duration":94936,"SoundDuration":94936,"Delta":400310502},{"NoteNumber":85,"Velocity":62,"Duration":94936,"SoundDuration":94936,"Delta":400310502},{"NoteNumber":93,"Velocity":84,"Duration":94936,"SoundDuration":94936,"Delta":400405439},{"NoteNumber":91,"Velocity":71,"Duration":94936,"SoundDuration":94936,"Delta":400405439},{"NoteNumber":76,"Velocity":51,"Duration":110551,"SoundDuration":110551,"Delta":400488509},{"NoteNumber":94,"Velocity":82,"Duration":98684,"SoundDuration":98684,"Delta":400500376},{"NoteNumber":92,"Velocity":69,"Duration":98684,"SoundDuration":98684,"Delta":400500376},{"NoteNumber":80,"Velocity":64,"Duration":98684,"SoundDuration":98684,"Delta":400500376},{"NoteNumber":86,"Velocity":68,"Duration":98684,"SoundDuration":98684,"Delta":400599060},{"NoteNumber":88,"Velocity":81,"Duration":98684,"SoundDuration":98684,"Delta":400599060},{"NoteNumber":90,"Velocity":67,"Duration":96463,"SoundDuration":96463,"Delta":400697744},{"NoteNumber":92,"Velocity":79,"Duration":96463,"SoundDuration":96463,"Delta":400697744},{"NoteNumber":78,"Velocity":66,"Duration":96463,"SoundDuration":96463,"Delta":400697744},{"NoteNumber":68,"Velocity":56,"Duration":96463,"SoundDuration":96463,"Delta":400697744},{"NoteNumber":72,"Velocity":66,"Duration":96463,"SoundDuration":96463,"Delta":400697744},{"NoteNumber":84,"Velocity":66,"Duration":96462,"SoundDuration":96462,"Delta":400794207},{"NoteNumber":86,"Velocity":78,"Duration":96462,"SoundDuration":96462,"Delta":400794207},{"NoteNumber":85,"Velocity":64,"Duration":96463,"SoundDuration":96463,"Delta":400890670},{"NoteNumber":87,"Velocity":76,"Duration":96463,"SoundDuration":96463,"Delta":400890670},{"NoteNumber":69,"Velocity":48,"Duration":96463,"SoundDuration":96463,"Delta":400890670},{"NoteNumber":73,"Velocity":57,"Duration":96463,"SoundDuration":96463,"Delta":400890670},{"NoteNumber":81,"Velocity":75,"Duration":96462,"SoundDuration":96462,"Delta":400987133},{"NoteNumber":79,"Velocity":63,"Duration":96462,"SoundDuration":96462,"Delta":400987133},{"NoteNumber":82,"Velocity":73,"Duration":100000,"SoundDuration":100000,"Delta":401083596},{"NoteNumber":80,"Velocity":62,"Duration":100000,"SoundDuration":100000,"Delta":401083596},{"NoteNumber":64,"Velocity":48,"Duration":100000,"SoundDuration":100000,"Delta":401083596},{"NoteNumber":68,"Velocity":56,"Duration":100000,"SoundDuration":100000,"Delta":401083596},{"NoteNumber":74,"Velocity":61,"Duration":99999,"SoundDuration":99999,"Delta":401183596},{"NoteNumber":76,"Velocity":72,"Duration":99999,"SoundDuration":99999,"Delta":401183596},{"NoteNumber":78,"Velocity":59,"Duration":97087,"SoundDuration":97087,"Delta":401283596},{"NoteNumber":80,"Velocity":70,"Duration":97087,"SoundDuration":97087,"Delta":401283596},{"NoteNumber":66,"Velocity":61,"Duration":97087,"SoundDuration":97087,"Delta":401283596},{"NoteNumber":56,"Velocity":51,"Duration":97087,"SoundDuration":97087,"Delta":401283596},{"NoteNumber":60,"Velocity":51,"Duration":97087,"SoundDuration":97087,"Delta":401283596},{"NoteNumber":72,"Velocity":58,"Duration":97087,"SoundDuration":97087,"Delta":401380684},{"NoteNumber":74,"Velocity":69,"Duration":97087,"SoundDuration":97087,"Delta":401380684},{"NoteNumber":73,"Velocity":56,"Duration":97087,"SoundDuration":97087,"Delta":401477771},{"NoteNumber":75,"Velocity":67,"Duration":97087,"SoundDuration":97087,"Delta":401477771},{"NoteNumber":57,"Velocity":40,"Duration":97087,"SoundDuration":97087,"Delta":401477771},{"NoteNumber":61,"Velocity":47,"Duration":97087,"SoundDuration":97087,"Delta":401477771},{"NoteNumber":69,"Velocity":66,"Duration":97087,"SoundDuration":97087,"Delta":401574859},{"NoteNumber":67,"Velocity":56,"Duration":97087,"SoundDuration":97087,"Delta":401574859},{"NoteNumber":70,"Velocity":64,"Duration":101351,"SoundDuration":101351,"Delta":401671946},{"NoteNumber":68,"Velocity":54,"Duration":101351,"SoundDuration":101351,"Delta":401671946},{"NoteNumber":52,"Velocity":39,"Duration":101351,"SoundDuration":101351,"Delta":401671946},{"NoteNumber":56,"Velocity":47,"Duration":101351,"SoundDuration":101351,"Delta":401671946},{"NoteNumber":62,"Velocity":53,"Duration":101351,"SoundDuration":101351,"Delta":401773297},{"NoteNumber":64,"Velocity":63,"Duration":101351,"SoundDuration":101351,"Delta":401773297},{"NoteNumber":66,"Velocity":51,"Duration":101066,"SoundDuration":101066,"Delta":401874649},{"NoteNumber":68,"Velocity":61,"Duration":101066,"SoundDuration":101066,"Delta":401874649},{"NoteNumber":54,"Velocity":50,"Duration":101066,"SoundDuration":101066,"Delta":401874649},{"NoteNumber":44,"Velocity":42,"Duration":101066,"SoundDuration":101066,"Delta":401874649},{"NoteNumber":48,"Velocity":42,"Duration":101066,"SoundDuration":101066,"Delta":401874649},{"NoteNumber":60,"Velocity":45,"Duration":101465,"SoundDuration":101465,"Delta":401975716},{"NoteNumber":62,"Velocity":62,"Duration":101465,"SoundDuration":101465,"Delta":401975716},{"NoteNumber":61,"Velocity":42,"Duration":101867,"SoundDuration":101867,"Delta":402077181},{"NoteNumber":63,"Velocity":60,"Duration":101867,"SoundDuration":101867,"Delta":402077181},{"NoteNumber":45,"Velocity":30,"Duration":101867,"SoundDuration":101867,"Delta":402077181},{"NoteNumber":49,"Velocity":36,"Duration":101867,"SoundDuration":101867,"Delta":402077181},{"NoteNumber":57,"Velocity":58,"Duration":102330,"SoundDuration":102330,"Delta":402179049},{"NoteNumber":55,"Velocity":49,"Duration":102330,"SoundDuration":102330,"Delta":402179049},{"NoteNumber":58,"Velocity":56,"Duration":102798,"SoundDuration":102798,"Delta":402281380},{"NoteNumber":56,"Velocity":47,"Duration":102798,"SoundDuration":102798,"Delta":402281380},{"NoteNumber":40,"Velocity":31,"Duration":102798,"SoundDuration":102798,"Delta":402281380},{"NoteNumber":44,"Velocity":38,"Duration":102798,"SoundDuration":102798,"Delta":402281380},{"NoteNumber":50,"Velocity":46,"Duration":103211,"SoundDuration":103211,"Delta":402384179},{"NoteNumber":52,"Velocity":54,"Duration":103211,"SoundDuration":103211,"Delta":402384179},{"NoteNumber":54,"Velocity":44,"Duration":103686,"SoundDuration":103686,"Delta":402487390},{"NoteNumber":56,"Velocity":53,"Duration":103686,"SoundDuration":103686,"Delta":402487390},{"NoteNumber":42,"Velocity":41,"Duration":103686,"SoundDuration":103686,"Delta":402487390},{"NoteNumber":32,"Velocity":34,"Duration":103686,"SoundDuration":103686,"Delta":402487390},{"NoteNumber":36,"Velocity":34,"Duration":103686,"SoundDuration":103686,"Delta":402487390},{"NoteNumber":48,"Velocity":42,"Duration":104106,"SoundDuration":104106,"Delta":402591077},{"NoteNumber":50,"Velocity":51,"Duration":104106,"SoundDuration":104106,"Delta":402591077},{"NoteNumber":49,"Velocity":40,"Duration":104590,"SoundDuration":104590,"Delta":402695184},{"NoteNumber":51,"Velocity":48,"Duration":104590,"SoundDuration":104590,"Delta":402695184},{"NoteNumber":33,"Velocity":28,"Duration":104590,"SoundDuration":104590,"Delta":402695184},{"NoteNumber":37,"Velocity":34,"Duration":104590,"SoundDuration":104590,"Delta":402695184},{"NoteNumber":45,"Velocity":47,"Duration":105079,"SoundDuration":105079,"Delta":402799774},{"NoteNumber":43,"Velocity":39,"Duration":105079,"SoundDuration":105079,"Delta":402799774},{"NoteNumber":39,"Velocity":45,"Duration":105510,"SoundDuration":105510,"Delta":402904853},{"NoteNumber":37,"Velocity":38,"Duration":105510,"SoundDuration":105510,"Delta":402904853},{"NoteNumber":31,"Velocity":37,"Duration":106007,"SoundDuration":106007,"Delta":403010363},{"NoteNumber":33,"Velocity":44,"Duration":106007,"SoundDuration":106007,"Delta":403010363},{"NoteNumber":29,"Velocity":30,"Duration":105263,"SoundDuration":105263,"Delta":403116371},{"NoteNumber":46,"Velocity":31,"Duration":52631,"SoundDuration":52631,"Delta":403221634},{"NoteNumber":55,"Velocity":37,"Duration":52631,"SoundDuration":52631,"Delta":403221634},{"NoteNumber":52,"Velocity":31,"Duration":52631,"SoundDuration":52631,"Delta":403221634},{"NoteNumber":42,"Velocity":25,"Duration":105263,"SoundDuration":105263,"Delta":403221634},{"NoteNumber":57,"Velocity":43,"Duration":406977,"SoundDuration":406977,"Delta":403326897},{"NoteNumber":54,"Velocity":36,"Duration":406977,"SoundDuration":406977,"Delta":403326897},{"NoteNumber":49,"Velocity":36,"Duration":406977,"SoundDuration":406977,"Delta":403326897},{"NoteNumber":46,"Velocity":26,"Duration":100457,"SoundDuration":100457,"Delta":403326897},{"NoteNumber":52,"Velocity":25,"Duration":100334,"SoundDuration":100334,"Delta":403427355},{"NoteNumber":46,"Velocity":27,"Duration":103092,"SoundDuration":103092,"Delta":403527690},{"NoteNumber":42,"Velocity":25,"Duration":103092,"SoundDuration":103092,"Delta":403630782},{"NoteNumber":29,"Velocity":30,"Duration":101641,"SoundDuration":101641,"Delta":403733875},{"NoteNumber":42,"Velocity":25,"Duration":102807,"SoundDuration":102807,"Delta":403835516},{"NoteNumber":30,"Velocity":28,"Duration":101860,"SoundDuration":101860,"Delta":403938323},{"NoteNumber":42,"Velocity":26,"Duration":103044,"SoundDuration":103044,"Delta":404040183},{"NoteNumber":30,"Velocity":29,"Duration":100241,"SoundDuration":100241,"Delta":404143228},{"NoteNumber":42,"Velocity":26,"Duration":104255,"SoundDuration":104255,"Delta":404243469},{"NoteNumber":29,"Velocity":30,"Duration":101082,"SoundDuration":101082,"Delta":404347725},{"NoteNumber":42,"Velocity":25,"Duration":102549,"SoundDuration":102549,"Delta":404448808},{"NoteNumber":30,"Velocity":30,"Duration":102103,"SoundDuration":102103,"Delta":404551357},{"NoteNumber":42,"Velocity":26,"Duration":103892,"SoundDuration":103892,"Delta":404653461},{"NoteNumber":30,"Velocity":29,"Duration":101519,"SoundDuration":101519,"Delta":404757353},{"NoteNumber":42,"Velocity":26,"Duration":101358,"SoundDuration":101358,"Delta":404858872},{"NoteNumber":29,"Velocity":30,"Duration":103196,"SoundDuration":103196,"Delta":404960230},{"NoteNumber":42,"Velocity":25,"Duration":99902,"SoundDuration":99902,"Delta":405063427},{"NoteNumber":30,"Velocity":29,"Duration":103391,"SoundDuration":103391,"Delta":405163330},{"NoteNumber":42,"Velocity":25,"Duration":103083,"SoundDuration":103083,"Delta":405266721},{"NoteNumber":30,"Velocity":29,"Duration":103072,"SoundDuration":103072,"Delta":405369805},{"NoteNumber":42,"Velocity":25,"Duration":101733,"SoundDuration":101733,"Delta":405472877},{"NoteNumber":29,"Velocity":30,"Duration":103593,"SoundDuration":103593,"Delta":405574610},{"NoteNumber":42,"Velocity":25,"Duration":101896,"SoundDuration":101896,"Delta":405678203},{"NoteNumber":30,"Velocity":30,"Duration":102634,"SoundDuration":102634,"Delta":405780099},{"NoteNumber":42,"Velocity":26,"Duration":103358,"SoundDuration":103358,"Delta":405882734},{"NoteNumber":30,"Velocity":29,"Duration":102808,"SoundDuration":102808,"Delta":405986092},{"NoteNumber":42,"Velocity":26,"Duration":102799,"SoundDuration":102799,"Delta":406088900},{"NoteNumber":29,"Velocity":30,"Duration":95846,"SoundDuration":95846,"Delta":406191700},{"NoteNumber":46,"Velocity":28,"Duration":47923,"SoundDuration":47923,"Delta":406287547},{"NoteNumber":55,"Velocity":33,"Duration":47923,"SoundDuration":47923,"Delta":406287547},{"NoteNumber":52,"Velocity":28,"Duration":47923,"SoundDuration":47923,"Delta":406287547},{"NoteNumber":42,"Velocity":25,"Duration":95846,"SoundDuration":95846,"Delta":406287547},{"NoteNumber":57,"Velocity":42,"Duration":89820,"SoundDuration":89820,"Delta":406383393},{"NoteNumber":54,"Velocity":35,"Duration":89820,"SoundDuration":89820,"Delta":406383393},{"NoteNumber":49,"Velocity":35,"Duration":89820,"SoundDuration":89820,"Delta":406383393},{"NoteNumber":30,"Velocity":28,"Duration":89820,"SoundDuration":89820,"Delta":406383393},{"NoteNumber":42,"Velocity":25,"Duration":89820,"SoundDuration":89820,"Delta":406473214},{"NoteNumber":30,"Velocity":28,"Duration":94637,"SoundDuration":94637,"Delta":406563034},{"NoteNumber":43,"Velocity":28,"Duration":47318,"SoundDuration":47318,"Delta":406657671},{"NoteNumber":48,"Velocity":28,"Duration":47318,"SoundDuration":47318,"Delta":406657671},{"NoteNumber":52,"Velocity":33,"Duration":47318,"SoundDuration":47318,"Delta":406657671},{"NoteNumber":42,"Velocity":25,"Duration":94637,"SoundDuration":94637,"Delta":406657671},{"NoteNumber":47,"Velocity":36,"Duration":90089,"SoundDuration":90089,"Delta":406752308},{"NoteNumber":50,"Velocity":36,"Duration":90089,"SoundDuration":90089,"Delta":406752308},{"NoteNumber":55,"Velocity":43,"Duration":90089,"SoundDuration":90089,"Delta":406752308},{"NoteNumber":29,"Velocity":30,"Duration":90089,"SoundDuration":90089,"Delta":406752308},{"NoteNumber":42,"Velocity":24,"Duration":90090,"SoundDuration":90090,"Delta":406842398},{"NoteNumber":30,"Velocity":27,"Duration":101695,"SoundDuration":101695,"Delta":406932488},{"NoteNumber":42,"Velocity":24,"Duration":101695,"SoundDuration":101695,"Delta":407034183},{"NoteNumber":30,"Velocity":28,"Duration":101695,"SoundDuration":101695,"Delta":407135878},{"NoteNumber":42,"Velocity":24,"Duration":101695,"SoundDuration":101695,"Delta":407237573},{"NoteNumber":29,"Velocity":30,"Duration":105263,"SoundDuration":105263,"Delta":407339268},{"NoteNumber":46,"Velocity":28,"Duration":52631,"SoundDuration":52631,"Delta":407444532},{"NoteNumber":55,"Velocity":33,"Duration":52631,"SoundDuration":52631,"Delta":407444532},{"NoteNumber":52,"Velocity":28,"Duration":52631,"SoundDuration":52631,"Delta":407444532},{"NoteNumber":42,"Velocity":25,"Duration":105263,"SoundDuration":105263,"Delta":407444532},{"NoteNumber":57,"Velocity":42,"Duration":406271,"SoundDuration":406271,"Delta":407549795},{"NoteNumber":54,"Velocity":35,"Duration":406271,"SoundDuration":406271,"Delta":407549795},{"NoteNumber":49,"Velocity":35,"Duration":406271,"SoundDuration":406271,"Delta":407549795},{"NoteNumber":46,"Velocity":26,"Duration":100457,"SoundDuration":100457,"Delta":407549795},{"NoteNumber":52,"Velocity":25,"Duration":100334,"SoundDuration":100334,"Delta":407650253},{"NoteNumber":46,"Velocity":27,"Duration":102739,"SoundDuration":102739,"Delta":407750587},{"NoteNumber":42,"Velocity":25,"Duration":102739,"SoundDuration":102739,"Delta":407853327},{"NoteNumber":29,"Velocity":30,"Duration":101724,"SoundDuration":101724,"Delta":407956067},{"NoteNumber":42,"Velocity":25,"Duration":102510,"SoundDuration":102510,"Delta":408057791},{"NoteNumber":30,"Velocity":28,"Duration":102500,"SoundDuration":102500,"Delta":408160302},{"NoteNumber":42,"Velocity":26,"Duration":101841,"SoundDuration":101841,"Delta":408262802},{"NoteNumber":30,"Velocity":29,"Duration":103049,"SoundDuration":103049,"Delta":408364643},{"NoteNumber":42,"Velocity":26,"Duration":100707,"SoundDuration":100707,"Delta":408467693},{"NoteNumber":29,"Velocity":30,"Duration":102392,"SoundDuration":102392,"Delta":408568400},{"NoteNumber":42,"Velocity":25,"Duration":102711,"SoundDuration":102711,"Delta":408670793},{"NoteNumber":30,"Velocity":30,"Duration":104894,"SoundDuration":104894,"Delta":408773504},{"NoteNumber":42,"Velocity":26,"Duration":102469,"SoundDuration":102469,"Delta":408878399},{"NoteNumber":30,"Velocity":29,"Duration":100926,"SoundDuration":100926,"Delta":408980868},{"NoteNumber":42,"Velocity":26,"Duration":102976,"SoundDuration":102976,"Delta":409081795},{"NoteNumber":29,"Velocity":30,"Duration":101340,"SoundDuration":101340,"Delta":409184771},{"NoteNumber":42,"Velocity":25,"Duration":103153,"SoundDuration":103153,"Delta":409286112},{"NoteNumber":30,"Velocity":29,"Duration":101295,"SoundDuration":101295,"Delta":409389266},{"NoteNumber":42,"Velocity":25,"Duration":101937,"SoundDuration":101937,"Delta":409490562},{"NoteNumber":30,"Velocity":29,"Duration":102886,"SoundDuration":102886,"Delta":409592500},{"NoteNumber":42,"Velocity":25,"Duration":99871,"SoundDuration":99871,"Delta":409695386},{"NoteNumber":29,"Velocity":30,"Duration":102403,"SoundDuration":102403,"Delta":409795257},{"NoteNumber":42,"Velocity":25,"Duration":101978,"SoundDuration":101978,"Delta":409897661},{"NoteNumber":30,"Velocity":30,"Duration":103568,"SoundDuration":103568,"Delta":409999640},{"NoteNumber":42,"Velocity":26,"Duration":101423,"SoundDuration":101423,"Delta":410103208},{"NoteNumber":30,"Velocity":29,"Duration":103295,"SoundDuration":103295,"Delta":410204631},{"NoteNumber":42,"Velocity":26,"Duration":101285,"SoundDuration":101285,"Delta":410307927},{"NoteNumber":29,"Velocity":30,"Duration":95541,"SoundDuration":95541,"Delta":410409213},{"NoteNumber":46,"Velocity":28,"Duration":47770,"SoundDuration":47770,"Delta":410504754},{"NoteNumber":55,"Velocity":33,"Duration":47770,"SoundDuration":47770,"Delta":410504754},{"NoteNumber":52,"Velocity":28,"Duration":47770,"SoundDuration":47770,"Delta":410504754},{"NoteNumber":42,"Velocity":25,"Duration":95541,"SoundDuration":95541,"Delta":410504754},{"NoteNumber":57,"Velocity":42,"Duration":90089,"SoundDuration":90089,"Delta":410600296},{"NoteNumber":54,"Velocity":35,"Duration":90089,"SoundDuration":90089,"Delta":410600296},{"NoteNumber":49,"Velocity":35,"Duration":90089,"SoundDuration":90089,"Delta":410600296},{"NoteNumber":30,"Velocity":28,"Duration":90089,"SoundDuration":90089,"Delta":410600296},{"NoteNumber":42,"Velocity":25,"Duration":90090,"SoundDuration":90090,"Delta":410690386},{"NoteNumber":30,"Velocity":28,"Duration":95237,"SoundDuration":95237,"Delta":410780476},{"NoteNumber":43,"Velocity":28,"Duration":95237,"SoundDuration":95237,"Delta":410875714},{"NoteNumber":48,"Velocity":28,"Duration":95237,"SoundDuration":95237,"Delta":410875714},{"NoteNumber":52,"Velocity":33,"Duration":95237,"SoundDuration":95237,"Delta":410875714},{"NoteNumber":42,"Velocity":25,"Duration":95237,"SoundDuration":95237,"Delta":410875714},{"NoteNumber":47,"Velocity":36,"Duration":180723,"SoundDuration":180723,"Delta":410970952},{"NoteNumber":50,"Velocity":36,"Duration":180723,"SoundDuration":180723,"Delta":410970952},{"NoteNumber":55,"Velocity":43,"Duration":180723,"SoundDuration":180723,"Delta":410970952},{"NoteNumber":29,"Velocity":30,"Duration":90361,"SoundDuration":90361,"Delta":410970952},{"NoteNumber":42,"Velocity":24,"Duration":90361,"SoundDuration":90361,"Delta":411061313},{"NoteNumber":30,"Velocity":27,"Duration":102389,"SoundDuration":102389,"Delta":411151675},{"NoteNumber":42,"Velocity":24,"Duration":102388,"SoundDuration":102388,"Delta":411254064},{"NoteNumber":30,"Velocity":28,"Duration":102739,"SoundDuration":102739,"Delta":411356453},{"NoteNumber":46,"Velocity":38,"Duration":102739,"SoundDuration":102739,"Delta":411459192},{"NoteNumber":52,"Velocity":38,"Duration":102739,"SoundDuration":102739,"Delta":411459192},{"NoteNumber":55,"Velocity":45,"Duration":102739,"SoundDuration":102739,"Delta":411459192},{"NoteNumber":42,"Velocity":24,"Duration":102739,"SoundDuration":102739,"Delta":411459192},{"NoteNumber":49,"Velocity":41,"Duration":614861,"SoundDuration":614861,"Delta":411561932},{"NoteNumber":54,"Velocity":41,"Duration":614861,"SoundDuration":614861,"Delta":411561932},{"NoteNumber":57,"Velocity":49,"Duration":614861,"SoundDuration":614861,"Delta":411561932},{"NoteNumber":29,"Velocity":30,"Duration":100334,"SoundDuration":100334,"Delta":411561932},{"NoteNumber":42,"Velocity":31,"Duration":100334,"SoundDuration":100334,"Delta":411662267},{"NoteNumber":46,"Velocity":32,"Duration":100334,"SoundDuration":100334,"Delta":411762601},{"NoteNumber":52,"Velocity":33,"Duration":100334,"SoundDuration":100334,"Delta":411862936},{"NoteNumber":46,"Velocity":34,"Duration":106761,"SoundDuration":106761,"Delta":411963270},{"NoteNumber":42,"Velocity":35,"Duration":106761,"SoundDuration":106761,"Delta":412070032},{"NoteNumber":29,"Velocity":30,"Duration":103092,"SoundDuration":103092,"Delta":412176793},{"NoteNumber":49,"Velocity":28,"Duration":109488,"SoundDuration":109488,"Delta":412279886},{"NoteNumber":54,"Velocity":28,"Duration":109488,"SoundDuration":109488,"Delta":412279886},{"NoteNumber":59,"Velocity":33,"Duration":109488,"SoundDuration":109488,"Delta":412279886},{"NoteNumber":42,"Velocity":24,"Duration":109488,"SoundDuration":109488,"Delta":412279886},{"NoteNumber":51,"Velocity":34,"Duration":1022190,"SoundDuration":1022190,"Delta":412389375},{"NoteNumber":57,"Velocity":34,"Duration":1022190,"SoundDuration":1022190,"Delta":412389375},{"NoteNumber":61,"Velocity":40,"Duration":1022190,"SoundDuration":1022190,"Delta":412389375},{"NoteNumber":30,"Velocity":30,"Duration":103092,"SoundDuration":103092,"Delta":412389375},{"NoteNumber":42,"Velocity":24,"Duration":103092,"SoundDuration":103092,"Delta":412492468},{"NoteNumber":30,"Velocity":30,"Duration":101048,"SoundDuration":101048,"Delta":412595560},{"NoteNumber":42,"Velocity":24,"Duration":101954,"SoundDuration":101954,"Delta":412696609},{"NoteNumber":29,"Velocity":30,"Duration":102218,"SoundDuration":102218,"Delta":412798564},{"NoteNumber":42,"Velocity":24,"Duration":101672,"SoundDuration":101672,"Delta":412900783},{"NoteNumber":51,"Velocity":30,"Duration":102544,"SoundDuration":102544,"Delta":413002455},{"NoteNumber":57,"Velocity":25,"Duration":101725,"SoundDuration":101725,"Delta":413104999},{"NoteNumber":51,"Velocity":30,"Duration":102589,"SoundDuration":102589,"Delta":413206724},{"NoteNumber":42,"Velocity":24,"Duration":102252,"SoundDuration":102252,"Delta":413309313},{"NoteNumber":29,"Velocity":30,"Duration":101641,"SoundDuration":101641,"Delta":413411566},{"NoteNumber":42,"Velocity":25,"Duration":102807,"SoundDuration":102807,"Delta":413513207},{"NoteNumber":30,"Velocity":28,"Duration":101860,"SoundDuration":101860,"Delta":413616014},{"NoteNumber":42,"Velocity":26,"Duration":103044,"SoundDuration":103044,"Delta":413717874},{"NoteNumber":30,"Velocity":29,"Duration":100241,"SoundDuration":100241,"Delta":413820919},{"NoteNumber":42,"Velocity":26,"Duration":104255,"SoundDuration":104255,"Delta":413921160},{"NoteNumber":29,"Velocity":30,"Duration":101082,"SoundDuration":101082,"Delta":414025416},{"NoteNumber":42,"Velocity":25,"Duration":102549,"SoundDuration":102549,"Delta":414126499},{"NoteNumber":30,"Velocity":30,"Duration":102103,"SoundDuration":102103,"Delta":414229048},{"NoteNumber":42,"Velocity":26,"Duration":103892,"SoundDuration":103892,"Delta":414331152},{"NoteNumber":30,"Velocity":29,"Duration":101519,"SoundDuration":101519,"Delta":414435044},{"NoteNumber":42,"Velocity":26,"Duration":101358,"SoundDuration":101358,"Delta":414536563},{"NoteNumber":29,"Velocity":30,"Duration":103196,"SoundDuration":103196,"Delta":414637921},{"NoteNumber":42,"Velocity":25,"Duration":99902,"SoundDuration":99902,"Delta":414741118},{"NoteNumber":30,"Velocity":29,"Duration":103391,"SoundDuration":103391,"Delta":414841020},{"NoteNumber":42,"Velocity":25,"Duration":103083,"SoundDuration":103083,"Delta":414944412},{"NoteNumber":30,"Velocity":29,"Duration":103072,"SoundDuration":103072,"Delta":415047495},{"NoteNumber":42,"Velocity":25,"Duration":101733,"SoundDuration":101733,"Delta":415150567},{"NoteNumber":29,"Velocity":30,"Duration":103593,"SoundDuration":103593,"Delta":415252300},{"NoteNumber":42,"Velocity":25,"Duration":101896,"SoundDuration":101896,"Delta":415355894},{"NoteNumber":30,"Velocity":30,"Duration":102634,"SoundDuration":102634,"Delta":415457790},{"NoteNumber":42,"Velocity":26,"Duration":103358,"SoundDuration":103358,"Delta":415560424},{"NoteNumber":30,"Velocity":29,"Duration":102808,"SoundDuration":102808,"Delta":415663783},{"NoteNumber":42,"Velocity":26,"Duration":102754,"SoundDuration":102754,"Delta":415766591},{"NoteNumber":29,"Velocity":30,"Duration":94936,"SoundDuration":94936,"Delta":415869345},{"NoteNumber":49,"Velocity":28,"Duration":47468,"SoundDuration":47468,"Delta":415964281},{"NoteNumber":59,"Velocity":33,"Duration":47468,"SoundDuration":47468,"Delta":415964281},{"NoteNumber":54,"Velocity":28,"Duration":47468,"SoundDuration":47468,"Delta":415964281},{"NoteNumber":42,"Velocity":25,"Duration":94936,"SoundDuration":94936,"Delta":415964281},{"NoteNumber":61,"Velocity":42,"Duration":90634,"SoundDuration":90634,"Delta":416059218},{"NoteNumber":57,"Velocity":35,"Duration":90634,"SoundDuration":90634,"Delta":416059218},{"NoteNumber":51,"Velocity":35,"Duration":90634,"SoundDuration":90634,"Delta":416059218},{"NoteNumber":30,"Velocity":28,"Duration":90634,"SoundDuration":90634,"Delta":416059218},{"NoteNumber":42,"Velocity":25,"Duration":90634,"SoundDuration":90634,"Delta":416149853},{"NoteNumber":30,"Velocity":28,"Duration":94339,"SoundDuration":94339,"Delta":416240487},{"NoteNumber":45,"Velocity":28,"Duration":47169,"SoundDuration":47169,"Delta":416334827},{"NoteNumber":49,"Velocity":28,"Duration":47169,"SoundDuration":47169,"Delta":416334827},{"NoteNumber":54,"Velocity":33,"Duration":47169,"SoundDuration":47169,"Delta":416334827},{"NoteNumber":42,"Velocity":25,"Duration":94339,"SoundDuration":94339,"Delta":416334827},{"NoteNumber":49,"Velocity":36,"Duration":90634,"SoundDuration":90634,"Delta":416429166},{"NoteNumber":52,"Velocity":36,"Duration":90634,"SoundDuration":90634,"Delta":416429166},{"NoteNumber":57,"Velocity":43,"Duration":90634,"SoundDuration":90634,"Delta":416429166},{"NoteNumber":29,"Velocity":30,"Duration":90634,"SoundDuration":90634,"Delta":416429166},{"NoteNumber":42,"Velocity":24,"Duration":90634,"SoundDuration":90634,"Delta":416519801},{"NoteNumber":30,"Velocity":27,"Duration":101695,"SoundDuration":101695,"Delta":416610435},{"NoteNumber":42,"Velocity":24,"Duration":101695,"SoundDuration":101695,"Delta":416712130},{"NoteNumber":30,"Velocity":28,"Duration":101695,"SoundDuration":101695,"Delta":416813825},{"NoteNumber":49,"Velocity":28,"Duration":50847,"SoundDuration":50847,"Delta":416915520},{"NoteNumber":59,"Velocity":33,"Duration":50847,"SoundDuration":50847,"Delta":416915520},{"NoteNumber":54,"Velocity":28,"Duration":50847,"SoundDuration":50847,"Delta":416915520},{"NoteNumber":42,"Velocity":24,"Duration":101695,"SoundDuration":101695,"Delta":416915520},{"NoteNumber":61,"Velocity":42,"Duration":103022,"SoundDuration":103022,"Delta":417017215},{"NoteNumber":57,"Velocity":35,"Duration":103022,"SoundDuration":103022,"Delta":417017215},{"NoteNumber":51,"Velocity":35,"Duration":103022,"SoundDuration":103022,"Delta":417017215},{"NoteNumber":29,"Velocity":30,"Duration":103022,"SoundDuration":103022,"Delta":417017215},{"NoteNumber":42,"Velocity":25,"Duration":103092,"SoundDuration":103092,"Delta":417120238},{"NoteNumber":30,"Velocity":28,"Duration":100426,"SoundDuration":100426,"Delta":417223330},{"NoteNumber":42,"Velocity":25,"Duration":100334,"SoundDuration":100334,"Delta":417323757},{"NoteNumber":30,"Velocity":30,"Duration":101983,"SoundDuration":101983,"Delta":417424091},{"NoteNumber":52,"Velocity":34,"Duration":74999,"SoundDuration":74999,"Delta":417526075},{"NoteNumber":62,"Velocity":40,"Duration":74999,"SoundDuration":74999,"Delta":417526075},{"NoteNumber":57,"Velocity":34,"Duration":74999,"SoundDuration":74999,"Delta":417526075},{"NoteNumber":42,"Velocity":26,"Duration":149999,"SoundDuration":149999,"Delta":417526075},{"NoteNumber":64,"Velocity":47,"Duration":618486,"SoundDuration":618486,"Delta":417676075},{"NoteNumber":60,"Velocity":39,"Duration":618486,"SoundDuration":618486,"Delta":417676075},{"NoteNumber":54,"Velocity":39,"Duration":618486,"SoundDuration":618486,"Delta":417676075},{"NoteNumber":29,"Velocity":35,"Duration":103022,"SoundDuration":103022,"Delta":417676075},{"NoteNumber":42,"Velocity":30,"Duration":103092,"SoundDuration":103092,"Delta":417779098},{"NoteNumber":30,"Velocity":36,"Duration":103092,"SoundDuration":103092,"Delta":417882190},{"NoteNumber":42,"Velocity":31,"Duration":103092,"SoundDuration":103092,"Delta":417985283},{"NoteNumber":30,"Velocity":37,"Duration":103092,"SoundDuration":103092,"Delta":418088376},{"NoteNumber":42,"Velocity":32,"Duration":103092,"SoundDuration":103092,"Delta":418191469},{"NoteNumber":29,"Velocity":38,"Duration":105263,"SoundDuration":105263,"Delta":418294561},{"NoteNumber":56,"Velocity":39,"Duration":105263,"SoundDuration":105263,"Delta":418399825},{"NoteNumber":61,"Velocity":39,"Duration":105263,"SoundDuration":105263,"Delta":418399825},{"NoteNumber":66,"Velocity":46,"Duration":105263,"SoundDuration":105263,"Delta":418399825},{"NoteNumber":42,"Velocity":32,"Duration":105263,"SoundDuration":105263,"Delta":418399825},{"NoteNumber":58,"Velocity":42,"Duration":2232030,"SoundDuration":2232030,"Delta":418505088},{"NoteNumber":64,"Velocity":42,"Duration":608449,"SoundDuration":608449,"Delta":418505088},{"NoteNumber":68,"Velocity":50,"Duration":2232030,"SoundDuration":2232030,"Delta":418505088},{"NoteNumber":30,"Velocity":39,"Duration":103092,"SoundDuration":103092,"Delta":418505088},{"NoteNumber":42,"Velocity":34,"Duration":103092,"SoundDuration":103092,"Delta":418608181},{"NoteNumber":30,"Velocity":40,"Duration":103092,"SoundDuration":103092,"Delta":418711273},{"NoteNumber":42,"Velocity":34,"Duration":103092,"SoundDuration":103092,"Delta":418814366},{"NoteNumber":73,"Velocity":38,"Duration":98039,"SoundDuration":98039,"Delta":418917459},{"NoteNumber":76,"Velocity":38,"Duration":98039,"SoundDuration":98039,"Delta":418917459},{"NoteNumber":30,"Velocity":40,"Duration":588235,"SoundDuration":588235,"Delta":418917459},{"NoteNumber":64,"Velocity":34,"Duration":1721619,"SoundDuration":1721619,"Delta":419015498},{"NoteNumber":52,"Velocity":37,"Duration":98039,"SoundDuration":98039,"Delta":419113537},{"NoteNumber":61,"Velocity":37,"Duration":98039,"SoundDuration":98039,"Delta":419113537},{"NoteNumber":49,"Velocity":31,"Duration":98039,"SoundDuration":98039,"Delta":419211577},{"NoteNumber":40,"Velocity":37,"Duration":98039,"SoundDuration":98039,"Delta":419309616},{"NoteNumber":37,"Velocity":31,"Duration":98039,"SoundDuration":98039,"Delta":419407655},{"NoteNumber":29,"Velocity":30,"Duration":103196,"SoundDuration":103196,"Delta":419505694},{"NoteNumber":42,"Velocity":25,"Duration":99902,"SoundDuration":99902,"Delta":419608891},{"NoteNumber":30,"Velocity":29,"Duration":103391,"SoundDuration":103391,"Delta":419708794},{"NoteNumber":42,"Velocity":25,"Duration":103083,"SoundDuration":103083,"Delta":419812185},{"NoteNumber":30,"Velocity":29,"Duration":103072,"SoundDuration":103072,"Delta":419915268},{"NoteNumber":42,"Velocity":25,"Duration":101733,"SoundDuration":101733,"Delta":420018340},{"NoteNumber":29,"Velocity":30,"Duration":103593,"SoundDuration":103593,"Delta":420120074},{"NoteNumber":42,"Velocity":25,"Duration":101896,"SoundDuration":101896,"Delta":420223667},{"NoteNumber":30,"Velocity":30,"Duration":102634,"SoundDuration":102634,"Delta":420325563},{"NoteNumber":42,"Velocity":26,"Duration":103358,"SoundDuration":103358,"Delta":420428197},{"NoteNumber":30,"Velocity":29,"Duration":102808,"SoundDuration":102808,"Delta":420531556},{"NoteNumber":42,"Velocity":26,"Duration":102754,"SoundDuration":102754,"Delta":420634364},{"NoteNumber":29,"Velocity":30,"Duration":89820,"SoundDuration":89820,"Delta":420737118},{"NoteNumber":56,"Velocity":28,"Duration":44910,"SoundDuration":44910,"Delta":420826938},{"NoteNumber":66,"Velocity":33,"Duration":44910,"SoundDuration":44910,"Delta":420826938},{"NoteNumber":61,"Velocity":28,"Duration":44910,"SoundDuration":44910,"Delta":420826938},{"NoteNumber":42,"Velocity":25,"Duration":89820,"SoundDuration":89820,"Delta":420826938},{"NoteNumber":68,"Velocity":42,"Duration":87209,"SoundDuration":87209,"Delta":420916758},{"NoteNumber":64,"Velocity":35,"Duration":87209,"SoundDuration":87209,"Delta":420916758},{"NoteNumber":58,"Velocity":35,"Duration":87209,"SoundDuration":87209,"Delta":420916758},{"NoteNumber":30,"Velocity":28,"Duration":87209,"SoundDuration":87209,"Delta":420916758},{"NoteNumber":42,"Velocity":25,"Duration":87209,"SoundDuration":87209,"Delta":421003968},{"NoteNumber":30,"Velocity":28,"Duration":90634,"SoundDuration":90634,"Delta":421091177},{"NoteNumber":49,"Velocity":28,"Duration":45317,"SoundDuration":45317,"Delta":421181811},{"NoteNumber":52,"Velocity":28,"Duration":45317,"SoundDuration":45317,"Delta":421181811},{"NoteNumber":58,"Velocity":33,"Duration":45317,"SoundDuration":45317,"Delta":421181811},{"NoteNumber":42,"Velocity":25,"Duration":90634,"SoundDuration":90634,"Delta":421181811},{"NoteNumber":55,"Velocity":36,"Duration":84985,"SoundDuration":84985,"Delta":421272446},{"NoteNumber":60,"Velocity":36,"Duration":84985,"SoundDuration":84985,"Delta":421272446},{"NoteNumber":64,"Velocity":43,"Duration":84985,"SoundDuration":84985,"Delta":421272446},{"NoteNumber":29,"Velocity":30,"Duration":84985,"SoundDuration":84985,"Delta":421272446},{"NoteNumber":42,"Velocity":24,"Duration":84985,"SoundDuration":84985,"Delta":421357432},{"NoteNumber":30,"Velocity":27,"Duration":101695,"SoundDuration":101695,"Delta":421442417},{"NoteNumber":42,"Velocity":24,"Duration":101695,"SoundDuration":101695,"Delta":421544112},{"NoteNumber":30,"Velocity":28,"Duration":125522,"SoundDuration":125522,"Delta":421645807},{"NoteNumber":56,"Velocity":28,"Duration":53191,"SoundDuration":53191,"Delta":421771330},{"NoteNumber":66,"Velocity":33,"Duration":53191,"SoundDuration":53191,"Delta":421771330},{"NoteNumber":61,"Velocity":28,"Duration":53191,"SoundDuration":53191,"Delta":421771330},{"NoteNumber":42,"Velocity":24,"Duration":106382,"SoundDuration":106382,"Delta":421771330},{"NoteNumber":68,"Velocity":46,"Duration":1816396,"SoundDuration":1816396,"Delta":421877713},{"NoteNumber":64,"Velocity":38,"Duration":1421406,"SoundDuration":1421406,"Delta":421877713},{"NoteNumber":58,"Velocity":38,"Duration":1816396,"SoundDuration":1816396,"Delta":421877713},{"NoteNumber":29,"Velocity":30,"Duration":103022,"SoundDuration":103022,"Delta":421877713},{"NoteNumber":42,"Velocity":25,"Duration":103092,"SoundDuration":103092,"Delta":421980736},{"NoteNumber":30,"Velocity":28,"Duration":100426,"SoundDuration":100426,"Delta":422083828},{"NoteNumber":42,"Velocity":25,"Duration":100334,"SoundDuration":100334,"Delta":422184255},{"NoteNumber":30,"Velocity":30,"Duration":101983,"SoundDuration":101983,"Delta":422284589},{"NoteNumber":42,"Velocity":26,"Duration":149999,"SoundDuration":149999,"Delta":422386573},{"NoteNumber":85,"Velocity":49,"Duration":94936,"SoundDuration":94936,"Delta":422536573},{"NoteNumber":88,"Velocity":49,"Duration":94936,"SoundDuration":94936,"Delta":422536573},{"NoteNumber":30,"Velocity":48,"Duration":1157536,"SoundDuration":1157536,"Delta":422536573},{"NoteNumber":76,"Velocity":43,"Duration":94936,"SoundDuration":94936,"Delta":422631510},{"NoteNumber":64,"Velocity":46,"Duration":94936,"SoundDuration":94936,"Delta":422726447},{"NoteNumber":73,"Velocity":46,"Duration":94936,"SoundDuration":94936,"Delta":422726447},{"NoteNumber":61,"Velocity":38,"Duration":94936,"SoundDuration":94936,"Delta":422821383},{"NoteNumber":52,"Velocity":44,"Duration":94936,"SoundDuration":94936,"Delta":422916320},{"NoteNumber":49,"Velocity":36,"Duration":95138,"SoundDuration":95138,"Delta":423011257},{"NoteNumber":73,"Velocity":43,"Duration":95949,"SoundDuration":95949,"Delta":423106395},{"NoteNumber":76,"Velocity":43,"Duration":95949,"SoundDuration":95949,"Delta":423106395},{"NoteNumber":64,"Velocity":38,"Duration":491765,"SoundDuration":491765,"Delta":423202345},{"NoteNumber":52,"Velocity":40,"Duration":97508,"SoundDuration":97508,"Delta":423299120},{"NoteNumber":61,"Velocity":40,"Duration":97508,"SoundDuration":97508,"Delta":423299120},{"NoteNumber":49,"Velocity":33,"Duration":98361,"SoundDuration":98361,"Delta":423396628},{"NoteNumber":40,"Velocity":38,"Duration":99119,"SoundDuration":99119,"Delta":423494990},{"NoteNumber":37,"Velocity":31,"Duration":100000,"SoundDuration":100000,"Delta":423594109},{"NoteNumber":27,"Velocity":62,"Duration":622897,"SoundDuration":622897,"Delta":423694110},{"NoteNumber":70,"Velocity":39,"Duration":52631,"SoundDuration":52631,"Delta":423799373},{"NoteNumber":77,"Velocity":39,"Duration":52631,"SoundDuration":52631,"Delta":423799373},{"NoteNumber":82,"Velocity":46,"Duration":52631,"SoundDuration":52631,"Delta":423799373},{"NoteNumber":55,"Velocity":33,"Duration":2317724,"SoundDuration":2317724,"Delta":423799373},{"NoteNumber":61,"Velocity":33,"Duration":2317724,"SoundDuration":2317724,"Delta":423799373},{"NoteNumber":65,"Velocity":39,"Duration":52631,"SoundDuration":52631,"Delta":423799373},{"NoteNumber":72,"Velocity":42,"Duration":2212460,"SoundDuration":2212460,"Delta":423904636},{"NoteNumber":81,"Velocity":42,"Duration":2212460,"SoundDuration":2212460,"Delta":423904636},{"NoteNumber":84,"Velocity":50,"Duration":2212460,"SoundDuration":2212460,"Delta":423904636},{"NoteNumber":64,"Velocity":42,"Duration":2212460,"SoundDuration":2212460,"Delta":423904636},{"NoteNumber":69,"Velocity":42,"Duration":2212460,"SoundDuration":2212460,"Delta":423904636},{"NoteNumber":64,"Velocity":50,"Duration":103092,"SoundDuration":103092,"Delta":424110822},{"NoteNumber":61,"Velocity":45,"Duration":103092,"SoundDuration":103092,"Delta":424213915},{"NoteNumber":52,"Velocity":44,"Duration":98360,"SoundDuration":98360,"Delta":424317007},{"NoteNumber":49,"Velocity":37,"Duration":98738,"SoundDuration":98738,"Delta":424415368},{"NoteNumber":52,"Velocity":40,"Duration":99119,"SoundDuration":99119,"Delta":424514107},{"NoteNumber":49,"Velocity":35,"Duration":99502,"SoundDuration":99502,"Delta":424613226},{"NoteNumber":40,"Velocity":37,"Duration":99889,"SoundDuration":99889,"Delta":424712729},{"NoteNumber":37,"Velocity":31,"Duration":100278,"SoundDuration":100278,"Delta":424812618},{"NoteNumber":26,"Velocity":34,"Duration":100003,"SoundDuration":100003,"Delta":424912897},{"NoteNumber":39,"Velocity":30,"Duration":100508,"SoundDuration":100508,"Delta":425012900},{"NoteNumber":27,"Velocity":34,"Duration":99672,"SoundDuration":99672,"Delta":425113409},{"NoteNumber":39,"Velocity":30,"Duration":101244,"SoundDuration":101244,"Delta":425213082},{"NoteNumber":27,"Velocity":34,"Duration":99398,"SoundDuration":99398,"Delta":425314326},{"NoteNumber":39,"Velocity":30,"Duration":99906,"SoundDuration":99906,"Delta":425413725},{"NoteNumber":26,"Velocity":34,"Duration":100957,"SoundDuration":100957,"Delta":425513631},{"NoteNumber":39,"Velocity":30,"Duration":99230,"SoundDuration":99230,"Delta":425614589},{"NoteNumber":27,"Velocity":35,"Duration":101469,"SoundDuration":101469,"Delta":425713820},{"NoteNumber":39,"Velocity":30,"Duration":100119,"SoundDuration":100119,"Delta":425815289},{"NoteNumber":27,"Velocity":34,"Duration":101297,"SoundDuration":101297,"Delta":425915409},{"NoteNumber":39,"Velocity":30,"Duration":100390,"SoundDuration":100390,"Delta":426016707},{"NoteNumber":27,"Velocity":62,"Duration":1837884,"SoundDuration":1837884,"Delta":426117097},{"NoteNumber":69,"Velocity":46,"Duration":100334,"SoundDuration":100334,"Delta":426217432},{"NoteNumber":77,"Velocity":46,"Duration":198373,"SoundDuration":198373,"Delta":426217432},{"NoteNumber":81,"Velocity":55,"Duration":100334,"SoundDuration":100334,"Delta":426217432},{"NoteNumber":65,"Velocity":42,"Duration":198373,"SoundDuration":198373,"Delta":426217432},{"NoteNumber":61,"Velocity":36,"Duration":198373,"SoundDuration":198373,"Delta":426217432},{"NoteNumber":54,"Velocity":36,"Duration":100334,"SoundDuration":100334,"Delta":426217432},{"NoteNumber":70,"Velocity":44,"Duration":98039,"SoundDuration":98039,"Delta":426317766},{"NoteNumber":82,"Velocity":50,"Duration":98039,"SoundDuration":98039,"Delta":426317766},{"NoteNumber":55,"Velocity":36,"Duration":98039,"SoundDuration":98039,"Delta":426317766},{"NoteNumber":64,"Velocity":46,"Duration":101351,"SoundDuration":101351,"Delta":426615196},{"NoteNumber":72,"Velocity":46,"Duration":200035,"SoundDuration":200035,"Delta":426615196},{"NoteNumber":76,"Velocity":55,"Duration":101351,"SoundDuration":101351,"Delta":426615196},{"NoteNumber":50,"Velocity":36,"Duration":101351,"SoundDuration":101351,"Delta":426615196},{"NoteNumber":56,"Velocity":36,"Duration":200035,"SoundDuration":200035,"Delta":426615196},{"NoteNumber":60,"Velocity":42,"Duration":200035,"SoundDuration":200035,"Delta":426615196},{"NoteNumber":65,"Velocity":44,"Duration":98684,"SoundDuration":98684,"Delta":426716547},{"NoteNumber":77,"Velocity":50,"Duration":98684,"SoundDuration":98684,"Delta":426716547},{"NoteNumber":51,"Velocity":36,"Duration":98684,"SoundDuration":98684,"Delta":426716547},{"NoteNumber":68,"Velocity":46,"Duration":149999,"SoundDuration":149999,"Delta":427012600},{"NoteNumber":76,"Velocity":46,"Duration":562370,"SoundDuration":562370,"Delta":427012600},{"NoteNumber":80,"Velocity":55,"Duration":149999,"SoundDuration":149999,"Delta":427012600},{"NoteNumber":64,"Velocity":42,"Duration":562370,"SoundDuration":562370,"Delta":427012600},{"NoteNumber":55,"Velocity":36,"Duration":846985,"SoundDuration":846985,"Delta":427012600},{"NoteNumber":61,"Velocity":36,"Duration":562370,"SoundDuration":562370,"Delta":427012600},{"NoteNumber":72,"Velocity":42,"Duration":792381,"SoundDuration":792381,"Delta":427162600},{"NoteNumber":81,"Velocity":42,"Duration":792381,"SoundDuration":792381,"Delta":427162600},{"NoteNumber":84,"Velocity":50,"Duration":792381,"SoundDuration":792381,"Delta":427162600},{"NoteNumber":69,"Velocity":42,"Duration":792381,"SoundDuration":792381,"Delta":427162600},{"NoteNumber":85,"Velocity":50,"Duration":103092,"SoundDuration":103092,"Delta":427368786},{"NoteNumber":88,"Velocity":50,"Duration":103092,"SoundDuration":103092,"Delta":427368786},{"NoteNumber":76,"Velocity":45,"Duration":103092,"SoundDuration":103092,"Delta":427471878},{"NoteNumber":64,"Velocity":39,"Duration":94438,"SoundDuration":94438,"Delta":427574971},{"NoteNumber":73,"Velocity":44,"Duration":94438,"SoundDuration":94438,"Delta":427574971},{"NoteNumber":61,"Velocity":37,"Duration":94836,"SoundDuration":94836,"Delta":427669410},{"NoteNumber":52,"Velocity":40,"Duration":95339,"SoundDuration":95339,"Delta":427764247},{"NoteNumber":49,"Velocity":35,"Duration":95395,"SoundDuration":95395,"Delta":427859586},{"NoteNumber":73,"Velocity":50,"Duration":94044,"SoundDuration":94044,"Delta":427954981},{"NoteNumber":76,"Velocity":50,"Duration":94044,"SoundDuration":94044,"Delta":427954981},{"NoteNumber":64,"Velocity":45,"Duration":94737,"SoundDuration":94737,"Delta":428049026},{"NoteNumber":61,"Velocity":44,"Duration":95491,"SoundDuration":95491,"Delta":428143763},{"NoteNumber":52,"Velocity":39,"Duration":95491,"SoundDuration":95491,"Delta":428143763},{"NoteNumber":49,"Velocity":37,"Duration":96205,"SoundDuration":96205,"Delta":428239254},{"NoteNumber":40,"Velocity":40,"Duration":97628,"SoundDuration":97628,"Delta":428335460},{"NoteNumber":37,"Velocity":35,"Duration":99337,"SoundDuration":99337,"Delta":428433089},{"NoteNumber":27,"Velocity":62,"Duration":209059,"SoundDuration":209059,"Delta":428532427},{"NoteNumber":69,"Velocity":46,"Duration":104529,"SoundDuration":104529,"Delta":428636956},{"NoteNumber":77,"Velocity":46,"Duration":202568,"SoundDuration":202568,"Delta":428636956},{"NoteNumber":81,"Velocity":55,"Duration":104529,"SoundDuration":104529,"Delta":428636956},{"NoteNumber":54,"Velocity":36,"Duration":104529,"SoundDuration":104529,"Delta":428636956},{"NoteNumber":61,"Velocity":36,"Duration":202568,"SoundDuration":202568,"Delta":428636956},{"NoteNumber":65,"Velocity":42,"Duration":202568,"SoundDuration":202568,"Delta":428636956},{"NoteNumber":70,"Velocity":44,"Duration":98039,"SoundDuration":98039,"Delta":428741486},{"NoteNumber":82,"Velocity":50,"Duration":98039,"SoundDuration":98039,"Delta":428741486},{"NoteNumber":55,"Velocity":36,"Duration":98039,"SoundDuration":98039,"Delta":428741486},{"NoteNumber":64,"Velocity":46,"Duration":101351,"SoundDuration":101351,"Delta":429038915},{"NoteNumber":72,"Velocity":46,"Duration":499444,"SoundDuration":499444,"Delta":429038915},{"NoteNumber":76,"Velocity":55,"Duration":101351,"SoundDuration":101351,"Delta":429038915},{"NoteNumber":60,"Velocity":42,"Duration":200035,"SoundDuration":200035,"Delta":429038915},{"NoteNumber":50,"Velocity":36,"Duration":101351,"SoundDuration":101351,"Delta":429038915},{"NoteNumber":56,"Velocity":36,"Duration":200035,"SoundDuration":200035,"Delta":429038915},{"NoteNumber":65,"Velocity":44,"Duration":398093,"SoundDuration":398093,"Delta":429140267},{"NoteNumber":77,"Velocity":50,"Duration":398093,"SoundDuration":398093,"Delta":429140267},{"NoteNumber":51,"Velocity":36,"Duration":98684,"SoundDuration":98684,"Delta":429140267},{"NoteNumber":39,"Velocity":33,"Duration":98684,"SoundDuration":98684,"Delta":429238951},{"NoteNumber":51,"Velocity":33,"Duration":98684,"SoundDuration":98684,"Delta":429337635},{"NoteNumber":56,"Velocity":33,"Duration":102040,"SoundDuration":102040,"Delta":429436319},{"NoteNumber":68,"Velocity":39,"Duration":55350,"SoundDuration":55350,"Delta":429538360},{"NoteNumber":74,"Velocity":39,"Duration":55350,"SoundDuration":55350,"Delta":429538360},{"NoteNumber":76,"Velocity":39,"Duration":55350,"SoundDuration":55350,"Delta":429538360},{"NoteNumber":80,"Velocity":46,"Duration":55350,"SoundDuration":55350,"Delta":429538360},{"NoteNumber":62,"Velocity":33,"Duration":110701,"SoundDuration":110701,"Delta":429538360},{"NoteNumber":64,"Velocity":33,"Duration":110701,"SoundDuration":110701,"Delta":429538360},{"NoteNumber":29,"Velocity":40,"Duration":103448,"SoundDuration":103448,"Delta":429759762},{"NoteNumber":48,"Velocity":39,"Duration":51724,"SoundDuration":51724,"Delta":429863210},{"NoteNumber":60,"Velocity":46,"Duration":51724,"SoundDuration":51724,"Delta":429863210},{"NoteNumber":56,"Velocity":39,"Duration":51724,"SoundDuration":51724,"Delta":429863210},{"NoteNumber":41,"Velocity":33,"Duration":103448,"SoundDuration":103448,"Delta":429863210},{"NoteNumber":50,"Velocity":37,"Duration":2235040,"SoundDuration":2235040,"Delta":429966659},{"NoteNumber":59,"Velocity":37,"Duration":2235040,"SoundDuration":2235040,"Delta":429966659},{"NoteNumber":62,"Velocity":44,"Duration":2235040,"SoundDuration":2235040,"Delta":429966659},{"NoteNumber":41,"Velocity":33,"Duration":101695,"SoundDuration":101695,"Delta":429966659},{"NoteNumber":48,"Velocity":33,"Duration":101695,"SoundDuration":101695,"Delta":430068354},{"NoteNumber":41,"Velocity":33,"Duration":101695,"SoundDuration":101695,"Delta":430170049},{"NoteNumber":41,"Velocity":33,"Duration":101695,"SoundDuration":101695,"Delta":430271744},{"NoteNumber":29,"Velocity":42,"Duration":100339,"SoundDuration":100339,"Delta":430373439},{"NoteNumber":41,"Velocity":33,"Duration":101014,"SoundDuration":101014,"Delta":430473778},{"NoteNumber":41,"Velocity":33,"Duration":101478,"SoundDuration":101478,"Delta":430574793},{"NoteNumber":48,"Velocity":33,"Duration":100449,"SoundDuration":100449,"Delta":430676271},{"NoteNumber":41,"Velocity":33,"Duration":101638,"SoundDuration":101638,"Delta":430776720},{"NoteNumber":41,"Velocity":33,"Duration":101926,"SoundDuration":101926,"Delta":430878359},{"NoteNumber":35,"Velocity":37,"Duration":101351,"SoundDuration":101351,"Delta":430980286},{"NoteNumber":36,"Velocity":38,"Duration":101351,"SoundDuration":101351,"Delta":431081637},{"NoteNumber":37,"Velocity":39,"Duration":101009,"SoundDuration":101009,"Delta":431182988},{"NoteNumber":38,"Velocity":40,"Duration":101010,"SoundDuration":101010,"Delta":431283998},{"NoteNumber":39,"Velocity":41,"Duration":100671,"SoundDuration":100671,"Delta":431385008},{"NoteNumber":44,"Velocity":42,"Duration":100615,"SoundDuration":100615,"Delta":431485679},{"NoteNumber":47,"Velocity":43,"Duration":100167,"SoundDuration":100167,"Delta":431586295},{"NoteNumber":48,"Velocity":42,"Duration":99502,"SoundDuration":99502,"Delta":431686462},{"NoteNumber":49,"Velocity":45,"Duration":98847,"SoundDuration":98847,"Delta":431785965},{"NoteNumber":50,"Velocity":47,"Duration":98200,"SoundDuration":98200,"Delta":431884812},{"NoteNumber":51,"Velocity":49,"Duration":97719,"SoundDuration":97719,"Delta":431983012},{"NoteNumber":56,"Velocity":53,"Duration":120967,"SoundDuration":120967,"Delta":432080731},{"NoteNumber":29,"Velocity":40,"Duration":104529,"SoundDuration":104529,"Delta":432201699},{"NoteNumber":48,"Velocity":46,"Duration":104529,"SoundDuration":104529,"Delta":432306229},{"NoteNumber":56,"Velocity":46,"Duration":104529,"SoundDuration":104529,"Delta":432306229},{"NoteNumber":60,"Velocity":56,"Duration":104529,"SoundDuration":104529,"Delta":432306229},{"NoteNumber":41,"Velocity":33,"Duration":104529,"SoundDuration":104529,"Delta":432306229},{"NoteNumber":59,"Velocity":46,"Duration":98039,"SoundDuration":98039,"Delta":432410758},{"NoteNumber":50,"Velocity":46,"Duration":98039,"SoundDuration":98039,"Delta":432410758},{"NoteNumber":62,"Velocity":52,"Duration":98039,"SoundDuration":98039,"Delta":432410758},{"NoteNumber":41,"Velocity":34,"Duration":98039,"SoundDuration":98039,"Delta":432410758},{"NoteNumber":48,"Velocity":35,"Duration":98039,"SoundDuration":98039,"Delta":432508797},{"NoteNumber":41,"Velocity":36,"Duration":101351,"SoundDuration":101351,"Delta":432606837},{"NoteNumber":48,"Velocity":51,"Duration":101351,"SoundDuration":101351,"Delta":432708188},{"NoteNumber":56,"Velocity":51,"Duration":101351,"SoundDuration":101351,"Delta":432708188},{"NoteNumber":60,"Velocity":61,"Duration":101351,"SoundDuration":101351,"Delta":432708188},{"NoteNumber":41,"Velocity":36,"Duration":101351,"SoundDuration":101351,"Delta":432708188},{"NoteNumber":59,"Velocity":50,"Duration":398093,"SoundDuration":398093,"Delta":432809539},{"NoteNumber":51,"Velocity":50,"Duration":398093,"SoundDuration":398093,"Delta":432809539},{"NoteNumber":63,"Velocity":57,"Duration":398093,"SoundDuration":398093,"Delta":432809539},{"NoteNumber":29,"Velocity":46,"Duration":98684,"SoundDuration":98684,"Delta":432809539},{"NoteNumber":41,"Velocity":37,"Duration":98684,"SoundDuration":98684,"Delta":432908223},{"NoteNumber":41,"Velocity":36,"Duration":98684,"SoundDuration":98684,"Delta":433006908},{"NoteNumber":48,"Velocity":35,"Duration":102040,"SoundDuration":102040,"Delta":433105592},{"NoteNumber":60,"Velocity":52,"Duration":166051,"SoundDuration":166051,"Delta":433207633},{"NoteNumber":41,"Velocity":34,"Duration":110701,"SoundDuration":110701,"Delta":433207633},{"NoteNumber":56,"Velocity":52,"Duration":110701,"SoundDuration":110701,"Delta":433262983},{"NoteNumber":48,"Velocity":51,"Duration":55350,"SoundDuration":55350,"Delta":433318334},{"NoteNumber":41,"Velocity":33,"Duration":110701,"SoundDuration":110701,"Delta":433318334},{"NoteNumber":60,"Velocity":39,"Duration":51724,"SoundDuration":51724,"Delta":433429035},{"NoteNumber":68,"Velocity":39,"Duration":51724,"SoundDuration":51724,"Delta":433429035},{"NoteNumber":72,"Velocity":46,"Duration":51724,"SoundDuration":51724,"Delta":433429035},{"NoteNumber":29,"Velocity":40,"Duration":103448,"SoundDuration":103448,"Delta":433429035},{"NoteNumber":41,"Velocity":33,"Duration":103448,"SoundDuration":103448,"Delta":433532483},{"NoteNumber":62,"Velocity":37,"Duration":1628404,"SoundDuration":1628404,"Delta":433635931},{"NoteNumber":71,"Velocity":37,"Duration":1628404,"SoundDuration":1628404,"Delta":433635931},{"NoteNumber":74,"Velocity":44,"Duration":1628404,"SoundDuration":1628404,"Delta":433635931},{"NoteNumber":41,"Velocity":33,"Duration":101695,"SoundDuration":101695,"Delta":433635931},{"NoteNumber":48,"Velocity":33,"Duration":101695,"SoundDuration":101695,"Delta":433737626},{"NoteNumber":41,"Velocity":33,"Duration":101695,"SoundDuration":101695,"Delta":433839321},{"NoteNumber":41,"Velocity":33,"Duration":101695,"SoundDuration":101695,"Delta":433941016},{"NoteNumber":35,"Velocity":37,"Duration":102040,"SoundDuration":102040,"Delta":434042711},{"NoteNumber":36,"Velocity":38,"Duration":101810,"SoundDuration":101810,"Delta":434144752},{"NoteNumber":37,"Velocity":40,"Duration":101580,"SoundDuration":101580,"Delta":434246562},{"NoteNumber":38,"Velocity":42,"Duration":101351,"SoundDuration":101351,"Delta":434348143},{"NoteNumber":39,"Velocity":44,"Duration":101009,"SoundDuration":101009,"Delta":434449494},{"NoteNumber":44,"Velocity":46,"Duration":100786,"SoundDuration":100786,"Delta":434550504},{"NoteNumber":47,"Velocity":48,"Duration":99338,"SoundDuration":99338,"Delta":434651290},{"NoteNumber":48,"Velocity":52,"Duration":98361,"SoundDuration":98361,"Delta":434750629},{"NoteNumber":49,"Velocity":56,"Duration":97561,"SoundDuration":97561,"Delta":434848990},{"NoteNumber":50,"Velocity":60,"Duration":96619,"SoundDuration":96619,"Delta":434946552},{"NoteNumber":51,"Velocity":63,"Duration":97197,"SoundDuration":97197,"Delta":435043171},{"NoteNumber":56,"Velocity":67,"Duration":123966,"SoundDuration":123966,"Delta":435140369},{"NoteNumber":29,"Velocity":40,"Duration":104529,"SoundDuration":104529,"Delta":435264336},{"NoteNumber":48,"Velocity":46,"Duration":104529,"SoundDuration":104529,"Delta":435368866},{"NoteNumber":56,"Velocity":46,"Duration":104529,"SoundDuration":104529,"Delta":435368866},{"NoteNumber":60,"Velocity":56,"Duration":104529,"SoundDuration":104529,"Delta":435368866},{"NoteNumber":41,"Velocity":33,"Duration":104529,"SoundDuration":104529,"Delta":435368866},{"NoteNumber":59,"Velocity":46,"Duration":95846,"SoundDuration":95846,"Delta":435473395},{"NoteNumber":50,"Velocity":46,"Duration":95846,"SoundDuration":95846,"Delta":435473395},{"NoteNumber":62,"Velocity":52,"Duration":95846,"SoundDuration":95846,"Delta":435473395},{"NoteNumber":41,"Velocity":34,"Duration":95846,"SoundDuration":95846,"Delta":435473395},{"NoteNumber":48,"Velocity":36,"Duration":95846,"SoundDuration":95846,"Delta":435569242},{"NoteNumber":41,"Velocity":40,"Duration":99667,"SoundDuration":99667,"Delta":435665089},{"NoteNumber":48,"Velocity":51,"Duration":99667,"SoundDuration":99667,"Delta":435764756},{"NoteNumber":56,"Velocity":51,"Duration":99667,"SoundDuration":99667,"Delta":435764756},{"NoteNumber":60,"Velocity":61,"Duration":99667,"SoundDuration":99667,"Delta":435764756},{"NoteNumber":41,"Velocity":43,"Duration":99667,"SoundDuration":99667,"Delta":435764756},{"NoteNumber":59,"Velocity":50,"Duration":392363,"SoundDuration":392363,"Delta":435864424},{"NoteNumber":51,"Velocity":50,"Duration":392363,"SoundDuration":392363,"Delta":435864424},{"NoteNumber":63,"Velocity":57,"Duration":392363,"SoundDuration":392363,"Delta":435864424},{"NoteNumber":29,"Velocity":46,"Duration":96774,"SoundDuration":96774,"Delta":435864424},{"NoteNumber":41,"Velocity":37,"Duration":96774,"SoundDuration":96774,"Delta":435961198},{"NoteNumber":41,"Velocity":36,"Duration":96774,"SoundDuration":96774,"Delta":436057973},{"NoteNumber":48,"Velocity":35,"Duration":102040,"SoundDuration":102040,"Delta":436154747},{"NoteNumber":60,"Velocity":52,"Duration":166051,"SoundDuration":166051,"Delta":436256788},{"NoteNumber":41,"Velocity":34,"Duration":110701,"SoundDuration":110701,"Delta":436256788},{"NoteNumber":56,"Velocity":52,"Duration":110701,"SoundDuration":110701,"Delta":436312138},{"NoteNumber":48,"Velocity":51,"Duration":55350,"SoundDuration":55350,"Delta":436367489},{"NoteNumber":41,"Velocity":33,"Duration":110701,"SoundDuration":110701,"Delta":436367489},{"NoteNumber":29,"Velocity":46,"Duration":103448,"SoundDuration":103448,"Delta":436478190},{"NoteNumber":53,"Velocity":44,"Duration":51724,"SoundDuration":51724,"Delta":436581638},{"NoteNumber":61,"Velocity":44,"Duration":51724,"SoundDuration":51724,"Delta":436581638},{"NoteNumber":65,"Velocity":52,"Duration":51724,"SoundDuration":51724,"Delta":436581638},{"NoteNumber":41,"Velocity":37,"Duration":103448,"SoundDuration":103448,"Delta":436581638},{"NoteNumber":55,"Velocity":42,"Duration":2242361,"SoundDuration":2242361,"Delta":436685086},{"NoteNumber":64,"Velocity":42,"Duration":2242361,"SoundDuration":2242361,"Delta":436685086},{"NoteNumber":67,"Velocity":50,"Duration":2242361,"SoundDuration":2242361,"Delta":436685086},{"NoteNumber":46,"Velocity":37,"Duration":101695,"SoundDuration":101695,"Delta":436685086},{"NoteNumber":53,"Velocity":37,"Duration":101695,"SoundDuration":101695,"Delta":436786781},{"NoteNumber":46,"Velocity":37,"Duration":101695,"SoundDuration":101695,"Delta":436888476},{"NoteNumber":41,"Velocity":37,"Duration":101695,"SoundDuration":101695,"Delta":436990171},{"NoteNumber":29,"Velocity":48,"Duration":100339,"SoundDuration":100339,"Delta":437091866},{"NoteNumber":41,"Velocity":37,"Duration":101014,"SoundDuration":101014,"Delta":437192205},{"NoteNumber":46,"Velocity":37,"Duration":101478,"SoundDuration":101478,"Delta":437293220},{"NoteNumber":53,"Velocity":37,"Duration":100449,"SoundDuration":100449,"Delta":437394698},{"NoteNumber":46,"Velocity":37,"Duration":101638,"SoundDuration":101638,"Delta":437495147},{"NoteNumber":41,"Velocity":37,"Duration":101926,"SoundDuration":101926,"Delta":437596786},{"NoteNumber":40,"Velocity":42,"Duration":102389,"SoundDuration":102389,"Delta":437698713},{"NoteNumber":41,"Velocity":43,"Duration":102388,"SoundDuration":102388,"Delta":437801102},{"NoteNumber":42,"Velocity":44,"Duration":102040,"SoundDuration":102040,"Delta":437903491},{"NoteNumber":43,"Velocity":46,"Duration":102040,"SoundDuration":102040,"Delta":438005532},{"NoteNumber":44,"Velocity":47,"Duration":101351,"SoundDuration":101351,"Delta":438107573},{"NoteNumber":49,"Velocity":48,"Duration":100840,"SoundDuration":100840,"Delta":438208924},{"NoteNumber":52,"Velocity":47,"Duration":100334,"SoundDuration":100334,"Delta":438309765},{"NoteNumber":53,"Velocity":52,"Duration":99833,"SoundDuration":99833,"Delta":438410100},{"NoteNumber":54,"Velocity":58,"Duration":99338,"SoundDuration":99338,"Delta":438509934},{"NoteNumber":55,"Velocity":64,"Duration":98847,"SoundDuration":98847,"Delta":438609272},{"NoteNumber":56,"Velocity":73,"Duration":98360,"SoundDuration":98360,"Delta":438708119},{"NoteNumber":61,"Velocity":82,"Duration":120967,"SoundDuration":120967,"Delta":438806480},{"NoteNumber":29,"Velocity":40,"Duration":104529,"SoundDuration":104529,"Delta":438927447},{"NoteNumber":53,"Velocity":46,"Duration":104529,"SoundDuration":104529,"Delta":439031977},{"NoteNumber":61,"Velocity":46,"Duration":104529,"SoundDuration":104529,"Delta":439031977},{"NoteNumber":65,"Velocity":56,"Duration":104529,"SoundDuration":104529,"Delta":439031977},{"NoteNumber":41,"Velocity":33,"Duration":104529,"SoundDuration":104529,"Delta":439031977},{"NoteNumber":64,"Velocity":46,"Duration":95846,"SoundDuration":95846,"Delta":439136506},{"NoteNumber":55,"Velocity":46,"Duration":95846,"SoundDuration":95846,"Delta":439136506},{"NoteNumber":67,"Velocity":52,"Duration":95846,"SoundDuration":95846,"Delta":439136506},{"NoteNumber":46,"Velocity":34,"Duration":95846,"SoundDuration":95846,"Delta":439136506},{"NoteNumber":53,"Velocity":35,"Duration":95846,"SoundDuration":95846,"Delta":439232353},{"NoteNumber":46,"Velocity":39,"Duration":99667,"SoundDuration":99667,"Delta":439328200},{"NoteNumber":53,"Velocity":51,"Duration":99667,"SoundDuration":99667,"Delta":439427868},{"NoteNumber":61,"Velocity":51,"Duration":99667,"SoundDuration":99667,"Delta":439427868},{"NoteNumber":65,"Velocity":61,"Duration":99667,"SoundDuration":99667,"Delta":439427868},{"NoteNumber":41,"Velocity":45,"Duration":99667,"SoundDuration":99667,"Delta":439427868},{"NoteNumber":64,"Velocity":60,"Duration":392363,"SoundDuration":392363,"Delta":439527535},{"NoteNumber":56,"Velocity":60,"Duration":392363,"SoundDuration":392363,"Delta":439527535},{"NoteNumber":68,"Velocity":68,"Duration":392363,"SoundDuration":392363,"Delta":439527535},{"NoteNumber":29,"Velocity":51,"Duration":96774,"SoundDuration":96774,"Delta":439527535},{"NoteNumber":41,"Velocity":46,"Duration":96774,"SoundDuration":96774,"Delta":439624310},{"NoteNumber":46,"Velocity":43,"Duration":96774,"SoundDuration":96774,"Delta":439721084},{"NoteNumber":53,"Velocity":35,"Duration":102040,"SoundDuration":102040,"Delta":439817858},{"NoteNumber":65,"Velocity":52,"Duration":166051,"SoundDuration":166051,"Delta":439919899},{"NoteNumber":46,"Velocity":34,"Duration":110701,"SoundDuration":110701,"Delta":439919899},{"NoteNumber":61,"Velocity":52,"Duration":110701,"SoundDuration":110701,"Delta":439975249},{"NoteNumber":53,"Velocity":51,"Duration":55350,"SoundDuration":55350,"Delta":440030600},{"NoteNumber":41,"Velocity":33,"Duration":110701,"SoundDuration":110701,"Delta":440030600},{"NoteNumber":29,"Velocity":46,"Duration":103448,"SoundDuration":103448,"Delta":440141301},{"NoteNumber":65,"Velocity":44,"Duration":51724,"SoundDuration":51724,"Delta":440244749},{"NoteNumber":73,"Velocity":44,"Duration":51724,"SoundDuration":51724,"Delta":440244749},{"NoteNumber":77,"Velocity":52,"Duration":51724,"SoundDuration":51724,"Delta":440244749},{"NoteNumber":41,"Velocity":37,"Duration":103448,"SoundDuration":103448,"Delta":440244749},{"NoteNumber":67,"Velocity":42,"Duration":1632342,"SoundDuration":1632342,"Delta":440348197},{"NoteNumber":76,"Velocity":42,"Duration":1632342,"SoundDuration":1632342,"Delta":440348197},{"NoteNumber":79,"Velocity":50,"Duration":1632342,"SoundDuration":1632342,"Delta":440348197},{"NoteNumber":46,"Velocity":37,"Duration":101695,"SoundDuration":101695,"Delta":440348197},{"NoteNumber":53,"Velocity":37,"Duration":101695,"SoundDuration":101695,"Delta":440449892},{"NoteNumber":46,"Velocity":37,"Duration":101695,"SoundDuration":101695,"Delta":440551587},{"NoteNumber":41,"Velocity":37,"Duration":101695,"SoundDuration":101695,"Delta":440653282},{"NoteNumber":40,"Velocity":42,"Duration":102389,"SoundDuration":102389,"Delta":440754977},{"NoteNumber":41,"Velocity":43,"Duration":102388,"SoundDuration":102388,"Delta":440857366},{"NoteNumber":42,"Velocity":46,"Duration":102040,"SoundDuration":102040,"Delta":440959755},{"NoteNumber":43,"Velocity":48,"Duration":102040,"SoundDuration":102040,"Delta":441061796},{"NoteNumber":44,"Velocity":50,"Duration":101695,"SoundDuration":101695,"Delta":441163837},{"NoteNumber":49,"Velocity":52,"Duration":101412,"SoundDuration":101412,"Delta":441265532},{"NoteNumber":52,"Velocity":58,"Duration":99668,"SoundDuration":99668,"Delta":441366944},{"NoteNumber":53,"Velocity":63,"Duration":98684,"SoundDuration":98684,"Delta":441466613},{"NoteNumber":54,"Velocity":67,"Duration":97880,"SoundDuration":97880,"Delta":441565298},{"NoteNumber":55,"Velocity":72,"Duration":96931,"SoundDuration":96931,"Delta":441663178},{"NoteNumber":56,"Velocity":77,"Duration":96462,"SoundDuration":96462,"Delta":441760110},{"NoteNumber":61,"Velocity":82,"Duration":123966,"SoundDuration":123966,"Delta":441856573},{"NoteNumber":29,"Velocity":46,"Duration":104529,"SoundDuration":104529,"Delta":441980540},{"NoteNumber":53,"Velocity":53,"Duration":104529,"SoundDuration":104529,"Delta":442085069},{"NoteNumber":61,"Velocity":53,"Duration":104529,"SoundDuration":104529,"Delta":442085069},{"NoteNumber":65,"Velocity":64,"Duration":104529,"SoundDuration":104529,"Delta":442085069},{"NoteNumber":41,"Velocity":37,"Duration":104529,"SoundDuration":104529,"Delta":442085069},{"NoteNumber":64,"Velocity":52,"Duration":96153,"SoundDuration":96153,"Delta":442189599},{"NoteNumber":56,"Velocity":52,"Duration":96153,"SoundDuration":96153,"Delta":442189599},{"NoteNumber":68,"Velocity":59,"Duration":96153,"SoundDuration":96153,"Delta":442189599},{"NoteNumber":46,"Velocity":38,"Duration":96153,"SoundDuration":96153,"Delta":442189599},{"NoteNumber":53,"Velocity":45,"Duration":96153,"SoundDuration":96153,"Delta":442285752},{"NoteNumber":46,"Velocity":49,"Duration":99337,"SoundDuration":99337,"Delta":442381906},{"NoteNumber":53,"Velocity":58,"Duration":99337,"SoundDuration":99337,"Delta":442481244},{"NoteNumber":61,"Velocity":58,"Duration":99337,"SoundDuration":99337,"Delta":442481244},{"NoteNumber":65,"Velocity":70,"Duration":99337,"SoundDuration":99337,"Delta":442481244},{"NoteNumber":41,"Velocity":52,"Duration":99337,"SoundDuration":99337,"Delta":442481244},{"NoteNumber":64,"Velocity":68,"Duration":392363,"SoundDuration":392363,"Delta":442580582},{"NoteNumber":57,"Velocity":68,"Duration":392363,"SoundDuration":392363,"Delta":442580582},{"NoteNumber":69,"Velocity":78,"Duration":392363,"SoundDuration":392363,"Delta":442580582},{"NoteNumber":29,"Velocity":60,"Duration":96774,"SoundDuration":96774,"Delta":442580582},{"NoteNumber":41,"Velocity":50,"Duration":96774,"SoundDuration":96774,"Delta":442677356},{"NoteNumber":46,"Velocity":47,"Duration":96774,"SoundDuration":96774,"Delta":442774130},{"NoteNumber":53,"Velocity":45,"Duration":102040,"SoundDuration":102040,"Delta":442870904},{"NoteNumber":65,"Velocity":58,"Duration":166051,"SoundDuration":166051,"Delta":442972945},{"NoteNumber":46,"Velocity":41,"Duration":110701,"SoundDuration":110701,"Delta":442972945},{"NoteNumber":61,"Velocity":54,"Duration":110701,"SoundDuration":110701,"Delta":443028296},{"NoteNumber":53,"Velocity":53,"Duration":55350,"SoundDuration":55350,"Delta":443083646},{"NoteNumber":41,"Velocity":39,"Duration":110701,"SoundDuration":110701,"Delta":443083646},{"NoteNumber":34,"Velocity":58,"Duration":102389,"SoundDuration":102389,"Delta":443194347},{"NoteNumber":46,"Velocity":49,"Duration":102388,"SoundDuration":102388,"Delta":443296736},{"NoteNumber":72,"Velocity":70,"Duration":409439,"SoundDuration":409439,"Delta":443399125},{"NoteNumber":76,"Velocity":70,"Duration":409439,"SoundDuration":409439,"Delta":443399125},{"NoteNumber":80,"Velocity":70,"Duration":409439,"SoundDuration":409439,"Delta":443399125},{"NoteNumber":84,"Velocity":85,"Duration":409439,"SoundDuration":409439,"Delta":443399125},{"NoteNumber":52,"Velocity":52,"Duration":102389,"SoundDuration":102389,"Delta":443399125},{"NoteNumber":64,"Velocity":48,"Duration":102389,"SoundDuration":102389,"Delta":443501514},{"NoteNumber":56,"Velocity":48,"Duration":102389,"SoundDuration":102389,"Delta":443501514},{"NoteNumber":52,"Velocity":53,"Duration":102389,"SoundDuration":102389,"Delta":443603903},{"NoteNumber":46,"Velocity":51,"Duration":102272,"SoundDuration":102272,"Delta":443706292},{"NoteNumber":34,"Velocity":44,"Duration":101352,"SoundDuration":101352,"Delta":443808565},{"NoteNumber":46,"Velocity":52,"Duration":101352,"SoundDuration":101352,"Delta":443808565},{"NoteNumber":47,"Velocity":49,"Duration":100224,"SoundDuration":100224,"Delta":443909917},{"NoteNumber":52,"Velocity":49,"Duration":100224,"SoundDuration":100224,"Delta":443909917},{"NoteNumber":56,"Velocity":60,"Duration":100224,"SoundDuration":100224,"Delta":443909917},{"NoteNumber":48,"Velocity":60,"Duration":99174,"SoundDuration":99174,"Delta":444010141},{"NoteNumber":36,"Velocity":51,"Duration":99174,"SoundDuration":99174,"Delta":444010141},{"NoteNumber":49,"Velocity":56,"Duration":98093,"SoundDuration":98093,"Delta":444109316},{"NoteNumber":52,"Velocity":56,"Duration":98093,"SoundDuration":98093,"Delta":444109316},{"NoteNumber":56,"Velocity":67,"Duration":98093,"SoundDuration":98093,"Delta":444109316},{"NoteNumber":37,"Velocity":59,"Duration":97036,"SoundDuration":97036,"Delta":444207410},{"NoteNumber":49,"Velocity":70,"Duration":97036,"SoundDuration":97036,"Delta":444207410},{"NoteNumber":60,"Velocity":76,"Duration":109090,"SoundDuration":109090,"Delta":444304446},{"NoteNumber":56,"Velocity":63,"Duration":109090,"SoundDuration":109090,"Delta":444304446},{"NoteNumber":34,"Velocity":58,"Duration":101695,"SoundDuration":101695,"Delta":444413537},{"NoteNumber":58,"Velocity":49,"Duration":101695,"SoundDuration":101695,"Delta":444515232},{"NoteNumber":64,"Velocity":49,"Duration":101695,"SoundDuration":101695,"Delta":444515232},{"NoteNumber":70,"Velocity":59,"Duration":101695,"SoundDuration":101695,"Delta":444515232},{"NoteNumber":46,"Velocity":50,"Duration":101695,"SoundDuration":101695,"Delta":444515232},{"NoteNumber":60,"Velocity":51,"Duration":195439,"SoundDuration":195439,"Delta":444616927},{"NoteNumber":68,"Velocity":51,"Duration":195439,"SoundDuration":195439,"Delta":444616927},{"NoteNumber":72,"Velocity":61,"Duration":195439,"SoundDuration":195439,"Delta":444616927},{"NoteNumber":52,"Velocity":53,"Duration":97719,"SoundDuration":97719,"Delta":444616927},{"NoteNumber":56,"Velocity":56,"Duration":97719,"SoundDuration":97719,"Delta":444714647},{"NoteNumber":52,"Velocity":59,"Duration":100671,"SoundDuration":100671,"Delta":444812366},{"NoteNumber":61,"Velocity":58,"Duration":100671,"SoundDuration":100671,"Delta":444913038},{"NoteNumber":67,"Velocity":58,"Duration":495408,"SoundDuration":495408,"Delta":444913038},{"NoteNumber":73,"Velocity":69,"Duration":100671,"SoundDuration":100671,"Delta":444913038},{"NoteNumber":46,"Velocity":64,"Duration":100671,"SoundDuration":100671,"Delta":444913038},{"NoteNumber":63,"Velocity":62,"Duration":394736,"SoundDuration":394736,"Delta":445013709},{"NoteNumber":70,"Velocity":74,"Duration":394736,"SoundDuration":394736,"Delta":445013709},{"NoteNumber":75,"Velocity":74,"Duration":394736,"SoundDuration":394736,"Delta":445013709},{"NoteNumber":30,"Velocity":68,"Duration":98684,"SoundDuration":98684,"Delta":445013709},{"NoteNumber":42,"Velocity":57,"Duration":98684,"SoundDuration":98684,"Delta":445112393},{"NoteNumber":46,"Velocity":55,"Duration":98684,"SoundDuration":98684,"Delta":445211077},{"NoteNumber":52,"Velocity":54,"Duration":98684,"SoundDuration":98684,"Delta":445309762},{"NoteNumber":58,"Velocity":53,"Duration":50847,"SoundDuration":50847,"Delta":445408446},{"NoteNumber":66,"Velocity":53,"Duration":50847,"SoundDuration":50847,"Delta":445408446},{"NoteNumber":70,"Velocity":63,"Duration":50847,"SoundDuration":50847,"Delta":445408446},{"NoteNumber":46,"Velocity":53,"Duration":101695,"SoundDuration":101695,"Delta":445408446},{"NoteNumber":42,"Velocity":51,"Duration":101695,"SoundDuration":101695,"Delta":445510141},{"NoteNumber":34,"Velocity":58,"Duration":102389,"SoundDuration":102389,"Delta":445611836},{"NoteNumber":46,"Velocity":49,"Duration":102388,"SoundDuration":102388,"Delta":445714225},{"NoteNumber":72,"Velocity":70,"Duration":409556,"SoundDuration":409556,"Delta":445816614},{"NoteNumber":76,"Velocity":70,"Duration":409556,"SoundDuration":409556,"Delta":445816614},{"NoteNumber":80,"Velocity":72,"Duration":409556,"SoundDuration":409556,"Delta":445816614},{"NoteNumber":84,"Velocity":86,"Duration":409556,"SoundDuration":409556,"Delta":445816614},{"NoteNumber":52,"Velocity":52,"Duration":102389,"SoundDuration":102389,"Delta":445816614},{"NoteNumber":56,"Velocity":48,"Duration":102389,"SoundDuration":102389,"Delta":445919003},{"NoteNumber":64,"Velocity":48,"Duration":102389,"SoundDuration":102389,"Delta":445919003},{"NoteNumber":52,"Velocity":53,"Duration":102389,"SoundDuration":102389,"Delta":446021392},{"NoteNumber":46,"Velocity":51,"Duration":102388,"SoundDuration":102388,"Delta":446123781},{"NoteNumber":34,"Velocity":44,"Duration":102682,"SoundDuration":102682,"Delta":446226170},{"NoteNumber":46,"Velocity":52,"Duration":102682,"SoundDuration":102682,"Delta":446226170},{"NoteNumber":59,"Velocity":49,"Duration":101467,"SoundDuration":101467,"Delta":446328852},{"NoteNumber":64,"Velocity":49,"Duration":101467,"SoundDuration":101467,"Delta":446328852},{"NoteNumber":68,"Velocity":60,"Duration":101467,"SoundDuration":101467,"Delta":446328852},{"NoteNumber":48,"Velocity":51,"Duration":100168,"SoundDuration":100168,"Delta":446430319},{"NoteNumber":60,"Velocity":60,"Duration":100168,"SoundDuration":100168,"Delta":446430319},{"NoteNumber":61,"Velocity":56,"Duration":98902,"SoundDuration":98902,"Delta":446530487},{"NoteNumber":64,"Velocity":56,"Duration":98902,"SoundDuration":98902,"Delta":446530487},{"NoteNumber":68,"Velocity":67,"Duration":98902,"SoundDuration":98902,"Delta":446530487},{"NoteNumber":49,"Velocity":59,"Duration":97721,"SoundDuration":97721,"Delta":446629390},{"NoteNumber":61,"Velocity":70,"Duration":97721,"SoundDuration":97721,"Delta":446629390},{"NoteNumber":72,"Velocity":76,"Duration":109090,"SoundDuration":109090,"Delta":446727111},{"NoteNumber":68,"Velocity":63,"Duration":109090,"SoundDuration":109090,"Delta":446727111},{"NoteNumber":34,"Velocity":58,"Duration":101695,"SoundDuration":101695,"Delta":446836202},{"NoteNumber":58,"Velocity":49,"Duration":101695,"SoundDuration":101695,"Delta":446937897},{"NoteNumber":64,"Velocity":49,"Duration":101695,"SoundDuration":101695,"Delta":446937897},{"NoteNumber":70,"Velocity":59,"Duration":101695,"SoundDuration":101695,"Delta":446937897},{"NoteNumber":46,"Velocity":50,"Duration":101695,"SoundDuration":101695,"Delta":446937897},{"NoteNumber":60,"Velocity":51,"Duration":192925,"SoundDuration":192925,"Delta":447039592},{"NoteNumber":68,"Velocity":51,"Duration":192925,"SoundDuration":192925,"Delta":447039592},{"NoteNumber":72,"Velocity":61,"Duration":192925,"SoundDuration":192925,"Delta":447039592},{"NoteNumber":52,"Velocity":53,"Duration":96463,"SoundDuration":96463,"Delta":447039592},{"NoteNumber":56,"Velocity":56,"Duration":96462,"SoundDuration":96462,"Delta":447136055},{"NoteNumber":52,"Velocity":58,"Duration":100671,"SoundDuration":100671,"Delta":447232518},{"NoteNumber":61,"Velocity":58,"Duration":100671,"SoundDuration":100671,"Delta":447333190},{"NoteNumber":67,"Velocity":58,"Duration":495408,"SoundDuration":495408,"Delta":447333190},{"NoteNumber":73,"Velocity":69,"Duration":100671,"SoundDuration":100671,"Delta":447333190},{"NoteNumber":46,"Velocity":64,"Duration":100671,"SoundDuration":100671,"Delta":447333190},{"NoteNumber":63,"Velocity":62,"Duration":394736,"SoundDuration":394736,"Delta":447433861},{"NoteNumber":70,"Velocity":74,"Duration":394736,"SoundDuration":394736,"Delta":447433861},{"NoteNumber":75,"Velocity":74,"Duration":394736,"SoundDuration":394736,"Delta":447433861},{"NoteNumber":30,"Velocity":70,"Duration":98684,"SoundDuration":98684,"Delta":447433861},{"NoteNumber":42,"Velocity":57,"Duration":98684,"SoundDuration":98684,"Delta":447532545},{"NoteNumber":46,"Velocity":55,"Duration":98684,"SoundDuration":98684,"Delta":447631229},{"NoteNumber":52,"Velocity":54,"Duration":98684,"SoundDuration":98684,"Delta":447729914},{"NoteNumber":58,"Velocity":53,"Duration":50847,"SoundDuration":50847,"Delta":447828598},{"NoteNumber":66,"Velocity":53,"Duration":50847,"SoundDuration":50847,"Delta":447828598},{"NoteNumber":70,"Velocity":63,"Duration":50847,"SoundDuration":50847,"Delta":447828598},{"NoteNumber":46,"Velocity":53,"Duration":101695,"SoundDuration":101695,"Delta":447828598},{"NoteNumber":42,"Velocity":51,"Duration":101695,"SoundDuration":101695,"Delta":447930293},{"NoteNumber":33,"Velocity":63,"Duration":102389,"SoundDuration":102389,"Delta":448031988},{"NoteNumber":45,"Velocity":53,"Duration":102388,"SoundDuration":102388,"Delta":448134377},{"NoteNumber":81,"Velocity":77,"Duration":409556,"SoundDuration":409556,"Delta":448236766},{"NoteNumber":84,"Velocity":77,"Duration":409556,"SoundDuration":409556,"Delta":448236766},{"NoteNumber":88,"Velocity":77,"Duration":409556,"SoundDuration":409556,"Delta":448236766},{"NoteNumber":93,"Velocity":91,"Duration":409556,"SoundDuration":409556,"Delta":448236766},{"NoteNumber":52,"Velocity":57,"Duration":102389,"SoundDuration":102389,"Delta":448236766},{"NoteNumber":60,"Velocity":52,"Duration":102389,"SoundDuration":102389,"Delta":448339155},{"NoteNumber":64,"Velocity":52,"Duration":102389,"SoundDuration":102389,"Delta":448339155},{"NoteNumber":57,"Velocity":52,"Duration":102389,"SoundDuration":102389,"Delta":448339155},{"NoteNumber":52,"Velocity":58,"Duration":102389,"SoundDuration":102389,"Delta":448441544},{"NoteNumber":45,"Velocity":56,"Duration":102388,"SoundDuration":102388,"Delta":448543933},{"NoteNumber":33,"Velocity":63,"Duration":104166,"SoundDuration":104166,"Delta":448646322},{"NoteNumber":64,"Velocity":70,"Duration":104166,"SoundDuration":104166,"Delta":448750489},{"NoteNumber":72,"Velocity":70,"Duration":104166,"SoundDuration":104166,"Delta":448750489},{"NoteNumber":76,"Velocity":70,"Duration":104166,"SoundDuration":104166,"Delta":448750489},{"NoteNumber":45,"Velocity":53,"Duration":104166,"SoundDuration":104166,"Delta":448750489},{"NoteNumber":66,"Velocity":76,"Duration":408163,"SoundDuration":408163,"Delta":448854655},{"NoteNumber":75,"Velocity":76,"Duration":408163,"SoundDuration":408163,"Delta":448854655},{"NoteNumber":78,"Velocity":76,"Duration":408163,"SoundDuration":408163,"Delta":448854655},{"NoteNumber":52,"Velocity":54,"Duration":102040,"SoundDuration":102040,"Delta":448854655},{"NoteNumber":60,"Velocity":52,"Duration":102040,"SoundDuration":102040,"Delta":448956696},{"NoteNumber":52,"Velocity":58,"Duration":102040,"SoundDuration":102040,"Delta":449058737},{"NoteNumber":45,"Velocity":51,"Duration":102040,"SoundDuration":102040,"Delta":449160778},{"NoteNumber":33,"Velocity":63,"Duration":104166,"SoundDuration":104166,"Delta":449262818},{"NoteNumber":48,"Velocity":61,"Duration":103812,"SoundDuration":103812,"Delta":449366985},{"NoteNumber":52,"Velocity":61,"Duration":103812,"SoundDuration":103812,"Delta":449366985},{"NoteNumber":45,"Velocity":49,"Duration":103812,"SoundDuration":103812,"Delta":449366985},{"NoteNumber":51,"Velocity":66,"Duration":408162,"SoundDuration":408162,"Delta":449470798},{"NoteNumber":54,"Velocity":66,"Duration":408162,"SoundDuration":408162,"Delta":449470798},{"NoteNumber":52,"Velocity":54,"Duration":102040,"SoundDuration":102040,"Delta":449470798},{"NoteNumber":60,"Velocity":52,"Duration":102040,"SoundDuration":102040,"Delta":449572838},{"NoteNumber":52,"Velocity":55,"Duration":102040,"SoundDuration":102040,"Delta":449674879},{"NoteNumber":52,"Velocity":56,"Duration":102040,"SoundDuration":102040,"Delta":449776920},{"NoteNumber":40,"Velocity":44,"Duration":102916,"SoundDuration":102916,"Delta":449878961},{"NoteNumber":52,"Velocity":52,"Duration":102916,"SoundDuration":102916,"Delta":449878961},{"NoteNumber":60,"Velocity":49,"Duration":102157,"SoundDuration":102157,"Delta":449981877},{"NoteNumber":53,"Velocity":49,"Duration":102157,"SoundDuration":102157,"Delta":449981877},{"NoteNumber":57,"Velocity":49,"Duration":102157,"SoundDuration":102157,"Delta":449981877},{"NoteNumber":65,"Velocity":59,"Duration":102157,"SoundDuration":102157,"Delta":449981877},{"NoteNumber":42,"Velocity":49,"Duration":101408,"SoundDuration":101408,"Delta":450084034},{"NoteNumber":54,"Velocity":58,"Duration":101408,"SoundDuration":101408,"Delta":450084034},{"NoteNumber":64,"Velocity":54,"Duration":100671,"SoundDuration":100671,"Delta":450185443},{"NoteNumber":55,"Velocity":54,"Duration":100671,"SoundDuration":100671,"Delta":450185443},{"NoteNumber":60,"Velocity":54,"Duration":100671,"SoundDuration":100671,"Delta":450185443},{"NoteNumber":67,"Velocity":64,"Duration":100671,"SoundDuration":100671,"Delta":450185443},{"NoteNumber":52,"Velocity":65,"Duration":99890,"SoundDuration":99890,"Delta":450286115},{"NoteNumber":44,"Velocity":55,"Duration":99890,"SoundDuration":99890,"Delta":450286115},{"NoteNumber":56,"Velocity":65,"Duration":99890,"SoundDuration":99890,"Delta":450286115},{"NoteNumber":72,"Velocity":59,"Duration":99119,"SoundDuration":99119,"Delta":450386005},{"NoteNumber":76,"Velocity":70,"Duration":99119,"SoundDuration":99119,"Delta":450386005},{"NoteNumber":64,"Velocity":59,"Duration":99119,"SoundDuration":99119,"Delta":450386005},{"NoteNumber":52,"Velocity":57,"Duration":98200,"SoundDuration":98200,"Delta":450485124},{"NoteNumber":64,"Velocity":68,"Duration":98200,"SoundDuration":98200,"Delta":450485124},{"NoteNumber":69,"Velocity":61,"Duration":97245,"SoundDuration":97245,"Delta":450583325},{"NoteNumber":65,"Velocity":61,"Duration":97245,"SoundDuration":97245,"Delta":450583325},{"NoteNumber":72,"Velocity":61,"Duration":97245,"SoundDuration":97245,"Delta":450583325},{"NoteNumber":77,"Velocity":73,"Duration":97245,"SoundDuration":97245,"Delta":450583325},{"NoteNumber":54,"Velocity":63,"Duration":96309,"SoundDuration":96309,"Delta":450680571},{"NoteNumber":66,"Velocity":75,"Duration":96309,"SoundDuration":96309,"Delta":450680571},{"NoteNumber":67,"Velocity":67,"Duration":95390,"SoundDuration":95390,"Delta":450776880},{"NoteNumber":72,"Velocity":67,"Duration":95390,"SoundDuration":95390,"Delta":450776880},{"NoteNumber":76,"Velocity":67,"Duration":95390,"SoundDuration":95390,"Delta":450776880},{"NoteNumber":79,"Velocity":80,"Duration":95390,"SoundDuration":95390,"Delta":450776880},{"NoteNumber":64,"Velocity":69,"Duration":94489,"SoundDuration":94489,"Delta":450872270},{"NoteNumber":56,"Velocity":69,"Duration":94489,"SoundDuration":94489,"Delta":450872270},{"NoteNumber":68,"Velocity":82,"Duration":94489,"SoundDuration":94489,"Delta":450872270},{"NoteNumber":76,"Velocity":74,"Duration":109090,"SoundDuration":109090,"Delta":450966759},{"NoteNumber":88,"Velocity":87,"Duration":109090,"SoundDuration":109090,"Delta":450966759},{"NoteNumber":84,"Velocity":74,"Duration":109090,"SoundDuration":109090,"Delta":450966759},{"NoteNumber":33,"Velocity":45,"Duration":103092,"SoundDuration":103092,"Delta":451075850},{"NoteNumber":64,"Velocity":56,"Duration":53003,"SoundDuration":53003,"Delta":451178943},{"NoteNumber":60,"Velocity":47,"Duration":53003,"SoundDuration":53003,"Delta":451178943},{"NoteNumber":52,"Velocity":47,"Duration":53003,"SoundDuration":53003,"Delta":451178943},{"NoteNumber":41,"Velocity":46,"Duration":106006,"SoundDuration":106006,"Delta":451178943},{"NoteNumber":54,"Velocity":48,"Duration":305085,"SoundDuration":305085,"Delta":451284950},{"NoteNumber":66,"Velocity":57,"Duration":305085,"SoundDuration":305085,"Delta":451284950},{"NoteNumber":63,"Velocity":48,"Duration":305085,"SoundDuration":305085,"Delta":451284950},{"NoteNumber":42,"Velocity":46,"Duration":101695,"SoundDuration":101695,"Delta":451284950},{"NoteNumber":43,"Velocity":47,"Duration":101695,"SoundDuration":101695,"Delta":451386645},{"NoteNumber":44,"Velocity":48,"Duration":101695,"SoundDuration":101695,"Delta":451488340},{"NoteNumber":68,"Velocity":60,"Duration":50847,"SoundDuration":50847,"Delta":451590035},{"NoteNumber":60,"Velocity":50,"Duration":50847,"SoundDuration":50847,"Delta":451590035},{"NoteNumber":56,"Velocity":50,"Duration":50847,"SoundDuration":50847,"Delta":451590035},{"NoteNumber":52,"Velocity":49,"Duration":101695,"SoundDuration":101695,"Delta":451590035},{"NoteNumber":32,"Velocity":50,"Duration":104166,"SoundDuration":104166,"Delta":451691730},{"NoteNumber":57,"Velocity":52,"Duration":104166,"SoundDuration":104166,"Delta":451795897},{"NoteNumber":63,"Velocity":52,"Duration":104166,"SoundDuration":104166,"Delta":451795897},{"NoteNumber":69,"Velocity":62,"Duration":104166,"SoundDuration":104166,"Delta":451795897},{"NoteNumber":42,"Velocity":51,"Duration":104166,"SoundDuration":104166,"Delta":451795897},{"NoteNumber":59,"Velocity":53,"Duration":305085,"SoundDuration":305085,"Delta":451900064},{"NoteNumber":66,"Velocity":53,"Duration":305085,"SoundDuration":305085,"Delta":451900064},{"NoteNumber":71,"Velocity":63,"Duration":305085,"SoundDuration":305085,"Delta":451900064},{"NoteNumber":43,"Velocity":52,"Duration":101695,"SoundDuration":101695,"Delta":451900064},{"NoteNumber":44,"Velocity":53,"Duration":101695,"SoundDuration":101695,"Delta":452001759},{"NoteNumber":45,"Velocity":54,"Duration":101695,"SoundDuration":101695,"Delta":452103454},{"NoteNumber":60,"Velocity":57,"Duration":50847,"SoundDuration":50847,"Delta":452205149},{"NoteNumber":69,"Velocity":57,"Duration":50847,"SoundDuration":50847,"Delta":452205149},{"NoteNumber":72,"Velocity":67,"Duration":50847,"SoundDuration":50847,"Delta":452205149},{"NoteNumber":54,"Velocity":55,"Duration":101695,"SoundDuration":101695,"Delta":452205149},{"NoteNumber":30,"Velocity":56,"Duration":104529,"SoundDuration":104529,"Delta":452306844},{"NoteNumber":61,"Velocity":58,"Duration":104529,"SoundDuration":104529,"Delta":452411373},{"NoteNumber":66,"Velocity":58,"Duration":104529,"SoundDuration":104529,"Delta":452411373},{"NoteNumber":73,"Velocity":69,"Duration":104529,"SoundDuration":104529,"Delta":452411373},{"NoteNumber":42,"Velocity":57,"Duration":104529,"SoundDuration":104529,"Delta":452411373},{"NoteNumber":63,"Velocity":59,"Duration":305085,"SoundDuration":305085,"Delta":452515903},{"NoteNumber":69,"Velocity":59,"Duration":305085,"SoundDuration":305085,"Delta":452515903},{"NoteNumber":75,"Velocity":70,"Duration":305085,"SoundDuration":305085,"Delta":452515903},{"NoteNumber":47,"Velocity":58,"Duration":101695,"SoundDuration":101695,"Delta":452515903},{"NoteNumber":48,"Velocity":59,"Duration":101695,"SoundDuration":101695,"Delta":452617598},{"NoteNumber":49,"Velocity":59,"Duration":101695,"SoundDuration":101695,"Delta":452719293},{"NoteNumber":64,"Velocity":63,"Duration":50847,"SoundDuration":50847,"Delta":452820988},{"NoteNumber":73,"Velocity":63,"Duration":50847,"SoundDuration":50847,"Delta":452820988},{"NoteNumber":76,"Velocity":74,"Duration":50847,"SoundDuration":50847,"Delta":452820988},{"NoteNumber":57,"Velocity":61,"Duration":101695,"SoundDuration":101695,"Delta":452820988},{"NoteNumber":29,"Velocity":62,"Duration":104057,"SoundDuration":104057,"Delta":452922683},{"NoteNumber":41,"Velocity":62,"Duration":104057,"SoundDuration":104057,"Delta":452922683},{"NoteNumber":77,"Velocity":64,"Duration":104529,"SoundDuration":104529,"Delta":453026740},{"NoteNumber":72,"Velocity":64,"Duration":104529,"SoundDuration":104529,"Delta":453026740},{"NoteNumber":65,"Velocity":64,"Duration":104529,"SoundDuration":104529,"Delta":453026740},{"NoteNumber":42,"Velocity":63,"Duration":104529,"SoundDuration":104529,"Delta":453026740},{"NoteNumber":67,"Velocity":66,"Duration":303029,"SoundDuration":303029,"Delta":453131269},{"NoteNumber":75,"Velocity":66,"Duration":303029,"SoundDuration":303029,"Delta":453131269},{"NoteNumber":79,"Velocity":78,"Duration":303029,"SoundDuration":303029,"Delta":453131269},{"NoteNumber":43,"Velocity":64,"Duration":101009,"SoundDuration":101009,"Delta":453131269},{"NoteNumber":44,"Velocity":66,"Duration":101010,"SoundDuration":101010,"Delta":453232279},{"NoteNumber":45,"Velocity":66,"Duration":101009,"SoundDuration":101009,"Delta":453333289},{"NoteNumber":69,"Velocity":70,"Duration":50505,"SoundDuration":50505,"Delta":453434299},{"NoteNumber":81,"Velocity":82,"Duration":50505,"SoundDuration":50505,"Delta":453434299},{"NoteNumber":78,"Velocity":70,"Duration":50505,"SoundDuration":50505,"Delta":453434299},{"NoteNumber":51,"Velocity":67,"Duration":101010,"SoundDuration":101010,"Delta":453434299},{"NoteNumber":27,"Velocity":68,"Duration":105633,"SoundDuration":105633,"Delta":453535309},{"NoteNumber":39,"Velocity":68,"Duration":105633,"SoundDuration":105633,"Delta":453535309},{"NoteNumber":70,"Velocity":71,"Duration":105633,"SoundDuration":105633,"Delta":453640943},{"NoteNumber":75,"Velocity":71,"Duration":105633,"SoundDuration":105633,"Delta":453640943},{"NoteNumber":82,"Velocity":71,"Duration":105633,"SoundDuration":105633,"Delta":453640943},{"NoteNumber":45,"Velocity":69,"Duration":105633,"SoundDuration":105633,"Delta":453640943},{"NoteNumber":72,"Velocity":72,"Duration":308219,"SoundDuration":308219,"Delta":453746577},{"NoteNumber":79,"Velocity":72,"Duration":308219,"SoundDuration":308219,"Delta":453746577},{"NoteNumber":84,"Velocity":86,"Duration":308219,"SoundDuration":308219,"Delta":453746577},{"NoteNumber":46,"Velocity":71,"Duration":102739,"SoundDuration":102739,"Delta":453746577},{"NoteNumber":47,"Velocity":72,"Duration":102739,"SoundDuration":102739,"Delta":453849316},{"NoteNumber":48,"Velocity":74,"Duration":102739,"SoundDuration":102739,"Delta":453952056},{"NoteNumber":86,"Velocity":91,"Duration":51369,"SoundDuration":51369,"Delta":454054796},{"NoteNumber":82,"Velocity":76,"Duration":51369,"SoundDuration":51369,"Delta":454054796},{"NoteNumber":74,"Velocity":76,"Duration":51369,"SoundDuration":51369,"Delta":454054796},{"NoteNumber":55,"Velocity":74,"Duration":102739,"SoundDuration":102739,"Delta":454054796},{"NoteNumber":26,"Velocity":76,"Duration":90747,"SoundDuration":90747,"Delta":454157536},{"NoteNumber":38,"Velocity":76,"Duration":90747,"SoundDuration":90747,"Delta":454157536},{"NoteNumber":41,"Velocity":78,"Duration":90747,"SoundDuration":90747,"Delta":454248283},{"NoteNumber":87,"Velocity":95,"Duration":106761,"SoundDuration":106761,"Delta":454264297},{"NoteNumber":81,"Velocity":81,"Duration":106761,"SoundDuration":106761,"Delta":454264297},{"NoteNumber":75,"Velocity":81,"Duration":106761,"SoundDuration":106761,"Delta":454264297},{"NoteNumber":54,"Velocity":80,"Duration":89519,"SoundDuration":89519,"Delta":454339030},{"NoteNumber":89,"Velocity":96,"Duration":313588,"SoundDuration":313588,"Delta":454371059},{"NoteNumber":84,"Velocity":81,"Duration":313588,"SoundDuration":313588,"Delta":454371059},{"NoteNumber":77,"Velocity":81,"Duration":313588,"SoundDuration":313588,"Delta":454371059},{"NoteNumber":43,"Velocity":80,"Duration":88850,"SoundDuration":88850,"Delta":454428550},{"NoteNumber":56,"Velocity":81,"Duration":88850,"SoundDuration":88850,"Delta":454517400},{"NoteNumber":45,"Velocity":82,"Duration":88850,"SoundDuration":88850,"Delta":454606250},{"NoteNumber":90,"Velocity":103,"Duration":52264,"SoundDuration":52264,"Delta":454684647},{"NoteNumber":87,"Velocity":87,"Duration":52264,"SoundDuration":52264,"Delta":454684647},{"NoteNumber":78,"Velocity":87,"Duration":52264,"SoundDuration":52264,"Delta":454684647},{"NoteNumber":51,"Velocity":85,"Duration":94076,"SoundDuration":94076,"Delta":454695100},{"NoteNumber":57,"Velocity":85,"Duration":94076,"SoundDuration":94076,"Delta":454695100},{"NoteNumber":36,"Velocity":86,"Duration":96226,"SoundDuration":96226,"Delta":454789177},{"NoteNumber":24,"Velocity":86,"Duration":96226,"SoundDuration":96226,"Delta":454789177},{"NoteNumber":42,"Velocity":87,"Duration":96226,"SoundDuration":96226,"Delta":454885403},{"NoteNumber":91,"Velocity":108,"Duration":113207,"SoundDuration":113207,"Delta":454902384},{"NoteNumber":84,"Velocity":90,"Duration":113207,"SoundDuration":113207,"Delta":454902384},{"NoteNumber":79,"Velocity":90,"Duration":113207,"SoundDuration":113207,"Delta":454902384},{"NoteNumber":55,"Velocity":89,"Duration":94623,"SoundDuration":94623,"Delta":454981629},{"NoteNumber":93,"Velocity":110,"Duration":330881,"SoundDuration":330881,"Delta":455015592},{"NoteNumber":88,"Velocity":92,"Duration":330881,"SoundDuration":330881,"Delta":455015592},{"NoteNumber":81,"Velocity":92,"Duration":330881,"SoundDuration":330881,"Delta":455015592},{"NoteNumber":44,"Velocity":91,"Duration":93749,"SoundDuration":93749,"Delta":455076253},{"NoteNumber":57,"Velocity":92,"Duration":93749,"SoundDuration":93749,"Delta":455170003},{"NoteNumber":48,"Velocity":93,"Duration":93749,"SoundDuration":93749,"Delta":455263753},{"NoteNumber":94,"Velocity":115,"Duration":55147,"SoundDuration":55147,"Delta":455346474},{"NoteNumber":91,"Velocity":97,"Duration":55147,"SoundDuration":55147,"Delta":455346474},{"NoteNumber":82,"Velocity":97,"Duration":55147,"SoundDuration":55147,"Delta":455346474},{"NoteNumber":52,"Velocity":95,"Duration":99264,"SoundDuration":99264,"Delta":455357503},{"NoteNumber":60,"Velocity":95,"Duration":99264,"SoundDuration":99264,"Delta":455357503},{"NoteNumber":23,"Velocity":93,"Duration":1104871,"SoundDuration":1104871,"Delta":455456768},{"NoteNumber":35,"Velocity":122,"Duration":1104871,"SoundDuration":1104871,"Delta":455456768},{"NoteNumber":102,"Velocity":121,"Duration":247933,"SoundDuration":247933,"Delta":455775917},{"NoteNumber":99,"Velocity":93,"Duration":247933,"SoundDuration":247933,"Delta":455775917},{"NoteNumber":95,"Velocity":93,"Duration":247933,"SoundDuration":247933,"Delta":455775917},{"NoteNumber":90,"Velocity":93,"Duration":247933,"SoundDuration":247933,"Delta":455775917},{"NoteNumber":66,"Velocity":96,"Duration":247933,"SoundDuration":247933,"Delta":455775917},{"NoteNumber":63,"Velocity":74,"Duration":247933,"SoundDuration":247933,"Delta":455775917},{"NoteNumber":59,"Velocity":74,"Duration":247933,"SoundDuration":247933,"Delta":455775917},{"NoteNumber":54,"Velocity":74,"Duration":247933,"SoundDuration":247933,"Delta":455775917},{"NoteNumber":101,"Velocity":85,"Duration":537788,"SoundDuration":537788,"Delta":456023851},{"NoteNumber":103,"Velocity":121,"Duration":537788,"SoundDuration":537788,"Delta":456023851},{"NoteNumber":99,"Velocity":85,"Duration":537788,"SoundDuration":537788,"Delta":456023851},{"NoteNumber":95,"Velocity":85,"Duration":537788,"SoundDuration":537788,"Delta":456023851},{"NoteNumber":91,"Velocity":85,"Duration":537788,"SoundDuration":537788,"Delta":456023851},{"NoteNumber":89,"Velocity":85,"Duration":537788,"SoundDuration":537788,"Delta":456023851},{"NoteNumber":63,"Velocity":68,"Duration":537788,"SoundDuration":537788,"Delta":456023851},{"NoteNumber":55,"Velocity":68,"Duration":537788,"SoundDuration":537788,"Delta":456023851},{"NoteNumber":53,"Velocity":68,"Duration":537788,"SoundDuration":537788,"Delta":456023851},{"NoteNumber":59,"Velocity":68,"Duration":537788,"SoundDuration":537788,"Delta":456023851},{"NoteNumber":65,"Velocity":68,"Duration":537788,"SoundDuration":537788,"Delta":456023851},{"NoteNumber":67,"Velocity":96,"Duration":537788,"SoundDuration":537788,"Delta":456023851},{"NoteNumber":71,"Velocity":80,"Duration":123966,"SoundDuration":123966,"Delta":456313706},{"NoteNumber":75,"Velocity":80,"Duration":123966,"SoundDuration":123966,"Delta":456313706},{"NoteNumber":78,"Velocity":100,"Duration":123966,"SoundDuration":123966,"Delta":456313706},{"NoteNumber":66,"Velocity":96,"Duration":123966,"SoundDuration":123966,"Delta":456437673},{"NoteNumber":23,"Velocity":79,"Duration":119522,"SoundDuration":119522,"Delta":456561640},{"NoteNumber":42,"Velocity":67,"Duration":119521,"SoundDuration":119521,"Delta":456681162},{"NoteNumber":47,"Velocity":67,"Duration":119521,"SoundDuration":119521,"Delta":456681162},{"NoteNumber":54,"Velocity":79,"Duration":119521,"SoundDuration":119521,"Delta":456681162},{"NoteNumber":43,"Velocity":81,"Duration":109356,"SoundDuration":109356,"Delta":456800684},{"NoteNumber":31,"Velocity":68,"Duration":109356,"SoundDuration":109356,"Delta":456800684},{"NoteNumber":35,"Velocity":68,"Duration":109356,"SoundDuration":109356,"Delta":456800684},{"NoteNumber":44,"Velocity":68,"Duration":108630,"SoundDuration":108630,"Delta":456910040},{"NoteNumber":51,"Velocity":68,"Duration":108630,"SoundDuration":108630,"Delta":456910040},{"NoteNumber":56,"Velocity":81,"Duration":108630,"SoundDuration":108630,"Delta":456910040},{"NoteNumber":35,"Velocity":70,"Duration":107979,"SoundDuration":107979,"Delta":457018671},{"NoteNumber":42,"Velocity":70,"Duration":107979,"SoundDuration":107979,"Delta":457018671},{"NoteNumber":47,"Velocity":84,"Duration":107979,"SoundDuration":107979,"Delta":457018671},{"NoteNumber":63,"Velocity":85,"Duration":107270,"SoundDuration":107270,"Delta":457126650},{"NoteNumber":59,"Velocity":72,"Duration":107270,"SoundDuration":107270,"Delta":457126650},{"NoteNumber":51,"Velocity":72,"Duration":107270,"SoundDuration":107270,"Delta":457126650},{"NoteNumber":53,"Velocity":86,"Duration":106572,"SoundDuration":106572,"Delta":457233921},{"NoteNumber":41,"Velocity":86,"Duration":106572,"SoundDuration":106572,"Delta":457233921},{"NoteNumber":47,"Velocity":73,"Duration":106572,"SoundDuration":106572,"Delta":457233921},{"NoteNumber":66,"Velocity":88,"Duration":105882,"SoundDuration":105882,"Delta":457340493},{"NoteNumber":59,"Velocity":74,"Duration":105882,"SoundDuration":105882,"Delta":457340493},{"NoteNumber":54,"Velocity":74,"Duration":105882,"SoundDuration":105882,"Delta":457340493},{"NoteNumber":43,"Velocity":74,"Duration":105202,"SoundDuration":105202,"Delta":457446376},{"NoteNumber":47,"Velocity":74,"Duration":105202,"SoundDuration":105202,"Delta":457446376},{"NoteNumber":55,"Velocity":89,"Duration":105202,"SoundDuration":105202,"Delta":457446376},{"NoteNumber":68,"Velocity":90,"Duration":104590,"SoundDuration":104590,"Delta":457551578},{"NoteNumber":63,"Velocity":75,"Duration":104590,"SoundDuration":104590,"Delta":457551578},{"NoteNumber":56,"Velocity":75,"Duration":104590,"SoundDuration":104590,"Delta":457551578},{"NoteNumber":59,"Velocity":91,"Duration":103926,"SoundDuration":103926,"Delta":457656169},{"NoteNumber":54,"Velocity":77,"Duration":103926,"SoundDuration":103926,"Delta":457656169},{"NoteNumber":47,"Velocity":77,"Duration":103926,"SoundDuration":103926,"Delta":457656169},{"NoteNumber":75,"Velocity":92,"Duration":103094,"SoundDuration":103094,"Delta":457760095},{"NoteNumber":71,"Velocity":78,"Duration":103094,"SoundDuration":103094,"Delta":457760095},{"NoteNumber":63,"Velocity":78,"Duration":103094,"SoundDuration":103094,"Delta":457760095},{"NoteNumber":59,"Velocity":79,"Duration":101183,"SoundDuration":101183,"Delta":457863190},{"NoteNumber":53,"Velocity":79,"Duration":101183,"SoundDuration":101183,"Delta":457863190},{"NoteNumber":65,"Velocity":93,"Duration":101183,"SoundDuration":101183,"Delta":457863190},{"NoteNumber":78,"Velocity":96,"Duration":99176,"SoundDuration":99176,"Delta":457964373},{"NoteNumber":71,"Velocity":81,"Duration":99176,"SoundDuration":99176,"Delta":457964373},{"NoteNumber":66,"Velocity":81,"Duration":99176,"SoundDuration":99176,"Delta":457964373},{"NoteNumber":55,"Velocity":81,"Duration":97247,"SoundDuration":97247,"Delta":458063550},{"NoteNumber":59,"Velocity":81,"Duration":97247,"SoundDuration":97247,"Delta":458063550},{"NoteNumber":67,"Velocity":96,"Duration":97247,"SoundDuration":97247,"Delta":458063550},{"NoteNumber":80,"Velocity":99,"Duration":95392,"SoundDuration":95392,"Delta":458160798},{"NoteNumber":75,"Velocity":82,"Duration":95392,"SoundDuration":95392,"Delta":458160798},{"NoteNumber":68,"Velocity":82,"Duration":95392,"SoundDuration":95392,"Delta":458160798},{"NoteNumber":71,"Velocity":99,"Duration":93558,"SoundDuration":93558,"Delta":458256190},{"NoteNumber":66,"Velocity":82,"Duration":93558,"SoundDuration":93558,"Delta":458256190},{"NoteNumber":59,"Velocity":82,"Duration":93558,"SoundDuration":93558,"Delta":458256190},{"NoteNumber":87,"Velocity":101,"Duration":132743,"SoundDuration":132743,"Delta":458349749},{"NoteNumber":83,"Velocity":85,"Duration":132743,"SoundDuration":132743,"Delta":458349749},{"NoteNumber":75,"Velocity":85,"Duration":132743,"SoundDuration":132743,"Delta":458349749},{"NoteNumber":47,"Velocity":100,"Duration":863823,"SoundDuration":863823,"Delta":458482492},{"NoteNumber":35,"Velocity":85,"Duration":863823,"SoundDuration":863823,"Delta":458482492},{"NoteNumber":78,"Velocity":80,"Duration":133333,"SoundDuration":133333,"Delta":458615825},{"NoteNumber":83,"Velocity":80,"Duration":133333,"SoundDuration":133333,"Delta":458615825},{"NoteNumber":87,"Velocity":80,"Duration":133333,"SoundDuration":133333,"Delta":458615825},{"NoteNumber":90,"Velocity":95,"Duration":133333,"SoundDuration":133333,"Delta":458615825},{"NoteNumber":54,"Velocity":70,"Duration":133333,"SoundDuration":133333,"Delta":458615825},{"NoteNumber":59,"Velocity":70,"Duration":133333,"SoundDuration":133333,"Delta":458615825},{"NoteNumber":66,"Velocity":83,"Duration":133333,"SoundDuration":133333,"Delta":458615825},{"NoteNumber":63,"Velocity":70,"Duration":133333,"SoundDuration":133333,"Delta":458615825},{"NoteNumber":81,"Velocity":85,"Duration":376569,"SoundDuration":376569,"Delta":458749158},{"NoteNumber":83,"Velocity":85,"Duration":376569,"SoundDuration":376569,"Delta":458749158},{"NoteNumber":85,"Velocity":85,"Duration":376569,"SoundDuration":376569,"Delta":458749158},{"NoteNumber":89,"Velocity":85,"Duration":376569,"SoundDuration":376569,"Delta":458749158},{"NoteNumber":93,"Velocity":100,"Duration":376569,"SoundDuration":376569,"Delta":458749158},{"NoteNumber":59,"Velocity":78,"Duration":376569,"SoundDuration":376569,"Delta":458749158},{"NoteNumber":69,"Velocity":92,"Duration":376569,"SoundDuration":376569,"Delta":458749158},{"NoteNumber":65,"Velocity":78,"Duration":376569,"SoundDuration":376569,"Delta":458749158},{"NoteNumber":61,"Velocity":78,"Duration":376569,"SoundDuration":376569,"Delta":458749158},{"NoteNumber":57,"Velocity":78,"Duration":376569,"SoundDuration":376569,"Delta":458749158},{"NoteNumber":78,"Velocity":80,"Duration":220588,"SoundDuration":220588,"Delta":459125727},{"NoteNumber":83,"Velocity":80,"Duration":220588,"SoundDuration":220588,"Delta":459125727},{"NoteNumber":87,"Velocity":80,"Duration":220588,"SoundDuration":220588,"Delta":459125727},{"NoteNumber":90,"Velocity":95,"Duration":220588,"SoundDuration":220588,"Delta":459125727},{"NoteNumber":66,"Velocity":87,"Duration":220588,"SoundDuration":220588,"Delta":459125727},{"NoteNumber":59,"Velocity":73,"Duration":220588,"SoundDuration":220588,"Delta":459125727},{"NoteNumber":63,"Velocity":73,"Duration":220588,"SoundDuration":220588,"Delta":459125727},{"NoteNumber":54,"Velocity":73,"Duration":220588,"SoundDuration":220588,"Delta":459125727},{"NoteNumber":23,"Velocity":93,"Duration":1104871,"SoundDuration":1104871,"Delta":459346316},{"NoteNumber":35,"Velocity":122,"Duration":1104871,"SoundDuration":1104871,"Delta":459346316},{"NoteNumber":102,"Velocity":121,"Duration":123966,"SoundDuration":123966,"Delta":459665465},{"NoteNumber":99,"Velocity":93,"Duration":123966,"SoundDuration":123966,"Delta":459665465},{"NoteNumber":95,"Velocity":93,"Duration":123966,"SoundDuration":123966,"Delta":459665465},{"NoteNumber":90,"Velocity":93,"Duration":123966,"SoundDuration":123966,"Delta":459665465},{"NoteNumber":66,"Velocity":96,"Duration":123966,"SoundDuration":123966,"Delta":459665465},{"NoteNumber":63,"Velocity":74,"Duration":123966,"SoundDuration":123966,"Delta":459665465},{"NoteNumber":59,"Velocity":74,"Duration":123966,"SoundDuration":123966,"Delta":459665465},{"NoteNumber":54,"Velocity":74,"Duration":123966,"SoundDuration":123966,"Delta":459665465},{"NoteNumber":101,"Velocity":85,"Duration":537788,"SoundDuration":537788,"Delta":459913399},{"NoteNumber":103,"Velocity":121,"Duration":537788,"SoundDuration":537788,"Delta":459913399},{"NoteNumber":99,"Velocity":85,"Duration":537788,"SoundDuration":537788,"Delta":459913399},{"NoteNumber":95,"Velocity":85,"Duration":537788,"SoundDuration":537788,"Delta":459913399},{"NoteNumber":91,"Velocity":85,"Duration":537788,"SoundDuration":537788,"Delta":459913399},{"NoteNumber":89,"Velocity":85,"Duration":537788,"SoundDuration":537788,"Delta":459913399},{"NoteNumber":63,"Velocity":68,"Duration":537788,"SoundDuration":537788,"Delta":459913399},{"NoteNumber":55,"Velocity":68,"Duration":537788,"SoundDuration":537788,"Delta":459913399},{"NoteNumber":53,"Velocity":68,"Duration":537788,"SoundDuration":537788,"Delta":459913399},{"NoteNumber":59,"Velocity":68,"Duration":537788,"SoundDuration":537788,"Delta":459913399},{"NoteNumber":65,"Velocity":68,"Duration":537788,"SoundDuration":537788,"Delta":459913399},{"NoteNumber":67,"Velocity":96,"Duration":537788,"SoundDuration":537788,"Delta":459913399},{"NoteNumber":71,"Velocity":80,"Duration":123966,"SoundDuration":123966,"Delta":460203254},{"NoteNumber":75,"Velocity":80,"Duration":123966,"SoundDuration":123966,"Delta":460203254},{"NoteNumber":78,"Velocity":100,"Duration":123966,"SoundDuration":123966,"Delta":460203254},{"NoteNumber":66,"Velocity":96,"Duration":123966,"SoundDuration":123966,"Delta":460327221},{"NoteNumber":23,"Velocity":79,"Duration":119522,"SoundDuration":119522,"Delta":460451188},{"NoteNumber":42,"Velocity":67,"Duration":119521,"SoundDuration":119521,"Delta":460570710},{"NoteNumber":47,"Velocity":67,"Duration":119521,"SoundDuration":119521,"Delta":460570710},{"NoteNumber":54,"Velocity":79,"Duration":119521,"SoundDuration":119521,"Delta":460570710},{"NoteNumber":43,"Velocity":81,"Duration":110091,"SoundDuration":110091,"Delta":460690232},{"NoteNumber":31,"Velocity":68,"Duration":110091,"SoundDuration":110091,"Delta":460690232},{"NoteNumber":35,"Velocity":68,"Duration":110091,"SoundDuration":110091,"Delta":460690232},{"NoteNumber":44,"Velocity":68,"Duration":109290,"SoundDuration":109290,"Delta":460800324},{"NoteNumber":51,"Velocity":68,"Duration":109290,"SoundDuration":109290,"Delta":460800324},{"NoteNumber":56,"Velocity":81,"Duration":109290,"SoundDuration":109290,"Delta":460800324},{"NoteNumber":35,"Velocity":70,"Duration":108499,"SoundDuration":108499,"Delta":460909614},{"NoteNumber":42,"Velocity":70,"Duration":108499,"SoundDuration":108499,"Delta":460909614},{"NoteNumber":47,"Velocity":84,"Duration":108499,"SoundDuration":108499,"Delta":460909614},{"NoteNumber":63,"Velocity":85,"Duration":107720,"SoundDuration":107720,"Delta":461018113},{"NoteNumber":59,"Velocity":72,"Duration":107720,"SoundDuration":107720,"Delta":461018113},{"NoteNumber":51,"Velocity":72,"Duration":107720,"SoundDuration":107720,"Delta":461018113},{"NoteNumber":53,"Velocity":86,"Duration":106952,"SoundDuration":106952,"Delta":461125834},{"NoteNumber":41,"Velocity":86,"Duration":106952,"SoundDuration":106952,"Delta":461125834},{"NoteNumber":47,"Velocity":73,"Duration":106952,"SoundDuration":106952,"Delta":461125834},{"NoteNumber":66,"Velocity":88,"Duration":106195,"SoundDuration":106195,"Delta":461232786},{"NoteNumber":59,"Velocity":74,"Duration":106195,"SoundDuration":106195,"Delta":461232786},{"NoteNumber":54,"Velocity":74,"Duration":106195,"SoundDuration":106195,"Delta":461232786},{"NoteNumber":43,"Velocity":74,"Duration":105448,"SoundDuration":105448,"Delta":461338981},{"NoteNumber":47,"Velocity":74,"Duration":105448,"SoundDuration":105448,"Delta":461338981},{"NoteNumber":55,"Velocity":89,"Duration":105448,"SoundDuration":105448,"Delta":461338981},{"NoteNumber":68,"Velocity":90,"Duration":104712,"SoundDuration":104712,"Delta":461444429},{"NoteNumber":63,"Velocity":75,"Duration":104712,"SoundDuration":104712,"Delta":461444429},{"NoteNumber":56,"Velocity":75,"Duration":104712,"SoundDuration":104712,"Delta":461444429},{"NoteNumber":59,"Velocity":91,"Duration":103986,"SoundDuration":103986,"Delta":461549141},{"NoteNumber":54,"Velocity":77,"Duration":103986,"SoundDuration":103986,"Delta":461549141},{"NoteNumber":47,"Velocity":77,"Duration":103986,"SoundDuration":103986,"Delta":461549141},{"NoteNumber":75,"Velocity":92,"Duration":103270,"SoundDuration":103270,"Delta":461653128},{"NoteNumber":71,"Velocity":78,"Duration":103270,"SoundDuration":103270,"Delta":461653128},{"NoteNumber":63,"Velocity":78,"Duration":103270,"SoundDuration":103270,"Delta":461653128},{"NoteNumber":59,"Velocity":79,"Duration":101468,"SoundDuration":101468,"Delta":461756398},{"NoteNumber":53,"Velocity":79,"Duration":101468,"SoundDuration":101468,"Delta":461756398},{"NoteNumber":65,"Velocity":93,"Duration":101468,"SoundDuration":101468,"Delta":461756398},{"NoteNumber":78,"Velocity":96,"Duration":99505,"SoundDuration":99505,"Delta":461857867},{"NoteNumber":71,"Velocity":81,"Duration":99505,"SoundDuration":99505,"Delta":461857867},{"NoteNumber":66,"Velocity":81,"Duration":99505,"SoundDuration":99505,"Delta":461857867},{"NoteNumber":55,"Velocity":81,"Duration":97721,"SoundDuration":97721,"Delta":461957372},{"NoteNumber":59,"Velocity":81,"Duration":97721,"SoundDuration":97721,"Delta":461957372},{"NoteNumber":67,"Velocity":96,"Duration":97721,"SoundDuration":97721,"Delta":461957372},{"NoteNumber":80,"Velocity":99,"Duration":96002,"SoundDuration":96002,"Delta":462055094},{"NoteNumber":75,"Velocity":82,"Duration":96002,"SoundDuration":96002,"Delta":462055094},{"NoteNumber":68,"Velocity":82,"Duration":96002,"SoundDuration":96002,"Delta":462055094},{"NoteNumber":71,"Velocity":99,"Duration":94194,"SoundDuration":94194,"Delta":462151097},{"NoteNumber":66,"Velocity":82,"Duration":94194,"SoundDuration":94194,"Delta":462151097},{"NoteNumber":59,"Velocity":82,"Duration":94194,"SoundDuration":94194,"Delta":462151097},{"NoteNumber":87,"Velocity":101,"Duration":134529,"SoundDuration":134529,"Delta":462245291},{"NoteNumber":83,"Velocity":85,"Duration":134529,"SoundDuration":134529,"Delta":462245291},{"NoteNumber":75,"Velocity":85,"Duration":134529,"SoundDuration":134529,"Delta":462245291},{"NoteNumber":47,"Velocity":100,"Duration":839314,"SoundDuration":839314,"Delta":462379820},{"NoteNumber":35,"Velocity":85,"Duration":839314,"SoundDuration":839314,"Delta":462379820},{"NoteNumber":78,"Velocity":80,"Duration":133333,"SoundDuration":133333,"Delta":462513154},{"NoteNumber":83,"Velocity":80,"Duration":133333,"SoundDuration":133333,"Delta":462513154},{"NoteNumber":87,"Velocity":80,"Duration":133333,"SoundDuration":133333,"Delta":462513154},{"NoteNumber":90,"Velocity":95,"Duration":133333,"SoundDuration":133333,"Delta":462513154},{"NoteNumber":54,"Velocity":70,"Duration":133333,"SoundDuration":133333,"Delta":462513154},{"NoteNumber":59,"Velocity":70,"Duration":133333,"SoundDuration":133333,"Delta":462513154},{"NoteNumber":66,"Velocity":83,"Duration":133333,"SoundDuration":133333,"Delta":462513154},{"NoteNumber":63,"Velocity":70,"Duration":133333,"SoundDuration":133333,"Delta":462513154},{"NoteNumber":81,"Velocity":85,"Duration":376569,"SoundDuration":376569,"Delta":462646487},{"NoteNumber":83,"Velocity":85,"Duration":376569,"SoundDuration":376569,"Delta":462646487},{"NoteNumber":85,"Velocity":85,"Duration":376569,"SoundDuration":376569,"Delta":462646487},{"NoteNumber":89,"Velocity":85,"Duration":376569,"SoundDuration":376569,"Delta":462646487},{"NoteNumber":93,"Velocity":100,"Duration":376569,"SoundDuration":376569,"Delta":462646487},{"NoteNumber":59,"Velocity":78,"Duration":376569,"SoundDuration":376569,"Delta":462646487},{"NoteNumber":69,"Velocity":92,"Duration":376569,"SoundDuration":376569,"Delta":462646487},{"NoteNumber":65,"Velocity":78,"Duration":376569,"SoundDuration":376569,"Delta":462646487},{"NoteNumber":61,"Velocity":78,"Duration":376569,"SoundDuration":376569,"Delta":462646487},{"NoteNumber":57,"Velocity":78,"Duration":376569,"SoundDuration":376569,"Delta":462646487},{"NoteNumber":78,"Velocity":80,"Duration":196078,"SoundDuration":196078,"Delta":463023056},{"NoteNumber":83,"Velocity":80,"Duration":196078,"SoundDuration":196078,"Delta":463023056},{"NoteNumber":87,"Velocity":80,"Duration":196078,"SoundDuration":196078,"Delta":463023056},{"NoteNumber":90,"Velocity":95,"Duration":196078,"SoundDuration":196078,"Delta":463023056},{"NoteNumber":66,"Velocity":87,"Duration":196078,"SoundDuration":196078,"Delta":463023056},{"NoteNumber":59,"Velocity":73,"Duration":196078,"SoundDuration":196078,"Delta":463023056},{"NoteNumber":63,"Velocity":73,"Duration":196078,"SoundDuration":196078,"Delta":463023056},{"NoteNumber":54,"Velocity":73,"Duration":196078,"SoundDuration":196078,"Delta":463023056},{"NoteNumber":95,"Velocity":121,"Duration":272727,"SoundDuration":272727,"Delta":463538283},{"NoteNumber":92,"Velocity":93,"Duration":272727,"SoundDuration":272727,"Delta":463538283},{"NoteNumber":88,"Velocity":93,"Duration":272727,"SoundDuration":272727,"Delta":463538283},{"NoteNumber":83,"Velocity":93,"Duration":272727,"SoundDuration":272727,"Delta":463538283},{"NoteNumber":52,"Velocity":74,"Duration":894489,"SoundDuration":894489,"Delta":463538283},{"NoteNumber":64,"Velocity":96,"Duration":272727,"SoundDuration":272727,"Delta":463538283},{"NoteNumber":59,"Velocity":74,"Duration":272727,"SoundDuration":272727,"Delta":463538283},{"NoteNumber":56,"Velocity":74,"Duration":272727,"SoundDuration":272727,"Delta":463538283},{"NoteNumber":94,"Velocity":85,"Duration":621761,"SoundDuration":621761,"Delta":463811011},{"NoteNumber":96,"Velocity":121,"Duration":621761,"SoundDuration":621761,"Delta":463811011},{"NoteNumber":90,"Velocity":85,"Duration":621761,"SoundDuration":621761,"Delta":463811011},{"NoteNumber":88,"Velocity":85,"Duration":621761,"SoundDuration":621761,"Delta":463811011},{"NoteNumber":84,"Velocity":85,"Duration":621761,"SoundDuration":621761,"Delta":463811011},{"NoteNumber":60,"Velocity":68,"Duration":621761,"SoundDuration":621761,"Delta":463811011},{"NoteNumber":64,"Velocity":96,"Duration":621761,"SoundDuration":621761,"Delta":463811011},{"NoteNumber":58,"Velocity":68,"Duration":621761,"SoundDuration":621761,"Delta":463811011},{"NoteNumber":54,"Velocity":68,"Duration":621761,"SoundDuration":621761,"Delta":463811011},{"NoteNumber":28,"Velocity":71,"Duration":711103,"SoundDuration":711103,"Delta":464432773},{"NoteNumber":47,"Velocity":60,"Duration":121197,"SoundDuration":121197,"Delta":464582026},{"NoteNumber":52,"Velocity":60,"Duration":121197,"SoundDuration":121197,"Delta":464582026},{"NoteNumber":59,"Velocity":71,"Duration":121197,"SoundDuration":121197,"Delta":464582026},{"NoteNumber":36,"Velocity":61,"Duration":113856,"SoundDuration":113856,"Delta":464703224},{"NoteNumber":44,"Velocity":61,"Duration":113856,"SoundDuration":113856,"Delta":464703224},{"NoteNumber":48,"Velocity":72,"Duration":113856,"SoundDuration":113856,"Delta":464703224},{"NoteNumber":49,"Velocity":61,"Duration":111321,"SoundDuration":111321,"Delta":464817081},{"NoteNumber":56,"Velocity":61,"Duration":111321,"SoundDuration":111321,"Delta":464817081},{"NoteNumber":61,"Velocity":72,"Duration":111321,"SoundDuration":111321,"Delta":464817081},{"NoteNumber":52,"Velocity":75,"Duration":108897,"SoundDuration":108897,"Delta":464928403},{"NoteNumber":40,"Velocity":63,"Duration":108897,"SoundDuration":108897,"Delta":464928403},{"NoteNumber":47,"Velocity":63,"Duration":108897,"SoundDuration":108897,"Delta":464928403},{"NoteNumber":68,"Velocity":76,"Duration":106575,"SoundDuration":106575,"Delta":465037300},{"NoteNumber":64,"Velocity":64,"Duration":106575,"SoundDuration":106575,"Delta":465037300},{"NoteNumber":56,"Velocity":64,"Duration":106575,"SoundDuration":106575,"Delta":465037300},{"NoteNumber":46,"Velocity":77,"Duration":105448,"SoundDuration":105448,"Delta":465143876},{"NoteNumber":52,"Velocity":65,"Duration":105448,"SoundDuration":105448,"Delta":465143876},{"NoteNumber":58,"Velocity":77,"Duration":105448,"SoundDuration":105448,"Delta":465143876},{"NoteNumber":71,"Velocity":79,"Duration":104956,"SoundDuration":104956,"Delta":465249324},{"NoteNumber":66,"Velocity":66,"Duration":104956,"SoundDuration":104956,"Delta":465249324},{"NoteNumber":59,"Velocity":66,"Duration":104956,"SoundDuration":104956,"Delta":465249324},{"NoteNumber":60,"Velocity":80,"Duration":104287,"SoundDuration":104287,"Delta":465354281},{"NoteNumber":48,"Velocity":66,"Duration":104287,"SoundDuration":104287,"Delta":465354281},{"NoteNumber":56,"Velocity":66,"Duration":104287,"SoundDuration":104287,"Delta":465354281},{"NoteNumber":73,"Velocity":81,"Duration":103627,"SoundDuration":103627,"Delta":465458569},{"NoteNumber":68,"Velocity":67,"Duration":103627,"SoundDuration":103627,"Delta":465458569},{"NoteNumber":61,"Velocity":67,"Duration":103627,"SoundDuration":103627,"Delta":465458569},{"NoteNumber":64,"Velocity":81,"Duration":102916,"SoundDuration":102916,"Delta":465562196},{"NoteNumber":59,"Velocity":69,"Duration":102916,"SoundDuration":102916,"Delta":465562196},{"NoteNumber":52,"Velocity":69,"Duration":102916,"SoundDuration":102916,"Delta":465562196},{"NoteNumber":80,"Velocity":82,"Duration":102214,"SoundDuration":102214,"Delta":465665112},{"NoteNumber":76,"Velocity":70,"Duration":102214,"SoundDuration":102214,"Delta":465665112},{"NoteNumber":68,"Velocity":70,"Duration":102214,"SoundDuration":102214,"Delta":465665112},{"NoteNumber":58,"Velocity":71,"Duration":101695,"SoundDuration":101695,"Delta":465767327},{"NoteNumber":64,"Velocity":71,"Duration":101695,"SoundDuration":101695,"Delta":465767327},{"NoteNumber":70,"Velocity":83,"Duration":101695,"SoundDuration":101695,"Delta":465767327},{"NoteNumber":83,"Velocity":86,"Duration":100671,"SoundDuration":100671,"Delta":465869023},{"NoteNumber":76,"Velocity":72,"Duration":100671,"SoundDuration":100671,"Delta":465869023},{"NoteNumber":71,"Velocity":72,"Duration":100671,"SoundDuration":100671,"Delta":465869023},{"NoteNumber":68,"Velocity":72,"Duration":99668,"SoundDuration":99668,"Delta":465969695},{"NoteNumber":60,"Velocity":72,"Duration":99668,"SoundDuration":99668,"Delta":465969695},{"NoteNumber":72,"Velocity":86,"Duration":99668,"SoundDuration":99668,"Delta":465969695},{"NoteNumber":85,"Velocity":89,"Duration":98523,"SoundDuration":98523,"Delta":466069363},{"NoteNumber":80,"Velocity":73,"Duration":98523,"SoundDuration":98523,"Delta":466069363},{"NoteNumber":73,"Velocity":73,"Duration":98523,"SoundDuration":98523,"Delta":466069363},{"NoteNumber":64,"Velocity":73,"Duration":97561,"SoundDuration":97561,"Delta":466167886},{"NoteNumber":71,"Velocity":73,"Duration":97561,"SoundDuration":97561,"Delta":466167886},{"NoteNumber":76,"Velocity":89,"Duration":97561,"SoundDuration":97561,"Delta":466167886},{"NoteNumber":92,"Velocity":90,"Duration":96619,"SoundDuration":96619,"Delta":466265448},{"NoteNumber":88,"Velocity":76,"Duration":96619,"SoundDuration":96619,"Delta":466265448},{"NoteNumber":80,"Velocity":76,"Duration":96619,"SoundDuration":96619,"Delta":466265448},{"NoteNumber":70,"Velocity":79,"Duration":95846,"SoundDuration":95846,"Delta":466362067},{"NoteNumber":82,"Velocity":93,"Duration":95846,"SoundDuration":95846,"Delta":466362067},{"NoteNumber":76,"Velocity":79,"Duration":95846,"SoundDuration":95846,"Delta":466362067},{"NoteNumber":83,"Velocity":81,"Duration":95846,"SoundDuration":95846,"Delta":466457914},{"NoteNumber":95,"Velocity":96,"Duration":95846,"SoundDuration":95846,"Delta":466457914},{"NoteNumber":88,"Velocity":81,"Duration":95846,"SoundDuration":95846,"Delta":466457914},{"NoteNumber":80,"Velocity":81,"Duration":95846,"SoundDuration":95846,"Delta":466553761},{"NoteNumber":84,"Velocity":96,"Duration":95846,"SoundDuration":95846,"Delta":466553761},{"NoteNumber":72,"Velocity":81,"Duration":95846,"SoundDuration":95846,"Delta":466553761},{"NoteNumber":97,"Velocity":99,"Duration":95846,"SoundDuration":95846,"Delta":466649608},{"NoteNumber":92,"Velocity":82,"Duration":95846,"SoundDuration":95846,"Delta":466649608},{"NoteNumber":85,"Velocity":82,"Duration":95846,"SoundDuration":95846,"Delta":466649608},{"NoteNumber":83,"Velocity":82,"Duration":100671,"SoundDuration":100671,"Delta":466745454},{"NoteNumber":88,"Velocity":99,"Duration":100671,"SoundDuration":100671,"Delta":466745454},{"NoteNumber":76,"Velocity":82,"Duration":100671,"SoundDuration":100671,"Delta":466745454},{"NoteNumber":92,"Velocity":85,"Duration":164835,"SoundDuration":164835,"Delta":466846126},{"NoteNumber":104,"Velocity":101,"Duration":164835,"SoundDuration":164835,"Delta":466846126},{"NoteNumber":100,"Velocity":85,"Duration":164835,"SoundDuration":164835,"Delta":466846126},{"NoteNumber":40,"Velocity":93,"Duration":1363539,"SoundDuration":1363539,"Delta":467010962},{"NoteNumber":52,"Velocity":110,"Duration":508474,"SoundDuration":508474,"Delta":467010962},{"NoteNumber":80,"Velocity":88,"Duration":254237,"SoundDuration":254237,"Delta":467265199},{"NoteNumber":76,"Velocity":88,"Duration":254237,"SoundDuration":254237,"Delta":467265199},{"NoteNumber":71,"Velocity":88,"Duration":254237,"SoundDuration":254237,"Delta":467265199},{"NoteNumber":83,"Velocity":104,"Duration":254237,"SoundDuration":254237,"Delta":467265199},{"NoteNumber":56,"Velocity":77,"Duration":254237,"SoundDuration":254237,"Delta":467265199},{"NoteNumber":52,"Velocity":77,"Duration":1109301,"SoundDuration":1109301,"Delta":467265199},{"NoteNumber":64,"Velocity":91,"Duration":254237,"SoundDuration":254237,"Delta":467265199},{"NoteNumber":59,"Velocity":77,"Duration":254237,"SoundDuration":254237,"Delta":467265199},{"NoteNumber":74,"Velocity":93,"Duration":620689,"SoundDuration":620689,"Delta":467519436},{"NoteNumber":79,"Velocity":93,"Duration":620689,"SoundDuration":620689,"Delta":467519436},{"NoteNumber":82,"Velocity":93,"Duration":620689,"SoundDuration":620689,"Delta":467519436},{"NoteNumber":86,"Velocity":110,"Duration":620689,"SoundDuration":620689,"Delta":467519436},{"NoteNumber":67,"Velocity":101,"Duration":620689,"SoundDuration":620689,"Delta":467519436},{"NoteNumber":62,"Velocity":85,"Duration":620689,"SoundDuration":620689,"Delta":467519436},{"NoteNumber":58,"Velocity":85,"Duration":620689,"SoundDuration":620689,"Delta":467519436},{"NoteNumber":55,"Velocity":85,"Duration":620689,"SoundDuration":620689,"Delta":467519436},{"NoteNumber":83,"Velocity":104,"Duration":234375,"SoundDuration":234375,"Delta":468140126},{"NoteNumber":71,"Velocity":88,"Duration":234375,"SoundDuration":234375,"Delta":468140126},{"NoteNumber":76,"Velocity":88,"Duration":234375,"SoundDuration":234375,"Delta":468140126},{"NoteNumber":80,"Velocity":88,"Duration":234375,"SoundDuration":234375,"Delta":468140126},{"NoteNumber":52,"Velocity":80,"Duration":234375,"SoundDuration":234375,"Delta":468140126},{"NoteNumber":64,"Velocity":95,"Duration":234375,"SoundDuration":234375,"Delta":468140126},{"NoteNumber":59,"Velocity":80,"Duration":234375,"SoundDuration":234375,"Delta":468140126},{"NoteNumber":56,"Velocity":80,"Duration":234375,"SoundDuration":234375,"Delta":468140126},{"NoteNumber":51,"Velocity":75,"Duration":365853,"SoundDuration":365853,"Delta":469780751},{"NoteNumber":63,"Velocity":89,"Duration":365853,"SoundDuration":365853,"Delta":469780751},{"NoteNumber":25,"Velocity":71,"Duration":121951,"SoundDuration":121951,"Delta":469780751},{"NoteNumber":37,"Velocity":73,"Duration":121951,"SoundDuration":121951,"Delta":469902702},{"NoteNumber":44,"Velocity":75,"Duration":121951,"SoundDuration":121951,"Delta":470024653},{"NoteNumber":76,"Velocity":97,"Duration":327869,"SoundDuration":327869,"Delta":470146604},{"NoteNumber":64,"Velocity":82,"Duration":327869,"SoundDuration":327869,"Delta":470146604},{"NoteNumber":52,"Velocity":77,"Duration":109289,"SoundDuration":109289,"Delta":470146604},{"NoteNumber":56,"Velocity":79,"Duration":109289,"SoundDuration":109289,"Delta":470255894},{"NoteNumber":59,"Velocity":80,"Duration":109289,"SoundDuration":109289,"Delta":470365183},{"NoteNumber":87,"Velocity":98,"Duration":614791,"SoundDuration":614791,"Delta":470474473},{"NoteNumber":75,"Velocity":82,"Duration":514288,"SoundDuration":514288,"Delta":470474473},{"NoteNumber":65,"Velocity":85,"Duration":103092,"SoundDuration":103092,"Delta":470474473},{"NoteNumber":53,"Velocity":85,"Duration":103092,"SoundDuration":103092,"Delta":470474473},{"NoteNumber":56,"Velocity":85,"Duration":103092,"SoundDuration":103092,"Delta":470474473},{"NoteNumber":63,"Velocity":89,"Duration":103092,"SoundDuration":103092,"Delta":470577566},{"NoteNumber":71,"Velocity":92,"Duration":103226,"SoundDuration":103226,"Delta":470680659},{"NoteNumber":68,"Velocity":99,"Duration":103094,"SoundDuration":103094,"Delta":470783885},{"NoteNumber":75,"Velocity":103,"Duration":626443,"SoundDuration":626443,"Delta":470886979},{"NoteNumber":80,"Velocity":103,"Duration":101781,"SoundDuration":101781,"Delta":470886979},{"NoteNumber":87,"Velocity":107,"Duration":300503,"SoundDuration":300503,"Delta":470988761},{"NoteNumber":99,"Velocity":111,"Duration":100000,"SoundDuration":100000,"Delta":471089265},{"NoteNumber":92,"Velocity":111,"Duration":100000,"SoundDuration":100000,"Delta":471089265},{"NoteNumber":65,"Velocity":67,"Duration":310521,"SoundDuration":310521,"Delta":471089265},{"NoteNumber":68,"Velocity":67,"Duration":310521,"SoundDuration":310521,"Delta":471089265},{"NoteNumber":71,"Velocity":67,"Duration":310521,"SoundDuration":310521,"Delta":471089265},{"NoteNumber":77,"Velocity":79,"Duration":310521,"SoundDuration":310521,"Delta":471089265},{"NoteNumber":87,"Velocity":89,"Duration":210521,"SoundDuration":210521,"Delta":471189265},{"NoteNumber":80,"Velocity":89,"Duration":110521,"SoundDuration":110521,"Delta":471289265},{"NoteNumber":87,"Velocity":89,"Duration":914459,"SoundDuration":914459,"Delta":471289265},{"NoteNumber":75,"Velocity":97,"Duration":227272,"SoundDuration":227272,"Delta":471399787},{"NoteNumber":53,"Velocity":80,"Duration":336145,"SoundDuration":336145,"Delta":471399787},{"NoteNumber":56,"Velocity":80,"Duration":336145,"SoundDuration":336145,"Delta":471399787},{"NoteNumber":59,"Velocity":80,"Duration":336145,"SoundDuration":336145,"Delta":471399787},{"NoteNumber":65,"Velocity":95,"Duration":336145,"SoundDuration":336145,"Delta":471399787},{"NoteNumber":68,"Velocity":81,"Duration":113636,"SoundDuration":113636,"Delta":471513423},{"NoteNumber":75,"Velocity":81,"Duration":537628,"SoundDuration":537628,"Delta":471513423},{"NoteNumber":63,"Velocity":79,"Duration":108873,"SoundDuration":108873,"Delta":471627059},{"NoteNumber":37,"Velocity":89,"Duration":935361,"SoundDuration":935361,"Delta":471735932},{"NoteNumber":49,"Velocity":100,"Duration":467792,"SoundDuration":467792,"Delta":471735932},{"NoteNumber":63,"Velocity":79,"Duration":106382,"SoundDuration":106382,"Delta":471842315},{"NoteNumber":68,"Velocity":71,"Duration":102353,"SoundDuration":102353,"Delta":471948698},{"NoteNumber":75,"Velocity":84,"Duration":204005,"SoundDuration":204005,"Delta":471948698},{"NoteNumber":75,"Velocity":87,"Duration":152672,"SoundDuration":152672,"Delta":472051052},{"NoteNumber":65,"Velocity":84,"Duration":620242,"SoundDuration":620242,"Delta":472051052},{"NoteNumber":53,"Velocity":71,"Duration":620242,"SoundDuration":620242,"Delta":472051052},{"NoteNumber":56,"Velocity":71,"Duration":620242,"SoundDuration":620242,"Delta":472051052},{"NoteNumber":63,"Velocity":84,"Duration":152672,"SoundDuration":152672,"Delta":472051052},{"NoteNumber":80,"Velocity":75,"Duration":102302,"SoundDuration":102302,"Delta":472152704},{"NoteNumber":85,"Velocity":80,"Duration":154242,"SoundDuration":154242,"Delta":472203725},{"NoteNumber":61,"Velocity":76,"Duration":154242,"SoundDuration":154242,"Delta":472203725},{"NoteNumber":73,"Velocity":73,"Duration":102960,"SoundDuration":102960,"Delta":472255007},{"NoteNumber":71,"Velocity":59,"Duration":313326,"SoundDuration":313326,"Delta":472357967},{"NoteNumber":83,"Velocity":84,"Duration":313326,"SoundDuration":313326,"Delta":472357967},{"NoteNumber":59,"Velocity":59,"Duration":313326,"SoundDuration":313326,"Delta":472357967},{"NoteNumber":68,"Velocity":84,"Duration":103761,"SoundDuration":103761,"Delta":472357967},{"NoteNumber":63,"Velocity":74,"Duration":104439,"SoundDuration":104439,"Delta":472461729},{"NoteNumber":56,"Velocity":74,"Duration":105125,"SoundDuration":105125,"Delta":472566169},{"NoteNumber":70,"Velocity":56,"Duration":317460,"SoundDuration":317460,"Delta":472671294},{"NoteNumber":75,"Velocity":56,"Duration":317460,"SoundDuration":317460,"Delta":472671294},{"NoteNumber":82,"Velocity":79,"Duration":317460,"SoundDuration":317460,"Delta":472671294},{"NoteNumber":65,"Velocity":70,"Duration":79365,"SoundDuration":79365,"Delta":472671294},{"NoteNumber":58,"Velocity":69,"Duration":79365,"SoundDuration":79365,"Delta":472750659},{"NoteNumber":56,"Velocity":68,"Duration":79365,"SoundDuration":79365,"Delta":472830024},{"NoteNumber":51,"Velocity":67,"Duration":79365,"SoundDuration":79365,"Delta":472909389},{"NoteNumber":56,"Velocity":54,"Duration":317460,"SoundDuration":317460,"Delta":472988754},{"NoteNumber":63,"Velocity":54,"Duration":317460,"SoundDuration":317460,"Delta":472988754},{"NoteNumber":68,"Velocity":76,"Duration":317460,"SoundDuration":317460,"Delta":472988754},{"NoteNumber":53,"Velocity":65,"Duration":79365,"SoundDuration":79365,"Delta":472988754},{"NoteNumber":51,"Velocity":63,"Duration":79365,"SoundDuration":79365,"Delta":473068120},{"NoteNumber":47,"Velocity":61,"Duration":79365,"SoundDuration":79365,"Delta":473147485},{"NoteNumber":44,"Velocity":59,"Duration":79365,"SoundDuration":79365,"Delta":473226850},{"NoteNumber":51,"Velocity":49,"Duration":317460,"SoundDuration":317460,"Delta":473306215},{"NoteNumber":56,"Velocity":49,"Duration":317460,"SoundDuration":317460,"Delta":473306215},{"NoteNumber":63,"Velocity":70,"Duration":317460,"SoundDuration":317460,"Delta":473306215},{"NoteNumber":47,"Velocity":57,"Duration":79365,"SoundDuration":79365,"Delta":473306215},{"NoteNumber":44,"Velocity":55,"Duration":79365,"SoundDuration":79365,"Delta":473385580},{"NoteNumber":41,"Velocity":54,"Duration":79365,"SoundDuration":79365,"Delta":473464945},{"NoteNumber":37,"Velocity":52,"Duration":79365,"SoundDuration":79365,"Delta":473544310},{"NoteNumber":32,"Velocity":58,"Duration":136365,"SoundDuration":136365,"Delta":473623675},{"NoteNumber":39,"Velocity":61,"Duration":134531,"SoundDuration":134531,"Delta":473760041},{"NoteNumber":46,"Velocity":64,"Duration":132744,"SoundDuration":132744,"Delta":473894572},{"NoteNumber":48,"Velocity":67,"Duration":131005,"SoundDuration":131005,"Delta":474027317},{"NoteNumber":54,"Velocity":70,"Duration":129311,"SoundDuration":129311,"Delta":474158323},{"NoteNumber":58,"Velocity":73,"Duration":127661,"SoundDuration":127661,"Delta":474287635},{"NoteNumber":63,"Velocity":75,"Duration":126850,"SoundDuration":126850,"Delta":474415296},{"NoteNumber":58,"Velocity":72,"Duration":127932,"SoundDuration":127932,"Delta":474542147},{"NoteNumber":54,"Velocity":69,"Duration":129032,"SoundDuration":129032,"Delta":474670079},{"NoteNumber":51,"Velocity":65,"Duration":130152,"SoundDuration":130152,"Delta":474799112},{"NoteNumber":46,"Velocity":62,"Duration":131291,"SoundDuration":131291,"Delta":474929264},{"NoteNumber":39,"Velocity":58,"Duration":132450,"SoundDuration":132450,"Delta":475060556},{"NoteNumber":32,"Velocity":58,"Duration":132662,"SoundDuration":132662,"Delta":475193007},{"NoteNumber":58,"Velocity":63,"Duration":129125,"SoundDuration":129125,"Delta":475325669},{"NoteNumber":66,"Velocity":63,"Duration":129125,"SoundDuration":129125,"Delta":475325669},{"NoteNumber":70,"Velocity":75,"Duration":129125,"SoundDuration":129125,"Delta":475325669},{"NoteNumber":39,"Velocity":61,"Duration":129125,"SoundDuration":129125,"Delta":475325669},{"NoteNumber":60,"Velocity":68,"Duration":508340,"SoundDuration":508340,"Delta":475454795},{"NoteNumber":70,"Velocity":68,"Duration":508340,"SoundDuration":508340,"Delta":475454795},{"NoteNumber":72,"Velocity":81,"Duration":508340,"SoundDuration":508340,"Delta":475454795},{"NoteNumber":42,"Velocity":64,"Duration":128480,"SoundDuration":128480,"Delta":475454795},{"NoteNumber":48,"Velocity":67,"Duration":127751,"SoundDuration":127751,"Delta":475583275},{"NoteNumber":51,"Velocity":70,"Duration":126672,"SoundDuration":126672,"Delta":475711026},{"NoteNumber":54,"Velocity":73,"Duration":125436,"SoundDuration":125436,"Delta":475837699},{"NoteNumber":57,"Velocity":75,"Duration":124396,"SoundDuration":124396,"Delta":475963135},{"NoteNumber":54,"Velocity":72,"Duration":125436,"SoundDuration":125436,"Delta":476087532},{"NoteNumber":51,"Velocity":69,"Duration":126316,"SoundDuration":126316,"Delta":476212969},{"NoteNumber":48,"Velocity":65,"Duration":127389,"SoundDuration":127389,"Delta":476339285},{"NoteNumber":42,"Velocity":62,"Duration":128388,"SoundDuration":128388,"Delta":476466674},{"NoteNumber":39,"Velocity":58,"Duration":129404,"SoundDuration":129404,"Delta":476595063},{"NoteNumber":32,"Velocity":58,"Duration":130058,"SoundDuration":130058,"Delta":476724467},{"NoteNumber":39,"Velocity":61,"Duration":129032,"SoundDuration":129032,"Delta":476854526},{"NoteNumber":42,"Velocity":64,"Duration":127932,"SoundDuration":127932,"Delta":476983558},{"NoteNumber":45,"Velocity":67,"Duration":126850,"SoundDuration":126850,"Delta":477111491},{"NoteNumber":48,"Velocity":70,"Duration":125786,"SoundDuration":125786,"Delta":477238341},{"NoteNumber":51,"Velocity":73,"Duration":124740,"SoundDuration":124740,"Delta":477364128},{"NoteNumber":54,"Velocity":75,"Duration":125050,"SoundDuration":125050,"Delta":477488869},{"NoteNumber":51,"Velocity":72,"Duration":126051,"SoundDuration":126051,"Delta":477613919},{"NoteNumber":48,"Velocity":69,"Duration":127209,"SoundDuration":127209,"Delta":477739971},{"NoteNumber":45,"Velocity":65,"Duration":128572,"SoundDuration":128572,"Delta":477867181},{"NoteNumber":42,"Velocity":62,"Duration":129777,"SoundDuration":129777,"Delta":477995754},{"NoteNumber":39,"Velocity":58,"Duration":131100,"SoundDuration":131100,"Delta":478125531},{"NoteNumber":32,"Velocity":58,"Duration":129590,"SoundDuration":129590,"Delta":478256632},{"NoteNumber":36,"Velocity":61,"Duration":128480,"SoundDuration":128480,"Delta":478386222},{"NoteNumber":39,"Velocity":64,"Duration":127389,"SoundDuration":127389,"Delta":478514703},{"NoteNumber":42,"Velocity":67,"Duration":126316,"SoundDuration":126316,"Delta":478642092},{"NoteNumber":45,"Velocity":70,"Duration":125261,"SoundDuration":125261,"Delta":478768408},{"NoteNumber":48,"Velocity":73,"Duration":124224,"SoundDuration":124224,"Delta":478893670},{"NoteNumber":51,"Velocity":75,"Duration":123626,"SoundDuration":123626,"Delta":479017894},{"NoteNumber":48,"Velocity":72,"Duration":124654,"SoundDuration":124654,"Delta":479141521},{"NoteNumber":45,"Velocity":69,"Duration":125875,"SoundDuration":125875,"Delta":479266175},{"NoteNumber":42,"Velocity":65,"Duration":127120,"SoundDuration":127120,"Delta":479392051},{"NoteNumber":39,"Velocity":62,"Duration":128297,"SoundDuration":128297,"Delta":479519171},{"NoteNumber":36,"Velocity":58,"Duration":129684,"SoundDuration":129684,"Delta":479647469},{"NoteNumber":30,"Velocity":77,"Duration":3021748,"SoundDuration":3021748,"Delta":479777153},{"NoteNumber":40,"Velocity":61,"Duration":129218,"SoundDuration":129218,"Delta":479907400},{"NoteNumber":41,"Velocity":64,"Duration":128297,"SoundDuration":128297,"Delta":480036618},{"NoteNumber":46,"Velocity":67,"Duration":127209,"SoundDuration":127209,"Delta":480164916},{"NoteNumber":52,"Velocity":70,"Duration":126316,"SoundDuration":126316,"Delta":480292125},{"NoteNumber":55,"Velocity":73,"Duration":125261,"SoundDuration":125261,"Delta":480418442},{"NoteNumber":58,"Velocity":75,"Duration":124481,"SoundDuration":124481,"Delta":480543703},{"NoteNumber":63,"Velocity":77,"Duration":368962,"SoundDuration":368962,"Delta":480543703},{"NoteNumber":51,"Velocity":65,"Duration":368962,"SoundDuration":368962,"Delta":480543703},{"NoteNumber":55,"Velocity":72,"Duration":124481,"SoundDuration":124481,"Delta":480668184},{"NoteNumber":52,"Velocity":69,"Duration":120000,"SoundDuration":120000,"Delta":480792666},{"NoteNumber":63,"Velocity":74,"Duration":372100,"SoundDuration":372100,"Delta":480912666},{"NoteNumber":51,"Velocity":62,"Duration":372100,"SoundDuration":372100,"Delta":480912666},{"NoteNumber":46,"Velocity":62,"Duration":126050,"SoundDuration":126050,"Delta":481032666},{"NoteNumber":43,"Velocity":58,"Duration":126050,"SoundDuration":126050,"Delta":481158716},{"NoteNumber":40,"Velocity":61,"Duration":121457,"SoundDuration":121457,"Delta":481284767},{"NoteNumber":63,"Velocity":74,"Duration":364372,"SoundDuration":364372,"Delta":481284767},{"NoteNumber":51,"Velocity":62,"Duration":364372,"SoundDuration":364372,"Delta":481284767},{"NoteNumber":43,"Velocity":64,"Duration":121457,"SoundDuration":121457,"Delta":481406224},{"NoteNumber":46,"Velocity":67,"Duration":121457,"SoundDuration":121457,"Delta":481527682},{"NoteNumber":61,"Velocity":69,"Duration":374648,"SoundDuration":374648,"Delta":481649139},{"NoteNumber":49,"Velocity":58,"Duration":374648,"SoundDuration":374648,"Delta":481649139},{"NoteNumber":52,"Velocity":68,"Duration":125973,"SoundDuration":125973,"Delta":481770597},{"NoteNumber":55,"Velocity":71,"Duration":127217,"SoundDuration":127217,"Delta":481896571},{"NoteNumber":58,"Velocity":74,"Duration":125524,"SoundDuration":125524,"Delta":482023788},{"NoteNumber":63,"Velocity":75,"Duration":3122311,"SoundDuration":3122311,"Delta":482023788},{"NoteNumber":51,"Velocity":63,"Duration":3122311,"SoundDuration":3122311,"Delta":482023788},{"NoteNumber":55,"Velocity":69,"Duration":127120,"SoundDuration":127120,"Delta":482149313},{"NoteNumber":52,"Velocity":66,"Duration":128756,"SoundDuration":128756,"Delta":482276433},{"NoteNumber":51,"Velocity":62,"Duration":130436,"SoundDuration":130436,"Delta":482405190},{"NoteNumber":46,"Velocity":58,"Duration":131578,"SoundDuration":131578,"Delta":482535626},{"NoteNumber":43,"Velocity":54,"Duration":131695,"SoundDuration":131695,"Delta":482667205},{"NoteNumber":40,"Velocity":51,"Duration":132101,"SoundDuration":132101,"Delta":482798901},{"NoteNumber":30,"Velocity":68,"Duration":4710267,"SoundDuration":4710267,"Delta":482798901},{"NoteNumber":43,"Velocity":54,"Duration":131005,"SoundDuration":131005,"Delta":482931003},{"NoteNumber":46,"Velocity":56,"Duration":129871,"SoundDuration":129871,"Delta":483062008},{"NoteNumber":51,"Velocity":59,"Duration":128756,"SoundDuration":128756,"Delta":483191880},{"NoteNumber":52,"Velocity":62,"Duration":127660,"SoundDuration":127660,"Delta":483320636},{"NoteNumber":55,"Velocity":64,"Duration":127751,"SoundDuration":127751,"Delta":483448297},{"NoteNumber":58,"Velocity":66,"Duration":129173,"SoundDuration":129173,"Delta":483576049},{"NoteNumber":55,"Velocity":62,"Duration":130530,"SoundDuration":130530,"Delta":483705222},{"NoteNumber":52,"Velocity":58,"Duration":132015,"SoundDuration":132015,"Delta":483835753},{"NoteNumber":51,"Velocity":54,"Duration":133433,"SoundDuration":133433,"Delta":483967768},{"NoteNumber":46,"Velocity":50,"Duration":133928,"SoundDuration":133928,"Delta":484101202},{"NoteNumber":43,"Velocity":46,"Duration":133928,"SoundDuration":133928,"Delta":484235130},{"NoteNumber":40,"Velocity":48,"Duration":131995,"SoundDuration":131995,"Delta":484369059},{"NoteNumber":43,"Velocity":50,"Duration":131005,"SoundDuration":131005,"Delta":484501054},{"NoteNumber":46,"Velocity":53,"Duration":129871,"SoundDuration":129871,"Delta":484632060},{"NoteNumber":51,"Velocity":55,"Duration":128756,"SoundDuration":128756,"Delta":484761931},{"NoteNumber":52,"Velocity":57,"Duration":127660,"SoundDuration":127660,"Delta":484890688},{"NoteNumber":55,"Velocity":60,"Duration":127751,"SoundDuration":127751,"Delta":485018348},{"NoteNumber":58,"Velocity":61,"Duration":129173,"SoundDuration":129173,"Delta":485146100},{"NoteNumber":49,"Velocity":71,"Duration":792852,"SoundDuration":792852,"Delta":485146100},{"NoteNumber":55,"Velocity":58,"Duration":130530,"SoundDuration":130530,"Delta":485275273},{"NoteNumber":52,"Velocity":55,"Duration":132015,"SoundDuration":132015,"Delta":485405804},{"NoteNumber":51,"Velocity":52,"Duration":133433,"SoundDuration":133433,"Delta":485537819},{"NoteNumber":46,"Velocity":48,"Duration":133928,"SoundDuration":133928,"Delta":485671253},{"NoteNumber":43,"Velocity":45,"Duration":133770,"SoundDuration":133770,"Delta":485805182},{"NoteNumber":40,"Velocity":43,"Duration":132159,"SoundDuration":132159,"Delta":485938952},{"NoteNumber":51,"Velocity":71,"Duration":777205,"SoundDuration":777205,"Delta":485938952},{"NoteNumber":43,"Velocity":44,"Duration":131005,"SoundDuration":131005,"Delta":486071112},{"NoteNumber":46,"Velocity":46,"Duration":129871,"SoundDuration":129871,"Delta":486202118},{"NoteNumber":51,"Velocity":48,"Duration":128756,"SoundDuration":128756,"Delta":486331989},{"NoteNumber":52,"Velocity":49,"Duration":127660,"SoundDuration":127660,"Delta":486460745},{"NoteNumber":55,"Velocity":51,"Duration":127751,"SoundDuration":127751,"Delta":486588406},{"NoteNumber":58,"Velocity":53,"Duration":129173,"SoundDuration":129173,"Delta":486716158},{"NoteNumber":46,"Velocity":64,"Duration":793010,"SoundDuration":793010,"Delta":486716158},{"NoteNumber":55,"Velocity":51,"Duration":130530,"SoundDuration":130530,"Delta":486845331},{"NoteNumber":52,"Velocity":49,"Duration":132015,"SoundDuration":132015,"Delta":486975862},{"NoteNumber":48,"Velocity":47,"Duration":133433,"SoundDuration":133433,"Delta":487107877},{"NoteNumber":43,"Velocity":45,"Duration":133928,"SoundDuration":133928,"Delta":487241311},{"NoteNumber":40,"Velocity":43,"Duration":133928,"SoundDuration":133928,"Delta":487375240},{"NoteNumber":30,"Velocity":40,"Duration":129776,"SoundDuration":129776,"Delta":487509168},{"NoteNumber":55,"Velocity":43,"Duration":129125,"SoundDuration":129125,"Delta":487638945},{"NoteNumber":64,"Velocity":43,"Duration":129125,"SoundDuration":129125,"Delta":487638945},{"NoteNumber":67,"Velocity":51,"Duration":129125,"SoundDuration":129125,"Delta":487638945},{"NoteNumber":36,"Velocity":42,"Duration":129125,"SoundDuration":129125,"Delta":487638945},{"NoteNumber":57,"Velocity":47,"Duration":1269672,"SoundDuration":1269672,"Delta":487768070},{"NoteNumber":66,"Velocity":47,"Duration":1269672,"SoundDuration":1269672,"Delta":487768070},{"NoteNumber":69,"Velocity":56,"Duration":1269672,"SoundDuration":1269672,"Delta":487768070},{"NoteNumber":43,"Velocity":44,"Duration":128480,"SoundDuration":128480,"Delta":487768070},{"NoteNumber":46,"Velocity":46,"Duration":127751,"SoundDuration":127751,"Delta":487896550},{"NoteNumber":48,"Velocity":47,"Duration":126672,"SoundDuration":126672,"Delta":488024302},{"NoteNumber":52,"Velocity":49,"Duration":125436,"SoundDuration":125436,"Delta":488150974},{"NoteNumber":55,"Velocity":51,"Duration":124396,"SoundDuration":124396,"Delta":488276411},{"NoteNumber":52,"Velocity":48,"Duration":125436,"SoundDuration":125436,"Delta":488400808},{"NoteNumber":48,"Velocity":46,"Duration":126316,"SoundDuration":126316,"Delta":488526244},{"NoteNumber":46,"Velocity":44,"Duration":127389,"SoundDuration":127389,"Delta":488652561},{"NoteNumber":43,"Velocity":42,"Duration":128388,"SoundDuration":128388,"Delta":488779950},{"NoteNumber":40,"Velocity":41,"Duration":129404,"SoundDuration":129404,"Delta":488908338},{"NoteNumber":30,"Velocity":37,"Duration":130058,"SoundDuration":130058,"Delta":489037743},{"NoteNumber":36,"Velocity":38,"Duration":129032,"SoundDuration":129032,"Delta":489167801},{"NoteNumber":40,"Velocity":40,"Duration":127932,"SoundDuration":127932,"Delta":489296834},{"NoteNumber":43,"Velocity":42,"Duration":126850,"SoundDuration":126850,"Delta":489424766},{"NoteNumber":46,"Velocity":43,"Duration":125786,"SoundDuration":125786,"Delta":489551617},{"NoteNumber":48,"Velocity":45,"Duration":124740,"SoundDuration":124740,"Delta":489677404},{"NoteNumber":52,"Velocity":47,"Duration":125050,"SoundDuration":125050,"Delta":489802144},{"NoteNumber":48,"Velocity":44,"Duration":126051,"SoundDuration":126051,"Delta":489927195},{"NoteNumber":46,"Velocity":42,"Duration":127209,"SoundDuration":127209,"Delta":490053247},{"NoteNumber":43,"Velocity":40,"Duration":128572,"SoundDuration":128572,"Delta":490180456},{"NoteNumber":40,"Velocity":37,"Duration":129777,"SoundDuration":129777,"Delta":490309029},{"NoteNumber":36,"Velocity":35,"Duration":131100,"SoundDuration":131100,"Delta":490438807},{"NoteNumber":30,"Velocity":33,"Duration":129590,"SoundDuration":129590,"Delta":490569908},{"NoteNumber":34,"Velocity":34,"Duration":128480,"SoundDuration":128480,"Delta":490699498},{"NoteNumber":36,"Velocity":36,"Duration":127389,"SoundDuration":127389,"Delta":490827978},{"NoteNumber":40,"Velocity":37,"Duration":126316,"SoundDuration":126316,"Delta":490955367},{"NoteNumber":43,"Velocity":38,"Duration":125261,"SoundDuration":125261,"Delta":491081684},{"NoteNumber":46,"Velocity":40,"Duration":124224,"SoundDuration":124224,"Delta":491206945},{"NoteNumber":48,"Velocity":41,"Duration":123626,"SoundDuration":123626,"Delta":491331169},{"NoteNumber":46,"Velocity":39,"Duration":124654,"SoundDuration":124654,"Delta":491454796},{"NoteNumber":43,"Velocity":38,"Duration":125875,"SoundDuration":125875,"Delta":491579451},{"NoteNumber":40,"Velocity":37,"Duration":127120,"SoundDuration":127120,"Delta":491705326},{"NoteNumber":36,"Velocity":36,"Duration":128297,"SoundDuration":128297,"Delta":491832447},{"NoteNumber":34,"Velocity":35,"Duration":129684,"SoundDuration":129684,"Delta":491960744},{"NoteNumber":30,"Velocity":34,"Duration":129590,"SoundDuration":129590,"Delta":492090429},{"NoteNumber":31,"Velocity":33,"Duration":128480,"SoundDuration":128480,"Delta":492220019},{"NoteNumber":34,"Velocity":34,"Duration":127389,"SoundDuration":127389,"Delta":492348499},{"NoteNumber":36,"Velocity":35,"Duration":126316,"SoundDuration":126316,"Delta":492475888},{"NoteNumber":40,"Velocity":36,"Duration":125261,"SoundDuration":125261,"Delta":492602205},{"NoteNumber":43,"Velocity":37,"Duration":124224,"SoundDuration":124224,"Delta":492727466},{"NoteNumber":46,"Velocity":37,"Duration":123626,"SoundDuration":123626,"Delta":492851690},{"NoteNumber":43,"Velocity":36,"Duration":124654,"SoundDuration":124654,"Delta":492975317},{"NoteNumber":40,"Velocity":35,"Duration":125875,"SoundDuration":125875,"Delta":493099972},{"NoteNumber":36,"Velocity":33,"Duration":127120,"SoundDuration":127120,"Delta":493225847},{"NoteNumber":34,"Velocity":32,"Duration":128297,"SoundDuration":128297,"Delta":493352967},{"NoteNumber":31,"Velocity":31,"Duration":129684,"SoundDuration":129684,"Delta":493481265},{"NoteNumber":30,"Velocity":34,"Duration":129590,"SoundDuration":129590,"Delta":493610949},{"NoteNumber":31,"Velocity":33,"Duration":128480,"SoundDuration":128480,"Delta":493740540},{"NoteNumber":34,"Velocity":34,"Duration":127389,"SoundDuration":127389,"Delta":493869020},{"NoteNumber":36,"Velocity":35,"Duration":126316,"SoundDuration":126316,"Delta":493996409},{"NoteNumber":36,"Velocity":36,"Duration":125261,"SoundDuration":125261,"Delta":494122725},{"NoteNumber":40,"Velocity":37,"Duration":124224,"SoundDuration":124224,"Delta":494247987},{"NoteNumber":43,"Velocity":37,"Duration":123626,"SoundDuration":123626,"Delta":494372211},{"NoteNumber":40,"Velocity":32,"Duration":124654,"SoundDuration":124654,"Delta":494495838},{"NoteNumber":36,"Velocity":31,"Duration":125875,"SoundDuration":125875,"Delta":494620493},{"NoteNumber":34,"Velocity":31,"Duration":127120,"SoundDuration":127120,"Delta":494746368},{"NoteNumber":36,"Velocity":32,"Duration":128297,"SoundDuration":128297,"Delta":494873488},{"NoteNumber":40,"Velocity":31,"Duration":129684,"SoundDuration":129684,"Delta":495001786},{"NoteNumber":40,"Velocity":37,"Duration":139535,"SoundDuration":139535,"Delta":495131470},{"NoteNumber":36,"Velocity":30,"Duration":139534,"SoundDuration":139534,"Delta":495271005},{"NoteNumber":34,"Velocity":32,"Duration":139535,"SoundDuration":139535,"Delta":495410540},{"NoteNumber":31,"Velocity":32,"Duration":139534,"SoundDuration":139534,"Delta":495550075},{"NoteNumber":34,"Velocity":32,"Duration":139535,"SoundDuration":139535,"Delta":495689610},{"NoteNumber":36,"Velocity":31,"Duration":139535,"SoundDuration":139535,"Delta":495829145},{"NoteNumber":36,"Velocity":37,"Duration":143763,"SoundDuration":143763,"Delta":495968680},{"NoteNumber":34,"Velocity":30,"Duration":146774,"SoundDuration":146774,"Delta":496112444},{"NoteNumber":31,"Velocity":30,"Duration":149630,"SoundDuration":149630,"Delta":496259219},{"NoteNumber":28,"Velocity":30,"Duration":152495,"SoundDuration":152495,"Delta":496408849},{"NoteNumber":31,"Velocity":30,"Duration":155473,"SoundDuration":155473,"Delta":496561344},{"NoteNumber":34,"Velocity":31,"Duration":158566,"SoundDuration":158566,"Delta":496716817},{"NoteNumber":34,"Velocity":37,"Duration":170454,"SoundDuration":170454,"Delta":496875384},{"NoteNumber":31,"Velocity":30,"Duration":170454,"SoundDuration":170454,"Delta":497045838},{"NoteNumber":28,"Velocity":30,"Duration":170454,"SoundDuration":170454,"Delta":497216293},{"NoteNumber":24,"Velocity":30,"Duration":199999,"SoundDuration":199999,"Delta":497386747},{"NoteNumber":27,"Velocity":29,"Duration":199999,"SoundDuration":199999,"Delta":497586747},{"NoteNumber":24,"Velocity":29,"Duration":217391,"SoundDuration":217391,"Delta":497786747},{"NoteNumber":23,"Velocity":30,"Duration":5152245,"SoundDuration":5152245,"Delta":498004139},{"NoteNumber":86,"Velocity":30,"Duration":136363,"SoundDuration":136363,"Delta":498982400},{"NoteNumber":78,"Velocity":25,"Duration":136363,"SoundDuration":136363,"Delta":498982400},{"NoteNumber":90,"Velocity":26,"Duration":100863,"SoundDuration":100863,"Delta":499118763},{"NoteNumber":87,"Velocity":22,"Duration":100863,"SoundDuration":100863,"Delta":499118763},{"NoteNumber":86,"Velocity":30,"Duration":94902,"SoundDuration":94902,"Delta":499219627},{"NoteNumber":78,"Velocity":25,"Duration":94902,"SoundDuration":94902,"Delta":499219627},{"NoteNumber":90,"Velocity":28,"Duration":92560,"SoundDuration":92560,"Delta":499314530},{"NoteNumber":87,"Velocity":23,"Duration":92560,"SoundDuration":92560,"Delta":499314530},{"NoteNumber":86,"Velocity":30,"Duration":90909,"SoundDuration":90909,"Delta":499407090},{"NoteNumber":78,"Velocity":25,"Duration":90909,"SoundDuration":90909,"Delta":499407090},{"NoteNumber":90,"Velocity":27,"Duration":90909,"SoundDuration":90909,"Delta":499497999},{"NoteNumber":87,"Velocity":22,"Duration":90909,"SoundDuration":90909,"Delta":499497999},{"NoteNumber":86,"Velocity":30,"Duration":90909,"SoundDuration":90909,"Delta":499588908},{"NoteNumber":78,"Velocity":25,"Duration":90909,"SoundDuration":90909,"Delta":499588908},{"NoteNumber":90,"Velocity":26,"Duration":90546,"SoundDuration":90546,"Delta":499679817},{"NoteNumber":87,"Velocity":22,"Duration":90546,"SoundDuration":90546,"Delta":499679817},{"NoteNumber":86,"Velocity":30,"Duration":90726,"SoundDuration":90726,"Delta":499770364},{"NoteNumber":78,"Velocity":25,"Duration":90726,"SoundDuration":90726,"Delta":499770364},{"NoteNumber":53,"Velocity":40,"Duration":709123,"SoundDuration":709123,"Delta":499770364},{"NoteNumber":41,"Velocity":34,"Duration":709123,"SoundDuration":709123,"Delta":499770364},{"NoteNumber":90,"Velocity":26,"Duration":90000,"SoundDuration":90000,"Delta":499861090},{"NoteNumber":87,"Velocity":22,"Duration":90000,"SoundDuration":90000,"Delta":499861090},{"NoteNumber":86,"Velocity":30,"Duration":89109,"SoundDuration":89109,"Delta":499951091},{"NoteNumber":78,"Velocity":25,"Duration":89109,"SoundDuration":89109,"Delta":499951091},{"NoteNumber":90,"Velocity":28,"Duration":88409,"SoundDuration":88409,"Delta":500040201},{"NoteNumber":87,"Velocity":23,"Duration":88409,"SoundDuration":88409,"Delta":500040201},{"NoteNumber":86,"Velocity":31,"Duration":87719,"SoundDuration":87719,"Delta":500128610},{"NoteNumber":78,"Velocity":26,"Duration":87719,"SoundDuration":87719,"Delta":500128610},{"NoteNumber":90,"Velocity":28,"Duration":87719,"SoundDuration":87719,"Delta":500216329},{"NoteNumber":87,"Velocity":23,"Duration":87719,"SoundDuration":87719,"Delta":500216329},{"NoteNumber":86,"Velocity":32,"Duration":87719,"SoundDuration":87719,"Delta":500304048},{"NoteNumber":78,"Velocity":26,"Duration":87719,"SoundDuration":87719,"Delta":500304048},{"NoteNumber":90,"Velocity":28,"Duration":87719,"SoundDuration":87719,"Delta":500391768},{"NoteNumber":87,"Velocity":23,"Duration":87719,"SoundDuration":87719,"Delta":500391768},{"NoteNumber":86,"Velocity":33,"Duration":84745,"SoundDuration":84745,"Delta":500479487},{"NoteNumber":78,"Velocity":27,"Duration":84745,"SoundDuration":84745,"Delta":500479487},{"NoteNumber":42,"Velocity":37,"Duration":669491,"SoundDuration":669491,"Delta":500479487},{"NoteNumber":54,"Velocity":44,"Duration":3369455,"SoundDuration":3369455,"Delta":500479487},{"NoteNumber":90,"Velocity":28,"Duration":84745,"SoundDuration":84745,"Delta":500564233},{"NoteNumber":87,"Velocity":24,"Duration":84745,"SoundDuration":84745,"Delta":500564233},{"NoteNumber":86,"Velocity":33,"Duration":83333,"SoundDuration":83333,"Delta":500648978},{"NoteNumber":78,"Velocity":28,"Duration":83333,"SoundDuration":83333,"Delta":500648978},{"NoteNumber":90,"Velocity":31,"Duration":83333,"SoundDuration":83333,"Delta":500732312},{"NoteNumber":87,"Velocity":25,"Duration":83333,"SoundDuration":83333,"Delta":500732312},{"NoteNumber":86,"Velocity":34,"Duration":83333,"SoundDuration":83333,"Delta":500815645},{"NoteNumber":78,"Velocity":28,"Duration":83333,"SoundDuration":83333,"Delta":500815645},{"NoteNumber":90,"Velocity":31,"Duration":83333,"SoundDuration":83333,"Delta":500898978},{"NoteNumber":87,"Velocity":25,"Duration":83333,"SoundDuration":83333,"Delta":500898978},{"NoteNumber":86,"Velocity":35,"Duration":83333,"SoundDuration":83333,"Delta":500982312},{"NoteNumber":78,"Velocity":29,"Duration":83333,"SoundDuration":83333,"Delta":500982312},{"NoteNumber":90,"Velocity":30,"Duration":83333,"SoundDuration":83333,"Delta":501065645},{"NoteNumber":87,"Velocity":25,"Duration":83333,"SoundDuration":83333,"Delta":501065645},{"NoteNumber":86,"Velocity":36,"Duration":82125,"SoundDuration":82125,"Delta":501148979},{"NoteNumber":78,"Velocity":30,"Duration":82125,"SoundDuration":82125,"Delta":501148979},{"NoteNumber":51,"Velocity":40,"Duration":2699963,"SoundDuration":2699963,"Delta":501148979},{"NoteNumber":49,"Velocity":40,"Duration":2699963,"SoundDuration":2699963,"Delta":501148979},{"NoteNumber":61,"Velocity":48,"Duration":2699963,"SoundDuration":2699963,"Delta":501148979},{"NoteNumber":90,"Velocity":31,"Duration":81521,"SoundDuration":81521,"Delta":501231104},{"NoteNumber":87,"Velocity":26,"Duration":81521,"SoundDuration":81521,"Delta":501231104},{"NoteNumber":86,"Velocity":36,"Duration":81521,"SoundDuration":81521,"Delta":501312626},{"NoteNumber":78,"Velocity":30,"Duration":81521,"SoundDuration":81521,"Delta":501312626},{"NoteNumber":90,"Velocity":33,"Duration":81972,"SoundDuration":81972,"Delta":501394148},{"NoteNumber":87,"Velocity":27,"Duration":81972,"SoundDuration":81972,"Delta":501394148},{"NoteNumber":86,"Velocity":37,"Duration":82872,"SoundDuration":82872,"Delta":501476120},{"NoteNumber":78,"Velocity":31,"Duration":82872,"SoundDuration":82872,"Delta":501476120},{"NoteNumber":90,"Velocity":33,"Duration":83333,"SoundDuration":83333,"Delta":501558993},{"NoteNumber":87,"Velocity":27,"Duration":83333,"SoundDuration":83333,"Delta":501558993},{"NoteNumber":86,"Velocity":38,"Duration":83798,"SoundDuration":83798,"Delta":501642326},{"NoteNumber":78,"Velocity":32,"Duration":83798,"SoundDuration":83798,"Delta":501642326},{"NoteNumber":90,"Velocity":33,"Duration":84396,"SoundDuration":84396,"Delta":501726125},{"NoteNumber":87,"Velocity":28,"Duration":84396,"SoundDuration":84396,"Delta":501726125},{"NoteNumber":86,"Velocity":39,"Duration":83031,"SoundDuration":83031,"Delta":501810522},{"NoteNumber":78,"Velocity":33,"Duration":83031,"SoundDuration":83031,"Delta":501810522},{"NoteNumber":63,"Velocity":40,"Duration":2038420,"SoundDuration":2038420,"Delta":501810522},{"NoteNumber":66,"Velocity":51,"Duration":2038420,"SoundDuration":2038420,"Delta":501810522},{"NoteNumber":90,"Velocity":33,"Duration":82910,"SoundDuration":82910,"Delta":501893553},{"NoteNumber":87,"Velocity":28,"Duration":82910,"SoundDuration":82910,"Delta":501893553},{"NoteNumber":86,"Velocity":37,"Duration":85425,"SoundDuration":85425,"Delta":501976463},{"NoteNumber":78,"Velocity":31,"Duration":85425,"SoundDuration":85425,"Delta":501976463},{"NoteNumber":90,"Velocity":34,"Duration":83831,"SoundDuration":83831,"Delta":502061888},{"NoteNumber":87,"Velocity":28,"Duration":83831,"SoundDuration":83831,"Delta":502061888},{"NoteNumber":86,"Velocity":36,"Duration":83370,"SoundDuration":83370,"Delta":502145720},{"NoteNumber":78,"Velocity":30,"Duration":83370,"SoundDuration":83370,"Delta":502145720},{"NoteNumber":90,"Velocity":31,"Duration":85750,"SoundDuration":85750,"Delta":502229091},{"NoteNumber":87,"Velocity":25,"Duration":85750,"SoundDuration":85750,"Delta":502229091},{"NoteNumber":86,"Velocity":34,"Duration":83679,"SoundDuration":83679,"Delta":502314841},{"NoteNumber":78,"Velocity":28,"Duration":83679,"SoundDuration":83679,"Delta":502314841},{"NoteNumber":90,"Velocity":29,"Duration":82389,"SoundDuration":82389,"Delta":502398521},{"NoteNumber":87,"Velocity":25,"Duration":82389,"SoundDuration":82389,"Delta":502398521},{"NoteNumber":86,"Velocity":34,"Duration":84499,"SoundDuration":84499,"Delta":502480910},{"NoteNumber":78,"Velocity":28,"Duration":84499,"SoundDuration":84499,"Delta":502480910},{"NoteNumber":90,"Velocity":29,"Duration":84466,"SoundDuration":84466,"Delta":502565409},{"NoteNumber":87,"Velocity":24,"Duration":84466,"SoundDuration":84466,"Delta":502565409},{"NoteNumber":86,"Velocity":33,"Duration":81675,"SoundDuration":81675,"Delta":502649876},{"NoteNumber":78,"Velocity":28,"Duration":81675,"SoundDuration":81675,"Delta":502649876},{"NoteNumber":90,"Velocity":31,"Duration":84773,"SoundDuration":84773,"Delta":502731552},{"NoteNumber":87,"Velocity":25,"Duration":84773,"SoundDuration":84773,"Delta":502731552},{"NoteNumber":86,"Velocity":33,"Duration":86581,"SoundDuration":86581,"Delta":502816325},{"NoteNumber":78,"Velocity":27,"Duration":86581,"SoundDuration":86581,"Delta":502816325},{"NoteNumber":90,"Velocity":29,"Duration":84081,"SoundDuration":84081,"Delta":502902906},{"NoteNumber":87,"Velocity":24,"Duration":84081,"SoundDuration":84081,"Delta":502902906},{"NoteNumber":86,"Velocity":32,"Duration":84650,"SoundDuration":84650,"Delta":502986988},{"NoteNumber":78,"Velocity":27,"Duration":84650,"SoundDuration":84650,"Delta":502986988},{"NoteNumber":90,"Velocity":28,"Duration":84745,"SoundDuration":84745,"Delta":503071639},{"NoteNumber":87,"Velocity":23,"Duration":84745,"SoundDuration":84745,"Delta":503071639},{"NoteNumber":86,"Velocity":32,"Duration":85227,"SoundDuration":85227,"Delta":503156384},{"NoteNumber":78,"Velocity":26,"Duration":85227,"SoundDuration":85227,"Delta":503156384},{"NoteNumber":35,"Velocity":33,"Duration":692557,"SoundDuration":692557,"Delta":503156384},{"NoteNumber":42,"Velocity":43,"Duration":692557,"SoundDuration":692557,"Delta":503156384},{"NoteNumber":90,"Velocity":27,"Duration":85551,"SoundDuration":85551,"Delta":503241612},{"NoteNumber":87,"Velocity":23,"Duration":85551,"SoundDuration":85551,"Delta":503241612},{"NoteNumber":86,"Velocity":31,"Duration":85878,"SoundDuration":85878,"Delta":503327164},{"NoteNumber":78,"Velocity":26,"Duration":85878,"SoundDuration":85878,"Delta":503327164},{"NoteNumber":90,"Velocity":29,"Duration":86372,"SoundDuration":86372,"Delta":503413042},{"NoteNumber":87,"Velocity":24,"Duration":86372,"SoundDuration":86372,"Delta":503413042},{"NoteNumber":86,"Velocity":31,"Duration":86705,"SoundDuration":86705,"Delta":503499415},{"NoteNumber":78,"Velocity":26,"Duration":86705,"SoundDuration":86705,"Delta":503499415},{"NoteNumber":90,"Velocity":27,"Duration":87209,"SoundDuration":87209,"Delta":503586120},{"NoteNumber":87,"Velocity":22,"Duration":87209,"SoundDuration":87209,"Delta":503586120},{"NoteNumber":86,"Velocity":30,"Duration":87549,"SoundDuration":87549,"Delta":503673330},{"NoteNumber":78,"Velocity":25,"Duration":87549,"SoundDuration":87549,"Delta":503673330},{"NoteNumber":90,"Velocity":26,"Duration":88063,"SoundDuration":88063,"Delta":503760879},{"NoteNumber":87,"Velocity":22,"Duration":88063,"SoundDuration":88063,"Delta":503760879},{"NoteNumber":98,"Velocity":54,"Duration":44117,"SoundDuration":44117,"Delta":503804824},{"NoteNumber":86,"Velocity":32,"Duration":88235,"SoundDuration":88235,"Delta":503848942},{"NoteNumber":102,"Velocity":66,"Duration":176470,"SoundDuration":176470,"Delta":503848942},{"NoteNumber":99,"Velocity":66,"Duration":176470,"SoundDuration":176470,"Delta":503848942},{"NoteNumber":90,"Velocity":27,"Duration":88235,"SoundDuration":88235,"Delta":503937177},{"NoteNumber":87,"Velocity":23,"Duration":88235,"SoundDuration":88235,"Delta":503937177},{"NoteNumber":86,"Velocity":31,"Duration":88235,"SoundDuration":88235,"Delta":504025413},{"NoteNumber":90,"Velocity":29,"Duration":88235,"SoundDuration":88235,"Delta":504113648},{"NoteNumber":87,"Velocity":24,"Duration":88235,"SoundDuration":88235,"Delta":504113648},{"NoteNumber":86,"Velocity":36,"Duration":88235,"SoundDuration":88235,"Delta":504201883},{"NoteNumber":78,"Velocity":26,"Duration":88235,"SoundDuration":88235,"Delta":504201883},{"NoteNumber":90,"Velocity":27,"Duration":88235,"SoundDuration":88235,"Delta":504290118},{"NoteNumber":87,"Velocity":22,"Duration":88235,"SoundDuration":88235,"Delta":504290118},{"NoteNumber":86,"Velocity":30,"Duration":88235,"SoundDuration":88235,"Delta":504378354},{"NoteNumber":78,"Velocity":25,"Duration":88235,"SoundDuration":88235,"Delta":504378354},{"NoteNumber":90,"Velocity":26,"Duration":88235,"SoundDuration":88235,"Delta":504466589},{"NoteNumber":87,"Velocity":22,"Duration":88235,"SoundDuration":88235,"Delta":504466589},{"NoteNumber":66,"Velocity":40,"Duration":84745,"SoundDuration":84745,"Delta":504554824},{"NoteNumber":74,"Velocity":40,"Duration":84745,"SoundDuration":84745,"Delta":504554824},{"NoteNumber":75,"Velocity":27,"Duration":84745,"SoundDuration":84745,"Delta":504639570},{"NoteNumber":74,"Velocity":30,"Duration":84745,"SoundDuration":84745,"Delta":504724316},{"NoteNumber":66,"Velocity":25,"Duration":84745,"SoundDuration":84745,"Delta":504724316},{"NoteNumber":75,"Velocity":26,"Duration":84745,"SoundDuration":84745,"Delta":504809061},{"NoteNumber":62,"Velocity":42,"Duration":86206,"SoundDuration":86206,"Delta":504893807},{"NoteNumber":54,"Velocity":42,"Duration":86206,"SoundDuration":86206,"Delta":504893807},{"NoteNumber":66,"Velocity":27,"Duration":86206,"SoundDuration":86206,"Delta":504980014},{"NoteNumber":63,"Velocity":22,"Duration":86206,"SoundDuration":86206,"Delta":504980014},{"NoteNumber":62,"Velocity":30,"Duration":86206,"SoundDuration":86206,"Delta":505066221},{"NoteNumber":54,"Velocity":25,"Duration":86206,"SoundDuration":86206,"Delta":505066221},{"NoteNumber":66,"Velocity":26,"Duration":86206,"SoundDuration":86206,"Delta":505152428},{"NoteNumber":63,"Velocity":22,"Duration":86206,"SoundDuration":86206,"Delta":505152428},{"NoteNumber":50,"Velocity":41,"Duration":86206,"SoundDuration":86206,"Delta":505238635},{"NoteNumber":42,"Velocity":41,"Duration":86206,"SoundDuration":86206,"Delta":505238635},{"NoteNumber":51,"Velocity":27,"Duration":86206,"SoundDuration":86206,"Delta":505324841},{"NoteNumber":50,"Velocity":30,"Duration":86206,"SoundDuration":86206,"Delta":505411048},{"NoteNumber":42,"Velocity":25,"Duration":86206,"SoundDuration":86206,"Delta":505411048},{"NoteNumber":51,"Velocity":26,"Duration":86206,"SoundDuration":86206,"Delta":505497255},{"NoteNumber":30,"Velocity":34,"Duration":87719,"SoundDuration":87719,"Delta":505583462},{"NoteNumber":38,"Velocity":34,"Duration":87719,"SoundDuration":87719,"Delta":505583462},{"NoteNumber":39,"Velocity":18,"Duration":87719,"SoundDuration":87719,"Delta":505671181},{"NoteNumber":42,"Velocity":22,"Duration":87719,"SoundDuration":87719,"Delta":505671181},{"NoteNumber":30,"Velocity":21,"Duration":87719,"SoundDuration":87719,"Delta":505758901},{"NoteNumber":38,"Velocity":25,"Duration":87719,"SoundDuration":87719,"Delta":505758901},{"NoteNumber":39,"Velocity":18,"Duration":111940,"SoundDuration":111940,"Delta":505846620},{"NoteNumber":42,"Velocity":22,"Duration":111940,"SoundDuration":111940,"Delta":505846620},{"NoteNumber":23,"Velocity":34,"Duration":253164,"SoundDuration":253164,"Delta":505958560},{"NoteNumber":58,"Velocity":29,"Duration":50380,"SoundDuration":50380,"Delta":506464889},{"NoteNumber":59,"Velocity":33,"Duration":50380,"SoundDuration":50380,"Delta":506515269},{"NoteNumber":62,"Velocity":34,"Duration":50380,"SoundDuration":50380,"Delta":506565650},{"NoteNumber":66,"Velocity":34,"Duration":50337,"SoundDuration":50337,"Delta":506616030},{"NoteNumber":70,"Velocity":34,"Duration":50207,"SoundDuration":50207,"Delta":506666367},{"NoteNumber":74,"Velocity":34,"Duration":50583,"SoundDuration":50583,"Delta":506716574},{"NoteNumber":78,"Velocity":31,"Duration":395968,"SoundDuration":395968,"Delta":506767158},{"NoteNumber":82,"Velocity":30,"Duration":344858,"SoundDuration":344858,"Delta":506818268},{"NoteNumber":75,"Velocity":26,"Duration":59102,"SoundDuration":59102,"Delta":506869897},{"NoteNumber":77,"Velocity":30,"Duration":59102,"SoundDuration":59102,"Delta":506869897}],"license":{"name":"Creative Commons Attribution-ShareAlike 3.0 Germany","url":"http://creativecommons.org/licenses/by-sa/3.0/de/deed.en","text":"The MIDI, audio (MP3, OGG) and video files of Bernd Krueger are licensed under the cc-by-sa Germany License. This means that you can use and adapt the files, as long as you attribute the copyright holder.\n\nName: Bernd Krueger\nSource: http://www.piano-midi.de\n\nThe distribution or public playback of the files is only allowed under identical license conditions.\n\nThe scores are open source.","attribution":"MIDI files by Bernd Krueger (piano-midi.de)","attributionUrl":"http://www.piano-midi.de"}}