{"title":"Clementi: Sonatine Opus 36 Nr. 1, 3. Satz","artist":"Clementi","durationMs":55508,"midiSha256":"c476c8891402dcb8294b92e5f2d342389b22e8b596ce354568ea010d1cab8887","midiObject":[{"NoteNumber":76,"Velocity":42,"Duration":130219,"SoundDuration":130219,"Delta":0},{"NoteNumber":48,"Velocity":28,"Duration":260439,"SoundDuration":260439,"Delta":0},{"NoteNumber":74,"Velocity":39,"Duration":130219,"SoundDuration":130219,"Delta":130219},{"NoteNumber":72,"Velocity":42,"Duration":67150,"SoundDuration":67150,"Delta":260439},{"NoteNumber":52,"Velocity":24,"Duration":268600,"SoundDuration":268600,"Delta":260439},{"NoteNumber":72,"Velocity":39,"Duration":71983,"SoundDuration":71983,"Delta":529040},{"NoteNumber":55,"Velocity":24,"Duration":287935,"SoundDuration":287935,"Delta":529040},{"NoteNumber":79,"Velocity":59,"Duration":532434,"SoundDuration":532434,"Delta":816975},{"NoteNumber":48,"Velocity":28,"Duration":266217,"SoundDuration":266217,"Delta":816975},{"NoteNumber":52,"Velocity":26,"Duration":266216,"SoundDuration":266216,"Delta":1083192},{"NoteNumber":77,"Velocity":42,"Duration":133108,"SoundDuration":133108,"Delta":1349409},{"NoteNumber":55,"Velocity":26,"Duration":266216,"SoundDuration":266216,"Delta":1349409},{"NoteNumber":76,"Velocity":38,"Duration":133108,"SoundDuration":133108,"Delta":1482517},{"NoteNumber":74,"Velocity":46,"Duration":266217,"SoundDuration":266217,"Delta":1615626},{"NoteNumber":48,"Velocity":28,"Duration":266217,"SoundDuration":266217,"Delta":1615626},{"NoteNumber":77,"Velocity":42,"Duration":266216,"SoundDuration":266216,"Delta":1881843},{"NoteNumber":50,"Velocity":23,"Duration":266216,"SoundDuration":266216,"Delta":1881843},{"NoteNumber":71,"Velocity":39,"Duration":273498,"SoundDuration":273498,"Delta":2148060},{"NoteNumber":53,"Velocity":23,"Duration":273498,"SoundDuration":273498,"Delta":2148060},{"NoteNumber":72,"Velocity":45,"Duration":265041,"SoundDuration":265041,"Delta":2421558},{"NoteNumber":48,"Velocity":28,"Duration":265041,"SoundDuration":265041,"Delta":2421558},{"NoteNumber":67,"Velocity":42,"Duration":132520,"SoundDuration":132520,"Delta":2686599},{"NoteNumber":52,"Velocity":26,"Duration":265041,"SoundDuration":265041,"Delta":2686599},{"NoteNumber":67,"Velocity":42,"Duration":132520,"SoundDuration":132520,"Delta":2951640},{"NoteNumber":55,"Velocity":26,"Duration":265041,"SoundDuration":265041,"Delta":2951640},{"NoteNumber":76,"Velocity":42,"Duration":129099,"SoundDuration":129099,"Delta":3216681},{"NoteNumber":48,"Velocity":28,"Duration":258198,"SoundDuration":258198,"Delta":3216681},{"NoteNumber":74,"Velocity":39,"Duration":129099,"SoundDuration":129099,"Delta":3345780},{"NoteNumber":72,"Velocity":42,"Duration":66850,"SoundDuration":66850,"Delta":3474879},{"NoteNumber":52,"Velocity":24,"Duration":267403,"SoundDuration":267403,"Delta":3474879},{"NoteNumber":72,"Velocity":39,"Duration":71640,"SoundDuration":71640,"Delta":3742283},{"NoteNumber":55,"Velocity":24,"Duration":286560,"SoundDuration":286560,"Delta":3742283},{"NoteNumber":79,"Velocity":63,"Duration":532434,"SoundDuration":532434,"Delta":4028843},{"NoteNumber":48,"Velocity":28,"Duration":266217,"SoundDuration":266217,"Delta":4028843},{"NoteNumber":52,"Velocity":26,"Duration":266217,"SoundDuration":266217,"Delta":4295060},{"NoteNumber":77,"Velocity":42,"Duration":133108,"SoundDuration":133108,"Delta":4561277},{"NoteNumber":55,"Velocity":26,"Duration":266030,"SoundDuration":266030,"Delta":4561277},{"NoteNumber":76,"Velocity":38,"Duration":132922,"SoundDuration":132922,"Delta":4694386},{"NoteNumber":74,"Velocity":46,"Duration":132219,"SoundDuration":132219,"Delta":4827308},{"NoteNumber":43,"Velocity":28,"Duration":263743,"SoundDuration":263743,"Delta":4827308},{"NoteNumber":76,"Velocity":40,"Duration":131523,"SoundDuration":131523,"Delta":4959527},{"NoteNumber":77,"Velocity":45,"Duration":130768,"SoundDuration":130768,"Delta":5091051},{"NoteNumber":50,"Velocity":23,"Duration":260988,"SoundDuration":260988,"Delta":5091051},{"NoteNumber":76,"Velocity":39,"Duration":130219,"SoundDuration":130219,"Delta":5221820},{"NoteNumber":77,"Velocity":39,"Duration":130219,"SoundDuration":130219,"Delta":5352039},{"NoteNumber":55,"Velocity":23,"Duration":270813,"SoundDuration":270813,"Delta":5352039},{"NoteNumber":74,"Velocity":36,"Duration":140594,"SoundDuration":140594,"Delta":5482259},{"NoteNumber":72,"Velocity":45,"Duration":265041,"SoundDuration":265041,"Delta":5622853},{"NoteNumber":48,"Velocity":28,"Duration":265041,"SoundDuration":265041,"Delta":5622853},{"NoteNumber":52,"Velocity":23,"Duration":265041,"SoundDuration":265041,"Delta":5887894},{"NoteNumber":55,"Velocity":23,"Duration":265041,"SoundDuration":265041,"Delta":6152935},{"NoteNumber":76,"Velocity":67,"Duration":128545,"SoundDuration":128545,"Delta":6417976},{"NoteNumber":48,"Velocity":45,"Duration":257091,"SoundDuration":257091,"Delta":6417976},{"NoteNumber":74,"Velocity":62,"Duration":128545,"SoundDuration":128545,"Delta":6546522},{"NoteNumber":72,"Velocity":67,"Duration":65968,"SoundDuration":65968,"Delta":6675068},{"NoteNumber":52,"Velocity":39,"Duration":263875,"SoundDuration":263875,"Delta":6675068},{"NoteNumber":72,"Velocity":63,"Duration":70297,"SoundDuration":70297,"Delta":6938943},{"NoteNumber":55,"Velocity":39,"Duration":281188,"SoundDuration":281188,"Delta":6938943},{"NoteNumber":79,"Velocity":78,"Duration":527751,"SoundDuration":527751,"Delta":7220132},{"NoteNumber":48,"Velocity":45,"Duration":263875,"SoundDuration":263875,"Delta":7220132},{"NoteNumber":52,"Velocity":41,"Duration":263875,"SoundDuration":263875,"Delta":7484007},{"NoteNumber":77,"Velocity":67,"Duration":131937,"SoundDuration":131937,"Delta":7747883},{"NoteNumber":55,"Velocity":41,"Duration":263875,"SoundDuration":263875,"Delta":7747883},{"NoteNumber":76,"Velocity":60,"Duration":131937,"SoundDuration":131937,"Delta":7879821},{"NoteNumber":74,"Velocity":74,"Duration":263875,"SoundDuration":263875,"Delta":8011758},{"NoteNumber":48,"Velocity":45,"Duration":263875,"SoundDuration":263875,"Delta":8011758},{"NoteNumber":77,"Velocity":67,"Duration":263875,"SoundDuration":263875,"Delta":8275634},{"NoteNumber":50,"Velocity":38,"Duration":263875,"SoundDuration":263875,"Delta":8275634},{"NoteNumber":71,"Velocity":63,"Duration":272256,"SoundDuration":272256,"Delta":8539509},{"NoteNumber":53,"Velocity":38,"Duration":272256,"SoundDuration":272256,"Delta":8539509},{"NoteNumber":72,"Velocity":71,"Duration":261574,"SoundDuration":261574,"Delta":8811766},{"NoteNumber":48,"Velocity":45,"Duration":261574,"SoundDuration":261574,"Delta":8811766},{"NoteNumber":67,"Velocity":67,"Duration":130787,"SoundDuration":130787,"Delta":9073341},{"NoteNumber":52,"Velocity":41,"Duration":261574,"SoundDuration":261574,"Delta":9073341},{"NoteNumber":67,"Velocity":67,"Duration":130787,"SoundDuration":130787,"Delta":9334915},{"NoteNumber":55,"Velocity":41,"Duration":261574,"SoundDuration":261574,"Delta":9334915},{"NoteNumber":76,"Velocity":67,"Duration":127453,"SoundDuration":127453,"Delta":9596490},{"NoteNumber":48,"Velocity":45,"Duration":254906,"SoundDuration":254906,"Delta":9596490},{"NoteNumber":74,"Velocity":62,"Duration":127453,"SoundDuration":127453,"Delta":9723943},{"NoteNumber":72,"Velocity":67,"Duration":65393,"SoundDuration":65393,"Delta":9851397},{"NoteNumber":52,"Velocity":39,"Duration":261574,"SoundDuration":261574,"Delta":9851397},{"NoteNumber":72,"Velocity":63,"Duration":72331,"SoundDuration":72331,"Delta":10112971},{"NoteNumber":55,"Velocity":39,"Duration":289324,"SoundDuration":289324,"Delta":10112971},{"NoteNumber":79,"Velocity":78,"Duration":523149,"SoundDuration":523149,"Delta":10402295},{"NoteNumber":48,"Velocity":45,"Duration":261574,"SoundDuration":261574,"Delta":10402295},{"NoteNumber":52,"Velocity":41,"Duration":261574,"SoundDuration":261574,"Delta":10663870},{"NoteNumber":77,"Velocity":67,"Duration":130787,"SoundDuration":130787,"Delta":10925444},{"NoteNumber":55,"Velocity":41,"Duration":261574,"SoundDuration":261574,"Delta":10925444},{"NoteNumber":76,"Velocity":60,"Duration":130787,"SoundDuration":130787,"Delta":11056232},{"NoteNumber":74,"Velocity":74,"Duration":130787,"SoundDuration":130787,"Delta":11187019},{"NoteNumber":43,"Velocity":45,"Duration":261574,"SoundDuration":261574,"Delta":11187019},{"NoteNumber":76,"Velocity":64,"Duration":130787,"SoundDuration":130787,"Delta":11317806},{"NoteNumber":77,"Velocity":71,"Duration":129099,"SoundDuration":129099,"Delta":11448593},{"NoteNumber":50,"Velocity":38,"Duration":258198,"SoundDuration":258198,"Delta":11448593},{"NoteNumber":76,"Velocity":63,"Duration":129099,"SoundDuration":129099,"Delta":11577692},{"NoteNumber":77,"Velocity":63,"Duration":129099,"SoundDuration":129099,"Delta":11706791},{"NoteNumber":55,"Velocity":38,"Duration":271698,"SoundDuration":271698,"Delta":11706791},{"NoteNumber":74,"Velocity":58,"Duration":142599,"SoundDuration":142599,"Delta":11835890},{"NoteNumber":72,"Velocity":71,"Duration":260439,"SoundDuration":260439,"Delta":11978489},{"NoteNumber":48,"Velocity":45,"Duration":260439,"SoundDuration":260439,"Delta":11978489},{"NoteNumber":52,"Velocity":38,"Duration":260439,"SoundDuration":260439,"Delta":12238929},{"NoteNumber":55,"Velocity":38,"Duration":260439,"SoundDuration":260439,"Delta":12499368},{"NoteNumber":67,"Velocity":42,"Duration":126379,"SoundDuration":126379,"Delta":12759808},{"NoteNumber":60,"Velocity":28,"Duration":510957,"SoundDuration":510957,"Delta":12759808},{"NoteNumber":65,"Velocity":39,"Duration":126379,"SoundDuration":126379,"Delta":12886188},{"NoteNumber":64,"Velocity":42,"Duration":129099,"SoundDuration":129099,"Delta":13012567},{"NoteNumber":64,"Velocity":39,"Duration":129099,"SoundDuration":129099,"Delta":13270765},{"NoteNumber":69,"Velocity":42,"Duration":125849,"SoundDuration":125849,"Delta":13528963},{"NoteNumber":60,"Velocity":28,"Duration":511012,"SoundDuration":511012,"Delta":13528963},{"NoteNumber":67,"Velocity":39,"Duration":125849,"SoundDuration":125849,"Delta":13654813},{"NoteNumber":65,"Velocity":42,"Duration":129656,"SoundDuration":129656,"Delta":13780662},{"NoteNumber":65,"Velocity":39,"Duration":129656,"SoundDuration":129656,"Delta":14039976},{"NoteNumber":62,"Velocity":63,"Duration":129656,"SoundDuration":129656,"Delta":14299289},{"NoteNumber":60,"Velocity":45,"Duration":259313,"SoundDuration":259313,"Delta":14299289},{"NoteNumber":65,"Velocity":57,"Duration":129656,"SoundDuration":129656,"Delta":14428946},{"NoteNumber":71,"Velocity":63,"Duration":127453,"SoundDuration":127453,"Delta":14558603},{"NoteNumber":60,"Velocity":39,"Duration":254906,"SoundDuration":254906,"Delta":14558603},{"NoteNumber":65,"Velocity":55,"Duration":127453,"SoundDuration":127453,"Delta":14686056},{"NoteNumber":71,"Velocity":62,"Duration":127453,"SoundDuration":127453,"Delta":14813510},{"NoteNumber":60,"Velocity":39,"Duration":269378,"SoundDuration":269378,"Delta":14813510},{"NoteNumber":65,"Velocity":55,"Duration":141924,"SoundDuration":141924,"Delta":14940963},{"NoteNumber":64,"Velocity":68,"Duration":262719,"SoundDuration":262719,"Delta":15082888},{"NoteNumber":60,"Velocity":45,"Duration":262719,"SoundDuration":262719,"Delta":15082888},{"NoteNumber":67,"Velocity":55,"Duration":262719,"SoundDuration":262719,"Delta":15345608},{"NoteNumber":60,"Velocity":39,"Duration":262719,"SoundDuration":262719,"Delta":15345608},{"NoteNumber":72,"Velocity":63,"Duration":269808,"SoundDuration":269808,"Delta":15608328},{"NoteNumber":60,"Velocity":39,"Duration":269808,"SoundDuration":269808,"Delta":15608328},{"NoteNumber":67,"Velocity":42,"Duration":126914,"SoundDuration":126914,"Delta":15878136},{"NoteNumber":60,"Velocity":28,"Duration":514267,"SoundDuration":514267,"Delta":15878136},{"NoteNumber":65,"Velocity":39,"Duration":126914,"SoundDuration":126914,"Delta":16005051},{"NoteNumber":64,"Velocity":42,"Duration":130219,"SoundDuration":130219,"Delta":16131965},{"NoteNumber":64,"Velocity":39,"Duration":139288,"SoundDuration":139288,"Delta":16392404},{"NoteNumber":76,"Velocity":42,"Duration":125323,"SoundDuration":125323,"Delta":16670982},{"NoteNumber":55,"Velocity":28,"Duration":511086,"SoundDuration":511086,"Delta":16670982},{"NoteNumber":60,"Velocity":28,"Duration":511086,"SoundDuration":511086,"Delta":16670982},{"NoteNumber":74,"Velocity":39,"Duration":125323,"SoundDuration":125323,"Delta":16796306},{"NoteNumber":72,"Velocity":42,"Duration":130219,"SoundDuration":130219,"Delta":16921629},{"NoteNumber":72,"Velocity":39,"Duration":137375,"SoundDuration":137375,"Delta":17182069},{"NoteNumber":66,"Velocity":63,"Duration":130787,"SoundDuration":130787,"Delta":17456819},{"NoteNumber":50,"Velocity":38,"Duration":261574,"SoundDuration":261574,"Delta":17456819},{"NoteNumber":57,"Velocity":45,"Duration":261574,"SoundDuration":261574,"Delta":17456819},{"NoteNumber":67,"Velocity":57,"Duration":130787,"SoundDuration":130787,"Delta":17587607},{"NoteNumber":69,"Velocity":63,"Duration":130787,"SoundDuration":130787,"Delta":17718394},{"NoteNumber":50,"Velocity":33,"Duration":261574,"SoundDuration":261574,"Delta":17718394},{"NoteNumber":57,"Velocity":39,"Duration":261574,"SoundDuration":261574,"Delta":17718394},{"NoteNumber":71,"Velocity":55,"Duration":130787,"SoundDuration":130787,"Delta":17849181},{"NoteNumber":72,"Velocity":62,"Duration":132520,"SoundDuration":132520,"Delta":17979968},{"NoteNumber":50,"Velocity":33,"Duration":276488,"SoundDuration":276488,"Delta":17979968},{"NoteNumber":57,"Velocity":39,"Duration":276488,"SoundDuration":276488,"Delta":17979968},{"NoteNumber":69,"Velocity":55,"Duration":143967,"SoundDuration":143967,"Delta":18112489},{"NoteNumber":67,"Velocity":63,"Duration":523149,"SoundDuration":523149,"Delta":18256457},{"NoteNumber":55,"Velocity":38,"Duration":261574,"SoundDuration":261574,"Delta":18256457},{"NoteNumber":59,"Velocity":45,"Duration":261574,"SoundDuration":261574,"Delta":18256457},{"NoteNumber":55,"Velocity":33,"Duration":261574,"SoundDuration":261574,"Delta":18518031},{"NoteNumber":59,"Velocity":39,"Duration":261574,"SoundDuration":261574,"Delta":18518031},{"NoteNumber":83,"Velocity":64,"Duration":130787,"SoundDuration":130787,"Delta":18779606},{"NoteNumber":55,"Velocity":33,"Duration":261848,"SoundDuration":261848,"Delta":18779606},{"NoteNumber":59,"Velocity":39,"Duration":261848,"SoundDuration":261848,"Delta":18779606},{"NoteNumber":84,"Velocity":67,"Duration":131061,"SoundDuration":131061,"Delta":18910393},{"NoteNumber":86,"Velocity":71,"Duration":132219,"SoundDuration":132219,"Delta":19041455},{"NoteNumber":55,"Velocity":38,"Duration":263513,"SoundDuration":263513,"Delta":19041455},{"NoteNumber":59,"Velocity":45,"Duration":263513,"SoundDuration":263513,"Delta":19041455},{"NoteNumber":84,"Velocity":66,"Duration":131293,"SoundDuration":131293,"Delta":19173674},{"NoteNumber":83,"Velocity":68,"Duration":130446,"SoundDuration":130446,"Delta":19304968},{"NoteNumber":55,"Velocity":33,"Duration":260126,"SoundDuration":260126,"Delta":19304968},{"NoteNumber":59,"Velocity":39,"Duration":260126,"SoundDuration":260126,"Delta":19304968},{"NoteNumber":81,"Velocity":63,"Duration":129680,"SoundDuration":129680,"Delta":19435415},{"NoteNumber":79,"Velocity":65,"Duration":130130,"SoundDuration":130130,"Delta":19565095},{"NoteNumber":55,"Velocity":33,"Duration":260757,"SoundDuration":260757,"Delta":19565095},{"NoteNumber":59,"Velocity":39,"Duration":260757,"SoundDuration":260757,"Delta":19565095},{"NoteNumber":78,"Velocity":63,"Duration":130626,"SoundDuration":130626,"Delta":19695225},{"NoteNumber":76,"Velocity":63,"Duration":131221,"SoundDuration":131221,"Delta":19825852},{"NoteNumber":55,"Velocity":38,"Duration":262400,"SoundDuration":262400,"Delta":19825852},{"NoteNumber":60,"Velocity":45,"Duration":262400,"SoundDuration":262400,"Delta":19825852},{"NoteNumber":74,"Velocity":61,"Duration":131178,"SoundDuration":131178,"Delta":19957073},{"NoteNumber":72,"Velocity":63,"Duration":130673,"SoundDuration":130673,"Delta":20088252},{"NoteNumber":55,"Velocity":33,"Duration":260893,"SoundDuration":260893,"Delta":20088252},{"NoteNumber":60,"Velocity":39,"Duration":260893,"SoundDuration":260893,"Delta":20088252},{"NoteNumber":71,"Velocity":60,"Duration":130219,"SoundDuration":130219,"Delta":20218926},{"NoteNumber":69,"Velocity":63,"Duration":130650,"SoundDuration":130650,"Delta":20349146},{"NoteNumber":55,"Velocity":33,"Duration":261618,"SoundDuration":261618,"Delta":20349146},{"NoteNumber":60,"Velocity":39,"Duration":261618,"SoundDuration":261618,"Delta":20349146},{"NoteNumber":67,"Velocity":62,"Duration":130968,"SoundDuration":130968,"Delta":20479796},{"NoteNumber":66,"Velocity":63,"Duration":131359,"SoundDuration":131359,"Delta":20610764},{"NoteNumber":50,"Velocity":38,"Duration":262176,"SoundDuration":262176,"Delta":20610764},{"NoteNumber":57,"Velocity":45,"Duration":262176,"SoundDuration":262176,"Delta":20610764},{"NoteNumber":67,"Velocity":57,"Duration":130816,"SoundDuration":130816,"Delta":20742124},{"NoteNumber":69,"Velocity":63,"Duration":130064,"SoundDuration":130064,"Delta":20872941},{"NoteNumber":50,"Velocity":33,"Duration":261170,"SoundDuration":261170,"Delta":20872941},{"NoteNumber":57,"Velocity":39,"Duration":261170,"SoundDuration":261170,"Delta":20872941},{"NoteNumber":71,"Velocity":55,"Duration":131105,"SoundDuration":131105,"Delta":21003005},{"NoteNumber":72,"Velocity":62,"Duration":133657,"SoundDuration":133657,"Delta":21134111},{"NoteNumber":50,"Velocity":33,"Duration":278319,"SoundDuration":278319,"Delta":21134111},{"NoteNumber":57,"Velocity":39,"Duration":278319,"SoundDuration":278319,"Delta":21134111},{"NoteNumber":69,"Velocity":55,"Duration":144662,"SoundDuration":144662,"Delta":21267768},{"NoteNumber":67,"Velocity":63,"Duration":523149,"SoundDuration":523149,"Delta":21412430},{"NoteNumber":55,"Velocity":38,"Duration":261574,"SoundDuration":261574,"Delta":21412430},{"NoteNumber":59,"Velocity":45,"Duration":261574,"SoundDuration":261574,"Delta":21412430},{"NoteNumber":55,"Velocity":33,"Duration":261574,"SoundDuration":261574,"Delta":21674004},{"NoteNumber":59,"Velocity":39,"Duration":261574,"SoundDuration":261574,"Delta":21674004},{"NoteNumber":83,"Velocity":64,"Duration":130787,"SoundDuration":130787,"Delta":21935579},{"NoteNumber":55,"Velocity":33,"Duration":274067,"SoundDuration":274067,"Delta":21935579},{"NoteNumber":59,"Velocity":39,"Duration":274067,"SoundDuration":274067,"Delta":21935579},{"NoteNumber":84,"Velocity":67,"Duration":143280,"SoundDuration":143280,"Delta":22066366},{"NoteNumber":86,"Velocity":71,"Duration":130219,"SoundDuration":130219,"Delta":22209646},{"NoteNumber":55,"Velocity":38,"Duration":260439,"SoundDuration":260439,"Delta":22209646},{"NoteNumber":59,"Velocity":45,"Duration":260439,"SoundDuration":260439,"Delta":22209646},{"NoteNumber":84,"Velocity":66,"Duration":130219,"SoundDuration":130219,"Delta":22339866},{"NoteNumber":83,"Velocity":68,"Duration":130219,"SoundDuration":130219,"Delta":22470086},{"NoteNumber":55,"Velocity":33,"Duration":260439,"SoundDuration":260439,"Delta":22470086},{"NoteNumber":59,"Velocity":39,"Duration":260439,"SoundDuration":260439,"Delta":22470086},{"NoteNumber":81,"Velocity":63,"Duration":130219,"SoundDuration":130219,"Delta":22600306},{"NoteNumber":79,"Velocity":65,"Duration":133701,"SoundDuration":133701,"Delta":22730525},{"NoteNumber":55,"Velocity":33,"Duration":267403,"SoundDuration":267403,"Delta":22730525},{"NoteNumber":59,"Velocity":39,"Duration":267403,"SoundDuration":267403,"Delta":22730525},{"NoteNumber":78,"Velocity":63,"Duration":133701,"SoundDuration":133701,"Delta":22864227},{"NoteNumber":77,"Velocity":63,"Duration":68064,"SoundDuration":68064,"Delta":22997929},{"NoteNumber":55,"Velocity":38,"Duration":136128,"SoundDuration":136128,"Delta":22997929},{"NoteNumber":59,"Velocity":45,"Duration":136128,"SoundDuration":136128,"Delta":22997929},{"NoteNumber":77,"Velocity":59,"Duration":68064,"SoundDuration":68064,"Delta":23270186},{"NoteNumber":86,"Velocity":59,"Duration":130219,"SoundDuration":130219,"Delta":23542443},{"NoteNumber":83,"Velocity":53,"Duration":130219,"SoundDuration":130219,"Delta":23672663},{"NoteNumber":77,"Velocity":63,"Duration":67452,"SoundDuration":67452,"Delta":23802882},{"NoteNumber":55,"Velocity":38,"Duration":134904,"SoundDuration":134904,"Delta":23802882},{"NoteNumber":59,"Velocity":45,"Duration":134904,"SoundDuration":134904,"Delta":23802882},{"NoteNumber":77,"Velocity":61,"Duration":67452,"SoundDuration":67452,"Delta":24072691},{"NoteNumber":86,"Velocity":62,"Duration":130219,"SoundDuration":130219,"Delta":24342499},{"NoteNumber":83,"Velocity":57,"Duration":130219,"SoundDuration":130219,"Delta":24472719},{"NoteNumber":77,"Velocity":63,"Duration":133108,"SoundDuration":133108,"Delta":24602939},{"NoteNumber":55,"Velocity":41,"Duration":266217,"SoundDuration":266217,"Delta":24602939},{"NoteNumber":59,"Velocity":38,"Duration":266216,"SoundDuration":266216,"Delta":24869156},{"NoteNumber":62,"Velocity":34,"Duration":279876,"SoundDuration":279876,"Delta":25135373},{"NoteNumber":74,"Velocity":47,"Duration":133701,"SoundDuration":133701,"Delta":25415250},{"NoteNumber":55,"Velocity":30,"Duration":267403,"SoundDuration":267403,"Delta":25415250},{"NoteNumber":59,"Velocity":29,"Duration":267403,"SoundDuration":267403,"Delta":25682653},{"NoteNumber":62,"Velocity":24,"Duration":276014,"SoundDuration":276014,"Delta":25950057},{"NoteNumber":71,"Velocity":47,"Duration":132780,"SoundDuration":132780,"Delta":26226071},{"NoteNumber":67,"Velocity":39,"Duration":130657,"SoundDuration":130657,"Delta":26358852},{"NoteNumber":69,"Velocity":40,"Duration":128749,"SoundDuration":128749,"Delta":26489510},{"NoteNumber":71,"Velocity":42,"Duration":132669,"SoundDuration":132669,"Delta":26618260},{"NoteNumber":72,"Velocity":44,"Duration":138810,"SoundDuration":138810,"Delta":26750930},{"NoteNumber":74,"Velocity":45,"Duration":152764,"SoundDuration":152764,"Delta":26889740},{"NoteNumber":76,"Velocity":37,"Duration":130219,"SoundDuration":130219,"Delta":27042505},{"NoteNumber":48,"Velocity":25,"Duration":260439,"SoundDuration":260439,"Delta":27042505},{"NoteNumber":74,"Velocity":35,"Duration":130219,"SoundDuration":130219,"Delta":27172724},{"NoteNumber":72,"Velocity":37,"Duration":67150,"SoundDuration":67150,"Delta":27302944},{"NoteNumber":52,"Velocity":21,"Duration":268600,"SoundDuration":268600,"Delta":27302944},{"NoteNumber":72,"Velocity":35,"Duration":71640,"SoundDuration":71640,"Delta":27571545},{"NoteNumber":55,"Velocity":21,"Duration":286560,"SoundDuration":286560,"Delta":27571545},{"NoteNumber":79,"Velocity":47,"Duration":532433,"SoundDuration":532433,"Delta":27858105},{"NoteNumber":48,"Velocity":25,"Duration":266217,"SoundDuration":266217,"Delta":27858105},{"NoteNumber":52,"Velocity":23,"Duration":266216,"SoundDuration":266216,"Delta":28124322},{"NoteNumber":77,"Velocity":37,"Duration":133108,"SoundDuration":133108,"Delta":28390539},{"NoteNumber":55,"Velocity":23,"Duration":266217,"SoundDuration":266217,"Delta":28390539},{"NoteNumber":76,"Velocity":34,"Duration":133108,"SoundDuration":133108,"Delta":28523648},{"NoteNumber":74,"Velocity":41,"Duration":266217,"SoundDuration":266217,"Delta":28656756},{"NoteNumber":48,"Velocity":25,"Duration":266217,"SoundDuration":266217,"Delta":28656756},{"NoteNumber":77,"Velocity":37,"Duration":266217,"SoundDuration":266217,"Delta":28922973},{"NoteNumber":50,"Velocity":20,"Duration":266217,"SoundDuration":266217,"Delta":28922973},{"NoteNumber":71,"Velocity":35,"Duration":273498,"SoundDuration":273498,"Delta":29189190},{"NoteNumber":53,"Velocity":20,"Duration":273498,"SoundDuration":273498,"Delta":29189190},{"NoteNumber":72,"Velocity":40,"Duration":265041,"SoundDuration":265041,"Delta":29462688},{"NoteNumber":48,"Velocity":25,"Duration":265041,"SoundDuration":265041,"Delta":29462688},{"NoteNumber":67,"Velocity":37,"Duration":132520,"SoundDuration":132520,"Delta":29727729},{"NoteNumber":52,"Velocity":23,"Duration":265041,"SoundDuration":265041,"Delta":29727729},{"NoteNumber":67,"Velocity":37,"Duration":132520,"SoundDuration":132520,"Delta":29992770},{"NoteNumber":55,"Velocity":23,"Duration":265041,"SoundDuration":265041,"Delta":29992770},{"NoteNumber":76,"Velocity":37,"Duration":129099,"SoundDuration":129099,"Delta":30257811},{"NoteNumber":48,"Velocity":25,"Duration":258198,"SoundDuration":258198,"Delta":30257811},{"NoteNumber":74,"Velocity":35,"Duration":129099,"SoundDuration":129099,"Delta":30386910},{"NoteNumber":72,"Velocity":37,"Duration":66850,"SoundDuration":66850,"Delta":30516009},{"NoteNumber":52,"Velocity":21,"Duration":267403,"SoundDuration":267403,"Delta":30516009},{"NoteNumber":72,"Velocity":35,"Duration":71640,"SoundDuration":71640,"Delta":30783413},{"NoteNumber":55,"Velocity":21,"Duration":286560,"SoundDuration":286560,"Delta":30783413},{"NoteNumber":79,"Velocity":47,"Duration":532433,"SoundDuration":532433,"Delta":31069973},{"NoteNumber":48,"Velocity":25,"Duration":266217,"SoundDuration":266217,"Delta":31069973},{"NoteNumber":52,"Velocity":23,"Duration":266216,"SoundDuration":266216,"Delta":31336190},{"NoteNumber":77,"Velocity":37,"Duration":133108,"SoundDuration":133108,"Delta":31602407},{"NoteNumber":55,"Velocity":23,"Duration":266030,"SoundDuration":266030,"Delta":31602407},{"NoteNumber":76,"Velocity":34,"Duration":132922,"SoundDuration":132922,"Delta":31735516},{"NoteNumber":74,"Velocity":41,"Duration":132219,"SoundDuration":132219,"Delta":31868438},{"NoteNumber":43,"Velocity":25,"Duration":263743,"SoundDuration":263743,"Delta":31868438},{"NoteNumber":76,"Velocity":36,"Duration":131523,"SoundDuration":131523,"Delta":32000657},{"NoteNumber":77,"Velocity":40,"Duration":130768,"SoundDuration":130768,"Delta":32132181},{"NoteNumber":50,"Velocity":20,"Duration":260988,"SoundDuration":260988,"Delta":32132181},{"NoteNumber":76,"Velocity":35,"Duration":130219,"SoundDuration":130219,"Delta":32262950},{"NoteNumber":77,"Velocity":35,"Duration":130219,"SoundDuration":130219,"Delta":32393170},{"NoteNumber":55,"Velocity":20,"Duration":270813,"SoundDuration":270813,"Delta":32393170},{"NoteNumber":74,"Velocity":32,"Duration":140594,"SoundDuration":140594,"Delta":32523389},{"NoteNumber":72,"Velocity":40,"Duration":265040,"SoundDuration":265040,"Delta":32663984},{"NoteNumber":48,"Velocity":25,"Duration":265040,"SoundDuration":265040,"Delta":32663984},{"NoteNumber":52,"Velocity":20,"Duration":265041,"SoundDuration":265041,"Delta":32929025},{"NoteNumber":55,"Velocity":20,"Duration":265040,"SoundDuration":265040,"Delta":33194066},{"NoteNumber":76,"Velocity":67,"Duration":128545,"SoundDuration":128545,"Delta":33459107},{"NoteNumber":48,"Velocity":45,"Duration":257091,"SoundDuration":257091,"Delta":33459107},{"NoteNumber":74,"Velocity":62,"Duration":128545,"SoundDuration":128545,"Delta":33587652},{"NoteNumber":72,"Velocity":67,"Duration":65968,"SoundDuration":65968,"Delta":33716198},{"NoteNumber":52,"Velocity":39,"Duration":263875,"SoundDuration":263875,"Delta":33716198},{"NoteNumber":72,"Velocity":63,"Duration":73392,"SoundDuration":73392,"Delta":33980074},{"NoteNumber":55,"Velocity":39,"Duration":293571,"SoundDuration":293571,"Delta":33980074},{"NoteNumber":79,"Velocity":78,"Duration":527751,"SoundDuration":527751,"Delta":34273645},{"NoteNumber":48,"Velocity":45,"Duration":263875,"SoundDuration":263875,"Delta":34273645},{"NoteNumber":52,"Velocity":41,"Duration":263875,"SoundDuration":263875,"Delta":34537520},{"NoteNumber":77,"Velocity":67,"Duration":131937,"SoundDuration":131937,"Delta":34801396},{"NoteNumber":55,"Velocity":41,"Duration":263875,"SoundDuration":263875,"Delta":34801396},{"NoteNumber":76,"Velocity":60,"Duration":131937,"SoundDuration":131937,"Delta":34933333},{"NoteNumber":74,"Velocity":74,"Duration":263875,"SoundDuration":263875,"Delta":35065271},{"NoteNumber":48,"Velocity":45,"Duration":263875,"SoundDuration":263875,"Delta":35065271},{"NoteNumber":77,"Velocity":67,"Duration":263875,"SoundDuration":263875,"Delta":35329147},{"NoteNumber":50,"Velocity":38,"Duration":263875,"SoundDuration":263875,"Delta":35329147},{"NoteNumber":71,"Velocity":63,"Duration":272257,"SoundDuration":272257,"Delta":35593022},{"NoteNumber":53,"Velocity":38,"Duration":272257,"SoundDuration":272257,"Delta":35593022},{"NoteNumber":72,"Velocity":71,"Duration":261574,"SoundDuration":261574,"Delta":35865279},{"NoteNumber":48,"Velocity":45,"Duration":261574,"SoundDuration":261574,"Delta":35865279},{"NoteNumber":67,"Velocity":67,"Duration":130787,"SoundDuration":130787,"Delta":36126854},{"NoteNumber":52,"Velocity":41,"Duration":261574,"SoundDuration":261574,"Delta":36126854},{"NoteNumber":67,"Velocity":67,"Duration":130787,"SoundDuration":130787,"Delta":36388428},{"NoteNumber":55,"Velocity":41,"Duration":261574,"SoundDuration":261574,"Delta":36388428},{"NoteNumber":76,"Velocity":67,"Duration":127453,"SoundDuration":127453,"Delta":36650003},{"NoteNumber":48,"Velocity":45,"Duration":254907,"SoundDuration":254907,"Delta":36650003},{"NoteNumber":74,"Velocity":62,"Duration":127453,"SoundDuration":127453,"Delta":36777456},{"NoteNumber":72,"Velocity":67,"Duration":65393,"SoundDuration":65393,"Delta":36904910},{"NoteNumber":52,"Velocity":39,"Duration":261574,"SoundDuration":261574,"Delta":36904910},{"NoteNumber":72,"Velocity":63,"Duration":70962,"SoundDuration":70962,"Delta":37166484},{"NoteNumber":55,"Velocity":39,"Duration":283849,"SoundDuration":283849,"Delta":37166484},{"NoteNumber":79,"Velocity":78,"Duration":523148,"SoundDuration":523148,"Delta":37450333},{"NoteNumber":48,"Velocity":45,"Duration":261574,"SoundDuration":261574,"Delta":37450333},{"NoteNumber":52,"Velocity":41,"Duration":261574,"SoundDuration":261574,"Delta":37711908},{"NoteNumber":77,"Velocity":67,"Duration":130787,"SoundDuration":130787,"Delta":37973482},{"NoteNumber":55,"Velocity":41,"Duration":261574,"SoundDuration":261574,"Delta":37973482},{"NoteNumber":76,"Velocity":60,"Duration":130787,"SoundDuration":130787,"Delta":38104269},{"NoteNumber":74,"Velocity":74,"Duration":130787,"SoundDuration":130787,"Delta":38235057},{"NoteNumber":43,"Velocity":45,"Duration":261574,"SoundDuration":261574,"Delta":38235057},{"NoteNumber":76,"Velocity":64,"Duration":130787,"SoundDuration":130787,"Delta":38365844},{"NoteNumber":77,"Velocity":71,"Duration":129098,"SoundDuration":129098,"Delta":38496631},{"NoteNumber":50,"Velocity":38,"Duration":258198,"SoundDuration":258198,"Delta":38496631},{"NoteNumber":76,"Velocity":63,"Duration":129099,"SoundDuration":129099,"Delta":38625730},{"NoteNumber":77,"Velocity":63,"Duration":129098,"SoundDuration":129098,"Delta":38754829},{"NoteNumber":55,"Velocity":38,"Duration":271697,"SoundDuration":271697,"Delta":38754829},{"NoteNumber":74,"Velocity":58,"Duration":142598,"SoundDuration":142598,"Delta":38883928},{"NoteNumber":72,"Velocity":71,"Duration":260439,"SoundDuration":260439,"Delta":39026527},{"NoteNumber":48,"Velocity":45,"Duration":260439,"SoundDuration":260439,"Delta":39026527},{"NoteNumber":52,"Velocity":38,"Duration":260439,"SoundDuration":260439,"Delta":39286967},{"NoteNumber":55,"Velocity":38,"Duration":260439,"SoundDuration":260439,"Delta":39547406},{"NoteNumber":67,"Velocity":42,"Duration":126379,"SoundDuration":126379,"Delta":39807846},{"NoteNumber":60,"Velocity":28,"Duration":510957,"SoundDuration":510957,"Delta":39807846},{"NoteNumber":65,"Velocity":39,"Duration":126379,"SoundDuration":126379,"Delta":39934225},{"NoteNumber":64,"Velocity":42,"Duration":129098,"SoundDuration":129098,"Delta":40060605},{"NoteNumber":64,"Velocity":39,"Duration":129098,"SoundDuration":129098,"Delta":40318803},{"NoteNumber":69,"Velocity":42,"Duration":125849,"SoundDuration":125849,"Delta":40577001},{"NoteNumber":60,"Velocity":28,"Duration":511012,"SoundDuration":511012,"Delta":40577001},{"NoteNumber":67,"Velocity":39,"Duration":125849,"SoundDuration":125849,"Delta":40702851},{"NoteNumber":65,"Velocity":42,"Duration":129656,"SoundDuration":129656,"Delta":40828700},{"NoteNumber":65,"Velocity":39,"Duration":129656,"SoundDuration":129656,"Delta":41088014},{"NoteNumber":62,"Velocity":63,"Duration":129656,"SoundDuration":129656,"Delta":41347327},{"NoteNumber":60,"Velocity":45,"Duration":259313,"SoundDuration":259313,"Delta":41347327},{"NoteNumber":65,"Velocity":57,"Duration":129656,"SoundDuration":129656,"Delta":41476984},{"NoteNumber":71,"Velocity":63,"Duration":127453,"SoundDuration":127453,"Delta":41606641},{"NoteNumber":60,"Velocity":39,"Duration":254907,"SoundDuration":254907,"Delta":41606641},{"NoteNumber":65,"Velocity":55,"Duration":127453,"SoundDuration":127453,"Delta":41734094},{"NoteNumber":71,"Velocity":62,"Duration":127453,"SoundDuration":127453,"Delta":41861548},{"NoteNumber":60,"Velocity":39,"Duration":269377,"SoundDuration":269377,"Delta":41861548},{"NoteNumber":65,"Velocity":55,"Duration":141924,"SoundDuration":141924,"Delta":41989001},{"NoteNumber":64,"Velocity":63,"Duration":262720,"SoundDuration":262720,"Delta":42130926},{"NoteNumber":60,"Velocity":45,"Duration":262720,"SoundDuration":262720,"Delta":42130926},{"NoteNumber":55,"Velocity":39,"Duration":262720,"SoundDuration":262720,"Delta":42393646},{"NoteNumber":76,"Velocity":64,"Duration":131359,"SoundDuration":131359,"Delta":42656366},{"NoteNumber":52,"Velocity":39,"Duration":262719,"SoundDuration":262719,"Delta":42656366},{"NoteNumber":77,"Velocity":67,"Duration":131360,"SoundDuration":131360,"Delta":42787726},{"NoteNumber":79,"Velocity":71,"Duration":129896,"SoundDuration":129896,"Delta":42919086},{"NoteNumber":48,"Velocity":45,"Duration":258663,"SoundDuration":258663,"Delta":42919086},{"NoteNumber":77,"Velocity":66,"Duration":128767,"SoundDuration":128767,"Delta":43048982},{"NoteNumber":76,"Velocity":68,"Duration":127680,"SoundDuration":127680,"Delta":43177749},{"NoteNumber":50,"Velocity":39,"Duration":255133,"SoundDuration":255133,"Delta":43177749},{"NoteNumber":74,"Velocity":63,"Duration":127453,"SoundDuration":127453,"Delta":43305429},{"NoteNumber":72,"Velocity":65,"Duration":127902,"SoundDuration":127902,"Delta":43432883},{"NoteNumber":52,"Velocity":39,"Duration":255931,"SoundDuration":255931,"Delta":43432883},{"NoteNumber":71,"Velocity":63,"Duration":128029,"SoundDuration":128029,"Delta":43560785},{"NoteNumber":69,"Velocity":63,"Duration":141400,"SoundDuration":141400,"Delta":43688814},{"NoteNumber":53,"Velocity":45,"Duration":512253,"SoundDuration":512253,"Delta":43688814},{"NoteNumber":67,"Velocity":61,"Duration":140915,"SoundDuration":140915,"Delta":43817360},{"NoteNumber":65,"Velocity":63,"Duration":140470,"SoundDuration":140470,"Delta":43945476},{"NoteNumber":64,"Velocity":60,"Duration":140720,"SoundDuration":140720,"Delta":44073202},{"NoteNumber":62,"Velocity":63,"Duration":141690,"SoundDuration":141690,"Delta":44201068},{"NoteNumber":60,"Velocity":62,"Duration":142637,"SoundDuration":142637,"Delta":44329849},{"NoteNumber":59,"Velocity":63,"Duration":143695,"SoundDuration":143695,"Delta":44459464},{"NoteNumber":43,"Velocity":45,"Duration":520771,"SoundDuration":520771,"Delta":44459464},{"NoteNumber":60,"Velocity":57,"Duration":142969,"SoundDuration":142969,"Delta":44590138},{"NoteNumber":62,"Velocity":63,"Duration":142088,"SoundDuration":142088,"Delta":44720142},{"NoteNumber":64,"Velocity":55,"Duration":144239,"SoundDuration":144239,"Delta":44849297},{"NoteNumber":65,"Velocity":62,"Duration":148295,"SoundDuration":148295,"Delta":44980236},{"NoteNumber":62,"Velocity":55,"Duration":151940,"SoundDuration":151940,"Delta":45114856},{"NoteNumber":60,"Velocity":71,"Duration":267403,"SoundDuration":267403,"Delta":45253426},{"NoteNumber":48,"Velocity":45,"Duration":267403,"SoundDuration":267403,"Delta":45253426},{"NoteNumber":52,"Velocity":38,"Duration":267403,"SoundDuration":267403,"Delta":45520830},{"NoteNumber":55,"Velocity":38,"Duration":274750,"SoundDuration":274750,"Delta":45788233},{"NoteNumber":67,"Velocity":42,"Duration":127453,"SoundDuration":127453,"Delta":46062984},{"NoteNumber":60,"Velocity":28,"Duration":514220,"SoundDuration":514220,"Delta":46062984},{"NoteNumber":65,"Velocity":39,"Duration":127453,"SoundDuration":127453,"Delta":46190437},{"NoteNumber":64,"Velocity":42,"Duration":129656,"SoundDuration":129656,"Delta":46317891},{"NoteNumber":64,"Velocity":39,"Duration":136749,"SoundDuration":136749,"Delta":46577204},{"NoteNumber":69,"Velocity":42,"Duration":127453,"SoundDuration":127453,"Delta":46850702},{"NoteNumber":60,"Velocity":28,"Duration":515346,"SoundDuration":515346,"Delta":46850702},{"NoteNumber":67,"Velocity":39,"Duration":127453,"SoundDuration":127453,"Delta":46978156},{"NoteNumber":65,"Velocity":42,"Duration":130219,"SoundDuration":130219,"Delta":47105609},{"NoteNumber":65,"Velocity":39,"Duration":136749,"SoundDuration":136749,"Delta":47366049},{"NoteNumber":62,"Velocity":63,"Duration":130219,"SoundDuration":130219,"Delta":47639547},{"NoteNumber":60,"Velocity":45,"Duration":260439,"SoundDuration":260439,"Delta":47639547},{"NoteNumber":65,"Velocity":57,"Duration":130219,"SoundDuration":130219,"Delta":47769767},{"NoteNumber":71,"Velocity":63,"Duration":127453,"SoundDuration":127453,"Delta":47899986},{"NoteNumber":60,"Velocity":39,"Duration":254907,"SoundDuration":254907,"Delta":47899986},{"NoteNumber":65,"Velocity":55,"Duration":127453,"SoundDuration":127453,"Delta":48027440},{"NoteNumber":71,"Velocity":62,"Duration":127453,"SoundDuration":127453,"Delta":48154893},{"NoteNumber":60,"Velocity":39,"Duration":269377,"SoundDuration":269377,"Delta":48154893},{"NoteNumber":65,"Velocity":55,"Duration":141924,"SoundDuration":141924,"Delta":48282347},{"NoteNumber":64,"Velocity":63,"Duration":260439,"SoundDuration":260439,"Delta":48424271},{"NoteNumber":60,"Velocity":45,"Duration":260439,"SoundDuration":260439,"Delta":48424271},{"NoteNumber":55,"Velocity":39,"Duration":260439,"SoundDuration":260439,"Delta":48684711},{"NoteNumber":76,"Velocity":64,"Duration":130219,"SoundDuration":130219,"Delta":48945150},{"NoteNumber":52,"Velocity":39,"Duration":260781,"SoundDuration":260781,"Delta":48945150},{"NoteNumber":77,"Velocity":67,"Duration":130561,"SoundDuration":130561,"Delta":49075370},{"NoteNumber":79,"Velocity":71,"Duration":131073,"SoundDuration":131073,"Delta":49205932},{"NoteNumber":48,"Velocity":45,"Duration":261463,"SoundDuration":261463,"Delta":49205932},{"NoteNumber":77,"Velocity":66,"Duration":130390,"SoundDuration":130390,"Delta":49337006},{"NoteNumber":76,"Velocity":68,"Duration":129657,"SoundDuration":129657,"Delta":49467396},{"NoteNumber":50,"Velocity":39,"Duration":258590,"SoundDuration":258590,"Delta":49467396},{"NoteNumber":74,"Velocity":63,"Duration":128933,"SoundDuration":128933,"Delta":49597053},{"NoteNumber":72,"Velocity":65,"Duration":128923,"SoundDuration":128923,"Delta":49725986},{"NoteNumber":52,"Velocity":39,"Duration":258796,"SoundDuration":258796,"Delta":49725986},{"NoteNumber":71,"Velocity":63,"Duration":129872,"SoundDuration":129872,"Delta":49854910},{"NoteNumber":69,"Velocity":63,"Duration":131245,"SoundDuration":131245,"Delta":49984782},{"NoteNumber":53,"Velocity":47,"Duration":262343,"SoundDuration":262343,"Delta":49984782},{"NoteNumber":67,"Velocity":61,"Duration":131097,"SoundDuration":131097,"Delta":50116028},{"NoteNumber":65,"Velocity":63,"Duration":130683,"SoundDuration":130683,"Delta":50247126},{"NoteNumber":53,"Velocity":39,"Duration":260902,"SoundDuration":260902,"Delta":50247126},{"NoteNumber":64,"Velocity":60,"Duration":130219,"SoundDuration":130219,"Delta":50377809},{"NoteNumber":62,"Velocity":63,"Duration":129802,"SoundDuration":129802,"Delta":50508029},{"NoteNumber":53,"Velocity":39,"Duration":259203,"SoundDuration":259203,"Delta":50508029},{"NoteNumber":60,"Velocity":62,"Duration":129401,"SoundDuration":129401,"Delta":50637831},{"NoteNumber":59,"Velocity":63,"Duration":129289,"SoundDuration":129289,"Delta":50767232},{"NoteNumber":43,"Velocity":48,"Duration":259072,"SoundDuration":259072,"Delta":50767232},{"NoteNumber":60,"Velocity":57,"Duration":129783,"SoundDuration":129783,"Delta":50896522},{"NoteNumber":62,"Velocity":63,"Duration":130276,"SoundDuration":130276,"Delta":51026305},{"NoteNumber":43,"Velocity":41,"Duration":261063,"SoundDuration":261063,"Delta":51026305},{"NoteNumber":64,"Velocity":55,"Duration":130787,"SoundDuration":130787,"Delta":51156582},{"NoteNumber":65,"Velocity":62,"Duration":132144,"SoundDuration":132144,"Delta":51287369},{"NoteNumber":43,"Velocity":42,"Duration":266765,"SoundDuration":266765,"Delta":51287369},{"NoteNumber":62,"Velocity":55,"Duration":134620,"SoundDuration":134620,"Delta":51419514},{"NoteNumber":60,"Velocity":76,"Duration":266216,"SoundDuration":266216,"Delta":51554135},{"NoteNumber":48,"Velocity":53,"Duration":266216,"SoundDuration":266216,"Delta":51554135},{"NoteNumber":52,"Velocity":40,"Duration":272257,"SoundDuration":272257,"Delta":51820352},{"NoteNumber":55,"Velocity":40,"Duration":272256,"SoundDuration":272256,"Delta":52092609},{"NoteNumber":67,"Velocity":76,"Duration":267403,"SoundDuration":267403,"Delta":52364866},{"NoteNumber":64,"Velocity":69,"Duration":267403,"SoundDuration":267403,"Delta":52364866},{"NoteNumber":48,"Velocity":53,"Duration":267403,"SoundDuration":267403,"Delta":52364866},{"NoteNumber":52,"Velocity":40,"Duration":273497,"SoundDuration":273497,"Delta":52632269},{"NoteNumber":55,"Velocity":40,"Duration":273498,"SoundDuration":273498,"Delta":52905767},{"NoteNumber":67,"Velocity":69,"Duration":273498,"SoundDuration":273498,"Delta":53179265},{"NoteNumber":72,"Velocity":76,"Duration":273498,"SoundDuration":273498,"Delta":53179265},{"NoteNumber":64,"Velocity":69,"Duration":273498,"SoundDuration":273498,"Delta":53179265},{"NoteNumber":48,"Velocity":53,"Duration":273498,"SoundDuration":273498,"Delta":53179265},{"NoteNumber":52,"Velocity":40,"Duration":273497,"SoundDuration":273497,"Delta":53452763},{"NoteNumber":55,"Velocity":40,"Duration":290725,"SoundDuration":290725,"Delta":53726261},{"NoteNumber":79,"Velocity":76,"Duration":282512,"SoundDuration":282512,"Delta":54016987},{"NoteNumber":76,"Velocity":69,"Duration":282512,"SoundDuration":282512,"Delta":54016987},{"NoteNumber":48,"Velocity":53,"Duration":282512,"SoundDuration":282512,"Delta":54016987},{"NoteNumber":52,"Velocity":40,"Duration":282512,"SoundDuration":282512,"Delta":54299500},{"NoteNumber":55,"Velocity":40,"Duration":308673,"SoundDuration":308673,"Delta":54582012},{"NoteNumber":79,"Velocity":75,"Duration":617347,"SoundDuration":617347,"Delta":54890686},{"NoteNumber":84,"Velocity":83,"Duration":617347,"SoundDuration":617347,"Delta":54890686},{"NoteNumber":76,"Velocity":75,"Duration":617347,"SoundDuration":617347,"Delta":54890686},{"NoteNumber":48,"Velocity":53,"Duration":617347,"SoundDuration":617347,"Delta":54890686}],"license":{"name":"Creative Commons Attribution-ShareAlike 3.0 Germany","url":"http://creativecommons.org/licenses/by-sa/3.0/de/deed.en","text":"The MIDI, audio (MP3, OGG) and video files of Bernd Krueger are licensed under the cc-by-sa Germany License. This means that you can use and adapt the files, as long as you attribute the copyright holder.\n\nName: Bernd Krueger\nSource: http://www.piano-midi.de\n\nThe distribution or public playback of the files is only allowed under identical license conditions.\n\nThe scores are open source.","attribution":"MIDI files by Bernd Krueger (piano-midi.de)","attributionUrl":"http://www.piano-midi.de"}}