{"title":"Clementi: Sonatine Opus 36 Nr. 3, 3. Satz","artist":"Clementi","durationMs":79104,"midiSha256":"988ac15c9842e0c536d8ba675a63636d53be00e5dc7e3e2da0cc0c635d665dd1","midiObject":[{"NoteNumber":72,"Velocity":60,"Duration":720057,"SoundDuration":720057,"Delta":0},{"NoteNumber":60,"Velocity":34,"Duration":120009,"SoundDuration":120009,"Delta":0},{"NoteNumber":64,"Velocity":40,"Duration":120009,"SoundDuration":120009,"Delta":0},{"NoteNumber":64,"Velocity":36,"Duration":120009,"SoundDuration":120009,"Delta":240019},{"NoteNumber":60,"Velocity":30,"Duration":120009,"SoundDuration":120009,"Delta":240019},{"NoteNumber":64,"Velocity":36,"Duration":120009,"SoundDuration":120009,"Delta":480038},{"NoteNumber":60,"Velocity":30,"Duration":120009,"SoundDuration":120009,"Delta":480038},{"NoteNumber":76,"Velocity":56,"Duration":249107,"SoundDuration":249107,"Delta":720057},{"NoteNumber":64,"Velocity":36,"Duration":124553,"SoundDuration":124553,"Delta":720057},{"NoteNumber":60,"Velocity":30,"Duration":124553,"SoundDuration":124553,"Delta":720057},{"NoteNumber":74,"Velocity":60,"Duration":116740,"SoundDuration":116740,"Delta":969164},{"NoteNumber":60,"Velocity":34,"Duration":116740,"SoundDuration":116740,"Delta":969164},{"NoteNumber":65,"Velocity":40,"Duration":116740,"SoundDuration":116740,"Delta":969164},{"NoteNumber":72,"Velocity":57,"Duration":116740,"SoundDuration":116740,"Delta":1085905},{"NoteNumber":71,"Velocity":57,"Duration":116740,"SoundDuration":116740,"Delta":1202645},{"NoteNumber":65,"Velocity":37,"Duration":116740,"SoundDuration":116740,"Delta":1202645},{"NoteNumber":60,"Velocity":31,"Duration":116740,"SoundDuration":116740,"Delta":1202645},{"NoteNumber":74,"Velocity":57,"Duration":116740,"SoundDuration":116740,"Delta":1319386},{"NoteNumber":72,"Velocity":60,"Duration":119085,"SoundDuration":119085,"Delta":1436126},{"NoteNumber":64,"Velocity":37,"Duration":119085,"SoundDuration":119085,"Delta":1436126},{"NoteNumber":60,"Velocity":31,"Duration":119085,"SoundDuration":119085,"Delta":1436126},{"NoteNumber":64,"Velocity":37,"Duration":126082,"SoundDuration":126082,"Delta":1674297},{"NoteNumber":60,"Velocity":31,"Duration":126082,"SoundDuration":126082,"Delta":1674297},{"NoteNumber":72,"Velocity":60,"Duration":117656,"SoundDuration":117656,"Delta":1926462},{"NoteNumber":60,"Velocity":34,"Duration":117656,"SoundDuration":117656,"Delta":1926462},{"NoteNumber":64,"Velocity":40,"Duration":117656,"SoundDuration":117656,"Delta":1926462},{"NoteNumber":74,"Velocity":55,"Duration":117656,"SoundDuration":117656,"Delta":2044118},{"NoteNumber":72,"Velocity":55,"Duration":117656,"SoundDuration":117656,"Delta":2161774},{"NoteNumber":64,"Velocity":37,"Duration":117656,"SoundDuration":117656,"Delta":2161774},{"NoteNumber":60,"Velocity":31,"Duration":117656,"SoundDuration":117656,"Delta":2161774},{"NoteNumber":71,"Velocity":55,"Duration":122459,"SoundDuration":122459,"Delta":2279430},{"NoteNumber":72,"Velocity":60,"Duration":119057,"SoundDuration":119057,"Delta":2401889},{"NoteNumber":64,"Velocity":37,"Duration":119057,"SoundDuration":119057,"Delta":2401889},{"NoteNumber":60,"Velocity":31,"Duration":119057,"SoundDuration":119057,"Delta":2401889},{"NoteNumber":74,"Velocity":56,"Duration":119056,"SoundDuration":119056,"Delta":2520946},{"NoteNumber":76,"Velocity":58,"Duration":119540,"SoundDuration":119540,"Delta":2640003},{"NoteNumber":64,"Velocity":37,"Duration":119540,"SoundDuration":119540,"Delta":2640003},{"NoteNumber":60,"Velocity":31,"Duration":119540,"SoundDuration":119540,"Delta":2640003},{"NoteNumber":77,"Velocity":63,"Duration":128711,"SoundDuration":128711,"Delta":2759544},{"NoteNumber":79,"Velocity":68,"Duration":121133,"SoundDuration":121133,"Delta":2888255},{"NoteNumber":60,"Velocity":34,"Duration":121133,"SoundDuration":121133,"Delta":2888255},{"NoteNumber":64,"Velocity":40,"Duration":121133,"SoundDuration":121133,"Delta":2888255},{"NoteNumber":79,"Velocity":63,"Duration":121133,"SoundDuration":121133,"Delta":3130523},{"NoteNumber":64,"Velocity":38,"Duration":121133,"SoundDuration":121133,"Delta":3130523},{"NoteNumber":60,"Velocity":32,"Duration":121133,"SoundDuration":121133,"Delta":3130523},{"NoteNumber":79,"Velocity":60,"Duration":124285,"SoundDuration":124285,"Delta":3372791},{"NoteNumber":64,"Velocity":40,"Duration":124285,"SoundDuration":124285,"Delta":3372791},{"NoteNumber":60,"Velocity":34,"Duration":124285,"SoundDuration":124285,"Delta":3372791},{"NoteNumber":60,"Velocity":35,"Duration":124285,"SoundDuration":124285,"Delta":3621361},{"NoteNumber":64,"Velocity":42,"Duration":124285,"SoundDuration":124285,"Delta":3621361},{"NoteNumber":84,"Velocity":59,"Duration":116568,"SoundDuration":116568,"Delta":3869932},{"NoteNumber":60,"Velocity":34,"Duration":233136,"SoundDuration":233136,"Delta":3869932},{"NoteNumber":64,"Velocity":40,"Duration":233136,"SoundDuration":233136,"Delta":3869932},{"NoteNumber":86,"Velocity":61,"Duration":116568,"SoundDuration":116568,"Delta":3986500},{"NoteNumber":88,"Velocity":66,"Duration":116568,"SoundDuration":116568,"Delta":4103068},{"NoteNumber":86,"Velocity":63,"Duration":116568,"SoundDuration":116568,"Delta":4219636},{"NoteNumber":84,"Velocity":63,"Duration":116568,"SoundDuration":116568,"Delta":4336205},{"NoteNumber":83,"Velocity":62,"Duration":116568,"SoundDuration":116568,"Delta":4452773},{"NoteNumber":81,"Velocity":62,"Duration":116568,"SoundDuration":116568,"Delta":4569341},{"NoteNumber":79,"Velocity":61,"Duration":124553,"SoundDuration":124553,"Delta":4685909},{"NoteNumber":77,"Velocity":62,"Duration":116126,"SoundDuration":116126,"Delta":4810463},{"NoteNumber":59,"Velocity":34,"Duration":232251,"SoundDuration":232251,"Delta":4810463},{"NoteNumber":67,"Velocity":40,"Duration":232251,"SoundDuration":232251,"Delta":4810463},{"NoteNumber":83,"Velocity":65,"Duration":116125,"SoundDuration":116125,"Delta":4926589},{"NoteNumber":86,"Velocity":69,"Duration":116126,"SoundDuration":116126,"Delta":5042715},{"NoteNumber":84,"Velocity":66,"Duration":116125,"SoundDuration":116125,"Delta":5158841},{"NoteNumber":83,"Velocity":64,"Duration":116126,"SoundDuration":116126,"Delta":5274967},{"NoteNumber":81,"Velocity":63,"Duration":116125,"SoundDuration":116125,"Delta":5391093},{"NoteNumber":79,"Velocity":62,"Duration":116126,"SoundDuration":116126,"Delta":5507219},{"NoteNumber":77,"Velocity":59,"Duration":126082,"SoundDuration":126082,"Delta":5623345},{"NoteNumber":76,"Velocity":58,"Duration":115687,"SoundDuration":115687,"Delta":5749427},{"NoteNumber":60,"Velocity":34,"Duration":231374,"SoundDuration":231374,"Delta":5749427},{"NoteNumber":67,"Velocity":40,"Duration":231374,"SoundDuration":231374,"Delta":5749427},{"NoteNumber":79,"Velocity":58,"Duration":115687,"SoundDuration":115687,"Delta":5865114},{"NoteNumber":84,"Velocity":61,"Duration":115687,"SoundDuration":115687,"Delta":5980802},{"NoteNumber":83,"Velocity":62,"Duration":115687,"SoundDuration":115687,"Delta":6096489},{"NoteNumber":81,"Velocity":58,"Duration":115687,"SoundDuration":115687,"Delta":6212176},{"NoteNumber":79,"Velocity":57,"Duration":115687,"SoundDuration":115687,"Delta":6327863},{"NoteNumber":77,"Velocity":56,"Duration":115687,"SoundDuration":115687,"Delta":6443551},{"NoteNumber":76,"Velocity":54,"Duration":124487,"SoundDuration":124487,"Delta":6559238},{"NoteNumber":74,"Velocity":61,"Duration":239247,"SoundDuration":239247,"Delta":6683726},{"NoteNumber":55,"Velocity":46,"Duration":120667,"SoundDuration":120667,"Delta":6683726},{"NoteNumber":59,"Velocity":40,"Duration":118579,"SoundDuration":118579,"Delta":6804393},{"NoteNumber":62,"Velocity":40,"Duration":116640,"SoundDuration":116640,"Delta":6922973},{"NoteNumber":67,"Velocity":40,"Duration":114833,"SoundDuration":114833,"Delta":7039614},{"NoteNumber":79,"Velocity":59,"Duration":114762,"SoundDuration":114762,"Delta":7154447},{"NoteNumber":77,"Velocity":57,"Duration":117233,"SoundDuration":117233,"Delta":7269209},{"NoteNumber":76,"Velocity":55,"Duration":119965,"SoundDuration":119965,"Delta":7386443},{"NoteNumber":74,"Velocity":55,"Duration":122826,"SoundDuration":122826,"Delta":7506408},{"NoteNumber":72,"Velocity":60,"Duration":717245,"SoundDuration":717245,"Delta":7629235},{"NoteNumber":60,"Velocity":34,"Duration":119540,"SoundDuration":119540,"Delta":7629235},{"NoteNumber":64,"Velocity":40,"Duration":119540,"SoundDuration":119540,"Delta":7629235},{"NoteNumber":64,"Velocity":36,"Duration":119540,"SoundDuration":119540,"Delta":7868317},{"NoteNumber":60,"Velocity":30,"Duration":119540,"SoundDuration":119540,"Delta":7868317},{"NoteNumber":64,"Velocity":36,"Duration":119540,"SoundDuration":119540,"Delta":8107399},{"NoteNumber":60,"Velocity":30,"Duration":119540,"SoundDuration":119540,"Delta":8107399},{"NoteNumber":76,"Velocity":56,"Duration":248118,"SoundDuration":248118,"Delta":8346481},{"NoteNumber":64,"Velocity":36,"Duration":124059,"SoundDuration":124059,"Delta":8346481},{"NoteNumber":60,"Velocity":30,"Duration":124059,"SoundDuration":124059,"Delta":8346481},{"NoteNumber":74,"Velocity":60,"Duration":118399,"SoundDuration":118399,"Delta":8594599},{"NoteNumber":60,"Velocity":34,"Duration":118399,"SoundDuration":118399,"Delta":8594599},{"NoteNumber":65,"Velocity":40,"Duration":118399,"SoundDuration":118399,"Delta":8594599},{"NoteNumber":72,"Velocity":57,"Duration":118399,"SoundDuration":118399,"Delta":8712999},{"NoteNumber":71,"Velocity":57,"Duration":118399,"SoundDuration":118399,"Delta":8831398},{"NoteNumber":65,"Velocity":37,"Duration":118399,"SoundDuration":118399,"Delta":8831398},{"NoteNumber":60,"Velocity":31,"Duration":118399,"SoundDuration":118399,"Delta":8831398},{"NoteNumber":74,"Velocity":57,"Duration":118399,"SoundDuration":118399,"Delta":8949797},{"NoteNumber":72,"Velocity":60,"Duration":118399,"SoundDuration":118399,"Delta":9068196},{"NoteNumber":64,"Velocity":37,"Duration":118399,"SoundDuration":118399,"Delta":9068196},{"NoteNumber":60,"Velocity":31,"Duration":118399,"SoundDuration":118399,"Delta":9068196},{"NoteNumber":64,"Velocity":37,"Duration":124553,"SoundDuration":124553,"Delta":9304995},{"NoteNumber":60,"Velocity":31,"Duration":124553,"SoundDuration":124553,"Delta":9304995},{"NoteNumber":72,"Velocity":60,"Duration":116559,"SoundDuration":116559,"Delta":9554102},{"NoteNumber":60,"Velocity":34,"Duration":116559,"SoundDuration":116559,"Delta":9554102},{"NoteNumber":64,"Velocity":40,"Duration":116559,"SoundDuration":116559,"Delta":9554102},{"NoteNumber":74,"Velocity":55,"Duration":116559,"SoundDuration":116559,"Delta":9670662},{"NoteNumber":72,"Velocity":55,"Duration":116559,"SoundDuration":116559,"Delta":9787221},{"NoteNumber":64,"Velocity":37,"Duration":116559,"SoundDuration":116559,"Delta":9787221},{"NoteNumber":60,"Velocity":31,"Duration":116559,"SoundDuration":116559,"Delta":9787221},{"NoteNumber":71,"Velocity":55,"Duration":117013,"SoundDuration":117013,"Delta":9903780},{"NoteNumber":72,"Velocity":60,"Duration":119056,"SoundDuration":119056,"Delta":10020794},{"NoteNumber":64,"Velocity":37,"Duration":119056,"SoundDuration":119056,"Delta":10020794},{"NoteNumber":60,"Velocity":31,"Duration":119056,"SoundDuration":119056,"Delta":10020794},{"NoteNumber":74,"Velocity":56,"Duration":119056,"SoundDuration":119056,"Delta":10139851},{"NoteNumber":76,"Velocity":58,"Duration":119265,"SoundDuration":119265,"Delta":10258908},{"NoteNumber":64,"Velocity":37,"Duration":119265,"SoundDuration":119265,"Delta":10258908},{"NoteNumber":60,"Velocity":31,"Duration":119265,"SoundDuration":119265,"Delta":10258908},{"NoteNumber":77,"Velocity":63,"Duration":133143,"SoundDuration":133143,"Delta":10378173},{"NoteNumber":79,"Velocity":68,"Duration":122090,"SoundDuration":122090,"Delta":10511317},{"NoteNumber":60,"Velocity":34,"Duration":122090,"SoundDuration":122090,"Delta":10511317},{"NoteNumber":64,"Velocity":40,"Duration":122090,"SoundDuration":122090,"Delta":10511317},{"NoteNumber":79,"Velocity":63,"Duration":122090,"SoundDuration":122090,"Delta":10755498},{"NoteNumber":64,"Velocity":38,"Duration":122090,"SoundDuration":122090,"Delta":10755498},{"NoteNumber":60,"Velocity":32,"Duration":122090,"SoundDuration":122090,"Delta":10755498},{"NoteNumber":79,"Velocity":60,"Duration":124802,"SoundDuration":124802,"Delta":10999678},{"NoteNumber":64,"Velocity":40,"Duration":124802,"SoundDuration":124802,"Delta":10999678},{"NoteNumber":60,"Velocity":34,"Duration":124802,"SoundDuration":124802,"Delta":10999678},{"NoteNumber":60,"Velocity":35,"Duration":124802,"SoundDuration":124802,"Delta":11249283},{"NoteNumber":64,"Velocity":42,"Duration":124802,"SoundDuration":124802,"Delta":11249283},{"NoteNumber":84,"Velocity":59,"Duration":118802,"SoundDuration":118802,"Delta":11498888},{"NoteNumber":60,"Velocity":34,"Duration":237605,"SoundDuration":237605,"Delta":11498888},{"NoteNumber":64,"Velocity":40,"Duration":237605,"SoundDuration":237605,"Delta":11498888},{"NoteNumber":86,"Velocity":61,"Duration":118802,"SoundDuration":118802,"Delta":11617691},{"NoteNumber":88,"Velocity":66,"Duration":118802,"SoundDuration":118802,"Delta":11736493},{"NoteNumber":86,"Velocity":63,"Duration":118802,"SoundDuration":118802,"Delta":11855296},{"NoteNumber":84,"Velocity":63,"Duration":118802,"SoundDuration":118802,"Delta":11974098},{"NoteNumber":83,"Velocity":62,"Duration":118802,"SoundDuration":118802,"Delta":12092901},{"NoteNumber":81,"Velocity":62,"Duration":118802,"SoundDuration":118802,"Delta":12211703},{"NoteNumber":80,"Velocity":61,"Duration":129243,"SoundDuration":129243,"Delta":12330506},{"NoteNumber":81,"Velocity":62,"Duration":118352,"SoundDuration":118352,"Delta":12459749},{"NoteNumber":53,"Velocity":34,"Duration":236705,"SoundDuration":236705,"Delta":12459749},{"NoteNumber":65,"Velocity":40,"Duration":236705,"SoundDuration":236705,"Delta":12459749},{"NoteNumber":83,"Velocity":65,"Duration":118352,"SoundDuration":118352,"Delta":12578102},{"NoteNumber":84,"Velocity":69,"Duration":118352,"SoundDuration":118352,"Delta":12696454},{"NoteNumber":83,"Velocity":66,"Duration":118352,"SoundDuration":118352,"Delta":12814807},{"NoteNumber":81,"Velocity":64,"Duration":118352,"SoundDuration":118352,"Delta":12933159},{"NoteNumber":79,"Velocity":63,"Duration":118352,"SoundDuration":118352,"Delta":13051512},{"NoteNumber":77,"Velocity":62,"Duration":118352,"SoundDuration":118352,"Delta":13169864},{"NoteNumber":76,"Velocity":59,"Duration":128711,"SoundDuration":128711,"Delta":13288217},{"NoteNumber":74,"Velocity":63,"Duration":122094,"SoundDuration":122094,"Delta":13416928},{"NoteNumber":55,"Velocity":34,"Duration":242525,"SoundDuration":242525,"Delta":13416928},{"NoteNumber":59,"Velocity":40,"Duration":242525,"SoundDuration":242525,"Delta":13416928},{"NoteNumber":72,"Velocity":59,"Duration":120430,"SoundDuration":120430,"Delta":13539023},{"NoteNumber":71,"Velocity":58,"Duration":118730,"SoundDuration":118730,"Delta":13659453},{"NoteNumber":69,"Velocity":58,"Duration":117157,"SoundDuration":117157,"Delta":13778184},{"NoteNumber":67,"Velocity":57,"Duration":118052,"SoundDuration":118052,"Delta":13895341},{"NoteNumber":65,"Velocity":57,"Duration":120353,"SoundDuration":120353,"Delta":14013393},{"NoteNumber":64,"Velocity":56,"Duration":122745,"SoundDuration":122745,"Delta":14133747},{"NoteNumber":62,"Velocity":59,"Duration":125234,"SoundDuration":125234,"Delta":14256493},{"NoteNumber":60,"Velocity":61,"Duration":238682,"SoundDuration":238682,"Delta":14381727},{"NoteNumber":48,"Velocity":46,"Duration":238682,"SoundDuration":238682,"Delta":14381727},{"NoteNumber":52,"Velocity":34,"Duration":119341,"SoundDuration":119341,"Delta":14620409},{"NoteNumber":55,"Velocity":40,"Duration":119341,"SoundDuration":119341,"Delta":14620409},{"NoteNumber":52,"Velocity":34,"Duration":119341,"SoundDuration":119341,"Delta":14859092},{"NoteNumber":55,"Velocity":41,"Duration":119341,"SoundDuration":119341,"Delta":14859092},{"NoteNumber":52,"Velocity":34,"Duration":127648,"SoundDuration":127648,"Delta":15097774},{"NoteNumber":55,"Velocity":41,"Duration":127648,"SoundDuration":127648,"Delta":15097774},{"NoteNumber":67,"Velocity":62,"Duration":730579,"SoundDuration":730579,"Delta":15353072},{"NoteNumber":47,"Velocity":55,"Duration":243526,"SoundDuration":243526,"Delta":15353072},{"NoteNumber":50,"Velocity":34,"Duration":121763,"SoundDuration":121763,"Delta":15596598},{"NoteNumber":55,"Velocity":40,"Duration":121763,"SoundDuration":121763,"Delta":15596598},{"NoteNumber":50,"Velocity":34,"Duration":121763,"SoundDuration":121763,"Delta":15840125},{"NoteNumber":55,"Velocity":41,"Duration":121763,"SoundDuration":121763,"Delta":15840125},{"NoteNumber":67,"Velocity":42,"Duration":251129,"SoundDuration":251129,"Delta":16083651},{"NoteNumber":50,"Velocity":34,"Duration":125565,"SoundDuration":125565,"Delta":16083651},{"NoteNumber":55,"Velocity":41,"Duration":125565,"SoundDuration":125565,"Delta":16083651},{"NoteNumber":69,"Velocity":50,"Duration":114828,"SoundDuration":114828,"Delta":16334781},{"NoteNumber":48,"Velocity":46,"Duration":229656,"SoundDuration":229656,"Delta":16334781},{"NoteNumber":67,"Velocity":41,"Duration":114828,"SoundDuration":114828,"Delta":16449610},{"NoteNumber":65,"Velocity":41,"Duration":114828,"SoundDuration":114828,"Delta":16564438},{"NoteNumber":52,"Velocity":34,"Duration":114828,"SoundDuration":114828,"Delta":16564438},{"NoteNumber":55,"Velocity":40,"Duration":114828,"SoundDuration":114828,"Delta":16564438},{"NoteNumber":64,"Velocity":41,"Duration":138517,"SoundDuration":138517,"Delta":16679266},{"NoteNumber":64,"Velocity":47,"Duration":486036,"SoundDuration":486036,"Delta":16817783},{"NoteNumber":52,"Velocity":34,"Duration":117453,"SoundDuration":117453,"Delta":16817783},{"NoteNumber":55,"Velocity":41,"Duration":117453,"SoundDuration":117453,"Delta":16817783},{"NoteNumber":52,"Velocity":34,"Duration":125565,"SoundDuration":125565,"Delta":17052690},{"NoteNumber":55,"Velocity":41,"Duration":125565,"SoundDuration":125565,"Delta":17052690},{"NoteNumber":62,"Velocity":46,"Duration":117453,"SoundDuration":117453,"Delta":17303820},{"NoteNumber":47,"Velocity":46,"Duration":234906,"SoundDuration":234906,"Delta":17303820},{"NoteNumber":62,"Velocity":42,"Duration":117453,"SoundDuration":117453,"Delta":17538727},{"NoteNumber":50,"Velocity":34,"Duration":117453,"SoundDuration":117453,"Delta":17538727},{"NoteNumber":55,"Velocity":40,"Duration":117453,"SoundDuration":117453,"Delta":17538727},{"NoteNumber":64,"Velocity":42,"Duration":117453,"SoundDuration":117453,"Delta":17656181},{"NoteNumber":65,"Velocity":46,"Duration":91934,"SoundDuration":91934,"Delta":17773634},{"NoteNumber":50,"Velocity":34,"Duration":91934,"SoundDuration":91934,"Delta":17773634},{"NoteNumber":55,"Velocity":41,"Duration":91934,"SoundDuration":91934,"Delta":17773634},{"NoteNumber":67,"Velocity":41,"Duration":98520,"SoundDuration":98520,"Delta":18018792},{"NoteNumber":50,"Velocity":34,"Duration":98520,"SoundDuration":98520,"Delta":18018792},{"NoteNumber":55,"Velocity":41,"Duration":98520,"SoundDuration":98520,"Delta":18018792},{"NoteNumber":65,"Velocity":46,"Duration":492287,"SoundDuration":492287,"Delta":18281512},{"NoteNumber":48,"Velocity":46,"Duration":246143,"SoundDuration":246143,"Delta":18281512},{"NoteNumber":52,"Velocity":28,"Duration":123071,"SoundDuration":123071,"Delta":18527656},{"NoteNumber":55,"Velocity":34,"Duration":123071,"SoundDuration":123071,"Delta":18527656},{"NoteNumber":64,"Velocity":43,"Duration":246143,"SoundDuration":246143,"Delta":18773799},{"NoteNumber":52,"Velocity":28,"Duration":123071,"SoundDuration":123071,"Delta":18773799},{"NoteNumber":55,"Velocity":34,"Duration":123071,"SoundDuration":123071,"Delta":18773799},{"NoteNumber":52,"Velocity":28,"Duration":123071,"SoundDuration":123071,"Delta":19019943},{"NoteNumber":55,"Velocity":34,"Duration":123071,"SoundDuration":123071,"Delta":19019943},{"NoteNumber":67,"Velocity":62,"Duration":713209,"SoundDuration":713209,"Delta":19266086},{"NoteNumber":47,"Velocity":55,"Duration":237736,"SoundDuration":237736,"Delta":19266086},{"NoteNumber":50,"Velocity":34,"Duration":118868,"SoundDuration":118868,"Delta":19503823},{"NoteNumber":55,"Velocity":40,"Duration":118868,"SoundDuration":118868,"Delta":19503823},{"NoteNumber":50,"Velocity":34,"Duration":118868,"SoundDuration":118868,"Delta":19741559},{"NoteNumber":55,"Velocity":41,"Duration":118868,"SoundDuration":118868,"Delta":19741559},{"NoteNumber":67,"Velocity":42,"Duration":244518,"SoundDuration":244518,"Delta":19979296},{"NoteNumber":50,"Velocity":34,"Duration":122259,"SoundDuration":122259,"Delta":19979296},{"NoteNumber":55,"Velocity":41,"Duration":122259,"SoundDuration":122259,"Delta":19979296},{"NoteNumber":69,"Velocity":50,"Duration":120192,"SoundDuration":120192,"Delta":20223814},{"NoteNumber":48,"Velocity":46,"Duration":240384,"SoundDuration":240384,"Delta":20223814},{"NoteNumber":67,"Velocity":41,"Duration":120192,"SoundDuration":120192,"Delta":20344006},{"NoteNumber":65,"Velocity":41,"Duration":123467,"SoundDuration":123467,"Delta":20464199},{"NoteNumber":52,"Velocity":34,"Duration":123467,"SoundDuration":123467,"Delta":20464199},{"NoteNumber":55,"Velocity":40,"Duration":123467,"SoundDuration":123467,"Delta":20464199},{"NoteNumber":64,"Velocity":41,"Duration":135488,"SoundDuration":135488,"Delta":20587666},{"NoteNumber":76,"Velocity":65,"Duration":478926,"SoundDuration":478926,"Delta":20723155},{"NoteNumber":52,"Velocity":38,"Duration":119731,"SoundDuration":119731,"Delta":20723155},{"NoteNumber":55,"Velocity":49,"Duration":119731,"SoundDuration":119731,"Delta":20723155},{"NoteNumber":52,"Velocity":34,"Duration":119731,"SoundDuration":119731,"Delta":20962618},{"NoteNumber":55,"Velocity":41,"Duration":119731,"SoundDuration":119731,"Delta":20962618},{"NoteNumber":66,"Velocity":52,"Duration":117453,"SoundDuration":117453,"Delta":21202082},{"NoteNumber":50,"Velocity":52,"Duration":234906,"SoundDuration":234906,"Delta":21202082},{"NoteNumber":66,"Velocity":48,"Duration":117453,"SoundDuration":117453,"Delta":21436989},{"NoteNumber":57,"Velocity":39,"Duration":117453,"SoundDuration":117453,"Delta":21436989},{"NoteNumber":60,"Velocity":46,"Duration":117453,"SoundDuration":117453,"Delta":21436989},{"NoteNumber":67,"Velocity":48,"Duration":117453,"SoundDuration":117453,"Delta":21554442},{"NoteNumber":69,"Velocity":52,"Duration":126379,"SoundDuration":126379,"Delta":21671896},{"NoteNumber":57,"Velocity":39,"Duration":126379,"SoundDuration":126379,"Delta":21671896},{"NoteNumber":60,"Velocity":47,"Duration":126379,"SoundDuration":126379,"Delta":21671896},{"NoteNumber":74,"Velocity":47,"Duration":100725,"SoundDuration":100725,"Delta":21924655},{"NoteNumber":57,"Velocity":39,"Duration":100725,"SoundDuration":100725,"Delta":21924655},{"NoteNumber":60,"Velocity":47,"Duration":100725,"SoundDuration":100725,"Delta":21924655},{"NoteNumber":67,"Velocity":52,"Duration":246143,"SoundDuration":246143,"Delta":22193256},{"NoteNumber":55,"Velocity":52,"Duration":246143,"SoundDuration":246143,"Delta":22193256},{"NoteNumber":59,"Velocity":35,"Duration":123071,"SoundDuration":123071,"Delta":22439399},{"NoteNumber":62,"Velocity":41,"Duration":123071,"SoundDuration":123071,"Delta":22439399},{"NoteNumber":59,"Velocity":35,"Duration":127453,"SoundDuration":127453,"Delta":22685543},{"NoteNumber":62,"Velocity":42,"Duration":127453,"SoundDuration":127453,"Delta":22685543},{"NoteNumber":59,"Velocity":35,"Duration":127453,"SoundDuration":127453,"Delta":22940450},{"NoteNumber":62,"Velocity":42,"Duration":127453,"SoundDuration":127453,"Delta":22940450},{"NoteNumber":74,"Velocity":70,"Duration":120192,"SoundDuration":120192,"Delta":23195357},{"NoteNumber":54,"Velocity":64,"Duration":240384,"SoundDuration":240384,"Delta":23195357},{"NoteNumber":86,"Velocity":62,"Duration":120192,"SoundDuration":120192,"Delta":23315549},{"NoteNumber":74,"Velocity":71,"Duration":120192,"SoundDuration":120192,"Delta":23435741},{"NoteNumber":62,"Velocity":49,"Duration":120192,"SoundDuration":120192,"Delta":23435741},{"NoteNumber":57,"Velocity":41,"Duration":120192,"SoundDuration":120192,"Delta":23435741},{"NoteNumber":86,"Velocity":62,"Duration":120192,"SoundDuration":120192,"Delta":23555933},{"NoteNumber":74,"Velocity":67,"Duration":117453,"SoundDuration":117453,"Delta":23676126},{"NoteNumber":62,"Velocity":41,"Duration":117453,"SoundDuration":117453,"Delta":23676126},{"NoteNumber":57,"Velocity":34,"Duration":117453,"SoundDuration":117453,"Delta":23676126},{"NoteNumber":74,"Velocity":47,"Duration":125565,"SoundDuration":125565,"Delta":23911033},{"NoteNumber":57,"Velocity":28,"Duration":125565,"SoundDuration":125565,"Delta":23911033},{"NoteNumber":62,"Velocity":34,"Duration":125565,"SoundDuration":125565,"Delta":23911033},{"NoteNumber":76,"Velocity":50,"Duration":114828,"SoundDuration":114828,"Delta":24162163},{"NoteNumber":55,"Velocity":46,"Duration":229656,"SoundDuration":229656,"Delta":24162163},{"NoteNumber":74,"Velocity":41,"Duration":114828,"SoundDuration":114828,"Delta":24276991},{"NoteNumber":72,"Velocity":41,"Duration":114828,"SoundDuration":114828,"Delta":24391819},{"NoteNumber":59,"Velocity":34,"Duration":114828,"SoundDuration":114828,"Delta":24391819},{"NoteNumber":62,"Velocity":40,"Duration":114828,"SoundDuration":114828,"Delta":24391819},{"NoteNumber":71,"Velocity":41,"Duration":138517,"SoundDuration":138517,"Delta":24506647},{"NoteNumber":71,"Velocity":47,"Duration":486036,"SoundDuration":486036,"Delta":24645164},{"NoteNumber":59,"Velocity":28,"Duration":117453,"SoundDuration":117453,"Delta":24645164},{"NoteNumber":62,"Velocity":34,"Duration":117453,"SoundDuration":117453,"Delta":24645164},{"NoteNumber":59,"Velocity":28,"Duration":125565,"SoundDuration":125565,"Delta":24880071},{"NoteNumber":62,"Velocity":34,"Duration":125565,"SoundDuration":125565,"Delta":24880071},{"NoteNumber":69,"Velocity":46,"Duration":117453,"SoundDuration":117453,"Delta":25131201},{"NoteNumber":54,"Velocity":46,"Duration":234906,"SoundDuration":234906,"Delta":25131201},{"NoteNumber":69,"Velocity":42,"Duration":117453,"SoundDuration":117453,"Delta":25366108},{"NoteNumber":57,"Velocity":34,"Duration":117453,"SoundDuration":117453,"Delta":25366108},{"NoteNumber":62,"Velocity":40,"Duration":117453,"SoundDuration":117453,"Delta":25366108},{"NoteNumber":71,"Velocity":42,"Duration":117453,"SoundDuration":117453,"Delta":25483562},{"NoteNumber":72,"Velocity":46,"Duration":94784,"SoundDuration":94784,"Delta":25601015},{"NoteNumber":57,"Velocity":34,"Duration":94784,"SoundDuration":94784,"Delta":25601015},{"NoteNumber":62,"Velocity":41,"Duration":94784,"SoundDuration":94784,"Delta":25601015},{"NoteNumber":74,"Velocity":41,"Duration":97343,"SoundDuration":97343,"Delta":25853775},{"NoteNumber":57,"Velocity":34,"Duration":97343,"SoundDuration":97343,"Delta":25853775},{"NoteNumber":62,"Velocity":41,"Duration":97343,"SoundDuration":97343,"Delta":25853775},{"NoteNumber":72,"Velocity":46,"Duration":492287,"SoundDuration":492287,"Delta":26113358},{"NoteNumber":55,"Velocity":46,"Duration":246143,"SoundDuration":246143,"Delta":26113358},{"NoteNumber":59,"Velocity":28,"Duration":123071,"SoundDuration":123071,"Delta":26359501},{"NoteNumber":62,"Velocity":34,"Duration":123071,"SoundDuration":123071,"Delta":26359501},{"NoteNumber":71,"Velocity":43,"Duration":252759,"SoundDuration":252759,"Delta":26605645},{"NoteNumber":59,"Velocity":23,"Duration":126379,"SoundDuration":126379,"Delta":26605645},{"NoteNumber":62,"Velocity":28,"Duration":126379,"SoundDuration":126379,"Delta":26605645},{"NoteNumber":59,"Velocity":23,"Duration":126379,"SoundDuration":126379,"Delta":26858404},{"NoteNumber":62,"Velocity":28,"Duration":126379,"SoundDuration":126379,"Delta":26858404},{"NoteNumber":86,"Velocity":70,"Duration":120665,"SoundDuration":120665,"Delta":27111164},{"NoteNumber":54,"Velocity":64,"Duration":241331,"SoundDuration":241331,"Delta":27111164},{"NoteNumber":74,"Velocity":62,"Duration":120665,"SoundDuration":120665,"Delta":27231830},{"NoteNumber":86,"Velocity":71,"Duration":120665,"SoundDuration":120665,"Delta":27352496},{"NoteNumber":62,"Velocity":49,"Duration":120665,"SoundDuration":120665,"Delta":27352496},{"NoteNumber":57,"Velocity":41,"Duration":120665,"SoundDuration":120665,"Delta":27352496},{"NoteNumber":74,"Velocity":62,"Duration":120665,"SoundDuration":120665,"Delta":27473162},{"NoteNumber":86,"Velocity":73,"Duration":117004,"SoundDuration":117004,"Delta":27593828},{"NoteNumber":62,"Velocity":41,"Duration":117004,"SoundDuration":117004,"Delta":27593828},{"NoteNumber":57,"Velocity":34,"Duration":117004,"SoundDuration":117004,"Delta":27593828},{"NoteNumber":86,"Velocity":57,"Duration":125565,"SoundDuration":125565,"Delta":27827837},{"NoteNumber":57,"Velocity":28,"Duration":125565,"SoundDuration":125565,"Delta":27827837},{"NoteNumber":62,"Velocity":34,"Duration":125565,"SoundDuration":125565,"Delta":27827837},{"NoteNumber":86,"Velocity":59,"Duration":116568,"SoundDuration":116568,"Delta":28078967},{"NoteNumber":55,"Velocity":41,"Duration":233136,"SoundDuration":233136,"Delta":28078967},{"NoteNumber":59,"Velocity":41,"Duration":233136,"SoundDuration":233136,"Delta":28078967},{"NoteNumber":62,"Velocity":49,"Duration":233136,"SoundDuration":233136,"Delta":28078967},{"NoteNumber":88,"Velocity":58,"Duration":116568,"SoundDuration":116568,"Delta":28195536},{"NoteNumber":86,"Velocity":57,"Duration":116568,"SoundDuration":116568,"Delta":28312104},{"NoteNumber":84,"Velocity":55,"Duration":127118,"SoundDuration":127118,"Delta":28428672},{"NoteNumber":83,"Velocity":51,"Duration":116126,"SoundDuration":116126,"Delta":28555791},{"NoteNumber":84,"Velocity":49,"Duration":116125,"SoundDuration":116125,"Delta":28671917},{"NoteNumber":83,"Velocity":48,"Duration":116126,"SoundDuration":116126,"Delta":28788043},{"NoteNumber":81,"Velocity":45,"Duration":125062,"SoundDuration":125062,"Delta":28904169},{"NoteNumber":79,"Velocity":50,"Duration":116126,"SoundDuration":116126,"Delta":29029231},{"NoteNumber":67,"Velocity":39,"Duration":116126,"SoundDuration":116126,"Delta":29029231},{"NoteNumber":64,"Velocity":33,"Duration":116126,"SoundDuration":116126,"Delta":29029231},{"NoteNumber":81,"Velocity":45,"Duration":116125,"SoundDuration":116125,"Delta":29145357},{"NoteNumber":79,"Velocity":45,"Duration":116126,"SoundDuration":116126,"Delta":29261483},{"NoteNumber":78,"Velocity":45,"Duration":116126,"SoundDuration":116126,"Delta":29377609},{"NoteNumber":79,"Velocity":50,"Duration":116125,"SoundDuration":116125,"Delta":29493735},{"NoteNumber":60,"Velocity":29,"Duration":116125,"SoundDuration":116125,"Delta":29493735},{"NoteNumber":64,"Velocity":35,"Duration":116125,"SoundDuration":116125,"Delta":29493735},{"NoteNumber":81,"Velocity":46,"Duration":116126,"SoundDuration":116126,"Delta":29609861},{"NoteNumber":79,"Velocity":46,"Duration":116126,"SoundDuration":116126,"Delta":29725987},{"NoteNumber":78,"Velocity":46,"Duration":128711,"SoundDuration":128711,"Delta":29842113},{"NoteNumber":79,"Velocity":50,"Duration":116420,"SoundDuration":116420,"Delta":29970825},{"NoteNumber":59,"Velocity":29,"Duration":116420,"SoundDuration":116420,"Delta":29970825},{"NoteNumber":62,"Velocity":35,"Duration":116420,"SoundDuration":116420,"Delta":29970825},{"NoteNumber":81,"Velocity":47,"Duration":116199,"SoundDuration":116199,"Delta":30087245},{"NoteNumber":83,"Velocity":49,"Duration":115616,"SoundDuration":115616,"Delta":30203445},{"NoteNumber":84,"Velocity":52,"Duration":115044,"SoundDuration":115044,"Delta":30319061},{"NoteNumber":86,"Velocity":56,"Duration":115330,"SoundDuration":115330,"Delta":30434106},{"NoteNumber":84,"Velocity":54,"Duration":116126,"SoundDuration":116126,"Delta":30549436},{"NoteNumber":83,"Velocity":51,"Duration":116934,"SoundDuration":116934,"Delta":30665563},{"NoteNumber":81,"Velocity":49,"Duration":128172,"SoundDuration":128172,"Delta":30782497},{"NoteNumber":79,"Velocity":50,"Duration":116126,"SoundDuration":116126,"Delta":30910669},{"NoteNumber":67,"Velocity":39,"Duration":116126,"SoundDuration":116126,"Delta":30910669},{"NoteNumber":64,"Velocity":33,"Duration":116126,"SoundDuration":116126,"Delta":30910669},{"NoteNumber":81,"Velocity":45,"Duration":116125,"SoundDuration":116125,"Delta":31026795},{"NoteNumber":79,"Velocity":45,"Duration":116126,"SoundDuration":116126,"Delta":31142921},{"NoteNumber":78,"Velocity":45,"Duration":116126,"SoundDuration":116126,"Delta":31259047},{"NoteNumber":79,"Velocity":50,"Duration":116125,"SoundDuration":116125,"Delta":31375173},{"NoteNumber":60,"Velocity":29,"Duration":116125,"SoundDuration":116125,"Delta":31375173},{"NoteNumber":64,"Velocity":35,"Duration":116125,"SoundDuration":116125,"Delta":31375173},{"NoteNumber":81,"Velocity":46,"Duration":116126,"SoundDuration":116126,"Delta":31491299},{"NoteNumber":79,"Velocity":46,"Duration":116126,"SoundDuration":116126,"Delta":31607425},{"NoteNumber":78,"Velocity":46,"Duration":128711,"SoundDuration":128711,"Delta":31723551},{"NoteNumber":79,"Velocity":50,"Duration":116420,"SoundDuration":116420,"Delta":31852262},{"NoteNumber":59,"Velocity":29,"Duration":116420,"SoundDuration":116420,"Delta":31852262},{"NoteNumber":62,"Velocity":35,"Duration":116420,"SoundDuration":116420,"Delta":31852262},{"NoteNumber":81,"Velocity":47,"Duration":116199,"SoundDuration":116199,"Delta":31968683},{"NoteNumber":83,"Velocity":49,"Duration":115616,"SoundDuration":115616,"Delta":32084883},{"NoteNumber":84,"Velocity":52,"Duration":115044,"SoundDuration":115044,"Delta":32200499},{"NoteNumber":86,"Velocity":56,"Duration":115330,"SoundDuration":115330,"Delta":32315543},{"NoteNumber":84,"Velocity":54,"Duration":116126,"SoundDuration":116126,"Delta":32430874},{"NoteNumber":83,"Velocity":51,"Duration":116934,"SoundDuration":116934,"Delta":32547001},{"NoteNumber":81,"Velocity":49,"Duration":128172,"SoundDuration":128172,"Delta":32663935},{"NoteNumber":79,"Velocity":60,"Duration":116126,"SoundDuration":116126,"Delta":32792107},{"NoteNumber":52,"Velocity":36,"Duration":116126,"SoundDuration":116126,"Delta":32792107},{"NoteNumber":55,"Velocity":43,"Duration":116126,"SoundDuration":116126,"Delta":32792107},{"NoteNumber":81,"Velocity":49,"Duration":116126,"SoundDuration":116126,"Delta":32908233},{"NoteNumber":79,"Velocity":49,"Duration":116125,"SoundDuration":116125,"Delta":33024359},{"NoteNumber":78,"Velocity":49,"Duration":116126,"SoundDuration":116126,"Delta":33140485},{"NoteNumber":79,"Velocity":64,"Duration":116126,"SoundDuration":116126,"Delta":33256611},{"NoteNumber":52,"Velocity":49,"Duration":116126,"SoundDuration":116126,"Delta":33256611},{"NoteNumber":48,"Velocity":41,"Duration":116126,"SoundDuration":116126,"Delta":33256611},{"NoteNumber":81,"Velocity":55,"Duration":116126,"SoundDuration":116126,"Delta":33372737},{"NoteNumber":79,"Velocity":60,"Duration":116126,"SoundDuration":116126,"Delta":33488863},{"NoteNumber":78,"Velocity":64,"Duration":128711,"SoundDuration":128711,"Delta":33604989},{"NoteNumber":79,"Velocity":69,"Duration":118802,"SoundDuration":118802,"Delta":33733700},{"NoteNumber":47,"Velocity":54,"Duration":118802,"SoundDuration":118802,"Delta":33733700},{"NoteNumber":50,"Velocity":64,"Duration":118802,"SoundDuration":118802,"Delta":33733700},{"NoteNumber":83,"Velocity":58,"Duration":118802,"SoundDuration":118802,"Delta":33852503},{"NoteNumber":79,"Velocity":58,"Duration":118802,"SoundDuration":118802,"Delta":33971305},{"NoteNumber":74,"Velocity":58,"Duration":129243,"SoundDuration":129243,"Delta":34090108},{"NoteNumber":74,"Velocity":71,"Duration":118802,"SoundDuration":118802,"Delta":34219351},{"NoteNumber":55,"Velocity":55,"Duration":118802,"SoundDuration":118802,"Delta":34219351},{"NoteNumber":50,"Velocity":46,"Duration":118802,"SoundDuration":118802,"Delta":34219351},{"NoteNumber":47,"Velocity":46,"Duration":118802,"SoundDuration":118802,"Delta":34219351},{"NoteNumber":79,"Velocity":58,"Duration":118802,"SoundDuration":118802,"Delta":34338154},{"NoteNumber":74,"Velocity":58,"Duration":118802,"SoundDuration":118802,"Delta":34456956},{"NoteNumber":71,"Velocity":58,"Duration":129791,"SoundDuration":129791,"Delta":34575759},{"NoteNumber":71,"Velocity":72,"Duration":121614,"SoundDuration":121614,"Delta":34705550},{"NoteNumber":47,"Velocity":54,"Duration":121614,"SoundDuration":121614,"Delta":34705550},{"NoteNumber":50,"Velocity":54,"Duration":121614,"SoundDuration":121614,"Delta":34705550},{"NoteNumber":55,"Velocity":64,"Duration":121614,"SoundDuration":121614,"Delta":34705550},{"NoteNumber":74,"Velocity":58,"Duration":121614,"SoundDuration":121614,"Delta":34827165},{"NoteNumber":71,"Velocity":58,"Duration":121615,"SoundDuration":121615,"Delta":34948780},{"NoteNumber":67,"Velocity":58,"Duration":141696,"SoundDuration":141696,"Delta":35070395},{"NoteNumber":67,"Velocity":71,"Duration":132007,"SoundDuration":132007,"Delta":35212092},{"NoteNumber":55,"Velocity":58,"Duration":132007,"SoundDuration":132007,"Delta":35212092},{"NoteNumber":50,"Velocity":49,"Duration":132007,"SoundDuration":132007,"Delta":35212092},{"NoteNumber":47,"Velocity":49,"Duration":132007,"SoundDuration":132007,"Delta":35212092},{"NoteNumber":71,"Velocity":58,"Duration":132007,"SoundDuration":132007,"Delta":35344099},{"NoteNumber":67,"Velocity":58,"Duration":132007,"SoundDuration":132007,"Delta":35476107},{"NoteNumber":62,"Velocity":58,"Duration":175520,"SoundDuration":175520,"Delta":35608114},{"NoteNumber":64,"Velocity":72,"Duration":292141,"SoundDuration":292141,"Delta":35783635},{"NoteNumber":48,"Velocity":54,"Duration":292141,"SoundDuration":292141,"Delta":35783635},{"NoteNumber":55,"Velocity":64,"Duration":292141,"SoundDuration":292141,"Delta":35783635},{"NoteNumber":72,"Velocity":71,"Duration":118802,"SoundDuration":118802,"Delta":36367918},{"NoteNumber":57,"Velocity":55,"Duration":118802,"SoundDuration":118802,"Delta":36367918},{"NoteNumber":48,"Velocity":46,"Duration":118802,"SoundDuration":118802,"Delta":36367918},{"NoteNumber":76,"Velocity":58,"Duration":118802,"SoundDuration":118802,"Delta":36486721},{"NoteNumber":72,"Velocity":58,"Duration":118802,"SoundDuration":118802,"Delta":36605523},{"NoteNumber":69,"Velocity":58,"Duration":129791,"SoundDuration":129791,"Delta":36724326},{"NoteNumber":67,"Velocity":71,"Duration":127118,"SoundDuration":127118,"Delta":36854117},{"NoteNumber":50,"Velocity":46,"Duration":127118,"SoundDuration":127118,"Delta":36854117},{"NoteNumber":59,"Velocity":55,"Duration":127118,"SoundDuration":127118,"Delta":36854117},{"NoteNumber":67,"Velocity":67,"Duration":127118,"SoundDuration":127118,"Delta":37108355},{"NoteNumber":69,"Velocity":71,"Duration":118802,"SoundDuration":118802,"Delta":37362592},{"NoteNumber":60,"Velocity":55,"Duration":118802,"SoundDuration":118802,"Delta":37362592},{"NoteNumber":50,"Velocity":46,"Duration":118802,"SoundDuration":118802,"Delta":37362592},{"NoteNumber":72,"Velocity":58,"Duration":118802,"SoundDuration":118802,"Delta":37481395},{"NoteNumber":69,"Velocity":58,"Duration":118802,"SoundDuration":118802,"Delta":37600197},{"NoteNumber":66,"Velocity":58,"Duration":129791,"SoundDuration":129791,"Delta":37719000},{"NoteNumber":67,"Velocity":71,"Duration":127118,"SoundDuration":127118,"Delta":37848791},{"NoteNumber":55,"Velocity":46,"Duration":1030163,"SoundDuration":1030163,"Delta":37848791},{"NoteNumber":59,"Velocity":55,"Duration":1030163,"SoundDuration":1030163,"Delta":37848791},{"NoteNumber":67,"Velocity":58,"Duration":127118,"SoundDuration":127118,"Delta":38103029},{"NoteNumber":79,"Velocity":66,"Duration":127118,"SoundDuration":127118,"Delta":38357266},{"NoteNumber":79,"Velocity":56,"Duration":133725,"SoundDuration":133725,"Delta":38611504},{"NoteNumber":69,"Velocity":67,"Duration":127118,"SoundDuration":127118,"Delta":38878955},{"NoteNumber":55,"Velocity":35,"Duration":1062261,"SoundDuration":1062261,"Delta":38878955},{"NoteNumber":60,"Velocity":42,"Duration":1062261,"SoundDuration":1062261,"Delta":38878955},{"NoteNumber":69,"Velocity":48,"Duration":127118,"SoundDuration":127118,"Delta":39133192},{"NoteNumber":81,"Velocity":59,"Duration":129791,"SoundDuration":129791,"Delta":39387430},{"NoteNumber":81,"Velocity":38,"Duration":147101,"SoundDuration":147101,"Delta":39647013},{"NoteNumber":71,"Velocity":50,"Duration":139769,"SoundDuration":139769,"Delta":39941217},{"NoteNumber":62,"Velocity":26,"Duration":1165001,"SoundDuration":1165001,"Delta":39941217},{"NoteNumber":55,"Velocity":22,"Duration":1165001,"SoundDuration":1165001,"Delta":39941217},{"NoteNumber":71,"Velocity":35,"Duration":139769,"SoundDuration":139769,"Delta":40220755},{"NoteNumber":83,"Velocity":49,"Duration":148514,"SoundDuration":148514,"Delta":40500293},{"NoteNumber":83,"Velocity":34,"Duration":154448,"SoundDuration":154448,"Delta":40797322},{"NoteNumber":67,"Velocity":30,"Duration":253344,"SoundDuration":253344,"Delta":41359404},{"NoteNumber":66,"Velocity":34,"Duration":255637,"SoundDuration":255637,"Delta":41612748},{"NoteNumber":67,"Velocity":36,"Duration":257054,"SoundDuration":257054,"Delta":41868386},{"NoteNumber":68,"Velocity":36,"Duration":259281,"SoundDuration":259281,"Delta":42125440},{"NoteNumber":69,"Velocity":30,"Duration":262957,"SoundDuration":262957,"Delta":42384722},{"NoteNumber":70,"Velocity":36,"Duration":276935,"SoundDuration":276935,"Delta":42647679},{"NoteNumber":71,"Velocity":29,"Duration":299909,"SoundDuration":299909,"Delta":42924614},{"NoteNumber":72,"Velocity":60,"Duration":733555,"SoundDuration":733555,"Delta":43224524},{"NoteNumber":60,"Velocity":34,"Duration":122259,"SoundDuration":122259,"Delta":43224524},{"NoteNumber":64,"Velocity":40,"Duration":122259,"SoundDuration":122259,"Delta":43224524},{"NoteNumber":64,"Velocity":36,"Duration":122259,"SoundDuration":122259,"Delta":43469043},{"NoteNumber":60,"Velocity":30,"Duration":122259,"SoundDuration":122259,"Delta":43469043},{"NoteNumber":64,"Velocity":36,"Duration":122259,"SoundDuration":122259,"Delta":43713561},{"NoteNumber":60,"Velocity":30,"Duration":122259,"SoundDuration":122259,"Delta":43713561},{"NoteNumber":76,"Velocity":56,"Duration":251699,"SoundDuration":251699,"Delta":43958080},{"NoteNumber":64,"Velocity":36,"Duration":125849,"SoundDuration":125849,"Delta":43958080},{"NoteNumber":60,"Velocity":30,"Duration":125849,"SoundDuration":125849,"Delta":43958080},{"NoteNumber":74,"Velocity":60,"Duration":117013,"SoundDuration":117013,"Delta":44209779},{"NoteNumber":60,"Velocity":34,"Duration":117013,"SoundDuration":117013,"Delta":44209779},{"NoteNumber":65,"Velocity":40,"Duration":117013,"SoundDuration":117013,"Delta":44209779},{"NoteNumber":72,"Velocity":57,"Duration":117013,"SoundDuration":117013,"Delta":44326792},{"NoteNumber":71,"Velocity":57,"Duration":118868,"SoundDuration":118868,"Delta":44443806},{"NoteNumber":65,"Velocity":37,"Duration":118868,"SoundDuration":118868,"Delta":44443806},{"NoteNumber":60,"Velocity":31,"Duration":118868,"SoundDuration":118868,"Delta":44443806},{"NoteNumber":74,"Velocity":57,"Duration":118868,"SoundDuration":118868,"Delta":44562674},{"NoteNumber":72,"Velocity":60,"Duration":119341,"SoundDuration":119341,"Delta":44681543},{"NoteNumber":64,"Velocity":37,"Duration":119341,"SoundDuration":119341,"Delta":44681543},{"NoteNumber":60,"Velocity":31,"Duration":119341,"SoundDuration":119341,"Delta":44681543},{"NoteNumber":64,"Velocity":37,"Duration":123263,"SoundDuration":123263,"Delta":44920225},{"NoteNumber":60,"Velocity":31,"Duration":123263,"SoundDuration":123263,"Delta":44920225},{"NoteNumber":72,"Velocity":60,"Duration":117013,"SoundDuration":117013,"Delta":45166753},{"NoteNumber":60,"Velocity":34,"Duration":117013,"SoundDuration":117013,"Delta":45166753},{"NoteNumber":64,"Velocity":40,"Duration":117013,"SoundDuration":117013,"Delta":45166753},{"NoteNumber":74,"Velocity":55,"Duration":117013,"SoundDuration":117013,"Delta":45283767},{"NoteNumber":72,"Velocity":55,"Duration":117013,"SoundDuration":117013,"Delta":45400781},{"NoteNumber":64,"Velocity":37,"Duration":117013,"SoundDuration":117013,"Delta":45400781},{"NoteNumber":60,"Velocity":31,"Duration":117013,"SoundDuration":117013,"Delta":45400781},{"NoteNumber":71,"Velocity":55,"Duration":118119,"SoundDuration":118119,"Delta":45517794},{"NoteNumber":72,"Velocity":60,"Duration":118119,"SoundDuration":118119,"Delta":45635914},{"NoteNumber":64,"Velocity":37,"Duration":118119,"SoundDuration":118119,"Delta":45635914},{"NoteNumber":60,"Velocity":31,"Duration":118119,"SoundDuration":118119,"Delta":45635914},{"NoteNumber":74,"Velocity":56,"Duration":118119,"SoundDuration":118119,"Delta":45754033},{"NoteNumber":76,"Velocity":58,"Duration":119540,"SoundDuration":119540,"Delta":45872153},{"NoteNumber":64,"Velocity":37,"Duration":119540,"SoundDuration":119540,"Delta":45872153},{"NoteNumber":60,"Velocity":31,"Duration":119540,"SoundDuration":119540,"Delta":45872153},{"NoteNumber":77,"Velocity":63,"Duration":128711,"SoundDuration":128711,"Delta":45991694},{"NoteNumber":79,"Velocity":68,"Duration":121133,"SoundDuration":121133,"Delta":46120405},{"NoteNumber":60,"Velocity":34,"Duration":121133,"SoundDuration":121133,"Delta":46120405},{"NoteNumber":64,"Velocity":40,"Duration":121133,"SoundDuration":121133,"Delta":46120405},{"NoteNumber":79,"Velocity":63,"Duration":121133,"SoundDuration":121133,"Delta":46362673},{"NoteNumber":64,"Velocity":38,"Duration":121133,"SoundDuration":121133,"Delta":46362673},{"NoteNumber":60,"Velocity":32,"Duration":121133,"SoundDuration":121133,"Delta":46362673},{"NoteNumber":79,"Velocity":60,"Duration":121133,"SoundDuration":121133,"Delta":46604940},{"NoteNumber":64,"Velocity":40,"Duration":121133,"SoundDuration":121133,"Delta":46604940},{"NoteNumber":60,"Velocity":34,"Duration":121133,"SoundDuration":121133,"Delta":46604940},{"NoteNumber":60,"Velocity":35,"Duration":121133,"SoundDuration":121133,"Delta":46847208},{"NoteNumber":64,"Velocity":42,"Duration":121133,"SoundDuration":121133,"Delta":46847208},{"NoteNumber":84,"Velocity":59,"Duration":116568,"SoundDuration":116568,"Delta":47089475},{"NoteNumber":60,"Velocity":34,"Duration":233136,"SoundDuration":233136,"Delta":47089475},{"NoteNumber":64,"Velocity":40,"Duration":233136,"SoundDuration":233136,"Delta":47089475},{"NoteNumber":86,"Velocity":61,"Duration":116568,"SoundDuration":116568,"Delta":47206043},{"NoteNumber":88,"Velocity":66,"Duration":116568,"SoundDuration":116568,"Delta":47322612},{"NoteNumber":86,"Velocity":63,"Duration":116568,"SoundDuration":116568,"Delta":47439180},{"NoteNumber":84,"Velocity":63,"Duration":116568,"SoundDuration":116568,"Delta":47555748},{"NoteNumber":83,"Velocity":62,"Duration":116568,"SoundDuration":116568,"Delta":47672316},{"NoteNumber":81,"Velocity":62,"Duration":116568,"SoundDuration":116568,"Delta":47788885},{"NoteNumber":79,"Velocity":61,"Duration":124553,"SoundDuration":124553,"Delta":47905453},{"NoteNumber":77,"Velocity":62,"Duration":116126,"SoundDuration":116126,"Delta":48030007},{"NoteNumber":59,"Velocity":34,"Duration":232252,"SoundDuration":232252,"Delta":48030007},{"NoteNumber":67,"Velocity":40,"Duration":232252,"SoundDuration":232252,"Delta":48030007},{"NoteNumber":83,"Velocity":65,"Duration":116126,"SoundDuration":116126,"Delta":48146133},{"NoteNumber":86,"Velocity":69,"Duration":116125,"SoundDuration":116125,"Delta":48262259},{"NoteNumber":84,"Velocity":66,"Duration":116126,"SoundDuration":116126,"Delta":48378385},{"NoteNumber":83,"Velocity":64,"Duration":116126,"SoundDuration":116126,"Delta":48494511},{"NoteNumber":81,"Velocity":63,"Duration":116126,"SoundDuration":116126,"Delta":48610637},{"NoteNumber":79,"Velocity":62,"Duration":116126,"SoundDuration":116126,"Delta":48726763},{"NoteNumber":77,"Velocity":59,"Duration":126082,"SoundDuration":126082,"Delta":48842889},{"NoteNumber":76,"Velocity":58,"Duration":115687,"SoundDuration":115687,"Delta":48968971},{"NoteNumber":60,"Velocity":34,"Duration":231374,"SoundDuration":231374,"Delta":48968971},{"NoteNumber":67,"Velocity":40,"Duration":231374,"SoundDuration":231374,"Delta":48968971},{"NoteNumber":79,"Velocity":58,"Duration":115687,"SoundDuration":115687,"Delta":49084658},{"NoteNumber":84,"Velocity":61,"Duration":115687,"SoundDuration":115687,"Delta":49200345},{"NoteNumber":83,"Velocity":62,"Duration":115687,"SoundDuration":115687,"Delta":49316033},{"NoteNumber":81,"Velocity":58,"Duration":115687,"SoundDuration":115687,"Delta":49431720},{"NoteNumber":79,"Velocity":57,"Duration":115687,"SoundDuration":115687,"Delta":49547407},{"NoteNumber":77,"Velocity":56,"Duration":115687,"SoundDuration":115687,"Delta":49663094},{"NoteNumber":76,"Velocity":54,"Duration":124487,"SoundDuration":124487,"Delta":49778782},{"NoteNumber":74,"Velocity":61,"Duration":239247,"SoundDuration":239247,"Delta":49903270},{"NoteNumber":55,"Velocity":46,"Duration":120667,"SoundDuration":120667,"Delta":49903270},{"NoteNumber":59,"Velocity":40,"Duration":118579,"SoundDuration":118579,"Delta":50023937},{"NoteNumber":62,"Velocity":40,"Duration":116640,"SoundDuration":116640,"Delta":50142517},{"NoteNumber":67,"Velocity":40,"Duration":114833,"SoundDuration":114833,"Delta":50259158},{"NoteNumber":79,"Velocity":59,"Duration":114762,"SoundDuration":114762,"Delta":50373991},{"NoteNumber":77,"Velocity":57,"Duration":117233,"SoundDuration":117233,"Delta":50488753},{"NoteNumber":76,"Velocity":55,"Duration":119965,"SoundDuration":119965,"Delta":50605987},{"NoteNumber":74,"Velocity":55,"Duration":122826,"SoundDuration":122826,"Delta":50725952},{"NoteNumber":72,"Velocity":60,"Duration":708995,"SoundDuration":708995,"Delta":50848778},{"NoteNumber":60,"Velocity":34,"Duration":118166,"SoundDuration":118166,"Delta":50848778},{"NoteNumber":64,"Velocity":40,"Duration":118166,"SoundDuration":118166,"Delta":50848778},{"NoteNumber":64,"Velocity":36,"Duration":118166,"SoundDuration":118166,"Delta":51085110},{"NoteNumber":60,"Velocity":30,"Duration":118166,"SoundDuration":118166,"Delta":51085110},{"NoteNumber":64,"Velocity":36,"Duration":118165,"SoundDuration":118165,"Delta":51321442},{"NoteNumber":60,"Velocity":30,"Duration":118165,"SoundDuration":118165,"Delta":51321442},{"NoteNumber":76,"Velocity":56,"Duration":248118,"SoundDuration":248118,"Delta":51557774},{"NoteNumber":64,"Velocity":36,"Duration":124059,"SoundDuration":124059,"Delta":51557774},{"NoteNumber":60,"Velocity":30,"Duration":124059,"SoundDuration":124059,"Delta":51557774},{"NoteNumber":74,"Velocity":60,"Duration":117471,"SoundDuration":117471,"Delta":51805893},{"NoteNumber":60,"Velocity":34,"Duration":117471,"SoundDuration":117471,"Delta":51805893},{"NoteNumber":65,"Velocity":40,"Duration":117471,"SoundDuration":117471,"Delta":51805893},{"NoteNumber":72,"Velocity":57,"Duration":117471,"SoundDuration":117471,"Delta":51923365},{"NoteNumber":71,"Velocity":57,"Duration":117471,"SoundDuration":117471,"Delta":52040837},{"NoteNumber":65,"Velocity":37,"Duration":117471,"SoundDuration":117471,"Delta":52040837},{"NoteNumber":60,"Velocity":31,"Duration":117471,"SoundDuration":117471,"Delta":52040837},{"NoteNumber":74,"Velocity":57,"Duration":117471,"SoundDuration":117471,"Delta":52158309},{"NoteNumber":72,"Velocity":60,"Duration":118623,"SoundDuration":118623,"Delta":52275781},{"NoteNumber":64,"Velocity":37,"Duration":118623,"SoundDuration":118623,"Delta":52275781},{"NoteNumber":60,"Velocity":31,"Duration":118623,"SoundDuration":118623,"Delta":52275781},{"NoteNumber":64,"Velocity":37,"Duration":124553,"SoundDuration":124553,"Delta":52513029},{"NoteNumber":60,"Velocity":31,"Duration":124553,"SoundDuration":124553,"Delta":52513029},{"NoteNumber":72,"Velocity":60,"Duration":116740,"SoundDuration":116740,"Delta":52762136},{"NoteNumber":60,"Velocity":34,"Duration":116740,"SoundDuration":116740,"Delta":52762136},{"NoteNumber":64,"Velocity":40,"Duration":116740,"SoundDuration":116740,"Delta":52762136},{"NoteNumber":74,"Velocity":55,"Duration":116740,"SoundDuration":116740,"Delta":52878877},{"NoteNumber":72,"Velocity":55,"Duration":116740,"SoundDuration":116740,"Delta":52995617},{"NoteNumber":64,"Velocity":37,"Duration":116740,"SoundDuration":116740,"Delta":52995617},{"NoteNumber":60,"Velocity":31,"Duration":116740,"SoundDuration":116740,"Delta":52995617},{"NoteNumber":71,"Velocity":55,"Duration":116740,"SoundDuration":116740,"Delta":53112358},{"NoteNumber":72,"Velocity":60,"Duration":118119,"SoundDuration":118119,"Delta":53229098},{"NoteNumber":64,"Velocity":37,"Duration":118119,"SoundDuration":118119,"Delta":53229098},{"NoteNumber":60,"Velocity":31,"Duration":118119,"SoundDuration":118119,"Delta":53229098},{"NoteNumber":74,"Velocity":56,"Duration":118119,"SoundDuration":118119,"Delta":53347218},{"NoteNumber":76,"Velocity":58,"Duration":119265,"SoundDuration":119265,"Delta":53465337},{"NoteNumber":64,"Velocity":37,"Duration":119265,"SoundDuration":119265,"Delta":53465337},{"NoteNumber":60,"Velocity":31,"Duration":119265,"SoundDuration":119265,"Delta":53465337},{"NoteNumber":77,"Velocity":63,"Duration":133144,"SoundDuration":133144,"Delta":53584603},{"NoteNumber":79,"Velocity":68,"Duration":122090,"SoundDuration":122090,"Delta":53717747},{"NoteNumber":60,"Velocity":34,"Duration":122090,"SoundDuration":122090,"Delta":53717747},{"NoteNumber":64,"Velocity":40,"Duration":122090,"SoundDuration":122090,"Delta":53717747},{"NoteNumber":79,"Velocity":63,"Duration":122090,"SoundDuration":122090,"Delta":53961927},{"NoteNumber":64,"Velocity":38,"Duration":122090,"SoundDuration":122090,"Delta":53961927},{"NoteNumber":60,"Velocity":32,"Duration":122090,"SoundDuration":122090,"Delta":53961927},{"NoteNumber":79,"Velocity":60,"Duration":122090,"SoundDuration":122090,"Delta":54206108},{"NoteNumber":64,"Velocity":40,"Duration":122090,"SoundDuration":122090,"Delta":54206108},{"NoteNumber":60,"Velocity":34,"Duration":122090,"SoundDuration":122090,"Delta":54206108},{"NoteNumber":60,"Velocity":35,"Duration":122090,"SoundDuration":122090,"Delta":54450288},{"NoteNumber":64,"Velocity":42,"Duration":122090,"SoundDuration":122090,"Delta":54450288},{"NoteNumber":84,"Velocity":59,"Duration":118802,"SoundDuration":118802,"Delta":54694469},{"NoteNumber":60,"Velocity":34,"Duration":237605,"SoundDuration":237605,"Delta":54694469},{"NoteNumber":64,"Velocity":40,"Duration":237605,"SoundDuration":237605,"Delta":54694469},{"NoteNumber":86,"Velocity":61,"Duration":118802,"SoundDuration":118802,"Delta":54813271},{"NoteNumber":88,"Velocity":66,"Duration":118802,"SoundDuration":118802,"Delta":54932074},{"NoteNumber":86,"Velocity":63,"Duration":118802,"SoundDuration":118802,"Delta":55050876},{"NoteNumber":84,"Velocity":63,"Duration":118802,"SoundDuration":118802,"Delta":55169679},{"NoteNumber":83,"Velocity":62,"Duration":118802,"SoundDuration":118802,"Delta":55288481},{"NoteNumber":81,"Velocity":62,"Duration":118802,"SoundDuration":118802,"Delta":55407284},{"NoteNumber":80,"Velocity":61,"Duration":129243,"SoundDuration":129243,"Delta":55526086},{"NoteNumber":81,"Velocity":62,"Duration":118352,"SoundDuration":118352,"Delta":55655330},{"NoteNumber":53,"Velocity":34,"Duration":236705,"SoundDuration":236705,"Delta":55655330},{"NoteNumber":65,"Velocity":40,"Duration":236705,"SoundDuration":236705,"Delta":55655330},{"NoteNumber":83,"Velocity":65,"Duration":118352,"SoundDuration":118352,"Delta":55773682},{"NoteNumber":84,"Velocity":69,"Duration":118352,"SoundDuration":118352,"Delta":55892035},{"NoteNumber":83,"Velocity":66,"Duration":118352,"SoundDuration":118352,"Delta":56010387},{"NoteNumber":81,"Velocity":64,"Duration":118352,"SoundDuration":118352,"Delta":56128740},{"NoteNumber":79,"Velocity":63,"Duration":118352,"SoundDuration":118352,"Delta":56247092},{"NoteNumber":77,"Velocity":62,"Duration":118352,"SoundDuration":118352,"Delta":56365445},{"NoteNumber":76,"Velocity":59,"Duration":128711,"SoundDuration":128711,"Delta":56483797},{"NoteNumber":74,"Velocity":63,"Duration":122094,"SoundDuration":122094,"Delta":56612508},{"NoteNumber":55,"Velocity":34,"Duration":242525,"SoundDuration":242525,"Delta":56612508},{"NoteNumber":59,"Velocity":40,"Duration":242525,"SoundDuration":242525,"Delta":56612508},{"NoteNumber":72,"Velocity":59,"Duration":120430,"SoundDuration":120430,"Delta":56734603},{"NoteNumber":71,"Velocity":58,"Duration":118730,"SoundDuration":118730,"Delta":56855034},{"NoteNumber":69,"Velocity":58,"Duration":117157,"SoundDuration":117157,"Delta":56973764},{"NoteNumber":67,"Velocity":57,"Duration":118052,"SoundDuration":118052,"Delta":57090922},{"NoteNumber":65,"Velocity":57,"Duration":120353,"SoundDuration":120353,"Delta":57208974},{"NoteNumber":64,"Velocity":56,"Duration":122745,"SoundDuration":122745,"Delta":57329328},{"NoteNumber":62,"Velocity":59,"Duration":125319,"SoundDuration":125319,"Delta":57452073},{"NoteNumber":60,"Velocity":61,"Duration":235793,"SoundDuration":235793,"Delta":57577393},{"NoteNumber":48,"Velocity":46,"Duration":235793,"SoundDuration":235793,"Delta":57577393},{"NoteNumber":52,"Velocity":34,"Duration":117896,"SoundDuration":117896,"Delta":57813186},{"NoteNumber":55,"Velocity":40,"Duration":117896,"SoundDuration":117896,"Delta":57813186},{"NoteNumber":52,"Velocity":34,"Duration":117896,"SoundDuration":117896,"Delta":58048980},{"NoteNumber":55,"Velocity":41,"Duration":117896,"SoundDuration":117896,"Delta":58048980},{"NoteNumber":52,"Velocity":34,"Duration":127648,"SoundDuration":127648,"Delta":58284773},{"NoteNumber":55,"Velocity":41,"Duration":127648,"SoundDuration":127648,"Delta":58284773},{"NoteNumber":67,"Velocity":62,"Duration":730579,"SoundDuration":730579,"Delta":58540071},{"NoteNumber":47,"Velocity":55,"Duration":243526,"SoundDuration":243526,"Delta":58540071},{"NoteNumber":50,"Velocity":34,"Duration":121763,"SoundDuration":121763,"Delta":58783597},{"NoteNumber":55,"Velocity":40,"Duration":121763,"SoundDuration":121763,"Delta":58783597},{"NoteNumber":50,"Velocity":34,"Duration":121763,"SoundDuration":121763,"Delta":59027124},{"NoteNumber":55,"Velocity":41,"Duration":121763,"SoundDuration":121763,"Delta":59027124},{"NoteNumber":67,"Velocity":42,"Duration":251130,"SoundDuration":251130,"Delta":59270650},{"NoteNumber":50,"Velocity":34,"Duration":125565,"SoundDuration":125565,"Delta":59270650},{"NoteNumber":55,"Velocity":41,"Duration":125565,"SoundDuration":125565,"Delta":59270650},{"NoteNumber":69,"Velocity":50,"Duration":114828,"SoundDuration":114828,"Delta":59521780},{"NoteNumber":48,"Velocity":46,"Duration":229656,"SoundDuration":229656,"Delta":59521780},{"NoteNumber":67,"Velocity":41,"Duration":114828,"SoundDuration":114828,"Delta":59636608},{"NoteNumber":65,"Velocity":41,"Duration":114828,"SoundDuration":114828,"Delta":59751437},{"NoteNumber":52,"Velocity":34,"Duration":114828,"SoundDuration":114828,"Delta":59751437},{"NoteNumber":55,"Velocity":40,"Duration":114828,"SoundDuration":114828,"Delta":59751437},{"NoteNumber":64,"Velocity":41,"Duration":138517,"SoundDuration":138517,"Delta":59866265},{"NoteNumber":64,"Velocity":47,"Duration":486037,"SoundDuration":486037,"Delta":60004782},{"NoteNumber":52,"Velocity":34,"Duration":117453,"SoundDuration":117453,"Delta":60004782},{"NoteNumber":55,"Velocity":41,"Duration":117453,"SoundDuration":117453,"Delta":60004782},{"NoteNumber":52,"Velocity":34,"Duration":125565,"SoundDuration":125565,"Delta":60239689},{"NoteNumber":55,"Velocity":41,"Duration":125565,"SoundDuration":125565,"Delta":60239689},{"NoteNumber":62,"Velocity":46,"Duration":117453,"SoundDuration":117453,"Delta":60490819},{"NoteNumber":47,"Velocity":46,"Duration":234906,"SoundDuration":234906,"Delta":60490819},{"NoteNumber":62,"Velocity":42,"Duration":117453,"SoundDuration":117453,"Delta":60725726},{"NoteNumber":50,"Velocity":34,"Duration":117453,"SoundDuration":117453,"Delta":60725726},{"NoteNumber":55,"Velocity":40,"Duration":117453,"SoundDuration":117453,"Delta":60725726},{"NoteNumber":64,"Velocity":42,"Duration":117453,"SoundDuration":117453,"Delta":60843179},{"NoteNumber":65,"Velocity":41,"Duration":92829,"SoundDuration":92829,"Delta":60960633},{"NoteNumber":50,"Velocity":30,"Duration":92829,"SoundDuration":92829,"Delta":60960633},{"NoteNumber":55,"Velocity":36,"Duration":92829,"SoundDuration":92829,"Delta":60960633},{"NoteNumber":67,"Velocity":36,"Duration":99831,"SoundDuration":99831,"Delta":61208178},{"NoteNumber":50,"Velocity":30,"Duration":99831,"SoundDuration":99831,"Delta":61208178},{"NoteNumber":55,"Velocity":36,"Duration":99831,"SoundDuration":99831,"Delta":61208178},{"NoteNumber":65,"Velocity":46,"Duration":492286,"SoundDuration":492286,"Delta":61474395},{"NoteNumber":48,"Velocity":46,"Duration":246143,"SoundDuration":246143,"Delta":61474395},{"NoteNumber":52,"Velocity":28,"Duration":123071,"SoundDuration":123071,"Delta":61720538},{"NoteNumber":55,"Velocity":34,"Duration":123071,"SoundDuration":123071,"Delta":61720538},{"NoteNumber":64,"Velocity":43,"Duration":246143,"SoundDuration":246143,"Delta":61966682},{"NoteNumber":52,"Velocity":28,"Duration":123071,"SoundDuration":123071,"Delta":61966682},{"NoteNumber":55,"Velocity":34,"Duration":123071,"SoundDuration":123071,"Delta":61966682},{"NoteNumber":52,"Velocity":28,"Duration":123071,"SoundDuration":123071,"Delta":62212825},{"NoteNumber":55,"Velocity":34,"Duration":123071,"SoundDuration":123071,"Delta":62212825},{"NoteNumber":72,"Velocity":56,"Duration":117453,"SoundDuration":117453,"Delta":62458969},{"NoteNumber":52,"Velocity":46,"Duration":234906,"SoundDuration":234906,"Delta":62458969},{"NoteNumber":72,"Velocity":50,"Duration":117453,"SoundDuration":117453,"Delta":62693876},{"NoteNumber":55,"Velocity":34,"Duration":117453,"SoundDuration":117453,"Delta":62693876},{"NoteNumber":60,"Velocity":40,"Duration":117453,"SoundDuration":117453,"Delta":62693876},{"NoteNumber":74,"Velocity":51,"Duration":117453,"SoundDuration":117453,"Delta":62811329},{"NoteNumber":76,"Velocity":60,"Duration":91934,"SoundDuration":91934,"Delta":62928783},{"NoteNumber":60,"Velocity":41,"Duration":91934,"SoundDuration":91934,"Delta":62928783},{"NoteNumber":55,"Velocity":34,"Duration":91934,"SoundDuration":91934,"Delta":62928783},{"NoteNumber":72,"Velocity":52,"Duration":97343,"SoundDuration":97343,"Delta":63173941},{"NoteNumber":55,"Velocity":34,"Duration":97343,"SoundDuration":97343,"Delta":63173941},{"NoteNumber":60,"Velocity":41,"Duration":97343,"SoundDuration":97343,"Delta":63173941},{"NoteNumber":69,"Velocity":56,"Duration":117453,"SoundDuration":117453,"Delta":63433524},{"NoteNumber":53,"Velocity":46,"Duration":234906,"SoundDuration":234906,"Delta":63433524},{"NoteNumber":81,"Velocity":50,"Duration":117453,"SoundDuration":117453,"Delta":63668431},{"NoteNumber":57,"Velocity":34,"Duration":117453,"SoundDuration":117453,"Delta":63668431},{"NoteNumber":62,"Velocity":40,"Duration":117453,"SoundDuration":117453,"Delta":63668431},{"NoteNumber":77,"Velocity":51,"Duration":117453,"SoundDuration":117453,"Delta":63785884},{"NoteNumber":74,"Velocity":56,"Duration":118868,"SoundDuration":118868,"Delta":63903338},{"NoteNumber":57,"Velocity":34,"Duration":118868,"SoundDuration":118868,"Delta":63903338},{"NoteNumber":62,"Velocity":41,"Duration":118868,"SoundDuration":118868,"Delta":63903338},{"NoteNumber":77,"Velocity":50,"Duration":120782,"SoundDuration":120782,"Delta":64141074},{"NoteNumber":62,"Velocity":41,"Duration":120782,"SoundDuration":120782,"Delta":64141074},{"NoteNumber":57,"Velocity":34,"Duration":120782,"SoundDuration":120782,"Delta":64141074},{"NoteNumber":74,"Velocity":51,"Duration":120782,"SoundDuration":120782,"Delta":64261857},{"NoteNumber":71,"Velocity":56,"Duration":117453,"SoundDuration":117453,"Delta":64382640},{"NoteNumber":55,"Velocity":46,"Duration":234907,"SoundDuration":234907,"Delta":64382640},{"NoteNumber":74,"Velocity":50,"Duration":117453,"SoundDuration":117453,"Delta":64617547},{"NoteNumber":65,"Velocity":40,"Duration":117453,"SoundDuration":117453,"Delta":64617547},{"NoteNumber":62,"Velocity":34,"Duration":117453,"SoundDuration":117453,"Delta":64617547},{"NoteNumber":71,"Velocity":51,"Duration":117453,"SoundDuration":117453,"Delta":64735000},{"NoteNumber":67,"Velocity":60,"Duration":122579,"SoundDuration":122579,"Delta":64852454},{"NoteNumber":65,"Velocity":36,"Duration":122579,"SoundDuration":122579,"Delta":64852454},{"NoteNumber":62,"Velocity":30,"Duration":122579,"SoundDuration":122579,"Delta":64852454},{"NoteNumber":71,"Velocity":52,"Duration":129791,"SoundDuration":129791,"Delta":65097612},{"NoteNumber":62,"Velocity":30,"Duration":129791,"SoundDuration":129791,"Delta":65097612},{"NoteNumber":65,"Velocity":36,"Duration":129791,"SoundDuration":129791,"Delta":65097612},{"NoteNumber":72,"Velocity":50,"Duration":129791,"SoundDuration":129791,"Delta":65357195},{"NoteNumber":60,"Velocity":40,"Duration":259582,"SoundDuration":259582,"Delta":65357195},{"NoteNumber":64,"Velocity":40,"Duration":259582,"SoundDuration":259582,"Delta":65357195},{"NoteNumber":71,"Velocity":42,"Duration":129791,"SoundDuration":129791,"Delta":65486986},{"NoteNumber":72,"Velocity":42,"Duration":129791,"SoundDuration":129791,"Delta":65616778},{"NoteNumber":76,"Velocity":51,"Duration":125760,"SoundDuration":125760,"Delta":65746569},{"NoteNumber":74,"Velocity":45,"Duration":123094,"SoundDuration":123094,"Delta":65872330},{"NoteNumber":72,"Velocity":47,"Duration":124345,"SoundDuration":124345,"Delta":65995424},{"NoteNumber":71,"Velocity":50,"Duration":125062,"SoundDuration":125062,"Delta":66119770},{"NoteNumber":69,"Velocity":52,"Duration":143678,"SoundDuration":143678,"Delta":66244832},{"NoteNumber":67,"Velocity":62,"Duration":721789,"SoundDuration":721789,"Delta":66388510},{"NoteNumber":47,"Velocity":55,"Duration":240596,"SoundDuration":240596,"Delta":66388510},{"NoteNumber":55,"Velocity":36,"Duration":120298,"SoundDuration":120298,"Delta":66629107},{"NoteNumber":50,"Velocity":30,"Duration":120298,"SoundDuration":120298,"Delta":66629107},{"NoteNumber":55,"Velocity":36,"Duration":120298,"SoundDuration":120298,"Delta":66869703},{"NoteNumber":50,"Velocity":30,"Duration":120298,"SoundDuration":120298,"Delta":66869703},{"NoteNumber":67,"Velocity":42,"Duration":251130,"SoundDuration":251130,"Delta":67110300},{"NoteNumber":50,"Velocity":30,"Duration":125564,"SoundDuration":125564,"Delta":67110300},{"NoteNumber":55,"Velocity":36,"Duration":125564,"SoundDuration":125564,"Delta":67110300},{"NoteNumber":69,"Velocity":50,"Duration":116831,"SoundDuration":116831,"Delta":67361430},{"NoteNumber":48,"Velocity":46,"Duration":233663,"SoundDuration":233663,"Delta":67361430},{"NoteNumber":67,"Velocity":41,"Duration":116831,"SoundDuration":116831,"Delta":67478261},{"NoteNumber":65,"Velocity":41,"Duration":116831,"SoundDuration":116831,"Delta":67595093},{"NoteNumber":52,"Velocity":34,"Duration":116831,"SoundDuration":116831,"Delta":67595093},{"NoteNumber":55,"Velocity":40,"Duration":116831,"SoundDuration":116831,"Delta":67595093},{"NoteNumber":64,"Velocity":41,"Duration":138516,"SoundDuration":138516,"Delta":67711924},{"NoteNumber":64,"Velocity":47,"Duration":486037,"SoundDuration":486037,"Delta":67850441},{"NoteNumber":52,"Velocity":34,"Duration":117453,"SoundDuration":117453,"Delta":67850441},{"NoteNumber":55,"Velocity":41,"Duration":117453,"SoundDuration":117453,"Delta":67850441},{"NoteNumber":52,"Velocity":34,"Duration":125564,"SoundDuration":125564,"Delta":68085348},{"NoteNumber":55,"Velocity":41,"Duration":125564,"SoundDuration":125564,"Delta":68085348},{"NoteNumber":62,"Velocity":46,"Duration":117453,"SoundDuration":117453,"Delta":68336478},{"NoteNumber":47,"Velocity":46,"Duration":234907,"SoundDuration":234907,"Delta":68336478},{"NoteNumber":62,"Velocity":42,"Duration":117453,"SoundDuration":117453,"Delta":68571385},{"NoteNumber":55,"Velocity":40,"Duration":117453,"SoundDuration":117453,"Delta":68571385},{"NoteNumber":50,"Velocity":34,"Duration":117453,"SoundDuration":117453,"Delta":68571385},{"NoteNumber":64,"Velocity":42,"Duration":117453,"SoundDuration":117453,"Delta":68688839},{"NoteNumber":65,"Velocity":41,"Duration":93601,"SoundDuration":93601,"Delta":68806292},{"NoteNumber":50,"Velocity":30,"Duration":93601,"SoundDuration":93601,"Delta":68806292},{"NoteNumber":55,"Velocity":36,"Duration":93601,"SoundDuration":93601,"Delta":68806292},{"NoteNumber":67,"Velocity":36,"Duration":99390,"SoundDuration":99390,"Delta":69055897},{"NoteNumber":50,"Velocity":30,"Duration":99390,"SoundDuration":99390,"Delta":69055897},{"NoteNumber":55,"Velocity":36,"Duration":99390,"SoundDuration":99390,"Delta":69055897},{"NoteNumber":65,"Velocity":46,"Duration":492287,"SoundDuration":492287,"Delta":69320938},{"NoteNumber":48,"Velocity":46,"Duration":246143,"SoundDuration":246143,"Delta":69320938},{"NoteNumber":52,"Velocity":28,"Duration":123071,"SoundDuration":123071,"Delta":69567082},{"NoteNumber":55,"Velocity":34,"Duration":123071,"SoundDuration":123071,"Delta":69567082},{"NoteNumber":64,"Velocity":43,"Duration":246143,"SoundDuration":246143,"Delta":69813225},{"NoteNumber":52,"Velocity":28,"Duration":123071,"SoundDuration":123071,"Delta":69813225},{"NoteNumber":55,"Velocity":34,"Duration":123071,"SoundDuration":123071,"Delta":69813225},{"NoteNumber":52,"Velocity":28,"Duration":123071,"SoundDuration":123071,"Delta":70059369},{"NoteNumber":55,"Velocity":34,"Duration":123071,"SoundDuration":123071,"Delta":70059369},{"NoteNumber":72,"Velocity":53,"Duration":120782,"SoundDuration":120782,"Delta":70305512},{"NoteNumber":52,"Velocity":46,"Duration":241565,"SoundDuration":241565,"Delta":70305512},{"NoteNumber":74,"Velocity":54,"Duration":120782,"SoundDuration":120782,"Delta":70426295},{"NoteNumber":76,"Velocity":55,"Duration":120782,"SoundDuration":120782,"Delta":70547078},{"NoteNumber":60,"Velocity":40,"Duration":120782,"SoundDuration":120782,"Delta":70547078},{"NoteNumber":55,"Velocity":34,"Duration":120782,"SoundDuration":120782,"Delta":70547078},{"NoteNumber":77,"Velocity":56,"Duration":120782,"SoundDuration":120782,"Delta":70667861},{"NoteNumber":79,"Velocity":58,"Duration":120782,"SoundDuration":120782,"Delta":70788643},{"NoteNumber":55,"Velocity":34,"Duration":120782,"SoundDuration":120782,"Delta":70788643},{"NoteNumber":60,"Velocity":41,"Duration":120782,"SoundDuration":120782,"Delta":70788643},{"NoteNumber":81,"Velocity":60,"Duration":120782,"SoundDuration":120782,"Delta":70909426},{"NoteNumber":83,"Velocity":60,"Duration":121270,"SoundDuration":121270,"Delta":71030209},{"NoteNumber":55,"Velocity":34,"Duration":121270,"SoundDuration":121270,"Delta":71030209},{"NoteNumber":60,"Velocity":41,"Duration":121270,"SoundDuration":121270,"Delta":71030209},{"NoteNumber":84,"Velocity":62,"Duration":121271,"SoundDuration":121271,"Delta":71151480},{"NoteNumber":81,"Velocity":63,"Duration":117453,"SoundDuration":117453,"Delta":71272751},{"NoteNumber":53,"Velocity":52,"Duration":234907,"SoundDuration":234907,"Delta":71272751},{"NoteNumber":81,"Velocity":48,"Duration":117453,"SoundDuration":117453,"Delta":71507658},{"NoteNumber":57,"Velocity":37,"Duration":117453,"SoundDuration":117453,"Delta":71507658},{"NoteNumber":62,"Velocity":44,"Duration":117453,"SoundDuration":117453,"Delta":71507658},{"NoteNumber":77,"Velocity":49,"Duration":117453,"SoundDuration":117453,"Delta":71625111},{"NoteNumber":74,"Velocity":53,"Duration":122579,"SoundDuration":122579,"Delta":71742565},{"NoteNumber":62,"Velocity":45,"Duration":122579,"SoundDuration":122579,"Delta":71742565},{"NoteNumber":57,"Velocity":37,"Duration":122579,"SoundDuration":122579,"Delta":71742565},{"NoteNumber":77,"Velocity":48,"Duration":129791,"SoundDuration":129791,"Delta":71987723},{"NoteNumber":57,"Velocity":37,"Duration":129791,"SoundDuration":129791,"Delta":71987723},{"NoteNumber":62,"Velocity":45,"Duration":129791,"SoundDuration":129791,"Delta":71987723},{"NoteNumber":74,"Velocity":49,"Duration":129791,"SoundDuration":129791,"Delta":72117514},{"NoteNumber":71,"Velocity":53,"Duration":117453,"SoundDuration":117453,"Delta":72247306},{"NoteNumber":55,"Velocity":50,"Duration":234907,"SoundDuration":234907,"Delta":72247306},{"NoteNumber":74,"Velocity":48,"Duration":117453,"SoundDuration":117453,"Delta":72482213},{"NoteNumber":65,"Velocity":44,"Duration":117453,"SoundDuration":117453,"Delta":72482213},{"NoteNumber":62,"Velocity":37,"Duration":117453,"SoundDuration":117453,"Delta":72482213},{"NoteNumber":71,"Velocity":49,"Duration":117453,"SoundDuration":117453,"Delta":72599666},{"NoteNumber":67,"Velocity":58,"Duration":122579,"SoundDuration":122579,"Delta":72717120},{"NoteNumber":62,"Velocity":33,"Duration":122579,"SoundDuration":122579,"Delta":72717120},{"NoteNumber":65,"Velocity":39,"Duration":122579,"SoundDuration":122579,"Delta":72717120},{"NoteNumber":71,"Velocity":50,"Duration":129791,"SoundDuration":129791,"Delta":72962278},{"NoteNumber":65,"Velocity":39,"Duration":129791,"SoundDuration":129791,"Delta":72962278},{"NoteNumber":62,"Velocity":33,"Duration":129791,"SoundDuration":129791,"Delta":72962278},{"NoteNumber":72,"Velocity":41,"Duration":121763,"SoundDuration":121763,"Delta":73221861},{"NoteNumber":64,"Velocity":33,"Duration":121763,"SoundDuration":121763,"Delta":73221861},{"NoteNumber":67,"Velocity":39,"Duration":121763,"SoundDuration":121763,"Delta":73221861},{"NoteNumber":74,"Velocity":34,"Duration":121763,"SoundDuration":121763,"Delta":73343624},{"NoteNumber":72,"Velocity":34,"Duration":121763,"SoundDuration":121763,"Delta":73465387},{"NoteNumber":71,"Velocity":34,"Duration":121763,"SoundDuration":121763,"Delta":73587151},{"NoteNumber":72,"Velocity":41,"Duration":121763,"SoundDuration":121763,"Delta":73708914},{"NoteNumber":74,"Velocity":33,"Duration":121763,"SoundDuration":121763,"Delta":73830677},{"NoteNumber":72,"Velocity":33,"Duration":121763,"SoundDuration":121763,"Delta":73952440},{"NoteNumber":71,"Velocity":33,"Duration":128545,"SoundDuration":128545,"Delta":74074204},{"NoteNumber":72,"Velocity":41,"Duration":120782,"SoundDuration":120782,"Delta":74202749},{"NoteNumber":67,"Velocity":39,"Duration":120782,"SoundDuration":120782,"Delta":74202749},{"NoteNumber":64,"Velocity":33,"Duration":120782,"SoundDuration":120782,"Delta":74202749},{"NoteNumber":74,"Velocity":34,"Duration":120782,"SoundDuration":120782,"Delta":74323532},{"NoteNumber":72,"Velocity":34,"Duration":120782,"SoundDuration":120782,"Delta":74444315},{"NoteNumber":71,"Velocity":34,"Duration":120782,"SoundDuration":120782,"Delta":74565098},{"NoteNumber":72,"Velocity":41,"Duration":123772,"SoundDuration":123772,"Delta":74685880},{"NoteNumber":62,"Velocity":31,"Duration":123772,"SoundDuration":123772,"Delta":74685880},{"NoteNumber":65,"Velocity":31,"Duration":123772,"SoundDuration":123772,"Delta":74685880},{"NoteNumber":74,"Velocity":33,"Duration":123772,"SoundDuration":123772,"Delta":74809653},{"NoteNumber":72,"Velocity":33,"Duration":123772,"SoundDuration":123772,"Delta":74933425},{"NoteNumber":71,"Velocity":33,"Duration":127453,"SoundDuration":127453,"Delta":75057198},{"NoteNumber":72,"Velocity":41,"Duration":118868,"SoundDuration":118868,"Delta":75184651},{"NoteNumber":64,"Velocity":39,"Duration":118868,"SoundDuration":118868,"Delta":75184651},{"NoteNumber":60,"Velocity":33,"Duration":118868,"SoundDuration":118868,"Delta":75184651},{"NoteNumber":74,"Velocity":34,"Duration":118868,"SoundDuration":118868,"Delta":75303520},{"NoteNumber":72,"Velocity":34,"Duration":118868,"SoundDuration":118868,"Delta":75422388},{"NoteNumber":71,"Velocity":34,"Duration":118868,"SoundDuration":118868,"Delta":75541256},{"NoteNumber":72,"Velocity":41,"Duration":120782,"SoundDuration":120782,"Delta":75660124},{"NoteNumber":74,"Velocity":33,"Duration":120782,"SoundDuration":120782,"Delta":75780907},{"NoteNumber":72,"Velocity":33,"Duration":120782,"SoundDuration":120782,"Delta":75901690},{"NoteNumber":71,"Velocity":33,"Duration":128711,"SoundDuration":128711,"Delta":76022473},{"NoteNumber":72,"Velocity":41,"Duration":121270,"SoundDuration":121270,"Delta":76151184},{"NoteNumber":55,"Velocity":39,"Duration":121270,"SoundDuration":121270,"Delta":76151184},{"NoteNumber":52,"Velocity":33,"Duration":121270,"SoundDuration":121270,"Delta":76151184},{"NoteNumber":74,"Velocity":34,"Duration":121270,"SoundDuration":121270,"Delta":76272455},{"NoteNumber":72,"Velocity":34,"Duration":121271,"SoundDuration":121271,"Delta":76393726},{"NoteNumber":71,"Velocity":34,"Duration":121270,"SoundDuration":121270,"Delta":76514997},{"NoteNumber":72,"Velocity":41,"Duration":123772,"SoundDuration":123772,"Delta":76636268},{"NoteNumber":50,"Velocity":31,"Duration":123772,"SoundDuration":123772,"Delta":76636268},{"NoteNumber":53,"Velocity":31,"Duration":123772,"SoundDuration":123772,"Delta":76636268},{"NoteNumber":74,"Velocity":33,"Duration":123772,"SoundDuration":123772,"Delta":76760040},{"NoteNumber":72,"Velocity":33,"Duration":123772,"SoundDuration":123772,"Delta":76883813},{"NoteNumber":71,"Velocity":33,"Duration":130219,"SoundDuration":130219,"Delta":77007585},{"NoteNumber":72,"Velocity":41,"Duration":117933,"SoundDuration":117933,"Delta":77137805},{"NoteNumber":52,"Velocity":39,"Duration":117933,"SoundDuration":117933,"Delta":77137805},{"NoteNumber":48,"Velocity":33,"Duration":117933,"SoundDuration":117933,"Delta":77137805},{"NoteNumber":67,"Velocity":72,"Duration":113903,"SoundDuration":113903,"Delta":77843568},{"NoteNumber":72,"Velocity":73,"Duration":113903,"SoundDuration":113903,"Delta":77957471},{"NoteNumber":76,"Velocity":83,"Duration":112199,"SoundDuration":112199,"Delta":78071375},{"NoteNumber":48,"Velocity":58,"Duration":112199,"SoundDuration":112199,"Delta":78071375},{"NoteNumber":52,"Velocity":70,"Duration":112199,"SoundDuration":112199,"Delta":78071375},{"NoteNumber":72,"Velocity":72,"Duration":108940,"SoundDuration":108940,"Delta":78295775},{"NoteNumber":76,"Velocity":72,"Duration":108940,"SoundDuration":108940,"Delta":78404715},{"NoteNumber":79,"Velocity":83,"Duration":113045,"SoundDuration":113045,"Delta":78513655},{"NoteNumber":48,"Velocity":58,"Duration":113045,"SoundDuration":113045,"Delta":78513655},{"NoteNumber":52,"Velocity":70,"Duration":113045,"SoundDuration":113045,"Delta":78513655},{"NoteNumber":76,"Velocity":72,"Duration":113045,"SoundDuration":113045,"Delta":78739746},{"NoteNumber":79,"Velocity":87,"Duration":137375,"SoundDuration":137375,"Delta":78852792},{"NoteNumber":84,"Velocity":85,"Duration":114775,"SoundDuration":114775,"Delta":78990167},{"NoteNumber":48,"Velocity":58,"Duration":114775,"SoundDuration":114775,"Delta":78990167},{"NoteNumber":52,"Velocity":70,"Duration":114775,"SoundDuration":114775,"Delta":78990167}],"license":{"name":"Creative Commons Attribution-ShareAlike 3.0 Germany","url":"http://creativecommons.org/licenses/by-sa/3.0/de/deed.en","text":"The MIDI, audio (MP3, OGG) and video files of Bernd Krueger are licensed under the cc-by-sa Germany License. This means that you can use and adapt the files, as long as you attribute the copyright holder.\n\nName: Bernd Krueger\nSource: http://www.piano-midi.de\n\nThe distribution or public playback of the files is only allowed under identical license conditions.\n\nThe scores are open source.","attribution":"MIDI files by Bernd Krueger (piano-midi.de)","attributionUrl":"http://www.piano-midi.de"}}