{"title":"Sonatine Opus 36 Nr. 4, 3. Satz","artist":"Clementi","durationMs":106051,"midiSha256":"d4d60e52a10539e1e6651348bc762ab9cd97b339296cdada809743150f55874b","midiObject":[{"NoteNumber":77,"Velocity":45,"Duration":110497,"SoundDuration":110497,"Delta":0},{"NoteNumber":79,"Velocity":38,"Duration":110497,"SoundDuration":110497,"Delta":110497},{"NoteNumber":81,"Velocity":38,"Duration":110497,"SoundDuration":110497,"Delta":220994},{"NoteNumber":77,"Velocity":44,"Duration":110497,"SoundDuration":110497,"Delta":331491},{"NoteNumber":79,"Velocity":37,"Duration":110497,"SoundDuration":110497,"Delta":441988},{"NoteNumber":81,"Velocity":37,"Duration":125000,"SoundDuration":125000,"Delta":552485},{"NoteNumber":72,"Velocity":45,"Duration":85227,"SoundDuration":85227,"Delta":677485},{"NoteNumber":69,"Velocity":36,"Duration":85227,"SoundDuration":85227,"Delta":677485},{"NoteNumber":65,"Velocity":30,"Duration":85227,"SoundDuration":85227,"Delta":677485},{"NoteNumber":72,"Velocity":45,"Duration":85227,"SoundDuration":85227,"Delta":1018394},{"NoteNumber":69,"Velocity":36,"Duration":85227,"SoundDuration":85227,"Delta":1018394},{"NoteNumber":65,"Velocity":30,"Duration":85227,"SoundDuration":85227,"Delta":1018394},{"NoteNumber":77,"Velocity":45,"Duration":109890,"SoundDuration":109890,"Delta":1359303},{"NoteNumber":79,"Velocity":38,"Duration":109890,"SoundDuration":109890,"Delta":1469194},{"NoteNumber":81,"Velocity":38,"Duration":109890,"SoundDuration":109890,"Delta":1579084},{"NoteNumber":77,"Velocity":44,"Duration":109890,"SoundDuration":109890,"Delta":1688974},{"NoteNumber":79,"Velocity":37,"Duration":109890,"SoundDuration":109890,"Delta":1798864},{"NoteNumber":81,"Velocity":37,"Duration":125000,"SoundDuration":125000,"Delta":1908754},{"NoteNumber":74,"Velocity":45,"Duration":84745,"SoundDuration":84745,"Delta":2033754},{"NoteNumber":70,"Velocity":36,"Duration":84745,"SoundDuration":84745,"Delta":2033754},{"NoteNumber":65,"Velocity":30,"Duration":84745,"SoundDuration":84745,"Delta":2033754},{"NoteNumber":74,"Velocity":45,"Duration":84745,"SoundDuration":84745,"Delta":2372737},{"NoteNumber":70,"Velocity":36,"Duration":84745,"SoundDuration":84745,"Delta":2372737},{"NoteNumber":65,"Velocity":30,"Duration":84745,"SoundDuration":84745,"Delta":2372737},{"NoteNumber":86,"Velocity":53,"Duration":110497,"SoundDuration":110497,"Delta":2711720},{"NoteNumber":84,"Velocity":50,"Duration":110497,"SoundDuration":110497,"Delta":2822217},{"NoteNumber":82,"Velocity":50,"Duration":110497,"SoundDuration":110497,"Delta":2932715},{"NoteNumber":81,"Velocity":55,"Duration":110497,"SoundDuration":110497,"Delta":3043212},{"NoteNumber":79,"Velocity":57,"Duration":110497,"SoundDuration":110497,"Delta":3153709},{"NoteNumber":77,"Velocity":58,"Duration":110497,"SoundDuration":110497,"Delta":3264206},{"NoteNumber":76,"Velocity":63,"Duration":110497,"SoundDuration":110497,"Delta":3374703},{"NoteNumber":60,"Velocity":47,"Duration":1325966,"SoundDuration":1325966,"Delta":3374703},{"NoteNumber":55,"Velocity":39,"Duration":1325966,"SoundDuration":1325966,"Delta":3374703},{"NoteNumber":52,"Velocity":39,"Duration":1325966,"SoundDuration":1325966,"Delta":3374703},{"NoteNumber":48,"Velocity":39,"Duration":1325966,"SoundDuration":1325966,"Delta":3374703},{"NoteNumber":79,"Velocity":57,"Duration":110497,"SoundDuration":110497,"Delta":3485200},{"NoteNumber":77,"Velocity":56,"Duration":110497,"SoundDuration":110497,"Delta":3595698},{"NoteNumber":76,"Velocity":62,"Duration":110497,"SoundDuration":110497,"Delta":3706195},{"NoteNumber":74,"Velocity":54,"Duration":110497,"SoundDuration":110497,"Delta":3816692},{"NoteNumber":72,"Velocity":54,"Duration":110497,"SoundDuration":110497,"Delta":3927189},{"NoteNumber":70,"Velocity":56,"Duration":110497,"SoundDuration":110497,"Delta":4037686},{"NoteNumber":69,"Velocity":50,"Duration":110497,"SoundDuration":110497,"Delta":4148183},{"NoteNumber":67,"Velocity":50,"Duration":110497,"SoundDuration":110497,"Delta":4258681},{"NoteNumber":74,"Velocity":61,"Duration":110497,"SoundDuration":110497,"Delta":4369178},{"NoteNumber":72,"Velocity":53,"Duration":110497,"SoundDuration":110497,"Delta":4479675},{"NoteNumber":70,"Velocity":53,"Duration":110497,"SoundDuration":110497,"Delta":4590172},{"NoteNumber":69,"Velocity":63,"Duration":85714,"SoundDuration":85714,"Delta":4700669},{"NoteNumber":53,"Velocity":41,"Duration":114285,"SoundDuration":114285,"Delta":4700669},{"NoteNumber":57,"Velocity":31,"Duration":114285,"SoundDuration":114285,"Delta":4814955},{"NoteNumber":60,"Velocity":29,"Duration":114285,"SoundDuration":114285,"Delta":4929241},{"NoteNumber":72,"Velocity":57,"Duration":85714,"SoundDuration":85714,"Delta":5043526},{"NoteNumber":53,"Velocity":37,"Duration":114285,"SoundDuration":114285,"Delta":5043526},{"NoteNumber":57,"Velocity":34,"Duration":114285,"SoundDuration":114285,"Delta":5157812},{"NoteNumber":60,"Velocity":25,"Duration":114285,"SoundDuration":114285,"Delta":5272098},{"NoteNumber":53,"Velocity":39,"Duration":110497,"SoundDuration":110497,"Delta":5386383},{"NoteNumber":57,"Velocity":33,"Duration":110497,"SoundDuration":110497,"Delta":5496880},{"NoteNumber":60,"Velocity":30,"Duration":110497,"SoundDuration":110497,"Delta":5607378},{"NoteNumber":84,"Velocity":64,"Duration":331491,"SoundDuration":331491,"Delta":5717875},{"NoteNumber":53,"Velocity":41,"Duration":110497,"SoundDuration":110497,"Delta":5717875},{"NoteNumber":57,"Velocity":32,"Duration":110497,"SoundDuration":110497,"Delta":5828372},{"NoteNumber":60,"Velocity":27,"Duration":110497,"SoundDuration":110497,"Delta":5938869},{"NoteNumber":81,"Velocity":69,"Duration":335195,"SoundDuration":335195,"Delta":6049366},{"NoteNumber":53,"Velocity":41,"Duration":111731,"SoundDuration":111731,"Delta":6049366},{"NoteNumber":57,"Velocity":31,"Duration":111731,"SoundDuration":111731,"Delta":6161098},{"NoteNumber":60,"Velocity":33,"Duration":111731,"SoundDuration":111731,"Delta":6272830},{"NoteNumber":77,"Velocity":63,"Duration":335195,"SoundDuration":335195,"Delta":6384562},{"NoteNumber":53,"Velocity":38,"Duration":111731,"SoundDuration":111731,"Delta":6384562},{"NoteNumber":57,"Velocity":35,"Duration":111731,"SoundDuration":111731,"Delta":6496293},{"NoteNumber":60,"Velocity":30,"Duration":111731,"SoundDuration":111731,"Delta":6608025},{"NoteNumber":74,"Velocity":68,"Duration":335195,"SoundDuration":335195,"Delta":6719757},{"NoteNumber":53,"Velocity":39,"Duration":111731,"SoundDuration":111731,"Delta":6719757},{"NoteNumber":58,"Velocity":30,"Duration":111731,"SoundDuration":111731,"Delta":6831489},{"NoteNumber":62,"Velocity":30,"Duration":111731,"SoundDuration":111731,"Delta":6943221},{"NoteNumber":70,"Velocity":54,"Duration":350046,"SoundDuration":350046,"Delta":7054953},{"NoteNumber":53,"Velocity":37,"Duration":111731,"SoundDuration":111731,"Delta":7054953},{"NoteNumber":58,"Velocity":32,"Duration":111731,"SoundDuration":111731,"Delta":7166685},{"NoteNumber":62,"Velocity":30,"Duration":126582,"SoundDuration":126582,"Delta":7278416},{"NoteNumber":69,"Velocity":58,"Duration":331491,"SoundDuration":331491,"Delta":7404999},{"NoteNumber":53,"Velocity":41,"Duration":110497,"SoundDuration":110497,"Delta":7404999},{"NoteNumber":57,"Velocity":31,"Duration":110497,"SoundDuration":110497,"Delta":7515496},{"NoteNumber":60,"Velocity":23,"Duration":110497,"SoundDuration":110497,"Delta":7625993},{"NoteNumber":72,"Velocity":50,"Duration":331491,"SoundDuration":331491,"Delta":7736490},{"NoteNumber":53,"Velocity":35,"Duration":110497,"SoundDuration":110497,"Delta":7736490},{"NoteNumber":57,"Velocity":27,"Duration":110497,"SoundDuration":110497,"Delta":7846987},{"NoteNumber":60,"Velocity":27,"Duration":110497,"SoundDuration":110497,"Delta":7957485},{"NoteNumber":53,"Velocity":37,"Duration":110497,"SoundDuration":110497,"Delta":8067982},{"NoteNumber":57,"Velocity":31,"Duration":110497,"SoundDuration":110497,"Delta":8178479},{"NoteNumber":60,"Velocity":25,"Duration":110497,"SoundDuration":110497,"Delta":8288976},{"NoteNumber":84,"Velocity":64,"Duration":331491,"SoundDuration":331491,"Delta":8399473},{"NoteNumber":53,"Velocity":41,"Duration":110497,"SoundDuration":110497,"Delta":8399473},{"NoteNumber":57,"Velocity":32,"Duration":110497,"SoundDuration":110497,"Delta":8509970},{"NoteNumber":60,"Velocity":26,"Duration":110497,"SoundDuration":110497,"Delta":8620468},{"NoteNumber":81,"Velocity":69,"Duration":333333,"SoundDuration":333333,"Delta":8730965},{"NoteNumber":53,"Velocity":41,"Duration":111111,"SoundDuration":111111,"Delta":8730965},{"NoteNumber":57,"Velocity":31,"Duration":111111,"SoundDuration":111111,"Delta":8842076},{"NoteNumber":60,"Velocity":27,"Duration":111111,"SoundDuration":111111,"Delta":8953187},{"NoteNumber":77,"Velocity":63,"Duration":333333,"SoundDuration":333333,"Delta":9064298},{"NoteNumber":53,"Velocity":38,"Duration":111111,"SoundDuration":111111,"Delta":9064298},{"NoteNumber":57,"Velocity":35,"Duration":111111,"SoundDuration":111111,"Delta":9175409},{"NoteNumber":60,"Velocity":30,"Duration":111111,"SoundDuration":111111,"Delta":9286521},{"NoteNumber":74,"Velocity":68,"Duration":340565,"SoundDuration":340565,"Delta":9397632},{"NoteNumber":53,"Velocity":39,"Duration":111111,"SoundDuration":111111,"Delta":9397632},{"NoteNumber":59,"Velocity":30,"Duration":111111,"SoundDuration":111111,"Delta":9508743},{"NoteNumber":62,"Velocity":30,"Duration":118343,"SoundDuration":118343,"Delta":9619854},{"NoteNumber":81,"Velocity":54,"Duration":331491,"SoundDuration":331491,"Delta":9738197},{"NoteNumber":53,"Velocity":37,"Duration":110497,"SoundDuration":110497,"Delta":9738197},{"NoteNumber":59,"Velocity":32,"Duration":110497,"SoundDuration":110497,"Delta":9848694},{"NoteNumber":62,"Velocity":30,"Duration":110497,"SoundDuration":110497,"Delta":9959191},{"NoteNumber":79,"Velocity":58,"Duration":82872,"SoundDuration":82872,"Delta":10069689},{"NoteNumber":52,"Velocity":41,"Duration":110497,"SoundDuration":110497,"Delta":10069689},{"NoteNumber":55,"Velocity":31,"Duration":110497,"SoundDuration":110497,"Delta":10180186},{"NoteNumber":60,"Velocity":25,"Duration":110497,"SoundDuration":110497,"Delta":10290683},{"NoteNumber":79,"Velocity":53,"Duration":110497,"SoundDuration":110497,"Delta":10401180},{"NoteNumber":77,"Velocity":49,"Duration":110497,"SoundDuration":110497,"Delta":10511677},{"NoteNumber":76,"Velocity":49,"Duration":110497,"SoundDuration":110497,"Delta":10622175},{"NoteNumber":74,"Velocity":58,"Duration":82872,"SoundDuration":82872,"Delta":10732672},{"NoteNumber":53,"Velocity":41,"Duration":110497,"SoundDuration":110497,"Delta":10732672},{"NoteNumber":57,"Velocity":31,"Duration":110497,"SoundDuration":110497,"Delta":10843169},{"NoteNumber":62,"Velocity":28,"Duration":110497,"SoundDuration":110497,"Delta":10953666},{"NoteNumber":77,"Velocity":53,"Duration":110497,"SoundDuration":110497,"Delta":11064163},{"NoteNumber":76,"Velocity":49,"Duration":110497,"SoundDuration":110497,"Delta":11174660},{"NoteNumber":74,"Velocity":49,"Duration":110497,"SoundDuration":110497,"Delta":11285157},{"NoteNumber":72,"Velocity":58,"Duration":82872,"SoundDuration":82872,"Delta":11395655},{"NoteNumber":55,"Velocity":41,"Duration":110497,"SoundDuration":110497,"Delta":11395655},{"NoteNumber":60,"Velocity":30,"Duration":110497,"SoundDuration":110497,"Delta":11506152},{"NoteNumber":64,"Velocity":28,"Duration":119047,"SoundDuration":119047,"Delta":11616649},{"NoteNumber":76,"Velocity":49,"Duration":110497,"SoundDuration":110497,"Delta":11735697},{"NoteNumber":74,"Velocity":45,"Duration":110497,"SoundDuration":110497,"Delta":11846194},{"NoteNumber":72,"Velocity":44,"Duration":110497,"SoundDuration":110497,"Delta":11956691},{"NoteNumber":71,"Velocity":51,"Duration":82872,"SoundDuration":82872,"Delta":12067188},{"NoteNumber":55,"Velocity":36,"Duration":110497,"SoundDuration":110497,"Delta":12067188},{"NoteNumber":62,"Velocity":26,"Duration":110497,"SoundDuration":110497,"Delta":12177685},{"NoteNumber":65,"Velocity":24,"Duration":110497,"SoundDuration":110497,"Delta":12288182},{"NoteNumber":67,"Velocity":43,"Duration":113636,"SoundDuration":113636,"Delta":12398680},{"NoteNumber":69,"Velocity":39,"Duration":113636,"SoundDuration":113636,"Delta":12512316},{"NoteNumber":71,"Velocity":38,"Duration":125786,"SoundDuration":125786,"Delta":12625952},{"NoteNumber":72,"Velocity":50,"Duration":82872,"SoundDuration":82872,"Delta":12751739},{"NoteNumber":60,"Velocity":34,"Duration":110497,"SoundDuration":110497,"Delta":12751739},{"NoteNumber":62,"Velocity":30,"Duration":110497,"SoundDuration":110497,"Delta":12863617},{"NoteNumber":64,"Velocity":30,"Duration":110497,"SoundDuration":110497,"Delta":12972733},{"NoteNumber":60,"Velocity":34,"Duration":110497,"SoundDuration":110497,"Delta":13083230},{"NoteNumber":62,"Velocity":30,"Duration":110497,"SoundDuration":110497,"Delta":13195108},{"NoteNumber":64,"Velocity":30,"Duration":110497,"SoundDuration":110497,"Delta":13304224},{"NoteNumber":72,"Velocity":45,"Duration":110497,"SoundDuration":110497,"Delta":13414722},{"NoteNumber":60,"Velocity":34,"Duration":82872,"SoundDuration":82872,"Delta":13414722},{"NoteNumber":74,"Velocity":39,"Duration":110497,"SoundDuration":110497,"Delta":13525219},{"NoteNumber":76,"Velocity":40,"Duration":110497,"SoundDuration":110497,"Delta":13635716},{"NoteNumber":72,"Velocity":46,"Duration":110497,"SoundDuration":110497,"Delta":13746213},{"NoteNumber":74,"Velocity":39,"Duration":110497,"SoundDuration":110497,"Delta":13856710},{"NoteNumber":76,"Velocity":39,"Duration":110497,"SoundDuration":110497,"Delta":13967207},{"NoteNumber":74,"Velocity":47,"Duration":110057,"SoundDuration":110057,"Delta":14077704},{"NoteNumber":71,"Velocity":38,"Duration":82561,"SoundDuration":82561,"Delta":14077704},{"NoteNumber":76,"Velocity":37,"Duration":110842,"SoundDuration":110842,"Delta":14187762},{"NoteNumber":77,"Velocity":37,"Duration":111858,"SoundDuration":111858,"Delta":14298604},{"NoteNumber":74,"Velocity":43,"Duration":112868,"SoundDuration":112868,"Delta":14410463},{"NoteNumber":76,"Velocity":38,"Duration":113920,"SoundDuration":113920,"Delta":14523331},{"NoteNumber":77,"Velocity":38,"Duration":115075,"SoundDuration":115075,"Delta":14637252},{"NoteNumber":76,"Velocity":43,"Duration":116138,"SoundDuration":116138,"Delta":14752327},{"NoteNumber":70,"Velocity":41,"Duration":86898,"SoundDuration":86898,"Delta":14752327},{"NoteNumber":77,"Velocity":38,"Duration":117953,"SoundDuration":117953,"Delta":14868466},{"NoteNumber":79,"Velocity":33,"Duration":120159,"SoundDuration":120159,"Delta":14986420},{"NoteNumber":76,"Velocity":37,"Duration":122281,"SoundDuration":122281,"Delta":15106579},{"NoteNumber":77,"Velocity":34,"Duration":124471,"SoundDuration":124471,"Delta":15228860},{"NoteNumber":79,"Velocity":29,"Duration":125786,"SoundDuration":125786,"Delta":15353332},{"NoteNumber":77,"Velocity":45,"Duration":110497,"SoundDuration":110497,"Delta":16142101},{"NoteNumber":79,"Velocity":38,"Duration":110497,"SoundDuration":110497,"Delta":16252598},{"NoteNumber":81,"Velocity":38,"Duration":110497,"SoundDuration":110497,"Delta":16363095},{"NoteNumber":77,"Velocity":44,"Duration":110497,"SoundDuration":110497,"Delta":16473592},{"NoteNumber":79,"Velocity":37,"Duration":110497,"SoundDuration":110497,"Delta":16584090},{"NoteNumber":81,"Velocity":37,"Duration":126582,"SoundDuration":126582,"Delta":16694587},{"NoteNumber":72,"Velocity":45,"Duration":86206,"SoundDuration":86206,"Delta":16821169},{"NoteNumber":69,"Velocity":36,"Duration":86206,"SoundDuration":86206,"Delta":16821169},{"NoteNumber":65,"Velocity":30,"Duration":86206,"SoundDuration":86206,"Delta":16821169},{"NoteNumber":72,"Velocity":45,"Duration":86206,"SoundDuration":86206,"Delta":17165997},{"NoteNumber":69,"Velocity":36,"Duration":86206,"SoundDuration":86206,"Delta":17165997},{"NoteNumber":65,"Velocity":30,"Duration":86206,"SoundDuration":86206,"Delta":17165997},{"NoteNumber":77,"Velocity":45,"Duration":110497,"SoundDuration":110497,"Delta":17510824},{"NoteNumber":79,"Velocity":38,"Duration":110497,"SoundDuration":110497,"Delta":17621321},{"NoteNumber":81,"Velocity":38,"Duration":110497,"SoundDuration":110497,"Delta":17731818},{"NoteNumber":77,"Velocity":44,"Duration":110497,"SoundDuration":110497,"Delta":17842316},{"NoteNumber":79,"Velocity":37,"Duration":110497,"SoundDuration":110497,"Delta":17952813},{"NoteNumber":81,"Velocity":37,"Duration":127388,"SoundDuration":127388,"Delta":18063310},{"NoteNumber":74,"Velocity":45,"Duration":85227,"SoundDuration":85227,"Delta":18190698},{"NoteNumber":70,"Velocity":36,"Duration":85227,"SoundDuration":85227,"Delta":18190698},{"NoteNumber":65,"Velocity":30,"Duration":85227,"SoundDuration":85227,"Delta":18190698},{"NoteNumber":74,"Velocity":45,"Duration":85227,"SoundDuration":85227,"Delta":18531607},{"NoteNumber":70,"Velocity":36,"Duration":85227,"SoundDuration":85227,"Delta":18531607},{"NoteNumber":65,"Velocity":30,"Duration":85227,"SoundDuration":85227,"Delta":18531607},{"NoteNumber":86,"Velocity":53,"Duration":109289,"SoundDuration":109289,"Delta":18872516},{"NoteNumber":84,"Velocity":50,"Duration":111111,"SoundDuration":111111,"Delta":18981806},{"NoteNumber":82,"Velocity":50,"Duration":111111,"SoundDuration":111111,"Delta":19092917},{"NoteNumber":81,"Velocity":55,"Duration":111111,"SoundDuration":111111,"Delta":19204028},{"NoteNumber":79,"Velocity":57,"Duration":111111,"SoundDuration":111111,"Delta":19315140},{"NoteNumber":77,"Velocity":58,"Duration":111111,"SoundDuration":111111,"Delta":19426251},{"NoteNumber":76,"Velocity":63,"Duration":111111,"SoundDuration":111111,"Delta":19537362},{"NoteNumber":60,"Velocity":47,"Duration":1333334,"SoundDuration":1333334,"Delta":19537362},{"NoteNumber":55,"Velocity":39,"Duration":1333334,"SoundDuration":1333334,"Delta":19537362},{"NoteNumber":52,"Velocity":39,"Duration":1333334,"SoundDuration":1333334,"Delta":19537362},{"NoteNumber":48,"Velocity":39,"Duration":1333334,"SoundDuration":1333334,"Delta":19537362},{"NoteNumber":79,"Velocity":57,"Duration":111111,"SoundDuration":111111,"Delta":19648473},{"NoteNumber":77,"Velocity":56,"Duration":111111,"SoundDuration":111111,"Delta":19759584},{"NoteNumber":76,"Velocity":62,"Duration":111111,"SoundDuration":111111,"Delta":19870695},{"NoteNumber":74,"Velocity":54,"Duration":111111,"SoundDuration":111111,"Delta":19981807},{"NoteNumber":72,"Velocity":54,"Duration":111111,"SoundDuration":111111,"Delta":20092918},{"NoteNumber":70,"Velocity":56,"Duration":111111,"SoundDuration":111111,"Delta":20204029},{"NoteNumber":69,"Velocity":50,"Duration":111111,"SoundDuration":111111,"Delta":20315140},{"NoteNumber":67,"Velocity":50,"Duration":111111,"SoundDuration":111111,"Delta":20426251},{"NoteNumber":74,"Velocity":61,"Duration":111111,"SoundDuration":111111,"Delta":20537362},{"NoteNumber":72,"Velocity":53,"Duration":111111,"SoundDuration":111111,"Delta":20648474},{"NoteNumber":70,"Velocity":53,"Duration":111111,"SoundDuration":111111,"Delta":20759585},{"NoteNumber":69,"Velocity":63,"Duration":87209,"SoundDuration":87209,"Delta":20870696},{"NoteNumber":53,"Velocity":41,"Duration":116278,"SoundDuration":116278,"Delta":20870696},{"NoteNumber":57,"Velocity":31,"Duration":116279,"SoundDuration":116279,"Delta":20986975},{"NoteNumber":60,"Velocity":28,"Duration":116278,"SoundDuration":116278,"Delta":21103254},{"NoteNumber":72,"Velocity":57,"Duration":87209,"SoundDuration":87209,"Delta":21219533},{"NoteNumber":53,"Velocity":37,"Duration":116278,"SoundDuration":116278,"Delta":21219533},{"NoteNumber":57,"Velocity":34,"Duration":116279,"SoundDuration":116279,"Delta":21335812},{"NoteNumber":60,"Velocity":29,"Duration":116278,"SoundDuration":116278,"Delta":21452091},{"NoteNumber":53,"Velocity":39,"Duration":111111,"SoundDuration":111111,"Delta":21568370},{"NoteNumber":57,"Velocity":33,"Duration":111111,"SoundDuration":111111,"Delta":21679481},{"NoteNumber":60,"Velocity":26,"Duration":111111,"SoundDuration":111111,"Delta":21790592},{"NoteNumber":84,"Velocity":64,"Duration":333333,"SoundDuration":333333,"Delta":21901703},{"NoteNumber":53,"Velocity":41,"Duration":111111,"SoundDuration":111111,"Delta":21901703},{"NoteNumber":57,"Velocity":32,"Duration":111111,"SoundDuration":111111,"Delta":22012815},{"NoteNumber":60,"Velocity":25,"Duration":111111,"SoundDuration":111111,"Delta":22123926},{"NoteNumber":81,"Velocity":69,"Duration":338982,"SoundDuration":338982,"Delta":22235037},{"NoteNumber":53,"Velocity":41,"Duration":112994,"SoundDuration":112994,"Delta":22235037},{"NoteNumber":57,"Velocity":31,"Duration":112994,"SoundDuration":112994,"Delta":22348031},{"NoteNumber":60,"Velocity":27,"Duration":112994,"SoundDuration":112994,"Delta":22461026},{"NoteNumber":77,"Velocity":63,"Duration":338983,"SoundDuration":338983,"Delta":22574020},{"NoteNumber":53,"Velocity":38,"Duration":112994,"SoundDuration":112994,"Delta":22574020},{"NoteNumber":57,"Velocity":35,"Duration":112994,"SoundDuration":112994,"Delta":22687014},{"NoteNumber":60,"Velocity":29,"Duration":112994,"SoundDuration":112994,"Delta":22800009},{"NoteNumber":74,"Velocity":68,"Duration":338982,"SoundDuration":338982,"Delta":22913003},{"NoteNumber":53,"Velocity":39,"Duration":112994,"SoundDuration":112994,"Delta":22913003},{"NoteNumber":58,"Velocity":30,"Duration":112994,"SoundDuration":112994,"Delta":23025997},{"NoteNumber":62,"Velocity":24,"Duration":112994,"SoundDuration":112994,"Delta":23138992},{"NoteNumber":70,"Velocity":54,"Duration":355858,"SoundDuration":355858,"Delta":23251986},{"NoteNumber":53,"Velocity":37,"Duration":112994,"SoundDuration":112994,"Delta":23251986},{"NoteNumber":58,"Velocity":32,"Duration":112994,"SoundDuration":112994,"Delta":23364980},{"NoteNumber":62,"Velocity":27,"Duration":129870,"SoundDuration":129870,"Delta":23477975},{"NoteNumber":69,"Velocity":58,"Duration":346820,"SoundDuration":346820,"Delta":23607845},{"NoteNumber":53,"Velocity":41,"Duration":115607,"SoundDuration":115607,"Delta":23607845},{"NoteNumber":57,"Velocity":31,"Duration":115607,"SoundDuration":115607,"Delta":23723452},{"NoteNumber":60,"Velocity":25,"Duration":115606,"SoundDuration":115606,"Delta":23839059},{"NoteNumber":72,"Velocity":50,"Duration":346821,"SoundDuration":346821,"Delta":23954666},{"NoteNumber":53,"Velocity":35,"Duration":115607,"SoundDuration":115607,"Delta":23954666},{"NoteNumber":57,"Velocity":27,"Duration":115607,"SoundDuration":115607,"Delta":24070273},{"NoteNumber":60,"Velocity":21,"Duration":115607,"SoundDuration":115607,"Delta":24185880},{"NoteNumber":53,"Velocity":37,"Duration":111731,"SoundDuration":111731,"Delta":24301487},{"NoteNumber":57,"Velocity":31,"Duration":111731,"SoundDuration":111731,"Delta":24413219},{"NoteNumber":60,"Velocity":24,"Duration":111731,"SoundDuration":111731,"Delta":24524950},{"NoteNumber":84,"Velocity":64,"Duration":335195,"SoundDuration":335195,"Delta":24636682},{"NoteNumber":53,"Velocity":41,"Duration":111731,"SoundDuration":111731,"Delta":24636682},{"NoteNumber":57,"Velocity":32,"Duration":111731,"SoundDuration":111731,"Delta":24748414},{"NoteNumber":60,"Velocity":24,"Duration":111731,"SoundDuration":111731,"Delta":24860146},{"NoteNumber":81,"Velocity":69,"Duration":335195,"SoundDuration":335195,"Delta":24971878},{"NoteNumber":53,"Velocity":41,"Duration":111731,"SoundDuration":111731,"Delta":24971878},{"NoteNumber":57,"Velocity":31,"Duration":111731,"SoundDuration":111731,"Delta":25083610},{"NoteNumber":60,"Velocity":29,"Duration":111731,"SoundDuration":111731,"Delta":25195341},{"NoteNumber":77,"Velocity":63,"Duration":335195,"SoundDuration":335195,"Delta":25307073},{"NoteNumber":53,"Velocity":38,"Duration":111731,"SoundDuration":111731,"Delta":25307073},{"NoteNumber":57,"Velocity":35,"Duration":111731,"SoundDuration":111731,"Delta":25418805},{"NoteNumber":60,"Velocity":30,"Duration":111731,"SoundDuration":111731,"Delta":25530537},{"NoteNumber":76,"Velocity":68,"Duration":341110,"SoundDuration":341110,"Delta":25642269},{"NoteNumber":55,"Velocity":39,"Duration":111731,"SoundDuration":111731,"Delta":25642269},{"NoteNumber":58,"Velocity":30,"Duration":111731,"SoundDuration":111731,"Delta":25754001},{"NoteNumber":64,"Velocity":26,"Duration":117646,"SoundDuration":117646,"Delta":25865732},{"NoteNumber":86,"Velocity":69,"Duration":342856,"SoundDuration":342856,"Delta":25983379},{"NoteNumber":55,"Velocity":37,"Duration":114285,"SoundDuration":114285,"Delta":25983379},{"NoteNumber":58,"Velocity":32,"Duration":114285,"SoundDuration":114285,"Delta":26097665},{"NoteNumber":64,"Velocity":23,"Duration":114285,"SoundDuration":114285,"Delta":26211951},{"NoteNumber":84,"Velocity":64,"Duration":86705,"SoundDuration":86705,"Delta":26326236},{"NoteNumber":57,"Velocity":41,"Duration":115607,"SoundDuration":115607,"Delta":26326236},{"NoteNumber":60,"Velocity":31,"Duration":115607,"SoundDuration":115607,"Delta":26441843},{"NoteNumber":65,"Velocity":27,"Duration":111111,"SoundDuration":111111,"Delta":26557450},{"NoteNumber":84,"Velocity":53,"Duration":111111,"SoundDuration":111111,"Delta":26668562},{"NoteNumber":82,"Velocity":49,"Duration":111111,"SoundDuration":111111,"Delta":26779673},{"NoteNumber":81,"Velocity":49,"Duration":111111,"SoundDuration":111111,"Delta":26890784},{"NoteNumber":79,"Velocity":58,"Duration":83333,"SoundDuration":83333,"Delta":27001895},{"NoteNumber":58,"Velocity":41,"Duration":111111,"SoundDuration":111111,"Delta":27001895},{"NoteNumber":62,"Velocity":31,"Duration":111111,"SoundDuration":111111,"Delta":27113006},{"NoteNumber":67,"Velocity":26,"Duration":111111,"SoundDuration":111111,"Delta":27224117},{"NoteNumber":82,"Velocity":53,"Duration":111111,"SoundDuration":111111,"Delta":27335229},{"NoteNumber":81,"Velocity":49,"Duration":111111,"SoundDuration":111111,"Delta":27446340},{"NoteNumber":79,"Velocity":49,"Duration":111111,"SoundDuration":111111,"Delta":27557451},{"NoteNumber":77,"Velocity":54,"Duration":83333,"SoundDuration":83333,"Delta":27668562},{"NoteNumber":60,"Velocity":41,"Duration":111111,"SoundDuration":111111,"Delta":27668562},{"NoteNumber":65,"Velocity":31,"Duration":111111,"SoundDuration":111111,"Delta":27779673},{"NoteNumber":69,"Velocity":27,"Duration":111111,"SoundDuration":111111,"Delta":27890784},{"NoteNumber":77,"Velocity":50,"Duration":166666,"SoundDuration":166666,"Delta":28001896},{"NoteNumber":60,"Velocity":33,"Duration":111111,"SoundDuration":111111,"Delta":28001896},{"NoteNumber":65,"Velocity":29,"Duration":111111,"SoundDuration":111111,"Delta":28113007},{"NoteNumber":79,"Velocity":42,"Duration":55555,"SoundDuration":55555,"Delta":28168562},{"NoteNumber":77,"Velocity":41,"Duration":55555,"SoundDuration":55555,"Delta":28224118},{"NoteNumber":69,"Velocity":24,"Duration":111111,"SoundDuration":111111,"Delta":28224118},{"NoteNumber":76,"Velocity":37,"Duration":55555,"SoundDuration":55555,"Delta":28279673},{"NoteNumber":81,"Velocity":54,"Duration":333333,"SoundDuration":333333,"Delta":28335229},{"NoteNumber":60,"Velocity":34,"Duration":111111,"SoundDuration":111111,"Delta":28335229},{"NoteNumber":65,"Velocity":29,"Duration":111111,"SoundDuration":111111,"Delta":28446340},{"NoteNumber":69,"Velocity":25,"Duration":111111,"SoundDuration":111111,"Delta":28557451},{"NoteNumber":79,"Velocity":43,"Duration":345679,"SoundDuration":345679,"Delta":28668563},{"NoteNumber":60,"Velocity":31,"Duration":111111,"SoundDuration":111111,"Delta":28668563},{"NoteNumber":64,"Velocity":26,"Duration":111111,"SoundDuration":111111,"Delta":28778285},{"NoteNumber":70,"Velocity":22,"Duration":123294,"SoundDuration":123294,"Delta":28892328},{"NoteNumber":65,"Velocity":36,"Duration":110497,"SoundDuration":110497,"Delta":29014242},{"NoteNumber":69,"Velocity":26,"Duration":110497,"SoundDuration":110497,"Delta":29124739},{"NoteNumber":72,"Velocity":26,"Duration":110497,"SoundDuration":110497,"Delta":29235236},{"NoteNumber":77,"Velocity":50,"Duration":165745,"SoundDuration":165745,"Delta":29345733},{"NoteNumber":65,"Velocity":33,"Duration":110497,"SoundDuration":110497,"Delta":29345733},{"NoteNumber":69,"Velocity":27,"Duration":110497,"SoundDuration":110497,"Delta":29456230},{"NoteNumber":79,"Velocity":42,"Duration":55248,"SoundDuration":55248,"Delta":29511479},{"NoteNumber":77,"Velocity":41,"Duration":55248,"SoundDuration":55248,"Delta":29566728},{"NoteNumber":72,"Velocity":27,"Duration":110497,"SoundDuration":110497,"Delta":29566728},{"NoteNumber":76,"Velocity":37,"Duration":55248,"SoundDuration":55248,"Delta":29621976},{"NoteNumber":65,"Velocity":41,"Duration":110497,"SoundDuration":110497,"Delta":29677225},{"NoteNumber":70,"Velocity":29,"Duration":110497,"SoundDuration":110497,"Delta":29787722},{"NoteNumber":74,"Velocity":24,"Duration":110497,"SoundDuration":110497,"Delta":29898219},{"NoteNumber":77,"Velocity":50,"Duration":165745,"SoundDuration":165745,"Delta":30008716},{"NoteNumber":65,"Velocity":33,"Duration":110497,"SoundDuration":110497,"Delta":30008716},{"NoteNumber":70,"Velocity":27,"Duration":110497,"SoundDuration":110497,"Delta":30119213},{"NoteNumber":79,"Velocity":42,"Duration":55248,"SoundDuration":55248,"Delta":30174462},{"NoteNumber":77,"Velocity":41,"Duration":55248,"SoundDuration":55248,"Delta":30229711},{"NoteNumber":74,"Velocity":25,"Duration":110497,"SoundDuration":110497,"Delta":30229711},{"NoteNumber":76,"Velocity":37,"Duration":55248,"SoundDuration":55248,"Delta":30284959},{"NoteNumber":65,"Velocity":41,"Duration":109890,"SoundDuration":109890,"Delta":30340208},{"NoteNumber":69,"Velocity":29,"Duration":109890,"SoundDuration":109890,"Delta":30450098},{"NoteNumber":72,"Velocity":25,"Duration":117646,"SoundDuration":117646,"Delta":30559988},{"NoteNumber":81,"Velocity":53,"Duration":110497,"SoundDuration":110497,"Delta":30677635},{"NoteNumber":79,"Velocity":54,"Duration":110497,"SoundDuration":110497,"Delta":30788132},{"NoteNumber":77,"Velocity":55,"Duration":110497,"SoundDuration":110497,"Delta":30898629},{"NoteNumber":76,"Velocity":57,"Duration":110497,"SoundDuration":110497,"Delta":31009127},{"NoteNumber":74,"Velocity":58,"Duration":110497,"SoundDuration":110497,"Delta":31119624},{"NoteNumber":72,"Velocity":60,"Duration":110497,"SoundDuration":110497,"Delta":31230121},{"NoteNumber":70,"Velocity":61,"Duration":110497,"SoundDuration":110497,"Delta":31340618},{"NoteNumber":48,"Velocity":41,"Duration":331491,"SoundDuration":331491,"Delta":31340618},{"NoteNumber":60,"Velocity":49,"Duration":331491,"SoundDuration":331491,"Delta":31340618},{"NoteNumber":69,"Velocity":62,"Duration":110497,"SoundDuration":110497,"Delta":31451115},{"NoteNumber":67,"Velocity":64,"Duration":110497,"SoundDuration":110497,"Delta":31561612},{"NoteNumber":65,"Velocity":70,"Duration":82872,"SoundDuration":82872,"Delta":31672110},{"NoteNumber":53,"Velocity":57,"Duration":110497,"SoundDuration":110497,"Delta":31672110},{"NoteNumber":57,"Velocity":40,"Duration":110497,"SoundDuration":110497,"Delta":31782607},{"NoteNumber":60,"Velocity":32,"Duration":110497,"SoundDuration":110497,"Delta":31893104},{"NoteNumber":65,"Velocity":70,"Duration":165745,"SoundDuration":165745,"Delta":32003601},{"NoteNumber":53,"Velocity":46,"Duration":110497,"SoundDuration":110497,"Delta":32003601},{"NoteNumber":57,"Velocity":37,"Duration":110497,"SoundDuration":110497,"Delta":32114098},{"NoteNumber":67,"Velocity":58,"Duration":55248,"SoundDuration":55248,"Delta":32169347},{"NoteNumber":65,"Velocity":57,"Duration":55248,"SoundDuration":55248,"Delta":32224595},{"NoteNumber":60,"Velocity":32,"Duration":110497,"SoundDuration":110497,"Delta":32224595},{"NoteNumber":64,"Velocity":51,"Duration":55248,"SoundDuration":55248,"Delta":32279844},{"NoteNumber":53,"Velocity":57,"Duration":110497,"SoundDuration":110497,"Delta":32335093},{"NoteNumber":58,"Velocity":40,"Duration":110497,"SoundDuration":110497,"Delta":32445590},{"NoteNumber":62,"Velocity":33,"Duration":110497,"SoundDuration":110497,"Delta":32556087},{"NoteNumber":65,"Velocity":70,"Duration":165745,"SoundDuration":165745,"Delta":32666584},{"NoteNumber":53,"Velocity":46,"Duration":110497,"SoundDuration":110497,"Delta":32666584},{"NoteNumber":58,"Velocity":37,"Duration":110497,"SoundDuration":110497,"Delta":32777081},{"NoteNumber":67,"Velocity":58,"Duration":55248,"SoundDuration":55248,"Delta":32832330},{"NoteNumber":65,"Velocity":57,"Duration":55248,"SoundDuration":55248,"Delta":32887578},{"NoteNumber":62,"Velocity":32,"Duration":110497,"SoundDuration":110497,"Delta":32887578},{"NoteNumber":64,"Velocity":51,"Duration":55248,"SoundDuration":55248,"Delta":32942827},{"NoteNumber":53,"Velocity":57,"Duration":116278,"SoundDuration":116278,"Delta":32998076},{"NoteNumber":57,"Velocity":40,"Duration":116278,"SoundDuration":116278,"Delta":33114355},{"NoteNumber":60,"Velocity":33,"Duration":116279,"SoundDuration":116279,"Delta":33230634},{"NoteNumber":69,"Velocity":67,"Duration":110497,"SoundDuration":110497,"Delta":33346913},{"NoteNumber":67,"Velocity":63,"Duration":110497,"SoundDuration":110497,"Delta":33457410},{"NoteNumber":65,"Velocity":63,"Duration":110497,"SoundDuration":110497,"Delta":33567907},{"NoteNumber":64,"Velocity":67,"Duration":110497,"SoundDuration":110497,"Delta":33678404},{"NoteNumber":48,"Velocity":68,"Duration":672949,"SoundDuration":672949,"Delta":33678404},{"NoteNumber":36,"Velocity":57,"Duration":672949,"SoundDuration":672949,"Delta":33678404},{"NoteNumber":62,"Velocity":63,"Duration":110850,"SoundDuration":110850,"Delta":33788901},{"NoteNumber":60,"Velocity":64,"Duration":111725,"SoundDuration":111725,"Delta":33899751},{"NoteNumber":58,"Velocity":67,"Duration":112470,"SoundDuration":112470,"Delta":34011476},{"NoteNumber":57,"Velocity":68,"Duration":113283,"SoundDuration":113283,"Delta":34123947},{"NoteNumber":55,"Velocity":68,"Duration":114123,"SoundDuration":114123,"Delta":34237230},{"NoteNumber":53,"Velocity":76,"Duration":168539,"SoundDuration":168539,"Delta":34351354},{"NoteNumber":41,"Velocity":63,"Duration":112359,"SoundDuration":112359,"Delta":34351354},{"NoteNumber":45,"Velocity":53,"Duration":112359,"SoundDuration":112359,"Delta":34463713},{"NoteNumber":48,"Velocity":46,"Duration":112359,"SoundDuration":112359,"Delta":34576073},{"NoteNumber":41,"Velocity":63,"Duration":112359,"SoundDuration":112359,"Delta":34688432},{"NoteNumber":45,"Velocity":53,"Duration":112359,"SoundDuration":112359,"Delta":34800792},{"NoteNumber":48,"Velocity":48,"Duration":112359,"SoundDuration":112359,"Delta":34913151},{"NoteNumber":60,"Velocity":60,"Duration":175602,"SoundDuration":175602,"Delta":35025511},{"NoteNumber":65,"Velocity":76,"Duration":175602,"SoundDuration":175602,"Delta":35025511},{"NoteNumber":57,"Velocity":60,"Duration":175602,"SoundDuration":175602,"Delta":35025511},{"NoteNumber":41,"Velocity":63,"Duration":116508,"SoundDuration":116508,"Delta":35025511},{"NoteNumber":45,"Velocity":53,"Duration":118921,"SoundDuration":118921,"Delta":35142020},{"NoteNumber":48,"Velocity":46,"Duration":121482,"SoundDuration":121482,"Delta":35260941},{"NoteNumber":41,"Velocity":63,"Duration":124327,"SoundDuration":124327,"Delta":35382424},{"NoteNumber":45,"Velocity":53,"Duration":126532,"SoundDuration":126532,"Delta":35506752},{"NoteNumber":48,"Velocity":47,"Duration":152419,"SoundDuration":152419,"Delta":35633284},{"NoteNumber":57,"Velocity":60,"Duration":616329,"SoundDuration":616329,"Delta":35785703},{"NoteNumber":60,"Velocity":60,"Duration":616329,"SoundDuration":616329,"Delta":35785703},{"NoteNumber":65,"Velocity":76,"Duration":616329,"SoundDuration":616329,"Delta":35785703},{"NoteNumber":41,"Velocity":63,"Duration":616329,"SoundDuration":616329,"Delta":35785703},{"NoteNumber":81,"Velocity":45,"Duration":110497,"SoundDuration":110497,"Delta":36621010},{"NoteNumber":79,"Velocity":38,"Duration":110497,"SoundDuration":110497,"Delta":36731507},{"NoteNumber":77,"Velocity":38,"Duration":110497,"SoundDuration":110497,"Delta":36842005},{"NoteNumber":81,"Velocity":44,"Duration":110497,"SoundDuration":110497,"Delta":36952502},{"NoteNumber":79,"Velocity":37,"Duration":110497,"SoundDuration":110497,"Delta":37062999},{"NoteNumber":77,"Velocity":37,"Duration":125000,"SoundDuration":125000,"Delta":37173496},{"NoteNumber":84,"Velocity":48,"Duration":337078,"SoundDuration":337078,"Delta":37298496},{"NoteNumber":65,"Velocity":28,"Duration":112359,"SoundDuration":112359,"Delta":37298496},{"NoteNumber":69,"Velocity":21,"Duration":112359,"SoundDuration":112359,"Delta":37410856},{"NoteNumber":72,"Velocity":18,"Duration":112359,"SoundDuration":112359,"Delta":37523215},{"NoteNumber":84,"Velocity":44,"Duration":344479,"SoundDuration":344479,"Delta":37635575},{"NoteNumber":65,"Velocity":26,"Duration":112359,"SoundDuration":112359,"Delta":37635575},{"NoteNumber":69,"Velocity":24,"Duration":112359,"SoundDuration":112359,"Delta":37747934},{"NoteNumber":72,"Velocity":20,"Duration":119760,"SoundDuration":119760,"Delta":37860294},{"NoteNumber":81,"Velocity":47,"Duration":337078,"SoundDuration":337078,"Delta":37980054},{"NoteNumber":65,"Velocity":27,"Duration":112359,"SoundDuration":112359,"Delta":37980054},{"NoteNumber":69,"Velocity":21,"Duration":112359,"SoundDuration":112359,"Delta":38092414},{"NoteNumber":72,"Velocity":19,"Duration":112359,"SoundDuration":112359,"Delta":38204773},{"NoteNumber":77,"Velocity":37,"Duration":351301,"SoundDuration":351301,"Delta":38317133},{"NoteNumber":65,"Velocity":25,"Duration":112359,"SoundDuration":112359,"Delta":38317133},{"NoteNumber":69,"Velocity":22,"Duration":112359,"SoundDuration":112359,"Delta":38429492},{"NoteNumber":72,"Velocity":21,"Duration":126582,"SoundDuration":126582,"Delta":38541852},{"NoteNumber":78,"Velocity":54,"Duration":344827,"SoundDuration":344827,"Delta":38668434},{"NoteNumber":64,"Velocity":28,"Duration":114942,"SoundDuration":114942,"Delta":38668434},{"NoteNumber":67,"Velocity":21,"Duration":114942,"SoundDuration":114942,"Delta":38783376},{"NoteNumber":72,"Velocity":17,"Duration":114942,"SoundDuration":114942,"Delta":38898319},{"NoteNumber":79,"Velocity":48,"Duration":344827,"SoundDuration":344827,"Delta":39013261},{"NoteNumber":64,"Velocity":24,"Duration":114942,"SoundDuration":114942,"Delta":39013261},{"NoteNumber":67,"Velocity":18,"Duration":114942,"SoundDuration":114942,"Delta":39128204},{"NoteNumber":72,"Velocity":18,"Duration":114942,"SoundDuration":114942,"Delta":39243146},{"NoteNumber":88,"Velocity":53,"Duration":110497,"SoundDuration":110497,"Delta":39358089},{"NoteNumber":64,"Velocity":28,"Duration":110497,"SoundDuration":110497,"Delta":39358089},{"NoteNumber":86,"Velocity":41,"Duration":110497,"SoundDuration":110497,"Delta":39468586},{"NoteNumber":67,"Velocity":21,"Duration":110497,"SoundDuration":110497,"Delta":39468586},{"NoteNumber":84,"Velocity":38,"Duration":110497,"SoundDuration":110497,"Delta":39579083},{"NoteNumber":72,"Velocity":21,"Duration":110497,"SoundDuration":110497,"Delta":39579083},{"NoteNumber":83,"Velocity":49,"Duration":110497,"SoundDuration":110497,"Delta":39689580},{"NoteNumber":64,"Velocity":24,"Duration":110497,"SoundDuration":110497,"Delta":39689580},{"NoteNumber":81,"Velocity":37,"Duration":110497,"SoundDuration":110497,"Delta":39800078},{"NoteNumber":67,"Velocity":18,"Duration":110497,"SoundDuration":110497,"Delta":39800078},{"NoteNumber":79,"Velocity":37,"Duration":109375,"SoundDuration":109375,"Delta":39910575},{"NoteNumber":72,"Velocity":18,"Duration":125000,"SoundDuration":125000,"Delta":39910575},{"NoteNumber":79,"Velocity":54,"Duration":505617,"SoundDuration":505617,"Delta":40035575},{"NoteNumber":62,"Velocity":28,"Duration":112359,"SoundDuration":112359,"Delta":40035575},{"NoteNumber":67,"Velocity":21,"Duration":112359,"SoundDuration":112359,"Delta":40147934},{"NoteNumber":71,"Velocity":20,"Duration":112359,"SoundDuration":112359,"Delta":40260294},{"NoteNumber":62,"Velocity":26,"Duration":112359,"SoundDuration":112359,"Delta":40372653},{"NoteNumber":67,"Velocity":24,"Duration":112359,"SoundDuration":112359,"Delta":40485013},{"NoteNumber":76,"Velocity":39,"Duration":86119,"SoundDuration":86119,"Delta":40541192},{"NoteNumber":71,"Velocity":21,"Duration":119445,"SoundDuration":119445,"Delta":40597372},{"NoteNumber":77,"Velocity":38,"Duration":89505,"SoundDuration":89505,"Delta":40627312},{"NoteNumber":77,"Velocity":47,"Duration":57948,"SoundDuration":57948,"Delta":40716818},{"NoteNumber":62,"Velocity":27,"Duration":114528,"SoundDuration":114528,"Delta":40716818},{"NoteNumber":79,"Velocity":37,"Duration":56579,"SoundDuration":56579,"Delta":40774766},{"NoteNumber":67,"Velocity":21,"Duration":109483,"SoundDuration":109483,"Delta":40831346},{"NoteNumber":77,"Velocity":43,"Duration":55251,"SoundDuration":55251,"Delta":40832743},{"NoteNumber":79,"Velocity":37,"Duration":54186,"SoundDuration":54186,"Delta":40887994},{"NoteNumber":71,"Velocity":20,"Duration":108247,"SoundDuration":108247,"Delta":40940829},{"NoteNumber":77,"Velocity":45,"Duration":54054,"SoundDuration":54054,"Delta":40942181},{"NoteNumber":79,"Velocity":34,"Duration":54200,"SoundDuration":54200,"Delta":40996235},{"NoteNumber":62,"Velocity":25,"Duration":108814,"SoundDuration":108814,"Delta":41049077},{"NoteNumber":77,"Velocity":43,"Duration":54347,"SoundDuration":54347,"Delta":41050436},{"NoteNumber":79,"Velocity":40,"Duration":54496,"SoundDuration":54496,"Delta":41106142},{"NoteNumber":67,"Velocity":22,"Duration":112650,"SoundDuration":112650,"Delta":41157892},{"NoteNumber":77,"Velocity":45,"Duration":52780,"SoundDuration":52780,"Delta":41160639},{"NoteNumber":76,"Velocity":44,"Duration":86226,"SoundDuration":86226,"Delta":41213419},{"NoteNumber":71,"Velocity":21,"Duration":117809,"SoundDuration":117809,"Delta":41270542},{"NoteNumber":77,"Velocity":44,"Duration":88705,"SoundDuration":88705,"Delta":41299646},{"NoteNumber":76,"Velocity":45,"Duration":110497,"SoundDuration":110497,"Delta":41388351},{"NoteNumber":60,"Velocity":37,"Duration":165745,"SoundDuration":165745,"Delta":41388351},{"NoteNumber":79,"Velocity":50,"Duration":110497,"SoundDuration":110497,"Delta":41498848},{"NoteNumber":77,"Velocity":42,"Duration":110497,"SoundDuration":110497,"Delta":41609345},{"NoteNumber":76,"Velocity":44,"Duration":110497,"SoundDuration":110497,"Delta":41719843},{"NoteNumber":74,"Velocity":42,"Duration":110497,"SoundDuration":110497,"Delta":41830340},{"NoteNumber":72,"Velocity":40,"Duration":129032,"SoundDuration":129032,"Delta":41940837},{"NoteNumber":77,"Velocity":45,"Duration":108347,"SoundDuration":108347,"Delta":42069869},{"NoteNumber":59,"Velocity":30,"Duration":162606,"SoundDuration":162606,"Delta":42069869},{"NoteNumber":81,"Velocity":55,"Duration":108607,"SoundDuration":108607,"Delta":42178216},{"NoteNumber":79,"Velocity":51,"Duration":109259,"SoundDuration":109259,"Delta":42286824},{"NoteNumber":77,"Velocity":53,"Duration":109830,"SoundDuration":109830,"Delta":42396084},{"NoteNumber":59,"Velocity":33,"Duration":165078,"SoundDuration":165078,"Delta":42396084},{"NoteNumber":76,"Velocity":46,"Duration":110497,"SoundDuration":110497,"Delta":42505914},{"NoteNumber":74,"Velocity":46,"Duration":111111,"SoundDuration":111111,"Delta":42616411},{"NoteNumber":76,"Velocity":53,"Duration":110497,"SoundDuration":110497,"Delta":42727523},{"NoteNumber":60,"Velocity":43,"Duration":165745,"SoundDuration":165745,"Delta":42727523},{"NoteNumber":79,"Velocity":58,"Duration":110497,"SoundDuration":110497,"Delta":42838020},{"NoteNumber":77,"Velocity":49,"Duration":110497,"SoundDuration":110497,"Delta":42948517},{"NoteNumber":76,"Velocity":52,"Duration":110497,"SoundDuration":110497,"Delta":43059014},{"NoteNumber":74,"Velocity":49,"Duration":110497,"SoundDuration":110497,"Delta":43169511},{"NoteNumber":72,"Velocity":47,"Duration":131579,"SoundDuration":131579,"Delta":43280008},{"NoteNumber":77,"Velocity":53,"Duration":108875,"SoundDuration":108875,"Delta":43411587},{"NoteNumber":59,"Velocity":35,"Duration":163431,"SoundDuration":163431,"Delta":43411587},{"NoteNumber":81,"Velocity":59,"Duration":109200,"SoundDuration":109200,"Delta":43520463},{"NoteNumber":79,"Velocity":59,"Duration":109860,"SoundDuration":109860,"Delta":43629664},{"NoteNumber":77,"Velocity":61,"Duration":110436,"SoundDuration":110436,"Delta":43739524},{"NoteNumber":59,"Velocity":39,"Duration":165992,"SoundDuration":165992,"Delta":43739524},{"NoteNumber":76,"Velocity":53,"Duration":111111,"SoundDuration":111111,"Delta":43849960},{"NoteNumber":74,"Velocity":53,"Duration":111732,"SoundDuration":111732,"Delta":43961072},{"NoteNumber":76,"Velocity":61,"Duration":109950,"SoundDuration":109950,"Delta":44072804},{"NoteNumber":60,"Velocity":50,"Duration":164895,"SoundDuration":164895,"Delta":44072804},{"NoteNumber":79,"Velocity":65,"Duration":109890,"SoundDuration":109890,"Delta":44182755},{"NoteNumber":77,"Velocity":56,"Duration":109890,"SoundDuration":109890,"Delta":44292645},{"NoteNumber":76,"Velocity":60,"Duration":109890,"SoundDuration":109890,"Delta":44402535},{"NoteNumber":74,"Velocity":56,"Duration":109890,"SoundDuration":109890,"Delta":44512425},{"NoteNumber":72,"Velocity":54,"Duration":135135,"SoundDuration":135135,"Delta":44622315},{"NoteNumber":82,"Velocity":63,"Duration":109890,"SoundDuration":109890,"Delta":44757451},{"NoteNumber":52,"Velocity":46,"Duration":164835,"SoundDuration":164835,"Delta":44757451},{"NoteNumber":60,"Velocity":53,"Duration":164835,"SoundDuration":164835,"Delta":44757451},{"NoteNumber":86,"Velocity":75,"Duration":109890,"SoundDuration":109890,"Delta":44867341},{"NoteNumber":84,"Velocity":69,"Duration":109890,"SoundDuration":109890,"Delta":44977231},{"NoteNumber":82,"Velocity":70,"Duration":109890,"SoundDuration":109890,"Delta":45087121},{"NoteNumber":52,"Velocity":47,"Duration":164835,"SoundDuration":164835,"Delta":45087121},{"NoteNumber":60,"Velocity":54,"Duration":164835,"SoundDuration":164835,"Delta":45087121},{"NoteNumber":81,"Velocity":60,"Duration":109890,"SoundDuration":109890,"Delta":45197011},{"NoteNumber":79,"Velocity":60,"Duration":121951,"SoundDuration":121951,"Delta":45306901},{"NoteNumber":81,"Velocity":63,"Duration":116959,"SoundDuration":116959,"Delta":45428853},{"NoteNumber":53,"Velocity":46,"Duration":171306,"SoundDuration":171306,"Delta":45428853},{"NoteNumber":60,"Velocity":53,"Duration":171306,"SoundDuration":171306,"Delta":45428853},{"NoteNumber":83,"Velocity":70,"Duration":108695,"SoundDuration":108695,"Delta":45545812},{"NoteNumber":84,"Velocity":69,"Duration":108695,"SoundDuration":108695,"Delta":45654507},{"NoteNumber":83,"Velocity":62,"Duration":108695,"SoundDuration":108695,"Delta":45763203},{"NoteNumber":81,"Velocity":60,"Duration":108695,"SoundDuration":108695,"Delta":45871899},{"NoteNumber":79,"Velocity":60,"Duration":108695,"SoundDuration":108695,"Delta":45980594},{"NoteNumber":77,"Velocity":66,"Duration":107763,"SoundDuration":107763,"Delta":46089290},{"NoteNumber":53,"Velocity":44,"Duration":161817,"SoundDuration":161817,"Delta":46089290},{"NoteNumber":76,"Velocity":64,"Duration":108255,"SoundDuration":108255,"Delta":46197053},{"NoteNumber":74,"Velocity":61,"Duration":108903,"SoundDuration":108903,"Delta":46305308},{"NoteNumber":72,"Velocity":61,"Duration":109649,"SoundDuration":109649,"Delta":46414212},{"NoteNumber":54,"Velocity":37,"Duration":164716,"SoundDuration":164716,"Delta":46414212},{"NoteNumber":71,"Velocity":53,"Duration":110315,"SoundDuration":110315,"Delta":46523862},{"NoteNumber":69,"Velocity":48,"Duration":110716,"SoundDuration":110716,"Delta":46634177},{"NoteNumber":67,"Velocity":58,"Duration":505617,"SoundDuration":505617,"Delta":46744893},{"NoteNumber":55,"Velocity":28,"Duration":112359,"SoundDuration":112359,"Delta":46744893},{"NoteNumber":60,"Velocity":21,"Duration":112359,"SoundDuration":112359,"Delta":46857252},{"NoteNumber":64,"Velocity":21,"Duration":112359,"SoundDuration":112359,"Delta":46969612},{"NoteNumber":55,"Velocity":26,"Duration":112359,"SoundDuration":112359,"Delta":47081971},{"NoteNumber":60,"Velocity":24,"Duration":112359,"SoundDuration":112359,"Delta":47194331},{"NoteNumber":72,"Velocity":39,"Duration":86119,"SoundDuration":86119,"Delta":47250511},{"NoteNumber":64,"Velocity":21,"Duration":119445,"SoundDuration":119445,"Delta":47306690},{"NoteNumber":74,"Velocity":38,"Duration":89505,"SoundDuration":89505,"Delta":47336630},{"NoteNumber":74,"Velocity":47,"Duration":57948,"SoundDuration":57948,"Delta":47426136},{"NoteNumber":55,"Velocity":27,"Duration":114528,"SoundDuration":114528,"Delta":47426136},{"NoteNumber":76,"Velocity":37,"Duration":56579,"SoundDuration":56579,"Delta":47484084},{"NoteNumber":59,"Velocity":21,"Duration":109483,"SoundDuration":109483,"Delta":47540664},{"NoteNumber":74,"Velocity":43,"Duration":55251,"SoundDuration":55251,"Delta":47542061},{"NoteNumber":76,"Velocity":37,"Duration":54186,"SoundDuration":54186,"Delta":47597312},{"NoteNumber":62,"Velocity":21,"Duration":108247,"SoundDuration":108247,"Delta":47650147},{"NoteNumber":74,"Velocity":45,"Duration":54054,"SoundDuration":54054,"Delta":47651499},{"NoteNumber":76,"Velocity":34,"Duration":54200,"SoundDuration":54200,"Delta":47705553},{"NoteNumber":55,"Velocity":25,"Duration":108814,"SoundDuration":108814,"Delta":47758395},{"NoteNumber":74,"Velocity":43,"Duration":54347,"SoundDuration":54347,"Delta":47759754},{"NoteNumber":76,"Velocity":40,"Duration":54496,"SoundDuration":54496,"Delta":47815460},{"NoteNumber":59,"Velocity":22,"Duration":112650,"SoundDuration":112650,"Delta":47867210},{"NoteNumber":74,"Velocity":45,"Duration":52780,"SoundDuration":52780,"Delta":47869957},{"NoteNumber":72,"Velocity":44,"Duration":86226,"SoundDuration":86226,"Delta":47922737},{"NoteNumber":62,"Velocity":21,"Duration":117809,"SoundDuration":117809,"Delta":47979860},{"NoteNumber":74,"Velocity":44,"Duration":88705,"SoundDuration":88705,"Delta":48008964},{"NoteNumber":76,"Velocity":51,"Duration":110497,"SoundDuration":110497,"Delta":48097669},{"NoteNumber":60,"Velocity":42,"Duration":165745,"SoundDuration":165745,"Delta":48097669},{"NoteNumber":77,"Velocity":43,"Duration":110497,"SoundDuration":110497,"Delta":48208166},{"NoteNumber":79,"Velocity":42,"Duration":110497,"SoundDuration":110497,"Delta":48318664},{"NoteNumber":72,"Velocity":47,"Duration":110497,"SoundDuration":110497,"Delta":48429161},{"NoteNumber":74,"Velocity":42,"Duration":110497,"SoundDuration":110497,"Delta":48539658},{"NoteNumber":76,"Velocity":40,"Duration":124223,"SoundDuration":124223,"Delta":48650155},{"NoteNumber":77,"Velocity":51,"Duration":166666,"SoundDuration":166666,"Delta":48774379},{"NoteNumber":59,"Velocity":36,"Duration":111111,"SoundDuration":111111,"Delta":48774379},{"NoteNumber":60,"Velocity":26,"Duration":111111,"SoundDuration":111111,"Delta":48885490},{"NoteNumber":62,"Velocity":26,"Duration":111111,"SoundDuration":111111,"Delta":48996601},{"NoteNumber":55,"Velocity":36,"Duration":111111,"SoundDuration":111111,"Delta":49107712},{"NoteNumber":57,"Velocity":31,"Duration":111111,"SoundDuration":111111,"Delta":49218823},{"NoteNumber":59,"Velocity":31,"Duration":125000,"SoundDuration":125000,"Delta":49329935},{"NoteNumber":76,"Velocity":51,"Duration":110497,"SoundDuration":110497,"Delta":49454935},{"NoteNumber":60,"Velocity":43,"Duration":165745,"SoundDuration":165745,"Delta":49454935},{"NoteNumber":77,"Velocity":43,"Duration":110497,"SoundDuration":110497,"Delta":49565432},{"NoteNumber":79,"Velocity":42,"Duration":110497,"SoundDuration":110497,"Delta":49675929},{"NoteNumber":72,"Velocity":47,"Duration":110497,"SoundDuration":110497,"Delta":49786426},{"NoteNumber":74,"Velocity":42,"Duration":110497,"SoundDuration":110497,"Delta":49896923},{"NoteNumber":76,"Velocity":40,"Duration":124223,"SoundDuration":124223,"Delta":50007420},{"NoteNumber":77,"Velocity":51,"Duration":166666,"SoundDuration":166666,"Delta":50131644},{"NoteNumber":59,"Velocity":36,"Duration":111111,"SoundDuration":111111,"Delta":50131644},{"NoteNumber":60,"Velocity":26,"Duration":111111,"SoundDuration":111111,"Delta":50242755},{"NoteNumber":62,"Velocity":26,"Duration":111111,"SoundDuration":111111,"Delta":50353866},{"NoteNumber":55,"Velocity":36,"Duration":111111,"SoundDuration":111111,"Delta":50464978},{"NoteNumber":57,"Velocity":31,"Duration":111111,"SoundDuration":111111,"Delta":50576089},{"NoteNumber":59,"Velocity":31,"Duration":125000,"SoundDuration":125000,"Delta":50687200},{"NoteNumber":76,"Velocity":51,"Duration":110497,"SoundDuration":110497,"Delta":50812200},{"NoteNumber":60,"Velocity":37,"Duration":331491,"SoundDuration":331491,"Delta":50812200},{"NoteNumber":79,"Velocity":44,"Duration":110497,"SoundDuration":110497,"Delta":50922697},{"NoteNumber":76,"Velocity":44,"Duration":110497,"SoundDuration":110497,"Delta":51033194},{"NoteNumber":72,"Velocity":51,"Duration":110497,"SoundDuration":110497,"Delta":51143691},{"NoteNumber":52,"Velocity":40,"Duration":345218,"SoundDuration":345218,"Delta":51143691},{"NoteNumber":76,"Velocity":47,"Duration":110497,"SoundDuration":110497,"Delta":51254189},{"NoteNumber":72,"Velocity":46,"Duration":124223,"SoundDuration":124223,"Delta":51364686},{"NoteNumber":69,"Velocity":61,"Duration":110497,"SoundDuration":110497,"Delta":51488909},{"NoteNumber":53,"Velocity":44,"Duration":331491,"SoundDuration":331491,"Delta":51488909},{"NoteNumber":72,"Velocity":52,"Duration":110497,"SoundDuration":110497,"Delta":51599407},{"NoteNumber":69,"Velocity":52,"Duration":110497,"SoundDuration":110497,"Delta":51709904},{"NoteNumber":65,"Velocity":61,"Duration":110497,"SoundDuration":110497,"Delta":51820401},{"NoteNumber":53,"Velocity":48,"Duration":345218,"SoundDuration":345218,"Delta":51820401},{"NoteNumber":69,"Velocity":55,"Duration":110497,"SoundDuration":110497,"Delta":51930898},{"NoteNumber":65,"Velocity":54,"Duration":124223,"SoundDuration":124223,"Delta":52041395},{"NoteNumber":64,"Velocity":65,"Duration":110497,"SoundDuration":110497,"Delta":52165619},{"NoteNumber":55,"Velocity":58,"Duration":165745,"SoundDuration":165745,"Delta":52165619},{"NoteNumber":67,"Velocity":55,"Duration":110497,"SoundDuration":110497,"Delta":52276116},{"NoteNumber":65,"Velocity":58,"Duration":110497,"SoundDuration":110497,"Delta":52386613},{"NoteNumber":64,"Velocity":65,"Duration":110497,"SoundDuration":110497,"Delta":52497110},{"NoteNumber":55,"Velocity":51,"Duration":165745,"SoundDuration":165745,"Delta":52497110},{"NoteNumber":62,"Velocity":58,"Duration":110497,"SoundDuration":110497,"Delta":52607608},{"NoteNumber":60,"Velocity":56,"Duration":124223,"SoundDuration":124223,"Delta":52718105},{"NoteNumber":62,"Velocity":65,"Duration":57948,"SoundDuration":57948,"Delta":52842328},{"NoteNumber":43,"Velocity":58,"Duration":169810,"SoundDuration":169810,"Delta":52842328},{"NoteNumber":64,"Velocity":51,"Duration":56579,"SoundDuration":56579,"Delta":52900277},{"NoteNumber":62,"Velocity":60,"Duration":55251,"SoundDuration":55251,"Delta":52958253},{"NoteNumber":64,"Velocity":51,"Duration":54186,"SoundDuration":54186,"Delta":53013505},{"NoteNumber":62,"Velocity":63,"Duration":54054,"SoundDuration":54054,"Delta":53067691},{"NoteNumber":64,"Velocity":47,"Duration":54200,"SoundDuration":54200,"Delta":53121746},{"NoteNumber":43,"Velocity":55,"Duration":164342,"SoundDuration":164342,"Delta":53174588},{"NoteNumber":62,"Velocity":60,"Duration":54347,"SoundDuration":54347,"Delta":53175946},{"NoteNumber":64,"Velocity":56,"Duration":54496,"SoundDuration":54496,"Delta":53231653},{"NoteNumber":62,"Velocity":63,"Duration":52780,"SoundDuration":52780,"Delta":53286150},{"NoteNumber":60,"Velocity":61,"Duration":86226,"SoundDuration":86226,"Delta":53338930},{"NoteNumber":62,"Velocity":61,"Duration":88705,"SoundDuration":88705,"Delta":53425157},{"NoteNumber":64,"Velocity":71,"Duration":110497,"SoundDuration":110497,"Delta":53513862},{"NoteNumber":48,"Velocity":55,"Duration":165745,"SoundDuration":165745,"Delta":53513862},{"NoteNumber":65,"Velocity":60,"Duration":110497,"SoundDuration":110497,"Delta":53624359},{"NoteNumber":67,"Velocity":58,"Duration":110497,"SoundDuration":110497,"Delta":53734856},{"NoteNumber":60,"Velocity":65,"Duration":110497,"SoundDuration":110497,"Delta":53845354},{"NoteNumber":62,"Velocity":58,"Duration":110497,"SoundDuration":110497,"Delta":53955851},{"NoteNumber":64,"Velocity":56,"Duration":124223,"SoundDuration":124223,"Delta":54066348},{"NoteNumber":65,"Velocity":71,"Duration":166666,"SoundDuration":166666,"Delta":54190572},{"NoteNumber":47,"Velocity":56,"Duration":111111,"SoundDuration":111111,"Delta":54190572},{"NoteNumber":48,"Velocity":42,"Duration":111111,"SoundDuration":111111,"Delta":54301683},{"NoteNumber":50,"Velocity":44,"Duration":111111,"SoundDuration":111111,"Delta":54412794},{"NoteNumber":43,"Velocity":56,"Duration":111111,"SoundDuration":111111,"Delta":54523905},{"NoteNumber":45,"Velocity":48,"Duration":111111,"SoundDuration":111111,"Delta":54635016},{"NoteNumber":47,"Velocity":46,"Duration":125000,"SoundDuration":125000,"Delta":54746127},{"NoteNumber":64,"Velocity":71,"Duration":110497,"SoundDuration":110497,"Delta":54871127},{"NoteNumber":48,"Velocity":57,"Duration":165745,"SoundDuration":165745,"Delta":54871127},{"NoteNumber":65,"Velocity":60,"Duration":110497,"SoundDuration":110497,"Delta":54981625},{"NoteNumber":67,"Velocity":58,"Duration":110497,"SoundDuration":110497,"Delta":55092122},{"NoteNumber":60,"Velocity":65,"Duration":110497,"SoundDuration":110497,"Delta":55202619},{"NoteNumber":62,"Velocity":58,"Duration":110497,"SoundDuration":110497,"Delta":55313116},{"NoteNumber":64,"Velocity":56,"Duration":124223,"SoundDuration":124223,"Delta":55423613},{"NoteNumber":65,"Velocity":71,"Duration":166666,"SoundDuration":166666,"Delta":55547837},{"NoteNumber":47,"Velocity":56,"Duration":111111,"SoundDuration":111111,"Delta":55547837},{"NoteNumber":48,"Velocity":42,"Duration":111111,"SoundDuration":111111,"Delta":55658948},{"NoteNumber":50,"Velocity":39,"Duration":111111,"SoundDuration":111111,"Delta":55770059},{"NoteNumber":43,"Velocity":56,"Duration":111111,"SoundDuration":111111,"Delta":55881170},{"NoteNumber":45,"Velocity":48,"Duration":111111,"SoundDuration":111111,"Delta":55992282},{"NoteNumber":47,"Velocity":42,"Duration":125000,"SoundDuration":125000,"Delta":56103393},{"NoteNumber":64,"Velocity":67,"Duration":110497,"SoundDuration":110497,"Delta":56228393},{"NoteNumber":48,"Velocity":48,"Duration":165745,"SoundDuration":165745,"Delta":56228393},{"NoteNumber":67,"Velocity":57,"Duration":110497,"SoundDuration":110497,"Delta":56338890},{"NoteNumber":72,"Velocity":55,"Duration":110497,"SoundDuration":110497,"Delta":56449387},{"NoteNumber":76,"Velocity":61,"Duration":110497,"SoundDuration":110497,"Delta":56559884},{"NoteNumber":48,"Velocity":47,"Duration":165745,"SoundDuration":165745,"Delta":56559884},{"NoteNumber":36,"Velocity":39,"Duration":165745,"SoundDuration":165745,"Delta":56559884},{"NoteNumber":72,"Velocity":55,"Duration":110497,"SoundDuration":110497,"Delta":56670381},{"NoteNumber":67,"Velocity":53,"Duration":124223,"SoundDuration":124223,"Delta":56780879},{"NoteNumber":64,"Velocity":67,"Duration":110497,"SoundDuration":110497,"Delta":56905102},{"NoteNumber":69,"Velocity":57,"Duration":110497,"SoundDuration":110497,"Delta":57015599},{"NoteNumber":72,"Velocity":55,"Duration":110497,"SoundDuration":110497,"Delta":57126097},{"NoteNumber":76,"Velocity":61,"Duration":110497,"SoundDuration":110497,"Delta":57236594},{"NoteNumber":57,"Velocity":47,"Duration":165745,"SoundDuration":165745,"Delta":57236594},{"NoteNumber":45,"Velocity":39,"Duration":165745,"SoundDuration":165745,"Delta":57236594},{"NoteNumber":72,"Velocity":55,"Duration":110497,"SoundDuration":110497,"Delta":57347091},{"NoteNumber":69,"Velocity":53,"Duration":124223,"SoundDuration":124223,"Delta":57457588},{"NoteNumber":62,"Velocity":67,"Duration":110497,"SoundDuration":110497,"Delta":57581812},{"NoteNumber":65,"Velocity":57,"Duration":110497,"SoundDuration":110497,"Delta":57692309},{"NoteNumber":69,"Velocity":55,"Duration":110497,"SoundDuration":110497,"Delta":57802806},{"NoteNumber":74,"Velocity":61,"Duration":110497,"SoundDuration":110497,"Delta":57913303},{"NoteNumber":53,"Velocity":47,"Duration":165745,"SoundDuration":165745,"Delta":57913303},{"NoteNumber":41,"Velocity":39,"Duration":165745,"SoundDuration":165745,"Delta":57913303},{"NoteNumber":69,"Velocity":55,"Duration":110497,"SoundDuration":110497,"Delta":58023800},{"NoteNumber":65,"Velocity":53,"Duration":124223,"SoundDuration":124223,"Delta":58134298},{"NoteNumber":62,"Velocity":67,"Duration":110497,"SoundDuration":110497,"Delta":58258521},{"NoteNumber":65,"Velocity":57,"Duration":110497,"SoundDuration":110497,"Delta":58369018},{"NoteNumber":67,"Velocity":55,"Duration":110497,"SoundDuration":110497,"Delta":58479516},{"NoteNumber":71,"Velocity":61,"Duration":110497,"SoundDuration":110497,"Delta":58590013},{"NoteNumber":55,"Velocity":47,"Duration":165745,"SoundDuration":165745,"Delta":58590013},{"NoteNumber":43,"Velocity":39,"Duration":165745,"SoundDuration":165745,"Delta":58590013},{"NoteNumber":67,"Velocity":55,"Duration":110497,"SoundDuration":110497,"Delta":58700510},{"NoteNumber":65,"Velocity":53,"Duration":124223,"SoundDuration":124223,"Delta":58811007},{"NoteNumber":64,"Velocity":78,"Duration":111111,"SoundDuration":111111,"Delta":58935231},{"NoteNumber":67,"Velocity":66,"Duration":111111,"SoundDuration":111111,"Delta":59046342},{"NoteNumber":72,"Velocity":63,"Duration":109890,"SoundDuration":109890,"Delta":59157453},{"NoteNumber":76,"Velocity":71,"Duration":109890,"SoundDuration":109890,"Delta":59267343},{"NoteNumber":60,"Velocity":55,"Duration":164835,"SoundDuration":164835,"Delta":59267343},{"NoteNumber":48,"Velocity":46,"Duration":164835,"SoundDuration":164835,"Delta":59267343},{"NoteNumber":72,"Velocity":63,"Duration":109890,"SoundDuration":109890,"Delta":59377233},{"NoteNumber":67,"Velocity":61,"Duration":116279,"SoundDuration":116279,"Delta":59487124},{"NoteNumber":64,"Velocity":78,"Duration":111111,"SoundDuration":111111,"Delta":59603403},{"NoteNumber":69,"Velocity":66,"Duration":111111,"SoundDuration":111111,"Delta":59714514},{"NoteNumber":72,"Velocity":63,"Duration":109890,"SoundDuration":109890,"Delta":59825625},{"NoteNumber":76,"Velocity":71,"Duration":109890,"SoundDuration":109890,"Delta":59935515},{"NoteNumber":57,"Velocity":55,"Duration":164835,"SoundDuration":164835,"Delta":59935515},{"NoteNumber":45,"Velocity":46,"Duration":164835,"SoundDuration":164835,"Delta":59935515},{"NoteNumber":72,"Velocity":63,"Duration":109890,"SoundDuration":109890,"Delta":60045405},{"NoteNumber":69,"Velocity":61,"Duration":124223,"SoundDuration":124223,"Delta":60155295},{"NoteNumber":69,"Velocity":78,"Duration":110497,"SoundDuration":110497,"Delta":60279519},{"NoteNumber":41,"Velocity":50,"Duration":165745,"SoundDuration":165745,"Delta":60279519},{"NoteNumber":53,"Velocity":60,"Duration":165745,"SoundDuration":165745,"Delta":60279519},{"NoteNumber":74,"Velocity":66,"Duration":110497,"SoundDuration":110497,"Delta":60390016},{"NoteNumber":77,"Velocity":63,"Duration":110497,"SoundDuration":110497,"Delta":60500513},{"NoteNumber":81,"Velocity":71,"Duration":108695,"SoundDuration":108695,"Delta":60611011},{"NoteNumber":53,"Velocity":55,"Duration":163043,"SoundDuration":163043,"Delta":60611011},{"NoteNumber":41,"Velocity":46,"Duration":163043,"SoundDuration":163043,"Delta":60611011},{"NoteNumber":77,"Velocity":63,"Duration":108695,"SoundDuration":108695,"Delta":60719706},{"NoteNumber":74,"Velocity":61,"Duration":114942,"SoundDuration":114942,"Delta":60828402},{"NoteNumber":67,"Velocity":78,"Duration":110497,"SoundDuration":110497,"Delta":60943344},{"NoteNumber":43,"Velocity":50,"Duration":165745,"SoundDuration":165745,"Delta":60943344},{"NoteNumber":55,"Velocity":60,"Duration":165745,"SoundDuration":165745,"Delta":60943344},{"NoteNumber":71,"Velocity":66,"Duration":110497,"SoundDuration":110497,"Delta":61053842},{"NoteNumber":74,"Velocity":63,"Duration":108108,"SoundDuration":108108,"Delta":61164339},{"NoteNumber":79,"Velocity":71,"Duration":108108,"SoundDuration":108108,"Delta":61272447},{"NoteNumber":55,"Velocity":55,"Duration":162162,"SoundDuration":162162,"Delta":61272447},{"NoteNumber":43,"Velocity":46,"Duration":162162,"SoundDuration":162162,"Delta":61272447},{"NoteNumber":74,"Velocity":63,"Duration":108108,"SoundDuration":108108,"Delta":61380555},{"NoteNumber":71,"Velocity":61,"Duration":124223,"SoundDuration":124223,"Delta":61488663},{"NoteNumber":72,"Velocity":70,"Duration":108695,"SoundDuration":108695,"Delta":61612887},{"NoteNumber":36,"Velocity":51,"Duration":1332068,"SoundDuration":1332068,"Delta":61612887},{"NoteNumber":48,"Velocity":60,"Duration":1332068,"SoundDuration":1332068,"Delta":61612887},{"NoteNumber":71,"Velocity":64,"Duration":108695,"SoundDuration":108695,"Delta":61721583},{"NoteNumber":72,"Velocity":58,"Duration":109289,"SoundDuration":109289,"Delta":61830278},{"NoteNumber":76,"Velocity":70,"Duration":109686,"SoundDuration":109686,"Delta":61939568},{"NoteNumber":74,"Velocity":61,"Duration":109762,"SoundDuration":109762,"Delta":62049254},{"NoteNumber":72,"Velocity":61,"Duration":110337,"SoundDuration":110337,"Delta":62159017},{"NoteNumber":71,"Velocity":66,"Duration":111011,"SoundDuration":111011,"Delta":62269355},{"NoteNumber":69,"Velocity":61,"Duration":111599,"SoundDuration":111599,"Delta":62380366},{"NoteNumber":67,"Velocity":57,"Duration":112288,"SoundDuration":112288,"Delta":62491966},{"NoteNumber":65,"Velocity":65,"Duration":112891,"SoundDuration":112891,"Delta":62604255},{"NoteNumber":64,"Velocity":59,"Duration":113596,"SoundDuration":113596,"Delta":62717146},{"NoteNumber":62,"Velocity":56,"Duration":114212,"SoundDuration":114212,"Delta":62830742},{"NoteNumber":60,"Velocity":70,"Duration":109890,"SoundDuration":109890,"Delta":62944955},{"NoteNumber":36,"Velocity":51,"Duration":1335057,"SoundDuration":1335057,"Delta":62944955},{"NoteNumber":48,"Velocity":60,"Duration":1335057,"SoundDuration":1335057,"Delta":62944955},{"NoteNumber":59,"Velocity":64,"Duration":109890,"SoundDuration":109890,"Delta":63054845},{"NoteNumber":60,"Velocity":61,"Duration":109890,"SoundDuration":109890,"Delta":63164735},{"NoteNumber":64,"Velocity":70,"Duration":109686,"SoundDuration":109686,"Delta":63274625},{"NoteNumber":62,"Velocity":63,"Duration":109762,"SoundDuration":109762,"Delta":63384312},{"NoteNumber":60,"Velocity":63,"Duration":110337,"SoundDuration":110337,"Delta":63494075},{"NoteNumber":59,"Velocity":66,"Duration":111011,"SoundDuration":111011,"Delta":63604412},{"NoteNumber":57,"Velocity":61,"Duration":111599,"SoundDuration":111599,"Delta":63715424},{"NoteNumber":55,"Velocity":58,"Duration":112288,"SoundDuration":112288,"Delta":63827024},{"NoteNumber":53,"Velocity":65,"Duration":112891,"SoundDuration":112891,"Delta":63939313},{"NoteNumber":52,"Velocity":59,"Duration":113596,"SoundDuration":113596,"Delta":64052204},{"NoteNumber":50,"Velocity":59,"Duration":114212,"SoundDuration":114212,"Delta":64165800},{"NoteNumber":48,"Velocity":84,"Duration":94339,"SoundDuration":94339,"Delta":64280013},{"NoteNumber":36,"Velocity":71,"Duration":94339,"SoundDuration":94339,"Delta":64280013},{"NoteNumber":36,"Velocity":62,"Duration":86705,"SoundDuration":86705,"Delta":64657371},{"NoteNumber":48,"Velocity":74,"Duration":86705,"SoundDuration":86705,"Delta":64657371},{"NoteNumber":64,"Velocity":61,"Duration":110188,"SoundDuration":110188,"Delta":65004192},{"NoteNumber":62,"Velocity":50,"Duration":111097,"SoundDuration":111097,"Delta":65114381},{"NoteNumber":60,"Velocity":50,"Duration":112100,"SoundDuration":112100,"Delta":65225478},{"NoteNumber":67,"Velocity":55,"Duration":113235,"SoundDuration":113235,"Delta":65337578},{"NoteNumber":65,"Velocity":47,"Duration":114270,"SoundDuration":114270,"Delta":65450813},{"NoteNumber":64,"Velocity":47,"Duration":145985,"SoundDuration":145985,"Delta":65565084},{"NoteNumber":70,"Velocity":55,"Duration":94339,"SoundDuration":94339,"Delta":65711070},{"NoteNumber":36,"Velocity":45,"Duration":94339,"SoundDuration":94339,"Delta":65711070},{"NoteNumber":48,"Velocity":54,"Duration":94339,"SoundDuration":94339,"Delta":65711070},{"NoteNumber":48,"Velocity":47,"Duration":94339,"SoundDuration":94339,"Delta":66088428},{"NoteNumber":36,"Velocity":39,"Duration":94339,"SoundDuration":94339,"Delta":66088428},{"NoteNumber":76,"Velocity":53,"Duration":115744,"SoundDuration":115744,"Delta":66465362},{"NoteNumber":74,"Velocity":42,"Duration":118413,"SoundDuration":118413,"Delta":66581107},{"NoteNumber":72,"Velocity":39,"Duration":131631,"SoundDuration":131631,"Delta":66699520},{"NoteNumber":79,"Velocity":48,"Duration":135638,"SoundDuration":135638,"Delta":66831151},{"NoteNumber":77,"Velocity":37,"Duration":141046,"SoundDuration":141046,"Delta":66966790},{"NoteNumber":76,"Velocity":37,"Duration":156250,"SoundDuration":156250,"Delta":67107836},{"NoteNumber":82,"Velocity":47,"Duration":110294,"SoundDuration":110294,"Delta":67264086},{"NoteNumber":67,"Velocity":33,"Duration":110294,"SoundDuration":110294,"Delta":67264086},{"NoteNumber":60,"Velocity":27,"Duration":110294,"SoundDuration":110294,"Delta":67264086},{"NoteNumber":64,"Velocity":27,"Duration":110294,"SoundDuration":110294,"Delta":67264086},{"NoteNumber":67,"Velocity":28,"Duration":110294,"SoundDuration":110294,"Delta":67705263},{"NoteNumber":60,"Velocity":24,"Duration":110294,"SoundDuration":110294,"Delta":67705263},{"NoteNumber":64,"Velocity":24,"Duration":110294,"SoundDuration":110294,"Delta":67705263},{"NoteNumber":77,"Velocity":45,"Duration":114285,"SoundDuration":114285,"Delta":69565695},{"NoteNumber":79,"Velocity":38,"Duration":113936,"SoundDuration":113936,"Delta":69679981},{"NoteNumber":81,"Velocity":38,"Duration":113636,"SoundDuration":113636,"Delta":69793917},{"NoteNumber":77,"Velocity":44,"Duration":113090,"SoundDuration":113090,"Delta":69907554},{"NoteNumber":79,"Velocity":37,"Duration":112883,"SoundDuration":112883,"Delta":70020644},{"NoteNumber":81,"Velocity":37,"Duration":125000,"SoundDuration":125000,"Delta":70133528},{"NoteNumber":72,"Velocity":45,"Duration":85227,"SoundDuration":85227,"Delta":70258528},{"NoteNumber":69,"Velocity":36,"Duration":85227,"SoundDuration":85227,"Delta":70258528},{"NoteNumber":65,"Velocity":30,"Duration":85227,"SoundDuration":85227,"Delta":70258528},{"NoteNumber":72,"Velocity":45,"Duration":85227,"SoundDuration":85227,"Delta":70599437},{"NoteNumber":69,"Velocity":36,"Duration":85227,"SoundDuration":85227,"Delta":70599437},{"NoteNumber":65,"Velocity":30,"Duration":85227,"SoundDuration":85227,"Delta":70599437},{"NoteNumber":77,"Velocity":45,"Duration":109890,"SoundDuration":109890,"Delta":70940346},{"NoteNumber":79,"Velocity":38,"Duration":109890,"SoundDuration":109890,"Delta":71050236},{"NoteNumber":81,"Velocity":38,"Duration":109890,"SoundDuration":109890,"Delta":71160126},{"NoteNumber":77,"Velocity":44,"Duration":109890,"SoundDuration":109890,"Delta":71270016},{"NoteNumber":79,"Velocity":37,"Duration":109890,"SoundDuration":109890,"Delta":71379906},{"NoteNumber":81,"Velocity":37,"Duration":125000,"SoundDuration":125000,"Delta":71489796},{"NoteNumber":74,"Velocity":45,"Duration":84745,"SoundDuration":84745,"Delta":71614796},{"NoteNumber":70,"Velocity":36,"Duration":84745,"SoundDuration":84745,"Delta":71614796},{"NoteNumber":65,"Velocity":30,"Duration":84745,"SoundDuration":84745,"Delta":71614796},{"NoteNumber":74,"Velocity":45,"Duration":84745,"SoundDuration":84745,"Delta":71953779},{"NoteNumber":70,"Velocity":36,"Duration":84745,"SoundDuration":84745,"Delta":71953779},{"NoteNumber":65,"Velocity":30,"Duration":84745,"SoundDuration":84745,"Delta":71953779},{"NoteNumber":86,"Velocity":53,"Duration":107882,"SoundDuration":107882,"Delta":72292762},{"NoteNumber":84,"Velocity":50,"Duration":107397,"SoundDuration":107397,"Delta":72400645},{"NoteNumber":82,"Velocity":50,"Duration":107999,"SoundDuration":107999,"Delta":72508042},{"NoteNumber":81,"Velocity":55,"Duration":108607,"SoundDuration":108607,"Delta":72616042},{"NoteNumber":79,"Velocity":57,"Duration":109222,"SoundDuration":109222,"Delta":72724649},{"NoteNumber":77,"Velocity":58,"Duration":109981,"SoundDuration":109981,"Delta":72833872},{"NoteNumber":76,"Velocity":63,"Duration":109890,"SoundDuration":109890,"Delta":72943854},{"NoteNumber":60,"Velocity":47,"Duration":1318681,"SoundDuration":1318681,"Delta":72943854},{"NoteNumber":55,"Velocity":39,"Duration":1318681,"SoundDuration":1318681,"Delta":72943854},{"NoteNumber":52,"Velocity":39,"Duration":1318681,"SoundDuration":1318681,"Delta":72943854},{"NoteNumber":48,"Velocity":39,"Duration":1318681,"SoundDuration":1318681,"Delta":72943854},{"NoteNumber":79,"Velocity":57,"Duration":109890,"SoundDuration":109890,"Delta":73053744},{"NoteNumber":77,"Velocity":56,"Duration":109890,"SoundDuration":109890,"Delta":73163634},{"NoteNumber":76,"Velocity":62,"Duration":109890,"SoundDuration":109890,"Delta":73273524},{"NoteNumber":74,"Velocity":54,"Duration":109890,"SoundDuration":109890,"Delta":73383414},{"NoteNumber":72,"Velocity":54,"Duration":109890,"SoundDuration":109890,"Delta":73493304},{"NoteNumber":70,"Velocity":56,"Duration":109890,"SoundDuration":109890,"Delta":73603195},{"NoteNumber":69,"Velocity":50,"Duration":109890,"SoundDuration":109890,"Delta":73713085},{"NoteNumber":67,"Velocity":50,"Duration":109890,"SoundDuration":109890,"Delta":73822975},{"NoteNumber":74,"Velocity":61,"Duration":109890,"SoundDuration":109890,"Delta":73932865},{"NoteNumber":72,"Velocity":53,"Duration":109890,"SoundDuration":109890,"Delta":74042755},{"NoteNumber":70,"Velocity":53,"Duration":109890,"SoundDuration":109890,"Delta":74152645},{"NoteNumber":69,"Velocity":63,"Duration":85714,"SoundDuration":85714,"Delta":74262536},{"NoteNumber":53,"Velocity":41,"Duration":114285,"SoundDuration":114285,"Delta":74262536},{"NoteNumber":57,"Velocity":31,"Duration":114285,"SoundDuration":114285,"Delta":74376821},{"NoteNumber":60,"Velocity":29,"Duration":114285,"SoundDuration":114285,"Delta":74491107},{"NoteNumber":72,"Velocity":57,"Duration":85714,"SoundDuration":85714,"Delta":74605393},{"NoteNumber":53,"Velocity":37,"Duration":114285,"SoundDuration":114285,"Delta":74605393},{"NoteNumber":57,"Velocity":34,"Duration":114285,"SoundDuration":114285,"Delta":74719678},{"NoteNumber":60,"Velocity":25,"Duration":114285,"SoundDuration":114285,"Delta":74833964},{"NoteNumber":53,"Velocity":39,"Duration":110497,"SoundDuration":110497,"Delta":74948250},{"NoteNumber":57,"Velocity":33,"Duration":110497,"SoundDuration":110497,"Delta":75058747},{"NoteNumber":60,"Velocity":30,"Duration":110497,"SoundDuration":110497,"Delta":75169244},{"NoteNumber":84,"Velocity":64,"Duration":331491,"SoundDuration":331491,"Delta":75279741},{"NoteNumber":53,"Velocity":41,"Duration":110497,"SoundDuration":110497,"Delta":75279741},{"NoteNumber":57,"Velocity":32,"Duration":110497,"SoundDuration":110497,"Delta":75390238},{"NoteNumber":60,"Velocity":27,"Duration":110497,"SoundDuration":110497,"Delta":75500735},{"NoteNumber":81,"Velocity":69,"Duration":326087,"SoundDuration":326087,"Delta":75611233},{"NoteNumber":53,"Velocity":41,"Duration":108695,"SoundDuration":108695,"Delta":75611233},{"NoteNumber":57,"Velocity":31,"Duration":108695,"SoundDuration":108695,"Delta":75719928},{"NoteNumber":60,"Velocity":33,"Duration":108695,"SoundDuration":108695,"Delta":75828624},{"NoteNumber":77,"Velocity":63,"Duration":335195,"SoundDuration":335195,"Delta":75937320},{"NoteNumber":53,"Velocity":38,"Duration":111731,"SoundDuration":111731,"Delta":75937320},{"NoteNumber":57,"Velocity":35,"Duration":111731,"SoundDuration":111731,"Delta":76049051},{"NoteNumber":60,"Velocity":30,"Duration":111731,"SoundDuration":111731,"Delta":76160783},{"NoteNumber":74,"Velocity":68,"Duration":328502,"SoundDuration":328502,"Delta":76272515},{"NoteNumber":53,"Velocity":39,"Duration":108695,"SoundDuration":108695,"Delta":76272515},{"NoteNumber":58,"Velocity":30,"Duration":108695,"SoundDuration":108695,"Delta":76381211},{"NoteNumber":62,"Velocity":30,"Duration":111111,"SoundDuration":111111,"Delta":76489906},{"NoteNumber":70,"Velocity":54,"Duration":348804,"SoundDuration":348804,"Delta":76601018},{"NoteNumber":53,"Velocity":37,"Duration":111111,"SoundDuration":111111,"Delta":76601018},{"NoteNumber":58,"Velocity":32,"Duration":111111,"SoundDuration":111111,"Delta":76712129},{"NoteNumber":62,"Velocity":30,"Duration":126582,"SoundDuration":126582,"Delta":76823240},{"NoteNumber":69,"Velocity":58,"Duration":331491,"SoundDuration":331491,"Delta":76949822},{"NoteNumber":53,"Velocity":41,"Duration":110497,"SoundDuration":110497,"Delta":76949822},{"NoteNumber":57,"Velocity":31,"Duration":110497,"SoundDuration":110497,"Delta":77060319},{"NoteNumber":60,"Velocity":23,"Duration":110497,"SoundDuration":110497,"Delta":77170817},{"NoteNumber":72,"Velocity":50,"Duration":331491,"SoundDuration":331491,"Delta":77281314},{"NoteNumber":53,"Velocity":35,"Duration":110497,"SoundDuration":110497,"Delta":77281314},{"NoteNumber":57,"Velocity":27,"Duration":110497,"SoundDuration":110497,"Delta":77391811},{"NoteNumber":60,"Velocity":27,"Duration":110497,"SoundDuration":110497,"Delta":77502308},{"NoteNumber":53,"Velocity":37,"Duration":110497,"SoundDuration":110497,"Delta":77612805},{"NoteNumber":57,"Velocity":31,"Duration":110497,"SoundDuration":110497,"Delta":77723302},{"NoteNumber":60,"Velocity":25,"Duration":110497,"SoundDuration":110497,"Delta":77833800},{"NoteNumber":84,"Velocity":64,"Duration":331491,"SoundDuration":331491,"Delta":77944297},{"NoteNumber":53,"Velocity":41,"Duration":110497,"SoundDuration":110497,"Delta":77944297},{"NoteNumber":57,"Velocity":32,"Duration":110497,"SoundDuration":110497,"Delta":78054794},{"NoteNumber":60,"Velocity":26,"Duration":110497,"SoundDuration":110497,"Delta":78165291},{"NoteNumber":81,"Velocity":69,"Duration":328502,"SoundDuration":328502,"Delta":78275788},{"NoteNumber":53,"Velocity":41,"Duration":111111,"SoundDuration":111111,"Delta":78275788},{"NoteNumber":57,"Velocity":31,"Duration":108695,"SoundDuration":108695,"Delta":78386899},{"NoteNumber":60,"Velocity":27,"Duration":108695,"SoundDuration":108695,"Delta":78495595},{"NoteNumber":77,"Velocity":63,"Duration":333333,"SoundDuration":333333,"Delta":78604291},{"NoteNumber":53,"Velocity":38,"Duration":111111,"SoundDuration":111111,"Delta":78604291},{"NoteNumber":57,"Velocity":35,"Duration":111111,"SoundDuration":111111,"Delta":78715402},{"NoteNumber":60,"Velocity":30,"Duration":111111,"SoundDuration":111111,"Delta":78826513},{"NoteNumber":74,"Velocity":68,"Duration":340565,"SoundDuration":340565,"Delta":78937624},{"NoteNumber":53,"Velocity":39,"Duration":111111,"SoundDuration":111111,"Delta":78937624},{"NoteNumber":59,"Velocity":30,"Duration":111111,"SoundDuration":111111,"Delta":79048735},{"NoteNumber":62,"Velocity":30,"Duration":118343,"SoundDuration":118343,"Delta":79159847},{"NoteNumber":81,"Velocity":54,"Duration":331491,"SoundDuration":331491,"Delta":79278190},{"NoteNumber":53,"Velocity":37,"Duration":110497,"SoundDuration":110497,"Delta":79278190},{"NoteNumber":59,"Velocity":32,"Duration":110497,"SoundDuration":110497,"Delta":79388687},{"NoteNumber":62,"Velocity":30,"Duration":110497,"SoundDuration":110497,"Delta":79499184},{"NoteNumber":79,"Velocity":58,"Duration":82872,"SoundDuration":82872,"Delta":79609681},{"NoteNumber":52,"Velocity":41,"Duration":110497,"SoundDuration":110497,"Delta":79609681},{"NoteNumber":55,"Velocity":31,"Duration":110497,"SoundDuration":110497,"Delta":79720178},{"NoteNumber":60,"Velocity":25,"Duration":110497,"SoundDuration":110497,"Delta":79830676},{"NoteNumber":79,"Velocity":53,"Duration":107526,"SoundDuration":107526,"Delta":79941173},{"NoteNumber":77,"Velocity":49,"Duration":107526,"SoundDuration":107526,"Delta":80048700},{"NoteNumber":76,"Velocity":49,"Duration":107526,"SoundDuration":107526,"Delta":80156226},{"NoteNumber":74,"Velocity":58,"Duration":82872,"SoundDuration":82872,"Delta":80263753},{"NoteNumber":53,"Velocity":41,"Duration":110497,"SoundDuration":110497,"Delta":80263753},{"NoteNumber":57,"Velocity":31,"Duration":110497,"SoundDuration":110497,"Delta":80374250},{"NoteNumber":62,"Velocity":28,"Duration":110497,"SoundDuration":110497,"Delta":80484748},{"NoteNumber":77,"Velocity":53,"Duration":108108,"SoundDuration":108108,"Delta":80595245},{"NoteNumber":76,"Velocity":49,"Duration":107526,"SoundDuration":107526,"Delta":80703353},{"NoteNumber":74,"Velocity":49,"Duration":107526,"SoundDuration":107526,"Delta":80810880},{"NoteNumber":72,"Velocity":58,"Duration":82417,"SoundDuration":82417,"Delta":80918407},{"NoteNumber":55,"Velocity":41,"Duration":109890,"SoundDuration":109890,"Delta":80918407},{"NoteNumber":60,"Velocity":30,"Duration":109890,"SoundDuration":109890,"Delta":81028297},{"NoteNumber":64,"Velocity":28,"Duration":119047,"SoundDuration":119047,"Delta":81138187},{"NoteNumber":76,"Velocity":49,"Duration":110497,"SoundDuration":110497,"Delta":81257235},{"NoteNumber":74,"Velocity":45,"Duration":110497,"SoundDuration":110497,"Delta":81367732},{"NoteNumber":72,"Velocity":44,"Duration":110497,"SoundDuration":110497,"Delta":81478229},{"NoteNumber":71,"Velocity":51,"Duration":82872,"SoundDuration":82872,"Delta":81588726},{"NoteNumber":55,"Velocity":36,"Duration":110497,"SoundDuration":110497,"Delta":81588726},{"NoteNumber":62,"Velocity":26,"Duration":110497,"SoundDuration":110497,"Delta":81699223},{"NoteNumber":65,"Velocity":24,"Duration":110497,"SoundDuration":110497,"Delta":81809720},{"NoteNumber":67,"Velocity":43,"Duration":113636,"SoundDuration":113636,"Delta":81920218},{"NoteNumber":69,"Velocity":39,"Duration":113636,"SoundDuration":113636,"Delta":82033854},{"NoteNumber":71,"Velocity":38,"Duration":125786,"SoundDuration":125786,"Delta":82147490},{"NoteNumber":72,"Velocity":50,"Duration":82872,"SoundDuration":82872,"Delta":82273276},{"NoteNumber":60,"Velocity":34,"Duration":110497,"SoundDuration":110497,"Delta":82273276},{"NoteNumber":62,"Velocity":30,"Duration":110497,"SoundDuration":110497,"Delta":82385155},{"NoteNumber":64,"Velocity":30,"Duration":110497,"SoundDuration":110497,"Delta":82494271},{"NoteNumber":60,"Velocity":34,"Duration":110497,"SoundDuration":110497,"Delta":82604768},{"NoteNumber":62,"Velocity":30,"Duration":110497,"SoundDuration":110497,"Delta":82716646},{"NoteNumber":64,"Velocity":30,"Duration":110497,"SoundDuration":110497,"Delta":82825762},{"NoteNumber":72,"Velocity":45,"Duration":110497,"SoundDuration":110497,"Delta":82936259},{"NoteNumber":60,"Velocity":34,"Duration":82872,"SoundDuration":82872,"Delta":82936259},{"NoteNumber":74,"Velocity":39,"Duration":110497,"SoundDuration":110497,"Delta":83046757},{"NoteNumber":76,"Velocity":40,"Duration":110497,"SoundDuration":110497,"Delta":83157254},{"NoteNumber":72,"Velocity":46,"Duration":110497,"SoundDuration":110497,"Delta":83267751},{"NoteNumber":74,"Velocity":39,"Duration":110497,"SoundDuration":110497,"Delta":83378248},{"NoteNumber":76,"Velocity":39,"Duration":110497,"SoundDuration":110497,"Delta":83488745},{"NoteNumber":74,"Velocity":47,"Duration":110057,"SoundDuration":110057,"Delta":83599242},{"NoteNumber":71,"Velocity":38,"Duration":82561,"SoundDuration":82561,"Delta":83599242},{"NoteNumber":76,"Velocity":37,"Duration":110842,"SoundDuration":110842,"Delta":83709299},{"NoteNumber":77,"Velocity":37,"Duration":111858,"SoundDuration":111858,"Delta":83820142},{"NoteNumber":74,"Velocity":43,"Duration":112868,"SoundDuration":112868,"Delta":83932000},{"NoteNumber":76,"Velocity":38,"Duration":113920,"SoundDuration":113920,"Delta":84044869},{"NoteNumber":77,"Velocity":38,"Duration":115075,"SoundDuration":115075,"Delta":84158789},{"NoteNumber":76,"Velocity":43,"Duration":115632,"SoundDuration":115632,"Delta":84273865},{"NoteNumber":70,"Velocity":41,"Duration":86722,"SoundDuration":86722,"Delta":84273865},{"NoteNumber":77,"Velocity":38,"Duration":117210,"SoundDuration":117210,"Delta":84389497},{"NoteNumber":79,"Velocity":33,"Duration":119568,"SoundDuration":119568,"Delta":84506708},{"NoteNumber":76,"Velocity":37,"Duration":121939,"SoundDuration":121939,"Delta":84626277},{"NoteNumber":77,"Velocity":34,"Duration":127236,"SoundDuration":127236,"Delta":84748217},{"NoteNumber":79,"Velocity":29,"Duration":131180,"SoundDuration":131180,"Delta":84875453},{"NoteNumber":77,"Velocity":45,"Duration":110497,"SoundDuration":110497,"Delta":85669617},{"NoteNumber":79,"Velocity":38,"Duration":108695,"SoundDuration":108695,"Delta":85780114},{"NoteNumber":81,"Velocity":38,"Duration":108695,"SoundDuration":108695,"Delta":85888810},{"NoteNumber":77,"Velocity":44,"Duration":108695,"SoundDuration":108695,"Delta":85997505},{"NoteNumber":79,"Velocity":37,"Duration":108695,"SoundDuration":108695,"Delta":86106201},{"NoteNumber":81,"Velocity":37,"Duration":126582,"SoundDuration":126582,"Delta":86214897},{"NoteNumber":72,"Velocity":45,"Duration":86206,"SoundDuration":86206,"Delta":86341479},{"NoteNumber":69,"Velocity":36,"Duration":86206,"SoundDuration":86206,"Delta":86341479},{"NoteNumber":65,"Velocity":30,"Duration":86206,"SoundDuration":86206,"Delta":86341479},{"NoteNumber":72,"Velocity":45,"Duration":86206,"SoundDuration":86206,"Delta":86686306},{"NoteNumber":69,"Velocity":36,"Duration":86206,"SoundDuration":86206,"Delta":86686306},{"NoteNumber":65,"Velocity":30,"Duration":86206,"SoundDuration":86206,"Delta":86686306},{"NoteNumber":77,"Velocity":45,"Duration":109289,"SoundDuration":109289,"Delta":87031134},{"NoteNumber":79,"Velocity":38,"Duration":109289,"SoundDuration":109289,"Delta":87140424},{"NoteNumber":81,"Velocity":38,"Duration":109289,"SoundDuration":109289,"Delta":87249713},{"NoteNumber":77,"Velocity":44,"Duration":109289,"SoundDuration":109289,"Delta":87359003},{"NoteNumber":79,"Velocity":37,"Duration":109289,"SoundDuration":109289,"Delta":87468293},{"NoteNumber":81,"Velocity":37,"Duration":118343,"SoundDuration":118343,"Delta":87577582},{"NoteNumber":74,"Velocity":45,"Duration":85227,"SoundDuration":85227,"Delta":87695925},{"NoteNumber":70,"Velocity":36,"Duration":85227,"SoundDuration":85227,"Delta":87695925},{"NoteNumber":65,"Velocity":30,"Duration":85227,"SoundDuration":85227,"Delta":87695925},{"NoteNumber":74,"Velocity":45,"Duration":85227,"SoundDuration":85227,"Delta":88036834},{"NoteNumber":70,"Velocity":36,"Duration":85227,"SoundDuration":85227,"Delta":88036834},{"NoteNumber":65,"Velocity":30,"Duration":85227,"SoundDuration":85227,"Delta":88036834},{"NoteNumber":86,"Velocity":53,"Duration":109289,"SoundDuration":109289,"Delta":88377743},{"NoteNumber":84,"Velocity":50,"Duration":111111,"SoundDuration":111111,"Delta":88487033},{"NoteNumber":82,"Velocity":50,"Duration":111111,"SoundDuration":111111,"Delta":88598144},{"NoteNumber":81,"Velocity":55,"Duration":111111,"SoundDuration":111111,"Delta":88709255},{"NoteNumber":79,"Velocity":57,"Duration":111111,"SoundDuration":111111,"Delta":88820367},{"NoteNumber":77,"Velocity":58,"Duration":111111,"SoundDuration":111111,"Delta":88931478},{"NoteNumber":76,"Velocity":63,"Duration":111111,"SoundDuration":111111,"Delta":89042589},{"NoteNumber":60,"Velocity":47,"Duration":1333334,"SoundDuration":1333334,"Delta":89042589},{"NoteNumber":55,"Velocity":39,"Duration":1333334,"SoundDuration":1333334,"Delta":89042589},{"NoteNumber":52,"Velocity":39,"Duration":1333334,"SoundDuration":1333334,"Delta":89042589},{"NoteNumber":48,"Velocity":39,"Duration":1333334,"SoundDuration":1333334,"Delta":89042589},{"NoteNumber":79,"Velocity":57,"Duration":111111,"SoundDuration":111111,"Delta":89153700},{"NoteNumber":77,"Velocity":56,"Duration":111111,"SoundDuration":111111,"Delta":89264811},{"NoteNumber":76,"Velocity":62,"Duration":111111,"SoundDuration":111111,"Delta":89375922},{"NoteNumber":74,"Velocity":54,"Duration":111111,"SoundDuration":111111,"Delta":89487034},{"NoteNumber":72,"Velocity":54,"Duration":111111,"SoundDuration":111111,"Delta":89598145},{"NoteNumber":70,"Velocity":56,"Duration":111111,"SoundDuration":111111,"Delta":89709256},{"NoteNumber":69,"Velocity":50,"Duration":111111,"SoundDuration":111111,"Delta":89820367},{"NoteNumber":67,"Velocity":50,"Duration":111111,"SoundDuration":111111,"Delta":89931478},{"NoteNumber":74,"Velocity":61,"Duration":111111,"SoundDuration":111111,"Delta":90042589},{"NoteNumber":72,"Velocity":53,"Duration":111111,"SoundDuration":111111,"Delta":90153701},{"NoteNumber":70,"Velocity":53,"Duration":111111,"SoundDuration":111111,"Delta":90264812},{"NoteNumber":69,"Velocity":63,"Duration":87209,"SoundDuration":87209,"Delta":90375923},{"NoteNumber":53,"Velocity":41,"Duration":116279,"SoundDuration":116279,"Delta":90375923},{"NoteNumber":57,"Velocity":31,"Duration":116278,"SoundDuration":116278,"Delta":90492202},{"NoteNumber":60,"Velocity":28,"Duration":116279,"SoundDuration":116279,"Delta":90608481},{"NoteNumber":72,"Velocity":57,"Duration":87209,"SoundDuration":87209,"Delta":90724760},{"NoteNumber":53,"Velocity":37,"Duration":116278,"SoundDuration":116278,"Delta":90724760},{"NoteNumber":57,"Velocity":34,"Duration":116279,"SoundDuration":116279,"Delta":90841039},{"NoteNumber":60,"Velocity":29,"Duration":116279,"SoundDuration":116279,"Delta":90957318},{"NoteNumber":53,"Velocity":39,"Duration":111111,"SoundDuration":111111,"Delta":91073597},{"NoteNumber":57,"Velocity":33,"Duration":111111,"SoundDuration":111111,"Delta":91184708},{"NoteNumber":60,"Velocity":26,"Duration":111111,"SoundDuration":111111,"Delta":91295819},{"NoteNumber":84,"Velocity":64,"Duration":333333,"SoundDuration":333333,"Delta":91406930},{"NoteNumber":53,"Velocity":41,"Duration":111111,"SoundDuration":111111,"Delta":91406930},{"NoteNumber":57,"Velocity":32,"Duration":111111,"SoundDuration":111111,"Delta":91518042},{"NoteNumber":60,"Velocity":25,"Duration":111111,"SoundDuration":111111,"Delta":91629153},{"NoteNumber":81,"Velocity":69,"Duration":333988,"SoundDuration":333988,"Delta":91740264},{"NoteNumber":53,"Velocity":41,"Duration":112994,"SoundDuration":112994,"Delta":91740264},{"NoteNumber":57,"Velocity":31,"Duration":110497,"SoundDuration":110497,"Delta":91853258},{"NoteNumber":60,"Velocity":27,"Duration":110497,"SoundDuration":110497,"Delta":91963755},{"NoteNumber":77,"Velocity":63,"Duration":338982,"SoundDuration":338982,"Delta":92074253},{"NoteNumber":53,"Velocity":38,"Duration":112994,"SoundDuration":112994,"Delta":92074253},{"NoteNumber":57,"Velocity":35,"Duration":112994,"SoundDuration":112994,"Delta":92187247},{"NoteNumber":60,"Velocity":29,"Duration":112994,"SoundDuration":112994,"Delta":92300241},{"NoteNumber":74,"Velocity":68,"Duration":332774,"SoundDuration":332774,"Delta":92413236},{"NoteNumber":53,"Velocity":39,"Duration":112994,"SoundDuration":112994,"Delta":92413236},{"NoteNumber":58,"Velocity":30,"Duration":109890,"SoundDuration":109890,"Delta":92526230},{"NoteNumber":62,"Velocity":24,"Duration":109890,"SoundDuration":109890,"Delta":92636120},{"NoteNumber":70,"Velocity":54,"Duration":354589,"SoundDuration":354589,"Delta":92746010},{"NoteNumber":53,"Velocity":37,"Duration":112359,"SoundDuration":112359,"Delta":92746010},{"NoteNumber":58,"Velocity":32,"Duration":112359,"SoundDuration":112359,"Delta":92858370},{"NoteNumber":62,"Velocity":27,"Duration":129870,"SoundDuration":129870,"Delta":92970729},{"NoteNumber":69,"Velocity":58,"Duration":346821,"SoundDuration":346821,"Delta":93100599},{"NoteNumber":53,"Velocity":41,"Duration":115606,"SoundDuration":115606,"Delta":93100599},{"NoteNumber":57,"Velocity":31,"Duration":115606,"SoundDuration":115606,"Delta":93216206},{"NoteNumber":60,"Velocity":25,"Duration":115607,"SoundDuration":115607,"Delta":93331813},{"NoteNumber":72,"Velocity":50,"Duration":346820,"SoundDuration":346820,"Delta":93447420},{"NoteNumber":53,"Velocity":35,"Duration":115606,"SoundDuration":115606,"Delta":93447420},{"NoteNumber":57,"Velocity":27,"Duration":115606,"SoundDuration":115606,"Delta":93563027},{"NoteNumber":60,"Velocity":21,"Duration":115606,"SoundDuration":115606,"Delta":93678634},{"NoteNumber":53,"Velocity":37,"Duration":111731,"SoundDuration":111731,"Delta":93794241},{"NoteNumber":57,"Velocity":31,"Duration":111731,"SoundDuration":111731,"Delta":93905973},{"NoteNumber":60,"Velocity":24,"Duration":111731,"SoundDuration":111731,"Delta":94017705},{"NoteNumber":84,"Velocity":64,"Duration":335195,"SoundDuration":335195,"Delta":94129437},{"NoteNumber":53,"Velocity":41,"Duration":111731,"SoundDuration":111731,"Delta":94129437},{"NoteNumber":57,"Velocity":32,"Duration":111731,"SoundDuration":111731,"Delta":94241169},{"NoteNumber":60,"Velocity":24,"Duration":111731,"SoundDuration":111731,"Delta":94352901},{"NoteNumber":81,"Velocity":69,"Duration":329076,"SoundDuration":329076,"Delta":94464632},{"NoteNumber":53,"Velocity":41,"Duration":109289,"SoundDuration":109289,"Delta":94464632},{"NoteNumber":57,"Velocity":31,"Duration":109289,"SoundDuration":109289,"Delta":94573922},{"NoteNumber":60,"Velocity":29,"Duration":110497,"SoundDuration":110497,"Delta":94683212},{"NoteNumber":77,"Velocity":63,"Duration":331491,"SoundDuration":331491,"Delta":94793709},{"NoteNumber":53,"Velocity":38,"Duration":110497,"SoundDuration":110497,"Delta":94793709},{"NoteNumber":57,"Velocity":35,"Duration":110497,"SoundDuration":110497,"Delta":94904206},{"NoteNumber":60,"Velocity":30,"Duration":110497,"SoundDuration":110497,"Delta":95014703},{"NoteNumber":76,"Velocity":68,"Duration":335038,"SoundDuration":335038,"Delta":95125200},{"NoteNumber":55,"Velocity":39,"Duration":108695,"SoundDuration":108695,"Delta":95125200},{"NoteNumber":58,"Velocity":30,"Duration":108695,"SoundDuration":108695,"Delta":95233896},{"NoteNumber":64,"Velocity":26,"Duration":117646,"SoundDuration":117646,"Delta":95342592},{"NoteNumber":86,"Velocity":69,"Duration":342856,"SoundDuration":342856,"Delta":95460239},{"NoteNumber":55,"Velocity":37,"Duration":114285,"SoundDuration":114285,"Delta":95460239},{"NoteNumber":58,"Velocity":32,"Duration":114285,"SoundDuration":114285,"Delta":95574524},{"NoteNumber":64,"Velocity":23,"Duration":114285,"SoundDuration":114285,"Delta":95688810},{"NoteNumber":84,"Velocity":64,"Duration":86705,"SoundDuration":86705,"Delta":95803096},{"NoteNumber":57,"Velocity":41,"Duration":115606,"SoundDuration":115606,"Delta":95803096},{"NoteNumber":60,"Velocity":31,"Duration":114896,"SoundDuration":114896,"Delta":95918703},{"NoteNumber":65,"Velocity":27,"Duration":109289,"SoundDuration":109289,"Delta":96033599},{"NoteNumber":84,"Velocity":53,"Duration":109612,"SoundDuration":109612,"Delta":96142889},{"NoteNumber":82,"Velocity":49,"Duration":109890,"SoundDuration":109890,"Delta":96252501},{"NoteNumber":81,"Velocity":49,"Duration":110474,"SoundDuration":110474,"Delta":96362391},{"NoteNumber":79,"Velocity":58,"Duration":82949,"SoundDuration":82949,"Delta":96472866},{"NoteNumber":58,"Velocity":41,"Duration":110539,"SoundDuration":110539,"Delta":96472866},{"NoteNumber":62,"Velocity":31,"Duration":108108,"SoundDuration":108108,"Delta":96583405},{"NoteNumber":67,"Velocity":26,"Duration":108578,"SoundDuration":108578,"Delta":96691514},{"NoteNumber":82,"Velocity":53,"Duration":109200,"SoundDuration":109200,"Delta":96800092},{"NoteNumber":81,"Velocity":49,"Duration":109830,"SoundDuration":109830,"Delta":96909292},{"NoteNumber":79,"Velocity":49,"Duration":110482,"SoundDuration":110482,"Delta":97019122},{"NoteNumber":77,"Velocity":54,"Duration":83256,"SoundDuration":83256,"Delta":97129605},{"NoteNumber":60,"Velocity":41,"Duration":110880,"SoundDuration":110880,"Delta":97129605},{"NoteNumber":65,"Velocity":31,"Duration":110497,"SoundDuration":110497,"Delta":97240485},{"NoteNumber":69,"Velocity":27,"Duration":110497,"SoundDuration":110497,"Delta":97350983},{"NoteNumber":77,"Velocity":50,"Duration":165745,"SoundDuration":165745,"Delta":97461480},{"NoteNumber":60,"Velocity":33,"Duration":110497,"SoundDuration":110497,"Delta":97461480},{"NoteNumber":65,"Velocity":29,"Duration":110497,"SoundDuration":110497,"Delta":97571977},{"NoteNumber":79,"Velocity":42,"Duration":55248,"SoundDuration":55248,"Delta":97627226},{"NoteNumber":77,"Velocity":41,"Duration":55248,"SoundDuration":55248,"Delta":97682474},{"NoteNumber":69,"Velocity":24,"Duration":110497,"SoundDuration":110497,"Delta":97682474},{"NoteNumber":76,"Velocity":37,"Duration":55248,"SoundDuration":55248,"Delta":97737723},{"NoteNumber":81,"Velocity":54,"Duration":331491,"SoundDuration":331491,"Delta":97792971},{"NoteNumber":60,"Velocity":34,"Duration":110497,"SoundDuration":110497,"Delta":97792971},{"NoteNumber":65,"Velocity":29,"Duration":110497,"SoundDuration":110497,"Delta":97903468},{"NoteNumber":69,"Velocity":25,"Duration":110497,"SoundDuration":110497,"Delta":98013966},{"NoteNumber":79,"Velocity":43,"Duration":344451,"SoundDuration":344451,"Delta":98124463},{"NoteNumber":60,"Velocity":31,"Duration":110497,"SoundDuration":110497,"Delta":98124463},{"NoteNumber":64,"Velocity":26,"Duration":110497,"SoundDuration":110497,"Delta":98233579},{"NoteNumber":70,"Velocity":22,"Duration":123294,"SoundDuration":123294,"Delta":98347000},{"NoteNumber":65,"Velocity":36,"Duration":110497,"SoundDuration":110497,"Delta":98468914},{"NoteNumber":69,"Velocity":26,"Duration":110497,"SoundDuration":110497,"Delta":98579411},{"NoteNumber":72,"Velocity":26,"Duration":110497,"SoundDuration":110497,"Delta":98689908},{"NoteNumber":77,"Velocity":50,"Duration":161290,"SoundDuration":161290,"Delta":98800405},{"NoteNumber":65,"Velocity":33,"Duration":107526,"SoundDuration":107526,"Delta":98800405},{"NoteNumber":69,"Velocity":27,"Duration":107526,"SoundDuration":107526,"Delta":98907932},{"NoteNumber":79,"Velocity":42,"Duration":53763,"SoundDuration":53763,"Delta":98961696},{"NoteNumber":77,"Velocity":41,"Duration":53763,"SoundDuration":53763,"Delta":99015459},{"NoteNumber":72,"Velocity":27,"Duration":107526,"SoundDuration":107526,"Delta":99015459},{"NoteNumber":76,"Velocity":37,"Duration":53763,"SoundDuration":53763,"Delta":99069223},{"NoteNumber":65,"Velocity":41,"Duration":109890,"SoundDuration":109890,"Delta":99122986},{"NoteNumber":70,"Velocity":29,"Duration":109890,"SoundDuration":109890,"Delta":99232876},{"NoteNumber":74,"Velocity":24,"Duration":109890,"SoundDuration":109890,"Delta":99342766},{"NoteNumber":77,"Velocity":50,"Duration":161290,"SoundDuration":161290,"Delta":99452656},{"NoteNumber":65,"Velocity":33,"Duration":107526,"SoundDuration":107526,"Delta":99452656},{"NoteNumber":70,"Velocity":27,"Duration":107526,"SoundDuration":107526,"Delta":99560183},{"NoteNumber":79,"Velocity":42,"Duration":53763,"SoundDuration":53763,"Delta":99613947},{"NoteNumber":77,"Velocity":41,"Duration":53763,"SoundDuration":53763,"Delta":99667710},{"NoteNumber":74,"Velocity":25,"Duration":107526,"SoundDuration":107526,"Delta":99667710},{"NoteNumber":76,"Velocity":37,"Duration":53763,"SoundDuration":53763,"Delta":99721474},{"NoteNumber":65,"Velocity":41,"Duration":109890,"SoundDuration":109890,"Delta":99775237},{"NoteNumber":69,"Velocity":29,"Duration":109890,"SoundDuration":109890,"Delta":99885127},{"NoteNumber":72,"Velocity":25,"Duration":117646,"SoundDuration":117646,"Delta":99995017},{"NoteNumber":81,"Velocity":53,"Duration":110497,"SoundDuration":110497,"Delta":100112664},{"NoteNumber":79,"Velocity":54,"Duration":110497,"SoundDuration":110497,"Delta":100223161},{"NoteNumber":77,"Velocity":55,"Duration":110497,"SoundDuration":110497,"Delta":100333659},{"NoteNumber":76,"Velocity":57,"Duration":110497,"SoundDuration":110497,"Delta":100444156},{"NoteNumber":74,"Velocity":58,"Duration":110497,"SoundDuration":110497,"Delta":100554653},{"NoteNumber":72,"Velocity":60,"Duration":110497,"SoundDuration":110497,"Delta":100665150},{"NoteNumber":70,"Velocity":61,"Duration":110497,"SoundDuration":110497,"Delta":100775647},{"NoteNumber":48,"Velocity":41,"Duration":331491,"SoundDuration":331491,"Delta":100775647},{"NoteNumber":60,"Velocity":49,"Duration":331491,"SoundDuration":331491,"Delta":100775647},{"NoteNumber":69,"Velocity":62,"Duration":110497,"SoundDuration":110497,"Delta":100886144},{"NoteNumber":67,"Velocity":64,"Duration":110497,"SoundDuration":110497,"Delta":100996642},{"NoteNumber":65,"Velocity":70,"Duration":82872,"SoundDuration":82872,"Delta":101107139},{"NoteNumber":53,"Velocity":57,"Duration":110497,"SoundDuration":110497,"Delta":101107139},{"NoteNumber":57,"Velocity":40,"Duration":110497,"SoundDuration":110497,"Delta":101217636},{"NoteNumber":60,"Velocity":32,"Duration":110497,"SoundDuration":110497,"Delta":101328133},{"NoteNumber":65,"Velocity":70,"Duration":161290,"SoundDuration":161290,"Delta":101438630},{"NoteNumber":53,"Velocity":46,"Duration":107526,"SoundDuration":107526,"Delta":101438630},{"NoteNumber":57,"Velocity":37,"Duration":107526,"SoundDuration":107526,"Delta":101546157},{"NoteNumber":67,"Velocity":58,"Duration":53763,"SoundDuration":53763,"Delta":101599921},{"NoteNumber":65,"Velocity":57,"Duration":53763,"SoundDuration":53763,"Delta":101653684},{"NoteNumber":60,"Velocity":32,"Duration":107526,"SoundDuration":107526,"Delta":101653684},{"NoteNumber":64,"Velocity":51,"Duration":53763,"SoundDuration":53763,"Delta":101707447},{"NoteNumber":53,"Velocity":57,"Duration":109890,"SoundDuration":109890,"Delta":101761211},{"NoteNumber":58,"Velocity":40,"Duration":109890,"SoundDuration":109890,"Delta":101871101},{"NoteNumber":62,"Velocity":33,"Duration":109890,"SoundDuration":109890,"Delta":101980991},{"NoteNumber":65,"Velocity":70,"Duration":162162,"SoundDuration":162162,"Delta":102090881},{"NoteNumber":53,"Velocity":46,"Duration":108108,"SoundDuration":108108,"Delta":102090881},{"NoteNumber":58,"Velocity":37,"Duration":108108,"SoundDuration":108108,"Delta":102198989},{"NoteNumber":67,"Velocity":58,"Duration":54054,"SoundDuration":54054,"Delta":102253044},{"NoteNumber":65,"Velocity":57,"Duration":54054,"SoundDuration":54054,"Delta":102307098},{"NoteNumber":62,"Velocity":32,"Duration":108108,"SoundDuration":108108,"Delta":102307098},{"NoteNumber":64,"Velocity":51,"Duration":54054,"SoundDuration":54054,"Delta":102361152},{"NoteNumber":53,"Velocity":57,"Duration":116279,"SoundDuration":116279,"Delta":102415206},{"NoteNumber":57,"Velocity":40,"Duration":116278,"SoundDuration":116278,"Delta":102531485},{"NoteNumber":60,"Velocity":33,"Duration":116279,"SoundDuration":116279,"Delta":102647764},{"NoteNumber":69,"Velocity":67,"Duration":111731,"SoundDuration":111731,"Delta":102764043},{"NoteNumber":67,"Velocity":63,"Duration":111731,"SoundDuration":111731,"Delta":102875775},{"NoteNumber":65,"Velocity":63,"Duration":111731,"SoundDuration":111731,"Delta":102987506},{"NoteNumber":64,"Velocity":67,"Duration":111106,"SoundDuration":111106,"Delta":103099238},{"NoteNumber":48,"Velocity":68,"Duration":688100,"SoundDuration":688100,"Delta":103099238},{"NoteNumber":36,"Velocity":57,"Duration":688100,"SoundDuration":688100,"Delta":103099238},{"NoteNumber":62,"Velocity":63,"Duration":111453,"SoundDuration":111453,"Delta":103210345},{"NoteNumber":60,"Velocity":64,"Duration":113285,"SoundDuration":113285,"Delta":103321798},{"NoteNumber":58,"Velocity":67,"Duration":115352,"SoundDuration":115352,"Delta":103435084},{"NoteNumber":57,"Velocity":68,"Duration":117486,"SoundDuration":117486,"Delta":103550436},{"NoteNumber":55,"Velocity":68,"Duration":119415,"SoundDuration":119415,"Delta":103667923},{"NoteNumber":53,"Velocity":76,"Duration":173410,"SoundDuration":173410,"Delta":103787338},{"NoteNumber":41,"Velocity":63,"Duration":115606,"SoundDuration":115606,"Delta":103787338},{"NoteNumber":45,"Velocity":53,"Duration":115606,"SoundDuration":115606,"Delta":103902945},{"NoteNumber":48,"Velocity":46,"Duration":115607,"SoundDuration":115607,"Delta":104018552},{"NoteNumber":41,"Velocity":63,"Duration":115606,"SoundDuration":115606,"Delta":104134159},{"NoteNumber":45,"Velocity":53,"Duration":115606,"SoundDuration":115606,"Delta":104249766},{"NoteNumber":48,"Velocity":48,"Duration":115641,"SoundDuration":115641,"Delta":104365373},{"NoteNumber":60,"Velocity":60,"Duration":179985,"SoundDuration":179985,"Delta":104481015},{"NoteNumber":65,"Velocity":76,"Duration":179985,"SoundDuration":179985,"Delta":104481015},{"NoteNumber":57,"Velocity":60,"Duration":179985,"SoundDuration":179985,"Delta":104481015},{"NoteNumber":41,"Velocity":63,"Duration":119194,"SoundDuration":119194,"Delta":104481015},{"NoteNumber":45,"Velocity":53,"Duration":122265,"SoundDuration":122265,"Delta":104600209},{"NoteNumber":48,"Velocity":46,"Duration":125747,"SoundDuration":125747,"Delta":104722474},{"NoteNumber":41,"Velocity":63,"Duration":129168,"SoundDuration":129168,"Delta":104848221},{"NoteNumber":45,"Velocity":53,"Duration":132523,"SoundDuration":132523,"Delta":104977390},{"NoteNumber":48,"Velocity":47,"Duration":209550,"SoundDuration":209550,"Delta":105109914},{"NoteNumber":57,"Velocity":60,"Duration":731804,"SoundDuration":731804,"Delta":105319464},{"NoteNumber":60,"Velocity":60,"Duration":731804,"SoundDuration":731804,"Delta":105319464},{"NoteNumber":65,"Velocity":76,"Duration":731804,"SoundDuration":731804,"Delta":105319464},{"NoteNumber":41,"Velocity":63,"Duration":731804,"SoundDuration":731804,"Delta":105319464}],"license":{"name":"Creative Commons Attribution-ShareAlike 3.0 Germany","url":"http://creativecommons.org/licenses/by-sa/3.0/de/deed.en","text":"The MIDI, audio (MP3, OGG) and video files of Bernd Krueger are licensed under the cc-by-sa Germany License. This means that you can use and adapt the files, as long as you attribute the copyright holder.\n\nName: Bernd Krueger\nSource: http://www.piano-midi.de\n\nThe distribution or public playback of the files is only allowed under identical license conditions.\n\nThe scores are open source.","attribution":"MIDI files by Bernd Krueger (piano-midi.de)","attributionUrl":"http://www.piano-midi.de"}}