{"title":"Sonatine Opus 36 Nr. 1, 1. Satz","artist":"Clementi","durationMs":90473,"midiSha256":"81f27c54d91d9a02d99b789350c15741d36a9150a1ddd5e986036a1e7f257b7b","midiObject":[{"NoteNumber":72,"Velocity":70,"Duration":298195,"SoundDuration":298195,"Delta":0},{"NoteNumber":48,"Velocity":40,"Duration":298195,"SoundDuration":298195,"Delta":0},{"NoteNumber":76,"Velocity":58,"Duration":144732,"SoundDuration":144732,"Delta":298195},{"NoteNumber":72,"Velocity":52,"Duration":149469,"SoundDuration":149469,"Delta":442928},{"NoteNumber":67,"Velocity":47,"Duration":110434,"SoundDuration":110434,"Delta":592397},{"NoteNumber":67,"Velocity":43,"Duration":116508,"SoundDuration":116508,"Delta":886890},{"NoteNumber":72,"Velocity":70,"Duration":298939,"SoundDuration":298939,"Delta":1197578},{"NoteNumber":48,"Velocity":40,"Duration":298939,"SoundDuration":298939,"Delta":1197578},{"NoteNumber":76,"Velocity":57,"Duration":144732,"SoundDuration":144732,"Delta":1496517},{"NoteNumber":72,"Velocity":51,"Duration":149469,"SoundDuration":149469,"Delta":1641249},{"NoteNumber":67,"Velocity":47,"Duration":111540,"SoundDuration":111540,"Delta":1790719},{"NoteNumber":79,"Velocity":58,"Duration":146885,"SoundDuration":146885,"Delta":2088161},{"NoteNumber":77,"Velocity":65,"Duration":158053,"SoundDuration":158053,"Delta":2381570},{"NoteNumber":48,"Velocity":40,"Duration":287370,"SoundDuration":287370,"Delta":2381570},{"NoteNumber":76,"Velocity":48,"Duration":158053,"SoundDuration":158053,"Delta":2525255},{"NoteNumber":74,"Velocity":55,"Duration":158053,"SoundDuration":158053,"Delta":2668940},{"NoteNumber":72,"Velocity":47,"Duration":160163,"SoundDuration":160163,"Delta":2812625},{"NoteNumber":71,"Velocity":61,"Duration":157668,"SoundDuration":157668,"Delta":2958455},{"NoteNumber":48,"Velocity":35,"Duration":286670,"SoundDuration":286670,"Delta":2958455},{"NoteNumber":72,"Velocity":54,"Duration":157668,"SoundDuration":157668,"Delta":3101790},{"NoteNumber":71,"Velocity":62,"Duration":158693,"SoundDuration":158693,"Delta":3245125},{"NoteNumber":72,"Velocity":54,"Duration":164367,"SoundDuration":164367,"Delta":3388758},{"NoteNumber":74,"Velocity":68,"Duration":158146,"SoundDuration":158146,"Delta":3538792},{"NoteNumber":43,"Velocity":40,"Duration":288426,"SoundDuration":288426,"Delta":3538792},{"NoteNumber":72,"Velocity":59,"Duration":159261,"SoundDuration":159261,"Delta":3682501},{"NoteNumber":71,"Velocity":56,"Duration":160392,"SoundDuration":160392,"Delta":3827219},{"NoteNumber":69,"Velocity":53,"Duration":161048,"SoundDuration":161048,"Delta":3972975},{"NoteNumber":67,"Velocity":70,"Duration":292697,"SoundDuration":292697,"Delta":4119479},{"NoteNumber":55,"Velocity":48,"Duration":160364,"SoundDuration":160364,"Delta":4119479},{"NoteNumber":53,"Velocity":38,"Duration":161738,"SoundDuration":161738,"Delta":4265207},{"NoteNumber":52,"Velocity":40,"Duration":164315,"SoundDuration":164315,"Delta":4412177},{"NoteNumber":50,"Velocity":38,"Duration":174709,"SoundDuration":174709,"Delta":4560498},{"NoteNumber":72,"Velocity":41,"Duration":295217,"SoundDuration":295217,"Delta":4720447},{"NoteNumber":48,"Velocity":23,"Duration":295217,"SoundDuration":295217,"Delta":4720447},{"NoteNumber":76,"Velocity":34,"Duration":145088,"SoundDuration":145088,"Delta":5015664},{"NoteNumber":72,"Velocity":28,"Duration":151767,"SoundDuration":151767,"Delta":5160752},{"NoteNumber":67,"Velocity":28,"Duration":110706,"SoundDuration":110706,"Delta":5312520},{"NoteNumber":67,"Velocity":24,"Duration":114410,"SoundDuration":114410,"Delta":5607737},{"NoteNumber":76,"Velocity":41,"Duration":293771,"SoundDuration":293771,"Delta":5912832},{"NoteNumber":60,"Velocity":23,"Duration":293771,"SoundDuration":293771,"Delta":5912832},{"NoteNumber":79,"Velocity":35,"Duration":144029,"SoundDuration":144029,"Delta":6206604},{"NoteNumber":76,"Velocity":30,"Duration":149098,"SoundDuration":149098,"Delta":6350634},{"NoteNumber":72,"Velocity":28,"Duration":303407,"SoundDuration":303407,"Delta":6499732},{"NoteNumber":76,"Velocity":39,"Duration":146156,"SoundDuration":146156,"Delta":6803139},{"NoteNumber":54,"Velocity":23,"Duration":292311,"SoundDuration":292311,"Delta":6803139},{"NoteNumber":72,"Velocity":34,"Duration":146155,"SoundDuration":146155,"Delta":6949295},{"NoteNumber":74,"Velocity":38,"Duration":142946,"SoundDuration":142946,"Delta":7095451},{"NoteNumber":55,"Velocity":23,"Duration":287228,"SoundDuration":287228,"Delta":7095451},{"NoteNumber":71,"Velocity":31,"Duration":144282,"SoundDuration":144282,"Delta":7238398},{"NoteNumber":72,"Velocity":34,"Duration":145899,"SoundDuration":145899,"Delta":7382680},{"NoteNumber":48,"Velocity":21,"Duration":293454,"SoundDuration":293454,"Delta":7382680},{"NoteNumber":69,"Velocity":29,"Duration":147554,"SoundDuration":147554,"Delta":7528579},{"NoteNumber":71,"Velocity":35,"Duration":144260,"SoundDuration":144260,"Delta":7676134},{"NoteNumber":50,"Velocity":24,"Duration":289730,"SoundDuration":289730,"Delta":7676134},{"NoteNumber":67,"Velocity":31,"Duration":145470,"SoundDuration":145470,"Delta":7820394},{"NoteNumber":69,"Velocity":36,"Duration":147956,"SoundDuration":147956,"Delta":7965864},{"NoteNumber":38,"Velocity":20,"Duration":299167,"SoundDuration":299167,"Delta":7965864},{"NoteNumber":66,"Velocity":31,"Duration":151211,"SoundDuration":151211,"Delta":8113820},{"NoteNumber":67,"Velocity":68,"Duration":163017,"SoundDuration":163017,"Delta":8265032},{"NoteNumber":43,"Velocity":40,"Duration":295816,"SoundDuration":295816,"Delta":8265032},{"NoteNumber":69,"Velocity":54,"Duration":162321,"SoundDuration":162321,"Delta":8413251},{"NoteNumber":71,"Velocity":60,"Duration":161668,"SoundDuration":161668,"Delta":8560848},{"NoteNumber":72,"Velocity":58,"Duration":160925,"SoundDuration":160925,"Delta":8707864},{"NoteNumber":74,"Velocity":68,"Duration":160381,"SoundDuration":160381,"Delta":8854210},{"NoteNumber":76,"Velocity":58,"Duration":160056,"SoundDuration":160056,"Delta":9000011},{"NoteNumber":78,"Velocity":62,"Duration":160754,"SoundDuration":160754,"Delta":9145524},{"NoteNumber":79,"Velocity":58,"Duration":152547,"SoundDuration":152547,"Delta":9291023},{"NoteNumber":69,"Velocity":66,"Duration":300489,"SoundDuration":300489,"Delta":9443571},{"NoteNumber":54,"Velocity":40,"Duration":151768,"SoundDuration":151768,"Delta":9443571},{"NoteNumber":62,"Velocity":35,"Duration":148721,"SoundDuration":148721,"Delta":9595339},{"NoteNumber":81,"Velocity":54,"Duration":148721,"SoundDuration":148721,"Delta":9744060},{"NoteNumber":57,"Velocity":35,"Duration":148721,"SoundDuration":148721,"Delta":9744060},{"NoteNumber":62,"Velocity":35,"Duration":148721,"SoundDuration":148721,"Delta":9892781},{"NoteNumber":81,"Velocity":57,"Duration":149850,"SoundDuration":149850,"Delta":10041502},{"NoteNumber":54,"Velocity":40,"Duration":149850,"SoundDuration":149850,"Delta":10041502},{"NoteNumber":62,"Velocity":37,"Duration":149849,"SoundDuration":149849,"Delta":10191352},{"NoteNumber":81,"Velocity":53,"Duration":149850,"SoundDuration":149850,"Delta":10341202},{"NoteNumber":57,"Velocity":37,"Duration":149850,"SoundDuration":149850,"Delta":10341202},{"NoteNumber":62,"Velocity":37,"Duration":153736,"SoundDuration":153736,"Delta":10491052},{"NoteNumber":71,"Velocity":68,"Duration":163864,"SoundDuration":163864,"Delta":10644788},{"NoteNumber":55,"Velocity":40,"Duration":297479,"SoundDuration":297479,"Delta":10644788},{"NoteNumber":72,"Velocity":55,"Duration":163314,"SoundDuration":163314,"Delta":10793780},{"NoteNumber":74,"Velocity":60,"Duration":162666,"SoundDuration":162666,"Delta":10942267},{"NoteNumber":76,"Velocity":56,"Duration":162123,"SoundDuration":162123,"Delta":11090173},{"NoteNumber":78,"Velocity":68,"Duration":161493,"SoundDuration":161493,"Delta":11237579},{"NoteNumber":79,"Velocity":59,"Duration":161055,"SoundDuration":161055,"Delta":11384421},{"NoteNumber":81,"Velocity":62,"Duration":161813,"SoundDuration":161813,"Delta":11530824},{"NoteNumber":83,"Velocity":58,"Duration":152936,"SoundDuration":152936,"Delta":11677344},{"NoteNumber":72,"Velocity":66,"Duration":300458,"SoundDuration":300458,"Delta":11830280},{"NoteNumber":57,"Velocity":40,"Duration":150988,"SoundDuration":150988,"Delta":11830280},{"NoteNumber":62,"Velocity":35,"Duration":149469,"SoundDuration":149469,"Delta":11981269},{"NoteNumber":84,"Velocity":53,"Duration":147980,"SoundDuration":147980,"Delta":12130739},{"NoteNumber":60,"Velocity":35,"Duration":147980,"SoundDuration":147980,"Delta":12130739},{"NoteNumber":62,"Velocity":35,"Duration":147979,"SoundDuration":147979,"Delta":12278719},{"NoteNumber":84,"Velocity":57,"Duration":147980,"SoundDuration":147980,"Delta":12426699},{"NoteNumber":57,"Velocity":40,"Duration":147980,"SoundDuration":147980,"Delta":12426699},{"NoteNumber":62,"Velocity":37,"Duration":147980,"SoundDuration":147980,"Delta":12574679},{"NoteNumber":84,"Velocity":55,"Duration":147980,"SoundDuration":147980,"Delta":12722659},{"NoteNumber":60,"Velocity":37,"Duration":147980,"SoundDuration":147980,"Delta":12722659},{"NoteNumber":62,"Velocity":37,"Duration":154010,"SoundDuration":154010,"Delta":12870639},{"NoteNumber":74,"Velocity":68,"Duration":148901,"SoundDuration":148901,"Delta":13024649},{"NoteNumber":59,"Velocity":40,"Duration":297179,"SoundDuration":297179,"Delta":13024649},{"NoteNumber":79,"Velocity":59,"Duration":148278,"SoundDuration":148278,"Delta":13173551},{"NoteNumber":83,"Velocity":63,"Duration":147683,"SoundDuration":147683,"Delta":13321829},{"NoteNumber":86,"Velocity":61,"Duration":147073,"SoundDuration":147073,"Delta":13469513},{"NoteNumber":84,"Velocity":68,"Duration":160967,"SoundDuration":160967,"Delta":13616587},{"NoteNumber":83,"Velocity":58,"Duration":161682,"SoundDuration":161682,"Delta":13762902},{"NoteNumber":81,"Velocity":62,"Duration":162451,"SoundDuration":162451,"Delta":13909859},{"NoteNumber":79,"Velocity":59,"Duration":162845,"SoundDuration":162845,"Delta":14057513},{"NoteNumber":78,"Velocity":68,"Duration":160111,"SoundDuration":160111,"Delta":14205849},{"NoteNumber":60,"Velocity":40,"Duration":295321,"SoundDuration":295321,"Delta":14205849},{"NoteNumber":76,"Velocity":61,"Duration":164706,"SoundDuration":164706,"Delta":14350938},{"NoteNumber":79,"Velocity":65,"Duration":160184,"SoundDuration":160184,"Delta":14501171},{"NoteNumber":78,"Velocity":57,"Duration":169107,"SoundDuration":169107,"Delta":14645903},{"NoteNumber":81,"Velocity":68,"Duration":160747,"SoundDuration":160747,"Delta":14800430},{"NoteNumber":48,"Velocity":37,"Duration":295270,"SoundDuration":295270,"Delta":14800430},{"NoteNumber":79,"Velocity":61,"Duration":164085,"SoundDuration":164085,"Delta":14946231},{"NoteNumber":78,"Velocity":64,"Duration":161937,"SoundDuration":161937,"Delta":15095701},{"NoteNumber":76,"Velocity":59,"Duration":157819,"SoundDuration":157819,"Delta":15241857},{"NoteNumber":76,"Velocity":65,"Duration":161971,"SoundDuration":161971,"Delta":15399677},{"NoteNumber":50,"Velocity":40,"Duration":294492,"SoundDuration":294492,"Delta":15399677},{"NoteNumber":74,"Velocity":54,"Duration":161971,"SoundDuration":161971,"Delta":15546923},{"NoteNumber":72,"Velocity":60,"Duration":162987,"SoundDuration":162987,"Delta":15694170},{"NoteNumber":71,"Velocity":56,"Duration":157405,"SoundDuration":157405,"Delta":15841416},{"NoteNumber":74,"Velocity":66,"Duration":162369,"SoundDuration":162369,"Delta":15998822},{"NoteNumber":38,"Velocity":39,"Duration":295217,"SoundDuration":295217,"Delta":15998822},{"NoteNumber":72,"Velocity":59,"Duration":162369,"SoundDuration":162369,"Delta":16146431},{"NoteNumber":71,"Velocity":61,"Duration":163689,"SoundDuration":163689,"Delta":16294039},{"NoteNumber":69,"Velocity":58,"Duration":176555,"SoundDuration":176555,"Delta":16441648},{"NoteNumber":67,"Velocity":68,"Duration":655961,"SoundDuration":655961,"Delta":16602463},{"NoteNumber":43,"Velocity":48,"Duration":157406,"SoundDuration":157406,"Delta":16602463},{"NoteNumber":47,"Velocity":38,"Duration":163025,"SoundDuration":163025,"Delta":16759869},{"NoteNumber":50,"Velocity":40,"Duration":163026,"SoundDuration":163026,"Delta":16922895},{"NoteNumber":55,"Velocity":38,"Duration":172502,"SoundDuration":172502,"Delta":17085921},{"NoteNumber":43,"Velocity":48,"Duration":323641,"SoundDuration":323641,"Delta":17258424},{"NoteNumber":72,"Velocity":70,"Duration":298196,"SoundDuration":298196,"Delta":17905708},{"NoteNumber":48,"Velocity":40,"Duration":298196,"SoundDuration":298196,"Delta":17905708},{"NoteNumber":76,"Velocity":58,"Duration":144732,"SoundDuration":144732,"Delta":18203904},{"NoteNumber":72,"Velocity":52,"Duration":149469,"SoundDuration":149469,"Delta":18348636},{"NoteNumber":67,"Velocity":48,"Duration":110434,"SoundDuration":110434,"Delta":18498105},{"NoteNumber":67,"Velocity":38,"Duration":116507,"SoundDuration":116507,"Delta":18792598},{"NoteNumber":72,"Velocity":70,"Duration":298939,"SoundDuration":298939,"Delta":19103286},{"NoteNumber":48,"Velocity":40,"Duration":298939,"SoundDuration":298939,"Delta":19103286},{"NoteNumber":76,"Velocity":57,"Duration":144732,"SoundDuration":144732,"Delta":19402225},{"NoteNumber":72,"Velocity":51,"Duration":149469,"SoundDuration":149469,"Delta":19546957},{"NoteNumber":67,"Velocity":47,"Duration":111540,"SoundDuration":111540,"Delta":19696427},{"NoteNumber":79,"Velocity":58,"Duration":146885,"SoundDuration":146885,"Delta":19993869},{"NoteNumber":77,"Velocity":65,"Duration":158053,"SoundDuration":158053,"Delta":20287278},{"NoteNumber":48,"Velocity":40,"Duration":287369,"SoundDuration":287369,"Delta":20287278},{"NoteNumber":76,"Velocity":48,"Duration":158053,"SoundDuration":158053,"Delta":20430963},{"NoteNumber":74,"Velocity":55,"Duration":158053,"SoundDuration":158053,"Delta":20574648},{"NoteNumber":72,"Velocity":47,"Duration":160163,"SoundDuration":160163,"Delta":20718333},{"NoteNumber":71,"Velocity":61,"Duration":157668,"SoundDuration":157668,"Delta":20864163},{"NoteNumber":48,"Velocity":35,"Duration":286670,"SoundDuration":286670,"Delta":20864163},{"NoteNumber":72,"Velocity":54,"Duration":157668,"SoundDuration":157668,"Delta":21007498},{"NoteNumber":71,"Velocity":62,"Duration":158693,"SoundDuration":158693,"Delta":21150833},{"NoteNumber":72,"Velocity":54,"Duration":164367,"SoundDuration":164367,"Delta":21294466},{"NoteNumber":74,"Velocity":68,"Duration":158146,"SoundDuration":158146,"Delta":21444500},{"NoteNumber":43,"Velocity":40,"Duration":288426,"SoundDuration":288426,"Delta":21444500},{"NoteNumber":72,"Velocity":59,"Duration":159261,"SoundDuration":159261,"Delta":21588209},{"NoteNumber":71,"Velocity":56,"Duration":160392,"SoundDuration":160392,"Delta":21732927},{"NoteNumber":69,"Velocity":53,"Duration":161048,"SoundDuration":161048,"Delta":21878683},{"NoteNumber":67,"Velocity":70,"Duration":292697,"SoundDuration":292697,"Delta":22025188},{"NoteNumber":55,"Velocity":48,"Duration":160364,"SoundDuration":160364,"Delta":22025188},{"NoteNumber":53,"Velocity":38,"Duration":161738,"SoundDuration":161738,"Delta":22170915},{"NoteNumber":52,"Velocity":40,"Duration":164315,"SoundDuration":164315,"Delta":22317885},{"NoteNumber":50,"Velocity":38,"Duration":174709,"SoundDuration":174709,"Delta":22466206},{"NoteNumber":72,"Velocity":41,"Duration":295217,"SoundDuration":295217,"Delta":22626155},{"NoteNumber":48,"Velocity":23,"Duration":295217,"SoundDuration":295217,"Delta":22626155},{"NoteNumber":76,"Velocity":34,"Duration":145088,"SoundDuration":145088,"Delta":22921372},{"NoteNumber":72,"Velocity":28,"Duration":151768,"SoundDuration":151768,"Delta":23066460},{"NoteNumber":67,"Velocity":28,"Duration":110706,"SoundDuration":110706,"Delta":23218228},{"NoteNumber":67,"Velocity":25,"Duration":114410,"SoundDuration":114410,"Delta":23513445},{"NoteNumber":76,"Velocity":41,"Duration":293772,"SoundDuration":293772,"Delta":23818540},{"NoteNumber":60,"Velocity":23,"Duration":293772,"SoundDuration":293772,"Delta":23818540},{"NoteNumber":79,"Velocity":35,"Duration":144030,"SoundDuration":144030,"Delta":24112312},{"NoteNumber":76,"Velocity":30,"Duration":149097,"SoundDuration":149097,"Delta":24256342},{"NoteNumber":72,"Velocity":28,"Duration":303407,"SoundDuration":303407,"Delta":24405440},{"NoteNumber":76,"Velocity":39,"Duration":146156,"SoundDuration":146156,"Delta":24708847},{"NoteNumber":54,"Velocity":23,"Duration":292311,"SoundDuration":292311,"Delta":24708847},{"NoteNumber":72,"Velocity":34,"Duration":146155,"SoundDuration":146155,"Delta":24855003},{"NoteNumber":74,"Velocity":38,"Duration":142946,"SoundDuration":142946,"Delta":25001159},{"NoteNumber":55,"Velocity":23,"Duration":287228,"SoundDuration":287228,"Delta":25001159},{"NoteNumber":71,"Velocity":31,"Duration":144282,"SoundDuration":144282,"Delta":25144106},{"NoteNumber":72,"Velocity":34,"Duration":145899,"SoundDuration":145899,"Delta":25288388},{"NoteNumber":48,"Velocity":21,"Duration":293454,"SoundDuration":293454,"Delta":25288388},{"NoteNumber":69,"Velocity":29,"Duration":147554,"SoundDuration":147554,"Delta":25434287},{"NoteNumber":71,"Velocity":35,"Duration":144260,"SoundDuration":144260,"Delta":25581842},{"NoteNumber":50,"Velocity":24,"Duration":289730,"SoundDuration":289730,"Delta":25581842},{"NoteNumber":67,"Velocity":31,"Duration":145470,"SoundDuration":145470,"Delta":25726102},{"NoteNumber":69,"Velocity":36,"Duration":147956,"SoundDuration":147956,"Delta":25871573},{"NoteNumber":38,"Velocity":20,"Duration":299167,"SoundDuration":299167,"Delta":25871573},{"NoteNumber":66,"Velocity":31,"Duration":151211,"SoundDuration":151211,"Delta":26019529},{"NoteNumber":67,"Velocity":68,"Duration":163017,"SoundDuration":163017,"Delta":26170740},{"NoteNumber":43,"Velocity":40,"Duration":295816,"SoundDuration":295816,"Delta":26170740},{"NoteNumber":69,"Velocity":54,"Duration":162321,"SoundDuration":162321,"Delta":26318959},{"NoteNumber":71,"Velocity":60,"Duration":161668,"SoundDuration":161668,"Delta":26466556},{"NoteNumber":72,"Velocity":58,"Duration":160925,"SoundDuration":160925,"Delta":26613573},{"NoteNumber":74,"Velocity":68,"Duration":160381,"SoundDuration":160381,"Delta":26759918},{"NoteNumber":76,"Velocity":58,"Duration":160056,"SoundDuration":160056,"Delta":26905719},{"NoteNumber":78,"Velocity":62,"Duration":160754,"SoundDuration":160754,"Delta":27051232},{"NoteNumber":79,"Velocity":58,"Duration":152547,"SoundDuration":152547,"Delta":27196731},{"NoteNumber":69,"Velocity":66,"Duration":300488,"SoundDuration":300488,"Delta":27349279},{"NoteNumber":54,"Velocity":40,"Duration":151768,"SoundDuration":151768,"Delta":27349279},{"NoteNumber":62,"Velocity":35,"Duration":148720,"SoundDuration":148720,"Delta":27501047},{"NoteNumber":81,"Velocity":54,"Duration":148720,"SoundDuration":148720,"Delta":27649768},{"NoteNumber":57,"Velocity":35,"Duration":148720,"SoundDuration":148720,"Delta":27649768},{"NoteNumber":62,"Velocity":35,"Duration":148721,"SoundDuration":148721,"Delta":27798489},{"NoteNumber":81,"Velocity":57,"Duration":149850,"SoundDuration":149850,"Delta":27947210},{"NoteNumber":54,"Velocity":40,"Duration":149850,"SoundDuration":149850,"Delta":27947210},{"NoteNumber":62,"Velocity":37,"Duration":149850,"SoundDuration":149850,"Delta":28097060},{"NoteNumber":81,"Velocity":53,"Duration":149849,"SoundDuration":149849,"Delta":28246910},{"NoteNumber":57,"Velocity":37,"Duration":149849,"SoundDuration":149849,"Delta":28246910},{"NoteNumber":62,"Velocity":37,"Duration":153735,"SoundDuration":153735,"Delta":28396760},{"NoteNumber":71,"Velocity":68,"Duration":163864,"SoundDuration":163864,"Delta":28550496},{"NoteNumber":55,"Velocity":40,"Duration":297479,"SoundDuration":297479,"Delta":28550496},{"NoteNumber":72,"Velocity":55,"Duration":163314,"SoundDuration":163314,"Delta":28699489},{"NoteNumber":74,"Velocity":60,"Duration":162666,"SoundDuration":162666,"Delta":28847975},{"NoteNumber":76,"Velocity":56,"Duration":162123,"SoundDuration":162123,"Delta":28995881},{"NoteNumber":78,"Velocity":68,"Duration":161493,"SoundDuration":161493,"Delta":29143288},{"NoteNumber":79,"Velocity":59,"Duration":161055,"SoundDuration":161055,"Delta":29290129},{"NoteNumber":81,"Velocity":62,"Duration":161813,"SoundDuration":161813,"Delta":29436532},{"NoteNumber":83,"Velocity":58,"Duration":152936,"SoundDuration":152936,"Delta":29583052},{"NoteNumber":72,"Velocity":66,"Duration":300458,"SoundDuration":300458,"Delta":29735989},{"NoteNumber":57,"Velocity":40,"Duration":150988,"SoundDuration":150988,"Delta":29735989},{"NoteNumber":62,"Velocity":35,"Duration":149469,"SoundDuration":149469,"Delta":29886978},{"NoteNumber":84,"Velocity":53,"Duration":147980,"SoundDuration":147980,"Delta":30036447},{"NoteNumber":60,"Velocity":35,"Duration":147980,"SoundDuration":147980,"Delta":30036447},{"NoteNumber":62,"Velocity":35,"Duration":147980,"SoundDuration":147980,"Delta":30184427},{"NoteNumber":84,"Velocity":57,"Duration":147980,"SoundDuration":147980,"Delta":30332407},{"NoteNumber":57,"Velocity":40,"Duration":147980,"SoundDuration":147980,"Delta":30332407},{"NoteNumber":62,"Velocity":37,"Duration":147979,"SoundDuration":147979,"Delta":30480387},{"NoteNumber":84,"Velocity":55,"Duration":147980,"SoundDuration":147980,"Delta":30628367},{"NoteNumber":60,"Velocity":37,"Duration":147980,"SoundDuration":147980,"Delta":30628367},{"NoteNumber":62,"Velocity":37,"Duration":154010,"SoundDuration":154010,"Delta":30776347},{"NoteNumber":74,"Velocity":68,"Duration":148901,"SoundDuration":148901,"Delta":30930358},{"NoteNumber":59,"Velocity":40,"Duration":297179,"SoundDuration":297179,"Delta":30930358},{"NoteNumber":79,"Velocity":59,"Duration":148278,"SoundDuration":148278,"Delta":31079259},{"NoteNumber":83,"Velocity":63,"Duration":147683,"SoundDuration":147683,"Delta":31227537},{"NoteNumber":86,"Velocity":61,"Duration":147073,"SoundDuration":147073,"Delta":31375221},{"NoteNumber":84,"Velocity":68,"Duration":160967,"SoundDuration":160967,"Delta":31522295},{"NoteNumber":83,"Velocity":58,"Duration":161682,"SoundDuration":161682,"Delta":31668610},{"NoteNumber":81,"Velocity":62,"Duration":162451,"SoundDuration":162451,"Delta":31815568},{"NoteNumber":79,"Velocity":59,"Duration":162845,"SoundDuration":162845,"Delta":31963221},{"NoteNumber":78,"Velocity":68,"Duration":160111,"SoundDuration":160111,"Delta":32111558},{"NoteNumber":60,"Velocity":40,"Duration":295321,"SoundDuration":295321,"Delta":32111558},{"NoteNumber":76,"Velocity":61,"Duration":164706,"SoundDuration":164706,"Delta":32256646},{"NoteNumber":79,"Velocity":65,"Duration":160184,"SoundDuration":160184,"Delta":32406879},{"NoteNumber":78,"Velocity":57,"Duration":169107,"SoundDuration":169107,"Delta":32551611},{"NoteNumber":81,"Velocity":68,"Duration":160747,"SoundDuration":160747,"Delta":32706139},{"NoteNumber":48,"Velocity":37,"Duration":295270,"SoundDuration":295270,"Delta":32706139},{"NoteNumber":79,"Velocity":61,"Duration":164085,"SoundDuration":164085,"Delta":32851940},{"NoteNumber":78,"Velocity":64,"Duration":161937,"SoundDuration":161937,"Delta":33001409},{"NoteNumber":76,"Velocity":59,"Duration":157820,"SoundDuration":157820,"Delta":33147565},{"NoteNumber":76,"Velocity":65,"Duration":161971,"SoundDuration":161971,"Delta":33305385},{"NoteNumber":50,"Velocity":40,"Duration":294493,"SoundDuration":294493,"Delta":33305385},{"NoteNumber":74,"Velocity":54,"Duration":161971,"SoundDuration":161971,"Delta":33452632},{"NoteNumber":72,"Velocity":60,"Duration":162987,"SoundDuration":162987,"Delta":33599878},{"NoteNumber":71,"Velocity":56,"Duration":157406,"SoundDuration":157406,"Delta":33747125},{"NoteNumber":74,"Velocity":66,"Duration":162369,"SoundDuration":162369,"Delta":33904531},{"NoteNumber":38,"Velocity":39,"Duration":295217,"SoundDuration":295217,"Delta":33904531},{"NoteNumber":72,"Velocity":59,"Duration":162369,"SoundDuration":162369,"Delta":34052139},{"NoteNumber":71,"Velocity":61,"Duration":163689,"SoundDuration":163689,"Delta":34199748},{"NoteNumber":69,"Velocity":58,"Duration":176555,"SoundDuration":176555,"Delta":34347356},{"NoteNumber":67,"Velocity":68,"Duration":655960,"SoundDuration":655960,"Delta":34508171},{"NoteNumber":43,"Velocity":48,"Duration":157406,"SoundDuration":157406,"Delta":34508171},{"NoteNumber":47,"Velocity":38,"Duration":163026,"SoundDuration":163026,"Delta":34665577},{"NoteNumber":50,"Velocity":40,"Duration":163025,"SoundDuration":163025,"Delta":34828603},{"NoteNumber":55,"Velocity":38,"Duration":172502,"SoundDuration":172502,"Delta":34991629},{"NoteNumber":43,"Velocity":48,"Duration":325256,"SoundDuration":325256,"Delta":35164132},{"NoteNumber":71,"Velocity":41,"Duration":295217,"SoundDuration":295217,"Delta":35814644},{"NoteNumber":65,"Velocity":23,"Duration":1192385,"SoundDuration":1192385,"Delta":35814644},{"NoteNumber":74,"Velocity":34,"Duration":145088,"SoundDuration":145088,"Delta":36109861},{"NoteNumber":71,"Velocity":28,"Duration":151767,"SoundDuration":151767,"Delta":36254950},{"NoteNumber":67,"Velocity":28,"Duration":110706,"SoundDuration":110706,"Delta":36406718},{"NoteNumber":67,"Velocity":27,"Duration":114410,"SoundDuration":114410,"Delta":36701935},{"NoteNumber":72,"Velocity":41,"Duration":295217,"SoundDuration":295217,"Delta":37007030},{"NoteNumber":63,"Velocity":23,"Duration":1192385,"SoundDuration":1192385,"Delta":37007030},{"NoteNumber":75,"Velocity":34,"Duration":145088,"SoundDuration":145088,"Delta":37302247},{"NoteNumber":72,"Velocity":28,"Duration":151767,"SoundDuration":151767,"Delta":37447335},{"NoteNumber":67,"Velocity":26,"Duration":110706,"SoundDuration":110706,"Delta":37599103},{"NoteNumber":79,"Velocity":33,"Duration":305095,"SoundDuration":305095,"Delta":37894320},{"NoteNumber":77,"Velocity":37,"Duration":295217,"SoundDuration":295217,"Delta":38199415},{"NoteNumber":59,"Velocity":23,"Duration":595683,"SoundDuration":595683,"Delta":38199415},{"NoteNumber":74,"Velocity":33,"Duration":300466,"SoundDuration":300466,"Delta":38494632},{"NoteNumber":75,"Velocity":38,"Duration":294493,"SoundDuration":294493,"Delta":38795098},{"NoteNumber":60,"Velocity":22,"Duration":594193,"SoundDuration":594193,"Delta":38795098},{"NoteNumber":72,"Velocity":30,"Duration":299700,"SoundDuration":299700,"Delta":39089591},{"NoteNumber":71,"Velocity":35,"Duration":147246,"SoundDuration":147246,"Delta":39389291},{"NoteNumber":55,"Velocity":23,"Duration":589100,"SoundDuration":589100,"Delta":39389291},{"NoteNumber":72,"Velocity":28,"Duration":146155,"SoundDuration":146155,"Delta":39536538},{"NoteNumber":74,"Velocity":33,"Duration":145088,"SoundDuration":145088,"Delta":39682694},{"NoteNumber":71,"Velocity":30,"Duration":150610,"SoundDuration":150610,"Delta":39827782},{"NoteNumber":67,"Velocity":36,"Duration":109617,"SoundDuration":109617,"Delta":39978392},{"NoteNumber":67,"Velocity":32,"Duration":113241,"SoundDuration":113241,"Delta":40270704},{"NoteNumber":79,"Velocity":56,"Duration":145440,"SoundDuration":145440,"Delta":40572682},{"NoteNumber":65,"Velocity":55,"Duration":290828,"SoundDuration":290828,"Delta":40572682},{"NoteNumber":67,"Velocity":40,"Duration":145388,"SoundDuration":145388,"Delta":40718123},{"NoteNumber":79,"Velocity":51,"Duration":145650,"SoundDuration":145650,"Delta":40863511},{"NoteNumber":55,"Velocity":42,"Duration":290683,"SoundDuration":290683,"Delta":40863511},{"NoteNumber":67,"Velocity":35,"Duration":145032,"SoundDuration":145032,"Delta":41009162},{"NoteNumber":79,"Velocity":50,"Duration":144407,"SoundDuration":144407,"Delta":41154194},{"NoteNumber":62,"Velocity":50,"Duration":288204,"SoundDuration":288204,"Delta":41154194},{"NoteNumber":67,"Velocity":36,"Duration":143796,"SoundDuration":143796,"Delta":41298602},{"NoteNumber":79,"Velocity":50,"Duration":143128,"SoundDuration":143128,"Delta":41442399},{"NoteNumber":55,"Velocity":44,"Duration":286391,"SoundDuration":286391,"Delta":41442399},{"NoteNumber":67,"Velocity":40,"Duration":143262,"SoundDuration":143262,"Delta":41585528},{"NoteNumber":79,"Velocity":59,"Duration":145005,"SoundDuration":145005,"Delta":41728790},{"NoteNumber":63,"Velocity":57,"Duration":289598,"SoundDuration":289598,"Delta":41728790},{"NoteNumber":67,"Velocity":43,"Duration":144592,"SoundDuration":144592,"Delta":41873796},{"NoteNumber":79,"Velocity":51,"Duration":144171,"SoundDuration":144171,"Delta":42018389},{"NoteNumber":55,"Velocity":46,"Duration":287928,"SoundDuration":287928,"Delta":42018389},{"NoteNumber":67,"Velocity":39,"Duration":143756,"SoundDuration":143756,"Delta":42162560},{"NoteNumber":79,"Velocity":49,"Duration":143337,"SoundDuration":143337,"Delta":42306317},{"NoteNumber":60,"Velocity":53,"Duration":287056,"SoundDuration":287056,"Delta":42306317},{"NoteNumber":67,"Velocity":37,"Duration":143718,"SoundDuration":143718,"Delta":42449655},{"NoteNumber":79,"Velocity":47,"Duration":144235,"SoundDuration":144235,"Delta":42593374},{"NoteNumber":55,"Velocity":44,"Duration":289060,"SoundDuration":289060,"Delta":42593374},{"NoteNumber":67,"Velocity":37,"Duration":144825,"SoundDuration":144825,"Delta":42737609},{"NoteNumber":74,"Velocity":51,"Duration":160201,"SoundDuration":160201,"Delta":42882434},{"NoteNumber":59,"Velocity":51,"Duration":293048,"SoundDuration":293048,"Delta":42882434},{"NoteNumber":75,"Velocity":43,"Duration":162188,"SoundDuration":162188,"Delta":43027875},{"NoteNumber":77,"Velocity":50,"Duration":160938,"SoundDuration":160938,"Delta":43175483},{"NoteNumber":74,"Velocity":48,"Duration":165850,"SoundDuration":165850,"Delta":43321284},{"NoteNumber":77,"Velocity":60,"Duration":159205,"SoundDuration":159205,"Delta":43472662},{"NoteNumber":60,"Velocity":47,"Duration":289464,"SoundDuration":289464,"Delta":43472662},{"NoteNumber":75,"Velocity":48,"Duration":159205,"SoundDuration":159205,"Delta":43617394},{"NoteNumber":74,"Velocity":54,"Duration":160145,"SoundDuration":160145,"Delta":43762126},{"NoteNumber":72,"Velocity":48,"Duration":168674,"SoundDuration":168674,"Delta":43906858},{"NoteNumber":79,"Velocity":61,"Duration":290880,"SoundDuration":290880,"Delta":44060988},{"NoteNumber":71,"Velocity":61,"Duration":290880,"SoundDuration":290880,"Delta":44060988},{"NoteNumber":55,"Velocity":55,"Duration":290880,"SoundDuration":290880,"Delta":44060988},{"NoteNumber":43,"Velocity":38,"Duration":296706,"SoundDuration":296706,"Delta":44351869},{"NoteNumber":55,"Velocity":48,"Duration":160364,"SoundDuration":160364,"Delta":44648576},{"NoteNumber":53,"Velocity":38,"Duration":161738,"SoundDuration":161738,"Delta":44794304},{"NoteNumber":52,"Velocity":40,"Duration":164315,"SoundDuration":164315,"Delta":44941274},{"NoteNumber":50,"Velocity":38,"Duration":174858,"SoundDuration":174858,"Delta":45089594},{"NoteNumber":60,"Velocity":37,"Duration":298195,"SoundDuration":298195,"Delta":45249543},{"NoteNumber":48,"Velocity":21,"Duration":298195,"SoundDuration":298195,"Delta":45249543},{"NoteNumber":64,"Velocity":30,"Duration":144731,"SoundDuration":144731,"Delta":45547739},{"NoteNumber":60,"Velocity":27,"Duration":149469,"SoundDuration":149469,"Delta":45692471},{"NoteNumber":55,"Velocity":26,"Duration":110434,"SoundDuration":110434,"Delta":45841941},{"NoteNumber":55,"Velocity":24,"Duration":116508,"SoundDuration":116508,"Delta":46136434},{"NoteNumber":60,"Velocity":37,"Duration":298938,"SoundDuration":298938,"Delta":46447122},{"NoteNumber":48,"Velocity":21,"Duration":298938,"SoundDuration":298938,"Delta":46447122},{"NoteNumber":64,"Velocity":29,"Duration":144731,"SoundDuration":144731,"Delta":46746061},{"NoteNumber":60,"Velocity":26,"Duration":149469,"SoundDuration":149469,"Delta":46890793},{"NoteNumber":55,"Velocity":24,"Duration":111540,"SoundDuration":111540,"Delta":47040262},{"NoteNumber":67,"Velocity":30,"Duration":146886,"SoundDuration":146886,"Delta":47337704},{"NoteNumber":65,"Velocity":34,"Duration":158053,"SoundDuration":158053,"Delta":47631113},{"NoteNumber":48,"Velocity":21,"Duration":287370,"SoundDuration":287370,"Delta":47631113},{"NoteNumber":64,"Velocity":24,"Duration":158053,"SoundDuration":158053,"Delta":47774798},{"NoteNumber":62,"Velocity":28,"Duration":158053,"SoundDuration":158053,"Delta":47918483},{"NoteNumber":60,"Velocity":23,"Duration":160163,"SoundDuration":160163,"Delta":48062168},{"NoteNumber":59,"Velocity":31,"Duration":157668,"SoundDuration":157668,"Delta":48207999},{"NoteNumber":48,"Velocity":17,"Duration":286670,"SoundDuration":286670,"Delta":48207999},{"NoteNumber":60,"Velocity":28,"Duration":157668,"SoundDuration":157668,"Delta":48351334},{"NoteNumber":59,"Velocity":32,"Duration":158693,"SoundDuration":158693,"Delta":48494669},{"NoteNumber":60,"Velocity":28,"Duration":164367,"SoundDuration":164367,"Delta":48638302},{"NoteNumber":62,"Velocity":35,"Duration":158146,"SoundDuration":158146,"Delta":48788336},{"NoteNumber":43,"Velocity":21,"Duration":288426,"SoundDuration":288426,"Delta":48788336},{"NoteNumber":60,"Velocity":30,"Duration":159261,"SoundDuration":159261,"Delta":48932045},{"NoteNumber":59,"Velocity":29,"Duration":160392,"SoundDuration":160392,"Delta":49076763},{"NoteNumber":57,"Velocity":28,"Duration":161048,"SoundDuration":161048,"Delta":49222518},{"NoteNumber":55,"Velocity":37,"Duration":292697,"SoundDuration":292697,"Delta":49369023},{"NoteNumber":43,"Velocity":24,"Duration":160364,"SoundDuration":160364,"Delta":49369023},{"NoteNumber":41,"Velocity":19,"Duration":161738,"SoundDuration":161738,"Delta":49514751},{"NoteNumber":40,"Velocity":21,"Duration":164315,"SoundDuration":164315,"Delta":49661721},{"NoteNumber":38,"Velocity":19,"Duration":174858,"SoundDuration":174858,"Delta":49810041},{"NoteNumber":60,"Velocity":44,"Duration":298195,"SoundDuration":298195,"Delta":49969990},{"NoteNumber":36,"Velocity":25,"Duration":298195,"SoundDuration":298195,"Delta":49969990},{"NoteNumber":55,"Velocity":36,"Duration":144731,"SoundDuration":144731,"Delta":50268186},{"NoteNumber":60,"Velocity":32,"Duration":149469,"SoundDuration":149469,"Delta":50412918},{"NoteNumber":64,"Velocity":37,"Duration":110434,"SoundDuration":110434,"Delta":50562388},{"NoteNumber":64,"Velocity":31,"Duration":116508,"SoundDuration":116508,"Delta":50856881},{"NoteNumber":64,"Velocity":48,"Duration":298195,"SoundDuration":298195,"Delta":51167569},{"NoteNumber":48,"Velocity":27,"Duration":298195,"SoundDuration":298195,"Delta":51167569},{"NoteNumber":60,"Velocity":41,"Duration":144731,"SoundDuration":144731,"Delta":51465765},{"NoteNumber":64,"Velocity":37,"Duration":149469,"SoundDuration":149469,"Delta":51610497},{"NoteNumber":67,"Velocity":44,"Duration":110434,"SoundDuration":110434,"Delta":51759966},{"NoteNumber":72,"Velocity":38,"Duration":116508,"SoundDuration":116508,"Delta":52054459},{"NoteNumber":64,"Velocity":44,"Duration":110984,"SoundDuration":110984,"Delta":52365147},{"NoteNumber":67,"Velocity":52,"Duration":110984,"SoundDuration":110984,"Delta":52365147},{"NoteNumber":55,"Velocity":35,"Duration":295960,"SoundDuration":295960,"Delta":52365147},{"NoteNumber":65,"Velocity":46,"Duration":115301,"SoundDuration":115301,"Delta":52661107},{"NoteNumber":62,"Velocity":39,"Duration":115301,"SoundDuration":115301,"Delta":52661107},{"NoteNumber":60,"Velocity":50,"Duration":110984,"SoundDuration":110984,"Delta":52968579},{"NoteNumber":64,"Velocity":59,"Duration":110984,"SoundDuration":110984,"Delta":52968579},{"NoteNumber":43,"Velocity":40,"Duration":295960,"SoundDuration":295960,"Delta":52968579},{"NoteNumber":62,"Velocity":53,"Duration":114702,"SoundDuration":114702,"Delta":53264539},{"NoteNumber":59,"Velocity":44,"Duration":114702,"SoundDuration":114702,"Delta":53264539},{"NoteNumber":60,"Velocity":68,"Duration":163017,"SoundDuration":163017,"Delta":53570412},{"NoteNumber":48,"Velocity":40,"Duration":295816,"SoundDuration":295816,"Delta":53570412},{"NoteNumber":62,"Velocity":54,"Duration":162321,"SoundDuration":162321,"Delta":53718632},{"NoteNumber":64,"Velocity":60,"Duration":161668,"SoundDuration":161668,"Delta":53866229},{"NoteNumber":65,"Velocity":58,"Duration":160925,"SoundDuration":160925,"Delta":54013245},{"NoteNumber":67,"Velocity":68,"Duration":160381,"SoundDuration":160381,"Delta":54159591},{"NoteNumber":69,"Velocity":58,"Duration":160056,"SoundDuration":160056,"Delta":54305392},{"NoteNumber":71,"Velocity":62,"Duration":160754,"SoundDuration":160754,"Delta":54450905},{"NoteNumber":72,"Velocity":58,"Duration":152547,"SoundDuration":152547,"Delta":54596404},{"NoteNumber":62,"Velocity":66,"Duration":300488,"SoundDuration":300488,"Delta":54748951},{"NoteNumber":47,"Velocity":40,"Duration":151767,"SoundDuration":151767,"Delta":54748951},{"NoteNumber":55,"Velocity":35,"Duration":148721,"SoundDuration":148721,"Delta":54900719},{"NoteNumber":74,"Velocity":54,"Duration":148721,"SoundDuration":148721,"Delta":55049440},{"NoteNumber":50,"Velocity":35,"Duration":148721,"SoundDuration":148721,"Delta":55049440},{"NoteNumber":55,"Velocity":35,"Duration":148720,"SoundDuration":148720,"Delta":55198161},{"NoteNumber":74,"Velocity":57,"Duration":149850,"SoundDuration":149850,"Delta":55346882},{"NoteNumber":47,"Velocity":40,"Duration":149850,"SoundDuration":149850,"Delta":55346882},{"NoteNumber":55,"Velocity":37,"Duration":149850,"SoundDuration":149850,"Delta":55496732},{"NoteNumber":74,"Velocity":53,"Duration":149850,"SoundDuration":149850,"Delta":55646582},{"NoteNumber":50,"Velocity":37,"Duration":149850,"SoundDuration":149850,"Delta":55646582},{"NoteNumber":55,"Velocity":37,"Duration":153736,"SoundDuration":153736,"Delta":55796432},{"NoteNumber":64,"Velocity":68,"Duration":163864,"SoundDuration":163864,"Delta":55950168},{"NoteNumber":48,"Velocity":40,"Duration":297479,"SoundDuration":297479,"Delta":55950168},{"NoteNumber":65,"Velocity":55,"Duration":163314,"SoundDuration":163314,"Delta":56099161},{"NoteNumber":67,"Velocity":60,"Duration":162666,"SoundDuration":162666,"Delta":56247648},{"NoteNumber":69,"Velocity":56,"Duration":162123,"SoundDuration":162123,"Delta":56395554},{"NoteNumber":71,"Velocity":68,"Duration":161493,"SoundDuration":161493,"Delta":56542960},{"NoteNumber":72,"Velocity":59,"Duration":161055,"SoundDuration":161055,"Delta":56689802},{"NoteNumber":74,"Velocity":62,"Duration":161813,"SoundDuration":161813,"Delta":56836205},{"NoteNumber":76,"Velocity":58,"Duration":152936,"SoundDuration":152936,"Delta":56982725},{"NoteNumber":65,"Velocity":66,"Duration":300458,"SoundDuration":300458,"Delta":57135661},{"NoteNumber":50,"Velocity":40,"Duration":150989,"SoundDuration":150989,"Delta":57135661},{"NoteNumber":55,"Velocity":35,"Duration":149469,"SoundDuration":149469,"Delta":57286650},{"NoteNumber":77,"Velocity":53,"Duration":147979,"SoundDuration":147979,"Delta":57436120},{"NoteNumber":53,"Velocity":35,"Duration":147979,"SoundDuration":147979,"Delta":57436120},{"NoteNumber":55,"Velocity":35,"Duration":147980,"SoundDuration":147980,"Delta":57584100},{"NoteNumber":77,"Velocity":57,"Duration":147979,"SoundDuration":147979,"Delta":57732080},{"NoteNumber":50,"Velocity":40,"Duration":147979,"SoundDuration":147979,"Delta":57732080},{"NoteNumber":55,"Velocity":37,"Duration":147980,"SoundDuration":147980,"Delta":57880060},{"NoteNumber":77,"Velocity":55,"Duration":147979,"SoundDuration":147979,"Delta":58028040},{"NoteNumber":53,"Velocity":37,"Duration":147979,"SoundDuration":147979,"Delta":58028040},{"NoteNumber":55,"Velocity":37,"Duration":154010,"SoundDuration":154010,"Delta":58176020},{"NoteNumber":67,"Velocity":68,"Duration":148901,"SoundDuration":148901,"Delta":58330030},{"NoteNumber":52,"Velocity":40,"Duration":297179,"SoundDuration":297179,"Delta":58330030},{"NoteNumber":72,"Velocity":59,"Duration":148278,"SoundDuration":148278,"Delta":58478932},{"NoteNumber":76,"Velocity":63,"Duration":147683,"SoundDuration":147683,"Delta":58627210},{"NoteNumber":79,"Velocity":61,"Duration":147073,"SoundDuration":147073,"Delta":58774894},{"NoteNumber":77,"Velocity":68,"Duration":160967,"SoundDuration":160967,"Delta":58921968},{"NoteNumber":76,"Velocity":58,"Duration":161682,"SoundDuration":161682,"Delta":59068283},{"NoteNumber":74,"Velocity":62,"Duration":162451,"SoundDuration":162451,"Delta":59215240},{"NoteNumber":72,"Velocity":59,"Duration":148336,"SoundDuration":148336,"Delta":59362894},{"NoteNumber":81,"Velocity":68,"Duration":160111,"SoundDuration":160111,"Delta":59511230},{"NoteNumber":53,"Velocity":40,"Duration":295321,"SoundDuration":295321,"Delta":59511230},{"NoteNumber":79,"Velocity":61,"Duration":164706,"SoundDuration":164706,"Delta":59656319},{"NoteNumber":77,"Velocity":65,"Duration":160184,"SoundDuration":160184,"Delta":59806552},{"NoteNumber":76,"Velocity":57,"Duration":169107,"SoundDuration":169107,"Delta":59951284},{"NoteNumber":74,"Velocity":68,"Duration":160747,"SoundDuration":160747,"Delta":60105811},{"NoteNumber":53,"Velocity":37,"Duration":295270,"SoundDuration":295270,"Delta":60105811},{"NoteNumber":72,"Velocity":61,"Duration":164085,"SoundDuration":164085,"Delta":60251612},{"NoteNumber":71,"Velocity":64,"Duration":161937,"SoundDuration":161937,"Delta":60401082},{"NoteNumber":69,"Velocity":59,"Duration":157820,"SoundDuration":157820,"Delta":60547238},{"NoteNumber":67,"Velocity":65,"Duration":161971,"SoundDuration":161971,"Delta":60705058},{"NoteNumber":55,"Velocity":40,"Duration":294493,"SoundDuration":294493,"Delta":60705058},{"NoteNumber":69,"Velocity":54,"Duration":161971,"SoundDuration":161971,"Delta":60852304},{"NoteNumber":65,"Velocity":60,"Duration":162987,"SoundDuration":162987,"Delta":60999551},{"NoteNumber":67,"Velocity":56,"Duration":172166,"SoundDuration":172166,"Delta":61146797},{"NoteNumber":64,"Velocity":66,"Duration":162369,"SoundDuration":162369,"Delta":61304203},{"NoteNumber":43,"Velocity":39,"Duration":295217,"SoundDuration":295217,"Delta":61304203},{"NoteNumber":65,"Velocity":59,"Duration":162369,"SoundDuration":162369,"Delta":61451812},{"NoteNumber":62,"Velocity":61,"Duration":163689,"SoundDuration":163689,"Delta":61599420},{"NoteNumber":64,"Velocity":58,"Duration":176555,"SoundDuration":176555,"Delta":61747029},{"NoteNumber":60,"Velocity":68,"Duration":655960,"SoundDuration":655960,"Delta":61907844},{"NoteNumber":36,"Velocity":48,"Duration":157406,"SoundDuration":157406,"Delta":61907844},{"NoteNumber":40,"Velocity":38,"Duration":163026,"SoundDuration":163026,"Delta":62065250},{"NoteNumber":43,"Velocity":40,"Duration":163025,"SoundDuration":163025,"Delta":62228276},{"NoteNumber":48,"Velocity":38,"Duration":172502,"SoundDuration":172502,"Delta":62391302},{"NoteNumber":36,"Velocity":48,"Duration":325256,"SoundDuration":325256,"Delta":62563805},{"NoteNumber":71,"Velocity":41,"Duration":295217,"SoundDuration":295217,"Delta":63214317},{"NoteNumber":65,"Velocity":23,"Duration":1192385,"SoundDuration":1192385,"Delta":63214317},{"NoteNumber":74,"Velocity":34,"Duration":145088,"SoundDuration":145088,"Delta":63509534},{"NoteNumber":71,"Velocity":28,"Duration":151767,"SoundDuration":151767,"Delta":63654622},{"NoteNumber":67,"Velocity":28,"Duration":110706,"SoundDuration":110706,"Delta":63806390},{"NoteNumber":67,"Velocity":24,"Duration":114410,"SoundDuration":114410,"Delta":64101607},{"NoteNumber":72,"Velocity":41,"Duration":295216,"SoundDuration":295216,"Delta":64406702},{"NoteNumber":63,"Velocity":23,"Duration":1192385,"SoundDuration":1192385,"Delta":64406702},{"NoteNumber":75,"Velocity":34,"Duration":145088,"SoundDuration":145088,"Delta":64701919},{"NoteNumber":72,"Velocity":28,"Duration":151768,"SoundDuration":151768,"Delta":64847008},{"NoteNumber":67,"Velocity":28,"Duration":110706,"SoundDuration":110706,"Delta":64998776},{"NoteNumber":79,"Velocity":33,"Duration":305094,"SoundDuration":305094,"Delta":65293993},{"NoteNumber":77,"Velocity":37,"Duration":295216,"SoundDuration":295216,"Delta":65599088},{"NoteNumber":59,"Velocity":23,"Duration":595682,"SoundDuration":595682,"Delta":65599088},{"NoteNumber":74,"Velocity":33,"Duration":300466,"SoundDuration":300466,"Delta":65894305},{"NoteNumber":75,"Velocity":38,"Duration":294493,"SoundDuration":294493,"Delta":66194771},{"NoteNumber":60,"Velocity":22,"Duration":594193,"SoundDuration":594193,"Delta":66194771},{"NoteNumber":72,"Velocity":30,"Duration":299700,"SoundDuration":299700,"Delta":66489264},{"NoteNumber":71,"Velocity":35,"Duration":147246,"SoundDuration":147246,"Delta":66788964},{"NoteNumber":55,"Velocity":23,"Duration":589100,"SoundDuration":589100,"Delta":66788964},{"NoteNumber":72,"Velocity":28,"Duration":146156,"SoundDuration":146156,"Delta":66936210},{"NoteNumber":74,"Velocity":33,"Duration":145088,"SoundDuration":145088,"Delta":67082366},{"NoteNumber":71,"Velocity":30,"Duration":150610,"SoundDuration":150610,"Delta":67227455},{"NoteNumber":67,"Velocity":36,"Duration":109617,"SoundDuration":109617,"Delta":67378065},{"NoteNumber":67,"Velocity":32,"Duration":113241,"SoundDuration":113241,"Delta":67670377},{"NoteNumber":79,"Velocity":56,"Duration":145440,"SoundDuration":145440,"Delta":67972355},{"NoteNumber":65,"Velocity":55,"Duration":290828,"SoundDuration":290828,"Delta":67972355},{"NoteNumber":67,"Velocity":40,"Duration":145388,"SoundDuration":145388,"Delta":68117795},{"NoteNumber":79,"Velocity":51,"Duration":145650,"SoundDuration":145650,"Delta":68263183},{"NoteNumber":55,"Velocity":42,"Duration":290683,"SoundDuration":290683,"Delta":68263183},{"NoteNumber":67,"Velocity":35,"Duration":145032,"SoundDuration":145032,"Delta":68408834},{"NoteNumber":79,"Velocity":50,"Duration":144407,"SoundDuration":144407,"Delta":68553867},{"NoteNumber":62,"Velocity":50,"Duration":288204,"SoundDuration":288204,"Delta":68553867},{"NoteNumber":67,"Velocity":36,"Duration":143796,"SoundDuration":143796,"Delta":68698275},{"NoteNumber":79,"Velocity":50,"Duration":143128,"SoundDuration":143128,"Delta":68842072},{"NoteNumber":55,"Velocity":44,"Duration":286391,"SoundDuration":286391,"Delta":68842072},{"NoteNumber":67,"Velocity":40,"Duration":143262,"SoundDuration":143262,"Delta":68985200},{"NoteNumber":79,"Velocity":59,"Duration":145005,"SoundDuration":145005,"Delta":69128463},{"NoteNumber":63,"Velocity":57,"Duration":289598,"SoundDuration":289598,"Delta":69128463},{"NoteNumber":67,"Velocity":43,"Duration":144592,"SoundDuration":144592,"Delta":69273468},{"NoteNumber":79,"Velocity":51,"Duration":144171,"SoundDuration":144171,"Delta":69418061},{"NoteNumber":55,"Velocity":46,"Duration":287928,"SoundDuration":287928,"Delta":69418061},{"NoteNumber":67,"Velocity":39,"Duration":143756,"SoundDuration":143756,"Delta":69562233},{"NoteNumber":79,"Velocity":49,"Duration":143337,"SoundDuration":143337,"Delta":69705989},{"NoteNumber":60,"Velocity":53,"Duration":287056,"SoundDuration":287056,"Delta":69705989},{"NoteNumber":67,"Velocity":37,"Duration":143718,"SoundDuration":143718,"Delta":69849327},{"NoteNumber":79,"Velocity":47,"Duration":144235,"SoundDuration":144235,"Delta":69993046},{"NoteNumber":55,"Velocity":44,"Duration":289060,"SoundDuration":289060,"Delta":69993046},{"NoteNumber":67,"Velocity":37,"Duration":144825,"SoundDuration":144825,"Delta":70137281},{"NoteNumber":74,"Velocity":51,"Duration":160201,"SoundDuration":160201,"Delta":70282107},{"NoteNumber":59,"Velocity":51,"Duration":293049,"SoundDuration":293049,"Delta":70282107},{"NoteNumber":75,"Velocity":43,"Duration":162188,"SoundDuration":162188,"Delta":70427547},{"NoteNumber":77,"Velocity":50,"Duration":160938,"SoundDuration":160938,"Delta":70575156},{"NoteNumber":74,"Velocity":48,"Duration":165850,"SoundDuration":165850,"Delta":70720957},{"NoteNumber":77,"Velocity":60,"Duration":159205,"SoundDuration":159205,"Delta":70872334},{"NoteNumber":60,"Velocity":47,"Duration":289463,"SoundDuration":289463,"Delta":70872334},{"NoteNumber":75,"Velocity":48,"Duration":159205,"SoundDuration":159205,"Delta":71017066},{"NoteNumber":74,"Velocity":54,"Duration":160145,"SoundDuration":160145,"Delta":71161798},{"NoteNumber":72,"Velocity":48,"Duration":168674,"SoundDuration":168674,"Delta":71306530},{"NoteNumber":79,"Velocity":61,"Duration":290880,"SoundDuration":290880,"Delta":71460661},{"NoteNumber":71,"Velocity":61,"Duration":290880,"SoundDuration":290880,"Delta":71460661},{"NoteNumber":55,"Velocity":55,"Duration":290880,"SoundDuration":290880,"Delta":71460661},{"NoteNumber":43,"Velocity":38,"Duration":296706,"SoundDuration":296706,"Delta":71751542},{"NoteNumber":55,"Velocity":48,"Duration":160364,"SoundDuration":160364,"Delta":72048249},{"NoteNumber":53,"Velocity":38,"Duration":161738,"SoundDuration":161738,"Delta":72193976},{"NoteNumber":52,"Velocity":40,"Duration":164315,"SoundDuration":164315,"Delta":72340946},{"NoteNumber":50,"Velocity":38,"Duration":174858,"SoundDuration":174858,"Delta":72489267},{"NoteNumber":60,"Velocity":37,"Duration":298196,"SoundDuration":298196,"Delta":72649216},{"NoteNumber":48,"Velocity":21,"Duration":298196,"SoundDuration":298196,"Delta":72649216},{"NoteNumber":64,"Velocity":30,"Duration":144732,"SoundDuration":144732,"Delta":72947412},{"NoteNumber":60,"Velocity":27,"Duration":149469,"SoundDuration":149469,"Delta":73092144},{"NoteNumber":55,"Velocity":25,"Duration":110434,"SoundDuration":110434,"Delta":73241613},{"NoteNumber":55,"Velocity":22,"Duration":116507,"SoundDuration":116507,"Delta":73536106},{"NoteNumber":60,"Velocity":37,"Duration":298939,"SoundDuration":298939,"Delta":73846794},{"NoteNumber":48,"Velocity":21,"Duration":298939,"SoundDuration":298939,"Delta":73846794},{"NoteNumber":64,"Velocity":29,"Duration":144732,"SoundDuration":144732,"Delta":74145733},{"NoteNumber":60,"Velocity":26,"Duration":149469,"SoundDuration":149469,"Delta":74290465},{"NoteNumber":55,"Velocity":25,"Duration":111540,"SoundDuration":111540,"Delta":74439935},{"NoteNumber":67,"Velocity":30,"Duration":146885,"SoundDuration":146885,"Delta":74737377},{"NoteNumber":65,"Velocity":34,"Duration":158053,"SoundDuration":158053,"Delta":75030786},{"NoteNumber":48,"Velocity":21,"Duration":287369,"SoundDuration":287369,"Delta":75030786},{"NoteNumber":64,"Velocity":24,"Duration":158053,"SoundDuration":158053,"Delta":75174471},{"NoteNumber":62,"Velocity":28,"Duration":158053,"SoundDuration":158053,"Delta":75318156},{"NoteNumber":60,"Velocity":23,"Duration":160163,"SoundDuration":160163,"Delta":75461841},{"NoteNumber":59,"Velocity":31,"Duration":157668,"SoundDuration":157668,"Delta":75607671},{"NoteNumber":48,"Velocity":17,"Duration":286670,"SoundDuration":286670,"Delta":75607671},{"NoteNumber":60,"Velocity":28,"Duration":157668,"SoundDuration":157668,"Delta":75751006},{"NoteNumber":59,"Velocity":32,"Duration":158693,"SoundDuration":158693,"Delta":75894341},{"NoteNumber":60,"Velocity":28,"Duration":164367,"SoundDuration":164367,"Delta":76037974},{"NoteNumber":62,"Velocity":35,"Duration":158146,"SoundDuration":158146,"Delta":76188008},{"NoteNumber":43,"Velocity":21,"Duration":288426,"SoundDuration":288426,"Delta":76188008},{"NoteNumber":60,"Velocity":30,"Duration":159261,"SoundDuration":159261,"Delta":76331718},{"NoteNumber":59,"Velocity":29,"Duration":160392,"SoundDuration":160392,"Delta":76476435},{"NoteNumber":57,"Velocity":28,"Duration":161048,"SoundDuration":161048,"Delta":76622191},{"NoteNumber":55,"Velocity":37,"Duration":292697,"SoundDuration":292697,"Delta":76768696},{"NoteNumber":43,"Velocity":24,"Duration":160364,"SoundDuration":160364,"Delta":76768696},{"NoteNumber":41,"Velocity":19,"Duration":161738,"SoundDuration":161738,"Delta":76914423},{"NoteNumber":40,"Velocity":21,"Duration":164315,"SoundDuration":164315,"Delta":77061393},{"NoteNumber":38,"Velocity":19,"Duration":174858,"SoundDuration":174858,"Delta":77209714},{"NoteNumber":60,"Velocity":44,"Duration":298196,"SoundDuration":298196,"Delta":77369663},{"NoteNumber":36,"Velocity":25,"Duration":298196,"SoundDuration":298196,"Delta":77369663},{"NoteNumber":55,"Velocity":36,"Duration":144732,"SoundDuration":144732,"Delta":77667859},{"NoteNumber":60,"Velocity":32,"Duration":149469,"SoundDuration":149469,"Delta":77812591},{"NoteNumber":64,"Velocity":37,"Duration":110434,"SoundDuration":110434,"Delta":77962060},{"NoteNumber":64,"Velocity":31,"Duration":116507,"SoundDuration":116507,"Delta":78256553},{"NoteNumber":64,"Velocity":48,"Duration":298196,"SoundDuration":298196,"Delta":78567241},{"NoteNumber":48,"Velocity":27,"Duration":298196,"SoundDuration":298196,"Delta":78567241},{"NoteNumber":60,"Velocity":41,"Duration":144732,"SoundDuration":144732,"Delta":78865437},{"NoteNumber":64,"Velocity":37,"Duration":149469,"SoundDuration":149469,"Delta":79010169},{"NoteNumber":67,"Velocity":44,"Duration":110434,"SoundDuration":110434,"Delta":79159639},{"NoteNumber":72,"Velocity":38,"Duration":116507,"SoundDuration":116507,"Delta":79454132},{"NoteNumber":64,"Velocity":44,"Duration":110984,"SoundDuration":110984,"Delta":79764820},{"NoteNumber":67,"Velocity":52,"Duration":110984,"SoundDuration":110984,"Delta":79764820},{"NoteNumber":55,"Velocity":35,"Duration":295959,"SoundDuration":295959,"Delta":79764820},{"NoteNumber":65,"Velocity":46,"Duration":115301,"SoundDuration":115301,"Delta":80060780},{"NoteNumber":62,"Velocity":39,"Duration":115301,"SoundDuration":115301,"Delta":80060780},{"NoteNumber":60,"Velocity":50,"Duration":110984,"SoundDuration":110984,"Delta":80368252},{"NoteNumber":64,"Velocity":59,"Duration":110984,"SoundDuration":110984,"Delta":80368252},{"NoteNumber":43,"Velocity":40,"Duration":295959,"SoundDuration":295959,"Delta":80368252},{"NoteNumber":62,"Velocity":53,"Duration":114702,"SoundDuration":114702,"Delta":80664212},{"NoteNumber":59,"Velocity":44,"Duration":114702,"SoundDuration":114702,"Delta":80664212},{"NoteNumber":60,"Velocity":68,"Duration":163017,"SoundDuration":163017,"Delta":80970085},{"NoteNumber":48,"Velocity":40,"Duration":295816,"SoundDuration":295816,"Delta":80970085},{"NoteNumber":62,"Velocity":54,"Duration":162321,"SoundDuration":162321,"Delta":81118305},{"NoteNumber":64,"Velocity":60,"Duration":161668,"SoundDuration":161668,"Delta":81265901},{"NoteNumber":65,"Velocity":58,"Duration":160925,"SoundDuration":160925,"Delta":81412918},{"NoteNumber":67,"Velocity":68,"Duration":160381,"SoundDuration":160381,"Delta":81559263},{"NoteNumber":69,"Velocity":58,"Duration":160056,"SoundDuration":160056,"Delta":81705064},{"NoteNumber":71,"Velocity":62,"Duration":160754,"SoundDuration":160754,"Delta":81850577},{"NoteNumber":72,"Velocity":58,"Duration":152547,"SoundDuration":152547,"Delta":81996077},{"NoteNumber":62,"Velocity":66,"Duration":300488,"SoundDuration":300488,"Delta":82148624},{"NoteNumber":47,"Velocity":40,"Duration":151768,"SoundDuration":151768,"Delta":82148624},{"NoteNumber":55,"Velocity":35,"Duration":148720,"SoundDuration":148720,"Delta":82300392},{"NoteNumber":74,"Velocity":54,"Duration":148720,"SoundDuration":148720,"Delta":82449113},{"NoteNumber":50,"Velocity":35,"Duration":148720,"SoundDuration":148720,"Delta":82449113},{"NoteNumber":55,"Velocity":35,"Duration":148721,"SoundDuration":148721,"Delta":82597834},{"NoteNumber":74,"Velocity":57,"Duration":149850,"SoundDuration":149850,"Delta":82746555},{"NoteNumber":47,"Velocity":40,"Duration":149850,"SoundDuration":149850,"Delta":82746555},{"NoteNumber":55,"Velocity":37,"Duration":149850,"SoundDuration":149850,"Delta":82896405},{"NoteNumber":74,"Velocity":53,"Duration":149850,"SoundDuration":149850,"Delta":83046255},{"NoteNumber":50,"Velocity":37,"Duration":149850,"SoundDuration":149850,"Delta":83046255},{"NoteNumber":55,"Velocity":37,"Duration":153735,"SoundDuration":153735,"Delta":83196105},{"NoteNumber":64,"Velocity":68,"Duration":163864,"SoundDuration":163864,"Delta":83349841},{"NoteNumber":48,"Velocity":40,"Duration":297479,"SoundDuration":297479,"Delta":83349841},{"NoteNumber":65,"Velocity":55,"Duration":163314,"SoundDuration":163314,"Delta":83498834},{"NoteNumber":67,"Velocity":60,"Duration":162666,"SoundDuration":162666,"Delta":83647320},{"NoteNumber":69,"Velocity":56,"Duration":162123,"SoundDuration":162123,"Delta":83795226},{"NoteNumber":71,"Velocity":68,"Duration":161493,"SoundDuration":161493,"Delta":83942633},{"NoteNumber":72,"Velocity":59,"Duration":161055,"SoundDuration":161055,"Delta":84089474},{"NoteNumber":74,"Velocity":62,"Duration":161813,"SoundDuration":161813,"Delta":84235877},{"NoteNumber":76,"Velocity":58,"Duration":152936,"SoundDuration":152936,"Delta":84382397},{"NoteNumber":65,"Velocity":66,"Duration":300458,"SoundDuration":300458,"Delta":84535334},{"NoteNumber":50,"Velocity":40,"Duration":150988,"SoundDuration":150988,"Delta":84535334},{"NoteNumber":55,"Velocity":35,"Duration":149469,"SoundDuration":149469,"Delta":84686323},{"NoteNumber":77,"Velocity":53,"Duration":147980,"SoundDuration":147980,"Delta":84835792},{"NoteNumber":53,"Velocity":35,"Duration":147980,"SoundDuration":147980,"Delta":84835792},{"NoteNumber":55,"Velocity":35,"Duration":147979,"SoundDuration":147979,"Delta":84983772},{"NoteNumber":77,"Velocity":57,"Duration":147980,"SoundDuration":147980,"Delta":85131752},{"NoteNumber":50,"Velocity":40,"Duration":147980,"SoundDuration":147980,"Delta":85131752},{"NoteNumber":55,"Velocity":37,"Duration":147980,"SoundDuration":147980,"Delta":85279732},{"NoteNumber":77,"Velocity":55,"Duration":147980,"SoundDuration":147980,"Delta":85427712},{"NoteNumber":53,"Velocity":37,"Duration":147980,"SoundDuration":147980,"Delta":85427712},{"NoteNumber":55,"Velocity":37,"Duration":154010,"SoundDuration":154010,"Delta":85575692},{"NoteNumber":67,"Velocity":68,"Duration":148901,"SoundDuration":148901,"Delta":85729703},{"NoteNumber":52,"Velocity":40,"Duration":297179,"SoundDuration":297179,"Delta":85729703},{"NoteNumber":72,"Velocity":59,"Duration":148278,"SoundDuration":148278,"Delta":85878604},{"NoteNumber":76,"Velocity":63,"Duration":147683,"SoundDuration":147683,"Delta":86026882},{"NoteNumber":79,"Velocity":61,"Duration":147073,"SoundDuration":147073,"Delta":86174566},{"NoteNumber":77,"Velocity":68,"Duration":160967,"SoundDuration":160967,"Delta":86321640},{"NoteNumber":76,"Velocity":58,"Duration":161682,"SoundDuration":161682,"Delta":86467955},{"NoteNumber":74,"Velocity":62,"Duration":162451,"SoundDuration":162451,"Delta":86614913},{"NoteNumber":72,"Velocity":59,"Duration":148336,"SoundDuration":148336,"Delta":86762566},{"NoteNumber":81,"Velocity":68,"Duration":160111,"SoundDuration":160111,"Delta":86910903},{"NoteNumber":53,"Velocity":40,"Duration":295321,"SoundDuration":295321,"Delta":86910903},{"NoteNumber":79,"Velocity":61,"Duration":164706,"SoundDuration":164706,"Delta":87055991},{"NoteNumber":77,"Velocity":65,"Duration":160184,"SoundDuration":160184,"Delta":87206224},{"NoteNumber":76,"Velocity":57,"Duration":169107,"SoundDuration":169107,"Delta":87350956},{"NoteNumber":74,"Velocity":68,"Duration":160747,"SoundDuration":160747,"Delta":87505484},{"NoteNumber":53,"Velocity":37,"Duration":295270,"SoundDuration":295270,"Delta":87505484},{"NoteNumber":72,"Velocity":61,"Duration":164085,"SoundDuration":164085,"Delta":87651285},{"NoteNumber":71,"Velocity":64,"Duration":161938,"SoundDuration":161938,"Delta":87800754},{"NoteNumber":69,"Velocity":59,"Duration":157820,"SoundDuration":157820,"Delta":87946910},{"NoteNumber":67,"Velocity":65,"Duration":167811,"SoundDuration":167811,"Delta":88104730},{"NoteNumber":55,"Velocity":40,"Duration":305110,"SoundDuration":305110,"Delta":88104730},{"NoteNumber":69,"Velocity":54,"Duration":167811,"SoundDuration":167811,"Delta":88257286},{"NoteNumber":65,"Velocity":60,"Duration":168601,"SoundDuration":168601,"Delta":88409841},{"NoteNumber":67,"Velocity":56,"Duration":175898,"SoundDuration":175898,"Delta":88562397},{"NoteNumber":64,"Velocity":66,"Duration":169805,"SoundDuration":169805,"Delta":88722859},{"NoteNumber":43,"Velocity":39,"Duration":308736,"SoundDuration":308736,"Delta":88722859},{"NoteNumber":65,"Velocity":59,"Duration":170104,"SoundDuration":170104,"Delta":88877227},{"NoteNumber":62,"Velocity":61,"Duration":175112,"SoundDuration":175112,"Delta":89031596},{"NoteNumber":64,"Velocity":58,"Duration":195092,"SoundDuration":195092,"Delta":89188952},{"NoteNumber":60,"Velocity":68,"Duration":806479,"SoundDuration":806479,"Delta":89366509},{"NoteNumber":36,"Velocity":48,"Duration":175356,"SoundDuration":175356,"Delta":89366509},{"NoteNumber":40,"Velocity":38,"Duration":191461,"SoundDuration":191461,"Delta":89541866},{"NoteNumber":43,"Velocity":40,"Duration":210985,"SoundDuration":210985,"Delta":89733327},{"NoteNumber":48,"Velocity":38,"Duration":228675,"SoundDuration":228675,"Delta":89944312},{"NoteNumber":36,"Velocity":48,"Duration":300466,"SoundDuration":300466,"Delta":90172988}],"license":{"name":"Creative Commons Attribution-ShareAlike 3.0 Germany","url":"http://creativecommons.org/licenses/by-sa/3.0/de/deed.en","text":"The MIDI, audio (MP3, OGG) and video files of Bernd Krueger are licensed under the cc-by-sa Germany License. This means that you can use and adapt the files, as long as you attribute the copyright holder.\n\nName: Bernd Krueger\nSource: http://www.piano-midi.de\n\nThe distribution or public playback of the files is only allowed under identical license conditions.\n\nThe scores are open source.","attribution":"MIDI files by Bernd Krueger (piano-midi.de)","attributionUrl":"http://www.piano-midi.de"}}