{"title":"Clementi: Sonatine Opus 36 Nr. 2, 3. Satz","artist":"Clementi","durationMs":93283,"midiSha256":"d7347700fa6df97ce4b0f0089f9635672f74160838f1f8ecd3b540532ce4220f","midiObject":[{"NoteNumber":67,"Velocity":50,"Duration":139418,"SoundDuration":139418,"Delta":0},{"NoteNumber":55,"Velocity":30,"Duration":278836,"SoundDuration":278836,"Delta":0},{"NoteNumber":67,"Velocity":43,"Duration":139418,"SoundDuration":139418,"Delta":278836},{"NoteNumber":59,"Velocity":29,"Duration":278836,"SoundDuration":278836,"Delta":278836},{"NoteNumber":67,"Velocity":43,"Duration":142099,"SoundDuration":142099,"Delta":557673},{"NoteNumber":62,"Velocity":29,"Duration":284198,"SoundDuration":284198,"Delta":557673},{"NoteNumber":69,"Velocity":46,"Duration":268937,"SoundDuration":268937,"Delta":841871},{"NoteNumber":54,"Velocity":30,"Duration":268937,"SoundDuration":268937,"Delta":841871},{"NoteNumber":74,"Velocity":50,"Duration":268937,"SoundDuration":268937,"Delta":1110809},{"NoteNumber":57,"Velocity":26,"Duration":268937,"SoundDuration":268937,"Delta":1110809},{"NoteNumber":72,"Velocity":47,"Duration":268937,"SoundDuration":268937,"Delta":1379746},{"NoteNumber":62,"Velocity":26,"Duration":268937,"SoundDuration":268937,"Delta":1379746},{"NoteNumber":71,"Velocity":50,"Duration":139056,"SoundDuration":139056,"Delta":1648683},{"NoteNumber":55,"Velocity":30,"Duration":278112,"SoundDuration":278112,"Delta":1648683},{"NoteNumber":67,"Velocity":43,"Duration":133916,"SoundDuration":133916,"Delta":1926796},{"NoteNumber":59,"Velocity":25,"Duration":267833,"SoundDuration":267833,"Delta":1926796},{"NoteNumber":69,"Velocity":40,"Duration":133916,"SoundDuration":133916,"Delta":2060712},{"NoteNumber":71,"Velocity":43,"Duration":131210,"SoundDuration":131210,"Delta":2194629},{"NoteNumber":62,"Velocity":24,"Duration":262421,"SoundDuration":262421,"Delta":2194629},{"NoteNumber":67,"Velocity":42,"Duration":131210,"SoundDuration":131210,"Delta":2325840},{"NoteNumber":69,"Velocity":46,"Duration":137501,"SoundDuration":137501,"Delta":2457051},{"NoteNumber":54,"Velocity":30,"Duration":275002,"SoundDuration":275002,"Delta":2457051},{"NoteNumber":57,"Velocity":25,"Duration":272504,"SoundDuration":272504,"Delta":2732053},{"NoteNumber":62,"Velocity":21,"Duration":279303,"SoundDuration":279303,"Delta":3004558},{"NoteNumber":79,"Velocity":50,"Duration":133916,"SoundDuration":133916,"Delta":3283861},{"NoteNumber":55,"Velocity":30,"Duration":267833,"SoundDuration":267833,"Delta":3283861},{"NoteNumber":79,"Velocity":50,"Duration":133916,"SoundDuration":133916,"Delta":3551694},{"NoteNumber":59,"Velocity":29,"Duration":267833,"SoundDuration":267833,"Delta":3551694},{"NoteNumber":79,"Velocity":50,"Duration":137880,"SoundDuration":137880,"Delta":3819527},{"NoteNumber":62,"Velocity":31,"Duration":274534,"SoundDuration":274534,"Delta":3819527},{"NoteNumber":81,"Velocity":56,"Duration":131966,"SoundDuration":131966,"Delta":4094062},{"NoteNumber":54,"Velocity":36,"Duration":264576,"SoundDuration":264576,"Delta":4094062},{"NoteNumber":79,"Velocity":50,"Duration":132610,"SoundDuration":132610,"Delta":4226028},{"NoteNumber":78,"Velocity":49,"Duration":133260,"SoundDuration":133260,"Delta":4358638},{"NoteNumber":57,"Velocity":30,"Duration":267287,"SoundDuration":267287,"Delta":4358638},{"NoteNumber":76,"Velocity":48,"Duration":134026,"SoundDuration":134026,"Delta":4491898},{"NoteNumber":74,"Velocity":47,"Duration":134691,"SoundDuration":134691,"Delta":4625925},{"NoteNumber":62,"Velocity":30,"Duration":270054,"SoundDuration":270054,"Delta":4625925},{"NoteNumber":72,"Velocity":46,"Duration":135362,"SoundDuration":135362,"Delta":4760617},{"NoteNumber":71,"Velocity":50,"Duration":139651,"SoundDuration":139651,"Delta":4895979},{"NoteNumber":55,"Velocity":30,"Duration":279303,"SoundDuration":279303,"Delta":4895979},{"NoteNumber":67,"Velocity":43,"Duration":135025,"SoundDuration":135025,"Delta":5175283},{"NoteNumber":59,"Velocity":25,"Duration":270051,"SoundDuration":270051,"Delta":5175283},{"NoteNumber":69,"Velocity":40,"Duration":135025,"SoundDuration":135025,"Delta":5310309},{"NoteNumber":71,"Velocity":43,"Duration":135025,"SoundDuration":135025,"Delta":5445334},{"NoteNumber":62,"Velocity":24,"Duration":270051,"SoundDuration":270051,"Delta":5445334},{"NoteNumber":67,"Velocity":42,"Duration":135025,"SoundDuration":135025,"Delta":5580360},{"NoteNumber":69,"Velocity":46,"Duration":142058,"SoundDuration":142058,"Delta":5715386},{"NoteNumber":54,"Velocity":30,"Duration":284118,"SoundDuration":284118,"Delta":5715386},{"NoteNumber":57,"Velocity":25,"Duration":272504,"SoundDuration":272504,"Delta":5999504},{"NoteNumber":62,"Velocity":23,"Duration":272504,"SoundDuration":272504,"Delta":6272008},{"NoteNumber":60,"Velocity":30,"Duration":814189,"SoundDuration":814189,"Delta":6544513},{"NoteNumber":64,"Velocity":40,"Duration":137089,"SoundDuration":137089,"Delta":6679539},{"NoteNumber":66,"Velocity":44,"Duration":137416,"SoundDuration":137416,"Delta":6816628},{"NoteNumber":68,"Velocity":47,"Duration":136154,"SoundDuration":136154,"Delta":6954045},{"NoteNumber":69,"Velocity":49,"Duration":134915,"SoundDuration":134915,"Delta":7090199},{"NoteNumber":71,"Velocity":50,"Duration":133588,"SoundDuration":133588,"Delta":7225115},{"NoteNumber":72,"Velocity":56,"Duration":134468,"SoundDuration":134468,"Delta":7358703},{"NoteNumber":74,"Velocity":58,"Duration":147899,"SoundDuration":147899,"Delta":7493171},{"NoteNumber":76,"Velocity":64,"Duration":142721,"SoundDuration":142721,"Delta":7641071},{"NoteNumber":60,"Velocity":30,"Duration":142721,"SoundDuration":142721,"Delta":7641071},{"NoteNumber":76,"Velocity":60,"Duration":142721,"SoundDuration":142721,"Delta":7926514},{"NoteNumber":60,"Velocity":28,"Duration":142721,"SoundDuration":142721,"Delta":7926514},{"NoteNumber":59,"Velocity":30,"Duration":816214,"SoundDuration":816214,"Delta":8211956},{"NoteNumber":62,"Velocity":40,"Duration":137549,"SoundDuration":137549,"Delta":8346425},{"NoteNumber":64,"Velocity":44,"Duration":137531,"SoundDuration":137531,"Delta":8483974},{"NoteNumber":66,"Velocity":47,"Duration":136495,"SoundDuration":136495,"Delta":8621506},{"NoteNumber":67,"Velocity":49,"Duration":135588,"SoundDuration":135588,"Delta":8758002},{"NoteNumber":69,"Velocity":50,"Duration":134581,"SoundDuration":134581,"Delta":8893590},{"NoteNumber":71,"Velocity":54,"Duration":133916,"SoundDuration":133916,"Delta":9028171},{"NoteNumber":72,"Velocity":57,"Duration":147232,"SoundDuration":147232,"Delta":9162087},{"NoteNumber":74,"Velocity":62,"Duration":141482,"SoundDuration":141482,"Delta":9309319},{"NoteNumber":59,"Velocity":30,"Duration":141482,"SoundDuration":141482,"Delta":9309319},{"NoteNumber":74,"Velocity":53,"Duration":141482,"SoundDuration":141482,"Delta":9592285},{"NoteNumber":59,"Velocity":28,"Duration":141482,"SoundDuration":141482,"Delta":9592285},{"NoteNumber":72,"Velocity":65,"Duration":133588,"SoundDuration":133588,"Delta":9880338},{"NoteNumber":57,"Velocity":47,"Duration":267615,"SoundDuration":267615,"Delta":9880338},{"NoteNumber":62,"Velocity":51,"Duration":134026,"SoundDuration":134026,"Delta":10013927},{"NoteNumber":71,"Velocity":58,"Duration":134802,"SoundDuration":134802,"Delta":10147954},{"NoteNumber":55,"Velocity":30,"Duration":270277,"SoundDuration":270277,"Delta":10147954},{"NoteNumber":62,"Velocity":49,"Duration":135474,"SoundDuration":135474,"Delta":10282757},{"NoteNumber":69,"Velocity":59,"Duration":136381,"SoundDuration":136381,"Delta":10418231},{"NoteNumber":54,"Velocity":30,"Duration":278480,"SoundDuration":278480,"Delta":10418231},{"NoteNumber":62,"Velocity":48,"Duration":142099,"SoundDuration":142099,"Delta":10554613},{"NoteNumber":71,"Velocity":62,"Duration":132718,"SoundDuration":132718,"Delta":10696712},{"NoteNumber":55,"Velocity":46,"Duration":266746,"SoundDuration":266746,"Delta":10696712},{"NoteNumber":62,"Velocity":47,"Duration":134027,"SoundDuration":134027,"Delta":10829431},{"NoteNumber":69,"Velocity":55,"Duration":135475,"SoundDuration":135475,"Delta":10963459},{"NoteNumber":54,"Velocity":30,"Duration":272315,"SoundDuration":272315,"Delta":10963459},{"NoteNumber":62,"Velocity":48,"Duration":136840,"SoundDuration":136840,"Delta":11098935},{"NoteNumber":67,"Velocity":55,"Duration":140871,"SoundDuration":140871,"Delta":11235775},{"NoteNumber":52,"Velocity":30,"Duration":281743,"SoundDuration":281743,"Delta":11235775},{"NoteNumber":62,"Velocity":49,"Duration":140871,"SoundDuration":140871,"Delta":11376646},{"NoteNumber":66,"Velocity":57,"Duration":134468,"SoundDuration":134468,"Delta":11517518},{"NoteNumber":50,"Velocity":34,"Duration":807940,"SoundDuration":807940,"Delta":11517518},{"NoteNumber":64,"Velocity":47,"Duration":134468,"SoundDuration":134468,"Delta":11651987},{"NoteNumber":62,"Velocity":47,"Duration":134468,"SoundDuration":134468,"Delta":11786455},{"NoteNumber":64,"Velocity":47,"Duration":134468,"SoundDuration":134468,"Delta":11920924},{"NoteNumber":66,"Velocity":43,"Duration":134468,"SoundDuration":134468,"Delta":12055393},{"NoteNumber":67,"Velocity":44,"Duration":135596,"SoundDuration":135596,"Delta":12189862},{"NoteNumber":69,"Velocity":52,"Duration":141933,"SoundDuration":141933,"Delta":12325458},{"NoteNumber":71,"Velocity":46,"Duration":137645,"SoundDuration":137645,"Delta":12467392},{"NoteNumber":74,"Velocity":47,"Duration":137897,"SoundDuration":137897,"Delta":12605037},{"NoteNumber":72,"Velocity":45,"Duration":143576,"SoundDuration":143576,"Delta":12742935},{"NoteNumber":71,"Velocity":41,"Duration":149587,"SoundDuration":149587,"Delta":12886511},{"NoteNumber":69,"Velocity":40,"Duration":156294,"SoundDuration":156294,"Delta":13036099},{"NoteNumber":67,"Velocity":50,"Duration":142058,"SoundDuration":142058,"Delta":13192393},{"NoteNumber":55,"Velocity":30,"Duration":284117,"SoundDuration":284117,"Delta":13192393},{"NoteNumber":67,"Velocity":43,"Duration":136873,"SoundDuration":136873,"Delta":13476511},{"NoteNumber":59,"Velocity":29,"Duration":273747,"SoundDuration":273747,"Delta":13476511},{"NoteNumber":67,"Velocity":43,"Duration":142099,"SoundDuration":142099,"Delta":13750258},{"NoteNumber":62,"Velocity":29,"Duration":284198,"SoundDuration":284198,"Delta":13750258},{"NoteNumber":69,"Velocity":46,"Duration":268937,"SoundDuration":268937,"Delta":14034457},{"NoteNumber":54,"Velocity":30,"Duration":268937,"SoundDuration":268937,"Delta":14034457},{"NoteNumber":74,"Velocity":50,"Duration":268937,"SoundDuration":268937,"Delta":14303394},{"NoteNumber":57,"Velocity":26,"Duration":268937,"SoundDuration":268937,"Delta":14303394},{"NoteNumber":72,"Velocity":47,"Duration":268937,"SoundDuration":268937,"Delta":14572332},{"NoteNumber":62,"Velocity":26,"Duration":268937,"SoundDuration":268937,"Delta":14572332},{"NoteNumber":71,"Velocity":50,"Duration":139056,"SoundDuration":139056,"Delta":14841269},{"NoteNumber":55,"Velocity":30,"Duration":278112,"SoundDuration":278112,"Delta":14841269},{"NoteNumber":67,"Velocity":43,"Duration":133916,"SoundDuration":133916,"Delta":15119382},{"NoteNumber":59,"Velocity":25,"Duration":267832,"SoundDuration":267832,"Delta":15119382},{"NoteNumber":69,"Velocity":40,"Duration":133916,"SoundDuration":133916,"Delta":15253298},{"NoteNumber":71,"Velocity":43,"Duration":131210,"SoundDuration":131210,"Delta":15387215},{"NoteNumber":62,"Velocity":24,"Duration":262421,"SoundDuration":262421,"Delta":15387215},{"NoteNumber":67,"Velocity":42,"Duration":131210,"SoundDuration":131210,"Delta":15518425},{"NoteNumber":69,"Velocity":46,"Duration":143417,"SoundDuration":143417,"Delta":15649636},{"NoteNumber":54,"Velocity":30,"Duration":286834,"SoundDuration":286834,"Delta":15649636},{"NoteNumber":57,"Velocity":25,"Duration":280138,"SoundDuration":280138,"Delta":15936471},{"NoteNumber":62,"Velocity":21,"Duration":279303,"SoundDuration":279303,"Delta":16216609},{"NoteNumber":79,"Velocity":50,"Duration":133916,"SoundDuration":133916,"Delta":16495912},{"NoteNumber":55,"Velocity":30,"Duration":267832,"SoundDuration":267832,"Delta":16495912},{"NoteNumber":79,"Velocity":50,"Duration":133916,"SoundDuration":133916,"Delta":16763745},{"NoteNumber":59,"Velocity":29,"Duration":267832,"SoundDuration":267832,"Delta":16763745},{"NoteNumber":79,"Velocity":50,"Duration":137880,"SoundDuration":137880,"Delta":17031578},{"NoteNumber":62,"Velocity":31,"Duration":274534,"SoundDuration":274534,"Delta":17031578},{"NoteNumber":81,"Velocity":56,"Duration":131966,"SoundDuration":131966,"Delta":17306113},{"NoteNumber":54,"Velocity":36,"Duration":264576,"SoundDuration":264576,"Delta":17306113},{"NoteNumber":79,"Velocity":50,"Duration":132610,"SoundDuration":132610,"Delta":17438079},{"NoteNumber":78,"Velocity":49,"Duration":133260,"SoundDuration":133260,"Delta":17570689},{"NoteNumber":57,"Velocity":30,"Duration":267287,"SoundDuration":267287,"Delta":17570689},{"NoteNumber":76,"Velocity":48,"Duration":134026,"SoundDuration":134026,"Delta":17703950},{"NoteNumber":74,"Velocity":47,"Duration":134691,"SoundDuration":134691,"Delta":17837977},{"NoteNumber":62,"Velocity":30,"Duration":270054,"SoundDuration":270054,"Delta":17837977},{"NoteNumber":72,"Velocity":46,"Duration":135362,"SoundDuration":135362,"Delta":17972668},{"NoteNumber":71,"Velocity":50,"Duration":139651,"SoundDuration":139651,"Delta":18108031},{"NoteNumber":55,"Velocity":30,"Duration":279303,"SoundDuration":279303,"Delta":18108031},{"NoteNumber":67,"Velocity":43,"Duration":135025,"SoundDuration":135025,"Delta":18387334},{"NoteNumber":59,"Velocity":25,"Duration":270051,"SoundDuration":270051,"Delta":18387334},{"NoteNumber":69,"Velocity":40,"Duration":135025,"SoundDuration":135025,"Delta":18522360},{"NoteNumber":71,"Velocity":43,"Duration":135025,"SoundDuration":135025,"Delta":18657386},{"NoteNumber":62,"Velocity":24,"Duration":270051,"SoundDuration":270051,"Delta":18657386},{"NoteNumber":67,"Velocity":42,"Duration":135025,"SoundDuration":135025,"Delta":18792411},{"NoteNumber":69,"Velocity":46,"Duration":140069,"SoundDuration":140069,"Delta":18927437},{"NoteNumber":54,"Velocity":30,"Duration":280138,"SoundDuration":280138,"Delta":18927437},{"NoteNumber":57,"Velocity":25,"Duration":280137,"SoundDuration":280137,"Delta":19207575},{"NoteNumber":62,"Velocity":23,"Duration":280138,"SoundDuration":280138,"Delta":19487713},{"NoteNumber":60,"Velocity":30,"Duration":814189,"SoundDuration":814189,"Delta":19767851},{"NoteNumber":64,"Velocity":40,"Duration":137089,"SoundDuration":137089,"Delta":19902877},{"NoteNumber":66,"Velocity":44,"Duration":137416,"SoundDuration":137416,"Delta":20039967},{"NoteNumber":68,"Velocity":47,"Duration":136154,"SoundDuration":136154,"Delta":20177383},{"NoteNumber":69,"Velocity":49,"Duration":134915,"SoundDuration":134915,"Delta":20313538},{"NoteNumber":71,"Velocity":53,"Duration":133587,"SoundDuration":133587,"Delta":20448453},{"NoteNumber":72,"Velocity":55,"Duration":134468,"SoundDuration":134468,"Delta":20582041},{"NoteNumber":74,"Velocity":58,"Duration":147899,"SoundDuration":147899,"Delta":20716510},{"NoteNumber":76,"Velocity":66,"Duration":142721,"SoundDuration":142721,"Delta":20864409},{"NoteNumber":60,"Velocity":30,"Duration":142721,"SoundDuration":142721,"Delta":20864409},{"NoteNumber":76,"Velocity":53,"Duration":142721,"SoundDuration":142721,"Delta":21149852},{"NoteNumber":60,"Velocity":28,"Duration":142721,"SoundDuration":142721,"Delta":21149852},{"NoteNumber":59,"Velocity":30,"Duration":816214,"SoundDuration":816214,"Delta":21435294},{"NoteNumber":62,"Velocity":40,"Duration":137549,"SoundDuration":137549,"Delta":21569763},{"NoteNumber":64,"Velocity":44,"Duration":137531,"SoundDuration":137531,"Delta":21707312},{"NoteNumber":66,"Velocity":47,"Duration":136495,"SoundDuration":136495,"Delta":21844844},{"NoteNumber":67,"Velocity":49,"Duration":135588,"SoundDuration":135588,"Delta":21981340},{"NoteNumber":69,"Velocity":50,"Duration":134581,"SoundDuration":134581,"Delta":22116928},{"NoteNumber":71,"Velocity":52,"Duration":135587,"SoundDuration":135587,"Delta":22251509},{"NoteNumber":72,"Velocity":53,"Duration":135586,"SoundDuration":135586,"Delta":22387096},{"NoteNumber":74,"Velocity":58,"Duration":138465,"SoundDuration":138465,"Delta":22522683},{"NoteNumber":59,"Velocity":35,"Duration":138465,"SoundDuration":138465,"Delta":22522683},{"NoteNumber":76,"Velocity":58,"Duration":138465,"SoundDuration":138465,"Delta":22661149},{"NoteNumber":78,"Velocity":53,"Duration":143348,"SoundDuration":143348,"Delta":22799615},{"NoteNumber":59,"Velocity":37,"Duration":143348,"SoundDuration":143348,"Delta":22799615},{"NoteNumber":79,"Velocity":53,"Duration":154942,"SoundDuration":154942,"Delta":22942963},{"NoteNumber":78,"Velocity":62,"Duration":139651,"SoundDuration":139651,"Delta":23097906},{"NoteNumber":48,"Velocity":46,"Duration":279303,"SoundDuration":279303,"Delta":23097906},{"NoteNumber":76,"Velocity":57,"Duration":139651,"SoundDuration":139651,"Delta":23237558},{"NoteNumber":74,"Velocity":54,"Duration":139651,"SoundDuration":139651,"Delta":23377209},{"NoteNumber":60,"Velocity":30,"Duration":139651,"SoundDuration":139651,"Delta":23377209},{"NoteNumber":72,"Velocity":51,"Duration":139651,"SoundDuration":139651,"Delta":23516861},{"NoteNumber":71,"Velocity":50,"Duration":139651,"SoundDuration":139651,"Delta":23656513},{"NoteNumber":60,"Velocity":30,"Duration":139651,"SoundDuration":139651,"Delta":23656513},{"NoteNumber":69,"Velocity":48,"Duration":148573,"SoundDuration":148573,"Delta":23796165},{"NoteNumber":67,"Velocity":54,"Duration":551521,"SoundDuration":551521,"Delta":23944738},{"NoteNumber":50,"Velocity":45,"Duration":275760,"SoundDuration":275760,"Delta":23944738},{"NoteNumber":62,"Velocity":30,"Duration":137880,"SoundDuration":137880,"Delta":24220499},{"NoteNumber":71,"Velocity":51,"Duration":143981,"SoundDuration":143981,"Delta":24496259},{"NoteNumber":62,"Velocity":30,"Duration":143981,"SoundDuration":143981,"Delta":24496259},{"NoteNumber":69,"Velocity":45,"Duration":143981,"SoundDuration":143981,"Delta":24640241},{"NoteNumber":67,"Velocity":50,"Duration":551521,"SoundDuration":551521,"Delta":24784222},{"NoteNumber":55,"Velocity":41,"Duration":275760,"SoundDuration":275760,"Delta":24784222},{"NoteNumber":59,"Velocity":32,"Duration":275760,"SoundDuration":275760,"Delta":25059983},{"NoteNumber":62,"Velocity":32,"Duration":288212,"SoundDuration":288212,"Delta":25335743},{"NoteNumber":86,"Velocity":73,"Duration":418326,"SoundDuration":418326,"Delta":25623955},{"NoteNumber":55,"Velocity":48,"Duration":281452,"SoundDuration":281452,"Delta":25623955},{"NoteNumber":59,"Velocity":38,"Duration":273747,"SoundDuration":273747,"Delta":25905408},{"NoteNumber":83,"Velocity":43,"Duration":136873,"SoundDuration":136873,"Delta":26042282},{"NoteNumber":86,"Velocity":50,"Duration":133226,"SoundDuration":133226,"Delta":26179155},{"NoteNumber":62,"Velocity":38,"Duration":266453,"SoundDuration":266453,"Delta":26179155},{"NoteNumber":83,"Velocity":43,"Duration":133226,"SoundDuration":133226,"Delta":26312382},{"NoteNumber":79,"Velocity":58,"Duration":141389,"SoundDuration":141389,"Delta":26445609},{"NoteNumber":55,"Velocity":45,"Duration":282779,"SoundDuration":282779,"Delta":26445609},{"NoteNumber":79,"Velocity":50,"Duration":141389,"SoundDuration":141389,"Delta":26728388},{"NoteNumber":59,"Velocity":40,"Duration":282778,"SoundDuration":282778,"Delta":26728388},{"NoteNumber":79,"Velocity":50,"Duration":141389,"SoundDuration":141389,"Delta":27011167},{"NoteNumber":62,"Velocity":41,"Duration":282779,"SoundDuration":282779,"Delta":27011167},{"NoteNumber":83,"Velocity":66,"Duration":414473,"SoundDuration":414473,"Delta":27293946},{"NoteNumber":55,"Velocity":48,"Duration":277599,"SoundDuration":277599,"Delta":27293946},{"NoteNumber":59,"Velocity":38,"Duration":273747,"SoundDuration":273747,"Delta":27571546},{"NoteNumber":79,"Velocity":43,"Duration":136873,"SoundDuration":136873,"Delta":27708420},{"NoteNumber":83,"Velocity":50,"Duration":133226,"SoundDuration":133226,"Delta":27845293},{"NoteNumber":62,"Velocity":38,"Duration":266453,"SoundDuration":266453,"Delta":27845293},{"NoteNumber":79,"Velocity":43,"Duration":133226,"SoundDuration":133226,"Delta":27978520},{"NoteNumber":76,"Velocity":58,"Duration":140726,"SoundDuration":140726,"Delta":28111747},{"NoteNumber":55,"Velocity":45,"Duration":281452,"SoundDuration":281452,"Delta":28111747},{"NoteNumber":76,"Velocity":50,"Duration":140726,"SoundDuration":140726,"Delta":28393199},{"NoteNumber":61,"Velocity":40,"Duration":281452,"SoundDuration":281452,"Delta":28393199},{"NoteNumber":76,"Velocity":50,"Duration":140726,"SoundDuration":140726,"Delta":28674652},{"NoteNumber":64,"Velocity":41,"Duration":281452,"SoundDuration":281452,"Delta":28674652},{"NoteNumber":78,"Velocity":58,"Duration":137501,"SoundDuration":137501,"Delta":28956104},{"NoteNumber":55,"Velocity":45,"Duration":275002,"SoundDuration":275002,"Delta":28956104},{"NoteNumber":76,"Velocity":49,"Duration":137501,"SoundDuration":137501,"Delta":29093606},{"NoteNumber":75,"Velocity":53,"Duration":137501,"SoundDuration":137501,"Delta":29231107},{"NoteNumber":61,"Velocity":40,"Duration":275002,"SoundDuration":275002,"Delta":29231107},{"NoteNumber":76,"Velocity":48,"Duration":137501,"SoundDuration":137501,"Delta":29368608},{"NoteNumber":78,"Velocity":53,"Duration":138773,"SoundDuration":138773,"Delta":29506109},{"NoteNumber":64,"Velocity":41,"Duration":290150,"SoundDuration":290150,"Delta":29506109},{"NoteNumber":79,"Velocity":49,"Duration":151377,"SoundDuration":151377,"Delta":29644883},{"NoteNumber":83,"Velocity":63,"Duration":137501,"SoundDuration":137501,"Delta":29796260},{"NoteNumber":54,"Velocity":45,"Duration":275002,"SoundDuration":275002,"Delta":29796260},{"NoteNumber":81,"Velocity":61,"Duration":137501,"SoundDuration":137501,"Delta":29933761},{"NoteNumber":79,"Velocity":61,"Duration":137501,"SoundDuration":137501,"Delta":30071263},{"NoteNumber":57,"Velocity":40,"Duration":275002,"SoundDuration":275002,"Delta":30071263},{"NoteNumber":78,"Velocity":58,"Duration":137501,"SoundDuration":137501,"Delta":30208764},{"NoteNumber":76,"Velocity":56,"Duration":137501,"SoundDuration":137501,"Delta":30346265},{"NoteNumber":62,"Velocity":41,"Duration":275002,"SoundDuration":275002,"Delta":30346265},{"NoteNumber":74,"Velocity":56,"Duration":137501,"SoundDuration":137501,"Delta":30483766},{"NoteNumber":73,"Velocity":54,"Duration":137501,"SoundDuration":137501,"Delta":30621268},{"NoteNumber":54,"Velocity":41,"Duration":556575,"SoundDuration":556575,"Delta":30621268},{"NoteNumber":71,"Velocity":50,"Duration":138358,"SoundDuration":138358,"Delta":30758769},{"NoteNumber":69,"Velocity":49,"Duration":139387,"SoundDuration":139387,"Delta":30897127},{"NoteNumber":67,"Velocity":48,"Duration":141329,"SoundDuration":141329,"Delta":31036514},{"NoteNumber":66,"Velocity":46,"Duration":144721,"SoundDuration":144721,"Delta":31177843},{"NoteNumber":56,"Velocity":32,"Duration":293151,"SoundDuration":293151,"Delta":31177843},{"NoteNumber":64,"Velocity":43,"Duration":148430,"SoundDuration":148430,"Delta":31322564},{"NoteNumber":62,"Velocity":51,"Duration":576424,"SoundDuration":576424,"Delta":31470995},{"NoteNumber":45,"Velocity":39,"Duration":288212,"SoundDuration":288212,"Delta":31470995},{"NoteNumber":57,"Velocity":33,"Duration":144105,"SoundDuration":144105,"Delta":31759207},{"NoteNumber":61,"Velocity":41,"Duration":288211,"SoundDuration":288211,"Delta":32047419},{"NoteNumber":57,"Velocity":29,"Duration":144106,"SoundDuration":144106,"Delta":32047419},{"NoteNumber":57,"Velocity":31,"Duration":142059,"SoundDuration":142059,"Delta":32335631},{"NoteNumber":57,"Velocity":25,"Duration":142059,"SoundDuration":142059,"Delta":32619749},{"NoteNumber":57,"Velocity":25,"Duration":142059,"SoundDuration":142059,"Delta":32903867},{"NoteNumber":66,"Velocity":48,"Duration":573878,"SoundDuration":573878,"Delta":33187985},{"NoteNumber":62,"Velocity":31,"Duration":292425,"SoundDuration":292425,"Delta":33187985},{"NoteNumber":57,"Velocity":23,"Duration":140726,"SoundDuration":140726,"Delta":33480411},{"NoteNumber":69,"Velocity":43,"Duration":281452,"SoundDuration":281452,"Delta":33761863},{"NoteNumber":57,"Velocity":23,"Duration":140726,"SoundDuration":140726,"Delta":33761863},{"NoteNumber":64,"Velocity":48,"Duration":567048,"SoundDuration":567048,"Delta":34043316},{"NoteNumber":61,"Velocity":31,"Duration":288212,"SoundDuration":288212,"Delta":34043316},{"NoteNumber":57,"Velocity":23,"Duration":139418,"SoundDuration":139418,"Delta":34331528},{"NoteNumber":69,"Velocity":45,"Duration":278836,"SoundDuration":278836,"Delta":34610364},{"NoteNumber":57,"Velocity":23,"Duration":139418,"SoundDuration":139418,"Delta":34610364},{"NoteNumber":67,"Velocity":48,"Duration":564305,"SoundDuration":564305,"Delta":34889201},{"NoteNumber":62,"Velocity":31,"Duration":285469,"SoundDuration":285469,"Delta":34889201},{"NoteNumber":57,"Velocity":26,"Duration":139418,"SoundDuration":139418,"Delta":35174670},{"NoteNumber":66,"Velocity":42,"Duration":278836,"SoundDuration":278836,"Delta":35453507},{"NoteNumber":57,"Velocity":26,"Duration":139418,"SoundDuration":139418,"Delta":35453507},{"NoteNumber":64,"Velocity":49,"Duration":286834,"SoundDuration":286834,"Delta":35732343},{"NoteNumber":61,"Velocity":31,"Duration":286834,"SoundDuration":286834,"Delta":35732343},{"NoteNumber":57,"Velocity":24,"Duration":139418,"SoundDuration":139418,"Delta":36019178},{"NoteNumber":57,"Velocity":24,"Duration":139418,"SoundDuration":139418,"Delta":36298014},{"NoteNumber":66,"Velocity":48,"Duration":573878,"SoundDuration":573878,"Delta":36576851},{"NoteNumber":62,"Velocity":31,"Duration":292425,"SoundDuration":292425,"Delta":36576851},{"NoteNumber":57,"Velocity":23,"Duration":140726,"SoundDuration":140726,"Delta":36869277},{"NoteNumber":71,"Velocity":43,"Duration":136252,"SoundDuration":136252,"Delta":37150729},{"NoteNumber":57,"Velocity":23,"Duration":136252,"SoundDuration":136252,"Delta":37150729},{"NoteNumber":69,"Velocity":40,"Duration":149120,"SoundDuration":149120,"Delta":37286981},{"NoteNumber":64,"Velocity":48,"Duration":567048,"SoundDuration":567048,"Delta":37436102},{"NoteNumber":61,"Velocity":31,"Duration":288212,"SoundDuration":288212,"Delta":37436102},{"NoteNumber":57,"Velocity":23,"Duration":139418,"SoundDuration":139418,"Delta":37724314},{"NoteNumber":71,"Velocity":45,"Duration":134420,"SoundDuration":134420,"Delta":38003150},{"NoteNumber":57,"Velocity":23,"Duration":134420,"SoundDuration":134420,"Delta":38003150},{"NoteNumber":69,"Velocity":41,"Duration":149120,"SoundDuration":149120,"Delta":38137571},{"NoteNumber":67,"Velocity":48,"Duration":564305,"SoundDuration":564305,"Delta":38286691},{"NoteNumber":62,"Velocity":31,"Duration":285469,"SoundDuration":285469,"Delta":38286691},{"NoteNumber":57,"Velocity":26,"Duration":139418,"SoundDuration":139418,"Delta":38572161},{"NoteNumber":66,"Velocity":42,"Duration":278836,"SoundDuration":278836,"Delta":38850997},{"NoteNumber":57,"Velocity":26,"Duration":139418,"SoundDuration":139418,"Delta":38850997},{"NoteNumber":64,"Velocity":49,"Duration":286834,"SoundDuration":286834,"Delta":39129834},{"NoteNumber":61,"Velocity":31,"Duration":286834,"SoundDuration":286834,"Delta":39129834},{"NoteNumber":57,"Velocity":24,"Duration":139418,"SoundDuration":139418,"Delta":39416668},{"NoteNumber":57,"Velocity":24,"Duration":139418,"SoundDuration":139418,"Delta":39695505},{"NoteNumber":50,"Velocity":58,"Duration":831083,"SoundDuration":831083,"Delta":39974341},{"NoteNumber":54,"Velocity":58,"Duration":831083,"SoundDuration":831083,"Delta":39974341},{"NoteNumber":57,"Velocity":69,"Duration":831083,"SoundDuration":831083,"Delta":39974341},{"NoteNumber":74,"Velocity":63,"Duration":135636,"SoundDuration":135636,"Delta":40113759},{"NoteNumber":73,"Velocity":68,"Duration":135636,"SoundDuration":135636,"Delta":40249396},{"NoteNumber":74,"Velocity":64,"Duration":135636,"SoundDuration":135636,"Delta":40385032},{"NoteNumber":76,"Velocity":68,"Duration":135636,"SoundDuration":135636,"Delta":40520668},{"NoteNumber":74,"Velocity":62,"Duration":149120,"SoundDuration":149120,"Delta":40656304},{"NoteNumber":71,"Velocity":68,"Duration":136252,"SoundDuration":136252,"Delta":40805425},{"NoteNumber":55,"Velocity":56,"Duration":136252,"SoundDuration":136252,"Delta":40805425},{"NoteNumber":74,"Velocity":62,"Duration":136252,"SoundDuration":136252,"Delta":40941677},{"NoteNumber":69,"Velocity":68,"Duration":136252,"SoundDuration":136252,"Delta":41077929},{"NoteNumber":57,"Velocity":52,"Duration":136252,"SoundDuration":136252,"Delta":41077929},{"NoteNumber":74,"Velocity":63,"Duration":136252,"SoundDuration":136252,"Delta":41214181},{"NoteNumber":67,"Velocity":68,"Duration":136252,"SoundDuration":136252,"Delta":41350434},{"NoteNumber":59,"Velocity":52,"Duration":136252,"SoundDuration":136252,"Delta":41350434},{"NoteNumber":74,"Velocity":62,"Duration":152920,"SoundDuration":152920,"Delta":41486686},{"NoteNumber":50,"Velocity":58,"Duration":831083,"SoundDuration":831083,"Delta":41639607},{"NoteNumber":54,"Velocity":58,"Duration":831083,"SoundDuration":831083,"Delta":41639607},{"NoteNumber":57,"Velocity":69,"Duration":831083,"SoundDuration":831083,"Delta":41639607},{"NoteNumber":74,"Velocity":63,"Duration":135636,"SoundDuration":135636,"Delta":41779025},{"NoteNumber":73,"Velocity":68,"Duration":135636,"SoundDuration":135636,"Delta":41914661},{"NoteNumber":74,"Velocity":64,"Duration":135636,"SoundDuration":135636,"Delta":42050297},{"NoteNumber":76,"Velocity":68,"Duration":135636,"SoundDuration":135636,"Delta":42185934},{"NoteNumber":74,"Velocity":62,"Duration":149120,"SoundDuration":149120,"Delta":42321570},{"NoteNumber":71,"Velocity":68,"Duration":136252,"SoundDuration":136252,"Delta":42470690},{"NoteNumber":56,"Velocity":56,"Duration":136252,"SoundDuration":136252,"Delta":42470690},{"NoteNumber":74,"Velocity":62,"Duration":136252,"SoundDuration":136252,"Delta":42606942},{"NoteNumber":69,"Velocity":68,"Duration":136252,"SoundDuration":136252,"Delta":42743195},{"NoteNumber":57,"Velocity":52,"Duration":136252,"SoundDuration":136252,"Delta":42743195},{"NoteNumber":74,"Velocity":63,"Duration":136252,"SoundDuration":136252,"Delta":42879447},{"NoteNumber":68,"Velocity":68,"Duration":136252,"SoundDuration":136252,"Delta":43015699},{"NoteNumber":59,"Velocity":52,"Duration":136252,"SoundDuration":136252,"Delta":43015699},{"NoteNumber":74,"Velocity":62,"Duration":152920,"SoundDuration":152920,"Delta":43151951},{"NoteNumber":69,"Velocity":68,"Duration":286834,"SoundDuration":286834,"Delta":43304872},{"NoteNumber":45,"Velocity":56,"Duration":143417,"SoundDuration":143417,"Delta":43304872},{"NoteNumber":57,"Velocity":51,"Duration":143417,"SoundDuration":143417,"Delta":43448289},{"NoteNumber":74,"Velocity":73,"Duration":281452,"SoundDuration":281452,"Delta":43591707},{"NoteNumber":45,"Velocity":56,"Duration":140726,"SoundDuration":140726,"Delta":43591707},{"NoteNumber":57,"Velocity":51,"Duration":140726,"SoundDuration":140726,"Delta":43732433},{"NoteNumber":66,"Velocity":64,"Duration":293858,"SoundDuration":293858,"Delta":43873159},{"NoteNumber":45,"Velocity":56,"Duration":146929,"SoundDuration":146929,"Delta":43873159},{"NoteNumber":57,"Velocity":53,"Duration":146929,"SoundDuration":146929,"Delta":44020088},{"NoteNumber":64,"Velocity":51,"Duration":75041,"SoundDuration":75041,"Delta":44167018},{"NoteNumber":45,"Velocity":56,"Duration":149578,"SoundDuration":149578,"Delta":44167018},{"NoteNumber":66,"Velocity":49,"Duration":74536,"SoundDuration":74536,"Delta":44242059},{"NoteNumber":64,"Velocity":58,"Duration":73657,"SoundDuration":73657,"Delta":44316596},{"NoteNumber":57,"Velocity":50,"Duration":146741,"SoundDuration":146741,"Delta":44316596},{"NoteNumber":66,"Velocity":51,"Duration":73083,"SoundDuration":73083,"Delta":44390253},{"NoteNumber":64,"Velocity":62,"Duration":72192,"SoundDuration":72192,"Delta":44463337},{"NoteNumber":45,"Velocity":56,"Duration":143426,"SoundDuration":143426,"Delta":44463337},{"NoteNumber":66,"Velocity":55,"Duration":71234,"SoundDuration":71234,"Delta":44535530},{"NoteNumber":64,"Velocity":63,"Duration":69993,"SoundDuration":69993,"Delta":44606764},{"NoteNumber":57,"Velocity":50,"Duration":138705,"SoundDuration":138705,"Delta":44606764},{"NoteNumber":66,"Velocity":56,"Duration":68712,"SoundDuration":68712,"Delta":44676757},{"NoteNumber":64,"Velocity":65,"Duration":91669,"SoundDuration":91669,"Delta":44745470},{"NoteNumber":45,"Velocity":56,"Duration":138034,"SoundDuration":138034,"Delta":44745470},{"NoteNumber":62,"Velocity":58,"Duration":93098,"SoundDuration":93098,"Delta":44837139},{"NoteNumber":57,"Velocity":50,"Duration":141398,"SoundDuration":141398,"Delta":44883504},{"NoteNumber":64,"Velocity":60,"Duration":94665,"SoundDuration":94665,"Delta":44930238},{"NoteNumber":62,"Velocity":70,"Duration":289556,"SoundDuration":289556,"Delta":45024903},{"NoteNumber":50,"Velocity":50,"Duration":289556,"SoundDuration":289556,"Delta":45024903},{"NoteNumber":54,"Velocity":46,"Duration":289602,"SoundDuration":289602,"Delta":45314460},{"NoteNumber":57,"Velocity":46,"Duration":144801,"SoundDuration":144801,"Delta":45604063},{"NoteNumber":57,"Velocity":43,"Duration":147652,"SoundDuration":147652,"Delta":45893666},{"NoteNumber":57,"Velocity":39,"Duration":144106,"SoundDuration":144106,"Delta":46188970},{"NoteNumber":57,"Velocity":38,"Duration":144106,"SoundDuration":144106,"Delta":46477182},{"NoteNumber":66,"Velocity":48,"Duration":579260,"SoundDuration":579260,"Delta":46765394},{"NoteNumber":62,"Velocity":31,"Duration":292425,"SoundDuration":292425,"Delta":46765394},{"NoteNumber":57,"Velocity":23,"Duration":143417,"SoundDuration":143417,"Delta":47057820},{"NoteNumber":71,"Velocity":43,"Duration":136252,"SoundDuration":136252,"Delta":47344655},{"NoteNumber":57,"Velocity":23,"Duration":136252,"SoundDuration":136252,"Delta":47344655},{"NoteNumber":69,"Velocity":40,"Duration":149120,"SoundDuration":149120,"Delta":47480907},{"NoteNumber":64,"Velocity":48,"Duration":567048,"SoundDuration":567048,"Delta":47630027},{"NoteNumber":61,"Velocity":31,"Duration":288212,"SoundDuration":288212,"Delta":47630027},{"NoteNumber":57,"Velocity":23,"Duration":139418,"SoundDuration":139418,"Delta":47918239},{"NoteNumber":71,"Velocity":45,"Duration":134420,"SoundDuration":134420,"Delta":48197076},{"NoteNumber":57,"Velocity":23,"Duration":134420,"SoundDuration":134420,"Delta":48197076},{"NoteNumber":69,"Velocity":41,"Duration":149120,"SoundDuration":149120,"Delta":48331497},{"NoteNumber":67,"Velocity":48,"Duration":577076,"SoundDuration":577076,"Delta":48480617},{"NoteNumber":62,"Velocity":31,"Duration":298240,"SoundDuration":298240,"Delta":48480617},{"NoteNumber":57,"Velocity":26,"Duration":139418,"SoundDuration":139418,"Delta":48778857},{"NoteNumber":66,"Velocity":42,"Duration":278836,"SoundDuration":278836,"Delta":49057694},{"NoteNumber":57,"Velocity":26,"Duration":139418,"SoundDuration":139418,"Delta":49057694},{"NoteNumber":64,"Velocity":49,"Duration":286834,"SoundDuration":286834,"Delta":49336530},{"NoteNumber":61,"Velocity":31,"Duration":286834,"SoundDuration":286834,"Delta":49336530},{"NoteNumber":57,"Velocity":24,"Duration":139418,"SoundDuration":139418,"Delta":49623365},{"NoteNumber":57,"Velocity":24,"Duration":139418,"SoundDuration":139418,"Delta":49902201},{"NoteNumber":66,"Velocity":48,"Duration":145786,"SoundDuration":145786,"Delta":50181038},{"NoteNumber":62,"Velocity":31,"Duration":287845,"SoundDuration":287845,"Delta":50181038},{"NoteNumber":69,"Velocity":39,"Duration":142059,"SoundDuration":142059,"Delta":50326825},{"NoteNumber":68,"Velocity":42,"Duration":140726,"SoundDuration":140726,"Delta":50468884},{"NoteNumber":57,"Velocity":23,"Duration":140726,"SoundDuration":140726,"Delta":50468884},{"NoteNumber":69,"Velocity":38,"Duration":140726,"SoundDuration":140726,"Delta":50609610},{"NoteNumber":71,"Velocity":43,"Duration":135025,"SoundDuration":135025,"Delta":50750336},{"NoteNumber":57,"Velocity":23,"Duration":135025,"SoundDuration":135025,"Delta":50750336},{"NoteNumber":69,"Velocity":40,"Duration":146213,"SoundDuration":146213,"Delta":50885362},{"NoteNumber":64,"Velocity":48,"Duration":145081,"SoundDuration":145081,"Delta":51031575},{"NoteNumber":61,"Velocity":31,"Duration":285808,"SoundDuration":285808,"Delta":51031575},{"NoteNumber":69,"Velocity":39,"Duration":140726,"SoundDuration":140726,"Delta":51176657},{"NoteNumber":68,"Velocity":42,"Duration":139418,"SoundDuration":139418,"Delta":51317383},{"NoteNumber":57,"Velocity":23,"Duration":139418,"SoundDuration":139418,"Delta":51317383},{"NoteNumber":69,"Velocity":38,"Duration":139418,"SoundDuration":139418,"Delta":51456801},{"NoteNumber":71,"Velocity":45,"Duration":133820,"SoundDuration":133820,"Delta":51596219},{"NoteNumber":57,"Velocity":23,"Duration":133820,"SoundDuration":133820,"Delta":51596219},{"NoteNumber":69,"Velocity":44,"Duration":146929,"SoundDuration":146929,"Delta":51730040},{"NoteNumber":67,"Velocity":48,"Duration":564305,"SoundDuration":564305,"Delta":51876970},{"NoteNumber":62,"Velocity":31,"Duration":285469,"SoundDuration":285469,"Delta":51876970},{"NoteNumber":57,"Velocity":26,"Duration":139418,"SoundDuration":139418,"Delta":52162439},{"NoteNumber":66,"Velocity":42,"Duration":278836,"SoundDuration":278836,"Delta":52441276},{"NoteNumber":57,"Velocity":26,"Duration":139418,"SoundDuration":139418,"Delta":52441276},{"NoteNumber":64,"Velocity":49,"Duration":286834,"SoundDuration":286834,"Delta":52720112},{"NoteNumber":61,"Velocity":31,"Duration":286834,"SoundDuration":286834,"Delta":52720112},{"NoteNumber":57,"Velocity":24,"Duration":139418,"SoundDuration":139418,"Delta":53006947},{"NoteNumber":57,"Velocity":24,"Duration":139418,"SoundDuration":139418,"Delta":53285783},{"NoteNumber":50,"Velocity":58,"Duration":828641,"SoundDuration":828641,"Delta":53564620},{"NoteNumber":54,"Velocity":58,"Duration":828641,"SoundDuration":828641,"Delta":53564620},{"NoteNumber":57,"Velocity":69,"Duration":828641,"SoundDuration":828641,"Delta":53564620},{"NoteNumber":74,"Velocity":63,"Duration":135025,"SoundDuration":135025,"Delta":53704038},{"NoteNumber":76,"Velocity":68,"Duration":135025,"SoundDuration":135025,"Delta":53839064},{"NoteNumber":74,"Velocity":64,"Duration":135025,"SoundDuration":135025,"Delta":53974089},{"NoteNumber":73,"Velocity":68,"Duration":135025,"SoundDuration":135025,"Delta":54109115},{"NoteNumber":74,"Velocity":62,"Duration":149120,"SoundDuration":149120,"Delta":54244141},{"NoteNumber":67,"Velocity":68,"Duration":136252,"SoundDuration":136252,"Delta":54393261},{"NoteNumber":59,"Velocity":56,"Duration":136252,"SoundDuration":136252,"Delta":54393261},{"NoteNumber":74,"Velocity":62,"Duration":136252,"SoundDuration":136252,"Delta":54529513},{"NoteNumber":69,"Velocity":68,"Duration":136252,"SoundDuration":136252,"Delta":54665766},{"NoteNumber":57,"Velocity":52,"Duration":136252,"SoundDuration":136252,"Delta":54665766},{"NoteNumber":74,"Velocity":63,"Duration":136252,"SoundDuration":136252,"Delta":54802018},{"NoteNumber":71,"Velocity":68,"Duration":136252,"SoundDuration":136252,"Delta":54938270},{"NoteNumber":55,"Velocity":52,"Duration":136252,"SoundDuration":136252,"Delta":54938270},{"NoteNumber":74,"Velocity":62,"Duration":152920,"SoundDuration":152920,"Delta":55074522},{"NoteNumber":50,"Velocity":58,"Duration":828641,"SoundDuration":828641,"Delta":55227443},{"NoteNumber":54,"Velocity":58,"Duration":828641,"SoundDuration":828641,"Delta":55227443},{"NoteNumber":57,"Velocity":69,"Duration":828641,"SoundDuration":828641,"Delta":55227443},{"NoteNumber":74,"Velocity":63,"Duration":135025,"SoundDuration":135025,"Delta":55366861},{"NoteNumber":76,"Velocity":68,"Duration":135025,"SoundDuration":135025,"Delta":55501887},{"NoteNumber":74,"Velocity":64,"Duration":135025,"SoundDuration":135025,"Delta":55636913},{"NoteNumber":73,"Velocity":68,"Duration":135025,"SoundDuration":135025,"Delta":55771939},{"NoteNumber":74,"Velocity":62,"Duration":149120,"SoundDuration":149120,"Delta":55906964},{"NoteNumber":68,"Velocity":68,"Duration":136252,"SoundDuration":136252,"Delta":56056085},{"NoteNumber":59,"Velocity":56,"Duration":136252,"SoundDuration":136252,"Delta":56056085},{"NoteNumber":74,"Velocity":62,"Duration":136252,"SoundDuration":136252,"Delta":56192337},{"NoteNumber":69,"Velocity":68,"Duration":136252,"SoundDuration":136252,"Delta":56328589},{"NoteNumber":57,"Velocity":52,"Duration":136252,"SoundDuration":136252,"Delta":56328589},{"NoteNumber":74,"Velocity":63,"Duration":136252,"SoundDuration":136252,"Delta":56464841},{"NoteNumber":71,"Velocity":68,"Duration":136252,"SoundDuration":136252,"Delta":56601094},{"NoteNumber":56,"Velocity":52,"Duration":136252,"SoundDuration":136252,"Delta":56601094},{"NoteNumber":74,"Velocity":62,"Duration":152920,"SoundDuration":152920,"Delta":56737346},{"NoteNumber":69,"Velocity":68,"Duration":286834,"SoundDuration":286834,"Delta":56890267},{"NoteNumber":45,"Velocity":56,"Duration":143417,"SoundDuration":143417,"Delta":56890267},{"NoteNumber":57,"Velocity":51,"Duration":143417,"SoundDuration":143417,"Delta":57033684},{"NoteNumber":74,"Velocity":73,"Duration":281452,"SoundDuration":281452,"Delta":57177101},{"NoteNumber":45,"Velocity":56,"Duration":140726,"SoundDuration":140726,"Delta":57177101},{"NoteNumber":57,"Velocity":51,"Duration":140726,"SoundDuration":140726,"Delta":57317827},{"NoteNumber":66,"Velocity":64,"Duration":293858,"SoundDuration":293858,"Delta":57458554},{"NoteNumber":45,"Velocity":56,"Duration":146929,"SoundDuration":146929,"Delta":57458554},{"NoteNumber":57,"Velocity":53,"Duration":146929,"SoundDuration":146929,"Delta":57605483},{"NoteNumber":69,"Velocity":68,"Duration":273747,"SoundDuration":273747,"Delta":57752412},{"NoteNumber":45,"Velocity":56,"Duration":136873,"SoundDuration":136873,"Delta":57752412},{"NoteNumber":57,"Velocity":51,"Duration":136873,"SoundDuration":136873,"Delta":57889286},{"NoteNumber":67,"Velocity":63,"Duration":273747,"SoundDuration":273747,"Delta":58026160},{"NoteNumber":45,"Velocity":56,"Duration":136873,"SoundDuration":136873,"Delta":58026160},{"NoteNumber":57,"Velocity":51,"Duration":136873,"SoundDuration":136873,"Delta":58163033},{"NoteNumber":64,"Velocity":68,"Duration":141389,"SoundDuration":141389,"Delta":58299907},{"NoteNumber":45,"Velocity":56,"Duration":141389,"SoundDuration":141389,"Delta":58299907},{"NoteNumber":66,"Velocity":63,"Duration":149120,"SoundDuration":149120,"Delta":58441297},{"NoteNumber":57,"Velocity":53,"Duration":149120,"SoundDuration":149120,"Delta":58441297},{"NoteNumber":62,"Velocity":68,"Duration":141759,"SoundDuration":141759,"Delta":58590417},{"NoteNumber":50,"Velocity":36,"Duration":857961,"SoundDuration":857961,"Delta":58590417},{"NoteNumber":62,"Velocity":54,"Duration":142734,"SoundDuration":142734,"Delta":58874353},{"NoteNumber":62,"Velocity":54,"Duration":143675,"SoundDuration":143675,"Delta":59160352},{"NoteNumber":64,"Velocity":58,"Duration":149248,"SoundDuration":149248,"Delta":59448378},{"NoteNumber":61,"Velocity":49,"Duration":149248,"SoundDuration":149248,"Delta":59448378},{"NoteNumber":64,"Velocity":43,"Duration":153333,"SoundDuration":153333,"Delta":59749019},{"NoteNumber":61,"Velocity":36,"Duration":153333,"SoundDuration":153333,"Delta":59749019},{"NoteNumber":64,"Velocity":43,"Duration":157355,"SoundDuration":157355,"Delta":60057664},{"NoteNumber":61,"Velocity":36,"Duration":157355,"SoundDuration":157355,"Delta":60057664},{"NoteNumber":60,"Velocity":42,"Duration":161865,"SoundDuration":161865,"Delta":60374458},{"NoteNumber":66,"Velocity":50,"Duration":161865,"SoundDuration":161865,"Delta":60374458},{"NoteNumber":50,"Velocity":27,"Duration":970661,"SoundDuration":970661,"Delta":60374458},{"NoteNumber":66,"Velocity":40,"Duration":170817,"SoundDuration":170817,"Delta":60702413},{"NoteNumber":60,"Velocity":34,"Duration":170817,"SoundDuration":170817,"Delta":60702413},{"NoteNumber":66,"Velocity":40,"Duration":148089,"SoundDuration":148089,"Delta":61048941},{"NoteNumber":60,"Velocity":34,"Duration":148089,"SoundDuration":148089,"Delta":61048941},{"NoteNumber":67,"Velocity":50,"Duration":144801,"SoundDuration":144801,"Delta":62172402},{"NoteNumber":55,"Velocity":30,"Duration":289602,"SoundDuration":289602,"Delta":62172402},{"NoteNumber":67,"Velocity":43,"Duration":139418,"SoundDuration":139418,"Delta":62462005},{"NoteNumber":59,"Velocity":29,"Duration":278836,"SoundDuration":278836,"Delta":62462005},{"NoteNumber":67,"Velocity":43,"Duration":142099,"SoundDuration":142099,"Delta":62740841},{"NoteNumber":62,"Velocity":29,"Duration":284198,"SoundDuration":284198,"Delta":62740841},{"NoteNumber":69,"Velocity":46,"Duration":268937,"SoundDuration":268937,"Delta":63025040},{"NoteNumber":54,"Velocity":30,"Duration":268937,"SoundDuration":268937,"Delta":63025040},{"NoteNumber":74,"Velocity":50,"Duration":268937,"SoundDuration":268937,"Delta":63293977},{"NoteNumber":57,"Velocity":26,"Duration":268937,"SoundDuration":268937,"Delta":63293977},{"NoteNumber":72,"Velocity":47,"Duration":268937,"SoundDuration":268937,"Delta":63562915},{"NoteNumber":62,"Velocity":26,"Duration":268937,"SoundDuration":268937,"Delta":63562915},{"NoteNumber":71,"Velocity":50,"Duration":139056,"SoundDuration":139056,"Delta":63831852},{"NoteNumber":55,"Velocity":30,"Duration":278112,"SoundDuration":278112,"Delta":63831852},{"NoteNumber":67,"Velocity":43,"Duration":133916,"SoundDuration":133916,"Delta":64109965},{"NoteNumber":59,"Velocity":25,"Duration":267832,"SoundDuration":267832,"Delta":64109965},{"NoteNumber":69,"Velocity":40,"Duration":133916,"SoundDuration":133916,"Delta":64243881},{"NoteNumber":71,"Velocity":43,"Duration":131210,"SoundDuration":131210,"Delta":64377798},{"NoteNumber":62,"Velocity":24,"Duration":262421,"SoundDuration":262421,"Delta":64377798},{"NoteNumber":67,"Velocity":42,"Duration":131210,"SoundDuration":131210,"Delta":64509008},{"NoteNumber":69,"Velocity":46,"Duration":142734,"SoundDuration":142734,"Delta":64640219},{"NoteNumber":54,"Velocity":30,"Duration":285469,"SoundDuration":285469,"Delta":64640219},{"NoteNumber":57,"Velocity":25,"Duration":276268,"SoundDuration":276268,"Delta":64925689},{"NoteNumber":62,"Velocity":21,"Duration":279303,"SoundDuration":279303,"Delta":65201957},{"NoteNumber":79,"Velocity":50,"Duration":133916,"SoundDuration":133916,"Delta":65481261},{"NoteNumber":55,"Velocity":30,"Duration":267832,"SoundDuration":267832,"Delta":65481261},{"NoteNumber":79,"Velocity":50,"Duration":133916,"SoundDuration":133916,"Delta":65749094},{"NoteNumber":59,"Velocity":29,"Duration":267833,"SoundDuration":267833,"Delta":65749094},{"NoteNumber":79,"Velocity":50,"Duration":137880,"SoundDuration":137880,"Delta":66016927},{"NoteNumber":62,"Velocity":31,"Duration":274534,"SoundDuration":274534,"Delta":66016927},{"NoteNumber":81,"Velocity":56,"Duration":131966,"SoundDuration":131966,"Delta":66291461},{"NoteNumber":54,"Velocity":36,"Duration":264576,"SoundDuration":264576,"Delta":66291461},{"NoteNumber":79,"Velocity":50,"Duration":132610,"SoundDuration":132610,"Delta":66423428},{"NoteNumber":78,"Velocity":49,"Duration":133260,"SoundDuration":133260,"Delta":66556038},{"NoteNumber":57,"Velocity":30,"Duration":267287,"SoundDuration":267287,"Delta":66556038},{"NoteNumber":76,"Velocity":48,"Duration":134026,"SoundDuration":134026,"Delta":66689298},{"NoteNumber":74,"Velocity":47,"Duration":134691,"SoundDuration":134691,"Delta":66823325},{"NoteNumber":62,"Velocity":30,"Duration":270054,"SoundDuration":270054,"Delta":66823325},{"NoteNumber":72,"Velocity":46,"Duration":135362,"SoundDuration":135362,"Delta":66958017},{"NoteNumber":71,"Velocity":50,"Duration":139651,"SoundDuration":139651,"Delta":67093379},{"NoteNumber":55,"Velocity":30,"Duration":279303,"SoundDuration":279303,"Delta":67093379},{"NoteNumber":67,"Velocity":43,"Duration":135025,"SoundDuration":135025,"Delta":67372683},{"NoteNumber":59,"Velocity":25,"Duration":270051,"SoundDuration":270051,"Delta":67372683},{"NoteNumber":69,"Velocity":40,"Duration":135025,"SoundDuration":135025,"Delta":67507708},{"NoteNumber":71,"Velocity":43,"Duration":135025,"SoundDuration":135025,"Delta":67642734},{"NoteNumber":62,"Velocity":24,"Duration":270051,"SoundDuration":270051,"Delta":67642734},{"NoteNumber":67,"Velocity":42,"Duration":135025,"SoundDuration":135025,"Delta":67777760},{"NoteNumber":69,"Velocity":46,"Duration":140068,"SoundDuration":140068,"Delta":67912786},{"NoteNumber":54,"Velocity":30,"Duration":280137,"SoundDuration":280137,"Delta":67912786},{"NoteNumber":57,"Velocity":25,"Duration":275507,"SoundDuration":275507,"Delta":68192924},{"NoteNumber":62,"Velocity":23,"Duration":275507,"SoundDuration":275507,"Delta":68468431},{"NoteNumber":60,"Velocity":30,"Duration":814189,"SoundDuration":814189,"Delta":68743939},{"NoteNumber":64,"Velocity":40,"Duration":137089,"SoundDuration":137089,"Delta":68878964},{"NoteNumber":66,"Velocity":44,"Duration":137416,"SoundDuration":137416,"Delta":69016054},{"NoteNumber":68,"Velocity":47,"Duration":136154,"SoundDuration":136154,"Delta":69153471},{"NoteNumber":69,"Velocity":49,"Duration":134915,"SoundDuration":134915,"Delta":69289625},{"NoteNumber":71,"Velocity":50,"Duration":133588,"SoundDuration":133588,"Delta":69424540},{"NoteNumber":72,"Velocity":52,"Duration":134468,"SoundDuration":134468,"Delta":69558128},{"NoteNumber":74,"Velocity":53,"Duration":147899,"SoundDuration":147899,"Delta":69692597},{"NoteNumber":76,"Velocity":58,"Duration":142721,"SoundDuration":142721,"Delta":69840497},{"NoteNumber":60,"Velocity":30,"Duration":142721,"SoundDuration":142721,"Delta":69840497},{"NoteNumber":76,"Velocity":53,"Duration":142721,"SoundDuration":142721,"Delta":70125939},{"NoteNumber":60,"Velocity":28,"Duration":142721,"SoundDuration":142721,"Delta":70125939},{"NoteNumber":59,"Velocity":30,"Duration":816214,"SoundDuration":816214,"Delta":70411382},{"NoteNumber":62,"Velocity":40,"Duration":137549,"SoundDuration":137549,"Delta":70545850},{"NoteNumber":64,"Velocity":44,"Duration":137531,"SoundDuration":137531,"Delta":70683400},{"NoteNumber":66,"Velocity":47,"Duration":136495,"SoundDuration":136495,"Delta":70820932},{"NoteNumber":67,"Velocity":49,"Duration":135587,"SoundDuration":135587,"Delta":70957427},{"NoteNumber":69,"Velocity":50,"Duration":134581,"SoundDuration":134581,"Delta":71093015},{"NoteNumber":71,"Velocity":52,"Duration":133916,"SoundDuration":133916,"Delta":71227596},{"NoteNumber":72,"Velocity":53,"Duration":147232,"SoundDuration":147232,"Delta":71361513},{"NoteNumber":74,"Velocity":58,"Duration":141482,"SoundDuration":141482,"Delta":71508745},{"NoteNumber":59,"Velocity":30,"Duration":141482,"SoundDuration":141482,"Delta":71508745},{"NoteNumber":74,"Velocity":53,"Duration":141482,"SoundDuration":141482,"Delta":71791710},{"NoteNumber":59,"Velocity":28,"Duration":141482,"SoundDuration":141482,"Delta":71791710},{"NoteNumber":72,"Velocity":65,"Duration":133588,"SoundDuration":133588,"Delta":72079763},{"NoteNumber":57,"Velocity":47,"Duration":267615,"SoundDuration":267615,"Delta":72079763},{"NoteNumber":62,"Velocity":51,"Duration":134026,"SoundDuration":134026,"Delta":72213352},{"NoteNumber":71,"Velocity":58,"Duration":134802,"SoundDuration":134802,"Delta":72347379},{"NoteNumber":55,"Velocity":30,"Duration":270277,"SoundDuration":270277,"Delta":72347379},{"NoteNumber":62,"Velocity":49,"Duration":135474,"SoundDuration":135474,"Delta":72482182},{"NoteNumber":69,"Velocity":59,"Duration":136381,"SoundDuration":136381,"Delta":72617657},{"NoteNumber":54,"Velocity":30,"Duration":278480,"SoundDuration":278480,"Delta":72617657},{"NoteNumber":62,"Velocity":48,"Duration":142099,"SoundDuration":142099,"Delta":72754039},{"NoteNumber":71,"Velocity":62,"Duration":132718,"SoundDuration":132718,"Delta":72896138},{"NoteNumber":55,"Velocity":46,"Duration":266746,"SoundDuration":266746,"Delta":72896138},{"NoteNumber":62,"Velocity":47,"Duration":134027,"SoundDuration":134027,"Delta":73028857},{"NoteNumber":69,"Velocity":55,"Duration":135475,"SoundDuration":135475,"Delta":73162885},{"NoteNumber":54,"Velocity":30,"Duration":272315,"SoundDuration":272315,"Delta":73162885},{"NoteNumber":62,"Velocity":48,"Duration":136840,"SoundDuration":136840,"Delta":73298360},{"NoteNumber":67,"Velocity":55,"Duration":140871,"SoundDuration":140871,"Delta":73435200},{"NoteNumber":52,"Velocity":30,"Duration":281743,"SoundDuration":281743,"Delta":73435200},{"NoteNumber":62,"Velocity":49,"Duration":140871,"SoundDuration":140871,"Delta":73576072},{"NoteNumber":66,"Velocity":57,"Duration":134468,"SoundDuration":134468,"Delta":73716943},{"NoteNumber":50,"Velocity":34,"Duration":814107,"SoundDuration":814107,"Delta":73716943},{"NoteNumber":64,"Velocity":47,"Duration":134468,"SoundDuration":134468,"Delta":73851412},{"NoteNumber":62,"Velocity":47,"Duration":134468,"SoundDuration":134468,"Delta":73985881},{"NoteNumber":64,"Velocity":47,"Duration":134468,"SoundDuration":134468,"Delta":74120350},{"NoteNumber":66,"Velocity":43,"Duration":134468,"SoundDuration":134468,"Delta":74254818},{"NoteNumber":67,"Velocity":44,"Duration":141763,"SoundDuration":141763,"Delta":74389287},{"NoteNumber":69,"Velocity":52,"Duration":141205,"SoundDuration":141205,"Delta":74531051},{"NoteNumber":71,"Velocity":46,"Duration":138954,"SoundDuration":138954,"Delta":74672257},{"NoteNumber":74,"Velocity":47,"Duration":136658,"SoundDuration":136658,"Delta":74811211},{"NoteNumber":72,"Velocity":45,"Duration":140587,"SoundDuration":140587,"Delta":74947870},{"NoteNumber":71,"Velocity":41,"Duration":147500,"SoundDuration":147500,"Delta":75088457},{"NoteNumber":69,"Velocity":40,"Duration":155277,"SoundDuration":155277,"Delta":75235958},{"NoteNumber":67,"Velocity":50,"Duration":140726,"SoundDuration":140726,"Delta":75391236},{"NoteNumber":55,"Velocity":30,"Duration":281452,"SoundDuration":281452,"Delta":75391236},{"NoteNumber":67,"Velocity":43,"Duration":134420,"SoundDuration":134420,"Delta":75672688},{"NoteNumber":59,"Velocity":29,"Duration":268841,"SoundDuration":268841,"Delta":75672688},{"NoteNumber":67,"Velocity":43,"Duration":142099,"SoundDuration":142099,"Delta":75941530},{"NoteNumber":62,"Velocity":29,"Duration":284198,"SoundDuration":284198,"Delta":75941530},{"NoteNumber":69,"Velocity":46,"Duration":268937,"SoundDuration":268937,"Delta":76225728},{"NoteNumber":54,"Velocity":30,"Duration":268937,"SoundDuration":268937,"Delta":76225728},{"NoteNumber":74,"Velocity":50,"Duration":268937,"SoundDuration":268937,"Delta":76494666},{"NoteNumber":57,"Velocity":26,"Duration":268937,"SoundDuration":268937,"Delta":76494666},{"NoteNumber":72,"Velocity":47,"Duration":268937,"SoundDuration":268937,"Delta":76763603},{"NoteNumber":62,"Velocity":26,"Duration":268937,"SoundDuration":268937,"Delta":76763603},{"NoteNumber":71,"Velocity":50,"Duration":139056,"SoundDuration":139056,"Delta":77032541},{"NoteNumber":55,"Velocity":30,"Duration":278112,"SoundDuration":278112,"Delta":77032541},{"NoteNumber":67,"Velocity":43,"Duration":133916,"SoundDuration":133916,"Delta":77310653},{"NoteNumber":59,"Velocity":25,"Duration":267832,"SoundDuration":267832,"Delta":77310653},{"NoteNumber":69,"Velocity":40,"Duration":133916,"SoundDuration":133916,"Delta":77444570},{"NoteNumber":71,"Velocity":43,"Duration":131210,"SoundDuration":131210,"Delta":77578486},{"NoteNumber":62,"Velocity":24,"Duration":262421,"SoundDuration":262421,"Delta":77578486},{"NoteNumber":67,"Velocity":42,"Duration":131210,"SoundDuration":131210,"Delta":77709697},{"NoteNumber":69,"Velocity":46,"Duration":141389,"SoundDuration":141389,"Delta":77840908},{"NoteNumber":54,"Velocity":30,"Duration":282779,"SoundDuration":282779,"Delta":77840908},{"NoteNumber":57,"Velocity":25,"Duration":271272,"SoundDuration":271272,"Delta":78123687},{"NoteNumber":62,"Velocity":21,"Duration":279303,"SoundDuration":279303,"Delta":78394959},{"NoteNumber":79,"Velocity":50,"Duration":137124,"SoundDuration":137124,"Delta":78674263},{"NoteNumber":55,"Velocity":30,"Duration":274248,"SoundDuration":274248,"Delta":78674263},{"NoteNumber":79,"Velocity":50,"Duration":132872,"SoundDuration":132872,"Delta":78948511},{"NoteNumber":59,"Velocity":29,"Duration":265745,"SoundDuration":265745,"Delta":78948511},{"NoteNumber":79,"Velocity":50,"Duration":137880,"SoundDuration":137880,"Delta":79214256},{"NoteNumber":62,"Velocity":31,"Duration":274534,"SoundDuration":274534,"Delta":79214256},{"NoteNumber":81,"Velocity":56,"Duration":131966,"SoundDuration":131966,"Delta":79488791},{"NoteNumber":54,"Velocity":36,"Duration":264576,"SoundDuration":264576,"Delta":79488791},{"NoteNumber":79,"Velocity":50,"Duration":132610,"SoundDuration":132610,"Delta":79620757},{"NoteNumber":78,"Velocity":49,"Duration":133260,"SoundDuration":133260,"Delta":79753367},{"NoteNumber":57,"Velocity":30,"Duration":267287,"SoundDuration":267287,"Delta":79753367},{"NoteNumber":76,"Velocity":48,"Duration":134026,"SoundDuration":134026,"Delta":79886628},{"NoteNumber":74,"Velocity":47,"Duration":134691,"SoundDuration":134691,"Delta":80020655},{"NoteNumber":62,"Velocity":30,"Duration":270054,"SoundDuration":270054,"Delta":80020655},{"NoteNumber":72,"Velocity":46,"Duration":135362,"SoundDuration":135362,"Delta":80155346},{"NoteNumber":71,"Velocity":50,"Duration":139651,"SoundDuration":139651,"Delta":80290709},{"NoteNumber":55,"Velocity":30,"Duration":279303,"SoundDuration":279303,"Delta":80290709},{"NoteNumber":67,"Velocity":43,"Duration":135025,"SoundDuration":135025,"Delta":80570012},{"NoteNumber":59,"Velocity":25,"Duration":270051,"SoundDuration":270051,"Delta":80570012},{"NoteNumber":69,"Velocity":40,"Duration":135025,"SoundDuration":135025,"Delta":80705038},{"NoteNumber":71,"Velocity":43,"Duration":135025,"SoundDuration":135025,"Delta":80840064},{"NoteNumber":62,"Velocity":24,"Duration":270051,"SoundDuration":270051,"Delta":80840064},{"NoteNumber":67,"Velocity":42,"Duration":135025,"SoundDuration":135025,"Delta":80975089},{"NoteNumber":69,"Velocity":46,"Duration":140726,"SoundDuration":140726,"Delta":81110115},{"NoteNumber":54,"Velocity":30,"Duration":281452,"SoundDuration":281452,"Delta":81110115},{"NoteNumber":57,"Velocity":25,"Duration":277546,"SoundDuration":277546,"Delta":81391568},{"NoteNumber":62,"Velocity":23,"Duration":277546,"SoundDuration":277546,"Delta":81669114},{"NoteNumber":60,"Velocity":30,"Duration":814189,"SoundDuration":814189,"Delta":81946661},{"NoteNumber":64,"Velocity":40,"Duration":137089,"SoundDuration":137089,"Delta":82081686},{"NoteNumber":66,"Velocity":44,"Duration":137416,"SoundDuration":137416,"Delta":82218776},{"NoteNumber":68,"Velocity":47,"Duration":136154,"SoundDuration":136154,"Delta":82356193},{"NoteNumber":69,"Velocity":49,"Duration":134915,"SoundDuration":134915,"Delta":82492347},{"NoteNumber":71,"Velocity":53,"Duration":133588,"SoundDuration":133588,"Delta":82627262},{"NoteNumber":72,"Velocity":57,"Duration":134468,"SoundDuration":134468,"Delta":82760850},{"NoteNumber":74,"Velocity":62,"Duration":147899,"SoundDuration":147899,"Delta":82895319},{"NoteNumber":76,"Velocity":68,"Duration":142721,"SoundDuration":142721,"Delta":83043219},{"NoteNumber":60,"Velocity":30,"Duration":142721,"SoundDuration":142721,"Delta":83043219},{"NoteNumber":76,"Velocity":63,"Duration":142721,"SoundDuration":142721,"Delta":83328661},{"NoteNumber":60,"Velocity":28,"Duration":142721,"SoundDuration":142721,"Delta":83328661},{"NoteNumber":59,"Velocity":30,"Duration":816214,"SoundDuration":816214,"Delta":83614104},{"NoteNumber":62,"Velocity":40,"Duration":137549,"SoundDuration":137549,"Delta":83748572},{"NoteNumber":64,"Velocity":44,"Duration":137531,"SoundDuration":137531,"Delta":83886122},{"NoteNumber":66,"Velocity":47,"Duration":136495,"SoundDuration":136495,"Delta":84023654},{"NoteNumber":67,"Velocity":49,"Duration":135587,"SoundDuration":135587,"Delta":84160149},{"NoteNumber":69,"Velocity":50,"Duration":134581,"SoundDuration":134581,"Delta":84295737},{"NoteNumber":71,"Velocity":52,"Duration":135587,"SoundDuration":135587,"Delta":84430318},{"NoteNumber":72,"Velocity":53,"Duration":135587,"SoundDuration":135587,"Delta":84565905},{"NoteNumber":74,"Velocity":58,"Duration":138465,"SoundDuration":138465,"Delta":84701492},{"NoteNumber":59,"Velocity":35,"Duration":138465,"SoundDuration":138465,"Delta":84701492},{"NoteNumber":76,"Velocity":58,"Duration":138465,"SoundDuration":138465,"Delta":84839958},{"NoteNumber":78,"Velocity":53,"Duration":143348,"SoundDuration":143348,"Delta":84978424},{"NoteNumber":59,"Velocity":37,"Duration":143348,"SoundDuration":143348,"Delta":84978424},{"NoteNumber":79,"Velocity":53,"Duration":154942,"SoundDuration":154942,"Delta":85121772},{"NoteNumber":78,"Velocity":69,"Duration":139651,"SoundDuration":139651,"Delta":85276715},{"NoteNumber":48,"Velocity":46,"Duration":279303,"SoundDuration":279303,"Delta":85276715},{"NoteNumber":76,"Velocity":57,"Duration":139651,"SoundDuration":139651,"Delta":85416367},{"NoteNumber":74,"Velocity":54,"Duration":139651,"SoundDuration":139651,"Delta":85556019},{"NoteNumber":60,"Velocity":30,"Duration":139651,"SoundDuration":139651,"Delta":85556019},{"NoteNumber":72,"Velocity":51,"Duration":139651,"SoundDuration":139651,"Delta":85695670},{"NoteNumber":71,"Velocity":50,"Duration":139651,"SoundDuration":139651,"Delta":85835322},{"NoteNumber":60,"Velocity":30,"Duration":139651,"SoundDuration":139651,"Delta":85835322},{"NoteNumber":69,"Velocity":48,"Duration":148573,"SoundDuration":148573,"Delta":85974974},{"NoteNumber":67,"Velocity":54,"Duration":551520,"SoundDuration":551520,"Delta":86123548},{"NoteNumber":50,"Velocity":45,"Duration":275760,"SoundDuration":275760,"Delta":86123548},{"NoteNumber":62,"Velocity":30,"Duration":137880,"SoundDuration":137880,"Delta":86399308},{"NoteNumber":71,"Velocity":51,"Duration":143981,"SoundDuration":143981,"Delta":86675069},{"NoteNumber":62,"Velocity":30,"Duration":143981,"SoundDuration":143981,"Delta":86675069},{"NoteNumber":69,"Velocity":45,"Duration":143981,"SoundDuration":143981,"Delta":86819050},{"NoteNumber":71,"Velocity":57,"Duration":137880,"SoundDuration":137880,"Delta":86963032},{"NoteNumber":43,"Velocity":41,"Duration":275760,"SoundDuration":275760,"Delta":86963032},{"NoteNumber":69,"Velocity":54,"Duration":137880,"SoundDuration":137880,"Delta":87100912},{"NoteNumber":67,"Velocity":55,"Duration":137880,"SoundDuration":137880,"Delta":87238792},{"NoteNumber":47,"Velocity":36,"Duration":275760,"SoundDuration":275760,"Delta":87238792},{"NoteNumber":66,"Velocity":60,"Duration":137880,"SoundDuration":137880,"Delta":87376672},{"NoteNumber":67,"Velocity":61,"Duration":144105,"SoundDuration":144105,"Delta":87514553},{"NoteNumber":50,"Velocity":45,"Duration":288212,"SoundDuration":288212,"Delta":87514553},{"NoteNumber":69,"Velocity":61,"Duration":144106,"SoundDuration":144106,"Delta":87658659},{"NoteNumber":71,"Velocity":69,"Duration":137501,"SoundDuration":137501,"Delta":87802765},{"NoteNumber":55,"Velocity":47,"Duration":275002,"SoundDuration":275002,"Delta":87802765},{"NoteNumber":72,"Velocity":62,"Duration":137501,"SoundDuration":137501,"Delta":87940266},{"NoteNumber":74,"Velocity":66,"Duration":137501,"SoundDuration":137501,"Delta":88077767},{"NoteNumber":59,"Velocity":42,"Duration":275002,"SoundDuration":275002,"Delta":88077767},{"NoteNumber":76,"Velocity":68,"Duration":137501,"SoundDuration":137501,"Delta":88215268},{"NoteNumber":78,"Velocity":70,"Duration":144105,"SoundDuration":144105,"Delta":88352770},{"NoteNumber":55,"Velocity":48,"Duration":288212,"SoundDuration":288212,"Delta":88352770},{"NoteNumber":79,"Velocity":70,"Duration":144106,"SoundDuration":144106,"Delta":88496876},{"NoteNumber":78,"Velocity":77,"Duration":138134,"SoundDuration":138134,"Delta":88640982},{"NoteNumber":48,"Velocity":54,"Duration":276268,"SoundDuration":276268,"Delta":88640982},{"NoteNumber":76,"Velocity":76,"Duration":138134,"SoundDuration":138134,"Delta":88779116},{"NoteNumber":74,"Velocity":73,"Duration":138134,"SoundDuration":138134,"Delta":88917250},{"NoteNumber":60,"Velocity":46,"Duration":138134,"SoundDuration":138134,"Delta":88917250},{"NoteNumber":72,"Velocity":72,"Duration":138134,"SoundDuration":138134,"Delta":89055384},{"NoteNumber":71,"Velocity":68,"Duration":147652,"SoundDuration":147652,"Delta":89193519},{"NoteNumber":60,"Velocity":42,"Duration":147652,"SoundDuration":147652,"Delta":89193519},{"NoteNumber":69,"Velocity":68,"Duration":147652,"SoundDuration":147652,"Delta":89341171},{"NoteNumber":67,"Velocity":73,"Duration":552537,"SoundDuration":552537,"Delta":89488823},{"NoteNumber":50,"Velocity":53,"Duration":276268,"SoundDuration":276268,"Delta":89488823},{"NoteNumber":62,"Velocity":46,"Duration":138134,"SoundDuration":138134,"Delta":89765092},{"NoteNumber":71,"Velocity":68,"Duration":140726,"SoundDuration":140726,"Delta":90041360},{"NoteNumber":62,"Velocity":46,"Duration":140726,"SoundDuration":140726,"Delta":90041360},{"NoteNumber":69,"Velocity":63,"Duration":149120,"SoundDuration":149120,"Delta":90182086},{"NoteNumber":67,"Velocity":72,"Duration":289602,"SoundDuration":289602,"Delta":90331207},{"NoteNumber":43,"Velocity":53,"Duration":289602,"SoundDuration":289602,"Delta":90331207},{"NoteNumber":55,"Velocity":46,"Duration":289602,"SoundDuration":289602,"Delta":90620810},{"NoteNumber":50,"Velocity":46,"Duration":302755,"SoundDuration":302755,"Delta":90910413},{"NoteNumber":71,"Velocity":73,"Duration":293858,"SoundDuration":293858,"Delta":91213168},{"NoteNumber":74,"Velocity":73,"Duration":293858,"SoundDuration":293858,"Delta":91213168},{"NoteNumber":79,"Velocity":87,"Duration":293858,"SoundDuration":293858,"Delta":91213168},{"NoteNumber":47,"Velocity":56,"Duration":293858,"SoundDuration":293858,"Delta":91213168},{"NoteNumber":50,"Velocity":41,"Duration":313840,"SoundDuration":313840,"Delta":91507026},{"NoteNumber":47,"Velocity":41,"Duration":338638,"SoundDuration":338638,"Delta":91820867},{"NoteNumber":59,"Velocity":66,"Duration":1123735,"SoundDuration":1123735,"Delta":92159505},{"NoteNumber":62,"Velocity":66,"Duration":1123735,"SoundDuration":1123735,"Delta":92159505},{"NoteNumber":67,"Velocity":78,"Duration":1123735,"SoundDuration":1123735,"Delta":92159505},{"NoteNumber":43,"Velocity":56,"Duration":1123735,"SoundDuration":1123735,"Delta":92159505}],"license":{"name":"Creative Commons Attribution-ShareAlike 3.0 Germany","url":"http://creativecommons.org/licenses/by-sa/3.0/de/deed.en","text":"The MIDI, audio (MP3, OGG) and video files of Bernd Krueger are licensed under the cc-by-sa Germany License. This means that you can use and adapt the files, as long as you attribute the copyright holder.\n\nName: Bernd Krueger\nSource: http://www.piano-midi.de\n\nThe distribution or public playback of the files is only allowed under identical license conditions.\n\nThe scores are open source.","attribution":"MIDI files by Bernd Krueger (piano-midi.de)","attributionUrl":"http://www.piano-midi.de"}}