{"title":"Clementi: Sonatine Opus 36 Nr. 3, 1. Satz","artist":"Clementi","durationMs":173413,"midiSha256":"9d15451c68ce0ffebadae8bd47fc0403ba70ab185186dcb5292cd95db3813c5d","midiObject":[{"NoteNumber":79,"Velocity":70,"Duration":713776,"SoundDuration":713776,"Delta":0},{"NoteNumber":64,"Velocity":40,"Duration":237925,"SoundDuration":237925,"Delta":0},{"NoteNumber":60,"Velocity":32,"Duration":237925,"SoundDuration":237925,"Delta":237925},{"NoteNumber":64,"Velocity":35,"Duration":237925,"SoundDuration":237925,"Delta":475850},{"NoteNumber":76,"Velocity":65,"Duration":255123,"SoundDuration":255123,"Delta":713776},{"NoteNumber":60,"Velocity":32,"Duration":255123,"SoundDuration":255123,"Delta":713776},{"NoteNumber":72,"Velocity":70,"Duration":236053,"SoundDuration":236053,"Delta":968899},{"NoteNumber":64,"Velocity":40,"Duration":236053,"SoundDuration":236053,"Delta":968899},{"NoteNumber":67,"Velocity":65,"Duration":118026,"SoundDuration":118026,"Delta":1204953},{"NoteNumber":60,"Velocity":29,"Duration":236052,"SoundDuration":236052,"Delta":1204953},{"NoteNumber":67,"Velocity":65,"Duration":118026,"SoundDuration":118026,"Delta":1441005},{"NoteNumber":64,"Velocity":37,"Duration":236053,"SoundDuration":236053,"Delta":1441005},{"NoteNumber":67,"Velocity":65,"Duration":127021,"SoundDuration":127021,"Delta":1677058},{"NoteNumber":60,"Velocity":32,"Duration":254043,"SoundDuration":254043,"Delta":1677058},{"NoteNumber":79,"Velocity":70,"Duration":708159,"SoundDuration":708159,"Delta":1931102},{"NoteNumber":64,"Velocity":40,"Duration":236052,"SoundDuration":236052,"Delta":1931102},{"NoteNumber":60,"Velocity":32,"Duration":236053,"SoundDuration":236053,"Delta":2167155},{"NoteNumber":64,"Velocity":35,"Duration":236053,"SoundDuration":236053,"Delta":2403208},{"NoteNumber":76,"Velocity":59,"Duration":244941,"SoundDuration":244941,"Delta":2639261},{"NoteNumber":60,"Velocity":32,"Duration":244941,"SoundDuration":244941,"Delta":2639261},{"NoteNumber":72,"Velocity":63,"Duration":118774,"SoundDuration":118774,"Delta":2884202},{"NoteNumber":64,"Velocity":40,"Duration":236802,"SoundDuration":236802,"Delta":2884202},{"NoteNumber":74,"Velocity":61,"Duration":118027,"SoundDuration":118027,"Delta":3002977},{"NoteNumber":76,"Velocity":62,"Duration":117288,"SoundDuration":117288,"Delta":3121004},{"NoteNumber":60,"Velocity":29,"Duration":234120,"SoundDuration":234120,"Delta":3121004},{"NoteNumber":77,"Velocity":63,"Duration":116831,"SoundDuration":116831,"Delta":3238293},{"NoteNumber":79,"Velocity":64,"Duration":117841,"SoundDuration":117841,"Delta":3355125},{"NoteNumber":64,"Velocity":37,"Duration":236710,"SoundDuration":236710,"Delta":3355125},{"NoteNumber":81,"Velocity":65,"Duration":118869,"SoundDuration":118869,"Delta":3472966},{"NoteNumber":83,"Velocity":67,"Duration":119818,"SoundDuration":119818,"Delta":3591836},{"NoteNumber":60,"Velocity":32,"Duration":240797,"SoundDuration":240797,"Delta":3591836},{"NoteNumber":84,"Velocity":70,"Duration":120978,"SoundDuration":120978,"Delta":3711655},{"NoteNumber":83,"Velocity":76,"Duration":235128,"SoundDuration":235128,"Delta":3832633},{"NoteNumber":65,"Velocity":40,"Duration":235128,"SoundDuration":235128,"Delta":3832633},{"NoteNumber":81,"Velocity":65,"Duration":117563,"SoundDuration":117563,"Delta":4067761},{"NoteNumber":60,"Velocity":32,"Duration":235127,"SoundDuration":235127,"Delta":4067761},{"NoteNumber":81,"Velocity":70,"Duration":117564,"SoundDuration":117564,"Delta":4302889},{"NoteNumber":65,"Velocity":35,"Duration":235128,"SoundDuration":235128,"Delta":4302889},{"NoteNumber":81,"Velocity":68,"Duration":122359,"SoundDuration":122359,"Delta":4538017},{"NoteNumber":60,"Velocity":32,"Duration":244717,"SoundDuration":244717,"Delta":4538017},{"NoteNumber":83,"Velocity":70,"Duration":117105,"SoundDuration":117105,"Delta":4782735},{"NoteNumber":65,"Velocity":40,"Duration":234210,"SoundDuration":234210,"Delta":4782735},{"NoteNumber":81,"Velocity":64,"Duration":117105,"SoundDuration":117105,"Delta":4899841},{"NoteNumber":80,"Velocity":70,"Duration":117105,"SoundDuration":117105,"Delta":5016946},{"NoteNumber":60,"Velocity":29,"Duration":234210,"SoundDuration":234210,"Delta":5016946},{"NoteNumber":81,"Velocity":65,"Duration":117105,"SoundDuration":117105,"Delta":5134051},{"NoteNumber":84,"Velocity":70,"Duration":175657,"SoundDuration":175657,"Delta":5251156},{"NoteNumber":65,"Velocity":37,"Duration":234210,"SoundDuration":234210,"Delta":5251156},{"NoteNumber":81,"Velocity":63,"Duration":189729,"SoundDuration":189729,"Delta":5485367},{"NoteNumber":60,"Velocity":32,"Duration":252972,"SoundDuration":252972,"Delta":5485367},{"NoteNumber":78,"Velocity":73,"Duration":240789,"SoundDuration":240789,"Delta":5738339},{"NoteNumber":64,"Velocity":40,"Duration":240789,"SoundDuration":240789,"Delta":5738339},{"NoteNumber":79,"Velocity":65,"Duration":120395,"SoundDuration":120395,"Delta":5979129},{"NoteNumber":60,"Velocity":32,"Duration":240790,"SoundDuration":240790,"Delta":5979129},{"NoteNumber":79,"Velocity":70,"Duration":120395,"SoundDuration":120395,"Delta":6219919},{"NoteNumber":64,"Velocity":35,"Duration":240789,"SoundDuration":240789,"Delta":6219919},{"NoteNumber":79,"Velocity":64,"Duration":120395,"SoundDuration":120395,"Delta":6460709},{"NoteNumber":60,"Velocity":32,"Duration":240790,"SoundDuration":240790,"Delta":6460709},{"NoteNumber":79,"Velocity":71,"Duration":469425,"SoundDuration":469425,"Delta":6701499},{"NoteNumber":64,"Velocity":38,"Duration":237925,"SoundDuration":237925,"Delta":6701499},{"NoteNumber":60,"Velocity":29,"Duration":231499,"SoundDuration":231499,"Delta":6939425},{"NoteNumber":64,"Velocity":37,"Duration":231499,"SoundDuration":231499,"Delta":7170924},{"NoteNumber":60,"Velocity":30,"Duration":243724,"SoundDuration":243724,"Delta":7402424},{"NoteNumber":74,"Velocity":42,"Duration":117105,"SoundDuration":117105,"Delta":7646148},{"NoteNumber":77,"Velocity":50,"Duration":117105,"SoundDuration":117105,"Delta":7646148},{"NoteNumber":67,"Velocity":35,"Duration":468420,"SoundDuration":468420,"Delta":7646148},{"NoteNumber":77,"Velocity":46,"Duration":117105,"SoundDuration":117105,"Delta":7880358},{"NoteNumber":74,"Velocity":39,"Duration":117105,"SoundDuration":117105,"Delta":7880358},{"NoteNumber":72,"Velocity":42,"Duration":118962,"SoundDuration":118962,"Delta":8114569},{"NoteNumber":76,"Velocity":50,"Duration":118962,"SoundDuration":118962,"Delta":8114569},{"NoteNumber":76,"Velocity":41,"Duration":123874,"SoundDuration":123874,"Delta":8352494},{"NoteNumber":72,"Velocity":34,"Duration":123874,"SoundDuration":123874,"Delta":8352494},{"NoteNumber":71,"Velocity":42,"Duration":470255,"SoundDuration":470255,"Delta":8600244},{"NoteNumber":74,"Velocity":50,"Duration":470255,"SoundDuration":470255,"Delta":8600244},{"NoteNumber":67,"Velocity":45,"Duration":117563,"SoundDuration":117563,"Delta":8600244},{"NoteNumber":67,"Velocity":40,"Duration":117563,"SoundDuration":117563,"Delta":8835372},{"NoteNumber":65,"Velocity":45,"Duration":118962,"SoundDuration":118962,"Delta":9070500},{"NoteNumber":65,"Velocity":38,"Duration":122860,"SoundDuration":122860,"Delta":9308425},{"NoteNumber":76,"Velocity":42,"Duration":117105,"SoundDuration":117105,"Delta":9554146},{"NoteNumber":79,"Velocity":50,"Duration":117105,"SoundDuration":117105,"Delta":9554146},{"NoteNumber":64,"Velocity":35,"Duration":468420,"SoundDuration":468420,"Delta":9554146},{"NoteNumber":79,"Velocity":46,"Duration":117105,"SoundDuration":117105,"Delta":9788356},{"NoteNumber":76,"Velocity":39,"Duration":117105,"SoundDuration":117105,"Delta":9788356},{"NoteNumber":74,"Velocity":42,"Duration":118962,"SoundDuration":118962,"Delta":10022567},{"NoteNumber":77,"Velocity":50,"Duration":118962,"SoundDuration":118962,"Delta":10022567},{"NoteNumber":77,"Velocity":41,"Duration":123874,"SoundDuration":123874,"Delta":10260492},{"NoteNumber":74,"Velocity":34,"Duration":123874,"SoundDuration":123874,"Delta":10260492},{"NoteNumber":72,"Velocity":42,"Duration":470255,"SoundDuration":470255,"Delta":10508242},{"NoteNumber":76,"Velocity":50,"Duration":470255,"SoundDuration":470255,"Delta":10508242},{"NoteNumber":69,"Velocity":45,"Duration":117563,"SoundDuration":117563,"Delta":10508242},{"NoteNumber":69,"Velocity":40,"Duration":117563,"SoundDuration":117563,"Delta":10743370},{"NoteNumber":67,"Velocity":45,"Duration":118962,"SoundDuration":118962,"Delta":10978498},{"NoteNumber":67,"Velocity":38,"Duration":122860,"SoundDuration":122860,"Delta":11216423},{"NoteNumber":81,"Velocity":58,"Duration":115749,"SoundDuration":115749,"Delta":11462144},{"NoteNumber":65,"Velocity":45,"Duration":115749,"SoundDuration":115749,"Delta":11462144},{"NoteNumber":77,"Velocity":43,"Duration":115749,"SoundDuration":115749,"Delta":11577893},{"NoteNumber":76,"Velocity":43,"Duration":115749,"SoundDuration":115749,"Delta":11693643},{"NoteNumber":74,"Velocity":43,"Duration":115749,"SoundDuration":115749,"Delta":11809393},{"NoteNumber":81,"Velocity":50,"Duration":115749,"SoundDuration":115749,"Delta":11925143},{"NoteNumber":77,"Velocity":43,"Duration":115749,"SoundDuration":115749,"Delta":12040892},{"NoteNumber":76,"Velocity":43,"Duration":115749,"SoundDuration":115749,"Delta":12156642},{"NoteNumber":65,"Velocity":39,"Duration":115749,"SoundDuration":115749,"Delta":12156642},{"NoteNumber":74,"Velocity":43,"Duration":128106,"SoundDuration":128106,"Delta":12272392},{"NoteNumber":76,"Velocity":58,"Duration":121368,"SoundDuration":121368,"Delta":12400498},{"NoteNumber":67,"Velocity":45,"Duration":121368,"SoundDuration":121368,"Delta":12400498},{"NoteNumber":79,"Velocity":42,"Duration":118026,"SoundDuration":118026,"Delta":12521867},{"NoteNumber":76,"Velocity":42,"Duration":118026,"SoundDuration":118026,"Delta":12639894},{"NoteNumber":72,"Velocity":42,"Duration":118026,"SoundDuration":118026,"Delta":12757920},{"NoteNumber":74,"Velocity":54,"Duration":118026,"SoundDuration":118026,"Delta":12875947},{"NoteNumber":55,"Velocity":40,"Duration":118026,"SoundDuration":118026,"Delta":12875947},{"NoteNumber":77,"Velocity":45,"Duration":118026,"SoundDuration":118026,"Delta":12993973},{"NoteNumber":74,"Velocity":45,"Duration":118026,"SoundDuration":118026,"Delta":13112000},{"NoteNumber":71,"Velocity":45,"Duration":131475,"SoundDuration":131475,"Delta":13230026},{"NoteNumber":72,"Velocity":50,"Duration":117105,"SoundDuration":117105,"Delta":13361502},{"NoteNumber":60,"Velocity":35,"Duration":117105,"SoundDuration":117105,"Delta":13361502},{"NoteNumber":72,"Velocity":46,"Duration":117105,"SoundDuration":117105,"Delta":13595712},{"NoteNumber":71,"Velocity":42,"Duration":118962,"SoundDuration":118962,"Delta":13829923},{"NoteNumber":74,"Velocity":50,"Duration":118962,"SoundDuration":118962,"Delta":13829923},{"NoteNumber":55,"Velocity":39,"Duration":118962,"SoundDuration":118962,"Delta":13829923},{"NoteNumber":74,"Velocity":41,"Duration":123874,"SoundDuration":123874,"Delta":14067848},{"NoteNumber":71,"Velocity":34,"Duration":123874,"SoundDuration":123874,"Delta":14067848},{"NoteNumber":72,"Velocity":42,"Duration":235127,"SoundDuration":235127,"Delta":14315598},{"NoteNumber":76,"Velocity":50,"Duration":235127,"SoundDuration":235127,"Delta":14315598},{"NoteNumber":60,"Velocity":45,"Duration":235127,"SoundDuration":235127,"Delta":14315598},{"NoteNumber":55,"Velocity":40,"Duration":235127,"SoundDuration":235127,"Delta":14550726},{"NoteNumber":52,"Velocity":45,"Duration":237925,"SoundDuration":237925,"Delta":14785854},{"NoteNumber":48,"Velocity":38,"Duration":245720,"SoundDuration":245720,"Delta":15023779},{"NoteNumber":62,"Velocity":46,"Duration":117105,"SoundDuration":117105,"Delta":15269500},{"NoteNumber":65,"Velocity":55,"Duration":117105,"SoundDuration":117105,"Delta":15269500},{"NoteNumber":55,"Velocity":38,"Duration":468420,"SoundDuration":468420,"Delta":15269500},{"NoteNumber":65,"Velocity":50,"Duration":117105,"SoundDuration":117105,"Delta":15503710},{"NoteNumber":62,"Velocity":42,"Duration":117105,"SoundDuration":117105,"Delta":15503710},{"NoteNumber":60,"Velocity":46,"Duration":118962,"SoundDuration":118962,"Delta":15737921},{"NoteNumber":64,"Velocity":55,"Duration":118962,"SoundDuration":118962,"Delta":15737921},{"NoteNumber":64,"Velocity":45,"Duration":123874,"SoundDuration":123874,"Delta":15975846},{"NoteNumber":60,"Velocity":37,"Duration":123874,"SoundDuration":123874,"Delta":15975846},{"NoteNumber":59,"Velocity":46,"Duration":470255,"SoundDuration":470255,"Delta":16223596},{"NoteNumber":62,"Velocity":55,"Duration":470255,"SoundDuration":470255,"Delta":16223596},{"NoteNumber":55,"Velocity":49,"Duration":117564,"SoundDuration":117564,"Delta":16223596},{"NoteNumber":55,"Velocity":44,"Duration":117564,"SoundDuration":117564,"Delta":16458724},{"NoteNumber":53,"Velocity":49,"Duration":118962,"SoundDuration":118962,"Delta":16693852},{"NoteNumber":53,"Velocity":41,"Duration":122860,"SoundDuration":122860,"Delta":16931777},{"NoteNumber":67,"Velocity":61,"Duration":118026,"SoundDuration":118026,"Delta":17177498},{"NoteNumber":64,"Velocity":51,"Duration":118026,"SoundDuration":118026,"Delta":17177498},{"NoteNumber":52,"Velocity":49,"Duration":118026,"SoundDuration":118026,"Delta":17177498},{"NoteNumber":64,"Velocity":45,"Duration":118026,"SoundDuration":118026,"Delta":17413551},{"NoteNumber":67,"Velocity":54,"Duration":118026,"SoundDuration":118026,"Delta":17413551},{"NoteNumber":71,"Velocity":62,"Duration":118962,"SoundDuration":118962,"Delta":17649604},{"NoteNumber":65,"Velocity":52,"Duration":118962,"SoundDuration":118962,"Delta":17649604},{"NoteNumber":65,"Velocity":45,"Duration":118962,"SoundDuration":118962,"Delta":17887529},{"NoteNumber":71,"Velocity":54,"Duration":118962,"SoundDuration":118962,"Delta":17887529},{"NoteNumber":56,"Velocity":41,"Duration":118962,"SoundDuration":118962,"Delta":17887529},{"NoteNumber":72,"Velocity":65,"Duration":118492,"SoundDuration":118492,"Delta":18126310},{"NoteNumber":64,"Velocity":55,"Duration":118492,"SoundDuration":118492,"Delta":18126310},{"NoteNumber":57,"Velocity":49,"Duration":118492,"SoundDuration":118492,"Delta":18126310},{"NoteNumber":64,"Velocity":45,"Duration":118492,"SoundDuration":118492,"Delta":18363295},{"NoteNumber":72,"Velocity":54,"Duration":118492,"SoundDuration":118492,"Delta":18363295},{"NoteNumber":67,"Velocity":58,"Duration":118492,"SoundDuration":118492,"Delta":18600281},{"NoteNumber":73,"Velocity":69,"Duration":118492,"SoundDuration":118492,"Delta":18600281},{"NoteNumber":52,"Velocity":50,"Duration":118492,"SoundDuration":118492,"Delta":18600281},{"NoteNumber":67,"Velocity":52,"Duration":118492,"SoundDuration":118492,"Delta":18837266},{"NoteNumber":73,"Velocity":63,"Duration":118492,"SoundDuration":118492,"Delta":18837266},{"NoteNumber":69,"Velocity":62,"Duration":118492,"SoundDuration":118492,"Delta":19081714},{"NoteNumber":74,"Velocity":74,"Duration":118492,"SoundDuration":118492,"Delta":19081714},{"NoteNumber":53,"Velocity":61,"Duration":118492,"SoundDuration":118492,"Delta":19081714},{"NoteNumber":74,"Velocity":66,"Duration":118492,"SoundDuration":118492,"Delta":19318700},{"NoteNumber":69,"Velocity":56,"Duration":118492,"SoundDuration":118492,"Delta":19318700},{"NoteNumber":53,"Velocity":46,"Duration":118492,"SoundDuration":118492,"Delta":19318700},{"NoteNumber":74,"Velocity":64,"Duration":118492,"SoundDuration":118492,"Delta":19555685},{"NoteNumber":77,"Velocity":76,"Duration":118492,"SoundDuration":118492,"Delta":19555685},{"NoteNumber":50,"Velocity":53,"Duration":118492,"SoundDuration":118492,"Delta":19555685},{"NoteNumber":77,"Velocity":70,"Duration":118492,"SoundDuration":118492,"Delta":19792671},{"NoteNumber":74,"Velocity":59,"Duration":118492,"SoundDuration":118492,"Delta":19792671},{"NoteNumber":50,"Velocity":49,"Duration":118492,"SoundDuration":118492,"Delta":19792671},{"NoteNumber":72,"Velocity":66,"Duration":118026,"SoundDuration":118026,"Delta":20038725},{"NoteNumber":76,"Velocity":78,"Duration":118026,"SoundDuration":118026,"Delta":20038725},{"NoteNumber":55,"Velocity":58,"Duration":118026,"SoundDuration":118026,"Delta":20038725},{"NoteNumber":72,"Velocity":58,"Duration":118026,"SoundDuration":118026,"Delta":20274778},{"NoteNumber":76,"Velocity":69,"Duration":118026,"SoundDuration":118026,"Delta":20274778},{"NoteNumber":55,"Velocity":50,"Duration":118026,"SoundDuration":118026,"Delta":20274778},{"NoteNumber":71,"Velocity":66,"Duration":118026,"SoundDuration":118026,"Delta":20510831},{"NoteNumber":74,"Velocity":78,"Duration":118026,"SoundDuration":118026,"Delta":20510831},{"NoteNumber":43,"Velocity":56,"Duration":118026,"SoundDuration":118026,"Delta":20510831},{"NoteNumber":71,"Velocity":58,"Duration":118026,"SoundDuration":118026,"Delta":20746884},{"NoteNumber":74,"Velocity":69,"Duration":118026,"SoundDuration":118026,"Delta":20746884},{"NoteNumber":43,"Velocity":50,"Duration":118026,"SoundDuration":118026,"Delta":20746884},{"NoteNumber":72,"Velocity":86,"Duration":249812,"SoundDuration":249812,"Delta":20999937},{"NoteNumber":48,"Velocity":56,"Duration":249812,"SoundDuration":249812,"Delta":20999937},{"NoteNumber":84,"Velocity":82,"Duration":249812,"SoundDuration":249812,"Delta":21499562},{"NoteNumber":76,"Velocity":69,"Duration":249812,"SoundDuration":249812,"Delta":21499562},{"NoteNumber":79,"Velocity":69,"Duration":249812,"SoundDuration":249812,"Delta":21499562},{"NoteNumber":36,"Velocity":41,"Duration":249812,"SoundDuration":249812,"Delta":21499562},{"NoteNumber":48,"Velocity":49,"Duration":249812,"SoundDuration":249812,"Delta":21499562},{"NoteNumber":76,"Velocity":68,"Duration":249812,"SoundDuration":249812,"Delta":21999187},{"NoteNumber":79,"Velocity":68,"Duration":249812,"SoundDuration":249812,"Delta":21999187},{"NoteNumber":84,"Velocity":80,"Duration":249812,"SoundDuration":249812,"Delta":21999187},{"NoteNumber":36,"Velocity":41,"Duration":249812,"SoundDuration":249812,"Delta":21999187},{"NoteNumber":48,"Velocity":49,"Duration":249812,"SoundDuration":249812,"Delta":21999187},{"NoteNumber":79,"Velocity":58,"Duration":478337,"SoundDuration":478337,"Delta":22998437},{"NoteNumber":55,"Velocity":40,"Duration":234210,"SoundDuration":234210,"Delta":22998437},{"NoteNumber":59,"Velocity":31,"Duration":244127,"SoundDuration":244127,"Delta":23232647},{"NoteNumber":81,"Velocity":55,"Duration":117105,"SoundDuration":117105,"Delta":23476774},{"NoteNumber":62,"Velocity":39,"Duration":234210,"SoundDuration":234210,"Delta":23476774},{"NoteNumber":79,"Velocity":46,"Duration":117105,"SoundDuration":117105,"Delta":23593879},{"NoteNumber":78,"Velocity":50,"Duration":117105,"SoundDuration":117105,"Delta":23710985},{"NoteNumber":76,"Velocity":46,"Duration":117105,"SoundDuration":117105,"Delta":23828090},{"NoteNumber":74,"Velocity":57,"Duration":471454,"SoundDuration":471454,"Delta":23945195},{"NoteNumber":55,"Velocity":40,"Duration":232396,"SoundDuration":232396,"Delta":23945195},{"NoteNumber":59,"Velocity":30,"Duration":239058,"SoundDuration":239058,"Delta":24177591},{"NoteNumber":76,"Velocity":54,"Duration":116649,"SoundDuration":116649,"Delta":24416649},{"NoteNumber":62,"Velocity":36,"Duration":233299,"SoundDuration":233299,"Delta":24416649},{"NoteNumber":74,"Velocity":42,"Duration":116649,"SoundDuration":116649,"Delta":24533299},{"NoteNumber":72,"Velocity":53,"Duration":116649,"SoundDuration":116649,"Delta":24649949},{"NoteNumber":71,"Velocity":50,"Duration":119436,"SoundDuration":119436,"Delta":24766599},{"NoteNumber":69,"Velocity":55,"Duration":121369,"SoundDuration":121369,"Delta":24886035},{"NoteNumber":55,"Velocity":40,"Duration":237567,"SoundDuration":237567,"Delta":24886035},{"NoteNumber":71,"Velocity":42,"Duration":58099,"SoundDuration":58099,"Delta":25065503},{"NoteNumber":69,"Velocity":50,"Duration":116198,"SoundDuration":116198,"Delta":25123602},{"NoteNumber":60,"Velocity":32,"Duration":232395,"SoundDuration":232395,"Delta":25123602},{"NoteNumber":68,"Velocity":47,"Duration":116197,"SoundDuration":116197,"Delta":25239800},{"NoteNumber":69,"Velocity":50,"Duration":116198,"SoundDuration":116198,"Delta":25355998},{"NoteNumber":64,"Velocity":38,"Duration":232396,"SoundDuration":232396,"Delta":25355998},{"NoteNumber":71,"Velocity":46,"Duration":118492,"SoundDuration":118492,"Delta":25588394},{"NoteNumber":72,"Velocity":50,"Duration":238444,"SoundDuration":238444,"Delta":25830761},{"NoteNumber":55,"Velocity":40,"Duration":238444,"SoundDuration":238444,"Delta":25830761},{"NoteNumber":60,"Velocity":33,"Duration":232396,"SoundDuration":232396,"Delta":26069205},{"NoteNumber":64,"Velocity":36,"Duration":232395,"SoundDuration":232395,"Delta":26301601},{"NoteNumber":84,"Velocity":55,"Duration":116198,"SoundDuration":116198,"Delta":26533997},{"NoteNumber":83,"Velocity":49,"Duration":116198,"SoundDuration":116198,"Delta":26650195},{"NoteNumber":81,"Velocity":55,"Duration":113951,"SoundDuration":113951,"Delta":26766393},{"NoteNumber":54,"Velocity":40,"Duration":228268,"SoundDuration":228268,"Delta":26766393},{"NoteNumber":83,"Velocity":53,"Duration":114316,"SoundDuration":114316,"Delta":26880345},{"NoteNumber":81,"Velocity":55,"Duration":115072,"SoundDuration":115072,"Delta":26994662},{"NoteNumber":57,"Velocity":31,"Duration":230660,"SoundDuration":230660,"Delta":26994662},{"NoteNumber":83,"Velocity":54,"Duration":115587,"SoundDuration":115587,"Delta":27109735},{"NoteNumber":84,"Velocity":62,"Duration":113366,"SoundDuration":113366,"Delta":27225322},{"NoteNumber":62,"Velocity":39,"Duration":227770,"SoundDuration":227770,"Delta":27225322},{"NoteNumber":83,"Velocity":54,"Duration":114404,"SoundDuration":114404,"Delta":27338689},{"NoteNumber":81,"Velocity":55,"Duration":115460,"SoundDuration":115460,"Delta":27453093},{"NoteNumber":83,"Velocity":53,"Duration":122630,"SoundDuration":122630,"Delta":27568554},{"NoteNumber":84,"Velocity":62,"Duration":113559,"SoundDuration":113559,"Delta":27691184},{"NoteNumber":54,"Velocity":40,"Duration":227495,"SoundDuration":227495,"Delta":27691184},{"NoteNumber":83,"Velocity":55,"Duration":113936,"SoundDuration":113936,"Delta":27804743},{"NoteNumber":81,"Velocity":55,"Duration":114370,"SoundDuration":114370,"Delta":27918680},{"NoteNumber":57,"Velocity":30,"Duration":229179,"SoundDuration":229179,"Delta":27918680},{"NoteNumber":79,"Velocity":54,"Duration":114808,"SoundDuration":114808,"Delta":28033050},{"NoteNumber":78,"Velocity":61,"Duration":115249,"SoundDuration":115249,"Delta":28147859},{"NoteNumber":62,"Velocity":36,"Duration":230854,"SoundDuration":230854,"Delta":28147859},{"NoteNumber":76,"Velocity":55,"Duration":115605,"SoundDuration":115605,"Delta":28263109},{"NoteNumber":74,"Velocity":58,"Duration":116052,"SoundDuration":116052,"Delta":28378714},{"NoteNumber":72,"Velocity":54,"Duration":116502,"SoundDuration":116502,"Delta":28494766},{"NoteNumber":71,"Velocity":55,"Duration":241759,"SoundDuration":241759,"Delta":28611269},{"NoteNumber":55,"Velocity":40,"Duration":241759,"SoundDuration":241759,"Delta":28611269},{"NoteNumber":59,"Velocity":32,"Duration":234921,"SoundDuration":234921,"Delta":28853029},{"NoteNumber":62,"Velocity":38,"Duration":248326,"SoundDuration":248326,"Delta":29087950},{"NoteNumber":67,"Velocity":47,"Duration":116888,"SoundDuration":116888,"Delta":29219388},{"NoteNumber":69,"Velocity":48,"Duration":116435,"SoundDuration":116435,"Delta":29336276},{"NoteNumber":71,"Velocity":50,"Duration":115895,"SoundDuration":115895,"Delta":29452712},{"NoteNumber":72,"Velocity":52,"Duration":115449,"SoundDuration":115449,"Delta":29568607},{"NoteNumber":74,"Velocity":52,"Duration":114918,"SoundDuration":114918,"Delta":29684056},{"NoteNumber":76,"Velocity":54,"Duration":114447,"SoundDuration":114447,"Delta":29798975},{"NoteNumber":78,"Velocity":55,"Duration":113699,"SoundDuration":113699,"Delta":29913422},{"NoteNumber":79,"Velocity":56,"Duration":113473,"SoundDuration":113473,"Delta":30027121},{"NoteNumber":81,"Velocity":55,"Duration":121458,"SoundDuration":121458,"Delta":30140595},{"NoteNumber":83,"Velocity":61,"Duration":122702,"SoundDuration":122702,"Delta":30262053},{"NoteNumber":81,"Velocity":57,"Duration":126641,"SoundDuration":126641,"Delta":30384755},{"NoteNumber":79,"Velocity":61,"Duration":230609,"SoundDuration":230609,"Delta":30511397},{"NoteNumber":52,"Velocity":40,"Duration":230609,"SoundDuration":230609,"Delta":30511397},{"NoteNumber":55,"Velocity":32,"Duration":230609,"SoundDuration":230609,"Delta":30742007},{"NoteNumber":59,"Velocity":38,"Duration":249540,"SoundDuration":249540,"Delta":30972616},{"NoteNumber":67,"Velocity":48,"Duration":118081,"SoundDuration":118081,"Delta":31104075},{"NoteNumber":69,"Velocity":49,"Duration":116689,"SoundDuration":116689,"Delta":31222157},{"NoteNumber":71,"Velocity":52,"Duration":115502,"SoundDuration":115502,"Delta":31338846},{"NoteNumber":72,"Velocity":53,"Duration":114129,"SoundDuration":114129,"Delta":31454348},{"NoteNumber":74,"Velocity":56,"Duration":113558,"SoundDuration":113558,"Delta":31568478},{"NoteNumber":76,"Velocity":56,"Duration":113558,"SoundDuration":113558,"Delta":31682037},{"NoteNumber":78,"Velocity":57,"Duration":113559,"SoundDuration":113559,"Delta":31795596},{"NoteNumber":79,"Velocity":58,"Duration":115753,"SoundDuration":115753,"Delta":31909155},{"NoteNumber":81,"Velocity":61,"Duration":118205,"SoundDuration":118205,"Delta":32024908},{"NoteNumber":83,"Velocity":64,"Duration":120702,"SoundDuration":120702,"Delta":32143114},{"NoteNumber":84,"Velocity":70,"Duration":123370,"SoundDuration":123370,"Delta":32263816},{"NoteNumber":86,"Velocity":77,"Duration":118026,"SoundDuration":118026,"Delta":32387187},{"NoteNumber":47,"Velocity":54,"Duration":236052,"SoundDuration":236052,"Delta":32387187},{"NoteNumber":86,"Velocity":70,"Duration":121369,"SoundDuration":121369,"Delta":32623240},{"NoteNumber":55,"Velocity":40,"Duration":242738,"SoundDuration":242738,"Delta":32623240},{"NoteNumber":84,"Velocity":70,"Duration":118026,"SoundDuration":118026,"Delta":32865978},{"NoteNumber":47,"Velocity":45,"Duration":236052,"SoundDuration":236052,"Delta":32865978},{"NoteNumber":83,"Velocity":63,"Duration":118026,"SoundDuration":118026,"Delta":32984004},{"NoteNumber":81,"Velocity":63,"Duration":118026,"SoundDuration":118026,"Delta":33102031},{"NoteNumber":55,"Velocity":40,"Duration":236052,"SoundDuration":236052,"Delta":33102031},{"NoteNumber":83,"Velocity":63,"Duration":118026,"SoundDuration":118026,"Delta":33220057},{"NoteNumber":79,"Velocity":70,"Duration":118026,"SoundDuration":118026,"Delta":33338084},{"NoteNumber":47,"Velocity":53,"Duration":236053,"SoundDuration":236053,"Delta":33338084},{"NoteNumber":79,"Velocity":63,"Duration":121369,"SoundDuration":121369,"Delta":33574137},{"NoteNumber":55,"Velocity":40,"Duration":242738,"SoundDuration":242738,"Delta":33574137},{"NoteNumber":75,"Velocity":70,"Duration":118026,"SoundDuration":118026,"Delta":33816875},{"NoteNumber":47,"Velocity":48,"Duration":236052,"SoundDuration":236052,"Delta":33816875},{"NoteNumber":75,"Velocity":59,"Duration":118026,"SoundDuration":118026,"Delta":34052928},{"NoteNumber":55,"Velocity":40,"Duration":236052,"SoundDuration":236052,"Delta":34052928},{"NoteNumber":76,"Velocity":68,"Duration":117564,"SoundDuration":117564,"Delta":34288981},{"NoteNumber":48,"Velocity":54,"Duration":235128,"SoundDuration":235128,"Delta":34288981},{"NoteNumber":76,"Velocity":62,"Duration":117563,"SoundDuration":117563,"Delta":34524109},{"NoteNumber":55,"Velocity":40,"Duration":235127,"SoundDuration":235127,"Delta":34524109},{"NoteNumber":74,"Velocity":64,"Duration":117564,"SoundDuration":117564,"Delta":34759237},{"NoteNumber":48,"Velocity":45,"Duration":235128,"SoundDuration":235128,"Delta":34759237},{"NoteNumber":72,"Velocity":57,"Duration":117564,"SoundDuration":117564,"Delta":34876801},{"NoteNumber":71,"Velocity":57,"Duration":117563,"SoundDuration":117563,"Delta":34994365},{"NoteNumber":55,"Velocity":40,"Duration":235127,"SoundDuration":235127,"Delta":34994365},{"NoteNumber":72,"Velocity":58,"Duration":117564,"SoundDuration":117564,"Delta":35111929},{"NoteNumber":69,"Velocity":65,"Duration":117564,"SoundDuration":117564,"Delta":35229493},{"NoteNumber":48,"Velocity":53,"Duration":235128,"SoundDuration":235128,"Delta":35229493},{"NoteNumber":69,"Velocity":54,"Duration":120879,"SoundDuration":120879,"Delta":35464621},{"NoteNumber":55,"Velocity":40,"Duration":241759,"SoundDuration":241759,"Delta":35464621},{"NoteNumber":64,"Velocity":57,"Duration":117105,"SoundDuration":117105,"Delta":35706381},{"NoteNumber":48,"Velocity":48,"Duration":234210,"SoundDuration":234210,"Delta":35706381},{"NoteNumber":64,"Velocity":52,"Duration":117105,"SoundDuration":117105,"Delta":35940591},{"NoteNumber":55,"Velocity":40,"Duration":234210,"SoundDuration":234210,"Delta":35940591},{"NoteNumber":62,"Velocity":63,"Duration":117105,"SoundDuration":117105,"Delta":36174802},{"NoteNumber":50,"Velocity":54,"Duration":234210,"SoundDuration":234210,"Delta":36174802},{"NoteNumber":62,"Velocity":58,"Duration":117105,"SoundDuration":117105,"Delta":36409012},{"NoteNumber":55,"Velocity":40,"Duration":234210,"SoundDuration":234210,"Delta":36409012},{"NoteNumber":74,"Velocity":63,"Duration":117105,"SoundDuration":117105,"Delta":36643223},{"NoteNumber":50,"Velocity":45,"Duration":234210,"SoundDuration":234210,"Delta":36643223},{"NoteNumber":71,"Velocity":56,"Duration":117105,"SoundDuration":117105,"Delta":36760328},{"NoteNumber":69,"Velocity":58,"Duration":122359,"SoundDuration":122359,"Delta":36877433},{"NoteNumber":55,"Velocity":40,"Duration":244697,"SoundDuration":244697,"Delta":36877433},{"NoteNumber":67,"Velocity":56,"Duration":122338,"SoundDuration":122338,"Delta":36999792},{"NoteNumber":69,"Velocity":47,"Duration":81138,"SoundDuration":81138,"Delta":37122130},{"NoteNumber":50,"Velocity":53,"Duration":241029,"SoundDuration":241029,"Delta":37122130},{"NoteNumber":71,"Velocity":43,"Duration":80365,"SoundDuration":80365,"Delta":37203269},{"NoteNumber":69,"Velocity":50,"Duration":79526,"SoundDuration":79526,"Delta":37283634},{"NoteNumber":71,"Velocity":46,"Duration":78685,"SoundDuration":78685,"Delta":37363160},{"NoteNumber":54,"Velocity":40,"Duration":234844,"SoundDuration":234844,"Delta":37363160},{"NoteNumber":69,"Velocity":54,"Duration":78089,"SoundDuration":78089,"Delta":37441845},{"NoteNumber":71,"Velocity":53,"Duration":78070,"SoundDuration":78070,"Delta":37519935},{"NoteNumber":69,"Velocity":57,"Duration":78070,"SoundDuration":78070,"Delta":37598005},{"NoteNumber":50,"Velocity":48,"Duration":234613,"SoundDuration":234613,"Delta":37598005},{"NoteNumber":71,"Velocity":53,"Duration":78070,"SoundDuration":78070,"Delta":37676075},{"NoteNumber":69,"Velocity":56,"Duration":78472,"SoundDuration":78472,"Delta":37754145},{"NoteNumber":71,"Velocity":51,"Duration":59403,"SoundDuration":59403,"Delta":37832618},{"NoteNumber":54,"Velocity":33,"Duration":240324,"SoundDuration":240324,"Delta":37832618},{"NoteNumber":69,"Velocity":56,"Duration":59877,"SoundDuration":59877,"Delta":37892021},{"NoteNumber":67,"Velocity":49,"Duration":60359,"SoundDuration":60359,"Delta":37951899},{"NoteNumber":69,"Velocity":49,"Duration":60684,"SoundDuration":60684,"Delta":38012258},{"NoteNumber":47,"Velocity":40,"Duration":253399,"SoundDuration":253399,"Delta":38072942},{"NoteNumber":86,"Velocity":54,"Duration":126699,"SoundDuration":126699,"Delta":38326342},{"NoteNumber":55,"Velocity":22,"Duration":244726,"SoundDuration":244726,"Delta":38326342},{"NoteNumber":47,"Velocity":26,"Duration":236052,"SoundDuration":236052,"Delta":38571069},{"NoteNumber":83,"Velocity":45,"Duration":118026,"SoundDuration":118026,"Delta":38807122},{"NoteNumber":55,"Velocity":21,"Duration":236053,"SoundDuration":236053,"Delta":38807122},{"NoteNumber":47,"Velocity":33,"Duration":237925,"SoundDuration":237925,"Delta":39043175},{"NoteNumber":79,"Velocity":57,"Duration":118962,"SoundDuration":118962,"Delta":39281100},{"NoteNumber":55,"Velocity":31,"Duration":237925,"SoundDuration":237925,"Delta":39281100},{"NoteNumber":47,"Velocity":39,"Duration":243724,"SoundDuration":243724,"Delta":39519026},{"NoteNumber":75,"Velocity":63,"Duration":130332,"SoundDuration":130332,"Delta":39762750},{"NoteNumber":55,"Velocity":35,"Duration":260665,"SoundDuration":260665,"Delta":39762750},{"NoteNumber":48,"Velocity":49,"Duration":237925,"SoundDuration":237925,"Delta":40023415},{"NoteNumber":76,"Velocity":56,"Duration":118962,"SoundDuration":118962,"Delta":40261341},{"NoteNumber":55,"Velocity":41,"Duration":237925,"SoundDuration":237925,"Delta":40261341},{"NoteNumber":75,"Velocity":50,"Duration":118962,"SoundDuration":118962,"Delta":40380304},{"NoteNumber":76,"Velocity":57,"Duration":119374,"SoundDuration":119374,"Delta":40499266},{"NoteNumber":48,"Velocity":49,"Duration":239201,"SoundDuration":239201,"Delta":40499266},{"NoteNumber":78,"Velocity":60,"Duration":119826,"SoundDuration":119826,"Delta":40618641},{"NoteNumber":79,"Velocity":61,"Duration":119349,"SoundDuration":119349,"Delta":40738468},{"NoteNumber":55,"Velocity":39,"Duration":238226,"SoundDuration":238226,"Delta":40738468},{"NoteNumber":78,"Velocity":55,"Duration":118876,"SoundDuration":118876,"Delta":40857817},{"NoteNumber":76,"Velocity":61,"Duration":118407,"SoundDuration":118407,"Delta":40976694},{"NoteNumber":48,"Velocity":49,"Duration":236433,"SoundDuration":236433,"Delta":40976694},{"NoteNumber":74,"Velocity":53,"Duration":118026,"SoundDuration":118026,"Delta":41095101},{"NoteNumber":72,"Velocity":56,"Duration":118345,"SoundDuration":118345,"Delta":41213127},{"NoteNumber":55,"Velocity":39,"Duration":237041,"SoundDuration":237041,"Delta":41213127},{"NoteNumber":71,"Velocity":51,"Duration":118696,"SoundDuration":118696,"Delta":41331472},{"NoteNumber":69,"Velocity":56,"Duration":119049,"SoundDuration":119049,"Delta":41450169},{"NoteNumber":48,"Velocity":49,"Duration":238485,"SoundDuration":238485,"Delta":41450169},{"NoteNumber":67,"Velocity":60,"Duration":119436,"SoundDuration":119436,"Delta":41569218},{"NoteNumber":66,"Velocity":63,"Duration":119881,"SoundDuration":119881,"Delta":41688655},{"NoteNumber":55,"Velocity":40,"Duration":247443,"SoundDuration":247443,"Delta":41688655},{"NoteNumber":64,"Velocity":65,"Duration":127561,"SoundDuration":127561,"Delta":41808537},{"NoteNumber":62,"Velocity":72,"Duration":121578,"SoundDuration":121578,"Delta":41936098},{"NoteNumber":50,"Velocity":49,"Duration":242735,"SoundDuration":242735,"Delta":41936098},{"NoteNumber":67,"Velocity":56,"Duration":121157,"SoundDuration":121157,"Delta":42057677},{"NoteNumber":71,"Velocity":56,"Duration":120339,"SoundDuration":120339,"Delta":42178834},{"NoteNumber":55,"Velocity":41,"Duration":239926,"SoundDuration":239926,"Delta":42178834},{"NoteNumber":74,"Velocity":56,"Duration":119587,"SoundDuration":119587,"Delta":42299173},{"NoteNumber":72,"Velocity":59,"Duration":118790,"SoundDuration":118790,"Delta":42418760},{"NoteNumber":50,"Velocity":49,"Duration":237283,"SoundDuration":237283,"Delta":42418760},{"NoteNumber":71,"Velocity":50,"Duration":118492,"SoundDuration":118492,"Delta":42537551},{"NoteNumber":69,"Velocity":50,"Duration":118492,"SoundDuration":118492,"Delta":42656044},{"NoteNumber":55,"Velocity":39,"Duration":236985,"SoundDuration":236985,"Delta":42656044},{"NoteNumber":67,"Velocity":50,"Duration":118492,"SoundDuration":118492,"Delta":42774536},{"NoteNumber":69,"Velocity":51,"Duration":81138,"SoundDuration":81138,"Delta":42893029},{"NoteNumber":50,"Velocity":53,"Duration":241029,"SoundDuration":241029,"Delta":42893029},{"NoteNumber":71,"Velocity":47,"Duration":80365,"SoundDuration":80365,"Delta":42974168},{"NoteNumber":69,"Velocity":55,"Duration":79526,"SoundDuration":79526,"Delta":43054533},{"NoteNumber":71,"Velocity":50,"Duration":78685,"SoundDuration":78685,"Delta":43134059},{"NoteNumber":54,"Velocity":40,"Duration":234844,"SoundDuration":234844,"Delta":43134059},{"NoteNumber":69,"Velocity":59,"Duration":78089,"SoundDuration":78089,"Delta":43212744},{"NoteNumber":71,"Velocity":58,"Duration":78070,"SoundDuration":78070,"Delta":43290833},{"NoteNumber":69,"Velocity":62,"Duration":78070,"SoundDuration":78070,"Delta":43368904},{"NoteNumber":50,"Velocity":48,"Duration":234613,"SoundDuration":234613,"Delta":43368904},{"NoteNumber":71,"Velocity":58,"Duration":78070,"SoundDuration":78070,"Delta":43446974},{"NoteNumber":69,"Velocity":61,"Duration":78472,"SoundDuration":78472,"Delta":43525044},{"NoteNumber":71,"Velocity":56,"Duration":59403,"SoundDuration":59403,"Delta":43603517},{"NoteNumber":54,"Velocity":33,"Duration":240324,"SoundDuration":240324,"Delta":43603517},{"NoteNumber":69,"Velocity":61,"Duration":59877,"SoundDuration":59877,"Delta":43662920},{"NoteNumber":67,"Velocity":53,"Duration":60359,"SoundDuration":60359,"Delta":43722798},{"NoteNumber":69,"Velocity":53,"Duration":60684,"SoundDuration":60684,"Delta":43783157},{"NoteNumber":67,"Velocity":68,"Duration":242737,"SoundDuration":242737,"Delta":43843841},{"NoteNumber":43,"Velocity":58,"Duration":121369,"SoundDuration":121369,"Delta":43843841},{"NoteNumber":55,"Velocity":55,"Duration":121369,"SoundDuration":121369,"Delta":44086579},{"NoteNumber":62,"Velocity":67,"Duration":121369,"SoundDuration":121369,"Delta":44343477},{"NoteNumber":62,"Velocity":62,"Duration":121368,"SoundDuration":121368,"Delta":44572055},{"NoteNumber":59,"Velocity":57,"Duration":115304,"SoundDuration":115304,"Delta":44814793},{"NoteNumber":67,"Velocity":68,"Duration":115304,"SoundDuration":115304,"Delta":44814793},{"NoteNumber":43,"Velocity":58,"Duration":115304,"SoundDuration":115304,"Delta":44814793},{"NoteNumber":55,"Velocity":52,"Duration":120879,"SoundDuration":120879,"Delta":45045403},{"NoteNumber":62,"Velocity":64,"Duration":120879,"SoundDuration":120879,"Delta":45287163},{"NoteNumber":62,"Velocity":68,"Duration":120879,"SoundDuration":120879,"Delta":45528923},{"NoteNumber":60,"Velocity":57,"Duration":115304,"SoundDuration":115304,"Delta":45770683},{"NoteNumber":69,"Velocity":68,"Duration":115304,"SoundDuration":115304,"Delta":45770683},{"NoteNumber":43,"Velocity":58,"Duration":115304,"SoundDuration":115304,"Delta":45770683},{"NoteNumber":55,"Velocity":52,"Duration":125638,"SoundDuration":125638,"Delta":46001292},{"NoteNumber":62,"Velocity":42,"Duration":120588,"SoundDuration":120588,"Delta":46252570},{"NoteNumber":62,"Velocity":33,"Duration":120588,"SoundDuration":120588,"Delta":46493747},{"NoteNumber":57,"Velocity":35,"Duration":115749,"SoundDuration":115749,"Delta":46734924},{"NoteNumber":66,"Velocity":42,"Duration":115749,"SoundDuration":115749,"Delta":46734924},{"NoteNumber":43,"Velocity":34,"Duration":115749,"SoundDuration":115749,"Delta":46734924},{"NoteNumber":55,"Velocity":26,"Duration":120395,"SoundDuration":120395,"Delta":46966423},{"NoteNumber":62,"Velocity":60,"Duration":125955,"SoundDuration":125955,"Delta":47207213},{"NoteNumber":62,"Velocity":69,"Duration":134420,"SoundDuration":134420,"Delta":47459124},{"NoteNumber":67,"Velocity":74,"Duration":518517,"SoundDuration":518517,"Delta":47727965},{"NoteNumber":59,"Velocity":62,"Duration":518517,"SoundDuration":518517,"Delta":47727965},{"NoteNumber":43,"Velocity":58,"Duration":258979,"SoundDuration":258979,"Delta":47727965},{"NoteNumber":55,"Velocity":48,"Duration":259537,"SoundDuration":259537,"Delta":47986944},{"NoteNumber":67,"Velocity":62,"Duration":636467,"SoundDuration":636467,"Delta":48246482},{"NoteNumber":59,"Velocity":52,"Duration":636467,"SoundDuration":636467,"Delta":48246482},{"NoteNumber":50,"Velocity":58,"Duration":299729,"SoundDuration":299729,"Delta":48246482},{"NoteNumber":47,"Velocity":49,"Duration":336737,"SoundDuration":336737,"Delta":48546212},{"NoteNumber":59,"Velocity":57,"Duration":618782,"SoundDuration":618782,"Delta":48882950},{"NoteNumber":67,"Velocity":68,"Duration":618782,"SoundDuration":618782,"Delta":48882950},{"NoteNumber":43,"Velocity":58,"Duration":618782,"SoundDuration":618782,"Delta":48882950},{"NoteNumber":79,"Velocity":70,"Duration":713776,"SoundDuration":713776,"Delta":50119716},{"NoteNumber":64,"Velocity":40,"Duration":237925,"SoundDuration":237925,"Delta":50119716},{"NoteNumber":60,"Velocity":32,"Duration":237925,"SoundDuration":237925,"Delta":50357642},{"NoteNumber":64,"Velocity":35,"Duration":237925,"SoundDuration":237925,"Delta":50595567},{"NoteNumber":76,"Velocity":65,"Duration":255123,"SoundDuration":255123,"Delta":50833493},{"NoteNumber":60,"Velocity":32,"Duration":255123,"SoundDuration":255123,"Delta":50833493},{"NoteNumber":72,"Velocity":70,"Duration":236052,"SoundDuration":236052,"Delta":51088616},{"NoteNumber":64,"Velocity":40,"Duration":236052,"SoundDuration":236052,"Delta":51088616},{"NoteNumber":67,"Velocity":65,"Duration":118026,"SoundDuration":118026,"Delta":51324669},{"NoteNumber":60,"Velocity":29,"Duration":236052,"SoundDuration":236052,"Delta":51324669},{"NoteNumber":67,"Velocity":65,"Duration":118026,"SoundDuration":118026,"Delta":51560722},{"NoteNumber":64,"Velocity":37,"Duration":236053,"SoundDuration":236053,"Delta":51560722},{"NoteNumber":67,"Velocity":65,"Duration":127021,"SoundDuration":127021,"Delta":51796775},{"NoteNumber":60,"Velocity":32,"Duration":254043,"SoundDuration":254043,"Delta":51796775},{"NoteNumber":79,"Velocity":70,"Duration":708159,"SoundDuration":708159,"Delta":52050819},{"NoteNumber":64,"Velocity":40,"Duration":236052,"SoundDuration":236052,"Delta":52050819},{"NoteNumber":60,"Velocity":32,"Duration":236052,"SoundDuration":236052,"Delta":52286872},{"NoteNumber":64,"Velocity":35,"Duration":236053,"SoundDuration":236053,"Delta":52522925},{"NoteNumber":76,"Velocity":59,"Duration":244941,"SoundDuration":244941,"Delta":52758978},{"NoteNumber":60,"Velocity":32,"Duration":244941,"SoundDuration":244941,"Delta":52758978},{"NoteNumber":72,"Velocity":63,"Duration":118774,"SoundDuration":118774,"Delta":53003919},{"NoteNumber":64,"Velocity":40,"Duration":236801,"SoundDuration":236801,"Delta":53003919},{"NoteNumber":74,"Velocity":61,"Duration":118027,"SoundDuration":118027,"Delta":53122693},{"NoteNumber":76,"Velocity":62,"Duration":117288,"SoundDuration":117288,"Delta":53240721},{"NoteNumber":60,"Velocity":29,"Duration":234120,"SoundDuration":234120,"Delta":53240721},{"NoteNumber":77,"Velocity":63,"Duration":116831,"SoundDuration":116831,"Delta":53358009},{"NoteNumber":79,"Velocity":64,"Duration":117841,"SoundDuration":117841,"Delta":53474841},{"NoteNumber":64,"Velocity":37,"Duration":236710,"SoundDuration":236710,"Delta":53474841},{"NoteNumber":81,"Velocity":65,"Duration":118869,"SoundDuration":118869,"Delta":53592683},{"NoteNumber":83,"Velocity":67,"Duration":119818,"SoundDuration":119818,"Delta":53711552},{"NoteNumber":60,"Velocity":32,"Duration":240797,"SoundDuration":240797,"Delta":53711552},{"NoteNumber":84,"Velocity":70,"Duration":120978,"SoundDuration":120978,"Delta":53831371},{"NoteNumber":83,"Velocity":76,"Duration":235128,"SoundDuration":235128,"Delta":53952350},{"NoteNumber":65,"Velocity":40,"Duration":235128,"SoundDuration":235128,"Delta":53952350},{"NoteNumber":81,"Velocity":65,"Duration":117563,"SoundDuration":117563,"Delta":54187478},{"NoteNumber":60,"Velocity":32,"Duration":235127,"SoundDuration":235127,"Delta":54187478},{"NoteNumber":81,"Velocity":70,"Duration":117564,"SoundDuration":117564,"Delta":54422606},{"NoteNumber":65,"Velocity":35,"Duration":235128,"SoundDuration":235128,"Delta":54422606},{"NoteNumber":81,"Velocity":68,"Duration":122359,"SoundDuration":122359,"Delta":54657734},{"NoteNumber":60,"Velocity":32,"Duration":244717,"SoundDuration":244717,"Delta":54657734},{"NoteNumber":83,"Velocity":70,"Duration":117105,"SoundDuration":117105,"Delta":54902452},{"NoteNumber":65,"Velocity":40,"Duration":234210,"SoundDuration":234210,"Delta":54902452},{"NoteNumber":81,"Velocity":64,"Duration":117105,"SoundDuration":117105,"Delta":55019557},{"NoteNumber":80,"Velocity":70,"Duration":117105,"SoundDuration":117105,"Delta":55136662},{"NoteNumber":60,"Velocity":29,"Duration":234210,"SoundDuration":234210,"Delta":55136662},{"NoteNumber":81,"Velocity":65,"Duration":117105,"SoundDuration":117105,"Delta":55253768},{"NoteNumber":84,"Velocity":70,"Duration":175657,"SoundDuration":175657,"Delta":55370873},{"NoteNumber":65,"Velocity":37,"Duration":234210,"SoundDuration":234210,"Delta":55370873},{"NoteNumber":81,"Velocity":63,"Duration":189729,"SoundDuration":189729,"Delta":55605083},{"NoteNumber":60,"Velocity":32,"Duration":252972,"SoundDuration":252972,"Delta":55605083},{"NoteNumber":78,"Velocity":73,"Duration":240789,"SoundDuration":240789,"Delta":55858056},{"NoteNumber":64,"Velocity":40,"Duration":240789,"SoundDuration":240789,"Delta":55858056},{"NoteNumber":79,"Velocity":65,"Duration":120395,"SoundDuration":120395,"Delta":56098846},{"NoteNumber":60,"Velocity":32,"Duration":240790,"SoundDuration":240790,"Delta":56098846},{"NoteNumber":79,"Velocity":70,"Duration":120395,"SoundDuration":120395,"Delta":56339636},{"NoteNumber":64,"Velocity":35,"Duration":240789,"SoundDuration":240789,"Delta":56339636},{"NoteNumber":79,"Velocity":64,"Duration":120395,"SoundDuration":120395,"Delta":56580426},{"NoteNumber":60,"Velocity":32,"Duration":240790,"SoundDuration":240790,"Delta":56580426},{"NoteNumber":79,"Velocity":71,"Duration":469425,"SoundDuration":469425,"Delta":56821216},{"NoteNumber":64,"Velocity":38,"Duration":237925,"SoundDuration":237925,"Delta":56821216},{"NoteNumber":60,"Velocity":29,"Duration":231499,"SoundDuration":231499,"Delta":57059141},{"NoteNumber":64,"Velocity":37,"Duration":231499,"SoundDuration":231499,"Delta":57290641},{"NoteNumber":60,"Velocity":30,"Duration":243724,"SoundDuration":243724,"Delta":57522140},{"NoteNumber":74,"Velocity":42,"Duration":117105,"SoundDuration":117105,"Delta":57765864},{"NoteNumber":77,"Velocity":50,"Duration":117105,"SoundDuration":117105,"Delta":57765864},{"NoteNumber":67,"Velocity":35,"Duration":468420,"SoundDuration":468420,"Delta":57765864},{"NoteNumber":77,"Velocity":46,"Duration":117105,"SoundDuration":117105,"Delta":58000075},{"NoteNumber":74,"Velocity":39,"Duration":117105,"SoundDuration":117105,"Delta":58000075},{"NoteNumber":72,"Velocity":42,"Duration":118962,"SoundDuration":118962,"Delta":58234285},{"NoteNumber":76,"Velocity":50,"Duration":118962,"SoundDuration":118962,"Delta":58234285},{"NoteNumber":76,"Velocity":41,"Duration":123874,"SoundDuration":123874,"Delta":58472211},{"NoteNumber":72,"Velocity":34,"Duration":123874,"SoundDuration":123874,"Delta":58472211},{"NoteNumber":71,"Velocity":42,"Duration":470255,"SoundDuration":470255,"Delta":58719960},{"NoteNumber":74,"Velocity":50,"Duration":470255,"SoundDuration":470255,"Delta":58719960},{"NoteNumber":67,"Velocity":45,"Duration":117564,"SoundDuration":117564,"Delta":58719960},{"NoteNumber":67,"Velocity":40,"Duration":117563,"SoundDuration":117563,"Delta":58955088},{"NoteNumber":65,"Velocity":45,"Duration":118962,"SoundDuration":118962,"Delta":59190216},{"NoteNumber":65,"Velocity":38,"Duration":122860,"SoundDuration":122860,"Delta":59428142},{"NoteNumber":76,"Velocity":42,"Duration":117105,"SoundDuration":117105,"Delta":59673862},{"NoteNumber":79,"Velocity":50,"Duration":117105,"SoundDuration":117105,"Delta":59673862},{"NoteNumber":64,"Velocity":35,"Duration":468420,"SoundDuration":468420,"Delta":59673862},{"NoteNumber":79,"Velocity":46,"Duration":117105,"SoundDuration":117105,"Delta":59908073},{"NoteNumber":76,"Velocity":39,"Duration":117105,"SoundDuration":117105,"Delta":59908073},{"NoteNumber":74,"Velocity":42,"Duration":118962,"SoundDuration":118962,"Delta":60142283},{"NoteNumber":77,"Velocity":50,"Duration":118962,"SoundDuration":118962,"Delta":60142283},{"NoteNumber":77,"Velocity":41,"Duration":123874,"SoundDuration":123874,"Delta":60380209},{"NoteNumber":74,"Velocity":34,"Duration":123874,"SoundDuration":123874,"Delta":60380209},{"NoteNumber":72,"Velocity":42,"Duration":470255,"SoundDuration":470255,"Delta":60627958},{"NoteNumber":76,"Velocity":50,"Duration":470255,"SoundDuration":470255,"Delta":60627958},{"NoteNumber":69,"Velocity":45,"Duration":117564,"SoundDuration":117564,"Delta":60627958},{"NoteNumber":69,"Velocity":40,"Duration":117563,"SoundDuration":117563,"Delta":60863086},{"NoteNumber":67,"Velocity":45,"Duration":118962,"SoundDuration":118962,"Delta":61098214},{"NoteNumber":67,"Velocity":38,"Duration":122860,"SoundDuration":122860,"Delta":61336140},{"NoteNumber":81,"Velocity":58,"Duration":115749,"SoundDuration":115749,"Delta":61581860},{"NoteNumber":65,"Velocity":45,"Duration":115749,"SoundDuration":115749,"Delta":61581860},{"NoteNumber":77,"Velocity":43,"Duration":115749,"SoundDuration":115749,"Delta":61697610},{"NoteNumber":76,"Velocity":43,"Duration":115749,"SoundDuration":115749,"Delta":61813360},{"NoteNumber":74,"Velocity":43,"Duration":115749,"SoundDuration":115749,"Delta":61929110},{"NoteNumber":81,"Velocity":50,"Duration":115749,"SoundDuration":115749,"Delta":62044859},{"NoteNumber":77,"Velocity":43,"Duration":115749,"SoundDuration":115749,"Delta":62160609},{"NoteNumber":76,"Velocity":43,"Duration":115749,"SoundDuration":115749,"Delta":62276359},{"NoteNumber":65,"Velocity":39,"Duration":115749,"SoundDuration":115749,"Delta":62276359},{"NoteNumber":74,"Velocity":43,"Duration":128106,"SoundDuration":128106,"Delta":62392109},{"NoteNumber":76,"Velocity":58,"Duration":121369,"SoundDuration":121369,"Delta":62520215},{"NoteNumber":67,"Velocity":45,"Duration":121369,"SoundDuration":121369,"Delta":62520215},{"NoteNumber":79,"Velocity":42,"Duration":118026,"SoundDuration":118026,"Delta":62641584},{"NoteNumber":76,"Velocity":42,"Duration":118026,"SoundDuration":118026,"Delta":62759611},{"NoteNumber":72,"Velocity":42,"Duration":118026,"SoundDuration":118026,"Delta":62877637},{"NoteNumber":74,"Velocity":54,"Duration":118026,"SoundDuration":118026,"Delta":62995664},{"NoteNumber":55,"Velocity":40,"Duration":118026,"SoundDuration":118026,"Delta":62995664},{"NoteNumber":77,"Velocity":45,"Duration":118026,"SoundDuration":118026,"Delta":63113690},{"NoteNumber":74,"Velocity":45,"Duration":118026,"SoundDuration":118026,"Delta":63231717},{"NoteNumber":71,"Velocity":45,"Duration":131475,"SoundDuration":131475,"Delta":63349743},{"NoteNumber":72,"Velocity":50,"Duration":117105,"SoundDuration":117105,"Delta":63481218},{"NoteNumber":60,"Velocity":35,"Duration":117105,"SoundDuration":117105,"Delta":63481218},{"NoteNumber":72,"Velocity":46,"Duration":117105,"SoundDuration":117105,"Delta":63715429},{"NoteNumber":71,"Velocity":42,"Duration":118962,"SoundDuration":118962,"Delta":63949639},{"NoteNumber":74,"Velocity":50,"Duration":118962,"SoundDuration":118962,"Delta":63949639},{"NoteNumber":55,"Velocity":39,"Duration":118962,"SoundDuration":118962,"Delta":63949639},{"NoteNumber":74,"Velocity":41,"Duration":123874,"SoundDuration":123874,"Delta":64187565},{"NoteNumber":71,"Velocity":34,"Duration":123874,"SoundDuration":123874,"Delta":64187565},{"NoteNumber":72,"Velocity":42,"Duration":235128,"SoundDuration":235128,"Delta":64435314},{"NoteNumber":76,"Velocity":50,"Duration":235128,"SoundDuration":235128,"Delta":64435314},{"NoteNumber":60,"Velocity":45,"Duration":235128,"SoundDuration":235128,"Delta":64435314},{"NoteNumber":55,"Velocity":40,"Duration":235128,"SoundDuration":235128,"Delta":64670442},{"NoteNumber":52,"Velocity":45,"Duration":237925,"SoundDuration":237925,"Delta":64905570},{"NoteNumber":48,"Velocity":38,"Duration":245720,"SoundDuration":245720,"Delta":65143496},{"NoteNumber":62,"Velocity":46,"Duration":117105,"SoundDuration":117105,"Delta":65389216},{"NoteNumber":65,"Velocity":55,"Duration":117105,"SoundDuration":117105,"Delta":65389216},{"NoteNumber":55,"Velocity":38,"Duration":468421,"SoundDuration":468421,"Delta":65389216},{"NoteNumber":65,"Velocity":50,"Duration":117105,"SoundDuration":117105,"Delta":65623427},{"NoteNumber":62,"Velocity":42,"Duration":117105,"SoundDuration":117105,"Delta":65623427},{"NoteNumber":60,"Velocity":46,"Duration":118962,"SoundDuration":118962,"Delta":65857637},{"NoteNumber":64,"Velocity":55,"Duration":118962,"SoundDuration":118962,"Delta":65857637},{"NoteNumber":64,"Velocity":45,"Duration":123874,"SoundDuration":123874,"Delta":66095563},{"NoteNumber":60,"Velocity":37,"Duration":123874,"SoundDuration":123874,"Delta":66095563},{"NoteNumber":59,"Velocity":46,"Duration":470256,"SoundDuration":470256,"Delta":66343312},{"NoteNumber":62,"Velocity":55,"Duration":470256,"SoundDuration":470256,"Delta":66343312},{"NoteNumber":55,"Velocity":49,"Duration":117564,"SoundDuration":117564,"Delta":66343312},{"NoteNumber":55,"Velocity":44,"Duration":117564,"SoundDuration":117564,"Delta":66578440},{"NoteNumber":53,"Velocity":49,"Duration":118962,"SoundDuration":118962,"Delta":66813568},{"NoteNumber":53,"Velocity":41,"Duration":122860,"SoundDuration":122860,"Delta":67051494},{"NoteNumber":67,"Velocity":61,"Duration":118026,"SoundDuration":118026,"Delta":67297214},{"NoteNumber":64,"Velocity":51,"Duration":118026,"SoundDuration":118026,"Delta":67297214},{"NoteNumber":52,"Velocity":49,"Duration":118026,"SoundDuration":118026,"Delta":67297214},{"NoteNumber":64,"Velocity":45,"Duration":118026,"SoundDuration":118026,"Delta":67533267},{"NoteNumber":67,"Velocity":54,"Duration":118026,"SoundDuration":118026,"Delta":67533267},{"NoteNumber":71,"Velocity":62,"Duration":118962,"SoundDuration":118962,"Delta":67769320},{"NoteNumber":65,"Velocity":52,"Duration":118962,"SoundDuration":118962,"Delta":67769320},{"NoteNumber":65,"Velocity":45,"Duration":118962,"SoundDuration":118962,"Delta":68007246},{"NoteNumber":71,"Velocity":54,"Duration":118962,"SoundDuration":118962,"Delta":68007246},{"NoteNumber":56,"Velocity":41,"Duration":118962,"SoundDuration":118962,"Delta":68007246},{"NoteNumber":72,"Velocity":65,"Duration":118492,"SoundDuration":118492,"Delta":68241425},{"NoteNumber":64,"Velocity":55,"Duration":118492,"SoundDuration":118492,"Delta":68241425},{"NoteNumber":57,"Velocity":49,"Duration":118492,"SoundDuration":118492,"Delta":68241425},{"NoteNumber":64,"Velocity":45,"Duration":118492,"SoundDuration":118492,"Delta":68478410},{"NoteNumber":72,"Velocity":54,"Duration":118492,"SoundDuration":118492,"Delta":68478410},{"NoteNumber":67,"Velocity":58,"Duration":118492,"SoundDuration":118492,"Delta":68715396},{"NoteNumber":73,"Velocity":69,"Duration":118492,"SoundDuration":118492,"Delta":68715396},{"NoteNumber":52,"Velocity":50,"Duration":118492,"SoundDuration":118492,"Delta":68715396},{"NoteNumber":67,"Velocity":52,"Duration":118492,"SoundDuration":118492,"Delta":68952381},{"NoteNumber":73,"Velocity":63,"Duration":118492,"SoundDuration":118492,"Delta":68952381},{"NoteNumber":69,"Velocity":62,"Duration":118492,"SoundDuration":118492,"Delta":69196829},{"NoteNumber":74,"Velocity":74,"Duration":118492,"SoundDuration":118492,"Delta":69196829},{"NoteNumber":53,"Velocity":61,"Duration":118492,"SoundDuration":118492,"Delta":69196829},{"NoteNumber":74,"Velocity":66,"Duration":118492,"SoundDuration":118492,"Delta":69433815},{"NoteNumber":69,"Velocity":56,"Duration":118492,"SoundDuration":118492,"Delta":69433815},{"NoteNumber":53,"Velocity":46,"Duration":118492,"SoundDuration":118492,"Delta":69433815},{"NoteNumber":74,"Velocity":64,"Duration":118492,"SoundDuration":118492,"Delta":69670800},{"NoteNumber":77,"Velocity":76,"Duration":118492,"SoundDuration":118492,"Delta":69670800},{"NoteNumber":50,"Velocity":53,"Duration":118492,"SoundDuration":118492,"Delta":69670800},{"NoteNumber":77,"Velocity":70,"Duration":118492,"SoundDuration":118492,"Delta":69907786},{"NoteNumber":74,"Velocity":59,"Duration":118492,"SoundDuration":118492,"Delta":69907786},{"NoteNumber":50,"Velocity":49,"Duration":118492,"SoundDuration":118492,"Delta":69907786},{"NoteNumber":72,"Velocity":66,"Duration":118026,"SoundDuration":118026,"Delta":70153840},{"NoteNumber":76,"Velocity":78,"Duration":118026,"SoundDuration":118026,"Delta":70153840},{"NoteNumber":55,"Velocity":58,"Duration":118026,"SoundDuration":118026,"Delta":70153840},{"NoteNumber":72,"Velocity":58,"Duration":118026,"SoundDuration":118026,"Delta":70389893},{"NoteNumber":76,"Velocity":69,"Duration":118026,"SoundDuration":118026,"Delta":70389893},{"NoteNumber":55,"Velocity":50,"Duration":118026,"SoundDuration":118026,"Delta":70389893},{"NoteNumber":71,"Velocity":66,"Duration":118026,"SoundDuration":118026,"Delta":70625946},{"NoteNumber":74,"Velocity":78,"Duration":118026,"SoundDuration":118026,"Delta":70625946},{"NoteNumber":43,"Velocity":56,"Duration":118026,"SoundDuration":118026,"Delta":70625946},{"NoteNumber":71,"Velocity":58,"Duration":118026,"SoundDuration":118026,"Delta":70861999},{"NoteNumber":74,"Velocity":69,"Duration":118026,"SoundDuration":118026,"Delta":70861999},{"NoteNumber":43,"Velocity":50,"Duration":118026,"SoundDuration":118026,"Delta":70861999},{"NoteNumber":72,"Velocity":86,"Duration":249812,"SoundDuration":249812,"Delta":71115052},{"NoteNumber":48,"Velocity":56,"Duration":249812,"SoundDuration":249812,"Delta":71115052},{"NoteNumber":84,"Velocity":82,"Duration":249812,"SoundDuration":249812,"Delta":71614677},{"NoteNumber":76,"Velocity":69,"Duration":249812,"SoundDuration":249812,"Delta":71614677},{"NoteNumber":79,"Velocity":69,"Duration":249812,"SoundDuration":249812,"Delta":71614677},{"NoteNumber":36,"Velocity":41,"Duration":249812,"SoundDuration":249812,"Delta":71614677},{"NoteNumber":48,"Velocity":49,"Duration":249812,"SoundDuration":249812,"Delta":71614677},{"NoteNumber":76,"Velocity":68,"Duration":249812,"SoundDuration":249812,"Delta":72114302},{"NoteNumber":79,"Velocity":68,"Duration":249812,"SoundDuration":249812,"Delta":72114302},{"NoteNumber":84,"Velocity":80,"Duration":249812,"SoundDuration":249812,"Delta":72114302},{"NoteNumber":36,"Velocity":41,"Duration":249812,"SoundDuration":249812,"Delta":72114302},{"NoteNumber":48,"Velocity":49,"Duration":249812,"SoundDuration":249812,"Delta":72114302},{"NoteNumber":79,"Velocity":58,"Duration":478337,"SoundDuration":478337,"Delta":73113552},{"NoteNumber":55,"Velocity":40,"Duration":234210,"SoundDuration":234210,"Delta":73113552},{"NoteNumber":59,"Velocity":31,"Duration":244126,"SoundDuration":244126,"Delta":73347762},{"NoteNumber":81,"Velocity":55,"Duration":117105,"SoundDuration":117105,"Delta":73591889},{"NoteNumber":62,"Velocity":39,"Duration":234210,"SoundDuration":234210,"Delta":73591889},{"NoteNumber":79,"Velocity":46,"Duration":117105,"SoundDuration":117105,"Delta":73708994},{"NoteNumber":78,"Velocity":50,"Duration":117105,"SoundDuration":117105,"Delta":73826100},{"NoteNumber":76,"Velocity":46,"Duration":117105,"SoundDuration":117105,"Delta":73943205},{"NoteNumber":74,"Velocity":57,"Duration":471454,"SoundDuration":471454,"Delta":74060310},{"NoteNumber":55,"Velocity":40,"Duration":232395,"SoundDuration":232395,"Delta":74060310},{"NoteNumber":59,"Velocity":30,"Duration":239058,"SoundDuration":239058,"Delta":74292706},{"NoteNumber":76,"Velocity":54,"Duration":116649,"SoundDuration":116649,"Delta":74531764},{"NoteNumber":62,"Velocity":36,"Duration":233299,"SoundDuration":233299,"Delta":74531764},{"NoteNumber":74,"Velocity":42,"Duration":116649,"SoundDuration":116649,"Delta":74648414},{"NoteNumber":72,"Velocity":53,"Duration":116649,"SoundDuration":116649,"Delta":74765064},{"NoteNumber":71,"Velocity":50,"Duration":119436,"SoundDuration":119436,"Delta":74881714},{"NoteNumber":69,"Velocity":55,"Duration":121369,"SoundDuration":121369,"Delta":75001150},{"NoteNumber":55,"Velocity":40,"Duration":237566,"SoundDuration":237566,"Delta":75001150},{"NoteNumber":71,"Velocity":42,"Duration":58098,"SoundDuration":58098,"Delta":75180618},{"NoteNumber":69,"Velocity":50,"Duration":116197,"SoundDuration":116197,"Delta":75238717},{"NoteNumber":60,"Velocity":32,"Duration":232396,"SoundDuration":232396,"Delta":75238717},{"NoteNumber":68,"Velocity":47,"Duration":116198,"SoundDuration":116198,"Delta":75354915},{"NoteNumber":69,"Velocity":50,"Duration":116197,"SoundDuration":116197,"Delta":75471113},{"NoteNumber":64,"Velocity":38,"Duration":232395,"SoundDuration":232395,"Delta":75471113},{"NoteNumber":71,"Velocity":46,"Duration":118492,"SoundDuration":118492,"Delta":75703509},{"NoteNumber":72,"Velocity":50,"Duration":238444,"SoundDuration":238444,"Delta":75945876},{"NoteNumber":55,"Velocity":40,"Duration":238444,"SoundDuration":238444,"Delta":75945876},{"NoteNumber":60,"Velocity":33,"Duration":232395,"SoundDuration":232395,"Delta":76184320},{"NoteNumber":64,"Velocity":36,"Duration":232396,"SoundDuration":232396,"Delta":76416716},{"NoteNumber":84,"Velocity":55,"Duration":116197,"SoundDuration":116197,"Delta":76649112},{"NoteNumber":83,"Velocity":49,"Duration":116197,"SoundDuration":116197,"Delta":76765310},{"NoteNumber":81,"Velocity":55,"Duration":113951,"SoundDuration":113951,"Delta":76881508},{"NoteNumber":54,"Velocity":40,"Duration":228268,"SoundDuration":228268,"Delta":76881508},{"NoteNumber":83,"Velocity":53,"Duration":114316,"SoundDuration":114316,"Delta":76995460},{"NoteNumber":81,"Velocity":55,"Duration":115072,"SoundDuration":115072,"Delta":77109777},{"NoteNumber":57,"Velocity":31,"Duration":230660,"SoundDuration":230660,"Delta":77109777},{"NoteNumber":83,"Velocity":54,"Duration":115587,"SoundDuration":115587,"Delta":77224850},{"NoteNumber":84,"Velocity":62,"Duration":113366,"SoundDuration":113366,"Delta":77340437},{"NoteNumber":62,"Velocity":39,"Duration":227770,"SoundDuration":227770,"Delta":77340437},{"NoteNumber":83,"Velocity":54,"Duration":114404,"SoundDuration":114404,"Delta":77453804},{"NoteNumber":81,"Velocity":55,"Duration":115460,"SoundDuration":115460,"Delta":77568208},{"NoteNumber":83,"Velocity":53,"Duration":122630,"SoundDuration":122630,"Delta":77683669},{"NoteNumber":84,"Velocity":62,"Duration":113559,"SoundDuration":113559,"Delta":77806299},{"NoteNumber":54,"Velocity":40,"Duration":227495,"SoundDuration":227495,"Delta":77806299},{"NoteNumber":83,"Velocity":55,"Duration":113936,"SoundDuration":113936,"Delta":77919858},{"NoteNumber":81,"Velocity":55,"Duration":114370,"SoundDuration":114370,"Delta":78033794},{"NoteNumber":57,"Velocity":30,"Duration":229179,"SoundDuration":229179,"Delta":78033794},{"NoteNumber":79,"Velocity":54,"Duration":114808,"SoundDuration":114808,"Delta":78148165},{"NoteNumber":78,"Velocity":61,"Duration":115249,"SoundDuration":115249,"Delta":78262974},{"NoteNumber":62,"Velocity":36,"Duration":230854,"SoundDuration":230854,"Delta":78262974},{"NoteNumber":76,"Velocity":55,"Duration":115605,"SoundDuration":115605,"Delta":78378223},{"NoteNumber":74,"Velocity":58,"Duration":116052,"SoundDuration":116052,"Delta":78493829},{"NoteNumber":72,"Velocity":54,"Duration":116502,"SoundDuration":116502,"Delta":78609881},{"NoteNumber":71,"Velocity":55,"Duration":241759,"SoundDuration":241759,"Delta":78726384},{"NoteNumber":55,"Velocity":40,"Duration":241759,"SoundDuration":241759,"Delta":78726384},{"NoteNumber":59,"Velocity":32,"Duration":234921,"SoundDuration":234921,"Delta":78968144},{"NoteNumber":62,"Velocity":38,"Duration":248326,"SoundDuration":248326,"Delta":79203065},{"NoteNumber":67,"Velocity":47,"Duration":116888,"SoundDuration":116888,"Delta":79334502},{"NoteNumber":69,"Velocity":48,"Duration":116435,"SoundDuration":116435,"Delta":79451391},{"NoteNumber":71,"Velocity":50,"Duration":115895,"SoundDuration":115895,"Delta":79567826},{"NoteNumber":72,"Velocity":52,"Duration":115449,"SoundDuration":115449,"Delta":79683722},{"NoteNumber":74,"Velocity":52,"Duration":114918,"SoundDuration":114918,"Delta":79799171},{"NoteNumber":76,"Velocity":54,"Duration":114447,"SoundDuration":114447,"Delta":79914090},{"NoteNumber":78,"Velocity":55,"Duration":113699,"SoundDuration":113699,"Delta":80028537},{"NoteNumber":79,"Velocity":56,"Duration":113473,"SoundDuration":113473,"Delta":80142236},{"NoteNumber":81,"Velocity":55,"Duration":121458,"SoundDuration":121458,"Delta":80255710},{"NoteNumber":83,"Velocity":61,"Duration":122702,"SoundDuration":122702,"Delta":80377168},{"NoteNumber":81,"Velocity":57,"Duration":126641,"SoundDuration":126641,"Delta":80499870},{"NoteNumber":79,"Velocity":61,"Duration":230609,"SoundDuration":230609,"Delta":80626512},{"NoteNumber":52,"Velocity":40,"Duration":230609,"SoundDuration":230609,"Delta":80626512},{"NoteNumber":55,"Velocity":32,"Duration":230609,"SoundDuration":230609,"Delta":80857121},{"NoteNumber":59,"Velocity":38,"Duration":249540,"SoundDuration":249540,"Delta":81087731},{"NoteNumber":67,"Velocity":48,"Duration":118081,"SoundDuration":118081,"Delta":81219190},{"NoteNumber":69,"Velocity":49,"Duration":116689,"SoundDuration":116689,"Delta":81337272},{"NoteNumber":71,"Velocity":52,"Duration":115502,"SoundDuration":115502,"Delta":81453961},{"NoteNumber":72,"Velocity":53,"Duration":114129,"SoundDuration":114129,"Delta":81569463},{"NoteNumber":74,"Velocity":56,"Duration":113558,"SoundDuration":113558,"Delta":81683593},{"NoteNumber":76,"Velocity":56,"Duration":113559,"SoundDuration":113559,"Delta":81797152},{"NoteNumber":78,"Velocity":57,"Duration":113558,"SoundDuration":113558,"Delta":81910711},{"NoteNumber":79,"Velocity":58,"Duration":115753,"SoundDuration":115753,"Delta":82024270},{"NoteNumber":81,"Velocity":61,"Duration":118205,"SoundDuration":118205,"Delta":82140023},{"NoteNumber":83,"Velocity":64,"Duration":120702,"SoundDuration":120702,"Delta":82258229},{"NoteNumber":84,"Velocity":70,"Duration":123370,"SoundDuration":123370,"Delta":82378931},{"NoteNumber":86,"Velocity":77,"Duration":118026,"SoundDuration":118026,"Delta":82502301},{"NoteNumber":47,"Velocity":54,"Duration":236052,"SoundDuration":236052,"Delta":82502301},{"NoteNumber":86,"Velocity":70,"Duration":121369,"SoundDuration":121369,"Delta":82738354},{"NoteNumber":55,"Velocity":40,"Duration":242738,"SoundDuration":242738,"Delta":82738354},{"NoteNumber":84,"Velocity":70,"Duration":118026,"SoundDuration":118026,"Delta":82981092},{"NoteNumber":47,"Velocity":45,"Duration":236052,"SoundDuration":236052,"Delta":82981092},{"NoteNumber":83,"Velocity":63,"Duration":118026,"SoundDuration":118026,"Delta":83099119},{"NoteNumber":81,"Velocity":63,"Duration":118026,"SoundDuration":118026,"Delta":83217145},{"NoteNumber":55,"Velocity":40,"Duration":236052,"SoundDuration":236052,"Delta":83217145},{"NoteNumber":83,"Velocity":63,"Duration":118026,"SoundDuration":118026,"Delta":83335172},{"NoteNumber":79,"Velocity":70,"Duration":118026,"SoundDuration":118026,"Delta":83453198},{"NoteNumber":47,"Velocity":53,"Duration":236052,"SoundDuration":236052,"Delta":83453198},{"NoteNumber":79,"Velocity":63,"Duration":121369,"SoundDuration":121369,"Delta":83689251},{"NoteNumber":55,"Velocity":40,"Duration":242738,"SoundDuration":242738,"Delta":83689251},{"NoteNumber":75,"Velocity":70,"Duration":118026,"SoundDuration":118026,"Delta":83931989},{"NoteNumber":47,"Velocity":48,"Duration":236052,"SoundDuration":236052,"Delta":83931989},{"NoteNumber":75,"Velocity":59,"Duration":118026,"SoundDuration":118026,"Delta":84168042},{"NoteNumber":55,"Velocity":40,"Duration":236052,"SoundDuration":236052,"Delta":84168042},{"NoteNumber":76,"Velocity":68,"Duration":117564,"SoundDuration":117564,"Delta":84404095},{"NoteNumber":48,"Velocity":54,"Duration":235128,"SoundDuration":235128,"Delta":84404095},{"NoteNumber":76,"Velocity":62,"Duration":117564,"SoundDuration":117564,"Delta":84639223},{"NoteNumber":55,"Velocity":40,"Duration":235128,"SoundDuration":235128,"Delta":84639223},{"NoteNumber":74,"Velocity":64,"Duration":117563,"SoundDuration":117563,"Delta":84874351},{"NoteNumber":48,"Velocity":45,"Duration":235127,"SoundDuration":235127,"Delta":84874351},{"NoteNumber":72,"Velocity":57,"Duration":117564,"SoundDuration":117564,"Delta":84991915},{"NoteNumber":71,"Velocity":57,"Duration":117564,"SoundDuration":117564,"Delta":85109479},{"NoteNumber":55,"Velocity":40,"Duration":235128,"SoundDuration":235128,"Delta":85109479},{"NoteNumber":72,"Velocity":58,"Duration":117564,"SoundDuration":117564,"Delta":85227043},{"NoteNumber":69,"Velocity":65,"Duration":117564,"SoundDuration":117564,"Delta":85344607},{"NoteNumber":48,"Velocity":53,"Duration":235128,"SoundDuration":235128,"Delta":85344607},{"NoteNumber":69,"Velocity":54,"Duration":120879,"SoundDuration":120879,"Delta":85579735},{"NoteNumber":55,"Velocity":40,"Duration":241759,"SoundDuration":241759,"Delta":85579735},{"NoteNumber":64,"Velocity":57,"Duration":117105,"SoundDuration":117105,"Delta":85821495},{"NoteNumber":48,"Velocity":48,"Duration":234210,"SoundDuration":234210,"Delta":85821495},{"NoteNumber":64,"Velocity":52,"Duration":117105,"SoundDuration":117105,"Delta":86055706},{"NoteNumber":55,"Velocity":40,"Duration":234210,"SoundDuration":234210,"Delta":86055706},{"NoteNumber":62,"Velocity":63,"Duration":117105,"SoundDuration":117105,"Delta":86289916},{"NoteNumber":50,"Velocity":54,"Duration":234210,"SoundDuration":234210,"Delta":86289916},{"NoteNumber":62,"Velocity":58,"Duration":117105,"SoundDuration":117105,"Delta":86524127},{"NoteNumber":55,"Velocity":40,"Duration":234210,"SoundDuration":234210,"Delta":86524127},{"NoteNumber":74,"Velocity":63,"Duration":117105,"SoundDuration":117105,"Delta":86758337},{"NoteNumber":50,"Velocity":45,"Duration":234210,"SoundDuration":234210,"Delta":86758337},{"NoteNumber":71,"Velocity":56,"Duration":117105,"SoundDuration":117105,"Delta":86875443},{"NoteNumber":69,"Velocity":58,"Duration":122359,"SoundDuration":122359,"Delta":86992548},{"NoteNumber":55,"Velocity":40,"Duration":244697,"SoundDuration":244697,"Delta":86992548},{"NoteNumber":67,"Velocity":56,"Duration":122338,"SoundDuration":122338,"Delta":87114907},{"NoteNumber":69,"Velocity":47,"Duration":81138,"SoundDuration":81138,"Delta":87237245},{"NoteNumber":50,"Velocity":53,"Duration":241029,"SoundDuration":241029,"Delta":87237245},{"NoteNumber":71,"Velocity":43,"Duration":80365,"SoundDuration":80365,"Delta":87318384},{"NoteNumber":69,"Velocity":50,"Duration":79526,"SoundDuration":79526,"Delta":87398749},{"NoteNumber":71,"Velocity":46,"Duration":78685,"SoundDuration":78685,"Delta":87478275},{"NoteNumber":54,"Velocity":40,"Duration":234844,"SoundDuration":234844,"Delta":87478275},{"NoteNumber":69,"Velocity":54,"Duration":78089,"SoundDuration":78089,"Delta":87556960},{"NoteNumber":71,"Velocity":53,"Duration":78070,"SoundDuration":78070,"Delta":87635049},{"NoteNumber":69,"Velocity":57,"Duration":78070,"SoundDuration":78070,"Delta":87713120},{"NoteNumber":50,"Velocity":48,"Duration":234613,"SoundDuration":234613,"Delta":87713120},{"NoteNumber":71,"Velocity":53,"Duration":78070,"SoundDuration":78070,"Delta":87791190},{"NoteNumber":69,"Velocity":56,"Duration":78472,"SoundDuration":78472,"Delta":87869260},{"NoteNumber":71,"Velocity":51,"Duration":59403,"SoundDuration":59403,"Delta":87947733},{"NoteNumber":54,"Velocity":33,"Duration":240324,"SoundDuration":240324,"Delta":87947733},{"NoteNumber":69,"Velocity":56,"Duration":59877,"SoundDuration":59877,"Delta":88007136},{"NoteNumber":67,"Velocity":49,"Duration":60359,"SoundDuration":60359,"Delta":88067013},{"NoteNumber":69,"Velocity":49,"Duration":60684,"SoundDuration":60684,"Delta":88127373},{"NoteNumber":47,"Velocity":40,"Duration":253399,"SoundDuration":253399,"Delta":88188057},{"NoteNumber":86,"Velocity":54,"Duration":126699,"SoundDuration":126699,"Delta":88441457},{"NoteNumber":55,"Velocity":22,"Duration":244726,"SoundDuration":244726,"Delta":88441457},{"NoteNumber":47,"Velocity":26,"Duration":236052,"SoundDuration":236052,"Delta":88686184},{"NoteNumber":83,"Velocity":45,"Duration":118026,"SoundDuration":118026,"Delta":88922237},{"NoteNumber":55,"Velocity":21,"Duration":236052,"SoundDuration":236052,"Delta":88922237},{"NoteNumber":47,"Velocity":33,"Duration":237925,"SoundDuration":237925,"Delta":89158290},{"NoteNumber":79,"Velocity":57,"Duration":118962,"SoundDuration":118962,"Delta":89396215},{"NoteNumber":55,"Velocity":31,"Duration":237925,"SoundDuration":237925,"Delta":89396215},{"NoteNumber":47,"Velocity":39,"Duration":243724,"SoundDuration":243724,"Delta":89634141},{"NoteNumber":75,"Velocity":63,"Duration":130332,"SoundDuration":130332,"Delta":89877865},{"NoteNumber":55,"Velocity":35,"Duration":260665,"SoundDuration":260665,"Delta":89877865},{"NoteNumber":48,"Velocity":49,"Duration":237925,"SoundDuration":237925,"Delta":90138530},{"NoteNumber":76,"Velocity":56,"Duration":118962,"SoundDuration":118962,"Delta":90376456},{"NoteNumber":55,"Velocity":41,"Duration":237925,"SoundDuration":237925,"Delta":90376456},{"NoteNumber":75,"Velocity":50,"Duration":118962,"SoundDuration":118962,"Delta":90495419},{"NoteNumber":76,"Velocity":57,"Duration":119374,"SoundDuration":119374,"Delta":90614381},{"NoteNumber":48,"Velocity":49,"Duration":239201,"SoundDuration":239201,"Delta":90614381},{"NoteNumber":78,"Velocity":60,"Duration":119826,"SoundDuration":119826,"Delta":90733756},{"NoteNumber":79,"Velocity":61,"Duration":119349,"SoundDuration":119349,"Delta":90853582},{"NoteNumber":55,"Velocity":39,"Duration":238226,"SoundDuration":238226,"Delta":90853582},{"NoteNumber":78,"Velocity":55,"Duration":118876,"SoundDuration":118876,"Delta":90972932},{"NoteNumber":76,"Velocity":61,"Duration":118407,"SoundDuration":118407,"Delta":91091808},{"NoteNumber":48,"Velocity":49,"Duration":236433,"SoundDuration":236433,"Delta":91091808},{"NoteNumber":74,"Velocity":53,"Duration":118026,"SoundDuration":118026,"Delta":91210216},{"NoteNumber":72,"Velocity":56,"Duration":118345,"SoundDuration":118345,"Delta":91328242},{"NoteNumber":55,"Velocity":39,"Duration":237041,"SoundDuration":237041,"Delta":91328242},{"NoteNumber":71,"Velocity":51,"Duration":118696,"SoundDuration":118696,"Delta":91446587},{"NoteNumber":69,"Velocity":56,"Duration":119049,"SoundDuration":119049,"Delta":91565284},{"NoteNumber":48,"Velocity":49,"Duration":238485,"SoundDuration":238485,"Delta":91565284},{"NoteNumber":67,"Velocity":60,"Duration":119436,"SoundDuration":119436,"Delta":91684333},{"NoteNumber":66,"Velocity":63,"Duration":119881,"SoundDuration":119881,"Delta":91803769},{"NoteNumber":55,"Velocity":40,"Duration":247443,"SoundDuration":247443,"Delta":91803769},{"NoteNumber":64,"Velocity":65,"Duration":127561,"SoundDuration":127561,"Delta":91923651},{"NoteNumber":62,"Velocity":72,"Duration":121578,"SoundDuration":121578,"Delta":92051213},{"NoteNumber":50,"Velocity":49,"Duration":242735,"SoundDuration":242735,"Delta":92051213},{"NoteNumber":67,"Velocity":56,"Duration":121157,"SoundDuration":121157,"Delta":92172791},{"NoteNumber":71,"Velocity":56,"Duration":120339,"SoundDuration":120339,"Delta":92293949},{"NoteNumber":55,"Velocity":41,"Duration":239926,"SoundDuration":239926,"Delta":92293949},{"NoteNumber":74,"Velocity":56,"Duration":119587,"SoundDuration":119587,"Delta":92414288},{"NoteNumber":72,"Velocity":59,"Duration":118790,"SoundDuration":118790,"Delta":92533875},{"NoteNumber":50,"Velocity":49,"Duration":237283,"SoundDuration":237283,"Delta":92533875},{"NoteNumber":71,"Velocity":50,"Duration":118492,"SoundDuration":118492,"Delta":92652666},{"NoteNumber":69,"Velocity":50,"Duration":118492,"SoundDuration":118492,"Delta":92771159},{"NoteNumber":55,"Velocity":39,"Duration":236985,"SoundDuration":236985,"Delta":92771159},{"NoteNumber":67,"Velocity":50,"Duration":118492,"SoundDuration":118492,"Delta":92889651},{"NoteNumber":69,"Velocity":51,"Duration":81138,"SoundDuration":81138,"Delta":93008144},{"NoteNumber":50,"Velocity":53,"Duration":241029,"SoundDuration":241029,"Delta":93008144},{"NoteNumber":71,"Velocity":47,"Duration":80365,"SoundDuration":80365,"Delta":93089283},{"NoteNumber":69,"Velocity":55,"Duration":79526,"SoundDuration":79526,"Delta":93169648},{"NoteNumber":71,"Velocity":50,"Duration":78685,"SoundDuration":78685,"Delta":93249174},{"NoteNumber":54,"Velocity":40,"Duration":234844,"SoundDuration":234844,"Delta":93249174},{"NoteNumber":69,"Velocity":59,"Duration":78089,"SoundDuration":78089,"Delta":93327859},{"NoteNumber":71,"Velocity":58,"Duration":78070,"SoundDuration":78070,"Delta":93405948},{"NoteNumber":69,"Velocity":62,"Duration":78070,"SoundDuration":78070,"Delta":93484018},{"NoteNumber":50,"Velocity":48,"Duration":234613,"SoundDuration":234613,"Delta":93484018},{"NoteNumber":71,"Velocity":58,"Duration":78070,"SoundDuration":78070,"Delta":93562089},{"NoteNumber":69,"Velocity":61,"Duration":78472,"SoundDuration":78472,"Delta":93640159},{"NoteNumber":71,"Velocity":56,"Duration":59403,"SoundDuration":59403,"Delta":93718632},{"NoteNumber":54,"Velocity":33,"Duration":240324,"SoundDuration":240324,"Delta":93718632},{"NoteNumber":69,"Velocity":61,"Duration":59877,"SoundDuration":59877,"Delta":93778035},{"NoteNumber":67,"Velocity":53,"Duration":60359,"SoundDuration":60359,"Delta":93837912},{"NoteNumber":69,"Velocity":53,"Duration":60684,"SoundDuration":60684,"Delta":93898272},{"NoteNumber":67,"Velocity":68,"Duration":242738,"SoundDuration":242738,"Delta":93958956},{"NoteNumber":43,"Velocity":58,"Duration":121369,"SoundDuration":121369,"Delta":93958956},{"NoteNumber":55,"Velocity":55,"Duration":121369,"SoundDuration":121369,"Delta":94201694},{"NoteNumber":62,"Velocity":67,"Duration":121369,"SoundDuration":121369,"Delta":94458592},{"NoteNumber":62,"Velocity":62,"Duration":121369,"SoundDuration":121369,"Delta":94687170},{"NoteNumber":59,"Velocity":57,"Duration":115304,"SoundDuration":115304,"Delta":94929908},{"NoteNumber":67,"Velocity":68,"Duration":115304,"SoundDuration":115304,"Delta":94929908},{"NoteNumber":43,"Velocity":58,"Duration":115304,"SoundDuration":115304,"Delta":94929908},{"NoteNumber":55,"Velocity":52,"Duration":120879,"SoundDuration":120879,"Delta":95160518},{"NoteNumber":62,"Velocity":64,"Duration":120879,"SoundDuration":120879,"Delta":95402278},{"NoteNumber":62,"Velocity":68,"Duration":120879,"SoundDuration":120879,"Delta":95644038},{"NoteNumber":60,"Velocity":57,"Duration":115304,"SoundDuration":115304,"Delta":95885798},{"NoteNumber":69,"Velocity":68,"Duration":115304,"SoundDuration":115304,"Delta":95885798},{"NoteNumber":43,"Velocity":58,"Duration":115304,"SoundDuration":115304,"Delta":95885798},{"NoteNumber":55,"Velocity":52,"Duration":125638,"SoundDuration":125638,"Delta":96116407},{"NoteNumber":62,"Velocity":42,"Duration":120588,"SoundDuration":120588,"Delta":96367685},{"NoteNumber":62,"Velocity":33,"Duration":120588,"SoundDuration":120588,"Delta":96608862},{"NoteNumber":57,"Velocity":35,"Duration":115749,"SoundDuration":115749,"Delta":96850039},{"NoteNumber":66,"Velocity":42,"Duration":115749,"SoundDuration":115749,"Delta":96850039},{"NoteNumber":43,"Velocity":34,"Duration":115749,"SoundDuration":115749,"Delta":96850039},{"NoteNumber":55,"Velocity":26,"Duration":120395,"SoundDuration":120395,"Delta":97081538},{"NoteNumber":62,"Velocity":60,"Duration":125955,"SoundDuration":125955,"Delta":97322328},{"NoteNumber":62,"Velocity":69,"Duration":134420,"SoundDuration":134420,"Delta":97574239},{"NoteNumber":67,"Velocity":74,"Duration":518517,"SoundDuration":518517,"Delta":97843080},{"NoteNumber":59,"Velocity":62,"Duration":518517,"SoundDuration":518517,"Delta":97843080},{"NoteNumber":43,"Velocity":58,"Duration":258978,"SoundDuration":258978,"Delta":97843080},{"NoteNumber":55,"Velocity":48,"Duration":259538,"SoundDuration":259538,"Delta":98102059},{"NoteNumber":67,"Velocity":62,"Duration":636467,"SoundDuration":636467,"Delta":98361597},{"NoteNumber":59,"Velocity":52,"Duration":636467,"SoundDuration":636467,"Delta":98361597},{"NoteNumber":50,"Velocity":58,"Duration":299729,"SoundDuration":299729,"Delta":98361597},{"NoteNumber":47,"Velocity":49,"Duration":336737,"SoundDuration":336737,"Delta":98661327},{"NoteNumber":59,"Velocity":57,"Duration":618782,"SoundDuration":618782,"Delta":98998065},{"NoteNumber":67,"Velocity":68,"Duration":618782,"SoundDuration":618782,"Delta":98998065},{"NoteNumber":43,"Velocity":58,"Duration":618782,"SoundDuration":618782,"Delta":98998065},{"NoteNumber":67,"Velocity":49,"Duration":713776,"SoundDuration":713776,"Delta":100234831},{"NoteNumber":59,"Velocity":28,"Duration":237925,"SoundDuration":237925,"Delta":100234831},{"NoteNumber":55,"Velocity":22,"Duration":237925,"SoundDuration":237925,"Delta":100472756},{"NoteNumber":59,"Velocity":24,"Duration":237925,"SoundDuration":237925,"Delta":100710682},{"NoteNumber":71,"Velocity":45,"Duration":255123,"SoundDuration":255123,"Delta":100948607},{"NoteNumber":55,"Velocity":22,"Duration":255123,"SoundDuration":255123,"Delta":100948607},{"NoteNumber":74,"Velocity":49,"Duration":236052,"SoundDuration":236052,"Delta":101203731},{"NoteNumber":59,"Velocity":28,"Duration":236052,"SoundDuration":236052,"Delta":101203731},{"NoteNumber":79,"Velocity":45,"Duration":118026,"SoundDuration":118026,"Delta":101439784},{"NoteNumber":55,"Velocity":20,"Duration":236052,"SoundDuration":236052,"Delta":101439784},{"NoteNumber":79,"Velocity":45,"Duration":118026,"SoundDuration":118026,"Delta":101675837},{"NoteNumber":59,"Velocity":25,"Duration":236052,"SoundDuration":236052,"Delta":101675837},{"NoteNumber":79,"Velocity":45,"Duration":127021,"SoundDuration":127021,"Delta":101911890},{"NoteNumber":55,"Velocity":22,"Duration":254043,"SoundDuration":254043,"Delta":101911890},{"NoteNumber":69,"Velocity":49,"Duration":118212,"SoundDuration":118212,"Delta":102165933},{"NoteNumber":60,"Velocity":28,"Duration":236425,"SoundDuration":236425,"Delta":102165933},{"NoteNumber":71,"Velocity":42,"Duration":118212,"SoundDuration":118212,"Delta":102284146},{"NoteNumber":72,"Velocity":42,"Duration":118212,"SoundDuration":118212,"Delta":102402359},{"NoteNumber":55,"Velocity":22,"Duration":236425,"SoundDuration":236425,"Delta":102402359},{"NoteNumber":71,"Velocity":42,"Duration":118212,"SoundDuration":118212,"Delta":102520572},{"NoteNumber":69,"Velocity":49,"Duration":118212,"SoundDuration":118212,"Delta":102638784},{"NoteNumber":60,"Velocity":24,"Duration":236425,"SoundDuration":236425,"Delta":102638784},{"NoteNumber":71,"Velocity":42,"Duration":118212,"SoundDuration":118212,"Delta":102756997},{"NoteNumber":72,"Velocity":42,"Duration":128877,"SoundDuration":128877,"Delta":102875210},{"NoteNumber":55,"Velocity":22,"Duration":246625,"SoundDuration":246625,"Delta":102875210},{"NoteNumber":71,"Velocity":42,"Duration":117748,"SoundDuration":117748,"Delta":103004087},{"NoteNumber":69,"Velocity":49,"Duration":235497,"SoundDuration":235497,"Delta":103121836},{"NoteNumber":60,"Velocity":28,"Duration":235497,"SoundDuration":235497,"Delta":103121836},{"NoteNumber":55,"Velocity":20,"Duration":235497,"SoundDuration":235497,"Delta":103357333},{"NoteNumber":60,"Velocity":25,"Duration":235497,"SoundDuration":235497,"Delta":103592831},{"NoteNumber":55,"Velocity":22,"Duration":254474,"SoundDuration":254474,"Delta":103828328},{"NoteNumber":71,"Velocity":49,"Duration":713776,"SoundDuration":713776,"Delta":104082803},{"NoteNumber":62,"Velocity":28,"Duration":237925,"SoundDuration":237925,"Delta":104082803},{"NoteNumber":55,"Velocity":22,"Duration":237925,"SoundDuration":237925,"Delta":104320728},{"NoteNumber":62,"Velocity":24,"Duration":237925,"SoundDuration":237925,"Delta":104558654},{"NoteNumber":74,"Velocity":45,"Duration":255123,"SoundDuration":255123,"Delta":104796579},{"NoteNumber":55,"Velocity":22,"Duration":255123,"SoundDuration":255123,"Delta":104796579},{"NoteNumber":77,"Velocity":53,"Duration":236052,"SoundDuration":236052,"Delta":105051703},{"NoteNumber":62,"Velocity":30,"Duration":236052,"SoundDuration":236052,"Delta":105051703},{"NoteNumber":83,"Velocity":50,"Duration":118026,"SoundDuration":118026,"Delta":105287756},{"NoteNumber":55,"Velocity":22,"Duration":236052,"SoundDuration":236052,"Delta":105287756},{"NoteNumber":83,"Velocity":52,"Duration":118026,"SoundDuration":118026,"Delta":105523809},{"NoteNumber":62,"Velocity":29,"Duration":236052,"SoundDuration":236052,"Delta":105523809},{"NoteNumber":83,"Velocity":54,"Duration":127021,"SoundDuration":127021,"Delta":105759862},{"NoteNumber":55,"Velocity":26,"Duration":254043,"SoundDuration":254043,"Delta":105759862},{"NoteNumber":72,"Velocity":63,"Duration":236425,"SoundDuration":236425,"Delta":106013905},{"NoteNumber":64,"Velocity":35,"Duration":236425,"SoundDuration":236425,"Delta":106013905},{"NoteNumber":74,"Velocity":54,"Duration":118212,"SoundDuration":118212,"Delta":106250331},{"NoteNumber":55,"Velocity":27,"Duration":236425,"SoundDuration":236425,"Delta":106250331},{"NoteNumber":76,"Velocity":56,"Duration":118212,"SoundDuration":118212,"Delta":106368543},{"NoteNumber":77,"Velocity":58,"Duration":118212,"SoundDuration":118212,"Delta":106486756},{"NoteNumber":64,"Velocity":30,"Duration":236425,"SoundDuration":236425,"Delta":106486756},{"NoteNumber":79,"Velocity":62,"Duration":118212,"SoundDuration":118212,"Delta":106604969},{"NoteNumber":81,"Velocity":63,"Duration":128877,"SoundDuration":128877,"Delta":106723182},{"NoteNumber":55,"Velocity":27,"Duration":246625,"SoundDuration":246625,"Delta":106723182},{"NoteNumber":83,"Velocity":67,"Duration":117748,"SoundDuration":117748,"Delta":106852059},{"NoteNumber":84,"Velocity":74,"Duration":235497,"SoundDuration":235497,"Delta":106969807},{"NoteNumber":64,"Velocity":40,"Duration":235497,"SoundDuration":235497,"Delta":106969807},{"NoteNumber":55,"Velocity":33,"Duration":235497,"SoundDuration":235497,"Delta":107205305},{"NoteNumber":64,"Velocity":43,"Duration":235497,"SoundDuration":235497,"Delta":107440802},{"NoteNumber":55,"Velocity":35,"Duration":245118,"SoundDuration":245118,"Delta":107676300},{"NoteNumber":86,"Velocity":77,"Duration":118026,"SoundDuration":118026,"Delta":107921418},{"NoteNumber":65,"Velocity":54,"Duration":236052,"SoundDuration":236052,"Delta":107921418},{"NoteNumber":86,"Velocity":66,"Duration":121369,"SoundDuration":121369,"Delta":108157471},{"NoteNumber":55,"Velocity":40,"Duration":242738,"SoundDuration":242738,"Delta":108157471},{"NoteNumber":83,"Velocity":70,"Duration":118026,"SoundDuration":118026,"Delta":108400209},{"NoteNumber":65,"Velocity":45,"Duration":236052,"SoundDuration":236052,"Delta":108400209},{"NoteNumber":83,"Velocity":63,"Duration":118026,"SoundDuration":118026,"Delta":108636262},{"NoteNumber":55,"Velocity":40,"Duration":236052,"SoundDuration":236052,"Delta":108636262},{"NoteNumber":79,"Velocity":70,"Duration":118026,"SoundDuration":118026,"Delta":108872315},{"NoteNumber":65,"Velocity":53,"Duration":236052,"SoundDuration":236052,"Delta":108872315},{"NoteNumber":79,"Velocity":59,"Duration":121369,"SoundDuration":121369,"Delta":109108368},{"NoteNumber":55,"Velocity":40,"Duration":242738,"SoundDuration":242738,"Delta":109108368},{"NoteNumber":79,"Velocity":70,"Duration":116378,"SoundDuration":116378,"Delta":109351106},{"NoteNumber":65,"Velocity":48,"Duration":232756,"SoundDuration":232756,"Delta":109351106},{"NoteNumber":81,"Velocity":58,"Duration":116378,"SoundDuration":116378,"Delta":109467484},{"NoteNumber":83,"Velocity":63,"Duration":116378,"SoundDuration":116378,"Delta":109583862},{"NoteNumber":55,"Velocity":40,"Duration":232756,"SoundDuration":232756,"Delta":109583862},{"NoteNumber":79,"Velocity":56,"Duration":116378,"SoundDuration":116378,"Delta":109700241},{"NoteNumber":84,"Velocity":70,"Duration":117748,"SoundDuration":117748,"Delta":109816619},{"NoteNumber":63,"Velocity":54,"Duration":235497,"SoundDuration":235497,"Delta":109816619},{"NoteNumber":84,"Velocity":63,"Duration":121369,"SoundDuration":121369,"Delta":110052116},{"NoteNumber":55,"Velocity":40,"Duration":242738,"SoundDuration":242738,"Delta":110052116},{"NoteNumber":79,"Velocity":70,"Duration":118026,"SoundDuration":118026,"Delta":110294854},{"NoteNumber":63,"Velocity":45,"Duration":236052,"SoundDuration":236052,"Delta":110294854},{"NoteNumber":79,"Velocity":63,"Duration":118026,"SoundDuration":118026,"Delta":110530907},{"NoteNumber":55,"Velocity":40,"Duration":236052,"SoundDuration":236052,"Delta":110530907},{"NoteNumber":75,"Velocity":70,"Duration":118026,"SoundDuration":118026,"Delta":110766960},{"NoteNumber":63,"Velocity":53,"Duration":236052,"SoundDuration":236052,"Delta":110766960},{"NoteNumber":75,"Velocity":59,"Duration":121369,"SoundDuration":121369,"Delta":111003013},{"NoteNumber":55,"Velocity":40,"Duration":242738,"SoundDuration":242738,"Delta":111003013},{"NoteNumber":72,"Velocity":69,"Duration":116378,"SoundDuration":116378,"Delta":111245751},{"NoteNumber":63,"Velocity":48,"Duration":232756,"SoundDuration":232756,"Delta":111245751},{"NoteNumber":74,"Velocity":54,"Duration":116378,"SoundDuration":116378,"Delta":111362130},{"NoteNumber":75,"Velocity":62,"Duration":116378,"SoundDuration":116378,"Delta":111478508},{"NoteNumber":55,"Velocity":40,"Duration":232756,"SoundDuration":232756,"Delta":111478508},{"NoteNumber":72,"Velocity":55,"Duration":116378,"SoundDuration":116378,"Delta":111594886},{"NoteNumber":71,"Velocity":70,"Duration":117288,"SoundDuration":117288,"Delta":111711264},{"NoteNumber":62,"Velocity":48,"Duration":234576,"SoundDuration":234576,"Delta":111711264},{"NoteNumber":71,"Velocity":58,"Duration":117288,"SoundDuration":117288,"Delta":111945841},{"NoteNumber":55,"Velocity":37,"Duration":234576,"SoundDuration":234576,"Delta":111945841},{"NoteNumber":68,"Velocity":63,"Duration":117288,"SoundDuration":117288,"Delta":112180417},{"NoteNumber":60,"Velocity":42,"Duration":234576,"SoundDuration":234576,"Delta":112180417},{"NoteNumber":68,"Velocity":52,"Duration":117288,"SoundDuration":117288,"Delta":112414994},{"NoteNumber":55,"Velocity":32,"Duration":234576,"SoundDuration":234576,"Delta":112414994},{"NoteNumber":67,"Velocity":58,"Duration":118680,"SoundDuration":118680,"Delta":112649570},{"NoteNumber":59,"Velocity":43,"Duration":237360,"SoundDuration":237360,"Delta":112649570},{"NoteNumber":67,"Velocity":49,"Duration":118680,"SoundDuration":118680,"Delta":112886931},{"NoteNumber":55,"Velocity":32,"Duration":237360,"SoundDuration":237360,"Delta":112886931},{"NoteNumber":66,"Velocity":56,"Duration":118680,"SoundDuration":118680,"Delta":113124291},{"NoteNumber":60,"Velocity":41,"Duration":237360,"SoundDuration":237360,"Delta":113124291},{"NoteNumber":66,"Velocity":51,"Duration":125638,"SoundDuration":125638,"Delta":113361652},{"NoteNumber":55,"Velocity":26,"Duration":251277,"SoundDuration":251277,"Delta":113361652},{"NoteNumber":67,"Velocity":55,"Duration":119626,"SoundDuration":119626,"Delta":113612929},{"NoteNumber":59,"Velocity":33,"Duration":478506,"SoundDuration":478506,"Delta":113612929},{"NoteNumber":55,"Velocity":28,"Duration":1938295,"SoundDuration":1938295,"Delta":113612929},{"NoteNumber":67,"Velocity":43,"Duration":119626,"SoundDuration":119626,"Delta":113852183},{"NoteNumber":66,"Velocity":54,"Duration":119626,"SoundDuration":119626,"Delta":114091436},{"NoteNumber":60,"Velocity":25,"Duration":485376,"SoundDuration":485376,"Delta":114091436},{"NoteNumber":66,"Velocity":43,"Duration":123061,"SoundDuration":123061,"Delta":114330690},{"NoteNumber":67,"Velocity":50,"Duration":119626,"SoundDuration":119626,"Delta":114576813},{"NoteNumber":59,"Velocity":35,"Duration":478506,"SoundDuration":478506,"Delta":114576813},{"NoteNumber":67,"Velocity":40,"Duration":119626,"SoundDuration":119626,"Delta":114816067},{"NoteNumber":66,"Velocity":46,"Duration":119626,"SoundDuration":119626,"Delta":115055320},{"NoteNumber":60,"Velocity":29,"Duration":495905,"SoundDuration":495905,"Delta":115055320},{"NoteNumber":66,"Velocity":31,"Duration":128325,"SoundDuration":128325,"Delta":115294574},{"NoteNumber":67,"Velocity":41,"Duration":122385,"SoundDuration":122385,"Delta":115551225},{"NoteNumber":55,"Velocity":24,"Duration":487597,"SoundDuration":487597,"Delta":115551225},{"NoteNumber":59,"Velocity":32,"Duration":487597,"SoundDuration":487597,"Delta":115551225},{"NoteNumber":67,"Velocity":34,"Duration":121586,"SoundDuration":121586,"Delta":115795176},{"NoteNumber":66,"Velocity":41,"Duration":122060,"SoundDuration":122060,"Delta":116038823},{"NoteNumber":66,"Velocity":35,"Duration":122558,"SoundDuration":122558,"Delta":116283397},{"NoteNumber":67,"Velocity":41,"Duration":128194,"SoundDuration":128194,"Delta":116528905},{"NoteNumber":67,"Velocity":34,"Duration":128325,"SoundDuration":128325,"Delta":116785425},{"NoteNumber":66,"Velocity":40,"Duration":129308,"SoundDuration":129308,"Delta":117042076},{"NoteNumber":66,"Velocity":33,"Duration":141656,"SoundDuration":141656,"Delta":117301231},{"NoteNumber":67,"Velocity":63,"Duration":713776,"SoundDuration":713776,"Delta":117584544},{"NoteNumber":52,"Velocity":36,"Duration":237925,"SoundDuration":237925,"Delta":117584544},{"NoteNumber":48,"Velocity":28,"Duration":237925,"SoundDuration":237925,"Delta":117822469},{"NoteNumber":52,"Velocity":31,"Duration":237925,"SoundDuration":237925,"Delta":118060395},{"NoteNumber":64,"Velocity":58,"Duration":255123,"SoundDuration":255123,"Delta":118298320},{"NoteNumber":48,"Velocity":28,"Duration":255123,"SoundDuration":255123,"Delta":118298320},{"NoteNumber":60,"Velocity":63,"Duration":236052,"SoundDuration":236052,"Delta":118553444},{"NoteNumber":52,"Velocity":36,"Duration":236052,"SoundDuration":236052,"Delta":118553444},{"NoteNumber":55,"Velocity":58,"Duration":118026,"SoundDuration":118026,"Delta":118789497},{"NoteNumber":48,"Velocity":26,"Duration":236052,"SoundDuration":236052,"Delta":118789497},{"NoteNumber":55,"Velocity":58,"Duration":118026,"SoundDuration":118026,"Delta":119025550},{"NoteNumber":52,"Velocity":33,"Duration":236052,"SoundDuration":236052,"Delta":119025550},{"NoteNumber":55,"Velocity":58,"Duration":127021,"SoundDuration":127021,"Delta":119261603},{"NoteNumber":48,"Velocity":28,"Duration":254043,"SoundDuration":254043,"Delta":119261603},{"NoteNumber":67,"Velocity":63,"Duration":708158,"SoundDuration":708158,"Delta":119515646},{"NoteNumber":52,"Velocity":36,"Duration":236052,"SoundDuration":236052,"Delta":119515646},{"NoteNumber":48,"Velocity":28,"Duration":236052,"SoundDuration":236052,"Delta":119751699},{"NoteNumber":52,"Velocity":31,"Duration":236052,"SoundDuration":236052,"Delta":119987752},{"NoteNumber":64,"Velocity":53,"Duration":244940,"SoundDuration":244940,"Delta":120223805},{"NoteNumber":48,"Velocity":28,"Duration":244940,"SoundDuration":244940,"Delta":120223805},{"NoteNumber":60,"Velocity":56,"Duration":118774,"SoundDuration":118774,"Delta":120468746},{"NoteNumber":52,"Velocity":36,"Duration":236802,"SoundDuration":236802,"Delta":120468746},{"NoteNumber":62,"Velocity":54,"Duration":118027,"SoundDuration":118027,"Delta":120587521},{"NoteNumber":64,"Velocity":55,"Duration":117288,"SoundDuration":117288,"Delta":120705548},{"NoteNumber":48,"Velocity":26,"Duration":234120,"SoundDuration":234120,"Delta":120705548},{"NoteNumber":65,"Velocity":56,"Duration":116831,"SoundDuration":116831,"Delta":120822837},{"NoteNumber":67,"Velocity":57,"Duration":117841,"SoundDuration":117841,"Delta":120939669},{"NoteNumber":52,"Velocity":33,"Duration":236710,"SoundDuration":236710,"Delta":120939669},{"NoteNumber":69,"Velocity":58,"Duration":118869,"SoundDuration":118869,"Delta":121057510},{"NoteNumber":71,"Velocity":60,"Duration":119819,"SoundDuration":119819,"Delta":121176380},{"NoteNumber":48,"Velocity":28,"Duration":240797,"SoundDuration":240797,"Delta":121176380},{"NoteNumber":72,"Velocity":63,"Duration":120978,"SoundDuration":120978,"Delta":121296199},{"NoteNumber":71,"Velocity":68,"Duration":235128,"SoundDuration":235128,"Delta":121417177},{"NoteNumber":53,"Velocity":36,"Duration":235128,"SoundDuration":235128,"Delta":121417177},{"NoteNumber":69,"Velocity":58,"Duration":117564,"SoundDuration":117564,"Delta":121652305},{"NoteNumber":48,"Velocity":28,"Duration":235128,"SoundDuration":235128,"Delta":121652305},{"NoteNumber":69,"Velocity":63,"Duration":117563,"SoundDuration":117563,"Delta":121887433},{"NoteNumber":53,"Velocity":31,"Duration":235127,"SoundDuration":235127,"Delta":121887433},{"NoteNumber":69,"Velocity":61,"Duration":122359,"SoundDuration":122359,"Delta":122122561},{"NoteNumber":48,"Velocity":28,"Duration":244718,"SoundDuration":244718,"Delta":122122561},{"NoteNumber":71,"Velocity":63,"Duration":117105,"SoundDuration":117105,"Delta":122367279},{"NoteNumber":53,"Velocity":36,"Duration":234210,"SoundDuration":234210,"Delta":122367279},{"NoteNumber":69,"Velocity":57,"Duration":117105,"SoundDuration":117105,"Delta":122484385},{"NoteNumber":68,"Velocity":63,"Duration":117105,"SoundDuration":117105,"Delta":122601490},{"NoteNumber":48,"Velocity":26,"Duration":234210,"SoundDuration":234210,"Delta":122601490},{"NoteNumber":69,"Velocity":58,"Duration":117105,"SoundDuration":117105,"Delta":122718595},{"NoteNumber":72,"Velocity":63,"Duration":175657,"SoundDuration":175657,"Delta":122835700},{"NoteNumber":53,"Velocity":33,"Duration":234210,"SoundDuration":234210,"Delta":122835700},{"NoteNumber":69,"Velocity":56,"Duration":189729,"SoundDuration":189729,"Delta":123069911},{"NoteNumber":48,"Velocity":28,"Duration":252972,"SoundDuration":252972,"Delta":123069911},{"NoteNumber":66,"Velocity":65,"Duration":240790,"SoundDuration":240790,"Delta":123322883},{"NoteNumber":52,"Velocity":36,"Duration":240790,"SoundDuration":240790,"Delta":123322883},{"NoteNumber":67,"Velocity":58,"Duration":120395,"SoundDuration":120395,"Delta":123563673},{"NoteNumber":48,"Velocity":28,"Duration":240789,"SoundDuration":240789,"Delta":123563673},{"NoteNumber":67,"Velocity":63,"Duration":120395,"SoundDuration":120395,"Delta":123804463},{"NoteNumber":52,"Velocity":31,"Duration":240790,"SoundDuration":240790,"Delta":123804463},{"NoteNumber":67,"Velocity":57,"Duration":120395,"SoundDuration":120395,"Delta":124045253},{"NoteNumber":48,"Velocity":28,"Duration":240790,"SoundDuration":240790,"Delta":124045253},{"NoteNumber":67,"Velocity":63,"Duration":469425,"SoundDuration":469425,"Delta":124286043},{"NoteNumber":52,"Velocity":34,"Duration":237925,"SoundDuration":237925,"Delta":124286043},{"NoteNumber":48,"Velocity":26,"Duration":231499,"SoundDuration":231499,"Delta":124523969},{"NoteNumber":52,"Velocity":33,"Duration":231499,"SoundDuration":231499,"Delta":124755468},{"NoteNumber":48,"Velocity":27,"Duration":243724,"SoundDuration":243724,"Delta":124986968},{"NoteNumber":62,"Velocity":37,"Duration":117105,"SoundDuration":117105,"Delta":125230692},{"NoteNumber":65,"Velocity":45,"Duration":117105,"SoundDuration":117105,"Delta":125230692},{"NoteNumber":55,"Velocity":31,"Duration":468421,"SoundDuration":468421,"Delta":125230692},{"NoteNumber":65,"Velocity":41,"Duration":117105,"SoundDuration":117105,"Delta":125464902},{"NoteNumber":62,"Velocity":35,"Duration":117105,"SoundDuration":117105,"Delta":125464902},{"NoteNumber":60,"Velocity":37,"Duration":118962,"SoundDuration":118962,"Delta":125699113},{"NoteNumber":64,"Velocity":45,"Duration":118962,"SoundDuration":118962,"Delta":125699113},{"NoteNumber":64,"Velocity":36,"Duration":123874,"SoundDuration":123874,"Delta":125937038},{"NoteNumber":60,"Velocity":30,"Duration":123874,"SoundDuration":123874,"Delta":125937038},{"NoteNumber":59,"Velocity":37,"Duration":470256,"SoundDuration":470256,"Delta":126184788},{"NoteNumber":62,"Velocity":45,"Duration":470256,"SoundDuration":470256,"Delta":126184788},{"NoteNumber":55,"Velocity":40,"Duration":117564,"SoundDuration":117564,"Delta":126184788},{"NoteNumber":55,"Velocity":36,"Duration":117564,"SoundDuration":117564,"Delta":126419916},{"NoteNumber":53,"Velocity":40,"Duration":118962,"SoundDuration":118962,"Delta":126655044},{"NoteNumber":53,"Velocity":34,"Duration":122860,"SoundDuration":122860,"Delta":126892969},{"NoteNumber":64,"Velocity":37,"Duration":117105,"SoundDuration":117105,"Delta":127138690},{"NoteNumber":67,"Velocity":45,"Duration":117105,"SoundDuration":117105,"Delta":127138690},{"NoteNumber":52,"Velocity":31,"Duration":468421,"SoundDuration":468421,"Delta":127138690},{"NoteNumber":67,"Velocity":41,"Duration":117105,"SoundDuration":117105,"Delta":127372900},{"NoteNumber":64,"Velocity":35,"Duration":117105,"SoundDuration":117105,"Delta":127372900},{"NoteNumber":62,"Velocity":37,"Duration":118962,"SoundDuration":118962,"Delta":127607111},{"NoteNumber":65,"Velocity":45,"Duration":118962,"SoundDuration":118962,"Delta":127607111},{"NoteNumber":65,"Velocity":36,"Duration":119626,"SoundDuration":119626,"Delta":127845036},{"NoteNumber":62,"Velocity":30,"Duration":119626,"SoundDuration":119626,"Delta":127845036},{"NoteNumber":60,"Velocity":37,"Duration":470256,"SoundDuration":470256,"Delta":128084290},{"NoteNumber":64,"Velocity":45,"Duration":470256,"SoundDuration":470256,"Delta":128084290},{"NoteNumber":57,"Velocity":40,"Duration":117563,"SoundDuration":117563,"Delta":128084290},{"NoteNumber":57,"Velocity":36,"Duration":117563,"SoundDuration":117563,"Delta":128319418},{"NoteNumber":55,"Velocity":40,"Duration":118962,"SoundDuration":118962,"Delta":128554546},{"NoteNumber":55,"Velocity":34,"Duration":122860,"SoundDuration":122860,"Delta":128792471},{"NoteNumber":69,"Velocity":61,"Duration":118026,"SoundDuration":118026,"Delta":129038192},{"NoteNumber":65,"Velocity":51,"Duration":118026,"SoundDuration":118026,"Delta":129038192},{"NoteNumber":53,"Velocity":40,"Duration":118026,"SoundDuration":118026,"Delta":129038192},{"NoteNumber":65,"Velocity":45,"Duration":118026,"SoundDuration":118026,"Delta":129274245},{"NoteNumber":69,"Velocity":54,"Duration":118026,"SoundDuration":118026,"Delta":129274245},{"NoteNumber":53,"Velocity":36,"Duration":118026,"SoundDuration":118026,"Delta":129274245},{"NoteNumber":73,"Velocity":66,"Duration":117563,"SoundDuration":117563,"Delta":129510298},{"NoteNumber":67,"Velocity":55,"Duration":117563,"SoundDuration":117563,"Delta":129510298},{"NoteNumber":52,"Velocity":43,"Duration":117563,"SoundDuration":117563,"Delta":129510298},{"NoteNumber":67,"Velocity":48,"Duration":115304,"SoundDuration":115304,"Delta":129745426},{"NoteNumber":73,"Velocity":58,"Duration":115304,"SoundDuration":115304,"Delta":129745426},{"NoteNumber":52,"Velocity":36,"Duration":115304,"SoundDuration":115304,"Delta":129745426},{"NoteNumber":74,"Velocity":68,"Duration":118492,"SoundDuration":118492,"Delta":129976035},{"NoteNumber":65,"Velocity":58,"Duration":118492,"SoundDuration":118492,"Delta":129976035},{"NoteNumber":50,"Velocity":32,"Duration":471184,"SoundDuration":471184,"Delta":129976035},{"NoteNumber":65,"Velocity":48,"Duration":117564,"SoundDuration":117564,"Delta":130212092},{"NoteNumber":74,"Velocity":57,"Duration":117564,"SoundDuration":117564,"Delta":130212092},{"NoteNumber":66,"Velocity":56,"Duration":117563,"SoundDuration":117563,"Delta":130447220},{"NoteNumber":72,"Velocity":67,"Duration":117563,"SoundDuration":117563,"Delta":130447220},{"NoteNumber":66,"Velocity":51,"Duration":116649,"SoundDuration":116649,"Delta":130682348},{"NoteNumber":72,"Velocity":62,"Duration":116649,"SoundDuration":116649,"Delta":130682348},{"NoteNumber":71,"Velocity":68,"Duration":117563,"SoundDuration":117563,"Delta":130915648},{"NoteNumber":67,"Velocity":57,"Duration":117563,"SoundDuration":117563,"Delta":130915648},{"NoteNumber":55,"Velocity":44,"Duration":117563,"SoundDuration":117563,"Delta":130915648},{"NoteNumber":67,"Velocity":51,"Duration":117563,"SoundDuration":117563,"Delta":131150776},{"NoteNumber":71,"Velocity":61,"Duration":117563,"SoundDuration":117563,"Delta":131150776},{"NoteNumber":55,"Velocity":41,"Duration":117563,"SoundDuration":117563,"Delta":131150776},{"NoteNumber":75,"Velocity":71,"Duration":117563,"SoundDuration":117563,"Delta":131385904},{"NoteNumber":69,"Velocity":59,"Duration":117563,"SoundDuration":117563,"Delta":131385904},{"NoteNumber":53,"Velocity":46,"Duration":117563,"SoundDuration":117563,"Delta":131385904},{"NoteNumber":69,"Velocity":52,"Duration":118492,"SoundDuration":118492,"Delta":131621032},{"NoteNumber":75,"Velocity":63,"Duration":118492,"SoundDuration":118492,"Delta":131621032},{"NoteNumber":53,"Velocity":39,"Duration":118492,"SoundDuration":118492,"Delta":131621032},{"NoteNumber":76,"Velocity":71,"Duration":118026,"SoundDuration":118026,"Delta":131858017},{"NoteNumber":68,"Velocity":60,"Duration":118026,"SoundDuration":118026,"Delta":131858017},{"NoteNumber":52,"Velocity":47,"Duration":118026,"SoundDuration":118026,"Delta":131858017},{"NoteNumber":68,"Velocity":54,"Duration":118026,"SoundDuration":118026,"Delta":132094070},{"NoteNumber":76,"Velocity":64,"Duration":118026,"SoundDuration":118026,"Delta":132094070},{"NoteNumber":52,"Velocity":43,"Duration":118026,"SoundDuration":118026,"Delta":132094070},{"NoteNumber":68,"Velocity":62,"Duration":118962,"SoundDuration":118962,"Delta":132330123},{"NoteNumber":76,"Velocity":75,"Duration":118962,"SoundDuration":118962,"Delta":132330123},{"NoteNumber":71,"Velocity":62,"Duration":118962,"SoundDuration":118962,"Delta":132330123},{"NoteNumber":50,"Velocity":48,"Duration":118962,"SoundDuration":118962,"Delta":132330123},{"NoteNumber":68,"Velocity":55,"Duration":117105,"SoundDuration":117105,"Delta":132568049},{"NoteNumber":71,"Velocity":55,"Duration":117105,"SoundDuration":117105,"Delta":132568049},{"NoteNumber":76,"Velocity":66,"Duration":117105,"SoundDuration":117105,"Delta":132568049},{"NoteNumber":50,"Velocity":41,"Duration":117105,"SoundDuration":117105,"Delta":132568049},{"NoteNumber":72,"Velocity":63,"Duration":118026,"SoundDuration":118026,"Delta":132802259},{"NoteNumber":76,"Velocity":76,"Duration":118026,"SoundDuration":118026,"Delta":132802259},{"NoteNumber":69,"Velocity":63,"Duration":118026,"SoundDuration":118026,"Delta":132802259},{"NoteNumber":48,"Velocity":50,"Duration":118026,"SoundDuration":118026,"Delta":132802259},{"NoteNumber":72,"Velocity":56,"Duration":118026,"SoundDuration":118026,"Delta":133038312},{"NoteNumber":69,"Velocity":56,"Duration":118026,"SoundDuration":118026,"Delta":133038312},{"NoteNumber":76,"Velocity":67,"Duration":118026,"SoundDuration":118026,"Delta":133038312},{"NoteNumber":48,"Velocity":45,"Duration":118026,"SoundDuration":118026,"Delta":133038312},{"NoteNumber":71,"Velocity":65,"Duration":118026,"SoundDuration":118026,"Delta":133274365},{"NoteNumber":76,"Velocity":77,"Duration":118026,"SoundDuration":118026,"Delta":133274365},{"NoteNumber":74,"Velocity":65,"Duration":118026,"SoundDuration":118026,"Delta":133274365},{"NoteNumber":47,"Velocity":50,"Duration":118026,"SoundDuration":118026,"Delta":133274365},{"NoteNumber":74,"Velocity":56,"Duration":118026,"SoundDuration":118026,"Delta":133510418},{"NoteNumber":71,"Velocity":56,"Duration":118026,"SoundDuration":118026,"Delta":133510418},{"NoteNumber":76,"Velocity":67,"Duration":118026,"SoundDuration":118026,"Delta":133510418},{"NoteNumber":47,"Velocity":42,"Duration":118026,"SoundDuration":118026,"Delta":133510418},{"NoteNumber":72,"Velocity":63,"Duration":117563,"SoundDuration":117563,"Delta":133745094},{"NoteNumber":76,"Velocity":76,"Duration":117563,"SoundDuration":117563,"Delta":133745094},{"NoteNumber":45,"Velocity":50,"Duration":117563,"SoundDuration":117563,"Delta":133745094},{"NoteNumber":72,"Velocity":56,"Duration":117563,"SoundDuration":117563,"Delta":133980222},{"NoteNumber":76,"Velocity":67,"Duration":117563,"SoundDuration":117563,"Delta":133980222},{"NoteNumber":45,"Velocity":45,"Duration":117563,"SoundDuration":117563,"Delta":133980222},{"NoteNumber":76,"Velocity":83,"Duration":118962,"SoundDuration":118962,"Delta":134215350},{"NoteNumber":73,"Velocity":70,"Duration":118962,"SoundDuration":118962,"Delta":134215350},{"NoteNumber":43,"Velocity":54,"Duration":118962,"SoundDuration":118962,"Delta":134215350},{"NoteNumber":73,"Velocity":60,"Duration":118962,"SoundDuration":118962,"Delta":134453276},{"NoteNumber":76,"Velocity":72,"Duration":118962,"SoundDuration":118962,"Delta":134453276},{"NoteNumber":43,"Velocity":45,"Duration":118962,"SoundDuration":118962,"Delta":134453276},{"NoteNumber":74,"Velocity":68,"Duration":118026,"SoundDuration":118026,"Delta":134691201},{"NoteNumber":77,"Velocity":82,"Duration":118026,"SoundDuration":118026,"Delta":134691201},{"NoteNumber":41,"Velocity":54,"Duration":118026,"SoundDuration":118026,"Delta":134691201},{"NoteNumber":74,"Velocity":60,"Duration":118026,"SoundDuration":118026,"Delta":134927254},{"NoteNumber":77,"Velocity":72,"Duration":118026,"SoundDuration":118026,"Delta":134927254},{"NoteNumber":41,"Velocity":48,"Duration":118026,"SoundDuration":118026,"Delta":134927254},{"NoteNumber":79,"Velocity":83,"Duration":118962,"SoundDuration":118962,"Delta":135163307},{"NoteNumber":76,"Velocity":70,"Duration":118962,"SoundDuration":118962,"Delta":135163307},{"NoteNumber":40,"Velocity":54,"Duration":118962,"SoundDuration":118962,"Delta":135163307},{"NoteNumber":76,"Velocity":60,"Duration":118962,"SoundDuration":118962,"Delta":135401233},{"NoteNumber":79,"Velocity":72,"Duration":118962,"SoundDuration":118962,"Delta":135401233},{"NoteNumber":40,"Velocity":45,"Duration":118962,"SoundDuration":118962,"Delta":135401233},{"NoteNumber":81,"Velocity":87,"Duration":242910,"SoundDuration":242910,"Delta":135643561},{"NoteNumber":77,"Velocity":73,"Duration":242910,"SoundDuration":242910,"Delta":135643561},{"NoteNumber":38,"Velocity":61,"Duration":242910,"SoundDuration":242910,"Delta":135643561},{"NoteNumber":79,"Velocity":80,"Duration":243306,"SoundDuration":243306,"Delta":135886471},{"NoteNumber":76,"Velocity":68,"Duration":243306,"SoundDuration":243306,"Delta":135886471},{"NoteNumber":40,"Velocity":51,"Duration":243306,"SoundDuration":243306,"Delta":135886471},{"NoteNumber":77,"Velocity":86,"Duration":245617,"SoundDuration":245617,"Delta":136129778},{"NoteNumber":74,"Velocity":73,"Duration":245617,"SoundDuration":245617,"Delta":136129778},{"NoteNumber":41,"Velocity":63,"Duration":245617,"SoundDuration":245617,"Delta":136129778},{"NoteNumber":76,"Velocity":81,"Duration":248067,"SoundDuration":248067,"Delta":136375395},{"NoteNumber":72,"Velocity":68,"Duration":248067,"SoundDuration":248067,"Delta":136375395},{"NoteNumber":42,"Velocity":56,"Duration":248067,"SoundDuration":248067,"Delta":136375395},{"NoteNumber":71,"Velocity":73,"Duration":249189,"SoundDuration":249189,"Delta":136623463},{"NoteNumber":74,"Velocity":87,"Duration":249189,"SoundDuration":249189,"Delta":136623463},{"NoteNumber":43,"Velocity":66,"Duration":124594,"SoundDuration":124594,"Delta":136623463},{"NoteNumber":43,"Velocity":55,"Duration":124594,"SoundDuration":124594,"Delta":136872653},{"NoteNumber":77,"Velocity":79,"Duration":122060,"SoundDuration":122060,"Delta":137121843},{"NoteNumber":71,"Velocity":67,"Duration":122060,"SoundDuration":122060,"Delta":137121843},{"NoteNumber":43,"Velocity":64,"Duration":122060,"SoundDuration":122060,"Delta":137121843},{"NoteNumber":71,"Velocity":61,"Duration":122060,"SoundDuration":122060,"Delta":137365964},{"NoteNumber":77,"Velocity":72,"Duration":122060,"SoundDuration":122060,"Delta":137365964},{"NoteNumber":43,"Velocity":55,"Duration":122060,"SoundDuration":122060,"Delta":137365964},{"NoteNumber":76,"Velocity":79,"Duration":250229,"SoundDuration":250229,"Delta":137610085},{"NoteNumber":72,"Velocity":67,"Duration":250229,"SoundDuration":250229,"Delta":137610085},{"NoteNumber":43,"Velocity":63,"Duration":125114,"SoundDuration":125114,"Delta":137610085},{"NoteNumber":43,"Velocity":56,"Duration":125114,"SoundDuration":125114,"Delta":137860314},{"NoteNumber":72,"Velocity":78,"Duration":122558,"SoundDuration":122558,"Delta":138110544},{"NoteNumber":66,"Velocity":66,"Duration":122558,"SoundDuration":122558,"Delta":138110544},{"NoteNumber":43,"Velocity":66,"Duration":122558,"SoundDuration":122558,"Delta":138110544},{"NoteNumber":66,"Velocity":58,"Duration":122558,"SoundDuration":122558,"Delta":138355662},{"NoteNumber":72,"Velocity":69,"Duration":122558,"SoundDuration":122558,"Delta":138355662},{"NoteNumber":43,"Velocity":57,"Duration":122558,"SoundDuration":122558,"Delta":138355662},{"NoteNumber":67,"Velocity":66,"Duration":250229,"SoundDuration":250229,"Delta":138600780},{"NoteNumber":71,"Velocity":78,"Duration":250229,"SoundDuration":250229,"Delta":138600780},{"NoteNumber":43,"Velocity":66,"Duration":125114,"SoundDuration":125114,"Delta":138600780},{"NoteNumber":43,"Velocity":55,"Duration":125114,"SoundDuration":125114,"Delta":138851009},{"NoteNumber":59,"Velocity":62,"Duration":122558,"SoundDuration":122558,"Delta":139101239},{"NoteNumber":65,"Velocity":74,"Duration":122558,"SoundDuration":122558,"Delta":139101239},{"NoteNumber":43,"Velocity":64,"Duration":122558,"SoundDuration":122558,"Delta":139101239},{"NoteNumber":65,"Velocity":65,"Duration":122558,"SoundDuration":122558,"Delta":139346357},{"NoteNumber":59,"Velocity":55,"Duration":122558,"SoundDuration":122558,"Delta":139346357},{"NoteNumber":43,"Velocity":55,"Duration":122558,"SoundDuration":122558,"Delta":139346357},{"NoteNumber":60,"Velocity":62,"Duration":252333,"SoundDuration":252333,"Delta":139591475},{"NoteNumber":64,"Velocity":74,"Duration":252333,"SoundDuration":252333,"Delta":139591475},{"NoteNumber":43,"Velocity":63,"Duration":126167,"SoundDuration":126167,"Delta":139591475},{"NoteNumber":43,"Velocity":56,"Duration":126167,"SoundDuration":126167,"Delta":139843809},{"NoteNumber":54,"Velocity":62,"Duration":123568,"SoundDuration":123568,"Delta":140096143},{"NoteNumber":60,"Velocity":74,"Duration":123568,"SoundDuration":123568,"Delta":140096143},{"NoteNumber":43,"Velocity":66,"Duration":123568,"SoundDuration":123568,"Delta":140096143},{"NoteNumber":54,"Velocity":56,"Duration":123568,"SoundDuration":123568,"Delta":140343280},{"NoteNumber":60,"Velocity":66,"Duration":123568,"SoundDuration":123568,"Delta":140343280},{"NoteNumber":43,"Velocity":57,"Duration":123568,"SoundDuration":123568,"Delta":140343280},{"NoteNumber":55,"Velocity":64,"Duration":253399,"SoundDuration":253399,"Delta":140593549},{"NoteNumber":59,"Velocity":76,"Duration":253399,"SoundDuration":253399,"Delta":140593549},{"NoteNumber":43,"Velocity":66,"Duration":253399,"SoundDuration":253399,"Delta":140593549},{"NoteNumber":59,"Velocity":73,"Duration":253399,"SoundDuration":253399,"Delta":141100349},{"NoteNumber":62,"Velocity":73,"Duration":253399,"SoundDuration":253399,"Delta":141100349},{"NoteNumber":67,"Velocity":87,"Duration":253399,"SoundDuration":253399,"Delta":141100349},{"NoteNumber":43,"Velocity":66,"Duration":253399,"SoundDuration":253399,"Delta":141100349},{"NoteNumber":59,"Velocity":73,"Duration":253399,"SoundDuration":253399,"Delta":141607149},{"NoteNumber":62,"Velocity":73,"Duration":253399,"SoundDuration":253399,"Delta":141607149},{"NoteNumber":67,"Velocity":87,"Duration":253399,"SoundDuration":253399,"Delta":141607149},{"NoteNumber":43,"Velocity":66,"Duration":253399,"SoundDuration":253399,"Delta":141607149},{"NoteNumber":84,"Velocity":58,"Duration":478337,"SoundDuration":478337,"Delta":142620749},{"NoteNumber":60,"Velocity":40,"Duration":234210,"SoundDuration":234210,"Delta":142620749},{"NoteNumber":64,"Velocity":31,"Duration":244127,"SoundDuration":244127,"Delta":142854959},{"NoteNumber":86,"Velocity":55,"Duration":117105,"SoundDuration":117105,"Delta":143099086},{"NoteNumber":67,"Velocity":39,"Duration":234210,"SoundDuration":234210,"Delta":143099086},{"NoteNumber":84,"Velocity":46,"Duration":117105,"SoundDuration":117105,"Delta":143216192},{"NoteNumber":83,"Velocity":50,"Duration":117105,"SoundDuration":117105,"Delta":143333297},{"NoteNumber":81,"Velocity":46,"Duration":117105,"SoundDuration":117105,"Delta":143450402},{"NoteNumber":79,"Velocity":57,"Duration":471454,"SoundDuration":471454,"Delta":143567507},{"NoteNumber":60,"Velocity":40,"Duration":232395,"SoundDuration":232395,"Delta":143567507},{"NoteNumber":64,"Velocity":30,"Duration":239058,"SoundDuration":239058,"Delta":143799903},{"NoteNumber":81,"Velocity":54,"Duration":116649,"SoundDuration":116649,"Delta":144038962},{"NoteNumber":67,"Velocity":36,"Duration":233299,"SoundDuration":233299,"Delta":144038962},{"NoteNumber":79,"Velocity":42,"Duration":116649,"SoundDuration":116649,"Delta":144155611},{"NoteNumber":77,"Velocity":53,"Duration":116649,"SoundDuration":116649,"Delta":144272261},{"NoteNumber":76,"Velocity":50,"Duration":119436,"SoundDuration":119436,"Delta":144388911},{"NoteNumber":74,"Velocity":55,"Duration":121368,"SoundDuration":121368,"Delta":144508347},{"NoteNumber":60,"Velocity":40,"Duration":237566,"SoundDuration":237566,"Delta":144508347},{"NoteNumber":76,"Velocity":42,"Duration":58098,"SoundDuration":58098,"Delta":144687815},{"NoteNumber":74,"Velocity":50,"Duration":116197,"SoundDuration":116197,"Delta":144745914},{"NoteNumber":65,"Velocity":32,"Duration":232395,"SoundDuration":232395,"Delta":144745914},{"NoteNumber":73,"Velocity":47,"Duration":116197,"SoundDuration":116197,"Delta":144862112},{"NoteNumber":74,"Velocity":50,"Duration":116197,"SoundDuration":116197,"Delta":144978310},{"NoteNumber":69,"Velocity":38,"Duration":232396,"SoundDuration":232396,"Delta":144978310},{"NoteNumber":76,"Velocity":46,"Duration":118492,"SoundDuration":118492,"Delta":145210706},{"NoteNumber":77,"Velocity":50,"Duration":238443,"SoundDuration":238443,"Delta":145453074},{"NoteNumber":60,"Velocity":40,"Duration":238443,"SoundDuration":238443,"Delta":145453074},{"NoteNumber":65,"Velocity":33,"Duration":232395,"SoundDuration":232395,"Delta":145691518},{"NoteNumber":69,"Velocity":36,"Duration":232395,"SoundDuration":232395,"Delta":145923914},{"NoteNumber":89,"Velocity":55,"Duration":116198,"SoundDuration":116198,"Delta":146156310},{"NoteNumber":88,"Velocity":49,"Duration":116197,"SoundDuration":116197,"Delta":146272508},{"NoteNumber":86,"Velocity":55,"Duration":113951,"SoundDuration":113951,"Delta":146388706},{"NoteNumber":59,"Velocity":40,"Duration":228268,"SoundDuration":228268,"Delta":146388706},{"NoteNumber":88,"Velocity":53,"Duration":114316,"SoundDuration":114316,"Delta":146502657},{"NoteNumber":86,"Velocity":55,"Duration":115072,"SoundDuration":115072,"Delta":146616974},{"NoteNumber":62,"Velocity":31,"Duration":230660,"SoundDuration":230660,"Delta":146616974},{"NoteNumber":88,"Velocity":54,"Duration":115587,"SoundDuration":115587,"Delta":146732047},{"NoteNumber":89,"Velocity":62,"Duration":113366,"SoundDuration":113366,"Delta":146847634},{"NoteNumber":67,"Velocity":39,"Duration":227770,"SoundDuration":227770,"Delta":146847634},{"NoteNumber":88,"Velocity":54,"Duration":114404,"SoundDuration":114404,"Delta":146961001},{"NoteNumber":86,"Velocity":55,"Duration":115460,"SoundDuration":115460,"Delta":147075405},{"NoteNumber":88,"Velocity":53,"Duration":122630,"SoundDuration":122630,"Delta":147190866},{"NoteNumber":89,"Velocity":62,"Duration":113558,"SoundDuration":113558,"Delta":147313496},{"NoteNumber":59,"Velocity":40,"Duration":227495,"SoundDuration":227495,"Delta":147313496},{"NoteNumber":88,"Velocity":55,"Duration":113936,"SoundDuration":113936,"Delta":147427055},{"NoteNumber":86,"Velocity":55,"Duration":114370,"SoundDuration":114370,"Delta":147540992},{"NoteNumber":62,"Velocity":30,"Duration":229179,"SoundDuration":229179,"Delta":147540992},{"NoteNumber":84,"Velocity":54,"Duration":114808,"SoundDuration":114808,"Delta":147655363},{"NoteNumber":83,"Velocity":61,"Duration":115249,"SoundDuration":115249,"Delta":147770171},{"NoteNumber":67,"Velocity":36,"Duration":230854,"SoundDuration":230854,"Delta":147770171},{"NoteNumber":81,"Velocity":55,"Duration":115605,"SoundDuration":115605,"Delta":147885421},{"NoteNumber":79,"Velocity":58,"Duration":116052,"SoundDuration":116052,"Delta":148001026},{"NoteNumber":77,"Velocity":54,"Duration":116502,"SoundDuration":116502,"Delta":148117078},{"NoteNumber":76,"Velocity":55,"Duration":241759,"SoundDuration":241759,"Delta":148233581},{"NoteNumber":60,"Velocity":40,"Duration":241759,"SoundDuration":241759,"Delta":148233581},{"NoteNumber":64,"Velocity":32,"Duration":234921,"SoundDuration":234921,"Delta":148475341},{"NoteNumber":67,"Velocity":38,"Duration":248326,"SoundDuration":248326,"Delta":148710262},{"NoteNumber":72,"Velocity":47,"Duration":116888,"SoundDuration":116888,"Delta":148841700},{"NoteNumber":74,"Velocity":48,"Duration":116435,"SoundDuration":116435,"Delta":148958589},{"NoteNumber":76,"Velocity":50,"Duration":115895,"SoundDuration":115895,"Delta":149075024},{"NoteNumber":77,"Velocity":52,"Duration":115449,"SoundDuration":115449,"Delta":149190919},{"NoteNumber":79,"Velocity":52,"Duration":114918,"SoundDuration":114918,"Delta":149306369},{"NoteNumber":81,"Velocity":54,"Duration":114447,"SoundDuration":114447,"Delta":149421287},{"NoteNumber":83,"Velocity":55,"Duration":113699,"SoundDuration":113699,"Delta":149535734},{"NoteNumber":84,"Velocity":56,"Duration":113473,"SoundDuration":113473,"Delta":149649434},{"NoteNumber":86,"Velocity":55,"Duration":121458,"SoundDuration":121458,"Delta":149762907},{"NoteNumber":88,"Velocity":61,"Duration":122702,"SoundDuration":122702,"Delta":149884365},{"NoteNumber":86,"Velocity":57,"Duration":126641,"SoundDuration":126641,"Delta":150007068},{"NoteNumber":84,"Velocity":61,"Duration":230609,"SoundDuration":230609,"Delta":150133709},{"NoteNumber":57,"Velocity":40,"Duration":230609,"SoundDuration":230609,"Delta":150133709},{"NoteNumber":60,"Velocity":32,"Duration":230609,"SoundDuration":230609,"Delta":150364319},{"NoteNumber":64,"Velocity":38,"Duration":249540,"SoundDuration":249540,"Delta":150594928},{"NoteNumber":72,"Velocity":48,"Duration":118081,"SoundDuration":118081,"Delta":150726387},{"NoteNumber":74,"Velocity":49,"Duration":116689,"SoundDuration":116689,"Delta":150844469},{"NoteNumber":76,"Velocity":52,"Duration":115502,"SoundDuration":115502,"Delta":150961158},{"NoteNumber":77,"Velocity":53,"Duration":114129,"SoundDuration":114129,"Delta":151076661},{"NoteNumber":79,"Velocity":56,"Duration":113559,"SoundDuration":113559,"Delta":151190790},{"NoteNumber":81,"Velocity":56,"Duration":113558,"SoundDuration":113558,"Delta":151304349},{"NoteNumber":83,"Velocity":57,"Duration":113559,"SoundDuration":113559,"Delta":151417908},{"NoteNumber":84,"Velocity":58,"Duration":115753,"SoundDuration":115753,"Delta":151531467},{"NoteNumber":86,"Velocity":61,"Duration":118205,"SoundDuration":118205,"Delta":151647220},{"NoteNumber":88,"Velocity":64,"Duration":120702,"SoundDuration":120702,"Delta":151765426},{"NoteNumber":86,"Velocity":70,"Duration":123370,"SoundDuration":123370,"Delta":151886129},{"NoteNumber":84,"Velocity":77,"Duration":118026,"SoundDuration":118026,"Delta":152009499},{"NoteNumber":52,"Velocity":54,"Duration":236052,"SoundDuration":236052,"Delta":152009499},{"NoteNumber":84,"Velocity":70,"Duration":121368,"SoundDuration":121368,"Delta":152245552},{"NoteNumber":60,"Velocity":40,"Duration":242738,"SoundDuration":242738,"Delta":152245552},{"NoteNumber":79,"Velocity":70,"Duration":118026,"SoundDuration":118026,"Delta":152488290},{"NoteNumber":52,"Velocity":45,"Duration":236052,"SoundDuration":236052,"Delta":152488290},{"NoteNumber":79,"Velocity":63,"Duration":118026,"SoundDuration":118026,"Delta":152724343},{"NoteNumber":60,"Velocity":40,"Duration":236052,"SoundDuration":236052,"Delta":152724343},{"NoteNumber":76,"Velocity":70,"Duration":118026,"SoundDuration":118026,"Delta":152960396},{"NoteNumber":52,"Velocity":53,"Duration":236052,"SoundDuration":236052,"Delta":152960396},{"NoteNumber":76,"Velocity":63,"Duration":121368,"SoundDuration":121368,"Delta":153196449},{"NoteNumber":60,"Velocity":40,"Duration":242738,"SoundDuration":242738,"Delta":153196449},{"NoteNumber":74,"Velocity":64,"Duration":118026,"SoundDuration":118026,"Delta":153439187},{"NoteNumber":52,"Velocity":48,"Duration":236052,"SoundDuration":236052,"Delta":153439187},{"NoteNumber":72,"Velocity":57,"Duration":118026,"SoundDuration":118026,"Delta":153557213},{"NoteNumber":71,"Velocity":57,"Duration":118026,"SoundDuration":118026,"Delta":153675240},{"NoteNumber":60,"Velocity":40,"Duration":236052,"SoundDuration":236052,"Delta":153675240},{"NoteNumber":72,"Velocity":58,"Duration":118026,"SoundDuration":118026,"Delta":153793266},{"NoteNumber":69,"Velocity":68,"Duration":117563,"SoundDuration":117563,"Delta":153911293},{"NoteNumber":53,"Velocity":54,"Duration":235128,"SoundDuration":235128,"Delta":153911293},{"NoteNumber":69,"Velocity":68,"Duration":117563,"SoundDuration":117563,"Delta":154146421},{"NoteNumber":60,"Velocity":40,"Duration":235128,"SoundDuration":235128,"Delta":154146421},{"NoteNumber":65,"Velocity":64,"Duration":117563,"SoundDuration":117563,"Delta":154381549},{"NoteNumber":53,"Velocity":45,"Duration":235128,"SoundDuration":235128,"Delta":154381549},{"NoteNumber":65,"Velocity":57,"Duration":117563,"SoundDuration":117563,"Delta":154616677},{"NoteNumber":60,"Velocity":40,"Duration":235128,"SoundDuration":235128,"Delta":154616677},{"NoteNumber":62,"Velocity":65,"Duration":117563,"SoundDuration":117563,"Delta":154851805},{"NoteNumber":53,"Velocity":53,"Duration":235127,"SoundDuration":235127,"Delta":154851805},{"NoteNumber":62,"Velocity":54,"Duration":120879,"SoundDuration":120879,"Delta":155086933},{"NoteNumber":60,"Velocity":40,"Duration":241759,"SoundDuration":241759,"Delta":155086933},{"NoteNumber":69,"Velocity":57,"Duration":117105,"SoundDuration":117105,"Delta":155328693},{"NoteNumber":53,"Velocity":48,"Duration":234210,"SoundDuration":234210,"Delta":155328693},{"NoteNumber":69,"Velocity":52,"Duration":117105,"SoundDuration":117105,"Delta":155562903},{"NoteNumber":60,"Velocity":40,"Duration":234210,"SoundDuration":234210,"Delta":155562903},{"NoteNumber":67,"Velocity":63,"Duration":117105,"SoundDuration":117105,"Delta":155797114},{"NoteNumber":55,"Velocity":54,"Duration":234210,"SoundDuration":234210,"Delta":155797114},{"NoteNumber":67,"Velocity":58,"Duration":117105,"SoundDuration":117105,"Delta":156031324},{"NoteNumber":60,"Velocity":40,"Duration":234210,"SoundDuration":234210,"Delta":156031324},{"NoteNumber":69,"Velocity":63,"Duration":117105,"SoundDuration":117105,"Delta":156265535},{"NoteNumber":55,"Velocity":45,"Duration":234210,"SoundDuration":234210,"Delta":156265535},{"NoteNumber":67,"Velocity":56,"Duration":117105,"SoundDuration":117105,"Delta":156382640},{"NoteNumber":65,"Velocity":58,"Duration":122358,"SoundDuration":122358,"Delta":156499745},{"NoteNumber":60,"Velocity":40,"Duration":244697,"SoundDuration":244697,"Delta":156499745},{"NoteNumber":64,"Velocity":56,"Duration":122338,"SoundDuration":122338,"Delta":156622104},{"NoteNumber":62,"Velocity":47,"Duration":81138,"SoundDuration":81138,"Delta":156744442},{"NoteNumber":55,"Velocity":53,"Duration":241029,"SoundDuration":241029,"Delta":156744442},{"NoteNumber":64,"Velocity":43,"Duration":80365,"SoundDuration":80365,"Delta":156825581},{"NoteNumber":62,"Velocity":50,"Duration":79526,"SoundDuration":79526,"Delta":156905946},{"NoteNumber":64,"Velocity":46,"Duration":78685,"SoundDuration":78685,"Delta":156985472},{"NoteNumber":59,"Velocity":40,"Duration":234844,"SoundDuration":234844,"Delta":156985472},{"NoteNumber":62,"Velocity":54,"Duration":78089,"SoundDuration":78089,"Delta":157064157},{"NoteNumber":64,"Velocity":53,"Duration":78070,"SoundDuration":78070,"Delta":157142247},{"NoteNumber":62,"Velocity":57,"Duration":78070,"SoundDuration":78070,"Delta":157220317},{"NoteNumber":55,"Velocity":48,"Duration":234613,"SoundDuration":234613,"Delta":157220317},{"NoteNumber":64,"Velocity":53,"Duration":78070,"SoundDuration":78070,"Delta":157298387},{"NoteNumber":62,"Velocity":56,"Duration":78472,"SoundDuration":78472,"Delta":157376457},{"NoteNumber":64,"Velocity":51,"Duration":59403,"SoundDuration":59403,"Delta":157454930},{"NoteNumber":59,"Velocity":33,"Duration":240324,"SoundDuration":240324,"Delta":157454930},{"NoteNumber":62,"Velocity":56,"Duration":59877,"SoundDuration":59877,"Delta":157514333},{"NoteNumber":60,"Velocity":49,"Duration":60359,"SoundDuration":60359,"Delta":157574211},{"NoteNumber":62,"Velocity":49,"Duration":60684,"SoundDuration":60684,"Delta":157634570},{"NoteNumber":64,"Velocity":60,"Duration":241759,"SoundDuration":241759,"Delta":157695255},{"NoteNumber":48,"Velocity":40,"Duration":241759,"SoundDuration":241759,"Delta":157695255},{"NoteNumber":52,"Velocity":32,"Duration":234921,"SoundDuration":234921,"Delta":157937015},{"NoteNumber":55,"Velocity":38,"Duration":248326,"SoundDuration":248326,"Delta":158171936},{"NoteNumber":60,"Velocity":47,"Duration":116888,"SoundDuration":116888,"Delta":158303373},{"NoteNumber":62,"Velocity":48,"Duration":116435,"SoundDuration":116435,"Delta":158420262},{"NoteNumber":64,"Velocity":50,"Duration":115895,"SoundDuration":115895,"Delta":158536697},{"NoteNumber":65,"Velocity":52,"Duration":115449,"SoundDuration":115449,"Delta":158652593},{"NoteNumber":67,"Velocity":52,"Duration":114918,"SoundDuration":114918,"Delta":158768042},{"NoteNumber":69,"Velocity":54,"Duration":114447,"SoundDuration":114447,"Delta":158882961},{"NoteNumber":71,"Velocity":55,"Duration":113699,"SoundDuration":113699,"Delta":158997408},{"NoteNumber":72,"Velocity":56,"Duration":113473,"SoundDuration":113473,"Delta":159111107},{"NoteNumber":74,"Velocity":55,"Duration":121458,"SoundDuration":121458,"Delta":159224581},{"NoteNumber":76,"Velocity":61,"Duration":122702,"SoundDuration":122702,"Delta":159346039},{"NoteNumber":74,"Velocity":57,"Duration":126641,"SoundDuration":126641,"Delta":159468741},{"NoteNumber":72,"Velocity":61,"Duration":230609,"SoundDuration":230609,"Delta":159595383},{"NoteNumber":45,"Velocity":40,"Duration":230609,"SoundDuration":230609,"Delta":159595383},{"NoteNumber":48,"Velocity":32,"Duration":230609,"SoundDuration":230609,"Delta":159825992},{"NoteNumber":52,"Velocity":38,"Duration":249540,"SoundDuration":249540,"Delta":160056602},{"NoteNumber":60,"Velocity":48,"Duration":118081,"SoundDuration":118081,"Delta":160188061},{"NoteNumber":62,"Velocity":49,"Duration":116689,"SoundDuration":116689,"Delta":160306143},{"NoteNumber":64,"Velocity":52,"Duration":115502,"SoundDuration":115502,"Delta":160422832},{"NoteNumber":65,"Velocity":53,"Duration":114129,"SoundDuration":114129,"Delta":160538334},{"NoteNumber":67,"Velocity":56,"Duration":113559,"SoundDuration":113559,"Delta":160652464},{"NoteNumber":69,"Velocity":56,"Duration":113558,"SoundDuration":113558,"Delta":160766023},{"NoteNumber":71,"Velocity":57,"Duration":113559,"SoundDuration":113559,"Delta":160879582},{"NoteNumber":72,"Velocity":58,"Duration":115753,"SoundDuration":115753,"Delta":160993141},{"NoteNumber":74,"Velocity":61,"Duration":118205,"SoundDuration":118205,"Delta":161108894},{"NoteNumber":76,"Velocity":64,"Duration":120702,"SoundDuration":120702,"Delta":161227100},{"NoteNumber":77,"Velocity":70,"Duration":123370,"SoundDuration":123370,"Delta":161347802},{"NoteNumber":79,"Velocity":74,"Duration":126699,"SoundDuration":126699,"Delta":161471172},{"NoteNumber":40,"Velocity":40,"Duration":253399,"SoundDuration":253399,"Delta":161471172},{"NoteNumber":79,"Velocity":61,"Duration":126699,"SoundDuration":126699,"Delta":161724572},{"NoteNumber":48,"Velocity":22,"Duration":244726,"SoundDuration":244726,"Delta":161724572},{"NoteNumber":40,"Velocity":26,"Duration":236052,"SoundDuration":236052,"Delta":161969299},{"NoteNumber":76,"Velocity":45,"Duration":118026,"SoundDuration":118026,"Delta":162205352},{"NoteNumber":48,"Velocity":21,"Duration":236052,"SoundDuration":236052,"Delta":162205352},{"NoteNumber":40,"Velocity":33,"Duration":237925,"SoundDuration":237925,"Delta":162441405},{"NoteNumber":72,"Velocity":57,"Duration":118962,"SoundDuration":118962,"Delta":162679330},{"NoteNumber":48,"Velocity":31,"Duration":237925,"SoundDuration":237925,"Delta":162679330},{"NoteNumber":40,"Velocity":39,"Duration":243723,"SoundDuration":243723,"Delta":162917256},{"NoteNumber":68,"Velocity":63,"Duration":130332,"SoundDuration":130332,"Delta":163160980},{"NoteNumber":48,"Velocity":35,"Duration":260665,"SoundDuration":260665,"Delta":163160980},{"NoteNumber":41,"Velocity":49,"Duration":237925,"SoundDuration":237925,"Delta":163421645},{"NoteNumber":69,"Velocity":56,"Duration":118962,"SoundDuration":118962,"Delta":163659571},{"NoteNumber":48,"Velocity":41,"Duration":237925,"SoundDuration":237925,"Delta":163659571},{"NoteNumber":68,"Velocity":50,"Duration":118962,"SoundDuration":118962,"Delta":163778533},{"NoteNumber":69,"Velocity":57,"Duration":119374,"SoundDuration":119374,"Delta":163897496},{"NoteNumber":41,"Velocity":49,"Duration":239201,"SoundDuration":239201,"Delta":163897496},{"NoteNumber":71,"Velocity":60,"Duration":119826,"SoundDuration":119826,"Delta":164016871},{"NoteNumber":72,"Velocity":61,"Duration":119349,"SoundDuration":119349,"Delta":164136697},{"NoteNumber":48,"Velocity":39,"Duration":238226,"SoundDuration":238226,"Delta":164136697},{"NoteNumber":71,"Velocity":55,"Duration":118876,"SoundDuration":118876,"Delta":164256047},{"NoteNumber":69,"Velocity":61,"Duration":118407,"SoundDuration":118407,"Delta":164374923},{"NoteNumber":41,"Velocity":49,"Duration":236433,"SoundDuration":236433,"Delta":164374923},{"NoteNumber":67,"Velocity":53,"Duration":118026,"SoundDuration":118026,"Delta":164493331},{"NoteNumber":65,"Velocity":56,"Duration":118345,"SoundDuration":118345,"Delta":164611357},{"NoteNumber":48,"Velocity":39,"Duration":237041,"SoundDuration":237041,"Delta":164611357},{"NoteNumber":64,"Velocity":51,"Duration":118696,"SoundDuration":118696,"Delta":164729702},{"NoteNumber":62,"Velocity":56,"Duration":119049,"SoundDuration":119049,"Delta":164848399},{"NoteNumber":41,"Velocity":49,"Duration":238485,"SoundDuration":238485,"Delta":164848399},{"NoteNumber":60,"Velocity":60,"Duration":119436,"SoundDuration":119436,"Delta":164967448},{"NoteNumber":59,"Velocity":63,"Duration":119881,"SoundDuration":119881,"Delta":165086884},{"NoteNumber":48,"Velocity":40,"Duration":247443,"SoundDuration":247443,"Delta":165086884},{"NoteNumber":57,"Velocity":65,"Duration":127561,"SoundDuration":127561,"Delta":165206766},{"NoteNumber":55,"Velocity":72,"Duration":121578,"SoundDuration":121578,"Delta":165334328},{"NoteNumber":43,"Velocity":49,"Duration":242735,"SoundDuration":242735,"Delta":165334328},{"NoteNumber":60,"Velocity":56,"Duration":121157,"SoundDuration":121157,"Delta":165455906},{"NoteNumber":64,"Velocity":56,"Duration":120339,"SoundDuration":120339,"Delta":165577063},{"NoteNumber":48,"Velocity":41,"Duration":239926,"SoundDuration":239926,"Delta":165577063},{"NoteNumber":67,"Velocity":56,"Duration":119587,"SoundDuration":119587,"Delta":165697403},{"NoteNumber":65,"Velocity":59,"Duration":118790,"SoundDuration":118790,"Delta":165816990},{"NoteNumber":43,"Velocity":49,"Duration":237283,"SoundDuration":237283,"Delta":165816990},{"NoteNumber":64,"Velocity":50,"Duration":118492,"SoundDuration":118492,"Delta":165935781},{"NoteNumber":62,"Velocity":50,"Duration":118492,"SoundDuration":118492,"Delta":166054273},{"NoteNumber":48,"Velocity":39,"Duration":236985,"SoundDuration":236985,"Delta":166054273},{"NoteNumber":60,"Velocity":50,"Duration":118492,"SoundDuration":118492,"Delta":166172766},{"NoteNumber":62,"Velocity":51,"Duration":81138,"SoundDuration":81138,"Delta":166291259},{"NoteNumber":43,"Velocity":53,"Duration":241029,"SoundDuration":241029,"Delta":166291259},{"NoteNumber":64,"Velocity":47,"Duration":80365,"SoundDuration":80365,"Delta":166372398},{"NoteNumber":62,"Velocity":55,"Duration":79526,"SoundDuration":79526,"Delta":166452763},{"NoteNumber":64,"Velocity":50,"Duration":78685,"SoundDuration":78685,"Delta":166532289},{"NoteNumber":47,"Velocity":40,"Duration":234844,"SoundDuration":234844,"Delta":166532289},{"NoteNumber":62,"Velocity":59,"Duration":78089,"SoundDuration":78089,"Delta":166610974},{"NoteNumber":64,"Velocity":58,"Duration":78070,"SoundDuration":78070,"Delta":166689063},{"NoteNumber":62,"Velocity":62,"Duration":78070,"SoundDuration":78070,"Delta":166767133},{"NoteNumber":43,"Velocity":48,"Duration":234613,"SoundDuration":234613,"Delta":166767133},{"NoteNumber":64,"Velocity":58,"Duration":78070,"SoundDuration":78070,"Delta":166845203},{"NoteNumber":62,"Velocity":61,"Duration":78472,"SoundDuration":78472,"Delta":166923274},{"NoteNumber":64,"Velocity":56,"Duration":59403,"SoundDuration":59403,"Delta":167001747},{"NoteNumber":47,"Velocity":33,"Duration":240324,"SoundDuration":240324,"Delta":167001747},{"NoteNumber":62,"Velocity":61,"Duration":59877,"SoundDuration":59877,"Delta":167061150},{"NoteNumber":60,"Velocity":53,"Duration":60359,"SoundDuration":60359,"Delta":167121027},{"NoteNumber":62,"Velocity":53,"Duration":60684,"SoundDuration":60684,"Delta":167181387},{"NoteNumber":60,"Velocity":68,"Duration":242738,"SoundDuration":242738,"Delta":167242071},{"NoteNumber":36,"Velocity":58,"Duration":121369,"SoundDuration":121369,"Delta":167242071},{"NoteNumber":48,"Velocity":55,"Duration":121369,"SoundDuration":121369,"Delta":167484809},{"NoteNumber":55,"Velocity":67,"Duration":121368,"SoundDuration":121368,"Delta":167741707},{"NoteNumber":55,"Velocity":62,"Duration":121369,"SoundDuration":121369,"Delta":167970285},{"NoteNumber":52,"Velocity":57,"Duration":115304,"SoundDuration":115304,"Delta":168213023},{"NoteNumber":60,"Velocity":68,"Duration":115304,"SoundDuration":115304,"Delta":168213023},{"NoteNumber":36,"Velocity":58,"Duration":115304,"SoundDuration":115304,"Delta":168213023},{"NoteNumber":48,"Velocity":52,"Duration":120879,"SoundDuration":120879,"Delta":168443633},{"NoteNumber":55,"Velocity":64,"Duration":120879,"SoundDuration":120879,"Delta":168685393},{"NoteNumber":55,"Velocity":68,"Duration":120879,"SoundDuration":120879,"Delta":168927153},{"NoteNumber":53,"Velocity":57,"Duration":115304,"SoundDuration":115304,"Delta":169168913},{"NoteNumber":62,"Velocity":68,"Duration":115304,"SoundDuration":115304,"Delta":169168913},{"NoteNumber":36,"Velocity":58,"Duration":115304,"SoundDuration":115304,"Delta":169168913},{"NoteNumber":48,"Velocity":52,"Duration":125638,"SoundDuration":125638,"Delta":169399522},{"NoteNumber":55,"Velocity":37,"Duration":120588,"SoundDuration":120588,"Delta":169650800},{"NoteNumber":55,"Velocity":29,"Duration":120588,"SoundDuration":120588,"Delta":169891977},{"NoteNumber":50,"Velocity":31,"Duration":115749,"SoundDuration":115749,"Delta":170133154},{"NoteNumber":59,"Velocity":37,"Duration":115749,"SoundDuration":115749,"Delta":170133154},{"NoteNumber":36,"Velocity":30,"Duration":115749,"SoundDuration":115749,"Delta":170133154},{"NoteNumber":48,"Velocity":23,"Duration":133821,"SoundDuration":133821,"Delta":170364653},{"NoteNumber":55,"Velocity":69,"Duration":129210,"SoundDuration":129210,"Delta":170632295},{"NoteNumber":55,"Velocity":79,"Duration":148824,"SoundDuration":148824,"Delta":170890715},{"NoteNumber":60,"Velocity":74,"Duration":636335,"SoundDuration":636335,"Delta":171188364},{"NoteNumber":52,"Velocity":62,"Duration":636335,"SoundDuration":636335,"Delta":171188364},{"NoteNumber":36,"Velocity":49,"Duration":636335,"SoundDuration":636335,"Delta":171188364},{"NoteNumber":48,"Velocity":58,"Duration":636335,"SoundDuration":636335,"Delta":171188364},{"NoteNumber":60,"Velocity":62,"Duration":851052,"SoundDuration":851052,"Delta":171824699},{"NoteNumber":52,"Velocity":52,"Duration":851052,"SoundDuration":851052,"Delta":171824699},{"NoteNumber":36,"Velocity":49,"Duration":851052,"SoundDuration":851052,"Delta":171824699},{"NoteNumber":48,"Velocity":58,"Duration":851052,"SoundDuration":851052,"Delta":171824699},{"NoteNumber":52,"Velocity":57,"Duration":738098,"SoundDuration":738098,"Delta":172675751},{"NoteNumber":60,"Velocity":68,"Duration":738098,"SoundDuration":738098,"Delta":172675751},{"NoteNumber":48,"Velocity":58,"Duration":738098,"SoundDuration":738098,"Delta":172675751},{"NoteNumber":36,"Velocity":49,"Duration":738098,"SoundDuration":738098,"Delta":172675751}],"license":{"name":"Creative Commons Attribution-ShareAlike 3.0 Germany","url":"http://creativecommons.org/licenses/by-sa/3.0/de/deed.en","text":"The MIDI, audio (MP3, OGG) and video files of Bernd Krueger are licensed under the cc-by-sa Germany License. This means that you can use and adapt the files, as long as you attribute the copyright holder.\n\nName: Bernd Krueger\nSource: http://www.piano-midi.de\n\nThe distribution or public playback of the files is only allowed under identical license conditions.\n\nThe scores are open source.","attribution":"MIDI files by Bernd Krueger (piano-midi.de)","attributionUrl":"http://www.piano-midi.de"}}