{"title":"Sonatine Opus 36 Nr. 1, 2. Satz","artist":"Clementi","durationMs":68215,"midiSha256":"f22f91ba163c1980cfce622336ae2cd6534db796e73a818e76c54433ab78d6bd","midiObject":[{"NoteNumber":72,"Velocity":50,"Duration":1754642,"SoundDuration":1754642,"Delta":0},{"NoteNumber":53,"Velocity":24,"Duration":292440,"SoundDuration":292440,"Delta":0},{"NoteNumber":57,"Velocity":20,"Duration":292440,"SoundDuration":292440,"Delta":292440},{"NoteNumber":60,"Velocity":20,"Duration":292440,"SoundDuration":292440,"Delta":584880},{"NoteNumber":53,"Velocity":24,"Duration":292440,"SoundDuration":292440,"Delta":877321},{"NoteNumber":57,"Velocity":20,"Duration":292440,"SoundDuration":292440,"Delta":1169761},{"NoteNumber":60,"Velocity":20,"Duration":292440,"SoundDuration":292440,"Delta":1462201},{"NoteNumber":77,"Velocity":49,"Duration":893094,"SoundDuration":893094,"Delta":1754642},{"NoteNumber":53,"Velocity":24,"Duration":292440,"SoundDuration":292440,"Delta":1754642},{"NoteNumber":57,"Velocity":20,"Duration":292440,"SoundDuration":292440,"Delta":2047082},{"NoteNumber":60,"Velocity":20,"Duration":308214,"SoundDuration":308214,"Delta":2339522},{"NoteNumber":69,"Velocity":50,"Duration":1741908,"SoundDuration":1741908,"Delta":2647736},{"NoteNumber":53,"Velocity":24,"Duration":290318,"SoundDuration":290318,"Delta":2647736},{"NoteNumber":57,"Velocity":20,"Duration":290317,"SoundDuration":290317,"Delta":2938054},{"NoteNumber":60,"Velocity":20,"Duration":290318,"SoundDuration":290318,"Delta":3228372},{"NoteNumber":53,"Velocity":24,"Duration":290318,"SoundDuration":290318,"Delta":3518690},{"NoteNumber":57,"Velocity":20,"Duration":290318,"SoundDuration":290318,"Delta":3809008},{"NoteNumber":60,"Velocity":20,"Duration":290318,"SoundDuration":290318,"Delta":4099326},{"NoteNumber":72,"Velocity":49,"Duration":891243,"SoundDuration":891243,"Delta":4389644},{"NoteNumber":53,"Velocity":24,"Duration":290318,"SoundDuration":290318,"Delta":4389644},{"NoteNumber":57,"Velocity":20,"Duration":290318,"SoundDuration":290318,"Delta":4679962},{"NoteNumber":60,"Velocity":20,"Duration":310607,"SoundDuration":310607,"Delta":4970280},{"NoteNumber":65,"Velocity":44,"Duration":1729856,"SoundDuration":1729856,"Delta":5280887},{"NoteNumber":48,"Velocity":24,"Duration":288225,"SoundDuration":288225,"Delta":5280887},{"NoteNumber":53,"Velocity":20,"Duration":288225,"SoundDuration":288225,"Delta":5569113},{"NoteNumber":57,"Velocity":20,"Duration":288225,"SoundDuration":288225,"Delta":5857339},{"NoteNumber":48,"Velocity":24,"Duration":288225,"SoundDuration":288225,"Delta":6145565},{"NoteNumber":53,"Velocity":21,"Duration":288226,"SoundDuration":288226,"Delta":6433791},{"NoteNumber":57,"Velocity":21,"Duration":288726,"SoundDuration":288726,"Delta":6722017},{"NoteNumber":67,"Velocity":33,"Duration":109638,"SoundDuration":109638,"Delta":7010744},{"NoteNumber":48,"Velocity":24,"Duration":290498,"SoundDuration":290498,"Delta":7010744},{"NoteNumber":69,"Velocity":30,"Duration":108803,"SoundDuration":108803,"Delta":7120383},{"NoteNumber":67,"Velocity":35,"Duration":107994,"SoundDuration":107994,"Delta":7229186},{"NoteNumber":52,"Velocity":20,"Duration":284800,"SoundDuration":284800,"Delta":7301243},{"NoteNumber":69,"Velocity":32,"Duration":107197,"SoundDuration":107197,"Delta":7337181},{"NoteNumber":67,"Velocity":39,"Duration":71032,"SoundDuration":71032,"Delta":7444378},{"NoteNumber":69,"Velocity":33,"Duration":70632,"SoundDuration":70632,"Delta":7515411},{"NoteNumber":67,"Velocity":38,"Duration":70358,"SoundDuration":70358,"Delta":7586043},{"NoteNumber":55,"Velocity":20,"Duration":279534,"SoundDuration":279534,"Delta":7586043},{"NoteNumber":69,"Velocity":35,"Duration":52528,"SoundDuration":52528,"Delta":7656402},{"NoteNumber":67,"Velocity":39,"Duration":52321,"SoundDuration":52321,"Delta":7708930},{"NoteNumber":65,"Velocity":34,"Duration":52163,"SoundDuration":52163,"Delta":7761252},{"NoteNumber":67,"Velocity":34,"Duration":52163,"SoundDuration":52163,"Delta":7813415},{"NoteNumber":69,"Velocity":49,"Duration":840222,"SoundDuration":840222,"Delta":7865578},{"NoteNumber":53,"Velocity":24,"Duration":279919,"SoundDuration":279919,"Delta":7865578},{"NoteNumber":57,"Velocity":20,"Duration":280151,"SoundDuration":280151,"Delta":8145498},{"NoteNumber":60,"Velocity":20,"Duration":280151,"SoundDuration":280151,"Delta":8425649},{"NoteNumber":65,"Velocity":31,"Duration":282127,"SoundDuration":282127,"Delta":8705800},{"NoteNumber":69,"Velocity":34,"Duration":282127,"SoundDuration":282127,"Delta":8987928},{"NoteNumber":72,"Velocity":37,"Duration":290318,"SoundDuration":290318,"Delta":9270055},{"NoteNumber":77,"Velocity":42,"Duration":147297,"SoundDuration":147297,"Delta":9560373},{"NoteNumber":77,"Velocity":39,"Duration":147297,"SoundDuration":147297,"Delta":9854967},{"NoteNumber":77,"Velocity":35,"Duration":147297,"SoundDuration":147297,"Delta":10149562},{"NoteNumber":74,"Velocity":49,"Duration":840453,"SoundDuration":840453,"Delta":10444156},{"NoteNumber":53,"Velocity":24,"Duration":280151,"SoundDuration":280151,"Delta":10444156},{"NoteNumber":58,"Velocity":20,"Duration":280151,"SoundDuration":280151,"Delta":10724307},{"NoteNumber":62,"Velocity":20,"Duration":280151,"SoundDuration":280151,"Delta":11004459},{"NoteNumber":65,"Velocity":31,"Duration":288225,"SoundDuration":288225,"Delta":11284610},{"NoteNumber":70,"Velocity":34,"Duration":288225,"SoundDuration":288225,"Delta":11572836},{"NoteNumber":74,"Velocity":37,"Duration":288225,"SoundDuration":288225,"Delta":11861062},{"NoteNumber":77,"Velocity":42,"Duration":147297,"SoundDuration":147297,"Delta":12149288},{"NoteNumber":77,"Velocity":39,"Duration":147297,"SoundDuration":147297,"Delta":12443882},{"NoteNumber":77,"Velocity":35,"Duration":147297,"SoundDuration":147297,"Delta":12738477},{"NoteNumber":72,"Velocity":49,"Duration":863253,"SoundDuration":863253,"Delta":13033071},{"NoteNumber":53,"Velocity":24,"Duration":282127,"SoundDuration":282127,"Delta":13033071},{"NoteNumber":57,"Velocity":20,"Duration":282127,"SoundDuration":282127,"Delta":13315198},{"NoteNumber":60,"Velocity":20,"Duration":298998,"SoundDuration":298998,"Delta":13597326},{"NoteNumber":81,"Velocity":53,"Duration":280151,"SoundDuration":280151,"Delta":13896324},{"NoteNumber":53,"Velocity":24,"Duration":280151,"SoundDuration":280151,"Delta":13896324},{"NoteNumber":79,"Velocity":42,"Duration":280151,"SoundDuration":280151,"Delta":14176475},{"NoteNumber":57,"Velocity":20,"Duration":280151,"SoundDuration":280151,"Delta":14176475},{"NoteNumber":77,"Velocity":42,"Duration":280151,"SoundDuration":280151,"Delta":14456627},{"NoteNumber":60,"Velocity":23,"Duration":280151,"SoundDuration":280151,"Delta":14456627},{"NoteNumber":76,"Velocity":51,"Duration":280151,"SoundDuration":280151,"Delta":14736778},{"NoteNumber":53,"Velocity":24,"Duration":280151,"SoundDuration":280151,"Delta":14736778},{"NoteNumber":74,"Velocity":42,"Duration":280151,"SoundDuration":280151,"Delta":15016929},{"NoteNumber":57,"Velocity":21,"Duration":280151,"SoundDuration":280151,"Delta":15016929},{"NoteNumber":72,"Velocity":42,"Duration":294594,"SoundDuration":294594,"Delta":15297081},{"NoteNumber":60,"Velocity":21,"Duration":294594,"SoundDuration":294594,"Delta":15297081},{"NoteNumber":72,"Velocity":51,"Duration":278202,"SoundDuration":278202,"Delta":15591675},{"NoteNumber":58,"Velocity":37,"Duration":834608,"SoundDuration":834608,"Delta":15591675},{"NoteNumber":64,"Velocity":46,"Duration":278202,"SoundDuration":278202,"Delta":15869878},{"NoteNumber":67,"Velocity":47,"Duration":278202,"SoundDuration":278202,"Delta":16148080},{"NoteNumber":72,"Velocity":57,"Duration":272516,"SoundDuration":272516,"Delta":16426283},{"NoteNumber":57,"Velocity":40,"Duration":817550,"SoundDuration":817550,"Delta":16426283},{"NoteNumber":65,"Velocity":49,"Duration":272516,"SoundDuration":272516,"Delta":16698800},{"NoteNumber":69,"Velocity":49,"Duration":272516,"SoundDuration":272516,"Delta":16971316},{"NoteNumber":72,"Velocity":62,"Duration":274385,"SoundDuration":274385,"Delta":17243833},{"NoteNumber":53,"Velocity":45,"Duration":850022,"SoundDuration":850022,"Delta":17243833},{"NoteNumber":65,"Velocity":53,"Duration":274385,"SoundDuration":274385,"Delta":17518219},{"NoteNumber":69,"Velocity":51,"Duration":301250,"SoundDuration":301250,"Delta":17792605},{"NoteNumber":72,"Velocity":62,"Duration":630340,"SoundDuration":630340,"Delta":18093855},{"NoteNumber":48,"Velocity":45,"Duration":280151,"SoundDuration":280151,"Delta":18093855},{"NoteNumber":53,"Velocity":39,"Duration":280151,"SoundDuration":280151,"Delta":18374007},{"NoteNumber":57,"Velocity":39,"Duration":294286,"SoundDuration":294286,"Delta":18654158},{"NoteNumber":69,"Velocity":48,"Duration":224248,"SoundDuration":224248,"Delta":18724196},{"NoteNumber":67,"Velocity":43,"Duration":846381,"SoundDuration":846381,"Delta":18948444},{"NoteNumber":48,"Velocity":31,"Duration":282127,"SoundDuration":282127,"Delta":18948444},{"NoteNumber":52,"Velocity":26,"Duration":282127,"SoundDuration":282127,"Delta":19230572},{"NoteNumber":55,"Velocity":26,"Duration":282127,"SoundDuration":282127,"Delta":19512699},{"NoteNumber":48,"Velocity":31,"Duration":282127,"SoundDuration":282127,"Delta":19794826},{"NoteNumber":52,"Velocity":29,"Duration":282127,"SoundDuration":282127,"Delta":20076954},{"NoteNumber":55,"Velocity":30,"Duration":296779,"SoundDuration":296779,"Delta":20359081},{"NoteNumber":74,"Velocity":43,"Duration":141063,"SoundDuration":141063,"Delta":20655861},{"NoteNumber":77,"Velocity":51,"Duration":141063,"SoundDuration":141063,"Delta":20655861},{"NoteNumber":43,"Velocity":40,"Duration":1675225,"SoundDuration":1675225,"Delta":20655861},{"NoteNumber":77,"Velocity":48,"Duration":141063,"SoundDuration":141063,"Delta":20937988},{"NoteNumber":74,"Velocity":40,"Duration":141063,"SoundDuration":141063,"Delta":20937988},{"NoteNumber":77,"Velocity":48,"Duration":141063,"SoundDuration":141063,"Delta":21220116},{"NoteNumber":74,"Velocity":40,"Duration":141063,"SoundDuration":141063,"Delta":21220116},{"NoteNumber":72,"Velocity":43,"Duration":138140,"SoundDuration":138140,"Delta":21502243},{"NoteNumber":76,"Velocity":51,"Duration":138140,"SoundDuration":138140,"Delta":21502243},{"NoteNumber":76,"Velocity":45,"Duration":138140,"SoundDuration":138140,"Delta":21778524},{"NoteNumber":72,"Velocity":38,"Duration":138140,"SoundDuration":138140,"Delta":21778524},{"NoteNumber":76,"Velocity":45,"Duration":138140,"SoundDuration":138140,"Delta":22054806},{"NoteNumber":72,"Velocity":38,"Duration":138140,"SoundDuration":138140,"Delta":22054806},{"NoteNumber":71,"Velocity":36,"Duration":138140,"SoundDuration":138140,"Delta":22331087},{"NoteNumber":74,"Velocity":43,"Duration":138140,"SoundDuration":138140,"Delta":22331087},{"NoteNumber":53,"Velocity":45,"Duration":849342,"SoundDuration":849342,"Delta":22331087},{"NoteNumber":71,"Velocity":42,"Duration":138140,"SoundDuration":138140,"Delta":22607368},{"NoteNumber":74,"Velocity":50,"Duration":138140,"SoundDuration":138140,"Delta":22607368},{"NoteNumber":71,"Velocity":45,"Duration":148389,"SoundDuration":148389,"Delta":22883650},{"NoteNumber":74,"Velocity":54,"Duration":148389,"SoundDuration":148389,"Delta":22883650},{"NoteNumber":79,"Velocity":67,"Duration":840454,"SoundDuration":840454,"Delta":23180430},{"NoteNumber":52,"Velocity":36,"Duration":280151,"SoundDuration":280151,"Delta":23180430},{"NoteNumber":55,"Velocity":29,"Duration":280151,"SoundDuration":280151,"Delta":23460581},{"NoteNumber":60,"Velocity":29,"Duration":280151,"SoundDuration":280151,"Delta":23740732},{"NoteNumber":67,"Velocity":51,"Duration":280151,"SoundDuration":280151,"Delta":24020884},{"NoteNumber":52,"Velocity":40,"Duration":1693196,"SoundDuration":1693196,"Delta":24020884},{"NoteNumber":69,"Velocity":48,"Duration":280151,"SoundDuration":280151,"Delta":24301035},{"NoteNumber":71,"Velocity":48,"Duration":280151,"SoundDuration":280151,"Delta":24581186},{"NoteNumber":72,"Velocity":51,"Duration":280151,"SoundDuration":280151,"Delta":24861338},{"NoteNumber":74,"Velocity":47,"Duration":280151,"SoundDuration":280151,"Delta":25141489},{"NoteNumber":76,"Velocity":47,"Duration":292440,"SoundDuration":292440,"Delta":25421640},{"NoteNumber":69,"Velocity":51,"Duration":280151,"SoundDuration":280151,"Delta":25714081},{"NoteNumber":53,"Velocity":40,"Duration":840454,"SoundDuration":840454,"Delta":25714081},{"NoteNumber":77,"Velocity":47,"Duration":280151,"SoundDuration":280151,"Delta":25994232},{"NoteNumber":74,"Velocity":46,"Duration":280151,"SoundDuration":280151,"Delta":26274383},{"NoteNumber":72,"Velocity":55,"Duration":140075,"SoundDuration":140075,"Delta":26554535},{"NoteNumber":64,"Velocity":46,"Duration":140075,"SoundDuration":140075,"Delta":26554535},{"NoteNumber":55,"Velocity":40,"Duration":840453,"SoundDuration":840453,"Delta":26554535},{"NoteNumber":72,"Velocity":48,"Duration":140075,"SoundDuration":140075,"Delta":26834686},{"NoteNumber":64,"Velocity":40,"Duration":140075,"SoundDuration":140075,"Delta":26834686},{"NoteNumber":72,"Velocity":46,"Duration":140075,"SoundDuration":140075,"Delta":27114837},{"NoteNumber":64,"Velocity":39,"Duration":140075,"SoundDuration":140075,"Delta":27114837},{"NoteNumber":71,"Velocity":54,"Duration":140075,"SoundDuration":140075,"Delta":27394989},{"NoteNumber":62,"Velocity":45,"Duration":140075,"SoundDuration":140075,"Delta":27394989},{"NoteNumber":43,"Velocity":35,"Duration":878318,"SoundDuration":878318,"Delta":27394989},{"NoteNumber":71,"Velocity":46,"Duration":140075,"SoundDuration":140075,"Delta":27675140},{"NoteNumber":62,"Velocity":39,"Duration":140075,"SoundDuration":140075,"Delta":27675140},{"NoteNumber":71,"Velocity":46,"Duration":159007,"SoundDuration":159007,"Delta":27955291},{"NoteNumber":62,"Velocity":39,"Duration":159007,"SoundDuration":159007,"Delta":27955291},{"NoteNumber":74,"Velocity":58,"Duration":1729714,"SoundDuration":1729714,"Delta":28273307},{"NoteNumber":65,"Velocity":49,"Duration":1729714,"SoundDuration":1729714,"Delta":28273307},{"NoteNumber":36,"Velocity":40,"Duration":852394,"SoundDuration":852394,"Delta":28273307},{"NoteNumber":43,"Velocity":35,"Duration":877320,"SoundDuration":877320,"Delta":29125701},{"NoteNumber":64,"Velocity":38,"Duration":924641,"SoundDuration":924641,"Delta":30003022},{"NoteNumber":72,"Velocity":45,"Duration":924641,"SoundDuration":924641,"Delta":30003022},{"NoteNumber":48,"Velocity":39,"Duration":924641,"SoundDuration":924641,"Delta":30003022},{"NoteNumber":72,"Velocity":43,"Duration":284131,"SoundDuration":284131,"Delta":30927664},{"NoteNumber":72,"Velocity":45,"Duration":284131,"SoundDuration":284131,"Delta":31211795},{"NoteNumber":72,"Velocity":49,"Duration":284131,"SoundDuration":284131,"Delta":31495927},{"NoteNumber":75,"Velocity":54,"Duration":282127,"SoundDuration":282127,"Delta":31780058},{"NoteNumber":74,"Velocity":49,"Duration":282127,"SoundDuration":282127,"Delta":32062185},{"NoteNumber":72,"Velocity":48,"Duration":282127,"SoundDuration":282127,"Delta":32344313},{"NoteNumber":70,"Velocity":43,"Duration":280151,"SoundDuration":280151,"Delta":32626440},{"NoteNumber":69,"Velocity":39,"Duration":280151,"SoundDuration":280151,"Delta":32906591},{"NoteNumber":67,"Velocity":39,"Duration":305857,"SoundDuration":305857,"Delta":33186743},{"NoteNumber":66,"Velocity":47,"Duration":284131,"SoundDuration":284131,"Delta":33492600},{"NoteNumber":60,"Velocity":37,"Duration":852393,"SoundDuration":852393,"Delta":33492600},{"NoteNumber":69,"Velocity":41,"Duration":284131,"SoundDuration":284131,"Delta":33776731},{"NoteNumber":62,"Velocity":41,"Duration":284131,"SoundDuration":284131,"Delta":34060862},{"NoteNumber":67,"Velocity":48,"Duration":280151,"SoundDuration":280151,"Delta":34344994},{"NoteNumber":58,"Velocity":34,"Duration":840454,"SoundDuration":840454,"Delta":34344994},{"NoteNumber":70,"Velocity":39,"Duration":280151,"SoundDuration":280151,"Delta":34625145},{"NoteNumber":62,"Velocity":39,"Duration":280151,"SoundDuration":280151,"Delta":34905296},{"NoteNumber":69,"Velocity":51,"Duration":280151,"SoundDuration":280151,"Delta":35185448},{"NoteNumber":54,"Velocity":38,"Duration":857082,"SoundDuration":857082,"Delta":35185448},{"NoteNumber":72,"Velocity":43,"Duration":280151,"SoundDuration":280151,"Delta":35465599},{"NoteNumber":62,"Velocity":43,"Duration":296780,"SoundDuration":296780,"Delta":35745750},{"NoteNumber":70,"Velocity":43,"Duration":248653,"SoundDuration":248653,"Delta":36042530},{"NoteNumber":70,"Velocity":45,"Duration":248653,"SoundDuration":248653,"Delta":36318812},{"NoteNumber":70,"Velocity":49,"Duration":248653,"SoundDuration":248653,"Delta":36595093},{"NoteNumber":74,"Velocity":54,"Duration":276281,"SoundDuration":276281,"Delta":36881735},{"NoteNumber":72,"Velocity":48,"Duration":276281,"SoundDuration":276281,"Delta":37147656},{"NoteNumber":70,"Velocity":48,"Duration":276281,"SoundDuration":276281,"Delta":37423937},{"NoteNumber":69,"Velocity":43,"Duration":280151,"SoundDuration":280151,"Delta":37700218},{"NoteNumber":67,"Velocity":39,"Duration":280151,"SoundDuration":280151,"Delta":37980370},{"NoteNumber":65,"Velocity":39,"Duration":305857,"SoundDuration":305857,"Delta":38260521},{"NoteNumber":64,"Velocity":47,"Duration":276281,"SoundDuration":276281,"Delta":38566378},{"NoteNumber":58,"Velocity":37,"Duration":828843,"SoundDuration":828843,"Delta":38566378},{"NoteNumber":67,"Velocity":41,"Duration":276281,"SoundDuration":276281,"Delta":38842659},{"NoteNumber":60,"Velocity":41,"Duration":276281,"SoundDuration":276281,"Delta":39118941},{"NoteNumber":65,"Velocity":48,"Duration":276281,"SoundDuration":276281,"Delta":39395222},{"NoteNumber":57,"Velocity":34,"Duration":842880,"SoundDuration":842880,"Delta":39395222},{"NoteNumber":69,"Velocity":39,"Duration":276281,"SoundDuration":276281,"Delta":39671503},{"NoteNumber":72,"Velocity":39,"Duration":290317,"SoundDuration":290317,"Delta":39947785},{"NoteNumber":69,"Velocity":43,"Duration":280151,"SoundDuration":280151,"Delta":40238103},{"NoteNumber":72,"Velocity":51,"Duration":280151,"SoundDuration":280151,"Delta":40238103},{"NoteNumber":53,"Velocity":38,"Duration":854897,"SoundDuration":854897,"Delta":40238103},{"NoteNumber":67,"Velocity":37,"Duration":280151,"SoundDuration":280151,"Delta":40518254},{"NoteNumber":70,"Velocity":43,"Duration":280151,"SoundDuration":280151,"Delta":40518254},{"NoteNumber":65,"Velocity":35,"Duration":294594,"SoundDuration":294594,"Delta":40798405},{"NoteNumber":69,"Velocity":43,"Duration":294594,"SoundDuration":294594,"Delta":40798405},{"NoteNumber":65,"Velocity":43,"Duration":852393,"SoundDuration":852393,"Delta":41093000},{"NoteNumber":69,"Velocity":51,"Duration":852393,"SoundDuration":852393,"Delta":41093000},{"NoteNumber":48,"Velocity":37,"Duration":284131,"SoundDuration":284131,"Delta":41093000},{"NoteNumber":60,"Velocity":31,"Duration":284131,"SoundDuration":284131,"Delta":41377131},{"NoteNumber":60,"Velocity":31,"Duration":284131,"SoundDuration":284131,"Delta":41661262},{"NoteNumber":64,"Velocity":29,"Duration":284131,"SoundDuration":284131,"Delta":41945394},{"NoteNumber":67,"Velocity":35,"Duration":284131,"SoundDuration":284131,"Delta":41945394},{"NoteNumber":60,"Velocity":37,"Duration":852394,"SoundDuration":852394,"Delta":41945394},{"NoteNumber":69,"Velocity":36,"Duration":213098,"SoundDuration":213098,"Delta":42229525},{"NoteNumber":72,"Velocity":43,"Duration":213098,"SoundDuration":213098,"Delta":42229525},{"NoteNumber":69,"Velocity":36,"Duration":213098,"SoundDuration":213098,"Delta":42513656},{"NoteNumber":72,"Velocity":43,"Duration":213098,"SoundDuration":213098,"Delta":42513656},{"NoteNumber":69,"Velocity":39,"Duration":284131,"SoundDuration":284131,"Delta":42797788},{"NoteNumber":72,"Velocity":47,"Duration":284131,"SoundDuration":284131,"Delta":42797788},{"NoteNumber":70,"Velocity":42,"Duration":284131,"SoundDuration":284131,"Delta":43081919},{"NoteNumber":67,"Velocity":35,"Duration":284131,"SoundDuration":284131,"Delta":43081919},{"NoteNumber":69,"Velocity":41,"Duration":310607,"SoundDuration":310607,"Delta":43366050},{"NoteNumber":65,"Velocity":34,"Duration":310607,"SoundDuration":310607,"Delta":43366050},{"NoteNumber":65,"Velocity":43,"Duration":852393,"SoundDuration":852393,"Delta":43676658},{"NoteNumber":69,"Velocity":51,"Duration":852393,"SoundDuration":852393,"Delta":43676658},{"NoteNumber":48,"Velocity":37,"Duration":284131,"SoundDuration":284131,"Delta":43676658},{"NoteNumber":60,"Velocity":31,"Duration":284131,"SoundDuration":284131,"Delta":43960789},{"NoteNumber":60,"Velocity":31,"Duration":284131,"SoundDuration":284131,"Delta":44244920},{"NoteNumber":64,"Velocity":29,"Duration":870953,"SoundDuration":870953,"Delta":44529052},{"NoteNumber":67,"Velocity":35,"Duration":870953,"SoundDuration":870953,"Delta":44529052},{"NoteNumber":60,"Velocity":37,"Duration":290317,"SoundDuration":290317,"Delta":44529052},{"NoteNumber":62,"Velocity":32,"Duration":290317,"SoundDuration":290317,"Delta":44819370},{"NoteNumber":60,"Velocity":32,"Duration":290317,"SoundDuration":290317,"Delta":45109688},{"NoteNumber":58,"Velocity":37,"Duration":290317,"SoundDuration":290317,"Delta":45400006},{"NoteNumber":57,"Velocity":35,"Duration":290318,"SoundDuration":290318,"Delta":45690324},{"NoteNumber":55,"Velocity":31,"Duration":290317,"SoundDuration":290317,"Delta":45980642},{"NoteNumber":72,"Velocity":52,"Duration":1729356,"SoundDuration":1729356,"Delta":46270960},{"NoteNumber":53,"Velocity":24,"Duration":288226,"SoundDuration":288226,"Delta":46270960},{"NoteNumber":57,"Velocity":20,"Duration":288226,"SoundDuration":288226,"Delta":46559186},{"NoteNumber":60,"Velocity":20,"Duration":288225,"SoundDuration":288225,"Delta":46847412},{"NoteNumber":53,"Velocity":24,"Duration":288226,"SoundDuration":288226,"Delta":47135638},{"NoteNumber":57,"Velocity":20,"Duration":288226,"SoundDuration":288226,"Delta":47423864},{"NoteNumber":60,"Velocity":20,"Duration":288226,"SoundDuration":288226,"Delta":47712090},{"NoteNumber":77,"Velocity":50,"Duration":864677,"SoundDuration":864677,"Delta":48000316},{"NoteNumber":53,"Velocity":24,"Duration":288225,"SoundDuration":288225,"Delta":48000316},{"NoteNumber":57,"Velocity":20,"Duration":288226,"SoundDuration":288226,"Delta":48288542},{"NoteNumber":60,"Velocity":20,"Duration":288226,"SoundDuration":288226,"Delta":48576768},{"NoteNumber":69,"Velocity":44,"Duration":1729356,"SoundDuration":1729356,"Delta":48864994},{"NoteNumber":53,"Velocity":24,"Duration":288226,"SoundDuration":288226,"Delta":48864994},{"NoteNumber":57,"Velocity":20,"Duration":288225,"SoundDuration":288225,"Delta":49153220},{"NoteNumber":60,"Velocity":20,"Duration":288226,"SoundDuration":288226,"Delta":49441446},{"NoteNumber":53,"Velocity":24,"Duration":288226,"SoundDuration":288226,"Delta":49729672},{"NoteNumber":57,"Velocity":20,"Duration":288226,"SoundDuration":288226,"Delta":50017898},{"NoteNumber":60,"Velocity":20,"Duration":288226,"SoundDuration":288226,"Delta":50306124},{"NoteNumber":72,"Velocity":46,"Duration":889489,"SoundDuration":889489,"Delta":50594350},{"NoteNumber":53,"Velocity":24,"Duration":288225,"SoundDuration":288225,"Delta":50594350},{"NoteNumber":57,"Velocity":20,"Duration":288226,"SoundDuration":288226,"Delta":50882576},{"NoteNumber":60,"Velocity":20,"Duration":313037,"SoundDuration":313037,"Delta":51170802},{"NoteNumber":63,"Velocity":54,"Duration":1719770,"SoundDuration":1719770,"Delta":51483840},{"NoteNumber":53,"Velocity":26,"Duration":286163,"SoundDuration":286163,"Delta":51483840},{"NoteNumber":57,"Velocity":22,"Duration":286163,"SoundDuration":286163,"Delta":51770004},{"NoteNumber":60,"Velocity":22,"Duration":286163,"SoundDuration":286163,"Delta":52056168},{"NoteNumber":53,"Velocity":27,"Duration":286163,"SoundDuration":286163,"Delta":52342332},{"NoteNumber":57,"Velocity":23,"Duration":286163,"SoundDuration":286163,"Delta":52628496},{"NoteNumber":60,"Velocity":24,"Duration":288950,"SoundDuration":288950,"Delta":52914660},{"NoteNumber":63,"Velocity":33,"Duration":110950,"SoundDuration":110950,"Delta":53203611},{"NoteNumber":53,"Velocity":27,"Duration":294170,"SoundDuration":294170,"Delta":53203611},{"NoteNumber":65,"Velocity":30,"Duration":110109,"SoundDuration":110109,"Delta":53314561},{"NoteNumber":63,"Velocity":36,"Duration":109519,"SoundDuration":109519,"Delta":53424671},{"NoteNumber":57,"Velocity":23,"Duration":288770,"SoundDuration":288770,"Delta":53497781},{"NoteNumber":65,"Velocity":33,"Duration":108699,"SoundDuration":108699,"Delta":53534190},{"NoteNumber":63,"Velocity":41,"Duration":72056,"SoundDuration":72056,"Delta":53642889},{"NoteNumber":65,"Velocity":35,"Duration":71605,"SoundDuration":71605,"Delta":53714946},{"NoteNumber":63,"Velocity":41,"Duration":71540,"SoundDuration":71540,"Delta":53786551},{"NoteNumber":60,"Velocity":25,"Duration":283851,"SoundDuration":283851,"Delta":53786551},{"NoteNumber":65,"Velocity":38,"Duration":53287,"SoundDuration":53287,"Delta":53858092},{"NoteNumber":63,"Velocity":43,"Duration":53262,"SoundDuration":53262,"Delta":53911380},{"NoteNumber":62,"Velocity":38,"Duration":52898,"SoundDuration":52898,"Delta":53964642},{"NoteNumber":63,"Velocity":38,"Duration":52861,"SoundDuration":52861,"Delta":54017541},{"NoteNumber":62,"Velocity":35,"Duration":286163,"SoundDuration":286163,"Delta":54070402},{"NoteNumber":58,"Velocity":33,"Duration":1750451,"SoundDuration":1750451,"Delta":54070402},{"NoteNumber":65,"Velocity":34,"Duration":286163,"SoundDuration":286163,"Delta":54356566},{"NoteNumber":70,"Velocity":37,"Duration":286163,"SoundDuration":286163,"Delta":54642730},{"NoteNumber":74,"Velocity":42,"Duration":144112,"SoundDuration":144112,"Delta":54928894},{"NoteNumber":74,"Velocity":39,"Duration":144112,"SoundDuration":144112,"Delta":55217120},{"NoteNumber":74,"Velocity":35,"Duration":157753,"SoundDuration":157753,"Delta":55505346},{"NoteNumber":74,"Velocity":43,"Duration":864677,"SoundDuration":864677,"Delta":55820854},{"NoteNumber":67,"Velocity":43,"Duration":140075,"SoundDuration":140075,"Delta":56685532},{"NoteNumber":70,"Velocity":51,"Duration":140075,"SoundDuration":140075,"Delta":56685532},{"NoteNumber":36,"Velocity":40,"Duration":1692847,"SoundDuration":1692847,"Delta":56685532},{"NoteNumber":70,"Velocity":48,"Duration":140075,"SoundDuration":140075,"Delta":56965683},{"NoteNumber":67,"Velocity":40,"Duration":140075,"SoundDuration":140075,"Delta":56965683},{"NoteNumber":70,"Velocity":50,"Duration":140075,"SoundDuration":140075,"Delta":57245834},{"NoteNumber":67,"Velocity":42,"Duration":140075,"SoundDuration":140075,"Delta":57245834},{"NoteNumber":65,"Velocity":46,"Duration":142065,"SoundDuration":142065,"Delta":57525986},{"NoteNumber":69,"Velocity":55,"Duration":142065,"SoundDuration":142065,"Delta":57525986},{"NoteNumber":69,"Velocity":49,"Duration":142065,"SoundDuration":142065,"Delta":57810117},{"NoteNumber":65,"Velocity":42,"Duration":142065,"SoundDuration":142065,"Delta":57810117},{"NoteNumber":69,"Velocity":50,"Duration":142065,"SoundDuration":142065,"Delta":58094248},{"NoteNumber":65,"Velocity":42,"Duration":142065,"SoundDuration":142065,"Delta":58094248},{"NoteNumber":64,"Velocity":36,"Duration":142065,"SoundDuration":142065,"Delta":58378380},{"NoteNumber":67,"Velocity":44,"Duration":142065,"SoundDuration":142065,"Delta":58378380},{"NoteNumber":46,"Velocity":52,"Duration":874119,"SoundDuration":874119,"Delta":58378380},{"NoteNumber":64,"Velocity":44,"Duration":142065,"SoundDuration":142065,"Delta":58662511},{"NoteNumber":67,"Velocity":53,"Duration":142065,"SoundDuration":142065,"Delta":58662511},{"NoteNumber":64,"Velocity":48,"Duration":152928,"SoundDuration":152928,"Delta":58946642},{"NoteNumber":67,"Velocity":58,"Duration":152928,"SoundDuration":152928,"Delta":58946642},{"NoteNumber":72,"Velocity":73,"Duration":648508,"SoundDuration":648508,"Delta":59252499},{"NoteNumber":45,"Velocity":45,"Duration":288226,"SoundDuration":288226,"Delta":59252499},{"NoteNumber":48,"Velocity":37,"Duration":288226,"SoundDuration":288226,"Delta":59540725},{"NoteNumber":53,"Velocity":37,"Duration":288225,"SoundDuration":288225,"Delta":59828951},{"NoteNumber":65,"Velocity":58,"Duration":216169,"SoundDuration":216169,"Delta":59901008},{"NoteNumber":77,"Velocity":71,"Duration":284131,"SoundDuration":284131,"Delta":60117177},{"NoteNumber":45,"Velocity":36,"Duration":284131,"SoundDuration":284131,"Delta":60117177},{"NoteNumber":76,"Velocity":57,"Duration":284131,"SoundDuration":284131,"Delta":60401309},{"NoteNumber":48,"Velocity":31,"Duration":284131,"SoundDuration":284131,"Delta":60401309},{"NoteNumber":74,"Velocity":53,"Duration":284131,"SoundDuration":284131,"Delta":60685440},{"NoteNumber":53,"Velocity":31,"Duration":284131,"SoundDuration":284131,"Delta":60685440},{"NoteNumber":72,"Velocity":63,"Duration":284131,"SoundDuration":284131,"Delta":60969571},{"NoteNumber":45,"Velocity":36,"Duration":284131,"SoundDuration":284131,"Delta":60969571},{"NoteNumber":70,"Velocity":57,"Duration":284131,"SoundDuration":284131,"Delta":61253703},{"NoteNumber":48,"Velocity":31,"Duration":284131,"SoundDuration":284131,"Delta":61253703},{"NoteNumber":69,"Velocity":49,"Duration":308213,"SoundDuration":308213,"Delta":61537834},{"NoteNumber":53,"Velocity":31,"Duration":308213,"SoundDuration":308213,"Delta":61537834},{"NoteNumber":67,"Velocity":65,"Duration":282127,"SoundDuration":282127,"Delta":61846048},{"NoteNumber":46,"Velocity":36,"Duration":282127,"SoundDuration":282127,"Delta":61846048},{"NoteNumber":70,"Velocity":57,"Duration":282127,"SoundDuration":282127,"Delta":62128175},{"NoteNumber":50,"Velocity":31,"Duration":282127,"SoundDuration":282127,"Delta":62128175},{"NoteNumber":74,"Velocity":53,"Duration":282127,"SoundDuration":282127,"Delta":62410303},{"NoteNumber":55,"Velocity":31,"Duration":282127,"SoundDuration":282127,"Delta":62410303},{"NoteNumber":65,"Velocity":65,"Duration":873493,"SoundDuration":873493,"Delta":62692430},{"NoteNumber":48,"Velocity":36,"Duration":288226,"SoundDuration":288226,"Delta":62692430},{"NoteNumber":53,"Velocity":31,"Duration":288226,"SoundDuration":288226,"Delta":62980656},{"NoteNumber":57,"Velocity":31,"Duration":297041,"SoundDuration":297041,"Delta":63268882},{"NoteNumber":67,"Velocity":42,"Duration":114333,"SoundDuration":114333,"Delta":63565924},{"NoteNumber":48,"Velocity":31,"Duration":303901,"SoundDuration":303901,"Delta":63565924},{"NoteNumber":69,"Velocity":39,"Duration":113826,"SoundDuration":113826,"Delta":63680257},{"NoteNumber":67,"Velocity":45,"Duration":113397,"SoundDuration":113397,"Delta":63794084},{"NoteNumber":52,"Velocity":26,"Duration":300208,"SoundDuration":300208,"Delta":63869825},{"NoteNumber":69,"Velocity":41,"Duration":112968,"SoundDuration":112968,"Delta":63907481},{"NoteNumber":67,"Velocity":50,"Duration":74834,"SoundDuration":74834,"Delta":64020450},{"NoteNumber":69,"Velocity":42,"Duration":74749,"SoundDuration":74749,"Delta":64095284},{"NoteNumber":67,"Velocity":49,"Duration":74749,"SoundDuration":74749,"Delta":64170033},{"NoteNumber":55,"Velocity":26,"Duration":297034,"SoundDuration":297034,"Delta":64170033},{"NoteNumber":69,"Velocity":45,"Duration":55660,"SoundDuration":55660,"Delta":64244783},{"NoteNumber":67,"Velocity":50,"Duration":55646,"SoundDuration":55646,"Delta":64300443},{"NoteNumber":65,"Velocity":44,"Duration":55646,"SoundDuration":55646,"Delta":64356089},{"NoteNumber":67,"Velocity":44,"Duration":55332,"SoundDuration":55332,"Delta":64411736},{"NoteNumber":65,"Velocity":63,"Duration":3748529,"SoundDuration":3748529,"Delta":64467068},{"NoteNumber":41,"Velocity":36,"Duration":303536,"SoundDuration":303536,"Delta":64467068},{"NoteNumber":45,"Velocity":29,"Duration":303536,"SoundDuration":303536,"Delta":64770604},{"NoteNumber":48,"Velocity":29,"Duration":303536,"SoundDuration":303536,"Delta":65074140},{"NoteNumber":53,"Velocity":36,"Duration":333945,"SoundDuration":333945,"Delta":65377677},{"NoteNumber":48,"Velocity":36,"Duration":364365,"SoundDuration":364365,"Delta":65711622},{"NoteNumber":45,"Velocity":36,"Duration":534902,"SoundDuration":534902,"Delta":66075987},{"NoteNumber":41,"Velocity":36,"Duration":1604707,"SoundDuration":1604707,"Delta":66610890}],"license":{"name":"Creative Commons Attribution-ShareAlike 3.0 Germany","url":"http://creativecommons.org/licenses/by-sa/3.0/de/deed.en","text":"The MIDI, audio (MP3, OGG) and video files of Bernd Krueger are licensed under the cc-by-sa Germany License. This means that you can use and adapt the files, as long as you attribute the copyright holder.\n\nName: Bernd Krueger\nSource: http://www.piano-midi.de\n\nThe distribution or public playback of the files is only allowed under identical license conditions.\n\nThe scores are open source.","attribution":"MIDI files by Bernd Krueger (piano-midi.de)","attributionUrl":"http://www.piano-midi.de"}}