{"title":"Clementi: Sonatine Opus 36 Nr. 4, 2. Satz","artist":"Clementi","durationMs":104059,"midiSha256":"308ce0fabb263fe638ca31edca6205421a8e105ef7b4c1787f78ac7cd37d41c5","midiObject":[{"NoteNumber":62,"Velocity":35,"Duration":563298,"SoundDuration":563298,"Delta":0},{"NoteNumber":65,"Velocity":42,"Duration":563298,"SoundDuration":563298,"Delta":0},{"NoteNumber":46,"Velocity":33,"Duration":1143800,"SoundDuration":1143800,"Delta":0},{"NoteNumber":65,"Velocity":31,"Duration":580502,"SoundDuration":580502,"Delta":563298},{"NoteNumber":62,"Velocity":26,"Duration":580502,"SoundDuration":580502,"Delta":563298},{"NoteNumber":65,"Velocity":39,"Duration":590551,"SoundDuration":590551,"Delta":1143800},{"NoteNumber":62,"Velocity":33,"Duration":590551,"SoundDuration":590551,"Delta":1143800},{"NoteNumber":46,"Velocity":32,"Duration":1224800,"SoundDuration":1224800,"Delta":1143800},{"NoteNumber":65,"Velocity":34,"Duration":634249,"SoundDuration":634249,"Delta":1734351},{"NoteNumber":62,"Velocity":28,"Duration":634249,"SoundDuration":634249,"Delta":1734351},{"NoteNumber":63,"Velocity":37,"Duration":1181559,"SoundDuration":1181559,"Delta":2368601},{"NoteNumber":69,"Velocity":42,"Duration":579150,"SoundDuration":579150,"Delta":2368601},{"NoteNumber":46,"Velocity":35,"Duration":1181559,"SoundDuration":1181559,"Delta":2368601},{"NoteNumber":67,"Velocity":29,"Duration":602409,"SoundDuration":602409,"Delta":2947751},{"NoteNumber":65,"Velocity":29,"Duration":903614,"SoundDuration":903614,"Delta":3550161},{"NoteNumber":62,"Velocity":25,"Duration":903614,"SoundDuration":903614,"Delta":3550161},{"NoteNumber":46,"Velocity":25,"Duration":903614,"SoundDuration":903614,"Delta":3550161},{"NoteNumber":70,"Velocity":53,"Duration":564092,"SoundDuration":564092,"Delta":4754980},{"NoteNumber":74,"Velocity":63,"Duration":564092,"SoundDuration":564092,"Delta":4754980},{"NoteNumber":46,"Velocity":55,"Duration":1149778,"SoundDuration":1149778,"Delta":4754980},{"NoteNumber":72,"Velocity":54,"Duration":585685,"SoundDuration":585685,"Delta":5319072},{"NoteNumber":69,"Velocity":45,"Duration":585685,"SoundDuration":585685,"Delta":5319072},{"NoteNumber":70,"Velocity":57,"Duration":596421,"SoundDuration":596421,"Delta":5904758},{"NoteNumber":67,"Velocity":47,"Duration":596421,"SoundDuration":596421,"Delta":5904758},{"NoteNumber":46,"Velocity":45,"Duration":1224036,"SoundDuration":1224036,"Delta":5904758},{"NoteNumber":69,"Velocity":49,"Duration":575313,"SoundDuration":575313,"Delta":6501180},{"NoteNumber":65,"Velocity":41,"Duration":575313,"SoundDuration":575313,"Delta":6501180},{"NoteNumber":63,"Velocity":42,"Duration":1176058,"SoundDuration":1176058,"Delta":7128795},{"NoteNumber":69,"Velocity":50,"Duration":579636,"SoundDuration":579636,"Delta":7128795},{"NoteNumber":46,"Velocity":42,"Duration":1176058,"SoundDuration":1176058,"Delta":7128795},{"NoteNumber":67,"Velocity":36,"Duration":596421,"SoundDuration":596421,"Delta":7708431},{"NoteNumber":65,"Velocity":39,"Duration":894632,"SoundDuration":894632,"Delta":8304853},{"NoteNumber":62,"Velocity":33,"Duration":894632,"SoundDuration":894632,"Delta":8304853},{"NoteNumber":46,"Velocity":33,"Duration":894632,"SoundDuration":894632,"Delta":8304853},{"NoteNumber":70,"Velocity":53,"Duration":266429,"SoundDuration":266429,"Delta":9497696},{"NoteNumber":62,"Velocity":35,"Duration":1146785,"SoundDuration":1146785,"Delta":9497696},{"NoteNumber":65,"Velocity":42,"Duration":1146785,"SoundDuration":1146785,"Delta":9497696},{"NoteNumber":70,"Velocity":45,"Duration":301204,"SoundDuration":301204,"Delta":10053701},{"NoteNumber":60,"Velocity":31,"Duration":1217038,"SoundDuration":1217038,"Delta":10644481},{"NoteNumber":65,"Velocity":37,"Duration":1217038,"SoundDuration":1217038,"Delta":10644481},{"NoteNumber":69,"Velocity":50,"Duration":608519,"SoundDuration":608519,"Delta":11253001},{"NoteNumber":72,"Velocity":58,"Duration":273722,"SoundDuration":273722,"Delta":11861520},{"NoteNumber":63,"Velocity":35,"Duration":1139734,"SoundDuration":1139734,"Delta":11861520},{"NoteNumber":65,"Velocity":42,"Duration":1139734,"SoundDuration":1139734,"Delta":11861520},{"NoteNumber":72,"Velocity":50,"Duration":292397,"SoundDuration":292397,"Delta":12422050},{"NoteNumber":62,"Velocity":31,"Duration":1181217,"SoundDuration":1181217,"Delta":13001254},{"NoteNumber":65,"Velocity":39,"Duration":1181217,"SoundDuration":1181217,"Delta":13001254},{"NoteNumber":70,"Velocity":61,"Duration":584795,"SoundDuration":584795,"Delta":13597676},{"NoteNumber":74,"Velocity":64,"Duration":563645,"SoundDuration":563645,"Delta":14182471},{"NoteNumber":65,"Velocity":48,"Duration":1172164,"SoundDuration":1172164,"Delta":14182471},{"NoteNumber":57,"Velocity":40,"Duration":1172164,"SoundDuration":1172164,"Delta":14182471},{"NoteNumber":72,"Velocity":58,"Duration":608519,"SoundDuration":608519,"Delta":14746117},{"NoteNumber":75,"Velocity":64,"Duration":573666,"SoundDuration":573666,"Delta":15354636},{"NoteNumber":65,"Velocity":42,"Duration":1214691,"SoundDuration":1214691,"Delta":15354636},{"NoteNumber":58,"Velocity":35,"Duration":1214691,"SoundDuration":1214691,"Delta":15354636},{"NoteNumber":74,"Velocity":58,"Duration":641025,"SoundDuration":641025,"Delta":15928303},{"NoteNumber":77,"Velocity":69,"Duration":912779,"SoundDuration":912779,"Delta":16569328},{"NoteNumber":62,"Velocity":55,"Duration":912779,"SoundDuration":912779,"Delta":16569328},{"NoteNumber":53,"Velocity":46,"Duration":1825558,"SoundDuration":1825558,"Delta":16569328},{"NoteNumber":74,"Velocity":38,"Duration":304259,"SoundDuration":304259,"Delta":17482108},{"NoteNumber":58,"Velocity":29,"Duration":304259,"SoundDuration":304259,"Delta":17482108},{"NoteNumber":72,"Velocity":47,"Duration":456389,"SoundDuration":456389,"Delta":17786367},{"NoteNumber":57,"Velocity":37,"Duration":456389,"SoundDuration":456389,"Delta":17786367},{"NoteNumber":62,"Velocity":35,"Duration":566523,"SoundDuration":566523,"Delta":19003406},{"NoteNumber":65,"Velocity":42,"Duration":566523,"SoundDuration":566523,"Delta":19003406},{"NoteNumber":46,"Velocity":33,"Duration":566523,"SoundDuration":566523,"Delta":19003406},{"NoteNumber":65,"Velocity":31,"Duration":608519,"SoundDuration":608519,"Delta":19569930},{"NoteNumber":62,"Velocity":26,"Duration":608519,"SoundDuration":608519,"Delta":19569930},{"NoteNumber":58,"Velocity":23,"Duration":608519,"SoundDuration":608519,"Delta":19569930},{"NoteNumber":65,"Velocity":39,"Duration":574453,"SoundDuration":574453,"Delta":20178449},{"NoteNumber":62,"Velocity":33,"Duration":574453,"SoundDuration":574453,"Delta":20178449},{"NoteNumber":46,"Velocity":32,"Duration":574453,"SoundDuration":574453,"Delta":20178449},{"NoteNumber":65,"Velocity":34,"Duration":621117,"SoundDuration":621117,"Delta":20752903},{"NoteNumber":62,"Velocity":28,"Duration":621117,"SoundDuration":621117,"Delta":20752903},{"NoteNumber":58,"Velocity":22,"Duration":621117,"SoundDuration":621117,"Delta":20752903},{"NoteNumber":63,"Velocity":37,"Duration":1187204,"SoundDuration":1187204,"Delta":21374021},{"NoteNumber":69,"Velocity":42,"Duration":584795,"SoundDuration":584795,"Delta":21374021},{"NoteNumber":46,"Velocity":35,"Duration":584795,"SoundDuration":584795,"Delta":21374021},{"NoteNumber":67,"Velocity":29,"Duration":602409,"SoundDuration":602409,"Delta":21958816},{"NoteNumber":58,"Velocity":23,"Duration":602409,"SoundDuration":602409,"Delta":21958816},{"NoteNumber":65,"Velocity":33,"Duration":874818,"SoundDuration":874818,"Delta":22561226},{"NoteNumber":62,"Velocity":28,"Duration":874818,"SoundDuration":874818,"Delta":22561226},{"NoteNumber":46,"Velocity":28,"Duration":573613,"SoundDuration":573613,"Delta":22561226},{"NoteNumber":58,"Velocity":22,"Duration":602409,"SoundDuration":602409,"Delta":23134840},{"NoteNumber":74,"Velocity":59,"Duration":565617,"SoundDuration":565617,"Delta":23737249},{"NoteNumber":77,"Velocity":71,"Duration":565617,"SoundDuration":565617,"Delta":23737249},{"NoteNumber":46,"Velocity":55,"Duration":565617,"SoundDuration":565617,"Delta":23737249},{"NoteNumber":76,"Velocity":54,"Duration":602409,"SoundDuration":602409,"Delta":24302867},{"NoteNumber":73,"Velocity":45,"Duration":602409,"SoundDuration":602409,"Delta":24302867},{"NoteNumber":58,"Velocity":42,"Duration":602409,"SoundDuration":602409,"Delta":24302867},{"NoteNumber":75,"Velocity":57,"Duration":565818,"SoundDuration":565818,"Delta":24905276},{"NoteNumber":72,"Velocity":47,"Duration":565818,"SoundDuration":565818,"Delta":24905276},{"NoteNumber":46,"Velocity":45,"Duration":565818,"SoundDuration":565818,"Delta":24905276},{"NoteNumber":74,"Velocity":49,"Duration":621117,"SoundDuration":621117,"Delta":25471094},{"NoteNumber":70,"Velocity":41,"Duration":621117,"SoundDuration":621117,"Delta":25471094},{"NoteNumber":58,"Velocity":34,"Duration":621117,"SoundDuration":621117,"Delta":25471094},{"NoteNumber":67,"Velocity":42,"Duration":1181101,"SoundDuration":1181101,"Delta":26092212},{"NoteNumber":71,"Velocity":50,"Duration":590551,"SoundDuration":590551,"Delta":26092212},{"NoteNumber":51,"Velocity":42,"Duration":590551,"SoundDuration":590551,"Delta":26092212},{"NoteNumber":72,"Velocity":38,"Duration":590550,"SoundDuration":590550,"Delta":26682763},{"NoteNumber":63,"Velocity":33,"Duration":590550,"SoundDuration":590550,"Delta":26682763},{"NoteNumber":72,"Velocity":39,"Duration":1192842,"SoundDuration":1192842,"Delta":27273314},{"NoteNumber":67,"Velocity":33,"Duration":1192842,"SoundDuration":1192842,"Delta":27273314},{"NoteNumber":51,"Velocity":33,"Duration":596421,"SoundDuration":596421,"Delta":27273314},{"NoteNumber":63,"Velocity":26,"Duration":596421,"SoundDuration":596421,"Delta":27869736},{"NoteNumber":75,"Velocity":45,"Duration":276135,"SoundDuration":276135,"Delta":28466157},{"NoteNumber":79,"Velocity":53,"Duration":276135,"SoundDuration":276135,"Delta":28466157},{"NoteNumber":69,"Velocity":42,"Duration":1165707,"SoundDuration":1165707,"Delta":28466157},{"NoteNumber":75,"Velocity":37,"Duration":303714,"SoundDuration":303714,"Delta":29029455},{"NoteNumber":79,"Velocity":45,"Duration":303714,"SoundDuration":303714,"Delta":29029455},{"NoteNumber":70,"Velocity":42,"Duration":1185008,"SoundDuration":1185008,"Delta":29631865},{"NoteNumber":74,"Velocity":50,"Duration":608519,"SoundDuration":608519,"Delta":30208354},{"NoteNumber":77,"Velocity":50,"Duration":608519,"SoundDuration":608519,"Delta":30208354},{"NoteNumber":72,"Velocity":49,"Duration":273757,"SoundDuration":273757,"Delta":30816873},{"NoteNumber":75,"Velocity":58,"Duration":273757,"SoundDuration":273757,"Delta":30816873},{"NoteNumber":66,"Velocity":42,"Duration":1157247,"SoundDuration":1157247,"Delta":30816873},{"NoteNumber":72,"Velocity":42,"Duration":294834,"SoundDuration":294834,"Delta":31389326},{"NoteNumber":75,"Velocity":50,"Duration":294834,"SoundDuration":294834,"Delta":31389326},{"NoteNumber":67,"Velocity":42,"Duration":1217039,"SoundDuration":1217039,"Delta":31974121},{"NoteNumber":70,"Velocity":51,"Duration":608519,"SoundDuration":608519,"Delta":32582641},{"NoteNumber":74,"Velocity":51,"Duration":608519,"SoundDuration":608519,"Delta":32582641},{"NoteNumber":67,"Velocity":54,"Duration":276112,"SoundDuration":276112,"Delta":33191160},{"NoteNumber":72,"Velocity":64,"Duration":276112,"SoundDuration":276112,"Delta":33191160},{"NoteNumber":63,"Velocity":48,"Duration":276112,"SoundDuration":276112,"Delta":33191160},{"NoteNumber":51,"Velocity":34,"Duration":276112,"SoundDuration":276112,"Delta":33191160},{"NoteNumber":67,"Velocity":49,"Duration":303714,"SoundDuration":303714,"Delta":33751690},{"NoteNumber":72,"Velocity":58,"Duration":303714,"SoundDuration":303714,"Delta":33751690},{"NoteNumber":63,"Velocity":40,"Duration":303714,"SoundDuration":303714,"Delta":33751690},{"NoteNumber":51,"Velocity":34,"Duration":303714,"SoundDuration":303714,"Delta":33751690},{"NoteNumber":63,"Velocity":54,"Duration":281247,"SoundDuration":281247,"Delta":34354099},{"NoteNumber":69,"Velocity":64,"Duration":281247,"SoundDuration":281247,"Delta":34354099},{"NoteNumber":60,"Velocity":42,"Duration":281247,"SoundDuration":281247,"Delta":34354099},{"NoteNumber":53,"Velocity":29,"Duration":281247,"SoundDuration":281247,"Delta":34354099},{"NoteNumber":63,"Velocity":49,"Duration":316422,"SoundDuration":316422,"Delta":34925308},{"NoteNumber":69,"Velocity":58,"Duration":316422,"SoundDuration":316422,"Delta":34925308},{"NoteNumber":60,"Velocity":37,"Duration":316422,"SoundDuration":316422,"Delta":34925308},{"NoteNumber":53,"Velocity":31,"Duration":316422,"SoundDuration":316422,"Delta":34925308},{"NoteNumber":62,"Velocity":58,"Duration":2434077,"SoundDuration":2434077,"Delta":35552923},{"NoteNumber":70,"Velocity":69,"Duration":2434077,"SoundDuration":2434077,"Delta":35552923},{"NoteNumber":46,"Velocity":45,"Duration":608519,"SoundDuration":608519,"Delta":35552923},{"NoteNumber":53,"Velocity":33,"Duration":608519,"SoundDuration":608519,"Delta":36161442},{"NoteNumber":58,"Velocity":38,"Duration":1217038,"SoundDuration":1217038,"Delta":36769962},{"NoteNumber":77,"Velocity":54,"Duration":281426,"SoundDuration":281426,"Delta":37987001},{"NoteNumber":76,"Velocity":56,"Duration":281425,"SoundDuration":281425,"Delta":38268427},{"NoteNumber":79,"Velocity":62,"Duration":276243,"SoundDuration":276243,"Delta":38549853},{"NoteNumber":77,"Velocity":60,"Duration":273722,"SoundDuration":273722,"Delta":38826096},{"NoteNumber":75,"Velocity":67,"Duration":273722,"SoundDuration":273722,"Delta":39099818},{"NoteNumber":74,"Velocity":62,"Duration":273722,"SoundDuration":273722,"Delta":39373541},{"NoteNumber":72,"Velocity":62,"Duration":281426,"SoundDuration":281426,"Delta":39647264},{"NoteNumber":70,"Velocity":58,"Duration":327511,"SoundDuration":327511,"Delta":39928690},{"NoteNumber":69,"Velocity":52,"Duration":868725,"SoundDuration":868725,"Delta":40256201},{"NoteNumber":63,"Velocity":31,"Duration":579150,"SoundDuration":579150,"Delta":40256201},{"NoteNumber":65,"Velocity":24,"Duration":579150,"SoundDuration":579150,"Delta":40835351},{"NoteNumber":70,"Velocity":48,"Duration":144787,"SoundDuration":144787,"Delta":41124927},{"NoteNumber":72,"Velocity":45,"Duration":144787,"SoundDuration":144787,"Delta":41269714},{"NoteNumber":70,"Velocity":54,"Duration":434362,"SoundDuration":434362,"Delta":41414502},{"NoteNumber":62,"Velocity":33,"Duration":579150,"SoundDuration":579150,"Delta":41414502},{"NoteNumber":65,"Velocity":23,"Duration":579150,"SoundDuration":579150,"Delta":41993652},{"NoteNumber":77,"Velocity":54,"Duration":292397,"SoundDuration":292397,"Delta":42572803},{"NoteNumber":76,"Velocity":56,"Duration":278810,"SoundDuration":278810,"Delta":42865201},{"NoteNumber":79,"Velocity":62,"Duration":278810,"SoundDuration":278810,"Delta":43144011},{"NoteNumber":77,"Velocity":60,"Duration":276243,"SoundDuration":276243,"Delta":43422822},{"NoteNumber":75,"Velocity":66,"Duration":273722,"SoundDuration":273722,"Delta":43699065},{"NoteNumber":74,"Velocity":63,"Duration":273722,"SoundDuration":273722,"Delta":43972787},{"NoteNumber":72,"Velocity":58,"Duration":278810,"SoundDuration":278810,"Delta":44246510},{"NoteNumber":71,"Velocity":53,"Duration":331125,"SoundDuration":331125,"Delta":44525321},{"NoteNumber":72,"Velocity":49,"Duration":866392,"SoundDuration":866392,"Delta":44856446},{"NoteNumber":57,"Velocity":29,"Duration":568182,"SoundDuration":568182,"Delta":44856446},{"NoteNumber":65,"Velocity":23,"Duration":585017,"SoundDuration":585017,"Delta":45424628},{"NoteNumber":74,"Velocity":45,"Duration":143403,"SoundDuration":143403,"Delta":45722839},{"NoteNumber":75,"Velocity":42,"Duration":143403,"SoundDuration":143403,"Delta":45866243},{"NoteNumber":74,"Velocity":51,"Duration":443250,"SoundDuration":443250,"Delta":46009646},{"NoteNumber":58,"Velocity":31,"Duration":585295,"SoundDuration":585295,"Delta":46009646},{"NoteNumber":65,"Velocity":25,"Duration":568182,"SoundDuration":568182,"Delta":46594942},{"NoteNumber":86,"Velocity":51,"Duration":250835,"SoundDuration":250835,"Delta":47163124},{"NoteNumber":82,"Velocity":45,"Duration":261780,"SoundDuration":261780,"Delta":47413960},{"NoteNumber":86,"Velocity":51,"Duration":257289,"SoundDuration":257289,"Delta":47675740},{"NoteNumber":76,"Velocity":40,"Duration":257289,"SoundDuration":257289,"Delta":47675740},{"NoteNumber":82,"Velocity":45,"Duration":271247,"SoundDuration":271247,"Delta":47933030},{"NoteNumber":81,"Velocity":51,"Duration":250835,"SoundDuration":250835,"Delta":48204278},{"NoteNumber":84,"Velocity":45,"Duration":264084,"SoundDuration":264084,"Delta":48455114},{"NoteNumber":81,"Velocity":51,"Duration":259515,"SoundDuration":259515,"Delta":48719198},{"NoteNumber":77,"Velocity":40,"Duration":259515,"SoundDuration":259515,"Delta":48719198},{"NoteNumber":84,"Velocity":46,"Duration":261780,"SoundDuration":261780,"Delta":48978714},{"NoteNumber":82,"Velocity":51,"Duration":250835,"SoundDuration":250835,"Delta":49240494},{"NoteNumber":79,"Velocity":45,"Duration":261780,"SoundDuration":261780,"Delta":49491330},{"NoteNumber":82,"Velocity":51,"Duration":261780,"SoundDuration":261780,"Delta":49753110},{"NoteNumber":73,"Velocity":40,"Duration":261780,"SoundDuration":261780,"Delta":49753110},{"NoteNumber":79,"Velocity":47,"Duration":261779,"SoundDuration":261779,"Delta":50014890},{"NoteNumber":77,"Velocity":51,"Duration":255102,"SoundDuration":255102,"Delta":50276670},{"NoteNumber":81,"Velocity":46,"Duration":259515,"SoundDuration":259515,"Delta":50531772},{"NoteNumber":77,"Velocity":51,"Duration":259515,"SoundDuration":259515,"Delta":50791287},{"NoteNumber":74,"Velocity":40,"Duration":259515,"SoundDuration":259515,"Delta":50791287},{"NoteNumber":81,"Velocity":46,"Duration":259515,"SoundDuration":259515,"Delta":51050803},{"NoteNumber":79,"Velocity":55,"Duration":250835,"SoundDuration":250835,"Delta":51310318},{"NoteNumber":58,"Velocity":37,"Duration":250835,"SoundDuration":250835,"Delta":51310318},{"NoteNumber":70,"Velocity":44,"Duration":250835,"SoundDuration":250835,"Delta":51310318},{"NoteNumber":74,"Velocity":47,"Duration":266429,"SoundDuration":266429,"Delta":51561154},{"NoteNumber":79,"Velocity":54,"Duration":266429,"SoundDuration":266429,"Delta":51827584},{"NoteNumber":58,"Velocity":36,"Duration":266429,"SoundDuration":266429,"Delta":51827584},{"NoteNumber":70,"Velocity":43,"Duration":266429,"SoundDuration":266429,"Delta":51827584},{"NoteNumber":74,"Velocity":51,"Duration":259515,"SoundDuration":259515,"Delta":52094014},{"NoteNumber":76,"Velocity":58,"Duration":255102,"SoundDuration":255102,"Delta":52353529},{"NoteNumber":60,"Velocity":39,"Duration":255102,"SoundDuration":255102,"Delta":52353529},{"NoteNumber":67,"Velocity":46,"Duration":255102,"SoundDuration":255102,"Delta":52353529},{"NoteNumber":70,"Velocity":51,"Duration":264084,"SoundDuration":264084,"Delta":52608631},{"NoteNumber":76,"Velocity":62,"Duration":264084,"SoundDuration":264084,"Delta":52872716},{"NoteNumber":60,"Velocity":41,"Duration":264084,"SoundDuration":264084,"Delta":52872716},{"NoteNumber":67,"Velocity":49,"Duration":264084,"SoundDuration":264084,"Delta":52872716},{"NoteNumber":70,"Velocity":57,"Duration":276243,"SoundDuration":276243,"Delta":53136800},{"NoteNumber":77,"Velocity":68,"Duration":252951,"SoundDuration":252951,"Delta":53413043},{"NoteNumber":62,"Velocity":45,"Duration":252951,"SoundDuration":252951,"Delta":53413043},{"NoteNumber":65,"Velocity":54,"Duration":252951,"SoundDuration":252951,"Delta":53413043},{"NoteNumber":69,"Velocity":62,"Duration":273722,"SoundDuration":273722,"Delta":53665994},{"NoteNumber":77,"Velocity":69,"Duration":264084,"SoundDuration":264084,"Delta":53939717},{"NoteNumber":62,"Velocity":46,"Duration":264084,"SoundDuration":264084,"Delta":53939717},{"NoteNumber":65,"Velocity":55,"Duration":264084,"SoundDuration":264084,"Delta":53939717},{"NoteNumber":69,"Velocity":62,"Duration":264084,"SoundDuration":264084,"Delta":54203801},{"NoteNumber":72,"Velocity":69,"Duration":264084,"SoundDuration":264084,"Delta":54467886},{"NoteNumber":57,"Velocity":61,"Duration":519186,"SoundDuration":519186,"Delta":54467886},{"NoteNumber":65,"Velocity":62,"Duration":255102,"SoundDuration":255102,"Delta":54731970},{"NoteNumber":73,"Velocity":69,"Duration":255102,"SoundDuration":255102,"Delta":54987072},{"NoteNumber":57,"Velocity":54,"Duration":544677,"SoundDuration":544677,"Delta":54987072},{"NoteNumber":65,"Velocity":64,"Duration":289575,"SoundDuration":289575,"Delta":55242174},{"NoteNumber":76,"Velocity":72,"Duration":266429,"SoundDuration":266429,"Delta":55531750},{"NoteNumber":58,"Velocity":62,"Duration":534053,"SoundDuration":534053,"Delta":55531750},{"NoteNumber":46,"Velocity":52,"Duration":534053,"SoundDuration":534053,"Delta":55531750},{"NoteNumber":74,"Velocity":68,"Duration":267623,"SoundDuration":267623,"Delta":55798179},{"NoteNumber":72,"Velocity":69,"Duration":269424,"SoundDuration":269424,"Delta":56065803},{"NoteNumber":58,"Velocity":46,"Duration":540672,"SoundDuration":540672,"Delta":56065803},{"NoteNumber":46,"Velocity":39,"Duration":540672,"SoundDuration":540672,"Delta":56065803},{"NoteNumber":70,"Velocity":66,"Duration":271247,"SoundDuration":271247,"Delta":56335228},{"NoteNumber":69,"Velocity":64,"Duration":273104,"SoundDuration":273104,"Delta":56606476},{"NoteNumber":60,"Velocity":56,"Duration":548086,"SoundDuration":548086,"Delta":56606476},{"NoteNumber":48,"Velocity":47,"Duration":548086,"SoundDuration":548086,"Delta":56606476},{"NoteNumber":67,"Velocity":63,"Duration":274982,"SoundDuration":274982,"Delta":56879580},{"NoteNumber":65,"Velocity":61,"Duration":276243,"SoundDuration":276243,"Delta":57154562},{"NoteNumber":60,"Velocity":38,"Duration":553606,"SoundDuration":553606,"Delta":57154562},{"NoteNumber":48,"Velocity":32,"Duration":553606,"SoundDuration":553606,"Delta":57154562},{"NoteNumber":64,"Velocity":56,"Duration":277363,"SoundDuration":277363,"Delta":57430806},{"NoteNumber":65,"Velocity":62,"Duration":260496,"SoundDuration":260496,"Delta":57708169},{"NoteNumber":53,"Velocity":49,"Duration":2338967,"SoundDuration":2338967,"Delta":57708169},{"NoteNumber":41,"Velocity":41,"Duration":2338967,"SoundDuration":2338967,"Delta":57708169},{"NoteNumber":64,"Velocity":48,"Duration":265102,"SoundDuration":265102,"Delta":57968666},{"NoteNumber":65,"Velocity":55,"Duration":270135,"SoundDuration":270135,"Delta":58233768},{"NoteNumber":64,"Velocity":43,"Duration":275322,"SoundDuration":275322,"Delta":58503904},{"NoteNumber":65,"Velocity":48,"Duration":288270,"SoundDuration":288270,"Delta":58779226},{"NoteNumber":64,"Velocity":34,"Duration":307457,"SoundDuration":307457,"Delta":59067497},{"NoteNumber":65,"Velocity":40,"Duration":325761,"SoundDuration":325761,"Delta":59374955},{"NoteNumber":64,"Velocity":30,"Duration":346420,"SoundDuration":346420,"Delta":59700716},{"NoteNumber":62,"Velocity":31,"Duration":565516,"SoundDuration":565516,"Delta":60047137},{"NoteNumber":65,"Velocity":37,"Duration":565516,"SoundDuration":565516,"Delta":60047137},{"NoteNumber":46,"Velocity":33,"Duration":1174036,"SoundDuration":1174036,"Delta":60047137},{"NoteNumber":65,"Velocity":31,"Duration":608519,"SoundDuration":608519,"Delta":60612654},{"NoteNumber":62,"Velocity":26,"Duration":608519,"SoundDuration":608519,"Delta":60612654},{"NoteNumber":65,"Velocity":39,"Duration":573613,"SoundDuration":573613,"Delta":61221173},{"NoteNumber":62,"Velocity":33,"Duration":573613,"SoundDuration":573613,"Delta":61221173},{"NoteNumber":46,"Velocity":32,"Duration":1194732,"SoundDuration":1194732,"Delta":61221173},{"NoteNumber":65,"Velocity":34,"Duration":621118,"SoundDuration":621118,"Delta":61794787},{"NoteNumber":62,"Velocity":28,"Duration":621118,"SoundDuration":621118,"Delta":61794787},{"NoteNumber":63,"Velocity":37,"Duration":1160030,"SoundDuration":1160030,"Delta":62415905},{"NoteNumber":69,"Velocity":42,"Duration":557620,"SoundDuration":557620,"Delta":62415905},{"NoteNumber":46,"Velocity":35,"Duration":1160030,"SoundDuration":1160030,"Delta":62415905},{"NoteNumber":67,"Velocity":30,"Duration":602409,"SoundDuration":602409,"Delta":62973526},{"NoteNumber":65,"Velocity":29,"Duration":903614,"SoundDuration":903614,"Delta":63575936},{"NoteNumber":62,"Velocity":25,"Duration":903614,"SoundDuration":903614,"Delta":63575936},{"NoteNumber":46,"Velocity":25,"Duration":903614,"SoundDuration":903614,"Delta":63575936},{"NoteNumber":70,"Velocity":62,"Duration":259515,"SoundDuration":259515,"Delta":64780755},{"NoteNumber":46,"Velocity":48,"Duration":1073781,"SoundDuration":1073781,"Delta":64780755},{"NoteNumber":74,"Velocity":44,"Duration":276242,"SoundDuration":276242,"Delta":65040270},{"NoteNumber":69,"Velocity":56,"Duration":261780,"SoundDuration":261780,"Delta":65316513},{"NoteNumber":72,"Velocity":44,"Duration":276242,"SoundDuration":276242,"Delta":65578293},{"NoteNumber":67,"Velocity":54,"Duration":284091,"SoundDuration":284091,"Delta":65854536},{"NoteNumber":46,"Velocity":42,"Duration":1170555,"SoundDuration":1170555,"Delta":65854536},{"NoteNumber":70,"Velocity":38,"Duration":271247,"SoundDuration":271247,"Delta":66138627},{"NoteNumber":65,"Velocity":50,"Duration":284091,"SoundDuration":284091,"Delta":66409875},{"NoteNumber":69,"Velocity":38,"Duration":331125,"SoundDuration":331125,"Delta":66693966},{"NoteNumber":63,"Velocity":42,"Duration":1170591,"SoundDuration":1170591,"Delta":67025092},{"NoteNumber":69,"Velocity":50,"Duration":568181,"SoundDuration":568181,"Delta":67025092},{"NoteNumber":46,"Velocity":42,"Duration":1170591,"SoundDuration":1170591,"Delta":67025092},{"NoteNumber":67,"Velocity":38,"Duration":602409,"SoundDuration":602409,"Delta":67593274},{"NoteNumber":65,"Velocity":39,"Duration":903614,"SoundDuration":903614,"Delta":68195683},{"NoteNumber":62,"Velocity":33,"Duration":903614,"SoundDuration":903614,"Delta":68195683},{"NoteNumber":46,"Velocity":33,"Duration":903614,"SoundDuration":903614,"Delta":68195683},{"NoteNumber":70,"Velocity":53,"Duration":268866,"SoundDuration":268866,"Delta":69400502},{"NoteNumber":62,"Velocity":35,"Duration":1149607,"SoundDuration":1149607,"Delta":69400502},{"NoteNumber":65,"Velocity":42,"Duration":1149607,"SoundDuration":1149607,"Delta":69400502},{"NoteNumber":70,"Velocity":40,"Duration":303617,"SoundDuration":303617,"Delta":69959330},{"NoteNumber":60,"Velocity":31,"Duration":1193314,"SoundDuration":1193314,"Delta":70550110},{"NoteNumber":65,"Velocity":37,"Duration":1193314,"SoundDuration":1193314,"Delta":70550110},{"NoteNumber":69,"Velocity":50,"Duration":292397,"SoundDuration":292397,"Delta":71158629},{"NoteNumber":70,"Velocity":46,"Duration":73099,"SoundDuration":73099,"Delta":71451027},{"NoteNumber":69,"Velocity":40,"Duration":73099,"SoundDuration":73099,"Delta":71524126},{"NoteNumber":67,"Velocity":47,"Duration":73099,"SoundDuration":73099,"Delta":71597226},{"NoteNumber":69,"Velocity":40,"Duration":73099,"SoundDuration":73099,"Delta":71670325},{"NoteNumber":72,"Velocity":58,"Duration":266497,"SoundDuration":266497,"Delta":71743425},{"NoteNumber":63,"Velocity":35,"Duration":1144726,"SoundDuration":1144726,"Delta":71743425},{"NoteNumber":65,"Velocity":42,"Duration":1144726,"SoundDuration":1144726,"Delta":71743425},{"NoteNumber":72,"Velocity":45,"Duration":306649,"SoundDuration":306649,"Delta":72297084},{"NoteNumber":62,"Velocity":31,"Duration":1193314,"SoundDuration":1193314,"Delta":72888151},{"NoteNumber":65,"Velocity":37,"Duration":1193314,"SoundDuration":1193314,"Delta":72888151},{"NoteNumber":70,"Velocity":55,"Duration":292397,"SoundDuration":292397,"Delta":73496671},{"NoteNumber":72,"Velocity":53,"Duration":73099,"SoundDuration":73099,"Delta":73789068},{"NoteNumber":70,"Velocity":47,"Duration":73099,"SoundDuration":73099,"Delta":73862168},{"NoteNumber":69,"Velocity":56,"Duration":73099,"SoundDuration":73099,"Delta":73935267},{"NoteNumber":70,"Velocity":49,"Duration":73099,"SoundDuration":73099,"Delta":74008367},{"NoteNumber":74,"Velocity":64,"Duration":558827,"SoundDuration":558827,"Delta":74081466},{"NoteNumber":65,"Velocity":48,"Duration":1167347,"SoundDuration":1167347,"Delta":74081466},{"NoteNumber":57,"Velocity":40,"Duration":1167347,"SoundDuration":1167347,"Delta":74081466},{"NoteNumber":72,"Velocity":58,"Duration":608519,"SoundDuration":608519,"Delta":74640294},{"NoteNumber":75,"Velocity":64,"Duration":563645,"SoundDuration":563645,"Delta":75248813},{"NoteNumber":65,"Velocity":42,"Duration":1204671,"SoundDuration":1204671,"Delta":75248813},{"NoteNumber":58,"Velocity":35,"Duration":1204671,"SoundDuration":1204671,"Delta":75248813},{"NoteNumber":74,"Velocity":58,"Duration":641025,"SoundDuration":641025,"Delta":75812459},{"NoteNumber":77,"Velocity":69,"Duration":912779,"SoundDuration":912779,"Delta":76453484},{"NoteNumber":62,"Velocity":55,"Duration":912779,"SoundDuration":912779,"Delta":76453484},{"NoteNumber":53,"Velocity":46,"Duration":1825558,"SoundDuration":1825558,"Delta":76453484},{"NoteNumber":74,"Velocity":38,"Duration":304259,"SoundDuration":304259,"Delta":77366263},{"NoteNumber":58,"Velocity":29,"Duration":304259,"SoundDuration":304259,"Delta":77366263},{"NoteNumber":72,"Velocity":47,"Duration":456389,"SoundDuration":456389,"Delta":77670523},{"NoteNumber":57,"Velocity":37,"Duration":456389,"SoundDuration":456389,"Delta":77670523},{"NoteNumber":62,"Velocity":29,"Duration":566120,"SoundDuration":566120,"Delta":78887562},{"NoteNumber":65,"Velocity":35,"Duration":566120,"SoundDuration":566120,"Delta":78887562},{"NoteNumber":46,"Velocity":28,"Duration":273722,"SoundDuration":273722,"Delta":78887562},{"NoteNumber":58,"Velocity":22,"Duration":292397,"SoundDuration":292397,"Delta":79161285},{"NoteNumber":65,"Velocity":23,"Duration":563049,"SoundDuration":563049,"Delta":79453683},{"NoteNumber":62,"Velocity":18,"Duration":563049,"SoundDuration":563049,"Delta":79453683},{"NoteNumber":46,"Velocity":21,"Duration":276242,"SoundDuration":276242,"Delta":79453683},{"NoteNumber":58,"Velocity":17,"Duration":286806,"SoundDuration":286806,"Delta":79729926},{"NoteNumber":65,"Velocity":29,"Duration":582301,"SoundDuration":582301,"Delta":80016733},{"NoteNumber":62,"Velocity":25,"Duration":582301,"SoundDuration":582301,"Delta":80016733},{"NoteNumber":46,"Velocity":24,"Duration":284091,"SoundDuration":284091,"Delta":80016733},{"NoteNumber":58,"Velocity":18,"Duration":298210,"SoundDuration":298210,"Delta":80300824},{"NoteNumber":65,"Velocity":25,"Duration":573823,"SoundDuration":573823,"Delta":80599034},{"NoteNumber":62,"Velocity":21,"Duration":573823,"SoundDuration":573823,"Delta":80599034},{"NoteNumber":46,"Velocity":20,"Duration":281425,"SoundDuration":281425,"Delta":80599034},{"NoteNumber":58,"Velocity":16,"Duration":292397,"SoundDuration":292397,"Delta":80880460},{"NoteNumber":63,"Velocity":31,"Duration":1166055,"SoundDuration":1166055,"Delta":81172858},{"NoteNumber":69,"Velocity":35,"Duration":563645,"SoundDuration":563645,"Delta":81172858},{"NoteNumber":46,"Velocity":29,"Duration":271247,"SoundDuration":271247,"Delta":81172858},{"NoteNumber":58,"Velocity":23,"Duration":292397,"SoundDuration":292397,"Delta":81444106},{"NoteNumber":67,"Velocity":27,"Duration":602409,"SoundDuration":602409,"Delta":81736504},{"NoteNumber":46,"Velocity":25,"Duration":301204,"SoundDuration":301204,"Delta":81736504},{"NoteNumber":58,"Velocity":20,"Duration":301204,"SoundDuration":301204,"Delta":82037708},{"NoteNumber":65,"Velocity":28,"Duration":1165032,"SoundDuration":1165032,"Delta":82338913},{"NoteNumber":62,"Velocity":23,"Duration":1165032,"SoundDuration":1165032,"Delta":82338913},{"NoteNumber":46,"Velocity":23,"Duration":278810,"SoundDuration":278810,"Delta":82338913},{"NoteNumber":58,"Velocity":18,"Duration":301204,"SoundDuration":301204,"Delta":82617724},{"NoteNumber":46,"Velocity":23,"Duration":286806,"SoundDuration":286806,"Delta":82918928},{"NoteNumber":58,"Velocity":18,"Duration":298210,"SoundDuration":298210,"Delta":83205735},{"NoteNumber":77,"Velocity":49,"Duration":542672,"SoundDuration":542672,"Delta":83503946},{"NoteNumber":74,"Velocity":41,"Duration":542672,"SoundDuration":542672,"Delta":83503946},{"NoteNumber":46,"Velocity":37,"Duration":266429,"SoundDuration":266429,"Delta":83503946},{"NoteNumber":58,"Velocity":28,"Duration":276242,"SoundDuration":276242,"Delta":83770376},{"NoteNumber":73,"Velocity":31,"Duration":574086,"SoundDuration":574086,"Delta":84046619},{"NoteNumber":76,"Velocity":38,"Duration":574086,"SoundDuration":574086,"Delta":84046619},{"NoteNumber":46,"Velocity":38,"Duration":295275,"SoundDuration":295275,"Delta":84046619},{"NoteNumber":58,"Velocity":33,"Duration":278810,"SoundDuration":278810,"Delta":84341894},{"NoteNumber":72,"Velocity":46,"Duration":579150,"SoundDuration":579150,"Delta":84620705},{"NoteNumber":75,"Velocity":56,"Duration":579150,"SoundDuration":579150,"Delta":84620705},{"NoteNumber":48,"Velocity":44,"Duration":289575,"SoundDuration":289575,"Delta":84620705},{"NoteNumber":60,"Velocity":35,"Duration":289575,"SoundDuration":289575,"Delta":84910280},{"NoteNumber":70,"Velocity":41,"Duration":605834,"SoundDuration":605834,"Delta":85199855},{"NoteNumber":74,"Velocity":48,"Duration":605834,"SoundDuration":605834,"Delta":85199855},{"NoteNumber":50,"Velocity":47,"Duration":295275,"SoundDuration":295275,"Delta":85199855},{"NoteNumber":62,"Velocity":44,"Duration":310558,"SoundDuration":310558,"Delta":85495131},{"NoteNumber":71,"Velocity":66,"Duration":558054,"SoundDuration":558054,"Delta":85805690},{"NoteNumber":67,"Velocity":56,"Duration":1131668,"SoundDuration":1131668,"Delta":85805690},{"NoteNumber":51,"Velocity":56,"Duration":271247,"SoundDuration":271247,"Delta":85805690},{"NoteNumber":63,"Velocity":40,"Duration":286806,"SoundDuration":286806,"Delta":86076938},{"NoteNumber":72,"Velocity":51,"Duration":573614,"SoundDuration":573614,"Delta":86363745},{"NoteNumber":51,"Velocity":51,"Duration":286807,"SoundDuration":286807,"Delta":86363745},{"NoteNumber":63,"Velocity":35,"Duration":286806,"SoundDuration":286806,"Delta":86650552},{"NoteNumber":67,"Velocity":39,"Duration":1104972,"SoundDuration":1104972,"Delta":86937359},{"NoteNumber":72,"Velocity":50,"Duration":1104972,"SoundDuration":1104972,"Delta":86937359},{"NoteNumber":51,"Velocity":28,"Duration":276242,"SoundDuration":276242,"Delta":86937359},{"NoteNumber":63,"Velocity":22,"Duration":276243,"SoundDuration":276243,"Delta":87213602},{"NoteNumber":51,"Velocity":28,"Duration":276242,"SoundDuration":276242,"Delta":87489845},{"NoteNumber":63,"Velocity":22,"Duration":276243,"SoundDuration":276243,"Delta":87766088},{"NoteNumber":79,"Velocity":51,"Duration":255101,"SoundDuration":255101,"Delta":88042331},{"NoteNumber":75,"Velocity":45,"Duration":264084,"SoundDuration":264084,"Delta":88297433},{"NoteNumber":79,"Velocity":51,"Duration":264084,"SoundDuration":264084,"Delta":88561517},{"NoteNumber":69,"Velocity":40,"Duration":264084,"SoundDuration":264084,"Delta":88561517},{"NoteNumber":75,"Velocity":45,"Duration":264084,"SoundDuration":264084,"Delta":88825602},{"NoteNumber":74,"Velocity":51,"Duration":264084,"SoundDuration":264084,"Delta":89089686},{"NoteNumber":77,"Velocity":45,"Duration":268817,"SoundDuration":268817,"Delta":89353771},{"NoteNumber":74,"Velocity":51,"Duration":264084,"SoundDuration":264084,"Delta":89622588},{"NoteNumber":70,"Velocity":40,"Duration":264084,"SoundDuration":264084,"Delta":89622588},{"NoteNumber":77,"Velocity":46,"Duration":264084,"SoundDuration":264084,"Delta":89886672},{"NoteNumber":75,"Velocity":51,"Duration":252950,"SoundDuration":252950,"Delta":90150757},{"NoteNumber":72,"Velocity":45,"Duration":261780,"SoundDuration":261780,"Delta":90403708},{"NoteNumber":75,"Velocity":51,"Duration":261780,"SoundDuration":261780,"Delta":90665488},{"NoteNumber":66,"Velocity":40,"Duration":261780,"SoundDuration":261780,"Delta":90665488},{"NoteNumber":72,"Velocity":47,"Duration":261780,"SoundDuration":261780,"Delta":90927268},{"NoteNumber":70,"Velocity":51,"Duration":252950,"SoundDuration":252950,"Delta":91189048},{"NoteNumber":74,"Velocity":46,"Duration":268817,"SoundDuration":268817,"Delta":91441999},{"NoteNumber":70,"Velocity":51,"Duration":268817,"SoundDuration":268817,"Delta":91710816},{"NoteNumber":67,"Velocity":40,"Duration":268817,"SoundDuration":268817,"Delta":91710816},{"NoteNumber":74,"Velocity":46,"Duration":286806,"SoundDuration":286806,"Delta":91979633},{"NoteNumber":72,"Velocity":55,"Duration":257289,"SoundDuration":257289,"Delta":92266440},{"NoteNumber":51,"Velocity":37,"Duration":257289,"SoundDuration":257289,"Delta":92266440},{"NoteNumber":63,"Velocity":44,"Duration":257289,"SoundDuration":257289,"Delta":92266440},{"NoteNumber":67,"Velocity":47,"Duration":266429,"SoundDuration":266429,"Delta":92523730},{"NoteNumber":72,"Velocity":54,"Duration":266429,"SoundDuration":266429,"Delta":92790160},{"NoteNumber":51,"Velocity":36,"Duration":266429,"SoundDuration":266429,"Delta":92790160},{"NoteNumber":63,"Velocity":43,"Duration":266429,"SoundDuration":266429,"Delta":92790160},{"NoteNumber":67,"Velocity":51,"Duration":266429,"SoundDuration":266429,"Delta":93056590},{"NoteNumber":69,"Velocity":65,"Duration":255101,"SoundDuration":255101,"Delta":93323020},{"NoteNumber":53,"Velocity":39,"Duration":255101,"SoundDuration":255101,"Delta":93323020},{"NoteNumber":60,"Velocity":46,"Duration":255101,"SoundDuration":255101,"Delta":93323020},{"NoteNumber":77,"Velocity":58,"Duration":261780,"SoundDuration":261780,"Delta":93578122},{"NoteNumber":69,"Velocity":71,"Duration":261780,"SoundDuration":261780,"Delta":93839902},{"NoteNumber":53,"Velocity":41,"Duration":261780,"SoundDuration":261780,"Delta":93839902},{"NoteNumber":60,"Velocity":49,"Duration":261780,"SoundDuration":261780,"Delta":93839902},{"NoteNumber":77,"Velocity":63,"Duration":268817,"SoundDuration":268817,"Delta":94101682},{"NoteNumber":75,"Velocity":73,"Duration":255101,"SoundDuration":255101,"Delta":94370499},{"NoteNumber":62,"Velocity":50,"Duration":1029427,"SoundDuration":1029427,"Delta":94370499},{"NoteNumber":58,"Velocity":44,"Duration":1029427,"SoundDuration":1029427,"Delta":94370499},{"NoteNumber":74,"Velocity":66,"Duration":264084,"SoundDuration":264084,"Delta":94625601},{"NoteNumber":82,"Velocity":72,"Duration":252950,"SoundDuration":252950,"Delta":94889685},{"NoteNumber":81,"Velocity":68,"Duration":257289,"SoundDuration":257289,"Delta":95142636},{"NoteNumber":79,"Velocity":68,"Duration":261780,"SoundDuration":261780,"Delta":95399926},{"NoteNumber":77,"Velocity":65,"Duration":261780,"SoundDuration":261780,"Delta":95661706},{"NoteNumber":75,"Velocity":63,"Duration":261780,"SoundDuration":261780,"Delta":95923486},{"NoteNumber":74,"Velocity":63,"Duration":261780,"SoundDuration":261780,"Delta":96185266},{"NoteNumber":72,"Velocity":55,"Duration":259515,"SoundDuration":259515,"Delta":96447046},{"NoteNumber":51,"Velocity":37,"Duration":259515,"SoundDuration":259515,"Delta":96447046},{"NoteNumber":63,"Velocity":44,"Duration":259515,"SoundDuration":259515,"Delta":96447046},{"NoteNumber":67,"Velocity":47,"Duration":264084,"SoundDuration":264084,"Delta":96706562},{"NoteNumber":72,"Velocity":54,"Duration":264084,"SoundDuration":264084,"Delta":96970646},{"NoteNumber":51,"Velocity":36,"Duration":264084,"SoundDuration":264084,"Delta":96970646},{"NoteNumber":63,"Velocity":43,"Duration":264084,"SoundDuration":264084,"Delta":96970646},{"NoteNumber":67,"Velocity":51,"Duration":264084,"SoundDuration":264084,"Delta":97234731},{"NoteNumber":69,"Velocity":65,"Duration":252950,"SoundDuration":252950,"Delta":97498815},{"NoteNumber":53,"Velocity":39,"Duration":252950,"SoundDuration":252950,"Delta":97498815},{"NoteNumber":60,"Velocity":46,"Duration":252950,"SoundDuration":252950,"Delta":97498815},{"NoteNumber":77,"Velocity":58,"Duration":264084,"SoundDuration":264084,"Delta":97751766},{"NoteNumber":69,"Velocity":71,"Duration":264084,"SoundDuration":264084,"Delta":98015851},{"NoteNumber":53,"Velocity":41,"Duration":264084,"SoundDuration":264084,"Delta":98015851},{"NoteNumber":60,"Velocity":49,"Duration":264084,"SoundDuration":264084,"Delta":98015851},{"NoteNumber":77,"Velocity":63,"Duration":284091,"SoundDuration":284091,"Delta":98279935},{"NoteNumber":75,"Velocity":73,"Duration":259515,"SoundDuration":259515,"Delta":98564026},{"NoteNumber":58,"Velocity":44,"Duration":1045380,"SoundDuration":1045380,"Delta":98564026},{"NoteNumber":62,"Velocity":50,"Duration":1045380,"SoundDuration":1045380,"Delta":98564026},{"NoteNumber":74,"Velocity":66,"Duration":271247,"SoundDuration":271247,"Delta":98823542},{"NoteNumber":86,"Velocity":72,"Duration":255101,"SoundDuration":255101,"Delta":99094790},{"NoteNumber":81,"Velocity":68,"Duration":259515,"SoundDuration":259515,"Delta":99349892},{"NoteNumber":84,"Velocity":68,"Duration":259515,"SoundDuration":259515,"Delta":99609407},{"NoteNumber":82,"Velocity":65,"Duration":259515,"SoundDuration":259515,"Delta":99868923},{"NoteNumber":77,"Velocity":63,"Duration":259515,"SoundDuration":259515,"Delta":100128438},{"NoteNumber":74,"Velocity":63,"Duration":292397,"SoundDuration":292397,"Delta":100387954},{"NoteNumber":72,"Velocity":77,"Duration":542895,"SoundDuration":542895,"Delta":100680351},{"NoteNumber":67,"Velocity":65,"Duration":542895,"SoundDuration":542895,"Delta":100680351},{"NoteNumber":39,"Velocity":57,"Duration":264084,"SoundDuration":264084,"Delta":100680351},{"NoteNumber":51,"Velocity":44,"Duration":278810,"SoundDuration":278810,"Delta":100944436},{"NoteNumber":67,"Velocity":61,"Duration":557620,"SoundDuration":557620,"Delta":101223246},{"NoteNumber":72,"Velocity":72,"Duration":557620,"SoundDuration":557620,"Delta":101223246},{"NoteNumber":39,"Velocity":50,"Duration":278810,"SoundDuration":278810,"Delta":101223246},{"NoteNumber":51,"Velocity":44,"Duration":278810,"SoundDuration":278810,"Delta":101502057},{"NoteNumber":69,"Velocity":78,"Duration":552908,"SoundDuration":552908,"Delta":101780867},{"NoteNumber":63,"Velocity":66,"Duration":552908,"SoundDuration":552908,"Delta":101780867},{"NoteNumber":41,"Velocity":57,"Duration":268817,"SoundDuration":268817,"Delta":101780867},{"NoteNumber":53,"Velocity":44,"Duration":284091,"SoundDuration":284091,"Delta":102049685},{"NoteNumber":63,"Velocity":60,"Duration":621117,"SoundDuration":621117,"Delta":102333776},{"NoteNumber":69,"Velocity":71,"Duration":621117,"SoundDuration":621117,"Delta":102333776},{"NoteNumber":41,"Velocity":51,"Duration":310558,"SoundDuration":310558,"Delta":102333776},{"NoteNumber":53,"Velocity":51,"Duration":310558,"SoundDuration":310558,"Delta":102644335},{"NoteNumber":70,"Velocity":80,"Duration":1104972,"SoundDuration":1104972,"Delta":102954894},{"NoteNumber":62,"Velocity":68,"Duration":1104972,"SoundDuration":1104972,"Delta":102954894},{"NoteNumber":46,"Velocity":62,"Duration":1104972,"SoundDuration":1104972,"Delta":102954894},{"NoteNumber":41,"Velocity":52,"Duration":1104972,"SoundDuration":1104972,"Delta":102954894},{"NoteNumber":34,"Velocity":46,"Duration":1104972,"SoundDuration":1104972,"Delta":102954894}],"license":{"name":"Creative Commons Attribution-ShareAlike 3.0 Germany","url":"http://creativecommons.org/licenses/by-sa/3.0/de/deed.en","text":"The MIDI, audio (MP3, OGG) and video files of Bernd Krueger are licensed under the cc-by-sa Germany License. This means that you can use and adapt the files, as long as you attribute the copyright holder.\n\nName: Bernd Krueger\nSource: http://www.piano-midi.de\n\nThe distribution or public playback of the files is only allowed under identical license conditions.\n\nThe scores are open source.","attribution":"MIDI files by Bernd Krueger (piano-midi.de)","attributionUrl":"http://www.piano-midi.de"}}