{"title":"Clementi: Sonatine Opus 36 Nr. 4, 1. Satz","artist":"Clementi","durationMs":198484,"midiSha256":"06c4652c7ea776ebe3a7732549ef76bb6e536ae58879164eecc39ba052953576","midiObject":[{"NoteNumber":65,"Velocity":70,"Duration":930232,"SoundDuration":930232,"Delta":0},{"NoteNumber":41,"Velocity":40,"Duration":232558,"SoundDuration":232558,"Delta":0},{"NoteNumber":53,"Velocity":31,"Duration":232558,"SoundDuration":232558,"Delta":232558},{"NoteNumber":41,"Velocity":34,"Duration":232557,"SoundDuration":232557,"Delta":465116},{"NoteNumber":53,"Velocity":31,"Duration":232558,"SoundDuration":232558,"Delta":697673},{"NoteNumber":69,"Velocity":66,"Duration":356525,"SoundDuration":356525,"Delta":930232},{"NoteNumber":41,"Velocity":34,"Duration":232558,"SoundDuration":232558,"Delta":930232},{"NoteNumber":53,"Velocity":31,"Duration":247934,"SoundDuration":247934,"Delta":1162790},{"NoteNumber":65,"Velocity":56,"Duration":123967,"SoundDuration":123967,"Delta":1286757},{"NoteNumber":72,"Velocity":69,"Duration":926639,"SoundDuration":926639,"Delta":1410724},{"NoteNumber":41,"Velocity":40,"Duration":231659,"SoundDuration":231659,"Delta":1410724},{"NoteNumber":53,"Velocity":31,"Duration":231659,"SoundDuration":231659,"Delta":1642384},{"NoteNumber":41,"Velocity":35,"Duration":231660,"SoundDuration":231660,"Delta":1874044},{"NoteNumber":53,"Velocity":31,"Duration":231659,"SoundDuration":231659,"Delta":2105704},{"NoteNumber":70,"Velocity":70,"Duration":113207,"SoundDuration":113207,"Delta":2337364},{"NoteNumber":41,"Velocity":34,"Duration":226414,"SoundDuration":226414,"Delta":2337364},{"NoteNumber":69,"Velocity":66,"Duration":113207,"SoundDuration":113207,"Delta":2450571},{"NoteNumber":67,"Velocity":64,"Duration":113207,"SoundDuration":113207,"Delta":2563779},{"NoteNumber":53,"Velocity":31,"Duration":226415,"SoundDuration":226415,"Delta":2563779},{"NoteNumber":65,"Velocity":61,"Duration":113207,"SoundDuration":113207,"Delta":2676986},{"NoteNumber":64,"Velocity":69,"Duration":229007,"SoundDuration":229007,"Delta":2790194},{"NoteNumber":41,"Velocity":40,"Duration":229007,"SoundDuration":229007,"Delta":2790194},{"NoteNumber":67,"Velocity":66,"Duration":229007,"SoundDuration":229007,"Delta":3019201},{"NoteNumber":53,"Velocity":33,"Duration":229007,"SoundDuration":229007,"Delta":3019201},{"NoteNumber":70,"Velocity":70,"Duration":229007,"SoundDuration":229007,"Delta":3248209},{"NoteNumber":41,"Velocity":38,"Duration":229007,"SoundDuration":229007,"Delta":3248209},{"NoteNumber":74,"Velocity":66,"Duration":229007,"SoundDuration":229007,"Delta":3477216},{"NoteNumber":53,"Velocity":33,"Duration":229007,"SoundDuration":229007,"Delta":3477216},{"NoteNumber":72,"Velocity":70,"Duration":229007,"SoundDuration":229007,"Delta":3706224},{"NoteNumber":41,"Velocity":38,"Duration":229007,"SoundDuration":229007,"Delta":3706224},{"NoteNumber":70,"Velocity":66,"Duration":251046,"SoundDuration":251046,"Delta":3935231},{"NoteNumber":53,"Velocity":33,"Duration":251046,"SoundDuration":251046,"Delta":3935231},{"NoteNumber":64,"Velocity":51,"Duration":463320,"SoundDuration":463320,"Delta":4186277},{"NoteNumber":68,"Velocity":61,"Duration":463320,"SoundDuration":463320,"Delta":4186277},{"NoteNumber":41,"Velocity":40,"Duration":231659,"SoundDuration":231659,"Delta":4186277},{"NoteNumber":53,"Velocity":32,"Duration":231660,"SoundDuration":231660,"Delta":4417937},{"NoteNumber":65,"Velocity":53,"Duration":463319,"SoundDuration":463319,"Delta":4649597},{"NoteNumber":69,"Velocity":63,"Duration":463319,"SoundDuration":463319,"Delta":4649597},{"NoteNumber":41,"Velocity":37,"Duration":231659,"SoundDuration":231659,"Delta":4649597},{"NoteNumber":53,"Velocity":32,"Duration":231659,"SoundDuration":231659,"Delta":4881257},{"NoteNumber":41,"Velocity":37,"Duration":231659,"SoundDuration":231659,"Delta":5112917},{"NoteNumber":53,"Velocity":32,"Duration":256410,"SoundDuration":256410,"Delta":5344577},{"NoteNumber":74,"Velocity":59,"Duration":926639,"SoundDuration":926639,"Delta":5600988},{"NoteNumber":77,"Velocity":70,"Duration":694980,"SoundDuration":694980,"Delta":5600988},{"NoteNumber":41,"Velocity":40,"Duration":231659,"SoundDuration":231659,"Delta":5600988},{"NoteNumber":53,"Velocity":32,"Duration":231660,"SoundDuration":231660,"Delta":5832648},{"NoteNumber":53,"Velocity":40,"Duration":463319,"SoundDuration":463319,"Delta":6064308},{"NoteNumber":79,"Velocity":65,"Duration":115829,"SoundDuration":115829,"Delta":6295968},{"NoteNumber":77,"Velocity":61,"Duration":115829,"SoundDuration":115829,"Delta":6411798},{"NoteNumber":76,"Velocity":65,"Duration":231659,"SoundDuration":231659,"Delta":6527628},{"NoteNumber":72,"Velocity":55,"Duration":231659,"SoundDuration":231659,"Delta":6527628},{"NoteNumber":74,"Velocity":63,"Duration":240000,"SoundDuration":240000,"Delta":6759288},{"NoteNumber":70,"Velocity":53,"Duration":240000,"SoundDuration":240000,"Delta":6759288},{"NoteNumber":69,"Velocity":59,"Duration":923076,"SoundDuration":923076,"Delta":6999288},{"NoteNumber":72,"Velocity":70,"Duration":692306,"SoundDuration":692306,"Delta":6999288},{"NoteNumber":41,"Velocity":40,"Duration":230768,"SoundDuration":230768,"Delta":6999288},{"NoteNumber":53,"Velocity":32,"Duration":230769,"SoundDuration":230769,"Delta":7230056},{"NoteNumber":53,"Velocity":40,"Duration":461538,"SoundDuration":461538,"Delta":7460826},{"NoteNumber":74,"Velocity":65,"Duration":115384,"SoundDuration":115384,"Delta":7691594},{"NoteNumber":72,"Velocity":61,"Duration":115384,"SoundDuration":115384,"Delta":7806979},{"NoteNumber":70,"Velocity":65,"Duration":230769,"SoundDuration":230769,"Delta":7922364},{"NoteNumber":67,"Velocity":55,"Duration":230769,"SoundDuration":230769,"Delta":7922364},{"NoteNumber":69,"Velocity":63,"Duration":230768,"SoundDuration":230768,"Delta":8153133},{"NoteNumber":65,"Velocity":53,"Duration":230768,"SoundDuration":230768,"Delta":8153133},{"NoteNumber":67,"Velocity":58,"Duration":113207,"SoundDuration":113207,"Delta":8383901},{"NoteNumber":46,"Velocity":40,"Duration":905659,"SoundDuration":905659,"Delta":8383901},{"NoteNumber":69,"Velocity":50,"Duration":113207,"SoundDuration":113207,"Delta":8497109},{"NoteNumber":67,"Velocity":58,"Duration":113207,"SoundDuration":113207,"Delta":8610316},{"NoteNumber":66,"Velocity":53,"Duration":113207,"SoundDuration":113207,"Delta":8723524},{"NoteNumber":67,"Velocity":58,"Duration":113207,"SoundDuration":113207,"Delta":8836732},{"NoteNumber":69,"Velocity":54,"Duration":113207,"SoundDuration":113207,"Delta":8949939},{"NoteNumber":70,"Velocity":58,"Duration":113207,"SoundDuration":113207,"Delta":9063146},{"NoteNumber":72,"Velocity":53,"Duration":113207,"SoundDuration":113207,"Delta":9176354},{"NoteNumber":74,"Velocity":62,"Duration":234375,"SoundDuration":234375,"Delta":9289561},{"NoteNumber":47,"Velocity":40,"Duration":479272,"SoundDuration":479272,"Delta":9289561},{"NoteNumber":65,"Velocity":57,"Duration":244897,"SoundDuration":244897,"Delta":9523936},{"NoteNumber":65,"Velocity":59,"Duration":230769,"SoundDuration":230769,"Delta":9768834},{"NoteNumber":48,"Velocity":40,"Duration":461537,"SoundDuration":461537,"Delta":9768834},{"NoteNumber":64,"Velocity":53,"Duration":230768,"SoundDuration":230768,"Delta":9999603},{"NoteNumber":62,"Velocity":51,"Duration":57692,"SoundDuration":57692,"Delta":10230372},{"NoteNumber":36,"Velocity":40,"Duration":461538,"SoundDuration":461538,"Delta":10230372},{"NoteNumber":64,"Velocity":46,"Duration":57692,"SoundDuration":57692,"Delta":10288065},{"NoteNumber":62,"Velocity":57,"Duration":115384,"SoundDuration":115384,"Delta":10345757},{"NoteNumber":60,"Velocity":53,"Duration":230769,"SoundDuration":230769,"Delta":10461141},{"NoteNumber":62,"Velocity":57,"Duration":237154,"SoundDuration":237154,"Delta":10691910},{"NoteNumber":64,"Velocity":61,"Duration":250000,"SoundDuration":250000,"Delta":10929064},{"NoteNumber":57,"Velocity":63,"Duration":919539,"SoundDuration":919539,"Delta":11179064},{"NoteNumber":65,"Velocity":70,"Duration":919539,"SoundDuration":919539,"Delta":11179064},{"NoteNumber":41,"Velocity":40,"Duration":229884,"SoundDuration":229884,"Delta":11179064},{"NoteNumber":53,"Velocity":31,"Duration":229885,"SoundDuration":229885,"Delta":11408949},{"NoteNumber":41,"Velocity":34,"Duration":229884,"SoundDuration":229884,"Delta":11638834},{"NoteNumber":53,"Velocity":31,"Duration":229884,"SoundDuration":229884,"Delta":11868719},{"NoteNumber":69,"Velocity":66,"Duration":112781,"SoundDuration":112781,"Delta":12098604},{"NoteNumber":41,"Velocity":34,"Duration":225564,"SoundDuration":225564,"Delta":12098604},{"NoteNumber":65,"Velocity":56,"Duration":112782,"SoundDuration":112782,"Delta":12211386},{"NoteNumber":69,"Velocity":60,"Duration":112781,"SoundDuration":112781,"Delta":12324168},{"NoteNumber":53,"Velocity":31,"Duration":241537,"SoundDuration":241537,"Delta":12324168},{"NoteNumber":65,"Velocity":66,"Duration":128755,"SoundDuration":128755,"Delta":12436950},{"NoteNumber":72,"Velocity":69,"Duration":919539,"SoundDuration":919539,"Delta":12565706},{"NoteNumber":41,"Velocity":40,"Duration":229884,"SoundDuration":229884,"Delta":12565706},{"NoteNumber":53,"Velocity":31,"Duration":229885,"SoundDuration":229885,"Delta":12795591},{"NoteNumber":41,"Velocity":35,"Duration":229884,"SoundDuration":229884,"Delta":13025476},{"NoteNumber":53,"Velocity":31,"Duration":229884,"SoundDuration":229884,"Delta":13255361},{"NoteNumber":70,"Velocity":70,"Duration":114942,"SoundDuration":114942,"Delta":13485246},{"NoteNumber":41,"Velocity":34,"Duration":229884,"SoundDuration":229884,"Delta":13485246},{"NoteNumber":69,"Velocity":66,"Duration":114942,"SoundDuration":114942,"Delta":13600188},{"NoteNumber":67,"Velocity":64,"Duration":120967,"SoundDuration":120967,"Delta":13715131},{"NoteNumber":53,"Velocity":31,"Duration":241935,"SoundDuration":241935,"Delta":13715131},{"NoteNumber":65,"Velocity":61,"Duration":120967,"SoundDuration":120967,"Delta":13836098},{"NoteNumber":64,"Velocity":69,"Duration":229884,"SoundDuration":229884,"Delta":13957066},{"NoteNumber":41,"Velocity":40,"Duration":229884,"SoundDuration":229884,"Delta":13957066},{"NoteNumber":67,"Velocity":66,"Duration":229885,"SoundDuration":229885,"Delta":14186951},{"NoteNumber":53,"Velocity":33,"Duration":229885,"SoundDuration":229885,"Delta":14186951},{"NoteNumber":70,"Velocity":70,"Duration":229884,"SoundDuration":229884,"Delta":14416836},{"NoteNumber":41,"Velocity":38,"Duration":229884,"SoundDuration":229884,"Delta":14416836},{"NoteNumber":74,"Velocity":66,"Duration":229884,"SoundDuration":229884,"Delta":14646721},{"NoteNumber":53,"Velocity":33,"Duration":229884,"SoundDuration":229884,"Delta":14646721},{"NoteNumber":72,"Velocity":70,"Duration":229885,"SoundDuration":229885,"Delta":14876606},{"NoteNumber":41,"Velocity":38,"Duration":229885,"SoundDuration":229885,"Delta":14876606},{"NoteNumber":70,"Velocity":66,"Duration":252100,"SoundDuration":252100,"Delta":15106491},{"NoteNumber":53,"Velocity":33,"Duration":252100,"SoundDuration":252100,"Delta":15106491},{"NoteNumber":64,"Velocity":51,"Duration":461537,"SoundDuration":461537,"Delta":15358592},{"NoteNumber":68,"Velocity":61,"Duration":461537,"SoundDuration":461537,"Delta":15358592},{"NoteNumber":41,"Velocity":40,"Duration":230769,"SoundDuration":230769,"Delta":15358592},{"NoteNumber":53,"Velocity":32,"Duration":230768,"SoundDuration":230768,"Delta":15589361},{"NoteNumber":65,"Velocity":53,"Duration":461537,"SoundDuration":461537,"Delta":15820130},{"NoteNumber":69,"Velocity":63,"Duration":461537,"SoundDuration":461537,"Delta":15820130},{"NoteNumber":41,"Velocity":37,"Duration":230769,"SoundDuration":230769,"Delta":15820130},{"NoteNumber":53,"Velocity":32,"Duration":230768,"SoundDuration":230768,"Delta":16050899},{"NoteNumber":41,"Velocity":37,"Duration":230769,"SoundDuration":230769,"Delta":16281668},{"NoteNumber":53,"Velocity":32,"Duration":265486,"SoundDuration":265486,"Delta":16512437},{"NoteNumber":77,"Velocity":46,"Duration":689654,"SoundDuration":689654,"Delta":16777924},{"NoteNumber":59,"Velocity":26,"Duration":229884,"SoundDuration":229884,"Delta":16777924},{"NoteNumber":55,"Velocity":20,"Duration":229884,"SoundDuration":229884,"Delta":17007809},{"NoteNumber":59,"Velocity":26,"Duration":229884,"SoundDuration":229884,"Delta":17237694},{"NoteNumber":81,"Velocity":42,"Duration":111111,"SoundDuration":111111,"Delta":17467579},{"NoteNumber":55,"Velocity":20,"Duration":222221,"SoundDuration":222221,"Delta":17467579},{"NoteNumber":77,"Velocity":39,"Duration":111110,"SoundDuration":111110,"Delta":17578690},{"NoteNumber":76,"Velocity":42,"Duration":230768,"SoundDuration":230768,"Delta":17689801},{"NoteNumber":60,"Velocity":26,"Duration":230768,"SoundDuration":230768,"Delta":17689801},{"NoteNumber":79,"Velocity":40,"Duration":241935,"SoundDuration":241935,"Delta":17920570},{"NoteNumber":55,"Velocity":20,"Duration":241935,"SoundDuration":241935,"Delta":17920570},{"NoteNumber":71,"Velocity":46,"Duration":692306,"SoundDuration":692306,"Delta":18162505},{"NoteNumber":65,"Velocity":26,"Duration":230768,"SoundDuration":230768,"Delta":18162505},{"NoteNumber":55,"Velocity":20,"Duration":230769,"SoundDuration":230769,"Delta":18393274},{"NoteNumber":65,"Velocity":26,"Duration":230768,"SoundDuration":230768,"Delta":18624043},{"NoteNumber":74,"Velocity":42,"Duration":111940,"SoundDuration":111940,"Delta":18854812},{"NoteNumber":55,"Velocity":20,"Duration":223880,"SoundDuration":223880,"Delta":18854812},{"NoteNumber":71,"Velocity":39,"Duration":111940,"SoundDuration":111940,"Delta":18966752},{"NoteNumber":72,"Velocity":42,"Duration":230768,"SoundDuration":230768,"Delta":19078693},{"NoteNumber":64,"Velocity":26,"Duration":230768,"SoundDuration":230768,"Delta":19078693},{"NoteNumber":67,"Velocity":40,"Duration":247934,"SoundDuration":247934,"Delta":19309462},{"NoteNumber":55,"Velocity":20,"Duration":247934,"SoundDuration":247934,"Delta":19309462},{"NoteNumber":77,"Velocity":46,"Duration":111524,"SoundDuration":111524,"Delta":19557396},{"NoteNumber":59,"Velocity":26,"Duration":224306,"SoundDuration":224306,"Delta":19557396},{"NoteNumber":79,"Velocity":39,"Duration":112781,"SoundDuration":112781,"Delta":19668920},{"NoteNumber":77,"Velocity":47,"Duration":112781,"SoundDuration":112781,"Delta":19781702},{"NoteNumber":55,"Velocity":20,"Duration":226418,"SoundDuration":226418,"Delta":19781702},{"NoteNumber":76,"Velocity":42,"Duration":113636,"SoundDuration":113636,"Delta":19894484},{"NoteNumber":77,"Velocity":46,"Duration":115384,"SoundDuration":115384,"Delta":20008120},{"NoteNumber":59,"Velocity":26,"Duration":230768,"SoundDuration":230768,"Delta":20008120},{"NoteNumber":81,"Velocity":40,"Duration":115384,"SoundDuration":115384,"Delta":20123505},{"NoteNumber":79,"Velocity":42,"Duration":115384,"SoundDuration":115384,"Delta":20238889},{"NoteNumber":55,"Velocity":20,"Duration":230769,"SoundDuration":230769,"Delta":20238889},{"NoteNumber":77,"Velocity":39,"Duration":115384,"SoundDuration":115384,"Delta":20354274},{"NoteNumber":76,"Velocity":43,"Duration":116278,"SoundDuration":116278,"Delta":20469658},{"NoteNumber":60,"Velocity":26,"Duration":232558,"SoundDuration":232558,"Delta":20469658},{"NoteNumber":79,"Velocity":40,"Duration":116279,"SoundDuration":116279,"Delta":20585937},{"NoteNumber":76,"Velocity":42,"Duration":116278,"SoundDuration":116278,"Delta":20702216},{"NoteNumber":55,"Velocity":20,"Duration":238230,"SoundDuration":238230,"Delta":20702216},{"NoteNumber":72,"Velocity":40,"Duration":121951,"SoundDuration":121951,"Delta":20818495},{"NoteNumber":71,"Velocity":46,"Duration":114068,"SoundDuration":114068,"Delta":20940446},{"NoteNumber":65,"Velocity":26,"Duration":229898,"SoundDuration":229898,"Delta":20940446},{"NoteNumber":72,"Velocity":39,"Duration":115829,"SoundDuration":115829,"Delta":21054515},{"NoteNumber":71,"Velocity":47,"Duration":115830,"SoundDuration":115830,"Delta":21170345},{"NoteNumber":55,"Velocity":20,"Duration":231660,"SoundDuration":231660,"Delta":21170345},{"NoteNumber":69,"Velocity":42,"Duration":115829,"SoundDuration":115829,"Delta":21286175},{"NoteNumber":71,"Velocity":46,"Duration":115384,"SoundDuration":115384,"Delta":21402005},{"NoteNumber":65,"Velocity":26,"Duration":230768,"SoundDuration":230768,"Delta":21402005},{"NoteNumber":74,"Velocity":40,"Duration":115384,"SoundDuration":115384,"Delta":21517389},{"NoteNumber":72,"Velocity":42,"Duration":115384,"SoundDuration":115384,"Delta":21632774},{"NoteNumber":55,"Velocity":20,"Duration":230769,"SoundDuration":230769,"Delta":21632774},{"NoteNumber":71,"Velocity":39,"Duration":115384,"SoundDuration":115384,"Delta":21748158},{"NoteNumber":72,"Velocity":43,"Duration":113207,"SoundDuration":113207,"Delta":21863543},{"NoteNumber":64,"Velocity":26,"Duration":229037,"SoundDuration":229037,"Delta":21863543},{"NoteNumber":76,"Velocity":40,"Duration":115829,"SoundDuration":115829,"Delta":21976750},{"NoteNumber":79,"Velocity":42,"Duration":115830,"SoundDuration":115830,"Delta":22092580},{"NoteNumber":60,"Velocity":20,"Duration":242412,"SoundDuration":242412,"Delta":22092580},{"NoteNumber":84,"Velocity":40,"Duration":126582,"SoundDuration":126582,"Delta":22208410},{"NoteNumber":65,"Velocity":43,"Duration":123456,"SoundDuration":123456,"Delta":22334993},{"NoteNumber":81,"Velocity":34,"Duration":112359,"SoundDuration":112359,"Delta":22458449},{"NoteNumber":77,"Velocity":39,"Duration":112359,"SoundDuration":112359,"Delta":22570809},{"NoteNumber":74,"Velocity":34,"Duration":112359,"SoundDuration":112359,"Delta":22683168},{"NoteNumber":67,"Velocity":35,"Duration":122448,"SoundDuration":122448,"Delta":22795528},{"NoteNumber":79,"Velocity":35,"Duration":113207,"SoundDuration":113207,"Delta":22917977},{"NoteNumber":76,"Velocity":39,"Duration":113207,"SoundDuration":113207,"Delta":23031184},{"NoteNumber":72,"Velocity":35,"Duration":113207,"SoundDuration":113207,"Delta":23144392},{"NoteNumber":55,"Velocity":33,"Duration":121457,"SoundDuration":121457,"Delta":23257599},{"NoteNumber":77,"Velocity":33,"Duration":114068,"SoundDuration":114068,"Delta":23379057},{"NoteNumber":74,"Velocity":39,"Duration":114068,"SoundDuration":114068,"Delta":23493125},{"NoteNumber":71,"Velocity":34,"Duration":134529,"SoundDuration":134529,"Delta":23607194},{"NoteNumber":60,"Velocity":34,"Duration":458014,"SoundDuration":458014,"Delta":23741723},{"NoteNumber":64,"Velocity":40,"Duration":458014,"SoundDuration":458014,"Delta":23741723},{"NoteNumber":72,"Velocity":39,"Duration":114503,"SoundDuration":114503,"Delta":23970731},{"NoteNumber":74,"Velocity":44,"Duration":114503,"SoundDuration":114503,"Delta":24085234},{"NoteNumber":76,"Velocity":45,"Duration":85877,"SoundDuration":85877,"Delta":24199738},{"NoteNumber":72,"Velocity":49,"Duration":88932,"SoundDuration":88932,"Delta":24428746},{"NoteNumber":76,"Velocity":40,"Duration":88932,"SoundDuration":88932,"Delta":24428746},{"NoteNumber":72,"Velocity":53,"Duration":88932,"SoundDuration":88932,"Delta":24665900},{"NoteNumber":76,"Velocity":40,"Duration":88932,"SoundDuration":88932,"Delta":24665900},{"NoteNumber":72,"Velocity":57,"Duration":94537,"SoundDuration":94537,"Delta":24903054},{"NoteNumber":76,"Velocity":40,"Duration":94537,"SoundDuration":94537,"Delta":24903054},{"NoteNumber":79,"Velocity":65,"Duration":456274,"SoundDuration":456274,"Delta":25155155},{"NoteNumber":76,"Velocity":55,"Duration":456274,"SoundDuration":456274,"Delta":25155155},{"NoteNumber":67,"Velocity":55,"Duration":114068,"SoundDuration":114068,"Delta":25383292},{"NoteNumber":66,"Velocity":48,"Duration":114068,"SoundDuration":114068,"Delta":25497360},{"NoteNumber":77,"Velocity":59,"Duration":953289,"SoundDuration":953289,"Delta":25611429},{"NoteNumber":74,"Velocity":50,"Duration":953289,"SoundDuration":953289,"Delta":25611429},{"NoteNumber":67,"Velocity":53,"Duration":114068,"SoundDuration":114068,"Delta":25611429},{"NoteNumber":55,"Velocity":48,"Duration":119047,"SoundDuration":119047,"Delta":25839566},{"NoteNumber":57,"Velocity":46,"Duration":119047,"SoundDuration":119047,"Delta":26077661},{"NoteNumber":59,"Velocity":40,"Duration":124481,"SoundDuration":124481,"Delta":26315756},{"NoteNumber":60,"Velocity":40,"Duration":452829,"SoundDuration":452829,"Delta":26564718},{"NoteNumber":72,"Velocity":39,"Duration":113207,"SoundDuration":113207,"Delta":26791133},{"NoteNumber":74,"Velocity":44,"Duration":113207,"SoundDuration":113207,"Delta":26904341},{"NoteNumber":76,"Velocity":45,"Duration":84905,"SoundDuration":84905,"Delta":27017548},{"NoteNumber":76,"Velocity":49,"Duration":84905,"SoundDuration":84905,"Delta":27243963},{"NoteNumber":72,"Velocity":40,"Duration":84905,"SoundDuration":84905,"Delta":27243963},{"NoteNumber":76,"Velocity":53,"Duration":88932,"SoundDuration":88932,"Delta":27475748},{"NoteNumber":72,"Velocity":40,"Duration":88932,"SoundDuration":88932,"Delta":27475748},{"NoteNumber":76,"Velocity":57,"Duration":93750,"SoundDuration":93750,"Delta":27712902},{"NoteNumber":72,"Velocity":40,"Duration":93750,"SoundDuration":93750,"Delta":27712902},{"NoteNumber":79,"Velocity":65,"Duration":459769,"SoundDuration":459769,"Delta":27962902},{"NoteNumber":76,"Velocity":55,"Duration":459769,"SoundDuration":459769,"Delta":27962902},{"NoteNumber":67,"Velocity":55,"Duration":114942,"SoundDuration":114942,"Delta":28192787},{"NoteNumber":66,"Velocity":48,"Duration":114942,"SoundDuration":114942,"Delta":28307729},{"NoteNumber":77,"Velocity":59,"Duration":957644,"SoundDuration":957644,"Delta":28422672},{"NoteNumber":74,"Velocity":50,"Duration":957644,"SoundDuration":957644,"Delta":28422672},{"NoteNumber":67,"Velocity":53,"Duration":86206,"SoundDuration":86206,"Delta":28422672},{"NoteNumber":55,"Velocity":48,"Duration":118110,"SoundDuration":118110,"Delta":28652557},{"NoteNumber":57,"Velocity":46,"Duration":118110,"SoundDuration":118110,"Delta":28888777},{"NoteNumber":59,"Velocity":40,"Duration":127659,"SoundDuration":127659,"Delta":29124998},{"NoteNumber":72,"Velocity":50,"Duration":346153,"SoundDuration":346153,"Delta":29380317},{"NoteNumber":76,"Velocity":59,"Duration":346153,"SoundDuration":346153,"Delta":29380317},{"NoteNumber":60,"Velocity":40,"Duration":346153,"SoundDuration":346153,"Delta":29380317},{"NoteNumber":77,"Velocity":47,"Duration":115384,"SoundDuration":115384,"Delta":29726470},{"NoteNumber":74,"Velocity":39,"Duration":115384,"SoundDuration":115384,"Delta":29726470},{"NoteNumber":53,"Velocity":33,"Duration":115384,"SoundDuration":115384,"Delta":29726470},{"NoteNumber":76,"Velocity":56,"Duration":461537,"SoundDuration":461537,"Delta":29841855},{"NoteNumber":72,"Velocity":47,"Duration":461537,"SoundDuration":461537,"Delta":29841855},{"NoteNumber":55,"Velocity":40,"Duration":461537,"SoundDuration":461537,"Delta":29841855},{"NoteNumber":74,"Velocity":47,"Duration":461538,"SoundDuration":461538,"Delta":30303393},{"NoteNumber":71,"Velocity":39,"Duration":461538,"SoundDuration":461538,"Delta":30303393},{"NoteNumber":43,"Velocity":38,"Duration":461538,"SoundDuration":461538,"Delta":30303393},{"NoteNumber":48,"Velocity":40,"Duration":449746,"SoundDuration":449746,"Delta":30764931},{"NoteNumber":72,"Velocity":35,"Duration":109488,"SoundDuration":109488,"Delta":30995700},{"NoteNumber":67,"Velocity":39,"Duration":109488,"SoundDuration":109488,"Delta":31105189},{"NoteNumber":64,"Velocity":40,"Duration":86872,"SoundDuration":86872,"Delta":31214678},{"NoteNumber":64,"Velocity":44,"Duration":86872,"SoundDuration":86872,"Delta":31446338},{"NoteNumber":60,"Velocity":36,"Duration":86872,"SoundDuration":86872,"Delta":31446338},{"NoteNumber":64,"Velocity":47,"Duration":89999,"SoundDuration":89999,"Delta":31677998},{"NoteNumber":60,"Velocity":36,"Duration":89999,"SoundDuration":89999,"Delta":31677998},{"NoteNumber":64,"Velocity":51,"Duration":96153,"SoundDuration":96153,"Delta":31917998},{"NoteNumber":60,"Velocity":36,"Duration":96153,"SoundDuration":96153,"Delta":31917998},{"NoteNumber":67,"Velocity":58,"Duration":463320,"SoundDuration":463320,"Delta":32174408},{"NoteNumber":64,"Velocity":49,"Duration":463320,"SoundDuration":463320,"Delta":32174408},{"NoteNumber":55,"Velocity":49,"Duration":115830,"SoundDuration":115830,"Delta":32406068},{"NoteNumber":54,"Velocity":43,"Duration":115830,"SoundDuration":115830,"Delta":32521898},{"NoteNumber":65,"Velocity":53,"Duration":960511,"SoundDuration":960511,"Delta":32637728},{"NoteNumber":62,"Velocity":45,"Duration":960511,"SoundDuration":960511,"Delta":32637728},{"NoteNumber":55,"Velocity":47,"Duration":86872,"SoundDuration":86872,"Delta":32637728},{"NoteNumber":43,"Velocity":43,"Duration":118110,"SoundDuration":118110,"Delta":32869388},{"NoteNumber":45,"Velocity":41,"Duration":118110,"SoundDuration":118110,"Delta":33105609},{"NoteNumber":47,"Velocity":36,"Duration":128205,"SoundDuration":128205,"Delta":33341829},{"NoteNumber":48,"Velocity":40,"Duration":452991,"SoundDuration":452991,"Delta":33598240},{"NoteNumber":72,"Velocity":35,"Duration":111111,"SoundDuration":111111,"Delta":33829009},{"NoteNumber":67,"Velocity":39,"Duration":111111,"SoundDuration":111111,"Delta":33940120},{"NoteNumber":64,"Velocity":40,"Duration":87209,"SoundDuration":87209,"Delta":34051231},{"NoteNumber":64,"Velocity":44,"Duration":90000,"SoundDuration":90000,"Delta":34283789},{"NoteNumber":60,"Velocity":36,"Duration":90000,"SoundDuration":90000,"Delta":34283789},{"NoteNumber":64,"Velocity":47,"Duration":89999,"SoundDuration":89999,"Delta":34523789},{"NoteNumber":60,"Velocity":36,"Duration":89999,"SoundDuration":89999,"Delta":34523789},{"NoteNumber":64,"Velocity":51,"Duration":95339,"SoundDuration":95339,"Delta":34763789},{"NoteNumber":60,"Velocity":36,"Duration":95339,"SoundDuration":95339,"Delta":34763789},{"NoteNumber":67,"Velocity":58,"Duration":456378,"SoundDuration":456378,"Delta":35018026},{"NoteNumber":64,"Velocity":49,"Duration":456378,"SoundDuration":456378,"Delta":35018026},{"NoteNumber":55,"Velocity":49,"Duration":112359,"SoundDuration":112359,"Delta":35249686},{"NoteNumber":54,"Velocity":43,"Duration":112359,"SoundDuration":112359,"Delta":35362046},{"NoteNumber":65,"Velocity":45,"Duration":959903,"SoundDuration":959903,"Delta":35474405},{"NoteNumber":62,"Velocity":53,"Duration":959903,"SoundDuration":959903,"Delta":35474405},{"NoteNumber":55,"Velocity":47,"Duration":86538,"SoundDuration":86538,"Delta":35474405},{"NoteNumber":43,"Velocity":43,"Duration":119522,"SoundDuration":119522,"Delta":35705174},{"NoteNumber":45,"Velocity":41,"Duration":119522,"SoundDuration":119522,"Delta":35944218},{"NoteNumber":47,"Velocity":36,"Duration":125523,"SoundDuration":125523,"Delta":36183262},{"NoteNumber":64,"Velocity":58,"Duration":115384,"SoundDuration":115384,"Delta":36434308},{"NoteNumber":48,"Velocity":36,"Duration":230769,"SoundDuration":230769,"Delta":36434308},{"NoteNumber":60,"Velocity":51,"Duration":115384,"SoundDuration":115384,"Delta":36549693},{"NoteNumber":65,"Velocity":58,"Duration":115384,"SoundDuration":115384,"Delta":36665077},{"NoteNumber":41,"Velocity":32,"Duration":241434,"SoundDuration":241434,"Delta":36665077},{"NoteNumber":62,"Velocity":49,"Duration":126050,"SoundDuration":126050,"Delta":36780462},{"NoteNumber":64,"Velocity":56,"Duration":87209,"SoundDuration":87209,"Delta":36906512},{"NoteNumber":60,"Velocity":47,"Duration":87209,"SoundDuration":87209,"Delta":36906512},{"NoteNumber":43,"Velocity":40,"Duration":465116,"SoundDuration":465116,"Delta":36906512},{"NoteNumber":64,"Velocity":51,"Duration":87209,"SoundDuration":87209,"Delta":37139070},{"NoteNumber":60,"Velocity":43,"Duration":87209,"SoundDuration":87209,"Delta":37139070},{"NoteNumber":62,"Velocity":62,"Duration":90000,"SoundDuration":90000,"Delta":37371628},{"NoteNumber":59,"Velocity":52,"Duration":90000,"SoundDuration":90000,"Delta":37371628},{"NoteNumber":43,"Velocity":39,"Duration":479999,"SoundDuration":479999,"Delta":37371628},{"NoteNumber":62,"Velocity":55,"Duration":89999,"SoundDuration":89999,"Delta":37611628},{"NoteNumber":59,"Velocity":46,"Duration":89999,"SoundDuration":89999,"Delta":37611628},{"NoteNumber":60,"Velocity":70,"Duration":697673,"SoundDuration":697673,"Delta":37851628},{"NoteNumber":36,"Velocity":57,"Duration":232557,"SoundDuration":232557,"Delta":37851628},{"NoteNumber":48,"Velocity":36,"Duration":232558,"SoundDuration":232558,"Delta":38084186},{"NoteNumber":48,"Velocity":47,"Duration":468778,"SoundDuration":468778,"Delta":38316744},{"NoteNumber":62,"Velocity":54,"Duration":118110,"SoundDuration":118110,"Delta":38549302},{"NoteNumber":64,"Velocity":56,"Duration":118110,"SoundDuration":118110,"Delta":38667412},{"NoteNumber":65,"Velocity":57,"Duration":118110,"SoundDuration":118110,"Delta":38785523},{"NoteNumber":67,"Velocity":60,"Duration":118110,"SoundDuration":118110,"Delta":38903633},{"NoteNumber":69,"Velocity":61,"Duration":125523,"SoundDuration":125523,"Delta":39021743},{"NoteNumber":71,"Velocity":68,"Duration":125523,"SoundDuration":125523,"Delta":39147266},{"NoteNumber":72,"Velocity":77,"Duration":694980,"SoundDuration":694980,"Delta":39272789},{"NoteNumber":36,"Velocity":58,"Duration":231659,"SoundDuration":231659,"Delta":39272789},{"NoteNumber":48,"Velocity":36,"Duration":231660,"SoundDuration":231660,"Delta":39504449},{"NoteNumber":48,"Velocity":50,"Duration":469754,"SoundDuration":469754,"Delta":39736109},{"NoteNumber":74,"Velocity":59,"Duration":119047,"SoundDuration":119047,"Delta":39967769},{"NoteNumber":76,"Velocity":61,"Duration":119047,"SoundDuration":119047,"Delta":40086817},{"NoteNumber":77,"Velocity":62,"Duration":121457,"SoundDuration":121457,"Delta":40205864},{"NoteNumber":79,"Velocity":66,"Duration":121457,"SoundDuration":121457,"Delta":40327322},{"NoteNumber":81,"Velocity":67,"Duration":130434,"SoundDuration":130434,"Delta":40448779},{"NoteNumber":83,"Velocity":74,"Duration":130434,"SoundDuration":130434,"Delta":40579214},{"NoteNumber":84,"Velocity":85,"Duration":244897,"SoundDuration":244897,"Delta":40709649},{"NoteNumber":48,"Velocity":51,"Duration":244897,"SoundDuration":244897,"Delta":40709649},{"NoteNumber":36,"Velocity":43,"Duration":244897,"SoundDuration":244897,"Delta":40709649},{"NoteNumber":64,"Velocity":58,"Duration":244897,"SoundDuration":244897,"Delta":41199445},{"NoteNumber":67,"Velocity":58,"Duration":244897,"SoundDuration":244897,"Delta":41199445},{"NoteNumber":72,"Velocity":69,"Duration":244897,"SoundDuration":244897,"Delta":41199445},{"NoteNumber":48,"Velocity":39,"Duration":244897,"SoundDuration":244897,"Delta":41199445},{"NoteNumber":36,"Velocity":43,"Duration":244897,"SoundDuration":244897,"Delta":41199445},{"NoteNumber":65,"Velocity":70,"Duration":930231,"SoundDuration":930231,"Delta":42179037},{"NoteNumber":41,"Velocity":40,"Duration":232557,"SoundDuration":232557,"Delta":42179037},{"NoteNumber":53,"Velocity":31,"Duration":232558,"SoundDuration":232558,"Delta":42411595},{"NoteNumber":41,"Velocity":34,"Duration":232557,"SoundDuration":232557,"Delta":42644153},{"NoteNumber":53,"Velocity":31,"Duration":232557,"SoundDuration":232557,"Delta":42876711},{"NoteNumber":69,"Velocity":66,"Duration":356525,"SoundDuration":356525,"Delta":43109269},{"NoteNumber":41,"Velocity":34,"Duration":232558,"SoundDuration":232558,"Delta":43109269},{"NoteNumber":53,"Velocity":31,"Duration":247934,"SoundDuration":247934,"Delta":43341827},{"NoteNumber":65,"Velocity":56,"Duration":123967,"SoundDuration":123967,"Delta":43465794},{"NoteNumber":72,"Velocity":69,"Duration":926639,"SoundDuration":926639,"Delta":43589761},{"NoteNumber":41,"Velocity":40,"Duration":231659,"SoundDuration":231659,"Delta":43589761},{"NoteNumber":53,"Velocity":31,"Duration":231660,"SoundDuration":231660,"Delta":43821421},{"NoteNumber":41,"Velocity":35,"Duration":231659,"SoundDuration":231659,"Delta":44053081},{"NoteNumber":53,"Velocity":31,"Duration":231659,"SoundDuration":231659,"Delta":44284741},{"NoteNumber":70,"Velocity":70,"Duration":113207,"SoundDuration":113207,"Delta":44516401},{"NoteNumber":41,"Velocity":34,"Duration":226415,"SoundDuration":226415,"Delta":44516401},{"NoteNumber":69,"Velocity":66,"Duration":113207,"SoundDuration":113207,"Delta":44629608},{"NoteNumber":67,"Velocity":64,"Duration":113207,"SoundDuration":113207,"Delta":44742816},{"NoteNumber":53,"Velocity":31,"Duration":226414,"SoundDuration":226414,"Delta":44742816},{"NoteNumber":65,"Velocity":61,"Duration":113207,"SoundDuration":113207,"Delta":44856023},{"NoteNumber":64,"Velocity":69,"Duration":229007,"SoundDuration":229007,"Delta":44969231},{"NoteNumber":41,"Velocity":40,"Duration":229007,"SoundDuration":229007,"Delta":44969231},{"NoteNumber":67,"Velocity":66,"Duration":229007,"SoundDuration":229007,"Delta":45198238},{"NoteNumber":53,"Velocity":33,"Duration":229007,"SoundDuration":229007,"Delta":45198238},{"NoteNumber":70,"Velocity":70,"Duration":229007,"SoundDuration":229007,"Delta":45427246},{"NoteNumber":41,"Velocity":38,"Duration":229007,"SoundDuration":229007,"Delta":45427246},{"NoteNumber":74,"Velocity":66,"Duration":229007,"SoundDuration":229007,"Delta":45656253},{"NoteNumber":53,"Velocity":33,"Duration":229007,"SoundDuration":229007,"Delta":45656253},{"NoteNumber":72,"Velocity":70,"Duration":229007,"SoundDuration":229007,"Delta":45885261},{"NoteNumber":41,"Velocity":38,"Duration":229007,"SoundDuration":229007,"Delta":45885261},{"NoteNumber":70,"Velocity":66,"Duration":251046,"SoundDuration":251046,"Delta":46114268},{"NoteNumber":53,"Velocity":33,"Duration":251046,"SoundDuration":251046,"Delta":46114268},{"NoteNumber":64,"Velocity":51,"Duration":463320,"SoundDuration":463320,"Delta":46365314},{"NoteNumber":68,"Velocity":61,"Duration":463320,"SoundDuration":463320,"Delta":46365314},{"NoteNumber":41,"Velocity":40,"Duration":231659,"SoundDuration":231659,"Delta":46365314},{"NoteNumber":53,"Velocity":32,"Duration":231660,"SoundDuration":231660,"Delta":46596974},{"NoteNumber":65,"Velocity":53,"Duration":463319,"SoundDuration":463319,"Delta":46828634},{"NoteNumber":69,"Velocity":63,"Duration":463319,"SoundDuration":463319,"Delta":46828634},{"NoteNumber":41,"Velocity":37,"Duration":231659,"SoundDuration":231659,"Delta":46828634},{"NoteNumber":53,"Velocity":32,"Duration":231659,"SoundDuration":231659,"Delta":47060294},{"NoteNumber":41,"Velocity":37,"Duration":231659,"SoundDuration":231659,"Delta":47291954},{"NoteNumber":53,"Velocity":32,"Duration":266666,"SoundDuration":266666,"Delta":47523614},{"NoteNumber":74,"Velocity":59,"Duration":926639,"SoundDuration":926639,"Delta":47790281},{"NoteNumber":77,"Velocity":70,"Duration":694980,"SoundDuration":694980,"Delta":47790281},{"NoteNumber":41,"Velocity":40,"Duration":231659,"SoundDuration":231659,"Delta":47790281},{"NoteNumber":53,"Velocity":32,"Duration":231660,"SoundDuration":231660,"Delta":48021941},{"NoteNumber":53,"Velocity":40,"Duration":463319,"SoundDuration":463319,"Delta":48253601},{"NoteNumber":79,"Velocity":65,"Duration":115829,"SoundDuration":115829,"Delta":48485261},{"NoteNumber":77,"Velocity":61,"Duration":115830,"SoundDuration":115830,"Delta":48601091},{"NoteNumber":76,"Velocity":65,"Duration":231659,"SoundDuration":231659,"Delta":48716921},{"NoteNumber":72,"Velocity":55,"Duration":231659,"SoundDuration":231659,"Delta":48716921},{"NoteNumber":74,"Velocity":63,"Duration":240000,"SoundDuration":240000,"Delta":48948581},{"NoteNumber":70,"Velocity":53,"Duration":240000,"SoundDuration":240000,"Delta":48948581},{"NoteNumber":69,"Velocity":59,"Duration":923076,"SoundDuration":923076,"Delta":49188581},{"NoteNumber":72,"Velocity":70,"Duration":692306,"SoundDuration":692306,"Delta":49188581},{"NoteNumber":41,"Velocity":40,"Duration":230769,"SoundDuration":230769,"Delta":49188581},{"NoteNumber":53,"Velocity":32,"Duration":230768,"SoundDuration":230768,"Delta":49419350},{"NoteNumber":53,"Velocity":40,"Duration":461538,"SoundDuration":461538,"Delta":49650119},{"NoteNumber":74,"Velocity":65,"Duration":115384,"SoundDuration":115384,"Delta":49880888},{"NoteNumber":72,"Velocity":61,"Duration":115384,"SoundDuration":115384,"Delta":49996272},{"NoteNumber":70,"Velocity":65,"Duration":230768,"SoundDuration":230768,"Delta":50111657},{"NoteNumber":67,"Velocity":55,"Duration":230768,"SoundDuration":230768,"Delta":50111657},{"NoteNumber":69,"Velocity":63,"Duration":230769,"SoundDuration":230769,"Delta":50342426},{"NoteNumber":65,"Velocity":53,"Duration":230769,"SoundDuration":230769,"Delta":50342426},{"NoteNumber":67,"Velocity":58,"Duration":113207,"SoundDuration":113207,"Delta":50573195},{"NoteNumber":46,"Velocity":40,"Duration":905659,"SoundDuration":905659,"Delta":50573195},{"NoteNumber":69,"Velocity":50,"Duration":113207,"SoundDuration":113207,"Delta":50686402},{"NoteNumber":67,"Velocity":58,"Duration":113207,"SoundDuration":113207,"Delta":50799610},{"NoteNumber":66,"Velocity":53,"Duration":113207,"SoundDuration":113207,"Delta":50912817},{"NoteNumber":67,"Velocity":58,"Duration":113207,"SoundDuration":113207,"Delta":51026025},{"NoteNumber":69,"Velocity":54,"Duration":113207,"SoundDuration":113207,"Delta":51139232},{"NoteNumber":70,"Velocity":58,"Duration":113207,"SoundDuration":113207,"Delta":51252440},{"NoteNumber":72,"Velocity":53,"Duration":113207,"SoundDuration":113207,"Delta":51365647},{"NoteNumber":74,"Velocity":62,"Duration":234375,"SoundDuration":234375,"Delta":51478855},{"NoteNumber":47,"Velocity":40,"Duration":479272,"SoundDuration":479272,"Delta":51478855},{"NoteNumber":65,"Velocity":57,"Duration":244897,"SoundDuration":244897,"Delta":51713230},{"NoteNumber":65,"Velocity":59,"Duration":230769,"SoundDuration":230769,"Delta":51958128},{"NoteNumber":48,"Velocity":40,"Duration":461537,"SoundDuration":461537,"Delta":51958128},{"NoteNumber":64,"Velocity":53,"Duration":230768,"SoundDuration":230768,"Delta":52188897},{"NoteNumber":62,"Velocity":51,"Duration":57692,"SoundDuration":57692,"Delta":52419666},{"NoteNumber":36,"Velocity":40,"Duration":461538,"SoundDuration":461538,"Delta":52419666},{"NoteNumber":64,"Velocity":46,"Duration":57692,"SoundDuration":57692,"Delta":52477358},{"NoteNumber":62,"Velocity":57,"Duration":115384,"SoundDuration":115384,"Delta":52535050},{"NoteNumber":60,"Velocity":53,"Duration":230769,"SoundDuration":230769,"Delta":52650435},{"NoteNumber":62,"Velocity":57,"Duration":240000,"SoundDuration":240000,"Delta":52881204},{"NoteNumber":64,"Velocity":61,"Duration":256410,"SoundDuration":256410,"Delta":53121204},{"NoteNumber":57,"Velocity":63,"Duration":919539,"SoundDuration":919539,"Delta":53377614},{"NoteNumber":65,"Velocity":70,"Duration":919539,"SoundDuration":919539,"Delta":53377614},{"NoteNumber":41,"Velocity":40,"Duration":229885,"SoundDuration":229885,"Delta":53377614},{"NoteNumber":53,"Velocity":31,"Duration":229884,"SoundDuration":229884,"Delta":53607499},{"NoteNumber":41,"Velocity":34,"Duration":229885,"SoundDuration":229885,"Delta":53837384},{"NoteNumber":53,"Velocity":31,"Duration":229884,"SoundDuration":229884,"Delta":54067269},{"NoteNumber":69,"Velocity":66,"Duration":111111,"SoundDuration":111111,"Delta":54297154},{"NoteNumber":41,"Velocity":34,"Duration":222222,"SoundDuration":222222,"Delta":54297154},{"NoteNumber":65,"Velocity":56,"Duration":111111,"SoundDuration":111111,"Delta":54408265},{"NoteNumber":69,"Velocity":60,"Duration":111111,"SoundDuration":111111,"Delta":54519376},{"NoteNumber":53,"Velocity":31,"Duration":239866,"SoundDuration":239866,"Delta":54519376},{"NoteNumber":65,"Velocity":66,"Duration":128755,"SoundDuration":128755,"Delta":54630487},{"NoteNumber":72,"Velocity":69,"Duration":919539,"SoundDuration":919539,"Delta":54759243},{"NoteNumber":41,"Velocity":40,"Duration":229885,"SoundDuration":229885,"Delta":54759243},{"NoteNumber":53,"Velocity":31,"Duration":229884,"SoundDuration":229884,"Delta":54989128},{"NoteNumber":41,"Velocity":35,"Duration":229885,"SoundDuration":229885,"Delta":55219013},{"NoteNumber":53,"Velocity":31,"Duration":229884,"SoundDuration":229884,"Delta":55448898},{"NoteNumber":70,"Velocity":70,"Duration":111940,"SoundDuration":111940,"Delta":55678782},{"NoteNumber":41,"Velocity":34,"Duration":223880,"SoundDuration":223880,"Delta":55678782},{"NoteNumber":69,"Velocity":66,"Duration":111940,"SoundDuration":111940,"Delta":55790723},{"NoteNumber":67,"Velocity":64,"Duration":120967,"SoundDuration":120967,"Delta":55902663},{"NoteNumber":53,"Velocity":31,"Duration":241935,"SoundDuration":241935,"Delta":55902663},{"NoteNumber":65,"Velocity":61,"Duration":120967,"SoundDuration":120967,"Delta":56023631},{"NoteNumber":64,"Velocity":69,"Duration":229885,"SoundDuration":229885,"Delta":56144598},{"NoteNumber":41,"Velocity":40,"Duration":229885,"SoundDuration":229885,"Delta":56144598},{"NoteNumber":67,"Velocity":66,"Duration":229884,"SoundDuration":229884,"Delta":56374483},{"NoteNumber":53,"Velocity":33,"Duration":229884,"SoundDuration":229884,"Delta":56374483},{"NoteNumber":70,"Velocity":70,"Duration":229885,"SoundDuration":229885,"Delta":56604368},{"NoteNumber":41,"Velocity":38,"Duration":229885,"SoundDuration":229885,"Delta":56604368},{"NoteNumber":74,"Velocity":66,"Duration":229884,"SoundDuration":229884,"Delta":56834253},{"NoteNumber":53,"Velocity":33,"Duration":229884,"SoundDuration":229884,"Delta":56834253},{"NoteNumber":72,"Velocity":70,"Duration":229885,"SoundDuration":229885,"Delta":57064138},{"NoteNumber":41,"Velocity":38,"Duration":229885,"SoundDuration":229885,"Delta":57064138},{"NoteNumber":70,"Velocity":66,"Duration":252101,"SoundDuration":252101,"Delta":57294023},{"NoteNumber":53,"Velocity":33,"Duration":252101,"SoundDuration":252101,"Delta":57294023},{"NoteNumber":64,"Velocity":51,"Duration":461537,"SoundDuration":461537,"Delta":57546125},{"NoteNumber":68,"Velocity":61,"Duration":461537,"SoundDuration":461537,"Delta":57546125},{"NoteNumber":41,"Velocity":40,"Duration":230769,"SoundDuration":230769,"Delta":57546125},{"NoteNumber":53,"Velocity":32,"Duration":230768,"SoundDuration":230768,"Delta":57776894},{"NoteNumber":65,"Velocity":53,"Duration":461538,"SoundDuration":461538,"Delta":58007662},{"NoteNumber":69,"Velocity":63,"Duration":461538,"SoundDuration":461538,"Delta":58007662},{"NoteNumber":41,"Velocity":37,"Duration":230769,"SoundDuration":230769,"Delta":58007662},{"NoteNumber":53,"Velocity":32,"Duration":230769,"SoundDuration":230769,"Delta":58238431},{"NoteNumber":41,"Velocity":37,"Duration":230768,"SoundDuration":230768,"Delta":58469201},{"NoteNumber":53,"Velocity":32,"Duration":265486,"SoundDuration":265486,"Delta":58699969},{"NoteNumber":77,"Velocity":46,"Duration":689655,"SoundDuration":689655,"Delta":58965456},{"NoteNumber":59,"Velocity":26,"Duration":229885,"SoundDuration":229885,"Delta":58965456},{"NoteNumber":55,"Velocity":20,"Duration":229884,"SoundDuration":229884,"Delta":59195341},{"NoteNumber":59,"Velocity":26,"Duration":229885,"SoundDuration":229885,"Delta":59425226},{"NoteNumber":81,"Velocity":42,"Duration":109890,"SoundDuration":109890,"Delta":59655111},{"NoteNumber":55,"Velocity":20,"Duration":219780,"SoundDuration":219780,"Delta":59655111},{"NoteNumber":77,"Velocity":39,"Duration":109890,"SoundDuration":109890,"Delta":59765001},{"NoteNumber":76,"Velocity":42,"Duration":230769,"SoundDuration":230769,"Delta":59874891},{"NoteNumber":60,"Velocity":26,"Duration":230769,"SoundDuration":230769,"Delta":59874891},{"NoteNumber":79,"Velocity":40,"Duration":241935,"SoundDuration":241935,"Delta":60105660},{"NoteNumber":55,"Velocity":20,"Duration":241935,"SoundDuration":241935,"Delta":60105660},{"NoteNumber":71,"Velocity":46,"Duration":692306,"SoundDuration":692306,"Delta":60347595},{"NoteNumber":65,"Velocity":26,"Duration":230769,"SoundDuration":230769,"Delta":60347595},{"NoteNumber":55,"Velocity":20,"Duration":230768,"SoundDuration":230768,"Delta":60578365},{"NoteNumber":65,"Velocity":26,"Duration":230769,"SoundDuration":230769,"Delta":60809133},{"NoteNumber":74,"Velocity":42,"Duration":111940,"SoundDuration":111940,"Delta":61039902},{"NoteNumber":55,"Velocity":20,"Duration":223880,"SoundDuration":223880,"Delta":61039902},{"NoteNumber":71,"Velocity":39,"Duration":111940,"SoundDuration":111940,"Delta":61151843},{"NoteNumber":72,"Velocity":42,"Duration":230769,"SoundDuration":230769,"Delta":61263783},{"NoteNumber":64,"Velocity":26,"Duration":230769,"SoundDuration":230769,"Delta":61263783},{"NoteNumber":67,"Velocity":40,"Duration":239043,"SoundDuration":239043,"Delta":61494552},{"NoteNumber":55,"Velocity":20,"Duration":239043,"SoundDuration":239043,"Delta":61494552},{"NoteNumber":77,"Velocity":46,"Duration":111524,"SoundDuration":111524,"Delta":61733596},{"NoteNumber":59,"Velocity":26,"Duration":224306,"SoundDuration":224306,"Delta":61733596},{"NoteNumber":79,"Velocity":39,"Duration":112782,"SoundDuration":112782,"Delta":61845120},{"NoteNumber":77,"Velocity":47,"Duration":111524,"SoundDuration":111524,"Delta":61957902},{"NoteNumber":55,"Velocity":20,"Duration":225160,"SoundDuration":225160,"Delta":61957902},{"NoteNumber":76,"Velocity":42,"Duration":113636,"SoundDuration":113636,"Delta":62069427},{"NoteNumber":77,"Velocity":46,"Duration":115384,"SoundDuration":115384,"Delta":62183063},{"NoteNumber":59,"Velocity":26,"Duration":230769,"SoundDuration":230769,"Delta":62183063},{"NoteNumber":81,"Velocity":40,"Duration":115384,"SoundDuration":115384,"Delta":62298447},{"NoteNumber":79,"Velocity":42,"Duration":115384,"SoundDuration":115384,"Delta":62413832},{"NoteNumber":55,"Velocity":20,"Duration":230768,"SoundDuration":230768,"Delta":62413832},{"NoteNumber":77,"Velocity":39,"Duration":115384,"SoundDuration":115384,"Delta":62529216},{"NoteNumber":76,"Velocity":43,"Duration":116278,"SoundDuration":116278,"Delta":62644601},{"NoteNumber":60,"Velocity":26,"Duration":232557,"SoundDuration":232557,"Delta":62644601},{"NoteNumber":79,"Velocity":40,"Duration":116278,"SoundDuration":116278,"Delta":62760880},{"NoteNumber":76,"Velocity":42,"Duration":116279,"SoundDuration":116279,"Delta":62877159},{"NoteNumber":55,"Velocity":20,"Duration":238230,"SoundDuration":238230,"Delta":62877159},{"NoteNumber":72,"Velocity":40,"Duration":121951,"SoundDuration":121951,"Delta":62993438},{"NoteNumber":71,"Velocity":46,"Duration":114068,"SoundDuration":114068,"Delta":63115389},{"NoteNumber":65,"Velocity":26,"Duration":229898,"SoundDuration":229898,"Delta":63115389},{"NoteNumber":72,"Velocity":39,"Duration":115830,"SoundDuration":115830,"Delta":63229458},{"NoteNumber":71,"Velocity":47,"Duration":115829,"SoundDuration":115829,"Delta":63345288},{"NoteNumber":55,"Velocity":20,"Duration":231659,"SoundDuration":231659,"Delta":63345288},{"NoteNumber":69,"Velocity":42,"Duration":115830,"SoundDuration":115830,"Delta":63461118},{"NoteNumber":71,"Velocity":46,"Duration":115384,"SoundDuration":115384,"Delta":63576948},{"NoteNumber":65,"Velocity":26,"Duration":230769,"SoundDuration":230769,"Delta":63576948},{"NoteNumber":74,"Velocity":40,"Duration":115384,"SoundDuration":115384,"Delta":63692332},{"NoteNumber":72,"Velocity":42,"Duration":115384,"SoundDuration":115384,"Delta":63807717},{"NoteNumber":55,"Velocity":20,"Duration":230768,"SoundDuration":230768,"Delta":63807717},{"NoteNumber":71,"Velocity":39,"Duration":115384,"SoundDuration":115384,"Delta":63923101},{"NoteNumber":72,"Velocity":43,"Duration":113207,"SoundDuration":113207,"Delta":64038486},{"NoteNumber":64,"Velocity":26,"Duration":229037,"SoundDuration":229037,"Delta":64038486},{"NoteNumber":76,"Velocity":40,"Duration":115830,"SoundDuration":115830,"Delta":64151693},{"NoteNumber":79,"Velocity":42,"Duration":115830,"SoundDuration":115830,"Delta":64267523},{"NoteNumber":60,"Velocity":20,"Duration":242412,"SoundDuration":242412,"Delta":64267523},{"NoteNumber":84,"Velocity":40,"Duration":126582,"SoundDuration":126582,"Delta":64383353},{"NoteNumber":65,"Velocity":43,"Duration":123456,"SoundDuration":123456,"Delta":64509935},{"NoteNumber":81,"Velocity":34,"Duration":112359,"SoundDuration":112359,"Delta":64633392},{"NoteNumber":77,"Velocity":39,"Duration":112359,"SoundDuration":112359,"Delta":64745752},{"NoteNumber":74,"Velocity":34,"Duration":112359,"SoundDuration":112359,"Delta":64858111},{"NoteNumber":67,"Velocity":35,"Duration":122449,"SoundDuration":122449,"Delta":64970471},{"NoteNumber":79,"Velocity":35,"Duration":113207,"SoundDuration":113207,"Delta":65092920},{"NoteNumber":76,"Velocity":39,"Duration":113207,"SoundDuration":113207,"Delta":65206127},{"NoteNumber":72,"Velocity":35,"Duration":113207,"SoundDuration":113207,"Delta":65319335},{"NoteNumber":55,"Velocity":33,"Duration":121457,"SoundDuration":121457,"Delta":65432542},{"NoteNumber":77,"Velocity":33,"Duration":114068,"SoundDuration":114068,"Delta":65554000},{"NoteNumber":74,"Velocity":39,"Duration":114068,"SoundDuration":114068,"Delta":65668068},{"NoteNumber":71,"Velocity":34,"Duration":147058,"SoundDuration":147058,"Delta":65782137},{"NoteNumber":60,"Velocity":34,"Duration":458015,"SoundDuration":458015,"Delta":65929195},{"NoteNumber":64,"Velocity":40,"Duration":458015,"SoundDuration":458015,"Delta":65929195},{"NoteNumber":72,"Velocity":39,"Duration":114503,"SoundDuration":114503,"Delta":66158203},{"NoteNumber":74,"Velocity":44,"Duration":114503,"SoundDuration":114503,"Delta":66272707},{"NoteNumber":76,"Velocity":45,"Duration":85877,"SoundDuration":85877,"Delta":66387210},{"NoteNumber":72,"Velocity":49,"Duration":90361,"SoundDuration":90361,"Delta":66616218},{"NoteNumber":76,"Velocity":40,"Duration":90361,"SoundDuration":90361,"Delta":66616218},{"NoteNumber":72,"Velocity":53,"Duration":90361,"SoundDuration":90361,"Delta":66857182},{"NoteNumber":76,"Velocity":40,"Duration":90361,"SoundDuration":90361,"Delta":66857182},{"NoteNumber":72,"Velocity":57,"Duration":96566,"SoundDuration":96566,"Delta":67098146},{"NoteNumber":76,"Velocity":40,"Duration":96566,"SoundDuration":96566,"Delta":67098146},{"NoteNumber":79,"Velocity":65,"Duration":456273,"SoundDuration":456273,"Delta":67355106},{"NoteNumber":76,"Velocity":55,"Duration":456273,"SoundDuration":456273,"Delta":67355106},{"NoteNumber":67,"Velocity":55,"Duration":114068,"SoundDuration":114068,"Delta":67583243},{"NoteNumber":66,"Velocity":48,"Duration":114068,"SoundDuration":114068,"Delta":67697312},{"NoteNumber":77,"Velocity":59,"Duration":953289,"SoundDuration":953289,"Delta":67811380},{"NoteNumber":74,"Velocity":50,"Duration":953289,"SoundDuration":953289,"Delta":67811380},{"NoteNumber":67,"Velocity":53,"Duration":85551,"SoundDuration":85551,"Delta":67811380},{"NoteNumber":55,"Velocity":48,"Duration":119047,"SoundDuration":119047,"Delta":68039517},{"NoteNumber":57,"Velocity":46,"Duration":119047,"SoundDuration":119047,"Delta":68277612},{"NoteNumber":59,"Velocity":40,"Duration":124481,"SoundDuration":124481,"Delta":68515707},{"NoteNumber":60,"Velocity":40,"Duration":452830,"SoundDuration":452830,"Delta":68764670},{"NoteNumber":72,"Velocity":39,"Duration":113207,"SoundDuration":113207,"Delta":68991085},{"NoteNumber":74,"Velocity":44,"Duration":113207,"SoundDuration":113207,"Delta":69104292},{"NoteNumber":76,"Velocity":45,"Duration":84905,"SoundDuration":84905,"Delta":69217500},{"NoteNumber":72,"Velocity":49,"Duration":84905,"SoundDuration":84905,"Delta":69443915},{"NoteNumber":76,"Velocity":40,"Duration":84905,"SoundDuration":84905,"Delta":69443915},{"NoteNumber":72,"Velocity":53,"Duration":89999,"SoundDuration":89999,"Delta":69677122},{"NoteNumber":76,"Velocity":40,"Duration":89999,"SoundDuration":89999,"Delta":69677122},{"NoteNumber":72,"Velocity":57,"Duration":95339,"SoundDuration":95339,"Delta":69917122},{"NoteNumber":76,"Velocity":40,"Duration":95339,"SoundDuration":95339,"Delta":69917122},{"NoteNumber":79,"Velocity":65,"Duration":459770,"SoundDuration":459770,"Delta":70171360},{"NoteNumber":76,"Velocity":55,"Duration":459770,"SoundDuration":459770,"Delta":70171360},{"NoteNumber":67,"Velocity":55,"Duration":114942,"SoundDuration":114942,"Delta":70401245},{"NoteNumber":66,"Velocity":48,"Duration":114942,"SoundDuration":114942,"Delta":70516187},{"NoteNumber":77,"Velocity":59,"Duration":957644,"SoundDuration":957644,"Delta":70631130},{"NoteNumber":74,"Velocity":50,"Duration":957644,"SoundDuration":957644,"Delta":70631130},{"NoteNumber":67,"Velocity":53,"Duration":86206,"SoundDuration":86206,"Delta":70631130},{"NoteNumber":55,"Velocity":48,"Duration":118110,"SoundDuration":118110,"Delta":70861015},{"NoteNumber":57,"Velocity":46,"Duration":118110,"SoundDuration":118110,"Delta":71097235},{"NoteNumber":59,"Velocity":40,"Duration":127659,"SoundDuration":127659,"Delta":71333456},{"NoteNumber":72,"Velocity":50,"Duration":346153,"SoundDuration":346153,"Delta":71588775},{"NoteNumber":76,"Velocity":59,"Duration":346153,"SoundDuration":346153,"Delta":71588775},{"NoteNumber":60,"Velocity":40,"Duration":346153,"SoundDuration":346153,"Delta":71588775},{"NoteNumber":77,"Velocity":47,"Duration":115384,"SoundDuration":115384,"Delta":71934928},{"NoteNumber":74,"Velocity":39,"Duration":115384,"SoundDuration":115384,"Delta":71934928},{"NoteNumber":53,"Velocity":33,"Duration":115384,"SoundDuration":115384,"Delta":71934928},{"NoteNumber":76,"Velocity":56,"Duration":461537,"SoundDuration":461537,"Delta":72050313},{"NoteNumber":72,"Velocity":47,"Duration":461537,"SoundDuration":461537,"Delta":72050313},{"NoteNumber":55,"Velocity":40,"Duration":461537,"SoundDuration":461537,"Delta":72050313},{"NoteNumber":74,"Velocity":47,"Duration":461538,"SoundDuration":461538,"Delta":72511851},{"NoteNumber":71,"Velocity":39,"Duration":461538,"SoundDuration":461538,"Delta":72511851},{"NoteNumber":43,"Velocity":38,"Duration":461538,"SoundDuration":461538,"Delta":72511851},{"NoteNumber":48,"Velocity":40,"Duration":449747,"SoundDuration":449747,"Delta":72973389},{"NoteNumber":72,"Velocity":35,"Duration":109488,"SoundDuration":109488,"Delta":73204158},{"NoteNumber":67,"Velocity":39,"Duration":109489,"SoundDuration":109489,"Delta":73313647},{"NoteNumber":64,"Velocity":40,"Duration":86872,"SoundDuration":86872,"Delta":73423136},{"NoteNumber":64,"Velocity":44,"Duration":86872,"SoundDuration":86872,"Delta":73654796},{"NoteNumber":60,"Velocity":36,"Duration":86872,"SoundDuration":86872,"Delta":73654796},{"NoteNumber":64,"Velocity":47,"Duration":90000,"SoundDuration":90000,"Delta":73886456},{"NoteNumber":60,"Velocity":36,"Duration":90000,"SoundDuration":90000,"Delta":73886456},{"NoteNumber":64,"Velocity":51,"Duration":96153,"SoundDuration":96153,"Delta":74126456},{"NoteNumber":60,"Velocity":36,"Duration":96153,"SoundDuration":96153,"Delta":74126456},{"NoteNumber":67,"Velocity":58,"Duration":463319,"SoundDuration":463319,"Delta":74382866},{"NoteNumber":64,"Velocity":49,"Duration":463319,"SoundDuration":463319,"Delta":74382866},{"NoteNumber":55,"Velocity":49,"Duration":115829,"SoundDuration":115829,"Delta":74614526},{"NoteNumber":54,"Velocity":43,"Duration":115830,"SoundDuration":115830,"Delta":74730356},{"NoteNumber":65,"Velocity":53,"Duration":960511,"SoundDuration":960511,"Delta":74846186},{"NoteNumber":62,"Velocity":45,"Duration":960511,"SoundDuration":960511,"Delta":74846186},{"NoteNumber":55,"Velocity":47,"Duration":86872,"SoundDuration":86872,"Delta":74846186},{"NoteNumber":43,"Velocity":43,"Duration":118110,"SoundDuration":118110,"Delta":75077846},{"NoteNumber":45,"Velocity":41,"Duration":118110,"SoundDuration":118110,"Delta":75314067},{"NoteNumber":47,"Velocity":36,"Duration":128205,"SoundDuration":128205,"Delta":75550287},{"NoteNumber":48,"Velocity":40,"Duration":452990,"SoundDuration":452990,"Delta":75806698},{"NoteNumber":72,"Velocity":35,"Duration":111110,"SoundDuration":111110,"Delta":76037467},{"NoteNumber":67,"Velocity":39,"Duration":111111,"SoundDuration":111111,"Delta":76148578},{"NoteNumber":64,"Velocity":40,"Duration":87209,"SoundDuration":87209,"Delta":76259689},{"NoteNumber":64,"Velocity":44,"Duration":90000,"SoundDuration":90000,"Delta":76492247},{"NoteNumber":60,"Velocity":36,"Duration":90000,"SoundDuration":90000,"Delta":76492247},{"NoteNumber":64,"Velocity":47,"Duration":90000,"SoundDuration":90000,"Delta":76732247},{"NoteNumber":60,"Velocity":36,"Duration":90000,"SoundDuration":90000,"Delta":76732247},{"NoteNumber":64,"Velocity":51,"Duration":95339,"SoundDuration":95339,"Delta":76972247},{"NoteNumber":60,"Velocity":36,"Duration":95339,"SoundDuration":95339,"Delta":76972247},{"NoteNumber":67,"Velocity":58,"Duration":456378,"SoundDuration":456378,"Delta":77226484},{"NoteNumber":64,"Velocity":49,"Duration":456378,"SoundDuration":456378,"Delta":77226484},{"NoteNumber":55,"Velocity":49,"Duration":112359,"SoundDuration":112359,"Delta":77458144},{"NoteNumber":54,"Velocity":43,"Duration":112359,"SoundDuration":112359,"Delta":77570504},{"NoteNumber":65,"Velocity":53,"Duration":959902,"SoundDuration":959902,"Delta":77682863},{"NoteNumber":62,"Velocity":45,"Duration":959902,"SoundDuration":959902,"Delta":77682863},{"NoteNumber":55,"Velocity":47,"Duration":86538,"SoundDuration":86538,"Delta":77682863},{"NoteNumber":43,"Velocity":43,"Duration":119522,"SoundDuration":119522,"Delta":77913632},{"NoteNumber":45,"Velocity":41,"Duration":119521,"SoundDuration":119521,"Delta":78152676},{"NoteNumber":47,"Velocity":36,"Duration":125523,"SoundDuration":125523,"Delta":78391720},{"NoteNumber":64,"Velocity":58,"Duration":114503,"SoundDuration":114503,"Delta":78642766},{"NoteNumber":48,"Velocity":36,"Duration":227711,"SoundDuration":227711,"Delta":78642766},{"NoteNumber":60,"Velocity":51,"Duration":113207,"SoundDuration":113207,"Delta":78757270},{"NoteNumber":65,"Velocity":58,"Duration":113207,"SoundDuration":113207,"Delta":78870478},{"NoteNumber":41,"Velocity":32,"Duration":239258,"SoundDuration":239258,"Delta":78870478},{"NoteNumber":62,"Velocity":49,"Duration":126050,"SoundDuration":126050,"Delta":78983685},{"NoteNumber":64,"Velocity":56,"Duration":87209,"SoundDuration":87209,"Delta":79109736},{"NoteNumber":60,"Velocity":47,"Duration":87209,"SoundDuration":87209,"Delta":79109736},{"NoteNumber":43,"Velocity":40,"Duration":465115,"SoundDuration":465115,"Delta":79109736},{"NoteNumber":64,"Velocity":51,"Duration":87209,"SoundDuration":87209,"Delta":79342294},{"NoteNumber":60,"Velocity":43,"Duration":87209,"SoundDuration":87209,"Delta":79342294},{"NoteNumber":62,"Velocity":62,"Duration":90000,"SoundDuration":90000,"Delta":79574852},{"NoteNumber":59,"Velocity":52,"Duration":90000,"SoundDuration":90000,"Delta":79574852},{"NoteNumber":43,"Velocity":39,"Duration":480000,"SoundDuration":480000,"Delta":79574852},{"NoteNumber":62,"Velocity":55,"Duration":90000,"SoundDuration":90000,"Delta":79814852},{"NoteNumber":59,"Velocity":46,"Duration":90000,"SoundDuration":90000,"Delta":79814852},{"NoteNumber":60,"Velocity":70,"Duration":697674,"SoundDuration":697674,"Delta":80054852},{"NoteNumber":36,"Velocity":57,"Duration":232557,"SoundDuration":232557,"Delta":80054852},{"NoteNumber":48,"Velocity":36,"Duration":232557,"SoundDuration":232557,"Delta":80287410},{"NoteNumber":48,"Velocity":47,"Duration":468778,"SoundDuration":468778,"Delta":80519968},{"NoteNumber":62,"Velocity":54,"Duration":118110,"SoundDuration":118110,"Delta":80752526},{"NoteNumber":64,"Velocity":56,"Duration":118110,"SoundDuration":118110,"Delta":80870636},{"NoteNumber":65,"Velocity":57,"Duration":118110,"SoundDuration":118110,"Delta":80988746},{"NoteNumber":67,"Velocity":60,"Duration":118110,"SoundDuration":118110,"Delta":81106856},{"NoteNumber":69,"Velocity":61,"Duration":122449,"SoundDuration":122449,"Delta":81224967},{"NoteNumber":71,"Velocity":68,"Duration":122449,"SoundDuration":122449,"Delta":81347416},{"NoteNumber":72,"Velocity":77,"Duration":694980,"SoundDuration":694980,"Delta":81469865},{"NoteNumber":36,"Velocity":58,"Duration":231660,"SoundDuration":231660,"Delta":81469865},{"NoteNumber":48,"Velocity":36,"Duration":231659,"SoundDuration":231659,"Delta":81701525},{"NoteNumber":48,"Velocity":50,"Duration":469755,"SoundDuration":469755,"Delta":81933185},{"NoteNumber":74,"Velocity":59,"Duration":119047,"SoundDuration":119047,"Delta":82164845},{"NoteNumber":76,"Velocity":61,"Duration":119047,"SoundDuration":119047,"Delta":82283892},{"NoteNumber":77,"Velocity":62,"Duration":121457,"SoundDuration":121457,"Delta":82402940},{"NoteNumber":79,"Velocity":66,"Duration":121457,"SoundDuration":121457,"Delta":82524397},{"NoteNumber":81,"Velocity":67,"Duration":130434,"SoundDuration":130434,"Delta":82645855},{"NoteNumber":83,"Velocity":74,"Duration":130434,"SoundDuration":130434,"Delta":82776289},{"NoteNumber":84,"Velocity":85,"Duration":244898,"SoundDuration":244898,"Delta":82906724},{"NoteNumber":48,"Velocity":51,"Duration":244898,"SoundDuration":244898,"Delta":82906724},{"NoteNumber":36,"Velocity":43,"Duration":244898,"SoundDuration":244898,"Delta":82906724},{"NoteNumber":64,"Velocity":58,"Duration":244898,"SoundDuration":244898,"Delta":83396520},{"NoteNumber":67,"Velocity":58,"Duration":244898,"SoundDuration":244898,"Delta":83396520},{"NoteNumber":72,"Velocity":69,"Duration":244898,"SoundDuration":244898,"Delta":83396520},{"NoteNumber":48,"Velocity":39,"Duration":244898,"SoundDuration":244898,"Delta":83396520},{"NoteNumber":36,"Velocity":43,"Duration":244898,"SoundDuration":244898,"Delta":83396520},{"NoteNumber":60,"Velocity":26,"Duration":1375939,"SoundDuration":1375939,"Delta":84376112},{"NoteNumber":64,"Velocity":42,"Duration":112781,"SoundDuration":112781,"Delta":84605997},{"NoteNumber":67,"Velocity":39,"Duration":112782,"SoundDuration":112782,"Delta":84718779},{"NoteNumber":72,"Velocity":42,"Duration":84586,"SoundDuration":84586,"Delta":84831561},{"NoteNumber":72,"Velocity":40,"Duration":83333,"SoundDuration":83333,"Delta":85057125},{"NoteNumber":72,"Velocity":40,"Duration":86538,"SoundDuration":86538,"Delta":85279347},{"NoteNumber":72,"Velocity":40,"Duration":90725,"SoundDuration":90725,"Delta":85510116},{"NoteNumber":60,"Velocity":38,"Duration":1375939,"SoundDuration":1375939,"Delta":85752052},{"NoteNumber":65,"Velocity":43,"Duration":112781,"SoundDuration":112781,"Delta":85981937},{"NoteNumber":71,"Velocity":44,"Duration":112782,"SoundDuration":112782,"Delta":86094719},{"NoteNumber":74,"Velocity":50,"Duration":84586,"SoundDuration":84586,"Delta":86207501},{"NoteNumber":74,"Velocity":43,"Duration":83333,"SoundDuration":83333,"Delta":86433065},{"NoteNumber":74,"Velocity":43,"Duration":86538,"SoundDuration":86538,"Delta":86655287},{"NoteNumber":74,"Velocity":43,"Duration":90725,"SoundDuration":90725,"Delta":86886056},{"NoteNumber":60,"Velocity":43,"Duration":1375939,"SoundDuration":1375939,"Delta":87127991},{"NoteNumber":67,"Velocity":47,"Duration":112781,"SoundDuration":112781,"Delta":87357876},{"NoteNumber":70,"Velocity":55,"Duration":112782,"SoundDuration":112782,"Delta":87470658},{"NoteNumber":76,"Velocity":59,"Duration":84586,"SoundDuration":84586,"Delta":87583440},{"NoteNumber":76,"Velocity":50,"Duration":83333,"SoundDuration":83333,"Delta":87809004},{"NoteNumber":76,"Velocity":50,"Duration":86538,"SoundDuration":86538,"Delta":88031226},{"NoteNumber":76,"Velocity":50,"Duration":90725,"SoundDuration":90725,"Delta":88261995},{"NoteNumber":61,"Velocity":47,"Duration":229884,"SoundDuration":229884,"Delta":88503931},{"NoteNumber":69,"Velocity":57,"Duration":114942,"SoundDuration":114942,"Delta":88618873},{"NoteNumber":73,"Velocity":58,"Duration":112781,"SoundDuration":112781,"Delta":88733815},{"NoteNumber":57,"Velocity":41,"Duration":225564,"SoundDuration":225564,"Delta":88733815},{"NoteNumber":76,"Velocity":61,"Duration":112782,"SoundDuration":112782,"Delta":88846597},{"NoteNumber":81,"Velocity":65,"Duration":112781,"SoundDuration":112781,"Delta":88959380},{"NoteNumber":61,"Velocity":47,"Duration":225563,"SoundDuration":225563,"Delta":88959380},{"NoteNumber":81,"Velocity":58,"Duration":111110,"SoundDuration":111110,"Delta":89184943},{"NoteNumber":57,"Velocity":42,"Duration":222222,"SoundDuration":222222,"Delta":89184943},{"NoteNumber":81,"Velocity":61,"Duration":111524,"SoundDuration":111524,"Delta":89407165},{"NoteNumber":61,"Velocity":46,"Duration":223048,"SoundDuration":223048,"Delta":89407165},{"NoteNumber":82,"Velocity":57,"Duration":111524,"SoundDuration":111524,"Delta":89518690},{"NoteNumber":81,"Velocity":61,"Duration":114942,"SoundDuration":114942,"Delta":89630214},{"NoteNumber":57,"Velocity":40,"Duration":229884,"SoundDuration":229884,"Delta":89630214},{"NoteNumber":79,"Velocity":57,"Duration":114942,"SoundDuration":114942,"Delta":89745156},{"NoteNumber":77,"Velocity":62,"Duration":114942,"SoundDuration":114942,"Delta":89860099},{"NoteNumber":62,"Velocity":47,"Duration":229884,"SoundDuration":229884,"Delta":89860099},{"NoteNumber":81,"Velocity":55,"Duration":114942,"SoundDuration":114942,"Delta":89975041},{"NoteNumber":79,"Velocity":55,"Duration":112781,"SoundDuration":112781,"Delta":90089984},{"NoteNumber":57,"Velocity":41,"Duration":225564,"SoundDuration":225564,"Delta":90089984},{"NoteNumber":77,"Velocity":51,"Duration":112782,"SoundDuration":112782,"Delta":90202766},{"NoteNumber":76,"Velocity":63,"Duration":112781,"SoundDuration":112781,"Delta":90315548},{"NoteNumber":64,"Velocity":47,"Duration":225563,"SoundDuration":225563,"Delta":90315548},{"NoteNumber":79,"Velocity":56,"Duration":112781,"SoundDuration":112781,"Delta":90428330},{"NoteNumber":77,"Velocity":56,"Duration":111110,"SoundDuration":111110,"Delta":90541112},{"NoteNumber":57,"Velocity":42,"Duration":222222,"SoundDuration":222222,"Delta":90541112},{"NoteNumber":76,"Velocity":51,"Duration":111111,"SoundDuration":111111,"Delta":90652223},{"NoteNumber":74,"Velocity":61,"Duration":112359,"SoundDuration":112359,"Delta":90763334},{"NoteNumber":65,"Velocity":46,"Duration":224718,"SoundDuration":224718,"Delta":90763334},{"NoteNumber":77,"Velocity":56,"Duration":112359,"SoundDuration":112359,"Delta":90875693},{"NoteNumber":76,"Velocity":56,"Duration":120000,"SoundDuration":120000,"Delta":90988053},{"NoteNumber":57,"Velocity":40,"Duration":239999,"SoundDuration":239999,"Delta":90988053},{"NoteNumber":74,"Velocity":50,"Duration":119999,"SoundDuration":119999,"Delta":91108053},{"NoteNumber":61,"Velocity":47,"Duration":229884,"SoundDuration":229884,"Delta":91228053},{"NoteNumber":69,"Velocity":57,"Duration":114942,"SoundDuration":114942,"Delta":91342995},{"NoteNumber":73,"Velocity":58,"Duration":112781,"SoundDuration":112781,"Delta":91457938},{"NoteNumber":57,"Velocity":41,"Duration":225564,"SoundDuration":225564,"Delta":91457938},{"NoteNumber":76,"Velocity":61,"Duration":112782,"SoundDuration":112782,"Delta":91570720},{"NoteNumber":81,"Velocity":65,"Duration":112781,"SoundDuration":112781,"Delta":91683502},{"NoteNumber":61,"Velocity":47,"Duration":225563,"SoundDuration":225563,"Delta":91683502},{"NoteNumber":81,"Velocity":58,"Duration":111110,"SoundDuration":111110,"Delta":91909066},{"NoteNumber":57,"Velocity":42,"Duration":228757,"SoundDuration":228757,"Delta":91909066},{"NoteNumber":81,"Velocity":61,"Duration":127118,"SoundDuration":127118,"Delta":92137824},{"NoteNumber":61,"Velocity":46,"Duration":238229,"SoundDuration":238229,"Delta":92137824},{"NoteNumber":88,"Velocity":57,"Duration":111110,"SoundDuration":111110,"Delta":92264943},{"NoteNumber":85,"Velocity":61,"Duration":114942,"SoundDuration":114942,"Delta":92376054},{"NoteNumber":57,"Velocity":40,"Duration":229884,"SoundDuration":229884,"Delta":92376054},{"NoteNumber":79,"Velocity":57,"Duration":114942,"SoundDuration":114942,"Delta":92490996},{"NoteNumber":77,"Velocity":62,"Duration":114942,"SoundDuration":114942,"Delta":92605939},{"NoteNumber":62,"Velocity":47,"Duration":229884,"SoundDuration":229884,"Delta":92605939},{"NoteNumber":81,"Velocity":55,"Duration":114942,"SoundDuration":114942,"Delta":92720881},{"NoteNumber":77,"Velocity":55,"Duration":112781,"SoundDuration":112781,"Delta":92835824},{"NoteNumber":57,"Velocity":41,"Duration":225564,"SoundDuration":225564,"Delta":92835824},{"NoteNumber":81,"Velocity":51,"Duration":112782,"SoundDuration":112782,"Delta":92948606},{"NoteNumber":76,"Velocity":63,"Duration":112781,"SoundDuration":112781,"Delta":93061388},{"NoteNumber":64,"Velocity":47,"Duration":225563,"SoundDuration":225563,"Delta":93061388},{"NoteNumber":79,"Velocity":56,"Duration":112781,"SoundDuration":112781,"Delta":93174170},{"NoteNumber":76,"Velocity":56,"Duration":111110,"SoundDuration":111110,"Delta":93286952},{"NoteNumber":57,"Velocity":42,"Duration":222222,"SoundDuration":222222,"Delta":93286952},{"NoteNumber":79,"Velocity":51,"Duration":111111,"SoundDuration":111111,"Delta":93398063},{"NoteNumber":74,"Velocity":61,"Duration":112359,"SoundDuration":112359,"Delta":93509174},{"NoteNumber":65,"Velocity":46,"Duration":224718,"SoundDuration":224718,"Delta":93509174},{"NoteNumber":77,"Velocity":56,"Duration":112359,"SoundDuration":112359,"Delta":93621533},{"NoteNumber":74,"Velocity":56,"Duration":120481,"SoundDuration":120481,"Delta":93733893},{"NoteNumber":57,"Velocity":40,"Duration":240964,"SoundDuration":240964,"Delta":93733893},{"NoteNumber":77,"Velocity":50,"Duration":120482,"SoundDuration":120482,"Delta":93854375},{"NoteNumber":72,"Velocity":42,"Duration":114942,"SoundDuration":114942,"Delta":93974857},{"NoteNumber":66,"Velocity":37,"Duration":114942,"SoundDuration":114942,"Delta":93974857},{"NoteNumber":75,"Velocity":33,"Duration":114942,"SoundDuration":114942,"Delta":94089799},{"NoteNumber":72,"Velocity":39,"Duration":112781,"SoundDuration":112781,"Delta":94204742},{"NoteNumber":66,"Velocity":26,"Duration":112781,"SoundDuration":112781,"Delta":94204742},{"NoteNumber":75,"Velocity":35,"Duration":112551,"SoundDuration":112551,"Delta":94317524},{"NoteNumber":72,"Velocity":42,"Duration":111431,"SoundDuration":111431,"Delta":94430075},{"NoteNumber":66,"Velocity":32,"Duration":443319,"SoundDuration":443319,"Delta":94430075},{"NoteNumber":75,"Velocity":35,"Duration":111005,"SoundDuration":111005,"Delta":94541506},{"NoteNumber":72,"Velocity":39,"Duration":110514,"SoundDuration":110514,"Delta":94652512},{"NoteNumber":75,"Velocity":34,"Duration":110368,"SoundDuration":110368,"Delta":94763026},{"NoteNumber":72,"Velocity":42,"Duration":111848,"SoundDuration":111848,"Delta":94873395},{"NoteNumber":74,"Velocity":35,"Duration":114513,"SoundDuration":114513,"Delta":94985243},{"NoteNumber":72,"Velocity":39,"Duration":116453,"SoundDuration":116453,"Delta":95099756},{"NoteNumber":74,"Velocity":35,"Duration":117798,"SoundDuration":117798,"Delta":95216209},{"NoteNumber":72,"Velocity":42,"Duration":114942,"SoundDuration":114942,"Delta":95334008},{"NoteNumber":67,"Velocity":37,"Duration":114942,"SoundDuration":114942,"Delta":95334008},{"NoteNumber":74,"Velocity":33,"Duration":114942,"SoundDuration":114942,"Delta":95448950},{"NoteNumber":72,"Velocity":39,"Duration":112781,"SoundDuration":112781,"Delta":95563893},{"NoteNumber":67,"Velocity":26,"Duration":112781,"SoundDuration":112781,"Delta":95563893},{"NoteNumber":74,"Velocity":35,"Duration":112551,"SoundDuration":112551,"Delta":95676675},{"NoteNumber":69,"Velocity":42,"Duration":111431,"SoundDuration":111431,"Delta":95789226},{"NoteNumber":67,"Velocity":32,"Duration":443319,"SoundDuration":443319,"Delta":95789226},{"NoteNumber":74,"Velocity":35,"Duration":111005,"SoundDuration":111005,"Delta":95900657},{"NoteNumber":69,"Velocity":39,"Duration":110514,"SoundDuration":110514,"Delta":96011662},{"NoteNumber":74,"Velocity":34,"Duration":110368,"SoundDuration":110368,"Delta":96122177},{"NoteNumber":70,"Velocity":42,"Duration":111848,"SoundDuration":111848,"Delta":96232546},{"NoteNumber":74,"Velocity":35,"Duration":114513,"SoundDuration":114513,"Delta":96344394},{"NoteNumber":70,"Velocity":39,"Duration":116453,"SoundDuration":116453,"Delta":96458907},{"NoteNumber":74,"Velocity":35,"Duration":115876,"SoundDuration":115876,"Delta":96575360},{"NoteNumber":70,"Velocity":42,"Duration":114792,"SoundDuration":114792,"Delta":96691237},{"NoteNumber":64,"Velocity":37,"Duration":114792,"SoundDuration":114792,"Delta":96691237},{"NoteNumber":73,"Velocity":33,"Duration":114478,"SoundDuration":114478,"Delta":96806029},{"NoteNumber":70,"Velocity":39,"Duration":114068,"SoundDuration":114068,"Delta":96920508},{"NoteNumber":64,"Velocity":26,"Duration":114068,"SoundDuration":114068,"Delta":96920508},{"NoteNumber":73,"Velocity":35,"Duration":113729,"SoundDuration":113729,"Delta":97034576},{"NoteNumber":70,"Velocity":42,"Duration":113421,"SoundDuration":113421,"Delta":97148306},{"NoteNumber":64,"Velocity":32,"Duration":454248,"SoundDuration":454248,"Delta":97148306},{"NoteNumber":72,"Velocity":35,"Duration":113111,"SoundDuration":113111,"Delta":97261728},{"NoteNumber":70,"Velocity":39,"Duration":113208,"SoundDuration":113208,"Delta":97374840},{"NoteNumber":72,"Velocity":34,"Duration":114506,"SoundDuration":114506,"Delta":97488048},{"NoteNumber":70,"Velocity":42,"Duration":116586,"SoundDuration":116586,"Delta":97602555},{"NoteNumber":72,"Velocity":35,"Duration":118505,"SoundDuration":118505,"Delta":97719142},{"NoteNumber":70,"Velocity":39,"Duration":120488,"SoundDuration":120488,"Delta":97837647},{"NoteNumber":72,"Velocity":35,"Duration":121792,"SoundDuration":121792,"Delta":97958136},{"NoteNumber":70,"Velocity":42,"Duration":117260,"SoundDuration":117260,"Delta":98079928},{"NoteNumber":65,"Velocity":37,"Duration":117260,"SoundDuration":117260,"Delta":98079928},{"NoteNumber":72,"Velocity":33,"Duration":116313,"SoundDuration":116313,"Delta":98197189},{"NoteNumber":70,"Velocity":39,"Duration":115385,"SoundDuration":115385,"Delta":98313503},{"NoteNumber":65,"Velocity":26,"Duration":115385,"SoundDuration":115385,"Delta":98313503},{"NoteNumber":72,"Velocity":35,"Duration":114399,"SoundDuration":114399,"Delta":98428888},{"NoteNumber":67,"Velocity":42,"Duration":114068,"SoundDuration":114068,"Delta":98543287},{"NoteNumber":65,"Velocity":32,"Duration":455243,"SoundDuration":455243,"Delta":98543287},{"NoteNumber":72,"Velocity":27,"Duration":113902,"SoundDuration":113902,"Delta":98657356},{"NoteNumber":67,"Velocity":36,"Duration":113636,"SoundDuration":113636,"Delta":98771259},{"NoteNumber":72,"Velocity":29,"Duration":113636,"SoundDuration":113636,"Delta":98884895},{"NoteNumber":69,"Velocity":37,"Duration":120967,"SoundDuration":120967,"Delta":98998531},{"NoteNumber":72,"Velocity":29,"Duration":120967,"SoundDuration":120967,"Delta":99119499},{"NoteNumber":69,"Velocity":37,"Duration":127659,"SoundDuration":127659,"Delta":99240467},{"NoteNumber":72,"Velocity":29,"Duration":129069,"SoundDuration":129069,"Delta":99368126},{"NoteNumber":71,"Velocity":62,"Duration":114942,"SoundDuration":114942,"Delta":99497196},{"NoteNumber":55,"Velocity":39,"Duration":229884,"SoundDuration":229884,"Delta":99497196},{"NoteNumber":62,"Velocity":47,"Duration":229884,"SoundDuration":229884,"Delta":99497196},{"NoteNumber":77,"Velocity":55,"Duration":114942,"SoundDuration":114942,"Delta":99612139},{"NoteNumber":71,"Velocity":55,"Duration":112781,"SoundDuration":112781,"Delta":99727081},{"NoteNumber":55,"Velocity":34,"Duration":225564,"SoundDuration":225564,"Delta":99727081},{"NoteNumber":62,"Velocity":41,"Duration":225564,"SoundDuration":225564,"Delta":99727081},{"NoteNumber":77,"Velocity":51,"Duration":112782,"SoundDuration":112782,"Delta":99839863},{"NoteNumber":71,"Velocity":63,"Duration":112781,"SoundDuration":112781,"Delta":99952645},{"NoteNumber":55,"Velocity":34,"Duration":225563,"SoundDuration":225563,"Delta":99952645},{"NoteNumber":62,"Velocity":47,"Duration":225563,"SoundDuration":225563,"Delta":99952645},{"NoteNumber":77,"Velocity":56,"Duration":112781,"SoundDuration":112781,"Delta":100065427},{"NoteNumber":71,"Velocity":56,"Duration":111110,"SoundDuration":111110,"Delta":100178209},{"NoteNumber":55,"Velocity":34,"Duration":222222,"SoundDuration":222222,"Delta":100178209},{"NoteNumber":62,"Velocity":42,"Duration":222222,"SoundDuration":222222,"Delta":100178209},{"NoteNumber":77,"Velocity":51,"Duration":111111,"SoundDuration":111111,"Delta":100289320},{"NoteNumber":71,"Velocity":61,"Duration":112359,"SoundDuration":112359,"Delta":100400431},{"NoteNumber":55,"Velocity":34,"Duration":224718,"SoundDuration":224718,"Delta":100400431},{"NoteNumber":62,"Velocity":46,"Duration":224718,"SoundDuration":224718,"Delta":100400431},{"NoteNumber":77,"Velocity":56,"Duration":112359,"SoundDuration":112359,"Delta":100512791},{"NoteNumber":71,"Velocity":56,"Duration":120000,"SoundDuration":120000,"Delta":100625150},{"NoteNumber":55,"Velocity":34,"Duration":239999,"SoundDuration":239999,"Delta":100625150},{"NoteNumber":62,"Velocity":40,"Duration":239999,"SoundDuration":239999,"Delta":100625150},{"NoteNumber":77,"Velocity":50,"Duration":119999,"SoundDuration":119999,"Delta":100745150},{"NoteNumber":76,"Velocity":62,"Duration":115830,"SoundDuration":115830,"Delta":100865150},{"NoteNumber":48,"Velocity":47,"Duration":231660,"SoundDuration":231660,"Delta":100865150},{"NoteNumber":72,"Velocity":55,"Duration":115830,"SoundDuration":115830,"Delta":100980980},{"NoteNumber":71,"Velocity":55,"Duration":112781,"SoundDuration":112781,"Delta":101096810},{"NoteNumber":60,"Velocity":41,"Duration":225564,"SoundDuration":225564,"Delta":101096810},{"NoteNumber":72,"Velocity":51,"Duration":112782,"SoundDuration":112782,"Delta":101209592},{"NoteNumber":74,"Velocity":63,"Duration":112781,"SoundDuration":112781,"Delta":101322374},{"NoteNumber":48,"Velocity":47,"Duration":225563,"SoundDuration":225563,"Delta":101322374},{"NoteNumber":72,"Velocity":56,"Duration":112781,"SoundDuration":112781,"Delta":101435156},{"NoteNumber":71,"Velocity":56,"Duration":111110,"SoundDuration":111110,"Delta":101547938},{"NoteNumber":60,"Velocity":42,"Duration":222222,"SoundDuration":222222,"Delta":101547938},{"NoteNumber":72,"Velocity":51,"Duration":111111,"SoundDuration":111111,"Delta":101659049},{"NoteNumber":77,"Velocity":61,"Duration":112359,"SoundDuration":112359,"Delta":101770160},{"NoteNumber":48,"Velocity":46,"Duration":224718,"SoundDuration":224718,"Delta":101770160},{"NoteNumber":74,"Velocity":56,"Duration":112359,"SoundDuration":112359,"Delta":101882520},{"NoteNumber":72,"Velocity":56,"Duration":113207,"SoundDuration":113207,"Delta":101994879},{"NoteNumber":60,"Velocity":40,"Duration":226415,"SoundDuration":226415,"Delta":101994879},{"NoteNumber":74,"Velocity":50,"Duration":113207,"SoundDuration":113207,"Delta":102108087},{"NoteNumber":79,"Velocity":68,"Duration":112359,"SoundDuration":112359,"Delta":102221294},{"NoteNumber":48,"Velocity":49,"Duration":224718,"SoundDuration":224718,"Delta":102221294},{"NoteNumber":76,"Velocity":59,"Duration":112359,"SoundDuration":112359,"Delta":102333654},{"NoteNumber":74,"Velocity":60,"Duration":112781,"SoundDuration":112781,"Delta":102446013},{"NoteNumber":60,"Velocity":43,"Duration":225564,"SoundDuration":225564,"Delta":102446013},{"NoteNumber":76,"Velocity":56,"Duration":112782,"SoundDuration":112782,"Delta":102558795},{"NoteNumber":77,"Velocity":71,"Duration":112781,"SoundDuration":112781,"Delta":102671577},{"NoteNumber":48,"Velocity":50,"Duration":225563,"SoundDuration":225563,"Delta":102671577},{"NoteNumber":76,"Velocity":63,"Duration":112781,"SoundDuration":112781,"Delta":102784359},{"NoteNumber":74,"Velocity":63,"Duration":111110,"SoundDuration":111110,"Delta":102897141},{"NoteNumber":60,"Velocity":46,"Duration":222222,"SoundDuration":222222,"Delta":102897141},{"NoteNumber":76,"Velocity":58,"Duration":111111,"SoundDuration":111111,"Delta":103008252},{"NoteNumber":81,"Velocity":68,"Duration":112359,"SoundDuration":112359,"Delta":103119363},{"NoteNumber":48,"Velocity":51,"Duration":224718,"SoundDuration":224718,"Delta":103119363},{"NoteNumber":77,"Velocity":64,"Duration":112359,"SoundDuration":112359,"Delta":103231723},{"NoteNumber":76,"Velocity":65,"Duration":114942,"SoundDuration":114942,"Delta":103344082},{"NoteNumber":60,"Velocity":45,"Duration":229884,"SoundDuration":229884,"Delta":103344082},{"NoteNumber":77,"Velocity":59,"Duration":114942,"SoundDuration":114942,"Delta":103459025},{"NoteNumber":82,"Velocity":77,"Duration":112359,"SoundDuration":112359,"Delta":103573967},{"NoteNumber":48,"Velocity":53,"Duration":224718,"SoundDuration":224718,"Delta":103573967},{"NoteNumber":81,"Velocity":66,"Duration":112359,"SoundDuration":112359,"Delta":103686327},{"NoteNumber":79,"Velocity":69,"Duration":113207,"SoundDuration":113207,"Delta":103798686},{"NoteNumber":60,"Velocity":47,"Duration":226415,"SoundDuration":226415,"Delta":103798686},{"NoteNumber":81,"Velocity":65,"Duration":113207,"SoundDuration":113207,"Delta":103911894},{"NoteNumber":82,"Velocity":77,"Duration":109488,"SoundDuration":109488,"Delta":104025101},{"NoteNumber":48,"Velocity":53,"Duration":218978,"SoundDuration":218978,"Delta":104025101},{"NoteNumber":81,"Velocity":66,"Duration":109489,"SoundDuration":109489,"Delta":104134590},{"NoteNumber":79,"Velocity":69,"Duration":110701,"SoundDuration":110701,"Delta":104244079},{"NoteNumber":60,"Velocity":47,"Duration":221401,"SoundDuration":221401,"Delta":104244079},{"NoteNumber":81,"Velocity":65,"Duration":110700,"SoundDuration":110700,"Delta":104354780},{"NoteNumber":82,"Velocity":77,"Duration":108303,"SoundDuration":108303,"Delta":104465481},{"NoteNumber":48,"Velocity":53,"Duration":216606,"SoundDuration":216606,"Delta":104465481},{"NoteNumber":81,"Velocity":66,"Duration":108303,"SoundDuration":108303,"Delta":104573784},{"NoteNumber":79,"Velocity":69,"Duration":111524,"SoundDuration":111524,"Delta":104682088},{"NoteNumber":60,"Velocity":47,"Duration":229634,"SoundDuration":229634,"Delta":104682088},{"NoteNumber":81,"Velocity":65,"Duration":118110,"SoundDuration":118110,"Delta":104793612},{"NoteNumber":82,"Velocity":72,"Duration":112948,"SoundDuration":112948,"Delta":104911722},{"NoteNumber":48,"Velocity":53,"Duration":454749,"SoundDuration":454749,"Delta":104911722},{"NoteNumber":81,"Velocity":66,"Duration":113888,"SoundDuration":113888,"Delta":105138043},{"NoteNumber":79,"Velocity":61,"Duration":115093,"SoundDuration":115093,"Delta":105366472},{"NoteNumber":77,"Velocity":57,"Duration":116279,"SoundDuration":116279,"Delta":105597191},{"NoteNumber":76,"Velocity":56,"Duration":117490,"SoundDuration":117490,"Delta":105830339},{"NoteNumber":74,"Velocity":54,"Duration":117647,"SoundDuration":117647,"Delta":106065476},{"NoteNumber":72,"Velocity":49,"Duration":117352,"SoundDuration":117352,"Delta":106300770},{"NoteNumber":71,"Velocity":45,"Duration":119202,"SoundDuration":119202,"Delta":106536345},{"NoteNumber":70,"Velocity":42,"Duration":121463,"SoundDuration":121463,"Delta":106775740},{"NoteNumber":69,"Velocity":38,"Duration":124867,"SoundDuration":124867,"Delta":107020228},{"NoteNumber":68,"Velocity":37,"Duration":129310,"SoundDuration":129310,"Delta":107271685},{"NoteNumber":67,"Velocity":33,"Duration":136986,"SoundDuration":136986,"Delta":107530305},{"NoteNumber":65,"Velocity":44,"Duration":930232,"SoundDuration":930232,"Delta":107804278},{"NoteNumber":41,"Velocity":25,"Duration":232557,"SoundDuration":232557,"Delta":107804278},{"NoteNumber":53,"Velocity":18,"Duration":232557,"SoundDuration":232557,"Delta":108036836},{"NoteNumber":41,"Velocity":20,"Duration":232558,"SoundDuration":232558,"Delta":108269394},{"NoteNumber":53,"Velocity":18,"Duration":232557,"SoundDuration":232557,"Delta":108501952},{"NoteNumber":69,"Velocity":51,"Duration":356524,"SoundDuration":356524,"Delta":108734510},{"NoteNumber":41,"Velocity":30,"Duration":232557,"SoundDuration":232557,"Delta":108734510},{"NoteNumber":53,"Velocity":26,"Duration":247934,"SoundDuration":247934,"Delta":108967068},{"NoteNumber":65,"Velocity":54,"Duration":123967,"SoundDuration":123967,"Delta":109091035},{"NoteNumber":72,"Velocity":63,"Duration":926640,"SoundDuration":926640,"Delta":109215002},{"NoteNumber":41,"Velocity":36,"Duration":231660,"SoundDuration":231660,"Delta":109215002},{"NoteNumber":53,"Velocity":21,"Duration":231659,"SoundDuration":231659,"Delta":109446662},{"NoteNumber":41,"Velocity":24,"Duration":231660,"SoundDuration":231660,"Delta":109678322},{"NoteNumber":53,"Velocity":21,"Duration":231660,"SoundDuration":231660,"Delta":109909982},{"NoteNumber":70,"Velocity":49,"Duration":113207,"SoundDuration":113207,"Delta":110141642},{"NoteNumber":41,"Velocity":23,"Duration":226415,"SoundDuration":226415,"Delta":110141642},{"NoteNumber":69,"Velocity":46,"Duration":113207,"SoundDuration":113207,"Delta":110254849},{"NoteNumber":67,"Velocity":44,"Duration":113207,"SoundDuration":113207,"Delta":110368057},{"NoteNumber":53,"Velocity":21,"Duration":226415,"SoundDuration":226415,"Delta":110368057},{"NoteNumber":65,"Velocity":42,"Duration":113207,"SoundDuration":113207,"Delta":110481264},{"NoteNumber":64,"Velocity":48,"Duration":229007,"SoundDuration":229007,"Delta":110594472},{"NoteNumber":41,"Velocity":28,"Duration":229007,"SoundDuration":229007,"Delta":110594472},{"NoteNumber":67,"Velocity":46,"Duration":229007,"SoundDuration":229007,"Delta":110823479},{"NoteNumber":53,"Velocity":23,"Duration":229007,"SoundDuration":229007,"Delta":110823479},{"NoteNumber":70,"Velocity":49,"Duration":229007,"SoundDuration":229007,"Delta":111052487},{"NoteNumber":41,"Velocity":26,"Duration":229007,"SoundDuration":229007,"Delta":111052487},{"NoteNumber":74,"Velocity":46,"Duration":229007,"SoundDuration":229007,"Delta":111281494},{"NoteNumber":53,"Velocity":23,"Duration":229007,"SoundDuration":229007,"Delta":111281494},{"NoteNumber":72,"Velocity":49,"Duration":229007,"SoundDuration":229007,"Delta":111510502},{"NoteNumber":41,"Velocity":26,"Duration":229007,"SoundDuration":229007,"Delta":111510502},{"NoteNumber":70,"Velocity":46,"Duration":251046,"SoundDuration":251046,"Delta":111739509},{"NoteNumber":53,"Velocity":23,"Duration":251046,"SoundDuration":251046,"Delta":111739509},{"NoteNumber":64,"Velocity":35,"Duration":463319,"SoundDuration":463319,"Delta":111990555},{"NoteNumber":68,"Velocity":42,"Duration":463319,"SoundDuration":463319,"Delta":111990555},{"NoteNumber":41,"Velocity":28,"Duration":231660,"SoundDuration":231660,"Delta":111990555},{"NoteNumber":53,"Velocity":22,"Duration":231659,"SoundDuration":231659,"Delta":112222215},{"NoteNumber":65,"Velocity":37,"Duration":463320,"SoundDuration":463320,"Delta":112453875},{"NoteNumber":69,"Velocity":44,"Duration":463320,"SoundDuration":463320,"Delta":112453875},{"NoteNumber":41,"Velocity":25,"Duration":231660,"SoundDuration":231660,"Delta":112453875},{"NoteNumber":53,"Velocity":22,"Duration":231660,"SoundDuration":231660,"Delta":112685535},{"NoteNumber":41,"Velocity":25,"Duration":231659,"SoundDuration":231659,"Delta":112917195},{"NoteNumber":53,"Velocity":22,"Duration":256410,"SoundDuration":256410,"Delta":113148855},{"NoteNumber":75,"Velocity":70,"Duration":694980,"SoundDuration":694980,"Delta":113405266},{"NoteNumber":57,"Velocity":40,"Duration":231660,"SoundDuration":231660,"Delta":113405266},{"NoteNumber":53,"Velocity":32,"Duration":231659,"SoundDuration":231659,"Delta":113636926},{"NoteNumber":57,"Velocity":37,"Duration":231660,"SoundDuration":231660,"Delta":113868586},{"NoteNumber":79,"Velocity":65,"Duration":115830,"SoundDuration":115830,"Delta":114100246},{"NoteNumber":53,"Velocity":32,"Duration":231660,"SoundDuration":231660,"Delta":114100246},{"NoteNumber":75,"Velocity":61,"Duration":115830,"SoundDuration":115830,"Delta":114216076},{"NoteNumber":74,"Velocity":65,"Duration":231659,"SoundDuration":231659,"Delta":114331906},{"NoteNumber":58,"Velocity":37,"Duration":231659,"SoundDuration":231659,"Delta":114331906},{"NoteNumber":77,"Velocity":63,"Duration":239999,"SoundDuration":239999,"Delta":114563566},{"NoteNumber":53,"Velocity":32,"Duration":239999,"SoundDuration":239999,"Delta":114563566},{"NoteNumber":69,"Velocity":70,"Duration":692306,"SoundDuration":692306,"Delta":114803566},{"NoteNumber":63,"Velocity":40,"Duration":230768,"SoundDuration":230768,"Delta":114803566},{"NoteNumber":53,"Velocity":32,"Duration":230769,"SoundDuration":230769,"Delta":115034335},{"NoteNumber":63,"Velocity":37,"Duration":230768,"SoundDuration":230768,"Delta":115265104},{"NoteNumber":72,"Velocity":65,"Duration":111940,"SoundDuration":111940,"Delta":115495873},{"NoteNumber":53,"Velocity":32,"Duration":223880,"SoundDuration":223880,"Delta":115495873},{"NoteNumber":69,"Velocity":61,"Duration":111940,"SoundDuration":111940,"Delta":115607813},{"NoteNumber":70,"Velocity":65,"Duration":229007,"SoundDuration":229007,"Delta":115719753},{"NoteNumber":62,"Velocity":39,"Duration":229007,"SoundDuration":229007,"Delta":115719753},{"NoteNumber":72,"Velocity":63,"Duration":114503,"SoundDuration":114503,"Delta":115948761},{"NoteNumber":53,"Velocity":32,"Duration":229007,"SoundDuration":229007,"Delta":115948761},{"NoteNumber":74,"Velocity":53,"Duration":114503,"SoundDuration":114503,"Delta":116063265},{"NoteNumber":75,"Velocity":58,"Duration":113207,"SoundDuration":113207,"Delta":116177768},{"NoteNumber":57,"Velocity":40,"Duration":226415,"SoundDuration":226415,"Delta":116177768},{"NoteNumber":77,"Velocity":50,"Duration":113207,"SoundDuration":113207,"Delta":116290976},{"NoteNumber":75,"Velocity":58,"Duration":113207,"SoundDuration":113207,"Delta":116404183},{"NoteNumber":53,"Velocity":32,"Duration":240866,"SoundDuration":240866,"Delta":116404183},{"NoteNumber":74,"Velocity":53,"Duration":127659,"SoundDuration":127659,"Delta":116517391},{"NoteNumber":75,"Velocity":58,"Duration":112359,"SoundDuration":112359,"Delta":116645050},{"NoteNumber":57,"Velocity":38,"Duration":224718,"SoundDuration":224718,"Delta":116645050},{"NoteNumber":79,"Velocity":54,"Duration":112359,"SoundDuration":112359,"Delta":116757410},{"NoteNumber":77,"Velocity":58,"Duration":122449,"SoundDuration":122449,"Delta":116869769},{"NoteNumber":53,"Velocity":32,"Duration":244898,"SoundDuration":244898,"Delta":116869769},{"NoteNumber":75,"Velocity":53,"Duration":122449,"SoundDuration":122449,"Delta":116992218},{"NoteNumber":74,"Velocity":62,"Duration":118577,"SoundDuration":118577,"Delta":117114667},{"NoteNumber":58,"Velocity":38,"Duration":237154,"SoundDuration":237154,"Delta":117114667},{"NoteNumber":53,"Velocity":32,"Duration":258620,"SoundDuration":258620,"Delta":117351821},{"NoteNumber":72,"Velocity":52,"Duration":113207,"SoundDuration":113207,"Delta":117610442},{"NoteNumber":54,"Velocity":36,"Duration":226415,"SoundDuration":226415,"Delta":117610442},{"NoteNumber":74,"Velocity":45,"Duration":113207,"SoundDuration":113207,"Delta":117723649},{"NoteNumber":72,"Velocity":52,"Duration":113207,"SoundDuration":113207,"Delta":117836857},{"NoteNumber":62,"Velocity":28,"Duration":240866,"SoundDuration":240866,"Delta":117836857},{"NoteNumber":71,"Velocity":47,"Duration":127659,"SoundDuration":127659,"Delta":117950064},{"NoteNumber":72,"Velocity":52,"Duration":112359,"SoundDuration":112359,"Delta":118077724},{"NoteNumber":54,"Velocity":34,"Duration":224718,"SoundDuration":224718,"Delta":118077724},{"NoteNumber":75,"Velocity":48,"Duration":112359,"SoundDuration":112359,"Delta":118190083},{"NoteNumber":74,"Velocity":52,"Duration":122449,"SoundDuration":122449,"Delta":118302443},{"NoteNumber":62,"Velocity":28,"Duration":244898,"SoundDuration":244898,"Delta":118302443},{"NoteNumber":72,"Velocity":47,"Duration":122449,"SoundDuration":122449,"Delta":118424892},{"NoteNumber":70,"Velocity":55,"Duration":118577,"SoundDuration":118577,"Delta":118547341},{"NoteNumber":55,"Velocity":34,"Duration":237154,"SoundDuration":237154,"Delta":118547341},{"NoteNumber":62,"Velocity":28,"Duration":244898,"SoundDuration":244898,"Delta":118784495},{"NoteNumber":52,"Velocity":48,"Duration":915092,"SoundDuration":915092,"Delta":119029393},{"NoteNumber":55,"Velocity":48,"Duration":915092,"SoundDuration":915092,"Delta":119029393},{"NoteNumber":60,"Velocity":57,"Duration":915092,"SoundDuration":915092,"Delta":119029393},{"NoteNumber":71,"Velocity":50,"Duration":115830,"SoundDuration":115830,"Delta":119145223},{"NoteNumber":72,"Velocity":58,"Duration":112781,"SoundDuration":112781,"Delta":119261053},{"NoteNumber":71,"Velocity":53,"Duration":112782,"SoundDuration":112782,"Delta":119373835},{"NoteNumber":79,"Velocity":63,"Duration":112781,"SoundDuration":112781,"Delta":119486617},{"NoteNumber":71,"Velocity":54,"Duration":112781,"SoundDuration":112781,"Delta":119599399},{"NoteNumber":72,"Velocity":58,"Duration":112782,"SoundDuration":112782,"Delta":119712181},{"NoteNumber":71,"Velocity":53,"Duration":119522,"SoundDuration":119522,"Delta":119824963},{"NoteNumber":53,"Velocity":40,"Duration":507861,"SoundDuration":507861,"Delta":119944485},{"NoteNumber":57,"Velocity":40,"Duration":507861,"SoundDuration":507861,"Delta":119944485},{"NoteNumber":60,"Velocity":48,"Duration":507861,"SoundDuration":507861,"Delta":119944485},{"NoteNumber":69,"Velocity":45,"Duration":116278,"SoundDuration":116278,"Delta":120060764},{"NoteNumber":72,"Velocity":48,"Duration":121457,"SoundDuration":121457,"Delta":120177043},{"NoteNumber":77,"Velocity":44,"Duration":153846,"SoundDuration":153846,"Delta":120298500},{"NoteNumber":52,"Velocity":48,"Duration":943197,"SoundDuration":943197,"Delta":120452347},{"NoteNumber":55,"Velocity":48,"Duration":943197,"SoundDuration":943197,"Delta":120452347},{"NoteNumber":60,"Velocity":57,"Duration":943197,"SoundDuration":943197,"Delta":120452347},{"NoteNumber":71,"Velocity":50,"Duration":124481,"SoundDuration":124481,"Delta":120576828},{"NoteNumber":72,"Velocity":58,"Duration":114942,"SoundDuration":114942,"Delta":120701309},{"NoteNumber":71,"Velocity":53,"Duration":114942,"SoundDuration":114942,"Delta":120816252},{"NoteNumber":79,"Velocity":63,"Duration":114942,"SoundDuration":114942,"Delta":120931194},{"NoteNumber":71,"Velocity":54,"Duration":114942,"SoundDuration":114942,"Delta":121046137},{"NoteNumber":72,"Velocity":58,"Duration":114942,"SoundDuration":114942,"Delta":121161079},{"NoteNumber":71,"Velocity":53,"Duration":119522,"SoundDuration":119522,"Delta":121276022},{"NoteNumber":57,"Velocity":40,"Duration":509760,"SoundDuration":509760,"Delta":121395544},{"NoteNumber":53,"Velocity":40,"Duration":509760,"SoundDuration":509760,"Delta":121395544},{"NoteNumber":60,"Velocity":48,"Duration":509760,"SoundDuration":509760,"Delta":121395544},{"NoteNumber":69,"Velocity":45,"Duration":117646,"SoundDuration":117646,"Delta":121513191},{"NoteNumber":72,"Velocity":48,"Duration":122950,"SoundDuration":122950,"Delta":121630838},{"NoteNumber":77,"Velocity":44,"Duration":151515,"SoundDuration":151515,"Delta":121753788},{"NoteNumber":58,"Velocity":43,"Duration":123456,"SoundDuration":123456,"Delta":121905304},{"NoteNumber":74,"Velocity":34,"Duration":112359,"SoundDuration":112359,"Delta":122028760},{"NoteNumber":70,"Velocity":39,"Duration":112359,"SoundDuration":112359,"Delta":122141120},{"NoteNumber":67,"Velocity":34,"Duration":112359,"SoundDuration":112359,"Delta":122253479},{"NoteNumber":60,"Velocity":35,"Duration":122449,"SoundDuration":122449,"Delta":122365839},{"NoteNumber":72,"Velocity":35,"Duration":113207,"SoundDuration":113207,"Delta":122488288},{"NoteNumber":69,"Velocity":39,"Duration":113207,"SoundDuration":113207,"Delta":122601495},{"NoteNumber":65,"Velocity":35,"Duration":113207,"SoundDuration":113207,"Delta":122714703},{"NoteNumber":48,"Velocity":33,"Duration":121457,"SoundDuration":121457,"Delta":122827910},{"NoteNumber":70,"Velocity":33,"Duration":114068,"SoundDuration":114068,"Delta":122949368},{"NoteNumber":67,"Velocity":39,"Duration":114068,"SoundDuration":114068,"Delta":123063436},{"NoteNumber":64,"Velocity":34,"Duration":134529,"SoundDuration":134529,"Delta":123177505},{"NoteNumber":53,"Velocity":34,"Duration":458015,"SoundDuration":458015,"Delta":123312034},{"NoteNumber":57,"Velocity":40,"Duration":458015,"SoundDuration":458015,"Delta":123312034},{"NoteNumber":65,"Velocity":39,"Duration":114503,"SoundDuration":114503,"Delta":123541042},{"NoteNumber":67,"Velocity":44,"Duration":114503,"SoundDuration":114503,"Delta":123655545},{"NoteNumber":69,"Velocity":45,"Duration":85877,"SoundDuration":85877,"Delta":123770049},{"NoteNumber":69,"Velocity":49,"Duration":88932,"SoundDuration":88932,"Delta":123999057},{"NoteNumber":65,"Velocity":40,"Duration":88932,"SoundDuration":88932,"Delta":123999057},{"NoteNumber":69,"Velocity":53,"Duration":88932,"SoundDuration":88932,"Delta":124236211},{"NoteNumber":65,"Velocity":40,"Duration":88932,"SoundDuration":88932,"Delta":124236211},{"NoteNumber":69,"Velocity":57,"Duration":94537,"SoundDuration":94537,"Delta":124473365},{"NoteNumber":65,"Velocity":40,"Duration":94537,"SoundDuration":94537,"Delta":124473365},{"NoteNumber":72,"Velocity":65,"Duration":456273,"SoundDuration":456273,"Delta":124725466},{"NoteNumber":69,"Velocity":55,"Duration":456273,"SoundDuration":456273,"Delta":124725466},{"NoteNumber":60,"Velocity":55,"Duration":114068,"SoundDuration":114068,"Delta":124953603},{"NoteNumber":59,"Velocity":48,"Duration":114068,"SoundDuration":114068,"Delta":125067671},{"NoteNumber":70,"Velocity":59,"Duration":953289,"SoundDuration":953289,"Delta":125181740},{"NoteNumber":67,"Velocity":50,"Duration":953289,"SoundDuration":953289,"Delta":125181740},{"NoteNumber":60,"Velocity":53,"Duration":85551,"SoundDuration":85551,"Delta":125181740},{"NoteNumber":48,"Velocity":48,"Duration":119047,"SoundDuration":119047,"Delta":125409877},{"NoteNumber":50,"Velocity":46,"Duration":119047,"SoundDuration":119047,"Delta":125647972},{"NoteNumber":52,"Velocity":40,"Duration":124481,"SoundDuration":124481,"Delta":125886067},{"NoteNumber":53,"Velocity":40,"Duration":458015,"SoundDuration":458015,"Delta":126135029},{"NoteNumber":77,"Velocity":47,"Duration":114503,"SoundDuration":114503,"Delta":126364037},{"NoteNumber":72,"Velocity":47,"Duration":114503,"SoundDuration":114503,"Delta":126478540},{"NoteNumber":69,"Velocity":45,"Duration":85877,"SoundDuration":85877,"Delta":126593044},{"NoteNumber":69,"Velocity":49,"Duration":88932,"SoundDuration":88932,"Delta":126822052},{"NoteNumber":65,"Velocity":40,"Duration":88932,"SoundDuration":88932,"Delta":126822052},{"NoteNumber":69,"Velocity":53,"Duration":88932,"SoundDuration":88932,"Delta":127059206},{"NoteNumber":65,"Velocity":40,"Duration":88932,"SoundDuration":88932,"Delta":127059206},{"NoteNumber":69,"Velocity":57,"Duration":94537,"SoundDuration":94537,"Delta":127296360},{"NoteNumber":65,"Velocity":40,"Duration":94537,"SoundDuration":94537,"Delta":127296360},{"NoteNumber":72,"Velocity":65,"Duration":456273,"SoundDuration":456273,"Delta":127548461},{"NoteNumber":69,"Velocity":55,"Duration":456273,"SoundDuration":456273,"Delta":127548461},{"NoteNumber":60,"Velocity":55,"Duration":114068,"SoundDuration":114068,"Delta":127776598},{"NoteNumber":59,"Velocity":48,"Duration":114068,"SoundDuration":114068,"Delta":127890666},{"NoteNumber":70,"Velocity":59,"Duration":953289,"SoundDuration":953289,"Delta":128004735},{"NoteNumber":67,"Velocity":50,"Duration":953289,"SoundDuration":953289,"Delta":128004735},{"NoteNumber":60,"Velocity":53,"Duration":85551,"SoundDuration":85551,"Delta":128004735},{"NoteNumber":48,"Velocity":48,"Duration":119047,"SoundDuration":119047,"Delta":128232872},{"NoteNumber":50,"Velocity":46,"Duration":119047,"SoundDuration":119047,"Delta":128470967},{"NoteNumber":52,"Velocity":40,"Duration":124481,"SoundDuration":124481,"Delta":128709062},{"NoteNumber":65,"Velocity":50,"Duration":346153,"SoundDuration":346153,"Delta":128958024},{"NoteNumber":69,"Velocity":59,"Duration":346153,"SoundDuration":346153,"Delta":128958024},{"NoteNumber":53,"Velocity":40,"Duration":346153,"SoundDuration":346153,"Delta":128958024},{"NoteNumber":70,"Velocity":47,"Duration":115384,"SoundDuration":115384,"Delta":129304178},{"NoteNumber":67,"Velocity":39,"Duration":115384,"SoundDuration":115384,"Delta":129304178},{"NoteNumber":46,"Velocity":33,"Duration":115384,"SoundDuration":115384,"Delta":129304178},{"NoteNumber":69,"Velocity":56,"Duration":461538,"SoundDuration":461538,"Delta":129419562},{"NoteNumber":65,"Velocity":47,"Duration":461538,"SoundDuration":461538,"Delta":129419562},{"NoteNumber":48,"Velocity":40,"Duration":461538,"SoundDuration":461538,"Delta":129419562},{"NoteNumber":67,"Velocity":47,"Duration":461537,"SoundDuration":461537,"Delta":129881100},{"NoteNumber":64,"Velocity":39,"Duration":461537,"SoundDuration":461537,"Delta":129881100},{"NoteNumber":36,"Velocity":38,"Duration":461537,"SoundDuration":461537,"Delta":129881100},{"NoteNumber":41,"Velocity":40,"Duration":458014,"SoundDuration":458014,"Delta":130342638},{"NoteNumber":77,"Velocity":39,"Duration":114503,"SoundDuration":114503,"Delta":130571646},{"NoteNumber":79,"Velocity":44,"Duration":114503,"SoundDuration":114503,"Delta":130686149},{"NoteNumber":81,"Velocity":45,"Duration":85877,"SoundDuration":85877,"Delta":130800653},{"NoteNumber":81,"Velocity":49,"Duration":88932,"SoundDuration":88932,"Delta":131029661},{"NoteNumber":77,"Velocity":40,"Duration":88932,"SoundDuration":88932,"Delta":131029661},{"NoteNumber":81,"Velocity":53,"Duration":88932,"SoundDuration":88932,"Delta":131266815},{"NoteNumber":77,"Velocity":40,"Duration":88932,"SoundDuration":88932,"Delta":131266815},{"NoteNumber":81,"Velocity":57,"Duration":94537,"SoundDuration":94537,"Delta":131503969},{"NoteNumber":77,"Velocity":40,"Duration":94537,"SoundDuration":94537,"Delta":131503969},{"NoteNumber":84,"Velocity":65,"Duration":456274,"SoundDuration":456274,"Delta":131756070},{"NoteNumber":81,"Velocity":55,"Duration":456274,"SoundDuration":456274,"Delta":131756070},{"NoteNumber":72,"Velocity":55,"Duration":114068,"SoundDuration":114068,"Delta":131984207},{"NoteNumber":71,"Velocity":48,"Duration":114068,"SoundDuration":114068,"Delta":132098275},{"NoteNumber":82,"Velocity":59,"Duration":953289,"SoundDuration":953289,"Delta":132212344},{"NoteNumber":79,"Velocity":50,"Duration":953289,"SoundDuration":953289,"Delta":132212344},{"NoteNumber":72,"Velocity":53,"Duration":85551,"SoundDuration":85551,"Delta":132212344},{"NoteNumber":60,"Velocity":48,"Duration":119047,"SoundDuration":119047,"Delta":132440481},{"NoteNumber":62,"Velocity":46,"Duration":119047,"SoundDuration":119047,"Delta":132678576},{"NoteNumber":64,"Velocity":40,"Duration":124481,"SoundDuration":124481,"Delta":132916671},{"NoteNumber":65,"Velocity":40,"Duration":458014,"SoundDuration":458014,"Delta":133165633},{"NoteNumber":89,"Velocity":49,"Duration":114503,"SoundDuration":114503,"Delta":133394641},{"NoteNumber":84,"Velocity":51,"Duration":114503,"SoundDuration":114503,"Delta":133509144},{"NoteNumber":81,"Velocity":45,"Duration":85877,"SoundDuration":85877,"Delta":133623648},{"NoteNumber":81,"Velocity":49,"Duration":88932,"SoundDuration":88932,"Delta":133852656},{"NoteNumber":77,"Velocity":40,"Duration":88932,"SoundDuration":88932,"Delta":133852656},{"NoteNumber":81,"Velocity":53,"Duration":88932,"SoundDuration":88932,"Delta":134089810},{"NoteNumber":77,"Velocity":40,"Duration":88932,"SoundDuration":88932,"Delta":134089810},{"NoteNumber":81,"Velocity":57,"Duration":94537,"SoundDuration":94537,"Delta":134326964},{"NoteNumber":77,"Velocity":40,"Duration":94537,"SoundDuration":94537,"Delta":134326964},{"NoteNumber":84,"Velocity":65,"Duration":456274,"SoundDuration":456274,"Delta":134579065},{"NoteNumber":81,"Velocity":55,"Duration":456274,"SoundDuration":456274,"Delta":134579065},{"NoteNumber":72,"Velocity":55,"Duration":114068,"SoundDuration":114068,"Delta":134807202},{"NoteNumber":71,"Velocity":48,"Duration":114068,"SoundDuration":114068,"Delta":134921270},{"NoteNumber":82,"Velocity":59,"Duration":953289,"SoundDuration":953289,"Delta":135035339},{"NoteNumber":79,"Velocity":50,"Duration":953289,"SoundDuration":953289,"Delta":135035339},{"NoteNumber":72,"Velocity":53,"Duration":85551,"SoundDuration":85551,"Delta":135035339},{"NoteNumber":60,"Velocity":48,"Duration":119047,"SoundDuration":119047,"Delta":135263476},{"NoteNumber":62,"Velocity":46,"Duration":119047,"SoundDuration":119047,"Delta":135501571},{"NoteNumber":64,"Velocity":40,"Duration":124481,"SoundDuration":124481,"Delta":135739666},{"NoteNumber":81,"Velocity":58,"Duration":115384,"SoundDuration":115384,"Delta":135988628},{"NoteNumber":65,"Velocity":36,"Duration":230769,"SoundDuration":230769,"Delta":135988628},{"NoteNumber":77,"Velocity":51,"Duration":115384,"SoundDuration":115384,"Delta":136104013},{"NoteNumber":82,"Velocity":58,"Duration":115384,"SoundDuration":115384,"Delta":136219397},{"NoteNumber":58,"Velocity":32,"Duration":241434,"SoundDuration":241434,"Delta":136219397},{"NoteNumber":79,"Velocity":49,"Duration":126050,"SoundDuration":126050,"Delta":136334782},{"NoteNumber":81,"Velocity":56,"Duration":87209,"SoundDuration":87209,"Delta":136460832},{"NoteNumber":77,"Velocity":47,"Duration":87209,"SoundDuration":87209,"Delta":136460832},{"NoteNumber":60,"Velocity":40,"Duration":465115,"SoundDuration":465115,"Delta":136460832},{"NoteNumber":81,"Velocity":51,"Duration":87209,"SoundDuration":87209,"Delta":136693390},{"NoteNumber":77,"Velocity":43,"Duration":87209,"SoundDuration":87209,"Delta":136693390},{"NoteNumber":79,"Velocity":62,"Duration":90000,"SoundDuration":90000,"Delta":136925948},{"NoteNumber":76,"Velocity":52,"Duration":90000,"SoundDuration":90000,"Delta":136925948},{"NoteNumber":48,"Velocity":39,"Duration":479999,"SoundDuration":479999,"Delta":136925948},{"NoteNumber":79,"Velocity":55,"Duration":90000,"SoundDuration":90000,"Delta":137165948},{"NoteNumber":76,"Velocity":46,"Duration":90000,"SoundDuration":90000,"Delta":137165948},{"NoteNumber":77,"Velocity":70,"Duration":697674,"SoundDuration":697674,"Delta":137405948},{"NoteNumber":53,"Velocity":43,"Duration":232558,"SoundDuration":232558,"Delta":137405948},{"NoteNumber":57,"Velocity":51,"Duration":232558,"SoundDuration":232558,"Delta":137405948},{"NoteNumber":53,"Velocity":27,"Duration":232557,"SoundDuration":232557,"Delta":137638506},{"NoteNumber":57,"Velocity":32,"Duration":232557,"SoundDuration":232557,"Delta":137638506},{"NoteNumber":53,"Velocity":35,"Duration":468778,"SoundDuration":468778,"Delta":137871064},{"NoteNumber":57,"Velocity":42,"Duration":468778,"SoundDuration":468778,"Delta":137871064},{"NoteNumber":76,"Velocity":54,"Duration":118110,"SoundDuration":118110,"Delta":138103622},{"NoteNumber":74,"Velocity":56,"Duration":118110,"SoundDuration":118110,"Delta":138221732},{"NoteNumber":72,"Velocity":57,"Duration":118110,"SoundDuration":118110,"Delta":138339843},{"NoteNumber":70,"Velocity":60,"Duration":118110,"SoundDuration":118110,"Delta":138457953},{"NoteNumber":69,"Velocity":61,"Duration":125522,"SoundDuration":125522,"Delta":138576063},{"NoteNumber":67,"Velocity":68,"Duration":125523,"SoundDuration":125523,"Delta":138701586},{"NoteNumber":65,"Velocity":69,"Duration":694979,"SoundDuration":694979,"Delta":138827109},{"NoteNumber":53,"Velocity":44,"Duration":231660,"SoundDuration":231660,"Delta":138827109},{"NoteNumber":57,"Velocity":52,"Duration":231660,"SoundDuration":231660,"Delta":138827109},{"NoteNumber":53,"Velocity":27,"Duration":231660,"SoundDuration":231660,"Delta":139058769},{"NoteNumber":57,"Velocity":32,"Duration":231660,"SoundDuration":231660,"Delta":139058769},{"NoteNumber":53,"Velocity":37,"Duration":469754,"SoundDuration":469754,"Delta":139290429},{"NoteNumber":57,"Velocity":45,"Duration":469754,"SoundDuration":469754,"Delta":139290429},{"NoteNumber":64,"Velocity":53,"Duration":119047,"SoundDuration":119047,"Delta":139522089},{"NoteNumber":62,"Velocity":54,"Duration":119047,"SoundDuration":119047,"Delta":139641137},{"NoteNumber":60,"Velocity":55,"Duration":121457,"SoundDuration":121457,"Delta":139760184},{"NoteNumber":58,"Velocity":59,"Duration":121457,"SoundDuration":121457,"Delta":139881642},{"NoteNumber":57,"Velocity":60,"Duration":130434,"SoundDuration":130434,"Delta":140003099},{"NoteNumber":55,"Velocity":66,"Duration":130434,"SoundDuration":130434,"Delta":140133534},{"NoteNumber":53,"Velocity":76,"Duration":244898,"SoundDuration":244898,"Delta":140263969},{"NoteNumber":41,"Velocity":51,"Duration":244898,"SoundDuration":244898,"Delta":140263969},{"NoteNumber":57,"Velocity":58,"Duration":244897,"SoundDuration":244897,"Delta":140753765},{"NoteNumber":60,"Velocity":58,"Duration":244897,"SoundDuration":244897,"Delta":140753765},{"NoteNumber":65,"Velocity":69,"Duration":244897,"SoundDuration":244897,"Delta":140753765},{"NoteNumber":53,"Velocity":39,"Duration":244897,"SoundDuration":244897,"Delta":140753765},{"NoteNumber":41,"Velocity":12,"Duration":244897,"SoundDuration":244897,"Delta":140753765},{"NoteNumber":60,"Velocity":26,"Duration":1367766,"SoundDuration":1367766,"Delta":141733357},{"NoteNumber":64,"Velocity":42,"Duration":112782,"SoundDuration":112782,"Delta":141963242},{"NoteNumber":67,"Velocity":39,"Duration":112781,"SoundDuration":112781,"Delta":142076024},{"NoteNumber":72,"Velocity":42,"Duration":81521,"SoundDuration":81521,"Delta":142188806},{"NoteNumber":72,"Velocity":40,"Duration":83333,"SoundDuration":83333,"Delta":142406197},{"NoteNumber":72,"Velocity":40,"Duration":86538,"SoundDuration":86538,"Delta":142628419},{"NoteNumber":72,"Velocity":40,"Duration":90725,"SoundDuration":90725,"Delta":142859188},{"NoteNumber":60,"Velocity":38,"Duration":1373047,"SoundDuration":1373047,"Delta":143101124},{"NoteNumber":65,"Velocity":43,"Duration":112782,"SoundDuration":112782,"Delta":143331009},{"NoteNumber":71,"Velocity":44,"Duration":112781,"SoundDuration":112781,"Delta":143443791},{"NoteNumber":74,"Velocity":50,"Duration":84586,"SoundDuration":84586,"Delta":143556573},{"NoteNumber":74,"Velocity":43,"Duration":83333,"SoundDuration":83333,"Delta":143779245},{"NoteNumber":74,"Velocity":43,"Duration":86538,"SoundDuration":86538,"Delta":144001467},{"NoteNumber":74,"Velocity":43,"Duration":90725,"SoundDuration":90725,"Delta":144232236},{"NoteNumber":60,"Velocity":43,"Duration":1370155,"SoundDuration":1370155,"Delta":144474171},{"NoteNumber":67,"Velocity":47,"Duration":112782,"SoundDuration":112782,"Delta":144704056},{"NoteNumber":70,"Velocity":55,"Duration":112781,"SoundDuration":112781,"Delta":144816838},{"NoteNumber":76,"Velocity":59,"Duration":82417,"SoundDuration":82417,"Delta":144929620},{"NoteNumber":76,"Velocity":50,"Duration":83333,"SoundDuration":83333,"Delta":145149400},{"NoteNumber":76,"Velocity":50,"Duration":86538,"SoundDuration":86538,"Delta":145371622},{"NoteNumber":76,"Velocity":50,"Duration":90725,"SoundDuration":90725,"Delta":145602391},{"NoteNumber":61,"Velocity":47,"Duration":229884,"SoundDuration":229884,"Delta":145844327},{"NoteNumber":69,"Velocity":57,"Duration":114942,"SoundDuration":114942,"Delta":145959269},{"NoteNumber":73,"Velocity":58,"Duration":112782,"SoundDuration":112782,"Delta":146074212},{"NoteNumber":57,"Velocity":41,"Duration":225563,"SoundDuration":225563,"Delta":146074212},{"NoteNumber":76,"Velocity":61,"Duration":112781,"SoundDuration":112781,"Delta":146186994},{"NoteNumber":81,"Velocity":65,"Duration":112782,"SoundDuration":112782,"Delta":146299776},{"NoteNumber":61,"Velocity":47,"Duration":225564,"SoundDuration":225564,"Delta":146299776},{"NoteNumber":81,"Velocity":58,"Duration":111110,"SoundDuration":111110,"Delta":146525340},{"NoteNumber":57,"Velocity":42,"Duration":222221,"SoundDuration":222221,"Delta":146525340},{"NoteNumber":81,"Velocity":61,"Duration":111524,"SoundDuration":111524,"Delta":146747562},{"NoteNumber":61,"Velocity":46,"Duration":223048,"SoundDuration":223048,"Delta":146747562},{"NoteNumber":82,"Velocity":57,"Duration":111524,"SoundDuration":111524,"Delta":146859086},{"NoteNumber":81,"Velocity":61,"Duration":114942,"SoundDuration":114942,"Delta":146970610},{"NoteNumber":57,"Velocity":40,"Duration":229884,"SoundDuration":229884,"Delta":146970610},{"NoteNumber":79,"Velocity":57,"Duration":114942,"SoundDuration":114942,"Delta":147085553},{"NoteNumber":77,"Velocity":62,"Duration":114942,"SoundDuration":114942,"Delta":147200495},{"NoteNumber":62,"Velocity":47,"Duration":229884,"SoundDuration":229884,"Delta":147200495},{"NoteNumber":81,"Velocity":55,"Duration":114942,"SoundDuration":114942,"Delta":147315438},{"NoteNumber":79,"Velocity":55,"Duration":112782,"SoundDuration":112782,"Delta":147430380},{"NoteNumber":57,"Velocity":41,"Duration":225563,"SoundDuration":225563,"Delta":147430380},{"NoteNumber":77,"Velocity":51,"Duration":112781,"SoundDuration":112781,"Delta":147543162},{"NoteNumber":76,"Velocity":63,"Duration":112782,"SoundDuration":112782,"Delta":147655944},{"NoteNumber":64,"Velocity":47,"Duration":225564,"SoundDuration":225564,"Delta":147655944},{"NoteNumber":79,"Velocity":56,"Duration":112782,"SoundDuration":112782,"Delta":147768726},{"NoteNumber":77,"Velocity":56,"Duration":111110,"SoundDuration":111110,"Delta":147881508},{"NoteNumber":57,"Velocity":42,"Duration":222221,"SoundDuration":222221,"Delta":147881508},{"NoteNumber":76,"Velocity":51,"Duration":111110,"SoundDuration":111110,"Delta":147992619},{"NoteNumber":74,"Velocity":61,"Duration":112359,"SoundDuration":112359,"Delta":148103730},{"NoteNumber":65,"Velocity":46,"Duration":224718,"SoundDuration":224718,"Delta":148103730},{"NoteNumber":77,"Velocity":56,"Duration":112359,"SoundDuration":112359,"Delta":148216090},{"NoteNumber":76,"Velocity":56,"Duration":123456,"SoundDuration":123456,"Delta":148328449},{"NoteNumber":57,"Velocity":40,"Duration":246913,"SoundDuration":246913,"Delta":148328449},{"NoteNumber":74,"Velocity":50,"Duration":123456,"SoundDuration":123456,"Delta":148451906},{"NoteNumber":61,"Velocity":47,"Duration":229884,"SoundDuration":229884,"Delta":148575363},{"NoteNumber":69,"Velocity":57,"Duration":114942,"SoundDuration":114942,"Delta":148690305},{"NoteNumber":73,"Velocity":58,"Duration":112782,"SoundDuration":112782,"Delta":148805248},{"NoteNumber":57,"Velocity":41,"Duration":225563,"SoundDuration":225563,"Delta":148805248},{"NoteNumber":76,"Velocity":61,"Duration":112781,"SoundDuration":112781,"Delta":148918030},{"NoteNumber":81,"Velocity":65,"Duration":110701,"SoundDuration":110701,"Delta":149030812},{"NoteNumber":61,"Velocity":47,"Duration":221402,"SoundDuration":221402,"Delta":149030812},{"NoteNumber":81,"Velocity":58,"Duration":111110,"SoundDuration":111110,"Delta":149252214},{"NoteNumber":57,"Velocity":42,"Duration":228757,"SoundDuration":228757,"Delta":149252214},{"NoteNumber":81,"Velocity":61,"Duration":127118,"SoundDuration":127118,"Delta":149480972},{"NoteNumber":61,"Velocity":46,"Duration":238229,"SoundDuration":238229,"Delta":149480972},{"NoteNumber":88,"Velocity":57,"Duration":111110,"SoundDuration":111110,"Delta":149608090},{"NoteNumber":85,"Velocity":61,"Duration":114942,"SoundDuration":114942,"Delta":149719201},{"NoteNumber":57,"Velocity":40,"Duration":229884,"SoundDuration":229884,"Delta":149719201},{"NoteNumber":79,"Velocity":57,"Duration":114942,"SoundDuration":114942,"Delta":149834144},{"NoteNumber":77,"Velocity":62,"Duration":114942,"SoundDuration":114942,"Delta":149949086},{"NoteNumber":62,"Velocity":47,"Duration":229884,"SoundDuration":229884,"Delta":149949086},{"NoteNumber":81,"Velocity":55,"Duration":114942,"SoundDuration":114942,"Delta":150064029},{"NoteNumber":77,"Velocity":55,"Duration":112782,"SoundDuration":112782,"Delta":150178971},{"NoteNumber":57,"Velocity":41,"Duration":225563,"SoundDuration":225563,"Delta":150178971},{"NoteNumber":81,"Velocity":51,"Duration":112781,"SoundDuration":112781,"Delta":150291753},{"NoteNumber":76,"Velocity":63,"Duration":112782,"SoundDuration":112782,"Delta":150404535},{"NoteNumber":64,"Velocity":47,"Duration":225564,"SoundDuration":225564,"Delta":150404535},{"NoteNumber":79,"Velocity":56,"Duration":112782,"SoundDuration":112782,"Delta":150517317},{"NoteNumber":76,"Velocity":56,"Duration":111110,"SoundDuration":111110,"Delta":150630099},{"NoteNumber":57,"Velocity":42,"Duration":222221,"SoundDuration":222221,"Delta":150630099},{"NoteNumber":79,"Velocity":51,"Duration":111110,"SoundDuration":111110,"Delta":150741210},{"NoteNumber":74,"Velocity":61,"Duration":112359,"SoundDuration":112359,"Delta":150852321},{"NoteNumber":65,"Velocity":46,"Duration":224718,"SoundDuration":224718,"Delta":150852321},{"NoteNumber":77,"Velocity":56,"Duration":112359,"SoundDuration":112359,"Delta":150964681},{"NoteNumber":74,"Velocity":56,"Duration":120482,"SoundDuration":120482,"Delta":151077040},{"NoteNumber":57,"Velocity":40,"Duration":240963,"SoundDuration":240963,"Delta":151077040},{"NoteNumber":77,"Velocity":50,"Duration":120481,"SoundDuration":120481,"Delta":151197522},{"NoteNumber":72,"Velocity":42,"Duration":114942,"SoundDuration":114942,"Delta":151318004},{"NoteNumber":66,"Velocity":37,"Duration":114942,"SoundDuration":114942,"Delta":151318004},{"NoteNumber":75,"Velocity":33,"Duration":114942,"SoundDuration":114942,"Delta":151432947},{"NoteNumber":72,"Velocity":39,"Duration":112782,"SoundDuration":112782,"Delta":151547889},{"NoteNumber":66,"Velocity":26,"Duration":112782,"SoundDuration":112782,"Delta":151547889},{"NoteNumber":75,"Velocity":35,"Duration":112551,"SoundDuration":112551,"Delta":151660671},{"NoteNumber":72,"Velocity":42,"Duration":111431,"SoundDuration":111431,"Delta":151773223},{"NoteNumber":66,"Velocity":32,"Duration":443319,"SoundDuration":443319,"Delta":151773223},{"NoteNumber":75,"Velocity":35,"Duration":111005,"SoundDuration":111005,"Delta":151884654},{"NoteNumber":72,"Velocity":39,"Duration":110514,"SoundDuration":110514,"Delta":151995659},{"NoteNumber":75,"Velocity":34,"Duration":110368,"SoundDuration":110368,"Delta":152106174},{"NoteNumber":72,"Velocity":42,"Duration":111848,"SoundDuration":111848,"Delta":152216542},{"NoteNumber":74,"Velocity":35,"Duration":114513,"SoundDuration":114513,"Delta":152328390},{"NoteNumber":72,"Velocity":39,"Duration":116453,"SoundDuration":116453,"Delta":152442903},{"NoteNumber":74,"Velocity":35,"Duration":117798,"SoundDuration":117798,"Delta":152559357},{"NoteNumber":72,"Velocity":42,"Duration":114942,"SoundDuration":114942,"Delta":152677155},{"NoteNumber":67,"Velocity":37,"Duration":114942,"SoundDuration":114942,"Delta":152677155},{"NoteNumber":74,"Velocity":33,"Duration":114942,"SoundDuration":114942,"Delta":152792098},{"NoteNumber":72,"Velocity":39,"Duration":112782,"SoundDuration":112782,"Delta":152907040},{"NoteNumber":67,"Velocity":26,"Duration":112782,"SoundDuration":112782,"Delta":152907040},{"NoteNumber":74,"Velocity":35,"Duration":112551,"SoundDuration":112551,"Delta":153019822},{"NoteNumber":69,"Velocity":42,"Duration":111687,"SoundDuration":111687,"Delta":153132374},{"NoteNumber":67,"Velocity":32,"Duration":445777,"SoundDuration":445777,"Delta":153132374},{"NoteNumber":74,"Velocity":35,"Duration":111777,"SoundDuration":111777,"Delta":153244061},{"NoteNumber":69,"Velocity":39,"Duration":111362,"SoundDuration":111362,"Delta":153355838},{"NoteNumber":74,"Velocity":34,"Duration":110950,"SoundDuration":110950,"Delta":153467201},{"NoteNumber":70,"Velocity":42,"Duration":111848,"SoundDuration":111848,"Delta":153578151},{"NoteNumber":74,"Velocity":35,"Duration":114513,"SoundDuration":114513,"Delta":153689999},{"NoteNumber":70,"Velocity":39,"Duration":116453,"SoundDuration":116453,"Delta":153804512},{"NoteNumber":74,"Velocity":35,"Duration":115876,"SoundDuration":115876,"Delta":153920966},{"NoteNumber":70,"Velocity":42,"Duration":114792,"SoundDuration":114792,"Delta":154036842},{"NoteNumber":64,"Velocity":37,"Duration":114792,"SoundDuration":114792,"Delta":154036842},{"NoteNumber":73,"Velocity":33,"Duration":114478,"SoundDuration":114478,"Delta":154151635},{"NoteNumber":70,"Velocity":39,"Duration":114068,"SoundDuration":114068,"Delta":154266113},{"NoteNumber":64,"Velocity":26,"Duration":114068,"SoundDuration":114068,"Delta":154266113},{"NoteNumber":73,"Velocity":35,"Duration":113729,"SoundDuration":113729,"Delta":154380182},{"NoteNumber":70,"Velocity":42,"Duration":113421,"SoundDuration":113421,"Delta":154493912},{"NoteNumber":64,"Velocity":32,"Duration":454126,"SoundDuration":454126,"Delta":154493912},{"NoteNumber":72,"Velocity":35,"Duration":113111,"SoundDuration":113111,"Delta":154607333},{"NoteNumber":70,"Velocity":39,"Duration":113208,"SoundDuration":113208,"Delta":154720445},{"NoteNumber":72,"Velocity":34,"Duration":114384,"SoundDuration":114384,"Delta":154833653},{"NoteNumber":70,"Velocity":42,"Duration":115862,"SoundDuration":115862,"Delta":154948038},{"NoteNumber":72,"Velocity":35,"Duration":117498,"SoundDuration":117498,"Delta":155063901},{"NoteNumber":70,"Velocity":39,"Duration":119081,"SoundDuration":119081,"Delta":155181399},{"NoteNumber":72,"Velocity":35,"Duration":121225,"SoundDuration":121225,"Delta":155300481},{"NoteNumber":70,"Velocity":42,"Duration":117260,"SoundDuration":117260,"Delta":155421707},{"NoteNumber":65,"Velocity":37,"Duration":117260,"SoundDuration":117260,"Delta":155421707},{"NoteNumber":72,"Velocity":33,"Duration":116313,"SoundDuration":116313,"Delta":155538968},{"NoteNumber":70,"Velocity":39,"Duration":115385,"SoundDuration":115385,"Delta":155655282},{"NoteNumber":65,"Velocity":26,"Duration":115385,"SoundDuration":115385,"Delta":155655282},{"NoteNumber":72,"Velocity":35,"Duration":114399,"SoundDuration":114399,"Delta":155770667},{"NoteNumber":67,"Velocity":42,"Duration":114068,"SoundDuration":114068,"Delta":155885066},{"NoteNumber":65,"Velocity":32,"Duration":455243,"SoundDuration":455243,"Delta":155885066},{"NoteNumber":72,"Velocity":27,"Duration":113902,"SoundDuration":113902,"Delta":155999135},{"NoteNumber":67,"Velocity":36,"Duration":113636,"SoundDuration":113636,"Delta":156113038},{"NoteNumber":72,"Velocity":29,"Duration":113636,"SoundDuration":113636,"Delta":156226674},{"NoteNumber":69,"Velocity":37,"Duration":123456,"SoundDuration":123456,"Delta":156340310},{"NoteNumber":72,"Velocity":29,"Duration":123456,"SoundDuration":123456,"Delta":156463767},{"NoteNumber":69,"Velocity":37,"Duration":131004,"SoundDuration":131004,"Delta":156587224},{"NoteNumber":72,"Velocity":29,"Duration":131940,"SoundDuration":131940,"Delta":156718228},{"NoteNumber":71,"Velocity":62,"Duration":114942,"SoundDuration":114942,"Delta":156850169},{"NoteNumber":55,"Velocity":39,"Duration":229884,"SoundDuration":229884,"Delta":156850169},{"NoteNumber":62,"Velocity":47,"Duration":229884,"SoundDuration":229884,"Delta":156850169},{"NoteNumber":77,"Velocity":55,"Duration":114942,"SoundDuration":114942,"Delta":156965111},{"NoteNumber":71,"Velocity":55,"Duration":112782,"SoundDuration":112782,"Delta":157080054},{"NoteNumber":55,"Velocity":34,"Duration":225563,"SoundDuration":225563,"Delta":157080054},{"NoteNumber":62,"Velocity":41,"Duration":225563,"SoundDuration":225563,"Delta":157080054},{"NoteNumber":77,"Velocity":51,"Duration":112781,"SoundDuration":112781,"Delta":157192836},{"NoteNumber":71,"Velocity":63,"Duration":112782,"SoundDuration":112782,"Delta":157305618},{"NoteNumber":55,"Velocity":34,"Duration":225564,"SoundDuration":225564,"Delta":157305618},{"NoteNumber":62,"Velocity":47,"Duration":225564,"SoundDuration":225564,"Delta":157305618},{"NoteNumber":77,"Velocity":56,"Duration":112782,"SoundDuration":112782,"Delta":157418400},{"NoteNumber":71,"Velocity":56,"Duration":111110,"SoundDuration":111110,"Delta":157531182},{"NoteNumber":55,"Velocity":34,"Duration":222221,"SoundDuration":222221,"Delta":157531182},{"NoteNumber":62,"Velocity":42,"Duration":222221,"SoundDuration":222221,"Delta":157531182},{"NoteNumber":77,"Velocity":51,"Duration":111110,"SoundDuration":111110,"Delta":157642293},{"NoteNumber":71,"Velocity":61,"Duration":112359,"SoundDuration":112359,"Delta":157753404},{"NoteNumber":55,"Velocity":34,"Duration":224718,"SoundDuration":224718,"Delta":157753404},{"NoteNumber":62,"Velocity":46,"Duration":224718,"SoundDuration":224718,"Delta":157753404},{"NoteNumber":77,"Velocity":56,"Duration":112359,"SoundDuration":112359,"Delta":157865763},{"NoteNumber":71,"Velocity":56,"Duration":120000,"SoundDuration":120000,"Delta":157978123},{"NoteNumber":55,"Velocity":34,"Duration":240000,"SoundDuration":240000,"Delta":157978123},{"NoteNumber":62,"Velocity":40,"Duration":240000,"SoundDuration":240000,"Delta":157978123},{"NoteNumber":77,"Velocity":50,"Duration":120000,"SoundDuration":120000,"Delta":158098123},{"NoteNumber":76,"Velocity":62,"Duration":115829,"SoundDuration":115829,"Delta":158218123},{"NoteNumber":48,"Velocity":47,"Duration":231660,"SoundDuration":231660,"Delta":158218123},{"NoteNumber":72,"Velocity":55,"Duration":115830,"SoundDuration":115830,"Delta":158333953},{"NoteNumber":71,"Velocity":55,"Duration":112782,"SoundDuration":112782,"Delta":158449783},{"NoteNumber":60,"Velocity":41,"Duration":225563,"SoundDuration":225563,"Delta":158449783},{"NoteNumber":72,"Velocity":51,"Duration":112781,"SoundDuration":112781,"Delta":158562565},{"NoteNumber":74,"Velocity":63,"Duration":112782,"SoundDuration":112782,"Delta":158675347},{"NoteNumber":48,"Velocity":47,"Duration":225564,"SoundDuration":225564,"Delta":158675347},{"NoteNumber":72,"Velocity":56,"Duration":112782,"SoundDuration":112782,"Delta":158788129},{"NoteNumber":71,"Velocity":56,"Duration":111110,"SoundDuration":111110,"Delta":158900911},{"NoteNumber":60,"Velocity":42,"Duration":222221,"SoundDuration":222221,"Delta":158900911},{"NoteNumber":72,"Velocity":51,"Duration":111110,"SoundDuration":111110,"Delta":159012022},{"NoteNumber":77,"Velocity":61,"Duration":112359,"SoundDuration":112359,"Delta":159123133},{"NoteNumber":48,"Velocity":46,"Duration":224718,"SoundDuration":224718,"Delta":159123133},{"NoteNumber":74,"Velocity":56,"Duration":112359,"SoundDuration":112359,"Delta":159235492},{"NoteNumber":72,"Velocity":56,"Duration":113207,"SoundDuration":113207,"Delta":159347852},{"NoteNumber":60,"Velocity":40,"Duration":226415,"SoundDuration":226415,"Delta":159347852},{"NoteNumber":74,"Velocity":50,"Duration":113207,"SoundDuration":113207,"Delta":159461059},{"NoteNumber":79,"Velocity":68,"Duration":112359,"SoundDuration":112359,"Delta":159574267},{"NoteNumber":48,"Velocity":49,"Duration":223883,"SoundDuration":223883,"Delta":159574267},{"NoteNumber":76,"Velocity":59,"Duration":111524,"SoundDuration":111524,"Delta":159686626},{"NoteNumber":74,"Velocity":60,"Duration":112782,"SoundDuration":112782,"Delta":159798151},{"NoteNumber":60,"Velocity":43,"Duration":225563,"SoundDuration":225563,"Delta":159798151},{"NoteNumber":76,"Velocity":56,"Duration":112781,"SoundDuration":112781,"Delta":159910933},{"NoteNumber":77,"Velocity":71,"Duration":112782,"SoundDuration":112782,"Delta":160023715},{"NoteNumber":48,"Velocity":50,"Duration":225564,"SoundDuration":225564,"Delta":160023715},{"NoteNumber":76,"Velocity":63,"Duration":112782,"SoundDuration":112782,"Delta":160136497},{"NoteNumber":74,"Velocity":63,"Duration":109890,"SoundDuration":109890,"Delta":160249279},{"NoteNumber":60,"Velocity":46,"Duration":219779,"SoundDuration":219779,"Delta":160249279},{"NoteNumber":76,"Velocity":58,"Duration":109889,"SoundDuration":109889,"Delta":160359169},{"NoteNumber":81,"Velocity":68,"Duration":112359,"SoundDuration":112359,"Delta":160469059},{"NoteNumber":48,"Velocity":51,"Duration":224718,"SoundDuration":224718,"Delta":160469059},{"NoteNumber":77,"Velocity":64,"Duration":112359,"SoundDuration":112359,"Delta":160581418},{"NoteNumber":76,"Velocity":65,"Duration":113207,"SoundDuration":113207,"Delta":160693778},{"NoteNumber":60,"Velocity":45,"Duration":226415,"SoundDuration":226415,"Delta":160693778},{"NoteNumber":77,"Velocity":59,"Duration":113207,"SoundDuration":113207,"Delta":160806985},{"NoteNumber":82,"Velocity":77,"Duration":111940,"SoundDuration":111940,"Delta":160920193},{"NoteNumber":48,"Velocity":53,"Duration":223464,"SoundDuration":223464,"Delta":160920193},{"NoteNumber":81,"Velocity":66,"Duration":111524,"SoundDuration":111524,"Delta":161032133},{"NoteNumber":79,"Velocity":69,"Duration":113207,"SoundDuration":113207,"Delta":161143657},{"NoteNumber":60,"Velocity":47,"Duration":226415,"SoundDuration":226415,"Delta":161143657},{"NoteNumber":81,"Velocity":65,"Duration":113207,"SoundDuration":113207,"Delta":161256865},{"NoteNumber":82,"Velocity":77,"Duration":109488,"SoundDuration":109488,"Delta":161370072},{"NoteNumber":48,"Velocity":53,"Duration":218977,"SoundDuration":218977,"Delta":161370072},{"NoteNumber":81,"Velocity":66,"Duration":109488,"SoundDuration":109488,"Delta":161479561},{"NoteNumber":79,"Velocity":69,"Duration":110701,"SoundDuration":110701,"Delta":161589050},{"NoteNumber":60,"Velocity":47,"Duration":221402,"SoundDuration":221402,"Delta":161589050},{"NoteNumber":81,"Velocity":65,"Duration":110701,"SoundDuration":110701,"Delta":161699751},{"NoteNumber":82,"Velocity":77,"Duration":108303,"SoundDuration":108303,"Delta":161810452},{"NoteNumber":48,"Velocity":53,"Duration":216606,"SoundDuration":216606,"Delta":161810452},{"NoteNumber":81,"Velocity":66,"Duration":108303,"SoundDuration":108303,"Delta":161918755},{"NoteNumber":79,"Velocity":69,"Duration":111524,"SoundDuration":111524,"Delta":162027059},{"NoteNumber":60,"Velocity":47,"Duration":229634,"SoundDuration":229634,"Delta":162027059},{"NoteNumber":81,"Velocity":65,"Duration":118110,"SoundDuration":118110,"Delta":162138583},{"NoteNumber":82,"Velocity":72,"Duration":112948,"SoundDuration":112948,"Delta":162256693},{"NoteNumber":48,"Velocity":53,"Duration":454749,"SoundDuration":454749,"Delta":162256693},{"NoteNumber":81,"Velocity":66,"Duration":113888,"SoundDuration":113888,"Delta":162483014},{"NoteNumber":79,"Velocity":61,"Duration":115093,"SoundDuration":115093,"Delta":162711443},{"NoteNumber":77,"Velocity":57,"Duration":116279,"SoundDuration":116279,"Delta":162942162},{"NoteNumber":76,"Velocity":56,"Duration":117490,"SoundDuration":117490,"Delta":163175310},{"NoteNumber":74,"Velocity":54,"Duration":117647,"SoundDuration":117647,"Delta":163410447},{"NoteNumber":72,"Velocity":49,"Duration":118267,"SoundDuration":118267,"Delta":163645741},{"NoteNumber":71,"Velocity":45,"Duration":121493,"SoundDuration":121493,"Delta":163883974},{"NoteNumber":70,"Velocity":42,"Duration":124174,"SoundDuration":124174,"Delta":164128634},{"NoteNumber":69,"Velocity":38,"Duration":127621,"SoundDuration":127621,"Delta":164378427},{"NoteNumber":68,"Velocity":37,"Duration":131311,"SoundDuration":131311,"Delta":164635399},{"NoteNumber":67,"Velocity":33,"Duration":139534,"SoundDuration":139534,"Delta":164898289},{"NoteNumber":65,"Velocity":44,"Duration":930231,"SoundDuration":930231,"Delta":165177359},{"NoteNumber":41,"Velocity":25,"Duration":232558,"SoundDuration":232558,"Delta":165177359},{"NoteNumber":53,"Velocity":18,"Duration":232557,"SoundDuration":232557,"Delta":165409917},{"NoteNumber":41,"Velocity":20,"Duration":232558,"SoundDuration":232558,"Delta":165642475},{"NoteNumber":53,"Velocity":18,"Duration":232557,"SoundDuration":232557,"Delta":165875033},{"NoteNumber":69,"Velocity":51,"Duration":356525,"SoundDuration":356525,"Delta":166107591},{"NoteNumber":41,"Velocity":30,"Duration":232558,"SoundDuration":232558,"Delta":166107591},{"NoteNumber":53,"Velocity":26,"Duration":247933,"SoundDuration":247933,"Delta":166340149},{"NoteNumber":65,"Velocity":54,"Duration":123966,"SoundDuration":123966,"Delta":166464116},{"NoteNumber":72,"Velocity":63,"Duration":926639,"SoundDuration":926639,"Delta":166588083},{"NoteNumber":41,"Velocity":36,"Duration":231660,"SoundDuration":231660,"Delta":166588083},{"NoteNumber":53,"Velocity":21,"Duration":231660,"SoundDuration":231660,"Delta":166819743},{"NoteNumber":41,"Velocity":24,"Duration":231659,"SoundDuration":231659,"Delta":167051403},{"NoteNumber":53,"Velocity":21,"Duration":231660,"SoundDuration":231660,"Delta":167283063},{"NoteNumber":70,"Velocity":49,"Duration":113207,"SoundDuration":113207,"Delta":167514723},{"NoteNumber":41,"Velocity":23,"Duration":226415,"SoundDuration":226415,"Delta":167514723},{"NoteNumber":69,"Velocity":46,"Duration":113207,"SoundDuration":113207,"Delta":167627931},{"NoteNumber":67,"Velocity":44,"Duration":113207,"SoundDuration":113207,"Delta":167741138},{"NoteNumber":53,"Velocity":21,"Duration":226415,"SoundDuration":226415,"Delta":167741138},{"NoteNumber":65,"Velocity":42,"Duration":113207,"SoundDuration":113207,"Delta":167854346},{"NoteNumber":64,"Velocity":48,"Duration":229007,"SoundDuration":229007,"Delta":167967553},{"NoteNumber":41,"Velocity":28,"Duration":229007,"SoundDuration":229007,"Delta":167967553},{"NoteNumber":67,"Velocity":46,"Duration":229007,"SoundDuration":229007,"Delta":168196561},{"NoteNumber":53,"Velocity":23,"Duration":229007,"SoundDuration":229007,"Delta":168196561},{"NoteNumber":70,"Velocity":49,"Duration":229007,"SoundDuration":229007,"Delta":168425568},{"NoteNumber":41,"Velocity":26,"Duration":229007,"SoundDuration":229007,"Delta":168425568},{"NoteNumber":74,"Velocity":46,"Duration":229007,"SoundDuration":229007,"Delta":168654576},{"NoteNumber":53,"Velocity":23,"Duration":229007,"SoundDuration":229007,"Delta":168654576},{"NoteNumber":72,"Velocity":49,"Duration":229007,"SoundDuration":229007,"Delta":168883583},{"NoteNumber":41,"Velocity":26,"Duration":229007,"SoundDuration":229007,"Delta":168883583},{"NoteNumber":70,"Velocity":46,"Duration":251046,"SoundDuration":251046,"Delta":169112591},{"NoteNumber":53,"Velocity":23,"Duration":251046,"SoundDuration":251046,"Delta":169112591},{"NoteNumber":64,"Velocity":35,"Duration":463320,"SoundDuration":463320,"Delta":169363637},{"NoteNumber":68,"Velocity":42,"Duration":463320,"SoundDuration":463320,"Delta":169363637},{"NoteNumber":41,"Velocity":28,"Duration":231660,"SoundDuration":231660,"Delta":169363637},{"NoteNumber":53,"Velocity":22,"Duration":231660,"SoundDuration":231660,"Delta":169595297},{"NoteNumber":65,"Velocity":37,"Duration":463319,"SoundDuration":463319,"Delta":169826957},{"NoteNumber":69,"Velocity":44,"Duration":463319,"SoundDuration":463319,"Delta":169826957},{"NoteNumber":41,"Velocity":25,"Duration":231659,"SoundDuration":231659,"Delta":169826957},{"NoteNumber":53,"Velocity":22,"Duration":231660,"SoundDuration":231660,"Delta":170058617},{"NoteNumber":41,"Velocity":25,"Duration":231660,"SoundDuration":231660,"Delta":170290277},{"NoteNumber":53,"Velocity":22,"Duration":256410,"SoundDuration":256410,"Delta":170521937},{"NoteNumber":75,"Velocity":70,"Duration":694979,"SoundDuration":694979,"Delta":170778347},{"NoteNumber":57,"Velocity":40,"Duration":231660,"SoundDuration":231660,"Delta":170778347},{"NoteNumber":53,"Velocity":32,"Duration":231660,"SoundDuration":231660,"Delta":171010007},{"NoteNumber":57,"Velocity":37,"Duration":231659,"SoundDuration":231659,"Delta":171241667},{"NoteNumber":79,"Velocity":65,"Duration":115830,"SoundDuration":115830,"Delta":171473327},{"NoteNumber":53,"Velocity":32,"Duration":227770,"SoundDuration":227770,"Delta":171473327},{"NoteNumber":75,"Velocity":61,"Duration":111940,"SoundDuration":111940,"Delta":171589157},{"NoteNumber":74,"Velocity":65,"Duration":227770,"SoundDuration":227770,"Delta":171701098},{"NoteNumber":58,"Velocity":37,"Duration":227770,"SoundDuration":227770,"Delta":171701098},{"NoteNumber":77,"Velocity":63,"Duration":240000,"SoundDuration":240000,"Delta":171928868},{"NoteNumber":53,"Velocity":32,"Duration":240000,"SoundDuration":240000,"Delta":171928868},{"NoteNumber":69,"Velocity":70,"Duration":692306,"SoundDuration":692306,"Delta":172168868},{"NoteNumber":63,"Velocity":40,"Duration":230769,"SoundDuration":230769,"Delta":172168868},{"NoteNumber":53,"Velocity":32,"Duration":230768,"SoundDuration":230768,"Delta":172399637},{"NoteNumber":63,"Velocity":37,"Duration":230769,"SoundDuration":230769,"Delta":172630406},{"NoteNumber":72,"Velocity":65,"Duration":111940,"SoundDuration":111940,"Delta":172861175},{"NoteNumber":53,"Velocity":32,"Duration":223880,"SoundDuration":223880,"Delta":172861175},{"NoteNumber":69,"Velocity":61,"Duration":111940,"SoundDuration":111940,"Delta":172973115},{"NoteNumber":70,"Velocity":65,"Duration":229007,"SoundDuration":229007,"Delta":173085055},{"NoteNumber":62,"Velocity":39,"Duration":229007,"SoundDuration":229007,"Delta":173085055},{"NoteNumber":72,"Velocity":63,"Duration":114503,"SoundDuration":114503,"Delta":173314063},{"NoteNumber":53,"Velocity":32,"Duration":229007,"SoundDuration":229007,"Delta":173314063},{"NoteNumber":74,"Velocity":53,"Duration":114503,"SoundDuration":114503,"Delta":173428567},{"NoteNumber":75,"Velocity":58,"Duration":113207,"SoundDuration":113207,"Delta":173543070},{"NoteNumber":57,"Velocity":40,"Duration":225566,"SoundDuration":225566,"Delta":173543070},{"NoteNumber":77,"Velocity":50,"Duration":112359,"SoundDuration":112359,"Delta":173656278},{"NoteNumber":75,"Velocity":58,"Duration":112359,"SoundDuration":112359,"Delta":173768637},{"NoteNumber":53,"Velocity":32,"Duration":240018,"SoundDuration":240018,"Delta":173768637},{"NoteNumber":74,"Velocity":53,"Duration":127659,"SoundDuration":127659,"Delta":173880997},{"NoteNumber":75,"Velocity":58,"Duration":112359,"SoundDuration":112359,"Delta":174008656},{"NoteNumber":57,"Velocity":38,"Duration":223470,"SoundDuration":223470,"Delta":174008656},{"NoteNumber":79,"Velocity":54,"Duration":111110,"SoundDuration":111110,"Delta":174121016},{"NoteNumber":77,"Velocity":58,"Duration":122448,"SoundDuration":122448,"Delta":174232127},{"NoteNumber":53,"Velocity":32,"Duration":244898,"SoundDuration":244898,"Delta":174232127},{"NoteNumber":75,"Velocity":53,"Duration":122449,"SoundDuration":122449,"Delta":174354576},{"NoteNumber":74,"Velocity":62,"Duration":118576,"SoundDuration":118576,"Delta":174477025},{"NoteNumber":58,"Velocity":38,"Duration":237154,"SoundDuration":237154,"Delta":174477025},{"NoteNumber":53,"Velocity":32,"Duration":258620,"SoundDuration":258620,"Delta":174714179},{"NoteNumber":72,"Velocity":52,"Duration":112359,"SoundDuration":112359,"Delta":174972799},{"NoteNumber":54,"Velocity":36,"Duration":224718,"SoundDuration":224718,"Delta":174972799},{"NoteNumber":74,"Velocity":45,"Duration":112359,"SoundDuration":112359,"Delta":175085159},{"NoteNumber":72,"Velocity":52,"Duration":112359,"SoundDuration":112359,"Delta":175197518},{"NoteNumber":62,"Velocity":28,"Duration":240018,"SoundDuration":240018,"Delta":175197518},{"NoteNumber":71,"Velocity":47,"Duration":127659,"SoundDuration":127659,"Delta":175309878},{"NoteNumber":72,"Velocity":52,"Duration":110701,"SoundDuration":110701,"Delta":175437537},{"NoteNumber":54,"Velocity":34,"Duration":221402,"SoundDuration":221402,"Delta":175437537},{"NoteNumber":75,"Velocity":48,"Duration":110701,"SoundDuration":110701,"Delta":175548238},{"NoteNumber":74,"Velocity":52,"Duration":122448,"SoundDuration":122448,"Delta":175658939},{"NoteNumber":62,"Velocity":28,"Duration":244898,"SoundDuration":244898,"Delta":175658939},{"NoteNumber":72,"Velocity":47,"Duration":122449,"SoundDuration":122449,"Delta":175781388},{"NoteNumber":70,"Velocity":55,"Duration":118576,"SoundDuration":118576,"Delta":175903837},{"NoteNumber":55,"Velocity":34,"Duration":237154,"SoundDuration":237154,"Delta":175903837},{"NoteNumber":62,"Velocity":28,"Duration":244898,"SoundDuration":244898,"Delta":176140991},{"NoteNumber":60,"Velocity":57,"Duration":915091,"SoundDuration":915091,"Delta":176385889},{"NoteNumber":55,"Velocity":48,"Duration":915091,"SoundDuration":915091,"Delta":176385889},{"NoteNumber":52,"Velocity":48,"Duration":915091,"SoundDuration":915091,"Delta":176385889},{"NoteNumber":71,"Velocity":50,"Duration":115830,"SoundDuration":115830,"Delta":176501719},{"NoteNumber":72,"Velocity":58,"Duration":112782,"SoundDuration":112782,"Delta":176617549},{"NoteNumber":71,"Velocity":53,"Duration":112781,"SoundDuration":112781,"Delta":176730331},{"NoteNumber":79,"Velocity":63,"Duration":112782,"SoundDuration":112782,"Delta":176843113},{"NoteNumber":71,"Velocity":54,"Duration":112782,"SoundDuration":112782,"Delta":176955895},{"NoteNumber":72,"Velocity":58,"Duration":112781,"SoundDuration":112781,"Delta":177068677},{"NoteNumber":71,"Velocity":53,"Duration":119521,"SoundDuration":119521,"Delta":177181459},{"NoteNumber":60,"Velocity":48,"Duration":500357,"SoundDuration":500357,"Delta":177300981},{"NoteNumber":57,"Velocity":40,"Duration":500357,"SoundDuration":500357,"Delta":177300981},{"NoteNumber":53,"Velocity":40,"Duration":500357,"SoundDuration":500357,"Delta":177300981},{"NoteNumber":69,"Velocity":45,"Duration":116279,"SoundDuration":116279,"Delta":177417260},{"NoteNumber":72,"Velocity":48,"Duration":121457,"SoundDuration":121457,"Delta":177533539},{"NoteNumber":77,"Velocity":44,"Duration":146341,"SoundDuration":146341,"Delta":177654997},{"NoteNumber":55,"Velocity":48,"Duration":943196,"SoundDuration":943196,"Delta":177801338},{"NoteNumber":52,"Velocity":48,"Duration":943196,"SoundDuration":943196,"Delta":177801338},{"NoteNumber":60,"Velocity":57,"Duration":943196,"SoundDuration":943196,"Delta":177801338},{"NoteNumber":71,"Velocity":50,"Duration":124481,"SoundDuration":124481,"Delta":177925820},{"NoteNumber":72,"Velocity":58,"Duration":114942,"SoundDuration":114942,"Delta":178050301},{"NoteNumber":71,"Velocity":53,"Duration":114942,"SoundDuration":114942,"Delta":178165243},{"NoteNumber":79,"Velocity":63,"Duration":114942,"SoundDuration":114942,"Delta":178280186},{"NoteNumber":71,"Velocity":54,"Duration":114942,"SoundDuration":114942,"Delta":178395128},{"NoteNumber":72,"Velocity":58,"Duration":114942,"SoundDuration":114942,"Delta":178510071},{"NoteNumber":71,"Velocity":53,"Duration":119521,"SoundDuration":119521,"Delta":178625013},{"NoteNumber":57,"Velocity":40,"Duration":513685,"SoundDuration":513685,"Delta":178744535},{"NoteNumber":60,"Velocity":48,"Duration":513685,"SoundDuration":513685,"Delta":178744535},{"NoteNumber":53,"Velocity":40,"Duration":513685,"SoundDuration":513685,"Delta":178744535},{"NoteNumber":69,"Velocity":45,"Duration":117647,"SoundDuration":117647,"Delta":178862182},{"NoteNumber":72,"Velocity":48,"Duration":122950,"SoundDuration":122950,"Delta":178979829},{"NoteNumber":77,"Velocity":44,"Duration":155440,"SoundDuration":155440,"Delta":179102780},{"NoteNumber":58,"Velocity":43,"Duration":123456,"SoundDuration":123456,"Delta":179258221},{"NoteNumber":74,"Velocity":34,"Duration":112359,"SoundDuration":112359,"Delta":179381677},{"NoteNumber":70,"Velocity":39,"Duration":112359,"SoundDuration":112359,"Delta":179494037},{"NoteNumber":67,"Velocity":34,"Duration":112359,"SoundDuration":112359,"Delta":179606396},{"NoteNumber":60,"Velocity":35,"Duration":122448,"SoundDuration":122448,"Delta":179718756},{"NoteNumber":72,"Velocity":35,"Duration":110294,"SoundDuration":110294,"Delta":179841205},{"NoteNumber":69,"Velocity":39,"Duration":110293,"SoundDuration":110293,"Delta":179951499},{"NoteNumber":65,"Velocity":35,"Duration":110294,"SoundDuration":110294,"Delta":180061793},{"NoteNumber":48,"Velocity":33,"Duration":126050,"SoundDuration":126050,"Delta":180172087},{"NoteNumber":70,"Velocity":33,"Duration":114068,"SoundDuration":114068,"Delta":180298137},{"NoteNumber":67,"Velocity":39,"Duration":114068,"SoundDuration":114068,"Delta":180412206},{"NoteNumber":64,"Velocity":34,"Duration":134529,"SoundDuration":134529,"Delta":180526274},{"NoteNumber":57,"Velocity":40,"Duration":458014,"SoundDuration":458014,"Delta":180660804},{"NoteNumber":53,"Velocity":34,"Duration":458014,"SoundDuration":458014,"Delta":180660804},{"NoteNumber":65,"Velocity":39,"Duration":114503,"SoundDuration":114503,"Delta":180889811},{"NoteNumber":67,"Velocity":44,"Duration":114503,"SoundDuration":114503,"Delta":181004315},{"NoteNumber":69,"Velocity":45,"Duration":85877,"SoundDuration":85877,"Delta":181118819},{"NoteNumber":69,"Velocity":49,"Duration":88932,"SoundDuration":88932,"Delta":181347826},{"NoteNumber":65,"Velocity":40,"Duration":88932,"SoundDuration":88932,"Delta":181347826},{"NoteNumber":69,"Velocity":53,"Duration":88932,"SoundDuration":88932,"Delta":181584980},{"NoteNumber":65,"Velocity":40,"Duration":88932,"SoundDuration":88932,"Delta":181584980},{"NoteNumber":69,"Velocity":57,"Duration":94537,"SoundDuration":94537,"Delta":181822134},{"NoteNumber":65,"Velocity":40,"Duration":94537,"SoundDuration":94537,"Delta":181822134},{"NoteNumber":72,"Velocity":65,"Duration":456274,"SoundDuration":456274,"Delta":182074235},{"NoteNumber":69,"Velocity":55,"Duration":456274,"SoundDuration":456274,"Delta":182074235},{"NoteNumber":60,"Velocity":55,"Duration":114068,"SoundDuration":114068,"Delta":182302372},{"NoteNumber":59,"Velocity":48,"Duration":114068,"SoundDuration":114068,"Delta":182416441},{"NoteNumber":70,"Velocity":59,"Duration":953289,"SoundDuration":953289,"Delta":182530509},{"NoteNumber":67,"Velocity":50,"Duration":953289,"SoundDuration":953289,"Delta":182530509},{"NoteNumber":60,"Velocity":53,"Duration":85551,"SoundDuration":85551,"Delta":182530509},{"NoteNumber":48,"Velocity":48,"Duration":119047,"SoundDuration":119047,"Delta":182758646},{"NoteNumber":50,"Velocity":46,"Duration":119047,"SoundDuration":119047,"Delta":182996741},{"NoteNumber":52,"Velocity":40,"Duration":124481,"SoundDuration":124481,"Delta":183234836},{"NoteNumber":53,"Velocity":40,"Duration":469100,"SoundDuration":469100,"Delta":183483799},{"NoteNumber":77,"Velocity":47,"Duration":114068,"SoundDuration":114068,"Delta":183724763},{"NoteNumber":72,"Velocity":47,"Duration":114068,"SoundDuration":114068,"Delta":183838831},{"NoteNumber":69,"Velocity":45,"Duration":85551,"SoundDuration":85551,"Delta":183952900},{"NoteNumber":69,"Velocity":49,"Duration":88932,"SoundDuration":88932,"Delta":184181037},{"NoteNumber":65,"Velocity":40,"Duration":88932,"SoundDuration":88932,"Delta":184181037},{"NoteNumber":69,"Velocity":53,"Duration":88932,"SoundDuration":88932,"Delta":184418191},{"NoteNumber":65,"Velocity":40,"Duration":88932,"SoundDuration":88932,"Delta":184418191},{"NoteNumber":69,"Velocity":57,"Duration":94537,"SoundDuration":94537,"Delta":184655345},{"NoteNumber":65,"Velocity":40,"Duration":94537,"SoundDuration":94537,"Delta":184655345},{"NoteNumber":72,"Velocity":65,"Duration":456274,"SoundDuration":456274,"Delta":184907446},{"NoteNumber":69,"Velocity":55,"Duration":456274,"SoundDuration":456274,"Delta":184907446},{"NoteNumber":60,"Velocity":55,"Duration":114068,"SoundDuration":114068,"Delta":185135583},{"NoteNumber":59,"Velocity":48,"Duration":114068,"SoundDuration":114068,"Delta":185249651},{"NoteNumber":70,"Velocity":59,"Duration":953289,"SoundDuration":953289,"Delta":185363720},{"NoteNumber":67,"Velocity":50,"Duration":953289,"SoundDuration":953289,"Delta":185363720},{"NoteNumber":60,"Velocity":53,"Duration":85551,"SoundDuration":85551,"Delta":185363720},{"NoteNumber":48,"Velocity":48,"Duration":119047,"SoundDuration":119047,"Delta":185591857},{"NoteNumber":50,"Velocity":46,"Duration":119047,"SoundDuration":119047,"Delta":185829952},{"NoteNumber":52,"Velocity":40,"Duration":124481,"SoundDuration":124481,"Delta":186068047},{"NoteNumber":65,"Velocity":50,"Duration":346153,"SoundDuration":346153,"Delta":186317009},{"NoteNumber":69,"Velocity":59,"Duration":346153,"SoundDuration":346153,"Delta":186317009},{"NoteNumber":53,"Velocity":40,"Duration":346153,"SoundDuration":346153,"Delta":186317009},{"NoteNumber":70,"Velocity":47,"Duration":115384,"SoundDuration":115384,"Delta":186663163},{"NoteNumber":67,"Velocity":39,"Duration":115384,"SoundDuration":115384,"Delta":186663163},{"NoteNumber":46,"Velocity":33,"Duration":115384,"SoundDuration":115384,"Delta":186663163},{"NoteNumber":69,"Velocity":56,"Duration":461538,"SoundDuration":461538,"Delta":186778547},{"NoteNumber":65,"Velocity":47,"Duration":461538,"SoundDuration":461538,"Delta":186778547},{"NoteNumber":48,"Velocity":40,"Duration":461538,"SoundDuration":461538,"Delta":186778547},{"NoteNumber":67,"Velocity":47,"Duration":461537,"SoundDuration":461537,"Delta":187240085},{"NoteNumber":64,"Velocity":39,"Duration":461537,"SoundDuration":461537,"Delta":187240085},{"NoteNumber":36,"Velocity":38,"Duration":461537,"SoundDuration":461537,"Delta":187240085},{"NoteNumber":41,"Velocity":40,"Duration":458014,"SoundDuration":458014,"Delta":187701623},{"NoteNumber":77,"Velocity":39,"Duration":114503,"SoundDuration":114503,"Delta":187930631},{"NoteNumber":79,"Velocity":44,"Duration":114503,"SoundDuration":114503,"Delta":188045134},{"NoteNumber":81,"Velocity":45,"Duration":85877,"SoundDuration":85877,"Delta":188159638},{"NoteNumber":81,"Velocity":49,"Duration":88932,"SoundDuration":88932,"Delta":188388646},{"NoteNumber":77,"Velocity":40,"Duration":88932,"SoundDuration":88932,"Delta":188388646},{"NoteNumber":81,"Velocity":53,"Duration":88932,"SoundDuration":88932,"Delta":188625800},{"NoteNumber":77,"Velocity":40,"Duration":88932,"SoundDuration":88932,"Delta":188625800},{"NoteNumber":81,"Velocity":57,"Duration":94537,"SoundDuration":94537,"Delta":188862954},{"NoteNumber":77,"Velocity":40,"Duration":94537,"SoundDuration":94537,"Delta":188862954},{"NoteNumber":84,"Velocity":65,"Duration":456274,"SoundDuration":456274,"Delta":189115055},{"NoteNumber":81,"Velocity":55,"Duration":456274,"SoundDuration":456274,"Delta":189115055},{"NoteNumber":72,"Velocity":55,"Duration":114068,"SoundDuration":114068,"Delta":189343192},{"NoteNumber":71,"Velocity":48,"Duration":114068,"SoundDuration":114068,"Delta":189457260},{"NoteNumber":82,"Velocity":59,"Duration":953289,"SoundDuration":953289,"Delta":189571329},{"NoteNumber":79,"Velocity":50,"Duration":953289,"SoundDuration":953289,"Delta":189571329},{"NoteNumber":72,"Velocity":53,"Duration":85551,"SoundDuration":85551,"Delta":189571329},{"NoteNumber":60,"Velocity":48,"Duration":119047,"SoundDuration":119047,"Delta":189799466},{"NoteNumber":62,"Velocity":46,"Duration":119047,"SoundDuration":119047,"Delta":190037561},{"NoteNumber":64,"Velocity":40,"Duration":124481,"SoundDuration":124481,"Delta":190275656},{"NoteNumber":65,"Velocity":40,"Duration":469221,"SoundDuration":469221,"Delta":190524618},{"NoteNumber":89,"Velocity":49,"Duration":112782,"SoundDuration":112782,"Delta":190766554},{"NoteNumber":84,"Velocity":51,"Duration":114503,"SoundDuration":114503,"Delta":190879336},{"NoteNumber":81,"Velocity":45,"Duration":86206,"SoundDuration":86206,"Delta":190993839},{"NoteNumber":81,"Velocity":49,"Duration":88932,"SoundDuration":88932,"Delta":191223724},{"NoteNumber":77,"Velocity":40,"Duration":88932,"SoundDuration":88932,"Delta":191223724},{"NoteNumber":81,"Velocity":53,"Duration":88932,"SoundDuration":88932,"Delta":191460878},{"NoteNumber":77,"Velocity":40,"Duration":88932,"SoundDuration":88932,"Delta":191460878},{"NoteNumber":81,"Velocity":57,"Duration":94537,"SoundDuration":94537,"Delta":191698032},{"NoteNumber":77,"Velocity":40,"Duration":94537,"SoundDuration":94537,"Delta":191698032},{"NoteNumber":84,"Velocity":65,"Duration":456274,"SoundDuration":456274,"Delta":191950133},{"NoteNumber":81,"Velocity":55,"Duration":456274,"SoundDuration":456274,"Delta":191950133},{"NoteNumber":72,"Velocity":55,"Duration":114068,"SoundDuration":114068,"Delta":192178270},{"NoteNumber":71,"Velocity":48,"Duration":114068,"SoundDuration":114068,"Delta":192292339},{"NoteNumber":82,"Velocity":59,"Duration":953289,"SoundDuration":953289,"Delta":192406407},{"NoteNumber":79,"Velocity":50,"Duration":953289,"SoundDuration":953289,"Delta":192406407},{"NoteNumber":72,"Velocity":53,"Duration":85551,"SoundDuration":85551,"Delta":192406407},{"NoteNumber":60,"Velocity":48,"Duration":119047,"SoundDuration":119047,"Delta":192634544},{"NoteNumber":62,"Velocity":46,"Duration":119047,"SoundDuration":119047,"Delta":192872639},{"NoteNumber":64,"Velocity":40,"Duration":124481,"SoundDuration":124481,"Delta":193110734},{"NoteNumber":81,"Velocity":58,"Duration":115384,"SoundDuration":115384,"Delta":193359697},{"NoteNumber":65,"Velocity":36,"Duration":230769,"SoundDuration":230769,"Delta":193359697},{"NoteNumber":77,"Velocity":51,"Duration":115384,"SoundDuration":115384,"Delta":193475081},{"NoteNumber":82,"Velocity":58,"Duration":115384,"SoundDuration":115384,"Delta":193590466},{"NoteNumber":58,"Velocity":32,"Duration":241434,"SoundDuration":241434,"Delta":193590466},{"NoteNumber":79,"Velocity":49,"Duration":126050,"SoundDuration":126050,"Delta":193705850},{"NoteNumber":81,"Velocity":56,"Duration":87209,"SoundDuration":87209,"Delta":193831901},{"NoteNumber":77,"Velocity":47,"Duration":87209,"SoundDuration":87209,"Delta":193831901},{"NoteNumber":60,"Velocity":40,"Duration":465115,"SoundDuration":465115,"Delta":193831901},{"NoteNumber":81,"Velocity":51,"Duration":87209,"SoundDuration":87209,"Delta":194064459},{"NoteNumber":77,"Velocity":43,"Duration":87209,"SoundDuration":87209,"Delta":194064459},{"NoteNumber":79,"Velocity":62,"Duration":90000,"SoundDuration":90000,"Delta":194297017},{"NoteNumber":76,"Velocity":52,"Duration":90000,"SoundDuration":90000,"Delta":194297017},{"NoteNumber":48,"Velocity":39,"Duration":479999,"SoundDuration":479999,"Delta":194297017},{"NoteNumber":79,"Velocity":55,"Duration":90000,"SoundDuration":90000,"Delta":194537017},{"NoteNumber":76,"Velocity":46,"Duration":90000,"SoundDuration":90000,"Delta":194537017},{"NoteNumber":77,"Velocity":70,"Duration":697674,"SoundDuration":697674,"Delta":194777017},{"NoteNumber":57,"Velocity":51,"Duration":232558,"SoundDuration":232558,"Delta":194777017},{"NoteNumber":53,"Velocity":43,"Duration":232558,"SoundDuration":232558,"Delta":194777017},{"NoteNumber":57,"Velocity":32,"Duration":232557,"SoundDuration":232557,"Delta":195009575},{"NoteNumber":53,"Velocity":27,"Duration":232557,"SoundDuration":232557,"Delta":195009575},{"NoteNumber":53,"Velocity":35,"Duration":473522,"SoundDuration":473522,"Delta":195242133},{"NoteNumber":57,"Velocity":42,"Duration":473522,"SoundDuration":473522,"Delta":195242133},{"NoteNumber":76,"Velocity":54,"Duration":120482,"SoundDuration":120482,"Delta":195474691},{"NoteNumber":74,"Velocity":56,"Duration":120481,"SoundDuration":120481,"Delta":195595173},{"NoteNumber":72,"Velocity":57,"Duration":120482,"SoundDuration":120482,"Delta":195715655},{"NoteNumber":70,"Velocity":60,"Duration":120482,"SoundDuration":120482,"Delta":195836137},{"NoteNumber":69,"Velocity":61,"Duration":129870,"SoundDuration":129870,"Delta":195956619},{"NoteNumber":67,"Velocity":68,"Duration":129870,"SoundDuration":129870,"Delta":196086489},{"NoteNumber":65,"Velocity":69,"Duration":705882,"SoundDuration":705882,"Delta":196216359},{"NoteNumber":53,"Velocity":44,"Duration":235294,"SoundDuration":235294,"Delta":196216359},{"NoteNumber":57,"Velocity":52,"Duration":235294,"SoundDuration":235294,"Delta":196216359},{"NoteNumber":53,"Velocity":27,"Duration":235293,"SoundDuration":235293,"Delta":196451653},{"NoteNumber":57,"Velocity":32,"Duration":235293,"SoundDuration":235293,"Delta":196451653},{"NoteNumber":53,"Velocity":37,"Duration":481195,"SoundDuration":481195,"Delta":196686947},{"NoteNumber":57,"Velocity":45,"Duration":481195,"SoundDuration":481195,"Delta":196686947},{"NoteNumber":64,"Velocity":53,"Duration":122950,"SoundDuration":122950,"Delta":196922241},{"NoteNumber":62,"Velocity":54,"Duration":122950,"SoundDuration":122950,"Delta":197045192},{"NoteNumber":60,"Velocity":55,"Duration":128205,"SoundDuration":128205,"Delta":197168143},{"NoteNumber":58,"Velocity":59,"Duration":128205,"SoundDuration":128205,"Delta":197296348},{"NoteNumber":57,"Velocity":60,"Duration":136986,"SoundDuration":136986,"Delta":197424553},{"NoteNumber":55,"Velocity":66,"Duration":136986,"SoundDuration":136986,"Delta":197561540},{"NoteNumber":53,"Velocity":76,"Duration":262008,"SoundDuration":262008,"Delta":197698526},{"NoteNumber":41,"Velocity":51,"Duration":262008,"SoundDuration":262008,"Delta":197698526},{"NoteNumber":57,"Velocity":58,"Duration":262008,"SoundDuration":262008,"Delta":198222543},{"NoteNumber":60,"Velocity":58,"Duration":262008,"SoundDuration":262008,"Delta":198222543},{"NoteNumber":65,"Velocity":69,"Duration":262008,"SoundDuration":262008,"Delta":198222543},{"NoteNumber":53,"Velocity":39,"Duration":262008,"SoundDuration":262008,"Delta":198222543},{"NoteNumber":41,"Velocity":12,"Duration":262008,"SoundDuration":262008,"Delta":198222543}],"license":{"name":"Creative Commons Attribution-ShareAlike 3.0 Germany","url":"http://creativecommons.org/licenses/by-sa/3.0/de/deed.en","text":"The MIDI, audio (MP3, OGG) and video files of Bernd Krueger are licensed under the cc-by-sa Germany License. This means that you can use and adapt the files, as long as you attribute the copyright holder.\n\nName: Bernd Krueger\nSource: http://www.piano-midi.de\n\nThe distribution or public playback of the files is only allowed under identical license conditions.\n\nThe scores are open source.","attribution":"MIDI files by Bernd Krueger (piano-midi.de)","attributionUrl":"http://www.piano-midi.de"}}