{"title":"Sonatina in C major, Op. 36 No. 3: II","artist":"Clementi","durationMs":87826,"midiSha256":"550fd0d730441e1bd4fe8ddaf7bd6b1c2c1d7ab70fc95edc2d238af39a81482c","midiObject":[{"NoteNumber":67,"Velocity":42,"Duration":997635,"SoundDuration":997635,"Delta":0},{"NoteNumber":55,"Velocity":23,"Duration":660139,"SoundDuration":660139,"Delta":0},{"NoteNumber":62,"Velocity":17,"Duration":674992,"SoundDuration":674992,"Delta":660139},{"NoteNumber":66,"Velocity":31,"Duration":337496,"SoundDuration":337496,"Delta":997635},{"NoteNumber":67,"Velocity":42,"Duration":995684,"SoundDuration":995684,"Delta":1335131},{"NoteNumber":59,"Velocity":22,"Duration":663790,"SoundDuration":663790,"Delta":1335131},{"NoteNumber":62,"Velocity":19,"Duration":663789,"SoundDuration":663789,"Delta":1998921},{"NoteNumber":69,"Velocity":33,"Duration":331894,"SoundDuration":331894,"Delta":2330816},{"NoteNumber":71,"Velocity":40,"Duration":999544,"SoundDuration":999544,"Delta":2662711},{"NoteNumber":55,"Velocity":22,"Duration":660139,"SoundDuration":660139,"Delta":2662711},{"NoteNumber":62,"Velocity":16,"Duration":678810,"SoundDuration":678810,"Delta":3322850},{"NoteNumber":69,"Velocity":30,"Duration":339405,"SoundDuration":339405,"Delta":3662255},{"NoteNumber":67,"Velocity":39,"Duration":1373168,"SoundDuration":1373168,"Delta":4001660},{"NoteNumber":59,"Velocity":22,"Duration":671216,"SoundDuration":671216,"Delta":4001660},{"NoteNumber":62,"Velocity":18,"Duration":701952,"SoundDuration":701952,"Delta":4672876},{"NoteNumber":74,"Velocity":53,"Duration":990267,"SoundDuration":990267,"Delta":5374829},{"NoteNumber":54,"Velocity":31,"Duration":656526,"SoundDuration":656526,"Delta":5374829},{"NoteNumber":62,"Velocity":17,"Duration":667481,"SoundDuration":667481,"Delta":6031356},{"NoteNumber":76,"Velocity":36,"Duration":333740,"SoundDuration":333740,"Delta":6365097},{"NoteNumber":74,"Velocity":42,"Duration":1001223,"SoundDuration":1001223,"Delta":6698837},{"NoteNumber":57,"Velocity":22,"Duration":667482,"SoundDuration":667482,"Delta":6698837},{"NoteNumber":62,"Velocity":19,"Duration":667481,"SoundDuration":667481,"Delta":7366320},{"NoteNumber":72,"Velocity":34,"Duration":333740,"SoundDuration":333740,"Delta":7700061},{"NoteNumber":71,"Velocity":40,"Duration":974361,"SoundDuration":974361,"Delta":8033802},{"NoteNumber":55,"Velocity":22,"Duration":642466,"SoundDuration":642466,"Delta":8033802},{"NoteNumber":62,"Velocity":16,"Duration":663790,"SoundDuration":663790,"Delta":8676269},{"NoteNumber":72,"Velocity":35,"Duration":331895,"SoundDuration":331895,"Delta":9008163},{"NoteNumber":74,"Velocity":45,"Duration":667481,"SoundDuration":667481,"Delta":9340059},{"NoteNumber":59,"Velocity":22,"Duration":667481,"SoundDuration":667481,"Delta":9340059},{"NoteNumber":62,"Velocity":18,"Duration":702657,"SoundDuration":702657,"Delta":10007541},{"NoteNumber":79,"Velocity":53,"Duration":1001222,"SoundDuration":1001222,"Delta":10710199},{"NoteNumber":64,"Velocity":26,"Duration":667481,"SoundDuration":667481,"Delta":10710199},{"NoteNumber":67,"Velocity":26,"Duration":667481,"SoundDuration":667481,"Delta":11377680},{"NoteNumber":78,"Velocity":45,"Duration":333740,"SoundDuration":333740,"Delta":11711421},{"NoteNumber":79,"Velocity":55,"Duration":487065,"SoundDuration":487065,"Delta":12045162},{"NoteNumber":62,"Velocity":31,"Duration":649421,"SoundDuration":649421,"Delta":12045162},{"NoteNumber":78,"Velocity":47,"Duration":162355,"SoundDuration":162355,"Delta":12532228},{"NoteNumber":79,"Velocity":58,"Duration":487065,"SoundDuration":487065,"Delta":12694583},{"NoteNumber":60,"Velocity":26,"Duration":668028,"SoundDuration":668028,"Delta":12694583},{"NoteNumber":78,"Velocity":50,"Duration":180962,"SoundDuration":180962,"Delta":13181649},{"NoteNumber":79,"Velocity":65,"Duration":1025093,"SoundDuration":1025093,"Delta":13362612},{"NoteNumber":59,"Velocity":34,"Duration":667481,"SoundDuration":667481,"Delta":13362612},{"NoteNumber":62,"Velocity":33,"Duration":703286,"SoundDuration":703286,"Delta":14030094},{"NoteNumber":81,"Velocity":61,"Duration":345675,"SoundDuration":345675,"Delta":14387705},{"NoteNumber":83,"Velocity":69,"Duration":500611,"SoundDuration":500611,"Delta":14733381},{"NoteNumber":67,"Velocity":38,"Duration":667481,"SoundDuration":667481,"Delta":14733381},{"NoteNumber":81,"Velocity":58,"Duration":166870,"SoundDuration":166870,"Delta":15233992},{"NoteNumber":79,"Velocity":64,"Duration":506009,"SoundDuration":506009,"Delta":15400863},{"NoteNumber":78,"Velocity":55,"Duration":177746,"SoundDuration":177746,"Delta":15906873},{"NoteNumber":76,"Velocity":61,"Duration":506243,"SoundDuration":506243,"Delta":16084619},{"NoteNumber":60,"Velocity":38,"Duration":1349983,"SoundDuration":1349983,"Delta":16084619},{"NoteNumber":74,"Velocity":42,"Duration":168748,"SoundDuration":168748,"Delta":16590863},{"NoteNumber":72,"Velocity":44,"Duration":506244,"SoundDuration":506244,"Delta":16759611},{"NoteNumber":71,"Velocity":35,"Duration":168747,"SoundDuration":168747,"Delta":17265855},{"NoteNumber":69,"Velocity":39,"Duration":514932,"SoundDuration":514932,"Delta":17434603},{"NoteNumber":61,"Velocity":21,"Duration":1440000,"SoundDuration":1440000,"Delta":17434603},{"NoteNumber":67,"Velocity":33,"Duration":171644,"SoundDuration":171644,"Delta":17949536},{"NoteNumber":66,"Velocity":38,"Duration":554458,"SoundDuration":554458,"Delta":18121180},{"NoteNumber":67,"Velocity":28,"Duration":198965,"SoundDuration":198965,"Delta":18675638},{"NoteNumber":71,"Velocity":35,"Duration":1576876,"SoundDuration":1576876,"Delta":18874603},{"NoteNumber":67,"Velocity":29,"Duration":1576876,"SoundDuration":1576876,"Delta":18874603},{"NoteNumber":62,"Velocity":22,"Duration":770316,"SoundDuration":770316,"Delta":18874603},{"NoteNumber":50,"Velocity":16,"Duration":806560,"SoundDuration":806560,"Delta":19644920},{"NoteNumber":69,"Velocity":30,"Duration":806559,"SoundDuration":806559,"Delta":20451480},{"NoteNumber":66,"Velocity":25,"Duration":806559,"SoundDuration":806559,"Delta":20451480},{"NoteNumber":62,"Velocity":23,"Duration":806559,"SoundDuration":806559,"Delta":20451480},{"NoteNumber":67,"Velocity":42,"Duration":997635,"SoundDuration":997635,"Delta":22064600},{"NoteNumber":55,"Velocity":23,"Duration":660139,"SoundDuration":660139,"Delta":22064600},{"NoteNumber":62,"Velocity":17,"Duration":674991,"SoundDuration":674991,"Delta":22724739},{"NoteNumber":66,"Velocity":32,"Duration":337495,"SoundDuration":337495,"Delta":23062236},{"NoteNumber":67,"Velocity":42,"Duration":1005403,"SoundDuration":1005403,"Delta":23399731},{"NoteNumber":59,"Velocity":22,"Duration":660139,"SoundDuration":660139,"Delta":23399731},{"NoteNumber":62,"Velocity":19,"Duration":690528,"SoundDuration":690528,"Delta":24059870},{"NoteNumber":69,"Velocity":31,"Duration":345264,"SoundDuration":345264,"Delta":24405134},{"NoteNumber":71,"Velocity":40,"Duration":1006142,"SoundDuration":1006142,"Delta":24750398},{"NoteNumber":55,"Velocity":22,"Duration":664806,"SoundDuration":664806,"Delta":24750398},{"NoteNumber":62,"Velocity":16,"Duration":682672,"SoundDuration":682672,"Delta":25415205},{"NoteNumber":69,"Velocity":30,"Duration":341336,"SoundDuration":341336,"Delta":25756541},{"NoteNumber":67,"Velocity":39,"Duration":1390352,"SoundDuration":1390352,"Delta":26097877},{"NoteNumber":59,"Velocity":22,"Duration":682672,"SoundDuration":682672,"Delta":26097877},{"NoteNumber":62,"Velocity":18,"Duration":707680,"SoundDuration":707680,"Delta":26780549},{"NoteNumber":74,"Velocity":53,"Duration":990268,"SoundDuration":990268,"Delta":27488230},{"NoteNumber":54,"Velocity":31,"Duration":656527,"SoundDuration":656527,"Delta":27488230},{"NoteNumber":62,"Velocity":17,"Duration":667481,"SoundDuration":667481,"Delta":28144757},{"NoteNumber":76,"Velocity":36,"Duration":333740,"SoundDuration":333740,"Delta":28478498},{"NoteNumber":74,"Velocity":42,"Duration":996608,"SoundDuration":996608,"Delta":28812239},{"NoteNumber":57,"Velocity":22,"Duration":663789,"SoundDuration":663789,"Delta":28812239},{"NoteNumber":62,"Velocity":19,"Duration":666559,"SoundDuration":666559,"Delta":29476029},{"NoteNumber":72,"Velocity":34,"Duration":333740,"SoundDuration":333740,"Delta":29808847},{"NoteNumber":71,"Velocity":40,"Duration":974361,"SoundDuration":974361,"Delta":30142588},{"NoteNumber":55,"Velocity":22,"Duration":642466,"SoundDuration":642466,"Delta":30142588},{"NoteNumber":62,"Velocity":16,"Duration":663789,"SoundDuration":663789,"Delta":30785055},{"NoteNumber":72,"Velocity":35,"Duration":331894,"SoundDuration":331894,"Delta":31116950},{"NoteNumber":74,"Velocity":45,"Duration":667481,"SoundDuration":667481,"Delta":31448845},{"NoteNumber":59,"Velocity":22,"Duration":667481,"SoundDuration":667481,"Delta":31448845},{"NoteNumber":62,"Velocity":18,"Duration":702657,"SoundDuration":702657,"Delta":32116327},{"NoteNumber":79,"Velocity":53,"Duration":1001223,"SoundDuration":1001223,"Delta":32818985},{"NoteNumber":64,"Velocity":26,"Duration":667481,"SoundDuration":667481,"Delta":32818985},{"NoteNumber":67,"Velocity":26,"Duration":667481,"SoundDuration":667481,"Delta":33486467},{"NoteNumber":78,"Velocity":45,"Duration":333740,"SoundDuration":333740,"Delta":33820208},{"NoteNumber":79,"Velocity":55,"Duration":484443,"SoundDuration":484443,"Delta":34153949},{"NoteNumber":62,"Velocity":31,"Duration":645924,"SoundDuration":645924,"Delta":34153949},{"NoteNumber":78,"Velocity":47,"Duration":161481,"SoundDuration":161481,"Delta":34638393},{"NoteNumber":79,"Velocity":58,"Duration":484443,"SoundDuration":484443,"Delta":34799874},{"NoteNumber":60,"Velocity":26,"Duration":665406,"SoundDuration":665406,"Delta":34799874},{"NoteNumber":78,"Velocity":50,"Duration":180962,"SoundDuration":180962,"Delta":35284318},{"NoteNumber":79,"Velocity":65,"Duration":1025092,"SoundDuration":1025092,"Delta":35465281},{"NoteNumber":59,"Velocity":34,"Duration":667481,"SoundDuration":667481,"Delta":35465281},{"NoteNumber":62,"Velocity":33,"Duration":703287,"SoundDuration":703287,"Delta":36132763},{"NoteNumber":81,"Velocity":61,"Duration":345676,"SoundDuration":345676,"Delta":36490374},{"NoteNumber":83,"Velocity":69,"Duration":500611,"SoundDuration":500611,"Delta":36836050},{"NoteNumber":67,"Velocity":38,"Duration":667481,"SoundDuration":667481,"Delta":36836050},{"NoteNumber":81,"Velocity":58,"Duration":166870,"SoundDuration":166870,"Delta":37336661},{"NoteNumber":79,"Velocity":64,"Duration":511487,"SoundDuration":511487,"Delta":37503532},{"NoteNumber":78,"Velocity":55,"Duration":177746,"SoundDuration":177746,"Delta":38015019},{"NoteNumber":76,"Velocity":61,"Duration":506244,"SoundDuration":506244,"Delta":38192765},{"NoteNumber":60,"Velocity":38,"Duration":1349983,"SoundDuration":1349983,"Delta":38192765},{"NoteNumber":74,"Velocity":42,"Duration":168748,"SoundDuration":168748,"Delta":38699009},{"NoteNumber":72,"Velocity":44,"Duration":506243,"SoundDuration":506243,"Delta":38867757},{"NoteNumber":71,"Velocity":35,"Duration":168748,"SoundDuration":168748,"Delta":39374001},{"NoteNumber":69,"Velocity":39,"Duration":514932,"SoundDuration":514932,"Delta":39542749},{"NoteNumber":61,"Velocity":21,"Duration":1440000,"SoundDuration":1440000,"Delta":39542749},{"NoteNumber":67,"Velocity":33,"Duration":171644,"SoundDuration":171644,"Delta":40057682},{"NoteNumber":66,"Velocity":38,"Duration":554457,"SoundDuration":554457,"Delta":40229326},{"NoteNumber":67,"Velocity":28,"Duration":198965,"SoundDuration":198965,"Delta":40783784},{"NoteNumber":71,"Velocity":35,"Duration":1576876,"SoundDuration":1576876,"Delta":40982750},{"NoteNumber":67,"Velocity":29,"Duration":1576876,"SoundDuration":1576876,"Delta":40982750},{"NoteNumber":62,"Velocity":22,"Duration":770316,"SoundDuration":770316,"Delta":40982750},{"NoteNumber":50,"Velocity":16,"Duration":806559,"SoundDuration":806559,"Delta":41753067},{"NoteNumber":69,"Velocity":30,"Duration":806560,"SoundDuration":806560,"Delta":42559627},{"NoteNumber":66,"Velocity":25,"Duration":806560,"SoundDuration":806560,"Delta":42559627},{"NoteNumber":62,"Velocity":23,"Duration":806560,"SoundDuration":806560,"Delta":42559627},{"NoteNumber":72,"Velocity":42,"Duration":990451,"SoundDuration":990451,"Delta":44172747},{"NoteNumber":69,"Velocity":23,"Duration":652954,"SoundDuration":652954,"Delta":44172747},{"NoteNumber":62,"Velocity":17,"Duration":674992,"SoundDuration":674992,"Delta":44825702},{"NoteNumber":74,"Velocity":36,"Duration":337496,"SoundDuration":337496,"Delta":45163198},{"NoteNumber":72,"Velocity":42,"Duration":986916,"SoundDuration":986916,"Delta":45500694},{"NoteNumber":69,"Velocity":22,"Duration":649420,"SoundDuration":649420,"Delta":45500694},{"NoteNumber":67,"Velocity":19,"Duration":674992,"SoundDuration":674992,"Delta":46150115},{"NoteNumber":71,"Velocity":31,"Duration":337496,"SoundDuration":337496,"Delta":46487611},{"NoteNumber":69,"Velocity":40,"Duration":987677,"SoundDuration":987677,"Delta":46825107},{"NoteNumber":66,"Velocity":22,"Duration":653936,"SoundDuration":653936,"Delta":46825107},{"NoteNumber":62,"Velocity":16,"Duration":667481,"SoundDuration":667481,"Delta":47479043},{"NoteNumber":71,"Velocity":30,"Duration":333741,"SoundDuration":333741,"Delta":47793316},{"NoteNumber":72,"Velocity":38,"Duration":1004978,"SoundDuration":1004978,"Delta":48146525},{"NoteNumber":69,"Velocity":22,"Duration":667481,"SoundDuration":667481,"Delta":48146525},{"NoteNumber":62,"Velocity":15,"Duration":701618,"SoundDuration":701618,"Delta":48814007},{"NoteNumber":73,"Velocity":23,"Duration":364122,"SoundDuration":364122,"Delta":49151503},{"NoteNumber":74,"Velocity":33,"Duration":988562,"SoundDuration":988562,"Delta":49515625},{"NoteNumber":71,"Velocity":23,"Duration":652954,"SoundDuration":652954,"Delta":49515625},{"NoteNumber":62,"Velocity":17,"Duration":671216,"SoundDuration":671216,"Delta":50168580},{"NoteNumber":76,"Velocity":32,"Duration":335608,"SoundDuration":335608,"Delta":50504188},{"NoteNumber":74,"Velocity":39,"Duration":990268,"SoundDuration":990268,"Delta":50839796},{"NoteNumber":71,"Velocity":22,"Duration":656526,"SoundDuration":656526,"Delta":50839796},{"NoteNumber":69,"Velocity":21,"Duration":667481,"SoundDuration":667481,"Delta":51496323},{"NoteNumber":72,"Velocity":34,"Duration":333740,"SoundDuration":333740,"Delta":51830064},{"NoteNumber":71,"Velocity":40,"Duration":984850,"SoundDuration":984850,"Delta":52163805},{"NoteNumber":67,"Velocity":22,"Duration":652954,"SoundDuration":652954,"Delta":52163805},{"NoteNumber":62,"Velocity":16,"Duration":663789,"SoundDuration":663789,"Delta":52816760},{"NoteNumber":72,"Velocity":34,"Duration":331894,"SoundDuration":331894,"Delta":53148655},{"NoteNumber":74,"Velocity":40,"Duration":663789,"SoundDuration":663789,"Delta":53480550},{"NoteNumber":71,"Velocity":22,"Duration":663789,"SoundDuration":663789,"Delta":53480550},{"NoteNumber":62,"Velocity":18,"Duration":698240,"SoundDuration":698240,"Delta":54144340},{"NoteNumber":79,"Velocity":53,"Duration":1001223,"SoundDuration":1001223,"Delta":54842580},{"NoteNumber":64,"Velocity":26,"Duration":667481,"SoundDuration":667481,"Delta":54842580},{"NoteNumber":67,"Velocity":26,"Duration":667481,"SoundDuration":667481,"Delta":55510062},{"NoteNumber":78,"Velocity":45,"Duration":333740,"SoundDuration":333740,"Delta":55843803},{"NoteNumber":79,"Velocity":55,"Duration":492395,"SoundDuration":492395,"Delta":56177544},{"NoteNumber":62,"Velocity":31,"Duration":656526,"SoundDuration":656526,"Delta":56177544},{"NoteNumber":81,"Velocity":53,"Duration":164131,"SoundDuration":164131,"Delta":56669939},{"NoteNumber":83,"Velocity":63,"Duration":492395,"SoundDuration":492395,"Delta":56834071},{"NoteNumber":60,"Velocity":26,"Duration":673358,"SoundDuration":673358,"Delta":56834071},{"NoteNumber":84,"Velocity":61,"Duration":180962,"SoundDuration":180962,"Delta":57326466},{"NoteNumber":86,"Velocity":73,"Duration":1016765,"SoundDuration":1016765,"Delta":57507429},{"NoteNumber":59,"Velocity":34,"Duration":667481,"SoundDuration":667481,"Delta":57507429},{"NoteNumber":62,"Velocity":27,"Duration":690796,"SoundDuration":690796,"Delta":58174911},{"NoteNumber":84,"Velocity":56,"Duration":341512,"SoundDuration":341512,"Delta":58524195},{"NoteNumber":83,"Velocity":63,"Duration":500611,"SoundDuration":500611,"Delta":58865707},{"NoteNumber":67,"Velocity":39,"Duration":667481,"SoundDuration":667481,"Delta":58865707},{"NoteNumber":81,"Velocity":55,"Duration":166870,"SoundDuration":166870,"Delta":59366319},{"NoteNumber":79,"Velocity":64,"Duration":511487,"SoundDuration":511487,"Delta":59533189},{"NoteNumber":78,"Velocity":48,"Duration":177746,"SoundDuration":177746,"Delta":60044677},{"NoteNumber":76,"Velocity":55,"Duration":506244,"SoundDuration":506244,"Delta":60222423},{"NoteNumber":48,"Velocity":38,"Duration":1382681,"SoundDuration":1382681,"Delta":60222423},{"NoteNumber":74,"Velocity":42,"Duration":168748,"SoundDuration":168748,"Delta":60728667},{"NoteNumber":72,"Velocity":49,"Duration":562607,"SoundDuration":562607,"Delta":60897415},{"NoteNumber":71,"Velocity":39,"Duration":36270,"SoundDuration":36270,"Delta":61460023},{"NoteNumber":71,"Velocity":24,"Duration":72540,"SoundDuration":72540,"Delta":61532564},{"NoteNumber":69,"Velocity":44,"Duration":520893,"SoundDuration":520893,"Delta":61605104},{"NoteNumber":50,"Velocity":20,"Duration":694524,"SoundDuration":694524,"Delta":61605104},{"NoteNumber":60,"Velocity":24,"Duration":694524,"SoundDuration":694524,"Delta":61605104},{"NoteNumber":67,"Velocity":37,"Duration":173631,"SoundDuration":173631,"Delta":62125998},{"NoteNumber":69,"Velocity":43,"Duration":560890,"SoundDuration":560890,"Delta":62299629},{"NoteNumber":50,"Velocity":20,"Duration":759856,"SoundDuration":759856,"Delta":62299629},{"NoteNumber":60,"Velocity":24,"Duration":759856,"SoundDuration":759856,"Delta":62299629},{"NoteNumber":71,"Velocity":32,"Duration":198965,"SoundDuration":198965,"Delta":62860520},{"NoteNumber":69,"Velocity":35,"Duration":1576877,"SoundDuration":1576877,"Delta":63059486},{"NoteNumber":66,"Velocity":29,"Duration":1576877,"SoundDuration":1576877,"Delta":63059486},{"NoteNumber":55,"Velocity":16,"Duration":1576877,"SoundDuration":1576877,"Delta":63059486},{"NoteNumber":60,"Velocity":22,"Duration":1576877,"SoundDuration":1576877,"Delta":63059486},{"NoteNumber":67,"Velocity":28,"Duration":806559,"SoundDuration":806559,"Delta":64636363},{"NoteNumber":55,"Velocity":20,"Duration":806559,"SoundDuration":806559,"Delta":64636363},{"NoteNumber":59,"Velocity":22,"Duration":806559,"SoundDuration":806559,"Delta":64636363},{"NoteNumber":72,"Velocity":42,"Duration":994291,"SoundDuration":994291,"Delta":66249483},{"NoteNumber":69,"Velocity":23,"Duration":652955,"SoundDuration":652955,"Delta":66249483},{"NoteNumber":62,"Velocity":17,"Duration":682671,"SoundDuration":682671,"Delta":66902438},{"NoteNumber":74,"Velocity":36,"Duration":341335,"SoundDuration":341335,"Delta":67243774},{"NoteNumber":72,"Velocity":42,"Duration":1001474,"SoundDuration":1001474,"Delta":67585110},{"NoteNumber":69,"Velocity":22,"Duration":660139,"SoundDuration":660139,"Delta":67585110},{"NoteNumber":67,"Velocity":19,"Duration":682671,"SoundDuration":682671,"Delta":68245249},{"NoteNumber":71,"Velocity":30,"Duration":341335,"SoundDuration":341335,"Delta":68586585},{"NoteNumber":69,"Velocity":40,"Duration":975994,"SoundDuration":975994,"Delta":68927921},{"NoteNumber":66,"Velocity":22,"Duration":645925,"SoundDuration":645925,"Delta":68927921},{"NoteNumber":62,"Velocity":16,"Duration":660139,"SoundDuration":660139,"Delta":69573846},{"NoteNumber":71,"Velocity":30,"Duration":330069,"SoundDuration":330069,"Delta":69884661},{"NoteNumber":72,"Velocity":38,"Duration":1013537,"SoundDuration":1013537,"Delta":70233985},{"NoteNumber":69,"Velocity":22,"Duration":660139,"SoundDuration":660139,"Delta":70233985},{"NoteNumber":62,"Velocity":15,"Duration":741061,"SoundDuration":741061,"Delta":70894124},{"NoteNumber":73,"Velocity":23,"Duration":387663,"SoundDuration":387663,"Delta":71247522},{"NoteNumber":74,"Velocity":34,"Duration":967918,"SoundDuration":967918,"Delta":71635186},{"NoteNumber":71,"Velocity":23,"Duration":632311,"SoundDuration":632311,"Delta":71635186},{"NoteNumber":62,"Velocity":17,"Duration":671216,"SoundDuration":671216,"Delta":72267497},{"NoteNumber":76,"Velocity":32,"Duration":335608,"SoundDuration":335608,"Delta":72603105},{"NoteNumber":74,"Velocity":38,"Duration":983024,"SoundDuration":983024,"Delta":72938713},{"NoteNumber":71,"Velocity":22,"Duration":652955,"SoundDuration":652955,"Delta":72938713},{"NoteNumber":69,"Velocity":17,"Duration":660139,"SoundDuration":660139,"Delta":73591668},{"NoteNumber":72,"Velocity":34,"Duration":330069,"SoundDuration":330069,"Delta":73921737},{"NoteNumber":71,"Velocity":40,"Duration":990451,"SoundDuration":990451,"Delta":74251807},{"NoteNumber":67,"Velocity":22,"Duration":652955,"SoundDuration":652955,"Delta":74251807},{"NoteNumber":62,"Velocity":16,"Duration":674992,"SoundDuration":674992,"Delta":74904762},{"NoteNumber":72,"Velocity":34,"Duration":337496,"SoundDuration":337496,"Delta":75242258},{"NoteNumber":74,"Velocity":40,"Duration":674992,"SoundDuration":674992,"Delta":75579754},{"NoteNumber":71,"Velocity":22,"Duration":674992,"SoundDuration":674992,"Delta":75579754},{"NoteNumber":62,"Velocity":18,"Duration":703840,"SoundDuration":703840,"Delta":76254746},{"NoteNumber":79,"Velocity":53,"Duration":1001222,"SoundDuration":1001222,"Delta":76958587},{"NoteNumber":64,"Velocity":26,"Duration":667482,"SoundDuration":667482,"Delta":76958587},{"NoteNumber":67,"Velocity":26,"Duration":667481,"SoundDuration":667481,"Delta":77626069},{"NoteNumber":78,"Velocity":45,"Duration":333741,"SoundDuration":333741,"Delta":77959810},{"NoteNumber":79,"Velocity":55,"Duration":487065,"SoundDuration":487065,"Delta":78293551},{"NoteNumber":62,"Velocity":31,"Duration":649421,"SoundDuration":649421,"Delta":78293551},{"NoteNumber":81,"Velocity":53,"Duration":162355,"SoundDuration":162355,"Delta":78780616},{"NoteNumber":83,"Velocity":63,"Duration":490618,"SoundDuration":490618,"Delta":78942972},{"NoteNumber":60,"Velocity":26,"Duration":671581,"SoundDuration":671581,"Delta":78942972},{"NoteNumber":84,"Velocity":61,"Duration":180962,"SoundDuration":180962,"Delta":79433590},{"NoteNumber":86,"Velocity":73,"Duration":1016766,"SoundDuration":1016766,"Delta":79614553},{"NoteNumber":59,"Velocity":34,"Duration":667482,"SoundDuration":667482,"Delta":79614553},{"NoteNumber":62,"Velocity":27,"Duration":690796,"SoundDuration":690796,"Delta":80282035},{"NoteNumber":84,"Velocity":56,"Duration":341512,"SoundDuration":341512,"Delta":80631319},{"NoteNumber":83,"Velocity":63,"Duration":500611,"SoundDuration":500611,"Delta":80972832},{"NoteNumber":67,"Velocity":39,"Duration":667481,"SoundDuration":667481,"Delta":80972832},{"NoteNumber":81,"Velocity":55,"Duration":166870,"SoundDuration":166870,"Delta":81473443},{"NoteNumber":79,"Velocity":64,"Duration":511487,"SoundDuration":511487,"Delta":81640314},{"NoteNumber":78,"Velocity":48,"Duration":177746,"SoundDuration":177746,"Delta":82151801},{"NoteNumber":76,"Velocity":55,"Duration":506243,"SoundDuration":506243,"Delta":82329547},{"NoteNumber":48,"Velocity":38,"Duration":1419965,"SoundDuration":1419965,"Delta":82329547},{"NoteNumber":74,"Velocity":42,"Duration":168748,"SoundDuration":168748,"Delta":82835791},{"NoteNumber":72,"Velocity":49,"Duration":586551,"SoundDuration":586551,"Delta":83004539},{"NoteNumber":71,"Velocity":39,"Duration":58810,"SoundDuration":58810,"Delta":83591090},{"NoteNumber":71,"Velocity":34,"Duration":37354,"SoundDuration":37354,"Delta":83712158},{"NoteNumber":69,"Velocity":44,"Duration":520893,"SoundDuration":520893,"Delta":83749513},{"NoteNumber":50,"Velocity":20,"Duration":694524,"SoundDuration":694524,"Delta":83749513},{"NoteNumber":60,"Velocity":24,"Duration":694524,"SoundDuration":694524,"Delta":83749513},{"NoteNumber":67,"Velocity":37,"Duration":173631,"SoundDuration":173631,"Delta":84270406},{"NoteNumber":69,"Velocity":43,"Duration":575023,"SoundDuration":575023,"Delta":84444038},{"NoteNumber":50,"Velocity":20,"Duration":788122,"SoundDuration":788122,"Delta":84444038},{"NoteNumber":60,"Velocity":24,"Duration":788122,"SoundDuration":788122,"Delta":84444038},{"NoteNumber":71,"Velocity":32,"Duration":213098,"SoundDuration":213098,"Delta":85019062},{"NoteNumber":69,"Velocity":35,"Duration":1729355,"SoundDuration":1729355,"Delta":85232160},{"NoteNumber":66,"Velocity":29,"Duration":1729355,"SoundDuration":1729355,"Delta":85232160},{"NoteNumber":55,"Velocity":16,"Duration":1729355,"SoundDuration":1729355,"Delta":85232160},{"NoteNumber":60,"Velocity":22,"Duration":1729355,"SoundDuration":1729355,"Delta":85232160},{"NoteNumber":67,"Velocity":28,"Duration":864677,"SoundDuration":864677,"Delta":86961516},{"NoteNumber":55,"Velocity":20,"Duration":864677,"SoundDuration":864677,"Delta":86961516},{"NoteNumber":59,"Velocity":22,"Duration":864677,"SoundDuration":864677,"Delta":86961516}],"license":{"name":"Creative Commons Attribution-ShareAlike 3.0 Germany","url":"http://creativecommons.org/licenses/by-sa/3.0/de/deed.en","text":"The MIDI files in this folder were downloaded from http://www.piano-midi.de and are licensed under the Creative Commons Attribution-ShareAlike 3.0 Germany license by Bernd Krueger.\n\nThe MIDI, audio(MP3, OGG) and video files of Bernd Krueger are licensed under the cc-by-sa Germany License . This means, that you can use and adapt the files, as long as you attribute to the copyright holder Name: Bernd Krueger Source: http://www.piano-midi.de The distribution or public playback of the files is only allowed under identical license conditions . The scores are open source.","attribution":"Bernd Krueger","attributionUrl":"http://www.piano-midi.de"}}