{"title":"Die Perlen","artist":"Burgmüller","durationMs":83541,"midiSha256":"93c6f52843dbbab4086339e221bb3b01815ae1af79620466aa5c2740b155d4d3","midiObject":[{"NoteNumber":76,"Velocity":42,"Duration":178571,"SoundDuration":178571,"Delta":0},{"NoteNumber":36,"Velocity":30,"Duration":716091,"SoundDuration":716091,"Delta":0},{"NoteNumber":48,"Velocity":37,"Duration":716091,"SoundDuration":716091,"Delta":0},{"NoteNumber":77,"Velocity":39,"Duration":104166,"SoundDuration":104166,"Delta":178571},{"NoteNumber":79,"Velocity":39,"Duration":104078,"SoundDuration":104078,"Delta":267857},{"NoteNumber":81,"Velocity":40,"Duration":103638,"SoundDuration":103638,"Delta":357143},{"NoteNumber":83,"Velocity":40,"Duration":104434,"SoundDuration":104434,"Delta":445900},{"NoteNumber":84,"Velocity":41,"Duration":105060,"SoundDuration":105060,"Delta":535364},{"NoteNumber":86,"Velocity":42,"Duration":106960,"SoundDuration":106960,"Delta":625365},{"NoteNumber":88,"Velocity":49,"Duration":48701,"SoundDuration":48701,"Delta":716091},{"NoteNumber":64,"Velocity":33,"Duration":730250,"SoundDuration":730250,"Delta":716091},{"NoteNumber":60,"Velocity":28,"Duration":730250,"SoundDuration":730250,"Delta":716091},{"NoteNumber":55,"Velocity":28,"Duration":730250,"SoundDuration":730250,"Delta":716091},{"NoteNumber":88,"Velocity":42,"Duration":104166,"SoundDuration":104166,"Delta":813494},{"NoteNumber":89,"Velocity":42,"Duration":104166,"SoundDuration":104166,"Delta":902780},{"NoteNumber":91,"Velocity":44,"Duration":104166,"SoundDuration":104166,"Delta":992065},{"NoteNumber":93,"Velocity":45,"Duration":104702,"SoundDuration":104702,"Delta":1081351},{"NoteNumber":95,"Velocity":46,"Duration":105970,"SoundDuration":105970,"Delta":1170993},{"NoteNumber":96,"Velocity":48,"Duration":107269,"SoundDuration":107269,"Delta":1261720},{"NoteNumber":98,"Velocity":49,"Duration":108809,"SoundDuration":108809,"Delta":1353557},{"NoteNumber":100,"Velocity":51,"Duration":112179,"SoundDuration":112179,"Delta":1446342},{"NoteNumber":64,"Velocity":31,"Duration":752713,"SoundDuration":752713,"Delta":1446342},{"NoteNumber":60,"Velocity":26,"Duration":752713,"SoundDuration":752713,"Delta":1446342},{"NoteNumber":55,"Velocity":26,"Duration":752713,"SoundDuration":752713,"Delta":1446342},{"NoteNumber":76,"Velocity":42,"Duration":368097,"SoundDuration":368097,"Delta":1830957},{"NoteNumber":79,"Velocity":42,"Duration":178571,"SoundDuration":178571,"Delta":2199055},{"NoteNumber":36,"Velocity":30,"Duration":716091,"SoundDuration":716091,"Delta":2199055},{"NoteNumber":48,"Velocity":37,"Duration":716091,"SoundDuration":716091,"Delta":2199055},{"NoteNumber":81,"Velocity":39,"Duration":104166,"SoundDuration":104166,"Delta":2377627},{"NoteNumber":83,"Velocity":39,"Duration":104078,"SoundDuration":104078,"Delta":2466912},{"NoteNumber":84,"Velocity":40,"Duration":103638,"SoundDuration":103638,"Delta":2556198},{"NoteNumber":86,"Velocity":40,"Duration":104434,"SoundDuration":104434,"Delta":2644955},{"NoteNumber":88,"Velocity":41,"Duration":105061,"SoundDuration":105061,"Delta":2734419},{"NoteNumber":89,"Velocity":42,"Duration":106960,"SoundDuration":106960,"Delta":2824420},{"NoteNumber":91,"Velocity":49,"Duration":48701,"SoundDuration":48701,"Delta":2915147},{"NoteNumber":64,"Velocity":33,"Duration":730250,"SoundDuration":730250,"Delta":2915147},{"NoteNumber":60,"Velocity":28,"Duration":730250,"SoundDuration":730250,"Delta":2915147},{"NoteNumber":55,"Velocity":28,"Duration":730250,"SoundDuration":730250,"Delta":2915147},{"NoteNumber":91,"Velocity":41,"Duration":104166,"SoundDuration":104166,"Delta":3012549},{"NoteNumber":93,"Velocity":42,"Duration":104166,"SoundDuration":104166,"Delta":3101835},{"NoteNumber":95,"Velocity":42,"Duration":104166,"SoundDuration":104166,"Delta":3191121},{"NoteNumber":96,"Velocity":44,"Duration":104702,"SoundDuration":104702,"Delta":3280407},{"NoteNumber":98,"Velocity":45,"Duration":105970,"SoundDuration":105970,"Delta":3370049},{"NoteNumber":100,"Velocity":48,"Duration":107269,"SoundDuration":107269,"Delta":3460775},{"NoteNumber":101,"Velocity":49,"Duration":108809,"SoundDuration":108809,"Delta":3552613},{"NoteNumber":103,"Velocity":51,"Duration":112179,"SoundDuration":112179,"Delta":3645397},{"NoteNumber":64,"Velocity":31,"Duration":748251,"SoundDuration":748251,"Delta":3645397},{"NoteNumber":60,"Velocity":26,"Duration":748251,"SoundDuration":748251,"Delta":3645397},{"NoteNumber":55,"Velocity":26,"Duration":748251,"SoundDuration":748251,"Delta":3645397},{"NoteNumber":72,"Velocity":42,"Duration":363636,"SoundDuration":363636,"Delta":4030013},{"NoteNumber":74,"Velocity":42,"Duration":178571,"SoundDuration":178571,"Delta":4393649},{"NoteNumber":31,"Velocity":30,"Duration":716091,"SoundDuration":716091,"Delta":4393649},{"NoteNumber":43,"Velocity":37,"Duration":716091,"SoundDuration":716091,"Delta":4393649},{"NoteNumber":76,"Velocity":39,"Duration":104166,"SoundDuration":104166,"Delta":4572221},{"NoteNumber":77,"Velocity":39,"Duration":104078,"SoundDuration":104078,"Delta":4661506},{"NoteNumber":79,"Velocity":40,"Duration":103638,"SoundDuration":103638,"Delta":4750792},{"NoteNumber":81,"Velocity":40,"Duration":104434,"SoundDuration":104434,"Delta":4839550},{"NoteNumber":83,"Velocity":41,"Duration":105061,"SoundDuration":105061,"Delta":4929014},{"NoteNumber":84,"Velocity":42,"Duration":106960,"SoundDuration":106960,"Delta":5019014},{"NoteNumber":86,"Velocity":49,"Duration":48701,"SoundDuration":48701,"Delta":5109741},{"NoteNumber":65,"Velocity":33,"Duration":730250,"SoundDuration":730250,"Delta":5109741},{"NoteNumber":59,"Velocity":28,"Duration":730250,"SoundDuration":730250,"Delta":5109741},{"NoteNumber":55,"Velocity":28,"Duration":730250,"SoundDuration":730250,"Delta":5109741},{"NoteNumber":86,"Velocity":42,"Duration":104166,"SoundDuration":104166,"Delta":5207143},{"NoteNumber":88,"Velocity":44,"Duration":104166,"SoundDuration":104166,"Delta":5296429},{"NoteNumber":89,"Velocity":45,"Duration":104166,"SoundDuration":104166,"Delta":5385715},{"NoteNumber":91,"Velocity":46,"Duration":104702,"SoundDuration":104702,"Delta":5475001},{"NoteNumber":93,"Velocity":48,"Duration":105970,"SoundDuration":105970,"Delta":5564643},{"NoteNumber":95,"Velocity":49,"Duration":107269,"SoundDuration":107269,"Delta":5655369},{"NoteNumber":96,"Velocity":50,"Duration":108409,"SoundDuration":108409,"Delta":5747207},{"NoteNumber":98,"Velocity":51,"Duration":109375,"SoundDuration":109375,"Delta":5839991},{"NoteNumber":65,"Velocity":31,"Duration":736445,"SoundDuration":736445,"Delta":5839991},{"NoteNumber":59,"Velocity":26,"Duration":736445,"SoundDuration":736445,"Delta":5839991},{"NoteNumber":55,"Velocity":26,"Duration":736445,"SoundDuration":736445,"Delta":5839991},{"NoteNumber":76,"Velocity":42,"Duration":361445,"SoundDuration":361445,"Delta":6214991},{"NoteNumber":72,"Velocity":42,"Duration":178571,"SoundDuration":178571,"Delta":6576437},{"NoteNumber":36,"Velocity":30,"Duration":716091,"SoundDuration":716091,"Delta":6576437},{"NoteNumber":48,"Velocity":37,"Duration":716091,"SoundDuration":716091,"Delta":6576437},{"NoteNumber":74,"Velocity":39,"Duration":104166,"SoundDuration":104166,"Delta":6755009},{"NoteNumber":76,"Velocity":39,"Duration":104078,"SoundDuration":104078,"Delta":6844295},{"NoteNumber":77,"Velocity":40,"Duration":103638,"SoundDuration":103638,"Delta":6933580},{"NoteNumber":79,"Velocity":40,"Duration":104434,"SoundDuration":104434,"Delta":7022338},{"NoteNumber":81,"Velocity":41,"Duration":105061,"SoundDuration":105061,"Delta":7111802},{"NoteNumber":83,"Velocity":42,"Duration":106960,"SoundDuration":106960,"Delta":7201802},{"NoteNumber":84,"Velocity":45,"Duration":48701,"SoundDuration":48701,"Delta":7292529},{"NoteNumber":64,"Velocity":33,"Duration":730250,"SoundDuration":730250,"Delta":7292529},{"NoteNumber":60,"Velocity":28,"Duration":730250,"SoundDuration":730250,"Delta":7292529},{"NoteNumber":55,"Velocity":28,"Duration":730250,"SoundDuration":730250,"Delta":7292529},{"NoteNumber":84,"Velocity":39,"Duration":104166,"SoundDuration":104166,"Delta":7389932},{"NoteNumber":86,"Velocity":40,"Duration":104166,"SoundDuration":104166,"Delta":7479217},{"NoteNumber":88,"Velocity":40,"Duration":104166,"SoundDuration":104166,"Delta":7568503},{"NoteNumber":89,"Velocity":41,"Duration":104702,"SoundDuration":104702,"Delta":7657789},{"NoteNumber":91,"Velocity":42,"Duration":105970,"SoundDuration":105970,"Delta":7747431},{"NoteNumber":93,"Velocity":42,"Duration":107269,"SoundDuration":107269,"Delta":7838158},{"NoteNumber":95,"Velocity":44,"Duration":108409,"SoundDuration":108409,"Delta":7929995},{"NoteNumber":96,"Velocity":46,"Duration":109375,"SoundDuration":109375,"Delta":8022779},{"NoteNumber":64,"Velocity":31,"Duration":736446,"SoundDuration":736446,"Delta":8022779},{"NoteNumber":60,"Velocity":26,"Duration":736446,"SoundDuration":736446,"Delta":8022779},{"NoteNumber":55,"Velocity":26,"Duration":736446,"SoundDuration":736446,"Delta":8022779},{"NoteNumber":72,"Velocity":59,"Duration":361446,"SoundDuration":361446,"Delta":8397779},{"NoteNumber":69,"Velocity":60,"Duration":178571,"SoundDuration":178571,"Delta":8759225},{"NoteNumber":36,"Velocity":42,"Duration":716091,"SoundDuration":716091,"Delta":8759225},{"NoteNumber":48,"Velocity":53,"Duration":716091,"SoundDuration":716091,"Delta":8759225},{"NoteNumber":71,"Velocity":56,"Duration":104166,"SoundDuration":104166,"Delta":8937797},{"NoteNumber":72,"Velocity":56,"Duration":104078,"SoundDuration":104078,"Delta":9027083},{"NoteNumber":74,"Velocity":58,"Duration":103638,"SoundDuration":103638,"Delta":9116368},{"NoteNumber":76,"Velocity":58,"Duration":104434,"SoundDuration":104434,"Delta":9205126},{"NoteNumber":77,"Velocity":59,"Duration":105061,"SoundDuration":105061,"Delta":9294590},{"NoteNumber":79,"Velocity":61,"Duration":106960,"SoundDuration":106960,"Delta":9384590},{"NoteNumber":81,"Velocity":64,"Duration":48701,"SoundDuration":48701,"Delta":9475317},{"NoteNumber":65,"Velocity":47,"Duration":730250,"SoundDuration":730250,"Delta":9475317},{"NoteNumber":60,"Velocity":39,"Duration":730250,"SoundDuration":730250,"Delta":9475317},{"NoteNumber":57,"Velocity":39,"Duration":730250,"SoundDuration":730250,"Delta":9475317},{"NoteNumber":81,"Velocity":56,"Duration":104166,"SoundDuration":104166,"Delta":9572720},{"NoteNumber":83,"Velocity":58,"Duration":104166,"SoundDuration":104166,"Delta":9662005},{"NoteNumber":84,"Velocity":58,"Duration":104166,"SoundDuration":104166,"Delta":9751291},{"NoteNumber":86,"Velocity":59,"Duration":104702,"SoundDuration":104702,"Delta":9840577},{"NoteNumber":88,"Velocity":60,"Duration":105970,"SoundDuration":105970,"Delta":9930219},{"NoteNumber":89,"Velocity":61,"Duration":107269,"SoundDuration":107269,"Delta":10020946},{"NoteNumber":91,"Velocity":62,"Duration":107935,"SoundDuration":107935,"Delta":10112783},{"NoteNumber":93,"Velocity":67,"Duration":106060,"SoundDuration":106060,"Delta":10205567},{"NoteNumber":65,"Velocity":45,"Duration":725082,"SoundDuration":725082,"Delta":10205567},{"NoteNumber":60,"Velocity":37,"Duration":725082,"SoundDuration":725082,"Delta":10205567},{"NoteNumber":57,"Velocity":37,"Duration":725082,"SoundDuration":725082,"Delta":10205567},{"NoteNumber":72,"Velocity":56,"Duration":361446,"SoundDuration":361446,"Delta":10569204},{"NoteNumber":67,"Velocity":55,"Duration":178571,"SoundDuration":178571,"Delta":10930650},{"NoteNumber":36,"Velocity":37,"Duration":716091,"SoundDuration":716091,"Delta":10930650},{"NoteNumber":48,"Velocity":47,"Duration":716091,"SoundDuration":716091,"Delta":10930650},{"NoteNumber":69,"Velocity":49,"Duration":104166,"SoundDuration":104166,"Delta":11109221},{"NoteNumber":71,"Velocity":49,"Duration":104078,"SoundDuration":104078,"Delta":11198507},{"NoteNumber":72,"Velocity":50,"Duration":103638,"SoundDuration":103638,"Delta":11287793},{"NoteNumber":74,"Velocity":50,"Duration":104434,"SoundDuration":104434,"Delta":11376550},{"NoteNumber":76,"Velocity":51,"Duration":105061,"SoundDuration":105061,"Delta":11466014},{"NoteNumber":77,"Velocity":55,"Duration":106960,"SoundDuration":106960,"Delta":11556015},{"NoteNumber":79,"Velocity":58,"Duration":48701,"SoundDuration":48701,"Delta":11646742},{"NoteNumber":64,"Velocity":42,"Duration":730250,"SoundDuration":730250,"Delta":11646742},{"NoteNumber":60,"Velocity":35,"Duration":730250,"SoundDuration":730250,"Delta":11646742},{"NoteNumber":55,"Velocity":35,"Duration":730250,"SoundDuration":730250,"Delta":11646742},{"NoteNumber":79,"Velocity":49,"Duration":104166,"SoundDuration":104166,"Delta":11744144},{"NoteNumber":81,"Velocity":50,"Duration":104166,"SoundDuration":104166,"Delta":11833430},{"NoteNumber":83,"Velocity":50,"Duration":104166,"SoundDuration":104166,"Delta":11922716},{"NoteNumber":84,"Velocity":51,"Duration":104702,"SoundDuration":104702,"Delta":12012001},{"NoteNumber":86,"Velocity":55,"Duration":105970,"SoundDuration":105970,"Delta":12101644},{"NoteNumber":88,"Velocity":55,"Duration":107269,"SoundDuration":107269,"Delta":12192370},{"NoteNumber":89,"Velocity":56,"Duration":108409,"SoundDuration":108409,"Delta":12284208},{"NoteNumber":91,"Velocity":59,"Duration":109375,"SoundDuration":109375,"Delta":12376992},{"NoteNumber":64,"Velocity":39,"Duration":734281,"SoundDuration":734281,"Delta":12376992},{"NoteNumber":60,"Velocity":33,"Duration":734281,"SoundDuration":734281,"Delta":12376992},{"NoteNumber":55,"Velocity":33,"Duration":734281,"SoundDuration":734281,"Delta":12376992},{"NoteNumber":72,"Velocity":50,"Duration":359281,"SoundDuration":359281,"Delta":12751992},{"NoteNumber":74,"Velocity":50,"Duration":178571,"SoundDuration":178571,"Delta":13111274},{"NoteNumber":31,"Velocity":36,"Duration":716091,"SoundDuration":716091,"Delta":13111274},{"NoteNumber":43,"Velocity":44,"Duration":716091,"SoundDuration":716091,"Delta":13111274},{"NoteNumber":76,"Velocity":46,"Duration":104166,"SoundDuration":104166,"Delta":13289845},{"NoteNumber":77,"Velocity":46,"Duration":104078,"SoundDuration":104078,"Delta":13379131},{"NoteNumber":79,"Velocity":47,"Duration":103638,"SoundDuration":103638,"Delta":13468417},{"NoteNumber":81,"Velocity":47,"Duration":104434,"SoundDuration":104434,"Delta":13557174},{"NoteNumber":83,"Velocity":49,"Duration":105061,"SoundDuration":105061,"Delta":13646638},{"NoteNumber":84,"Velocity":51,"Duration":106960,"SoundDuration":106960,"Delta":13736639},{"NoteNumber":86,"Velocity":59,"Duration":48701,"SoundDuration":48701,"Delta":13827365},{"NoteNumber":65,"Velocity":39,"Duration":730250,"SoundDuration":730250,"Delta":13827365},{"NoteNumber":59,"Velocity":34,"Duration":730250,"SoundDuration":730250,"Delta":13827365},{"NoteNumber":55,"Velocity":34,"Duration":730250,"SoundDuration":730250,"Delta":13827365},{"NoteNumber":86,"Velocity":51,"Duration":104166,"SoundDuration":104166,"Delta":13924768},{"NoteNumber":88,"Velocity":53,"Duration":104166,"SoundDuration":104166,"Delta":14014054},{"NoteNumber":89,"Velocity":55,"Duration":104166,"SoundDuration":104166,"Delta":14103339},{"NoteNumber":91,"Velocity":56,"Duration":104702,"SoundDuration":104702,"Delta":14192625},{"NoteNumber":93,"Velocity":58,"Duration":105970,"SoundDuration":105970,"Delta":14282267},{"NoteNumber":95,"Velocity":59,"Duration":107269,"SoundDuration":107269,"Delta":14372994},{"NoteNumber":96,"Velocity":59,"Duration":108409,"SoundDuration":108409,"Delta":14464831},{"NoteNumber":98,"Velocity":60,"Duration":109375,"SoundDuration":109375,"Delta":14557616},{"NoteNumber":65,"Velocity":37,"Duration":736446,"SoundDuration":736446,"Delta":14557616},{"NoteNumber":59,"Velocity":29,"Duration":736446,"SoundDuration":736446,"Delta":14557616},{"NoteNumber":55,"Velocity":29,"Duration":736446,"SoundDuration":736446,"Delta":14557616},{"NoteNumber":76,"Velocity":49,"Duration":361446,"SoundDuration":361446,"Delta":14932616},{"NoteNumber":72,"Velocity":49,"Duration":178571,"SoundDuration":178571,"Delta":15294062},{"NoteNumber":36,"Velocity":35,"Duration":716091,"SoundDuration":716091,"Delta":15294062},{"NoteNumber":48,"Velocity":42,"Duration":716091,"SoundDuration":716091,"Delta":15294062},{"NoteNumber":74,"Velocity":45,"Duration":104166,"SoundDuration":104166,"Delta":15472633},{"NoteNumber":76,"Velocity":45,"Duration":104078,"SoundDuration":104078,"Delta":15561919},{"NoteNumber":77,"Velocity":46,"Duration":103638,"SoundDuration":103638,"Delta":15651205},{"NoteNumber":79,"Velocity":46,"Duration":104434,"SoundDuration":104434,"Delta":15739962},{"NoteNumber":81,"Velocity":47,"Duration":105061,"SoundDuration":105061,"Delta":15829426},{"NoteNumber":83,"Velocity":49,"Duration":106960,"SoundDuration":106960,"Delta":15919427},{"NoteNumber":84,"Velocity":51,"Duration":48701,"SoundDuration":48701,"Delta":16010153},{"NoteNumber":64,"Velocity":38,"Duration":736131,"SoundDuration":736131,"Delta":16010153},{"NoteNumber":60,"Velocity":33,"Duration":736131,"SoundDuration":736131,"Delta":16010153},{"NoteNumber":55,"Velocity":33,"Duration":736131,"SoundDuration":736131,"Delta":16010153},{"NoteNumber":84,"Velocity":45,"Duration":104166,"SoundDuration":104166,"Delta":16107556},{"NoteNumber":86,"Velocity":46,"Duration":104166,"SoundDuration":104166,"Delta":16196842},{"NoteNumber":88,"Velocity":46,"Duration":104345,"SoundDuration":104345,"Delta":16286127},{"NoteNumber":89,"Velocity":47,"Duration":105787,"SoundDuration":105787,"Delta":16375413},{"NoteNumber":91,"Velocity":49,"Duration":107554,"SoundDuration":107554,"Delta":16465957},{"NoteNumber":93,"Velocity":49,"Duration":109085,"SoundDuration":109085,"Delta":16557984},{"NoteNumber":95,"Velocity":50,"Duration":110964,"SoundDuration":110964,"Delta":16651346},{"NoteNumber":96,"Velocity":53,"Duration":112179,"SoundDuration":112179,"Delta":16746285},{"NoteNumber":64,"Velocity":36,"Duration":769231,"SoundDuration":769231,"Delta":16746285},{"NoteNumber":60,"Velocity":29,"Duration":769231,"SoundDuration":769231,"Delta":16746285},{"NoteNumber":55,"Velocity":29,"Duration":769231,"SoundDuration":769231,"Delta":16746285},{"NoteNumber":76,"Velocity":42,"Duration":178571,"SoundDuration":178571,"Delta":17515516},{"NoteNumber":36,"Velocity":30,"Duration":716091,"SoundDuration":716091,"Delta":17515516},{"NoteNumber":48,"Velocity":37,"Duration":716091,"SoundDuration":716091,"Delta":17515516},{"NoteNumber":77,"Velocity":39,"Duration":104166,"SoundDuration":104166,"Delta":17694088},{"NoteNumber":79,"Velocity":39,"Duration":104078,"SoundDuration":104078,"Delta":17783373},{"NoteNumber":81,"Velocity":40,"Duration":103638,"SoundDuration":103638,"Delta":17872659},{"NoteNumber":83,"Velocity":40,"Duration":104434,"SoundDuration":104434,"Delta":17961416},{"NoteNumber":84,"Velocity":41,"Duration":105060,"SoundDuration":105060,"Delta":18050880},{"NoteNumber":86,"Velocity":42,"Duration":106960,"SoundDuration":106960,"Delta":18140881},{"NoteNumber":88,"Velocity":49,"Duration":48701,"SoundDuration":48701,"Delta":18231608},{"NoteNumber":64,"Velocity":33,"Duration":730250,"SoundDuration":730250,"Delta":18231608},{"NoteNumber":60,"Velocity":28,"Duration":730250,"SoundDuration":730250,"Delta":18231608},{"NoteNumber":55,"Velocity":28,"Duration":730250,"SoundDuration":730250,"Delta":18231608},{"NoteNumber":88,"Velocity":42,"Duration":104166,"SoundDuration":104166,"Delta":18329010},{"NoteNumber":89,"Velocity":42,"Duration":104166,"SoundDuration":104166,"Delta":18418296},{"NoteNumber":91,"Velocity":44,"Duration":104166,"SoundDuration":104166,"Delta":18507582},{"NoteNumber":93,"Velocity":45,"Duration":104702,"SoundDuration":104702,"Delta":18596868},{"NoteNumber":95,"Velocity":46,"Duration":105970,"SoundDuration":105970,"Delta":18686510},{"NoteNumber":96,"Velocity":48,"Duration":107269,"SoundDuration":107269,"Delta":18777236},{"NoteNumber":98,"Velocity":49,"Duration":108809,"SoundDuration":108809,"Delta":18869074},{"NoteNumber":100,"Velocity":51,"Duration":112179,"SoundDuration":112179,"Delta":18961858},{"NoteNumber":64,"Velocity":31,"Duration":743897,"SoundDuration":743897,"Delta":18961858},{"NoteNumber":60,"Velocity":26,"Duration":743897,"SoundDuration":743897,"Delta":18961858},{"NoteNumber":55,"Velocity":26,"Duration":743897,"SoundDuration":743897,"Delta":18961858},{"NoteNumber":76,"Velocity":42,"Duration":359281,"SoundDuration":359281,"Delta":19346474},{"NoteNumber":79,"Velocity":42,"Duration":178571,"SoundDuration":178571,"Delta":19705755},{"NoteNumber":36,"Velocity":30,"Duration":716091,"SoundDuration":716091,"Delta":19705755},{"NoteNumber":48,"Velocity":37,"Duration":716091,"SoundDuration":716091,"Delta":19705755},{"NoteNumber":81,"Velocity":39,"Duration":104166,"SoundDuration":104166,"Delta":19884327},{"NoteNumber":83,"Velocity":39,"Duration":104078,"SoundDuration":104078,"Delta":19973612},{"NoteNumber":84,"Velocity":40,"Duration":103638,"SoundDuration":103638,"Delta":20062898},{"NoteNumber":86,"Velocity":40,"Duration":104434,"SoundDuration":104434,"Delta":20151656},{"NoteNumber":88,"Velocity":41,"Duration":105060,"SoundDuration":105060,"Delta":20241120},{"NoteNumber":89,"Velocity":42,"Duration":106960,"SoundDuration":106960,"Delta":20331120},{"NoteNumber":91,"Velocity":49,"Duration":48701,"SoundDuration":48701,"Delta":20421847},{"NoteNumber":64,"Velocity":33,"Duration":730250,"SoundDuration":730250,"Delta":20421847},{"NoteNumber":60,"Velocity":28,"Duration":730250,"SoundDuration":730250,"Delta":20421847},{"NoteNumber":55,"Velocity":28,"Duration":730250,"SoundDuration":730250,"Delta":20421847},{"NoteNumber":91,"Velocity":41,"Duration":104166,"SoundDuration":104166,"Delta":20519249},{"NoteNumber":93,"Velocity":42,"Duration":104166,"SoundDuration":104166,"Delta":20608535},{"NoteNumber":95,"Velocity":42,"Duration":104166,"SoundDuration":104166,"Delta":20697821},{"NoteNumber":96,"Velocity":44,"Duration":104702,"SoundDuration":104702,"Delta":20787107},{"NoteNumber":98,"Velocity":45,"Duration":105970,"SoundDuration":105970,"Delta":20876749},{"NoteNumber":100,"Velocity":48,"Duration":107269,"SoundDuration":107269,"Delta":20967475},{"NoteNumber":101,"Velocity":49,"Duration":108809,"SoundDuration":108809,"Delta":21059313},{"NoteNumber":103,"Velocity":51,"Duration":112179,"SoundDuration":112179,"Delta":21152097},{"NoteNumber":64,"Velocity":31,"Duration":748251,"SoundDuration":748251,"Delta":21152097},{"NoteNumber":60,"Velocity":26,"Duration":748251,"SoundDuration":748251,"Delta":21152097},{"NoteNumber":55,"Velocity":26,"Duration":748251,"SoundDuration":748251,"Delta":21152097},{"NoteNumber":72,"Velocity":42,"Duration":363636,"SoundDuration":363636,"Delta":21536713},{"NoteNumber":74,"Velocity":42,"Duration":178571,"SoundDuration":178571,"Delta":21900349},{"NoteNumber":31,"Velocity":30,"Duration":716091,"SoundDuration":716091,"Delta":21900349},{"NoteNumber":43,"Velocity":37,"Duration":716091,"SoundDuration":716091,"Delta":21900349},{"NoteNumber":76,"Velocity":39,"Duration":104166,"SoundDuration":104166,"Delta":22078921},{"NoteNumber":77,"Velocity":39,"Duration":104078,"SoundDuration":104078,"Delta":22168207},{"NoteNumber":79,"Velocity":40,"Duration":103638,"SoundDuration":103638,"Delta":22257492},{"NoteNumber":81,"Velocity":40,"Duration":104434,"SoundDuration":104434,"Delta":22346250},{"NoteNumber":83,"Velocity":41,"Duration":105060,"SoundDuration":105060,"Delta":22435714},{"NoteNumber":84,"Velocity":42,"Duration":106960,"SoundDuration":106960,"Delta":22525714},{"NoteNumber":86,"Velocity":49,"Duration":48701,"SoundDuration":48701,"Delta":22616441},{"NoteNumber":65,"Velocity":33,"Duration":730250,"SoundDuration":730250,"Delta":22616441},{"NoteNumber":59,"Velocity":28,"Duration":730250,"SoundDuration":730250,"Delta":22616441},{"NoteNumber":55,"Velocity":28,"Duration":730250,"SoundDuration":730250,"Delta":22616441},{"NoteNumber":86,"Velocity":42,"Duration":104166,"SoundDuration":104166,"Delta":22713844},{"NoteNumber":88,"Velocity":44,"Duration":104166,"SoundDuration":104166,"Delta":22803129},{"NoteNumber":89,"Velocity":45,"Duration":104166,"SoundDuration":104166,"Delta":22892415},{"NoteNumber":91,"Velocity":46,"Duration":104702,"SoundDuration":104702,"Delta":22981701},{"NoteNumber":93,"Velocity":48,"Duration":105970,"SoundDuration":105970,"Delta":23071343},{"NoteNumber":95,"Velocity":49,"Duration":107269,"SoundDuration":107269,"Delta":23162070},{"NoteNumber":96,"Velocity":50,"Duration":108409,"SoundDuration":108409,"Delta":23253907},{"NoteNumber":98,"Velocity":51,"Duration":109375,"SoundDuration":109375,"Delta":23346691},{"NoteNumber":65,"Velocity":31,"Duration":736446,"SoundDuration":736446,"Delta":23346691},{"NoteNumber":59,"Velocity":26,"Duration":736446,"SoundDuration":736446,"Delta":23346691},{"NoteNumber":55,"Velocity":26,"Duration":736446,"SoundDuration":736446,"Delta":23346691},{"NoteNumber":76,"Velocity":42,"Duration":361446,"SoundDuration":361446,"Delta":23721691},{"NoteNumber":72,"Velocity":42,"Duration":178571,"SoundDuration":178571,"Delta":24083137},{"NoteNumber":36,"Velocity":30,"Duration":716091,"SoundDuration":716091,"Delta":24083137},{"NoteNumber":48,"Velocity":37,"Duration":716091,"SoundDuration":716091,"Delta":24083137},{"NoteNumber":74,"Velocity":39,"Duration":104166,"SoundDuration":104166,"Delta":24261709},{"NoteNumber":76,"Velocity":39,"Duration":104078,"SoundDuration":104078,"Delta":24350995},{"NoteNumber":77,"Velocity":40,"Duration":103638,"SoundDuration":103638,"Delta":24440280},{"NoteNumber":79,"Velocity":40,"Duration":104434,"SoundDuration":104434,"Delta":24529038},{"NoteNumber":81,"Velocity":41,"Duration":105060,"SoundDuration":105060,"Delta":24618502},{"NoteNumber":83,"Velocity":42,"Duration":106960,"SoundDuration":106960,"Delta":24708502},{"NoteNumber":84,"Velocity":45,"Duration":48701,"SoundDuration":48701,"Delta":24799229},{"NoteNumber":64,"Velocity":33,"Duration":730250,"SoundDuration":730250,"Delta":24799229},{"NoteNumber":60,"Velocity":28,"Duration":730250,"SoundDuration":730250,"Delta":24799229},{"NoteNumber":55,"Velocity":28,"Duration":730250,"SoundDuration":730250,"Delta":24799229},{"NoteNumber":84,"Velocity":39,"Duration":104166,"SoundDuration":104166,"Delta":24896632},{"NoteNumber":86,"Velocity":40,"Duration":104166,"SoundDuration":104166,"Delta":24985917},{"NoteNumber":88,"Velocity":40,"Duration":104166,"SoundDuration":104166,"Delta":25075203},{"NoteNumber":89,"Velocity":41,"Duration":104702,"SoundDuration":104702,"Delta":25164489},{"NoteNumber":91,"Velocity":42,"Duration":105970,"SoundDuration":105970,"Delta":25254131},{"NoteNumber":93,"Velocity":42,"Duration":107269,"SoundDuration":107269,"Delta":25344858},{"NoteNumber":95,"Velocity":44,"Duration":108121,"SoundDuration":108121,"Delta":25436695},{"NoteNumber":96,"Velocity":46,"Duration":107361,"SoundDuration":107361,"Delta":25529479},{"NoteNumber":64,"Velocity":31,"Duration":729544,"SoundDuration":729544,"Delta":25529479},{"NoteNumber":60,"Velocity":26,"Duration":729544,"SoundDuration":729544,"Delta":25529479},{"NoteNumber":55,"Velocity":26,"Duration":729544,"SoundDuration":729544,"Delta":25529479},{"NoteNumber":72,"Velocity":61,"Duration":361446,"SoundDuration":361446,"Delta":25897577},{"NoteNumber":69,"Velocity":60,"Duration":178571,"SoundDuration":178571,"Delta":26259023},{"NoteNumber":36,"Velocity":42,"Duration":716091,"SoundDuration":716091,"Delta":26259023},{"NoteNumber":48,"Velocity":53,"Duration":716091,"SoundDuration":716091,"Delta":26259023},{"NoteNumber":71,"Velocity":56,"Duration":104166,"SoundDuration":104166,"Delta":26437595},{"NoteNumber":72,"Velocity":56,"Duration":104078,"SoundDuration":104078,"Delta":26526881},{"NoteNumber":74,"Velocity":58,"Duration":103638,"SoundDuration":103638,"Delta":26616166},{"NoteNumber":76,"Velocity":58,"Duration":104434,"SoundDuration":104434,"Delta":26704924},{"NoteNumber":77,"Velocity":59,"Duration":105060,"SoundDuration":105060,"Delta":26794388},{"NoteNumber":79,"Velocity":61,"Duration":106960,"SoundDuration":106960,"Delta":26884389},{"NoteNumber":81,"Velocity":64,"Duration":48701,"SoundDuration":48701,"Delta":26975115},{"NoteNumber":65,"Velocity":47,"Duration":730250,"SoundDuration":730250,"Delta":26975115},{"NoteNumber":60,"Velocity":39,"Duration":730250,"SoundDuration":730250,"Delta":26975115},{"NoteNumber":57,"Velocity":39,"Duration":730250,"SoundDuration":730250,"Delta":26975115},{"NoteNumber":81,"Velocity":56,"Duration":104166,"SoundDuration":104166,"Delta":27072518},{"NoteNumber":83,"Velocity":58,"Duration":104166,"SoundDuration":104166,"Delta":27161803},{"NoteNumber":84,"Velocity":58,"Duration":104166,"SoundDuration":104166,"Delta":27251089},{"NoteNumber":86,"Velocity":59,"Duration":104702,"SoundDuration":104702,"Delta":27340375},{"NoteNumber":88,"Velocity":60,"Duration":105970,"SoundDuration":105970,"Delta":27430017},{"NoteNumber":89,"Velocity":61,"Duration":107269,"SoundDuration":107269,"Delta":27520744},{"NoteNumber":91,"Velocity":62,"Duration":107935,"SoundDuration":107935,"Delta":27612581},{"NoteNumber":93,"Velocity":67,"Duration":106060,"SoundDuration":106060,"Delta":27705366},{"NoteNumber":65,"Velocity":45,"Duration":725082,"SoundDuration":725082,"Delta":27705366},{"NoteNumber":60,"Velocity":37,"Duration":725082,"SoundDuration":725082,"Delta":27705366},{"NoteNumber":57,"Velocity":37,"Duration":725082,"SoundDuration":725082,"Delta":27705366},{"NoteNumber":72,"Velocity":58,"Duration":361446,"SoundDuration":361446,"Delta":28069002},{"NoteNumber":67,"Velocity":55,"Duration":178571,"SoundDuration":178571,"Delta":28430448},{"NoteNumber":36,"Velocity":37,"Duration":716091,"SoundDuration":716091,"Delta":28430448},{"NoteNumber":48,"Velocity":47,"Duration":716091,"SoundDuration":716091,"Delta":28430448},{"NoteNumber":69,"Velocity":49,"Duration":104166,"SoundDuration":104166,"Delta":28609020},{"NoteNumber":71,"Velocity":49,"Duration":104078,"SoundDuration":104078,"Delta":28698305},{"NoteNumber":72,"Velocity":50,"Duration":103638,"SoundDuration":103638,"Delta":28787591},{"NoteNumber":74,"Velocity":50,"Duration":104434,"SoundDuration":104434,"Delta":28876348},{"NoteNumber":76,"Velocity":51,"Duration":105060,"SoundDuration":105060,"Delta":28965812},{"NoteNumber":77,"Velocity":55,"Duration":106960,"SoundDuration":106960,"Delta":29055813},{"NoteNumber":79,"Velocity":58,"Duration":48701,"SoundDuration":48701,"Delta":29146540},{"NoteNumber":64,"Velocity":42,"Duration":730250,"SoundDuration":730250,"Delta":29146540},{"NoteNumber":60,"Velocity":35,"Duration":730250,"SoundDuration":730250,"Delta":29146540},{"NoteNumber":55,"Velocity":35,"Duration":730250,"SoundDuration":730250,"Delta":29146540},{"NoteNumber":79,"Velocity":49,"Duration":104166,"SoundDuration":104166,"Delta":29243942},{"NoteNumber":81,"Velocity":50,"Duration":104166,"SoundDuration":104166,"Delta":29333228},{"NoteNumber":83,"Velocity":50,"Duration":104166,"SoundDuration":104166,"Delta":29422514},{"NoteNumber":84,"Velocity":51,"Duration":104702,"SoundDuration":104702,"Delta":29511800},{"NoteNumber":86,"Velocity":55,"Duration":105970,"SoundDuration":105970,"Delta":29601442},{"NoteNumber":88,"Velocity":55,"Duration":107269,"SoundDuration":107269,"Delta":29692168},{"NoteNumber":89,"Velocity":56,"Duration":108409,"SoundDuration":108409,"Delta":29784006},{"NoteNumber":91,"Velocity":59,"Duration":109375,"SoundDuration":109375,"Delta":29876790},{"NoteNumber":64,"Velocity":39,"Duration":738636,"SoundDuration":738636,"Delta":29876790},{"NoteNumber":60,"Velocity":33,"Duration":738636,"SoundDuration":738636,"Delta":29876790},{"NoteNumber":55,"Velocity":33,"Duration":738636,"SoundDuration":738636,"Delta":29876790},{"NoteNumber":72,"Velocity":50,"Duration":363636,"SoundDuration":363636,"Delta":30251790},{"NoteNumber":74,"Velocity":50,"Duration":178571,"SoundDuration":178571,"Delta":30615427},{"NoteNumber":31,"Velocity":36,"Duration":716091,"SoundDuration":716091,"Delta":30615427},{"NoteNumber":43,"Velocity":44,"Duration":716091,"SoundDuration":716091,"Delta":30615427},{"NoteNumber":76,"Velocity":46,"Duration":104166,"SoundDuration":104166,"Delta":30793998},{"NoteNumber":77,"Velocity":46,"Duration":104078,"SoundDuration":104078,"Delta":30883284},{"NoteNumber":79,"Velocity":47,"Duration":103638,"SoundDuration":103638,"Delta":30972570},{"NoteNumber":81,"Velocity":47,"Duration":104434,"SoundDuration":104434,"Delta":31061327},{"NoteNumber":83,"Velocity":49,"Duration":105060,"SoundDuration":105060,"Delta":31150791},{"NoteNumber":84,"Velocity":51,"Duration":106960,"SoundDuration":106960,"Delta":31240792},{"NoteNumber":86,"Velocity":59,"Duration":48701,"SoundDuration":48701,"Delta":31331518},{"NoteNumber":65,"Velocity":39,"Duration":730250,"SoundDuration":730250,"Delta":31331518},{"NoteNumber":59,"Velocity":34,"Duration":730250,"SoundDuration":730250,"Delta":31331518},{"NoteNumber":55,"Velocity":34,"Duration":730250,"SoundDuration":730250,"Delta":31331518},{"NoteNumber":86,"Velocity":51,"Duration":104166,"SoundDuration":104166,"Delta":31428921},{"NoteNumber":88,"Velocity":53,"Duration":104166,"SoundDuration":104166,"Delta":31518207},{"NoteNumber":89,"Velocity":55,"Duration":104166,"SoundDuration":104166,"Delta":31607492},{"NoteNumber":91,"Velocity":56,"Duration":104702,"SoundDuration":104702,"Delta":31696778},{"NoteNumber":93,"Velocity":58,"Duration":105970,"SoundDuration":105970,"Delta":31786420},{"NoteNumber":95,"Velocity":59,"Duration":107269,"SoundDuration":107269,"Delta":31877147},{"NoteNumber":96,"Velocity":59,"Duration":108409,"SoundDuration":108409,"Delta":31968984},{"NoteNumber":98,"Velocity":60,"Duration":109375,"SoundDuration":109375,"Delta":32061769},{"NoteNumber":65,"Velocity":37,"Duration":736446,"SoundDuration":736446,"Delta":32061769},{"NoteNumber":59,"Velocity":29,"Duration":736446,"SoundDuration":736446,"Delta":32061769},{"NoteNumber":55,"Velocity":29,"Duration":736446,"SoundDuration":736446,"Delta":32061769},{"NoteNumber":76,"Velocity":49,"Duration":361446,"SoundDuration":361446,"Delta":32436769},{"NoteNumber":72,"Velocity":49,"Duration":178571,"SoundDuration":178571,"Delta":32798215},{"NoteNumber":36,"Velocity":35,"Duration":716091,"SoundDuration":716091,"Delta":32798215},{"NoteNumber":48,"Velocity":42,"Duration":716091,"SoundDuration":716091,"Delta":32798215},{"NoteNumber":74,"Velocity":45,"Duration":104166,"SoundDuration":104166,"Delta":32976786},{"NoteNumber":76,"Velocity":45,"Duration":104078,"SoundDuration":104078,"Delta":33066072},{"NoteNumber":77,"Velocity":46,"Duration":103638,"SoundDuration":103638,"Delta":33155358},{"NoteNumber":79,"Velocity":46,"Duration":104434,"SoundDuration":104434,"Delta":33244115},{"NoteNumber":81,"Velocity":47,"Duration":105060,"SoundDuration":105060,"Delta":33333579},{"NoteNumber":83,"Velocity":49,"Duration":106960,"SoundDuration":106960,"Delta":33423580},{"NoteNumber":84,"Velocity":51,"Duration":48701,"SoundDuration":48701,"Delta":33514306},{"NoteNumber":64,"Velocity":38,"Duration":736131,"SoundDuration":736131,"Delta":33514306},{"NoteNumber":60,"Velocity":33,"Duration":736131,"SoundDuration":736131,"Delta":33514306},{"NoteNumber":55,"Velocity":33,"Duration":736131,"SoundDuration":736131,"Delta":33514306},{"NoteNumber":84,"Velocity":45,"Duration":104166,"SoundDuration":104166,"Delta":33611709},{"NoteNumber":86,"Velocity":46,"Duration":104166,"SoundDuration":104166,"Delta":33700995},{"NoteNumber":88,"Velocity":46,"Duration":104345,"SoundDuration":104345,"Delta":33790280},{"NoteNumber":89,"Velocity":47,"Duration":105787,"SoundDuration":105787,"Delta":33879566},{"NoteNumber":91,"Velocity":49,"Duration":107554,"SoundDuration":107554,"Delta":33970110},{"NoteNumber":93,"Velocity":49,"Duration":109085,"SoundDuration":109085,"Delta":34062137},{"NoteNumber":95,"Velocity":50,"Duration":110964,"SoundDuration":110964,"Delta":34155499},{"NoteNumber":96,"Velocity":53,"Duration":112179,"SoundDuration":112179,"Delta":34250438},{"NoteNumber":64,"Velocity":36,"Duration":756563,"SoundDuration":756563,"Delta":34250438},{"NoteNumber":60,"Velocity":29,"Duration":756563,"SoundDuration":756563,"Delta":34250438},{"NoteNumber":55,"Velocity":29,"Duration":756563,"SoundDuration":756563,"Delta":34250438},{"NoteNumber":74,"Velocity":58,"Duration":89820,"SoundDuration":89820,"Delta":34917182},{"NoteNumber":86,"Velocity":69,"Duration":184049,"SoundDuration":184049,"Delta":35007002},{"NoteNumber":43,"Velocity":50,"Duration":721569,"SoundDuration":721569,"Delta":35007002},{"NoteNumber":84,"Velocity":64,"Duration":104166,"SoundDuration":104166,"Delta":35191051},{"NoteNumber":83,"Velocity":64,"Duration":104078,"SoundDuration":104078,"Delta":35280337},{"NoteNumber":81,"Velocity":64,"Duration":103638,"SoundDuration":103638,"Delta":35369623},{"NoteNumber":79,"Velocity":64,"Duration":104434,"SoundDuration":104434,"Delta":35458380},{"NoteNumber":78,"Velocity":64,"Duration":105060,"SoundDuration":105060,"Delta":35547844},{"NoteNumber":76,"Velocity":64,"Duration":106960,"SoundDuration":106960,"Delta":35637845},{"NoteNumber":74,"Velocity":69,"Duration":48701,"SoundDuration":48701,"Delta":35728571},{"NoteNumber":59,"Velocity":46,"Duration":730250,"SoundDuration":730250,"Delta":35728571},{"NoteNumber":55,"Velocity":37,"Duration":730250,"SoundDuration":730250,"Delta":35728571},{"NoteNumber":50,"Velocity":37,"Duration":730250,"SoundDuration":730250,"Delta":35728571},{"NoteNumber":74,"Velocity":61,"Duration":104166,"SoundDuration":104166,"Delta":35825974},{"NoteNumber":72,"Velocity":61,"Duration":104166,"SoundDuration":104166,"Delta":35915260},{"NoteNumber":71,"Velocity":60,"Duration":104166,"SoundDuration":104166,"Delta":36004545},{"NoteNumber":69,"Velocity":60,"Duration":104702,"SoundDuration":104702,"Delta":36093831},{"NoteNumber":67,"Velocity":59,"Duration":105970,"SoundDuration":105970,"Delta":36183473},{"NoteNumber":66,"Velocity":59,"Duration":107269,"SoundDuration":107269,"Delta":36274200},{"NoteNumber":64,"Velocity":59,"Duration":108409,"SoundDuration":108409,"Delta":36366037},{"NoteNumber":62,"Velocity":59,"Duration":109375,"SoundDuration":109375,"Delta":36458822},{"NoteNumber":59,"Velocity":44,"Duration":738636,"SoundDuration":738636,"Delta":36458822},{"NoteNumber":55,"Velocity":35,"Duration":738636,"SoundDuration":738636,"Delta":36458822},{"NoteNumber":50,"Velocity":35,"Duration":738636,"SoundDuration":738636,"Delta":36458822},{"NoteNumber":83,"Velocity":61,"Duration":363636,"SoundDuration":363636,"Delta":36833822},{"NoteNumber":91,"Velocity":69,"Duration":184049,"SoundDuration":184049,"Delta":37197458},{"NoteNumber":43,"Velocity":50,"Duration":722638,"SoundDuration":722638,"Delta":37197458},{"NoteNumber":90,"Velocity":64,"Duration":104790,"SoundDuration":104790,"Delta":37381507},{"NoteNumber":88,"Velocity":64,"Duration":104613,"SoundDuration":104613,"Delta":37471328},{"NoteNumber":86,"Velocity":64,"Duration":103638,"SoundDuration":103638,"Delta":37561148},{"NoteNumber":84,"Velocity":64,"Duration":104434,"SoundDuration":104434,"Delta":37649905},{"NoteNumber":83,"Velocity":64,"Duration":105060,"SoundDuration":105060,"Delta":37739369},{"NoteNumber":81,"Velocity":64,"Duration":106960,"SoundDuration":106960,"Delta":37829370},{"NoteNumber":79,"Velocity":69,"Duration":48701,"SoundDuration":48701,"Delta":37920097},{"NoteNumber":59,"Velocity":46,"Duration":730250,"SoundDuration":730250,"Delta":37920097},{"NoteNumber":55,"Velocity":37,"Duration":730250,"SoundDuration":730250,"Delta":37920097},{"NoteNumber":50,"Velocity":37,"Duration":730250,"SoundDuration":730250,"Delta":37920097},{"NoteNumber":79,"Velocity":61,"Duration":104166,"SoundDuration":104166,"Delta":38017499},{"NoteNumber":78,"Velocity":61,"Duration":104166,"SoundDuration":104166,"Delta":38106785},{"NoteNumber":76,"Velocity":60,"Duration":104166,"SoundDuration":104166,"Delta":38196071},{"NoteNumber":74,"Velocity":60,"Duration":104702,"SoundDuration":104702,"Delta":38285357},{"NoteNumber":72,"Velocity":59,"Duration":105970,"SoundDuration":105970,"Delta":38374999},{"NoteNumber":71,"Velocity":59,"Duration":107269,"SoundDuration":107269,"Delta":38465725},{"NoteNumber":69,"Velocity":59,"Duration":108409,"SoundDuration":108409,"Delta":38557563},{"NoteNumber":67,"Velocity":59,"Duration":109375,"SoundDuration":109375,"Delta":38650347},{"NoteNumber":59,"Velocity":44,"Duration":738636,"SoundDuration":738636,"Delta":38650347},{"NoteNumber":55,"Velocity":35,"Duration":738636,"SoundDuration":738636,"Delta":38650347},{"NoteNumber":50,"Velocity":35,"Duration":738636,"SoundDuration":738636,"Delta":38650347},{"NoteNumber":83,"Velocity":69,"Duration":272727,"SoundDuration":272727,"Delta":39025347},{"NoteNumber":74,"Velocity":67,"Duration":90909,"SoundDuration":90909,"Delta":39298074},{"NoteNumber":86,"Velocity":79,"Duration":182926,"SoundDuration":182926,"Delta":39388984},{"NoteNumber":38,"Velocity":47,"Duration":720446,"SoundDuration":720446,"Delta":39388984},{"NoteNumber":50,"Velocity":50,"Duration":720446,"SoundDuration":720446,"Delta":39388984},{"NoteNumber":84,"Velocity":69,"Duration":104166,"SoundDuration":104166,"Delta":39571910},{"NoteNumber":83,"Velocity":69,"Duration":104078,"SoundDuration":104078,"Delta":39661196},{"NoteNumber":81,"Velocity":68,"Duration":103638,"SoundDuration":103638,"Delta":39750482},{"NoteNumber":79,"Velocity":68,"Duration":104434,"SoundDuration":104434,"Delta":39839239},{"NoteNumber":78,"Velocity":68,"Duration":105060,"SoundDuration":105060,"Delta":39928703},{"NoteNumber":76,"Velocity":64,"Duration":106960,"SoundDuration":106960,"Delta":40018704},{"NoteNumber":74,"Velocity":69,"Duration":48701,"SoundDuration":48701,"Delta":40109431},{"NoteNumber":60,"Velocity":46,"Duration":730250,"SoundDuration":730250,"Delta":40109431},{"NoteNumber":54,"Velocity":37,"Duration":730250,"SoundDuration":730250,"Delta":40109431},{"NoteNumber":50,"Velocity":37,"Duration":730250,"SoundDuration":730250,"Delta":40109431},{"NoteNumber":74,"Velocity":61,"Duration":104166,"SoundDuration":104166,"Delta":40206833},{"NoteNumber":72,"Velocity":61,"Duration":104166,"SoundDuration":104166,"Delta":40296119},{"NoteNumber":71,"Velocity":60,"Duration":104166,"SoundDuration":104166,"Delta":40385405},{"NoteNumber":69,"Velocity":60,"Duration":104702,"SoundDuration":104702,"Delta":40474690},{"NoteNumber":67,"Velocity":59,"Duration":105970,"SoundDuration":105970,"Delta":40564333},{"NoteNumber":66,"Velocity":59,"Duration":107269,"SoundDuration":107269,"Delta":40655059},{"NoteNumber":64,"Velocity":59,"Duration":108409,"SoundDuration":108409,"Delta":40746897},{"NoteNumber":62,"Velocity":59,"Duration":109375,"SoundDuration":109375,"Delta":40839681},{"NoteNumber":60,"Velocity":44,"Duration":738636,"SoundDuration":738636,"Delta":40839681},{"NoteNumber":54,"Velocity":35,"Duration":738636,"SoundDuration":738636,"Delta":40839681},{"NoteNumber":50,"Velocity":35,"Duration":738636,"SoundDuration":738636,"Delta":40839681},{"NoteNumber":81,"Velocity":67,"Duration":363636,"SoundDuration":363636,"Delta":41214681},{"NoteNumber":83,"Velocity":74,"Duration":186335,"SoundDuration":186335,"Delta":41578317},{"NoteNumber":43,"Velocity":53,"Duration":753288,"SoundDuration":753288,"Delta":41578317},{"NoteNumber":84,"Velocity":64,"Duration":108695,"SoundDuration":108695,"Delta":41764653},{"NoteNumber":86,"Velocity":64,"Duration":108695,"SoundDuration":108695,"Delta":41857821},{"NoteNumber":88,"Velocity":62,"Duration":109279,"SoundDuration":109279,"Delta":41950988},{"NoteNumber":90,"Velocity":62,"Duration":110462,"SoundDuration":110462,"Delta":42044544},{"NoteNumber":91,"Velocity":61,"Duration":111771,"SoundDuration":111771,"Delta":42139083},{"NoteNumber":93,"Velocity":58,"Duration":114018,"SoundDuration":114018,"Delta":42234829},{"NoteNumber":95,"Velocity":69,"Duration":51724,"SoundDuration":51724,"Delta":42331605},{"NoteNumber":59,"Velocity":44,"Duration":777973,"SoundDuration":777973,"Delta":42331605},{"NoteNumber":55,"Velocity":36,"Duration":777973,"SoundDuration":777973,"Delta":42331605},{"NoteNumber":50,"Velocity":36,"Duration":777973,"SoundDuration":777973,"Delta":42331605},{"NoteNumber":79,"Velocity":61,"Duration":110062,"SoundDuration":110062,"Delta":42435054},{"NoteNumber":81,"Velocity":61,"Duration":110062,"SoundDuration":110062,"Delta":42529393},{"NoteNumber":83,"Velocity":60,"Duration":110162,"SoundDuration":110162,"Delta":42623733},{"NoteNumber":84,"Velocity":58,"Duration":111673,"SoundDuration":111673,"Delta":42718073},{"NoteNumber":86,"Velocity":56,"Duration":113852,"SoundDuration":113852,"Delta":42813617},{"NoteNumber":88,"Velocity":56,"Duration":116119,"SoundDuration":116119,"Delta":42911022},{"NoteNumber":90,"Velocity":55,"Duration":116457,"SoundDuration":116457,"Delta":43010363},{"NoteNumber":91,"Velocity":66,"Duration":119895,"SoundDuration":119895,"Delta":43109579},{"NoteNumber":59,"Velocity":36,"Duration":824713,"SoundDuration":824713,"Delta":43109579},{"NoteNumber":55,"Velocity":29,"Duration":824713,"SoundDuration":824713,"Delta":43109579},{"NoteNumber":50,"Velocity":29,"Duration":824713,"SoundDuration":824713,"Delta":43109579},{"NoteNumber":74,"Velocity":60,"Duration":115131,"SoundDuration":115131,"Delta":43213027},{"NoteNumber":76,"Velocity":58,"Duration":115131,"SoundDuration":115131,"Delta":43311711},{"NoteNumber":78,"Velocity":56,"Duration":113339,"SoundDuration":113339,"Delta":43410396},{"NoteNumber":79,"Velocity":55,"Duration":116699,"SoundDuration":116699,"Delta":43507396},{"NoteNumber":81,"Velocity":55,"Duration":122165,"SoundDuration":122165,"Delta":43606972},{"NoteNumber":83,"Velocity":53,"Duration":128443,"SoundDuration":128443,"Delta":43711152},{"NoteNumber":84,"Velocity":52,"Duration":129559,"SoundDuration":129559,"Delta":43820656},{"NoteNumber":86,"Velocity":57,"Duration":191082,"SoundDuration":191082,"Delta":43934293},{"NoteNumber":43,"Velocity":34,"Duration":727546,"SoundDuration":727546,"Delta":43934293},{"NoteNumber":84,"Velocity":44,"Duration":103550,"SoundDuration":103550,"Delta":44125375},{"NoteNumber":83,"Velocity":44,"Duration":103550,"SoundDuration":103550,"Delta":44214133},{"NoteNumber":81,"Velocity":44,"Duration":103638,"SoundDuration":103638,"Delta":44302890},{"NoteNumber":79,"Velocity":44,"Duration":104434,"SoundDuration":104434,"Delta":44391648},{"NoteNumber":78,"Velocity":44,"Duration":105060,"SoundDuration":105060,"Delta":44481112},{"NoteNumber":76,"Velocity":44,"Duration":106960,"SoundDuration":106960,"Delta":44571112},{"NoteNumber":74,"Velocity":46,"Duration":48701,"SoundDuration":48701,"Delta":44661839},{"NoteNumber":59,"Velocity":30,"Duration":730250,"SoundDuration":730250,"Delta":44661839},{"NoteNumber":55,"Velocity":25,"Duration":730250,"SoundDuration":730250,"Delta":44661839},{"NoteNumber":50,"Velocity":25,"Duration":730250,"SoundDuration":730250,"Delta":44661839},{"NoteNumber":74,"Velocity":41,"Duration":104166,"SoundDuration":104166,"Delta":44759242},{"NoteNumber":72,"Velocity":41,"Duration":104166,"SoundDuration":104166,"Delta":44848527},{"NoteNumber":71,"Velocity":41,"Duration":104166,"SoundDuration":104166,"Delta":44937813},{"NoteNumber":69,"Velocity":41,"Duration":104702,"SoundDuration":104702,"Delta":45027099},{"NoteNumber":67,"Velocity":40,"Duration":105970,"SoundDuration":105970,"Delta":45116741},{"NoteNumber":66,"Velocity":40,"Duration":107269,"SoundDuration":107269,"Delta":45207468},{"NoteNumber":64,"Velocity":39,"Duration":108409,"SoundDuration":108409,"Delta":45299305},{"NoteNumber":62,"Velocity":39,"Duration":109375,"SoundDuration":109375,"Delta":45392089},{"NoteNumber":59,"Velocity":29,"Duration":738636,"SoundDuration":738636,"Delta":45392089},{"NoteNumber":55,"Velocity":24,"Duration":738636,"SoundDuration":738636,"Delta":45392089},{"NoteNumber":50,"Velocity":24,"Duration":738636,"SoundDuration":738636,"Delta":45392089},{"NoteNumber":83,"Velocity":41,"Duration":363636,"SoundDuration":363636,"Delta":45767089},{"NoteNumber":95,"Velocity":53,"Duration":182926,"SoundDuration":182926,"Delta":46130726},{"NoteNumber":43,"Velocity":34,"Duration":720446,"SoundDuration":720446,"Delta":46130726},{"NoteNumber":93,"Velocity":49,"Duration":104275,"SoundDuration":104275,"Delta":46309079},{"NoteNumber":91,"Velocity":47,"Duration":104078,"SoundDuration":104078,"Delta":46402938},{"NoteNumber":90,"Velocity":46,"Duration":103638,"SoundDuration":103638,"Delta":46492224},{"NoteNumber":88,"Velocity":44,"Duration":104434,"SoundDuration":104434,"Delta":46580981},{"NoteNumber":86,"Velocity":44,"Duration":105060,"SoundDuration":105060,"Delta":46670445},{"NoteNumber":84,"Velocity":44,"Duration":106960,"SoundDuration":106960,"Delta":46760446},{"NoteNumber":83,"Velocity":46,"Duration":48701,"SoundDuration":48701,"Delta":46851173},{"NoteNumber":59,"Velocity":30,"Duration":730250,"SoundDuration":730250,"Delta":46851173},{"NoteNumber":55,"Velocity":25,"Duration":730250,"SoundDuration":730250,"Delta":46851173},{"NoteNumber":50,"Velocity":25,"Duration":730250,"SoundDuration":730250,"Delta":46851173},{"NoteNumber":83,"Velocity":41,"Duration":104166,"SoundDuration":104166,"Delta":46948575},{"NoteNumber":81,"Velocity":41,"Duration":104166,"SoundDuration":104166,"Delta":47037861},{"NoteNumber":79,"Velocity":41,"Duration":104166,"SoundDuration":104166,"Delta":47127147},{"NoteNumber":78,"Velocity":41,"Duration":104702,"SoundDuration":104702,"Delta":47216433},{"NoteNumber":76,"Velocity":40,"Duration":105970,"SoundDuration":105970,"Delta":47306075},{"NoteNumber":74,"Velocity":40,"Duration":107269,"SoundDuration":107269,"Delta":47396801},{"NoteNumber":72,"Velocity":39,"Duration":108409,"SoundDuration":108409,"Delta":47488639},{"NoteNumber":71,"Velocity":39,"Duration":109375,"SoundDuration":109375,"Delta":47581423},{"NoteNumber":59,"Velocity":29,"Duration":738636,"SoundDuration":738636,"Delta":47581423},{"NoteNumber":55,"Velocity":24,"Duration":738636,"SoundDuration":738636,"Delta":47581423},{"NoteNumber":50,"Velocity":24,"Duration":738636,"SoundDuration":738636,"Delta":47581423},{"NoteNumber":83,"Velocity":64,"Duration":272727,"SoundDuration":272727,"Delta":47956423},{"NoteNumber":74,"Velocity":60,"Duration":90909,"SoundDuration":90909,"Delta":48229151},{"NoteNumber":86,"Velocity":72,"Duration":185185,"SoundDuration":185185,"Delta":48320060},{"NoteNumber":38,"Velocity":44,"Duration":722705,"SoundDuration":722705,"Delta":48320060},{"NoteNumber":50,"Velocity":47,"Duration":722705,"SoundDuration":722705,"Delta":48320060},{"NoteNumber":84,"Velocity":61,"Duration":104166,"SoundDuration":104166,"Delta":48505245},{"NoteNumber":83,"Velocity":61,"Duration":104078,"SoundDuration":104078,"Delta":48594531},{"NoteNumber":81,"Velocity":60,"Duration":103638,"SoundDuration":103638,"Delta":48683816},{"NoteNumber":79,"Velocity":60,"Duration":104434,"SoundDuration":104434,"Delta":48772574},{"NoteNumber":78,"Velocity":60,"Duration":105060,"SoundDuration":105060,"Delta":48862038},{"NoteNumber":76,"Velocity":58,"Duration":106960,"SoundDuration":106960,"Delta":48952038},{"NoteNumber":74,"Velocity":62,"Duration":48701,"SoundDuration":48701,"Delta":49042765},{"NoteNumber":60,"Velocity":39,"Duration":730250,"SoundDuration":730250,"Delta":49042765},{"NoteNumber":54,"Velocity":33,"Duration":730250,"SoundDuration":730250,"Delta":49042765},{"NoteNumber":50,"Velocity":33,"Duration":730250,"SoundDuration":730250,"Delta":49042765},{"NoteNumber":74,"Velocity":55,"Duration":104166,"SoundDuration":104166,"Delta":49140168},{"NoteNumber":72,"Velocity":55,"Duration":104166,"SoundDuration":104166,"Delta":49229453},{"NoteNumber":71,"Velocity":55,"Duration":104166,"SoundDuration":104166,"Delta":49318739},{"NoteNumber":69,"Velocity":55,"Duration":104702,"SoundDuration":104702,"Delta":49408025},{"NoteNumber":67,"Velocity":53,"Duration":105970,"SoundDuration":105970,"Delta":49497667},{"NoteNumber":66,"Velocity":53,"Duration":107269,"SoundDuration":107269,"Delta":49588394},{"NoteNumber":64,"Velocity":51,"Duration":109124,"SoundDuration":109124,"Delta":49680231},{"NoteNumber":62,"Velocity":51,"Duration":114379,"SoundDuration":114379,"Delta":49773015},{"NoteNumber":60,"Velocity":38,"Duration":810524,"SoundDuration":810524,"Delta":49773015},{"NoteNumber":54,"Velocity":29,"Duration":810524,"SoundDuration":810524,"Delta":49773015},{"NoteNumber":50,"Velocity":29,"Duration":810524,"SoundDuration":810524,"Delta":49773015},{"NoteNumber":81,"Velocity":66,"Duration":311224,"SoundDuration":311224,"Delta":50165172},{"NoteNumber":83,"Velocity":59,"Duration":107142,"SoundDuration":107142,"Delta":50476397},{"NoteNumber":79,"Velocity":69,"Duration":102739,"SoundDuration":102739,"Delta":50583540},{"NoteNumber":59,"Velocity":58,"Duration":102739,"SoundDuration":102739,"Delta":50583540},{"NoteNumber":55,"Velocity":58,"Duration":102739,"SoundDuration":102739,"Delta":50583540},{"NoteNumber":55,"Velocity":62,"Duration":116666,"SoundDuration":116666,"Delta":50786280},{"NoteNumber":43,"Velocity":53,"Duration":116666,"SoundDuration":116666,"Delta":50786280},{"NoteNumber":57,"Velocity":64,"Duration":115053,"SoundDuration":115053,"Delta":50886280},{"NoteNumber":45,"Velocity":55,"Duration":115053,"SoundDuration":115053,"Delta":50886280},{"NoteNumber":59,"Velocity":66,"Duration":113533,"SoundDuration":113533,"Delta":50985204},{"NoteNumber":47,"Velocity":53,"Duration":113533,"SoundDuration":113533,"Delta":50985204},{"NoteNumber":60,"Velocity":66,"Duration":115025,"SoundDuration":115025,"Delta":51082398},{"NoteNumber":48,"Velocity":56,"Duration":115025,"SoundDuration":115025,"Delta":51082398},{"NoteNumber":62,"Velocity":68,"Duration":116557,"SoundDuration":116557,"Delta":51180867},{"NoteNumber":50,"Velocity":56,"Duration":116557,"SoundDuration":116557,"Delta":51180867},{"NoteNumber":64,"Velocity":68,"Duration":117924,"SoundDuration":117924,"Delta":51280646},{"NoteNumber":52,"Velocity":56,"Duration":117924,"SoundDuration":117924,"Delta":51280646},{"NoteNumber":65,"Velocity":78,"Duration":54347,"SoundDuration":54347,"Delta":51380455},{"NoteNumber":53,"Velocity":66,"Duration":54347,"SoundDuration":54347,"Delta":51380455},{"NoteNumber":67,"Velocity":62,"Duration":114379,"SoundDuration":114379,"Delta":51587189},{"NoteNumber":55,"Velocity":53,"Duration":114379,"SoundDuration":114379,"Delta":51587189},{"NoteNumber":69,"Velocity":63,"Duration":112628,"SoundDuration":112628,"Delta":51685229},{"NoteNumber":57,"Velocity":53,"Duration":112628,"SoundDuration":112628,"Delta":51685229},{"NoteNumber":71,"Velocity":64,"Duration":111673,"SoundDuration":111673,"Delta":51782035},{"NoteNumber":59,"Velocity":55,"Duration":111673,"SoundDuration":111673,"Delta":51782035},{"NoteNumber":72,"Velocity":64,"Duration":113852,"SoundDuration":113852,"Delta":51877579},{"NoteNumber":60,"Velocity":55,"Duration":113852,"SoundDuration":113852,"Delta":51877579},{"NoteNumber":74,"Velocity":66,"Duration":116119,"SoundDuration":116119,"Delta":51974984},{"NoteNumber":62,"Velocity":56,"Duration":116119,"SoundDuration":116119,"Delta":51974984},{"NoteNumber":76,"Velocity":67,"Duration":117872,"SoundDuration":117872,"Delta":52074325},{"NoteNumber":64,"Velocity":59,"Duration":117872,"SoundDuration":117872,"Delta":52074325},{"NoteNumber":77,"Velocity":79,"Duration":55970,"SoundDuration":55970,"Delta":52173541},{"NoteNumber":65,"Velocity":67,"Duration":55970,"SoundDuration":55970,"Delta":52173541},{"NoteNumber":67,"Velocity":64,"Duration":118243,"SoundDuration":118243,"Delta":52386833},{"NoteNumber":69,"Velocity":64,"Duration":115378,"SoundDuration":115378,"Delta":52488184},{"NoteNumber":71,"Velocity":66,"Duration":116456,"SoundDuration":116456,"Delta":52587115},{"NoteNumber":72,"Velocity":68,"Duration":119405,"SoundDuration":119405,"Delta":52686679},{"NoteNumber":74,"Velocity":72,"Duration":122628,"SoundDuration":122628,"Delta":52788723},{"NoteNumber":75,"Velocity":78,"Duration":123326,"SoundDuration":123326,"Delta":52893622},{"NoteNumber":76,"Velocity":88,"Duration":191082,"SoundDuration":191082,"Delta":53001025},{"NoteNumber":36,"Velocity":63,"Duration":727546,"SoundDuration":727546,"Delta":53001025},{"NoteNumber":48,"Velocity":78,"Duration":727546,"SoundDuration":727546,"Delta":53001025},{"NoteNumber":77,"Velocity":68,"Duration":103550,"SoundDuration":103550,"Delta":53192108},{"NoteNumber":79,"Velocity":68,"Duration":103550,"SoundDuration":103550,"Delta":53280865},{"NoteNumber":81,"Velocity":70,"Duration":103638,"SoundDuration":103638,"Delta":53369623},{"NoteNumber":83,"Velocity":70,"Duration":104434,"SoundDuration":104434,"Delta":53458380},{"NoteNumber":84,"Velocity":71,"Duration":105060,"SoundDuration":105060,"Delta":53547844},{"NoteNumber":86,"Velocity":73,"Duration":106960,"SoundDuration":106960,"Delta":53637845},{"NoteNumber":88,"Velocity":83,"Duration":48701,"SoundDuration":48701,"Delta":53728572},{"NoteNumber":64,"Velocity":66,"Duration":717073,"SoundDuration":717073,"Delta":53728572},{"NoteNumber":60,"Velocity":55,"Duration":717073,"SoundDuration":717073,"Delta":53728572},{"NoteNumber":55,"Velocity":55,"Duration":717073,"SoundDuration":717073,"Delta":53728572},{"NoteNumber":88,"Velocity":73,"Duration":104166,"SoundDuration":104166,"Delta":53825974},{"NoteNumber":89,"Velocity":73,"Duration":104166,"SoundDuration":104166,"Delta":53915260},{"NoteNumber":91,"Velocity":74,"Duration":104255,"SoundDuration":104255,"Delta":54004546},{"NoteNumber":93,"Velocity":77,"Duration":104435,"SoundDuration":104435,"Delta":54093831},{"NoteNumber":95,"Velocity":78,"Duration":103203,"SoundDuration":103203,"Delta":54183474},{"NoteNumber":96,"Velocity":80,"Duration":101830,"SoundDuration":101830,"Delta":54272057},{"NoteNumber":98,"Velocity":81,"Duration":100914,"SoundDuration":100914,"Delta":54359436},{"NoteNumber":100,"Velocity":86,"Duration":102941,"SoundDuration":102941,"Delta":54445645},{"NoteNumber":64,"Velocity":63,"Duration":714387,"SoundDuration":714387,"Delta":54445645},{"NoteNumber":60,"Velocity":51,"Duration":714387,"SoundDuration":714387,"Delta":54445645},{"NoteNumber":55,"Velocity":51,"Duration":714387,"SoundDuration":714387,"Delta":54445645},{"NoteNumber":76,"Velocity":73,"Duration":361446,"SoundDuration":361446,"Delta":54798586},{"NoteNumber":79,"Velocity":73,"Duration":178571,"SoundDuration":178571,"Delta":55160032},{"NoteNumber":36,"Velocity":58,"Duration":716091,"SoundDuration":716091,"Delta":55160032},{"NoteNumber":48,"Velocity":71,"Duration":716091,"SoundDuration":716091,"Delta":55160032},{"NoteNumber":81,"Velocity":68,"Duration":104166,"SoundDuration":104166,"Delta":55338603},{"NoteNumber":83,"Velocity":68,"Duration":104078,"SoundDuration":104078,"Delta":55427889},{"NoteNumber":84,"Velocity":70,"Duration":103638,"SoundDuration":103638,"Delta":55517175},{"NoteNumber":86,"Velocity":70,"Duration":104434,"SoundDuration":104434,"Delta":55605932},{"NoteNumber":88,"Velocity":71,"Duration":105060,"SoundDuration":105060,"Delta":55695396},{"NoteNumber":89,"Velocity":73,"Duration":106960,"SoundDuration":106960,"Delta":55785397},{"NoteNumber":91,"Velocity":83,"Duration":48701,"SoundDuration":48701,"Delta":55876124},{"NoteNumber":64,"Velocity":66,"Duration":720125,"SoundDuration":720125,"Delta":55876124},{"NoteNumber":60,"Velocity":55,"Duration":720125,"SoundDuration":720125,"Delta":55876124},{"NoteNumber":55,"Velocity":55,"Duration":720125,"SoundDuration":720125,"Delta":55876124},{"NoteNumber":91,"Velocity":71,"Duration":104166,"SoundDuration":104166,"Delta":55973526},{"NoteNumber":93,"Velocity":73,"Duration":104166,"SoundDuration":104166,"Delta":56062812},{"NoteNumber":95,"Velocity":73,"Duration":104166,"SoundDuration":104166,"Delta":56152098},{"NoteNumber":96,"Velocity":74,"Duration":104166,"SoundDuration":104166,"Delta":56241383},{"NoteNumber":98,"Velocity":77,"Duration":103726,"SoundDuration":103726,"Delta":56330669},{"NoteNumber":100,"Velocity":79,"Duration":103289,"SoundDuration":103289,"Delta":56419603},{"NoteNumber":101,"Velocity":80,"Duration":103123,"SoundDuration":103123,"Delta":56508186},{"NoteNumber":103,"Velocity":84,"Duration":105421,"SoundDuration":105421,"Delta":56596249},{"NoteNumber":64,"Velocity":63,"Duration":725082,"SoundDuration":725082,"Delta":56596249},{"NoteNumber":60,"Velocity":51,"Duration":725082,"SoundDuration":725082,"Delta":56596249},{"NoteNumber":55,"Velocity":51,"Duration":725082,"SoundDuration":725082,"Delta":56596249},{"NoteNumber":72,"Velocity":73,"Duration":363636,"SoundDuration":363636,"Delta":56957695},{"NoteNumber":74,"Velocity":73,"Duration":178571,"SoundDuration":178571,"Delta":57321332},{"NoteNumber":31,"Velocity":63,"Duration":716091,"SoundDuration":716091,"Delta":57321332},{"NoteNumber":43,"Velocity":78,"Duration":716091,"SoundDuration":716091,"Delta":57321332},{"NoteNumber":76,"Velocity":68,"Duration":104166,"SoundDuration":104166,"Delta":57499903},{"NoteNumber":77,"Velocity":68,"Duration":104078,"SoundDuration":104078,"Delta":57589189},{"NoteNumber":79,"Velocity":70,"Duration":103638,"SoundDuration":103638,"Delta":57678475},{"NoteNumber":81,"Velocity":70,"Duration":104434,"SoundDuration":104434,"Delta":57767232},{"NoteNumber":83,"Velocity":71,"Duration":105060,"SoundDuration":105060,"Delta":57856696},{"NoteNumber":84,"Velocity":73,"Duration":106960,"SoundDuration":106960,"Delta":57946697},{"NoteNumber":86,"Velocity":83,"Duration":48701,"SoundDuration":48701,"Delta":58037423},{"NoteNumber":65,"Velocity":66,"Duration":718521,"SoundDuration":718521,"Delta":58037423},{"NoteNumber":59,"Velocity":55,"Duration":718521,"SoundDuration":718521,"Delta":58037423},{"NoteNumber":55,"Velocity":55,"Duration":718521,"SoundDuration":718521,"Delta":58037423},{"NoteNumber":86,"Velocity":73,"Duration":104166,"SoundDuration":104166,"Delta":58134826},{"NoteNumber":88,"Velocity":74,"Duration":104166,"SoundDuration":104166,"Delta":58224112},{"NoteNumber":89,"Velocity":75,"Duration":104255,"SoundDuration":104255,"Delta":58313398},{"NoteNumber":91,"Velocity":78,"Duration":104435,"SoundDuration":104435,"Delta":58402683},{"NoteNumber":93,"Velocity":79,"Duration":102857,"SoundDuration":102857,"Delta":58492326},{"NoteNumber":95,"Velocity":81,"Duration":101579,"SoundDuration":101579,"Delta":58580563},{"NoteNumber":96,"Velocity":82,"Duration":103052,"SoundDuration":103052,"Delta":58667774},{"NoteNumber":98,"Velocity":85,"Duration":104166,"SoundDuration":104166,"Delta":58755945},{"NoteNumber":65,"Velocity":63,"Duration":718589,"SoundDuration":718589,"Delta":58755945},{"NoteNumber":59,"Velocity":51,"Duration":718589,"SoundDuration":718589,"Delta":58755945},{"NoteNumber":55,"Velocity":51,"Duration":718589,"SoundDuration":718589,"Delta":58755945},{"NoteNumber":76,"Velocity":73,"Duration":361446,"SoundDuration":361446,"Delta":59113088},{"NoteNumber":72,"Velocity":73,"Duration":178571,"SoundDuration":178571,"Delta":59474534},{"NoteNumber":36,"Velocity":58,"Duration":716091,"SoundDuration":716091,"Delta":59474534},{"NoteNumber":48,"Velocity":71,"Duration":716091,"SoundDuration":716091,"Delta":59474534},{"NoteNumber":74,"Velocity":68,"Duration":104166,"SoundDuration":104166,"Delta":59653106},{"NoteNumber":76,"Velocity":68,"Duration":104078,"SoundDuration":104078,"Delta":59742392},{"NoteNumber":77,"Velocity":70,"Duration":103638,"SoundDuration":103638,"Delta":59831677},{"NoteNumber":79,"Velocity":70,"Duration":104434,"SoundDuration":104434,"Delta":59920435},{"NoteNumber":81,"Velocity":71,"Duration":105060,"SoundDuration":105060,"Delta":60009899},{"NoteNumber":83,"Velocity":73,"Duration":106960,"SoundDuration":106960,"Delta":60099899},{"NoteNumber":84,"Velocity":79,"Duration":48701,"SoundDuration":48701,"Delta":60190626},{"NoteNumber":64,"Velocity":66,"Duration":730250,"SoundDuration":730250,"Delta":60190626},{"NoteNumber":60,"Velocity":55,"Duration":730250,"SoundDuration":730250,"Delta":60190626},{"NoteNumber":55,"Velocity":55,"Duration":730250,"SoundDuration":730250,"Delta":60190626},{"NoteNumber":84,"Velocity":68,"Duration":104166,"SoundDuration":104166,"Delta":60288029},{"NoteNumber":86,"Velocity":70,"Duration":104166,"SoundDuration":104166,"Delta":60377314},{"NoteNumber":88,"Velocity":70,"Duration":104166,"SoundDuration":104166,"Delta":60466600},{"NoteNumber":89,"Velocity":71,"Duration":104702,"SoundDuration":104702,"Delta":60555886},{"NoteNumber":91,"Velocity":73,"Duration":105970,"SoundDuration":105970,"Delta":60645528},{"NoteNumber":93,"Velocity":73,"Duration":107269,"SoundDuration":107269,"Delta":60736255},{"NoteNumber":95,"Velocity":77,"Duration":108409,"SoundDuration":108409,"Delta":60828092},{"NoteNumber":96,"Velocity":81,"Duration":109375,"SoundDuration":109375,"Delta":60920876},{"NoteNumber":64,"Velocity":63,"Duration":736446,"SoundDuration":736446,"Delta":60920876},{"NoteNumber":60,"Velocity":51,"Duration":736446,"SoundDuration":736446,"Delta":60920876},{"NoteNumber":55,"Velocity":51,"Duration":736446,"SoundDuration":736446,"Delta":60920876},{"NoteNumber":72,"Velocity":70,"Duration":361446,"SoundDuration":361446,"Delta":61295876},{"NoteNumber":69,"Velocity":68,"Duration":178571,"SoundDuration":178571,"Delta":61657322},{"NoteNumber":36,"Velocity":48,"Duration":716091,"SoundDuration":716091,"Delta":61657322},{"NoteNumber":48,"Velocity":60,"Duration":716091,"SoundDuration":716091,"Delta":61657322},{"NoteNumber":71,"Velocity":62,"Duration":104166,"SoundDuration":104166,"Delta":61835894},{"NoteNumber":72,"Velocity":62,"Duration":104078,"SoundDuration":104078,"Delta":61925180},{"NoteNumber":74,"Velocity":64,"Duration":103638,"SoundDuration":103638,"Delta":62014465},{"NoteNumber":76,"Velocity":64,"Duration":104434,"SoundDuration":104434,"Delta":62103223},{"NoteNumber":77,"Velocity":66,"Duration":105060,"SoundDuration":105060,"Delta":62192687},{"NoteNumber":79,"Velocity":69,"Duration":106960,"SoundDuration":106960,"Delta":62282687},{"NoteNumber":81,"Velocity":72,"Duration":48701,"SoundDuration":48701,"Delta":62373414},{"NoteNumber":65,"Velocity":52,"Duration":730250,"SoundDuration":730250,"Delta":62373414},{"NoteNumber":60,"Velocity":44,"Duration":730250,"SoundDuration":730250,"Delta":62373414},{"NoteNumber":57,"Velocity":44,"Duration":730250,"SoundDuration":730250,"Delta":62373414},{"NoteNumber":81,"Velocity":62,"Duration":104166,"SoundDuration":104166,"Delta":62470817},{"NoteNumber":83,"Velocity":64,"Duration":104166,"SoundDuration":104166,"Delta":62560102},{"NoteNumber":84,"Velocity":64,"Duration":104166,"SoundDuration":104166,"Delta":62649388},{"NoteNumber":86,"Velocity":66,"Duration":104702,"SoundDuration":104702,"Delta":62738674},{"NoteNumber":88,"Velocity":68,"Duration":105970,"SoundDuration":105970,"Delta":62828316},{"NoteNumber":89,"Velocity":69,"Duration":107269,"SoundDuration":107269,"Delta":62919043},{"NoteNumber":91,"Velocity":70,"Duration":107935,"SoundDuration":107935,"Delta":63010880},{"NoteNumber":93,"Velocity":74,"Duration":106060,"SoundDuration":106060,"Delta":63103664},{"NoteNumber":65,"Velocity":50,"Duration":725082,"SoundDuration":725082,"Delta":63103664},{"NoteNumber":60,"Velocity":41,"Duration":725082,"SoundDuration":725082,"Delta":63103664},{"NoteNumber":57,"Velocity":41,"Duration":725082,"SoundDuration":725082,"Delta":63103664},{"NoteNumber":72,"Velocity":64,"Duration":361446,"SoundDuration":361446,"Delta":63467301},{"NoteNumber":67,"Velocity":61,"Duration":178571,"SoundDuration":178571,"Delta":63828747},{"NoteNumber":36,"Velocity":41,"Duration":716091,"SoundDuration":716091,"Delta":63828747},{"NoteNumber":48,"Velocity":52,"Duration":716091,"SoundDuration":716091,"Delta":63828747},{"NoteNumber":69,"Velocity":56,"Duration":104166,"SoundDuration":104166,"Delta":64007318},{"NoteNumber":71,"Velocity":56,"Duration":104078,"SoundDuration":104078,"Delta":64096604},{"NoteNumber":72,"Velocity":57,"Duration":103638,"SoundDuration":103638,"Delta":64185890},{"NoteNumber":74,"Velocity":57,"Duration":104434,"SoundDuration":104434,"Delta":64274647},{"NoteNumber":76,"Velocity":58,"Duration":105061,"SoundDuration":105061,"Delta":64364111},{"NoteNumber":77,"Velocity":61,"Duration":106960,"SoundDuration":106960,"Delta":64454112},{"NoteNumber":79,"Velocity":64,"Duration":48701,"SoundDuration":48701,"Delta":64544839},{"NoteNumber":64,"Velocity":48,"Duration":730250,"SoundDuration":730250,"Delta":64544839},{"NoteNumber":60,"Velocity":39,"Duration":730250,"SoundDuration":730250,"Delta":64544839},{"NoteNumber":55,"Velocity":39,"Duration":730250,"SoundDuration":730250,"Delta":64544839},{"NoteNumber":79,"Velocity":56,"Duration":104166,"SoundDuration":104166,"Delta":64642241},{"NoteNumber":81,"Velocity":57,"Duration":104166,"SoundDuration":104166,"Delta":64731527},{"NoteNumber":83,"Velocity":57,"Duration":104166,"SoundDuration":104166,"Delta":64820813},{"NoteNumber":84,"Velocity":58,"Duration":104702,"SoundDuration":104702,"Delta":64910099},{"NoteNumber":86,"Velocity":61,"Duration":105970,"SoundDuration":105970,"Delta":64999741},{"NoteNumber":88,"Velocity":61,"Duration":107269,"SoundDuration":107269,"Delta":65090467},{"NoteNumber":89,"Velocity":62,"Duration":108409,"SoundDuration":108409,"Delta":65182305},{"NoteNumber":91,"Velocity":66,"Duration":109375,"SoundDuration":109375,"Delta":65275089},{"NoteNumber":64,"Velocity":44,"Duration":738636,"SoundDuration":738636,"Delta":65275089},{"NoteNumber":60,"Velocity":37,"Duration":738636,"SoundDuration":738636,"Delta":65275089},{"NoteNumber":55,"Velocity":37,"Duration":738636,"SoundDuration":738636,"Delta":65275089},{"NoteNumber":72,"Velocity":57,"Duration":363636,"SoundDuration":363636,"Delta":65650089},{"NoteNumber":74,"Velocity":57,"Duration":178571,"SoundDuration":178571,"Delta":66013726},{"NoteNumber":31,"Velocity":40,"Duration":716091,"SoundDuration":716091,"Delta":66013726},{"NoteNumber":43,"Velocity":49,"Duration":716091,"SoundDuration":716091,"Delta":66013726},{"NoteNumber":76,"Velocity":51,"Duration":104166,"SoundDuration":104166,"Delta":66192297},{"NoteNumber":77,"Velocity":51,"Duration":104078,"SoundDuration":104078,"Delta":66281583},{"NoteNumber":79,"Velocity":52,"Duration":103638,"SoundDuration":103638,"Delta":66370869},{"NoteNumber":81,"Velocity":52,"Duration":104434,"SoundDuration":104434,"Delta":66459626},{"NoteNumber":83,"Velocity":55,"Duration":105061,"SoundDuration":105061,"Delta":66549090},{"NoteNumber":84,"Velocity":58,"Duration":106960,"SoundDuration":106960,"Delta":66639091},{"NoteNumber":86,"Velocity":66,"Duration":48701,"SoundDuration":48701,"Delta":66729817},{"NoteNumber":65,"Velocity":44,"Duration":730250,"SoundDuration":730250,"Delta":66729817},{"NoteNumber":59,"Velocity":38,"Duration":730250,"SoundDuration":730250,"Delta":66729817},{"NoteNumber":55,"Velocity":38,"Duration":730250,"SoundDuration":730250,"Delta":66729817},{"NoteNumber":86,"Velocity":58,"Duration":104166,"SoundDuration":104166,"Delta":66827220},{"NoteNumber":88,"Velocity":60,"Duration":104166,"SoundDuration":104166,"Delta":66916506},{"NoteNumber":89,"Velocity":61,"Duration":104166,"SoundDuration":104166,"Delta":67005791},{"NoteNumber":91,"Velocity":62,"Duration":104702,"SoundDuration":104702,"Delta":67095077},{"NoteNumber":93,"Velocity":64,"Duration":105970,"SoundDuration":105970,"Delta":67184719},{"NoteNumber":95,"Velocity":66,"Duration":107269,"SoundDuration":107269,"Delta":67275446},{"NoteNumber":96,"Velocity":67,"Duration":108409,"SoundDuration":108409,"Delta":67367283},{"NoteNumber":98,"Velocity":68,"Duration":109375,"SoundDuration":109375,"Delta":67460068},{"NoteNumber":65,"Velocity":41,"Duration":736446,"SoundDuration":736446,"Delta":67460068},{"NoteNumber":59,"Velocity":34,"Duration":736446,"SoundDuration":736446,"Delta":67460068},{"NoteNumber":55,"Velocity":34,"Duration":736446,"SoundDuration":736446,"Delta":67460068},{"NoteNumber":76,"Velocity":48,"Duration":361446,"SoundDuration":361446,"Delta":67835068},{"NoteNumber":72,"Velocity":48,"Duration":178571,"SoundDuration":178571,"Delta":68196514},{"NoteNumber":36,"Velocity":34,"Duration":716091,"SoundDuration":716091,"Delta":68196514},{"NoteNumber":48,"Velocity":41,"Duration":716091,"SoundDuration":716091,"Delta":68196514},{"NoteNumber":74,"Velocity":44,"Duration":104166,"SoundDuration":104166,"Delta":68375085},{"NoteNumber":76,"Velocity":44,"Duration":104078,"SoundDuration":104078,"Delta":68464371},{"NoteNumber":77,"Velocity":45,"Duration":103638,"SoundDuration":103638,"Delta":68553657},{"NoteNumber":79,"Velocity":45,"Duration":104434,"SoundDuration":104434,"Delta":68642414},{"NoteNumber":81,"Velocity":46,"Duration":105061,"SoundDuration":105061,"Delta":68731878},{"NoteNumber":83,"Velocity":49,"Duration":106960,"SoundDuration":106960,"Delta":68821879},{"NoteNumber":84,"Velocity":51,"Duration":48701,"SoundDuration":48701,"Delta":68912605},{"NoteNumber":64,"Velocity":38,"Duration":736131,"SoundDuration":736131,"Delta":68912605},{"NoteNumber":60,"Velocity":31,"Duration":736131,"SoundDuration":736131,"Delta":68912605},{"NoteNumber":55,"Velocity":31,"Duration":736131,"SoundDuration":736131,"Delta":68912605},{"NoteNumber":84,"Velocity":44,"Duration":104166,"SoundDuration":104166,"Delta":69010008},{"NoteNumber":86,"Velocity":45,"Duration":104166,"SoundDuration":104166,"Delta":69099294},{"NoteNumber":88,"Velocity":45,"Duration":104346,"SoundDuration":104346,"Delta":69188579},{"NoteNumber":89,"Velocity":46,"Duration":105787,"SoundDuration":105787,"Delta":69277865},{"NoteNumber":91,"Velocity":48,"Duration":107554,"SoundDuration":107554,"Delta":69368409},{"NoteNumber":93,"Velocity":49,"Duration":109085,"SoundDuration":109085,"Delta":69460436},{"NoteNumber":95,"Velocity":50,"Duration":110964,"SoundDuration":110964,"Delta":69553798},{"NoteNumber":96,"Velocity":52,"Duration":112179,"SoundDuration":112179,"Delta":69648737},{"NoteNumber":64,"Velocity":36,"Duration":752713,"SoundDuration":752713,"Delta":69648737},{"NoteNumber":60,"Velocity":29,"Duration":752713,"SoundDuration":752713,"Delta":69648737},{"NoteNumber":55,"Velocity":29,"Duration":752713,"SoundDuration":752713,"Delta":69648737},{"NoteNumber":76,"Velocity":42,"Duration":368098,"SoundDuration":368098,"Delta":70033353},{"NoteNumber":79,"Velocity":42,"Duration":178571,"SoundDuration":178571,"Delta":70401451},{"NoteNumber":36,"Velocity":30,"Duration":716091,"SoundDuration":716091,"Delta":70401451},{"NoteNumber":48,"Velocity":37,"Duration":716091,"SoundDuration":716091,"Delta":70401451},{"NoteNumber":81,"Velocity":39,"Duration":104166,"SoundDuration":104166,"Delta":70580022},{"NoteNumber":83,"Velocity":39,"Duration":104078,"SoundDuration":104078,"Delta":70669308},{"NoteNumber":84,"Velocity":40,"Duration":103638,"SoundDuration":103638,"Delta":70758594},{"NoteNumber":86,"Velocity":40,"Duration":104434,"SoundDuration":104434,"Delta":70847351},{"NoteNumber":88,"Velocity":41,"Duration":105061,"SoundDuration":105061,"Delta":70936815},{"NoteNumber":89,"Velocity":42,"Duration":106960,"SoundDuration":106960,"Delta":71026816},{"NoteNumber":91,"Velocity":49,"Duration":48701,"SoundDuration":48701,"Delta":71117542},{"NoteNumber":64,"Velocity":33,"Duration":730250,"SoundDuration":730250,"Delta":71117542},{"NoteNumber":60,"Velocity":28,"Duration":730250,"SoundDuration":730250,"Delta":71117542},{"NoteNumber":55,"Velocity":28,"Duration":730250,"SoundDuration":730250,"Delta":71117542},{"NoteNumber":91,"Velocity":41,"Duration":104166,"SoundDuration":104166,"Delta":71214945},{"NoteNumber":93,"Velocity":42,"Duration":104166,"SoundDuration":104166,"Delta":71304231},{"NoteNumber":95,"Velocity":42,"Duration":104166,"SoundDuration":104166,"Delta":71393516},{"NoteNumber":96,"Velocity":44,"Duration":104702,"SoundDuration":104702,"Delta":71482802},{"NoteNumber":98,"Velocity":45,"Duration":105970,"SoundDuration":105970,"Delta":71572444},{"NoteNumber":100,"Velocity":48,"Duration":107269,"SoundDuration":107269,"Delta":71663171},{"NoteNumber":101,"Velocity":49,"Duration":108809,"SoundDuration":108809,"Delta":71755008},{"NoteNumber":103,"Velocity":51,"Duration":112179,"SoundDuration":112179,"Delta":71847793},{"NoteNumber":64,"Velocity":31,"Duration":746061,"SoundDuration":746061,"Delta":71847793},{"NoteNumber":60,"Velocity":26,"Duration":746061,"SoundDuration":746061,"Delta":71847793},{"NoteNumber":55,"Velocity":26,"Duration":746061,"SoundDuration":746061,"Delta":71847793},{"NoteNumber":76,"Velocity":42,"Duration":361446,"SoundDuration":361446,"Delta":72232408},{"NoteNumber":72,"Velocity":42,"Duration":178571,"SoundDuration":178571,"Delta":72593854},{"NoteNumber":36,"Velocity":30,"Duration":716091,"SoundDuration":716091,"Delta":72593854},{"NoteNumber":48,"Velocity":37,"Duration":716091,"SoundDuration":716091,"Delta":72593854},{"NoteNumber":74,"Velocity":39,"Duration":104166,"SoundDuration":104166,"Delta":72772426},{"NoteNumber":76,"Velocity":39,"Duration":104078,"SoundDuration":104078,"Delta":72861711},{"NoteNumber":77,"Velocity":40,"Duration":103638,"SoundDuration":103638,"Delta":72950997},{"NoteNumber":79,"Velocity":40,"Duration":104434,"SoundDuration":104434,"Delta":73039755},{"NoteNumber":81,"Velocity":41,"Duration":105061,"SoundDuration":105061,"Delta":73129219},{"NoteNumber":83,"Velocity":42,"Duration":106960,"SoundDuration":106960,"Delta":73219219},{"NoteNumber":84,"Velocity":45,"Duration":48701,"SoundDuration":48701,"Delta":73309946},{"NoteNumber":64,"Velocity":33,"Duration":730250,"SoundDuration":730250,"Delta":73309946},{"NoteNumber":60,"Velocity":28,"Duration":730250,"SoundDuration":730250,"Delta":73309946},{"NoteNumber":55,"Velocity":28,"Duration":730250,"SoundDuration":730250,"Delta":73309946},{"NoteNumber":84,"Velocity":39,"Duration":104166,"SoundDuration":104166,"Delta":73407349},{"NoteNumber":86,"Velocity":40,"Duration":104166,"SoundDuration":104166,"Delta":73496634},{"NoteNumber":88,"Velocity":40,"Duration":104166,"SoundDuration":104166,"Delta":73585920},{"NoteNumber":89,"Velocity":41,"Duration":104702,"SoundDuration":104702,"Delta":73675206},{"NoteNumber":91,"Velocity":42,"Duration":105970,"SoundDuration":105970,"Delta":73764848},{"NoteNumber":93,"Velocity":42,"Duration":107269,"SoundDuration":107269,"Delta":73855575},{"NoteNumber":95,"Velocity":44,"Duration":108409,"SoundDuration":108409,"Delta":73947412},{"NoteNumber":96,"Velocity":46,"Duration":109375,"SoundDuration":109375,"Delta":74040196},{"NoteNumber":64,"Velocity":31,"Duration":743098,"SoundDuration":743098,"Delta":74040196},{"NoteNumber":60,"Velocity":26,"Duration":743098,"SoundDuration":743098,"Delta":74040196},{"NoteNumber":55,"Velocity":26,"Duration":743098,"SoundDuration":743098,"Delta":74040196},{"NoteNumber":76,"Velocity":41,"Duration":184049,"SoundDuration":184049,"Delta":74415196},{"NoteNumber":81,"Velocity":37,"Duration":184049,"SoundDuration":184049,"Delta":74599245},{"NoteNumber":79,"Velocity":38,"Duration":178571,"SoundDuration":178571,"Delta":74783294},{"NoteNumber":36,"Velocity":27,"Duration":716091,"SoundDuration":716091,"Delta":74783294},{"NoteNumber":48,"Velocity":31,"Duration":716091,"SoundDuration":716091,"Delta":74783294},{"NoteNumber":81,"Velocity":34,"Duration":104166,"SoundDuration":104166,"Delta":74961866},{"NoteNumber":83,"Velocity":34,"Duration":104078,"SoundDuration":104078,"Delta":75051152},{"NoteNumber":84,"Velocity":36,"Duration":103638,"SoundDuration":103638,"Delta":75140437},{"NoteNumber":86,"Velocity":36,"Duration":104434,"SoundDuration":104434,"Delta":75229195},{"NoteNumber":88,"Velocity":37,"Duration":105061,"SoundDuration":105061,"Delta":75318659},{"NoteNumber":89,"Velocity":38,"Duration":106960,"SoundDuration":106960,"Delta":75408659},{"NoteNumber":91,"Velocity":42,"Duration":48701,"SoundDuration":48701,"Delta":75499386},{"NoteNumber":64,"Velocity":29,"Duration":730250,"SoundDuration":730250,"Delta":75499386},{"NoteNumber":60,"Velocity":25,"Duration":730250,"SoundDuration":730250,"Delta":75499386},{"NoteNumber":55,"Velocity":25,"Duration":730250,"SoundDuration":730250,"Delta":75499386},{"NoteNumber":91,"Velocity":37,"Duration":104166,"SoundDuration":104166,"Delta":75596789},{"NoteNumber":93,"Velocity":38,"Duration":104166,"SoundDuration":104166,"Delta":75686074},{"NoteNumber":95,"Velocity":38,"Duration":104166,"SoundDuration":104166,"Delta":75775360},{"NoteNumber":96,"Velocity":39,"Duration":104702,"SoundDuration":104702,"Delta":75864646},{"NoteNumber":98,"Velocity":40,"Duration":105970,"SoundDuration":105970,"Delta":75954288},{"NoteNumber":100,"Velocity":42,"Duration":107269,"SoundDuration":107269,"Delta":76045015},{"NoteNumber":101,"Velocity":42,"Duration":108809,"SoundDuration":108809,"Delta":76136852},{"NoteNumber":103,"Velocity":45,"Duration":112179,"SoundDuration":112179,"Delta":76229636},{"NoteNumber":64,"Velocity":28,"Duration":746061,"SoundDuration":746061,"Delta":76229636},{"NoteNumber":60,"Velocity":22,"Duration":746061,"SoundDuration":746061,"Delta":76229636},{"NoteNumber":55,"Velocity":22,"Duration":746061,"SoundDuration":746061,"Delta":76229636},{"NoteNumber":76,"Velocity":42,"Duration":361446,"SoundDuration":361446,"Delta":76614252},{"NoteNumber":72,"Velocity":42,"Duration":184049,"SoundDuration":184049,"Delta":76975698},{"NoteNumber":36,"Velocity":30,"Duration":741035,"SoundDuration":741035,"Delta":76975698},{"NoteNumber":48,"Velocity":37,"Duration":741035,"SoundDuration":741035,"Delta":76975698},{"NoteNumber":74,"Velocity":39,"Duration":107361,"SoundDuration":107361,"Delta":77159747},{"NoteNumber":76,"Velocity":39,"Duration":107268,"SoundDuration":107268,"Delta":77251771},{"NoteNumber":77,"Velocity":40,"Duration":106987,"SoundDuration":106987,"Delta":77343796},{"NoteNumber":79,"Velocity":40,"Duration":108122,"SoundDuration":108122,"Delta":77435446},{"NoteNumber":81,"Velocity":42,"Duration":109475,"SoundDuration":109475,"Delta":77528041},{"NoteNumber":83,"Velocity":44,"Duration":111173,"SoundDuration":111173,"Delta":77621794},{"NoteNumber":84,"Velocity":46,"Duration":48701,"SoundDuration":48701,"Delta":77716733},{"NoteNumber":76,"Velocity":41,"Duration":108695,"SoundDuration":108695,"Delta":77814136},{"NoteNumber":60,"Velocity":34,"Duration":108695,"SoundDuration":108695,"Delta":77814136},{"NoteNumber":77,"Velocity":42,"Duration":108695,"SoundDuration":108695,"Delta":77907303},{"NoteNumber":62,"Velocity":36,"Duration":108695,"SoundDuration":108695,"Delta":77907303},{"NoteNumber":79,"Velocity":45,"Duration":108695,"SoundDuration":108695,"Delta":78000471},{"NoteNumber":64,"Velocity":37,"Duration":108695,"SoundDuration":108695,"Delta":78000471},{"NoteNumber":81,"Velocity":46,"Duration":109085,"SoundDuration":109085,"Delta":78093639},{"NoteNumber":65,"Velocity":39,"Duration":109085,"SoundDuration":109085,"Delta":78093639},{"NoteNumber":83,"Velocity":49,"Duration":110862,"SoundDuration":110862,"Delta":78187001},{"NoteNumber":67,"Velocity":41,"Duration":110862,"SoundDuration":110862,"Delta":78187001},{"NoteNumber":84,"Velocity":51,"Duration":112390,"SoundDuration":112390,"Delta":78281940},{"NoteNumber":69,"Velocity":42,"Duration":112390,"SoundDuration":112390,"Delta":78281940},{"NoteNumber":86,"Velocity":52,"Duration":114171,"SoundDuration":114171,"Delta":78378096},{"NoteNumber":71,"Velocity":42,"Duration":114171,"SoundDuration":114171,"Delta":78378096},{"NoteNumber":88,"Velocity":53,"Duration":112399,"SoundDuration":112399,"Delta":78476138},{"NoteNumber":72,"Velocity":45,"Duration":112399,"SoundDuration":112399,"Delta":78476138},{"NoteNumber":79,"Velocity":48,"Duration":107937,"SoundDuration":107937,"Delta":78572913},{"NoteNumber":64,"Velocity":40,"Duration":107937,"SoundDuration":107937,"Delta":78572913},{"NoteNumber":81,"Velocity":49,"Duration":107361,"SoundDuration":107361,"Delta":78665512},{"NoteNumber":65,"Velocity":41,"Duration":107361,"SoundDuration":107361,"Delta":78665512},{"NoteNumber":83,"Velocity":51,"Duration":106905,"SoundDuration":106905,"Delta":78757537},{"NoteNumber":67,"Velocity":42,"Duration":106905,"SoundDuration":106905,"Delta":78757537},{"NoteNumber":84,"Velocity":52,"Duration":106171,"SoundDuration":106171,"Delta":78849561},{"NoteNumber":69,"Velocity":44,"Duration":106171,"SoundDuration":106171,"Delta":78849561},{"NoteNumber":86,"Velocity":53,"Duration":108992,"SoundDuration":108992,"Delta":78940301},{"NoteNumber":71,"Velocity":45,"Duration":108992,"SoundDuration":108992,"Delta":78940301},{"NoteNumber":88,"Velocity":56,"Duration":111777,"SoundDuration":111777,"Delta":79033471},{"NoteNumber":72,"Velocity":46,"Duration":111777,"SoundDuration":111777,"Delta":79033471},{"NoteNumber":89,"Velocity":57,"Duration":114708,"SoundDuration":114708,"Delta":79129015},{"NoteNumber":74,"Velocity":48,"Duration":114708,"SoundDuration":114708,"Delta":79129015},{"NoteNumber":91,"Velocity":60,"Duration":116233,"SoundDuration":116233,"Delta":79227057},{"NoteNumber":76,"Velocity":50,"Duration":116233,"SoundDuration":116233,"Delta":79227057},{"NoteNumber":88,"Velocity":51,"Duration":113636,"SoundDuration":113636,"Delta":79327057},{"NoteNumber":72,"Velocity":42,"Duration":113636,"SoundDuration":113636,"Delta":79327057},{"NoteNumber":89,"Velocity":52,"Duration":113636,"SoundDuration":113636,"Delta":79424460},{"NoteNumber":74,"Velocity":44,"Duration":113636,"SoundDuration":113636,"Delta":79424460},{"NoteNumber":91,"Velocity":56,"Duration":112741,"SoundDuration":112741,"Delta":79521863},{"NoteNumber":76,"Velocity":46,"Duration":112741,"SoundDuration":112741,"Delta":79521863},{"NoteNumber":93,"Velocity":56,"Duration":116337,"SoundDuration":116337,"Delta":79618048},{"NoteNumber":77,"Velocity":48,"Duration":116337,"SoundDuration":116337,"Delta":79618048},{"NoteNumber":95,"Velocity":61,"Duration":118247,"SoundDuration":118247,"Delta":79717606},{"NoteNumber":79,"Velocity":50,"Duration":118247,"SoundDuration":118247,"Delta":79717606},{"NoteNumber":96,"Velocity":63,"Duration":123264,"SoundDuration":123264,"Delta":79818731},{"NoteNumber":81,"Velocity":53,"Duration":123264,"SoundDuration":123264,"Delta":79818731},{"NoteNumber":98,"Velocity":70,"Duration":132752,"SoundDuration":132752,"Delta":79922911},{"NoteNumber":83,"Velocity":57,"Duration":132752,"SoundDuration":132752,"Delta":79922911},{"NoteNumber":100,"Velocity":86,"Duration":127737,"SoundDuration":127737,"Delta":80037415},{"NoteNumber":84,"Velocity":69,"Duration":127737,"SoundDuration":127737,"Delta":80037415},{"NoteNumber":64,"Velocity":72,"Duration":218978,"SoundDuration":218978,"Delta":80913327},{"NoteNumber":67,"Velocity":72,"Duration":218978,"SoundDuration":218978,"Delta":80913327},{"NoteNumber":76,"Velocity":81,"Duration":218978,"SoundDuration":218978,"Delta":80913327},{"NoteNumber":72,"Velocity":81,"Duration":218978,"SoundDuration":218978,"Delta":80913327},{"NoteNumber":48,"Velocity":59,"Duration":218978,"SoundDuration":218978,"Delta":80913327},{"NoteNumber":55,"Velocity":59,"Duration":218978,"SoundDuration":218978,"Delta":80913327},{"NoteNumber":60,"Velocity":66,"Duration":218978,"SoundDuration":218978,"Delta":80913327},{"NoteNumber":55,"Velocity":77,"Duration":1751823,"SoundDuration":1751823,"Delta":81789239},{"NoteNumber":52,"Velocity":77,"Duration":1751823,"SoundDuration":1751823,"Delta":81789239},{"NoteNumber":60,"Velocity":86,"Duration":1751823,"SoundDuration":1751823,"Delta":81789239},{"NoteNumber":36,"Velocity":62,"Duration":1751823,"SoundDuration":1751823,"Delta":81789239},{"NoteNumber":43,"Velocity":62,"Duration":1751823,"SoundDuration":1751823,"Delta":81789239},{"NoteNumber":48,"Velocity":70,"Duration":1751823,"SoundDuration":1751823,"Delta":81789239}],"license":{"name":"Creative Commons Attribution-ShareAlike 3.0 Germany","url":"http://creativecommons.org/licenses/by-sa/3.0/de/deed.en","text":"The MIDI, audio (MP3, OGG) and video files of Bernd Krueger are licensed under the cc-by-sa Germany License. This means that you can use and adapt the files, as long as you attribute the copyright holder.\n\nName: Bernd Krueger\nSource: http://www.piano-midi.de\n\nThe distribution or public playback of the files is only allowed under identical license conditions.\n\nThe scores are open source.","attribution":"MIDI files by Bernd Krueger (piano-midi.de)","attributionUrl":"http://www.piano-midi.de"}}