{"title":"Die Sylphen","artist":"Burgmüller","durationMs":87398,"midiSha256":"d827fd80e1668882d1b70bffa28f53f66207ec99fd7218f8f6ad01d859e9bcf1","midiObject":[{"NoteNumber":76,"Velocity":54,"Duration":76575,"SoundDuration":76575,"Delta":0},{"NoteNumber":67,"Velocity":37,"Duration":229726,"SoundDuration":229726,"Delta":0},{"NoteNumber":82,"Velocity":46,"Duration":76575,"SoundDuration":76575,"Delta":76575},{"NoteNumber":85,"Velocity":40,"Duration":76575,"SoundDuration":76575,"Delta":153150},{"NoteNumber":76,"Velocity":56,"Duration":129099,"SoundDuration":129099,"Delta":229726},{"NoteNumber":67,"Velocity":38,"Duration":132637,"SoundDuration":132637,"Delta":487924},{"NoteNumber":74,"Velocity":51,"Duration":77465,"SoundDuration":77465,"Delta":753200},{"NoteNumber":66,"Velocity":46,"Duration":232395,"SoundDuration":232395,"Delta":753200},{"NoteNumber":81,"Velocity":43,"Duration":77465,"SoundDuration":77465,"Delta":830665},{"NoteNumber":86,"Velocity":40,"Duration":77465,"SoundDuration":77465,"Delta":908130},{"NoteNumber":74,"Velocity":53,"Duration":128545,"SoundDuration":128545,"Delta":985595},{"NoteNumber":66,"Velocity":38,"Duration":133820,"SoundDuration":133820,"Delta":1242687},{"NoteNumber":74,"Velocity":51,"Duration":77766,"SoundDuration":77766,"Delta":1510329},{"NoteNumber":65,"Velocity":46,"Duration":233299,"SoundDuration":233299,"Delta":1510329},{"NoteNumber":80,"Velocity":43,"Duration":77766,"SoundDuration":77766,"Delta":1588096},{"NoteNumber":83,"Velocity":40,"Duration":77766,"SoundDuration":77766,"Delta":1665862},{"NoteNumber":74,"Velocity":50,"Duration":129099,"SoundDuration":129099,"Delta":1743628},{"NoteNumber":65,"Velocity":37,"Duration":133226,"SoundDuration":133226,"Delta":2001827},{"NoteNumber":72,"Velocity":49,"Duration":77766,"SoundDuration":77766,"Delta":2268280},{"NoteNumber":64,"Velocity":45,"Duration":233299,"SoundDuration":233299,"Delta":2268280},{"NoteNumber":79,"Velocity":40,"Duration":77766,"SoundDuration":77766,"Delta":2346047},{"NoteNumber":84,"Velocity":38,"Duration":77766,"SoundDuration":77766,"Delta":2423813},{"NoteNumber":72,"Velocity":51,"Duration":128545,"SoundDuration":128545,"Delta":2501580},{"NoteNumber":64,"Velocity":40,"Duration":132637,"SoundDuration":132637,"Delta":2758671},{"NoteNumber":72,"Velocity":51,"Duration":78125,"SoundDuration":78125,"Delta":3023947},{"NoteNumber":63,"Velocity":47,"Duration":234375,"SoundDuration":234375,"Delta":3023947},{"NoteNumber":79,"Velocity":40,"Duration":78125,"SoundDuration":78125,"Delta":3102072},{"NoteNumber":81,"Velocity":37,"Duration":78125,"SoundDuration":78125,"Delta":3180197},{"NoteNumber":72,"Velocity":49,"Duration":129099,"SoundDuration":129099,"Delta":3258322},{"NoteNumber":63,"Velocity":34,"Duration":220228,"SoundDuration":220228,"Delta":3516520},{"NoteNumber":60,"Velocity":41,"Duration":372221,"SoundDuration":372221,"Delta":3736748},{"NoteNumber":67,"Velocity":44,"Duration":359315,"SoundDuration":359315,"Delta":3749655},{"NoteNumber":69,"Velocity":45,"Duration":346408,"SoundDuration":346408,"Delta":3762561},{"NoteNumber":75,"Velocity":54,"Duration":333502,"SoundDuration":333502,"Delta":3775468},{"NoteNumber":79,"Velocity":58,"Duration":320595,"SoundDuration":320595,"Delta":3788374},{"NoteNumber":84,"Velocity":62,"Duration":307689,"SoundDuration":307689,"Delta":3801281},{"NoteNumber":87,"Velocity":64,"Duration":294782,"SoundDuration":294782,"Delta":3814188},{"NoteNumber":62,"Velocity":54,"Duration":78070,"SoundDuration":78070,"Delta":4698535},{"NoteNumber":50,"Velocity":31,"Duration":234210,"SoundDuration":234210,"Delta":4698535},{"NoteNumber":57,"Velocity":31,"Duration":234210,"SoundDuration":234210,"Delta":4698535},{"NoteNumber":60,"Velocity":37,"Duration":234210,"SoundDuration":234210,"Delta":4698535},{"NoteNumber":66,"Velocity":46,"Duration":78070,"SoundDuration":78070,"Delta":4776605},{"NoteNumber":74,"Velocity":40,"Duration":78070,"SoundDuration":78070,"Delta":4854675},{"NoteNumber":62,"Velocity":50,"Duration":125198,"SoundDuration":125198,"Delta":4932746},{"NoteNumber":38,"Velocity":31,"Duration":154878,"SoundDuration":154878,"Delta":5187893},{"NoteNumber":50,"Velocity":31,"Duration":154878,"SoundDuration":154878,"Delta":5187893},{"NoteNumber":67,"Velocity":40,"Duration":257444,"SoundDuration":257444,"Delta":5497650},{"NoteNumber":62,"Velocity":40,"Duration":257444,"SoundDuration":257444,"Delta":5497650},{"NoteNumber":58,"Velocity":40,"Duration":257444,"SoundDuration":257444,"Delta":5497650},{"NoteNumber":43,"Velocity":31,"Duration":257444,"SoundDuration":257444,"Delta":5497650},{"NoteNumber":55,"Velocity":31,"Duration":257444,"SoundDuration":257444,"Delta":5497650},{"NoteNumber":86,"Velocity":54,"Duration":75540,"SoundDuration":75540,"Delta":6269984},{"NoteNumber":55,"Velocity":37,"Duration":739255,"SoundDuration":739255,"Delta":6269984},{"NoteNumber":94,"Velocity":46,"Duration":75540,"SoundDuration":75540,"Delta":6345524},{"NoteNumber":98,"Velocity":40,"Duration":75540,"SoundDuration":75540,"Delta":6421064},{"NoteNumber":86,"Velocity":50,"Duration":286013,"SoundDuration":286013,"Delta":6496604},{"NoteNumber":58,"Velocity":26,"Duration":214510,"SoundDuration":214510,"Delta":6496604},{"NoteNumber":62,"Velocity":31,"Duration":214510,"SoundDuration":214510,"Delta":6496604},{"NoteNumber":74,"Velocity":54,"Duration":75540,"SoundDuration":75540,"Delta":6782618},{"NoteNumber":58,"Velocity":26,"Duration":169965,"SoundDuration":169965,"Delta":6782618},{"NoteNumber":62,"Velocity":31,"Duration":169965,"SoundDuration":169965,"Delta":6782618},{"NoteNumber":82,"Velocity":46,"Duration":75540,"SoundDuration":75540,"Delta":6858158},{"NoteNumber":86,"Velocity":40,"Duration":75540,"SoundDuration":75540,"Delta":6933699},{"NoteNumber":74,"Velocity":59,"Duration":250396,"SoundDuration":250396,"Delta":7009239},{"NoteNumber":55,"Velocity":37,"Duration":751252,"SoundDuration":751252,"Delta":7009239},{"NoteNumber":57,"Velocity":26,"Duration":186104,"SoundDuration":186104,"Delta":7259635},{"NoteNumber":60,"Velocity":26,"Duration":186104,"SoundDuration":186104,"Delta":7259635},{"NoteNumber":63,"Velocity":31,"Duration":186104,"SoundDuration":186104,"Delta":7259635},{"NoteNumber":72,"Velocity":50,"Duration":126358,"SoundDuration":126358,"Delta":7507774},{"NoteNumber":57,"Velocity":26,"Duration":189537,"SoundDuration":189537,"Delta":7507774},{"NoteNumber":60,"Velocity":26,"Duration":189537,"SoundDuration":189537,"Delta":7507774},{"NoteNumber":63,"Velocity":31,"Duration":189537,"SoundDuration":189537,"Delta":7507774},{"NoteNumber":70,"Velocity":49,"Duration":63179,"SoundDuration":63179,"Delta":7634133},{"NoteNumber":72,"Velocity":49,"Duration":63179,"SoundDuration":63179,"Delta":7697312},{"NoteNumber":70,"Velocity":58,"Duration":256257,"SoundDuration":256257,"Delta":7760491},{"NoteNumber":54,"Velocity":37,"Duration":760716,"SoundDuration":760716,"Delta":7760491},{"NoteNumber":60,"Velocity":26,"Duration":185261,"SoundDuration":185261,"Delta":8016748},{"NoteNumber":62,"Velocity":31,"Duration":185261,"SoundDuration":185261,"Delta":8016748},{"NoteNumber":69,"Velocity":49,"Duration":128722,"SoundDuration":128722,"Delta":8263763},{"NoteNumber":60,"Velocity":26,"Duration":193083,"SoundDuration":193083,"Delta":8263763},{"NoteNumber":62,"Velocity":31,"Duration":193083,"SoundDuration":193083,"Delta":8263763},{"NoteNumber":69,"Velocity":42,"Duration":64361,"SoundDuration":64361,"Delta":8456846},{"NoteNumber":72,"Velocity":50,"Duration":498545,"SoundDuration":498545,"Delta":8521207},{"NoteNumber":55,"Velocity":37,"Duration":775477,"SoundDuration":775477,"Delta":8521207},{"NoteNumber":62,"Velocity":31,"Duration":186954,"SoundDuration":186954,"Delta":8770480},{"NoteNumber":58,"Velocity":26,"Duration":186954,"SoundDuration":186954,"Delta":8770480},{"NoteNumber":70,"Velocity":46,"Duration":276931,"SoundDuration":276931,"Delta":9019753},{"NoteNumber":58,"Velocity":26,"Duration":207698,"SoundDuration":207698,"Delta":9019753},{"NoteNumber":62,"Velocity":31,"Duration":207698,"SoundDuration":207698,"Delta":9019753},{"NoteNumber":79,"Velocity":54,"Duration":75540,"SoundDuration":75540,"Delta":9296685},{"NoteNumber":46,"Velocity":37,"Duration":731301,"SoundDuration":731301,"Delta":9296685},{"NoteNumber":86,"Velocity":46,"Duration":75540,"SoundDuration":75540,"Delta":9372225},{"NoteNumber":91,"Velocity":40,"Duration":75540,"SoundDuration":75540,"Delta":9447765},{"NoteNumber":79,"Velocity":50,"Duration":278060,"SoundDuration":278060,"Delta":9523305},{"NoteNumber":50,"Velocity":26,"Duration":208545,"SoundDuration":208545,"Delta":9523305},{"NoteNumber":55,"Velocity":31,"Duration":208545,"SoundDuration":208545,"Delta":9523305},{"NoteNumber":67,"Velocity":54,"Duration":75540,"SoundDuration":75540,"Delta":9801366},{"NoteNumber":50,"Velocity":26,"Duration":169965,"SoundDuration":169965,"Delta":9801366},{"NoteNumber":55,"Velocity":31,"Duration":169965,"SoundDuration":169965,"Delta":9801366},{"NoteNumber":74,"Velocity":46,"Duration":75540,"SoundDuration":75540,"Delta":9876906},{"NoteNumber":79,"Velocity":40,"Duration":75540,"SoundDuration":75540,"Delta":9952447},{"NoteNumber":67,"Velocity":59,"Duration":250396,"SoundDuration":250396,"Delta":10027987},{"NoteNumber":48,"Velocity":37,"Duration":751252,"SoundDuration":751252,"Delta":10027987},{"NoteNumber":55,"Velocity":26,"Duration":186104,"SoundDuration":186104,"Delta":10278383},{"NoteNumber":57,"Velocity":31,"Duration":186104,"SoundDuration":186104,"Delta":10278383},{"NoteNumber":63,"Velocity":50,"Duration":252716,"SoundDuration":252716,"Delta":10526522},{"NoteNumber":55,"Velocity":26,"Duration":189537,"SoundDuration":189537,"Delta":10526522},{"NoteNumber":57,"Velocity":31,"Duration":189537,"SoundDuration":189537,"Delta":10526522},{"NoteNumber":62,"Velocity":58,"Duration":256256,"SoundDuration":256256,"Delta":10779239},{"NoteNumber":55,"Velocity":37,"Duration":760716,"SoundDuration":760716,"Delta":10779239},{"NoteNumber":70,"Velocity":54,"Duration":247014,"SoundDuration":247014,"Delta":11035496},{"NoteNumber":54,"Velocity":26,"Duration":185261,"SoundDuration":185261,"Delta":11035496},{"NoteNumber":60,"Velocity":31,"Duration":185261,"SoundDuration":185261,"Delta":11035496},{"NoteNumber":69,"Velocity":49,"Duration":125504,"SoundDuration":125504,"Delta":11282511},{"NoteNumber":54,"Velocity":26,"Duration":193083,"SoundDuration":193083,"Delta":11282511},{"NoteNumber":60,"Velocity":31,"Duration":193083,"SoundDuration":193083,"Delta":11282511},{"NoteNumber":69,"Velocity":42,"Duration":64361,"SoundDuration":64361,"Delta":11411233},{"NoteNumber":70,"Velocity":42,"Duration":64361,"SoundDuration":64361,"Delta":11454140},{"NoteNumber":69,"Velocity":50,"Duration":498545,"SoundDuration":498545,"Delta":11539955},{"NoteNumber":55,"Velocity":37,"Duration":771347,"SoundDuration":771347,"Delta":11539955},{"NoteNumber":62,"Velocity":31,"Duration":186954,"SoundDuration":186954,"Delta":11789228},{"NoteNumber":58,"Velocity":26,"Duration":186954,"SoundDuration":186954,"Delta":11789228},{"NoteNumber":67,"Velocity":46,"Duration":272801,"SoundDuration":272801,"Delta":12038501},{"NoteNumber":58,"Velocity":26,"Duration":204601,"SoundDuration":204601,"Delta":12038501},{"NoteNumber":62,"Velocity":31,"Duration":204601,"SoundDuration":204601,"Delta":12038501},{"NoteNumber":86,"Velocity":54,"Duration":75540,"SoundDuration":75540,"Delta":12311303},{"NoteNumber":55,"Velocity":37,"Duration":730019,"SoundDuration":730019,"Delta":12311303},{"NoteNumber":94,"Velocity":46,"Duration":75540,"SoundDuration":75540,"Delta":12386843},{"NoteNumber":98,"Velocity":40,"Duration":75540,"SoundDuration":75540,"Delta":12462383},{"NoteNumber":86,"Velocity":50,"Duration":276778,"SoundDuration":276778,"Delta":12537923},{"NoteNumber":58,"Velocity":26,"Duration":207583,"SoundDuration":207583,"Delta":12537923},{"NoteNumber":62,"Velocity":31,"Duration":207583,"SoundDuration":207583,"Delta":12537923},{"NoteNumber":74,"Velocity":54,"Duration":75540,"SoundDuration":75540,"Delta":12814702},{"NoteNumber":58,"Velocity":26,"Duration":169965,"SoundDuration":169965,"Delta":12814702},{"NoteNumber":62,"Velocity":31,"Duration":169965,"SoundDuration":169965,"Delta":12814702},{"NoteNumber":82,"Velocity":46,"Duration":75540,"SoundDuration":75540,"Delta":12890242},{"NoteNumber":86,"Velocity":40,"Duration":75540,"SoundDuration":75540,"Delta":12965782},{"NoteNumber":74,"Velocity":59,"Duration":250396,"SoundDuration":250396,"Delta":13041322},{"NoteNumber":55,"Velocity":37,"Duration":751252,"SoundDuration":751252,"Delta":13041322},{"NoteNumber":57,"Velocity":26,"Duration":186104,"SoundDuration":186104,"Delta":13291719},{"NoteNumber":60,"Velocity":26,"Duration":186104,"SoundDuration":186104,"Delta":13291719},{"NoteNumber":63,"Velocity":31,"Duration":186104,"SoundDuration":186104,"Delta":13291719},{"NoteNumber":72,"Velocity":50,"Duration":126358,"SoundDuration":126358,"Delta":13539858},{"NoteNumber":57,"Velocity":26,"Duration":189537,"SoundDuration":189537,"Delta":13539858},{"NoteNumber":60,"Velocity":26,"Duration":189537,"SoundDuration":189537,"Delta":13539858},{"NoteNumber":63,"Velocity":31,"Duration":189537,"SoundDuration":189537,"Delta":13539858},{"NoteNumber":70,"Velocity":49,"Duration":63179,"SoundDuration":63179,"Delta":13666216},{"NoteNumber":72,"Velocity":49,"Duration":63179,"SoundDuration":63179,"Delta":13729395},{"NoteNumber":70,"Velocity":58,"Duration":256256,"SoundDuration":256256,"Delta":13792574},{"NoteNumber":54,"Velocity":37,"Duration":760716,"SoundDuration":760716,"Delta":13792574},{"NoteNumber":60,"Velocity":26,"Duration":185261,"SoundDuration":185261,"Delta":14048831},{"NoteNumber":62,"Velocity":31,"Duration":185261,"SoundDuration":185261,"Delta":14048831},{"NoteNumber":69,"Velocity":49,"Duration":128722,"SoundDuration":128722,"Delta":14295846},{"NoteNumber":60,"Velocity":26,"Duration":193083,"SoundDuration":193083,"Delta":14295846},{"NoteNumber":62,"Velocity":31,"Duration":193083,"SoundDuration":193083,"Delta":14295846},{"NoteNumber":69,"Velocity":42,"Duration":64361,"SoundDuration":64361,"Delta":14488930},{"NoteNumber":72,"Velocity":50,"Duration":498545,"SoundDuration":498545,"Delta":14553291},{"NoteNumber":55,"Velocity":37,"Duration":771347,"SoundDuration":771347,"Delta":14553291},{"NoteNumber":62,"Velocity":31,"Duration":186954,"SoundDuration":186954,"Delta":14802564},{"NoteNumber":58,"Velocity":26,"Duration":186954,"SoundDuration":186954,"Delta":14802564},{"NoteNumber":70,"Velocity":46,"Duration":272801,"SoundDuration":272801,"Delta":15051837},{"NoteNumber":58,"Velocity":26,"Duration":204601,"SoundDuration":204601,"Delta":15051837},{"NoteNumber":62,"Velocity":31,"Duration":204601,"SoundDuration":204601,"Delta":15051837},{"NoteNumber":79,"Velocity":54,"Duration":75540,"SoundDuration":75540,"Delta":15324638},{"NoteNumber":46,"Velocity":37,"Duration":727488,"SoundDuration":727488,"Delta":15324638},{"NoteNumber":86,"Velocity":46,"Duration":75540,"SoundDuration":75540,"Delta":15400178},{"NoteNumber":91,"Velocity":40,"Duration":75540,"SoundDuration":75540,"Delta":15475719},{"NoteNumber":79,"Velocity":50,"Duration":274248,"SoundDuration":274248,"Delta":15551259},{"NoteNumber":50,"Velocity":26,"Duration":205686,"SoundDuration":205686,"Delta":15551259},{"NoteNumber":55,"Velocity":31,"Duration":205686,"SoundDuration":205686,"Delta":15551259},{"NoteNumber":67,"Velocity":54,"Duration":75540,"SoundDuration":75540,"Delta":15825507},{"NoteNumber":50,"Velocity":26,"Duration":169965,"SoundDuration":169965,"Delta":15825507},{"NoteNumber":55,"Velocity":31,"Duration":169965,"SoundDuration":169965,"Delta":15825507},{"NoteNumber":74,"Velocity":46,"Duration":75540,"SoundDuration":75540,"Delta":15901047},{"NoteNumber":79,"Velocity":40,"Duration":75540,"SoundDuration":75540,"Delta":15976587},{"NoteNumber":67,"Velocity":59,"Duration":250396,"SoundDuration":250396,"Delta":16052127},{"NoteNumber":48,"Velocity":37,"Duration":751251,"SoundDuration":751251,"Delta":16052127},{"NoteNumber":55,"Velocity":26,"Duration":186104,"SoundDuration":186104,"Delta":16302524},{"NoteNumber":57,"Velocity":31,"Duration":186104,"SoundDuration":186104,"Delta":16302524},{"NoteNumber":63,"Velocity":50,"Duration":252716,"SoundDuration":252716,"Delta":16550663},{"NoteNumber":55,"Velocity":26,"Duration":189537,"SoundDuration":189537,"Delta":16550663},{"NoteNumber":57,"Velocity":31,"Duration":189537,"SoundDuration":189537,"Delta":16550663},{"NoteNumber":62,"Velocity":58,"Duration":256257,"SoundDuration":256257,"Delta":16803379},{"NoteNumber":55,"Velocity":37,"Duration":760716,"SoundDuration":760716,"Delta":16803379},{"NoteNumber":70,"Velocity":54,"Duration":247015,"SoundDuration":247015,"Delta":17059636},{"NoteNumber":54,"Velocity":26,"Duration":185261,"SoundDuration":185261,"Delta":17059636},{"NoteNumber":60,"Velocity":31,"Duration":185261,"SoundDuration":185261,"Delta":17059636},{"NoteNumber":69,"Velocity":49,"Duration":125504,"SoundDuration":125504,"Delta":17306651},{"NoteNumber":54,"Velocity":26,"Duration":193083,"SoundDuration":193083,"Delta":17306651},{"NoteNumber":60,"Velocity":31,"Duration":193083,"SoundDuration":193083,"Delta":17306651},{"NoteNumber":69,"Velocity":42,"Duration":64361,"SoundDuration":64361,"Delta":17435373},{"NoteNumber":70,"Velocity":42,"Duration":64361,"SoundDuration":64361,"Delta":17478281},{"NoteNumber":69,"Velocity":50,"Duration":498546,"SoundDuration":498546,"Delta":17564096},{"NoteNumber":55,"Velocity":37,"Duration":776891,"SoundDuration":776891,"Delta":17564096},{"NoteNumber":62,"Velocity":31,"Duration":186954,"SoundDuration":186954,"Delta":17813369},{"NoteNumber":58,"Velocity":26,"Duration":186954,"SoundDuration":186954,"Delta":17813369},{"NoteNumber":67,"Velocity":46,"Duration":278345,"SoundDuration":278345,"Delta":18062642},{"NoteNumber":58,"Velocity":26,"Duration":208758,"SoundDuration":208758,"Delta":18062642},{"NoteNumber":62,"Velocity":31,"Duration":208758,"SoundDuration":208758,"Delta":18062642},{"NoteNumber":77,"Velocity":54,"Duration":75540,"SoundDuration":75540,"Delta":18340987},{"NoteNumber":50,"Velocity":37,"Duration":730019,"SoundDuration":730019,"Delta":18340987},{"NoteNumber":82,"Velocity":46,"Duration":75540,"SoundDuration":75540,"Delta":18416527},{"NoteNumber":89,"Velocity":40,"Duration":75540,"SoundDuration":75540,"Delta":18492067},{"NoteNumber":77,"Velocity":50,"Duration":276778,"SoundDuration":276778,"Delta":18567607},{"NoteNumber":53,"Velocity":26,"Duration":207583,"SoundDuration":207583,"Delta":18567607},{"NoteNumber":58,"Velocity":31,"Duration":207583,"SoundDuration":207583,"Delta":18567607},{"NoteNumber":65,"Velocity":54,"Duration":75540,"SoundDuration":75540,"Delta":18844386},{"NoteNumber":53,"Velocity":26,"Duration":169965,"SoundDuration":169965,"Delta":18844386},{"NoteNumber":58,"Velocity":31,"Duration":169965,"SoundDuration":169965,"Delta":18844386},{"NoteNumber":74,"Velocity":46,"Duration":75540,"SoundDuration":75540,"Delta":18919926},{"NoteNumber":77,"Velocity":40,"Duration":75540,"SoundDuration":75540,"Delta":18995466},{"NoteNumber":65,"Velocity":59,"Duration":250396,"SoundDuration":250396,"Delta":19071006},{"NoteNumber":48,"Velocity":37,"Duration":751251,"SoundDuration":751251,"Delta":19071006},{"NoteNumber":55,"Velocity":26,"Duration":186104,"SoundDuration":186104,"Delta":19321403},{"NoteNumber":58,"Velocity":31,"Duration":186104,"SoundDuration":186104,"Delta":19321403},{"NoteNumber":63,"Velocity":50,"Duration":126358,"SoundDuration":126358,"Delta":19569542},{"NoteNumber":55,"Velocity":26,"Duration":189537,"SoundDuration":189537,"Delta":19569542},{"NoteNumber":58,"Velocity":31,"Duration":189537,"SoundDuration":189537,"Delta":19569542},{"NoteNumber":63,"Velocity":58,"Duration":78455,"SoundDuration":78455,"Delta":19822258},{"NoteNumber":41,"Velocity":37,"Duration":755184,"SoundDuration":755184,"Delta":19822258},{"NoteNumber":65,"Velocity":48,"Duration":78455,"SoundDuration":78455,"Delta":19900714},{"NoteNumber":63,"Velocity":48,"Duration":78456,"SoundDuration":78456,"Delta":19979170},{"NoteNumber":62,"Velocity":55,"Duration":247015,"SoundDuration":247015,"Delta":20057626},{"NoteNumber":53,"Velocity":26,"Duration":185261,"SoundDuration":185261,"Delta":20057626},{"NoteNumber":57,"Velocity":31,"Duration":185261,"SoundDuration":185261,"Delta":20057626},{"NoteNumber":60,"Velocity":50,"Duration":136400,"SoundDuration":136400,"Delta":20304641},{"NoteNumber":53,"Velocity":26,"Duration":204601,"SoundDuration":204601,"Delta":20304641},{"NoteNumber":57,"Velocity":31,"Duration":204601,"SoundDuration":204601,"Delta":20304641},{"NoteNumber":60,"Velocity":45,"Duration":68200,"SoundDuration":68200,"Delta":20509242},{"NoteNumber":63,"Velocity":50,"Duration":498546,"SoundDuration":498546,"Delta":20577443},{"NoteNumber":46,"Velocity":37,"Duration":754803,"SoundDuration":754803,"Delta":20577443},{"NoteNumber":58,"Velocity":31,"Duration":186954,"SoundDuration":186954,"Delta":20826716},{"NoteNumber":53,"Velocity":26,"Duration":186954,"SoundDuration":186954,"Delta":20826716},{"NoteNumber":62,"Velocity":46,"Duration":256257,"SoundDuration":256257,"Delta":21075989},{"NoteNumber":53,"Velocity":26,"Duration":192192,"SoundDuration":192192,"Delta":21075989},{"NoteNumber":58,"Velocity":31,"Duration":192192,"SoundDuration":192192,"Delta":21075989},{"NoteNumber":74,"Velocity":54,"Duration":75540,"SoundDuration":75540,"Delta":21332246},{"NoteNumber":46,"Velocity":37,"Duration":731301,"SoundDuration":731301,"Delta":21332246},{"NoteNumber":79,"Velocity":46,"Duration":75540,"SoundDuration":75540,"Delta":21407786},{"NoteNumber":86,"Velocity":40,"Duration":75540,"SoundDuration":75540,"Delta":21483326},{"NoteNumber":74,"Velocity":50,"Duration":278061,"SoundDuration":278061,"Delta":21558866},{"NoteNumber":50,"Velocity":26,"Duration":208545,"SoundDuration":208545,"Delta":21558866},{"NoteNumber":55,"Velocity":31,"Duration":208545,"SoundDuration":208545,"Delta":21558866},{"NoteNumber":62,"Velocity":54,"Duration":75540,"SoundDuration":75540,"Delta":21836927},{"NoteNumber":50,"Velocity":26,"Duration":169965,"SoundDuration":169965,"Delta":21836927},{"NoteNumber":55,"Velocity":31,"Duration":169965,"SoundDuration":169965,"Delta":21836927},{"NoteNumber":67,"Velocity":46,"Duration":75540,"SoundDuration":75540,"Delta":21912467},{"NoteNumber":74,"Velocity":40,"Duration":75540,"SoundDuration":75540,"Delta":21988008},{"NoteNumber":62,"Velocity":59,"Duration":250396,"SoundDuration":250396,"Delta":22063548},{"NoteNumber":45,"Velocity":37,"Duration":751251,"SoundDuration":751251,"Delta":22063548},{"NoteNumber":51,"Velocity":26,"Duration":186104,"SoundDuration":186104,"Delta":22313944},{"NoteNumber":55,"Velocity":31,"Duration":186104,"SoundDuration":186104,"Delta":22313944},{"NoteNumber":60,"Velocity":50,"Duration":126358,"SoundDuration":126358,"Delta":22562083},{"NoteNumber":51,"Velocity":26,"Duration":189537,"SoundDuration":189537,"Delta":22562083},{"NoteNumber":55,"Velocity":31,"Duration":189537,"SoundDuration":189537,"Delta":22562083},{"NoteNumber":60,"Velocity":58,"Duration":78455,"SoundDuration":78455,"Delta":22814800},{"NoteNumber":38,"Velocity":37,"Duration":235368,"SoundDuration":235368,"Delta":22814800},{"NoteNumber":62,"Velocity":48,"Duration":78455,"SoundDuration":78455,"Delta":22893256},{"NoteNumber":60,"Velocity":48,"Duration":78456,"SoundDuration":78456,"Delta":22971712},{"NoteNumber":58,"Velocity":55,"Duration":247015,"SoundDuration":247015,"Delta":23050168},{"NoteNumber":50,"Velocity":26,"Duration":185261,"SoundDuration":185261,"Delta":23050168},{"NoteNumber":54,"Velocity":31,"Duration":185261,"SoundDuration":185261,"Delta":23050168},{"NoteNumber":57,"Velocity":50,"Duration":136400,"SoundDuration":136400,"Delta":23297183},{"NoteNumber":50,"Velocity":26,"Duration":204601,"SoundDuration":204601,"Delta":23297183},{"NoteNumber":54,"Velocity":31,"Duration":204601,"SoundDuration":204601,"Delta":23297183},{"NoteNumber":57,"Velocity":45,"Duration":68200,"SoundDuration":68200,"Delta":23479050},{"NoteNumber":60,"Velocity":50,"Duration":498546,"SoundDuration":498546,"Delta":23569984},{"NoteNumber":43,"Velocity":37,"Duration":772719,"SoundDuration":772719,"Delta":23569984},{"NoteNumber":55,"Velocity":31,"Duration":186954,"SoundDuration":186954,"Delta":23819257},{"NoteNumber":50,"Velocity":26,"Duration":186954,"SoundDuration":186954,"Delta":23819257},{"NoteNumber":58,"Velocity":46,"Duration":274173,"SoundDuration":274173,"Delta":24068530},{"NoteNumber":50,"Velocity":26,"Duration":205629,"SoundDuration":205629,"Delta":24068530},{"NoteNumber":55,"Velocity":31,"Duration":205629,"SoundDuration":205629,"Delta":24068530},{"NoteNumber":67,"Velocity":54,"Duration":74799,"SoundDuration":74799,"Delta":24342703},{"NoteNumber":39,"Velocity":33,"Duration":112199,"SoundDuration":112199,"Delta":24342703},{"NoteNumber":51,"Velocity":40,"Duration":112199,"SoundDuration":112199,"Delta":24342703},{"NoteNumber":75,"Velocity":46,"Duration":74799,"SoundDuration":74799,"Delta":24417503},{"NoteNumber":79,"Velocity":40,"Duration":74799,"SoundDuration":74799,"Delta":24492303},{"NoteNumber":67,"Velocity":57,"Duration":243724,"SoundDuration":243724,"Delta":24567103},{"NoteNumber":50,"Velocity":42,"Duration":121862,"SoundDuration":121862,"Delta":24567103},{"NoteNumber":38,"Velocity":34,"Duration":121862,"SoundDuration":121862,"Delta":24567103},{"NoteNumber":51,"Velocity":46,"Duration":126358,"SoundDuration":126358,"Delta":24810827},{"NoteNumber":39,"Velocity":38,"Duration":126358,"SoundDuration":126358,"Delta":24810827},{"NoteNumber":68,"Velocity":59,"Duration":73697,"SoundDuration":73697,"Delta":25063543},{"NoteNumber":36,"Velocity":36,"Duration":110545,"SoundDuration":110545,"Delta":25063543},{"NoteNumber":48,"Velocity":44,"Duration":110545,"SoundDuration":110545,"Delta":25063543},{"NoteNumber":75,"Velocity":50,"Duration":73697,"SoundDuration":73697,"Delta":25137241},{"NoteNumber":80,"Velocity":44,"Duration":73697,"SoundDuration":73697,"Delta":25210938},{"NoteNumber":68,"Velocity":50,"Duration":243724,"SoundDuration":243724,"Delta":25284635},{"NoteNumber":47,"Velocity":46,"Duration":121862,"SoundDuration":121862,"Delta":25284635},{"NoteNumber":35,"Velocity":37,"Duration":121862,"SoundDuration":121862,"Delta":25284635},{"NoteNumber":36,"Velocity":33,"Duration":125198,"SoundDuration":125198,"Delta":25528359},{"NoteNumber":48,"Velocity":37,"Duration":125198,"SoundDuration":125198,"Delta":25528359},{"NoteNumber":66,"Velocity":64,"Duration":72891,"SoundDuration":72891,"Delta":25778756},{"NoteNumber":38,"Velocity":40,"Duration":109337,"SoundDuration":109337,"Delta":25778756},{"NoteNumber":50,"Velocity":49,"Duration":109337,"SoundDuration":109337,"Delta":25778756},{"NoteNumber":72,"Velocity":55,"Duration":72891,"SoundDuration":72891,"Delta":25851647},{"NoteNumber":78,"Velocity":48,"Duration":72891,"SoundDuration":72891,"Delta":25924539},{"NoteNumber":66,"Velocity":68,"Duration":238303,"SoundDuration":238303,"Delta":25997431},{"NoteNumber":49,"Velocity":50,"Duration":119151,"SoundDuration":119151,"Delta":25997431},{"NoteNumber":37,"Velocity":42,"Duration":119151,"SoundDuration":119151,"Delta":25997431},{"NoteNumber":50,"Velocity":55,"Duration":124069,"SoundDuration":124069,"Delta":26235734},{"NoteNumber":38,"Velocity":44,"Duration":124069,"SoundDuration":124069,"Delta":26235734},{"NoteNumber":67,"Velocity":67,"Duration":71413,"SoundDuration":71413,"Delta":26483873},{"NoteNumber":34,"Velocity":46,"Duration":107119,"SoundDuration":107119,"Delta":26483873},{"NoteNumber":46,"Velocity":55,"Duration":107119,"SoundDuration":107119,"Delta":26483873},{"NoteNumber":74,"Velocity":57,"Duration":71413,"SoundDuration":71413,"Delta":26555287},{"NoteNumber":79,"Velocity":50,"Duration":71413,"SoundDuration":71413,"Delta":26626700},{"NoteNumber":67,"Velocity":57,"Duration":231857,"SoundDuration":231857,"Delta":26698113},{"NoteNumber":45,"Velocity":57,"Duration":115928,"SoundDuration":115928,"Delta":26698113},{"NoteNumber":33,"Velocity":47,"Duration":115928,"SoundDuration":115928,"Delta":26698113},{"NoteNumber":34,"Velocity":40,"Duration":123061,"SoundDuration":123061,"Delta":26929970},{"NoteNumber":46,"Velocity":47,"Duration":123061,"SoundDuration":123061,"Delta":26929970},{"NoteNumber":63,"Velocity":73,"Duration":70977,"SoundDuration":70977,"Delta":27176094},{"NoteNumber":36,"Velocity":46,"Duration":106466,"SoundDuration":106466,"Delta":27176094},{"NoteNumber":48,"Velocity":56,"Duration":106466,"SoundDuration":106466,"Delta":27176094},{"NoteNumber":67,"Velocity":63,"Duration":70977,"SoundDuration":70977,"Delta":27247071},{"NoteNumber":75,"Velocity":55,"Duration":70977,"SoundDuration":70977,"Delta":27318048},{"NoteNumber":63,"Velocity":78,"Duration":230964,"SoundDuration":230964,"Delta":27389026},{"NoteNumber":47,"Velocity":57,"Duration":115482,"SoundDuration":115482,"Delta":27389026},{"NoteNumber":35,"Velocity":48,"Duration":115482,"SoundDuration":115482,"Delta":27389026},{"NoteNumber":48,"Velocity":62,"Duration":122558,"SoundDuration":122558,"Delta":27619990},{"NoteNumber":36,"Velocity":50,"Duration":122558,"SoundDuration":122558,"Delta":27619990},{"NoteNumber":60,"Velocity":80,"Duration":72833,"SoundDuration":72833,"Delta":27865108},{"NoteNumber":39,"Velocity":50,"Duration":109249,"SoundDuration":109249,"Delta":27865108},{"NoteNumber":51,"Velocity":60,"Duration":109249,"SoundDuration":109249,"Delta":27865108},{"NoteNumber":67,"Velocity":69,"Duration":72833,"SoundDuration":72833,"Delta":27937941},{"NoteNumber":72,"Velocity":59,"Duration":72833,"SoundDuration":72833,"Delta":28010775},{"NoteNumber":60,"Velocity":85,"Duration":250396,"SoundDuration":250396,"Delta":28083608},{"NoteNumber":50,"Velocity":62,"Duration":125198,"SoundDuration":125198,"Delta":28083608},{"NoteNumber":38,"Velocity":52,"Duration":125198,"SoundDuration":125198,"Delta":28083608},{"NoteNumber":51,"Velocity":68,"Duration":139172,"SoundDuration":139172,"Delta":28334004},{"NoteNumber":39,"Velocity":56,"Duration":139172,"SoundDuration":139172,"Delta":28334004},{"NoteNumber":62,"Velocity":85,"Duration":76109,"SoundDuration":76109,"Delta":28612349},{"NoteNumber":38,"Velocity":49,"Duration":114163,"SoundDuration":114163,"Delta":28612349},{"NoteNumber":50,"Velocity":58,"Duration":114163,"SoundDuration":114163,"Delta":28612349},{"NoteNumber":67,"Velocity":74,"Duration":76109,"SoundDuration":76109,"Delta":28688459},{"NoteNumber":62,"Velocity":64,"Duration":76109,"SoundDuration":76109,"Delta":28764568},{"NoteNumber":61,"Velocity":86,"Duration":127615,"SoundDuration":127615,"Delta":28840677},{"NoteNumber":37,"Velocity":48,"Duration":127615,"SoundDuration":127615,"Delta":28840677},{"NoteNumber":49,"Velocity":57,"Duration":127615,"SoundDuration":127615,"Delta":28840677},{"NoteNumber":62,"Velocity":93,"Duration":139172,"SoundDuration":139172,"Delta":29100743},{"NoteNumber":38,"Velocity":57,"Duration":139172,"SoundDuration":139172,"Delta":29100743},{"NoteNumber":50,"Velocity":67,"Duration":139172,"SoundDuration":139172,"Delta":29100743},{"NoteNumber":67,"Velocity":96,"Duration":145829,"SoundDuration":145829,"Delta":29379088},{"NoteNumber":55,"Velocity":80,"Duration":145829,"SoundDuration":145829,"Delta":29379088},{"NoteNumber":43,"Velocity":67,"Duration":145829,"SoundDuration":145829,"Delta":29379088},{"NoteNumber":67,"Velocity":87,"Duration":140594,"SoundDuration":140594,"Delta":29670747},{"NoteNumber":70,"Velocity":87,"Duration":140594,"SoundDuration":140594,"Delta":29670747},{"NoteNumber":79,"Velocity":103,"Duration":140594,"SoundDuration":140594,"Delta":29670747},{"NoteNumber":55,"Velocity":78,"Duration":140594,"SoundDuration":140594,"Delta":29670747},{"NoteNumber":50,"Velocity":65,"Duration":140594,"SoundDuration":140594,"Delta":29670747},{"NoteNumber":43,"Velocity":65,"Duration":140594,"SoundDuration":140594,"Delta":29670747},{"NoteNumber":86,"Velocity":54,"Duration":107999,"SoundDuration":107999,"Delta":30233124},{"NoteNumber":74,"Velocity":50,"Duration":113731,"SoundDuration":113731,"Delta":30449122},{"NoteNumber":62,"Velocity":39,"Duration":125638,"SoundDuration":125638,"Delta":30676585},{"NoteNumber":79,"Velocity":54,"Duration":109178,"SoundDuration":109178,"Delta":30927862},{"NoteNumber":67,"Velocity":50,"Duration":115039,"SoundDuration":115039,"Delta":31146219},{"NoteNumber":55,"Velocity":39,"Duration":131706,"SoundDuration":131706,"Delta":31376298},{"NoteNumber":74,"Velocity":54,"Duration":120259,"SoundDuration":120259,"Delta":31639710},{"NoteNumber":62,"Velocity":50,"Duration":143540,"SoundDuration":143540,"Delta":31880229},{"NoteNumber":50,"Velocity":39,"Duration":166870,"SoundDuration":166870,"Delta":32167311},{"NoteNumber":74,"Velocity":54,"Duration":791851,"SoundDuration":791851,"Delta":32501052},{"NoteNumber":62,"Velocity":37,"Duration":791851,"SoundDuration":791851,"Delta":32501052},{"NoteNumber":71,"Velocity":34,"Duration":255123,"SoundDuration":255123,"Delta":32746772},{"NoteNumber":67,"Velocity":28,"Duration":255123,"SoundDuration":255123,"Delta":32746772},{"NoteNumber":55,"Velocity":22,"Duration":255123,"SoundDuration":255123,"Delta":32746772},{"NoteNumber":59,"Velocity":26,"Duration":255123,"SoundDuration":255123,"Delta":32746772},{"NoteNumber":71,"Velocity":34,"Duration":291007,"SoundDuration":291007,"Delta":33001896},{"NoteNumber":67,"Velocity":28,"Duration":291007,"SoundDuration":291007,"Delta":33001896},{"NoteNumber":55,"Velocity":22,"Duration":291007,"SoundDuration":291007,"Delta":33001896},{"NoteNumber":59,"Velocity":26,"Duration":291007,"SoundDuration":291007,"Delta":33001896},{"NoteNumber":76,"Velocity":59,"Duration":809018,"SoundDuration":809018,"Delta":33292904},{"NoteNumber":64,"Velocity":40,"Duration":809018,"SoundDuration":809018,"Delta":33292904},{"NoteNumber":71,"Velocity":38,"Duration":261803,"SoundDuration":261803,"Delta":33544814},{"NoteNumber":67,"Velocity":31,"Duration":261803,"SoundDuration":261803,"Delta":33544814},{"NoteNumber":55,"Velocity":24,"Duration":261803,"SoundDuration":261803,"Delta":33544814},{"NoteNumber":59,"Velocity":28,"Duration":261803,"SoundDuration":261803,"Delta":33544814},{"NoteNumber":71,"Velocity":38,"Duration":295304,"SoundDuration":295304,"Delta":33806617},{"NoteNumber":67,"Velocity":31,"Duration":295304,"SoundDuration":295304,"Delta":33806617},{"NoteNumber":55,"Velocity":24,"Duration":295304,"SoundDuration":295304,"Delta":33806617},{"NoteNumber":59,"Velocity":28,"Duration":295304,"SoundDuration":295304,"Delta":33806617},{"NoteNumber":76,"Velocity":64,"Duration":801587,"SoundDuration":801587,"Delta":34101922},{"NoteNumber":64,"Velocity":46,"Duration":801587,"SoundDuration":801587,"Delta":34101922},{"NoteNumber":69,"Velocity":33,"Duration":261803,"SoundDuration":261803,"Delta":34350699},{"NoteNumber":66,"Velocity":28,"Duration":261803,"SoundDuration":261803,"Delta":34350699},{"NoteNumber":54,"Velocity":21,"Duration":261803,"SoundDuration":261803,"Delta":34350699},{"NoteNumber":57,"Velocity":24,"Duration":261803,"SoundDuration":261803,"Delta":34350699},{"NoteNumber":69,"Velocity":33,"Duration":291007,"SoundDuration":291007,"Delta":34612502},{"NoteNumber":66,"Velocity":28,"Duration":291007,"SoundDuration":291007,"Delta":34612502},{"NoteNumber":54,"Velocity":21,"Duration":291007,"SoundDuration":291007,"Delta":34612502},{"NoteNumber":57,"Velocity":24,"Duration":291007,"SoundDuration":291007,"Delta":34612502},{"NoteNumber":74,"Velocity":54,"Duration":123874,"SoundDuration":123874,"Delta":34903510},{"NoteNumber":62,"Velocity":37,"Duration":766219,"SoundDuration":766219,"Delta":34903510},{"NoteNumber":74,"Velocity":70,"Duration":75820,"SoundDuration":75820,"Delta":35151259},{"NoteNumber":54,"Velocity":22,"Duration":227462,"SoundDuration":227462,"Delta":35151259},{"NoteNumber":57,"Velocity":26,"Duration":227462,"SoundDuration":227462,"Delta":35151259},{"NoteNumber":81,"Velocity":49,"Duration":75820,"SoundDuration":75820,"Delta":35227080},{"NoteNumber":86,"Velocity":49,"Duration":75820,"SoundDuration":75820,"Delta":35302901},{"NoteNumber":74,"Velocity":63,"Duration":291007,"SoundDuration":291007,"Delta":35378722},{"NoteNumber":54,"Velocity":18,"Duration":291007,"SoundDuration":291007,"Delta":35378722},{"NoteNumber":57,"Velocity":22,"Duration":291007,"SoundDuration":291007,"Delta":35378722},{"NoteNumber":74,"Velocity":54,"Duration":785651,"SoundDuration":785651,"Delta":35669730},{"NoteNumber":62,"Velocity":37,"Duration":785651,"SoundDuration":785651,"Delta":35669730},{"NoteNumber":67,"Velocity":34,"Duration":255123,"SoundDuration":255123,"Delta":35917479},{"NoteNumber":64,"Velocity":28,"Duration":255123,"SoundDuration":255123,"Delta":35917479},{"NoteNumber":52,"Velocity":17,"Duration":255123,"SoundDuration":255123,"Delta":35917479},{"NoteNumber":55,"Velocity":20,"Duration":255123,"SoundDuration":255123,"Delta":35917479},{"NoteNumber":67,"Velocity":34,"Duration":282778,"SoundDuration":282778,"Delta":36172603},{"NoteNumber":64,"Velocity":28,"Duration":282778,"SoundDuration":282778,"Delta":36172603},{"NoteNumber":52,"Velocity":17,"Duration":282778,"SoundDuration":282778,"Delta":36172603},{"NoteNumber":55,"Velocity":20,"Duration":282778,"SoundDuration":282778,"Delta":36172603},{"NoteNumber":72,"Velocity":59,"Duration":508123,"SoundDuration":508123,"Delta":36455382},{"NoteNumber":60,"Velocity":40,"Duration":508123,"SoundDuration":508123,"Delta":36455382},{"NoteNumber":67,"Velocity":38,"Duration":521488,"SoundDuration":521488,"Delta":36707292},{"NoteNumber":64,"Velocity":31,"Duration":521488,"SoundDuration":521488,"Delta":36707292},{"NoteNumber":52,"Velocity":19,"Duration":521488,"SoundDuration":521488,"Delta":36707292},{"NoteNumber":55,"Velocity":22,"Duration":521488,"SoundDuration":521488,"Delta":36707292},{"NoteNumber":74,"Velocity":45,"Duration":265275,"SoundDuration":265275,"Delta":36963505},{"NoteNumber":62,"Velocity":28,"Duration":265275,"SoundDuration":265275,"Delta":36963505},{"NoteNumber":72,"Velocity":61,"Duration":801587,"SoundDuration":801587,"Delta":37228781},{"NoteNumber":60,"Velocity":46,"Duration":801587,"SoundDuration":801587,"Delta":37228781},{"NoteNumber":66,"Velocity":33,"Duration":261803,"SoundDuration":261803,"Delta":37477558},{"NoteNumber":63,"Velocity":28,"Duration":261803,"SoundDuration":261803,"Delta":37477558},{"NoteNumber":51,"Velocity":16,"Duration":261803,"SoundDuration":261803,"Delta":37477558},{"NoteNumber":54,"Velocity":19,"Duration":261803,"SoundDuration":261803,"Delta":37477558},{"NoteNumber":66,"Velocity":33,"Duration":291007,"SoundDuration":291007,"Delta":37739361},{"NoteNumber":63,"Velocity":28,"Duration":291007,"SoundDuration":291007,"Delta":37739361},{"NoteNumber":51,"Velocity":16,"Duration":291007,"SoundDuration":291007,"Delta":37739361},{"NoteNumber":54,"Velocity":19,"Duration":291007,"SoundDuration":291007,"Delta":37739361},{"NoteNumber":71,"Velocity":54,"Duration":123874,"SoundDuration":123874,"Delta":38030369},{"NoteNumber":59,"Velocity":37,"Duration":767957,"SoundDuration":767957,"Delta":38030369},{"NoteNumber":71,"Velocity":65,"Duration":76399,"SoundDuration":76399,"Delta":38278118},{"NoteNumber":51,"Velocity":22,"Duration":229199,"SoundDuration":229199,"Delta":38278118},{"NoteNumber":54,"Velocity":26,"Duration":229199,"SoundDuration":229199,"Delta":38278118},{"NoteNumber":78,"Velocity":46,"Duration":76399,"SoundDuration":76399,"Delta":38354518},{"NoteNumber":83,"Velocity":46,"Duration":76399,"SoundDuration":76399,"Delta":38430918},{"NoteNumber":71,"Velocity":65,"Duration":291007,"SoundDuration":291007,"Delta":38507318},{"NoteNumber":51,"Velocity":18,"Duration":291007,"SoundDuration":291007,"Delta":38507318},{"NoteNumber":54,"Velocity":22,"Duration":291007,"SoundDuration":291007,"Delta":38507318},{"NoteNumber":71,"Velocity":54,"Duration":780419,"SoundDuration":780419,"Delta":38798326},{"NoteNumber":59,"Velocity":37,"Duration":780419,"SoundDuration":780419,"Delta":38798326},{"NoteNumber":67,"Velocity":34,"Duration":255123,"SoundDuration":255123,"Delta":39046076},{"NoteNumber":62,"Velocity":28,"Duration":255123,"SoundDuration":255123,"Delta":39046076},{"NoteNumber":50,"Velocity":22,"Duration":255123,"SoundDuration":255123,"Delta":39046076},{"NoteNumber":55,"Velocity":26,"Duration":255123,"SoundDuration":255123,"Delta":39046076},{"NoteNumber":67,"Velocity":34,"Duration":277546,"SoundDuration":277546,"Delta":39301199},{"NoteNumber":62,"Velocity":28,"Duration":277546,"SoundDuration":277546,"Delta":39301199},{"NoteNumber":50,"Velocity":22,"Duration":277546,"SoundDuration":277546,"Delta":39301199},{"NoteNumber":55,"Velocity":26,"Duration":277546,"SoundDuration":277546,"Delta":39301199},{"NoteNumber":67,"Velocity":59,"Duration":800547,"SoundDuration":800547,"Delta":39578746},{"NoteNumber":55,"Velocity":40,"Duration":800547,"SoundDuration":800547,"Delta":39578746},{"NoteNumber":62,"Velocity":34,"Duration":261803,"SoundDuration":261803,"Delta":39830656},{"NoteNumber":59,"Velocity":28,"Duration":261803,"SoundDuration":261803,"Delta":39830656},{"NoteNumber":47,"Velocity":24,"Duration":261803,"SoundDuration":261803,"Delta":39830656},{"NoteNumber":50,"Velocity":28,"Duration":261803,"SoundDuration":261803,"Delta":39830656},{"NoteNumber":62,"Velocity":34,"Duration":286834,"SoundDuration":286834,"Delta":40092459},{"NoteNumber":59,"Velocity":28,"Duration":286834,"SoundDuration":286834,"Delta":40092459},{"NoteNumber":47,"Velocity":24,"Duration":286834,"SoundDuration":286834,"Delta":40092459},{"NoteNumber":50,"Velocity":28,"Duration":286834,"SoundDuration":286834,"Delta":40092459},{"NoteNumber":69,"Velocity":64,"Duration":822787,"SoundDuration":822787,"Delta":40379294},{"NoteNumber":57,"Velocity":49,"Duration":822787,"SoundDuration":822787,"Delta":40379294},{"NoteNumber":63,"Velocity":33,"Duration":261803,"SoundDuration":261803,"Delta":40628071},{"NoteNumber":67,"Velocity":39,"Duration":261803,"SoundDuration":261803,"Delta":40628071},{"NoteNumber":55,"Velocity":31,"Duration":261803,"SoundDuration":261803,"Delta":40628071},{"NoteNumber":48,"Velocity":26,"Duration":261803,"SoundDuration":261803,"Delta":40628071},{"NoteNumber":63,"Velocity":33,"Duration":312207,"SoundDuration":312207,"Delta":40889874},{"NoteNumber":67,"Velocity":39,"Duration":312207,"SoundDuration":312207,"Delta":40889874},{"NoteNumber":55,"Velocity":31,"Duration":312207,"SoundDuration":312207,"Delta":40889874},{"NoteNumber":48,"Velocity":26,"Duration":312207,"SoundDuration":312207,"Delta":40889874},{"NoteNumber":72,"Velocity":68,"Duration":774145,"SoundDuration":774145,"Delta":41202081},{"NoteNumber":60,"Velocity":54,"Duration":774145,"SoundDuration":774145,"Delta":41202081},{"NoteNumber":67,"Velocity":34,"Duration":255123,"SoundDuration":255123,"Delta":41449831},{"NoteNumber":69,"Velocity":41,"Duration":255123,"SoundDuration":255123,"Delta":41449831},{"NoteNumber":55,"Velocity":38,"Duration":255123,"SoundDuration":255123,"Delta":41449831},{"NoteNumber":51,"Velocity":32,"Duration":255123,"SoundDuration":255123,"Delta":41449831},{"NoteNumber":67,"Velocity":34,"Duration":271272,"SoundDuration":271272,"Delta":41704954},{"NoteNumber":69,"Velocity":41,"Duration":271272,"SoundDuration":271272,"Delta":41704954},{"NoteNumber":55,"Velocity":38,"Duration":271272,"SoundDuration":271272,"Delta":41704954},{"NoteNumber":51,"Velocity":32,"Duration":271272,"SoundDuration":271272,"Delta":41704954},{"NoteNumber":71,"Velocity":64,"Duration":789982,"SoundDuration":789982,"Delta":41976227},{"NoteNumber":59,"Velocity":51,"Duration":789982,"SoundDuration":789982,"Delta":41976227},{"NoteNumber":62,"Velocity":33,"Duration":261803,"SoundDuration":261803,"Delta":42228137},{"NoteNumber":67,"Velocity":39,"Duration":261803,"SoundDuration":261803,"Delta":42228137},{"NoteNumber":55,"Velocity":37,"Duration":261803,"SoundDuration":261803,"Delta":42228137},{"NoteNumber":50,"Velocity":31,"Duration":261803,"SoundDuration":261803,"Delta":42228137},{"NoteNumber":62,"Velocity":32,"Duration":276268,"SoundDuration":276268,"Delta":42489940},{"NoteNumber":67,"Velocity":39,"Duration":276268,"SoundDuration":276268,"Delta":42489940},{"NoteNumber":55,"Velocity":37,"Duration":276268,"SoundDuration":276268,"Delta":42489940},{"NoteNumber":50,"Velocity":31,"Duration":276268,"SoundDuration":276268,"Delta":42489940},{"NoteNumber":69,"Velocity":63,"Duration":801587,"SoundDuration":801587,"Delta":42766209},{"NoteNumber":57,"Velocity":50,"Duration":801587,"SoundDuration":801587,"Delta":42766209},{"NoteNumber":62,"Velocity":34,"Duration":261803,"SoundDuration":261803,"Delta":43014986},{"NoteNumber":60,"Velocity":29,"Duration":261803,"SoundDuration":261803,"Delta":43014986},{"NoteNumber":50,"Velocity":30,"Duration":261803,"SoundDuration":261803,"Delta":43014986},{"NoteNumber":54,"Velocity":36,"Duration":261803,"SoundDuration":261803,"Delta":43014986},{"NoteNumber":62,"Velocity":34,"Duration":291007,"SoundDuration":291007,"Delta":43276789},{"NoteNumber":60,"Velocity":28,"Duration":291007,"SoundDuration":291007,"Delta":43276789},{"NoteNumber":50,"Velocity":31,"Duration":291007,"SoundDuration":291007,"Delta":43276789},{"NoteNumber":54,"Velocity":37,"Duration":291007,"SoundDuration":291007,"Delta":43276789},{"NoteNumber":67,"Velocity":63,"Duration":773530,"SoundDuration":773530,"Delta":43567797},{"NoteNumber":55,"Velocity":50,"Duration":773530,"SoundDuration":773530,"Delta":43567797},{"NoteNumber":59,"Velocity":27,"Duration":261803,"SoundDuration":261803,"Delta":43816574},{"NoteNumber":62,"Velocity":32,"Duration":261803,"SoundDuration":261803,"Delta":43816574},{"NoteNumber":43,"Velocity":21,"Duration":261803,"SoundDuration":261803,"Delta":43816574},{"NoteNumber":50,"Velocity":30,"Duration":261803,"SoundDuration":261803,"Delta":43816574},{"NoteNumber":59,"Velocity":25,"Duration":262950,"SoundDuration":262950,"Delta":44078377},{"NoteNumber":62,"Velocity":30,"Duration":262950,"SoundDuration":262950,"Delta":44078377},{"NoteNumber":50,"Velocity":27,"Duration":262950,"SoundDuration":262950,"Delta":44078377},{"NoteNumber":43,"Velocity":22,"Duration":262950,"SoundDuration":262950,"Delta":44078377},{"NoteNumber":62,"Velocity":28,"Duration":257311,"SoundDuration":257311,"Delta":44341327},{"NoteNumber":59,"Velocity":22,"Duration":257311,"SoundDuration":257311,"Delta":44341327},{"NoteNumber":50,"Velocity":25,"Duration":257311,"SoundDuration":257311,"Delta":44341327},{"NoteNumber":43,"Velocity":22,"Duration":257311,"SoundDuration":257311,"Delta":44341327},{"NoteNumber":62,"Velocity":25,"Duration":264108,"SoundDuration":264108,"Delta":44598639},{"NoteNumber":59,"Velocity":22,"Duration":264108,"SoundDuration":264108,"Delta":44598639},{"NoteNumber":50,"Velocity":24,"Duration":264108,"SoundDuration":264108,"Delta":44598639},{"NoteNumber":43,"Velocity":21,"Duration":264108,"SoundDuration":264108,"Delta":44598639},{"NoteNumber":62,"Velocity":22,"Duration":329344,"SoundDuration":329344,"Delta":44862747},{"NoteNumber":59,"Velocity":19,"Duration":329344,"SoundDuration":329344,"Delta":44862747},{"NoteNumber":50,"Velocity":22,"Duration":329344,"SoundDuration":329344,"Delta":44862747},{"NoteNumber":43,"Velocity":19,"Duration":329344,"SoundDuration":329344,"Delta":44862747},{"NoteNumber":74,"Velocity":54,"Duration":809967,"SoundDuration":809967,"Delta":45192092},{"NoteNumber":62,"Velocity":37,"Duration":809967,"SoundDuration":809967,"Delta":45192092},{"NoteNumber":71,"Velocity":34,"Duration":255123,"SoundDuration":255123,"Delta":45439841},{"NoteNumber":67,"Velocity":28,"Duration":255123,"SoundDuration":255123,"Delta":45439841},{"NoteNumber":55,"Velocity":22,"Duration":255123,"SoundDuration":255123,"Delta":45439841},{"NoteNumber":59,"Velocity":26,"Duration":255123,"SoundDuration":255123,"Delta":45439841},{"NoteNumber":71,"Velocity":34,"Duration":307093,"SoundDuration":307093,"Delta":45694965},{"NoteNumber":67,"Velocity":28,"Duration":307093,"SoundDuration":307093,"Delta":45694965},{"NoteNumber":55,"Velocity":22,"Duration":307093,"SoundDuration":307093,"Delta":45694965},{"NoteNumber":59,"Velocity":26,"Duration":307093,"SoundDuration":307093,"Delta":45694965},{"NoteNumber":76,"Velocity":59,"Duration":809018,"SoundDuration":809018,"Delta":46002059},{"NoteNumber":64,"Velocity":40,"Duration":809018,"SoundDuration":809018,"Delta":46002059},{"NoteNumber":71,"Velocity":38,"Duration":261803,"SoundDuration":261803,"Delta":46253969},{"NoteNumber":67,"Velocity":31,"Duration":261803,"SoundDuration":261803,"Delta":46253969},{"NoteNumber":55,"Velocity":24,"Duration":261803,"SoundDuration":261803,"Delta":46253969},{"NoteNumber":59,"Velocity":28,"Duration":261803,"SoundDuration":261803,"Delta":46253969},{"NoteNumber":71,"Velocity":38,"Duration":295304,"SoundDuration":295304,"Delta":46515772},{"NoteNumber":67,"Velocity":31,"Duration":295304,"SoundDuration":295304,"Delta":46515772},{"NoteNumber":55,"Velocity":24,"Duration":295304,"SoundDuration":295304,"Delta":46515772},{"NoteNumber":59,"Velocity":28,"Duration":295304,"SoundDuration":295304,"Delta":46515772},{"NoteNumber":76,"Velocity":64,"Duration":801587,"SoundDuration":801587,"Delta":46811077},{"NoteNumber":64,"Velocity":46,"Duration":801587,"SoundDuration":801587,"Delta":46811077},{"NoteNumber":69,"Velocity":33,"Duration":261803,"SoundDuration":261803,"Delta":47059854},{"NoteNumber":66,"Velocity":28,"Duration":261803,"SoundDuration":261803,"Delta":47059854},{"NoteNumber":54,"Velocity":21,"Duration":261803,"SoundDuration":261803,"Delta":47059854},{"NoteNumber":57,"Velocity":24,"Duration":261803,"SoundDuration":261803,"Delta":47059854},{"NoteNumber":69,"Velocity":33,"Duration":291007,"SoundDuration":291007,"Delta":47321657},{"NoteNumber":66,"Velocity":28,"Duration":291007,"SoundDuration":291007,"Delta":47321657},{"NoteNumber":54,"Velocity":21,"Duration":291007,"SoundDuration":291007,"Delta":47321657},{"NoteNumber":57,"Velocity":24,"Duration":291007,"SoundDuration":291007,"Delta":47321657},{"NoteNumber":74,"Velocity":54,"Duration":123874,"SoundDuration":123874,"Delta":47612665},{"NoteNumber":62,"Velocity":37,"Duration":761490,"SoundDuration":761490,"Delta":47612665},{"NoteNumber":74,"Velocity":68,"Duration":74244,"SoundDuration":74244,"Delta":47860414},{"NoteNumber":54,"Velocity":22,"Duration":222733,"SoundDuration":222733,"Delta":47860414},{"NoteNumber":57,"Velocity":26,"Duration":222733,"SoundDuration":222733,"Delta":47860414},{"NoteNumber":81,"Velocity":49,"Duration":74244,"SoundDuration":74244,"Delta":47934659},{"NoteNumber":86,"Velocity":49,"Duration":74244,"SoundDuration":74244,"Delta":48008903},{"NoteNumber":74,"Velocity":63,"Duration":291007,"SoundDuration":291007,"Delta":48083148},{"NoteNumber":54,"Velocity":18,"Duration":291007,"SoundDuration":291007,"Delta":48083148},{"NoteNumber":57,"Velocity":22,"Duration":291007,"SoundDuration":291007,"Delta":48083148},{"NoteNumber":74,"Velocity":54,"Duration":785651,"SoundDuration":785651,"Delta":48374156},{"NoteNumber":62,"Velocity":37,"Duration":785651,"SoundDuration":785651,"Delta":48374156},{"NoteNumber":67,"Velocity":34,"Duration":255123,"SoundDuration":255123,"Delta":48621905},{"NoteNumber":64,"Velocity":28,"Duration":255123,"SoundDuration":255123,"Delta":48621905},{"NoteNumber":52,"Velocity":17,"Duration":255123,"SoundDuration":255123,"Delta":48621905},{"NoteNumber":55,"Velocity":20,"Duration":255123,"SoundDuration":255123,"Delta":48621905},{"NoteNumber":67,"Velocity":34,"Duration":282778,"SoundDuration":282778,"Delta":48877029},{"NoteNumber":64,"Velocity":28,"Duration":282778,"SoundDuration":282778,"Delta":48877029},{"NoteNumber":52,"Velocity":17,"Duration":282778,"SoundDuration":282778,"Delta":48877029},{"NoteNumber":55,"Velocity":20,"Duration":282778,"SoundDuration":282778,"Delta":48877029},{"NoteNumber":72,"Velocity":59,"Duration":511223,"SoundDuration":511223,"Delta":49159808},{"NoteNumber":60,"Velocity":40,"Duration":511223,"SoundDuration":511223,"Delta":49159808},{"NoteNumber":67,"Velocity":38,"Duration":530340,"SoundDuration":530340,"Delta":49411718},{"NoteNumber":64,"Velocity":31,"Duration":530340,"SoundDuration":530340,"Delta":49411718},{"NoteNumber":52,"Velocity":19,"Duration":530340,"SoundDuration":530340,"Delta":49411718},{"NoteNumber":55,"Velocity":22,"Duration":530340,"SoundDuration":530340,"Delta":49411718},{"NoteNumber":74,"Velocity":45,"Duration":271026,"SoundDuration":271026,"Delta":49671032},{"NoteNumber":62,"Velocity":28,"Duration":271026,"SoundDuration":271026,"Delta":49671032},{"NoteNumber":72,"Velocity":61,"Duration":801587,"SoundDuration":801587,"Delta":49942059},{"NoteNumber":60,"Velocity":46,"Duration":801587,"SoundDuration":801587,"Delta":49942059},{"NoteNumber":66,"Velocity":33,"Duration":261803,"SoundDuration":261803,"Delta":50190836},{"NoteNumber":63,"Velocity":28,"Duration":261803,"SoundDuration":261803,"Delta":50190836},{"NoteNumber":51,"Velocity":16,"Duration":261803,"SoundDuration":261803,"Delta":50190836},{"NoteNumber":54,"Velocity":19,"Duration":261803,"SoundDuration":261803,"Delta":50190836},{"NoteNumber":66,"Velocity":33,"Duration":291007,"SoundDuration":291007,"Delta":50452639},{"NoteNumber":63,"Velocity":28,"Duration":291007,"SoundDuration":291007,"Delta":50452639},{"NoteNumber":51,"Velocity":16,"Duration":291007,"SoundDuration":291007,"Delta":50452639},{"NoteNumber":54,"Velocity":19,"Duration":291007,"SoundDuration":291007,"Delta":50452639},{"NoteNumber":71,"Velocity":54,"Duration":123874,"SoundDuration":123874,"Delta":50743647},{"NoteNumber":59,"Velocity":37,"Duration":764848,"SoundDuration":764848,"Delta":50743647},{"NoteNumber":71,"Velocity":66,"Duration":75363,"SoundDuration":75363,"Delta":50991396},{"NoteNumber":51,"Velocity":22,"Duration":226090,"SoundDuration":226090,"Delta":50991396},{"NoteNumber":54,"Velocity":26,"Duration":226090,"SoundDuration":226090,"Delta":50991396},{"NoteNumber":78,"Velocity":46,"Duration":75363,"SoundDuration":75363,"Delta":51066760},{"NoteNumber":83,"Velocity":46,"Duration":75363,"SoundDuration":75363,"Delta":51142123},{"NoteNumber":71,"Velocity":65,"Duration":291007,"SoundDuration":291007,"Delta":51217487},{"NoteNumber":51,"Velocity":18,"Duration":291007,"SoundDuration":291007,"Delta":51217487},{"NoteNumber":54,"Velocity":22,"Duration":291007,"SoundDuration":291007,"Delta":51217487},{"NoteNumber":71,"Velocity":54,"Duration":780419,"SoundDuration":780419,"Delta":51508495},{"NoteNumber":59,"Velocity":37,"Duration":780419,"SoundDuration":780419,"Delta":51508495},{"NoteNumber":67,"Velocity":34,"Duration":255123,"SoundDuration":255123,"Delta":51756245},{"NoteNumber":62,"Velocity":28,"Duration":255123,"SoundDuration":255123,"Delta":51756245},{"NoteNumber":50,"Velocity":22,"Duration":255123,"SoundDuration":255123,"Delta":51756245},{"NoteNumber":55,"Velocity":26,"Duration":255123,"SoundDuration":255123,"Delta":51756245},{"NoteNumber":67,"Velocity":34,"Duration":277546,"SoundDuration":277546,"Delta":52011368},{"NoteNumber":62,"Velocity":28,"Duration":277546,"SoundDuration":277546,"Delta":52011368},{"NoteNumber":50,"Velocity":22,"Duration":277546,"SoundDuration":277546,"Delta":52011368},{"NoteNumber":55,"Velocity":26,"Duration":277546,"SoundDuration":277546,"Delta":52011368},{"NoteNumber":67,"Velocity":59,"Duration":807284,"SoundDuration":807284,"Delta":52288915},{"NoteNumber":55,"Velocity":40,"Duration":807284,"SoundDuration":807284,"Delta":52288915},{"NoteNumber":62,"Velocity":34,"Duration":261803,"SoundDuration":261803,"Delta":52540825},{"NoteNumber":59,"Velocity":28,"Duration":261803,"SoundDuration":261803,"Delta":52540825},{"NoteNumber":47,"Velocity":24,"Duration":261803,"SoundDuration":261803,"Delta":52540825},{"NoteNumber":50,"Velocity":28,"Duration":261803,"SoundDuration":261803,"Delta":52540825},{"NoteNumber":62,"Velocity":34,"Duration":293571,"SoundDuration":293571,"Delta":52802628},{"NoteNumber":59,"Velocity":28,"Duration":293571,"SoundDuration":293571,"Delta":52802628},{"NoteNumber":47,"Velocity":24,"Duration":293571,"SoundDuration":293571,"Delta":52802628},{"NoteNumber":50,"Velocity":28,"Duration":293571,"SoundDuration":293571,"Delta":52802628},{"NoteNumber":69,"Velocity":64,"Duration":822787,"SoundDuration":822787,"Delta":53096199},{"NoteNumber":57,"Velocity":49,"Duration":822787,"SoundDuration":822787,"Delta":53096199},{"NoteNumber":63,"Velocity":33,"Duration":261803,"SoundDuration":261803,"Delta":53344976},{"NoteNumber":67,"Velocity":39,"Duration":261803,"SoundDuration":261803,"Delta":53344976},{"NoteNumber":55,"Velocity":31,"Duration":261803,"SoundDuration":261803,"Delta":53344976},{"NoteNumber":48,"Velocity":26,"Duration":261803,"SoundDuration":261803,"Delta":53344976},{"NoteNumber":63,"Velocity":33,"Duration":312207,"SoundDuration":312207,"Delta":53606779},{"NoteNumber":67,"Velocity":39,"Duration":312207,"SoundDuration":312207,"Delta":53606779},{"NoteNumber":55,"Velocity":31,"Duration":312207,"SoundDuration":312207,"Delta":53606779},{"NoteNumber":48,"Velocity":26,"Duration":312207,"SoundDuration":312207,"Delta":53606779},{"NoteNumber":72,"Velocity":68,"Duration":774145,"SoundDuration":774145,"Delta":53918987},{"NoteNumber":60,"Velocity":54,"Duration":774145,"SoundDuration":774145,"Delta":53918987},{"NoteNumber":67,"Velocity":34,"Duration":255123,"SoundDuration":255123,"Delta":54166736},{"NoteNumber":69,"Velocity":41,"Duration":255123,"SoundDuration":255123,"Delta":54166736},{"NoteNumber":55,"Velocity":38,"Duration":255123,"SoundDuration":255123,"Delta":54166736},{"NoteNumber":51,"Velocity":32,"Duration":255123,"SoundDuration":255123,"Delta":54166736},{"NoteNumber":67,"Velocity":34,"Duration":271272,"SoundDuration":271272,"Delta":54421860},{"NoteNumber":69,"Velocity":41,"Duration":271272,"SoundDuration":271272,"Delta":54421860},{"NoteNumber":55,"Velocity":38,"Duration":271272,"SoundDuration":271272,"Delta":54421860},{"NoteNumber":51,"Velocity":32,"Duration":271272,"SoundDuration":271272,"Delta":54421860},{"NoteNumber":71,"Velocity":64,"Duration":789982,"SoundDuration":789982,"Delta":54693132},{"NoteNumber":59,"Velocity":51,"Duration":789982,"SoundDuration":789982,"Delta":54693132},{"NoteNumber":62,"Velocity":33,"Duration":261803,"SoundDuration":261803,"Delta":54945043},{"NoteNumber":67,"Velocity":39,"Duration":261803,"SoundDuration":261803,"Delta":54945043},{"NoteNumber":55,"Velocity":37,"Duration":261803,"SoundDuration":261803,"Delta":54945043},{"NoteNumber":50,"Velocity":31,"Duration":261803,"SoundDuration":261803,"Delta":54945043},{"NoteNumber":62,"Velocity":32,"Duration":276268,"SoundDuration":276268,"Delta":55206846},{"NoteNumber":67,"Velocity":39,"Duration":276268,"SoundDuration":276268,"Delta":55206846},{"NoteNumber":55,"Velocity":37,"Duration":276268,"SoundDuration":276268,"Delta":55206846},{"NoteNumber":50,"Velocity":31,"Duration":276268,"SoundDuration":276268,"Delta":55206846},{"NoteNumber":69,"Velocity":63,"Duration":805570,"SoundDuration":805570,"Delta":55483114},{"NoteNumber":57,"Velocity":50,"Duration":805570,"SoundDuration":805570,"Delta":55483114},{"NoteNumber":62,"Velocity":34,"Duration":261803,"SoundDuration":261803,"Delta":55735874},{"NoteNumber":60,"Velocity":29,"Duration":261803,"SoundDuration":261803,"Delta":55735874},{"NoteNumber":50,"Velocity":30,"Duration":261803,"SoundDuration":261803,"Delta":55735874},{"NoteNumber":54,"Velocity":36,"Duration":261803,"SoundDuration":261803,"Delta":55735874},{"NoteNumber":62,"Velocity":34,"Duration":291007,"SoundDuration":291007,"Delta":55997677},{"NoteNumber":60,"Velocity":28,"Duration":291007,"SoundDuration":291007,"Delta":55997677},{"NoteNumber":50,"Velocity":31,"Duration":291007,"SoundDuration":291007,"Delta":55997677},{"NoteNumber":54,"Velocity":37,"Duration":291007,"SoundDuration":291007,"Delta":55997677},{"NoteNumber":67,"Velocity":63,"Duration":813685,"SoundDuration":813685,"Delta":56288685},{"NoteNumber":55,"Velocity":50,"Duration":813685,"SoundDuration":813685,"Delta":56288685},{"NoteNumber":59,"Velocity":27,"Duration":261803,"SoundDuration":261803,"Delta":56539332},{"NoteNumber":62,"Velocity":32,"Duration":261803,"SoundDuration":261803,"Delta":56539332},{"NoteNumber":43,"Velocity":21,"Duration":261803,"SoundDuration":261803,"Delta":56539332},{"NoteNumber":50,"Velocity":30,"Duration":261803,"SoundDuration":261803,"Delta":56539332},{"NoteNumber":59,"Velocity":25,"Duration":301234,"SoundDuration":301234,"Delta":56801135},{"NoteNumber":62,"Velocity":30,"Duration":301234,"SoundDuration":301234,"Delta":56801135},{"NoteNumber":50,"Velocity":27,"Duration":301234,"SoundDuration":301234,"Delta":56801135},{"NoteNumber":43,"Velocity":22,"Duration":301234,"SoundDuration":301234,"Delta":56801135},{"NoteNumber":39,"Velocity":66,"Duration":805537,"SoundDuration":805537,"Delta":57102370},{"NoteNumber":51,"Velocity":79,"Duration":805537,"SoundDuration":805537,"Delta":57102370},{"NoteNumber":55,"Velocity":51,"Duration":132053,"SoundDuration":132053,"Delta":57359682},{"NoteNumber":67,"Velocity":61,"Duration":132053,"SoundDuration":132053,"Delta":57359682},{"NoteNumber":55,"Velocity":43,"Duration":142059,"SoundDuration":142059,"Delta":57623790},{"NoteNumber":67,"Velocity":52,"Duration":142059,"SoundDuration":142059,"Delta":57623790},{"NoteNumber":67,"Velocity":65,"Duration":128655,"SoundDuration":128655,"Delta":57907908},{"NoteNumber":55,"Velocity":55,"Duration":128655,"SoundDuration":128655,"Delta":57907908},{"NoteNumber":38,"Velocity":63,"Duration":796422,"SoundDuration":796422,"Delta":57907908},{"NoteNumber":50,"Velocity":74,"Duration":796422,"SoundDuration":796422,"Delta":57907908},{"NoteNumber":55,"Velocity":48,"Duration":132053,"SoundDuration":132053,"Delta":58165220},{"NoteNumber":67,"Velocity":58,"Duration":132053,"SoundDuration":132053,"Delta":58165220},{"NoteNumber":55,"Velocity":40,"Duration":137501,"SoundDuration":137501,"Delta":58429328},{"NoteNumber":67,"Velocity":47,"Duration":137501,"SoundDuration":137501,"Delta":58429328},{"NoteNumber":63,"Velocity":49,"Duration":796422,"SoundDuration":796422,"Delta":58704331},{"NoteNumber":36,"Velocity":69,"Duration":796422,"SoundDuration":796422,"Delta":58704331},{"NoteNumber":48,"Velocity":81,"Duration":796422,"SoundDuration":796422,"Delta":58704331},{"NoteNumber":55,"Velocity":48,"Duration":132053,"SoundDuration":132053,"Delta":58961643},{"NoteNumber":67,"Velocity":57,"Duration":132053,"SoundDuration":132053,"Delta":58961643},{"NoteNumber":55,"Velocity":41,"Duration":137501,"SoundDuration":137501,"Delta":59225751},{"NoteNumber":67,"Velocity":48,"Duration":137501,"SoundDuration":137501,"Delta":59225751},{"NoteNumber":62,"Velocity":53,"Duration":798966,"SoundDuration":798966,"Delta":59500753},{"NoteNumber":34,"Velocity":69,"Duration":798966,"SoundDuration":798966,"Delta":59500753},{"NoteNumber":46,"Velocity":81,"Duration":798966,"SoundDuration":798966,"Delta":59500753},{"NoteNumber":55,"Velocity":45,"Duration":132053,"SoundDuration":132053,"Delta":59758065},{"NoteNumber":67,"Velocity":53,"Duration":132053,"SoundDuration":132053,"Delta":59758065},{"NoteNumber":67,"Velocity":41,"Duration":138773,"SoundDuration":138773,"Delta":60022173},{"NoteNumber":55,"Velocity":35,"Duration":138773,"SoundDuration":138773,"Delta":60022173},{"NoteNumber":60,"Velocity":54,"Duration":805537,"SoundDuration":805537,"Delta":60299720},{"NoteNumber":39,"Velocity":63,"Duration":805537,"SoundDuration":805537,"Delta":60299720},{"NoteNumber":51,"Velocity":74,"Duration":805537,"SoundDuration":805537,"Delta":60299720},{"NoteNumber":67,"Velocity":48,"Duration":132053,"SoundDuration":132053,"Delta":60557032},{"NoteNumber":55,"Velocity":41,"Duration":132053,"SoundDuration":132053,"Delta":60557032},{"NoteNumber":67,"Velocity":41,"Duration":142059,"SoundDuration":142059,"Delta":60821140},{"NoteNumber":55,"Velocity":35,"Duration":142059,"SoundDuration":142059,"Delta":60821140},{"NoteNumber":67,"Velocity":68,"Duration":259537,"SoundDuration":259537,"Delta":61105258},{"NoteNumber":58,"Velocity":56,"Duration":259537,"SoundDuration":259537,"Delta":61105258},{"NoteNumber":55,"Velocity":56,"Duration":259537,"SoundDuration":259537,"Delta":61105258},{"NoteNumber":50,"Velocity":46,"Duration":270051,"SoundDuration":270051,"Delta":61364796},{"NoteNumber":38,"Velocity":39,"Duration":270051,"SoundDuration":270051,"Delta":61364796},{"NoteNumber":50,"Velocity":40,"Duration":293858,"SoundDuration":293858,"Delta":61634847},{"NoteNumber":38,"Velocity":34,"Duration":293858,"SoundDuration":293858,"Delta":61634847},{"NoteNumber":62,"Velocity":47,"Duration":284117,"SoundDuration":284117,"Delta":61928706},{"NoteNumber":57,"Velocity":39,"Duration":284117,"SoundDuration":284117,"Delta":61928706},{"NoteNumber":54,"Velocity":39,"Duration":284117,"SoundDuration":284117,"Delta":61928706},{"NoteNumber":38,"Velocity":33,"Duration":299729,"SoundDuration":299729,"Delta":62212824},{"NoteNumber":50,"Velocity":39,"Duration":299729,"SoundDuration":299729,"Delta":62212824},{"NoteNumber":38,"Velocity":28,"Duration":324008,"SoundDuration":324008,"Delta":62512554},{"NoteNumber":50,"Velocity":33,"Duration":324008,"SoundDuration":324008,"Delta":62512554},{"NoteNumber":55,"Velocity":39,"Duration":289602,"SoundDuration":289602,"Delta":62836563},{"NoteNumber":62,"Velocity":34,"Duration":315490,"SoundDuration":315490,"Delta":63126166},{"NoteNumber":58,"Velocity":28,"Duration":315490,"SoundDuration":315490,"Delta":63126166},{"NoteNumber":62,"Velocity":25,"Duration":358465,"SoundDuration":358465,"Delta":63441656},{"NoteNumber":58,"Velocity":21,"Duration":358465,"SoundDuration":358465,"Delta":63441656},{"NoteNumber":86,"Velocity":54,"Duration":75540,"SoundDuration":75540,"Delta":63800122},{"NoteNumber":55,"Velocity":37,"Duration":739254,"SoundDuration":739254,"Delta":63800122},{"NoteNumber":94,"Velocity":46,"Duration":75540,"SoundDuration":75540,"Delta":63875662},{"NoteNumber":98,"Velocity":40,"Duration":75540,"SoundDuration":75540,"Delta":63951202},{"NoteNumber":86,"Velocity":50,"Duration":286013,"SoundDuration":286013,"Delta":64026743},{"NoteNumber":58,"Velocity":26,"Duration":214510,"SoundDuration":214510,"Delta":64026743},{"NoteNumber":62,"Velocity":31,"Duration":214510,"SoundDuration":214510,"Delta":64026743},{"NoteNumber":74,"Velocity":54,"Duration":75540,"SoundDuration":75540,"Delta":64312757},{"NoteNumber":58,"Velocity":26,"Duration":169965,"SoundDuration":169965,"Delta":64312757},{"NoteNumber":62,"Velocity":31,"Duration":169965,"SoundDuration":169965,"Delta":64312757},{"NoteNumber":82,"Velocity":46,"Duration":75540,"SoundDuration":75540,"Delta":64388297},{"NoteNumber":86,"Velocity":40,"Duration":75540,"SoundDuration":75540,"Delta":64463837},{"NoteNumber":74,"Velocity":59,"Duration":250396,"SoundDuration":250396,"Delta":64539377},{"NoteNumber":55,"Velocity":37,"Duration":751251,"SoundDuration":751251,"Delta":64539377},{"NoteNumber":57,"Velocity":26,"Duration":186104,"SoundDuration":186104,"Delta":64789774},{"NoteNumber":60,"Velocity":26,"Duration":186104,"SoundDuration":186104,"Delta":64789774},{"NoteNumber":63,"Velocity":31,"Duration":186104,"SoundDuration":186104,"Delta":64789774},{"NoteNumber":72,"Velocity":50,"Duration":126358,"SoundDuration":126358,"Delta":65037913},{"NoteNumber":57,"Velocity":26,"Duration":189537,"SoundDuration":189537,"Delta":65037913},{"NoteNumber":60,"Velocity":26,"Duration":189537,"SoundDuration":189537,"Delta":65037913},{"NoteNumber":63,"Velocity":31,"Duration":189537,"SoundDuration":189537,"Delta":65037913},{"NoteNumber":70,"Velocity":49,"Duration":63179,"SoundDuration":63179,"Delta":65164271},{"NoteNumber":72,"Velocity":49,"Duration":63179,"SoundDuration":63179,"Delta":65227450},{"NoteNumber":70,"Velocity":58,"Duration":256257,"SoundDuration":256257,"Delta":65290629},{"NoteNumber":54,"Velocity":37,"Duration":768313,"SoundDuration":768313,"Delta":65290629},{"NoteNumber":60,"Velocity":26,"Duration":185261,"SoundDuration":185261,"Delta":65546886},{"NoteNumber":62,"Velocity":31,"Duration":185261,"SoundDuration":185261,"Delta":65546886},{"NoteNumber":69,"Velocity":49,"Duration":132520,"SoundDuration":132520,"Delta":65793901},{"NoteNumber":60,"Velocity":26,"Duration":198780,"SoundDuration":198780,"Delta":65793901},{"NoteNumber":62,"Velocity":31,"Duration":198780,"SoundDuration":198780,"Delta":65793901},{"NoteNumber":69,"Velocity":42,"Duration":66260,"SoundDuration":66260,"Delta":65992682},{"NoteNumber":72,"Velocity":50,"Duration":498546,"SoundDuration":498546,"Delta":66058942},{"NoteNumber":55,"Velocity":37,"Duration":775477,"SoundDuration":775477,"Delta":66058942},{"NoteNumber":62,"Velocity":31,"Duration":186954,"SoundDuration":186954,"Delta":66308215},{"NoteNumber":58,"Velocity":26,"Duration":186954,"SoundDuration":186954,"Delta":66308215},{"NoteNumber":70,"Velocity":46,"Duration":276931,"SoundDuration":276931,"Delta":66557488},{"NoteNumber":58,"Velocity":26,"Duration":207698,"SoundDuration":207698,"Delta":66557488},{"NoteNumber":62,"Velocity":31,"Duration":207698,"SoundDuration":207698,"Delta":66557488},{"NoteNumber":79,"Velocity":54,"Duration":75540,"SoundDuration":75540,"Delta":66834420},{"NoteNumber":46,"Velocity":37,"Duration":731301,"SoundDuration":731301,"Delta":66834420},{"NoteNumber":86,"Velocity":46,"Duration":75540,"SoundDuration":75540,"Delta":66909960},{"NoteNumber":91,"Velocity":40,"Duration":75540,"SoundDuration":75540,"Delta":66985500},{"NoteNumber":79,"Velocity":50,"Duration":278060,"SoundDuration":278060,"Delta":67061040},{"NoteNumber":50,"Velocity":26,"Duration":208545,"SoundDuration":208545,"Delta":67061040},{"NoteNumber":55,"Velocity":31,"Duration":208545,"SoundDuration":208545,"Delta":67061040},{"NoteNumber":67,"Velocity":54,"Duration":75540,"SoundDuration":75540,"Delta":67339101},{"NoteNumber":50,"Velocity":26,"Duration":169965,"SoundDuration":169965,"Delta":67339101},{"NoteNumber":55,"Velocity":31,"Duration":169965,"SoundDuration":169965,"Delta":67339101},{"NoteNumber":74,"Velocity":46,"Duration":75540,"SoundDuration":75540,"Delta":67414641},{"NoteNumber":79,"Velocity":40,"Duration":75540,"SoundDuration":75540,"Delta":67490181},{"NoteNumber":67,"Velocity":59,"Duration":250396,"SoundDuration":250396,"Delta":67565722},{"NoteNumber":48,"Velocity":37,"Duration":751251,"SoundDuration":751251,"Delta":67565722},{"NoteNumber":55,"Velocity":26,"Duration":186104,"SoundDuration":186104,"Delta":67816118},{"NoteNumber":57,"Velocity":31,"Duration":186104,"SoundDuration":186104,"Delta":67816118},{"NoteNumber":63,"Velocity":50,"Duration":252716,"SoundDuration":252716,"Delta":68064257},{"NoteNumber":55,"Velocity":26,"Duration":189537,"SoundDuration":189537,"Delta":68064257},{"NoteNumber":57,"Velocity":31,"Duration":189537,"SoundDuration":189537,"Delta":68064257},{"NoteNumber":62,"Velocity":58,"Duration":256257,"SoundDuration":256257,"Delta":68316974},{"NoteNumber":55,"Velocity":37,"Duration":760716,"SoundDuration":760716,"Delta":68316974},{"NoteNumber":70,"Velocity":54,"Duration":247015,"SoundDuration":247015,"Delta":68573231},{"NoteNumber":54,"Velocity":26,"Duration":185261,"SoundDuration":185261,"Delta":68573231},{"NoteNumber":60,"Velocity":31,"Duration":185261,"SoundDuration":185261,"Delta":68573231},{"NoteNumber":69,"Velocity":49,"Duration":125504,"SoundDuration":125504,"Delta":68820246},{"NoteNumber":54,"Velocity":26,"Duration":193083,"SoundDuration":193083,"Delta":68820246},{"NoteNumber":60,"Velocity":31,"Duration":193083,"SoundDuration":193083,"Delta":68820246},{"NoteNumber":69,"Velocity":42,"Duration":64361,"SoundDuration":64361,"Delta":68948968},{"NoteNumber":70,"Velocity":42,"Duration":64361,"SoundDuration":64361,"Delta":68991875},{"NoteNumber":69,"Velocity":50,"Duration":498546,"SoundDuration":498546,"Delta":69077690},{"NoteNumber":55,"Velocity":37,"Duration":777123,"SoundDuration":777123,"Delta":69077690},{"NoteNumber":62,"Velocity":31,"Duration":186954,"SoundDuration":186954,"Delta":69326963},{"NoteNumber":58,"Velocity":26,"Duration":186954,"SoundDuration":186954,"Delta":69326963},{"NoteNumber":67,"Velocity":46,"Duration":278577,"SoundDuration":278577,"Delta":69576236},{"NoteNumber":58,"Velocity":26,"Duration":208933,"SoundDuration":208933,"Delta":69576236},{"NoteNumber":62,"Velocity":31,"Duration":208933,"SoundDuration":208933,"Delta":69576236},{"NoteNumber":86,"Velocity":54,"Duration":75540,"SoundDuration":75540,"Delta":69854814},{"NoteNumber":55,"Velocity":37,"Duration":730019,"SoundDuration":730019,"Delta":69854814},{"NoteNumber":94,"Velocity":46,"Duration":75540,"SoundDuration":75540,"Delta":69930354},{"NoteNumber":98,"Velocity":40,"Duration":75540,"SoundDuration":75540,"Delta":70005894},{"NoteNumber":86,"Velocity":50,"Duration":276778,"SoundDuration":276778,"Delta":70081434},{"NoteNumber":58,"Velocity":26,"Duration":207583,"SoundDuration":207583,"Delta":70081434},{"NoteNumber":62,"Velocity":31,"Duration":207583,"SoundDuration":207583,"Delta":70081434},{"NoteNumber":74,"Velocity":54,"Duration":75540,"SoundDuration":75540,"Delta":70358213},{"NoteNumber":58,"Velocity":26,"Duration":169965,"SoundDuration":169965,"Delta":70358213},{"NoteNumber":62,"Velocity":31,"Duration":169965,"SoundDuration":169965,"Delta":70358213},{"NoteNumber":82,"Velocity":46,"Duration":75540,"SoundDuration":75540,"Delta":70433753},{"NoteNumber":86,"Velocity":40,"Duration":75540,"SoundDuration":75540,"Delta":70509293},{"NoteNumber":74,"Velocity":59,"Duration":250396,"SoundDuration":250396,"Delta":70584833},{"NoteNumber":55,"Velocity":37,"Duration":751251,"SoundDuration":751251,"Delta":70584833},{"NoteNumber":57,"Velocity":26,"Duration":186104,"SoundDuration":186104,"Delta":70835230},{"NoteNumber":60,"Velocity":26,"Duration":186104,"SoundDuration":186104,"Delta":70835230},{"NoteNumber":63,"Velocity":31,"Duration":186104,"SoundDuration":186104,"Delta":70835230},{"NoteNumber":72,"Velocity":50,"Duration":126358,"SoundDuration":126358,"Delta":71083369},{"NoteNumber":57,"Velocity":26,"Duration":189537,"SoundDuration":189537,"Delta":71083369},{"NoteNumber":60,"Velocity":26,"Duration":189537,"SoundDuration":189537,"Delta":71083369},{"NoteNumber":63,"Velocity":31,"Duration":189537,"SoundDuration":189537,"Delta":71083369},{"NoteNumber":70,"Velocity":49,"Duration":63179,"SoundDuration":63179,"Delta":71209727},{"NoteNumber":72,"Velocity":49,"Duration":63179,"SoundDuration":63179,"Delta":71272906},{"NoteNumber":70,"Velocity":58,"Duration":256257,"SoundDuration":256257,"Delta":71336085},{"NoteNumber":54,"Velocity":37,"Duration":765992,"SoundDuration":765992,"Delta":71336085},{"NoteNumber":60,"Velocity":26,"Duration":185261,"SoundDuration":185261,"Delta":71592342},{"NoteNumber":62,"Velocity":31,"Duration":185261,"SoundDuration":185261,"Delta":71592342},{"NoteNumber":69,"Velocity":49,"Duration":131360,"SoundDuration":131360,"Delta":71839357},{"NoteNumber":60,"Velocity":26,"Duration":197040,"SoundDuration":197040,"Delta":71839357},{"NoteNumber":62,"Velocity":31,"Duration":197040,"SoundDuration":197040,"Delta":71839357},{"NoteNumber":69,"Velocity":42,"Duration":65680,"SoundDuration":65680,"Delta":72036397},{"NoteNumber":72,"Velocity":50,"Duration":498546,"SoundDuration":498546,"Delta":72102077},{"NoteNumber":55,"Velocity":37,"Duration":771347,"SoundDuration":771347,"Delta":72102077},{"NoteNumber":62,"Velocity":31,"Duration":186954,"SoundDuration":186954,"Delta":72351350},{"NoteNumber":58,"Velocity":26,"Duration":186954,"SoundDuration":186954,"Delta":72351350},{"NoteNumber":70,"Velocity":46,"Duration":272801,"SoundDuration":272801,"Delta":72600623},{"NoteNumber":58,"Velocity":26,"Duration":204601,"SoundDuration":204601,"Delta":72600623},{"NoteNumber":62,"Velocity":31,"Duration":204601,"SoundDuration":204601,"Delta":72600623},{"NoteNumber":79,"Velocity":54,"Duration":75540,"SoundDuration":75540,"Delta":72873425},{"NoteNumber":46,"Velocity":37,"Duration":727488,"SoundDuration":727488,"Delta":72873425},{"NoteNumber":86,"Velocity":46,"Duration":75540,"SoundDuration":75540,"Delta":72948965},{"NoteNumber":91,"Velocity":40,"Duration":75540,"SoundDuration":75540,"Delta":73024505},{"NoteNumber":79,"Velocity":50,"Duration":274248,"SoundDuration":274248,"Delta":73100045},{"NoteNumber":50,"Velocity":26,"Duration":205686,"SoundDuration":205686,"Delta":73100045},{"NoteNumber":55,"Velocity":31,"Duration":205686,"SoundDuration":205686,"Delta":73100045},{"NoteNumber":67,"Velocity":54,"Duration":75540,"SoundDuration":75540,"Delta":73374293},{"NoteNumber":50,"Velocity":26,"Duration":169965,"SoundDuration":169965,"Delta":73374293},{"NoteNumber":55,"Velocity":31,"Duration":169965,"SoundDuration":169965,"Delta":73374293},{"NoteNumber":74,"Velocity":46,"Duration":75540,"SoundDuration":75540,"Delta":73449833},{"NoteNumber":79,"Velocity":40,"Duration":75540,"SoundDuration":75540,"Delta":73525373},{"NoteNumber":67,"Velocity":59,"Duration":250396,"SoundDuration":250396,"Delta":73600914},{"NoteNumber":48,"Velocity":37,"Duration":751251,"SoundDuration":751251,"Delta":73600914},{"NoteNumber":55,"Velocity":26,"Duration":186104,"SoundDuration":186104,"Delta":73851310},{"NoteNumber":57,"Velocity":31,"Duration":186104,"SoundDuration":186104,"Delta":73851310},{"NoteNumber":63,"Velocity":50,"Duration":252716,"SoundDuration":252716,"Delta":74099449},{"NoteNumber":55,"Velocity":26,"Duration":189537,"SoundDuration":189537,"Delta":74099449},{"NoteNumber":57,"Velocity":31,"Duration":189537,"SoundDuration":189537,"Delta":74099449},{"NoteNumber":62,"Velocity":58,"Duration":256257,"SoundDuration":256257,"Delta":74352166},{"NoteNumber":55,"Velocity":37,"Duration":760716,"SoundDuration":760716,"Delta":74352166},{"NoteNumber":70,"Velocity":54,"Duration":247015,"SoundDuration":247015,"Delta":74608423},{"NoteNumber":54,"Velocity":26,"Duration":185261,"SoundDuration":185261,"Delta":74608423},{"NoteNumber":60,"Velocity":31,"Duration":185261,"SoundDuration":185261,"Delta":74608423},{"NoteNumber":69,"Velocity":49,"Duration":125504,"SoundDuration":125504,"Delta":74855438},{"NoteNumber":54,"Velocity":26,"Duration":193083,"SoundDuration":193083,"Delta":74855438},{"NoteNumber":60,"Velocity":31,"Duration":193083,"SoundDuration":193083,"Delta":74855438},{"NoteNumber":69,"Velocity":42,"Duration":64361,"SoundDuration":64361,"Delta":74984160},{"NoteNumber":70,"Velocity":42,"Duration":64361,"SoundDuration":64361,"Delta":75027067},{"NoteNumber":69,"Velocity":50,"Duration":498546,"SoundDuration":498546,"Delta":75112882},{"NoteNumber":55,"Velocity":37,"Duration":776891,"SoundDuration":776891,"Delta":75112882},{"NoteNumber":62,"Velocity":31,"Duration":186954,"SoundDuration":186954,"Delta":75362155},{"NoteNumber":58,"Velocity":26,"Duration":186954,"SoundDuration":186954,"Delta":75362155},{"NoteNumber":67,"Velocity":46,"Duration":278345,"SoundDuration":278345,"Delta":75611428},{"NoteNumber":58,"Velocity":26,"Duration":208758,"SoundDuration":208758,"Delta":75611428},{"NoteNumber":62,"Velocity":31,"Duration":208758,"SoundDuration":208758,"Delta":75611428},{"NoteNumber":77,"Velocity":54,"Duration":75540,"SoundDuration":75540,"Delta":75889773},{"NoteNumber":50,"Velocity":37,"Duration":730019,"SoundDuration":730019,"Delta":75889773},{"NoteNumber":82,"Velocity":46,"Duration":75540,"SoundDuration":75540,"Delta":75965313},{"NoteNumber":89,"Velocity":40,"Duration":75540,"SoundDuration":75540,"Delta":76040853},{"NoteNumber":77,"Velocity":50,"Duration":276778,"SoundDuration":276778,"Delta":76116394},{"NoteNumber":53,"Velocity":26,"Duration":207583,"SoundDuration":207583,"Delta":76116394},{"NoteNumber":58,"Velocity":31,"Duration":207583,"SoundDuration":207583,"Delta":76116394},{"NoteNumber":65,"Velocity":54,"Duration":75540,"SoundDuration":75540,"Delta":76393172},{"NoteNumber":53,"Velocity":26,"Duration":169965,"SoundDuration":169965,"Delta":76393172},{"NoteNumber":58,"Velocity":31,"Duration":169965,"SoundDuration":169965,"Delta":76393172},{"NoteNumber":74,"Velocity":46,"Duration":75540,"SoundDuration":75540,"Delta":76468712},{"NoteNumber":77,"Velocity":40,"Duration":75540,"SoundDuration":75540,"Delta":76544252},{"NoteNumber":65,"Velocity":59,"Duration":250396,"SoundDuration":250396,"Delta":76619793},{"NoteNumber":48,"Velocity":37,"Duration":751251,"SoundDuration":751251,"Delta":76619793},{"NoteNumber":55,"Velocity":26,"Duration":186104,"SoundDuration":186104,"Delta":76870189},{"NoteNumber":58,"Velocity":31,"Duration":186104,"SoundDuration":186104,"Delta":76870189},{"NoteNumber":63,"Velocity":50,"Duration":126358,"SoundDuration":126358,"Delta":77118328},{"NoteNumber":55,"Velocity":26,"Duration":189537,"SoundDuration":189537,"Delta":77118328},{"NoteNumber":58,"Velocity":31,"Duration":189537,"SoundDuration":189537,"Delta":77118328},{"NoteNumber":63,"Velocity":58,"Duration":78456,"SoundDuration":78456,"Delta":77371045},{"NoteNumber":41,"Velocity":37,"Duration":755184,"SoundDuration":755184,"Delta":77371045},{"NoteNumber":65,"Velocity":48,"Duration":78456,"SoundDuration":78456,"Delta":77449501},{"NoteNumber":63,"Velocity":48,"Duration":78455,"SoundDuration":78455,"Delta":77527957},{"NoteNumber":62,"Velocity":55,"Duration":247015,"SoundDuration":247015,"Delta":77606413},{"NoteNumber":53,"Velocity":26,"Duration":185261,"SoundDuration":185261,"Delta":77606413},{"NoteNumber":57,"Velocity":31,"Duration":185261,"SoundDuration":185261,"Delta":77606413},{"NoteNumber":60,"Velocity":50,"Duration":136400,"SoundDuration":136400,"Delta":77853428},{"NoteNumber":53,"Velocity":26,"Duration":204601,"SoundDuration":204601,"Delta":77853428},{"NoteNumber":57,"Velocity":31,"Duration":204601,"SoundDuration":204601,"Delta":77853428},{"NoteNumber":60,"Velocity":45,"Duration":68200,"SoundDuration":68200,"Delta":78058029},{"NoteNumber":63,"Velocity":50,"Duration":498546,"SoundDuration":498546,"Delta":78126229},{"NoteNumber":46,"Velocity":37,"Duration":754803,"SoundDuration":754803,"Delta":78126229},{"NoteNumber":58,"Velocity":31,"Duration":186954,"SoundDuration":186954,"Delta":78375502},{"NoteNumber":53,"Velocity":26,"Duration":186954,"SoundDuration":186954,"Delta":78375502},{"NoteNumber":62,"Velocity":46,"Duration":256257,"SoundDuration":256257,"Delta":78624775},{"NoteNumber":53,"Velocity":26,"Duration":192192,"SoundDuration":192192,"Delta":78624775},{"NoteNumber":58,"Velocity":31,"Duration":192192,"SoundDuration":192192,"Delta":78624775},{"NoteNumber":74,"Velocity":54,"Duration":75540,"SoundDuration":75540,"Delta":78881032},{"NoteNumber":46,"Velocity":37,"Duration":731301,"SoundDuration":731301,"Delta":78881032},{"NoteNumber":79,"Velocity":46,"Duration":75540,"SoundDuration":75540,"Delta":78956572},{"NoteNumber":86,"Velocity":40,"Duration":75540,"SoundDuration":75540,"Delta":79032112},{"NoteNumber":74,"Velocity":50,"Duration":278060,"SoundDuration":278060,"Delta":79107653},{"NoteNumber":50,"Velocity":26,"Duration":208545,"SoundDuration":208545,"Delta":79107653},{"NoteNumber":55,"Velocity":31,"Duration":208545,"SoundDuration":208545,"Delta":79107653},{"NoteNumber":62,"Velocity":54,"Duration":75540,"SoundDuration":75540,"Delta":79385714},{"NoteNumber":50,"Velocity":26,"Duration":169965,"SoundDuration":169965,"Delta":79385714},{"NoteNumber":55,"Velocity":31,"Duration":169965,"SoundDuration":169965,"Delta":79385714},{"NoteNumber":67,"Velocity":46,"Duration":75540,"SoundDuration":75540,"Delta":79461254},{"NoteNumber":74,"Velocity":40,"Duration":75540,"SoundDuration":75540,"Delta":79536794},{"NoteNumber":62,"Velocity":59,"Duration":250396,"SoundDuration":250396,"Delta":79612334},{"NoteNumber":45,"Velocity":37,"Duration":751251,"SoundDuration":751251,"Delta":79612334},{"NoteNumber":51,"Velocity":26,"Duration":186104,"SoundDuration":186104,"Delta":79862731},{"NoteNumber":55,"Velocity":31,"Duration":186104,"SoundDuration":186104,"Delta":79862731},{"NoteNumber":60,"Velocity":50,"Duration":126358,"SoundDuration":126358,"Delta":80110870},{"NoteNumber":51,"Velocity":26,"Duration":189537,"SoundDuration":189537,"Delta":80110870},{"NoteNumber":55,"Velocity":31,"Duration":189537,"SoundDuration":189537,"Delta":80110870},{"NoteNumber":60,"Velocity":58,"Duration":78456,"SoundDuration":78456,"Delta":80363586},{"NoteNumber":38,"Velocity":37,"Duration":235367,"SoundDuration":235367,"Delta":80363586},{"NoteNumber":62,"Velocity":48,"Duration":78456,"SoundDuration":78456,"Delta":80442042},{"NoteNumber":60,"Velocity":48,"Duration":78455,"SoundDuration":78455,"Delta":80520498},{"NoteNumber":58,"Velocity":55,"Duration":247015,"SoundDuration":247015,"Delta":80598954},{"NoteNumber":50,"Velocity":26,"Duration":185261,"SoundDuration":185261,"Delta":80598954},{"NoteNumber":54,"Velocity":31,"Duration":185261,"SoundDuration":185261,"Delta":80598954},{"NoteNumber":57,"Velocity":50,"Duration":136400,"SoundDuration":136400,"Delta":80845969},{"NoteNumber":50,"Velocity":26,"Duration":204601,"SoundDuration":204601,"Delta":80845969},{"NoteNumber":54,"Velocity":31,"Duration":204601,"SoundDuration":204601,"Delta":80845969},{"NoteNumber":57,"Velocity":45,"Duration":68200,"SoundDuration":68200,"Delta":81027837},{"NoteNumber":60,"Velocity":50,"Duration":498546,"SoundDuration":498546,"Delta":81118771},{"NoteNumber":43,"Velocity":37,"Duration":772719,"SoundDuration":772719,"Delta":81118771},{"NoteNumber":55,"Velocity":31,"Duration":186954,"SoundDuration":186954,"Delta":81368044},{"NoteNumber":50,"Velocity":26,"Duration":186954,"SoundDuration":186954,"Delta":81368044},{"NoteNumber":58,"Velocity":46,"Duration":274173,"SoundDuration":274173,"Delta":81617317},{"NoteNumber":50,"Velocity":26,"Duration":205629,"SoundDuration":205629,"Delta":81617317},{"NoteNumber":55,"Velocity":31,"Duration":205629,"SoundDuration":205629,"Delta":81617317},{"NoteNumber":67,"Velocity":54,"Duration":73421,"SoundDuration":73421,"Delta":81891490},{"NoteNumber":39,"Velocity":33,"Duration":110132,"SoundDuration":110132,"Delta":81891490},{"NoteNumber":51,"Velocity":40,"Duration":110132,"SoundDuration":110132,"Delta":81891490},{"NoteNumber":75,"Velocity":46,"Duration":73421,"SoundDuration":73421,"Delta":81964911},{"NoteNumber":79,"Velocity":40,"Duration":73421,"SoundDuration":73421,"Delta":82038333},{"NoteNumber":67,"Velocity":57,"Duration":243724,"SoundDuration":243724,"Delta":82111754},{"NoteNumber":50,"Velocity":42,"Duration":121861,"SoundDuration":121861,"Delta":82111754},{"NoteNumber":38,"Velocity":34,"Duration":121861,"SoundDuration":121861,"Delta":82111754},{"NoteNumber":51,"Velocity":46,"Duration":126358,"SoundDuration":126358,"Delta":82355478},{"NoteNumber":39,"Velocity":38,"Duration":126358,"SoundDuration":126358,"Delta":82355478},{"NoteNumber":68,"Velocity":59,"Duration":72547,"SoundDuration":72547,"Delta":82608195},{"NoteNumber":36,"Velocity":36,"Duration":108821,"SoundDuration":108821,"Delta":82608195},{"NoteNumber":48,"Velocity":44,"Duration":108821,"SoundDuration":108821,"Delta":82608195},{"NoteNumber":75,"Velocity":50,"Duration":72547,"SoundDuration":72547,"Delta":82680742},{"NoteNumber":80,"Velocity":44,"Duration":72547,"SoundDuration":72547,"Delta":82753290},{"NoteNumber":68,"Velocity":50,"Duration":243724,"SoundDuration":243724,"Delta":82825838},{"NoteNumber":47,"Velocity":46,"Duration":121861,"SoundDuration":121861,"Delta":82825838},{"NoteNumber":35,"Velocity":37,"Duration":121861,"SoundDuration":121861,"Delta":82825838},{"NoteNumber":36,"Velocity":33,"Duration":125198,"SoundDuration":125198,"Delta":83069562},{"NoteNumber":48,"Velocity":37,"Duration":125198,"SoundDuration":125198,"Delta":83069562},{"NoteNumber":66,"Velocity":64,"Duration":72259,"SoundDuration":72259,"Delta":83319959},{"NoteNumber":38,"Velocity":40,"Duration":108389,"SoundDuration":108389,"Delta":83319959},{"NoteNumber":50,"Velocity":49,"Duration":108389,"SoundDuration":108389,"Delta":83319959},{"NoteNumber":72,"Velocity":55,"Duration":72259,"SoundDuration":72259,"Delta":83392218},{"NoteNumber":78,"Velocity":48,"Duration":72259,"SoundDuration":72259,"Delta":83464478},{"NoteNumber":66,"Velocity":68,"Duration":238303,"SoundDuration":238303,"Delta":83536737},{"NoteNumber":49,"Velocity":50,"Duration":119151,"SoundDuration":119151,"Delta":83536737},{"NoteNumber":37,"Velocity":42,"Duration":119151,"SoundDuration":119151,"Delta":83536737},{"NoteNumber":50,"Velocity":55,"Duration":124069,"SoundDuration":124069,"Delta":83775041},{"NoteNumber":38,"Velocity":44,"Duration":124069,"SoundDuration":124069,"Delta":83775041},{"NoteNumber":67,"Velocity":67,"Duration":71413,"SoundDuration":71413,"Delta":84023180},{"NoteNumber":34,"Velocity":46,"Duration":107119,"SoundDuration":107119,"Delta":84023180},{"NoteNumber":46,"Velocity":55,"Duration":107119,"SoundDuration":107119,"Delta":84023180},{"NoteNumber":74,"Velocity":57,"Duration":71413,"SoundDuration":71413,"Delta":84094593},{"NoteNumber":79,"Velocity":50,"Duration":71413,"SoundDuration":71413,"Delta":84166006},{"NoteNumber":67,"Velocity":57,"Duration":231857,"SoundDuration":231857,"Delta":84237420},{"NoteNumber":45,"Velocity":57,"Duration":115928,"SoundDuration":115928,"Delta":84237420},{"NoteNumber":33,"Velocity":47,"Duration":115928,"SoundDuration":115928,"Delta":84237420},{"NoteNumber":34,"Velocity":40,"Duration":123061,"SoundDuration":123061,"Delta":84469277},{"NoteNumber":46,"Velocity":47,"Duration":123061,"SoundDuration":123061,"Delta":84469277},{"NoteNumber":63,"Velocity":73,"Duration":70977,"SoundDuration":70977,"Delta":84715400},{"NoteNumber":36,"Velocity":46,"Duration":106465,"SoundDuration":106465,"Delta":84715400},{"NoteNumber":48,"Velocity":56,"Duration":106465,"SoundDuration":106465,"Delta":84715400},{"NoteNumber":67,"Velocity":63,"Duration":70977,"SoundDuration":70977,"Delta":84786377},{"NoteNumber":75,"Velocity":55,"Duration":70977,"SoundDuration":70977,"Delta":84857355},{"NoteNumber":63,"Velocity":78,"Duration":230964,"SoundDuration":230964,"Delta":84928332},{"NoteNumber":47,"Velocity":57,"Duration":115482,"SoundDuration":115482,"Delta":84928332},{"NoteNumber":35,"Velocity":48,"Duration":115482,"SoundDuration":115482,"Delta":84928332},{"NoteNumber":48,"Velocity":62,"Duration":122558,"SoundDuration":122558,"Delta":85159297},{"NoteNumber":36,"Velocity":50,"Duration":122558,"SoundDuration":122558,"Delta":85159297},{"NoteNumber":60,"Velocity":80,"Duration":72833,"SoundDuration":72833,"Delta":85404415},{"NoteNumber":39,"Velocity":50,"Duration":109249,"SoundDuration":109249,"Delta":85404415},{"NoteNumber":51,"Velocity":60,"Duration":109249,"SoundDuration":109249,"Delta":85404415},{"NoteNumber":67,"Velocity":69,"Duration":72833,"SoundDuration":72833,"Delta":85477248},{"NoteNumber":72,"Velocity":59,"Duration":72833,"SoundDuration":72833,"Delta":85550081},{"NoteNumber":60,"Velocity":85,"Duration":259763,"SoundDuration":259763,"Delta":85622914},{"NoteNumber":50,"Velocity":62,"Duration":129881,"SoundDuration":129881,"Delta":85622914},{"NoteNumber":38,"Velocity":52,"Duration":129881,"SoundDuration":129881,"Delta":85622914},{"NoteNumber":51,"Velocity":68,"Duration":139547,"SoundDuration":139547,"Delta":85882677},{"NoteNumber":39,"Velocity":56,"Duration":139547,"SoundDuration":139547,"Delta":85882677},{"NoteNumber":62,"Velocity":85,"Duration":80006,"SoundDuration":80006,"Delta":86161773},{"NoteNumber":38,"Velocity":49,"Duration":120009,"SoundDuration":120009,"Delta":86161773},{"NoteNumber":50,"Velocity":58,"Duration":120009,"SoundDuration":120009,"Delta":86161773},{"NoteNumber":67,"Velocity":74,"Duration":80006,"SoundDuration":80006,"Delta":86241779},{"NoteNumber":62,"Velocity":64,"Duration":80006,"SoundDuration":80006,"Delta":86321785},{"NoteNumber":61,"Velocity":86,"Duration":131877,"SoundDuration":131877,"Delta":86401792},{"NoteNumber":37,"Velocity":48,"Duration":131877,"SoundDuration":131877,"Delta":86401792},{"NoteNumber":49,"Velocity":57,"Duration":131877,"SoundDuration":131877,"Delta":86401792},{"NoteNumber":62,"Velocity":93,"Duration":142870,"SoundDuration":142870,"Delta":86666119},{"NoteNumber":38,"Velocity":57,"Duration":142870,"SoundDuration":142870,"Delta":86666119},{"NoteNumber":50,"Velocity":67,"Duration":142870,"SoundDuration":142870,"Delta":86666119},{"NoteNumber":67,"Velocity":96,"Duration":153076,"SoundDuration":153076,"Delta":86951860},{"NoteNumber":55,"Velocity":80,"Duration":153076,"SoundDuration":153076,"Delta":86951860},{"NoteNumber":43,"Velocity":67,"Duration":153076,"SoundDuration":153076,"Delta":86951860},{"NoteNumber":67,"Velocity":87,"Duration":140594,"SoundDuration":140594,"Delta":87258014},{"NoteNumber":70,"Velocity":87,"Duration":140594,"SoundDuration":140594,"Delta":87258014},{"NoteNumber":79,"Velocity":103,"Duration":140594,"SoundDuration":140594,"Delta":87258014},{"NoteNumber":55,"Velocity":78,"Duration":140594,"SoundDuration":140594,"Delta":87258014},{"NoteNumber":50,"Velocity":65,"Duration":140594,"SoundDuration":140594,"Delta":87258014},{"NoteNumber":43,"Velocity":65,"Duration":140594,"SoundDuration":140594,"Delta":87258014}],"license":{"name":"Creative Commons Attribution-ShareAlike 3.0 Germany","url":"http://creativecommons.org/licenses/by-sa/3.0/de/deed.en","text":"The MIDI, audio (MP3, OGG) and video files of Bernd Krueger are licensed under the cc-by-sa Germany License. This means that you can use and adapt the files, as long as you attribute the copyright holder.\n\nName: Bernd Krueger\nSource: http://www.piano-midi.de\n\nThe distribution or public playback of the files is only allowed under identical license conditions.\n\nThe scores are open source.","attribution":"MIDI files by Bernd Krueger (piano-midi.de)","attributionUrl":"http://www.piano-midi.de"}}