{"title":"Geschwindigkeit","artist":"Burgmüller","durationMs":66452,"midiSha256":"77a39a81e80939e12410799acdfd7f3ce8faa3d1565e71223cc8b1b81f0944e8","midiObject":[{"NoteNumber":72,"Velocity":40,"Duration":119048,"SoundDuration":119048,"Delta":0},{"NoteNumber":64,"Velocity":30,"Duration":119048,"SoundDuration":119048,"Delta":0},{"NoteNumber":60,"Velocity":25,"Duration":119048,"SoundDuration":119048,"Delta":0},{"NoteNumber":74,"Velocity":42,"Duration":117418,"SoundDuration":117418,"Delta":119048},{"NoteNumber":76,"Velocity":46,"Duration":115757,"SoundDuration":115757,"Delta":236467},{"NoteNumber":55,"Velocity":29,"Duration":115757,"SoundDuration":115757,"Delta":236467},{"NoteNumber":77,"Velocity":49,"Duration":114215,"SoundDuration":114215,"Delta":352224},{"NoteNumber":78,"Velocity":52,"Duration":113493,"SoundDuration":113493,"Delta":466439},{"NoteNumber":55,"Velocity":29,"Duration":113493,"SoundDuration":113493,"Delta":466439},{"NoteNumber":79,"Velocity":54,"Duration":113207,"SoundDuration":113207,"Delta":579933},{"NoteNumber":81,"Velocity":55,"Duration":112429,"SoundDuration":112429,"Delta":693140},{"NoteNumber":59,"Velocity":22,"Duration":112429,"SoundDuration":112429,"Delta":693140},{"NoteNumber":65,"Velocity":26,"Duration":112429,"SoundDuration":112429,"Delta":693140},{"NoteNumber":79,"Velocity":51,"Duration":112994,"SoundDuration":112994,"Delta":805570},{"NoteNumber":78,"Velocity":53,"Duration":113493,"SoundDuration":113493,"Delta":918565},{"NoteNumber":55,"Velocity":33,"Duration":113493,"SoundDuration":113493,"Delta":918565},{"NoteNumber":79,"Velocity":50,"Duration":114141,"SoundDuration":114141,"Delta":1032058},{"NoteNumber":81,"Velocity":53,"Duration":114723,"SoundDuration":114723,"Delta":1146199},{"NoteNumber":55,"Velocity":24,"Duration":114723,"SoundDuration":114723,"Delta":1146199},{"NoteNumber":83,"Velocity":49,"Duration":115310,"SoundDuration":115310,"Delta":1260922},{"NoteNumber":84,"Velocity":46,"Duration":115384,"SoundDuration":115384,"Delta":1376233},{"NoteNumber":64,"Velocity":30,"Duration":115384,"SoundDuration":115384,"Delta":1376233},{"NoteNumber":60,"Velocity":25,"Duration":115384,"SoundDuration":115384,"Delta":1376233},{"NoteNumber":86,"Velocity":48,"Duration":114942,"SoundDuration":114942,"Delta":1491618},{"NoteNumber":88,"Velocity":52,"Duration":114503,"SoundDuration":114503,"Delta":1606560},{"NoteNumber":55,"Velocity":29,"Duration":114503,"SoundDuration":114503,"Delta":1606560},{"NoteNumber":89,"Velocity":56,"Duration":114141,"SoundDuration":114141,"Delta":1721064},{"NoteNumber":90,"Velocity":59,"Duration":113708,"SoundDuration":113708,"Delta":1835205},{"NoteNumber":55,"Velocity":29,"Duration":113708,"SoundDuration":113708,"Delta":1835205},{"NoteNumber":91,"Velocity":62,"Duration":113350,"SoundDuration":113350,"Delta":1948913},{"NoteNumber":93,"Velocity":63,"Duration":112923,"SoundDuration":112923,"Delta":2062264},{"NoteNumber":65,"Velocity":35,"Duration":112923,"SoundDuration":112923,"Delta":2062264},{"NoteNumber":59,"Velocity":29,"Duration":112923,"SoundDuration":112923,"Delta":2062264},{"NoteNumber":91,"Velocity":58,"Duration":113065,"SoundDuration":113065,"Delta":2175188},{"NoteNumber":90,"Velocity":60,"Duration":113564,"SoundDuration":113564,"Delta":2288253},{"NoteNumber":55,"Velocity":45,"Duration":113564,"SoundDuration":113564,"Delta":2288253},{"NoteNumber":91,"Velocity":57,"Duration":114068,"SoundDuration":114068,"Delta":2401818},{"NoteNumber":93,"Velocity":60,"Duration":114576,"SoundDuration":114576,"Delta":2515887},{"NoteNumber":55,"Velocity":41,"Duration":114576,"SoundDuration":114576,"Delta":2515887},{"NoteNumber":95,"Velocity":56,"Duration":121523,"SoundDuration":121523,"Delta":2630463},{"NoteNumber":96,"Velocity":65,"Duration":115829,"SoundDuration":115829,"Delta":2751987},{"NoteNumber":60,"Velocity":54,"Duration":115829,"SoundDuration":115829,"Delta":2751987},{"NoteNumber":64,"Velocity":64,"Duration":115829,"SoundDuration":115829,"Delta":2751987},{"NoteNumber":100,"Velocity":67,"Duration":115458,"SoundDuration":115458,"Delta":2867817},{"NoteNumber":103,"Velocity":69,"Duration":115163,"SoundDuration":115163,"Delta":2983275},{"NoteNumber":60,"Velocity":46,"Duration":115163,"SoundDuration":115163,"Delta":2983275},{"NoteNumber":64,"Velocity":56,"Duration":115163,"SoundDuration":115163,"Delta":2983275},{"NoteNumber":101,"Velocity":64,"Duration":114869,"SoundDuration":114869,"Delta":3098439},{"NoteNumber":100,"Velocity":69,"Duration":114503,"SoundDuration":114503,"Delta":3213308},{"NoteNumber":98,"Velocity":64,"Duration":114141,"SoundDuration":114141,"Delta":3327812},{"NoteNumber":96,"Velocity":68,"Duration":114286,"SoundDuration":114286,"Delta":3441953},{"NoteNumber":52,"Velocity":49,"Duration":114286,"SoundDuration":114286,"Delta":3441953},{"NoteNumber":55,"Velocity":49,"Duration":114286,"SoundDuration":114286,"Delta":3441953},{"NoteNumber":60,"Velocity":58,"Duration":114286,"SoundDuration":114286,"Delta":3441953},{"NoteNumber":95,"Velocity":59,"Duration":114576,"SoundDuration":114576,"Delta":3556239},{"NoteNumber":93,"Velocity":68,"Duration":114942,"SoundDuration":114942,"Delta":3670816},{"NoteNumber":52,"Velocity":44,"Duration":114942,"SoundDuration":114942,"Delta":3670816},{"NoteNumber":60,"Velocity":52,"Duration":114942,"SoundDuration":114942,"Delta":3670816},{"NoteNumber":55,"Velocity":44,"Duration":114942,"SoundDuration":114942,"Delta":3670816},{"NoteNumber":91,"Velocity":61,"Duration":115310,"SoundDuration":115310,"Delta":3785759},{"NoteNumber":89,"Velocity":66,"Duration":115607,"SoundDuration":115607,"Delta":3901069},{"NoteNumber":88,"Velocity":61,"Duration":115979,"SoundDuration":115979,"Delta":4016677},{"NoteNumber":86,"Velocity":63,"Duration":115829,"SoundDuration":115829,"Delta":4132656},{"NoteNumber":62,"Velocity":56,"Duration":115829,"SoundDuration":115829,"Delta":4132656},{"NoteNumber":57,"Velocity":47,"Duration":115829,"SoundDuration":115829,"Delta":4132656},{"NoteNumber":53,"Velocity":47,"Duration":115829,"SoundDuration":115829,"Delta":4132656},{"NoteNumber":88,"Velocity":65,"Duration":115681,"SoundDuration":115681,"Delta":4248486},{"NoteNumber":89,"Velocity":65,"Duration":115384,"SoundDuration":115384,"Delta":4364168},{"NoteNumber":62,"Velocity":48,"Duration":115384,"SoundDuration":115384,"Delta":4364168},{"NoteNumber":57,"Velocity":40,"Duration":115384,"SoundDuration":115384,"Delta":4364168},{"NoteNumber":53,"Velocity":40,"Duration":115384,"SoundDuration":115384,"Delta":4364168},{"NoteNumber":88,"Velocity":62,"Duration":115089,"SoundDuration":115089,"Delta":4479552},{"NoteNumber":86,"Velocity":61,"Duration":114942,"SoundDuration":114942,"Delta":4594642},{"NoteNumber":84,"Velocity":59,"Duration":114503,"SoundDuration":114503,"Delta":4709585},{"NoteNumber":83,"Velocity":57,"Duration":114358,"SoundDuration":114358,"Delta":4824088},{"NoteNumber":55,"Velocity":34,"Duration":114358,"SoundDuration":114358,"Delta":4824088},{"NoteNumber":59,"Velocity":34,"Duration":114358,"SoundDuration":114358,"Delta":4824088},{"NoteNumber":65,"Velocity":41,"Duration":114358,"SoundDuration":114358,"Delta":4824088},{"NoteNumber":81,"Velocity":51,"Duration":114724,"SoundDuration":114724,"Delta":4938447},{"NoteNumber":79,"Velocity":53,"Duration":115980,"SoundDuration":115980,"Delta":5053171},{"NoteNumber":55,"Velocity":26,"Duration":115980,"SoundDuration":115980,"Delta":5053171},{"NoteNumber":59,"Velocity":26,"Duration":115980,"SoundDuration":115980,"Delta":5053171},{"NoteNumber":65,"Velocity":31,"Duration":115980,"SoundDuration":115980,"Delta":5053171},{"NoteNumber":77,"Velocity":48,"Duration":117188,"SoundDuration":117188,"Delta":5169152},{"NoteNumber":76,"Velocity":54,"Duration":118578,"SoundDuration":118578,"Delta":5286340},{"NoteNumber":74,"Velocity":46,"Duration":130150,"SoundDuration":130150,"Delta":5404919},{"NoteNumber":72,"Velocity":40,"Duration":117111,"SoundDuration":117111,"Delta":5535069},{"NoteNumber":64,"Velocity":30,"Duration":117111,"SoundDuration":117111,"Delta":5535069},{"NoteNumber":60,"Velocity":25,"Duration":117111,"SoundDuration":117111,"Delta":5535069},{"NoteNumber":74,"Velocity":42,"Duration":116656,"SoundDuration":116656,"Delta":5652181},{"NoteNumber":76,"Velocity":46,"Duration":116129,"SoundDuration":116129,"Delta":5768837},{"NoteNumber":55,"Velocity":29,"Duration":116129,"SoundDuration":116129,"Delta":5768837},{"NoteNumber":77,"Velocity":49,"Duration":115681,"SoundDuration":115681,"Delta":5884966},{"NoteNumber":78,"Velocity":52,"Duration":115163,"SoundDuration":115163,"Delta":6000648},{"NoteNumber":55,"Velocity":29,"Duration":115163,"SoundDuration":115163,"Delta":6000648},{"NoteNumber":79,"Velocity":54,"Duration":114723,"SoundDuration":114723,"Delta":6115811},{"NoteNumber":81,"Velocity":55,"Duration":114213,"SoundDuration":114213,"Delta":6230534},{"NoteNumber":59,"Velocity":22,"Duration":114213,"SoundDuration":114213,"Delta":6230534},{"NoteNumber":65,"Velocity":26,"Duration":114213,"SoundDuration":114213,"Delta":6230534},{"NoteNumber":79,"Velocity":51,"Duration":114286,"SoundDuration":114286,"Delta":6344748},{"NoteNumber":78,"Velocity":53,"Duration":114649,"SoundDuration":114649,"Delta":6459034},{"NoteNumber":55,"Velocity":33,"Duration":114649,"SoundDuration":114649,"Delta":6459034},{"NoteNumber":79,"Velocity":50,"Duration":115089,"SoundDuration":115089,"Delta":6573684},{"NoteNumber":81,"Velocity":53,"Duration":115458,"SoundDuration":115458,"Delta":6688774},{"NoteNumber":55,"Velocity":24,"Duration":115458,"SoundDuration":115458,"Delta":6688774},{"NoteNumber":83,"Velocity":49,"Duration":115904,"SoundDuration":115904,"Delta":6804233},{"NoteNumber":84,"Velocity":46,"Duration":116506,"SoundDuration":116506,"Delta":6920137},{"NoteNumber":64,"Velocity":30,"Duration":116506,"SoundDuration":116506,"Delta":6920137},{"NoteNumber":60,"Velocity":25,"Duration":116506,"SoundDuration":116506,"Delta":6920137},{"NoteNumber":86,"Velocity":48,"Duration":116354,"SoundDuration":116354,"Delta":7036644},{"NoteNumber":88,"Velocity":52,"Duration":115904,"SoundDuration":115904,"Delta":7152999},{"NoteNumber":55,"Velocity":29,"Duration":115904,"SoundDuration":115904,"Delta":7152999},{"NoteNumber":89,"Velocity":54,"Duration":115458,"SoundDuration":115458,"Delta":7268904},{"NoteNumber":90,"Velocity":59,"Duration":115016,"SoundDuration":115016,"Delta":7384362},{"NoteNumber":55,"Velocity":29,"Duration":115016,"SoundDuration":115016,"Delta":7384362},{"NoteNumber":91,"Velocity":62,"Duration":114432,"SoundDuration":114432,"Delta":7499378},{"NoteNumber":93,"Velocity":63,"Duration":113852,"SoundDuration":113852,"Delta":7613811},{"NoteNumber":65,"Velocity":35,"Duration":113852,"SoundDuration":113852,"Delta":7613811},{"NoteNumber":59,"Velocity":29,"Duration":113852,"SoundDuration":113852,"Delta":7613811},{"NoteNumber":91,"Velocity":58,"Duration":114504,"SoundDuration":114504,"Delta":7727663},{"NoteNumber":90,"Velocity":60,"Duration":115237,"SoundDuration":115237,"Delta":7842167},{"NoteNumber":55,"Velocity":45,"Duration":115237,"SoundDuration":115237,"Delta":7842167},{"NoteNumber":91,"Velocity":57,"Duration":115979,"SoundDuration":115979,"Delta":7957405},{"NoteNumber":93,"Velocity":60,"Duration":116656,"SoundDuration":116656,"Delta":8073384},{"NoteNumber":55,"Velocity":41,"Duration":116656,"SoundDuration":116656,"Delta":8073384},{"NoteNumber":95,"Velocity":56,"Duration":121572,"SoundDuration":121572,"Delta":8190041},{"NoteNumber":96,"Velocity":65,"Duration":117035,"SoundDuration":117035,"Delta":8311613},{"NoteNumber":60,"Velocity":54,"Duration":117035,"SoundDuration":117035,"Delta":8311613},{"NoteNumber":64,"Velocity":64,"Duration":117035,"SoundDuration":117035,"Delta":8311613},{"NoteNumber":98,"Velocity":67,"Duration":116505,"SoundDuration":116505,"Delta":8428649},{"NoteNumber":100,"Velocity":69,"Duration":115979,"SoundDuration":115979,"Delta":8545154},{"NoteNumber":60,"Velocity":46,"Duration":115979,"SoundDuration":115979,"Delta":8545154},{"NoteNumber":64,"Velocity":56,"Duration":115979,"SoundDuration":115979,"Delta":8545154},{"NoteNumber":98,"Velocity":64,"Duration":115458,"SoundDuration":115458,"Delta":8661134},{"NoteNumber":96,"Velocity":69,"Duration":114942,"SoundDuration":114942,"Delta":8776592},{"NoteNumber":95,"Velocity":64,"Duration":115163,"SoundDuration":115163,"Delta":8891535},{"NoteNumber":93,"Velocity":68,"Duration":115384,"SoundDuration":115384,"Delta":9006698},{"NoteNumber":48,"Velocity":49,"Duration":115384,"SoundDuration":115384,"Delta":9006698},{"NoteNumber":52,"Velocity":49,"Duration":115384,"SoundDuration":115384,"Delta":9006698},{"NoteNumber":57,"Velocity":58,"Duration":115384,"SoundDuration":115384,"Delta":9006698},{"NoteNumber":95,"Velocity":59,"Duration":115384,"SoundDuration":115384,"Delta":9122083},{"NoteNumber":96,"Velocity":68,"Duration":115533,"SoundDuration":115533,"Delta":9237467},{"NoteNumber":48,"Velocity":44,"Duration":115533,"SoundDuration":115533,"Delta":9237467},{"NoteNumber":57,"Velocity":52,"Duration":115533,"SoundDuration":115533,"Delta":9237467},{"NoteNumber":52,"Velocity":44,"Duration":115533,"SoundDuration":115533,"Delta":9237467},{"NoteNumber":95,"Velocity":61,"Duration":115829,"SoundDuration":115829,"Delta":9353000},{"NoteNumber":93,"Velocity":66,"Duration":115830,"SoundDuration":115830,"Delta":9468830},{"NoteNumber":91,"Velocity":61,"Duration":115979,"SoundDuration":115979,"Delta":9584660},{"NoteNumber":90,"Velocity":63,"Duration":116278,"SoundDuration":116278,"Delta":9700640},{"NoteNumber":60,"Velocity":56,"Duration":116278,"SoundDuration":116278,"Delta":9700640},{"NoteNumber":54,"Velocity":47,"Duration":116278,"SoundDuration":116278,"Delta":9700640},{"NoteNumber":50,"Velocity":47,"Duration":116278,"SoundDuration":116278,"Delta":9700640},{"NoteNumber":88,"Velocity":64,"Duration":116129,"SoundDuration":116129,"Delta":9816919},{"NoteNumber":86,"Velocity":62,"Duration":115829,"SoundDuration":115829,"Delta":9933048},{"NoteNumber":60,"Velocity":47,"Duration":115829,"SoundDuration":115829,"Delta":9933048},{"NoteNumber":54,"Velocity":39,"Duration":115829,"SoundDuration":115829,"Delta":9933048},{"NoteNumber":50,"Velocity":39,"Duration":115829,"SoundDuration":115829,"Delta":9933048},{"NoteNumber":84,"Velocity":62,"Duration":115681,"SoundDuration":115681,"Delta":10048878},{"NoteNumber":83,"Velocity":61,"Duration":115384,"SoundDuration":115384,"Delta":10164560},{"NoteNumber":81,"Velocity":59,"Duration":116205,"SoundDuration":116205,"Delta":10279944},{"NoteNumber":79,"Velocity":51,"Duration":117112,"SoundDuration":117112,"Delta":10396150},{"NoteNumber":55,"Velocity":34,"Duration":117112,"SoundDuration":117112,"Delta":10396150},{"NoteNumber":59,"Velocity":40,"Duration":117112,"SoundDuration":117112,"Delta":10396150},{"NoteNumber":78,"Velocity":40,"Duration":118817,"SoundDuration":118817,"Delta":10513262},{"NoteNumber":81,"Velocity":48,"Duration":121051,"SoundDuration":121051,"Delta":10632079},{"NoteNumber":79,"Velocity":37,"Duration":124491,"SoundDuration":124491,"Delta":10753130},{"NoteNumber":77,"Velocity":42,"Duration":129236,"SoundDuration":129236,"Delta":10877622},{"NoteNumber":74,"Velocity":35,"Duration":129810,"SoundDuration":129810,"Delta":11006858},{"NoteNumber":72,"Velocity":40,"Duration":120888,"SoundDuration":120888,"Delta":11136668},{"NoteNumber":64,"Velocity":30,"Duration":120888,"SoundDuration":120888,"Delta":11136668},{"NoteNumber":60,"Velocity":25,"Duration":120888,"SoundDuration":120888,"Delta":11136668},{"NoteNumber":74,"Velocity":42,"Duration":119050,"SoundDuration":119050,"Delta":11257557},{"NoteNumber":76,"Velocity":46,"Duration":117342,"SoundDuration":117342,"Delta":11376608},{"NoteNumber":55,"Velocity":29,"Duration":117342,"SoundDuration":117342,"Delta":11376608},{"NoteNumber":77,"Velocity":49,"Duration":115534,"SoundDuration":115534,"Delta":11493950},{"NoteNumber":78,"Velocity":52,"Duration":114364,"SoundDuration":114364,"Delta":11609485},{"NoteNumber":55,"Velocity":29,"Duration":114364,"SoundDuration":114364,"Delta":11609485},{"NoteNumber":79,"Velocity":54,"Duration":113207,"SoundDuration":113207,"Delta":11723849},{"NoteNumber":81,"Velocity":55,"Duration":112429,"SoundDuration":112429,"Delta":11837057},{"NoteNumber":59,"Velocity":22,"Duration":112429,"SoundDuration":112429,"Delta":11837057},{"NoteNumber":65,"Velocity":26,"Duration":112429,"SoundDuration":112429,"Delta":11837057},{"NoteNumber":79,"Velocity":51,"Duration":112994,"SoundDuration":112994,"Delta":11949487},{"NoteNumber":78,"Velocity":53,"Duration":113493,"SoundDuration":113493,"Delta":12062481},{"NoteNumber":55,"Velocity":33,"Duration":113493,"SoundDuration":113493,"Delta":12062481},{"NoteNumber":79,"Velocity":50,"Duration":114141,"SoundDuration":114141,"Delta":12175975},{"NoteNumber":81,"Velocity":53,"Duration":114723,"SoundDuration":114723,"Delta":12290116},{"NoteNumber":55,"Velocity":24,"Duration":114723,"SoundDuration":114723,"Delta":12290116},{"NoteNumber":83,"Velocity":49,"Duration":115310,"SoundDuration":115310,"Delta":12404839},{"NoteNumber":84,"Velocity":46,"Duration":115384,"SoundDuration":115384,"Delta":12520150},{"NoteNumber":64,"Velocity":30,"Duration":115384,"SoundDuration":115384,"Delta":12520150},{"NoteNumber":60,"Velocity":25,"Duration":115384,"SoundDuration":115384,"Delta":12520150},{"NoteNumber":86,"Velocity":48,"Duration":114942,"SoundDuration":114942,"Delta":12635534},{"NoteNumber":88,"Velocity":52,"Duration":114503,"SoundDuration":114503,"Delta":12750477},{"NoteNumber":55,"Velocity":29,"Duration":114503,"SoundDuration":114503,"Delta":12750477},{"NoteNumber":89,"Velocity":56,"Duration":114141,"SoundDuration":114141,"Delta":12864980},{"NoteNumber":90,"Velocity":59,"Duration":113708,"SoundDuration":113708,"Delta":12979121},{"NoteNumber":55,"Velocity":29,"Duration":113708,"SoundDuration":113708,"Delta":12979121},{"NoteNumber":91,"Velocity":62,"Duration":113350,"SoundDuration":113350,"Delta":13092830},{"NoteNumber":93,"Velocity":63,"Duration":112923,"SoundDuration":112923,"Delta":13206180},{"NoteNumber":65,"Velocity":35,"Duration":112923,"SoundDuration":112923,"Delta":13206180},{"NoteNumber":59,"Velocity":29,"Duration":112923,"SoundDuration":112923,"Delta":13206180},{"NoteNumber":91,"Velocity":58,"Duration":113065,"SoundDuration":113065,"Delta":13319104},{"NoteNumber":90,"Velocity":60,"Duration":113564,"SoundDuration":113564,"Delta":13432170},{"NoteNumber":55,"Velocity":45,"Duration":113564,"SoundDuration":113564,"Delta":13432170},{"NoteNumber":91,"Velocity":57,"Duration":114068,"SoundDuration":114068,"Delta":13545734},{"NoteNumber":93,"Velocity":60,"Duration":114576,"SoundDuration":114576,"Delta":13659803},{"NoteNumber":55,"Velocity":41,"Duration":114576,"SoundDuration":114576,"Delta":13659803},{"NoteNumber":95,"Velocity":56,"Duration":121523,"SoundDuration":121523,"Delta":13774380},{"NoteNumber":96,"Velocity":65,"Duration":115830,"SoundDuration":115830,"Delta":13895903},{"NoteNumber":60,"Velocity":54,"Duration":115830,"SoundDuration":115830,"Delta":13895903},{"NoteNumber":64,"Velocity":64,"Duration":115830,"SoundDuration":115830,"Delta":13895903},{"NoteNumber":100,"Velocity":67,"Duration":115458,"SoundDuration":115458,"Delta":14011733},{"NoteNumber":103,"Velocity":69,"Duration":115163,"SoundDuration":115163,"Delta":14127192},{"NoteNumber":60,"Velocity":46,"Duration":115163,"SoundDuration":115163,"Delta":14127192},{"NoteNumber":64,"Velocity":56,"Duration":115163,"SoundDuration":115163,"Delta":14127192},{"NoteNumber":101,"Velocity":64,"Duration":114869,"SoundDuration":114869,"Delta":14242355},{"NoteNumber":100,"Velocity":69,"Duration":114503,"SoundDuration":114503,"Delta":14357225},{"NoteNumber":98,"Velocity":64,"Duration":114141,"SoundDuration":114141,"Delta":14471728},{"NoteNumber":96,"Velocity":68,"Duration":114286,"SoundDuration":114286,"Delta":14585869},{"NoteNumber":52,"Velocity":49,"Duration":114286,"SoundDuration":114286,"Delta":14585869},{"NoteNumber":55,"Velocity":49,"Duration":114286,"SoundDuration":114286,"Delta":14585869},{"NoteNumber":60,"Velocity":58,"Duration":114286,"SoundDuration":114286,"Delta":14585869},{"NoteNumber":95,"Velocity":59,"Duration":114576,"SoundDuration":114576,"Delta":14700156},{"NoteNumber":93,"Velocity":68,"Duration":114942,"SoundDuration":114942,"Delta":14814732},{"NoteNumber":52,"Velocity":44,"Duration":114942,"SoundDuration":114942,"Delta":14814732},{"NoteNumber":60,"Velocity":52,"Duration":114942,"SoundDuration":114942,"Delta":14814732},{"NoteNumber":55,"Velocity":44,"Duration":114942,"SoundDuration":114942,"Delta":14814732},{"NoteNumber":91,"Velocity":61,"Duration":115310,"SoundDuration":115310,"Delta":14929675},{"NoteNumber":89,"Velocity":66,"Duration":115607,"SoundDuration":115607,"Delta":15044986},{"NoteNumber":88,"Velocity":61,"Duration":115979,"SoundDuration":115979,"Delta":15160593},{"NoteNumber":86,"Velocity":63,"Duration":115830,"SoundDuration":115830,"Delta":15276573},{"NoteNumber":62,"Velocity":57,"Duration":115830,"SoundDuration":115830,"Delta":15276573},{"NoteNumber":57,"Velocity":48,"Duration":115830,"SoundDuration":115830,"Delta":15276573},{"NoteNumber":53,"Velocity":48,"Duration":115830,"SoundDuration":115830,"Delta":15276573},{"NoteNumber":88,"Velocity":65,"Duration":115681,"SoundDuration":115681,"Delta":15392403},{"NoteNumber":89,"Velocity":65,"Duration":115384,"SoundDuration":115384,"Delta":15508084},{"NoteNumber":62,"Velocity":48,"Duration":115384,"SoundDuration":115384,"Delta":15508084},{"NoteNumber":57,"Velocity":40,"Duration":115384,"SoundDuration":115384,"Delta":15508084},{"NoteNumber":53,"Velocity":40,"Duration":115384,"SoundDuration":115384,"Delta":15508084},{"NoteNumber":88,"Velocity":62,"Duration":115089,"SoundDuration":115089,"Delta":15623469},{"NoteNumber":86,"Velocity":61,"Duration":114942,"SoundDuration":114942,"Delta":15738559},{"NoteNumber":84,"Velocity":59,"Duration":114503,"SoundDuration":114503,"Delta":15853501},{"NoteNumber":83,"Velocity":57,"Duration":114358,"SoundDuration":114358,"Delta":15968005},{"NoteNumber":55,"Velocity":34,"Duration":114358,"SoundDuration":114358,"Delta":15968005},{"NoteNumber":59,"Velocity":34,"Duration":114358,"SoundDuration":114358,"Delta":15968005},{"NoteNumber":65,"Velocity":41,"Duration":114358,"SoundDuration":114358,"Delta":15968005},{"NoteNumber":81,"Velocity":51,"Duration":114724,"SoundDuration":114724,"Delta":16082363},{"NoteNumber":79,"Velocity":53,"Duration":115980,"SoundDuration":115980,"Delta":16197088},{"NoteNumber":55,"Velocity":26,"Duration":115980,"SoundDuration":115980,"Delta":16197088},{"NoteNumber":59,"Velocity":26,"Duration":115980,"SoundDuration":115980,"Delta":16197088},{"NoteNumber":65,"Velocity":31,"Duration":115980,"SoundDuration":115980,"Delta":16197088},{"NoteNumber":77,"Velocity":48,"Duration":117188,"SoundDuration":117188,"Delta":16313068},{"NoteNumber":76,"Velocity":54,"Duration":118578,"SoundDuration":118578,"Delta":16430257},{"NoteNumber":74,"Velocity":46,"Duration":130150,"SoundDuration":130150,"Delta":16548835},{"NoteNumber":72,"Velocity":40,"Duration":117111,"SoundDuration":117111,"Delta":16678986},{"NoteNumber":64,"Velocity":30,"Duration":117111,"SoundDuration":117111,"Delta":16678986},{"NoteNumber":60,"Velocity":25,"Duration":117111,"SoundDuration":117111,"Delta":16678986},{"NoteNumber":74,"Velocity":42,"Duration":116656,"SoundDuration":116656,"Delta":16796097},{"NoteNumber":76,"Velocity":46,"Duration":116129,"SoundDuration":116129,"Delta":16912753},{"NoteNumber":55,"Velocity":29,"Duration":116129,"SoundDuration":116129,"Delta":16912753},{"NoteNumber":77,"Velocity":49,"Duration":115681,"SoundDuration":115681,"Delta":17028882},{"NoteNumber":78,"Velocity":52,"Duration":115163,"SoundDuration":115163,"Delta":17144564},{"NoteNumber":55,"Velocity":29,"Duration":115163,"SoundDuration":115163,"Delta":17144564},{"NoteNumber":79,"Velocity":54,"Duration":114723,"SoundDuration":114723,"Delta":17259727},{"NoteNumber":81,"Velocity":55,"Duration":114213,"SoundDuration":114213,"Delta":17374451},{"NoteNumber":59,"Velocity":22,"Duration":114213,"SoundDuration":114213,"Delta":17374451},{"NoteNumber":65,"Velocity":26,"Duration":114213,"SoundDuration":114213,"Delta":17374451},{"NoteNumber":79,"Velocity":51,"Duration":114286,"SoundDuration":114286,"Delta":17488664},{"NoteNumber":78,"Velocity":53,"Duration":114650,"SoundDuration":114650,"Delta":17602950},{"NoteNumber":55,"Velocity":33,"Duration":114650,"SoundDuration":114650,"Delta":17602950},{"NoteNumber":79,"Velocity":50,"Duration":115089,"SoundDuration":115089,"Delta":17717600},{"NoteNumber":81,"Velocity":53,"Duration":115458,"SoundDuration":115458,"Delta":17832690},{"NoteNumber":55,"Velocity":24,"Duration":115458,"SoundDuration":115458,"Delta":17832690},{"NoteNumber":83,"Velocity":49,"Duration":115904,"SoundDuration":115904,"Delta":17948149},{"NoteNumber":84,"Velocity":46,"Duration":116506,"SoundDuration":116506,"Delta":18064054},{"NoteNumber":64,"Velocity":30,"Duration":116506,"SoundDuration":116506,"Delta":18064054},{"NoteNumber":60,"Velocity":25,"Duration":116506,"SoundDuration":116506,"Delta":18064054},{"NoteNumber":86,"Velocity":48,"Duration":116354,"SoundDuration":116354,"Delta":18180561},{"NoteNumber":88,"Velocity":52,"Duration":115904,"SoundDuration":115904,"Delta":18296915},{"NoteNumber":55,"Velocity":29,"Duration":115904,"SoundDuration":115904,"Delta":18296915},{"NoteNumber":89,"Velocity":54,"Duration":115458,"SoundDuration":115458,"Delta":18412820},{"NoteNumber":90,"Velocity":59,"Duration":115016,"SoundDuration":115016,"Delta":18528279},{"NoteNumber":55,"Velocity":29,"Duration":115016,"SoundDuration":115016,"Delta":18528279},{"NoteNumber":91,"Velocity":62,"Duration":114432,"SoundDuration":114432,"Delta":18643295},{"NoteNumber":93,"Velocity":63,"Duration":113852,"SoundDuration":113852,"Delta":18757727},{"NoteNumber":65,"Velocity":35,"Duration":113852,"SoundDuration":113852,"Delta":18757727},{"NoteNumber":59,"Velocity":29,"Duration":113852,"SoundDuration":113852,"Delta":18757727},{"NoteNumber":91,"Velocity":58,"Duration":114504,"SoundDuration":114504,"Delta":18871580},{"NoteNumber":90,"Velocity":60,"Duration":115237,"SoundDuration":115237,"Delta":18986084},{"NoteNumber":55,"Velocity":45,"Duration":115237,"SoundDuration":115237,"Delta":18986084},{"NoteNumber":91,"Velocity":57,"Duration":115979,"SoundDuration":115979,"Delta":19101321},{"NoteNumber":93,"Velocity":60,"Duration":116656,"SoundDuration":116656,"Delta":19217301},{"NoteNumber":55,"Velocity":41,"Duration":116656,"SoundDuration":116656,"Delta":19217301},{"NoteNumber":95,"Velocity":56,"Duration":121572,"SoundDuration":121572,"Delta":19333957},{"NoteNumber":96,"Velocity":65,"Duration":117035,"SoundDuration":117035,"Delta":19455529},{"NoteNumber":60,"Velocity":54,"Duration":117035,"SoundDuration":117035,"Delta":19455529},{"NoteNumber":64,"Velocity":64,"Duration":117035,"SoundDuration":117035,"Delta":19455529},{"NoteNumber":98,"Velocity":67,"Duration":116505,"SoundDuration":116505,"Delta":19572565},{"NoteNumber":100,"Velocity":69,"Duration":115979,"SoundDuration":115979,"Delta":19689070},{"NoteNumber":60,"Velocity":46,"Duration":115979,"SoundDuration":115979,"Delta":19689070},{"NoteNumber":64,"Velocity":56,"Duration":115979,"SoundDuration":115979,"Delta":19689070},{"NoteNumber":98,"Velocity":64,"Duration":115458,"SoundDuration":115458,"Delta":19805050},{"NoteNumber":96,"Velocity":69,"Duration":114942,"SoundDuration":114942,"Delta":19920509},{"NoteNumber":95,"Velocity":64,"Duration":115163,"SoundDuration":115163,"Delta":20035451},{"NoteNumber":93,"Velocity":68,"Duration":115384,"SoundDuration":115384,"Delta":20150615},{"NoteNumber":48,"Velocity":49,"Duration":115384,"SoundDuration":115384,"Delta":20150615},{"NoteNumber":52,"Velocity":49,"Duration":115384,"SoundDuration":115384,"Delta":20150615},{"NoteNumber":57,"Velocity":58,"Duration":115384,"SoundDuration":115384,"Delta":20150615},{"NoteNumber":95,"Velocity":59,"Duration":115384,"SoundDuration":115384,"Delta":20265999},{"NoteNumber":96,"Velocity":68,"Duration":115532,"SoundDuration":115532,"Delta":20381384},{"NoteNumber":48,"Velocity":44,"Duration":115532,"SoundDuration":115532,"Delta":20381384},{"NoteNumber":57,"Velocity":52,"Duration":115532,"SoundDuration":115532,"Delta":20381384},{"NoteNumber":52,"Velocity":44,"Duration":115532,"SoundDuration":115532,"Delta":20381384},{"NoteNumber":95,"Velocity":61,"Duration":115830,"SoundDuration":115830,"Delta":20496917},{"NoteNumber":93,"Velocity":66,"Duration":115829,"SoundDuration":115829,"Delta":20612747},{"NoteNumber":91,"Velocity":61,"Duration":115979,"SoundDuration":115979,"Delta":20728577},{"NoteNumber":90,"Velocity":63,"Duration":116278,"SoundDuration":116278,"Delta":20844556},{"NoteNumber":60,"Velocity":56,"Duration":116278,"SoundDuration":116278,"Delta":20844556},{"NoteNumber":54,"Velocity":46,"Duration":116278,"SoundDuration":116278,"Delta":20844556},{"NoteNumber":50,"Velocity":46,"Duration":116278,"SoundDuration":116278,"Delta":20844556},{"NoteNumber":88,"Velocity":64,"Duration":116129,"SoundDuration":116129,"Delta":20960835},{"NoteNumber":86,"Velocity":62,"Duration":115830,"SoundDuration":115830,"Delta":21076965},{"NoteNumber":60,"Velocity":46,"Duration":115830,"SoundDuration":115830,"Delta":21076965},{"NoteNumber":54,"Velocity":38,"Duration":115830,"SoundDuration":115830,"Delta":21076965},{"NoteNumber":50,"Velocity":38,"Duration":115830,"SoundDuration":115830,"Delta":21076965},{"NoteNumber":84,"Velocity":62,"Duration":115681,"SoundDuration":115681,"Delta":21192795},{"NoteNumber":83,"Velocity":61,"Duration":115384,"SoundDuration":115384,"Delta":21308476},{"NoteNumber":81,"Velocity":59,"Duration":120445,"SoundDuration":120445,"Delta":21423861},{"NoteNumber":79,"Velocity":53,"Duration":122621,"SoundDuration":122621,"Delta":21544306},{"NoteNumber":55,"Velocity":32,"Duration":122621,"SoundDuration":122621,"Delta":21544306},{"NoteNumber":59,"Velocity":38,"Duration":122621,"SoundDuration":122621,"Delta":21544306},{"NoteNumber":55,"Velocity":38,"Duration":126317,"SoundDuration":126317,"Delta":21791498},{"NoteNumber":55,"Velocity":38,"Duration":129966,"SoundDuration":129966,"Delta":22045932},{"NoteNumber":77,"Velocity":63,"Duration":119575,"SoundDuration":119575,"Delta":22307345},{"NoteNumber":59,"Velocity":32,"Duration":119575,"SoundDuration":119575,"Delta":22307345},{"NoteNumber":65,"Velocity":38,"Duration":119575,"SoundDuration":119575,"Delta":22307345},{"NoteNumber":55,"Velocity":32,"Duration":119575,"SoundDuration":119575,"Delta":22307345},{"NoteNumber":79,"Velocity":65,"Duration":116708,"SoundDuration":116708,"Delta":22426921},{"NoteNumber":81,"Velocity":68,"Duration":115244,"SoundDuration":115244,"Delta":22543629},{"NoteNumber":65,"Velocity":32,"Duration":115244,"SoundDuration":115244,"Delta":22543629},{"NoteNumber":59,"Velocity":27,"Duration":115244,"SoundDuration":115244,"Delta":22543629},{"NoteNumber":55,"Velocity":27,"Duration":115244,"SoundDuration":115244,"Delta":22543629},{"NoteNumber":79,"Velocity":70,"Duration":114592,"SoundDuration":114592,"Delta":22658873},{"NoteNumber":77,"Velocity":68,"Duration":114702,"SoundDuration":114702,"Delta":22773465},{"NoteNumber":65,"Velocity":32,"Duration":114702,"SoundDuration":114702,"Delta":22773465},{"NoteNumber":59,"Velocity":27,"Duration":114702,"SoundDuration":114702,"Delta":22773465},{"NoteNumber":55,"Velocity":27,"Duration":114702,"SoundDuration":114702,"Delta":22773465},{"NoteNumber":76,"Velocity":62,"Duration":116033,"SoundDuration":116033,"Delta":22888168},{"NoteNumber":74,"Velocity":64,"Duration":124136,"SoundDuration":124136,"Delta":23004201},{"NoteNumber":65,"Velocity":38,"Duration":124136,"SoundDuration":124136,"Delta":23004201},{"NoteNumber":59,"Velocity":32,"Duration":124136,"SoundDuration":124136,"Delta":23004201},{"NoteNumber":55,"Velocity":32,"Duration":124136,"SoundDuration":124136,"Delta":23004201},{"NoteNumber":76,"Velocity":65,"Duration":116278,"SoundDuration":116278,"Delta":23128337},{"NoteNumber":77,"Velocity":67,"Duration":116278,"SoundDuration":116278,"Delta":23244616},{"NoteNumber":65,"Velocity":33,"Duration":116278,"SoundDuration":116278,"Delta":23244616},{"NoteNumber":59,"Velocity":28,"Duration":116278,"SoundDuration":116278,"Delta":23244616},{"NoteNumber":55,"Velocity":28,"Duration":116278,"SoundDuration":116278,"Delta":23244616},{"NoteNumber":76,"Velocity":68,"Duration":116061,"SoundDuration":116061,"Delta":23360895},{"NoteNumber":74,"Velocity":65,"Duration":115897,"SoundDuration":115897,"Delta":23476957},{"NoteNumber":65,"Velocity":32,"Duration":115897,"SoundDuration":115897,"Delta":23476957},{"NoteNumber":59,"Velocity":27,"Duration":115897,"SoundDuration":115897,"Delta":23476957},{"NoteNumber":55,"Velocity":27,"Duration":115897,"SoundDuration":115897,"Delta":23476957},{"NoteNumber":72,"Velocity":61,"Duration":126338,"SoundDuration":126338,"Delta":23592855},{"NoteNumber":71,"Velocity":65,"Duration":117493,"SoundDuration":117493,"Delta":23719194},{"NoteNumber":55,"Velocity":34,"Duration":117493,"SoundDuration":117493,"Delta":23719194},{"NoteNumber":65,"Velocity":40,"Duration":117493,"SoundDuration":117493,"Delta":23719194},{"NoteNumber":59,"Velocity":34,"Duration":117493,"SoundDuration":117493,"Delta":23719194},{"NoteNumber":72,"Velocity":57,"Duration":116967,"SoundDuration":116967,"Delta":23836687},{"NoteNumber":71,"Velocity":62,"Duration":116294,"SoundDuration":116294,"Delta":23953655},{"NoteNumber":65,"Velocity":32,"Duration":116294,"SoundDuration":116294,"Delta":23953655},{"NoteNumber":59,"Velocity":27,"Duration":116294,"SoundDuration":116294,"Delta":23953655},{"NoteNumber":55,"Velocity":27,"Duration":116294,"SoundDuration":116294,"Delta":23953655},{"NoteNumber":70,"Velocity":58,"Duration":115540,"SoundDuration":115540,"Delta":24069949},{"NoteNumber":71,"Velocity":53,"Duration":115384,"SoundDuration":115384,"Delta":24185490},{"NoteNumber":55,"Velocity":22,"Duration":115384,"SoundDuration":115384,"Delta":24185490},{"NoteNumber":59,"Velocity":22,"Duration":115384,"SoundDuration":115384,"Delta":24185490},{"NoteNumber":65,"Velocity":27,"Duration":115384,"SoundDuration":115384,"Delta":24185490},{"NoteNumber":81,"Velocity":69,"Duration":148916,"SoundDuration":148916,"Delta":24300874},{"NoteNumber":79,"Velocity":59,"Duration":120967,"SoundDuration":120967,"Delta":24429629},{"NoteNumber":59,"Velocity":29,"Duration":120967,"SoundDuration":120967,"Delta":24429629},{"NoteNumber":65,"Velocity":35,"Duration":120967,"SoundDuration":120967,"Delta":24429629},{"NoteNumber":55,"Velocity":29,"Duration":120967,"SoundDuration":120967,"Delta":24429629},{"NoteNumber":65,"Velocity":24,"Duration":123456,"SoundDuration":123456,"Delta":24671565},{"NoteNumber":59,"Velocity":20,"Duration":123456,"SoundDuration":123456,"Delta":24671565},{"NoteNumber":55,"Velocity":20,"Duration":123456,"SoundDuration":123456,"Delta":24671565},{"NoteNumber":65,"Velocity":22,"Duration":122037,"SoundDuration":122037,"Delta":24918478},{"NoteNumber":59,"Velocity":18,"Duration":122037,"SoundDuration":122037,"Delta":24918478},{"NoteNumber":55,"Velocity":18,"Duration":122037,"SoundDuration":122037,"Delta":24918478},{"NoteNumber":42,"Velocity":63,"Duration":140359,"SoundDuration":140359,"Delta":25176263},{"NoteNumber":60,"Velocity":40,"Duration":117013,"SoundDuration":117013,"Delta":25176263},{"NoteNumber":64,"Velocity":47,"Duration":117013,"SoundDuration":117013,"Delta":25176263},{"NoteNumber":43,"Velocity":65,"Duration":139610,"SoundDuration":139610,"Delta":25293276},{"NoteNumber":45,"Velocity":68,"Duration":138773,"SoundDuration":138773,"Delta":25409713},{"NoteNumber":64,"Velocity":40,"Duration":115696,"SoundDuration":115696,"Delta":25409713},{"NoteNumber":60,"Velocity":33,"Duration":115696,"SoundDuration":115696,"Delta":25409713},{"NoteNumber":43,"Velocity":70,"Duration":137866,"SoundDuration":137866,"Delta":25525409},{"NoteNumber":42,"Velocity":68,"Duration":138381,"SoundDuration":138381,"Delta":25640295},{"NoteNumber":64,"Velocity":40,"Duration":115215,"SoundDuration":115215,"Delta":25640295},{"NoteNumber":60,"Velocity":33,"Duration":115215,"SoundDuration":115215,"Delta":25640295},{"NoteNumber":43,"Velocity":62,"Duration":141369,"SoundDuration":141369,"Delta":25755510},{"NoteNumber":47,"Velocity":64,"Duration":146518,"SoundDuration":146518,"Delta":25871775},{"NoteNumber":64,"Velocity":47,"Duration":123739,"SoundDuration":123739,"Delta":25871775},{"NoteNumber":60,"Velocity":40,"Duration":123739,"SoundDuration":123739,"Delta":25871775},{"NoteNumber":48,"Velocity":65,"Duration":139351,"SoundDuration":139351,"Delta":25995515},{"NoteNumber":50,"Velocity":67,"Duration":139220,"SoundDuration":139220,"Delta":26111611},{"NoteNumber":64,"Velocity":41,"Duration":116061,"SoundDuration":116061,"Delta":26111611},{"NoteNumber":60,"Velocity":35,"Duration":116061,"SoundDuration":116061,"Delta":26111611},{"NoteNumber":48,"Velocity":68,"Duration":137925,"SoundDuration":137925,"Delta":26227673},{"NoteNumber":47,"Velocity":65,"Duration":139570,"SoundDuration":139570,"Delta":26343000},{"NoteNumber":64,"Velocity":40,"Duration":113929,"SoundDuration":113929,"Delta":26343000},{"NoteNumber":60,"Velocity":33,"Duration":113929,"SoundDuration":113929,"Delta":26343000},{"NoteNumber":48,"Velocity":61,"Duration":149784,"SoundDuration":149784,"Delta":26456930},{"NoteNumber":51,"Velocity":72,"Duration":141084,"SoundDuration":141084,"Delta":26583268},{"NoteNumber":60,"Velocity":50,"Duration":117562,"SoundDuration":117562,"Delta":26583268},{"NoteNumber":64,"Velocity":60,"Duration":117562,"SoundDuration":117562,"Delta":26583268},{"NoteNumber":52,"Velocity":67,"Duration":140625,"SoundDuration":140625,"Delta":26700831},{"NoteNumber":53,"Velocity":73,"Duration":139927,"SoundDuration":139927,"Delta":26818103},{"NoteNumber":64,"Velocity":56,"Duration":116671,"SoundDuration":116671,"Delta":26818103},{"NoteNumber":60,"Velocity":47,"Duration":116671,"SoundDuration":116671,"Delta":26818103},{"NoteNumber":52,"Velocity":70,"Duration":139385,"SoundDuration":139385,"Delta":26934774},{"NoteNumber":51,"Velocity":68,"Duration":142461,"SoundDuration":142461,"Delta":27050911},{"NoteNumber":60,"Velocity":43,"Duration":116710,"SoundDuration":116710,"Delta":27050911},{"NoteNumber":64,"Velocity":52,"Duration":116710,"SoundDuration":116710,"Delta":27050911},{"NoteNumber":52,"Velocity":72,"Duration":153046,"SoundDuration":153046,"Delta":27167621},{"NoteNumber":55,"Velocity":78,"Duration":121457,"SoundDuration":121457,"Delta":27296376},{"NoteNumber":64,"Velocity":60,"Duration":121457,"SoundDuration":121457,"Delta":27296376},{"NoteNumber":60,"Velocity":50,"Duration":121457,"SoundDuration":121457,"Delta":27296376},{"NoteNumber":60,"Velocity":45,"Duration":123456,"SoundDuration":123456,"Delta":27539291},{"NoteNumber":64,"Velocity":53,"Duration":123456,"SoundDuration":123456,"Delta":27539291},{"NoteNumber":60,"Velocity":45,"Duration":122037,"SoundDuration":122037,"Delta":27786205},{"NoteNumber":64,"Velocity":53,"Duration":122037,"SoundDuration":122037,"Delta":27786205},{"NoteNumber":77,"Velocity":63,"Duration":119575,"SoundDuration":119575,"Delta":28029766},{"NoteNumber":59,"Velocity":32,"Duration":119575,"SoundDuration":119575,"Delta":28029766},{"NoteNumber":65,"Velocity":38,"Duration":119575,"SoundDuration":119575,"Delta":28029766},{"NoteNumber":55,"Velocity":32,"Duration":119575,"SoundDuration":119575,"Delta":28029766},{"NoteNumber":79,"Velocity":65,"Duration":116708,"SoundDuration":116708,"Delta":28149341},{"NoteNumber":80,"Velocity":68,"Duration":115244,"SoundDuration":115244,"Delta":28266050},{"NoteNumber":65,"Velocity":32,"Duration":115244,"SoundDuration":115244,"Delta":28266050},{"NoteNumber":59,"Velocity":27,"Duration":115244,"SoundDuration":115244,"Delta":28266050},{"NoteNumber":55,"Velocity":27,"Duration":115244,"SoundDuration":115244,"Delta":28266050},{"NoteNumber":79,"Velocity":70,"Duration":114592,"SoundDuration":114592,"Delta":28381294},{"NoteNumber":77,"Velocity":68,"Duration":114702,"SoundDuration":114702,"Delta":28495886},{"NoteNumber":65,"Velocity":32,"Duration":114702,"SoundDuration":114702,"Delta":28495886},{"NoteNumber":59,"Velocity":27,"Duration":114702,"SoundDuration":114702,"Delta":28495886},{"NoteNumber":55,"Velocity":27,"Duration":114702,"SoundDuration":114702,"Delta":28495886},{"NoteNumber":75,"Velocity":62,"Duration":116033,"SoundDuration":116033,"Delta":28610588},{"NoteNumber":74,"Velocity":64,"Duration":124136,"SoundDuration":124136,"Delta":28726622},{"NoteNumber":65,"Velocity":38,"Duration":124136,"SoundDuration":124136,"Delta":28726622},{"NoteNumber":59,"Velocity":32,"Duration":124136,"SoundDuration":124136,"Delta":28726622},{"NoteNumber":55,"Velocity":32,"Duration":124136,"SoundDuration":124136,"Delta":28726622},{"NoteNumber":75,"Velocity":65,"Duration":116278,"SoundDuration":116278,"Delta":28850758},{"NoteNumber":77,"Velocity":67,"Duration":116278,"SoundDuration":116278,"Delta":28967037},{"NoteNumber":65,"Velocity":33,"Duration":116278,"SoundDuration":116278,"Delta":28967037},{"NoteNumber":59,"Velocity":28,"Duration":116278,"SoundDuration":116278,"Delta":28967037},{"NoteNumber":55,"Velocity":28,"Duration":116278,"SoundDuration":116278,"Delta":28967037},{"NoteNumber":75,"Velocity":68,"Duration":116061,"SoundDuration":116061,"Delta":29083316},{"NoteNumber":74,"Velocity":65,"Duration":115897,"SoundDuration":115897,"Delta":29199378},{"NoteNumber":65,"Velocity":32,"Duration":115897,"SoundDuration":115897,"Delta":29199378},{"NoteNumber":59,"Velocity":27,"Duration":115897,"SoundDuration":115897,"Delta":29199378},{"NoteNumber":55,"Velocity":27,"Duration":115897,"SoundDuration":115897,"Delta":29199378},{"NoteNumber":72,"Velocity":61,"Duration":126338,"SoundDuration":126338,"Delta":29315275},{"NoteNumber":71,"Velocity":65,"Duration":117493,"SoundDuration":117493,"Delta":29441614},{"NoteNumber":55,"Velocity":34,"Duration":117493,"SoundDuration":117493,"Delta":29441614},{"NoteNumber":65,"Velocity":40,"Duration":117493,"SoundDuration":117493,"Delta":29441614},{"NoteNumber":59,"Velocity":34,"Duration":117493,"SoundDuration":117493,"Delta":29441614},{"NoteNumber":72,"Velocity":57,"Duration":116967,"SoundDuration":116967,"Delta":29559108},{"NoteNumber":71,"Velocity":62,"Duration":116294,"SoundDuration":116294,"Delta":29676075},{"NoteNumber":65,"Velocity":32,"Duration":116294,"SoundDuration":116294,"Delta":29676075},{"NoteNumber":59,"Velocity":27,"Duration":116294,"SoundDuration":116294,"Delta":29676075},{"NoteNumber":55,"Velocity":27,"Duration":116294,"SoundDuration":116294,"Delta":29676075},{"NoteNumber":70,"Velocity":58,"Duration":115540,"SoundDuration":115540,"Delta":29792370},{"NoteNumber":71,"Velocity":53,"Duration":115384,"SoundDuration":115384,"Delta":29907910},{"NoteNumber":55,"Velocity":22,"Duration":115384,"SoundDuration":115384,"Delta":29907910},{"NoteNumber":59,"Velocity":22,"Duration":115384,"SoundDuration":115384,"Delta":29907910},{"NoteNumber":65,"Velocity":27,"Duration":115384,"SoundDuration":115384,"Delta":29907910},{"NoteNumber":80,"Velocity":68,"Duration":148916,"SoundDuration":148916,"Delta":30023295},{"NoteNumber":79,"Velocity":59,"Duration":120967,"SoundDuration":120967,"Delta":30152050},{"NoteNumber":59,"Velocity":29,"Duration":120967,"SoundDuration":120967,"Delta":30152050},{"NoteNumber":65,"Velocity":35,"Duration":120967,"SoundDuration":120967,"Delta":30152050},{"NoteNumber":55,"Velocity":29,"Duration":120967,"SoundDuration":120967,"Delta":30152050},{"NoteNumber":65,"Velocity":24,"Duration":123456,"SoundDuration":123456,"Delta":30393985},{"NoteNumber":59,"Velocity":20,"Duration":123456,"SoundDuration":123456,"Delta":30393985},{"NoteNumber":55,"Velocity":20,"Duration":123456,"SoundDuration":123456,"Delta":30393985},{"NoteNumber":65,"Velocity":22,"Duration":122037,"SoundDuration":122037,"Delta":30640899},{"NoteNumber":59,"Velocity":18,"Duration":122037,"SoundDuration":122037,"Delta":30640899},{"NoteNumber":55,"Velocity":18,"Duration":122037,"SoundDuration":122037,"Delta":30640899},{"NoteNumber":42,"Velocity":63,"Duration":140359,"SoundDuration":140359,"Delta":30898683},{"NoteNumber":60,"Velocity":40,"Duration":117013,"SoundDuration":117013,"Delta":30898683},{"NoteNumber":63,"Velocity":47,"Duration":117013,"SoundDuration":117013,"Delta":30898683},{"NoteNumber":43,"Velocity":65,"Duration":139610,"SoundDuration":139610,"Delta":31015696},{"NoteNumber":44,"Velocity":68,"Duration":138773,"SoundDuration":138773,"Delta":31132134},{"NoteNumber":63,"Velocity":40,"Duration":115696,"SoundDuration":115696,"Delta":31132134},{"NoteNumber":60,"Velocity":33,"Duration":115696,"SoundDuration":115696,"Delta":31132134},{"NoteNumber":43,"Velocity":70,"Duration":137866,"SoundDuration":137866,"Delta":31247830},{"NoteNumber":42,"Velocity":68,"Duration":138381,"SoundDuration":138381,"Delta":31362715},{"NoteNumber":63,"Velocity":40,"Duration":115215,"SoundDuration":115215,"Delta":31362715},{"NoteNumber":60,"Velocity":33,"Duration":115215,"SoundDuration":115215,"Delta":31362715},{"NoteNumber":43,"Velocity":62,"Duration":141369,"SoundDuration":141369,"Delta":31477931},{"NoteNumber":47,"Velocity":64,"Duration":146518,"SoundDuration":146518,"Delta":31594196},{"NoteNumber":63,"Velocity":47,"Duration":123739,"SoundDuration":123739,"Delta":31594196},{"NoteNumber":60,"Velocity":40,"Duration":123739,"SoundDuration":123739,"Delta":31594196},{"NoteNumber":48,"Velocity":65,"Duration":139351,"SoundDuration":139351,"Delta":31717936},{"NoteNumber":50,"Velocity":67,"Duration":139220,"SoundDuration":139220,"Delta":31834032},{"NoteNumber":63,"Velocity":41,"Duration":116061,"SoundDuration":116061,"Delta":31834032},{"NoteNumber":60,"Velocity":35,"Duration":116061,"SoundDuration":116061,"Delta":31834032},{"NoteNumber":48,"Velocity":68,"Duration":137925,"SoundDuration":137925,"Delta":31950094},{"NoteNumber":47,"Velocity":65,"Duration":139570,"SoundDuration":139570,"Delta":32065420},{"NoteNumber":63,"Velocity":40,"Duration":113929,"SoundDuration":113929,"Delta":32065420},{"NoteNumber":60,"Velocity":33,"Duration":113929,"SoundDuration":113929,"Delta":32065420},{"NoteNumber":48,"Velocity":61,"Duration":149784,"SoundDuration":149784,"Delta":32179350},{"NoteNumber":50,"Velocity":72,"Duration":141084,"SoundDuration":141084,"Delta":32305689},{"NoteNumber":60,"Velocity":50,"Duration":117562,"SoundDuration":117562,"Delta":32305689},{"NoteNumber":63,"Velocity":60,"Duration":117562,"SoundDuration":117562,"Delta":32305689},{"NoteNumber":51,"Velocity":67,"Duration":140625,"SoundDuration":140625,"Delta":32423252},{"NoteNumber":53,"Velocity":73,"Duration":139927,"SoundDuration":139927,"Delta":32540524},{"NoteNumber":63,"Velocity":56,"Duration":116671,"SoundDuration":116671,"Delta":32540524},{"NoteNumber":60,"Velocity":47,"Duration":116671,"SoundDuration":116671,"Delta":32540524},{"NoteNumber":51,"Velocity":70,"Duration":139385,"SoundDuration":139385,"Delta":32657195},{"NoteNumber":50,"Velocity":68,"Duration":142461,"SoundDuration":142461,"Delta":32773332},{"NoteNumber":60,"Velocity":43,"Duration":116710,"SoundDuration":116710,"Delta":32773332},{"NoteNumber":63,"Velocity":52,"Duration":116710,"SoundDuration":116710,"Delta":32773332},{"NoteNumber":51,"Velocity":72,"Duration":153046,"SoundDuration":153046,"Delta":32890042},{"NoteNumber":55,"Velocity":78,"Duration":121457,"SoundDuration":121457,"Delta":33018797},{"NoteNumber":63,"Velocity":60,"Duration":121457,"SoundDuration":121457,"Delta":33018797},{"NoteNumber":60,"Velocity":50,"Duration":121457,"SoundDuration":121457,"Delta":33018797},{"NoteNumber":60,"Velocity":38,"Duration":123456,"SoundDuration":123456,"Delta":33261712},{"NoteNumber":63,"Velocity":45,"Duration":123456,"SoundDuration":123456,"Delta":33261712},{"NoteNumber":60,"Velocity":38,"Duration":122037,"SoundDuration":122037,"Delta":33508625},{"NoteNumber":63,"Velocity":45,"Duration":122037,"SoundDuration":122037,"Delta":33508625},{"NoteNumber":75,"Velocity":45,"Duration":119575,"SoundDuration":119575,"Delta":33752186},{"NoteNumber":60,"Velocity":27,"Duration":119575,"SoundDuration":119575,"Delta":33752186},{"NoteNumber":63,"Velocity":32,"Duration":119575,"SoundDuration":119575,"Delta":33752186},{"NoteNumber":56,"Velocity":27,"Duration":119575,"SoundDuration":119575,"Delta":33752186},{"NoteNumber":77,"Velocity":47,"Duration":116462,"SoundDuration":116462,"Delta":33871762},{"NoteNumber":75,"Velocity":50,"Duration":116024,"SoundDuration":116024,"Delta":33988224},{"NoteNumber":63,"Velocity":27,"Duration":116024,"SoundDuration":116024,"Delta":33988224},{"NoteNumber":60,"Velocity":22,"Duration":116024,"SoundDuration":116024,"Delta":33988224},{"NoteNumber":56,"Velocity":22,"Duration":116024,"SoundDuration":116024,"Delta":33988224},{"NoteNumber":72,"Velocity":45,"Duration":115651,"SoundDuration":115651,"Delta":34104249},{"NoteNumber":84,"Velocity":51,"Duration":116070,"SoundDuration":116070,"Delta":34219900},{"NoteNumber":63,"Velocity":27,"Duration":116070,"SoundDuration":116070,"Delta":34219900},{"NoteNumber":60,"Velocity":22,"Duration":116070,"SoundDuration":116070,"Delta":34219900},{"NoteNumber":56,"Velocity":22,"Duration":116070,"SoundDuration":116070,"Delta":34219900},{"NoteNumber":55,"Velocity":37,"Duration":124136,"SoundDuration":124136,"Delta":34453083},{"NoteNumber":58,"Velocity":37,"Duration":124136,"SoundDuration":124136,"Delta":34453083},{"NoteNumber":63,"Velocity":44,"Duration":124136,"SoundDuration":124136,"Delta":34453083},{"NoteNumber":85,"Velocity":68,"Duration":232340,"SoundDuration":232340,"Delta":34693498},{"NoteNumber":55,"Velocity":39,"Duration":116278,"SoundDuration":116278,"Delta":34693498},{"NoteNumber":58,"Velocity":39,"Duration":116278,"SoundDuration":116278,"Delta":34693498},{"NoteNumber":63,"Velocity":46,"Duration":116278,"SoundDuration":116278,"Delta":34693498},{"NoteNumber":75,"Velocity":61,"Duration":253323,"SoundDuration":253323,"Delta":34925839},{"NoteNumber":63,"Velocity":32,"Duration":115897,"SoundDuration":115897,"Delta":34925839},{"NoteNumber":58,"Velocity":27,"Duration":115897,"SoundDuration":115897,"Delta":34925839},{"NoteNumber":55,"Velocity":27,"Duration":115897,"SoundDuration":115897,"Delta":34925839},{"NoteNumber":75,"Velocity":45,"Duration":119575,"SoundDuration":119575,"Delta":35179162},{"NoteNumber":60,"Velocity":27,"Duration":119575,"SoundDuration":119575,"Delta":35179162},{"NoteNumber":63,"Velocity":32,"Duration":119575,"SoundDuration":119575,"Delta":35179162},{"NoteNumber":56,"Velocity":27,"Duration":119575,"SoundDuration":119575,"Delta":35179162},{"NoteNumber":77,"Velocity":47,"Duration":116462,"SoundDuration":116462,"Delta":35298738},{"NoteNumber":75,"Velocity":50,"Duration":116024,"SoundDuration":116024,"Delta":35415200},{"NoteNumber":63,"Velocity":27,"Duration":116024,"SoundDuration":116024,"Delta":35415200},{"NoteNumber":60,"Velocity":22,"Duration":116024,"SoundDuration":116024,"Delta":35415200},{"NoteNumber":56,"Velocity":22,"Duration":116024,"SoundDuration":116024,"Delta":35415200},{"NoteNumber":72,"Velocity":45,"Duration":115651,"SoundDuration":115651,"Delta":35531225},{"NoteNumber":84,"Velocity":51,"Duration":116070,"SoundDuration":116070,"Delta":35646876},{"NoteNumber":63,"Velocity":27,"Duration":116070,"SoundDuration":116070,"Delta":35646876},{"NoteNumber":60,"Velocity":22,"Duration":116070,"SoundDuration":116070,"Delta":35646876},{"NoteNumber":56,"Velocity":22,"Duration":116070,"SoundDuration":116070,"Delta":35646876},{"NoteNumber":55,"Velocity":37,"Duration":124136,"SoundDuration":124136,"Delta":35880059},{"NoteNumber":58,"Velocity":37,"Duration":124136,"SoundDuration":124136,"Delta":35880059},{"NoteNumber":63,"Velocity":44,"Duration":124136,"SoundDuration":124136,"Delta":35880059},{"NoteNumber":85,"Velocity":68,"Duration":232340,"SoundDuration":232340,"Delta":36120474},{"NoteNumber":55,"Velocity":39,"Duration":116278,"SoundDuration":116278,"Delta":36120474},{"NoteNumber":58,"Velocity":39,"Duration":116278,"SoundDuration":116278,"Delta":36120474},{"NoteNumber":63,"Velocity":46,"Duration":116278,"SoundDuration":116278,"Delta":36120474},{"NoteNumber":75,"Velocity":61,"Duration":251677,"SoundDuration":251677,"Delta":36352815},{"NoteNumber":63,"Velocity":32,"Duration":115897,"SoundDuration":115897,"Delta":36352815},{"NoteNumber":58,"Velocity":27,"Duration":115897,"SoundDuration":115897,"Delta":36352815},{"NoteNumber":55,"Velocity":27,"Duration":115897,"SoundDuration":115897,"Delta":36352815},{"NoteNumber":75,"Velocity":47,"Duration":119575,"SoundDuration":119575,"Delta":36604493},{"NoteNumber":60,"Velocity":28,"Duration":119575,"SoundDuration":119575,"Delta":36604493},{"NoteNumber":63,"Velocity":34,"Duration":119575,"SoundDuration":119575,"Delta":36604493},{"NoteNumber":56,"Velocity":28,"Duration":119575,"SoundDuration":119575,"Delta":36604493},{"NoteNumber":77,"Velocity":50,"Duration":116462,"SoundDuration":116462,"Delta":36724068},{"NoteNumber":75,"Velocity":53,"Duration":116024,"SoundDuration":116024,"Delta":36840531},{"NoteNumber":63,"Velocity":28,"Duration":116024,"SoundDuration":116024,"Delta":36840531},{"NoteNumber":60,"Velocity":24,"Duration":116024,"SoundDuration":116024,"Delta":36840531},{"NoteNumber":56,"Velocity":24,"Duration":116024,"SoundDuration":116024,"Delta":36840531},{"NoteNumber":72,"Velocity":47,"Duration":115651,"SoundDuration":115651,"Delta":36956555},{"NoteNumber":84,"Velocity":54,"Duration":116070,"SoundDuration":116070,"Delta":37072207},{"NoteNumber":63,"Velocity":28,"Duration":116070,"SoundDuration":116070,"Delta":37072207},{"NoteNumber":60,"Velocity":24,"Duration":116070,"SoundDuration":116070,"Delta":37072207},{"NoteNumber":56,"Velocity":24,"Duration":116070,"SoundDuration":116070,"Delta":37072207},{"NoteNumber":76,"Velocity":53,"Duration":119575,"SoundDuration":119575,"Delta":37305389},{"NoteNumber":60,"Velocity":33,"Duration":119575,"SoundDuration":119575,"Delta":37305389},{"NoteNumber":64,"Velocity":39,"Duration":119575,"SoundDuration":119575,"Delta":37305389},{"NoteNumber":56,"Velocity":33,"Duration":119575,"SoundDuration":119575,"Delta":37305389},{"NoteNumber":77,"Velocity":56,"Duration":116462,"SoundDuration":116462,"Delta":37424965},{"NoteNumber":76,"Velocity":59,"Duration":116024,"SoundDuration":116024,"Delta":37541427},{"NoteNumber":64,"Velocity":33,"Duration":116024,"SoundDuration":116024,"Delta":37541427},{"NoteNumber":60,"Velocity":28,"Duration":116024,"SoundDuration":116024,"Delta":37541427},{"NoteNumber":56,"Velocity":28,"Duration":116024,"SoundDuration":116024,"Delta":37541427},{"NoteNumber":72,"Velocity":53,"Duration":115651,"SoundDuration":115651,"Delta":37657452},{"NoteNumber":84,"Velocity":61,"Duration":116070,"SoundDuration":116070,"Delta":37773103},{"NoteNumber":64,"Velocity":34,"Duration":116070,"SoundDuration":116070,"Delta":37773103},{"NoteNumber":60,"Velocity":29,"Duration":116070,"SoundDuration":116070,"Delta":37773103},{"NoteNumber":56,"Velocity":29,"Duration":116070,"SoundDuration":116070,"Delta":37773103},{"NoteNumber":77,"Velocity":60,"Duration":119575,"SoundDuration":119575,"Delta":38006286},{"NoteNumber":60,"Velocity":39,"Duration":119575,"SoundDuration":119575,"Delta":38006286},{"NoteNumber":65,"Velocity":47,"Duration":119575,"SoundDuration":119575,"Delta":38006286},{"NoteNumber":56,"Velocity":39,"Duration":119575,"SoundDuration":119575,"Delta":38006286},{"NoteNumber":79,"Velocity":64,"Duration":116462,"SoundDuration":116462,"Delta":38125861},{"NoteNumber":77,"Velocity":67,"Duration":116024,"SoundDuration":116024,"Delta":38242323},{"NoteNumber":65,"Velocity":39,"Duration":116024,"SoundDuration":116024,"Delta":38242323},{"NoteNumber":60,"Velocity":34,"Duration":116024,"SoundDuration":116024,"Delta":38242323},{"NoteNumber":56,"Velocity":34,"Duration":116024,"SoundDuration":116024,"Delta":38242323},{"NoteNumber":72,"Velocity":60,"Duration":115651,"SoundDuration":115651,"Delta":38358348},{"NoteNumber":84,"Velocity":70,"Duration":116070,"SoundDuration":116070,"Delta":38474000},{"NoteNumber":65,"Velocity":40,"Duration":116070,"SoundDuration":116070,"Delta":38474000},{"NoteNumber":60,"Velocity":35,"Duration":116070,"SoundDuration":116070,"Delta":38474000},{"NoteNumber":56,"Velocity":35,"Duration":116070,"SoundDuration":116070,"Delta":38474000},{"NoteNumber":78,"Velocity":68,"Duration":119575,"SoundDuration":119575,"Delta":38707182},{"NoteNumber":60,"Velocity":46,"Duration":119575,"SoundDuration":119575,"Delta":38707182},{"NoteNumber":63,"Velocity":55,"Duration":119575,"SoundDuration":119575,"Delta":38707182},{"NoteNumber":56,"Velocity":46,"Duration":119575,"SoundDuration":119575,"Delta":38707182},{"NoteNumber":79,"Velocity":72,"Duration":116462,"SoundDuration":116462,"Delta":38826758},{"NoteNumber":78,"Velocity":76,"Duration":116024,"SoundDuration":116024,"Delta":38943220},{"NoteNumber":63,"Velocity":47,"Duration":116024,"SoundDuration":116024,"Delta":38943220},{"NoteNumber":60,"Velocity":40,"Duration":116024,"SoundDuration":116024,"Delta":38943220},{"NoteNumber":56,"Velocity":40,"Duration":116024,"SoundDuration":116024,"Delta":38943220},{"NoteNumber":72,"Velocity":68,"Duration":115651,"SoundDuration":115651,"Delta":39059244},{"NoteNumber":84,"Velocity":79,"Duration":116070,"SoundDuration":116070,"Delta":39174896},{"NoteNumber":63,"Velocity":48,"Duration":116070,"SoundDuration":116070,"Delta":39174896},{"NoteNumber":60,"Velocity":41,"Duration":116070,"SoundDuration":116070,"Delta":39174896},{"NoteNumber":56,"Velocity":41,"Duration":116070,"SoundDuration":116070,"Delta":39174896},{"NoteNumber":79,"Velocity":81,"Duration":112431,"SoundDuration":112431,"Delta":39407754},{"NoteNumber":64,"Velocity":78,"Duration":1429329,"SoundDuration":1429329,"Delta":39407754},{"NoteNumber":60,"Velocity":66,"Duration":1429329,"SoundDuration":1429329,"Delta":39407754},{"NoteNumber":55,"Velocity":66,"Duration":1429329,"SoundDuration":1429329,"Delta":39407754},{"NoteNumber":81,"Velocity":69,"Duration":114026,"SoundDuration":114026,"Delta":39520185},{"NoteNumber":83,"Velocity":65,"Duration":115683,"SoundDuration":115683,"Delta":39634212},{"NoteNumber":84,"Velocity":65,"Duration":99118,"SoundDuration":99118,"Delta":39749896},{"NoteNumber":76,"Velocity":79,"Duration":114445,"SoundDuration":114445,"Delta":39882054},{"NoteNumber":77,"Velocity":68,"Duration":115179,"SoundDuration":115179,"Delta":39996500},{"NoteNumber":78,"Velocity":65,"Duration":116672,"SoundDuration":116672,"Delta":40111680},{"NoteNumber":79,"Velocity":65,"Duration":131579,"SoundDuration":131579,"Delta":40228352},{"NoteNumber":72,"Velocity":77,"Duration":115034,"SoundDuration":115034,"Delta":40359931},{"NoteNumber":74,"Velocity":68,"Duration":115711,"SoundDuration":115711,"Delta":40474966},{"NoteNumber":75,"Velocity":64,"Duration":116535,"SoundDuration":116535,"Delta":40590677},{"NoteNumber":76,"Velocity":64,"Duration":97402,"SoundDuration":97402,"Delta":40707213},{"NoteNumber":67,"Velocity":73,"Duration":137087,"SoundDuration":137087,"Delta":40837084},{"NoteNumber":55,"Velocity":58,"Duration":137087,"SoundDuration":137087,"Delta":40837084},{"NoteNumber":69,"Velocity":58,"Duration":137958,"SoundDuration":137958,"Delta":40951287},{"NoteNumber":57,"Velocity":46,"Duration":137958,"SoundDuration":137958,"Delta":40951287},{"NoteNumber":71,"Velocity":55,"Duration":142217,"SoundDuration":142217,"Delta":41066187},{"NoteNumber":59,"Velocity":44,"Duration":142217,"SoundDuration":142217,"Delta":41066187},{"NoteNumber":72,"Velocity":55,"Duration":99118,"SoundDuration":99118,"Delta":41181973},{"NoteNumber":60,"Velocity":44,"Duration":99118,"SoundDuration":99118,"Delta":41181973},{"NoteNumber":64,"Velocity":67,"Duration":137524,"SoundDuration":137524,"Delta":41314131},{"NoteNumber":52,"Velocity":53,"Duration":137524,"SoundDuration":137524,"Delta":41314131},{"NoteNumber":65,"Velocity":57,"Duration":139010,"SoundDuration":139010,"Delta":41428612},{"NoteNumber":53,"Velocity":45,"Duration":139010,"SoundDuration":139010,"Delta":41428612},{"NoteNumber":66,"Velocity":55,"Duration":143443,"SoundDuration":143443,"Delta":41544309},{"NoteNumber":54,"Velocity":44,"Duration":143443,"SoundDuration":143443,"Delta":41544309},{"NoteNumber":67,"Velocity":55,"Duration":98684,"SoundDuration":98684,"Delta":41661437},{"NoteNumber":55,"Velocity":44,"Duration":98684,"SoundDuration":98684,"Delta":41661437},{"NoteNumber":60,"Velocity":65,"Duration":138057,"SoundDuration":138057,"Delta":41793016},{"NoteNumber":48,"Velocity":52,"Duration":138057,"SoundDuration":138057,"Delta":41793016},{"NoteNumber":62,"Velocity":57,"Duration":139538,"SoundDuration":139538,"Delta":41908029},{"NoteNumber":50,"Velocity":45,"Duration":139538,"SoundDuration":139538,"Delta":41908029},{"NoteNumber":63,"Velocity":54,"Duration":144228,"SoundDuration":144228,"Delta":42024072},{"NoteNumber":51,"Velocity":43,"Duration":144228,"SoundDuration":144228,"Delta":42024072},{"NoteNumber":64,"Velocity":54,"Duration":97402,"SoundDuration":97402,"Delta":42142326},{"NoteNumber":52,"Velocity":43,"Duration":97402,"SoundDuration":97402,"Delta":42142326},{"NoteNumber":55,"Velocity":63,"Duration":519480,"SoundDuration":519480,"Delta":42272196},{"NoteNumber":43,"Velocity":43,"Duration":129870,"SoundDuration":129870,"Delta":42272196},{"NoteNumber":43,"Velocity":37,"Duration":129870,"SoundDuration":129870,"Delta":42531936},{"NoteNumber":43,"Velocity":37,"Duration":139535,"SoundDuration":139535,"Delta":42791677},{"NoteNumber":64,"Velocity":57,"Duration":810811,"SoundDuration":810811,"Delta":43070747},{"NoteNumber":67,"Velocity":57,"Duration":810811,"SoundDuration":810811,"Delta":43070747},{"NoteNumber":43,"Velocity":30,"Duration":135135,"SoundDuration":135135,"Delta":43341017},{"NoteNumber":55,"Velocity":36,"Duration":135135,"SoundDuration":135135,"Delta":43341017},{"NoteNumber":43,"Velocity":30,"Duration":135135,"SoundDuration":135135,"Delta":43611288},{"NoteNumber":55,"Velocity":36,"Duration":135135,"SoundDuration":135135,"Delta":43611288},{"NoteNumber":63,"Velocity":47,"Duration":880911,"SoundDuration":880911,"Delta":43881558},{"NoteNumber":66,"Velocity":47,"Duration":880911,"SoundDuration":880911,"Delta":43881558},{"NoteNumber":69,"Velocity":47,"Duration":880911,"SoundDuration":880911,"Delta":43881558},{"NoteNumber":55,"Velocity":34,"Duration":143540,"SoundDuration":143540,"Delta":44168640},{"NoteNumber":43,"Velocity":28,"Duration":143540,"SoundDuration":143540,"Delta":44168640},{"NoteNumber":55,"Velocity":34,"Duration":153374,"SoundDuration":153374,"Delta":44455721},{"NoteNumber":43,"Velocity":28,"Duration":153374,"SoundDuration":153374,"Delta":44455721},{"NoteNumber":71,"Velocity":39,"Duration":1188192,"SoundDuration":1188192,"Delta":44762470},{"NoteNumber":65,"Velocity":39,"Duration":1188192,"SoundDuration":1188192,"Delta":44762470},{"NoteNumber":62,"Velocity":39,"Duration":1188192,"SoundDuration":1188192,"Delta":44762470},{"NoteNumber":55,"Velocity":32,"Duration":174216,"SoundDuration":174216,"Delta":45082299},{"NoteNumber":43,"Velocity":27,"Duration":174216,"SoundDuration":174216,"Delta":45082299},{"NoteNumber":55,"Velocity":32,"Duration":259965,"SoundDuration":259965,"Delta":45430731},{"NoteNumber":43,"Velocity":27,"Duration":259965,"SoundDuration":259965,"Delta":45430731},{"NoteNumber":72,"Velocity":40,"Duration":119048,"SoundDuration":119048,"Delta":45950662},{"NoteNumber":64,"Velocity":30,"Duration":119048,"SoundDuration":119048,"Delta":45950662},{"NoteNumber":60,"Velocity":25,"Duration":119048,"SoundDuration":119048,"Delta":45950662},{"NoteNumber":74,"Velocity":42,"Duration":117418,"SoundDuration":117418,"Delta":46069711},{"NoteNumber":76,"Velocity":46,"Duration":115757,"SoundDuration":115757,"Delta":46187129},{"NoteNumber":55,"Velocity":29,"Duration":115757,"SoundDuration":115757,"Delta":46187129},{"NoteNumber":77,"Velocity":49,"Duration":114215,"SoundDuration":114215,"Delta":46302887},{"NoteNumber":78,"Velocity":52,"Duration":113493,"SoundDuration":113493,"Delta":46417102},{"NoteNumber":55,"Velocity":29,"Duration":113493,"SoundDuration":113493,"Delta":46417102},{"NoteNumber":79,"Velocity":54,"Duration":113207,"SoundDuration":113207,"Delta":46530595},{"NoteNumber":81,"Velocity":55,"Duration":112429,"SoundDuration":112429,"Delta":46643803},{"NoteNumber":59,"Velocity":22,"Duration":112429,"SoundDuration":112429,"Delta":46643803},{"NoteNumber":65,"Velocity":26,"Duration":112429,"SoundDuration":112429,"Delta":46643803},{"NoteNumber":79,"Velocity":51,"Duration":112994,"SoundDuration":112994,"Delta":46756233},{"NoteNumber":78,"Velocity":53,"Duration":113493,"SoundDuration":113493,"Delta":46869227},{"NoteNumber":55,"Velocity":33,"Duration":113493,"SoundDuration":113493,"Delta":46869227},{"NoteNumber":79,"Velocity":50,"Duration":114141,"SoundDuration":114141,"Delta":46982721},{"NoteNumber":81,"Velocity":53,"Duration":114723,"SoundDuration":114723,"Delta":47096862},{"NoteNumber":55,"Velocity":24,"Duration":114723,"SoundDuration":114723,"Delta":47096862},{"NoteNumber":83,"Velocity":49,"Duration":115310,"SoundDuration":115310,"Delta":47211585},{"NoteNumber":84,"Velocity":46,"Duration":115384,"SoundDuration":115384,"Delta":47326896},{"NoteNumber":64,"Velocity":30,"Duration":115384,"SoundDuration":115384,"Delta":47326896},{"NoteNumber":60,"Velocity":25,"Duration":115384,"SoundDuration":115384,"Delta":47326896},{"NoteNumber":86,"Velocity":48,"Duration":114942,"SoundDuration":114942,"Delta":47442280},{"NoteNumber":88,"Velocity":52,"Duration":114503,"SoundDuration":114503,"Delta":47557223},{"NoteNumber":55,"Velocity":29,"Duration":114503,"SoundDuration":114503,"Delta":47557223},{"NoteNumber":89,"Velocity":56,"Duration":114141,"SoundDuration":114141,"Delta":47671726},{"NoteNumber":90,"Velocity":59,"Duration":113708,"SoundDuration":113708,"Delta":47785867},{"NoteNumber":55,"Velocity":29,"Duration":113708,"SoundDuration":113708,"Delta":47785867},{"NoteNumber":91,"Velocity":62,"Duration":113350,"SoundDuration":113350,"Delta":47899576},{"NoteNumber":93,"Velocity":63,"Duration":112923,"SoundDuration":112923,"Delta":48012926},{"NoteNumber":65,"Velocity":35,"Duration":112923,"SoundDuration":112923,"Delta":48012926},{"NoteNumber":59,"Velocity":29,"Duration":112923,"SoundDuration":112923,"Delta":48012926},{"NoteNumber":91,"Velocity":58,"Duration":113065,"SoundDuration":113065,"Delta":48125850},{"NoteNumber":90,"Velocity":60,"Duration":113564,"SoundDuration":113564,"Delta":48238916},{"NoteNumber":55,"Velocity":45,"Duration":113564,"SoundDuration":113564,"Delta":48238916},{"NoteNumber":91,"Velocity":57,"Duration":114068,"SoundDuration":114068,"Delta":48352480},{"NoteNumber":93,"Velocity":60,"Duration":114576,"SoundDuration":114576,"Delta":48466549},{"NoteNumber":55,"Velocity":41,"Duration":114576,"SoundDuration":114576,"Delta":48466549},{"NoteNumber":95,"Velocity":56,"Duration":123039,"SoundDuration":123039,"Delta":48581126},{"NoteNumber":96,"Velocity":65,"Duration":115829,"SoundDuration":115829,"Delta":48704165},{"NoteNumber":60,"Velocity":54,"Duration":115829,"SoundDuration":115829,"Delta":48704165},{"NoteNumber":64,"Velocity":64,"Duration":115829,"SoundDuration":115829,"Delta":48704165},{"NoteNumber":100,"Velocity":67,"Duration":115458,"SoundDuration":115458,"Delta":48819995},{"NoteNumber":103,"Velocity":69,"Duration":115163,"SoundDuration":115163,"Delta":48935454},{"NoteNumber":60,"Velocity":46,"Duration":115163,"SoundDuration":115163,"Delta":48935454},{"NoteNumber":64,"Velocity":56,"Duration":115163,"SoundDuration":115163,"Delta":48935454},{"NoteNumber":101,"Velocity":64,"Duration":114869,"SoundDuration":114869,"Delta":49050617},{"NoteNumber":100,"Velocity":69,"Duration":114503,"SoundDuration":114503,"Delta":49165487},{"NoteNumber":98,"Velocity":64,"Duration":114141,"SoundDuration":114141,"Delta":49279991},{"NoteNumber":96,"Velocity":68,"Duration":114286,"SoundDuration":114286,"Delta":49394132},{"NoteNumber":52,"Velocity":49,"Duration":114286,"SoundDuration":114286,"Delta":49394132},{"NoteNumber":55,"Velocity":49,"Duration":114286,"SoundDuration":114286,"Delta":49394132},{"NoteNumber":60,"Velocity":58,"Duration":114286,"SoundDuration":114286,"Delta":49394132},{"NoteNumber":95,"Velocity":59,"Duration":114576,"SoundDuration":114576,"Delta":49508418},{"NoteNumber":93,"Velocity":68,"Duration":114942,"SoundDuration":114942,"Delta":49622995},{"NoteNumber":52,"Velocity":44,"Duration":114942,"SoundDuration":114942,"Delta":49622995},{"NoteNumber":60,"Velocity":52,"Duration":114942,"SoundDuration":114942,"Delta":49622995},{"NoteNumber":55,"Velocity":44,"Duration":114942,"SoundDuration":114942,"Delta":49622995},{"NoteNumber":91,"Velocity":61,"Duration":115310,"SoundDuration":115310,"Delta":49737937},{"NoteNumber":89,"Velocity":66,"Duration":115607,"SoundDuration":115607,"Delta":49853248},{"NoteNumber":88,"Velocity":61,"Duration":115979,"SoundDuration":115979,"Delta":49968855},{"NoteNumber":86,"Velocity":63,"Duration":115830,"SoundDuration":115830,"Delta":50084835},{"NoteNumber":62,"Velocity":57,"Duration":115830,"SoundDuration":115830,"Delta":50084835},{"NoteNumber":57,"Velocity":47,"Duration":115830,"SoundDuration":115830,"Delta":50084835},{"NoteNumber":53,"Velocity":47,"Duration":115830,"SoundDuration":115830,"Delta":50084835},{"NoteNumber":88,"Velocity":65,"Duration":115681,"SoundDuration":115681,"Delta":50200665},{"NoteNumber":89,"Velocity":65,"Duration":115384,"SoundDuration":115384,"Delta":50316346},{"NoteNumber":62,"Velocity":48,"Duration":115384,"SoundDuration":115384,"Delta":50316346},{"NoteNumber":57,"Velocity":40,"Duration":115384,"SoundDuration":115384,"Delta":50316346},{"NoteNumber":53,"Velocity":40,"Duration":115384,"SoundDuration":115384,"Delta":50316346},{"NoteNumber":88,"Velocity":62,"Duration":115089,"SoundDuration":115089,"Delta":50431731},{"NoteNumber":86,"Velocity":61,"Duration":114942,"SoundDuration":114942,"Delta":50546821},{"NoteNumber":84,"Velocity":59,"Duration":114503,"SoundDuration":114503,"Delta":50661763},{"NoteNumber":83,"Velocity":57,"Duration":114358,"SoundDuration":114358,"Delta":50776267},{"NoteNumber":55,"Velocity":34,"Duration":114358,"SoundDuration":114358,"Delta":50776267},{"NoteNumber":59,"Velocity":34,"Duration":114358,"SoundDuration":114358,"Delta":50776267},{"NoteNumber":65,"Velocity":41,"Duration":114358,"SoundDuration":114358,"Delta":50776267},{"NoteNumber":81,"Velocity":51,"Duration":114724,"SoundDuration":114724,"Delta":50890626},{"NoteNumber":79,"Velocity":53,"Duration":115980,"SoundDuration":115980,"Delta":51005350},{"NoteNumber":55,"Velocity":26,"Duration":115980,"SoundDuration":115980,"Delta":51005350},{"NoteNumber":59,"Velocity":26,"Duration":115980,"SoundDuration":115980,"Delta":51005350},{"NoteNumber":65,"Velocity":31,"Duration":115980,"SoundDuration":115980,"Delta":51005350},{"NoteNumber":77,"Velocity":48,"Duration":117188,"SoundDuration":117188,"Delta":51121330},{"NoteNumber":76,"Velocity":54,"Duration":118578,"SoundDuration":118578,"Delta":51238519},{"NoteNumber":74,"Velocity":46,"Duration":130150,"SoundDuration":130150,"Delta":51357097},{"NoteNumber":72,"Velocity":48,"Duration":117111,"SoundDuration":117111,"Delta":51487248},{"NoteNumber":64,"Velocity":44,"Duration":117111,"SoundDuration":117111,"Delta":51487248},{"NoteNumber":60,"Velocity":37,"Duration":117111,"SoundDuration":117111,"Delta":51487248},{"NoteNumber":74,"Velocity":50,"Duration":116656,"SoundDuration":116656,"Delta":51604359},{"NoteNumber":76,"Velocity":53,"Duration":116129,"SoundDuration":116129,"Delta":51721015},{"NoteNumber":55,"Velocity":35,"Duration":116129,"SoundDuration":116129,"Delta":51721015},{"NoteNumber":77,"Velocity":55,"Duration":115681,"SoundDuration":115681,"Delta":51837145},{"NoteNumber":78,"Velocity":58,"Duration":115163,"SoundDuration":115163,"Delta":51952826},{"NoteNumber":55,"Velocity":39,"Duration":115163,"SoundDuration":115163,"Delta":51952826},{"NoteNumber":79,"Velocity":62,"Duration":114723,"SoundDuration":114723,"Delta":52067990},{"NoteNumber":81,"Velocity":77,"Duration":114213,"SoundDuration":114213,"Delta":52182713},{"NoteNumber":58,"Velocity":70,"Duration":698563,"SoundDuration":698563,"Delta":52182713},{"NoteNumber":79,"Velocity":66,"Duration":114286,"SoundDuration":114286,"Delta":52296926},{"NoteNumber":78,"Velocity":66,"Duration":114650,"SoundDuration":114650,"Delta":52411212},{"NoteNumber":64,"Velocity":48,"Duration":114650,"SoundDuration":114650,"Delta":52411212},{"NoteNumber":60,"Velocity":48,"Duration":114650,"SoundDuration":114650,"Delta":52411212},{"NoteNumber":79,"Velocity":57,"Duration":115089,"SoundDuration":115089,"Delta":52525862},{"NoteNumber":81,"Velocity":60,"Duration":115458,"SoundDuration":115458,"Delta":52640952},{"NoteNumber":64,"Velocity":48,"Duration":115458,"SoundDuration":115458,"Delta":52640952},{"NoteNumber":60,"Velocity":48,"Duration":115458,"SoundDuration":115458,"Delta":52640952},{"NoteNumber":79,"Velocity":56,"Duration":94936,"SoundDuration":94936,"Delta":52756411},{"NoteNumber":79,"Velocity":76,"Duration":116748,"SoundDuration":116748,"Delta":52881276},{"NoteNumber":57,"Velocity":71,"Duration":702870,"SoundDuration":702870,"Delta":52881276},{"NoteNumber":77,"Velocity":54,"Duration":115845,"SoundDuration":115845,"Delta":52998024},{"NoteNumber":76,"Velocity":52,"Duration":115097,"SoundDuration":115097,"Delta":53113870},{"NoteNumber":65,"Velocity":47,"Duration":206584,"SoundDuration":206584,"Delta":53113870},{"NoteNumber":60,"Velocity":39,"Duration":206584,"SoundDuration":206584,"Delta":53113870},{"NoteNumber":77,"Velocity":49,"Duration":114365,"SoundDuration":114365,"Delta":53228967},{"NoteNumber":79,"Velocity":57,"Duration":115290,"SoundDuration":115290,"Delta":53343333},{"NoteNumber":65,"Velocity":47,"Duration":215708,"SoundDuration":215708,"Delta":53343333},{"NoteNumber":60,"Velocity":39,"Duration":215708,"SoundDuration":215708,"Delta":53343333},{"NoteNumber":77,"Velocity":51,"Duration":94142,"SoundDuration":94142,"Delta":53458624},{"NoteNumber":77,"Velocity":72,"Duration":117906,"SoundDuration":117906,"Delta":53584147},{"NoteNumber":55,"Velocity":75,"Duration":700141,"SoundDuration":700141,"Delta":53584147},{"NoteNumber":76,"Velocity":49,"Duration":115614,"SoundDuration":115614,"Delta":53702053},{"NoteNumber":75,"Velocity":55,"Duration":114957,"SoundDuration":114957,"Delta":53817668},{"NoteNumber":64,"Velocity":49,"Duration":206956,"SoundDuration":206956,"Delta":53817668},{"NoteNumber":60,"Velocity":41,"Duration":206956,"SoundDuration":206956,"Delta":53817668},{"NoteNumber":76,"Velocity":47,"Duration":115142,"SoundDuration":115142,"Delta":53932625},{"NoteNumber":77,"Velocity":55,"Duration":116333,"SoundDuration":116333,"Delta":54047768},{"NoteNumber":60,"Velocity":41,"Duration":213107,"SoundDuration":213107,"Delta":54047768},{"NoteNumber":64,"Velocity":49,"Duration":213107,"SoundDuration":213107,"Delta":54047768},{"NoteNumber":76,"Velocity":49,"Duration":90725,"SoundDuration":90725,"Delta":54164101},{"NoteNumber":76,"Velocity":74,"Duration":116731,"SoundDuration":116731,"Delta":54284288},{"NoteNumber":53,"Velocity":76,"Duration":700113,"SoundDuration":700113,"Delta":54284288},{"NoteNumber":74,"Velocity":48,"Duration":116656,"SoundDuration":116656,"Delta":54401019},{"NoteNumber":73,"Velocity":52,"Duration":116129,"SoundDuration":116129,"Delta":54517675},{"NoteNumber":57,"Velocity":41,"Duration":208733,"SoundDuration":208733,"Delta":54517675},{"NoteNumber":62,"Velocity":49,"Duration":208733,"SoundDuration":208733,"Delta":54517675},{"NoteNumber":74,"Velocity":56,"Duration":115681,"SoundDuration":115681,"Delta":54633805},{"NoteNumber":73,"Velocity":59,"Duration":115163,"SoundDuration":115163,"Delta":54749486},{"NoteNumber":62,"Velocity":50,"Duration":212014,"SoundDuration":212014,"Delta":54749486},{"NoteNumber":57,"Velocity":42,"Duration":212014,"SoundDuration":212014,"Delta":54749486},{"NoteNumber":74,"Velocity":62,"Duration":91125,"SoundDuration":91125,"Delta":54864650},{"NoteNumber":75,"Velocity":70,"Duration":114068,"SoundDuration":114068,"Delta":54984401},{"NoteNumber":54,"Velocity":80,"Duration":699770,"SoundDuration":699770,"Delta":54984401},{"NoteNumber":72,"Velocity":62,"Duration":114286,"SoundDuration":114286,"Delta":55098470},{"NoteNumber":71,"Velocity":70,"Duration":114650,"SoundDuration":114650,"Delta":55212756},{"NoteNumber":63,"Velocity":50,"Duration":206662,"SoundDuration":206662,"Delta":55212756},{"NoteNumber":57,"Velocity":42,"Duration":206662,"SoundDuration":206662,"Delta":55212756},{"NoteNumber":72,"Velocity":63,"Duration":115089,"SoundDuration":115089,"Delta":55327406},{"NoteNumber":71,"Velocity":67,"Duration":115458,"SoundDuration":115458,"Delta":55442496},{"NoteNumber":63,"Velocity":52,"Duration":218022,"SoundDuration":218022,"Delta":55442496},{"NoteNumber":57,"Velocity":44,"Duration":218022,"SoundDuration":218022,"Delta":55442496},{"NoteNumber":72,"Velocity":56,"Duration":126217,"SoundDuration":126217,"Delta":55557955},{"NoteNumber":67,"Velocity":59,"Duration":118110,"SoundDuration":118110,"Delta":55684172},{"NoteNumber":64,"Velocity":73,"Duration":118110,"SoundDuration":118110,"Delta":55684172},{"NoteNumber":60,"Velocity":62,"Duration":118110,"SoundDuration":118110,"Delta":55684172},{"NoteNumber":55,"Velocity":62,"Duration":118110,"SoundDuration":118110,"Delta":55684172},{"NoteNumber":79,"Velocity":66,"Duration":112718,"SoundDuration":112718,"Delta":55802282},{"NoteNumber":77,"Velocity":63,"Duration":112359,"SoundDuration":112359,"Delta":55915001},{"NoteNumber":76,"Velocity":63,"Duration":112634,"SoundDuration":112634,"Delta":56027361},{"NoteNumber":74,"Velocity":62,"Duration":112916,"SoundDuration":112916,"Delta":56139995},{"NoteNumber":72,"Velocity":62,"Duration":113207,"SoundDuration":113207,"Delta":56252911},{"NoteNumber":71,"Velocity":61,"Duration":113557,"SoundDuration":113557,"Delta":56366119},{"NoteNumber":55,"Velocity":35,"Duration":113557,"SoundDuration":113557,"Delta":56366119},{"NoteNumber":62,"Velocity":35,"Duration":113557,"SoundDuration":113557,"Delta":56366119},{"NoteNumber":65,"Velocity":42,"Duration":113557,"SoundDuration":113557,"Delta":56366119},{"NoteNumber":69,"Velocity":55,"Duration":113910,"SoundDuration":113910,"Delta":56479677},{"NoteNumber":67,"Velocity":54,"Duration":115142,"SoundDuration":115142,"Delta":56593587},{"NoteNumber":65,"Velocity":51,"Duration":116559,"SoundDuration":116559,"Delta":56708730},{"NoteNumber":64,"Velocity":49,"Duration":118088,"SoundDuration":118088,"Delta":56825289},{"NoteNumber":62,"Velocity":46,"Duration":118228,"SoundDuration":118228,"Delta":56943378},{"NoteNumber":60,"Velocity":48,"Duration":134336,"SoundDuration":134336,"Delta":57061606},{"NoteNumber":48,"Velocity":56,"Duration":453238,"SoundDuration":453238,"Delta":57061606},{"NoteNumber":52,"Velocity":66,"Duration":453238,"SoundDuration":453238,"Delta":57061606},{"NoteNumber":62,"Velocity":55,"Duration":135487,"SoundDuration":135487,"Delta":57173463},{"NoteNumber":63,"Velocity":57,"Duration":136660,"SoundDuration":136660,"Delta":57286303},{"NoteNumber":64,"Velocity":60,"Duration":114774,"SoundDuration":114774,"Delta":57400069},{"NoteNumber":55,"Velocity":66,"Duration":251562,"SoundDuration":251562,"Delta":57514844},{"NoteNumber":59,"Velocity":59,"Duration":135089,"SoundDuration":135089,"Delta":57766407},{"NoteNumber":48,"Velocity":53,"Duration":454858,"SoundDuration":454858,"Delta":57766407},{"NoteNumber":53,"Velocity":63,"Duration":454858,"SoundDuration":454858,"Delta":57766407},{"NoteNumber":60,"Velocity":58,"Duration":135850,"SoundDuration":135850,"Delta":57878946},{"NoteNumber":61,"Velocity":53,"Duration":137035,"SoundDuration":137035,"Delta":57992062},{"NoteNumber":62,"Velocity":50,"Duration":115075,"SoundDuration":115075,"Delta":58106189},{"NoteNumber":55,"Velocity":70,"Duration":250643,"SoundDuration":250643,"Delta":58221265},{"NoteNumber":60,"Velocity":48,"Duration":134336,"SoundDuration":134336,"Delta":58471909},{"NoteNumber":48,"Velocity":56,"Duration":453238,"SoundDuration":453238,"Delta":58471909},{"NoteNumber":52,"Velocity":66,"Duration":453238,"SoundDuration":453238,"Delta":58471909},{"NoteNumber":62,"Velocity":55,"Duration":135487,"SoundDuration":135487,"Delta":58583766},{"NoteNumber":63,"Velocity":57,"Duration":136660,"SoundDuration":136660,"Delta":58696605},{"NoteNumber":64,"Velocity":60,"Duration":114774,"SoundDuration":114774,"Delta":58810372},{"NoteNumber":55,"Velocity":66,"Duration":250203,"SoundDuration":250203,"Delta":58925147},{"NoteNumber":59,"Velocity":59,"Duration":135068,"SoundDuration":135068,"Delta":59175350},{"NoteNumber":48,"Velocity":53,"Duration":454837,"SoundDuration":454837,"Delta":59175350},{"NoteNumber":53,"Velocity":63,"Duration":454837,"SoundDuration":454837,"Delta":59175350},{"NoteNumber":60,"Velocity":58,"Duration":135850,"SoundDuration":135850,"Delta":59287870},{"NoteNumber":61,"Velocity":53,"Duration":137035,"SoundDuration":137035,"Delta":59400985},{"NoteNumber":62,"Velocity":50,"Duration":115075,"SoundDuration":115075,"Delta":59515113},{"NoteNumber":55,"Velocity":70,"Duration":251249,"SoundDuration":251249,"Delta":59630188},{"NoteNumber":60,"Velocity":52,"Duration":134336,"SoundDuration":134336,"Delta":59881438},{"NoteNumber":48,"Velocity":61,"Duration":453238,"SoundDuration":453238,"Delta":59881438},{"NoteNumber":52,"Velocity":72,"Duration":453238,"SoundDuration":453238,"Delta":59881438},{"NoteNumber":62,"Velocity":61,"Duration":135487,"SoundDuration":135487,"Delta":59993295},{"NoteNumber":63,"Velocity":63,"Duration":136660,"SoundDuration":136660,"Delta":60106135},{"NoteNumber":64,"Velocity":67,"Duration":114774,"SoundDuration":114774,"Delta":60219901},{"NoteNumber":55,"Velocity":74,"Duration":249744,"SoundDuration":249744,"Delta":60334676},{"NoteNumber":55,"Velocity":64,"Duration":136514,"SoundDuration":136514,"Delta":60584421},{"NoteNumber":57,"Velocity":59,"Duration":136730,"SoundDuration":136730,"Delta":60698122},{"NoteNumber":59,"Velocity":60,"Duration":136141,"SoundDuration":136141,"Delta":60812126},{"NoteNumber":60,"Velocity":60,"Duration":113001,"SoundDuration":113001,"Delta":60925626},{"NoteNumber":52,"Velocity":73,"Duration":126050,"SoundDuration":126050,"Delta":61038628},{"NoteNumber":52,"Velocity":68,"Duration":137623,"SoundDuration":137623,"Delta":61287211},{"NoteNumber":53,"Velocity":62,"Duration":136810,"SoundDuration":136810,"Delta":61401942},{"NoteNumber":54,"Velocity":63,"Duration":136141,"SoundDuration":136141,"Delta":61516025},{"NoteNumber":55,"Velocity":63,"Duration":112930,"SoundDuration":112930,"Delta":61629526},{"NoteNumber":48,"Velocity":78,"Duration":127118,"SoundDuration":127118,"Delta":61742457},{"NoteNumber":48,"Velocity":71,"Duration":138729,"SoundDuration":138729,"Delta":61996694},{"NoteNumber":50,"Velocity":65,"Duration":137858,"SoundDuration":137858,"Delta":62112354},{"NoteNumber":51,"Velocity":66,"Duration":136883,"SoundDuration":136883,"Delta":62227312},{"NoteNumber":52,"Velocity":66,"Duration":113429,"SoundDuration":113429,"Delta":62341468},{"NoteNumber":43,"Velocity":84,"Duration":139535,"SoundDuration":139535,"Delta":62454897},{"NoteNumber":56,"Velocity":92,"Duration":168539,"SoundDuration":168539,"Delta":62733967},{"NoteNumber":44,"Velocity":79,"Duration":168539,"SoundDuration":168539,"Delta":62733967},{"NoteNumber":66,"Velocity":69,"Duration":174418,"SoundDuration":174418,"Delta":63408124},{"NoteNumber":74,"Velocity":81,"Duration":174418,"SoundDuration":174418,"Delta":63408124},{"NoteNumber":72,"Velocity":69,"Duration":174418,"SoundDuration":174418,"Delta":63408124},{"NoteNumber":56,"Velocity":65,"Duration":174418,"SoundDuration":174418,"Delta":63408124},{"NoteNumber":60,"Velocity":65,"Duration":174418,"SoundDuration":174418,"Delta":63408124},{"NoteNumber":62,"Velocity":78,"Duration":174418,"SoundDuration":174418,"Delta":63408124},{"NoteNumber":55,"Velocity":88,"Duration":167286,"SoundDuration":167286,"Delta":64105798},{"NoteNumber":43,"Velocity":77,"Duration":167286,"SoundDuration":167286,"Delta":64105798},{"NoteNumber":79,"Velocity":80,"Duration":182926,"SoundDuration":182926,"Delta":64774943},{"NoteNumber":71,"Velocity":68,"Duration":182926,"SoundDuration":182926,"Delta":64774943},{"NoteNumber":67,"Velocity":68,"Duration":182926,"SoundDuration":182926,"Delta":64774943},{"NoteNumber":55,"Velocity":56,"Duration":182926,"SoundDuration":182926,"Delta":64774943},{"NoteNumber":62,"Velocity":56,"Duration":182926,"SoundDuration":182926,"Delta":64774943},{"NoteNumber":65,"Velocity":67,"Duration":182926,"SoundDuration":182926,"Delta":64774943},{"NoteNumber":60,"Velocity":96,"Duration":189075,"SoundDuration":189075,"Delta":65506651},{"NoteNumber":48,"Velocity":80,"Duration":189075,"SoundDuration":189075,"Delta":65506651},{"NoteNumber":36,"Velocity":80,"Duration":189075,"SoundDuration":189075,"Delta":65506651},{"NoteNumber":72,"Velocity":76,"Duration":189075,"SoundDuration":189075,"Delta":66262954},{"NoteNumber":76,"Velocity":76,"Duration":189075,"SoundDuration":189075,"Delta":66262954},{"NoteNumber":84,"Velocity":90,"Duration":189075,"SoundDuration":189075,"Delta":66262954},{"NoteNumber":60,"Velocity":60,"Duration":189075,"SoundDuration":189075,"Delta":66262954},{"NoteNumber":64,"Velocity":60,"Duration":189075,"SoundDuration":189075,"Delta":66262954},{"NoteNumber":67,"Velocity":71,"Duration":189075,"SoundDuration":189075,"Delta":66262954}],"license":{"name":"Creative Commons Attribution-ShareAlike 3.0 Germany","url":"http://creativecommons.org/licenses/by-sa/3.0/de/deed.en","text":"The MIDI, audio (MP3, OGG) and video files of Bernd Krueger are licensed under the cc-by-sa Germany License. This means that you can use and adapt the files, as long as you attribute the copyright holder.\n\nName: Bernd Krueger\nSource: http://www.piano-midi.de\n\nThe distribution or public playback of the files is only allowed under identical license conditions.\n\nThe scores are open source.","attribution":"MIDI files by Bernd Krueger (piano-midi.de)","attributionUrl":"http://www.piano-midi.de"}}