{"title":"Spinnerlied","artist":"Burgmüller","durationMs":101238,"midiSha256":"e6a2a12fa689d5ee5c5da2b647486cbc1aaacb20e147dbb5ebbe67877f155a32","midiObject":[{"NoteNumber":69,"Velocity":50,"Duration":479795,"SoundDuration":479795,"Delta":0},{"NoteNumber":71,"Velocity":42,"Duration":178295,"SoundDuration":178295,"Delta":479795},{"NoteNumber":69,"Velocity":50,"Duration":641887,"SoundDuration":641887,"Delta":658090},{"NoteNumber":50,"Velocity":37,"Duration":322962,"SoundDuration":322962,"Delta":658090},{"NoteNumber":38,"Velocity":31,"Duration":322962,"SoundDuration":322962,"Delta":658090},{"NoteNumber":74,"Velocity":38,"Duration":107654,"SoundDuration":107654,"Delta":765744},{"NoteNumber":78,"Velocity":38,"Duration":107654,"SoundDuration":107654,"Delta":873399},{"NoteNumber":79,"Velocity":47,"Duration":107654,"SoundDuration":107654,"Delta":981053},{"NoteNumber":78,"Velocity":38,"Duration":107654,"SoundDuration":107654,"Delta":1088707},{"NoteNumber":74,"Velocity":38,"Duration":107654,"SoundDuration":107654,"Delta":1196361},{"NoteNumber":69,"Velocity":50,"Duration":637963,"SoundDuration":637963,"Delta":1304015},{"NoteNumber":62,"Velocity":28,"Duration":311914,"SoundDuration":311914,"Delta":1304015},{"NoteNumber":66,"Velocity":33,"Duration":311914,"SoundDuration":311914,"Delta":1304015},{"NoteNumber":74,"Velocity":37,"Duration":103971,"SoundDuration":103971,"Delta":1407987},{"NoteNumber":78,"Velocity":37,"Duration":103971,"SoundDuration":103971,"Delta":1511959},{"NoteNumber":79,"Velocity":49,"Duration":103971,"SoundDuration":103971,"Delta":1615930},{"NoteNumber":78,"Velocity":41,"Duration":103971,"SoundDuration":103971,"Delta":1719902},{"NoteNumber":74,"Velocity":41,"Duration":118105,"SoundDuration":118105,"Delta":1823874},{"NoteNumber":71,"Velocity":55,"Duration":632468,"SoundDuration":632468,"Delta":1941979},{"NoteNumber":50,"Velocity":40,"Duration":322962,"SoundDuration":322962,"Delta":1941979},{"NoteNumber":74,"Velocity":45,"Duration":107654,"SoundDuration":107654,"Delta":2049633},{"NoteNumber":79,"Velocity":45,"Duration":107654,"SoundDuration":107654,"Delta":2157288},{"NoteNumber":81,"Velocity":52,"Duration":107654,"SoundDuration":107654,"Delta":2264942},{"NoteNumber":79,"Velocity":42,"Duration":107654,"SoundDuration":107654,"Delta":2372596},{"NoteNumber":74,"Velocity":42,"Duration":107654,"SoundDuration":107654,"Delta":2480250},{"NoteNumber":71,"Velocity":55,"Duration":644737,"SoundDuration":644737,"Delta":2587904},{"NoteNumber":67,"Velocity":36,"Duration":315523,"SoundDuration":315523,"Delta":2587904},{"NoteNumber":62,"Velocity":30,"Duration":315523,"SoundDuration":315523,"Delta":2587904},{"NoteNumber":74,"Velocity":45,"Duration":105174,"SoundDuration":105174,"Delta":2693079},{"NoteNumber":79,"Velocity":45,"Duration":105174,"SoundDuration":105174,"Delta":2798254},{"NoteNumber":81,"Velocity":52,"Duration":105174,"SoundDuration":105174,"Delta":2903428},{"NoteNumber":79,"Velocity":42,"Duration":105174,"SoundDuration":105174,"Delta":3008603},{"NoteNumber":74,"Velocity":42,"Duration":118863,"SoundDuration":118863,"Delta":3113778},{"NoteNumber":69,"Velocity":50,"Duration":642122,"SoundDuration":642122,"Delta":3232641},{"NoteNumber":50,"Velocity":37,"Duration":321061,"SoundDuration":321061,"Delta":3232641},{"NoteNumber":74,"Velocity":41,"Duration":107020,"SoundDuration":107020,"Delta":3339662},{"NoteNumber":78,"Velocity":41,"Duration":107020,"SoundDuration":107020,"Delta":3446682},{"NoteNumber":79,"Velocity":48,"Duration":107020,"SoundDuration":107020,"Delta":3553703},{"NoteNumber":78,"Velocity":39,"Duration":107020,"SoundDuration":107020,"Delta":3660723},{"NoteNumber":74,"Velocity":39,"Duration":107020,"SoundDuration":107020,"Delta":3767744},{"NoteNumber":74,"Velocity":50,"Duration":627417,"SoundDuration":627417,"Delta":3874764},{"NoteNumber":62,"Velocity":28,"Duration":313709,"SoundDuration":313709,"Delta":3874764},{"NoteNumber":66,"Velocity":33,"Duration":313709,"SoundDuration":313709,"Delta":3874764},{"NoteNumber":57,"Velocity":28,"Duration":313709,"SoundDuration":313709,"Delta":3874764},{"NoteNumber":78,"Velocity":41,"Duration":104569,"SoundDuration":104569,"Delta":3979334},{"NoteNumber":81,"Velocity":41,"Duration":104569,"SoundDuration":104569,"Delta":4083904},{"NoteNumber":83,"Velocity":48,"Duration":104569,"SoundDuration":104569,"Delta":4188473},{"NoteNumber":81,"Velocity":39,"Duration":104569,"SoundDuration":104569,"Delta":4293043},{"NoteNumber":78,"Velocity":39,"Duration":104569,"SoundDuration":104569,"Delta":4397613},{"NoteNumber":78,"Velocity":48,"Duration":107020,"SoundDuration":107020,"Delta":4502182},{"NoteNumber":50,"Velocity":41,"Duration":321061,"SoundDuration":321061,"Delta":4502182},{"NoteNumber":79,"Velocity":42,"Duration":107020,"SoundDuration":107020,"Delta":4609203},{"NoteNumber":81,"Velocity":42,"Duration":107020,"SoundDuration":107020,"Delta":4716223},{"NoteNumber":83,"Velocity":55,"Duration":107020,"SoundDuration":107020,"Delta":4823244},{"NoteNumber":85,"Velocity":48,"Duration":107020,"SoundDuration":107020,"Delta":4930264},{"NoteNumber":86,"Velocity":48,"Duration":107020,"SoundDuration":107020,"Delta":5037285},{"NoteNumber":88,"Velocity":62,"Duration":105174,"SoundDuration":105174,"Delta":5144305},{"NoteNumber":57,"Velocity":34,"Duration":315523,"SoundDuration":315523,"Delta":5144305},{"NoteNumber":62,"Velocity":34,"Duration":315523,"SoundDuration":315523,"Delta":5144305},{"NoteNumber":66,"Velocity":40,"Duration":315523,"SoundDuration":315523,"Delta":5144305},{"NoteNumber":90,"Velocity":50,"Duration":105174,"SoundDuration":105174,"Delta":5249480},{"NoteNumber":91,"Velocity":51,"Duration":105174,"SoundDuration":105174,"Delta":5354655},{"NoteNumber":92,"Velocity":67,"Duration":105174,"SoundDuration":105174,"Delta":5459829},{"NoteNumber":95,"Velocity":59,"Duration":105174,"SoundDuration":105174,"Delta":5565004},{"NoteNumber":93,"Velocity":53,"Duration":117343,"SoundDuration":117343,"Delta":5670179},{"NoteNumber":91,"Velocity":72,"Duration":103513,"SoundDuration":103513,"Delta":5787522},{"NoteNumber":45,"Velocity":51,"Duration":307635,"SoundDuration":307635,"Delta":5787522},{"NoteNumber":93,"Velocity":60,"Duration":101892,"SoundDuration":101892,"Delta":5891036},{"NoteNumber":91,"Velocity":60,"Duration":102228,"SoundDuration":102228,"Delta":5992928},{"NoteNumber":90,"Velocity":70,"Duration":103143,"SoundDuration":103143,"Delta":6095157},{"NoteNumber":91,"Velocity":58,"Duration":104661,"SoundDuration":104661,"Delta":6198301},{"NoteNumber":90,"Velocity":58,"Duration":105557,"SoundDuration":105557,"Delta":6302962},{"NoteNumber":88,"Velocity":69,"Duration":105637,"SoundDuration":105637,"Delta":6408519},{"NoteNumber":61,"Velocity":40,"Duration":311980,"SoundDuration":311980,"Delta":6408519},{"NoteNumber":67,"Velocity":47,"Duration":311980,"SoundDuration":311980,"Delta":6408519},{"NoteNumber":57,"Velocity":40,"Duration":311980,"SoundDuration":311980,"Delta":6408519},{"NoteNumber":90,"Velocity":61,"Duration":102865,"SoundDuration":102865,"Delta":6514156},{"NoteNumber":88,"Velocity":59,"Duration":103478,"SoundDuration":103478,"Delta":6617022},{"NoteNumber":86,"Velocity":69,"Duration":104285,"SoundDuration":104285,"Delta":6720500},{"NoteNumber":88,"Velocity":58,"Duration":104917,"SoundDuration":104917,"Delta":6824785},{"NoteNumber":86,"Velocity":58,"Duration":105557,"SoundDuration":105557,"Delta":6929703},{"NoteNumber":85,"Velocity":68,"Duration":106214,"SoundDuration":106214,"Delta":7035260},{"NoteNumber":45,"Velocity":52,"Duration":312471,"SoundDuration":312471,"Delta":7035260},{"NoteNumber":86,"Velocity":56,"Duration":102865,"SoundDuration":102865,"Delta":7141475},{"NoteNumber":85,"Velocity":56,"Duration":103391,"SoundDuration":103391,"Delta":7244340},{"NoteNumber":83,"Velocity":65,"Duration":103391,"SoundDuration":103391,"Delta":7347731},{"NoteNumber":85,"Velocity":55,"Duration":103391,"SoundDuration":103391,"Delta":7451122},{"NoteNumber":83,"Velocity":55,"Duration":104888,"SoundDuration":104888,"Delta":7554514},{"NoteNumber":81,"Velocity":64,"Duration":104569,"SoundDuration":104569,"Delta":7659402},{"NoteNumber":57,"Velocity":40,"Duration":314374,"SoundDuration":314374,"Delta":7659402},{"NoteNumber":61,"Velocity":40,"Duration":314374,"SoundDuration":314374,"Delta":7659402},{"NoteNumber":67,"Velocity":47,"Duration":314374,"SoundDuration":314374,"Delta":7659402},{"NoteNumber":83,"Velocity":55,"Duration":104630,"SoundDuration":104630,"Delta":7763971},{"NoteNumber":81,"Velocity":55,"Duration":105174,"SoundDuration":105174,"Delta":7868602},{"NoteNumber":79,"Velocity":64,"Duration":105304,"SoundDuration":105304,"Delta":7973776},{"NoteNumber":81,"Velocity":54,"Duration":105786,"SoundDuration":105786,"Delta":8079081},{"NoteNumber":79,"Velocity":54,"Duration":113687,"SoundDuration":113687,"Delta":8184868},{"NoteNumber":78,"Velocity":70,"Duration":104169,"SoundDuration":104169,"Delta":8298556},{"NoteNumber":50,"Velocity":49,"Duration":312055,"SoundDuration":312055,"Delta":8298556},{"NoteNumber":79,"Velocity":55,"Duration":103630,"SoundDuration":103630,"Delta":8402725},{"NoteNumber":78,"Velocity":55,"Duration":104255,"SoundDuration":104255,"Delta":8506356},{"NoteNumber":76,"Velocity":63,"Duration":104698,"SoundDuration":104698,"Delta":8610611},{"NoteNumber":78,"Velocity":50,"Duration":105335,"SoundDuration":105335,"Delta":8715310},{"NoteNumber":76,"Velocity":50,"Duration":105976,"SoundDuration":105976,"Delta":8820645},{"NoteNumber":74,"Velocity":60,"Duration":103971,"SoundDuration":103971,"Delta":8926621},{"NoteNumber":62,"Velocity":35,"Duration":312385,"SoundDuration":312385,"Delta":8926621},{"NoteNumber":66,"Velocity":42,"Duration":312385,"SoundDuration":312385,"Delta":8926621},{"NoteNumber":57,"Velocity":35,"Duration":312385,"SoundDuration":312385,"Delta":8926621},{"NoteNumber":76,"Velocity":49,"Duration":103971,"SoundDuration":103971,"Delta":9030593},{"NoteNumber":74,"Velocity":49,"Duration":104442,"SoundDuration":104442,"Delta":9134565},{"NoteNumber":73,"Velocity":60,"Duration":104569,"SoundDuration":104569,"Delta":9239007},{"NoteNumber":74,"Velocity":47,"Duration":104917,"SoundDuration":104917,"Delta":9343577},{"NoteNumber":73,"Velocity":47,"Duration":105174,"SoundDuration":105174,"Delta":9448495},{"NoteNumber":71,"Velocity":55,"Duration":105587,"SoundDuration":105587,"Delta":9553669},{"NoteNumber":50,"Velocity":45,"Duration":315044,"SoundDuration":315044,"Delta":9553669},{"NoteNumber":73,"Velocity":46,"Duration":104507,"SoundDuration":104507,"Delta":9659257},{"NoteNumber":71,"Velocity":46,"Duration":104948,"SoundDuration":104948,"Delta":9763765},{"NoteNumber":69,"Velocity":54,"Duration":106238,"SoundDuration":106238,"Delta":9868714},{"NoteNumber":71,"Velocity":43,"Duration":107553,"SoundDuration":107553,"Delta":9974952},{"NoteNumber":69,"Velocity":43,"Duration":108902,"SoundDuration":108902,"Delta":10082505},{"NoteNumber":68,"Velocity":47,"Duration":105816,"SoundDuration":105816,"Delta":10191408},{"NoteNumber":59,"Velocity":27,"Duration":319989,"SoundDuration":319989,"Delta":10191408},{"NoteNumber":62,"Velocity":27,"Duration":319989,"SoundDuration":319989,"Delta":10191408},{"NoteNumber":65,"Velocity":32,"Duration":319989,"SoundDuration":319989,"Delta":10191408},{"NoteNumber":71,"Velocity":36,"Duration":106652,"SoundDuration":106652,"Delta":10297225},{"NoteNumber":73,"Velocity":36,"Duration":107519,"SoundDuration":107519,"Delta":10403877},{"NoteNumber":74,"Velocity":46,"Duration":108329,"SoundDuration":108329,"Delta":10511397},{"NoteNumber":71,"Velocity":37,"Duration":109315,"SoundDuration":109315,"Delta":10619726},{"NoteNumber":68,"Velocity":37,"Duration":123701,"SoundDuration":123701,"Delta":10729041},{"NoteNumber":69,"Velocity":50,"Duration":632468,"SoundDuration":632468,"Delta":10852742},{"NoteNumber":50,"Velocity":37,"Duration":322962,"SoundDuration":322962,"Delta":10852742},{"NoteNumber":38,"Velocity":31,"Duration":322962,"SoundDuration":322962,"Delta":10852742},{"NoteNumber":74,"Velocity":38,"Duration":107654,"SoundDuration":107654,"Delta":10960396},{"NoteNumber":78,"Velocity":38,"Duration":107654,"SoundDuration":107654,"Delta":11068051},{"NoteNumber":79,"Velocity":47,"Duration":107654,"SoundDuration":107654,"Delta":11175705},{"NoteNumber":78,"Velocity":38,"Duration":107654,"SoundDuration":107654,"Delta":11283359},{"NoteNumber":74,"Velocity":38,"Duration":107654,"SoundDuration":107654,"Delta":11391013},{"NoteNumber":69,"Velocity":50,"Duration":637963,"SoundDuration":637963,"Delta":11498667},{"NoteNumber":62,"Velocity":28,"Duration":311915,"SoundDuration":311915,"Delta":11498667},{"NoteNumber":66,"Velocity":33,"Duration":311915,"SoundDuration":311915,"Delta":11498667},{"NoteNumber":74,"Velocity":37,"Duration":103971,"SoundDuration":103971,"Delta":11602639},{"NoteNumber":78,"Velocity":37,"Duration":103971,"SoundDuration":103971,"Delta":11706611},{"NoteNumber":79,"Velocity":49,"Duration":103971,"SoundDuration":103971,"Delta":11810582},{"NoteNumber":78,"Velocity":41,"Duration":103971,"SoundDuration":103971,"Delta":11914554},{"NoteNumber":74,"Velocity":41,"Duration":118105,"SoundDuration":118105,"Delta":12018526},{"NoteNumber":71,"Velocity":55,"Duration":637850,"SoundDuration":637850,"Delta":12136631},{"NoteNumber":50,"Velocity":40,"Duration":322962,"SoundDuration":322962,"Delta":12136631},{"NoteNumber":74,"Velocity":45,"Duration":107654,"SoundDuration":107654,"Delta":12244285},{"NoteNumber":79,"Velocity":45,"Duration":107654,"SoundDuration":107654,"Delta":12351940},{"NoteNumber":81,"Velocity":52,"Duration":107654,"SoundDuration":107654,"Delta":12459594},{"NoteNumber":79,"Velocity":42,"Duration":107654,"SoundDuration":107654,"Delta":12567248},{"NoteNumber":74,"Velocity":42,"Duration":107654,"SoundDuration":107654,"Delta":12674902},{"NoteNumber":71,"Velocity":55,"Duration":644737,"SoundDuration":644737,"Delta":12782556},{"NoteNumber":67,"Velocity":36,"Duration":315523,"SoundDuration":315523,"Delta":12782556},{"NoteNumber":62,"Velocity":30,"Duration":315523,"SoundDuration":315523,"Delta":12782556},{"NoteNumber":74,"Velocity":45,"Duration":105174,"SoundDuration":105174,"Delta":12887731},{"NoteNumber":79,"Velocity":45,"Duration":105174,"SoundDuration":105174,"Delta":12992906},{"NoteNumber":81,"Velocity":52,"Duration":105174,"SoundDuration":105174,"Delta":13098080},{"NoteNumber":79,"Velocity":42,"Duration":105174,"SoundDuration":105174,"Delta":13203255},{"NoteNumber":74,"Velocity":42,"Duration":118863,"SoundDuration":118863,"Delta":13308430},{"NoteNumber":69,"Velocity":50,"Duration":642122,"SoundDuration":642122,"Delta":13427293},{"NoteNumber":50,"Velocity":37,"Duration":321061,"SoundDuration":321061,"Delta":13427293},{"NoteNumber":74,"Velocity":41,"Duration":107020,"SoundDuration":107020,"Delta":13534314},{"NoteNumber":78,"Velocity":41,"Duration":107020,"SoundDuration":107020,"Delta":13641334},{"NoteNumber":79,"Velocity":48,"Duration":107020,"SoundDuration":107020,"Delta":13748355},{"NoteNumber":78,"Velocity":39,"Duration":107020,"SoundDuration":107020,"Delta":13855375},{"NoteNumber":74,"Velocity":39,"Duration":107020,"SoundDuration":107020,"Delta":13962396},{"NoteNumber":74,"Velocity":50,"Duration":627417,"SoundDuration":627417,"Delta":14069416},{"NoteNumber":62,"Velocity":28,"Duration":313708,"SoundDuration":313708,"Delta":14069416},{"NoteNumber":66,"Velocity":33,"Duration":313708,"SoundDuration":313708,"Delta":14069416},{"NoteNumber":57,"Velocity":28,"Duration":313708,"SoundDuration":313708,"Delta":14069416},{"NoteNumber":78,"Velocity":41,"Duration":104569,"SoundDuration":104569,"Delta":14173986},{"NoteNumber":81,"Velocity":41,"Duration":104569,"SoundDuration":104569,"Delta":14278556},{"NoteNumber":83,"Velocity":48,"Duration":104569,"SoundDuration":104569,"Delta":14383125},{"NoteNumber":81,"Velocity":39,"Duration":104569,"SoundDuration":104569,"Delta":14487695},{"NoteNumber":78,"Velocity":39,"Duration":104569,"SoundDuration":104569,"Delta":14592265},{"NoteNumber":78,"Velocity":48,"Duration":107020,"SoundDuration":107020,"Delta":14696834},{"NoteNumber":50,"Velocity":41,"Duration":321061,"SoundDuration":321061,"Delta":14696834},{"NoteNumber":79,"Velocity":42,"Duration":107020,"SoundDuration":107020,"Delta":14803855},{"NoteNumber":81,"Velocity":42,"Duration":107020,"SoundDuration":107020,"Delta":14910875},{"NoteNumber":83,"Velocity":55,"Duration":107020,"SoundDuration":107020,"Delta":15017896},{"NoteNumber":85,"Velocity":48,"Duration":107020,"SoundDuration":107020,"Delta":15124916},{"NoteNumber":86,"Velocity":48,"Duration":107020,"SoundDuration":107020,"Delta":15231937},{"NoteNumber":88,"Velocity":62,"Duration":105174,"SoundDuration":105174,"Delta":15338957},{"NoteNumber":57,"Velocity":34,"Duration":315523,"SoundDuration":315523,"Delta":15338957},{"NoteNumber":62,"Velocity":34,"Duration":315523,"SoundDuration":315523,"Delta":15338957},{"NoteNumber":66,"Velocity":40,"Duration":315523,"SoundDuration":315523,"Delta":15338957},{"NoteNumber":90,"Velocity":50,"Duration":105174,"SoundDuration":105174,"Delta":15444132},{"NoteNumber":91,"Velocity":51,"Duration":105174,"SoundDuration":105174,"Delta":15549307},{"NoteNumber":92,"Velocity":67,"Duration":105174,"SoundDuration":105174,"Delta":15654481},{"NoteNumber":95,"Velocity":59,"Duration":105174,"SoundDuration":105174,"Delta":15759656},{"NoteNumber":93,"Velocity":53,"Duration":117343,"SoundDuration":117343,"Delta":15864831},{"NoteNumber":86,"Velocity":77,"Duration":103513,"SoundDuration":103513,"Delta":15982174},{"NoteNumber":45,"Velocity":58,"Duration":307277,"SoundDuration":307277,"Delta":15982174},{"NoteNumber":57,"Velocity":69,"Duration":307277,"SoundDuration":307277,"Delta":15982174},{"NoteNumber":98,"Velocity":73,"Duration":101656,"SoundDuration":101656,"Delta":16085688},{"NoteNumber":97,"Velocity":63,"Duration":102107,"SoundDuration":102107,"Delta":16187345},{"NoteNumber":95,"Velocity":70,"Duration":102228,"SoundDuration":102228,"Delta":16289452},{"NoteNumber":93,"Velocity":61,"Duration":102897,"SoundDuration":102897,"Delta":16391680},{"NoteNumber":91,"Velocity":59,"Duration":103753,"SoundDuration":103753,"Delta":16494577},{"NoteNumber":90,"Velocity":71,"Duration":103913,"SoundDuration":103913,"Delta":16598331},{"NoteNumber":57,"Velocity":51,"Duration":308262,"SoundDuration":308262,"Delta":16598331},{"NoteNumber":66,"Velocity":62,"Duration":308262,"SoundDuration":308262,"Delta":16598331},{"NoteNumber":62,"Velocity":51,"Duration":308262,"SoundDuration":308262,"Delta":16598331},{"NoteNumber":88,"Velocity":58,"Duration":102691,"SoundDuration":102691,"Delta":16702245},{"NoteNumber":86,"Velocity":58,"Duration":101656,"SoundDuration":101656,"Delta":16804936},{"NoteNumber":85,"Velocity":70,"Duration":102135,"SoundDuration":102135,"Delta":16906593},{"NoteNumber":86,"Velocity":57,"Duration":102560,"SoundDuration":102560,"Delta":17008729},{"NoteNumber":83,"Velocity":57,"Duration":103171,"SoundDuration":103171,"Delta":17111290},{"NoteNumber":81,"Velocity":70,"Duration":106214,"SoundDuration":106214,"Delta":17214462},{"NoteNumber":45,"Velocity":56,"Duration":311828,"SoundDuration":311828,"Delta":17214462},{"NoteNumber":57,"Velocity":67,"Duration":311828,"SoundDuration":311828,"Delta":17214462},{"NoteNumber":91,"Velocity":63,"Duration":102806,"SoundDuration":102806,"Delta":17320677},{"NoteNumber":90,"Velocity":56,"Duration":102806,"SoundDuration":102806,"Delta":17423484},{"NoteNumber":88,"Velocity":65,"Duration":102806,"SoundDuration":102806,"Delta":17526290},{"NoteNumber":86,"Velocity":52,"Duration":103428,"SoundDuration":103428,"Delta":17629097},{"NoteNumber":85,"Velocity":52,"Duration":105557,"SoundDuration":105557,"Delta":17732525},{"NoteNumber":83,"Velocity":65,"Duration":104569,"SoundDuration":104569,"Delta":17838082},{"NoteNumber":67,"Velocity":62,"Duration":314374,"SoundDuration":314374,"Delta":17838082},{"NoteNumber":61,"Velocity":52,"Duration":314374,"SoundDuration":314374,"Delta":17838082},{"NoteNumber":57,"Velocity":52,"Duration":314374,"SoundDuration":314374,"Delta":17838082},{"NoteNumber":81,"Velocity":55,"Duration":104630,"SoundDuration":104630,"Delta":17942652},{"NoteNumber":79,"Velocity":55,"Duration":105174,"SoundDuration":105174,"Delta":18047282},{"NoteNumber":78,"Velocity":63,"Duration":105304,"SoundDuration":105304,"Delta":18152457},{"NoteNumber":79,"Velocity":56,"Duration":105786,"SoundDuration":105786,"Delta":18257761},{"NoteNumber":76,"Velocity":56,"Duration":113687,"SoundDuration":113687,"Delta":18363548},{"NoteNumber":74,"Velocity":71,"Duration":106214,"SoundDuration":106214,"Delta":18477236},{"NoteNumber":50,"Velocity":67,"Duration":312653,"SoundDuration":312653,"Delta":18477236},{"NoteNumber":78,"Velocity":56,"Duration":103047,"SoundDuration":103047,"Delta":18583451},{"NoteNumber":81,"Velocity":57,"Duration":103391,"SoundDuration":103391,"Delta":18686499},{"NoteNumber":83,"Velocity":63,"Duration":103877,"SoundDuration":103877,"Delta":18789890},{"NoteNumber":81,"Velocity":54,"Duration":104128,"SoundDuration":104128,"Delta":18893767},{"NoteNumber":78,"Velocity":54,"Duration":104569,"SoundDuration":104569,"Delta":18997896},{"NoteNumber":74,"Velocity":67,"Duration":105008,"SoundDuration":105008,"Delta":19102466},{"NoteNumber":66,"Velocity":63,"Duration":319423,"SoundDuration":319423,"Delta":19102466},{"NoteNumber":62,"Velocity":53,"Duration":319423,"SoundDuration":319423,"Delta":19102466},{"NoteNumber":57,"Velocity":53,"Duration":319423,"SoundDuration":319423,"Delta":19102466},{"NoteNumber":78,"Velocity":62,"Duration":106493,"SoundDuration":106493,"Delta":19207474},{"NoteNumber":81,"Velocity":62,"Duration":107921,"SoundDuration":107921,"Delta":19313967},{"NoteNumber":86,"Velocity":74,"Duration":109423,"SoundDuration":109423,"Delta":19421889},{"NoteNumber":90,"Velocity":77,"Duration":110850,"SoundDuration":110850,"Delta":19531313},{"NoteNumber":93,"Velocity":81,"Duration":128040,"SoundDuration":128040,"Delta":19642163},{"NoteNumber":98,"Velocity":93,"Duration":171604,"SoundDuration":171604,"Delta":19770204},{"NoteNumber":50,"Velocity":82,"Duration":171604,"SoundDuration":171604,"Delta":19770204},{"NoteNumber":38,"Velocity":68,"Duration":171604,"SoundDuration":171604,"Delta":19770204},{"NoteNumber":69,"Velocity":50,"Duration":484443,"SoundDuration":484443,"Delta":20456624},{"NoteNumber":71,"Velocity":42,"Duration":178295,"SoundDuration":178295,"Delta":20941068},{"NoteNumber":69,"Velocity":50,"Duration":632468,"SoundDuration":632468,"Delta":21119363},{"NoteNumber":50,"Velocity":37,"Duration":322962,"SoundDuration":322962,"Delta":21119363},{"NoteNumber":38,"Velocity":31,"Duration":322962,"SoundDuration":322962,"Delta":21119363},{"NoteNumber":74,"Velocity":38,"Duration":107654,"SoundDuration":107654,"Delta":21227018},{"NoteNumber":78,"Velocity":38,"Duration":107654,"SoundDuration":107654,"Delta":21334672},{"NoteNumber":79,"Velocity":47,"Duration":107654,"SoundDuration":107654,"Delta":21442326},{"NoteNumber":78,"Velocity":38,"Duration":107654,"SoundDuration":107654,"Delta":21549980},{"NoteNumber":74,"Velocity":38,"Duration":107654,"SoundDuration":107654,"Delta":21657634},{"NoteNumber":69,"Velocity":50,"Duration":637964,"SoundDuration":637964,"Delta":21765288},{"NoteNumber":62,"Velocity":28,"Duration":311914,"SoundDuration":311914,"Delta":21765288},{"NoteNumber":66,"Velocity":33,"Duration":311914,"SoundDuration":311914,"Delta":21765288},{"NoteNumber":74,"Velocity":37,"Duration":103971,"SoundDuration":103971,"Delta":21869260},{"NoteNumber":78,"Velocity":37,"Duration":103971,"SoundDuration":103971,"Delta":21973232},{"NoteNumber":79,"Velocity":49,"Duration":103971,"SoundDuration":103971,"Delta":22077203},{"NoteNumber":78,"Velocity":41,"Duration":103971,"SoundDuration":103971,"Delta":22181175},{"NoteNumber":74,"Velocity":41,"Duration":118105,"SoundDuration":118105,"Delta":22285147},{"NoteNumber":71,"Velocity":55,"Duration":632468,"SoundDuration":632468,"Delta":22403252},{"NoteNumber":50,"Velocity":40,"Duration":322962,"SoundDuration":322962,"Delta":22403252},{"NoteNumber":74,"Velocity":45,"Duration":107654,"SoundDuration":107654,"Delta":22510907},{"NoteNumber":79,"Velocity":45,"Duration":107654,"SoundDuration":107654,"Delta":22618561},{"NoteNumber":81,"Velocity":52,"Duration":107654,"SoundDuration":107654,"Delta":22726215},{"NoteNumber":79,"Velocity":42,"Duration":107654,"SoundDuration":107654,"Delta":22833869},{"NoteNumber":74,"Velocity":42,"Duration":107654,"SoundDuration":107654,"Delta":22941523},{"NoteNumber":71,"Velocity":55,"Duration":644736,"SoundDuration":644736,"Delta":23049177},{"NoteNumber":67,"Velocity":36,"Duration":315523,"SoundDuration":315523,"Delta":23049177},{"NoteNumber":62,"Velocity":30,"Duration":315523,"SoundDuration":315523,"Delta":23049177},{"NoteNumber":74,"Velocity":45,"Duration":105174,"SoundDuration":105174,"Delta":23154352},{"NoteNumber":79,"Velocity":45,"Duration":105174,"SoundDuration":105174,"Delta":23259527},{"NoteNumber":81,"Velocity":52,"Duration":105174,"SoundDuration":105174,"Delta":23364701},{"NoteNumber":79,"Velocity":42,"Duration":105174,"SoundDuration":105174,"Delta":23469876},{"NoteNumber":74,"Velocity":42,"Duration":118863,"SoundDuration":118863,"Delta":23575051},{"NoteNumber":69,"Velocity":50,"Duration":642123,"SoundDuration":642123,"Delta":23693914},{"NoteNumber":50,"Velocity":37,"Duration":321061,"SoundDuration":321061,"Delta":23693914},{"NoteNumber":74,"Velocity":41,"Duration":107020,"SoundDuration":107020,"Delta":23800935},{"NoteNumber":78,"Velocity":41,"Duration":107020,"SoundDuration":107020,"Delta":23907955},{"NoteNumber":79,"Velocity":48,"Duration":107020,"SoundDuration":107020,"Delta":24014976},{"NoteNumber":78,"Velocity":39,"Duration":107020,"SoundDuration":107020,"Delta":24121996},{"NoteNumber":74,"Velocity":39,"Duration":107020,"SoundDuration":107020,"Delta":24229017},{"NoteNumber":74,"Velocity":50,"Duration":627417,"SoundDuration":627417,"Delta":24336037},{"NoteNumber":62,"Velocity":28,"Duration":313708,"SoundDuration":313708,"Delta":24336037},{"NoteNumber":66,"Velocity":33,"Duration":313708,"SoundDuration":313708,"Delta":24336037},{"NoteNumber":57,"Velocity":28,"Duration":313708,"SoundDuration":313708,"Delta":24336037},{"NoteNumber":78,"Velocity":41,"Duration":104569,"SoundDuration":104569,"Delta":24440607},{"NoteNumber":81,"Velocity":41,"Duration":104569,"SoundDuration":104569,"Delta":24545177},{"NoteNumber":83,"Velocity":48,"Duration":104569,"SoundDuration":104569,"Delta":24649746},{"NoteNumber":81,"Velocity":39,"Duration":104569,"SoundDuration":104569,"Delta":24754316},{"NoteNumber":78,"Velocity":39,"Duration":104569,"SoundDuration":104569,"Delta":24858886},{"NoteNumber":78,"Velocity":48,"Duration":107020,"SoundDuration":107020,"Delta":24963455},{"NoteNumber":50,"Velocity":41,"Duration":321061,"SoundDuration":321061,"Delta":24963455},{"NoteNumber":79,"Velocity":42,"Duration":107020,"SoundDuration":107020,"Delta":25070476},{"NoteNumber":81,"Velocity":42,"Duration":107020,"SoundDuration":107020,"Delta":25177496},{"NoteNumber":83,"Velocity":55,"Duration":107020,"SoundDuration":107020,"Delta":25284517},{"NoteNumber":85,"Velocity":48,"Duration":107020,"SoundDuration":107020,"Delta":25391537},{"NoteNumber":86,"Velocity":48,"Duration":107020,"SoundDuration":107020,"Delta":25498558},{"NoteNumber":88,"Velocity":62,"Duration":105174,"SoundDuration":105174,"Delta":25605578},{"NoteNumber":57,"Velocity":34,"Duration":315523,"SoundDuration":315523,"Delta":25605578},{"NoteNumber":62,"Velocity":34,"Duration":315523,"SoundDuration":315523,"Delta":25605578},{"NoteNumber":66,"Velocity":40,"Duration":315523,"SoundDuration":315523,"Delta":25605578},{"NoteNumber":90,"Velocity":50,"Duration":105174,"SoundDuration":105174,"Delta":25710753},{"NoteNumber":91,"Velocity":51,"Duration":105174,"SoundDuration":105174,"Delta":25815928},{"NoteNumber":92,"Velocity":67,"Duration":105174,"SoundDuration":105174,"Delta":25921102},{"NoteNumber":95,"Velocity":59,"Duration":105174,"SoundDuration":105174,"Delta":26026277},{"NoteNumber":93,"Velocity":53,"Duration":117343,"SoundDuration":117343,"Delta":26131452},{"NoteNumber":91,"Velocity":72,"Duration":103922,"SoundDuration":103922,"Delta":26248795},{"NoteNumber":45,"Velocity":51,"Duration":309493,"SoundDuration":309493,"Delta":26248795},{"NoteNumber":93,"Velocity":60,"Duration":102785,"SoundDuration":102785,"Delta":26352718},{"NoteNumber":91,"Velocity":60,"Duration":102785,"SoundDuration":102785,"Delta":26455504},{"NoteNumber":90,"Velocity":70,"Duration":102785,"SoundDuration":102785,"Delta":26558289},{"NoteNumber":91,"Velocity":58,"Duration":103915,"SoundDuration":103915,"Delta":26661075},{"NoteNumber":90,"Velocity":58,"Duration":105557,"SoundDuration":105557,"Delta":26764990},{"NoteNumber":88,"Velocity":71,"Duration":105637,"SoundDuration":105637,"Delta":26870547},{"NoteNumber":61,"Velocity":40,"Duration":313068,"SoundDuration":313068,"Delta":26870547},{"NoteNumber":67,"Velocity":47,"Duration":313068,"SoundDuration":313068,"Delta":26870547},{"NoteNumber":57,"Velocity":40,"Duration":313068,"SoundDuration":313068,"Delta":26870547},{"NoteNumber":90,"Velocity":61,"Duration":103578,"SoundDuration":103578,"Delta":26976185},{"NoteNumber":88,"Velocity":59,"Duration":103852,"SoundDuration":103852,"Delta":27079763},{"NoteNumber":86,"Velocity":69,"Duration":103853,"SoundDuration":103853,"Delta":27183616},{"NoteNumber":88,"Velocity":58,"Duration":104612,"SoundDuration":104612,"Delta":27287469},{"NoteNumber":86,"Velocity":58,"Duration":105557,"SoundDuration":105557,"Delta":27392082},{"NoteNumber":85,"Velocity":68,"Duration":106214,"SoundDuration":106214,"Delta":27497639},{"NoteNumber":45,"Velocity":52,"Duration":312471,"SoundDuration":312471,"Delta":27497639},{"NoteNumber":86,"Velocity":56,"Duration":102865,"SoundDuration":102865,"Delta":27603854},{"NoteNumber":85,"Velocity":56,"Duration":103391,"SoundDuration":103391,"Delta":27706719},{"NoteNumber":83,"Velocity":65,"Duration":103391,"SoundDuration":103391,"Delta":27810110},{"NoteNumber":85,"Velocity":55,"Duration":103859,"SoundDuration":103859,"Delta":27913501},{"NoteNumber":83,"Velocity":55,"Duration":105557,"SoundDuration":105557,"Delta":28017361},{"NoteNumber":81,"Velocity":64,"Duration":104569,"SoundDuration":104569,"Delta":28122918},{"NoteNumber":57,"Velocity":40,"Duration":314374,"SoundDuration":314374,"Delta":28122918},{"NoteNumber":61,"Velocity":40,"Duration":314374,"SoundDuration":314374,"Delta":28122918},{"NoteNumber":67,"Velocity":47,"Duration":314374,"SoundDuration":314374,"Delta":28122918},{"NoteNumber":83,"Velocity":55,"Duration":104630,"SoundDuration":104630,"Delta":28227488},{"NoteNumber":81,"Velocity":55,"Duration":105174,"SoundDuration":105174,"Delta":28332118},{"NoteNumber":79,"Velocity":64,"Duration":105304,"SoundDuration":105304,"Delta":28437292},{"NoteNumber":81,"Velocity":54,"Duration":105786,"SoundDuration":105786,"Delta":28542597},{"NoteNumber":79,"Velocity":54,"Duration":113687,"SoundDuration":113687,"Delta":28648384},{"NoteNumber":78,"Velocity":70,"Duration":104169,"SoundDuration":104169,"Delta":28762072},{"NoteNumber":50,"Velocity":49,"Duration":312055,"SoundDuration":312055,"Delta":28762072},{"NoteNumber":79,"Velocity":55,"Duration":103630,"SoundDuration":103630,"Delta":28866241},{"NoteNumber":78,"Velocity":55,"Duration":104255,"SoundDuration":104255,"Delta":28969872},{"NoteNumber":76,"Velocity":63,"Duration":104698,"SoundDuration":104698,"Delta":29074128},{"NoteNumber":78,"Velocity":50,"Duration":105335,"SoundDuration":105335,"Delta":29178826},{"NoteNumber":76,"Velocity":50,"Duration":105976,"SoundDuration":105976,"Delta":29284161},{"NoteNumber":74,"Velocity":60,"Duration":103971,"SoundDuration":103971,"Delta":29390137},{"NoteNumber":62,"Velocity":35,"Duration":312385,"SoundDuration":312385,"Delta":29390137},{"NoteNumber":66,"Velocity":42,"Duration":312385,"SoundDuration":312385,"Delta":29390137},{"NoteNumber":57,"Velocity":35,"Duration":312385,"SoundDuration":312385,"Delta":29390137},{"NoteNumber":76,"Velocity":49,"Duration":103971,"SoundDuration":103971,"Delta":29494109},{"NoteNumber":74,"Velocity":49,"Duration":104442,"SoundDuration":104442,"Delta":29598081},{"NoteNumber":73,"Velocity":60,"Duration":104569,"SoundDuration":104569,"Delta":29702523},{"NoteNumber":74,"Velocity":47,"Duration":104917,"SoundDuration":104917,"Delta":29807093},{"NoteNumber":73,"Velocity":47,"Duration":105174,"SoundDuration":105174,"Delta":29912011},{"NoteNumber":71,"Velocity":55,"Duration":105587,"SoundDuration":105587,"Delta":30017185},{"NoteNumber":50,"Velocity":45,"Duration":315044,"SoundDuration":315044,"Delta":30017185},{"NoteNumber":73,"Velocity":46,"Duration":104507,"SoundDuration":104507,"Delta":30122773},{"NoteNumber":71,"Velocity":46,"Duration":104948,"SoundDuration":104948,"Delta":30227281},{"NoteNumber":69,"Velocity":54,"Duration":106238,"SoundDuration":106238,"Delta":30332230},{"NoteNumber":71,"Velocity":43,"Duration":107553,"SoundDuration":107553,"Delta":30438468},{"NoteNumber":69,"Velocity":43,"Duration":108902,"SoundDuration":108902,"Delta":30546021},{"NoteNumber":68,"Velocity":47,"Duration":106289,"SoundDuration":106289,"Delta":30654924},{"NoteNumber":59,"Velocity":27,"Duration":322687,"SoundDuration":322687,"Delta":30654924},{"NoteNumber":62,"Velocity":27,"Duration":322687,"SoundDuration":322687,"Delta":30654924},{"NoteNumber":65,"Velocity":32,"Duration":322687,"SoundDuration":322687,"Delta":30654924},{"NoteNumber":71,"Velocity":36,"Duration":107489,"SoundDuration":107489,"Delta":30761213},{"NoteNumber":73,"Velocity":36,"Duration":108908,"SoundDuration":108908,"Delta":30868703},{"NoteNumber":74,"Velocity":46,"Duration":110366,"SoundDuration":110366,"Delta":30977611},{"NoteNumber":71,"Velocity":37,"Duration":111825,"SoundDuration":111825,"Delta":31087977},{"NoteNumber":68,"Velocity":37,"Duration":123701,"SoundDuration":123701,"Delta":31199803},{"NoteNumber":69,"Velocity":50,"Duration":632468,"SoundDuration":632468,"Delta":31323504},{"NoteNumber":50,"Velocity":37,"Duration":322962,"SoundDuration":322962,"Delta":31323504},{"NoteNumber":38,"Velocity":31,"Duration":322962,"SoundDuration":322962,"Delta":31323504},{"NoteNumber":74,"Velocity":38,"Duration":107654,"SoundDuration":107654,"Delta":31431159},{"NoteNumber":78,"Velocity":38,"Duration":107654,"SoundDuration":107654,"Delta":31538813},{"NoteNumber":79,"Velocity":47,"Duration":107654,"SoundDuration":107654,"Delta":31646467},{"NoteNumber":78,"Velocity":38,"Duration":107654,"SoundDuration":107654,"Delta":31754121},{"NoteNumber":74,"Velocity":38,"Duration":107654,"SoundDuration":107654,"Delta":31861775},{"NoteNumber":69,"Velocity":50,"Duration":637963,"SoundDuration":637963,"Delta":31969429},{"NoteNumber":62,"Velocity":28,"Duration":311914,"SoundDuration":311914,"Delta":31969429},{"NoteNumber":66,"Velocity":33,"Duration":311914,"SoundDuration":311914,"Delta":31969429},{"NoteNumber":74,"Velocity":37,"Duration":103971,"SoundDuration":103971,"Delta":32073401},{"NoteNumber":78,"Velocity":37,"Duration":103971,"SoundDuration":103971,"Delta":32177373},{"NoteNumber":79,"Velocity":49,"Duration":103971,"SoundDuration":103971,"Delta":32281344},{"NoteNumber":78,"Velocity":41,"Duration":103971,"SoundDuration":103971,"Delta":32385316},{"NoteNumber":74,"Velocity":41,"Duration":118105,"SoundDuration":118105,"Delta":32489288},{"NoteNumber":71,"Velocity":55,"Duration":632468,"SoundDuration":632468,"Delta":32607393},{"NoteNumber":50,"Velocity":40,"Duration":322962,"SoundDuration":322962,"Delta":32607393},{"NoteNumber":74,"Velocity":45,"Duration":107654,"SoundDuration":107654,"Delta":32715048},{"NoteNumber":79,"Velocity":45,"Duration":107654,"SoundDuration":107654,"Delta":32822702},{"NoteNumber":81,"Velocity":52,"Duration":107654,"SoundDuration":107654,"Delta":32930356},{"NoteNumber":79,"Velocity":42,"Duration":107654,"SoundDuration":107654,"Delta":33038010},{"NoteNumber":74,"Velocity":42,"Duration":107654,"SoundDuration":107654,"Delta":33145664},{"NoteNumber":71,"Velocity":55,"Duration":644736,"SoundDuration":644736,"Delta":33253318},{"NoteNumber":67,"Velocity":36,"Duration":315524,"SoundDuration":315524,"Delta":33253318},{"NoteNumber":62,"Velocity":30,"Duration":315524,"SoundDuration":315524,"Delta":33253318},{"NoteNumber":74,"Velocity":45,"Duration":105174,"SoundDuration":105174,"Delta":33358493},{"NoteNumber":79,"Velocity":45,"Duration":105174,"SoundDuration":105174,"Delta":33463668},{"NoteNumber":81,"Velocity":52,"Duration":105174,"SoundDuration":105174,"Delta":33568842},{"NoteNumber":79,"Velocity":42,"Duration":105174,"SoundDuration":105174,"Delta":33674017},{"NoteNumber":74,"Velocity":42,"Duration":118863,"SoundDuration":118863,"Delta":33779192},{"NoteNumber":69,"Velocity":50,"Duration":642122,"SoundDuration":642122,"Delta":33898055},{"NoteNumber":50,"Velocity":37,"Duration":321061,"SoundDuration":321061,"Delta":33898055},{"NoteNumber":74,"Velocity":41,"Duration":107020,"SoundDuration":107020,"Delta":34005076},{"NoteNumber":78,"Velocity":41,"Duration":107020,"SoundDuration":107020,"Delta":34112096},{"NoteNumber":79,"Velocity":48,"Duration":107020,"SoundDuration":107020,"Delta":34219117},{"NoteNumber":78,"Velocity":39,"Duration":107020,"SoundDuration":107020,"Delta":34326137},{"NoteNumber":74,"Velocity":39,"Duration":107020,"SoundDuration":107020,"Delta":34433158},{"NoteNumber":74,"Velocity":50,"Duration":627417,"SoundDuration":627417,"Delta":34540178},{"NoteNumber":62,"Velocity":28,"Duration":313709,"SoundDuration":313709,"Delta":34540178},{"NoteNumber":66,"Velocity":33,"Duration":313709,"SoundDuration":313709,"Delta":34540178},{"NoteNumber":57,"Velocity":28,"Duration":313709,"SoundDuration":313709,"Delta":34540178},{"NoteNumber":78,"Velocity":41,"Duration":104569,"SoundDuration":104569,"Delta":34644748},{"NoteNumber":81,"Velocity":41,"Duration":104569,"SoundDuration":104569,"Delta":34749318},{"NoteNumber":83,"Velocity":48,"Duration":104569,"SoundDuration":104569,"Delta":34853887},{"NoteNumber":81,"Velocity":39,"Duration":104569,"SoundDuration":104569,"Delta":34958457},{"NoteNumber":78,"Velocity":39,"Duration":104569,"SoundDuration":104569,"Delta":35063027},{"NoteNumber":78,"Velocity":48,"Duration":107020,"SoundDuration":107020,"Delta":35167596},{"NoteNumber":50,"Velocity":41,"Duration":321061,"SoundDuration":321061,"Delta":35167596},{"NoteNumber":79,"Velocity":42,"Duration":107020,"SoundDuration":107020,"Delta":35274617},{"NoteNumber":81,"Velocity":42,"Duration":107020,"SoundDuration":107020,"Delta":35381637},{"NoteNumber":83,"Velocity":55,"Duration":107020,"SoundDuration":107020,"Delta":35488658},{"NoteNumber":85,"Velocity":48,"Duration":107020,"SoundDuration":107020,"Delta":35595678},{"NoteNumber":86,"Velocity":48,"Duration":107020,"SoundDuration":107020,"Delta":35702699},{"NoteNumber":88,"Velocity":62,"Duration":105174,"SoundDuration":105174,"Delta":35809719},{"NoteNumber":57,"Velocity":34,"Duration":315524,"SoundDuration":315524,"Delta":35809719},{"NoteNumber":62,"Velocity":34,"Duration":315524,"SoundDuration":315524,"Delta":35809719},{"NoteNumber":66,"Velocity":40,"Duration":315524,"SoundDuration":315524,"Delta":35809719},{"NoteNumber":90,"Velocity":50,"Duration":105174,"SoundDuration":105174,"Delta":35914894},{"NoteNumber":91,"Velocity":51,"Duration":105174,"SoundDuration":105174,"Delta":36020069},{"NoteNumber":92,"Velocity":67,"Duration":105174,"SoundDuration":105174,"Delta":36125243},{"NoteNumber":95,"Velocity":59,"Duration":105174,"SoundDuration":105174,"Delta":36230418},{"NoteNumber":93,"Velocity":53,"Duration":117343,"SoundDuration":117343,"Delta":36335593},{"NoteNumber":86,"Velocity":77,"Duration":108247,"SoundDuration":108247,"Delta":36452936},{"NoteNumber":45,"Velocity":58,"Duration":311561,"SoundDuration":311561,"Delta":36452936},{"NoteNumber":57,"Velocity":69,"Duration":311561,"SoundDuration":311561,"Delta":36452936},{"NoteNumber":98,"Velocity":73,"Duration":101656,"SoundDuration":101656,"Delta":36561183},{"NoteNumber":97,"Velocity":63,"Duration":101657,"SoundDuration":101657,"Delta":36662840},{"NoteNumber":95,"Velocity":70,"Duration":101657,"SoundDuration":101657,"Delta":36764497},{"NoteNumber":93,"Velocity":61,"Duration":101656,"SoundDuration":101656,"Delta":36866154},{"NoteNumber":91,"Velocity":59,"Duration":103103,"SoundDuration":103103,"Delta":36967811},{"NoteNumber":90,"Velocity":70,"Duration":103913,"SoundDuration":103913,"Delta":37070915},{"NoteNumber":57,"Velocity":51,"Duration":308850,"SoundDuration":308850,"Delta":37070915},{"NoteNumber":66,"Velocity":62,"Duration":308850,"SoundDuration":308850,"Delta":37070915},{"NoteNumber":62,"Velocity":51,"Duration":308850,"SoundDuration":308850,"Delta":37070915},{"NoteNumber":88,"Velocity":59,"Duration":102676,"SoundDuration":102676,"Delta":37174828},{"NoteNumber":86,"Velocity":59,"Duration":102260,"SoundDuration":102260,"Delta":37277505},{"NoteNumber":85,"Velocity":67,"Duration":102772,"SoundDuration":102772,"Delta":37379765},{"NoteNumber":86,"Velocity":58,"Duration":103163,"SoundDuration":103163,"Delta":37482538},{"NoteNumber":83,"Velocity":58,"Duration":103557,"SoundDuration":103557,"Delta":37585701},{"NoteNumber":81,"Velocity":70,"Duration":106214,"SoundDuration":106214,"Delta":37689259},{"NoteNumber":45,"Velocity":56,"Duration":309694,"SoundDuration":309694,"Delta":37689259},{"NoteNumber":57,"Velocity":67,"Duration":309694,"SoundDuration":309694,"Delta":37689259},{"NoteNumber":91,"Velocity":63,"Duration":101739,"SoundDuration":101739,"Delta":37795474},{"NoteNumber":90,"Velocity":56,"Duration":101739,"SoundDuration":101739,"Delta":37897214},{"NoteNumber":88,"Velocity":62,"Duration":101739,"SoundDuration":101739,"Delta":37998954},{"NoteNumber":86,"Velocity":52,"Duration":101739,"SoundDuration":101739,"Delta":38100693},{"NoteNumber":85,"Velocity":52,"Duration":101739,"SoundDuration":101739,"Delta":38202433},{"NoteNumber":83,"Velocity":67,"Duration":104569,"SoundDuration":104569,"Delta":38304173},{"NoteNumber":67,"Velocity":62,"Duration":314374,"SoundDuration":314374,"Delta":38304173},{"NoteNumber":61,"Velocity":52,"Duration":314374,"SoundDuration":314374,"Delta":38304173},{"NoteNumber":57,"Velocity":52,"Duration":314374,"SoundDuration":314374,"Delta":38304173},{"NoteNumber":81,"Velocity":55,"Duration":104630,"SoundDuration":104630,"Delta":38408742},{"NoteNumber":79,"Velocity":55,"Duration":105174,"SoundDuration":105174,"Delta":38513372},{"NoteNumber":78,"Velocity":62,"Duration":105304,"SoundDuration":105304,"Delta":38618547},{"NoteNumber":79,"Velocity":55,"Duration":105786,"SoundDuration":105786,"Delta":38723852},{"NoteNumber":76,"Velocity":55,"Duration":113687,"SoundDuration":113687,"Delta":38829638},{"NoteNumber":74,"Velocity":71,"Duration":106214,"SoundDuration":106214,"Delta":38943326},{"NoteNumber":50,"Velocity":67,"Duration":312653,"SoundDuration":312653,"Delta":38943326},{"NoteNumber":78,"Velocity":56,"Duration":103047,"SoundDuration":103047,"Delta":39049541},{"NoteNumber":81,"Velocity":57,"Duration":103391,"SoundDuration":103391,"Delta":39152589},{"NoteNumber":83,"Velocity":63,"Duration":103877,"SoundDuration":103877,"Delta":39255980},{"NoteNumber":81,"Velocity":54,"Duration":104128,"SoundDuration":104128,"Delta":39359858},{"NoteNumber":78,"Velocity":54,"Duration":104569,"SoundDuration":104569,"Delta":39463986},{"NoteNumber":74,"Velocity":67,"Duration":105008,"SoundDuration":105008,"Delta":39568556},{"NoteNumber":66,"Velocity":63,"Duration":319423,"SoundDuration":319423,"Delta":39568556},{"NoteNumber":62,"Velocity":53,"Duration":319423,"SoundDuration":319423,"Delta":39568556},{"NoteNumber":57,"Velocity":53,"Duration":319423,"SoundDuration":319423,"Delta":39568556},{"NoteNumber":78,"Velocity":62,"Duration":106493,"SoundDuration":106493,"Delta":39673565},{"NoteNumber":81,"Velocity":62,"Duration":107921,"SoundDuration":107921,"Delta":39780058},{"NoteNumber":86,"Velocity":74,"Duration":109423,"SoundDuration":109423,"Delta":39887979},{"NoteNumber":90,"Velocity":77,"Duration":110850,"SoundDuration":110850,"Delta":39997403},{"NoteNumber":93,"Velocity":81,"Duration":128041,"SoundDuration":128041,"Delta":40108254},{"NoteNumber":98,"Velocity":93,"Duration":171604,"SoundDuration":171604,"Delta":40236295},{"NoteNumber":50,"Velocity":82,"Duration":171604,"SoundDuration":171604,"Delta":40236295},{"NoteNumber":38,"Velocity":68,"Duration":171604,"SoundDuration":171604,"Delta":40236295},{"NoteNumber":62,"Velocity":50,"Duration":484443,"SoundDuration":484443,"Delta":40922715},{"NoteNumber":64,"Velocity":42,"Duration":178295,"SoundDuration":178295,"Delta":41407158},{"NoteNumber":66,"Velocity":50,"Duration":632044,"SoundDuration":632044,"Delta":41585454},{"NoteNumber":71,"Velocity":38,"Duration":106111,"SoundDuration":106111,"Delta":41693108},{"NoteNumber":73,"Velocity":38,"Duration":104569,"SoundDuration":104569,"Delta":41799220},{"NoteNumber":74,"Velocity":47,"Duration":104569,"SoundDuration":104569,"Delta":41903790},{"NoteNumber":73,"Velocity":38,"Duration":104569,"SoundDuration":104569,"Delta":42008359},{"NoteNumber":71,"Velocity":38,"Duration":104569,"SoundDuration":104569,"Delta":42112929},{"NoteNumber":59,"Velocity":50,"Duration":637964,"SoundDuration":637964,"Delta":42217499},{"NoteNumber":74,"Velocity":37,"Duration":103971,"SoundDuration":103971,"Delta":42321470},{"NoteNumber":76,"Velocity":37,"Duration":103971,"SoundDuration":103971,"Delta":42425442},{"NoteNumber":78,"Velocity":49,"Duration":103971,"SoundDuration":103971,"Delta":42529414},{"NoteNumber":76,"Velocity":41,"Duration":103971,"SoundDuration":103971,"Delta":42633385},{"NoteNumber":74,"Velocity":41,"Duration":118105,"SoundDuration":118105,"Delta":42737357},{"NoteNumber":61,"Velocity":50,"Duration":311914,"SoundDuration":311914,"Delta":42855463},{"NoteNumber":70,"Velocity":45,"Duration":103971,"SoundDuration":103971,"Delta":42959434},{"NoteNumber":78,"Velocity":46,"Duration":103971,"SoundDuration":103971,"Delta":43063406},{"NoteNumber":62,"Velocity":48,"Duration":311914,"SoundDuration":311914,"Delta":43167378},{"NoteNumber":71,"Velocity":45,"Duration":103971,"SoundDuration":103971,"Delta":43271349},{"NoteNumber":78,"Velocity":46,"Duration":103971,"SoundDuration":103971,"Delta":43375321},{"NoteNumber":64,"Velocity":61,"Duration":308419,"SoundDuration":308419,"Delta":43479293},{"NoteNumber":73,"Velocity":51,"Duration":102806,"SoundDuration":102806,"Delta":43582099},{"NoteNumber":78,"Velocity":52,"Duration":102806,"SoundDuration":102806,"Delta":43684906},{"NoteNumber":67,"Velocity":62,"Duration":318595,"SoundDuration":318595,"Delta":43787713},{"NoteNumber":76,"Velocity":50,"Duration":102806,"SoundDuration":102806,"Delta":43890519},{"NoteNumber":78,"Velocity":51,"Duration":112981,"SoundDuration":112981,"Delta":43993326},{"NoteNumber":66,"Velocity":67,"Duration":625697,"SoundDuration":625697,"Delta":44106308},{"NoteNumber":74,"Velocity":57,"Duration":105174,"SoundDuration":105174,"Delta":44211482},{"NoteNumber":78,"Velocity":62,"Duration":105174,"SoundDuration":105174,"Delta":44316657},{"NoteNumber":83,"Velocity":66,"Duration":103391,"SoundDuration":103391,"Delta":44421832},{"NoteNumber":78,"Velocity":56,"Duration":103391,"SoundDuration":103391,"Delta":44525223},{"NoteNumber":74,"Velocity":56,"Duration":103391,"SoundDuration":103391,"Delta":44628614},{"NoteNumber":62,"Velocity":64,"Duration":625779,"SoundDuration":625779,"Delta":44732005},{"NoteNumber":74,"Velocity":52,"Duration":105786,"SoundDuration":105786,"Delta":44837792},{"NoteNumber":78,"Velocity":58,"Duration":105786,"SoundDuration":105786,"Delta":44943578},{"NoteNumber":83,"Velocity":63,"Duration":102806,"SoundDuration":102806,"Delta":45049365},{"NoteNumber":78,"Velocity":56,"Duration":102806,"SoundDuration":102806,"Delta":45152171},{"NoteNumber":74,"Velocity":56,"Duration":102806,"SoundDuration":102806,"Delta":45254978},{"NoteNumber":59,"Velocity":68,"Duration":620366,"SoundDuration":620366,"Delta":45357785},{"NoteNumber":71,"Velocity":50,"Duration":104569,"SoundDuration":104569,"Delta":45462354},{"NoteNumber":74,"Velocity":55,"Duration":102806,"SoundDuration":102806,"Delta":45566924},{"NoteNumber":83,"Velocity":63,"Duration":102806,"SoundDuration":102806,"Delta":45669731},{"NoteNumber":74,"Velocity":51,"Duration":102806,"SoundDuration":102806,"Delta":45772537},{"NoteNumber":71,"Velocity":51,"Duration":102806,"SoundDuration":102806,"Delta":45875344},{"NoteNumber":57,"Velocity":69,"Duration":639989,"SoundDuration":639989,"Delta":45978151},{"NoteNumber":71,"Velocity":55,"Duration":105786,"SoundDuration":105786,"Delta":46083937},{"NoteNumber":74,"Velocity":55,"Duration":105786,"SoundDuration":105786,"Delta":46189724},{"NoteNumber":83,"Velocity":63,"Duration":103391,"SoundDuration":103391,"Delta":46295510},{"NoteNumber":74,"Velocity":62,"Duration":103391,"SoundDuration":103391,"Delta":46398901},{"NoteNumber":71,"Velocity":68,"Duration":115848,"SoundDuration":115848,"Delta":46502292},{"NoteNumber":83,"Velocity":77,"Duration":301834,"SoundDuration":301834,"Delta":46618140},{"NoteNumber":43,"Velocity":86,"Duration":309589,"SoundDuration":309589,"Delta":46618140},{"NoteNumber":55,"Velocity":86,"Duration":309589,"SoundDuration":309589,"Delta":46618140},{"NoteNumber":74,"Velocity":61,"Duration":103391,"SoundDuration":103391,"Delta":46720947},{"NoteNumber":79,"Velocity":61,"Duration":103391,"SoundDuration":103391,"Delta":46824338},{"NoteNumber":83,"Velocity":66,"Duration":103391,"SoundDuration":103391,"Delta":46927729},{"NoteNumber":79,"Velocity":62,"Duration":103391,"SoundDuration":103391,"Delta":47031121},{"NoteNumber":74,"Velocity":55,"Duration":103391,"SoundDuration":103391,"Delta":47134512},{"NoteNumber":86,"Velocity":78,"Duration":300296,"SoundDuration":300296,"Delta":47237903},{"NoteNumber":59,"Velocity":68,"Duration":306685,"SoundDuration":306685,"Delta":47237903},{"NoteNumber":55,"Velocity":68,"Duration":306685,"SoundDuration":306685,"Delta":47237903},{"NoteNumber":50,"Velocity":68,"Duration":306685,"SoundDuration":306685,"Delta":47237903},{"NoteNumber":79,"Velocity":61,"Duration":102228,"SoundDuration":102228,"Delta":47340131},{"NoteNumber":83,"Velocity":61,"Duration":102228,"SoundDuration":102228,"Delta":47442360},{"NoteNumber":86,"Velocity":68,"Duration":102228,"SoundDuration":102228,"Delta":47544588},{"NoteNumber":83,"Velocity":59,"Duration":102228,"SoundDuration":102228,"Delta":47646817},{"NoteNumber":79,"Velocity":59,"Duration":102228,"SoundDuration":102228,"Delta":47749045},{"NoteNumber":91,"Velocity":76,"Duration":294684,"SoundDuration":294684,"Delta":47851274},{"NoteNumber":55,"Velocity":82,"Duration":306120,"SoundDuration":306120,"Delta":47851274},{"NoteNumber":43,"Velocity":82,"Duration":306120,"SoundDuration":306120,"Delta":47851274},{"NoteNumber":83,"Velocity":61,"Duration":101657,"SoundDuration":101657,"Delta":47954081},{"NoteNumber":86,"Velocity":58,"Duration":101656,"SoundDuration":101656,"Delta":48055738},{"NoteNumber":91,"Velocity":67,"Duration":101657,"SoundDuration":101657,"Delta":48157395},{"NoteNumber":86,"Velocity":61,"Duration":101656,"SoundDuration":101656,"Delta":48259052},{"NoteNumber":83,"Velocity":61,"Duration":101656,"SoundDuration":101656,"Delta":48360709},{"NoteNumber":95,"Velocity":78,"Duration":301994,"SoundDuration":301994,"Delta":48462366},{"NoteNumber":55,"Velocity":72,"Duration":308419,"SoundDuration":308419,"Delta":48462366},{"NoteNumber":59,"Velocity":72,"Duration":308419,"SoundDuration":308419,"Delta":48462366},{"NoteNumber":50,"Velocity":72,"Duration":308419,"SoundDuration":308419,"Delta":48462366},{"NoteNumber":86,"Velocity":58,"Duration":102806,"SoundDuration":102806,"Delta":48565172},{"NoteNumber":91,"Velocity":58,"Duration":102806,"SoundDuration":102806,"Delta":48667979},{"NoteNumber":95,"Velocity":67,"Duration":102806,"SoundDuration":102806,"Delta":48770786},{"NoteNumber":91,"Velocity":54,"Duration":102806,"SoundDuration":102806,"Delta":48873592},{"NoteNumber":86,"Velocity":54,"Duration":118863,"SoundDuration":118863,"Delta":48976399},{"NoteNumber":93,"Velocity":77,"Duration":1862174,"SoundDuration":1862174,"Delta":49095263},{"NoteNumber":50,"Velocity":85,"Duration":310967,"SoundDuration":310967,"Delta":49095263},{"NoteNumber":38,"Velocity":85,"Duration":310967,"SoundDuration":310967,"Delta":49095263},{"NoteNumber":86,"Velocity":61,"Duration":104151,"SoundDuration":104151,"Delta":49200422},{"NoteNumber":88,"Velocity":63,"Duration":101657,"SoundDuration":101657,"Delta":49304573},{"NoteNumber":90,"Velocity":67,"Duration":101656,"SoundDuration":101656,"Delta":49406230},{"NoteNumber":88,"Velocity":63,"Duration":101657,"SoundDuration":101657,"Delta":49507887},{"NoteNumber":86,"Velocity":63,"Duration":101657,"SoundDuration":101657,"Delta":49609544},{"NoteNumber":57,"Velocity":71,"Duration":1863076,"SoundDuration":1863076,"Delta":49711201},{"NoteNumber":86,"Velocity":63,"Duration":103853,"SoundDuration":103853,"Delta":49815054},{"NoteNumber":88,"Velocity":65,"Duration":103853,"SoundDuration":103853,"Delta":49918907},{"NoteNumber":90,"Velocity":68,"Duration":103853,"SoundDuration":103853,"Delta":50022760},{"NoteNumber":88,"Velocity":64,"Duration":103852,"SoundDuration":103852,"Delta":50126613},{"NoteNumber":86,"Velocity":59,"Duration":103853,"SoundDuration":103853,"Delta":50230466},{"NoteNumber":66,"Velocity":77,"Duration":623118,"SoundDuration":623118,"Delta":50334319},{"NoteNumber":86,"Velocity":57,"Duration":103853,"SoundDuration":103853,"Delta":50438172},{"NoteNumber":88,"Velocity":61,"Duration":103853,"SoundDuration":103853,"Delta":50542025},{"NoteNumber":90,"Velocity":62,"Duration":103853,"SoundDuration":103853,"Delta":50645878},{"NoteNumber":88,"Velocity":59,"Duration":103853,"SoundDuration":103853,"Delta":50749731},{"NoteNumber":86,"Velocity":58,"Duration":103853,"SoundDuration":103853,"Delta":50853584},{"NoteNumber":93,"Velocity":78,"Duration":616840,"SoundDuration":616840,"Delta":50957437},{"NoteNumber":62,"Velocity":68,"Duration":617082,"SoundDuration":617082,"Delta":50962577},{"NoteNumber":86,"Velocity":58,"Duration":102806,"SoundDuration":102806,"Delta":51060244},{"NoteNumber":88,"Velocity":61,"Duration":102806,"SoundDuration":102806,"Delta":51163050},{"NoteNumber":90,"Velocity":64,"Duration":102806,"SoundDuration":102806,"Delta":51265857},{"NoteNumber":88,"Velocity":61,"Duration":102806,"SoundDuration":102806,"Delta":51368664},{"NoteNumber":86,"Velocity":55,"Duration":102806,"SoundDuration":102806,"Delta":51471470},{"NoteNumber":93,"Velocity":79,"Duration":611686,"SoundDuration":611686,"Delta":51574277},{"NoteNumber":45,"Velocity":81,"Duration":314436,"SoundDuration":314436,"Delta":51574277},{"NoteNumber":33,"Velocity":68,"Duration":314436,"SoundDuration":314436,"Delta":51574277},{"NoteNumber":81,"Velocity":62,"Duration":103391,"SoundDuration":103391,"Delta":51681931},{"NoteNumber":86,"Velocity":62,"Duration":103391,"SoundDuration":103391,"Delta":51785322},{"NoteNumber":88,"Velocity":70,"Duration":103391,"SoundDuration":103391,"Delta":51888714},{"NoteNumber":86,"Velocity":63,"Duration":103391,"SoundDuration":103391,"Delta":51992105},{"NoteNumber":81,"Velocity":63,"Duration":103391,"SoundDuration":103391,"Delta":52095496},{"NoteNumber":93,"Velocity":82,"Duration":623829,"SoundDuration":623829,"Delta":52198887},{"NoteNumber":57,"Velocity":57,"Duration":311914,"SoundDuration":311914,"Delta":52198887},{"NoteNumber":62,"Velocity":57,"Duration":311914,"SoundDuration":311914,"Delta":52198887},{"NoteNumber":64,"Velocity":68,"Duration":311914,"SoundDuration":311914,"Delta":52198887},{"NoteNumber":81,"Velocity":63,"Duration":103971,"SoundDuration":103971,"Delta":52302859},{"NoteNumber":86,"Velocity":63,"Duration":103971,"SoundDuration":103971,"Delta":52406830},{"NoteNumber":88,"Velocity":72,"Duration":103971,"SoundDuration":103971,"Delta":52510802},{"NoteNumber":86,"Velocity":63,"Duration":103971,"SoundDuration":103971,"Delta":52614774},{"NoteNumber":81,"Velocity":63,"Duration":103971,"SoundDuration":103971,"Delta":52718745},{"NoteNumber":45,"Velocity":80,"Duration":308419,"SoundDuration":308419,"Delta":52822717},{"NoteNumber":33,"Velocity":67,"Duration":308419,"SoundDuration":308419,"Delta":52822717},{"NoteNumber":81,"Velocity":66,"Duration":102806,"SoundDuration":102806,"Delta":52925524},{"NoteNumber":85,"Velocity":66,"Duration":102806,"SoundDuration":102806,"Delta":53028330},{"NoteNumber":93,"Velocity":80,"Duration":308420,"SoundDuration":308420,"Delta":53131137},{"NoteNumber":85,"Velocity":70,"Duration":102806,"SoundDuration":102806,"Delta":53233944},{"NoteNumber":81,"Velocity":70,"Duration":102806,"SoundDuration":102806,"Delta":53336750},{"NoteNumber":61,"Velocity":67,"Duration":311956,"SoundDuration":311956,"Delta":53439557},{"NoteNumber":64,"Velocity":79,"Duration":311956,"SoundDuration":311956,"Delta":53439557},{"NoteNumber":57,"Velocity":67,"Duration":311956,"SoundDuration":311956,"Delta":53439557},{"NoteNumber":79,"Velocity":66,"Duration":103391,"SoundDuration":103391,"Delta":53542948},{"NoteNumber":85,"Velocity":66,"Duration":105174,"SoundDuration":105174,"Delta":53646339},{"NoteNumber":91,"Velocity":80,"Duration":329213,"SoundDuration":329213,"Delta":53751514},{"NoteNumber":85,"Velocity":66,"Duration":105174,"SoundDuration":105174,"Delta":53856689},{"NoteNumber":79,"Velocity":66,"Duration":118863,"SoundDuration":118863,"Delta":53961863},{"NoteNumber":34,"Velocity":72,"Duration":308623,"SoundDuration":308623,"Delta":54080727},{"NoteNumber":46,"Velocity":85,"Duration":308623,"SoundDuration":308623,"Delta":54080727},{"NoteNumber":78,"Velocity":72,"Duration":102806,"SoundDuration":102806,"Delta":54183738},{"NoteNumber":85,"Velocity":72,"Duration":102806,"SoundDuration":102806,"Delta":54286544},{"NoteNumber":90,"Velocity":87,"Duration":308420,"SoundDuration":308420,"Delta":54389351},{"NoteNumber":85,"Velocity":77,"Duration":102806,"SoundDuration":102806,"Delta":54492158},{"NoteNumber":78,"Velocity":77,"Duration":102806,"SoundDuration":102806,"Delta":54594964},{"NoteNumber":54,"Velocity":63,"Duration":630087,"SoundDuration":630087,"Delta":54697771},{"NoteNumber":64,"Velocity":75,"Duration":630087,"SoundDuration":630087,"Delta":54697771},{"NoteNumber":85,"Velocity":72,"Duration":102806,"SoundDuration":102806,"Delta":54800578},{"NoteNumber":90,"Velocity":72,"Duration":102806,"SoundDuration":102806,"Delta":54903384},{"NoteNumber":97,"Velocity":85,"Duration":321667,"SoundDuration":321667,"Delta":55006191},{"NoteNumber":90,"Velocity":68,"Duration":102806,"SoundDuration":102806,"Delta":55108998},{"NoteNumber":85,"Velocity":68,"Duration":116053,"SoundDuration":116053,"Delta":55211804},{"NoteNumber":59,"Velocity":67,"Duration":630087,"SoundDuration":630087,"Delta":55327858},{"NoteNumber":62,"Velocity":80,"Duration":630087,"SoundDuration":630087,"Delta":55327858},{"NoteNumber":86,"Velocity":75,"Duration":102806,"SoundDuration":102806,"Delta":55430665},{"NoteNumber":90,"Velocity":82,"Duration":102806,"SoundDuration":102806,"Delta":55533471},{"NoteNumber":98,"Velocity":86,"Duration":321667,"SoundDuration":321667,"Delta":55636278},{"NoteNumber":90,"Velocity":68,"Duration":102806,"SoundDuration":102806,"Delta":55739085},{"NoteNumber":86,"Velocity":68,"Duration":116053,"SoundDuration":116053,"Delta":55841891},{"NoteNumber":62,"Velocity":63,"Duration":643903,"SoundDuration":643903,"Delta":55957945},{"NoteNumber":65,"Velocity":75,"Duration":643903,"SoundDuration":643903,"Delta":55957945},{"NoteNumber":56,"Velocity":63,"Duration":643903,"SoundDuration":643903,"Delta":55957945},{"NoteNumber":86,"Velocity":70,"Duration":102806,"SoundDuration":102806,"Delta":56060752},{"NoteNumber":89,"Velocity":70,"Duration":102806,"SoundDuration":102806,"Delta":56163558},{"NoteNumber":95,"Velocity":82,"Duration":335483,"SoundDuration":335483,"Delta":56266365},{"NoteNumber":89,"Velocity":73,"Duration":102806,"SoundDuration":102806,"Delta":56369172},{"NoteNumber":86,"Velocity":78,"Duration":129870,"SoundDuration":129870,"Delta":56471978},{"NoteNumber":93,"Velocity":92,"Duration":107566,"SoundDuration":107566,"Delta":56601849},{"NoteNumber":45,"Velocity":63,"Duration":311330,"SoundDuration":311330,"Delta":56601849},{"NoteNumber":57,"Velocity":75,"Duration":311330,"SoundDuration":311330,"Delta":56601849},{"NoteNumber":98,"Velocity":88,"Duration":101656,"SoundDuration":101656,"Delta":56709415},{"NoteNumber":97,"Velocity":75,"Duration":102107,"SoundDuration":102107,"Delta":56811072},{"NoteNumber":95,"Velocity":84,"Duration":102532,"SoundDuration":102532,"Delta":56913179},{"NoteNumber":93,"Velocity":73,"Duration":103142,"SoundDuration":103142,"Delta":57015711},{"NoteNumber":91,"Velocity":70,"Duration":103753,"SoundDuration":103753,"Delta":57118854},{"NoteNumber":90,"Velocity":85,"Duration":103913,"SoundDuration":103913,"Delta":57222607},{"NoteNumber":57,"Velocity":56,"Duration":308262,"SoundDuration":308262,"Delta":57222607},{"NoteNumber":66,"Velocity":68,"Duration":308262,"SoundDuration":308262,"Delta":57222607},{"NoteNumber":62,"Velocity":56,"Duration":308262,"SoundDuration":308262,"Delta":57222607},{"NoteNumber":88,"Velocity":66,"Duration":102691,"SoundDuration":102691,"Delta":57326521},{"NoteNumber":86,"Velocity":66,"Duration":101656,"SoundDuration":101656,"Delta":57429213},{"NoteNumber":85,"Velocity":84,"Duration":102135,"SoundDuration":102135,"Delta":57530870},{"NoteNumber":86,"Velocity":67,"Duration":102560,"SoundDuration":102560,"Delta":57633005},{"NoteNumber":83,"Velocity":67,"Duration":103171,"SoundDuration":103171,"Delta":57735566},{"NoteNumber":81,"Velocity":89,"Duration":106214,"SoundDuration":106214,"Delta":57838738},{"NoteNumber":45,"Velocity":61,"Duration":312558,"SoundDuration":312558,"Delta":57838738},{"NoteNumber":57,"Velocity":73,"Duration":312558,"SoundDuration":312558,"Delta":57838738},{"NoteNumber":91,"Velocity":75,"Duration":102865,"SoundDuration":102865,"Delta":57944953},{"NoteNumber":90,"Velocity":67,"Duration":103478,"SoundDuration":103478,"Delta":58047818},{"NoteNumber":88,"Velocity":83,"Duration":104098,"SoundDuration":104098,"Delta":58151296},{"NoteNumber":86,"Velocity":67,"Duration":104728,"SoundDuration":104728,"Delta":58255395},{"NoteNumber":85,"Velocity":67,"Duration":105557,"SoundDuration":105557,"Delta":58360124},{"NoteNumber":83,"Velocity":81,"Duration":104569,"SoundDuration":104569,"Delta":58465681},{"NoteNumber":67,"Velocity":72,"Duration":314374,"SoundDuration":314374,"Delta":58465681},{"NoteNumber":61,"Velocity":60,"Duration":314374,"SoundDuration":314374,"Delta":58465681},{"NoteNumber":57,"Velocity":60,"Duration":314374,"SoundDuration":314374,"Delta":58465681},{"NoteNumber":81,"Velocity":64,"Duration":104630,"SoundDuration":104630,"Delta":58570250},{"NoteNumber":79,"Velocity":62,"Duration":105174,"SoundDuration":105174,"Delta":58674881},{"NoteNumber":78,"Velocity":75,"Duration":105304,"SoundDuration":105304,"Delta":58780055},{"NoteNumber":79,"Velocity":63,"Duration":105786,"SoundDuration":105786,"Delta":58885360},{"NoteNumber":76,"Velocity":63,"Duration":113688,"SoundDuration":113688,"Delta":58991146},{"NoteNumber":74,"Velocity":85,"Duration":106214,"SoundDuration":106214,"Delta":59104834},{"NoteNumber":50,"Velocity":73,"Duration":312653,"SoundDuration":312653,"Delta":59104834},{"NoteNumber":78,"Velocity":67,"Duration":103047,"SoundDuration":103047,"Delta":59211049},{"NoteNumber":81,"Velocity":67,"Duration":103391,"SoundDuration":103391,"Delta":59314097},{"NoteNumber":83,"Velocity":74,"Duration":103877,"SoundDuration":103877,"Delta":59417488},{"NoteNumber":81,"Velocity":62,"Duration":104128,"SoundDuration":104128,"Delta":59521366},{"NoteNumber":78,"Velocity":62,"Duration":104569,"SoundDuration":104569,"Delta":59625494},{"NoteNumber":74,"Velocity":77,"Duration":105008,"SoundDuration":105008,"Delta":59730064},{"NoteNumber":66,"Velocity":66,"Duration":319423,"SoundDuration":319423,"Delta":59730064},{"NoteNumber":62,"Velocity":55,"Duration":319423,"SoundDuration":319423,"Delta":59730064},{"NoteNumber":57,"Velocity":55,"Duration":319423,"SoundDuration":319423,"Delta":59730064},{"NoteNumber":78,"Velocity":69,"Duration":106493,"SoundDuration":106493,"Delta":59835073},{"NoteNumber":81,"Velocity":69,"Duration":107921,"SoundDuration":107921,"Delta":59941566},{"NoteNumber":86,"Velocity":81,"Duration":109423,"SoundDuration":109423,"Delta":60049487},{"NoteNumber":90,"Velocity":84,"Duration":110850,"SoundDuration":110850,"Delta":60158911},{"NoteNumber":93,"Velocity":88,"Duration":128041,"SoundDuration":128041,"Delta":60269762},{"NoteNumber":98,"Velocity":100,"Duration":171604,"SoundDuration":171604,"Delta":60397803},{"NoteNumber":50,"Velocity":80,"Duration":171604,"SoundDuration":171604,"Delta":60397803},{"NoteNumber":38,"Velocity":67,"Duration":171604,"SoundDuration":171604,"Delta":60397803},{"NoteNumber":62,"Velocity":50,"Duration":484443,"SoundDuration":484443,"Delta":61084223},{"NoteNumber":64,"Velocity":42,"Duration":178295,"SoundDuration":178295,"Delta":61568666},{"NoteNumber":66,"Velocity":50,"Duration":632044,"SoundDuration":632044,"Delta":61746962},{"NoteNumber":71,"Velocity":38,"Duration":106111,"SoundDuration":106111,"Delta":61854616},{"NoteNumber":73,"Velocity":38,"Duration":104569,"SoundDuration":104569,"Delta":61960728},{"NoteNumber":74,"Velocity":47,"Duration":104569,"SoundDuration":104569,"Delta":62065298},{"NoteNumber":73,"Velocity":38,"Duration":104569,"SoundDuration":104569,"Delta":62169867},{"NoteNumber":71,"Velocity":38,"Duration":104569,"SoundDuration":104569,"Delta":62274437},{"NoteNumber":59,"Velocity":50,"Duration":637963,"SoundDuration":637963,"Delta":62379007},{"NoteNumber":74,"Velocity":37,"Duration":103971,"SoundDuration":103971,"Delta":62482978},{"NoteNumber":76,"Velocity":37,"Duration":103971,"SoundDuration":103971,"Delta":62586950},{"NoteNumber":78,"Velocity":49,"Duration":103971,"SoundDuration":103971,"Delta":62690922},{"NoteNumber":76,"Velocity":41,"Duration":103971,"SoundDuration":103971,"Delta":62794893},{"NoteNumber":74,"Velocity":41,"Duration":118105,"SoundDuration":118105,"Delta":62898865},{"NoteNumber":61,"Velocity":50,"Duration":311914,"SoundDuration":311914,"Delta":63016971},{"NoteNumber":70,"Velocity":45,"Duration":103971,"SoundDuration":103971,"Delta":63120942},{"NoteNumber":78,"Velocity":46,"Duration":103971,"SoundDuration":103971,"Delta":63224914},{"NoteNumber":62,"Velocity":48,"Duration":311914,"SoundDuration":311914,"Delta":63328886},{"NoteNumber":71,"Velocity":45,"Duration":103971,"SoundDuration":103971,"Delta":63432857},{"NoteNumber":78,"Velocity":46,"Duration":103971,"SoundDuration":103971,"Delta":63536829},{"NoteNumber":64,"Velocity":61,"Duration":308419,"SoundDuration":308419,"Delta":63640801},{"NoteNumber":73,"Velocity":51,"Duration":102806,"SoundDuration":102806,"Delta":63743607},{"NoteNumber":78,"Velocity":52,"Duration":102806,"SoundDuration":102806,"Delta":63846414},{"NoteNumber":67,"Velocity":62,"Duration":318595,"SoundDuration":318595,"Delta":63949221},{"NoteNumber":76,"Velocity":50,"Duration":102806,"SoundDuration":102806,"Delta":64052027},{"NoteNumber":78,"Velocity":51,"Duration":112981,"SoundDuration":112981,"Delta":64154834},{"NoteNumber":66,"Velocity":67,"Duration":625697,"SoundDuration":625697,"Delta":64267816},{"NoteNumber":74,"Velocity":57,"Duration":105174,"SoundDuration":105174,"Delta":64372990},{"NoteNumber":78,"Velocity":62,"Duration":105174,"SoundDuration":105174,"Delta":64478165},{"NoteNumber":83,"Velocity":66,"Duration":103391,"SoundDuration":103391,"Delta":64583340},{"NoteNumber":78,"Velocity":56,"Duration":103391,"SoundDuration":103391,"Delta":64686731},{"NoteNumber":74,"Velocity":56,"Duration":103391,"SoundDuration":103391,"Delta":64790122},{"NoteNumber":62,"Velocity":64,"Duration":625779,"SoundDuration":625779,"Delta":64893513},{"NoteNumber":74,"Velocity":52,"Duration":105786,"SoundDuration":105786,"Delta":64999300},{"NoteNumber":78,"Velocity":58,"Duration":105786,"SoundDuration":105786,"Delta":65105086},{"NoteNumber":83,"Velocity":63,"Duration":102806,"SoundDuration":102806,"Delta":65210873},{"NoteNumber":78,"Velocity":56,"Duration":102806,"SoundDuration":102806,"Delta":65313679},{"NoteNumber":74,"Velocity":56,"Duration":102806,"SoundDuration":102806,"Delta":65416486},{"NoteNumber":59,"Velocity":68,"Duration":620365,"SoundDuration":620365,"Delta":65519293},{"NoteNumber":71,"Velocity":50,"Duration":104569,"SoundDuration":104569,"Delta":65623862},{"NoteNumber":74,"Velocity":55,"Duration":102806,"SoundDuration":102806,"Delta":65728432},{"NoteNumber":83,"Velocity":63,"Duration":102806,"SoundDuration":102806,"Delta":65831239},{"NoteNumber":74,"Velocity":51,"Duration":102806,"SoundDuration":102806,"Delta":65934045},{"NoteNumber":71,"Velocity":51,"Duration":102806,"SoundDuration":102806,"Delta":66036852},{"NoteNumber":57,"Velocity":69,"Duration":639989,"SoundDuration":639989,"Delta":66139659},{"NoteNumber":71,"Velocity":55,"Duration":105786,"SoundDuration":105786,"Delta":66245445},{"NoteNumber":74,"Velocity":55,"Duration":105786,"SoundDuration":105786,"Delta":66351232},{"NoteNumber":83,"Velocity":63,"Duration":103391,"SoundDuration":103391,"Delta":66457018},{"NoteNumber":74,"Velocity":62,"Duration":103391,"SoundDuration":103391,"Delta":66560409},{"NoteNumber":71,"Velocity":68,"Duration":115847,"SoundDuration":115847,"Delta":66663800},{"NoteNumber":83,"Velocity":77,"Duration":301834,"SoundDuration":301834,"Delta":66779648},{"NoteNumber":43,"Velocity":86,"Duration":309589,"SoundDuration":309589,"Delta":66779648},{"NoteNumber":55,"Velocity":86,"Duration":309589,"SoundDuration":309589,"Delta":66779648},{"NoteNumber":74,"Velocity":61,"Duration":103391,"SoundDuration":103391,"Delta":66882455},{"NoteNumber":79,"Velocity":61,"Duration":103391,"SoundDuration":103391,"Delta":66985846},{"NoteNumber":83,"Velocity":66,"Duration":103391,"SoundDuration":103391,"Delta":67089237},{"NoteNumber":79,"Velocity":62,"Duration":103391,"SoundDuration":103391,"Delta":67192629},{"NoteNumber":74,"Velocity":55,"Duration":103391,"SoundDuration":103391,"Delta":67296020},{"NoteNumber":86,"Velocity":78,"Duration":300296,"SoundDuration":300296,"Delta":67399411},{"NoteNumber":59,"Velocity":68,"Duration":306685,"SoundDuration":306685,"Delta":67399411},{"NoteNumber":55,"Velocity":68,"Duration":306685,"SoundDuration":306685,"Delta":67399411},{"NoteNumber":50,"Velocity":68,"Duration":306685,"SoundDuration":306685,"Delta":67399411},{"NoteNumber":79,"Velocity":61,"Duration":102228,"SoundDuration":102228,"Delta":67501639},{"NoteNumber":83,"Velocity":61,"Duration":102228,"SoundDuration":102228,"Delta":67603868},{"NoteNumber":86,"Velocity":68,"Duration":102228,"SoundDuration":102228,"Delta":67706096},{"NoteNumber":83,"Velocity":59,"Duration":102228,"SoundDuration":102228,"Delta":67808325},{"NoteNumber":79,"Velocity":59,"Duration":102228,"SoundDuration":102228,"Delta":67910553},{"NoteNumber":91,"Velocity":76,"Duration":294684,"SoundDuration":294684,"Delta":68012782},{"NoteNumber":55,"Velocity":82,"Duration":306120,"SoundDuration":306120,"Delta":68012782},{"NoteNumber":43,"Velocity":82,"Duration":306120,"SoundDuration":306120,"Delta":68012782},{"NoteNumber":83,"Velocity":61,"Duration":101657,"SoundDuration":101657,"Delta":68115589},{"NoteNumber":86,"Velocity":58,"Duration":101657,"SoundDuration":101657,"Delta":68217246},{"NoteNumber":91,"Velocity":67,"Duration":101656,"SoundDuration":101656,"Delta":68318903},{"NoteNumber":86,"Velocity":61,"Duration":101657,"SoundDuration":101657,"Delta":68420560},{"NoteNumber":83,"Velocity":61,"Duration":101657,"SoundDuration":101657,"Delta":68522217},{"NoteNumber":95,"Velocity":78,"Duration":301994,"SoundDuration":301994,"Delta":68623874},{"NoteNumber":55,"Velocity":72,"Duration":308419,"SoundDuration":308419,"Delta":68623874},{"NoteNumber":59,"Velocity":72,"Duration":308419,"SoundDuration":308419,"Delta":68623874},{"NoteNumber":50,"Velocity":72,"Duration":308419,"SoundDuration":308419,"Delta":68623874},{"NoteNumber":86,"Velocity":58,"Duration":102806,"SoundDuration":102806,"Delta":68726680},{"NoteNumber":91,"Velocity":58,"Duration":102806,"SoundDuration":102806,"Delta":68829487},{"NoteNumber":95,"Velocity":67,"Duration":102806,"SoundDuration":102806,"Delta":68932294},{"NoteNumber":91,"Velocity":54,"Duration":102806,"SoundDuration":102806,"Delta":69035100},{"NoteNumber":86,"Velocity":54,"Duration":118863,"SoundDuration":118863,"Delta":69137907},{"NoteNumber":93,"Velocity":77,"Duration":1860151,"SoundDuration":1860151,"Delta":69256771},{"NoteNumber":50,"Velocity":85,"Duration":310967,"SoundDuration":310967,"Delta":69256771},{"NoteNumber":38,"Velocity":85,"Duration":310967,"SoundDuration":310967,"Delta":69256771},{"NoteNumber":86,"Velocity":61,"Duration":104151,"SoundDuration":104151,"Delta":69361930},{"NoteNumber":88,"Velocity":63,"Duration":101657,"SoundDuration":101657,"Delta":69466081},{"NoteNumber":90,"Velocity":67,"Duration":101657,"SoundDuration":101657,"Delta":69567738},{"NoteNumber":88,"Velocity":63,"Duration":101656,"SoundDuration":101656,"Delta":69669395},{"NoteNumber":86,"Velocity":63,"Duration":101657,"SoundDuration":101657,"Delta":69771052},{"NoteNumber":57,"Velocity":71,"Duration":1870582,"SoundDuration":1870582,"Delta":69872709},{"NoteNumber":86,"Velocity":63,"Duration":104942,"SoundDuration":104942,"Delta":69977652},{"NoteNumber":88,"Velocity":65,"Duration":104942,"SoundDuration":104942,"Delta":70082595},{"NoteNumber":90,"Velocity":68,"Duration":104942,"SoundDuration":104942,"Delta":70187538},{"NoteNumber":88,"Velocity":64,"Duration":104942,"SoundDuration":104942,"Delta":70292481},{"NoteNumber":86,"Velocity":59,"Duration":102785,"SoundDuration":102785,"Delta":70397423},{"NoteNumber":66,"Velocity":77,"Duration":616713,"SoundDuration":616713,"Delta":70500209},{"NoteNumber":86,"Velocity":57,"Duration":102785,"SoundDuration":102785,"Delta":70602994},{"NoteNumber":88,"Velocity":61,"Duration":102785,"SoundDuration":102785,"Delta":70705780},{"NoteNumber":90,"Velocity":62,"Duration":102785,"SoundDuration":102785,"Delta":70808565},{"NoteNumber":88,"Velocity":59,"Duration":102785,"SoundDuration":102785,"Delta":70911351},{"NoteNumber":86,"Velocity":58,"Duration":102785,"SoundDuration":102785,"Delta":71014136},{"NoteNumber":93,"Velocity":78,"Duration":626369,"SoundDuration":626369,"Delta":71116922},{"NoteNumber":62,"Velocity":68,"Duration":626532,"SoundDuration":626532,"Delta":71122142},{"NoteNumber":86,"Velocity":58,"Duration":104394,"SoundDuration":104394,"Delta":71221317},{"NoteNumber":88,"Velocity":61,"Duration":104395,"SoundDuration":104395,"Delta":71325712},{"NoteNumber":90,"Velocity":64,"Duration":104394,"SoundDuration":104394,"Delta":71430107},{"NoteNumber":88,"Velocity":61,"Duration":104394,"SoundDuration":104394,"Delta":71534502},{"NoteNumber":86,"Velocity":55,"Duration":104394,"SoundDuration":104394,"Delta":71638897},{"NoteNumber":93,"Velocity":79,"Duration":611686,"SoundDuration":611686,"Delta":71743292},{"NoteNumber":45,"Velocity":81,"Duration":314436,"SoundDuration":314436,"Delta":71743292},{"NoteNumber":33,"Velocity":68,"Duration":314436,"SoundDuration":314436,"Delta":71743292},{"NoteNumber":81,"Velocity":62,"Duration":103391,"SoundDuration":103391,"Delta":71850946},{"NoteNumber":86,"Velocity":62,"Duration":103391,"SoundDuration":103391,"Delta":71954337},{"NoteNumber":88,"Velocity":70,"Duration":103391,"SoundDuration":103391,"Delta":72057728},{"NoteNumber":86,"Velocity":63,"Duration":103391,"SoundDuration":103391,"Delta":72161120},{"NoteNumber":81,"Velocity":63,"Duration":103391,"SoundDuration":103391,"Delta":72264511},{"NoteNumber":93,"Velocity":82,"Duration":623829,"SoundDuration":623829,"Delta":72367902},{"NoteNumber":57,"Velocity":57,"Duration":311914,"SoundDuration":311914,"Delta":72367902},{"NoteNumber":62,"Velocity":57,"Duration":311914,"SoundDuration":311914,"Delta":72367902},{"NoteNumber":64,"Velocity":68,"Duration":311914,"SoundDuration":311914,"Delta":72367902},{"NoteNumber":81,"Velocity":63,"Duration":103971,"SoundDuration":103971,"Delta":72471874},{"NoteNumber":86,"Velocity":63,"Duration":103971,"SoundDuration":103971,"Delta":72575845},{"NoteNumber":88,"Velocity":72,"Duration":103971,"SoundDuration":103971,"Delta":72679817},{"NoteNumber":86,"Velocity":63,"Duration":103971,"SoundDuration":103971,"Delta":72783789},{"NoteNumber":81,"Velocity":63,"Duration":103971,"SoundDuration":103971,"Delta":72887760},{"NoteNumber":45,"Velocity":80,"Duration":308419,"SoundDuration":308419,"Delta":72991732},{"NoteNumber":33,"Velocity":67,"Duration":308419,"SoundDuration":308419,"Delta":72991732},{"NoteNumber":81,"Velocity":66,"Duration":102806,"SoundDuration":102806,"Delta":73094539},{"NoteNumber":85,"Velocity":66,"Duration":102806,"SoundDuration":102806,"Delta":73197345},{"NoteNumber":93,"Velocity":80,"Duration":308419,"SoundDuration":308419,"Delta":73300152},{"NoteNumber":85,"Velocity":70,"Duration":102806,"SoundDuration":102806,"Delta":73402959},{"NoteNumber":81,"Velocity":70,"Duration":102806,"SoundDuration":102806,"Delta":73505765},{"NoteNumber":61,"Velocity":67,"Duration":314552,"SoundDuration":314552,"Delta":73608572},{"NoteNumber":64,"Velocity":79,"Duration":314552,"SoundDuration":314552,"Delta":73608572},{"NoteNumber":57,"Velocity":67,"Duration":314552,"SoundDuration":314552,"Delta":73608572},{"NoteNumber":79,"Velocity":66,"Duration":103391,"SoundDuration":103391,"Delta":73711963},{"NoteNumber":85,"Velocity":66,"Duration":107770,"SoundDuration":107770,"Delta":73815354},{"NoteNumber":91,"Velocity":80,"Duration":334404,"SoundDuration":334404,"Delta":73923124},{"NoteNumber":85,"Velocity":66,"Duration":107770,"SoundDuration":107770,"Delta":74030895},{"NoteNumber":79,"Velocity":66,"Duration":118863,"SoundDuration":118863,"Delta":74138665},{"NoteNumber":34,"Velocity":72,"Duration":308623,"SoundDuration":308623,"Delta":74257528},{"NoteNumber":46,"Velocity":85,"Duration":308623,"SoundDuration":308623,"Delta":74257528},{"NoteNumber":78,"Velocity":72,"Duration":102806,"SoundDuration":102806,"Delta":74360539},{"NoteNumber":85,"Velocity":72,"Duration":102806,"SoundDuration":102806,"Delta":74463346},{"NoteNumber":90,"Velocity":90,"Duration":308419,"SoundDuration":308419,"Delta":74566152},{"NoteNumber":85,"Velocity":77,"Duration":102806,"SoundDuration":102806,"Delta":74668959},{"NoteNumber":78,"Velocity":77,"Duration":102806,"SoundDuration":102806,"Delta":74771766},{"NoteNumber":54,"Velocity":63,"Duration":630087,"SoundDuration":630087,"Delta":74874572},{"NoteNumber":64,"Velocity":75,"Duration":630087,"SoundDuration":630087,"Delta":74874572},{"NoteNumber":85,"Velocity":72,"Duration":102806,"SoundDuration":102806,"Delta":74977379},{"NoteNumber":90,"Velocity":72,"Duration":102806,"SoundDuration":102806,"Delta":75080186},{"NoteNumber":97,"Velocity":85,"Duration":321667,"SoundDuration":321667,"Delta":75182992},{"NoteNumber":90,"Velocity":68,"Duration":102806,"SoundDuration":102806,"Delta":75285799},{"NoteNumber":85,"Velocity":68,"Duration":116053,"SoundDuration":116053,"Delta":75388606},{"NoteNumber":59,"Velocity":67,"Duration":630087,"SoundDuration":630087,"Delta":75504659},{"NoteNumber":62,"Velocity":80,"Duration":630087,"SoundDuration":630087,"Delta":75504659},{"NoteNumber":86,"Velocity":75,"Duration":102806,"SoundDuration":102806,"Delta":75607466},{"NoteNumber":90,"Velocity":82,"Duration":102806,"SoundDuration":102806,"Delta":75710273},{"NoteNumber":98,"Velocity":86,"Duration":321667,"SoundDuration":321667,"Delta":75813079},{"NoteNumber":90,"Velocity":68,"Duration":102806,"SoundDuration":102806,"Delta":75915886},{"NoteNumber":86,"Velocity":68,"Duration":116053,"SoundDuration":116053,"Delta":76018693},{"NoteNumber":62,"Velocity":63,"Duration":643903,"SoundDuration":643903,"Delta":76134746},{"NoteNumber":65,"Velocity":75,"Duration":643903,"SoundDuration":643903,"Delta":76134746},{"NoteNumber":56,"Velocity":63,"Duration":643903,"SoundDuration":643903,"Delta":76134746},{"NoteNumber":86,"Velocity":70,"Duration":102806,"SoundDuration":102806,"Delta":76237553},{"NoteNumber":89,"Velocity":70,"Duration":102806,"SoundDuration":102806,"Delta":76340360},{"NoteNumber":95,"Velocity":82,"Duration":335483,"SoundDuration":335483,"Delta":76443166},{"NoteNumber":89,"Velocity":73,"Duration":102806,"SoundDuration":102806,"Delta":76545973},{"NoteNumber":86,"Velocity":78,"Duration":129870,"SoundDuration":129870,"Delta":76648780},{"NoteNumber":93,"Velocity":92,"Duration":107566,"SoundDuration":107566,"Delta":76778650},{"NoteNumber":45,"Velocity":63,"Duration":311330,"SoundDuration":311330,"Delta":76778650},{"NoteNumber":57,"Velocity":75,"Duration":311330,"SoundDuration":311330,"Delta":76778650},{"NoteNumber":98,"Velocity":88,"Duration":101657,"SoundDuration":101657,"Delta":76886216},{"NoteNumber":97,"Velocity":75,"Duration":102107,"SoundDuration":102107,"Delta":76987873},{"NoteNumber":95,"Velocity":84,"Duration":102532,"SoundDuration":102532,"Delta":77089980},{"NoteNumber":93,"Velocity":73,"Duration":103142,"SoundDuration":103142,"Delta":77192512},{"NoteNumber":91,"Velocity":70,"Duration":103753,"SoundDuration":103753,"Delta":77295655},{"NoteNumber":90,"Velocity":80,"Duration":103913,"SoundDuration":103913,"Delta":77399409},{"NoteNumber":57,"Velocity":56,"Duration":308262,"SoundDuration":308262,"Delta":77399409},{"NoteNumber":66,"Velocity":68,"Duration":308262,"SoundDuration":308262,"Delta":77399409},{"NoteNumber":62,"Velocity":56,"Duration":308262,"SoundDuration":308262,"Delta":77399409},{"NoteNumber":88,"Velocity":66,"Duration":102691,"SoundDuration":102691,"Delta":77503322},{"NoteNumber":86,"Velocity":66,"Duration":101657,"SoundDuration":101657,"Delta":77606014},{"NoteNumber":85,"Velocity":79,"Duration":102135,"SoundDuration":102135,"Delta":77707671},{"NoteNumber":86,"Velocity":67,"Duration":102560,"SoundDuration":102560,"Delta":77809806},{"NoteNumber":83,"Velocity":67,"Duration":103171,"SoundDuration":103171,"Delta":77912367},{"NoteNumber":81,"Velocity":89,"Duration":106214,"SoundDuration":106214,"Delta":78015539},{"NoteNumber":45,"Velocity":61,"Duration":312558,"SoundDuration":312558,"Delta":78015539},{"NoteNumber":57,"Velocity":73,"Duration":312558,"SoundDuration":312558,"Delta":78015539},{"NoteNumber":91,"Velocity":75,"Duration":102865,"SoundDuration":102865,"Delta":78121754},{"NoteNumber":90,"Velocity":67,"Duration":103478,"SoundDuration":103478,"Delta":78224619},{"NoteNumber":88,"Velocity":85,"Duration":104098,"SoundDuration":104098,"Delta":78328098},{"NoteNumber":86,"Velocity":67,"Duration":104728,"SoundDuration":104728,"Delta":78432196},{"NoteNumber":85,"Velocity":67,"Duration":105557,"SoundDuration":105557,"Delta":78536925},{"NoteNumber":83,"Velocity":76,"Duration":104569,"SoundDuration":104569,"Delta":78642482},{"NoteNumber":67,"Velocity":72,"Duration":314374,"SoundDuration":314374,"Delta":78642482},{"NoteNumber":61,"Velocity":60,"Duration":314374,"SoundDuration":314374,"Delta":78642482},{"NoteNumber":57,"Velocity":60,"Duration":314374,"SoundDuration":314374,"Delta":78642482},{"NoteNumber":81,"Velocity":59,"Duration":104630,"SoundDuration":104630,"Delta":78747052},{"NoteNumber":79,"Velocity":57,"Duration":105174,"SoundDuration":105174,"Delta":78851682},{"NoteNumber":78,"Velocity":69,"Duration":105304,"SoundDuration":105304,"Delta":78956857},{"NoteNumber":79,"Velocity":58,"Duration":105786,"SoundDuration":105786,"Delta":79062161},{"NoteNumber":76,"Velocity":58,"Duration":113687,"SoundDuration":113687,"Delta":79167948},{"NoteNumber":74,"Velocity":78,"Duration":106214,"SoundDuration":106214,"Delta":79281636},{"NoteNumber":50,"Velocity":45,"Duration":312653,"SoundDuration":312653,"Delta":79281636},{"NoteNumber":78,"Velocity":61,"Duration":103047,"SoundDuration":103047,"Delta":79387851},{"NoteNumber":81,"Velocity":61,"Duration":103391,"SoundDuration":103391,"Delta":79490898},{"NoteNumber":83,"Velocity":68,"Duration":103877,"SoundDuration":103877,"Delta":79594290},{"NoteNumber":81,"Velocity":57,"Duration":104128,"SoundDuration":104128,"Delta":79698167},{"NoteNumber":78,"Velocity":49,"Duration":104569,"SoundDuration":104569,"Delta":79802296},{"NoteNumber":74,"Velocity":64,"Duration":106214,"SoundDuration":106214,"Delta":79906865},{"NoteNumber":57,"Velocity":28,"Duration":312653,"SoundDuration":312653,"Delta":79906865},{"NoteNumber":62,"Velocity":28,"Duration":312653,"SoundDuration":312653,"Delta":79906865},{"NoteNumber":66,"Velocity":34,"Duration":312653,"SoundDuration":312653,"Delta":79906865},{"NoteNumber":78,"Velocity":49,"Duration":103047,"SoundDuration":103047,"Delta":80013080},{"NoteNumber":81,"Velocity":49,"Duration":103391,"SoundDuration":103391,"Delta":80116128},{"NoteNumber":83,"Velocity":59,"Duration":103877,"SoundDuration":103877,"Delta":80219519},{"NoteNumber":81,"Velocity":47,"Duration":104128,"SoundDuration":104128,"Delta":80323396},{"NoteNumber":78,"Velocity":47,"Duration":104569,"SoundDuration":104569,"Delta":80427525},{"NoteNumber":74,"Velocity":59,"Duration":106214,"SoundDuration":106214,"Delta":80532095},{"NoteNumber":50,"Velocity":45,"Duration":312653,"SoundDuration":312653,"Delta":80532095},{"NoteNumber":81,"Velocity":50,"Duration":103047,"SoundDuration":103047,"Delta":80638310},{"NoteNumber":84,"Velocity":49,"Duration":103391,"SoundDuration":103391,"Delta":80741357},{"NoteNumber":86,"Velocity":56,"Duration":103877,"SoundDuration":103877,"Delta":80844749},{"NoteNumber":84,"Velocity":45,"Duration":104128,"SoundDuration":104128,"Delta":80948626},{"NoteNumber":81,"Velocity":45,"Duration":104569,"SoundDuration":104569,"Delta":81052755},{"NoteNumber":74,"Velocity":54,"Duration":106214,"SoundDuration":106214,"Delta":81157324},{"NoteNumber":72,"Velocity":38,"Duration":312653,"SoundDuration":312653,"Delta":81157324},{"NoteNumber":69,"Velocity":32,"Duration":312653,"SoundDuration":312653,"Delta":81157324},{"NoteNumber":62,"Velocity":32,"Duration":312653,"SoundDuration":312653,"Delta":81157324},{"NoteNumber":81,"Velocity":42,"Duration":103047,"SoundDuration":103047,"Delta":81263539},{"NoteNumber":84,"Velocity":42,"Duration":103391,"SoundDuration":103391,"Delta":81366587},{"NoteNumber":86,"Velocity":56,"Duration":103877,"SoundDuration":103877,"Delta":81469978},{"NoteNumber":84,"Velocity":45,"Duration":104128,"SoundDuration":104128,"Delta":81573856},{"NoteNumber":81,"Velocity":45,"Duration":104569,"SoundDuration":104569,"Delta":81677984},{"NoteNumber":74,"Velocity":63,"Duration":106214,"SoundDuration":106214,"Delta":81782554},{"NoteNumber":50,"Velocity":45,"Duration":312653,"SoundDuration":312653,"Delta":81782554},{"NoteNumber":79,"Velocity":58,"Duration":103047,"SoundDuration":103047,"Delta":81888769},{"NoteNumber":83,"Velocity":61,"Duration":103391,"SoundDuration":103391,"Delta":81991817},{"NoteNumber":86,"Velocity":72,"Duration":103877,"SoundDuration":103877,"Delta":82095208},{"NoteNumber":91,"Velocity":69,"Duration":104128,"SoundDuration":104128,"Delta":82199085},{"NoteNumber":95,"Velocity":76,"Duration":104569,"SoundDuration":104569,"Delta":82303214},{"NoteNumber":98,"Velocity":86,"Duration":106214,"SoundDuration":106214,"Delta":82407783},{"NoteNumber":62,"Velocity":35,"Duration":312653,"SoundDuration":312653,"Delta":82407783},{"NoteNumber":67,"Velocity":35,"Duration":312653,"SoundDuration":312653,"Delta":82407783},{"NoteNumber":71,"Velocity":42,"Duration":312653,"SoundDuration":312653,"Delta":82407783},{"NoteNumber":95,"Velocity":69,"Duration":103047,"SoundDuration":103047,"Delta":82513998},{"NoteNumber":91,"Velocity":64,"Duration":103391,"SoundDuration":103391,"Delta":82617046},{"NoteNumber":86,"Velocity":69,"Duration":103877,"SoundDuration":103877,"Delta":82720437},{"NoteNumber":83,"Velocity":59,"Duration":104128,"SoundDuration":104128,"Delta":82824315},{"NoteNumber":79,"Velocity":56,"Duration":104569,"SoundDuration":104569,"Delta":82928443},{"NoteNumber":74,"Velocity":59,"Duration":106214,"SoundDuration":106214,"Delta":83033013},{"NoteNumber":50,"Velocity":45,"Duration":312653,"SoundDuration":312653,"Delta":83033013},{"NoteNumber":79,"Velocity":50,"Duration":103047,"SoundDuration":103047,"Delta":83139228},{"NoteNumber":81,"Velocity":49,"Duration":103391,"SoundDuration":103391,"Delta":83242276},{"NoteNumber":82,"Velocity":56,"Duration":103877,"SoundDuration":103877,"Delta":83345667},{"NoteNumber":81,"Velocity":45,"Duration":104128,"SoundDuration":104128,"Delta":83449544},{"NoteNumber":79,"Velocity":45,"Duration":104569,"SoundDuration":104569,"Delta":83553673},{"NoteNumber":74,"Velocity":54,"Duration":106214,"SoundDuration":106214,"Delta":83658242},{"NoteNumber":70,"Velocity":38,"Duration":312653,"SoundDuration":312653,"Delta":83658242},{"NoteNumber":67,"Velocity":32,"Duration":312653,"SoundDuration":312653,"Delta":83658242},{"NoteNumber":62,"Velocity":32,"Duration":312653,"SoundDuration":312653,"Delta":83658242},{"NoteNumber":79,"Velocity":42,"Duration":103047,"SoundDuration":103047,"Delta":83764457},{"NoteNumber":81,"Velocity":42,"Duration":103391,"SoundDuration":103391,"Delta":83867505},{"NoteNumber":82,"Velocity":56,"Duration":103877,"SoundDuration":103877,"Delta":83970896},{"NoteNumber":81,"Velocity":45,"Duration":104128,"SoundDuration":104128,"Delta":84074774},{"NoteNumber":79,"Velocity":45,"Duration":104569,"SoundDuration":104569,"Delta":84178902},{"NoteNumber":74,"Velocity":63,"Duration":106214,"SoundDuration":106214,"Delta":84283472},{"NoteNumber":50,"Velocity":45,"Duration":312653,"SoundDuration":312653,"Delta":84283472},{"NoteNumber":78,"Velocity":58,"Duration":103047,"SoundDuration":103047,"Delta":84389687},{"NoteNumber":81,"Velocity":61,"Duration":103391,"SoundDuration":103391,"Delta":84492735},{"NoteNumber":86,"Velocity":72,"Duration":103877,"SoundDuration":103877,"Delta":84596126},{"NoteNumber":90,"Velocity":69,"Duration":104128,"SoundDuration":104128,"Delta":84700003},{"NoteNumber":93,"Velocity":76,"Duration":104569,"SoundDuration":104569,"Delta":84804132},{"NoteNumber":98,"Velocity":87,"Duration":106214,"SoundDuration":106214,"Delta":84908701},{"NoteNumber":62,"Velocity":35,"Duration":312653,"SoundDuration":312653,"Delta":84908701},{"NoteNumber":66,"Velocity":35,"Duration":312653,"SoundDuration":312653,"Delta":84908701},{"NoteNumber":69,"Velocity":42,"Duration":312653,"SoundDuration":312653,"Delta":84908701},{"NoteNumber":93,"Velocity":71,"Duration":103047,"SoundDuration":103047,"Delta":85014916},{"NoteNumber":90,"Velocity":69,"Duration":103391,"SoundDuration":103391,"Delta":85117964},{"NoteNumber":86,"Velocity":72,"Duration":103877,"SoundDuration":103877,"Delta":85221355},{"NoteNumber":81,"Velocity":52,"Duration":104128,"SoundDuration":104128,"Delta":85325233},{"NoteNumber":78,"Velocity":50,"Duration":104569,"SoundDuration":104569,"Delta":85429361},{"NoteNumber":74,"Velocity":51,"Duration":79772,"SoundDuration":79772,"Delta":85533931},{"NoteNumber":50,"Velocity":40,"Duration":313522,"SoundDuration":313522,"Delta":85533931},{"NoteNumber":74,"Velocity":48,"Duration":104588,"SoundDuration":104588,"Delta":85640151},{"NoteNumber":76,"Velocity":50,"Duration":102715,"SoundDuration":102715,"Delta":85744739},{"NoteNumber":77,"Velocity":52,"Duration":101907,"SoundDuration":101907,"Delta":85847454},{"NoteNumber":76,"Velocity":47,"Duration":102800,"SoundDuration":102800,"Delta":85949361},{"NoteNumber":74,"Velocity":48,"Duration":103710,"SoundDuration":103710,"Delta":86052161},{"NoteNumber":56,"Velocity":33,"Duration":306406,"SoundDuration":306406,"Delta":86155872},{"NoteNumber":59,"Velocity":33,"Duration":306406,"SoundDuration":306406,"Delta":86155872},{"NoteNumber":65,"Velocity":40,"Duration":306406,"SoundDuration":306406,"Delta":86155872},{"NoteNumber":74,"Velocity":49,"Duration":102430,"SoundDuration":102430,"Delta":86259144},{"NoteNumber":76,"Velocity":56,"Duration":100703,"SoundDuration":100703,"Delta":86361575},{"NoteNumber":77,"Velocity":55,"Duration":101208,"SoundDuration":101208,"Delta":86462278},{"NoteNumber":76,"Velocity":51,"Duration":102512,"SoundDuration":102512,"Delta":86563487},{"NoteNumber":74,"Velocity":51,"Duration":104740,"SoundDuration":104740,"Delta":86666000},{"NoteNumber":50,"Velocity":46,"Duration":313522,"SoundDuration":313522,"Delta":86770740},{"NoteNumber":73,"Velocity":55,"Duration":104588,"SoundDuration":104588,"Delta":86876960},{"NoteNumber":74,"Velocity":58,"Duration":102715,"SoundDuration":102715,"Delta":86981548},{"NoteNumber":76,"Velocity":59,"Duration":101907,"SoundDuration":101907,"Delta":87084263},{"NoteNumber":74,"Velocity":55,"Duration":102800,"SoundDuration":102800,"Delta":87186170},{"NoteNumber":73,"Velocity":56,"Duration":103710,"SoundDuration":103710,"Delta":87288970},{"NoteNumber":61,"Velocity":38,"Duration":306406,"SoundDuration":306406,"Delta":87392681},{"NoteNumber":64,"Velocity":46,"Duration":306406,"SoundDuration":306406,"Delta":87392681},{"NoteNumber":67,"Velocity":57,"Duration":102430,"SoundDuration":102430,"Delta":87495954},{"NoteNumber":69,"Velocity":64,"Duration":100703,"SoundDuration":100703,"Delta":87598384},{"NoteNumber":70,"Velocity":62,"Duration":101208,"SoundDuration":101208,"Delta":87699087},{"NoteNumber":69,"Velocity":58,"Duration":102512,"SoundDuration":102512,"Delta":87800296},{"NoteNumber":67,"Velocity":58,"Duration":104740,"SoundDuration":104740,"Delta":87902809},{"NoteNumber":55,"Velocity":41,"Duration":306406,"SoundDuration":306406,"Delta":88007549},{"NoteNumber":58,"Velocity":49,"Duration":306406,"SoundDuration":306406,"Delta":88007549},{"NoteNumber":61,"Velocity":60,"Duration":102430,"SoundDuration":102430,"Delta":88110822},{"NoteNumber":62,"Velocity":68,"Duration":100703,"SoundDuration":100703,"Delta":88213253},{"NoteNumber":64,"Velocity":66,"Duration":101208,"SoundDuration":101208,"Delta":88313956},{"NoteNumber":62,"Velocity":62,"Duration":102512,"SoundDuration":102512,"Delta":88415165},{"NoteNumber":61,"Velocity":62,"Duration":104740,"SoundDuration":104740,"Delta":88517677},{"NoteNumber":49,"Velocity":55,"Duration":614868,"SoundDuration":614868,"Delta":88622418},{"NoteNumber":52,"Velocity":67,"Duration":614868,"SoundDuration":614868,"Delta":88622418},{"NoteNumber":55,"Velocity":73,"Duration":122876,"SoundDuration":122876,"Delta":88725690},{"NoteNumber":57,"Velocity":75,"Duration":120811,"SoundDuration":120811,"Delta":88828121},{"NoteNumber":58,"Velocity":79,"Duration":121547,"SoundDuration":121547,"Delta":88928824},{"NoteNumber":57,"Velocity":78,"Duration":123264,"SoundDuration":123264,"Delta":89030033},{"NoteNumber":55,"Velocity":66,"Duration":104740,"SoundDuration":104740,"Delta":89132546},{"NoteNumber":50,"Velocity":42,"Duration":306718,"SoundDuration":306718,"Delta":89237286},{"NoteNumber":54,"Velocity":51,"Duration":122869,"SoundDuration":122869,"Delta":89348447},{"NoteNumber":55,"Velocity":57,"Duration":120783,"SoundDuration":120783,"Delta":89450870},{"NoteNumber":57,"Velocity":55,"Duration":121463,"SoundDuration":121463,"Delta":89544005},{"NoteNumber":55,"Velocity":51,"Duration":124536,"SoundDuration":124536,"Delta":89646408},{"NoteNumber":54,"Velocity":46,"Duration":109454,"SoundDuration":109454,"Delta":89746954},{"NoteNumber":49,"Velocity":55,"Duration":614868,"SoundDuration":614868,"Delta":89857800},{"NoteNumber":52,"Velocity":67,"Duration":614868,"SoundDuration":614868,"Delta":89857800},{"NoteNumber":55,"Velocity":73,"Duration":122876,"SoundDuration":122876,"Delta":89961073},{"NoteNumber":57,"Velocity":75,"Duration":120811,"SoundDuration":120811,"Delta":90063504},{"NoteNumber":58,"Velocity":79,"Duration":121547,"SoundDuration":121547,"Delta":90164207},{"NoteNumber":57,"Velocity":78,"Duration":123264,"SoundDuration":123264,"Delta":90265416},{"NoteNumber":55,"Velocity":66,"Duration":104740,"SoundDuration":104740,"Delta":90367928},{"NoteNumber":50,"Velocity":42,"Duration":307005,"SoundDuration":307005,"Delta":90472669},{"NoteNumber":54,"Velocity":51,"Duration":122912,"SoundDuration":122912,"Delta":90576119},{"NoteNumber":55,"Velocity":57,"Duration":121373,"SoundDuration":121373,"Delta":90686253},{"NoteNumber":57,"Velocity":55,"Duration":123809,"SoundDuration":123809,"Delta":90779674},{"NoteNumber":55,"Velocity":51,"Duration":127441,"SoundDuration":127441,"Delta":90882495},{"NoteNumber":54,"Velocity":46,"Duration":109388,"SoundDuration":109388,"Delta":90988383},{"NoteNumber":49,"Velocity":55,"Duration":614868,"SoundDuration":614868,"Delta":91097772},{"NoteNumber":52,"Velocity":67,"Duration":614868,"SoundDuration":614868,"Delta":91097772},{"NoteNumber":55,"Velocity":73,"Duration":122876,"SoundDuration":122876,"Delta":91201044},{"NoteNumber":57,"Velocity":75,"Duration":120811,"SoundDuration":120811,"Delta":91303475},{"NoteNumber":58,"Velocity":79,"Duration":121547,"SoundDuration":121547,"Delta":91404178},{"NoteNumber":57,"Velocity":78,"Duration":123264,"SoundDuration":123264,"Delta":91505387},{"NoteNumber":55,"Velocity":66,"Duration":104740,"SoundDuration":104740,"Delta":91607900},{"NoteNumber":50,"Velocity":42,"Duration":614847,"SoundDuration":614847,"Delta":91712640},{"NoteNumber":54,"Velocity":51,"Duration":122912,"SoundDuration":122912,"Delta":91816090},{"NoteNumber":55,"Velocity":57,"Duration":120910,"SoundDuration":120910,"Delta":91918557},{"NoteNumber":57,"Velocity":55,"Duration":121463,"SoundDuration":121463,"Delta":92019359},{"NoteNumber":55,"Velocity":51,"Duration":123068,"SoundDuration":123068,"Delta":92120491},{"NoteNumber":54,"Velocity":46,"Duration":104606,"SoundDuration":104606,"Delta":92222881},{"NoteNumber":46,"Velocity":47,"Duration":614847,"SoundDuration":614847,"Delta":92327488},{"NoteNumber":50,"Velocity":51,"Duration":122912,"SoundDuration":122912,"Delta":92430938},{"NoteNumber":52,"Velocity":58,"Duration":120910,"SoundDuration":120910,"Delta":92533405},{"NoteNumber":55,"Velocity":57,"Duration":121463,"SoundDuration":121463,"Delta":92634206},{"NoteNumber":52,"Velocity":54,"Duration":123068,"SoundDuration":123068,"Delta":92735339},{"NoteNumber":50,"Velocity":49,"Duration":104606,"SoundDuration":104606,"Delta":92837729},{"NoteNumber":43,"Velocity":53,"Duration":614847,"SoundDuration":614847,"Delta":92942335},{"NoteNumber":50,"Velocity":56,"Duration":122912,"SoundDuration":122912,"Delta":93045785},{"NoteNumber":58,"Velocity":64,"Duration":120910,"SoundDuration":120910,"Delta":93148252},{"NoteNumber":62,"Velocity":63,"Duration":121463,"SoundDuration":121463,"Delta":93249054},{"NoteNumber":58,"Velocity":59,"Duration":123068,"SoundDuration":123068,"Delta":93350186},{"NoteNumber":50,"Velocity":54,"Duration":104606,"SoundDuration":104606,"Delta":93452576},{"NoteNumber":46,"Velocity":59,"Duration":629628,"SoundDuration":629628,"Delta":93557183},{"NoteNumber":50,"Velocity":64,"Duration":122912,"SoundDuration":122912,"Delta":93660633},{"NoteNumber":52,"Velocity":70,"Duration":120910,"SoundDuration":120910,"Delta":93763100},{"NoteNumber":55,"Velocity":68,"Duration":120651,"SoundDuration":120651,"Delta":93863901},{"NoteNumber":52,"Velocity":64,"Duration":125480,"SoundDuration":125480,"Delta":93964444},{"NoteNumber":50,"Velocity":58,"Duration":121823,"SoundDuration":121823,"Delta":94064987},{"NoteNumber":38,"Velocity":57,"Duration":155745,"SoundDuration":155745,"Delta":94186811},{"NoteNumber":50,"Velocity":68,"Duration":155745,"SoundDuration":155745,"Delta":94186811},{"NoteNumber":54,"Velocity":62,"Duration":124214,"SoundDuration":124214,"Delta":94290664},{"NoteNumber":55,"Velocity":63,"Duration":123886,"SoundDuration":123886,"Delta":94394215},{"NoteNumber":57,"Velocity":64,"Duration":123355,"SoundDuration":123355,"Delta":94497532},{"NoteNumber":37,"Velocity":51,"Duration":154191,"SoundDuration":154191,"Delta":94497532},{"NoteNumber":49,"Velocity":60,"Duration":154191,"SoundDuration":154191,"Delta":94497532},{"NoteNumber":59,"Velocity":65,"Duration":123027,"SoundDuration":123027,"Delta":94600330},{"NoteNumber":61,"Velocity":65,"Duration":122711,"SoundDuration":122711,"Delta":94702906},{"NoteNumber":62,"Velocity":67,"Duration":122510,"SoundDuration":122510,"Delta":94805166},{"NoteNumber":35,"Velocity":52,"Duration":153032,"SoundDuration":153032,"Delta":94805166},{"NoteNumber":47,"Velocity":62,"Duration":153032,"SoundDuration":153032,"Delta":94805166},{"NoteNumber":64,"Velocity":67,"Duration":122087,"SoundDuration":122087,"Delta":94907328},{"NoteNumber":66,"Velocity":67,"Duration":121830,"SoundDuration":121830,"Delta":95009068},{"NoteNumber":67,"Velocity":67,"Duration":121469,"SoundDuration":121469,"Delta":95110653},{"NoteNumber":33,"Velocity":54,"Duration":151837,"SoundDuration":151837,"Delta":95110653},{"NoteNumber":45,"Velocity":64,"Duration":151837,"SoundDuration":151837,"Delta":95110653},{"NoteNumber":69,"Velocity":68,"Duration":121163,"SoundDuration":121163,"Delta":95211878},{"NoteNumber":71,"Velocity":69,"Duration":120857,"SoundDuration":120857,"Delta":95312899},{"NoteNumber":73,"Velocity":71,"Duration":120498,"SoundDuration":120498,"Delta":95413614},{"NoteNumber":31,"Velocity":55,"Duration":150561,"SoundDuration":150561,"Delta":95413614},{"NoteNumber":43,"Velocity":65,"Duration":150561,"SoundDuration":150561,"Delta":95413614},{"NoteNumber":74,"Velocity":71,"Duration":120473,"SoundDuration":120473,"Delta":95514070},{"NoteNumber":76,"Velocity":71,"Duration":121529,"SoundDuration":121529,"Delta":95614401},{"NoteNumber":78,"Velocity":71,"Duration":122951,"SoundDuration":122951,"Delta":95715582},{"NoteNumber":30,"Velocity":56,"Duration":153946,"SoundDuration":153946,"Delta":95715582},{"NoteNumber":42,"Velocity":67,"Duration":153946,"SoundDuration":153946,"Delta":95715582},{"NoteNumber":79,"Velocity":72,"Duration":124457,"SoundDuration":124457,"Delta":95817871},{"NoteNumber":81,"Velocity":72,"Duration":125830,"SoundDuration":125830,"Delta":95921449},{"NoteNumber":83,"Velocity":74,"Duration":71489,"SoundDuration":71489,"Delta":96026167},{"NoteNumber":28,"Velocity":62,"Duration":667340,"SoundDuration":667340,"Delta":96026167},{"NoteNumber":40,"Velocity":73,"Duration":667340,"SoundDuration":667340,"Delta":96026167},{"NoteNumber":85,"Velocity":74,"Duration":70680,"SoundDuration":70680,"Delta":96097656},{"NoteNumber":86,"Velocity":77,"Duration":71477,"SoundDuration":71477,"Delta":96168337},{"NoteNumber":88,"Velocity":80,"Duration":74055,"SoundDuration":74055,"Delta":96239815},{"NoteNumber":90,"Velocity":81,"Duration":73473,"SoundDuration":73473,"Delta":96313870},{"NoteNumber":91,"Velocity":84,"Duration":75829,"SoundDuration":75829,"Delta":96387343},{"NoteNumber":93,"Velocity":86,"Duration":75408,"SoundDuration":75408,"Delta":96463173},{"NoteNumber":95,"Velocity":87,"Duration":77845,"SoundDuration":77845,"Delta":96538582},{"NoteNumber":97,"Velocity":93,"Duration":77079,"SoundDuration":77079,"Delta":96616428},{"NoteNumber":98,"Velocity":101,"Duration":757576,"SoundDuration":757576,"Delta":96693507},{"NoteNumber":38,"Velocity":78,"Duration":757576,"SoundDuration":757576,"Delta":96693507},{"NoteNumber":26,"Velocity":66,"Duration":757576,"SoundDuration":757576,"Delta":96693507},{"NoteNumber":78,"Velocity":98,"Duration":757576,"SoundDuration":757576,"Delta":98208659},{"NoteNumber":74,"Velocity":83,"Duration":757576,"SoundDuration":757576,"Delta":98208659},{"NoteNumber":69,"Velocity":83,"Duration":757576,"SoundDuration":757576,"Delta":98208659},{"NoteNumber":66,"Velocity":83,"Duration":757576,"SoundDuration":757576,"Delta":98208659},{"NoteNumber":62,"Velocity":74,"Duration":757576,"SoundDuration":757576,"Delta":98208659},{"NoteNumber":57,"Velocity":62,"Duration":757576,"SoundDuration":757576,"Delta":98208659},{"NoteNumber":50,"Velocity":62,"Duration":757576,"SoundDuration":757576,"Delta":98208659},{"NoteNumber":62,"Velocity":88,"Duration":1515152,"SoundDuration":1515152,"Delta":99723811},{"NoteNumber":57,"Velocity":74,"Duration":1515152,"SoundDuration":1515152,"Delta":99723811},{"NoteNumber":54,"Velocity":74,"Duration":1515152,"SoundDuration":1515152,"Delta":99723811},{"NoteNumber":50,"Velocity":74,"Duration":1515152,"SoundDuration":1515152,"Delta":99723811},{"NoteNumber":38,"Velocity":71,"Duration":1515152,"SoundDuration":1515152,"Delta":99723811},{"NoteNumber":33,"Velocity":60,"Duration":1515152,"SoundDuration":1515152,"Delta":99723811},{"NoteNumber":26,"Velocity":60,"Duration":1515152,"SoundDuration":1515152,"Delta":99723811}],"license":{"name":"Creative Commons Attribution-ShareAlike 3.0 Germany","url":"http://creativecommons.org/licenses/by-sa/3.0/de/deed.en","text":"The MIDI, audio (MP3, OGG) and video files of Bernd Krueger are licensed under the cc-by-sa Germany License. This means that you can use and adapt the files, as long as you attribute the copyright holder.\n\nName: Bernd Krueger\nSource: http://www.piano-midi.de\n\nThe distribution or public playback of the files is only allowed under identical license conditions.\n\nThe scores are open source.","attribution":"MIDI files by Bernd Krueger (piano-midi.de)","attributionUrl":"http://www.piano-midi.de"}}