{"title":"Trennung","artist":"Burgmüller","durationMs":73638,"midiSha256":"34643cd4c705718abc980c1a985dc3baf199c969119d040b993338f2030b6a9b","midiObject":[{"NoteNumber":46,"Velocity":39,"Duration":452182,"SoundDuration":452182,"Delta":0},{"NoteNumber":51,"Velocity":48,"Duration":445466,"SoundDuration":445466,"Delta":452183},{"NoteNumber":63,"Velocity":32,"Duration":111366,"SoundDuration":111366,"Delta":600672},{"NoteNumber":67,"Velocity":38,"Duration":111366,"SoundDuration":111366,"Delta":600672},{"NoteNumber":63,"Velocity":32,"Duration":111366,"SoundDuration":111366,"Delta":749160},{"NoteNumber":67,"Velocity":38,"Duration":111366,"SoundDuration":111366,"Delta":749160},{"NoteNumber":55,"Velocity":51,"Duration":443820,"SoundDuration":443820,"Delta":897649},{"NoteNumber":67,"Velocity":43,"Duration":110955,"SoundDuration":110955,"Delta":1045589},{"NoteNumber":63,"Velocity":36,"Duration":110955,"SoundDuration":110955,"Delta":1045589},{"NoteNumber":67,"Velocity":44,"Duration":110955,"SoundDuration":110955,"Delta":1193529},{"NoteNumber":63,"Velocity":36,"Duration":110955,"SoundDuration":110955,"Delta":1193529},{"NoteNumber":58,"Velocity":56,"Duration":442184,"SoundDuration":442184,"Delta":1341470},{"NoteNumber":63,"Velocity":41,"Duration":110546,"SoundDuration":110546,"Delta":1488864},{"NoteNumber":67,"Velocity":49,"Duration":110546,"SoundDuration":110546,"Delta":1488864},{"NoteNumber":63,"Velocity":42,"Duration":110546,"SoundDuration":110546,"Delta":1636259},{"NoteNumber":67,"Velocity":49,"Duration":110546,"SoundDuration":110546,"Delta":1636259},{"NoteNumber":59,"Velocity":66,"Duration":457352,"SoundDuration":457352,"Delta":1783654},{"NoteNumber":63,"Velocity":44,"Duration":114338,"SoundDuration":114338,"Delta":1936104},{"NoteNumber":67,"Velocity":53,"Duration":114338,"SoundDuration":114338,"Delta":1936104},{"NoteNumber":63,"Velocity":44,"Duration":114338,"SoundDuration":114338,"Delta":2088555},{"NoteNumber":67,"Velocity":53,"Duration":114338,"SoundDuration":114338,"Delta":2088555},{"NoteNumber":60,"Velocity":73,"Duration":442184,"SoundDuration":442184,"Delta":2241006},{"NoteNumber":63,"Velocity":44,"Duration":110546,"SoundDuration":110546,"Delta":2388400},{"NoteNumber":67,"Velocity":53,"Duration":110546,"SoundDuration":110546,"Delta":2388400},{"NoteNumber":63,"Velocity":43,"Duration":110546,"SoundDuration":110546,"Delta":2535795},{"NoteNumber":67,"Velocity":52,"Duration":110546,"SoundDuration":110546,"Delta":2535795},{"NoteNumber":57,"Velocity":50,"Duration":442184,"SoundDuration":442184,"Delta":2683190},{"NoteNumber":63,"Velocity":39,"Duration":110546,"SoundDuration":110546,"Delta":2830584},{"NoteNumber":67,"Velocity":46,"Duration":110546,"SoundDuration":110546,"Delta":2830584},{"NoteNumber":63,"Velocity":38,"Duration":110546,"SoundDuration":110546,"Delta":2977979},{"NoteNumber":67,"Velocity":46,"Duration":110546,"SoundDuration":110546,"Delta":2977979},{"NoteNumber":58,"Velocity":55,"Duration":442184,"SoundDuration":442184,"Delta":3125374},{"NoteNumber":67,"Velocity":47,"Duration":110546,"SoundDuration":110546,"Delta":3272768},{"NoteNumber":63,"Velocity":40,"Duration":110546,"SoundDuration":110546,"Delta":3272768},{"NoteNumber":67,"Velocity":46,"Duration":110545,"SoundDuration":110545,"Delta":3420163},{"NoteNumber":63,"Velocity":39,"Duration":110545,"SoundDuration":110545,"Delta":3420163},{"NoteNumber":51,"Velocity":47,"Duration":452181,"SoundDuration":452181,"Delta":3567558},{"NoteNumber":67,"Velocity":41,"Duration":113045,"SoundDuration":113045,"Delta":3718285},{"NoteNumber":63,"Velocity":34,"Duration":113045,"SoundDuration":113045,"Delta":3718285},{"NoteNumber":67,"Velocity":41,"Duration":113045,"SoundDuration":113045,"Delta":3869012},{"NoteNumber":63,"Velocity":34,"Duration":113045,"SoundDuration":113045,"Delta":3869012},{"NoteNumber":50,"Velocity":46,"Duration":889311,"SoundDuration":889311,"Delta":4019740},{"NoteNumber":70,"Velocity":44,"Duration":111781,"SoundDuration":111781,"Delta":4168782},{"NoteNumber":65,"Velocity":37,"Duration":111781,"SoundDuration":111781,"Delta":4168782},{"NoteNumber":70,"Velocity":45,"Duration":111781,"SoundDuration":111781,"Delta":4317824},{"NoteNumber":65,"Velocity":38,"Duration":111781,"SoundDuration":111781,"Delta":4317824},{"NoteNumber":58,"Velocity":56,"Duration":442184,"SoundDuration":442184,"Delta":4466867},{"NoteNumber":68,"Velocity":51,"Duration":110545,"SoundDuration":110545,"Delta":4614261},{"NoteNumber":65,"Velocity":44,"Duration":110545,"SoundDuration":110545,"Delta":4614261},{"NoteNumber":68,"Velocity":53,"Duration":110546,"SoundDuration":110546,"Delta":4761656},{"NoteNumber":65,"Velocity":45,"Duration":110546,"SoundDuration":110546,"Delta":4761656},{"NoteNumber":51,"Velocity":50,"Duration":960266,"SoundDuration":960266,"Delta":4853778},{"NoteNumber":59,"Velocity":72,"Duration":440560,"SoundDuration":440560,"Delta":4909051},{"NoteNumber":65,"Velocity":49,"Duration":110140,"SoundDuration":110140,"Delta":5055904},{"NoteNumber":68,"Velocity":59,"Duration":110140,"SoundDuration":110140,"Delta":5055904},{"NoteNumber":65,"Velocity":49,"Duration":110140,"SoundDuration":110140,"Delta":5202758},{"NoteNumber":68,"Velocity":59,"Duration":110140,"SoundDuration":110140,"Delta":5202758},{"NoteNumber":58,"Velocity":58,"Duration":401540,"SoundDuration":401540,"Delta":5349612},{"NoteNumber":63,"Velocity":42,"Duration":116107,"SoundDuration":116107,"Delta":5504422},{"NoteNumber":67,"Velocity":51,"Duration":116107,"SoundDuration":116107,"Delta":5504422},{"NoteNumber":63,"Velocity":42,"Duration":116107,"SoundDuration":116107,"Delta":5659233},{"NoteNumber":67,"Velocity":50,"Duration":116107,"SoundDuration":116107,"Delta":5659233},{"NoteNumber":46,"Velocity":54,"Duration":58054,"SoundDuration":58054,"Delta":5755990},{"NoteNumber":58,"Velocity":69,"Duration":443819,"SoundDuration":443819,"Delta":5814044},{"NoteNumber":63,"Velocity":44,"Duration":110954,"SoundDuration":110954,"Delta":5961984},{"NoteNumber":67,"Velocity":53,"Duration":110954,"SoundDuration":110954,"Delta":5961984},{"NoteNumber":63,"Velocity":43,"Duration":110955,"SoundDuration":110955,"Delta":6109924},{"NoteNumber":67,"Velocity":52,"Duration":110955,"SoundDuration":110955,"Delta":6109924},{"NoteNumber":57,"Velocity":55,"Duration":447127,"SoundDuration":447127,"Delta":6257864},{"NoteNumber":72,"Velocity":44,"Duration":111781,"SoundDuration":111781,"Delta":6406906},{"NoteNumber":66,"Velocity":37,"Duration":111781,"SoundDuration":111781,"Delta":6406906},{"NoteNumber":63,"Velocity":37,"Duration":111781,"SoundDuration":111781,"Delta":6406906},{"NoteNumber":72,"Velocity":44,"Duration":111781,"SoundDuration":111781,"Delta":6555948},{"NoteNumber":66,"Velocity":36,"Duration":111781,"SoundDuration":111781,"Delta":6555948},{"NoteNumber":63,"Velocity":36,"Duration":111781,"SoundDuration":111781,"Delta":6555948},{"NoteNumber":56,"Velocity":51,"Duration":455614,"SoundDuration":455614,"Delta":6704991},{"NoteNumber":65,"Velocity":40,"Duration":113903,"SoundDuration":113903,"Delta":6856862},{"NoteNumber":62,"Velocity":33,"Duration":113903,"SoundDuration":113903,"Delta":6856862},{"NoteNumber":65,"Velocity":39,"Duration":113903,"SoundDuration":113903,"Delta":7008734},{"NoteNumber":62,"Velocity":33,"Duration":113903,"SoundDuration":113903,"Delta":7008734},{"NoteNumber":53,"Velocity":44,"Duration":519342,"SoundDuration":519342,"Delta":7160606},{"NoteNumber":41,"Velocity":37,"Duration":519342,"SoundDuration":519342,"Delta":7160606},{"NoteNumber":70,"Velocity":37,"Duration":129099,"SoundDuration":129099,"Delta":7322957},{"NoteNumber":68,"Velocity":31,"Duration":129099,"SoundDuration":129099,"Delta":7322957},{"NoteNumber":62,"Velocity":31,"Duration":129099,"SoundDuration":129099,"Delta":7322957},{"NoteNumber":70,"Velocity":37,"Duration":138645,"SoundDuration":138645,"Delta":7495089},{"NoteNumber":68,"Velocity":31,"Duration":138645,"SoundDuration":138645,"Delta":7495089},{"NoteNumber":62,"Velocity":31,"Duration":138645,"SoundDuration":138645,"Delta":7495089},{"NoteNumber":51,"Velocity":53,"Duration":462642,"SoundDuration":462642,"Delta":7679949},{"NoteNumber":39,"Velocity":45,"Duration":462642,"SoundDuration":462642,"Delta":7679949},{"NoteNumber":75,"Velocity":43,"Duration":115660,"SoundDuration":115660,"Delta":7834162},{"NoteNumber":67,"Velocity":36,"Duration":115660,"SoundDuration":115660,"Delta":7834162},{"NoteNumber":63,"Velocity":36,"Duration":115660,"SoundDuration":115660,"Delta":7834162},{"NoteNumber":75,"Velocity":43,"Duration":115660,"SoundDuration":115660,"Delta":7988376},{"NoteNumber":67,"Velocity":36,"Duration":115660,"SoundDuration":115660,"Delta":7988376},{"NoteNumber":63,"Velocity":36,"Duration":115660,"SoundDuration":115660,"Delta":7988376},{"NoteNumber":55,"Velocity":58,"Duration":455614,"SoundDuration":455614,"Delta":8142591},{"NoteNumber":43,"Velocity":49,"Duration":455614,"SoundDuration":455614,"Delta":8142591},{"NoteNumber":63,"Velocity":42,"Duration":113903,"SoundDuration":113903,"Delta":8294462},{"NoteNumber":67,"Velocity":42,"Duration":113903,"SoundDuration":113903,"Delta":8294462},{"NoteNumber":75,"Velocity":50,"Duration":113903,"SoundDuration":113903,"Delta":8294462},{"NoteNumber":63,"Velocity":42,"Duration":113903,"SoundDuration":113903,"Delta":8446334},{"NoteNumber":67,"Velocity":42,"Duration":113903,"SoundDuration":113903,"Delta":8446334},{"NoteNumber":75,"Velocity":51,"Duration":113903,"SoundDuration":113903,"Delta":8446334},{"NoteNumber":58,"Velocity":63,"Duration":448798,"SoundDuration":448798,"Delta":8598206},{"NoteNumber":46,"Velocity":53,"Duration":448798,"SoundDuration":448798,"Delta":8598206},{"NoteNumber":63,"Velocity":48,"Duration":112199,"SoundDuration":112199,"Delta":8747805},{"NoteNumber":67,"Velocity":48,"Duration":112199,"SoundDuration":112199,"Delta":8747805},{"NoteNumber":75,"Velocity":57,"Duration":112199,"SoundDuration":112199,"Delta":8747805},{"NoteNumber":63,"Velocity":49,"Duration":112199,"SoundDuration":112199,"Delta":8897405},{"NoteNumber":67,"Velocity":49,"Duration":112199,"SoundDuration":112199,"Delta":8897405},{"NoteNumber":75,"Velocity":58,"Duration":112199,"SoundDuration":112199,"Delta":8897405},{"NoteNumber":60,"Velocity":71,"Duration":462642,"SoundDuration":462642,"Delta":9047005},{"NoteNumber":48,"Velocity":59,"Duration":462642,"SoundDuration":462642,"Delta":9047005},{"NoteNumber":63,"Velocity":52,"Duration":115660,"SoundDuration":115660,"Delta":9201218},{"NoteNumber":68,"Velocity":52,"Duration":115660,"SoundDuration":115660,"Delta":9201218},{"NoteNumber":75,"Velocity":62,"Duration":115660,"SoundDuration":115660,"Delta":9201218},{"NoteNumber":75,"Velocity":63,"Duration":115660,"SoundDuration":115660,"Delta":9355432},{"NoteNumber":68,"Velocity":53,"Duration":115660,"SoundDuration":115660,"Delta":9355432},{"NoteNumber":63,"Velocity":53,"Duration":115660,"SoundDuration":115660,"Delta":9355432},{"NoteNumber":61,"Velocity":79,"Duration":448798,"SoundDuration":448798,"Delta":9509647},{"NoteNumber":49,"Velocity":67,"Duration":448798,"SoundDuration":448798,"Delta":9509647},{"NoteNumber":63,"Velocity":59,"Duration":112199,"SoundDuration":112199,"Delta":9659246},{"NoteNumber":70,"Velocity":59,"Duration":112199,"SoundDuration":112199,"Delta":9659246},{"NoteNumber":75,"Velocity":70,"Duration":112199,"SoundDuration":112199,"Delta":9659246},{"NoteNumber":63,"Velocity":59,"Duration":112199,"SoundDuration":112199,"Delta":9808846},{"NoteNumber":70,"Velocity":59,"Duration":112199,"SoundDuration":112199,"Delta":9808846},{"NoteNumber":75,"Velocity":70,"Duration":112199,"SoundDuration":112199,"Delta":9808846},{"NoteNumber":55,"Velocity":76,"Duration":454322,"SoundDuration":454322,"Delta":9958446},{"NoteNumber":43,"Velocity":63,"Duration":454322,"SoundDuration":454322,"Delta":9958446},{"NoteNumber":75,"Velocity":64,"Duration":113473,"SoundDuration":113473,"Delta":10110174},{"NoteNumber":71,"Velocity":55,"Duration":113473,"SoundDuration":113473,"Delta":10110174},{"NoteNumber":63,"Velocity":55,"Duration":113473,"SoundDuration":113473,"Delta":10110174},{"NoteNumber":75,"Velocity":64,"Duration":113472,"SoundDuration":113472,"Delta":10261471},{"NoteNumber":71,"Velocity":54,"Duration":113472,"SoundDuration":113472,"Delta":10261471},{"NoteNumber":63,"Velocity":54,"Duration":113472,"SoundDuration":113472,"Delta":10261471},{"NoteNumber":56,"Velocity":85,"Duration":447127,"SoundDuration":447127,"Delta":10412768},{"NoteNumber":44,"Velocity":72,"Duration":447127,"SoundDuration":447127,"Delta":10412768},{"NoteNumber":63,"Velocity":58,"Duration":111781,"SoundDuration":111781,"Delta":10561811},{"NoteNumber":72,"Velocity":58,"Duration":111781,"SoundDuration":111781,"Delta":10561811},{"NoteNumber":75,"Velocity":69,"Duration":111781,"SoundDuration":111781,"Delta":10561811},{"NoteNumber":63,"Velocity":57,"Duration":111781,"SoundDuration":111781,"Delta":10710853},{"NoteNumber":72,"Velocity":57,"Duration":111781,"SoundDuration":111781,"Delta":10710853},{"NoteNumber":75,"Velocity":68,"Duration":111781,"SoundDuration":111781,"Delta":10710853},{"NoteNumber":45,"Velocity":73,"Duration":485979,"SoundDuration":485979,"Delta":10859895},{"NoteNumber":57,"Velocity":88,"Duration":485979,"SoundDuration":485979,"Delta":10859895},{"NoteNumber":65,"Velocity":64,"Duration":121271,"SoundDuration":121271,"Delta":11013517},{"NoteNumber":72,"Velocity":64,"Duration":121271,"SoundDuration":121271,"Delta":11013517},{"NoteNumber":75,"Velocity":77,"Duration":121271,"SoundDuration":121271,"Delta":11013517},{"NoteNumber":77,"Velocity":77,"Duration":121271,"SoundDuration":121271,"Delta":11013517},{"NoteNumber":65,"Velocity":64,"Duration":127997,"SoundDuration":127997,"Delta":11175212},{"NoteNumber":72,"Velocity":64,"Duration":127997,"SoundDuration":127997,"Delta":11175212},{"NoteNumber":75,"Velocity":77,"Duration":127997,"SoundDuration":127997,"Delta":11175212},{"NoteNumber":77,"Velocity":77,"Duration":127997,"SoundDuration":127997,"Delta":11175212},{"NoteNumber":58,"Velocity":93,"Duration":535883,"SoundDuration":535883,"Delta":11345875},{"NoteNumber":46,"Velocity":78,"Duration":535883,"SoundDuration":535883,"Delta":11345875},{"NoteNumber":79,"Velocity":78,"Duration":129656,"SoundDuration":129656,"Delta":11536007},{"NoteNumber":75,"Velocity":78,"Duration":129656,"SoundDuration":129656,"Delta":11536007},{"NoteNumber":70,"Velocity":66,"Duration":129656,"SoundDuration":129656,"Delta":11536007},{"NoteNumber":67,"Velocity":66,"Duration":129656,"SoundDuration":129656,"Delta":11536007},{"NoteNumber":79,"Velocity":78,"Duration":129656,"SoundDuration":129656,"Delta":11708882},{"NoteNumber":75,"Velocity":78,"Duration":129656,"SoundDuration":129656,"Delta":11708882},{"NoteNumber":70,"Velocity":66,"Duration":129656,"SoundDuration":129656,"Delta":11708882},{"NoteNumber":67,"Velocity":66,"Duration":129656,"SoundDuration":129656,"Delta":11708882},{"NoteNumber":34,"Velocity":53,"Duration":483866,"SoundDuration":483866,"Delta":11881758},{"NoteNumber":46,"Velocity":63,"Duration":483866,"SoundDuration":483866,"Delta":11881758},{"NoteNumber":75,"Velocity":50,"Duration":119818,"SoundDuration":119818,"Delta":12046110},{"NoteNumber":70,"Velocity":42,"Duration":119818,"SoundDuration":119818,"Delta":12046110},{"NoteNumber":67,"Velocity":42,"Duration":119818,"SoundDuration":119818,"Delta":12046110},{"NoteNumber":75,"Velocity":49,"Duration":119818,"SoundDuration":119818,"Delta":12205867},{"NoteNumber":70,"Velocity":41,"Duration":119818,"SoundDuration":119818,"Delta":12205867},{"NoteNumber":67,"Velocity":41,"Duration":119818,"SoundDuration":119818,"Delta":12205867},{"NoteNumber":43,"Velocity":56,"Duration":460865,"SoundDuration":460865,"Delta":12365625},{"NoteNumber":55,"Velocity":67,"Duration":460865,"SoundDuration":460865,"Delta":12365625},{"NoteNumber":70,"Velocity":49,"Duration":115216,"SoundDuration":115216,"Delta":12519246},{"NoteNumber":63,"Velocity":40,"Duration":115216,"SoundDuration":115216,"Delta":12519246},{"NoteNumber":70,"Velocity":47,"Duration":115216,"SoundDuration":115216,"Delta":12672868},{"NoteNumber":63,"Velocity":39,"Duration":115216,"SoundDuration":115216,"Delta":12672868},{"NoteNumber":41,"Velocity":37,"Duration":484727,"SoundDuration":484727,"Delta":12826490},{"NoteNumber":53,"Velocity":45,"Duration":484727,"SoundDuration":484727,"Delta":12826490},{"NoteNumber":62,"Velocity":32,"Duration":121271,"SoundDuration":121271,"Delta":12983119},{"NoteNumber":68,"Velocity":32,"Duration":121271,"SoundDuration":121271,"Delta":12983119},{"NoteNumber":70,"Velocity":38,"Duration":121271,"SoundDuration":121271,"Delta":12983119},{"NoteNumber":70,"Velocity":37,"Duration":124802,"SoundDuration":124802,"Delta":13144814},{"NoteNumber":68,"Velocity":31,"Duration":124802,"SoundDuration":124802,"Delta":13144814},{"NoteNumber":62,"Velocity":31,"Duration":124802,"SoundDuration":124802,"Delta":13144814},{"NoteNumber":41,"Velocity":41,"Duration":1003287,"SoundDuration":1003287,"Delta":13311217},{"NoteNumber":53,"Velocity":49,"Duration":1003287,"SoundDuration":1003287,"Delta":13311217},{"NoteNumber":70,"Velocity":35,"Duration":116559,"SoundDuration":116559,"Delta":13466629},{"NoteNumber":68,"Velocity":29,"Duration":116559,"SoundDuration":116559,"Delta":13466629},{"NoteNumber":62,"Velocity":29,"Duration":116559,"SoundDuration":116559,"Delta":13466629},{"NoteNumber":70,"Velocity":35,"Duration":123772,"SoundDuration":123772,"Delta":13622042},{"NoteNumber":68,"Velocity":29,"Duration":123772,"SoundDuration":123772,"Delta":13622042},{"NoteNumber":62,"Velocity":29,"Duration":123772,"SoundDuration":123772,"Delta":13622042},{"NoteNumber":62,"Velocity":32,"Duration":119341,"SoundDuration":119341,"Delta":13787072},{"NoteNumber":68,"Velocity":32,"Duration":119341,"SoundDuration":119341,"Delta":13787072},{"NoteNumber":71,"Velocity":38,"Duration":119341,"SoundDuration":119341,"Delta":13787072},{"NoteNumber":70,"Velocity":35,"Duration":127997,"SoundDuration":127997,"Delta":13946193},{"NoteNumber":68,"Velocity":29,"Duration":127997,"SoundDuration":127997,"Delta":13946193},{"NoteNumber":62,"Velocity":29,"Duration":127997,"SoundDuration":127997,"Delta":13946193},{"NoteNumber":70,"Velocity":35,"Duration":148236,"SoundDuration":148236,"Delta":14116856},{"NoteNumber":68,"Velocity":29,"Duration":148236,"SoundDuration":148236,"Delta":14116856},{"NoteNumber":62,"Velocity":29,"Duration":148236,"SoundDuration":148236,"Delta":14116856},{"NoteNumber":75,"Velocity":39,"Duration":540103,"SoundDuration":540103,"Delta":14314504},{"NoteNumber":67,"Velocity":33,"Duration":540103,"SoundDuration":540103,"Delta":14314504},{"NoteNumber":63,"Velocity":33,"Duration":540103,"SoundDuration":540103,"Delta":14314504},{"NoteNumber":39,"Velocity":31,"Duration":540103,"SoundDuration":540103,"Delta":14314504},{"NoteNumber":51,"Velocity":37,"Duration":540103,"SoundDuration":540103,"Delta":14314504},{"NoteNumber":46,"Velocity":39,"Duration":452182,"SoundDuration":452182,"Delta":14854607},{"NoteNumber":51,"Velocity":48,"Duration":445467,"SoundDuration":445467,"Delta":15306789},{"NoteNumber":63,"Velocity":32,"Duration":111366,"SoundDuration":111366,"Delta":15455278},{"NoteNumber":67,"Velocity":38,"Duration":111366,"SoundDuration":111366,"Delta":15455278},{"NoteNumber":63,"Velocity":32,"Duration":111366,"SoundDuration":111366,"Delta":15603767},{"NoteNumber":67,"Velocity":38,"Duration":111366,"SoundDuration":111366,"Delta":15603767},{"NoteNumber":55,"Velocity":51,"Duration":443819,"SoundDuration":443819,"Delta":15752256},{"NoteNumber":67,"Velocity":43,"Duration":110955,"SoundDuration":110955,"Delta":15900196},{"NoteNumber":63,"Velocity":36,"Duration":110955,"SoundDuration":110955,"Delta":15900196},{"NoteNumber":67,"Velocity":44,"Duration":110955,"SoundDuration":110955,"Delta":16048136},{"NoteNumber":63,"Velocity":36,"Duration":110955,"SoundDuration":110955,"Delta":16048136},{"NoteNumber":58,"Velocity":56,"Duration":442184,"SoundDuration":442184,"Delta":16196076},{"NoteNumber":63,"Velocity":41,"Duration":110545,"SoundDuration":110545,"Delta":16343471},{"NoteNumber":67,"Velocity":49,"Duration":110545,"SoundDuration":110545,"Delta":16343471},{"NoteNumber":63,"Velocity":42,"Duration":110545,"SoundDuration":110545,"Delta":16490866},{"NoteNumber":67,"Velocity":49,"Duration":110545,"SoundDuration":110545,"Delta":16490866},{"NoteNumber":59,"Velocity":66,"Duration":457352,"SoundDuration":457352,"Delta":16638260},{"NoteNumber":63,"Velocity":44,"Duration":114338,"SoundDuration":114338,"Delta":16790711},{"NoteNumber":67,"Velocity":53,"Duration":114338,"SoundDuration":114338,"Delta":16790711},{"NoteNumber":63,"Velocity":44,"Duration":114338,"SoundDuration":114338,"Delta":16943162},{"NoteNumber":67,"Velocity":53,"Duration":114338,"SoundDuration":114338,"Delta":16943162},{"NoteNumber":60,"Velocity":73,"Duration":442184,"SoundDuration":442184,"Delta":17095612},{"NoteNumber":63,"Velocity":44,"Duration":110545,"SoundDuration":110545,"Delta":17243007},{"NoteNumber":67,"Velocity":53,"Duration":110545,"SoundDuration":110545,"Delta":17243007},{"NoteNumber":63,"Velocity":43,"Duration":110545,"SoundDuration":110545,"Delta":17390402},{"NoteNumber":67,"Velocity":52,"Duration":110545,"SoundDuration":110545,"Delta":17390402},{"NoteNumber":57,"Velocity":50,"Duration":442183,"SoundDuration":442183,"Delta":17537796},{"NoteNumber":63,"Velocity":39,"Duration":110545,"SoundDuration":110545,"Delta":17685191},{"NoteNumber":67,"Velocity":46,"Duration":110545,"SoundDuration":110545,"Delta":17685191},{"NoteNumber":63,"Velocity":38,"Duration":110545,"SoundDuration":110545,"Delta":17832586},{"NoteNumber":67,"Velocity":46,"Duration":110545,"SoundDuration":110545,"Delta":17832586},{"NoteNumber":58,"Velocity":55,"Duration":442184,"SoundDuration":442184,"Delta":17979980},{"NoteNumber":67,"Velocity":47,"Duration":110546,"SoundDuration":110546,"Delta":18127375},{"NoteNumber":63,"Velocity":40,"Duration":110546,"SoundDuration":110546,"Delta":18127375},{"NoteNumber":67,"Velocity":46,"Duration":110545,"SoundDuration":110545,"Delta":18274770},{"NoteNumber":63,"Velocity":39,"Duration":110545,"SoundDuration":110545,"Delta":18274770},{"NoteNumber":51,"Velocity":47,"Duration":452182,"SoundDuration":452182,"Delta":18422164},{"NoteNumber":67,"Velocity":41,"Duration":113045,"SoundDuration":113045,"Delta":18572892},{"NoteNumber":63,"Velocity":34,"Duration":113045,"SoundDuration":113045,"Delta":18572892},{"NoteNumber":67,"Velocity":41,"Duration":113045,"SoundDuration":113045,"Delta":18723619},{"NoteNumber":63,"Velocity":34,"Duration":113045,"SoundDuration":113045,"Delta":18723619},{"NoteNumber":50,"Velocity":46,"Duration":889310,"SoundDuration":889310,"Delta":18874346},{"NoteNumber":70,"Velocity":44,"Duration":111781,"SoundDuration":111781,"Delta":19023389},{"NoteNumber":65,"Velocity":37,"Duration":111781,"SoundDuration":111781,"Delta":19023389},{"NoteNumber":70,"Velocity":45,"Duration":111781,"SoundDuration":111781,"Delta":19172431},{"NoteNumber":65,"Velocity":38,"Duration":111781,"SoundDuration":111781,"Delta":19172431},{"NoteNumber":58,"Velocity":56,"Duration":442184,"SoundDuration":442184,"Delta":19321473},{"NoteNumber":68,"Velocity":51,"Duration":110545,"SoundDuration":110545,"Delta":19468868},{"NoteNumber":65,"Velocity":44,"Duration":110545,"SoundDuration":110545,"Delta":19468868},{"NoteNumber":68,"Velocity":53,"Duration":110545,"SoundDuration":110545,"Delta":19616263},{"NoteNumber":65,"Velocity":45,"Duration":110545,"SoundDuration":110545,"Delta":19616263},{"NoteNumber":51,"Velocity":54,"Duration":960265,"SoundDuration":960265,"Delta":19708384},{"NoteNumber":59,"Velocity":68,"Duration":440560,"SoundDuration":440560,"Delta":19763657},{"NoteNumber":65,"Velocity":49,"Duration":110140,"SoundDuration":110140,"Delta":19910511},{"NoteNumber":68,"Velocity":59,"Duration":110140,"SoundDuration":110140,"Delta":19910511},{"NoteNumber":65,"Velocity":49,"Duration":110140,"SoundDuration":110140,"Delta":20057365},{"NoteNumber":68,"Velocity":59,"Duration":110140,"SoundDuration":110140,"Delta":20057365},{"NoteNumber":58,"Velocity":58,"Duration":401540,"SoundDuration":401540,"Delta":20204218},{"NoteNumber":63,"Velocity":42,"Duration":116108,"SoundDuration":116108,"Delta":20359029},{"NoteNumber":67,"Velocity":51,"Duration":116108,"SoundDuration":116108,"Delta":20359029},{"NoteNumber":63,"Velocity":42,"Duration":116108,"SoundDuration":116108,"Delta":20513840},{"NoteNumber":67,"Velocity":50,"Duration":116108,"SoundDuration":116108,"Delta":20513840},{"NoteNumber":46,"Velocity":54,"Duration":58053,"SoundDuration":58053,"Delta":20610596},{"NoteNumber":58,"Velocity":69,"Duration":443819,"SoundDuration":443819,"Delta":20668650},{"NoteNumber":63,"Velocity":44,"Duration":110955,"SoundDuration":110955,"Delta":20816590},{"NoteNumber":67,"Velocity":53,"Duration":110955,"SoundDuration":110955,"Delta":20816590},{"NoteNumber":63,"Velocity":43,"Duration":110955,"SoundDuration":110955,"Delta":20964530},{"NoteNumber":67,"Velocity":52,"Duration":110955,"SoundDuration":110955,"Delta":20964530},{"NoteNumber":57,"Velocity":55,"Duration":447127,"SoundDuration":447127,"Delta":21112470},{"NoteNumber":72,"Velocity":44,"Duration":111781,"SoundDuration":111781,"Delta":21261513},{"NoteNumber":66,"Velocity":37,"Duration":111781,"SoundDuration":111781,"Delta":21261513},{"NoteNumber":63,"Velocity":37,"Duration":111781,"SoundDuration":111781,"Delta":21261513},{"NoteNumber":72,"Velocity":44,"Duration":111781,"SoundDuration":111781,"Delta":21410555},{"NoteNumber":66,"Velocity":36,"Duration":111781,"SoundDuration":111781,"Delta":21410555},{"NoteNumber":63,"Velocity":36,"Duration":111781,"SoundDuration":111781,"Delta":21410555},{"NoteNumber":56,"Velocity":51,"Duration":455615,"SoundDuration":455615,"Delta":21559597},{"NoteNumber":65,"Velocity":40,"Duration":113903,"SoundDuration":113903,"Delta":21711469},{"NoteNumber":62,"Velocity":33,"Duration":113903,"SoundDuration":113903,"Delta":21711469},{"NoteNumber":65,"Velocity":39,"Duration":113903,"SoundDuration":113903,"Delta":21863341},{"NoteNumber":62,"Velocity":33,"Duration":113903,"SoundDuration":113903,"Delta":21863341},{"NoteNumber":53,"Velocity":44,"Duration":533628,"SoundDuration":533628,"Delta":22015212},{"NoteNumber":41,"Velocity":37,"Duration":533628,"SoundDuration":533628,"Delta":22015212},{"NoteNumber":70,"Velocity":37,"Duration":132054,"SoundDuration":132054,"Delta":22179700},{"NoteNumber":68,"Velocity":31,"Duration":132054,"SoundDuration":132054,"Delta":22179700},{"NoteNumber":62,"Velocity":31,"Duration":132054,"SoundDuration":132054,"Delta":22179700},{"NoteNumber":70,"Velocity":37,"Duration":144801,"SoundDuration":144801,"Delta":22355772},{"NoteNumber":68,"Velocity":31,"Duration":144801,"SoundDuration":144801,"Delta":22355772},{"NoteNumber":62,"Velocity":31,"Duration":144801,"SoundDuration":144801,"Delta":22355772},{"NoteNumber":51,"Velocity":53,"Duration":464791,"SoundDuration":464791,"Delta":22548840},{"NoteNumber":39,"Velocity":45,"Duration":464791,"SoundDuration":464791,"Delta":22548840},{"NoteNumber":75,"Velocity":43,"Duration":116198,"SoundDuration":116198,"Delta":22703771},{"NoteNumber":67,"Velocity":36,"Duration":116198,"SoundDuration":116198,"Delta":22703771},{"NoteNumber":63,"Velocity":36,"Duration":116198,"SoundDuration":116198,"Delta":22703771},{"NoteNumber":75,"Velocity":43,"Duration":116198,"SoundDuration":116198,"Delta":22858702},{"NoteNumber":67,"Velocity":36,"Duration":116198,"SoundDuration":116198,"Delta":22858702},{"NoteNumber":63,"Velocity":36,"Duration":116198,"SoundDuration":116198,"Delta":22858702},{"NoteNumber":55,"Velocity":58,"Duration":455961,"SoundDuration":455961,"Delta":23013632},{"NoteNumber":43,"Velocity":49,"Duration":455961,"SoundDuration":455961,"Delta":23013632},{"NoteNumber":63,"Velocity":42,"Duration":113990,"SoundDuration":113990,"Delta":23165620},{"NoteNumber":67,"Velocity":42,"Duration":113990,"SoundDuration":113990,"Delta":23165620},{"NoteNumber":75,"Velocity":50,"Duration":113990,"SoundDuration":113990,"Delta":23165620},{"NoteNumber":63,"Velocity":42,"Duration":113990,"SoundDuration":113990,"Delta":23317607},{"NoteNumber":67,"Velocity":42,"Duration":113990,"SoundDuration":113990,"Delta":23317607},{"NoteNumber":75,"Velocity":51,"Duration":113990,"SoundDuration":113990,"Delta":23317607},{"NoteNumber":58,"Velocity":63,"Duration":448799,"SoundDuration":448799,"Delta":23469594},{"NoteNumber":46,"Velocity":53,"Duration":448799,"SoundDuration":448799,"Delta":23469594},{"NoteNumber":63,"Velocity":48,"Duration":112199,"SoundDuration":112199,"Delta":23619194},{"NoteNumber":67,"Velocity":48,"Duration":112199,"SoundDuration":112199,"Delta":23619194},{"NoteNumber":75,"Velocity":57,"Duration":112199,"SoundDuration":112199,"Delta":23619194},{"NoteNumber":63,"Velocity":49,"Duration":112199,"SoundDuration":112199,"Delta":23768794},{"NoteNumber":67,"Velocity":49,"Duration":112199,"SoundDuration":112199,"Delta":23768794},{"NoteNumber":75,"Velocity":58,"Duration":112199,"SoundDuration":112199,"Delta":23768794},{"NoteNumber":60,"Velocity":71,"Duration":462641,"SoundDuration":462641,"Delta":23918393},{"NoteNumber":48,"Velocity":59,"Duration":462641,"SoundDuration":462641,"Delta":23918393},{"NoteNumber":63,"Velocity":52,"Duration":115660,"SoundDuration":115660,"Delta":24072607},{"NoteNumber":68,"Velocity":52,"Duration":115660,"SoundDuration":115660,"Delta":24072607},{"NoteNumber":75,"Velocity":62,"Duration":115660,"SoundDuration":115660,"Delta":24072607},{"NoteNumber":75,"Velocity":63,"Duration":115660,"SoundDuration":115660,"Delta":24226821},{"NoteNumber":68,"Velocity":53,"Duration":115660,"SoundDuration":115660,"Delta":24226821},{"NoteNumber":63,"Velocity":53,"Duration":115660,"SoundDuration":115660,"Delta":24226821},{"NoteNumber":61,"Velocity":79,"Duration":448799,"SoundDuration":448799,"Delta":24381035},{"NoteNumber":49,"Velocity":67,"Duration":448799,"SoundDuration":448799,"Delta":24381035},{"NoteNumber":63,"Velocity":59,"Duration":112199,"SoundDuration":112199,"Delta":24530635},{"NoteNumber":70,"Velocity":59,"Duration":112199,"SoundDuration":112199,"Delta":24530635},{"NoteNumber":75,"Velocity":70,"Duration":112199,"SoundDuration":112199,"Delta":24530635},{"NoteNumber":63,"Velocity":59,"Duration":112199,"SoundDuration":112199,"Delta":24680235},{"NoteNumber":70,"Velocity":59,"Duration":112199,"SoundDuration":112199,"Delta":24680235},{"NoteNumber":75,"Velocity":70,"Duration":112199,"SoundDuration":112199,"Delta":24680235},{"NoteNumber":55,"Velocity":76,"Duration":454322,"SoundDuration":454322,"Delta":24829834},{"NoteNumber":43,"Velocity":63,"Duration":454322,"SoundDuration":454322,"Delta":24829834},{"NoteNumber":75,"Velocity":64,"Duration":113472,"SoundDuration":113472,"Delta":24981562},{"NoteNumber":71,"Velocity":55,"Duration":113472,"SoundDuration":113472,"Delta":24981562},{"NoteNumber":63,"Velocity":55,"Duration":113472,"SoundDuration":113472,"Delta":24981562},{"NoteNumber":75,"Velocity":64,"Duration":113473,"SoundDuration":113473,"Delta":25132860},{"NoteNumber":71,"Velocity":54,"Duration":113473,"SoundDuration":113473,"Delta":25132860},{"NoteNumber":63,"Velocity":54,"Duration":113473,"SoundDuration":113473,"Delta":25132860},{"NoteNumber":56,"Velocity":85,"Duration":447126,"SoundDuration":447126,"Delta":25284157},{"NoteNumber":44,"Velocity":72,"Duration":447126,"SoundDuration":447126,"Delta":25284157},{"NoteNumber":63,"Velocity":58,"Duration":111781,"SoundDuration":111781,"Delta":25433199},{"NoteNumber":72,"Velocity":58,"Duration":111781,"SoundDuration":111781,"Delta":25433199},{"NoteNumber":75,"Velocity":69,"Duration":111781,"SoundDuration":111781,"Delta":25433199},{"NoteNumber":63,"Velocity":57,"Duration":111781,"SoundDuration":111781,"Delta":25582242},{"NoteNumber":72,"Velocity":57,"Duration":111781,"SoundDuration":111781,"Delta":25582242},{"NoteNumber":75,"Velocity":68,"Duration":111781,"SoundDuration":111781,"Delta":25582242},{"NoteNumber":45,"Velocity":73,"Duration":485979,"SoundDuration":485979,"Delta":25731284},{"NoteNumber":57,"Velocity":88,"Duration":485979,"SoundDuration":485979,"Delta":25731284},{"NoteNumber":65,"Velocity":64,"Duration":121271,"SoundDuration":121271,"Delta":25884906},{"NoteNumber":72,"Velocity":64,"Duration":121271,"SoundDuration":121271,"Delta":25884906},{"NoteNumber":75,"Velocity":77,"Duration":121271,"SoundDuration":121271,"Delta":25884906},{"NoteNumber":77,"Velocity":77,"Duration":121271,"SoundDuration":121271,"Delta":25884906},{"NoteNumber":65,"Velocity":64,"Duration":127997,"SoundDuration":127997,"Delta":26046600},{"NoteNumber":72,"Velocity":64,"Duration":127997,"SoundDuration":127997,"Delta":26046600},{"NoteNumber":75,"Velocity":77,"Duration":127997,"SoundDuration":127997,"Delta":26046600},{"NoteNumber":77,"Velocity":77,"Duration":127997,"SoundDuration":127997,"Delta":26046600},{"NoteNumber":58,"Velocity":93,"Duration":535883,"SoundDuration":535883,"Delta":26217263},{"NoteNumber":46,"Velocity":78,"Duration":535883,"SoundDuration":535883,"Delta":26217263},{"NoteNumber":79,"Velocity":78,"Duration":129656,"SoundDuration":129656,"Delta":26407395},{"NoteNumber":75,"Velocity":78,"Duration":129656,"SoundDuration":129656,"Delta":26407395},{"NoteNumber":70,"Velocity":66,"Duration":129656,"SoundDuration":129656,"Delta":26407395},{"NoteNumber":67,"Velocity":66,"Duration":129656,"SoundDuration":129656,"Delta":26407395},{"NoteNumber":79,"Velocity":78,"Duration":129656,"SoundDuration":129656,"Delta":26580271},{"NoteNumber":75,"Velocity":78,"Duration":129656,"SoundDuration":129656,"Delta":26580271},{"NoteNumber":70,"Velocity":66,"Duration":129656,"SoundDuration":129656,"Delta":26580271},{"NoteNumber":67,"Velocity":66,"Duration":129656,"SoundDuration":129656,"Delta":26580271},{"NoteNumber":34,"Velocity":53,"Duration":483866,"SoundDuration":483866,"Delta":26753147},{"NoteNumber":46,"Velocity":63,"Duration":483866,"SoundDuration":483866,"Delta":26753147},{"NoteNumber":75,"Velocity":50,"Duration":119817,"SoundDuration":119817,"Delta":26917499},{"NoteNumber":70,"Velocity":42,"Duration":119817,"SoundDuration":119817,"Delta":26917499},{"NoteNumber":67,"Velocity":42,"Duration":119817,"SoundDuration":119817,"Delta":26917499},{"NoteNumber":75,"Velocity":49,"Duration":119817,"SoundDuration":119817,"Delta":27077256},{"NoteNumber":70,"Velocity":41,"Duration":119817,"SoundDuration":119817,"Delta":27077256},{"NoteNumber":67,"Velocity":41,"Duration":119817,"SoundDuration":119817,"Delta":27077256},{"NoteNumber":43,"Velocity":56,"Duration":460864,"SoundDuration":460864,"Delta":27237013},{"NoteNumber":55,"Velocity":67,"Duration":460864,"SoundDuration":460864,"Delta":27237013},{"NoteNumber":70,"Velocity":49,"Duration":115216,"SoundDuration":115216,"Delta":27390635},{"NoteNumber":63,"Velocity":40,"Duration":115216,"SoundDuration":115216,"Delta":27390635},{"NoteNumber":70,"Velocity":47,"Duration":115216,"SoundDuration":115216,"Delta":27544257},{"NoteNumber":63,"Velocity":39,"Duration":115216,"SoundDuration":115216,"Delta":27544257},{"NoteNumber":41,"Velocity":37,"Duration":484727,"SoundDuration":484727,"Delta":27697878},{"NoteNumber":53,"Velocity":45,"Duration":484727,"SoundDuration":484727,"Delta":27697878},{"NoteNumber":62,"Velocity":32,"Duration":121271,"SoundDuration":121271,"Delta":27854508},{"NoteNumber":68,"Velocity":32,"Duration":121271,"SoundDuration":121271,"Delta":27854508},{"NoteNumber":70,"Velocity":38,"Duration":121271,"SoundDuration":121271,"Delta":27854508},{"NoteNumber":70,"Velocity":37,"Duration":124802,"SoundDuration":124802,"Delta":28016202},{"NoteNumber":68,"Velocity":31,"Duration":124802,"SoundDuration":124802,"Delta":28016202},{"NoteNumber":62,"Velocity":31,"Duration":124802,"SoundDuration":124802,"Delta":28016202},{"NoteNumber":41,"Velocity":41,"Duration":1003287,"SoundDuration":1003287,"Delta":28182606},{"NoteNumber":53,"Velocity":49,"Duration":1003287,"SoundDuration":1003287,"Delta":28182606},{"NoteNumber":70,"Velocity":35,"Duration":116559,"SoundDuration":116559,"Delta":28338018},{"NoteNumber":68,"Velocity":29,"Duration":116559,"SoundDuration":116559,"Delta":28338018},{"NoteNumber":62,"Velocity":29,"Duration":116559,"SoundDuration":116559,"Delta":28338018},{"NoteNumber":70,"Velocity":35,"Duration":123772,"SoundDuration":123772,"Delta":28493430},{"NoteNumber":68,"Velocity":29,"Duration":123772,"SoundDuration":123772,"Delta":28493430},{"NoteNumber":62,"Velocity":29,"Duration":123772,"SoundDuration":123772,"Delta":28493430},{"NoteNumber":62,"Velocity":32,"Duration":119341,"SoundDuration":119341,"Delta":28658460},{"NoteNumber":68,"Velocity":32,"Duration":119341,"SoundDuration":119341,"Delta":28658460},{"NoteNumber":71,"Velocity":38,"Duration":119341,"SoundDuration":119341,"Delta":28658460},{"NoteNumber":70,"Velocity":35,"Duration":127997,"SoundDuration":127997,"Delta":28817582},{"NoteNumber":68,"Velocity":29,"Duration":127997,"SoundDuration":127997,"Delta":28817582},{"NoteNumber":62,"Velocity":29,"Duration":127997,"SoundDuration":127997,"Delta":28817582},{"NoteNumber":70,"Velocity":35,"Duration":148236,"SoundDuration":148236,"Delta":28988245},{"NoteNumber":68,"Velocity":29,"Duration":148236,"SoundDuration":148236,"Delta":28988245},{"NoteNumber":62,"Velocity":29,"Duration":148236,"SoundDuration":148236,"Delta":28988245},{"NoteNumber":75,"Velocity":39,"Duration":560275,"SoundDuration":560275,"Delta":29185893},{"NoteNumber":67,"Velocity":33,"Duration":560275,"SoundDuration":560275,"Delta":29185893},{"NoteNumber":63,"Velocity":33,"Duration":560275,"SoundDuration":560275,"Delta":29185893},{"NoteNumber":39,"Velocity":31,"Duration":560275,"SoundDuration":560275,"Delta":29185893},{"NoteNumber":51,"Velocity":37,"Duration":560275,"SoundDuration":560275,"Delta":29185893},{"NoteNumber":50,"Velocity":55,"Duration":466598,"SoundDuration":466598,"Delta":29746169},{"NoteNumber":38,"Velocity":46,"Duration":466598,"SoundDuration":466598,"Delta":29746169},{"NoteNumber":65,"Velocity":39,"Duration":116649,"SoundDuration":116649,"Delta":29901702},{"NoteNumber":67,"Velocity":46,"Duration":116649,"SoundDuration":116649,"Delta":29901702},{"NoteNumber":67,"Velocity":41,"Duration":116649,"SoundDuration":116649,"Delta":30057235},{"NoteNumber":65,"Velocity":28,"Duration":116649,"SoundDuration":116649,"Delta":30057235},{"NoteNumber":48,"Velocity":53,"Duration":457700,"SoundDuration":457700,"Delta":30212768},{"NoteNumber":36,"Velocity":45,"Duration":457700,"SoundDuration":457700,"Delta":30212768},{"NoteNumber":63,"Velocity":43,"Duration":114425,"SoundDuration":114425,"Delta":30365335},{"NoteNumber":72,"Velocity":51,"Duration":114425,"SoundDuration":114425,"Delta":30365335},{"NoteNumber":63,"Velocity":32,"Duration":114425,"SoundDuration":114425,"Delta":30517902},{"NoteNumber":72,"Velocity":45,"Duration":114425,"SoundDuration":114425,"Delta":30517902},{"NoteNumber":60,"Velocity":68,"Duration":449134,"SoundDuration":449134,"Delta":30670469},{"NoteNumber":48,"Velocity":57,"Duration":449134,"SoundDuration":449134,"Delta":30670469},{"NoteNumber":63,"Velocity":48,"Duration":112283,"SoundDuration":112283,"Delta":30820181},{"NoteNumber":72,"Velocity":57,"Duration":112283,"SoundDuration":112283,"Delta":30820181},{"NoteNumber":63,"Velocity":49,"Duration":112283,"SoundDuration":112283,"Delta":30969892},{"NoteNumber":72,"Velocity":58,"Duration":112283,"SoundDuration":112283,"Delta":30969892},{"NoteNumber":56,"Velocity":59,"Duration":442511,"SoundDuration":442511,"Delta":31119604},{"NoteNumber":44,"Velocity":50,"Duration":442511,"SoundDuration":442511,"Delta":31119604},{"NoteNumber":72,"Velocity":56,"Duration":110627,"SoundDuration":110627,"Delta":31267108},{"NoteNumber":63,"Velocity":47,"Duration":110627,"SoundDuration":110627,"Delta":31267108},{"NoteNumber":72,"Velocity":56,"Duration":110627,"SoundDuration":110627,"Delta":31414611},{"NoteNumber":63,"Velocity":47,"Duration":110627,"SoundDuration":110627,"Delta":31414611},{"NoteNumber":51,"Velocity":55,"Duration":452182,"SoundDuration":452182,"Delta":31562115},{"NoteNumber":39,"Velocity":46,"Duration":452182,"SoundDuration":452182,"Delta":31562115},{"NoteNumber":60,"Velocity":39,"Duration":113045,"SoundDuration":113045,"Delta":31712842},{"NoteNumber":67,"Velocity":39,"Duration":113045,"SoundDuration":113045,"Delta":31712842},{"NoteNumber":72,"Velocity":46,"Duration":113045,"SoundDuration":113045,"Delta":31712842},{"NoteNumber":67,"Velocity":35,"Duration":113045,"SoundDuration":113045,"Delta":31863570},{"NoteNumber":72,"Velocity":42,"Duration":113045,"SoundDuration":113045,"Delta":31863570},{"NoteNumber":60,"Velocity":35,"Duration":113045,"SoundDuration":113045,"Delta":31863570},{"NoteNumber":41,"Velocity":60,"Duration":447127,"SoundDuration":447127,"Delta":32014297},{"NoteNumber":53,"Velocity":67,"Duration":447127,"SoundDuration":447127,"Delta":32014297},{"NoteNumber":70,"Velocity":59,"Duration":111781,"SoundDuration":111781,"Delta":32163339},{"NoteNumber":67,"Velocity":50,"Duration":111781,"SoundDuration":111781,"Delta":32163339},{"NoteNumber":60,"Velocity":50,"Duration":111781,"SoundDuration":111781,"Delta":32163339},{"NoteNumber":60,"Velocity":50,"Duration":111781,"SoundDuration":111781,"Delta":32312382},{"NoteNumber":67,"Velocity":50,"Duration":111781,"SoundDuration":111781,"Delta":32312382},{"NoteNumber":70,"Velocity":59,"Duration":111781,"SoundDuration":111781,"Delta":32312382},{"NoteNumber":38,"Velocity":49,"Duration":442183,"SoundDuration":442183,"Delta":32461424},{"NoteNumber":50,"Velocity":58,"Duration":442183,"SoundDuration":442183,"Delta":32461424},{"NoteNumber":68,"Velocity":52,"Duration":110546,"SoundDuration":110546,"Delta":32608819},{"NoteNumber":65,"Velocity":44,"Duration":110546,"SoundDuration":110546,"Delta":32608819},{"NoteNumber":60,"Velocity":44,"Duration":110546,"SoundDuration":110546,"Delta":32608819},{"NoteNumber":68,"Velocity":52,"Duration":110545,"SoundDuration":110545,"Delta":32756213},{"NoteNumber":65,"Velocity":44,"Duration":110545,"SoundDuration":110545,"Delta":32756213},{"NoteNumber":60,"Velocity":44,"Duration":110545,"SoundDuration":110545,"Delta":32756213},{"NoteNumber":43,"Velocity":57,"Duration":440561,"SoundDuration":440561,"Delta":32903608},{"NoteNumber":55,"Velocity":68,"Duration":440561,"SoundDuration":440561,"Delta":32903608},{"NoteNumber":59,"Velocity":47,"Duration":110140,"SoundDuration":110140,"Delta":33050462},{"NoteNumber":67,"Velocity":56,"Duration":110140,"SoundDuration":110140,"Delta":33050462},{"NoteNumber":65,"Velocity":47,"Duration":110140,"SoundDuration":110140,"Delta":33050462},{"NoteNumber":59,"Velocity":47,"Duration":110140,"SoundDuration":110140,"Delta":33197315},{"NoteNumber":67,"Velocity":56,"Duration":110140,"SoundDuration":110140,"Delta":33197315},{"NoteNumber":65,"Velocity":47,"Duration":110140,"SoundDuration":110140,"Delta":33197315},{"NoteNumber":41,"Velocity":56,"Duration":457352,"SoundDuration":457352,"Delta":33344169},{"NoteNumber":53,"Velocity":67,"Duration":457352,"SoundDuration":457352,"Delta":33344169},{"NoteNumber":71,"Velocity":54,"Duration":114337,"SoundDuration":114337,"Delta":33496620},{"NoteNumber":67,"Velocity":45,"Duration":114337,"SoundDuration":114337,"Delta":33496620},{"NoteNumber":62,"Velocity":45,"Duration":114337,"SoundDuration":114337,"Delta":33496620},{"NoteNumber":67,"Velocity":45,"Duration":114337,"SoundDuration":114337,"Delta":33649070},{"NoteNumber":71,"Velocity":54,"Duration":114337,"SoundDuration":114337,"Delta":33649070},{"NoteNumber":62,"Velocity":45,"Duration":114337,"SoundDuration":114337,"Delta":33649070},{"NoteNumber":39,"Velocity":59,"Duration":447127,"SoundDuration":447127,"Delta":33801521},{"NoteNumber":51,"Velocity":71,"Duration":447127,"SoundDuration":447127,"Delta":33801521},{"NoteNumber":60,"Velocity":49,"Duration":111781,"SoundDuration":111781,"Delta":33950563},{"NoteNumber":67,"Velocity":49,"Duration":111781,"SoundDuration":111781,"Delta":33950563},{"NoteNumber":72,"Velocity":58,"Duration":111781,"SoundDuration":111781,"Delta":33950563},{"NoteNumber":72,"Velocity":55,"Duration":111781,"SoundDuration":111781,"Delta":34099606},{"NoteNumber":67,"Velocity":46,"Duration":111781,"SoundDuration":111781,"Delta":34099606},{"NoteNumber":60,"Velocity":46,"Duration":111781,"SoundDuration":111781,"Delta":34099606},{"NoteNumber":47,"Velocity":78,"Duration":452182,"SoundDuration":452182,"Delta":34248648},{"NoteNumber":35,"Velocity":66,"Duration":452182,"SoundDuration":452182,"Delta":34248648},{"NoteNumber":65,"Velocity":56,"Duration":113045,"SoundDuration":113045,"Delta":34399375},{"NoteNumber":67,"Velocity":56,"Duration":113045,"SoundDuration":113045,"Delta":34399375},{"NoteNumber":74,"Velocity":66,"Duration":113045,"SoundDuration":113045,"Delta":34399375},{"NoteNumber":65,"Velocity":57,"Duration":113045,"SoundDuration":113045,"Delta":34550103},{"NoteNumber":67,"Velocity":57,"Duration":113045,"SoundDuration":113045,"Delta":34550103},{"NoteNumber":74,"Velocity":68,"Duration":113045,"SoundDuration":113045,"Delta":34550103},{"NoteNumber":36,"Velocity":72,"Duration":459102,"SoundDuration":459102,"Delta":34700830},{"NoteNumber":48,"Velocity":85,"Duration":459102,"SoundDuration":459102,"Delta":34700830},{"NoteNumber":67,"Velocity":62,"Duration":114775,"SoundDuration":114775,"Delta":34853864},{"NoteNumber":75,"Velocity":74,"Duration":114775,"SoundDuration":114775,"Delta":34853864},{"NoteNumber":63,"Velocity":62,"Duration":114775,"SoundDuration":114775,"Delta":34853864},{"NoteNumber":67,"Velocity":62,"Duration":114775,"SoundDuration":114775,"Delta":35006898},{"NoteNumber":75,"Velocity":75,"Duration":114775,"SoundDuration":114775,"Delta":35006898},{"NoteNumber":63,"Velocity":62,"Duration":114775,"SoundDuration":114775,"Delta":35006898},{"NoteNumber":34,"Velocity":81,"Duration":507682,"SoundDuration":507682,"Delta":35159932},{"NoteNumber":46,"Velocity":97,"Duration":507682,"SoundDuration":507682,"Delta":35159932},{"NoteNumber":79,"Velocity":82,"Duration":126379,"SoundDuration":126379,"Delta":35318423},{"NoteNumber":72,"Velocity":69,"Duration":126379,"SoundDuration":126379,"Delta":35318423},{"NoteNumber":67,"Velocity":69,"Duration":126379,"SoundDuration":126379,"Delta":35318423},{"NoteNumber":79,"Velocity":82,"Duration":135513,"SoundDuration":135513,"Delta":35486929},{"NoteNumber":72,"Velocity":69,"Duration":135513,"SoundDuration":135513,"Delta":35486929},{"NoteNumber":67,"Velocity":69,"Duration":135513,"SoundDuration":135513,"Delta":35486929},{"NoteNumber":44,"Velocity":96,"Duration":571514,"SoundDuration":571514,"Delta":35667614},{"NoteNumber":32,"Velocity":85,"Duration":571514,"SoundDuration":571514,"Delta":35667614},{"NoteNumber":84,"Velocity":85,"Duration":135636,"SoundDuration":135636,"Delta":35879053},{"NoteNumber":79,"Velocity":85,"Duration":135636,"SoundDuration":135636,"Delta":35879053},{"NoteNumber":72,"Velocity":72,"Duration":135636,"SoundDuration":135636,"Delta":35879053},{"NoteNumber":84,"Velocity":85,"Duration":134420,"SoundDuration":134420,"Delta":36059901},{"NoteNumber":79,"Velocity":85,"Duration":134420,"SoundDuration":134420,"Delta":36059901},{"NoteNumber":72,"Velocity":72,"Duration":134420,"SoundDuration":134420,"Delta":36059901},{"NoteNumber":44,"Velocity":53,"Duration":497297,"SoundDuration":497297,"Delta":36239129},{"NoteNumber":56,"Velocity":63,"Duration":497297,"SoundDuration":497297,"Delta":36239129},{"NoteNumber":72,"Velocity":50,"Duration":122759,"SoundDuration":122759,"Delta":36409067},{"NoteNumber":66,"Velocity":42,"Duration":122759,"SoundDuration":122759,"Delta":36409067},{"NoteNumber":62,"Velocity":42,"Duration":122759,"SoundDuration":122759,"Delta":36409067},{"NoteNumber":72,"Velocity":49,"Duration":122759,"SoundDuration":122759,"Delta":36572747},{"NoteNumber":66,"Velocity":41,"Duration":122759,"SoundDuration":122759,"Delta":36572747},{"NoteNumber":62,"Velocity":41,"Duration":122759,"SoundDuration":122759,"Delta":36572747},{"NoteNumber":43,"Velocity":56,"Duration":471735,"SoundDuration":471735,"Delta":36736426},{"NoteNumber":55,"Velocity":67,"Duration":471735,"SoundDuration":471735,"Delta":36736426},{"NoteNumber":67,"Velocity":40,"Duration":117933,"SoundDuration":117933,"Delta":36893671},{"NoteNumber":71,"Velocity":49,"Duration":117933,"SoundDuration":117933,"Delta":36893671},{"NoteNumber":62,"Velocity":40,"Duration":117933,"SoundDuration":117933,"Delta":36893671},{"NoteNumber":67,"Velocity":39,"Duration":117933,"SoundDuration":117933,"Delta":37050916},{"NoteNumber":71,"Velocity":47,"Duration":117933,"SoundDuration":117933,"Delta":37050916},{"NoteNumber":62,"Velocity":39,"Duration":117933,"SoundDuration":117933,"Delta":37050916},{"NoteNumber":41,"Velocity":31,"Duration":525109,"SoundDuration":525109,"Delta":37208161},{"NoteNumber":53,"Velocity":38,"Duration":525109,"SoundDuration":525109,"Delta":37208161},{"NoteNumber":62,"Velocity":27,"Duration":131475,"SoundDuration":131475,"Delta":37368559},{"NoteNumber":68,"Velocity":27,"Duration":131475,"SoundDuration":131475,"Delta":37368559},{"NoteNumber":70,"Velocity":32,"Duration":131475,"SoundDuration":131475,"Delta":37368559},{"NoteNumber":70,"Velocity":31,"Duration":142059,"SoundDuration":142059,"Delta":37543859},{"NoteNumber":68,"Velocity":26,"Duration":142059,"SoundDuration":142059,"Delta":37543859},{"NoteNumber":62,"Velocity":26,"Duration":142059,"SoundDuration":142059,"Delta":37543859},{"NoteNumber":51,"Velocity":45,"Duration":468420,"SoundDuration":468420,"Delta":37733271},{"NoteNumber":39,"Velocity":38,"Duration":468420,"SoundDuration":468420,"Delta":37733271},{"NoteNumber":75,"Velocity":36,"Duration":117105,"SoundDuration":117105,"Delta":37889412},{"NoteNumber":67,"Velocity":30,"Duration":117105,"SoundDuration":117105,"Delta":37889412},{"NoteNumber":63,"Velocity":30,"Duration":117105,"SoundDuration":117105,"Delta":37889412},{"NoteNumber":75,"Velocity":37,"Duration":117105,"SoundDuration":117105,"Delta":38045552},{"NoteNumber":67,"Velocity":31,"Duration":117105,"SoundDuration":117105,"Delta":38045552},{"NoteNumber":63,"Velocity":31,"Duration":117105,"SoundDuration":117105,"Delta":38045552},{"NoteNumber":55,"Velocity":51,"Duration":455615,"SoundDuration":455615,"Delta":38201692},{"NoteNumber":43,"Velocity":43,"Duration":455615,"SoundDuration":455615,"Delta":38201692},{"NoteNumber":63,"Velocity":37,"Duration":113903,"SoundDuration":113903,"Delta":38353564},{"NoteNumber":67,"Velocity":37,"Duration":113903,"SoundDuration":113903,"Delta":38353564},{"NoteNumber":75,"Velocity":45,"Duration":113903,"SoundDuration":113903,"Delta":38353564},{"NoteNumber":63,"Velocity":38,"Duration":113903,"SoundDuration":113903,"Delta":38505436},{"NoteNumber":67,"Velocity":38,"Duration":113903,"SoundDuration":113903,"Delta":38505436},{"NoteNumber":75,"Velocity":46,"Duration":113903,"SoundDuration":113903,"Delta":38505436},{"NoteNumber":58,"Velocity":57,"Duration":448799,"SoundDuration":448799,"Delta":38657307},{"NoteNumber":46,"Velocity":48,"Duration":448799,"SoundDuration":448799,"Delta":38657307},{"NoteNumber":63,"Velocity":44,"Duration":112199,"SoundDuration":112199,"Delta":38806907},{"NoteNumber":67,"Velocity":44,"Duration":112199,"SoundDuration":112199,"Delta":38806907},{"NoteNumber":75,"Velocity":53,"Duration":112199,"SoundDuration":112199,"Delta":38806907},{"NoteNumber":63,"Velocity":46,"Duration":112199,"SoundDuration":112199,"Delta":38956507},{"NoteNumber":67,"Velocity":46,"Duration":112199,"SoundDuration":112199,"Delta":38956507},{"NoteNumber":75,"Velocity":55,"Duration":112199,"SoundDuration":112199,"Delta":38956507},{"NoteNumber":60,"Velocity":68,"Duration":462642,"SoundDuration":462642,"Delta":39106106},{"NoteNumber":48,"Velocity":56,"Duration":462642,"SoundDuration":462642,"Delta":39106106},{"NoteNumber":63,"Velocity":50,"Duration":115660,"SoundDuration":115660,"Delta":39260320},{"NoteNumber":68,"Velocity":50,"Duration":115660,"SoundDuration":115660,"Delta":39260320},{"NoteNumber":75,"Velocity":60,"Duration":115660,"SoundDuration":115660,"Delta":39260320},{"NoteNumber":75,"Velocity":61,"Duration":115660,"SoundDuration":115660,"Delta":39414534},{"NoteNumber":68,"Velocity":51,"Duration":115660,"SoundDuration":115660,"Delta":39414534},{"NoteNumber":63,"Velocity":51,"Duration":115660,"SoundDuration":115660,"Delta":39414534},{"NoteNumber":61,"Velocity":79,"Duration":448799,"SoundDuration":448799,"Delta":39568748},{"NoteNumber":49,"Velocity":67,"Duration":448799,"SoundDuration":448799,"Delta":39568748},{"NoteNumber":63,"Velocity":59,"Duration":112199,"SoundDuration":112199,"Delta":39718348},{"NoteNumber":70,"Velocity":59,"Duration":112199,"SoundDuration":112199,"Delta":39718348},{"NoteNumber":75,"Velocity":70,"Duration":112199,"SoundDuration":112199,"Delta":39718348},{"NoteNumber":63,"Velocity":59,"Duration":112199,"SoundDuration":112199,"Delta":39867948},{"NoteNumber":70,"Velocity":59,"Duration":112199,"SoundDuration":112199,"Delta":39867948},{"NoteNumber":75,"Velocity":70,"Duration":112199,"SoundDuration":112199,"Delta":39867948},{"NoteNumber":55,"Velocity":76,"Duration":454322,"SoundDuration":454322,"Delta":40017547},{"NoteNumber":43,"Velocity":63,"Duration":454322,"SoundDuration":454322,"Delta":40017547},{"NoteNumber":75,"Velocity":64,"Duration":113472,"SoundDuration":113472,"Delta":40169275},{"NoteNumber":71,"Velocity":55,"Duration":113472,"SoundDuration":113472,"Delta":40169275},{"NoteNumber":63,"Velocity":55,"Duration":113472,"SoundDuration":113472,"Delta":40169275},{"NoteNumber":75,"Velocity":64,"Duration":113472,"SoundDuration":113472,"Delta":40320573},{"NoteNumber":71,"Velocity":54,"Duration":113472,"SoundDuration":113472,"Delta":40320573},{"NoteNumber":63,"Velocity":54,"Duration":113472,"SoundDuration":113472,"Delta":40320573},{"NoteNumber":56,"Velocity":85,"Duration":447127,"SoundDuration":447127,"Delta":40471870},{"NoteNumber":44,"Velocity":72,"Duration":447127,"SoundDuration":447127,"Delta":40471870},{"NoteNumber":63,"Velocity":58,"Duration":111781,"SoundDuration":111781,"Delta":40620912},{"NoteNumber":72,"Velocity":58,"Duration":111781,"SoundDuration":111781,"Delta":40620912},{"NoteNumber":75,"Velocity":69,"Duration":111781,"SoundDuration":111781,"Delta":40620912},{"NoteNumber":63,"Velocity":57,"Duration":111781,"SoundDuration":111781,"Delta":40769955},{"NoteNumber":72,"Velocity":57,"Duration":111781,"SoundDuration":111781,"Delta":40769955},{"NoteNumber":75,"Velocity":68,"Duration":111781,"SoundDuration":111781,"Delta":40769955},{"NoteNumber":45,"Velocity":73,"Duration":490616,"SoundDuration":490616,"Delta":40918997},{"NoteNumber":57,"Velocity":88,"Duration":490616,"SoundDuration":490616,"Delta":40918997},{"NoteNumber":65,"Velocity":64,"Duration":121271,"SoundDuration":121271,"Delta":41072619},{"NoteNumber":72,"Velocity":64,"Duration":121271,"SoundDuration":121271,"Delta":41072619},{"NoteNumber":75,"Velocity":77,"Duration":121271,"SoundDuration":121271,"Delta":41072619},{"NoteNumber":77,"Velocity":77,"Duration":121271,"SoundDuration":121271,"Delta":41072619},{"NoteNumber":65,"Velocity":64,"Duration":131475,"SoundDuration":131475,"Delta":41234313},{"NoteNumber":72,"Velocity":64,"Duration":131475,"SoundDuration":131475,"Delta":41234313},{"NoteNumber":75,"Velocity":77,"Duration":131475,"SoundDuration":131475,"Delta":41234313},{"NoteNumber":77,"Velocity":77,"Duration":131475,"SoundDuration":131475,"Delta":41234313},{"NoteNumber":58,"Velocity":93,"Duration":544578,"SoundDuration":544578,"Delta":41409614},{"NoteNumber":46,"Velocity":78,"Duration":544578,"SoundDuration":544578,"Delta":41409614},{"NoteNumber":79,"Velocity":78,"Duration":129656,"SoundDuration":129656,"Delta":41608441},{"NoteNumber":75,"Velocity":78,"Duration":129656,"SoundDuration":129656,"Delta":41608441},{"NoteNumber":70,"Velocity":66,"Duration":129656,"SoundDuration":129656,"Delta":41608441},{"NoteNumber":67,"Velocity":66,"Duration":129656,"SoundDuration":129656,"Delta":41608441},{"NoteNumber":79,"Velocity":78,"Duration":129656,"SoundDuration":129656,"Delta":41781316},{"NoteNumber":75,"Velocity":78,"Duration":129656,"SoundDuration":129656,"Delta":41781316},{"NoteNumber":70,"Velocity":66,"Duration":129656,"SoundDuration":129656,"Delta":41781316},{"NoteNumber":67,"Velocity":66,"Duration":129656,"SoundDuration":129656,"Delta":41781316},{"NoteNumber":34,"Velocity":53,"Duration":483866,"SoundDuration":483866,"Delta":41954192},{"NoteNumber":46,"Velocity":63,"Duration":483866,"SoundDuration":483866,"Delta":41954192},{"NoteNumber":75,"Velocity":50,"Duration":119818,"SoundDuration":119818,"Delta":42118544},{"NoteNumber":70,"Velocity":42,"Duration":119818,"SoundDuration":119818,"Delta":42118544},{"NoteNumber":67,"Velocity":42,"Duration":119818,"SoundDuration":119818,"Delta":42118544},{"NoteNumber":75,"Velocity":49,"Duration":119818,"SoundDuration":119818,"Delta":42278301},{"NoteNumber":70,"Velocity":41,"Duration":119818,"SoundDuration":119818,"Delta":42278301},{"NoteNumber":67,"Velocity":41,"Duration":119818,"SoundDuration":119818,"Delta":42278301},{"NoteNumber":43,"Velocity":56,"Duration":460864,"SoundDuration":460864,"Delta":42438059},{"NoteNumber":55,"Velocity":67,"Duration":460864,"SoundDuration":460864,"Delta":42438059},{"NoteNumber":70,"Velocity":49,"Duration":115216,"SoundDuration":115216,"Delta":42591680},{"NoteNumber":63,"Velocity":40,"Duration":115216,"SoundDuration":115216,"Delta":42591680},{"NoteNumber":70,"Velocity":47,"Duration":115216,"SoundDuration":115216,"Delta":42745302},{"NoteNumber":63,"Velocity":39,"Duration":115216,"SoundDuration":115216,"Delta":42745302},{"NoteNumber":41,"Velocity":37,"Duration":484727,"SoundDuration":484727,"Delta":42898924},{"NoteNumber":53,"Velocity":45,"Duration":484727,"SoundDuration":484727,"Delta":42898924},{"NoteNumber":62,"Velocity":32,"Duration":121271,"SoundDuration":121271,"Delta":43055553},{"NoteNumber":68,"Velocity":32,"Duration":121271,"SoundDuration":121271,"Delta":43055553},{"NoteNumber":70,"Velocity":38,"Duration":121271,"SoundDuration":121271,"Delta":43055553},{"NoteNumber":70,"Velocity":37,"Duration":124802,"SoundDuration":124802,"Delta":43217248},{"NoteNumber":68,"Velocity":31,"Duration":124802,"SoundDuration":124802,"Delta":43217248},{"NoteNumber":62,"Velocity":31,"Duration":124802,"SoundDuration":124802,"Delta":43217248},{"NoteNumber":41,"Velocity":41,"Duration":1003287,"SoundDuration":1003287,"Delta":43383651},{"NoteNumber":53,"Velocity":49,"Duration":1003287,"SoundDuration":1003287,"Delta":43383651},{"NoteNumber":70,"Velocity":35,"Duration":116559,"SoundDuration":116559,"Delta":43539063},{"NoteNumber":68,"Velocity":29,"Duration":116559,"SoundDuration":116559,"Delta":43539063},{"NoteNumber":62,"Velocity":29,"Duration":116559,"SoundDuration":116559,"Delta":43539063},{"NoteNumber":70,"Velocity":35,"Duration":123772,"SoundDuration":123772,"Delta":43694476},{"NoteNumber":68,"Velocity":29,"Duration":123772,"SoundDuration":123772,"Delta":43694476},{"NoteNumber":62,"Velocity":29,"Duration":123772,"SoundDuration":123772,"Delta":43694476},{"NoteNumber":62,"Velocity":32,"Duration":119341,"SoundDuration":119341,"Delta":43859506},{"NoteNumber":68,"Velocity":32,"Duration":119341,"SoundDuration":119341,"Delta":43859506},{"NoteNumber":71,"Velocity":38,"Duration":119341,"SoundDuration":119341,"Delta":43859506},{"NoteNumber":70,"Velocity":35,"Duration":127997,"SoundDuration":127997,"Delta":44018627},{"NoteNumber":68,"Velocity":29,"Duration":127997,"SoundDuration":127997,"Delta":44018627},{"NoteNumber":62,"Velocity":29,"Duration":127997,"SoundDuration":127997,"Delta":44018627},{"NoteNumber":70,"Velocity":35,"Duration":148235,"SoundDuration":148235,"Delta":44189290},{"NoteNumber":68,"Velocity":29,"Duration":148235,"SoundDuration":148235,"Delta":44189290},{"NoteNumber":62,"Velocity":29,"Duration":148235,"SoundDuration":148235,"Delta":44189290},{"NoteNumber":75,"Velocity":39,"Duration":493462,"SoundDuration":493462,"Delta":44386938},{"NoteNumber":67,"Velocity":33,"Duration":493462,"SoundDuration":493462,"Delta":44386938},{"NoteNumber":63,"Velocity":33,"Duration":493462,"SoundDuration":493462,"Delta":44386938},{"NoteNumber":39,"Velocity":31,"Duration":493462,"SoundDuration":493462,"Delta":44386938},{"NoteNumber":51,"Velocity":37,"Duration":493462,"SoundDuration":493462,"Delta":44386938},{"NoteNumber":50,"Velocity":55,"Duration":459453,"SoundDuration":459453,"Delta":44880400},{"NoteNumber":38,"Velocity":46,"Duration":459453,"SoundDuration":459453,"Delta":44880400},{"NoteNumber":65,"Velocity":39,"Duration":114863,"SoundDuration":114863,"Delta":45033551},{"NoteNumber":67,"Velocity":46,"Duration":114863,"SoundDuration":114863,"Delta":45033551},{"NoteNumber":67,"Velocity":41,"Duration":114863,"SoundDuration":114863,"Delta":45186702},{"NoteNumber":65,"Velocity":28,"Duration":114863,"SoundDuration":114863,"Delta":45186702},{"NoteNumber":48,"Velocity":53,"Duration":452522,"SoundDuration":452522,"Delta":45339853},{"NoteNumber":36,"Velocity":45,"Duration":452522,"SoundDuration":452522,"Delta":45339853},{"NoteNumber":63,"Velocity":43,"Duration":113130,"SoundDuration":113130,"Delta":45490694},{"NoteNumber":72,"Velocity":51,"Duration":113130,"SoundDuration":113130,"Delta":45490694},{"NoteNumber":63,"Velocity":32,"Duration":113130,"SoundDuration":113130,"Delta":45641535},{"NoteNumber":72,"Velocity":45,"Duration":113130,"SoundDuration":113130,"Delta":45641535},{"NoteNumber":60,"Velocity":68,"Duration":445798,"SoundDuration":445798,"Delta":45792376},{"NoteNumber":48,"Velocity":57,"Duration":445798,"SoundDuration":445798,"Delta":45792376},{"NoteNumber":63,"Velocity":48,"Duration":111449,"SoundDuration":111449,"Delta":45940976},{"NoteNumber":72,"Velocity":57,"Duration":111449,"SoundDuration":111449,"Delta":45940976},{"NoteNumber":63,"Velocity":49,"Duration":111449,"SoundDuration":111449,"Delta":46089575},{"NoteNumber":72,"Velocity":58,"Duration":111449,"SoundDuration":111449,"Delta":46089575},{"NoteNumber":56,"Velocity":59,"Duration":440885,"SoundDuration":440885,"Delta":46238174},{"NoteNumber":44,"Velocity":50,"Duration":440885,"SoundDuration":440885,"Delta":46238174},{"NoteNumber":72,"Velocity":56,"Duration":110221,"SoundDuration":110221,"Delta":46385136},{"NoteNumber":63,"Velocity":47,"Duration":110221,"SoundDuration":110221,"Delta":46385136},{"NoteNumber":72,"Velocity":56,"Duration":110221,"SoundDuration":110221,"Delta":46532098},{"NoteNumber":63,"Velocity":47,"Duration":110221,"SoundDuration":110221,"Delta":46532098},{"NoteNumber":51,"Velocity":55,"Duration":452182,"SoundDuration":452182,"Delta":46679059},{"NoteNumber":39,"Velocity":46,"Duration":452182,"SoundDuration":452182,"Delta":46679059},{"NoteNumber":60,"Velocity":39,"Duration":113045,"SoundDuration":113045,"Delta":46829787},{"NoteNumber":67,"Velocity":39,"Duration":113045,"SoundDuration":113045,"Delta":46829787},{"NoteNumber":72,"Velocity":46,"Duration":113045,"SoundDuration":113045,"Delta":46829787},{"NoteNumber":67,"Velocity":35,"Duration":113045,"SoundDuration":113045,"Delta":46980514},{"NoteNumber":72,"Velocity":42,"Duration":113045,"SoundDuration":113045,"Delta":46980514},{"NoteNumber":60,"Velocity":35,"Duration":113045,"SoundDuration":113045,"Delta":46980514},{"NoteNumber":41,"Velocity":60,"Duration":447127,"SoundDuration":447127,"Delta":47131241},{"NoteNumber":53,"Velocity":67,"Duration":447127,"SoundDuration":447127,"Delta":47131241},{"NoteNumber":70,"Velocity":59,"Duration":111781,"SoundDuration":111781,"Delta":47280284},{"NoteNumber":67,"Velocity":50,"Duration":111781,"SoundDuration":111781,"Delta":47280284},{"NoteNumber":60,"Velocity":50,"Duration":111781,"SoundDuration":111781,"Delta":47280284},{"NoteNumber":60,"Velocity":50,"Duration":111781,"SoundDuration":111781,"Delta":47429326},{"NoteNumber":67,"Velocity":50,"Duration":111781,"SoundDuration":111781,"Delta":47429326},{"NoteNumber":70,"Velocity":59,"Duration":111781,"SoundDuration":111781,"Delta":47429326},{"NoteNumber":38,"Velocity":49,"Duration":442183,"SoundDuration":442183,"Delta":47578368},{"NoteNumber":50,"Velocity":58,"Duration":442183,"SoundDuration":442183,"Delta":47578368},{"NoteNumber":68,"Velocity":52,"Duration":110546,"SoundDuration":110546,"Delta":47725763},{"NoteNumber":65,"Velocity":44,"Duration":110546,"SoundDuration":110546,"Delta":47725763},{"NoteNumber":60,"Velocity":44,"Duration":110546,"SoundDuration":110546,"Delta":47725763},{"NoteNumber":68,"Velocity":52,"Duration":110545,"SoundDuration":110545,"Delta":47873158},{"NoteNumber":65,"Velocity":44,"Duration":110545,"SoundDuration":110545,"Delta":47873158},{"NoteNumber":60,"Velocity":44,"Duration":110545,"SoundDuration":110545,"Delta":47873158},{"NoteNumber":43,"Velocity":57,"Duration":440561,"SoundDuration":440561,"Delta":48020552},{"NoteNumber":55,"Velocity":68,"Duration":440561,"SoundDuration":440561,"Delta":48020552},{"NoteNumber":59,"Velocity":47,"Duration":110140,"SoundDuration":110140,"Delta":48167406},{"NoteNumber":67,"Velocity":56,"Duration":110140,"SoundDuration":110140,"Delta":48167406},{"NoteNumber":65,"Velocity":47,"Duration":110140,"SoundDuration":110140,"Delta":48167406},{"NoteNumber":59,"Velocity":47,"Duration":110140,"SoundDuration":110140,"Delta":48314260},{"NoteNumber":67,"Velocity":56,"Duration":110140,"SoundDuration":110140,"Delta":48314260},{"NoteNumber":65,"Velocity":47,"Duration":110140,"SoundDuration":110140,"Delta":48314260},{"NoteNumber":41,"Velocity":56,"Duration":457352,"SoundDuration":457352,"Delta":48461113},{"NoteNumber":53,"Velocity":67,"Duration":457352,"SoundDuration":457352,"Delta":48461113},{"NoteNumber":71,"Velocity":54,"Duration":114337,"SoundDuration":114337,"Delta":48613564},{"NoteNumber":67,"Velocity":45,"Duration":114337,"SoundDuration":114337,"Delta":48613564},{"NoteNumber":62,"Velocity":45,"Duration":114337,"SoundDuration":114337,"Delta":48613564},{"NoteNumber":67,"Velocity":45,"Duration":114337,"SoundDuration":114337,"Delta":48766015},{"NoteNumber":71,"Velocity":54,"Duration":114337,"SoundDuration":114337,"Delta":48766015},{"NoteNumber":62,"Velocity":45,"Duration":114337,"SoundDuration":114337,"Delta":48766015},{"NoteNumber":39,"Velocity":59,"Duration":447127,"SoundDuration":447127,"Delta":48918465},{"NoteNumber":51,"Velocity":71,"Duration":447127,"SoundDuration":447127,"Delta":48918465},{"NoteNumber":60,"Velocity":49,"Duration":111781,"SoundDuration":111781,"Delta":49067508},{"NoteNumber":67,"Velocity":49,"Duration":111781,"SoundDuration":111781,"Delta":49067508},{"NoteNumber":72,"Velocity":58,"Duration":111781,"SoundDuration":111781,"Delta":49067508},{"NoteNumber":72,"Velocity":55,"Duration":111781,"SoundDuration":111781,"Delta":49216550},{"NoteNumber":67,"Velocity":46,"Duration":111781,"SoundDuration":111781,"Delta":49216550},{"NoteNumber":60,"Velocity":46,"Duration":111781,"SoundDuration":111781,"Delta":49216550},{"NoteNumber":47,"Velocity":78,"Duration":452182,"SoundDuration":452182,"Delta":49365592},{"NoteNumber":35,"Velocity":66,"Duration":452182,"SoundDuration":452182,"Delta":49365592},{"NoteNumber":65,"Velocity":56,"Duration":113045,"SoundDuration":113045,"Delta":49516320},{"NoteNumber":67,"Velocity":56,"Duration":113045,"SoundDuration":113045,"Delta":49516320},{"NoteNumber":74,"Velocity":66,"Duration":113045,"SoundDuration":113045,"Delta":49516320},{"NoteNumber":65,"Velocity":57,"Duration":113045,"SoundDuration":113045,"Delta":49667047},{"NoteNumber":67,"Velocity":57,"Duration":113045,"SoundDuration":113045,"Delta":49667047},{"NoteNumber":74,"Velocity":68,"Duration":113045,"SoundDuration":113045,"Delta":49667047},{"NoteNumber":36,"Velocity":72,"Duration":459102,"SoundDuration":459102,"Delta":49817774},{"NoteNumber":48,"Velocity":85,"Duration":459102,"SoundDuration":459102,"Delta":49817774},{"NoteNumber":67,"Velocity":62,"Duration":114775,"SoundDuration":114775,"Delta":49970808},{"NoteNumber":75,"Velocity":74,"Duration":114775,"SoundDuration":114775,"Delta":49970808},{"NoteNumber":63,"Velocity":62,"Duration":114775,"SoundDuration":114775,"Delta":49970808},{"NoteNumber":67,"Velocity":62,"Duration":114775,"SoundDuration":114775,"Delta":50123842},{"NoteNumber":75,"Velocity":75,"Duration":114775,"SoundDuration":114775,"Delta":50123842},{"NoteNumber":63,"Velocity":62,"Duration":114775,"SoundDuration":114775,"Delta":50123842},{"NoteNumber":34,"Velocity":81,"Duration":514950,"SoundDuration":514950,"Delta":50276876},{"NoteNumber":46,"Velocity":97,"Duration":514950,"SoundDuration":514950,"Delta":50276876},{"NoteNumber":79,"Velocity":82,"Duration":129210,"SoundDuration":129210,"Delta":50435367},{"NoteNumber":72,"Velocity":69,"Duration":129210,"SoundDuration":129210,"Delta":50435367},{"NoteNumber":67,"Velocity":69,"Duration":129210,"SoundDuration":129210,"Delta":50435367},{"NoteNumber":79,"Velocity":82,"Duration":138134,"SoundDuration":138134,"Delta":50607647},{"NoteNumber":72,"Velocity":69,"Duration":138134,"SoundDuration":138134,"Delta":50607647},{"NoteNumber":67,"Velocity":69,"Duration":138134,"SoundDuration":138134,"Delta":50607647},{"NoteNumber":44,"Velocity":96,"Duration":580090,"SoundDuration":580090,"Delta":50791826},{"NoteNumber":32,"Velocity":85,"Duration":580090,"SoundDuration":580090,"Delta":50791826},{"NoteNumber":84,"Velocity":85,"Duration":136873,"SoundDuration":136873,"Delta":51010191},{"NoteNumber":79,"Velocity":85,"Duration":136873,"SoundDuration":136873,"Delta":51010191},{"NoteNumber":72,"Velocity":72,"Duration":136873,"SoundDuration":136873,"Delta":51010191},{"NoteNumber":84,"Velocity":85,"Duration":134420,"SoundDuration":134420,"Delta":51192689},{"NoteNumber":79,"Velocity":85,"Duration":134420,"SoundDuration":134420,"Delta":51192689},{"NoteNumber":72,"Velocity":72,"Duration":134420,"SoundDuration":134420,"Delta":51192689},{"NoteNumber":44,"Velocity":53,"Duration":497297,"SoundDuration":497297,"Delta":51371917},{"NoteNumber":56,"Velocity":63,"Duration":497297,"SoundDuration":497297,"Delta":51371917},{"NoteNumber":72,"Velocity":50,"Duration":122759,"SoundDuration":122759,"Delta":51541855},{"NoteNumber":66,"Velocity":42,"Duration":122759,"SoundDuration":122759,"Delta":51541855},{"NoteNumber":62,"Velocity":42,"Duration":122759,"SoundDuration":122759,"Delta":51541855},{"NoteNumber":72,"Velocity":49,"Duration":122759,"SoundDuration":122759,"Delta":51705534},{"NoteNumber":66,"Velocity":41,"Duration":122759,"SoundDuration":122759,"Delta":51705534},{"NoteNumber":62,"Velocity":41,"Duration":122759,"SoundDuration":122759,"Delta":51705534},{"NoteNumber":43,"Velocity":56,"Duration":471735,"SoundDuration":471735,"Delta":51869214},{"NoteNumber":55,"Velocity":67,"Duration":471735,"SoundDuration":471735,"Delta":51869214},{"NoteNumber":67,"Velocity":40,"Duration":117933,"SoundDuration":117933,"Delta":52026459},{"NoteNumber":71,"Velocity":49,"Duration":117933,"SoundDuration":117933,"Delta":52026459},{"NoteNumber":62,"Velocity":40,"Duration":117933,"SoundDuration":117933,"Delta":52026459},{"NoteNumber":67,"Velocity":39,"Duration":117933,"SoundDuration":117933,"Delta":52183704},{"NoteNumber":71,"Velocity":47,"Duration":117933,"SoundDuration":117933,"Delta":52183704},{"NoteNumber":62,"Velocity":39,"Duration":117933,"SoundDuration":117933,"Delta":52183704},{"NoteNumber":41,"Velocity":37,"Duration":563410,"SoundDuration":563410,"Delta":52340949},{"NoteNumber":53,"Velocity":45,"Duration":563410,"SoundDuration":563410,"Delta":52340949},{"NoteNumber":62,"Velocity":32,"Duration":135025,"SoundDuration":135025,"Delta":52504763},{"NoteNumber":68,"Velocity":32,"Duration":135025,"SoundDuration":135025,"Delta":52504763},{"NoteNumber":70,"Velocity":38,"Duration":135025,"SoundDuration":135025,"Delta":52504763},{"NoteNumber":70,"Velocity":37,"Duration":164672,"SoundDuration":164672,"Delta":52684797},{"NoteNumber":68,"Velocity":31,"Duration":164672,"SoundDuration":164672,"Delta":52684797},{"NoteNumber":62,"Velocity":31,"Duration":164672,"SoundDuration":164672,"Delta":52684797},{"NoteNumber":51,"Velocity":45,"Duration":481279,"SoundDuration":481279,"Delta":52904360},{"NoteNumber":39,"Velocity":38,"Duration":481279,"SoundDuration":481279,"Delta":52904360},{"NoteNumber":75,"Velocity":36,"Duration":118026,"SoundDuration":118026,"Delta":53070902},{"NoteNumber":67,"Velocity":30,"Duration":118026,"SoundDuration":118026,"Delta":53070902},{"NoteNumber":63,"Velocity":30,"Duration":118026,"SoundDuration":118026,"Delta":53070902},{"NoteNumber":75,"Velocity":37,"Duration":118026,"SoundDuration":118026,"Delta":53228270},{"NoteNumber":67,"Velocity":31,"Duration":118026,"SoundDuration":118026,"Delta":53228270},{"NoteNumber":63,"Velocity":31,"Duration":118026,"SoundDuration":118026,"Delta":53228270},{"NoteNumber":55,"Velocity":51,"Duration":455615,"SoundDuration":455615,"Delta":53385639},{"NoteNumber":43,"Velocity":43,"Duration":455615,"SoundDuration":455615,"Delta":53385639},{"NoteNumber":63,"Velocity":37,"Duration":113903,"SoundDuration":113903,"Delta":53537511},{"NoteNumber":67,"Velocity":37,"Duration":113903,"SoundDuration":113903,"Delta":53537511},{"NoteNumber":75,"Velocity":45,"Duration":113903,"SoundDuration":113903,"Delta":53537511},{"NoteNumber":63,"Velocity":38,"Duration":113903,"SoundDuration":113903,"Delta":53689382},{"NoteNumber":67,"Velocity":38,"Duration":113903,"SoundDuration":113903,"Delta":53689382},{"NoteNumber":75,"Velocity":46,"Duration":113903,"SoundDuration":113903,"Delta":53689382},{"NoteNumber":58,"Velocity":57,"Duration":448799,"SoundDuration":448799,"Delta":53841254},{"NoteNumber":46,"Velocity":48,"Duration":448799,"SoundDuration":448799,"Delta":53841254},{"NoteNumber":63,"Velocity":44,"Duration":112199,"SoundDuration":112199,"Delta":53990854},{"NoteNumber":67,"Velocity":44,"Duration":112199,"SoundDuration":112199,"Delta":53990854},{"NoteNumber":75,"Velocity":53,"Duration":112199,"SoundDuration":112199,"Delta":53990854},{"NoteNumber":63,"Velocity":46,"Duration":112199,"SoundDuration":112199,"Delta":54140453},{"NoteNumber":67,"Velocity":46,"Duration":112199,"SoundDuration":112199,"Delta":54140453},{"NoteNumber":75,"Velocity":55,"Duration":112199,"SoundDuration":112199,"Delta":54140453},{"NoteNumber":60,"Velocity":68,"Duration":462642,"SoundDuration":462642,"Delta":54290053},{"NoteNumber":48,"Velocity":56,"Duration":462642,"SoundDuration":462642,"Delta":54290053},{"NoteNumber":63,"Velocity":50,"Duration":115660,"SoundDuration":115660,"Delta":54444267},{"NoteNumber":68,"Velocity":50,"Duration":115660,"SoundDuration":115660,"Delta":54444267},{"NoteNumber":75,"Velocity":60,"Duration":115660,"SoundDuration":115660,"Delta":54444267},{"NoteNumber":75,"Velocity":61,"Duration":115660,"SoundDuration":115660,"Delta":54598481},{"NoteNumber":68,"Velocity":51,"Duration":115660,"SoundDuration":115660,"Delta":54598481},{"NoteNumber":63,"Velocity":51,"Duration":115660,"SoundDuration":115660,"Delta":54598481},{"NoteNumber":61,"Velocity":79,"Duration":448799,"SoundDuration":448799,"Delta":54752695},{"NoteNumber":49,"Velocity":67,"Duration":448799,"SoundDuration":448799,"Delta":54752695},{"NoteNumber":63,"Velocity":59,"Duration":112199,"SoundDuration":112199,"Delta":54902295},{"NoteNumber":70,"Velocity":59,"Duration":112199,"SoundDuration":112199,"Delta":54902295},{"NoteNumber":75,"Velocity":70,"Duration":112199,"SoundDuration":112199,"Delta":54902295},{"NoteNumber":63,"Velocity":59,"Duration":112199,"SoundDuration":112199,"Delta":55051894},{"NoteNumber":70,"Velocity":59,"Duration":112199,"SoundDuration":112199,"Delta":55051894},{"NoteNumber":75,"Velocity":70,"Duration":112199,"SoundDuration":112199,"Delta":55051894},{"NoteNumber":55,"Velocity":70,"Duration":454322,"SoundDuration":454322,"Delta":55201494},{"NoteNumber":43,"Velocity":58,"Duration":454322,"SoundDuration":454322,"Delta":55201494},{"NoteNumber":75,"Velocity":59,"Duration":113472,"SoundDuration":113472,"Delta":55353222},{"NoteNumber":71,"Velocity":50,"Duration":113472,"SoundDuration":113472,"Delta":55353222},{"NoteNumber":63,"Velocity":50,"Duration":113472,"SoundDuration":113472,"Delta":55353222},{"NoteNumber":75,"Velocity":59,"Duration":113472,"SoundDuration":113472,"Delta":55504520},{"NoteNumber":71,"Velocity":49,"Duration":113472,"SoundDuration":113472,"Delta":55504520},{"NoteNumber":63,"Velocity":49,"Duration":113472,"SoundDuration":113472,"Delta":55504520},{"NoteNumber":56,"Velocity":78,"Duration":447127,"SoundDuration":447127,"Delta":55655817},{"NoteNumber":44,"Velocity":66,"Duration":447127,"SoundDuration":447127,"Delta":55655817},{"NoteNumber":63,"Velocity":58,"Duration":111781,"SoundDuration":111781,"Delta":55804859},{"NoteNumber":72,"Velocity":58,"Duration":111781,"SoundDuration":111781,"Delta":55804859},{"NoteNumber":75,"Velocity":69,"Duration":111781,"SoundDuration":111781,"Delta":55804859},{"NoteNumber":63,"Velocity":57,"Duration":111781,"SoundDuration":111781,"Delta":55953902},{"NoteNumber":72,"Velocity":57,"Duration":111781,"SoundDuration":111781,"Delta":55953902},{"NoteNumber":75,"Velocity":68,"Duration":111781,"SoundDuration":111781,"Delta":55953902},{"NoteNumber":45,"Velocity":73,"Duration":492952,"SoundDuration":492952,"Delta":56102944},{"NoteNumber":57,"Velocity":88,"Duration":492952,"SoundDuration":492952,"Delta":56102944},{"NoteNumber":65,"Velocity":64,"Duration":121271,"SoundDuration":121271,"Delta":56256566},{"NoteNumber":72,"Velocity":64,"Duration":121271,"SoundDuration":121271,"Delta":56256566},{"NoteNumber":75,"Velocity":77,"Duration":121271,"SoundDuration":121271,"Delta":56256566},{"NoteNumber":77,"Velocity":77,"Duration":121271,"SoundDuration":121271,"Delta":56256566},{"NoteNumber":65,"Velocity":64,"Duration":133226,"SoundDuration":133226,"Delta":56418260},{"NoteNumber":72,"Velocity":64,"Duration":133226,"SoundDuration":133226,"Delta":56418260},{"NoteNumber":75,"Velocity":77,"Duration":133226,"SoundDuration":133226,"Delta":56418260},{"NoteNumber":77,"Velocity":77,"Duration":133226,"SoundDuration":133226,"Delta":56418260},{"NoteNumber":58,"Velocity":93,"Duration":541656,"SoundDuration":541656,"Delta":56595896},{"NoteNumber":46,"Velocity":78,"Duration":541656,"SoundDuration":541656,"Delta":56595896},{"NoteNumber":79,"Velocity":78,"Duration":129656,"SoundDuration":129656,"Delta":56791801},{"NoteNumber":75,"Velocity":78,"Duration":129656,"SoundDuration":129656,"Delta":56791801},{"NoteNumber":70,"Velocity":66,"Duration":129656,"SoundDuration":129656,"Delta":56791801},{"NoteNumber":67,"Velocity":66,"Duration":129656,"SoundDuration":129656,"Delta":56791801},{"NoteNumber":79,"Velocity":78,"Duration":129656,"SoundDuration":129656,"Delta":56964677},{"NoteNumber":75,"Velocity":78,"Duration":129656,"SoundDuration":129656,"Delta":56964677},{"NoteNumber":70,"Velocity":66,"Duration":129656,"SoundDuration":129656,"Delta":56964677},{"NoteNumber":67,"Velocity":66,"Duration":129656,"SoundDuration":129656,"Delta":56964677},{"NoteNumber":34,"Velocity":53,"Duration":483866,"SoundDuration":483866,"Delta":57137553},{"NoteNumber":46,"Velocity":63,"Duration":483866,"SoundDuration":483866,"Delta":57137553},{"NoteNumber":75,"Velocity":50,"Duration":119818,"SoundDuration":119818,"Delta":57301905},{"NoteNumber":70,"Velocity":42,"Duration":119818,"SoundDuration":119818,"Delta":57301905},{"NoteNumber":67,"Velocity":42,"Duration":119818,"SoundDuration":119818,"Delta":57301905},{"NoteNumber":75,"Velocity":49,"Duration":119818,"SoundDuration":119818,"Delta":57461662},{"NoteNumber":70,"Velocity":41,"Duration":119818,"SoundDuration":119818,"Delta":57461662},{"NoteNumber":67,"Velocity":41,"Duration":119818,"SoundDuration":119818,"Delta":57461662},{"NoteNumber":43,"Velocity":56,"Duration":460864,"SoundDuration":460864,"Delta":57621420},{"NoteNumber":55,"Velocity":67,"Duration":460864,"SoundDuration":460864,"Delta":57621420},{"NoteNumber":70,"Velocity":49,"Duration":115216,"SoundDuration":115216,"Delta":57775041},{"NoteNumber":63,"Velocity":40,"Duration":115216,"SoundDuration":115216,"Delta":57775041},{"NoteNumber":70,"Velocity":47,"Duration":115216,"SoundDuration":115216,"Delta":57928663},{"NoteNumber":63,"Velocity":39,"Duration":115216,"SoundDuration":115216,"Delta":57928663},{"NoteNumber":41,"Velocity":37,"Duration":484727,"SoundDuration":484727,"Delta":58082284},{"NoteNumber":53,"Velocity":45,"Duration":484727,"SoundDuration":484727,"Delta":58082284},{"NoteNumber":62,"Velocity":32,"Duration":121271,"SoundDuration":121271,"Delta":58238914},{"NoteNumber":68,"Velocity":32,"Duration":121271,"SoundDuration":121271,"Delta":58238914},{"NoteNumber":70,"Velocity":38,"Duration":121271,"SoundDuration":121271,"Delta":58238914},{"NoteNumber":70,"Velocity":37,"Duration":124802,"SoundDuration":124802,"Delta":58400608},{"NoteNumber":68,"Velocity":31,"Duration":124802,"SoundDuration":124802,"Delta":58400608},{"NoteNumber":62,"Velocity":31,"Duration":124802,"SoundDuration":124802,"Delta":58400608},{"NoteNumber":39,"Velocity":35,"Duration":484727,"SoundDuration":484727,"Delta":58567012},{"NoteNumber":51,"Velocity":42,"Duration":484727,"SoundDuration":484727,"Delta":58567012},{"NoteNumber":63,"Velocity":30,"Duration":121271,"SoundDuration":121271,"Delta":58723641},{"NoteNumber":67,"Velocity":30,"Duration":121271,"SoundDuration":121271,"Delta":58723641},{"NoteNumber":70,"Velocity":36,"Duration":121271,"SoundDuration":121271,"Delta":58723641},{"NoteNumber":70,"Velocity":35,"Duration":124802,"SoundDuration":124802,"Delta":58885336},{"NoteNumber":67,"Velocity":29,"Duration":124802,"SoundDuration":124802,"Delta":58885336},{"NoteNumber":63,"Velocity":29,"Duration":124802,"SoundDuration":124802,"Delta":58885336},{"NoteNumber":49,"Velocity":47,"Duration":483866,"SoundDuration":483866,"Delta":59051739},{"NoteNumber":39,"Velocity":39,"Duration":483866,"SoundDuration":483866,"Delta":59051739},{"NoteNumber":70,"Velocity":43,"Duration":119818,"SoundDuration":119818,"Delta":59216091},{"NoteNumber":63,"Velocity":36,"Duration":119818,"SoundDuration":119818,"Delta":59216091},{"NoteNumber":58,"Velocity":36,"Duration":119818,"SoundDuration":119818,"Delta":59216091},{"NoteNumber":70,"Velocity":42,"Duration":119818,"SoundDuration":119818,"Delta":59375848},{"NoteNumber":63,"Velocity":35,"Duration":119818,"SoundDuration":119818,"Delta":59375848},{"NoteNumber":58,"Velocity":35,"Duration":119818,"SoundDuration":119818,"Delta":59375848},{"NoteNumber":48,"Velocity":43,"Duration":466236,"SoundDuration":466236,"Delta":59535606},{"NoteNumber":39,"Velocity":36,"Duration":466236,"SoundDuration":466236,"Delta":59535606},{"NoteNumber":57,"Velocity":31,"Duration":116559,"SoundDuration":116559,"Delta":59691018},{"NoteNumber":69,"Velocity":37,"Duration":116559,"SoundDuration":116559,"Delta":59691018},{"NoteNumber":63,"Velocity":31,"Duration":116559,"SoundDuration":116559,"Delta":59691018},{"NoteNumber":57,"Velocity":31,"Duration":116559,"SoundDuration":116559,"Delta":59846430},{"NoteNumber":69,"Velocity":37,"Duration":116559,"SoundDuration":116559,"Delta":59846430},{"NoteNumber":63,"Velocity":31,"Duration":116559,"SoundDuration":116559,"Delta":59846430},{"NoteNumber":47,"Velocity":42,"Duration":484727,"SoundDuration":484727,"Delta":60001843},{"NoteNumber":39,"Velocity":35,"Duration":484727,"SoundDuration":484727,"Delta":60001843},{"NoteNumber":56,"Velocity":28,"Duration":121271,"SoundDuration":121271,"Delta":60158472},{"NoteNumber":63,"Velocity":28,"Duration":121271,"SoundDuration":121271,"Delta":60158472},{"NoteNumber":68,"Velocity":34,"Duration":121271,"SoundDuration":121271,"Delta":60158472},{"NoteNumber":56,"Velocity":28,"Duration":124802,"SoundDuration":124802,"Delta":60320167},{"NoteNumber":63,"Velocity":28,"Duration":124802,"SoundDuration":124802,"Delta":60320167},{"NoteNumber":68,"Velocity":34,"Duration":124802,"SoundDuration":124802,"Delta":60320167},{"NoteNumber":46,"Velocity":40,"Duration":484727,"SoundDuration":484727,"Delta":60486570},{"NoteNumber":39,"Velocity":34,"Duration":484727,"SoundDuration":484727,"Delta":60486570},{"NoteNumber":67,"Velocity":34,"Duration":121271,"SoundDuration":121271,"Delta":60643199},{"NoteNumber":63,"Velocity":28,"Duration":121271,"SoundDuration":121271,"Delta":60643199},{"NoteNumber":55,"Velocity":28,"Duration":121271,"SoundDuration":121271,"Delta":60643199},{"NoteNumber":55,"Velocity":28,"Duration":124802,"SoundDuration":124802,"Delta":60804894},{"NoteNumber":63,"Velocity":28,"Duration":124802,"SoundDuration":124802,"Delta":60804894},{"NoteNumber":67,"Velocity":34,"Duration":124802,"SoundDuration":124802,"Delta":60804894},{"NoteNumber":49,"Velocity":47,"Duration":483866,"SoundDuration":483866,"Delta":60971297},{"NoteNumber":39,"Velocity":39,"Duration":483866,"SoundDuration":483866,"Delta":60971297},{"NoteNumber":70,"Velocity":43,"Duration":119818,"SoundDuration":119818,"Delta":61135649},{"NoteNumber":63,"Velocity":36,"Duration":119818,"SoundDuration":119818,"Delta":61135649},{"NoteNumber":58,"Velocity":36,"Duration":119818,"SoundDuration":119818,"Delta":61135649},{"NoteNumber":70,"Velocity":42,"Duration":119818,"SoundDuration":119818,"Delta":61295407},{"NoteNumber":63,"Velocity":35,"Duration":119818,"SoundDuration":119818,"Delta":61295407},{"NoteNumber":58,"Velocity":35,"Duration":119818,"SoundDuration":119818,"Delta":61295407},{"NoteNumber":48,"Velocity":43,"Duration":466236,"SoundDuration":466236,"Delta":61455164},{"NoteNumber":39,"Velocity":36,"Duration":466236,"SoundDuration":466236,"Delta":61455164},{"NoteNumber":57,"Velocity":31,"Duration":116559,"SoundDuration":116559,"Delta":61610576},{"NoteNumber":69,"Velocity":37,"Duration":116559,"SoundDuration":116559,"Delta":61610576},{"NoteNumber":63,"Velocity":31,"Duration":116559,"SoundDuration":116559,"Delta":61610576},{"NoteNumber":57,"Velocity":31,"Duration":116559,"SoundDuration":116559,"Delta":61765989},{"NoteNumber":69,"Velocity":37,"Duration":116559,"SoundDuration":116559,"Delta":61765989},{"NoteNumber":63,"Velocity":31,"Duration":116559,"SoundDuration":116559,"Delta":61765989},{"NoteNumber":47,"Velocity":42,"Duration":484727,"SoundDuration":484727,"Delta":61921401},{"NoteNumber":39,"Velocity":35,"Duration":484727,"SoundDuration":484727,"Delta":61921401},{"NoteNumber":56,"Velocity":28,"Duration":121271,"SoundDuration":121271,"Delta":62078030},{"NoteNumber":63,"Velocity":28,"Duration":121271,"SoundDuration":121271,"Delta":62078030},{"NoteNumber":68,"Velocity":34,"Duration":121271,"SoundDuration":121271,"Delta":62078030},{"NoteNumber":56,"Velocity":28,"Duration":124802,"SoundDuration":124802,"Delta":62239725},{"NoteNumber":63,"Velocity":28,"Duration":124802,"SoundDuration":124802,"Delta":62239725},{"NoteNumber":68,"Velocity":34,"Duration":124802,"SoundDuration":124802,"Delta":62239725},{"NoteNumber":46,"Velocity":40,"Duration":484727,"SoundDuration":484727,"Delta":62406128},{"NoteNumber":39,"Velocity":34,"Duration":484727,"SoundDuration":484727,"Delta":62406128},{"NoteNumber":67,"Velocity":34,"Duration":121271,"SoundDuration":121271,"Delta":62562758},{"NoteNumber":63,"Velocity":28,"Duration":121271,"SoundDuration":121271,"Delta":62562758},{"NoteNumber":55,"Velocity":28,"Duration":121271,"SoundDuration":121271,"Delta":62562758},{"NoteNumber":55,"Velocity":28,"Duration":124802,"SoundDuration":124802,"Delta":62724452},{"NoteNumber":63,"Velocity":28,"Duration":124802,"SoundDuration":124802,"Delta":62724452},{"NoteNumber":67,"Velocity":34,"Duration":124802,"SoundDuration":124802,"Delta":62724452},{"NoteNumber":47,"Velocity":56,"Duration":483866,"SoundDuration":483866,"Delta":62890856},{"NoteNumber":38,"Velocity":47,"Duration":483866,"SoundDuration":483866,"Delta":62890856},{"NoteNumber":67,"Velocity":47,"Duration":119817,"SoundDuration":119817,"Delta":63055208},{"NoteNumber":65,"Velocity":47,"Duration":119817,"SoundDuration":119817,"Delta":63055208},{"NoteNumber":55,"Velocity":39,"Duration":119817,"SoundDuration":119817,"Delta":63055208},{"NoteNumber":67,"Velocity":47,"Duration":119817,"SoundDuration":119817,"Delta":63214965},{"NoteNumber":65,"Velocity":47,"Duration":119817,"SoundDuration":119817,"Delta":63214965},{"NoteNumber":55,"Velocity":39,"Duration":119817,"SoundDuration":119817,"Delta":63214965},{"NoteNumber":48,"Velocity":61,"Duration":480594,"SoundDuration":480594,"Delta":63374722},{"NoteNumber":36,"Velocity":52,"Duration":480594,"SoundDuration":480594,"Delta":63374722},{"NoteNumber":55,"Velocity":43,"Duration":119341,"SoundDuration":119341,"Delta":63537073},{"NoteNumber":67,"Velocity":51,"Duration":119341,"SoundDuration":119341,"Delta":63537073},{"NoteNumber":63,"Velocity":51,"Duration":119341,"SoundDuration":119341,"Delta":63537073},{"NoteNumber":55,"Velocity":43,"Duration":119341,"SoundDuration":119341,"Delta":63696195},{"NoteNumber":67,"Velocity":52,"Duration":119341,"SoundDuration":119341,"Delta":63696195},{"NoteNumber":63,"Velocity":52,"Duration":119341,"SoundDuration":119341,"Delta":63696195},{"NoteNumber":46,"Velocity":71,"Duration":517109,"SoundDuration":517109,"Delta":63855317},{"NoteNumber":34,"Velocity":60,"Duration":517109,"SoundDuration":517109,"Delta":63855317},{"NoteNumber":55,"Velocity":51,"Duration":128545,"SoundDuration":128545,"Delta":64020347},{"NoteNumber":63,"Velocity":61,"Duration":128545,"SoundDuration":128545,"Delta":64020347},{"NoteNumber":67,"Velocity":61,"Duration":128545,"SoundDuration":128545,"Delta":64020347},{"NoteNumber":55,"Velocity":52,"Duration":135513,"SoundDuration":135513,"Delta":64191741},{"NoteNumber":63,"Velocity":62,"Duration":135513,"SoundDuration":135513,"Delta":64191741},{"NoteNumber":67,"Velocity":62,"Duration":135513,"SoundDuration":135513,"Delta":64191741},{"NoteNumber":32,"Velocity":74,"Duration":538837,"SoundDuration":538837,"Delta":64372426},{"NoteNumber":44,"Velocity":87,"Duration":538837,"SoundDuration":538837,"Delta":64372426},{"NoteNumber":60,"Velocity":60,"Duration":132053,"SoundDuration":132053,"Delta":64564383},{"NoteNumber":67,"Velocity":71,"Duration":132053,"SoundDuration":132053,"Delta":64564383},{"NoteNumber":70,"Velocity":71,"Duration":132053,"SoundDuration":132053,"Delta":64564383},{"NoteNumber":70,"Velocity":71,"Duration":128106,"SoundDuration":128106,"Delta":64740455},{"NoteNumber":67,"Velocity":71,"Duration":128106,"SoundDuration":128106,"Delta":64740455},{"NoteNumber":60,"Velocity":60,"Duration":128106,"SoundDuration":128106,"Delta":64740455},{"NoteNumber":41,"Velocity":55,"Duration":489502,"SoundDuration":489502,"Delta":64911263},{"NoteNumber":29,"Velocity":46,"Duration":489502,"SoundDuration":489502,"Delta":64911263},{"NoteNumber":68,"Velocity":49,"Duration":121369,"SoundDuration":121369,"Delta":65077115},{"NoteNumber":65,"Velocity":41,"Duration":121369,"SoundDuration":121369,"Delta":65077115},{"NoteNumber":60,"Velocity":41,"Duration":121369,"SoundDuration":121369,"Delta":65077115},{"NoteNumber":68,"Velocity":49,"Duration":121368,"SoundDuration":121368,"Delta":65238940},{"NoteNumber":65,"Velocity":41,"Duration":121368,"SoundDuration":121368,"Delta":65238940},{"NoteNumber":60,"Velocity":41,"Duration":121368,"SoundDuration":121368,"Delta":65238940},{"NoteNumber":46,"Velocity":53,"Duration":470256,"SoundDuration":470256,"Delta":65400765},{"NoteNumber":34,"Velocity":45,"Duration":470256,"SoundDuration":470256,"Delta":65400765},{"NoteNumber":58,"Velocity":26,"Duration":117564,"SoundDuration":117564,"Delta":65557517},{"NoteNumber":67,"Velocity":37,"Duration":117564,"SoundDuration":117564,"Delta":65557517},{"NoteNumber":63,"Velocity":26,"Duration":117564,"SoundDuration":117564,"Delta":65557517},{"NoteNumber":58,"Velocity":26,"Duration":117564,"SoundDuration":117564,"Delta":65714269},{"NoteNumber":67,"Velocity":37,"Duration":117564,"SoundDuration":117564,"Delta":65714269},{"NoteNumber":63,"Velocity":26,"Duration":117564,"SoundDuration":117564,"Delta":65714269},{"NoteNumber":46,"Velocity":46,"Duration":484727,"SoundDuration":484727,"Delta":65871021},{"NoteNumber":34,"Velocity":39,"Duration":484727,"SoundDuration":484727,"Delta":65871021},{"NoteNumber":56,"Velocity":23,"Duration":121270,"SoundDuration":121270,"Delta":66027651},{"NoteNumber":62,"Velocity":23,"Duration":121270,"SoundDuration":121270,"Delta":66027651},{"NoteNumber":65,"Velocity":34,"Duration":121270,"SoundDuration":121270,"Delta":66027651},{"NoteNumber":56,"Velocity":23,"Duration":124802,"SoundDuration":124802,"Delta":66189345},{"NoteNumber":62,"Velocity":23,"Duration":124802,"SoundDuration":124802,"Delta":66189345},{"NoteNumber":65,"Velocity":34,"Duration":124802,"SoundDuration":124802,"Delta":66189345},{"NoteNumber":46,"Velocity":40,"Duration":484727,"SoundDuration":484727,"Delta":66355749},{"NoteNumber":39,"Velocity":34,"Duration":484727,"SoundDuration":484727,"Delta":66355749},{"NoteNumber":63,"Velocity":34,"Duration":121270,"SoundDuration":121270,"Delta":66512378},{"NoteNumber":55,"Velocity":28,"Duration":121270,"SoundDuration":121270,"Delta":66512378},{"NoteNumber":55,"Velocity":28,"Duration":124802,"SoundDuration":124802,"Delta":66674073},{"NoteNumber":63,"Velocity":34,"Duration":124802,"SoundDuration":124802,"Delta":66674073},{"NoteNumber":39,"Velocity":45,"Duration":483866,"SoundDuration":483866,"Delta":66840476},{"NoteNumber":47,"Velocity":53,"Duration":483866,"SoundDuration":483866,"Delta":66840476},{"NoteNumber":56,"Velocity":38,"Duration":119817,"SoundDuration":119817,"Delta":67004828},{"NoteNumber":62,"Velocity":45,"Duration":119817,"SoundDuration":119817,"Delta":67004828},{"NoteNumber":56,"Velocity":38,"Duration":119817,"SoundDuration":119817,"Delta":67164585},{"NoteNumber":62,"Velocity":45,"Duration":119817,"SoundDuration":119817,"Delta":67164585},{"NoteNumber":39,"Velocity":40,"Duration":484515,"SoundDuration":484515,"Delta":67324343},{"NoteNumber":46,"Velocity":48,"Duration":484515,"SoundDuration":484515,"Delta":67324343},{"NoteNumber":63,"Velocity":32,"Duration":122259,"SoundDuration":122259,"Delta":67482834},{"NoteNumber":55,"Velocity":27,"Duration":122259,"SoundDuration":122259,"Delta":67482834},{"NoteNumber":63,"Velocity":32,"Duration":122259,"SoundDuration":122259,"Delta":67645846},{"NoteNumber":55,"Velocity":27,"Duration":122259,"SoundDuration":122259,"Delta":67645846},{"NoteNumber":39,"Velocity":45,"Duration":483866,"SoundDuration":483866,"Delta":67808858},{"NoteNumber":47,"Velocity":53,"Duration":483866,"SoundDuration":483866,"Delta":67808858},{"NoteNumber":56,"Velocity":38,"Duration":119817,"SoundDuration":119817,"Delta":67973210},{"NoteNumber":62,"Velocity":45,"Duration":119817,"SoundDuration":119817,"Delta":67973210},{"NoteNumber":56,"Velocity":38,"Duration":119817,"SoundDuration":119817,"Delta":68132968},{"NoteNumber":62,"Velocity":45,"Duration":119817,"SoundDuration":119817,"Delta":68132968},{"NoteNumber":39,"Velocity":40,"Duration":484515,"SoundDuration":484515,"Delta":68292725},{"NoteNumber":46,"Velocity":48,"Duration":484515,"SoundDuration":484515,"Delta":68292725},{"NoteNumber":63,"Velocity":32,"Duration":122259,"SoundDuration":122259,"Delta":68451216},{"NoteNumber":55,"Velocity":27,"Duration":122259,"SoundDuration":122259,"Delta":68451216},{"NoteNumber":63,"Velocity":32,"Duration":122259,"SoundDuration":122259,"Delta":68614228},{"NoteNumber":55,"Velocity":27,"Duration":122259,"SoundDuration":122259,"Delta":68614228},{"NoteNumber":39,"Velocity":36,"Duration":486439,"SoundDuration":486439,"Delta":68777241},{"NoteNumber":47,"Velocity":42,"Duration":486439,"SoundDuration":486439,"Delta":68777241},{"NoteNumber":56,"Velocity":30,"Duration":120782,"SoundDuration":120782,"Delta":68941593},{"NoteNumber":62,"Velocity":36,"Duration":120782,"SoundDuration":120782,"Delta":68941593},{"NoteNumber":56,"Velocity":30,"Duration":120782,"SoundDuration":120782,"Delta":69102637},{"NoteNumber":62,"Velocity":36,"Duration":120782,"SoundDuration":120782,"Delta":69102637},{"NoteNumber":39,"Velocity":32,"Duration":498707,"SoundDuration":498707,"Delta":69263680},{"NoteNumber":46,"Velocity":38,"Duration":498707,"SoundDuration":498707,"Delta":69263680},{"NoteNumber":63,"Velocity":25,"Duration":126379,"SoundDuration":126379,"Delta":69425375},{"NoteNumber":55,"Velocity":21,"Duration":126379,"SoundDuration":126379,"Delta":69425375},{"NoteNumber":63,"Velocity":25,"Duration":126379,"SoundDuration":126379,"Delta":69593881},{"NoteNumber":55,"Velocity":21,"Duration":126379,"SoundDuration":126379,"Delta":69593881},{"NoteNumber":39,"Velocity":28,"Duration":564007,"SoundDuration":564007,"Delta":69762388},{"NoteNumber":47,"Velocity":33,"Duration":564007,"SoundDuration":564007,"Delta":69762388},{"NoteNumber":56,"Velocity":24,"Duration":140594,"SoundDuration":140594,"Delta":69942260},{"NoteNumber":62,"Velocity":28,"Duration":140594,"SoundDuration":140594,"Delta":69942260},{"NoteNumber":56,"Velocity":24,"Duration":147507,"SoundDuration":147507,"Delta":70129719},{"NoteNumber":62,"Velocity":28,"Duration":147507,"SoundDuration":147507,"Delta":70129719},{"NoteNumber":55,"Velocity":16,"Duration":504293,"SoundDuration":504293,"Delta":70326395},{"NoteNumber":63,"Velocity":20,"Duration":504293,"SoundDuration":504293,"Delta":70326395},{"NoteNumber":39,"Velocity":21,"Duration":504293,"SoundDuration":504293,"Delta":70326395},{"NoteNumber":46,"Velocity":30,"Duration":504293,"SoundDuration":504293,"Delta":70326395},{"NoteNumber":70,"Velocity":66,"Duration":247545,"SoundDuration":247545,"Delta":71319726},{"NoteNumber":67,"Velocity":66,"Duration":247545,"SoundDuration":247545,"Delta":71319726},{"NoteNumber":75,"Velocity":78,"Duration":247545,"SoundDuration":247545,"Delta":71319726},{"NoteNumber":79,"Velocity":78,"Duration":247545,"SoundDuration":247545,"Delta":71319726},{"NoteNumber":63,"Velocity":50,"Duration":247545,"SoundDuration":247545,"Delta":71319726},{"NoteNumber":58,"Velocity":42,"Duration":247545,"SoundDuration":247545,"Delta":71319726},{"NoteNumber":51,"Velocity":42,"Duration":247545,"SoundDuration":247545,"Delta":71319726},{"NoteNumber":79,"Velocity":71,"Duration":303982,"SoundDuration":303982,"Delta":71814816},{"NoteNumber":82,"Velocity":71,"Duration":303982,"SoundDuration":303982,"Delta":71814816},{"NoteNumber":87,"Velocity":85,"Duration":303982,"SoundDuration":303982,"Delta":71814816},{"NoteNumber":91,"Velocity":85,"Duration":303982,"SoundDuration":303982,"Delta":71814816},{"NoteNumber":63,"Velocity":48,"Duration":303982,"SoundDuration":303982,"Delta":71814816},{"NoteNumber":70,"Velocity":48,"Duration":303982,"SoundDuration":303982,"Delta":71814816},{"NoteNumber":75,"Velocity":48,"Duration":303982,"SoundDuration":303982,"Delta":71814816},{"NoteNumber":55,"Velocity":74,"Duration":1215928,"SoundDuration":1215928,"Delta":72422780},{"NoteNumber":58,"Velocity":74,"Duration":1215928,"SoundDuration":1215928,"Delta":72422780},{"NoteNumber":63,"Velocity":88,"Duration":1215928,"SoundDuration":1215928,"Delta":72422780},{"NoteNumber":39,"Velocity":49,"Duration":1215928,"SoundDuration":1215928,"Delta":72422780},{"NoteNumber":46,"Velocity":49,"Duration":1215928,"SoundDuration":1215928,"Delta":72422780},{"NoteNumber":51,"Velocity":58,"Duration":1215928,"SoundDuration":1215928,"Delta":72422780}],"license":{"name":"Creative Commons Attribution-ShareAlike 3.0 Germany","url":"http://creativecommons.org/licenses/by-sa/3.0/de/deed.en","text":"The MIDI, audio (MP3, OGG) and video files of Bernd Krueger are licensed under the cc-by-sa Germany License. This means that you can use and adapt the files, as long as you attribute the copyright holder.\n\nName: Bernd Krueger\nSource: http://www.piano-midi.de\n\nThe distribution or public playback of the files is only allowed under identical license conditions.\n\nThe scores are open source.","attribution":"MIDI files by Bernd Krueger (piano-midi.de)","attributionUrl":"http://www.piano-midi.de"}}