{"title":"1. Movement","artist":"Beethoven","durationMs":618432,"midiSha256":"7a97606407f30b0fd80ed484459480496a708f53368e91dec62ebcf1670e1fa8","midiObject":[{"NoteNumber":36,"Velocity":25,"Duration":140213,"SoundDuration":140213,"Delta":0},{"NoteNumber":48,"Velocity":28,"Duration":140213,"SoundDuration":140213,"Delta":186951},{"NoteNumber":52,"Velocity":33,"Duration":140213,"SoundDuration":140213,"Delta":186951},{"NoteNumber":43,"Velocity":26,"Duration":140213,"SoundDuration":140213,"Delta":186951},{"NoteNumber":36,"Velocity":22,"Duration":140213,"SoundDuration":140213,"Delta":186951},{"NoteNumber":48,"Velocity":28,"Duration":139318,"SoundDuration":139318,"Delta":373902},{"NoteNumber":52,"Velocity":33,"Duration":139318,"SoundDuration":139318,"Delta":373902},{"NoteNumber":43,"Velocity":26,"Duration":139318,"SoundDuration":139318,"Delta":373902},{"NoteNumber":36,"Velocity":22,"Duration":139318,"SoundDuration":139318,"Delta":373902},{"NoteNumber":48,"Velocity":28,"Duration":139318,"SoundDuration":139318,"Delta":559660},{"NoteNumber":52,"Velocity":34,"Duration":139318,"SoundDuration":139318,"Delta":559660},{"NoteNumber":43,"Velocity":27,"Duration":139318,"SoundDuration":139318,"Delta":559660},{"NoteNumber":36,"Velocity":22,"Duration":139318,"SoundDuration":139318,"Delta":559660},{"NoteNumber":48,"Velocity":28,"Duration":140518,"SoundDuration":140518,"Delta":745419},{"NoteNumber":52,"Velocity":34,"Duration":140518,"SoundDuration":140518,"Delta":745419},{"NoteNumber":43,"Velocity":27,"Duration":140518,"SoundDuration":140518,"Delta":745419},{"NoteNumber":36,"Velocity":22,"Duration":140518,"SoundDuration":140518,"Delta":745419},{"NoteNumber":48,"Velocity":28,"Duration":140668,"SoundDuration":140668,"Delta":932827},{"NoteNumber":52,"Velocity":34,"Duration":140668,"SoundDuration":140668,"Delta":932827},{"NoteNumber":43,"Velocity":28,"Duration":140668,"SoundDuration":140668,"Delta":932827},{"NoteNumber":36,"Velocity":23,"Duration":140668,"SoundDuration":140668,"Delta":932827},{"NoteNumber":48,"Velocity":29,"Duration":139760,"SoundDuration":139760,"Delta":1120385},{"NoteNumber":52,"Velocity":35,"Duration":139760,"SoundDuration":139760,"Delta":1120385},{"NoteNumber":43,"Velocity":28,"Duration":139760,"SoundDuration":139760,"Delta":1120385},{"NoteNumber":36,"Velocity":23,"Duration":139760,"SoundDuration":139760,"Delta":1120385},{"NoteNumber":48,"Velocity":29,"Duration":139760,"SoundDuration":139760,"Delta":1306733},{"NoteNumber":52,"Velocity":35,"Duration":139760,"SoundDuration":139760,"Delta":1306733},{"NoteNumber":43,"Velocity":29,"Duration":139760,"SoundDuration":139760,"Delta":1306733},{"NoteNumber":36,"Velocity":24,"Duration":139760,"SoundDuration":139760,"Delta":1306733},{"NoteNumber":48,"Velocity":30,"Duration":140112,"SoundDuration":140112,"Delta":1493080},{"NoteNumber":52,"Velocity":36,"Duration":140112,"SoundDuration":140112,"Delta":1493080},{"NoteNumber":36,"Velocity":25,"Duration":140112,"SoundDuration":140112,"Delta":1493080},{"NoteNumber":43,"Velocity":30,"Duration":140112,"SoundDuration":140112,"Delta":1493080},{"NoteNumber":48,"Velocity":30,"Duration":140213,"SoundDuration":140213,"Delta":1679930},{"NoteNumber":52,"Velocity":36,"Duration":140213,"SoundDuration":140213,"Delta":1679930},{"NoteNumber":36,"Velocity":22,"Duration":140213,"SoundDuration":140213,"Delta":1679930},{"NoteNumber":43,"Velocity":27,"Duration":140213,"SoundDuration":140213,"Delta":1679930},{"NoteNumber":48,"Velocity":31,"Duration":139760,"SoundDuration":139760,"Delta":1866881},{"NoteNumber":52,"Velocity":37,"Duration":139760,"SoundDuration":139760,"Delta":1866881},{"NoteNumber":36,"Velocity":23,"Duration":139760,"SoundDuration":139760,"Delta":1866881},{"NoteNumber":43,"Velocity":28,"Duration":139760,"SoundDuration":139760,"Delta":1866881},{"NoteNumber":48,"Velocity":32,"Duration":139760,"SoundDuration":139760,"Delta":2053228},{"NoteNumber":52,"Velocity":38,"Duration":139760,"SoundDuration":139760,"Delta":2053228},{"NoteNumber":36,"Velocity":24,"Duration":139760,"SoundDuration":139760,"Delta":2053228},{"NoteNumber":43,"Velocity":29,"Duration":139760,"SoundDuration":139760,"Delta":2053228},{"NoteNumber":48,"Velocity":33,"Duration":140213,"SoundDuration":140213,"Delta":2239575},{"NoteNumber":52,"Velocity":39,"Duration":140213,"SoundDuration":140213,"Delta":2239575},{"NoteNumber":36,"Velocity":25,"Duration":140213,"SoundDuration":140213,"Delta":2239575},{"NoteNumber":43,"Velocity":30,"Duration":140213,"SoundDuration":140213,"Delta":2239575},{"NoteNumber":48,"Velocity":34,"Duration":140213,"SoundDuration":140213,"Delta":2426526},{"NoteNumber":52,"Velocity":40,"Duration":140213,"SoundDuration":140213,"Delta":2426526},{"NoteNumber":36,"Velocity":25,"Duration":140213,"SoundDuration":140213,"Delta":2426526},{"NoteNumber":43,"Velocity":30,"Duration":140213,"SoundDuration":140213,"Delta":2426526},{"NoteNumber":50,"Velocity":34,"Duration":140213,"SoundDuration":140213,"Delta":2613477},{"NoteNumber":54,"Velocity":40,"Duration":140213,"SoundDuration":140213,"Delta":2613477},{"NoteNumber":36,"Velocity":25,"Duration":140213,"SoundDuration":140213,"Delta":2613477},{"NoteNumber":45,"Velocity":30,"Duration":140213,"SoundDuration":140213,"Delta":2613477},{"NoteNumber":50,"Velocity":34,"Duration":140213,"SoundDuration":140213,"Delta":2800428},{"NoteNumber":54,"Velocity":40,"Duration":140213,"SoundDuration":140213,"Delta":2800428},{"NoteNumber":36,"Velocity":25,"Duration":140213,"SoundDuration":140213,"Delta":2800428},{"NoteNumber":45,"Velocity":30,"Duration":140213,"SoundDuration":140213,"Delta":2800428},{"NoteNumber":50,"Velocity":39,"Duration":560853,"SoundDuration":560853,"Delta":2987379},{"NoteNumber":55,"Velocity":46,"Duration":560853,"SoundDuration":560853,"Delta":2987379},{"NoteNumber":35,"Velocity":25,"Duration":140213,"SoundDuration":140213,"Delta":2987379},{"NoteNumber":43,"Velocity":30,"Duration":140213,"SoundDuration":140213,"Delta":2987379},{"NoteNumber":35,"Velocity":25,"Duration":140213,"SoundDuration":140213,"Delta":3174330},{"NoteNumber":43,"Velocity":30,"Duration":140213,"SoundDuration":140213,"Delta":3174330},{"NoteNumber":35,"Velocity":25,"Duration":140213,"SoundDuration":140213,"Delta":3361281},{"NoteNumber":43,"Velocity":30,"Duration":140213,"SoundDuration":140213,"Delta":3361281},{"NoteNumber":59,"Velocity":40,"Duration":93475,"SoundDuration":93475,"Delta":3548232},{"NoteNumber":35,"Velocity":25,"Duration":140213,"SoundDuration":140213,"Delta":3548232},{"NoteNumber":43,"Velocity":30,"Duration":140213,"SoundDuration":140213,"Delta":3548232},{"NoteNumber":57,"Velocity":40,"Duration":93475,"SoundDuration":93475,"Delta":3641707},{"NoteNumber":55,"Velocity":45,"Duration":93475,"SoundDuration":93475,"Delta":3735183},{"NoteNumber":35,"Velocity":25,"Duration":140213,"SoundDuration":140213,"Delta":3735183},{"NoteNumber":43,"Velocity":30,"Duration":140213,"SoundDuration":140213,"Delta":3735183},{"NoteNumber":35,"Velocity":25,"Duration":140213,"SoundDuration":140213,"Delta":3922134},{"NoteNumber":43,"Velocity":30,"Duration":140213,"SoundDuration":140213,"Delta":3922134},{"NoteNumber":35,"Velocity":25,"Duration":140213,"SoundDuration":140213,"Delta":4109085},{"NoteNumber":43,"Velocity":30,"Duration":140213,"SoundDuration":140213,"Delta":4109085},{"NoteNumber":35,"Velocity":25,"Duration":146103,"SoundDuration":146103,"Delta":4296036},{"NoteNumber":43,"Velocity":30,"Duration":146103,"SoundDuration":146103,"Delta":4296036},{"NoteNumber":85,"Velocity":46,"Duration":48701,"SoundDuration":48701,"Delta":4442140},{"NoteNumber":86,"Velocity":57,"Duration":474683,"SoundDuration":474683,"Delta":4490841},{"NoteNumber":35,"Velocity":25,"Duration":142405,"SoundDuration":142405,"Delta":4490841},{"NoteNumber":43,"Velocity":30,"Duration":142405,"SoundDuration":142405,"Delta":4490841},{"NoteNumber":35,"Velocity":25,"Duration":142405,"SoundDuration":142405,"Delta":4680714},{"NoteNumber":43,"Velocity":30,"Duration":142405,"SoundDuration":142405,"Delta":4680714},{"NoteNumber":35,"Velocity":25,"Duration":142405,"SoundDuration":142405,"Delta":4870588},{"NoteNumber":43,"Velocity":30,"Duration":142405,"SoundDuration":142405,"Delta":4870588},{"NoteNumber":84,"Velocity":48,"Duration":94936,"SoundDuration":94936,"Delta":4965525},{"NoteNumber":83,"Velocity":47,"Duration":94936,"SoundDuration":94936,"Delta":5060461},{"NoteNumber":35,"Velocity":25,"Duration":142405,"SoundDuration":142405,"Delta":5060461},{"NoteNumber":43,"Velocity":30,"Duration":142405,"SoundDuration":142405,"Delta":5060461},{"NoteNumber":81,"Velocity":45,"Duration":94936,"SoundDuration":94936,"Delta":5155398},{"NoteNumber":79,"Velocity":44,"Duration":189873,"SoundDuration":189873,"Delta":5250335},{"NoteNumber":35,"Velocity":25,"Duration":142405,"SoundDuration":142405,"Delta":5250335},{"NoteNumber":43,"Velocity":30,"Duration":142405,"SoundDuration":142405,"Delta":5250335},{"NoteNumber":35,"Velocity":25,"Duration":142405,"SoundDuration":142405,"Delta":5440208},{"NoteNumber":43,"Velocity":30,"Duration":142405,"SoundDuration":142405,"Delta":5440208},{"NoteNumber":35,"Velocity":25,"Duration":142405,"SoundDuration":142405,"Delta":5630082},{"NoteNumber":43,"Velocity":30,"Duration":142405,"SoundDuration":142405,"Delta":5630082},{"NoteNumber":35,"Velocity":25,"Duration":145161,"SoundDuration":145161,"Delta":5819955},{"NoteNumber":43,"Velocity":30,"Duration":145161,"SoundDuration":145161,"Delta":5819955},{"NoteNumber":46,"Velocity":29,"Duration":140213,"SoundDuration":140213,"Delta":6013504},{"NoteNumber":50,"Velocity":35,"Duration":140213,"SoundDuration":140213,"Delta":6013504},{"NoteNumber":41,"Velocity":30,"Duration":140213,"SoundDuration":140213,"Delta":6013504},{"NoteNumber":34,"Velocity":26,"Duration":140213,"SoundDuration":140213,"Delta":6013504},{"NoteNumber":46,"Velocity":29,"Duration":140213,"SoundDuration":140213,"Delta":6200455},{"NoteNumber":50,"Velocity":35,"Duration":140213,"SoundDuration":140213,"Delta":6200455},{"NoteNumber":41,"Velocity":30,"Duration":140213,"SoundDuration":140213,"Delta":6200455},{"NoteNumber":34,"Velocity":25,"Duration":140213,"SoundDuration":140213,"Delta":6200455},{"NoteNumber":46,"Velocity":29,"Duration":138871,"SoundDuration":138871,"Delta":6387406},{"NoteNumber":50,"Velocity":35,"Duration":138871,"SoundDuration":138871,"Delta":6387406},{"NoteNumber":41,"Velocity":30,"Duration":138871,"SoundDuration":138871,"Delta":6387406},{"NoteNumber":34,"Velocity":25,"Duration":138871,"SoundDuration":138871,"Delta":6387406},{"NoteNumber":46,"Velocity":30,"Duration":138871,"SoundDuration":138871,"Delta":6572568},{"NoteNumber":50,"Velocity":36,"Duration":138871,"SoundDuration":138871,"Delta":6572568},{"NoteNumber":41,"Velocity":31,"Duration":138871,"SoundDuration":138871,"Delta":6572568},{"NoteNumber":34,"Velocity":26,"Duration":138871,"SoundDuration":138871,"Delta":6572568},{"NoteNumber":46,"Velocity":31,"Duration":140668,"SoundDuration":140668,"Delta":6757731},{"NoteNumber":50,"Velocity":37,"Duration":140668,"SoundDuration":140668,"Delta":6757731},{"NoteNumber":41,"Velocity":31,"Duration":140668,"SoundDuration":140668,"Delta":6757731},{"NoteNumber":34,"Velocity":26,"Duration":140668,"SoundDuration":140668,"Delta":6757731},{"NoteNumber":46,"Velocity":31,"Duration":140668,"SoundDuration":140668,"Delta":6945289},{"NoteNumber":50,"Velocity":37,"Duration":140668,"SoundDuration":140668,"Delta":6945289},{"NoteNumber":41,"Velocity":31,"Duration":140668,"SoundDuration":140668,"Delta":6945289},{"NoteNumber":34,"Velocity":26,"Duration":140668,"SoundDuration":140668,"Delta":6945289},{"NoteNumber":46,"Velocity":32,"Duration":140668,"SoundDuration":140668,"Delta":7132848},{"NoteNumber":50,"Velocity":38,"Duration":140668,"SoundDuration":140668,"Delta":7132848},{"NoteNumber":41,"Velocity":31,"Duration":140668,"SoundDuration":140668,"Delta":7132848},{"NoteNumber":34,"Velocity":26,"Duration":140668,"SoundDuration":140668,"Delta":7132848},{"NoteNumber":46,"Velocity":33,"Duration":140668,"SoundDuration":140668,"Delta":7320406},{"NoteNumber":50,"Velocity":39,"Duration":140668,"SoundDuration":140668,"Delta":7320406},{"NoteNumber":41,"Velocity":31,"Duration":140668,"SoundDuration":140668,"Delta":7320406},{"NoteNumber":34,"Velocity":26,"Duration":140668,"SoundDuration":140668,"Delta":7320406},{"NoteNumber":46,"Velocity":33,"Duration":140213,"SoundDuration":140213,"Delta":7507965},{"NoteNumber":50,"Velocity":39,"Duration":140213,"SoundDuration":140213,"Delta":7507965},{"NoteNumber":34,"Velocity":26,"Duration":140213,"SoundDuration":140213,"Delta":7507965},{"NoteNumber":41,"Velocity":31,"Duration":140213,"SoundDuration":140213,"Delta":7507965},{"NoteNumber":46,"Velocity":34,"Duration":140213,"SoundDuration":140213,"Delta":7694916},{"NoteNumber":50,"Velocity":40,"Duration":140213,"SoundDuration":140213,"Delta":7694916},{"NoteNumber":34,"Velocity":26,"Duration":140213,"SoundDuration":140213,"Delta":7694916},{"NoteNumber":41,"Velocity":31,"Duration":140213,"SoundDuration":140213,"Delta":7694916},{"NoteNumber":46,"Velocity":34,"Duration":140668,"SoundDuration":140668,"Delta":7881867},{"NoteNumber":50,"Velocity":40,"Duration":140668,"SoundDuration":140668,"Delta":7881867},{"NoteNumber":34,"Velocity":26,"Duration":140668,"SoundDuration":140668,"Delta":7881867},{"NoteNumber":41,"Velocity":31,"Duration":140668,"SoundDuration":140668,"Delta":7881867},{"NoteNumber":46,"Velocity":34,"Duration":140668,"SoundDuration":140668,"Delta":8069425},{"NoteNumber":50,"Velocity":40,"Duration":140668,"SoundDuration":140668,"Delta":8069425},{"NoteNumber":34,"Velocity":26,"Duration":140668,"SoundDuration":140668,"Delta":8069425},{"NoteNumber":41,"Velocity":31,"Duration":140668,"SoundDuration":140668,"Delta":8069425},{"NoteNumber":46,"Velocity":34,"Duration":138871,"SoundDuration":138871,"Delta":8256984},{"NoteNumber":50,"Velocity":40,"Duration":138871,"SoundDuration":138871,"Delta":8256984},{"NoteNumber":34,"Velocity":26,"Duration":138871,"SoundDuration":138871,"Delta":8256984},{"NoteNumber":41,"Velocity":31,"Duration":138871,"SoundDuration":138871,"Delta":8256984},{"NoteNumber":46,"Velocity":34,"Duration":138871,"SoundDuration":138871,"Delta":8442146},{"NoteNumber":50,"Velocity":40,"Duration":138871,"SoundDuration":138871,"Delta":8442146},{"NoteNumber":34,"Velocity":25,"Duration":138871,"SoundDuration":138871,"Delta":8442146},{"NoteNumber":41,"Velocity":30,"Duration":138871,"SoundDuration":138871,"Delta":8442146},{"NoteNumber":48,"Velocity":34,"Duration":139318,"SoundDuration":139318,"Delta":8627309},{"NoteNumber":52,"Velocity":40,"Duration":139318,"SoundDuration":139318,"Delta":8627309},{"NoteNumber":34,"Velocity":25,"Duration":139318,"SoundDuration":139318,"Delta":8627309},{"NoteNumber":43,"Velocity":30,"Duration":139318,"SoundDuration":139318,"Delta":8627309},{"NoteNumber":48,"Velocity":34,"Duration":139318,"SoundDuration":139318,"Delta":8813067},{"NoteNumber":52,"Velocity":40,"Duration":139318,"SoundDuration":139318,"Delta":8813067},{"NoteNumber":34,"Velocity":25,"Duration":139318,"SoundDuration":139318,"Delta":8813067},{"NoteNumber":43,"Velocity":30,"Duration":139318,"SoundDuration":139318,"Delta":8813067},{"NoteNumber":48,"Velocity":39,"Duration":558991,"SoundDuration":558991,"Delta":8998826},{"NoteNumber":53,"Velocity":46,"Duration":558991,"SoundDuration":558991,"Delta":8998826},{"NoteNumber":33,"Velocity":25,"Duration":139711,"SoundDuration":139711,"Delta":8998826},{"NoteNumber":41,"Velocity":30,"Duration":139711,"SoundDuration":139711,"Delta":8998826},{"NoteNumber":33,"Velocity":25,"Duration":139760,"SoundDuration":139760,"Delta":9185124},{"NoteNumber":41,"Velocity":30,"Duration":139760,"SoundDuration":139760,"Delta":9185124},{"NoteNumber":33,"Velocity":25,"Duration":139760,"SoundDuration":139760,"Delta":9371471},{"NoteNumber":41,"Velocity":30,"Duration":139760,"SoundDuration":139760,"Delta":9371471},{"NoteNumber":57,"Velocity":40,"Duration":93173,"SoundDuration":93173,"Delta":9557818},{"NoteNumber":33,"Velocity":25,"Duration":139760,"SoundDuration":139760,"Delta":9557818},{"NoteNumber":41,"Velocity":30,"Duration":139760,"SoundDuration":139760,"Delta":9557818},{"NoteNumber":55,"Velocity":40,"Duration":93173,"SoundDuration":93173,"Delta":9650991},{"NoteNumber":53,"Velocity":45,"Duration":93173,"SoundDuration":93173,"Delta":9744165},{"NoteNumber":33,"Velocity":25,"Duration":139760,"SoundDuration":139760,"Delta":9744165},{"NoteNumber":41,"Velocity":30,"Duration":139760,"SoundDuration":139760,"Delta":9744165},{"NoteNumber":33,"Velocity":25,"Duration":139760,"SoundDuration":139760,"Delta":9930512},{"NoteNumber":41,"Velocity":30,"Duration":139760,"SoundDuration":139760,"Delta":9930512},{"NoteNumber":33,"Velocity":25,"Duration":139760,"SoundDuration":139760,"Delta":10116859},{"NoteNumber":41,"Velocity":30,"Duration":139760,"SoundDuration":139760,"Delta":10116859},{"NoteNumber":33,"Velocity":25,"Duration":146579,"SoundDuration":146579,"Delta":10303206},{"NoteNumber":41,"Velocity":30,"Duration":146579,"SoundDuration":146579,"Delta":10303206},{"NoteNumber":83,"Velocity":46,"Duration":48859,"SoundDuration":48859,"Delta":10449785},{"NoteNumber":84,"Velocity":57,"Duration":474683,"SoundDuration":474683,"Delta":10498645},{"NoteNumber":32,"Velocity":25,"Duration":142405,"SoundDuration":142405,"Delta":10498645},{"NoteNumber":41,"Velocity":30,"Duration":142405,"SoundDuration":142405,"Delta":10498645},{"NoteNumber":32,"Velocity":25,"Duration":142405,"SoundDuration":142405,"Delta":10688519},{"NoteNumber":41,"Velocity":30,"Duration":142405,"SoundDuration":142405,"Delta":10688519},{"NoteNumber":32,"Velocity":25,"Duration":142405,"SoundDuration":142405,"Delta":10878392},{"NoteNumber":41,"Velocity":30,"Duration":142405,"SoundDuration":142405,"Delta":10878392},{"NoteNumber":82,"Velocity":50,"Duration":94936,"SoundDuration":94936,"Delta":10973329},{"NoteNumber":80,"Velocity":49,"Duration":94936,"SoundDuration":94936,"Delta":11068266},{"NoteNumber":32,"Velocity":25,"Duration":142405,"SoundDuration":142405,"Delta":11068266},{"NoteNumber":41,"Velocity":30,"Duration":142405,"SoundDuration":142405,"Delta":11068266},{"NoteNumber":79,"Velocity":47,"Duration":94936,"SoundDuration":94936,"Delta":11163203},{"NoteNumber":77,"Velocity":46,"Duration":189873,"SoundDuration":189873,"Delta":11258139},{"NoteNumber":32,"Velocity":25,"Duration":142405,"SoundDuration":142405,"Delta":11258139},{"NoteNumber":41,"Velocity":30,"Duration":142405,"SoundDuration":142405,"Delta":11258139},{"NoteNumber":32,"Velocity":25,"Duration":142405,"SoundDuration":142405,"Delta":11448013},{"NoteNumber":41,"Velocity":30,"Duration":142405,"SoundDuration":142405,"Delta":11448013},{"NoteNumber":32,"Velocity":25,"Duration":143926,"SoundDuration":143926,"Delta":11638224},{"NoteNumber":41,"Velocity":30,"Duration":143926,"SoundDuration":143926,"Delta":11638224},{"NoteNumber":32,"Velocity":25,"Duration":143926,"SoundDuration":143926,"Delta":11830126},{"NoteNumber":41,"Velocity":30,"Duration":143926,"SoundDuration":143926,"Delta":11830126},{"NoteNumber":88,"Velocity":67,"Duration":47975,"SoundDuration":47975,"Delta":11974052},{"NoteNumber":89,"Velocity":73,"Duration":1120535,"SoundDuration":1120535,"Delta":12022027},{"NoteNumber":31,"Velocity":30,"Duration":140213,"SoundDuration":140213,"Delta":12022027},{"NoteNumber":41,"Velocity":36,"Duration":140213,"SoundDuration":140213,"Delta":12022027},{"NoteNumber":31,"Velocity":32,"Duration":140213,"SoundDuration":140213,"Delta":12208978},{"NoteNumber":41,"Velocity":38,"Duration":140213,"SoundDuration":140213,"Delta":12208978},{"NoteNumber":31,"Velocity":33,"Duration":139318,"SoundDuration":139318,"Delta":12395929},{"NoteNumber":41,"Velocity":39,"Duration":139318,"SoundDuration":139318,"Delta":12395929},{"NoteNumber":31,"Velocity":34,"Duration":139318,"SoundDuration":139318,"Delta":12581688},{"NoteNumber":41,"Velocity":41,"Duration":139318,"SoundDuration":139318,"Delta":12581688},{"NoteNumber":31,"Velocity":36,"Duration":140668,"SoundDuration":140668,"Delta":12767446},{"NoteNumber":41,"Velocity":43,"Duration":140668,"SoundDuration":140668,"Delta":12767446},{"NoteNumber":31,"Velocity":38,"Duration":140668,"SoundDuration":140668,"Delta":12955005},{"NoteNumber":41,"Velocity":45,"Duration":140668,"SoundDuration":140668,"Delta":12955005},{"NoteNumber":89,"Velocity":74,"Duration":93779,"SoundDuration":93779,"Delta":13142563},{"NoteNumber":32,"Velocity":39,"Duration":140668,"SoundDuration":140668,"Delta":13142563},{"NoteNumber":41,"Velocity":46,"Duration":140668,"SoundDuration":140668,"Delta":13142563},{"NoteNumber":87,"Velocity":73,"Duration":93779,"SoundDuration":93779,"Delta":13236343},{"NoteNumber":86,"Velocity":71,"Duration":93779,"SoundDuration":93779,"Delta":13330122},{"NoteNumber":32,"Velocity":40,"Duration":140668,"SoundDuration":140668,"Delta":13330122},{"NoteNumber":41,"Velocity":48,"Duration":140668,"SoundDuration":140668,"Delta":13330122},{"NoteNumber":84,"Velocity":70,"Duration":93779,"SoundDuration":93779,"Delta":13423901},{"NoteNumber":83,"Velocity":72,"Duration":93475,"SoundDuration":93475,"Delta":13517680},{"NoteNumber":31,"Velocity":44,"Duration":140213,"SoundDuration":140213,"Delta":13517680},{"NoteNumber":41,"Velocity":52,"Duration":140213,"SoundDuration":140213,"Delta":13517680},{"NoteNumber":84,"Velocity":71,"Duration":93475,"SoundDuration":93475,"Delta":13611156},{"NoteNumber":86,"Velocity":72,"Duration":93475,"SoundDuration":93475,"Delta":13704631},{"NoteNumber":31,"Velocity":44,"Duration":140213,"SoundDuration":140213,"Delta":13704631},{"NoteNumber":41,"Velocity":52,"Duration":140213,"SoundDuration":140213,"Delta":13704631},{"NoteNumber":87,"Velocity":73,"Duration":93475,"SoundDuration":93475,"Delta":13798107},{"NoteNumber":89,"Velocity":74,"Duration":94393,"SoundDuration":94393,"Delta":13891582},{"NoteNumber":32,"Velocity":45,"Duration":141589,"SoundDuration":141589,"Delta":13891582},{"NoteNumber":41,"Velocity":55,"Duration":141589,"SoundDuration":141589,"Delta":13891582},{"NoteNumber":87,"Velocity":72,"Duration":94393,"SoundDuration":94393,"Delta":13985975},{"NoteNumber":86,"Velocity":71,"Duration":94393,"SoundDuration":94393,"Delta":14080368},{"NoteNumber":32,"Velocity":46,"Duration":141589,"SoundDuration":141589,"Delta":14080368},{"NoteNumber":41,"Velocity":55,"Duration":141589,"SoundDuration":141589,"Delta":14080368},{"NoteNumber":84,"Velocity":69,"Duration":94393,"SoundDuration":94393,"Delta":14174761},{"NoteNumber":83,"Velocity":72,"Duration":93475,"SoundDuration":93475,"Delta":14269154},{"NoteNumber":31,"Velocity":48,"Duration":140213,"SoundDuration":140213,"Delta":14269154},{"NoteNumber":41,"Velocity":58,"Duration":140213,"SoundDuration":140213,"Delta":14269154},{"NoteNumber":84,"Velocity":75,"Duration":93475,"SoundDuration":93475,"Delta":14362630},{"NoteNumber":86,"Velocity":77,"Duration":93475,"SoundDuration":93475,"Delta":14456105},{"NoteNumber":31,"Velocity":51,"Duration":140213,"SoundDuration":140213,"Delta":14456105},{"NoteNumber":41,"Velocity":60,"Duration":140213,"SoundDuration":140213,"Delta":14456105},{"NoteNumber":87,"Velocity":80,"Duration":93475,"SoundDuration":93475,"Delta":14549581},{"NoteNumber":89,"Velocity":80,"Duration":93475,"SoundDuration":93475,"Delta":14643056},{"NoteNumber":32,"Velocity":54,"Duration":140213,"SoundDuration":140213,"Delta":14643056},{"NoteNumber":41,"Velocity":64,"Duration":140213,"SoundDuration":140213,"Delta":14643056},{"NoteNumber":87,"Velocity":80,"Duration":93475,"SoundDuration":93475,"Delta":14736532},{"NoteNumber":86,"Velocity":79,"Duration":93475,"SoundDuration":93475,"Delta":14830007},{"NoteNumber":32,"Velocity":56,"Duration":140213,"SoundDuration":140213,"Delta":14830007},{"NoteNumber":41,"Velocity":66,"Duration":140213,"SoundDuration":140213,"Delta":14830007},{"NoteNumber":84,"Velocity":81,"Duration":93475,"SoundDuration":93475,"Delta":14923483},{"NoteNumber":83,"Velocity":85,"Duration":94187,"SoundDuration":94187,"Delta":15016958},{"NoteNumber":31,"Velocity":70,"Duration":392787,"SoundDuration":392787,"Delta":15016958},{"NoteNumber":41,"Velocity":85,"Duration":392787,"SoundDuration":392787,"Delta":15016958},{"NoteNumber":84,"Velocity":89,"Duration":95532,"SoundDuration":95532,"Delta":15111145},{"NoteNumber":86,"Velocity":94,"Duration":98029,"SoundDuration":98029,"Delta":15206678},{"NoteNumber":87,"Velocity":98,"Duration":105038,"SoundDuration":105038,"Delta":15304707},{"NoteNumber":89,"Velocity":100,"Duration":93475,"SoundDuration":93475,"Delta":15409745},{"NoteNumber":43,"Velocity":81,"Duration":937821,"SoundDuration":937821,"Delta":15409745},{"NoteNumber":55,"Velocity":96,"Duration":937821,"SoundDuration":937821,"Delta":15409745},{"NoteNumber":87,"Velocity":98,"Duration":93475,"SoundDuration":93475,"Delta":15503221},{"NoteNumber":86,"Velocity":96,"Duration":93475,"SoundDuration":93475,"Delta":15596696},{"NoteNumber":84,"Velocity":94,"Duration":93475,"SoundDuration":93475,"Delta":15690172},{"NoteNumber":83,"Velocity":93,"Duration":93475,"SoundDuration":93475,"Delta":15783647},{"NoteNumber":80,"Velocity":91,"Duration":93475,"SoundDuration":93475,"Delta":15877123},{"NoteNumber":79,"Velocity":89,"Duration":93475,"SoundDuration":93475,"Delta":15970598},{"NoteNumber":77,"Velocity":87,"Duration":93475,"SoundDuration":93475,"Delta":16064074},{"NoteNumber":75,"Velocity":85,"Duration":95008,"SoundDuration":95008,"Delta":16157549},{"NoteNumber":74,"Velocity":83,"Duration":95008,"SoundDuration":95008,"Delta":16252558},{"NoteNumber":72,"Velocity":81,"Duration":95008,"SoundDuration":95008,"Delta":16347567},{"NoteNumber":57,"Velocity":67,"Duration":95008,"SoundDuration":95008,"Delta":16347567},{"NoteNumber":71,"Velocity":79,"Duration":95008,"SoundDuration":95008,"Delta":16442576},{"NoteNumber":59,"Velocity":70,"Duration":95008,"SoundDuration":95008,"Delta":16442576},{"NoteNumber":72,"Velocity":93,"Duration":149006,"SoundDuration":149006,"Delta":16537584},{"NoteNumber":60,"Velocity":72,"Duration":149006,"SoundDuration":149006,"Delta":16537584},{"NoteNumber":67,"Velocity":83,"Duration":163636,"SoundDuration":163636,"Delta":16934935},{"NoteNumber":43,"Velocity":56,"Duration":163636,"SoundDuration":163636,"Delta":16934935},{"NoteNumber":55,"Velocity":66,"Duration":163636,"SoundDuration":163636,"Delta":16934935},{"NoteNumber":63,"Velocity":72,"Duration":171755,"SoundDuration":171755,"Delta":17371299},{"NoteNumber":39,"Velocity":52,"Duration":171755,"SoundDuration":171755,"Delta":17371299},{"NoteNumber":51,"Velocity":62,"Duration":171755,"SoundDuration":171755,"Delta":17371299},{"NoteNumber":60,"Velocity":64,"Duration":216346,"SoundDuration":216346,"Delta":17829314},{"NoteNumber":36,"Velocity":48,"Duration":216346,"SoundDuration":216346,"Delta":17829314},{"NoteNumber":48,"Velocity":57,"Duration":216346,"SoundDuration":216346,"Delta":17829314},{"NoteNumber":55,"Velocity":60,"Duration":1783324,"SoundDuration":1783324,"Delta":18406237},{"NoteNumber":31,"Velocity":46,"Duration":1783324,"SoundDuration":1783324,"Delta":18406237},{"NoteNumber":43,"Velocity":54,"Duration":1783324,"SoundDuration":1783324,"Delta":18406237},{"NoteNumber":64,"Velocity":37,"Duration":92696,"SoundDuration":92696,"Delta":20189561},{"NoteNumber":36,"Velocity":30,"Duration":1490838,"SoundDuration":1490838,"Delta":20189561},{"NoteNumber":48,"Velocity":30,"Duration":186951,"SoundDuration":186951,"Delta":20189561},{"NoteNumber":60,"Velocity":33,"Duration":93475,"SoundDuration":93475,"Delta":20283037},{"NoteNumber":64,"Velocity":37,"Duration":92696,"SoundDuration":92696,"Delta":20376512},{"NoteNumber":48,"Velocity":31,"Duration":92696,"SoundDuration":92696,"Delta":20376512},{"NoteNumber":60,"Velocity":33,"Duration":93475,"SoundDuration":93475,"Delta":20469988},{"NoteNumber":55,"Velocity":26,"Duration":93475,"SoundDuration":93475,"Delta":20469988},{"NoteNumber":64,"Velocity":37,"Duration":92105,"SoundDuration":92105,"Delta":20563463},{"NoteNumber":48,"Velocity":31,"Duration":92105,"SoundDuration":92105,"Delta":20563463},{"NoteNumber":60,"Velocity":33,"Duration":92879,"SoundDuration":92879,"Delta":20656343},{"NoteNumber":55,"Velocity":27,"Duration":92879,"SoundDuration":92879,"Delta":20656343},{"NoteNumber":64,"Velocity":36,"Duration":92105,"SoundDuration":92105,"Delta":20749222},{"NoteNumber":48,"Velocity":31,"Duration":92105,"SoundDuration":92105,"Delta":20749222},{"NoteNumber":60,"Velocity":33,"Duration":92879,"SoundDuration":92879,"Delta":20842101},{"NoteNumber":55,"Velocity":27,"Duration":92879,"SoundDuration":92879,"Delta":20842101},{"NoteNumber":64,"Velocity":36,"Duration":92105,"SoundDuration":92105,"Delta":20934980},{"NoteNumber":48,"Velocity":31,"Duration":92105,"SoundDuration":92105,"Delta":20934980},{"NoteNumber":60,"Velocity":33,"Duration":92879,"SoundDuration":92879,"Delta":21027860},{"NoteNumber":55,"Velocity":26,"Duration":92879,"SoundDuration":92879,"Delta":21027860},{"NoteNumber":64,"Velocity":37,"Duration":92105,"SoundDuration":92105,"Delta":21120739},{"NoteNumber":48,"Velocity":31,"Duration":92105,"SoundDuration":92105,"Delta":21120739},{"NoteNumber":60,"Velocity":33,"Duration":92879,"SoundDuration":92879,"Delta":21213618},{"NoteNumber":55,"Velocity":27,"Duration":92879,"SoundDuration":92879,"Delta":21213618},{"NoteNumber":64,"Velocity":36,"Duration":92696,"SoundDuration":92696,"Delta":21306497},{"NoteNumber":48,"Velocity":31,"Duration":92696,"SoundDuration":92696,"Delta":21306497},{"NoteNumber":60,"Velocity":33,"Duration":93475,"SoundDuration":93475,"Delta":21399973},{"NoteNumber":55,"Velocity":27,"Duration":93475,"SoundDuration":93475,"Delta":21399973},{"NoteNumber":64,"Velocity":36,"Duration":92696,"SoundDuration":92696,"Delta":21493448},{"NoteNumber":48,"Velocity":31,"Duration":92696,"SoundDuration":92696,"Delta":21493448},{"NoteNumber":60,"Velocity":33,"Duration":93475,"SoundDuration":93475,"Delta":21586924},{"NoteNumber":55,"Velocity":25,"Duration":93475,"SoundDuration":93475,"Delta":21586924},{"NoteNumber":64,"Velocity":37,"Duration":92696,"SoundDuration":92696,"Delta":21680399},{"NoteNumber":48,"Velocity":31,"Duration":92696,"SoundDuration":92696,"Delta":21680399},{"NoteNumber":60,"Velocity":33,"Duration":93475,"SoundDuration":93475,"Delta":21773875},{"NoteNumber":55,"Velocity":26,"Duration":93475,"SoundDuration":93475,"Delta":21773875},{"NoteNumber":64,"Velocity":37,"Duration":92696,"SoundDuration":92696,"Delta":21867350},{"NoteNumber":48,"Velocity":31,"Duration":92696,"SoundDuration":92696,"Delta":21867350},{"NoteNumber":60,"Velocity":33,"Duration":93475,"SoundDuration":93475,"Delta":21960826},{"NoteNumber":55,"Velocity":26,"Duration":93475,"SoundDuration":93475,"Delta":21960826},{"NoteNumber":64,"Velocity":37,"Duration":91809,"SoundDuration":91809,"Delta":22054301},{"NoteNumber":48,"Velocity":31,"Duration":91809,"SoundDuration":91809,"Delta":22054301},{"NoteNumber":60,"Velocity":33,"Duration":92581,"SoundDuration":92581,"Delta":22146883},{"NoteNumber":55,"Velocity":27,"Duration":92581,"SoundDuration":92581,"Delta":22146883},{"NoteNumber":64,"Velocity":36,"Duration":91809,"SoundDuration":91809,"Delta":22239464},{"NoteNumber":48,"Velocity":31,"Duration":91809,"SoundDuration":91809,"Delta":22239464},{"NoteNumber":60,"Velocity":33,"Duration":92581,"SoundDuration":92581,"Delta":22332045},{"NoteNumber":55,"Velocity":27,"Duration":92581,"SoundDuration":92581,"Delta":22332045},{"NoteNumber":64,"Velocity":36,"Duration":91809,"SoundDuration":91809,"Delta":22424626},{"NoteNumber":48,"Velocity":31,"Duration":91809,"SoundDuration":91809,"Delta":22424626},{"NoteNumber":60,"Velocity":33,"Duration":92581,"SoundDuration":92581,"Delta":22517208},{"NoteNumber":55,"Velocity":26,"Duration":92581,"SoundDuration":92581,"Delta":22517208},{"NoteNumber":64,"Velocity":37,"Duration":91809,"SoundDuration":91809,"Delta":22609789},{"NoteNumber":48,"Velocity":31,"Duration":91809,"SoundDuration":91809,"Delta":22609789},{"NoteNumber":60,"Velocity":33,"Duration":92581,"SoundDuration":92581,"Delta":22702370},{"NoteNumber":55,"Velocity":27,"Duration":92581,"SoundDuration":92581,"Delta":22702370},{"NoteNumber":66,"Velocity":36,"Duration":92547,"SoundDuration":92547,"Delta":22794951},{"NoteNumber":48,"Velocity":31,"Duration":92547,"SoundDuration":92547,"Delta":22794951},{"NoteNumber":62,"Velocity":33,"Duration":93475,"SoundDuration":93475,"Delta":22888278},{"NoteNumber":57,"Velocity":27,"Duration":93475,"SoundDuration":93475,"Delta":22888278},{"NoteNumber":66,"Velocity":36,"Duration":92696,"SoundDuration":92696,"Delta":22981753},{"NoteNumber":48,"Velocity":31,"Duration":92696,"SoundDuration":92696,"Delta":22981753},{"NoteNumber":62,"Velocity":33,"Duration":93475,"SoundDuration":93475,"Delta":23075229},{"NoteNumber":57,"Velocity":25,"Duration":93475,"SoundDuration":93475,"Delta":23075229},{"NoteNumber":67,"Velocity":46,"Duration":560853,"SoundDuration":560853,"Delta":23168704},{"NoteNumber":47,"Velocity":26,"Duration":140213,"SoundDuration":140213,"Delta":23168704},{"NoteNumber":50,"Velocity":31,"Duration":140213,"SoundDuration":140213,"Delta":23168704},{"NoteNumber":55,"Velocity":25,"Duration":93475,"SoundDuration":93475,"Delta":23262180},{"NoteNumber":47,"Velocity":26,"Duration":140213,"SoundDuration":140213,"Delta":23355655},{"NoteNumber":50,"Velocity":31,"Duration":140213,"SoundDuration":140213,"Delta":23355655},{"NoteNumber":55,"Velocity":25,"Duration":93475,"SoundDuration":93475,"Delta":23449131},{"NoteNumber":47,"Velocity":26,"Duration":140213,"SoundDuration":140213,"Delta":23542606},{"NoteNumber":50,"Velocity":31,"Duration":140213,"SoundDuration":140213,"Delta":23542606},{"NoteNumber":55,"Velocity":25,"Duration":93475,"SoundDuration":93475,"Delta":23636082},{"NoteNumber":71,"Velocity":40,"Duration":93475,"SoundDuration":93475,"Delta":23729557},{"NoteNumber":47,"Velocity":26,"Duration":140213,"SoundDuration":140213,"Delta":23729557},{"NoteNumber":50,"Velocity":31,"Duration":140213,"SoundDuration":140213,"Delta":23729557},{"NoteNumber":69,"Velocity":40,"Duration":93475,"SoundDuration":93475,"Delta":23823033},{"NoteNumber":55,"Velocity":25,"Duration":93475,"SoundDuration":93475,"Delta":23823033},{"NoteNumber":67,"Velocity":45,"Duration":93475,"SoundDuration":93475,"Delta":23916508},{"NoteNumber":47,"Velocity":26,"Duration":140213,"SoundDuration":140213,"Delta":23916508},{"NoteNumber":50,"Velocity":31,"Duration":140213,"SoundDuration":140213,"Delta":23916508},{"NoteNumber":55,"Velocity":25,"Duration":93475,"SoundDuration":93475,"Delta":24009984},{"NoteNumber":47,"Velocity":26,"Duration":140213,"SoundDuration":140213,"Delta":24103459},{"NoteNumber":50,"Velocity":31,"Duration":140213,"SoundDuration":140213,"Delta":24103459},{"NoteNumber":55,"Velocity":25,"Duration":93475,"SoundDuration":93475,"Delta":24196935},{"NoteNumber":47,"Velocity":26,"Duration":140213,"SoundDuration":140213,"Delta":24290410},{"NoteNumber":50,"Velocity":31,"Duration":140213,"SoundDuration":140213,"Delta":24290410},{"NoteNumber":55,"Velocity":25,"Duration":93475,"SoundDuration":93475,"Delta":24383886},{"NoteNumber":47,"Velocity":26,"Duration":145161,"SoundDuration":145161,"Delta":24477361},{"NoteNumber":50,"Velocity":31,"Duration":145161,"SoundDuration":145161,"Delta":24477361},{"NoteNumber":55,"Velocity":25,"Duration":96774,"SoundDuration":96774,"Delta":24574136},{"NoteNumber":85,"Velocity":46,"Duration":48387,"SoundDuration":48387,"Delta":24622523},{"NoteNumber":86,"Velocity":57,"Duration":473186,"SoundDuration":473186,"Delta":24670910},{"NoteNumber":47,"Velocity":26,"Duration":141955,"SoundDuration":141955,"Delta":24670910},{"NoteNumber":50,"Velocity":31,"Duration":141955,"SoundDuration":141955,"Delta":24670910},{"NoteNumber":55,"Velocity":25,"Duration":94637,"SoundDuration":94637,"Delta":24765547},{"NoteNumber":47,"Velocity":26,"Duration":141955,"SoundDuration":141955,"Delta":24860184},{"NoteNumber":50,"Velocity":31,"Duration":141955,"SoundDuration":141955,"Delta":24860184},{"NoteNumber":55,"Velocity":25,"Duration":94637,"SoundDuration":94637,"Delta":24954822},{"NoteNumber":47,"Velocity":26,"Duration":141955,"SoundDuration":141955,"Delta":25049459},{"NoteNumber":50,"Velocity":31,"Duration":141955,"SoundDuration":141955,"Delta":25049459},{"NoteNumber":84,"Velocity":48,"Duration":94637,"SoundDuration":94637,"Delta":25144096},{"NoteNumber":55,"Velocity":25,"Duration":94637,"SoundDuration":94637,"Delta":25144096},{"NoteNumber":83,"Velocity":47,"Duration":94637,"SoundDuration":94637,"Delta":25238733},{"NoteNumber":47,"Velocity":26,"Duration":141955,"SoundDuration":141955,"Delta":25238733},{"NoteNumber":50,"Velocity":31,"Duration":141955,"SoundDuration":141955,"Delta":25238733},{"NoteNumber":81,"Velocity":45,"Duration":94637,"SoundDuration":94637,"Delta":25333371},{"NoteNumber":55,"Velocity":25,"Duration":94637,"SoundDuration":94637,"Delta":25333371},{"NoteNumber":79,"Velocity":44,"Duration":189274,"SoundDuration":189274,"Delta":25428008},{"NoteNumber":47,"Velocity":26,"Duration":141955,"SoundDuration":141955,"Delta":25428008},{"NoteNumber":50,"Velocity":31,"Duration":141955,"SoundDuration":141955,"Delta":25428008},{"NoteNumber":55,"Velocity":25,"Duration":94637,"SoundDuration":94637,"Delta":25522645},{"NoteNumber":47,"Velocity":26,"Duration":141955,"SoundDuration":141955,"Delta":25617282},{"NoteNumber":50,"Velocity":31,"Duration":141955,"SoundDuration":141955,"Delta":25617282},{"NoteNumber":55,"Velocity":25,"Duration":94637,"SoundDuration":94637,"Delta":25711920},{"NoteNumber":47,"Velocity":26,"Duration":141955,"SoundDuration":141955,"Delta":25806557},{"NoteNumber":50,"Velocity":31,"Duration":141955,"SoundDuration":141955,"Delta":25806557},{"NoteNumber":55,"Velocity":25,"Duration":94637,"SoundDuration":94637,"Delta":25901194},{"NoteNumber":47,"Velocity":26,"Duration":144406,"SoundDuration":144406,"Delta":25995831},{"NoteNumber":50,"Velocity":31,"Duration":144406,"SoundDuration":144406,"Delta":25995831},{"NoteNumber":55,"Velocity":25,"Duration":96270,"SoundDuration":96270,"Delta":26092102},{"NoteNumber":65,"Velocity":40,"Duration":92696,"SoundDuration":92696,"Delta":26188373},{"NoteNumber":38,"Velocity":33,"Duration":1490892,"SoundDuration":1490892,"Delta":26188373},{"NoteNumber":50,"Velocity":33,"Duration":186951,"SoundDuration":186951,"Delta":26188373},{"NoteNumber":62,"Velocity":36,"Duration":93475,"SoundDuration":93475,"Delta":26281849},{"NoteNumber":65,"Velocity":40,"Duration":92696,"SoundDuration":92696,"Delta":26375324},{"NoteNumber":50,"Velocity":34,"Duration":92696,"SoundDuration":92696,"Delta":26375324},{"NoteNumber":62,"Velocity":36,"Duration":93475,"SoundDuration":93475,"Delta":26468800},{"NoteNumber":57,"Velocity":28,"Duration":93475,"SoundDuration":93475,"Delta":26468800},{"NoteNumber":65,"Velocity":40,"Duration":91809,"SoundDuration":91809,"Delta":26562275},{"NoteNumber":50,"Velocity":34,"Duration":91809,"SoundDuration":91809,"Delta":26562275},{"NoteNumber":62,"Velocity":36,"Duration":92581,"SoundDuration":92581,"Delta":26654857},{"NoteNumber":57,"Velocity":29,"Duration":92581,"SoundDuration":92581,"Delta":26654857},{"NoteNumber":65,"Velocity":39,"Duration":91809,"SoundDuration":91809,"Delta":26747438},{"NoteNumber":50,"Velocity":34,"Duration":91809,"SoundDuration":91809,"Delta":26747438},{"NoteNumber":62,"Velocity":36,"Duration":92581,"SoundDuration":92581,"Delta":26840019},{"NoteNumber":57,"Velocity":29,"Duration":92581,"SoundDuration":92581,"Delta":26840019},{"NoteNumber":65,"Velocity":39,"Duration":91809,"SoundDuration":91809,"Delta":26932600},{"NoteNumber":50,"Velocity":34,"Duration":91809,"SoundDuration":91809,"Delta":26932600},{"NoteNumber":62,"Velocity":36,"Duration":92581,"SoundDuration":92581,"Delta":27025182},{"NoteNumber":57,"Velocity":28,"Duration":92581,"SoundDuration":92581,"Delta":27025182},{"NoteNumber":65,"Velocity":41,"Duration":91809,"SoundDuration":91809,"Delta":27117763},{"NoteNumber":50,"Velocity":34,"Duration":91809,"SoundDuration":91809,"Delta":27117763},{"NoteNumber":62,"Velocity":36,"Duration":92581,"SoundDuration":92581,"Delta":27210344},{"NoteNumber":57,"Velocity":29,"Duration":92581,"SoundDuration":92581,"Delta":27210344},{"NoteNumber":65,"Velocity":40,"Duration":93301,"SoundDuration":93301,"Delta":27302925},{"NoteNumber":50,"Velocity":34,"Duration":93301,"SoundDuration":93301,"Delta":27302925},{"NoteNumber":62,"Velocity":37,"Duration":94085,"SoundDuration":94085,"Delta":27397011},{"NoteNumber":57,"Velocity":30,"Duration":94085,"SoundDuration":94085,"Delta":27397011},{"NoteNumber":65,"Velocity":40,"Duration":93301,"SoundDuration":93301,"Delta":27491096},{"NoteNumber":50,"Velocity":35,"Duration":93301,"SoundDuration":93301,"Delta":27491096},{"NoteNumber":62,"Velocity":37,"Duration":94085,"SoundDuration":94085,"Delta":27585181},{"NoteNumber":57,"Velocity":28,"Duration":94085,"SoundDuration":94085,"Delta":27585181},{"NoteNumber":65,"Velocity":41,"Duration":92696,"SoundDuration":92696,"Delta":27679266},{"NoteNumber":50,"Velocity":35,"Duration":92696,"SoundDuration":92696,"Delta":27679266},{"NoteNumber":62,"Velocity":37,"Duration":93475,"SoundDuration":93475,"Delta":27772742},{"NoteNumber":57,"Velocity":29,"Duration":93475,"SoundDuration":93475,"Delta":27772742},{"NoteNumber":65,"Velocity":41,"Duration":92696,"SoundDuration":92696,"Delta":27866217},{"NoteNumber":50,"Velocity":35,"Duration":92696,"SoundDuration":92696,"Delta":27866217},{"NoteNumber":62,"Velocity":37,"Duration":93475,"SoundDuration":93475,"Delta":27959693},{"NoteNumber":57,"Velocity":29,"Duration":93475,"SoundDuration":93475,"Delta":27959693},{"NoteNumber":65,"Velocity":42,"Duration":92105,"SoundDuration":92105,"Delta":28053168},{"NoteNumber":50,"Velocity":35,"Duration":92105,"SoundDuration":92105,"Delta":28053168},{"NoteNumber":62,"Velocity":37,"Duration":92879,"SoundDuration":92879,"Delta":28146048},{"NoteNumber":57,"Velocity":30,"Duration":92879,"SoundDuration":92879,"Delta":28146048},{"NoteNumber":65,"Velocity":41,"Duration":92105,"SoundDuration":92105,"Delta":28238927},{"NoteNumber":50,"Velocity":35,"Duration":92105,"SoundDuration":92105,"Delta":28238927},{"NoteNumber":62,"Velocity":38,"Duration":92879,"SoundDuration":92879,"Delta":28331806},{"NoteNumber":57,"Velocity":30,"Duration":92879,"SoundDuration":92879,"Delta":28331806},{"NoteNumber":65,"Velocity":41,"Duration":93100,"SoundDuration":93100,"Delta":28424685},{"NoteNumber":50,"Velocity":36,"Duration":93100,"SoundDuration":93100,"Delta":28424685},{"NoteNumber":62,"Velocity":38,"Duration":94085,"SoundDuration":94085,"Delta":28518570},{"NoteNumber":57,"Velocity":29,"Duration":94085,"SoundDuration":94085,"Delta":28518570},{"NoteNumber":65,"Velocity":42,"Duration":93301,"SoundDuration":93301,"Delta":28612655},{"NoteNumber":50,"Velocity":36,"Duration":93301,"SoundDuration":93301,"Delta":28612655},{"NoteNumber":62,"Velocity":38,"Duration":94085,"SoundDuration":94085,"Delta":28706740},{"NoteNumber":57,"Velocity":31,"Duration":94085,"SoundDuration":94085,"Delta":28706740},{"NoteNumber":68,"Velocity":41,"Duration":93301,"SoundDuration":93301,"Delta":28800825},{"NoteNumber":50,"Velocity":36,"Duration":93301,"SoundDuration":93301,"Delta":28800825},{"NoteNumber":64,"Velocity":38,"Duration":94085,"SoundDuration":94085,"Delta":28894911},{"NoteNumber":59,"Velocity":31,"Duration":94085,"SoundDuration":94085,"Delta":28894911},{"NoteNumber":68,"Velocity":42,"Duration":93301,"SoundDuration":93301,"Delta":28988996},{"NoteNumber":50,"Velocity":36,"Duration":93301,"SoundDuration":93301,"Delta":28988996},{"NoteNumber":64,"Velocity":38,"Duration":94085,"SoundDuration":94085,"Delta":29083081},{"NoteNumber":59,"Velocity":29,"Duration":94085,"SoundDuration":94085,"Delta":29083081},{"NoteNumber":69,"Velocity":55,"Duration":560853,"SoundDuration":560853,"Delta":29177166},{"NoteNumber":48,"Velocity":30,"Duration":140213,"SoundDuration":140213,"Delta":29177166},{"NoteNumber":52,"Velocity":37,"Duration":140213,"SoundDuration":140213,"Delta":29177166},{"NoteNumber":57,"Velocity":29,"Duration":93475,"SoundDuration":93475,"Delta":29270642},{"NoteNumber":48,"Velocity":30,"Duration":140213,"SoundDuration":140213,"Delta":29364117},{"NoteNumber":52,"Velocity":37,"Duration":140213,"SoundDuration":140213,"Delta":29364117},{"NoteNumber":57,"Velocity":29,"Duration":93475,"SoundDuration":93475,"Delta":29457593},{"NoteNumber":48,"Velocity":30,"Duration":140213,"SoundDuration":140213,"Delta":29551068},{"NoteNumber":52,"Velocity":37,"Duration":140213,"SoundDuration":140213,"Delta":29551068},{"NoteNumber":57,"Velocity":29,"Duration":93475,"SoundDuration":93475,"Delta":29644544},{"NoteNumber":72,"Velocity":48,"Duration":93475,"SoundDuration":93475,"Delta":29738019},{"NoteNumber":48,"Velocity":30,"Duration":140213,"SoundDuration":140213,"Delta":29738019},{"NoteNumber":52,"Velocity":37,"Duration":140213,"SoundDuration":140213,"Delta":29738019},{"NoteNumber":71,"Velocity":48,"Duration":93475,"SoundDuration":93475,"Delta":29831495},{"NoteNumber":57,"Velocity":29,"Duration":93475,"SoundDuration":93475,"Delta":29831495},{"NoteNumber":69,"Velocity":53,"Duration":93475,"SoundDuration":93475,"Delta":29924970},{"NoteNumber":48,"Velocity":30,"Duration":140213,"SoundDuration":140213,"Delta":29924970},{"NoteNumber":52,"Velocity":37,"Duration":140213,"SoundDuration":140213,"Delta":29924970},{"NoteNumber":57,"Velocity":29,"Duration":93475,"SoundDuration":93475,"Delta":30018446},{"NoteNumber":48,"Velocity":30,"Duration":140213,"SoundDuration":140213,"Delta":30111921},{"NoteNumber":52,"Velocity":37,"Duration":140213,"SoundDuration":140213,"Delta":30111921},{"NoteNumber":57,"Velocity":29,"Duration":93475,"SoundDuration":93475,"Delta":30205397},{"NoteNumber":48,"Velocity":30,"Duration":140213,"SoundDuration":140213,"Delta":30298872},{"NoteNumber":52,"Velocity":37,"Duration":140213,"SoundDuration":140213,"Delta":30298872},{"NoteNumber":57,"Velocity":29,"Duration":93475,"SoundDuration":93475,"Delta":30392348},{"NoteNumber":48,"Velocity":30,"Duration":145631,"SoundDuration":145631,"Delta":30485823},{"NoteNumber":52,"Velocity":37,"Duration":145631,"SoundDuration":145631,"Delta":30485823},{"NoteNumber":57,"Velocity":29,"Duration":97087,"SoundDuration":97087,"Delta":30582911},{"NoteNumber":87,"Velocity":55,"Duration":48543,"SoundDuration":48543,"Delta":30631455},{"NoteNumber":88,"Velocity":68,"Duration":473186,"SoundDuration":473186,"Delta":30679998},{"NoteNumber":48,"Velocity":30,"Duration":141955,"SoundDuration":141955,"Delta":30679998},{"NoteNumber":52,"Velocity":37,"Duration":141955,"SoundDuration":141955,"Delta":30679998},{"NoteNumber":57,"Velocity":29,"Duration":94637,"SoundDuration":94637,"Delta":30774636},{"NoteNumber":48,"Velocity":30,"Duration":141955,"SoundDuration":141955,"Delta":30869273},{"NoteNumber":52,"Velocity":37,"Duration":141955,"SoundDuration":141955,"Delta":30869273},{"NoteNumber":57,"Velocity":29,"Duration":94637,"SoundDuration":94637,"Delta":30963910},{"NoteNumber":48,"Velocity":30,"Duration":141955,"SoundDuration":141955,"Delta":31058547},{"NoteNumber":52,"Velocity":37,"Duration":141955,"SoundDuration":141955,"Delta":31058547},{"NoteNumber":86,"Velocity":59,"Duration":94637,"SoundDuration":94637,"Delta":31153185},{"NoteNumber":57,"Velocity":29,"Duration":94637,"SoundDuration":94637,"Delta":31153185},{"NoteNumber":84,"Velocity":58,"Duration":94637,"SoundDuration":94637,"Delta":31247822},{"NoteNumber":48,"Velocity":30,"Duration":141955,"SoundDuration":141955,"Delta":31247822},{"NoteNumber":52,"Velocity":39,"Duration":141955,"SoundDuration":141955,"Delta":31247822},{"NoteNumber":83,"Velocity":57,"Duration":94637,"SoundDuration":94637,"Delta":31342459},{"NoteNumber":57,"Velocity":31,"Duration":94637,"SoundDuration":94637,"Delta":31342459},{"NoteNumber":81,"Velocity":57,"Duration":189274,"SoundDuration":189274,"Delta":31437096},{"NoteNumber":48,"Velocity":32,"Duration":141955,"SoundDuration":141955,"Delta":31437096},{"NoteNumber":52,"Velocity":39,"Duration":141955,"SoundDuration":141955,"Delta":31437096},{"NoteNumber":57,"Velocity":31,"Duration":94637,"SoundDuration":94637,"Delta":31531734},{"NoteNumber":48,"Velocity":32,"Duration":141955,"SoundDuration":141955,"Delta":31626371},{"NoteNumber":52,"Velocity":41,"Duration":141955,"SoundDuration":141955,"Delta":31626371},{"NoteNumber":57,"Velocity":31,"Duration":94637,"SoundDuration":94637,"Delta":31721008},{"NoteNumber":48,"Velocity":33,"Duration":141955,"SoundDuration":141955,"Delta":31815645},{"NoteNumber":52,"Velocity":41,"Duration":141955,"SoundDuration":141955,"Delta":31815645},{"NoteNumber":57,"Velocity":33,"Duration":94637,"SoundDuration":94637,"Delta":31910283},{"NoteNumber":48,"Velocity":35,"Duration":144406,"SoundDuration":144406,"Delta":32004920},{"NoteNumber":52,"Velocity":42,"Duration":144406,"SoundDuration":144406,"Delta":32004920},{"NoteNumber":57,"Velocity":33,"Duration":96271,"SoundDuration":96271,"Delta":32101191},{"NoteNumber":87,"Velocity":66,"Duration":48135,"SoundDuration":48135,"Delta":32149326},{"NoteNumber":88,"Velocity":85,"Duration":474683,"SoundDuration":474683,"Delta":32197462},{"NoteNumber":48,"Velocity":37,"Duration":142405,"SoundDuration":142405,"Delta":32197462},{"NoteNumber":52,"Velocity":45,"Duration":142405,"SoundDuration":142405,"Delta":32197462},{"NoteNumber":58,"Velocity":36,"Duration":94936,"SoundDuration":94936,"Delta":32292399},{"NoteNumber":48,"Velocity":38,"Duration":142405,"SoundDuration":142405,"Delta":32387335},{"NoteNumber":52,"Velocity":45,"Duration":142405,"SoundDuration":142405,"Delta":32387335},{"NoteNumber":58,"Velocity":37,"Duration":94936,"SoundDuration":94936,"Delta":32482272},{"NoteNumber":48,"Velocity":39,"Duration":142405,"SoundDuration":142405,"Delta":32577209},{"NoteNumber":52,"Velocity":47,"Duration":142405,"SoundDuration":142405,"Delta":32577209},{"NoteNumber":86,"Velocity":76,"Duration":94936,"SoundDuration":94936,"Delta":32672146},{"NoteNumber":58,"Velocity":38,"Duration":94936,"SoundDuration":94936,"Delta":32672146},{"NoteNumber":84,"Velocity":75,"Duration":94936,"SoundDuration":94936,"Delta":32767082},{"NoteNumber":48,"Velocity":39,"Duration":142405,"SoundDuration":142405,"Delta":32767082},{"NoteNumber":52,"Velocity":47,"Duration":142405,"SoundDuration":142405,"Delta":32767082},{"NoteNumber":83,"Velocity":71,"Duration":94936,"SoundDuration":94936,"Delta":32862019},{"NoteNumber":58,"Velocity":38,"Duration":94936,"SoundDuration":94936,"Delta":32862019},{"NoteNumber":82,"Velocity":71,"Duration":189873,"SoundDuration":189873,"Delta":32956956},{"NoteNumber":48,"Velocity":41,"Duration":142405,"SoundDuration":142405,"Delta":32956956},{"NoteNumber":52,"Velocity":50,"Duration":142405,"SoundDuration":142405,"Delta":32956956},{"NoteNumber":58,"Velocity":40,"Duration":94936,"SoundDuration":94936,"Delta":33051893},{"NoteNumber":48,"Velocity":41,"Duration":142405,"SoundDuration":142405,"Delta":33146829},{"NoteNumber":52,"Velocity":51,"Duration":142405,"SoundDuration":142405,"Delta":33146829},{"NoteNumber":58,"Velocity":40,"Duration":94936,"SoundDuration":94936,"Delta":33241766},{"NoteNumber":48,"Velocity":42,"Duration":142405,"SoundDuration":142405,"Delta":33336703},{"NoteNumber":52,"Velocity":51,"Duration":142405,"SoundDuration":142405,"Delta":33336703},{"NoteNumber":58,"Velocity":42,"Duration":94936,"SoundDuration":94936,"Delta":33431640},{"NoteNumber":48,"Velocity":43,"Duration":147058,"SoundDuration":147058,"Delta":33526576},{"NoteNumber":52,"Velocity":53,"Duration":147058,"SoundDuration":147058,"Delta":33526576},{"NoteNumber":58,"Velocity":42,"Duration":98039,"SoundDuration":98039,"Delta":33624616},{"NoteNumber":83,"Velocity":56,"Duration":482956,"SoundDuration":482956,"Delta":33722655},{"NoteNumber":47,"Velocity":40,"Duration":109054,"SoundDuration":109054,"Delta":33722655},{"NoteNumber":51,"Velocity":35,"Duration":109054,"SoundDuration":109054,"Delta":33816130},{"NoteNumber":54,"Velocity":35,"Duration":109054,"SoundDuration":109054,"Delta":33909606},{"NoteNumber":59,"Velocity":35,"Duration":93475,"SoundDuration":93475,"Delta":34003081},{"NoteNumber":47,"Velocity":41,"Duration":109054,"SoundDuration":109054,"Delta":34096557},{"NoteNumber":81,"Velocity":54,"Duration":109054,"SoundDuration":109054,"Delta":34190032},{"NoteNumber":51,"Velocity":35,"Duration":109054,"SoundDuration":109054,"Delta":34190032},{"NoteNumber":79,"Velocity":53,"Duration":109054,"SoundDuration":109054,"Delta":34283508},{"NoteNumber":54,"Velocity":35,"Duration":109054,"SoundDuration":109054,"Delta":34283508},{"NoteNumber":78,"Velocity":51,"Duration":109054,"SoundDuration":109054,"Delta":34376983},{"NoteNumber":59,"Velocity":35,"Duration":93475,"SoundDuration":93475,"Delta":34376983},{"NoteNumber":79,"Velocity":53,"Duration":109054,"SoundDuration":109054,"Delta":34470459},{"NoteNumber":47,"Velocity":39,"Duration":109054,"SoundDuration":109054,"Delta":34470459},{"NoteNumber":78,"Velocity":52,"Duration":109054,"SoundDuration":109054,"Delta":34563934},{"NoteNumber":52,"Velocity":35,"Duration":109054,"SoundDuration":109054,"Delta":34563934},{"NoteNumber":76,"Velocity":51,"Duration":109054,"SoundDuration":109054,"Delta":34657410},{"NoteNumber":55,"Velocity":35,"Duration":109054,"SoundDuration":109054,"Delta":34657410},{"NoteNumber":75,"Velocity":50,"Duration":109054,"SoundDuration":109054,"Delta":34750885},{"NoteNumber":59,"Velocity":35,"Duration":93475,"SoundDuration":93475,"Delta":34750885},{"NoteNumber":76,"Velocity":50,"Duration":109054,"SoundDuration":109054,"Delta":34844361},{"NoteNumber":47,"Velocity":40,"Duration":109054,"SoundDuration":109054,"Delta":34844361},{"NoteNumber":79,"Velocity":52,"Duration":109054,"SoundDuration":109054,"Delta":34937836},{"NoteNumber":52,"Velocity":35,"Duration":109054,"SoundDuration":109054,"Delta":34937836},{"NoteNumber":78,"Velocity":50,"Duration":109054,"SoundDuration":109054,"Delta":35031312},{"NoteNumber":55,"Velocity":35,"Duration":109054,"SoundDuration":109054,"Delta":35031312},{"NoteNumber":76,"Velocity":50,"Duration":109054,"SoundDuration":109054,"Delta":35124787},{"NoteNumber":59,"Velocity":35,"Duration":93475,"SoundDuration":93475,"Delta":35124787},{"NoteNumber":75,"Velocity":50,"Duration":109054,"SoundDuration":109054,"Delta":35218263},{"NoteNumber":47,"Velocity":40,"Duration":109054,"SoundDuration":109054,"Delta":35218263},{"NoteNumber":73,"Velocity":49,"Duration":109054,"SoundDuration":109054,"Delta":35311738},{"NoteNumber":54,"Velocity":35,"Duration":109054,"SoundDuration":109054,"Delta":35311738},{"NoteNumber":71,"Velocity":48,"Duration":109307,"SoundDuration":109307,"Delta":35405214},{"NoteNumber":57,"Velocity":35,"Duration":109307,"SoundDuration":109307,"Delta":35405214},{"NoteNumber":70,"Velocity":47,"Duration":109409,"SoundDuration":109409,"Delta":35498892},{"NoteNumber":59,"Velocity":35,"Duration":93779,"SoundDuration":93779,"Delta":35498892},{"NoteNumber":71,"Velocity":49,"Duration":109460,"SoundDuration":109460,"Delta":35592671},{"NoteNumber":47,"Velocity":40,"Duration":109460,"SoundDuration":109460,"Delta":35592671},{"NoteNumber":73,"Velocity":49,"Duration":109766,"SoundDuration":109766,"Delta":35686450},{"NoteNumber":54,"Velocity":35,"Duration":109766,"SoundDuration":109766,"Delta":35686450},{"NoteNumber":74,"Velocity":49,"Duration":109766,"SoundDuration":109766,"Delta":35780536},{"NoteNumber":57,"Velocity":35,"Duration":109766,"SoundDuration":109766,"Delta":35780536},{"NoteNumber":75,"Velocity":50,"Duration":109920,"SoundDuration":109920,"Delta":35874621},{"NoteNumber":59,"Velocity":35,"Duration":94187,"SoundDuration":94187,"Delta":35874621},{"NoteNumber":76,"Velocity":50,"Duration":110125,"SoundDuration":110125,"Delta":35968809},{"NoteNumber":47,"Velocity":40,"Duration":110125,"SoundDuration":110125,"Delta":35968809},{"NoteNumber":75,"Velocity":50,"Duration":110125,"SoundDuration":110125,"Delta":36063202},{"NoteNumber":52,"Velocity":35,"Duration":110125,"SoundDuration":110125,"Delta":36063202},{"NoteNumber":76,"Velocity":51,"Duration":110378,"SoundDuration":110378,"Delta":36157595},{"NoteNumber":55,"Velocity":35,"Duration":110378,"SoundDuration":110378,"Delta":36157595},{"NoteNumber":78,"Velocity":51,"Duration":110479,"SoundDuration":110479,"Delta":36252190},{"NoteNumber":59,"Velocity":35,"Duration":94697,"SoundDuration":94697,"Delta":36252190},{"NoteNumber":79,"Velocity":49,"Duration":110531,"SoundDuration":110531,"Delta":36346887},{"NoteNumber":47,"Velocity":40,"Duration":110531,"SoundDuration":110531,"Delta":36346887},{"NoteNumber":80,"Velocity":50,"Duration":110843,"SoundDuration":110843,"Delta":36441584},{"NoteNumber":52,"Velocity":35,"Duration":110843,"SoundDuration":110843,"Delta":36441584},{"NoteNumber":81,"Velocity":52,"Duration":110843,"SoundDuration":110843,"Delta":36536593},{"NoteNumber":55,"Velocity":35,"Duration":110843,"SoundDuration":110843,"Delta":36536593},{"NoteNumber":82,"Velocity":53,"Duration":110898,"SoundDuration":110898,"Delta":36631602},{"NoteNumber":59,"Velocity":35,"Duration":95218,"SoundDuration":95218,"Delta":36631602},{"NoteNumber":83,"Velocity":55,"Duration":109766,"SoundDuration":109766,"Delta":36726820},{"NoteNumber":47,"Velocity":40,"Duration":109766,"SoundDuration":109766,"Delta":36726820},{"NoteNumber":82,"Velocity":53,"Duration":109766,"SoundDuration":109766,"Delta":36820905},{"NoteNumber":51,"Velocity":35,"Duration":109766,"SoundDuration":109766,"Delta":36820905},{"NoteNumber":83,"Velocity":53,"Duration":109613,"SoundDuration":109613,"Delta":36914991},{"NoteNumber":54,"Velocity":35,"Duration":109613,"SoundDuration":109613,"Delta":36914991},{"NoteNumber":82,"Velocity":50,"Duration":109409,"SoundDuration":109409,"Delta":37008974},{"NoteNumber":59,"Velocity":35,"Duration":93779,"SoundDuration":93779,"Delta":37008974},{"NoteNumber":83,"Velocity":52,"Duration":109409,"SoundDuration":109409,"Delta":37102753},{"NoteNumber":47,"Velocity":40,"Duration":109409,"SoundDuration":109409,"Delta":37102753},{"NoteNumber":81,"Velocity":52,"Duration":109155,"SoundDuration":109155,"Delta":37196532},{"NoteNumber":51,"Velocity":35,"Duration":109155,"SoundDuration":109155,"Delta":37196532},{"NoteNumber":79,"Velocity":51,"Duration":109054,"SoundDuration":109054,"Delta":37290109},{"NoteNumber":54,"Velocity":35,"Duration":109054,"SoundDuration":109054,"Delta":37290109},{"NoteNumber":78,"Velocity":50,"Duration":109054,"SoundDuration":109054,"Delta":37383585},{"NoteNumber":59,"Velocity":35,"Duration":93475,"SoundDuration":93475,"Delta":37383585},{"NoteNumber":79,"Velocity":52,"Duration":109054,"SoundDuration":109054,"Delta":37477060},{"NoteNumber":47,"Velocity":40,"Duration":109054,"SoundDuration":109054,"Delta":37477060},{"NoteNumber":78,"Velocity":51,"Duration":109054,"SoundDuration":109054,"Delta":37570536},{"NoteNumber":52,"Velocity":35,"Duration":109054,"SoundDuration":109054,"Delta":37570536},{"NoteNumber":76,"Velocity":49,"Duration":109054,"SoundDuration":109054,"Delta":37664011},{"NoteNumber":55,"Velocity":35,"Duration":109054,"SoundDuration":109054,"Delta":37664011},{"NoteNumber":75,"Velocity":50,"Duration":109054,"SoundDuration":109054,"Delta":37757487},{"NoteNumber":59,"Velocity":35,"Duration":93475,"SoundDuration":93475,"Delta":37757487},{"NoteNumber":76,"Velocity":50,"Duration":109054,"SoundDuration":109054,"Delta":37850962},{"NoteNumber":47,"Velocity":41,"Duration":109054,"SoundDuration":109054,"Delta":37850962},{"NoteNumber":79,"Velocity":53,"Duration":109054,"SoundDuration":109054,"Delta":37944438},{"NoteNumber":52,"Velocity":35,"Duration":109054,"SoundDuration":109054,"Delta":37944438},{"NoteNumber":78,"Velocity":50,"Duration":109054,"SoundDuration":109054,"Delta":38037913},{"NoteNumber":55,"Velocity":35,"Duration":109054,"SoundDuration":109054,"Delta":38037913},{"NoteNumber":76,"Velocity":50,"Duration":109054,"SoundDuration":109054,"Delta":38131389},{"NoteNumber":59,"Velocity":35,"Duration":93475,"SoundDuration":93475,"Delta":38131389},{"NoteNumber":75,"Velocity":50,"Duration":109054,"SoundDuration":109054,"Delta":38224864},{"NoteNumber":47,"Velocity":40,"Duration":109054,"SoundDuration":109054,"Delta":38224864},{"NoteNumber":73,"Velocity":49,"Duration":109054,"SoundDuration":109054,"Delta":38318340},{"NoteNumber":54,"Velocity":35,"Duration":109054,"SoundDuration":109054,"Delta":38318340},{"NoteNumber":71,"Velocity":48,"Duration":109054,"SoundDuration":109054,"Delta":38411815},{"NoteNumber":57,"Velocity":35,"Duration":109054,"SoundDuration":109054,"Delta":38411815},{"NoteNumber":70,"Velocity":47,"Duration":109054,"SoundDuration":109054,"Delta":38505291},{"NoteNumber":59,"Velocity":35,"Duration":93475,"SoundDuration":93475,"Delta":38505291},{"NoteNumber":71,"Velocity":49,"Duration":109054,"SoundDuration":109054,"Delta":38598766},{"NoteNumber":47,"Velocity":40,"Duration":109054,"SoundDuration":109054,"Delta":38598766},{"NoteNumber":73,"Velocity":50,"Duration":109054,"SoundDuration":109054,"Delta":38692242},{"NoteNumber":54,"Velocity":36,"Duration":109054,"SoundDuration":109054,"Delta":38692242},{"NoteNumber":74,"Velocity":50,"Duration":109054,"SoundDuration":109054,"Delta":38785717},{"NoteNumber":57,"Velocity":36,"Duration":109054,"SoundDuration":109054,"Delta":38785717},{"NoteNumber":75,"Velocity":52,"Duration":109054,"SoundDuration":109054,"Delta":38879193},{"NoteNumber":59,"Velocity":36,"Duration":93475,"SoundDuration":93475,"Delta":38879193},{"NoteNumber":76,"Velocity":52,"Duration":109054,"SoundDuration":109054,"Delta":38972668},{"NoteNumber":47,"Velocity":42,"Duration":109054,"SoundDuration":109054,"Delta":38972668},{"NoteNumber":75,"Velocity":52,"Duration":109054,"SoundDuration":109054,"Delta":39066144},{"NoteNumber":52,"Velocity":36,"Duration":109054,"SoundDuration":109054,"Delta":39066144},{"NoteNumber":76,"Velocity":54,"Duration":109054,"SoundDuration":109054,"Delta":39159619},{"NoteNumber":55,"Velocity":37,"Duration":109054,"SoundDuration":109054,"Delta":39159619},{"NoteNumber":78,"Velocity":54,"Duration":109054,"SoundDuration":109054,"Delta":39253095},{"NoteNumber":59,"Velocity":37,"Duration":93475,"SoundDuration":93475,"Delta":39253095},{"NoteNumber":79,"Velocity":56,"Duration":109054,"SoundDuration":109054,"Delta":39346570},{"NoteNumber":47,"Velocity":42,"Duration":109054,"SoundDuration":109054,"Delta":39346570},{"NoteNumber":80,"Velocity":58,"Duration":109847,"SoundDuration":109847,"Delta":39440046},{"NoteNumber":52,"Velocity":37,"Duration":109847,"SoundDuration":109847,"Delta":39440046},{"NoteNumber":81,"Velocity":60,"Duration":114603,"SoundDuration":114603,"Delta":39533521},{"NoteNumber":55,"Velocity":37,"Duration":114603,"SoundDuration":114603,"Delta":39533521},{"NoteNumber":82,"Velocity":62,"Duration":113811,"SoundDuration":113811,"Delta":39631753},{"NoteNumber":59,"Velocity":38,"Duration":98231,"SoundDuration":98231,"Delta":39631753},{"NoteNumber":83,"Velocity":68,"Duration":93475,"SoundDuration":93475,"Delta":39729985},{"NoteNumber":47,"Velocity":44,"Duration":93475,"SoundDuration":93475,"Delta":39729985},{"NoteNumber":78,"Velocity":60,"Duration":93475,"SoundDuration":93475,"Delta":39823460},{"NoteNumber":51,"Velocity":38,"Duration":93475,"SoundDuration":93475,"Delta":39823460},{"NoteNumber":75,"Velocity":61,"Duration":93475,"SoundDuration":93475,"Delta":39916936},{"NoteNumber":54,"Velocity":38,"Duration":93475,"SoundDuration":93475,"Delta":39916936},{"NoteNumber":71,"Velocity":61,"Duration":93475,"SoundDuration":93475,"Delta":40010411},{"NoteNumber":59,"Velocity":38,"Duration":93475,"SoundDuration":93475,"Delta":40010411},{"NoteNumber":70,"Velocity":75,"Duration":93475,"SoundDuration":93475,"Delta":40103887},{"NoteNumber":58,"Velocity":50,"Duration":93475,"SoundDuration":93475,"Delta":40103887},{"NoteNumber":71,"Velocity":63,"Duration":93475,"SoundDuration":93475,"Delta":40197362},{"NoteNumber":59,"Velocity":41,"Duration":93475,"SoundDuration":93475,"Delta":40197362},{"NoteNumber":76,"Velocity":63,"Duration":93475,"SoundDuration":93475,"Delta":40290838},{"NoteNumber":55,"Velocity":40,"Duration":93475,"SoundDuration":93475,"Delta":40290838},{"NoteNumber":79,"Velocity":63,"Duration":93475,"SoundDuration":93475,"Delta":40384313},{"NoteNumber":52,"Velocity":41,"Duration":93475,"SoundDuration":93475,"Delta":40384313},{"NoteNumber":83,"Velocity":74,"Duration":93475,"SoundDuration":93475,"Delta":40477789},{"NoteNumber":47,"Velocity":52,"Duration":93475,"SoundDuration":93475,"Delta":40477789},{"NoteNumber":78,"Velocity":65,"Duration":93475,"SoundDuration":93475,"Delta":40571264},{"NoteNumber":51,"Velocity":44,"Duration":93475,"SoundDuration":93475,"Delta":40571264},{"NoteNumber":75,"Velocity":68,"Duration":93475,"SoundDuration":93475,"Delta":40664740},{"NoteNumber":54,"Velocity":45,"Duration":93475,"SoundDuration":93475,"Delta":40664740},{"NoteNumber":71,"Velocity":68,"Duration":93475,"SoundDuration":93475,"Delta":40758215},{"NoteNumber":59,"Velocity":45,"Duration":93475,"SoundDuration":93475,"Delta":40758215},{"NoteNumber":70,"Velocity":80,"Duration":93475,"SoundDuration":93475,"Delta":40851691},{"NoteNumber":58,"Velocity":60,"Duration":93475,"SoundDuration":93475,"Delta":40851691},{"NoteNumber":71,"Velocity":71,"Duration":93475,"SoundDuration":93475,"Delta":40945166},{"NoteNumber":59,"Velocity":51,"Duration":93475,"SoundDuration":93475,"Delta":40945166},{"NoteNumber":76,"Velocity":71,"Duration":93475,"SoundDuration":93475,"Delta":41038642},{"NoteNumber":55,"Velocity":51,"Duration":93475,"SoundDuration":93475,"Delta":41038642},{"NoteNumber":79,"Velocity":72,"Duration":93475,"SoundDuration":93475,"Delta":41132117},{"NoteNumber":52,"Velocity":52,"Duration":93475,"SoundDuration":93475,"Delta":41132117},{"NoteNumber":83,"Velocity":91,"Duration":93475,"SoundDuration":93475,"Delta":41225593},{"NoteNumber":47,"Velocity":63,"Duration":93475,"SoundDuration":93475,"Delta":41225593},{"NoteNumber":78,"Velocity":82,"Duration":93475,"SoundDuration":93475,"Delta":41319068},{"NoteNumber":51,"Velocity":52,"Duration":93475,"SoundDuration":93475,"Delta":41319068},{"NoteNumber":75,"Velocity":82,"Duration":93475,"SoundDuration":93475,"Delta":41412544},{"NoteNumber":54,"Velocity":52,"Duration":93475,"SoundDuration":93475,"Delta":41412544},{"NoteNumber":71,"Velocity":82,"Duration":93475,"SoundDuration":93475,"Delta":41506019},{"NoteNumber":59,"Velocity":52,"Duration":93475,"SoundDuration":93475,"Delta":41506019},{"NoteNumber":83,"Velocity":91,"Duration":93475,"SoundDuration":93475,"Delta":41599495},{"NoteNumber":47,"Velocity":63,"Duration":93475,"SoundDuration":93475,"Delta":41599495},{"NoteNumber":79,"Velocity":82,"Duration":93475,"SoundDuration":93475,"Delta":41692970},{"NoteNumber":52,"Velocity":52,"Duration":93475,"SoundDuration":93475,"Delta":41692970},{"NoteNumber":76,"Velocity":82,"Duration":93475,"SoundDuration":93475,"Delta":41786446},{"NoteNumber":55,"Velocity":52,"Duration":93475,"SoundDuration":93475,"Delta":41786446},{"NoteNumber":71,"Velocity":82,"Duration":93475,"SoundDuration":93475,"Delta":41879921},{"NoteNumber":59,"Velocity":52,"Duration":93475,"SoundDuration":93475,"Delta":41879921},{"NoteNumber":83,"Velocity":91,"Duration":93475,"SoundDuration":93475,"Delta":41973397},{"NoteNumber":47,"Velocity":63,"Duration":93475,"SoundDuration":93475,"Delta":41973397},{"NoteNumber":78,"Velocity":82,"Duration":93475,"SoundDuration":93475,"Delta":42066872},{"NoteNumber":51,"Velocity":52,"Duration":93475,"SoundDuration":93475,"Delta":42066872},{"NoteNumber":75,"Velocity":81,"Duration":93475,"SoundDuration":93475,"Delta":42160348},{"NoteNumber":54,"Velocity":52,"Duration":93475,"SoundDuration":93475,"Delta":42160348},{"NoteNumber":71,"Velocity":81,"Duration":93475,"SoundDuration":93475,"Delta":42253823},{"NoteNumber":59,"Velocity":52,"Duration":93475,"SoundDuration":93475,"Delta":42253823},{"NoteNumber":83,"Velocity":91,"Duration":93475,"SoundDuration":93475,"Delta":42347299},{"NoteNumber":47,"Velocity":63,"Duration":93475,"SoundDuration":93475,"Delta":42347299},{"NoteNumber":79,"Velocity":81,"Duration":93475,"SoundDuration":93475,"Delta":42440774},{"NoteNumber":52,"Velocity":52,"Duration":93475,"SoundDuration":93475,"Delta":42440774},{"NoteNumber":76,"Velocity":81,"Duration":93475,"SoundDuration":93475,"Delta":42534250},{"NoteNumber":55,"Velocity":52,"Duration":93475,"SoundDuration":93475,"Delta":42534250},{"NoteNumber":71,"Velocity":82,"Duration":93475,"SoundDuration":93475,"Delta":42627725},{"NoteNumber":59,"Velocity":52,"Duration":93475,"SoundDuration":93475,"Delta":42627725},{"NoteNumber":83,"Velocity":91,"Duration":93779,"SoundDuration":93779,"Delta":42721201},{"NoteNumber":47,"Velocity":54,"Duration":375117,"SoundDuration":375117,"Delta":42721201},{"NoteNumber":51,"Velocity":54,"Duration":375117,"SoundDuration":375117,"Delta":42721201},{"NoteNumber":54,"Velocity":54,"Duration":375117,"SoundDuration":375117,"Delta":42721201},{"NoteNumber":59,"Velocity":63,"Duration":375117,"SoundDuration":375117,"Delta":42721201},{"NoteNumber":78,"Velocity":82,"Duration":93779,"SoundDuration":93779,"Delta":42814980},{"NoteNumber":75,"Velocity":82,"Duration":93779,"SoundDuration":93779,"Delta":42908759},{"NoteNumber":71,"Velocity":82,"Duration":93779,"SoundDuration":93779,"Delta":43002538},{"NoteNumber":78,"Velocity":91,"Duration":93779,"SoundDuration":93779,"Delta":43096318},{"NoteNumber":75,"Velocity":82,"Duration":93983,"SoundDuration":93983,"Delta":43190097},{"NoteNumber":71,"Velocity":82,"Duration":94085,"SoundDuration":94085,"Delta":43284080},{"NoteNumber":66,"Velocity":82,"Duration":94085,"SoundDuration":94085,"Delta":43378165},{"NoteNumber":75,"Velocity":91,"Duration":94085,"SoundDuration":94085,"Delta":43472251},{"NoteNumber":71,"Velocity":82,"Duration":94085,"SoundDuration":94085,"Delta":43566336},{"NoteNumber":66,"Velocity":81,"Duration":94187,"SoundDuration":94187,"Delta":43660421},{"NoteNumber":63,"Velocity":81,"Duration":94393,"SoundDuration":94393,"Delta":43754609},{"NoteNumber":71,"Velocity":91,"Duration":94392,"SoundDuration":94392,"Delta":43849002},{"NoteNumber":66,"Velocity":81,"Duration":94393,"SoundDuration":94393,"Delta":43943395},{"NoteNumber":63,"Velocity":81,"Duration":94392,"SoundDuration":94392,"Delta":44037788},{"NoteNumber":59,"Velocity":82,"Duration":94494,"SoundDuration":94494,"Delta":44132181},{"NoteNumber":66,"Velocity":91,"Duration":93779,"SoundDuration":93779,"Delta":44226675},{"NoteNumber":63,"Velocity":81,"Duration":93779,"SoundDuration":93779,"Delta":44320454},{"NoteNumber":59,"Velocity":80,"Duration":93983,"SoundDuration":93983,"Delta":44414234},{"NoteNumber":54,"Velocity":80,"Duration":94085,"SoundDuration":94085,"Delta":44508217},{"NoteNumber":63,"Velocity":89,"Duration":94187,"SoundDuration":94187,"Delta":44602302},{"NoteNumber":59,"Velocity":79,"Duration":94393,"SoundDuration":94393,"Delta":44696490},{"NoteNumber":54,"Velocity":79,"Duration":94392,"SoundDuration":94392,"Delta":44790883},{"NoteNumber":51,"Velocity":78,"Duration":94696,"SoundDuration":94696,"Delta":44885276},{"NoteNumber":59,"Velocity":87,"Duration":94697,"SoundDuration":94697,"Delta":44979973},{"NoteNumber":54,"Velocity":78,"Duration":94904,"SoundDuration":94904,"Delta":45074670},{"NoteNumber":51,"Velocity":77,"Duration":95008,"SoundDuration":95008,"Delta":45169575},{"NoteNumber":47,"Velocity":77,"Duration":95113,"SoundDuration":95113,"Delta":45264584},{"NoteNumber":35,"Velocity":85,"Duration":95322,"SoundDuration":95322,"Delta":45359697},{"NoteNumber":39,"Velocity":76,"Duration":95322,"SoundDuration":95322,"Delta":45455020},{"NoteNumber":42,"Velocity":76,"Duration":99926,"SoundDuration":99926,"Delta":45550343},{"NoteNumber":47,"Velocity":75,"Duration":99926,"SoundDuration":99926,"Delta":45650269},{"NoteNumber":35,"Velocity":77,"Duration":95950,"SoundDuration":95950,"Delta":45750196},{"NoteNumber":47,"Velocity":68,"Duration":95950,"SoundDuration":95950,"Delta":45942098},{"NoteNumber":37,"Velocity":73,"Duration":95950,"SoundDuration":95950,"Delta":46133999},{"NoteNumber":49,"Velocity":66,"Duration":95950,"SoundDuration":95950,"Delta":46325901},{"NoteNumber":71,"Velocity":75,"Duration":95950,"SoundDuration":95950,"Delta":46517802},{"NoteNumber":39,"Velocity":71,"Duration":95950,"SoundDuration":95950,"Delta":46517802},{"NoteNumber":59,"Velocity":69,"Duration":95950,"SoundDuration":95950,"Delta":46709704},{"NoteNumber":51,"Velocity":65,"Duration":95950,"SoundDuration":95950,"Delta":46709704},{"NoteNumber":73,"Velocity":74,"Duration":95950,"SoundDuration":95950,"Delta":46901605},{"NoteNumber":61,"Velocity":65,"Duration":100267,"SoundDuration":100267,"Delta":47093507},{"NoteNumber":75,"Velocity":71,"Duration":95950,"SoundDuration":95950,"Delta":47294042},{"NoteNumber":39,"Velocity":69,"Duration":95950,"SoundDuration":95950,"Delta":47294042},{"NoteNumber":63,"Velocity":64,"Duration":95950,"SoundDuration":95950,"Delta":47485943},{"NoteNumber":51,"Velocity":61,"Duration":95950,"SoundDuration":95950,"Delta":47485943},{"NoteNumber":40,"Velocity":65,"Duration":96271,"SoundDuration":96271,"Delta":47678165},{"NoteNumber":52,"Velocity":59,"Duration":96593,"SoundDuration":96593,"Delta":47870814},{"NoteNumber":75,"Velocity":67,"Duration":96809,"SoundDuration":96809,"Delta":48064001},{"NoteNumber":42,"Velocity":65,"Duration":96809,"SoundDuration":96809,"Delta":48064001},{"NoteNumber":63,"Velocity":53,"Duration":96918,"SoundDuration":96918,"Delta":48257729},{"NoteNumber":54,"Velocity":54,"Duration":96918,"SoundDuration":96918,"Delta":48257729},{"NoteNumber":76,"Velocity":59,"Duration":97238,"SoundDuration":97238,"Delta":48451886},{"NoteNumber":64,"Velocity":50,"Duration":97567,"SoundDuration":97567,"Delta":48646582},{"NoteNumber":78,"Velocity":52,"Duration":96918,"SoundDuration":96918,"Delta":48841716},{"NoteNumber":66,"Velocity":49,"Duration":97024,"SoundDuration":97024,"Delta":49035552},{"NoteNumber":80,"Velocity":52,"Duration":97238,"SoundDuration":97238,"Delta":49229816},{"NoteNumber":68,"Velocity":49,"Duration":97567,"SoundDuration":97567,"Delta":49424512},{"NoteNumber":81,"Velocity":52,"Duration":97898,"SoundDuration":97898,"Delta":49619757},{"NoteNumber":42,"Velocity":41,"Duration":97898,"SoundDuration":97898,"Delta":49619757},{"NoteNumber":69,"Velocity":48,"Duration":97898,"SoundDuration":97898,"Delta":49815554},{"NoteNumber":54,"Velocity":36,"Duration":97898,"SoundDuration":97898,"Delta":49815554},{"NoteNumber":81,"Velocity":52,"Duration":97567,"SoundDuration":97567,"Delta":50011351},{"NoteNumber":44,"Velocity":41,"Duration":97567,"SoundDuration":97567,"Delta":50011351},{"NoteNumber":71,"Velocity":46,"Duration":97898,"SoundDuration":97898,"Delta":50206596},{"NoteNumber":56,"Velocity":36,"Duration":97898,"SoundDuration":97898,"Delta":50206596},{"NoteNumber":81,"Velocity":51,"Duration":98341,"SoundDuration":98341,"Delta":50402726},{"NoteNumber":45,"Velocity":40,"Duration":98341,"SoundDuration":98341,"Delta":50402726},{"NoteNumber":73,"Velocity":46,"Duration":98899,"SoundDuration":98899,"Delta":50599628},{"NoteNumber":57,"Velocity":37,"Duration":98899,"SoundDuration":98899,"Delta":50599628},{"NoteNumber":81,"Velocity":51,"Duration":99239,"SoundDuration":99239,"Delta":50797540},{"NoteNumber":47,"Velocity":39,"Duration":99239,"SoundDuration":99239,"Delta":50797540},{"NoteNumber":75,"Velocity":46,"Duration":99696,"SoundDuration":99696,"Delta":50996361},{"NoteNumber":59,"Velocity":36,"Duration":99696,"SoundDuration":99696,"Delta":50996361},{"NoteNumber":81,"Velocity":51,"Duration":99184,"SoundDuration":99184,"Delta":51195984},{"NoteNumber":49,"Velocity":38,"Duration":99184,"SoundDuration":99184,"Delta":51195984},{"NoteNumber":76,"Velocity":47,"Duration":102037,"SoundDuration":102037,"Delta":51395499},{"NoteNumber":61,"Velocity":37,"Duration":102037,"SoundDuration":102037,"Delta":51395499},{"NoteNumber":81,"Velocity":50,"Duration":108159,"SoundDuration":108159,"Delta":51601278},{"NoteNumber":51,"Velocity":40,"Duration":108159,"SoundDuration":108159,"Delta":51601278},{"NoteNumber":78,"Velocity":46,"Duration":122838,"SoundDuration":122838,"Delta":51824470},{"NoteNumber":63,"Velocity":37,"Duration":122838,"SoundDuration":122838,"Delta":51824470},{"NoteNumber":71,"Velocity":42,"Duration":880540,"SoundDuration":880540,"Delta":52081423},{"NoteNumber":76,"Velocity":42,"Duration":880540,"SoundDuration":880540,"Delta":52081423},{"NoteNumber":80,"Velocity":55,"Duration":880540,"SoundDuration":880540,"Delta":52081423},{"NoteNumber":68,"Velocity":39,"Duration":880540,"SoundDuration":880540,"Delta":52081423},{"NoteNumber":64,"Velocity":33,"Duration":880540,"SoundDuration":880540,"Delta":52081423},{"NoteNumber":69,"Velocity":40,"Duration":430601,"SoundDuration":430601,"Delta":52961963},{"NoteNumber":75,"Velocity":40,"Duration":430601,"SoundDuration":430601,"Delta":52961963},{"NoteNumber":78,"Velocity":52,"Duration":430601,"SoundDuration":430601,"Delta":52961963},{"NoteNumber":66,"Velocity":35,"Duration":430601,"SoundDuration":430601,"Delta":52961963},{"NoteNumber":63,"Velocity":29,"Duration":430601,"SoundDuration":430601,"Delta":52961963},{"NoteNumber":59,"Velocity":29,"Duration":430601,"SoundDuration":430601,"Delta":52961963},{"NoteNumber":68,"Velocity":40,"Duration":455649,"SoundDuration":455649,"Delta":53392564},{"NoteNumber":73,"Velocity":40,"Duration":455649,"SoundDuration":455649,"Delta":53392564},{"NoteNumber":76,"Velocity":52,"Duration":455649,"SoundDuration":455649,"Delta":53392564},{"NoteNumber":64,"Velocity":35,"Duration":455649,"SoundDuration":455649,"Delta":53392564},{"NoteNumber":61,"Velocity":29,"Duration":455649,"SoundDuration":455649,"Delta":53392564},{"NoteNumber":66,"Velocity":42,"Duration":883848,"SoundDuration":883848,"Delta":53848214},{"NoteNumber":72,"Velocity":42,"Duration":883848,"SoundDuration":883848,"Delta":53848214},{"NoteNumber":75,"Velocity":55,"Duration":883848,"SoundDuration":883848,"Delta":53848214},{"NoteNumber":63,"Velocity":39,"Duration":883848,"SoundDuration":883848,"Delta":53848214},{"NoteNumber":60,"Velocity":33,"Duration":883848,"SoundDuration":883848,"Delta":53848214},{"NoteNumber":56,"Velocity":33,"Duration":883848,"SoundDuration":883848,"Delta":53848214},{"NoteNumber":64,"Velocity":40,"Duration":904744,"SoundDuration":904744,"Delta":54732062},{"NoteNumber":73,"Velocity":52,"Duration":904744,"SoundDuration":904744,"Delta":54732062},{"NoteNumber":61,"Velocity":34,"Duration":904744,"SoundDuration":904744,"Delta":54732062},{"NoteNumber":57,"Velocity":28,"Duration":904744,"SoundDuration":904744,"Delta":54732062},{"NoteNumber":69,"Velocity":49,"Duration":890537,"SoundDuration":890537,"Delta":55636806},{"NoteNumber":71,"Velocity":49,"Duration":890537,"SoundDuration":890537,"Delta":55636806},{"NoteNumber":75,"Velocity":63,"Duration":890537,"SoundDuration":890537,"Delta":55636806},{"NoteNumber":54,"Velocity":37,"Duration":890537,"SoundDuration":890537,"Delta":55636806},{"NoteNumber":57,"Velocity":45,"Duration":890537,"SoundDuration":890537,"Delta":55636806},{"NoteNumber":59,"Velocity":37,"Duration":890537,"SoundDuration":890537,"Delta":55636806},{"NoteNumber":63,"Velocity":45,"Duration":890537,"SoundDuration":890537,"Delta":55636806},{"NoteNumber":71,"Velocity":50,"Duration":465116,"SoundDuration":465116,"Delta":56527344},{"NoteNumber":76,"Velocity":66,"Duration":465116,"SoundDuration":465116,"Delta":56527344},{"NoteNumber":56,"Velocity":40,"Duration":465116,"SoundDuration":465116,"Delta":56527344},{"NoteNumber":59,"Velocity":40,"Duration":465116,"SoundDuration":465116,"Delta":56527344},{"NoteNumber":64,"Velocity":49,"Duration":465116,"SoundDuration":465116,"Delta":56527344},{"NoteNumber":73,"Velocity":48,"Duration":489795,"SoundDuration":489795,"Delta":56992460},{"NoteNumber":76,"Velocity":55,"Duration":489795,"SoundDuration":489795,"Delta":56992460},{"NoteNumber":78,"Velocity":72,"Duration":489795,"SoundDuration":489795,"Delta":56992460},{"NoteNumber":66,"Velocity":51,"Duration":489795,"SoundDuration":489795,"Delta":56992460},{"NoteNumber":57,"Velocity":46,"Duration":489795,"SoundDuration":489795,"Delta":56992460},{"NoteNumber":61,"Velocity":42,"Duration":489795,"SoundDuration":489795,"Delta":56992460},{"NoteNumber":71,"Velocity":59,"Duration":1372410,"SoundDuration":1372410,"Delta":57482256},{"NoteNumber":76,"Velocity":59,"Duration":909089,"SoundDuration":909089,"Delta":57482256},{"NoteNumber":80,"Velocity":77,"Duration":909089,"SoundDuration":909089,"Delta":57482256},{"NoteNumber":59,"Velocity":49,"Duration":1836956,"SoundDuration":1836956,"Delta":57482256},{"NoteNumber":64,"Velocity":49,"Duration":909089,"SoundDuration":909089,"Delta":57482256},{"NoteNumber":68,"Velocity":59,"Duration":909089,"SoundDuration":909089,"Delta":57482256},{"NoteNumber":75,"Velocity":32,"Duration":929810,"SoundDuration":929810,"Delta":58391346},{"NoteNumber":78,"Velocity":49,"Duration":929810,"SoundDuration":929810,"Delta":58391346},{"NoteNumber":63,"Velocity":27,"Duration":929810,"SoundDuration":929810,"Delta":58391346},{"NoteNumber":66,"Velocity":32,"Duration":929810,"SoundDuration":929810,"Delta":58391346},{"NoteNumber":69,"Velocity":48,"Duration":466490,"SoundDuration":466490,"Delta":58854666},{"NoteNumber":59,"Velocity":37,"Duration":880540,"SoundDuration":880540,"Delta":59321156},{"NoteNumber":64,"Velocity":37,"Duration":880540,"SoundDuration":880540,"Delta":59321156},{"NoteNumber":68,"Velocity":45,"Duration":880540,"SoundDuration":880540,"Delta":59321156},{"NoteNumber":56,"Velocity":35,"Duration":880540,"SoundDuration":880540,"Delta":59321156},{"NoteNumber":52,"Velocity":29,"Duration":880540,"SoundDuration":880540,"Delta":59321156},{"NoteNumber":57,"Velocity":36,"Duration":430601,"SoundDuration":430601,"Delta":60201696},{"NoteNumber":63,"Velocity":36,"Duration":430601,"SoundDuration":430601,"Delta":60201696},{"NoteNumber":66,"Velocity":43,"Duration":430601,"SoundDuration":430601,"Delta":60201696},{"NoteNumber":54,"Velocity":31,"Duration":430601,"SoundDuration":430601,"Delta":60201696},{"NoteNumber":51,"Velocity":26,"Duration":430601,"SoundDuration":430601,"Delta":60201696},{"NoteNumber":47,"Velocity":26,"Duration":430601,"SoundDuration":430601,"Delta":60201696},{"NoteNumber":56,"Velocity":36,"Duration":455649,"SoundDuration":455649,"Delta":60632297},{"NoteNumber":61,"Velocity":36,"Duration":455649,"SoundDuration":455649,"Delta":60632297},{"NoteNumber":64,"Velocity":43,"Duration":455649,"SoundDuration":455649,"Delta":60632297},{"NoteNumber":52,"Velocity":31,"Duration":455649,"SoundDuration":455649,"Delta":60632297},{"NoteNumber":49,"Velocity":26,"Duration":455649,"SoundDuration":455649,"Delta":60632297},{"NoteNumber":54,"Velocity":37,"Duration":883848,"SoundDuration":883848,"Delta":61087947},{"NoteNumber":60,"Velocity":37,"Duration":883848,"SoundDuration":883848,"Delta":61087947},{"NoteNumber":63,"Velocity":45,"Duration":883848,"SoundDuration":883848,"Delta":61087947},{"NoteNumber":51,"Velocity":35,"Duration":883848,"SoundDuration":883848,"Delta":61087947},{"NoteNumber":48,"Velocity":29,"Duration":883848,"SoundDuration":883848,"Delta":61087947},{"NoteNumber":44,"Velocity":29,"Duration":883848,"SoundDuration":883848,"Delta":61087947},{"NoteNumber":57,"Velocity":36,"Duration":904744,"SoundDuration":904744,"Delta":61971795},{"NoteNumber":52,"Velocity":36,"Duration":904744,"SoundDuration":904744,"Delta":61971795},{"NoteNumber":61,"Velocity":43,"Duration":904744,"SoundDuration":904744,"Delta":61971795},{"NoteNumber":49,"Velocity":30,"Duration":904744,"SoundDuration":904744,"Delta":61971795},{"NoteNumber":45,"Velocity":25,"Duration":904744,"SoundDuration":904744,"Delta":61971795},{"NoteNumber":52,"Velocity":44,"Duration":445269,"SoundDuration":445269,"Delta":62876539},{"NoteNumber":56,"Velocity":44,"Duration":445269,"SoundDuration":445269,"Delta":62876539},{"NoteNumber":59,"Velocity":52,"Duration":890537,"SoundDuration":890537,"Delta":62876539},{"NoteNumber":35,"Velocity":33,"Duration":1786628,"SoundDuration":1786628,"Delta":62876539},{"NoteNumber":47,"Velocity":40,"Duration":1786628,"SoundDuration":1786628,"Delta":62876539},{"NoteNumber":54,"Velocity":50,"Duration":1341359,"SoundDuration":1341359,"Delta":63321808},{"NoteNumber":57,"Velocity":50,"Duration":1341359,"SoundDuration":1341359,"Delta":63321808},{"NoteNumber":61,"Velocity":61,"Duration":435382,"SoundDuration":435382,"Delta":63767077},{"NoteNumber":63,"Velocity":69,"Duration":460708,"SoundDuration":460708,"Delta":64202459},{"NoteNumber":56,"Velocity":43,"Duration":150341,"SoundDuration":150341,"Delta":64663167},{"NoteNumber":64,"Velocity":49,"Duration":112756,"SoundDuration":112756,"Delta":64663167},{"NoteNumber":40,"Velocity":38,"Duration":451025,"SoundDuration":451025,"Delta":64663167},{"NoteNumber":52,"Velocity":43,"Duration":451025,"SoundDuration":451025,"Delta":64663167},{"NoteNumber":66,"Velocity":48,"Duration":112756,"SoundDuration":112756,"Delta":64813509},{"NoteNumber":68,"Velocity":49,"Duration":112756,"SoundDuration":112756,"Delta":64963851},{"NoteNumber":69,"Velocity":47,"Duration":112317,"SoundDuration":112317,"Delta":65114193},{"NoteNumber":71,"Velocity":48,"Duration":112317,"SoundDuration":112317,"Delta":65263950},{"NoteNumber":73,"Velocity":49,"Duration":112317,"SoundDuration":112317,"Delta":65413707},{"NoteNumber":74,"Velocity":50,"Duration":111881,"SoundDuration":111881,"Delta":65563463},{"NoteNumber":75,"Velocity":51,"Duration":111881,"SoundDuration":111881,"Delta":65712639},{"NoteNumber":76,"Velocity":52,"Duration":111881,"SoundDuration":111881,"Delta":65861815},{"NoteNumber":77,"Velocity":52,"Duration":111881,"SoundDuration":111881,"Delta":66010990},{"NoteNumber":78,"Velocity":53,"Duration":111881,"SoundDuration":111881,"Delta":66160166},{"NoteNumber":79,"Velocity":53,"Duration":111881,"SoundDuration":111881,"Delta":66309342},{"NoteNumber":71,"Velocity":45,"Duration":868244,"SoundDuration":868244,"Delta":66458517},{"NoteNumber":80,"Velocity":57,"Duration":144707,"SoundDuration":144707,"Delta":66458517},{"NoteNumber":68,"Velocity":44,"Duration":868244,"SoundDuration":868244,"Delta":66458517},{"NoteNumber":64,"Velocity":37,"Duration":868244,"SoundDuration":868244,"Delta":66458517},{"NoteNumber":79,"Velocity":53,"Duration":144707,"SoundDuration":144707,"Delta":66603225},{"NoteNumber":80,"Velocity":53,"Duration":144707,"SoundDuration":144707,"Delta":66747932},{"NoteNumber":81,"Velocity":53,"Duration":144707,"SoundDuration":144707,"Delta":66892639},{"NoteNumber":79,"Velocity":53,"Duration":144707,"SoundDuration":144707,"Delta":67037347},{"NoteNumber":80,"Velocity":53,"Duration":144707,"SoundDuration":144707,"Delta":67182054},{"NoteNumber":69,"Velocity":60,"Duration":424598,"SoundDuration":424598,"Delta":67326761},{"NoteNumber":66,"Velocity":40,"Duration":424598,"SoundDuration":424598,"Delta":67326761},{"NoteNumber":63,"Velocity":33,"Duration":424598,"SoundDuration":424598,"Delta":67326761},{"NoteNumber":59,"Velocity":33,"Duration":424598,"SoundDuration":424598,"Delta":67326761},{"NoteNumber":80,"Velocity":54,"Duration":141532,"SoundDuration":141532,"Delta":67468294},{"NoteNumber":78,"Velocity":54,"Duration":141532,"SoundDuration":141532,"Delta":67609827},{"NoteNumber":68,"Velocity":60,"Duration":449269,"SoundDuration":449269,"Delta":67751359},{"NoteNumber":64,"Velocity":40,"Duration":449269,"SoundDuration":449269,"Delta":67751359},{"NoteNumber":61,"Velocity":33,"Duration":449269,"SoundDuration":449269,"Delta":67751359},{"NoteNumber":78,"Velocity":53,"Duration":149756,"SoundDuration":149756,"Delta":67901116},{"NoteNumber":76,"Velocity":53,"Duration":149756,"SoundDuration":149756,"Delta":68050873},{"NoteNumber":66,"Velocity":60,"Duration":871521,"SoundDuration":871521,"Delta":68200629},{"NoteNumber":63,"Velocity":44,"Duration":871521,"SoundDuration":871521,"Delta":68200629},{"NoteNumber":60,"Velocity":37,"Duration":871521,"SoundDuration":871521,"Delta":68200629},{"NoteNumber":56,"Velocity":37,"Duration":871521,"SoundDuration":871521,"Delta":68200629},{"NoteNumber":72,"Velocity":54,"Duration":145253,"SoundDuration":145253,"Delta":68345883},{"NoteNumber":75,"Velocity":54,"Duration":145253,"SoundDuration":145253,"Delta":68491137},{"NoteNumber":76,"Velocity":54,"Duration":145253,"SoundDuration":145253,"Delta":68636390},{"NoteNumber":72,"Velocity":54,"Duration":145253,"SoundDuration":145253,"Delta":68781644},{"NoteNumber":75,"Velocity":54,"Duration":145253,"SoundDuration":145253,"Delta":68926898},{"NoteNumber":64,"Velocity":60,"Duration":892104,"SoundDuration":892104,"Delta":69072151},{"NoteNumber":61,"Velocity":39,"Duration":892104,"SoundDuration":892104,"Delta":69072151},{"NoteNumber":57,"Velocity":32,"Duration":892104,"SoundDuration":892104,"Delta":69072151},{"NoteNumber":69,"Velocity":54,"Duration":145253,"SoundDuration":145253,"Delta":69217405},{"NoteNumber":73,"Velocity":54,"Duration":145253,"SoundDuration":145253,"Delta":69362659},{"NoteNumber":75,"Velocity":54,"Duration":152114,"SoundDuration":152114,"Delta":69507912},{"NoteNumber":69,"Velocity":54,"Duration":152114,"SoundDuration":152114,"Delta":69660027},{"NoteNumber":73,"Velocity":54,"Duration":152114,"SoundDuration":152114,"Delta":69812141},{"NoteNumber":69,"Velocity":62,"Duration":878091,"SoundDuration":878091,"Delta":69964255},{"NoteNumber":54,"Velocity":39,"Duration":878091,"SoundDuration":878091,"Delta":69964255},{"NoteNumber":57,"Velocity":47,"Duration":878091,"SoundDuration":878091,"Delta":69964255},{"NoteNumber":59,"Velocity":39,"Duration":878091,"SoundDuration":878091,"Delta":69964255},{"NoteNumber":63,"Velocity":47,"Duration":878091,"SoundDuration":878091,"Delta":69964255},{"NoteNumber":74,"Velocity":62,"Duration":146348,"SoundDuration":146348,"Delta":70110604},{"NoteNumber":75,"Velocity":57,"Duration":146348,"SoundDuration":146348,"Delta":70256953},{"NoteNumber":76,"Velocity":57,"Duration":146348,"SoundDuration":146348,"Delta":70403301},{"NoteNumber":74,"Velocity":59,"Duration":146348,"SoundDuration":146348,"Delta":70549650},{"NoteNumber":75,"Velocity":59,"Duration":146348,"SoundDuration":146348,"Delta":70695999},{"NoteNumber":71,"Velocity":71,"Duration":429306,"SoundDuration":429306,"Delta":70842347},{"NoteNumber":56,"Velocity":45,"Duration":429306,"SoundDuration":429306,"Delta":70842347},{"NoteNumber":59,"Velocity":45,"Duration":429306,"SoundDuration":429306,"Delta":70842347},{"NoteNumber":64,"Velocity":53,"Duration":429306,"SoundDuration":429306,"Delta":70842347},{"NoteNumber":78,"Velocity":63,"Duration":143102,"SoundDuration":143102,"Delta":70985450},{"NoteNumber":76,"Velocity":64,"Duration":143102,"SoundDuration":143102,"Delta":71128552},{"NoteNumber":73,"Velocity":74,"Duration":454544,"SoundDuration":454544,"Delta":71271654},{"NoteNumber":66,"Velocity":59,"Duration":454544,"SoundDuration":454544,"Delta":71271654},{"NoteNumber":57,"Velocity":49,"Duration":454544,"SoundDuration":454544,"Delta":71271654},{"NoteNumber":61,"Velocity":49,"Duration":454544,"SoundDuration":454544,"Delta":71271654},{"NoteNumber":80,"Velocity":65,"Duration":151515,"SoundDuration":151515,"Delta":71423169},{"NoteNumber":78,"Velocity":65,"Duration":151514,"SoundDuration":151514,"Delta":71574684},{"NoteNumber":80,"Velocity":79,"Duration":145253,"SoundDuration":145253,"Delta":71726199},{"NoteNumber":76,"Velocity":79,"Duration":871521,"SoundDuration":871521,"Delta":71726199},{"NoteNumber":59,"Velocity":53,"Duration":1770310,"SoundDuration":1770310,"Delta":71726199},{"NoteNumber":64,"Velocity":53,"Duration":871521,"SoundDuration":871521,"Delta":71726199},{"NoteNumber":68,"Velocity":65,"Duration":871521,"SoundDuration":871521,"Delta":71726199},{"NoteNumber":79,"Velocity":72,"Duration":145253,"SoundDuration":145253,"Delta":71871453},{"NoteNumber":80,"Velocity":72,"Duration":145253,"SoundDuration":145253,"Delta":72016707},{"NoteNumber":83,"Velocity":68,"Duration":145253,"SoundDuration":145253,"Delta":72161960},{"NoteNumber":81,"Velocity":72,"Duration":145253,"SoundDuration":145253,"Delta":72307214},{"NoteNumber":80,"Velocity":69,"Duration":145253,"SoundDuration":145253,"Delta":72452468},{"NoteNumber":75,"Velocity":67,"Duration":146907,"SoundDuration":146907,"Delta":72597721},{"NoteNumber":78,"Velocity":67,"Duration":146907,"SoundDuration":146907,"Delta":72597721},{"NoteNumber":63,"Velocity":45,"Duration":440723,"SoundDuration":440723,"Delta":72597721},{"NoteNumber":66,"Velocity":53,"Duration":440723,"SoundDuration":440723,"Delta":72597721},{"NoteNumber":73,"Velocity":64,"Duration":146907,"SoundDuration":146907,"Delta":72744629},{"NoteNumber":76,"Velocity":64,"Duration":146907,"SoundDuration":146907,"Delta":72744629},{"NoteNumber":75,"Velocity":60,"Duration":146907,"SoundDuration":146907,"Delta":72891537},{"NoteNumber":71,"Velocity":60,"Duration":146907,"SoundDuration":146907,"Delta":72891537},{"NoteNumber":69,"Velocity":60,"Duration":153327,"SoundDuration":153327,"Delta":73038444},{"NoteNumber":73,"Velocity":60,"Duration":153327,"SoundDuration":153327,"Delta":73038444},{"NoteNumber":47,"Velocity":44,"Duration":153327,"SoundDuration":153327,"Delta":73038444},{"NoteNumber":68,"Velocity":56,"Duration":153327,"SoundDuration":153327,"Delta":73191772},{"NoteNumber":71,"Velocity":56,"Duration":153327,"SoundDuration":153327,"Delta":73191772},{"NoteNumber":49,"Velocity":43,"Duration":153327,"SoundDuration":153327,"Delta":73191772},{"NoteNumber":66,"Velocity":53,"Duration":153327,"SoundDuration":153327,"Delta":73345099},{"NoteNumber":69,"Velocity":53,"Duration":153327,"SoundDuration":153327,"Delta":73345099},{"NoteNumber":51,"Velocity":41,"Duration":153327,"SoundDuration":153327,"Delta":73345099},{"NoteNumber":59,"Velocity":57,"Duration":868244,"SoundDuration":868244,"Delta":73498426},{"NoteNumber":68,"Velocity":57,"Duration":144707,"SoundDuration":144707,"Delta":73498426},{"NoteNumber":56,"Velocity":45,"Duration":868244,"SoundDuration":868244,"Delta":73498426},{"NoteNumber":52,"Velocity":37,"Duration":868244,"SoundDuration":868244,"Delta":73498426},{"NoteNumber":67,"Velocity":49,"Duration":144707,"SoundDuration":144707,"Delta":73643134},{"NoteNumber":68,"Velocity":49,"Duration":144707,"SoundDuration":144707,"Delta":73787841},{"NoteNumber":69,"Velocity":49,"Duration":144707,"SoundDuration":144707,"Delta":73932548},{"NoteNumber":67,"Velocity":49,"Duration":144707,"SoundDuration":144707,"Delta":74077256},{"NoteNumber":68,"Velocity":49,"Duration":144707,"SoundDuration":144707,"Delta":74221963},{"NoteNumber":57,"Velocity":56,"Duration":424598,"SoundDuration":424598,"Delta":74366670},{"NoteNumber":54,"Velocity":41,"Duration":424598,"SoundDuration":424598,"Delta":74366670},{"NoteNumber":51,"Velocity":33,"Duration":424598,"SoundDuration":424598,"Delta":74366670},{"NoteNumber":47,"Velocity":33,"Duration":424598,"SoundDuration":424598,"Delta":74366670},{"NoteNumber":68,"Velocity":50,"Duration":141532,"SoundDuration":141532,"Delta":74508203},{"NoteNumber":66,"Velocity":50,"Duration":141532,"SoundDuration":141532,"Delta":74649736},{"NoteNumber":56,"Velocity":56,"Duration":449269,"SoundDuration":449269,"Delta":74791268},{"NoteNumber":52,"Velocity":41,"Duration":449269,"SoundDuration":449269,"Delta":74791268},{"NoteNumber":49,"Velocity":33,"Duration":449269,"SoundDuration":449269,"Delta":74791268},{"NoteNumber":66,"Velocity":49,"Duration":149756,"SoundDuration":149756,"Delta":74941025},{"NoteNumber":64,"Velocity":49,"Duration":149756,"SoundDuration":149756,"Delta":75090782},{"NoteNumber":51,"Velocity":37,"Duration":871521,"SoundDuration":871521,"Delta":75240538},{"NoteNumber":54,"Velocity":49,"Duration":871521,"SoundDuration":871521,"Delta":75240538},{"NoteNumber":48,"Velocity":37,"Duration":871521,"SoundDuration":871521,"Delta":75240538},{"NoteNumber":44,"Velocity":37,"Duration":871521,"SoundDuration":871521,"Delta":75240538},{"NoteNumber":60,"Velocity":50,"Duration":145253,"SoundDuration":145253,"Delta":75385792},{"NoteNumber":63,"Velocity":50,"Duration":145253,"SoundDuration":145253,"Delta":75531046},{"NoteNumber":64,"Velocity":53,"Duration":145253,"SoundDuration":145253,"Delta":75676299},{"NoteNumber":60,"Velocity":50,"Duration":145253,"SoundDuration":145253,"Delta":75821553},{"NoteNumber":63,"Velocity":50,"Duration":145253,"SoundDuration":145253,"Delta":75966807},{"NoteNumber":45,"Velocity":39,"Duration":892104,"SoundDuration":892104,"Delta":76112060},{"NoteNumber":49,"Velocity":39,"Duration":892104,"SoundDuration":892104,"Delta":76112060},{"NoteNumber":52,"Velocity":32,"Duration":892104,"SoundDuration":892104,"Delta":76112060},{"NoteNumber":57,"Velocity":50,"Duration":145253,"SoundDuration":145253,"Delta":76257314},{"NoteNumber":61,"Velocity":50,"Duration":145253,"SoundDuration":145253,"Delta":76402568},{"NoteNumber":63,"Velocity":53,"Duration":152114,"SoundDuration":152114,"Delta":76547821},{"NoteNumber":57,"Velocity":50,"Duration":152114,"SoundDuration":152114,"Delta":76699936},{"NoteNumber":61,"Velocity":50,"Duration":152114,"SoundDuration":152114,"Delta":76852050},{"NoteNumber":52,"Velocity":60,"Duration":447244,"SoundDuration":447244,"Delta":77004164},{"NoteNumber":35,"Velocity":46,"Duration":1812818,"SoundDuration":1812818,"Delta":77004164},{"NoteNumber":47,"Velocity":55,"Duration":1812818,"SoundDuration":1812818,"Delta":77004164},{"NoteNumber":56,"Velocity":56,"Duration":146348,"SoundDuration":146348,"Delta":77150513},{"NoteNumber":59,"Velocity":57,"Duration":154547,"SoundDuration":154547,"Delta":77296862},{"NoteNumber":54,"Velocity":66,"Duration":454429,"SoundDuration":454429,"Delta":77451409},{"NoteNumber":57,"Velocity":61,"Duration":148038,"SoundDuration":148038,"Delta":77599448},{"NoteNumber":59,"Velocity":61,"Duration":158353,"SoundDuration":158353,"Delta":77747486},{"NoteNumber":54,"Velocity":74,"Duration":455846,"SoundDuration":455846,"Delta":77905839},{"NoteNumber":57,"Velocity":67,"Duration":149756,"SoundDuration":149756,"Delta":78057381},{"NoteNumber":61,"Velocity":65,"Duration":154547,"SoundDuration":154547,"Delta":78207138},{"NoteNumber":54,"Velocity":80,"Duration":455297,"SoundDuration":455297,"Delta":78361685},{"NoteNumber":57,"Velocity":71,"Duration":150341,"SoundDuration":150341,"Delta":78512027},{"NoteNumber":63,"Velocity":70,"Duration":154613,"SoundDuration":154613,"Delta":78662369},{"NoteNumber":56,"Velocity":77,"Duration":145804,"SoundDuration":145804,"Delta":78816982},{"NoteNumber":64,"Velocity":82,"Duration":145804,"SoundDuration":145804,"Delta":78816982},{"NoteNumber":40,"Velocity":50,"Duration":437413,"SoundDuration":437413,"Delta":78816982},{"NoteNumber":52,"Velocity":60,"Duration":437413,"SoundDuration":437413,"Delta":78816982},{"NoteNumber":59,"Velocity":75,"Duration":145804,"SoundDuration":145804,"Delta":78962787},{"NoteNumber":56,"Velocity":77,"Duration":145804,"SoundDuration":145804,"Delta":79108591},{"NoteNumber":59,"Velocity":82,"Duration":145804,"SoundDuration":145804,"Delta":79254395},{"NoteNumber":47,"Velocity":76,"Duration":877126,"SoundDuration":877126,"Delta":79254395},{"NoteNumber":64,"Velocity":77,"Duration":145804,"SoundDuration":145804,"Delta":79400200},{"NoteNumber":68,"Velocity":77,"Duration":149756,"SoundDuration":149756,"Delta":79546004},{"NoteNumber":66,"Velocity":82,"Duration":145253,"SoundDuration":145253,"Delta":79695761},{"NoteNumber":63,"Velocity":77,"Duration":145253,"SoundDuration":145253,"Delta":79841014},{"NoteNumber":59,"Velocity":77,"Duration":145253,"SoundDuration":145253,"Delta":79986268},{"NoteNumber":63,"Velocity":82,"Duration":145253,"SoundDuration":145253,"Delta":80131522},{"NoteNumber":47,"Velocity":76,"Duration":871760,"SoundDuration":871760,"Delta":80131522},{"NoteNumber":66,"Velocity":77,"Duration":145253,"SoundDuration":145253,"Delta":80276775},{"NoteNumber":69,"Velocity":77,"Duration":150342,"SoundDuration":150342,"Delta":80422029},{"NoteNumber":68,"Velocity":82,"Duration":143636,"SoundDuration":143636,"Delta":80572371},{"NoteNumber":64,"Velocity":75,"Duration":143636,"SoundDuration":143636,"Delta":80716008},{"NoteNumber":59,"Velocity":77,"Duration":143636,"SoundDuration":143636,"Delta":80859645},{"NoteNumber":64,"Velocity":82,"Duration":143637,"SoundDuration":143637,"Delta":81003282},{"NoteNumber":47,"Velocity":75,"Duration":870785,"SoundDuration":870785,"Delta":81003282},{"NoteNumber":68,"Velocity":77,"Duration":143636,"SoundDuration":143636,"Delta":81146919},{"NoteNumber":71,"Velocity":77,"Duration":149756,"SoundDuration":149756,"Delta":81290556},{"NoteNumber":69,"Velocity":82,"Duration":142572,"SoundDuration":142572,"Delta":81440313},{"NoteNumber":66,"Velocity":77,"Duration":142572,"SoundDuration":142572,"Delta":81582885},{"NoteNumber":63,"Velocity":77,"Duration":148610,"SoundDuration":148610,"Delta":81725457},{"NoteNumber":75,"Velocity":82,"Duration":142572,"SoundDuration":142572,"Delta":81874067},{"NoteNumber":47,"Velocity":74,"Duration":427716,"SoundDuration":427716,"Delta":81874067},{"NoteNumber":69,"Velocity":77,"Duration":142572,"SoundDuration":142572,"Delta":82016639},{"NoteNumber":66,"Velocity":77,"Duration":142572,"SoundDuration":142572,"Delta":82159211},{"NoteNumber":68,"Velocity":63,"Duration":426135,"SoundDuration":426135,"Delta":82301783},{"NoteNumber":76,"Velocity":75,"Duration":426135,"SoundDuration":426135,"Delta":82301783},{"NoteNumber":52,"Velocity":73,"Duration":142045,"SoundDuration":142045,"Delta":82301783},{"NoteNumber":47,"Velocity":67,"Duration":142045,"SoundDuration":142045,"Delta":82443828},{"NoteNumber":44,"Velocity":69,"Duration":142045,"SoundDuration":142045,"Delta":82585874},{"NoteNumber":71,"Velocity":80,"Duration":860305,"SoundDuration":860305,"Delta":82727919},{"NoteNumber":47,"Velocity":73,"Duration":142045,"SoundDuration":142045,"Delta":82727919},{"NoteNumber":52,"Velocity":69,"Duration":142045,"SoundDuration":142045,"Delta":82869964},{"NoteNumber":56,"Velocity":69,"Duration":146907,"SoundDuration":146907,"Delta":83012010},{"NoteNumber":54,"Velocity":73,"Duration":143102,"SoundDuration":143102,"Delta":83158917},{"NoteNumber":51,"Velocity":69,"Duration":143102,"SoundDuration":143102,"Delta":83302020},{"NoteNumber":47,"Velocity":69,"Duration":143102,"SoundDuration":143102,"Delta":83445122},{"NoteNumber":71,"Velocity":80,"Duration":862982,"SoundDuration":862982,"Delta":83588224},{"NoteNumber":51,"Velocity":73,"Duration":143102,"SoundDuration":143102,"Delta":83588224},{"NoteNumber":54,"Velocity":69,"Duration":143102,"SoundDuration":143102,"Delta":83731327},{"NoteNumber":57,"Velocity":69,"Duration":147471,"SoundDuration":147471,"Delta":83874429},{"NoteNumber":56,"Velocity":73,"Duration":143102,"SoundDuration":143102,"Delta":84021900},{"NoteNumber":52,"Velocity":67,"Duration":143102,"SoundDuration":143102,"Delta":84165002},{"NoteNumber":47,"Velocity":69,"Duration":143102,"SoundDuration":143102,"Delta":84308105},{"NoteNumber":71,"Velocity":80,"Duration":868988,"SoundDuration":868988,"Delta":84451207},{"NoteNumber":52,"Velocity":73,"Duration":143102,"SoundDuration":143102,"Delta":84451207},{"NoteNumber":56,"Velocity":69,"Duration":143102,"SoundDuration":143102,"Delta":84594309},{"NoteNumber":59,"Velocity":69,"Duration":147471,"SoundDuration":147471,"Delta":84737412},{"NoteNumber":57,"Velocity":73,"Duration":143636,"SoundDuration":143636,"Delta":84884883},{"NoteNumber":54,"Velocity":69,"Duration":143636,"SoundDuration":143636,"Delta":85028520},{"NoteNumber":51,"Velocity":69,"Duration":148038,"SoundDuration":148038,"Delta":85172157},{"NoteNumber":71,"Velocity":80,"Duration":433182,"SoundDuration":433182,"Delta":85320195},{"NoteNumber":63,"Velocity":73,"Duration":142572,"SoundDuration":142572,"Delta":85320195},{"NoteNumber":57,"Velocity":69,"Duration":142572,"SoundDuration":142572,"Delta":85462767},{"NoteNumber":54,"Velocity":69,"Duration":148038,"SoundDuration":148038,"Delta":85605339},{"NoteNumber":76,"Velocity":82,"Duration":142045,"SoundDuration":142045,"Delta":85753377},{"NoteNumber":56,"Velocity":64,"Duration":142045,"SoundDuration":142045,"Delta":85753377},{"NoteNumber":71,"Velocity":75,"Duration":142045,"SoundDuration":142045,"Delta":85895423},{"NoteNumber":59,"Velocity":56,"Duration":142045,"SoundDuration":142045,"Delta":85895423},{"NoteNumber":68,"Velocity":77,"Duration":142045,"SoundDuration":142045,"Delta":86037468},{"NoteNumber":64,"Velocity":56,"Duration":142045,"SoundDuration":142045,"Delta":86037468},{"NoteNumber":71,"Velocity":82,"Duration":142045,"SoundDuration":142045,"Delta":86179513},{"NoteNumber":59,"Velocity":64,"Duration":142045,"SoundDuration":142045,"Delta":86179513},{"NoteNumber":76,"Velocity":77,"Duration":142045,"SoundDuration":142045,"Delta":86321559},{"NoteNumber":56,"Velocity":57,"Duration":142045,"SoundDuration":142045,"Delta":86321559},{"NoteNumber":80,"Velocity":77,"Duration":146907,"SoundDuration":146907,"Delta":86463604},{"NoteNumber":52,"Velocity":57,"Duration":146907,"SoundDuration":146907,"Delta":86463604},{"NoteNumber":78,"Velocity":82,"Duration":142572,"SoundDuration":142572,"Delta":86610512},{"NoteNumber":51,"Velocity":64,"Duration":142572,"SoundDuration":142572,"Delta":86610512},{"NoteNumber":75,"Velocity":77,"Duration":142572,"SoundDuration":142572,"Delta":86753084},{"NoteNumber":54,"Velocity":56,"Duration":142572,"SoundDuration":142572,"Delta":86753084},{"NoteNumber":71,"Velocity":77,"Duration":142572,"SoundDuration":142572,"Delta":86895656},{"NoteNumber":57,"Velocity":56,"Duration":142572,"SoundDuration":142572,"Delta":86895656},{"NoteNumber":75,"Velocity":82,"Duration":142572,"SoundDuration":142572,"Delta":87038228},{"NoteNumber":54,"Velocity":64,"Duration":142572,"SoundDuration":142572,"Delta":87038228},{"NoteNumber":78,"Velocity":77,"Duration":142571,"SoundDuration":142571,"Delta":87180800},{"NoteNumber":51,"Velocity":57,"Duration":142571,"SoundDuration":142571,"Delta":87180800},{"NoteNumber":81,"Velocity":77,"Duration":146348,"SoundDuration":146348,"Delta":87323372},{"NoteNumber":47,"Velocity":58,"Duration":146348,"SoundDuration":146348,"Delta":87323372},{"NoteNumber":80,"Velocity":82,"Duration":141532,"SoundDuration":141532,"Delta":87469720},{"NoteNumber":52,"Velocity":64,"Duration":141532,"SoundDuration":141532,"Delta":87475028},{"NoteNumber":76,"Velocity":75,"Duration":141532,"SoundDuration":141532,"Delta":87611253},{"NoteNumber":56,"Velocity":56,"Duration":141532,"SoundDuration":141532,"Delta":87611253},{"NoteNumber":71,"Velocity":77,"Duration":141532,"SoundDuration":141532,"Delta":87752786},{"NoteNumber":59,"Velocity":56,"Duration":141532,"SoundDuration":141532,"Delta":87752786},{"NoteNumber":76,"Velocity":82,"Duration":141532,"SoundDuration":141532,"Delta":87894318},{"NoteNumber":56,"Velocity":64,"Duration":141532,"SoundDuration":141532,"Delta":87894318},{"NoteNumber":80,"Velocity":77,"Duration":141532,"SoundDuration":141532,"Delta":88035851},{"NoteNumber":52,"Velocity":57,"Duration":141532,"SoundDuration":141532,"Delta":88035851},{"NoteNumber":83,"Velocity":77,"Duration":155171,"SoundDuration":155171,"Delta":88177384},{"NoteNumber":47,"Velocity":57,"Duration":154678,"SoundDuration":154678,"Delta":88183203},{"NoteNumber":81,"Velocity":82,"Duration":142045,"SoundDuration":142045,"Delta":88332555},{"NoteNumber":51,"Velocity":64,"Duration":142045,"SoundDuration":142045,"Delta":88332555},{"NoteNumber":78,"Velocity":77,"Duration":142045,"SoundDuration":142045,"Delta":88474600},{"NoteNumber":57,"Velocity":56,"Duration":142045,"SoundDuration":142045,"Delta":88474600},{"NoteNumber":75,"Velocity":77,"Duration":153327,"SoundDuration":153327,"Delta":88616645},{"NoteNumber":59,"Velocity":56,"Duration":152885,"SoundDuration":152885,"Delta":88622395},{"NoteNumber":87,"Velocity":82,"Duration":141532,"SoundDuration":141532,"Delta":88769973},{"NoteNumber":57,"Velocity":64,"Duration":141532,"SoundDuration":141532,"Delta":88769973},{"NoteNumber":81,"Velocity":77,"Duration":141532,"SoundDuration":141532,"Delta":88911505},{"NoteNumber":59,"Velocity":57,"Duration":141532,"SoundDuration":141532,"Delta":88911505},{"NoteNumber":78,"Velocity":77,"Duration":141532,"SoundDuration":141532,"Delta":89053038},{"NoteNumber":66,"Velocity":58,"Duration":141532,"SoundDuration":141532,"Delta":89053038},{"NoteNumber":88,"Velocity":84,"Duration":211521,"SoundDuration":211521,"Delta":89194571},{"NoteNumber":56,"Velocity":64,"Duration":141013,"SoundDuration":141013,"Delta":89194571},{"NoteNumber":83,"Velocity":74,"Duration":141013,"SoundDuration":141013,"Delta":89335585},{"NoteNumber":59,"Velocity":55,"Duration":141013,"SoundDuration":141013,"Delta":89335585},{"NoteNumber":80,"Velocity":74,"Duration":141013,"SoundDuration":141013,"Delta":89476599},{"NoteNumber":64,"Velocity":55,"Duration":141013,"SoundDuration":141013,"Delta":89476599},{"NoteNumber":83,"Velocity":79,"Duration":211521,"SoundDuration":211521,"Delta":89617613},{"NoteNumber":52,"Velocity":62,"Duration":141013,"SoundDuration":141013,"Delta":89617613},{"NoteNumber":80,"Velocity":73,"Duration":141013,"SoundDuration":141013,"Delta":89758627},{"NoteNumber":56,"Velocity":55,"Duration":141013,"SoundDuration":141013,"Delta":89758627},{"NoteNumber":76,"Velocity":72,"Duration":146348,"SoundDuration":146348,"Delta":89899641},{"NoteNumber":59,"Velocity":54,"Duration":146348,"SoundDuration":146348,"Delta":89899641},{"NoteNumber":81,"Velocity":78,"Duration":210747,"SoundDuration":210747,"Delta":90045989},{"NoteNumber":54,"Velocity":59,"Duration":140498,"SoundDuration":140498,"Delta":90045989},{"NoteNumber":78,"Velocity":71,"Duration":140498,"SoundDuration":140498,"Delta":90186488},{"NoteNumber":57,"Velocity":51,"Duration":140498,"SoundDuration":140498,"Delta":90186488},{"NoteNumber":75,"Velocity":70,"Duration":140498,"SoundDuration":140498,"Delta":90326987},{"NoteNumber":59,"Velocity":51,"Duration":140498,"SoundDuration":140498,"Delta":90326987},{"NoteNumber":87,"Velocity":77,"Duration":210747,"SoundDuration":210747,"Delta":90467485},{"NoteNumber":57,"Velocity":57,"Duration":140498,"SoundDuration":140498,"Delta":90467485},{"NoteNumber":83,"Velocity":69,"Duration":140498,"SoundDuration":140498,"Delta":90607984},{"NoteNumber":59,"Velocity":51,"Duration":140498,"SoundDuration":140498,"Delta":90607984},{"NoteNumber":78,"Velocity":67,"Duration":154547,"SoundDuration":154547,"Delta":90748483},{"NoteNumber":66,"Velocity":51,"Duration":154547,"SoundDuration":154547,"Delta":90748483},{"NoteNumber":88,"Velocity":74,"Duration":209980,"SoundDuration":209980,"Delta":90903030},{"NoteNumber":56,"Velocity":56,"Duration":139987,"SoundDuration":139987,"Delta":90903030},{"NoteNumber":83,"Velocity":65,"Duration":139987,"SoundDuration":139987,"Delta":91043018},{"NoteNumber":59,"Velocity":48,"Duration":139987,"SoundDuration":139987,"Delta":91043018},{"NoteNumber":80,"Velocity":65,"Duration":139987,"SoundDuration":139987,"Delta":91183005},{"NoteNumber":64,"Velocity":48,"Duration":139987,"SoundDuration":139987,"Delta":91183005},{"NoteNumber":83,"Velocity":72,"Duration":209980,"SoundDuration":209980,"Delta":91322992},{"NoteNumber":52,"Velocity":54,"Duration":139987,"SoundDuration":139987,"Delta":91322992},{"NoteNumber":80,"Velocity":64,"Duration":139987,"SoundDuration":139987,"Delta":91462980},{"NoteNumber":56,"Velocity":48,"Duration":139987,"SoundDuration":139987,"Delta":91462980},{"NoteNumber":76,"Velocity":63,"Duration":146907,"SoundDuration":146907,"Delta":91602967},{"NoteNumber":59,"Velocity":47,"Duration":146907,"SoundDuration":146907,"Delta":91602967},{"NoteNumber":81,"Velocity":69,"Duration":209233,"SoundDuration":209233,"Delta":91749875},{"NoteNumber":54,"Velocity":51,"Duration":139489,"SoundDuration":139489,"Delta":91749875},{"NoteNumber":78,"Velocity":62,"Duration":139489,"SoundDuration":139489,"Delta":91889364},{"NoteNumber":57,"Velocity":44,"Duration":139489,"SoundDuration":139489,"Delta":91889364},{"NoteNumber":75,"Velocity":60,"Duration":139489,"SoundDuration":139489,"Delta":92028853},{"NoteNumber":59,"Velocity":44,"Duration":139489,"SoundDuration":139489,"Delta":92028853},{"NoteNumber":87,"Velocity":68,"Duration":209233,"SoundDuration":209233,"Delta":92168343},{"NoteNumber":57,"Velocity":50,"Duration":139489,"SoundDuration":139489,"Delta":92168343},{"NoteNumber":83,"Velocity":59,"Duration":139489,"SoundDuration":139489,"Delta":92307832},{"NoteNumber":59,"Velocity":44,"Duration":139489,"SoundDuration":139489,"Delta":92307832},{"NoteNumber":78,"Velocity":58,"Duration":154547,"SoundDuration":154547,"Delta":92447321},{"NoteNumber":66,"Velocity":44,"Duration":154547,"SoundDuration":154547,"Delta":92447321},{"NoteNumber":88,"Velocity":64,"Duration":103491,"SoundDuration":103491,"Delta":92601869},{"NoteNumber":56,"Velocity":50,"Duration":103491,"SoundDuration":103491,"Delta":92601869},{"NoteNumber":83,"Velocity":58,"Duration":103306,"SoundDuration":103306,"Delta":92705360},{"NoteNumber":59,"Velocity":43,"Duration":103306,"SoundDuration":103306,"Delta":92705360},{"NoteNumber":80,"Velocity":58,"Duration":103061,"SoundDuration":103061,"Delta":92808666},{"NoteNumber":52,"Velocity":43,"Duration":103061,"SoundDuration":103061,"Delta":92808666},{"NoteNumber":76,"Velocity":59,"Duration":102760,"SoundDuration":102760,"Delta":92911727},{"NoteNumber":59,"Velocity":44,"Duration":102760,"SoundDuration":102760,"Delta":92911727},{"NoteNumber":81,"Velocity":65,"Duration":102456,"SoundDuration":102456,"Delta":93014488},{"NoteNumber":54,"Velocity":51,"Duration":102456,"SoundDuration":102456,"Delta":93014488},{"NoteNumber":78,"Velocity":59,"Duration":102215,"SoundDuration":102215,"Delta":93116945},{"NoteNumber":59,"Velocity":44,"Duration":102215,"SoundDuration":102215,"Delta":93116945},{"NoteNumber":87,"Velocity":62,"Duration":101974,"SoundDuration":101974,"Delta":93219160},{"NoteNumber":57,"Velocity":44,"Duration":101974,"SoundDuration":101974,"Delta":93219160},{"NoteNumber":83,"Velocity":63,"Duration":101674,"SoundDuration":101674,"Delta":93321134},{"NoteNumber":59,"Velocity":44,"Duration":101674,"SoundDuration":101674,"Delta":93321134},{"NoteNumber":88,"Velocity":69,"Duration":101382,"SoundDuration":101382,"Delta":93422808},{"NoteNumber":56,"Velocity":52,"Duration":101382,"SoundDuration":101382,"Delta":93422808},{"NoteNumber":83,"Velocity":63,"Duration":101324,"SoundDuration":101324,"Delta":93524190},{"NoteNumber":59,"Velocity":46,"Duration":101324,"SoundDuration":101324,"Delta":93524190},{"NoteNumber":80,"Velocity":63,"Duration":101324,"SoundDuration":101324,"Delta":93625514},{"NoteNumber":52,"Velocity":47,"Duration":101324,"SoundDuration":101324,"Delta":93625514},{"NoteNumber":76,"Velocity":64,"Duration":101323,"SoundDuration":101323,"Delta":93726838},{"NoteNumber":59,"Velocity":49,"Duration":101323,"SoundDuration":101323,"Delta":93726838},{"NoteNumber":81,"Velocity":71,"Duration":101324,"SoundDuration":101324,"Delta":93828162},{"NoteNumber":54,"Velocity":55,"Duration":101324,"SoundDuration":101324,"Delta":93828162},{"NoteNumber":78,"Velocity":66,"Duration":101323,"SoundDuration":101323,"Delta":93929486},{"NoteNumber":59,"Velocity":48,"Duration":101323,"SoundDuration":101323,"Delta":93929486},{"NoteNumber":87,"Velocity":67,"Duration":101324,"SoundDuration":101324,"Delta":94030810},{"NoteNumber":57,"Velocity":48,"Duration":101324,"SoundDuration":101324,"Delta":94030810},{"NoteNumber":83,"Velocity":67,"Duration":107897,"SoundDuration":107897,"Delta":94132134},{"NoteNumber":59,"Velocity":49,"Duration":107897,"SoundDuration":107897,"Delta":94132134},{"NoteNumber":88,"Velocity":74,"Duration":100616,"SoundDuration":100616,"Delta":94240032},{"NoteNumber":56,"Velocity":58,"Duration":100616,"SoundDuration":100616,"Delta":94240032},{"NoteNumber":83,"Velocity":67,"Duration":100442,"SoundDuration":100442,"Delta":94340649},{"NoteNumber":59,"Velocity":50,"Duration":100442,"SoundDuration":100442,"Delta":94340649},{"NoteNumber":87,"Velocity":69,"Duration":100267,"SoundDuration":100267,"Delta":94441091},{"NoteNumber":57,"Velocity":51,"Duration":100267,"SoundDuration":100267,"Delta":94441091},{"NoteNumber":83,"Velocity":69,"Duration":99983,"SoundDuration":99983,"Delta":94541358},{"NoteNumber":59,"Velocity":52,"Duration":99983,"SoundDuration":99983,"Delta":94541358},{"NoteNumber":88,"Velocity":77,"Duration":99869,"SoundDuration":99869,"Delta":94641342},{"NoteNumber":56,"Velocity":60,"Duration":99869,"SoundDuration":99869,"Delta":94641342},{"NoteNumber":83,"Velocity":77,"Duration":99581,"SoundDuration":99581,"Delta":94741211},{"NoteNumber":59,"Velocity":52,"Duration":99581,"SoundDuration":99581,"Delta":94741211},{"NoteNumber":87,"Velocity":72,"Duration":99410,"SoundDuration":99410,"Delta":94840793},{"NoteNumber":57,"Velocity":52,"Duration":99410,"SoundDuration":99410,"Delta":94840793},{"NoteNumber":83,"Velocity":73,"Duration":99239,"SoundDuration":99239,"Delta":94940203},{"NoteNumber":59,"Velocity":54,"Duration":99239,"SoundDuration":99239,"Delta":94940203},{"NoteNumber":88,"Velocity":80,"Duration":98899,"SoundDuration":98899,"Delta":95039443},{"NoteNumber":56,"Velocity":62,"Duration":98899,"SoundDuration":98899,"Delta":95039443},{"NoteNumber":83,"Velocity":73,"Duration":98899,"SoundDuration":98899,"Delta":95138342},{"NoteNumber":59,"Velocity":55,"Duration":98899,"SoundDuration":98899,"Delta":95138342},{"NoteNumber":87,"Velocity":74,"Duration":98898,"SoundDuration":98898,"Delta":95237241},{"NoteNumber":57,"Velocity":55,"Duration":98898,"SoundDuration":98898,"Delta":95237241},{"NoteNumber":83,"Velocity":74,"Duration":98899,"SoundDuration":98899,"Delta":95336140},{"NoteNumber":59,"Velocity":57,"Duration":98899,"SoundDuration":98899,"Delta":95336140},{"NoteNumber":88,"Velocity":82,"Duration":98899,"SoundDuration":98899,"Delta":95435039},{"NoteNumber":56,"Velocity":65,"Duration":98899,"SoundDuration":98899,"Delta":95435039},{"NoteNumber":83,"Velocity":85,"Duration":98899,"SoundDuration":98899,"Delta":95533938},{"NoteNumber":59,"Velocity":57,"Duration":98899,"SoundDuration":98899,"Delta":95533938},{"NoteNumber":87,"Velocity":78,"Duration":98899,"SoundDuration":98899,"Delta":95632837},{"NoteNumber":57,"Velocity":57,"Duration":98899,"SoundDuration":98899,"Delta":95632837},{"NoteNumber":83,"Velocity":79,"Duration":108530,"SoundDuration":108530,"Delta":95731736},{"NoteNumber":59,"Velocity":58,"Duration":108530,"SoundDuration":108530,"Delta":95731736},{"NoteNumber":88,"Velocity":89,"Duration":98561,"SoundDuration":98561,"Delta":95840266},{"NoteNumber":56,"Velocity":70,"Duration":98561,"SoundDuration":98561,"Delta":95840266},{"NoteNumber":83,"Velocity":81,"Duration":98560,"SoundDuration":98560,"Delta":95938827},{"NoteNumber":59,"Velocity":60,"Duration":98560,"SoundDuration":98560,"Delta":95938827},{"NoteNumber":86,"Velocity":81,"Duration":98451,"SoundDuration":98451,"Delta":96037388},{"NoteNumber":44,"Velocity":60,"Duration":98451,"SoundDuration":98451,"Delta":96037388},{"NoteNumber":83,"Velocity":81,"Duration":98231,"SoundDuration":98231,"Delta":96135839},{"NoteNumber":52,"Velocity":62,"Duration":98231,"SoundDuration":98231,"Delta":96135839},{"NoteNumber":86,"Velocity":89,"Duration":98231,"SoundDuration":98231,"Delta":96234071},{"NoteNumber":44,"Velocity":70,"Duration":98231,"SoundDuration":98231,"Delta":96234071},{"NoteNumber":83,"Velocity":83,"Duration":98009,"SoundDuration":98009,"Delta":96332303},{"NoteNumber":52,"Velocity":60,"Duration":98009,"SoundDuration":98009,"Delta":96332303},{"NoteNumber":86,"Velocity":82,"Duration":97898,"SoundDuration":97898,"Delta":96430313},{"NoteNumber":44,"Velocity":60,"Duration":97898,"SoundDuration":97898,"Delta":96430313},{"NoteNumber":83,"Velocity":82,"Duration":97843,"SoundDuration":97843,"Delta":96528211},{"NoteNumber":52,"Velocity":60,"Duration":97843,"SoundDuration":97843,"Delta":96528211},{"NoteNumber":86,"Velocity":89,"Duration":97567,"SoundDuration":97567,"Delta":96626054},{"NoteNumber":44,"Velocity":70,"Duration":97567,"SoundDuration":97567,"Delta":96626054},{"NoteNumber":83,"Velocity":81,"Duration":97567,"SoundDuration":97567,"Delta":96723622},{"NoteNumber":52,"Velocity":60,"Duration":97567,"SoundDuration":97567,"Delta":96723622},{"NoteNumber":86,"Velocity":81,"Duration":97567,"SoundDuration":97567,"Delta":96821189},{"NoteNumber":44,"Velocity":60,"Duration":97567,"SoundDuration":97567,"Delta":96821189},{"NoteNumber":83,"Velocity":81,"Duration":97567,"SoundDuration":97567,"Delta":96918756},{"NoteNumber":52,"Velocity":62,"Duration":97567,"SoundDuration":97567,"Delta":96918756},{"NoteNumber":86,"Velocity":89,"Duration":97567,"SoundDuration":97567,"Delta":97016323},{"NoteNumber":44,"Velocity":70,"Duration":97567,"SoundDuration":97567,"Delta":97016323},{"NoteNumber":83,"Velocity":83,"Duration":97567,"SoundDuration":97567,"Delta":97113891},{"NoteNumber":52,"Velocity":60,"Duration":97567,"SoundDuration":97567,"Delta":97113891},{"NoteNumber":86,"Velocity":82,"Duration":97567,"SoundDuration":97567,"Delta":97211458},{"NoteNumber":44,"Velocity":60,"Duration":97567,"SoundDuration":97567,"Delta":97211458},{"NoteNumber":83,"Velocity":82,"Duration":101324,"SoundDuration":101324,"Delta":97309025},{"NoteNumber":52,"Velocity":60,"Duration":101324,"SoundDuration":101324,"Delta":97309025},{"NoteNumber":86,"Velocity":89,"Duration":190017,"SoundDuration":190017,"Delta":97410349},{"NoteNumber":44,"Velocity":70,"Duration":95008,"SoundDuration":95008,"Delta":97410349},{"NoteNumber":52,"Velocity":60,"Duration":95008,"SoundDuration":95008,"Delta":97505358},{"NoteNumber":85,"Velocity":81,"Duration":95008,"SoundDuration":95008,"Delta":97600367},{"NoteNumber":44,"Velocity":60,"Duration":95008,"SoundDuration":95008,"Delta":97600367},{"NoteNumber":83,"Velocity":81,"Duration":95008,"SoundDuration":95008,"Delta":97695375},{"NoteNumber":52,"Velocity":62,"Duration":95008,"SoundDuration":95008,"Delta":97695375},{"NoteNumber":81,"Velocity":88,"Duration":95008,"SoundDuration":95008,"Delta":97790384},{"NoteNumber":44,"Velocity":70,"Duration":95008,"SoundDuration":95008,"Delta":97790384},{"NoteNumber":80,"Velocity":83,"Duration":95008,"SoundDuration":95008,"Delta":97885393},{"NoteNumber":52,"Velocity":60,"Duration":95008,"SoundDuration":95008,"Delta":97885393},{"NoteNumber":78,"Velocity":83,"Duration":95008,"SoundDuration":95008,"Delta":97980402},{"NoteNumber":44,"Velocity":60,"Duration":95008,"SoundDuration":95008,"Delta":97980402},{"NoteNumber":76,"Velocity":83,"Duration":95008,"SoundDuration":95008,"Delta":98075410},{"NoteNumber":52,"Velocity":61,"Duration":95008,"SoundDuration":95008,"Delta":98075410},{"NoteNumber":74,"Velocity":88,"Duration":95008,"SoundDuration":95008,"Delta":98170419},{"NoteNumber":44,"Velocity":71,"Duration":95008,"SoundDuration":95008,"Delta":98170419},{"NoteNumber":73,"Velocity":82,"Duration":95008,"SoundDuration":95008,"Delta":98265428},{"NoteNumber":52,"Velocity":61,"Duration":95008,"SoundDuration":95008,"Delta":98265428},{"NoteNumber":71,"Velocity":83,"Duration":95008,"SoundDuration":95008,"Delta":98360437},{"NoteNumber":44,"Velocity":61,"Duration":95008,"SoundDuration":95008,"Delta":98360437},{"NoteNumber":69,"Velocity":83,"Duration":95008,"SoundDuration":95008,"Delta":98455445},{"NoteNumber":52,"Velocity":63,"Duration":95008,"SoundDuration":95008,"Delta":98455445},{"NoteNumber":68,"Velocity":91,"Duration":95008,"SoundDuration":95008,"Delta":98550454},{"NoteNumber":44,"Velocity":72,"Duration":95008,"SoundDuration":95008,"Delta":98550454},{"NoteNumber":66,"Velocity":86,"Duration":95008,"SoundDuration":95008,"Delta":98645463},{"NoteNumber":52,"Velocity":62,"Duration":95008,"SoundDuration":95008,"Delta":98645463},{"NoteNumber":64,"Velocity":85,"Duration":95008,"SoundDuration":95008,"Delta":98740472},{"NoteNumber":44,"Velocity":62,"Duration":95008,"SoundDuration":95008,"Delta":98740472},{"NoteNumber":62,"Velocity":85,"Duration":95008,"SoundDuration":95008,"Delta":98835480},{"NoteNumber":52,"Velocity":62,"Duration":95008,"SoundDuration":95008,"Delta":98835480},{"NoteNumber":61,"Velocity":93,"Duration":92213,"SoundDuration":92213,"Delta":98930489},{"NoteNumber":45,"Velocity":67,"Duration":138607,"SoundDuration":138607,"Delta":98930489},{"NoteNumber":49,"Velocity":67,"Duration":138607,"SoundDuration":138607,"Delta":98930489},{"NoteNumber":52,"Velocity":80,"Duration":138607,"SoundDuration":138607,"Delta":98930489},{"NoteNumber":63,"Velocity":84,"Duration":93367,"SoundDuration":93367,"Delta":99022703},{"NoteNumber":64,"Velocity":84,"Duration":93075,"SoundDuration":93075,"Delta":99116070},{"NoteNumber":45,"Velocity":60,"Duration":139756,"SoundDuration":139756,"Delta":99116070},{"NoteNumber":49,"Velocity":60,"Duration":139756,"SoundDuration":139756,"Delta":99116070},{"NoteNumber":52,"Velocity":73,"Duration":139756,"SoundDuration":139756,"Delta":99116070},{"NoteNumber":63,"Velocity":86,"Duration":93704,"SoundDuration":93704,"Delta":99209146},{"NoteNumber":64,"Velocity":92,"Duration":93409,"SoundDuration":93409,"Delta":99302850},{"NoteNumber":68,"Velocity":85,"Duration":92928,"SoundDuration":92928,"Delta":99396259},{"NoteNumber":69,"Velocity":85,"Duration":97898,"SoundDuration":97898,"Delta":99489188},{"NoteNumber":45,"Velocity":60,"Duration":146847,"SoundDuration":146847,"Delta":99489188},{"NoteNumber":49,"Velocity":60,"Duration":146847,"SoundDuration":146847,"Delta":99489188},{"NoteNumber":52,"Velocity":73,"Duration":146847,"SoundDuration":146847,"Delta":99489188},{"NoteNumber":68,"Velocity":85,"Duration":97898,"SoundDuration":97898,"Delta":99587086},{"NoteNumber":69,"Velocity":93,"Duration":92930,"SoundDuration":92930,"Delta":99684985},{"NoteNumber":45,"Velocity":67,"Duration":138990,"SoundDuration":138990,"Delta":99684985},{"NoteNumber":49,"Velocity":67,"Duration":138990,"SoundDuration":138990,"Delta":99684985},{"NoteNumber":52,"Velocity":80,"Duration":138990,"SoundDuration":138990,"Delta":99684985},{"NoteNumber":72,"Velocity":84,"Duration":92789,"SoundDuration":92789,"Delta":99777915},{"NoteNumber":73,"Velocity":84,"Duration":93364,"SoundDuration":93364,"Delta":99870704},{"NoteNumber":45,"Velocity":60,"Duration":139282,"SoundDuration":139282,"Delta":99870704},{"NoteNumber":49,"Velocity":60,"Duration":139282,"SoundDuration":139282,"Delta":99870704},{"NoteNumber":52,"Velocity":73,"Duration":139282,"SoundDuration":139282,"Delta":99870704},{"NoteNumber":72,"Velocity":84,"Duration":92121,"SoundDuration":92121,"Delta":99964069},{"NoteNumber":73,"Velocity":93,"Duration":93996,"SoundDuration":93996,"Delta":100056190},{"NoteNumber":75,"Velocity":84,"Duration":92881,"SoundDuration":92881,"Delta":100150187},{"NoteNumber":76,"Velocity":84,"Duration":97567,"SoundDuration":97567,"Delta":100243069},{"NoteNumber":45,"Velocity":60,"Duration":146350,"SoundDuration":146350,"Delta":100243069},{"NoteNumber":49,"Velocity":60,"Duration":146350,"SoundDuration":146350,"Delta":100243069},{"NoteNumber":52,"Velocity":73,"Duration":146350,"SoundDuration":146350,"Delta":100243069},{"NoteNumber":75,"Velocity":84,"Duration":97567,"SoundDuration":97567,"Delta":100340636},{"NoteNumber":76,"Velocity":95,"Duration":92932,"SoundDuration":92932,"Delta":100438203},{"NoteNumber":45,"Velocity":67,"Duration":139182,"SoundDuration":139182,"Delta":100438203},{"NoteNumber":49,"Velocity":67,"Duration":139182,"SoundDuration":139182,"Delta":100438203},{"NoteNumber":52,"Velocity":78,"Duration":139182,"SoundDuration":139182,"Delta":100438203},{"NoteNumber":80,"Velocity":86,"Duration":93370,"SoundDuration":93370,"Delta":100531136},{"NoteNumber":81,"Velocity":86,"Duration":92641,"SoundDuration":92641,"Delta":100624507},{"NoteNumber":45,"Velocity":60,"Duration":139371,"SoundDuration":139371,"Delta":100624507},{"NoteNumber":49,"Velocity":60,"Duration":139371,"SoundDuration":139371,"Delta":100624507},{"NoteNumber":52,"Velocity":73,"Duration":139371,"SoundDuration":139371,"Delta":100624507},{"NoteNumber":80,"Velocity":86,"Duration":93702,"SoundDuration":93702,"Delta":100717149},{"NoteNumber":81,"Velocity":95,"Duration":92593,"SoundDuration":92593,"Delta":100810851},{"NoteNumber":84,"Velocity":86,"Duration":93216,"SoundDuration":93216,"Delta":100903445},{"NoteNumber":85,"Velocity":86,"Duration":96918,"SoundDuration":96918,"Delta":100996661},{"NoteNumber":45,"Velocity":60,"Duration":145376,"SoundDuration":145376,"Delta":100996661},{"NoteNumber":49,"Velocity":60,"Duration":145376,"SoundDuration":145376,"Delta":100996661},{"NoteNumber":52,"Velocity":73,"Duration":145376,"SoundDuration":145376,"Delta":100996661},{"NoteNumber":84,"Velocity":86,"Duration":96918,"SoundDuration":96918,"Delta":101093579},{"NoteNumber":85,"Velocity":95,"Duration":92599,"SoundDuration":92599,"Delta":101190497},{"NoteNumber":45,"Velocity":67,"Duration":138992,"SoundDuration":138992,"Delta":101190497},{"NoteNumber":49,"Velocity":67,"Duration":138992,"SoundDuration":138992,"Delta":101190497},{"NoteNumber":52,"Velocity":78,"Duration":138992,"SoundDuration":138992,"Delta":101190497},{"NoteNumber":87,"Velocity":86,"Duration":93415,"SoundDuration":93415,"Delta":101283096},{"NoteNumber":88,"Velocity":86,"Duration":92549,"SoundDuration":92549,"Delta":101376512},{"NoteNumber":45,"Velocity":60,"Duration":138515,"SoundDuration":138515,"Delta":101376512},{"NoteNumber":49,"Velocity":60,"Duration":138515,"SoundDuration":138515,"Delta":101376512},{"NoteNumber":52,"Velocity":73,"Duration":138515,"SoundDuration":138515,"Delta":101376512},{"NoteNumber":87,"Velocity":86,"Duration":92501,"SoundDuration":92501,"Delta":101469061},{"NoteNumber":88,"Velocity":95,"Duration":93900,"SoundDuration":93900,"Delta":101561563},{"NoteNumber":87,"Velocity":86,"Duration":93169,"SoundDuration":93169,"Delta":101655464},{"NoteNumber":85,"Velocity":86,"Duration":100969,"SoundDuration":100969,"Delta":101748633},{"NoteNumber":45,"Velocity":60,"Duration":151453,"SoundDuration":151453,"Delta":101748633},{"NoteNumber":49,"Velocity":60,"Duration":151453,"SoundDuration":151453,"Delta":101748633},{"NoteNumber":52,"Velocity":73,"Duration":151453,"SoundDuration":151453,"Delta":101748633},{"NoteNumber":84,"Velocity":86,"Duration":99717,"SoundDuration":99717,"Delta":101849602},{"NoteNumber":85,"Velocity":95,"Duration":92832,"SoundDuration":92832,"Delta":101949320},{"NoteNumber":52,"Velocity":67,"Duration":139176,"SoundDuration":139176,"Delta":101949320},{"NoteNumber":46,"Velocity":67,"Duration":139176,"SoundDuration":139176,"Delta":101949320},{"NoteNumber":49,"Velocity":67,"Duration":139176,"SoundDuration":139176,"Delta":101949320},{"NoteNumber":54,"Velocity":78,"Duration":139176,"SoundDuration":139176,"Delta":101949320},{"NoteNumber":84,"Velocity":86,"Duration":93317,"SoundDuration":93317,"Delta":102042152},{"NoteNumber":85,"Velocity":86,"Duration":93854,"SoundDuration":93854,"Delta":102135470},{"NoteNumber":52,"Velocity":60,"Duration":140007,"SoundDuration":140007,"Delta":102135470},{"NoteNumber":46,"Velocity":60,"Duration":140007,"SoundDuration":140007,"Delta":102135470},{"NoteNumber":49,"Velocity":60,"Duration":140007,"SoundDuration":140007,"Delta":102135470},{"NoteNumber":54,"Velocity":73,"Duration":140007,"SoundDuration":140007,"Delta":102135470},{"NoteNumber":87,"Velocity":86,"Duration":92786,"SoundDuration":92786,"Delta":102229324},{"NoteNumber":88,"Velocity":95,"Duration":93508,"SoundDuration":93508,"Delta":102322110},{"NoteNumber":87,"Velocity":86,"Duration":93605,"SoundDuration":93605,"Delta":102415619},{"NoteNumber":85,"Velocity":86,"Duration":96918,"SoundDuration":96918,"Delta":102509224},{"NoteNumber":52,"Velocity":60,"Duration":145376,"SoundDuration":145376,"Delta":102509224},{"NoteNumber":46,"Velocity":60,"Duration":145376,"SoundDuration":145376,"Delta":102509224},{"NoteNumber":49,"Velocity":60,"Duration":145376,"SoundDuration":145376,"Delta":102509224},{"NoteNumber":54,"Velocity":73,"Duration":145376,"SoundDuration":145376,"Delta":102509224},{"NoteNumber":84,"Velocity":86,"Duration":96918,"SoundDuration":96918,"Delta":102606142},{"NoteNumber":85,"Velocity":95,"Duration":93028,"SoundDuration":93028,"Delta":102703060},{"NoteNumber":52,"Velocity":67,"Duration":139325,"SoundDuration":139325,"Delta":102703060},{"NoteNumber":46,"Velocity":67,"Duration":139325,"SoundDuration":139325,"Delta":102703060},{"NoteNumber":49,"Velocity":67,"Duration":139325,"SoundDuration":139325,"Delta":102703060},{"NoteNumber":54,"Velocity":78,"Duration":139325,"SoundDuration":139325,"Delta":102703060},{"NoteNumber":84,"Velocity":86,"Duration":93124,"SoundDuration":93124,"Delta":102796088},{"NoteNumber":85,"Velocity":86,"Duration":94094,"SoundDuration":94094,"Delta":102889213},{"NoteNumber":52,"Velocity":60,"Duration":140439,"SoundDuration":140439,"Delta":102889213},{"NoteNumber":46,"Velocity":60,"Duration":140439,"SoundDuration":140439,"Delta":102889213},{"NoteNumber":49,"Velocity":60,"Duration":140439,"SoundDuration":140439,"Delta":102889213},{"NoteNumber":54,"Velocity":73,"Duration":140439,"SoundDuration":140439,"Delta":102889213},{"NoteNumber":87,"Velocity":86,"Duration":92835,"SoundDuration":92835,"Delta":102983307},{"NoteNumber":88,"Velocity":95,"Duration":94191,"SoundDuration":94191,"Delta":103076142},{"NoteNumber":87,"Velocity":86,"Duration":93216,"SoundDuration":93216,"Delta":103170334},{"NoteNumber":85,"Velocity":86,"Duration":96593,"SoundDuration":96593,"Delta":103263550},{"NoteNumber":52,"Velocity":60,"Duration":144890,"SoundDuration":144890,"Delta":103263550},{"NoteNumber":46,"Velocity":60,"Duration":144890,"SoundDuration":144890,"Delta":103263550},{"NoteNumber":49,"Velocity":60,"Duration":144890,"SoundDuration":144890,"Delta":103263550},{"NoteNumber":54,"Velocity":73,"Duration":144890,"SoundDuration":144890,"Delta":103263550},{"NoteNumber":84,"Velocity":86,"Duration":96593,"SoundDuration":96593,"Delta":103360144},{"NoteNumber":85,"Velocity":95,"Duration":93171,"SoundDuration":93171,"Delta":103456737},{"NoteNumber":52,"Velocity":67,"Duration":139563,"SoundDuration":139563,"Delta":103456737},{"NoteNumber":46,"Velocity":67,"Duration":139563,"SoundDuration":139563,"Delta":103456737},{"NoteNumber":49,"Velocity":67,"Duration":139563,"SoundDuration":139563,"Delta":103456737},{"NoteNumber":54,"Velocity":78,"Duration":139563,"SoundDuration":139563,"Delta":103456737},{"NoteNumber":84,"Velocity":86,"Duration":93365,"SoundDuration":93365,"Delta":103549909},{"NoteNumber":85,"Velocity":86,"Duration":93947,"SoundDuration":93947,"Delta":103643275},{"NoteNumber":52,"Velocity":60,"Duration":140293,"SoundDuration":140293,"Delta":103643275},{"NoteNumber":46,"Velocity":60,"Duration":140293,"SoundDuration":140293,"Delta":103643275},{"NoteNumber":49,"Velocity":60,"Duration":140293,"SoundDuration":140293,"Delta":103643275},{"NoteNumber":54,"Velocity":73,"Duration":140293,"SoundDuration":140293,"Delta":103643275},{"NoteNumber":87,"Velocity":86,"Duration":92642,"SoundDuration":92642,"Delta":103737222},{"NoteNumber":88,"Velocity":95,"Duration":93410,"SoundDuration":93410,"Delta":103829864},{"NoteNumber":87,"Velocity":86,"Duration":93167,"SoundDuration":93167,"Delta":103923275},{"NoteNumber":85,"Velocity":86,"Duration":96918,"SoundDuration":96918,"Delta":104016443},{"NoteNumber":52,"Velocity":60,"Duration":145376,"SoundDuration":145376,"Delta":104016443},{"NoteNumber":46,"Velocity":60,"Duration":145376,"SoundDuration":145376,"Delta":104016443},{"NoteNumber":49,"Velocity":60,"Duration":145376,"SoundDuration":145376,"Delta":104016443},{"NoteNumber":54,"Velocity":73,"Duration":145376,"SoundDuration":145376,"Delta":104016443},{"NoteNumber":84,"Velocity":86,"Duration":96918,"SoundDuration":96918,"Delta":104113361},{"NoteNumber":85,"Velocity":95,"Duration":92785,"SoundDuration":92785,"Delta":104210279},{"NoteNumber":52,"Velocity":67,"Duration":139466,"SoundDuration":139466,"Delta":104210279},{"NoteNumber":46,"Velocity":67,"Duration":139466,"SoundDuration":139466,"Delta":104210279},{"NoteNumber":49,"Velocity":67,"Duration":139466,"SoundDuration":139466,"Delta":104210279},{"NoteNumber":54,"Velocity":78,"Duration":139466,"SoundDuration":139466,"Delta":104210279},{"NoteNumber":84,"Velocity":86,"Duration":93703,"SoundDuration":93703,"Delta":104303064},{"NoteNumber":85,"Velocity":86,"Duration":93024,"SoundDuration":93024,"Delta":104396767},{"NoteNumber":52,"Velocity":60,"Duration":139512,"SoundDuration":139512,"Delta":104396767},{"NoteNumber":46,"Velocity":60,"Duration":139512,"SoundDuration":139512,"Delta":104396767},{"NoteNumber":49,"Velocity":60,"Duration":139512,"SoundDuration":139512,"Delta":104396767},{"NoteNumber":54,"Velocity":73,"Duration":139512,"SoundDuration":139512,"Delta":104396767},{"NoteNumber":87,"Velocity":86,"Duration":93216,"SoundDuration":93216,"Delta":104489792},{"NoteNumber":88,"Velocity":95,"Duration":93026,"SoundDuration":93026,"Delta":104583009},{"NoteNumber":87,"Velocity":86,"Duration":93071,"SoundDuration":93071,"Delta":104676036},{"NoteNumber":88,"Velocity":86,"Duration":96593,"SoundDuration":96593,"Delta":104769108},{"NoteNumber":52,"Velocity":60,"Duration":144890,"SoundDuration":144890,"Delta":104769108},{"NoteNumber":46,"Velocity":60,"Duration":144890,"SoundDuration":144890,"Delta":104769108},{"NoteNumber":49,"Velocity":60,"Duration":144890,"SoundDuration":144890,"Delta":104769108},{"NoteNumber":54,"Velocity":73,"Duration":144890,"SoundDuration":144890,"Delta":104769108},{"NoteNumber":85,"Velocity":86,"Duration":96593,"SoundDuration":96593,"Delta":104865701},{"NoteNumber":71,"Velocity":87,"Duration":93475,"SoundDuration":93475,"Delta":104962295},{"NoteNumber":83,"Velocity":103,"Duration":93475,"SoundDuration":93475,"Delta":104962295},{"NoteNumber":47,"Velocity":78,"Duration":93475,"SoundDuration":93475,"Delta":104962295},{"NoteNumber":52,"Velocity":70,"Duration":93475,"SoundDuration":93475,"Delta":105055770},{"NoteNumber":71,"Velocity":73,"Duration":93475,"SoundDuration":93475,"Delta":105149246},{"NoteNumber":83,"Velocity":87,"Duration":93475,"SoundDuration":93475,"Delta":105149246},{"NoteNumber":56,"Velocity":70,"Duration":93475,"SoundDuration":93475,"Delta":105149246},{"NoteNumber":59,"Velocity":70,"Duration":93475,"SoundDuration":93475,"Delta":105242721},{"NoteNumber":68,"Velocity":74,"Duration":94696,"SoundDuration":94696,"Delta":105336197},{"NoteNumber":80,"Velocity":88,"Duration":94696,"SoundDuration":94696,"Delta":105336197},{"NoteNumber":47,"Velocity":77,"Duration":94696,"SoundDuration":94696,"Delta":105336197},{"NoteNumber":52,"Velocity":70,"Duration":94696,"SoundDuration":94696,"Delta":105430894},{"NoteNumber":64,"Velocity":73,"Duration":94697,"SoundDuration":94697,"Delta":105525591},{"NoteNumber":76,"Velocity":87,"Duration":94697,"SoundDuration":94697,"Delta":105525591},{"NoteNumber":56,"Velocity":70,"Duration":94697,"SoundDuration":94697,"Delta":105525591},{"NoteNumber":59,"Velocity":70,"Duration":94696,"SoundDuration":94696,"Delta":105620288},{"NoteNumber":76,"Velocity":87,"Duration":93475,"SoundDuration":93475,"Delta":105714985},{"NoteNumber":88,"Velocity":103,"Duration":93475,"SoundDuration":93475,"Delta":105714985},{"NoteNumber":47,"Velocity":75,"Duration":93475,"SoundDuration":93475,"Delta":105714985},{"NoteNumber":52,"Velocity":70,"Duration":93475,"SoundDuration":93475,"Delta":105808460},{"NoteNumber":76,"Velocity":73,"Duration":93475,"SoundDuration":93475,"Delta":105901936},{"NoteNumber":88,"Velocity":87,"Duration":93475,"SoundDuration":93475,"Delta":105901936},{"NoteNumber":56,"Velocity":70,"Duration":93475,"SoundDuration":93475,"Delta":105901936},{"NoteNumber":59,"Velocity":70,"Duration":93475,"SoundDuration":93475,"Delta":105995411},{"NoteNumber":71,"Velocity":73,"Duration":95322,"SoundDuration":95322,"Delta":106088887},{"NoteNumber":83,"Velocity":87,"Duration":95322,"SoundDuration":95322,"Delta":106088887},{"NoteNumber":47,"Velocity":75,"Duration":95322,"SoundDuration":95322,"Delta":106088887},{"NoteNumber":52,"Velocity":70,"Duration":95322,"SoundDuration":95322,"Delta":106184209},{"NoteNumber":68,"Velocity":73,"Duration":95322,"SoundDuration":95322,"Delta":106279532},{"NoteNumber":80,"Velocity":87,"Duration":95322,"SoundDuration":95322,"Delta":106279532},{"NoteNumber":56,"Velocity":70,"Duration":95322,"SoundDuration":95322,"Delta":106279532},{"NoteNumber":59,"Velocity":70,"Duration":94707,"SoundDuration":94707,"Delta":106374855},{"NoteNumber":71,"Velocity":87,"Duration":93475,"SoundDuration":93475,"Delta":106469562},{"NoteNumber":83,"Velocity":103,"Duration":93475,"SoundDuration":93475,"Delta":106469562},{"NoteNumber":47,"Velocity":78,"Duration":93475,"SoundDuration":93475,"Delta":106469562},{"NoteNumber":52,"Velocity":70,"Duration":93475,"SoundDuration":93475,"Delta":106563037},{"NoteNumber":71,"Velocity":73,"Duration":93475,"SoundDuration":93475,"Delta":106656513},{"NoteNumber":83,"Velocity":87,"Duration":93475,"SoundDuration":93475,"Delta":106656513},{"NoteNumber":56,"Velocity":70,"Duration":93475,"SoundDuration":93475,"Delta":106656513},{"NoteNumber":59,"Velocity":70,"Duration":93475,"SoundDuration":93475,"Delta":106749988},{"NoteNumber":68,"Velocity":74,"Duration":94392,"SoundDuration":94392,"Delta":106843464},{"NoteNumber":80,"Velocity":88,"Duration":94392,"SoundDuration":94392,"Delta":106843464},{"NoteNumber":47,"Velocity":77,"Duration":94392,"SoundDuration":94392,"Delta":106843464},{"NoteNumber":52,"Velocity":70,"Duration":94392,"SoundDuration":94392,"Delta":106937857},{"NoteNumber":64,"Velocity":73,"Duration":94393,"SoundDuration":94393,"Delta":107032250},{"NoteNumber":76,"Velocity":87,"Duration":94393,"SoundDuration":94393,"Delta":107032250},{"NoteNumber":56,"Velocity":70,"Duration":94393,"SoundDuration":94393,"Delta":107032250},{"NoteNumber":59,"Velocity":70,"Duration":94392,"SoundDuration":94392,"Delta":107126643},{"NoteNumber":76,"Velocity":87,"Duration":93475,"SoundDuration":93475,"Delta":107221036},{"NoteNumber":88,"Velocity":103,"Duration":93475,"SoundDuration":93475,"Delta":107221036},{"NoteNumber":56,"Velocity":75,"Duration":93475,"SoundDuration":93475,"Delta":107221036},{"NoteNumber":76,"Velocity":73,"Duration":93475,"SoundDuration":93475,"Delta":107407987},{"NoteNumber":88,"Velocity":87,"Duration":93475,"SoundDuration":93475,"Delta":107407987},{"NoteNumber":56,"Velocity":70,"Duration":93475,"SoundDuration":93475,"Delta":107407987},{"NoteNumber":71,"Velocity":73,"Duration":94696,"SoundDuration":94696,"Delta":107594938},{"NoteNumber":83,"Velocity":87,"Duration":94696,"SoundDuration":94696,"Delta":107594938},{"NoteNumber":52,"Velocity":75,"Duration":94696,"SoundDuration":94696,"Delta":107594938},{"NoteNumber":68,"Velocity":73,"Duration":94697,"SoundDuration":94697,"Delta":107784332},{"NoteNumber":80,"Velocity":87,"Duration":94697,"SoundDuration":94697,"Delta":107784332},{"NoteNumber":47,"Velocity":70,"Duration":94697,"SoundDuration":94697,"Delta":107784332},{"NoteNumber":59,"Velocity":86,"Duration":93475,"SoundDuration":93475,"Delta":107973726},{"NoteNumber":80,"Velocity":47,"Duration":93475,"SoundDuration":93475,"Delta":108067201},{"NoteNumber":83,"Velocity":50,"Duration":92696,"SoundDuration":92696,"Delta":108160677},{"NoteNumber":56,"Velocity":47,"Duration":93475,"SoundDuration":93475,"Delta":108160677},{"NoteNumber":80,"Velocity":47,"Duration":93475,"SoundDuration":93475,"Delta":108254152},{"NoteNumber":83,"Velocity":51,"Duration":92696,"SoundDuration":92696,"Delta":108347628},{"NoteNumber":64,"Velocity":53,"Duration":93475,"SoundDuration":93475,"Delta":108347628},{"NoteNumber":80,"Velocity":47,"Duration":93475,"SoundDuration":93475,"Delta":108441103},{"NoteNumber":83,"Velocity":50,"Duration":92696,"SoundDuration":92696,"Delta":108534579},{"NoteNumber":59,"Velocity":48,"Duration":93475,"SoundDuration":93475,"Delta":108534579},{"NoteNumber":80,"Velocity":47,"Duration":93475,"SoundDuration":93475,"Delta":108628054},{"NoteNumber":83,"Velocity":51,"Duration":91809,"SoundDuration":91809,"Delta":108721530},{"NoteNumber":68,"Velocity":52,"Duration":92581,"SoundDuration":92581,"Delta":108721530},{"NoteNumber":80,"Velocity":47,"Duration":92581,"SoundDuration":92581,"Delta":108814111},{"NoteNumber":83,"Velocity":50,"Duration":91809,"SoundDuration":91809,"Delta":108906692},{"NoteNumber":64,"Velocity":41,"Duration":92581,"SoundDuration":92581,"Delta":108906692},{"NoteNumber":80,"Velocity":47,"Duration":92581,"SoundDuration":92581,"Delta":108999274},{"NoteNumber":83,"Velocity":52,"Duration":91809,"SoundDuration":91809,"Delta":109091855},{"NoteNumber":71,"Velocity":50,"Duration":92581,"SoundDuration":92581,"Delta":109091855},{"NoteNumber":80,"Velocity":47,"Duration":92581,"SoundDuration":92581,"Delta":109184436},{"NoteNumber":83,"Velocity":51,"Duration":91809,"SoundDuration":91809,"Delta":109277017},{"NoteNumber":68,"Velocity":41,"Duration":92581,"SoundDuration":92581,"Delta":109277017},{"NoteNumber":80,"Velocity":47,"Duration":92581,"SoundDuration":92581,"Delta":109369599},{"NoteNumber":83,"Velocity":50,"Duration":92199,"SoundDuration":92199,"Delta":109462180},{"NoteNumber":76,"Velocity":50,"Duration":92976,"SoundDuration":92976,"Delta":109462180},{"NoteNumber":80,"Velocity":47,"Duration":93173,"SoundDuration":93173,"Delta":109555156},{"NoteNumber":83,"Velocity":50,"Duration":92397,"SoundDuration":92397,"Delta":109648330},{"NoteNumber":71,"Velocity":41,"Duration":93173,"SoundDuration":93173,"Delta":109648330},{"NoteNumber":80,"Velocity":47,"Duration":93173,"SoundDuration":93173,"Delta":109741503},{"NoteNumber":83,"Velocity":51,"Duration":92397,"SoundDuration":92397,"Delta":109834677},{"NoteNumber":76,"Velocity":50,"Duration":93173,"SoundDuration":93173,"Delta":109834677},{"NoteNumber":80,"Velocity":47,"Duration":93173,"SoundDuration":93173,"Delta":109927850},{"NoteNumber":83,"Velocity":50,"Duration":92397,"SoundDuration":92397,"Delta":110021024},{"NoteNumber":71,"Velocity":39,"Duration":93173,"SoundDuration":93173,"Delta":110021024},{"NoteNumber":80,"Velocity":47,"Duration":93173,"SoundDuration":93173,"Delta":110114197},{"NoteNumber":83,"Velocity":51,"Duration":92397,"SoundDuration":92397,"Delta":110207371},{"NoteNumber":76,"Velocity":50,"Duration":93173,"SoundDuration":93173,"Delta":110207371},{"NoteNumber":80,"Velocity":47,"Duration":93374,"SoundDuration":93374,"Delta":110300544},{"NoteNumber":83,"Velocity":50,"Duration":92896,"SoundDuration":92896,"Delta":110393919},{"NoteNumber":71,"Velocity":41,"Duration":93677,"SoundDuration":93677,"Delta":110393919},{"NoteNumber":80,"Velocity":47,"Duration":93983,"SoundDuration":93983,"Delta":110487597},{"NoteNumber":83,"Velocity":52,"Duration":93503,"SoundDuration":93503,"Delta":110581580},{"NoteNumber":76,"Velocity":50,"Duration":94290,"SoundDuration":94290,"Delta":110581580},{"NoteNumber":80,"Velocity":47,"Duration":94595,"SoundDuration":94595,"Delta":110675871},{"NoteNumber":83,"Velocity":51,"Duration":94113,"SoundDuration":94113,"Delta":110770466},{"NoteNumber":71,"Velocity":42,"Duration":94904,"SoundDuration":94904,"Delta":110770466},{"NoteNumber":80,"Velocity":47,"Duration":95218,"SoundDuration":95218,"Delta":110865371},{"NoteNumber":75,"Velocity":46,"Duration":94091,"SoundDuration":94091,"Delta":110960589},{"NoteNumber":81,"Velocity":42,"Duration":93475,"SoundDuration":93475,"Delta":111054680},{"NoteNumber":83,"Velocity":45,"Duration":92696,"SoundDuration":92696,"Delta":111148156},{"NoteNumber":71,"Velocity":37,"Duration":93475,"SoundDuration":93475,"Delta":111148156},{"NoteNumber":81,"Velocity":41,"Duration":93374,"SoundDuration":93374,"Delta":111241631},{"NoteNumber":84,"Velocity":44,"Duration":92397,"SoundDuration":92397,"Delta":111335006},{"NoteNumber":75,"Velocity":43,"Duration":93173,"SoundDuration":93173,"Delta":111335006},{"NoteNumber":81,"Velocity":40,"Duration":93075,"SoundDuration":93075,"Delta":111428180},{"NoteNumber":83,"Velocity":42,"Duration":92105,"SoundDuration":92105,"Delta":111521255},{"NoteNumber":71,"Velocity":36,"Duration":92879,"SoundDuration":92879,"Delta":111521255},{"NoteNumber":81,"Velocity":39,"Duration":92779,"SoundDuration":92779,"Delta":111614134},{"NoteNumber":84,"Velocity":42,"Duration":91243,"SoundDuration":91243,"Delta":111706914},{"NoteNumber":75,"Velocity":41,"Duration":92004,"SoundDuration":92004,"Delta":111706914},{"NoteNumber":81,"Velocity":38,"Duration":92535,"SoundDuration":92535,"Delta":111798919},{"NoteNumber":83,"Velocity":40,"Duration":91543,"SoundDuration":91543,"Delta":111891454},{"NoteNumber":71,"Velocity":32,"Duration":92307,"SoundDuration":92307,"Delta":111891454},{"NoteNumber":81,"Velocity":37,"Duration":92789,"SoundDuration":92789,"Delta":111983762},{"NoteNumber":84,"Velocity":40,"Duration":91072,"SoundDuration":91072,"Delta":112076551},{"NoteNumber":75,"Velocity":39,"Duration":91839,"SoundDuration":91839,"Delta":112076551},{"NoteNumber":81,"Velocity":36,"Duration":92749,"SoundDuration":92749,"Delta":112168391},{"NoteNumber":83,"Velocity":39,"Duration":90839,"SoundDuration":90839,"Delta":112261141},{"NoteNumber":71,"Velocity":31,"Duration":91606,"SoundDuration":91606,"Delta":112261141},{"NoteNumber":81,"Velocity":35,"Duration":92316,"SoundDuration":92316,"Delta":112352747},{"NoteNumber":84,"Velocity":37,"Duration":91365,"SoundDuration":91365,"Delta":112445064},{"NoteNumber":75,"Velocity":36,"Duration":92142,"SoundDuration":92142,"Delta":112445064},{"NoteNumber":81,"Velocity":34,"Duration":93129,"SoundDuration":93129,"Delta":112537206},{"NoteNumber":83,"Velocity":36,"Duration":90589,"SoundDuration":90589,"Delta":112630335},{"NoteNumber":71,"Velocity":30,"Duration":91356,"SoundDuration":91356,"Delta":112630335},{"NoteNumber":81,"Velocity":34,"Duration":92958,"SoundDuration":92958,"Delta":112721692},{"NoteNumber":84,"Velocity":37,"Duration":91089,"SoundDuration":91089,"Delta":112814650},{"NoteNumber":75,"Velocity":36,"Duration":91849,"SoundDuration":91849,"Delta":112814650},{"NoteNumber":81,"Velocity":34,"Duration":91949,"SoundDuration":91949,"Delta":112906499},{"NoteNumber":83,"Velocity":36,"Duration":91283,"SoundDuration":91283,"Delta":112998448},{"NoteNumber":71,"Velocity":31,"Duration":92045,"SoundDuration":92045,"Delta":112998448},{"NoteNumber":81,"Velocity":34,"Duration":92337,"SoundDuration":92337,"Delta":113090493},{"NoteNumber":84,"Velocity":37,"Duration":92397,"SoundDuration":92397,"Delta":113182830},{"NoteNumber":75,"Velocity":36,"Duration":93173,"SoundDuration":93173,"Delta":113182830},{"NoteNumber":81,"Velocity":34,"Duration":93274,"SoundDuration":93274,"Delta":113276004},{"NoteNumber":83,"Velocity":36,"Duration":92696,"SoundDuration":92696,"Delta":113369278},{"NoteNumber":71,"Velocity":29,"Duration":93475,"SoundDuration":93475,"Delta":113369278},{"NoteNumber":81,"Velocity":34,"Duration":93779,"SoundDuration":93779,"Delta":113462753},{"NoteNumber":84,"Velocity":38,"Duration":93199,"SoundDuration":93199,"Delta":113556533},{"NoteNumber":75,"Velocity":36,"Duration":93983,"SoundDuration":93983,"Delta":113556533},{"NoteNumber":81,"Velocity":34,"Duration":94187,"SoundDuration":94187,"Delta":113650516},{"NoteNumber":83,"Velocity":37,"Duration":93606,"SoundDuration":93606,"Delta":113744704},{"NoteNumber":71,"Velocity":30,"Duration":94392,"SoundDuration":94392,"Delta":113744704},{"NoteNumber":81,"Velocity":34,"Duration":94656,"SoundDuration":94656,"Delta":113839097},{"NoteNumber":85,"Velocity":37,"Duration":94480,"SoundDuration":94480,"Delta":113933753},{"NoteNumber":75,"Velocity":37,"Duration":62754,"SoundDuration":62754,"Delta":113933753},{"NoteNumber":76,"Velocity":32,"Duration":62230,"SoundDuration":62230,"Delta":113996508},{"NoteNumber":81,"Velocity":34,"Duration":70611,"SoundDuration":70611,"Delta":114027457},{"NoteNumber":75,"Velocity":36,"Duration":62928,"SoundDuration":62928,"Delta":114058738},{"NoteNumber":83,"Velocity":36,"Duration":94675,"SoundDuration":94675,"Delta":114121667},{"NoteNumber":76,"Velocity":31,"Duration":62130,"SoundDuration":62130,"Delta":114121667},{"NoteNumber":75,"Velocity":36,"Duration":63372,"SoundDuration":63372,"Delta":114183797},{"NoteNumber":81,"Velocity":35,"Duration":94194,"SoundDuration":94194,"Delta":114215548},{"NoteNumber":76,"Velocity":33,"Duration":62573,"SoundDuration":62573,"Delta":114247170},{"NoteNumber":85,"Velocity":38,"Duration":95112,"SoundDuration":95112,"Delta":114309743},{"NoteNumber":75,"Velocity":37,"Duration":62598,"SoundDuration":62598,"Delta":114309743},{"NoteNumber":76,"Velocity":33,"Duration":63316,"SoundDuration":63316,"Delta":114372341},{"NoteNumber":81,"Velocity":36,"Duration":93661,"SoundDuration":93661,"Delta":114404062},{"NoteNumber":75,"Velocity":37,"Duration":62065,"SoundDuration":62065,"Delta":114435658},{"NoteNumber":83,"Velocity":38,"Duration":94858,"SoundDuration":94858,"Delta":114497724},{"NoteNumber":76,"Velocity":33,"Duration":62504,"SoundDuration":62504,"Delta":114497724},{"NoteNumber":75,"Velocity":38,"Duration":62772,"SoundDuration":62772,"Delta":114560228},{"NoteNumber":81,"Velocity":36,"Duration":93267,"SoundDuration":93267,"Delta":114591799},{"NoteNumber":76,"Velocity":34,"Duration":62065,"SoundDuration":62065,"Delta":114623001},{"NoteNumber":85,"Velocity":40,"Duration":94770,"SoundDuration":94770,"Delta":114685066},{"NoteNumber":75,"Velocity":38,"Duration":62918,"SoundDuration":62918,"Delta":114685066},{"NoteNumber":76,"Velocity":35,"Duration":61873,"SoundDuration":61873,"Delta":114747985},{"NoteNumber":81,"Velocity":37,"Duration":93418,"SoundDuration":93418,"Delta":114779065},{"NoteNumber":75,"Velocity":39,"Duration":62625,"SoundDuration":62625,"Delta":114809858},{"NoteNumber":83,"Velocity":40,"Duration":94136,"SoundDuration":94136,"Delta":114872483},{"NoteNumber":76,"Velocity":35,"Duration":62576,"SoundDuration":62576,"Delta":114872483},{"NoteNumber":75,"Velocity":39,"Duration":61468,"SoundDuration":61468,"Delta":114935059},{"NoteNumber":81,"Velocity":38,"Duration":92911,"SoundDuration":92911,"Delta":114965853},{"NoteNumber":76,"Velocity":36,"Duration":62237,"SoundDuration":62237,"Delta":114996527},{"NoteNumber":85,"Velocity":43,"Duration":94718,"SoundDuration":94718,"Delta":115058765},{"NoteNumber":75,"Velocity":40,"Duration":62868,"SoundDuration":62868,"Delta":115058765},{"NoteNumber":76,"Velocity":36,"Duration":61873,"SoundDuration":61873,"Delta":115121633},{"NoteNumber":81,"Velocity":39,"Duration":93271,"SoundDuration":93271,"Delta":115152713},{"NoteNumber":75,"Velocity":40,"Duration":62478,"SoundDuration":62478,"Delta":115183506},{"NoteNumber":83,"Velocity":43,"Duration":93963,"SoundDuration":93963,"Delta":115245984},{"NoteNumber":76,"Velocity":36,"Duration":62355,"SoundDuration":62355,"Delta":115245984},{"NoteNumber":75,"Velocity":41,"Duration":61633,"SoundDuration":61633,"Delta":115308340},{"NoteNumber":81,"Velocity":40,"Duration":92594,"SoundDuration":92594,"Delta":115339181},{"NoteNumber":76,"Velocity":37,"Duration":61800,"SoundDuration":61800,"Delta":115369974},{"NoteNumber":90,"Velocity":44,"Duration":94128,"SoundDuration":94128,"Delta":115431775},{"NoteNumber":75,"Velocity":41,"Duration":61900,"SoundDuration":61900,"Delta":115431775},{"NoteNumber":76,"Velocity":36,"Duration":62503,"SoundDuration":62503,"Delta":115493676},{"NoteNumber":83,"Velocity":41,"Duration":92009,"SoundDuration":92009,"Delta":115525122},{"NoteNumber":81,"Velocity":41,"Duration":92009,"SoundDuration":92009,"Delta":115525122},{"NoteNumber":75,"Velocity":42,"Duration":60952,"SoundDuration":60952,"Delta":115556179},{"NoteNumber":90,"Velocity":43,"Duration":94342,"SoundDuration":94342,"Delta":115617131},{"NoteNumber":76,"Velocity":37,"Duration":62114,"SoundDuration":62114,"Delta":115617131},{"NoteNumber":75,"Velocity":42,"Duration":62502,"SoundDuration":62502,"Delta":115679246},{"NoteNumber":83,"Velocity":41,"Duration":92737,"SoundDuration":92737,"Delta":115710692},{"NoteNumber":81,"Velocity":41,"Duration":92737,"SoundDuration":92737,"Delta":115710692},{"NoteNumber":76,"Velocity":37,"Duration":61681,"SoundDuration":61681,"Delta":115741749},{"NoteNumber":90,"Velocity":46,"Duration":94673,"SoundDuration":94673,"Delta":115803430},{"NoteNumber":75,"Velocity":43,"Duration":62575,"SoundDuration":62575,"Delta":115803430},{"NoteNumber":76,"Velocity":38,"Duration":62235,"SoundDuration":62235,"Delta":115866005},{"NoteNumber":83,"Velocity":42,"Duration":92452,"SoundDuration":92452,"Delta":115897329},{"NoteNumber":81,"Velocity":42,"Duration":92452,"SoundDuration":92452,"Delta":115897329},{"NoteNumber":75,"Velocity":43,"Duration":61540,"SoundDuration":61540,"Delta":115928241},{"NoteNumber":90,"Velocity":46,"Duration":94078,"SoundDuration":94078,"Delta":115989782},{"NoteNumber":76,"Velocity":39,"Duration":62475,"SoundDuration":62475,"Delta":115989782},{"NoteNumber":75,"Velocity":44,"Duration":61282,"SoundDuration":61282,"Delta":116052257},{"NoteNumber":83,"Velocity":44,"Duration":92361,"SoundDuration":92361,"Delta":116083098},{"NoteNumber":81,"Velocity":44,"Duration":92361,"SoundDuration":92361,"Delta":116083098},{"NoteNumber":76,"Velocity":39,"Duration":61920,"SoundDuration":61920,"Delta":116113540},{"NoteNumber":90,"Velocity":49,"Duration":63297,"SoundDuration":63297,"Delta":116175460},{"NoteNumber":75,"Velocity":44,"Duration":62526,"SoundDuration":62526,"Delta":116175460},{"NoteNumber":76,"Velocity":38,"Duration":61611,"SoundDuration":61611,"Delta":116237986},{"NoteNumber":83,"Velocity":45,"Duration":93415,"SoundDuration":93415,"Delta":116268755},{"NoteNumber":81,"Velocity":45,"Duration":93415,"SoundDuration":93415,"Delta":116268755},{"NoteNumber":75,"Velocity":45,"Duration":62573,"SoundDuration":62573,"Delta":116299597},{"NoteNumber":90,"Velocity":49,"Duration":93426,"SoundDuration":93426,"Delta":116362171},{"NoteNumber":76,"Velocity":38,"Duration":61705,"SoundDuration":61705,"Delta":116362171},{"NoteNumber":75,"Velocity":45,"Duration":62359,"SoundDuration":62359,"Delta":116423876},{"NoteNumber":83,"Velocity":47,"Duration":93463,"SoundDuration":93463,"Delta":116454813},{"NoteNumber":81,"Velocity":47,"Duration":93463,"SoundDuration":93463,"Delta":116454813},{"NoteNumber":76,"Velocity":40,"Duration":62041,"SoundDuration":62041,"Delta":116486235},{"NoteNumber":90,"Velocity":54,"Duration":93677,"SoundDuration":93677,"Delta":116548277},{"NoteNumber":75,"Velocity":50,"Duration":74384,"SoundDuration":74384,"Delta":116548277},{"NoteNumber":76,"Velocity":44,"Duration":74663,"SoundDuration":74663,"Delta":116622662},{"NoteNumber":83,"Velocity":48,"Duration":94089,"SoundDuration":94089,"Delta":116641178},{"NoteNumber":81,"Velocity":48,"Duration":94089,"SoundDuration":94089,"Delta":116641178},{"NoteNumber":75,"Velocity":50,"Duration":76261,"SoundDuration":76261,"Delta":116697325},{"NoteNumber":90,"Velocity":53,"Duration":97438,"SoundDuration":97438,"Delta":116735267},{"NoteNumber":73,"Velocity":52,"Duration":78404,"SoundDuration":78404,"Delta":116773586},{"NoteNumber":83,"Velocity":49,"Duration":100616,"SoundDuration":100616,"Delta":116831867},{"NoteNumber":81,"Velocity":49,"Duration":100616,"SoundDuration":100616,"Delta":116831867},{"NoteNumber":75,"Velocity":47,"Duration":80493,"SoundDuration":80493,"Delta":116851990},{"NoteNumber":80,"Velocity":72,"Duration":1142285,"SoundDuration":1142285,"Delta":116932484},{"NoteNumber":83,"Velocity":72,"Duration":1142285,"SoundDuration":1142285,"Delta":116932484},{"NoteNumber":88,"Velocity":72,"Duration":1142285,"SoundDuration":1142285,"Delta":116932484},{"NoteNumber":64,"Velocity":48,"Duration":3018335,"SoundDuration":3018335,"Delta":116932484},{"NoteNumber":76,"Velocity":57,"Duration":768383,"SoundDuration":768383,"Delta":116932484},{"NoteNumber":68,"Velocity":38,"Duration":747804,"SoundDuration":747804,"Delta":117700868},{"NoteNumber":74,"Velocity":45,"Duration":747804,"SoundDuration":747804,"Delta":117700868},{"NoteNumber":71,"Velocity":38,"Duration":747804,"SoundDuration":747804,"Delta":117700868},{"NoteNumber":88,"Velocity":58,"Duration":93475,"SoundDuration":93475,"Delta":118074770},{"NoteNumber":86,"Velocity":57,"Duration":93475,"SoundDuration":93475,"Delta":118168245},{"NoteNumber":84,"Velocity":56,"Duration":93475,"SoundDuration":93475,"Delta":118261721},{"NoteNumber":83,"Velocity":55,"Duration":93475,"SoundDuration":93475,"Delta":118355196},{"NoteNumber":84,"Velocity":58,"Duration":93475,"SoundDuration":93475,"Delta":118448672},{"NoteNumber":72,"Velocity":47,"Duration":753227,"SoundDuration":753227,"Delta":118448672},{"NoteNumber":69,"Velocity":39,"Duration":753227,"SoundDuration":753227,"Delta":118448672},{"NoteNumber":83,"Velocity":57,"Duration":93475,"SoundDuration":93475,"Delta":118542147},{"NoteNumber":81,"Velocity":56,"Duration":93475,"SoundDuration":93475,"Delta":118635623},{"NoteNumber":80,"Velocity":55,"Duration":93475,"SoundDuration":93475,"Delta":118729098},{"NoteNumber":81,"Velocity":51,"Duration":93475,"SoundDuration":93475,"Delta":118822574},{"NoteNumber":83,"Velocity":52,"Duration":93475,"SoundDuration":93475,"Delta":118916049},{"NoteNumber":84,"Velocity":53,"Duration":93475,"SoundDuration":93475,"Delta":119009525},{"NoteNumber":86,"Velocity":54,"Duration":98899,"SoundDuration":98899,"Delta":119103000},{"NoteNumber":88,"Velocity":56,"Duration":93475,"SoundDuration":93475,"Delta":119201899},{"NoteNumber":74,"Velocity":46,"Duration":748920,"SoundDuration":748920,"Delta":119201899},{"NoteNumber":71,"Velocity":39,"Duration":748920,"SoundDuration":748920,"Delta":119201899},{"NoteNumber":68,"Velocity":39,"Duration":748920,"SoundDuration":748920,"Delta":119201899},{"NoteNumber":89,"Velocity":57,"Duration":93475,"SoundDuration":93475,"Delta":119295375},{"NoteNumber":88,"Velocity":57,"Duration":93475,"SoundDuration":93475,"Delta":119388850},{"NoteNumber":87,"Velocity":56,"Duration":93475,"SoundDuration":93475,"Delta":119482326},{"NoteNumber":88,"Velocity":56,"Duration":93475,"SoundDuration":93475,"Delta":119575801},{"NoteNumber":86,"Velocity":56,"Duration":93677,"SoundDuration":93677,"Delta":119669277},{"NoteNumber":84,"Velocity":56,"Duration":93779,"SoundDuration":93779,"Delta":119762955},{"NoteNumber":83,"Velocity":56,"Duration":94085,"SoundDuration":94085,"Delta":119856734},{"NoteNumber":84,"Velocity":57,"Duration":94187,"SoundDuration":94187,"Delta":119950819},{"NoteNumber":69,"Velocity":40,"Duration":377873,"SoundDuration":377873,"Delta":119950819},{"NoteNumber":72,"Velocity":48,"Duration":377873,"SoundDuration":377873,"Delta":119950819},{"NoteNumber":86,"Velocity":57,"Duration":94392,"SoundDuration":94392,"Delta":120045007},{"NoteNumber":84,"Velocity":57,"Duration":94595,"SoundDuration":94595,"Delta":120139400},{"NoteNumber":83,"Velocity":53,"Duration":94697,"SoundDuration":94697,"Delta":120233996},{"NoteNumber":81,"Velocity":56,"Duration":95008,"SoundDuration":95008,"Delta":120328693},{"NoteNumber":80,"Velocity":52,"Duration":95113,"SoundDuration":95113,"Delta":120423701},{"NoteNumber":81,"Velocity":56,"Duration":95322,"SoundDuration":95322,"Delta":120518815},{"NoteNumber":83,"Velocity":52,"Duration":95322,"SoundDuration":95322,"Delta":120614138},{"NoteNumber":72,"Velocity":45,"Duration":783966,"SoundDuration":783966,"Delta":120709460},{"NoteNumber":84,"Velocity":59,"Duration":388953,"SoundDuration":388953,"Delta":120709460},{"NoteNumber":57,"Velocity":39,"Duration":783966,"SoundDuration":783966,"Delta":120709460},{"NoteNumber":60,"Velocity":39,"Duration":783966,"SoundDuration":783966,"Delta":120709460},{"NoteNumber":66,"Velocity":39,"Duration":783966,"SoundDuration":783966,"Delta":120709460},{"NoteNumber":69,"Velocity":47,"Duration":783966,"SoundDuration":783966,"Delta":120709460},{"NoteNumber":81,"Velocity":52,"Duration":194477,"SoundDuration":194477,"Delta":121098414},{"NoteNumber":78,"Velocity":52,"Duration":200535,"SoundDuration":200535,"Delta":121292891},{"NoteNumber":71,"Velocity":45,"Duration":784665,"SoundDuration":784665,"Delta":121493426},{"NoteNumber":83,"Velocity":57,"Duration":388953,"SoundDuration":388953,"Delta":121493426},{"NoteNumber":59,"Velocity":39,"Duration":784665,"SoundDuration":784665,"Delta":121493426},{"NoteNumber":64,"Velocity":39,"Duration":784665,"SoundDuration":784665,"Delta":121493426},{"NoteNumber":67,"Velocity":46,"Duration":784665,"SoundDuration":784665,"Delta":121493426},{"NoteNumber":79,"Velocity":52,"Duration":194477,"SoundDuration":194477,"Delta":121882380},{"NoteNumber":76,"Velocity":52,"Duration":201233,"SoundDuration":201233,"Delta":122076857},{"NoteNumber":69,"Velocity":45,"Duration":780537,"SoundDuration":780537,"Delta":122278091},{"NoteNumber":81,"Velocity":57,"Duration":390269,"SoundDuration":390269,"Delta":122278091},{"NoteNumber":63,"Velocity":37,"Duration":780537,"SoundDuration":780537,"Delta":122278091},{"NoteNumber":66,"Velocity":44,"Duration":780537,"SoundDuration":780537,"Delta":122278091},{"NoteNumber":59,"Velocity":37,"Duration":780537,"SoundDuration":780537,"Delta":122278091},{"NoteNumber":78,"Velocity":52,"Duration":195134,"SoundDuration":195134,"Delta":122668360},{"NoteNumber":75,"Velocity":52,"Duration":195134,"SoundDuration":195134,"Delta":122863495},{"NoteNumber":76,"Velocity":72,"Duration":1140299,"SoundDuration":1140299,"Delta":123058629},{"NoteNumber":64,"Velocity":56,"Duration":767606,"SoundDuration":767606,"Delta":123058629},{"NoteNumber":52,"Velocity":45,"Duration":3009820,"SoundDuration":3009820,"Delta":123058629},{"NoteNumber":62,"Velocity":45,"Duration":745388,"SoundDuration":745388,"Delta":123826235},{"NoteNumber":59,"Velocity":38,"Duration":745388,"SoundDuration":745388,"Delta":123826235},{"NoteNumber":56,"Velocity":38,"Duration":745388,"SoundDuration":745388,"Delta":123826235},{"NoteNumber":76,"Velocity":58,"Duration":93173,"SoundDuration":93173,"Delta":124198929},{"NoteNumber":74,"Velocity":57,"Duration":93173,"SoundDuration":93173,"Delta":124292103},{"NoteNumber":72,"Velocity":56,"Duration":93173,"SoundDuration":93173,"Delta":124385276},{"NoteNumber":71,"Velocity":55,"Duration":93173,"SoundDuration":93173,"Delta":124478450},{"NoteNumber":72,"Velocity":58,"Duration":93173,"SoundDuration":93173,"Delta":124571623},{"NoteNumber":57,"Velocity":39,"Duration":751113,"SoundDuration":751113,"Delta":124571623},{"NoteNumber":60,"Velocity":47,"Duration":751113,"SoundDuration":751113,"Delta":124571623},{"NoteNumber":71,"Velocity":57,"Duration":93173,"SoundDuration":93173,"Delta":124664797},{"NoteNumber":69,"Velocity":56,"Duration":93173,"SoundDuration":93173,"Delta":124757970},{"NoteNumber":68,"Velocity":55,"Duration":93173,"SoundDuration":93173,"Delta":124851144},{"NoteNumber":69,"Velocity":51,"Duration":93173,"SoundDuration":93173,"Delta":124944317},{"NoteNumber":71,"Velocity":52,"Duration":93173,"SoundDuration":93173,"Delta":125037491},{"NoteNumber":72,"Velocity":53,"Duration":93173,"SoundDuration":93173,"Delta":125130664},{"NoteNumber":74,"Velocity":54,"Duration":98899,"SoundDuration":98899,"Delta":125223838},{"NoteNumber":76,"Velocity":56,"Duration":93475,"SoundDuration":93475,"Delta":125322737},{"NoteNumber":62,"Velocity":46,"Duration":745713,"SoundDuration":745713,"Delta":125322737},{"NoteNumber":59,"Velocity":39,"Duration":745713,"SoundDuration":745713,"Delta":125322737},{"NoteNumber":56,"Velocity":39,"Duration":745713,"SoundDuration":745713,"Delta":125322737},{"NoteNumber":77,"Velocity":57,"Duration":93475,"SoundDuration":93475,"Delta":125416212},{"NoteNumber":76,"Velocity":57,"Duration":93475,"SoundDuration":93475,"Delta":125509688},{"NoteNumber":75,"Velocity":56,"Duration":93475,"SoundDuration":93475,"Delta":125603163},{"NoteNumber":76,"Velocity":56,"Duration":92581,"SoundDuration":92581,"Delta":125696639},{"NoteNumber":74,"Velocity":56,"Duration":92779,"SoundDuration":92779,"Delta":125789220},{"NoteNumber":72,"Velocity":56,"Duration":93075,"SoundDuration":93075,"Delta":125882000},{"NoteNumber":71,"Velocity":56,"Duration":93374,"SoundDuration":93374,"Delta":125975075},{"NoteNumber":72,"Velocity":57,"Duration":93677,"SoundDuration":93677,"Delta":126068450},{"NoteNumber":57,"Velocity":48,"Duration":376547,"SoundDuration":376547,"Delta":126068450},{"NoteNumber":60,"Velocity":48,"Duration":376547,"SoundDuration":376547,"Delta":126068450},{"NoteNumber":74,"Velocity":57,"Duration":93983,"SoundDuration":93983,"Delta":126162128},{"NoteNumber":72,"Velocity":57,"Duration":94290,"SoundDuration":94290,"Delta":126256112},{"NoteNumber":71,"Velocity":53,"Duration":94595,"SoundDuration":94595,"Delta":126350402},{"NoteNumber":69,"Velocity":56,"Duration":94904,"SoundDuration":94904,"Delta":126444998},{"NoteNumber":68,"Velocity":52,"Duration":95218,"SoundDuration":95218,"Delta":126539902},{"NoteNumber":69,"Velocity":56,"Duration":95533,"SoundDuration":95533,"Delta":126635121},{"NoteNumber":71,"Velocity":52,"Duration":95846,"SoundDuration":95846,"Delta":126730654},{"NoteNumber":60,"Velocity":45,"Duration":782741,"SoundDuration":782741,"Delta":126826501},{"NoteNumber":72,"Velocity":59,"Duration":387671,"SoundDuration":387671,"Delta":126826501},{"NoteNumber":45,"Velocity":39,"Duration":782741,"SoundDuration":782741,"Delta":126826501},{"NoteNumber":48,"Velocity":39,"Duration":782741,"SoundDuration":782741,"Delta":126826501},{"NoteNumber":54,"Velocity":39,"Duration":782741,"SoundDuration":782741,"Delta":126826501},{"NoteNumber":57,"Velocity":47,"Duration":782741,"SoundDuration":782741,"Delta":126826501},{"NoteNumber":69,"Velocity":52,"Duration":193836,"SoundDuration":193836,"Delta":127214173},{"NoteNumber":66,"Velocity":52,"Duration":201233,"SoundDuration":201233,"Delta":127408009},{"NoteNumber":59,"Velocity":45,"Duration":784665,"SoundDuration":784665,"Delta":127609243},{"NoteNumber":71,"Velocity":57,"Duration":388953,"SoundDuration":388953,"Delta":127609243},{"NoteNumber":47,"Velocity":39,"Duration":784665,"SoundDuration":784665,"Delta":127609243},{"NoteNumber":52,"Velocity":39,"Duration":784665,"SoundDuration":784665,"Delta":127609243},{"NoteNumber":55,"Velocity":46,"Duration":784665,"SoundDuration":784665,"Delta":127609243},{"NoteNumber":67,"Velocity":52,"Duration":194477,"SoundDuration":194477,"Delta":127998197},{"NoteNumber":64,"Velocity":52,"Duration":201233,"SoundDuration":201233,"Delta":128192674},{"NoteNumber":57,"Velocity":45,"Duration":783197,"SoundDuration":783197,"Delta":128393908},{"NoteNumber":69,"Velocity":57,"Duration":388954,"SoundDuration":388954,"Delta":128393908},{"NoteNumber":54,"Velocity":44,"Duration":783197,"SoundDuration":783197,"Delta":128393908},{"NoteNumber":51,"Velocity":37,"Duration":783197,"SoundDuration":783197,"Delta":128393908},{"NoteNumber":47,"Velocity":37,"Duration":783197,"SoundDuration":783197,"Delta":128393908},{"NoteNumber":66,"Velocity":52,"Duration":197122,"SoundDuration":197122,"Delta":128782862},{"NoteNumber":63,"Velocity":52,"Duration":197121,"SoundDuration":197121,"Delta":128979984},{"NoteNumber":64,"Velocity":55,"Duration":197798,"SoundDuration":197798,"Delta":129177106},{"NoteNumber":55,"Velocity":44,"Duration":197798,"SoundDuration":197798,"Delta":129177106},{"NoteNumber":52,"Velocity":37,"Duration":197798,"SoundDuration":197798,"Delta":129177106},{"NoteNumber":76,"Velocity":67,"Duration":197122,"SoundDuration":197122,"Delta":129579696},{"NoteNumber":43,"Velocity":42,"Duration":394243,"SoundDuration":394243,"Delta":129579696},{"NoteNumber":52,"Velocity":51,"Duration":591365,"SoundDuration":591365,"Delta":129579696},{"NoteNumber":74,"Velocity":62,"Duration":197121,"SoundDuration":197121,"Delta":129776818},{"NoteNumber":72,"Velocity":66,"Duration":394244,"SoundDuration":394244,"Delta":129973940},{"NoteNumber":45,"Velocity":42,"Duration":795434,"SoundDuration":795434,"Delta":129973940},{"NoteNumber":53,"Velocity":49,"Duration":197122,"SoundDuration":197122,"Delta":130171062},{"NoteNumber":69,"Velocity":61,"Duration":197122,"SoundDuration":197122,"Delta":130368184},{"NoteNumber":55,"Velocity":51,"Duration":197122,"SoundDuration":197122,"Delta":130368184},{"NoteNumber":65,"Velocity":54,"Duration":204068,"SoundDuration":204068,"Delta":130565306},{"NoteNumber":57,"Velocity":55,"Duration":204068,"SoundDuration":204068,"Delta":130565306},{"NoteNumber":71,"Velocity":51,"Duration":395596,"SoundDuration":395596,"Delta":130769374},{"NoteNumber":59,"Velocity":41,"Duration":791191,"SoundDuration":791191,"Delta":130769374},{"NoteNumber":47,"Velocity":35,"Duration":1582383,"SoundDuration":1582383,"Delta":130769374},{"NoteNumber":55,"Velocity":35,"Duration":791191,"SoundDuration":791191,"Delta":130769374},{"NoteNumber":67,"Velocity":46,"Duration":197797,"SoundDuration":197797,"Delta":131164970},{"NoteNumber":64,"Velocity":46,"Duration":197798,"SoundDuration":197798,"Delta":131362768},{"NoteNumber":69,"Velocity":51,"Duration":395596,"SoundDuration":395596,"Delta":131560566},{"NoteNumber":54,"Velocity":33,"Duration":791191,"SoundDuration":791191,"Delta":131560566},{"NoteNumber":57,"Velocity":39,"Duration":791191,"SoundDuration":791191,"Delta":131560566},{"NoteNumber":66,"Velocity":46,"Duration":197798,"SoundDuration":197798,"Delta":131956162},{"NoteNumber":63,"Velocity":46,"Duration":197797,"SoundDuration":197797,"Delta":132153960},{"NoteNumber":64,"Velocity":55,"Duration":197798,"SoundDuration":197798,"Delta":132351758},{"NoteNumber":48,"Velocity":37,"Duration":197798,"SoundDuration":197798,"Delta":132351758},{"NoteNumber":52,"Velocity":37,"Duration":197798,"SoundDuration":197798,"Delta":132351758},{"NoteNumber":55,"Velocity":44,"Duration":197798,"SoundDuration":197798,"Delta":132351758},{"NoteNumber":72,"Velocity":66,"Duration":197798,"SoundDuration":197798,"Delta":132756538},{"NoteNumber":40,"Velocity":42,"Duration":395596,"SoundDuration":395596,"Delta":132756538},{"NoteNumber":48,"Velocity":51,"Duration":593393,"SoundDuration":593393,"Delta":132756538},{"NoteNumber":71,"Velocity":62,"Duration":197798,"SoundDuration":197798,"Delta":132954336},{"NoteNumber":69,"Velocity":66,"Duration":395595,"SoundDuration":395595,"Delta":133152134},{"NoteNumber":41,"Velocity":42,"Duration":799636,"SoundDuration":799636,"Delta":133152134},{"NoteNumber":50,"Velocity":49,"Duration":197798,"SoundDuration":197798,"Delta":133349932},{"NoteNumber":65,"Velocity":61,"Duration":197798,"SoundDuration":197798,"Delta":133547730},{"NoteNumber":52,"Velocity":51,"Duration":197798,"SoundDuration":197798,"Delta":133547730},{"NoteNumber":62,"Velocity":54,"Duration":206242,"SoundDuration":206242,"Delta":133745528},{"NoteNumber":53,"Velocity":55,"Duration":206242,"SoundDuration":206242,"Delta":133745528},{"NoteNumber":67,"Velocity":51,"Duration":396956,"SoundDuration":396956,"Delta":133951770},{"NoteNumber":52,"Velocity":35,"Duration":800227,"SoundDuration":800227,"Delta":133951770},{"NoteNumber":43,"Velocity":35,"Duration":1603239,"SoundDuration":1603239,"Delta":133951770},{"NoteNumber":55,"Velocity":41,"Duration":800227,"SoundDuration":800227,"Delta":133951770},{"NoteNumber":64,"Velocity":46,"Duration":198478,"SoundDuration":198478,"Delta":134348727},{"NoteNumber":60,"Velocity":46,"Duration":204791,"SoundDuration":204791,"Delta":134547206},{"NoteNumber":65,"Velocity":51,"Duration":398326,"SoundDuration":398326,"Delta":134751998},{"NoteNumber":53,"Velocity":39,"Duration":803011,"SoundDuration":803011,"Delta":134751998},{"NoteNumber":50,"Velocity":33,"Duration":803011,"SoundDuration":803011,"Delta":134751998},{"NoteNumber":62,"Velocity":46,"Duration":199163,"SoundDuration":199163,"Delta":135150325},{"NoteNumber":59,"Velocity":46,"Duration":205521,"SoundDuration":205521,"Delta":135349488},{"NoteNumber":48,"Velocity":28,"Duration":140213,"SoundDuration":140213,"Delta":135555010},{"NoteNumber":52,"Velocity":33,"Duration":140213,"SoundDuration":140213,"Delta":135555010},{"NoteNumber":60,"Velocity":40,"Duration":186950,"SoundDuration":186950,"Delta":135555010},{"NoteNumber":36,"Velocity":25,"Duration":140213,"SoundDuration":140213,"Delta":135555010},{"NoteNumber":48,"Velocity":28,"Duration":140213,"SoundDuration":140213,"Delta":135741961},{"NoteNumber":52,"Velocity":33,"Duration":140213,"SoundDuration":140213,"Delta":135741961},{"NoteNumber":43,"Velocity":26,"Duration":140213,"SoundDuration":140213,"Delta":135741961},{"NoteNumber":36,"Velocity":22,"Duration":140213,"SoundDuration":140213,"Delta":135741961},{"NoteNumber":48,"Velocity":28,"Duration":139318,"SoundDuration":139318,"Delta":135928912},{"NoteNumber":52,"Velocity":33,"Duration":139318,"SoundDuration":139318,"Delta":135928912},{"NoteNumber":43,"Velocity":26,"Duration":139318,"SoundDuration":139318,"Delta":135928912},{"NoteNumber":36,"Velocity":22,"Duration":139318,"SoundDuration":139318,"Delta":135928912},{"NoteNumber":48,"Velocity":28,"Duration":139318,"SoundDuration":139318,"Delta":136114670},{"NoteNumber":52,"Velocity":34,"Duration":139318,"SoundDuration":139318,"Delta":136114670},{"NoteNumber":43,"Velocity":27,"Duration":139318,"SoundDuration":139318,"Delta":136114670},{"NoteNumber":36,"Velocity":22,"Duration":139318,"SoundDuration":139318,"Delta":136114670},{"NoteNumber":48,"Velocity":28,"Duration":140518,"SoundDuration":140518,"Delta":136300429},{"NoteNumber":52,"Velocity":34,"Duration":140518,"SoundDuration":140518,"Delta":136300429},{"NoteNumber":43,"Velocity":27,"Duration":140518,"SoundDuration":140518,"Delta":136300429},{"NoteNumber":36,"Velocity":22,"Duration":140518,"SoundDuration":140518,"Delta":136300429},{"NoteNumber":48,"Velocity":28,"Duration":140668,"SoundDuration":140668,"Delta":136487837},{"NoteNumber":52,"Velocity":34,"Duration":140668,"SoundDuration":140668,"Delta":136487837},{"NoteNumber":43,"Velocity":28,"Duration":140668,"SoundDuration":140668,"Delta":136487837},{"NoteNumber":36,"Velocity":23,"Duration":140668,"SoundDuration":140668,"Delta":136487837},{"NoteNumber":48,"Velocity":29,"Duration":139760,"SoundDuration":139760,"Delta":136675396},{"NoteNumber":52,"Velocity":35,"Duration":139760,"SoundDuration":139760,"Delta":136675396},{"NoteNumber":43,"Velocity":28,"Duration":139760,"SoundDuration":139760,"Delta":136675396},{"NoteNumber":36,"Velocity":23,"Duration":139760,"SoundDuration":139760,"Delta":136675396},{"NoteNumber":48,"Velocity":29,"Duration":139760,"SoundDuration":139760,"Delta":136861743},{"NoteNumber":52,"Velocity":35,"Duration":139760,"SoundDuration":139760,"Delta":136861743},{"NoteNumber":43,"Velocity":29,"Duration":139760,"SoundDuration":139760,"Delta":136861743},{"NoteNumber":36,"Velocity":24,"Duration":139760,"SoundDuration":139760,"Delta":136861743},{"NoteNumber":48,"Velocity":30,"Duration":140112,"SoundDuration":140112,"Delta":137048090},{"NoteNumber":52,"Velocity":36,"Duration":140112,"SoundDuration":140112,"Delta":137048090},{"NoteNumber":36,"Velocity":25,"Duration":140112,"SoundDuration":140112,"Delta":137048090},{"NoteNumber":43,"Velocity":30,"Duration":140112,"SoundDuration":140112,"Delta":137048090},{"NoteNumber":48,"Velocity":30,"Duration":140213,"SoundDuration":140213,"Delta":137234940},{"NoteNumber":52,"Velocity":36,"Duration":140213,"SoundDuration":140213,"Delta":137234940},{"NoteNumber":36,"Velocity":22,"Duration":140213,"SoundDuration":140213,"Delta":137234940},{"NoteNumber":43,"Velocity":27,"Duration":140213,"SoundDuration":140213,"Delta":137234940},{"NoteNumber":48,"Velocity":31,"Duration":139760,"SoundDuration":139760,"Delta":137421891},{"NoteNumber":52,"Velocity":37,"Duration":139760,"SoundDuration":139760,"Delta":137421891},{"NoteNumber":36,"Velocity":23,"Duration":139760,"SoundDuration":139760,"Delta":137421891},{"NoteNumber":43,"Velocity":28,"Duration":139760,"SoundDuration":139760,"Delta":137421891},{"NoteNumber":48,"Velocity":32,"Duration":139760,"SoundDuration":139760,"Delta":137608238},{"NoteNumber":52,"Velocity":38,"Duration":139760,"SoundDuration":139760,"Delta":137608238},{"NoteNumber":36,"Velocity":24,"Duration":139760,"SoundDuration":139760,"Delta":137608238},{"NoteNumber":43,"Velocity":29,"Duration":139760,"SoundDuration":139760,"Delta":137608238},{"NoteNumber":48,"Velocity":33,"Duration":140213,"SoundDuration":140213,"Delta":137794585},{"NoteNumber":52,"Velocity":39,"Duration":140213,"SoundDuration":140213,"Delta":137794585},{"NoteNumber":36,"Velocity":25,"Duration":140213,"SoundDuration":140213,"Delta":137794585},{"NoteNumber":43,"Velocity":30,"Duration":140213,"SoundDuration":140213,"Delta":137794585},{"NoteNumber":48,"Velocity":34,"Duration":140213,"SoundDuration":140213,"Delta":137981536},{"NoteNumber":52,"Velocity":40,"Duration":140213,"SoundDuration":140213,"Delta":137981536},{"NoteNumber":36,"Velocity":25,"Duration":140213,"SoundDuration":140213,"Delta":137981536},{"NoteNumber":43,"Velocity":30,"Duration":140213,"SoundDuration":140213,"Delta":137981536},{"NoteNumber":50,"Velocity":34,"Duration":140213,"SoundDuration":140213,"Delta":138168487},{"NoteNumber":54,"Velocity":40,"Duration":140213,"SoundDuration":140213,"Delta":138168487},{"NoteNumber":36,"Velocity":25,"Duration":140213,"SoundDuration":140213,"Delta":138168487},{"NoteNumber":45,"Velocity":30,"Duration":140213,"SoundDuration":140213,"Delta":138168487},{"NoteNumber":50,"Velocity":34,"Duration":140213,"SoundDuration":140213,"Delta":138355438},{"NoteNumber":54,"Velocity":40,"Duration":140213,"SoundDuration":140213,"Delta":138355438},{"NoteNumber":36,"Velocity":25,"Duration":140213,"SoundDuration":140213,"Delta":138355438},{"NoteNumber":45,"Velocity":30,"Duration":140213,"SoundDuration":140213,"Delta":138355438},{"NoteNumber":50,"Velocity":39,"Duration":564264,"SoundDuration":564264,"Delta":138542389},{"NoteNumber":55,"Velocity":46,"Duration":564264,"SoundDuration":564264,"Delta":138542389},{"NoteNumber":35,"Velocity":25,"Duration":141065,"SoundDuration":141065,"Delta":138542389},{"NoteNumber":43,"Velocity":30,"Duration":141065,"SoundDuration":141065,"Delta":138542389},{"NoteNumber":35,"Velocity":25,"Duration":141065,"SoundDuration":141065,"Delta":138730477},{"NoteNumber":43,"Velocity":30,"Duration":141065,"SoundDuration":141065,"Delta":138730477},{"NoteNumber":35,"Velocity":25,"Duration":141066,"SoundDuration":141066,"Delta":138918565},{"NoteNumber":43,"Velocity":30,"Duration":141066,"SoundDuration":141066,"Delta":138918565},{"NoteNumber":59,"Velocity":40,"Duration":94043,"SoundDuration":94043,"Delta":139106653},{"NoteNumber":35,"Velocity":25,"Duration":141065,"SoundDuration":141065,"Delta":139106653},{"NoteNumber":43,"Velocity":30,"Duration":141065,"SoundDuration":141065,"Delta":139106653},{"NoteNumber":57,"Velocity":40,"Duration":94043,"SoundDuration":94043,"Delta":139200697},{"NoteNumber":55,"Velocity":45,"Duration":94043,"SoundDuration":94043,"Delta":139294741},{"NoteNumber":35,"Velocity":25,"Duration":141065,"SoundDuration":141065,"Delta":139294741},{"NoteNumber":43,"Velocity":30,"Duration":141065,"SoundDuration":141065,"Delta":139294741},{"NoteNumber":35,"Velocity":25,"Duration":141065,"SoundDuration":141065,"Delta":139482829},{"NoteNumber":43,"Velocity":30,"Duration":141065,"SoundDuration":141065,"Delta":139482829},{"NoteNumber":35,"Velocity":25,"Duration":141066,"SoundDuration":141066,"Delta":139670917},{"NoteNumber":43,"Velocity":30,"Duration":141066,"SoundDuration":141066,"Delta":139670917},{"NoteNumber":35,"Velocity":25,"Duration":145631,"SoundDuration":145631,"Delta":139859005},{"NoteNumber":43,"Velocity":30,"Duration":145631,"SoundDuration":145631,"Delta":139859005},{"NoteNumber":85,"Velocity":46,"Duration":48543,"SoundDuration":48543,"Delta":140004636},{"NoteNumber":86,"Velocity":57,"Duration":474683,"SoundDuration":474683,"Delta":140053180},{"NoteNumber":35,"Velocity":25,"Duration":142405,"SoundDuration":142405,"Delta":140053180},{"NoteNumber":43,"Velocity":30,"Duration":142405,"SoundDuration":142405,"Delta":140053180},{"NoteNumber":35,"Velocity":25,"Duration":142405,"SoundDuration":142405,"Delta":140243054},{"NoteNumber":43,"Velocity":30,"Duration":142405,"SoundDuration":142405,"Delta":140243054},{"NoteNumber":35,"Velocity":25,"Duration":142405,"SoundDuration":142405,"Delta":140432927},{"NoteNumber":43,"Velocity":30,"Duration":142405,"SoundDuration":142405,"Delta":140432927},{"NoteNumber":84,"Velocity":48,"Duration":94936,"SoundDuration":94936,"Delta":140527864},{"NoteNumber":83,"Velocity":47,"Duration":94936,"SoundDuration":94936,"Delta":140622801},{"NoteNumber":35,"Velocity":25,"Duration":142405,"SoundDuration":142405,"Delta":140622801},{"NoteNumber":43,"Velocity":30,"Duration":142405,"SoundDuration":142405,"Delta":140622801},{"NoteNumber":81,"Velocity":45,"Duration":94936,"SoundDuration":94936,"Delta":140717737},{"NoteNumber":79,"Velocity":44,"Duration":186950,"SoundDuration":186950,"Delta":140812674},{"NoteNumber":35,"Velocity":25,"Duration":140213,"SoundDuration":140213,"Delta":140812674},{"NoteNumber":43,"Velocity":30,"Duration":140213,"SoundDuration":140213,"Delta":140812674},{"NoteNumber":35,"Velocity":25,"Duration":140213,"SoundDuration":140213,"Delta":140999625},{"NoteNumber":43,"Velocity":30,"Duration":140213,"SoundDuration":140213,"Delta":140999625},{"NoteNumber":35,"Velocity":25,"Duration":140213,"SoundDuration":140213,"Delta":141186576},{"NoteNumber":43,"Velocity":30,"Duration":140213,"SoundDuration":140213,"Delta":141186576},{"NoteNumber":35,"Velocity":25,"Duration":142984,"SoundDuration":142984,"Delta":141373527},{"NoteNumber":43,"Velocity":30,"Duration":142984,"SoundDuration":142984,"Delta":141373527},{"NoteNumber":46,"Velocity":29,"Duration":140213,"SoundDuration":140213,"Delta":141564173},{"NoteNumber":50,"Velocity":35,"Duration":140213,"SoundDuration":140213,"Delta":141564173},{"NoteNumber":41,"Velocity":30,"Duration":140213,"SoundDuration":140213,"Delta":141564173},{"NoteNumber":34,"Velocity":26,"Duration":140213,"SoundDuration":140213,"Delta":141564173},{"NoteNumber":46,"Velocity":29,"Duration":140213,"SoundDuration":140213,"Delta":141751124},{"NoteNumber":50,"Velocity":35,"Duration":140213,"SoundDuration":140213,"Delta":141751124},{"NoteNumber":41,"Velocity":30,"Duration":140213,"SoundDuration":140213,"Delta":141751124},{"NoteNumber":34,"Velocity":25,"Duration":140213,"SoundDuration":140213,"Delta":141751124},{"NoteNumber":46,"Velocity":29,"Duration":138871,"SoundDuration":138871,"Delta":141938075},{"NoteNumber":50,"Velocity":35,"Duration":138871,"SoundDuration":138871,"Delta":141938075},{"NoteNumber":41,"Velocity":30,"Duration":138871,"SoundDuration":138871,"Delta":141938075},{"NoteNumber":34,"Velocity":25,"Duration":138871,"SoundDuration":138871,"Delta":141938075},{"NoteNumber":46,"Velocity":30,"Duration":138871,"SoundDuration":138871,"Delta":142123237},{"NoteNumber":50,"Velocity":36,"Duration":138871,"SoundDuration":138871,"Delta":142123237},{"NoteNumber":41,"Velocity":31,"Duration":138871,"SoundDuration":138871,"Delta":142123237},{"NoteNumber":34,"Velocity":26,"Duration":138871,"SoundDuration":138871,"Delta":142123237},{"NoteNumber":46,"Velocity":31,"Duration":140668,"SoundDuration":140668,"Delta":142308400},{"NoteNumber":50,"Velocity":37,"Duration":140668,"SoundDuration":140668,"Delta":142308400},{"NoteNumber":41,"Velocity":31,"Duration":140668,"SoundDuration":140668,"Delta":142308400},{"NoteNumber":34,"Velocity":26,"Duration":140668,"SoundDuration":140668,"Delta":142308400},{"NoteNumber":46,"Velocity":31,"Duration":140668,"SoundDuration":140668,"Delta":142495958},{"NoteNumber":50,"Velocity":37,"Duration":140668,"SoundDuration":140668,"Delta":142495958},{"NoteNumber":41,"Velocity":31,"Duration":140668,"SoundDuration":140668,"Delta":142495958},{"NoteNumber":34,"Velocity":26,"Duration":140668,"SoundDuration":140668,"Delta":142495958},{"NoteNumber":46,"Velocity":32,"Duration":140668,"SoundDuration":140668,"Delta":142683517},{"NoteNumber":50,"Velocity":38,"Duration":140668,"SoundDuration":140668,"Delta":142683517},{"NoteNumber":41,"Velocity":31,"Duration":140668,"SoundDuration":140668,"Delta":142683517},{"NoteNumber":34,"Velocity":26,"Duration":140668,"SoundDuration":140668,"Delta":142683517},{"NoteNumber":46,"Velocity":33,"Duration":140668,"SoundDuration":140668,"Delta":142871075},{"NoteNumber":50,"Velocity":39,"Duration":140668,"SoundDuration":140668,"Delta":142871075},{"NoteNumber":41,"Velocity":31,"Duration":140668,"SoundDuration":140668,"Delta":142871075},{"NoteNumber":34,"Velocity":26,"Duration":140668,"SoundDuration":140668,"Delta":142871075},{"NoteNumber":46,"Velocity":33,"Duration":140213,"SoundDuration":140213,"Delta":143058634},{"NoteNumber":50,"Velocity":39,"Duration":140213,"SoundDuration":140213,"Delta":143058634},{"NoteNumber":34,"Velocity":26,"Duration":140213,"SoundDuration":140213,"Delta":143058634},{"NoteNumber":41,"Velocity":31,"Duration":140213,"SoundDuration":140213,"Delta":143058634},{"NoteNumber":46,"Velocity":34,"Duration":140213,"SoundDuration":140213,"Delta":143245585},{"NoteNumber":50,"Velocity":40,"Duration":140213,"SoundDuration":140213,"Delta":143245585},{"NoteNumber":34,"Velocity":26,"Duration":140213,"SoundDuration":140213,"Delta":143245585},{"NoteNumber":41,"Velocity":31,"Duration":140213,"SoundDuration":140213,"Delta":143245585},{"NoteNumber":46,"Velocity":34,"Duration":140668,"SoundDuration":140668,"Delta":143432536},{"NoteNumber":50,"Velocity":40,"Duration":140668,"SoundDuration":140668,"Delta":143432536},{"NoteNumber":34,"Velocity":26,"Duration":140668,"SoundDuration":140668,"Delta":143432536},{"NoteNumber":41,"Velocity":31,"Duration":140668,"SoundDuration":140668,"Delta":143432536},{"NoteNumber":46,"Velocity":34,"Duration":140668,"SoundDuration":140668,"Delta":143620094},{"NoteNumber":50,"Velocity":40,"Duration":140668,"SoundDuration":140668,"Delta":143620094},{"NoteNumber":34,"Velocity":26,"Duration":140668,"SoundDuration":140668,"Delta":143620094},{"NoteNumber":41,"Velocity":31,"Duration":140668,"SoundDuration":140668,"Delta":143620094},{"NoteNumber":46,"Velocity":34,"Duration":138871,"SoundDuration":138871,"Delta":143807653},{"NoteNumber":50,"Velocity":40,"Duration":138871,"SoundDuration":138871,"Delta":143807653},{"NoteNumber":34,"Velocity":26,"Duration":138871,"SoundDuration":138871,"Delta":143807653},{"NoteNumber":41,"Velocity":31,"Duration":138871,"SoundDuration":138871,"Delta":143807653},{"NoteNumber":46,"Velocity":34,"Duration":138871,"SoundDuration":138871,"Delta":143992815},{"NoteNumber":50,"Velocity":40,"Duration":138871,"SoundDuration":138871,"Delta":143992815},{"NoteNumber":34,"Velocity":25,"Duration":138871,"SoundDuration":138871,"Delta":143992815},{"NoteNumber":41,"Velocity":30,"Duration":138871,"SoundDuration":138871,"Delta":143992815},{"NoteNumber":48,"Velocity":34,"Duration":139318,"SoundDuration":139318,"Delta":144177978},{"NoteNumber":52,"Velocity":40,"Duration":139318,"SoundDuration":139318,"Delta":144177978},{"NoteNumber":34,"Velocity":25,"Duration":139318,"SoundDuration":139318,"Delta":144177978},{"NoteNumber":43,"Velocity":30,"Duration":139318,"SoundDuration":139318,"Delta":144177978},{"NoteNumber":48,"Velocity":34,"Duration":139318,"SoundDuration":139318,"Delta":144363736},{"NoteNumber":52,"Velocity":40,"Duration":139318,"SoundDuration":139318,"Delta":144363736},{"NoteNumber":34,"Velocity":25,"Duration":139318,"SoundDuration":139318,"Delta":144363736},{"NoteNumber":43,"Velocity":30,"Duration":139318,"SoundDuration":139318,"Delta":144363736},{"NoteNumber":48,"Velocity":39,"Duration":558991,"SoundDuration":558991,"Delta":144549495},{"NoteNumber":53,"Velocity":46,"Duration":558991,"SoundDuration":558991,"Delta":144549495},{"NoteNumber":33,"Velocity":25,"Duration":139711,"SoundDuration":139711,"Delta":144549495},{"NoteNumber":41,"Velocity":30,"Duration":139711,"SoundDuration":139711,"Delta":144549495},{"NoteNumber":33,"Velocity":25,"Duration":139760,"SoundDuration":139760,"Delta":144735792},{"NoteNumber":41,"Velocity":30,"Duration":139760,"SoundDuration":139760,"Delta":144735792},{"NoteNumber":33,"Velocity":25,"Duration":139760,"SoundDuration":139760,"Delta":144922139},{"NoteNumber":41,"Velocity":30,"Duration":139760,"SoundDuration":139760,"Delta":144922139},{"NoteNumber":57,"Velocity":40,"Duration":93173,"SoundDuration":93173,"Delta":145108486},{"NoteNumber":33,"Velocity":25,"Duration":139760,"SoundDuration":139760,"Delta":145108486},{"NoteNumber":41,"Velocity":30,"Duration":139760,"SoundDuration":139760,"Delta":145108486},{"NoteNumber":55,"Velocity":40,"Duration":93173,"SoundDuration":93173,"Delta":145201660},{"NoteNumber":53,"Velocity":45,"Duration":93173,"SoundDuration":93173,"Delta":145294833},{"NoteNumber":33,"Velocity":25,"Duration":139760,"SoundDuration":139760,"Delta":145294833},{"NoteNumber":41,"Velocity":30,"Duration":139760,"SoundDuration":139760,"Delta":145294833},{"NoteNumber":33,"Velocity":25,"Duration":139760,"SoundDuration":139760,"Delta":145481180},{"NoteNumber":41,"Velocity":30,"Duration":139760,"SoundDuration":139760,"Delta":145481180},{"NoteNumber":33,"Velocity":25,"Duration":144694,"SoundDuration":144694,"Delta":145667527},{"NoteNumber":41,"Velocity":30,"Duration":144694,"SoundDuration":144694,"Delta":145667527},{"NoteNumber":33,"Velocity":25,"Duration":146103,"SoundDuration":146103,"Delta":145860453},{"NoteNumber":41,"Velocity":30,"Duration":146103,"SoundDuration":146103,"Delta":145860453},{"NoteNumber":83,"Velocity":46,"Duration":48701,"SoundDuration":48701,"Delta":146006557},{"NoteNumber":84,"Velocity":57,"Duration":473186,"SoundDuration":473186,"Delta":146055258},{"NoteNumber":32,"Velocity":25,"Duration":141955,"SoundDuration":141955,"Delta":146055258},{"NoteNumber":41,"Velocity":30,"Duration":141955,"SoundDuration":141955,"Delta":146055258},{"NoteNumber":32,"Velocity":25,"Duration":141955,"SoundDuration":141955,"Delta":146244533},{"NoteNumber":41,"Velocity":30,"Duration":141955,"SoundDuration":141955,"Delta":146244533},{"NoteNumber":32,"Velocity":25,"Duration":141955,"SoundDuration":141955,"Delta":146433807},{"NoteNumber":41,"Velocity":30,"Duration":141955,"SoundDuration":141955,"Delta":146433807},{"NoteNumber":82,"Velocity":50,"Duration":94637,"SoundDuration":94637,"Delta":146528445},{"NoteNumber":80,"Velocity":49,"Duration":94637,"SoundDuration":94637,"Delta":146623082},{"NoteNumber":32,"Velocity":25,"Duration":141955,"SoundDuration":141955,"Delta":146623082},{"NoteNumber":41,"Velocity":30,"Duration":141955,"SoundDuration":141955,"Delta":146623082},{"NoteNumber":79,"Velocity":47,"Duration":94637,"SoundDuration":94637,"Delta":146717719},{"NoteNumber":77,"Velocity":46,"Duration":189274,"SoundDuration":189274,"Delta":146812356},{"NoteNumber":32,"Velocity":25,"Duration":141955,"SoundDuration":141955,"Delta":146812356},{"NoteNumber":41,"Velocity":30,"Duration":141955,"SoundDuration":141955,"Delta":146812356},{"NoteNumber":32,"Velocity":25,"Duration":141955,"SoundDuration":141955,"Delta":147001631},{"NoteNumber":41,"Velocity":30,"Duration":141955,"SoundDuration":141955,"Delta":147001631},{"NoteNumber":32,"Velocity":25,"Duration":145631,"SoundDuration":145631,"Delta":147191343},{"NoteNumber":41,"Velocity":30,"Duration":145631,"SoundDuration":145631,"Delta":147191343},{"NoteNumber":32,"Velocity":25,"Duration":145631,"SoundDuration":145631,"Delta":147385518},{"NoteNumber":41,"Velocity":30,"Duration":145631,"SoundDuration":145631,"Delta":147385518},{"NoteNumber":88,"Velocity":67,"Duration":48543,"SoundDuration":48543,"Delta":147531150},{"NoteNumber":89,"Velocity":73,"Duration":1120535,"SoundDuration":1120535,"Delta":147579693},{"NoteNumber":31,"Velocity":30,"Duration":140213,"SoundDuration":140213,"Delta":147579693},{"NoteNumber":41,"Velocity":36,"Duration":140213,"SoundDuration":140213,"Delta":147579693},{"NoteNumber":31,"Velocity":32,"Duration":140213,"SoundDuration":140213,"Delta":147766644},{"NoteNumber":41,"Velocity":38,"Duration":140213,"SoundDuration":140213,"Delta":147766644},{"NoteNumber":31,"Velocity":33,"Duration":139318,"SoundDuration":139318,"Delta":147953595},{"NoteNumber":41,"Velocity":39,"Duration":139318,"SoundDuration":139318,"Delta":147953595},{"NoteNumber":31,"Velocity":34,"Duration":139318,"SoundDuration":139318,"Delta":148139354},{"NoteNumber":41,"Velocity":41,"Duration":139318,"SoundDuration":139318,"Delta":148139354},{"NoteNumber":31,"Velocity":36,"Duration":140668,"SoundDuration":140668,"Delta":148325112},{"NoteNumber":41,"Velocity":43,"Duration":140668,"SoundDuration":140668,"Delta":148325112},{"NoteNumber":31,"Velocity":38,"Duration":140668,"SoundDuration":140668,"Delta":148512671},{"NoteNumber":41,"Velocity":45,"Duration":140668,"SoundDuration":140668,"Delta":148512671},{"NoteNumber":89,"Velocity":74,"Duration":93779,"SoundDuration":93779,"Delta":148700229},{"NoteNumber":32,"Velocity":39,"Duration":140668,"SoundDuration":140668,"Delta":148700229},{"NoteNumber":41,"Velocity":46,"Duration":140668,"SoundDuration":140668,"Delta":148700229},{"NoteNumber":87,"Velocity":73,"Duration":93779,"SoundDuration":93779,"Delta":148794009},{"NoteNumber":86,"Velocity":71,"Duration":93779,"SoundDuration":93779,"Delta":148887788},{"NoteNumber":32,"Velocity":40,"Duration":140668,"SoundDuration":140668,"Delta":148887788},{"NoteNumber":41,"Velocity":48,"Duration":140668,"SoundDuration":140668,"Delta":148887788},{"NoteNumber":84,"Velocity":70,"Duration":93779,"SoundDuration":93779,"Delta":148981567},{"NoteNumber":83,"Velocity":72,"Duration":93475,"SoundDuration":93475,"Delta":149075346},{"NoteNumber":31,"Velocity":44,"Duration":140213,"SoundDuration":140213,"Delta":149075346},{"NoteNumber":41,"Velocity":52,"Duration":140213,"SoundDuration":140213,"Delta":149075346},{"NoteNumber":84,"Velocity":71,"Duration":93475,"SoundDuration":93475,"Delta":149168822},{"NoteNumber":86,"Velocity":72,"Duration":93475,"SoundDuration":93475,"Delta":149262297},{"NoteNumber":31,"Velocity":44,"Duration":140213,"SoundDuration":140213,"Delta":149262297},{"NoteNumber":41,"Velocity":52,"Duration":140213,"SoundDuration":140213,"Delta":149262297},{"NoteNumber":87,"Velocity":73,"Duration":93475,"SoundDuration":93475,"Delta":149355773},{"NoteNumber":89,"Velocity":74,"Duration":94392,"SoundDuration":94392,"Delta":149449248},{"NoteNumber":32,"Velocity":45,"Duration":141589,"SoundDuration":141589,"Delta":149449248},{"NoteNumber":41,"Velocity":55,"Duration":141589,"SoundDuration":141589,"Delta":149449248},{"NoteNumber":87,"Velocity":72,"Duration":94392,"SoundDuration":94392,"Delta":149543641},{"NoteNumber":86,"Velocity":71,"Duration":94392,"SoundDuration":94392,"Delta":149638034},{"NoteNumber":32,"Velocity":46,"Duration":141589,"SoundDuration":141589,"Delta":149638034},{"NoteNumber":41,"Velocity":55,"Duration":141589,"SoundDuration":141589,"Delta":149638034},{"NoteNumber":84,"Velocity":69,"Duration":94392,"SoundDuration":94392,"Delta":149732427},{"NoteNumber":83,"Velocity":72,"Duration":93475,"SoundDuration":93475,"Delta":149826820},{"NoteNumber":31,"Velocity":48,"Duration":140213,"SoundDuration":140213,"Delta":149826820},{"NoteNumber":41,"Velocity":58,"Duration":140213,"SoundDuration":140213,"Delta":149826820},{"NoteNumber":84,"Velocity":75,"Duration":93475,"SoundDuration":93475,"Delta":149920296},{"NoteNumber":86,"Velocity":77,"Duration":93475,"SoundDuration":93475,"Delta":150013771},{"NoteNumber":31,"Velocity":51,"Duration":140213,"SoundDuration":140213,"Delta":150013771},{"NoteNumber":41,"Velocity":60,"Duration":140213,"SoundDuration":140213,"Delta":150013771},{"NoteNumber":87,"Velocity":80,"Duration":93475,"SoundDuration":93475,"Delta":150107247},{"NoteNumber":89,"Velocity":80,"Duration":93475,"SoundDuration":93475,"Delta":150200722},{"NoteNumber":32,"Velocity":54,"Duration":140213,"SoundDuration":140213,"Delta":150200722},{"NoteNumber":41,"Velocity":64,"Duration":140213,"SoundDuration":140213,"Delta":150200722},{"NoteNumber":87,"Velocity":80,"Duration":93475,"SoundDuration":93475,"Delta":150294198},{"NoteNumber":86,"Velocity":79,"Duration":93475,"SoundDuration":93475,"Delta":150387673},{"NoteNumber":32,"Velocity":56,"Duration":140213,"SoundDuration":140213,"Delta":150387673},{"NoteNumber":41,"Velocity":66,"Duration":140213,"SoundDuration":140213,"Delta":150387673},{"NoteNumber":84,"Velocity":81,"Duration":93475,"SoundDuration":93475,"Delta":150481149},{"NoteNumber":83,"Velocity":85,"Duration":94187,"SoundDuration":94187,"Delta":150574624},{"NoteNumber":31,"Velocity":70,"Duration":392787,"SoundDuration":392787,"Delta":150574624},{"NoteNumber":41,"Velocity":85,"Duration":392787,"SoundDuration":392787,"Delta":150574624},{"NoteNumber":84,"Velocity":89,"Duration":95532,"SoundDuration":95532,"Delta":150668811},{"NoteNumber":86,"Velocity":94,"Duration":98029,"SoundDuration":98029,"Delta":150764344},{"NoteNumber":87,"Velocity":98,"Duration":105038,"SoundDuration":105038,"Delta":150862373},{"NoteNumber":89,"Velocity":100,"Duration":93475,"SoundDuration":93475,"Delta":150967411},{"NoteNumber":43,"Velocity":81,"Duration":937821,"SoundDuration":937821,"Delta":150967411},{"NoteNumber":55,"Velocity":96,"Duration":937821,"SoundDuration":937821,"Delta":150967411},{"NoteNumber":87,"Velocity":98,"Duration":93475,"SoundDuration":93475,"Delta":151060887},{"NoteNumber":86,"Velocity":96,"Duration":93475,"SoundDuration":93475,"Delta":151154362},{"NoteNumber":84,"Velocity":94,"Duration":93475,"SoundDuration":93475,"Delta":151247838},{"NoteNumber":83,"Velocity":93,"Duration":93475,"SoundDuration":93475,"Delta":151341313},{"NoteNumber":80,"Velocity":91,"Duration":93475,"SoundDuration":93475,"Delta":151434789},{"NoteNumber":79,"Velocity":89,"Duration":93475,"SoundDuration":93475,"Delta":151528264},{"NoteNumber":77,"Velocity":87,"Duration":93475,"SoundDuration":93475,"Delta":151621740},{"NoteNumber":75,"Velocity":85,"Duration":95008,"SoundDuration":95008,"Delta":151715215},{"NoteNumber":74,"Velocity":83,"Duration":95008,"SoundDuration":95008,"Delta":151810224},{"NoteNumber":72,"Velocity":81,"Duration":95008,"SoundDuration":95008,"Delta":151905233},{"NoteNumber":57,"Velocity":67,"Duration":95008,"SoundDuration":95008,"Delta":151905233},{"NoteNumber":71,"Velocity":79,"Duration":95008,"SoundDuration":95008,"Delta":152000242},{"NoteNumber":59,"Velocity":70,"Duration":95008,"SoundDuration":95008,"Delta":152000242},{"NoteNumber":72,"Velocity":93,"Duration":150000,"SoundDuration":150000,"Delta":152095250},{"NoteNumber":60,"Velocity":72,"Duration":150000,"SoundDuration":150000,"Delta":152095250},{"NoteNumber":67,"Velocity":83,"Duration":163043,"SoundDuration":163043,"Delta":152495250},{"NoteNumber":43,"Velocity":56,"Duration":163043,"SoundDuration":163043,"Delta":152495250},{"NoteNumber":55,"Velocity":66,"Duration":163043,"SoundDuration":163043,"Delta":152495250},{"NoteNumber":63,"Velocity":72,"Duration":183673,"SoundDuration":183673,"Delta":152931537},{"NoteNumber":39,"Velocity":52,"Duration":183673,"SoundDuration":183673,"Delta":152931537},{"NoteNumber":51,"Velocity":62,"Duration":183673,"SoundDuration":183673,"Delta":152931537},{"NoteNumber":60,"Velocity":64,"Duration":221674,"SoundDuration":221674,"Delta":153421333},{"NoteNumber":36,"Velocity":48,"Duration":221674,"SoundDuration":221674,"Delta":153421333},{"NoteNumber":48,"Velocity":57,"Duration":221674,"SoundDuration":221674,"Delta":153421333},{"NoteNumber":55,"Velocity":60,"Duration":1804511,"SoundDuration":1804511,"Delta":154012466},{"NoteNumber":31,"Velocity":46,"Duration":1804511,"SoundDuration":1804511,"Delta":154012466},{"NoteNumber":43,"Velocity":54,"Duration":1804511,"SoundDuration":1804511,"Delta":154012466},{"NoteNumber":64,"Velocity":37,"Duration":92696,"SoundDuration":92696,"Delta":155816978},{"NoteNumber":36,"Velocity":30,"Duration":1490837,"SoundDuration":1490837,"Delta":155816978},{"NoteNumber":48,"Velocity":30,"Duration":186950,"SoundDuration":186950,"Delta":155816978},{"NoteNumber":60,"Velocity":33,"Duration":93475,"SoundDuration":93475,"Delta":155910454},{"NoteNumber":64,"Velocity":37,"Duration":92696,"SoundDuration":92696,"Delta":156003929},{"NoteNumber":48,"Velocity":31,"Duration":92696,"SoundDuration":92696,"Delta":156003929},{"NoteNumber":60,"Velocity":33,"Duration":93475,"SoundDuration":93475,"Delta":156097405},{"NoteNumber":55,"Velocity":26,"Duration":93475,"SoundDuration":93475,"Delta":156097405},{"NoteNumber":64,"Velocity":37,"Duration":92105,"SoundDuration":92105,"Delta":156190880},{"NoteNumber":48,"Velocity":31,"Duration":92105,"SoundDuration":92105,"Delta":156190880},{"NoteNumber":60,"Velocity":33,"Duration":92879,"SoundDuration":92879,"Delta":156283760},{"NoteNumber":55,"Velocity":27,"Duration":92879,"SoundDuration":92879,"Delta":156283760},{"NoteNumber":64,"Velocity":36,"Duration":92105,"SoundDuration":92105,"Delta":156376639},{"NoteNumber":48,"Velocity":31,"Duration":92105,"SoundDuration":92105,"Delta":156376639},{"NoteNumber":60,"Velocity":33,"Duration":92879,"SoundDuration":92879,"Delta":156469518},{"NoteNumber":55,"Velocity":27,"Duration":92879,"SoundDuration":92879,"Delta":156469518},{"NoteNumber":64,"Velocity":36,"Duration":92105,"SoundDuration":92105,"Delta":156562397},{"NoteNumber":48,"Velocity":31,"Duration":92105,"SoundDuration":92105,"Delta":156562397},{"NoteNumber":60,"Velocity":33,"Duration":92879,"SoundDuration":92879,"Delta":156655277},{"NoteNumber":55,"Velocity":26,"Duration":92879,"SoundDuration":92879,"Delta":156655277},{"NoteNumber":64,"Velocity":37,"Duration":92105,"SoundDuration":92105,"Delta":156748156},{"NoteNumber":48,"Velocity":31,"Duration":92105,"SoundDuration":92105,"Delta":156748156},{"NoteNumber":60,"Velocity":33,"Duration":92879,"SoundDuration":92879,"Delta":156841035},{"NoteNumber":55,"Velocity":27,"Duration":92879,"SoundDuration":92879,"Delta":156841035},{"NoteNumber":64,"Velocity":36,"Duration":92696,"SoundDuration":92696,"Delta":156933914},{"NoteNumber":48,"Velocity":31,"Duration":92696,"SoundDuration":92696,"Delta":156933914},{"NoteNumber":60,"Velocity":33,"Duration":93475,"SoundDuration":93475,"Delta":157027390},{"NoteNumber":55,"Velocity":27,"Duration":93475,"SoundDuration":93475,"Delta":157027390},{"NoteNumber":64,"Velocity":36,"Duration":92696,"SoundDuration":92696,"Delta":157120865},{"NoteNumber":48,"Velocity":31,"Duration":92696,"SoundDuration":92696,"Delta":157120865},{"NoteNumber":60,"Velocity":33,"Duration":93475,"SoundDuration":93475,"Delta":157214341},{"NoteNumber":55,"Velocity":25,"Duration":93475,"SoundDuration":93475,"Delta":157214341},{"NoteNumber":64,"Velocity":37,"Duration":92696,"SoundDuration":92696,"Delta":157307816},{"NoteNumber":48,"Velocity":31,"Duration":92696,"SoundDuration":92696,"Delta":157307816},{"NoteNumber":60,"Velocity":33,"Duration":93475,"SoundDuration":93475,"Delta":157401292},{"NoteNumber":55,"Velocity":26,"Duration":93475,"SoundDuration":93475,"Delta":157401292},{"NoteNumber":64,"Velocity":37,"Duration":92696,"SoundDuration":92696,"Delta":157494767},{"NoteNumber":48,"Velocity":31,"Duration":92696,"SoundDuration":92696,"Delta":157494767},{"NoteNumber":60,"Velocity":33,"Duration":93475,"SoundDuration":93475,"Delta":157588243},{"NoteNumber":55,"Velocity":26,"Duration":93475,"SoundDuration":93475,"Delta":157588243},{"NoteNumber":64,"Velocity":37,"Duration":91809,"SoundDuration":91809,"Delta":157681718},{"NoteNumber":48,"Velocity":31,"Duration":91809,"SoundDuration":91809,"Delta":157681718},{"NoteNumber":60,"Velocity":33,"Duration":92581,"SoundDuration":92581,"Delta":157774300},{"NoteNumber":55,"Velocity":27,"Duration":92581,"SoundDuration":92581,"Delta":157774300},{"NoteNumber":64,"Velocity":36,"Duration":91809,"SoundDuration":91809,"Delta":157866881},{"NoteNumber":48,"Velocity":31,"Duration":91809,"SoundDuration":91809,"Delta":157866881},{"NoteNumber":60,"Velocity":33,"Duration":92581,"SoundDuration":92581,"Delta":157959462},{"NoteNumber":55,"Velocity":27,"Duration":92581,"SoundDuration":92581,"Delta":157959462},{"NoteNumber":64,"Velocity":36,"Duration":91809,"SoundDuration":91809,"Delta":158052043},{"NoteNumber":48,"Velocity":31,"Duration":91809,"SoundDuration":91809,"Delta":158052043},{"NoteNumber":60,"Velocity":33,"Duration":92581,"SoundDuration":92581,"Delta":158144625},{"NoteNumber":55,"Velocity":26,"Duration":92581,"SoundDuration":92581,"Delta":158144625},{"NoteNumber":64,"Velocity":37,"Duration":91809,"SoundDuration":91809,"Delta":158237206},{"NoteNumber":48,"Velocity":31,"Duration":91809,"SoundDuration":91809,"Delta":158237206},{"NoteNumber":60,"Velocity":33,"Duration":92581,"SoundDuration":92581,"Delta":158329787},{"NoteNumber":55,"Velocity":27,"Duration":92581,"SoundDuration":92581,"Delta":158329787},{"NoteNumber":66,"Velocity":36,"Duration":92547,"SoundDuration":92547,"Delta":158422368},{"NoteNumber":48,"Velocity":31,"Duration":92547,"SoundDuration":92547,"Delta":158422368},{"NoteNumber":62,"Velocity":33,"Duration":93475,"SoundDuration":93475,"Delta":158515695},{"NoteNumber":57,"Velocity":27,"Duration":93475,"SoundDuration":93475,"Delta":158515695},{"NoteNumber":66,"Velocity":36,"Duration":92696,"SoundDuration":92696,"Delta":158609170},{"NoteNumber":48,"Velocity":31,"Duration":92696,"SoundDuration":92696,"Delta":158609170},{"NoteNumber":62,"Velocity":33,"Duration":93475,"SoundDuration":93475,"Delta":158702646},{"NoteNumber":57,"Velocity":25,"Duration":93475,"SoundDuration":93475,"Delta":158702646},{"NoteNumber":67,"Velocity":46,"Duration":560853,"SoundDuration":560853,"Delta":158796121},{"NoteNumber":47,"Velocity":26,"Duration":140213,"SoundDuration":140213,"Delta":158796121},{"NoteNumber":50,"Velocity":31,"Duration":140213,"SoundDuration":140213,"Delta":158796121},{"NoteNumber":55,"Velocity":25,"Duration":93475,"SoundDuration":93475,"Delta":158889597},{"NoteNumber":47,"Velocity":26,"Duration":140213,"SoundDuration":140213,"Delta":158983072},{"NoteNumber":50,"Velocity":31,"Duration":140213,"SoundDuration":140213,"Delta":158983072},{"NoteNumber":55,"Velocity":25,"Duration":93475,"SoundDuration":93475,"Delta":159076548},{"NoteNumber":47,"Velocity":26,"Duration":140213,"SoundDuration":140213,"Delta":159170023},{"NoteNumber":50,"Velocity":31,"Duration":140213,"SoundDuration":140213,"Delta":159170023},{"NoteNumber":55,"Velocity":25,"Duration":93475,"SoundDuration":93475,"Delta":159263499},{"NoteNumber":71,"Velocity":40,"Duration":93475,"SoundDuration":93475,"Delta":159356974},{"NoteNumber":47,"Velocity":26,"Duration":140213,"SoundDuration":140213,"Delta":159356974},{"NoteNumber":50,"Velocity":31,"Duration":140213,"SoundDuration":140213,"Delta":159356974},{"NoteNumber":69,"Velocity":40,"Duration":93475,"SoundDuration":93475,"Delta":159450450},{"NoteNumber":55,"Velocity":25,"Duration":93475,"SoundDuration":93475,"Delta":159450450},{"NoteNumber":67,"Velocity":45,"Duration":93475,"SoundDuration":93475,"Delta":159543925},{"NoteNumber":47,"Velocity":26,"Duration":140213,"SoundDuration":140213,"Delta":159543925},{"NoteNumber":50,"Velocity":31,"Duration":140213,"SoundDuration":140213,"Delta":159543925},{"NoteNumber":55,"Velocity":25,"Duration":93475,"SoundDuration":93475,"Delta":159637401},{"NoteNumber":47,"Velocity":26,"Duration":140213,"SoundDuration":140213,"Delta":159730876},{"NoteNumber":50,"Velocity":31,"Duration":140213,"SoundDuration":140213,"Delta":159730876},{"NoteNumber":55,"Velocity":25,"Duration":93475,"SoundDuration":93475,"Delta":159824352},{"NoteNumber":47,"Velocity":26,"Duration":140213,"SoundDuration":140213,"Delta":159917827},{"NoteNumber":50,"Velocity":31,"Duration":140213,"SoundDuration":140213,"Delta":159917827},{"NoteNumber":55,"Velocity":25,"Duration":93475,"SoundDuration":93475,"Delta":160011303},{"NoteNumber":47,"Velocity":26,"Duration":145631,"SoundDuration":145631,"Delta":160104778},{"NoteNumber":50,"Velocity":31,"Duration":145631,"SoundDuration":145631,"Delta":160104778},{"NoteNumber":55,"Velocity":25,"Duration":97087,"SoundDuration":97087,"Delta":160201866},{"NoteNumber":85,"Velocity":46,"Duration":48543,"SoundDuration":48543,"Delta":160250410},{"NoteNumber":86,"Velocity":57,"Duration":473186,"SoundDuration":473186,"Delta":160298953},{"NoteNumber":47,"Velocity":26,"Duration":141955,"SoundDuration":141955,"Delta":160298953},{"NoteNumber":50,"Velocity":31,"Duration":141955,"SoundDuration":141955,"Delta":160298953},{"NoteNumber":55,"Velocity":25,"Duration":94637,"SoundDuration":94637,"Delta":160393591},{"NoteNumber":47,"Velocity":26,"Duration":141955,"SoundDuration":141955,"Delta":160488228},{"NoteNumber":50,"Velocity":31,"Duration":141955,"SoundDuration":141955,"Delta":160488228},{"NoteNumber":55,"Velocity":25,"Duration":94637,"SoundDuration":94637,"Delta":160582865},{"NoteNumber":47,"Velocity":26,"Duration":141955,"SoundDuration":141955,"Delta":160677502},{"NoteNumber":50,"Velocity":31,"Duration":141955,"SoundDuration":141955,"Delta":160677502},{"NoteNumber":84,"Velocity":48,"Duration":94637,"SoundDuration":94637,"Delta":160772140},{"NoteNumber":55,"Velocity":25,"Duration":94637,"SoundDuration":94637,"Delta":160772140},{"NoteNumber":83,"Velocity":47,"Duration":94637,"SoundDuration":94637,"Delta":160866777},{"NoteNumber":47,"Velocity":26,"Duration":141955,"SoundDuration":141955,"Delta":160866777},{"NoteNumber":50,"Velocity":31,"Duration":141955,"SoundDuration":141955,"Delta":160866777},{"NoteNumber":81,"Velocity":45,"Duration":94637,"SoundDuration":94637,"Delta":160961414},{"NoteNumber":55,"Velocity":25,"Duration":94637,"SoundDuration":94637,"Delta":160961414},{"NoteNumber":79,"Velocity":44,"Duration":189274,"SoundDuration":189274,"Delta":161056051},{"NoteNumber":47,"Velocity":26,"Duration":141955,"SoundDuration":141955,"Delta":161056051},{"NoteNumber":50,"Velocity":31,"Duration":141955,"SoundDuration":141955,"Delta":161056051},{"NoteNumber":55,"Velocity":25,"Duration":94637,"SoundDuration":94637,"Delta":161150689},{"NoteNumber":47,"Velocity":26,"Duration":141955,"SoundDuration":141955,"Delta":161245326},{"NoteNumber":50,"Velocity":31,"Duration":141955,"SoundDuration":141955,"Delta":161245326},{"NoteNumber":55,"Velocity":25,"Duration":94637,"SoundDuration":94637,"Delta":161339963},{"NoteNumber":47,"Velocity":26,"Duration":141955,"SoundDuration":141955,"Delta":161434600},{"NoteNumber":50,"Velocity":31,"Duration":141955,"SoundDuration":141955,"Delta":161434600},{"NoteNumber":55,"Velocity":25,"Duration":94637,"SoundDuration":94637,"Delta":161529238},{"NoteNumber":47,"Velocity":26,"Duration":144406,"SoundDuration":144406,"Delta":161623875},{"NoteNumber":50,"Velocity":31,"Duration":144406,"SoundDuration":144406,"Delta":161623875},{"NoteNumber":55,"Velocity":25,"Duration":96271,"SoundDuration":96271,"Delta":161720146},{"NoteNumber":65,"Velocity":40,"Duration":92696,"SoundDuration":92696,"Delta":161816417},{"NoteNumber":38,"Velocity":33,"Duration":1490892,"SoundDuration":1490892,"Delta":161816417},{"NoteNumber":50,"Velocity":33,"Duration":186950,"SoundDuration":186950,"Delta":161816417},{"NoteNumber":62,"Velocity":36,"Duration":93475,"SoundDuration":93475,"Delta":161909892},{"NoteNumber":65,"Velocity":40,"Duration":92696,"SoundDuration":92696,"Delta":162003368},{"NoteNumber":50,"Velocity":34,"Duration":92696,"SoundDuration":92696,"Delta":162003368},{"NoteNumber":62,"Velocity":36,"Duration":93475,"SoundDuration":93475,"Delta":162096843},{"NoteNumber":57,"Velocity":28,"Duration":93475,"SoundDuration":93475,"Delta":162096843},{"NoteNumber":65,"Velocity":40,"Duration":91809,"SoundDuration":91809,"Delta":162190319},{"NoteNumber":50,"Velocity":34,"Duration":91809,"SoundDuration":91809,"Delta":162190319},{"NoteNumber":62,"Velocity":36,"Duration":92581,"SoundDuration":92581,"Delta":162282900},{"NoteNumber":57,"Velocity":29,"Duration":92581,"SoundDuration":92581,"Delta":162282900},{"NoteNumber":65,"Velocity":39,"Duration":91809,"SoundDuration":91809,"Delta":162375481},{"NoteNumber":50,"Velocity":34,"Duration":91809,"SoundDuration":91809,"Delta":162375481},{"NoteNumber":62,"Velocity":36,"Duration":92581,"SoundDuration":92581,"Delta":162468063},{"NoteNumber":57,"Velocity":29,"Duration":92581,"SoundDuration":92581,"Delta":162468063},{"NoteNumber":65,"Velocity":39,"Duration":91809,"SoundDuration":91809,"Delta":162560644},{"NoteNumber":50,"Velocity":34,"Duration":91809,"SoundDuration":91809,"Delta":162560644},{"NoteNumber":62,"Velocity":36,"Duration":92581,"SoundDuration":92581,"Delta":162653225},{"NoteNumber":57,"Velocity":28,"Duration":92581,"SoundDuration":92581,"Delta":162653225},{"NoteNumber":65,"Velocity":41,"Duration":91809,"SoundDuration":91809,"Delta":162745806},{"NoteNumber":50,"Velocity":34,"Duration":91809,"SoundDuration":91809,"Delta":162745806},{"NoteNumber":62,"Velocity":36,"Duration":92581,"SoundDuration":92581,"Delta":162838388},{"NoteNumber":57,"Velocity":29,"Duration":92581,"SoundDuration":92581,"Delta":162838388},{"NoteNumber":65,"Velocity":40,"Duration":93301,"SoundDuration":93301,"Delta":162930969},{"NoteNumber":50,"Velocity":34,"Duration":93301,"SoundDuration":93301,"Delta":162930969},{"NoteNumber":62,"Velocity":37,"Duration":94085,"SoundDuration":94085,"Delta":163025054},{"NoteNumber":57,"Velocity":30,"Duration":94085,"SoundDuration":94085,"Delta":163025054},{"NoteNumber":65,"Velocity":40,"Duration":93301,"SoundDuration":93301,"Delta":163119139},{"NoteNumber":50,"Velocity":35,"Duration":93301,"SoundDuration":93301,"Delta":163119139},{"NoteNumber":62,"Velocity":37,"Duration":94085,"SoundDuration":94085,"Delta":163213225},{"NoteNumber":57,"Velocity":28,"Duration":94085,"SoundDuration":94085,"Delta":163213225},{"NoteNumber":65,"Velocity":41,"Duration":92696,"SoundDuration":92696,"Delta":163307310},{"NoteNumber":50,"Velocity":35,"Duration":92696,"SoundDuration":92696,"Delta":163307310},{"NoteNumber":62,"Velocity":37,"Duration":93475,"SoundDuration":93475,"Delta":163400785},{"NoteNumber":57,"Velocity":29,"Duration":93475,"SoundDuration":93475,"Delta":163400785},{"NoteNumber":65,"Velocity":41,"Duration":92696,"SoundDuration":92696,"Delta":163494261},{"NoteNumber":50,"Velocity":35,"Duration":92696,"SoundDuration":92696,"Delta":163494261},{"NoteNumber":62,"Velocity":37,"Duration":93475,"SoundDuration":93475,"Delta":163587736},{"NoteNumber":57,"Velocity":29,"Duration":93475,"SoundDuration":93475,"Delta":163587736},{"NoteNumber":65,"Velocity":42,"Duration":92105,"SoundDuration":92105,"Delta":163681212},{"NoteNumber":50,"Velocity":35,"Duration":92105,"SoundDuration":92105,"Delta":163681212},{"NoteNumber":62,"Velocity":37,"Duration":92879,"SoundDuration":92879,"Delta":163774091},{"NoteNumber":57,"Velocity":30,"Duration":92879,"SoundDuration":92879,"Delta":163774091},{"NoteNumber":65,"Velocity":41,"Duration":92105,"SoundDuration":92105,"Delta":163866970},{"NoteNumber":50,"Velocity":35,"Duration":92105,"SoundDuration":92105,"Delta":163866970},{"NoteNumber":62,"Velocity":38,"Duration":92879,"SoundDuration":92879,"Delta":163959850},{"NoteNumber":57,"Velocity":30,"Duration":92879,"SoundDuration":92879,"Delta":163959850},{"NoteNumber":65,"Velocity":41,"Duration":93100,"SoundDuration":93100,"Delta":164052729},{"NoteNumber":50,"Velocity":36,"Duration":93100,"SoundDuration":93100,"Delta":164052729},{"NoteNumber":62,"Velocity":38,"Duration":94085,"SoundDuration":94085,"Delta":164146613},{"NoteNumber":57,"Velocity":29,"Duration":94085,"SoundDuration":94085,"Delta":164146613},{"NoteNumber":65,"Velocity":42,"Duration":93301,"SoundDuration":93301,"Delta":164240698},{"NoteNumber":50,"Velocity":36,"Duration":93301,"SoundDuration":93301,"Delta":164240698},{"NoteNumber":62,"Velocity":38,"Duration":94085,"SoundDuration":94085,"Delta":164334784},{"NoteNumber":57,"Velocity":31,"Duration":94085,"SoundDuration":94085,"Delta":164334784},{"NoteNumber":68,"Velocity":41,"Duration":93301,"SoundDuration":93301,"Delta":164428869},{"NoteNumber":50,"Velocity":36,"Duration":93301,"SoundDuration":93301,"Delta":164428869},{"NoteNumber":64,"Velocity":38,"Duration":94085,"SoundDuration":94085,"Delta":164522954},{"NoteNumber":59,"Velocity":31,"Duration":94085,"SoundDuration":94085,"Delta":164522954},{"NoteNumber":68,"Velocity":42,"Duration":93301,"SoundDuration":93301,"Delta":164617039},{"NoteNumber":50,"Velocity":36,"Duration":93301,"SoundDuration":93301,"Delta":164617039},{"NoteNumber":64,"Velocity":38,"Duration":94085,"SoundDuration":94085,"Delta":164711125},{"NoteNumber":59,"Velocity":29,"Duration":94085,"SoundDuration":94085,"Delta":164711125},{"NoteNumber":69,"Velocity":55,"Duration":560853,"SoundDuration":560853,"Delta":164805210},{"NoteNumber":48,"Velocity":30,"Duration":140213,"SoundDuration":140213,"Delta":164805210},{"NoteNumber":52,"Velocity":37,"Duration":140213,"SoundDuration":140213,"Delta":164805210},{"NoteNumber":57,"Velocity":29,"Duration":93475,"SoundDuration":93475,"Delta":164898685},{"NoteNumber":48,"Velocity":30,"Duration":140213,"SoundDuration":140213,"Delta":164992161},{"NoteNumber":52,"Velocity":37,"Duration":140213,"SoundDuration":140213,"Delta":164992161},{"NoteNumber":57,"Velocity":29,"Duration":93475,"SoundDuration":93475,"Delta":165085636},{"NoteNumber":48,"Velocity":30,"Duration":140213,"SoundDuration":140213,"Delta":165179112},{"NoteNumber":52,"Velocity":37,"Duration":140213,"SoundDuration":140213,"Delta":165179112},{"NoteNumber":57,"Velocity":29,"Duration":93475,"SoundDuration":93475,"Delta":165272587},{"NoteNumber":72,"Velocity":48,"Duration":93475,"SoundDuration":93475,"Delta":165366063},{"NoteNumber":48,"Velocity":30,"Duration":140213,"SoundDuration":140213,"Delta":165366063},{"NoteNumber":52,"Velocity":37,"Duration":140213,"SoundDuration":140213,"Delta":165366063},{"NoteNumber":71,"Velocity":48,"Duration":93475,"SoundDuration":93475,"Delta":165459538},{"NoteNumber":57,"Velocity":29,"Duration":93475,"SoundDuration":93475,"Delta":165459538},{"NoteNumber":69,"Velocity":53,"Duration":93475,"SoundDuration":93475,"Delta":165553014},{"NoteNumber":48,"Velocity":30,"Duration":140213,"SoundDuration":140213,"Delta":165553014},{"NoteNumber":52,"Velocity":37,"Duration":140213,"SoundDuration":140213,"Delta":165553014},{"NoteNumber":57,"Velocity":29,"Duration":93475,"SoundDuration":93475,"Delta":165646489},{"NoteNumber":48,"Velocity":30,"Duration":140213,"SoundDuration":140213,"Delta":165739965},{"NoteNumber":52,"Velocity":37,"Duration":140213,"SoundDuration":140213,"Delta":165739965},{"NoteNumber":57,"Velocity":29,"Duration":93475,"SoundDuration":93475,"Delta":165833440},{"NoteNumber":48,"Velocity":30,"Duration":140213,"SoundDuration":140213,"Delta":165926916},{"NoteNumber":52,"Velocity":37,"Duration":140213,"SoundDuration":140213,"Delta":165926916},{"NoteNumber":57,"Velocity":29,"Duration":93475,"SoundDuration":93475,"Delta":166020391},{"NoteNumber":48,"Velocity":30,"Duration":146579,"SoundDuration":146579,"Delta":166113867},{"NoteNumber":52,"Velocity":37,"Duration":146579,"SoundDuration":146579,"Delta":166113867},{"NoteNumber":57,"Velocity":29,"Duration":97719,"SoundDuration":97719,"Delta":166211587},{"NoteNumber":87,"Velocity":55,"Duration":48859,"SoundDuration":48859,"Delta":166260446},{"NoteNumber":88,"Velocity":68,"Duration":474683,"SoundDuration":474683,"Delta":166309306},{"NoteNumber":48,"Velocity":30,"Duration":142405,"SoundDuration":142405,"Delta":166309306},{"NoteNumber":52,"Velocity":37,"Duration":142405,"SoundDuration":142405,"Delta":166309306},{"NoteNumber":57,"Velocity":29,"Duration":94936,"SoundDuration":94936,"Delta":166404243},{"NoteNumber":48,"Velocity":30,"Duration":142405,"SoundDuration":142405,"Delta":166499180},{"NoteNumber":52,"Velocity":37,"Duration":142405,"SoundDuration":142405,"Delta":166499180},{"NoteNumber":57,"Velocity":29,"Duration":94936,"SoundDuration":94936,"Delta":166594117},{"NoteNumber":48,"Velocity":30,"Duration":142405,"SoundDuration":142405,"Delta":166689053},{"NoteNumber":52,"Velocity":37,"Duration":142405,"SoundDuration":142405,"Delta":166689053},{"NoteNumber":86,"Velocity":59,"Duration":94936,"SoundDuration":94936,"Delta":166783990},{"NoteNumber":57,"Velocity":29,"Duration":94936,"SoundDuration":94936,"Delta":166783990},{"NoteNumber":84,"Velocity":58,"Duration":94936,"SoundDuration":94936,"Delta":166878927},{"NoteNumber":48,"Velocity":30,"Duration":142405,"SoundDuration":142405,"Delta":166878927},{"NoteNumber":52,"Velocity":39,"Duration":142405,"SoundDuration":142405,"Delta":166878927},{"NoteNumber":83,"Velocity":57,"Duration":94936,"SoundDuration":94936,"Delta":166973864},{"NoteNumber":57,"Velocity":31,"Duration":94936,"SoundDuration":94936,"Delta":166973864},{"NoteNumber":81,"Velocity":57,"Duration":189873,"SoundDuration":189873,"Delta":167068800},{"NoteNumber":48,"Velocity":32,"Duration":142405,"SoundDuration":142405,"Delta":167068800},{"NoteNumber":52,"Velocity":39,"Duration":142405,"SoundDuration":142405,"Delta":167068800},{"NoteNumber":57,"Velocity":31,"Duration":94936,"SoundDuration":94936,"Delta":167163737},{"NoteNumber":48,"Velocity":32,"Duration":142405,"SoundDuration":142405,"Delta":167258674},{"NoteNumber":52,"Velocity":41,"Duration":142405,"SoundDuration":142405,"Delta":167258674},{"NoteNumber":57,"Velocity":31,"Duration":94936,"SoundDuration":94936,"Delta":167353611},{"NoteNumber":48,"Velocity":33,"Duration":142405,"SoundDuration":142405,"Delta":167448547},{"NoteNumber":52,"Velocity":41,"Duration":142405,"SoundDuration":142405,"Delta":167448547},{"NoteNumber":57,"Velocity":33,"Duration":94936,"SoundDuration":94936,"Delta":167543484},{"NoteNumber":48,"Velocity":35,"Duration":147058,"SoundDuration":147058,"Delta":167638421},{"NoteNumber":52,"Velocity":42,"Duration":147058,"SoundDuration":147058,"Delta":167638421},{"NoteNumber":57,"Velocity":33,"Duration":98039,"SoundDuration":98039,"Delta":167736460},{"NoteNumber":87,"Velocity":66,"Duration":49019,"SoundDuration":49019,"Delta":167785480},{"NoteNumber":88,"Velocity":85,"Duration":480768,"SoundDuration":480768,"Delta":167834499},{"NoteNumber":48,"Velocity":37,"Duration":144230,"SoundDuration":144230,"Delta":167834499},{"NoteNumber":52,"Velocity":45,"Duration":144230,"SoundDuration":144230,"Delta":167834499},{"NoteNumber":58,"Velocity":36,"Duration":96153,"SoundDuration":96153,"Delta":167930653},{"NoteNumber":48,"Velocity":38,"Duration":144230,"SoundDuration":144230,"Delta":168026807},{"NoteNumber":52,"Velocity":45,"Duration":144230,"SoundDuration":144230,"Delta":168026807},{"NoteNumber":58,"Velocity":37,"Duration":96153,"SoundDuration":96153,"Delta":168122961},{"NoteNumber":48,"Velocity":39,"Duration":144230,"SoundDuration":144230,"Delta":168219114},{"NoteNumber":52,"Velocity":47,"Duration":144230,"SoundDuration":144230,"Delta":168219114},{"NoteNumber":86,"Velocity":76,"Duration":96153,"SoundDuration":96153,"Delta":168315268},{"NoteNumber":58,"Velocity":38,"Duration":96153,"SoundDuration":96153,"Delta":168315268},{"NoteNumber":84,"Velocity":75,"Duration":96153,"SoundDuration":96153,"Delta":168411422},{"NoteNumber":48,"Velocity":39,"Duration":144230,"SoundDuration":144230,"Delta":168411422},{"NoteNumber":52,"Velocity":47,"Duration":144230,"SoundDuration":144230,"Delta":168411422},{"NoteNumber":83,"Velocity":71,"Duration":96153,"SoundDuration":96153,"Delta":168507576},{"NoteNumber":58,"Velocity":38,"Duration":96153,"SoundDuration":96153,"Delta":168507576},{"NoteNumber":82,"Velocity":71,"Duration":192307,"SoundDuration":192307,"Delta":168603729},{"NoteNumber":48,"Velocity":41,"Duration":144230,"SoundDuration":144230,"Delta":168603729},{"NoteNumber":52,"Velocity":50,"Duration":144230,"SoundDuration":144230,"Delta":168603729},{"NoteNumber":58,"Velocity":40,"Duration":96153,"SoundDuration":96153,"Delta":168699883},{"NoteNumber":48,"Velocity":41,"Duration":144230,"SoundDuration":144230,"Delta":168796037},{"NoteNumber":52,"Velocity":51,"Duration":144230,"SoundDuration":144230,"Delta":168796037},{"NoteNumber":58,"Velocity":40,"Duration":96153,"SoundDuration":96153,"Delta":168892191},{"NoteNumber":48,"Velocity":42,"Duration":144230,"SoundDuration":144230,"Delta":168988344},{"NoteNumber":52,"Velocity":51,"Duration":144230,"SoundDuration":144230,"Delta":168988344},{"NoteNumber":58,"Velocity":42,"Duration":96153,"SoundDuration":96153,"Delta":169084498},{"NoteNumber":48,"Velocity":43,"Duration":152542,"SoundDuration":152542,"Delta":169180652},{"NoteNumber":52,"Velocity":53,"Duration":152542,"SoundDuration":152542,"Delta":169180652},{"NoteNumber":58,"Velocity":42,"Duration":101695,"SoundDuration":101695,"Delta":169282347},{"NoteNumber":83,"Velocity":56,"Duration":492576,"SoundDuration":492576,"Delta":169384042},{"NoteNumber":47,"Velocity":40,"Duration":111821,"SoundDuration":111821,"Delta":169384042},{"NoteNumber":51,"Velocity":35,"Duration":111566,"SoundDuration":111566,"Delta":169479889},{"NoteNumber":54,"Velocity":35,"Duration":111212,"SoundDuration":111212,"Delta":169575532},{"NoteNumber":59,"Velocity":35,"Duration":95137,"SoundDuration":95137,"Delta":169670871},{"NoteNumber":47,"Velocity":41,"Duration":110609,"SoundDuration":110609,"Delta":169766009},{"NoteNumber":81,"Velocity":54,"Duration":110360,"SoundDuration":110360,"Delta":169860846},{"NoteNumber":51,"Velocity":35,"Duration":110360,"SoundDuration":110360,"Delta":169860846},{"NoteNumber":79,"Velocity":53,"Duration":110013,"SoundDuration":110013,"Delta":169955483},{"NoteNumber":54,"Velocity":35,"Duration":110013,"SoundDuration":110013,"Delta":169955483},{"NoteNumber":78,"Velocity":51,"Duration":109668,"SoundDuration":109668,"Delta":170049822},{"NoteNumber":59,"Velocity":35,"Duration":94043,"SoundDuration":94043,"Delta":170049822},{"NoteNumber":79,"Velocity":53,"Duration":109375,"SoundDuration":109375,"Delta":170143866},{"NoteNumber":47,"Velocity":39,"Duration":109375,"SoundDuration":109375,"Delta":170143866},{"NoteNumber":78,"Velocity":52,"Duration":109375,"SoundDuration":109375,"Delta":170237616},{"NoteNumber":52,"Velocity":35,"Duration":109375,"SoundDuration":109375,"Delta":170237616},{"NoteNumber":76,"Velocity":51,"Duration":109375,"SoundDuration":109375,"Delta":170331366},{"NoteNumber":55,"Velocity":35,"Duration":109375,"SoundDuration":109375,"Delta":170331366},{"NoteNumber":75,"Velocity":50,"Duration":109375,"SoundDuration":109375,"Delta":170425116},{"NoteNumber":59,"Velocity":35,"Duration":93750,"SoundDuration":93750,"Delta":170425116},{"NoteNumber":76,"Velocity":50,"Duration":109375,"SoundDuration":109375,"Delta":170518866},{"NoteNumber":47,"Velocity":40,"Duration":109375,"SoundDuration":109375,"Delta":170518866},{"NoteNumber":79,"Velocity":52,"Duration":109375,"SoundDuration":109375,"Delta":170612616},{"NoteNumber":52,"Velocity":35,"Duration":109375,"SoundDuration":109375,"Delta":170612616},{"NoteNumber":78,"Velocity":50,"Duration":109375,"SoundDuration":109375,"Delta":170706366},{"NoteNumber":55,"Velocity":35,"Duration":109375,"SoundDuration":109375,"Delta":170706366},{"NoteNumber":76,"Velocity":50,"Duration":109237,"SoundDuration":109237,"Delta":170800116},{"NoteNumber":59,"Velocity":35,"Duration":93658,"SoundDuration":93658,"Delta":170800116},{"NoteNumber":75,"Velocity":50,"Duration":109054,"SoundDuration":109054,"Delta":170893775},{"NoteNumber":47,"Velocity":40,"Duration":109054,"SoundDuration":109054,"Delta":170893775},{"NoteNumber":73,"Velocity":49,"Duration":109054,"SoundDuration":109054,"Delta":170987250},{"NoteNumber":54,"Velocity":35,"Duration":109054,"SoundDuration":109054,"Delta":170987250},{"NoteNumber":71,"Velocity":48,"Duration":109307,"SoundDuration":109307,"Delta":171080726},{"NoteNumber":57,"Velocity":35,"Duration":109307,"SoundDuration":109307,"Delta":171080726},{"NoteNumber":70,"Velocity":47,"Duration":109409,"SoundDuration":109409,"Delta":171174404},{"NoteNumber":59,"Velocity":35,"Duration":93779,"SoundDuration":93779,"Delta":171174404},{"NoteNumber":71,"Velocity":49,"Duration":109460,"SoundDuration":109460,"Delta":171268183},{"NoteNumber":47,"Velocity":40,"Duration":109460,"SoundDuration":109460,"Delta":171268183},{"NoteNumber":73,"Velocity":49,"Duration":109766,"SoundDuration":109766,"Delta":171361962},{"NoteNumber":54,"Velocity":35,"Duration":109766,"SoundDuration":109766,"Delta":171361962},{"NoteNumber":74,"Velocity":49,"Duration":109766,"SoundDuration":109766,"Delta":171456048},{"NoteNumber":57,"Velocity":35,"Duration":109766,"SoundDuration":109766,"Delta":171456048},{"NoteNumber":75,"Velocity":50,"Duration":110042,"SoundDuration":110042,"Delta":171550133},{"NoteNumber":59,"Velocity":35,"Duration":94269,"SoundDuration":94269,"Delta":171550133},{"NoteNumber":76,"Velocity":50,"Duration":110410,"SoundDuration":110410,"Delta":171644402},{"NoteNumber":47,"Velocity":40,"Duration":110410,"SoundDuration":110410,"Delta":171644402},{"NoteNumber":75,"Velocity":50,"Duration":110659,"SoundDuration":110659,"Delta":171739039},{"NoteNumber":52,"Velocity":35,"Duration":110659,"SoundDuration":110659,"Delta":171739039},{"NoteNumber":76,"Velocity":51,"Duration":110809,"SoundDuration":110809,"Delta":171833876},{"NoteNumber":55,"Velocity":35,"Duration":110809,"SoundDuration":110809,"Delta":171833876},{"NoteNumber":78,"Velocity":51,"Duration":111110,"SoundDuration":111110,"Delta":171928813},{"NoteNumber":59,"Velocity":35,"Duration":95237,"SoundDuration":95237,"Delta":171928813},{"NoteNumber":79,"Velocity":49,"Duration":111262,"SoundDuration":111262,"Delta":172024051},{"NoteNumber":47,"Velocity":40,"Duration":111262,"SoundDuration":111262,"Delta":172024051},{"NoteNumber":80,"Velocity":50,"Duration":111465,"SoundDuration":111465,"Delta":172119390},{"NoteNumber":52,"Velocity":35,"Duration":111465,"SoundDuration":111465,"Delta":172119390},{"NoteNumber":81,"Velocity":52,"Duration":111719,"SoundDuration":111719,"Delta":172214932},{"NoteNumber":55,"Velocity":35,"Duration":111719,"SoundDuration":111719,"Delta":172214932},{"NoteNumber":82,"Velocity":53,"Duration":112077,"SoundDuration":112077,"Delta":172310677},{"NoteNumber":59,"Velocity":35,"Duration":96051,"SoundDuration":96051,"Delta":172310677},{"NoteNumber":83,"Velocity":55,"Duration":111872,"SoundDuration":111872,"Delta":172406728},{"NoteNumber":47,"Velocity":40,"Duration":111872,"SoundDuration":111872,"Delta":172406728},{"NoteNumber":82,"Velocity":53,"Duration":111414,"SoundDuration":111414,"Delta":172502677},{"NoteNumber":51,"Velocity":35,"Duration":111414,"SoundDuration":111414,"Delta":172502677},{"NoteNumber":83,"Velocity":53,"Duration":110960,"SoundDuration":110960,"Delta":172598219},{"NoteNumber":54,"Velocity":35,"Duration":110960,"SoundDuration":110960,"Delta":172598219},{"NoteNumber":82,"Velocity":50,"Duration":110509,"SoundDuration":110509,"Delta":172693356},{"NoteNumber":59,"Velocity":35,"Duration":94737,"SoundDuration":94737,"Delta":172693356},{"NoteNumber":83,"Velocity":52,"Duration":110112,"SoundDuration":110112,"Delta":172788093},{"NoteNumber":47,"Velocity":40,"Duration":110112,"SoundDuration":110112,"Delta":172788093},{"NoteNumber":81,"Velocity":52,"Duration":109668,"SoundDuration":109668,"Delta":172882532},{"NoteNumber":51,"Velocity":35,"Duration":109668,"SoundDuration":109668,"Delta":172882532},{"NoteNumber":79,"Velocity":51,"Duration":109228,"SoundDuration":109228,"Delta":172976576},{"NoteNumber":54,"Velocity":35,"Duration":109228,"SoundDuration":109228,"Delta":172976576},{"NoteNumber":78,"Velocity":50,"Duration":108843,"SoundDuration":108843,"Delta":173070229},{"NoteNumber":59,"Velocity":35,"Duration":93264,"SoundDuration":93264,"Delta":173070229},{"NoteNumber":79,"Velocity":52,"Duration":109054,"SoundDuration":109054,"Delta":173163493},{"NoteNumber":47,"Velocity":40,"Duration":109054,"SoundDuration":109054,"Delta":173163493},{"NoteNumber":78,"Velocity":51,"Duration":109054,"SoundDuration":109054,"Delta":173256969},{"NoteNumber":52,"Velocity":35,"Duration":109054,"SoundDuration":109054,"Delta":173256969},{"NoteNumber":76,"Velocity":49,"Duration":109054,"SoundDuration":109054,"Delta":173350444},{"NoteNumber":55,"Velocity":35,"Duration":109054,"SoundDuration":109054,"Delta":173350444},{"NoteNumber":75,"Velocity":50,"Duration":109054,"SoundDuration":109054,"Delta":173443920},{"NoteNumber":59,"Velocity":35,"Duration":93475,"SoundDuration":93475,"Delta":173443920},{"NoteNumber":76,"Velocity":50,"Duration":109054,"SoundDuration":109054,"Delta":173537395},{"NoteNumber":47,"Velocity":41,"Duration":109054,"SoundDuration":109054,"Delta":173537395},{"NoteNumber":79,"Velocity":53,"Duration":109054,"SoundDuration":109054,"Delta":173630871},{"NoteNumber":52,"Velocity":35,"Duration":109054,"SoundDuration":109054,"Delta":173630871},{"NoteNumber":78,"Velocity":50,"Duration":109054,"SoundDuration":109054,"Delta":173724346},{"NoteNumber":55,"Velocity":35,"Duration":109054,"SoundDuration":109054,"Delta":173724346},{"NoteNumber":76,"Velocity":50,"Duration":109054,"SoundDuration":109054,"Delta":173817822},{"NoteNumber":59,"Velocity":35,"Duration":93475,"SoundDuration":93475,"Delta":173817822},{"NoteNumber":75,"Velocity":50,"Duration":109054,"SoundDuration":109054,"Delta":173911297},{"NoteNumber":47,"Velocity":40,"Duration":109054,"SoundDuration":109054,"Delta":173911297},{"NoteNumber":73,"Velocity":49,"Duration":109054,"SoundDuration":109054,"Delta":174004773},{"NoteNumber":54,"Velocity":35,"Duration":109054,"SoundDuration":109054,"Delta":174004773},{"NoteNumber":71,"Velocity":48,"Duration":109054,"SoundDuration":109054,"Delta":174098248},{"NoteNumber":57,"Velocity":35,"Duration":109054,"SoundDuration":109054,"Delta":174098248},{"NoteNumber":70,"Velocity":47,"Duration":109054,"SoundDuration":109054,"Delta":174191724},{"NoteNumber":59,"Velocity":35,"Duration":93475,"SoundDuration":93475,"Delta":174191724},{"NoteNumber":71,"Velocity":49,"Duration":109054,"SoundDuration":109054,"Delta":174285199},{"NoteNumber":47,"Velocity":40,"Duration":109054,"SoundDuration":109054,"Delta":174285199},{"NoteNumber":73,"Velocity":50,"Duration":109054,"SoundDuration":109054,"Delta":174378675},{"NoteNumber":54,"Velocity":36,"Duration":109054,"SoundDuration":109054,"Delta":174378675},{"NoteNumber":74,"Velocity":50,"Duration":109054,"SoundDuration":109054,"Delta":174472150},{"NoteNumber":57,"Velocity":36,"Duration":109054,"SoundDuration":109054,"Delta":174472150},{"NoteNumber":75,"Velocity":52,"Duration":109054,"SoundDuration":109054,"Delta":174565626},{"NoteNumber":59,"Velocity":36,"Duration":93475,"SoundDuration":93475,"Delta":174565626},{"NoteNumber":76,"Velocity":52,"Duration":109054,"SoundDuration":109054,"Delta":174659101},{"NoteNumber":47,"Velocity":42,"Duration":109054,"SoundDuration":109054,"Delta":174659101},{"NoteNumber":75,"Velocity":52,"Duration":109054,"SoundDuration":109054,"Delta":174752577},{"NoteNumber":52,"Velocity":36,"Duration":109054,"SoundDuration":109054,"Delta":174752577},{"NoteNumber":76,"Velocity":54,"Duration":109054,"SoundDuration":109054,"Delta":174846052},{"NoteNumber":55,"Velocity":37,"Duration":109054,"SoundDuration":109054,"Delta":174846052},{"NoteNumber":78,"Velocity":54,"Duration":109054,"SoundDuration":109054,"Delta":174939528},{"NoteNumber":59,"Velocity":37,"Duration":93475,"SoundDuration":93475,"Delta":174939528},{"NoteNumber":79,"Velocity":56,"Duration":109054,"SoundDuration":109054,"Delta":175033003},{"NoteNumber":47,"Velocity":42,"Duration":109054,"SoundDuration":109054,"Delta":175033003},{"NoteNumber":80,"Velocity":58,"Duration":109847,"SoundDuration":109847,"Delta":175126479},{"NoteNumber":52,"Velocity":37,"Duration":109847,"SoundDuration":109847,"Delta":175126479},{"NoteNumber":81,"Velocity":60,"Duration":114603,"SoundDuration":114603,"Delta":175219954},{"NoteNumber":55,"Velocity":37,"Duration":114603,"SoundDuration":114603,"Delta":175219954},{"NoteNumber":82,"Velocity":62,"Duration":113810,"SoundDuration":113810,"Delta":175318186},{"NoteNumber":59,"Velocity":38,"Duration":98231,"SoundDuration":98231,"Delta":175318186},{"NoteNumber":83,"Velocity":68,"Duration":93475,"SoundDuration":93475,"Delta":175416418},{"NoteNumber":47,"Velocity":44,"Duration":93475,"SoundDuration":93475,"Delta":175416418},{"NoteNumber":78,"Velocity":60,"Duration":93475,"SoundDuration":93475,"Delta":175509893},{"NoteNumber":51,"Velocity":38,"Duration":93475,"SoundDuration":93475,"Delta":175509893},{"NoteNumber":75,"Velocity":61,"Duration":93475,"SoundDuration":93475,"Delta":175603369},{"NoteNumber":53,"Velocity":38,"Duration":93475,"SoundDuration":93475,"Delta":175603369},{"NoteNumber":71,"Velocity":61,"Duration":93475,"SoundDuration":93475,"Delta":175696844},{"NoteNumber":59,"Velocity":38,"Duration":93475,"SoundDuration":93475,"Delta":175696844},{"NoteNumber":70,"Velocity":75,"Duration":93475,"SoundDuration":93475,"Delta":175790320},{"NoteNumber":58,"Velocity":50,"Duration":93475,"SoundDuration":93475,"Delta":175790320},{"NoteNumber":71,"Velocity":63,"Duration":93475,"SoundDuration":93475,"Delta":175883795},{"NoteNumber":59,"Velocity":41,"Duration":93475,"SoundDuration":93475,"Delta":175883795},{"NoteNumber":76,"Velocity":63,"Duration":93475,"SoundDuration":93475,"Delta":175977271},{"NoteNumber":55,"Velocity":40,"Duration":93475,"SoundDuration":93475,"Delta":175977271},{"NoteNumber":79,"Velocity":63,"Duration":93475,"SoundDuration":93475,"Delta":176070746},{"NoteNumber":52,"Velocity":41,"Duration":93475,"SoundDuration":93475,"Delta":176070746},{"NoteNumber":83,"Velocity":74,"Duration":93475,"SoundDuration":93475,"Delta":176164222},{"NoteNumber":47,"Velocity":52,"Duration":93475,"SoundDuration":93475,"Delta":176164222},{"NoteNumber":78,"Velocity":65,"Duration":93475,"SoundDuration":93475,"Delta":176257697},{"NoteNumber":51,"Velocity":44,"Duration":93475,"SoundDuration":93475,"Delta":176257697},{"NoteNumber":75,"Velocity":68,"Duration":93475,"SoundDuration":93475,"Delta":176351173},{"NoteNumber":54,"Velocity":45,"Duration":93475,"SoundDuration":93475,"Delta":176351173},{"NoteNumber":71,"Velocity":68,"Duration":93475,"SoundDuration":93475,"Delta":176444648},{"NoteNumber":59,"Velocity":45,"Duration":93475,"SoundDuration":93475,"Delta":176444648},{"NoteNumber":70,"Velocity":80,"Duration":93475,"SoundDuration":93475,"Delta":176538124},{"NoteNumber":58,"Velocity":60,"Duration":93475,"SoundDuration":93475,"Delta":176538124},{"NoteNumber":71,"Velocity":71,"Duration":93475,"SoundDuration":93475,"Delta":176631599},{"NoteNumber":59,"Velocity":51,"Duration":93475,"SoundDuration":93475,"Delta":176631599},{"NoteNumber":76,"Velocity":71,"Duration":93475,"SoundDuration":93475,"Delta":176725075},{"NoteNumber":55,"Velocity":51,"Duration":93475,"SoundDuration":93475,"Delta":176725075},{"NoteNumber":79,"Velocity":72,"Duration":93475,"SoundDuration":93475,"Delta":176818550},{"NoteNumber":52,"Velocity":52,"Duration":93475,"SoundDuration":93475,"Delta":176818550},{"NoteNumber":83,"Velocity":91,"Duration":93475,"SoundDuration":93475,"Delta":176912026},{"NoteNumber":47,"Velocity":63,"Duration":93475,"SoundDuration":93475,"Delta":176912026},{"NoteNumber":78,"Velocity":82,"Duration":93475,"SoundDuration":93475,"Delta":177005501},{"NoteNumber":51,"Velocity":52,"Duration":93475,"SoundDuration":93475,"Delta":177005501},{"NoteNumber":75,"Velocity":82,"Duration":93475,"SoundDuration":93475,"Delta":177098977},{"NoteNumber":54,"Velocity":52,"Duration":93475,"SoundDuration":93475,"Delta":177098977},{"NoteNumber":71,"Velocity":82,"Duration":93475,"SoundDuration":93475,"Delta":177192452},{"NoteNumber":59,"Velocity":52,"Duration":93475,"SoundDuration":93475,"Delta":177192452},{"NoteNumber":83,"Velocity":91,"Duration":93475,"SoundDuration":93475,"Delta":177285928},{"NoteNumber":47,"Velocity":63,"Duration":93475,"SoundDuration":93475,"Delta":177285928},{"NoteNumber":79,"Velocity":82,"Duration":93475,"SoundDuration":93475,"Delta":177379403},{"NoteNumber":52,"Velocity":52,"Duration":93475,"SoundDuration":93475,"Delta":177379403},{"NoteNumber":76,"Velocity":82,"Duration":93475,"SoundDuration":93475,"Delta":177472879},{"NoteNumber":55,"Velocity":52,"Duration":93475,"SoundDuration":93475,"Delta":177472879},{"NoteNumber":71,"Velocity":82,"Duration":93475,"SoundDuration":93475,"Delta":177566354},{"NoteNumber":59,"Velocity":52,"Duration":93475,"SoundDuration":93475,"Delta":177566354},{"NoteNumber":83,"Velocity":91,"Duration":93475,"SoundDuration":93475,"Delta":177659830},{"NoteNumber":47,"Velocity":63,"Duration":93475,"SoundDuration":93475,"Delta":177659830},{"NoteNumber":78,"Velocity":82,"Duration":93475,"SoundDuration":93475,"Delta":177753305},{"NoteNumber":51,"Velocity":52,"Duration":93475,"SoundDuration":93475,"Delta":177753305},{"NoteNumber":75,"Velocity":81,"Duration":93475,"SoundDuration":93475,"Delta":177846781},{"NoteNumber":54,"Velocity":52,"Duration":93475,"SoundDuration":93475,"Delta":177846781},{"NoteNumber":71,"Velocity":81,"Duration":93475,"SoundDuration":93475,"Delta":177940256},{"NoteNumber":59,"Velocity":52,"Duration":93475,"SoundDuration":93475,"Delta":177940256},{"NoteNumber":83,"Velocity":91,"Duration":93475,"SoundDuration":93475,"Delta":178033732},{"NoteNumber":47,"Velocity":63,"Duration":93475,"SoundDuration":93475,"Delta":178033732},{"NoteNumber":79,"Velocity":81,"Duration":93475,"SoundDuration":93475,"Delta":178127207},{"NoteNumber":52,"Velocity":52,"Duration":93475,"SoundDuration":93475,"Delta":178127207},{"NoteNumber":76,"Velocity":81,"Duration":93475,"SoundDuration":93475,"Delta":178220683},{"NoteNumber":55,"Velocity":52,"Duration":93475,"SoundDuration":93475,"Delta":178220683},{"NoteNumber":71,"Velocity":82,"Duration":93475,"SoundDuration":93475,"Delta":178314158},{"NoteNumber":59,"Velocity":52,"Duration":93475,"SoundDuration":93475,"Delta":178314158},{"NoteNumber":83,"Velocity":91,"Duration":93779,"SoundDuration":93779,"Delta":178407634},{"NoteNumber":47,"Velocity":54,"Duration":375116,"SoundDuration":375116,"Delta":178407634},{"NoteNumber":51,"Velocity":54,"Duration":375116,"SoundDuration":375116,"Delta":178407634},{"NoteNumber":54,"Velocity":54,"Duration":375116,"SoundDuration":375116,"Delta":178407634},{"NoteNumber":59,"Velocity":63,"Duration":375116,"SoundDuration":375116,"Delta":178407634},{"NoteNumber":78,"Velocity":82,"Duration":93779,"SoundDuration":93779,"Delta":178501413},{"NoteNumber":75,"Velocity":82,"Duration":93779,"SoundDuration":93779,"Delta":178595192},{"NoteNumber":71,"Velocity":82,"Duration":93779,"SoundDuration":93779,"Delta":178688971},{"NoteNumber":78,"Velocity":91,"Duration":93779,"SoundDuration":93779,"Delta":178782751},{"NoteNumber":75,"Velocity":82,"Duration":93983,"SoundDuration":93983,"Delta":178876530},{"NoteNumber":71,"Velocity":82,"Duration":94085,"SoundDuration":94085,"Delta":178970513},{"NoteNumber":66,"Velocity":82,"Duration":94085,"SoundDuration":94085,"Delta":179064598},{"NoteNumber":75,"Velocity":91,"Duration":94085,"SoundDuration":94085,"Delta":179158684},{"NoteNumber":71,"Velocity":82,"Duration":94085,"SoundDuration":94085,"Delta":179252769},{"NoteNumber":66,"Velocity":81,"Duration":94187,"SoundDuration":94187,"Delta":179346854},{"NoteNumber":63,"Velocity":81,"Duration":94392,"SoundDuration":94392,"Delta":179441042},{"NoteNumber":71,"Velocity":91,"Duration":94392,"SoundDuration":94392,"Delta":179535435},{"NoteNumber":66,"Velocity":81,"Duration":94392,"SoundDuration":94392,"Delta":179629828},{"NoteNumber":63,"Velocity":81,"Duration":94393,"SoundDuration":94393,"Delta":179724221},{"NoteNumber":59,"Velocity":82,"Duration":94494,"SoundDuration":94494,"Delta":179818614},{"NoteNumber":66,"Velocity":91,"Duration":93779,"SoundDuration":93779,"Delta":179913108},{"NoteNumber":63,"Velocity":81,"Duration":93779,"SoundDuration":93779,"Delta":180006888},{"NoteNumber":59,"Velocity":80,"Duration":93983,"SoundDuration":93983,"Delta":180100667},{"NoteNumber":54,"Velocity":80,"Duration":94085,"SoundDuration":94085,"Delta":180194650},{"NoteNumber":63,"Velocity":89,"Duration":94187,"SoundDuration":94187,"Delta":180288735},{"NoteNumber":59,"Velocity":79,"Duration":94392,"SoundDuration":94392,"Delta":180382923},{"NoteNumber":54,"Velocity":79,"Duration":94392,"SoundDuration":94392,"Delta":180477316},{"NoteNumber":51,"Velocity":78,"Duration":94696,"SoundDuration":94696,"Delta":180571709},{"NoteNumber":59,"Velocity":87,"Duration":94696,"SoundDuration":94696,"Delta":180666406},{"NoteNumber":54,"Velocity":78,"Duration":94904,"SoundDuration":94904,"Delta":180761103},{"NoteNumber":51,"Velocity":77,"Duration":95008,"SoundDuration":95008,"Delta":180856008},{"NoteNumber":47,"Velocity":77,"Duration":95113,"SoundDuration":95113,"Delta":180951017},{"NoteNumber":35,"Velocity":85,"Duration":95322,"SoundDuration":95322,"Delta":181046130},{"NoteNumber":39,"Velocity":76,"Duration":95322,"SoundDuration":95322,"Delta":181141453},{"NoteNumber":42,"Velocity":76,"Duration":99926,"SoundDuration":99926,"Delta":181236776},{"NoteNumber":47,"Velocity":75,"Duration":99926,"SoundDuration":99926,"Delta":181336702},{"NoteNumber":35,"Velocity":77,"Duration":92879,"SoundDuration":92879,"Delta":181436629},{"NoteNumber":47,"Velocity":68,"Duration":95541,"SoundDuration":95541,"Delta":181622388},{"NoteNumber":37,"Velocity":73,"Duration":93750,"SoundDuration":93750,"Delta":181813471},{"NoteNumber":49,"Velocity":66,"Duration":95541,"SoundDuration":95541,"Delta":182000971},{"NoteNumber":71,"Velocity":75,"Duration":92879,"SoundDuration":92879,"Delta":182192054},{"NoteNumber":39,"Velocity":71,"Duration":92879,"SoundDuration":92879,"Delta":182192054},{"NoteNumber":59,"Velocity":69,"Duration":95237,"SoundDuration":95237,"Delta":182377812},{"NoteNumber":51,"Velocity":65,"Duration":95237,"SoundDuration":95237,"Delta":182377812},{"NoteNumber":73,"Velocity":74,"Duration":95238,"SoundDuration":95238,"Delta":182568288},{"NoteNumber":61,"Velocity":65,"Duration":100267,"SoundDuration":100267,"Delta":182758764},{"NoteNumber":75,"Velocity":71,"Duration":94339,"SoundDuration":94339,"Delta":182959299},{"NoteNumber":39,"Velocity":69,"Duration":94339,"SoundDuration":94339,"Delta":182959299},{"NoteNumber":63,"Velocity":64,"Duration":95846,"SoundDuration":95846,"Delta":183148481},{"NoteNumber":51,"Velocity":61,"Duration":95846,"SoundDuration":95846,"Delta":183148481},{"NoteNumber":40,"Velocity":65,"Duration":94339,"SoundDuration":94339,"Delta":183340598},{"NoteNumber":52,"Velocity":59,"Duration":96593,"SoundDuration":96593,"Delta":183530029},{"NoteNumber":75,"Velocity":67,"Duration":94936,"SoundDuration":94936,"Delta":183723216},{"NoteNumber":42,"Velocity":65,"Duration":94936,"SoundDuration":94936,"Delta":183723216},{"NoteNumber":63,"Velocity":53,"Duration":96774,"SoundDuration":96774,"Delta":183913089},{"NoteNumber":54,"Velocity":54,"Duration":96774,"SoundDuration":96774,"Delta":183913089},{"NoteNumber":76,"Velocity":59,"Duration":97238,"SoundDuration":97238,"Delta":184107102},{"NoteNumber":64,"Velocity":50,"Duration":97567,"SoundDuration":97567,"Delta":184301798},{"NoteNumber":78,"Velocity":52,"Duration":96917,"SoundDuration":96917,"Delta":184496933},{"NoteNumber":66,"Velocity":49,"Duration":97024,"SoundDuration":97024,"Delta":184690769},{"NoteNumber":80,"Velocity":52,"Duration":97238,"SoundDuration":97238,"Delta":184885032},{"NoteNumber":68,"Velocity":49,"Duration":97567,"SoundDuration":97567,"Delta":185079728},{"NoteNumber":81,"Velocity":52,"Duration":97898,"SoundDuration":97898,"Delta":185274973},{"NoteNumber":42,"Velocity":41,"Duration":97898,"SoundDuration":97898,"Delta":185274973},{"NoteNumber":69,"Velocity":48,"Duration":97898,"SoundDuration":97898,"Delta":185470770},{"NoteNumber":54,"Velocity":36,"Duration":97898,"SoundDuration":97898,"Delta":185470770},{"NoteNumber":81,"Velocity":52,"Duration":97567,"SoundDuration":97567,"Delta":185666567},{"NoteNumber":44,"Velocity":41,"Duration":97567,"SoundDuration":97567,"Delta":185666567},{"NoteNumber":71,"Velocity":46,"Duration":97898,"SoundDuration":97898,"Delta":185861812},{"NoteNumber":56,"Velocity":36,"Duration":97898,"SoundDuration":97898,"Delta":185861812},{"NoteNumber":81,"Velocity":51,"Duration":98341,"SoundDuration":98341,"Delta":186057942},{"NoteNumber":45,"Velocity":40,"Duration":98341,"SoundDuration":98341,"Delta":186057942},{"NoteNumber":73,"Velocity":46,"Duration":98898,"SoundDuration":98898,"Delta":186254845},{"NoteNumber":57,"Velocity":37,"Duration":98898,"SoundDuration":98898,"Delta":186254845},{"NoteNumber":81,"Velocity":51,"Duration":99239,"SoundDuration":99239,"Delta":186452756},{"NoteNumber":47,"Velocity":39,"Duration":99239,"SoundDuration":99239,"Delta":186452756},{"NoteNumber":75,"Velocity":46,"Duration":99696,"SoundDuration":99696,"Delta":186651577},{"NoteNumber":59,"Velocity":36,"Duration":99696,"SoundDuration":99696,"Delta":186651577},{"NoteNumber":81,"Velocity":51,"Duration":99184,"SoundDuration":99184,"Delta":186851201},{"NoteNumber":49,"Velocity":38,"Duration":99184,"SoundDuration":99184,"Delta":186851201},{"NoteNumber":76,"Velocity":47,"Duration":102037,"SoundDuration":102037,"Delta":187050715},{"NoteNumber":61,"Velocity":37,"Duration":102037,"SoundDuration":102037,"Delta":187050715},{"NoteNumber":81,"Velocity":50,"Duration":108159,"SoundDuration":108159,"Delta":187256495},{"NoteNumber":51,"Velocity":40,"Duration":108159,"SoundDuration":108159,"Delta":187256495},{"NoteNumber":78,"Velocity":46,"Duration":122838,"SoundDuration":122838,"Delta":187479686},{"NoteNumber":63,"Velocity":37,"Duration":122838,"SoundDuration":122838,"Delta":187479686},{"NoteNumber":71,"Velocity":42,"Duration":895521,"SoundDuration":895521,"Delta":187736639},{"NoteNumber":76,"Velocity":42,"Duration":895521,"SoundDuration":895521,"Delta":187736639},{"NoteNumber":80,"Velocity":55,"Duration":895521,"SoundDuration":895521,"Delta":187736639},{"NoteNumber":68,"Velocity":39,"Duration":895521,"SoundDuration":895521,"Delta":187736639},{"NoteNumber":64,"Velocity":33,"Duration":895521,"SoundDuration":895521,"Delta":187736639},{"NoteNumber":69,"Velocity":40,"Duration":437956,"SoundDuration":437956,"Delta":188632161},{"NoteNumber":75,"Velocity":40,"Duration":437956,"SoundDuration":437956,"Delta":188632161},{"NoteNumber":78,"Velocity":52,"Duration":437956,"SoundDuration":437956,"Delta":188632161},{"NoteNumber":66,"Velocity":35,"Duration":437956,"SoundDuration":437956,"Delta":188632161},{"NoteNumber":63,"Velocity":29,"Duration":437956,"SoundDuration":437956,"Delta":188632161},{"NoteNumber":59,"Velocity":29,"Duration":437956,"SoundDuration":437956,"Delta":188632161},{"NoteNumber":68,"Velocity":40,"Duration":455339,"SoundDuration":455339,"Delta":189070117},{"NoteNumber":73,"Velocity":40,"Duration":455339,"SoundDuration":455339,"Delta":189070117},{"NoteNumber":76,"Velocity":52,"Duration":455339,"SoundDuration":455339,"Delta":189070117},{"NoteNumber":64,"Velocity":35,"Duration":455339,"SoundDuration":455339,"Delta":189070117},{"NoteNumber":61,"Velocity":29,"Duration":455339,"SoundDuration":455339,"Delta":189070117},{"NoteNumber":66,"Velocity":42,"Duration":883262,"SoundDuration":883262,"Delta":189525456},{"NoteNumber":72,"Velocity":42,"Duration":883262,"SoundDuration":883262,"Delta":189525456},{"NoteNumber":75,"Velocity":55,"Duration":883262,"SoundDuration":883262,"Delta":189525456},{"NoteNumber":63,"Velocity":39,"Duration":883262,"SoundDuration":883262,"Delta":189525456},{"NoteNumber":60,"Velocity":33,"Duration":883262,"SoundDuration":883262,"Delta":189525456},{"NoteNumber":56,"Velocity":33,"Duration":883262,"SoundDuration":883262,"Delta":189525456},{"NoteNumber":64,"Velocity":40,"Duration":904130,"SoundDuration":904130,"Delta":190408718},{"NoteNumber":73,"Velocity":52,"Duration":904130,"SoundDuration":904130,"Delta":190408718},{"NoteNumber":61,"Velocity":34,"Duration":904130,"SoundDuration":904130,"Delta":190408718},{"NoteNumber":57,"Velocity":28,"Duration":904130,"SoundDuration":904130,"Delta":190408718},{"NoteNumber":69,"Velocity":49,"Duration":898876,"SoundDuration":898876,"Delta":191312848},{"NoteNumber":71,"Velocity":49,"Duration":898876,"SoundDuration":898876,"Delta":191312848},{"NoteNumber":75,"Velocity":63,"Duration":898876,"SoundDuration":898876,"Delta":191312848},{"NoteNumber":54,"Velocity":37,"Duration":898876,"SoundDuration":898876,"Delta":191312848},{"NoteNumber":57,"Velocity":45,"Duration":898876,"SoundDuration":898876,"Delta":191312848},{"NoteNumber":59,"Velocity":37,"Duration":898876,"SoundDuration":898876,"Delta":191312848},{"NoteNumber":63,"Velocity":45,"Duration":898876,"SoundDuration":898876,"Delta":191312848},{"NoteNumber":71,"Velocity":50,"Duration":459769,"SoundDuration":459769,"Delta":192211724},{"NoteNumber":76,"Velocity":66,"Duration":459769,"SoundDuration":459769,"Delta":192211724},{"NoteNumber":56,"Velocity":40,"Duration":459769,"SoundDuration":459769,"Delta":192211724},{"NoteNumber":59,"Velocity":40,"Duration":459769,"SoundDuration":459769,"Delta":192211724},{"NoteNumber":64,"Velocity":49,"Duration":459769,"SoundDuration":459769,"Delta":192211724},{"NoteNumber":73,"Velocity":49,"Duration":515020,"SoundDuration":515020,"Delta":192671494},{"NoteNumber":76,"Velocity":55,"Duration":515020,"SoundDuration":515020,"Delta":192671494},{"NoteNumber":78,"Velocity":72,"Duration":515020,"SoundDuration":515020,"Delta":192671494},{"NoteNumber":66,"Velocity":55,"Duration":515020,"SoundDuration":515020,"Delta":192671494},{"NoteNumber":57,"Velocity":42,"Duration":515020,"SoundDuration":515020,"Delta":192671494},{"NoteNumber":61,"Velocity":43,"Duration":515020,"SoundDuration":515020,"Delta":192671494},{"NoteNumber":71,"Velocity":59,"Duration":1416061,"SoundDuration":1416061,"Delta":193186515},{"NoteNumber":76,"Velocity":59,"Duration":930231,"SoundDuration":930231,"Delta":193186515},{"NoteNumber":80,"Velocity":77,"Duration":930231,"SoundDuration":930231,"Delta":193186515},{"NoteNumber":59,"Velocity":49,"Duration":1880319,"SoundDuration":1880319,"Delta":193186515},{"NoteNumber":64,"Velocity":49,"Duration":930231,"SoundDuration":930231,"Delta":193186515},{"NoteNumber":68,"Velocity":59,"Duration":930231,"SoundDuration":930231,"Delta":193186515},{"NoteNumber":75,"Velocity":32,"Duration":952029,"SoundDuration":952029,"Delta":194116747},{"NoteNumber":78,"Velocity":49,"Duration":952029,"SoundDuration":952029,"Delta":194116747},{"NoteNumber":63,"Velocity":27,"Duration":952029,"SoundDuration":952029,"Delta":194116747},{"NoteNumber":66,"Velocity":32,"Duration":952029,"SoundDuration":952029,"Delta":194116747},{"NoteNumber":69,"Velocity":48,"Duration":466199,"SoundDuration":466199,"Delta":194602577},{"NoteNumber":59,"Velocity":37,"Duration":879957,"SoundDuration":879957,"Delta":195068777},{"NoteNumber":64,"Velocity":37,"Duration":879957,"SoundDuration":879957,"Delta":195068777},{"NoteNumber":68,"Velocity":45,"Duration":879957,"SoundDuration":879957,"Delta":195068777},{"NoteNumber":56,"Velocity":35,"Duration":879957,"SoundDuration":879957,"Delta":195068777},{"NoteNumber":52,"Velocity":29,"Duration":879957,"SoundDuration":879957,"Delta":195068777},{"NoteNumber":57,"Velocity":36,"Duration":430322,"SoundDuration":430322,"Delta":195948735},{"NoteNumber":63,"Velocity":36,"Duration":430322,"SoundDuration":430322,"Delta":195948735},{"NoteNumber":66,"Velocity":43,"Duration":430322,"SoundDuration":430322,"Delta":195948735},{"NoteNumber":54,"Velocity":31,"Duration":430322,"SoundDuration":430322,"Delta":195948735},{"NoteNumber":51,"Velocity":26,"Duration":430322,"SoundDuration":430322,"Delta":195948735},{"NoteNumber":47,"Velocity":26,"Duration":430322,"SoundDuration":430322,"Delta":195948735},{"NoteNumber":56,"Velocity":36,"Duration":455339,"SoundDuration":455339,"Delta":196379058},{"NoteNumber":61,"Velocity":36,"Duration":455339,"SoundDuration":455339,"Delta":196379058},{"NoteNumber":64,"Velocity":43,"Duration":455339,"SoundDuration":455339,"Delta":196379058},{"NoteNumber":52,"Velocity":31,"Duration":455339,"SoundDuration":455339,"Delta":196379058},{"NoteNumber":49,"Velocity":26,"Duration":455339,"SoundDuration":455339,"Delta":196379058},{"NoteNumber":54,"Velocity":37,"Duration":883262,"SoundDuration":883262,"Delta":196834397},{"NoteNumber":60,"Velocity":37,"Duration":883262,"SoundDuration":883262,"Delta":196834397},{"NoteNumber":63,"Velocity":45,"Duration":883262,"SoundDuration":883262,"Delta":196834397},{"NoteNumber":51,"Velocity":35,"Duration":883262,"SoundDuration":883262,"Delta":196834397},{"NoteNumber":48,"Velocity":29,"Duration":883262,"SoundDuration":883262,"Delta":196834397},{"NoteNumber":44,"Velocity":29,"Duration":883262,"SoundDuration":883262,"Delta":196834397},{"NoteNumber":57,"Velocity":36,"Duration":904130,"SoundDuration":904130,"Delta":197717659},{"NoteNumber":52,"Velocity":36,"Duration":904130,"SoundDuration":904130,"Delta":197717659},{"NoteNumber":61,"Velocity":43,"Duration":904130,"SoundDuration":904130,"Delta":197717659},{"NoteNumber":49,"Velocity":30,"Duration":904130,"SoundDuration":904130,"Delta":197717659},{"NoteNumber":45,"Velocity":25,"Duration":904130,"SoundDuration":904130,"Delta":197717659},{"NoteNumber":52,"Velocity":44,"Duration":444972,"SoundDuration":444972,"Delta":198621789},{"NoteNumber":56,"Velocity":44,"Duration":444972,"SoundDuration":444972,"Delta":198621789},{"NoteNumber":59,"Velocity":52,"Duration":889944,"SoundDuration":889944,"Delta":198621789},{"NoteNumber":35,"Velocity":33,"Duration":1785431,"SoundDuration":1785431,"Delta":198621789},{"NoteNumber":47,"Velocity":40,"Duration":1785431,"SoundDuration":1785431,"Delta":198621789},{"NoteNumber":54,"Velocity":49,"Duration":1340459,"SoundDuration":1340459,"Delta":199066761},{"NoteNumber":57,"Velocity":49,"Duration":1340459,"SoundDuration":1340459,"Delta":199066761},{"NoteNumber":61,"Velocity":61,"Duration":435098,"SoundDuration":435098,"Delta":199511733},{"NoteNumber":63,"Velocity":68,"Duration":460389,"SoundDuration":460389,"Delta":199946831},{"NoteNumber":56,"Velocity":42,"Duration":148698,"SoundDuration":148698,"Delta":200407221},{"NoteNumber":64,"Velocity":49,"Duration":111524,"SoundDuration":111524,"Delta":200407221},{"NoteNumber":40,"Velocity":42,"Duration":446097,"SoundDuration":446097,"Delta":200407221},{"NoteNumber":52,"Velocity":45,"Duration":446097,"SoundDuration":446097,"Delta":200407221},{"NoteNumber":66,"Velocity":48,"Duration":111524,"SoundDuration":111524,"Delta":200555920},{"NoteNumber":68,"Velocity":49,"Duration":111524,"SoundDuration":111524,"Delta":200704619},{"NoteNumber":69,"Velocity":46,"Duration":111110,"SoundDuration":111110,"Delta":200853318},{"NoteNumber":71,"Velocity":47,"Duration":111110,"SoundDuration":111110,"Delta":201001466},{"NoteNumber":73,"Velocity":48,"Duration":111110,"SoundDuration":111110,"Delta":201149614},{"NoteNumber":74,"Velocity":50,"Duration":110701,"SoundDuration":110701,"Delta":201297762},{"NoteNumber":75,"Velocity":51,"Duration":110701,"SoundDuration":110701,"Delta":201445363},{"NoteNumber":76,"Velocity":52,"Duration":110701,"SoundDuration":110701,"Delta":201592965},{"NoteNumber":77,"Velocity":53,"Duration":110701,"SoundDuration":110701,"Delta":201740566},{"NoteNumber":78,"Velocity":51,"Duration":110701,"SoundDuration":110701,"Delta":201888167},{"NoteNumber":79,"Velocity":52,"Duration":110700,"SoundDuration":110700,"Delta":202035769},{"NoteNumber":71,"Velocity":46,"Duration":868244,"SoundDuration":868244,"Delta":202183370},{"NoteNumber":80,"Velocity":56,"Duration":144707,"SoundDuration":144707,"Delta":202183370},{"NoteNumber":68,"Velocity":43,"Duration":868244,"SoundDuration":868244,"Delta":202183370},{"NoteNumber":64,"Velocity":36,"Duration":868244,"SoundDuration":868244,"Delta":202183370},{"NoteNumber":79,"Velocity":53,"Duration":144707,"SoundDuration":144707,"Delta":202328077},{"NoteNumber":80,"Velocity":53,"Duration":144707,"SoundDuration":144707,"Delta":202472785},{"NoteNumber":81,"Velocity":53,"Duration":144707,"SoundDuration":144707,"Delta":202617492},{"NoteNumber":79,"Velocity":53,"Duration":144707,"SoundDuration":144707,"Delta":202762199},{"NoteNumber":80,"Velocity":53,"Duration":144707,"SoundDuration":144707,"Delta":202906907},{"NoteNumber":69,"Velocity":60,"Duration":424598,"SoundDuration":424598,"Delta":203051614},{"NoteNumber":66,"Velocity":39,"Duration":424598,"SoundDuration":424598,"Delta":203051614},{"NoteNumber":63,"Velocity":32,"Duration":424598,"SoundDuration":424598,"Delta":203051614},{"NoteNumber":59,"Velocity":32,"Duration":424598,"SoundDuration":424598,"Delta":203051614},{"NoteNumber":80,"Velocity":54,"Duration":141532,"SoundDuration":141532,"Delta":203193147},{"NoteNumber":78,"Velocity":54,"Duration":141532,"SoundDuration":141532,"Delta":203334679},{"NoteNumber":68,"Velocity":60,"Duration":449270,"SoundDuration":449270,"Delta":203476212},{"NoteNumber":64,"Velocity":39,"Duration":449270,"SoundDuration":449270,"Delta":203476212},{"NoteNumber":61,"Velocity":32,"Duration":449270,"SoundDuration":449270,"Delta":203476212},{"NoteNumber":78,"Velocity":53,"Duration":149756,"SoundDuration":149756,"Delta":203625969},{"NoteNumber":76,"Velocity":53,"Duration":149756,"SoundDuration":149756,"Delta":203775725},{"NoteNumber":66,"Velocity":60,"Duration":871521,"SoundDuration":871521,"Delta":203925482},{"NoteNumber":63,"Velocity":43,"Duration":871521,"SoundDuration":871521,"Delta":203925482},{"NoteNumber":60,"Velocity":36,"Duration":871521,"SoundDuration":871521,"Delta":203925482},{"NoteNumber":56,"Velocity":36,"Duration":871521,"SoundDuration":871521,"Delta":203925482},{"NoteNumber":72,"Velocity":54,"Duration":145253,"SoundDuration":145253,"Delta":204070736},{"NoteNumber":75,"Velocity":54,"Duration":145253,"SoundDuration":145253,"Delta":204215989},{"NoteNumber":76,"Velocity":54,"Duration":145253,"SoundDuration":145253,"Delta":204361243},{"NoteNumber":72,"Velocity":54,"Duration":145253,"SoundDuration":145253,"Delta":204506497},{"NoteNumber":75,"Velocity":54,"Duration":145253,"SoundDuration":145253,"Delta":204651750},{"NoteNumber":64,"Velocity":60,"Duration":892104,"SoundDuration":892104,"Delta":204797004},{"NoteNumber":61,"Velocity":38,"Duration":892104,"SoundDuration":892104,"Delta":204797004},{"NoteNumber":57,"Velocity":31,"Duration":892104,"SoundDuration":892104,"Delta":204797004},{"NoteNumber":69,"Velocity":54,"Duration":145253,"SoundDuration":145253,"Delta":204942258},{"NoteNumber":73,"Velocity":54,"Duration":145253,"SoundDuration":145253,"Delta":205087511},{"NoteNumber":75,"Velocity":54,"Duration":152114,"SoundDuration":152114,"Delta":205232765},{"NoteNumber":69,"Velocity":54,"Duration":152114,"SoundDuration":152114,"Delta":205384879},{"NoteNumber":73,"Velocity":54,"Duration":152114,"SoundDuration":152114,"Delta":205536994},{"NoteNumber":69,"Velocity":62,"Duration":878092,"SoundDuration":878092,"Delta":205689108},{"NoteNumber":54,"Velocity":39,"Duration":878092,"SoundDuration":878092,"Delta":205689108},{"NoteNumber":57,"Velocity":47,"Duration":878092,"SoundDuration":878092,"Delta":205689108},{"NoteNumber":59,"Velocity":39,"Duration":878092,"SoundDuration":878092,"Delta":205689108},{"NoteNumber":63,"Velocity":47,"Duration":878092,"SoundDuration":878092,"Delta":205689108},{"NoteNumber":74,"Velocity":62,"Duration":146348,"SoundDuration":146348,"Delta":205835457},{"NoteNumber":75,"Velocity":57,"Duration":146348,"SoundDuration":146348,"Delta":205981805},{"NoteNumber":76,"Velocity":57,"Duration":146348,"SoundDuration":146348,"Delta":206128154},{"NoteNumber":74,"Velocity":59,"Duration":146348,"SoundDuration":146348,"Delta":206274503},{"NoteNumber":75,"Velocity":59,"Duration":146348,"SoundDuration":146348,"Delta":206420851},{"NoteNumber":71,"Velocity":71,"Duration":429306,"SoundDuration":429306,"Delta":206567200},{"NoteNumber":56,"Velocity":45,"Duration":429306,"SoundDuration":429306,"Delta":206567200},{"NoteNumber":59,"Velocity":45,"Duration":429306,"SoundDuration":429306,"Delta":206567200},{"NoteNumber":64,"Velocity":53,"Duration":429306,"SoundDuration":429306,"Delta":206567200},{"NoteNumber":78,"Velocity":63,"Duration":143102,"SoundDuration":143102,"Delta":206710302},{"NoteNumber":76,"Velocity":64,"Duration":143102,"SoundDuration":143102,"Delta":206853405},{"NoteNumber":73,"Velocity":74,"Duration":454544,"SoundDuration":454544,"Delta":206996507},{"NoteNumber":66,"Velocity":59,"Duration":454544,"SoundDuration":454544,"Delta":206996507},{"NoteNumber":57,"Velocity":49,"Duration":454544,"SoundDuration":454544,"Delta":206996507},{"NoteNumber":61,"Velocity":49,"Duration":454544,"SoundDuration":454544,"Delta":206996507},{"NoteNumber":80,"Velocity":65,"Duration":151515,"SoundDuration":151515,"Delta":207148022},{"NoteNumber":78,"Velocity":65,"Duration":151514,"SoundDuration":151514,"Delta":207299537},{"NoteNumber":80,"Velocity":79,"Duration":145253,"SoundDuration":145253,"Delta":207451052},{"NoteNumber":76,"Velocity":79,"Duration":871521,"SoundDuration":871521,"Delta":207451052},{"NoteNumber":59,"Velocity":53,"Duration":1770310,"SoundDuration":1770310,"Delta":207451052},{"NoteNumber":64,"Velocity":53,"Duration":871521,"SoundDuration":871521,"Delta":207451052},{"NoteNumber":68,"Velocity":65,"Duration":871521,"SoundDuration":871521,"Delta":207451052},{"NoteNumber":79,"Velocity":72,"Duration":145253,"SoundDuration":145253,"Delta":207596306},{"NoteNumber":80,"Velocity":72,"Duration":145253,"SoundDuration":145253,"Delta":207741559},{"NoteNumber":83,"Velocity":68,"Duration":145253,"SoundDuration":145253,"Delta":207886813},{"NoteNumber":81,"Velocity":72,"Duration":145253,"SoundDuration":145253,"Delta":208032067},{"NoteNumber":80,"Velocity":69,"Duration":145253,"SoundDuration":145253,"Delta":208177320},{"NoteNumber":75,"Velocity":67,"Duration":146907,"SoundDuration":146907,"Delta":208322574},{"NoteNumber":78,"Velocity":67,"Duration":146907,"SoundDuration":146907,"Delta":208322574},{"NoteNumber":63,"Velocity":45,"Duration":440722,"SoundDuration":440722,"Delta":208322574},{"NoteNumber":66,"Velocity":53,"Duration":440722,"SoundDuration":440722,"Delta":208322574},{"NoteNumber":73,"Velocity":64,"Duration":146907,"SoundDuration":146907,"Delta":208469482},{"NoteNumber":76,"Velocity":64,"Duration":146907,"SoundDuration":146907,"Delta":208469482},{"NoteNumber":75,"Velocity":60,"Duration":146907,"SoundDuration":146907,"Delta":208616389},{"NoteNumber":71,"Velocity":60,"Duration":146907,"SoundDuration":146907,"Delta":208616389},{"NoteNumber":69,"Velocity":60,"Duration":153327,"SoundDuration":153327,"Delta":208763297},{"NoteNumber":73,"Velocity":60,"Duration":153327,"SoundDuration":153327,"Delta":208763297},{"NoteNumber":47,"Velocity":44,"Duration":153327,"SoundDuration":153327,"Delta":208763297},{"NoteNumber":68,"Velocity":56,"Duration":153327,"SoundDuration":153327,"Delta":208916624},{"NoteNumber":71,"Velocity":56,"Duration":153327,"SoundDuration":153327,"Delta":208916624},{"NoteNumber":49,"Velocity":43,"Duration":153327,"SoundDuration":153327,"Delta":208916624},{"NoteNumber":66,"Velocity":53,"Duration":153327,"SoundDuration":153327,"Delta":209069952},{"NoteNumber":69,"Velocity":53,"Duration":153327,"SoundDuration":153327,"Delta":209069952},{"NoteNumber":51,"Velocity":41,"Duration":153327,"SoundDuration":153327,"Delta":209069952},{"NoteNumber":59,"Velocity":57,"Duration":879120,"SoundDuration":879120,"Delta":209223279},{"NoteNumber":68,"Velocity":57,"Duration":146520,"SoundDuration":146520,"Delta":209223279},{"NoteNumber":56,"Velocity":45,"Duration":879120,"SoundDuration":879120,"Delta":209223279},{"NoteNumber":52,"Velocity":37,"Duration":879120,"SoundDuration":879120,"Delta":209223279},{"NoteNumber":67,"Velocity":49,"Duration":146519,"SoundDuration":146519,"Delta":209369799},{"NoteNumber":68,"Velocity":49,"Duration":146520,"SoundDuration":146520,"Delta":209516319},{"NoteNumber":69,"Velocity":49,"Duration":146520,"SoundDuration":146520,"Delta":209662839},{"NoteNumber":67,"Velocity":49,"Duration":146519,"SoundDuration":146519,"Delta":209809359},{"NoteNumber":68,"Velocity":49,"Duration":146520,"SoundDuration":146520,"Delta":209955879},{"NoteNumber":57,"Velocity":56,"Duration":428571,"SoundDuration":428571,"Delta":210102399},{"NoteNumber":54,"Velocity":41,"Duration":428571,"SoundDuration":428571,"Delta":210102399},{"NoteNumber":51,"Velocity":33,"Duration":428571,"SoundDuration":428571,"Delta":210102399},{"NoteNumber":47,"Velocity":33,"Duration":428571,"SoundDuration":428571,"Delta":210102399},{"NoteNumber":68,"Velocity":50,"Duration":142857,"SoundDuration":142857,"Delta":210245256},{"NoteNumber":66,"Velocity":50,"Duration":142856,"SoundDuration":142856,"Delta":210388113},{"NoteNumber":56,"Velocity":56,"Duration":449270,"SoundDuration":449270,"Delta":210530970},{"NoteNumber":52,"Velocity":41,"Duration":449270,"SoundDuration":449270,"Delta":210530970},{"NoteNumber":49,"Velocity":33,"Duration":449270,"SoundDuration":449270,"Delta":210530970},{"NoteNumber":66,"Velocity":49,"Duration":149756,"SoundDuration":149756,"Delta":210680727},{"NoteNumber":64,"Velocity":49,"Duration":149756,"SoundDuration":149756,"Delta":210830483},{"NoteNumber":51,"Velocity":37,"Duration":871521,"SoundDuration":871521,"Delta":210980240},{"NoteNumber":54,"Velocity":49,"Duration":871521,"SoundDuration":871521,"Delta":210980240},{"NoteNumber":48,"Velocity":37,"Duration":871521,"SoundDuration":871521,"Delta":210980240},{"NoteNumber":44,"Velocity":37,"Duration":871521,"SoundDuration":871521,"Delta":210980240},{"NoteNumber":60,"Velocity":50,"Duration":145253,"SoundDuration":145253,"Delta":211125494},{"NoteNumber":63,"Velocity":50,"Duration":145253,"SoundDuration":145253,"Delta":211270747},{"NoteNumber":64,"Velocity":53,"Duration":145253,"SoundDuration":145253,"Delta":211416001},{"NoteNumber":60,"Velocity":50,"Duration":145253,"SoundDuration":145253,"Delta":211561255},{"NoteNumber":63,"Velocity":50,"Duration":145253,"SoundDuration":145253,"Delta":211706508},{"NoteNumber":45,"Velocity":39,"Duration":892104,"SoundDuration":892104,"Delta":211851762},{"NoteNumber":49,"Velocity":39,"Duration":892104,"SoundDuration":892104,"Delta":211851762},{"NoteNumber":52,"Velocity":32,"Duration":892104,"SoundDuration":892104,"Delta":211851762},{"NoteNumber":57,"Velocity":50,"Duration":145253,"SoundDuration":145253,"Delta":211997016},{"NoteNumber":61,"Velocity":50,"Duration":145253,"SoundDuration":145253,"Delta":212142269},{"NoteNumber":63,"Velocity":53,"Duration":152114,"SoundDuration":152114,"Delta":212287523},{"NoteNumber":57,"Velocity":50,"Duration":152114,"SoundDuration":152114,"Delta":212439637},{"NoteNumber":61,"Velocity":50,"Duration":152114,"SoundDuration":152114,"Delta":212591752},{"NoteNumber":52,"Velocity":60,"Duration":447244,"SoundDuration":447244,"Delta":212743866},{"NoteNumber":35,"Velocity":46,"Duration":1812818,"SoundDuration":1812818,"Delta":212743866},{"NoteNumber":47,"Velocity":55,"Duration":1812818,"SoundDuration":1812818,"Delta":212743866},{"NoteNumber":56,"Velocity":56,"Duration":146348,"SoundDuration":146348,"Delta":212890215},{"NoteNumber":59,"Velocity":57,"Duration":154547,"SoundDuration":154547,"Delta":213036563},{"NoteNumber":54,"Velocity":66,"Duration":454429,"SoundDuration":454429,"Delta":213191111},{"NoteNumber":57,"Velocity":61,"Duration":148038,"SoundDuration":148038,"Delta":213339149},{"NoteNumber":59,"Velocity":61,"Duration":158353,"SoundDuration":158353,"Delta":213487188},{"NoteNumber":54,"Velocity":74,"Duration":455846,"SoundDuration":455846,"Delta":213645541},{"NoteNumber":57,"Velocity":67,"Duration":149756,"SoundDuration":149756,"Delta":213797083},{"NoteNumber":61,"Velocity":65,"Duration":154547,"SoundDuration":154547,"Delta":213946839},{"NoteNumber":54,"Velocity":80,"Duration":455297,"SoundDuration":455297,"Delta":214101387},{"NoteNumber":57,"Velocity":71,"Duration":150341,"SoundDuration":150341,"Delta":214251729},{"NoteNumber":63,"Velocity":70,"Duration":154613,"SoundDuration":154613,"Delta":214402071},{"NoteNumber":56,"Velocity":77,"Duration":144404,"SoundDuration":144404,"Delta":214556684},{"NoteNumber":64,"Velocity":82,"Duration":144404,"SoundDuration":144404,"Delta":214556684},{"NoteNumber":40,"Velocity":50,"Duration":433212,"SoundDuration":433212,"Delta":214556684},{"NoteNumber":52,"Velocity":60,"Duration":433212,"SoundDuration":433212,"Delta":214556684},{"NoteNumber":59,"Velocity":75,"Duration":144404,"SoundDuration":144404,"Delta":214701088},{"NoteNumber":56,"Velocity":77,"Duration":144404,"SoundDuration":144404,"Delta":214845493},{"NoteNumber":59,"Velocity":82,"Duration":144404,"SoundDuration":144404,"Delta":214989897},{"NoteNumber":47,"Velocity":74,"Duration":868673,"SoundDuration":868673,"Delta":214989897},{"NoteNumber":64,"Velocity":77,"Duration":144404,"SoundDuration":144404,"Delta":215134301},{"NoteNumber":68,"Velocity":77,"Duration":149756,"SoundDuration":149756,"Delta":215278706},{"NoteNumber":66,"Velocity":82,"Duration":143369,"SoundDuration":143369,"Delta":215428462},{"NoteNumber":63,"Velocity":77,"Duration":143369,"SoundDuration":143369,"Delta":215571832},{"NoteNumber":59,"Velocity":77,"Duration":143369,"SoundDuration":143369,"Delta":215715201},{"NoteNumber":63,"Velocity":82,"Duration":143369,"SoundDuration":143369,"Delta":215858570},{"NoteNumber":47,"Velocity":74,"Duration":864126,"SoundDuration":864126,"Delta":215858570},{"NoteNumber":66,"Velocity":77,"Duration":143369,"SoundDuration":143369,"Delta":216001940},{"NoteNumber":69,"Velocity":77,"Duration":150342,"SoundDuration":150342,"Delta":216145309},{"NoteNumber":68,"Velocity":82,"Duration":142348,"SoundDuration":142348,"Delta":216295651},{"NoteNumber":64,"Velocity":75,"Duration":142348,"SoundDuration":142348,"Delta":216438000},{"NoteNumber":59,"Velocity":77,"Duration":142348,"SoundDuration":142348,"Delta":216580348},{"NoteNumber":64,"Velocity":82,"Duration":142348,"SoundDuration":142348,"Delta":216722697},{"NoteNumber":47,"Velocity":74,"Duration":865749,"SoundDuration":865749,"Delta":216722697},{"NoteNumber":68,"Velocity":77,"Duration":142348,"SoundDuration":142348,"Delta":216865046},{"NoteNumber":71,"Velocity":77,"Duration":149756,"SoundDuration":149756,"Delta":217007394},{"NoteNumber":69,"Velocity":82,"Duration":141342,"SoundDuration":141342,"Delta":217157151},{"NoteNumber":66,"Velocity":77,"Duration":141342,"SoundDuration":141342,"Delta":217298494},{"NoteNumber":63,"Velocity":77,"Duration":148610,"SoundDuration":148610,"Delta":217439836},{"NoteNumber":75,"Velocity":82,"Duration":142572,"SoundDuration":142572,"Delta":217588447},{"NoteNumber":47,"Velocity":73,"Duration":427716,"SoundDuration":427716,"Delta":217588447},{"NoteNumber":69,"Velocity":77,"Duration":142572,"SoundDuration":142572,"Delta":217731019},{"NoteNumber":66,"Velocity":77,"Duration":142572,"SoundDuration":142572,"Delta":217873591},{"NoteNumber":68,"Velocity":63,"Duration":422535,"SoundDuration":422535,"Delta":218016163},{"NoteNumber":76,"Velocity":75,"Duration":422535,"SoundDuration":422535,"Delta":218016163},{"NoteNumber":52,"Velocity":73,"Duration":140845,"SoundDuration":140845,"Delta":218016163},{"NoteNumber":47,"Velocity":67,"Duration":140844,"SoundDuration":140844,"Delta":218157008},{"NoteNumber":44,"Velocity":69,"Duration":140845,"SoundDuration":140845,"Delta":218297853},{"NoteNumber":71,"Velocity":80,"Duration":854129,"SoundDuration":854129,"Delta":218438698},{"NoteNumber":47,"Velocity":73,"Duration":140844,"SoundDuration":140844,"Delta":218438698},{"NoteNumber":52,"Velocity":69,"Duration":140844,"SoundDuration":140844,"Delta":218579543},{"NoteNumber":56,"Velocity":69,"Duration":146907,"SoundDuration":146907,"Delta":218720388},{"NoteNumber":54,"Velocity":73,"Duration":141843,"SoundDuration":141843,"Delta":218867295},{"NoteNumber":51,"Velocity":69,"Duration":141844,"SoundDuration":141844,"Delta":219009139},{"NoteNumber":47,"Velocity":69,"Duration":141843,"SoundDuration":141843,"Delta":219150983},{"NoteNumber":71,"Velocity":80,"Duration":856691,"SoundDuration":856691,"Delta":219292827},{"NoteNumber":51,"Velocity":73,"Duration":141843,"SoundDuration":141843,"Delta":219292827},{"NoteNumber":54,"Velocity":69,"Duration":141843,"SoundDuration":141843,"Delta":219434671},{"NoteNumber":57,"Velocity":69,"Duration":147471,"SoundDuration":147471,"Delta":219576515},{"NoteNumber":56,"Velocity":73,"Duration":141843,"SoundDuration":141843,"Delta":219723986},{"NoteNumber":52,"Velocity":67,"Duration":141844,"SoundDuration":141844,"Delta":219865830},{"NoteNumber":47,"Velocity":69,"Duration":141843,"SoundDuration":141843,"Delta":220007674},{"NoteNumber":71,"Velocity":80,"Duration":862885,"SoundDuration":862885,"Delta":220149518},{"NoteNumber":52,"Velocity":73,"Duration":141843,"SoundDuration":141843,"Delta":220149518},{"NoteNumber":56,"Velocity":69,"Duration":141843,"SoundDuration":141843,"Delta":220291362},{"NoteNumber":59,"Velocity":69,"Duration":147471,"SoundDuration":147471,"Delta":220433206},{"NoteNumber":57,"Velocity":73,"Duration":141843,"SoundDuration":141843,"Delta":220580677},{"NoteNumber":54,"Velocity":69,"Duration":141843,"SoundDuration":141843,"Delta":220722521},{"NoteNumber":51,"Velocity":69,"Duration":148038,"SoundDuration":148038,"Delta":220864365},{"NoteNumber":71,"Velocity":80,"Duration":430723,"SoundDuration":430723,"Delta":221012404},{"NoteNumber":63,"Velocity":73,"Duration":141342,"SoundDuration":141342,"Delta":221012404},{"NoteNumber":57,"Velocity":69,"Duration":141342,"SoundDuration":141342,"Delta":221153746},{"NoteNumber":54,"Velocity":69,"Duration":148038,"SoundDuration":148038,"Delta":221295089},{"NoteNumber":76,"Velocity":82,"Duration":140845,"SoundDuration":140845,"Delta":221443127},{"NoteNumber":56,"Velocity":64,"Duration":140845,"SoundDuration":140845,"Delta":221443127},{"NoteNumber":71,"Velocity":75,"Duration":140844,"SoundDuration":140844,"Delta":221583972},{"NoteNumber":59,"Velocity":56,"Duration":140844,"SoundDuration":140844,"Delta":221583972},{"NoteNumber":68,"Velocity":77,"Duration":140845,"SoundDuration":140845,"Delta":221724817},{"NoteNumber":64,"Velocity":56,"Duration":140845,"SoundDuration":140845,"Delta":221724817},{"NoteNumber":71,"Velocity":82,"Duration":140844,"SoundDuration":140844,"Delta":221865662},{"NoteNumber":59,"Velocity":64,"Duration":140844,"SoundDuration":140844,"Delta":221865662},{"NoteNumber":76,"Velocity":77,"Duration":140844,"SoundDuration":140844,"Delta":222006507},{"NoteNumber":56,"Velocity":57,"Duration":140844,"SoundDuration":140844,"Delta":222006507},{"NoteNumber":80,"Velocity":77,"Duration":146907,"SoundDuration":146907,"Delta":222147352},{"NoteNumber":52,"Velocity":57,"Duration":146907,"SoundDuration":146907,"Delta":222147352},{"NoteNumber":78,"Velocity":82,"Duration":140845,"SoundDuration":140845,"Delta":222294260},{"NoteNumber":51,"Velocity":64,"Duration":140845,"SoundDuration":140845,"Delta":222294260},{"NoteNumber":75,"Velocity":77,"Duration":140844,"SoundDuration":140844,"Delta":222435105},{"NoteNumber":54,"Velocity":56,"Duration":140844,"SoundDuration":140844,"Delta":222435105},{"NoteNumber":71,"Velocity":77,"Duration":140845,"SoundDuration":140845,"Delta":222575950},{"NoteNumber":57,"Velocity":56,"Duration":140845,"SoundDuration":140845,"Delta":222575950},{"NoteNumber":75,"Velocity":82,"Duration":140844,"SoundDuration":140844,"Delta":222716795},{"NoteNumber":54,"Velocity":64,"Duration":140844,"SoundDuration":140844,"Delta":222716795},{"NoteNumber":78,"Velocity":77,"Duration":140844,"SoundDuration":140844,"Delta":222857640},{"NoteNumber":51,"Velocity":57,"Duration":140844,"SoundDuration":140844,"Delta":222857640},{"NoteNumber":81,"Velocity":77,"Duration":146348,"SoundDuration":146348,"Delta":222998485},{"NoteNumber":47,"Velocity":58,"Duration":146348,"SoundDuration":146348,"Delta":222998485},{"NoteNumber":80,"Velocity":82,"Duration":139859,"SoundDuration":139859,"Delta":223144834},{"NoteNumber":52,"Velocity":64,"Duration":139859,"SoundDuration":139859,"Delta":223150079},{"NoteNumber":76,"Velocity":75,"Duration":139859,"SoundDuration":139859,"Delta":223284694},{"NoteNumber":56,"Velocity":56,"Duration":139859,"SoundDuration":139859,"Delta":223284694},{"NoteNumber":71,"Velocity":77,"Duration":139859,"SoundDuration":139859,"Delta":223424554},{"NoteNumber":59,"Velocity":56,"Duration":139859,"SoundDuration":139859,"Delta":223424554},{"NoteNumber":76,"Velocity":82,"Duration":139859,"SoundDuration":139859,"Delta":223564414},{"NoteNumber":56,"Velocity":64,"Duration":139859,"SoundDuration":139859,"Delta":223564414},{"NoteNumber":80,"Velocity":77,"Duration":139859,"SoundDuration":139859,"Delta":223704274},{"NoteNumber":52,"Velocity":57,"Duration":139859,"SoundDuration":139859,"Delta":223704274},{"NoteNumber":83,"Velocity":77,"Duration":155171,"SoundDuration":155171,"Delta":223844134},{"NoteNumber":47,"Velocity":57,"Duration":154615,"SoundDuration":154615,"Delta":223849953},{"NoteNumber":81,"Velocity":82,"Duration":140351,"SoundDuration":140351,"Delta":223999305},{"NoteNumber":51,"Velocity":64,"Duration":140351,"SoundDuration":140351,"Delta":223999305},{"NoteNumber":78,"Velocity":77,"Duration":140350,"SoundDuration":140350,"Delta":224139656},{"NoteNumber":57,"Velocity":56,"Duration":140350,"SoundDuration":140350,"Delta":224139656},{"NoteNumber":75,"Velocity":77,"Duration":153327,"SoundDuration":153327,"Delta":224280007},{"NoteNumber":59,"Velocity":56,"Duration":152822,"SoundDuration":152822,"Delta":224285757},{"NoteNumber":87,"Velocity":82,"Duration":139859,"SoundDuration":139859,"Delta":224433334},{"NoteNumber":57,"Velocity":64,"Duration":139859,"SoundDuration":139859,"Delta":224433334},{"NoteNumber":81,"Velocity":77,"Duration":139859,"SoundDuration":139859,"Delta":224573194},{"NoteNumber":59,"Velocity":57,"Duration":139859,"SoundDuration":139859,"Delta":224573194},{"NoteNumber":78,"Velocity":77,"Duration":139859,"SoundDuration":139859,"Delta":224713054},{"NoteNumber":66,"Velocity":58,"Duration":139859,"SoundDuration":139859,"Delta":224713054},{"NoteNumber":88,"Velocity":86,"Duration":209058,"SoundDuration":209058,"Delta":224852914},{"NoteNumber":56,"Velocity":64,"Duration":139372,"SoundDuration":139372,"Delta":224852914},{"NoteNumber":83,"Velocity":74,"Duration":139372,"SoundDuration":139372,"Delta":224992287},{"NoteNumber":59,"Velocity":55,"Duration":139372,"SoundDuration":139372,"Delta":224992287},{"NoteNumber":80,"Velocity":74,"Duration":139372,"SoundDuration":139372,"Delta":225131659},{"NoteNumber":64,"Velocity":55,"Duration":139372,"SoundDuration":139372,"Delta":225131659},{"NoteNumber":83,"Velocity":82,"Duration":209058,"SoundDuration":209058,"Delta":225271032},{"NoteNumber":52,"Velocity":62,"Duration":139372,"SoundDuration":139372,"Delta":225271032},{"NoteNumber":80,"Velocity":73,"Duration":139372,"SoundDuration":139372,"Delta":225410405},{"NoteNumber":56,"Velocity":55,"Duration":139372,"SoundDuration":139372,"Delta":225410405},{"NoteNumber":76,"Velocity":72,"Duration":146348,"SoundDuration":146348,"Delta":225549777},{"NoteNumber":59,"Velocity":54,"Duration":146348,"SoundDuration":146348,"Delta":225549777},{"NoteNumber":81,"Velocity":79,"Duration":208333,"SoundDuration":208333,"Delta":225696126},{"NoteNumber":54,"Velocity":59,"Duration":138889,"SoundDuration":138889,"Delta":225696126},{"NoteNumber":78,"Velocity":71,"Duration":138889,"SoundDuration":138889,"Delta":225835015},{"NoteNumber":57,"Velocity":51,"Duration":138889,"SoundDuration":138889,"Delta":225835015},{"NoteNumber":75,"Velocity":70,"Duration":138888,"SoundDuration":138888,"Delta":225973904},{"NoteNumber":59,"Velocity":51,"Duration":138888,"SoundDuration":138888,"Delta":225973904},{"NoteNumber":87,"Velocity":76,"Duration":208333,"SoundDuration":208333,"Delta":226112793},{"NoteNumber":57,"Velocity":57,"Duration":138889,"SoundDuration":138889,"Delta":226112793},{"NoteNumber":83,"Velocity":69,"Duration":138888,"SoundDuration":138888,"Delta":226251682},{"NoteNumber":59,"Velocity":51,"Duration":138888,"SoundDuration":138888,"Delta":226251682},{"NoteNumber":78,"Velocity":67,"Duration":154547,"SoundDuration":154547,"Delta":226390571},{"NoteNumber":66,"Velocity":51,"Duration":154547,"SoundDuration":154547,"Delta":226390571},{"NoteNumber":88,"Velocity":75,"Duration":208333,"SoundDuration":208333,"Delta":226545119},{"NoteNumber":56,"Velocity":56,"Duration":138889,"SoundDuration":138889,"Delta":226545119},{"NoteNumber":83,"Velocity":65,"Duration":138889,"SoundDuration":138889,"Delta":226684008},{"NoteNumber":59,"Velocity":48,"Duration":138889,"SoundDuration":138889,"Delta":226684008},{"NoteNumber":80,"Velocity":65,"Duration":138888,"SoundDuration":138888,"Delta":226822897},{"NoteNumber":64,"Velocity":48,"Duration":138888,"SoundDuration":138888,"Delta":226822897},{"NoteNumber":83,"Velocity":72,"Duration":208333,"SoundDuration":208333,"Delta":226961786},{"NoteNumber":52,"Velocity":54,"Duration":138889,"SoundDuration":138889,"Delta":226961786},{"NoteNumber":80,"Velocity":64,"Duration":138888,"SoundDuration":138888,"Delta":227100675},{"NoteNumber":56,"Velocity":48,"Duration":138888,"SoundDuration":138888,"Delta":227100675},{"NoteNumber":76,"Velocity":63,"Duration":146907,"SoundDuration":146907,"Delta":227239564},{"NoteNumber":59,"Velocity":47,"Duration":146907,"SoundDuration":146907,"Delta":227239564},{"NoteNumber":81,"Velocity":69,"Duration":206896,"SoundDuration":206896,"Delta":227386471},{"NoteNumber":54,"Velocity":51,"Duration":137931,"SoundDuration":137931,"Delta":227386471},{"NoteNumber":78,"Velocity":62,"Duration":137930,"SoundDuration":137930,"Delta":227524402},{"NoteNumber":57,"Velocity":44,"Duration":137930,"SoundDuration":137930,"Delta":227524402},{"NoteNumber":75,"Velocity":60,"Duration":137931,"SoundDuration":137931,"Delta":227662333},{"NoteNumber":59,"Velocity":44,"Duration":137931,"SoundDuration":137931,"Delta":227662333},{"NoteNumber":87,"Velocity":69,"Duration":206896,"SoundDuration":206896,"Delta":227800264},{"NoteNumber":57,"Velocity":50,"Duration":137931,"SoundDuration":137931,"Delta":227800264},{"NoteNumber":83,"Velocity":59,"Duration":137930,"SoundDuration":137930,"Delta":227938195},{"NoteNumber":59,"Velocity":44,"Duration":137930,"SoundDuration":137930,"Delta":227938195},{"NoteNumber":78,"Velocity":58,"Duration":154547,"SoundDuration":154547,"Delta":228076126},{"NoteNumber":66,"Velocity":44,"Duration":154547,"SoundDuration":154547,"Delta":228076126},{"NoteNumber":88,"Velocity":64,"Duration":103490,"SoundDuration":103490,"Delta":228230674},{"NoteNumber":56,"Velocity":50,"Duration":103490,"SoundDuration":103490,"Delta":228230674},{"NoteNumber":83,"Velocity":58,"Duration":103306,"SoundDuration":103306,"Delta":228334165},{"NoteNumber":59,"Velocity":43,"Duration":103306,"SoundDuration":103306,"Delta":228334165},{"NoteNumber":80,"Velocity":58,"Duration":103061,"SoundDuration":103061,"Delta":228437471},{"NoteNumber":52,"Velocity":43,"Duration":103061,"SoundDuration":103061,"Delta":228437471},{"NoteNumber":76,"Velocity":59,"Duration":102760,"SoundDuration":102760,"Delta":228540532},{"NoteNumber":59,"Velocity":44,"Duration":102760,"SoundDuration":102760,"Delta":228540532},{"NoteNumber":81,"Velocity":65,"Duration":102456,"SoundDuration":102456,"Delta":228643293},{"NoteNumber":54,"Velocity":51,"Duration":102456,"SoundDuration":102456,"Delta":228643293},{"NoteNumber":78,"Velocity":59,"Duration":102215,"SoundDuration":102215,"Delta":228745750},{"NoteNumber":59,"Velocity":44,"Duration":102215,"SoundDuration":102215,"Delta":228745750},{"NoteNumber":87,"Velocity":62,"Duration":101974,"SoundDuration":101974,"Delta":228847965},{"NoteNumber":57,"Velocity":44,"Duration":101974,"SoundDuration":101974,"Delta":228847965},{"NoteNumber":83,"Velocity":63,"Duration":101674,"SoundDuration":101674,"Delta":228949939},{"NoteNumber":59,"Velocity":44,"Duration":101674,"SoundDuration":101674,"Delta":228949939},{"NoteNumber":88,"Velocity":69,"Duration":101382,"SoundDuration":101382,"Delta":229051613},{"NoteNumber":56,"Velocity":52,"Duration":101382,"SoundDuration":101382,"Delta":229051613},{"NoteNumber":83,"Velocity":63,"Duration":101323,"SoundDuration":101323,"Delta":229152996},{"NoteNumber":59,"Velocity":46,"Duration":101323,"SoundDuration":101323,"Delta":229152996},{"NoteNumber":80,"Velocity":63,"Duration":101324,"SoundDuration":101324,"Delta":229254320},{"NoteNumber":52,"Velocity":47,"Duration":101324,"SoundDuration":101324,"Delta":229254320},{"NoteNumber":76,"Velocity":64,"Duration":101324,"SoundDuration":101324,"Delta":229355644},{"NoteNumber":59,"Velocity":49,"Duration":101324,"SoundDuration":101324,"Delta":229355644},{"NoteNumber":81,"Velocity":71,"Duration":101324,"SoundDuration":101324,"Delta":229456968},{"NoteNumber":54,"Velocity":55,"Duration":101324,"SoundDuration":101324,"Delta":229456968},{"NoteNumber":78,"Velocity":66,"Duration":101324,"SoundDuration":101324,"Delta":229558292},{"NoteNumber":59,"Velocity":48,"Duration":101324,"SoundDuration":101324,"Delta":229558292},{"NoteNumber":87,"Velocity":67,"Duration":101324,"SoundDuration":101324,"Delta":229659616},{"NoteNumber":57,"Velocity":48,"Duration":101324,"SoundDuration":101324,"Delta":229659616},{"NoteNumber":83,"Velocity":67,"Duration":107897,"SoundDuration":107897,"Delta":229760940},{"NoteNumber":59,"Velocity":49,"Duration":107897,"SoundDuration":107897,"Delta":229760940},{"NoteNumber":88,"Velocity":74,"Duration":100616,"SoundDuration":100616,"Delta":229868837},{"NoteNumber":56,"Velocity":58,"Duration":100616,"SoundDuration":100616,"Delta":229868837},{"NoteNumber":83,"Velocity":67,"Duration":100442,"SoundDuration":100442,"Delta":229969454},{"NoteNumber":59,"Velocity":50,"Duration":100442,"SoundDuration":100442,"Delta":229969454},{"NoteNumber":87,"Velocity":69,"Duration":100267,"SoundDuration":100267,"Delta":230069896},{"NoteNumber":57,"Velocity":51,"Duration":100267,"SoundDuration":100267,"Delta":230069896},{"NoteNumber":83,"Velocity":69,"Duration":99983,"SoundDuration":99983,"Delta":230170164},{"NoteNumber":59,"Velocity":52,"Duration":99983,"SoundDuration":99983,"Delta":230170164},{"NoteNumber":88,"Velocity":77,"Duration":99869,"SoundDuration":99869,"Delta":230270147},{"NoteNumber":56,"Velocity":60,"Duration":99869,"SoundDuration":99869,"Delta":230270147},{"NoteNumber":83,"Velocity":77,"Duration":99581,"SoundDuration":99581,"Delta":230370016},{"NoteNumber":59,"Velocity":52,"Duration":99581,"SoundDuration":99581,"Delta":230370016},{"NoteNumber":87,"Velocity":72,"Duration":99410,"SoundDuration":99410,"Delta":230469598},{"NoteNumber":57,"Velocity":52,"Duration":99410,"SoundDuration":99410,"Delta":230469598},{"NoteNumber":83,"Velocity":73,"Duration":99239,"SoundDuration":99239,"Delta":230569009},{"NoteNumber":59,"Velocity":54,"Duration":99239,"SoundDuration":99239,"Delta":230569009},{"NoteNumber":88,"Velocity":80,"Duration":98898,"SoundDuration":98898,"Delta":230668248},{"NoteNumber":56,"Velocity":62,"Duration":98898,"SoundDuration":98898,"Delta":230668248},{"NoteNumber":83,"Velocity":73,"Duration":98899,"SoundDuration":98899,"Delta":230767147},{"NoteNumber":59,"Velocity":55,"Duration":98899,"SoundDuration":98899,"Delta":230767147},{"NoteNumber":87,"Velocity":74,"Duration":98898,"SoundDuration":98898,"Delta":230866046},{"NoteNumber":57,"Velocity":55,"Duration":98898,"SoundDuration":98898,"Delta":230866046},{"NoteNumber":83,"Velocity":74,"Duration":98899,"SoundDuration":98899,"Delta":230964945},{"NoteNumber":59,"Velocity":57,"Duration":98899,"SoundDuration":98899,"Delta":230964945},{"NoteNumber":88,"Velocity":82,"Duration":98898,"SoundDuration":98898,"Delta":231063844},{"NoteNumber":56,"Velocity":65,"Duration":98898,"SoundDuration":98898,"Delta":231063844},{"NoteNumber":83,"Velocity":85,"Duration":98898,"SoundDuration":98898,"Delta":231162743},{"NoteNumber":59,"Velocity":57,"Duration":98898,"SoundDuration":98898,"Delta":231162743},{"NoteNumber":87,"Velocity":78,"Duration":98899,"SoundDuration":98899,"Delta":231261642},{"NoteNumber":57,"Velocity":57,"Duration":98899,"SoundDuration":98899,"Delta":231261642},{"NoteNumber":83,"Velocity":79,"Duration":108530,"SoundDuration":108530,"Delta":231360541},{"NoteNumber":59,"Velocity":58,"Duration":108530,"SoundDuration":108530,"Delta":231360541},{"NoteNumber":88,"Velocity":89,"Duration":98560,"SoundDuration":98560,"Delta":231469071},{"NoteNumber":56,"Velocity":70,"Duration":98560,"SoundDuration":98560,"Delta":231469071},{"NoteNumber":83,"Velocity":81,"Duration":98561,"SoundDuration":98561,"Delta":231567632},{"NoteNumber":59,"Velocity":60,"Duration":98561,"SoundDuration":98561,"Delta":231567632},{"NoteNumber":86,"Velocity":81,"Duration":98451,"SoundDuration":98451,"Delta":231666193},{"NoteNumber":44,"Velocity":60,"Duration":98451,"SoundDuration":98451,"Delta":231666193},{"NoteNumber":83,"Velocity":81,"Duration":98231,"SoundDuration":98231,"Delta":231764645},{"NoteNumber":52,"Velocity":62,"Duration":98231,"SoundDuration":98231,"Delta":231764645},{"NoteNumber":86,"Velocity":89,"Duration":98231,"SoundDuration":98231,"Delta":231862876},{"NoteNumber":44,"Velocity":70,"Duration":98231,"SoundDuration":98231,"Delta":231862876},{"NoteNumber":83,"Velocity":83,"Duration":98009,"SoundDuration":98009,"Delta":231961108},{"NoteNumber":52,"Velocity":60,"Duration":98009,"SoundDuration":98009,"Delta":231961108},{"NoteNumber":86,"Velocity":82,"Duration":97898,"SoundDuration":97898,"Delta":232059118},{"NoteNumber":44,"Velocity":60,"Duration":97898,"SoundDuration":97898,"Delta":232059118},{"NoteNumber":83,"Velocity":82,"Duration":97843,"SoundDuration":97843,"Delta":232157016},{"NoteNumber":52,"Velocity":60,"Duration":97843,"SoundDuration":97843,"Delta":232157016},{"NoteNumber":86,"Velocity":89,"Duration":97567,"SoundDuration":97567,"Delta":232254859},{"NoteNumber":44,"Velocity":70,"Duration":97567,"SoundDuration":97567,"Delta":232254859},{"NoteNumber":83,"Velocity":81,"Duration":97567,"SoundDuration":97567,"Delta":232352427},{"NoteNumber":52,"Velocity":60,"Duration":97567,"SoundDuration":97567,"Delta":232352427},{"NoteNumber":86,"Velocity":81,"Duration":97567,"SoundDuration":97567,"Delta":232449994},{"NoteNumber":44,"Velocity":60,"Duration":97567,"SoundDuration":97567,"Delta":232449994},{"NoteNumber":83,"Velocity":81,"Duration":97567,"SoundDuration":97567,"Delta":232547561},{"NoteNumber":52,"Velocity":62,"Duration":97567,"SoundDuration":97567,"Delta":232547561},{"NoteNumber":86,"Velocity":89,"Duration":97567,"SoundDuration":97567,"Delta":232645128},{"NoteNumber":44,"Velocity":70,"Duration":97567,"SoundDuration":97567,"Delta":232645128},{"NoteNumber":83,"Velocity":83,"Duration":97567,"SoundDuration":97567,"Delta":232742696},{"NoteNumber":52,"Velocity":60,"Duration":97567,"SoundDuration":97567,"Delta":232742696},{"NoteNumber":86,"Velocity":82,"Duration":97567,"SoundDuration":97567,"Delta":232840263},{"NoteNumber":44,"Velocity":60,"Duration":97567,"SoundDuration":97567,"Delta":232840263},{"NoteNumber":83,"Velocity":82,"Duration":101324,"SoundDuration":101324,"Delta":232937830},{"NoteNumber":52,"Velocity":60,"Duration":101324,"SoundDuration":101324,"Delta":232937830},{"NoteNumber":86,"Velocity":89,"Duration":190017,"SoundDuration":190017,"Delta":233039154},{"NoteNumber":44,"Velocity":70,"Duration":95008,"SoundDuration":95008,"Delta":233039154},{"NoteNumber":52,"Velocity":60,"Duration":95008,"SoundDuration":95008,"Delta":233134163},{"NoteNumber":85,"Velocity":81,"Duration":95008,"SoundDuration":95008,"Delta":233229172},{"NoteNumber":44,"Velocity":60,"Duration":95008,"SoundDuration":95008,"Delta":233229172},{"NoteNumber":83,"Velocity":81,"Duration":95008,"SoundDuration":95008,"Delta":233324180},{"NoteNumber":52,"Velocity":62,"Duration":95008,"SoundDuration":95008,"Delta":233324180},{"NoteNumber":81,"Velocity":86,"Duration":95008,"SoundDuration":95008,"Delta":233419189},{"NoteNumber":44,"Velocity":70,"Duration":95008,"SoundDuration":95008,"Delta":233419189},{"NoteNumber":80,"Velocity":82,"Duration":95008,"SoundDuration":95008,"Delta":233514198},{"NoteNumber":52,"Velocity":60,"Duration":95008,"SoundDuration":95008,"Delta":233514198},{"NoteNumber":78,"Velocity":83,"Duration":95008,"SoundDuration":95008,"Delta":233609207},{"NoteNumber":44,"Velocity":60,"Duration":95008,"SoundDuration":95008,"Delta":233609207},{"NoteNumber":76,"Velocity":83,"Duration":95008,"SoundDuration":95008,"Delta":233704215},{"NoteNumber":52,"Velocity":61,"Duration":95008,"SoundDuration":95008,"Delta":233704215},{"NoteNumber":74,"Velocity":86,"Duration":95008,"SoundDuration":95008,"Delta":233799224},{"NoteNumber":44,"Velocity":71,"Duration":95008,"SoundDuration":95008,"Delta":233799224},{"NoteNumber":73,"Velocity":82,"Duration":95008,"SoundDuration":95008,"Delta":233894233},{"NoteNumber":52,"Velocity":61,"Duration":95008,"SoundDuration":95008,"Delta":233894233},{"NoteNumber":71,"Velocity":83,"Duration":95008,"SoundDuration":95008,"Delta":233989242},{"NoteNumber":44,"Velocity":61,"Duration":95008,"SoundDuration":95008,"Delta":233989242},{"NoteNumber":69,"Velocity":83,"Duration":95008,"SoundDuration":95008,"Delta":234084250},{"NoteNumber":52,"Velocity":63,"Duration":95008,"SoundDuration":95008,"Delta":234084250},{"NoteNumber":68,"Velocity":88,"Duration":95008,"SoundDuration":95008,"Delta":234179259},{"NoteNumber":44,"Velocity":72,"Duration":95008,"SoundDuration":95008,"Delta":234179259},{"NoteNumber":66,"Velocity":85,"Duration":95008,"SoundDuration":95008,"Delta":234274268},{"NoteNumber":52,"Velocity":62,"Duration":95008,"SoundDuration":95008,"Delta":234274268},{"NoteNumber":64,"Velocity":85,"Duration":95008,"SoundDuration":95008,"Delta":234369277},{"NoteNumber":44,"Velocity":62,"Duration":95008,"SoundDuration":95008,"Delta":234369277},{"NoteNumber":62,"Velocity":85,"Duration":95008,"SoundDuration":95008,"Delta":234464285},{"NoteNumber":52,"Velocity":62,"Duration":95008,"SoundDuration":95008,"Delta":234464285},{"NoteNumber":61,"Velocity":93,"Duration":92700,"SoundDuration":92700,"Delta":234559294},{"NoteNumber":45,"Velocity":67,"Duration":139074,"SoundDuration":139074,"Delta":234559294},{"NoteNumber":49,"Velocity":67,"Duration":139074,"SoundDuration":139074,"Delta":234559294},{"NoteNumber":52,"Velocity":80,"Duration":139074,"SoundDuration":139074,"Delta":234559294},{"NoteNumber":63,"Velocity":83,"Duration":92491,"SoundDuration":92491,"Delta":234651994},{"NoteNumber":64,"Velocity":83,"Duration":93228,"SoundDuration":93228,"Delta":234744486},{"NoteNumber":45,"Velocity":60,"Duration":139109,"SoundDuration":139109,"Delta":234744486},{"NoteNumber":49,"Velocity":60,"Duration":139109,"SoundDuration":139109,"Delta":234744486},{"NoteNumber":52,"Velocity":73,"Duration":139109,"SoundDuration":139109,"Delta":234744486},{"NoteNumber":63,"Velocity":84,"Duration":92876,"SoundDuration":92876,"Delta":234837714},{"NoteNumber":64,"Velocity":92,"Duration":93582,"SoundDuration":93582,"Delta":234930590},{"NoteNumber":68,"Velocity":84,"Duration":93168,"SoundDuration":93168,"Delta":235024173},{"NoteNumber":69,"Velocity":84,"Duration":97898,"SoundDuration":97898,"Delta":235117341},{"NoteNumber":45,"Velocity":60,"Duration":146847,"SoundDuration":146847,"Delta":235117341},{"NoteNumber":49,"Velocity":60,"Duration":146847,"SoundDuration":146847,"Delta":235117341},{"NoteNumber":52,"Velocity":73,"Duration":146847,"SoundDuration":146847,"Delta":235117341},{"NoteNumber":68,"Velocity":84,"Duration":97898,"SoundDuration":97898,"Delta":235215239},{"NoteNumber":69,"Velocity":93,"Duration":92986,"SoundDuration":92986,"Delta":235313138},{"NoteNumber":45,"Velocity":67,"Duration":140117,"SoundDuration":140117,"Delta":235313138},{"NoteNumber":49,"Velocity":67,"Duration":140117,"SoundDuration":140117,"Delta":235313138},{"NoteNumber":52,"Velocity":80,"Duration":140117,"SoundDuration":140117,"Delta":235313138},{"NoteNumber":72,"Velocity":84,"Duration":94271,"SoundDuration":94271,"Delta":235406124},{"NoteNumber":73,"Velocity":84,"Duration":93889,"SoundDuration":93889,"Delta":235500396},{"NoteNumber":45,"Velocity":60,"Duration":140600,"SoundDuration":140600,"Delta":235500396},{"NoteNumber":49,"Velocity":60,"Duration":140600,"SoundDuration":140600,"Delta":235500396},{"NoteNumber":52,"Velocity":73,"Duration":140600,"SoundDuration":140600,"Delta":235500396},{"NoteNumber":72,"Velocity":84,"Duration":93451,"SoundDuration":93451,"Delta":235594286},{"NoteNumber":73,"Velocity":93,"Duration":94255,"SoundDuration":94255,"Delta":235687737},{"NoteNumber":75,"Velocity":84,"Duration":93169,"SoundDuration":93169,"Delta":235781993},{"NoteNumber":76,"Velocity":84,"Duration":97567,"SoundDuration":97567,"Delta":235875162},{"NoteNumber":45,"Velocity":60,"Duration":146350,"SoundDuration":146350,"Delta":235875162},{"NoteNumber":49,"Velocity":60,"Duration":146350,"SoundDuration":146350,"Delta":235875162},{"NoteNumber":52,"Velocity":73,"Duration":146350,"SoundDuration":146350,"Delta":235875162},{"NoteNumber":75,"Velocity":84,"Duration":97058,"SoundDuration":97058,"Delta":235972729},{"NoteNumber":76,"Velocity":95,"Duration":93293,"SoundDuration":93293,"Delta":236069788},{"NoteNumber":45,"Velocity":67,"Duration":139429,"SoundDuration":139429,"Delta":236069788},{"NoteNumber":49,"Velocity":67,"Duration":139429,"SoundDuration":139429,"Delta":236069788},{"NoteNumber":52,"Velocity":78,"Duration":139429,"SoundDuration":139429,"Delta":236069788},{"NoteNumber":80,"Velocity":85,"Duration":93218,"SoundDuration":93218,"Delta":236163082},{"NoteNumber":81,"Velocity":85,"Duration":94316,"SoundDuration":94316,"Delta":236256300},{"NoteNumber":45,"Velocity":60,"Duration":140662,"SoundDuration":140662,"Delta":236256300},{"NoteNumber":49,"Velocity":60,"Duration":140662,"SoundDuration":140662,"Delta":236256300},{"NoteNumber":52,"Velocity":73,"Duration":140662,"SoundDuration":140662,"Delta":236256300},{"NoteNumber":80,"Velocity":85,"Duration":93495,"SoundDuration":93495,"Delta":236350617},{"NoteNumber":81,"Velocity":95,"Duration":93579,"SoundDuration":93579,"Delta":236444112},{"NoteNumber":84,"Velocity":85,"Duration":93197,"SoundDuration":93197,"Delta":236537692},{"NoteNumber":85,"Velocity":85,"Duration":96917,"SoundDuration":96917,"Delta":236630889},{"NoteNumber":45,"Velocity":60,"Duration":145376,"SoundDuration":145376,"Delta":236630889},{"NoteNumber":49,"Velocity":60,"Duration":145376,"SoundDuration":145376,"Delta":236630889},{"NoteNumber":52,"Velocity":73,"Duration":145376,"SoundDuration":145376,"Delta":236630889},{"NoteNumber":84,"Velocity":86,"Duration":96918,"SoundDuration":96918,"Delta":236727807},{"NoteNumber":85,"Velocity":95,"Duration":93296,"SoundDuration":93296,"Delta":236824725},{"NoteNumber":45,"Velocity":67,"Duration":140398,"SoundDuration":140398,"Delta":236824725},{"NoteNumber":49,"Velocity":67,"Duration":140398,"SoundDuration":140398,"Delta":236824725},{"NoteNumber":52,"Velocity":78,"Duration":140398,"SoundDuration":140398,"Delta":236824725},{"NoteNumber":87,"Velocity":86,"Duration":94075,"SoundDuration":94075,"Delta":236918022},{"NoteNumber":88,"Velocity":86,"Duration":92644,"SoundDuration":92644,"Delta":237012097},{"NoteNumber":45,"Velocity":60,"Duration":139923,"SoundDuration":139923,"Delta":237012097},{"NoteNumber":49,"Velocity":60,"Duration":139923,"SoundDuration":139923,"Delta":237012097},{"NoteNumber":52,"Velocity":73,"Duration":139923,"SoundDuration":139923,"Delta":237012097},{"NoteNumber":87,"Velocity":86,"Duration":94529,"SoundDuration":94529,"Delta":237104742},{"NoteNumber":88,"Velocity":95,"Duration":93513,"SoundDuration":93513,"Delta":237199271},{"NoteNumber":87,"Velocity":86,"Duration":94125,"SoundDuration":94125,"Delta":237292785},{"NoteNumber":85,"Velocity":86,"Duration":100969,"SoundDuration":100969,"Delta":237386911},{"NoteNumber":45,"Velocity":60,"Duration":151453,"SoundDuration":151453,"Delta":237386911},{"NoteNumber":49,"Velocity":60,"Duration":151453,"SoundDuration":151453,"Delta":237386911},{"NoteNumber":52,"Velocity":73,"Duration":151453,"SoundDuration":151453,"Delta":237386911},{"NoteNumber":84,"Velocity":86,"Duration":100969,"SoundDuration":100969,"Delta":237487880},{"NoteNumber":85,"Velocity":95,"Duration":93713,"SoundDuration":93713,"Delta":237588849},{"NoteNumber":52,"Velocity":67,"Duration":140317,"SoundDuration":140317,"Delta":237588849},{"NoteNumber":46,"Velocity":67,"Duration":140317,"SoundDuration":140317,"Delta":237588849},{"NoteNumber":49,"Velocity":67,"Duration":140317,"SoundDuration":140317,"Delta":237588849},{"NoteNumber":54,"Velocity":78,"Duration":140317,"SoundDuration":140317,"Delta":237588849},{"NoteNumber":84,"Velocity":86,"Duration":93893,"SoundDuration":93893,"Delta":237682562},{"NoteNumber":85,"Velocity":86,"Duration":94089,"SoundDuration":94089,"Delta":237776456},{"NoteNumber":52,"Velocity":60,"Duration":140588,"SoundDuration":140588,"Delta":237776456},{"NoteNumber":46,"Velocity":60,"Duration":140588,"SoundDuration":140588,"Delta":237776456},{"NoteNumber":49,"Velocity":60,"Duration":140588,"SoundDuration":140588,"Delta":237776456},{"NoteNumber":54,"Velocity":73,"Duration":140588,"SoundDuration":140588,"Delta":237776456},{"NoteNumber":87,"Velocity":86,"Duration":93757,"SoundDuration":93757,"Delta":237870546},{"NoteNumber":88,"Velocity":95,"Duration":93407,"SoundDuration":93407,"Delta":237964304},{"NoteNumber":87,"Velocity":86,"Duration":93692,"SoundDuration":93692,"Delta":238057711},{"NoteNumber":85,"Velocity":86,"Duration":96917,"SoundDuration":96917,"Delta":238151403},{"NoteNumber":52,"Velocity":60,"Duration":145376,"SoundDuration":145376,"Delta":238151403},{"NoteNumber":46,"Velocity":60,"Duration":145376,"SoundDuration":145376,"Delta":238151403},{"NoteNumber":49,"Velocity":60,"Duration":145376,"SoundDuration":145376,"Delta":238151403},{"NoteNumber":54,"Velocity":73,"Duration":145376,"SoundDuration":145376,"Delta":238151403},{"NoteNumber":84,"Velocity":86,"Duration":96918,"SoundDuration":96918,"Delta":238248321},{"NoteNumber":85,"Velocity":95,"Duration":93063,"SoundDuration":93063,"Delta":238345239},{"NoteNumber":52,"Velocity":67,"Duration":140046,"SoundDuration":140046,"Delta":238345239},{"NoteNumber":46,"Velocity":67,"Duration":140046,"SoundDuration":140046,"Delta":238345239},{"NoteNumber":49,"Velocity":67,"Duration":140046,"SoundDuration":140046,"Delta":238345239},{"NoteNumber":54,"Velocity":78,"Duration":140046,"SoundDuration":140046,"Delta":238345239},{"NoteNumber":84,"Velocity":86,"Duration":93715,"SoundDuration":93715,"Delta":238438303},{"NoteNumber":85,"Velocity":86,"Duration":93049,"SoundDuration":93049,"Delta":238532018},{"NoteNumber":52,"Velocity":60,"Duration":140488,"SoundDuration":140488,"Delta":238532018},{"NoteNumber":46,"Velocity":60,"Duration":140488,"SoundDuration":140488,"Delta":238532018},{"NoteNumber":49,"Velocity":60,"Duration":140488,"SoundDuration":140488,"Delta":238532018},{"NoteNumber":54,"Velocity":73,"Duration":140488,"SoundDuration":140488,"Delta":238532018},{"NoteNumber":87,"Velocity":86,"Duration":94551,"SoundDuration":94551,"Delta":238625068},{"NoteNumber":88,"Velocity":95,"Duration":93264,"SoundDuration":93264,"Delta":238719620},{"NoteNumber":87,"Velocity":86,"Duration":93749,"SoundDuration":93749,"Delta":238812885},{"NoteNumber":85,"Velocity":86,"Duration":96593,"SoundDuration":96593,"Delta":238906635},{"NoteNumber":52,"Velocity":60,"Duration":144890,"SoundDuration":144890,"Delta":238906635},{"NoteNumber":46,"Velocity":60,"Duration":144890,"SoundDuration":144890,"Delta":238906635},{"NoteNumber":49,"Velocity":60,"Duration":144890,"SoundDuration":144890,"Delta":238906635},{"NoteNumber":54,"Velocity":73,"Duration":144890,"SoundDuration":144890,"Delta":238906635},{"NoteNumber":84,"Velocity":86,"Duration":96593,"SoundDuration":96593,"Delta":239003228},{"NoteNumber":85,"Velocity":95,"Duration":93843,"SoundDuration":93843,"Delta":239099822},{"NoteNumber":52,"Velocity":67,"Duration":140906,"SoundDuration":140906,"Delta":239099822},{"NoteNumber":46,"Velocity":67,"Duration":140906,"SoundDuration":140906,"Delta":239099822},{"NoteNumber":49,"Velocity":67,"Duration":140906,"SoundDuration":140906,"Delta":239099822},{"NoteNumber":54,"Velocity":78,"Duration":140906,"SoundDuration":140906,"Delta":239099822},{"NoteNumber":84,"Velocity":86,"Duration":93483,"SoundDuration":93483,"Delta":239193665},{"NoteNumber":85,"Velocity":86,"Duration":93589,"SoundDuration":93589,"Delta":239287149},{"NoteNumber":52,"Velocity":60,"Duration":140562,"SoundDuration":140562,"Delta":239287149},{"NoteNumber":46,"Velocity":60,"Duration":140562,"SoundDuration":140562,"Delta":239287149},{"NoteNumber":49,"Velocity":60,"Duration":140562,"SoundDuration":140562,"Delta":239287149},{"NoteNumber":54,"Velocity":73,"Duration":140562,"SoundDuration":140562,"Delta":239287149},{"NoteNumber":87,"Velocity":86,"Duration":93413,"SoundDuration":93413,"Delta":239380738},{"NoteNumber":88,"Velocity":95,"Duration":93487,"SoundDuration":93487,"Delta":239474152},{"NoteNumber":87,"Velocity":86,"Duration":93167,"SoundDuration":93167,"Delta":239567640},{"NoteNumber":85,"Velocity":86,"Duration":96917,"SoundDuration":96917,"Delta":239660808},{"NoteNumber":52,"Velocity":60,"Duration":145376,"SoundDuration":145376,"Delta":239660808},{"NoteNumber":46,"Velocity":60,"Duration":145376,"SoundDuration":145376,"Delta":239660808},{"NoteNumber":49,"Velocity":60,"Duration":145376,"SoundDuration":145376,"Delta":239660808},{"NoteNumber":54,"Velocity":73,"Duration":145376,"SoundDuration":145376,"Delta":239660808},{"NoteNumber":84,"Velocity":86,"Duration":96918,"SoundDuration":96918,"Delta":239757726},{"NoteNumber":85,"Velocity":95,"Duration":94380,"SoundDuration":94380,"Delta":239854644},{"NoteNumber":52,"Velocity":67,"Duration":141679,"SoundDuration":141679,"Delta":239854644},{"NoteNumber":46,"Velocity":67,"Duration":141679,"SoundDuration":141679,"Delta":239854644},{"NoteNumber":49,"Velocity":67,"Duration":141679,"SoundDuration":141679,"Delta":239854644},{"NoteNumber":54,"Velocity":78,"Duration":141679,"SoundDuration":141679,"Delta":239854644},{"NoteNumber":84,"Velocity":86,"Duration":94125,"SoundDuration":94125,"Delta":239949024},{"NoteNumber":85,"Velocity":86,"Duration":93895,"SoundDuration":93895,"Delta":240043150},{"NoteNumber":52,"Velocity":60,"Duration":140839,"SoundDuration":140839,"Delta":240043150},{"NoteNumber":46,"Velocity":60,"Duration":140839,"SoundDuration":140839,"Delta":240043150},{"NoteNumber":49,"Velocity":60,"Duration":140839,"SoundDuration":140839,"Delta":240043150},{"NoteNumber":54,"Velocity":73,"Duration":140839,"SoundDuration":140839,"Delta":240043150},{"NoteNumber":87,"Velocity":86,"Duration":93538,"SoundDuration":93538,"Delta":240137045},{"NoteNumber":88,"Velocity":95,"Duration":93167,"SoundDuration":93167,"Delta":240230583},{"NoteNumber":87,"Velocity":86,"Duration":93167,"SoundDuration":93167,"Delta":240323751},{"NoteNumber":88,"Velocity":86,"Duration":96593,"SoundDuration":96593,"Delta":240416919},{"NoteNumber":52,"Velocity":60,"Duration":144890,"SoundDuration":144890,"Delta":240416919},{"NoteNumber":46,"Velocity":60,"Duration":144890,"SoundDuration":144890,"Delta":240416919},{"NoteNumber":49,"Velocity":60,"Duration":144890,"SoundDuration":144890,"Delta":240416919},{"NoteNumber":54,"Velocity":73,"Duration":144890,"SoundDuration":144890,"Delta":240416919},{"NoteNumber":85,"Velocity":86,"Duration":96593,"SoundDuration":96593,"Delta":240513512},{"NoteNumber":71,"Velocity":87,"Duration":93167,"SoundDuration":93167,"Delta":240610106},{"NoteNumber":83,"Velocity":103,"Duration":93167,"SoundDuration":93167,"Delta":240610106},{"NoteNumber":47,"Velocity":78,"Duration":93167,"SoundDuration":93167,"Delta":240610106},{"NoteNumber":52,"Velocity":70,"Duration":93167,"SoundDuration":93167,"Delta":240703273},{"NoteNumber":71,"Velocity":73,"Duration":93167,"SoundDuration":93167,"Delta":240796441},{"NoteNumber":83,"Velocity":87,"Duration":93167,"SoundDuration":93167,"Delta":240796441},{"NoteNumber":56,"Velocity":70,"Duration":93167,"SoundDuration":93167,"Delta":240796441},{"NoteNumber":59,"Velocity":70,"Duration":93167,"SoundDuration":93167,"Delta":240889609},{"NoteNumber":68,"Velocity":74,"Duration":94696,"SoundDuration":94696,"Delta":240982777},{"NoteNumber":80,"Velocity":88,"Duration":94696,"SoundDuration":94696,"Delta":240982777},{"NoteNumber":47,"Velocity":77,"Duration":94696,"SoundDuration":94696,"Delta":240982777},{"NoteNumber":52,"Velocity":70,"Duration":94696,"SoundDuration":94696,"Delta":241077474},{"NoteNumber":64,"Velocity":73,"Duration":94696,"SoundDuration":94696,"Delta":241172171},{"NoteNumber":76,"Velocity":87,"Duration":94696,"SoundDuration":94696,"Delta":241172171},{"NoteNumber":56,"Velocity":70,"Duration":94696,"SoundDuration":94696,"Delta":241172171},{"NoteNumber":59,"Velocity":70,"Duration":94696,"SoundDuration":94696,"Delta":241266868},{"NoteNumber":76,"Velocity":87,"Duration":92879,"SoundDuration":92879,"Delta":241361565},{"NoteNumber":88,"Velocity":103,"Duration":92879,"SoundDuration":92879,"Delta":241361565},{"NoteNumber":47,"Velocity":75,"Duration":92879,"SoundDuration":92879,"Delta":241361565},{"NoteNumber":52,"Velocity":70,"Duration":92879,"SoundDuration":92879,"Delta":241454444},{"NoteNumber":76,"Velocity":73,"Duration":92879,"SoundDuration":92879,"Delta":241547323},{"NoteNumber":88,"Velocity":87,"Duration":92879,"SoundDuration":92879,"Delta":241547323},{"NoteNumber":56,"Velocity":70,"Duration":92879,"SoundDuration":92879,"Delta":241547323},{"NoteNumber":59,"Velocity":70,"Duration":92879,"SoundDuration":92879,"Delta":241640202},{"NoteNumber":71,"Velocity":73,"Duration":95322,"SoundDuration":95322,"Delta":241733082},{"NoteNumber":83,"Velocity":87,"Duration":95322,"SoundDuration":95322,"Delta":241733082},{"NoteNumber":47,"Velocity":75,"Duration":95322,"SoundDuration":95322,"Delta":241733082},{"NoteNumber":52,"Velocity":70,"Duration":95322,"SoundDuration":95322,"Delta":241828404},{"NoteNumber":68,"Velocity":73,"Duration":95322,"SoundDuration":95322,"Delta":241923727},{"NoteNumber":80,"Velocity":87,"Duration":95322,"SoundDuration":95322,"Delta":241923727},{"NoteNumber":56,"Velocity":70,"Duration":95322,"SoundDuration":95322,"Delta":241923727},{"NoteNumber":59,"Velocity":70,"Duration":94706,"SoundDuration":94706,"Delta":242019050},{"NoteNumber":71,"Velocity":87,"Duration":93475,"SoundDuration":93475,"Delta":242113757},{"NoteNumber":83,"Velocity":103,"Duration":93475,"SoundDuration":93475,"Delta":242113757},{"NoteNumber":47,"Velocity":78,"Duration":93475,"SoundDuration":93475,"Delta":242113757},{"NoteNumber":52,"Velocity":70,"Duration":93475,"SoundDuration":93475,"Delta":242207232},{"NoteNumber":71,"Velocity":73,"Duration":93475,"SoundDuration":93475,"Delta":242300708},{"NoteNumber":83,"Velocity":87,"Duration":93475,"SoundDuration":93475,"Delta":242300708},{"NoteNumber":56,"Velocity":70,"Duration":93475,"SoundDuration":93475,"Delta":242300708},{"NoteNumber":59,"Velocity":70,"Duration":93475,"SoundDuration":93475,"Delta":242394183},{"NoteNumber":68,"Velocity":74,"Duration":94392,"SoundDuration":94392,"Delta":242487659},{"NoteNumber":80,"Velocity":88,"Duration":94392,"SoundDuration":94392,"Delta":242487659},{"NoteNumber":47,"Velocity":77,"Duration":94392,"SoundDuration":94392,"Delta":242487659},{"NoteNumber":52,"Velocity":70,"Duration":94392,"SoundDuration":94392,"Delta":242582052},{"NoteNumber":64,"Velocity":73,"Duration":94392,"SoundDuration":94392,"Delta":242676445},{"NoteNumber":76,"Velocity":87,"Duration":94392,"SoundDuration":94392,"Delta":242676445},{"NoteNumber":56,"Velocity":70,"Duration":94392,"SoundDuration":94392,"Delta":242676445},{"NoteNumber":59,"Velocity":70,"Duration":94392,"SoundDuration":94392,"Delta":242770838},{"NoteNumber":76,"Velocity":87,"Duration":93475,"SoundDuration":93475,"Delta":242865231},{"NoteNumber":88,"Velocity":103,"Duration":93475,"SoundDuration":93475,"Delta":242865231},{"NoteNumber":56,"Velocity":75,"Duration":93475,"SoundDuration":93475,"Delta":242865231},{"NoteNumber":76,"Velocity":73,"Duration":93475,"SoundDuration":93475,"Delta":243052182},{"NoteNumber":88,"Velocity":87,"Duration":93475,"SoundDuration":93475,"Delta":243052182},{"NoteNumber":56,"Velocity":70,"Duration":93475,"SoundDuration":93475,"Delta":243052182},{"NoteNumber":71,"Velocity":73,"Duration":94696,"SoundDuration":94696,"Delta":243239133},{"NoteNumber":83,"Velocity":87,"Duration":94696,"SoundDuration":94696,"Delta":243239133},{"NoteNumber":52,"Velocity":75,"Duration":94696,"SoundDuration":94696,"Delta":243239133},{"NoteNumber":68,"Velocity":73,"Duration":94696,"SoundDuration":94696,"Delta":243428527},{"NoteNumber":80,"Velocity":87,"Duration":94696,"SoundDuration":94696,"Delta":243428527},{"NoteNumber":47,"Velocity":70,"Duration":94696,"SoundDuration":94696,"Delta":243428527},{"NoteNumber":59,"Velocity":82,"Duration":93475,"SoundDuration":93475,"Delta":243617921},{"NoteNumber":80,"Velocity":47,"Duration":93475,"SoundDuration":93475,"Delta":243711396},{"NoteNumber":83,"Velocity":50,"Duration":92696,"SoundDuration":92696,"Delta":243804872},{"NoteNumber":56,"Velocity":47,"Duration":93475,"SoundDuration":93475,"Delta":243804872},{"NoteNumber":80,"Velocity":47,"Duration":93475,"SoundDuration":93475,"Delta":243898347},{"NoteNumber":83,"Velocity":51,"Duration":92696,"SoundDuration":92696,"Delta":243991823},{"NoteNumber":64,"Velocity":53,"Duration":93475,"SoundDuration":93475,"Delta":243991823},{"NoteNumber":80,"Velocity":47,"Duration":93475,"SoundDuration":93475,"Delta":244085298},{"NoteNumber":83,"Velocity":50,"Duration":92696,"SoundDuration":92696,"Delta":244178774},{"NoteNumber":59,"Velocity":48,"Duration":93475,"SoundDuration":93475,"Delta":244178774},{"NoteNumber":80,"Velocity":47,"Duration":93475,"SoundDuration":93475,"Delta":244272249},{"NoteNumber":83,"Velocity":51,"Duration":91809,"SoundDuration":91809,"Delta":244365725},{"NoteNumber":68,"Velocity":52,"Duration":92581,"SoundDuration":92581,"Delta":244365725},{"NoteNumber":80,"Velocity":47,"Duration":92581,"SoundDuration":92581,"Delta":244458306},{"NoteNumber":83,"Velocity":50,"Duration":91809,"SoundDuration":91809,"Delta":244550887},{"NoteNumber":64,"Velocity":41,"Duration":92581,"SoundDuration":92581,"Delta":244550887},{"NoteNumber":80,"Velocity":47,"Duration":92581,"SoundDuration":92581,"Delta":244643469},{"NoteNumber":83,"Velocity":52,"Duration":91809,"SoundDuration":91809,"Delta":244736050},{"NoteNumber":71,"Velocity":50,"Duration":92581,"SoundDuration":92581,"Delta":244736050},{"NoteNumber":80,"Velocity":47,"Duration":92581,"SoundDuration":92581,"Delta":244828631},{"NoteNumber":83,"Velocity":51,"Duration":91809,"SoundDuration":91809,"Delta":244921212},{"NoteNumber":68,"Velocity":41,"Duration":92581,"SoundDuration":92581,"Delta":244921212},{"NoteNumber":80,"Velocity":47,"Duration":92581,"SoundDuration":92581,"Delta":245013794},{"NoteNumber":83,"Velocity":50,"Duration":92199,"SoundDuration":92199,"Delta":245106375},{"NoteNumber":76,"Velocity":50,"Duration":92976,"SoundDuration":92976,"Delta":245106375},{"NoteNumber":80,"Velocity":47,"Duration":93173,"SoundDuration":93173,"Delta":245199351},{"NoteNumber":83,"Velocity":50,"Duration":92397,"SoundDuration":92397,"Delta":245292524},{"NoteNumber":71,"Velocity":41,"Duration":93173,"SoundDuration":93173,"Delta":245292524},{"NoteNumber":80,"Velocity":47,"Duration":93173,"SoundDuration":93173,"Delta":245385698},{"NoteNumber":83,"Velocity":51,"Duration":92397,"SoundDuration":92397,"Delta":245478871},{"NoteNumber":76,"Velocity":50,"Duration":93173,"SoundDuration":93173,"Delta":245478871},{"NoteNumber":80,"Velocity":47,"Duration":93173,"SoundDuration":93173,"Delta":245572045},{"NoteNumber":83,"Velocity":50,"Duration":92397,"SoundDuration":92397,"Delta":245665218},{"NoteNumber":71,"Velocity":39,"Duration":93173,"SoundDuration":93173,"Delta":245665218},{"NoteNumber":80,"Velocity":47,"Duration":93173,"SoundDuration":93173,"Delta":245758392},{"NoteNumber":83,"Velocity":51,"Duration":92397,"SoundDuration":92397,"Delta":245851565},{"NoteNumber":76,"Velocity":50,"Duration":93173,"SoundDuration":93173,"Delta":245851565},{"NoteNumber":80,"Velocity":47,"Duration":93374,"SoundDuration":93374,"Delta":245944739},{"NoteNumber":83,"Velocity":50,"Duration":92896,"SoundDuration":92896,"Delta":246038114},{"NoteNumber":71,"Velocity":41,"Duration":93678,"SoundDuration":93678,"Delta":246038114},{"NoteNumber":80,"Velocity":47,"Duration":93983,"SoundDuration":93983,"Delta":246131792},{"NoteNumber":83,"Velocity":52,"Duration":93503,"SoundDuration":93503,"Delta":246225775},{"NoteNumber":76,"Velocity":50,"Duration":94290,"SoundDuration":94290,"Delta":246225775},{"NoteNumber":80,"Velocity":47,"Duration":94595,"SoundDuration":94595,"Delta":246320065},{"NoteNumber":83,"Velocity":51,"Duration":94113,"SoundDuration":94113,"Delta":246414661},{"NoteNumber":71,"Velocity":42,"Duration":94904,"SoundDuration":94904,"Delta":246414661},{"NoteNumber":80,"Velocity":47,"Duration":95218,"SoundDuration":95218,"Delta":246509566},{"NoteNumber":75,"Velocity":46,"Duration":94091,"SoundDuration":94091,"Delta":246604784},{"NoteNumber":81,"Velocity":42,"Duration":93475,"SoundDuration":93475,"Delta":246698875},{"NoteNumber":83,"Velocity":45,"Duration":92696,"SoundDuration":92696,"Delta":246792351},{"NoteNumber":71,"Velocity":37,"Duration":93475,"SoundDuration":93475,"Delta":246792351},{"NoteNumber":81,"Velocity":41,"Duration":93374,"SoundDuration":93374,"Delta":246885826},{"NoteNumber":84,"Velocity":44,"Duration":92397,"SoundDuration":92397,"Delta":246979201},{"NoteNumber":75,"Velocity":43,"Duration":93173,"SoundDuration":93173,"Delta":246979201},{"NoteNumber":81,"Velocity":40,"Duration":93075,"SoundDuration":93075,"Delta":247072375},{"NoteNumber":83,"Velocity":42,"Duration":92105,"SoundDuration":92105,"Delta":247165450},{"NoteNumber":71,"Velocity":36,"Duration":92879,"SoundDuration":92879,"Delta":247165450},{"NoteNumber":81,"Velocity":39,"Duration":92779,"SoundDuration":92779,"Delta":247258329},{"NoteNumber":84,"Velocity":42,"Duration":93701,"SoundDuration":93701,"Delta":247351109},{"NoteNumber":75,"Velocity":41,"Duration":94492,"SoundDuration":94492,"Delta":247351109},{"NoteNumber":81,"Velocity":38,"Duration":93614,"SoundDuration":93614,"Delta":247445602},{"NoteNumber":83,"Velocity":40,"Duration":91580,"SoundDuration":91580,"Delta":247539216},{"NoteNumber":71,"Velocity":32,"Duration":92356,"SoundDuration":92356,"Delta":247539216},{"NoteNumber":81,"Velocity":37,"Duration":93701,"SoundDuration":93701,"Delta":247631573},{"NoteNumber":84,"Velocity":40,"Duration":92454,"SoundDuration":92454,"Delta":247725275},{"NoteNumber":75,"Velocity":39,"Duration":93223,"SoundDuration":93223,"Delta":247725275},{"NoteNumber":81,"Velocity":36,"Duration":91279,"SoundDuration":91279,"Delta":247818498},{"NoteNumber":83,"Velocity":39,"Duration":91629,"SoundDuration":91629,"Delta":247909777},{"NoteNumber":71,"Velocity":31,"Duration":92403,"SoundDuration":92403,"Delta":247909777},{"NoteNumber":81,"Velocity":35,"Duration":92789,"SoundDuration":92789,"Delta":248002181},{"NoteNumber":84,"Velocity":37,"Duration":90238,"SoundDuration":90238,"Delta":248094971},{"NoteNumber":75,"Velocity":36,"Duration":91002,"SoundDuration":91002,"Delta":248094971},{"NoteNumber":81,"Velocity":34,"Duration":92640,"SoundDuration":92640,"Delta":248185973},{"NoteNumber":83,"Velocity":36,"Duration":90664,"SoundDuration":90664,"Delta":248278614},{"NoteNumber":71,"Velocity":30,"Duration":91421,"SoundDuration":91421,"Delta":248278614},{"NoteNumber":81,"Velocity":34,"Duration":91139,"SoundDuration":91139,"Delta":248370036},{"NoteNumber":84,"Velocity":37,"Duration":92347,"SoundDuration":92347,"Delta":248461175},{"NoteNumber":75,"Velocity":36,"Duration":93128,"SoundDuration":93128,"Delta":248461175},{"NoteNumber":81,"Velocity":34,"Duration":92460,"SoundDuration":92460,"Delta":248554304},{"NoteNumber":83,"Velocity":36,"Duration":90505,"SoundDuration":90505,"Delta":248646764},{"NoteNumber":71,"Velocity":31,"Duration":91267,"SoundDuration":91267,"Delta":248646764},{"NoteNumber":81,"Velocity":34,"Duration":92337,"SoundDuration":92337,"Delta":248738032},{"NoteNumber":84,"Velocity":37,"Duration":92397,"SoundDuration":92397,"Delta":248830369},{"NoteNumber":75,"Velocity":36,"Duration":93173,"SoundDuration":93173,"Delta":248830369},{"NoteNumber":81,"Velocity":34,"Duration":93274,"SoundDuration":93274,"Delta":248923542},{"NoteNumber":83,"Velocity":36,"Duration":92696,"SoundDuration":92696,"Delta":249016817},{"NoteNumber":71,"Velocity":29,"Duration":93475,"SoundDuration":93475,"Delta":249016817},{"NoteNumber":81,"Velocity":34,"Duration":93779,"SoundDuration":93779,"Delta":249110292},{"NoteNumber":84,"Velocity":38,"Duration":93199,"SoundDuration":93199,"Delta":249204071},{"NoteNumber":75,"Velocity":36,"Duration":93983,"SoundDuration":93983,"Delta":249204071},{"NoteNumber":81,"Velocity":34,"Duration":94187,"SoundDuration":94187,"Delta":249298055},{"NoteNumber":83,"Velocity":37,"Duration":93606,"SoundDuration":93606,"Delta":249392242},{"NoteNumber":71,"Velocity":30,"Duration":94393,"SoundDuration":94393,"Delta":249392242},{"NoteNumber":81,"Velocity":34,"Duration":94656,"SoundDuration":94656,"Delta":249486635},{"NoteNumber":85,"Velocity":37,"Duration":93583,"SoundDuration":93583,"Delta":249581292},{"NoteNumber":75,"Velocity":37,"Duration":62634,"SoundDuration":62634,"Delta":249581292},{"NoteNumber":76,"Velocity":32,"Duration":62230,"SoundDuration":62230,"Delta":249643926},{"NoteNumber":81,"Velocity":34,"Duration":94209,"SoundDuration":94209,"Delta":249674875},{"NoteNumber":75,"Velocity":36,"Duration":62928,"SoundDuration":62928,"Delta":249706156},{"NoteNumber":83,"Velocity":36,"Duration":93881,"SoundDuration":93881,"Delta":249769085},{"NoteNumber":76,"Velocity":31,"Duration":62130,"SoundDuration":62130,"Delta":249769085},{"NoteNumber":75,"Velocity":36,"Duration":63372,"SoundDuration":63372,"Delta":249831215},{"NoteNumber":81,"Velocity":35,"Duration":94194,"SoundDuration":94194,"Delta":249862967},{"NoteNumber":76,"Velocity":33,"Duration":62573,"SoundDuration":62573,"Delta":249894588},{"NoteNumber":85,"Velocity":38,"Duration":94319,"SoundDuration":94319,"Delta":249957161},{"NoteNumber":75,"Velocity":37,"Duration":62598,"SoundDuration":62598,"Delta":249957161},{"NoteNumber":76,"Velocity":33,"Duration":63316,"SoundDuration":63316,"Delta":250019760},{"NoteNumber":81,"Velocity":36,"Duration":93661,"SoundDuration":93661,"Delta":250051481},{"NoteNumber":75,"Velocity":37,"Duration":62065,"SoundDuration":62065,"Delta":250083076},{"NoteNumber":83,"Velocity":38,"Duration":94074,"SoundDuration":94074,"Delta":250145142},{"NoteNumber":76,"Velocity":33,"Duration":62504,"SoundDuration":62504,"Delta":250145142},{"NoteNumber":75,"Velocity":38,"Duration":62772,"SoundDuration":62772,"Delta":250207646},{"NoteNumber":81,"Velocity":36,"Duration":93267,"SoundDuration":93267,"Delta":250239217},{"NoteNumber":76,"Velocity":34,"Duration":62065,"SoundDuration":62065,"Delta":250270419},{"NoteNumber":85,"Velocity":40,"Duration":93998,"SoundDuration":93998,"Delta":250332484},{"NoteNumber":75,"Velocity":38,"Duration":62918,"SoundDuration":62918,"Delta":250332484},{"NoteNumber":76,"Velocity":35,"Duration":61873,"SoundDuration":61873,"Delta":250395403},{"NoteNumber":81,"Velocity":37,"Duration":93418,"SoundDuration":93418,"Delta":250426483},{"NoteNumber":75,"Velocity":39,"Duration":62625,"SoundDuration":62625,"Delta":250457276},{"NoteNumber":83,"Velocity":40,"Duration":93369,"SoundDuration":93369,"Delta":250519901},{"NoteNumber":76,"Velocity":35,"Duration":62576,"SoundDuration":62576,"Delta":250519901},{"NoteNumber":75,"Velocity":39,"Duration":61468,"SoundDuration":61468,"Delta":250582478},{"NoteNumber":81,"Velocity":38,"Duration":92911,"SoundDuration":92911,"Delta":250613271},{"NoteNumber":76,"Velocity":36,"Duration":62237,"SoundDuration":62237,"Delta":250643946},{"NoteNumber":85,"Velocity":43,"Duration":93948,"SoundDuration":93948,"Delta":250706183},{"NoteNumber":75,"Velocity":40,"Duration":62868,"SoundDuration":62868,"Delta":250706183},{"NoteNumber":76,"Velocity":36,"Duration":61873,"SoundDuration":61873,"Delta":250769051},{"NoteNumber":81,"Velocity":39,"Duration":93271,"SoundDuration":93271,"Delta":250800131},{"NoteNumber":75,"Velocity":40,"Duration":62478,"SoundDuration":62478,"Delta":250830924},{"NoteNumber":83,"Velocity":43,"Duration":93196,"SoundDuration":93196,"Delta":250893403},{"NoteNumber":76,"Velocity":36,"Duration":62355,"SoundDuration":62355,"Delta":250893403},{"NoteNumber":75,"Velocity":41,"Duration":61633,"SoundDuration":61633,"Delta":250955758},{"NoteNumber":81,"Velocity":40,"Duration":92594,"SoundDuration":92594,"Delta":250986599},{"NoteNumber":76,"Velocity":37,"Duration":61800,"SoundDuration":61800,"Delta":251017392},{"NoteNumber":90,"Velocity":44,"Duration":93347,"SoundDuration":93347,"Delta":251079193},{"NoteNumber":75,"Velocity":41,"Duration":61900,"SoundDuration":61900,"Delta":251079193},{"NoteNumber":76,"Velocity":36,"Duration":62503,"SoundDuration":62503,"Delta":251141094},{"NoteNumber":83,"Velocity":41,"Duration":92009,"SoundDuration":92009,"Delta":251172540},{"NoteNumber":81,"Velocity":41,"Duration":92009,"SoundDuration":92009,"Delta":251172540},{"NoteNumber":75,"Velocity":42,"Duration":60952,"SoundDuration":60952,"Delta":251203597},{"NoteNumber":90,"Velocity":43,"Duration":93561,"SoundDuration":93561,"Delta":251264549},{"NoteNumber":76,"Velocity":37,"Duration":62114,"SoundDuration":62114,"Delta":251264549},{"NoteNumber":75,"Velocity":42,"Duration":62502,"SoundDuration":62502,"Delta":251326664},{"NoteNumber":83,"Velocity":41,"Duration":92737,"SoundDuration":92737,"Delta":251358110},{"NoteNumber":81,"Velocity":41,"Duration":92737,"SoundDuration":92737,"Delta":251358110},{"NoteNumber":76,"Velocity":37,"Duration":61681,"SoundDuration":61681,"Delta":251389167},{"NoteNumber":90,"Velocity":46,"Duration":93899,"SoundDuration":93899,"Delta":251450848},{"NoteNumber":75,"Velocity":43,"Duration":62575,"SoundDuration":62575,"Delta":251450848},{"NoteNumber":76,"Velocity":38,"Duration":62235,"SoundDuration":62235,"Delta":251513423},{"NoteNumber":83,"Velocity":42,"Duration":92452,"SoundDuration":92452,"Delta":251544747},{"NoteNumber":81,"Velocity":42,"Duration":92452,"SoundDuration":92452,"Delta":251544747},{"NoteNumber":75,"Velocity":43,"Duration":61540,"SoundDuration":61540,"Delta":251575659},{"NoteNumber":90,"Velocity":46,"Duration":93316,"SoundDuration":93316,"Delta":251637200},{"NoteNumber":76,"Velocity":39,"Duration":62475,"SoundDuration":62475,"Delta":251637200},{"NoteNumber":75,"Velocity":44,"Duration":61282,"SoundDuration":61282,"Delta":251699676},{"NoteNumber":83,"Velocity":44,"Duration":92361,"SoundDuration":92361,"Delta":251730516},{"NoteNumber":81,"Velocity":44,"Duration":92361,"SoundDuration":92361,"Delta":251730516},{"NoteNumber":76,"Velocity":39,"Duration":61920,"SoundDuration":61920,"Delta":251760958},{"NoteNumber":90,"Velocity":49,"Duration":93295,"SoundDuration":93295,"Delta":251822878},{"NoteNumber":75,"Velocity":44,"Duration":62526,"SoundDuration":62526,"Delta":251822878},{"NoteNumber":76,"Velocity":38,"Duration":61611,"SoundDuration":61611,"Delta":251885404},{"NoteNumber":83,"Velocity":45,"Duration":93415,"SoundDuration":93415,"Delta":251916174},{"NoteNumber":81,"Velocity":45,"Duration":93415,"SoundDuration":93415,"Delta":251916174},{"NoteNumber":75,"Velocity":45,"Duration":62573,"SoundDuration":62573,"Delta":251947015},{"NoteNumber":90,"Velocity":49,"Duration":92642,"SoundDuration":92642,"Delta":252009589},{"NoteNumber":76,"Velocity":38,"Duration":61705,"SoundDuration":61705,"Delta":252009589},{"NoteNumber":75,"Velocity":45,"Duration":62359,"SoundDuration":62359,"Delta":252071294},{"NoteNumber":83,"Velocity":47,"Duration":93463,"SoundDuration":93463,"Delta":252102232},{"NoteNumber":81,"Velocity":47,"Duration":93463,"SoundDuration":93463,"Delta":252102232},{"NoteNumber":76,"Velocity":40,"Duration":62041,"SoundDuration":62041,"Delta":252133653},{"NoteNumber":90,"Velocity":54,"Duration":92901,"SoundDuration":92901,"Delta":252195695},{"NoteNumber":75,"Velocity":50,"Duration":74384,"SoundDuration":74384,"Delta":252195695},{"NoteNumber":76,"Velocity":44,"Duration":74663,"SoundDuration":74663,"Delta":252270080},{"NoteNumber":83,"Velocity":48,"Duration":94089,"SoundDuration":94089,"Delta":252288596},{"NoteNumber":81,"Velocity":48,"Duration":94089,"SoundDuration":94089,"Delta":252288596},{"NoteNumber":75,"Velocity":50,"Duration":76261,"SoundDuration":76261,"Delta":252344743},{"NoteNumber":90,"Velocity":53,"Duration":96599,"SoundDuration":96599,"Delta":252382685},{"NoteNumber":73,"Velocity":52,"Duration":78404,"SoundDuration":78404,"Delta":252421004},{"NoteNumber":83,"Velocity":49,"Duration":100616,"SoundDuration":100616,"Delta":252479285},{"NoteNumber":81,"Velocity":49,"Duration":100616,"SoundDuration":100616,"Delta":252479285},{"NoteNumber":75,"Velocity":47,"Duration":80493,"SoundDuration":80493,"Delta":252499409},{"NoteNumber":80,"Velocity":72,"Duration":1142285,"SoundDuration":1142285,"Delta":252579902},{"NoteNumber":83,"Velocity":72,"Duration":1142285,"SoundDuration":1142285,"Delta":252579902},{"NoteNumber":88,"Velocity":72,"Duration":1142285,"SoundDuration":1142285,"Delta":252579902},{"NoteNumber":64,"Velocity":48,"Duration":3015626,"SoundDuration":3015626,"Delta":252579902},{"NoteNumber":76,"Velocity":57,"Duration":768383,"SoundDuration":768383,"Delta":252579902},{"NoteNumber":74,"Velocity":45,"Duration":747804,"SoundDuration":747804,"Delta":253348286},{"NoteNumber":71,"Velocity":38,"Duration":747804,"SoundDuration":747804,"Delta":253348286},{"NoteNumber":68,"Velocity":38,"Duration":747804,"SoundDuration":747804,"Delta":253348286},{"NoteNumber":88,"Velocity":58,"Duration":93475,"SoundDuration":93475,"Delta":253722188},{"NoteNumber":86,"Velocity":57,"Duration":93475,"SoundDuration":93475,"Delta":253815663},{"NoteNumber":84,"Velocity":56,"Duration":93475,"SoundDuration":93475,"Delta":253909139},{"NoteNumber":83,"Velocity":55,"Duration":93475,"SoundDuration":93475,"Delta":254002614},{"NoteNumber":84,"Velocity":58,"Duration":92592,"SoundDuration":92592,"Delta":254096090},{"NoteNumber":69,"Velocity":39,"Duration":750518,"SoundDuration":750518,"Delta":254096090},{"NoteNumber":72,"Velocity":47,"Duration":750518,"SoundDuration":750518,"Delta":254096090},{"NoteNumber":83,"Velocity":57,"Duration":92592,"SoundDuration":92592,"Delta":254188682},{"NoteNumber":81,"Velocity":56,"Duration":92592,"SoundDuration":92592,"Delta":254281275},{"NoteNumber":80,"Velocity":55,"Duration":92592,"SoundDuration":92592,"Delta":254373867},{"NoteNumber":81,"Velocity":51,"Duration":93750,"SoundDuration":93750,"Delta":254466460},{"NoteNumber":83,"Velocity":52,"Duration":93750,"SoundDuration":93750,"Delta":254560210},{"NoteNumber":84,"Velocity":53,"Duration":93750,"SoundDuration":93750,"Delta":254653960},{"NoteNumber":86,"Velocity":54,"Duration":98898,"SoundDuration":98898,"Delta":254747710},{"NoteNumber":88,"Velocity":56,"Duration":93475,"SoundDuration":93475,"Delta":254846609},{"NoteNumber":74,"Velocity":46,"Duration":748919,"SoundDuration":748919,"Delta":254846609},{"NoteNumber":68,"Velocity":39,"Duration":748919,"SoundDuration":748919,"Delta":254846609},{"NoteNumber":71,"Velocity":39,"Duration":748919,"SoundDuration":748919,"Delta":254846609},{"NoteNumber":89,"Velocity":57,"Duration":93475,"SoundDuration":93475,"Delta":254940084},{"NoteNumber":88,"Velocity":57,"Duration":93475,"SoundDuration":93475,"Delta":255033560},{"NoteNumber":87,"Velocity":56,"Duration":93475,"SoundDuration":93475,"Delta":255127035},{"NoteNumber":88,"Velocity":56,"Duration":93475,"SoundDuration":93475,"Delta":255220511},{"NoteNumber":86,"Velocity":56,"Duration":93678,"SoundDuration":93678,"Delta":255313986},{"NoteNumber":84,"Velocity":56,"Duration":93779,"SoundDuration":93779,"Delta":255407664},{"NoteNumber":83,"Velocity":56,"Duration":94085,"SoundDuration":94085,"Delta":255501444},{"NoteNumber":84,"Velocity":57,"Duration":94187,"SoundDuration":94187,"Delta":255595529},{"NoteNumber":72,"Velocity":48,"Duration":377873,"SoundDuration":377873,"Delta":255595529},{"NoteNumber":69,"Velocity":40,"Duration":377873,"SoundDuration":377873,"Delta":255595529},{"NoteNumber":86,"Velocity":57,"Duration":94392,"SoundDuration":94392,"Delta":255689717},{"NoteNumber":84,"Velocity":57,"Duration":94595,"SoundDuration":94595,"Delta":255784110},{"NoteNumber":83,"Velocity":53,"Duration":94696,"SoundDuration":94696,"Delta":255878705},{"NoteNumber":81,"Velocity":56,"Duration":95008,"SoundDuration":95008,"Delta":255973402},{"NoteNumber":80,"Velocity":52,"Duration":95113,"SoundDuration":95113,"Delta":256068411},{"NoteNumber":81,"Velocity":56,"Duration":95322,"SoundDuration":95322,"Delta":256163524},{"NoteNumber":83,"Velocity":52,"Duration":95322,"SoundDuration":95322,"Delta":256258847},{"NoteNumber":72,"Velocity":45,"Duration":783966,"SoundDuration":783966,"Delta":256354170},{"NoteNumber":84,"Velocity":59,"Duration":388954,"SoundDuration":388954,"Delta":256354170},{"NoteNumber":69,"Velocity":47,"Duration":783966,"SoundDuration":783966,"Delta":256354170},{"NoteNumber":57,"Velocity":39,"Duration":783966,"SoundDuration":783966,"Delta":256354170},{"NoteNumber":60,"Velocity":39,"Duration":783966,"SoundDuration":783966,"Delta":256354170},{"NoteNumber":66,"Velocity":39,"Duration":783966,"SoundDuration":783966,"Delta":256354170},{"NoteNumber":81,"Velocity":52,"Duration":194477,"SoundDuration":194477,"Delta":256743124},{"NoteNumber":78,"Velocity":52,"Duration":200535,"SoundDuration":200535,"Delta":256937601},{"NoteNumber":71,"Velocity":45,"Duration":784665,"SoundDuration":784665,"Delta":257138136},{"NoteNumber":83,"Velocity":57,"Duration":388954,"SoundDuration":388954,"Delta":257138136},{"NoteNumber":67,"Velocity":46,"Duration":784665,"SoundDuration":784665,"Delta":257138136},{"NoteNumber":59,"Velocity":39,"Duration":784665,"SoundDuration":784665,"Delta":257138136},{"NoteNumber":64,"Velocity":39,"Duration":784665,"SoundDuration":784665,"Delta":257138136},{"NoteNumber":79,"Velocity":52,"Duration":194477,"SoundDuration":194477,"Delta":257527090},{"NoteNumber":76,"Velocity":52,"Duration":201233,"SoundDuration":201233,"Delta":257721567},{"NoteNumber":69,"Velocity":45,"Duration":780537,"SoundDuration":780537,"Delta":257922801},{"NoteNumber":81,"Velocity":57,"Duration":390268,"SoundDuration":390268,"Delta":257922801},{"NoteNumber":63,"Velocity":37,"Duration":780537,"SoundDuration":780537,"Delta":257922801},{"NoteNumber":66,"Velocity":44,"Duration":780537,"SoundDuration":780537,"Delta":257922801},{"NoteNumber":59,"Velocity":37,"Duration":780537,"SoundDuration":780537,"Delta":257922801},{"NoteNumber":78,"Velocity":52,"Duration":195134,"SoundDuration":195134,"Delta":258313070},{"NoteNumber":75,"Velocity":52,"Duration":195134,"SoundDuration":195134,"Delta":258508204},{"NoteNumber":76,"Velocity":72,"Duration":1146155,"SoundDuration":1146155,"Delta":258703339},{"NoteNumber":64,"Velocity":56,"Duration":767606,"SoundDuration":767606,"Delta":258703339},{"NoteNumber":52,"Velocity":45,"Duration":3018805,"SoundDuration":3018805,"Delta":258703339},{"NoteNumber":56,"Velocity":38,"Duration":752381,"SoundDuration":752381,"Delta":259470945},{"NoteNumber":62,"Velocity":45,"Duration":752381,"SoundDuration":752381,"Delta":259470945},{"NoteNumber":59,"Velocity":38,"Duration":752381,"SoundDuration":752381,"Delta":259470945},{"NoteNumber":76,"Velocity":58,"Duration":93457,"SoundDuration":93457,"Delta":259849494},{"NoteNumber":74,"Velocity":57,"Duration":93457,"SoundDuration":93457,"Delta":259942952},{"NoteNumber":72,"Velocity":56,"Duration":93457,"SoundDuration":93457,"Delta":260036410},{"NoteNumber":71,"Velocity":55,"Duration":93457,"SoundDuration":93457,"Delta":260129868},{"NoteNumber":72,"Velocity":58,"Duration":93457,"SoundDuration":93457,"Delta":260223326},{"NoteNumber":57,"Velocity":39,"Duration":753105,"SoundDuration":753105,"Delta":260223326},{"NoteNumber":60,"Velocity":47,"Duration":753105,"SoundDuration":753105,"Delta":260223326},{"NoteNumber":71,"Velocity":57,"Duration":93457,"SoundDuration":93457,"Delta":260316784},{"NoteNumber":69,"Velocity":56,"Duration":93457,"SoundDuration":93457,"Delta":260410242},{"NoteNumber":68,"Velocity":55,"Duration":93457,"SoundDuration":93457,"Delta":260503700},{"NoteNumber":69,"Velocity":51,"Duration":93457,"SoundDuration":93457,"Delta":260597158},{"NoteNumber":71,"Velocity":52,"Duration":93457,"SoundDuration":93457,"Delta":260690616},{"NoteNumber":72,"Velocity":53,"Duration":93457,"SoundDuration":93457,"Delta":260784074},{"NoteNumber":74,"Velocity":54,"Duration":98899,"SoundDuration":98899,"Delta":260877532},{"NoteNumber":76,"Velocity":56,"Duration":93475,"SoundDuration":93475,"Delta":260976431},{"NoteNumber":62,"Velocity":46,"Duration":745713,"SoundDuration":745713,"Delta":260976431},{"NoteNumber":59,"Velocity":39,"Duration":745713,"SoundDuration":745713,"Delta":260976431},{"NoteNumber":56,"Velocity":39,"Duration":745713,"SoundDuration":745713,"Delta":260976431},{"NoteNumber":77,"Velocity":57,"Duration":93475,"SoundDuration":93475,"Delta":261069906},{"NoteNumber":76,"Velocity":57,"Duration":93475,"SoundDuration":93475,"Delta":261163382},{"NoteNumber":75,"Velocity":56,"Duration":93475,"SoundDuration":93475,"Delta":261256857},{"NoteNumber":76,"Velocity":56,"Duration":92581,"SoundDuration":92581,"Delta":261350333},{"NoteNumber":74,"Velocity":56,"Duration":92779,"SoundDuration":92779,"Delta":261442914},{"NoteNumber":72,"Velocity":56,"Duration":93075,"SoundDuration":93075,"Delta":261535694},{"NoteNumber":71,"Velocity":56,"Duration":93374,"SoundDuration":93374,"Delta":261628770},{"NoteNumber":72,"Velocity":57,"Duration":93678,"SoundDuration":93678,"Delta":261722144},{"NoteNumber":60,"Velocity":48,"Duration":376547,"SoundDuration":376547,"Delta":261722144},{"NoteNumber":57,"Velocity":48,"Duration":376547,"SoundDuration":376547,"Delta":261722144},{"NoteNumber":74,"Velocity":57,"Duration":93983,"SoundDuration":93983,"Delta":261815822},{"NoteNumber":72,"Velocity":57,"Duration":94290,"SoundDuration":94290,"Delta":261909806},{"NoteNumber":71,"Velocity":53,"Duration":94595,"SoundDuration":94595,"Delta":262004096},{"NoteNumber":69,"Velocity":56,"Duration":94904,"SoundDuration":94904,"Delta":262098692},{"NoteNumber":68,"Velocity":52,"Duration":95218,"SoundDuration":95218,"Delta":262193597},{"NoteNumber":69,"Velocity":56,"Duration":95533,"SoundDuration":95533,"Delta":262288815},{"NoteNumber":71,"Velocity":52,"Duration":95846,"SoundDuration":95846,"Delta":262384348},{"NoteNumber":60,"Velocity":45,"Duration":775111,"SoundDuration":775111,"Delta":262480195},{"NoteNumber":72,"Velocity":59,"Duration":380951,"SoundDuration":380951,"Delta":262480195},{"NoteNumber":45,"Velocity":39,"Duration":775111,"SoundDuration":775111,"Delta":262480195},{"NoteNumber":54,"Velocity":39,"Duration":775111,"SoundDuration":775111,"Delta":262480195},{"NoteNumber":57,"Velocity":47,"Duration":775111,"SoundDuration":775111,"Delta":262480195},{"NoteNumber":48,"Velocity":39,"Duration":775111,"SoundDuration":775111,"Delta":262480195},{"NoteNumber":69,"Velocity":52,"Duration":192925,"SoundDuration":192925,"Delta":262861147},{"NoteNumber":66,"Velocity":52,"Duration":201233,"SoundDuration":201233,"Delta":263054073},{"NoteNumber":59,"Velocity":45,"Duration":780653,"SoundDuration":780653,"Delta":263255307},{"NoteNumber":71,"Velocity":57,"Duration":384614,"SoundDuration":384614,"Delta":263255307},{"NoteNumber":55,"Velocity":46,"Duration":780653,"SoundDuration":780653,"Delta":263255307},{"NoteNumber":47,"Velocity":39,"Duration":780653,"SoundDuration":780653,"Delta":263255307},{"NoteNumber":52,"Velocity":39,"Duration":780653,"SoundDuration":780653,"Delta":263255307},{"NoteNumber":67,"Velocity":52,"Duration":194804,"SoundDuration":194804,"Delta":263639922},{"NoteNumber":64,"Velocity":52,"Duration":201233,"SoundDuration":201233,"Delta":263834727},{"NoteNumber":57,"Velocity":45,"Duration":783198,"SoundDuration":783198,"Delta":264035961},{"NoteNumber":69,"Velocity":57,"Duration":388954,"SoundDuration":388954,"Delta":264035961},{"NoteNumber":54,"Velocity":44,"Duration":783198,"SoundDuration":783198,"Delta":264035961},{"NoteNumber":51,"Velocity":37,"Duration":783198,"SoundDuration":783198,"Delta":264035961},{"NoteNumber":47,"Velocity":37,"Duration":783198,"SoundDuration":783198,"Delta":264035961},{"NoteNumber":66,"Velocity":52,"Duration":197121,"SoundDuration":197121,"Delta":264424915},{"NoteNumber":63,"Velocity":52,"Duration":197122,"SoundDuration":197122,"Delta":264622037},{"NoteNumber":64,"Velocity":55,"Duration":197797,"SoundDuration":197797,"Delta":264819159},{"NoteNumber":55,"Velocity":44,"Duration":197797,"SoundDuration":197797,"Delta":264819159},{"NoteNumber":52,"Velocity":37,"Duration":197797,"SoundDuration":197797,"Delta":264819159},{"NoteNumber":76,"Velocity":68,"Duration":197121,"SoundDuration":197121,"Delta":265209264},{"NoteNumber":43,"Velocity":42,"Duration":394244,"SoundDuration":394244,"Delta":265209264},{"NoteNumber":52,"Velocity":51,"Duration":591365,"SoundDuration":591365,"Delta":265209264},{"NoteNumber":74,"Velocity":63,"Duration":197122,"SoundDuration":197122,"Delta":265406386},{"NoteNumber":72,"Velocity":66,"Duration":394243,"SoundDuration":394243,"Delta":265603508},{"NoteNumber":45,"Velocity":42,"Duration":795434,"SoundDuration":795434,"Delta":265603508},{"NoteNumber":53,"Velocity":49,"Duration":197121,"SoundDuration":197121,"Delta":265800630},{"NoteNumber":69,"Velocity":61,"Duration":197122,"SoundDuration":197122,"Delta":265997752},{"NoteNumber":55,"Velocity":51,"Duration":197122,"SoundDuration":197122,"Delta":265997752},{"NoteNumber":65,"Velocity":54,"Duration":204068,"SoundDuration":204068,"Delta":266194874},{"NoteNumber":57,"Velocity":55,"Duration":204068,"SoundDuration":204068,"Delta":266194874},{"NoteNumber":71,"Velocity":51,"Duration":395596,"SoundDuration":395596,"Delta":266398942},{"NoteNumber":59,"Velocity":41,"Duration":791192,"SoundDuration":791192,"Delta":266398942},{"NoteNumber":55,"Velocity":35,"Duration":791192,"SoundDuration":791192,"Delta":266398942},{"NoteNumber":47,"Velocity":35,"Duration":1582383,"SoundDuration":1582383,"Delta":266398942},{"NoteNumber":67,"Velocity":46,"Duration":197797,"SoundDuration":197797,"Delta":266794538},{"NoteNumber":64,"Velocity":46,"Duration":197798,"SoundDuration":197798,"Delta":266992336},{"NoteNumber":69,"Velocity":51,"Duration":395595,"SoundDuration":395595,"Delta":267190134},{"NoteNumber":57,"Velocity":39,"Duration":791191,"SoundDuration":791191,"Delta":267190134},{"NoteNumber":54,"Velocity":33,"Duration":791191,"SoundDuration":791191,"Delta":267190134},{"NoteNumber":66,"Velocity":46,"Duration":197798,"SoundDuration":197798,"Delta":267585730},{"NoteNumber":63,"Velocity":46,"Duration":197797,"SoundDuration":197797,"Delta":267783528},{"NoteNumber":64,"Velocity":55,"Duration":197798,"SoundDuration":197798,"Delta":267981326},{"NoteNumber":52,"Velocity":37,"Duration":197798,"SoundDuration":197798,"Delta":267981326},{"NoteNumber":55,"Velocity":44,"Duration":197798,"SoundDuration":197798,"Delta":267981326},{"NoteNumber":48,"Velocity":37,"Duration":197798,"SoundDuration":197798,"Delta":267981326},{"NoteNumber":72,"Velocity":67,"Duration":197797,"SoundDuration":197797,"Delta":268373929},{"NoteNumber":48,"Velocity":51,"Duration":593393,"SoundDuration":593393,"Delta":268373929},{"NoteNumber":40,"Velocity":42,"Duration":395596,"SoundDuration":395596,"Delta":268373929},{"NoteNumber":71,"Velocity":63,"Duration":197798,"SoundDuration":197798,"Delta":268571727},{"NoteNumber":69,"Velocity":66,"Duration":395596,"SoundDuration":395596,"Delta":268769525},{"NoteNumber":41,"Velocity":42,"Duration":799636,"SoundDuration":799636,"Delta":268769525},{"NoteNumber":50,"Velocity":49,"Duration":197798,"SoundDuration":197798,"Delta":268967323},{"NoteNumber":65,"Velocity":61,"Duration":197797,"SoundDuration":197797,"Delta":269165121},{"NoteNumber":52,"Velocity":51,"Duration":197797,"SoundDuration":197797,"Delta":269165121},{"NoteNumber":62,"Velocity":54,"Duration":206242,"SoundDuration":206242,"Delta":269362919},{"NoteNumber":53,"Velocity":55,"Duration":206242,"SoundDuration":206242,"Delta":269362919},{"NoteNumber":67,"Velocity":51,"Duration":396956,"SoundDuration":396956,"Delta":269569162},{"NoteNumber":52,"Velocity":35,"Duration":800227,"SoundDuration":800227,"Delta":269569162},{"NoteNumber":55,"Velocity":41,"Duration":800227,"SoundDuration":800227,"Delta":269569162},{"NoteNumber":43,"Velocity":35,"Duration":1603239,"SoundDuration":1603239,"Delta":269569162},{"NoteNumber":64,"Velocity":46,"Duration":198478,"SoundDuration":198478,"Delta":269966119},{"NoteNumber":60,"Velocity":46,"Duration":204791,"SoundDuration":204791,"Delta":270164597},{"NoteNumber":65,"Velocity":51,"Duration":398326,"SoundDuration":398326,"Delta":270369389},{"NoteNumber":50,"Velocity":33,"Duration":803011,"SoundDuration":803011,"Delta":270369389},{"NoteNumber":53,"Velocity":39,"Duration":803011,"SoundDuration":803011,"Delta":270369389},{"NoteNumber":62,"Velocity":46,"Duration":199163,"SoundDuration":199163,"Delta":270767716},{"NoteNumber":59,"Velocity":46,"Duration":205521,"SoundDuration":205521,"Delta":270966880},{"NoteNumber":60,"Velocity":55,"Duration":399070,"SoundDuration":399070,"Delta":271172401},{"NoteNumber":48,"Velocity":37,"Duration":399070,"SoundDuration":399070,"Delta":271172401},{"NoteNumber":52,"Velocity":44,"Duration":399070,"SoundDuration":399070,"Delta":271172401},{"NoteNumber":77,"Velocity":69,"Duration":197797,"SoundDuration":197797,"Delta":271571471},{"NoteNumber":45,"Velocity":42,"Duration":395596,"SoundDuration":395596,"Delta":271571471},{"NoteNumber":53,"Velocity":51,"Duration":593393,"SoundDuration":593393,"Delta":271571471},{"NoteNumber":76,"Velocity":64,"Duration":197798,"SoundDuration":197798,"Delta":271769269},{"NoteNumber":74,"Velocity":66,"Duration":395596,"SoundDuration":395596,"Delta":271967067},{"NoteNumber":46,"Velocity":42,"Duration":799636,"SoundDuration":799636,"Delta":271967067},{"NoteNumber":55,"Velocity":49,"Duration":197798,"SoundDuration":197798,"Delta":272164865},{"NoteNumber":70,"Velocity":61,"Duration":197797,"SoundDuration":197797,"Delta":272362663},{"NoteNumber":57,"Velocity":51,"Duration":197797,"SoundDuration":197797,"Delta":272362663},{"NoteNumber":67,"Velocity":54,"Duration":206242,"SoundDuration":206242,"Delta":272560461},{"NoteNumber":58,"Velocity":55,"Duration":206242,"SoundDuration":206242,"Delta":272560461},{"NoteNumber":72,"Velocity":51,"Duration":396956,"SoundDuration":396956,"Delta":272766704},{"NoteNumber":60,"Velocity":41,"Duration":800227,"SoundDuration":800227,"Delta":272766704},{"NoteNumber":48,"Velocity":35,"Duration":1603239,"SoundDuration":1603239,"Delta":272766704},{"NoteNumber":57,"Velocity":35,"Duration":800227,"SoundDuration":800227,"Delta":272766704},{"NoteNumber":69,"Velocity":46,"Duration":198478,"SoundDuration":198478,"Delta":273163661},{"NoteNumber":65,"Velocity":46,"Duration":204791,"SoundDuration":204791,"Delta":273362139},{"NoteNumber":70,"Velocity":51,"Duration":398326,"SoundDuration":398326,"Delta":273566931},{"NoteNumber":55,"Velocity":33,"Duration":803011,"SoundDuration":803011,"Delta":273566931},{"NoteNumber":58,"Velocity":39,"Duration":803011,"SoundDuration":803011,"Delta":273566931},{"NoteNumber":67,"Velocity":46,"Duration":199163,"SoundDuration":199163,"Delta":273965258},{"NoteNumber":64,"Velocity":46,"Duration":205521,"SoundDuration":205521,"Delta":274164422},{"NoteNumber":65,"Velocity":55,"Duration":205521,"SoundDuration":205521,"Delta":274369943},{"NoteNumber":50,"Velocity":37,"Duration":412503,"SoundDuration":412503,"Delta":274369943},{"NoteNumber":53,"Velocity":37,"Duration":412503,"SoundDuration":412503,"Delta":274369943},{"NoteNumber":57,"Velocity":44,"Duration":412503,"SoundDuration":412503,"Delta":274369943},{"NoteNumber":65,"Velocity":68,"Duration":197797,"SoundDuration":197797,"Delta":274782447},{"NoteNumber":33,"Velocity":42,"Duration":395596,"SoundDuration":395596,"Delta":274782447},{"NoteNumber":41,"Velocity":51,"Duration":593393,"SoundDuration":593393,"Delta":274782447},{"NoteNumber":64,"Velocity":63,"Duration":197798,"SoundDuration":197798,"Delta":274980245},{"NoteNumber":62,"Velocity":66,"Duration":395596,"SoundDuration":395596,"Delta":275178043},{"NoteNumber":34,"Velocity":42,"Duration":799636,"SoundDuration":799636,"Delta":275178043},{"NoteNumber":43,"Velocity":49,"Duration":197798,"SoundDuration":197798,"Delta":275375841},{"NoteNumber":58,"Velocity":61,"Duration":197797,"SoundDuration":197797,"Delta":275573639},{"NoteNumber":45,"Velocity":51,"Duration":197797,"SoundDuration":197797,"Delta":275573639},{"NoteNumber":55,"Velocity":54,"Duration":206242,"SoundDuration":206242,"Delta":275771437},{"NoteNumber":46,"Velocity":55,"Duration":206242,"SoundDuration":206242,"Delta":275771437},{"NoteNumber":60,"Velocity":51,"Duration":396956,"SoundDuration":396956,"Delta":275977679},{"NoteNumber":48,"Velocity":41,"Duration":800227,"SoundDuration":800227,"Delta":275977679},{"NoteNumber":36,"Velocity":35,"Duration":1603239,"SoundDuration":1603239,"Delta":275977679},{"NoteNumber":45,"Velocity":35,"Duration":800227,"SoundDuration":800227,"Delta":275977679},{"NoteNumber":57,"Velocity":46,"Duration":198478,"SoundDuration":198478,"Delta":276374636},{"NoteNumber":53,"Velocity":46,"Duration":204791,"SoundDuration":204791,"Delta":276573115},{"NoteNumber":58,"Velocity":51,"Duration":398326,"SoundDuration":398326,"Delta":276777907},{"NoteNumber":43,"Velocity":33,"Duration":803011,"SoundDuration":803011,"Delta":276777907},{"NoteNumber":46,"Velocity":39,"Duration":803011,"SoundDuration":803011,"Delta":276777907},{"NoteNumber":55,"Velocity":46,"Duration":199163,"SoundDuration":199163,"Delta":277176234},{"NoteNumber":52,"Velocity":46,"Duration":205521,"SoundDuration":205521,"Delta":277375397},{"NoteNumber":45,"Velocity":33,"Duration":93475,"SoundDuration":93475,"Delta":277580919},{"NoteNumber":53,"Velocity":40,"Duration":186951,"SoundDuration":186951,"Delta":277580919},{"NoteNumber":41,"Velocity":28,"Duration":93475,"SoundDuration":93475,"Delta":277580919},{"NoteNumber":29,"Velocity":25,"Duration":93475,"SoundDuration":93475,"Delta":277580919},{"NoteNumber":41,"Velocity":28,"Duration":93475,"SoundDuration":93475,"Delta":277767870},{"NoteNumber":45,"Velocity":33,"Duration":93475,"SoundDuration":93475,"Delta":277767870},{"NoteNumber":36,"Velocity":26,"Duration":93475,"SoundDuration":93475,"Delta":277767870},{"NoteNumber":29,"Velocity":22,"Duration":93475,"SoundDuration":93475,"Delta":277767870},{"NoteNumber":41,"Velocity":28,"Duration":92879,"SoundDuration":92879,"Delta":277954821},{"NoteNumber":45,"Velocity":33,"Duration":92879,"SoundDuration":92879,"Delta":277954821},{"NoteNumber":36,"Velocity":26,"Duration":92879,"SoundDuration":92879,"Delta":277954821},{"NoteNumber":29,"Velocity":22,"Duration":92879,"SoundDuration":92879,"Delta":277954821},{"NoteNumber":41,"Velocity":28,"Duration":92879,"SoundDuration":92879,"Delta":278140579},{"NoteNumber":45,"Velocity":34,"Duration":92879,"SoundDuration":92879,"Delta":278140579},{"NoteNumber":36,"Velocity":27,"Duration":92879,"SoundDuration":92879,"Delta":278140579},{"NoteNumber":29,"Velocity":22,"Duration":92879,"SoundDuration":92879,"Delta":278140579},{"NoteNumber":41,"Velocity":28,"Duration":93629,"SoundDuration":93629,"Delta":278326338},{"NoteNumber":45,"Velocity":34,"Duration":93629,"SoundDuration":93629,"Delta":278326338},{"NoteNumber":36,"Velocity":27,"Duration":93629,"SoundDuration":93629,"Delta":278326338},{"NoteNumber":29,"Velocity":22,"Duration":93629,"SoundDuration":93629,"Delta":278326338},{"NoteNumber":41,"Velocity":28,"Duration":93779,"SoundDuration":93779,"Delta":278513746},{"NoteNumber":45,"Velocity":34,"Duration":93779,"SoundDuration":93779,"Delta":278513746},{"NoteNumber":36,"Velocity":28,"Duration":93779,"SoundDuration":93779,"Delta":278513746},{"NoteNumber":29,"Velocity":23,"Duration":93779,"SoundDuration":93779,"Delta":278513746},{"NoteNumber":41,"Velocity":29,"Duration":93173,"SoundDuration":93173,"Delta":278701305},{"NoteNumber":45,"Velocity":35,"Duration":93173,"SoundDuration":93173,"Delta":278701305},{"NoteNumber":36,"Velocity":28,"Duration":93173,"SoundDuration":93173,"Delta":278701305},{"NoteNumber":29,"Velocity":23,"Duration":93173,"SoundDuration":93173,"Delta":278701305},{"NoteNumber":41,"Velocity":29,"Duration":93173,"SoundDuration":93173,"Delta":278887652},{"NoteNumber":45,"Velocity":35,"Duration":93173,"SoundDuration":93173,"Delta":278887652},{"NoteNumber":36,"Velocity":29,"Duration":93173,"SoundDuration":93173,"Delta":278887652},{"NoteNumber":29,"Velocity":24,"Duration":93173,"SoundDuration":93173,"Delta":278887652},{"NoteNumber":41,"Velocity":30,"Duration":93374,"SoundDuration":93374,"Delta":279073999},{"NoteNumber":45,"Velocity":36,"Duration":93374,"SoundDuration":93374,"Delta":279073999},{"NoteNumber":29,"Velocity":25,"Duration":93374,"SoundDuration":93374,"Delta":279073999},{"NoteNumber":36,"Velocity":30,"Duration":93374,"SoundDuration":93374,"Delta":279073999},{"NoteNumber":41,"Velocity":30,"Duration":93475,"SoundDuration":93475,"Delta":279260849},{"NoteNumber":45,"Velocity":36,"Duration":93475,"SoundDuration":93475,"Delta":279260849},{"NoteNumber":29,"Velocity":22,"Duration":93475,"SoundDuration":93475,"Delta":279260849},{"NoteNumber":36,"Velocity":27,"Duration":93475,"SoundDuration":93475,"Delta":279260849},{"NoteNumber":41,"Velocity":31,"Duration":93173,"SoundDuration":93173,"Delta":279447800},{"NoteNumber":45,"Velocity":37,"Duration":93173,"SoundDuration":93173,"Delta":279447800},{"NoteNumber":29,"Velocity":23,"Duration":93173,"SoundDuration":93173,"Delta":279447800},{"NoteNumber":36,"Velocity":28,"Duration":93173,"SoundDuration":93173,"Delta":279447800},{"NoteNumber":41,"Velocity":32,"Duration":93173,"SoundDuration":93173,"Delta":279634147},{"NoteNumber":45,"Velocity":38,"Duration":93173,"SoundDuration":93173,"Delta":279634147},{"NoteNumber":29,"Velocity":24,"Duration":93173,"SoundDuration":93173,"Delta":279634147},{"NoteNumber":36,"Velocity":29,"Duration":93173,"SoundDuration":93173,"Delta":279634147},{"NoteNumber":41,"Velocity":33,"Duration":93475,"SoundDuration":93475,"Delta":279820494},{"NoteNumber":45,"Velocity":39,"Duration":93475,"SoundDuration":93475,"Delta":279820494},{"NoteNumber":29,"Velocity":25,"Duration":93475,"SoundDuration":93475,"Delta":279820494},{"NoteNumber":36,"Velocity":30,"Duration":93475,"SoundDuration":93475,"Delta":279820494},{"NoteNumber":41,"Velocity":34,"Duration":93475,"SoundDuration":93475,"Delta":280007445},{"NoteNumber":45,"Velocity":40,"Duration":93475,"SoundDuration":93475,"Delta":280007445},{"NoteNumber":29,"Velocity":25,"Duration":93475,"SoundDuration":93475,"Delta":280007445},{"NoteNumber":36,"Velocity":30,"Duration":93475,"SoundDuration":93475,"Delta":280007445},{"NoteNumber":43,"Velocity":34,"Duration":93475,"SoundDuration":93475,"Delta":280194396},{"NoteNumber":47,"Velocity":40,"Duration":93475,"SoundDuration":93475,"Delta":280194396},{"NoteNumber":29,"Velocity":25,"Duration":93475,"SoundDuration":93475,"Delta":280194396},{"NoteNumber":38,"Velocity":30,"Duration":93475,"SoundDuration":93475,"Delta":280194396},{"NoteNumber":43,"Velocity":34,"Duration":93475,"SoundDuration":93475,"Delta":280381347},{"NoteNumber":47,"Velocity":40,"Duration":93475,"SoundDuration":93475,"Delta":280381347},{"NoteNumber":29,"Velocity":25,"Duration":93475,"SoundDuration":93475,"Delta":280381347},{"NoteNumber":38,"Velocity":30,"Duration":93475,"SoundDuration":93475,"Delta":280381347},{"NoteNumber":48,"Velocity":46,"Duration":560853,"SoundDuration":560853,"Delta":280568298},{"NoteNumber":40,"Velocity":25,"Duration":140213,"SoundDuration":140213,"Delta":280568298},{"NoteNumber":43,"Velocity":30,"Duration":140213,"SoundDuration":140213,"Delta":280568298},{"NoteNumber":40,"Velocity":25,"Duration":140213,"SoundDuration":140213,"Delta":280755249},{"NoteNumber":43,"Velocity":30,"Duration":140213,"SoundDuration":140213,"Delta":280755249},{"NoteNumber":40,"Velocity":25,"Duration":140213,"SoundDuration":140213,"Delta":280942200},{"NoteNumber":43,"Velocity":30,"Duration":140213,"SoundDuration":140213,"Delta":280942200},{"NoteNumber":52,"Velocity":40,"Duration":93475,"SoundDuration":93475,"Delta":281129151},{"NoteNumber":40,"Velocity":25,"Duration":140213,"SoundDuration":140213,"Delta":281129151},{"NoteNumber":43,"Velocity":30,"Duration":140213,"SoundDuration":140213,"Delta":281129151},{"NoteNumber":50,"Velocity":40,"Duration":93475,"SoundDuration":93475,"Delta":281222627},{"NoteNumber":48,"Velocity":45,"Duration":93475,"SoundDuration":93475,"Delta":281316102},{"NoteNumber":40,"Velocity":25,"Duration":140213,"SoundDuration":140213,"Delta":281316102},{"NoteNumber":43,"Velocity":30,"Duration":140213,"SoundDuration":140213,"Delta":281316102},{"NoteNumber":40,"Velocity":25,"Duration":140213,"SoundDuration":140213,"Delta":281503053},{"NoteNumber":43,"Velocity":30,"Duration":140213,"SoundDuration":140213,"Delta":281503053},{"NoteNumber":40,"Velocity":25,"Duration":140213,"SoundDuration":140213,"Delta":281690004},{"NoteNumber":43,"Velocity":30,"Duration":140213,"SoundDuration":140213,"Delta":281690004},{"NoteNumber":40,"Velocity":25,"Duration":143926,"SoundDuration":143926,"Delta":281876955},{"NoteNumber":43,"Velocity":30,"Duration":143926,"SoundDuration":143926,"Delta":281876955},{"NoteNumber":78,"Velocity":46,"Duration":47975,"SoundDuration":47975,"Delta":282020881},{"NoteNumber":79,"Velocity":57,"Duration":467377,"SoundDuration":467377,"Delta":282068857},{"NoteNumber":39,"Velocity":25,"Duration":140213,"SoundDuration":140213,"Delta":282068857},{"NoteNumber":43,"Velocity":30,"Duration":140213,"SoundDuration":140213,"Delta":282068857},{"NoteNumber":39,"Velocity":25,"Duration":140213,"SoundDuration":140213,"Delta":282255808},{"NoteNumber":43,"Velocity":30,"Duration":140213,"SoundDuration":140213,"Delta":282255808},{"NoteNumber":39,"Velocity":25,"Duration":140213,"SoundDuration":140213,"Delta":282442759},{"NoteNumber":43,"Velocity":30,"Duration":140213,"SoundDuration":140213,"Delta":282442759},{"NoteNumber":77,"Velocity":48,"Duration":93475,"SoundDuration":93475,"Delta":282536234},{"NoteNumber":75,"Velocity":47,"Duration":93475,"SoundDuration":93475,"Delta":282629710},{"NoteNumber":39,"Velocity":25,"Duration":140213,"SoundDuration":140213,"Delta":282629710},{"NoteNumber":43,"Velocity":30,"Duration":140213,"SoundDuration":140213,"Delta":282629710},{"NoteNumber":74,"Velocity":45,"Duration":93475,"SoundDuration":93475,"Delta":282723185},{"NoteNumber":72,"Velocity":44,"Duration":186951,"SoundDuration":186951,"Delta":282816661},{"NoteNumber":39,"Velocity":25,"Duration":140213,"SoundDuration":140213,"Delta":282816661},{"NoteNumber":43,"Velocity":30,"Duration":140213,"SoundDuration":140213,"Delta":282816661},{"NoteNumber":39,"Velocity":25,"Duration":140213,"SoundDuration":140213,"Delta":283003612},{"NoteNumber":43,"Velocity":30,"Duration":140213,"SoundDuration":140213,"Delta":283003612},{"NoteNumber":39,"Velocity":25,"Duration":140213,"SoundDuration":140213,"Delta":283190563},{"NoteNumber":43,"Velocity":30,"Duration":140213,"SoundDuration":140213,"Delta":283190563},{"NoteNumber":39,"Velocity":25,"Duration":142984,"SoundDuration":142984,"Delta":283377514},{"NoteNumber":43,"Velocity":30,"Duration":142984,"SoundDuration":142984,"Delta":283377514},{"NoteNumber":54,"Velocity":46,"Duration":560853,"SoundDuration":560853,"Delta":283568159},{"NoteNumber":38,"Velocity":25,"Duration":140213,"SoundDuration":140213,"Delta":283568159},{"NoteNumber":45,"Velocity":30,"Duration":140213,"SoundDuration":140213,"Delta":283568159},{"NoteNumber":38,"Velocity":25,"Duration":140213,"SoundDuration":140213,"Delta":283755110},{"NoteNumber":45,"Velocity":30,"Duration":140213,"SoundDuration":140213,"Delta":283755110},{"NoteNumber":38,"Velocity":25,"Duration":140213,"SoundDuration":140213,"Delta":283942061},{"NoteNumber":45,"Velocity":30,"Duration":140213,"SoundDuration":140213,"Delta":283942061},{"NoteNumber":57,"Velocity":40,"Duration":91990,"SoundDuration":91990,"Delta":284129012},{"NoteNumber":38,"Velocity":25,"Duration":137986,"SoundDuration":137986,"Delta":284129012},{"NoteNumber":45,"Velocity":30,"Duration":137986,"SoundDuration":137986,"Delta":284129012},{"NoteNumber":55,"Velocity":40,"Duration":91990,"SoundDuration":91990,"Delta":284221003},{"NoteNumber":54,"Velocity":45,"Duration":95541,"SoundDuration":95541,"Delta":284312994},{"NoteNumber":38,"Velocity":25,"Duration":143312,"SoundDuration":143312,"Delta":284312994},{"NoteNumber":45,"Velocity":30,"Duration":143312,"SoundDuration":143312,"Delta":284312994},{"NoteNumber":38,"Velocity":25,"Duration":143312,"SoundDuration":143312,"Delta":284504077},{"NoteNumber":45,"Velocity":30,"Duration":143312,"SoundDuration":143312,"Delta":284504077},{"NoteNumber":38,"Velocity":25,"Duration":143312,"SoundDuration":143312,"Delta":284695160},{"NoteNumber":45,"Velocity":30,"Duration":143312,"SoundDuration":143312,"Delta":284695160},{"NoteNumber":38,"Velocity":25,"Duration":146579,"SoundDuration":146579,"Delta":284886243},{"NoteNumber":45,"Velocity":30,"Duration":146579,"SoundDuration":146579,"Delta":284886243},{"NoteNumber":86,"Velocity":46,"Duration":48859,"SoundDuration":48859,"Delta":285032822},{"NoteNumber":87,"Velocity":57,"Duration":466186,"SoundDuration":466186,"Delta":285081682},{"NoteNumber":42,"Velocity":25,"Duration":140213,"SoundDuration":140213,"Delta":285081682},{"NoteNumber":50,"Velocity":30,"Duration":140213,"SoundDuration":140213,"Delta":285081682},{"NoteNumber":42,"Velocity":25,"Duration":140213,"SoundDuration":140213,"Delta":285268633},{"NoteNumber":50,"Velocity":30,"Duration":140213,"SoundDuration":140213,"Delta":285268633},{"NoteNumber":42,"Velocity":25,"Duration":138427,"SoundDuration":138427,"Delta":285455584},{"NoteNumber":50,"Velocity":30,"Duration":138427,"SoundDuration":138427,"Delta":285455584},{"NoteNumber":86,"Velocity":48,"Duration":92285,"SoundDuration":92285,"Delta":285547869},{"NoteNumber":84,"Velocity":47,"Duration":92285,"SoundDuration":92285,"Delta":285640154},{"NoteNumber":42,"Velocity":25,"Duration":138427,"SoundDuration":138427,"Delta":285640154},{"NoteNumber":50,"Velocity":30,"Duration":138427,"SoundDuration":138427,"Delta":285640154},{"NoteNumber":82,"Velocity":45,"Duration":92285,"SoundDuration":92285,"Delta":285732439},{"NoteNumber":81,"Velocity":44,"Duration":189873,"SoundDuration":189873,"Delta":285824724},{"NoteNumber":42,"Velocity":25,"Duration":142405,"SoundDuration":142405,"Delta":285824724},{"NoteNumber":50,"Velocity":30,"Duration":142405,"SoundDuration":142405,"Delta":285824724},{"NoteNumber":42,"Velocity":25,"Duration":142405,"SoundDuration":142405,"Delta":286014598},{"NoteNumber":50,"Velocity":30,"Duration":142405,"SoundDuration":142405,"Delta":286014598},{"NoteNumber":42,"Velocity":25,"Duration":142405,"SoundDuration":142405,"Delta":286204471},{"NoteNumber":50,"Velocity":30,"Duration":142405,"SoundDuration":142405,"Delta":286204471},{"NoteNumber":42,"Velocity":25,"Duration":145631,"SoundDuration":145631,"Delta":286394345},{"NoteNumber":50,"Velocity":30,"Duration":145631,"SoundDuration":145631,"Delta":286394345},{"NoteNumber":58,"Velocity":57,"Duration":186951,"SoundDuration":186951,"Delta":286588520},{"NoteNumber":43,"Velocity":30,"Duration":128528,"SoundDuration":128528,"Delta":286588520},{"NoteNumber":50,"Velocity":26,"Duration":93475,"SoundDuration":93475,"Delta":286681995},{"NoteNumber":62,"Velocity":48,"Duration":91413,"SoundDuration":91413,"Delta":286775471},{"NoteNumber":43,"Velocity":30,"Duration":125693,"SoundDuration":125693,"Delta":286775471},{"NoteNumber":60,"Velocity":48,"Duration":91413,"SoundDuration":91413,"Delta":286866884},{"NoteNumber":50,"Velocity":27,"Duration":91413,"SoundDuration":91413,"Delta":286866884},{"NoteNumber":58,"Velocity":51,"Duration":186951,"SoundDuration":186951,"Delta":286958297},{"NoteNumber":43,"Velocity":30,"Duration":128528,"SoundDuration":128528,"Delta":286958297},{"NoteNumber":50,"Velocity":26,"Duration":93475,"SoundDuration":93475,"Delta":287051773},{"NoteNumber":43,"Velocity":30,"Duration":128528,"SoundDuration":128528,"Delta":287145248},{"NoteNumber":50,"Velocity":25,"Duration":93475,"SoundDuration":93475,"Delta":287238724},{"NoteNumber":84,"Velocity":54,"Duration":91990,"SoundDuration":91990,"Delta":287332199},{"NoteNumber":45,"Velocity":31,"Duration":126487,"SoundDuration":126487,"Delta":287332199},{"NoteNumber":82,"Velocity":52,"Duration":91990,"SoundDuration":91990,"Delta":287424190},{"NoteNumber":50,"Velocity":26,"Duration":91990,"SoundDuration":91990,"Delta":287424190},{"NoteNumber":81,"Velocity":50,"Duration":91990,"SoundDuration":91990,"Delta":287516181},{"NoteNumber":45,"Velocity":31,"Duration":126487,"SoundDuration":126487,"Delta":287516181},{"NoteNumber":79,"Velocity":48,"Duration":91990,"SoundDuration":91990,"Delta":287608171},{"NoteNumber":50,"Velocity":27,"Duration":91990,"SoundDuration":91990,"Delta":287608171},{"NoteNumber":78,"Velocity":51,"Duration":186951,"SoundDuration":186951,"Delta":287700162},{"NoteNumber":45,"Velocity":31,"Duration":128528,"SoundDuration":128528,"Delta":287700162},{"NoteNumber":50,"Velocity":28,"Duration":93475,"SoundDuration":93475,"Delta":287793638},{"NoteNumber":45,"Velocity":31,"Duration":128528,"SoundDuration":128528,"Delta":287887113},{"NoteNumber":50,"Velocity":27,"Duration":93475,"SoundDuration":93475,"Delta":287980589},{"NoteNumber":67,"Velocity":57,"Duration":186951,"SoundDuration":186951,"Delta":288074064},{"NoteNumber":46,"Velocity":30,"Duration":128528,"SoundDuration":128528,"Delta":288074064},{"NoteNumber":50,"Velocity":26,"Duration":93475,"SoundDuration":93475,"Delta":288167540},{"NoteNumber":70,"Velocity":48,"Duration":91413,"SoundDuration":91413,"Delta":288261015},{"NoteNumber":46,"Velocity":30,"Duration":125693,"SoundDuration":125693,"Delta":288261015},{"NoteNumber":69,"Velocity":48,"Duration":91413,"SoundDuration":91413,"Delta":288352428},{"NoteNumber":50,"Velocity":27,"Duration":91413,"SoundDuration":91413,"Delta":288352428},{"NoteNumber":67,"Velocity":51,"Duration":186951,"SoundDuration":186951,"Delta":288443842},{"NoteNumber":46,"Velocity":30,"Duration":128528,"SoundDuration":128528,"Delta":288443842},{"NoteNumber":50,"Velocity":26,"Duration":93475,"SoundDuration":93475,"Delta":288537317},{"NoteNumber":46,"Velocity":30,"Duration":130690,"SoundDuration":130690,"Delta":288630793},{"NoteNumber":50,"Velocity":25,"Duration":99239,"SoundDuration":99239,"Delta":288724268},{"NoteNumber":87,"Velocity":54,"Duration":91990,"SoundDuration":91990,"Delta":288823507},{"NoteNumber":42,"Velocity":31,"Duration":126487,"SoundDuration":126487,"Delta":288823507},{"NoteNumber":86,"Velocity":52,"Duration":91990,"SoundDuration":91990,"Delta":288915498},{"NoteNumber":50,"Velocity":26,"Duration":91990,"SoundDuration":91990,"Delta":288915498},{"NoteNumber":84,"Velocity":50,"Duration":91990,"SoundDuration":91990,"Delta":289007489},{"NoteNumber":42,"Velocity":31,"Duration":126487,"SoundDuration":126487,"Delta":289007489},{"NoteNumber":82,"Velocity":48,"Duration":91990,"SoundDuration":91990,"Delta":289099480},{"NoteNumber":50,"Velocity":27,"Duration":91990,"SoundDuration":91990,"Delta":289099480},{"NoteNumber":81,"Velocity":51,"Duration":186951,"SoundDuration":186951,"Delta":289191470},{"NoteNumber":42,"Velocity":31,"Duration":128528,"SoundDuration":128528,"Delta":289191470},{"NoteNumber":50,"Velocity":28,"Duration":93475,"SoundDuration":93475,"Delta":289284946},{"NoteNumber":42,"Velocity":31,"Duration":128528,"SoundDuration":128528,"Delta":289378421},{"NoteNumber":50,"Velocity":27,"Duration":93475,"SoundDuration":93475,"Delta":289471897},{"NoteNumber":58,"Velocity":59,"Duration":186951,"SoundDuration":186951,"Delta":289565372},{"NoteNumber":43,"Velocity":31,"Duration":128528,"SoundDuration":128528,"Delta":289565372},{"NoteNumber":50,"Velocity":27,"Duration":93475,"SoundDuration":93475,"Delta":289658848},{"NoteNumber":62,"Velocity":50,"Duration":91413,"SoundDuration":91413,"Delta":289752323},{"NoteNumber":43,"Velocity":31,"Duration":125693,"SoundDuration":125693,"Delta":289752323},{"NoteNumber":60,"Velocity":51,"Duration":91413,"SoundDuration":91413,"Delta":289843737},{"NoteNumber":50,"Velocity":29,"Duration":91413,"SoundDuration":91413,"Delta":289843737},{"NoteNumber":58,"Velocity":56,"Duration":186951,"SoundDuration":186951,"Delta":289935150},{"NoteNumber":43,"Velocity":32,"Duration":128528,"SoundDuration":128528,"Delta":289935150},{"NoteNumber":50,"Velocity":28,"Duration":93475,"SoundDuration":93475,"Delta":290028625},{"NoteNumber":43,"Velocity":34,"Duration":128528,"SoundDuration":128528,"Delta":290122101},{"NoteNumber":50,"Velocity":29,"Duration":93475,"SoundDuration":93475,"Delta":290215576},{"NoteNumber":84,"Velocity":63,"Duration":91990,"SoundDuration":91990,"Delta":290309052},{"NoteNumber":45,"Velocity":36,"Duration":126487,"SoundDuration":126487,"Delta":290309052},{"NoteNumber":82,"Velocity":63,"Duration":91990,"SoundDuration":91990,"Delta":290401043},{"NoteNumber":50,"Velocity":31,"Duration":91990,"SoundDuration":91990,"Delta":290401043},{"NoteNumber":81,"Velocity":62,"Duration":91990,"SoundDuration":91990,"Delta":290493033},{"NoteNumber":45,"Velocity":38,"Duration":126487,"SoundDuration":126487,"Delta":290493033},{"NoteNumber":79,"Velocity":60,"Duration":91990,"SoundDuration":91990,"Delta":290585024},{"NoteNumber":50,"Velocity":35,"Duration":91990,"SoundDuration":91990,"Delta":290585024},{"NoteNumber":78,"Velocity":64,"Duration":186951,"SoundDuration":186951,"Delta":290677015},{"NoteNumber":45,"Velocity":40,"Duration":128528,"SoundDuration":128528,"Delta":290677015},{"NoteNumber":50,"Velocity":37,"Duration":93475,"SoundDuration":93475,"Delta":290770490},{"NoteNumber":45,"Velocity":43,"Duration":128528,"SoundDuration":128528,"Delta":290863966},{"NoteNumber":50,"Velocity":38,"Duration":93475,"SoundDuration":93475,"Delta":290957441},{"NoteNumber":74,"Velocity":73,"Duration":91990,"SoundDuration":91990,"Delta":291050917},{"NoteNumber":46,"Velocity":45,"Duration":126487,"SoundDuration":126487,"Delta":291050917},{"NoteNumber":72,"Velocity":71,"Duration":91990,"SoundDuration":91990,"Delta":291142908},{"NoteNumber":50,"Velocity":39,"Duration":91990,"SoundDuration":91990,"Delta":291142908},{"NoteNumber":70,"Velocity":71,"Duration":91990,"SoundDuration":91990,"Delta":291234898},{"NoteNumber":46,"Velocity":48,"Duration":126487,"SoundDuration":126487,"Delta":291234898},{"NoteNumber":69,"Velocity":67,"Duration":91990,"SoundDuration":91990,"Delta":291326889},{"NoteNumber":50,"Velocity":42,"Duration":91990,"SoundDuration":91990,"Delta":291326889},{"NoteNumber":67,"Velocity":74,"Duration":196078,"SoundDuration":196078,"Delta":291418880},{"NoteNumber":46,"Velocity":50,"Duration":134803,"SoundDuration":134803,"Delta":291418880},{"NoteNumber":55,"Velocity":46,"Duration":98039,"SoundDuration":98039,"Delta":291516919},{"NoteNumber":46,"Velocity":54,"Duration":140670,"SoundDuration":140670,"Delta":291614958},{"NoteNumber":55,"Velocity":51,"Duration":105760,"SoundDuration":105760,"Delta":291715968},{"NoteNumber":80,"Velocity":87,"Duration":91990,"SoundDuration":91990,"Delta":291821729},{"NoteNumber":47,"Velocity":64,"Duration":126487,"SoundDuration":126487,"Delta":291821729},{"NoteNumber":79,"Velocity":83,"Duration":91990,"SoundDuration":91990,"Delta":291913720},{"NoteNumber":55,"Velocity":53,"Duration":91990,"SoundDuration":91990,"Delta":291913720},{"NoteNumber":77,"Velocity":81,"Duration":91990,"SoundDuration":91990,"Delta":292005710},{"NoteNumber":47,"Velocity":64,"Duration":126487,"SoundDuration":126487,"Delta":292005710},{"NoteNumber":75,"Velocity":78,"Duration":91990,"SoundDuration":91990,"Delta":292097701},{"NoteNumber":55,"Velocity":56,"Duration":91990,"SoundDuration":91990,"Delta":292097701},{"NoteNumber":74,"Velocity":83,"Duration":186951,"SoundDuration":186951,"Delta":292189692},{"NoteNumber":47,"Velocity":66,"Duration":128528,"SoundDuration":128528,"Delta":292189692},{"NoteNumber":55,"Velocity":59,"Duration":93475,"SoundDuration":93475,"Delta":292283167},{"NoteNumber":47,"Velocity":66,"Duration":128528,"SoundDuration":128528,"Delta":292376643},{"NoteNumber":55,"Velocity":57,"Duration":93475,"SoundDuration":93475,"Delta":292470118},{"NoteNumber":63,"Velocity":57,"Duration":186951,"SoundDuration":186951,"Delta":292563594},{"NoteNumber":48,"Velocity":30,"Duration":128528,"SoundDuration":128528,"Delta":292563594},{"NoteNumber":55,"Velocity":26,"Duration":93475,"SoundDuration":93475,"Delta":292657069},{"NoteNumber":67,"Velocity":48,"Duration":91413,"SoundDuration":91413,"Delta":292750545},{"NoteNumber":48,"Velocity":30,"Duration":125693,"SoundDuration":125693,"Delta":292750545},{"NoteNumber":65,"Velocity":48,"Duration":91413,"SoundDuration":91413,"Delta":292841958},{"NoteNumber":55,"Velocity":27,"Duration":91413,"SoundDuration":91413,"Delta":292841958},{"NoteNumber":63,"Velocity":51,"Duration":186951,"SoundDuration":186951,"Delta":292933371},{"NoteNumber":48,"Velocity":30,"Duration":128528,"SoundDuration":128528,"Delta":292933371},{"NoteNumber":55,"Velocity":26,"Duration":93475,"SoundDuration":93475,"Delta":293026847},{"NoteNumber":48,"Velocity":30,"Duration":128528,"SoundDuration":128528,"Delta":293120322},{"NoteNumber":55,"Velocity":25,"Duration":93475,"SoundDuration":93475,"Delta":293213798},{"NoteNumber":77,"Velocity":54,"Duration":91990,"SoundDuration":91990,"Delta":293307273},{"NoteNumber":50,"Velocity":31,"Duration":126487,"SoundDuration":126487,"Delta":293307273},{"NoteNumber":75,"Velocity":52,"Duration":91990,"SoundDuration":91990,"Delta":293399264},{"NoteNumber":55,"Velocity":26,"Duration":91990,"SoundDuration":91990,"Delta":293399264},{"NoteNumber":74,"Velocity":50,"Duration":91990,"SoundDuration":91990,"Delta":293491255},{"NoteNumber":50,"Velocity":31,"Duration":126487,"SoundDuration":126487,"Delta":293491255},{"NoteNumber":72,"Velocity":48,"Duration":91990,"SoundDuration":91990,"Delta":293583246},{"NoteNumber":55,"Velocity":27,"Duration":91990,"SoundDuration":91990,"Delta":293583246},{"NoteNumber":71,"Velocity":51,"Duration":186951,"SoundDuration":186951,"Delta":293675236},{"NoteNumber":50,"Velocity":31,"Duration":128528,"SoundDuration":128528,"Delta":293675236},{"NoteNumber":55,"Velocity":28,"Duration":93475,"SoundDuration":93475,"Delta":293768712},{"NoteNumber":50,"Velocity":31,"Duration":128528,"SoundDuration":128528,"Delta":293862187},{"NoteNumber":55,"Velocity":27,"Duration":93475,"SoundDuration":93475,"Delta":293955663},{"NoteNumber":60,"Velocity":57,"Duration":186951,"SoundDuration":186951,"Delta":294049138},{"NoteNumber":51,"Velocity":30,"Duration":128528,"SoundDuration":128528,"Delta":294049138},{"NoteNumber":55,"Velocity":26,"Duration":93475,"SoundDuration":93475,"Delta":294142614},{"NoteNumber":63,"Velocity":48,"Duration":91413,"SoundDuration":91413,"Delta":294236089},{"NoteNumber":51,"Velocity":30,"Duration":125693,"SoundDuration":125693,"Delta":294236089},{"NoteNumber":62,"Velocity":48,"Duration":91413,"SoundDuration":91413,"Delta":294327503},{"NoteNumber":55,"Velocity":27,"Duration":91413,"SoundDuration":91413,"Delta":294327503},{"NoteNumber":60,"Velocity":51,"Duration":192307,"SoundDuration":192307,"Delta":294418916},{"NoteNumber":51,"Velocity":30,"Duration":132211,"SoundDuration":132211,"Delta":294418916},{"NoteNumber":55,"Velocity":26,"Duration":96153,"SoundDuration":96153,"Delta":294515070},{"NoteNumber":51,"Velocity":30,"Duration":134681,"SoundDuration":134681,"Delta":294611223},{"NoteNumber":55,"Velocity":25,"Duration":102739,"SoundDuration":102739,"Delta":294707377},{"NoteNumber":80,"Velocity":54,"Duration":91990,"SoundDuration":91990,"Delta":294810117},{"NoteNumber":47,"Velocity":31,"Duration":126487,"SoundDuration":126487,"Delta":294810117},{"NoteNumber":79,"Velocity":52,"Duration":91990,"SoundDuration":91990,"Delta":294902108},{"NoteNumber":55,"Velocity":26,"Duration":91990,"SoundDuration":91990,"Delta":294902108},{"NoteNumber":77,"Velocity":50,"Duration":91990,"SoundDuration":91990,"Delta":294994098},{"NoteNumber":47,"Velocity":31,"Duration":126487,"SoundDuration":126487,"Delta":294994098},{"NoteNumber":75,"Velocity":48,"Duration":91990,"SoundDuration":91990,"Delta":295086089},{"NoteNumber":55,"Velocity":27,"Duration":91990,"SoundDuration":91990,"Delta":295086089},{"NoteNumber":74,"Velocity":51,"Duration":186951,"SoundDuration":186951,"Delta":295178080},{"NoteNumber":47,"Velocity":31,"Duration":128528,"SoundDuration":128528,"Delta":295178080},{"NoteNumber":55,"Velocity":28,"Duration":93475,"SoundDuration":93475,"Delta":295271555},{"NoteNumber":47,"Velocity":31,"Duration":128528,"SoundDuration":128528,"Delta":295365031},{"NoteNumber":55,"Velocity":27,"Duration":93475,"SoundDuration":93475,"Delta":295458506},{"NoteNumber":63,"Velocity":59,"Duration":186951,"SoundDuration":186951,"Delta":295551982},{"NoteNumber":48,"Velocity":31,"Duration":128528,"SoundDuration":128528,"Delta":295551982},{"NoteNumber":55,"Velocity":27,"Duration":93475,"SoundDuration":93475,"Delta":295645457},{"NoteNumber":67,"Velocity":50,"Duration":91413,"SoundDuration":91413,"Delta":295738933},{"NoteNumber":48,"Velocity":31,"Duration":125693,"SoundDuration":125693,"Delta":295738933},{"NoteNumber":65,"Velocity":51,"Duration":91413,"SoundDuration":91413,"Delta":295830346},{"NoteNumber":55,"Velocity":29,"Duration":91413,"SoundDuration":91413,"Delta":295830346},{"NoteNumber":63,"Velocity":56,"Duration":186951,"SoundDuration":186951,"Delta":295921759},{"NoteNumber":48,"Velocity":32,"Duration":128528,"SoundDuration":128528,"Delta":295921759},{"NoteNumber":55,"Velocity":28,"Duration":93475,"SoundDuration":93475,"Delta":296015235},{"NoteNumber":48,"Velocity":34,"Duration":128528,"SoundDuration":128528,"Delta":296108710},{"NoteNumber":55,"Velocity":29,"Duration":93475,"SoundDuration":93475,"Delta":296202186},{"NoteNumber":77,"Velocity":63,"Duration":91990,"SoundDuration":91990,"Delta":296295661},{"NoteNumber":50,"Velocity":36,"Duration":126487,"SoundDuration":126487,"Delta":296295661},{"NoteNumber":75,"Velocity":63,"Duration":91990,"SoundDuration":91990,"Delta":296387652},{"NoteNumber":55,"Velocity":31,"Duration":91990,"SoundDuration":91990,"Delta":296387652},{"NoteNumber":74,"Velocity":62,"Duration":91990,"SoundDuration":91990,"Delta":296479643},{"NoteNumber":50,"Velocity":38,"Duration":126487,"SoundDuration":126487,"Delta":296479643},{"NoteNumber":72,"Velocity":60,"Duration":91990,"SoundDuration":91990,"Delta":296571634},{"NoteNumber":55,"Velocity":35,"Duration":91990,"SoundDuration":91990,"Delta":296571634},{"NoteNumber":71,"Velocity":64,"Duration":186951,"SoundDuration":186951,"Delta":296663624},{"NoteNumber":50,"Velocity":40,"Duration":128528,"SoundDuration":128528,"Delta":296663624},{"NoteNumber":55,"Velocity":37,"Duration":93475,"SoundDuration":93475,"Delta":296757100},{"NoteNumber":50,"Velocity":43,"Duration":128528,"SoundDuration":128528,"Delta":296850575},{"NoteNumber":55,"Velocity":38,"Duration":93475,"SoundDuration":93475,"Delta":296944051},{"NoteNumber":79,"Velocity":73,"Duration":91990,"SoundDuration":91990,"Delta":297037526},{"NoteNumber":51,"Velocity":45,"Duration":126487,"SoundDuration":126487,"Delta":297037526},{"NoteNumber":77,"Velocity":71,"Duration":91990,"SoundDuration":91990,"Delta":297129517},{"NoteNumber":55,"Velocity":39,"Duration":91990,"SoundDuration":91990,"Delta":297129517},{"NoteNumber":75,"Velocity":71,"Duration":91990,"SoundDuration":91990,"Delta":297221508},{"NoteNumber":51,"Velocity":48,"Duration":126487,"SoundDuration":126487,"Delta":297221508},{"NoteNumber":74,"Velocity":67,"Duration":91990,"SoundDuration":91990,"Delta":297313499},{"NoteNumber":55,"Velocity":42,"Duration":91990,"SoundDuration":91990,"Delta":297313499},{"NoteNumber":72,"Velocity":74,"Duration":194174,"SoundDuration":194174,"Delta":297405489},{"NoteNumber":51,"Velocity":50,"Duration":133495,"SoundDuration":133495,"Delta":297405489},{"NoteNumber":60,"Velocity":46,"Duration":97087,"SoundDuration":97087,"Delta":297502577},{"NoteNumber":51,"Velocity":54,"Duration":142049,"SoundDuration":142049,"Delta":297599664},{"NoteNumber":60,"Velocity":47,"Duration":105760,"SoundDuration":105760,"Delta":297702053},{"NoteNumber":85,"Velocity":87,"Duration":91990,"SoundDuration":91990,"Delta":297807814},{"NoteNumber":52,"Velocity":64,"Duration":126487,"SoundDuration":126487,"Delta":297807814},{"NoteNumber":84,"Velocity":83,"Duration":91990,"SoundDuration":91990,"Delta":297899805},{"NoteNumber":60,"Velocity":53,"Duration":91990,"SoundDuration":91990,"Delta":297899805},{"NoteNumber":82,"Velocity":81,"Duration":91990,"SoundDuration":91990,"Delta":297991795},{"NoteNumber":52,"Velocity":64,"Duration":126487,"SoundDuration":126487,"Delta":297991795},{"NoteNumber":80,"Velocity":78,"Duration":91990,"SoundDuration":91990,"Delta":298083786},{"NoteNumber":60,"Velocity":56,"Duration":91990,"SoundDuration":91990,"Delta":298083786},{"NoteNumber":79,"Velocity":83,"Duration":186951,"SoundDuration":186951,"Delta":298175777},{"NoteNumber":52,"Velocity":66,"Duration":128528,"SoundDuration":128528,"Delta":298175777},{"NoteNumber":60,"Velocity":59,"Duration":93475,"SoundDuration":93475,"Delta":298269252},{"NoteNumber":52,"Velocity":66,"Duration":153848,"SoundDuration":153848,"Delta":298362728},{"NoteNumber":60,"Velocity":57,"Duration":160996,"SoundDuration":160996,"Delta":298456203},{"NoteNumber":80,"Velocity":48,"Duration":191192,"SoundDuration":191192,"Delta":298617199},{"NoteNumber":53,"Velocity":25,"Duration":95596,"SoundDuration":95596,"Delta":298617199},{"NoteNumber":56,"Velocity":22,"Duration":95596,"SoundDuration":95596,"Delta":298712796},{"NoteNumber":84,"Velocity":40,"Duration":93486,"SoundDuration":93486,"Delta":298808392},{"NoteNumber":60,"Velocity":22,"Duration":93486,"SoundDuration":93486,"Delta":298808392},{"NoteNumber":82,"Velocity":40,"Duration":93487,"SoundDuration":93487,"Delta":298901879},{"NoteNumber":65,"Velocity":22,"Duration":93487,"SoundDuration":93487,"Delta":298901879},{"NoteNumber":80,"Velocity":43,"Duration":191192,"SoundDuration":191192,"Delta":298995366},{"NoteNumber":53,"Velocity":25,"Duration":95596,"SoundDuration":95596,"Delta":298995366},{"NoteNumber":56,"Velocity":22,"Duration":95596,"SoundDuration":95596,"Delta":299090962},{"NoteNumber":60,"Velocity":22,"Duration":95596,"SoundDuration":95596,"Delta":299186558},{"NoteNumber":65,"Velocity":22,"Duration":95596,"SoundDuration":95596,"Delta":299282155},{"NoteNumber":85,"Velocity":48,"Duration":188170,"SoundDuration":188170,"Delta":299377751},{"NoteNumber":53,"Velocity":26,"Duration":94085,"SoundDuration":94085,"Delta":299377751},{"NoteNumber":58,"Velocity":22,"Duration":94085,"SoundDuration":94085,"Delta":299471836},{"NoteNumber":89,"Velocity":40,"Duration":94085,"SoundDuration":94085,"Delta":299565921},{"NoteNumber":61,"Velocity":22,"Duration":94085,"SoundDuration":94085,"Delta":299565921},{"NoteNumber":87,"Velocity":40,"Duration":94085,"SoundDuration":94085,"Delta":299660007},{"NoteNumber":65,"Velocity":22,"Duration":94085,"SoundDuration":94085,"Delta":299660007},{"NoteNumber":85,"Velocity":43,"Duration":191192,"SoundDuration":191192,"Delta":299754092},{"NoteNumber":53,"Velocity":26,"Duration":95596,"SoundDuration":95596,"Delta":299754092},{"NoteNumber":58,"Velocity":23,"Duration":95596,"SoundDuration":95596,"Delta":299849688},{"NoteNumber":61,"Velocity":22,"Duration":95596,"SoundDuration":95596,"Delta":299945284},{"NoteNumber":65,"Velocity":22,"Duration":95596,"SoundDuration":95596,"Delta":300040881},{"NoteNumber":66,"Velocity":40,"Duration":191192,"SoundDuration":191192,"Delta":300136477},{"NoteNumber":52,"Velocity":25,"Duration":95596,"SoundDuration":95596,"Delta":300136477},{"NoteNumber":54,"Velocity":22,"Duration":95596,"SoundDuration":95596,"Delta":300232073},{"NoteNumber":70,"Velocity":34,"Duration":93486,"SoundDuration":93486,"Delta":300327669},{"NoteNumber":58,"Velocity":22,"Duration":93486,"SoundDuration":93486,"Delta":300327669},{"NoteNumber":68,"Velocity":34,"Duration":93487,"SoundDuration":93487,"Delta":300421156},{"NoteNumber":61,"Velocity":22,"Duration":93487,"SoundDuration":93487,"Delta":300421156},{"NoteNumber":66,"Velocity":36,"Duration":191192,"SoundDuration":191192,"Delta":300514643},{"NoteNumber":52,"Velocity":25,"Duration":95596,"SoundDuration":95596,"Delta":300514643},{"NoteNumber":54,"Velocity":22,"Duration":95596,"SoundDuration":95596,"Delta":300610240},{"NoteNumber":58,"Velocity":22,"Duration":95596,"SoundDuration":95596,"Delta":300705836},{"NoteNumber":61,"Velocity":22,"Duration":126113,"SoundDuration":126113,"Delta":300801432},{"NoteNumber":71,"Velocity":40,"Duration":819935,"SoundDuration":819935,"Delta":300927546},{"NoteNumber":51,"Velocity":26,"Duration":94085,"SoundDuration":94085,"Delta":300927546},{"NoteNumber":54,"Velocity":22,"Duration":94085,"SoundDuration":94085,"Delta":301021631},{"NoteNumber":59,"Velocity":22,"Duration":94085,"SoundDuration":94085,"Delta":301115717},{"NoteNumber":63,"Velocity":22,"Duration":94085,"SoundDuration":94085,"Delta":301209802},{"NoteNumber":51,"Velocity":26,"Duration":95596,"SoundDuration":95596,"Delta":301303887},{"NoteNumber":54,"Velocity":23,"Duration":95596,"SoundDuration":95596,"Delta":301399483},{"NoteNumber":59,"Velocity":22,"Duration":95596,"SoundDuration":95596,"Delta":301495080},{"NoteNumber":63,"Velocity":22,"Duration":156805,"SoundDuration":156805,"Delta":301590676},{"NoteNumber":77,"Velocity":48,"Duration":192801,"SoundDuration":192801,"Delta":301747481},{"NoteNumber":51,"Velocity":25,"Duration":96401,"SoundDuration":96401,"Delta":301747481},{"NoteNumber":53,"Velocity":22,"Duration":96400,"SoundDuration":96400,"Delta":301843882},{"NoteNumber":81,"Velocity":40,"Duration":94274,"SoundDuration":94274,"Delta":301940283},{"NoteNumber":57,"Velocity":22,"Duration":94274,"SoundDuration":94274,"Delta":301940283},{"NoteNumber":79,"Velocity":40,"Duration":94274,"SoundDuration":94274,"Delta":302034558},{"NoteNumber":60,"Velocity":22,"Duration":94274,"SoundDuration":94274,"Delta":302034558},{"NoteNumber":77,"Velocity":43,"Duration":192801,"SoundDuration":192801,"Delta":302128832},{"NoteNumber":51,"Velocity":25,"Duration":96401,"SoundDuration":96401,"Delta":302128832},{"NoteNumber":53,"Velocity":22,"Duration":96400,"SoundDuration":96400,"Delta":302225233},{"NoteNumber":57,"Velocity":22,"Duration":96401,"SoundDuration":96401,"Delta":302321634},{"NoteNumber":60,"Velocity":22,"Duration":96401,"SoundDuration":96401,"Delta":302418035},{"NoteNumber":82,"Velocity":48,"Duration":189741,"SoundDuration":189741,"Delta":302514436},{"NoteNumber":49,"Velocity":26,"Duration":94870,"SoundDuration":94870,"Delta":302514436},{"NoteNumber":53,"Velocity":22,"Duration":94870,"SoundDuration":94870,"Delta":302609307},{"NoteNumber":85,"Velocity":40,"Duration":94870,"SoundDuration":94870,"Delta":302704178},{"NoteNumber":58,"Velocity":22,"Duration":94870,"SoundDuration":94870,"Delta":302704178},{"NoteNumber":84,"Velocity":40,"Duration":94870,"SoundDuration":94870,"Delta":302799048},{"NoteNumber":61,"Velocity":22,"Duration":94870,"SoundDuration":94870,"Delta":302799048},{"NoteNumber":82,"Velocity":43,"Duration":192801,"SoundDuration":192801,"Delta":302893919},{"NoteNumber":49,"Velocity":26,"Duration":96401,"SoundDuration":96401,"Delta":302893919},{"NoteNumber":53,"Velocity":23,"Duration":96400,"SoundDuration":96400,"Delta":302990320},{"NoteNumber":58,"Velocity":22,"Duration":96401,"SoundDuration":96401,"Delta":303086721},{"NoteNumber":61,"Velocity":22,"Duration":96401,"SoundDuration":96401,"Delta":303183122},{"NoteNumber":63,"Velocity":40,"Duration":192801,"SoundDuration":192801,"Delta":303279523},{"NoteNumber":49,"Velocity":25,"Duration":96401,"SoundDuration":96401,"Delta":303279523},{"NoteNumber":51,"Velocity":22,"Duration":96400,"SoundDuration":96400,"Delta":303375924},{"NoteNumber":67,"Velocity":34,"Duration":94274,"SoundDuration":94274,"Delta":303472325},{"NoteNumber":55,"Velocity":22,"Duration":94274,"SoundDuration":94274,"Delta":303472325},{"NoteNumber":65,"Velocity":34,"Duration":94274,"SoundDuration":94274,"Delta":303566600},{"NoteNumber":58,"Velocity":22,"Duration":94274,"SoundDuration":94274,"Delta":303566600},{"NoteNumber":63,"Velocity":36,"Duration":192801,"SoundDuration":192801,"Delta":303660874},{"NoteNumber":49,"Velocity":25,"Duration":96401,"SoundDuration":96401,"Delta":303660874},{"NoteNumber":51,"Velocity":22,"Duration":96400,"SoundDuration":96400,"Delta":303757275},{"NoteNumber":55,"Velocity":22,"Duration":96401,"SoundDuration":96401,"Delta":303853676},{"NoteNumber":58,"Velocity":22,"Duration":127172,"SoundDuration":127172,"Delta":303950077},{"NoteNumber":68,"Velocity":40,"Duration":765086,"SoundDuration":765086,"Delta":304077250},{"NoteNumber":48,"Velocity":26,"Duration":94870,"SoundDuration":94870,"Delta":304077250},{"NoteNumber":51,"Velocity":22,"Duration":94870,"SoundDuration":94870,"Delta":304172120},{"NoteNumber":56,"Velocity":22,"Duration":94870,"SoundDuration":94870,"Delta":304266991},{"NoteNumber":60,"Velocity":22,"Duration":94870,"SoundDuration":94870,"Delta":304361862},{"NoteNumber":48,"Velocity":26,"Duration":96401,"SoundDuration":96401,"Delta":304456733},{"NoteNumber":51,"Velocity":23,"Duration":96400,"SoundDuration":96400,"Delta":304553134},{"NoteNumber":56,"Velocity":22,"Duration":96401,"SoundDuration":96401,"Delta":304649535},{"NoteNumber":60,"Velocity":22,"Duration":96401,"SoundDuration":96401,"Delta":304745936},{"NoteNumber":73,"Velocity":48,"Duration":192801,"SoundDuration":192801,"Delta":304842337},{"NoteNumber":47,"Velocity":25,"Duration":96401,"SoundDuration":96401,"Delta":304842337},{"NoteNumber":49,"Velocity":22,"Duration":96400,"SoundDuration":96400,"Delta":304938738},{"NoteNumber":77,"Velocity":40,"Duration":94274,"SoundDuration":94274,"Delta":305035139},{"NoteNumber":53,"Velocity":22,"Duration":94274,"SoundDuration":94274,"Delta":305035139},{"NoteNumber":75,"Velocity":40,"Duration":94274,"SoundDuration":94274,"Delta":305129413},{"NoteNumber":56,"Velocity":22,"Duration":94274,"SoundDuration":94274,"Delta":305129413},{"NoteNumber":73,"Velocity":43,"Duration":192801,"SoundDuration":192801,"Delta":305223688},{"NoteNumber":47,"Velocity":25,"Duration":96401,"SoundDuration":96401,"Delta":305223688},{"NoteNumber":49,"Velocity":22,"Duration":96400,"SoundDuration":96400,"Delta":305320089},{"NoteNumber":53,"Velocity":22,"Duration":96401,"SoundDuration":96401,"Delta":305416490},{"NoteNumber":56,"Velocity":22,"Duration":96401,"SoundDuration":96401,"Delta":305512891},{"NoteNumber":78,"Velocity":48,"Duration":189741,"SoundDuration":189741,"Delta":305609292},{"NoteNumber":46,"Velocity":26,"Duration":94870,"SoundDuration":94870,"Delta":305609292},{"NoteNumber":49,"Velocity":22,"Duration":94870,"SoundDuration":94870,"Delta":305704162},{"NoteNumber":82,"Velocity":40,"Duration":94870,"SoundDuration":94870,"Delta":305799033},{"NoteNumber":54,"Velocity":22,"Duration":94870,"SoundDuration":94870,"Delta":305799033},{"NoteNumber":80,"Velocity":40,"Duration":94870,"SoundDuration":94870,"Delta":305893904},{"NoteNumber":58,"Velocity":22,"Duration":94870,"SoundDuration":94870,"Delta":305893904},{"NoteNumber":78,"Velocity":43,"Duration":192801,"SoundDuration":192801,"Delta":305988775},{"NoteNumber":46,"Velocity":26,"Duration":96401,"SoundDuration":96401,"Delta":305988775},{"NoteNumber":49,"Velocity":23,"Duration":96400,"SoundDuration":96400,"Delta":306085176},{"NoteNumber":54,"Velocity":22,"Duration":96401,"SoundDuration":96401,"Delta":306181577},{"NoteNumber":58,"Velocity":22,"Duration":96401,"SoundDuration":96401,"Delta":306277978},{"NoteNumber":60,"Velocity":42,"Duration":192801,"SoundDuration":192801,"Delta":306374379},{"NoteNumber":46,"Velocity":26,"Duration":96401,"SoundDuration":96401,"Delta":306374379},{"NoteNumber":48,"Velocity":23,"Duration":96400,"SoundDuration":96400,"Delta":306470780},{"NoteNumber":64,"Velocity":35,"Duration":94274,"SoundDuration":94274,"Delta":306567181},{"NoteNumber":52,"Velocity":23,"Duration":94274,"SoundDuration":94274,"Delta":306567181},{"NoteNumber":62,"Velocity":35,"Duration":94274,"SoundDuration":94274,"Delta":306661455},{"NoteNumber":55,"Velocity":23,"Duration":94274,"SoundDuration":94274,"Delta":306661455},{"NoteNumber":60,"Velocity":38,"Duration":192801,"SoundDuration":192801,"Delta":306755730},{"NoteNumber":46,"Velocity":26,"Duration":96401,"SoundDuration":96401,"Delta":306755730},{"NoteNumber":48,"Velocity":23,"Duration":96400,"SoundDuration":96400,"Delta":306852131},{"NoteNumber":52,"Velocity":23,"Duration":96401,"SoundDuration":96401,"Delta":306948532},{"NoteNumber":55,"Velocity":23,"Duration":127172,"SoundDuration":127172,"Delta":307044933},{"NoteNumber":72,"Velocity":42,"Duration":765086,"SoundDuration":765086,"Delta":307172105},{"NoteNumber":44,"Velocity":27,"Duration":94870,"SoundDuration":94870,"Delta":307172105},{"NoteNumber":48,"Velocity":23,"Duration":94870,"SoundDuration":94870,"Delta":307266976},{"NoteNumber":53,"Velocity":23,"Duration":94870,"SoundDuration":94870,"Delta":307361847},{"NoteNumber":56,"Velocity":23,"Duration":94870,"SoundDuration":94870,"Delta":307456717},{"NoteNumber":44,"Velocity":28,"Duration":96401,"SoundDuration":96401,"Delta":307551588},{"NoteNumber":48,"Velocity":25,"Duration":96400,"SoundDuration":96400,"Delta":307647989},{"NoteNumber":53,"Velocity":23,"Duration":96401,"SoundDuration":96401,"Delta":307744390},{"NoteNumber":56,"Velocity":23,"Duration":96401,"SoundDuration":96401,"Delta":307840791},{"NoteNumber":72,"Velocity":59,"Duration":192801,"SoundDuration":192801,"Delta":307937192},{"NoteNumber":43,"Velocity":32,"Duration":96401,"SoundDuration":96401,"Delta":307937192},{"NoteNumber":46,"Velocity":28,"Duration":96400,"SoundDuration":96400,"Delta":308033593},{"NoteNumber":76,"Velocity":52,"Duration":94274,"SoundDuration":94274,"Delta":308129994},{"NoteNumber":52,"Velocity":28,"Duration":94274,"SoundDuration":94274,"Delta":308129994},{"NoteNumber":74,"Velocity":52,"Duration":94274,"SoundDuration":94274,"Delta":308224269},{"NoteNumber":55,"Velocity":29,"Duration":94274,"SoundDuration":94274,"Delta":308224269},{"NoteNumber":72,"Velocity":56,"Duration":192801,"SoundDuration":192801,"Delta":308318543},{"NoteNumber":43,"Velocity":34,"Duration":96401,"SoundDuration":96401,"Delta":308318543},{"NoteNumber":46,"Velocity":29,"Duration":96400,"SoundDuration":96400,"Delta":308414944},{"NoteNumber":52,"Velocity":31,"Duration":96401,"SoundDuration":96401,"Delta":308511345},{"NoteNumber":55,"Velocity":32,"Duration":127172,"SoundDuration":127172,"Delta":308607746},{"NoteNumber":84,"Velocity":69,"Duration":765086,"SoundDuration":765086,"Delta":308734919},{"NoteNumber":41,"Velocity":39,"Duration":94870,"SoundDuration":94870,"Delta":308734919},{"NoteNumber":44,"Velocity":33,"Duration":94870,"SoundDuration":94870,"Delta":308829789},{"NoteNumber":48,"Velocity":33,"Duration":94870,"SoundDuration":94870,"Delta":308924660},{"NoteNumber":53,"Velocity":34,"Duration":94870,"SoundDuration":94870,"Delta":309019531},{"NoteNumber":41,"Velocity":41,"Duration":128534,"SoundDuration":128534,"Delta":309114402},{"NoteNumber":44,"Velocity":35,"Duration":128534,"SoundDuration":128534,"Delta":309242936},{"NoteNumber":53,"Velocity":36,"Duration":128534,"SoundDuration":128534,"Delta":309371471},{"NoteNumber":84,"Velocity":68,"Duration":199163,"SoundDuration":199163,"Delta":309500006},{"NoteNumber":40,"Velocity":44,"Duration":132775,"SoundDuration":132775,"Delta":309500006},{"NoteNumber":43,"Velocity":45,"Duration":131432,"SoundDuration":131432,"Delta":309632781},{"NoteNumber":88,"Velocity":70,"Duration":97567,"SoundDuration":97567,"Delta":309699169},{"NoteNumber":52,"Velocity":47,"Duration":130089,"SoundDuration":130089,"Delta":309764214},{"NoteNumber":86,"Velocity":71,"Duration":97567,"SoundDuration":97567,"Delta":309796736},{"NoteNumber":84,"Velocity":73,"Duration":99239,"SoundDuration":99239,"Delta":309894304},{"NoteNumber":39,"Velocity":47,"Duration":132318,"SoundDuration":132318,"Delta":309894304},{"NoteNumber":43,"Velocity":49,"Duration":132318,"SoundDuration":132318,"Delta":310026623},{"NoteNumber":84,"Velocity":77,"Duration":99239,"SoundDuration":99239,"Delta":310092782},{"NoteNumber":51,"Velocity":51,"Duration":132318,"SoundDuration":132318,"Delta":310158942},{"NoteNumber":84,"Velocity":81,"Duration":99239,"SoundDuration":99239,"Delta":310291261},{"NoteNumber":38,"Velocity":54,"Duration":132318,"SoundDuration":132318,"Delta":310291261},{"NoteNumber":41,"Velocity":53,"Duration":132318,"SoundDuration":132318,"Delta":310423580},{"NoteNumber":84,"Velocity":83,"Duration":198478,"SoundDuration":198478,"Delta":310489739},{"NoteNumber":50,"Velocity":56,"Duration":132318,"SoundDuration":132318,"Delta":310555899},{"NoteNumber":89,"Velocity":86,"Duration":204791,"SoundDuration":204791,"Delta":310688218},{"NoteNumber":37,"Velocity":56,"Duration":136527,"SoundDuration":136527,"Delta":310688218},{"NoteNumber":41,"Velocity":58,"Duration":142569,"SoundDuration":142569,"Delta":310824746},{"NoteNumber":83,"Velocity":90,"Duration":222915,"SoundDuration":222915,"Delta":310893010},{"NoteNumber":49,"Velocity":59,"Duration":148610,"SoundDuration":148610,"Delta":310967315},{"NoteNumber":84,"Velocity":93,"Duration":410649,"SoundDuration":410649,"Delta":311115925},{"NoteNumber":36,"Velocity":66,"Duration":136883,"SoundDuration":136883,"Delta":311115925},{"NoteNumber":48,"Velocity":70,"Duration":136883,"SoundDuration":136883,"Delta":311115925},{"NoteNumber":43,"Velocity":61,"Duration":136883,"SoundDuration":136883,"Delta":311252808},{"NoteNumber":40,"Velocity":62,"Duration":136883,"SoundDuration":136883,"Delta":311389692},{"NoteNumber":67,"Velocity":75,"Duration":831215,"SoundDuration":831215,"Delta":311526575},{"NoteNumber":43,"Velocity":70,"Duration":136883,"SoundDuration":136883,"Delta":311526575},{"NoteNumber":48,"Velocity":63,"Duration":136883,"SoundDuration":136883,"Delta":311663458},{"NoteNumber":52,"Velocity":64,"Duration":141063,"SoundDuration":141063,"Delta":311800342},{"NoteNumber":50,"Velocity":70,"Duration":137390,"SoundDuration":137390,"Delta":311941405},{"NoteNumber":47,"Velocity":63,"Duration":137390,"SoundDuration":137390,"Delta":312078796},{"NoteNumber":43,"Velocity":64,"Duration":141603,"SoundDuration":141603,"Delta":312216187},{"NoteNumber":67,"Velocity":75,"Duration":414343,"SoundDuration":414343,"Delta":312357790},{"NoteNumber":47,"Velocity":70,"Duration":136369,"SoundDuration":136369,"Delta":312357790},{"NoteNumber":50,"Velocity":65,"Duration":136369,"SoundDuration":136369,"Delta":312494160},{"NoteNumber":53,"Velocity":65,"Duration":141603,"SoundDuration":141603,"Delta":312630530},{"NoteNumber":72,"Velocity":82,"Duration":132511,"SoundDuration":132511,"Delta":312772133},{"NoteNumber":52,"Velocity":64,"Duration":132511,"SoundDuration":132511,"Delta":312772133},{"NoteNumber":67,"Velocity":74,"Duration":132511,"SoundDuration":132511,"Delta":312904645},{"NoteNumber":55,"Velocity":56,"Duration":132511,"SoundDuration":132511,"Delta":312904645},{"NoteNumber":64,"Velocity":74,"Duration":132511,"SoundDuration":132511,"Delta":313037157},{"NoteNumber":60,"Velocity":56,"Duration":132511,"SoundDuration":132511,"Delta":313037157},{"NoteNumber":67,"Velocity":82,"Duration":132511,"SoundDuration":132511,"Delta":313169668},{"NoteNumber":55,"Velocity":64,"Duration":132511,"SoundDuration":132511,"Delta":313169668},{"NoteNumber":72,"Velocity":74,"Duration":132511,"SoundDuration":132511,"Delta":313302180},{"NoteNumber":52,"Velocity":57,"Duration":132511,"SoundDuration":132511,"Delta":313302180},{"NoteNumber":76,"Velocity":73,"Duration":139285,"SoundDuration":139285,"Delta":313434692},{"NoteNumber":48,"Velocity":57,"Duration":139285,"SoundDuration":139285,"Delta":313434692},{"NoteNumber":74,"Velocity":82,"Duration":132970,"SoundDuration":132970,"Delta":313573977},{"NoteNumber":53,"Velocity":64,"Duration":132970,"SoundDuration":132970,"Delta":313573977},{"NoteNumber":71,"Velocity":74,"Duration":132970,"SoundDuration":132970,"Delta":313706947},{"NoteNumber":56,"Velocity":56,"Duration":132970,"SoundDuration":132970,"Delta":313706947},{"NoteNumber":68,"Velocity":74,"Duration":132970,"SoundDuration":132970,"Delta":313839917},{"NoteNumber":60,"Velocity":56,"Duration":132970,"SoundDuration":132970,"Delta":313839917},{"NoteNumber":71,"Velocity":82,"Duration":132970,"SoundDuration":132970,"Delta":313972887},{"NoteNumber":56,"Velocity":64,"Duration":132970,"SoundDuration":132970,"Delta":313972887},{"NoteNumber":74,"Velocity":75,"Duration":132970,"SoundDuration":132970,"Delta":314105857},{"NoteNumber":53,"Velocity":57,"Duration":132970,"SoundDuration":132970,"Delta":314105857},{"NoteNumber":77,"Velocity":75,"Duration":138754,"SoundDuration":138754,"Delta":314238827},{"NoteNumber":48,"Velocity":58,"Duration":138754,"SoundDuration":138754,"Delta":314238827},{"NoteNumber":76,"Velocity":82,"Duration":132056,"SoundDuration":132056,"Delta":314377581},{"NoteNumber":55,"Velocity":64,"Duration":528226,"SoundDuration":528226,"Delta":314377581},{"NoteNumber":73,"Velocity":74,"Duration":132056,"SoundDuration":132056,"Delta":314509638},{"NoteNumber":58,"Velocity":56,"Duration":264113,"SoundDuration":264113,"Delta":314509638},{"NoteNumber":70,"Velocity":77,"Duration":132056,"SoundDuration":132056,"Delta":314641694},{"NoteNumber":60,"Velocity":56,"Duration":2924397,"SoundDuration":2924397,"Delta":314641694},{"NoteNumber":73,"Velocity":82,"Duration":132056,"SoundDuration":132056,"Delta":314773751},{"NoteNumber":58,"Velocity":64,"Duration":2792341,"SoundDuration":2792341,"Delta":314773751},{"NoteNumber":76,"Velocity":75,"Duration":132056,"SoundDuration":132056,"Delta":314905808},{"NoteNumber":55,"Velocity":57,"Duration":2660284,"SoundDuration":2660284,"Delta":314905808},{"NoteNumber":79,"Velocity":74,"Duration":147112,"SoundDuration":147112,"Delta":315037864},{"NoteNumber":48,"Velocity":57,"Duration":2528228,"SoundDuration":2528228,"Delta":315037864},{"NoteNumber":82,"Velocity":82,"Duration":132511,"SoundDuration":132511,"Delta":315184977},{"NoteNumber":76,"Velocity":74,"Duration":132511,"SoundDuration":132511,"Delta":315317489},{"NoteNumber":85,"Velocity":74,"Duration":132511,"SoundDuration":132511,"Delta":315450001},{"NoteNumber":76,"Velocity":82,"Duration":132056,"SoundDuration":132056,"Delta":315582512},{"NoteNumber":73,"Velocity":74,"Duration":132056,"SoundDuration":132056,"Delta":315714569},{"NoteNumber":82,"Velocity":74,"Duration":132056,"SoundDuration":132056,"Delta":315846626},{"NoteNumber":73,"Velocity":82,"Duration":132056,"SoundDuration":132056,"Delta":315978682},{"NoteNumber":70,"Velocity":74,"Duration":132056,"SoundDuration":132056,"Delta":316110739},{"NoteNumber":76,"Velocity":74,"Duration":132056,"SoundDuration":132056,"Delta":316242796},{"NoteNumber":70,"Velocity":78,"Duration":132056,"SoundDuration":132056,"Delta":316374852},{"NoteNumber":64,"Velocity":74,"Duration":132056,"SoundDuration":132056,"Delta":316506909},{"NoteNumber":73,"Velocity":74,"Duration":132056,"SoundDuration":132056,"Delta":316638966},{"NoteNumber":70,"Velocity":77,"Duration":132511,"SoundDuration":132511,"Delta":316771022},{"NoteNumber":64,"Velocity":71,"Duration":132511,"SoundDuration":132511,"Delta":316903534},{"NoteNumber":72,"Velocity":71,"Duration":132511,"SoundDuration":132511,"Delta":317036046},{"NoteNumber":70,"Velocity":76,"Duration":132511,"SoundDuration":132511,"Delta":317168557},{"NoteNumber":64,"Velocity":71,"Duration":132511,"SoundDuration":132511,"Delta":317301069},{"NoteNumber":72,"Velocity":71,"Duration":132511,"SoundDuration":132511,"Delta":317433581},{"NoteNumber":65,"Velocity":67,"Duration":407028,"SoundDuration":407028,"Delta":317566092},{"NoteNumber":69,"Velocity":67,"Duration":407028,"SoundDuration":407028,"Delta":317566092},{"NoteNumber":72,"Velocity":79,"Duration":407028,"SoundDuration":407028,"Delta":317566092},{"NoteNumber":41,"Velocity":66,"Duration":135675,"SoundDuration":135675,"Delta":317566092},{"NoteNumber":53,"Velocity":70,"Duration":135675,"SoundDuration":135675,"Delta":317566092},{"NoteNumber":48,"Velocity":61,"Duration":135675,"SoundDuration":135675,"Delta":317701768},{"NoteNumber":45,"Velocity":62,"Duration":135676,"SoundDuration":135676,"Delta":317837444},{"NoteNumber":72,"Velocity":75,"Duration":823873,"SoundDuration":823873,"Delta":317973120},{"NoteNumber":48,"Velocity":70,"Duration":135675,"SoundDuration":135675,"Delta":317973120},{"NoteNumber":53,"Velocity":63,"Duration":135675,"SoundDuration":135675,"Delta":318108796},{"NoteNumber":57,"Velocity":64,"Duration":139821,"SoundDuration":139821,"Delta":318244472},{"NoteNumber":55,"Velocity":70,"Duration":136174,"SoundDuration":136174,"Delta":318384293},{"NoteNumber":52,"Velocity":63,"Duration":136174,"SoundDuration":136174,"Delta":318520468},{"NoteNumber":48,"Velocity":64,"Duration":140351,"SoundDuration":140351,"Delta":318656643},{"NoteNumber":72,"Velocity":75,"Duration":410676,"SoundDuration":410676,"Delta":318796994},{"NoteNumber":52,"Velocity":70,"Duration":135162,"SoundDuration":135162,"Delta":318796994},{"NoteNumber":55,"Velocity":65,"Duration":135162,"SoundDuration":135162,"Delta":318932157},{"NoteNumber":58,"Velocity":65,"Duration":140351,"SoundDuration":140351,"Delta":319067320},{"NoteNumber":77,"Velocity":82,"Duration":132511,"SoundDuration":132511,"Delta":319207671},{"NoteNumber":57,"Velocity":64,"Duration":132511,"SoundDuration":132511,"Delta":319207671},{"NoteNumber":72,"Velocity":74,"Duration":132511,"SoundDuration":132511,"Delta":319340182},{"NoteNumber":60,"Velocity":56,"Duration":132511,"SoundDuration":132511,"Delta":319340182},{"NoteNumber":69,"Velocity":74,"Duration":132511,"SoundDuration":132511,"Delta":319472694},{"NoteNumber":65,"Velocity":56,"Duration":132511,"SoundDuration":132511,"Delta":319472694},{"NoteNumber":72,"Velocity":82,"Duration":132511,"SoundDuration":132511,"Delta":319605206},{"NoteNumber":60,"Velocity":64,"Duration":132511,"SoundDuration":132511,"Delta":319605206},{"NoteNumber":77,"Velocity":74,"Duration":132511,"SoundDuration":132511,"Delta":319737717},{"NoteNumber":57,"Velocity":57,"Duration":132511,"SoundDuration":132511,"Delta":319737717},{"NoteNumber":81,"Velocity":73,"Duration":139285,"SoundDuration":139285,"Delta":319870229},{"NoteNumber":53,"Velocity":57,"Duration":139285,"SoundDuration":139285,"Delta":319870229},{"NoteNumber":79,"Velocity":82,"Duration":132970,"SoundDuration":132970,"Delta":320009514},{"NoteNumber":58,"Velocity":64,"Duration":132970,"SoundDuration":132970,"Delta":320009514},{"NoteNumber":76,"Velocity":74,"Duration":132970,"SoundDuration":132970,"Delta":320142484},{"NoteNumber":61,"Velocity":56,"Duration":132970,"SoundDuration":132970,"Delta":320142484},{"NoteNumber":73,"Velocity":74,"Duration":132970,"SoundDuration":132970,"Delta":320275454},{"NoteNumber":65,"Velocity":56,"Duration":132970,"SoundDuration":132970,"Delta":320275454},{"NoteNumber":76,"Velocity":82,"Duration":132970,"SoundDuration":132970,"Delta":320408424},{"NoteNumber":61,"Velocity":64,"Duration":132970,"SoundDuration":132970,"Delta":320408424},{"NoteNumber":79,"Velocity":75,"Duration":132970,"SoundDuration":132970,"Delta":320541394},{"NoteNumber":58,"Velocity":57,"Duration":132970,"SoundDuration":132970,"Delta":320541394},{"NoteNumber":82,"Velocity":75,"Duration":138754,"SoundDuration":138754,"Delta":320674364},{"NoteNumber":53,"Velocity":58,"Duration":138754,"SoundDuration":138754,"Delta":320674364},{"NoteNumber":81,"Velocity":82,"Duration":132056,"SoundDuration":132056,"Delta":320813118},{"NoteNumber":60,"Velocity":64,"Duration":528226,"SoundDuration":528226,"Delta":320813118},{"NoteNumber":78,"Velocity":74,"Duration":132056,"SoundDuration":132056,"Delta":320945175},{"NoteNumber":63,"Velocity":56,"Duration":264113,"SoundDuration":264113,"Delta":320945175},{"NoteNumber":75,"Velocity":77,"Duration":132056,"SoundDuration":132056,"Delta":321077232},{"NoteNumber":65,"Velocity":56,"Duration":2924397,"SoundDuration":2924397,"Delta":321077232},{"NoteNumber":78,"Velocity":82,"Duration":132056,"SoundDuration":132056,"Delta":321209288},{"NoteNumber":63,"Velocity":64,"Duration":2792341,"SoundDuration":2792341,"Delta":321209288},{"NoteNumber":81,"Velocity":75,"Duration":132056,"SoundDuration":132056,"Delta":321341345},{"NoteNumber":60,"Velocity":57,"Duration":2660284,"SoundDuration":2660284,"Delta":321341345},{"NoteNumber":84,"Velocity":74,"Duration":147112,"SoundDuration":147112,"Delta":321473402},{"NoteNumber":53,"Velocity":57,"Duration":2528228,"SoundDuration":2528228,"Delta":321473402},{"NoteNumber":81,"Velocity":82,"Duration":132511,"SoundDuration":132511,"Delta":321620515},{"NoteNumber":78,"Velocity":74,"Duration":132511,"SoundDuration":132511,"Delta":321753026},{"NoteNumber":87,"Velocity":74,"Duration":132511,"SoundDuration":132511,"Delta":321885538},{"NoteNumber":78,"Velocity":82,"Duration":132056,"SoundDuration":132056,"Delta":322018050},{"NoteNumber":75,"Velocity":74,"Duration":132056,"SoundDuration":132056,"Delta":322150106},{"NoteNumber":84,"Velocity":74,"Duration":132056,"SoundDuration":132056,"Delta":322282163},{"NoteNumber":75,"Velocity":82,"Duration":132056,"SoundDuration":132056,"Delta":322414220},{"NoteNumber":72,"Velocity":74,"Duration":132056,"SoundDuration":132056,"Delta":322546276},{"NoteNumber":81,"Velocity":74,"Duration":132056,"SoundDuration":132056,"Delta":322678333},{"NoteNumber":75,"Velocity":78,"Duration":132056,"SoundDuration":132056,"Delta":322810390},{"NoteNumber":69,"Velocity":74,"Duration":132056,"SoundDuration":132056,"Delta":322942446},{"NoteNumber":78,"Velocity":74,"Duration":132056,"SoundDuration":132056,"Delta":323074503},{"NoteNumber":75,"Velocity":77,"Duration":132511,"SoundDuration":132511,"Delta":323206560},{"NoteNumber":69,"Velocity":71,"Duration":132511,"SoundDuration":132511,"Delta":323339071},{"NoteNumber":77,"Velocity":71,"Duration":132511,"SoundDuration":132511,"Delta":323471583},{"NoteNumber":75,"Velocity":76,"Duration":132511,"SoundDuration":132511,"Delta":323604095},{"NoteNumber":69,"Velocity":71,"Duration":132511,"SoundDuration":132511,"Delta":323736606},{"NoteNumber":77,"Velocity":71,"Duration":132511,"SoundDuration":132511,"Delta":323869118},{"NoteNumber":70,"Velocity":67,"Duration":407028,"SoundDuration":407028,"Delta":324001630},{"NoteNumber":74,"Velocity":67,"Duration":407028,"SoundDuration":407028,"Delta":324001630},{"NoteNumber":77,"Velocity":79,"Duration":407028,"SoundDuration":407028,"Delta":324001630},{"NoteNumber":34,"Velocity":66,"Duration":135675,"SoundDuration":135675,"Delta":324001630},{"NoteNumber":46,"Velocity":70,"Duration":135675,"SoundDuration":135675,"Delta":324001630},{"NoteNumber":41,"Velocity":61,"Duration":135675,"SoundDuration":135675,"Delta":324137306},{"NoteNumber":38,"Velocity":62,"Duration":135676,"SoundDuration":135676,"Delta":324272982},{"NoteNumber":65,"Velocity":75,"Duration":823873,"SoundDuration":823873,"Delta":324408658},{"NoteNumber":41,"Velocity":70,"Duration":135675,"SoundDuration":135675,"Delta":324408658},{"NoteNumber":46,"Velocity":63,"Duration":135675,"SoundDuration":135675,"Delta":324544334},{"NoteNumber":50,"Velocity":64,"Duration":139821,"SoundDuration":139821,"Delta":324680010},{"NoteNumber":48,"Velocity":70,"Duration":136174,"SoundDuration":136174,"Delta":324819831},{"NoteNumber":45,"Velocity":63,"Duration":136174,"SoundDuration":136174,"Delta":324956006},{"NoteNumber":41,"Velocity":64,"Duration":140351,"SoundDuration":140351,"Delta":325092181},{"NoteNumber":65,"Velocity":75,"Duration":410676,"SoundDuration":410676,"Delta":325232532},{"NoteNumber":45,"Velocity":70,"Duration":135162,"SoundDuration":135162,"Delta":325232532},{"NoteNumber":48,"Velocity":65,"Duration":135162,"SoundDuration":135162,"Delta":325367694},{"NoteNumber":51,"Velocity":65,"Duration":140351,"SoundDuration":140351,"Delta":325502857},{"NoteNumber":70,"Velocity":82,"Duration":132511,"SoundDuration":132511,"Delta":325643208},{"NoteNumber":50,"Velocity":64,"Duration":132511,"SoundDuration":132511,"Delta":325643208},{"NoteNumber":65,"Velocity":74,"Duration":132511,"SoundDuration":132511,"Delta":325775720},{"NoteNumber":53,"Velocity":56,"Duration":132511,"SoundDuration":132511,"Delta":325775720},{"NoteNumber":62,"Velocity":74,"Duration":132511,"SoundDuration":132511,"Delta":325908231},{"NoteNumber":58,"Velocity":56,"Duration":132511,"SoundDuration":132511,"Delta":325908231},{"NoteNumber":65,"Velocity":82,"Duration":132511,"SoundDuration":132511,"Delta":326040743},{"NoteNumber":53,"Velocity":64,"Duration":132511,"SoundDuration":132511,"Delta":326040743},{"NoteNumber":70,"Velocity":74,"Duration":132511,"SoundDuration":132511,"Delta":326173255},{"NoteNumber":50,"Velocity":57,"Duration":132511,"SoundDuration":132511,"Delta":326173255},{"NoteNumber":74,"Velocity":73,"Duration":139285,"SoundDuration":139285,"Delta":326305766},{"NoteNumber":46,"Velocity":57,"Duration":139285,"SoundDuration":139285,"Delta":326305766},{"NoteNumber":72,"Velocity":82,"Duration":132970,"SoundDuration":132970,"Delta":326445052},{"NoteNumber":51,"Velocity":64,"Duration":132970,"SoundDuration":132970,"Delta":326445052},{"NoteNumber":69,"Velocity":74,"Duration":132970,"SoundDuration":132970,"Delta":326578022},{"NoteNumber":54,"Velocity":56,"Duration":132970,"SoundDuration":132970,"Delta":326578022},{"NoteNumber":66,"Velocity":74,"Duration":132970,"SoundDuration":132970,"Delta":326710992},{"NoteNumber":58,"Velocity":56,"Duration":132970,"SoundDuration":132970,"Delta":326710992},{"NoteNumber":69,"Velocity":82,"Duration":132970,"SoundDuration":132970,"Delta":326843962},{"NoteNumber":54,"Velocity":64,"Duration":132970,"SoundDuration":132970,"Delta":326843962},{"NoteNumber":72,"Velocity":75,"Duration":132970,"SoundDuration":132970,"Delta":326976932},{"NoteNumber":51,"Velocity":57,"Duration":132970,"SoundDuration":132970,"Delta":326976932},{"NoteNumber":75,"Velocity":75,"Duration":138754,"SoundDuration":138754,"Delta":327109902},{"NoteNumber":46,"Velocity":58,"Duration":138754,"SoundDuration":138754,"Delta":327109902},{"NoteNumber":74,"Velocity":82,"Duration":132056,"SoundDuration":132056,"Delta":327248656},{"NoteNumber":53,"Velocity":64,"Duration":528226,"SoundDuration":528226,"Delta":327248656},{"NoteNumber":71,"Velocity":74,"Duration":132056,"SoundDuration":132056,"Delta":327380712},{"NoteNumber":56,"Velocity":56,"Duration":264113,"SoundDuration":264113,"Delta":327380712},{"NoteNumber":68,"Velocity":77,"Duration":132056,"SoundDuration":132056,"Delta":327512769},{"NoteNumber":58,"Velocity":56,"Duration":2936405,"SoundDuration":2936405,"Delta":327512769},{"NoteNumber":71,"Velocity":82,"Duration":132056,"SoundDuration":132056,"Delta":327644826},{"NoteNumber":56,"Velocity":64,"Duration":2804348,"SoundDuration":2804348,"Delta":327644826},{"NoteNumber":74,"Velocity":75,"Duration":132056,"SoundDuration":132056,"Delta":327776882},{"NoteNumber":53,"Velocity":57,"Duration":2672291,"SoundDuration":2672291,"Delta":327776882},{"NoteNumber":77,"Velocity":74,"Duration":147112,"SoundDuration":147112,"Delta":327908939},{"NoteNumber":46,"Velocity":57,"Duration":2540235,"SoundDuration":2540235,"Delta":327908939},{"NoteNumber":80,"Velocity":82,"Duration":132511,"SoundDuration":132511,"Delta":328056052},{"NoteNumber":74,"Velocity":74,"Duration":132511,"SoundDuration":132511,"Delta":328188564},{"NoteNumber":83,"Velocity":74,"Duration":132511,"SoundDuration":132511,"Delta":328321075},{"NoteNumber":74,"Velocity":82,"Duration":132056,"SoundDuration":132056,"Delta":328453587},{"NoteNumber":71,"Velocity":74,"Duration":132056,"SoundDuration":132056,"Delta":328585644},{"NoteNumber":80,"Velocity":74,"Duration":132056,"SoundDuration":132056,"Delta":328717700},{"NoteNumber":71,"Velocity":82,"Duration":132056,"SoundDuration":132056,"Delta":328849757},{"NoteNumber":68,"Velocity":74,"Duration":132056,"SoundDuration":132056,"Delta":328981814},{"NoteNumber":77,"Velocity":74,"Duration":132056,"SoundDuration":132056,"Delta":329113870},{"NoteNumber":68,"Velocity":78,"Duration":132056,"SoundDuration":132056,"Delta":329245927},{"NoteNumber":65,"Velocity":74,"Duration":132056,"SoundDuration":132056,"Delta":329377984},{"NoteNumber":74,"Velocity":74,"Duration":132056,"SoundDuration":132056,"Delta":329510040},{"NoteNumber":68,"Velocity":77,"Duration":132511,"SoundDuration":132511,"Delta":329642097},{"NoteNumber":62,"Velocity":71,"Duration":132511,"SoundDuration":132511,"Delta":329774609},{"NoteNumber":71,"Velocity":71,"Duration":132511,"SoundDuration":132511,"Delta":329907120},{"NoteNumber":68,"Velocity":76,"Duration":132511,"SoundDuration":132511,"Delta":330039632},{"NoteNumber":62,"Velocity":71,"Duration":132511,"SoundDuration":132511,"Delta":330172144},{"NoteNumber":70,"Velocity":71,"Duration":144519,"SoundDuration":144519,"Delta":330304655},{"NoteNumber":78,"Velocity":82,"Duration":132056,"SoundDuration":132056,"Delta":330449174},{"NoteNumber":51,"Velocity":64,"Duration":528226,"SoundDuration":528226,"Delta":330449174},{"NoteNumber":75,"Velocity":74,"Duration":132056,"SoundDuration":132056,"Delta":330581231},{"NoteNumber":54,"Velocity":56,"Duration":264113,"SoundDuration":264113,"Delta":330581231},{"NoteNumber":70,"Velocity":77,"Duration":132056,"SoundDuration":132056,"Delta":330713288},{"NoteNumber":58,"Velocity":56,"Duration":2922443,"SoundDuration":2922443,"Delta":330713288},{"NoteNumber":75,"Velocity":82,"Duration":132056,"SoundDuration":132056,"Delta":330845344},{"NoteNumber":54,"Velocity":64,"Duration":2790386,"SoundDuration":2790386,"Delta":330845344},{"NoteNumber":78,"Velocity":75,"Duration":132056,"SoundDuration":132056,"Delta":330977401},{"NoteNumber":51,"Velocity":57,"Duration":2658330,"SoundDuration":2658330,"Delta":330977401},{"NoteNumber":82,"Velocity":74,"Duration":132056,"SoundDuration":132056,"Delta":331109458},{"NoteNumber":46,"Velocity":57,"Duration":2526273,"SoundDuration":2526273,"Delta":331109458},{"NoteNumber":78,"Velocity":82,"Duration":132511,"SoundDuration":132511,"Delta":331241514},{"NoteNumber":75,"Velocity":74,"Duration":132511,"SoundDuration":132511,"Delta":331374026},{"NoteNumber":87,"Velocity":74,"Duration":132511,"SoundDuration":132511,"Delta":331506538},{"NoteNumber":75,"Velocity":82,"Duration":132056,"SoundDuration":132056,"Delta":331639049},{"NoteNumber":70,"Velocity":74,"Duration":132056,"SoundDuration":132056,"Delta":331771106},{"NoteNumber":82,"Velocity":74,"Duration":132056,"SoundDuration":132056,"Delta":331903163},{"NoteNumber":70,"Velocity":82,"Duration":132056,"SoundDuration":132056,"Delta":332035219},{"NoteNumber":66,"Velocity":74,"Duration":132056,"SoundDuration":132056,"Delta":332167276},{"NoteNumber":78,"Velocity":74,"Duration":132056,"SoundDuration":132056,"Delta":332299333},{"NoteNumber":66,"Velocity":78,"Duration":132056,"SoundDuration":132056,"Delta":332431389},{"NoteNumber":63,"Velocity":74,"Duration":132056,"SoundDuration":132056,"Delta":332563446},{"NoteNumber":75,"Velocity":74,"Duration":132056,"SoundDuration":132056,"Delta":332695503},{"NoteNumber":66,"Velocity":77,"Duration":132511,"SoundDuration":132511,"Delta":332827559},{"NoteNumber":63,"Velocity":71,"Duration":132511,"SoundDuration":132511,"Delta":332960071},{"NoteNumber":75,"Velocity":71,"Duration":132511,"SoundDuration":132511,"Delta":333092583},{"NoteNumber":66,"Velocity":76,"Duration":132511,"SoundDuration":132511,"Delta":333225094},{"NoteNumber":63,"Velocity":71,"Duration":132511,"SoundDuration":132511,"Delta":333357606},{"NoteNumber":75,"Velocity":71,"Duration":145613,"SoundDuration":145613,"Delta":333490118},{"NoteNumber":78,"Velocity":82,"Duration":132056,"SoundDuration":132056,"Delta":333635731},{"NoteNumber":49,"Velocity":64,"Duration":528226,"SoundDuration":528226,"Delta":333635731},{"NoteNumber":76,"Velocity":74,"Duration":132056,"SoundDuration":132056,"Delta":333767788},{"NoteNumber":54,"Velocity":56,"Duration":264113,"SoundDuration":264113,"Delta":333767788},{"NoteNumber":73,"Velocity":77,"Duration":132056,"SoundDuration":132056,"Delta":333899844},{"NoteNumber":58,"Velocity":56,"Duration":2922443,"SoundDuration":2922443,"Delta":333899844},{"NoteNumber":76,"Velocity":82,"Duration":132056,"SoundDuration":132056,"Delta":334031901},{"NoteNumber":54,"Velocity":64,"Duration":2790386,"SoundDuration":2790386,"Delta":334031901},{"NoteNumber":78,"Velocity":75,"Duration":132056,"SoundDuration":132056,"Delta":334163958},{"NoteNumber":49,"Velocity":57,"Duration":2658330,"SoundDuration":2658330,"Delta":334163958},{"NoteNumber":85,"Velocity":74,"Duration":132056,"SoundDuration":132056,"Delta":334296014},{"NoteNumber":46,"Velocity":57,"Duration":2526273,"SoundDuration":2526273,"Delta":334296014},{"NoteNumber":78,"Velocity":82,"Duration":132511,"SoundDuration":132511,"Delta":334428071},{"NoteNumber":76,"Velocity":74,"Duration":132511,"SoundDuration":132511,"Delta":334560583},{"NoteNumber":88,"Velocity":74,"Duration":132511,"SoundDuration":132511,"Delta":334693094},{"NoteNumber":76,"Velocity":82,"Duration":132056,"SoundDuration":132056,"Delta":334825606},{"NoteNumber":73,"Velocity":74,"Duration":132056,"SoundDuration":132056,"Delta":334957663},{"NoteNumber":85,"Velocity":74,"Duration":132056,"SoundDuration":132056,"Delta":335089719},{"NoteNumber":73,"Velocity":82,"Duration":132056,"SoundDuration":132056,"Delta":335221776},{"NoteNumber":66,"Velocity":74,"Duration":132056,"SoundDuration":132056,"Delta":335353833},{"NoteNumber":78,"Velocity":74,"Duration":132056,"SoundDuration":132056,"Delta":335485889},{"NoteNumber":66,"Velocity":78,"Duration":132056,"SoundDuration":132056,"Delta":335617946},{"NoteNumber":64,"Velocity":74,"Duration":132056,"SoundDuration":132056,"Delta":335750003},{"NoteNumber":76,"Velocity":74,"Duration":132056,"SoundDuration":132056,"Delta":335882059},{"NoteNumber":66,"Velocity":77,"Duration":132511,"SoundDuration":132511,"Delta":336014116},{"NoteNumber":64,"Velocity":71,"Duration":132511,"SoundDuration":132511,"Delta":336146628},{"NoteNumber":76,"Velocity":71,"Duration":132511,"SoundDuration":132511,"Delta":336279139},{"NoteNumber":66,"Velocity":76,"Duration":132511,"SoundDuration":132511,"Delta":336411651},{"NoteNumber":64,"Velocity":71,"Duration":132511,"SoundDuration":132511,"Delta":336544163},{"NoteNumber":76,"Velocity":71,"Duration":145613,"SoundDuration":145613,"Delta":336676674},{"NoteNumber":78,"Velocity":82,"Duration":132056,"SoundDuration":132056,"Delta":336822288},{"NoteNumber":50,"Velocity":64,"Duration":528226,"SoundDuration":528226,"Delta":336822288},{"NoteNumber":74,"Velocity":74,"Duration":132056,"SoundDuration":132056,"Delta":336954344},{"NoteNumber":54,"Velocity":56,"Duration":264113,"SoundDuration":264113,"Delta":336954344},{"NoteNumber":71,"Velocity":77,"Duration":132056,"SoundDuration":132056,"Delta":337086401},{"NoteNumber":59,"Velocity":56,"Duration":2922443,"SoundDuration":2922443,"Delta":337086401},{"NoteNumber":74,"Velocity":82,"Duration":132056,"SoundDuration":132056,"Delta":337218458},{"NoteNumber":54,"Velocity":64,"Duration":2790386,"SoundDuration":2790386,"Delta":337218458},{"NoteNumber":78,"Velocity":75,"Duration":132056,"SoundDuration":132056,"Delta":337350514},{"NoteNumber":50,"Velocity":57,"Duration":2658330,"SoundDuration":2658330,"Delta":337350514},{"NoteNumber":83,"Velocity":74,"Duration":132056,"SoundDuration":132056,"Delta":337482571},{"NoteNumber":47,"Velocity":57,"Duration":2526273,"SoundDuration":2526273,"Delta":337482571},{"NoteNumber":78,"Velocity":82,"Duration":132511,"SoundDuration":132511,"Delta":337614628},{"NoteNumber":74,"Velocity":74,"Duration":132511,"SoundDuration":132511,"Delta":337747139},{"NoteNumber":86,"Velocity":74,"Duration":132511,"SoundDuration":132511,"Delta":337879651},{"NoteNumber":74,"Velocity":82,"Duration":132056,"SoundDuration":132056,"Delta":338012163},{"NoteNumber":71,"Velocity":74,"Duration":132056,"SoundDuration":132056,"Delta":338144219},{"NoteNumber":83,"Velocity":74,"Duration":132056,"SoundDuration":132056,"Delta":338276276},{"NoteNumber":71,"Velocity":82,"Duration":132056,"SoundDuration":132056,"Delta":338408333},{"NoteNumber":66,"Velocity":74,"Duration":132056,"SoundDuration":132056,"Delta":338540389},{"NoteNumber":78,"Velocity":74,"Duration":132056,"SoundDuration":132056,"Delta":338672446},{"NoteNumber":66,"Velocity":78,"Duration":132056,"SoundDuration":132056,"Delta":338804503},{"NoteNumber":62,"Velocity":74,"Duration":132056,"SoundDuration":132056,"Delta":338936559},{"NoteNumber":74,"Velocity":74,"Duration":132056,"SoundDuration":132056,"Delta":339068616},{"NoteNumber":66,"Velocity":77,"Duration":132511,"SoundDuration":132511,"Delta":339200673},{"NoteNumber":62,"Velocity":71,"Duration":132511,"SoundDuration":132511,"Delta":339333184},{"NoteNumber":74,"Velocity":71,"Duration":132511,"SoundDuration":132511,"Delta":339465696},{"NoteNumber":66,"Velocity":76,"Duration":132511,"SoundDuration":132511,"Delta":339598208},{"NoteNumber":62,"Velocity":71,"Duration":132511,"SoundDuration":132511,"Delta":339730719},{"NoteNumber":74,"Velocity":71,"Duration":145613,"SoundDuration":145613,"Delta":339863231},{"NoteNumber":79,"Velocity":82,"Duration":132056,"SoundDuration":132056,"Delta":340008844},{"NoteNumber":50,"Velocity":64,"Duration":528226,"SoundDuration":528226,"Delta":340008844},{"NoteNumber":74,"Velocity":74,"Duration":132056,"SoundDuration":132056,"Delta":340140901},{"NoteNumber":55,"Velocity":56,"Duration":264113,"SoundDuration":264113,"Delta":340140901},{"NoteNumber":71,"Velocity":77,"Duration":132056,"SoundDuration":132056,"Delta":340272958},{"NoteNumber":59,"Velocity":56,"Duration":2922443,"SoundDuration":2922443,"Delta":340272958},{"NoteNumber":74,"Velocity":82,"Duration":132056,"SoundDuration":132056,"Delta":340405014},{"NoteNumber":55,"Velocity":64,"Duration":2790386,"SoundDuration":2790386,"Delta":340405014},{"NoteNumber":79,"Velocity":75,"Duration":132056,"SoundDuration":132056,"Delta":340537071},{"NoteNumber":50,"Velocity":57,"Duration":2658330,"SoundDuration":2658330,"Delta":340537071},{"NoteNumber":83,"Velocity":74,"Duration":132056,"SoundDuration":132056,"Delta":340669128},{"NoteNumber":47,"Velocity":57,"Duration":2526273,"SoundDuration":2526273,"Delta":340669128},{"NoteNumber":79,"Velocity":82,"Duration":132511,"SoundDuration":132511,"Delta":340801184},{"NoteNumber":74,"Velocity":74,"Duration":132511,"SoundDuration":132511,"Delta":340933696},{"NoteNumber":86,"Velocity":74,"Duration":132511,"SoundDuration":132511,"Delta":341066208},{"NoteNumber":74,"Velocity":82,"Duration":132056,"SoundDuration":132056,"Delta":341198719},{"NoteNumber":71,"Velocity":74,"Duration":132056,"SoundDuration":132056,"Delta":341330776},{"NoteNumber":83,"Velocity":74,"Duration":132056,"SoundDuration":132056,"Delta":341462833},{"NoteNumber":71,"Velocity":82,"Duration":132056,"SoundDuration":132056,"Delta":341594889},{"NoteNumber":67,"Velocity":74,"Duration":132056,"SoundDuration":132056,"Delta":341726946},{"NoteNumber":79,"Velocity":74,"Duration":132056,"SoundDuration":132056,"Delta":341859003},{"NoteNumber":67,"Velocity":78,"Duration":132056,"SoundDuration":132056,"Delta":341991059},{"NoteNumber":65,"Velocity":74,"Duration":132056,"SoundDuration":132056,"Delta":342123116},{"NoteNumber":77,"Velocity":74,"Duration":132056,"SoundDuration":132056,"Delta":342255173},{"NoteNumber":67,"Velocity":77,"Duration":132511,"SoundDuration":132511,"Delta":342387229},{"NoteNumber":62,"Velocity":71,"Duration":132511,"SoundDuration":132511,"Delta":342519741},{"NoteNumber":74,"Velocity":71,"Duration":132511,"SoundDuration":132511,"Delta":342652253},{"NoteNumber":67,"Velocity":76,"Duration":132511,"SoundDuration":132511,"Delta":342784764},{"NoteNumber":62,"Velocity":71,"Duration":132511,"SoundDuration":132511,"Delta":342917276},{"NoteNumber":74,"Velocity":71,"Duration":145613,"SoundDuration":145613,"Delta":343049788},{"NoteNumber":84,"Velocity":82,"Duration":132056,"SoundDuration":132056,"Delta":343195401},{"NoteNumber":51,"Velocity":64,"Duration":528226,"SoundDuration":528226,"Delta":343195401},{"NoteNumber":79,"Velocity":74,"Duration":132056,"SoundDuration":132056,"Delta":343327458},{"NoteNumber":55,"Velocity":56,"Duration":264113,"SoundDuration":264113,"Delta":343327458},{"NoteNumber":75,"Velocity":77,"Duration":132056,"SoundDuration":132056,"Delta":343459514},{"NoteNumber":60,"Velocity":56,"Duration":2922443,"SoundDuration":2922443,"Delta":343459514},{"NoteNumber":79,"Velocity":82,"Duration":132056,"SoundDuration":132056,"Delta":343591571},{"NoteNumber":55,"Velocity":64,"Duration":2790386,"SoundDuration":2790386,"Delta":343591571},{"NoteNumber":84,"Velocity":75,"Duration":132056,"SoundDuration":132056,"Delta":343723628},{"NoteNumber":51,"Velocity":57,"Duration":2658330,"SoundDuration":2658330,"Delta":343723628},{"NoteNumber":87,"Velocity":74,"Duration":132056,"SoundDuration":132056,"Delta":343855684},{"NoteNumber":48,"Velocity":57,"Duration":2526273,"SoundDuration":2526273,"Delta":343855684},{"NoteNumber":79,"Velocity":82,"Duration":132511,"SoundDuration":132511,"Delta":343987741},{"NoteNumber":75,"Velocity":74,"Duration":132511,"SoundDuration":132511,"Delta":344120253},{"NoteNumber":87,"Velocity":74,"Duration":132511,"SoundDuration":132511,"Delta":344252764},{"NoteNumber":75,"Velocity":82,"Duration":132056,"SoundDuration":132056,"Delta":344385276},{"NoteNumber":72,"Velocity":74,"Duration":132056,"SoundDuration":132056,"Delta":344517333},{"NoteNumber":84,"Velocity":74,"Duration":132056,"SoundDuration":132056,"Delta":344649389},{"NoteNumber":72,"Velocity":82,"Duration":132056,"SoundDuration":132056,"Delta":344781446},{"NoteNumber":67,"Velocity":74,"Duration":132056,"SoundDuration":132056,"Delta":344913503},{"NoteNumber":79,"Velocity":74,"Duration":132056,"SoundDuration":132056,"Delta":345045559},{"NoteNumber":67,"Velocity":78,"Duration":132056,"SoundDuration":132056,"Delta":345177616},{"NoteNumber":63,"Velocity":74,"Duration":132056,"SoundDuration":132056,"Delta":345309673},{"NoteNumber":75,"Velocity":74,"Duration":132056,"SoundDuration":132056,"Delta":345441729},{"NoteNumber":67,"Velocity":77,"Duration":132511,"SoundDuration":132511,"Delta":345573786},{"NoteNumber":63,"Velocity":71,"Duration":132511,"SoundDuration":132511,"Delta":345706298},{"NoteNumber":75,"Velocity":71,"Duration":132511,"SoundDuration":132511,"Delta":345838809},{"NoteNumber":67,"Velocity":76,"Duration":132511,"SoundDuration":132511,"Delta":345971321},{"NoteNumber":63,"Velocity":71,"Duration":132511,"SoundDuration":132511,"Delta":346103833},{"NoteNumber":75,"Velocity":71,"Duration":145613,"SoundDuration":145613,"Delta":346236344},{"NoteNumber":77,"Velocity":82,"Duration":132056,"SoundDuration":132056,"Delta":346381958},{"NoteNumber":56,"Velocity":64,"Duration":528226,"SoundDuration":528226,"Delta":346381958},{"NoteNumber":73,"Velocity":74,"Duration":132056,"SoundDuration":132056,"Delta":346514014},{"NoteNumber":61,"Velocity":56,"Duration":264113,"SoundDuration":264113,"Delta":346514014},{"NoteNumber":68,"Velocity":77,"Duration":132056,"SoundDuration":132056,"Delta":346646071},{"NoteNumber":65,"Velocity":56,"Duration":1321931,"SoundDuration":1321931,"Delta":346646071},{"NoteNumber":73,"Velocity":82,"Duration":132056,"SoundDuration":132056,"Delta":346778128},{"NoteNumber":61,"Velocity":64,"Duration":1189875,"SoundDuration":1189875,"Delta":346778128},{"NoteNumber":77,"Velocity":75,"Duration":132056,"SoundDuration":132056,"Delta":346910184},{"NoteNumber":56,"Velocity":57,"Duration":1057818,"SoundDuration":1057818,"Delta":346910184},{"NoteNumber":80,"Velocity":74,"Duration":132056,"SoundDuration":132056,"Delta":347042241},{"NoteNumber":53,"Velocity":57,"Duration":925761,"SoundDuration":925761,"Delta":347042241},{"NoteNumber":77,"Velocity":82,"Duration":132511,"SoundDuration":132511,"Delta":347174298},{"NoteNumber":73,"Velocity":74,"Duration":132511,"SoundDuration":132511,"Delta":347306809},{"NoteNumber":68,"Velocity":74,"Duration":132511,"SoundDuration":132511,"Delta":347439321},{"NoteNumber":77,"Velocity":82,"Duration":132056,"SoundDuration":132056,"Delta":347571833},{"NoteNumber":73,"Velocity":74,"Duration":132056,"SoundDuration":132056,"Delta":347703889},{"NoteNumber":68,"Velocity":74,"Duration":132056,"SoundDuration":132056,"Delta":347835946},{"NoteNumber":75,"Velocity":82,"Duration":132056,"SoundDuration":132056,"Delta":347968003},{"NoteNumber":60,"Velocity":64,"Duration":528226,"SoundDuration":528226,"Delta":347968003},{"NoteNumber":72,"Velocity":74,"Duration":132056,"SoundDuration":132056,"Delta":348100059},{"NoteNumber":63,"Velocity":56,"Duration":264113,"SoundDuration":264113,"Delta":348100059},{"NoteNumber":69,"Velocity":77,"Duration":132056,"SoundDuration":132056,"Delta":348232116},{"NoteNumber":66,"Velocity":56,"Duration":1321931,"SoundDuration":1321931,"Delta":348232116},{"NoteNumber":72,"Velocity":82,"Duration":132056,"SoundDuration":132056,"Delta":348364173},{"NoteNumber":63,"Velocity":64,"Duration":396170,"SoundDuration":396170,"Delta":348364173},{"NoteNumber":75,"Velocity":75,"Duration":132056,"SoundDuration":132056,"Delta":348496229},{"NoteNumber":60,"Velocity":57,"Duration":1057818,"SoundDuration":1057818,"Delta":348496229},{"NoteNumber":81,"Velocity":74,"Duration":132056,"SoundDuration":132056,"Delta":348628286},{"NoteNumber":54,"Velocity":57,"Duration":925761,"SoundDuration":925761,"Delta":348628286},{"NoteNumber":75,"Velocity":82,"Duration":132511,"SoundDuration":132511,"Delta":348760343},{"NoteNumber":72,"Velocity":74,"Duration":132511,"SoundDuration":132511,"Delta":348892854},{"NoteNumber":69,"Velocity":74,"Duration":132511,"SoundDuration":132511,"Delta":349025366},{"NoteNumber":75,"Velocity":82,"Duration":132056,"SoundDuration":132056,"Delta":349157878},{"NoteNumber":72,"Velocity":74,"Duration":132056,"SoundDuration":132056,"Delta":349289934},{"NoteNumber":69,"Velocity":74,"Duration":132056,"SoundDuration":132056,"Delta":349421991},{"NoteNumber":59,"Velocity":70,"Duration":526721,"SoundDuration":526721,"Delta":349554048},{"NoteNumber":62,"Velocity":61,"Duration":263946,"SoundDuration":263946,"Delta":349686104},{"NoteNumber":67,"Velocity":61,"Duration":947310,"SoundDuration":947310,"Delta":349818161},{"NoteNumber":71,"Velocity":83,"Duration":130718,"SoundDuration":130718,"Delta":349950051},{"NoteNumber":62,"Velocity":70,"Duration":815420,"SoundDuration":815420,"Delta":349950051},{"NoteNumber":74,"Velocity":72,"Duration":130718,"SoundDuration":130718,"Delta":350080770},{"NoteNumber":59,"Velocity":62,"Duration":684701,"SoundDuration":684701,"Delta":350080770},{"NoteNumber":79,"Velocity":72,"Duration":130718,"SoundDuration":130718,"Delta":350211489},{"NoteNumber":55,"Velocity":62,"Duration":1367319,"SoundDuration":1367319,"Delta":350211489},{"NoteNumber":74,"Velocity":83,"Duration":132511,"SoundDuration":132511,"Delta":350342208},{"NoteNumber":71,"Velocity":71,"Duration":132511,"SoundDuration":132511,"Delta":350474719},{"NoteNumber":67,"Velocity":70,"Duration":158240,"SoundDuration":158240,"Delta":350607231},{"NoteNumber":77,"Velocity":58,"Duration":132056,"SoundDuration":132056,"Delta":350765471},{"NoteNumber":62,"Velocity":36,"Duration":407001,"SoundDuration":407001,"Delta":350765471},{"NoteNumber":71,"Velocity":47,"Duration":132056,"SoundDuration":132056,"Delta":350897528},{"NoteNumber":67,"Velocity":47,"Duration":142887,"SoundDuration":142887,"Delta":351029585},{"NoteNumber":77,"Velocity":55,"Duration":132511,"SoundDuration":132511,"Delta":351172472},{"NoteNumber":59,"Velocity":41,"Duration":406336,"SoundDuration":406336,"Delta":351172472},{"NoteNumber":74,"Velocity":47,"Duration":132511,"SoundDuration":132511,"Delta":351304984},{"NoteNumber":67,"Velocity":47,"Duration":141312,"SoundDuration":141312,"Delta":351437496},{"NoteNumber":75,"Velocity":55,"Duration":132511,"SoundDuration":132511,"Delta":351578808},{"NoteNumber":55,"Velocity":36,"Duration":1241735,"SoundDuration":1241735,"Delta":351578808},{"NoteNumber":74,"Velocity":47,"Duration":132511,"SoundDuration":132511,"Delta":351711320},{"NoteNumber":67,"Velocity":47,"Duration":141312,"SoundDuration":141312,"Delta":351843832},{"NoteNumber":75,"Velocity":55,"Duration":132511,"SoundDuration":132511,"Delta":351985144},{"NoteNumber":60,"Velocity":36,"Duration":405305,"SoundDuration":405305,"Delta":351985144},{"NoteNumber":72,"Velocity":48,"Duration":132511,"SoundDuration":132511,"Delta":352117656},{"NoteNumber":67,"Velocity":48,"Duration":140282,"SoundDuration":140282,"Delta":352250168},{"NoteNumber":74,"Velocity":55,"Duration":132511,"SoundDuration":132511,"Delta":352390450},{"NoteNumber":66,"Velocity":36,"Duration":430094,"SoundDuration":430094,"Delta":352390450},{"NoteNumber":72,"Velocity":47,"Duration":132511,"SoundDuration":132511,"Delta":352522961},{"NoteNumber":69,"Velocity":47,"Duration":165071,"SoundDuration":165071,"Delta":352655473},{"NoteNumber":47,"Velocity":62,"Duration":526721,"SoundDuration":526721,"Delta":352820544},{"NoteNumber":50,"Velocity":55,"Duration":263946,"SoundDuration":263946,"Delta":352952601},{"NoteNumber":55,"Velocity":55,"Duration":784928,"SoundDuration":784928,"Delta":353084657},{"NoteNumber":59,"Velocity":78,"Duration":130718,"SoundDuration":130718,"Delta":353216547},{"NoteNumber":50,"Velocity":62,"Duration":815420,"SoundDuration":815420,"Delta":353216547},{"NoteNumber":62,"Velocity":71,"Duration":130718,"SoundDuration":130718,"Delta":353347266},{"NoteNumber":47,"Velocity":56,"Duration":684701,"SoundDuration":684701,"Delta":353347266},{"NoteNumber":67,"Velocity":71,"Duration":130718,"SoundDuration":130718,"Delta":353477985},{"NoteNumber":43,"Velocity":56,"Duration":1367319,"SoundDuration":1367319,"Delta":353477985},{"NoteNumber":62,"Velocity":74,"Duration":132511,"SoundDuration":132511,"Delta":353608704},{"NoteNumber":59,"Velocity":63,"Duration":132511,"SoundDuration":132511,"Delta":353741215},{"NoteNumber":55,"Velocity":62,"Duration":158240,"SoundDuration":158240,"Delta":353873727},{"NoteNumber":65,"Velocity":52,"Duration":132056,"SoundDuration":132056,"Delta":354031967},{"NoteNumber":50,"Velocity":32,"Duration":407001,"SoundDuration":407001,"Delta":354031967},{"NoteNumber":59,"Velocity":42,"Duration":132056,"SoundDuration":132056,"Delta":354164024},{"NoteNumber":55,"Velocity":42,"Duration":142887,"SoundDuration":142887,"Delta":354296081},{"NoteNumber":65,"Velocity":49,"Duration":132511,"SoundDuration":132511,"Delta":354438968},{"NoteNumber":47,"Velocity":36,"Duration":406336,"SoundDuration":406336,"Delta":354438968},{"NoteNumber":62,"Velocity":42,"Duration":132511,"SoundDuration":132511,"Delta":354571480},{"NoteNumber":55,"Velocity":42,"Duration":141312,"SoundDuration":141312,"Delta":354703992},{"NoteNumber":63,"Velocity":49,"Duration":132511,"SoundDuration":132511,"Delta":354845304},{"NoteNumber":43,"Velocity":32,"Duration":1414688,"SoundDuration":1414688,"Delta":354845304},{"NoteNumber":62,"Velocity":42,"Duration":132511,"SoundDuration":132511,"Delta":354977816},{"NoteNumber":55,"Velocity":42,"Duration":141312,"SoundDuration":141312,"Delta":355110328},{"NoteNumber":63,"Velocity":49,"Duration":132511,"SoundDuration":132511,"Delta":355251640},{"NoteNumber":48,"Velocity":32,"Duration":405305,"SoundDuration":405305,"Delta":355251640},{"NoteNumber":60,"Velocity":43,"Duration":132511,"SoundDuration":132511,"Delta":355384152},{"NoteNumber":55,"Velocity":43,"Duration":140282,"SoundDuration":140282,"Delta":355516664},{"NoteNumber":62,"Velocity":49,"Duration":132511,"SoundDuration":132511,"Delta":355656946},{"NoteNumber":54,"Velocity":32,"Duration":404279,"SoundDuration":404279,"Delta":355656946},{"NoteNumber":60,"Velocity":42,"Duration":132511,"SoundDuration":132511,"Delta":355789457},{"NoteNumber":57,"Velocity":42,"Duration":139256,"SoundDuration":139256,"Delta":355921969},{"NoteNumber":62,"Velocity":49,"Duration":132511,"SoundDuration":132511,"Delta":356061225},{"NoteNumber":55,"Velocity":36,"Duration":198767,"SoundDuration":198767,"Delta":356061225},{"NoteNumber":59,"Velocity":42,"Duration":132511,"SoundDuration":132511,"Delta":356193737},{"NoteNumber":55,"Velocity":42,"Duration":141312,"SoundDuration":141312,"Delta":356326249},{"NoteNumber":60,"Velocity":49,"Duration":133440,"SoundDuration":133440,"Delta":356467561},{"NoteNumber":48,"Velocity":32,"Duration":409767,"SoundDuration":409767,"Delta":356467561},{"NoteNumber":55,"Velocity":42,"Duration":133439,"SoundDuration":133439,"Delta":356601001},{"NoteNumber":51,"Velocity":41,"Duration":142887,"SoundDuration":142887,"Delta":356734441},{"NoteNumber":59,"Velocity":48,"Duration":134363,"SoundDuration":134363,"Delta":356877329},{"NoteNumber":43,"Velocity":31,"Duration":411614,"SoundDuration":411614,"Delta":356877329},{"NoteNumber":55,"Velocity":41,"Duration":134363,"SoundDuration":134363,"Delta":357011692},{"NoteNumber":50,"Velocity":41,"Duration":142887,"SoundDuration":142887,"Delta":357146056},{"NoteNumber":57,"Velocity":46,"Duration":135317,"SoundDuration":135317,"Delta":357288943},{"NoteNumber":36,"Velocity":30,"Duration":414066,"SoundDuration":414066,"Delta":357288943},{"NoteNumber":51,"Velocity":39,"Duration":135317,"SoundDuration":135317,"Delta":357424261},{"NoteNumber":48,"Velocity":39,"Duration":143431,"SoundDuration":143431,"Delta":357559579},{"NoteNumber":55,"Velocity":45,"Duration":136277,"SoundDuration":136277,"Delta":357703010},{"NoteNumber":31,"Velocity":33,"Duration":417072,"SoundDuration":417072,"Delta":357703010},{"NoteNumber":50,"Velocity":38,"Duration":136276,"SoundDuration":136276,"Delta":357839287},{"NoteNumber":47,"Velocity":37,"Duration":144519,"SoundDuration":144519,"Delta":357975564},{"NoteNumber":54,"Velocity":43,"Duration":137760,"SoundDuration":137760,"Delta":358120083},{"NoteNumber":36,"Velocity":28,"Duration":420573,"SoundDuration":420573,"Delta":358120083},{"NoteNumber":51,"Velocity":36,"Duration":137759,"SoundDuration":137759,"Delta":358257843},{"NoteNumber":45,"Velocity":36,"Duration":145053,"SoundDuration":145053,"Delta":358395603},{"NoteNumber":55,"Velocity":42,"Duration":138255,"SoundDuration":138255,"Delta":358540657},{"NoteNumber":31,"Velocity":27,"Duration":421564,"SoundDuration":421564,"Delta":358540657},{"NoteNumber":50,"Velocity":36,"Duration":138255,"SoundDuration":138255,"Delta":358678912},{"NoteNumber":47,"Velocity":36,"Duration":145053,"SoundDuration":145053,"Delta":358817168},{"NoteNumber":54,"Velocity":40,"Duration":139772,"SoundDuration":139772,"Delta":358962221},{"NoteNumber":36,"Velocity":26,"Duration":426279,"SoundDuration":426279,"Delta":358962221},{"NoteNumber":51,"Velocity":34,"Duration":139772,"SoundDuration":139772,"Delta":359101994},{"NoteNumber":45,"Velocity":34,"Duration":146735,"SoundDuration":146735,"Delta":359241766},{"NoteNumber":47,"Velocity":38,"Duration":1705019,"SoundDuration":1705019,"Delta":359388501},{"NoteNumber":50,"Velocity":38,"Duration":1705019,"SoundDuration":1705019,"Delta":359388501},{"NoteNumber":55,"Velocity":45,"Duration":1705019,"SoundDuration":1705019,"Delta":359388501},{"NoteNumber":31,"Velocity":37,"Duration":99926,"SoundDuration":99926,"Delta":359388501},{"NoteNumber":36,"Velocity":33,"Duration":99926,"SoundDuration":99926,"Delta":359488428},{"NoteNumber":35,"Velocity":33,"Duration":99926,"SoundDuration":99926,"Delta":359588355},{"NoteNumber":33,"Velocity":33,"Duration":99926,"SoundDuration":99926,"Delta":359688281},{"NoteNumber":31,"Velocity":37,"Duration":99926,"SoundDuration":99926,"Delta":359788208},{"NoteNumber":36,"Velocity":33,"Duration":99926,"SoundDuration":99926,"Delta":359888135},{"NoteNumber":35,"Velocity":33,"Duration":99926,"SoundDuration":99926,"Delta":359988062},{"NoteNumber":33,"Velocity":33,"Duration":99926,"SoundDuration":99926,"Delta":360087988},{"NoteNumber":31,"Velocity":37,"Duration":99926,"SoundDuration":99926,"Delta":360187915},{"NoteNumber":36,"Velocity":33,"Duration":99926,"SoundDuration":99926,"Delta":360287842},{"NoteNumber":35,"Velocity":33,"Duration":99926,"SoundDuration":99926,"Delta":360387769},{"NoteNumber":33,"Velocity":33,"Duration":99926,"SoundDuration":99926,"Delta":360487695},{"NoteNumber":31,"Velocity":37,"Duration":99926,"SoundDuration":99926,"Delta":360587622},{"NoteNumber":36,"Velocity":33,"Duration":99926,"SoundDuration":99926,"Delta":360687549},{"NoteNumber":35,"Velocity":33,"Duration":99926,"SoundDuration":99926,"Delta":360787476},{"NoteNumber":33,"Velocity":33,"Duration":99188,"SoundDuration":99188,"Delta":360887402},{"NoteNumber":31,"Velocity":33,"Duration":1713557,"SoundDuration":1713557,"Delta":360986591},{"NoteNumber":50,"Velocity":40,"Duration":99926,"SoundDuration":99926,"Delta":361093520},{"NoteNumber":52,"Velocity":40,"Duration":99926,"SoundDuration":99926,"Delta":361193447},{"NoteNumber":54,"Velocity":40,"Duration":99926,"SoundDuration":99926,"Delta":361293374},{"NoteNumber":55,"Velocity":45,"Duration":99926,"SoundDuration":99926,"Delta":361393300},{"NoteNumber":50,"Velocity":40,"Duration":99926,"SoundDuration":99926,"Delta":361493227},{"NoteNumber":52,"Velocity":40,"Duration":99926,"SoundDuration":99926,"Delta":361593154},{"NoteNumber":54,"Velocity":40,"Duration":99926,"SoundDuration":99926,"Delta":361693081},{"NoteNumber":55,"Velocity":45,"Duration":99926,"SoundDuration":99926,"Delta":361793007},{"NoteNumber":50,"Velocity":40,"Duration":99926,"SoundDuration":99926,"Delta":361892934},{"NoteNumber":52,"Velocity":40,"Duration":99926,"SoundDuration":99926,"Delta":361992861},{"NoteNumber":54,"Velocity":40,"Duration":99926,"SoundDuration":99926,"Delta":362092788},{"NoteNumber":55,"Velocity":46,"Duration":99926,"SoundDuration":99926,"Delta":362192714},{"NoteNumber":50,"Velocity":40,"Duration":99926,"SoundDuration":99926,"Delta":362292641},{"NoteNumber":52,"Velocity":40,"Duration":99926,"SoundDuration":99926,"Delta":362392568},{"NoteNumber":54,"Velocity":40,"Duration":99926,"SoundDuration":99926,"Delta":362492495},{"NoteNumber":55,"Velocity":45,"Duration":1713557,"SoundDuration":1713557,"Delta":362592421},{"NoteNumber":36,"Velocity":33,"Duration":99926,"SoundDuration":99926,"Delta":362700149},{"NoteNumber":35,"Velocity":33,"Duration":99926,"SoundDuration":99926,"Delta":362800076},{"NoteNumber":33,"Velocity":33,"Duration":99926,"SoundDuration":99926,"Delta":362900003},{"NoteNumber":31,"Velocity":37,"Duration":99926,"SoundDuration":99926,"Delta":362999929},{"NoteNumber":36,"Velocity":33,"Duration":99926,"SoundDuration":99926,"Delta":363099856},{"NoteNumber":35,"Velocity":33,"Duration":99926,"SoundDuration":99926,"Delta":363199783},{"NoteNumber":33,"Velocity":33,"Duration":99926,"SoundDuration":99926,"Delta":363299710},{"NoteNumber":31,"Velocity":37,"Duration":99926,"SoundDuration":99926,"Delta":363399636},{"NoteNumber":36,"Velocity":33,"Duration":99926,"SoundDuration":99926,"Delta":363499563},{"NoteNumber":35,"Velocity":33,"Duration":99926,"SoundDuration":99926,"Delta":363599490},{"NoteNumber":33,"Velocity":33,"Duration":99926,"SoundDuration":99926,"Delta":363699417},{"NoteNumber":31,"Velocity":37,"Duration":99926,"SoundDuration":99926,"Delta":363799343},{"NoteNumber":36,"Velocity":33,"Duration":99926,"SoundDuration":99926,"Delta":363899270},{"NoteNumber":35,"Velocity":33,"Duration":99926,"SoundDuration":99926,"Delta":363999197},{"NoteNumber":33,"Velocity":33,"Duration":99926,"SoundDuration":99926,"Delta":364099124},{"NoteNumber":31,"Velocity":33,"Duration":1705757,"SoundDuration":1705757,"Delta":364199050},{"NoteNumber":54,"Velocity":40,"Duration":99926,"SoundDuration":99926,"Delta":364305979},{"NoteNumber":55,"Velocity":40,"Duration":99926,"SoundDuration":99926,"Delta":364405906},{"NoteNumber":57,"Velocity":40,"Duration":99926,"SoundDuration":99926,"Delta":364505833},{"NoteNumber":59,"Velocity":45,"Duration":99926,"SoundDuration":99926,"Delta":364605760},{"NoteNumber":54,"Velocity":40,"Duration":99926,"SoundDuration":99926,"Delta":364705686},{"NoteNumber":55,"Velocity":40,"Duration":99926,"SoundDuration":99926,"Delta":364805613},{"NoteNumber":57,"Velocity":40,"Duration":99926,"SoundDuration":99926,"Delta":364905540},{"NoteNumber":59,"Velocity":45,"Duration":99926,"SoundDuration":99926,"Delta":365005467},{"NoteNumber":54,"Velocity":40,"Duration":99926,"SoundDuration":99926,"Delta":365105393},{"NoteNumber":55,"Velocity":40,"Duration":99926,"SoundDuration":99926,"Delta":365205320},{"NoteNumber":57,"Velocity":40,"Duration":99926,"SoundDuration":99926,"Delta":365305247},{"NoteNumber":59,"Velocity":46,"Duration":99926,"SoundDuration":99926,"Delta":365405174},{"NoteNumber":54,"Velocity":40,"Duration":99926,"SoundDuration":99926,"Delta":365505100},{"NoteNumber":55,"Velocity":40,"Duration":99926,"SoundDuration":99926,"Delta":365605027},{"NoteNumber":57,"Velocity":40,"Duration":99926,"SoundDuration":99926,"Delta":365704954},{"NoteNumber":59,"Velocity":45,"Duration":199853,"SoundDuration":199853,"Delta":365804881},{"NoteNumber":36,"Velocity":33,"Duration":99926,"SoundDuration":99926,"Delta":365904807},{"NoteNumber":35,"Velocity":33,"Duration":99926,"SoundDuration":99926,"Delta":366004734},{"NoteNumber":33,"Velocity":33,"Duration":99926,"SoundDuration":99926,"Delta":366104661},{"NoteNumber":31,"Velocity":37,"Duration":99926,"SoundDuration":99926,"Delta":366204588},{"NoteNumber":36,"Velocity":33,"Duration":99926,"SoundDuration":99926,"Delta":366304514},{"NoteNumber":59,"Velocity":41,"Duration":99926,"SoundDuration":99926,"Delta":366404441},{"NoteNumber":35,"Velocity":33,"Duration":99926,"SoundDuration":99926,"Delta":366404441},{"NoteNumber":60,"Velocity":44,"Duration":99926,"SoundDuration":99926,"Delta":366504368},{"NoteNumber":33,"Velocity":33,"Duration":99926,"SoundDuration":99926,"Delta":366504368},{"NoteNumber":62,"Velocity":48,"Duration":99926,"SoundDuration":99926,"Delta":366604295},{"NoteNumber":31,"Velocity":38,"Duration":99926,"SoundDuration":99926,"Delta":366604295},{"NoteNumber":36,"Velocity":33,"Duration":99926,"SoundDuration":99926,"Delta":366704221},{"NoteNumber":35,"Velocity":34,"Duration":99926,"SoundDuration":99926,"Delta":366804148},{"NoteNumber":33,"Velocity":34,"Duration":99926,"SoundDuration":99926,"Delta":366904075},{"NoteNumber":31,"Velocity":38,"Duration":99926,"SoundDuration":99926,"Delta":367004002},{"NoteNumber":36,"Velocity":34,"Duration":99926,"SoundDuration":99926,"Delta":367103928},{"NoteNumber":62,"Velocity":45,"Duration":66617,"SoundDuration":66617,"Delta":367203855},{"NoteNumber":35,"Velocity":34,"Duration":99926,"SoundDuration":99926,"Delta":367203855},{"NoteNumber":64,"Velocity":47,"Duration":66617,"SoundDuration":66617,"Delta":367270473},{"NoteNumber":33,"Velocity":34,"Duration":99926,"SoundDuration":99926,"Delta":367303782},{"NoteNumber":66,"Velocity":48,"Duration":66617,"SoundDuration":66617,"Delta":367337091},{"NoteNumber":67,"Velocity":53,"Duration":198478,"SoundDuration":198478,"Delta":367403709},{"NoteNumber":31,"Velocity":39,"Duration":99239,"SoundDuration":99239,"Delta":367403709},{"NoteNumber":36,"Velocity":35,"Duration":99239,"SoundDuration":99239,"Delta":367502948},{"NoteNumber":35,"Velocity":35,"Duration":99239,"SoundDuration":99239,"Delta":367602187},{"NoteNumber":33,"Velocity":35,"Duration":99239,"SoundDuration":99239,"Delta":367701426},{"NoteNumber":31,"Velocity":39,"Duration":99239,"SoundDuration":99239,"Delta":367800666},{"NoteNumber":36,"Velocity":35,"Duration":99239,"SoundDuration":99239,"Delta":367899905},{"NoteNumber":67,"Velocity":51,"Duration":95950,"SoundDuration":95950,"Delta":367999144},{"NoteNumber":35,"Velocity":35,"Duration":95950,"SoundDuration":95950,"Delta":367999144},{"NoteNumber":69,"Velocity":51,"Duration":95950,"SoundDuration":95950,"Delta":368095095},{"NoteNumber":33,"Velocity":35,"Duration":95950,"SoundDuration":95950,"Delta":368095095},{"NoteNumber":71,"Velocity":55,"Duration":99239,"SoundDuration":99239,"Delta":368191046},{"NoteNumber":31,"Velocity":40,"Duration":99239,"SoundDuration":99239,"Delta":368191046},{"NoteNumber":36,"Velocity":36,"Duration":99239,"SoundDuration":99239,"Delta":368290285},{"NoteNumber":71,"Velocity":51,"Duration":95950,"SoundDuration":95950,"Delta":368389524},{"NoteNumber":35,"Velocity":36,"Duration":95950,"SoundDuration":95950,"Delta":368389524},{"NoteNumber":72,"Velocity":52,"Duration":95950,"SoundDuration":95950,"Delta":368485475},{"NoteNumber":33,"Velocity":36,"Duration":95950,"SoundDuration":95950,"Delta":368485475},{"NoteNumber":74,"Velocity":55,"Duration":99239,"SoundDuration":99239,"Delta":368581426},{"NoteNumber":31,"Velocity":40,"Duration":99239,"SoundDuration":99239,"Delta":368581426},{"NoteNumber":36,"Velocity":36,"Duration":99239,"SoundDuration":99239,"Delta":368680665},{"NoteNumber":74,"Velocity":52,"Duration":63967,"SoundDuration":63967,"Delta":368779904},{"NoteNumber":35,"Velocity":36,"Duration":95950,"SoundDuration":95950,"Delta":368779904},{"NoteNumber":76,"Velocity":54,"Duration":63967,"SoundDuration":63967,"Delta":368843871},{"NoteNumber":33,"Velocity":36,"Duration":95950,"SoundDuration":95950,"Delta":368875855},{"NoteNumber":78,"Velocity":56,"Duration":63967,"SoundDuration":63967,"Delta":368907839},{"NoteNumber":79,"Velocity":58,"Duration":198478,"SoundDuration":198478,"Delta":368971806},{"NoteNumber":31,"Velocity":41,"Duration":99239,"SoundDuration":99239,"Delta":368971806},{"NoteNumber":36,"Velocity":36,"Duration":99239,"SoundDuration":99239,"Delta":369071045},{"NoteNumber":35,"Velocity":37,"Duration":99239,"SoundDuration":99239,"Delta":369170284},{"NoteNumber":33,"Velocity":37,"Duration":99239,"SoundDuration":99239,"Delta":369269523},{"NoteNumber":31,"Velocity":42,"Duration":99239,"SoundDuration":99239,"Delta":369368763},{"NoteNumber":36,"Velocity":37,"Duration":99239,"SoundDuration":99239,"Delta":369468002},{"NoteNumber":62,"Velocity":50,"Duration":63548,"SoundDuration":63548,"Delta":369567241},{"NoteNumber":35,"Velocity":37,"Duration":95322,"SoundDuration":95322,"Delta":369567241},{"NoteNumber":64,"Velocity":53,"Duration":63548,"SoundDuration":63548,"Delta":369630790},{"NoteNumber":33,"Velocity":37,"Duration":95322,"SoundDuration":95322,"Delta":369662564},{"NoteNumber":66,"Velocity":55,"Duration":63548,"SoundDuration":63548,"Delta":369694338},{"NoteNumber":67,"Velocity":58,"Duration":198478,"SoundDuration":198478,"Delta":369757887},{"NoteNumber":31,"Velocity":42,"Duration":99239,"SoundDuration":99239,"Delta":369757887},{"NoteNumber":36,"Velocity":38,"Duration":99239,"SoundDuration":99239,"Delta":369857126},{"NoteNumber":35,"Velocity":38,"Duration":99239,"SoundDuration":99239,"Delta":369956365},{"NoteNumber":33,"Velocity":38,"Duration":99239,"SoundDuration":99239,"Delta":370055604},{"NoteNumber":31,"Velocity":44,"Duration":99239,"SoundDuration":99239,"Delta":370154844},{"NoteNumber":36,"Velocity":38,"Duration":99239,"SoundDuration":99239,"Delta":370254083},{"NoteNumber":67,"Velocity":55,"Duration":94696,"SoundDuration":94696,"Delta":370353322},{"NoteNumber":35,"Velocity":38,"Duration":94696,"SoundDuration":94696,"Delta":370353322},{"NoteNumber":69,"Velocity":59,"Duration":94696,"SoundDuration":94696,"Delta":370448019},{"NoteNumber":33,"Velocity":38,"Duration":94696,"SoundDuration":94696,"Delta":370448019},{"NoteNumber":71,"Velocity":63,"Duration":98561,"SoundDuration":98561,"Delta":370542716},{"NoteNumber":31,"Velocity":44,"Duration":98561,"SoundDuration":98561,"Delta":370542716},{"NoteNumber":36,"Velocity":39,"Duration":98560,"SoundDuration":98560,"Delta":370641277},{"NoteNumber":35,"Velocity":39,"Duration":98561,"SoundDuration":98561,"Delta":370739838},{"NoteNumber":33,"Velocity":39,"Duration":98561,"SoundDuration":98561,"Delta":370838399},{"NoteNumber":31,"Velocity":45,"Duration":98560,"SoundDuration":98560,"Delta":370936960},{"NoteNumber":36,"Velocity":39,"Duration":98561,"SoundDuration":98561,"Delta":371035521},{"NoteNumber":71,"Velocity":57,"Duration":94393,"SoundDuration":94393,"Delta":371134082},{"NoteNumber":35,"Velocity":39,"Duration":94393,"SoundDuration":94393,"Delta":371134082},{"NoteNumber":72,"Velocity":58,"Duration":94392,"SoundDuration":94392,"Delta":371228475},{"NoteNumber":33,"Velocity":39,"Duration":94392,"SoundDuration":94392,"Delta":371228475},{"NoteNumber":74,"Velocity":63,"Duration":98561,"SoundDuration":98561,"Delta":371322868},{"NoteNumber":31,"Velocity":45,"Duration":98561,"SoundDuration":98561,"Delta":371322868},{"NoteNumber":36,"Velocity":39,"Duration":98560,"SoundDuration":98560,"Delta":371421429},{"NoteNumber":74,"Velocity":58,"Duration":62928,"SoundDuration":62928,"Delta":371519990},{"NoteNumber":35,"Velocity":40,"Duration":94393,"SoundDuration":94393,"Delta":371519990},{"NoteNumber":76,"Velocity":60,"Duration":62928,"SoundDuration":62928,"Delta":371582919},{"NoteNumber":33,"Velocity":40,"Duration":94392,"SoundDuration":94392,"Delta":371614383},{"NoteNumber":78,"Velocity":63,"Duration":62928,"SoundDuration":62928,"Delta":371645848},{"NoteNumber":79,"Velocity":66,"Duration":98231,"SoundDuration":98231,"Delta":371708776},{"NoteNumber":31,"Velocity":46,"Duration":98231,"SoundDuration":98231,"Delta":371708776},{"NoteNumber":36,"Velocity":40,"Duration":98231,"SoundDuration":98231,"Delta":371807008},{"NoteNumber":79,"Velocity":65,"Duration":94085,"SoundDuration":94085,"Delta":371905240},{"NoteNumber":35,"Velocity":40,"Duration":94085,"SoundDuration":94085,"Delta":371905240},{"NoteNumber":81,"Velocity":68,"Duration":94085,"SoundDuration":94085,"Delta":371999325},{"NoteNumber":33,"Velocity":40,"Duration":94085,"SoundDuration":94085,"Delta":371999325},{"NoteNumber":83,"Velocity":70,"Duration":98231,"SoundDuration":98231,"Delta":372093410},{"NoteNumber":31,"Velocity":46,"Duration":98231,"SoundDuration":98231,"Delta":372093410},{"NoteNumber":36,"Velocity":41,"Duration":98231,"SoundDuration":98231,"Delta":372191642},{"NoteNumber":35,"Velocity":41,"Duration":98231,"SoundDuration":98231,"Delta":372289874},{"NoteNumber":33,"Velocity":41,"Duration":98231,"SoundDuration":98231,"Delta":372388105},{"NoteNumber":31,"Velocity":47,"Duration":98231,"SoundDuration":98231,"Delta":372486337},{"NoteNumber":36,"Velocity":41,"Duration":98231,"SoundDuration":98231,"Delta":372584569},{"NoteNumber":74,"Velocity":65,"Duration":62115,"SoundDuration":62115,"Delta":372682801},{"NoteNumber":35,"Velocity":41,"Duration":93173,"SoundDuration":93173,"Delta":372682801},{"NoteNumber":76,"Velocity":68,"Duration":62115,"SoundDuration":62115,"Delta":372744916},{"NoteNumber":33,"Velocity":41,"Duration":93173,"SoundDuration":93173,"Delta":372775974},{"NoteNumber":78,"Velocity":69,"Duration":62115,"SoundDuration":62115,"Delta":372807032},{"NoteNumber":79,"Velocity":71,"Duration":98231,"SoundDuration":98231,"Delta":372869148},{"NoteNumber":31,"Velocity":48,"Duration":98231,"SoundDuration":98231,"Delta":372869148},{"NoteNumber":36,"Velocity":42,"Duration":98231,"SoundDuration":98231,"Delta":372967379},{"NoteNumber":35,"Velocity":42,"Duration":98231,"SoundDuration":98231,"Delta":373065611},{"NoteNumber":33,"Velocity":42,"Duration":98231,"SoundDuration":98231,"Delta":373163843},{"NoteNumber":31,"Velocity":48,"Duration":98231,"SoundDuration":98231,"Delta":373262075},{"NoteNumber":36,"Velocity":42,"Duration":98231,"SoundDuration":98231,"Delta":373360306},{"NoteNumber":79,"Velocity":66,"Duration":92581,"SoundDuration":92581,"Delta":373458538},{"NoteNumber":35,"Velocity":42,"Duration":92581,"SoundDuration":92581,"Delta":373458538},{"NoteNumber":81,"Velocity":68,"Duration":92581,"SoundDuration":92581,"Delta":373551119},{"NoteNumber":33,"Velocity":42,"Duration":92581,"SoundDuration":92581,"Delta":373551119},{"NoteNumber":83,"Velocity":73,"Duration":98231,"SoundDuration":98231,"Delta":373643701},{"NoteNumber":31,"Velocity":49,"Duration":98231,"SoundDuration":98231,"Delta":373643701},{"NoteNumber":36,"Velocity":42,"Duration":98231,"SoundDuration":98231,"Delta":373741932},{"NoteNumber":35,"Velocity":44,"Duration":98231,"SoundDuration":98231,"Delta":373840164},{"NoteNumber":33,"Velocity":44,"Duration":98231,"SoundDuration":98231,"Delta":373938396},{"NoteNumber":31,"Velocity":49,"Duration":96918,"SoundDuration":96918,"Delta":374036628},{"NoteNumber":36,"Velocity":44,"Duration":96917,"SoundDuration":96917,"Delta":374133546},{"NoteNumber":79,"Velocity":68,"Duration":91413,"SoundDuration":91413,"Delta":374230464},{"NoteNumber":35,"Velocity":44,"Duration":91413,"SoundDuration":91413,"Delta":374230464},{"NoteNumber":81,"Velocity":72,"Duration":91413,"SoundDuration":91413,"Delta":374321877},{"NoteNumber":33,"Velocity":44,"Duration":91413,"SoundDuration":91413,"Delta":374321877},{"NoteNumber":83,"Velocity":76,"Duration":96918,"SoundDuration":96918,"Delta":374413290},{"NoteNumber":31,"Velocity":50,"Duration":96918,"SoundDuration":96918,"Delta":374413290},{"NoteNumber":36,"Velocity":45,"Duration":96917,"SoundDuration":96917,"Delta":374510208},{"NoteNumber":83,"Velocity":68,"Duration":91124,"SoundDuration":91124,"Delta":374607126},{"NoteNumber":35,"Velocity":45,"Duration":91124,"SoundDuration":91124,"Delta":374607126},{"NoteNumber":84,"Velocity":71,"Duration":91124,"SoundDuration":91124,"Delta":374698251},{"NoteNumber":33,"Velocity":45,"Duration":91124,"SoundDuration":91124,"Delta":374698251},{"NoteNumber":86,"Velocity":75,"Duration":96593,"SoundDuration":96593,"Delta":374789375},{"NoteNumber":31,"Velocity":50,"Duration":96593,"SoundDuration":96593,"Delta":374789375},{"NoteNumber":36,"Velocity":45,"Duration":96593,"SoundDuration":96593,"Delta":374885969},{"NoteNumber":86,"Velocity":70,"Duration":90557,"SoundDuration":90557,"Delta":374982562},{"NoteNumber":35,"Velocity":45,"Duration":90557,"SoundDuration":90557,"Delta":374982562},{"NoteNumber":88,"Velocity":75,"Duration":90557,"SoundDuration":90557,"Delta":375073120},{"NoteNumber":33,"Velocity":45,"Duration":90557,"SoundDuration":90557,"Delta":375073120},{"NoteNumber":89,"Velocity":79,"Duration":96593,"SoundDuration":96593,"Delta":375163678},{"NoteNumber":31,"Velocity":51,"Duration":96593,"SoundDuration":96593,"Delta":375163678},{"NoteNumber":36,"Velocity":46,"Duration":96593,"SoundDuration":96593,"Delta":375260271},{"NoteNumber":35,"Velocity":46,"Duration":96593,"SoundDuration":96593,"Delta":375356865},{"NoteNumber":33,"Velocity":46,"Duration":96593,"SoundDuration":96593,"Delta":375453458},{"NoteNumber":31,"Velocity":52,"Duration":95950,"SoundDuration":95950,"Delta":375550052},{"NoteNumber":36,"Velocity":47,"Duration":95950,"SoundDuration":95950,"Delta":375646002},{"NoteNumber":86,"Velocity":77,"Duration":90557,"SoundDuration":90557,"Delta":375741953},{"NoteNumber":35,"Velocity":48,"Duration":90557,"SoundDuration":90557,"Delta":375741953},{"NoteNumber":88,"Velocity":82,"Duration":90557,"SoundDuration":90557,"Delta":375832511},{"NoteNumber":33,"Velocity":48,"Duration":90557,"SoundDuration":90557,"Delta":375832511},{"NoteNumber":89,"Velocity":86,"Duration":95322,"SoundDuration":95322,"Delta":375923069},{"NoteNumber":31,"Velocity":54,"Duration":95322,"SoundDuration":95322,"Delta":375923069},{"NoteNumber":37,"Velocity":49,"Duration":95322,"SoundDuration":95322,"Delta":376018391},{"NoteNumber":35,"Velocity":49,"Duration":95322,"SoundDuration":95322,"Delta":376113714},{"NoteNumber":33,"Velocity":50,"Duration":95322,"SoundDuration":95322,"Delta":376209037},{"NoteNumber":31,"Velocity":56,"Duration":95322,"SoundDuration":95322,"Delta":376304360},{"NoteNumber":37,"Velocity":51,"Duration":95322,"SoundDuration":95322,"Delta":376399682},{"NoteNumber":86,"Velocity":79,"Duration":90557,"SoundDuration":90557,"Delta":376495005},{"NoteNumber":35,"Velocity":51,"Duration":90557,"SoundDuration":90557,"Delta":376495005},{"NoteNumber":88,"Velocity":84,"Duration":90557,"SoundDuration":90557,"Delta":376585563},{"NoteNumber":33,"Velocity":51,"Duration":90557,"SoundDuration":90557,"Delta":376585563},{"NoteNumber":89,"Velocity":88,"Duration":95008,"SoundDuration":95008,"Delta":376676121},{"NoteNumber":31,"Velocity":57,"Duration":110843,"SoundDuration":110843,"Delta":376676121},{"NoteNumber":38,"Velocity":52,"Duration":110054,"SoundDuration":110054,"Delta":376771129},{"NoteNumber":86,"Velocity":79,"Duration":90274,"SoundDuration":90274,"Delta":376866138},{"NoteNumber":35,"Velocity":52,"Duration":105320,"SoundDuration":105320,"Delta":376866138},{"NoteNumber":88,"Velocity":84,"Duration":90274,"SoundDuration":90274,"Delta":376956413},{"NoteNumber":33,"Velocity":53,"Duration":106109,"SoundDuration":106109,"Delta":376956413},{"NoteNumber":89,"Velocity":88,"Duration":95008,"SoundDuration":95008,"Delta":377046687},{"NoteNumber":31,"Velocity":59,"Duration":110843,"SoundDuration":110843,"Delta":377046687},{"NoteNumber":38,"Velocity":54,"Duration":110101,"SoundDuration":110101,"Delta":377141696},{"NoteNumber":86,"Velocity":81,"Duration":90557,"SoundDuration":90557,"Delta":377236705},{"NoteNumber":35,"Velocity":54,"Duration":105650,"SoundDuration":105650,"Delta":377236705},{"NoteNumber":88,"Velocity":85,"Duration":90557,"SoundDuration":90557,"Delta":377327262},{"NoteNumber":33,"Velocity":54,"Duration":106392,"SoundDuration":106392,"Delta":377327262},{"NoteNumber":89,"Velocity":89,"Duration":95008,"SoundDuration":95008,"Delta":377417820},{"NoteNumber":31,"Velocity":61,"Duration":110843,"SoundDuration":110843,"Delta":377417820},{"NoteNumber":38,"Velocity":55,"Duration":110101,"SoundDuration":110101,"Delta":377512829},{"NoteNumber":86,"Velocity":81,"Duration":90557,"SoundDuration":90557,"Delta":377607838},{"NoteNumber":35,"Velocity":56,"Duration":105650,"SoundDuration":105650,"Delta":377607838},{"NoteNumber":88,"Velocity":86,"Duration":90557,"SoundDuration":90557,"Delta":377698395},{"NoteNumber":33,"Velocity":56,"Duration":106392,"SoundDuration":106392,"Delta":377698395},{"NoteNumber":89,"Velocity":92,"Duration":95008,"SoundDuration":95008,"Delta":377788953},{"NoteNumber":31,"Velocity":63,"Duration":110843,"SoundDuration":110843,"Delta":377788953},{"NoteNumber":38,"Velocity":57,"Duration":110054,"SoundDuration":110054,"Delta":377883962},{"NoteNumber":86,"Velocity":85,"Duration":90274,"SoundDuration":90274,"Delta":377978971},{"NoteNumber":35,"Velocity":57,"Duration":105320,"SoundDuration":105320,"Delta":377978971},{"NoteNumber":88,"Velocity":91,"Duration":90274,"SoundDuration":90274,"Delta":378069245},{"NoteNumber":33,"Velocity":57,"Duration":105320,"SoundDuration":105320,"Delta":378069245},{"NoteNumber":89,"Velocity":96,"Duration":105367,"SoundDuration":105367,"Delta":378159520},{"NoteNumber":31,"Velocity":67,"Duration":105367,"SoundDuration":105367,"Delta":378159520},{"NoteNumber":88,"Velocity":94,"Duration":105790,"SoundDuration":105790,"Delta":378249794},{"NoteNumber":33,"Velocity":66,"Duration":105790,"SoundDuration":105790,"Delta":378249794},{"NoteNumber":86,"Velocity":92,"Duration":106120,"SoundDuration":106120,"Delta":378340445},{"NoteNumber":35,"Velocity":65,"Duration":106120,"SoundDuration":106120,"Delta":378340445},{"NoteNumber":84,"Velocity":91,"Duration":106552,"SoundDuration":106552,"Delta":378431378},{"NoteNumber":36,"Velocity":63,"Duration":106552,"SoundDuration":106552,"Delta":378431378},{"NoteNumber":83,"Velocity":89,"Duration":106938,"SoundDuration":106938,"Delta":378522695},{"NoteNumber":38,"Velocity":62,"Duration":106938,"SoundDuration":106938,"Delta":378522695},{"NoteNumber":84,"Velocity":91,"Duration":107371,"SoundDuration":107371,"Delta":378614302},{"NoteNumber":36,"Velocity":63,"Duration":107371,"SoundDuration":107371,"Delta":378614302},{"NoteNumber":86,"Velocity":92,"Duration":107813,"SoundDuration":107813,"Delta":378706293},{"NoteNumber":35,"Velocity":64,"Duration":107813,"SoundDuration":107813,"Delta":378706293},{"NoteNumber":88,"Velocity":93,"Duration":108160,"SoundDuration":108160,"Delta":378798677},{"NoteNumber":33,"Velocity":66,"Duration":108160,"SoundDuration":108160,"Delta":378798677},{"NoteNumber":89,"Velocity":96,"Duration":108604,"SoundDuration":108604,"Delta":378891357},{"NoteNumber":31,"Velocity":66,"Duration":108604,"SoundDuration":108604,"Delta":378891357},{"NoteNumber":88,"Velocity":95,"Duration":108555,"SoundDuration":108555,"Delta":378984433},{"NoteNumber":33,"Velocity":65,"Duration":108555,"SoundDuration":108555,"Delta":378984433},{"NoteNumber":86,"Velocity":94,"Duration":108210,"SoundDuration":108210,"Delta":379077508},{"NoteNumber":35,"Velocity":64,"Duration":108210,"SoundDuration":108210,"Delta":379077508},{"NoteNumber":84,"Velocity":93,"Duration":107863,"SoundDuration":107863,"Delta":379170288},{"NoteNumber":36,"Velocity":64,"Duration":107863,"SoundDuration":107863,"Delta":379170288},{"NoteNumber":83,"Velocity":93,"Duration":107518,"SoundDuration":107518,"Delta":379262771},{"NoteNumber":38,"Velocity":61,"Duration":107518,"SoundDuration":107518,"Delta":379262771},{"NoteNumber":84,"Velocity":93,"Duration":107179,"SoundDuration":107179,"Delta":379354958},{"NoteNumber":36,"Velocity":63,"Duration":107179,"SoundDuration":107179,"Delta":379354958},{"NoteNumber":86,"Velocity":95,"Duration":106987,"SoundDuration":106987,"Delta":379446853},{"NoteNumber":35,"Velocity":65,"Duration":106987,"SoundDuration":106987,"Delta":379446853},{"NoteNumber":88,"Velocity":97,"Duration":106842,"SoundDuration":106842,"Delta":379538556},{"NoteNumber":33,"Velocity":67,"Duration":106842,"SoundDuration":106842,"Delta":379538556},{"NoteNumber":89,"Velocity":99,"Duration":198304,"SoundDuration":198304,"Delta":379630163},{"NoteNumber":31,"Velocity":69,"Duration":198304,"SoundDuration":198304,"Delta":379630163},{"NoteNumber":88,"Velocity":97,"Duration":107035,"SoundDuration":107035,"Delta":379813183},{"NoteNumber":33,"Velocity":66,"Duration":107035,"SoundDuration":107035,"Delta":379813183},{"NoteNumber":86,"Velocity":96,"Duration":107322,"SoundDuration":107322,"Delta":379904887},{"NoteNumber":35,"Velocity":65,"Duration":107322,"SoundDuration":107322,"Delta":379904887},{"NoteNumber":84,"Velocity":95,"Duration":107469,"SoundDuration":107469,"Delta":379996878},{"NoteNumber":36,"Velocity":64,"Duration":107469,"SoundDuration":107469,"Delta":379996878},{"NoteNumber":83,"Velocity":93,"Duration":107665,"SoundDuration":107665,"Delta":380088967},{"NoteNumber":38,"Velocity":63,"Duration":107665,"SoundDuration":107665,"Delta":380088967},{"NoteNumber":81,"Velocity":92,"Duration":107912,"SoundDuration":107912,"Delta":380181252},{"NoteNumber":40,"Velocity":63,"Duration":107912,"SoundDuration":107912,"Delta":380181252},{"NoteNumber":79,"Velocity":91,"Duration":108307,"SoundDuration":108307,"Delta":380273734},{"NoteNumber":41,"Velocity":62,"Duration":108307,"SoundDuration":108307,"Delta":380273734},{"NoteNumber":77,"Velocity":90,"Duration":108702,"SoundDuration":108702,"Delta":380366513},{"NoteNumber":43,"Velocity":61,"Duration":108702,"SoundDuration":108702,"Delta":380366513},{"NoteNumber":76,"Velocity":88,"Duration":108853,"SoundDuration":108853,"Delta":380459686},{"NoteNumber":45,"Velocity":60,"Duration":108853,"SoundDuration":108853,"Delta":380459686},{"NoteNumber":74,"Velocity":87,"Duration":109054,"SoundDuration":109054,"Delta":380552961},{"NoteNumber":47,"Velocity":59,"Duration":109054,"SoundDuration":109054,"Delta":380552961},{"NoteNumber":72,"Velocity":86,"Duration":109307,"SoundDuration":109307,"Delta":380646436},{"NoteNumber":48,"Velocity":58,"Duration":109307,"SoundDuration":109307,"Delta":380646436},{"NoteNumber":71,"Velocity":85,"Duration":109460,"SoundDuration":109460,"Delta":380740114},{"NoteNumber":50,"Velocity":57,"Duration":109460,"SoundDuration":109460,"Delta":380740114},{"NoteNumber":69,"Velocity":83,"Duration":109766,"SoundDuration":109766,"Delta":380833893},{"NoteNumber":52,"Velocity":56,"Duration":109766,"SoundDuration":109766,"Delta":380833893},{"NoteNumber":67,"Velocity":82,"Duration":109919,"SoundDuration":109919,"Delta":380927979},{"NoteNumber":53,"Velocity":55,"Duration":109919,"SoundDuration":109919,"Delta":380927979},{"NoteNumber":65,"Velocity":81,"Duration":109972,"SoundDuration":109972,"Delta":381022166},{"NoteNumber":55,"Velocity":55,"Duration":109972,"SoundDuration":109972,"Delta":381022166},{"NoteNumber":64,"Velocity":80,"Duration":186951,"SoundDuration":186951,"Delta":381116559},{"NoteNumber":48,"Velocity":54,"Duration":186951,"SoundDuration":186951,"Delta":381116559},{"NoteNumber":48,"Velocity":28,"Duration":140213,"SoundDuration":140213,"Delta":381303510},{"NoteNumber":52,"Velocity":33,"Duration":140213,"SoundDuration":140213,"Delta":381303510},{"NoteNumber":43,"Velocity":26,"Duration":140213,"SoundDuration":140213,"Delta":381303510},{"NoteNumber":36,"Velocity":22,"Duration":140213,"SoundDuration":140213,"Delta":381303510},{"NoteNumber":48,"Velocity":28,"Duration":139318,"SoundDuration":139318,"Delta":381490461},{"NoteNumber":52,"Velocity":33,"Duration":139318,"SoundDuration":139318,"Delta":381490461},{"NoteNumber":43,"Velocity":26,"Duration":139318,"SoundDuration":139318,"Delta":381490461},{"NoteNumber":36,"Velocity":22,"Duration":139318,"SoundDuration":139318,"Delta":381490461},{"NoteNumber":48,"Velocity":28,"Duration":139318,"SoundDuration":139318,"Delta":381676220},{"NoteNumber":52,"Velocity":34,"Duration":139318,"SoundDuration":139318,"Delta":381676220},{"NoteNumber":43,"Velocity":27,"Duration":139318,"SoundDuration":139318,"Delta":381676220},{"NoteNumber":36,"Velocity":22,"Duration":139318,"SoundDuration":139318,"Delta":381676220},{"NoteNumber":48,"Velocity":28,"Duration":140518,"SoundDuration":140518,"Delta":381861978},{"NoteNumber":52,"Velocity":34,"Duration":140518,"SoundDuration":140518,"Delta":381861978},{"NoteNumber":43,"Velocity":27,"Duration":140518,"SoundDuration":140518,"Delta":381861978},{"NoteNumber":36,"Velocity":22,"Duration":140518,"SoundDuration":140518,"Delta":381861978},{"NoteNumber":48,"Velocity":28,"Duration":140668,"SoundDuration":140668,"Delta":382049387},{"NoteNumber":52,"Velocity":34,"Duration":140668,"SoundDuration":140668,"Delta":382049387},{"NoteNumber":43,"Velocity":28,"Duration":140668,"SoundDuration":140668,"Delta":382049387},{"NoteNumber":36,"Velocity":23,"Duration":140668,"SoundDuration":140668,"Delta":382049387},{"NoteNumber":48,"Velocity":29,"Duration":139760,"SoundDuration":139760,"Delta":382236945},{"NoteNumber":52,"Velocity":35,"Duration":139760,"SoundDuration":139760,"Delta":382236945},{"NoteNumber":43,"Velocity":28,"Duration":139760,"SoundDuration":139760,"Delta":382236945},{"NoteNumber":36,"Velocity":23,"Duration":139760,"SoundDuration":139760,"Delta":382236945},{"NoteNumber":48,"Velocity":29,"Duration":139760,"SoundDuration":139760,"Delta":382423292},{"NoteNumber":52,"Velocity":35,"Duration":139760,"SoundDuration":139760,"Delta":382423292},{"NoteNumber":43,"Velocity":29,"Duration":139760,"SoundDuration":139760,"Delta":382423292},{"NoteNumber":36,"Velocity":24,"Duration":139760,"SoundDuration":139760,"Delta":382423292},{"NoteNumber":48,"Velocity":30,"Duration":140112,"SoundDuration":140112,"Delta":382609639},{"NoteNumber":52,"Velocity":36,"Duration":140112,"SoundDuration":140112,"Delta":382609639},{"NoteNumber":36,"Velocity":25,"Duration":140112,"SoundDuration":140112,"Delta":382609639},{"NoteNumber":43,"Velocity":30,"Duration":140112,"SoundDuration":140112,"Delta":382609639},{"NoteNumber":48,"Velocity":30,"Duration":140213,"SoundDuration":140213,"Delta":382796490},{"NoteNumber":52,"Velocity":36,"Duration":140213,"SoundDuration":140213,"Delta":382796490},{"NoteNumber":36,"Velocity":22,"Duration":140213,"SoundDuration":140213,"Delta":382796490},{"NoteNumber":43,"Velocity":27,"Duration":140213,"SoundDuration":140213,"Delta":382796490},{"NoteNumber":48,"Velocity":31,"Duration":139760,"SoundDuration":139760,"Delta":382983441},{"NoteNumber":52,"Velocity":37,"Duration":139760,"SoundDuration":139760,"Delta":382983441},{"NoteNumber":36,"Velocity":23,"Duration":139760,"SoundDuration":139760,"Delta":382983441},{"NoteNumber":43,"Velocity":28,"Duration":139760,"SoundDuration":139760,"Delta":382983441},{"NoteNumber":48,"Velocity":32,"Duration":139760,"SoundDuration":139760,"Delta":383169788},{"NoteNumber":52,"Velocity":38,"Duration":139760,"SoundDuration":139760,"Delta":383169788},{"NoteNumber":36,"Velocity":24,"Duration":139760,"SoundDuration":139760,"Delta":383169788},{"NoteNumber":43,"Velocity":29,"Duration":139760,"SoundDuration":139760,"Delta":383169788},{"NoteNumber":48,"Velocity":33,"Duration":140213,"SoundDuration":140213,"Delta":383356135},{"NoteNumber":52,"Velocity":39,"Duration":140213,"SoundDuration":140213,"Delta":383356135},{"NoteNumber":36,"Velocity":25,"Duration":140213,"SoundDuration":140213,"Delta":383356135},{"NoteNumber":43,"Velocity":30,"Duration":140213,"SoundDuration":140213,"Delta":383356135},{"NoteNumber":48,"Velocity":34,"Duration":140213,"SoundDuration":140213,"Delta":383543086},{"NoteNumber":52,"Velocity":40,"Duration":140213,"SoundDuration":140213,"Delta":383543086},{"NoteNumber":36,"Velocity":25,"Duration":140213,"SoundDuration":140213,"Delta":383543086},{"NoteNumber":43,"Velocity":30,"Duration":140213,"SoundDuration":140213,"Delta":383543086},{"NoteNumber":50,"Velocity":34,"Duration":140213,"SoundDuration":140213,"Delta":383730037},{"NoteNumber":54,"Velocity":40,"Duration":140213,"SoundDuration":140213,"Delta":383730037},{"NoteNumber":36,"Velocity":25,"Duration":140213,"SoundDuration":140213,"Delta":383730037},{"NoteNumber":45,"Velocity":30,"Duration":140213,"SoundDuration":140213,"Delta":383730037},{"NoteNumber":50,"Velocity":34,"Duration":140213,"SoundDuration":140213,"Delta":383916988},{"NoteNumber":54,"Velocity":40,"Duration":140213,"SoundDuration":140213,"Delta":383916988},{"NoteNumber":36,"Velocity":25,"Duration":140213,"SoundDuration":140213,"Delta":383916988},{"NoteNumber":45,"Velocity":30,"Duration":140213,"SoundDuration":140213,"Delta":383916988},{"NoteNumber":50,"Velocity":39,"Duration":560853,"SoundDuration":560853,"Delta":384103939},{"NoteNumber":55,"Velocity":46,"Duration":560853,"SoundDuration":560853,"Delta":384103939},{"NoteNumber":35,"Velocity":25,"Duration":140213,"SoundDuration":140213,"Delta":384103939},{"NoteNumber":43,"Velocity":30,"Duration":140213,"SoundDuration":140213,"Delta":384103939},{"NoteNumber":35,"Velocity":25,"Duration":140213,"SoundDuration":140213,"Delta":384290890},{"NoteNumber":43,"Velocity":30,"Duration":140213,"SoundDuration":140213,"Delta":384290890},{"NoteNumber":35,"Velocity":25,"Duration":140213,"SoundDuration":140213,"Delta":384477841},{"NoteNumber":43,"Velocity":30,"Duration":140213,"SoundDuration":140213,"Delta":384477841},{"NoteNumber":59,"Velocity":40,"Duration":93475,"SoundDuration":93475,"Delta":384664792},{"NoteNumber":35,"Velocity":25,"Duration":140213,"SoundDuration":140213,"Delta":384664792},{"NoteNumber":43,"Velocity":30,"Duration":140213,"SoundDuration":140213,"Delta":384664792},{"NoteNumber":57,"Velocity":40,"Duration":93475,"SoundDuration":93475,"Delta":384758267},{"NoteNumber":55,"Velocity":45,"Duration":93475,"SoundDuration":93475,"Delta":384851743},{"NoteNumber":35,"Velocity":25,"Duration":140213,"SoundDuration":140213,"Delta":384851743},{"NoteNumber":43,"Velocity":30,"Duration":140213,"SoundDuration":140213,"Delta":384851743},{"NoteNumber":35,"Velocity":25,"Duration":140213,"SoundDuration":140213,"Delta":385038694},{"NoteNumber":43,"Velocity":30,"Duration":140213,"SoundDuration":140213,"Delta":385038694},{"NoteNumber":35,"Velocity":25,"Duration":140213,"SoundDuration":140213,"Delta":385225645},{"NoteNumber":43,"Velocity":30,"Duration":140213,"SoundDuration":140213,"Delta":385225645},{"NoteNumber":35,"Velocity":25,"Duration":143926,"SoundDuration":143926,"Delta":385412596},{"NoteNumber":43,"Velocity":30,"Duration":143926,"SoundDuration":143926,"Delta":385412596},{"NoteNumber":85,"Velocity":46,"Duration":47975,"SoundDuration":47975,"Delta":385556522},{"NoteNumber":86,"Velocity":57,"Duration":467377,"SoundDuration":467377,"Delta":385604497},{"NoteNumber":35,"Velocity":25,"Duration":140213,"SoundDuration":140213,"Delta":385604497},{"NoteNumber":43,"Velocity":30,"Duration":140213,"SoundDuration":140213,"Delta":385604497},{"NoteNumber":35,"Velocity":25,"Duration":140213,"SoundDuration":140213,"Delta":385791448},{"NoteNumber":43,"Velocity":30,"Duration":140213,"SoundDuration":140213,"Delta":385791448},{"NoteNumber":35,"Velocity":25,"Duration":140213,"SoundDuration":140213,"Delta":385978399},{"NoteNumber":43,"Velocity":30,"Duration":140213,"SoundDuration":140213,"Delta":385978399},{"NoteNumber":84,"Velocity":48,"Duration":93475,"SoundDuration":93475,"Delta":386071875},{"NoteNumber":83,"Velocity":47,"Duration":93475,"SoundDuration":93475,"Delta":386165350},{"NoteNumber":35,"Velocity":25,"Duration":140213,"SoundDuration":140213,"Delta":386165350},{"NoteNumber":43,"Velocity":30,"Duration":140213,"SoundDuration":140213,"Delta":386165350},{"NoteNumber":81,"Velocity":45,"Duration":93475,"SoundDuration":93475,"Delta":386258826},{"NoteNumber":79,"Velocity":44,"Duration":186951,"SoundDuration":186951,"Delta":386352301},{"NoteNumber":35,"Velocity":25,"Duration":140213,"SoundDuration":140213,"Delta":386352301},{"NoteNumber":43,"Velocity":30,"Duration":140213,"SoundDuration":140213,"Delta":386352301},{"NoteNumber":35,"Velocity":25,"Duration":140213,"SoundDuration":140213,"Delta":386539252},{"NoteNumber":43,"Velocity":30,"Duration":140213,"SoundDuration":140213,"Delta":386539252},{"NoteNumber":35,"Velocity":25,"Duration":140213,"SoundDuration":140213,"Delta":386726203},{"NoteNumber":43,"Velocity":30,"Duration":140213,"SoundDuration":140213,"Delta":386726203},{"NoteNumber":35,"Velocity":25,"Duration":142984,"SoundDuration":142984,"Delta":386913154},{"NoteNumber":43,"Velocity":30,"Duration":142984,"SoundDuration":142984,"Delta":386913154},{"NoteNumber":46,"Velocity":29,"Duration":140213,"SoundDuration":140213,"Delta":387103800},{"NoteNumber":50,"Velocity":37,"Duration":140213,"SoundDuration":140213,"Delta":387103800},{"NoteNumber":41,"Velocity":30,"Duration":140213,"SoundDuration":140213,"Delta":387103800},{"NoteNumber":34,"Velocity":26,"Duration":140213,"SoundDuration":140213,"Delta":387103800},{"NoteNumber":46,"Velocity":29,"Duration":140213,"SoundDuration":140213,"Delta":387290751},{"NoteNumber":50,"Velocity":35,"Duration":140213,"SoundDuration":140213,"Delta":387290751},{"NoteNumber":41,"Velocity":30,"Duration":140213,"SoundDuration":140213,"Delta":387290751},{"NoteNumber":34,"Velocity":25,"Duration":140213,"SoundDuration":140213,"Delta":387290751},{"NoteNumber":46,"Velocity":29,"Duration":138871,"SoundDuration":138871,"Delta":387477702},{"NoteNumber":50,"Velocity":35,"Duration":138871,"SoundDuration":138871,"Delta":387477702},{"NoteNumber":41,"Velocity":30,"Duration":138871,"SoundDuration":138871,"Delta":387477702},{"NoteNumber":34,"Velocity":25,"Duration":138871,"SoundDuration":138871,"Delta":387477702},{"NoteNumber":46,"Velocity":30,"Duration":138871,"SoundDuration":138871,"Delta":387662864},{"NoteNumber":50,"Velocity":36,"Duration":138871,"SoundDuration":138871,"Delta":387662864},{"NoteNumber":41,"Velocity":31,"Duration":138871,"SoundDuration":138871,"Delta":387662864},{"NoteNumber":34,"Velocity":26,"Duration":138871,"SoundDuration":138871,"Delta":387662864},{"NoteNumber":46,"Velocity":31,"Duration":140668,"SoundDuration":140668,"Delta":387848027},{"NoteNumber":50,"Velocity":37,"Duration":140668,"SoundDuration":140668,"Delta":387848027},{"NoteNumber":41,"Velocity":31,"Duration":140668,"SoundDuration":140668,"Delta":387848027},{"NoteNumber":34,"Velocity":26,"Duration":140668,"SoundDuration":140668,"Delta":387848027},{"NoteNumber":46,"Velocity":31,"Duration":140668,"SoundDuration":140668,"Delta":388035585},{"NoteNumber":50,"Velocity":37,"Duration":140668,"SoundDuration":140668,"Delta":388035585},{"NoteNumber":41,"Velocity":31,"Duration":140668,"SoundDuration":140668,"Delta":388035585},{"NoteNumber":34,"Velocity":26,"Duration":140668,"SoundDuration":140668,"Delta":388035585},{"NoteNumber":46,"Velocity":32,"Duration":140668,"SoundDuration":140668,"Delta":388223144},{"NoteNumber":50,"Velocity":38,"Duration":140668,"SoundDuration":140668,"Delta":388223144},{"NoteNumber":41,"Velocity":31,"Duration":140668,"SoundDuration":140668,"Delta":388223144},{"NoteNumber":34,"Velocity":26,"Duration":140668,"SoundDuration":140668,"Delta":388223144},{"NoteNumber":46,"Velocity":33,"Duration":140668,"SoundDuration":140668,"Delta":388410702},{"NoteNumber":50,"Velocity":39,"Duration":140668,"SoundDuration":140668,"Delta":388410702},{"NoteNumber":41,"Velocity":31,"Duration":140668,"SoundDuration":140668,"Delta":388410702},{"NoteNumber":34,"Velocity":26,"Duration":140668,"SoundDuration":140668,"Delta":388410702},{"NoteNumber":46,"Velocity":33,"Duration":140213,"SoundDuration":140213,"Delta":388598261},{"NoteNumber":50,"Velocity":39,"Duration":140213,"SoundDuration":140213,"Delta":388598261},{"NoteNumber":34,"Velocity":26,"Duration":140213,"SoundDuration":140213,"Delta":388598261},{"NoteNumber":41,"Velocity":31,"Duration":140213,"SoundDuration":140213,"Delta":388598261},{"NoteNumber":46,"Velocity":34,"Duration":140213,"SoundDuration":140213,"Delta":388785212},{"NoteNumber":50,"Velocity":40,"Duration":140213,"SoundDuration":140213,"Delta":388785212},{"NoteNumber":34,"Velocity":26,"Duration":140213,"SoundDuration":140213,"Delta":388785212},{"NoteNumber":41,"Velocity":31,"Duration":140213,"SoundDuration":140213,"Delta":388785212},{"NoteNumber":46,"Velocity":34,"Duration":140668,"SoundDuration":140668,"Delta":388972163},{"NoteNumber":50,"Velocity":40,"Duration":140668,"SoundDuration":140668,"Delta":388972163},{"NoteNumber":34,"Velocity":26,"Duration":140668,"SoundDuration":140668,"Delta":388972163},{"NoteNumber":41,"Velocity":31,"Duration":140668,"SoundDuration":140668,"Delta":388972163},{"NoteNumber":46,"Velocity":34,"Duration":140668,"SoundDuration":140668,"Delta":389159721},{"NoteNumber":50,"Velocity":40,"Duration":140668,"SoundDuration":140668,"Delta":389159721},{"NoteNumber":34,"Velocity":26,"Duration":140668,"SoundDuration":140668,"Delta":389159721},{"NoteNumber":41,"Velocity":31,"Duration":140668,"SoundDuration":140668,"Delta":389159721},{"NoteNumber":46,"Velocity":34,"Duration":138871,"SoundDuration":138871,"Delta":389347280},{"NoteNumber":50,"Velocity":40,"Duration":138871,"SoundDuration":138871,"Delta":389347280},{"NoteNumber":34,"Velocity":26,"Duration":138871,"SoundDuration":138871,"Delta":389347280},{"NoteNumber":41,"Velocity":31,"Duration":138871,"SoundDuration":138871,"Delta":389347280},{"NoteNumber":46,"Velocity":34,"Duration":138871,"SoundDuration":138871,"Delta":389532442},{"NoteNumber":50,"Velocity":40,"Duration":138871,"SoundDuration":138871,"Delta":389532442},{"NoteNumber":34,"Velocity":25,"Duration":138871,"SoundDuration":138871,"Delta":389532442},{"NoteNumber":41,"Velocity":30,"Duration":138871,"SoundDuration":138871,"Delta":389532442},{"NoteNumber":48,"Velocity":34,"Duration":139318,"SoundDuration":139318,"Delta":389717605},{"NoteNumber":52,"Velocity":40,"Duration":139318,"SoundDuration":139318,"Delta":389717605},{"NoteNumber":34,"Velocity":25,"Duration":139318,"SoundDuration":139318,"Delta":389717605},{"NoteNumber":43,"Velocity":30,"Duration":139318,"SoundDuration":139318,"Delta":389717605},{"NoteNumber":48,"Velocity":34,"Duration":139318,"SoundDuration":139318,"Delta":389903363},{"NoteNumber":52,"Velocity":40,"Duration":139318,"SoundDuration":139318,"Delta":389903363},{"NoteNumber":34,"Velocity":25,"Duration":139318,"SoundDuration":139318,"Delta":389903363},{"NoteNumber":43,"Velocity":30,"Duration":139318,"SoundDuration":139318,"Delta":389903363},{"NoteNumber":48,"Velocity":39,"Duration":558991,"SoundDuration":558991,"Delta":390089122},{"NoteNumber":53,"Velocity":46,"Duration":558991,"SoundDuration":558991,"Delta":390089122},{"NoteNumber":33,"Velocity":25,"Duration":139711,"SoundDuration":139711,"Delta":390089122},{"NoteNumber":41,"Velocity":30,"Duration":139711,"SoundDuration":139711,"Delta":390089122},{"NoteNumber":33,"Velocity":25,"Duration":139760,"SoundDuration":139760,"Delta":390275420},{"NoteNumber":41,"Velocity":30,"Duration":139760,"SoundDuration":139760,"Delta":390275420},{"NoteNumber":33,"Velocity":25,"Duration":139760,"SoundDuration":139760,"Delta":390461767},{"NoteNumber":41,"Velocity":30,"Duration":139760,"SoundDuration":139760,"Delta":390461767},{"NoteNumber":57,"Velocity":40,"Duration":93173,"SoundDuration":93173,"Delta":390648114},{"NoteNumber":33,"Velocity":25,"Duration":139760,"SoundDuration":139760,"Delta":390648114},{"NoteNumber":41,"Velocity":30,"Duration":139760,"SoundDuration":139760,"Delta":390648114},{"NoteNumber":55,"Velocity":40,"Duration":93173,"SoundDuration":93173,"Delta":390741287},{"NoteNumber":53,"Velocity":45,"Duration":93173,"SoundDuration":93173,"Delta":390834461},{"NoteNumber":33,"Velocity":25,"Duration":139760,"SoundDuration":139760,"Delta":390834461},{"NoteNumber":41,"Velocity":30,"Duration":139760,"SoundDuration":139760,"Delta":390834461},{"NoteNumber":33,"Velocity":25,"Duration":139760,"SoundDuration":139760,"Delta":391020808},{"NoteNumber":41,"Velocity":30,"Duration":139760,"SoundDuration":139760,"Delta":391020808},{"NoteNumber":33,"Velocity":25,"Duration":139760,"SoundDuration":139760,"Delta":391207155},{"NoteNumber":41,"Velocity":30,"Duration":139760,"SoundDuration":139760,"Delta":391207155},{"NoteNumber":33,"Velocity":25,"Duration":143458,"SoundDuration":143458,"Delta":391393502},{"NoteNumber":41,"Velocity":30,"Duration":143458,"SoundDuration":143458,"Delta":391393502},{"NoteNumber":83,"Velocity":46,"Duration":47819,"SoundDuration":47819,"Delta":391536960},{"NoteNumber":84,"Velocity":57,"Duration":467377,"SoundDuration":467377,"Delta":391584779},{"NoteNumber":32,"Velocity":25,"Duration":140213,"SoundDuration":140213,"Delta":391584779},{"NoteNumber":41,"Velocity":30,"Duration":140213,"SoundDuration":140213,"Delta":391584779},{"NoteNumber":32,"Velocity":25,"Duration":140213,"SoundDuration":140213,"Delta":391771730},{"NoteNumber":41,"Velocity":30,"Duration":140213,"SoundDuration":140213,"Delta":391771730},{"NoteNumber":32,"Velocity":25,"Duration":140213,"SoundDuration":140213,"Delta":391958681},{"NoteNumber":41,"Velocity":30,"Duration":140213,"SoundDuration":140213,"Delta":391958681},{"NoteNumber":82,"Velocity":50,"Duration":93475,"SoundDuration":93475,"Delta":392052157},{"NoteNumber":80,"Velocity":49,"Duration":93475,"SoundDuration":93475,"Delta":392145632},{"NoteNumber":32,"Velocity":25,"Duration":140213,"SoundDuration":140213,"Delta":392145632},{"NoteNumber":41,"Velocity":30,"Duration":140213,"SoundDuration":140213,"Delta":392145632},{"NoteNumber":79,"Velocity":47,"Duration":93475,"SoundDuration":93475,"Delta":392239108},{"NoteNumber":77,"Velocity":46,"Duration":186951,"SoundDuration":186951,"Delta":392332583},{"NoteNumber":32,"Velocity":25,"Duration":140213,"SoundDuration":140213,"Delta":392332583},{"NoteNumber":41,"Velocity":30,"Duration":140213,"SoundDuration":140213,"Delta":392332583},{"NoteNumber":32,"Velocity":25,"Duration":140213,"SoundDuration":140213,"Delta":392519534},{"NoteNumber":41,"Velocity":30,"Duration":140213,"SoundDuration":140213,"Delta":392519534},{"NoteNumber":32,"Velocity":25,"Duration":143926,"SoundDuration":143926,"Delta":392707310},{"NoteNumber":41,"Velocity":30,"Duration":143926,"SoundDuration":143926,"Delta":392707310},{"NoteNumber":32,"Velocity":25,"Duration":143926,"SoundDuration":143926,"Delta":392899212},{"NoteNumber":41,"Velocity":30,"Duration":143926,"SoundDuration":143926,"Delta":392899212},{"NoteNumber":88,"Velocity":67,"Duration":47975,"SoundDuration":47975,"Delta":393043138},{"NoteNumber":89,"Velocity":73,"Duration":1120535,"SoundDuration":1120535,"Delta":393091113},{"NoteNumber":31,"Velocity":30,"Duration":140213,"SoundDuration":140213,"Delta":393091113},{"NoteNumber":41,"Velocity":36,"Duration":140213,"SoundDuration":140213,"Delta":393091113},{"NoteNumber":31,"Velocity":32,"Duration":140213,"SoundDuration":140213,"Delta":393278064},{"NoteNumber":41,"Velocity":38,"Duration":140213,"SoundDuration":140213,"Delta":393278064},{"NoteNumber":31,"Velocity":33,"Duration":139318,"SoundDuration":139318,"Delta":393465015},{"NoteNumber":41,"Velocity":39,"Duration":139318,"SoundDuration":139318,"Delta":393465015},{"NoteNumber":31,"Velocity":34,"Duration":139318,"SoundDuration":139318,"Delta":393650774},{"NoteNumber":41,"Velocity":41,"Duration":139318,"SoundDuration":139318,"Delta":393650774},{"NoteNumber":31,"Velocity":36,"Duration":140668,"SoundDuration":140668,"Delta":393836532},{"NoteNumber":41,"Velocity":43,"Duration":140668,"SoundDuration":140668,"Delta":393836532},{"NoteNumber":31,"Velocity":38,"Duration":140668,"SoundDuration":140668,"Delta":394024091},{"NoteNumber":41,"Velocity":45,"Duration":140668,"SoundDuration":140668,"Delta":394024091},{"NoteNumber":89,"Velocity":74,"Duration":93779,"SoundDuration":93779,"Delta":394211649},{"NoteNumber":32,"Velocity":39,"Duration":140668,"SoundDuration":140668,"Delta":394211649},{"NoteNumber":41,"Velocity":46,"Duration":140668,"SoundDuration":140668,"Delta":394211649},{"NoteNumber":87,"Velocity":73,"Duration":93779,"SoundDuration":93779,"Delta":394305429},{"NoteNumber":86,"Velocity":71,"Duration":93779,"SoundDuration":93779,"Delta":394399208},{"NoteNumber":32,"Velocity":40,"Duration":140668,"SoundDuration":140668,"Delta":394399208},{"NoteNumber":41,"Velocity":48,"Duration":140668,"SoundDuration":140668,"Delta":394399208},{"NoteNumber":84,"Velocity":70,"Duration":93779,"SoundDuration":93779,"Delta":394492987},{"NoteNumber":83,"Velocity":72,"Duration":93475,"SoundDuration":93475,"Delta":394586766},{"NoteNumber":31,"Velocity":44,"Duration":140213,"SoundDuration":140213,"Delta":394586766},{"NoteNumber":41,"Velocity":52,"Duration":140213,"SoundDuration":140213,"Delta":394586766},{"NoteNumber":84,"Velocity":71,"Duration":93475,"SoundDuration":93475,"Delta":394680242},{"NoteNumber":86,"Velocity":72,"Duration":93475,"SoundDuration":93475,"Delta":394773717},{"NoteNumber":31,"Velocity":44,"Duration":140213,"SoundDuration":140213,"Delta":394773717},{"NoteNumber":41,"Velocity":52,"Duration":140213,"SoundDuration":140213,"Delta":394773717},{"NoteNumber":87,"Velocity":73,"Duration":93475,"SoundDuration":93475,"Delta":394867193},{"NoteNumber":89,"Velocity":74,"Duration":94393,"SoundDuration":94393,"Delta":394960668},{"NoteNumber":32,"Velocity":45,"Duration":141589,"SoundDuration":141589,"Delta":394960668},{"NoteNumber":41,"Velocity":55,"Duration":141589,"SoundDuration":141589,"Delta":394960668},{"NoteNumber":87,"Velocity":72,"Duration":94392,"SoundDuration":94392,"Delta":395055061},{"NoteNumber":86,"Velocity":71,"Duration":94393,"SoundDuration":94393,"Delta":395149454},{"NoteNumber":32,"Velocity":46,"Duration":141589,"SoundDuration":141589,"Delta":395149454},{"NoteNumber":41,"Velocity":55,"Duration":141589,"SoundDuration":141589,"Delta":395149454},{"NoteNumber":84,"Velocity":69,"Duration":94392,"SoundDuration":94392,"Delta":395243847},{"NoteNumber":83,"Velocity":72,"Duration":93475,"SoundDuration":93475,"Delta":395338240},{"NoteNumber":31,"Velocity":48,"Duration":140213,"SoundDuration":140213,"Delta":395338240},{"NoteNumber":41,"Velocity":58,"Duration":140213,"SoundDuration":140213,"Delta":395338240},{"NoteNumber":84,"Velocity":75,"Duration":93475,"SoundDuration":93475,"Delta":395431716},{"NoteNumber":86,"Velocity":77,"Duration":93475,"SoundDuration":93475,"Delta":395525191},{"NoteNumber":31,"Velocity":51,"Duration":140213,"SoundDuration":140213,"Delta":395525191},{"NoteNumber":41,"Velocity":60,"Duration":140213,"SoundDuration":140213,"Delta":395525191},{"NoteNumber":87,"Velocity":80,"Duration":93475,"SoundDuration":93475,"Delta":395618667},{"NoteNumber":89,"Velocity":80,"Duration":93475,"SoundDuration":93475,"Delta":395712142},{"NoteNumber":32,"Velocity":54,"Duration":140213,"SoundDuration":140213,"Delta":395712142},{"NoteNumber":41,"Velocity":64,"Duration":140213,"SoundDuration":140213,"Delta":395712142},{"NoteNumber":87,"Velocity":80,"Duration":93475,"SoundDuration":93475,"Delta":395805618},{"NoteNumber":86,"Velocity":79,"Duration":93475,"SoundDuration":93475,"Delta":395899093},{"NoteNumber":32,"Velocity":56,"Duration":140213,"SoundDuration":140213,"Delta":395899093},{"NoteNumber":41,"Velocity":66,"Duration":140213,"SoundDuration":140213,"Delta":395899093},{"NoteNumber":84,"Velocity":81,"Duration":93475,"SoundDuration":93475,"Delta":395992569},{"NoteNumber":83,"Velocity":85,"Duration":94187,"SoundDuration":94187,"Delta":396086044},{"NoteNumber":41,"Velocity":85,"Duration":392787,"SoundDuration":392787,"Delta":396086044},{"NoteNumber":31,"Velocity":70,"Duration":392771,"SoundDuration":392771,"Delta":396090733},{"NoteNumber":84,"Velocity":89,"Duration":95532,"SoundDuration":95532,"Delta":396180232},{"NoteNumber":86,"Velocity":94,"Duration":98029,"SoundDuration":98029,"Delta":396275764},{"NoteNumber":87,"Velocity":98,"Duration":105038,"SoundDuration":105038,"Delta":396373793},{"NoteNumber":89,"Velocity":100,"Duration":93475,"SoundDuration":93475,"Delta":396478832},{"NoteNumber":43,"Velocity":81,"Duration":937821,"SoundDuration":937821,"Delta":396478832},{"NoteNumber":55,"Velocity":96,"Duration":937821,"SoundDuration":937821,"Delta":396478832},{"NoteNumber":87,"Velocity":98,"Duration":93475,"SoundDuration":93475,"Delta":396572307},{"NoteNumber":86,"Velocity":96,"Duration":93475,"SoundDuration":93475,"Delta":396665783},{"NoteNumber":84,"Velocity":94,"Duration":93475,"SoundDuration":93475,"Delta":396759258},{"NoteNumber":83,"Velocity":93,"Duration":93475,"SoundDuration":93475,"Delta":396852734},{"NoteNumber":80,"Velocity":91,"Duration":93475,"SoundDuration":93475,"Delta":396946209},{"NoteNumber":79,"Velocity":89,"Duration":93475,"SoundDuration":93475,"Delta":397039685},{"NoteNumber":77,"Velocity":87,"Duration":93475,"SoundDuration":93475,"Delta":397133160},{"NoteNumber":75,"Velocity":85,"Duration":95008,"SoundDuration":95008,"Delta":397226636},{"NoteNumber":74,"Velocity":83,"Duration":95008,"SoundDuration":95008,"Delta":397321644},{"NoteNumber":72,"Velocity":81,"Duration":95008,"SoundDuration":95008,"Delta":397416653},{"NoteNumber":57,"Velocity":67,"Duration":95008,"SoundDuration":95008,"Delta":397416653},{"NoteNumber":71,"Velocity":79,"Duration":95008,"SoundDuration":95008,"Delta":397511662},{"NoteNumber":59,"Velocity":70,"Duration":95008,"SoundDuration":95008,"Delta":397511662},{"NoteNumber":72,"Velocity":93,"Duration":152542,"SoundDuration":152542,"Delta":397606671},{"NoteNumber":60,"Velocity":72,"Duration":152542,"SoundDuration":152542,"Delta":397606671},{"NoteNumber":67,"Velocity":83,"Duration":165440,"SoundDuration":165440,"Delta":398013451},{"NoteNumber":43,"Velocity":56,"Duration":165440,"SoundDuration":165440,"Delta":398013451},{"NoteNumber":55,"Velocity":66,"Duration":165440,"SoundDuration":165440,"Delta":398013451},{"NoteNumber":63,"Velocity":72,"Duration":179282,"SoundDuration":179282,"Delta":398454627},{"NoteNumber":39,"Velocity":52,"Duration":179282,"SoundDuration":179282,"Delta":398454627},{"NoteNumber":51,"Velocity":62,"Duration":179282,"SoundDuration":179282,"Delta":398454627},{"NoteNumber":60,"Velocity":64,"Duration":235601,"SoundDuration":235601,"Delta":398932715},{"NoteNumber":36,"Velocity":48,"Duration":235601,"SoundDuration":235601,"Delta":398932715},{"NoteNumber":48,"Velocity":57,"Duration":235601,"SoundDuration":235601,"Delta":398932715},{"NoteNumber":56,"Velocity":60,"Duration":1908092,"SoundDuration":1908092,"Delta":399560987},{"NoteNumber":32,"Velocity":46,"Duration":1908092,"SoundDuration":1908092,"Delta":399560987},{"NoteNumber":44,"Velocity":54,"Duration":1908092,"SoundDuration":1908092,"Delta":399560987},{"NoteNumber":73,"Velocity":54,"Duration":159010,"SoundDuration":159010,"Delta":401469079},{"NoteNumber":61,"Velocity":37,"Duration":159010,"SoundDuration":159010,"Delta":401469079},{"NoteNumber":68,"Velocity":52,"Duration":173076,"SoundDuration":173076,"Delta":401893107},{"NoteNumber":56,"Velocity":33,"Duration":173076,"SoundDuration":173076,"Delta":401893107},{"NoteNumber":65,"Velocity":48,"Duration":196506,"SoundDuration":196506,"Delta":402354645},{"NoteNumber":53,"Velocity":32,"Duration":196506,"SoundDuration":196506,"Delta":402354645},{"NoteNumber":61,"Velocity":43,"Duration":252808,"SoundDuration":252808,"Delta":402878662},{"NoteNumber":49,"Velocity":29,"Duration":252808,"SoundDuration":252808,"Delta":402878662},{"NoteNumber":58,"Velocity":39,"Duration":1923848,"SoundDuration":1923848,"Delta":403552819},{"NoteNumber":34,"Velocity":24,"Duration":1923848,"SoundDuration":1923848,"Delta":403552819},{"NoteNumber":46,"Velocity":29,"Duration":1923848,"SoundDuration":1923848,"Delta":403552819},{"NoteNumber":63,"Velocity":41,"Duration":142984,"SoundDuration":142984,"Delta":405476667},{"NoteNumber":67,"Velocity":37,"Duration":95322,"SoundDuration":95322,"Delta":405571989},{"NoteNumber":70,"Velocity":37,"Duration":95322,"SoundDuration":95322,"Delta":405667312},{"NoteNumber":75,"Velocity":37,"Duration":95322,"SoundDuration":95322,"Delta":405762635},{"NoteNumber":58,"Velocity":37,"Duration":142984,"SoundDuration":142984,"Delta":405857958},{"NoteNumber":67,"Velocity":37,"Duration":95322,"SoundDuration":95322,"Delta":405953280},{"NoteNumber":70,"Velocity":37,"Duration":95322,"SoundDuration":95322,"Delta":406048603},{"NoteNumber":75,"Velocity":37,"Duration":95322,"SoundDuration":95322,"Delta":406143926},{"NoteNumber":55,"Velocity":37,"Duration":142984,"SoundDuration":142984,"Delta":406239249},{"NoteNumber":67,"Velocity":37,"Duration":95322,"SoundDuration":95322,"Delta":406334571},{"NoteNumber":70,"Velocity":37,"Duration":95322,"SoundDuration":95322,"Delta":406429894},{"NoteNumber":75,"Velocity":37,"Duration":95322,"SoundDuration":95322,"Delta":406525217},{"NoteNumber":51,"Velocity":37,"Duration":145857,"SoundDuration":145857,"Delta":406620540},{"NoteNumber":67,"Velocity":37,"Duration":97238,"SoundDuration":97238,"Delta":406717778},{"NoteNumber":70,"Velocity":37,"Duration":97238,"SoundDuration":97238,"Delta":406815017},{"NoteNumber":75,"Velocity":37,"Duration":97238,"SoundDuration":97238,"Delta":406912255},{"NoteNumber":53,"Velocity":35,"Duration":142984,"SoundDuration":142984,"Delta":407009494},{"NoteNumber":65,"Velocity":37,"Duration":95322,"SoundDuration":95322,"Delta":407104816},{"NoteNumber":68,"Velocity":37,"Duration":95322,"SoundDuration":95322,"Delta":407200139},{"NoteNumber":75,"Velocity":37,"Duration":95322,"SoundDuration":95322,"Delta":407295462},{"NoteNumber":56,"Velocity":38,"Duration":142045,"SoundDuration":142045,"Delta":407390785},{"NoteNumber":65,"Velocity":41,"Duration":94696,"SoundDuration":94696,"Delta":407485482},{"NoteNumber":71,"Velocity":41,"Duration":94696,"SoundDuration":94696,"Delta":407580179},{"NoteNumber":74,"Velocity":41,"Duration":94696,"SoundDuration":94696,"Delta":407674876},{"NoteNumber":57,"Velocity":39,"Duration":142984,"SoundDuration":142984,"Delta":407769573},{"NoteNumber":63,"Velocity":45,"Duration":95322,"SoundDuration":95322,"Delta":407864895},{"NoteNumber":66,"Velocity":45,"Duration":95322,"SoundDuration":95322,"Delta":407960218},{"NoteNumber":74,"Velocity":45,"Duration":95322,"SoundDuration":95322,"Delta":408055541},{"NoteNumber":54,"Velocity":37,"Duration":146350,"SoundDuration":146350,"Delta":408150864},{"NoteNumber":63,"Velocity":39,"Duration":97567,"SoundDuration":97567,"Delta":408248431},{"NoteNumber":69,"Velocity":39,"Duration":97567,"SoundDuration":97567,"Delta":408345998},{"NoteNumber":72,"Velocity":39,"Duration":97567,"SoundDuration":97567,"Delta":408443565},{"NoteNumber":55,"Velocity":46,"Duration":145857,"SoundDuration":145857,"Delta":408541133},{"NoteNumber":62,"Velocity":44,"Duration":97238,"SoundDuration":97238,"Delta":408638371},{"NoteNumber":67,"Velocity":44,"Duration":97238,"SoundDuration":97238,"Delta":408735610},{"NoteNumber":72,"Velocity":44,"Duration":97238,"SoundDuration":97238,"Delta":408832848},{"NoteNumber":54,"Velocity":44,"Duration":148348,"SoundDuration":148348,"Delta":408930087},{"NoteNumber":62,"Velocity":48,"Duration":98898,"SoundDuration":98898,"Delta":409028986},{"NoteNumber":67,"Velocity":48,"Duration":98899,"SoundDuration":98899,"Delta":409127885},{"NoteNumber":72,"Velocity":48,"Duration":98899,"SoundDuration":98899,"Delta":409226784},{"NoteNumber":55,"Velocity":60,"Duration":146350,"SoundDuration":146350,"Delta":409325683},{"NoteNumber":62,"Velocity":53,"Duration":97567,"SoundDuration":97567,"Delta":409423250},{"NoteNumber":67,"Velocity":53,"Duration":97567,"SoundDuration":97567,"Delta":409520817},{"NoteNumber":71,"Velocity":53,"Duration":97567,"SoundDuration":97567,"Delta":409618384},{"NoteNumber":43,"Velocity":56,"Duration":149372,"SoundDuration":149372,"Delta":409715952},{"NoteNumber":62,"Velocity":58,"Duration":99581,"SoundDuration":99581,"Delta":409815533},{"NoteNumber":65,"Velocity":59,"Duration":99581,"SoundDuration":99581,"Delta":409915115},{"NoteNumber":71,"Velocity":59,"Duration":123833,"SoundDuration":123833,"Delta":410014697},{"NoteNumber":64,"Velocity":68,"Duration":186951,"SoundDuration":186951,"Delta":410138531},{"NoteNumber":72,"Velocity":84,"Duration":186951,"SoundDuration":186951,"Delta":410138531},{"NoteNumber":36,"Velocity":70,"Duration":1490837,"SoundDuration":1490837,"Delta":410138531},{"NoteNumber":48,"Velocity":70,"Duration":186951,"SoundDuration":186951,"Delta":410138531},{"NoteNumber":64,"Velocity":37,"Duration":92696,"SoundDuration":92696,"Delta":410325482},{"NoteNumber":48,"Velocity":31,"Duration":92696,"SoundDuration":92696,"Delta":410325482},{"NoteNumber":60,"Velocity":33,"Duration":93475,"SoundDuration":93475,"Delta":410418957},{"NoteNumber":55,"Velocity":26,"Duration":93475,"SoundDuration":93475,"Delta":410418957},{"NoteNumber":64,"Velocity":37,"Duration":92105,"SoundDuration":92105,"Delta":410512433},{"NoteNumber":48,"Velocity":31,"Duration":92105,"SoundDuration":92105,"Delta":410512433},{"NoteNumber":60,"Velocity":33,"Duration":92879,"SoundDuration":92879,"Delta":410605312},{"NoteNumber":55,"Velocity":27,"Duration":92879,"SoundDuration":92879,"Delta":410605312},{"NoteNumber":64,"Velocity":36,"Duration":92105,"SoundDuration":92105,"Delta":410698191},{"NoteNumber":48,"Velocity":31,"Duration":92105,"SoundDuration":92105,"Delta":410698191},{"NoteNumber":60,"Velocity":33,"Duration":92879,"SoundDuration":92879,"Delta":410791071},{"NoteNumber":55,"Velocity":27,"Duration":92879,"SoundDuration":92879,"Delta":410791071},{"NoteNumber":64,"Velocity":36,"Duration":92105,"SoundDuration":92105,"Delta":410883950},{"NoteNumber":48,"Velocity":31,"Duration":92105,"SoundDuration":92105,"Delta":410883950},{"NoteNumber":60,"Velocity":33,"Duration":92879,"SoundDuration":92879,"Delta":410976829},{"NoteNumber":55,"Velocity":26,"Duration":92879,"SoundDuration":92879,"Delta":410976829},{"NoteNumber":64,"Velocity":37,"Duration":92105,"SoundDuration":92105,"Delta":411069708},{"NoteNumber":48,"Velocity":31,"Duration":92105,"SoundDuration":92105,"Delta":411069708},{"NoteNumber":60,"Velocity":33,"Duration":92879,"SoundDuration":92879,"Delta":411162588},{"NoteNumber":55,"Velocity":27,"Duration":92879,"SoundDuration":92879,"Delta":411162588},{"NoteNumber":64,"Velocity":36,"Duration":92696,"SoundDuration":92696,"Delta":411255467},{"NoteNumber":48,"Velocity":31,"Duration":92696,"SoundDuration":92696,"Delta":411255467},{"NoteNumber":60,"Velocity":33,"Duration":93475,"SoundDuration":93475,"Delta":411348942},{"NoteNumber":55,"Velocity":27,"Duration":93475,"SoundDuration":93475,"Delta":411348942},{"NoteNumber":64,"Velocity":36,"Duration":92696,"SoundDuration":92696,"Delta":411442418},{"NoteNumber":48,"Velocity":31,"Duration":92696,"SoundDuration":92696,"Delta":411442418},{"NoteNumber":60,"Velocity":33,"Duration":93475,"SoundDuration":93475,"Delta":411535893},{"NoteNumber":55,"Velocity":25,"Duration":93475,"SoundDuration":93475,"Delta":411535893},{"NoteNumber":64,"Velocity":37,"Duration":92696,"SoundDuration":92696,"Delta":411629369},{"NoteNumber":48,"Velocity":31,"Duration":92696,"SoundDuration":92696,"Delta":411629369},{"NoteNumber":60,"Velocity":33,"Duration":93475,"SoundDuration":93475,"Delta":411722844},{"NoteNumber":55,"Velocity":26,"Duration":93475,"SoundDuration":93475,"Delta":411722844},{"NoteNumber":64,"Velocity":37,"Duration":92696,"SoundDuration":92696,"Delta":411816320},{"NoteNumber":48,"Velocity":31,"Duration":92696,"SoundDuration":92696,"Delta":411816320},{"NoteNumber":60,"Velocity":33,"Duration":93475,"SoundDuration":93475,"Delta":411909795},{"NoteNumber":55,"Velocity":26,"Duration":93475,"SoundDuration":93475,"Delta":411909795},{"NoteNumber":64,"Velocity":37,"Duration":91809,"SoundDuration":91809,"Delta":412003271},{"NoteNumber":48,"Velocity":31,"Duration":91809,"SoundDuration":91809,"Delta":412003271},{"NoteNumber":60,"Velocity":33,"Duration":92581,"SoundDuration":92581,"Delta":412095852},{"NoteNumber":55,"Velocity":27,"Duration":92581,"SoundDuration":92581,"Delta":412095852},{"NoteNumber":64,"Velocity":36,"Duration":91809,"SoundDuration":91809,"Delta":412188433},{"NoteNumber":48,"Velocity":31,"Duration":91809,"SoundDuration":91809,"Delta":412188433},{"NoteNumber":60,"Velocity":33,"Duration":92581,"SoundDuration":92581,"Delta":412281015},{"NoteNumber":55,"Velocity":27,"Duration":92581,"SoundDuration":92581,"Delta":412281015},{"NoteNumber":64,"Velocity":36,"Duration":91809,"SoundDuration":91809,"Delta":412373596},{"NoteNumber":48,"Velocity":31,"Duration":91809,"SoundDuration":91809,"Delta":412373596},{"NoteNumber":60,"Velocity":33,"Duration":92581,"SoundDuration":92581,"Delta":412466177},{"NoteNumber":55,"Velocity":26,"Duration":92581,"SoundDuration":92581,"Delta":412466177},{"NoteNumber":64,"Velocity":37,"Duration":91809,"SoundDuration":91809,"Delta":412558758},{"NoteNumber":48,"Velocity":31,"Duration":91809,"SoundDuration":91809,"Delta":412558758},{"NoteNumber":60,"Velocity":33,"Duration":92581,"SoundDuration":92581,"Delta":412651340},{"NoteNumber":55,"Velocity":27,"Duration":92581,"SoundDuration":92581,"Delta":412651340},{"NoteNumber":66,"Velocity":36,"Duration":92547,"SoundDuration":92547,"Delta":412743921},{"NoteNumber":48,"Velocity":31,"Duration":92547,"SoundDuration":92547,"Delta":412743921},{"NoteNumber":62,"Velocity":33,"Duration":93475,"SoundDuration":93475,"Delta":412837247},{"NoteNumber":57,"Velocity":27,"Duration":93475,"SoundDuration":93475,"Delta":412837247},{"NoteNumber":66,"Velocity":36,"Duration":92696,"SoundDuration":92696,"Delta":412930723},{"NoteNumber":48,"Velocity":31,"Duration":92696,"SoundDuration":92696,"Delta":412930723},{"NoteNumber":62,"Velocity":33,"Duration":93475,"SoundDuration":93475,"Delta":413024198},{"NoteNumber":57,"Velocity":25,"Duration":93475,"SoundDuration":93475,"Delta":413024198},{"NoteNumber":67,"Velocity":46,"Duration":560853,"SoundDuration":560853,"Delta":413117674},{"NoteNumber":47,"Velocity":26,"Duration":140213,"SoundDuration":140213,"Delta":413117674},{"NoteNumber":50,"Velocity":31,"Duration":140213,"SoundDuration":140213,"Delta":413117674},{"NoteNumber":55,"Velocity":25,"Duration":93475,"SoundDuration":93475,"Delta":413211149},{"NoteNumber":47,"Velocity":26,"Duration":140213,"SoundDuration":140213,"Delta":413304625},{"NoteNumber":50,"Velocity":31,"Duration":140213,"SoundDuration":140213,"Delta":413304625},{"NoteNumber":55,"Velocity":25,"Duration":93475,"SoundDuration":93475,"Delta":413398100},{"NoteNumber":47,"Velocity":26,"Duration":140213,"SoundDuration":140213,"Delta":413491576},{"NoteNumber":50,"Velocity":31,"Duration":140213,"SoundDuration":140213,"Delta":413491576},{"NoteNumber":55,"Velocity":25,"Duration":93475,"SoundDuration":93475,"Delta":413585051},{"NoteNumber":71,"Velocity":40,"Duration":93475,"SoundDuration":93475,"Delta":413678527},{"NoteNumber":47,"Velocity":26,"Duration":140213,"SoundDuration":140213,"Delta":413678527},{"NoteNumber":50,"Velocity":31,"Duration":140213,"SoundDuration":140213,"Delta":413678527},{"NoteNumber":69,"Velocity":40,"Duration":93475,"SoundDuration":93475,"Delta":413772002},{"NoteNumber":55,"Velocity":25,"Duration":93475,"SoundDuration":93475,"Delta":413772002},{"NoteNumber":67,"Velocity":45,"Duration":93475,"SoundDuration":93475,"Delta":413865478},{"NoteNumber":47,"Velocity":26,"Duration":140213,"SoundDuration":140213,"Delta":413865478},{"NoteNumber":50,"Velocity":31,"Duration":140213,"SoundDuration":140213,"Delta":413865478},{"NoteNumber":55,"Velocity":25,"Duration":93475,"SoundDuration":93475,"Delta":413958953},{"NoteNumber":47,"Velocity":26,"Duration":140213,"SoundDuration":140213,"Delta":414052429},{"NoteNumber":50,"Velocity":31,"Duration":140213,"SoundDuration":140213,"Delta":414052429},{"NoteNumber":55,"Velocity":25,"Duration":93475,"SoundDuration":93475,"Delta":414145904},{"NoteNumber":47,"Velocity":26,"Duration":140213,"SoundDuration":140213,"Delta":414239380},{"NoteNumber":50,"Velocity":31,"Duration":140213,"SoundDuration":140213,"Delta":414239380},{"NoteNumber":55,"Velocity":25,"Duration":93475,"SoundDuration":93475,"Delta":414332855},{"NoteNumber":47,"Velocity":26,"Duration":143926,"SoundDuration":143926,"Delta":414426331},{"NoteNumber":50,"Velocity":31,"Duration":143926,"SoundDuration":143926,"Delta":414426331},{"NoteNumber":55,"Velocity":25,"Duration":95950,"SoundDuration":95950,"Delta":414522281},{"NoteNumber":85,"Velocity":46,"Duration":47975,"SoundDuration":47975,"Delta":414570257},{"NoteNumber":86,"Velocity":57,"Duration":467377,"SoundDuration":467377,"Delta":414618232},{"NoteNumber":47,"Velocity":26,"Duration":140213,"SoundDuration":140213,"Delta":414618232},{"NoteNumber":50,"Velocity":31,"Duration":140213,"SoundDuration":140213,"Delta":414618232},{"NoteNumber":55,"Velocity":25,"Duration":93475,"SoundDuration":93475,"Delta":414711708},{"NoteNumber":47,"Velocity":26,"Duration":140213,"SoundDuration":140213,"Delta":414805183},{"NoteNumber":50,"Velocity":31,"Duration":140213,"SoundDuration":140213,"Delta":414805183},{"NoteNumber":55,"Velocity":25,"Duration":93475,"SoundDuration":93475,"Delta":414898659},{"NoteNumber":47,"Velocity":26,"Duration":140213,"SoundDuration":140213,"Delta":414992134},{"NoteNumber":50,"Velocity":31,"Duration":140213,"SoundDuration":140213,"Delta":414992134},{"NoteNumber":84,"Velocity":48,"Duration":93475,"SoundDuration":93475,"Delta":415085610},{"NoteNumber":55,"Velocity":25,"Duration":93475,"SoundDuration":93475,"Delta":415085610},{"NoteNumber":83,"Velocity":47,"Duration":93475,"SoundDuration":93475,"Delta":415179085},{"NoteNumber":47,"Velocity":26,"Duration":140213,"SoundDuration":140213,"Delta":415179085},{"NoteNumber":50,"Velocity":31,"Duration":140213,"SoundDuration":140213,"Delta":415179085},{"NoteNumber":81,"Velocity":45,"Duration":93475,"SoundDuration":93475,"Delta":415272561},{"NoteNumber":55,"Velocity":25,"Duration":93475,"SoundDuration":93475,"Delta":415272561},{"NoteNumber":79,"Velocity":44,"Duration":186951,"SoundDuration":186951,"Delta":415366036},{"NoteNumber":47,"Velocity":26,"Duration":140213,"SoundDuration":140213,"Delta":415366036},{"NoteNumber":50,"Velocity":31,"Duration":140213,"SoundDuration":140213,"Delta":415366036},{"NoteNumber":55,"Velocity":25,"Duration":93475,"SoundDuration":93475,"Delta":415459512},{"NoteNumber":47,"Velocity":26,"Duration":140213,"SoundDuration":140213,"Delta":415552987},{"NoteNumber":50,"Velocity":31,"Duration":140213,"SoundDuration":140213,"Delta":415552987},{"NoteNumber":55,"Velocity":25,"Duration":93475,"SoundDuration":93475,"Delta":415646463},{"NoteNumber":47,"Velocity":26,"Duration":140213,"SoundDuration":140213,"Delta":415739938},{"NoteNumber":50,"Velocity":31,"Duration":140213,"SoundDuration":140213,"Delta":415739938},{"NoteNumber":55,"Velocity":25,"Duration":93475,"SoundDuration":93475,"Delta":415833414},{"NoteNumber":47,"Velocity":26,"Duration":144406,"SoundDuration":144406,"Delta":415926889},{"NoteNumber":50,"Velocity":31,"Duration":144406,"SoundDuration":144406,"Delta":415926889},{"NoteNumber":55,"Velocity":25,"Duration":96271,"SoundDuration":96271,"Delta":416023160},{"NoteNumber":65,"Velocity":40,"Duration":92696,"SoundDuration":92696,"Delta":416119431},{"NoteNumber":38,"Velocity":33,"Duration":1490893,"SoundDuration":1490893,"Delta":416119431},{"NoteNumber":50,"Velocity":33,"Duration":186951,"SoundDuration":186951,"Delta":416119431},{"NoteNumber":62,"Velocity":36,"Duration":93475,"SoundDuration":93475,"Delta":416212907},{"NoteNumber":65,"Velocity":40,"Duration":92696,"SoundDuration":92696,"Delta":416306382},{"NoteNumber":50,"Velocity":34,"Duration":92696,"SoundDuration":92696,"Delta":416306382},{"NoteNumber":62,"Velocity":36,"Duration":93475,"SoundDuration":93475,"Delta":416399858},{"NoteNumber":57,"Velocity":28,"Duration":93475,"SoundDuration":93475,"Delta":416399858},{"NoteNumber":65,"Velocity":40,"Duration":91809,"SoundDuration":91809,"Delta":416493333},{"NoteNumber":50,"Velocity":34,"Duration":91809,"SoundDuration":91809,"Delta":416493333},{"NoteNumber":62,"Velocity":36,"Duration":92581,"SoundDuration":92581,"Delta":416585914},{"NoteNumber":57,"Velocity":29,"Duration":92581,"SoundDuration":92581,"Delta":416585914},{"NoteNumber":65,"Velocity":39,"Duration":91809,"SoundDuration":91809,"Delta":416678496},{"NoteNumber":50,"Velocity":34,"Duration":91809,"SoundDuration":91809,"Delta":416678496},{"NoteNumber":62,"Velocity":36,"Duration":92581,"SoundDuration":92581,"Delta":416771077},{"NoteNumber":57,"Velocity":29,"Duration":92581,"SoundDuration":92581,"Delta":416771077},{"NoteNumber":65,"Velocity":39,"Duration":91809,"SoundDuration":91809,"Delta":416863658},{"NoteNumber":50,"Velocity":34,"Duration":91809,"SoundDuration":91809,"Delta":416863658},{"NoteNumber":62,"Velocity":36,"Duration":92581,"SoundDuration":92581,"Delta":416956239},{"NoteNumber":57,"Velocity":28,"Duration":92581,"SoundDuration":92581,"Delta":416956239},{"NoteNumber":65,"Velocity":41,"Duration":91809,"SoundDuration":91809,"Delta":417048821},{"NoteNumber":50,"Velocity":34,"Duration":91809,"SoundDuration":91809,"Delta":417048821},{"NoteNumber":62,"Velocity":36,"Duration":92581,"SoundDuration":92581,"Delta":417141402},{"NoteNumber":57,"Velocity":29,"Duration":92581,"SoundDuration":92581,"Delta":417141402},{"NoteNumber":65,"Velocity":40,"Duration":93301,"SoundDuration":93301,"Delta":417233983},{"NoteNumber":50,"Velocity":34,"Duration":93301,"SoundDuration":93301,"Delta":417233983},{"NoteNumber":62,"Velocity":37,"Duration":94085,"SoundDuration":94085,"Delta":417328068},{"NoteNumber":57,"Velocity":30,"Duration":94085,"SoundDuration":94085,"Delta":417328068},{"NoteNumber":65,"Velocity":40,"Duration":93301,"SoundDuration":93301,"Delta":417422154},{"NoteNumber":50,"Velocity":35,"Duration":93301,"SoundDuration":93301,"Delta":417422154},{"NoteNumber":62,"Velocity":37,"Duration":94085,"SoundDuration":94085,"Delta":417516239},{"NoteNumber":57,"Velocity":28,"Duration":94085,"SoundDuration":94085,"Delta":417516239},{"NoteNumber":65,"Velocity":41,"Duration":92696,"SoundDuration":92696,"Delta":417610324},{"NoteNumber":50,"Velocity":35,"Duration":92696,"SoundDuration":92696,"Delta":417610324},{"NoteNumber":62,"Velocity":37,"Duration":93475,"SoundDuration":93475,"Delta":417703800},{"NoteNumber":57,"Velocity":29,"Duration":93475,"SoundDuration":93475,"Delta":417703800},{"NoteNumber":65,"Velocity":41,"Duration":92696,"SoundDuration":92696,"Delta":417797275},{"NoteNumber":50,"Velocity":35,"Duration":92696,"SoundDuration":92696,"Delta":417797275},{"NoteNumber":62,"Velocity":37,"Duration":93475,"SoundDuration":93475,"Delta":417890751},{"NoteNumber":57,"Velocity":29,"Duration":93475,"SoundDuration":93475,"Delta":417890751},{"NoteNumber":65,"Velocity":42,"Duration":92105,"SoundDuration":92105,"Delta":417984226},{"NoteNumber":50,"Velocity":35,"Duration":92105,"SoundDuration":92105,"Delta":417984226},{"NoteNumber":62,"Velocity":37,"Duration":92879,"SoundDuration":92879,"Delta":418077105},{"NoteNumber":57,"Velocity":30,"Duration":92879,"SoundDuration":92879,"Delta":418077105},{"NoteNumber":65,"Velocity":41,"Duration":92105,"SoundDuration":92105,"Delta":418169985},{"NoteNumber":50,"Velocity":35,"Duration":92105,"SoundDuration":92105,"Delta":418169985},{"NoteNumber":62,"Velocity":38,"Duration":92879,"SoundDuration":92879,"Delta":418262864},{"NoteNumber":57,"Velocity":30,"Duration":92879,"SoundDuration":92879,"Delta":418262864},{"NoteNumber":65,"Velocity":41,"Duration":93100,"SoundDuration":93100,"Delta":418355743},{"NoteNumber":50,"Velocity":36,"Duration":93100,"SoundDuration":93100,"Delta":418355743},{"NoteNumber":62,"Velocity":38,"Duration":94085,"SoundDuration":94085,"Delta":418449627},{"NoteNumber":57,"Velocity":29,"Duration":94085,"SoundDuration":94085,"Delta":418449627},{"NoteNumber":65,"Velocity":42,"Duration":93301,"SoundDuration":93301,"Delta":418543713},{"NoteNumber":50,"Velocity":36,"Duration":93301,"SoundDuration":93301,"Delta":418543713},{"NoteNumber":62,"Velocity":38,"Duration":94085,"SoundDuration":94085,"Delta":418637798},{"NoteNumber":57,"Velocity":31,"Duration":94085,"SoundDuration":94085,"Delta":418637798},{"NoteNumber":68,"Velocity":41,"Duration":93301,"SoundDuration":93301,"Delta":418731883},{"NoteNumber":50,"Velocity":36,"Duration":93301,"SoundDuration":93301,"Delta":418731883},{"NoteNumber":64,"Velocity":38,"Duration":94085,"SoundDuration":94085,"Delta":418825968},{"NoteNumber":59,"Velocity":31,"Duration":94085,"SoundDuration":94085,"Delta":418825968},{"NoteNumber":68,"Velocity":42,"Duration":93301,"SoundDuration":93301,"Delta":418920054},{"NoteNumber":50,"Velocity":36,"Duration":93301,"SoundDuration":93301,"Delta":418920054},{"NoteNumber":64,"Velocity":38,"Duration":94085,"SoundDuration":94085,"Delta":419014139},{"NoteNumber":59,"Velocity":29,"Duration":94085,"SoundDuration":94085,"Delta":419014139},{"NoteNumber":69,"Velocity":55,"Duration":560853,"SoundDuration":560853,"Delta":419108224},{"NoteNumber":48,"Velocity":30,"Duration":140213,"SoundDuration":140213,"Delta":419108224},{"NoteNumber":52,"Velocity":37,"Duration":140213,"SoundDuration":140213,"Delta":419108224},{"NoteNumber":57,"Velocity":29,"Duration":93475,"SoundDuration":93475,"Delta":419201700},{"NoteNumber":48,"Velocity":30,"Duration":140213,"SoundDuration":140213,"Delta":419295175},{"NoteNumber":52,"Velocity":37,"Duration":140213,"SoundDuration":140213,"Delta":419295175},{"NoteNumber":57,"Velocity":29,"Duration":93475,"SoundDuration":93475,"Delta":419388651},{"NoteNumber":48,"Velocity":30,"Duration":140213,"SoundDuration":140213,"Delta":419482126},{"NoteNumber":52,"Velocity":37,"Duration":140213,"SoundDuration":140213,"Delta":419482126},{"NoteNumber":57,"Velocity":29,"Duration":93475,"SoundDuration":93475,"Delta":419575602},{"NoteNumber":72,"Velocity":48,"Duration":93475,"SoundDuration":93475,"Delta":419669077},{"NoteNumber":48,"Velocity":30,"Duration":140213,"SoundDuration":140213,"Delta":419669077},{"NoteNumber":52,"Velocity":37,"Duration":140213,"SoundDuration":140213,"Delta":419669077},{"NoteNumber":71,"Velocity":48,"Duration":93475,"SoundDuration":93475,"Delta":419762553},{"NoteNumber":57,"Velocity":29,"Duration":93475,"SoundDuration":93475,"Delta":419762553},{"NoteNumber":69,"Velocity":53,"Duration":93475,"SoundDuration":93475,"Delta":419856028},{"NoteNumber":48,"Velocity":30,"Duration":140213,"SoundDuration":140213,"Delta":419856028},{"NoteNumber":52,"Velocity":37,"Duration":140213,"SoundDuration":140213,"Delta":419856028},{"NoteNumber":57,"Velocity":29,"Duration":93475,"SoundDuration":93475,"Delta":419949504},{"NoteNumber":48,"Velocity":30,"Duration":140213,"SoundDuration":140213,"Delta":420042979},{"NoteNumber":52,"Velocity":37,"Duration":140213,"SoundDuration":140213,"Delta":420042979},{"NoteNumber":57,"Velocity":29,"Duration":93475,"SoundDuration":93475,"Delta":420136455},{"NoteNumber":48,"Velocity":30,"Duration":140213,"SoundDuration":140213,"Delta":420229930},{"NoteNumber":52,"Velocity":37,"Duration":140213,"SoundDuration":140213,"Delta":420229930},{"NoteNumber":57,"Velocity":29,"Duration":93475,"SoundDuration":93475,"Delta":420323406},{"NoteNumber":48,"Velocity":30,"Duration":143926,"SoundDuration":143926,"Delta":420416881},{"NoteNumber":52,"Velocity":37,"Duration":143926,"SoundDuration":143926,"Delta":420416881},{"NoteNumber":57,"Velocity":29,"Duration":95950,"SoundDuration":95950,"Delta":420512832},{"NoteNumber":87,"Velocity":55,"Duration":47975,"SoundDuration":47975,"Delta":420560807},{"NoteNumber":88,"Velocity":68,"Duration":467377,"SoundDuration":467377,"Delta":420608783},{"NoteNumber":48,"Velocity":30,"Duration":140213,"SoundDuration":140213,"Delta":420608783},{"NoteNumber":52,"Velocity":37,"Duration":140213,"SoundDuration":140213,"Delta":420608783},{"NoteNumber":57,"Velocity":29,"Duration":93475,"SoundDuration":93475,"Delta":420702258},{"NoteNumber":48,"Velocity":30,"Duration":140213,"SoundDuration":140213,"Delta":420795734},{"NoteNumber":52,"Velocity":37,"Duration":140213,"SoundDuration":140213,"Delta":420795734},{"NoteNumber":57,"Velocity":29,"Duration":93475,"SoundDuration":93475,"Delta":420889209},{"NoteNumber":48,"Velocity":30,"Duration":140213,"SoundDuration":140213,"Delta":420982685},{"NoteNumber":52,"Velocity":37,"Duration":140213,"SoundDuration":140213,"Delta":420982685},{"NoteNumber":86,"Velocity":58,"Duration":93475,"SoundDuration":93475,"Delta":421076160},{"NoteNumber":57,"Velocity":29,"Duration":93475,"SoundDuration":93475,"Delta":421076160},{"NoteNumber":84,"Velocity":57,"Duration":93475,"SoundDuration":93475,"Delta":421169636},{"NoteNumber":48,"Velocity":30,"Duration":140213,"SoundDuration":140213,"Delta":421169636},{"NoteNumber":52,"Velocity":38,"Duration":140213,"SoundDuration":140213,"Delta":421169636},{"NoteNumber":83,"Velocity":55,"Duration":93475,"SoundDuration":93475,"Delta":421263111},{"NoteNumber":57,"Velocity":30,"Duration":93475,"SoundDuration":93475,"Delta":421263111},{"NoteNumber":81,"Velocity":55,"Duration":186951,"SoundDuration":186951,"Delta":421356587},{"NoteNumber":48,"Velocity":31,"Duration":140213,"SoundDuration":140213,"Delta":421356587},{"NoteNumber":52,"Velocity":38,"Duration":140213,"SoundDuration":140213,"Delta":421356587},{"NoteNumber":57,"Velocity":30,"Duration":93475,"SoundDuration":93475,"Delta":421450062},{"NoteNumber":48,"Velocity":31,"Duration":140213,"SoundDuration":140213,"Delta":421543538},{"NoteNumber":52,"Velocity":39,"Duration":140213,"SoundDuration":140213,"Delta":421543538},{"NoteNumber":57,"Velocity":30,"Duration":93475,"SoundDuration":93475,"Delta":421637013},{"NoteNumber":48,"Velocity":31,"Duration":140213,"SoundDuration":140213,"Delta":421730489},{"NoteNumber":52,"Velocity":39,"Duration":140213,"SoundDuration":140213,"Delta":421730489},{"NoteNumber":57,"Velocity":31,"Duration":93475,"SoundDuration":93475,"Delta":421823964},{"NoteNumber":48,"Velocity":33,"Duration":144406,"SoundDuration":144406,"Delta":421917440},{"NoteNumber":52,"Velocity":39,"Duration":144406,"SoundDuration":144406,"Delta":421917440},{"NoteNumber":57,"Velocity":31,"Duration":96271,"SoundDuration":96271,"Delta":422013711},{"NoteNumber":83,"Velocity":61,"Duration":48135,"SoundDuration":48135,"Delta":422061846},{"NoteNumber":84,"Velocity":78,"Duration":467377,"SoundDuration":467377,"Delta":422109982},{"NoteNumber":53,"Velocity":34,"Duration":140213,"SoundDuration":140213,"Delta":422109982},{"NoteNumber":57,"Velocity":41,"Duration":140213,"SoundDuration":140213,"Delta":422109982},{"NoteNumber":60,"Velocity":33,"Duration":93475,"SoundDuration":93475,"Delta":422203457},{"NoteNumber":53,"Velocity":35,"Duration":140213,"SoundDuration":140213,"Delta":422296933},{"NoteNumber":57,"Velocity":41,"Duration":140213,"SoundDuration":140213,"Delta":422296933},{"NoteNumber":60,"Velocity":34,"Duration":93475,"SoundDuration":93475,"Delta":422390408},{"NoteNumber":53,"Velocity":35,"Duration":140213,"SoundDuration":140213,"Delta":422483884},{"NoteNumber":57,"Velocity":42,"Duration":140213,"SoundDuration":140213,"Delta":422483884},{"NoteNumber":83,"Velocity":68,"Duration":93475,"SoundDuration":93475,"Delta":422577359},{"NoteNumber":60,"Velocity":34,"Duration":93475,"SoundDuration":93475,"Delta":422577359},{"NoteNumber":81,"Velocity":67,"Duration":93475,"SoundDuration":93475,"Delta":422670835},{"NoteNumber":53,"Velocity":35,"Duration":140213,"SoundDuration":140213,"Delta":422670835},{"NoteNumber":57,"Velocity":42,"Duration":140213,"SoundDuration":140213,"Delta":422670835},{"NoteNumber":80,"Velocity":64,"Duration":93475,"SoundDuration":93475,"Delta":422764310},{"NoteNumber":60,"Velocity":34,"Duration":93475,"SoundDuration":93475,"Delta":422764310},{"NoteNumber":81,"Velocity":63,"Duration":186951,"SoundDuration":186951,"Delta":422857786},{"NoteNumber":53,"Velocity":36,"Duration":140213,"SoundDuration":140213,"Delta":422857786},{"NoteNumber":57,"Velocity":44,"Duration":140213,"SoundDuration":140213,"Delta":422857786},{"NoteNumber":62,"Velocity":35,"Duration":93475,"SoundDuration":93475,"Delta":422951261},{"NoteNumber":53,"Velocity":37,"Duration":140213,"SoundDuration":140213,"Delta":423044737},{"NoteNumber":57,"Velocity":45,"Duration":140213,"SoundDuration":140213,"Delta":423044737},{"NoteNumber":62,"Velocity":36,"Duration":93475,"SoundDuration":93475,"Delta":423138212},{"NoteNumber":53,"Velocity":37,"Duration":140213,"SoundDuration":140213,"Delta":423231688},{"NoteNumber":57,"Velocity":45,"Duration":140213,"SoundDuration":140213,"Delta":423231688},{"NoteNumber":62,"Velocity":37,"Duration":93475,"SoundDuration":93475,"Delta":423325163},{"NoteNumber":53,"Velocity":38,"Duration":144406,"SoundDuration":144406,"Delta":423418639},{"NoteNumber":57,"Velocity":46,"Duration":144406,"SoundDuration":144406,"Delta":423418639},{"NoteNumber":62,"Velocity":37,"Duration":120578,"SoundDuration":120578,"Delta":423514910},{"NoteNumber":83,"Velocity":63,"Duration":72442,"SoundDuration":72442,"Delta":423563045},{"NoteNumber":84,"Velocity":81,"Duration":467377,"SoundDuration":467377,"Delta":423635488},{"NoteNumber":53,"Velocity":35,"Duration":140213,"SoundDuration":140213,"Delta":423635488},{"NoteNumber":57,"Velocity":43,"Duration":140213,"SoundDuration":140213,"Delta":423635488},{"NoteNumber":63,"Velocity":34,"Duration":93475,"SoundDuration":93475,"Delta":423728963},{"NoteNumber":53,"Velocity":36,"Duration":140213,"SoundDuration":140213,"Delta":423822439},{"NoteNumber":57,"Velocity":43,"Duration":140213,"SoundDuration":140213,"Delta":423822439},{"NoteNumber":63,"Velocity":35,"Duration":93475,"SoundDuration":93475,"Delta":423915914},{"NoteNumber":53,"Velocity":37,"Duration":140213,"SoundDuration":140213,"Delta":424009390},{"NoteNumber":57,"Velocity":44,"Duration":140213,"SoundDuration":140213,"Delta":424009390},{"NoteNumber":83,"Velocity":72,"Duration":93475,"SoundDuration":93475,"Delta":424102865},{"NoteNumber":63,"Velocity":36,"Duration":93475,"SoundDuration":93475,"Delta":424102865},{"NoteNumber":81,"Velocity":71,"Duration":93475,"SoundDuration":93475,"Delta":424196341},{"NoteNumber":53,"Velocity":37,"Duration":140213,"SoundDuration":140213,"Delta":424196341},{"NoteNumber":57,"Velocity":44,"Duration":140213,"SoundDuration":140213,"Delta":424196341},{"NoteNumber":80,"Velocity":67,"Duration":93469,"SoundDuration":93469,"Delta":424289816},{"NoteNumber":63,"Velocity":36,"Duration":93469,"SoundDuration":93469,"Delta":424289816},{"NoteNumber":81,"Velocity":70,"Duration":93457,"SoundDuration":93457,"Delta":424383286},{"NoteNumber":53,"Velocity":38,"Duration":140332,"SoundDuration":140332,"Delta":424383286},{"NoteNumber":57,"Velocity":47,"Duration":140332,"SoundDuration":140332,"Delta":424383286},{"NoteNumber":80,"Velocity":66,"Duration":93750,"SoundDuration":93750,"Delta":424476744},{"NoteNumber":60,"Velocity":37,"Duration":93750,"SoundDuration":93750,"Delta":424476744},{"NoteNumber":81,"Velocity":66,"Duration":94043,"SoundDuration":94043,"Delta":424570494},{"NoteNumber":53,"Velocity":38,"Duration":141213,"SoundDuration":141213,"Delta":424570494},{"NoteNumber":57,"Velocity":47,"Duration":141213,"SoundDuration":141213,"Delta":424570494},{"NoteNumber":83,"Velocity":66,"Duration":94339,"SoundDuration":94339,"Delta":424664538},{"NoteNumber":60,"Velocity":37,"Duration":94339,"SoundDuration":94339,"Delta":424664538},{"NoteNumber":84,"Velocity":69,"Duration":94637,"SoundDuration":94637,"Delta":424758878},{"NoteNumber":53,"Velocity":47,"Duration":141955,"SoundDuration":141955,"Delta":424758878},{"NoteNumber":85,"Velocity":70,"Duration":94637,"SoundDuration":94637,"Delta":424853515},{"NoteNumber":57,"Velocity":39,"Duration":94637,"SoundDuration":94637,"Delta":424853515},{"NoteNumber":86,"Velocity":71,"Duration":103448,"SoundDuration":103448,"Delta":424948152},{"NoteNumber":53,"Velocity":49,"Duration":168383,"SoundDuration":168383,"Delta":424948152},{"NoteNumber":87,"Velocity":74,"Duration":129870,"SoundDuration":129870,"Delta":425051600},{"NoteNumber":57,"Velocity":39,"Duration":129870,"SoundDuration":129870,"Delta":425051600},{"NoteNumber":88,"Velocity":68,"Duration":496347,"SoundDuration":496347,"Delta":425181471},{"NoteNumber":52,"Velocity":40,"Duration":112851,"SoundDuration":112851,"Delta":425181471},{"NoteNumber":56,"Velocity":35,"Duration":112488,"SoundDuration":112488,"Delta":425278245},{"NoteNumber":59,"Velocity":35,"Duration":112025,"SoundDuration":112025,"Delta":425374708},{"NoteNumber":64,"Velocity":35,"Duration":95745,"SoundDuration":95745,"Delta":425470759},{"NoteNumber":52,"Velocity":41,"Duration":111313,"SoundDuration":111313,"Delta":425566504},{"NoteNumber":86,"Velocity":54,"Duration":110859,"SoundDuration":110859,"Delta":425661945},{"NoteNumber":56,"Velocity":35,"Duration":110859,"SoundDuration":110859,"Delta":425661945},{"NoteNumber":84,"Velocity":53,"Duration":110509,"SoundDuration":110509,"Delta":425756982},{"NoteNumber":59,"Velocity":35,"Duration":110509,"SoundDuration":110509,"Delta":425756982},{"NoteNumber":83,"Velocity":51,"Duration":110112,"SoundDuration":110112,"Delta":425851719},{"NoteNumber":64,"Velocity":35,"Duration":94438,"SoundDuration":94438,"Delta":425851719},{"NoteNumber":84,"Velocity":53,"Duration":109717,"SoundDuration":109717,"Delta":425946158},{"NoteNumber":52,"Velocity":39,"Duration":109717,"SoundDuration":109717,"Delta":425946158},{"NoteNumber":83,"Velocity":52,"Duration":109717,"SoundDuration":109717,"Delta":426040202},{"NoteNumber":57,"Velocity":35,"Duration":109717,"SoundDuration":109717,"Delta":426040202},{"NoteNumber":81,"Velocity":51,"Duration":109717,"SoundDuration":109717,"Delta":426134246},{"NoteNumber":60,"Velocity":35,"Duration":109717,"SoundDuration":109717,"Delta":426134246},{"NoteNumber":80,"Velocity":50,"Duration":109717,"SoundDuration":109717,"Delta":426228290},{"NoteNumber":64,"Velocity":35,"Duration":94043,"SoundDuration":94043,"Delta":426228290},{"NoteNumber":81,"Velocity":50,"Duration":109717,"SoundDuration":109717,"Delta":426322334},{"NoteNumber":52,"Velocity":40,"Duration":109717,"SoundDuration":109717,"Delta":426322334},{"NoteNumber":84,"Velocity":52,"Duration":109718,"SoundDuration":109718,"Delta":426416378},{"NoteNumber":57,"Velocity":35,"Duration":109718,"SoundDuration":109718,"Delta":426416378},{"NoteNumber":83,"Velocity":50,"Duration":109718,"SoundDuration":109718,"Delta":426510422},{"NoteNumber":60,"Velocity":35,"Duration":109718,"SoundDuration":109718,"Delta":426510422},{"NoteNumber":81,"Velocity":50,"Duration":109433,"SoundDuration":109433,"Delta":426604466},{"NoteNumber":64,"Velocity":35,"Duration":93854,"SoundDuration":93854,"Delta":426604466},{"NoteNumber":80,"Velocity":50,"Duration":109054,"SoundDuration":109054,"Delta":426698320},{"NoteNumber":52,"Velocity":40,"Duration":109054,"SoundDuration":109054,"Delta":426698320},{"NoteNumber":78,"Velocity":49,"Duration":109054,"SoundDuration":109054,"Delta":426791796},{"NoteNumber":59,"Velocity":35,"Duration":109054,"SoundDuration":109054,"Delta":426791796},{"NoteNumber":76,"Velocity":48,"Duration":109307,"SoundDuration":109307,"Delta":426885271},{"NoteNumber":62,"Velocity":35,"Duration":109307,"SoundDuration":109307,"Delta":426885271},{"NoteNumber":75,"Velocity":47,"Duration":109409,"SoundDuration":109409,"Delta":426978949},{"NoteNumber":64,"Velocity":35,"Duration":93779,"SoundDuration":93779,"Delta":426978949},{"NoteNumber":76,"Velocity":49,"Duration":109460,"SoundDuration":109460,"Delta":427072728},{"NoteNumber":52,"Velocity":40,"Duration":109460,"SoundDuration":109460,"Delta":427072728},{"NoteNumber":78,"Velocity":49,"Duration":109766,"SoundDuration":109766,"Delta":427166508},{"NoteNumber":59,"Velocity":35,"Duration":109766,"SoundDuration":109766,"Delta":427166508},{"NoteNumber":79,"Velocity":49,"Duration":109766,"SoundDuration":109766,"Delta":427260593},{"NoteNumber":62,"Velocity":35,"Duration":109766,"SoundDuration":109766,"Delta":427260593},{"NoteNumber":80,"Velocity":50,"Duration":109919,"SoundDuration":109919,"Delta":427354678},{"NoteNumber":64,"Velocity":35,"Duration":94187,"SoundDuration":94187,"Delta":427354678},{"NoteNumber":81,"Velocity":50,"Duration":110125,"SoundDuration":110125,"Delta":427448866},{"NoteNumber":52,"Velocity":40,"Duration":110125,"SoundDuration":110125,"Delta":427448866},{"NoteNumber":80,"Velocity":50,"Duration":110125,"SoundDuration":110125,"Delta":427543259},{"NoteNumber":57,"Velocity":35,"Duration":110125,"SoundDuration":110125,"Delta":427543259},{"NoteNumber":81,"Velocity":51,"Duration":110378,"SoundDuration":110378,"Delta":427637652},{"NoteNumber":60,"Velocity":35,"Duration":110378,"SoundDuration":110378,"Delta":427637652},{"NoteNumber":83,"Velocity":51,"Duration":110479,"SoundDuration":110479,"Delta":427732248},{"NoteNumber":64,"Velocity":35,"Duration":94696,"SoundDuration":94696,"Delta":427732248},{"NoteNumber":84,"Velocity":49,"Duration":110570,"SoundDuration":110570,"Delta":427826945},{"NoteNumber":52,"Velocity":40,"Duration":110570,"SoundDuration":110570,"Delta":427826945},{"NoteNumber":85,"Velocity":50,"Duration":113946,"SoundDuration":113946,"Delta":427921642},{"NoteNumber":57,"Velocity":35,"Duration":113946,"SoundDuration":113946,"Delta":427921642},{"NoteNumber":86,"Velocity":52,"Duration":123020,"SoundDuration":123020,"Delta":428018753},{"NoteNumber":60,"Velocity":35,"Duration":123020,"SoundDuration":123020,"Delta":428018753},{"NoteNumber":87,"Velocity":53,"Duration":132319,"SoundDuration":132319,"Delta":428123117},{"NoteNumber":64,"Velocity":35,"Duration":116395,"SoundDuration":116395,"Delta":428123117},{"NoteNumber":88,"Velocity":55,"Duration":111465,"SoundDuration":111465,"Delta":428239513},{"NoteNumber":52,"Velocity":40,"Duration":111465,"SoundDuration":111465,"Delta":428239513},{"NoteNumber":87,"Velocity":53,"Duration":111313,"SoundDuration":111313,"Delta":428335054},{"NoteNumber":56,"Velocity":35,"Duration":111313,"SoundDuration":111313,"Delta":428335054},{"NoteNumber":88,"Velocity":53,"Duration":111110,"SoundDuration":111110,"Delta":428430494},{"NoteNumber":59,"Velocity":35,"Duration":111110,"SoundDuration":111110,"Delta":428430494},{"NoteNumber":87,"Velocity":50,"Duration":110859,"SoundDuration":110859,"Delta":428525732},{"NoteNumber":64,"Velocity":35,"Duration":95037,"SoundDuration":95037,"Delta":428525732},{"NoteNumber":88,"Velocity":52,"Duration":110709,"SoundDuration":110709,"Delta":428620770},{"NoteNumber":52,"Velocity":40,"Duration":110709,"SoundDuration":110709,"Delta":428620770},{"NoteNumber":86,"Velocity":52,"Duration":110410,"SoundDuration":110410,"Delta":428715706},{"NoteNumber":56,"Velocity":35,"Duration":110410,"SoundDuration":110410,"Delta":428715706},{"NoteNumber":84,"Velocity":51,"Duration":110261,"SoundDuration":110261,"Delta":428810344},{"NoteNumber":59,"Velocity":35,"Duration":110261,"SoundDuration":110261,"Delta":428810344},{"NoteNumber":83,"Velocity":50,"Duration":110013,"SoundDuration":110013,"Delta":428904882},{"NoteNumber":64,"Velocity":35,"Duration":94339,"SoundDuration":94339,"Delta":428904882},{"NoteNumber":84,"Velocity":52,"Duration":109717,"SoundDuration":109717,"Delta":428999221},{"NoteNumber":52,"Velocity":40,"Duration":109717,"SoundDuration":109717,"Delta":428999221},{"NoteNumber":83,"Velocity":51,"Duration":109717,"SoundDuration":109717,"Delta":429093265},{"NoteNumber":57,"Velocity":35,"Duration":109717,"SoundDuration":109717,"Delta":429093265},{"NoteNumber":81,"Velocity":49,"Duration":109717,"SoundDuration":109717,"Delta":429187309},{"NoteNumber":60,"Velocity":35,"Duration":109717,"SoundDuration":109717,"Delta":429187309},{"NoteNumber":80,"Velocity":50,"Duration":109668,"SoundDuration":109668,"Delta":429281353},{"NoteNumber":64,"Velocity":35,"Duration":94043,"SoundDuration":94043,"Delta":429281353},{"NoteNumber":81,"Velocity":50,"Duration":109375,"SoundDuration":109375,"Delta":429375397},{"NoteNumber":52,"Velocity":41,"Duration":109375,"SoundDuration":109375,"Delta":429375397},{"NoteNumber":84,"Velocity":53,"Duration":109375,"SoundDuration":109375,"Delta":429469147},{"NoteNumber":57,"Velocity":35,"Duration":109375,"SoundDuration":109375,"Delta":429469147},{"NoteNumber":83,"Velocity":50,"Duration":109375,"SoundDuration":109375,"Delta":429562897},{"NoteNumber":60,"Velocity":35,"Duration":109375,"SoundDuration":109375,"Delta":429562897},{"NoteNumber":81,"Velocity":50,"Duration":109229,"SoundDuration":109229,"Delta":429656647},{"NoteNumber":64,"Velocity":35,"Duration":93652,"SoundDuration":93652,"Delta":429656647},{"NoteNumber":80,"Velocity":50,"Duration":109034,"SoundDuration":109034,"Delta":429750300},{"NoteNumber":52,"Velocity":40,"Duration":109034,"SoundDuration":109034,"Delta":429750300},{"NoteNumber":78,"Velocity":49,"Duration":109034,"SoundDuration":109034,"Delta":429843758},{"NoteNumber":59,"Velocity":35,"Duration":109034,"SoundDuration":109034,"Delta":429843758},{"NoteNumber":76,"Velocity":48,"Duration":109034,"SoundDuration":109034,"Delta":429937216},{"NoteNumber":62,"Velocity":35,"Duration":109034,"SoundDuration":109034,"Delta":429937216},{"NoteNumber":75,"Velocity":47,"Duration":109034,"SoundDuration":109034,"Delta":430030674},{"NoteNumber":64,"Velocity":35,"Duration":93457,"SoundDuration":93457,"Delta":430030674},{"NoteNumber":76,"Velocity":49,"Duration":109034,"SoundDuration":109034,"Delta":430124132},{"NoteNumber":52,"Velocity":40,"Duration":109034,"SoundDuration":109034,"Delta":430124132},{"NoteNumber":78,"Velocity":50,"Duration":109034,"SoundDuration":109034,"Delta":430217590},{"NoteNumber":59,"Velocity":36,"Duration":109034,"SoundDuration":109034,"Delta":430217590},{"NoteNumber":79,"Velocity":50,"Duration":109034,"SoundDuration":109034,"Delta":430311048},{"NoteNumber":62,"Velocity":36,"Duration":109034,"SoundDuration":109034,"Delta":430311048},{"NoteNumber":80,"Velocity":52,"Duration":109034,"SoundDuration":109034,"Delta":430404506},{"NoteNumber":64,"Velocity":36,"Duration":93457,"SoundDuration":93457,"Delta":430404506},{"NoteNumber":81,"Velocity":52,"Duration":109034,"SoundDuration":109034,"Delta":430497964},{"NoteNumber":52,"Velocity":42,"Duration":109034,"SoundDuration":109034,"Delta":430497964},{"NoteNumber":80,"Velocity":52,"Duration":109034,"SoundDuration":109034,"Delta":430591422},{"NoteNumber":57,"Velocity":36,"Duration":109034,"SoundDuration":109034,"Delta":430591422},{"NoteNumber":81,"Velocity":54,"Duration":109034,"SoundDuration":109034,"Delta":430684880},{"NoteNumber":60,"Velocity":37,"Duration":109034,"SoundDuration":109034,"Delta":430684880},{"NoteNumber":83,"Velocity":54,"Duration":109034,"SoundDuration":109034,"Delta":430778338},{"NoteNumber":64,"Velocity":37,"Duration":93457,"SoundDuration":93457,"Delta":430778338},{"NoteNumber":84,"Velocity":56,"Duration":109034,"SoundDuration":109034,"Delta":430871796},{"NoteNumber":52,"Velocity":42,"Duration":109034,"SoundDuration":109034,"Delta":430871796},{"NoteNumber":85,"Velocity":58,"Duration":109829,"SoundDuration":109829,"Delta":430965254},{"NoteNumber":57,"Velocity":37,"Duration":109829,"SoundDuration":109829,"Delta":430965254},{"NoteNumber":86,"Velocity":60,"Duration":114603,"SoundDuration":114603,"Delta":431058712},{"NoteNumber":60,"Velocity":37,"Duration":114603,"SoundDuration":114603,"Delta":431058712},{"NoteNumber":87,"Velocity":62,"Duration":113810,"SoundDuration":113810,"Delta":431156944},{"NoteNumber":64,"Velocity":38,"Duration":98231,"SoundDuration":98231,"Delta":431156944},{"NoteNumber":88,"Velocity":68,"Duration":93475,"SoundDuration":93475,"Delta":431255175},{"NoteNumber":52,"Velocity":44,"Duration":93475,"SoundDuration":93475,"Delta":431255175},{"NoteNumber":83,"Velocity":60,"Duration":93475,"SoundDuration":93475,"Delta":431348651},{"NoteNumber":56,"Velocity":38,"Duration":93475,"SoundDuration":93475,"Delta":431348651},{"NoteNumber":80,"Velocity":61,"Duration":93475,"SoundDuration":93475,"Delta":431442126},{"NoteNumber":59,"Velocity":38,"Duration":93475,"SoundDuration":93475,"Delta":431442126},{"NoteNumber":76,"Velocity":61,"Duration":93475,"SoundDuration":93475,"Delta":431535602},{"NoteNumber":64,"Velocity":38,"Duration":93475,"SoundDuration":93475,"Delta":431535602},{"NoteNumber":75,"Velocity":75,"Duration":93475,"SoundDuration":93475,"Delta":431629077},{"NoteNumber":63,"Velocity":50,"Duration":93475,"SoundDuration":93475,"Delta":431629077},{"NoteNumber":76,"Velocity":63,"Duration":93475,"SoundDuration":93475,"Delta":431722553},{"NoteNumber":64,"Velocity":41,"Duration":93475,"SoundDuration":93475,"Delta":431722553},{"NoteNumber":81,"Velocity":63,"Duration":93475,"SoundDuration":93475,"Delta":431816028},{"NoteNumber":60,"Velocity":40,"Duration":93475,"SoundDuration":93475,"Delta":431816028},{"NoteNumber":84,"Velocity":63,"Duration":93475,"SoundDuration":93475,"Delta":431909504},{"NoteNumber":57,"Velocity":41,"Duration":93475,"SoundDuration":93475,"Delta":431909504},{"NoteNumber":88,"Velocity":74,"Duration":93475,"SoundDuration":93475,"Delta":432002979},{"NoteNumber":52,"Velocity":52,"Duration":93475,"SoundDuration":93475,"Delta":432002979},{"NoteNumber":83,"Velocity":65,"Duration":93475,"SoundDuration":93475,"Delta":432096455},{"NoteNumber":56,"Velocity":44,"Duration":93475,"SoundDuration":93475,"Delta":432096455},{"NoteNumber":80,"Velocity":68,"Duration":93475,"SoundDuration":93475,"Delta":432189930},{"NoteNumber":59,"Velocity":45,"Duration":93475,"SoundDuration":93475,"Delta":432189930},{"NoteNumber":76,"Velocity":68,"Duration":93475,"SoundDuration":93475,"Delta":432283406},{"NoteNumber":64,"Velocity":45,"Duration":93475,"SoundDuration":93475,"Delta":432283406},{"NoteNumber":75,"Velocity":80,"Duration":93475,"SoundDuration":93475,"Delta":432376881},{"NoteNumber":63,"Velocity":60,"Duration":93475,"SoundDuration":93475,"Delta":432376881},{"NoteNumber":76,"Velocity":71,"Duration":93475,"SoundDuration":93475,"Delta":432470357},{"NoteNumber":64,"Velocity":51,"Duration":93475,"SoundDuration":93475,"Delta":432470357},{"NoteNumber":81,"Velocity":71,"Duration":93475,"SoundDuration":93475,"Delta":432563832},{"NoteNumber":60,"Velocity":51,"Duration":93475,"SoundDuration":93475,"Delta":432563832},{"NoteNumber":84,"Velocity":72,"Duration":93475,"SoundDuration":93475,"Delta":432657308},{"NoteNumber":57,"Velocity":52,"Duration":93475,"SoundDuration":93475,"Delta":432657308},{"NoteNumber":88,"Velocity":91,"Duration":93475,"SoundDuration":93475,"Delta":432750783},{"NoteNumber":52,"Velocity":63,"Duration":93475,"SoundDuration":93475,"Delta":432750783},{"NoteNumber":83,"Velocity":82,"Duration":93475,"SoundDuration":93475,"Delta":432844259},{"NoteNumber":56,"Velocity":52,"Duration":93475,"SoundDuration":93475,"Delta":432844259},{"NoteNumber":80,"Velocity":82,"Duration":93475,"SoundDuration":93475,"Delta":432937734},{"NoteNumber":59,"Velocity":52,"Duration":93475,"SoundDuration":93475,"Delta":432937734},{"NoteNumber":76,"Velocity":82,"Duration":93475,"SoundDuration":93475,"Delta":433031210},{"NoteNumber":64,"Velocity":52,"Duration":93475,"SoundDuration":93475,"Delta":433031210},{"NoteNumber":88,"Velocity":91,"Duration":93475,"SoundDuration":93475,"Delta":433124685},{"NoteNumber":52,"Velocity":63,"Duration":93475,"SoundDuration":93475,"Delta":433124685},{"NoteNumber":84,"Velocity":82,"Duration":93475,"SoundDuration":93475,"Delta":433218161},{"NoteNumber":57,"Velocity":52,"Duration":93475,"SoundDuration":93475,"Delta":433218161},{"NoteNumber":81,"Velocity":82,"Duration":93475,"SoundDuration":93475,"Delta":433311636},{"NoteNumber":60,"Velocity":52,"Duration":93475,"SoundDuration":93475,"Delta":433311636},{"NoteNumber":76,"Velocity":82,"Duration":93475,"SoundDuration":93475,"Delta":433405112},{"NoteNumber":64,"Velocity":52,"Duration":93475,"SoundDuration":93475,"Delta":433405112},{"NoteNumber":88,"Velocity":91,"Duration":93475,"SoundDuration":93475,"Delta":433498587},{"NoteNumber":52,"Velocity":63,"Duration":93475,"SoundDuration":93475,"Delta":433498587},{"NoteNumber":83,"Velocity":82,"Duration":93475,"SoundDuration":93475,"Delta":433592063},{"NoteNumber":56,"Velocity":52,"Duration":93475,"SoundDuration":93475,"Delta":433592063},{"NoteNumber":80,"Velocity":81,"Duration":93475,"SoundDuration":93475,"Delta":433685538},{"NoteNumber":59,"Velocity":52,"Duration":93475,"SoundDuration":93475,"Delta":433685538},{"NoteNumber":76,"Velocity":81,"Duration":93475,"SoundDuration":93475,"Delta":433779014},{"NoteNumber":64,"Velocity":52,"Duration":93475,"SoundDuration":93475,"Delta":433779014},{"NoteNumber":88,"Velocity":91,"Duration":93475,"SoundDuration":93475,"Delta":433872489},{"NoteNumber":52,"Velocity":63,"Duration":93475,"SoundDuration":93475,"Delta":433872489},{"NoteNumber":84,"Velocity":81,"Duration":93475,"SoundDuration":93475,"Delta":433965965},{"NoteNumber":57,"Velocity":52,"Duration":93475,"SoundDuration":93475,"Delta":433965965},{"NoteNumber":81,"Velocity":81,"Duration":93475,"SoundDuration":93475,"Delta":434059440},{"NoteNumber":60,"Velocity":52,"Duration":93475,"SoundDuration":93475,"Delta":434059440},{"NoteNumber":76,"Velocity":82,"Duration":93475,"SoundDuration":93475,"Delta":434152916},{"NoteNumber":64,"Velocity":52,"Duration":93475,"SoundDuration":93475,"Delta":434152916},{"NoteNumber":88,"Velocity":91,"Duration":93779,"SoundDuration":93779,"Delta":434246391},{"NoteNumber":52,"Velocity":54,"Duration":375116,"SoundDuration":375116,"Delta":434246391},{"NoteNumber":56,"Velocity":54,"Duration":375116,"SoundDuration":375116,"Delta":434246391},{"NoteNumber":59,"Velocity":54,"Duration":375116,"SoundDuration":375116,"Delta":434246391},{"NoteNumber":64,"Velocity":63,"Duration":375116,"SoundDuration":375116,"Delta":434246391},{"NoteNumber":83,"Velocity":82,"Duration":93779,"SoundDuration":93779,"Delta":434340171},{"NoteNumber":80,"Velocity":82,"Duration":93779,"SoundDuration":93779,"Delta":434433950},{"NoteNumber":76,"Velocity":82,"Duration":93779,"SoundDuration":93779,"Delta":434527729},{"NoteNumber":83,"Velocity":91,"Duration":93779,"SoundDuration":93779,"Delta":434621508},{"NoteNumber":80,"Velocity":82,"Duration":93983,"SoundDuration":93983,"Delta":434715288},{"NoteNumber":76,"Velocity":82,"Duration":94085,"SoundDuration":94085,"Delta":434809271},{"NoteNumber":71,"Velocity":82,"Duration":94085,"SoundDuration":94085,"Delta":434903356},{"NoteNumber":80,"Velocity":91,"Duration":94085,"SoundDuration":94085,"Delta":434997441},{"NoteNumber":76,"Velocity":82,"Duration":94085,"SoundDuration":94085,"Delta":435091527},{"NoteNumber":71,"Velocity":81,"Duration":94187,"SoundDuration":94187,"Delta":435185612},{"NoteNumber":68,"Velocity":81,"Duration":94392,"SoundDuration":94392,"Delta":435279800},{"NoteNumber":76,"Velocity":91,"Duration":94393,"SoundDuration":94393,"Delta":435374193},{"NoteNumber":71,"Velocity":81,"Duration":94392,"SoundDuration":94392,"Delta":435468586},{"NoteNumber":68,"Velocity":81,"Duration":94393,"SoundDuration":94393,"Delta":435562979},{"NoteNumber":64,"Velocity":82,"Duration":94494,"SoundDuration":94494,"Delta":435657372},{"NoteNumber":71,"Velocity":91,"Duration":93779,"SoundDuration":93779,"Delta":435751866},{"NoteNumber":68,"Velocity":81,"Duration":93779,"SoundDuration":93779,"Delta":435845645},{"NoteNumber":64,"Velocity":80,"Duration":93983,"SoundDuration":93983,"Delta":435939424},{"NoteNumber":59,"Velocity":80,"Duration":94085,"SoundDuration":94085,"Delta":436033408},{"NoteNumber":68,"Velocity":89,"Duration":94187,"SoundDuration":94187,"Delta":436127493},{"NoteNumber":64,"Velocity":79,"Duration":94392,"SoundDuration":94392,"Delta":436221681},{"NoteNumber":59,"Velocity":79,"Duration":94392,"SoundDuration":94392,"Delta":436316074},{"NoteNumber":56,"Velocity":78,"Duration":94696,"SoundDuration":94696,"Delta":436410467},{"NoteNumber":64,"Velocity":87,"Duration":94696,"SoundDuration":94696,"Delta":436505164},{"NoteNumber":59,"Velocity":78,"Duration":94904,"SoundDuration":94904,"Delta":436599861},{"NoteNumber":56,"Velocity":77,"Duration":95008,"SoundDuration":95008,"Delta":436694766},{"NoteNumber":52,"Velocity":77,"Duration":95113,"SoundDuration":95113,"Delta":436789774},{"NoteNumber":40,"Velocity":85,"Duration":95322,"SoundDuration":95322,"Delta":436884888},{"NoteNumber":44,"Velocity":76,"Duration":95322,"SoundDuration":95322,"Delta":436980211},{"NoteNumber":47,"Velocity":76,"Duration":99926,"SoundDuration":99926,"Delta":437075533},{"NoteNumber":52,"Velocity":75,"Duration":99926,"SoundDuration":99926,"Delta":437175460},{"NoteNumber":40,"Velocity":77,"Duration":93167,"SoundDuration":93167,"Delta":437275387},{"NoteNumber":52,"Velocity":68,"Duration":95541,"SoundDuration":95541,"Delta":437461722},{"NoteNumber":42,"Velocity":73,"Duration":93457,"SoundDuration":93457,"Delta":437652805},{"NoteNumber":54,"Velocity":66,"Duration":95541,"SoundDuration":95541,"Delta":437839721},{"NoteNumber":76,"Velocity":75,"Duration":93457,"SoundDuration":93457,"Delta":438030804},{"NoteNumber":44,"Velocity":71,"Duration":93457,"SoundDuration":93457,"Delta":438030804},{"NoteNumber":64,"Velocity":69,"Duration":95541,"SoundDuration":95541,"Delta":438217720},{"NoteNumber":56,"Velocity":65,"Duration":95541,"SoundDuration":95541,"Delta":438217720},{"NoteNumber":78,"Velocity":74,"Duration":94339,"SoundDuration":94339,"Delta":438408803},{"NoteNumber":66,"Velocity":65,"Duration":100267,"SoundDuration":100267,"Delta":438597482},{"NoteNumber":80,"Velocity":71,"Duration":94043,"SoundDuration":94043,"Delta":438798017},{"NoteNumber":44,"Velocity":69,"Duration":94043,"SoundDuration":94043,"Delta":438798017},{"NoteNumber":68,"Velocity":64,"Duration":95846,"SoundDuration":95846,"Delta":438986105},{"NoteNumber":56,"Velocity":61,"Duration":95846,"SoundDuration":95846,"Delta":438986105},{"NoteNumber":45,"Velocity":65,"Duration":94339,"SoundDuration":94339,"Delta":439178223},{"NoteNumber":57,"Velocity":59,"Duration":96593,"SoundDuration":96593,"Delta":439367653},{"NoteNumber":80,"Velocity":67,"Duration":94637,"SoundDuration":94637,"Delta":439560840},{"NoteNumber":47,"Velocity":65,"Duration":94637,"SoundDuration":94637,"Delta":439560840},{"NoteNumber":68,"Velocity":53,"Duration":96153,"SoundDuration":96153,"Delta":439750620},{"NoteNumber":59,"Velocity":54,"Duration":96153,"SoundDuration":96153,"Delta":439750620},{"NoteNumber":81,"Velocity":59,"Duration":97238,"SoundDuration":97238,"Delta":439944013},{"NoteNumber":69,"Velocity":50,"Duration":97567,"SoundDuration":97567,"Delta":440138709},{"NoteNumber":83,"Velocity":52,"Duration":95237,"SoundDuration":95237,"Delta":440333843},{"NoteNumber":71,"Velocity":49,"Duration":96721,"SoundDuration":96721,"Delta":440524319},{"NoteNumber":85,"Velocity":52,"Duration":97238,"SoundDuration":97238,"Delta":440718279},{"NoteNumber":73,"Velocity":49,"Duration":97567,"SoundDuration":97567,"Delta":440912975},{"NoteNumber":86,"Velocity":52,"Duration":97898,"SoundDuration":97898,"Delta":441108220},{"NoteNumber":47,"Velocity":41,"Duration":97898,"SoundDuration":97898,"Delta":441108220},{"NoteNumber":74,"Velocity":48,"Duration":97898,"SoundDuration":97898,"Delta":441304017},{"NoteNumber":59,"Velocity":36,"Duration":97898,"SoundDuration":97898,"Delta":441304017},{"NoteNumber":86,"Velocity":52,"Duration":97567,"SoundDuration":97567,"Delta":441499814},{"NoteNumber":49,"Velocity":41,"Duration":97567,"SoundDuration":97567,"Delta":441499814},{"NoteNumber":76,"Velocity":46,"Duration":97898,"SoundDuration":97898,"Delta":441695059},{"NoteNumber":61,"Velocity":36,"Duration":97898,"SoundDuration":97898,"Delta":441695059},{"NoteNumber":86,"Velocity":51,"Duration":98341,"SoundDuration":98341,"Delta":441891190},{"NoteNumber":50,"Velocity":40,"Duration":98341,"SoundDuration":98341,"Delta":441891190},{"NoteNumber":78,"Velocity":46,"Duration":98899,"SoundDuration":98899,"Delta":442088092},{"NoteNumber":62,"Velocity":37,"Duration":98899,"SoundDuration":98899,"Delta":442088092},{"NoteNumber":86,"Velocity":51,"Duration":99239,"SoundDuration":99239,"Delta":442286003},{"NoteNumber":52,"Velocity":39,"Duration":99239,"SoundDuration":99239,"Delta":442286003},{"NoteNumber":80,"Velocity":46,"Duration":99696,"SoundDuration":99696,"Delta":442484824},{"NoteNumber":64,"Velocity":36,"Duration":99696,"SoundDuration":99696,"Delta":442484824},{"NoteNumber":86,"Velocity":51,"Duration":99184,"SoundDuration":99184,"Delta":442684448},{"NoteNumber":54,"Velocity":38,"Duration":99184,"SoundDuration":99184,"Delta":442684448},{"NoteNumber":81,"Velocity":47,"Duration":102037,"SoundDuration":102037,"Delta":442883963},{"NoteNumber":66,"Velocity":37,"Duration":102037,"SoundDuration":102037,"Delta":442883963},{"NoteNumber":86,"Velocity":50,"Duration":108159,"SoundDuration":108159,"Delta":443089742},{"NoteNumber":56,"Velocity":40,"Duration":108159,"SoundDuration":108159,"Delta":443089742},{"NoteNumber":83,"Velocity":46,"Duration":122838,"SoundDuration":122838,"Delta":443312934},{"NoteNumber":68,"Velocity":37,"Duration":122838,"SoundDuration":122838,"Delta":443312934},{"NoteNumber":73,"Velocity":42,"Duration":880218,"SoundDuration":880218,"Delta":443569887},{"NoteNumber":76,"Velocity":42,"Duration":880218,"SoundDuration":880218,"Delta":443569887},{"NoteNumber":81,"Velocity":42,"Duration":880218,"SoundDuration":880218,"Delta":443569887},{"NoteNumber":85,"Velocity":55,"Duration":880218,"SoundDuration":880218,"Delta":443569887},{"NoteNumber":64,"Velocity":33,"Duration":880218,"SoundDuration":880218,"Delta":443569887},{"NoteNumber":61,"Velocity":33,"Duration":880218,"SoundDuration":880218,"Delta":443569887},{"NoteNumber":69,"Velocity":39,"Duration":880218,"SoundDuration":880218,"Delta":443569887},{"NoteNumber":57,"Velocity":33,"Duration":880218,"SoundDuration":880218,"Delta":443569887},{"NoteNumber":71,"Velocity":40,"Duration":430447,"SoundDuration":430447,"Delta":444450105},{"NoteNumber":76,"Velocity":40,"Duration":430447,"SoundDuration":430447,"Delta":444450105},{"NoteNumber":80,"Velocity":40,"Duration":430447,"SoundDuration":430447,"Delta":444450105},{"NoteNumber":83,"Velocity":52,"Duration":430447,"SoundDuration":430447,"Delta":444450105},{"NoteNumber":59,"Velocity":29,"Duration":430447,"SoundDuration":430447,"Delta":444450105},{"NoteNumber":64,"Velocity":35,"Duration":430447,"SoundDuration":430447,"Delta":444450105},{"NoteNumber":56,"Velocity":29,"Duration":430447,"SoundDuration":430447,"Delta":444450105},{"NoteNumber":52,"Velocity":29,"Duration":430447,"SoundDuration":430447,"Delta":444450105},{"NoteNumber":69,"Velocity":40,"Duration":470588,"SoundDuration":470588,"Delta":444880552},{"NoteNumber":73,"Velocity":40,"Duration":470588,"SoundDuration":470588,"Delta":444880552},{"NoteNumber":78,"Velocity":40,"Duration":470588,"SoundDuration":470588,"Delta":444880552},{"NoteNumber":81,"Velocity":52,"Duration":470588,"SoundDuration":470588,"Delta":444880552},{"NoteNumber":57,"Velocity":29,"Duration":470588,"SoundDuration":470588,"Delta":444880552},{"NoteNumber":61,"Velocity":29,"Duration":470588,"SoundDuration":470588,"Delta":444880552},{"NoteNumber":66,"Velocity":35,"Duration":470588,"SoundDuration":470588,"Delta":444880552},{"NoteNumber":54,"Velocity":29,"Duration":470588,"SoundDuration":470588,"Delta":444880552},{"NoteNumber":68,"Velocity":42,"Duration":888888,"SoundDuration":888888,"Delta":445351140},{"NoteNumber":71,"Velocity":42,"Duration":888888,"SoundDuration":888888,"Delta":445351140},{"NoteNumber":77,"Velocity":42,"Duration":888888,"SoundDuration":888888,"Delta":445351140},{"NoteNumber":80,"Velocity":55,"Duration":888888,"SoundDuration":888888,"Delta":445351140},{"NoteNumber":49,"Velocity":33,"Duration":888888,"SoundDuration":888888,"Delta":445351140},{"NoteNumber":61,"Velocity":39,"Duration":888888,"SoundDuration":888888,"Delta":445351140},{"NoteNumber":56,"Velocity":33,"Duration":888888,"SoundDuration":888888,"Delta":445351140},{"NoteNumber":53,"Velocity":33,"Duration":888888,"SoundDuration":888888,"Delta":445351140},{"NoteNumber":74,"Velocity":40,"Duration":907085,"SoundDuration":907085,"Delta":446240028},{"NoteNumber":66,"Velocity":40,"Duration":907085,"SoundDuration":907085,"Delta":446240028},{"NoteNumber":69,"Velocity":40,"Duration":907085,"SoundDuration":907085,"Delta":446240028},{"NoteNumber":78,"Velocity":52,"Duration":907085,"SoundDuration":907085,"Delta":446240028},{"NoteNumber":54,"Velocity":28,"Duration":907085,"SoundDuration":907085,"Delta":446240028},{"NoteNumber":50,"Velocity":28,"Duration":907085,"SoundDuration":907085,"Delta":446240028},{"NoteNumber":62,"Velocity":34,"Duration":907085,"SoundDuration":907085,"Delta":446240028},{"NoteNumber":57,"Velocity":28,"Duration":907085,"SoundDuration":907085,"Delta":446240028},{"NoteNumber":68,"Velocity":49,"Duration":902256,"SoundDuration":902256,"Delta":447147114},{"NoteNumber":74,"Velocity":49,"Duration":902256,"SoundDuration":902256,"Delta":447147114},{"NoteNumber":76,"Velocity":49,"Duration":902256,"SoundDuration":902256,"Delta":447147114},{"NoteNumber":80,"Velocity":63,"Duration":902256,"SoundDuration":902256,"Delta":447147114},{"NoteNumber":47,"Velocity":37,"Duration":902256,"SoundDuration":902256,"Delta":447147114},{"NoteNumber":52,"Velocity":45,"Duration":902256,"SoundDuration":902256,"Delta":447147114},{"NoteNumber":56,"Velocity":37,"Duration":902256,"SoundDuration":902256,"Delta":447147114},{"NoteNumber":59,"Velocity":45,"Duration":902256,"SoundDuration":902256,"Delta":447147114},{"NoteNumber":69,"Velocity":50,"Duration":468750,"SoundDuration":468750,"Delta":448049370},{"NoteNumber":76,"Velocity":50,"Duration":468750,"SoundDuration":468750,"Delta":448049370},{"NoteNumber":81,"Velocity":66,"Duration":468750,"SoundDuration":468750,"Delta":448049370},{"NoteNumber":57,"Velocity":40,"Duration":468750,"SoundDuration":468750,"Delta":448049370},{"NoteNumber":49,"Velocity":40,"Duration":468750,"SoundDuration":468750,"Delta":448049370},{"NoteNumber":52,"Velocity":40,"Duration":468750,"SoundDuration":468750,"Delta":448049370},{"NoteNumber":61,"Velocity":49,"Duration":468750,"SoundDuration":468750,"Delta":448049370},{"NoteNumber":71,"Velocity":55,"Duration":508474,"SoundDuration":508474,"Delta":448518120},{"NoteNumber":78,"Velocity":55,"Duration":508474,"SoundDuration":508474,"Delta":448518120},{"NoteNumber":81,"Velocity":55,"Duration":508474,"SoundDuration":508474,"Delta":448518120},{"NoteNumber":83,"Velocity":72,"Duration":508474,"SoundDuration":508474,"Delta":448518120},{"NoteNumber":59,"Velocity":46,"Duration":508474,"SoundDuration":508474,"Delta":448518120},{"NoteNumber":62,"Velocity":55,"Duration":508474,"SoundDuration":508474,"Delta":448518120},{"NoteNumber":50,"Velocity":36,"Duration":508474,"SoundDuration":508474,"Delta":448518120},{"NoteNumber":54,"Velocity":41,"Duration":508474,"SoundDuration":508474,"Delta":448518120},{"NoteNumber":73,"Velocity":59,"Duration":898875,"SoundDuration":898875,"Delta":449026595},{"NoteNumber":76,"Velocity":59,"Duration":1363991,"SoundDuration":1363991,"Delta":449026595},{"NoteNumber":81,"Velocity":59,"Duration":898875,"SoundDuration":898875,"Delta":449026595},{"NoteNumber":85,"Velocity":77,"Duration":898875,"SoundDuration":898875,"Delta":449026595},{"NoteNumber":61,"Velocity":49,"Duration":898875,"SoundDuration":898875,"Delta":449026595},{"NoteNumber":52,"Velocity":49,"Duration":1830336,"SoundDuration":1830336,"Delta":449026595},{"NoteNumber":57,"Velocity":49,"Duration":898875,"SoundDuration":898875,"Delta":449026595},{"NoteNumber":64,"Velocity":59,"Duration":898875,"SoundDuration":898875,"Delta":449026595},{"NoteNumber":71,"Velocity":33,"Duration":931461,"SoundDuration":931461,"Delta":449925471},{"NoteNumber":80,"Velocity":32,"Duration":931461,"SoundDuration":931461,"Delta":449925471},{"NoteNumber":83,"Velocity":49,"Duration":931461,"SoundDuration":931461,"Delta":449925471},{"NoteNumber":59,"Velocity":27,"Duration":931461,"SoundDuration":931461,"Delta":449925471},{"NoteNumber":56,"Velocity":27,"Duration":931461,"SoundDuration":931461,"Delta":449925471},{"NoteNumber":64,"Velocity":32,"Duration":929517,"SoundDuration":929517,"Delta":449925471},{"NoteNumber":74,"Velocity":55,"Duration":466344,"SoundDuration":466344,"Delta":450390587},{"NoteNumber":64,"Velocity":37,"Duration":880218,"SoundDuration":880218,"Delta":450856932},{"NoteNumber":69,"Velocity":37,"Duration":880218,"SoundDuration":880218,"Delta":450856932},{"NoteNumber":72,"Velocity":45,"Duration":880218,"SoundDuration":880218,"Delta":450856932},{"NoteNumber":60,"Velocity":35,"Duration":880218,"SoundDuration":880218,"Delta":450856932},{"NoteNumber":57,"Velocity":29,"Duration":880218,"SoundDuration":880218,"Delta":450856932},{"NoteNumber":64,"Velocity":36,"Duration":430447,"SoundDuration":430447,"Delta":451737150},{"NoteNumber":67,"Velocity":36,"Duration":430447,"SoundDuration":430447,"Delta":451737150},{"NoteNumber":71,"Velocity":43,"Duration":430447,"SoundDuration":430447,"Delta":451737150},{"NoteNumber":59,"Velocity":31,"Duration":430447,"SoundDuration":430447,"Delta":451737150},{"NoteNumber":55,"Velocity":26,"Duration":430447,"SoundDuration":430447,"Delta":451737150},{"NoteNumber":52,"Velocity":26,"Duration":430447,"SoundDuration":430447,"Delta":451737150},{"NoteNumber":60,"Velocity":36,"Duration":455476,"SoundDuration":455476,"Delta":452167597},{"NoteNumber":65,"Velocity":36,"Duration":455476,"SoundDuration":455476,"Delta":452167597},{"NoteNumber":69,"Velocity":43,"Duration":455476,"SoundDuration":455476,"Delta":452167597},{"NoteNumber":57,"Velocity":31,"Duration":455476,"SoundDuration":455476,"Delta":452167597},{"NoteNumber":53,"Velocity":26,"Duration":455476,"SoundDuration":455476,"Delta":452167597},{"NoteNumber":60,"Velocity":37,"Duration":883522,"SoundDuration":883522,"Delta":452623074},{"NoteNumber":64,"Velocity":37,"Duration":883522,"SoundDuration":883522,"Delta":452623074},{"NoteNumber":67,"Velocity":45,"Duration":883522,"SoundDuration":883522,"Delta":452623074},{"NoteNumber":55,"Velocity":35,"Duration":883522,"SoundDuration":883522,"Delta":452623074},{"NoteNumber":52,"Velocity":29,"Duration":883522,"SoundDuration":883522,"Delta":452623074},{"NoteNumber":48,"Velocity":29,"Duration":883522,"SoundDuration":883522,"Delta":452623074},{"NoteNumber":62,"Velocity":36,"Duration":904403,"SoundDuration":904403,"Delta":453506596},{"NoteNumber":57,"Velocity":36,"Duration":904403,"SoundDuration":904403,"Delta":453506596},{"NoteNumber":65,"Velocity":43,"Duration":904403,"SoundDuration":904403,"Delta":453506596},{"NoteNumber":53,"Velocity":30,"Duration":904403,"SoundDuration":904403,"Delta":453506596},{"NoteNumber":50,"Velocity":25,"Duration":904403,"SoundDuration":904403,"Delta":453506596},{"NoteNumber":60,"Velocity":44,"Duration":445104,"SoundDuration":445104,"Delta":454410999},{"NoteNumber":64,"Velocity":44,"Duration":445104,"SoundDuration":445104,"Delta":454410999},{"NoteNumber":67,"Velocity":52,"Duration":890207,"SoundDuration":890207,"Delta":454410999},{"NoteNumber":48,"Velocity":35,"Duration":445104,"SoundDuration":445104,"Delta":454410999},{"NoteNumber":52,"Velocity":35,"Duration":445104,"SoundDuration":445104,"Delta":454410999},{"NoteNumber":43,"Velocity":26,"Duration":1785962,"SoundDuration":1785962,"Delta":454410999},{"NoteNumber":62,"Velocity":45,"Duration":1340858,"SoundDuration":1340858,"Delta":454856103},{"NoteNumber":65,"Velocity":45,"Duration":1340858,"SoundDuration":1340858,"Delta":454856103},{"NoteNumber":50,"Velocity":35,"Duration":1340858,"SoundDuration":1340858,"Delta":454856103},{"NoteNumber":53,"Velocity":35,"Duration":1340858,"SoundDuration":1340858,"Delta":454856103},{"NoteNumber":69,"Velocity":61,"Duration":435224,"SoundDuration":435224,"Delta":455301207},{"NoteNumber":71,"Velocity":69,"Duration":460530,"SoundDuration":460530,"Delta":455736431},{"NoteNumber":60,"Velocity":41,"Duration":150792,"SoundDuration":150792,"Delta":456196961},{"NoteNumber":64,"Velocity":41,"Duration":150792,"SoundDuration":150792,"Delta":456196961},{"NoteNumber":72,"Velocity":51,"Duration":113057,"SoundDuration":113057,"Delta":456196961},{"NoteNumber":48,"Velocity":37,"Duration":451546,"SoundDuration":451546,"Delta":456196961},{"NoteNumber":52,"Velocity":40,"Duration":451546,"SoundDuration":451546,"Delta":456196961},{"NoteNumber":74,"Velocity":48,"Duration":113065,"SoundDuration":113065,"Delta":456347754},{"NoteNumber":76,"Velocity":49,"Duration":112641,"SoundDuration":112641,"Delta":456498414},{"NoteNumber":77,"Velocity":50,"Duration":112219,"SoundDuration":112219,"Delta":456648508},{"NoteNumber":79,"Velocity":50,"Duration":111801,"SoundDuration":111801,"Delta":456798041},{"NoteNumber":81,"Velocity":51,"Duration":111524,"SoundDuration":111524,"Delta":456947018},{"NoteNumber":82,"Velocity":52,"Duration":111110,"SoundDuration":111110,"Delta":457095579},{"NoteNumber":83,"Velocity":48,"Duration":110700,"SoundDuration":110700,"Delta":457243590},{"NoteNumber":84,"Velocity":49,"Duration":110294,"SoundDuration":110294,"Delta":457391056},{"NoteNumber":85,"Velocity":51,"Duration":109756,"SoundDuration":109756,"Delta":457537980},{"NoteNumber":86,"Velocity":53,"Duration":109488,"SoundDuration":109488,"Delta":457684233},{"NoteNumber":87,"Velocity":54,"Duration":109488,"SoundDuration":109488,"Delta":457830218},{"NoteNumber":84,"Velocity":48,"Duration":868244,"SoundDuration":868244,"Delta":457976071},{"NoteNumber":88,"Velocity":58,"Duration":144707,"SoundDuration":144707,"Delta":457976071},{"NoteNumber":76,"Velocity":44,"Duration":868244,"SoundDuration":868244,"Delta":457976071},{"NoteNumber":72,"Velocity":37,"Duration":868244,"SoundDuration":868244,"Delta":457976071},{"NoteNumber":87,"Velocity":53,"Duration":144707,"SoundDuration":144707,"Delta":458120778},{"NoteNumber":88,"Velocity":53,"Duration":144707,"SoundDuration":144707,"Delta":458265485},{"NoteNumber":89,"Velocity":53,"Duration":144707,"SoundDuration":144707,"Delta":458410193},{"NoteNumber":87,"Velocity":53,"Duration":144707,"SoundDuration":144707,"Delta":458554900},{"NoteNumber":88,"Velocity":53,"Duration":144707,"SoundDuration":144707,"Delta":458699607},{"NoteNumber":83,"Velocity":60,"Duration":424598,"SoundDuration":424598,"Delta":458844315},{"NoteNumber":77,"Velocity":40,"Duration":424598,"SoundDuration":424598,"Delta":458844315},{"NoteNumber":74,"Velocity":40,"Duration":424598,"SoundDuration":424598,"Delta":458844315},{"NoteNumber":71,"Velocity":33,"Duration":424598,"SoundDuration":424598,"Delta":458844315},{"NoteNumber":68,"Velocity":33,"Duration":424598,"SoundDuration":424598,"Delta":458844315},{"NoteNumber":88,"Velocity":54,"Duration":141532,"SoundDuration":141532,"Delta":458985847},{"NoteNumber":86,"Velocity":54,"Duration":141532,"SoundDuration":141532,"Delta":459127380},{"NoteNumber":76,"Velocity":60,"Duration":449270,"SoundDuration":449270,"Delta":459268913},{"NoteNumber":76,"Velocity":40,"Duration":449270,"SoundDuration":449270,"Delta":459268913},{"NoteNumber":72,"Velocity":40,"Duration":449270,"SoundDuration":449270,"Delta":459268913},{"NoteNumber":69,"Velocity":33,"Duration":449270,"SoundDuration":449270,"Delta":459268913},{"NoteNumber":86,"Velocity":53,"Duration":149756,"SoundDuration":149756,"Delta":459418669},{"NoteNumber":84,"Velocity":53,"Duration":149756,"SoundDuration":149756,"Delta":459568426},{"NoteNumber":80,"Velocity":60,"Duration":871522,"SoundDuration":871522,"Delta":459718183},{"NoteNumber":74,"Velocity":44,"Duration":871522,"SoundDuration":871522,"Delta":459718183},{"NoteNumber":71,"Velocity":44,"Duration":871522,"SoundDuration":871522,"Delta":459718183},{"NoteNumber":68,"Velocity":37,"Duration":871522,"SoundDuration":871522,"Delta":459718183},{"NoteNumber":64,"Velocity":37,"Duration":871522,"SoundDuration":871522,"Delta":459718183},{"NoteNumber":82,"Velocity":54,"Duration":145253,"SoundDuration":145253,"Delta":459863436},{"NoteNumber":83,"Velocity":54,"Duration":145253,"SoundDuration":145253,"Delta":460008690},{"NoteNumber":84,"Velocity":54,"Duration":145253,"SoundDuration":145253,"Delta":460153944},{"NoteNumber":82,"Velocity":54,"Duration":145253,"SoundDuration":145253,"Delta":460299197},{"NoteNumber":83,"Velocity":54,"Duration":145253,"SoundDuration":145253,"Delta":460444451},{"NoteNumber":77,"Velocity":60,"Duration":892103,"SoundDuration":892103,"Delta":460589705},{"NoteNumber":72,"Velocity":39,"Duration":892103,"SoundDuration":892103,"Delta":460589705},{"NoteNumber":69,"Velocity":39,"Duration":892103,"SoundDuration":892103,"Delta":460589705},{"NoteNumber":65,"Velocity":32,"Duration":892103,"SoundDuration":892103,"Delta":460589705},{"NoteNumber":80,"Velocity":54,"Duration":145253,"SoundDuration":145253,"Delta":460734958},{"NoteNumber":81,"Velocity":54,"Duration":145253,"SoundDuration":145253,"Delta":460880212},{"NoteNumber":83,"Velocity":54,"Duration":152114,"SoundDuration":152114,"Delta":461025466},{"NoteNumber":80,"Velocity":54,"Duration":152114,"SoundDuration":152114,"Delta":461177580},{"NoteNumber":81,"Velocity":54,"Duration":152114,"SoundDuration":152114,"Delta":461329694},{"NoteNumber":77,"Velocity":62,"Duration":878091,"SoundDuration":878091,"Delta":461481809},{"NoteNumber":62,"Velocity":39,"Duration":878091,"SoundDuration":878091,"Delta":461481809},{"NoteNumber":65,"Velocity":47,"Duration":878091,"SoundDuration":878091,"Delta":461481809},{"NoteNumber":67,"Velocity":39,"Duration":878091,"SoundDuration":878091,"Delta":461481809},{"NoteNumber":71,"Velocity":47,"Duration":878091,"SoundDuration":878091,"Delta":461481809},{"NoteNumber":82,"Velocity":62,"Duration":146348,"SoundDuration":146348,"Delta":461628157},{"NoteNumber":83,"Velocity":57,"Duration":146348,"SoundDuration":146348,"Delta":461774506},{"NoteNumber":84,"Velocity":57,"Duration":146348,"SoundDuration":146348,"Delta":461920855},{"NoteNumber":82,"Velocity":59,"Duration":146348,"SoundDuration":146348,"Delta":462067203},{"NoteNumber":83,"Velocity":59,"Duration":146348,"SoundDuration":146348,"Delta":462213552},{"NoteNumber":79,"Velocity":71,"Duration":429306,"SoundDuration":429306,"Delta":462359901},{"NoteNumber":64,"Velocity":45,"Duration":429306,"SoundDuration":429306,"Delta":462359901},{"NoteNumber":67,"Velocity":45,"Duration":429306,"SoundDuration":429306,"Delta":462359901},{"NoteNumber":72,"Velocity":53,"Duration":429306,"SoundDuration":429306,"Delta":462359901},{"NoteNumber":86,"Velocity":63,"Duration":143102,"SoundDuration":143102,"Delta":462503003},{"NoteNumber":84,"Velocity":64,"Duration":143102,"SoundDuration":143102,"Delta":462646105},{"NoteNumber":81,"Velocity":74,"Duration":454544,"SoundDuration":454544,"Delta":462789208},{"NoteNumber":72,"Velocity":56,"Duration":454544,"SoundDuration":454544,"Delta":462789208},{"NoteNumber":74,"Velocity":57,"Duration":454544,"SoundDuration":454544,"Delta":462789208},{"NoteNumber":65,"Velocity":45,"Duration":454544,"SoundDuration":454544,"Delta":462789208},{"NoteNumber":69,"Velocity":48,"Duration":454544,"SoundDuration":454544,"Delta":462789208},{"NoteNumber":88,"Velocity":65,"Duration":151514,"SoundDuration":151514,"Delta":462940723},{"NoteNumber":86,"Velocity":65,"Duration":151515,"SoundDuration":151515,"Delta":463092238},{"NoteNumber":88,"Velocity":79,"Duration":145253,"SoundDuration":145253,"Delta":463243753},{"NoteNumber":84,"Velocity":79,"Duration":871522,"SoundDuration":871522,"Delta":463243753},{"NoteNumber":67,"Velocity":53,"Duration":1312245,"SoundDuration":1312245,"Delta":463243753},{"NoteNumber":72,"Velocity":53,"Duration":871522,"SoundDuration":871522,"Delta":463243753},{"NoteNumber":76,"Velocity":65,"Duration":871522,"SoundDuration":871522,"Delta":463243753},{"NoteNumber":87,"Velocity":72,"Duration":145253,"SoundDuration":145253,"Delta":463389006},{"NoteNumber":88,"Velocity":72,"Duration":145253,"SoundDuration":145253,"Delta":463534260},{"NoteNumber":91,"Velocity":68,"Duration":145253,"SoundDuration":145253,"Delta":463679514},{"NoteNumber":89,"Velocity":72,"Duration":145253,"SoundDuration":145253,"Delta":463824767},{"NoteNumber":88,"Velocity":69,"Duration":145253,"SoundDuration":145253,"Delta":463970021},{"NoteNumber":83,"Velocity":67,"Duration":146907,"SoundDuration":146907,"Delta":464115275},{"NoteNumber":86,"Velocity":67,"Duration":146907,"SoundDuration":146907,"Delta":464115275},{"NoteNumber":71,"Velocity":45,"Duration":440722,"SoundDuration":440722,"Delta":464115275},{"NoteNumber":74,"Velocity":53,"Duration":440722,"SoundDuration":440722,"Delta":464115275},{"NoteNumber":81,"Velocity":64,"Duration":146907,"SoundDuration":146907,"Delta":464262182},{"NoteNumber":84,"Velocity":64,"Duration":146907,"SoundDuration":146907,"Delta":464262182},{"NoteNumber":83,"Velocity":60,"Duration":146907,"SoundDuration":146907,"Delta":464409090},{"NoteNumber":79,"Velocity":60,"Duration":146907,"SoundDuration":146907,"Delta":464409090},{"NoteNumber":77,"Velocity":60,"Duration":153327,"SoundDuration":153327,"Delta":464555998},{"NoteNumber":81,"Velocity":60,"Duration":153327,"SoundDuration":153327,"Delta":464555998},{"NoteNumber":55,"Velocity":44,"Duration":153327,"SoundDuration":153327,"Delta":464555998},{"NoteNumber":76,"Velocity":56,"Duration":153327,"SoundDuration":153327,"Delta":464709325},{"NoteNumber":79,"Velocity":56,"Duration":153327,"SoundDuration":153327,"Delta":464709325},{"NoteNumber":57,"Velocity":43,"Duration":153327,"SoundDuration":153327,"Delta":464709325},{"NoteNumber":74,"Velocity":53,"Duration":153327,"SoundDuration":153327,"Delta":464862652},{"NoteNumber":77,"Velocity":53,"Duration":153327,"SoundDuration":153327,"Delta":464862652},{"NoteNumber":59,"Velocity":41,"Duration":153327,"SoundDuration":153327,"Delta":464862652},{"NoteNumber":67,"Velocity":57,"Duration":868244,"SoundDuration":868244,"Delta":465015980},{"NoteNumber":76,"Velocity":57,"Duration":144707,"SoundDuration":144707,"Delta":465015980},{"NoteNumber":64,"Velocity":45,"Duration":868244,"SoundDuration":868244,"Delta":465015980},{"NoteNumber":60,"Velocity":37,"Duration":868244,"SoundDuration":868244,"Delta":465015980},{"NoteNumber":75,"Velocity":49,"Duration":144707,"SoundDuration":144707,"Delta":465160687},{"NoteNumber":76,"Velocity":49,"Duration":144707,"SoundDuration":144707,"Delta":465305394},{"NoteNumber":77,"Velocity":49,"Duration":144707,"SoundDuration":144707,"Delta":465450102},{"NoteNumber":75,"Velocity":49,"Duration":144707,"SoundDuration":144707,"Delta":465594809},{"NoteNumber":76,"Velocity":49,"Duration":144707,"SoundDuration":144707,"Delta":465739516},{"NoteNumber":65,"Velocity":56,"Duration":424598,"SoundDuration":424598,"Delta":465884224},{"NoteNumber":62,"Velocity":41,"Duration":424598,"SoundDuration":424598,"Delta":465884224},{"NoteNumber":59,"Velocity":33,"Duration":424598,"SoundDuration":424598,"Delta":465884224},{"NoteNumber":56,"Velocity":33,"Duration":424598,"SoundDuration":424598,"Delta":465884224},{"NoteNumber":76,"Velocity":50,"Duration":141532,"SoundDuration":141532,"Delta":466025756},{"NoteNumber":74,"Velocity":50,"Duration":141532,"SoundDuration":141532,"Delta":466167289},{"NoteNumber":64,"Velocity":56,"Duration":449270,"SoundDuration":449270,"Delta":466308822},{"NoteNumber":60,"Velocity":41,"Duration":449270,"SoundDuration":449270,"Delta":466308822},{"NoteNumber":57,"Velocity":33,"Duration":449270,"SoundDuration":449270,"Delta":466308822},{"NoteNumber":74,"Velocity":49,"Duration":149756,"SoundDuration":149756,"Delta":466458578},{"NoteNumber":72,"Velocity":49,"Duration":149756,"SoundDuration":149756,"Delta":466608335},{"NoteNumber":59,"Velocity":37,"Duration":871522,"SoundDuration":871522,"Delta":466758092},{"NoteNumber":62,"Velocity":56,"Duration":871522,"SoundDuration":871522,"Delta":466758092},{"NoteNumber":56,"Velocity":37,"Duration":871522,"SoundDuration":871522,"Delta":466758092},{"NoteNumber":52,"Velocity":37,"Duration":871522,"SoundDuration":871522,"Delta":466758092},{"NoteNumber":70,"Velocity":50,"Duration":145253,"SoundDuration":145253,"Delta":466903345},{"NoteNumber":71,"Velocity":50,"Duration":145253,"SoundDuration":145253,"Delta":467048599},{"NoteNumber":72,"Velocity":53,"Duration":145253,"SoundDuration":145253,"Delta":467193853},{"NoteNumber":70,"Velocity":50,"Duration":145253,"SoundDuration":145253,"Delta":467339106},{"NoteNumber":71,"Velocity":50,"Duration":145253,"SoundDuration":145253,"Delta":467484360},{"NoteNumber":53,"Velocity":39,"Duration":892103,"SoundDuration":892103,"Delta":467629614},{"NoteNumber":57,"Velocity":39,"Duration":892103,"SoundDuration":892103,"Delta":467629614},{"NoteNumber":60,"Velocity":32,"Duration":892103,"SoundDuration":892103,"Delta":467629614},{"NoteNumber":68,"Velocity":50,"Duration":145253,"SoundDuration":145253,"Delta":467774867},{"NoteNumber":69,"Velocity":50,"Duration":145253,"SoundDuration":145253,"Delta":467920121},{"NoteNumber":71,"Velocity":53,"Duration":152114,"SoundDuration":152114,"Delta":468065375},{"NoteNumber":68,"Velocity":50,"Duration":152114,"SoundDuration":152114,"Delta":468217489},{"NoteNumber":69,"Velocity":50,"Duration":152114,"SoundDuration":152114,"Delta":468369603},{"NoteNumber":60,"Velocity":60,"Duration":146348,"SoundDuration":146348,"Delta":468521718},{"NoteNumber":48,"Velocity":52,"Duration":447245,"SoundDuration":447245,"Delta":468521718},{"NoteNumber":43,"Velocity":46,"Duration":1812818,"SoundDuration":1812818,"Delta":468521718},{"NoteNumber":52,"Velocity":55,"Duration":447245,"SoundDuration":447245,"Delta":468521718},{"NoteNumber":64,"Velocity":56,"Duration":146348,"SoundDuration":146348,"Delta":468668066},{"NoteNumber":67,"Velocity":57,"Duration":154547,"SoundDuration":154547,"Delta":468814415},{"NoteNumber":62,"Velocity":66,"Duration":148038,"SoundDuration":148038,"Delta":468968963},{"NoteNumber":50,"Velocity":55,"Duration":1365573,"SoundDuration":1365573,"Delta":468968963},{"NoteNumber":53,"Velocity":58,"Duration":1365573,"SoundDuration":1365573,"Delta":468968963},{"NoteNumber":65,"Velocity":61,"Duration":148038,"SoundDuration":148038,"Delta":469117001},{"NoteNumber":67,"Velocity":61,"Duration":158352,"SoundDuration":158352,"Delta":469265039},{"NoteNumber":62,"Velocity":74,"Duration":151542,"SoundDuration":151542,"Delta":469423392},{"NoteNumber":65,"Velocity":67,"Duration":149756,"SoundDuration":149756,"Delta":469574934},{"NoteNumber":69,"Velocity":65,"Duration":154547,"SoundDuration":154547,"Delta":469724691},{"NoteNumber":62,"Velocity":80,"Duration":150342,"SoundDuration":150342,"Delta":469879239},{"NoteNumber":65,"Velocity":71,"Duration":150342,"SoundDuration":150342,"Delta":470029581},{"NoteNumber":71,"Velocity":70,"Duration":154613,"SoundDuration":154613,"Delta":470179923},{"NoteNumber":64,"Velocity":77,"Duration":145804,"SoundDuration":145804,"Delta":470334536},{"NoteNumber":72,"Velocity":82,"Duration":145804,"SoundDuration":145804,"Delta":470334536},{"NoteNumber":36,"Velocity":50,"Duration":437412,"SoundDuration":437412,"Delta":470334536},{"NoteNumber":48,"Velocity":60,"Duration":437412,"SoundDuration":437412,"Delta":470334536},{"NoteNumber":55,"Velocity":75,"Duration":145804,"SoundDuration":145804,"Delta":470480340},{"NoteNumber":52,"Velocity":77,"Duration":145804,"SoundDuration":145804,"Delta":470626144},{"NoteNumber":55,"Velocity":82,"Duration":145804,"SoundDuration":145804,"Delta":470771949},{"NoteNumber":43,"Velocity":60,"Duration":877126,"SoundDuration":877126,"Delta":470771949},{"NoteNumber":60,"Velocity":77,"Duration":145804,"SoundDuration":145804,"Delta":470917753},{"NoteNumber":64,"Velocity":77,"Duration":149756,"SoundDuration":149756,"Delta":471063557},{"NoteNumber":62,"Velocity":82,"Duration":145253,"SoundDuration":145253,"Delta":471213314},{"NoteNumber":59,"Velocity":77,"Duration":145253,"SoundDuration":145253,"Delta":471358568},{"NoteNumber":55,"Velocity":77,"Duration":145253,"SoundDuration":145253,"Delta":471503821},{"NoteNumber":59,"Velocity":82,"Duration":145253,"SoundDuration":145253,"Delta":471649075},{"NoteNumber":43,"Velocity":60,"Duration":871760,"SoundDuration":871760,"Delta":471649075},{"NoteNumber":62,"Velocity":77,"Duration":145253,"SoundDuration":145253,"Delta":471794329},{"NoteNumber":65,"Velocity":77,"Duration":150341,"SoundDuration":150341,"Delta":471939582},{"NoteNumber":64,"Velocity":82,"Duration":143637,"SoundDuration":143637,"Delta":472089924},{"NoteNumber":60,"Velocity":75,"Duration":143637,"SoundDuration":143637,"Delta":472233561},{"NoteNumber":55,"Velocity":77,"Duration":143636,"SoundDuration":143636,"Delta":472377198},{"NoteNumber":60,"Velocity":82,"Duration":143637,"SoundDuration":143637,"Delta":472520835},{"NoteNumber":43,"Velocity":60,"Duration":870785,"SoundDuration":870785,"Delta":472520835},{"NoteNumber":64,"Velocity":77,"Duration":143637,"SoundDuration":143637,"Delta":472664472},{"NoteNumber":67,"Velocity":77,"Duration":149756,"SoundDuration":149756,"Delta":472808109},{"NoteNumber":65,"Velocity":82,"Duration":142571,"SoundDuration":142571,"Delta":472957866},{"NoteNumber":62,"Velocity":77,"Duration":142572,"SoundDuration":142572,"Delta":473100438},{"NoteNumber":59,"Velocity":77,"Duration":148610,"SoundDuration":148610,"Delta":473243010},{"NoteNumber":71,"Velocity":82,"Duration":142571,"SoundDuration":142571,"Delta":473391620},{"NoteNumber":43,"Velocity":60,"Duration":427715,"SoundDuration":427715,"Delta":473391620},{"NoteNumber":65,"Velocity":77,"Duration":142572,"SoundDuration":142572,"Delta":473534192},{"NoteNumber":62,"Velocity":77,"Duration":142571,"SoundDuration":142571,"Delta":473676764},{"NoteNumber":64,"Velocity":63,"Duration":426135,"SoundDuration":426135,"Delta":473819336},{"NoteNumber":72,"Velocity":75,"Duration":426135,"SoundDuration":426135,"Delta":473819336},{"NoteNumber":48,"Velocity":73,"Duration":142045,"SoundDuration":142045,"Delta":473819336},{"NoteNumber":43,"Velocity":67,"Duration":142045,"SoundDuration":142045,"Delta":473961382},{"NoteNumber":40,"Velocity":69,"Duration":142045,"SoundDuration":142045,"Delta":474103427},{"NoteNumber":67,"Velocity":75,"Duration":860305,"SoundDuration":860305,"Delta":474245472},{"NoteNumber":43,"Velocity":73,"Duration":142045,"SoundDuration":142045,"Delta":474245472},{"NoteNumber":48,"Velocity":69,"Duration":142045,"SoundDuration":142045,"Delta":474387518},{"NoteNumber":52,"Velocity":69,"Duration":146907,"SoundDuration":146907,"Delta":474529563},{"NoteNumber":50,"Velocity":73,"Duration":143102,"SoundDuration":143102,"Delta":474676471},{"NoteNumber":47,"Velocity":69,"Duration":143102,"SoundDuration":143102,"Delta":474819573},{"NoteNumber":43,"Velocity":69,"Duration":143102,"SoundDuration":143102,"Delta":474962675},{"NoteNumber":67,"Velocity":75,"Duration":862982,"SoundDuration":862982,"Delta":475105778},{"NoteNumber":47,"Velocity":73,"Duration":143102,"SoundDuration":143102,"Delta":475105778},{"NoteNumber":50,"Velocity":69,"Duration":143102,"SoundDuration":143102,"Delta":475248880},{"NoteNumber":53,"Velocity":69,"Duration":147470,"SoundDuration":147470,"Delta":475391982},{"NoteNumber":52,"Velocity":73,"Duration":143102,"SoundDuration":143102,"Delta":475539453},{"NoteNumber":48,"Velocity":67,"Duration":143102,"SoundDuration":143102,"Delta":475682556},{"NoteNumber":43,"Velocity":69,"Duration":143102,"SoundDuration":143102,"Delta":475825658},{"NoteNumber":67,"Velocity":75,"Duration":868988,"SoundDuration":868988,"Delta":475968760},{"NoteNumber":48,"Velocity":73,"Duration":143102,"SoundDuration":143102,"Delta":475968760},{"NoteNumber":52,"Velocity":69,"Duration":143102,"SoundDuration":143102,"Delta":476111863},{"NoteNumber":55,"Velocity":69,"Duration":147470,"SoundDuration":147470,"Delta":476254965},{"NoteNumber":53,"Velocity":73,"Duration":143637,"SoundDuration":143637,"Delta":476402436},{"NoteNumber":50,"Velocity":69,"Duration":143637,"SoundDuration":143637,"Delta":476546073},{"NoteNumber":47,"Velocity":69,"Duration":148038,"SoundDuration":148038,"Delta":476689710},{"NoteNumber":67,"Velocity":75,"Duration":433182,"SoundDuration":433182,"Delta":476837748},{"NoteNumber":59,"Velocity":73,"Duration":142571,"SoundDuration":142571,"Delta":476837748},{"NoteNumber":53,"Velocity":69,"Duration":142572,"SoundDuration":142572,"Delta":476980320},{"NoteNumber":50,"Velocity":69,"Duration":148038,"SoundDuration":148038,"Delta":477122892},{"NoteNumber":72,"Velocity":82,"Duration":142045,"SoundDuration":142045,"Delta":477270931},{"NoteNumber":52,"Velocity":64,"Duration":142045,"SoundDuration":142045,"Delta":477270931},{"NoteNumber":67,"Velocity":75,"Duration":142045,"SoundDuration":142045,"Delta":477412976},{"NoteNumber":55,"Velocity":56,"Duration":142045,"SoundDuration":142045,"Delta":477412976},{"NoteNumber":64,"Velocity":77,"Duration":142045,"SoundDuration":142045,"Delta":477555021},{"NoteNumber":60,"Velocity":56,"Duration":142045,"SoundDuration":142045,"Delta":477555021},{"NoteNumber":67,"Velocity":82,"Duration":142045,"SoundDuration":142045,"Delta":477697067},{"NoteNumber":55,"Velocity":64,"Duration":142045,"SoundDuration":142045,"Delta":477697067},{"NoteNumber":72,"Velocity":77,"Duration":142045,"SoundDuration":142045,"Delta":477839112},{"NoteNumber":52,"Velocity":57,"Duration":142045,"SoundDuration":142045,"Delta":477839112},{"NoteNumber":76,"Velocity":77,"Duration":146907,"SoundDuration":146907,"Delta":477981157},{"NoteNumber":48,"Velocity":57,"Duration":146907,"SoundDuration":146907,"Delta":477981157},{"NoteNumber":74,"Velocity":82,"Duration":142571,"SoundDuration":142571,"Delta":478128065},{"NoteNumber":47,"Velocity":64,"Duration":142571,"SoundDuration":142571,"Delta":478128065},{"NoteNumber":71,"Velocity":77,"Duration":142572,"SoundDuration":142572,"Delta":478270637},{"NoteNumber":50,"Velocity":56,"Duration":142572,"SoundDuration":142572,"Delta":478270637},{"NoteNumber":67,"Velocity":77,"Duration":142571,"SoundDuration":142571,"Delta":478413209},{"NoteNumber":53,"Velocity":56,"Duration":142571,"SoundDuration":142571,"Delta":478413209},{"NoteNumber":71,"Velocity":82,"Duration":142572,"SoundDuration":142572,"Delta":478555781},{"NoteNumber":50,"Velocity":64,"Duration":142572,"SoundDuration":142572,"Delta":478555781},{"NoteNumber":74,"Velocity":77,"Duration":142572,"SoundDuration":142572,"Delta":478698353},{"NoteNumber":47,"Velocity":57,"Duration":142572,"SoundDuration":142572,"Delta":478698353},{"NoteNumber":77,"Velocity":77,"Duration":146348,"SoundDuration":146348,"Delta":478840925},{"NoteNumber":43,"Velocity":58,"Duration":146348,"SoundDuration":146348,"Delta":478840925},{"NoteNumber":76,"Velocity":82,"Duration":141532,"SoundDuration":141532,"Delta":478987274},{"NoteNumber":48,"Velocity":64,"Duration":141532,"SoundDuration":141532,"Delta":478992581},{"NoteNumber":72,"Velocity":75,"Duration":141532,"SoundDuration":141532,"Delta":479128806},{"NoteNumber":52,"Velocity":56,"Duration":141532,"SoundDuration":141532,"Delta":479128806},{"NoteNumber":67,"Velocity":77,"Duration":141532,"SoundDuration":141532,"Delta":479270339},{"NoteNumber":55,"Velocity":56,"Duration":141532,"SoundDuration":141532,"Delta":479270339},{"NoteNumber":72,"Velocity":82,"Duration":141532,"SoundDuration":141532,"Delta":479411872},{"NoteNumber":52,"Velocity":64,"Duration":141532,"SoundDuration":141532,"Delta":479411872},{"NoteNumber":76,"Velocity":77,"Duration":141532,"SoundDuration":141532,"Delta":479553404},{"NoteNumber":48,"Velocity":57,"Duration":141532,"SoundDuration":141532,"Delta":479553404},{"NoteNumber":79,"Velocity":77,"Duration":155170,"SoundDuration":155170,"Delta":479694937},{"NoteNumber":43,"Velocity":57,"Duration":154678,"SoundDuration":154678,"Delta":479700756},{"NoteNumber":77,"Velocity":82,"Duration":142045,"SoundDuration":142045,"Delta":479850108},{"NoteNumber":47,"Velocity":64,"Duration":142045,"SoundDuration":142045,"Delta":479850108},{"NoteNumber":74,"Velocity":77,"Duration":142045,"SoundDuration":142045,"Delta":479992153},{"NoteNumber":53,"Velocity":56,"Duration":142045,"SoundDuration":142045,"Delta":479992153},{"NoteNumber":71,"Velocity":77,"Duration":153327,"SoundDuration":153327,"Delta":480134199},{"NoteNumber":55,"Velocity":56,"Duration":152885,"SoundDuration":152885,"Delta":480139948},{"NoteNumber":83,"Velocity":82,"Duration":141532,"SoundDuration":141532,"Delta":480287526},{"NoteNumber":53,"Velocity":64,"Duration":141532,"SoundDuration":141532,"Delta":480287526},{"NoteNumber":77,"Velocity":77,"Duration":141532,"SoundDuration":141532,"Delta":480429059},{"NoteNumber":55,"Velocity":57,"Duration":141532,"SoundDuration":141532,"Delta":480429059},{"NoteNumber":74,"Velocity":77,"Duration":141532,"SoundDuration":141532,"Delta":480570591},{"NoteNumber":62,"Velocity":58,"Duration":141532,"SoundDuration":141532,"Delta":480570591},{"NoteNumber":84,"Velocity":82,"Duration":211521,"SoundDuration":211521,"Delta":480712124},{"NoteNumber":52,"Velocity":64,"Duration":141013,"SoundDuration":141013,"Delta":480712124},{"NoteNumber":79,"Velocity":74,"Duration":141014,"SoundDuration":141014,"Delta":480853138},{"NoteNumber":55,"Velocity":55,"Duration":141014,"SoundDuration":141014,"Delta":480853138},{"NoteNumber":76,"Velocity":74,"Duration":141013,"SoundDuration":141013,"Delta":480994152},{"NoteNumber":60,"Velocity":55,"Duration":141013,"SoundDuration":141013,"Delta":480994152},{"NoteNumber":79,"Velocity":79,"Duration":211521,"SoundDuration":211521,"Delta":481135166},{"NoteNumber":48,"Velocity":62,"Duration":141013,"SoundDuration":141013,"Delta":481135166},{"NoteNumber":76,"Velocity":73,"Duration":141014,"SoundDuration":141014,"Delta":481276180},{"NoteNumber":52,"Velocity":55,"Duration":141014,"SoundDuration":141014,"Delta":481276180},{"NoteNumber":72,"Velocity":72,"Duration":146348,"SoundDuration":146348,"Delta":481417194},{"NoteNumber":55,"Velocity":54,"Duration":146348,"SoundDuration":146348,"Delta":481417194},{"NoteNumber":77,"Velocity":77,"Duration":210748,"SoundDuration":210748,"Delta":481563543},{"NoteNumber":50,"Velocity":59,"Duration":140498,"SoundDuration":140498,"Delta":481563543},{"NoteNumber":74,"Velocity":71,"Duration":140498,"SoundDuration":140498,"Delta":481704041},{"NoteNumber":53,"Velocity":51,"Duration":140498,"SoundDuration":140498,"Delta":481704041},{"NoteNumber":71,"Velocity":70,"Duration":140498,"SoundDuration":140498,"Delta":481844540},{"NoteNumber":55,"Velocity":51,"Duration":140498,"SoundDuration":140498,"Delta":481844540},{"NoteNumber":83,"Velocity":74,"Duration":210748,"SoundDuration":210748,"Delta":481985039},{"NoteNumber":53,"Velocity":57,"Duration":140498,"SoundDuration":140498,"Delta":481985039},{"NoteNumber":79,"Velocity":69,"Duration":140498,"SoundDuration":140498,"Delta":482125537},{"NoteNumber":55,"Velocity":51,"Duration":140498,"SoundDuration":140498,"Delta":482125537},{"NoteNumber":74,"Velocity":67,"Duration":154547,"SoundDuration":154547,"Delta":482266036},{"NoteNumber":62,"Velocity":51,"Duration":154547,"SoundDuration":154547,"Delta":482266036},{"NoteNumber":84,"Velocity":72,"Duration":209981,"SoundDuration":209981,"Delta":482420584},{"NoteNumber":52,"Velocity":56,"Duration":139987,"SoundDuration":139987,"Delta":482420584},{"NoteNumber":79,"Velocity":65,"Duration":139987,"SoundDuration":139987,"Delta":482560571},{"NoteNumber":55,"Velocity":48,"Duration":139987,"SoundDuration":139987,"Delta":482560571},{"NoteNumber":76,"Velocity":65,"Duration":139987,"SoundDuration":139987,"Delta":482700558},{"NoteNumber":60,"Velocity":48,"Duration":139987,"SoundDuration":139987,"Delta":482700558},{"NoteNumber":79,"Velocity":70,"Duration":209981,"SoundDuration":209981,"Delta":482840546},{"NoteNumber":48,"Velocity":54,"Duration":139987,"SoundDuration":139987,"Delta":482840546},{"NoteNumber":76,"Velocity":64,"Duration":139987,"SoundDuration":139987,"Delta":482980533},{"NoteNumber":52,"Velocity":48,"Duration":139987,"SoundDuration":139987,"Delta":482980533},{"NoteNumber":72,"Velocity":63,"Duration":146907,"SoundDuration":146907,"Delta":483120520},{"NoteNumber":55,"Velocity":47,"Duration":146907,"SoundDuration":146907,"Delta":483120520},{"NoteNumber":77,"Velocity":67,"Duration":209233,"SoundDuration":209233,"Delta":483267428},{"NoteNumber":50,"Velocity":51,"Duration":139489,"SoundDuration":139489,"Delta":483267428},{"NoteNumber":74,"Velocity":62,"Duration":139489,"SoundDuration":139489,"Delta":483406917},{"NoteNumber":53,"Velocity":44,"Duration":139489,"SoundDuration":139489,"Delta":483406917},{"NoteNumber":71,"Velocity":60,"Duration":139489,"SoundDuration":139489,"Delta":483546407},{"NoteNumber":55,"Velocity":44,"Duration":139489,"SoundDuration":139489,"Delta":483546407},{"NoteNumber":83,"Velocity":64,"Duration":209233,"SoundDuration":209233,"Delta":483685896},{"NoteNumber":53,"Velocity":50,"Duration":139489,"SoundDuration":139489,"Delta":483685896},{"NoteNumber":79,"Velocity":59,"Duration":139489,"SoundDuration":139489,"Delta":483825385},{"NoteNumber":55,"Velocity":44,"Duration":139489,"SoundDuration":139489,"Delta":483825385},{"NoteNumber":74,"Velocity":58,"Duration":154547,"SoundDuration":154547,"Delta":483964875},{"NoteNumber":62,"Velocity":44,"Duration":154547,"SoundDuration":154547,"Delta":483964875},{"NoteNumber":84,"Velocity":64,"Duration":103491,"SoundDuration":103491,"Delta":484119422},{"NoteNumber":52,"Velocity":50,"Duration":103491,"SoundDuration":103491,"Delta":484119422},{"NoteNumber":79,"Velocity":58,"Duration":103306,"SoundDuration":103306,"Delta":484222913},{"NoteNumber":55,"Velocity":43,"Duration":103306,"SoundDuration":103306,"Delta":484222913},{"NoteNumber":76,"Velocity":58,"Duration":103061,"SoundDuration":103061,"Delta":484326220},{"NoteNumber":48,"Velocity":43,"Duration":103061,"SoundDuration":103061,"Delta":484326220},{"NoteNumber":72,"Velocity":59,"Duration":102760,"SoundDuration":102760,"Delta":484429281},{"NoteNumber":55,"Velocity":44,"Duration":102760,"SoundDuration":102760,"Delta":484429281},{"NoteNumber":77,"Velocity":65,"Duration":102456,"SoundDuration":102456,"Delta":484532041},{"NoteNumber":50,"Velocity":51,"Duration":102456,"SoundDuration":102456,"Delta":484532041},{"NoteNumber":74,"Velocity":59,"Duration":102214,"SoundDuration":102214,"Delta":484634498},{"NoteNumber":55,"Velocity":44,"Duration":102214,"SoundDuration":102214,"Delta":484634498},{"NoteNumber":83,"Velocity":62,"Duration":101974,"SoundDuration":101974,"Delta":484736713},{"NoteNumber":53,"Velocity":44,"Duration":101974,"SoundDuration":101974,"Delta":484736713},{"NoteNumber":79,"Velocity":63,"Duration":101674,"SoundDuration":101674,"Delta":484838687},{"NoteNumber":55,"Velocity":44,"Duration":101674,"SoundDuration":101674,"Delta":484838687},{"NoteNumber":84,"Velocity":69,"Duration":101382,"SoundDuration":101382,"Delta":484940362},{"NoteNumber":52,"Velocity":52,"Duration":101382,"SoundDuration":101382,"Delta":484940362},{"NoteNumber":79,"Velocity":63,"Duration":101324,"SoundDuration":101324,"Delta":485041744},{"NoteNumber":55,"Velocity":46,"Duration":101324,"SoundDuration":101324,"Delta":485041744},{"NoteNumber":76,"Velocity":63,"Duration":101323,"SoundDuration":101323,"Delta":485143068},{"NoteNumber":48,"Velocity":47,"Duration":101323,"SoundDuration":101323,"Delta":485143068},{"NoteNumber":72,"Velocity":64,"Duration":101324,"SoundDuration":101324,"Delta":485244392},{"NoteNumber":55,"Velocity":49,"Duration":101324,"SoundDuration":101324,"Delta":485244392},{"NoteNumber":77,"Velocity":71,"Duration":101323,"SoundDuration":101323,"Delta":485345716},{"NoteNumber":50,"Velocity":55,"Duration":101323,"SoundDuration":101323,"Delta":485345716},{"NoteNumber":74,"Velocity":66,"Duration":101323,"SoundDuration":101323,"Delta":485447040},{"NoteNumber":55,"Velocity":48,"Duration":101323,"SoundDuration":101323,"Delta":485447040},{"NoteNumber":83,"Velocity":67,"Duration":101323,"SoundDuration":101323,"Delta":485548364},{"NoteNumber":53,"Velocity":48,"Duration":101323,"SoundDuration":101323,"Delta":485548364},{"NoteNumber":79,"Velocity":67,"Duration":107897,"SoundDuration":107897,"Delta":485649688},{"NoteNumber":55,"Velocity":49,"Duration":107897,"SoundDuration":107897,"Delta":485649688},{"NoteNumber":84,"Velocity":74,"Duration":100616,"SoundDuration":100616,"Delta":485757585},{"NoteNumber":52,"Velocity":58,"Duration":100616,"SoundDuration":100616,"Delta":485757585},{"NoteNumber":79,"Velocity":67,"Duration":100442,"SoundDuration":100442,"Delta":485858202},{"NoteNumber":55,"Velocity":50,"Duration":100442,"SoundDuration":100442,"Delta":485858202},{"NoteNumber":83,"Velocity":69,"Duration":100267,"SoundDuration":100267,"Delta":485958644},{"NoteNumber":53,"Velocity":51,"Duration":100267,"SoundDuration":100267,"Delta":485958644},{"NoteNumber":79,"Velocity":69,"Duration":99983,"SoundDuration":99983,"Delta":486058912},{"NoteNumber":55,"Velocity":52,"Duration":99983,"SoundDuration":99983,"Delta":486058912},{"NoteNumber":84,"Velocity":77,"Duration":99869,"SoundDuration":99869,"Delta":486158895},{"NoteNumber":52,"Velocity":60,"Duration":99869,"SoundDuration":99869,"Delta":486158895},{"NoteNumber":79,"Velocity":77,"Duration":99581,"SoundDuration":99581,"Delta":486258765},{"NoteNumber":55,"Velocity":52,"Duration":99581,"SoundDuration":99581,"Delta":486258765},{"NoteNumber":83,"Velocity":72,"Duration":99410,"SoundDuration":99410,"Delta":486358346},{"NoteNumber":53,"Velocity":52,"Duration":99410,"SoundDuration":99410,"Delta":486358346},{"NoteNumber":79,"Velocity":73,"Duration":99239,"SoundDuration":99239,"Delta":486457757},{"NoteNumber":55,"Velocity":54,"Duration":99239,"SoundDuration":99239,"Delta":486457757},{"NoteNumber":84,"Velocity":80,"Duration":98899,"SoundDuration":98899,"Delta":486556996},{"NoteNumber":52,"Velocity":62,"Duration":98899,"SoundDuration":98899,"Delta":486556996},{"NoteNumber":79,"Velocity":73,"Duration":98898,"SoundDuration":98898,"Delta":486655895},{"NoteNumber":55,"Velocity":55,"Duration":98898,"SoundDuration":98898,"Delta":486655895},{"NoteNumber":83,"Velocity":74,"Duration":98899,"SoundDuration":98899,"Delta":486754794},{"NoteNumber":53,"Velocity":55,"Duration":98899,"SoundDuration":98899,"Delta":486754794},{"NoteNumber":79,"Velocity":74,"Duration":98899,"SoundDuration":98899,"Delta":486853693},{"NoteNumber":55,"Velocity":57,"Duration":98899,"SoundDuration":98899,"Delta":486853693},{"NoteNumber":84,"Velocity":82,"Duration":98898,"SoundDuration":98898,"Delta":486952592},{"NoteNumber":52,"Velocity":65,"Duration":98898,"SoundDuration":98898,"Delta":486952592},{"NoteNumber":79,"Velocity":85,"Duration":98899,"SoundDuration":98899,"Delta":487051491},{"NoteNumber":55,"Velocity":57,"Duration":98899,"SoundDuration":98899,"Delta":487051491},{"NoteNumber":83,"Velocity":78,"Duration":98899,"SoundDuration":98899,"Delta":487150390},{"NoteNumber":53,"Velocity":57,"Duration":98899,"SoundDuration":98899,"Delta":487150390},{"NoteNumber":79,"Velocity":79,"Duration":108530,"SoundDuration":108530,"Delta":487249289},{"NoteNumber":55,"Velocity":58,"Duration":108530,"SoundDuration":108530,"Delta":487249289},{"NoteNumber":84,"Velocity":89,"Duration":98561,"SoundDuration":98561,"Delta":487357820},{"NoteNumber":52,"Velocity":70,"Duration":98561,"SoundDuration":98561,"Delta":487357820},{"NoteNumber":79,"Velocity":81,"Duration":98560,"SoundDuration":98560,"Delta":487456381},{"NoteNumber":55,"Velocity":60,"Duration":98560,"SoundDuration":98560,"Delta":487456381},{"NoteNumber":82,"Velocity":81,"Duration":98451,"SoundDuration":98451,"Delta":487554942},{"NoteNumber":40,"Velocity":60,"Duration":98451,"SoundDuration":98451,"Delta":487554942},{"NoteNumber":79,"Velocity":81,"Duration":98231,"SoundDuration":98231,"Delta":487653393},{"NoteNumber":48,"Velocity":62,"Duration":98231,"SoundDuration":98231,"Delta":487653393},{"NoteNumber":82,"Velocity":89,"Duration":98231,"SoundDuration":98231,"Delta":487751625},{"NoteNumber":40,"Velocity":70,"Duration":98231,"SoundDuration":98231,"Delta":487751625},{"NoteNumber":79,"Velocity":83,"Duration":98009,"SoundDuration":98009,"Delta":487849856},{"NoteNumber":48,"Velocity":60,"Duration":98009,"SoundDuration":98009,"Delta":487849856},{"NoteNumber":82,"Velocity":82,"Duration":97898,"SoundDuration":97898,"Delta":487947866},{"NoteNumber":40,"Velocity":60,"Duration":97898,"SoundDuration":97898,"Delta":487947866},{"NoteNumber":79,"Velocity":82,"Duration":97843,"SoundDuration":97843,"Delta":488045764},{"NoteNumber":48,"Velocity":60,"Duration":97843,"SoundDuration":97843,"Delta":488045764},{"NoteNumber":82,"Velocity":89,"Duration":97567,"SoundDuration":97567,"Delta":488143608},{"NoteNumber":40,"Velocity":70,"Duration":97567,"SoundDuration":97567,"Delta":488143608},{"NoteNumber":79,"Velocity":81,"Duration":97567,"SoundDuration":97567,"Delta":488241175},{"NoteNumber":48,"Velocity":60,"Duration":97567,"SoundDuration":97567,"Delta":488241175},{"NoteNumber":82,"Velocity":81,"Duration":97567,"SoundDuration":97567,"Delta":488338742},{"NoteNumber":40,"Velocity":60,"Duration":97567,"SoundDuration":97567,"Delta":488338742},{"NoteNumber":79,"Velocity":81,"Duration":97567,"SoundDuration":97567,"Delta":488436310},{"NoteNumber":48,"Velocity":62,"Duration":97567,"SoundDuration":97567,"Delta":488436310},{"NoteNumber":82,"Velocity":89,"Duration":97567,"SoundDuration":97567,"Delta":488533877},{"NoteNumber":40,"Velocity":70,"Duration":97567,"SoundDuration":97567,"Delta":488533877},{"NoteNumber":79,"Velocity":83,"Duration":97567,"SoundDuration":97567,"Delta":488631444},{"NoteNumber":48,"Velocity":60,"Duration":97567,"SoundDuration":97567,"Delta":488631444},{"NoteNumber":82,"Velocity":82,"Duration":97567,"SoundDuration":97567,"Delta":488729011},{"NoteNumber":40,"Velocity":60,"Duration":97567,"SoundDuration":97567,"Delta":488729011},{"NoteNumber":79,"Velocity":82,"Duration":101323,"SoundDuration":101323,"Delta":488826579},{"NoteNumber":48,"Velocity":60,"Duration":101323,"SoundDuration":101323,"Delta":488826579},{"NoteNumber":82,"Velocity":89,"Duration":190017,"SoundDuration":190017,"Delta":488927903},{"NoteNumber":40,"Velocity":70,"Duration":95008,"SoundDuration":95008,"Delta":488927903},{"NoteNumber":48,"Velocity":60,"Duration":95008,"SoundDuration":95008,"Delta":489022911},{"NoteNumber":81,"Velocity":81,"Duration":95008,"SoundDuration":95008,"Delta":489117920},{"NoteNumber":40,"Velocity":60,"Duration":95008,"SoundDuration":95008,"Delta":489117920},{"NoteNumber":79,"Velocity":81,"Duration":95008,"SoundDuration":95008,"Delta":489212929},{"NoteNumber":48,"Velocity":62,"Duration":95008,"SoundDuration":95008,"Delta":489212929},{"NoteNumber":77,"Velocity":84,"Duration":95008,"SoundDuration":95008,"Delta":489307938},{"NoteNumber":40,"Velocity":70,"Duration":95008,"SoundDuration":95008,"Delta":489307938},{"NoteNumber":76,"Velocity":78,"Duration":95008,"SoundDuration":95008,"Delta":489402946},{"NoteNumber":48,"Velocity":60,"Duration":95008,"SoundDuration":95008,"Delta":489402946},{"NoteNumber":74,"Velocity":78,"Duration":95008,"SoundDuration":95008,"Delta":489497955},{"NoteNumber":40,"Velocity":60,"Duration":95008,"SoundDuration":95008,"Delta":489497955},{"NoteNumber":72,"Velocity":80,"Duration":95008,"SoundDuration":95008,"Delta":489592964},{"NoteNumber":48,"Velocity":61,"Duration":95008,"SoundDuration":95008,"Delta":489592964},{"NoteNumber":70,"Velocity":84,"Duration":95008,"SoundDuration":95008,"Delta":489687973},{"NoteNumber":40,"Velocity":71,"Duration":95008,"SoundDuration":95008,"Delta":489687973},{"NoteNumber":69,"Velocity":80,"Duration":95008,"SoundDuration":95008,"Delta":489782981},{"NoteNumber":48,"Velocity":61,"Duration":95008,"SoundDuration":95008,"Delta":489782981},{"NoteNumber":67,"Velocity":80,"Duration":95008,"SoundDuration":95008,"Delta":489877990},{"NoteNumber":40,"Velocity":61,"Duration":95008,"SoundDuration":95008,"Delta":489877990},{"NoteNumber":65,"Velocity":81,"Duration":95008,"SoundDuration":95008,"Delta":489972999},{"NoteNumber":48,"Velocity":63,"Duration":95008,"SoundDuration":95008,"Delta":489972999},{"NoteNumber":64,"Velocity":86,"Duration":95008,"SoundDuration":95008,"Delta":490068008},{"NoteNumber":40,"Velocity":72,"Duration":95008,"SoundDuration":95008,"Delta":490068008},{"NoteNumber":62,"Velocity":84,"Duration":95008,"SoundDuration":95008,"Delta":490163016},{"NoteNumber":48,"Velocity":62,"Duration":95008,"SoundDuration":95008,"Delta":490163016},{"NoteNumber":60,"Velocity":85,"Duration":95008,"SoundDuration":95008,"Delta":490258025},{"NoteNumber":40,"Velocity":62,"Duration":95008,"SoundDuration":95008,"Delta":490258025},{"NoteNumber":58,"Velocity":85,"Duration":95008,"SoundDuration":95008,"Delta":490353034},{"NoteNumber":48,"Velocity":62,"Duration":95008,"SoundDuration":95008,"Delta":490353034},{"NoteNumber":57,"Velocity":93,"Duration":94311,"SoundDuration":94311,"Delta":490448043},{"NoteNumber":41,"Velocity":67,"Duration":140876,"SoundDuration":140876,"Delta":490448043},{"NoteNumber":45,"Velocity":67,"Duration":140876,"SoundDuration":140876,"Delta":490448043},{"NoteNumber":48,"Velocity":80,"Duration":140876,"SoundDuration":140876,"Delta":490448043},{"NoteNumber":59,"Velocity":81,"Duration":93413,"SoundDuration":93413,"Delta":490542354},{"NoteNumber":60,"Velocity":81,"Duration":93491,"SoundDuration":93491,"Delta":490635767},{"NoteNumber":41,"Velocity":60,"Duration":139980,"SoundDuration":139980,"Delta":490635767},{"NoteNumber":45,"Velocity":60,"Duration":139980,"SoundDuration":139980,"Delta":490635767},{"NoteNumber":48,"Velocity":73,"Duration":139980,"SoundDuration":139980,"Delta":490635767},{"NoteNumber":59,"Velocity":81,"Duration":93887,"SoundDuration":93887,"Delta":490729259},{"NoteNumber":60,"Velocity":92,"Duration":93268,"SoundDuration":93268,"Delta":490823146},{"NoteNumber":64,"Velocity":81,"Duration":93750,"SoundDuration":93750,"Delta":490916414},{"NoteNumber":65,"Velocity":81,"Duration":97898,"SoundDuration":97898,"Delta":491010164},{"NoteNumber":41,"Velocity":60,"Duration":146847,"SoundDuration":146847,"Delta":491010164},{"NoteNumber":45,"Velocity":60,"Duration":146847,"SoundDuration":146847,"Delta":491010164},{"NoteNumber":48,"Velocity":73,"Duration":146847,"SoundDuration":146847,"Delta":491010164},{"NoteNumber":64,"Velocity":82,"Duration":97898,"SoundDuration":97898,"Delta":491108063},{"NoteNumber":65,"Velocity":93,"Duration":92396,"SoundDuration":92396,"Delta":491205961},{"NoteNumber":41,"Velocity":67,"Duration":139625,"SoundDuration":139625,"Delta":491205961},{"NoteNumber":45,"Velocity":67,"Duration":139625,"SoundDuration":139625,"Delta":491205961},{"NoteNumber":48,"Velocity":80,"Duration":139625,"SoundDuration":139625,"Delta":491205961},{"NoteNumber":68,"Velocity":80,"Duration":94331,"SoundDuration":94331,"Delta":491298358},{"NoteNumber":69,"Velocity":80,"Duration":93150,"SoundDuration":93150,"Delta":491392689},{"NoteNumber":41,"Velocity":60,"Duration":140489,"SoundDuration":140489,"Delta":491392689},{"NoteNumber":45,"Velocity":60,"Duration":140489,"SoundDuration":140489,"Delta":491392689},{"NoteNumber":48,"Velocity":73,"Duration":140489,"SoundDuration":140489,"Delta":491392689},{"NoteNumber":68,"Velocity":81,"Duration":94136,"SoundDuration":94136,"Delta":491485840},{"NoteNumber":69,"Velocity":93,"Duration":93518,"SoundDuration":93518,"Delta":491579977},{"NoteNumber":71,"Velocity":83,"Duration":92889,"SoundDuration":92889,"Delta":491673495},{"NoteNumber":72,"Velocity":83,"Duration":97567,"SoundDuration":97567,"Delta":491766384},{"NoteNumber":41,"Velocity":60,"Duration":146350,"SoundDuration":146350,"Delta":491766384},{"NoteNumber":45,"Velocity":60,"Duration":146350,"SoundDuration":146350,"Delta":491766384},{"NoteNumber":48,"Velocity":73,"Duration":146350,"SoundDuration":146350,"Delta":491766384},{"NoteNumber":71,"Velocity":83,"Duration":97567,"SoundDuration":97567,"Delta":491863951},{"NoteNumber":72,"Velocity":95,"Duration":93451,"SoundDuration":93451,"Delta":491961518},{"NoteNumber":41,"Velocity":67,"Duration":139530,"SoundDuration":139530,"Delta":491961518},{"NoteNumber":45,"Velocity":67,"Duration":139530,"SoundDuration":139530,"Delta":491961518},{"NoteNumber":48,"Velocity":78,"Duration":139530,"SoundDuration":139530,"Delta":491961518},{"NoteNumber":76,"Velocity":84,"Duration":92377,"SoundDuration":92377,"Delta":492054969},{"NoteNumber":77,"Velocity":84,"Duration":94043,"SoundDuration":94043,"Delta":492147347},{"NoteNumber":41,"Velocity":60,"Duration":140697,"SoundDuration":140697,"Delta":492147347},{"NoteNumber":45,"Velocity":60,"Duration":140697,"SoundDuration":140697,"Delta":492147347},{"NoteNumber":48,"Velocity":73,"Duration":140697,"SoundDuration":140697,"Delta":492147347},{"NoteNumber":76,"Velocity":84,"Duration":92713,"SoundDuration":92713,"Delta":492241391},{"NoteNumber":77,"Velocity":95,"Duration":93246,"SoundDuration":93246,"Delta":492334104},{"NoteNumber":80,"Velocity":82,"Duration":93072,"SoundDuration":93072,"Delta":492427351},{"NoteNumber":81,"Velocity":82,"Duration":96918,"SoundDuration":96918,"Delta":492520423},{"NoteNumber":41,"Velocity":60,"Duration":145376,"SoundDuration":145376,"Delta":492520423},{"NoteNumber":45,"Velocity":60,"Duration":145376,"SoundDuration":145376,"Delta":492520423},{"NoteNumber":48,"Velocity":73,"Duration":145376,"SoundDuration":145376,"Delta":492520423},{"NoteNumber":80,"Velocity":82,"Duration":96917,"SoundDuration":96917,"Delta":492617341},{"NoteNumber":81,"Velocity":95,"Duration":92899,"SoundDuration":92899,"Delta":492714259},{"NoteNumber":41,"Velocity":67,"Duration":139872,"SoundDuration":139872,"Delta":492714259},{"NoteNumber":45,"Velocity":67,"Duration":139872,"SoundDuration":139872,"Delta":492714259},{"NoteNumber":48,"Velocity":78,"Duration":139872,"SoundDuration":139872,"Delta":492714259},{"NoteNumber":83,"Velocity":82,"Duration":93441,"SoundDuration":93441,"Delta":492807159},{"NoteNumber":84,"Velocity":82,"Duration":92535,"SoundDuration":92535,"Delta":492900600},{"NoteNumber":41,"Velocity":60,"Duration":138831,"SoundDuration":138831,"Delta":492900600},{"NoteNumber":45,"Velocity":60,"Duration":138831,"SoundDuration":138831,"Delta":492900600},{"NoteNumber":48,"Velocity":73,"Duration":138831,"SoundDuration":138831,"Delta":492900600},{"NoteNumber":83,"Velocity":82,"Duration":92592,"SoundDuration":92592,"Delta":492993136},{"NoteNumber":84,"Velocity":95,"Duration":93662,"SoundDuration":93662,"Delta":493085728},{"NoteNumber":83,"Velocity":82,"Duration":93457,"SoundDuration":93457,"Delta":493179391},{"NoteNumber":81,"Velocity":83,"Duration":100969,"SoundDuration":100969,"Delta":493272849},{"NoteNumber":41,"Velocity":60,"Duration":151453,"SoundDuration":151453,"Delta":493272849},{"NoteNumber":45,"Velocity":60,"Duration":151453,"SoundDuration":151453,"Delta":493272849},{"NoteNumber":48,"Velocity":73,"Duration":151453,"SoundDuration":151453,"Delta":493272849},{"NoteNumber":80,"Velocity":83,"Duration":100969,"SoundDuration":100969,"Delta":493373819},{"NoteNumber":81,"Velocity":95,"Duration":92893,"SoundDuration":92893,"Delta":493474788},{"NoteNumber":48,"Velocity":67,"Duration":138878,"SoundDuration":138878,"Delta":493474788},{"NoteNumber":42,"Velocity":67,"Duration":138878,"SoundDuration":138878,"Delta":493474788},{"NoteNumber":45,"Velocity":67,"Duration":138878,"SoundDuration":138878,"Delta":493474788},{"NoteNumber":50,"Velocity":78,"Duration":138878,"SoundDuration":138878,"Delta":493474788},{"NoteNumber":80,"Velocity":83,"Duration":92520,"SoundDuration":92520,"Delta":493567681},{"NoteNumber":81,"Velocity":83,"Duration":93643,"SoundDuration":93643,"Delta":493660202},{"NoteNumber":48,"Velocity":60,"Duration":139740,"SoundDuration":139740,"Delta":493660202},{"NoteNumber":42,"Velocity":60,"Duration":139740,"SoundDuration":139740,"Delta":493660202},{"NoteNumber":45,"Velocity":60,"Duration":139740,"SoundDuration":139740,"Delta":493660202},{"NoteNumber":50,"Velocity":73,"Duration":139740,"SoundDuration":139740,"Delta":493660202},{"NoteNumber":83,"Velocity":83,"Duration":92741,"SoundDuration":92741,"Delta":493753845},{"NoteNumber":84,"Velocity":95,"Duration":94192,"SoundDuration":94192,"Delta":493846587},{"NoteNumber":83,"Velocity":85,"Duration":93054,"SoundDuration":93054,"Delta":493940779},{"NoteNumber":81,"Velocity":85,"Duration":96918,"SoundDuration":96918,"Delta":494033834},{"NoteNumber":48,"Velocity":60,"Duration":145376,"SoundDuration":145376,"Delta":494033834},{"NoteNumber":42,"Velocity":60,"Duration":145376,"SoundDuration":145376,"Delta":494033834},{"NoteNumber":45,"Velocity":60,"Duration":145376,"SoundDuration":145376,"Delta":494033834},{"NoteNumber":50,"Velocity":73,"Duration":145376,"SoundDuration":145376,"Delta":494033834},{"NoteNumber":80,"Velocity":85,"Duration":96917,"SoundDuration":96917,"Delta":494130752},{"NoteNumber":81,"Velocity":95,"Duration":92474,"SoundDuration":92474,"Delta":494227670},{"NoteNumber":48,"Velocity":67,"Duration":139069,"SoundDuration":139069,"Delta":494227670},{"NoteNumber":42,"Velocity":67,"Duration":139069,"SoundDuration":139069,"Delta":494227670},{"NoteNumber":45,"Velocity":67,"Duration":139069,"SoundDuration":139069,"Delta":494227670},{"NoteNumber":50,"Velocity":78,"Duration":139069,"SoundDuration":139069,"Delta":494227670},{"NoteNumber":80,"Velocity":84,"Duration":93843,"SoundDuration":93843,"Delta":494320145},{"NoteNumber":81,"Velocity":84,"Duration":93405,"SoundDuration":93405,"Delta":494413989},{"NoteNumber":48,"Velocity":60,"Duration":140605,"SoundDuration":140605,"Delta":494413989},{"NoteNumber":42,"Velocity":60,"Duration":140605,"SoundDuration":140605,"Delta":494413989},{"NoteNumber":45,"Velocity":60,"Duration":140605,"SoundDuration":140605,"Delta":494413989},{"NoteNumber":50,"Velocity":73,"Duration":140605,"SoundDuration":140605,"Delta":494413989},{"NoteNumber":83,"Velocity":84,"Duration":94371,"SoundDuration":94371,"Delta":494507394},{"NoteNumber":84,"Velocity":95,"Duration":93111,"SoundDuration":93111,"Delta":494601765},{"NoteNumber":83,"Velocity":84,"Duration":93457,"SoundDuration":93457,"Delta":494694876},{"NoteNumber":81,"Velocity":84,"Duration":96593,"SoundDuration":96593,"Delta":494788334},{"NoteNumber":48,"Velocity":60,"Duration":144890,"SoundDuration":144890,"Delta":494788334},{"NoteNumber":42,"Velocity":60,"Duration":144890,"SoundDuration":144890,"Delta":494788334},{"NoteNumber":45,"Velocity":60,"Duration":144890,"SoundDuration":144890,"Delta":494788334},{"NoteNumber":50,"Velocity":73,"Duration":144890,"SoundDuration":144890,"Delta":494788334},{"NoteNumber":80,"Velocity":84,"Duration":96593,"SoundDuration":96593,"Delta":494884928},{"NoteNumber":81,"Velocity":95,"Duration":92672,"SoundDuration":92672,"Delta":494981521},{"NoteNumber":48,"Velocity":67,"Duration":139165,"SoundDuration":139165,"Delta":494981521},{"NoteNumber":42,"Velocity":67,"Duration":139165,"SoundDuration":139165,"Delta":494981521},{"NoteNumber":45,"Velocity":67,"Duration":139165,"SoundDuration":139165,"Delta":494981521},{"NoteNumber":50,"Velocity":78,"Duration":139165,"SoundDuration":139165,"Delta":494981521},{"NoteNumber":80,"Velocity":84,"Duration":93952,"SoundDuration":93952,"Delta":495074193},{"NoteNumber":81,"Velocity":84,"Duration":93238,"SoundDuration":93238,"Delta":495168145},{"NoteNumber":48,"Velocity":60,"Duration":139967,"SoundDuration":139967,"Delta":495168145},{"NoteNumber":42,"Velocity":60,"Duration":139967,"SoundDuration":139967,"Delta":495168145},{"NoteNumber":45,"Velocity":60,"Duration":139967,"SoundDuration":139967,"Delta":495168145},{"NoteNumber":50,"Velocity":73,"Duration":139967,"SoundDuration":139967,"Delta":495168145},{"NoteNumber":83,"Velocity":84,"Duration":93457,"SoundDuration":93457,"Delta":495261384},{"NoteNumber":84,"Velocity":95,"Duration":93301,"SoundDuration":93301,"Delta":495354842},{"NoteNumber":83,"Velocity":83,"Duration":93122,"SoundDuration":93122,"Delta":495448143},{"NoteNumber":81,"Velocity":83,"Duration":96918,"SoundDuration":96918,"Delta":495541265},{"NoteNumber":48,"Velocity":60,"Duration":145376,"SoundDuration":145376,"Delta":495541265},{"NoteNumber":42,"Velocity":60,"Duration":145376,"SoundDuration":145376,"Delta":495541265},{"NoteNumber":45,"Velocity":60,"Duration":145376,"SoundDuration":145376,"Delta":495541265},{"NoteNumber":50,"Velocity":73,"Duration":145376,"SoundDuration":145376,"Delta":495541265},{"NoteNumber":80,"Velocity":83,"Duration":96917,"SoundDuration":96917,"Delta":495638183},{"NoteNumber":81,"Velocity":95,"Duration":93945,"SoundDuration":93945,"Delta":495735101},{"NoteNumber":48,"Velocity":67,"Duration":140948,"SoundDuration":140948,"Delta":495735101},{"NoteNumber":42,"Velocity":67,"Duration":140948,"SoundDuration":140948,"Delta":495735101},{"NoteNumber":45,"Velocity":67,"Duration":140948,"SoundDuration":140948,"Delta":495735101},{"NoteNumber":50,"Velocity":78,"Duration":140948,"SoundDuration":140948,"Delta":495735101},{"NoteNumber":80,"Velocity":83,"Duration":93337,"SoundDuration":93337,"Delta":495829047},{"NoteNumber":81,"Velocity":83,"Duration":93870,"SoundDuration":93870,"Delta":495922385},{"NoteNumber":48,"Velocity":60,"Duration":140757,"SoundDuration":140757,"Delta":495922385},{"NoteNumber":42,"Velocity":60,"Duration":140757,"SoundDuration":140757,"Delta":495922385},{"NoteNumber":45,"Velocity":60,"Duration":140757,"SoundDuration":140757,"Delta":495922385},{"NoteNumber":50,"Velocity":73,"Duration":140757,"SoundDuration":140757,"Delta":495922385},{"NoteNumber":83,"Velocity":83,"Duration":93597,"SoundDuration":93597,"Delta":496016255},{"NoteNumber":84,"Velocity":95,"Duration":93459,"SoundDuration":93459,"Delta":496109853},{"NoteNumber":83,"Velocity":84,"Duration":93167,"SoundDuration":93167,"Delta":496203313},{"NoteNumber":84,"Velocity":84,"Duration":96593,"SoundDuration":96593,"Delta":496296480},{"NoteNumber":48,"Velocity":60,"Duration":144890,"SoundDuration":144890,"Delta":496296480},{"NoteNumber":42,"Velocity":60,"Duration":144890,"SoundDuration":144890,"Delta":496296480},{"NoteNumber":45,"Velocity":60,"Duration":144890,"SoundDuration":144890,"Delta":496296480},{"NoteNumber":50,"Velocity":73,"Duration":144890,"SoundDuration":144890,"Delta":496296480},{"NoteNumber":81,"Velocity":86,"Duration":96593,"SoundDuration":96593,"Delta":496393074},{"NoteNumber":67,"Velocity":87,"Duration":93475,"SoundDuration":93475,"Delta":496489667},{"NoteNumber":79,"Velocity":103,"Duration":93475,"SoundDuration":93475,"Delta":496489667},{"NoteNumber":43,"Velocity":78,"Duration":93475,"SoundDuration":93475,"Delta":496489667},{"NoteNumber":48,"Velocity":70,"Duration":93475,"SoundDuration":93475,"Delta":496583143},{"NoteNumber":67,"Velocity":73,"Duration":93475,"SoundDuration":93475,"Delta":496676618},{"NoteNumber":79,"Velocity":87,"Duration":93475,"SoundDuration":93475,"Delta":496676618},{"NoteNumber":52,"Velocity":70,"Duration":93475,"SoundDuration":93475,"Delta":496676618},{"NoteNumber":55,"Velocity":70,"Duration":93475,"SoundDuration":93475,"Delta":496770094},{"NoteNumber":64,"Velocity":74,"Duration":94696,"SoundDuration":94696,"Delta":496863569},{"NoteNumber":76,"Velocity":88,"Duration":94696,"SoundDuration":94696,"Delta":496863569},{"NoteNumber":43,"Velocity":77,"Duration":94696,"SoundDuration":94696,"Delta":496863569},{"NoteNumber":48,"Velocity":70,"Duration":94696,"SoundDuration":94696,"Delta":496958266},{"NoteNumber":60,"Velocity":73,"Duration":94696,"SoundDuration":94696,"Delta":497052963},{"NoteNumber":72,"Velocity":87,"Duration":94696,"SoundDuration":94696,"Delta":497052963},{"NoteNumber":52,"Velocity":70,"Duration":94696,"SoundDuration":94696,"Delta":497052963},{"NoteNumber":55,"Velocity":70,"Duration":94696,"SoundDuration":94696,"Delta":497147660},{"NoteNumber":72,"Velocity":87,"Duration":93475,"SoundDuration":93475,"Delta":497242357},{"NoteNumber":84,"Velocity":103,"Duration":93475,"SoundDuration":93475,"Delta":497242357},{"NoteNumber":43,"Velocity":75,"Duration":93475,"SoundDuration":93475,"Delta":497242357},{"NoteNumber":48,"Velocity":70,"Duration":93475,"SoundDuration":93475,"Delta":497335833},{"NoteNumber":72,"Velocity":73,"Duration":93475,"SoundDuration":93475,"Delta":497429308},{"NoteNumber":84,"Velocity":87,"Duration":93475,"SoundDuration":93475,"Delta":497429308},{"NoteNumber":52,"Velocity":70,"Duration":93475,"SoundDuration":93475,"Delta":497429308},{"NoteNumber":55,"Velocity":70,"Duration":93475,"SoundDuration":93475,"Delta":497522784},{"NoteNumber":67,"Velocity":73,"Duration":95322,"SoundDuration":95322,"Delta":497616259},{"NoteNumber":79,"Velocity":87,"Duration":95322,"SoundDuration":95322,"Delta":497616259},{"NoteNumber":43,"Velocity":75,"Duration":95322,"SoundDuration":95322,"Delta":497616259},{"NoteNumber":48,"Velocity":70,"Duration":95322,"SoundDuration":95322,"Delta":497711582},{"NoteNumber":64,"Velocity":73,"Duration":95322,"SoundDuration":95322,"Delta":497806905},{"NoteNumber":76,"Velocity":87,"Duration":95322,"SoundDuration":95322,"Delta":497806905},{"NoteNumber":52,"Velocity":70,"Duration":95322,"SoundDuration":95322,"Delta":497806905},{"NoteNumber":55,"Velocity":70,"Duration":94707,"SoundDuration":94707,"Delta":497902228},{"NoteNumber":67,"Velocity":87,"Duration":93475,"SoundDuration":93475,"Delta":497996935},{"NoteNumber":79,"Velocity":103,"Duration":93475,"SoundDuration":93475,"Delta":497996935},{"NoteNumber":43,"Velocity":78,"Duration":93475,"SoundDuration":93475,"Delta":497996935},{"NoteNumber":48,"Velocity":70,"Duration":93475,"SoundDuration":93475,"Delta":498090410},{"NoteNumber":67,"Velocity":73,"Duration":93475,"SoundDuration":93475,"Delta":498183886},{"NoteNumber":79,"Velocity":87,"Duration":93475,"SoundDuration":93475,"Delta":498183886},{"NoteNumber":52,"Velocity":70,"Duration":93475,"SoundDuration":93475,"Delta":498183886},{"NoteNumber":55,"Velocity":70,"Duration":93475,"SoundDuration":93475,"Delta":498277361},{"NoteNumber":64,"Velocity":74,"Duration":94393,"SoundDuration":94393,"Delta":498370837},{"NoteNumber":76,"Velocity":88,"Duration":94393,"SoundDuration":94393,"Delta":498370837},{"NoteNumber":43,"Velocity":77,"Duration":94393,"SoundDuration":94393,"Delta":498370837},{"NoteNumber":48,"Velocity":70,"Duration":94392,"SoundDuration":94392,"Delta":498465230},{"NoteNumber":60,"Velocity":73,"Duration":94393,"SoundDuration":94393,"Delta":498559623},{"NoteNumber":72,"Velocity":87,"Duration":94393,"SoundDuration":94393,"Delta":498559623},{"NoteNumber":52,"Velocity":70,"Duration":94393,"SoundDuration":94393,"Delta":498559623},{"NoteNumber":55,"Velocity":70,"Duration":94392,"SoundDuration":94392,"Delta":498654016},{"NoteNumber":72,"Velocity":87,"Duration":93475,"SoundDuration":93475,"Delta":498748409},{"NoteNumber":84,"Velocity":103,"Duration":93475,"SoundDuration":93475,"Delta":498748409},{"NoteNumber":52,"Velocity":75,"Duration":93475,"SoundDuration":93475,"Delta":498748409},{"NoteNumber":72,"Velocity":73,"Duration":93475,"SoundDuration":93475,"Delta":498935360},{"NoteNumber":84,"Velocity":87,"Duration":93475,"SoundDuration":93475,"Delta":498935360},{"NoteNumber":52,"Velocity":70,"Duration":93475,"SoundDuration":93475,"Delta":498935360},{"NoteNumber":67,"Velocity":73,"Duration":94696,"SoundDuration":94696,"Delta":499122311},{"NoteNumber":79,"Velocity":87,"Duration":94696,"SoundDuration":94696,"Delta":499122311},{"NoteNumber":48,"Velocity":75,"Duration":94696,"SoundDuration":94696,"Delta":499122311},{"NoteNumber":64,"Velocity":73,"Duration":94696,"SoundDuration":94696,"Delta":499311705},{"NoteNumber":76,"Velocity":87,"Duration":94696,"SoundDuration":94696,"Delta":499311705},{"NoteNumber":43,"Velocity":70,"Duration":94696,"SoundDuration":94696,"Delta":499311705},{"NoteNumber":55,"Velocity":86,"Duration":93704,"SoundDuration":93704,"Delta":499501099},{"NoteNumber":84,"Velocity":47,"Duration":93604,"SoundDuration":93604,"Delta":499594803},{"NoteNumber":88,"Velocity":50,"Duration":92633,"SoundDuration":92633,"Delta":499688407},{"NoteNumber":52,"Velocity":47,"Duration":93409,"SoundDuration":93409,"Delta":499688407},{"NoteNumber":84,"Velocity":47,"Duration":93167,"SoundDuration":93167,"Delta":499781816},{"NoteNumber":91,"Velocity":51,"Duration":92105,"SoundDuration":92105,"Delta":499874984},{"NoteNumber":60,"Velocity":53,"Duration":92879,"SoundDuration":92879,"Delta":499874984},{"NoteNumber":88,"Velocity":47,"Duration":92688,"SoundDuration":92688,"Delta":499967863},{"NoteNumber":91,"Velocity":50,"Duration":91728,"SoundDuration":91728,"Delta":500060551},{"NoteNumber":55,"Velocity":48,"Duration":92497,"SoundDuration":92497,"Delta":500060551},{"NoteNumber":88,"Velocity":47,"Duration":92260,"SoundDuration":92260,"Delta":500153049},{"NoteNumber":91,"Velocity":51,"Duration":91809,"SoundDuration":91809,"Delta":500245310},{"NoteNumber":64,"Velocity":52,"Duration":92581,"SoundDuration":92581,"Delta":500245310},{"NoteNumber":88,"Velocity":47,"Duration":92581,"SoundDuration":92581,"Delta":500337891},{"NoteNumber":91,"Velocity":50,"Duration":91809,"SoundDuration":91809,"Delta":500430472},{"NoteNumber":60,"Velocity":41,"Duration":92581,"SoundDuration":92581,"Delta":500430472},{"NoteNumber":88,"Velocity":47,"Duration":92581,"SoundDuration":92581,"Delta":500523053},{"NoteNumber":91,"Velocity":52,"Duration":91809,"SoundDuration":91809,"Delta":500615635},{"NoteNumber":67,"Velocity":50,"Duration":92581,"SoundDuration":92581,"Delta":500615635},{"NoteNumber":88,"Velocity":47,"Duration":92581,"SoundDuration":92581,"Delta":500708216},{"NoteNumber":91,"Velocity":51,"Duration":91809,"SoundDuration":91809,"Delta":500800797},{"NoteNumber":64,"Velocity":41,"Duration":92581,"SoundDuration":92581,"Delta":500800797},{"NoteNumber":88,"Velocity":47,"Duration":92581,"SoundDuration":92581,"Delta":500893378},{"NoteNumber":91,"Velocity":50,"Duration":92199,"SoundDuration":92199,"Delta":500985960},{"NoteNumber":72,"Velocity":50,"Duration":92976,"SoundDuration":92976,"Delta":500985960},{"NoteNumber":88,"Velocity":47,"Duration":93173,"SoundDuration":93173,"Delta":501078936},{"NoteNumber":91,"Velocity":50,"Duration":92397,"SoundDuration":92397,"Delta":501172109},{"NoteNumber":67,"Velocity":41,"Duration":93173,"SoundDuration":93173,"Delta":501172109},{"NoteNumber":88,"Velocity":47,"Duration":93173,"SoundDuration":93173,"Delta":501265283},{"NoteNumber":91,"Velocity":51,"Duration":92397,"SoundDuration":92397,"Delta":501358456},{"NoteNumber":76,"Velocity":50,"Duration":93173,"SoundDuration":93173,"Delta":501358456},{"NoteNumber":88,"Velocity":47,"Duration":93173,"SoundDuration":93173,"Delta":501451630},{"NoteNumber":91,"Velocity":50,"Duration":92397,"SoundDuration":92397,"Delta":501544803},{"NoteNumber":72,"Velocity":39,"Duration":93173,"SoundDuration":93173,"Delta":501544803},{"NoteNumber":88,"Velocity":47,"Duration":93173,"SoundDuration":93173,"Delta":501637977},{"NoteNumber":91,"Velocity":51,"Duration":92397,"SoundDuration":92397,"Delta":501731150},{"NoteNumber":79,"Velocity":50,"Duration":93173,"SoundDuration":93173,"Delta":501731150},{"NoteNumber":88,"Velocity":47,"Duration":93374,"SoundDuration":93374,"Delta":501824324},{"NoteNumber":91,"Velocity":50,"Duration":92896,"SoundDuration":92896,"Delta":501917699},{"NoteNumber":76,"Velocity":41,"Duration":93678,"SoundDuration":93678,"Delta":501917699},{"NoteNumber":88,"Velocity":47,"Duration":93983,"SoundDuration":93983,"Delta":502011377},{"NoteNumber":91,"Velocity":52,"Duration":93503,"SoundDuration":93503,"Delta":502105360},{"NoteNumber":84,"Velocity":50,"Duration":94290,"SoundDuration":94290,"Delta":502105360},{"NoteNumber":88,"Velocity":47,"Duration":94595,"SoundDuration":94595,"Delta":502199650},{"NoteNumber":91,"Velocity":51,"Duration":94113,"SoundDuration":94113,"Delta":502294246},{"NoteNumber":79,"Velocity":42,"Duration":94904,"SoundDuration":94904,"Delta":502294246},{"NoteNumber":88,"Velocity":47,"Duration":95218,"SoundDuration":95218,"Delta":502389151},{"NoteNumber":83,"Velocity":46,"Duration":94091,"SoundDuration":94091,"Delta":502484369},{"NoteNumber":89,"Velocity":42,"Duration":93475,"SoundDuration":93475,"Delta":502578460},{"NoteNumber":91,"Velocity":45,"Duration":140213,"SoundDuration":140213,"Delta":502671936},{"NoteNumber":79,"Velocity":37,"Duration":93475,"SoundDuration":93475,"Delta":502671936},{"NoteNumber":89,"Velocity":41,"Duration":93374,"SoundDuration":93374,"Delta":502765411},{"NoteNumber":92,"Velocity":44,"Duration":139760,"SoundDuration":139760,"Delta":502858786},{"NoteNumber":83,"Velocity":43,"Duration":93173,"SoundDuration":93173,"Delta":502858786},{"NoteNumber":89,"Velocity":40,"Duration":93075,"SoundDuration":93075,"Delta":502951959},{"NoteNumber":91,"Velocity":42,"Duration":139318,"SoundDuration":139318,"Delta":503045035},{"NoteNumber":79,"Velocity":36,"Duration":92879,"SoundDuration":92879,"Delta":503045035},{"NoteNumber":89,"Velocity":39,"Duration":92779,"SoundDuration":92779,"Delta":503137914},{"NoteNumber":92,"Velocity":42,"Duration":137206,"SoundDuration":137206,"Delta":503230694},{"NoteNumber":83,"Velocity":41,"Duration":91935,"SoundDuration":91935,"Delta":503230694},{"NoteNumber":89,"Velocity":38,"Duration":90957,"SoundDuration":90957,"Delta":503322629},{"NoteNumber":91,"Velocity":40,"Duration":137806,"SoundDuration":137806,"Delta":503413587},{"NoteNumber":79,"Velocity":32,"Duration":92213,"SoundDuration":92213,"Delta":503413587},{"NoteNumber":89,"Velocity":37,"Duration":91418,"SoundDuration":91418,"Delta":503505800},{"NoteNumber":92,"Velocity":40,"Duration":136735,"SoundDuration":136735,"Delta":503597218},{"NoteNumber":83,"Velocity":39,"Duration":91280,"SoundDuration":91280,"Delta":503597218},{"NoteNumber":89,"Velocity":36,"Duration":91048,"SoundDuration":91048,"Delta":503688499},{"NoteNumber":91,"Velocity":39,"Duration":137342,"SoundDuration":137342,"Delta":503779547},{"NoteNumber":79,"Velocity":31,"Duration":91979,"SoundDuration":91979,"Delta":503779547},{"NoteNumber":89,"Velocity":35,"Duration":90273,"SoundDuration":90273,"Delta":503871527},{"NoteNumber":92,"Velocity":37,"Duration":135735,"SoundDuration":135735,"Delta":503961800},{"NoteNumber":83,"Velocity":36,"Duration":89910,"SoundDuration":89910,"Delta":503961800},{"NoteNumber":89,"Velocity":34,"Duration":91417,"SoundDuration":91417,"Delta":504051711},{"NoteNumber":91,"Velocity":36,"Duration":134552,"SoundDuration":134552,"Delta":504143128},{"NoteNumber":79,"Velocity":30,"Duration":89686,"SoundDuration":89686,"Delta":504143128},{"NoteNumber":89,"Velocity":34,"Duration":90413,"SoundDuration":90413,"Delta":504232815},{"NoteNumber":92,"Velocity":37,"Duration":136237,"SoundDuration":136237,"Delta":504323228},{"NoteNumber":83,"Velocity":36,"Duration":91327,"SoundDuration":91327,"Delta":504323228},{"NoteNumber":89,"Velocity":34,"Duration":90230,"SoundDuration":90230,"Delta":504414555},{"NoteNumber":91,"Velocity":36,"Duration":137950,"SoundDuration":137950,"Delta":504504786},{"NoteNumber":79,"Velocity":31,"Duration":91903,"SoundDuration":91903,"Delta":504504786},{"NoteNumber":89,"Velocity":34,"Duration":92337,"SoundDuration":92337,"Delta":504596690},{"NoteNumber":92,"Velocity":37,"Duration":139760,"SoundDuration":139760,"Delta":504689027},{"NoteNumber":83,"Velocity":36,"Duration":93173,"SoundDuration":93173,"Delta":504689027},{"NoteNumber":89,"Velocity":34,"Duration":93274,"SoundDuration":93274,"Delta":504782200},{"NoteNumber":91,"Velocity":36,"Duration":140365,"SoundDuration":140365,"Delta":504875474},{"NoteNumber":79,"Velocity":29,"Duration":93475,"SoundDuration":93475,"Delta":504875474},{"NoteNumber":89,"Velocity":34,"Duration":93779,"SoundDuration":93779,"Delta":504968950},{"NoteNumber":92,"Velocity":38,"Duration":141025,"SoundDuration":141025,"Delta":505062729},{"NoteNumber":83,"Velocity":36,"Duration":93983,"SoundDuration":93983,"Delta":505062729},{"NoteNumber":89,"Velocity":34,"Duration":94187,"SoundDuration":94187,"Delta":505156712},{"NoteNumber":91,"Velocity":37,"Duration":141741,"SoundDuration":141741,"Delta":505250900},{"NoteNumber":79,"Velocity":30,"Duration":94392,"SoundDuration":94392,"Delta":505250900},{"NoteNumber":89,"Velocity":34,"Duration":94251,"SoundDuration":94251,"Delta":505345293},{"NoteNumber":93,"Velocity":37,"Duration":95266,"SoundDuration":95266,"Delta":505439545},{"NoteNumber":83,"Velocity":37,"Duration":63594,"SoundDuration":63594,"Delta":505439545},{"NoteNumber":84,"Velocity":32,"Duration":63594,"SoundDuration":63594,"Delta":505503140},{"NoteNumber":89,"Velocity":34,"Duration":94867,"SoundDuration":94867,"Delta":505534811},{"NoteNumber":83,"Velocity":36,"Duration":62943,"SoundDuration":62943,"Delta":505566734},{"NoteNumber":91,"Velocity":36,"Duration":94466,"SoundDuration":94466,"Delta":505629678},{"NoteNumber":84,"Velocity":31,"Duration":62795,"SoundDuration":62795,"Delta":505629678},{"NoteNumber":83,"Velocity":36,"Duration":63366,"SoundDuration":63366,"Delta":505692474},{"NoteNumber":89,"Velocity":35,"Duration":93954,"SoundDuration":93954,"Delta":505724145},{"NoteNumber":84,"Velocity":33,"Duration":62259,"SoundDuration":62259,"Delta":505755840},{"NoteNumber":93,"Velocity":38,"Duration":93684,"SoundDuration":93684,"Delta":505818100},{"NoteNumber":83,"Velocity":37,"Duration":62138,"SoundDuration":62138,"Delta":505818100},{"NoteNumber":84,"Velocity":33,"Duration":63216,"SoundDuration":63216,"Delta":505880238},{"NoteNumber":89,"Velocity":36,"Duration":94371,"SoundDuration":94371,"Delta":505911784},{"NoteNumber":83,"Velocity":37,"Duration":62700,"SoundDuration":62700,"Delta":505943455},{"NoteNumber":91,"Velocity":38,"Duration":94171,"SoundDuration":94171,"Delta":506006155},{"NoteNumber":84,"Velocity":33,"Duration":62600,"SoundDuration":62600,"Delta":506006155},{"NoteNumber":83,"Velocity":38,"Duration":62772,"SoundDuration":62772,"Delta":506068756},{"NoteNumber":89,"Velocity":36,"Duration":93267,"SoundDuration":93267,"Delta":506100327},{"NoteNumber":84,"Velocity":34,"Duration":62065,"SoundDuration":62065,"Delta":506131528},{"NoteNumber":93,"Velocity":40,"Duration":93998,"SoundDuration":93998,"Delta":506193594},{"NoteNumber":83,"Velocity":38,"Duration":62918,"SoundDuration":62918,"Delta":506193594},{"NoteNumber":84,"Velocity":35,"Duration":61873,"SoundDuration":61873,"Delta":506256512},{"NoteNumber":89,"Velocity":37,"Duration":93418,"SoundDuration":93418,"Delta":506287593},{"NoteNumber":83,"Velocity":39,"Duration":62625,"SoundDuration":62625,"Delta":506318386},{"NoteNumber":91,"Velocity":40,"Duration":93369,"SoundDuration":93369,"Delta":506381011},{"NoteNumber":84,"Velocity":35,"Duration":62576,"SoundDuration":62576,"Delta":506381011},{"NoteNumber":83,"Velocity":39,"Duration":61468,"SoundDuration":61468,"Delta":506443587},{"NoteNumber":89,"Velocity":38,"Duration":92911,"SoundDuration":92911,"Delta":506474380},{"NoteNumber":84,"Velocity":36,"Duration":62237,"SoundDuration":62237,"Delta":506505055},{"NoteNumber":93,"Velocity":43,"Duration":93948,"SoundDuration":93948,"Delta":506567292},{"NoteNumber":83,"Velocity":40,"Duration":62868,"SoundDuration":62868,"Delta":506567292},{"NoteNumber":84,"Velocity":36,"Duration":61873,"SoundDuration":61873,"Delta":506630161},{"NoteNumber":89,"Velocity":39,"Duration":93271,"SoundDuration":93271,"Delta":506661241},{"NoteNumber":83,"Velocity":40,"Duration":62478,"SoundDuration":62478,"Delta":506692034},{"NoteNumber":91,"Velocity":43,"Duration":93196,"SoundDuration":93196,"Delta":506754512},{"NoteNumber":84,"Velocity":36,"Duration":62355,"SoundDuration":62355,"Delta":506754512},{"NoteNumber":83,"Velocity":41,"Duration":61633,"SoundDuration":61633,"Delta":506816868},{"NoteNumber":89,"Velocity":40,"Duration":92594,"SoundDuration":92594,"Delta":506847708},{"NoteNumber":84,"Velocity":37,"Duration":61800,"SoundDuration":61800,"Delta":506878502},{"NoteNumber":93,"Velocity":44,"Duration":93347,"SoundDuration":93347,"Delta":506940303},{"NoteNumber":83,"Velocity":41,"Duration":61900,"SoundDuration":61900,"Delta":506940303},{"NoteNumber":84,"Velocity":36,"Duration":62503,"SoundDuration":62503,"Delta":507002203},{"NoteNumber":83,"Velocity":42,"Duration":60952,"SoundDuration":60952,"Delta":507064706},{"NoteNumber":89,"Velocity":43,"Duration":93560,"SoundDuration":93560,"Delta":507125659},{"NoteNumber":91,"Velocity":43,"Duration":93560,"SoundDuration":93560,"Delta":507125659},{"NoteNumber":84,"Velocity":37,"Duration":62114,"SoundDuration":62114,"Delta":507125659},{"NoteNumber":83,"Velocity":42,"Duration":62502,"SoundDuration":62502,"Delta":507187774},{"NoteNumber":84,"Velocity":37,"Duration":61681,"SoundDuration":61681,"Delta":507250276},{"NoteNumber":89,"Velocity":46,"Duration":93899,"SoundDuration":93899,"Delta":507311957},{"NoteNumber":91,"Velocity":46,"Duration":93899,"SoundDuration":93899,"Delta":507311957},{"NoteNumber":83,"Velocity":43,"Duration":62575,"SoundDuration":62575,"Delta":507311957},{"NoteNumber":84,"Velocity":38,"Duration":62235,"SoundDuration":62235,"Delta":507374533},{"NoteNumber":83,"Velocity":43,"Duration":61540,"SoundDuration":61540,"Delta":507436769},{"NoteNumber":89,"Velocity":46,"Duration":93316,"SoundDuration":93316,"Delta":507498310},{"NoteNumber":91,"Velocity":46,"Duration":93316,"SoundDuration":93316,"Delta":507498310},{"NoteNumber":84,"Velocity":39,"Duration":62475,"SoundDuration":62475,"Delta":507498310},{"NoteNumber":83,"Velocity":44,"Duration":61282,"SoundDuration":61282,"Delta":507560785},{"NoteNumber":84,"Velocity":39,"Duration":61920,"SoundDuration":61920,"Delta":507622067},{"NoteNumber":89,"Velocity":49,"Duration":93295,"SoundDuration":93295,"Delta":507683988},{"NoteNumber":91,"Velocity":49,"Duration":93295,"SoundDuration":93295,"Delta":507683988},{"NoteNumber":83,"Velocity":44,"Duration":62526,"SoundDuration":62526,"Delta":507683988},{"NoteNumber":84,"Velocity":38,"Duration":61611,"SoundDuration":61611,"Delta":507746514},{"NoteNumber":83,"Velocity":45,"Duration":62573,"SoundDuration":62573,"Delta":507808125},{"NoteNumber":89,"Velocity":49,"Duration":92642,"SoundDuration":92642,"Delta":507870699},{"NoteNumber":91,"Velocity":49,"Duration":92642,"SoundDuration":92642,"Delta":507870699},{"NoteNumber":84,"Velocity":38,"Duration":61705,"SoundDuration":61705,"Delta":507870699},{"NoteNumber":83,"Velocity":45,"Duration":62359,"SoundDuration":62359,"Delta":507932404},{"NoteNumber":84,"Velocity":40,"Duration":62041,"SoundDuration":62041,"Delta":507994763},{"NoteNumber":89,"Velocity":54,"Duration":92901,"SoundDuration":92901,"Delta":508056805},{"NoteNumber":91,"Velocity":54,"Duration":92901,"SoundDuration":92901,"Delta":508056805},{"NoteNumber":83,"Velocity":50,"Duration":74384,"SoundDuration":74384,"Delta":508056805},{"NoteNumber":84,"Velocity":44,"Duration":74663,"SoundDuration":74663,"Delta":508131189},{"NoteNumber":83,"Velocity":50,"Duration":76261,"SoundDuration":76261,"Delta":508205853},{"NoteNumber":89,"Velocity":53,"Duration":96599,"SoundDuration":96599,"Delta":508243795},{"NoteNumber":91,"Velocity":53,"Duration":96599,"SoundDuration":96599,"Delta":508243795},{"NoteNumber":81,"Velocity":52,"Duration":78404,"SoundDuration":78404,"Delta":508282114},{"NoteNumber":83,"Velocity":47,"Duration":80493,"SoundDuration":80493,"Delta":508360518},{"NoteNumber":84,"Velocity":82,"Duration":1142285,"SoundDuration":1142285,"Delta":508441012},{"NoteNumber":60,"Velocity":52,"Duration":3018335,"SoundDuration":3018335,"Delta":508441012},{"NoteNumber":72,"Velocity":62,"Duration":768383,"SoundDuration":768383,"Delta":508441012},{"NoteNumber":64,"Velocity":38,"Duration":747803,"SoundDuration":747803,"Delta":509209395},{"NoteNumber":67,"Velocity":38,"Duration":747803,"SoundDuration":747803,"Delta":509209395},{"NoteNumber":70,"Velocity":45,"Duration":747803,"SoundDuration":747803,"Delta":509209395},{"NoteNumber":84,"Velocity":58,"Duration":93475,"SoundDuration":93475,"Delta":509583297},{"NoteNumber":82,"Velocity":57,"Duration":93475,"SoundDuration":93475,"Delta":509676773},{"NoteNumber":80,"Velocity":56,"Duration":93475,"SoundDuration":93475,"Delta":509770248},{"NoteNumber":79,"Velocity":55,"Duration":93475,"SoundDuration":93475,"Delta":509863724},{"NoteNumber":80,"Velocity":58,"Duration":93475,"SoundDuration":93475,"Delta":509957199},{"NoteNumber":65,"Velocity":39,"Duration":753227,"SoundDuration":753227,"Delta":509957199},{"NoteNumber":68,"Velocity":47,"Duration":753227,"SoundDuration":753227,"Delta":509957199},{"NoteNumber":79,"Velocity":57,"Duration":93475,"SoundDuration":93475,"Delta":510050675},{"NoteNumber":77,"Velocity":56,"Duration":93475,"SoundDuration":93475,"Delta":510144150},{"NoteNumber":76,"Velocity":55,"Duration":93475,"SoundDuration":93475,"Delta":510237626},{"NoteNumber":77,"Velocity":51,"Duration":93475,"SoundDuration":93475,"Delta":510331101},{"NoteNumber":79,"Velocity":52,"Duration":93475,"SoundDuration":93475,"Delta":510424577},{"NoteNumber":80,"Velocity":53,"Duration":93475,"SoundDuration":93475,"Delta":510518052},{"NoteNumber":82,"Velocity":54,"Duration":98899,"SoundDuration":98899,"Delta":510611528},{"NoteNumber":84,"Velocity":56,"Duration":93475,"SoundDuration":93475,"Delta":510710427},{"NoteNumber":64,"Velocity":39,"Duration":748919,"SoundDuration":748919,"Delta":510710427},{"NoteNumber":67,"Velocity":39,"Duration":748919,"SoundDuration":748919,"Delta":510710427},{"NoteNumber":70,"Velocity":46,"Duration":748919,"SoundDuration":748919,"Delta":510710427},{"NoteNumber":85,"Velocity":57,"Duration":93475,"SoundDuration":93475,"Delta":510803902},{"NoteNumber":84,"Velocity":57,"Duration":93475,"SoundDuration":93475,"Delta":510897378},{"NoteNumber":83,"Velocity":56,"Duration":93475,"SoundDuration":93475,"Delta":510990853},{"NoteNumber":84,"Velocity":56,"Duration":93475,"SoundDuration":93475,"Delta":511084329},{"NoteNumber":82,"Velocity":56,"Duration":93677,"SoundDuration":93677,"Delta":511177804},{"NoteNumber":80,"Velocity":56,"Duration":93779,"SoundDuration":93779,"Delta":511271482},{"NoteNumber":79,"Velocity":56,"Duration":94085,"SoundDuration":94085,"Delta":511365262},{"NoteNumber":80,"Velocity":57,"Duration":94187,"SoundDuration":94187,"Delta":511459347},{"NoteNumber":68,"Velocity":48,"Duration":377873,"SoundDuration":377873,"Delta":511459347},{"NoteNumber":65,"Velocity":40,"Duration":377873,"SoundDuration":377873,"Delta":511459347},{"NoteNumber":82,"Velocity":57,"Duration":94392,"SoundDuration":94392,"Delta":511553535},{"NoteNumber":80,"Velocity":57,"Duration":94595,"SoundDuration":94595,"Delta":511647928},{"NoteNumber":79,"Velocity":53,"Duration":94697,"SoundDuration":94697,"Delta":511742523},{"NoteNumber":77,"Velocity":56,"Duration":95008,"SoundDuration":95008,"Delta":511837220},{"NoteNumber":76,"Velocity":52,"Duration":95113,"SoundDuration":95113,"Delta":511932229},{"NoteNumber":77,"Velocity":56,"Duration":95322,"SoundDuration":95322,"Delta":512027343},{"NoteNumber":79,"Velocity":52,"Duration":95322,"SoundDuration":95322,"Delta":512122665},{"NoteNumber":68,"Velocity":45,"Duration":783965,"SoundDuration":783965,"Delta":512217988},{"NoteNumber":80,"Velocity":59,"Duration":388954,"SoundDuration":388954,"Delta":512217988},{"NoteNumber":65,"Velocity":47,"Duration":783965,"SoundDuration":783965,"Delta":512217988},{"NoteNumber":61,"Velocity":39,"Duration":783965,"SoundDuration":783965,"Delta":512217988},{"NoteNumber":56,"Velocity":39,"Duration":783965,"SoundDuration":783965,"Delta":512217988},{"NoteNumber":53,"Velocity":39,"Duration":783965,"SoundDuration":783965,"Delta":512217988},{"NoteNumber":77,"Velocity":52,"Duration":194477,"SoundDuration":194477,"Delta":512606942},{"NoteNumber":73,"Velocity":52,"Duration":200534,"SoundDuration":200534,"Delta":512801419},{"NoteNumber":67,"Velocity":45,"Duration":784665,"SoundDuration":784665,"Delta":513001954},{"NoteNumber":79,"Velocity":57,"Duration":388954,"SoundDuration":388954,"Delta":513001954},{"NoteNumber":60,"Velocity":39,"Duration":784665,"SoundDuration":784665,"Delta":513001954},{"NoteNumber":55,"Velocity":39,"Duration":784665,"SoundDuration":784665,"Delta":513001954},{"NoteNumber":63,"Velocity":46,"Duration":784665,"SoundDuration":784665,"Delta":513001954},{"NoteNumber":75,"Velocity":52,"Duration":194477,"SoundDuration":194477,"Delta":513390908},{"NoteNumber":72,"Velocity":52,"Duration":201233,"SoundDuration":201233,"Delta":513585385},{"NoteNumber":65,"Velocity":45,"Duration":780537,"SoundDuration":780537,"Delta":513786619},{"NoteNumber":77,"Velocity":57,"Duration":390268,"SoundDuration":390268,"Delta":513786619},{"NoteNumber":55,"Velocity":37,"Duration":780537,"SoundDuration":780537,"Delta":513786619},{"NoteNumber":59,"Velocity":37,"Duration":780537,"SoundDuration":780537,"Delta":513786619},{"NoteNumber":62,"Velocity":44,"Duration":780537,"SoundDuration":780537,"Delta":513786619},{"NoteNumber":74,"Velocity":52,"Duration":195134,"SoundDuration":195134,"Delta":514176888},{"NoteNumber":71,"Velocity":52,"Duration":195134,"SoundDuration":195134,"Delta":514372023},{"NoteNumber":72,"Velocity":72,"Duration":1140300,"SoundDuration":1140300,"Delta":514567157},{"NoteNumber":60,"Velocity":56,"Duration":767606,"SoundDuration":767606,"Delta":514567157},{"NoteNumber":48,"Velocity":45,"Duration":3009820,"SoundDuration":3009820,"Delta":514567157},{"NoteNumber":52,"Velocity":38,"Duration":745388,"SoundDuration":745388,"Delta":515334763},{"NoteNumber":55,"Velocity":38,"Duration":745388,"SoundDuration":745388,"Delta":515334763},{"NoteNumber":58,"Velocity":45,"Duration":745388,"SoundDuration":745388,"Delta":515334763},{"NoteNumber":72,"Velocity":58,"Duration":93173,"SoundDuration":93173,"Delta":515707457},{"NoteNumber":70,"Velocity":57,"Duration":93173,"SoundDuration":93173,"Delta":515800631},{"NoteNumber":69,"Velocity":56,"Duration":93173,"SoundDuration":93173,"Delta":515893804},{"NoteNumber":67,"Velocity":55,"Duration":93173,"SoundDuration":93173,"Delta":515986978},{"NoteNumber":69,"Velocity":58,"Duration":93173,"SoundDuration":93173,"Delta":516080151},{"NoteNumber":53,"Velocity":39,"Duration":751113,"SoundDuration":751113,"Delta":516080151},{"NoteNumber":57,"Velocity":47,"Duration":751113,"SoundDuration":751113,"Delta":516080151},{"NoteNumber":67,"Velocity":57,"Duration":93173,"SoundDuration":93173,"Delta":516173325},{"NoteNumber":65,"Velocity":56,"Duration":93173,"SoundDuration":93173,"Delta":516266498},{"NoteNumber":64,"Velocity":55,"Duration":93173,"SoundDuration":93173,"Delta":516359672},{"NoteNumber":65,"Velocity":51,"Duration":93173,"SoundDuration":93173,"Delta":516452845},{"NoteNumber":67,"Velocity":52,"Duration":93173,"SoundDuration":93173,"Delta":516546019},{"NoteNumber":69,"Velocity":53,"Duration":93173,"SoundDuration":93173,"Delta":516639192},{"NoteNumber":70,"Velocity":54,"Duration":98898,"SoundDuration":98898,"Delta":516732366},{"NoteNumber":72,"Velocity":56,"Duration":93475,"SoundDuration":93475,"Delta":516831265},{"NoteNumber":55,"Velocity":39,"Duration":745713,"SoundDuration":745713,"Delta":516831265},{"NoteNumber":58,"Velocity":46,"Duration":745713,"SoundDuration":745713,"Delta":516831265},{"NoteNumber":52,"Velocity":39,"Duration":745713,"SoundDuration":745713,"Delta":516831265},{"NoteNumber":74,"Velocity":57,"Duration":93475,"SoundDuration":93475,"Delta":516924740},{"NoteNumber":72,"Velocity":57,"Duration":93475,"SoundDuration":93475,"Delta":517018216},{"NoteNumber":71,"Velocity":56,"Duration":93475,"SoundDuration":93475,"Delta":517111691},{"NoteNumber":72,"Velocity":56,"Duration":92581,"SoundDuration":92581,"Delta":517205167},{"NoteNumber":70,"Velocity":56,"Duration":92779,"SoundDuration":92779,"Delta":517297748},{"NoteNumber":69,"Velocity":56,"Duration":93075,"SoundDuration":93075,"Delta":517390528},{"NoteNumber":67,"Velocity":56,"Duration":93374,"SoundDuration":93374,"Delta":517483603},{"NoteNumber":69,"Velocity":57,"Duration":93677,"SoundDuration":93677,"Delta":517576978},{"NoteNumber":53,"Velocity":48,"Duration":376547,"SoundDuration":376547,"Delta":517576978},{"NoteNumber":57,"Velocity":48,"Duration":376547,"SoundDuration":376547,"Delta":517576978},{"NoteNumber":70,"Velocity":57,"Duration":93983,"SoundDuration":93983,"Delta":517670656},{"NoteNumber":69,"Velocity":57,"Duration":94290,"SoundDuration":94290,"Delta":517764639},{"NoteNumber":67,"Velocity":53,"Duration":94595,"SoundDuration":94595,"Delta":517858930},{"NoteNumber":65,"Velocity":56,"Duration":94904,"SoundDuration":94904,"Delta":517953525},{"NoteNumber":64,"Velocity":52,"Duration":95218,"SoundDuration":95218,"Delta":518048430},{"NoteNumber":65,"Velocity":56,"Duration":95533,"SoundDuration":95533,"Delta":518143648},{"NoteNumber":67,"Velocity":52,"Duration":95846,"SoundDuration":95846,"Delta":518239182},{"NoteNumber":57,"Velocity":45,"Duration":782741,"SoundDuration":782741,"Delta":518335028},{"NoteNumber":69,"Velocity":59,"Duration":387671,"SoundDuration":387671,"Delta":518335028},{"NoteNumber":41,"Velocity":39,"Duration":782741,"SoundDuration":782741,"Delta":518335028},{"NoteNumber":50,"Velocity":47,"Duration":782741,"SoundDuration":782741,"Delta":518335028},{"NoteNumber":45,"Velocity":39,"Duration":782741,"SoundDuration":782741,"Delta":518335028},{"NoteNumber":65,"Velocity":52,"Duration":193836,"SoundDuration":193836,"Delta":518722700},{"NoteNumber":62,"Velocity":52,"Duration":201233,"SoundDuration":201233,"Delta":518916536},{"NoteNumber":55,"Velocity":45,"Duration":1567862,"SoundDuration":1567862,"Delta":519117770},{"NoteNumber":67,"Velocity":57,"Duration":388954,"SoundDuration":388954,"Delta":519117770},{"NoteNumber":48,"Velocity":39,"Duration":784665,"SoundDuration":784665,"Delta":519117770},{"NoteNumber":43,"Velocity":39,"Duration":1567862,"SoundDuration":1567862,"Delta":519117770},{"NoteNumber":52,"Velocity":46,"Duration":784665,"SoundDuration":784665,"Delta":519117770},{"NoteNumber":64,"Velocity":52,"Duration":194477,"SoundDuration":194477,"Delta":519506724},{"NoteNumber":60,"Velocity":52,"Duration":201233,"SoundDuration":201233,"Delta":519701201},{"NoteNumber":65,"Velocity":57,"Duration":388954,"SoundDuration":388954,"Delta":519902435},{"NoteNumber":50,"Velocity":37,"Duration":783197,"SoundDuration":783197,"Delta":519902435},{"NoteNumber":53,"Velocity":44,"Duration":783197,"SoundDuration":783197,"Delta":519902435},{"NoteNumber":62,"Velocity":52,"Duration":197122,"SoundDuration":197122,"Delta":520291389},{"NoteNumber":59,"Velocity":52,"Duration":197121,"SoundDuration":197121,"Delta":520488511},{"NoteNumber":55,"Velocity":51,"Duration":402590,"SoundDuration":402590,"Delta":520685633},{"NoteNumber":60,"Velocity":55,"Duration":402590,"SoundDuration":402590,"Delta":520685633},{"NoteNumber":48,"Velocity":37,"Duration":402590,"SoundDuration":402590,"Delta":520685633},{"NoteNumber":52,"Velocity":44,"Duration":402590,"SoundDuration":402590,"Delta":520685633},{"NoteNumber":72,"Velocity":68,"Duration":197122,"SoundDuration":197122,"Delta":521088223},{"NoteNumber":48,"Velocity":51,"Duration":591365,"SoundDuration":591365,"Delta":521088223},{"NoteNumber":40,"Velocity":42,"Duration":394243,"SoundDuration":394243,"Delta":521088223},{"NoteNumber":71,"Velocity":64,"Duration":197121,"SoundDuration":197121,"Delta":521285345},{"NoteNumber":69,"Velocity":66,"Duration":394244,"SoundDuration":394244,"Delta":521482467},{"NoteNumber":41,"Velocity":42,"Duration":795434,"SoundDuration":795434,"Delta":521482467},{"NoteNumber":50,"Velocity":49,"Duration":197122,"SoundDuration":197122,"Delta":521679589},{"NoteNumber":65,"Velocity":61,"Duration":197121,"SoundDuration":197121,"Delta":521876711},{"NoteNumber":52,"Velocity":51,"Duration":197121,"SoundDuration":197121,"Delta":521876711},{"NoteNumber":62,"Velocity":54,"Duration":204068,"SoundDuration":204068,"Delta":522073833},{"NoteNumber":53,"Velocity":55,"Duration":204068,"SoundDuration":204068,"Delta":522073833},{"NoteNumber":67,"Velocity":51,"Duration":395595,"SoundDuration":395595,"Delta":522277901},{"NoteNumber":43,"Velocity":35,"Duration":1582384,"SoundDuration":1582384,"Delta":522277901},{"NoteNumber":52,"Velocity":35,"Duration":791192,"SoundDuration":791192,"Delta":522277901},{"NoteNumber":55,"Velocity":41,"Duration":791192,"SoundDuration":791192,"Delta":522277901},{"NoteNumber":64,"Velocity":46,"Duration":197798,"SoundDuration":197798,"Delta":522673497},{"NoteNumber":60,"Velocity":46,"Duration":197798,"SoundDuration":197798,"Delta":522871295},{"NoteNumber":65,"Velocity":51,"Duration":395595,"SoundDuration":395595,"Delta":523069093},{"NoteNumber":50,"Velocity":33,"Duration":791192,"SoundDuration":791192,"Delta":523069093},{"NoteNumber":53,"Velocity":39,"Duration":791192,"SoundDuration":791192,"Delta":523069093},{"NoteNumber":62,"Velocity":46,"Duration":197798,"SoundDuration":197798,"Delta":523464689},{"NoteNumber":59,"Velocity":46,"Duration":197798,"SoundDuration":197798,"Delta":523662487},{"NoteNumber":60,"Velocity":55,"Duration":394557,"SoundDuration":394557,"Delta":523860285},{"NoteNumber":52,"Velocity":44,"Duration":394557,"SoundDuration":394557,"Delta":523860285},{"NoteNumber":48,"Velocity":37,"Duration":394557,"SoundDuration":394557,"Delta":523860285},{"NoteNumber":77,"Velocity":68,"Duration":197798,"SoundDuration":197798,"Delta":524254843},{"NoteNumber":45,"Velocity":42,"Duration":395595,"SoundDuration":395595,"Delta":524254843},{"NoteNumber":53,"Velocity":51,"Duration":593393,"SoundDuration":593393,"Delta":524254843},{"NoteNumber":76,"Velocity":64,"Duration":197797,"SoundDuration":197797,"Delta":524452641},{"NoteNumber":74,"Velocity":66,"Duration":395596,"SoundDuration":395596,"Delta":524650439},{"NoteNumber":46,"Velocity":42,"Duration":799636,"SoundDuration":799636,"Delta":524650439},{"NoteNumber":55,"Velocity":49,"Duration":197798,"SoundDuration":197798,"Delta":524848237},{"NoteNumber":70,"Velocity":61,"Duration":197797,"SoundDuration":197797,"Delta":525046035},{"NoteNumber":57,"Velocity":51,"Duration":197797,"SoundDuration":197797,"Delta":525046035},{"NoteNumber":67,"Velocity":54,"Duration":206242,"SoundDuration":206242,"Delta":525243833},{"NoteNumber":58,"Velocity":55,"Duration":206242,"SoundDuration":206242,"Delta":525243833},{"NoteNumber":72,"Velocity":51,"Duration":396957,"SoundDuration":396957,"Delta":525450075},{"NoteNumber":60,"Velocity":41,"Duration":800227,"SoundDuration":800227,"Delta":525450075},{"NoteNumber":57,"Velocity":35,"Duration":800227,"SoundDuration":800227,"Delta":525450075},{"NoteNumber":48,"Velocity":35,"Duration":1603239,"SoundDuration":1603239,"Delta":525450075},{"NoteNumber":69,"Velocity":46,"Duration":198478,"SoundDuration":198478,"Delta":525847032},{"NoteNumber":65,"Velocity":46,"Duration":204791,"SoundDuration":204791,"Delta":526045511},{"NoteNumber":70,"Velocity":51,"Duration":398326,"SoundDuration":398326,"Delta":526250303},{"NoteNumber":55,"Velocity":33,"Duration":803012,"SoundDuration":803012,"Delta":526250303},{"NoteNumber":58,"Velocity":39,"Duration":803012,"SoundDuration":803012,"Delta":526250303},{"NoteNumber":67,"Velocity":46,"Duration":199163,"SoundDuration":199163,"Delta":526648630},{"NoteNumber":64,"Velocity":46,"Duration":205521,"SoundDuration":205521,"Delta":526847793},{"NoteNumber":65,"Velocity":55,"Duration":412503,"SoundDuration":412503,"Delta":527053315},{"NoteNumber":56,"Velocity":44,"Duration":412503,"SoundDuration":412503,"Delta":527053315},{"NoteNumber":53,"Velocity":37,"Duration":412503,"SoundDuration":412503,"Delta":527053315},{"NoteNumber":77,"Velocity":67,"Duration":197798,"SoundDuration":197798,"Delta":527465818},{"NoteNumber":44,"Velocity":42,"Duration":395595,"SoundDuration":395595,"Delta":527465818},{"NoteNumber":53,"Velocity":51,"Duration":593393,"SoundDuration":593393,"Delta":527465818},{"NoteNumber":75,"Velocity":63,"Duration":197797,"SoundDuration":197797,"Delta":527663616},{"NoteNumber":73,"Velocity":66,"Duration":395596,"SoundDuration":395596,"Delta":527861414},{"NoteNumber":46,"Velocity":42,"Duration":799636,"SoundDuration":799636,"Delta":527861414},{"NoteNumber":55,"Velocity":49,"Duration":197798,"SoundDuration":197798,"Delta":528059212},{"NoteNumber":70,"Velocity":61,"Duration":197797,"SoundDuration":197797,"Delta":528257010},{"NoteNumber":56,"Velocity":51,"Duration":197797,"SoundDuration":197797,"Delta":528257010},{"NoteNumber":67,"Velocity":54,"Duration":206242,"SoundDuration":206242,"Delta":528454808},{"NoteNumber":58,"Velocity":55,"Duration":206242,"SoundDuration":206242,"Delta":528454808},{"NoteNumber":72,"Velocity":51,"Duration":396957,"SoundDuration":396957,"Delta":528661051},{"NoteNumber":48,"Velocity":35,"Duration":1603239,"SoundDuration":1603239,"Delta":528661051},{"NoteNumber":60,"Velocity":41,"Duration":800227,"SoundDuration":800227,"Delta":528661051},{"NoteNumber":56,"Velocity":35,"Duration":800227,"SoundDuration":800227,"Delta":528661051},{"NoteNumber":68,"Velocity":46,"Duration":198478,"SoundDuration":198478,"Delta":529058008},{"NoteNumber":65,"Velocity":46,"Duration":204791,"SoundDuration":204791,"Delta":529256486},{"NoteNumber":70,"Velocity":51,"Duration":398326,"SoundDuration":398326,"Delta":529461278},{"NoteNumber":55,"Velocity":33,"Duration":803012,"SoundDuration":803012,"Delta":529461278},{"NoteNumber":58,"Velocity":39,"Duration":803012,"SoundDuration":803012,"Delta":529461278},{"NoteNumber":67,"Velocity":46,"Duration":199163,"SoundDuration":199163,"Delta":529859605},{"NoteNumber":64,"Velocity":46,"Duration":205521,"SoundDuration":205521,"Delta":530058769},{"NoteNumber":65,"Velocity":40,"Duration":186951,"SoundDuration":186951,"Delta":530264290},{"NoteNumber":49,"Velocity":25,"Duration":93475,"SoundDuration":93475,"Delta":530264290},{"NoteNumber":56,"Velocity":28,"Duration":93475,"SoundDuration":93475,"Delta":530264290},{"NoteNumber":53,"Velocity":25,"Duration":93475,"SoundDuration":93475,"Delta":530264290},{"NoteNumber":49,"Velocity":28,"Duration":93475,"SoundDuration":93475,"Delta":530451241},{"NoteNumber":53,"Velocity":33,"Duration":93475,"SoundDuration":93475,"Delta":530451241},{"NoteNumber":37,"Velocity":22,"Duration":93475,"SoundDuration":93475,"Delta":530451241},{"NoteNumber":44,"Velocity":26,"Duration":93475,"SoundDuration":93475,"Delta":530451241},{"NoteNumber":49,"Velocity":28,"Duration":92879,"SoundDuration":92879,"Delta":530638192},{"NoteNumber":53,"Velocity":33,"Duration":92879,"SoundDuration":92879,"Delta":530638192},{"NoteNumber":44,"Velocity":26,"Duration":92879,"SoundDuration":92879,"Delta":530638192},{"NoteNumber":37,"Velocity":22,"Duration":92879,"SoundDuration":92879,"Delta":530638192},{"NoteNumber":49,"Velocity":28,"Duration":92879,"SoundDuration":92879,"Delta":530823951},{"NoteNumber":53,"Velocity":34,"Duration":92879,"SoundDuration":92879,"Delta":530823951},{"NoteNumber":44,"Velocity":27,"Duration":92879,"SoundDuration":92879,"Delta":530823951},{"NoteNumber":37,"Velocity":22,"Duration":92879,"SoundDuration":92879,"Delta":530823951},{"NoteNumber":49,"Velocity":28,"Duration":93629,"SoundDuration":93629,"Delta":531009709},{"NoteNumber":53,"Velocity":34,"Duration":93629,"SoundDuration":93629,"Delta":531009709},{"NoteNumber":37,"Velocity":22,"Duration":93629,"SoundDuration":93629,"Delta":531009709},{"NoteNumber":44,"Velocity":27,"Duration":93629,"SoundDuration":93629,"Delta":531009709},{"NoteNumber":49,"Velocity":28,"Duration":93779,"SoundDuration":93779,"Delta":531197118},{"NoteNumber":53,"Velocity":34,"Duration":93779,"SoundDuration":93779,"Delta":531197118},{"NoteNumber":44,"Velocity":28,"Duration":93779,"SoundDuration":93779,"Delta":531197118},{"NoteNumber":37,"Velocity":23,"Duration":93779,"SoundDuration":93779,"Delta":531197118},{"NoteNumber":49,"Velocity":29,"Duration":93173,"SoundDuration":93173,"Delta":531384676},{"NoteNumber":53,"Velocity":35,"Duration":93173,"SoundDuration":93173,"Delta":531384676},{"NoteNumber":44,"Velocity":28,"Duration":93173,"SoundDuration":93173,"Delta":531384676},{"NoteNumber":37,"Velocity":23,"Duration":93173,"SoundDuration":93173,"Delta":531384676},{"NoteNumber":49,"Velocity":29,"Duration":93173,"SoundDuration":93173,"Delta":531571023},{"NoteNumber":53,"Velocity":35,"Duration":93173,"SoundDuration":93173,"Delta":531571023},{"NoteNumber":37,"Velocity":24,"Duration":93173,"SoundDuration":93173,"Delta":531571023},{"NoteNumber":44,"Velocity":29,"Duration":93173,"SoundDuration":93173,"Delta":531571023},{"NoteNumber":49,"Velocity":30,"Duration":93374,"SoundDuration":93374,"Delta":531757370},{"NoteNumber":53,"Velocity":36,"Duration":93374,"SoundDuration":93374,"Delta":531757370},{"NoteNumber":37,"Velocity":25,"Duration":93374,"SoundDuration":93374,"Delta":531757370},{"NoteNumber":44,"Velocity":30,"Duration":93374,"SoundDuration":93374,"Delta":531757370},{"NoteNumber":49,"Velocity":30,"Duration":93475,"SoundDuration":93475,"Delta":531944221},{"NoteNumber":53,"Velocity":36,"Duration":93475,"SoundDuration":93475,"Delta":531944221},{"NoteNumber":44,"Velocity":27,"Duration":93475,"SoundDuration":93475,"Delta":531944221},{"NoteNumber":37,"Velocity":22,"Duration":93475,"SoundDuration":93475,"Delta":531944221},{"NoteNumber":49,"Velocity":31,"Duration":93173,"SoundDuration":93173,"Delta":532131172},{"NoteNumber":53,"Velocity":37,"Duration":93173,"SoundDuration":93173,"Delta":532131172},{"NoteNumber":37,"Velocity":23,"Duration":93173,"SoundDuration":93173,"Delta":532131172},{"NoteNumber":44,"Velocity":28,"Duration":93173,"SoundDuration":93173,"Delta":532131172},{"NoteNumber":49,"Velocity":32,"Duration":93173,"SoundDuration":93173,"Delta":532317519},{"NoteNumber":53,"Velocity":38,"Duration":93173,"SoundDuration":93173,"Delta":532317519},{"NoteNumber":44,"Velocity":29,"Duration":93173,"SoundDuration":93173,"Delta":532317519},{"NoteNumber":37,"Velocity":24,"Duration":93173,"SoundDuration":93173,"Delta":532317519},{"NoteNumber":49,"Velocity":33,"Duration":93475,"SoundDuration":93475,"Delta":532503866},{"NoteNumber":53,"Velocity":39,"Duration":93475,"SoundDuration":93475,"Delta":532503866},{"NoteNumber":37,"Velocity":25,"Duration":93475,"SoundDuration":93475,"Delta":532503866},{"NoteNumber":44,"Velocity":30,"Duration":93475,"SoundDuration":93475,"Delta":532503866},{"NoteNumber":49,"Velocity":34,"Duration":93475,"SoundDuration":93475,"Delta":532690817},{"NoteNumber":53,"Velocity":40,"Duration":93475,"SoundDuration":93475,"Delta":532690817},{"NoteNumber":37,"Velocity":25,"Duration":93475,"SoundDuration":93475,"Delta":532690817},{"NoteNumber":44,"Velocity":30,"Duration":93475,"SoundDuration":93475,"Delta":532690817},{"NoteNumber":51,"Velocity":34,"Duration":93475,"SoundDuration":93475,"Delta":532877768},{"NoteNumber":55,"Velocity":40,"Duration":93475,"SoundDuration":93475,"Delta":532877768},{"NoteNumber":37,"Velocity":25,"Duration":93475,"SoundDuration":93475,"Delta":532877768},{"NoteNumber":46,"Velocity":30,"Duration":93475,"SoundDuration":93475,"Delta":532877768},{"NoteNumber":51,"Velocity":34,"Duration":93475,"SoundDuration":93475,"Delta":533064719},{"NoteNumber":55,"Velocity":40,"Duration":93475,"SoundDuration":93475,"Delta":533064719},{"NoteNumber":37,"Velocity":25,"Duration":93475,"SoundDuration":93475,"Delta":533064719},{"NoteNumber":46,"Velocity":30,"Duration":93475,"SoundDuration":93475,"Delta":533064719},{"NoteNumber":56,"Velocity":46,"Duration":560852,"SoundDuration":560852,"Delta":533251670},{"NoteNumber":36,"Velocity":25,"Duration":140213,"SoundDuration":140213,"Delta":533251670},{"NoteNumber":44,"Velocity":30,"Duration":140213,"SoundDuration":140213,"Delta":533251670},{"NoteNumber":39,"Velocity":25,"Duration":140213,"SoundDuration":140213,"Delta":533251670},{"NoteNumber":36,"Velocity":25,"Duration":140213,"SoundDuration":140213,"Delta":533438621},{"NoteNumber":39,"Velocity":25,"Duration":140213,"SoundDuration":140213,"Delta":533438621},{"NoteNumber":44,"Velocity":30,"Duration":140213,"SoundDuration":140213,"Delta":533438621},{"NoteNumber":36,"Velocity":25,"Duration":140213,"SoundDuration":140213,"Delta":533625572},{"NoteNumber":39,"Velocity":25,"Duration":140213,"SoundDuration":140213,"Delta":533625572},{"NoteNumber":44,"Velocity":30,"Duration":140213,"SoundDuration":140213,"Delta":533625572},{"NoteNumber":60,"Velocity":40,"Duration":93475,"SoundDuration":93475,"Delta":533812523},{"NoteNumber":36,"Velocity":25,"Duration":140213,"SoundDuration":140213,"Delta":533812523},{"NoteNumber":39,"Velocity":25,"Duration":140213,"SoundDuration":140213,"Delta":533812523},{"NoteNumber":44,"Velocity":30,"Duration":140213,"SoundDuration":140213,"Delta":533812523},{"NoteNumber":58,"Velocity":40,"Duration":93475,"SoundDuration":93475,"Delta":533905998},{"NoteNumber":56,"Velocity":45,"Duration":93475,"SoundDuration":93475,"Delta":533999474},{"NoteNumber":36,"Velocity":25,"Duration":140213,"SoundDuration":140213,"Delta":533999474},{"NoteNumber":39,"Velocity":25,"Duration":140213,"SoundDuration":140213,"Delta":533999474},{"NoteNumber":44,"Velocity":30,"Duration":140213,"SoundDuration":140213,"Delta":533999474},{"NoteNumber":44,"Velocity":30,"Duration":140213,"SoundDuration":140213,"Delta":534186425},{"NoteNumber":39,"Velocity":25,"Duration":140213,"SoundDuration":140213,"Delta":534186425},{"NoteNumber":36,"Velocity":25,"Duration":140213,"SoundDuration":140213,"Delta":534186425},{"NoteNumber":36,"Velocity":25,"Duration":140213,"SoundDuration":140213,"Delta":534373376},{"NoteNumber":39,"Velocity":25,"Duration":140213,"SoundDuration":140213,"Delta":534373376},{"NoteNumber":44,"Velocity":30,"Duration":140213,"SoundDuration":140213,"Delta":534373376},{"NoteNumber":36,"Velocity":25,"Duration":143926,"SoundDuration":143926,"Delta":534560327},{"NoteNumber":39,"Velocity":25,"Duration":143926,"SoundDuration":143926,"Delta":534560327},{"NoteNumber":44,"Velocity":30,"Duration":143926,"SoundDuration":143926,"Delta":534560327},{"NoteNumber":86,"Velocity":72,"Duration":47975,"SoundDuration":47975,"Delta":534704253},{"NoteNumber":87,"Velocity":89,"Duration":467377,"SoundDuration":467377,"Delta":534752228},{"NoteNumber":41,"Velocity":38,"Duration":140213,"SoundDuration":140213,"Delta":534752228},{"NoteNumber":39,"Velocity":38,"Duration":140213,"SoundDuration":140213,"Delta":534752228},{"NoteNumber":36,"Velocity":38,"Duration":140213,"SoundDuration":140213,"Delta":534752228},{"NoteNumber":45,"Velocity":47,"Duration":140213,"SoundDuration":140213,"Delta":534752228},{"NoteNumber":39,"Velocity":38,"Duration":140213,"SoundDuration":140213,"Delta":534939179},{"NoteNumber":36,"Velocity":38,"Duration":140213,"SoundDuration":140213,"Delta":534939179},{"NoteNumber":45,"Velocity":47,"Duration":140213,"SoundDuration":140213,"Delta":534939179},{"NoteNumber":41,"Velocity":38,"Duration":140213,"SoundDuration":140213,"Delta":534939179},{"NoteNumber":39,"Velocity":38,"Duration":140213,"SoundDuration":140213,"Delta":535126130},{"NoteNumber":36,"Velocity":38,"Duration":140213,"SoundDuration":140213,"Delta":535126130},{"NoteNumber":41,"Velocity":38,"Duration":140213,"SoundDuration":140213,"Delta":535126130},{"NoteNumber":45,"Velocity":47,"Duration":140213,"SoundDuration":140213,"Delta":535126130},{"NoteNumber":85,"Velocity":75,"Duration":93475,"SoundDuration":93475,"Delta":535219606},{"NoteNumber":84,"Velocity":73,"Duration":93475,"SoundDuration":93475,"Delta":535313081},{"NoteNumber":41,"Velocity":38,"Duration":140213,"SoundDuration":140213,"Delta":535313081},{"NoteNumber":39,"Velocity":38,"Duration":140213,"SoundDuration":140213,"Delta":535313081},{"NoteNumber":36,"Velocity":38,"Duration":140213,"SoundDuration":140213,"Delta":535313081},{"NoteNumber":45,"Velocity":47,"Duration":140213,"SoundDuration":140213,"Delta":535313081},{"NoteNumber":82,"Velocity":70,"Duration":93475,"SoundDuration":93475,"Delta":535406557},{"NoteNumber":81,"Velocity":69,"Duration":186951,"SoundDuration":186951,"Delta":535500032},{"NoteNumber":41,"Velocity":38,"Duration":140213,"SoundDuration":140213,"Delta":535500032},{"NoteNumber":45,"Velocity":47,"Duration":140213,"SoundDuration":140213,"Delta":535500032},{"NoteNumber":36,"Velocity":38,"Duration":140213,"SoundDuration":140213,"Delta":535500032},{"NoteNumber":39,"Velocity":38,"Duration":140213,"SoundDuration":140213,"Delta":535500032},{"NoteNumber":36,"Velocity":37,"Duration":140213,"SoundDuration":140213,"Delta":535686983},{"NoteNumber":39,"Velocity":37,"Duration":140213,"SoundDuration":140213,"Delta":535686983},{"NoteNumber":41,"Velocity":37,"Duration":140213,"SoundDuration":140213,"Delta":535686983},{"NoteNumber":45,"Velocity":45,"Duration":140213,"SoundDuration":140213,"Delta":535686983},{"NoteNumber":41,"Velocity":37,"Duration":140213,"SoundDuration":140213,"Delta":535873934},{"NoteNumber":39,"Velocity":37,"Duration":140213,"SoundDuration":140213,"Delta":535873934},{"NoteNumber":36,"Velocity":37,"Duration":140213,"SoundDuration":140213,"Delta":535873934},{"NoteNumber":45,"Velocity":45,"Duration":140213,"SoundDuration":140213,"Delta":535873934},{"NoteNumber":41,"Velocity":37,"Duration":142984,"SoundDuration":142984,"Delta":536060885},{"NoteNumber":45,"Velocity":45,"Duration":142984,"SoundDuration":142984,"Delta":536060885},{"NoteNumber":39,"Velocity":37,"Duration":142984,"SoundDuration":142984,"Delta":536060885},{"NoteNumber":36,"Velocity":37,"Duration":142984,"SoundDuration":142984,"Delta":536060885},{"NoteNumber":58,"Velocity":46,"Duration":560852,"SoundDuration":560852,"Delta":536251531},{"NoteNumber":41,"Velocity":25,"Duration":140213,"SoundDuration":140213,"Delta":536251531},{"NoteNumber":37,"Velocity":25,"Duration":140213,"SoundDuration":140213,"Delta":536251531},{"NoteNumber":46,"Velocity":30,"Duration":140213,"SoundDuration":140213,"Delta":536251531},{"NoteNumber":41,"Velocity":25,"Duration":140213,"SoundDuration":140213,"Delta":536438482},{"NoteNumber":37,"Velocity":25,"Duration":140213,"SoundDuration":140213,"Delta":536438482},{"NoteNumber":46,"Velocity":30,"Duration":140213,"SoundDuration":140213,"Delta":536438482},{"NoteNumber":41,"Velocity":25,"Duration":140213,"SoundDuration":140213,"Delta":536625433},{"NoteNumber":37,"Velocity":25,"Duration":140213,"SoundDuration":140213,"Delta":536625433},{"NoteNumber":46,"Velocity":30,"Duration":140213,"SoundDuration":140213,"Delta":536625433},{"NoteNumber":61,"Velocity":40,"Duration":91990,"SoundDuration":91990,"Delta":536812384},{"NoteNumber":41,"Velocity":25,"Duration":137986,"SoundDuration":137986,"Delta":536812384},{"NoteNumber":37,"Velocity":25,"Duration":137986,"SoundDuration":137986,"Delta":536812384},{"NoteNumber":46,"Velocity":30,"Duration":137986,"SoundDuration":137986,"Delta":536812384},{"NoteNumber":60,"Velocity":40,"Duration":91990,"SoundDuration":91990,"Delta":536904375},{"NoteNumber":58,"Velocity":45,"Duration":93475,"SoundDuration":93475,"Delta":536996365},{"NoteNumber":46,"Velocity":30,"Duration":140213,"SoundDuration":140213,"Delta":536996365},{"NoteNumber":41,"Velocity":25,"Duration":140213,"SoundDuration":140213,"Delta":536996365},{"NoteNumber":37,"Velocity":25,"Duration":140213,"SoundDuration":140213,"Delta":536996365},{"NoteNumber":37,"Velocity":25,"Duration":140213,"SoundDuration":140213,"Delta":537183316},{"NoteNumber":46,"Velocity":30,"Duration":140213,"SoundDuration":140213,"Delta":537183316},{"NoteNumber":41,"Velocity":25,"Duration":140213,"SoundDuration":140213,"Delta":537183316},{"NoteNumber":37,"Velocity":25,"Duration":140213,"SoundDuration":140213,"Delta":537370267},{"NoteNumber":46,"Velocity":30,"Duration":140213,"SoundDuration":140213,"Delta":537370267},{"NoteNumber":41,"Velocity":25,"Duration":140213,"SoundDuration":140213,"Delta":537370267},{"NoteNumber":37,"Velocity":25,"Duration":143926,"SoundDuration":143926,"Delta":537557218},{"NoteNumber":46,"Velocity":30,"Duration":143926,"SoundDuration":143926,"Delta":537557218},{"NoteNumber":41,"Velocity":25,"Duration":143926,"SoundDuration":143926,"Delta":537557218},{"NoteNumber":88,"Velocity":72,"Duration":47975,"SoundDuration":47975,"Delta":537701144},{"NoteNumber":89,"Velocity":89,"Duration":466186,"SoundDuration":466186,"Delta":537749120},{"NoteNumber":47,"Velocity":47,"Duration":140213,"SoundDuration":140213,"Delta":537749120},{"NoteNumber":41,"Velocity":38,"Duration":140213,"SoundDuration":140213,"Delta":537749120},{"NoteNumber":38,"Velocity":38,"Duration":140213,"SoundDuration":140213,"Delta":537749120},{"NoteNumber":41,"Velocity":38,"Duration":140213,"SoundDuration":140213,"Delta":537936071},{"NoteNumber":38,"Velocity":38,"Duration":140213,"SoundDuration":140213,"Delta":537936071},{"NoteNumber":47,"Velocity":47,"Duration":140213,"SoundDuration":140213,"Delta":537936071},{"NoteNumber":41,"Velocity":38,"Duration":138427,"SoundDuration":138427,"Delta":538123022},{"NoteNumber":38,"Velocity":38,"Duration":138427,"SoundDuration":138427,"Delta":538123022},{"NoteNumber":47,"Velocity":47,"Duration":138427,"SoundDuration":138427,"Delta":538123022},{"NoteNumber":87,"Velocity":75,"Duration":92285,"SoundDuration":92285,"Delta":538215307},{"NoteNumber":86,"Velocity":73,"Duration":92284,"SoundDuration":92284,"Delta":538307592},{"NoteNumber":41,"Velocity":38,"Duration":138427,"SoundDuration":138427,"Delta":538307592},{"NoteNumber":38,"Velocity":38,"Duration":138427,"SoundDuration":138427,"Delta":538307592},{"NoteNumber":47,"Velocity":47,"Duration":138427,"SoundDuration":138427,"Delta":538307592},{"NoteNumber":84,"Velocity":70,"Duration":92285,"SoundDuration":92285,"Delta":538399877},{"NoteNumber":83,"Velocity":69,"Duration":186951,"SoundDuration":186951,"Delta":538492162},{"NoteNumber":41,"Velocity":37,"Duration":140213,"SoundDuration":140213,"Delta":538492162},{"NoteNumber":38,"Velocity":37,"Duration":140213,"SoundDuration":140213,"Delta":538492162},{"NoteNumber":47,"Velocity":45,"Duration":140213,"SoundDuration":140213,"Delta":538492162},{"NoteNumber":47,"Velocity":45,"Duration":140213,"SoundDuration":140213,"Delta":538679113},{"NoteNumber":41,"Velocity":37,"Duration":140213,"SoundDuration":140213,"Delta":538679113},{"NoteNumber":38,"Velocity":37,"Duration":140213,"SoundDuration":140213,"Delta":538679113},{"NoteNumber":41,"Velocity":37,"Duration":140213,"SoundDuration":140213,"Delta":538866064},{"NoteNumber":47,"Velocity":45,"Duration":140213,"SoundDuration":140213,"Delta":538866064},{"NoteNumber":38,"Velocity":37,"Duration":140213,"SoundDuration":140213,"Delta":538866064},{"NoteNumber":38,"Velocity":37,"Duration":142984,"SoundDuration":142984,"Delta":539053015},{"NoteNumber":41,"Velocity":37,"Duration":142984,"SoundDuration":142984,"Delta":539053015},{"NoteNumber":47,"Velocity":45,"Duration":142984,"SoundDuration":142984,"Delta":539053015},{"NoteNumber":60,"Velocity":82,"Duration":186951,"SoundDuration":186951,"Delta":539243660},{"NoteNumber":43,"Velocity":37,"Duration":140213,"SoundDuration":140213,"Delta":539243660},{"NoteNumber":39,"Velocity":37,"Duration":140213,"SoundDuration":140213,"Delta":539243660},{"NoteNumber":47,"Velocity":45,"Duration":140213,"SoundDuration":140213,"Delta":539243660},{"NoteNumber":63,"Velocity":70,"Duration":91413,"SoundDuration":91413,"Delta":539430611},{"NoteNumber":43,"Velocity":37,"Duration":137119,"SoundDuration":137119,"Delta":539430611},{"NoteNumber":39,"Velocity":37,"Duration":137119,"SoundDuration":137119,"Delta":539430611},{"NoteNumber":47,"Velocity":45,"Duration":137119,"SoundDuration":137119,"Delta":539430611},{"NoteNumber":62,"Velocity":70,"Duration":91413,"SoundDuration":91413,"Delta":539522025},{"NoteNumber":60,"Velocity":74,"Duration":186951,"SoundDuration":186951,"Delta":539613438},{"NoteNumber":43,"Velocity":37,"Duration":140213,"SoundDuration":140213,"Delta":539613438},{"NoteNumber":39,"Velocity":37,"Duration":140213,"SoundDuration":140213,"Delta":539613438},{"NoteNumber":48,"Velocity":45,"Duration":140213,"SoundDuration":140213,"Delta":539613438},{"NoteNumber":39,"Velocity":37,"Duration":146847,"SoundDuration":146847,"Delta":539800389},{"NoteNumber":48,"Velocity":45,"Duration":146847,"SoundDuration":146847,"Delta":539800389},{"NoteNumber":43,"Velocity":37,"Duration":146847,"SoundDuration":146847,"Delta":539800389},{"NoteNumber":80,"Velocity":78,"Duration":91990,"SoundDuration":91990,"Delta":539996186},{"NoteNumber":41,"Velocity":37,"Duration":137986,"SoundDuration":137986,"Delta":539996186},{"NoteNumber":48,"Velocity":45,"Duration":137986,"SoundDuration":137986,"Delta":539996186},{"NoteNumber":44,"Velocity":37,"Duration":137986,"SoundDuration":137986,"Delta":539996186},{"NoteNumber":79,"Velocity":75,"Duration":91990,"SoundDuration":91990,"Delta":540088177},{"NoteNumber":77,"Velocity":73,"Duration":91990,"SoundDuration":91990,"Delta":540180167},{"NoteNumber":41,"Velocity":38,"Duration":137986,"SoundDuration":137986,"Delta":540180167},{"NoteNumber":48,"Velocity":46,"Duration":137986,"SoundDuration":137986,"Delta":540180167},{"NoteNumber":44,"Velocity":38,"Duration":137986,"SoundDuration":137986,"Delta":540180167},{"NoteNumber":75,"Velocity":70,"Duration":91990,"SoundDuration":91990,"Delta":540272158},{"NoteNumber":74,"Velocity":74,"Duration":186951,"SoundDuration":186951,"Delta":540364149},{"NoteNumber":44,"Velocity":38,"Duration":140213,"SoundDuration":140213,"Delta":540364149},{"NoteNumber":41,"Velocity":38,"Duration":140213,"SoundDuration":140213,"Delta":540364149},{"NoteNumber":50,"Velocity":46,"Duration":140213,"SoundDuration":140213,"Delta":540364149},{"NoteNumber":50,"Velocity":46,"Duration":140213,"SoundDuration":140213,"Delta":540551100},{"NoteNumber":41,"Velocity":38,"Duration":140213,"SoundDuration":140213,"Delta":540551100},{"NoteNumber":44,"Velocity":38,"Duration":140213,"SoundDuration":140213,"Delta":540551100},{"NoteNumber":64,"Velocity":82,"Duration":186951,"SoundDuration":186951,"Delta":540738051},{"NoteNumber":43,"Velocity":38,"Duration":140213,"SoundDuration":140213,"Delta":540738051},{"NoteNumber":46,"Velocity":38,"Duration":140213,"SoundDuration":140213,"Delta":540738051},{"NoteNumber":50,"Velocity":47,"Duration":140213,"SoundDuration":140213,"Delta":540738051},{"NoteNumber":67,"Velocity":70,"Duration":91413,"SoundDuration":91413,"Delta":540925002},{"NoteNumber":43,"Velocity":38,"Duration":137119,"SoundDuration":137119,"Delta":540925002},{"NoteNumber":46,"Velocity":38,"Duration":137119,"SoundDuration":137119,"Delta":540925002},{"NoteNumber":50,"Velocity":47,"Duration":137119,"SoundDuration":137119,"Delta":540925002},{"NoteNumber":65,"Velocity":70,"Duration":91413,"SoundDuration":91413,"Delta":541016415},{"NoteNumber":64,"Velocity":74,"Duration":186951,"SoundDuration":186951,"Delta":541107828},{"NoteNumber":43,"Velocity":39,"Duration":140213,"SoundDuration":140213,"Delta":541107828},{"NoteNumber":46,"Velocity":39,"Duration":140213,"SoundDuration":140213,"Delta":541107828},{"NoteNumber":52,"Velocity":47,"Duration":140213,"SoundDuration":140213,"Delta":541107828},{"NoteNumber":46,"Velocity":39,"Duration":148858,"SoundDuration":148858,"Delta":541294779},{"NoteNumber":43,"Velocity":39,"Duration":148858,"SoundDuration":148858,"Delta":541294779},{"NoteNumber":52,"Velocity":48,"Duration":148858,"SoundDuration":148858,"Delta":541294779},{"NoteNumber":84,"Velocity":78,"Duration":91990,"SoundDuration":91990,"Delta":541493258},{"NoteNumber":44,"Velocity":39,"Duration":137986,"SoundDuration":137986,"Delta":541493258},{"NoteNumber":52,"Velocity":48,"Duration":137986,"SoundDuration":137986,"Delta":541493258},{"NoteNumber":48,"Velocity":39,"Duration":137986,"SoundDuration":137986,"Delta":541493258},{"NoteNumber":82,"Velocity":75,"Duration":91990,"SoundDuration":91990,"Delta":541585249},{"NoteNumber":80,"Velocity":73,"Duration":91990,"SoundDuration":91990,"Delta":541677239},{"NoteNumber":44,"Velocity":39,"Duration":137986,"SoundDuration":137986,"Delta":541677239},{"NoteNumber":52,"Velocity":48,"Duration":137986,"SoundDuration":137986,"Delta":541677239},{"NoteNumber":48,"Velocity":39,"Duration":137986,"SoundDuration":137986,"Delta":541677239},{"NoteNumber":79,"Velocity":70,"Duration":91990,"SoundDuration":91990,"Delta":541769230},{"NoteNumber":77,"Velocity":74,"Duration":186951,"SoundDuration":186951,"Delta":541861221},{"NoteNumber":44,"Velocity":40,"Duration":140213,"SoundDuration":140213,"Delta":541861221},{"NoteNumber":53,"Velocity":49,"Duration":140213,"SoundDuration":140213,"Delta":541861221},{"NoteNumber":48,"Velocity":40,"Duration":140213,"SoundDuration":140213,"Delta":541861221},{"NoteNumber":48,"Velocity":40,"Duration":142984,"SoundDuration":142984,"Delta":542048172},{"NoteNumber":44,"Velocity":40,"Duration":142984,"SoundDuration":142984,"Delta":542048172},{"NoteNumber":53,"Velocity":49,"Duration":142984,"SoundDuration":142984,"Delta":542048172},{"NoteNumber":87,"Velocity":90,"Duration":91990,"SoundDuration":91990,"Delta":542238817},{"NoteNumber":54,"Velocity":51,"Duration":137986,"SoundDuration":137986,"Delta":542238817},{"NoteNumber":45,"Velocity":42,"Duration":137986,"SoundDuration":137986,"Delta":542238817},{"NoteNumber":48,"Velocity":42,"Duration":137986,"SoundDuration":137986,"Delta":542238817},{"NoteNumber":86,"Velocity":86,"Duration":91990,"SoundDuration":91990,"Delta":542330808},{"NoteNumber":84,"Velocity":84,"Duration":91990,"SoundDuration":91990,"Delta":542422799},{"NoteNumber":54,"Velocity":51,"Duration":137986,"SoundDuration":137986,"Delta":542422799},{"NoteNumber":45,"Velocity":42,"Duration":137986,"SoundDuration":137986,"Delta":542422799},{"NoteNumber":48,"Velocity":42,"Duration":137986,"SoundDuration":137986,"Delta":542422799},{"NoteNumber":83,"Velocity":80,"Duration":91990,"SoundDuration":91990,"Delta":542514790},{"NoteNumber":84,"Velocity":85,"Duration":186951,"SoundDuration":186951,"Delta":542606780},{"NoteNumber":48,"Velocity":42,"Duration":140213,"SoundDuration":140213,"Delta":542606780},{"NoteNumber":45,"Velocity":42,"Duration":140213,"SoundDuration":140213,"Delta":542606780},{"NoteNumber":54,"Velocity":51,"Duration":140213,"SoundDuration":140213,"Delta":542606780},{"NoteNumber":48,"Velocity":42,"Duration":142984,"SoundDuration":142984,"Delta":542793731},{"NoteNumber":45,"Velocity":42,"Duration":142984,"SoundDuration":142984,"Delta":542793731},{"NoteNumber":54,"Velocity":51,"Duration":142984,"SoundDuration":142984,"Delta":542793731},{"NoteNumber":75,"Velocity":90,"Duration":91990,"SoundDuration":91990,"Delta":542984377},{"NoteNumber":54,"Velocity":51,"Duration":137986,"SoundDuration":137986,"Delta":542984377},{"NoteNumber":48,"Velocity":42,"Duration":137986,"SoundDuration":137986,"Delta":542984377},{"NoteNumber":45,"Velocity":42,"Duration":137986,"SoundDuration":137986,"Delta":542984377},{"NoteNumber":74,"Velocity":86,"Duration":91990,"SoundDuration":91990,"Delta":543076368},{"NoteNumber":72,"Velocity":84,"Duration":91990,"SoundDuration":91990,"Delta":543168358},{"NoteNumber":48,"Velocity":42,"Duration":137986,"SoundDuration":137986,"Delta":543168358},{"NoteNumber":45,"Velocity":42,"Duration":137986,"SoundDuration":137986,"Delta":543168358},{"NoteNumber":54,"Velocity":51,"Duration":137986,"SoundDuration":137986,"Delta":543168358},{"NoteNumber":71,"Velocity":80,"Duration":91990,"SoundDuration":91990,"Delta":543260349},{"NoteNumber":72,"Velocity":85,"Duration":186951,"SoundDuration":186951,"Delta":543352340},{"NoteNumber":48,"Velocity":42,"Duration":140213,"SoundDuration":140213,"Delta":543352340},{"NoteNumber":45,"Velocity":42,"Duration":140213,"SoundDuration":140213,"Delta":543352340},{"NoteNumber":54,"Velocity":51,"Duration":140213,"SoundDuration":140213,"Delta":543352340},{"NoteNumber":48,"Velocity":42,"Duration":148026,"SoundDuration":148026,"Delta":543539291},{"NoteNumber":45,"Velocity":42,"Duration":148026,"SoundDuration":148026,"Delta":543539291},{"NoteNumber":54,"Velocity":51,"Duration":148026,"SoundDuration":148026,"Delta":543539291},{"NoteNumber":63,"Velocity":90,"Duration":91990,"SoundDuration":91990,"Delta":543736659},{"NoteNumber":48,"Velocity":42,"Duration":137986,"SoundDuration":137986,"Delta":543736659},{"NoteNumber":54,"Velocity":51,"Duration":137986,"SoundDuration":137986,"Delta":543736659},{"NoteNumber":44,"Velocity":42,"Duration":137986,"SoundDuration":137986,"Delta":543736659},{"NoteNumber":62,"Velocity":86,"Duration":91990,"SoundDuration":91990,"Delta":543828650},{"NoteNumber":60,"Velocity":84,"Duration":91990,"SoundDuration":91990,"Delta":543920641},{"NoteNumber":54,"Velocity":51,"Duration":137986,"SoundDuration":137986,"Delta":543920641},{"NoteNumber":44,"Velocity":42,"Duration":137986,"SoundDuration":137986,"Delta":543920641},{"NoteNumber":48,"Velocity":42,"Duration":137986,"SoundDuration":137986,"Delta":543920641},{"NoteNumber":59,"Velocity":80,"Duration":91990,"SoundDuration":91990,"Delta":544012632},{"NoteNumber":60,"Velocity":85,"Duration":186951,"SoundDuration":186951,"Delta":544104622},{"NoteNumber":48,"Velocity":42,"Duration":140213,"SoundDuration":140213,"Delta":544104622},{"NoteNumber":44,"Velocity":42,"Duration":140213,"SoundDuration":140213,"Delta":544104622},{"NoteNumber":54,"Velocity":51,"Duration":140213,"SoundDuration":140213,"Delta":544104622},{"NoteNumber":48,"Velocity":42,"Duration":140213,"SoundDuration":140213,"Delta":544291573},{"NoteNumber":44,"Velocity":42,"Duration":140213,"SoundDuration":140213,"Delta":544291573},{"NoteNumber":54,"Velocity":51,"Duration":140213,"SoundDuration":140213,"Delta":544291573},{"NoteNumber":75,"Velocity":90,"Duration":91990,"SoundDuration":91990,"Delta":544478524},{"NoteNumber":48,"Velocity":42,"Duration":137986,"SoundDuration":137986,"Delta":544478524},{"NoteNumber":44,"Velocity":42,"Duration":137986,"SoundDuration":137986,"Delta":544478524},{"NoteNumber":51,"Velocity":51,"Duration":137986,"SoundDuration":137986,"Delta":544478524},{"NoteNumber":74,"Velocity":86,"Duration":91990,"SoundDuration":91990,"Delta":544570515},{"NoteNumber":72,"Velocity":84,"Duration":91990,"SoundDuration":91990,"Delta":544662506},{"NoteNumber":51,"Velocity":51,"Duration":137986,"SoundDuration":137986,"Delta":544662506},{"NoteNumber":48,"Velocity":42,"Duration":137986,"SoundDuration":137986,"Delta":544662506},{"NoteNumber":44,"Velocity":42,"Duration":137986,"SoundDuration":137986,"Delta":544662506},{"NoteNumber":71,"Velocity":80,"Duration":91990,"SoundDuration":91990,"Delta":544754497},{"NoteNumber":72,"Velocity":85,"Duration":94701,"SoundDuration":94701,"Delta":544846487},{"NoteNumber":44,"Velocity":42,"Duration":142945,"SoundDuration":142945,"Delta":544846487},{"NoteNumber":48,"Velocity":51,"Duration":142945,"SoundDuration":142945,"Delta":544846487},{"NoteNumber":74,"Velocity":85,"Duration":97029,"SoundDuration":97029,"Delta":544941189},{"NoteNumber":75,"Velocity":85,"Duration":99355,"SoundDuration":99355,"Delta":545038218},{"NoteNumber":48,"Velocity":51,"Duration":150017,"SoundDuration":150017,"Delta":545038218},{"NoteNumber":44,"Velocity":42,"Duration":150017,"SoundDuration":150017,"Delta":545038218},{"NoteNumber":78,"Velocity":85,"Duration":101921,"SoundDuration":101921,"Delta":545137574},{"NoteNumber":79,"Velocity":85,"Duration":178873,"SoundDuration":178873,"Delta":545239495},{"NoteNumber":43,"Velocity":42,"Duration":178873,"SoundDuration":178873,"Delta":545239495},{"NoteNumber":47,"Velocity":51,"Duration":178873,"SoundDuration":178873,"Delta":545239495},{"NoteNumber":67,"Velocity":38,"Duration":178873,"SoundDuration":178873,"Delta":545434630},{"NoteNumber":79,"Velocity":45,"Duration":178873,"SoundDuration":178873,"Delta":545434630},{"NoteNumber":67,"Velocity":38,"Duration":178873,"SoundDuration":178873,"Delta":545629764},{"NoteNumber":79,"Velocity":45,"Duration":178873,"SoundDuration":178873,"Delta":545629764},{"NoteNumber":67,"Velocity":38,"Duration":178873,"SoundDuration":178873,"Delta":545824899},{"NoteNumber":79,"Velocity":45,"Duration":178873,"SoundDuration":178873,"Delta":545824899},{"NoteNumber":67,"Velocity":38,"Duration":178873,"SoundDuration":178873,"Delta":546020033},{"NoteNumber":79,"Velocity":45,"Duration":178873,"SoundDuration":178873,"Delta":546020033},{"NoteNumber":67,"Velocity":38,"Duration":178873,"SoundDuration":178873,"Delta":546215168},{"NoteNumber":79,"Velocity":45,"Duration":178873,"SoundDuration":178873,"Delta":546215168},{"NoteNumber":67,"Velocity":38,"Duration":178873,"SoundDuration":178873,"Delta":546410302},{"NoteNumber":79,"Velocity":45,"Duration":178873,"SoundDuration":178873,"Delta":546410302},{"NoteNumber":67,"Velocity":38,"Duration":178873,"SoundDuration":178873,"Delta":546605437},{"NoteNumber":79,"Velocity":45,"Duration":178873,"SoundDuration":178873,"Delta":546605437},{"NoteNumber":67,"Velocity":37,"Duration":175337,"SoundDuration":175337,"Delta":546800571},{"NoteNumber":70,"Velocity":37,"Duration":175337,"SoundDuration":175337,"Delta":546800571},{"NoteNumber":73,"Velocity":37,"Duration":175337,"SoundDuration":175337,"Delta":546800571},{"NoteNumber":79,"Velocity":45,"Duration":175337,"SoundDuration":175337,"Delta":546800571},{"NoteNumber":67,"Velocity":39,"Duration":175337,"SoundDuration":175337,"Delta":546991849},{"NoteNumber":70,"Velocity":39,"Duration":175337,"SoundDuration":175337,"Delta":546991849},{"NoteNumber":73,"Velocity":39,"Duration":175337,"SoundDuration":175337,"Delta":546991849},{"NoteNumber":79,"Velocity":47,"Duration":175337,"SoundDuration":175337,"Delta":546991849},{"NoteNumber":67,"Velocity":41,"Duration":175337,"SoundDuration":175337,"Delta":547183126},{"NoteNumber":70,"Velocity":41,"Duration":175337,"SoundDuration":175337,"Delta":547183126},{"NoteNumber":73,"Velocity":41,"Duration":175337,"SoundDuration":175337,"Delta":547183126},{"NoteNumber":79,"Velocity":49,"Duration":175337,"SoundDuration":175337,"Delta":547183126},{"NoteNumber":67,"Velocity":43,"Duration":175284,"SoundDuration":175284,"Delta":547374404},{"NoteNumber":70,"Velocity":43,"Duration":175284,"SoundDuration":175284,"Delta":547374404},{"NoteNumber":73,"Velocity":43,"Duration":175284,"SoundDuration":175284,"Delta":547374404},{"NoteNumber":79,"Velocity":52,"Duration":175284,"SoundDuration":175284,"Delta":547374404},{"NoteNumber":67,"Velocity":45,"Duration":176712,"SoundDuration":176712,"Delta":547565680},{"NoteNumber":70,"Velocity":45,"Duration":176712,"SoundDuration":176712,"Delta":547565680},{"NoteNumber":73,"Velocity":45,"Duration":176712,"SoundDuration":176712,"Delta":547565680},{"NoteNumber":79,"Velocity":54,"Duration":176712,"SoundDuration":176712,"Delta":547565680},{"NoteNumber":67,"Velocity":46,"Duration":178712,"SoundDuration":178712,"Delta":547758546},{"NoteNumber":70,"Velocity":46,"Duration":178712,"SoundDuration":178712,"Delta":547758546},{"NoteNumber":73,"Velocity":46,"Duration":178712,"SoundDuration":178712,"Delta":547758546},{"NoteNumber":79,"Velocity":55,"Duration":178712,"SoundDuration":178712,"Delta":547758546},{"NoteNumber":67,"Velocity":49,"Duration":180814,"SoundDuration":180814,"Delta":547953575},{"NoteNumber":70,"Velocity":49,"Duration":180814,"SoundDuration":180814,"Delta":547953575},{"NoteNumber":73,"Velocity":49,"Duration":180814,"SoundDuration":180814,"Delta":547953575},{"NoteNumber":79,"Velocity":59,"Duration":180814,"SoundDuration":180814,"Delta":547953575},{"NoteNumber":67,"Velocity":51,"Duration":182910,"SoundDuration":182910,"Delta":548150929},{"NoteNumber":70,"Velocity":51,"Duration":182910,"SoundDuration":182910,"Delta":548150929},{"NoteNumber":73,"Velocity":51,"Duration":182910,"SoundDuration":182910,"Delta":548150929},{"NoteNumber":79,"Velocity":61,"Duration":182910,"SoundDuration":182910,"Delta":548150929},{"NoteNumber":67,"Velocity":41,"Duration":201938,"SoundDuration":201938,"Delta":548350551},{"NoteNumber":71,"Velocity":41,"Duration":201938,"SoundDuration":201938,"Delta":548350551},{"NoteNumber":74,"Velocity":41,"Duration":201938,"SoundDuration":201938,"Delta":548350551},{"NoteNumber":79,"Velocity":49,"Duration":201938,"SoundDuration":201938,"Delta":548350551},{"NoteNumber":47,"Velocity":29,"Duration":151453,"SoundDuration":151453,"Delta":548350551},{"NoteNumber":50,"Velocity":35,"Duration":151453,"SoundDuration":151453,"Delta":548350551},{"NoteNumber":91,"Velocity":58,"Duration":390268,"SoundDuration":390268,"Delta":548552489},{"NoteNumber":79,"Velocity":49,"Duration":390268,"SoundDuration":390268,"Delta":548552489},{"NoteNumber":50,"Velocity":35,"Duration":146350,"SoundDuration":146350,"Delta":548552489},{"NoteNumber":47,"Velocity":29,"Duration":146350,"SoundDuration":146350,"Delta":548552489},{"NoteNumber":50,"Velocity":35,"Duration":146350,"SoundDuration":146350,"Delta":548747624},{"NoteNumber":47,"Velocity":29,"Duration":146350,"SoundDuration":146350,"Delta":548747624},{"NoteNumber":89,"Velocity":53,"Duration":390268,"SoundDuration":390268,"Delta":548942758},{"NoteNumber":77,"Velocity":53,"Duration":390268,"SoundDuration":390268,"Delta":548942758},{"NoteNumber":47,"Velocity":29,"Duration":146350,"SoundDuration":146350,"Delta":548942758},{"NoteNumber":50,"Velocity":35,"Duration":146350,"SoundDuration":146350,"Delta":548942758},{"NoteNumber":47,"Velocity":29,"Duration":146350,"SoundDuration":146350,"Delta":549137893},{"NoteNumber":50,"Velocity":35,"Duration":146350,"SoundDuration":146350,"Delta":549137893},{"NoteNumber":88,"Velocity":55,"Duration":390268,"SoundDuration":390268,"Delta":549333027},{"NoteNumber":76,"Velocity":46,"Duration":390268,"SoundDuration":390268,"Delta":549333027},{"NoteNumber":50,"Velocity":35,"Duration":146350,"SoundDuration":146350,"Delta":549333027},{"NoteNumber":47,"Velocity":29,"Duration":146350,"SoundDuration":146350,"Delta":549333027},{"NoteNumber":47,"Velocity":29,"Duration":146350,"SoundDuration":146350,"Delta":549528162},{"NoteNumber":50,"Velocity":35,"Duration":146350,"SoundDuration":146350,"Delta":549528162},{"NoteNumber":86,"Velocity":53,"Duration":385190,"SoundDuration":385190,"Delta":549723296},{"NoteNumber":74,"Velocity":45,"Duration":385190,"SoundDuration":385190,"Delta":549723296},{"NoteNumber":47,"Velocity":29,"Duration":142045,"SoundDuration":142045,"Delta":549723296},{"NoteNumber":50,"Velocity":35,"Duration":142045,"SoundDuration":142045,"Delta":549723296},{"NoteNumber":47,"Velocity":29,"Duration":146847,"SoundDuration":146847,"Delta":549912690},{"NoteNumber":50,"Velocity":35,"Duration":146847,"SoundDuration":146847,"Delta":549912690},{"NoteNumber":84,"Velocity":52,"Duration":392260,"SoundDuration":392260,"Delta":550108487},{"NoteNumber":72,"Velocity":44,"Duration":392260,"SoundDuration":392260,"Delta":550108487},{"NoteNumber":47,"Velocity":29,"Duration":146847,"SoundDuration":146847,"Delta":550108487},{"NoteNumber":50,"Velocity":35,"Duration":146847,"SoundDuration":146847,"Delta":550108487},{"NoteNumber":47,"Velocity":29,"Duration":147347,"SoundDuration":147347,"Delta":550304395},{"NoteNumber":50,"Velocity":35,"Duration":147347,"SoundDuration":147347,"Delta":550304395},{"NoteNumber":83,"Velocity":50,"Duration":390601,"SoundDuration":390601,"Delta":550500748},{"NoteNumber":71,"Velocity":42,"Duration":390601,"SoundDuration":390601,"Delta":550500748},{"NoteNumber":47,"Velocity":29,"Duration":146847,"SoundDuration":146847,"Delta":550500748},{"NoteNumber":50,"Velocity":35,"Duration":146847,"SoundDuration":146847,"Delta":550500748},{"NoteNumber":50,"Velocity":35,"Duration":146296,"SoundDuration":146296,"Delta":550696434},{"NoteNumber":47,"Velocity":29,"Duration":146296,"SoundDuration":146296,"Delta":550696434},{"NoteNumber":81,"Velocity":49,"Duration":387882,"SoundDuration":387882,"Delta":550891350},{"NoteNumber":69,"Velocity":41,"Duration":387882,"SoundDuration":387882,"Delta":550891350},{"NoteNumber":47,"Velocity":29,"Duration":145804,"SoundDuration":145804,"Delta":550891350},{"NoteNumber":50,"Velocity":35,"Duration":145804,"SoundDuration":145804,"Delta":550891350},{"NoteNumber":52,"Velocity":35,"Duration":145322,"SoundDuration":145322,"Delta":551085613},{"NoteNumber":49,"Velocity":29,"Duration":145322,"SoundDuration":145322,"Delta":551085613},{"NoteNumber":79,"Velocity":47,"Duration":192864,"SoundDuration":192864,"Delta":551279233},{"NoteNumber":67,"Velocity":39,"Duration":192864,"SoundDuration":192864,"Delta":551279233},{"NoteNumber":49,"Velocity":29,"Duration":144728,"SoundDuration":144728,"Delta":551279233},{"NoteNumber":52,"Velocity":35,"Duration":144728,"SoundDuration":144728,"Delta":551279233},{"NoteNumber":65,"Velocity":38,"Duration":93475,"SoundDuration":93475,"Delta":551472097},{"NoteNumber":77,"Velocity":45,"Duration":93475,"SoundDuration":93475,"Delta":551472097},{"NoteNumber":53,"Velocity":42,"Duration":560852,"SoundDuration":560852,"Delta":551472097},{"NoteNumber":50,"Velocity":42,"Duration":931785,"SoundDuration":931785,"Delta":551472097},{"NoteNumber":62,"Velocity":37,"Duration":93475,"SoundDuration":93475,"Delta":551565573},{"NoteNumber":64,"Velocity":39,"Duration":93475,"SoundDuration":93475,"Delta":551659048},{"NoteNumber":65,"Velocity":40,"Duration":93475,"SoundDuration":93475,"Delta":551752524},{"NoteNumber":67,"Velocity":42,"Duration":93475,"SoundDuration":93475,"Delta":551845999},{"NoteNumber":69,"Velocity":44,"Duration":93475,"SoundDuration":93475,"Delta":551939475},{"NoteNumber":71,"Velocity":45,"Duration":91990,"SoundDuration":91990,"Delta":552032950},{"NoteNumber":57,"Velocity":40,"Duration":91990,"SoundDuration":91990,"Delta":552032950},{"NoteNumber":73,"Velocity":47,"Duration":91990,"SoundDuration":91990,"Delta":552124941},{"NoteNumber":55,"Velocity":40,"Duration":91990,"SoundDuration":91990,"Delta":552124941},{"NoteNumber":74,"Velocity":48,"Duration":93475,"SoundDuration":93475,"Delta":552216932},{"NoteNumber":53,"Velocity":45,"Duration":186951,"SoundDuration":186951,"Delta":552216932},{"NoteNumber":65,"Velocity":42,"Duration":93475,"SoundDuration":93475,"Delta":552310407},{"NoteNumber":67,"Velocity":43,"Duration":93475,"SoundDuration":93475,"Delta":552403883},{"NoteNumber":69,"Velocity":45,"Duration":93475,"SoundDuration":93475,"Delta":552497358},{"NoteNumber":71,"Velocity":46,"Duration":93475,"SoundDuration":93475,"Delta":552590834},{"NoteNumber":73,"Velocity":48,"Duration":93475,"SoundDuration":93475,"Delta":552684309},{"NoteNumber":74,"Velocity":49,"Duration":95950,"SoundDuration":95950,"Delta":552777785},{"NoteNumber":76,"Velocity":50,"Duration":95950,"SoundDuration":95950,"Delta":552873735},{"NoteNumber":77,"Velocity":52,"Duration":93475,"SoundDuration":93475,"Delta":552969686},{"NoteNumber":69,"Velocity":46,"Duration":467377,"SoundDuration":467377,"Delta":552969686},{"NoteNumber":74,"Velocity":46,"Duration":93475,"SoundDuration":93475,"Delta":553063162},{"NoteNumber":76,"Velocity":46,"Duration":93475,"SoundDuration":93475,"Delta":553156637},{"NoteNumber":77,"Velocity":47,"Duration":93475,"SoundDuration":93475,"Delta":553250113},{"NoteNumber":79,"Velocity":48,"Duration":93475,"SoundDuration":93475,"Delta":553343588},{"NoteNumber":81,"Velocity":49,"Duration":93475,"SoundDuration":93475,"Delta":553437064},{"NoteNumber":67,"Velocity":40,"Duration":93475,"SoundDuration":93475,"Delta":553437064},{"NoteNumber":83,"Velocity":50,"Duration":91990,"SoundDuration":91990,"Delta":553530539},{"NoteNumber":65,"Velocity":40,"Duration":91990,"SoundDuration":91990,"Delta":553530539},{"NoteNumber":85,"Velocity":51,"Duration":91990,"SoundDuration":91990,"Delta":553622530},{"NoteNumber":64,"Velocity":40,"Duration":91990,"SoundDuration":91990,"Delta":553622530},{"NoteNumber":86,"Velocity":52,"Duration":93475,"SoundDuration":93475,"Delta":553714521},{"NoteNumber":62,"Velocity":45,"Duration":186951,"SoundDuration":186951,"Delta":553714521},{"NoteNumber":85,"Velocity":46,"Duration":93475,"SoundDuration":93475,"Delta":553807996},{"NoteNumber":86,"Velocity":47,"Duration":93475,"SoundDuration":93475,"Delta":553901472},{"NoteNumber":88,"Velocity":48,"Duration":93475,"SoundDuration":93475,"Delta":553994947},{"NoteNumber":89,"Velocity":49,"Duration":93475,"SoundDuration":93475,"Delta":554088423},{"NoteNumber":85,"Velocity":51,"Duration":93475,"SoundDuration":93475,"Delta":554181898},{"NoteNumber":86,"Velocity":52,"Duration":95950,"SoundDuration":95950,"Delta":554275374},{"NoteNumber":88,"Velocity":53,"Duration":95950,"SoundDuration":95950,"Delta":554371324},{"NoteNumber":89,"Velocity":49,"Duration":201938,"SoundDuration":201938,"Delta":554467275},{"NoteNumber":45,"Velocity":29,"Duration":151453,"SoundDuration":151453,"Delta":554467275},{"NoteNumber":48,"Velocity":35,"Duration":151453,"SoundDuration":151453,"Delta":554467275},{"NoteNumber":89,"Velocity":58,"Duration":390268,"SoundDuration":390268,"Delta":554669214},{"NoteNumber":77,"Velocity":49,"Duration":390268,"SoundDuration":390268,"Delta":554669214},{"NoteNumber":45,"Velocity":29,"Duration":146350,"SoundDuration":146350,"Delta":554669214},{"NoteNumber":48,"Velocity":35,"Duration":146350,"SoundDuration":146350,"Delta":554669214},{"NoteNumber":48,"Velocity":35,"Duration":146350,"SoundDuration":146350,"Delta":554864348},{"NoteNumber":45,"Velocity":29,"Duration":146350,"SoundDuration":146350,"Delta":554864348},{"NoteNumber":88,"Velocity":53,"Duration":390268,"SoundDuration":390268,"Delta":555059483},{"NoteNumber":76,"Velocity":53,"Duration":390268,"SoundDuration":390268,"Delta":555059483},{"NoteNumber":45,"Velocity":29,"Duration":146350,"SoundDuration":146350,"Delta":555059483},{"NoteNumber":48,"Velocity":35,"Duration":146350,"SoundDuration":146350,"Delta":555059483},{"NoteNumber":45,"Velocity":29,"Duration":146350,"SoundDuration":146350,"Delta":555254617},{"NoteNumber":48,"Velocity":35,"Duration":146350,"SoundDuration":146350,"Delta":555254617},{"NoteNumber":86,"Velocity":55,"Duration":390268,"SoundDuration":390268,"Delta":555449752},{"NoteNumber":74,"Velocity":46,"Duration":390268,"SoundDuration":390268,"Delta":555449752},{"NoteNumber":48,"Velocity":35,"Duration":146350,"SoundDuration":146350,"Delta":555449752},{"NoteNumber":45,"Velocity":29,"Duration":146350,"SoundDuration":146350,"Delta":555449752},{"NoteNumber":45,"Velocity":29,"Duration":146350,"SoundDuration":146350,"Delta":555644886},{"NoteNumber":48,"Velocity":35,"Duration":146350,"SoundDuration":146350,"Delta":555644886},{"NoteNumber":84,"Velocity":53,"Duration":385190,"SoundDuration":385190,"Delta":555840021},{"NoteNumber":72,"Velocity":45,"Duration":385190,"SoundDuration":385190,"Delta":555840021},{"NoteNumber":45,"Velocity":29,"Duration":142045,"SoundDuration":142045,"Delta":555840021},{"NoteNumber":48,"Velocity":35,"Duration":142045,"SoundDuration":142045,"Delta":555840021},{"NoteNumber":48,"Velocity":35,"Duration":146847,"SoundDuration":146847,"Delta":556029415},{"NoteNumber":45,"Velocity":29,"Duration":146847,"SoundDuration":146847,"Delta":556029415},{"NoteNumber":83,"Velocity":52,"Duration":392260,"SoundDuration":392260,"Delta":556225212},{"NoteNumber":71,"Velocity":44,"Duration":392260,"SoundDuration":392260,"Delta":556225212},{"NoteNumber":45,"Velocity":29,"Duration":146847,"SoundDuration":146847,"Delta":556225212},{"NoteNumber":48,"Velocity":35,"Duration":146847,"SoundDuration":146847,"Delta":556225212},{"NoteNumber":45,"Velocity":29,"Duration":147347,"SoundDuration":147347,"Delta":556421120},{"NoteNumber":48,"Velocity":35,"Duration":147347,"SoundDuration":147347,"Delta":556421120},{"NoteNumber":81,"Velocity":50,"Duration":390601,"SoundDuration":390601,"Delta":556617472},{"NoteNumber":69,"Velocity":42,"Duration":390601,"SoundDuration":390601,"Delta":556617472},{"NoteNumber":48,"Velocity":35,"Duration":146847,"SoundDuration":146847,"Delta":556617472},{"NoteNumber":45,"Velocity":29,"Duration":146847,"SoundDuration":146847,"Delta":556617472},{"NoteNumber":45,"Velocity":29,"Duration":146296,"SoundDuration":146296,"Delta":556813159},{"NoteNumber":48,"Velocity":35,"Duration":146296,"SoundDuration":146296,"Delta":556813159},{"NoteNumber":79,"Velocity":49,"Duration":387882,"SoundDuration":387882,"Delta":557008074},{"NoteNumber":67,"Velocity":41,"Duration":387882,"SoundDuration":387882,"Delta":557008074},{"NoteNumber":48,"Velocity":35,"Duration":145804,"SoundDuration":145804,"Delta":557008074},{"NoteNumber":45,"Velocity":29,"Duration":145804,"SoundDuration":145804,"Delta":557008074},{"NoteNumber":47,"Velocity":29,"Duration":145322,"SoundDuration":145322,"Delta":557202337},{"NoteNumber":50,"Velocity":35,"Duration":145322,"SoundDuration":145322,"Delta":557202337},{"NoteNumber":77,"Velocity":47,"Duration":192864,"SoundDuration":192864,"Delta":557395957},{"NoteNumber":65,"Velocity":39,"Duration":192864,"SoundDuration":192864,"Delta":557395957},{"NoteNumber":47,"Velocity":29,"Duration":144728,"SoundDuration":144728,"Delta":557395957},{"NoteNumber":50,"Velocity":35,"Duration":144728,"SoundDuration":144728,"Delta":557395957},{"NoteNumber":64,"Velocity":38,"Duration":93475,"SoundDuration":93475,"Delta":557588822},{"NoteNumber":76,"Velocity":45,"Duration":93475,"SoundDuration":93475,"Delta":557588822},{"NoteNumber":52,"Velocity":42,"Duration":560852,"SoundDuration":560852,"Delta":557588822},{"NoteNumber":48,"Velocity":42,"Duration":931785,"SoundDuration":931785,"Delta":557588822},{"NoteNumber":64,"Velocity":37,"Duration":93475,"SoundDuration":93475,"Delta":557682297},{"NoteNumber":65,"Velocity":39,"Duration":93475,"SoundDuration":93475,"Delta":557775773},{"NoteNumber":67,"Velocity":40,"Duration":93475,"SoundDuration":93475,"Delta":557869248},{"NoteNumber":69,"Velocity":42,"Duration":93475,"SoundDuration":93475,"Delta":557962724},{"NoteNumber":71,"Velocity":44,"Duration":93475,"SoundDuration":93475,"Delta":558056199},{"NoteNumber":72,"Velocity":45,"Duration":91990,"SoundDuration":91990,"Delta":558149675},{"NoteNumber":55,"Velocity":40,"Duration":91990,"SoundDuration":91990,"Delta":558149675},{"NoteNumber":74,"Velocity":47,"Duration":91990,"SoundDuration":91990,"Delta":558241665},{"NoteNumber":53,"Velocity":40,"Duration":91990,"SoundDuration":91990,"Delta":558241665},{"NoteNumber":76,"Velocity":48,"Duration":93475,"SoundDuration":93475,"Delta":558333656},{"NoteNumber":52,"Velocity":45,"Duration":186951,"SoundDuration":186951,"Delta":558333656},{"NoteNumber":69,"Velocity":42,"Duration":93475,"SoundDuration":93475,"Delta":558427132},{"NoteNumber":71,"Velocity":43,"Duration":93475,"SoundDuration":93475,"Delta":558520607},{"NoteNumber":72,"Velocity":45,"Duration":93475,"SoundDuration":93475,"Delta":558614083},{"NoteNumber":74,"Velocity":46,"Duration":93475,"SoundDuration":93475,"Delta":558707558},{"NoteNumber":76,"Velocity":48,"Duration":93475,"SoundDuration":93475,"Delta":558801034},{"NoteNumber":78,"Velocity":49,"Duration":95950,"SoundDuration":95950,"Delta":558894509},{"NoteNumber":80,"Velocity":50,"Duration":95950,"SoundDuration":95950,"Delta":558990460},{"NoteNumber":48,"Velocity":36,"Duration":47975,"SoundDuration":47975,"Delta":559038435},{"NoteNumber":81,"Velocity":52,"Duration":93475,"SoundDuration":93475,"Delta":559086411},{"NoteNumber":64,"Velocity":46,"Duration":467377,"SoundDuration":467377,"Delta":559086411},{"NoteNumber":76,"Velocity":46,"Duration":93475,"SoundDuration":93475,"Delta":559179886},{"NoteNumber":78,"Velocity":46,"Duration":93475,"SoundDuration":93475,"Delta":559273362},{"NoteNumber":80,"Velocity":47,"Duration":93475,"SoundDuration":93475,"Delta":559366837},{"NoteNumber":81,"Velocity":48,"Duration":93475,"SoundDuration":93475,"Delta":559460313},{"NoteNumber":83,"Velocity":49,"Duration":93475,"SoundDuration":93475,"Delta":559553788},{"NoteNumber":62,"Velocity":40,"Duration":93475,"SoundDuration":93475,"Delta":559553788},{"NoteNumber":84,"Velocity":50,"Duration":91990,"SoundDuration":91990,"Delta":559647264},{"NoteNumber":60,"Velocity":40,"Duration":91990,"SoundDuration":91990,"Delta":559647264},{"NoteNumber":86,"Velocity":51,"Duration":91990,"SoundDuration":91990,"Delta":559739254},{"NoteNumber":59,"Velocity":40,"Duration":91990,"SoundDuration":91990,"Delta":559739254},{"NoteNumber":88,"Velocity":52,"Duration":93475,"SoundDuration":93475,"Delta":559831245},{"NoteNumber":57,"Velocity":45,"Duration":186951,"SoundDuration":186951,"Delta":559831245},{"NoteNumber":86,"Velocity":46,"Duration":93475,"SoundDuration":93475,"Delta":559924721},{"NoteNumber":84,"Velocity":47,"Duration":93475,"SoundDuration":93475,"Delta":560018196},{"NoteNumber":83,"Velocity":48,"Duration":93475,"SoundDuration":93475,"Delta":560111672},{"NoteNumber":81,"Velocity":49,"Duration":93475,"SoundDuration":93475,"Delta":560205147},{"NoteNumber":83,"Velocity":51,"Duration":93475,"SoundDuration":93475,"Delta":560298623},{"NoteNumber":84,"Velocity":52,"Duration":95950,"SoundDuration":95950,"Delta":560392098},{"NoteNumber":81,"Velocity":53,"Duration":95950,"SoundDuration":95950,"Delta":560488049},{"NoteNumber":53,"Velocity":44,"Duration":560852,"SoundDuration":560852,"Delta":560584000},{"NoteNumber":50,"Velocity":44,"Duration":931785,"SoundDuration":931785,"Delta":560584000},{"NoteNumber":65,"Velocity":38,"Duration":93475,"SoundDuration":93475,"Delta":560677475},{"NoteNumber":67,"Velocity":41,"Duration":93475,"SoundDuration":93475,"Delta":560770951},{"NoteNumber":69,"Velocity":42,"Duration":93475,"SoundDuration":93475,"Delta":560864426},{"NoteNumber":71,"Velocity":44,"Duration":93475,"SoundDuration":93475,"Delta":560957902},{"NoteNumber":72,"Velocity":47,"Duration":93475,"SoundDuration":93475,"Delta":561051377},{"NoteNumber":74,"Velocity":48,"Duration":91990,"SoundDuration":91990,"Delta":561144853},{"NoteNumber":57,"Velocity":43,"Duration":91990,"SoundDuration":91990,"Delta":561144853},{"NoteNumber":76,"Velocity":50,"Duration":91990,"SoundDuration":91990,"Delta":561236843},{"NoteNumber":55,"Velocity":43,"Duration":91990,"SoundDuration":91990,"Delta":561236843},{"NoteNumber":77,"Velocity":52,"Duration":93475,"SoundDuration":93475,"Delta":561328834},{"NoteNumber":53,"Velocity":49,"Duration":186951,"SoundDuration":186951,"Delta":561328834},{"NoteNumber":71,"Velocity":45,"Duration":93475,"SoundDuration":93475,"Delta":561422310},{"NoteNumber":72,"Velocity":47,"Duration":93475,"SoundDuration":93475,"Delta":561515785},{"NoteNumber":74,"Velocity":49,"Duration":93475,"SoundDuration":93475,"Delta":561609261},{"NoteNumber":76,"Velocity":51,"Duration":93475,"SoundDuration":93475,"Delta":561702736},{"NoteNumber":77,"Velocity":53,"Duration":93475,"SoundDuration":93475,"Delta":561796212},{"NoteNumber":79,"Velocity":54,"Duration":95950,"SoundDuration":95950,"Delta":561889687},{"NoteNumber":81,"Velocity":56,"Duration":95950,"SoundDuration":95950,"Delta":561985638},{"NoteNumber":50,"Velocity":35,"Duration":47975,"SoundDuration":47975,"Delta":562033613},{"NoteNumber":83,"Velocity":58,"Duration":93475,"SoundDuration":93475,"Delta":562081589},{"NoteNumber":65,"Velocity":55,"Duration":467377,"SoundDuration":467377,"Delta":562081589},{"NoteNumber":77,"Velocity":51,"Duration":93475,"SoundDuration":93475,"Delta":562175064},{"NoteNumber":79,"Velocity":52,"Duration":93475,"SoundDuration":93475,"Delta":562268540},{"NoteNumber":81,"Velocity":53,"Duration":93475,"SoundDuration":93475,"Delta":562362015},{"NoteNumber":83,"Velocity":55,"Duration":93475,"SoundDuration":93475,"Delta":562455491},{"NoteNumber":84,"Velocity":56,"Duration":93475,"SoundDuration":93475,"Delta":562548966},{"NoteNumber":64,"Velocity":46,"Duration":93475,"SoundDuration":93475,"Delta":562548966},{"NoteNumber":86,"Velocity":58,"Duration":91990,"SoundDuration":91990,"Delta":562642442},{"NoteNumber":62,"Velocity":46,"Duration":91990,"SoundDuration":91990,"Delta":562642442},{"NoteNumber":88,"Velocity":59,"Duration":91990,"SoundDuration":91990,"Delta":562734432},{"NoteNumber":60,"Velocity":46,"Duration":91990,"SoundDuration":91990,"Delta":562734432},{"NoteNumber":89,"Velocity":60,"Duration":93475,"SoundDuration":93475,"Delta":562826423},{"NoteNumber":59,"Velocity":52,"Duration":373902,"SoundDuration":373902,"Delta":562826423},{"NoteNumber":88,"Velocity":54,"Duration":93475,"SoundDuration":93475,"Delta":562919899},{"NoteNumber":86,"Velocity":55,"Duration":93475,"SoundDuration":93475,"Delta":563013374},{"NoteNumber":84,"Velocity":57,"Duration":93475,"SoundDuration":93475,"Delta":563106850},{"NoteNumber":83,"Velocity":58,"Duration":93475,"SoundDuration":93475,"Delta":563200325},{"NoteNumber":84,"Velocity":61,"Duration":93475,"SoundDuration":93475,"Delta":563293801},{"NoteNumber":86,"Velocity":62,"Duration":95950,"SoundDuration":95950,"Delta":563387276},{"NoteNumber":83,"Velocity":64,"Duration":120418,"SoundDuration":120418,"Delta":563483227},{"NoteNumber":52,"Velocity":40,"Duration":72442,"SoundDuration":72442,"Delta":563531202},{"NoteNumber":67,"Velocity":64,"Duration":467377,"SoundDuration":467377,"Delta":563603645},{"NoteNumber":79,"Velocity":56,"Duration":93475,"SoundDuration":93475,"Delta":563697120},{"NoteNumber":81,"Velocity":56,"Duration":93475,"SoundDuration":93475,"Delta":563790596},{"NoteNumber":83,"Velocity":57,"Duration":93475,"SoundDuration":93475,"Delta":563884071},{"NoteNumber":84,"Velocity":59,"Duration":93475,"SoundDuration":93475,"Delta":563977547},{"NoteNumber":86,"Velocity":60,"Duration":93475,"SoundDuration":93475,"Delta":564071022},{"NoteNumber":65,"Velocity":52,"Duration":93475,"SoundDuration":93475,"Delta":564071022},{"NoteNumber":88,"Velocity":62,"Duration":91990,"SoundDuration":91990,"Delta":564164498},{"NoteNumber":64,"Velocity":51,"Duration":91990,"SoundDuration":91990,"Delta":564164498},{"NoteNumber":89,"Velocity":63,"Duration":91990,"SoundDuration":91990,"Delta":564256489},{"NoteNumber":62,"Velocity":51,"Duration":91990,"SoundDuration":91990,"Delta":564256489},{"NoteNumber":91,"Velocity":65,"Duration":93475,"SoundDuration":93475,"Delta":564348479},{"NoteNumber":61,"Velocity":56,"Duration":373902,"SoundDuration":373902,"Delta":564348479},{"NoteNumber":89,"Velocity":57,"Duration":93475,"SoundDuration":93475,"Delta":564441955},{"NoteNumber":88,"Velocity":59,"Duration":93475,"SoundDuration":93475,"Delta":564535430},{"NoteNumber":86,"Velocity":60,"Duration":93475,"SoundDuration":93475,"Delta":564628906},{"NoteNumber":85,"Velocity":62,"Duration":93475,"SoundDuration":93475,"Delta":564722381},{"NoteNumber":86,"Velocity":65,"Duration":93475,"SoundDuration":93475,"Delta":564815857},{"NoteNumber":88,"Velocity":66,"Duration":95950,"SoundDuration":95950,"Delta":564909332},{"NoteNumber":85,"Velocity":68,"Duration":120418,"SoundDuration":120418,"Delta":565005283},{"NoteNumber":53,"Velocity":46,"Duration":72442,"SoundDuration":72442,"Delta":565053259},{"NoteNumber":69,"Velocity":73,"Duration":373902,"SoundDuration":373902,"Delta":565125701},{"NoteNumber":73,"Velocity":59,"Duration":93475,"SoundDuration":93475,"Delta":565219177},{"NoteNumber":74,"Velocity":59,"Duration":93475,"SoundDuration":93475,"Delta":565312652},{"NoteNumber":76,"Velocity":61,"Duration":93475,"SoundDuration":93475,"Delta":565406128},{"NoteNumber":77,"Velocity":63,"Duration":93475,"SoundDuration":93475,"Delta":565499603},{"NoteNumber":67,"Velocity":60,"Duration":93475,"SoundDuration":93475,"Delta":565499603},{"NoteNumber":79,"Velocity":64,"Duration":93521,"SoundDuration":93521,"Delta":565593079},{"NoteNumber":65,"Velocity":60,"Duration":93521,"SoundDuration":93521,"Delta":565593079},{"NoteNumber":81,"Velocity":66,"Duration":96644,"SoundDuration":96644,"Delta":565686600},{"NoteNumber":64,"Velocity":60,"Duration":96644,"SoundDuration":96644,"Delta":565686600},{"NoteNumber":77,"Velocity":67,"Duration":205973,"SoundDuration":205973,"Delta":565783245},{"NoteNumber":62,"Velocity":59,"Duration":49505,"SoundDuration":49505,"Delta":565783245},{"NoteNumber":55,"Velocity":47,"Duration":62993,"SoundDuration":62993,"Delta":565832750},{"NoteNumber":71,"Velocity":75,"Duration":373902,"SoundDuration":373902,"Delta":565895743},{"NoteNumber":75,"Velocity":61,"Duration":93475,"SoundDuration":93475,"Delta":565989219},{"NoteNumber":76,"Velocity":61,"Duration":93475,"SoundDuration":93475,"Delta":566082694},{"NoteNumber":77,"Velocity":64,"Duration":93475,"SoundDuration":93475,"Delta":566176170},{"NoteNumber":79,"Velocity":65,"Duration":93475,"SoundDuration":93475,"Delta":566269645},{"NoteNumber":69,"Velocity":62,"Duration":93475,"SoundDuration":93475,"Delta":566269645},{"NoteNumber":81,"Velocity":66,"Duration":93570,"SoundDuration":93570,"Delta":566363121},{"NoteNumber":67,"Velocity":62,"Duration":93570,"SoundDuration":93570,"Delta":566363121},{"NoteNumber":83,"Velocity":69,"Duration":95548,"SoundDuration":95548,"Delta":566456691},{"NoteNumber":65,"Velocity":63,"Duration":95548,"SoundDuration":95548,"Delta":566456691},{"NoteNumber":79,"Velocity":70,"Duration":203571,"SoundDuration":203571,"Delta":566552239},{"NoteNumber":64,"Velocity":62,"Duration":48701,"SoundDuration":48701,"Delta":566552239},{"NoteNumber":57,"Velocity":50,"Duration":61394,"SoundDuration":61394,"Delta":566600940},{"NoteNumber":72,"Velocity":78,"Duration":373902,"SoundDuration":373902,"Delta":566662335},{"NoteNumber":76,"Velocity":63,"Duration":93475,"SoundDuration":93475,"Delta":566755811},{"NoteNumber":77,"Velocity":64,"Duration":93475,"SoundDuration":93475,"Delta":566849286},{"NoteNumber":79,"Velocity":66,"Duration":93475,"SoundDuration":93475,"Delta":566942762},{"NoteNumber":81,"Velocity":68,"Duration":93475,"SoundDuration":93475,"Delta":567036237},{"NoteNumber":71,"Velocity":64,"Duration":93475,"SoundDuration":93475,"Delta":567036237},{"NoteNumber":83,"Velocity":69,"Duration":93475,"SoundDuration":93475,"Delta":567129713},{"NoteNumber":69,"Velocity":64,"Duration":93475,"SoundDuration":93475,"Delta":567129713},{"NoteNumber":84,"Velocity":72,"Duration":95298,"SoundDuration":95298,"Delta":567223188},{"NoteNumber":67,"Velocity":65,"Duration":95298,"SoundDuration":95298,"Delta":567223188},{"NoteNumber":81,"Velocity":73,"Duration":203783,"SoundDuration":203783,"Delta":567318487},{"NoteNumber":65,"Velocity":64,"Duration":48913,"SoundDuration":48913,"Delta":567318487},{"NoteNumber":59,"Velocity":54,"Duration":61394,"SoundDuration":61394,"Delta":567367400},{"NoteNumber":74,"Velocity":81,"Duration":373902,"SoundDuration":373902,"Delta":567428795},{"NoteNumber":78,"Velocity":66,"Duration":93475,"SoundDuration":93475,"Delta":567522270},{"NoteNumber":79,"Velocity":66,"Duration":93475,"SoundDuration":93475,"Delta":567615746},{"NoteNumber":81,"Velocity":68,"Duration":93475,"SoundDuration":93475,"Delta":567709221},{"NoteNumber":83,"Velocity":70,"Duration":93475,"SoundDuration":93475,"Delta":567802697},{"NoteNumber":72,"Velocity":67,"Duration":93475,"SoundDuration":93475,"Delta":567802697},{"NoteNumber":84,"Velocity":71,"Duration":93570,"SoundDuration":93570,"Delta":567896172},{"NoteNumber":71,"Velocity":67,"Duration":93570,"SoundDuration":93570,"Delta":567896172},{"NoteNumber":86,"Velocity":74,"Duration":95548,"SoundDuration":95548,"Delta":567989743},{"NoteNumber":69,"Velocity":67,"Duration":95548,"SoundDuration":95548,"Delta":567989743},{"NoteNumber":83,"Velocity":75,"Duration":202047,"SoundDuration":202047,"Delta":568085291},{"NoteNumber":67,"Velocity":66,"Duration":48701,"SoundDuration":48701,"Delta":568085291},{"NoteNumber":60,"Velocity":56,"Duration":59870,"SoundDuration":59870,"Delta":568133992},{"NoteNumber":76,"Velocity":84,"Duration":373902,"SoundDuration":373902,"Delta":568193863},{"NoteNumber":80,"Velocity":69,"Duration":93475,"SoundDuration":93475,"Delta":568287338},{"NoteNumber":81,"Velocity":69,"Duration":93475,"SoundDuration":93475,"Delta":568380814},{"NoteNumber":83,"Velocity":71,"Duration":93475,"SoundDuration":93475,"Delta":568474289},{"NoteNumber":84,"Velocity":73,"Duration":93475,"SoundDuration":93475,"Delta":568567765},{"NoteNumber":74,"Velocity":69,"Duration":93475,"SoundDuration":93475,"Delta":568567765},{"NoteNumber":86,"Velocity":74,"Duration":93570,"SoundDuration":93570,"Delta":568661240},{"NoteNumber":72,"Velocity":70,"Duration":93570,"SoundDuration":93570,"Delta":568661240},{"NoteNumber":88,"Velocity":77,"Duration":98088,"SoundDuration":98088,"Delta":568754810},{"NoteNumber":71,"Velocity":70,"Duration":98088,"SoundDuration":98088,"Delta":568754810},{"NoteNumber":84,"Velocity":79,"Duration":204021,"SoundDuration":204021,"Delta":568852899},{"NoteNumber":69,"Velocity":69,"Duration":50675,"SoundDuration":50675,"Delta":568852899},{"NoteNumber":62,"Velocity":58,"Duration":59870,"SoundDuration":59870,"Delta":568903574},{"NoteNumber":77,"Velocity":87,"Duration":373902,"SoundDuration":373902,"Delta":568963445},{"NoteNumber":82,"Velocity":71,"Duration":93475,"SoundDuration":93475,"Delta":569056920},{"NoteNumber":83,"Velocity":71,"Duration":93475,"SoundDuration":93475,"Delta":569150396},{"NoteNumber":84,"Velocity":74,"Duration":93475,"SoundDuration":93475,"Delta":569243871},{"NoteNumber":86,"Velocity":75,"Duration":93475,"SoundDuration":93475,"Delta":569337347},{"NoteNumber":76,"Velocity":71,"Duration":93475,"SoundDuration":93475,"Delta":569337347},{"NoteNumber":88,"Velocity":77,"Duration":93570,"SoundDuration":93570,"Delta":569430822},{"NoteNumber":74,"Velocity":72,"Duration":93570,"SoundDuration":93570,"Delta":569430822},{"NoteNumber":89,"Velocity":79,"Duration":95548,"SoundDuration":95548,"Delta":569524393},{"NoteNumber":72,"Velocity":72,"Duration":95548,"SoundDuration":95548,"Delta":569524393},{"NoteNumber":86,"Velocity":81,"Duration":98367,"SoundDuration":98367,"Delta":569619941},{"NoteNumber":71,"Velocity":71,"Duration":98367,"SoundDuration":98367,"Delta":569619941},{"NoteNumber":64,"Velocity":78,"Duration":63759,"SoundDuration":63759,"Delta":569718308},{"NoteNumber":72,"Velocity":74,"Duration":63759,"SoundDuration":63759,"Delta":569782068},{"NoteNumber":76,"Velocity":74,"Duration":63759,"SoundDuration":63759,"Delta":569845827},{"NoteNumber":79,"Velocity":76,"Duration":63759,"SoundDuration":63759,"Delta":569909586},{"NoteNumber":84,"Velocity":69,"Duration":63759,"SoundDuration":63759,"Delta":569973345},{"NoteNumber":91,"Velocity":70,"Duration":63759,"SoundDuration":63759,"Delta":570037104},{"NoteNumber":64,"Velocity":79,"Duration":63759,"SoundDuration":63759,"Delta":570100863},{"NoteNumber":72,"Velocity":74,"Duration":63759,"SoundDuration":63759,"Delta":570164623},{"NoteNumber":76,"Velocity":75,"Duration":63759,"SoundDuration":63759,"Delta":570228382},{"NoteNumber":79,"Velocity":78,"Duration":63759,"SoundDuration":63759,"Delta":570292141},{"NoteNumber":84,"Velocity":72,"Duration":63759,"SoundDuration":63759,"Delta":570355900},{"NoteNumber":91,"Velocity":71,"Duration":63759,"SoundDuration":63759,"Delta":570419659},{"NoteNumber":64,"Velocity":81,"Duration":63548,"SoundDuration":63548,"Delta":570483418},{"NoteNumber":72,"Velocity":77,"Duration":63759,"SoundDuration":63759,"Delta":570546967},{"NoteNumber":76,"Velocity":77,"Duration":63967,"SoundDuration":63967,"Delta":570610726},{"NoteNumber":80,"Velocity":80,"Duration":64180,"SoundDuration":64180,"Delta":570674693},{"NoteNumber":84,"Velocity":73,"Duration":64395,"SoundDuration":64395,"Delta":570738874},{"NoteNumber":92,"Velocity":74,"Duration":64612,"SoundDuration":64612,"Delta":570803270},{"NoteNumber":64,"Velocity":81,"Duration":64825,"SoundDuration":64825,"Delta":570867882},{"NoteNumber":72,"Velocity":78,"Duration":65044,"SoundDuration":65044,"Delta":570932707},{"NoteNumber":76,"Velocity":79,"Duration":65265,"SoundDuration":65265,"Delta":570997752},{"NoteNumber":80,"Velocity":82,"Duration":65487,"SoundDuration":65487,"Delta":571063018},{"NoteNumber":84,"Velocity":75,"Duration":65707,"SoundDuration":65707,"Delta":571128506},{"NoteNumber":92,"Velocity":75,"Duration":65989,"SoundDuration":65989,"Delta":571194213},{"NoteNumber":81,"Velocity":85,"Duration":100617,"SoundDuration":100617,"Delta":571260202},{"NoteNumber":72,"Velocity":75,"Duration":381098,"SoundDuration":381098,"Delta":571260202},{"NoteNumber":77,"Velocity":75,"Duration":381098,"SoundDuration":381098,"Delta":571260202},{"NoteNumber":65,"Velocity":75,"Duration":381098,"SoundDuration":381098,"Delta":571260202},{"NoteNumber":93,"Velocity":88,"Duration":93565,"SoundDuration":93565,"Delta":571360819},{"NoteNumber":91,"Velocity":87,"Duration":93457,"SoundDuration":93457,"Delta":571454384},{"NoteNumber":89,"Velocity":86,"Duration":93458,"SoundDuration":93458,"Delta":571547842},{"NoteNumber":88,"Velocity":86,"Duration":93457,"SoundDuration":93457,"Delta":571641300},{"NoteNumber":86,"Velocity":85,"Duration":93458,"SoundDuration":93458,"Delta":571734758},{"NoteNumber":84,"Velocity":84,"Duration":93457,"SoundDuration":93457,"Delta":571828216},{"NoteNumber":83,"Velocity":83,"Duration":93458,"SoundDuration":93458,"Delta":571921674},{"NoteNumber":81,"Velocity":82,"Duration":93652,"SoundDuration":93652,"Delta":572015132},{"NoteNumber":79,"Velocity":81,"Duration":93750,"SoundDuration":93750,"Delta":572108785},{"NoteNumber":77,"Velocity":80,"Duration":93750,"SoundDuration":93750,"Delta":572202535},{"NoteNumber":76,"Velocity":79,"Duration":93750,"SoundDuration":93750,"Delta":572296285},{"NoteNumber":74,"Velocity":78,"Duration":93750,"SoundDuration":93750,"Delta":572390035},{"NoteNumber":72,"Velocity":77,"Duration":93750,"SoundDuration":93750,"Delta":572483785},{"NoteNumber":71,"Velocity":77,"Duration":93750,"SoundDuration":93750,"Delta":572577535},{"NoteNumber":69,"Velocity":76,"Duration":93945,"SoundDuration":93945,"Delta":572671285},{"NoteNumber":68,"Velocity":75,"Duration":94044,"SoundDuration":94044,"Delta":572765231},{"NoteNumber":69,"Velocity":78,"Duration":94043,"SoundDuration":94043,"Delta":572859275},{"NoteNumber":67,"Velocity":77,"Duration":94044,"SoundDuration":94044,"Delta":572953319},{"NoteNumber":65,"Velocity":77,"Duration":94043,"SoundDuration":94043,"Delta":573047363},{"NoteNumber":64,"Velocity":77,"Duration":94044,"SoundDuration":94044,"Delta":573141407},{"NoteNumber":29,"Velocity":75,"Duration":469828,"SoundDuration":469828,"Delta":573141407},{"NoteNumber":62,"Velocity":77,"Duration":94044,"SoundDuration":94044,"Delta":573235451},{"NoteNumber":60,"Velocity":76,"Duration":94043,"SoundDuration":94043,"Delta":573329495},{"NoteNumber":59,"Velocity":76,"Duration":93946,"SoundDuration":93946,"Delta":573423539},{"NoteNumber":57,"Velocity":76,"Duration":93750,"SoundDuration":93750,"Delta":573517485},{"NoteNumber":55,"Velocity":75,"Duration":93750,"SoundDuration":93750,"Delta":573611235},{"NoteNumber":31,"Velocity":68,"Duration":93750,"SoundDuration":93750,"Delta":573611235},{"NoteNumber":53,"Velocity":75,"Duration":93847,"SoundDuration":93847,"Delta":573704985},{"NoteNumber":33,"Velocity":69,"Duration":93847,"SoundDuration":93847,"Delta":573704985},{"NoteNumber":52,"Velocity":75,"Duration":94044,"SoundDuration":94044,"Delta":573798833},{"NoteNumber":35,"Velocity":70,"Duration":94044,"SoundDuration":94044,"Delta":573798833},{"NoteNumber":50,"Velocity":75,"Duration":94240,"SoundDuration":94240,"Delta":573892877},{"NoteNumber":36,"Velocity":71,"Duration":94240,"SoundDuration":94240,"Delta":573892877},{"NoteNumber":48,"Velocity":74,"Duration":94339,"SoundDuration":94339,"Delta":573987118},{"NoteNumber":38,"Velocity":73,"Duration":94339,"SoundDuration":94339,"Delta":573987118},{"NoteNumber":47,"Velocity":74,"Duration":94538,"SoundDuration":94538,"Delta":574081458},{"NoteNumber":40,"Velocity":74,"Duration":94538,"SoundDuration":94538,"Delta":574081458},{"NoteNumber":45,"Velocity":74,"Duration":94637,"SoundDuration":94637,"Delta":574175996},{"NoteNumber":41,"Velocity":75,"Duration":94637,"SoundDuration":94637,"Delta":574175996},{"NoteNumber":43,"Velocity":75,"Duration":94936,"SoundDuration":94936,"Delta":574270633},{"NoteNumber":31,"Velocity":63,"Duration":379746,"SoundDuration":379746,"Delta":574270633},{"NoteNumber":36,"Velocity":63,"Duration":379746,"SoundDuration":379746,"Delta":574270633},{"NoteNumber":40,"Velocity":75,"Duration":379746,"SoundDuration":379746,"Delta":574270633},{"NoteNumber":48,"Velocity":75,"Duration":94936,"SoundDuration":94936,"Delta":574365570},{"NoteNumber":47,"Velocity":47,"Duration":94936,"SoundDuration":94936,"Delta":574460506},{"NoteNumber":50,"Velocity":47,"Duration":94936,"SoundDuration":94936,"Delta":574555443},{"NoteNumber":48,"Velocity":47,"Duration":94936,"SoundDuration":94936,"Delta":574650380},{"NoteNumber":52,"Velocity":48,"Duration":94936,"SoundDuration":94936,"Delta":574745317},{"NoteNumber":51,"Velocity":48,"Duration":94936,"SoundDuration":94936,"Delta":574840253},{"NoteNumber":53,"Velocity":48,"Duration":94936,"SoundDuration":94936,"Delta":574935190},{"NoteNumber":52,"Velocity":48,"Duration":94737,"SoundDuration":94737,"Delta":575030127},{"NoteNumber":55,"Velocity":49,"Duration":94637,"SoundDuration":94637,"Delta":575124864},{"NoteNumber":54,"Velocity":49,"Duration":94637,"SoundDuration":94637,"Delta":575219501},{"NoteNumber":57,"Velocity":49,"Duration":94637,"SoundDuration":94637,"Delta":575314138},{"NoteNumber":55,"Velocity":50,"Duration":94637,"SoundDuration":94637,"Delta":575408776},{"NoteNumber":60,"Velocity":50,"Duration":94637,"SoundDuration":94637,"Delta":575503413},{"NoteNumber":59,"Velocity":50,"Duration":94637,"SoundDuration":94637,"Delta":575598050},{"NoteNumber":62,"Velocity":51,"Duration":94637,"SoundDuration":94637,"Delta":575692687},{"NoteNumber":60,"Velocity":51,"Duration":93750,"SoundDuration":93750,"Delta":575787325},{"NoteNumber":64,"Velocity":51,"Duration":93750,"SoundDuration":93750,"Delta":575881075},{"NoteNumber":63,"Velocity":52,"Duration":93750,"SoundDuration":93750,"Delta":575974825},{"NoteNumber":65,"Velocity":52,"Duration":93750,"SoundDuration":93750,"Delta":576068575},{"NoteNumber":64,"Velocity":52,"Duration":93750,"SoundDuration":93750,"Delta":576162325},{"NoteNumber":67,"Velocity":53,"Duration":93750,"SoundDuration":93750,"Delta":576256075},{"NoteNumber":66,"Velocity":53,"Duration":93750,"SoundDuration":93750,"Delta":576349825},{"NoteNumber":69,"Velocity":53,"Duration":93750,"SoundDuration":93750,"Delta":576443575},{"NoteNumber":67,"Velocity":54,"Duration":93750,"SoundDuration":93750,"Delta":576537325},{"NoteNumber":72,"Velocity":54,"Duration":93750,"SoundDuration":93750,"Delta":576631075},{"NoteNumber":71,"Velocity":54,"Duration":93750,"SoundDuration":93750,"Delta":576724825},{"NoteNumber":74,"Velocity":55,"Duration":93750,"SoundDuration":93750,"Delta":576818575},{"NoteNumber":72,"Velocity":55,"Duration":93750,"SoundDuration":93750,"Delta":576912325},{"NoteNumber":76,"Velocity":55,"Duration":93750,"SoundDuration":93750,"Delta":577006075},{"NoteNumber":75,"Velocity":56,"Duration":93750,"SoundDuration":93750,"Delta":577099825},{"NoteNumber":77,"Velocity":56,"Duration":93750,"SoundDuration":93750,"Delta":577193575},{"NoteNumber":76,"Velocity":56,"Duration":93750,"SoundDuration":93750,"Delta":577287325},{"NoteNumber":79,"Velocity":58,"Duration":93750,"SoundDuration":93750,"Delta":577381075},{"NoteNumber":78,"Velocity":60,"Duration":93750,"SoundDuration":93750,"Delta":577474825},{"NoteNumber":81,"Velocity":62,"Duration":107326,"SoundDuration":107326,"Delta":577568575},{"NoteNumber":79,"Velocity":70,"Duration":46889,"SoundDuration":46889,"Delta":577675901},{"NoteNumber":84,"Velocity":62,"Duration":93779,"SoundDuration":93779,"Delta":577769681},{"NoteNumber":76,"Velocity":52,"Duration":93779,"SoundDuration":93779,"Delta":577769681},{"NoteNumber":83,"Velocity":62,"Duration":93779,"SoundDuration":93779,"Delta":577863460},{"NoteNumber":75,"Velocity":52,"Duration":93779,"SoundDuration":93779,"Delta":577863460},{"NoteNumber":84,"Velocity":63,"Duration":103092,"SoundDuration":103092,"Delta":577957239},{"NoteNumber":76,"Velocity":53,"Duration":103092,"SoundDuration":103092,"Delta":577957239},{"NoteNumber":79,"Velocity":70,"Duration":46875,"SoundDuration":46875,"Delta":578060332},{"NoteNumber":67,"Velocity":60,"Duration":46875,"SoundDuration":46875,"Delta":578060332},{"NoteNumber":88,"Velocity":63,"Duration":93750,"SoundDuration":93750,"Delta":578154082},{"NoteNumber":72,"Velocity":54,"Duration":93750,"SoundDuration":93750,"Delta":578154082},{"NoteNumber":87,"Velocity":64,"Duration":93750,"SoundDuration":93750,"Delta":578247832},{"NoteNumber":71,"Velocity":55,"Duration":93750,"SoundDuration":93750,"Delta":578247832},{"NoteNumber":88,"Velocity":65,"Duration":100000,"SoundDuration":100000,"Delta":578341582},{"NoteNumber":72,"Velocity":55,"Duration":100000,"SoundDuration":100000,"Delta":578341582},{"NoteNumber":79,"Velocity":72,"Duration":46875,"SoundDuration":46875,"Delta":578441582},{"NoteNumber":67,"Velocity":61,"Duration":46875,"SoundDuration":46875,"Delta":578441582},{"NoteNumber":84,"Velocity":65,"Duration":93750,"SoundDuration":93750,"Delta":578535332},{"NoteNumber":76,"Velocity":56,"Duration":93750,"SoundDuration":93750,"Delta":578535332},{"NoteNumber":83,"Velocity":66,"Duration":93750,"SoundDuration":93750,"Delta":578629082},{"NoteNumber":75,"Velocity":56,"Duration":93750,"SoundDuration":93750,"Delta":578629082},{"NoteNumber":84,"Velocity":66,"Duration":99667,"SoundDuration":99667,"Delta":578722832},{"NoteNumber":76,"Velocity":56,"Duration":99667,"SoundDuration":99667,"Delta":578722832},{"NoteNumber":79,"Velocity":74,"Duration":46875,"SoundDuration":46875,"Delta":578822500},{"NoteNumber":67,"Velocity":63,"Duration":46875,"SoundDuration":46875,"Delta":578822500},{"NoteNumber":88,"Velocity":67,"Duration":93750,"SoundDuration":93750,"Delta":578916250},{"NoteNumber":72,"Velocity":57,"Duration":93750,"SoundDuration":93750,"Delta":578916250},{"NoteNumber":87,"Velocity":68,"Duration":93750,"SoundDuration":93750,"Delta":579010000},{"NoteNumber":71,"Velocity":58,"Duration":93750,"SoundDuration":93750,"Delta":579010000},{"NoteNumber":88,"Velocity":68,"Duration":98684,"SoundDuration":98684,"Delta":579103750},{"NoteNumber":72,"Velocity":58,"Duration":98684,"SoundDuration":98684,"Delta":579103750},{"NoteNumber":79,"Velocity":76,"Duration":46875,"SoundDuration":46875,"Delta":579202434},{"NoteNumber":67,"Velocity":65,"Duration":46875,"SoundDuration":46875,"Delta":579202434},{"NoteNumber":84,"Velocity":69,"Duration":93750,"SoundDuration":93750,"Delta":579296184},{"NoteNumber":76,"Velocity":59,"Duration":93750,"SoundDuration":93750,"Delta":579296184},{"NoteNumber":83,"Velocity":69,"Duration":93750,"SoundDuration":93750,"Delta":579389934},{"NoteNumber":75,"Velocity":59,"Duration":93750,"SoundDuration":93750,"Delta":579389934},{"NoteNumber":84,"Velocity":70,"Duration":98360,"SoundDuration":98360,"Delta":579483684},{"NoteNumber":76,"Velocity":59,"Duration":98360,"SoundDuration":98360,"Delta":579483684},{"NoteNumber":79,"Velocity":78,"Duration":47021,"SoundDuration":47021,"Delta":579582045},{"NoteNumber":67,"Velocity":67,"Duration":47021,"SoundDuration":47021,"Delta":579582045},{"NoteNumber":88,"Velocity":71,"Duration":94043,"SoundDuration":94043,"Delta":579676089},{"NoteNumber":72,"Velocity":60,"Duration":94043,"SoundDuration":94043,"Delta":579676089},{"NoteNumber":87,"Velocity":71,"Duration":94044,"SoundDuration":94044,"Delta":579770133},{"NoteNumber":71,"Velocity":60,"Duration":94044,"SoundDuration":94044,"Delta":579770133},{"NoteNumber":88,"Velocity":71,"Duration":94043,"SoundDuration":94043,"Delta":579864177},{"NoteNumber":72,"Velocity":61,"Duration":94043,"SoundDuration":94043,"Delta":579864177},{"NoteNumber":79,"Velocity":80,"Duration":47042,"SoundDuration":47042,"Delta":579958221},{"NoteNumber":67,"Velocity":69,"Duration":47042,"SoundDuration":47042,"Delta":579958221},{"NoteNumber":84,"Velocity":72,"Duration":97686,"SoundDuration":97686,"Delta":580052926},{"NoteNumber":76,"Velocity":62,"Duration":97686,"SoundDuration":97686,"Delta":580052926},{"NoteNumber":83,"Velocity":73,"Duration":109157,"SoundDuration":109157,"Delta":580150612},{"NoteNumber":75,"Velocity":62,"Duration":109157,"SoundDuration":109157,"Delta":580150612},{"NoteNumber":84,"Velocity":73,"Duration":128227,"SoundDuration":128227,"Delta":580259770},{"NoteNumber":76,"Velocity":63,"Duration":128227,"SoundDuration":128227,"Delta":580259770},{"NoteNumber":89,"Velocity":87,"Duration":1483322,"SoundDuration":1483322,"Delta":580387997},{"NoteNumber":83,"Velocity":87,"Duration":1483322,"SoundDuration":1483322,"Delta":580387997},{"NoteNumber":74,"Velocity":73,"Duration":2185278,"SoundDuration":2185278,"Delta":580387997},{"NoteNumber":67,"Velocity":73,"Duration":2340273,"SoundDuration":2340273,"Delta":580387997},{"NoteNumber":77,"Velocity":73,"Duration":2041884,"SoundDuration":2041884,"Delta":580387997},{"NoteNumber":89,"Velocity":73,"Duration":68571,"SoundDuration":68571,"Delta":581871319},{"NoteNumber":88,"Velocity":73,"Duration":68907,"SoundDuration":68907,"Delta":581939891},{"NoteNumber":86,"Velocity":72,"Duration":69268,"SoundDuration":69268,"Delta":582008799},{"NoteNumber":84,"Velocity":71,"Duration":69632,"SoundDuration":69632,"Delta":582078067},{"NoteNumber":83,"Velocity":70,"Duration":69979,"SoundDuration":69979,"Delta":582147700},{"NoteNumber":81,"Velocity":69,"Duration":70351,"SoundDuration":70351,"Delta":582217679},{"NoteNumber":79,"Velocity":68,"Duration":70727,"SoundDuration":70727,"Delta":582288031},{"NoteNumber":77,"Velocity":68,"Duration":369512,"SoundDuration":369512,"Delta":582358758},{"NoteNumber":76,"Velocity":66,"Duration":71514,"SoundDuration":71514,"Delta":582429882},{"NoteNumber":74,"Velocity":66,"Duration":226874,"SoundDuration":226874,"Delta":582501396},{"NoteNumber":72,"Velocity":65,"Duration":73700,"SoundDuration":73700,"Delta":582573275},{"NoteNumber":71,"Velocity":65,"Duration":81294,"SoundDuration":81294,"Delta":582646975},{"NoteNumber":71,"Velocity":78,"Duration":1866851,"SoundDuration":1866851,"Delta":582728270},{"NoteNumber":77,"Velocity":78,"Duration":1866851,"SoundDuration":1866851,"Delta":582728270},{"NoteNumber":65,"Velocity":65,"Duration":2619819,"SoundDuration":2619819,"Delta":582728270},{"NoteNumber":55,"Velocity":65,"Duration":2619819,"SoundDuration":2619819,"Delta":582728270},{"NoteNumber":62,"Velocity":65,"Duration":2619819,"SoundDuration":2619819,"Delta":582728270},{"NoteNumber":77,"Velocity":64,"Duration":83335,"SoundDuration":83335,"Delta":584595122},{"NoteNumber":76,"Velocity":62,"Duration":85070,"SoundDuration":85070,"Delta":584678457},{"NoteNumber":74,"Velocity":60,"Duration":86707,"SoundDuration":86707,"Delta":584763527},{"NoteNumber":72,"Velocity":60,"Duration":88759,"SoundDuration":88759,"Delta":584850235},{"NoteNumber":71,"Velocity":60,"Duration":90548,"SoundDuration":90548,"Delta":584938994},{"NoteNumber":69,"Velocity":59,"Duration":96413,"SoundDuration":96413,"Delta":585029542},{"NoteNumber":67,"Velocity":56,"Duration":105456,"SoundDuration":105456,"Delta":585125956},{"NoteNumber":65,"Velocity":54,"Duration":116676,"SoundDuration":116676,"Delta":585231413},{"NoteNumber":55,"Velocity":42,"Duration":890405,"SoundDuration":890405,"Delta":585348089},{"NoteNumber":60,"Velocity":42,"Duration":890405,"SoundDuration":890405,"Delta":585348089},{"NoteNumber":64,"Velocity":50,"Duration":890405,"SoundDuration":890405,"Delta":585348089},{"NoteNumber":48,"Velocity":39,"Duration":890405,"SoundDuration":890405,"Delta":585348089},{"NoteNumber":36,"Velocity":33,"Duration":890405,"SoundDuration":890405,"Delta":585348089},{"NoteNumber":53,"Velocity":40,"Duration":435444,"SoundDuration":435444,"Delta":586238495},{"NoteNumber":59,"Velocity":40,"Duration":435444,"SoundDuration":435444,"Delta":586238495},{"NoteNumber":62,"Velocity":48,"Duration":435444,"SoundDuration":435444,"Delta":586238495},{"NoteNumber":44,"Velocity":29,"Duration":435444,"SoundDuration":435444,"Delta":586238495},{"NoteNumber":32,"Velocity":29,"Duration":435444,"SoundDuration":435444,"Delta":586238495},{"NoteNumber":52,"Velocity":40,"Duration":460759,"SoundDuration":460759,"Delta":586673940},{"NoteNumber":57,"Velocity":40,"Duration":460759,"SoundDuration":460759,"Delta":586673940},{"NoteNumber":60,"Velocity":48,"Duration":460759,"SoundDuration":460759,"Delta":586673940},{"NoteNumber":45,"Velocity":35,"Duration":460759,"SoundDuration":460759,"Delta":586673940},{"NoteNumber":33,"Velocity":29,"Duration":460759,"SoundDuration":460759,"Delta":586673940},{"NoteNumber":50,"Velocity":42,"Duration":893787,"SoundDuration":893787,"Delta":587134699},{"NoteNumber":56,"Velocity":42,"Duration":893787,"SoundDuration":893787,"Delta":587134699},{"NoteNumber":59,"Velocity":50,"Duration":893787,"SoundDuration":893787,"Delta":587134699},{"NoteNumber":40,"Velocity":39,"Duration":893787,"SoundDuration":893787,"Delta":587134699},{"NoteNumber":48,"Velocity":40,"Duration":914913,"SoundDuration":914913,"Delta":588028487},{"NoteNumber":57,"Velocity":48,"Duration":914913,"SoundDuration":914913,"Delta":588028487},{"NoteNumber":41,"Velocity":34,"Duration":914913,"SoundDuration":914913,"Delta":588028487},{"NoteNumber":65,"Velocity":45,"Duration":900562,"SoundDuration":900562,"Delta":588943400},{"NoteNumber":67,"Velocity":45,"Duration":900562,"SoundDuration":900562,"Delta":588943400},{"NoteNumber":71,"Velocity":53,"Duration":900562,"SoundDuration":900562,"Delta":588943400},{"NoteNumber":53,"Velocity":41,"Duration":900562,"SoundDuration":900562,"Delta":588943400},{"NoteNumber":55,"Velocity":34,"Duration":900562,"SoundDuration":900562,"Delta":588943400},{"NoteNumber":59,"Velocity":41,"Duration":900562,"SoundDuration":900562,"Delta":588943400},{"NoteNumber":50,"Velocity":34,"Duration":900562,"SoundDuration":900562,"Delta":588943400},{"NoteNumber":67,"Velocity":47,"Duration":440270,"SoundDuration":440270,"Delta":589843962},{"NoteNumber":72,"Velocity":56,"Duration":440270,"SoundDuration":440270,"Delta":589843962},{"NoteNumber":55,"Velocity":38,"Duration":440270,"SoundDuration":440270,"Delta":589843962},{"NoteNumber":60,"Velocity":46,"Duration":440270,"SoundDuration":440270,"Delta":589843962},{"NoteNumber":52,"Velocity":38,"Duration":440270,"SoundDuration":440270,"Delta":589843962},{"NoteNumber":69,"Velocity":51,"Duration":487211,"SoundDuration":487211,"Delta":590284232},{"NoteNumber":72,"Velocity":51,"Duration":487211,"SoundDuration":487211,"Delta":590284232},{"NoteNumber":74,"Velocity":62,"Duration":487211,"SoundDuration":487211,"Delta":590284232},{"NoteNumber":62,"Velocity":51,"Duration":487211,"SoundDuration":487211,"Delta":590284232},{"NoteNumber":53,"Velocity":43,"Duration":487211,"SoundDuration":487211,"Delta":590284232},{"NoteNumber":60,"Velocity":43,"Duration":487211,"SoundDuration":487211,"Delta":590284232},{"NoteNumber":57,"Velocity":43,"Duration":487211,"SoundDuration":487211,"Delta":590284232},{"NoteNumber":67,"Velocity":56,"Duration":1345765,"SoundDuration":1345765,"Delta":590771443},{"NoteNumber":72,"Velocity":56,"Duration":893787,"SoundDuration":893787,"Delta":590771443},{"NoteNumber":76,"Velocity":67,"Duration":893787,"SoundDuration":893787,"Delta":590771443},{"NoteNumber":55,"Velocity":46,"Duration":1817499,"SoundDuration":1817499,"Delta":590771443},{"NoteNumber":60,"Velocity":46,"Duration":893787,"SoundDuration":893787,"Delta":590771443},{"NoteNumber":64,"Velocity":56,"Duration":893787,"SoundDuration":893787,"Delta":590771443},{"NoteNumber":71,"Velocity":50,"Duration":923712,"SoundDuration":923712,"Delta":591665231},{"NoteNumber":74,"Velocity":60,"Duration":923712,"SoundDuration":923712,"Delta":591665231},{"NoteNumber":59,"Velocity":41,"Duration":923712,"SoundDuration":923712,"Delta":591665231},{"NoteNumber":62,"Velocity":49,"Duration":923712,"SoundDuration":923712,"Delta":591665231},{"NoteNumber":79,"Velocity":50,"Duration":235867,"SoundDuration":235867,"Delta":592117208},{"NoteNumber":77,"Velocity":49,"Duration":235867,"SoundDuration":235867,"Delta":592353076},{"NoteNumber":76,"Velocity":50,"Duration":879119,"SoundDuration":879119,"Delta":592588943},{"NoteNumber":72,"Velocity":42,"Duration":879119,"SoundDuration":879119,"Delta":592588943},{"NoteNumber":88,"Velocity":52,"Duration":439559,"SoundDuration":439559,"Delta":593028503},{"NoteNumber":84,"Velocity":44,"Duration":439559,"SoundDuration":439559,"Delta":593028503},{"NoteNumber":86,"Velocity":50,"Duration":428571,"SoundDuration":428571,"Delta":593468063},{"NoteNumber":83,"Velocity":42,"Duration":428571,"SoundDuration":428571,"Delta":593468063},{"NoteNumber":77,"Velocity":42,"Duration":428571,"SoundDuration":428571,"Delta":593468063},{"NoteNumber":74,"Velocity":48,"Duration":428571,"SoundDuration":428571,"Delta":593468063},{"NoteNumber":68,"Velocity":40,"Duration":428571,"SoundDuration":428571,"Delta":593468063},{"NoteNumber":71,"Velocity":40,"Duration":428571,"SoundDuration":428571,"Delta":593468063},{"NoteNumber":84,"Velocity":50,"Duration":449269,"SoundDuration":449269,"Delta":593896634},{"NoteNumber":81,"Velocity":42,"Duration":449269,"SoundDuration":449269,"Delta":593896634},{"NoteNumber":76,"Velocity":42,"Duration":449269,"SoundDuration":449269,"Delta":593896634},{"NoteNumber":69,"Velocity":40,"Duration":449269,"SoundDuration":449269,"Delta":593896634},{"NoteNumber":72,"Velocity":48,"Duration":449269,"SoundDuration":449269,"Delta":593896634},{"NoteNumber":74,"Velocity":45,"Duration":871522,"SoundDuration":871522,"Delta":594345904},{"NoteNumber":80,"Velocity":45,"Duration":871522,"SoundDuration":871522,"Delta":594345904},{"NoteNumber":83,"Velocity":53,"Duration":871522,"SoundDuration":871522,"Delta":594345904},{"NoteNumber":64,"Velocity":42,"Duration":871522,"SoundDuration":871522,"Delta":594345904},{"NoteNumber":68,"Velocity":42,"Duration":871522,"SoundDuration":871522,"Delta":594345904},{"NoteNumber":71,"Velocity":50,"Duration":871522,"SoundDuration":871522,"Delta":594345904},{"NoteNumber":72,"Velocity":42,"Duration":905591,"SoundDuration":905591,"Delta":595217426},{"NoteNumber":81,"Velocity":50,"Duration":905591,"SoundDuration":905591,"Delta":595217426},{"NoteNumber":65,"Velocity":40,"Duration":905591,"SoundDuration":905591,"Delta":595217426},{"NoteNumber":69,"Velocity":48,"Duration":905591,"SoundDuration":905591,"Delta":595217426},{"NoteNumber":72,"Velocity":45,"Duration":452796,"SoundDuration":452796,"Delta":596123018},{"NoteNumber":76,"Velocity":45,"Duration":452796,"SoundDuration":452796,"Delta":596123018},{"NoteNumber":79,"Velocity":53,"Duration":923976,"SoundDuration":923976,"Delta":596123018},{"NoteNumber":60,"Velocity":34,"Duration":452796,"SoundDuration":452796,"Delta":596123018},{"NoteNumber":64,"Velocity":40,"Duration":452796,"SoundDuration":452796,"Delta":596123018},{"NoteNumber":55,"Velocity":34,"Duration":2758068,"SoundDuration":2758068,"Delta":596123018},{"NoteNumber":74,"Velocity":40,"Duration":2305272,"SoundDuration":2305272,"Delta":596575814},{"NoteNumber":77,"Velocity":48,"Duration":2305272,"SoundDuration":2305272,"Delta":596575814},{"NoteNumber":65,"Velocity":35,"Duration":2305272,"SoundDuration":2305272,"Delta":596575814},{"NoteNumber":62,"Velocity":29,"Duration":2305272,"SoundDuration":2305272,"Delta":596575814},{"NoteNumber":81,"Velocity":53,"Duration":531726,"SoundDuration":531726,"Delta":597046994},{"NoteNumber":83,"Velocity":51,"Duration":1302366,"SoundDuration":1302366,"Delta":597578720},{"NoteNumber":60,"Velocity":45,"Duration":485005,"SoundDuration":485005,"Delta":598881086},{"NoteNumber":64,"Velocity":45,"Duration":485005,"SoundDuration":485005,"Delta":598881086},{"NoteNumber":67,"Velocity":53,"Duration":1971012,"SoundDuration":1971012,"Delta":598881086},{"NoteNumber":43,"Velocity":34,"Duration":4468672,"SoundDuration":4468672,"Delta":598881086},{"NoteNumber":52,"Velocity":40,"Duration":485005,"SoundDuration":485005,"Delta":598881086},{"NoteNumber":48,"Velocity":34,"Duration":485005,"SoundDuration":485005,"Delta":598881086},{"NoteNumber":62,"Velocity":40,"Duration":3983667,"SoundDuration":3983667,"Delta":599366091},{"NoteNumber":65,"Velocity":48,"Duration":3983667,"SoundDuration":3983667,"Delta":599366091},{"NoteNumber":50,"Velocity":29,"Duration":3983667,"SoundDuration":3983667,"Delta":599366091},{"NoteNumber":53,"Velocity":35,"Duration":3983667,"SoundDuration":3983667,"Delta":599366091},{"NoteNumber":68,"Velocity":56,"Duration":1030307,"SoundDuration":1030307,"Delta":600852099},{"NoteNumber":71,"Velocity":46,"Duration":1467352,"SoundDuration":1467352,"Delta":601882407},{"NoteNumber":48,"Velocity":45,"Duration":485005,"SoundDuration":485005,"Delta":603349759},{"NoteNumber":52,"Velocity":45,"Duration":485005,"SoundDuration":485005,"Delta":603349759},{"NoteNumber":55,"Velocity":53,"Duration":1971012,"SoundDuration":1971012,"Delta":603349759},{"NoteNumber":31,"Velocity":34,"Duration":4468672,"SoundDuration":4468672,"Delta":603349759},{"NoteNumber":36,"Velocity":34,"Duration":485005,"SoundDuration":485005,"Delta":603349759},{"NoteNumber":40,"Velocity":40,"Duration":485005,"SoundDuration":485005,"Delta":603349759},{"NoteNumber":50,"Velocity":40,"Duration":3983667,"SoundDuration":3983667,"Delta":603834764},{"NoteNumber":53,"Velocity":48,"Duration":3983667,"SoundDuration":3983667,"Delta":603834764},{"NoteNumber":38,"Velocity":29,"Duration":3983667,"SoundDuration":3983667,"Delta":603834764},{"NoteNumber":41,"Velocity":35,"Duration":3983667,"SoundDuration":3983667,"Delta":603834764},{"NoteNumber":57,"Velocity":56,"Duration":1030307,"SoundDuration":1030307,"Delta":605320772},{"NoteNumber":59,"Velocity":46,"Duration":1467352,"SoundDuration":1467352,"Delta":606351080},{"NoteNumber":52,"Velocity":28,"Duration":90416,"SoundDuration":90416,"Delta":607818432},{"NoteNumber":60,"Velocity":40,"Duration":180832,"SoundDuration":180832,"Delta":607818432},{"NoteNumber":48,"Velocity":25,"Duration":90416,"SoundDuration":90416,"Delta":607818432},{"NoteNumber":36,"Velocity":25,"Duration":90416,"SoundDuration":90416,"Delta":607818432},{"NoteNumber":60,"Velocity":28,"Duration":90416,"SoundDuration":90416,"Delta":607999264},{"NoteNumber":64,"Velocity":33,"Duration":90416,"SoundDuration":90416,"Delta":607999264},{"NoteNumber":55,"Velocity":26,"Duration":90416,"SoundDuration":90416,"Delta":607999264},{"NoteNumber":48,"Velocity":22,"Duration":90416,"SoundDuration":90416,"Delta":607999264},{"NoteNumber":60,"Velocity":28,"Duration":89831,"SoundDuration":89831,"Delta":608180096},{"NoteNumber":64,"Velocity":33,"Duration":89831,"SoundDuration":89831,"Delta":608180096},{"NoteNumber":55,"Velocity":26,"Duration":89831,"SoundDuration":89831,"Delta":608180096},{"NoteNumber":48,"Velocity":22,"Duration":89831,"SoundDuration":89831,"Delta":608180096},{"NoteNumber":60,"Velocity":28,"Duration":89831,"SoundDuration":89831,"Delta":608359758},{"NoteNumber":64,"Velocity":34,"Duration":89831,"SoundDuration":89831,"Delta":608359758},{"NoteNumber":55,"Velocity":27,"Duration":89831,"SoundDuration":89831,"Delta":608359758},{"NoteNumber":48,"Velocity":22,"Duration":89831,"SoundDuration":89831,"Delta":608359758},{"NoteNumber":60,"Velocity":28,"Duration":90559,"SoundDuration":90559,"Delta":608539420},{"NoteNumber":64,"Velocity":34,"Duration":90559,"SoundDuration":90559,"Delta":608539420},{"NoteNumber":48,"Velocity":22,"Duration":90559,"SoundDuration":90559,"Delta":608539420},{"NoteNumber":55,"Velocity":27,"Duration":90559,"SoundDuration":90559,"Delta":608539420},{"NoteNumber":60,"Velocity":28,"Duration":90705,"SoundDuration":90705,"Delta":608720686},{"NoteNumber":64,"Velocity":34,"Duration":90705,"SoundDuration":90705,"Delta":608720686},{"NoteNumber":55,"Velocity":28,"Duration":90705,"SoundDuration":90705,"Delta":608720686},{"NoteNumber":48,"Velocity":23,"Duration":90705,"SoundDuration":90705,"Delta":608720686},{"NoteNumber":60,"Velocity":29,"Duration":90122,"SoundDuration":90122,"Delta":608902098},{"NoteNumber":64,"Velocity":35,"Duration":90122,"SoundDuration":90122,"Delta":608902098},{"NoteNumber":55,"Velocity":28,"Duration":90122,"SoundDuration":90122,"Delta":608902098},{"NoteNumber":48,"Velocity":23,"Duration":90122,"SoundDuration":90122,"Delta":608902098},{"NoteNumber":60,"Velocity":29,"Duration":90122,"SoundDuration":90122,"Delta":609082343},{"NoteNumber":64,"Velocity":35,"Duration":90122,"SoundDuration":90122,"Delta":609082343},{"NoteNumber":55,"Velocity":29,"Duration":90122,"SoundDuration":90122,"Delta":609082343},{"NoteNumber":48,"Velocity":24,"Duration":90122,"SoundDuration":90122,"Delta":609082343},{"NoteNumber":60,"Velocity":30,"Duration":90318,"SoundDuration":90318,"Delta":609262588},{"NoteNumber":64,"Velocity":36,"Duration":90318,"SoundDuration":90318,"Delta":609262588},{"NoteNumber":48,"Velocity":25,"Duration":90318,"SoundDuration":90318,"Delta":609262588},{"NoteNumber":55,"Velocity":30,"Duration":90318,"SoundDuration":90318,"Delta":609262588},{"NoteNumber":60,"Velocity":30,"Duration":90416,"SoundDuration":90416,"Delta":609443322},{"NoteNumber":64,"Velocity":36,"Duration":90416,"SoundDuration":90416,"Delta":609443322},{"NoteNumber":48,"Velocity":22,"Duration":90416,"SoundDuration":90416,"Delta":609443322},{"NoteNumber":55,"Velocity":27,"Duration":90416,"SoundDuration":90416,"Delta":609443322},{"NoteNumber":60,"Velocity":31,"Duration":90122,"SoundDuration":90122,"Delta":609624154},{"NoteNumber":64,"Velocity":37,"Duration":90122,"SoundDuration":90122,"Delta":609624154},{"NoteNumber":48,"Velocity":23,"Duration":90122,"SoundDuration":90122,"Delta":609624154},{"NoteNumber":55,"Velocity":28,"Duration":90122,"SoundDuration":90122,"Delta":609624154},{"NoteNumber":60,"Velocity":32,"Duration":90122,"SoundDuration":90122,"Delta":609804399},{"NoteNumber":64,"Velocity":38,"Duration":90122,"SoundDuration":90122,"Delta":609804399},{"NoteNumber":55,"Velocity":29,"Duration":90122,"SoundDuration":90122,"Delta":609804399},{"NoteNumber":48,"Velocity":24,"Duration":90122,"SoundDuration":90122,"Delta":609804399},{"NoteNumber":60,"Velocity":33,"Duration":90416,"SoundDuration":90416,"Delta":609984644},{"NoteNumber":64,"Velocity":39,"Duration":90416,"SoundDuration":90416,"Delta":609984644},{"NoteNumber":55,"Velocity":30,"Duration":90416,"SoundDuration":90416,"Delta":609984644},{"NoteNumber":48,"Velocity":25,"Duration":90416,"SoundDuration":90416,"Delta":609984644},{"NoteNumber":60,"Velocity":34,"Duration":90416,"SoundDuration":90416,"Delta":610165476},{"NoteNumber":64,"Velocity":40,"Duration":90416,"SoundDuration":90416,"Delta":610165476},{"NoteNumber":48,"Velocity":25,"Duration":90416,"SoundDuration":90416,"Delta":610165476},{"NoteNumber":55,"Velocity":30,"Duration":90416,"SoundDuration":90416,"Delta":610165476},{"NoteNumber":62,"Velocity":34,"Duration":90416,"SoundDuration":90416,"Delta":610346308},{"NoteNumber":66,"Velocity":40,"Duration":90416,"SoundDuration":90416,"Delta":610346308},{"NoteNumber":57,"Velocity":30,"Duration":90416,"SoundDuration":90416,"Delta":610346308},{"NoteNumber":48,"Velocity":25,"Duration":90416,"SoundDuration":90416,"Delta":610346308},{"NoteNumber":62,"Velocity":34,"Duration":90416,"SoundDuration":90416,"Delta":610527140},{"NoteNumber":66,"Velocity":40,"Duration":90416,"SoundDuration":90416,"Delta":610527140},{"NoteNumber":48,"Velocity":25,"Duration":90416,"SoundDuration":90416,"Delta":610527140},{"NoteNumber":57,"Velocity":30,"Duration":90416,"SoundDuration":90416,"Delta":610527140},{"NoteNumber":67,"Velocity":52,"Duration":180832,"SoundDuration":180832,"Delta":610707972},{"NoteNumber":47,"Velocity":28,"Duration":135624,"SoundDuration":135624,"Delta":610707972},{"NoteNumber":50,"Velocity":28,"Duration":135624,"SoundDuration":135624,"Delta":610707972},{"NoteNumber":55,"Velocity":34,"Duration":135624,"SoundDuration":135624,"Delta":610707972},{"NoteNumber":71,"Velocity":46,"Duration":88694,"SoundDuration":88694,"Delta":610888804},{"NoteNumber":55,"Velocity":34,"Duration":133041,"SoundDuration":133041,"Delta":610888804},{"NoteNumber":47,"Velocity":28,"Duration":133041,"SoundDuration":133041,"Delta":610888804},{"NoteNumber":50,"Velocity":28,"Duration":133041,"SoundDuration":133041,"Delta":610888804},{"NoteNumber":69,"Velocity":46,"Duration":88694,"SoundDuration":88694,"Delta":610977498},{"NoteNumber":67,"Velocity":52,"Duration":90416,"SoundDuration":90416,"Delta":611066193},{"NoteNumber":47,"Velocity":28,"Duration":135624,"SoundDuration":135624,"Delta":611066193},{"NoteNumber":50,"Velocity":28,"Duration":135624,"SoundDuration":135624,"Delta":611066193},{"NoteNumber":55,"Velocity":34,"Duration":135624,"SoundDuration":135624,"Delta":611066193},{"NoteNumber":47,"Velocity":28,"Duration":135624,"SoundDuration":135624,"Delta":611247025},{"NoteNumber":50,"Velocity":28,"Duration":135624,"SoundDuration":135624,"Delta":611247025},{"NoteNumber":55,"Velocity":35,"Duration":135624,"SoundDuration":135624,"Delta":611247025},{"NoteNumber":72,"Velocity":65,"Duration":180832,"SoundDuration":180832,"Delta":611427857},{"NoteNumber":46,"Velocity":34,"Duration":135624,"SoundDuration":135624,"Delta":611427857},{"NoteNumber":48,"Velocity":34,"Duration":135624,"SoundDuration":135624,"Delta":611427857},{"NoteNumber":55,"Velocity":42,"Duration":135624,"SoundDuration":135624,"Delta":611427857},{"NoteNumber":76,"Velocity":58,"Duration":88694,"SoundDuration":88694,"Delta":611608689},{"NoteNumber":55,"Velocity":42,"Duration":133041,"SoundDuration":133041,"Delta":611608689},{"NoteNumber":46,"Velocity":34,"Duration":133041,"SoundDuration":133041,"Delta":611608689},{"NoteNumber":48,"Velocity":34,"Duration":133041,"SoundDuration":133041,"Delta":611608689},{"NoteNumber":74,"Velocity":58,"Duration":88694,"SoundDuration":88694,"Delta":611697383},{"NoteNumber":72,"Velocity":64,"Duration":90416,"SoundDuration":90416,"Delta":611786078},{"NoteNumber":55,"Velocity":42,"Duration":135624,"SoundDuration":135624,"Delta":611786078},{"NoteNumber":48,"Velocity":35,"Duration":135624,"SoundDuration":135624,"Delta":611786078},{"NoteNumber":46,"Velocity":35,"Duration":135624,"SoundDuration":135624,"Delta":611786078},{"NoteNumber":55,"Velocity":43,"Duration":135624,"SoundDuration":135624,"Delta":611966910},{"NoteNumber":46,"Velocity":35,"Duration":135624,"SoundDuration":135624,"Delta":611966910},{"NoteNumber":48,"Velocity":35,"Duration":135624,"SoundDuration":135624,"Delta":611966910},{"NoteNumber":77,"Velocity":75,"Duration":180832,"SoundDuration":180832,"Delta":612147742},{"NoteNumber":45,"Velocity":38,"Duration":135624,"SoundDuration":135624,"Delta":612147742},{"NoteNumber":48,"Velocity":38,"Duration":135624,"SoundDuration":135624,"Delta":612147742},{"NoteNumber":53,"Velocity":48,"Duration":135624,"SoundDuration":135624,"Delta":612147742},{"NoteNumber":81,"Velocity":65,"Duration":88694,"SoundDuration":88694,"Delta":612328574},{"NoteNumber":45,"Velocity":38,"Duration":133041,"SoundDuration":133041,"Delta":612328574},{"NoteNumber":48,"Velocity":38,"Duration":133041,"SoundDuration":133041,"Delta":612328574},{"NoteNumber":53,"Velocity":48,"Duration":133041,"SoundDuration":133041,"Delta":612328574},{"NoteNumber":79,"Velocity":65,"Duration":88694,"SoundDuration":88694,"Delta":612417268},{"NoteNumber":77,"Velocity":73,"Duration":90416,"SoundDuration":90416,"Delta":612505963},{"NoteNumber":45,"Velocity":39,"Duration":135624,"SoundDuration":135624,"Delta":612505963},{"NoteNumber":48,"Velocity":39,"Duration":135624,"SoundDuration":135624,"Delta":612505963},{"NoteNumber":53,"Velocity":49,"Duration":135624,"SoundDuration":135624,"Delta":612505963},{"NoteNumber":45,"Velocity":39,"Duration":135624,"SoundDuration":135624,"Delta":612686795},{"NoteNumber":53,"Velocity":49,"Duration":135624,"SoundDuration":135624,"Delta":612686795},{"NoteNumber":48,"Velocity":39,"Duration":135624,"SoundDuration":135624,"Delta":612686795},{"NoteNumber":89,"Velocity":87,"Duration":90416,"SoundDuration":90416,"Delta":612867627},{"NoteNumber":44,"Velocity":62,"Duration":135624,"SoundDuration":135624,"Delta":612867627},{"NoteNumber":48,"Velocity":62,"Duration":135624,"SoundDuration":135624,"Delta":612867627},{"NoteNumber":53,"Velocity":62,"Duration":135624,"SoundDuration":135624,"Delta":612867627},{"NoteNumber":88,"Velocity":79,"Duration":90416,"SoundDuration":90416,"Delta":612958043},{"NoteNumber":89,"Velocity":79,"Duration":90416,"SoundDuration":90416,"Delta":613048459},{"NoteNumber":32,"Velocity":55,"Duration":135624,"SoundDuration":135624,"Delta":613048459},{"NoteNumber":44,"Velocity":55,"Duration":135624,"SoundDuration":135624,"Delta":613048459},{"NoteNumber":88,"Velocity":79,"Duration":90416,"SoundDuration":90416,"Delta":613138875},{"NoteNumber":89,"Velocity":79,"Duration":90416,"SoundDuration":90416,"Delta":613229291},{"NoteNumber":32,"Velocity":55,"Duration":135624,"SoundDuration":135624,"Delta":613229291},{"NoteNumber":44,"Velocity":55,"Duration":135624,"SoundDuration":135624,"Delta":613229291},{"NoteNumber":88,"Velocity":79,"Duration":90416,"SoundDuration":90416,"Delta":613319707},{"NoteNumber":89,"Velocity":79,"Duration":90416,"SoundDuration":90416,"Delta":613410123},{"NoteNumber":32,"Velocity":55,"Duration":135624,"SoundDuration":135624,"Delta":613410123},{"NoteNumber":44,"Velocity":55,"Duration":135624,"SoundDuration":135624,"Delta":613410123},{"NoteNumber":88,"Velocity":79,"Duration":90416,"SoundDuration":90416,"Delta":613500539},{"NoteNumber":89,"Velocity":78,"Duration":90415,"SoundDuration":90415,"Delta":613590955},{"NoteNumber":43,"Velocity":56,"Duration":90415,"SoundDuration":90415,"Delta":613590955},{"NoteNumber":31,"Velocity":56,"Duration":90415,"SoundDuration":90415,"Delta":613590955},{"NoteNumber":88,"Velocity":78,"Duration":90416,"SoundDuration":90416,"Delta":613681371},{"NoteNumber":33,"Velocity":57,"Duration":90416,"SoundDuration":90416,"Delta":613681371},{"NoteNumber":86,"Velocity":79,"Duration":90416,"SoundDuration":90416,"Delta":613771787},{"NoteNumber":35,"Velocity":57,"Duration":90416,"SoundDuration":90416,"Delta":613771787},{"NoteNumber":84,"Velocity":80,"Duration":90416,"SoundDuration":90416,"Delta":613862203},{"NoteNumber":36,"Velocity":58,"Duration":90416,"SoundDuration":90416,"Delta":613862203},{"NoteNumber":83,"Velocity":81,"Duration":90416,"SoundDuration":90416,"Delta":613952619},{"NoteNumber":38,"Velocity":59,"Duration":90416,"SoundDuration":90416,"Delta":613952619},{"NoteNumber":81,"Velocity":82,"Duration":90416,"SoundDuration":90416,"Delta":614043035},{"NoteNumber":40,"Velocity":59,"Duration":90416,"SoundDuration":90416,"Delta":614043035},{"NoteNumber":79,"Velocity":83,"Duration":90416,"SoundDuration":90416,"Delta":614133451},{"NoteNumber":41,"Velocity":60,"Duration":90416,"SoundDuration":90416,"Delta":614133451},{"NoteNumber":77,"Velocity":84,"Duration":90416,"SoundDuration":90416,"Delta":614223867},{"NoteNumber":43,"Velocity":62,"Duration":90416,"SoundDuration":90416,"Delta":614223867},{"NoteNumber":76,"Velocity":85,"Duration":90650,"SoundDuration":90650,"Delta":614314283},{"NoteNumber":45,"Velocity":62,"Duration":90650,"SoundDuration":90650,"Delta":614314283},{"NoteNumber":74,"Velocity":86,"Duration":91413,"SoundDuration":91413,"Delta":614404934},{"NoteNumber":47,"Velocity":63,"Duration":91413,"SoundDuration":91413,"Delta":614404934},{"NoteNumber":72,"Velocity":88,"Duration":92285,"SoundDuration":92285,"Delta":614496348},{"NoteNumber":48,"Velocity":63,"Duration":92285,"SoundDuration":92285,"Delta":614496348},{"NoteNumber":71,"Velocity":89,"Duration":93176,"SoundDuration":93176,"Delta":614588633},{"NoteNumber":50,"Velocity":64,"Duration":93176,"SoundDuration":93176,"Delta":614588633},{"NoteNumber":69,"Velocity":90,"Duration":94085,"SoundDuration":94085,"Delta":614681809},{"NoteNumber":52,"Velocity":65,"Duration":94085,"SoundDuration":94085,"Delta":614681809},{"NoteNumber":67,"Velocity":92,"Duration":95009,"SoundDuration":95009,"Delta":614775895},{"NoteNumber":53,"Velocity":66,"Duration":95009,"SoundDuration":95009,"Delta":614775895},{"NoteNumber":65,"Velocity":92,"Duration":95953,"SoundDuration":95953,"Delta":614870905},{"NoteNumber":55,"Velocity":67,"Duration":95953,"SoundDuration":95953,"Delta":614870905},{"NoteNumber":64,"Velocity":93,"Duration":96916,"SoundDuration":96916,"Delta":614966858},{"NoteNumber":57,"Velocity":68,"Duration":96916,"SoundDuration":96916,"Delta":614966858},{"NoteNumber":62,"Velocity":100,"Duration":195134,"SoundDuration":195134,"Delta":615063775},{"NoteNumber":53,"Velocity":78,"Duration":195134,"SoundDuration":195134,"Delta":615063775},{"NoteNumber":41,"Velocity":66,"Duration":195134,"SoundDuration":195134,"Delta":615063775},{"NoteNumber":67,"Velocity":85,"Duration":195134,"SoundDuration":195134,"Delta":615454044},{"NoteNumber":71,"Velocity":85,"Duration":195134,"SoundDuration":195134,"Delta":615454044},{"NoteNumber":74,"Velocity":100,"Duration":195134,"SoundDuration":195134,"Delta":615454044},{"NoteNumber":79,"Velocity":100,"Duration":195134,"SoundDuration":195134,"Delta":615454044},{"NoteNumber":43,"Velocity":66,"Duration":195134,"SoundDuration":195134,"Delta":615454044},{"NoteNumber":47,"Velocity":66,"Duration":195134,"SoundDuration":195134,"Delta":615454044},{"NoteNumber":50,"Velocity":78,"Duration":195134,"SoundDuration":195134,"Delta":615454044},{"NoteNumber":55,"Velocity":78,"Duration":195134,"SoundDuration":195134,"Delta":615454044},{"NoteNumber":64,"Velocity":89,"Duration":195134,"SoundDuration":195134,"Delta":616624851},{"NoteNumber":67,"Velocity":89,"Duration":195134,"SoundDuration":195134,"Delta":616624851},{"NoteNumber":72,"Velocity":106,"Duration":195134,"SoundDuration":195134,"Delta":616624851},{"NoteNumber":76,"Velocity":106,"Duration":195134,"SoundDuration":195134,"Delta":616624851},{"NoteNumber":60,"Velocity":78,"Duration":195134,"SoundDuration":195134,"Delta":616624851},{"NoteNumber":55,"Velocity":78,"Duration":195134,"SoundDuration":195134,"Delta":616624851},{"NoteNumber":48,"Velocity":66,"Duration":195134,"SoundDuration":195134,"Delta":616624851},{"NoteNumber":52,"Velocity":66,"Duration":195134,"SoundDuration":195134,"Delta":616624851},{"NoteNumber":67,"Velocity":89,"Duration":195134,"SoundDuration":195134,"Delta":617405389},{"NoteNumber":71,"Velocity":89,"Duration":195134,"SoundDuration":195134,"Delta":617405389},{"NoteNumber":74,"Velocity":106,"Duration":195134,"SoundDuration":195134,"Delta":617405389},{"NoteNumber":79,"Velocity":106,"Duration":195134,"SoundDuration":195134,"Delta":617405389},{"NoteNumber":47,"Velocity":66,"Duration":195134,"SoundDuration":195134,"Delta":617405389},{"NoteNumber":43,"Velocity":66,"Duration":195134,"SoundDuration":195134,"Delta":617405389},{"NoteNumber":50,"Velocity":78,"Duration":195134,"SoundDuration":195134,"Delta":617405389},{"NoteNumber":55,"Velocity":78,"Duration":195134,"SoundDuration":195134,"Delta":617405389},{"NoteNumber":84,"Velocity":106,"Duration":212299,"SoundDuration":212299,"Delta":618220256},{"NoteNumber":79,"Velocity":106,"Duration":212299,"SoundDuration":212299,"Delta":618220256},{"NoteNumber":76,"Velocity":89,"Duration":212299,"SoundDuration":212299,"Delta":618220256},{"NoteNumber":72,"Velocity":89,"Duration":212299,"SoundDuration":212299,"Delta":618220256},{"NoteNumber":36,"Velocity":65,"Duration":212299,"SoundDuration":212299,"Delta":618220256},{"NoteNumber":40,"Velocity":65,"Duration":212299,"SoundDuration":212299,"Delta":618220256},{"NoteNumber":43,"Velocity":77,"Duration":212299,"SoundDuration":212299,"Delta":618220256},{"NoteNumber":48,"Velocity":77,"Duration":212299,"SoundDuration":212299,"Delta":618220256}],"license":{"name":"Creative Commons Attribution-ShareAlike 3.0 Germany","url":"http://creativecommons.org/licenses/by-sa/3.0/de/deed.en","text":"The MIDI, audio (MP3, OGG) and video files of Bernd Krueger are licensed under the cc-by-sa Germany License. This means that you can use and adapt the files, as long as you attribute the copyright holder.\n\nName: Bernd Krueger\nSource: http://www.piano-midi.de\n\nThe distribution or public playback of the files is only allowed under identical license conditions.\n\nThe scores are open source.","attribution":"MIDI files by Bernd Krueger (piano-midi.de)","attributionUrl":"http://www.piano-midi.de"}}