{"title":"3. Movement","artist":"Beethoven","durationMs":578098,"midiSha256":"312f58086883198ab8a5b62872e7edcb2cb5ae2d1bad7a0b4424d3ae96dfa4af","midiObject":[{"NoteNumber":36,"Velocity":50,"Duration":327498,"SoundDuration":327498,"Delta":0},{"NoteNumber":52,"Velocity":28,"Duration":163375,"SoundDuration":163375,"Delta":164122},{"NoteNumber":55,"Velocity":30,"Duration":161609,"SoundDuration":161609,"Delta":327498},{"NoteNumber":60,"Velocity":32,"Duration":159887,"SoundDuration":159887,"Delta":489108},{"NoteNumber":64,"Velocity":34,"Duration":158478,"SoundDuration":158478,"Delta":648995},{"NoteNumber":79,"Velocity":50,"Duration":316956,"SoundDuration":316956,"Delta":648995},{"NoteNumber":52,"Velocity":31,"Duration":158478,"SoundDuration":158478,"Delta":807473},{"NoteNumber":55,"Velocity":31,"Duration":158478,"SoundDuration":158478,"Delta":965952},{"NoteNumber":60,"Velocity":31,"Duration":158478,"SoundDuration":158478,"Delta":1124430},{"NoteNumber":64,"Velocity":35,"Duration":152037,"SoundDuration":152037,"Delta":1282909},{"NoteNumber":79,"Velocity":54,"Duration":912223,"SoundDuration":912223,"Delta":1282909},{"NoteNumber":52,"Velocity":30,"Duration":152037,"SoundDuration":152037,"Delta":1434946},{"NoteNumber":55,"Velocity":31,"Duration":152037,"SoundDuration":152037,"Delta":1586983},{"NoteNumber":60,"Velocity":33,"Duration":152037,"SoundDuration":152037,"Delta":1739021},{"NoteNumber":64,"Velocity":36,"Duration":152037,"SoundDuration":152037,"Delta":1891058},{"NoteNumber":52,"Velocity":33,"Duration":152037,"SoundDuration":152037,"Delta":2043095},{"NoteNumber":55,"Velocity":33,"Duration":152037,"SoundDuration":152037,"Delta":2195132},{"NoteNumber":76,"Velocity":47,"Duration":304074,"SoundDuration":304074,"Delta":2195132},{"NoteNumber":60,"Velocity":33,"Duration":152037,"SoundDuration":152037,"Delta":2347170},{"NoteNumber":74,"Velocity":50,"Duration":573230,"SoundDuration":573230,"Delta":2499207},{"NoteNumber":53,"Velocity":28,"Duration":143307,"SoundDuration":143307,"Delta":2642514},{"NoteNumber":55,"Velocity":31,"Duration":143307,"SoundDuration":143307,"Delta":2785822},{"NoteNumber":59,"Velocity":33,"Duration":143307,"SoundDuration":143307,"Delta":2929129},{"NoteNumber":62,"Velocity":36,"Duration":149016,"SoundDuration":149016,"Delta":3072437},{"NoteNumber":67,"Velocity":41,"Duration":596066,"SoundDuration":596066,"Delta":3072437},{"NoteNumber":53,"Velocity":33,"Duration":149016,"SoundDuration":149016,"Delta":3221453},{"NoteNumber":55,"Velocity":33,"Duration":149016,"SoundDuration":149016,"Delta":3370470},{"NoteNumber":59,"Velocity":34,"Duration":149016,"SoundDuration":149016,"Delta":3519486},{"NoteNumber":72,"Velocity":50,"Duration":616902,"SoundDuration":616902,"Delta":3668503},{"NoteNumber":52,"Velocity":28,"Duration":154225,"SoundDuration":154225,"Delta":3822729},{"NoteNumber":55,"Velocity":30,"Duration":154225,"SoundDuration":154225,"Delta":3976954},{"NoteNumber":60,"Velocity":32,"Duration":154225,"SoundDuration":154225,"Delta":4131180},{"NoteNumber":64,"Velocity":34,"Duration":154225,"SoundDuration":154225,"Delta":4285406},{"NoteNumber":76,"Velocity":47,"Duration":308451,"SoundDuration":308451,"Delta":4285406},{"NoteNumber":52,"Velocity":32,"Duration":154225,"SoundDuration":154225,"Delta":4439632},{"NoteNumber":55,"Velocity":32,"Duration":154225,"SoundDuration":154225,"Delta":4593857},{"NoteNumber":60,"Velocity":33,"Duration":152738,"SoundDuration":152738,"Delta":4748083},{"NoteNumber":48,"Velocity":31,"Duration":152738,"SoundDuration":152738,"Delta":4748083},{"NoteNumber":36,"Velocity":50,"Duration":309000,"SoundDuration":309000,"Delta":4900822},{"NoteNumber":52,"Velocity":28,"Duration":153731,"SoundDuration":153731,"Delta":5056091},{"NoteNumber":55,"Velocity":30,"Duration":152455,"SoundDuration":152455,"Delta":5209822},{"NoteNumber":60,"Velocity":32,"Duration":150962,"SoundDuration":150962,"Delta":5362278},{"NoteNumber":64,"Velocity":34,"Duration":149745,"SoundDuration":149745,"Delta":5513240},{"NoteNumber":79,"Velocity":50,"Duration":299490,"SoundDuration":299490,"Delta":5513240},{"NoteNumber":52,"Velocity":31,"Duration":149745,"SoundDuration":149745,"Delta":5662985},{"NoteNumber":55,"Velocity":31,"Duration":149745,"SoundDuration":149745,"Delta":5812731},{"NoteNumber":60,"Velocity":31,"Duration":149745,"SoundDuration":149745,"Delta":5962476},{"NoteNumber":64,"Velocity":35,"Duration":146198,"SoundDuration":146198,"Delta":6112222},{"NoteNumber":79,"Velocity":54,"Duration":877192,"SoundDuration":877192,"Delta":6112222},{"NoteNumber":52,"Velocity":30,"Duration":146198,"SoundDuration":146198,"Delta":6258420},{"NoteNumber":55,"Velocity":31,"Duration":146198,"SoundDuration":146198,"Delta":6404619},{"NoteNumber":60,"Velocity":33,"Duration":146198,"SoundDuration":146198,"Delta":6550818},{"NoteNumber":64,"Velocity":36,"Duration":146198,"SoundDuration":146198,"Delta":6697017},{"NoteNumber":52,"Velocity":33,"Duration":146198,"SoundDuration":146198,"Delta":6843215},{"NoteNumber":55,"Velocity":33,"Duration":146198,"SoundDuration":146198,"Delta":6989414},{"NoteNumber":76,"Velocity":47,"Duration":292397,"SoundDuration":292397,"Delta":6989414},{"NoteNumber":60,"Velocity":33,"Duration":146198,"SoundDuration":146198,"Delta":7135613},{"NoteNumber":74,"Velocity":50,"Duration":560851,"SoundDuration":560851,"Delta":7281812},{"NoteNumber":53,"Velocity":28,"Duration":140213,"SoundDuration":140213,"Delta":7422025},{"NoteNumber":55,"Velocity":31,"Duration":140212,"SoundDuration":140212,"Delta":7562238},{"NoteNumber":59,"Velocity":33,"Duration":140213,"SoundDuration":140213,"Delta":7702451},{"NoteNumber":62,"Velocity":36,"Duration":146198,"SoundDuration":146198,"Delta":7842664},{"NoteNumber":67,"Velocity":41,"Duration":584795,"SoundDuration":584795,"Delta":7842664},{"NoteNumber":53,"Velocity":33,"Duration":146198,"SoundDuration":146198,"Delta":7988862},{"NoteNumber":55,"Velocity":33,"Duration":146198,"SoundDuration":146198,"Delta":8135061},{"NoteNumber":59,"Velocity":34,"Duration":146198,"SoundDuration":146198,"Delta":8281260},{"NoteNumber":72,"Velocity":50,"Duration":299490,"SoundDuration":299490,"Delta":8427459},{"NoteNumber":52,"Velocity":30,"Duration":149745,"SoundDuration":149745,"Delta":8726950},{"NoteNumber":55,"Velocity":32,"Duration":149745,"SoundDuration":149745,"Delta":8876695},{"NoteNumber":60,"Velocity":34,"Duration":149745,"SoundDuration":149745,"Delta":9026441},{"NoteNumber":64,"Velocity":32,"Duration":149745,"SoundDuration":149745,"Delta":9176186},{"NoteNumber":62,"Velocity":32,"Duration":149745,"SoundDuration":149745,"Delta":9325932},{"NoteNumber":60,"Velocity":33,"Duration":150466,"SoundDuration":150466,"Delta":9475677},{"NoteNumber":43,"Velocity":30,"Duration":150466,"SoundDuration":150466,"Delta":9475677},{"NoteNumber":59,"Velocity":35,"Duration":157364,"SoundDuration":157364,"Delta":9626144},{"NoteNumber":31,"Velocity":45,"Duration":309820,"SoundDuration":309820,"Delta":9626144},{"NoteNumber":55,"Velocity":28,"Duration":152455,"SoundDuration":152455,"Delta":9783508},{"NoteNumber":59,"Velocity":30,"Duration":150473,"SoundDuration":150473,"Delta":9935964},{"NoteNumber":62,"Velocity":32,"Duration":148301,"SoundDuration":148301,"Delta":10086438},{"NoteNumber":67,"Velocity":34,"Duration":147579,"SoundDuration":147579,"Delta":10234739},{"NoteNumber":77,"Velocity":50,"Duration":295159,"SoundDuration":295159,"Delta":10234739},{"NoteNumber":55,"Velocity":31,"Duration":147579,"SoundDuration":147579,"Delta":10382319},{"NoteNumber":59,"Velocity":31,"Duration":147579,"SoundDuration":147579,"Delta":10529899},{"NoteNumber":62,"Velocity":31,"Duration":147579,"SoundDuration":147579,"Delta":10677479},{"NoteNumber":67,"Velocity":35,"Duration":143471,"SoundDuration":143471,"Delta":10825058},{"NoteNumber":77,"Velocity":54,"Duration":860832,"SoundDuration":860832,"Delta":10825058},{"NoteNumber":55,"Velocity":30,"Duration":143472,"SoundDuration":143472,"Delta":10968530},{"NoteNumber":59,"Velocity":31,"Duration":143471,"SoundDuration":143471,"Delta":11112002},{"NoteNumber":62,"Velocity":33,"Duration":143472,"SoundDuration":143472,"Delta":11255474},{"NoteNumber":67,"Velocity":36,"Duration":143471,"SoundDuration":143471,"Delta":11398946},{"NoteNumber":55,"Velocity":33,"Duration":143472,"SoundDuration":143472,"Delta":11542418},{"NoteNumber":59,"Velocity":33,"Duration":143471,"SoundDuration":143471,"Delta":11685890},{"NoteNumber":74,"Velocity":47,"Duration":286944,"SoundDuration":286944,"Delta":11685890},{"NoteNumber":67,"Velocity":33,"Duration":143472,"SoundDuration":143472,"Delta":11829362},{"NoteNumber":76,"Velocity":50,"Duration":550812,"SoundDuration":550812,"Delta":11972834},{"NoteNumber":55,"Velocity":28,"Duration":137703,"SoundDuration":137703,"Delta":12110537},{"NoteNumber":60,"Velocity":31,"Duration":137703,"SoundDuration":137703,"Delta":12248240},{"NoteNumber":67,"Velocity":33,"Duration":137703,"SoundDuration":137703,"Delta":12385943},{"NoteNumber":72,"Velocity":41,"Duration":573888,"SoundDuration":573888,"Delta":12523646},{"NoteNumber":55,"Velocity":28,"Duration":143472,"SoundDuration":143472,"Delta":12667118},{"NoteNumber":64,"Velocity":31,"Duration":143471,"SoundDuration":143471,"Delta":12810590},{"NoteNumber":67,"Velocity":33,"Duration":143472,"SoundDuration":143472,"Delta":12954062},{"NoteNumber":71,"Velocity":50,"Duration":582015,"SoundDuration":582015,"Delta":13097534},{"NoteNumber":55,"Velocity":28,"Duration":145503,"SoundDuration":145503,"Delta":13243038},{"NoteNumber":62,"Velocity":30,"Duration":145504,"SoundDuration":145504,"Delta":13388542},{"NoteNumber":67,"Velocity":32,"Duration":145503,"SoundDuration":145503,"Delta":13534046},{"NoteNumber":74,"Velocity":47,"Duration":291007,"SoundDuration":291007,"Delta":13679550},{"NoteNumber":55,"Velocity":28,"Duration":145503,"SoundDuration":145503,"Delta":13825054},{"NoteNumber":59,"Velocity":30,"Duration":145504,"SoundDuration":145504,"Delta":13970558},{"NoteNumber":67,"Velocity":32,"Duration":150466,"SoundDuration":150466,"Delta":14116062},{"NoteNumber":43,"Velocity":32,"Duration":150466,"SoundDuration":150466,"Delta":14116062},{"NoteNumber":31,"Velocity":48,"Duration":309820,"SoundDuration":309820,"Delta":14266529},{"NoteNumber":55,"Velocity":28,"Duration":152455,"SoundDuration":152455,"Delta":14423894},{"NoteNumber":59,"Velocity":30,"Duration":150473,"SoundDuration":150473,"Delta":14576349},{"NoteNumber":62,"Velocity":32,"Duration":148301,"SoundDuration":148301,"Delta":14726823},{"NoteNumber":67,"Velocity":34,"Duration":147579,"SoundDuration":147579,"Delta":14875125},{"NoteNumber":77,"Velocity":50,"Duration":295159,"SoundDuration":295159,"Delta":14875125},{"NoteNumber":55,"Velocity":31,"Duration":147579,"SoundDuration":147579,"Delta":15022704},{"NoteNumber":59,"Velocity":31,"Duration":147579,"SoundDuration":147579,"Delta":15170284},{"NoteNumber":62,"Velocity":31,"Duration":147579,"SoundDuration":147579,"Delta":15317864},{"NoteNumber":67,"Velocity":35,"Duration":139586,"SoundDuration":139586,"Delta":15465444},{"NoteNumber":77,"Velocity":54,"Duration":837520,"SoundDuration":837520,"Delta":15465444},{"NoteNumber":55,"Velocity":30,"Duration":139586,"SoundDuration":139586,"Delta":15605030},{"NoteNumber":59,"Velocity":31,"Duration":139586,"SoundDuration":139586,"Delta":15744617},{"NoteNumber":62,"Velocity":33,"Duration":139586,"SoundDuration":139586,"Delta":15884204},{"NoteNumber":67,"Velocity":36,"Duration":139586,"SoundDuration":139586,"Delta":16023791},{"NoteNumber":55,"Velocity":33,"Duration":139586,"SoundDuration":139586,"Delta":16163377},{"NoteNumber":59,"Velocity":33,"Duration":139586,"SoundDuration":139586,"Delta":16302964},{"NoteNumber":74,"Velocity":47,"Duration":279173,"SoundDuration":279173,"Delta":16302964},{"NoteNumber":67,"Velocity":33,"Duration":139586,"SoundDuration":139586,"Delta":16442551},{"NoteNumber":75,"Velocity":50,"Duration":543527,"SoundDuration":543527,"Delta":16582138},{"NoteNumber":55,"Velocity":28,"Duration":135881,"SoundDuration":135881,"Delta":16718019},{"NoteNumber":60,"Velocity":31,"Duration":135881,"SoundDuration":135881,"Delta":16853901},{"NoteNumber":67,"Velocity":33,"Duration":135881,"SoundDuration":135881,"Delta":16989783},{"NoteNumber":72,"Velocity":41,"Duration":555761,"SoundDuration":555761,"Delta":17125665},{"NoteNumber":55,"Velocity":28,"Duration":138940,"SoundDuration":138940,"Delta":17264605},{"NoteNumber":63,"Velocity":31,"Duration":138940,"SoundDuration":138940,"Delta":17403545},{"NoteNumber":67,"Velocity":33,"Duration":138940,"SoundDuration":138940,"Delta":17542485},{"NoteNumber":71,"Velocity":50,"Duration":582015,"SoundDuration":582015,"Delta":17681426},{"NoteNumber":55,"Velocity":28,"Duration":145504,"SoundDuration":145504,"Delta":17826930},{"NoteNumber":62,"Velocity":30,"Duration":145503,"SoundDuration":145503,"Delta":17972434},{"NoteNumber":67,"Velocity":32,"Duration":145503,"SoundDuration":145503,"Delta":18117938},{"NoteNumber":74,"Velocity":47,"Duration":582015,"SoundDuration":582015,"Delta":18263442},{"NoteNumber":55,"Velocity":28,"Duration":145504,"SoundDuration":145504,"Delta":18408946},{"NoteNumber":59,"Velocity":30,"Duration":145503,"SoundDuration":145503,"Delta":18554450},{"NoteNumber":67,"Velocity":32,"Duration":145503,"SoundDuration":145503,"Delta":18699954},{"NoteNumber":76,"Velocity":50,"Duration":543527,"SoundDuration":543527,"Delta":18845458},{"NoteNumber":55,"Velocity":28,"Duration":135881,"SoundDuration":135881,"Delta":18981339},{"NoteNumber":60,"Velocity":31,"Duration":135881,"SoundDuration":135881,"Delta":19117221},{"NoteNumber":67,"Velocity":33,"Duration":135881,"SoundDuration":135881,"Delta":19253103},{"NoteNumber":72,"Velocity":41,"Duration":555761,"SoundDuration":555761,"Delta":19388985},{"NoteNumber":55,"Velocity":28,"Duration":138940,"SoundDuration":138940,"Delta":19527925},{"NoteNumber":64,"Velocity":31,"Duration":138940,"SoundDuration":138940,"Delta":19666865},{"NoteNumber":67,"Velocity":33,"Duration":138940,"SoundDuration":138940,"Delta":19805805},{"NoteNumber":71,"Velocity":50,"Duration":582015,"SoundDuration":582015,"Delta":19944746},{"NoteNumber":55,"Velocity":28,"Duration":145504,"SoundDuration":145504,"Delta":20090250},{"NoteNumber":62,"Velocity":30,"Duration":145503,"SoundDuration":145503,"Delta":20235754},{"NoteNumber":67,"Velocity":32,"Duration":145503,"SoundDuration":145503,"Delta":20381258},{"NoteNumber":74,"Velocity":47,"Duration":582015,"SoundDuration":582015,"Delta":20526762},{"NoteNumber":55,"Velocity":28,"Duration":145504,"SoundDuration":145504,"Delta":20672266},{"NoteNumber":59,"Velocity":30,"Duration":145503,"SoundDuration":145503,"Delta":20817770},{"NoteNumber":67,"Velocity":32,"Duration":145503,"SoundDuration":145503,"Delta":20963274},{"NoteNumber":75,"Velocity":50,"Duration":543527,"SoundDuration":543527,"Delta":21108778},{"NoteNumber":55,"Velocity":28,"Duration":135881,"SoundDuration":135881,"Delta":21244659},{"NoteNumber":60,"Velocity":31,"Duration":135881,"SoundDuration":135881,"Delta":21380541},{"NoteNumber":67,"Velocity":33,"Duration":135881,"SoundDuration":135881,"Delta":21516423},{"NoteNumber":72,"Velocity":41,"Duration":555761,"SoundDuration":555761,"Delta":21652305},{"NoteNumber":55,"Velocity":28,"Duration":138940,"SoundDuration":138940,"Delta":21791245},{"NoteNumber":60,"Velocity":31,"Duration":138940,"SoundDuration":138940,"Delta":21930185},{"NoteNumber":63,"Velocity":33,"Duration":138940,"SoundDuration":138940,"Delta":22069125},{"NoteNumber":79,"Velocity":50,"Duration":575953,"SoundDuration":575953,"Delta":22208066},{"NoteNumber":55,"Velocity":28,"Duration":145504,"SoundDuration":145504,"Delta":22353570},{"NoteNumber":59,"Velocity":30,"Duration":145503,"SoundDuration":145503,"Delta":22499074},{"NoteNumber":62,"Velocity":32,"Duration":145503,"SoundDuration":145503,"Delta":22644578},{"NoteNumber":79,"Velocity":47,"Duration":570529,"SoundDuration":570529,"Delta":22790082},{"NoteNumber":55,"Velocity":28,"Duration":144133,"SoundDuration":144133,"Delta":22934215},{"NoteNumber":60,"Velocity":30,"Duration":144133,"SoundDuration":144133,"Delta":23078349},{"NoteNumber":63,"Velocity":32,"Duration":144133,"SoundDuration":144133,"Delta":23222483},{"NoteNumber":79,"Velocity":50,"Duration":570529,"SoundDuration":570529,"Delta":23366617},{"NoteNumber":55,"Velocity":28,"Duration":144133,"SoundDuration":144133,"Delta":23510750},{"NoteNumber":59,"Velocity":30,"Duration":144133,"SoundDuration":144133,"Delta":23654884},{"NoteNumber":62,"Velocity":32,"Duration":144133,"SoundDuration":144133,"Delta":23799018},{"NoteNumber":79,"Velocity":47,"Duration":570529,"SoundDuration":570529,"Delta":23943152},{"NoteNumber":55,"Velocity":28,"Duration":144133,"SoundDuration":144133,"Delta":24087285},{"NoteNumber":60,"Velocity":30,"Duration":144133,"SoundDuration":144133,"Delta":24231419},{"NoteNumber":63,"Velocity":32,"Duration":144133,"SoundDuration":144133,"Delta":24375553},{"NoteNumber":79,"Velocity":50,"Duration":574556,"SoundDuration":574556,"Delta":24519687},{"NoteNumber":55,"Velocity":28,"Duration":144815,"SoundDuration":144815,"Delta":24664048},{"NoteNumber":59,"Velocity":30,"Duration":145503,"SoundDuration":145503,"Delta":24808863},{"NoteNumber":62,"Velocity":32,"Duration":145967,"SoundDuration":145967,"Delta":24954367},{"NoteNumber":79,"Velocity":47,"Duration":583502,"SoundDuration":583502,"Delta":25100334},{"NoteNumber":55,"Velocity":28,"Duration":147126,"SoundDuration":147126,"Delta":25247001},{"NoteNumber":57,"Velocity":30,"Duration":147579,"SoundDuration":147579,"Delta":25394128},{"NoteNumber":60,"Velocity":32,"Duration":148309,"SoundDuration":148309,"Delta":25541708},{"NoteNumber":79,"Velocity":47,"Duration":583424,"SoundDuration":583424,"Delta":25690017},{"NoteNumber":55,"Velocity":36,"Duration":145967,"SoundDuration":145967,"Delta":25837155},{"NoteNumber":59,"Velocity":38,"Duration":145503,"SoundDuration":145503,"Delta":25983122},{"NoteNumber":62,"Velocity":35,"Duration":144815,"SoundDuration":144815,"Delta":26128626},{"NoteNumber":67,"Velocity":43,"Duration":144360,"SoundDuration":144360,"Delta":26273442},{"NoteNumber":71,"Velocity":39,"Duration":143913,"SoundDuration":143913,"Delta":26417803},{"NoteNumber":69,"Velocity":41,"Duration":143248,"SoundDuration":143248,"Delta":26561716},{"NoteNumber":66,"Velocity":38,"Duration":142802,"SoundDuration":142802,"Delta":26704965},{"NoteNumber":67,"Velocity":43,"Duration":142153,"SoundDuration":142153,"Delta":26847767},{"NoteNumber":59,"Velocity":38,"Duration":141715,"SoundDuration":141715,"Delta":26989921},{"NoteNumber":62,"Velocity":41,"Duration":141278,"SoundDuration":141278,"Delta":27131636},{"NoteNumber":67,"Velocity":38,"Duration":140634,"SoundDuration":140634,"Delta":27272915},{"NoteNumber":71,"Velocity":46,"Duration":140213,"SoundDuration":140213,"Delta":27413549},{"NoteNumber":74,"Velocity":41,"Duration":140212,"SoundDuration":140212,"Delta":27553762},{"NoteNumber":72,"Velocity":41,"Duration":140212,"SoundDuration":140212,"Delta":27693975},{"NoteNumber":69,"Velocity":37,"Duration":140212,"SoundDuration":140212,"Delta":27834188},{"NoteNumber":71,"Velocity":47,"Duration":140212,"SoundDuration":140212,"Delta":27974401},{"NoteNumber":67,"Velocity":42,"Duration":140213,"SoundDuration":140213,"Delta":28114614},{"NoteNumber":71,"Velocity":47,"Duration":140212,"SoundDuration":140212,"Delta":28254827},{"NoteNumber":74,"Velocity":43,"Duration":140212,"SoundDuration":140212,"Delta":28395040},{"NoteNumber":79,"Velocity":51,"Duration":140212,"SoundDuration":140212,"Delta":28535253},{"NoteNumber":83,"Velocity":46,"Duration":140213,"SoundDuration":140213,"Delta":28675466},{"NoteNumber":81,"Velocity":48,"Duration":140212,"SoundDuration":140212,"Delta":28815679},{"NoteNumber":78,"Velocity":43,"Duration":140212,"SoundDuration":140212,"Delta":28955892},{"NoteNumber":79,"Velocity":52,"Duration":140212,"SoundDuration":140212,"Delta":29096105},{"NoteNumber":83,"Velocity":52,"Duration":140212,"SoundDuration":140212,"Delta":29236318},{"NoteNumber":81,"Velocity":53,"Duration":140213,"SoundDuration":140213,"Delta":29376531},{"NoteNumber":84,"Velocity":54,"Duration":139909,"SoundDuration":139909,"Delta":29516744},{"NoteNumber":83,"Velocity":55,"Duration":139743,"SoundDuration":139743,"Delta":29656653},{"NoteNumber":86,"Velocity":56,"Duration":140832,"SoundDuration":140832,"Delta":29796397},{"NoteNumber":85,"Velocity":56,"Duration":141728,"SoundDuration":141728,"Delta":29937229},{"NoteNumber":88,"Velocity":57,"Duration":142853,"SoundDuration":142853,"Delta":30078958},{"NoteNumber":86,"Velocity":58,"Duration":143995,"SoundDuration":143995,"Delta":30221811},{"NoteNumber":89,"Velocity":59,"Duration":143536,"SoundDuration":143536,"Delta":30365807},{"NoteNumber":88,"Velocity":60,"Duration":143080,"SoundDuration":143080,"Delta":30509344},{"NoteNumber":91,"Velocity":56,"Duration":142626,"SoundDuration":142626,"Delta":30652424},{"NoteNumber":89,"Velocity":61,"Duration":141951,"SoundDuration":141951,"Delta":30795050},{"NoteNumber":93,"Velocity":62,"Duration":141505,"SoundDuration":141505,"Delta":30937001},{"NoteNumber":89,"Velocity":63,"Duration":141057,"SoundDuration":141057,"Delta":31078507},{"NoteNumber":88,"Velocity":59,"Duration":140607,"SoundDuration":140607,"Delta":31219565},{"NoteNumber":86,"Velocity":65,"Duration":139964,"SoundDuration":139964,"Delta":31360172},{"NoteNumber":89,"Velocity":66,"Duration":139964,"SoundDuration":139964,"Delta":31500137},{"NoteNumber":88,"Velocity":66,"Duration":139964,"SoundDuration":139964,"Delta":31640101},{"NoteNumber":91,"Velocity":64,"Duration":139964,"SoundDuration":139964,"Delta":31780066},{"NoteNumber":89,"Velocity":68,"Duration":139964,"SoundDuration":139964,"Delta":31920030},{"NoteNumber":93,"Velocity":69,"Duration":139964,"SoundDuration":139964,"Delta":32059995},{"NoteNumber":89,"Velocity":70,"Duration":139964,"SoundDuration":139964,"Delta":32199959},{"NoteNumber":88,"Velocity":66,"Duration":139964,"SoundDuration":139964,"Delta":32339924},{"NoteNumber":86,"Velocity":69,"Duration":139964,"SoundDuration":139964,"Delta":32479888},{"NoteNumber":89,"Velocity":65,"Duration":139964,"SoundDuration":139964,"Delta":32619853},{"NoteNumber":88,"Velocity":67,"Duration":139964,"SoundDuration":139964,"Delta":32759817},{"NoteNumber":84,"Velocity":60,"Duration":139964,"SoundDuration":139964,"Delta":32899782},{"NoteNumber":83,"Velocity":64,"Duration":139964,"SoundDuration":139964,"Delta":33039746},{"NoteNumber":86,"Velocity":59,"Duration":139964,"SoundDuration":139964,"Delta":33179711},{"NoteNumber":84,"Velocity":62,"Duration":139964,"SoundDuration":139964,"Delta":33319675},{"NoteNumber":81,"Velocity":55,"Duration":139964,"SoundDuration":139964,"Delta":33459640},{"NoteNumber":79,"Velocity":59,"Duration":140607,"SoundDuration":140607,"Delta":33599604},{"NoteNumber":83,"Velocity":54,"Duration":141282,"SoundDuration":141282,"Delta":33740212},{"NoteNumber":81,"Velocity":56,"Duration":141951,"SoundDuration":141951,"Delta":33881494},{"NoteNumber":77,"Velocity":51,"Duration":142626,"SoundDuration":142626,"Delta":34023446},{"NoteNumber":76,"Velocity":54,"Duration":142853,"SoundDuration":142853,"Delta":34166072},{"NoteNumber":79,"Velocity":46,"Duration":143766,"SoundDuration":143766,"Delta":34308925},{"NoteNumber":77,"Velocity":49,"Duration":145398,"SoundDuration":145398,"Delta":34452691},{"NoteNumber":74,"Velocity":42,"Duration":146826,"SoundDuration":146826,"Delta":34598090},{"NoteNumber":72,"Velocity":49,"Duration":158195,"SoundDuration":158195,"Delta":34744916},{"NoteNumber":36,"Velocity":50,"Duration":158195,"SoundDuration":158195,"Delta":34744916},{"NoteNumber":43,"Velocity":30,"Duration":156003,"SoundDuration":156003,"Delta":34903111},{"NoteNumber":48,"Velocity":32,"Duration":154120,"SoundDuration":154120,"Delta":35059115},{"NoteNumber":52,"Velocity":34,"Duration":152039,"SoundDuration":152039,"Delta":35213236},{"NoteNumber":91,"Velocity":50,"Duration":301023,"SoundDuration":301023,"Delta":35365276},{"NoteNumber":79,"Velocity":50,"Duration":301023,"SoundDuration":301023,"Delta":35365276},{"NoteNumber":55,"Velocity":31,"Duration":150511,"SoundDuration":150511,"Delta":35365276},{"NoteNumber":48,"Velocity":31,"Duration":150511,"SoundDuration":150511,"Delta":35515788},{"NoteNumber":52,"Velocity":31,"Duration":150511,"SoundDuration":150511,"Delta":35666299},{"NoteNumber":55,"Velocity":35,"Duration":150511,"SoundDuration":150511,"Delta":35816811},{"NoteNumber":91,"Velocity":54,"Duration":855757,"SoundDuration":855757,"Delta":35967323},{"NoteNumber":79,"Velocity":54,"Duration":855757,"SoundDuration":855757,"Delta":35967323},{"NoteNumber":60,"Velocity":30,"Duration":142626,"SoundDuration":142626,"Delta":35967323},{"NoteNumber":52,"Velocity":31,"Duration":142626,"SoundDuration":142626,"Delta":36109949},{"NoteNumber":55,"Velocity":33,"Duration":142626,"SoundDuration":142626,"Delta":36252575},{"NoteNumber":60,"Velocity":36,"Duration":142626,"SoundDuration":142626,"Delta":36395202},{"NoteNumber":64,"Velocity":33,"Duration":142626,"SoundDuration":142626,"Delta":36537828},{"NoteNumber":55,"Velocity":33,"Duration":142626,"SoundDuration":142626,"Delta":36680454},{"NoteNumber":88,"Velocity":47,"Duration":285252,"SoundDuration":285252,"Delta":36823080},{"NoteNumber":76,"Velocity":47,"Duration":285252,"SoundDuration":285252,"Delta":36823080},{"NoteNumber":60,"Velocity":33,"Duration":142626,"SoundDuration":142626,"Delta":36823080},{"NoteNumber":64,"Velocity":36,"Duration":142626,"SoundDuration":142626,"Delta":36965707},{"NoteNumber":86,"Velocity":50,"Duration":552078,"SoundDuration":552078,"Delta":37108333},{"NoteNumber":74,"Velocity":50,"Duration":552078,"SoundDuration":552078,"Delta":37108333},{"NoteNumber":65,"Velocity":28,"Duration":138019,"SoundDuration":138019,"Delta":37108333},{"NoteNumber":64,"Velocity":31,"Duration":138019,"SoundDuration":138019,"Delta":37246353},{"NoteNumber":62,"Velocity":33,"Duration":138019,"SoundDuration":138019,"Delta":37384372},{"NoteNumber":60,"Velocity":36,"Duration":138019,"SoundDuration":138019,"Delta":37522392},{"NoteNumber":79,"Velocity":41,"Duration":567804,"SoundDuration":567804,"Delta":37660412},{"NoteNumber":67,"Velocity":41,"Duration":567804,"SoundDuration":567804,"Delta":37660412},{"NoteNumber":59,"Velocity":33,"Duration":141951,"SoundDuration":141951,"Delta":37660412},{"NoteNumber":57,"Velocity":33,"Duration":141951,"SoundDuration":141951,"Delta":37802363},{"NoteNumber":55,"Velocity":34,"Duration":141951,"SoundDuration":141951,"Delta":37944314},{"NoteNumber":53,"Velocity":34,"Duration":141951,"SoundDuration":141951,"Delta":38086266},{"NoteNumber":84,"Velocity":50,"Duration":582016,"SoundDuration":582016,"Delta":38228217},{"NoteNumber":72,"Velocity":50,"Duration":582016,"SoundDuration":582016,"Delta":38228217},{"NoteNumber":52,"Velocity":28,"Duration":145504,"SoundDuration":145504,"Delta":38228217},{"NoteNumber":55,"Velocity":30,"Duration":145503,"SoundDuration":145503,"Delta":38373721},{"NoteNumber":48,"Velocity":32,"Duration":145504,"SoundDuration":145504,"Delta":38519225},{"NoteNumber":52,"Velocity":34,"Duration":145504,"SoundDuration":145504,"Delta":38664729},{"NoteNumber":88,"Velocity":47,"Duration":291007,"SoundDuration":291007,"Delta":38810233},{"NoteNumber":76,"Velocity":47,"Duration":291007,"SoundDuration":291007,"Delta":38810233},{"NoteNumber":43,"Velocity":32,"Duration":145503,"SoundDuration":145503,"Delta":38810233},{"NoteNumber":48,"Velocity":32,"Duration":145504,"SoundDuration":145504,"Delta":38955737},{"NoteNumber":40,"Velocity":33,"Duration":145504,"SoundDuration":145504,"Delta":39101241},{"NoteNumber":43,"Velocity":34,"Duration":151209,"SoundDuration":151209,"Delta":39246745},{"NoteNumber":36,"Velocity":50,"Duration":157364,"SoundDuration":157364,"Delta":39397955},{"NoteNumber":43,"Velocity":30,"Duration":150962,"SoundDuration":150962,"Delta":39555319},{"NoteNumber":48,"Velocity":32,"Duration":149742,"SoundDuration":149742,"Delta":39706281},{"NoteNumber":52,"Velocity":34,"Duration":148301,"SoundDuration":148301,"Delta":39856024},{"NoteNumber":91,"Velocity":50,"Duration":295159,"SoundDuration":295159,"Delta":40004326},{"NoteNumber":79,"Velocity":50,"Duration":295159,"SoundDuration":295159,"Delta":40004326},{"NoteNumber":55,"Velocity":31,"Duration":147579,"SoundDuration":147579,"Delta":40004326},{"NoteNumber":48,"Velocity":31,"Duration":147579,"SoundDuration":147579,"Delta":40151906},{"NoteNumber":52,"Velocity":31,"Duration":147579,"SoundDuration":147579,"Delta":40299485},{"NoteNumber":55,"Velocity":35,"Duration":147579,"SoundDuration":147579,"Delta":40447065},{"NoteNumber":91,"Velocity":54,"Duration":837520,"SoundDuration":837520,"Delta":40594645},{"NoteNumber":79,"Velocity":54,"Duration":837520,"SoundDuration":837520,"Delta":40594645},{"NoteNumber":60,"Velocity":30,"Duration":139586,"SoundDuration":139586,"Delta":40594645},{"NoteNumber":52,"Velocity":31,"Duration":139586,"SoundDuration":139586,"Delta":40734232},{"NoteNumber":55,"Velocity":33,"Duration":139586,"SoundDuration":139586,"Delta":40873818},{"NoteNumber":60,"Velocity":36,"Duration":139586,"SoundDuration":139586,"Delta":41013405},{"NoteNumber":64,"Velocity":33,"Duration":139586,"SoundDuration":139586,"Delta":41152992},{"NoteNumber":55,"Velocity":33,"Duration":139586,"SoundDuration":139586,"Delta":41292579},{"NoteNumber":88,"Velocity":47,"Duration":279173,"SoundDuration":279173,"Delta":41432165},{"NoteNumber":76,"Velocity":47,"Duration":279173,"SoundDuration":279173,"Delta":41432165},{"NoteNumber":60,"Velocity":33,"Duration":139586,"SoundDuration":139586,"Delta":41432165},{"NoteNumber":64,"Velocity":33,"Duration":139586,"SoundDuration":139586,"Delta":41571752},{"NoteNumber":86,"Velocity":50,"Duration":543526,"SoundDuration":543526,"Delta":41711339},{"NoteNumber":74,"Velocity":50,"Duration":543526,"SoundDuration":543526,"Delta":41711339},{"NoteNumber":65,"Velocity":28,"Duration":135881,"SoundDuration":135881,"Delta":41711339},{"NoteNumber":64,"Velocity":31,"Duration":135881,"SoundDuration":135881,"Delta":41847221},{"NoteNumber":62,"Velocity":33,"Duration":135881,"SoundDuration":135881,"Delta":41983102},{"NoteNumber":60,"Velocity":36,"Duration":135881,"SoundDuration":135881,"Delta":42118984},{"NoteNumber":79,"Velocity":41,"Duration":555760,"SoundDuration":555760,"Delta":42254866},{"NoteNumber":67,"Velocity":41,"Duration":555760,"SoundDuration":555760,"Delta":42254866},{"NoteNumber":59,"Velocity":33,"Duration":138940,"SoundDuration":138940,"Delta":42254866},{"NoteNumber":55,"Velocity":33,"Duration":138940,"SoundDuration":138940,"Delta":42393806},{"NoteNumber":57,"Velocity":34,"Duration":138940,"SoundDuration":138940,"Delta":42532746},{"NoteNumber":59,"Velocity":34,"Duration":138940,"SoundDuration":138940,"Delta":42671687},{"NoteNumber":84,"Velocity":50,"Duration":291007,"SoundDuration":291007,"Delta":42810627},{"NoteNumber":72,"Velocity":50,"Duration":291007,"SoundDuration":291007,"Delta":42810627},{"NoteNumber":60,"Velocity":28,"Duration":145504,"SoundDuration":145504,"Delta":42810627},{"NoteNumber":59,"Velocity":30,"Duration":145503,"SoundDuration":145503,"Delta":42956131},{"NoteNumber":57,"Velocity":32,"Duration":145504,"SoundDuration":145504,"Delta":43101635},{"NoteNumber":55,"Velocity":34,"Duration":145504,"SoundDuration":145504,"Delta":43247139},{"NoteNumber":53,"Velocity":32,"Duration":145503,"SoundDuration":145503,"Delta":43392643},{"NoteNumber":52,"Velocity":32,"Duration":145504,"SoundDuration":145504,"Delta":43538147},{"NoteNumber":50,"Velocity":33,"Duration":145503,"SoundDuration":145503,"Delta":43683651},{"NoteNumber":48,"Velocity":35,"Duration":150466,"SoundDuration":150466,"Delta":43829155},{"NoteNumber":43,"Velocity":45,"Duration":157364,"SoundDuration":157364,"Delta":43979621},{"NoteNumber":47,"Velocity":30,"Duration":152455,"SoundDuration":152455,"Delta":44136986},{"NoteNumber":50,"Velocity":32,"Duration":150473,"SoundDuration":150473,"Delta":44289441},{"NoteNumber":55,"Velocity":34,"Duration":148301,"SoundDuration":148301,"Delta":44439915},{"NoteNumber":89,"Velocity":50,"Duration":295159,"SoundDuration":295159,"Delta":44588217},{"NoteNumber":77,"Velocity":50,"Duration":295159,"SoundDuration":295159,"Delta":44588217},{"NoteNumber":47,"Velocity":31,"Duration":147579,"SoundDuration":147579,"Delta":44588217},{"NoteNumber":50,"Velocity":31,"Duration":147579,"SoundDuration":147579,"Delta":44735797},{"NoteNumber":55,"Velocity":31,"Duration":147579,"SoundDuration":147579,"Delta":44883377},{"NoteNumber":59,"Velocity":35,"Duration":147579,"SoundDuration":147579,"Delta":45030956},{"NoteNumber":89,"Velocity":54,"Duration":837520,"SoundDuration":837520,"Delta":45178536},{"NoteNumber":77,"Velocity":54,"Duration":837520,"SoundDuration":837520,"Delta":45178536},{"NoteNumber":50,"Velocity":30,"Duration":139586,"SoundDuration":139586,"Delta":45178536},{"NoteNumber":55,"Velocity":31,"Duration":139586,"SoundDuration":139586,"Delta":45318123},{"NoteNumber":59,"Velocity":33,"Duration":139586,"SoundDuration":139586,"Delta":45457710},{"NoteNumber":62,"Velocity":36,"Duration":139586,"SoundDuration":139586,"Delta":45597296},{"NoteNumber":55,"Velocity":33,"Duration":139586,"SoundDuration":139586,"Delta":45736883},{"NoteNumber":59,"Velocity":33,"Duration":139586,"SoundDuration":139586,"Delta":45876470},{"NoteNumber":86,"Velocity":47,"Duration":279173,"SoundDuration":279173,"Delta":46016057},{"NoteNumber":74,"Velocity":47,"Duration":279173,"SoundDuration":279173,"Delta":46016057},{"NoteNumber":62,"Velocity":33,"Duration":139586,"SoundDuration":139586,"Delta":46016057},{"NoteNumber":67,"Velocity":36,"Duration":139586,"SoundDuration":139586,"Delta":46155643},{"NoteNumber":88,"Velocity":50,"Duration":543526,"SoundDuration":543526,"Delta":46295230},{"NoteNumber":76,"Velocity":50,"Duration":543526,"SoundDuration":543526,"Delta":46295230},{"NoteNumber":55,"Velocity":28,"Duration":135881,"SoundDuration":135881,"Delta":46295230},{"NoteNumber":60,"Velocity":31,"Duration":135881,"SoundDuration":135881,"Delta":46431112},{"NoteNumber":67,"Velocity":33,"Duration":135881,"SoundDuration":135881,"Delta":46566994},{"NoteNumber":60,"Velocity":36,"Duration":135881,"SoundDuration":135881,"Delta":46702875},{"NoteNumber":84,"Velocity":41,"Duration":555760,"SoundDuration":555760,"Delta":46838757},{"NoteNumber":72,"Velocity":41,"Duration":555760,"SoundDuration":555760,"Delta":46838757},{"NoteNumber":55,"Velocity":28,"Duration":138940,"SoundDuration":138940,"Delta":46838757},{"NoteNumber":64,"Velocity":31,"Duration":138940,"SoundDuration":138940,"Delta":46977697},{"NoteNumber":67,"Velocity":33,"Duration":138940,"SoundDuration":138940,"Delta":47116638},{"NoteNumber":64,"Velocity":36,"Duration":138940,"SoundDuration":138940,"Delta":47255578},{"NoteNumber":83,"Velocity":50,"Duration":582016,"SoundDuration":582016,"Delta":47394518},{"NoteNumber":71,"Velocity":50,"Duration":582016,"SoundDuration":582016,"Delta":47394518},{"NoteNumber":55,"Velocity":28,"Duration":145504,"SoundDuration":145504,"Delta":47394518},{"NoteNumber":62,"Velocity":30,"Duration":145503,"SoundDuration":145503,"Delta":47540022},{"NoteNumber":67,"Velocity":32,"Duration":145504,"SoundDuration":145504,"Delta":47685526},{"NoteNumber":62,"Velocity":36,"Duration":145504,"SoundDuration":145504,"Delta":47831030},{"NoteNumber":86,"Velocity":47,"Duration":291007,"SoundDuration":291007,"Delta":47976534},{"NoteNumber":74,"Velocity":47,"Duration":291007,"SoundDuration":291007,"Delta":47976534},{"NoteNumber":55,"Velocity":28,"Duration":145503,"SoundDuration":145503,"Delta":47976534},{"NoteNumber":59,"Velocity":30,"Duration":145504,"SoundDuration":145504,"Delta":48122038},{"NoteNumber":67,"Velocity":32,"Duration":145504,"SoundDuration":145504,"Delta":48267542},{"NoteNumber":59,"Velocity":35,"Duration":150466,"SoundDuration":150466,"Delta":48413046},{"NoteNumber":43,"Velocity":48,"Duration":157364,"SoundDuration":157364,"Delta":48563513},{"NoteNumber":47,"Velocity":30,"Duration":152455,"SoundDuration":152455,"Delta":48720877},{"NoteNumber":50,"Velocity":32,"Duration":150473,"SoundDuration":150473,"Delta":48873333},{"NoteNumber":55,"Velocity":34,"Duration":148301,"SoundDuration":148301,"Delta":49023807},{"NoteNumber":89,"Velocity":50,"Duration":295159,"SoundDuration":295159,"Delta":49172108},{"NoteNumber":77,"Velocity":50,"Duration":295159,"SoundDuration":295159,"Delta":49172108},{"NoteNumber":47,"Velocity":31,"Duration":147579,"SoundDuration":147579,"Delta":49172108},{"NoteNumber":50,"Velocity":31,"Duration":147579,"SoundDuration":147579,"Delta":49319688},{"NoteNumber":55,"Velocity":31,"Duration":147579,"SoundDuration":147579,"Delta":49467268},{"NoteNumber":59,"Velocity":35,"Duration":147579,"SoundDuration":147579,"Delta":49614848},{"NoteNumber":89,"Velocity":54,"Duration":837520,"SoundDuration":837520,"Delta":49762427},{"NoteNumber":77,"Velocity":54,"Duration":837520,"SoundDuration":837520,"Delta":49762427},{"NoteNumber":50,"Velocity":30,"Duration":139586,"SoundDuration":139586,"Delta":49762427},{"NoteNumber":55,"Velocity":31,"Duration":139586,"SoundDuration":139586,"Delta":49902014},{"NoteNumber":59,"Velocity":33,"Duration":139586,"SoundDuration":139586,"Delta":50041601},{"NoteNumber":62,"Velocity":36,"Duration":139586,"SoundDuration":139586,"Delta":50181188},{"NoteNumber":55,"Velocity":33,"Duration":139586,"SoundDuration":139586,"Delta":50320774},{"NoteNumber":59,"Velocity":33,"Duration":139586,"SoundDuration":139586,"Delta":50460361},{"NoteNumber":86,"Velocity":47,"Duration":279173,"SoundDuration":279173,"Delta":50599948},{"NoteNumber":74,"Velocity":47,"Duration":279173,"SoundDuration":279173,"Delta":50599948},{"NoteNumber":62,"Velocity":33,"Duration":139586,"SoundDuration":139586,"Delta":50599948},{"NoteNumber":67,"Velocity":36,"Duration":139586,"SoundDuration":139586,"Delta":50739535},{"NoteNumber":87,"Velocity":50,"Duration":543526,"SoundDuration":543526,"Delta":50879121},{"NoteNumber":75,"Velocity":50,"Duration":543526,"SoundDuration":543526,"Delta":50879121},{"NoteNumber":55,"Velocity":28,"Duration":135881,"SoundDuration":135881,"Delta":50879121},{"NoteNumber":60,"Velocity":31,"Duration":135881,"SoundDuration":135881,"Delta":51015003},{"NoteNumber":67,"Velocity":33,"Duration":135881,"SoundDuration":135881,"Delta":51150885},{"NoteNumber":60,"Velocity":35,"Duration":135881,"SoundDuration":135881,"Delta":51286767},{"NoteNumber":84,"Velocity":41,"Duration":555760,"SoundDuration":555760,"Delta":51422648},{"NoteNumber":72,"Velocity":41,"Duration":555760,"SoundDuration":555760,"Delta":51422648},{"NoteNumber":55,"Velocity":28,"Duration":138940,"SoundDuration":138940,"Delta":51422648},{"NoteNumber":63,"Velocity":31,"Duration":138940,"SoundDuration":138940,"Delta":51561589},{"NoteNumber":67,"Velocity":33,"Duration":138940,"SoundDuration":138940,"Delta":51700529},{"NoteNumber":63,"Velocity":35,"Duration":138940,"SoundDuration":138940,"Delta":51839469},{"NoteNumber":83,"Velocity":50,"Duration":582016,"SoundDuration":582016,"Delta":51978409},{"NoteNumber":71,"Velocity":50,"Duration":582016,"SoundDuration":582016,"Delta":51978409},{"NoteNumber":55,"Velocity":28,"Duration":145504,"SoundDuration":145504,"Delta":51978409},{"NoteNumber":62,"Velocity":30,"Duration":145503,"SoundDuration":145503,"Delta":52123913},{"NoteNumber":67,"Velocity":32,"Duration":145504,"SoundDuration":145504,"Delta":52269417},{"NoteNumber":62,"Velocity":35,"Duration":145504,"SoundDuration":145504,"Delta":52414921},{"NoteNumber":86,"Velocity":47,"Duration":582015,"SoundDuration":582015,"Delta":52560425},{"NoteNumber":74,"Velocity":47,"Duration":582015,"SoundDuration":582015,"Delta":52560425},{"NoteNumber":55,"Velocity":28,"Duration":145503,"SoundDuration":145503,"Delta":52560425},{"NoteNumber":59,"Velocity":30,"Duration":145504,"SoundDuration":145504,"Delta":52705929},{"NoteNumber":67,"Velocity":32,"Duration":145504,"SoundDuration":145504,"Delta":52851433},{"NoteNumber":59,"Velocity":35,"Duration":145503,"SoundDuration":145503,"Delta":52996937},{"NoteNumber":88,"Velocity":50,"Duration":543526,"SoundDuration":543526,"Delta":53142441},{"NoteNumber":76,"Velocity":50,"Duration":543526,"SoundDuration":543526,"Delta":53142441},{"NoteNumber":55,"Velocity":28,"Duration":135881,"SoundDuration":135881,"Delta":53142441},{"NoteNumber":60,"Velocity":31,"Duration":135881,"SoundDuration":135881,"Delta":53278323},{"NoteNumber":67,"Velocity":33,"Duration":135881,"SoundDuration":135881,"Delta":53414205},{"NoteNumber":60,"Velocity":35,"Duration":135881,"SoundDuration":135881,"Delta":53550087},{"NoteNumber":84,"Velocity":42,"Duration":555760,"SoundDuration":555760,"Delta":53685968},{"NoteNumber":72,"Velocity":42,"Duration":555760,"SoundDuration":555760,"Delta":53685968},{"NoteNumber":55,"Velocity":28,"Duration":138940,"SoundDuration":138940,"Delta":53685968},{"NoteNumber":64,"Velocity":32,"Duration":138940,"SoundDuration":138940,"Delta":53824909},{"NoteNumber":67,"Velocity":34,"Duration":138940,"SoundDuration":138940,"Delta":53963849},{"NoteNumber":64,"Velocity":37,"Duration":138940,"SoundDuration":138940,"Delta":54102789},{"NoteNumber":83,"Velocity":53,"Duration":582016,"SoundDuration":582016,"Delta":54241729},{"NoteNumber":71,"Velocity":53,"Duration":582016,"SoundDuration":582016,"Delta":54241729},{"NoteNumber":55,"Velocity":29,"Duration":145504,"SoundDuration":145504,"Delta":54241729},{"NoteNumber":62,"Velocity":32,"Duration":145503,"SoundDuration":145503,"Delta":54387233},{"NoteNumber":67,"Velocity":34,"Duration":145504,"SoundDuration":145504,"Delta":54532737},{"NoteNumber":62,"Velocity":38,"Duration":145504,"SoundDuration":145504,"Delta":54678241},{"NoteNumber":86,"Velocity":52,"Duration":582015,"SoundDuration":582015,"Delta":54823745},{"NoteNumber":74,"Velocity":52,"Duration":582015,"SoundDuration":582015,"Delta":54823745},{"NoteNumber":55,"Velocity":31,"Duration":145503,"SoundDuration":145503,"Delta":54823745},{"NoteNumber":59,"Velocity":33,"Duration":145504,"SoundDuration":145504,"Delta":54969249},{"NoteNumber":67,"Velocity":36,"Duration":145504,"SoundDuration":145504,"Delta":55114753},{"NoteNumber":59,"Velocity":39,"Duration":145503,"SoundDuration":145503,"Delta":55260257},{"NoteNumber":87,"Velocity":50,"Duration":543526,"SoundDuration":543526,"Delta":55405761},{"NoteNumber":75,"Velocity":50,"Duration":543526,"SoundDuration":543526,"Delta":55405761},{"NoteNumber":55,"Velocity":28,"Duration":135881,"SoundDuration":135881,"Delta":55405761},{"NoteNumber":60,"Velocity":31,"Duration":135881,"SoundDuration":135881,"Delta":55541643},{"NoteNumber":67,"Velocity":33,"Duration":135881,"SoundDuration":135881,"Delta":55677525},{"NoteNumber":60,"Velocity":35,"Duration":135881,"SoundDuration":135881,"Delta":55813407},{"NoteNumber":84,"Velocity":41,"Duration":555760,"SoundDuration":555760,"Delta":55949288},{"NoteNumber":72,"Velocity":41,"Duration":555760,"SoundDuration":555760,"Delta":55949288},{"NoteNumber":55,"Velocity":28,"Duration":138940,"SoundDuration":138940,"Delta":55949288},{"NoteNumber":60,"Velocity":31,"Duration":138940,"SoundDuration":138940,"Delta":56088229},{"NoteNumber":63,"Velocity":33,"Duration":138940,"SoundDuration":138940,"Delta":56227169},{"NoteNumber":60,"Velocity":35,"Duration":138940,"SoundDuration":138940,"Delta":56366109},{"NoteNumber":79,"Velocity":50,"Duration":582016,"SoundDuration":582016,"Delta":56505049},{"NoteNumber":55,"Velocity":28,"Duration":145504,"SoundDuration":145504,"Delta":56505049},{"NoteNumber":59,"Velocity":30,"Duration":145503,"SoundDuration":145503,"Delta":56650553},{"NoteNumber":62,"Velocity":32,"Duration":145504,"SoundDuration":145504,"Delta":56796057},{"NoteNumber":59,"Velocity":35,"Duration":145504,"SoundDuration":145504,"Delta":56941561},{"NoteNumber":79,"Velocity":47,"Duration":576534,"SoundDuration":576534,"Delta":57087065},{"NoteNumber":55,"Velocity":28,"Duration":144133,"SoundDuration":144133,"Delta":57087065},{"NoteNumber":60,"Velocity":30,"Duration":144133,"SoundDuration":144133,"Delta":57231199},{"NoteNumber":63,"Velocity":32,"Duration":144133,"SoundDuration":144133,"Delta":57375333},{"NoteNumber":60,"Velocity":35,"Duration":144133,"SoundDuration":144133,"Delta":57519467},{"NoteNumber":81,"Velocity":33,"Duration":97002,"SoundDuration":97002,"Delta":57663600},{"NoteNumber":55,"Velocity":42,"Duration":72752,"SoundDuration":72752,"Delta":57663600},{"NoteNumber":79,"Velocity":33,"Duration":97002,"SoundDuration":97002,"Delta":57760603},{"NoteNumber":59,"Velocity":27,"Duration":145503,"SoundDuration":145503,"Delta":57809104},{"NoteNumber":81,"Velocity":33,"Duration":97002,"SoundDuration":97002,"Delta":57857606},{"NoteNumber":79,"Velocity":33,"Duration":97002,"SoundDuration":97002,"Delta":57954608},{"NoteNumber":62,"Velocity":27,"Duration":145504,"SoundDuration":145504,"Delta":57954608},{"NoteNumber":81,"Velocity":34,"Duration":97002,"SoundDuration":97002,"Delta":58051611},{"NoteNumber":59,"Velocity":28,"Duration":145504,"SoundDuration":145504,"Delta":58100112},{"NoteNumber":79,"Velocity":34,"Duration":97002,"SoundDuration":97002,"Delta":58148614},{"NoteNumber":81,"Velocity":35,"Duration":96543,"SoundDuration":96543,"Delta":58245616},{"NoteNumber":55,"Velocity":48,"Duration":72407,"SoundDuration":72407,"Delta":58245616},{"NoteNumber":79,"Velocity":35,"Duration":96543,"SoundDuration":96543,"Delta":58342160},{"NoteNumber":60,"Velocity":29,"Duration":144815,"SoundDuration":144815,"Delta":58390432},{"NoteNumber":81,"Velocity":35,"Duration":96543,"SoundDuration":96543,"Delta":58438704},{"NoteNumber":79,"Velocity":35,"Duration":96543,"SoundDuration":96543,"Delta":58535247},{"NoteNumber":64,"Velocity":30,"Duration":144815,"SoundDuration":144815,"Delta":58535247},{"NoteNumber":81,"Velocity":36,"Duration":96543,"SoundDuration":96543,"Delta":58631791},{"NoteNumber":60,"Velocity":31,"Duration":144360,"SoundDuration":144360,"Delta":58680063},{"NoteNumber":79,"Velocity":36,"Duration":96089,"SoundDuration":96089,"Delta":58728335},{"NoteNumber":81,"Velocity":37,"Duration":96089,"SoundDuration":96089,"Delta":58824424},{"NoteNumber":55,"Velocity":51,"Duration":72066,"SoundDuration":72066,"Delta":58824424},{"NoteNumber":79,"Velocity":37,"Duration":96089,"SoundDuration":96089,"Delta":58920513},{"NoteNumber":59,"Velocity":32,"Duration":143692,"SoundDuration":143692,"Delta":58968558},{"NoteNumber":81,"Velocity":37,"Duration":95647,"SoundDuration":95647,"Delta":59016602},{"NoteNumber":79,"Velocity":39,"Duration":95648,"SoundDuration":95648,"Delta":59112250},{"NoteNumber":62,"Velocity":34,"Duration":143472,"SoundDuration":143472,"Delta":59112250},{"NoteNumber":81,"Velocity":39,"Duration":95424,"SoundDuration":95424,"Delta":59207898},{"NoteNumber":59,"Velocity":34,"Duration":142802,"SoundDuration":142802,"Delta":59255722},{"NoteNumber":79,"Velocity":39,"Duration":95201,"SoundDuration":95201,"Delta":59303323},{"NoteNumber":81,"Velocity":39,"Duration":95201,"SoundDuration":95201,"Delta":59398525},{"NoteNumber":55,"Velocity":58,"Duration":71401,"SoundDuration":71401,"Delta":59398525},{"NoteNumber":79,"Velocity":39,"Duration":94768,"SoundDuration":94768,"Delta":59493727},{"NoteNumber":57,"Velocity":35,"Duration":142153,"SoundDuration":142153,"Delta":59541111},{"NoteNumber":81,"Velocity":41,"Duration":94768,"SoundDuration":94768,"Delta":59588496},{"NoteNumber":79,"Velocity":41,"Duration":94549,"SoundDuration":94549,"Delta":59683264},{"NoteNumber":60,"Velocity":37,"Duration":141715,"SoundDuration":141715,"Delta":59683264},{"NoteNumber":81,"Velocity":41,"Duration":94330,"SoundDuration":94330,"Delta":59777814},{"NoteNumber":57,"Velocity":39,"Duration":141496,"SoundDuration":141496,"Delta":59824980},{"NoteNumber":79,"Velocity":41,"Duration":94330,"SoundDuration":94330,"Delta":59872145},{"NoteNumber":81,"Velocity":42,"Duration":93581,"SoundDuration":93581,"Delta":59966476},{"NoteNumber":55,"Velocity":64,"Duration":70317,"SoundDuration":70317,"Delta":59966476},{"NoteNumber":79,"Velocity":42,"Duration":92221,"SoundDuration":92221,"Delta":60060057},{"NoteNumber":59,"Velocity":42,"Duration":140656,"SoundDuration":140656,"Delta":60106064},{"NoteNumber":81,"Velocity":42,"Duration":94441,"SoundDuration":94441,"Delta":60152279},{"NoteNumber":79,"Velocity":42,"Duration":92751,"SoundDuration":92751,"Delta":60246720},{"NoteNumber":57,"Velocity":44,"Duration":138964,"SoundDuration":138964,"Delta":60246720},{"NoteNumber":81,"Velocity":42,"Duration":93269,"SoundDuration":93269,"Delta":60339472},{"NoteNumber":55,"Velocity":45,"Duration":141825,"SoundDuration":141825,"Delta":60385685},{"NoteNumber":79,"Velocity":44,"Duration":94768,"SoundDuration":94768,"Delta":60432742},{"NoteNumber":81,"Velocity":44,"Duration":92734,"SoundDuration":92734,"Delta":60527511},{"NoteNumber":53,"Velocity":69,"Duration":69577,"SoundDuration":69577,"Delta":60527511},{"NoteNumber":79,"Velocity":44,"Duration":93477,"SoundDuration":93477,"Delta":60620245},{"NoteNumber":57,"Velocity":50,"Duration":141718,"SoundDuration":141718,"Delta":60666666},{"NoteNumber":81,"Velocity":45,"Duration":94661,"SoundDuration":94661,"Delta":60713723},{"NoteNumber":79,"Velocity":45,"Duration":92734,"SoundDuration":92734,"Delta":60808385},{"NoteNumber":55,"Velocity":53,"Duration":138947,"SoundDuration":138947,"Delta":60808385},{"NoteNumber":81,"Velocity":45,"Duration":93269,"SoundDuration":93269,"Delta":60901120},{"NoteNumber":53,"Velocity":56,"Duration":141825,"SoundDuration":141825,"Delta":60947333},{"NoteNumber":79,"Velocity":46,"Duration":94768,"SoundDuration":94768,"Delta":60994390},{"NoteNumber":81,"Velocity":46,"Duration":93800,"SoundDuration":93800,"Delta":61089158},{"NoteNumber":52,"Velocity":77,"Duration":70643,"SoundDuration":70643,"Delta":61089158},{"NoteNumber":79,"Velocity":47,"Duration":92734,"SoundDuration":92734,"Delta":61182959},{"NoteNumber":55,"Velocity":60,"Duration":140111,"SoundDuration":140111,"Delta":61229272},{"NoteNumber":81,"Velocity":47,"Duration":93690,"SoundDuration":93690,"Delta":61275693},{"NoteNumber":79,"Velocity":48,"Duration":92626,"SoundDuration":92626,"Delta":61369384},{"NoteNumber":53,"Velocity":62,"Duration":139048,"SoundDuration":139048,"Delta":61369384},{"NoteNumber":81,"Velocity":49,"Duration":93369,"SoundDuration":93369,"Delta":61462010},{"NoteNumber":52,"Velocity":64,"Duration":140844,"SoundDuration":140844,"Delta":61508432},{"NoteNumber":79,"Velocity":49,"Duration":93896,"SoundDuration":93896,"Delta":61555380},{"NoteNumber":81,"Velocity":49,"Duration":93896,"SoundDuration":93896,"Delta":61649277},{"NoteNumber":50,"Velocity":82,"Duration":70422,"SoundDuration":70422,"Delta":61649277},{"NoteNumber":79,"Velocity":49,"Duration":94330,"SoundDuration":94330,"Delta":61743173},{"NoteNumber":53,"Velocity":64,"Duration":142150,"SoundDuration":142150,"Delta":61790339},{"NoteNumber":81,"Velocity":50,"Duration":94985,"SoundDuration":94985,"Delta":61837504},{"NoteNumber":79,"Velocity":50,"Duration":95424,"SoundDuration":95424,"Delta":61932489},{"NoteNumber":52,"Velocity":67,"Duration":143469,"SoundDuration":143469,"Delta":61932489},{"NoteNumber":81,"Velocity":51,"Duration":96089,"SoundDuration":96089,"Delta":62027914},{"NoteNumber":50,"Velocity":71,"Duration":144817,"SoundDuration":144817,"Delta":62075959},{"NoteNumber":79,"Velocity":51,"Duration":96773,"SoundDuration":96773,"Delta":62124003},{"NoteNumber":81,"Velocity":48,"Duration":94566,"SoundDuration":94566,"Delta":62220776},{"NoteNumber":36,"Velocity":94,"Duration":282921,"SoundDuration":282921,"Delta":62220776},{"NoteNumber":48,"Velocity":94,"Duration":282921,"SoundDuration":282921,"Delta":62220776},{"NoteNumber":79,"Velocity":35,"Duration":93695,"SoundDuration":93695,"Delta":62315343},{"NoteNumber":50,"Velocity":56,"Duration":70858,"SoundDuration":70858,"Delta":62361872},{"NoteNumber":81,"Velocity":38,"Duration":94659,"SoundDuration":94659,"Delta":62409039},{"NoteNumber":52,"Velocity":57,"Duration":70966,"SoundDuration":70966,"Delta":62432731},{"NoteNumber":79,"Velocity":35,"Duration":92431,"SoundDuration":92431,"Delta":62503698},{"NoteNumber":53,"Velocity":60,"Duration":69583,"SoundDuration":69583,"Delta":62503698},{"NoteNumber":55,"Velocity":60,"Duration":69268,"SoundDuration":69268,"Delta":62573281},{"NoteNumber":81,"Velocity":38,"Duration":93054,"SoundDuration":93054,"Delta":62596129},{"NoteNumber":57,"Velocity":62,"Duration":70002,"SoundDuration":70002,"Delta":62642550},{"NoteNumber":79,"Velocity":36,"Duration":93370,"SoundDuration":93370,"Delta":62689184},{"NoteNumber":59,"Velocity":63,"Duration":70002,"SoundDuration":70002,"Delta":62712552},{"NoteNumber":81,"Velocity":40,"Duration":91205,"SoundDuration":91205,"Delta":62782555},{"NoteNumber":91,"Velocity":89,"Duration":274828,"SoundDuration":274828,"Delta":62782555},{"NoteNumber":60,"Velocity":63,"Duration":136504,"SoundDuration":136504,"Delta":62782555},{"NoteNumber":79,"Velocity":36,"Duration":91305,"SoundDuration":91305,"Delta":62873760},{"NoteNumber":62,"Velocity":65,"Duration":69163,"SoundDuration":69163,"Delta":62919059},{"NoteNumber":81,"Velocity":40,"Duration":92317,"SoundDuration":92317,"Delta":62965065},{"NoteNumber":64,"Velocity":66,"Duration":69161,"SoundDuration":69161,"Delta":62988222},{"NoteNumber":79,"Velocity":36,"Duration":87879,"SoundDuration":87879,"Delta":63057383},{"NoteNumber":65,"Velocity":67,"Duration":65911,"SoundDuration":65911,"Delta":63057383},{"NoteNumber":67,"Velocity":69,"Duration":67267,"SoundDuration":67267,"Delta":63123295},{"NoteNumber":81,"Velocity":40,"Duration":91205,"SoundDuration":91205,"Delta":63145263},{"NoteNumber":69,"Velocity":70,"Duration":68553,"SoundDuration":68553,"Delta":63190562},{"NoteNumber":79,"Velocity":36,"Duration":90587,"SoundDuration":90587,"Delta":63236469},{"NoteNumber":71,"Velocity":71,"Duration":67940,"SoundDuration":67940,"Delta":63259116},{"NoteNumber":81,"Velocity":40,"Duration":90793,"SoundDuration":90793,"Delta":63327057},{"NoteNumber":91,"Velocity":90,"Duration":831573,"SoundDuration":831573,"Delta":63327057},{"NoteNumber":72,"Velocity":74,"Duration":68043,"SoundDuration":68043,"Delta":63327057},{"NoteNumber":79,"Velocity":37,"Duration":90798,"SoundDuration":90798,"Delta":63417850},{"NoteNumber":71,"Velocity":71,"Duration":68857,"SoundDuration":68857,"Delta":63462948},{"NoteNumber":81,"Velocity":40,"Duration":93690,"SoundDuration":93690,"Delta":63508649},{"NoteNumber":79,"Velocity":36,"Duration":92119,"SoundDuration":92119,"Delta":63602339},{"NoteNumber":69,"Velocity":71,"Duration":69271,"SoundDuration":69271,"Delta":63602339},{"NoteNumber":81,"Velocity":40,"Duration":92740,"SoundDuration":92740,"Delta":63694459},{"NoteNumber":67,"Velocity":71,"Duration":70002,"SoundDuration":70002,"Delta":63740566},{"NoteNumber":79,"Velocity":36,"Duration":93266,"SoundDuration":93266,"Delta":63787199},{"NoteNumber":81,"Velocity":40,"Duration":91810,"SoundDuration":91810,"Delta":63880466},{"NoteNumber":65,"Velocity":72,"Duration":69060,"SoundDuration":69060,"Delta":63880466},{"NoteNumber":79,"Velocity":35,"Duration":92022,"SoundDuration":92022,"Delta":63972276},{"NoteNumber":64,"Velocity":69,"Duration":70007,"SoundDuration":70007,"Delta":64017874},{"NoteNumber":81,"Velocity":38,"Duration":94330,"SoundDuration":94330,"Delta":64064299},{"NoteNumber":79,"Velocity":33,"Duration":91097,"SoundDuration":91097,"Delta":64158630},{"NoteNumber":88,"Velocity":85,"Duration":275755,"SoundDuration":275755,"Delta":64158630},{"NoteNumber":62,"Velocity":69,"Duration":68347,"SoundDuration":68347,"Delta":64158630},{"NoteNumber":81,"Velocity":38,"Duration":92435,"SoundDuration":92435,"Delta":64249728},{"NoteNumber":60,"Velocity":67,"Duration":69793,"SoundDuration":69793,"Delta":64295635},{"NoteNumber":79,"Velocity":34,"Duration":92221,"SoundDuration":92221,"Delta":64342164},{"NoteNumber":81,"Velocity":38,"Duration":89998,"SoundDuration":89998,"Delta":64434385},{"NoteNumber":86,"Velocity":90,"Duration":539369,"SoundDuration":539369,"Delta":64434385},{"NoteNumber":59,"Velocity":73,"Duration":67645,"SoundDuration":67645,"Delta":64434385},{"NoteNumber":79,"Velocity":34,"Duration":89121,"SoundDuration":89121,"Delta":64524384},{"NoteNumber":60,"Velocity":69,"Duration":66963,"SoundDuration":66963,"Delta":64569091},{"NoteNumber":81,"Velocity":36,"Duration":90395,"SoundDuration":90395,"Delta":64613506},{"NoteNumber":79,"Velocity":33,"Duration":88549,"SoundDuration":88549,"Delta":64703902},{"NoteNumber":59,"Velocity":69,"Duration":66484,"SoundDuration":66484,"Delta":64703902},{"NoteNumber":81,"Velocity":37,"Duration":90798,"SoundDuration":90798,"Delta":64792451},{"NoteNumber":57,"Velocity":69,"Duration":68244,"SoundDuration":68244,"Delta":64837555},{"NoteNumber":79,"Velocity":33,"Duration":90504,"SoundDuration":90504,"Delta":64883250},{"NoteNumber":81,"Velocity":37,"Duration":91910,"SoundDuration":91910,"Delta":64973755},{"NoteNumber":79,"Velocity":84,"Duration":80487,"SoundDuration":80487,"Delta":64973755},{"NoteNumber":55,"Velocity":75,"Duration":69063,"SoundDuration":69063,"Delta":64973755},{"NoteNumber":79,"Velocity":33,"Duration":91718,"SoundDuration":91718,"Delta":65065666},{"NoteNumber":53,"Velocity":69,"Duration":69690,"SoundDuration":69690,"Delta":65111063},{"NoteNumber":81,"Velocity":38,"Duration":92323,"SoundDuration":92323,"Delta":65157385},{"NoteNumber":79,"Velocity":32,"Duration":91200,"SoundDuration":91200,"Delta":65249708},{"NoteNumber":52,"Velocity":69,"Duration":68250,"SoundDuration":68250,"Delta":65249708},{"NoteNumber":81,"Velocity":37,"Duration":93058,"SoundDuration":93058,"Delta":65340909},{"NoteNumber":50,"Velocity":69,"Duration":69481,"SoundDuration":69481,"Delta":65387542},{"NoteNumber":79,"Velocity":32,"Duration":92225,"SoundDuration":92225,"Delta":65433967},{"NoteNumber":81,"Velocity":38,"Duration":92139,"SoundDuration":92139,"Delta":65526193},{"NoteNumber":84,"Velocity":87,"Duration":556195,"SoundDuration":556195,"Delta":65526193},{"NoteNumber":48,"Velocity":75,"Duration":68556,"SoundDuration":68556,"Delta":65526193},{"NoteNumber":79,"Velocity":32,"Duration":92115,"SoundDuration":92115,"Delta":65618332},{"NoteNumber":48,"Velocity":69,"Duration":69689,"SoundDuration":69689,"Delta":65664233},{"NoteNumber":81,"Velocity":37,"Duration":93587,"SoundDuration":93587,"Delta":65710448},{"NoteNumber":79,"Velocity":32,"Duration":92638,"SoundDuration":92638,"Delta":65804035},{"NoteNumber":47,"Velocity":69,"Duration":69269,"SoundDuration":69269,"Delta":65804035},{"NoteNumber":81,"Velocity":36,"Duration":92969,"SoundDuration":92969,"Delta":65896673},{"NoteNumber":45,"Velocity":69,"Duration":69169,"SoundDuration":69169,"Delta":65943530},{"NoteNumber":79,"Velocity":32,"Duration":92745,"SoundDuration":92745,"Delta":65989643},{"NoteNumber":81,"Velocity":36,"Duration":95111,"SoundDuration":95111,"Delta":66082389},{"NoteNumber":88,"Velocity":84,"Duration":287673,"SoundDuration":287673,"Delta":66082389},{"NoteNumber":43,"Velocity":72,"Duration":70860,"SoundDuration":70860,"Delta":66082389},{"NoteNumber":79,"Velocity":34,"Duration":97465,"SoundDuration":97465,"Delta":66177500},{"NoteNumber":41,"Velocity":71,"Duration":72644,"SoundDuration":72644,"Delta":66226233},{"NoteNumber":81,"Velocity":37,"Duration":95096,"SoundDuration":95096,"Delta":66274966},{"NoteNumber":79,"Velocity":33,"Duration":96444,"SoundDuration":96444,"Delta":66370062},{"NoteNumber":40,"Velocity":75,"Duration":72193,"SoundDuration":72193,"Delta":66370062},{"NoteNumber":81,"Velocity":36,"Duration":98904,"SoundDuration":98904,"Delta":66466507},{"NoteNumber":38,"Velocity":80,"Duration":75604,"SoundDuration":75604,"Delta":66515008},{"NoteNumber":79,"Velocity":32,"Duration":100806,"SoundDuration":100806,"Delta":66565411},{"NoteNumber":81,"Velocity":36,"Duration":102185,"SoundDuration":102185,"Delta":66666218},{"NoteNumber":36,"Velocity":95,"Duration":306622,"SoundDuration":306622,"Delta":66666218},{"NoteNumber":48,"Velocity":95,"Duration":306622,"SoundDuration":306622,"Delta":66666218},{"NoteNumber":79,"Velocity":32,"Duration":99112,"SoundDuration":99112,"Delta":66768403},{"NoteNumber":50,"Velocity":56,"Duration":75802,"SoundDuration":75802,"Delta":66818079},{"NoteNumber":81,"Velocity":37,"Duration":105324,"SoundDuration":105324,"Delta":66867516},{"NoteNumber":52,"Velocity":57,"Duration":78958,"SoundDuration":78958,"Delta":66893881},{"NoteNumber":79,"Velocity":33,"Duration":101705,"SoundDuration":101705,"Delta":66972840},{"NoteNumber":53,"Velocity":60,"Duration":76747,"SoundDuration":76747,"Delta":66972840},{"NoteNumber":55,"Velocity":60,"Duration":75615,"SoundDuration":75615,"Delta":67049588},{"NoteNumber":81,"Velocity":38,"Duration":101819,"SoundDuration":101819,"Delta":67074546},{"NoteNumber":57,"Velocity":62,"Duration":76741,"SoundDuration":76741,"Delta":67125204},{"NoteNumber":79,"Velocity":33,"Duration":101932,"SoundDuration":101932,"Delta":67176366},{"NoteNumber":59,"Velocity":63,"Duration":76351,"SoundDuration":76351,"Delta":67201946},{"NoteNumber":81,"Velocity":39,"Duration":96668,"SoundDuration":96668,"Delta":67278298},{"NoteNumber":91,"Velocity":90,"Duration":293239,"SoundDuration":293239,"Delta":67278298},{"NoteNumber":60,"Velocity":63,"Duration":145285,"SoundDuration":145285,"Delta":67278298},{"NoteNumber":79,"Velocity":35,"Duration":97697,"SoundDuration":97697,"Delta":67374966},{"NoteNumber":62,"Velocity":65,"Duration":73916,"SoundDuration":73916,"Delta":67423583},{"NoteNumber":81,"Velocity":40,"Duration":98873,"SoundDuration":98873,"Delta":67472663},{"NoteNumber":64,"Velocity":66,"Duration":74037,"SoundDuration":74037,"Delta":67497499},{"NoteNumber":79,"Velocity":36,"Duration":96661,"SoundDuration":96661,"Delta":67571537},{"NoteNumber":65,"Velocity":67,"Duration":72411,"SoundDuration":72411,"Delta":67571537},{"NoteNumber":67,"Velocity":69,"Duration":73687,"SoundDuration":73687,"Delta":67643948},{"NoteNumber":81,"Velocity":40,"Duration":98638,"SoundDuration":98638,"Delta":67668199},{"NoteNumber":69,"Velocity":70,"Duration":73223,"SoundDuration":73223,"Delta":67717635},{"NoteNumber":79,"Velocity":36,"Duration":95331,"SoundDuration":95331,"Delta":67766837},{"NoteNumber":71,"Velocity":71,"Duration":71309,"SoundDuration":71309,"Delta":67790859},{"NoteNumber":81,"Velocity":40,"Duration":91710,"SoundDuration":91710,"Delta":67862168},{"NoteNumber":91,"Velocity":92,"Duration":834137,"SoundDuration":834137,"Delta":67862168},{"NoteNumber":72,"Velocity":74,"Duration":68960,"SoundDuration":68960,"Delta":67862168},{"NoteNumber":79,"Velocity":37,"Duration":91504,"SoundDuration":91504,"Delta":67953879},{"NoteNumber":71,"Velocity":71,"Duration":69478,"SoundDuration":69478,"Delta":67999379},{"NoteNumber":81,"Velocity":40,"Duration":93686,"SoundDuration":93686,"Delta":68045383},{"NoteNumber":79,"Velocity":36,"Duration":91805,"SoundDuration":91805,"Delta":68139070},{"NoteNumber":69,"Velocity":71,"Duration":68854,"SoundDuration":68854,"Delta":68139070},{"NoteNumber":81,"Velocity":40,"Duration":93473,"SoundDuration":93473,"Delta":68230875},{"NoteNumber":67,"Velocity":71,"Duration":70317,"SoundDuration":70317,"Delta":68277401},{"NoteNumber":79,"Velocity":36,"Duration":92537,"SoundDuration":92537,"Delta":68324349},{"NoteNumber":81,"Velocity":39,"Duration":92431,"SoundDuration":92431,"Delta":68416886},{"NoteNumber":65,"Velocity":72,"Duration":68957,"SoundDuration":68957,"Delta":68416886},{"NoteNumber":79,"Velocity":36,"Duration":94659,"SoundDuration":94659,"Delta":68509318},{"NoteNumber":64,"Velocity":69,"Duration":70749,"SoundDuration":70749,"Delta":68556702},{"NoteNumber":81,"Velocity":38,"Duration":92328,"SoundDuration":92328,"Delta":68603977},{"NoteNumber":79,"Velocity":32,"Duration":91802,"SoundDuration":91802,"Delta":68696306},{"NoteNumber":88,"Velocity":84,"Duration":277379,"SoundDuration":277379,"Delta":68696306},{"NoteNumber":62,"Velocity":69,"Duration":68646,"SoundDuration":68646,"Delta":68696306},{"NoteNumber":81,"Velocity":37,"Duration":92950,"SoundDuration":92950,"Delta":68788109},{"NoteNumber":60,"Velocity":67,"Duration":69577,"SoundDuration":69577,"Delta":68834638},{"NoteNumber":79,"Velocity":33,"Duration":92626,"SoundDuration":92626,"Delta":68881059},{"NoteNumber":81,"Velocity":39,"Duration":89607,"SoundDuration":89607,"Delta":68973686},{"NoteNumber":86,"Velocity":90,"Duration":541055,"SoundDuration":541055,"Delta":68973686},{"NoteNumber":59,"Velocity":73,"Duration":67351,"SoundDuration":67351,"Delta":68973686},{"NoteNumber":79,"Velocity":32,"Duration":89221,"SoundDuration":89221,"Delta":69063293},{"NoteNumber":60,"Velocity":69,"Duration":67556,"SoundDuration":67556,"Delta":69107708},{"NoteNumber":81,"Velocity":36,"Duration":90799,"SoundDuration":90799,"Delta":69152515},{"NoteNumber":79,"Velocity":31,"Duration":89607,"SoundDuration":89607,"Delta":69243314},{"NoteNumber":59,"Velocity":69,"Duration":67352,"SoundDuration":67352,"Delta":69243314},{"NoteNumber":81,"Velocity":36,"Duration":90006,"SoundDuration":90006,"Delta":69332922},{"NoteNumber":57,"Velocity":69,"Duration":68147,"SoundDuration":68147,"Delta":69377531},{"NoteNumber":79,"Velocity":30,"Duration":91813,"SoundDuration":91813,"Delta":69422928},{"NoteNumber":81,"Velocity":36,"Duration":92320,"SoundDuration":92320,"Delta":69514741},{"NoteNumber":79,"Velocity":82,"Duration":80844,"SoundDuration":80844,"Delta":69514741},{"NoteNumber":55,"Velocity":75,"Duration":69369,"SoundDuration":69369,"Delta":69514741},{"NoteNumber":79,"Velocity":31,"Duration":91391,"SoundDuration":91391,"Delta":69607061},{"NoteNumber":53,"Velocity":69,"Duration":68852,"SoundDuration":68852,"Delta":69652757},{"NoteNumber":81,"Velocity":36,"Duration":92842,"SoundDuration":92842,"Delta":69698452},{"NoteNumber":79,"Velocity":34,"Duration":91498,"SoundDuration":91498,"Delta":69791295},{"NoteNumber":52,"Velocity":69,"Duration":68748,"SoundDuration":68748,"Delta":69791295},{"NoteNumber":78,"Velocity":36,"Duration":92626,"SoundDuration":92626,"Delta":69882794},{"NoteNumber":50,"Velocity":69,"Duration":69263,"SoundDuration":69263,"Delta":69929107},{"NoteNumber":79,"Velocity":31,"Duration":91802,"SoundDuration":91802,"Delta":69975420},{"NoteNumber":84,"Velocity":86,"Duration":280899,"SoundDuration":280899,"Delta":70067222},{"NoteNumber":48,"Velocity":75,"Duration":280899,"SoundDuration":280899,"Delta":70067222},{"NoteNumber":36,"Velocity":75,"Duration":280898,"SoundDuration":280898,"Delta":70348121},{"NoteNumber":60,"Velocity":68,"Duration":93632,"SoundDuration":93632,"Delta":70629020},{"NoteNumber":64,"Velocity":62,"Duration":93633,"SoundDuration":93633,"Delta":70722653},{"NoteNumber":60,"Velocity":62,"Duration":93632,"SoundDuration":93632,"Delta":70816286},{"NoteNumber":55,"Velocity":62,"Duration":93632,"SoundDuration":93632,"Delta":70909919},{"NoteNumber":36,"Velocity":60,"Duration":280899,"SoundDuration":280899,"Delta":70909919},{"NoteNumber":48,"Velocity":71,"Duration":280899,"SoundDuration":280899,"Delta":70909919},{"NoteNumber":52,"Velocity":62,"Duration":93632,"SoundDuration":93632,"Delta":71003552},{"NoteNumber":55,"Velocity":62,"Duration":93633,"SoundDuration":93633,"Delta":71097185},{"NoteNumber":60,"Velocity":68,"Duration":92319,"SoundDuration":92319,"Delta":71190818},{"NoteNumber":65,"Velocity":62,"Duration":92319,"SoundDuration":92319,"Delta":71283137},{"NoteNumber":60,"Velocity":62,"Duration":92318,"SoundDuration":92318,"Delta":71375456},{"NoteNumber":57,"Velocity":62,"Duration":92319,"SoundDuration":92319,"Delta":71467775},{"NoteNumber":36,"Velocity":60,"Duration":276957,"SoundDuration":276957,"Delta":71467775},{"NoteNumber":48,"Velocity":71,"Duration":276957,"SoundDuration":276957,"Delta":71467775},{"NoteNumber":53,"Velocity":62,"Duration":92319,"SoundDuration":92319,"Delta":71560094},{"NoteNumber":57,"Velocity":62,"Duration":92319,"SoundDuration":92319,"Delta":71652413},{"NoteNumber":60,"Velocity":68,"Duration":92318,"SoundDuration":92318,"Delta":71744732},{"NoteNumber":64,"Velocity":61,"Duration":92319,"SoundDuration":92319,"Delta":71837051},{"NoteNumber":60,"Velocity":61,"Duration":92319,"SoundDuration":92319,"Delta":71929370},{"NoteNumber":55,"Velocity":61,"Duration":92319,"SoundDuration":92319,"Delta":72021689},{"NoteNumber":36,"Velocity":57,"Duration":276956,"SoundDuration":276956,"Delta":72021689},{"NoteNumber":48,"Velocity":68,"Duration":276956,"SoundDuration":276956,"Delta":72021689},{"NoteNumber":52,"Velocity":61,"Duration":92318,"SoundDuration":92318,"Delta":72114008},{"NoteNumber":55,"Velocity":61,"Duration":92319,"SoundDuration":92319,"Delta":72206327},{"NoteNumber":60,"Velocity":63,"Duration":92319,"SoundDuration":92319,"Delta":72298646},{"NoteNumber":62,"Velocity":59,"Duration":92319,"SoundDuration":92319,"Delta":72390965},{"NoteNumber":60,"Velocity":59,"Duration":92318,"SoundDuration":92318,"Delta":72483284},{"NoteNumber":53,"Velocity":59,"Duration":92319,"SoundDuration":92319,"Delta":72575603},{"NoteNumber":36,"Velocity":53,"Duration":276957,"SoundDuration":276957,"Delta":72575603},{"NoteNumber":48,"Velocity":63,"Duration":276957,"SoundDuration":276957,"Delta":72575603},{"NoteNumber":50,"Velocity":59,"Duration":92319,"SoundDuration":92319,"Delta":72667922},{"NoteNumber":53,"Velocity":59,"Duration":92319,"SoundDuration":92319,"Delta":72760241},{"NoteNumber":60,"Velocity":68,"Duration":93632,"SoundDuration":93632,"Delta":72852560},{"NoteNumber":63,"Velocity":61,"Duration":93632,"SoundDuration":93632,"Delta":72946193},{"NoteNumber":60,"Velocity":61,"Duration":93633,"SoundDuration":93633,"Delta":73039826},{"NoteNumber":54,"Velocity":61,"Duration":93632,"SoundDuration":93632,"Delta":73133459},{"NoteNumber":36,"Velocity":59,"Duration":280898,"SoundDuration":280898,"Delta":73133459},{"NoteNumber":48,"Velocity":70,"Duration":280898,"SoundDuration":280898,"Delta":73133459},{"NoteNumber":51,"Velocity":61,"Duration":93632,"SoundDuration":93632,"Delta":73227092},{"NoteNumber":54,"Velocity":61,"Duration":93632,"SoundDuration":93632,"Delta":73320725},{"NoteNumber":60,"Velocity":68,"Duration":93633,"SoundDuration":93633,"Delta":73414358},{"NoteNumber":64,"Velocity":62,"Duration":93632,"SoundDuration":93632,"Delta":73507991},{"NoteNumber":60,"Velocity":62,"Duration":93632,"SoundDuration":93632,"Delta":73601624},{"NoteNumber":55,"Velocity":62,"Duration":93632,"SoundDuration":93632,"Delta":73695257},{"NoteNumber":36,"Velocity":60,"Duration":280899,"SoundDuration":280899,"Delta":73695257},{"NoteNumber":48,"Velocity":71,"Duration":280899,"SoundDuration":280899,"Delta":73695257},{"NoteNumber":52,"Velocity":62,"Duration":93632,"SoundDuration":93632,"Delta":73788890},{"NoteNumber":55,"Velocity":62,"Duration":93633,"SoundDuration":93633,"Delta":73882523},{"NoteNumber":59,"Velocity":68,"Duration":94526,"SoundDuration":94526,"Delta":73976156},{"NoteNumber":62,"Velocity":61,"Duration":94526,"SoundDuration":94526,"Delta":74070683},{"NoteNumber":59,"Velocity":61,"Duration":94526,"SoundDuration":94526,"Delta":74165210},{"NoteNumber":53,"Velocity":61,"Duration":94526,"SoundDuration":94526,"Delta":74259737},{"NoteNumber":36,"Velocity":60,"Duration":283580,"SoundDuration":283580,"Delta":74259737},{"NoteNumber":48,"Velocity":71,"Duration":283580,"SoundDuration":283580,"Delta":74259737},{"NoteNumber":50,"Velocity":61,"Duration":94526,"SoundDuration":94526,"Delta":74354264},{"NoteNumber":53,"Velocity":61,"Duration":94526,"SoundDuration":94526,"Delta":74448791},{"NoteNumber":55,"Velocity":68,"Duration":93632,"SoundDuration":93632,"Delta":74543317},{"NoteNumber":60,"Velocity":62,"Duration":93632,"SoundDuration":93632,"Delta":74636950},{"NoteNumber":55,"Velocity":62,"Duration":93633,"SoundDuration":93633,"Delta":74730583},{"NoteNumber":52,"Velocity":62,"Duration":93632,"SoundDuration":93632,"Delta":74824216},{"NoteNumber":36,"Velocity":71,"Duration":280898,"SoundDuration":280898,"Delta":74824216},{"NoteNumber":48,"Velocity":62,"Duration":93632,"SoundDuration":93632,"Delta":74917849},{"NoteNumber":52,"Velocity":62,"Duration":93632,"SoundDuration":93632,"Delta":75011482},{"NoteNumber":64,"Velocity":68,"Duration":93632,"SoundDuration":93632,"Delta":75105115},{"NoteNumber":67,"Velocity":62,"Duration":93633,"SoundDuration":93633,"Delta":75198748},{"NoteNumber":64,"Velocity":62,"Duration":93632,"SoundDuration":93632,"Delta":75292381},{"NoteNumber":60,"Velocity":62,"Duration":93632,"SoundDuration":93632,"Delta":75386014},{"NoteNumber":48,"Velocity":60,"Duration":280899,"SoundDuration":280899,"Delta":75386014},{"NoteNumber":40,"Velocity":60,"Duration":280899,"SoundDuration":280899,"Delta":75386014},{"NoteNumber":52,"Velocity":71,"Duration":280899,"SoundDuration":280899,"Delta":75386014},{"NoteNumber":55,"Velocity":62,"Duration":93632,"SoundDuration":93632,"Delta":75479647},{"NoteNumber":60,"Velocity":62,"Duration":93633,"SoundDuration":93633,"Delta":75573280},{"NoteNumber":65,"Velocity":68,"Duration":92319,"SoundDuration":92319,"Delta":75666913},{"NoteNumber":69,"Velocity":62,"Duration":92319,"SoundDuration":92319,"Delta":75759232},{"NoteNumber":65,"Velocity":62,"Duration":92318,"SoundDuration":92318,"Delta":75851551},{"NoteNumber":60,"Velocity":62,"Duration":92319,"SoundDuration":92319,"Delta":75943870},{"NoteNumber":48,"Velocity":60,"Duration":276957,"SoundDuration":276957,"Delta":75943870},{"NoteNumber":41,"Velocity":60,"Duration":276957,"SoundDuration":276957,"Delta":75943870},{"NoteNumber":53,"Velocity":71,"Duration":276957,"SoundDuration":276957,"Delta":75943870},{"NoteNumber":57,"Velocity":62,"Duration":92319,"SoundDuration":92319,"Delta":76036189},{"NoteNumber":60,"Velocity":62,"Duration":92319,"SoundDuration":92319,"Delta":76128508},{"NoteNumber":64,"Velocity":68,"Duration":92318,"SoundDuration":92318,"Delta":76220827},{"NoteNumber":67,"Velocity":61,"Duration":92319,"SoundDuration":92319,"Delta":76313146},{"NoteNumber":64,"Velocity":61,"Duration":92319,"SoundDuration":92319,"Delta":76405465},{"NoteNumber":60,"Velocity":61,"Duration":92319,"SoundDuration":92319,"Delta":76497784},{"NoteNumber":48,"Velocity":57,"Duration":276956,"SoundDuration":276956,"Delta":76497784},{"NoteNumber":40,"Velocity":57,"Duration":276956,"SoundDuration":276956,"Delta":76497784},{"NoteNumber":52,"Velocity":68,"Duration":276956,"SoundDuration":276956,"Delta":76497784},{"NoteNumber":55,"Velocity":61,"Duration":92318,"SoundDuration":92318,"Delta":76590103},{"NoteNumber":60,"Velocity":61,"Duration":92319,"SoundDuration":92319,"Delta":76682422},{"NoteNumber":62,"Velocity":63,"Duration":92319,"SoundDuration":92319,"Delta":76774741},{"NoteNumber":65,"Velocity":59,"Duration":92319,"SoundDuration":92319,"Delta":76867060},{"NoteNumber":62,"Velocity":59,"Duration":92318,"SoundDuration":92318,"Delta":76959379},{"NoteNumber":60,"Velocity":59,"Duration":92319,"SoundDuration":92319,"Delta":77051698},{"NoteNumber":48,"Velocity":53,"Duration":276957,"SoundDuration":276957,"Delta":77051698},{"NoteNumber":38,"Velocity":53,"Duration":276957,"SoundDuration":276957,"Delta":77051698},{"NoteNumber":50,"Velocity":63,"Duration":276957,"SoundDuration":276957,"Delta":77051698},{"NoteNumber":53,"Velocity":59,"Duration":92319,"SoundDuration":92319,"Delta":77144017},{"NoteNumber":60,"Velocity":59,"Duration":92319,"SoundDuration":92319,"Delta":77236336},{"NoteNumber":63,"Velocity":68,"Duration":93632,"SoundDuration":93632,"Delta":77328655},{"NoteNumber":66,"Velocity":61,"Duration":93632,"SoundDuration":93632,"Delta":77422288},{"NoteNumber":63,"Velocity":61,"Duration":93633,"SoundDuration":93633,"Delta":77515921},{"NoteNumber":60,"Velocity":61,"Duration":93632,"SoundDuration":93632,"Delta":77609554},{"NoteNumber":48,"Velocity":59,"Duration":280898,"SoundDuration":280898,"Delta":77609554},{"NoteNumber":39,"Velocity":59,"Duration":280898,"SoundDuration":280898,"Delta":77609554},{"NoteNumber":51,"Velocity":70,"Duration":280898,"SoundDuration":280898,"Delta":77609554},{"NoteNumber":54,"Velocity":61,"Duration":93632,"SoundDuration":93632,"Delta":77703187},{"NoteNumber":60,"Velocity":61,"Duration":93632,"SoundDuration":93632,"Delta":77796820},{"NoteNumber":64,"Velocity":68,"Duration":93633,"SoundDuration":93633,"Delta":77890453},{"NoteNumber":67,"Velocity":62,"Duration":93632,"SoundDuration":93632,"Delta":77984086},{"NoteNumber":64,"Velocity":62,"Duration":93632,"SoundDuration":93632,"Delta":78077719},{"NoteNumber":60,"Velocity":62,"Duration":93632,"SoundDuration":93632,"Delta":78171352},{"NoteNumber":48,"Velocity":60,"Duration":280899,"SoundDuration":280899,"Delta":78171352},{"NoteNumber":40,"Velocity":60,"Duration":280899,"SoundDuration":280899,"Delta":78171352},{"NoteNumber":52,"Velocity":71,"Duration":280899,"SoundDuration":280899,"Delta":78171352},{"NoteNumber":55,"Velocity":62,"Duration":93632,"SoundDuration":93632,"Delta":78264985},{"NoteNumber":60,"Velocity":62,"Duration":93633,"SoundDuration":93633,"Delta":78358618},{"NoteNumber":62,"Velocity":68,"Duration":94526,"SoundDuration":94526,"Delta":78452251},{"NoteNumber":65,"Velocity":61,"Duration":94526,"SoundDuration":94526,"Delta":78546778},{"NoteNumber":62,"Velocity":61,"Duration":94526,"SoundDuration":94526,"Delta":78641305},{"NoteNumber":59,"Velocity":61,"Duration":94526,"SoundDuration":94526,"Delta":78735832},{"NoteNumber":48,"Velocity":60,"Duration":283580,"SoundDuration":283580,"Delta":78735832},{"NoteNumber":38,"Velocity":60,"Duration":283580,"SoundDuration":283580,"Delta":78735832},{"NoteNumber":50,"Velocity":71,"Duration":283580,"SoundDuration":283580,"Delta":78735832},{"NoteNumber":53,"Velocity":61,"Duration":94526,"SoundDuration":94526,"Delta":78830359},{"NoteNumber":59,"Velocity":61,"Duration":94526,"SoundDuration":94526,"Delta":78924886},{"NoteNumber":60,"Velocity":68,"Duration":94064,"SoundDuration":94064,"Delta":79019412},{"NoteNumber":64,"Velocity":62,"Duration":94526,"SoundDuration":94526,"Delta":79113477},{"NoteNumber":60,"Velocity":62,"Duration":94975,"SoundDuration":94975,"Delta":79208004},{"NoteNumber":52,"Velocity":62,"Duration":95428,"SoundDuration":95428,"Delta":79302980},{"NoteNumber":36,"Velocity":63,"Duration":287796,"SoundDuration":287796,"Delta":79302980},{"NoteNumber":48,"Velocity":63,"Duration":287796,"SoundDuration":287796,"Delta":79302980},{"NoteNumber":64,"Velocity":62,"Duration":95886,"SoundDuration":95886,"Delta":79398409},{"NoteNumber":52,"Velocity":62,"Duration":96481,"SoundDuration":96481,"Delta":79494295},{"NoteNumber":40,"Velocity":82,"Duration":141096,"SoundDuration":141096,"Delta":79590776},{"NoteNumber":52,"Velocity":70,"Duration":94064,"SoundDuration":94064,"Delta":79684841},{"NoteNumber":64,"Velocity":70,"Duration":94064,"SoundDuration":94064,"Delta":79778905},{"NoteNumber":40,"Velocity":82,"Duration":141096,"SoundDuration":141096,"Delta":79872970},{"NoteNumber":52,"Velocity":71,"Duration":94064,"SoundDuration":94064,"Delta":79967034},{"NoteNumber":64,"Velocity":72,"Duration":94064,"SoundDuration":94064,"Delta":80061099},{"NoteNumber":33,"Velocity":68,"Duration":140449,"SoundDuration":140449,"Delta":80155163},{"NoteNumber":45,"Velocity":80,"Duration":140449,"SoundDuration":140449,"Delta":80155163},{"NoteNumber":57,"Velocity":73,"Duration":93632,"SoundDuration":93632,"Delta":80248796},{"NoteNumber":69,"Velocity":74,"Duration":93633,"SoundDuration":93633,"Delta":80342429},{"NoteNumber":35,"Velocity":70,"Duration":140449,"SoundDuration":140449,"Delta":80436062},{"NoteNumber":47,"Velocity":83,"Duration":140449,"SoundDuration":140449,"Delta":80436062},{"NoteNumber":59,"Velocity":75,"Duration":93632,"SoundDuration":93632,"Delta":80529695},{"NoteNumber":71,"Velocity":77,"Duration":93632,"SoundDuration":93632,"Delta":80623328},{"NoteNumber":36,"Velocity":72,"Duration":140665,"SoundDuration":140665,"Delta":80716961},{"NoteNumber":48,"Velocity":85,"Duration":140665,"SoundDuration":140665,"Delta":80716961},{"NoteNumber":60,"Velocity":78,"Duration":94180,"SoundDuration":94180,"Delta":80810594},{"NoteNumber":72,"Velocity":79,"Duration":94751,"SoundDuration":94751,"Delta":80904774},{"NoteNumber":38,"Velocity":74,"Duration":143031,"SoundDuration":143031,"Delta":80999526},{"NoteNumber":50,"Velocity":89,"Duration":143031,"SoundDuration":143031,"Delta":80999526},{"NoteNumber":62,"Velocity":80,"Duration":95772,"SoundDuration":95772,"Delta":81094728},{"NoteNumber":74,"Velocity":81,"Duration":96481,"SoundDuration":96481,"Delta":81190500},{"NoteNumber":76,"Velocity":85,"Duration":95428,"SoundDuration":95428,"Delta":81286982},{"NoteNumber":40,"Velocity":80,"Duration":572574,"SoundDuration":572574,"Delta":81286982},{"NoteNumber":52,"Velocity":95,"Duration":572574,"SoundDuration":572574,"Delta":81286982},{"NoteNumber":64,"Velocity":85,"Duration":95429,"SoundDuration":95429,"Delta":81382411},{"NoteNumber":76,"Velocity":84,"Duration":95428,"SoundDuration":95428,"Delta":81477840},{"NoteNumber":64,"Velocity":84,"Duration":95428,"SoundDuration":95428,"Delta":81573269},{"NoteNumber":76,"Velocity":84,"Duration":95428,"SoundDuration":95428,"Delta":81668698},{"NoteNumber":64,"Velocity":82,"Duration":95429,"SoundDuration":95429,"Delta":81764127},{"NoteNumber":40,"Velocity":74,"Duration":139133,"SoundDuration":139133,"Delta":81859556},{"NoteNumber":52,"Velocity":88,"Duration":139133,"SoundDuration":139133,"Delta":81859556},{"NoteNumber":64,"Velocity":79,"Duration":92755,"SoundDuration":92755,"Delta":81952312},{"NoteNumber":76,"Velocity":78,"Duration":92755,"SoundDuration":92755,"Delta":82045067},{"NoteNumber":38,"Velocity":73,"Duration":139133,"SoundDuration":139133,"Delta":82137823},{"NoteNumber":50,"Velocity":86,"Duration":139133,"SoundDuration":139133,"Delta":82137823},{"NoteNumber":62,"Velocity":77,"Duration":92755,"SoundDuration":92755,"Delta":82230579},{"NoteNumber":74,"Velocity":77,"Duration":92755,"SoundDuration":92755,"Delta":82323335},{"NoteNumber":36,"Velocity":71,"Duration":139781,"SoundDuration":139781,"Delta":82416091},{"NoteNumber":48,"Velocity":84,"Duration":139781,"SoundDuration":139781,"Delta":82416091},{"NoteNumber":60,"Velocity":75,"Duration":93187,"SoundDuration":93187,"Delta":82509279},{"NoteNumber":72,"Velocity":75,"Duration":93187,"SoundDuration":93187,"Delta":82602467},{"NoteNumber":35,"Velocity":69,"Duration":139782,"SoundDuration":139782,"Delta":82695655},{"NoteNumber":47,"Velocity":82,"Duration":139782,"SoundDuration":139782,"Delta":82695655},{"NoteNumber":59,"Velocity":74,"Duration":93187,"SoundDuration":93187,"Delta":82788843},{"NoteNumber":71,"Velocity":74,"Duration":92970,"SoundDuration":92970,"Delta":82882031},{"NoteNumber":36,"Velocity":68,"Duration":139023,"SoundDuration":139023,"Delta":82975001},{"NoteNumber":48,"Velocity":80,"Duration":139023,"SoundDuration":139023,"Delta":82975001},{"NoteNumber":60,"Velocity":73,"Duration":93079,"SoundDuration":93079,"Delta":83067539},{"NoteNumber":72,"Velocity":73,"Duration":93740,"SoundDuration":93740,"Delta":83160619},{"NoteNumber":33,"Velocity":67,"Duration":141671,"SoundDuration":141671,"Delta":83254360},{"NoteNumber":45,"Velocity":79,"Duration":141671,"SoundDuration":141671,"Delta":83254360},{"NoteNumber":57,"Velocity":72,"Duration":94863,"SoundDuration":94863,"Delta":83348655},{"NoteNumber":69,"Velocity":73,"Duration":95543,"SoundDuration":95543,"Delta":83443519},{"NoteNumber":64,"Velocity":85,"Duration":94064,"SoundDuration":94064,"Delta":83539062},{"NoteNumber":40,"Velocity":92,"Duration":571363,"SoundDuration":571363,"Delta":83539062},{"NoteNumber":52,"Velocity":77,"Duration":94526,"SoundDuration":94526,"Delta":83633127},{"NoteNumber":64,"Velocity":77,"Duration":94975,"SoundDuration":94975,"Delta":83727654},{"NoteNumber":52,"Velocity":77,"Duration":95428,"SoundDuration":95428,"Delta":83822629},{"NoteNumber":64,"Velocity":77,"Duration":95886,"SoundDuration":95886,"Delta":83918058},{"NoteNumber":52,"Velocity":77,"Duration":96481,"SoundDuration":96481,"Delta":84013945},{"NoteNumber":40,"Velocity":69,"Duration":141096,"SoundDuration":141096,"Delta":84110426},{"NoteNumber":52,"Velocity":82,"Duration":141096,"SoundDuration":141096,"Delta":84110426},{"NoteNumber":64,"Velocity":70,"Duration":94064,"SoundDuration":94064,"Delta":84204491},{"NoteNumber":76,"Velocity":70,"Duration":94064,"SoundDuration":94064,"Delta":84298555},{"NoteNumber":40,"Velocity":69,"Duration":141096,"SoundDuration":141096,"Delta":84392620},{"NoteNumber":52,"Velocity":82,"Duration":141096,"SoundDuration":141096,"Delta":84392620},{"NoteNumber":64,"Velocity":71,"Duration":94064,"SoundDuration":94064,"Delta":84486684},{"NoteNumber":76,"Velocity":72,"Duration":94064,"SoundDuration":94064,"Delta":84580749},{"NoteNumber":45,"Velocity":68,"Duration":140449,"SoundDuration":140449,"Delta":84674813},{"NoteNumber":57,"Velocity":80,"Duration":140449,"SoundDuration":140449,"Delta":84674813},{"NoteNumber":69,"Velocity":73,"Duration":93632,"SoundDuration":93632,"Delta":84768446},{"NoteNumber":81,"Velocity":74,"Duration":93633,"SoundDuration":93633,"Delta":84862079},{"NoteNumber":47,"Velocity":70,"Duration":140449,"SoundDuration":140449,"Delta":84955712},{"NoteNumber":59,"Velocity":83,"Duration":140449,"SoundDuration":140449,"Delta":84955712},{"NoteNumber":71,"Velocity":75,"Duration":93632,"SoundDuration":93632,"Delta":85049345},{"NoteNumber":83,"Velocity":77,"Duration":93632,"SoundDuration":93632,"Delta":85142978},{"NoteNumber":48,"Velocity":72,"Duration":140665,"SoundDuration":140665,"Delta":85236611},{"NoteNumber":60,"Velocity":85,"Duration":140665,"SoundDuration":140665,"Delta":85236611},{"NoteNumber":72,"Velocity":78,"Duration":94180,"SoundDuration":94180,"Delta":85330244},{"NoteNumber":84,"Velocity":79,"Duration":94751,"SoundDuration":94751,"Delta":85424424},{"NoteNumber":50,"Velocity":74,"Duration":143031,"SoundDuration":143031,"Delta":85519176},{"NoteNumber":62,"Velocity":89,"Duration":143031,"SoundDuration":143031,"Delta":85519176},{"NoteNumber":74,"Velocity":80,"Duration":95772,"SoundDuration":95772,"Delta":85614378},{"NoteNumber":86,"Velocity":81,"Duration":96481,"SoundDuration":96481,"Delta":85710150},{"NoteNumber":88,"Velocity":85,"Duration":95428,"SoundDuration":95428,"Delta":85806632},{"NoteNumber":52,"Velocity":80,"Duration":572574,"SoundDuration":572574,"Delta":85806632},{"NoteNumber":64,"Velocity":95,"Duration":572574,"SoundDuration":572574,"Delta":85806632},{"NoteNumber":76,"Velocity":85,"Duration":95429,"SoundDuration":95429,"Delta":85902061},{"NoteNumber":88,"Velocity":84,"Duration":95428,"SoundDuration":95428,"Delta":85997490},{"NoteNumber":76,"Velocity":84,"Duration":95428,"SoundDuration":95428,"Delta":86092919},{"NoteNumber":88,"Velocity":84,"Duration":95428,"SoundDuration":95428,"Delta":86188348},{"NoteNumber":76,"Velocity":82,"Duration":95429,"SoundDuration":95429,"Delta":86283777},{"NoteNumber":52,"Velocity":74,"Duration":139133,"SoundDuration":139133,"Delta":86379206},{"NoteNumber":64,"Velocity":88,"Duration":139133,"SoundDuration":139133,"Delta":86379206},{"NoteNumber":76,"Velocity":79,"Duration":92755,"SoundDuration":92755,"Delta":86471961},{"NoteNumber":88,"Velocity":78,"Duration":92755,"SoundDuration":92755,"Delta":86564717},{"NoteNumber":50,"Velocity":73,"Duration":139133,"SoundDuration":139133,"Delta":86657473},{"NoteNumber":62,"Velocity":86,"Duration":139133,"SoundDuration":139133,"Delta":86657473},{"NoteNumber":74,"Velocity":77,"Duration":92755,"SoundDuration":92755,"Delta":86750229},{"NoteNumber":86,"Velocity":77,"Duration":92755,"SoundDuration":92755,"Delta":86842985},{"NoteNumber":48,"Velocity":71,"Duration":139781,"SoundDuration":139781,"Delta":86935741},{"NoteNumber":60,"Velocity":84,"Duration":139781,"SoundDuration":139781,"Delta":86935741},{"NoteNumber":72,"Velocity":75,"Duration":93187,"SoundDuration":93187,"Delta":87028929},{"NoteNumber":84,"Velocity":75,"Duration":93187,"SoundDuration":93187,"Delta":87122117},{"NoteNumber":47,"Velocity":69,"Duration":139782,"SoundDuration":139782,"Delta":87215305},{"NoteNumber":59,"Velocity":82,"Duration":139782,"SoundDuration":139782,"Delta":87215305},{"NoteNumber":71,"Velocity":74,"Duration":93187,"SoundDuration":93187,"Delta":87308493},{"NoteNumber":83,"Velocity":74,"Duration":92970,"SoundDuration":92970,"Delta":87401681},{"NoteNumber":48,"Velocity":68,"Duration":139023,"SoundDuration":139023,"Delta":87494651},{"NoteNumber":60,"Velocity":80,"Duration":139023,"SoundDuration":139023,"Delta":87494651},{"NoteNumber":72,"Velocity":73,"Duration":93079,"SoundDuration":93079,"Delta":87587189},{"NoteNumber":84,"Velocity":73,"Duration":93740,"SoundDuration":93740,"Delta":87680269},{"NoteNumber":45,"Velocity":67,"Duration":141671,"SoundDuration":141671,"Delta":87774010},{"NoteNumber":57,"Velocity":79,"Duration":141671,"SoundDuration":141671,"Delta":87774010},{"NoteNumber":69,"Velocity":72,"Duration":94863,"SoundDuration":94863,"Delta":87868305},{"NoteNumber":81,"Velocity":73,"Duration":95543,"SoundDuration":95543,"Delta":87963169},{"NoteNumber":76,"Velocity":82,"Duration":95886,"SoundDuration":95886,"Delta":88058712},{"NoteNumber":40,"Velocity":70,"Duration":575318,"SoundDuration":575318,"Delta":88058712},{"NoteNumber":52,"Velocity":82,"Duration":575318,"SoundDuration":575318,"Delta":88058712},{"NoteNumber":64,"Velocity":78,"Duration":95886,"SoundDuration":95886,"Delta":88154599},{"NoteNumber":76,"Velocity":78,"Duration":95886,"SoundDuration":95886,"Delta":88250485},{"NoteNumber":64,"Velocity":78,"Duration":95886,"SoundDuration":95886,"Delta":88346372},{"NoteNumber":76,"Velocity":78,"Duration":95886,"SoundDuration":95886,"Delta":88442258},{"NoteNumber":64,"Velocity":78,"Duration":95886,"SoundDuration":95886,"Delta":88538145},{"NoteNumber":81,"Velocity":80,"Duration":93632,"SoundDuration":93632,"Delta":88634031},{"NoteNumber":41,"Velocity":56,"Duration":140449,"SoundDuration":140449,"Delta":88634031},{"NoteNumber":45,"Velocity":67,"Duration":140449,"SoundDuration":140449,"Delta":88634031},{"NoteNumber":53,"Velocity":79,"Duration":140449,"SoundDuration":140449,"Delta":88634031},{"NoteNumber":69,"Velocity":75,"Duration":93632,"SoundDuration":93632,"Delta":88727664},{"NoteNumber":81,"Velocity":75,"Duration":93633,"SoundDuration":93633,"Delta":88821297},{"NoteNumber":69,"Velocity":75,"Duration":93632,"SoundDuration":93632,"Delta":88914930},{"NoteNumber":41,"Velocity":53,"Duration":140449,"SoundDuration":140449,"Delta":88914930},{"NoteNumber":45,"Velocity":63,"Duration":140449,"SoundDuration":140449,"Delta":88914930},{"NoteNumber":53,"Velocity":75,"Duration":140449,"SoundDuration":140449,"Delta":88914930},{"NoteNumber":81,"Velocity":75,"Duration":93632,"SoundDuration":93632,"Delta":89008563},{"NoteNumber":69,"Velocity":75,"Duration":93632,"SoundDuration":93632,"Delta":89102196},{"NoteNumber":81,"Velocity":82,"Duration":93633,"SoundDuration":93633,"Delta":89195829},{"NoteNumber":40,"Velocity":56,"Duration":140449,"SoundDuration":140449,"Delta":89195829},{"NoteNumber":45,"Velocity":67,"Duration":140449,"SoundDuration":140449,"Delta":89195829},{"NoteNumber":52,"Velocity":79,"Duration":140449,"SoundDuration":140449,"Delta":89195829},{"NoteNumber":69,"Velocity":75,"Duration":93632,"SoundDuration":93632,"Delta":89289462},{"NoteNumber":81,"Velocity":75,"Duration":93632,"SoundDuration":93632,"Delta":89383095},{"NoteNumber":69,"Velocity":75,"Duration":93632,"SoundDuration":93632,"Delta":89476728},{"NoteNumber":40,"Velocity":56,"Duration":140449,"SoundDuration":140449,"Delta":89476728},{"NoteNumber":45,"Velocity":67,"Duration":140449,"SoundDuration":140449,"Delta":89476728},{"NoteNumber":52,"Velocity":79,"Duration":140449,"SoundDuration":140449,"Delta":89476728},{"NoteNumber":81,"Velocity":75,"Duration":93632,"SoundDuration":93632,"Delta":89570361},{"NoteNumber":69,"Velocity":75,"Duration":93633,"SoundDuration":93633,"Delta":89663994},{"NoteNumber":81,"Velocity":82,"Duration":95428,"SoundDuration":95428,"Delta":89757627},{"NoteNumber":38,"Velocity":56,"Duration":143143,"SoundDuration":143143,"Delta":89757627},{"NoteNumber":45,"Velocity":66,"Duration":143143,"SoundDuration":143143,"Delta":89757627},{"NoteNumber":50,"Velocity":78,"Duration":143143,"SoundDuration":143143,"Delta":89757627},{"NoteNumber":69,"Velocity":75,"Duration":95429,"SoundDuration":95429,"Delta":89853056},{"NoteNumber":81,"Velocity":75,"Duration":95428,"SoundDuration":95428,"Delta":89948485},{"NoteNumber":69,"Velocity":75,"Duration":95428,"SoundDuration":95428,"Delta":90043914},{"NoteNumber":38,"Velocity":56,"Duration":143143,"SoundDuration":143143,"Delta":90043914},{"NoteNumber":45,"Velocity":66,"Duration":143143,"SoundDuration":143143,"Delta":90043914},{"NoteNumber":50,"Velocity":78,"Duration":143143,"SoundDuration":143143,"Delta":90043914},{"NoteNumber":81,"Velocity":75,"Duration":95428,"SoundDuration":95428,"Delta":90139343},{"NoteNumber":69,"Velocity":75,"Duration":95429,"SoundDuration":95429,"Delta":90234772},{"NoteNumber":81,"Velocity":81,"Duration":95428,"SoundDuration":95428,"Delta":90330201},{"NoteNumber":36,"Velocity":56,"Duration":143143,"SoundDuration":143143,"Delta":90330201},{"NoteNumber":45,"Velocity":66,"Duration":143143,"SoundDuration":143143,"Delta":90330201},{"NoteNumber":48,"Velocity":78,"Duration":143143,"SoundDuration":143143,"Delta":90330201},{"NoteNumber":69,"Velocity":75,"Duration":95428,"SoundDuration":95428,"Delta":90425630},{"NoteNumber":81,"Velocity":75,"Duration":95429,"SoundDuration":95429,"Delta":90521059},{"NoteNumber":69,"Velocity":75,"Duration":95428,"SoundDuration":95428,"Delta":90616488},{"NoteNumber":36,"Velocity":56,"Duration":148501,"SoundDuration":148501,"Delta":90616488},{"NoteNumber":45,"Velocity":67,"Duration":148501,"SoundDuration":148501,"Delta":90616488},{"NoteNumber":48,"Velocity":79,"Duration":148501,"SoundDuration":148501,"Delta":90616488},{"NoteNumber":81,"Velocity":75,"Duration":106145,"SoundDuration":106145,"Delta":90711917},{"NoteNumber":69,"Velocity":75,"Duration":106145,"SoundDuration":106145,"Delta":90818063},{"NoteNumber":77,"Velocity":81,"Duration":95428,"SoundDuration":95428,"Delta":90924209},{"NoteNumber":38,"Velocity":53,"Duration":143143,"SoundDuration":143143,"Delta":90924209},{"NoteNumber":45,"Velocity":63,"Duration":143143,"SoundDuration":143143,"Delta":90924209},{"NoteNumber":50,"Velocity":75,"Duration":143143,"SoundDuration":143143,"Delta":90924209},{"NoteNumber":79,"Velocity":77,"Duration":95429,"SoundDuration":95429,"Delta":91019638},{"NoteNumber":81,"Velocity":77,"Duration":95428,"SoundDuration":95428,"Delta":91115067},{"NoteNumber":77,"Velocity":79,"Duration":95428,"SoundDuration":95428,"Delta":91210496},{"NoteNumber":38,"Velocity":52,"Duration":143143,"SoundDuration":143143,"Delta":91210496},{"NoteNumber":45,"Velocity":62,"Duration":143143,"SoundDuration":143143,"Delta":91210496},{"NoteNumber":50,"Velocity":74,"Duration":143143,"SoundDuration":143143,"Delta":91210496},{"NoteNumber":76,"Velocity":75,"Duration":95428,"SoundDuration":95428,"Delta":91305925},{"NoteNumber":74,"Velocity":75,"Duration":95429,"SoundDuration":95429,"Delta":91401354},{"NoteNumber":72,"Velocity":80,"Duration":94405,"SoundDuration":94405,"Delta":91496783},{"NoteNumber":40,"Velocity":56,"Duration":141437,"SoundDuration":141437,"Delta":91496783},{"NoteNumber":45,"Velocity":67,"Duration":141437,"SoundDuration":141437,"Delta":91496783},{"NoteNumber":52,"Velocity":79,"Duration":141437,"SoundDuration":141437,"Delta":91496783},{"NoteNumber":74,"Velocity":74,"Duration":94064,"SoundDuration":94064,"Delta":91591188},{"NoteNumber":76,"Velocity":74,"Duration":94064,"SoundDuration":94064,"Delta":91685253},{"NoteNumber":72,"Velocity":78,"Duration":94064,"SoundDuration":94064,"Delta":91779317},{"NoteNumber":40,"Velocity":64,"Duration":141096,"SoundDuration":141096,"Delta":91779317},{"NoteNumber":52,"Velocity":77,"Duration":141096,"SoundDuration":141096,"Delta":91779317},{"NoteNumber":71,"Velocity":71,"Duration":94064,"SoundDuration":94064,"Delta":91873382},{"NoteNumber":69,"Velocity":71,"Duration":94064,"SoundDuration":94064,"Delta":91967446},{"NoteNumber":71,"Velocity":81,"Duration":95886,"SoundDuration":95886,"Delta":92061511},{"NoteNumber":40,"Velocity":62,"Duration":143829,"SoundDuration":143829,"Delta":92061511},{"NoteNumber":52,"Velocity":74,"Duration":143829,"SoundDuration":143829,"Delta":92061511},{"NoteNumber":72,"Velocity":73,"Duration":95886,"SoundDuration":95886,"Delta":92157397},{"NoteNumber":74,"Velocity":73,"Duration":95886,"SoundDuration":95886,"Delta":92253284},{"NoteNumber":71,"Velocity":79,"Duration":95886,"SoundDuration":95886,"Delta":92349170},{"NoteNumber":40,"Velocity":62,"Duration":148127,"SoundDuration":148127,"Delta":92349170},{"NoteNumber":52,"Velocity":74,"Duration":148127,"SoundDuration":148127,"Delta":92349170},{"NoteNumber":69,"Velocity":75,"Duration":104482,"SoundDuration":104482,"Delta":92445057},{"NoteNumber":68,"Velocity":75,"Duration":104482,"SoundDuration":104482,"Delta":92549539},{"NoteNumber":69,"Velocity":79,"Duration":99245,"SoundDuration":99245,"Delta":92654022},{"NoteNumber":36,"Velocity":80,"Duration":148868,"SoundDuration":148868,"Delta":92654022},{"NoteNumber":57,"Velocity":75,"Duration":99245,"SoundDuration":99245,"Delta":92753267},{"NoteNumber":45,"Velocity":66,"Duration":148868,"SoundDuration":148868,"Delta":92802890},{"NoteNumber":69,"Velocity":75,"Duration":99245,"SoundDuration":99245,"Delta":92852513},{"NoteNumber":57,"Velocity":75,"Duration":99245,"SoundDuration":99245,"Delta":92951759},{"NoteNumber":44,"Velocity":66,"Duration":148868,"SoundDuration":148868,"Delta":92951759},{"NoteNumber":69,"Velocity":75,"Duration":99245,"SoundDuration":99245,"Delta":93051004},{"NoteNumber":45,"Velocity":66,"Duration":148868,"SoundDuration":148868,"Delta":93100627},{"NoteNumber":57,"Velocity":75,"Duration":99245,"SoundDuration":99245,"Delta":93150250},{"NoteNumber":69,"Velocity":80,"Duration":93632,"SoundDuration":93632,"Delta":93249496},{"NoteNumber":41,"Velocity":84,"Duration":140449,"SoundDuration":140449,"Delta":93249496},{"NoteNumber":57,"Velocity":75,"Duration":93632,"SoundDuration":93632,"Delta":93343129},{"NoteNumber":45,"Velocity":64,"Duration":140449,"SoundDuration":140449,"Delta":93389945},{"NoteNumber":69,"Velocity":75,"Duration":93633,"SoundDuration":93633,"Delta":93436762},{"NoteNumber":57,"Velocity":75,"Duration":93632,"SoundDuration":93632,"Delta":93530395},{"NoteNumber":44,"Velocity":64,"Duration":140449,"SoundDuration":140449,"Delta":93530395},{"NoteNumber":69,"Velocity":75,"Duration":93632,"SoundDuration":93632,"Delta":93624028},{"NoteNumber":45,"Velocity":64,"Duration":140449,"SoundDuration":140449,"Delta":93670844},{"NoteNumber":57,"Velocity":75,"Duration":93632,"SoundDuration":93632,"Delta":93717661},{"NoteNumber":69,"Velocity":82,"Duration":93633,"SoundDuration":93633,"Delta":93811294},{"NoteNumber":40,"Velocity":84,"Duration":140449,"SoundDuration":140449,"Delta":93811294},{"NoteNumber":57,"Velocity":75,"Duration":93632,"SoundDuration":93632,"Delta":93904927},{"NoteNumber":45,"Velocity":67,"Duration":140449,"SoundDuration":140449,"Delta":93951743},{"NoteNumber":69,"Velocity":75,"Duration":93632,"SoundDuration":93632,"Delta":93998560},{"NoteNumber":57,"Velocity":75,"Duration":93632,"SoundDuration":93632,"Delta":94092193},{"NoteNumber":44,"Velocity":67,"Duration":140449,"SoundDuration":140449,"Delta":94092193},{"NoteNumber":69,"Velocity":75,"Duration":93632,"SoundDuration":93632,"Delta":94185826},{"NoteNumber":45,"Velocity":67,"Duration":140449,"SoundDuration":140449,"Delta":94232642},{"NoteNumber":57,"Velocity":75,"Duration":93633,"SoundDuration":93633,"Delta":94279459},{"NoteNumber":69,"Velocity":82,"Duration":95428,"SoundDuration":95428,"Delta":94373092},{"NoteNumber":38,"Velocity":82,"Duration":143143,"SoundDuration":143143,"Delta":94373092},{"NoteNumber":57,"Velocity":75,"Duration":95429,"SoundDuration":95429,"Delta":94468521},{"NoteNumber":45,"Velocity":66,"Duration":143143,"SoundDuration":143143,"Delta":94516235},{"NoteNumber":69,"Velocity":75,"Duration":95428,"SoundDuration":95428,"Delta":94563950},{"NoteNumber":57,"Velocity":75,"Duration":95428,"SoundDuration":95428,"Delta":94659379},{"NoteNumber":44,"Velocity":66,"Duration":143143,"SoundDuration":143143,"Delta":94659379},{"NoteNumber":69,"Velocity":75,"Duration":95428,"SoundDuration":95428,"Delta":94754808},{"NoteNumber":45,"Velocity":66,"Duration":143143,"SoundDuration":143143,"Delta":94802522},{"NoteNumber":57,"Velocity":75,"Duration":95429,"SoundDuration":95429,"Delta":94850237},{"NoteNumber":69,"Velocity":81,"Duration":95428,"SoundDuration":95428,"Delta":94945666},{"NoteNumber":36,"Velocity":82,"Duration":143143,"SoundDuration":143143,"Delta":94945666},{"NoteNumber":57,"Velocity":75,"Duration":95428,"SoundDuration":95428,"Delta":95041095},{"NoteNumber":45,"Velocity":63,"Duration":143143,"SoundDuration":143143,"Delta":95088809},{"NoteNumber":69,"Velocity":75,"Duration":95429,"SoundDuration":95429,"Delta":95136524},{"NoteNumber":57,"Velocity":75,"Duration":95428,"SoundDuration":95428,"Delta":95231953},{"NoteNumber":44,"Velocity":66,"Duration":148501,"SoundDuration":148501,"Delta":95231953},{"NoteNumber":69,"Velocity":75,"Duration":106145,"SoundDuration":106145,"Delta":95327382},{"NoteNumber":45,"Velocity":67,"Duration":159218,"SoundDuration":159218,"Delta":95380455},{"NoteNumber":57,"Velocity":75,"Duration":106145,"SoundDuration":106145,"Delta":95433527},{"NoteNumber":65,"Velocity":81,"Duration":95428,"SoundDuration":95428,"Delta":95539673},{"NoteNumber":38,"Velocity":85,"Duration":143143,"SoundDuration":143143,"Delta":95539673},{"NoteNumber":67,"Velocity":77,"Duration":95429,"SoundDuration":95429,"Delta":95635102},{"NoteNumber":45,"Velocity":66,"Duration":143143,"SoundDuration":143143,"Delta":95682817},{"NoteNumber":69,"Velocity":77,"Duration":95428,"SoundDuration":95428,"Delta":95730531},{"NoteNumber":65,"Velocity":79,"Duration":95428,"SoundDuration":95428,"Delta":95825960},{"NoteNumber":38,"Velocity":66,"Duration":143143,"SoundDuration":143143,"Delta":95825960},{"NoteNumber":64,"Velocity":75,"Duration":95428,"SoundDuration":95428,"Delta":95921389},{"NoteNumber":45,"Velocity":66,"Duration":143143,"SoundDuration":143143,"Delta":95969104},{"NoteNumber":62,"Velocity":75,"Duration":95429,"SoundDuration":95429,"Delta":96016818},{"NoteNumber":60,"Velocity":80,"Duration":94405,"SoundDuration":94405,"Delta":96112247},{"NoteNumber":40,"Velocity":85,"Duration":141437,"SoundDuration":141437,"Delta":96112247},{"NoteNumber":62,"Velocity":74,"Duration":94064,"SoundDuration":94064,"Delta":96206653},{"NoteNumber":45,"Velocity":67,"Duration":141096,"SoundDuration":141096,"Delta":96253685},{"NoteNumber":64,"Velocity":74,"Duration":94064,"SoundDuration":94064,"Delta":96300717},{"NoteNumber":60,"Velocity":78,"Duration":94064,"SoundDuration":94064,"Delta":96394782},{"NoteNumber":40,"Velocity":74,"Duration":141096,"SoundDuration":141096,"Delta":96394782},{"NoteNumber":59,"Velocity":71,"Duration":94064,"SoundDuration":94064,"Delta":96488846},{"NoteNumber":52,"Velocity":67,"Duration":141096,"SoundDuration":141096,"Delta":96535879},{"NoteNumber":57,"Velocity":71,"Duration":94064,"SoundDuration":94064,"Delta":96582911},{"NoteNumber":59,"Velocity":81,"Duration":95886,"SoundDuration":95886,"Delta":96676975},{"NoteNumber":40,"Velocity":83,"Duration":143829,"SoundDuration":143829,"Delta":96676975},{"NoteNumber":60,"Velocity":73,"Duration":95886,"SoundDuration":95886,"Delta":96772862},{"NoteNumber":52,"Velocity":66,"Duration":143829,"SoundDuration":143829,"Delta":96820805},{"NoteNumber":62,"Velocity":73,"Duration":95886,"SoundDuration":95886,"Delta":96868748},{"NoteNumber":59,"Velocity":79,"Duration":95886,"SoundDuration":95886,"Delta":96964635},{"NoteNumber":40,"Velocity":69,"Duration":148127,"SoundDuration":148127,"Delta":96964635},{"NoteNumber":57,"Velocity":75,"Duration":104482,"SoundDuration":104482,"Delta":97060521},{"NoteNumber":52,"Velocity":63,"Duration":156723,"SoundDuration":156723,"Delta":97112763},{"NoteNumber":56,"Velocity":75,"Duration":104482,"SoundDuration":104482,"Delta":97165004},{"NoteNumber":57,"Velocity":79,"Duration":291121,"SoundDuration":291121,"Delta":97269486},{"NoteNumber":45,"Velocity":70,"Duration":145560,"SoundDuration":145560,"Delta":97269486},{"NoteNumber":52,"Velocity":67,"Duration":145560,"SoundDuration":145560,"Delta":97415047},{"NoteNumber":48,"Velocity":68,"Duration":145560,"SoundDuration":145560,"Delta":97560607},{"NoteNumber":52,"Velocity":68,"Duration":145560,"SoundDuration":145560,"Delta":97706168},{"NoteNumber":88,"Velocity":95,"Duration":149164,"SoundDuration":149164,"Delta":97851728},{"NoteNumber":76,"Velocity":80,"Duration":149164,"SoundDuration":149164,"Delta":97851728},{"NoteNumber":45,"Velocity":59,"Duration":298329,"SoundDuration":298329,"Delta":97851728},{"NoteNumber":47,"Velocity":70,"Duration":149164,"SoundDuration":149164,"Delta":97851728},{"NoteNumber":52,"Velocity":66,"Duration":149164,"SoundDuration":149164,"Delta":98000893},{"NoteNumber":88,"Velocity":95,"Duration":149164,"SoundDuration":149164,"Delta":98150058},{"NoteNumber":76,"Velocity":80,"Duration":149164,"SoundDuration":149164,"Delta":98150058},{"NoteNumber":45,"Velocity":55,"Duration":298329,"SoundDuration":298329,"Delta":98150058},{"NoteNumber":50,"Velocity":66,"Duration":149164,"SoundDuration":149164,"Delta":98150058},{"NoteNumber":52,"Velocity":66,"Duration":149164,"SoundDuration":149164,"Delta":98299222},{"NoteNumber":76,"Velocity":91,"Duration":145560,"SoundDuration":145560,"Delta":98448387},{"NoteNumber":64,"Velocity":77,"Duration":145560,"SoundDuration":145560,"Delta":98448387},{"NoteNumber":45,"Velocity":59,"Duration":291121,"SoundDuration":291121,"Delta":98448387},{"NoteNumber":48,"Velocity":70,"Duration":145560,"SoundDuration":145560,"Delta":98448387},{"NoteNumber":52,"Velocity":63,"Duration":145560,"SoundDuration":145560,"Delta":98593948},{"NoteNumber":76,"Velocity":91,"Duration":145560,"SoundDuration":145560,"Delta":98739508},{"NoteNumber":64,"Velocity":77,"Duration":145560,"SoundDuration":145560,"Delta":98739508},{"NoteNumber":45,"Velocity":53,"Duration":291120,"SoundDuration":291120,"Delta":98739508},{"NoteNumber":48,"Velocity":63,"Duration":145560,"SoundDuration":145560,"Delta":98739508},{"NoteNumber":52,"Velocity":63,"Duration":145560,"SoundDuration":145560,"Delta":98885069},{"NoteNumber":64,"Velocity":79,"Duration":143458,"SoundDuration":143458,"Delta":99030629},{"NoteNumber":76,"Velocity":93,"Duration":143458,"SoundDuration":143458,"Delta":99030629},{"NoteNumber":45,"Velocity":59,"Duration":286916,"SoundDuration":286916,"Delta":99030629},{"NoteNumber":47,"Velocity":70,"Duration":143458,"SoundDuration":143458,"Delta":99030629},{"NoteNumber":52,"Velocity":66,"Duration":143458,"SoundDuration":143458,"Delta":99174087},{"NoteNumber":68,"Velocity":82,"Duration":143458,"SoundDuration":143458,"Delta":99317546},{"NoteNumber":80,"Velocity":97,"Duration":143458,"SoundDuration":143458,"Delta":99317546},{"NoteNumber":45,"Velocity":55,"Duration":286916,"SoundDuration":286916,"Delta":99317546},{"NoteNumber":50,"Velocity":66,"Duration":143458,"SoundDuration":143458,"Delta":99317546},{"NoteNumber":52,"Velocity":66,"Duration":143458,"SoundDuration":143458,"Delta":99461004},{"NoteNumber":69,"Velocity":85,"Duration":596659,"SoundDuration":596659,"Delta":99604462},{"NoteNumber":81,"Velocity":100,"Duration":596659,"SoundDuration":596659,"Delta":99604462},{"NoteNumber":45,"Velocity":59,"Duration":298329,"SoundDuration":298329,"Delta":99604462},{"NoteNumber":48,"Velocity":70,"Duration":149164,"SoundDuration":149164,"Delta":99604462},{"NoteNumber":57,"Velocity":63,"Duration":149164,"SoundDuration":149164,"Delta":99753627},{"NoteNumber":52,"Velocity":63,"Duration":149164,"SoundDuration":149164,"Delta":99902792},{"NoteNumber":57,"Velocity":63,"Duration":149164,"SoundDuration":149164,"Delta":100051956},{"NoteNumber":83,"Velocity":58,"Duration":142775,"SoundDuration":142775,"Delta":100201121},{"NoteNumber":45,"Velocity":36,"Duration":285550,"SoundDuration":285550,"Delta":100201121},{"NoteNumber":50,"Velocity":43,"Duration":142775,"SoundDuration":142775,"Delta":100201121},{"NoteNumber":86,"Velocity":53,"Duration":142775,"SoundDuration":142775,"Delta":100343897},{"NoteNumber":56,"Velocity":37,"Duration":142775,"SoundDuration":142775,"Delta":100343897},{"NoteNumber":84,"Velocity":53,"Duration":142775,"SoundDuration":142775,"Delta":100486672},{"NoteNumber":52,"Velocity":37,"Duration":142775,"SoundDuration":142775,"Delta":100486672},{"NoteNumber":83,"Velocity":53,"Duration":142775,"SoundDuration":142775,"Delta":100629448},{"NoteNumber":56,"Velocity":37,"Duration":142775,"SoundDuration":142775,"Delta":100629448},{"NoteNumber":84,"Velocity":56,"Duration":142775,"SoundDuration":142775,"Delta":100772223},{"NoteNumber":45,"Velocity":36,"Duration":285550,"SoundDuration":285550,"Delta":100772223},{"NoteNumber":48,"Velocity":44,"Duration":142775,"SoundDuration":142775,"Delta":100772223},{"NoteNumber":88,"Velocity":53,"Duration":142775,"SoundDuration":142775,"Delta":100914999},{"NoteNumber":57,"Velocity":38,"Duration":142775,"SoundDuration":142775,"Delta":100914999},{"NoteNumber":86,"Velocity":53,"Duration":142775,"SoundDuration":142775,"Delta":101057774},{"NoteNumber":52,"Velocity":38,"Duration":142775,"SoundDuration":142775,"Delta":101057774},{"NoteNumber":84,"Velocity":53,"Duration":142775,"SoundDuration":142775,"Delta":101200550},{"NoteNumber":57,"Velocity":38,"Duration":142775,"SoundDuration":142775,"Delta":101200550},{"NoteNumber":83,"Velocity":58,"Duration":144147,"SoundDuration":144147,"Delta":101343325},{"NoteNumber":45,"Velocity":36,"Duration":289229,"SoundDuration":289229,"Delta":101343325},{"NoteNumber":50,"Velocity":44,"Duration":144147,"SoundDuration":144147,"Delta":101343325},{"NoteNumber":86,"Velocity":53,"Duration":145082,"SoundDuration":145082,"Delta":101487473},{"NoteNumber":56,"Velocity":38,"Duration":145082,"SoundDuration":145082,"Delta":101487473},{"NoteNumber":84,"Velocity":53,"Duration":146014,"SoundDuration":146014,"Delta":101632555},{"NoteNumber":52,"Velocity":38,"Duration":146014,"SoundDuration":146014,"Delta":101632555},{"NoteNumber":83,"Velocity":53,"Duration":146986,"SoundDuration":146986,"Delta":101778570},{"NoteNumber":56,"Velocity":38,"Duration":146986,"SoundDuration":146986,"Delta":101778570},{"NoteNumber":81,"Velocity":52,"Duration":579374,"SoundDuration":579374,"Delta":101925556},{"NoteNumber":45,"Velocity":36,"Duration":289687,"SoundDuration":289687,"Delta":101925556},{"NoteNumber":48,"Velocity":44,"Duration":144843,"SoundDuration":144843,"Delta":101925556},{"NoteNumber":57,"Velocity":37,"Duration":144843,"SoundDuration":144843,"Delta":102070400},{"NoteNumber":52,"Velocity":37,"Duration":144843,"SoundDuration":144843,"Delta":102215243},{"NoteNumber":57,"Velocity":37,"Duration":144843,"SoundDuration":144843,"Delta":102360087},{"NoteNumber":88,"Velocity":95,"Duration":148956,"SoundDuration":148956,"Delta":102504930},{"NoteNumber":76,"Velocity":80,"Duration":148956,"SoundDuration":148956,"Delta":102504930},{"NoteNumber":45,"Velocity":59,"Duration":298120,"SoundDuration":298120,"Delta":102504930},{"NoteNumber":47,"Velocity":70,"Duration":148956,"SoundDuration":148956,"Delta":102504930},{"NoteNumber":52,"Velocity":66,"Duration":149164,"SoundDuration":149164,"Delta":102653886},{"NoteNumber":88,"Velocity":95,"Duration":149164,"SoundDuration":149164,"Delta":102803051},{"NoteNumber":76,"Velocity":80,"Duration":149164,"SoundDuration":149164,"Delta":102803051},{"NoteNumber":45,"Velocity":55,"Duration":298329,"SoundDuration":298329,"Delta":102803051},{"NoteNumber":50,"Velocity":66,"Duration":149164,"SoundDuration":149164,"Delta":102803051},{"NoteNumber":52,"Velocity":66,"Duration":149164,"SoundDuration":149164,"Delta":102952216},{"NoteNumber":76,"Velocity":91,"Duration":145980,"SoundDuration":145980,"Delta":103101381},{"NoteNumber":64,"Velocity":77,"Duration":145980,"SoundDuration":145980,"Delta":103101381},{"NoteNumber":45,"Velocity":59,"Duration":291541,"SoundDuration":291541,"Delta":103101381},{"NoteNumber":48,"Velocity":70,"Duration":145980,"SoundDuration":145980,"Delta":103101381},{"NoteNumber":52,"Velocity":63,"Duration":145560,"SoundDuration":145560,"Delta":103247362},{"NoteNumber":76,"Velocity":91,"Duration":145560,"SoundDuration":145560,"Delta":103392922},{"NoteNumber":64,"Velocity":77,"Duration":145560,"SoundDuration":145560,"Delta":103392922},{"NoteNumber":45,"Velocity":53,"Duration":291121,"SoundDuration":291121,"Delta":103392922},{"NoteNumber":48,"Velocity":63,"Duration":145560,"SoundDuration":145560,"Delta":103392922},{"NoteNumber":52,"Velocity":63,"Duration":145560,"SoundDuration":145560,"Delta":103538483},{"NoteNumber":64,"Velocity":79,"Duration":143703,"SoundDuration":143703,"Delta":103684043},{"NoteNumber":76,"Velocity":93,"Duration":143703,"SoundDuration":143703,"Delta":103684043},{"NoteNumber":45,"Velocity":59,"Duration":287161,"SoundDuration":287161,"Delta":103684043},{"NoteNumber":47,"Velocity":70,"Duration":143703,"SoundDuration":143703,"Delta":103684043},{"NoteNumber":52,"Velocity":66,"Duration":143458,"SoundDuration":143458,"Delta":103827747},{"NoteNumber":68,"Velocity":82,"Duration":143458,"SoundDuration":143458,"Delta":103971205},{"NoteNumber":80,"Velocity":97,"Duration":143458,"SoundDuration":143458,"Delta":103971205},{"NoteNumber":45,"Velocity":55,"Duration":286916,"SoundDuration":286916,"Delta":103971205},{"NoteNumber":50,"Velocity":66,"Duration":143458,"SoundDuration":143458,"Delta":103971205},{"NoteNumber":52,"Velocity":66,"Duration":143458,"SoundDuration":143458,"Delta":104114663},{"NoteNumber":69,"Velocity":85,"Duration":595993,"SoundDuration":595993,"Delta":104258121},{"NoteNumber":81,"Velocity":100,"Duration":595993,"SoundDuration":595993,"Delta":104258121},{"NoteNumber":45,"Velocity":59,"Duration":297663,"SoundDuration":297663,"Delta":104258121},{"NoteNumber":48,"Velocity":70,"Duration":148498,"SoundDuration":148498,"Delta":104258121},{"NoteNumber":57,"Velocity":63,"Duration":149164,"SoundDuration":149164,"Delta":104406620},{"NoteNumber":52,"Velocity":63,"Duration":149164,"SoundDuration":149164,"Delta":104555785},{"NoteNumber":57,"Velocity":63,"Duration":149164,"SoundDuration":149164,"Delta":104704950},{"NoteNumber":83,"Velocity":58,"Duration":143607,"SoundDuration":143607,"Delta":104854115},{"NoteNumber":50,"Velocity":43,"Duration":143607,"SoundDuration":143607,"Delta":104854115},{"NoteNumber":45,"Velocity":36,"Duration":286383,"SoundDuration":286383,"Delta":104854115},{"NoteNumber":86,"Velocity":53,"Duration":142775,"SoundDuration":142775,"Delta":104997723},{"NoteNumber":56,"Velocity":37,"Duration":142775,"SoundDuration":142775,"Delta":104997723},{"NoteNumber":84,"Velocity":53,"Duration":142775,"SoundDuration":142775,"Delta":105140498},{"NoteNumber":52,"Velocity":37,"Duration":142775,"SoundDuration":142775,"Delta":105140498},{"NoteNumber":83,"Velocity":52,"Duration":142775,"SoundDuration":142775,"Delta":105283274},{"NoteNumber":56,"Velocity":37,"Duration":142775,"SoundDuration":142775,"Delta":105283274},{"NoteNumber":84,"Velocity":55,"Duration":142775,"SoundDuration":142775,"Delta":105426049},{"NoteNumber":48,"Velocity":43,"Duration":142775,"SoundDuration":142775,"Delta":105426049},{"NoteNumber":45,"Velocity":35,"Duration":285551,"SoundDuration":285551,"Delta":105426049},{"NoteNumber":88,"Velocity":52,"Duration":142775,"SoundDuration":142775,"Delta":105568825},{"NoteNumber":57,"Velocity":37,"Duration":142775,"SoundDuration":142775,"Delta":105568825},{"NoteNumber":86,"Velocity":51,"Duration":142775,"SoundDuration":142775,"Delta":105711600},{"NoteNumber":52,"Velocity":37,"Duration":142775,"SoundDuration":142775,"Delta":105711600},{"NoteNumber":84,"Velocity":51,"Duration":142775,"SoundDuration":142775,"Delta":105854376},{"NoteNumber":57,"Velocity":37,"Duration":142775,"SoundDuration":142775,"Delta":105854376},{"NoteNumber":83,"Velocity":56,"Duration":142775,"SoundDuration":142775,"Delta":105997151},{"NoteNumber":50,"Velocity":43,"Duration":142775,"SoundDuration":142775,"Delta":105997151},{"NoteNumber":45,"Velocity":35,"Duration":286233,"SoundDuration":286233,"Delta":105997151},{"NoteNumber":86,"Velocity":51,"Duration":143458,"SoundDuration":143458,"Delta":106139927},{"NoteNumber":56,"Velocity":37,"Duration":143458,"SoundDuration":143458,"Delta":106139927},{"NoteNumber":84,"Velocity":51,"Duration":143917,"SoundDuration":143917,"Delta":106283385},{"NoteNumber":52,"Velocity":37,"Duration":143917,"SoundDuration":143917,"Delta":106283385},{"NoteNumber":83,"Velocity":51,"Duration":144611,"SoundDuration":144611,"Delta":106427303},{"NoteNumber":56,"Velocity":37,"Duration":144611,"SoundDuration":144611,"Delta":106427303},{"NoteNumber":81,"Velocity":53,"Duration":142775,"SoundDuration":142775,"Delta":106571914},{"NoteNumber":45,"Velocity":34,"Duration":285550,"SoundDuration":285550,"Delta":106571914},{"NoteNumber":48,"Velocity":42,"Duration":142775,"SoundDuration":142775,"Delta":106571914},{"NoteNumber":84,"Velocity":49,"Duration":142775,"SoundDuration":142775,"Delta":106714690},{"NoteNumber":57,"Velocity":36,"Duration":142775,"SoundDuration":142775,"Delta":106714690},{"NoteNumber":83,"Velocity":48,"Duration":142775,"SoundDuration":142775,"Delta":106857465},{"NoteNumber":52,"Velocity":35,"Duration":142775,"SoundDuration":142775,"Delta":106857465},{"NoteNumber":81,"Velocity":48,"Duration":142775,"SoundDuration":142775,"Delta":107000241},{"NoteNumber":57,"Velocity":35,"Duration":142775,"SoundDuration":142775,"Delta":107000241},{"NoteNumber":83,"Velocity":52,"Duration":142775,"SoundDuration":142775,"Delta":107143016},{"NoteNumber":50,"Velocity":37,"Duration":142775,"SoundDuration":142775,"Delta":107143016},{"NoteNumber":45,"Velocity":32,"Duration":285550,"SoundDuration":285550,"Delta":107143016},{"NoteNumber":86,"Velocity":46,"Duration":142775,"SoundDuration":142775,"Delta":107285792},{"NoteNumber":56,"Velocity":33,"Duration":142775,"SoundDuration":142775,"Delta":107285792},{"NoteNumber":84,"Velocity":46,"Duration":142775,"SoundDuration":142775,"Delta":107428567},{"NoteNumber":52,"Velocity":33,"Duration":142775,"SoundDuration":142775,"Delta":107428567},{"NoteNumber":83,"Velocity":45,"Duration":142775,"SoundDuration":142775,"Delta":107571343},{"NoteNumber":56,"Velocity":32,"Duration":142775,"SoundDuration":142775,"Delta":107571343},{"NoteNumber":84,"Velocity":46,"Duration":142775,"SoundDuration":142775,"Delta":107714118},{"NoteNumber":48,"Velocity":38,"Duration":142775,"SoundDuration":142775,"Delta":107714118},{"NoteNumber":45,"Velocity":31,"Duration":285550,"SoundDuration":285550,"Delta":107714118},{"NoteNumber":88,"Velocity":43,"Duration":142775,"SoundDuration":142775,"Delta":107856894},{"NoteNumber":57,"Velocity":33,"Duration":142775,"SoundDuration":142775,"Delta":107856894},{"NoteNumber":86,"Velocity":42,"Duration":142775,"SoundDuration":142775,"Delta":107999669},{"NoteNumber":52,"Velocity":32,"Duration":142775,"SoundDuration":142775,"Delta":107999669},{"NoteNumber":84,"Velocity":42,"Duration":142775,"SoundDuration":142775,"Delta":108142445},{"NoteNumber":57,"Velocity":32,"Duration":142775,"SoundDuration":142775,"Delta":108142445},{"NoteNumber":83,"Velocity":45,"Duration":142775,"SoundDuration":142775,"Delta":108285220},{"NoteNumber":50,"Velocity":34,"Duration":142775,"SoundDuration":142775,"Delta":108285220},{"NoteNumber":45,"Velocity":29,"Duration":285550,"SoundDuration":285550,"Delta":108285220},{"NoteNumber":86,"Velocity":40,"Duration":142775,"SoundDuration":142775,"Delta":108427996},{"NoteNumber":56,"Velocity":31,"Duration":142775,"SoundDuration":142775,"Delta":108427996},{"NoteNumber":84,"Velocity":39,"Duration":142775,"SoundDuration":142775,"Delta":108570771},{"NoteNumber":52,"Velocity":29,"Duration":142775,"SoundDuration":142775,"Delta":108570771},{"NoteNumber":83,"Velocity":39,"Duration":142775,"SoundDuration":142775,"Delta":108713547},{"NoteNumber":56,"Velocity":29,"Duration":142775,"SoundDuration":142775,"Delta":108713547},{"NoteNumber":81,"Velocity":39,"Duration":142099,"SoundDuration":142099,"Delta":108856322},{"NoteNumber":45,"Velocity":26,"Duration":284198,"SoundDuration":284198,"Delta":108856322},{"NoteNumber":48,"Velocity":32,"Duration":142099,"SoundDuration":142099,"Delta":108856322},{"NoteNumber":84,"Velocity":37,"Duration":142099,"SoundDuration":142099,"Delta":108998421},{"NoteNumber":57,"Velocity":28,"Duration":142099,"SoundDuration":142099,"Delta":108998421},{"NoteNumber":83,"Velocity":37,"Duration":142324,"SoundDuration":142324,"Delta":109140521},{"NoteNumber":52,"Velocity":28,"Duration":142324,"SoundDuration":142324,"Delta":109140521},{"NoteNumber":81,"Velocity":37,"Duration":142775,"SoundDuration":142775,"Delta":109282845},{"NoteNumber":57,"Velocity":28,"Duration":142775,"SoundDuration":142775,"Delta":109282845},{"NoteNumber":83,"Velocity":41,"Duration":142775,"SoundDuration":142775,"Delta":109425621},{"NoteNumber":50,"Velocity":32,"Duration":142775,"SoundDuration":142775,"Delta":109425621},{"NoteNumber":45,"Velocity":26,"Duration":286006,"SoundDuration":286006,"Delta":109425621},{"NoteNumber":86,"Velocity":37,"Duration":143230,"SoundDuration":143230,"Delta":109568396},{"NoteNumber":56,"Velocity":28,"Duration":143230,"SoundDuration":143230,"Delta":109568396},{"NoteNumber":84,"Velocity":37,"Duration":143458,"SoundDuration":143458,"Delta":109711627},{"NoteNumber":52,"Velocity":28,"Duration":143458,"SoundDuration":143458,"Delta":109711627},{"NoteNumber":83,"Velocity":37,"Duration":143458,"SoundDuration":143458,"Delta":109855085},{"NoteNumber":56,"Velocity":28,"Duration":143458,"SoundDuration":143458,"Delta":109855085},{"NoteNumber":81,"Velocity":39,"Duration":144147,"SoundDuration":144147,"Delta":109998543},{"NoteNumber":45,"Velocity":26,"Duration":288295,"SoundDuration":288295,"Delta":109998543},{"NoteNumber":48,"Velocity":32,"Duration":144147,"SoundDuration":144147,"Delta":109998543},{"NoteNumber":84,"Velocity":37,"Duration":144147,"SoundDuration":144147,"Delta":110142691},{"NoteNumber":57,"Velocity":28,"Duration":144147,"SoundDuration":144147,"Delta":110142691},{"NoteNumber":83,"Velocity":37,"Duration":144379,"SoundDuration":144379,"Delta":110286838},{"NoteNumber":52,"Velocity":28,"Duration":144379,"SoundDuration":144379,"Delta":110286838},{"NoteNumber":81,"Velocity":37,"Duration":144843,"SoundDuration":144843,"Delta":110431218},{"NoteNumber":57,"Velocity":28,"Duration":144843,"SoundDuration":144843,"Delta":110431218},{"NoteNumber":83,"Velocity":41,"Duration":144843,"SoundDuration":144843,"Delta":110576061},{"NoteNumber":50,"Velocity":32,"Duration":144843,"SoundDuration":144843,"Delta":110576061},{"NoteNumber":45,"Velocity":26,"Duration":290165,"SoundDuration":290165,"Delta":110576061},{"NoteNumber":86,"Velocity":37,"Duration":145321,"SoundDuration":145321,"Delta":110720905},{"NoteNumber":56,"Velocity":28,"Duration":145321,"SoundDuration":145321,"Delta":110720905},{"NoteNumber":84,"Velocity":37,"Duration":145560,"SoundDuration":145560,"Delta":110866226},{"NoteNumber":52,"Velocity":28,"Duration":145560,"SoundDuration":145560,"Delta":110866226},{"NoteNumber":83,"Velocity":37,"Duration":145787,"SoundDuration":145787,"Delta":111011787},{"NoteNumber":56,"Velocity":28,"Duration":145787,"SoundDuration":145787,"Delta":111011787},{"NoteNumber":81,"Velocity":92,"Duration":307282,"SoundDuration":307282,"Delta":111157574},{"NoteNumber":45,"Velocity":62,"Duration":307282,"SoundDuration":307282,"Delta":111157574},{"NoteNumber":57,"Velocity":62,"Duration":307282,"SoundDuration":307282,"Delta":111157574},{"NoteNumber":76,"Velocity":92,"Duration":307282,"SoundDuration":307282,"Delta":111772139},{"NoteNumber":64,"Velocity":63,"Duration":307282,"SoundDuration":307282,"Delta":111772139},{"NoteNumber":76,"Velocity":97,"Duration":921847,"SoundDuration":921847,"Delta":112402454},{"NoteNumber":64,"Velocity":74,"Duration":921847,"SoundDuration":921847,"Delta":112402454},{"NoteNumber":72,"Velocity":53,"Duration":307282,"SoundDuration":307282,"Delta":113324301},{"NoteNumber":60,"Velocity":47,"Duration":307282,"SoundDuration":307282,"Delta":113324301},{"NoteNumber":71,"Velocity":58,"Duration":620540,"SoundDuration":620540,"Delta":113631584},{"NoteNumber":59,"Velocity":50,"Duration":620540,"SoundDuration":620540,"Delta":113631584},{"NoteNumber":64,"Velocity":54,"Duration":633044,"SoundDuration":633044,"Delta":114252124},{"NoteNumber":52,"Velocity":47,"Duration":633044,"SoundDuration":633044,"Delta":114252124},{"NoteNumber":69,"Velocity":54,"Duration":316522,"SoundDuration":316522,"Delta":114885169},{"NoteNumber":57,"Velocity":47,"Duration":316522,"SoundDuration":316522,"Delta":114885169},{"NoteNumber":53,"Velocity":102,"Duration":314960,"SoundDuration":314960,"Delta":116151259},{"NoteNumber":29,"Velocity":74,"Duration":314960,"SoundDuration":314960,"Delta":116151259},{"NoteNumber":41,"Velocity":74,"Duration":314960,"SoundDuration":314960,"Delta":116151259},{"NoteNumber":72,"Velocity":92,"Duration":314960,"SoundDuration":314960,"Delta":116781180},{"NoteNumber":84,"Velocity":92,"Duration":314960,"SoundDuration":314960,"Delta":116781180},{"NoteNumber":60,"Velocity":74,"Duration":314960,"SoundDuration":314960,"Delta":116781180},{"NoteNumber":72,"Velocity":95,"Duration":921847,"SoundDuration":921847,"Delta":117419172},{"NoteNumber":84,"Velocity":95,"Duration":921847,"SoundDuration":921847,"Delta":117419172},{"NoteNumber":60,"Velocity":79,"Duration":921847,"SoundDuration":921847,"Delta":117419172},{"NoteNumber":69,"Velocity":57,"Duration":307282,"SoundDuration":307282,"Delta":118341020},{"NoteNumber":81,"Velocity":57,"Duration":307282,"SoundDuration":307282,"Delta":118341020},{"NoteNumber":57,"Velocity":48,"Duration":307282,"SoundDuration":307282,"Delta":118341020},{"NoteNumber":67,"Velocity":60,"Duration":620540,"SoundDuration":620540,"Delta":118648302},{"NoteNumber":79,"Velocity":60,"Duration":620540,"SoundDuration":620540,"Delta":118648302},{"NoteNumber":55,"Velocity":53,"Duration":620540,"SoundDuration":620540,"Delta":118648302},{"NoteNumber":60,"Velocity":56,"Duration":633044,"SoundDuration":633044,"Delta":119268842},{"NoteNumber":72,"Velocity":56,"Duration":633044,"SoundDuration":633044,"Delta":119268842},{"NoteNumber":48,"Velocity":49,"Duration":633044,"SoundDuration":633044,"Delta":119268842},{"NoteNumber":65,"Velocity":56,"Duration":316522,"SoundDuration":316522,"Delta":119901887},{"NoteNumber":77,"Velocity":56,"Duration":316522,"SoundDuration":316522,"Delta":119901887},{"NoteNumber":53,"Velocity":49,"Duration":316522,"SoundDuration":316522,"Delta":119901887},{"NoteNumber":55,"Velocity":103,"Duration":314960,"SoundDuration":314960,"Delta":121167977},{"NoteNumber":31,"Velocity":90,"Duration":314960,"SoundDuration":314960,"Delta":121167977},{"NoteNumber":43,"Velocity":90,"Duration":314960,"SoundDuration":314960,"Delta":121167977},{"NoteNumber":77,"Velocity":63,"Duration":314960,"SoundDuration":314960,"Delta":121797898},{"NoteNumber":89,"Velocity":90,"Duration":314960,"SoundDuration":314960,"Delta":121797898},{"NoteNumber":65,"Velocity":80,"Duration":314960,"SoundDuration":314960,"Delta":121797898},{"NoteNumber":77,"Velocity":67,"Duration":921847,"SoundDuration":921847,"Delta":122435891},{"NoteNumber":89,"Velocity":93,"Duration":921847,"SoundDuration":921847,"Delta":122435891},{"NoteNumber":65,"Velocity":81,"Duration":921847,"SoundDuration":921847,"Delta":122435891},{"NoteNumber":74,"Velocity":56,"Duration":307282,"SoundDuration":307282,"Delta":123357738},{"NoteNumber":86,"Velocity":66,"Duration":307282,"SoundDuration":307282,"Delta":123357738},{"NoteNumber":62,"Velocity":53,"Duration":307282,"SoundDuration":307282,"Delta":123357738},{"NoteNumber":71,"Velocity":58,"Duration":620540,"SoundDuration":620540,"Delta":123665021},{"NoteNumber":83,"Velocity":69,"Duration":620540,"SoundDuration":620540,"Delta":123665021},{"NoteNumber":59,"Velocity":59,"Duration":620540,"SoundDuration":620540,"Delta":123665021},{"NoteNumber":67,"Velocity":49,"Duration":633044,"SoundDuration":633044,"Delta":124285561},{"NoteNumber":79,"Velocity":58,"Duration":633044,"SoundDuration":633044,"Delta":124285561},{"NoteNumber":55,"Velocity":55,"Duration":633044,"SoundDuration":633044,"Delta":124285561},{"NoteNumber":65,"Velocity":54,"Duration":949567,"SoundDuration":949567,"Delta":124918606},{"NoteNumber":77,"Velocity":64,"Duration":949567,"SoundDuration":949567,"Delta":124918606},{"NoteNumber":53,"Velocity":55,"Duration":949567,"SoundDuration":949567,"Delta":124918606},{"NoteNumber":62,"Velocity":44,"Duration":326335,"SoundDuration":326335,"Delta":125868173},{"NoteNumber":74,"Velocity":52,"Duration":326335,"SoundDuration":326335,"Delta":125868173},{"NoteNumber":50,"Velocity":44,"Duration":326335,"SoundDuration":326335,"Delta":125868173},{"NoteNumber":59,"Velocity":46,"Duration":652670,"SoundDuration":652670,"Delta":126194509},{"NoteNumber":71,"Velocity":55,"Duration":652670,"SoundDuration":652670,"Delta":126194509},{"NoteNumber":47,"Velocity":51,"Duration":652670,"SoundDuration":652670,"Delta":126194509},{"NoteNumber":55,"Velocity":41,"Duration":657864,"SoundDuration":657864,"Delta":126847180},{"NoteNumber":67,"Velocity":49,"Duration":657864,"SoundDuration":657864,"Delta":126847180},{"NoteNumber":43,"Velocity":36,"Duration":657864,"SoundDuration":657864,"Delta":126847180},{"NoteNumber":53,"Velocity":43,"Duration":1011125,"SoundDuration":1011125,"Delta":127505044},{"NoteNumber":65,"Velocity":51,"Duration":1011125,"SoundDuration":1011125,"Delta":127505044},{"NoteNumber":41,"Velocity":41,"Duration":1011125,"SoundDuration":1011125,"Delta":127505044},{"NoteNumber":50,"Velocity":34,"Duration":348067,"SoundDuration":348067,"Delta":128516169},{"NoteNumber":62,"Velocity":40,"Duration":348067,"SoundDuration":348067,"Delta":128516169},{"NoteNumber":38,"Velocity":33,"Duration":348067,"SoundDuration":348067,"Delta":128516169},{"NoteNumber":47,"Velocity":34,"Duration":738824,"SoundDuration":738824,"Delta":128864237},{"NoteNumber":59,"Velocity":40,"Duration":738824,"SoundDuration":738824,"Delta":128864237},{"NoteNumber":35,"Velocity":33,"Duration":738824,"SoundDuration":738824,"Delta":128864237},{"NoteNumber":55,"Velocity":40,"Duration":738824,"SoundDuration":738824,"Delta":130341887},{"NoteNumber":31,"Velocity":28,"Duration":738824,"SoundDuration":738824,"Delta":130341887},{"NoteNumber":43,"Velocity":33,"Duration":738824,"SoundDuration":738824,"Delta":130341887},{"NoteNumber":36,"Velocity":50,"Duration":333758,"SoundDuration":333758,"Delta":131814376},{"NoteNumber":52,"Velocity":28,"Duration":165487,"SoundDuration":165487,"Delta":131982648},{"NoteNumber":55,"Velocity":30,"Duration":163681,"SoundDuration":163681,"Delta":132148135},{"NoteNumber":60,"Velocity":32,"Duration":161033,"SoundDuration":161033,"Delta":132311816},{"NoteNumber":64,"Velocity":34,"Duration":156821,"SoundDuration":156821,"Delta":132472850},{"NoteNumber":79,"Velocity":50,"Duration":313643,"SoundDuration":313643,"Delta":132472850},{"NoteNumber":52,"Velocity":31,"Duration":156821,"SoundDuration":156821,"Delta":132629672},{"NoteNumber":55,"Velocity":31,"Duration":156821,"SoundDuration":156821,"Delta":132786493},{"NoteNumber":60,"Velocity":31,"Duration":156821,"SoundDuration":156821,"Delta":132943315},{"NoteNumber":64,"Velocity":35,"Duration":151270,"SoundDuration":151270,"Delta":133100137},{"NoteNumber":79,"Velocity":54,"Duration":907624,"SoundDuration":907624,"Delta":133100137},{"NoteNumber":52,"Velocity":30,"Duration":151270,"SoundDuration":151270,"Delta":133251408},{"NoteNumber":55,"Velocity":31,"Duration":151270,"SoundDuration":151270,"Delta":133402678},{"NoteNumber":60,"Velocity":33,"Duration":151270,"SoundDuration":151270,"Delta":133553949},{"NoteNumber":64,"Velocity":36,"Duration":151270,"SoundDuration":151270,"Delta":133705220},{"NoteNumber":52,"Velocity":33,"Duration":151270,"SoundDuration":151270,"Delta":133856491},{"NoteNumber":55,"Velocity":33,"Duration":151270,"SoundDuration":151270,"Delta":134007761},{"NoteNumber":76,"Velocity":47,"Duration":302541,"SoundDuration":302541,"Delta":134007761},{"NoteNumber":60,"Velocity":33,"Duration":151270,"SoundDuration":151270,"Delta":134159032},{"NoteNumber":74,"Velocity":50,"Duration":573229,"SoundDuration":573229,"Delta":134310303},{"NoteNumber":53,"Velocity":28,"Duration":143307,"SoundDuration":143307,"Delta":134453610},{"NoteNumber":55,"Velocity":31,"Duration":143307,"SoundDuration":143307,"Delta":134596918},{"NoteNumber":59,"Velocity":33,"Duration":143307,"SoundDuration":143307,"Delta":134740225},{"NoteNumber":62,"Velocity":36,"Duration":149760,"SoundDuration":149760,"Delta":134883533},{"NoteNumber":67,"Velocity":41,"Duration":599041,"SoundDuration":599041,"Delta":134883533},{"NoteNumber":53,"Velocity":33,"Duration":149760,"SoundDuration":149760,"Delta":135033293},{"NoteNumber":55,"Velocity":33,"Duration":149760,"SoundDuration":149760,"Delta":135183054},{"NoteNumber":59,"Velocity":34,"Duration":149760,"SoundDuration":149760,"Delta":135332814},{"NoteNumber":72,"Velocity":50,"Duration":623960,"SoundDuration":623960,"Delta":135482575},{"NoteNumber":52,"Velocity":28,"Duration":155990,"SoundDuration":155990,"Delta":135638565},{"NoteNumber":55,"Velocity":30,"Duration":155990,"SoundDuration":155990,"Delta":135794555},{"NoteNumber":60,"Velocity":32,"Duration":155990,"SoundDuration":155990,"Delta":135950545},{"NoteNumber":64,"Velocity":34,"Duration":155990,"SoundDuration":155990,"Delta":136106535},{"NoteNumber":76,"Velocity":47,"Duration":311979,"SoundDuration":311979,"Delta":136106535},{"NoteNumber":52,"Velocity":32,"Duration":155989,"SoundDuration":155989,"Delta":136262525},{"NoteNumber":55,"Velocity":32,"Duration":155990,"SoundDuration":155990,"Delta":136418515},{"NoteNumber":60,"Velocity":33,"Duration":151209,"SoundDuration":151209,"Delta":136574505},{"NoteNumber":48,"Velocity":31,"Duration":151209,"SoundDuration":151209,"Delta":136574505},{"NoteNumber":36,"Velocity":50,"Duration":316931,"SoundDuration":316931,"Delta":136725715},{"NoteNumber":52,"Velocity":28,"Duration":157378,"SoundDuration":157378,"Delta":136885267},{"NoteNumber":55,"Velocity":30,"Duration":155009,"SoundDuration":155009,"Delta":137042646},{"NoteNumber":60,"Velocity":32,"Duration":152715,"SoundDuration":152715,"Delta":137197655},{"NoteNumber":64,"Velocity":34,"Duration":151209,"SoundDuration":151209,"Delta":137350371},{"NoteNumber":79,"Velocity":50,"Duration":302419,"SoundDuration":302419,"Delta":137350371},{"NoteNumber":52,"Velocity":31,"Duration":151209,"SoundDuration":151209,"Delta":137501581},{"NoteNumber":55,"Velocity":31,"Duration":151209,"SoundDuration":151209,"Delta":137652790},{"NoteNumber":60,"Velocity":31,"Duration":151209,"SoundDuration":151209,"Delta":137804000},{"NoteNumber":64,"Velocity":35,"Duration":146900,"SoundDuration":146900,"Delta":137955210},{"NoteNumber":79,"Velocity":54,"Duration":881403,"SoundDuration":881403,"Delta":137955210},{"NoteNumber":52,"Velocity":30,"Duration":146900,"SoundDuration":146900,"Delta":138102110},{"NoteNumber":55,"Velocity":31,"Duration":146900,"SoundDuration":146900,"Delta":138249011},{"NoteNumber":60,"Velocity":33,"Duration":146900,"SoundDuration":146900,"Delta":138395911},{"NoteNumber":64,"Velocity":36,"Duration":146900,"SoundDuration":146900,"Delta":138542812},{"NoteNumber":52,"Velocity":33,"Duration":146900,"SoundDuration":146900,"Delta":138689712},{"NoteNumber":55,"Velocity":33,"Duration":146900,"SoundDuration":146900,"Delta":138836613},{"NoteNumber":76,"Velocity":47,"Duration":293801,"SoundDuration":293801,"Delta":138836613},{"NoteNumber":60,"Velocity":33,"Duration":146900,"SoundDuration":146900,"Delta":138983513},{"NoteNumber":74,"Velocity":50,"Duration":563379,"SoundDuration":563379,"Delta":139130414},{"NoteNumber":53,"Velocity":28,"Duration":140844,"SoundDuration":140844,"Delta":139271259},{"NoteNumber":55,"Velocity":31,"Duration":140845,"SoundDuration":140845,"Delta":139412104},{"NoteNumber":59,"Velocity":33,"Duration":140844,"SoundDuration":140844,"Delta":139552949},{"NoteNumber":62,"Velocity":36,"Duration":145503,"SoundDuration":145503,"Delta":139693794},{"NoteNumber":67,"Velocity":41,"Duration":582016,"SoundDuration":582016,"Delta":139693794},{"NoteNumber":53,"Velocity":33,"Duration":145504,"SoundDuration":145504,"Delta":139839298},{"NoteNumber":55,"Velocity":33,"Duration":145503,"SoundDuration":145503,"Delta":139984802},{"NoteNumber":59,"Velocity":34,"Duration":145504,"SoundDuration":145504,"Delta":140130306},{"NoteNumber":72,"Velocity":50,"Duration":298542,"SoundDuration":298542,"Delta":140275810},{"NoteNumber":52,"Velocity":30,"Duration":149745,"SoundDuration":149745,"Delta":140574352},{"NoteNumber":55,"Velocity":32,"Duration":149745,"SoundDuration":149745,"Delta":140724098},{"NoteNumber":60,"Velocity":34,"Duration":149745,"SoundDuration":149745,"Delta":140873843},{"NoteNumber":64,"Velocity":32,"Duration":149745,"SoundDuration":149745,"Delta":141023589},{"NoteNumber":62,"Velocity":32,"Duration":149745,"SoundDuration":149745,"Delta":141173334},{"NoteNumber":60,"Velocity":33,"Duration":150466,"SoundDuration":150466,"Delta":141323080},{"NoteNumber":43,"Velocity":30,"Duration":150466,"SoundDuration":150466,"Delta":141323080},{"NoteNumber":59,"Velocity":35,"Duration":157364,"SoundDuration":157364,"Delta":141473546},{"NoteNumber":31,"Velocity":45,"Duration":309820,"SoundDuration":309820,"Delta":141473546},{"NoteNumber":55,"Velocity":28,"Duration":152455,"SoundDuration":152455,"Delta":141630911},{"NoteNumber":59,"Velocity":30,"Duration":150473,"SoundDuration":150473,"Delta":141783366},{"NoteNumber":62,"Velocity":32,"Duration":148301,"SoundDuration":148301,"Delta":141933840},{"NoteNumber":67,"Velocity":34,"Duration":147579,"SoundDuration":147579,"Delta":142082142},{"NoteNumber":77,"Velocity":50,"Duration":295159,"SoundDuration":295159,"Delta":142082142},{"NoteNumber":55,"Velocity":31,"Duration":147579,"SoundDuration":147579,"Delta":142229722},{"NoteNumber":59,"Velocity":31,"Duration":147579,"SoundDuration":147579,"Delta":142377302},{"NoteNumber":62,"Velocity":31,"Duration":147579,"SoundDuration":147579,"Delta":142524881},{"NoteNumber":67,"Velocity":35,"Duration":142802,"SoundDuration":142802,"Delta":142672461},{"NoteNumber":77,"Velocity":54,"Duration":856816,"SoundDuration":856816,"Delta":142672461},{"NoteNumber":55,"Velocity":30,"Duration":142802,"SoundDuration":142802,"Delta":142815264},{"NoteNumber":59,"Velocity":31,"Duration":142802,"SoundDuration":142802,"Delta":142958067},{"NoteNumber":62,"Velocity":33,"Duration":142802,"SoundDuration":142802,"Delta":143100869},{"NoteNumber":67,"Velocity":36,"Duration":142802,"SoundDuration":142802,"Delta":143243672},{"NoteNumber":55,"Velocity":33,"Duration":142802,"SoundDuration":142802,"Delta":143386475},{"NoteNumber":59,"Velocity":33,"Duration":142802,"SoundDuration":142802,"Delta":143529278},{"NoteNumber":74,"Velocity":47,"Duration":285605,"SoundDuration":285605,"Delta":143529278},{"NoteNumber":67,"Velocity":33,"Duration":142802,"SoundDuration":142802,"Delta":143672080},{"NoteNumber":76,"Velocity":50,"Duration":553351,"SoundDuration":553351,"Delta":143814883},{"NoteNumber":55,"Velocity":28,"Duration":138338,"SoundDuration":138338,"Delta":143953221},{"NoteNumber":60,"Velocity":31,"Duration":138338,"SoundDuration":138338,"Delta":144091559},{"NoteNumber":67,"Velocity":33,"Duration":138337,"SoundDuration":138337,"Delta":144229897},{"NoteNumber":72,"Velocity":41,"Duration":568612,"SoundDuration":568612,"Delta":144368235},{"NoteNumber":55,"Velocity":28,"Duration":142153,"SoundDuration":142153,"Delta":144510388},{"NoteNumber":64,"Velocity":31,"Duration":142153,"SoundDuration":142153,"Delta":144652542},{"NoteNumber":67,"Velocity":33,"Duration":142153,"SoundDuration":142153,"Delta":144794695},{"NoteNumber":71,"Velocity":50,"Duration":582016,"SoundDuration":582016,"Delta":144936848},{"NoteNumber":55,"Velocity":28,"Duration":145504,"SoundDuration":145504,"Delta":145082352},{"NoteNumber":62,"Velocity":30,"Duration":145503,"SoundDuration":145503,"Delta":145227856},{"NoteNumber":67,"Velocity":32,"Duration":145504,"SoundDuration":145504,"Delta":145373360},{"NoteNumber":74,"Velocity":47,"Duration":291007,"SoundDuration":291007,"Delta":145518864},{"NoteNumber":55,"Velocity":28,"Duration":145503,"SoundDuration":145503,"Delta":145664368},{"NoteNumber":59,"Velocity":30,"Duration":145504,"SoundDuration":145504,"Delta":145809872},{"NoteNumber":67,"Velocity":32,"Duration":150466,"SoundDuration":150466,"Delta":145955376},{"NoteNumber":43,"Velocity":32,"Duration":150466,"SoundDuration":150466,"Delta":145955376},{"NoteNumber":31,"Velocity":48,"Duration":309820,"SoundDuration":309820,"Delta":146105843},{"NoteNumber":55,"Velocity":28,"Duration":152455,"SoundDuration":152455,"Delta":146263207},{"NoteNumber":59,"Velocity":30,"Duration":150473,"SoundDuration":150473,"Delta":146415663},{"NoteNumber":62,"Velocity":32,"Duration":148301,"SoundDuration":148301,"Delta":146566137},{"NoteNumber":67,"Velocity":34,"Duration":147579,"SoundDuration":147579,"Delta":146714438},{"NoteNumber":77,"Velocity":50,"Duration":295159,"SoundDuration":295159,"Delta":146714438},{"NoteNumber":55,"Velocity":31,"Duration":147579,"SoundDuration":147579,"Delta":146862018},{"NoteNumber":59,"Velocity":31,"Duration":147579,"SoundDuration":147579,"Delta":147009598},{"NoteNumber":62,"Velocity":31,"Duration":147579,"SoundDuration":147579,"Delta":147157178},{"NoteNumber":67,"Velocity":35,"Duration":139586,"SoundDuration":139586,"Delta":147304757},{"NoteNumber":77,"Velocity":54,"Duration":837520,"SoundDuration":837520,"Delta":147304757},{"NoteNumber":55,"Velocity":30,"Duration":139586,"SoundDuration":139586,"Delta":147444344},{"NoteNumber":59,"Velocity":31,"Duration":139586,"SoundDuration":139586,"Delta":147583931},{"NoteNumber":62,"Velocity":33,"Duration":139586,"SoundDuration":139586,"Delta":147723518},{"NoteNumber":67,"Velocity":36,"Duration":139586,"SoundDuration":139586,"Delta":147863104},{"NoteNumber":55,"Velocity":33,"Duration":139586,"SoundDuration":139586,"Delta":148002691},{"NoteNumber":59,"Velocity":33,"Duration":139586,"SoundDuration":139586,"Delta":148142278},{"NoteNumber":74,"Velocity":47,"Duration":279173,"SoundDuration":279173,"Delta":148142278},{"NoteNumber":67,"Velocity":33,"Duration":139586,"SoundDuration":139586,"Delta":148281865},{"NoteNumber":75,"Velocity":50,"Duration":543527,"SoundDuration":543527,"Delta":148421451},{"NoteNumber":55,"Velocity":28,"Duration":135881,"SoundDuration":135881,"Delta":148557333},{"NoteNumber":60,"Velocity":31,"Duration":135881,"SoundDuration":135881,"Delta":148693215},{"NoteNumber":67,"Velocity":33,"Duration":135881,"SoundDuration":135881,"Delta":148829097},{"NoteNumber":72,"Velocity":41,"Duration":555760,"SoundDuration":555760,"Delta":148964978},{"NoteNumber":55,"Velocity":28,"Duration":138940,"SoundDuration":138940,"Delta":149103919},{"NoteNumber":63,"Velocity":31,"Duration":138940,"SoundDuration":138940,"Delta":149242859},{"NoteNumber":67,"Velocity":33,"Duration":138940,"SoundDuration":138940,"Delta":149381799},{"NoteNumber":71,"Velocity":50,"Duration":582016,"SoundDuration":582016,"Delta":149520739},{"NoteNumber":55,"Velocity":28,"Duration":145504,"SoundDuration":145504,"Delta":149666243},{"NoteNumber":62,"Velocity":30,"Duration":145503,"SoundDuration":145503,"Delta":149811747},{"NoteNumber":67,"Velocity":32,"Duration":145504,"SoundDuration":145504,"Delta":149957251},{"NoteNumber":74,"Velocity":47,"Duration":582015,"SoundDuration":582015,"Delta":150102755},{"NoteNumber":55,"Velocity":28,"Duration":145503,"SoundDuration":145503,"Delta":150248259},{"NoteNumber":59,"Velocity":30,"Duration":145504,"SoundDuration":145504,"Delta":150393763},{"NoteNumber":67,"Velocity":32,"Duration":145503,"SoundDuration":145503,"Delta":150539267},{"NoteNumber":76,"Velocity":50,"Duration":543527,"SoundDuration":543527,"Delta":150684771},{"NoteNumber":55,"Velocity":28,"Duration":135881,"SoundDuration":135881,"Delta":150820653},{"NoteNumber":60,"Velocity":31,"Duration":135881,"SoundDuration":135881,"Delta":150956535},{"NoteNumber":67,"Velocity":33,"Duration":135881,"SoundDuration":135881,"Delta":151092417},{"NoteNumber":72,"Velocity":41,"Duration":555760,"SoundDuration":555760,"Delta":151228298},{"NoteNumber":55,"Velocity":28,"Duration":138940,"SoundDuration":138940,"Delta":151367239},{"NoteNumber":64,"Velocity":31,"Duration":138940,"SoundDuration":138940,"Delta":151506179},{"NoteNumber":67,"Velocity":33,"Duration":138940,"SoundDuration":138940,"Delta":151645119},{"NoteNumber":71,"Velocity":50,"Duration":582016,"SoundDuration":582016,"Delta":151784059},{"NoteNumber":55,"Velocity":28,"Duration":145504,"SoundDuration":145504,"Delta":151929563},{"NoteNumber":62,"Velocity":30,"Duration":145503,"SoundDuration":145503,"Delta":152075067},{"NoteNumber":67,"Velocity":32,"Duration":145504,"SoundDuration":145504,"Delta":152220571},{"NoteNumber":74,"Velocity":47,"Duration":582015,"SoundDuration":582015,"Delta":152366075},{"NoteNumber":55,"Velocity":28,"Duration":145503,"SoundDuration":145503,"Delta":152511579},{"NoteNumber":59,"Velocity":30,"Duration":145504,"SoundDuration":145504,"Delta":152657083},{"NoteNumber":67,"Velocity":32,"Duration":145503,"SoundDuration":145503,"Delta":152802587},{"NoteNumber":75,"Velocity":50,"Duration":543527,"SoundDuration":543527,"Delta":152948091},{"NoteNumber":55,"Velocity":28,"Duration":135881,"SoundDuration":135881,"Delta":153083973},{"NoteNumber":60,"Velocity":31,"Duration":135881,"SoundDuration":135881,"Delta":153219855},{"NoteNumber":67,"Velocity":33,"Duration":135881,"SoundDuration":135881,"Delta":153355737},{"NoteNumber":72,"Velocity":41,"Duration":555760,"SoundDuration":555760,"Delta":153491618},{"NoteNumber":55,"Velocity":28,"Duration":138940,"SoundDuration":138940,"Delta":153630559},{"NoteNumber":60,"Velocity":31,"Duration":138940,"SoundDuration":138940,"Delta":153769499},{"NoteNumber":63,"Velocity":33,"Duration":138940,"SoundDuration":138940,"Delta":153908439},{"NoteNumber":79,"Velocity":50,"Duration":575953,"SoundDuration":575953,"Delta":154047379},{"NoteNumber":55,"Velocity":28,"Duration":145504,"SoundDuration":145504,"Delta":154192883},{"NoteNumber":59,"Velocity":30,"Duration":145503,"SoundDuration":145503,"Delta":154338387},{"NoteNumber":62,"Velocity":32,"Duration":145504,"SoundDuration":145504,"Delta":154483891},{"NoteNumber":79,"Velocity":47,"Duration":570529,"SoundDuration":570529,"Delta":154629395},{"NoteNumber":55,"Velocity":28,"Duration":144133,"SoundDuration":144133,"Delta":154773529},{"NoteNumber":60,"Velocity":30,"Duration":144133,"SoundDuration":144133,"Delta":154917663},{"NoteNumber":63,"Velocity":32,"Duration":144133,"SoundDuration":144133,"Delta":155061797},{"NoteNumber":79,"Velocity":50,"Duration":570529,"SoundDuration":570529,"Delta":155205930},{"NoteNumber":55,"Velocity":28,"Duration":144133,"SoundDuration":144133,"Delta":155350064},{"NoteNumber":59,"Velocity":30,"Duration":144133,"SoundDuration":144133,"Delta":155494198},{"NoteNumber":62,"Velocity":32,"Duration":144133,"SoundDuration":144133,"Delta":155638332},{"NoteNumber":79,"Velocity":47,"Duration":570529,"SoundDuration":570529,"Delta":155782465},{"NoteNumber":55,"Velocity":28,"Duration":144133,"SoundDuration":144133,"Delta":155926599},{"NoteNumber":60,"Velocity":30,"Duration":144133,"SoundDuration":144133,"Delta":156070733},{"NoteNumber":63,"Velocity":32,"Duration":144133,"SoundDuration":144133,"Delta":156214867},{"NoteNumber":79,"Velocity":50,"Duration":574556,"SoundDuration":574556,"Delta":156359000},{"NoteNumber":55,"Velocity":28,"Duration":144815,"SoundDuration":144815,"Delta":156503361},{"NoteNumber":59,"Velocity":30,"Duration":145503,"SoundDuration":145503,"Delta":156648177},{"NoteNumber":62,"Velocity":32,"Duration":145967,"SoundDuration":145967,"Delta":156793681},{"NoteNumber":79,"Velocity":47,"Duration":583502,"SoundDuration":583502,"Delta":156939648},{"NoteNumber":55,"Velocity":28,"Duration":147126,"SoundDuration":147126,"Delta":157086315},{"NoteNumber":57,"Velocity":30,"Duration":147579,"SoundDuration":147579,"Delta":157233442},{"NoteNumber":60,"Velocity":32,"Duration":148309,"SoundDuration":148309,"Delta":157381021},{"NoteNumber":79,"Velocity":47,"Duration":583424,"SoundDuration":583424,"Delta":157529331},{"NoteNumber":55,"Velocity":36,"Duration":145967,"SoundDuration":145967,"Delta":157676469},{"NoteNumber":59,"Velocity":38,"Duration":145503,"SoundDuration":145503,"Delta":157822436},{"NoteNumber":62,"Velocity":35,"Duration":144815,"SoundDuration":144815,"Delta":157967940},{"NoteNumber":67,"Velocity":43,"Duration":144361,"SoundDuration":144361,"Delta":158112755},{"NoteNumber":71,"Velocity":39,"Duration":143913,"SoundDuration":143913,"Delta":158257116},{"NoteNumber":69,"Velocity":41,"Duration":143248,"SoundDuration":143248,"Delta":158401029},{"NoteNumber":66,"Velocity":38,"Duration":142802,"SoundDuration":142802,"Delta":158544278},{"NoteNumber":67,"Velocity":43,"Duration":142153,"SoundDuration":142153,"Delta":158687081},{"NoteNumber":59,"Velocity":38,"Duration":141715,"SoundDuration":141715,"Delta":158829234},{"NoteNumber":62,"Velocity":41,"Duration":141279,"SoundDuration":141279,"Delta":158970949},{"NoteNumber":67,"Velocity":38,"Duration":140634,"SoundDuration":140634,"Delta":159112228},{"NoteNumber":71,"Velocity":46,"Duration":140212,"SoundDuration":140212,"Delta":159252863},{"NoteNumber":74,"Velocity":41,"Duration":140213,"SoundDuration":140213,"Delta":159393076},{"NoteNumber":72,"Velocity":41,"Duration":140212,"SoundDuration":140212,"Delta":159533289},{"NoteNumber":69,"Velocity":37,"Duration":140212,"SoundDuration":140212,"Delta":159673502},{"NoteNumber":71,"Velocity":47,"Duration":140213,"SoundDuration":140213,"Delta":159813715},{"NoteNumber":67,"Velocity":42,"Duration":140212,"SoundDuration":140212,"Delta":159953928},{"NoteNumber":71,"Velocity":47,"Duration":140213,"SoundDuration":140213,"Delta":160094141},{"NoteNumber":74,"Velocity":43,"Duration":140212,"SoundDuration":140212,"Delta":160234354},{"NoteNumber":79,"Velocity":51,"Duration":140212,"SoundDuration":140212,"Delta":160374567},{"NoteNumber":83,"Velocity":46,"Duration":140213,"SoundDuration":140213,"Delta":160514780},{"NoteNumber":81,"Velocity":48,"Duration":140212,"SoundDuration":140212,"Delta":160654993},{"NoteNumber":78,"Velocity":43,"Duration":140212,"SoundDuration":140212,"Delta":160795206},{"NoteNumber":79,"Velocity":52,"Duration":139301,"SoundDuration":139301,"Delta":160935419},{"NoteNumber":83,"Velocity":52,"Duration":139522,"SoundDuration":139522,"Delta":161074721},{"NoteNumber":81,"Velocity":53,"Duration":139964,"SoundDuration":139964,"Delta":161214243},{"NoteNumber":84,"Velocity":54,"Duration":140393,"SoundDuration":140393,"Delta":161354208},{"NoteNumber":83,"Velocity":55,"Duration":140832,"SoundDuration":140832,"Delta":161494601},{"NoteNumber":86,"Velocity":56,"Duration":141282,"SoundDuration":141282,"Delta":161635433},{"NoteNumber":85,"Velocity":56,"Duration":141728,"SoundDuration":141728,"Delta":161776716},{"NoteNumber":88,"Velocity":57,"Duration":142176,"SoundDuration":142176,"Delta":161918445},{"NoteNumber":86,"Velocity":58,"Duration":142626,"SoundDuration":142626,"Delta":162060621},{"NoteNumber":89,"Velocity":59,"Duration":142626,"SoundDuration":142626,"Delta":162203247},{"NoteNumber":88,"Velocity":60,"Duration":141951,"SoundDuration":141951,"Delta":162345873},{"NoteNumber":91,"Velocity":56,"Duration":141951,"SoundDuration":141951,"Delta":162487825},{"NoteNumber":89,"Velocity":61,"Duration":141505,"SoundDuration":141505,"Delta":162629776},{"NoteNumber":93,"Velocity":62,"Duration":141282,"SoundDuration":141282,"Delta":162771281},{"NoteNumber":89,"Velocity":63,"Duration":141057,"SoundDuration":141057,"Delta":162912564},{"NoteNumber":88,"Velocity":59,"Duration":140607,"SoundDuration":140607,"Delta":163053622},{"NoteNumber":86,"Velocity":65,"Duration":140393,"SoundDuration":140393,"Delta":163194229},{"NoteNumber":89,"Velocity":66,"Duration":139964,"SoundDuration":139964,"Delta":163334623},{"NoteNumber":88,"Velocity":66,"Duration":139964,"SoundDuration":139964,"Delta":163474587},{"NoteNumber":91,"Velocity":64,"Duration":139964,"SoundDuration":139964,"Delta":163614552},{"NoteNumber":89,"Velocity":68,"Duration":139964,"SoundDuration":139964,"Delta":163754516},{"NoteNumber":93,"Velocity":69,"Duration":139964,"SoundDuration":139964,"Delta":163894481},{"NoteNumber":89,"Velocity":70,"Duration":139964,"SoundDuration":139964,"Delta":164034445},{"NoteNumber":88,"Velocity":66,"Duration":139964,"SoundDuration":139964,"Delta":164174410},{"NoteNumber":86,"Velocity":69,"Duration":139964,"SoundDuration":139964,"Delta":164314374},{"NoteNumber":89,"Velocity":65,"Duration":139964,"SoundDuration":139964,"Delta":164454339},{"NoteNumber":88,"Velocity":67,"Duration":139964,"SoundDuration":139964,"Delta":164594303},{"NoteNumber":84,"Velocity":60,"Duration":139964,"SoundDuration":139964,"Delta":164734268},{"NoteNumber":83,"Velocity":64,"Duration":139964,"SoundDuration":139964,"Delta":164874232},{"NoteNumber":86,"Velocity":59,"Duration":139964,"SoundDuration":139964,"Delta":165014197},{"NoteNumber":84,"Velocity":62,"Duration":139964,"SoundDuration":139964,"Delta":165154161},{"NoteNumber":81,"Velocity":55,"Duration":139964,"SoundDuration":139964,"Delta":165294126},{"NoteNumber":79,"Velocity":59,"Duration":139964,"SoundDuration":139964,"Delta":165434090},{"NoteNumber":83,"Velocity":54,"Duration":140607,"SoundDuration":140607,"Delta":165574055},{"NoteNumber":81,"Velocity":56,"Duration":141057,"SoundDuration":141057,"Delta":165714662},{"NoteNumber":77,"Velocity":51,"Duration":141505,"SoundDuration":141505,"Delta":165855720},{"NoteNumber":76,"Velocity":54,"Duration":142628,"SoundDuration":142628,"Delta":165997225},{"NoteNumber":79,"Velocity":46,"Duration":143997,"SoundDuration":143997,"Delta":166139854},{"NoteNumber":77,"Velocity":49,"Duration":145631,"SoundDuration":145631,"Delta":166283851},{"NoteNumber":74,"Velocity":42,"Duration":147305,"SoundDuration":147305,"Delta":166429483},{"NoteNumber":72,"Velocity":49,"Duration":159323,"SoundDuration":159323,"Delta":166576788},{"NoteNumber":36,"Velocity":50,"Duration":159323,"SoundDuration":159323,"Delta":166576788},{"NoteNumber":43,"Velocity":30,"Duration":156813,"SoundDuration":156813,"Delta":166736112},{"NoteNumber":48,"Velocity":32,"Duration":153596,"SoundDuration":153596,"Delta":166892925},{"NoteNumber":52,"Velocity":34,"Duration":151273,"SoundDuration":151273,"Delta":167046522},{"NoteNumber":91,"Velocity":50,"Duration":298033,"SoundDuration":298033,"Delta":167197795},{"NoteNumber":79,"Velocity":50,"Duration":298033,"SoundDuration":298033,"Delta":167197795},{"NoteNumber":55,"Velocity":31,"Duration":149016,"SoundDuration":149016,"Delta":167197795},{"NoteNumber":48,"Velocity":31,"Duration":149016,"SoundDuration":149016,"Delta":167346812},{"NoteNumber":52,"Velocity":31,"Duration":149016,"SoundDuration":149016,"Delta":167495828},{"NoteNumber":55,"Velocity":35,"Duration":149016,"SoundDuration":149016,"Delta":167644845},{"NoteNumber":91,"Velocity":54,"Duration":855757,"SoundDuration":855757,"Delta":167793861},{"NoteNumber":79,"Velocity":54,"Duration":855757,"SoundDuration":855757,"Delta":167793861},{"NoteNumber":60,"Velocity":30,"Duration":142626,"SoundDuration":142626,"Delta":167793861},{"NoteNumber":52,"Velocity":31,"Duration":142626,"SoundDuration":142626,"Delta":167936487},{"NoteNumber":55,"Velocity":33,"Duration":142626,"SoundDuration":142626,"Delta":168079114},{"NoteNumber":60,"Velocity":36,"Duration":142626,"SoundDuration":142626,"Delta":168221740},{"NoteNumber":64,"Velocity":33,"Duration":142626,"SoundDuration":142626,"Delta":168364366},{"NoteNumber":55,"Velocity":33,"Duration":142626,"SoundDuration":142626,"Delta":168506992},{"NoteNumber":88,"Velocity":47,"Duration":285252,"SoundDuration":285252,"Delta":168649619},{"NoteNumber":76,"Velocity":47,"Duration":285252,"SoundDuration":285252,"Delta":168649619},{"NoteNumber":60,"Velocity":33,"Duration":142626,"SoundDuration":142626,"Delta":168649619},{"NoteNumber":64,"Velocity":36,"Duration":142626,"SoundDuration":142626,"Delta":168792245},{"NoteNumber":86,"Velocity":50,"Duration":547045,"SoundDuration":547045,"Delta":168934871},{"NoteNumber":74,"Velocity":50,"Duration":547045,"SoundDuration":547045,"Delta":168934871},{"NoteNumber":65,"Velocity":28,"Duration":136761,"SoundDuration":136761,"Delta":168934871},{"NoteNumber":64,"Velocity":31,"Duration":136761,"SoundDuration":136761,"Delta":169071633},{"NoteNumber":62,"Velocity":33,"Duration":136761,"SoundDuration":136761,"Delta":169208394},{"NoteNumber":60,"Velocity":36,"Duration":136761,"SoundDuration":136761,"Delta":169345156},{"NoteNumber":79,"Velocity":41,"Duration":562430,"SoundDuration":562430,"Delta":169481917},{"NoteNumber":67,"Velocity":41,"Duration":562430,"SoundDuration":562430,"Delta":169481917},{"NoteNumber":59,"Velocity":33,"Duration":140607,"SoundDuration":140607,"Delta":169481917},{"NoteNumber":57,"Velocity":33,"Duration":140607,"SoundDuration":140607,"Delta":169622525},{"NoteNumber":55,"Velocity":34,"Duration":140607,"SoundDuration":140607,"Delta":169763132},{"NoteNumber":53,"Velocity":34,"Duration":140607,"SoundDuration":140607,"Delta":169903740},{"NoteNumber":84,"Velocity":50,"Duration":582016,"SoundDuration":582016,"Delta":170044347},{"NoteNumber":72,"Velocity":50,"Duration":582016,"SoundDuration":582016,"Delta":170044347},{"NoteNumber":52,"Velocity":28,"Duration":145503,"SoundDuration":145503,"Delta":170044347},{"NoteNumber":55,"Velocity":30,"Duration":145504,"SoundDuration":145504,"Delta":170189851},{"NoteNumber":48,"Velocity":32,"Duration":145503,"SoundDuration":145503,"Delta":170335355},{"NoteNumber":52,"Velocity":34,"Duration":145504,"SoundDuration":145504,"Delta":170480859},{"NoteNumber":88,"Velocity":47,"Duration":291007,"SoundDuration":291007,"Delta":170626363},{"NoteNumber":76,"Velocity":47,"Duration":291007,"SoundDuration":291007,"Delta":170626363},{"NoteNumber":43,"Velocity":32,"Duration":145503,"SoundDuration":145503,"Delta":170626363},{"NoteNumber":48,"Velocity":32,"Duration":145503,"SoundDuration":145503,"Delta":170771867},{"NoteNumber":40,"Velocity":33,"Duration":145504,"SoundDuration":145504,"Delta":170917371},{"NoteNumber":43,"Velocity":34,"Duration":151209,"SoundDuration":151209,"Delta":171062875},{"NoteNumber":36,"Velocity":50,"Duration":157364,"SoundDuration":157364,"Delta":171214085},{"NoteNumber":43,"Velocity":30,"Duration":150961,"SoundDuration":150961,"Delta":171371450},{"NoteNumber":48,"Velocity":32,"Duration":149742,"SoundDuration":149742,"Delta":171522412},{"NoteNumber":52,"Velocity":34,"Duration":148301,"SoundDuration":148301,"Delta":171672155},{"NoteNumber":91,"Velocity":50,"Duration":295159,"SoundDuration":295159,"Delta":171820456},{"NoteNumber":79,"Velocity":50,"Duration":295159,"SoundDuration":295159,"Delta":171820456},{"NoteNumber":55,"Velocity":31,"Duration":147579,"SoundDuration":147579,"Delta":171820456},{"NoteNumber":48,"Velocity":31,"Duration":147579,"SoundDuration":147579,"Delta":171968036},{"NoteNumber":52,"Velocity":31,"Duration":147579,"SoundDuration":147579,"Delta":172115616},{"NoteNumber":55,"Velocity":35,"Duration":147579,"SoundDuration":147579,"Delta":172263196},{"NoteNumber":91,"Velocity":54,"Duration":837520,"SoundDuration":837520,"Delta":172410775},{"NoteNumber":79,"Velocity":54,"Duration":837520,"SoundDuration":837520,"Delta":172410775},{"NoteNumber":60,"Velocity":30,"Duration":139586,"SoundDuration":139586,"Delta":172410775},{"NoteNumber":52,"Velocity":31,"Duration":139586,"SoundDuration":139586,"Delta":172550362},{"NoteNumber":55,"Velocity":33,"Duration":139586,"SoundDuration":139586,"Delta":172689949},{"NoteNumber":60,"Velocity":36,"Duration":139586,"SoundDuration":139586,"Delta":172829536},{"NoteNumber":64,"Velocity":33,"Duration":139586,"SoundDuration":139586,"Delta":172969122},{"NoteNumber":55,"Velocity":33,"Duration":139586,"SoundDuration":139586,"Delta":173108709},{"NoteNumber":88,"Velocity":47,"Duration":279173,"SoundDuration":279173,"Delta":173248296},{"NoteNumber":76,"Velocity":47,"Duration":279173,"SoundDuration":279173,"Delta":173248296},{"NoteNumber":60,"Velocity":33,"Duration":139586,"SoundDuration":139586,"Delta":173248296},{"NoteNumber":64,"Velocity":33,"Duration":139586,"SoundDuration":139586,"Delta":173387883},{"NoteNumber":86,"Velocity":50,"Duration":543527,"SoundDuration":543527,"Delta":173527469},{"NoteNumber":74,"Velocity":50,"Duration":543527,"SoundDuration":543527,"Delta":173527469},{"NoteNumber":65,"Velocity":28,"Duration":135881,"SoundDuration":135881,"Delta":173527469},{"NoteNumber":64,"Velocity":31,"Duration":135881,"SoundDuration":135881,"Delta":173663351},{"NoteNumber":62,"Velocity":33,"Duration":135881,"SoundDuration":135881,"Delta":173799233},{"NoteNumber":60,"Velocity":36,"Duration":135881,"SoundDuration":135881,"Delta":173935115},{"NoteNumber":79,"Velocity":41,"Duration":555760,"SoundDuration":555760,"Delta":174070996},{"NoteNumber":67,"Velocity":41,"Duration":555760,"SoundDuration":555760,"Delta":174070996},{"NoteNumber":59,"Velocity":33,"Duration":138940,"SoundDuration":138940,"Delta":174070996},{"NoteNumber":55,"Velocity":33,"Duration":138940,"SoundDuration":138940,"Delta":174209937},{"NoteNumber":57,"Velocity":34,"Duration":138940,"SoundDuration":138940,"Delta":174348877},{"NoteNumber":59,"Velocity":34,"Duration":138940,"SoundDuration":138940,"Delta":174487817},{"NoteNumber":84,"Velocity":50,"Duration":291008,"SoundDuration":291008,"Delta":174626757},{"NoteNumber":72,"Velocity":50,"Duration":291008,"SoundDuration":291008,"Delta":174626757},{"NoteNumber":60,"Velocity":28,"Duration":145503,"SoundDuration":145503,"Delta":174626757},{"NoteNumber":59,"Velocity":30,"Duration":145504,"SoundDuration":145504,"Delta":174772261},{"NoteNumber":57,"Velocity":32,"Duration":145503,"SoundDuration":145503,"Delta":174917765},{"NoteNumber":55,"Velocity":34,"Duration":145504,"SoundDuration":145504,"Delta":175063269},{"NoteNumber":53,"Velocity":32,"Duration":145503,"SoundDuration":145503,"Delta":175208773},{"NoteNumber":52,"Velocity":32,"Duration":145503,"SoundDuration":145503,"Delta":175354277},{"NoteNumber":50,"Velocity":33,"Duration":145504,"SoundDuration":145504,"Delta":175499781},{"NoteNumber":48,"Velocity":35,"Duration":150466,"SoundDuration":150466,"Delta":175645285},{"NoteNumber":43,"Velocity":45,"Duration":157364,"SoundDuration":157364,"Delta":175795752},{"NoteNumber":47,"Velocity":30,"Duration":152455,"SoundDuration":152455,"Delta":175953117},{"NoteNumber":50,"Velocity":32,"Duration":150473,"SoundDuration":150473,"Delta":176105572},{"NoteNumber":55,"Velocity":34,"Duration":148301,"SoundDuration":148301,"Delta":176256046},{"NoteNumber":89,"Velocity":50,"Duration":295159,"SoundDuration":295159,"Delta":176404348},{"NoteNumber":77,"Velocity":50,"Duration":295159,"SoundDuration":295159,"Delta":176404348},{"NoteNumber":47,"Velocity":31,"Duration":147579,"SoundDuration":147579,"Delta":176404348},{"NoteNumber":50,"Velocity":31,"Duration":147579,"SoundDuration":147579,"Delta":176551927},{"NoteNumber":55,"Velocity":31,"Duration":147579,"SoundDuration":147579,"Delta":176699507},{"NoteNumber":59,"Velocity":35,"Duration":147579,"SoundDuration":147579,"Delta":176847087},{"NoteNumber":89,"Velocity":54,"Duration":837520,"SoundDuration":837520,"Delta":176994667},{"NoteNumber":77,"Velocity":54,"Duration":837520,"SoundDuration":837520,"Delta":176994667},{"NoteNumber":50,"Velocity":30,"Duration":139586,"SoundDuration":139586,"Delta":176994667},{"NoteNumber":55,"Velocity":31,"Duration":139586,"SoundDuration":139586,"Delta":177134253},{"NoteNumber":59,"Velocity":33,"Duration":139586,"SoundDuration":139586,"Delta":177273840},{"NoteNumber":62,"Velocity":36,"Duration":139586,"SoundDuration":139586,"Delta":177413427},{"NoteNumber":55,"Velocity":33,"Duration":139586,"SoundDuration":139586,"Delta":177553014},{"NoteNumber":59,"Velocity":33,"Duration":139586,"SoundDuration":139586,"Delta":177692600},{"NoteNumber":86,"Velocity":47,"Duration":279173,"SoundDuration":279173,"Delta":177832187},{"NoteNumber":74,"Velocity":47,"Duration":279173,"SoundDuration":279173,"Delta":177832187},{"NoteNumber":62,"Velocity":33,"Duration":139586,"SoundDuration":139586,"Delta":177832187},{"NoteNumber":67,"Velocity":36,"Duration":139586,"SoundDuration":139586,"Delta":177971774},{"NoteNumber":88,"Velocity":50,"Duration":543527,"SoundDuration":543527,"Delta":178111361},{"NoteNumber":76,"Velocity":50,"Duration":543527,"SoundDuration":543527,"Delta":178111361},{"NoteNumber":55,"Velocity":28,"Duration":135881,"SoundDuration":135881,"Delta":178111361},{"NoteNumber":60,"Velocity":31,"Duration":135881,"SoundDuration":135881,"Delta":178247242},{"NoteNumber":67,"Velocity":33,"Duration":135881,"SoundDuration":135881,"Delta":178383124},{"NoteNumber":60,"Velocity":36,"Duration":135881,"SoundDuration":135881,"Delta":178519006},{"NoteNumber":84,"Velocity":41,"Duration":555760,"SoundDuration":555760,"Delta":178654888},{"NoteNumber":72,"Velocity":41,"Duration":555760,"SoundDuration":555760,"Delta":178654888},{"NoteNumber":55,"Velocity":28,"Duration":138940,"SoundDuration":138940,"Delta":178654888},{"NoteNumber":64,"Velocity":31,"Duration":138940,"SoundDuration":138940,"Delta":178793828},{"NoteNumber":67,"Velocity":33,"Duration":138940,"SoundDuration":138940,"Delta":178932768},{"NoteNumber":64,"Velocity":36,"Duration":138940,"SoundDuration":138940,"Delta":179071708},{"NoteNumber":83,"Velocity":50,"Duration":582016,"SoundDuration":582016,"Delta":179210649},{"NoteNumber":71,"Velocity":50,"Duration":582016,"SoundDuration":582016,"Delta":179210649},{"NoteNumber":55,"Velocity":28,"Duration":145503,"SoundDuration":145503,"Delta":179210649},{"NoteNumber":62,"Velocity":30,"Duration":145504,"SoundDuration":145504,"Delta":179356153},{"NoteNumber":67,"Velocity":32,"Duration":145503,"SoundDuration":145503,"Delta":179501657},{"NoteNumber":62,"Velocity":36,"Duration":145504,"SoundDuration":145504,"Delta":179647161},{"NoteNumber":86,"Velocity":47,"Duration":291007,"SoundDuration":291007,"Delta":179792665},{"NoteNumber":74,"Velocity":47,"Duration":291007,"SoundDuration":291007,"Delta":179792665},{"NoteNumber":55,"Velocity":28,"Duration":145503,"SoundDuration":145503,"Delta":179792665},{"NoteNumber":59,"Velocity":30,"Duration":145503,"SoundDuration":145503,"Delta":179938169},{"NoteNumber":67,"Velocity":32,"Duration":145504,"SoundDuration":145504,"Delta":180083673},{"NoteNumber":59,"Velocity":35,"Duration":150466,"SoundDuration":150466,"Delta":180229177},{"NoteNumber":43,"Velocity":48,"Duration":157364,"SoundDuration":157364,"Delta":180379643},{"NoteNumber":47,"Velocity":30,"Duration":152455,"SoundDuration":152455,"Delta":180537008},{"NoteNumber":50,"Velocity":32,"Duration":150473,"SoundDuration":150473,"Delta":180689463},{"NoteNumber":55,"Velocity":34,"Duration":148301,"SoundDuration":148301,"Delta":180839937},{"NoteNumber":89,"Velocity":50,"Duration":295159,"SoundDuration":295159,"Delta":180988239},{"NoteNumber":77,"Velocity":50,"Duration":295159,"SoundDuration":295159,"Delta":180988239},{"NoteNumber":47,"Velocity":31,"Duration":147579,"SoundDuration":147579,"Delta":180988239},{"NoteNumber":50,"Velocity":31,"Duration":147579,"SoundDuration":147579,"Delta":181135819},{"NoteNumber":55,"Velocity":31,"Duration":147579,"SoundDuration":147579,"Delta":181283398},{"NoteNumber":59,"Velocity":35,"Duration":147579,"SoundDuration":147579,"Delta":181430978},{"NoteNumber":89,"Velocity":54,"Duration":837520,"SoundDuration":837520,"Delta":181578558},{"NoteNumber":77,"Velocity":54,"Duration":837520,"SoundDuration":837520,"Delta":181578558},{"NoteNumber":50,"Velocity":30,"Duration":139586,"SoundDuration":139586,"Delta":181578558},{"NoteNumber":55,"Velocity":31,"Duration":139586,"SoundDuration":139586,"Delta":181718145},{"NoteNumber":59,"Velocity":33,"Duration":139586,"SoundDuration":139586,"Delta":181857731},{"NoteNumber":62,"Velocity":36,"Duration":139586,"SoundDuration":139586,"Delta":181997318},{"NoteNumber":55,"Velocity":33,"Duration":139586,"SoundDuration":139586,"Delta":182136905},{"NoteNumber":59,"Velocity":33,"Duration":139586,"SoundDuration":139586,"Delta":182276492},{"NoteNumber":86,"Velocity":47,"Duration":279173,"SoundDuration":279173,"Delta":182416078},{"NoteNumber":74,"Velocity":47,"Duration":279173,"SoundDuration":279173,"Delta":182416078},{"NoteNumber":62,"Velocity":33,"Duration":139586,"SoundDuration":139586,"Delta":182416078},{"NoteNumber":67,"Velocity":36,"Duration":139586,"SoundDuration":139586,"Delta":182555665},{"NoteNumber":87,"Velocity":50,"Duration":543527,"SoundDuration":543527,"Delta":182695252},{"NoteNumber":75,"Velocity":50,"Duration":543527,"SoundDuration":543527,"Delta":182695252},{"NoteNumber":55,"Velocity":28,"Duration":135881,"SoundDuration":135881,"Delta":182695252},{"NoteNumber":60,"Velocity":31,"Duration":135881,"SoundDuration":135881,"Delta":182831134},{"NoteNumber":67,"Velocity":33,"Duration":135881,"SoundDuration":135881,"Delta":182967015},{"NoteNumber":60,"Velocity":35,"Duration":135881,"SoundDuration":135881,"Delta":183102897},{"NoteNumber":84,"Velocity":41,"Duration":555760,"SoundDuration":555760,"Delta":183238779},{"NoteNumber":72,"Velocity":41,"Duration":555760,"SoundDuration":555760,"Delta":183238779},{"NoteNumber":55,"Velocity":28,"Duration":138940,"SoundDuration":138940,"Delta":183238779},{"NoteNumber":63,"Velocity":31,"Duration":138940,"SoundDuration":138940,"Delta":183377719},{"NoteNumber":67,"Velocity":33,"Duration":138940,"SoundDuration":138940,"Delta":183516659},{"NoteNumber":63,"Velocity":35,"Duration":138940,"SoundDuration":138940,"Delta":183655600},{"NoteNumber":83,"Velocity":50,"Duration":582016,"SoundDuration":582016,"Delta":183794540},{"NoteNumber":71,"Velocity":50,"Duration":582016,"SoundDuration":582016,"Delta":183794540},{"NoteNumber":55,"Velocity":28,"Duration":145503,"SoundDuration":145503,"Delta":183794540},{"NoteNumber":62,"Velocity":30,"Duration":145504,"SoundDuration":145504,"Delta":183940044},{"NoteNumber":67,"Velocity":32,"Duration":145503,"SoundDuration":145503,"Delta":184085548},{"NoteNumber":62,"Velocity":35,"Duration":145504,"SoundDuration":145504,"Delta":184231052},{"NoteNumber":86,"Velocity":47,"Duration":582015,"SoundDuration":582015,"Delta":184376556},{"NoteNumber":74,"Velocity":47,"Duration":582015,"SoundDuration":582015,"Delta":184376556},{"NoteNumber":55,"Velocity":28,"Duration":145503,"SoundDuration":145503,"Delta":184376556},{"NoteNumber":59,"Velocity":30,"Duration":145503,"SoundDuration":145503,"Delta":184522060},{"NoteNumber":67,"Velocity":32,"Duration":145504,"SoundDuration":145504,"Delta":184667564},{"NoteNumber":59,"Velocity":35,"Duration":145503,"SoundDuration":145503,"Delta":184813068},{"NoteNumber":88,"Velocity":50,"Duration":543527,"SoundDuration":543527,"Delta":184958572},{"NoteNumber":76,"Velocity":50,"Duration":543527,"SoundDuration":543527,"Delta":184958572},{"NoteNumber":55,"Velocity":28,"Duration":135881,"SoundDuration":135881,"Delta":184958572},{"NoteNumber":60,"Velocity":31,"Duration":135881,"SoundDuration":135881,"Delta":185094454},{"NoteNumber":67,"Velocity":33,"Duration":135881,"SoundDuration":135881,"Delta":185230335},{"NoteNumber":60,"Velocity":35,"Duration":135881,"SoundDuration":135881,"Delta":185366217},{"NoteNumber":84,"Velocity":42,"Duration":555760,"SoundDuration":555760,"Delta":185502099},{"NoteNumber":72,"Velocity":42,"Duration":555760,"SoundDuration":555760,"Delta":185502099},{"NoteNumber":55,"Velocity":28,"Duration":138940,"SoundDuration":138940,"Delta":185502099},{"NoteNumber":64,"Velocity":32,"Duration":138940,"SoundDuration":138940,"Delta":185641039},{"NoteNumber":67,"Velocity":34,"Duration":138940,"SoundDuration":138940,"Delta":185779979},{"NoteNumber":64,"Velocity":37,"Duration":138940,"SoundDuration":138940,"Delta":185918920},{"NoteNumber":83,"Velocity":53,"Duration":582016,"SoundDuration":582016,"Delta":186057860},{"NoteNumber":71,"Velocity":53,"Duration":582016,"SoundDuration":582016,"Delta":186057860},{"NoteNumber":55,"Velocity":29,"Duration":145503,"SoundDuration":145503,"Delta":186057860},{"NoteNumber":62,"Velocity":32,"Duration":145504,"SoundDuration":145504,"Delta":186203364},{"NoteNumber":67,"Velocity":34,"Duration":145503,"SoundDuration":145503,"Delta":186348868},{"NoteNumber":62,"Velocity":38,"Duration":145504,"SoundDuration":145504,"Delta":186494372},{"NoteNumber":86,"Velocity":52,"Duration":582015,"SoundDuration":582015,"Delta":186639876},{"NoteNumber":74,"Velocity":52,"Duration":582015,"SoundDuration":582015,"Delta":186639876},{"NoteNumber":55,"Velocity":31,"Duration":145503,"SoundDuration":145503,"Delta":186639876},{"NoteNumber":59,"Velocity":33,"Duration":145503,"SoundDuration":145503,"Delta":186785380},{"NoteNumber":67,"Velocity":36,"Duration":145504,"SoundDuration":145504,"Delta":186930884},{"NoteNumber":59,"Velocity":39,"Duration":145503,"SoundDuration":145503,"Delta":187076388},{"NoteNumber":87,"Velocity":50,"Duration":543527,"SoundDuration":543527,"Delta":187221892},{"NoteNumber":75,"Velocity":50,"Duration":543527,"SoundDuration":543527,"Delta":187221892},{"NoteNumber":55,"Velocity":28,"Duration":135881,"SoundDuration":135881,"Delta":187221892},{"NoteNumber":60,"Velocity":31,"Duration":135881,"SoundDuration":135881,"Delta":187357774},{"NoteNumber":67,"Velocity":33,"Duration":135881,"SoundDuration":135881,"Delta":187493655},{"NoteNumber":60,"Velocity":35,"Duration":135881,"SoundDuration":135881,"Delta":187629537},{"NoteNumber":84,"Velocity":41,"Duration":555760,"SoundDuration":555760,"Delta":187765419},{"NoteNumber":72,"Velocity":41,"Duration":555760,"SoundDuration":555760,"Delta":187765419},{"NoteNumber":55,"Velocity":28,"Duration":138940,"SoundDuration":138940,"Delta":187765419},{"NoteNumber":60,"Velocity":31,"Duration":138940,"SoundDuration":138940,"Delta":187904359},{"NoteNumber":63,"Velocity":33,"Duration":138940,"SoundDuration":138940,"Delta":188043299},{"NoteNumber":60,"Velocity":35,"Duration":138940,"SoundDuration":138940,"Delta":188182240},{"NoteNumber":79,"Velocity":50,"Duration":582016,"SoundDuration":582016,"Delta":188321180},{"NoteNumber":55,"Velocity":28,"Duration":145503,"SoundDuration":145503,"Delta":188321180},{"NoteNumber":59,"Velocity":30,"Duration":145504,"SoundDuration":145504,"Delta":188466684},{"NoteNumber":62,"Velocity":32,"Duration":145503,"SoundDuration":145503,"Delta":188612188},{"NoteNumber":59,"Velocity":35,"Duration":145504,"SoundDuration":145504,"Delta":188757692},{"NoteNumber":79,"Velocity":47,"Duration":576535,"SoundDuration":576535,"Delta":188903196},{"NoteNumber":55,"Velocity":28,"Duration":144133,"SoundDuration":144133,"Delta":188903196},{"NoteNumber":60,"Velocity":30,"Duration":144133,"SoundDuration":144133,"Delta":189047330},{"NoteNumber":63,"Velocity":32,"Duration":144133,"SoundDuration":144133,"Delta":189191463},{"NoteNumber":60,"Velocity":35,"Duration":144133,"SoundDuration":144133,"Delta":189335597},{"NoteNumber":81,"Velocity":37,"Duration":97002,"SoundDuration":97002,"Delta":189479731},{"NoteNumber":55,"Velocity":47,"Duration":72752,"SoundDuration":72752,"Delta":189479731},{"NoteNumber":79,"Velocity":37,"Duration":97002,"SoundDuration":97002,"Delta":189576734},{"NoteNumber":59,"Velocity":30,"Duration":145504,"SoundDuration":145504,"Delta":189625235},{"NoteNumber":81,"Velocity":37,"Duration":97002,"SoundDuration":97002,"Delta":189673736},{"NoteNumber":79,"Velocity":37,"Duration":97002,"SoundDuration":97002,"Delta":189770739},{"NoteNumber":62,"Velocity":31,"Duration":145503,"SoundDuration":145503,"Delta":189770739},{"NoteNumber":81,"Velocity":38,"Duration":97002,"SoundDuration":97002,"Delta":189867742},{"NoteNumber":59,"Velocity":32,"Duration":145504,"SoundDuration":145504,"Delta":189916243},{"NoteNumber":79,"Velocity":38,"Duration":97002,"SoundDuration":97002,"Delta":189964744},{"NoteNumber":81,"Velocity":39,"Duration":96543,"SoundDuration":96543,"Delta":190061747},{"NoteNumber":55,"Velocity":53,"Duration":72407,"SoundDuration":72407,"Delta":190061747},{"NoteNumber":79,"Velocity":39,"Duration":96543,"SoundDuration":96543,"Delta":190158291},{"NoteNumber":60,"Velocity":32,"Duration":144815,"SoundDuration":144815,"Delta":190206562},{"NoteNumber":81,"Velocity":39,"Duration":96543,"SoundDuration":96543,"Delta":190254834},{"NoteNumber":79,"Velocity":39,"Duration":96543,"SoundDuration":96543,"Delta":190351378},{"NoteNumber":64,"Velocity":33,"Duration":144815,"SoundDuration":144815,"Delta":190351378},{"NoteNumber":81,"Velocity":40,"Duration":96543,"SoundDuration":96543,"Delta":190447922},{"NoteNumber":60,"Velocity":34,"Duration":144360,"SoundDuration":144360,"Delta":190496193},{"NoteNumber":79,"Velocity":40,"Duration":96089,"SoundDuration":96089,"Delta":190544465},{"NoteNumber":81,"Velocity":41,"Duration":96089,"SoundDuration":96089,"Delta":190640554},{"NoteNumber":55,"Velocity":57,"Duration":72066,"SoundDuration":72066,"Delta":190640554},{"NoteNumber":79,"Velocity":41,"Duration":96089,"SoundDuration":96089,"Delta":190736644},{"NoteNumber":59,"Velocity":35,"Duration":143692,"SoundDuration":143692,"Delta":190784688},{"NoteNumber":81,"Velocity":41,"Duration":95648,"SoundDuration":95648,"Delta":190832733},{"NoteNumber":79,"Velocity":43,"Duration":95647,"SoundDuration":95647,"Delta":190928381},{"NoteNumber":62,"Velocity":38,"Duration":143472,"SoundDuration":143472,"Delta":190928381},{"NoteNumber":81,"Velocity":43,"Duration":95424,"SoundDuration":95424,"Delta":191024029},{"NoteNumber":59,"Velocity":38,"Duration":142802,"SoundDuration":142802,"Delta":191071853},{"NoteNumber":79,"Velocity":43,"Duration":95201,"SoundDuration":95201,"Delta":191119454},{"NoteNumber":81,"Velocity":44,"Duration":95201,"SoundDuration":95201,"Delta":191214655},{"NoteNumber":55,"Velocity":64,"Duration":71401,"SoundDuration":71401,"Delta":191214655},{"NoteNumber":79,"Velocity":44,"Duration":94768,"SoundDuration":94768,"Delta":191309857},{"NoteNumber":57,"Velocity":39,"Duration":142153,"SoundDuration":142153,"Delta":191357242},{"NoteNumber":81,"Velocity":45,"Duration":94768,"SoundDuration":94768,"Delta":191404626},{"NoteNumber":79,"Velocity":45,"Duration":94549,"SoundDuration":94549,"Delta":191499395},{"NoteNumber":60,"Velocity":41,"Duration":141715,"SoundDuration":141715,"Delta":191499395},{"NoteNumber":81,"Velocity":45,"Duration":94330,"SoundDuration":94330,"Delta":191593945},{"NoteNumber":57,"Velocity":43,"Duration":141495,"SoundDuration":141495,"Delta":191641110},{"NoteNumber":79,"Velocity":45,"Duration":94330,"SoundDuration":94330,"Delta":191688275},{"NoteNumber":81,"Velocity":47,"Duration":93581,"SoundDuration":93581,"Delta":191782606},{"NoteNumber":55,"Velocity":71,"Duration":70317,"SoundDuration":70317,"Delta":191782606},{"NoteNumber":79,"Velocity":47,"Duration":92221,"SoundDuration":92221,"Delta":191876188},{"NoteNumber":59,"Velocity":47,"Duration":140656,"SoundDuration":140656,"Delta":191922195},{"NoteNumber":81,"Velocity":47,"Duration":94441,"SoundDuration":94441,"Delta":191968409},{"NoteNumber":79,"Velocity":47,"Duration":92751,"SoundDuration":92751,"Delta":192062851},{"NoteNumber":57,"Velocity":49,"Duration":138964,"SoundDuration":138964,"Delta":192062851},{"NoteNumber":81,"Velocity":47,"Duration":93269,"SoundDuration":93269,"Delta":192155602},{"NoteNumber":55,"Velocity":50,"Duration":141825,"SoundDuration":141825,"Delta":192201815},{"NoteNumber":79,"Velocity":48,"Duration":94768,"SoundDuration":94768,"Delta":192248872},{"NoteNumber":81,"Velocity":48,"Duration":92734,"SoundDuration":92734,"Delta":192343641},{"NoteNumber":53,"Velocity":76,"Duration":69577,"SoundDuration":69577,"Delta":192343641},{"NoteNumber":79,"Velocity":48,"Duration":93477,"SoundDuration":93477,"Delta":192436376},{"NoteNumber":57,"Velocity":55,"Duration":141718,"SoundDuration":141718,"Delta":192482797},{"NoteNumber":81,"Velocity":49,"Duration":94661,"SoundDuration":94661,"Delta":192529854},{"NoteNumber":79,"Velocity":49,"Duration":92734,"SoundDuration":92734,"Delta":192624516},{"NoteNumber":55,"Velocity":58,"Duration":138947,"SoundDuration":138947,"Delta":192624516},{"NoteNumber":81,"Velocity":50,"Duration":93269,"SoundDuration":93269,"Delta":192717250},{"NoteNumber":53,"Velocity":62,"Duration":141825,"SoundDuration":141825,"Delta":192763463},{"NoteNumber":79,"Velocity":51,"Duration":94768,"SoundDuration":94768,"Delta":192810520},{"NoteNumber":81,"Velocity":51,"Duration":93800,"SoundDuration":93800,"Delta":192905289},{"NoteNumber":52,"Velocity":85,"Duration":70643,"SoundDuration":70643,"Delta":192905289},{"NoteNumber":79,"Velocity":52,"Duration":92734,"SoundDuration":92734,"Delta":192999089},{"NoteNumber":55,"Velocity":63,"Duration":140111,"SoundDuration":140111,"Delta":193045403},{"NoteNumber":81,"Velocity":52,"Duration":93690,"SoundDuration":93690,"Delta":193091824},{"NoteNumber":79,"Velocity":52,"Duration":92626,"SoundDuration":92626,"Delta":193185514},{"NoteNumber":53,"Velocity":68,"Duration":139048,"SoundDuration":139048,"Delta":193185514},{"NoteNumber":81,"Velocity":54,"Duration":93369,"SoundDuration":93369,"Delta":193278141},{"NoteNumber":52,"Velocity":70,"Duration":140844,"SoundDuration":140844,"Delta":193324562},{"NoteNumber":79,"Velocity":54,"Duration":93896,"SoundDuration":93896,"Delta":193371510},{"NoteNumber":81,"Velocity":54,"Duration":93896,"SoundDuration":93896,"Delta":193465407},{"NoteNumber":50,"Velocity":90,"Duration":70422,"SoundDuration":70422,"Delta":193465407},{"NoteNumber":79,"Velocity":55,"Duration":94330,"SoundDuration":94330,"Delta":193559304},{"NoteNumber":53,"Velocity":72,"Duration":142150,"SoundDuration":142150,"Delta":193606469},{"NoteNumber":81,"Velocity":55,"Duration":94985,"SoundDuration":94985,"Delta":193653634},{"NoteNumber":79,"Velocity":55,"Duration":95424,"SoundDuration":95424,"Delta":193748620},{"NoteNumber":52,"Velocity":73,"Duration":143469,"SoundDuration":143469,"Delta":193748620},{"NoteNumber":81,"Velocity":56,"Duration":96089,"SoundDuration":96089,"Delta":193844045},{"NoteNumber":50,"Velocity":79,"Duration":144817,"SoundDuration":144817,"Delta":193892089},{"NoteNumber":79,"Velocity":56,"Duration":96773,"SoundDuration":96773,"Delta":193940134},{"NoteNumber":81,"Velocity":48,"Duration":94566,"SoundDuration":94566,"Delta":194036907},{"NoteNumber":36,"Velocity":94,"Duration":282921,"SoundDuration":282921,"Delta":194036907},{"NoteNumber":48,"Velocity":94,"Duration":282921,"SoundDuration":282921,"Delta":194036907},{"NoteNumber":79,"Velocity":35,"Duration":93695,"SoundDuration":93695,"Delta":194131474},{"NoteNumber":50,"Velocity":56,"Duration":70858,"SoundDuration":70858,"Delta":194178003},{"NoteNumber":81,"Velocity":38,"Duration":94659,"SoundDuration":94659,"Delta":194225169},{"NoteNumber":52,"Velocity":57,"Duration":70966,"SoundDuration":70966,"Delta":194248861},{"NoteNumber":79,"Velocity":35,"Duration":92431,"SoundDuration":92431,"Delta":194319828},{"NoteNumber":53,"Velocity":60,"Duration":69583,"SoundDuration":69583,"Delta":194319828},{"NoteNumber":55,"Velocity":60,"Duration":69268,"SoundDuration":69268,"Delta":194389412},{"NoteNumber":81,"Velocity":38,"Duration":93054,"SoundDuration":93054,"Delta":194412260},{"NoteNumber":57,"Velocity":62,"Duration":70002,"SoundDuration":70002,"Delta":194458681},{"NoteNumber":79,"Velocity":36,"Duration":93370,"SoundDuration":93370,"Delta":194505314},{"NoteNumber":59,"Velocity":63,"Duration":70002,"SoundDuration":70002,"Delta":194528683},{"NoteNumber":81,"Velocity":40,"Duration":91205,"SoundDuration":91205,"Delta":194598685},{"NoteNumber":91,"Velocity":89,"Duration":274828,"SoundDuration":274828,"Delta":194598685},{"NoteNumber":60,"Velocity":63,"Duration":136504,"SoundDuration":136504,"Delta":194598685},{"NoteNumber":79,"Velocity":36,"Duration":91305,"SoundDuration":91305,"Delta":194689890},{"NoteNumber":62,"Velocity":65,"Duration":69163,"SoundDuration":69163,"Delta":194735189},{"NoteNumber":81,"Velocity":40,"Duration":92317,"SoundDuration":92317,"Delta":194781196},{"NoteNumber":64,"Velocity":66,"Duration":69161,"SoundDuration":69161,"Delta":194804353},{"NoteNumber":79,"Velocity":36,"Duration":87879,"SoundDuration":87879,"Delta":194873514},{"NoteNumber":65,"Velocity":67,"Duration":65911,"SoundDuration":65911,"Delta":194873514},{"NoteNumber":67,"Velocity":69,"Duration":67267,"SoundDuration":67267,"Delta":194939425},{"NoteNumber":81,"Velocity":40,"Duration":91205,"SoundDuration":91205,"Delta":194961393},{"NoteNumber":69,"Velocity":70,"Duration":68553,"SoundDuration":68553,"Delta":195006692},{"NoteNumber":79,"Velocity":36,"Duration":90587,"SoundDuration":90587,"Delta":195052599},{"NoteNumber":71,"Velocity":71,"Duration":67940,"SoundDuration":67940,"Delta":195075246},{"NoteNumber":81,"Velocity":40,"Duration":90793,"SoundDuration":90793,"Delta":195143187},{"NoteNumber":91,"Velocity":90,"Duration":831573,"SoundDuration":831573,"Delta":195143187},{"NoteNumber":72,"Velocity":74,"Duration":68043,"SoundDuration":68043,"Delta":195143187},{"NoteNumber":79,"Velocity":37,"Duration":90798,"SoundDuration":90798,"Delta":195233981},{"NoteNumber":71,"Velocity":71,"Duration":68857,"SoundDuration":68857,"Delta":195279079},{"NoteNumber":81,"Velocity":40,"Duration":93690,"SoundDuration":93690,"Delta":195324779},{"NoteNumber":79,"Velocity":36,"Duration":92119,"SoundDuration":92119,"Delta":195418470},{"NoteNumber":69,"Velocity":71,"Duration":69271,"SoundDuration":69271,"Delta":195418470},{"NoteNumber":81,"Velocity":40,"Duration":92740,"SoundDuration":92740,"Delta":195510589},{"NoteNumber":67,"Velocity":71,"Duration":70002,"SoundDuration":70002,"Delta":195556696},{"NoteNumber":79,"Velocity":36,"Duration":93266,"SoundDuration":93266,"Delta":195603329},{"NoteNumber":81,"Velocity":40,"Duration":91810,"SoundDuration":91810,"Delta":195696596},{"NoteNumber":65,"Velocity":72,"Duration":69060,"SoundDuration":69060,"Delta":195696596},{"NoteNumber":79,"Velocity":35,"Duration":92022,"SoundDuration":92022,"Delta":195788407},{"NoteNumber":64,"Velocity":69,"Duration":70007,"SoundDuration":70007,"Delta":195834005},{"NoteNumber":81,"Velocity":38,"Duration":94330,"SoundDuration":94330,"Delta":195880430},{"NoteNumber":79,"Velocity":33,"Duration":91097,"SoundDuration":91097,"Delta":195974761},{"NoteNumber":88,"Velocity":85,"Duration":275755,"SoundDuration":275755,"Delta":195974761},{"NoteNumber":62,"Velocity":69,"Duration":68347,"SoundDuration":68347,"Delta":195974761},{"NoteNumber":81,"Velocity":38,"Duration":92435,"SoundDuration":92435,"Delta":196065858},{"NoteNumber":60,"Velocity":67,"Duration":69793,"SoundDuration":69793,"Delta":196111765},{"NoteNumber":79,"Velocity":34,"Duration":92221,"SoundDuration":92221,"Delta":196158294},{"NoteNumber":81,"Velocity":38,"Duration":89998,"SoundDuration":89998,"Delta":196250516},{"NoteNumber":86,"Velocity":90,"Duration":539369,"SoundDuration":539369,"Delta":196250516},{"NoteNumber":59,"Velocity":73,"Duration":67645,"SoundDuration":67645,"Delta":196250516},{"NoteNumber":79,"Velocity":34,"Duration":89121,"SoundDuration":89121,"Delta":196340515},{"NoteNumber":60,"Velocity":69,"Duration":66963,"SoundDuration":66963,"Delta":196385222},{"NoteNumber":81,"Velocity":36,"Duration":90395,"SoundDuration":90395,"Delta":196429637},{"NoteNumber":79,"Velocity":33,"Duration":88549,"SoundDuration":88549,"Delta":196520032},{"NoteNumber":59,"Velocity":69,"Duration":66484,"SoundDuration":66484,"Delta":196520032},{"NoteNumber":81,"Velocity":37,"Duration":90798,"SoundDuration":90798,"Delta":196608582},{"NoteNumber":57,"Velocity":69,"Duration":68244,"SoundDuration":68244,"Delta":196653685},{"NoteNumber":79,"Velocity":33,"Duration":90504,"SoundDuration":90504,"Delta":196699381},{"NoteNumber":81,"Velocity":37,"Duration":91910,"SoundDuration":91910,"Delta":196789885},{"NoteNumber":79,"Velocity":84,"Duration":80487,"SoundDuration":80487,"Delta":196789885},{"NoteNumber":55,"Velocity":75,"Duration":69063,"SoundDuration":69063,"Delta":196789885},{"NoteNumber":79,"Velocity":33,"Duration":91718,"SoundDuration":91718,"Delta":196881796},{"NoteNumber":53,"Velocity":69,"Duration":69690,"SoundDuration":69690,"Delta":196927193},{"NoteNumber":81,"Velocity":38,"Duration":92323,"SoundDuration":92323,"Delta":196973515},{"NoteNumber":79,"Velocity":32,"Duration":91200,"SoundDuration":91200,"Delta":197065839},{"NoteNumber":52,"Velocity":69,"Duration":68250,"SoundDuration":68250,"Delta":197065839},{"NoteNumber":81,"Velocity":37,"Duration":93058,"SoundDuration":93058,"Delta":197157039},{"NoteNumber":50,"Velocity":69,"Duration":69481,"SoundDuration":69481,"Delta":197203673},{"NoteNumber":79,"Velocity":32,"Duration":92225,"SoundDuration":92225,"Delta":197250098},{"NoteNumber":81,"Velocity":38,"Duration":92139,"SoundDuration":92139,"Delta":197342323},{"NoteNumber":84,"Velocity":87,"Duration":556195,"SoundDuration":556195,"Delta":197342323},{"NoteNumber":48,"Velocity":75,"Duration":68556,"SoundDuration":68556,"Delta":197342323},{"NoteNumber":79,"Velocity":32,"Duration":92115,"SoundDuration":92115,"Delta":197434462},{"NoteNumber":48,"Velocity":69,"Duration":69689,"SoundDuration":69689,"Delta":197480363},{"NoteNumber":81,"Velocity":37,"Duration":93587,"SoundDuration":93587,"Delta":197526578},{"NoteNumber":79,"Velocity":32,"Duration":92638,"SoundDuration":92638,"Delta":197620166},{"NoteNumber":47,"Velocity":69,"Duration":69269,"SoundDuration":69269,"Delta":197620166},{"NoteNumber":81,"Velocity":36,"Duration":92969,"SoundDuration":92969,"Delta":197712804},{"NoteNumber":45,"Velocity":69,"Duration":69169,"SoundDuration":69169,"Delta":197759661},{"NoteNumber":79,"Velocity":32,"Duration":92745,"SoundDuration":92745,"Delta":197805773},{"NoteNumber":81,"Velocity":36,"Duration":95111,"SoundDuration":95111,"Delta":197898519},{"NoteNumber":88,"Velocity":84,"Duration":287673,"SoundDuration":287673,"Delta":197898519},{"NoteNumber":43,"Velocity":72,"Duration":70860,"SoundDuration":70860,"Delta":197898519},{"NoteNumber":79,"Velocity":34,"Duration":97465,"SoundDuration":97465,"Delta":197993630},{"NoteNumber":41,"Velocity":71,"Duration":72644,"SoundDuration":72644,"Delta":198042363},{"NoteNumber":81,"Velocity":37,"Duration":95096,"SoundDuration":95096,"Delta":198091096},{"NoteNumber":79,"Velocity":33,"Duration":96444,"SoundDuration":96444,"Delta":198186193},{"NoteNumber":40,"Velocity":75,"Duration":72193,"SoundDuration":72193,"Delta":198186193},{"NoteNumber":81,"Velocity":36,"Duration":98904,"SoundDuration":98904,"Delta":198282637},{"NoteNumber":38,"Velocity":80,"Duration":75604,"SoundDuration":75604,"Delta":198331138},{"NoteNumber":79,"Velocity":32,"Duration":100806,"SoundDuration":100806,"Delta":198381542},{"NoteNumber":81,"Velocity":36,"Duration":102185,"SoundDuration":102185,"Delta":198482348},{"NoteNumber":36,"Velocity":95,"Duration":306622,"SoundDuration":306622,"Delta":198482348},{"NoteNumber":48,"Velocity":95,"Duration":306622,"SoundDuration":306622,"Delta":198482348},{"NoteNumber":79,"Velocity":32,"Duration":99112,"SoundDuration":99112,"Delta":198584534},{"NoteNumber":50,"Velocity":56,"Duration":75802,"SoundDuration":75802,"Delta":198634210},{"NoteNumber":81,"Velocity":37,"Duration":105324,"SoundDuration":105324,"Delta":198683646},{"NoteNumber":52,"Velocity":57,"Duration":78958,"SoundDuration":78958,"Delta":198710012},{"NoteNumber":79,"Velocity":33,"Duration":101705,"SoundDuration":101705,"Delta":198788971},{"NoteNumber":53,"Velocity":60,"Duration":76747,"SoundDuration":76747,"Delta":198788971},{"NoteNumber":55,"Velocity":60,"Duration":75615,"SoundDuration":75615,"Delta":198865719},{"NoteNumber":81,"Velocity":38,"Duration":101819,"SoundDuration":101819,"Delta":198890676},{"NoteNumber":57,"Velocity":62,"Duration":76742,"SoundDuration":76742,"Delta":198941335},{"NoteNumber":79,"Velocity":33,"Duration":101932,"SoundDuration":101932,"Delta":198992496},{"NoteNumber":59,"Velocity":63,"Duration":76351,"SoundDuration":76351,"Delta":199018077},{"NoteNumber":81,"Velocity":39,"Duration":96668,"SoundDuration":96668,"Delta":199094428},{"NoteNumber":91,"Velocity":90,"Duration":293239,"SoundDuration":293239,"Delta":199094428},{"NoteNumber":60,"Velocity":63,"Duration":145285,"SoundDuration":145285,"Delta":199094428},{"NoteNumber":79,"Velocity":35,"Duration":97697,"SoundDuration":97697,"Delta":199191097},{"NoteNumber":62,"Velocity":65,"Duration":73916,"SoundDuration":73916,"Delta":199239714},{"NoteNumber":81,"Velocity":40,"Duration":98873,"SoundDuration":98873,"Delta":199288794},{"NoteNumber":64,"Velocity":66,"Duration":74037,"SoundDuration":74037,"Delta":199313630},{"NoteNumber":79,"Velocity":36,"Duration":96661,"SoundDuration":96661,"Delta":199387668},{"NoteNumber":65,"Velocity":67,"Duration":72411,"SoundDuration":72411,"Delta":199387668},{"NoteNumber":67,"Velocity":69,"Duration":73687,"SoundDuration":73687,"Delta":199460079},{"NoteNumber":81,"Velocity":40,"Duration":98638,"SoundDuration":98638,"Delta":199484329},{"NoteNumber":69,"Velocity":70,"Duration":73223,"SoundDuration":73223,"Delta":199533766},{"NoteNumber":79,"Velocity":36,"Duration":95331,"SoundDuration":95331,"Delta":199582967},{"NoteNumber":71,"Velocity":71,"Duration":71309,"SoundDuration":71309,"Delta":199606990},{"NoteNumber":81,"Velocity":40,"Duration":91710,"SoundDuration":91710,"Delta":199678299},{"NoteNumber":91,"Velocity":92,"Duration":834137,"SoundDuration":834137,"Delta":199678299},{"NoteNumber":72,"Velocity":74,"Duration":68960,"SoundDuration":68960,"Delta":199678299},{"NoteNumber":79,"Velocity":37,"Duration":91504,"SoundDuration":91504,"Delta":199770009},{"NoteNumber":71,"Velocity":71,"Duration":69478,"SoundDuration":69478,"Delta":199815509},{"NoteNumber":81,"Velocity":40,"Duration":93686,"SoundDuration":93686,"Delta":199861514},{"NoteNumber":79,"Velocity":36,"Duration":91805,"SoundDuration":91805,"Delta":199955201},{"NoteNumber":69,"Velocity":71,"Duration":68854,"SoundDuration":68854,"Delta":199955201},{"NoteNumber":81,"Velocity":40,"Duration":93473,"SoundDuration":93473,"Delta":200047006},{"NoteNumber":67,"Velocity":71,"Duration":70317,"SoundDuration":70317,"Delta":200093531},{"NoteNumber":79,"Velocity":36,"Duration":92537,"SoundDuration":92537,"Delta":200140480},{"NoteNumber":81,"Velocity":39,"Duration":92431,"SoundDuration":92431,"Delta":200233017},{"NoteNumber":65,"Velocity":72,"Duration":68957,"SoundDuration":68957,"Delta":200233017},{"NoteNumber":79,"Velocity":36,"Duration":94659,"SoundDuration":94659,"Delta":200325448},{"NoteNumber":64,"Velocity":69,"Duration":70749,"SoundDuration":70749,"Delta":200372833},{"NoteNumber":81,"Velocity":38,"Duration":92328,"SoundDuration":92328,"Delta":200420108},{"NoteNumber":79,"Velocity":32,"Duration":91802,"SoundDuration":91802,"Delta":200512436},{"NoteNumber":88,"Velocity":84,"Duration":277379,"SoundDuration":277379,"Delta":200512436},{"NoteNumber":62,"Velocity":69,"Duration":68646,"SoundDuration":68646,"Delta":200512436},{"NoteNumber":81,"Velocity":37,"Duration":92950,"SoundDuration":92950,"Delta":200604239},{"NoteNumber":60,"Velocity":67,"Duration":69577,"SoundDuration":69577,"Delta":200650768},{"NoteNumber":79,"Velocity":33,"Duration":92626,"SoundDuration":92626,"Delta":200697189},{"NoteNumber":81,"Velocity":39,"Duration":89607,"SoundDuration":89607,"Delta":200789816},{"NoteNumber":86,"Velocity":90,"Duration":541055,"SoundDuration":541055,"Delta":200789816},{"NoteNumber":59,"Velocity":73,"Duration":67351,"SoundDuration":67351,"Delta":200789816},{"NoteNumber":79,"Velocity":32,"Duration":89221,"SoundDuration":89221,"Delta":200879424},{"NoteNumber":60,"Velocity":69,"Duration":67556,"SoundDuration":67556,"Delta":200923839},{"NoteNumber":81,"Velocity":36,"Duration":90799,"SoundDuration":90799,"Delta":200968645},{"NoteNumber":79,"Velocity":31,"Duration":89607,"SoundDuration":89607,"Delta":201059444},{"NoteNumber":59,"Velocity":69,"Duration":67352,"SoundDuration":67352,"Delta":201059444},{"NoteNumber":81,"Velocity":36,"Duration":90006,"SoundDuration":90006,"Delta":201149052},{"NoteNumber":57,"Velocity":69,"Duration":68147,"SoundDuration":68147,"Delta":201193661},{"NoteNumber":79,"Velocity":30,"Duration":91813,"SoundDuration":91813,"Delta":201239058},{"NoteNumber":81,"Velocity":36,"Duration":92320,"SoundDuration":92320,"Delta":201330872},{"NoteNumber":79,"Velocity":82,"Duration":80844,"SoundDuration":80844,"Delta":201330872},{"NoteNumber":55,"Velocity":75,"Duration":69369,"SoundDuration":69369,"Delta":201330872},{"NoteNumber":79,"Velocity":31,"Duration":91390,"SoundDuration":91390,"Delta":201423192},{"NoteNumber":53,"Velocity":69,"Duration":68852,"SoundDuration":68852,"Delta":201468887},{"NoteNumber":81,"Velocity":36,"Duration":92842,"SoundDuration":92842,"Delta":201514583},{"NoteNumber":79,"Velocity":34,"Duration":91498,"SoundDuration":91498,"Delta":201607425},{"NoteNumber":52,"Velocity":69,"Duration":68748,"SoundDuration":68748,"Delta":201607425},{"NoteNumber":78,"Velocity":36,"Duration":92626,"SoundDuration":92626,"Delta":201698924},{"NoteNumber":50,"Velocity":69,"Duration":69263,"SoundDuration":69263,"Delta":201745238},{"NoteNumber":79,"Velocity":31,"Duration":91802,"SoundDuration":91802,"Delta":201791551},{"NoteNumber":84,"Velocity":86,"Duration":285714,"SoundDuration":285714,"Delta":201883353},{"NoteNumber":48,"Velocity":75,"Duration":285714,"SoundDuration":285714,"Delta":201883353},{"NoteNumber":31,"Velocity":77,"Duration":139405,"SoundDuration":139405,"Delta":202169067},{"NoteNumber":43,"Velocity":77,"Duration":139405,"SoundDuration":139405,"Delta":202169067},{"NoteNumber":55,"Velocity":67,"Duration":139405,"SoundDuration":139405,"Delta":202308473},{"NoteNumber":39,"Velocity":62,"Duration":138095,"SoundDuration":138095,"Delta":202447878},{"NoteNumber":51,"Velocity":74,"Duration":138095,"SoundDuration":138095,"Delta":202447878},{"NoteNumber":63,"Velocity":62,"Duration":138096,"SoundDuration":138096,"Delta":202585974},{"NoteNumber":38,"Velocity":62,"Duration":138095,"SoundDuration":138095,"Delta":202724070},{"NoteNumber":50,"Velocity":74,"Duration":138095,"SoundDuration":138095,"Delta":202724070},{"NoteNumber":62,"Velocity":62,"Duration":138095,"SoundDuration":138095,"Delta":202862166},{"NoteNumber":36,"Velocity":65,"Duration":139405,"SoundDuration":139405,"Delta":203000262},{"NoteNumber":48,"Velocity":77,"Duration":139405,"SoundDuration":139405,"Delta":203000262},{"NoteNumber":60,"Velocity":65,"Duration":139405,"SoundDuration":139405,"Delta":203139667},{"NoteNumber":31,"Velocity":61,"Duration":139405,"SoundDuration":139405,"Delta":203279072},{"NoteNumber":43,"Velocity":72,"Duration":139405,"SoundDuration":139405,"Delta":203279072},{"NoteNumber":55,"Velocity":61,"Duration":139405,"SoundDuration":139405,"Delta":203418478},{"NoteNumber":33,"Velocity":62,"Duration":139405,"SoundDuration":139405,"Delta":203557883},{"NoteNumber":45,"Velocity":73,"Duration":139405,"SoundDuration":139405,"Delta":203557883},{"NoteNumber":57,"Velocity":62,"Duration":139405,"SoundDuration":139405,"Delta":203697288},{"NoteNumber":35,"Velocity":62,"Duration":143458,"SoundDuration":143458,"Delta":203836693},{"NoteNumber":47,"Velocity":73,"Duration":143458,"SoundDuration":143458,"Delta":203836693},{"NoteNumber":59,"Velocity":62,"Duration":143577,"SoundDuration":143577,"Delta":203980152},{"NoteNumber":36,"Velocity":65,"Duration":142085,"SoundDuration":142085,"Delta":204123729},{"NoteNumber":48,"Velocity":77,"Duration":142085,"SoundDuration":142085,"Delta":204123729},{"NoteNumber":60,"Velocity":65,"Duration":142085,"SoundDuration":142085,"Delta":204265815},{"NoteNumber":36,"Velocity":61,"Duration":142085,"SoundDuration":142085,"Delta":204407901},{"NoteNumber":48,"Velocity":72,"Duration":142085,"SoundDuration":142085,"Delta":204407901},{"NoteNumber":60,"Velocity":61,"Duration":142085,"SoundDuration":142085,"Delta":204549987},{"NoteNumber":44,"Velocity":66,"Duration":138095,"SoundDuration":138095,"Delta":204692072},{"NoteNumber":56,"Velocity":78,"Duration":138095,"SoundDuration":138095,"Delta":204692072},{"NoteNumber":68,"Velocity":66,"Duration":138096,"SoundDuration":138096,"Delta":204830168},{"NoteNumber":43,"Velocity":62,"Duration":138095,"SoundDuration":138095,"Delta":204968264},{"NoteNumber":55,"Velocity":73,"Duration":138095,"SoundDuration":138095,"Delta":204968264},{"NoteNumber":67,"Velocity":62,"Duration":138095,"SoundDuration":138095,"Delta":205106360},{"NoteNumber":41,"Velocity":68,"Duration":138734,"SoundDuration":138734,"Delta":205244456},{"NoteNumber":53,"Velocity":80,"Duration":138734,"SoundDuration":138734,"Delta":205244456},{"NoteNumber":65,"Velocity":68,"Duration":138734,"SoundDuration":138734,"Delta":205383191},{"NoteNumber":36,"Velocity":63,"Duration":138734,"SoundDuration":138734,"Delta":205521926},{"NoteNumber":48,"Velocity":75,"Duration":138734,"SoundDuration":138734,"Delta":205521926},{"NoteNumber":60,"Velocity":63,"Duration":138520,"SoundDuration":138520,"Delta":205660661},{"NoteNumber":38,"Velocity":63,"Duration":137880,"SoundDuration":137880,"Delta":205799181},{"NoteNumber":50,"Velocity":75,"Duration":137880,"SoundDuration":137880,"Delta":205799181},{"NoteNumber":62,"Velocity":63,"Duration":138096,"SoundDuration":138096,"Delta":205937062},{"NoteNumber":40,"Velocity":63,"Duration":142775,"SoundDuration":142775,"Delta":206075158},{"NoteNumber":52,"Velocity":75,"Duration":142775,"SoundDuration":142775,"Delta":206075158},{"NoteNumber":64,"Velocity":63,"Duration":142775,"SoundDuration":142775,"Delta":206217934},{"NoteNumber":41,"Velocity":66,"Duration":142775,"SoundDuration":142775,"Delta":206360709},{"NoteNumber":53,"Velocity":78,"Duration":142775,"SoundDuration":142775,"Delta":206360709},{"NoteNumber":65,"Velocity":66,"Duration":142775,"SoundDuration":142775,"Delta":206503485},{"NoteNumber":41,"Velocity":62,"Duration":142775,"SoundDuration":142775,"Delta":206646260},{"NoteNumber":53,"Velocity":74,"Duration":142775,"SoundDuration":142775,"Delta":206646260},{"NoteNumber":65,"Velocity":62,"Duration":143350,"SoundDuration":143350,"Delta":206789036},{"NoteNumber":49,"Velocity":68,"Duration":140069,"SoundDuration":140069,"Delta":206932386},{"NoteNumber":61,"Velocity":80,"Duration":140069,"SoundDuration":140069,"Delta":206932386},{"NoteNumber":73,"Velocity":68,"Duration":140068,"SoundDuration":140068,"Delta":207072455},{"NoteNumber":48,"Velocity":64,"Duration":140069,"SoundDuration":140069,"Delta":207212524},{"NoteNumber":60,"Velocity":76,"Duration":140069,"SoundDuration":140069,"Delta":207212524},{"NoteNumber":72,"Velocity":64,"Duration":140068,"SoundDuration":140068,"Delta":207352593},{"NoteNumber":46,"Velocity":68,"Duration":139405,"SoundDuration":139405,"Delta":207492662},{"NoteNumber":58,"Velocity":80,"Duration":139405,"SoundDuration":139405,"Delta":207492662},{"NoteNumber":70,"Velocity":68,"Duration":139405,"SoundDuration":139405,"Delta":207632067},{"NoteNumber":44,"Velocity":62,"Duration":139405,"SoundDuration":139405,"Delta":207771473},{"NoteNumber":56,"Velocity":73,"Duration":139405,"SoundDuration":139405,"Delta":207771473},{"NoteNumber":68,"Velocity":62,"Duration":139405,"SoundDuration":139405,"Delta":207910878},{"NoteNumber":43,"Velocity":62,"Duration":139405,"SoundDuration":139405,"Delta":208050283},{"NoteNumber":55,"Velocity":74,"Duration":139405,"SoundDuration":139405,"Delta":208050283},{"NoteNumber":67,"Velocity":62,"Duration":139405,"SoundDuration":139405,"Delta":208189688},{"NoteNumber":41,"Velocity":62,"Duration":139405,"SoundDuration":139405,"Delta":208329094},{"NoteNumber":53,"Velocity":74,"Duration":139405,"SoundDuration":139405,"Delta":208329094},{"NoteNumber":65,"Velocity":62,"Duration":139405,"SoundDuration":139405,"Delta":208468499},{"NoteNumber":39,"Velocity":69,"Duration":139405,"SoundDuration":139405,"Delta":208607904},{"NoteNumber":51,"Velocity":82,"Duration":139405,"SoundDuration":139405,"Delta":208607904},{"NoteNumber":63,"Velocity":69,"Duration":139405,"SoundDuration":139405,"Delta":208747309},{"NoteNumber":49,"Velocity":75,"Duration":139405,"SoundDuration":139405,"Delta":208886715},{"NoteNumber":63,"Velocity":63,"Duration":139405,"SoundDuration":139405,"Delta":209026120},{"NoteNumber":48,"Velocity":75,"Duration":138095,"SoundDuration":138095,"Delta":209165525},{"NoteNumber":51,"Velocity":40,"Duration":138096,"SoundDuration":138096,"Delta":209303621},{"NoteNumber":55,"Velocity":40,"Duration":138096,"SoundDuration":138096,"Delta":209303621},{"NoteNumber":63,"Velocity":63,"Duration":138096,"SoundDuration":138096,"Delta":209303621},{"NoteNumber":46,"Velocity":75,"Duration":138095,"SoundDuration":138095,"Delta":209441717},{"NoteNumber":53,"Velocity":40,"Duration":138095,"SoundDuration":138095,"Delta":209579813},{"NoteNumber":56,"Velocity":50,"Duration":138095,"SoundDuration":138095,"Delta":209579813},{"NoteNumber":63,"Velocity":63,"Duration":138095,"SoundDuration":138095,"Delta":209579813},{"NoteNumber":44,"Velocity":84,"Duration":137450,"SoundDuration":137450,"Delta":209717909},{"NoteNumber":55,"Velocity":44,"Duration":137880,"SoundDuration":137880,"Delta":209855360},{"NoteNumber":58,"Velocity":56,"Duration":137880,"SoundDuration":137880,"Delta":209855360},{"NoteNumber":63,"Velocity":71,"Duration":137880,"SoundDuration":137880,"Delta":209855360},{"NoteNumber":43,"Velocity":76,"Duration":138521,"SoundDuration":138521,"Delta":209993241},{"NoteNumber":56,"Velocity":40,"Duration":139181,"SoundDuration":139181,"Delta":210131763},{"NoteNumber":60,"Velocity":51,"Duration":139181,"SoundDuration":139181,"Delta":210131763},{"NoteNumber":63,"Velocity":64,"Duration":139181,"SoundDuration":139181,"Delta":210131763},{"NoteNumber":41,"Velocity":76,"Duration":139847,"SoundDuration":139847,"Delta":210270944},{"NoteNumber":58,"Velocity":40,"Duration":140498,"SoundDuration":140498,"Delta":210410792},{"NoteNumber":61,"Velocity":51,"Duration":140498,"SoundDuration":140498,"Delta":210410792},{"NoteNumber":63,"Velocity":64,"Duration":140498,"SoundDuration":140498,"Delta":210410792},{"NoteNumber":39,"Velocity":76,"Duration":141172,"SoundDuration":141172,"Delta":210551290},{"NoteNumber":55,"Velocity":40,"Duration":141858,"SoundDuration":141858,"Delta":210692463},{"NoteNumber":58,"Velocity":51,"Duration":141858,"SoundDuration":141858,"Delta":210692463},{"NoteNumber":63,"Velocity":64,"Duration":141858,"SoundDuration":141858,"Delta":210692463},{"NoteNumber":60,"Velocity":82,"Duration":285714,"SoundDuration":285714,"Delta":210834321},{"NoteNumber":44,"Velocity":84,"Duration":285714,"SoundDuration":285714,"Delta":210834321},{"NoteNumber":55,"Velocity":79,"Duration":139405,"SoundDuration":139405,"Delta":211120036},{"NoteNumber":67,"Velocity":79,"Duration":139405,"SoundDuration":139405,"Delta":211120036},{"NoteNumber":35,"Velocity":63,"Duration":92936,"SoundDuration":92936,"Delta":211120036},{"NoteNumber":33,"Velocity":56,"Duration":92936,"SoundDuration":92936,"Delta":211212973},{"NoteNumber":35,"Velocity":57,"Duration":92936,"SoundDuration":92936,"Delta":211305909},{"NoteNumber":63,"Velocity":62,"Duration":138095,"SoundDuration":138095,"Delta":211398846},{"NoteNumber":75,"Velocity":74,"Duration":138095,"SoundDuration":138095,"Delta":211398846},{"NoteNumber":36,"Velocity":57,"Duration":92063,"SoundDuration":92063,"Delta":211398846},{"NoteNumber":39,"Velocity":58,"Duration":92063,"SoundDuration":92063,"Delta":211490910},{"NoteNumber":41,"Velocity":59,"Duration":92064,"SoundDuration":92064,"Delta":211582974},{"NoteNumber":62,"Velocity":62,"Duration":138095,"SoundDuration":138095,"Delta":211675038},{"NoteNumber":74,"Velocity":74,"Duration":138095,"SoundDuration":138095,"Delta":211675038},{"NoteNumber":43,"Velocity":60,"Duration":92063,"SoundDuration":92063,"Delta":211675038},{"NoteNumber":45,"Velocity":62,"Duration":92063,"SoundDuration":92063,"Delta":211767102},{"NoteNumber":47,"Velocity":63,"Duration":92063,"SoundDuration":92063,"Delta":211859166},{"NoteNumber":60,"Velocity":65,"Duration":139405,"SoundDuration":139405,"Delta":211951230},{"NoteNumber":72,"Velocity":77,"Duration":139405,"SoundDuration":139405,"Delta":211951230},{"NoteNumber":48,"Velocity":60,"Duration":92936,"SoundDuration":92936,"Delta":211951230},{"NoteNumber":50,"Velocity":62,"Duration":92936,"SoundDuration":92936,"Delta":212044167},{"NoteNumber":51,"Velocity":63,"Duration":92936,"SoundDuration":92936,"Delta":212137104},{"NoteNumber":55,"Velocity":61,"Duration":139405,"SoundDuration":139405,"Delta":212230041},{"NoteNumber":67,"Velocity":72,"Duration":139405,"SoundDuration":139405,"Delta":212230041},{"NoteNumber":53,"Velocity":65,"Duration":92936,"SoundDuration":92936,"Delta":212230041},{"NoteNumber":51,"Velocity":63,"Duration":92936,"SoundDuration":92936,"Delta":212322978},{"NoteNumber":50,"Velocity":62,"Duration":92936,"SoundDuration":92936,"Delta":212415914},{"NoteNumber":57,"Velocity":62,"Duration":139405,"SoundDuration":139405,"Delta":212508851},{"NoteNumber":69,"Velocity":73,"Duration":139405,"SoundDuration":139405,"Delta":212508851},{"NoteNumber":48,"Velocity":63,"Duration":92936,"SoundDuration":92936,"Delta":212508851},{"NoteNumber":50,"Velocity":62,"Duration":92936,"SoundDuration":92936,"Delta":212601788},{"NoteNumber":51,"Velocity":63,"Duration":92936,"SoundDuration":92936,"Delta":212694725},{"NoteNumber":59,"Velocity":62,"Duration":143458,"SoundDuration":143458,"Delta":212787662},{"NoteNumber":71,"Velocity":73,"Duration":143458,"SoundDuration":143458,"Delta":212787662},{"NoteNumber":53,"Velocity":65,"Duration":95638,"SoundDuration":95638,"Delta":212787662},{"NoteNumber":51,"Velocity":64,"Duration":95638,"SoundDuration":95638,"Delta":212883301},{"NoteNumber":50,"Velocity":63,"Duration":95758,"SoundDuration":95758,"Delta":212978939},{"NoteNumber":60,"Velocity":65,"Duration":142085,"SoundDuration":142085,"Delta":213074698},{"NoteNumber":72,"Velocity":77,"Duration":142085,"SoundDuration":142085,"Delta":213074698},{"NoteNumber":48,"Velocity":68,"Duration":284171,"SoundDuration":284171,"Delta":213074698},{"NoteNumber":60,"Velocity":61,"Duration":142085,"SoundDuration":142085,"Delta":213358869},{"NoteNumber":72,"Velocity":72,"Duration":142085,"SoundDuration":142085,"Delta":213358869},{"NoteNumber":40,"Velocity":63,"Duration":94723,"SoundDuration":94723,"Delta":213358869},{"NoteNumber":38,"Velocity":56,"Duration":94723,"SoundDuration":94723,"Delta":213453593},{"NoteNumber":40,"Velocity":56,"Duration":94723,"SoundDuration":94723,"Delta":213548317},{"NoteNumber":68,"Velocity":66,"Duration":138095,"SoundDuration":138095,"Delta":213643041},{"NoteNumber":80,"Velocity":78,"Duration":138095,"SoundDuration":138095,"Delta":213643041},{"NoteNumber":41,"Velocity":54,"Duration":92063,"SoundDuration":92063,"Delta":213643041},{"NoteNumber":44,"Velocity":56,"Duration":92063,"SoundDuration":92063,"Delta":213735105},{"NoteNumber":46,"Velocity":58,"Duration":92064,"SoundDuration":92064,"Delta":213827169},{"NoteNumber":67,"Velocity":62,"Duration":138095,"SoundDuration":138095,"Delta":213919233},{"NoteNumber":79,"Velocity":73,"Duration":138095,"SoundDuration":138095,"Delta":213919233},{"NoteNumber":48,"Velocity":60,"Duration":92063,"SoundDuration":92063,"Delta":213919233},{"NoteNumber":50,"Velocity":62,"Duration":92063,"SoundDuration":92063,"Delta":214011297},{"NoteNumber":52,"Velocity":63,"Duration":92063,"SoundDuration":92063,"Delta":214103361},{"NoteNumber":65,"Velocity":68,"Duration":138734,"SoundDuration":138734,"Delta":214195425},{"NoteNumber":77,"Velocity":80,"Duration":138734,"SoundDuration":138734,"Delta":214195425},{"NoteNumber":53,"Velocity":65,"Duration":92489,"SoundDuration":92489,"Delta":214195425},{"NoteNumber":55,"Velocity":65,"Duration":92489,"SoundDuration":92489,"Delta":214287915},{"NoteNumber":56,"Velocity":66,"Duration":92489,"SoundDuration":92489,"Delta":214380404},{"NoteNumber":60,"Velocity":63,"Duration":138734,"SoundDuration":138734,"Delta":214472894},{"NoteNumber":72,"Velocity":75,"Duration":138734,"SoundDuration":138734,"Delta":214472894},{"NoteNumber":58,"Velocity":68,"Duration":92489,"SoundDuration":92489,"Delta":214472894},{"NoteNumber":56,"Velocity":65,"Duration":92489,"SoundDuration":92489,"Delta":214565384},{"NoteNumber":55,"Velocity":63,"Duration":92275,"SoundDuration":92275,"Delta":214657874},{"NoteNumber":62,"Velocity":63,"Duration":137880,"SoundDuration":137880,"Delta":214750150},{"NoteNumber":74,"Velocity":75,"Duration":137880,"SoundDuration":137880,"Delta":214750150},{"NoteNumber":53,"Velocity":60,"Duration":91848,"SoundDuration":91848,"Delta":214750150},{"NoteNumber":55,"Velocity":62,"Duration":92063,"SoundDuration":92063,"Delta":214841999},{"NoteNumber":56,"Velocity":64,"Duration":92064,"SoundDuration":92064,"Delta":214934063},{"NoteNumber":64,"Velocity":63,"Duration":142775,"SoundDuration":142775,"Delta":215026127},{"NoteNumber":76,"Velocity":75,"Duration":142775,"SoundDuration":142775,"Delta":215026127},{"NoteNumber":58,"Velocity":66,"Duration":95183,"SoundDuration":95183,"Delta":215026127},{"NoteNumber":56,"Velocity":64,"Duration":95183,"SoundDuration":95183,"Delta":215121310},{"NoteNumber":55,"Velocity":63,"Duration":95183,"SoundDuration":95183,"Delta":215216494},{"NoteNumber":65,"Velocity":66,"Duration":142775,"SoundDuration":142775,"Delta":215311678},{"NoteNumber":77,"Velocity":78,"Duration":142775,"SoundDuration":142775,"Delta":215311678},{"NoteNumber":53,"Velocity":67,"Duration":285550,"SoundDuration":285550,"Delta":215311678},{"NoteNumber":65,"Velocity":62,"Duration":142775,"SoundDuration":142775,"Delta":215597229},{"NoteNumber":77,"Velocity":74,"Duration":142775,"SoundDuration":142775,"Delta":215597229},{"NoteNumber":45,"Velocity":63,"Duration":95183,"SoundDuration":95183,"Delta":215597229},{"NoteNumber":43,"Velocity":58,"Duration":95183,"SoundDuration":95183,"Delta":215692412},{"NoteNumber":45,"Velocity":58,"Duration":95758,"SoundDuration":95758,"Delta":215787596},{"NoteNumber":73,"Velocity":68,"Duration":140069,"SoundDuration":140069,"Delta":215883354},{"NoteNumber":85,"Velocity":80,"Duration":140069,"SoundDuration":140069,"Delta":215883354},{"NoteNumber":46,"Velocity":63,"Duration":93379,"SoundDuration":93379,"Delta":215883354},{"NoteNumber":48,"Velocity":58,"Duration":93379,"SoundDuration":93379,"Delta":215976734},{"NoteNumber":46,"Velocity":58,"Duration":93379,"SoundDuration":93379,"Delta":216070113},{"NoteNumber":72,"Velocity":64,"Duration":140069,"SoundDuration":140069,"Delta":216163492},{"NoteNumber":84,"Velocity":76,"Duration":140069,"SoundDuration":140069,"Delta":216163492},{"NoteNumber":45,"Velocity":63,"Duration":93379,"SoundDuration":93379,"Delta":216163492},{"NoteNumber":43,"Velocity":60,"Duration":93379,"SoundDuration":93379,"Delta":216256872},{"NoteNumber":45,"Velocity":60,"Duration":93379,"SoundDuration":93379,"Delta":216350251},{"NoteNumber":70,"Velocity":68,"Duration":139405,"SoundDuration":139405,"Delta":216443630},{"NoteNumber":82,"Velocity":80,"Duration":139405,"SoundDuration":139405,"Delta":216443630},{"NoteNumber":46,"Velocity":59,"Duration":92936,"SoundDuration":92936,"Delta":216443630},{"NoteNumber":45,"Velocity":59,"Duration":92936,"SoundDuration":92936,"Delta":216536567},{"NoteNumber":46,"Velocity":60,"Duration":92936,"SoundDuration":92936,"Delta":216629504},{"NoteNumber":68,"Velocity":62,"Duration":139405,"SoundDuration":139405,"Delta":216722441},{"NoteNumber":80,"Velocity":73,"Duration":139405,"SoundDuration":139405,"Delta":216722441},{"NoteNumber":48,"Velocity":61,"Duration":92936,"SoundDuration":92936,"Delta":216722441},{"NoteNumber":47,"Velocity":59,"Duration":92936,"SoundDuration":92936,"Delta":216815378},{"NoteNumber":48,"Velocity":59,"Duration":92936,"SoundDuration":92936,"Delta":216908315},{"NoteNumber":67,"Velocity":62,"Duration":139405,"SoundDuration":139405,"Delta":217001251},{"NoteNumber":79,"Velocity":74,"Duration":139405,"SoundDuration":139405,"Delta":217001251},{"NoteNumber":49,"Velocity":63,"Duration":92936,"SoundDuration":92936,"Delta":217001251},{"NoteNumber":48,"Velocity":61,"Duration":92936,"SoundDuration":92936,"Delta":217094188},{"NoteNumber":49,"Velocity":61,"Duration":92936,"SoundDuration":92936,"Delta":217187125},{"NoteNumber":65,"Velocity":62,"Duration":139405,"SoundDuration":139405,"Delta":217280062},{"NoteNumber":77,"Velocity":74,"Duration":139405,"SoundDuration":139405,"Delta":217280062},{"NoteNumber":50,"Velocity":64,"Duration":92936,"SoundDuration":92936,"Delta":217280062},{"NoteNumber":48,"Velocity":62,"Duration":92936,"SoundDuration":92936,"Delta":217372999},{"NoteNumber":50,"Velocity":62,"Duration":92936,"SoundDuration":92936,"Delta":217465936},{"NoteNumber":63,"Velocity":69,"Duration":139405,"SoundDuration":139405,"Delta":217558872},{"NoteNumber":75,"Velocity":82,"Duration":139405,"SoundDuration":139405,"Delta":217558872},{"NoteNumber":51,"Velocity":67,"Duration":92936,"SoundDuration":92936,"Delta":217558872},{"NoteNumber":53,"Velocity":63,"Duration":92936,"SoundDuration":92936,"Delta":217651809},{"NoteNumber":51,"Velocity":63,"Duration":92936,"SoundDuration":92936,"Delta":217744746},{"NoteNumber":63,"Velocity":63,"Duration":139405,"SoundDuration":139405,"Delta":217837683},{"NoteNumber":75,"Velocity":75,"Duration":139405,"SoundDuration":139405,"Delta":217837683},{"NoteNumber":49,"Velocity":67,"Duration":92936,"SoundDuration":92936,"Delta":217837683},{"NoteNumber":51,"Velocity":63,"Duration":92936,"SoundDuration":92936,"Delta":217930620},{"NoteNumber":49,"Velocity":63,"Duration":92936,"SoundDuration":92936,"Delta":218023557},{"NoteNumber":63,"Velocity":60,"Duration":138095,"SoundDuration":138095,"Delta":218116493},{"NoteNumber":67,"Velocity":60,"Duration":138095,"SoundDuration":138095,"Delta":218116493},{"NoteNumber":75,"Velocity":75,"Duration":138095,"SoundDuration":138095,"Delta":218116493},{"NoteNumber":48,"Velocity":66,"Duration":92063,"SoundDuration":92063,"Delta":218116493},{"NoteNumber":49,"Velocity":63,"Duration":92063,"SoundDuration":92063,"Delta":218208557},{"NoteNumber":48,"Velocity":63,"Duration":92064,"SoundDuration":92064,"Delta":218300621},{"NoteNumber":65,"Velocity":60,"Duration":138095,"SoundDuration":138095,"Delta":218392685},{"NoteNumber":68,"Velocity":60,"Duration":138095,"SoundDuration":138095,"Delta":218392685},{"NoteNumber":75,"Velocity":75,"Duration":138095,"SoundDuration":138095,"Delta":218392685},{"NoteNumber":46,"Velocity":66,"Duration":92063,"SoundDuration":92063,"Delta":218392685},{"NoteNumber":48,"Velocity":62,"Duration":92063,"SoundDuration":92063,"Delta":218484749},{"NoteNumber":46,"Velocity":62,"Duration":92063,"SoundDuration":92063,"Delta":218576813},{"NoteNumber":67,"Velocity":67,"Duration":137450,"SoundDuration":137450,"Delta":218668877},{"NoteNumber":70,"Velocity":67,"Duration":137450,"SoundDuration":137450,"Delta":218668877},{"NoteNumber":75,"Velocity":84,"Duration":137450,"SoundDuration":137450,"Delta":218668877},{"NoteNumber":44,"Velocity":64,"Duration":91633,"SoundDuration":91633,"Delta":218668877},{"NoteNumber":46,"Velocity":62,"Duration":91633,"SoundDuration":91633,"Delta":218760511},{"NoteNumber":44,"Velocity":62,"Duration":92063,"SoundDuration":92063,"Delta":218852145},{"NoteNumber":68,"Velocity":60,"Duration":138521,"SoundDuration":138521,"Delta":218944209},{"NoteNumber":72,"Velocity":60,"Duration":138521,"SoundDuration":138521,"Delta":218944209},{"NoteNumber":75,"Velocity":76,"Duration":138521,"SoundDuration":138521,"Delta":218944209},{"NoteNumber":43,"Velocity":64,"Duration":92276,"SoundDuration":92276,"Delta":218944209},{"NoteNumber":44,"Velocity":61,"Duration":92489,"SoundDuration":92489,"Delta":219036486},{"NoteNumber":43,"Velocity":61,"Duration":92936,"SoundDuration":92936,"Delta":219128976},{"NoteNumber":70,"Velocity":60,"Duration":139847,"SoundDuration":139847,"Delta":219221913},{"NoteNumber":73,"Velocity":60,"Duration":139847,"SoundDuration":139847,"Delta":219221913},{"NoteNumber":75,"Velocity":76,"Duration":139847,"SoundDuration":139847,"Delta":219221913},{"NoteNumber":41,"Velocity":63,"Duration":93158,"SoundDuration":93158,"Delta":219221913},{"NoteNumber":43,"Velocity":62,"Duration":93379,"SoundDuration":93379,"Delta":219315071},{"NoteNumber":41,"Velocity":62,"Duration":93808,"SoundDuration":93808,"Delta":219408450},{"NoteNumber":67,"Velocity":60,"Duration":140713,"SoundDuration":140713,"Delta":219502259},{"NoteNumber":70,"Velocity":60,"Duration":140713,"SoundDuration":140713,"Delta":219502259},{"NoteNumber":75,"Velocity":76,"Duration":140713,"SoundDuration":140713,"Delta":219502259},{"NoteNumber":39,"Velocity":63,"Duration":93808,"SoundDuration":93808,"Delta":219502259},{"NoteNumber":41,"Velocity":60,"Duration":93808,"SoundDuration":93808,"Delta":219596067},{"NoteNumber":39,"Velocity":60,"Duration":93808,"SoundDuration":93808,"Delta":219689876},{"NoteNumber":68,"Velocity":71,"Duration":285714,"SoundDuration":285714,"Delta":219783685},{"NoteNumber":72,"Velocity":76,"Duration":285714,"SoundDuration":285714,"Delta":219783685},{"NoteNumber":44,"Velocity":77,"Duration":142857,"SoundDuration":142857,"Delta":219783685},{"NoteNumber":67,"Velocity":55,"Duration":92936,"SoundDuration":92936,"Delta":220069399},{"NoteNumber":39,"Velocity":79,"Duration":139405,"SoundDuration":139405,"Delta":220069399},{"NoteNumber":51,"Velocity":79,"Duration":139405,"SoundDuration":139405,"Delta":220069399},{"NoteNumber":65,"Velocity":56,"Duration":92936,"SoundDuration":92936,"Delta":220162336},{"NoteNumber":67,"Velocity":57,"Duration":92936,"SoundDuration":92936,"Delta":220255273},{"NoteNumber":68,"Velocity":58,"Duration":92063,"SoundDuration":92063,"Delta":220348210},{"NoteNumber":48,"Velocity":62,"Duration":138095,"SoundDuration":138095,"Delta":220348210},{"NoteNumber":60,"Velocity":74,"Duration":138095,"SoundDuration":138095,"Delta":220348210},{"NoteNumber":72,"Velocity":60,"Duration":92063,"SoundDuration":92063,"Delta":220440274},{"NoteNumber":73,"Velocity":61,"Duration":92064,"SoundDuration":92064,"Delta":220532338},{"NoteNumber":75,"Velocity":62,"Duration":92063,"SoundDuration":92063,"Delta":220624402},{"NoteNumber":46,"Velocity":62,"Duration":138095,"SoundDuration":138095,"Delta":220624402},{"NoteNumber":58,"Velocity":74,"Duration":138095,"SoundDuration":138095,"Delta":220624402},{"NoteNumber":77,"Velocity":63,"Duration":92063,"SoundDuration":92063,"Delta":220716466},{"NoteNumber":79,"Velocity":63,"Duration":92063,"SoundDuration":92063,"Delta":220808530},{"NoteNumber":80,"Velocity":63,"Duration":92936,"SoundDuration":92936,"Delta":220900594},{"NoteNumber":44,"Velocity":65,"Duration":139405,"SoundDuration":139405,"Delta":220900594},{"NoteNumber":56,"Velocity":77,"Duration":139405,"SoundDuration":139405,"Delta":220900594},{"NoteNumber":82,"Velocity":63,"Duration":92936,"SoundDuration":92936,"Delta":220993531},{"NoteNumber":84,"Velocity":65,"Duration":92936,"SoundDuration":92936,"Delta":221086467},{"NoteNumber":85,"Velocity":66,"Duration":92936,"SoundDuration":92936,"Delta":221179404},{"NoteNumber":39,"Velocity":61,"Duration":139405,"SoundDuration":139405,"Delta":221179404},{"NoteNumber":51,"Velocity":72,"Duration":139405,"SoundDuration":139405,"Delta":221179404},{"NoteNumber":84,"Velocity":63,"Duration":92936,"SoundDuration":92936,"Delta":221272341},{"NoteNumber":82,"Velocity":63,"Duration":92936,"SoundDuration":92936,"Delta":221365278},{"NoteNumber":85,"Velocity":66,"Duration":92936,"SoundDuration":92936,"Delta":221458215},{"NoteNumber":41,"Velocity":62,"Duration":139405,"SoundDuration":139405,"Delta":221458215},{"NoteNumber":53,"Velocity":73,"Duration":139405,"SoundDuration":139405,"Delta":221458215},{"NoteNumber":84,"Velocity":63,"Duration":92936,"SoundDuration":92936,"Delta":221551152},{"NoteNumber":82,"Velocity":63,"Duration":92936,"SoundDuration":92936,"Delta":221644088},{"NoteNumber":85,"Velocity":67,"Duration":95638,"SoundDuration":95638,"Delta":221737025},{"NoteNumber":43,"Velocity":62,"Duration":143458,"SoundDuration":143458,"Delta":221737025},{"NoteNumber":55,"Velocity":73,"Duration":143458,"SoundDuration":143458,"Delta":221737025},{"NoteNumber":84,"Velocity":63,"Duration":95638,"SoundDuration":95638,"Delta":221832664},{"NoteNumber":82,"Velocity":63,"Duration":95758,"SoundDuration":95758,"Delta":221928303},{"NoteNumber":80,"Velocity":76,"Duration":284171,"SoundDuration":284171,"Delta":222024061},{"NoteNumber":44,"Velocity":65,"Duration":142085,"SoundDuration":142085,"Delta":222024061},{"NoteNumber":56,"Velocity":77,"Duration":142085,"SoundDuration":142085,"Delta":222024061},{"NoteNumber":64,"Velocity":55,"Duration":94723,"SoundDuration":94723,"Delta":222308233},{"NoteNumber":36,"Velocity":61,"Duration":142085,"SoundDuration":142085,"Delta":222308233},{"NoteNumber":48,"Velocity":72,"Duration":142085,"SoundDuration":142085,"Delta":222308233},{"NoteNumber":62,"Velocity":56,"Duration":94723,"SoundDuration":94723,"Delta":222402957},{"NoteNumber":64,"Velocity":57,"Duration":94723,"SoundDuration":94723,"Delta":222497680},{"NoteNumber":65,"Velocity":58,"Duration":92063,"SoundDuration":92063,"Delta":222592404},{"NoteNumber":44,"Velocity":66,"Duration":138095,"SoundDuration":138095,"Delta":222592404},{"NoteNumber":56,"Velocity":78,"Duration":138095,"SoundDuration":138095,"Delta":222592404},{"NoteNumber":68,"Velocity":60,"Duration":92063,"SoundDuration":92063,"Delta":222684468},{"NoteNumber":70,"Velocity":61,"Duration":92064,"SoundDuration":92064,"Delta":222776532},{"NoteNumber":72,"Velocity":62,"Duration":92063,"SoundDuration":92063,"Delta":222868596},{"NoteNumber":43,"Velocity":62,"Duration":138095,"SoundDuration":138095,"Delta":222868596},{"NoteNumber":55,"Velocity":73,"Duration":138095,"SoundDuration":138095,"Delta":222868596},{"NoteNumber":74,"Velocity":63,"Duration":92063,"SoundDuration":92063,"Delta":222960660},{"NoteNumber":76,"Velocity":63,"Duration":92063,"SoundDuration":92063,"Delta":223052724},{"NoteNumber":77,"Velocity":63,"Duration":92489,"SoundDuration":92489,"Delta":223144788},{"NoteNumber":41,"Velocity":68,"Duration":138734,"SoundDuration":138734,"Delta":223144788},{"NoteNumber":53,"Velocity":80,"Duration":138734,"SoundDuration":138734,"Delta":223144788},{"NoteNumber":79,"Velocity":63,"Duration":92489,"SoundDuration":92489,"Delta":223237278},{"NoteNumber":80,"Velocity":65,"Duration":92489,"SoundDuration":92489,"Delta":223329768},{"NoteNumber":82,"Velocity":66,"Duration":92489,"SoundDuration":92489,"Delta":223422258},{"NoteNumber":36,"Velocity":63,"Duration":138734,"SoundDuration":138734,"Delta":223422258},{"NoteNumber":48,"Velocity":75,"Duration":138734,"SoundDuration":138734,"Delta":223422258},{"NoteNumber":80,"Velocity":63,"Duration":92489,"SoundDuration":92489,"Delta":223514748},{"NoteNumber":79,"Velocity":63,"Duration":92275,"SoundDuration":92275,"Delta":223607237},{"NoteNumber":82,"Velocity":66,"Duration":91848,"SoundDuration":91848,"Delta":223699513},{"NoteNumber":38,"Velocity":63,"Duration":137880,"SoundDuration":137880,"Delta":223699513},{"NoteNumber":50,"Velocity":75,"Duration":137880,"SoundDuration":137880,"Delta":223699513},{"NoteNumber":80,"Velocity":63,"Duration":92063,"SoundDuration":92063,"Delta":223791362},{"NoteNumber":79,"Velocity":63,"Duration":92064,"SoundDuration":92064,"Delta":223883426},{"NoteNumber":82,"Velocity":67,"Duration":95183,"SoundDuration":95183,"Delta":223975490},{"NoteNumber":40,"Velocity":63,"Duration":142775,"SoundDuration":142775,"Delta":223975490},{"NoteNumber":52,"Velocity":75,"Duration":142775,"SoundDuration":142775,"Delta":223975490},{"NoteNumber":80,"Velocity":63,"Duration":95183,"SoundDuration":95183,"Delta":224070674},{"NoteNumber":79,"Velocity":63,"Duration":95183,"SoundDuration":95183,"Delta":224165857},{"NoteNumber":80,"Velocity":70,"Duration":95183,"SoundDuration":95183,"Delta":224261041},{"NoteNumber":41,"Velocity":66,"Duration":142775,"SoundDuration":142775,"Delta":224261041},{"NoteNumber":53,"Velocity":78,"Duration":142775,"SoundDuration":142775,"Delta":224261041},{"NoteNumber":82,"Velocity":68,"Duration":95183,"SoundDuration":95183,"Delta":224356225},{"NoteNumber":80,"Velocity":68,"Duration":95183,"SoundDuration":95183,"Delta":224451408},{"NoteNumber":79,"Velocity":70,"Duration":95183,"SoundDuration":95183,"Delta":224546592},{"NoteNumber":53,"Velocity":62,"Duration":142775,"SoundDuration":142775,"Delta":224546592},{"NoteNumber":65,"Velocity":74,"Duration":142775,"SoundDuration":142775,"Delta":224546592},{"NoteNumber":80,"Velocity":66,"Duration":95183,"SoundDuration":95183,"Delta":224641776},{"NoteNumber":79,"Velocity":66,"Duration":95758,"SoundDuration":95758,"Delta":224736959},{"NoteNumber":77,"Velocity":69,"Duration":93379,"SoundDuration":93379,"Delta":224832718},{"NoteNumber":56,"Velocity":68,"Duration":140069,"SoundDuration":140069,"Delta":224832718},{"NoteNumber":68,"Velocity":80,"Duration":140069,"SoundDuration":140069,"Delta":224832718},{"NoteNumber":79,"Velocity":66,"Duration":93379,"SoundDuration":93379,"Delta":224926097},{"NoteNumber":77,"Velocity":65,"Duration":93379,"SoundDuration":93379,"Delta":225019476},{"NoteNumber":75,"Velocity":69,"Duration":93379,"SoundDuration":93379,"Delta":225112856},{"NoteNumber":55,"Velocity":64,"Duration":140069,"SoundDuration":140069,"Delta":225112856},{"NoteNumber":67,"Velocity":76,"Duration":140069,"SoundDuration":140069,"Delta":225112856},{"NoteNumber":77,"Velocity":64,"Duration":93379,"SoundDuration":93379,"Delta":225206235},{"NoteNumber":75,"Velocity":64,"Duration":93379,"SoundDuration":93379,"Delta":225299614},{"NoteNumber":74,"Velocity":68,"Duration":92936,"SoundDuration":92936,"Delta":225392994},{"NoteNumber":53,"Velocity":68,"Duration":139405,"SoundDuration":139405,"Delta":225392994},{"NoteNumber":65,"Velocity":80,"Duration":139405,"SoundDuration":139405,"Delta":225392994},{"NoteNumber":75,"Velocity":64,"Duration":92936,"SoundDuration":92936,"Delta":225485931},{"NoteNumber":74,"Velocity":64,"Duration":92936,"SoundDuration":92936,"Delta":225578867},{"NoteNumber":75,"Velocity":68,"Duration":92936,"SoundDuration":92936,"Delta":225671804},{"NoteNumber":51,"Velocity":62,"Duration":139405,"SoundDuration":139405,"Delta":225671804},{"NoteNumber":63,"Velocity":73,"Duration":139405,"SoundDuration":139405,"Delta":225671804},{"NoteNumber":77,"Velocity":64,"Duration":92936,"SoundDuration":92936,"Delta":225764741},{"NoteNumber":75,"Velocity":64,"Duration":92936,"SoundDuration":92936,"Delta":225857678},{"NoteNumber":77,"Velocity":70,"Duration":92936,"SoundDuration":92936,"Delta":225950615},{"NoteNumber":50,"Velocity":62,"Duration":139405,"SoundDuration":139405,"Delta":225950615},{"NoteNumber":62,"Velocity":74,"Duration":139405,"SoundDuration":139405,"Delta":225950615},{"NoteNumber":79,"Velocity":65,"Duration":92936,"SoundDuration":92936,"Delta":226043552},{"NoteNumber":77,"Velocity":66,"Duration":92936,"SoundDuration":92936,"Delta":226136488},{"NoteNumber":78,"Velocity":70,"Duration":92936,"SoundDuration":92936,"Delta":226229425},{"NoteNumber":48,"Velocity":62,"Duration":139405,"SoundDuration":139405,"Delta":226229425},{"NoteNumber":60,"Velocity":74,"Duration":139405,"SoundDuration":139405,"Delta":226229425},{"NoteNumber":79,"Velocity":66,"Duration":92936,"SoundDuration":92936,"Delta":226322362},{"NoteNumber":78,"Velocity":66,"Duration":92936,"SoundDuration":92936,"Delta":226415299},{"NoteNumber":79,"Velocity":72,"Duration":92936,"SoundDuration":92936,"Delta":226508236},{"NoteNumber":47,"Velocity":69,"Duration":557621,"SoundDuration":557621,"Delta":226508236},{"NoteNumber":59,"Velocity":82,"Duration":557621,"SoundDuration":557621,"Delta":226508236},{"NoteNumber":80,"Velocity":67,"Duration":92936,"SoundDuration":92936,"Delta":226601173},{"NoteNumber":79,"Velocity":67,"Duration":92936,"SoundDuration":92936,"Delta":226694109},{"NoteNumber":78,"Velocity":67,"Duration":92936,"SoundDuration":92936,"Delta":226787046},{"NoteNumber":79,"Velocity":67,"Duration":92936,"SoundDuration":92936,"Delta":226879983},{"NoteNumber":78,"Velocity":67,"Duration":92936,"SoundDuration":92936,"Delta":226972920},{"NoteNumber":79,"Velocity":72,"Duration":92063,"SoundDuration":92063,"Delta":227065857},{"NoteNumber":43,"Velocity":64,"Duration":276192,"SoundDuration":276192,"Delta":227065857},{"NoteNumber":55,"Velocity":76,"Duration":276192,"SoundDuration":276192,"Delta":227065857},{"NoteNumber":80,"Velocity":67,"Duration":92063,"SoundDuration":92063,"Delta":227157921},{"NoteNumber":79,"Velocity":67,"Duration":92064,"SoundDuration":92064,"Delta":227249985},{"NoteNumber":78,"Velocity":67,"Duration":92063,"SoundDuration":92063,"Delta":227342049},{"NoteNumber":43,"Velocity":61,"Duration":276191,"SoundDuration":276191,"Delta":227342049},{"NoteNumber":55,"Velocity":72,"Duration":276191,"SoundDuration":276191,"Delta":227342049},{"NoteNumber":79,"Velocity":67,"Duration":92063,"SoundDuration":92063,"Delta":227434113},{"NoteNumber":78,"Velocity":67,"Duration":92063,"SoundDuration":92063,"Delta":227526177},{"NoteNumber":79,"Velocity":72,"Duration":91633,"SoundDuration":91633,"Delta":227618241},{"NoteNumber":43,"Velocity":64,"Duration":275331,"SoundDuration":275331,"Delta":227618241},{"NoteNumber":55,"Velocity":76,"Duration":275331,"SoundDuration":275331,"Delta":227618241},{"NoteNumber":80,"Velocity":67,"Duration":91633,"SoundDuration":91633,"Delta":227709875},{"NoteNumber":79,"Velocity":67,"Duration":92063,"SoundDuration":92063,"Delta":227801508},{"NoteNumber":77,"Velocity":69,"Duration":92276,"SoundDuration":92276,"Delta":227893572},{"NoteNumber":43,"Velocity":60,"Duration":277703,"SoundDuration":277703,"Delta":227893572},{"NoteNumber":55,"Velocity":71,"Duration":277703,"SoundDuration":277703,"Delta":227893572},{"NoteNumber":79,"Velocity":65,"Duration":92489,"SoundDuration":92489,"Delta":227985849},{"NoteNumber":77,"Velocity":65,"Duration":92936,"SoundDuration":92936,"Delta":228078339},{"NoteNumber":75,"Velocity":68,"Duration":93158,"SoundDuration":93158,"Delta":228171276},{"NoteNumber":43,"Velocity":64,"Duration":280346,"SoundDuration":280346,"Delta":228171276},{"NoteNumber":55,"Velocity":76,"Duration":280346,"SoundDuration":280346,"Delta":228171276},{"NoteNumber":77,"Velocity":63,"Duration":93379,"SoundDuration":93379,"Delta":228264434},{"NoteNumber":75,"Velocity":63,"Duration":93808,"SoundDuration":93808,"Delta":228357813},{"NoteNumber":74,"Velocity":67,"Duration":94038,"SoundDuration":94038,"Delta":228451622},{"NoteNumber":43,"Velocity":61,"Duration":283030,"SoundDuration":283030,"Delta":228451622},{"NoteNumber":55,"Velocity":72,"Duration":283030,"SoundDuration":283030,"Delta":228451622},{"NoteNumber":75,"Velocity":62,"Duration":94268,"SoundDuration":94268,"Delta":228545661},{"NoteNumber":74,"Velocity":62,"Duration":94723,"SoundDuration":94723,"Delta":228639929},{"NoteNumber":72,"Velocity":82,"Duration":285714,"SoundDuration":285714,"Delta":228734653},{"NoteNumber":48,"Velocity":71,"Duration":285714,"SoundDuration":285714,"Delta":228734653},{"NoteNumber":60,"Velocity":84,"Duration":285714,"SoundDuration":285714,"Delta":228734653},{"NoteNumber":63,"Velocity":79,"Duration":139405,"SoundDuration":139405,"Delta":229020368},{"NoteNumber":75,"Velocity":79,"Duration":139405,"SoundDuration":139405,"Delta":229020368},{"NoteNumber":43,"Velocity":63,"Duration":92936,"SoundDuration":92936,"Delta":229020368},{"NoteNumber":41,"Velocity":56,"Duration":92936,"SoundDuration":92936,"Delta":229113304},{"NoteNumber":43,"Velocity":57,"Duration":92936,"SoundDuration":92936,"Delta":229206241},{"NoteNumber":72,"Velocity":62,"Duration":138095,"SoundDuration":138095,"Delta":229299178},{"NoteNumber":84,"Velocity":74,"Duration":138095,"SoundDuration":138095,"Delta":229299178},{"NoteNumber":44,"Velocity":57,"Duration":92063,"SoundDuration":92063,"Delta":229299178},{"NoteNumber":48,"Velocity":58,"Duration":92063,"SoundDuration":92063,"Delta":229391242},{"NoteNumber":49,"Velocity":59,"Duration":92064,"SoundDuration":92064,"Delta":229483306},{"NoteNumber":70,"Velocity":62,"Duration":138095,"SoundDuration":138095,"Delta":229575370},{"NoteNumber":82,"Velocity":74,"Duration":138095,"SoundDuration":138095,"Delta":229575370},{"NoteNumber":51,"Velocity":60,"Duration":92063,"SoundDuration":92063,"Delta":229575370},{"NoteNumber":53,"Velocity":62,"Duration":92063,"SoundDuration":92063,"Delta":229667434},{"NoteNumber":55,"Velocity":63,"Duration":92063,"SoundDuration":92063,"Delta":229759498},{"NoteNumber":68,"Velocity":65,"Duration":139405,"SoundDuration":139405,"Delta":229851562},{"NoteNumber":80,"Velocity":77,"Duration":139405,"SoundDuration":139405,"Delta":229851562},{"NoteNumber":56,"Velocity":60,"Duration":92936,"SoundDuration":92936,"Delta":229851562},{"NoteNumber":58,"Velocity":62,"Duration":92936,"SoundDuration":92936,"Delta":229944499},{"NoteNumber":60,"Velocity":63,"Duration":92936,"SoundDuration":92936,"Delta":230037436},{"NoteNumber":63,"Velocity":61,"Duration":139405,"SoundDuration":139405,"Delta":230130373},{"NoteNumber":75,"Velocity":72,"Duration":139405,"SoundDuration":139405,"Delta":230130373},{"NoteNumber":61,"Velocity":65,"Duration":92936,"SoundDuration":92936,"Delta":230130373},{"NoteNumber":60,"Velocity":63,"Duration":92936,"SoundDuration":92936,"Delta":230223309},{"NoteNumber":58,"Velocity":62,"Duration":92936,"SoundDuration":92936,"Delta":230316246},{"NoteNumber":65,"Velocity":62,"Duration":139405,"SoundDuration":139405,"Delta":230409183},{"NoteNumber":77,"Velocity":73,"Duration":139405,"SoundDuration":139405,"Delta":230409183},{"NoteNumber":56,"Velocity":63,"Duration":92936,"SoundDuration":92936,"Delta":230409183},{"NoteNumber":58,"Velocity":62,"Duration":92936,"SoundDuration":92936,"Delta":230502120},{"NoteNumber":60,"Velocity":63,"Duration":92936,"SoundDuration":92936,"Delta":230595057},{"NoteNumber":67,"Velocity":62,"Duration":143458,"SoundDuration":143458,"Delta":230687994},{"NoteNumber":79,"Velocity":73,"Duration":143458,"SoundDuration":143458,"Delta":230687994},{"NoteNumber":61,"Velocity":65,"Duration":95638,"SoundDuration":95638,"Delta":230687994},{"NoteNumber":60,"Velocity":64,"Duration":95638,"SoundDuration":95638,"Delta":230783632},{"NoteNumber":58,"Velocity":63,"Duration":95758,"SoundDuration":95758,"Delta":230879271},{"NoteNumber":68,"Velocity":65,"Duration":142085,"SoundDuration":142085,"Delta":230975030},{"NoteNumber":80,"Velocity":77,"Duration":142085,"SoundDuration":142085,"Delta":230975030},{"NoteNumber":56,"Velocity":68,"Duration":284171,"SoundDuration":284171,"Delta":230975030},{"NoteNumber":60,"Velocity":61,"Duration":142085,"SoundDuration":142085,"Delta":231259201},{"NoteNumber":72,"Velocity":72,"Duration":142085,"SoundDuration":142085,"Delta":231259201},{"NoteNumber":40,"Velocity":63,"Duration":94723,"SoundDuration":94723,"Delta":231259201},{"NoteNumber":38,"Velocity":56,"Duration":94723,"SoundDuration":94723,"Delta":231353925},{"NoteNumber":40,"Velocity":56,"Duration":94723,"SoundDuration":94723,"Delta":231448649},{"NoteNumber":68,"Velocity":66,"Duration":138095,"SoundDuration":138095,"Delta":231543373},{"NoteNumber":80,"Velocity":78,"Duration":138095,"SoundDuration":138095,"Delta":231543373},{"NoteNumber":41,"Velocity":54,"Duration":92063,"SoundDuration":92063,"Delta":231543373},{"NoteNumber":44,"Velocity":56,"Duration":92063,"SoundDuration":92063,"Delta":231635437},{"NoteNumber":46,"Velocity":58,"Duration":92064,"SoundDuration":92064,"Delta":231727501},{"NoteNumber":67,"Velocity":62,"Duration":138095,"SoundDuration":138095,"Delta":231819565},{"NoteNumber":79,"Velocity":73,"Duration":138095,"SoundDuration":138095,"Delta":231819565},{"NoteNumber":48,"Velocity":60,"Duration":92063,"SoundDuration":92063,"Delta":231819565},{"NoteNumber":50,"Velocity":62,"Duration":92063,"SoundDuration":92063,"Delta":231911629},{"NoteNumber":52,"Velocity":63,"Duration":92063,"SoundDuration":92063,"Delta":232003693},{"NoteNumber":65,"Velocity":68,"Duration":138734,"SoundDuration":138734,"Delta":232095757},{"NoteNumber":77,"Velocity":80,"Duration":138734,"SoundDuration":138734,"Delta":232095757},{"NoteNumber":53,"Velocity":65,"Duration":92489,"SoundDuration":92489,"Delta":232095757},{"NoteNumber":55,"Velocity":65,"Duration":92489,"SoundDuration":92489,"Delta":232188246},{"NoteNumber":56,"Velocity":66,"Duration":92489,"SoundDuration":92489,"Delta":232280736},{"NoteNumber":60,"Velocity":63,"Duration":138734,"SoundDuration":138734,"Delta":232373226},{"NoteNumber":72,"Velocity":75,"Duration":138734,"SoundDuration":138734,"Delta":232373226},{"NoteNumber":58,"Velocity":68,"Duration":92489,"SoundDuration":92489,"Delta":232373226},{"NoteNumber":56,"Velocity":65,"Duration":92489,"SoundDuration":92489,"Delta":232465716},{"NoteNumber":55,"Velocity":63,"Duration":92275,"SoundDuration":92275,"Delta":232558206},{"NoteNumber":62,"Velocity":63,"Duration":137880,"SoundDuration":137880,"Delta":232650482},{"NoteNumber":74,"Velocity":75,"Duration":137880,"SoundDuration":137880,"Delta":232650482},{"NoteNumber":53,"Velocity":60,"Duration":91848,"SoundDuration":91848,"Delta":232650482},{"NoteNumber":55,"Velocity":62,"Duration":92063,"SoundDuration":92063,"Delta":232742330},{"NoteNumber":56,"Velocity":64,"Duration":92064,"SoundDuration":92064,"Delta":232834394},{"NoteNumber":64,"Velocity":63,"Duration":142775,"SoundDuration":142775,"Delta":232926458},{"NoteNumber":76,"Velocity":75,"Duration":142775,"SoundDuration":142775,"Delta":232926458},{"NoteNumber":58,"Velocity":66,"Duration":95183,"SoundDuration":95183,"Delta":232926458},{"NoteNumber":56,"Velocity":64,"Duration":95183,"SoundDuration":95183,"Delta":233021642},{"NoteNumber":55,"Velocity":63,"Duration":95183,"SoundDuration":95183,"Delta":233116826},{"NoteNumber":65,"Velocity":66,"Duration":142775,"SoundDuration":142775,"Delta":233212009},{"NoteNumber":77,"Velocity":78,"Duration":142775,"SoundDuration":142775,"Delta":233212009},{"NoteNumber":53,"Velocity":67,"Duration":285550,"SoundDuration":285550,"Delta":233212009},{"NoteNumber":77,"Velocity":62,"Duration":142775,"SoundDuration":142775,"Delta":233497560},{"NoteNumber":89,"Velocity":74,"Duration":142775,"SoundDuration":142775,"Delta":233497560},{"NoteNumber":36,"Velocity":63,"Duration":95183,"SoundDuration":95183,"Delta":233497560},{"NoteNumber":38,"Velocity":58,"Duration":95183,"SoundDuration":95183,"Delta":233592744},{"NoteNumber":40,"Velocity":58,"Duration":95758,"SoundDuration":95758,"Delta":233687928},{"NoteNumber":80,"Velocity":68,"Duration":140069,"SoundDuration":140069,"Delta":233783686},{"NoteNumber":92,"Velocity":80,"Duration":140069,"SoundDuration":140069,"Delta":233783686},{"NoteNumber":41,"Velocity":63,"Duration":93379,"SoundDuration":93379,"Delta":233783686},{"NoteNumber":40,"Velocity":58,"Duration":93379,"SoundDuration":93379,"Delta":233877065},{"NoteNumber":41,"Velocity":58,"Duration":93379,"SoundDuration":93379,"Delta":233970445},{"NoteNumber":79,"Velocity":64,"Duration":140069,"SoundDuration":140069,"Delta":234063824},{"NoteNumber":91,"Velocity":76,"Duration":140069,"SoundDuration":140069,"Delta":234063824},{"NoteNumber":43,"Velocity":63,"Duration":93379,"SoundDuration":93379,"Delta":234063824},{"NoteNumber":41,"Velocity":60,"Duration":93379,"SoundDuration":93379,"Delta":234157203},{"NoteNumber":43,"Velocity":60,"Duration":93379,"SoundDuration":93379,"Delta":234250583},{"NoteNumber":77,"Velocity":68,"Duration":139405,"SoundDuration":139405,"Delta":234343962},{"NoteNumber":89,"Velocity":80,"Duration":139405,"SoundDuration":139405,"Delta":234343962},{"NoteNumber":44,"Velocity":59,"Duration":92936,"SoundDuration":92936,"Delta":234343962},{"NoteNumber":46,"Velocity":59,"Duration":92936,"SoundDuration":92936,"Delta":234436899},{"NoteNumber":44,"Velocity":60,"Duration":92936,"SoundDuration":92936,"Delta":234529836},{"NoteNumber":75,"Velocity":62,"Duration":139405,"SoundDuration":139405,"Delta":234622773},{"NoteNumber":87,"Velocity":73,"Duration":139405,"SoundDuration":139405,"Delta":234622773},{"NoteNumber":43,"Velocity":61,"Duration":92936,"SoundDuration":92936,"Delta":234622773},{"NoteNumber":44,"Velocity":59,"Duration":92936,"SoundDuration":92936,"Delta":234715709},{"NoteNumber":43,"Velocity":59,"Duration":92936,"SoundDuration":92936,"Delta":234808646},{"NoteNumber":74,"Velocity":62,"Duration":139405,"SoundDuration":139405,"Delta":234901583},{"NoteNumber":86,"Velocity":74,"Duration":139405,"SoundDuration":139405,"Delta":234901583},{"NoteNumber":41,"Velocity":63,"Duration":92936,"SoundDuration":92936,"Delta":234901583},{"NoteNumber":43,"Velocity":61,"Duration":92936,"SoundDuration":92936,"Delta":234994520},{"NoteNumber":41,"Velocity":61,"Duration":92936,"SoundDuration":92936,"Delta":235087457},{"NoteNumber":72,"Velocity":62,"Duration":139405,"SoundDuration":139405,"Delta":235180394},{"NoteNumber":84,"Velocity":74,"Duration":139405,"SoundDuration":139405,"Delta":235180394},{"NoteNumber":42,"Velocity":64,"Duration":92936,"SoundDuration":92936,"Delta":235180394},{"NoteNumber":43,"Velocity":62,"Duration":92936,"SoundDuration":92936,"Delta":235273330},{"NoteNumber":42,"Velocity":62,"Duration":92936,"SoundDuration":92936,"Delta":235366267},{"NoteNumber":71,"Velocity":69,"Duration":557621,"SoundDuration":557621,"Delta":235459204},{"NoteNumber":83,"Velocity":82,"Duration":557621,"SoundDuration":557621,"Delta":235459204},{"NoteNumber":43,"Velocity":67,"Duration":92936,"SoundDuration":92936,"Delta":235459204},{"NoteNumber":44,"Velocity":63,"Duration":92936,"SoundDuration":92936,"Delta":235552141},{"NoteNumber":43,"Velocity":63,"Duration":92936,"SoundDuration":92936,"Delta":235645078},{"NoteNumber":42,"Velocity":67,"Duration":92936,"SoundDuration":92936,"Delta":235738015},{"NoteNumber":43,"Velocity":63,"Duration":92936,"SoundDuration":92936,"Delta":235830951},{"NoteNumber":42,"Velocity":63,"Duration":92936,"SoundDuration":92936,"Delta":235923888},{"NoteNumber":67,"Velocity":66,"Duration":273890,"SoundDuration":273890,"Delta":236016825},{"NoteNumber":79,"Velocity":78,"Duration":273890,"SoundDuration":273890,"Delta":236016825},{"NoteNumber":43,"Velocity":66,"Duration":92063,"SoundDuration":92063,"Delta":236016825},{"NoteNumber":44,"Velocity":63,"Duration":92063,"SoundDuration":92063,"Delta":236108889},{"NoteNumber":43,"Velocity":63,"Duration":92064,"SoundDuration":92064,"Delta":236200953},{"NoteNumber":67,"Velocity":62,"Duration":273890,"SoundDuration":273890,"Delta":236293017},{"NoteNumber":79,"Velocity":73,"Duration":273890,"SoundDuration":273890,"Delta":236293017},{"NoteNumber":42,"Velocity":66,"Duration":92063,"SoundDuration":92063,"Delta":236293017},{"NoteNumber":43,"Velocity":62,"Duration":92063,"SoundDuration":92063,"Delta":236385081},{"NoteNumber":42,"Velocity":62,"Duration":92063,"SoundDuration":92063,"Delta":236477145},{"NoteNumber":67,"Velocity":66,"Duration":273030,"SoundDuration":273030,"Delta":236569209},{"NoteNumber":79,"Velocity":78,"Duration":273030,"SoundDuration":273030,"Delta":236569209},{"NoteNumber":43,"Velocity":64,"Duration":91633,"SoundDuration":91633,"Delta":236569209},{"NoteNumber":44,"Velocity":62,"Duration":91633,"SoundDuration":91633,"Delta":236660843},{"NoteNumber":43,"Velocity":62,"Duration":92063,"SoundDuration":92063,"Delta":236752477},{"NoteNumber":67,"Velocity":61,"Duration":275380,"SoundDuration":275380,"Delta":236844541},{"NoteNumber":79,"Velocity":72,"Duration":275380,"SoundDuration":275380,"Delta":236844541},{"NoteNumber":41,"Velocity":64,"Duration":92276,"SoundDuration":92276,"Delta":236844541},{"NoteNumber":43,"Velocity":61,"Duration":92489,"SoundDuration":92489,"Delta":236936818},{"NoteNumber":41,"Velocity":61,"Duration":92936,"SoundDuration":92936,"Delta":237029308},{"NoteNumber":67,"Velocity":66,"Duration":278000,"SoundDuration":278000,"Delta":237122244},{"NoteNumber":79,"Velocity":78,"Duration":278000,"SoundDuration":278000,"Delta":237122244},{"NoteNumber":39,"Velocity":63,"Duration":93158,"SoundDuration":93158,"Delta":237122244},{"NoteNumber":41,"Velocity":62,"Duration":93379,"SoundDuration":93379,"Delta":237215402},{"NoteNumber":39,"Velocity":62,"Duration":93808,"SoundDuration":93808,"Delta":237308782},{"NoteNumber":67,"Velocity":62,"Duration":279080,"SoundDuration":279080,"Delta":237402590},{"NoteNumber":79,"Velocity":73,"Duration":279080,"SoundDuration":279080,"Delta":237402590},{"NoteNumber":38,"Velocity":63,"Duration":93808,"SoundDuration":93808,"Delta":237402590},{"NoteNumber":39,"Velocity":60,"Duration":93808,"SoundDuration":93808,"Delta":237496399},{"NoteNumber":38,"Velocity":60,"Duration":93808,"SoundDuration":93808,"Delta":237590208},{"NoteNumber":72,"Velocity":71,"Duration":285714,"SoundDuration":285714,"Delta":237684016},{"NoteNumber":84,"Velocity":76,"Duration":285714,"SoundDuration":285714,"Delta":237684016},{"NoteNumber":36,"Velocity":77,"Duration":142857,"SoundDuration":142857,"Delta":237684016},{"NoteNumber":72,"Velocity":55,"Duration":92936,"SoundDuration":92936,"Delta":237969731},{"NoteNumber":41,"Velocity":79,"Duration":139405,"SoundDuration":139405,"Delta":237969731},{"NoteNumber":53,"Velocity":79,"Duration":139405,"SoundDuration":139405,"Delta":237969731},{"NoteNumber":74,"Velocity":56,"Duration":92936,"SoundDuration":92936,"Delta":238062668},{"NoteNumber":76,"Velocity":57,"Duration":92936,"SoundDuration":92936,"Delta":238155605},{"NoteNumber":77,"Velocity":58,"Duration":92063,"SoundDuration":92063,"Delta":238248541},{"NoteNumber":44,"Velocity":62,"Duration":138095,"SoundDuration":138095,"Delta":238248541},{"NoteNumber":56,"Velocity":74,"Duration":138095,"SoundDuration":138095,"Delta":238248541},{"NoteNumber":76,"Velocity":60,"Duration":92063,"SoundDuration":92063,"Delta":238340605},{"NoteNumber":77,"Velocity":61,"Duration":92064,"SoundDuration":92064,"Delta":238432669},{"NoteNumber":79,"Velocity":62,"Duration":92063,"SoundDuration":92063,"Delta":238524733},{"NoteNumber":43,"Velocity":62,"Duration":138095,"SoundDuration":138095,"Delta":238524733},{"NoteNumber":55,"Velocity":74,"Duration":138095,"SoundDuration":138095,"Delta":238524733},{"NoteNumber":77,"Velocity":63,"Duration":92063,"SoundDuration":92063,"Delta":238616797},{"NoteNumber":79,"Velocity":63,"Duration":92063,"SoundDuration":92063,"Delta":238708861},{"NoteNumber":80,"Velocity":68,"Duration":92936,"SoundDuration":92936,"Delta":238800925},{"NoteNumber":41,"Velocity":68,"Duration":139405,"SoundDuration":139405,"Delta":238800925},{"NoteNumber":53,"Velocity":80,"Duration":139405,"SoundDuration":139405,"Delta":238800925},{"NoteNumber":82,"Velocity":64,"Duration":92936,"SoundDuration":92936,"Delta":238893862},{"NoteNumber":80,"Velocity":64,"Duration":92936,"SoundDuration":92936,"Delta":238986799},{"NoteNumber":79,"Velocity":68,"Duration":92936,"SoundDuration":92936,"Delta":239079736},{"NoteNumber":39,"Velocity":62,"Duration":139405,"SoundDuration":139405,"Delta":239079736},{"NoteNumber":51,"Velocity":73,"Duration":139405,"SoundDuration":139405,"Delta":239079736},{"NoteNumber":80,"Velocity":64,"Duration":92936,"SoundDuration":92936,"Delta":239172673},{"NoteNumber":79,"Velocity":64,"Duration":92936,"SoundDuration":92936,"Delta":239265610},{"NoteNumber":77,"Velocity":70,"Duration":92936,"SoundDuration":92936,"Delta":239358546},{"NoteNumber":38,"Velocity":62,"Duration":139405,"SoundDuration":139405,"Delta":239358546},{"NoteNumber":50,"Velocity":74,"Duration":139405,"SoundDuration":139405,"Delta":239358546},{"NoteNumber":79,"Velocity":65,"Duration":92936,"SoundDuration":92936,"Delta":239451483},{"NoteNumber":77,"Velocity":66,"Duration":92936,"SoundDuration":92936,"Delta":239544420},{"NoteNumber":78,"Velocity":70,"Duration":92936,"SoundDuration":92936,"Delta":239637357},{"NoteNumber":36,"Velocity":62,"Duration":139405,"SoundDuration":139405,"Delta":239637357},{"NoteNumber":48,"Velocity":74,"Duration":139405,"SoundDuration":139405,"Delta":239637357},{"NoteNumber":79,"Velocity":66,"Duration":92936,"SoundDuration":92936,"Delta":239730294},{"NoteNumber":78,"Velocity":66,"Duration":92936,"SoundDuration":92936,"Delta":239823231},{"NoteNumber":79,"Velocity":72,"Duration":92936,"SoundDuration":92936,"Delta":239916167},{"NoteNumber":35,"Velocity":69,"Duration":557621,"SoundDuration":557621,"Delta":239916167},{"NoteNumber":47,"Velocity":82,"Duration":557621,"SoundDuration":557621,"Delta":239916167},{"NoteNumber":80,"Velocity":67,"Duration":92936,"SoundDuration":92936,"Delta":240009104},{"NoteNumber":79,"Velocity":67,"Duration":92936,"SoundDuration":92936,"Delta":240102041},{"NoteNumber":78,"Velocity":67,"Duration":92936,"SoundDuration":92936,"Delta":240194978},{"NoteNumber":79,"Velocity":67,"Duration":92936,"SoundDuration":92936,"Delta":240287915},{"NoteNumber":78,"Velocity":67,"Duration":92936,"SoundDuration":92936,"Delta":240380852},{"NoteNumber":79,"Velocity":72,"Duration":92063,"SoundDuration":92063,"Delta":240473788},{"NoteNumber":31,"Velocity":64,"Duration":273890,"SoundDuration":273890,"Delta":240473788},{"NoteNumber":43,"Velocity":76,"Duration":273890,"SoundDuration":273890,"Delta":240473788},{"NoteNumber":80,"Velocity":67,"Duration":92063,"SoundDuration":92063,"Delta":240565852},{"NoteNumber":79,"Velocity":67,"Duration":92064,"SoundDuration":92064,"Delta":240657916},{"NoteNumber":78,"Velocity":67,"Duration":92063,"SoundDuration":92063,"Delta":240749980},{"NoteNumber":31,"Velocity":61,"Duration":273890,"SoundDuration":273890,"Delta":240749980},{"NoteNumber":43,"Velocity":72,"Duration":273890,"SoundDuration":273890,"Delta":240749980},{"NoteNumber":79,"Velocity":67,"Duration":92063,"SoundDuration":92063,"Delta":240842044},{"NoteNumber":78,"Velocity":67,"Duration":92063,"SoundDuration":92063,"Delta":240934108},{"NoteNumber":79,"Velocity":72,"Duration":91633,"SoundDuration":91633,"Delta":241026172},{"NoteNumber":31,"Velocity":64,"Duration":273030,"SoundDuration":273030,"Delta":241026172},{"NoteNumber":43,"Velocity":76,"Duration":273030,"SoundDuration":273030,"Delta":241026172},{"NoteNumber":80,"Velocity":67,"Duration":91633,"SoundDuration":91633,"Delta":241117806},{"NoteNumber":79,"Velocity":67,"Duration":92063,"SoundDuration":92063,"Delta":241209440},{"NoteNumber":77,"Velocity":69,"Duration":92276,"SoundDuration":92276,"Delta":241301504},{"NoteNumber":31,"Velocity":60,"Duration":275380,"SoundDuration":275380,"Delta":241301504},{"NoteNumber":43,"Velocity":71,"Duration":275380,"SoundDuration":275380,"Delta":241301504},{"NoteNumber":79,"Velocity":65,"Duration":92489,"SoundDuration":92489,"Delta":241393781},{"NoteNumber":77,"Velocity":65,"Duration":92936,"SoundDuration":92936,"Delta":241486271},{"NoteNumber":75,"Velocity":68,"Duration":93158,"SoundDuration":93158,"Delta":241579208},{"NoteNumber":31,"Velocity":64,"Duration":278000,"SoundDuration":278000,"Delta":241579208},{"NoteNumber":43,"Velocity":76,"Duration":278000,"SoundDuration":278000,"Delta":241579208},{"NoteNumber":77,"Velocity":63,"Duration":93379,"SoundDuration":93379,"Delta":241672366},{"NoteNumber":75,"Velocity":63,"Duration":93808,"SoundDuration":93808,"Delta":241765745},{"NoteNumber":74,"Velocity":67,"Duration":94038,"SoundDuration":94038,"Delta":241859554},{"NoteNumber":31,"Velocity":61,"Duration":280662,"SoundDuration":280662,"Delta":241859554},{"NoteNumber":43,"Velocity":72,"Duration":280662,"SoundDuration":280662,"Delta":241859554},{"NoteNumber":75,"Velocity":62,"Duration":94268,"SoundDuration":94268,"Delta":241953592},{"NoteNumber":74,"Velocity":62,"Duration":94723,"SoundDuration":94723,"Delta":242047861},{"NoteNumber":72,"Velocity":72,"Duration":92609,"SoundDuration":92609,"Delta":242142585},{"NoteNumber":36,"Velocity":69,"Duration":277828,"SoundDuration":277828,"Delta":242142585},{"NoteNumber":48,"Velocity":82,"Duration":277828,"SoundDuration":277828,"Delta":242142585},{"NoteNumber":71,"Velocity":67,"Duration":92609,"SoundDuration":92609,"Delta":242235194},{"NoteNumber":72,"Velocity":67,"Duration":92609,"SoundDuration":92609,"Delta":242327804},{"NoteNumber":74,"Velocity":67,"Duration":92609,"SoundDuration":92609,"Delta":242420414},{"NoteNumber":72,"Velocity":67,"Duration":92609,"SoundDuration":92609,"Delta":242513023},{"NoteNumber":74,"Velocity":67,"Duration":92609,"SoundDuration":92609,"Delta":242605633},{"NoteNumber":75,"Velocity":75,"Duration":92063,"SoundDuration":92063,"Delta":242698243},{"NoteNumber":43,"Velocity":67,"Duration":273890,"SoundDuration":273890,"Delta":242698243},{"NoteNumber":55,"Velocity":79,"Duration":273890,"SoundDuration":273890,"Delta":242698243},{"NoteNumber":74,"Velocity":70,"Duration":92063,"SoundDuration":92063,"Delta":242790307},{"NoteNumber":75,"Velocity":70,"Duration":92064,"SoundDuration":92064,"Delta":242882371},{"NoteNumber":77,"Velocity":70,"Duration":92063,"SoundDuration":92063,"Delta":242974435},{"NoteNumber":43,"Velocity":64,"Duration":273890,"SoundDuration":273890,"Delta":242974435},{"NoteNumber":55,"Velocity":75,"Duration":273890,"SoundDuration":273890,"Delta":242974435},{"NoteNumber":75,"Velocity":70,"Duration":92063,"SoundDuration":92063,"Delta":243066499},{"NoteNumber":77,"Velocity":70,"Duration":92063,"SoundDuration":92063,"Delta":243158563},{"NoteNumber":79,"Velocity":75,"Duration":91633,"SoundDuration":91633,"Delta":243250627},{"NoteNumber":43,"Velocity":67,"Duration":273030,"SoundDuration":273030,"Delta":243250627},{"NoteNumber":55,"Velocity":79,"Duration":273030,"SoundDuration":273030,"Delta":243250627},{"NoteNumber":80,"Velocity":70,"Duration":91633,"SoundDuration":91633,"Delta":243342261},{"NoteNumber":79,"Velocity":70,"Duration":92063,"SoundDuration":92063,"Delta":243433894},{"NoteNumber":77,"Velocity":72,"Duration":92276,"SoundDuration":92276,"Delta":243525958},{"NoteNumber":43,"Velocity":63,"Duration":275380,"SoundDuration":275380,"Delta":243525958},{"NoteNumber":55,"Velocity":74,"Duration":275380,"SoundDuration":275380,"Delta":243525958},{"NoteNumber":79,"Velocity":68,"Duration":92489,"SoundDuration":92489,"Delta":243618235},{"NoteNumber":77,"Velocity":68,"Duration":92936,"SoundDuration":92936,"Delta":243710725},{"NoteNumber":75,"Velocity":71,"Duration":93158,"SoundDuration":93158,"Delta":243803662},{"NoteNumber":43,"Velocity":67,"Duration":278000,"SoundDuration":278000,"Delta":243803662},{"NoteNumber":55,"Velocity":79,"Duration":278000,"SoundDuration":278000,"Delta":243803662},{"NoteNumber":77,"Velocity":66,"Duration":93379,"SoundDuration":93379,"Delta":243896820},{"NoteNumber":75,"Velocity":66,"Duration":93808,"SoundDuration":93808,"Delta":243990199},{"NoteNumber":74,"Velocity":70,"Duration":94038,"SoundDuration":94038,"Delta":244084008},{"NoteNumber":43,"Velocity":64,"Duration":280662,"SoundDuration":280662,"Delta":244084008},{"NoteNumber":55,"Velocity":75,"Duration":280662,"SoundDuration":280662,"Delta":244084008},{"NoteNumber":75,"Velocity":65,"Duration":94268,"SoundDuration":94268,"Delta":244178047},{"NoteNumber":74,"Velocity":65,"Duration":94723,"SoundDuration":94723,"Delta":244272315},{"NoteNumber":72,"Velocity":75,"Duration":92609,"SoundDuration":92609,"Delta":244367039},{"NoteNumber":48,"Velocity":72,"Duration":277828,"SoundDuration":277828,"Delta":244367039},{"NoteNumber":60,"Velocity":86,"Duration":277828,"SoundDuration":277828,"Delta":244367039},{"NoteNumber":71,"Velocity":70,"Duration":92609,"SoundDuration":92609,"Delta":244459649},{"NoteNumber":72,"Velocity":70,"Duration":92609,"SoundDuration":92609,"Delta":244552258},{"NoteNumber":74,"Velocity":70,"Duration":92609,"SoundDuration":92609,"Delta":244644868},{"NoteNumber":72,"Velocity":70,"Duration":92609,"SoundDuration":92609,"Delta":244737478},{"NoteNumber":74,"Velocity":70,"Duration":92609,"SoundDuration":92609,"Delta":244830087},{"NoteNumber":75,"Velocity":79,"Duration":92063,"SoundDuration":92063,"Delta":244922697},{"NoteNumber":31,"Velocity":80,"Duration":273890,"SoundDuration":273890,"Delta":244922697},{"NoteNumber":43,"Velocity":95,"Duration":273890,"SoundDuration":273890,"Delta":244922697},{"NoteNumber":74,"Velocity":73,"Duration":92063,"SoundDuration":92063,"Delta":245014761},{"NoteNumber":75,"Velocity":73,"Duration":92064,"SoundDuration":92064,"Delta":245106825},{"NoteNumber":77,"Velocity":73,"Duration":92063,"SoundDuration":92063,"Delta":245198889},{"NoteNumber":31,"Velocity":77,"Duration":273890,"SoundDuration":273890,"Delta":245198889},{"NoteNumber":43,"Velocity":90,"Duration":273890,"SoundDuration":273890,"Delta":245198889},{"NoteNumber":75,"Velocity":73,"Duration":92063,"SoundDuration":92063,"Delta":245290953},{"NoteNumber":77,"Velocity":73,"Duration":92063,"SoundDuration":92063,"Delta":245383017},{"NoteNumber":79,"Velocity":79,"Duration":91633,"SoundDuration":91633,"Delta":245475081},{"NoteNumber":31,"Velocity":80,"Duration":273030,"SoundDuration":273030,"Delta":245475081},{"NoteNumber":43,"Velocity":95,"Duration":273030,"SoundDuration":273030,"Delta":245475081},{"NoteNumber":80,"Velocity":73,"Duration":91633,"SoundDuration":91633,"Delta":245566715},{"NoteNumber":79,"Velocity":73,"Duration":92063,"SoundDuration":92063,"Delta":245658349},{"NoteNumber":77,"Velocity":75,"Duration":92276,"SoundDuration":92276,"Delta":245750413},{"NoteNumber":31,"Velocity":75,"Duration":275380,"SoundDuration":275380,"Delta":245750413},{"NoteNumber":43,"Velocity":89,"Duration":275380,"SoundDuration":275380,"Delta":245750413},{"NoteNumber":79,"Velocity":71,"Duration":92489,"SoundDuration":92489,"Delta":245842690},{"NoteNumber":77,"Velocity":71,"Duration":92936,"SoundDuration":92936,"Delta":245935179},{"NoteNumber":75,"Velocity":74,"Duration":93158,"SoundDuration":93158,"Delta":246028116},{"NoteNumber":31,"Velocity":80,"Duration":278000,"SoundDuration":278000,"Delta":246028116},{"NoteNumber":43,"Velocity":95,"Duration":278000,"SoundDuration":278000,"Delta":246028116},{"NoteNumber":77,"Velocity":69,"Duration":93379,"SoundDuration":93379,"Delta":246121274},{"NoteNumber":75,"Velocity":69,"Duration":93808,"SoundDuration":93808,"Delta":246214654},{"NoteNumber":74,"Velocity":73,"Duration":94038,"SoundDuration":94038,"Delta":246308462},{"NoteNumber":31,"Velocity":77,"Duration":280662,"SoundDuration":280662,"Delta":246308462},{"NoteNumber":43,"Velocity":90,"Duration":280662,"SoundDuration":280662,"Delta":246308462},{"NoteNumber":75,"Velocity":68,"Duration":94268,"SoundDuration":94268,"Delta":246402501},{"NoteNumber":74,"Velocity":68,"Duration":94723,"SoundDuration":94723,"Delta":246496769},{"NoteNumber":72,"Velocity":79,"Duration":92609,"SoundDuration":92609,"Delta":246591493},{"NoteNumber":36,"Velocity":85,"Duration":277828,"SoundDuration":277828,"Delta":246591493},{"NoteNumber":48,"Velocity":103,"Duration":277828,"SoundDuration":277828,"Delta":246591493},{"NoteNumber":71,"Velocity":69,"Duration":92609,"SoundDuration":92609,"Delta":246684103},{"NoteNumber":72,"Velocity":71,"Duration":92609,"SoundDuration":92609,"Delta":246776713},{"NoteNumber":74,"Velocity":73,"Duration":92609,"SoundDuration":92609,"Delta":246869322},{"NoteNumber":75,"Velocity":75,"Duration":92609,"SoundDuration":92609,"Delta":246961932},{"NoteNumber":77,"Velocity":78,"Duration":92609,"SoundDuration":92609,"Delta":247054542},{"NoteNumber":79,"Velocity":80,"Duration":92063,"SoundDuration":92063,"Delta":247147151},{"NoteNumber":31,"Velocity":80,"Duration":276192,"SoundDuration":276192,"Delta":247147151},{"NoteNumber":43,"Velocity":95,"Duration":276192,"SoundDuration":276192,"Delta":247147151},{"NoteNumber":80,"Velocity":77,"Duration":92063,"SoundDuration":92063,"Delta":247239215},{"NoteNumber":79,"Velocity":75,"Duration":92064,"SoundDuration":92064,"Delta":247331279},{"NoteNumber":77,"Velocity":74,"Duration":92063,"SoundDuration":92063,"Delta":247423343},{"NoteNumber":75,"Velocity":73,"Duration":92063,"SoundDuration":92063,"Delta":247515407},{"NoteNumber":74,"Velocity":73,"Duration":92063,"SoundDuration":92063,"Delta":247607471},{"NoteNumber":72,"Velocity":79,"Duration":92609,"SoundDuration":92609,"Delta":247699535},{"NoteNumber":36,"Velocity":85,"Duration":277828,"SoundDuration":277828,"Delta":247699535},{"NoteNumber":48,"Velocity":103,"Duration":277828,"SoundDuration":277828,"Delta":247699535},{"NoteNumber":71,"Velocity":69,"Duration":92609,"SoundDuration":92609,"Delta":247792145},{"NoteNumber":72,"Velocity":71,"Duration":92609,"SoundDuration":92609,"Delta":247884755},{"NoteNumber":74,"Velocity":73,"Duration":92609,"SoundDuration":92609,"Delta":247977364},{"NoteNumber":75,"Velocity":75,"Duration":92609,"SoundDuration":92609,"Delta":248069974},{"NoteNumber":77,"Velocity":78,"Duration":92609,"SoundDuration":92609,"Delta":248162584},{"NoteNumber":79,"Velocity":80,"Duration":92063,"SoundDuration":92063,"Delta":248255193},{"NoteNumber":31,"Velocity":80,"Duration":276192,"SoundDuration":276192,"Delta":248255193},{"NoteNumber":43,"Velocity":95,"Duration":276192,"SoundDuration":276192,"Delta":248255193},{"NoteNumber":80,"Velocity":77,"Duration":92063,"SoundDuration":92063,"Delta":248347257},{"NoteNumber":79,"Velocity":75,"Duration":92064,"SoundDuration":92064,"Delta":248439321},{"NoteNumber":77,"Velocity":74,"Duration":92063,"SoundDuration":92063,"Delta":248531385},{"NoteNumber":75,"Velocity":73,"Duration":92063,"SoundDuration":92063,"Delta":248623449},{"NoteNumber":74,"Velocity":73,"Duration":92063,"SoundDuration":92063,"Delta":248715513},{"NoteNumber":60,"Velocity":85,"Duration":140199,"SoundDuration":140199,"Delta":248807577},{"NoteNumber":72,"Velocity":101,"Duration":140199,"SoundDuration":140199,"Delta":248807577},{"NoteNumber":36,"Velocity":73,"Duration":140199,"SoundDuration":140199,"Delta":248807577},{"NoteNumber":48,"Velocity":86,"Duration":140199,"SoundDuration":140199,"Delta":248807577},{"NoteNumber":60,"Velocity":85,"Duration":140199,"SoundDuration":140199,"Delta":249368377},{"NoteNumber":72,"Velocity":101,"Duration":140199,"SoundDuration":140199,"Delta":249368377},{"NoteNumber":36,"Velocity":73,"Duration":140199,"SoundDuration":140199,"Delta":249368377},{"NoteNumber":48,"Velocity":86,"Duration":140199,"SoundDuration":140199,"Delta":249368377},{"NoteNumber":60,"Velocity":83,"Duration":280399,"SoundDuration":280399,"Delta":249929177},{"NoteNumber":72,"Velocity":99,"Duration":280399,"SoundDuration":280399,"Delta":249929177},{"NoteNumber":36,"Velocity":73,"Duration":280399,"SoundDuration":280399,"Delta":249929177},{"NoteNumber":48,"Velocity":86,"Duration":280399,"SoundDuration":280399,"Delta":249929177},{"NoteNumber":60,"Velocity":62,"Duration":590841,"SoundDuration":590841,"Delta":251080819},{"NoteNumber":72,"Velocity":73,"Duration":590841,"SoundDuration":590841,"Delta":251080819},{"NoteNumber":36,"Velocity":48,"Duration":590841,"SoundDuration":590841,"Delta":251080819},{"NoteNumber":48,"Velocity":57,"Duration":590841,"SoundDuration":590841,"Delta":251080819},{"NoteNumber":60,"Velocity":47,"Duration":590842,"SoundDuration":590842,"Delta":252262503},{"NoteNumber":72,"Velocity":56,"Duration":590842,"SoundDuration":590842,"Delta":252262503},{"NoteNumber":36,"Velocity":39,"Duration":590842,"SoundDuration":590842,"Delta":252262503},{"NoteNumber":48,"Velocity":46,"Duration":590842,"SoundDuration":590842,"Delta":252262503},{"NoteNumber":56,"Velocity":108,"Duration":310590,"SoundDuration":310590,"Delta":253444187},{"NoteNumber":32,"Velocity":70,"Duration":310590,"SoundDuration":310590,"Delta":253444187},{"NoteNumber":44,"Velocity":82,"Duration":310590,"SoundDuration":310590,"Delta":253444187},{"NoteNumber":63,"Velocity":81,"Duration":328191,"SoundDuration":328191,"Delta":254065369},{"NoteNumber":68,"Velocity":81,"Duration":328191,"SoundDuration":328191,"Delta":254065369},{"NoteNumber":72,"Velocity":81,"Duration":328191,"SoundDuration":328191,"Delta":254065369},{"NoteNumber":75,"Velocity":96,"Duration":328191,"SoundDuration":328191,"Delta":254065369},{"NoteNumber":44,"Velocity":58,"Duration":328191,"SoundDuration":328191,"Delta":254065369},{"NoteNumber":48,"Velocity":58,"Duration":328191,"SoundDuration":328191,"Delta":254065369},{"NoteNumber":51,"Velocity":58,"Duration":328191,"SoundDuration":328191,"Delta":254065369},{"NoteNumber":56,"Velocity":69,"Duration":328191,"SoundDuration":328191,"Delta":254065369},{"NoteNumber":75,"Velocity":81,"Duration":896860,"SoundDuration":896860,"Delta":254721752},{"NoteNumber":80,"Velocity":81,"Duration":896860,"SoundDuration":896860,"Delta":254721752},{"NoteNumber":84,"Velocity":81,"Duration":896860,"SoundDuration":896860,"Delta":254721752},{"NoteNumber":87,"Velocity":97,"Duration":896860,"SoundDuration":896860,"Delta":254721752},{"NoteNumber":56,"Velocity":60,"Duration":896860,"SoundDuration":896860,"Delta":254721752},{"NoteNumber":60,"Velocity":60,"Duration":896860,"SoundDuration":896860,"Delta":254721752},{"NoteNumber":63,"Velocity":60,"Duration":896860,"SoundDuration":896860,"Delta":254721752},{"NoteNumber":68,"Velocity":71,"Duration":896860,"SoundDuration":896860,"Delta":254721752},{"NoteNumber":84,"Velocity":64,"Duration":306122,"SoundDuration":306122,"Delta":255618613},{"NoteNumber":75,"Velocity":54,"Duration":306122,"SoundDuration":306122,"Delta":255618613},{"NoteNumber":56,"Velocity":40,"Duration":306122,"SoundDuration":306122,"Delta":255618613},{"NoteNumber":60,"Velocity":40,"Duration":306122,"SoundDuration":306122,"Delta":255618613},{"NoteNumber":63,"Velocity":40,"Duration":306122,"SoundDuration":306122,"Delta":255618613},{"NoteNumber":68,"Velocity":48,"Duration":306122,"SoundDuration":306122,"Delta":255618613},{"NoteNumber":73,"Velocity":57,"Duration":618174,"SoundDuration":618174,"Delta":255924735},{"NoteNumber":82,"Velocity":68,"Duration":618174,"SoundDuration":618174,"Delta":255924735},{"NoteNumber":56,"Velocity":44,"Duration":618174,"SoundDuration":618174,"Delta":255924735},{"NoteNumber":58,"Velocity":44,"Duration":618174,"SoundDuration":618174,"Delta":255924735},{"NoteNumber":61,"Velocity":44,"Duration":618174,"SoundDuration":618174,"Delta":255924735},{"NoteNumber":63,"Velocity":44,"Duration":618174,"SoundDuration":618174,"Delta":255924735},{"NoteNumber":67,"Velocity":52,"Duration":618174,"SoundDuration":618174,"Delta":255924735},{"NoteNumber":73,"Velocity":50,"Duration":624284,"SoundDuration":624284,"Delta":256542909},{"NoteNumber":75,"Velocity":60,"Duration":624284,"SoundDuration":624284,"Delta":256542909},{"NoteNumber":56,"Velocity":33,"Duration":624284,"SoundDuration":624284,"Delta":256542909},{"NoteNumber":58,"Velocity":33,"Duration":624284,"SoundDuration":624284,"Delta":256542909},{"NoteNumber":61,"Velocity":33,"Duration":624284,"SoundDuration":624284,"Delta":256542909},{"NoteNumber":63,"Velocity":33,"Duration":624284,"SoundDuration":624284,"Delta":256542909},{"NoteNumber":67,"Velocity":39,"Duration":624284,"SoundDuration":624284,"Delta":256542909},{"NoteNumber":72,"Velocity":50,"Duration":624284,"SoundDuration":624284,"Delta":257167194},{"NoteNumber":80,"Velocity":60,"Duration":624284,"SoundDuration":624284,"Delta":257167194},{"NoteNumber":56,"Velocity":33,"Duration":624284,"SoundDuration":624284,"Delta":257167194},{"NoteNumber":60,"Velocity":33,"Duration":624284,"SoundDuration":624284,"Delta":257167194},{"NoteNumber":63,"Velocity":33,"Duration":624284,"SoundDuration":624284,"Delta":257167194},{"NoteNumber":68,"Velocity":39,"Duration":624284,"SoundDuration":624284,"Delta":257167194},{"NoteNumber":53,"Velocity":108,"Duration":318335,"SoundDuration":318335,"Delta":258415764},{"NoteNumber":29,"Velocity":70,"Duration":318335,"SoundDuration":318335,"Delta":258415764},{"NoteNumber":41,"Velocity":82,"Duration":318335,"SoundDuration":318335,"Delta":258415764},{"NoteNumber":60,"Velocity":81,"Duration":324851,"SoundDuration":324851,"Delta":259052436},{"NoteNumber":65,"Velocity":81,"Duration":324851,"SoundDuration":324851,"Delta":259052436},{"NoteNumber":68,"Velocity":81,"Duration":324851,"SoundDuration":324851,"Delta":259052436},{"NoteNumber":72,"Velocity":96,"Duration":324851,"SoundDuration":324851,"Delta":259052436},{"NoteNumber":41,"Velocity":58,"Duration":324851,"SoundDuration":324851,"Delta":259052436},{"NoteNumber":44,"Velocity":58,"Duration":324851,"SoundDuration":324851,"Delta":259052436},{"NoteNumber":48,"Velocity":58,"Duration":324851,"SoundDuration":324851,"Delta":259052436},{"NoteNumber":53,"Velocity":69,"Duration":324851,"SoundDuration":324851,"Delta":259052436},{"NoteNumber":72,"Velocity":79,"Duration":896860,"SoundDuration":896860,"Delta":259702138},{"NoteNumber":77,"Velocity":79,"Duration":896860,"SoundDuration":896860,"Delta":259702138},{"NoteNumber":80,"Velocity":79,"Duration":896860,"SoundDuration":896860,"Delta":259702138},{"NoteNumber":84,"Velocity":95,"Duration":896860,"SoundDuration":896860,"Delta":259702138},{"NoteNumber":53,"Velocity":59,"Duration":896860,"SoundDuration":896860,"Delta":259702138},{"NoteNumber":56,"Velocity":59,"Duration":896860,"SoundDuration":896860,"Delta":259702138},{"NoteNumber":60,"Velocity":59,"Duration":896860,"SoundDuration":896860,"Delta":259702138},{"NoteNumber":65,"Velocity":70,"Duration":896860,"SoundDuration":896860,"Delta":259702138},{"NoteNumber":80,"Velocity":64,"Duration":306122,"SoundDuration":306122,"Delta":260598999},{"NoteNumber":72,"Velocity":54,"Duration":306122,"SoundDuration":306122,"Delta":260598999},{"NoteNumber":53,"Velocity":40,"Duration":306122,"SoundDuration":306122,"Delta":260598999},{"NoteNumber":56,"Velocity":40,"Duration":306122,"SoundDuration":306122,"Delta":260598999},{"NoteNumber":60,"Velocity":40,"Duration":306122,"SoundDuration":306122,"Delta":260598999},{"NoteNumber":65,"Velocity":48,"Duration":306122,"SoundDuration":306122,"Delta":260598999},{"NoteNumber":70,"Velocity":57,"Duration":618174,"SoundDuration":618174,"Delta":260905121},{"NoteNumber":79,"Velocity":68,"Duration":618174,"SoundDuration":618174,"Delta":260905121},{"NoteNumber":53,"Velocity":44,"Duration":618174,"SoundDuration":618174,"Delta":260905121},{"NoteNumber":55,"Velocity":44,"Duration":618174,"SoundDuration":618174,"Delta":260905121},{"NoteNumber":58,"Velocity":44,"Duration":618174,"SoundDuration":618174,"Delta":260905121},{"NoteNumber":60,"Velocity":44,"Duration":618174,"SoundDuration":618174,"Delta":260905121},{"NoteNumber":64,"Velocity":52,"Duration":618174,"SoundDuration":618174,"Delta":260905121},{"NoteNumber":70,"Velocity":50,"Duration":624284,"SoundDuration":624284,"Delta":261523295},{"NoteNumber":72,"Velocity":60,"Duration":624284,"SoundDuration":624284,"Delta":261523295},{"NoteNumber":53,"Velocity":33,"Duration":624284,"SoundDuration":624284,"Delta":261523295},{"NoteNumber":55,"Velocity":33,"Duration":624284,"SoundDuration":624284,"Delta":261523295},{"NoteNumber":58,"Velocity":33,"Duration":624284,"SoundDuration":624284,"Delta":261523295},{"NoteNumber":60,"Velocity":33,"Duration":624284,"SoundDuration":624284,"Delta":261523295},{"NoteNumber":64,"Velocity":39,"Duration":624284,"SoundDuration":624284,"Delta":261523295},{"NoteNumber":68,"Velocity":50,"Duration":624284,"SoundDuration":624284,"Delta":262147580},{"NoteNumber":77,"Velocity":60,"Duration":624284,"SoundDuration":624284,"Delta":262147580},{"NoteNumber":53,"Velocity":33,"Duration":624284,"SoundDuration":624284,"Delta":262147580},{"NoteNumber":56,"Velocity":33,"Duration":624284,"SoundDuration":624284,"Delta":262147580},{"NoteNumber":60,"Velocity":33,"Duration":624284,"SoundDuration":624284,"Delta":262147580},{"NoteNumber":65,"Velocity":39,"Duration":624284,"SoundDuration":624284,"Delta":262147580},{"NoteNumber":61,"Velocity":108,"Duration":318335,"SoundDuration":318335,"Delta":263396150},{"NoteNumber":37,"Velocity":70,"Duration":318335,"SoundDuration":318335,"Delta":263396150},{"NoteNumber":49,"Velocity":82,"Duration":318335,"SoundDuration":318335,"Delta":263396150},{"NoteNumber":68,"Velocity":81,"Duration":333407,"SoundDuration":333407,"Delta":264032822},{"NoteNumber":73,"Velocity":81,"Duration":333407,"SoundDuration":333407,"Delta":264032822},{"NoteNumber":77,"Velocity":81,"Duration":333407,"SoundDuration":333407,"Delta":264032822},{"NoteNumber":80,"Velocity":96,"Duration":333407,"SoundDuration":333407,"Delta":264032822},{"NoteNumber":49,"Velocity":58,"Duration":333407,"SoundDuration":333407,"Delta":264032822},{"NoteNumber":53,"Velocity":58,"Duration":333407,"SoundDuration":333407,"Delta":264032822},{"NoteNumber":56,"Velocity":58,"Duration":333407,"SoundDuration":333407,"Delta":264032822},{"NoteNumber":61,"Velocity":69,"Duration":333407,"SoundDuration":333407,"Delta":264032822},{"NoteNumber":80,"Velocity":81,"Duration":896860,"SoundDuration":896860,"Delta":264699637},{"NoteNumber":85,"Velocity":81,"Duration":896860,"SoundDuration":896860,"Delta":264699637},{"NoteNumber":89,"Velocity":81,"Duration":896860,"SoundDuration":896860,"Delta":264699637},{"NoteNumber":92,"Velocity":97,"Duration":896860,"SoundDuration":896860,"Delta":264699637},{"NoteNumber":61,"Velocity":60,"Duration":896860,"SoundDuration":896860,"Delta":264699637},{"NoteNumber":65,"Velocity":60,"Duration":896860,"SoundDuration":896860,"Delta":264699637},{"NoteNumber":68,"Velocity":60,"Duration":896860,"SoundDuration":896860,"Delta":264699637},{"NoteNumber":73,"Velocity":71,"Duration":896860,"SoundDuration":896860,"Delta":264699637},{"NoteNumber":89,"Velocity":64,"Duration":306122,"SoundDuration":306122,"Delta":265596498},{"NoteNumber":80,"Velocity":54,"Duration":306122,"SoundDuration":306122,"Delta":265596498},{"NoteNumber":61,"Velocity":40,"Duration":306122,"SoundDuration":306122,"Delta":265596498},{"NoteNumber":65,"Velocity":40,"Duration":306122,"SoundDuration":306122,"Delta":265596498},{"NoteNumber":68,"Velocity":40,"Duration":306122,"SoundDuration":306122,"Delta":265596498},{"NoteNumber":73,"Velocity":48,"Duration":306122,"SoundDuration":306122,"Delta":265596498},{"NoteNumber":78,"Velocity":57,"Duration":618174,"SoundDuration":618174,"Delta":265902620},{"NoteNumber":87,"Velocity":68,"Duration":618174,"SoundDuration":618174,"Delta":265902620},{"NoteNumber":61,"Velocity":44,"Duration":618174,"SoundDuration":618174,"Delta":265902620},{"NoteNumber":63,"Velocity":44,"Duration":618174,"SoundDuration":618174,"Delta":265902620},{"NoteNumber":66,"Velocity":44,"Duration":618174,"SoundDuration":618174,"Delta":265902620},{"NoteNumber":68,"Velocity":44,"Duration":618174,"SoundDuration":618174,"Delta":265902620},{"NoteNumber":72,"Velocity":52,"Duration":618174,"SoundDuration":618174,"Delta":265902620},{"NoteNumber":78,"Velocity":50,"Duration":624284,"SoundDuration":624284,"Delta":266520794},{"NoteNumber":80,"Velocity":60,"Duration":624284,"SoundDuration":624284,"Delta":266520794},{"NoteNumber":61,"Velocity":33,"Duration":624284,"SoundDuration":624284,"Delta":266520794},{"NoteNumber":63,"Velocity":33,"Duration":624284,"SoundDuration":624284,"Delta":266520794},{"NoteNumber":66,"Velocity":33,"Duration":624284,"SoundDuration":624284,"Delta":266520794},{"NoteNumber":68,"Velocity":33,"Duration":624284,"SoundDuration":624284,"Delta":266520794},{"NoteNumber":72,"Velocity":39,"Duration":624284,"SoundDuration":624284,"Delta":266520794},{"NoteNumber":77,"Velocity":50,"Duration":936427,"SoundDuration":936427,"Delta":267145079},{"NoteNumber":85,"Velocity":60,"Duration":936427,"SoundDuration":936427,"Delta":267145079},{"NoteNumber":61,"Velocity":33,"Duration":936427,"SoundDuration":936427,"Delta":267145079},{"NoteNumber":65,"Velocity":33,"Duration":936427,"SoundDuration":936427,"Delta":267145079},{"NoteNumber":68,"Velocity":33,"Duration":936427,"SoundDuration":936427,"Delta":267145079},{"NoteNumber":73,"Velocity":39,"Duration":936427,"SoundDuration":936427,"Delta":267145079},{"NoteNumber":77,"Velocity":51,"Duration":306122,"SoundDuration":306122,"Delta":268081507},{"NoteNumber":68,"Velocity":43,"Duration":306122,"SoundDuration":306122,"Delta":268081507},{"NoteNumber":49,"Velocity":32,"Duration":306122,"SoundDuration":306122,"Delta":268081507},{"NoteNumber":56,"Velocity":32,"Duration":306122,"SoundDuration":306122,"Delta":268081507},{"NoteNumber":61,"Velocity":38,"Duration":306122,"SoundDuration":306122,"Delta":268081507},{"NoteNumber":66,"Velocity":45,"Duration":618174,"SoundDuration":618174,"Delta":268387629},{"NoteNumber":75,"Velocity":54,"Duration":618174,"SoundDuration":618174,"Delta":268387629},{"NoteNumber":49,"Velocity":35,"Duration":618174,"SoundDuration":618174,"Delta":268387629},{"NoteNumber":56,"Velocity":35,"Duration":618174,"SoundDuration":618174,"Delta":268387629},{"NoteNumber":60,"Velocity":41,"Duration":618174,"SoundDuration":618174,"Delta":268387629},{"NoteNumber":66,"Velocity":39,"Duration":624284,"SoundDuration":624284,"Delta":269005803},{"NoteNumber":68,"Velocity":47,"Duration":624284,"SoundDuration":624284,"Delta":269005803},{"NoteNumber":49,"Velocity":26,"Duration":624284,"SoundDuration":624284,"Delta":269005803},{"NoteNumber":56,"Velocity":26,"Duration":624284,"SoundDuration":624284,"Delta":269005803},{"NoteNumber":60,"Velocity":31,"Duration":624284,"SoundDuration":624284,"Delta":269005803},{"NoteNumber":65,"Velocity":39,"Duration":936427,"SoundDuration":936427,"Delta":269630088},{"NoteNumber":73,"Velocity":47,"Duration":936427,"SoundDuration":936427,"Delta":269630088},{"NoteNumber":49,"Velocity":26,"Duration":936427,"SoundDuration":936427,"Delta":269630088},{"NoteNumber":56,"Velocity":26,"Duration":936427,"SoundDuration":936427,"Delta":269630088},{"NoteNumber":61,"Velocity":31,"Duration":936427,"SoundDuration":936427,"Delta":269630088},{"NoteNumber":65,"Velocity":38,"Duration":306122,"SoundDuration":306122,"Delta":270566516},{"NoteNumber":56,"Velocity":32,"Duration":306122,"SoundDuration":306122,"Delta":270566516},{"NoteNumber":37,"Velocity":19,"Duration":306122,"SoundDuration":306122,"Delta":270566516},{"NoteNumber":44,"Velocity":23,"Duration":306122,"SoundDuration":306122,"Delta":270566516},{"NoteNumber":49,"Velocity":28,"Duration":306122,"SoundDuration":306122,"Delta":270566516},{"NoteNumber":54,"Velocity":34,"Duration":611734,"SoundDuration":611734,"Delta":270872638},{"NoteNumber":63,"Velocity":40,"Duration":611734,"SoundDuration":611734,"Delta":270872638},{"NoteNumber":37,"Velocity":22,"Duration":611734,"SoundDuration":611734,"Delta":270872638},{"NoteNumber":44,"Velocity":26,"Duration":611734,"SoundDuration":611734,"Delta":270872638},{"NoteNumber":48,"Velocity":30,"Duration":611734,"SoundDuration":611734,"Delta":270872638},{"NoteNumber":54,"Velocity":29,"Duration":617782,"SoundDuration":617782,"Delta":271490812},{"NoteNumber":56,"Velocity":35,"Duration":617782,"SoundDuration":617782,"Delta":271490812},{"NoteNumber":37,"Velocity":16,"Duration":617782,"SoundDuration":617782,"Delta":271490812},{"NoteNumber":44,"Velocity":19,"Duration":617782,"SoundDuration":617782,"Delta":271490812},{"NoteNumber":48,"Velocity":23,"Duration":617782,"SoundDuration":617782,"Delta":271490812},{"NoteNumber":53,"Velocity":29,"Duration":617782,"SoundDuration":617782,"Delta":272115097},{"NoteNumber":61,"Velocity":35,"Duration":617782,"SoundDuration":617782,"Delta":272115097},{"NoteNumber":37,"Velocity":16,"Duration":617782,"SoundDuration":617782,"Delta":272115097},{"NoteNumber":44,"Velocity":19,"Duration":617782,"SoundDuration":617782,"Delta":272115097},{"NoteNumber":49,"Velocity":23,"Duration":617782,"SoundDuration":617782,"Delta":272115097},{"NoteNumber":56,"Velocity":35,"Duration":617782,"SoundDuration":617782,"Delta":272739382},{"NoteNumber":53,"Velocity":29,"Duration":617782,"SoundDuration":617782,"Delta":272739382},{"NoteNumber":37,"Velocity":16,"Duration":617782,"SoundDuration":617782,"Delta":272739382},{"NoteNumber":44,"Velocity":19,"Duration":617782,"SoundDuration":617782,"Delta":272739382},{"NoteNumber":49,"Velocity":23,"Duration":617782,"SoundDuration":617782,"Delta":272739382},{"NoteNumber":54,"Velocity":34,"Duration":611734,"SoundDuration":611734,"Delta":273363667},{"NoteNumber":63,"Velocity":40,"Duration":611734,"SoundDuration":611734,"Delta":273363667},{"NoteNumber":48,"Velocity":30,"Duration":611734,"SoundDuration":611734,"Delta":273363667},{"NoteNumber":37,"Velocity":22,"Duration":611734,"SoundDuration":611734,"Delta":273363667},{"NoteNumber":44,"Velocity":26,"Duration":611734,"SoundDuration":611734,"Delta":273363667},{"NoteNumber":54,"Velocity":29,"Duration":611734,"SoundDuration":611734,"Delta":273981841},{"NoteNumber":56,"Velocity":35,"Duration":611734,"SoundDuration":611734,"Delta":273981841},{"NoteNumber":48,"Velocity":23,"Duration":611734,"SoundDuration":611734,"Delta":273981841},{"NoteNumber":37,"Velocity":16,"Duration":611734,"SoundDuration":611734,"Delta":273981841},{"NoteNumber":44,"Velocity":19,"Duration":611734,"SoundDuration":611734,"Delta":273981841},{"NoteNumber":54,"Velocity":34,"Duration":611734,"SoundDuration":611734,"Delta":274600015},{"NoteNumber":63,"Velocity":40,"Duration":611734,"SoundDuration":611734,"Delta":274600015},{"NoteNumber":48,"Velocity":30,"Duration":611734,"SoundDuration":611734,"Delta":274600015},{"NoteNumber":37,"Velocity":22,"Duration":611734,"SoundDuration":611734,"Delta":274600015},{"NoteNumber":44,"Velocity":26,"Duration":611734,"SoundDuration":611734,"Delta":274600015},{"NoteNumber":54,"Velocity":29,"Duration":611734,"SoundDuration":611734,"Delta":275218189},{"NoteNumber":56,"Velocity":35,"Duration":611734,"SoundDuration":611734,"Delta":275218189},{"NoteNumber":48,"Velocity":23,"Duration":611734,"SoundDuration":611734,"Delta":275218189},{"NoteNumber":37,"Velocity":16,"Duration":611734,"SoundDuration":611734,"Delta":275218189},{"NoteNumber":44,"Velocity":19,"Duration":611734,"SoundDuration":611734,"Delta":275218189},{"NoteNumber":53,"Velocity":30,"Duration":305623,"SoundDuration":305623,"Delta":275836363},{"NoteNumber":61,"Velocity":36,"Duration":305623,"SoundDuration":305623,"Delta":275836363},{"NoteNumber":37,"Velocity":16,"Duration":305623,"SoundDuration":305623,"Delta":275836363},{"NoteNumber":44,"Velocity":19,"Duration":305623,"SoundDuration":305623,"Delta":275836363},{"NoteNumber":49,"Velocity":23,"Duration":305623,"SoundDuration":305623,"Delta":275836363},{"NoteNumber":56,"Velocity":27,"Duration":575953,"SoundDuration":575953,"Delta":276141987},{"NoteNumber":61,"Velocity":32,"Duration":575953,"SoundDuration":575953,"Delta":276141987},{"NoteNumber":65,"Velocity":38,"Duration":575953,"SoundDuration":575953,"Delta":276141987},{"NoteNumber":49,"Velocity":36,"Duration":291008,"SoundDuration":291008,"Delta":276432995},{"NoteNumber":56,"Velocity":27,"Duration":575953,"SoundDuration":575953,"Delta":276724003},{"NoteNumber":61,"Velocity":32,"Duration":575953,"SoundDuration":575953,"Delta":276724003},{"NoteNumber":65,"Velocity":38,"Duration":575953,"SoundDuration":575953,"Delta":276724003},{"NoteNumber":49,"Velocity":38,"Duration":291008,"SoundDuration":291008,"Delta":277015011},{"NoteNumber":56,"Velocity":27,"Duration":582831,"SoundDuration":582831,"Delta":277306019},{"NoteNumber":61,"Velocity":32,"Duration":582831,"SoundDuration":582831,"Delta":277306019},{"NoteNumber":65,"Velocity":38,"Duration":582831,"SoundDuration":582831,"Delta":277306019},{"NoteNumber":49,"Velocity":38,"Duration":298032,"SoundDuration":298032,"Delta":277597027},{"NoteNumber":65,"Velocity":52,"Duration":280633,"SoundDuration":280633,"Delta":277895060},{"NoteNumber":56,"Velocity":37,"Duration":556349,"SoundDuration":556349,"Delta":277895060},{"NoteNumber":61,"Velocity":44,"Duration":556349,"SoundDuration":556349,"Delta":277895060},{"NoteNumber":63,"Velocity":52,"Duration":276847,"SoundDuration":276847,"Delta":278178052},{"NoteNumber":44,"Velocity":45,"Duration":279173,"SoundDuration":279173,"Delta":278178052},{"NoteNumber":56,"Velocity":30,"Duration":573269,"SoundDuration":573269,"Delta":278457225},{"NoteNumber":60,"Velocity":36,"Duration":573269,"SoundDuration":573269,"Delta":278457225},{"NoteNumber":63,"Velocity":43,"Duration":573269,"SoundDuration":573269,"Delta":278457225},{"NoteNumber":44,"Velocity":42,"Duration":288267,"SoundDuration":288267,"Delta":278748233},{"NoteNumber":56,"Velocity":30,"Duration":570529,"SoundDuration":570529,"Delta":279036501},{"NoteNumber":60,"Velocity":36,"Duration":285865,"SoundDuration":285865,"Delta":279036501},{"NoteNumber":63,"Velocity":43,"Duration":570529,"SoundDuration":570529,"Delta":279036501},{"NoteNumber":59,"Velocity":30,"Duration":285865,"SoundDuration":285865,"Delta":279324768},{"NoteNumber":44,"Velocity":38,"Duration":288267,"SoundDuration":288267,"Delta":279324768},{"NoteNumber":56,"Velocity":30,"Duration":573212,"SoundDuration":573212,"Delta":279613036},{"NoteNumber":59,"Velocity":36,"Duration":573212,"SoundDuration":573212,"Delta":279613036},{"NoteNumber":63,"Velocity":43,"Duration":573212,"SoundDuration":573212,"Delta":279613036},{"NoteNumber":44,"Velocity":38,"Duration":291007,"SoundDuration":291007,"Delta":279901303},{"NoteNumber":56,"Velocity":41,"Duration":279342,"SoundDuration":279342,"Delta":280192311},{"NoteNumber":60,"Velocity":41,"Duration":279342,"SoundDuration":279342,"Delta":280192311},{"NoteNumber":62,"Velocity":49,"Duration":279342,"SoundDuration":279342,"Delta":280192311},{"NoteNumber":65,"Velocity":58,"Duration":279342,"SoundDuration":279342,"Delta":280192311},{"NoteNumber":54,"Velocity":25,"Duration":278089,"SoundDuration":278089,"Delta":280474001},{"NoteNumber":58,"Velocity":30,"Duration":278089,"SoundDuration":278089,"Delta":280474001},{"NoteNumber":63,"Velocity":39,"Duration":278089,"SoundDuration":278089,"Delta":280474001},{"NoteNumber":66,"Velocity":47,"Duration":278089,"SoundDuration":278089,"Delta":280474001},{"NoteNumber":39,"Velocity":25,"Duration":280425,"SoundDuration":280425,"Delta":280474001},{"NoteNumber":58,"Velocity":27,"Duration":571973,"SoundDuration":571973,"Delta":280754427},{"NoteNumber":63,"Velocity":32,"Duration":571973,"SoundDuration":571973,"Delta":280754427},{"NoteNumber":66,"Velocity":38,"Duration":571973,"SoundDuration":571973,"Delta":280754427},{"NoteNumber":51,"Velocity":36,"Duration":286944,"SoundDuration":286944,"Delta":281045435},{"NoteNumber":58,"Velocity":27,"Duration":567909,"SoundDuration":567909,"Delta":281332379},{"NoteNumber":63,"Velocity":32,"Duration":567909,"SoundDuration":567909,"Delta":281332379},{"NoteNumber":66,"Velocity":38,"Duration":567909,"SoundDuration":567909,"Delta":281332379},{"NoteNumber":51,"Velocity":38,"Duration":286944,"SoundDuration":286944,"Delta":281619323},{"NoteNumber":58,"Velocity":27,"Duration":578767,"SoundDuration":578767,"Delta":281906267},{"NoteNumber":63,"Velocity":32,"Duration":578767,"SoundDuration":578767,"Delta":281906267},{"NoteNumber":66,"Velocity":38,"Duration":578767,"SoundDuration":578767,"Delta":281906267},{"NoteNumber":51,"Velocity":38,"Duration":298032,"SoundDuration":298032,"Delta":282193211},{"NoteNumber":66,"Velocity":52,"Duration":280633,"SoundDuration":280633,"Delta":282491244},{"NoteNumber":58,"Velocity":37,"Duration":556349,"SoundDuration":556349,"Delta":282491244},{"NoteNumber":63,"Velocity":44,"Duration":556349,"SoundDuration":556349,"Delta":282491244},{"NoteNumber":65,"Velocity":52,"Duration":276847,"SoundDuration":276847,"Delta":282774236},{"NoteNumber":46,"Velocity":45,"Duration":279173,"SoundDuration":279173,"Delta":282774236},{"NoteNumber":58,"Velocity":30,"Duration":567909,"SoundDuration":567909,"Delta":283053410},{"NoteNumber":62,"Velocity":36,"Duration":567909,"SoundDuration":567909,"Delta":283053410},{"NoteNumber":65,"Velocity":43,"Duration":567909,"SoundDuration":567909,"Delta":283053410},{"NoteNumber":46,"Velocity":42,"Duration":286944,"SoundDuration":286944,"Delta":283340354},{"NoteNumber":58,"Velocity":30,"Duration":567909,"SoundDuration":567909,"Delta":283627298},{"NoteNumber":62,"Velocity":36,"Duration":284552,"SoundDuration":284552,"Delta":283627298},{"NoteNumber":65,"Velocity":43,"Duration":567909,"SoundDuration":567909,"Delta":283627298},{"NoteNumber":61,"Velocity":30,"Duration":284552,"SoundDuration":284552,"Delta":283914242},{"NoteNumber":46,"Velocity":38,"Duration":286944,"SoundDuration":286944,"Delta":283914242},{"NoteNumber":58,"Velocity":30,"Duration":573249,"SoundDuration":573249,"Delta":284201186},{"NoteNumber":61,"Velocity":36,"Duration":573249,"SoundDuration":573249,"Delta":284201186},{"NoteNumber":65,"Velocity":43,"Duration":573249,"SoundDuration":573249,"Delta":284201186},{"NoteNumber":46,"Velocity":41,"Duration":292397,"SoundDuration":292397,"Delta":284488130},{"NoteNumber":58,"Velocity":41,"Duration":284306,"SoundDuration":284306,"Delta":284780527},{"NoteNumber":62,"Velocity":41,"Duration":284306,"SoundDuration":284306,"Delta":284780527},{"NoteNumber":64,"Velocity":49,"Duration":284306,"SoundDuration":284306,"Delta":284780527},{"NoteNumber":67,"Velocity":58,"Duration":284306,"SoundDuration":284306,"Delta":284780527},{"NoteNumber":56,"Velocity":25,"Duration":279342,"SoundDuration":279342,"Delta":285064834},{"NoteNumber":60,"Velocity":30,"Duration":279342,"SoundDuration":279342,"Delta":285064834},{"NoteNumber":65,"Velocity":39,"Duration":279342,"SoundDuration":279342,"Delta":285064834},{"NoteNumber":68,"Velocity":47,"Duration":279342,"SoundDuration":279342,"Delta":285064834},{"NoteNumber":41,"Velocity":25,"Duration":281690,"SoundDuration":281690,"Delta":285064834},{"NoteNumber":60,"Velocity":27,"Duration":567909,"SoundDuration":567909,"Delta":285346524},{"NoteNumber":65,"Velocity":32,"Duration":567909,"SoundDuration":567909,"Delta":285346524},{"NoteNumber":68,"Velocity":38,"Duration":567909,"SoundDuration":567909,"Delta":285346524},{"NoteNumber":53,"Velocity":36,"Duration":286944,"SoundDuration":286944,"Delta":285633468},{"NoteNumber":60,"Velocity":27,"Duration":567909,"SoundDuration":567909,"Delta":285920412},{"NoteNumber":65,"Velocity":32,"Duration":567909,"SoundDuration":567909,"Delta":285920412},{"NoteNumber":68,"Velocity":38,"Duration":567909,"SoundDuration":567909,"Delta":285920412},{"NoteNumber":53,"Velocity":38,"Duration":286944,"SoundDuration":286944,"Delta":286207356},{"NoteNumber":60,"Velocity":27,"Duration":578767,"SoundDuration":578767,"Delta":286494300},{"NoteNumber":65,"Velocity":32,"Duration":578767,"SoundDuration":578767,"Delta":286494300},{"NoteNumber":68,"Velocity":38,"Duration":578767,"SoundDuration":578767,"Delta":286494300},{"NoteNumber":53,"Velocity":38,"Duration":298032,"SoundDuration":298032,"Delta":286781244},{"NoteNumber":68,"Velocity":48,"Duration":280633,"SoundDuration":280633,"Delta":287079277},{"NoteNumber":60,"Velocity":34,"Duration":557575,"SoundDuration":557575,"Delta":287079277},{"NoteNumber":65,"Velocity":40,"Duration":557575,"SoundDuration":557575,"Delta":287079277},{"NoteNumber":67,"Velocity":48,"Duration":278089,"SoundDuration":278089,"Delta":287362269},{"NoteNumber":48,"Velocity":41,"Duration":280425,"SoundDuration":280425,"Delta":287362269},{"NoteNumber":60,"Velocity":30,"Duration":575953,"SoundDuration":575953,"Delta":287642695},{"NoteNumber":64,"Velocity":36,"Duration":575953,"SoundDuration":575953,"Delta":287642695},{"NoteNumber":67,"Velocity":43,"Duration":575953,"SoundDuration":575953,"Delta":287642695},{"NoteNumber":48,"Velocity":42,"Duration":291008,"SoundDuration":291008,"Delta":287933703},{"NoteNumber":60,"Velocity":34,"Duration":563988,"SoundDuration":563988,"Delta":288224711},{"NoteNumber":64,"Velocity":40,"Duration":283225,"SoundDuration":283225,"Delta":288224711},{"NoteNumber":67,"Velocity":48,"Duration":283225,"SoundDuration":283225,"Delta":288224711},{"NoteNumber":68,"Velocity":48,"Duration":281937,"SoundDuration":281937,"Delta":288510316},{"NoteNumber":65,"Velocity":34,"Duration":281937,"SoundDuration":281937,"Delta":288510316},{"NoteNumber":53,"Velocity":38,"Duration":284306,"SoundDuration":284306,"Delta":288510316},{"NoteNumber":60,"Velocity":30,"Duration":573228,"SoundDuration":573228,"Delta":288794623},{"NoteNumber":65,"Velocity":36,"Duration":573228,"SoundDuration":573228,"Delta":288794623},{"NoteNumber":68,"Velocity":43,"Duration":573228,"SoundDuration":573228,"Delta":288794623},{"NoteNumber":53,"Velocity":38,"Duration":289631,"SoundDuration":289631,"Delta":289084254},{"NoteNumber":60,"Velocity":34,"Duration":289630,"SoundDuration":289630,"Delta":289373885},{"NoteNumber":65,"Velocity":40,"Duration":289630,"SoundDuration":289630,"Delta":289373885},{"NoteNumber":68,"Velocity":47,"Duration":289630,"SoundDuration":289630,"Delta":289373885},{"NoteNumber":36,"Velocity":46,"Duration":299611,"SoundDuration":299611,"Delta":289663516},{"NoteNumber":60,"Velocity":36,"Duration":142626,"SoundDuration":142626,"Delta":289820501},{"NoteNumber":64,"Velocity":37,"Duration":142626,"SoundDuration":142626,"Delta":289963128},{"NoteNumber":67,"Velocity":38,"Duration":142626,"SoundDuration":142626,"Delta":290105754},{"NoteNumber":71,"Velocity":40,"Duration":142626,"SoundDuration":142626,"Delta":290248380},{"NoteNumber":52,"Velocity":39,"Duration":574707,"SoundDuration":574707,"Delta":290248380},{"NoteNumber":55,"Velocity":39,"Duration":574707,"SoundDuration":574707,"Delta":290248380},{"NoteNumber":72,"Velocity":41,"Duration":142178,"SoundDuration":142178,"Delta":290391006},{"NoteNumber":76,"Velocity":42,"Duration":143312,"SoundDuration":143312,"Delta":290533185},{"NoteNumber":79,"Velocity":44,"Duration":146590,"SoundDuration":146590,"Delta":290676498},{"NoteNumber":83,"Velocity":45,"Duration":140607,"SoundDuration":140607,"Delta":290823088},{"NoteNumber":52,"Velocity":39,"Duration":1127048,"SoundDuration":1127048,"Delta":290823088},{"NoteNumber":55,"Velocity":39,"Duration":1127048,"SoundDuration":1127048,"Delta":290823088},{"NoteNumber":84,"Velocity":44,"Duration":140607,"SoundDuration":140607,"Delta":290963695},{"NoteNumber":79,"Velocity":43,"Duration":140607,"SoundDuration":140607,"Delta":291104303},{"NoteNumber":76,"Velocity":43,"Duration":140607,"SoundDuration":140607,"Delta":291244910},{"NoteNumber":72,"Velocity":42,"Duration":140607,"SoundDuration":140607,"Delta":291385518},{"NoteNumber":67,"Velocity":41,"Duration":140607,"SoundDuration":140607,"Delta":291526125},{"NoteNumber":64,"Velocity":41,"Duration":139743,"SoundDuration":139743,"Delta":291666733},{"NoteNumber":60,"Velocity":40,"Duration":143660,"SoundDuration":143660,"Delta":291806476},{"NoteNumber":36,"Velocity":46,"Duration":298419,"SoundDuration":298419,"Delta":291950136},{"NoteNumber":61,"Velocity":36,"Duration":140607,"SoundDuration":140607,"Delta":292107948},{"NoteNumber":65,"Velocity":37,"Duration":140607,"SoundDuration":140607,"Delta":292248556},{"NoteNumber":68,"Velocity":38,"Duration":140607,"SoundDuration":140607,"Delta":292389163},{"NoteNumber":72,"Velocity":40,"Duration":140607,"SoundDuration":140607,"Delta":292529771},{"NoteNumber":53,"Velocity":39,"Duration":564116,"SoundDuration":564116,"Delta":292529771},{"NoteNumber":56,"Velocity":39,"Duration":564116,"SoundDuration":564116,"Delta":292529771},{"NoteNumber":73,"Velocity":41,"Duration":139521,"SoundDuration":139521,"Delta":292670378},{"NoteNumber":77,"Velocity":42,"Duration":139955,"SoundDuration":139955,"Delta":292809900},{"NoteNumber":80,"Velocity":44,"Duration":144032,"SoundDuration":144032,"Delta":292949855},{"NoteNumber":84,"Velocity":45,"Duration":139275,"SoundDuration":139275,"Delta":293093887},{"NoteNumber":53,"Velocity":39,"Duration":1117126,"SoundDuration":1117126,"Delta":293093887},{"NoteNumber":56,"Velocity":39,"Duration":1117126,"SoundDuration":1117126,"Delta":293093887},{"NoteNumber":85,"Velocity":44,"Duration":139275,"SoundDuration":139275,"Delta":293233163},{"NoteNumber":80,"Velocity":43,"Duration":139275,"SoundDuration":139275,"Delta":293372439},{"NoteNumber":77,"Velocity":43,"Duration":139275,"SoundDuration":139275,"Delta":293511715},{"NoteNumber":73,"Velocity":42,"Duration":139275,"SoundDuration":139275,"Delta":293650990},{"NoteNumber":68,"Velocity":41,"Duration":139275,"SoundDuration":139275,"Delta":293790266},{"NoteNumber":65,"Velocity":41,"Duration":139286,"SoundDuration":139286,"Delta":293929542},{"NoteNumber":61,"Velocity":40,"Duration":142185,"SoundDuration":142185,"Delta":294068828},{"NoteNumber":36,"Velocity":46,"Duration":297763,"SoundDuration":297763,"Delta":294211014},{"NoteNumber":64,"Velocity":36,"Duration":139951,"SoundDuration":139951,"Delta":294368825},{"NoteNumber":67,"Velocity":37,"Duration":138632,"SoundDuration":138632,"Delta":294508777},{"NoteNumber":70,"Velocity":38,"Duration":138632,"SoundDuration":138632,"Delta":294647409},{"NoteNumber":75,"Velocity":40,"Duration":138632,"SoundDuration":138632,"Delta":294786041},{"NoteNumber":55,"Velocity":39,"Duration":560824,"SoundDuration":560824,"Delta":294786041},{"NoteNumber":58,"Velocity":39,"Duration":560824,"SoundDuration":560824,"Delta":294786041},{"NoteNumber":76,"Velocity":41,"Duration":138204,"SoundDuration":138204,"Delta":294924674},{"NoteNumber":79,"Velocity":42,"Duration":139955,"SoundDuration":139955,"Delta":295062878},{"NoteNumber":82,"Velocity":44,"Duration":144032,"SoundDuration":144032,"Delta":295202834},{"NoteNumber":87,"Velocity":45,"Duration":139275,"SoundDuration":139275,"Delta":295346866},{"NoteNumber":55,"Velocity":39,"Duration":1117126,"SoundDuration":1117126,"Delta":295346866},{"NoteNumber":58,"Velocity":39,"Duration":1117126,"SoundDuration":1117126,"Delta":295346866},{"NoteNumber":88,"Velocity":44,"Duration":139275,"SoundDuration":139275,"Delta":295486142},{"NoteNumber":82,"Velocity":43,"Duration":139275,"SoundDuration":139275,"Delta":295625418},{"NoteNumber":79,"Velocity":43,"Duration":139275,"SoundDuration":139275,"Delta":295764693},{"NoteNumber":76,"Velocity":42,"Duration":139275,"SoundDuration":139275,"Delta":295903969},{"NoteNumber":70,"Velocity":41,"Duration":139275,"SoundDuration":139275,"Delta":296043245},{"NoteNumber":67,"Velocity":41,"Duration":139286,"SoundDuration":139286,"Delta":296182521},{"NoteNumber":64,"Velocity":40,"Duration":142185,"SoundDuration":142185,"Delta":296321807},{"NoteNumber":41,"Velocity":46,"Duration":297763,"SoundDuration":297763,"Delta":296463992},{"NoteNumber":65,"Velocity":36,"Duration":139951,"SoundDuration":139951,"Delta":296621804},{"NoteNumber":69,"Velocity":37,"Duration":138632,"SoundDuration":138632,"Delta":296761755},{"NoteNumber":72,"Velocity":38,"Duration":138632,"SoundDuration":138632,"Delta":296900388},{"NoteNumber":76,"Velocity":40,"Duration":138632,"SoundDuration":138632,"Delta":297039020},{"NoteNumber":57,"Velocity":39,"Duration":560824,"SoundDuration":560824,"Delta":297039020},{"NoteNumber":60,"Velocity":39,"Duration":560824,"SoundDuration":560824,"Delta":297039020},{"NoteNumber":77,"Velocity":41,"Duration":138204,"SoundDuration":138204,"Delta":297177652},{"NoteNumber":81,"Velocity":42,"Duration":139955,"SoundDuration":139955,"Delta":297315857},{"NoteNumber":84,"Velocity":44,"Duration":144032,"SoundDuration":144032,"Delta":297455812},{"NoteNumber":88,"Velocity":45,"Duration":139275,"SoundDuration":139275,"Delta":297599845},{"NoteNumber":57,"Velocity":39,"Duration":1117126,"SoundDuration":1117126,"Delta":297599845},{"NoteNumber":60,"Velocity":39,"Duration":1117126,"SoundDuration":1117126,"Delta":297599845},{"NoteNumber":89,"Velocity":44,"Duration":139275,"SoundDuration":139275,"Delta":297739120},{"NoteNumber":84,"Velocity":43,"Duration":139275,"SoundDuration":139275,"Delta":297878396},{"NoteNumber":81,"Velocity":43,"Duration":139275,"SoundDuration":139275,"Delta":298017672},{"NoteNumber":77,"Velocity":42,"Duration":139275,"SoundDuration":139275,"Delta":298156948},{"NoteNumber":72,"Velocity":41,"Duration":139275,"SoundDuration":139275,"Delta":298296223},{"NoteNumber":69,"Velocity":41,"Duration":139286,"SoundDuration":139286,"Delta":298435499},{"NoteNumber":65,"Velocity":40,"Duration":142185,"SoundDuration":142185,"Delta":298574786},{"NoteNumber":41,"Velocity":46,"Duration":297763,"SoundDuration":297763,"Delta":298716971},{"NoteNumber":66,"Velocity":36,"Duration":139951,"SoundDuration":139951,"Delta":298874782},{"NoteNumber":70,"Velocity":37,"Duration":138632,"SoundDuration":138632,"Delta":299014734},{"NoteNumber":73,"Velocity":38,"Duration":138632,"SoundDuration":138632,"Delta":299153366},{"NoteNumber":77,"Velocity":40,"Duration":138632,"SoundDuration":138632,"Delta":299291998},{"NoteNumber":58,"Velocity":39,"Duration":560824,"SoundDuration":560824,"Delta":299291998},{"NoteNumber":61,"Velocity":39,"Duration":560824,"SoundDuration":560824,"Delta":299291998},{"NoteNumber":78,"Velocity":41,"Duration":138204,"SoundDuration":138204,"Delta":299430631},{"NoteNumber":82,"Velocity":42,"Duration":139955,"SoundDuration":139955,"Delta":299568836},{"NoteNumber":85,"Velocity":44,"Duration":144032,"SoundDuration":144032,"Delta":299708791},{"NoteNumber":89,"Velocity":45,"Duration":139275,"SoundDuration":139275,"Delta":299852823},{"NoteNumber":58,"Velocity":39,"Duration":1117126,"SoundDuration":1117126,"Delta":299852823},{"NoteNumber":61,"Velocity":39,"Duration":1117126,"SoundDuration":1117126,"Delta":299852823},{"NoteNumber":90,"Velocity":44,"Duration":139275,"SoundDuration":139275,"Delta":299992099},{"NoteNumber":85,"Velocity":43,"Duration":139275,"SoundDuration":139275,"Delta":300131375},{"NoteNumber":82,"Velocity":43,"Duration":139275,"SoundDuration":139275,"Delta":300270650},{"NoteNumber":78,"Velocity":42,"Duration":139275,"SoundDuration":139275,"Delta":300409926},{"NoteNumber":73,"Velocity":41,"Duration":139275,"SoundDuration":139275,"Delta":300549202},{"NoteNumber":70,"Velocity":41,"Duration":139286,"SoundDuration":139286,"Delta":300688478},{"NoteNumber":66,"Velocity":40,"Duration":142185,"SoundDuration":142185,"Delta":300827764},{"NoteNumber":41,"Velocity":46,"Duration":297763,"SoundDuration":297763,"Delta":300969949},{"NoteNumber":69,"Velocity":36,"Duration":139951,"SoundDuration":139951,"Delta":301127761},{"NoteNumber":72,"Velocity":37,"Duration":138632,"SoundDuration":138632,"Delta":301267713},{"NoteNumber":75,"Velocity":38,"Duration":138632,"SoundDuration":138632,"Delta":301406345},{"NoteNumber":80,"Velocity":40,"Duration":138632,"SoundDuration":138632,"Delta":301544977},{"NoteNumber":60,"Velocity":39,"Duration":560824,"SoundDuration":560824,"Delta":301544977},{"NoteNumber":63,"Velocity":39,"Duration":560824,"SoundDuration":560824,"Delta":301544977},{"NoteNumber":81,"Velocity":41,"Duration":138204,"SoundDuration":138204,"Delta":301683609},{"NoteNumber":84,"Velocity":42,"Duration":139955,"SoundDuration":139955,"Delta":301821814},{"NoteNumber":87,"Velocity":44,"Duration":144032,"SoundDuration":144032,"Delta":301961770},{"NoteNumber":92,"Velocity":45,"Duration":139275,"SoundDuration":139275,"Delta":302105802},{"NoteNumber":60,"Velocity":39,"Duration":1117126,"SoundDuration":1117126,"Delta":302105802},{"NoteNumber":63,"Velocity":39,"Duration":1117126,"SoundDuration":1117126,"Delta":302105802},{"NoteNumber":93,"Velocity":44,"Duration":139275,"SoundDuration":139275,"Delta":302245078},{"NoteNumber":87,"Velocity":43,"Duration":139275,"SoundDuration":139275,"Delta":302384353},{"NoteNumber":84,"Velocity":43,"Duration":139275,"SoundDuration":139275,"Delta":302523629},{"NoteNumber":81,"Velocity":42,"Duration":139275,"SoundDuration":139275,"Delta":302662905},{"NoteNumber":75,"Velocity":41,"Duration":139275,"SoundDuration":139275,"Delta":302802181},{"NoteNumber":72,"Velocity":41,"Duration":139286,"SoundDuration":139286,"Delta":302941456},{"NoteNumber":69,"Velocity":40,"Duration":142185,"SoundDuration":142185,"Delta":303080743},{"NoteNumber":46,"Velocity":46,"Duration":294030,"SoundDuration":294030,"Delta":303222928},{"NoteNumber":70,"Velocity":39,"Duration":141505,"SoundDuration":141505,"Delta":303375453},{"NoteNumber":74,"Velocity":41,"Duration":140379,"SoundDuration":140379,"Delta":303516958},{"NoteNumber":77,"Velocity":44,"Duration":139286,"SoundDuration":139286,"Delta":303657338},{"NoteNumber":81,"Velocity":46,"Duration":138846,"SoundDuration":138846,"Delta":303796625},{"NoteNumber":62,"Velocity":39,"Duration":561125,"SoundDuration":561125,"Delta":303796625},{"NoteNumber":65,"Velocity":39,"Duration":561125,"SoundDuration":561125,"Delta":303796625},{"NoteNumber":82,"Velocity":44,"Duration":139726,"SoundDuration":139726,"Delta":303935472},{"NoteNumber":77,"Velocity":42,"Duration":140823,"SoundDuration":140823,"Delta":304075198},{"NoteNumber":74,"Velocity":40,"Duration":141728,"SoundDuration":141728,"Delta":304216022},{"NoteNumber":70,"Velocity":45,"Duration":141282,"SoundDuration":141282,"Delta":304357750},{"NoteNumber":62,"Velocity":39,"Duration":1125392,"SoundDuration":1125392,"Delta":304357750},{"NoteNumber":65,"Velocity":39,"Duration":1125392,"SoundDuration":1125392,"Delta":304357750},{"NoteNumber":74,"Velocity":41,"Duration":140594,"SoundDuration":140594,"Delta":304499033},{"NoteNumber":77,"Velocity":43,"Duration":139951,"SoundDuration":139951,"Delta":304639627},{"NoteNumber":81,"Velocity":45,"Duration":139951,"SoundDuration":139951,"Delta":304779579},{"NoteNumber":82,"Velocity":47,"Duration":138846,"SoundDuration":138846,"Delta":304919530},{"NoteNumber":77,"Velocity":45,"Duration":140165,"SoundDuration":140165,"Delta":305058377},{"NoteNumber":74,"Velocity":44,"Duration":141505,"SoundDuration":141505,"Delta":305198543},{"NoteNumber":70,"Velocity":42,"Duration":143094,"SoundDuration":143094,"Delta":305340048},{"NoteNumber":46,"Velocity":46,"Duration":298016,"SoundDuration":298016,"Delta":305483142},{"NoteNumber":71,"Velocity":39,"Duration":144344,"SoundDuration":144344,"Delta":305636814},{"NoteNumber":75,"Velocity":41,"Duration":142514,"SoundDuration":142514,"Delta":305781159},{"NoteNumber":78,"Velocity":44,"Duration":140618,"SoundDuration":140618,"Delta":305923673},{"NoteNumber":82,"Velocity":46,"Duration":139522,"SoundDuration":139522,"Delta":306064292},{"NoteNumber":63,"Velocity":39,"Duration":563822,"SoundDuration":563822,"Delta":306064292},{"NoteNumber":66,"Velocity":39,"Duration":563822,"SoundDuration":563822,"Delta":306064292},{"NoteNumber":83,"Velocity":44,"Duration":140393,"SoundDuration":140393,"Delta":306203814},{"NoteNumber":78,"Velocity":42,"Duration":141505,"SoundDuration":141505,"Delta":306344208},{"NoteNumber":75,"Velocity":40,"Duration":142401,"SoundDuration":142401,"Delta":306485713},{"NoteNumber":71,"Velocity":45,"Duration":143307,"SoundDuration":143307,"Delta":306628114},{"NoteNumber":63,"Velocity":39,"Duration":1127416,"SoundDuration":1127416,"Delta":306628114},{"NoteNumber":66,"Velocity":39,"Duration":1127416,"SoundDuration":1127416,"Delta":306628114},{"NoteNumber":75,"Velocity":41,"Duration":140594,"SoundDuration":140594,"Delta":306771422},{"NoteNumber":78,"Velocity":43,"Duration":139951,"SoundDuration":139951,"Delta":306912016},{"NoteNumber":82,"Velocity":45,"Duration":139951,"SoundDuration":139951,"Delta":307051968},{"NoteNumber":83,"Velocity":47,"Duration":138846,"SoundDuration":138846,"Delta":307191919},{"NoteNumber":78,"Velocity":45,"Duration":140165,"SoundDuration":140165,"Delta":307330766},{"NoteNumber":75,"Velocity":44,"Duration":141505,"SoundDuration":141505,"Delta":307470932},{"NoteNumber":71,"Velocity":42,"Duration":143094,"SoundDuration":143094,"Delta":307612437},{"NoteNumber":46,"Velocity":46,"Duration":297319,"SoundDuration":297319,"Delta":307755531},{"NoteNumber":74,"Velocity":39,"Duration":143881,"SoundDuration":143881,"Delta":307908969},{"NoteNumber":77,"Velocity":41,"Duration":142514,"SoundDuration":142514,"Delta":308052851},{"NoteNumber":80,"Velocity":44,"Duration":141169,"SoundDuration":141169,"Delta":308195366},{"NoteNumber":85,"Velocity":46,"Duration":140178,"SoundDuration":140178,"Delta":308336535},{"NoteNumber":65,"Velocity":39,"Duration":566607,"SoundDuration":566607,"Delta":308336535},{"NoteNumber":68,"Velocity":39,"Duration":566607,"SoundDuration":566607,"Delta":308336535},{"NoteNumber":86,"Velocity":44,"Duration":141057,"SoundDuration":141057,"Delta":308476714},{"NoteNumber":80,"Velocity":42,"Duration":142176,"SoundDuration":142176,"Delta":308617771},{"NoteNumber":77,"Velocity":40,"Duration":143195,"SoundDuration":143195,"Delta":308759948},{"NoteNumber":74,"Velocity":45,"Duration":141282,"SoundDuration":141282,"Delta":308903143},{"NoteNumber":65,"Velocity":39,"Duration":1125392,"SoundDuration":1125392,"Delta":308903143},{"NoteNumber":68,"Velocity":39,"Duration":1125392,"SoundDuration":1125392,"Delta":308903143},{"NoteNumber":77,"Velocity":41,"Duration":140594,"SoundDuration":140594,"Delta":309044425},{"NoteNumber":80,"Velocity":43,"Duration":139951,"SoundDuration":139951,"Delta":309185020},{"NoteNumber":85,"Velocity":45,"Duration":139951,"SoundDuration":139951,"Delta":309324971},{"NoteNumber":86,"Velocity":47,"Duration":138846,"SoundDuration":138846,"Delta":309464923},{"NoteNumber":80,"Velocity":45,"Duration":140165,"SoundDuration":140165,"Delta":309603769},{"NoteNumber":77,"Velocity":44,"Duration":141505,"SoundDuration":141505,"Delta":309743935},{"NoteNumber":74,"Velocity":42,"Duration":143094,"SoundDuration":143094,"Delta":309885441},{"NoteNumber":51,"Velocity":46,"Duration":294030,"SoundDuration":294030,"Delta":310028535},{"NoteNumber":78,"Velocity":39,"Duration":141505,"SoundDuration":141505,"Delta":310181060},{"NoteNumber":77,"Velocity":46,"Duration":140379,"SoundDuration":140379,"Delta":310322565},{"NoteNumber":78,"Velocity":44,"Duration":139286,"SoundDuration":139286,"Delta":310462945},{"NoteNumber":58,"Velocity":39,"Duration":561125,"SoundDuration":561125,"Delta":310602232},{"NoteNumber":63,"Velocity":39,"Duration":561125,"SoundDuration":561125,"Delta":310602232},{"NoteNumber":66,"Velocity":39,"Duration":561125,"SoundDuration":561125,"Delta":310602232},{"NoteNumber":82,"Velocity":44,"Duration":139726,"SoundDuration":139726,"Delta":310741079},{"NoteNumber":81,"Velocity":47,"Duration":140823,"SoundDuration":140823,"Delta":310880805},{"NoteNumber":82,"Velocity":40,"Duration":141728,"SoundDuration":141728,"Delta":311021629},{"NoteNumber":58,"Velocity":39,"Duration":1129578,"SoundDuration":1129578,"Delta":311163357},{"NoteNumber":63,"Velocity":39,"Duration":1129578,"SoundDuration":1129578,"Delta":311163357},{"NoteNumber":66,"Velocity":39,"Duration":1129578,"SoundDuration":1129578,"Delta":311163357},{"NoteNumber":87,"Velocity":41,"Duration":140594,"SoundDuration":140594,"Delta":311304640},{"NoteNumber":86,"Velocity":43,"Duration":139951,"SoundDuration":139951,"Delta":311445234},{"NoteNumber":87,"Velocity":42,"Duration":139951,"SoundDuration":139951,"Delta":311585186},{"NoteNumber":90,"Velocity":47,"Duration":138846,"SoundDuration":138846,"Delta":311725137},{"NoteNumber":87,"Velocity":45,"Duration":140060,"SoundDuration":140060,"Delta":311863984},{"NoteNumber":90,"Velocity":49,"Duration":142295,"SoundDuration":142295,"Delta":312004045},{"NoteNumber":87,"Velocity":42,"Duration":146595,"SoundDuration":146595,"Delta":312146340},{"NoteNumber":90,"Velocity":53,"Duration":152524,"SoundDuration":152524,"Delta":312292936},{"NoteNumber":48,"Velocity":46,"Duration":294030,"SoundDuration":294030,"Delta":312292936},{"NoteNumber":89,"Velocity":51,"Duration":141505,"SoundDuration":141505,"Delta":312445461},{"NoteNumber":87,"Velocity":49,"Duration":140379,"SoundDuration":140379,"Delta":312586966},{"NoteNumber":85,"Velocity":47,"Duration":139286,"SoundDuration":139286,"Delta":312727346},{"NoteNumber":84,"Velocity":45,"Duration":138846,"SoundDuration":138846,"Delta":312866633},{"NoteNumber":56,"Velocity":39,"Duration":561125,"SoundDuration":561125,"Delta":312866633},{"NoteNumber":63,"Velocity":39,"Duration":561125,"SoundDuration":561125,"Delta":312866633},{"NoteNumber":66,"Velocity":39,"Duration":561125,"SoundDuration":561125,"Delta":312866633},{"NoteNumber":85,"Velocity":46,"Duration":139726,"SoundDuration":139726,"Delta":313005479},{"NoteNumber":87,"Velocity":47,"Duration":140823,"SoundDuration":140823,"Delta":313145206},{"NoteNumber":89,"Velocity":48,"Duration":141728,"SoundDuration":141728,"Delta":313286029},{"NoteNumber":90,"Velocity":53,"Duration":141282,"SoundDuration":141282,"Delta":313427758},{"NoteNumber":56,"Velocity":39,"Duration":1125392,"SoundDuration":1125392,"Delta":313427758},{"NoteNumber":63,"Velocity":39,"Duration":1125392,"SoundDuration":1125392,"Delta":313427758},{"NoteNumber":66,"Velocity":39,"Duration":1125392,"SoundDuration":1125392,"Delta":313427758},{"NoteNumber":89,"Velocity":52,"Duration":140594,"SoundDuration":140594,"Delta":313569041},{"NoteNumber":87,"Velocity":51,"Duration":139951,"SoundDuration":139951,"Delta":313709635},{"NoteNumber":85,"Velocity":50,"Duration":139951,"SoundDuration":139951,"Delta":313849586},{"NoteNumber":84,"Velocity":49,"Duration":138846,"SoundDuration":138846,"Delta":313989538},{"NoteNumber":82,"Velocity":48,"Duration":140165,"SoundDuration":140165,"Delta":314128385},{"NoteNumber":80,"Velocity":47,"Duration":141505,"SoundDuration":141505,"Delta":314268550},{"NoteNumber":78,"Velocity":46,"Duration":143094,"SoundDuration":143094,"Delta":314410056},{"NoteNumber":49,"Velocity":39,"Duration":294030,"SoundDuration":294030,"Delta":314553150},{"NoteNumber":77,"Velocity":39,"Duration":141505,"SoundDuration":141505,"Delta":314705675},{"NoteNumber":76,"Velocity":46,"Duration":140379,"SoundDuration":140379,"Delta":314847181},{"NoteNumber":77,"Velocity":44,"Duration":139286,"SoundDuration":139286,"Delta":314987561},{"NoteNumber":56,"Velocity":33,"Duration":561125,"SoundDuration":561125,"Delta":315126847},{"NoteNumber":61,"Velocity":33,"Duration":561125,"SoundDuration":561125,"Delta":315126847},{"NoteNumber":65,"Velocity":33,"Duration":561125,"SoundDuration":561125,"Delta":315126847},{"NoteNumber":80,"Velocity":44,"Duration":139726,"SoundDuration":139726,"Delta":315265694},{"NoteNumber":79,"Velocity":47,"Duration":140823,"SoundDuration":140823,"Delta":315405420},{"NoteNumber":80,"Velocity":40,"Duration":141728,"SoundDuration":141728,"Delta":315546244},{"NoteNumber":56,"Velocity":33,"Duration":1127462,"SoundDuration":1127462,"Delta":315687972},{"NoteNumber":61,"Velocity":33,"Duration":1127462,"SoundDuration":1127462,"Delta":315687972},{"NoteNumber":65,"Velocity":33,"Duration":1127462,"SoundDuration":1127462,"Delta":315687972},{"NoteNumber":85,"Velocity":41,"Duration":140594,"SoundDuration":140594,"Delta":315829255},{"NoteNumber":84,"Velocity":43,"Duration":139951,"SoundDuration":139951,"Delta":315969849},{"NoteNumber":85,"Velocity":42,"Duration":139951,"SoundDuration":139951,"Delta":316109801},{"NoteNumber":89,"Velocity":47,"Duration":138846,"SoundDuration":138846,"Delta":316249752},{"NoteNumber":85,"Velocity":45,"Duration":140165,"SoundDuration":140165,"Delta":316388599},{"NoteNumber":89,"Velocity":49,"Duration":141618,"SoundDuration":141618,"Delta":316528765},{"NoteNumber":85,"Velocity":42,"Duration":145051,"SoundDuration":145051,"Delta":316670383},{"NoteNumber":89,"Velocity":53,"Duration":152524,"SoundDuration":152524,"Delta":316815435},{"NoteNumber":47,"Velocity":39,"Duration":294030,"SoundDuration":294030,"Delta":316815435},{"NoteNumber":87,"Velocity":51,"Duration":141505,"SoundDuration":141505,"Delta":316967960},{"NoteNumber":86,"Velocity":49,"Duration":140379,"SoundDuration":140379,"Delta":317109465},{"NoteNumber":84,"Velocity":47,"Duration":139286,"SoundDuration":139286,"Delta":317249845},{"NoteNumber":83,"Velocity":45,"Duration":138846,"SoundDuration":138846,"Delta":317389132},{"NoteNumber":55,"Velocity":33,"Duration":561125,"SoundDuration":561125,"Delta":317389132},{"NoteNumber":62,"Velocity":33,"Duration":561125,"SoundDuration":561125,"Delta":317389132},{"NoteNumber":65,"Velocity":33,"Duration":561125,"SoundDuration":561125,"Delta":317389132},{"NoteNumber":84,"Velocity":46,"Duration":139726,"SoundDuration":139726,"Delta":317527979},{"NoteNumber":86,"Velocity":47,"Duration":140823,"SoundDuration":140823,"Delta":317667705},{"NoteNumber":87,"Velocity":48,"Duration":141728,"SoundDuration":141728,"Delta":317808529},{"NoteNumber":89,"Velocity":53,"Duration":141282,"SoundDuration":141282,"Delta":317950257},{"NoteNumber":55,"Velocity":33,"Duration":1125392,"SoundDuration":1125392,"Delta":317950257},{"NoteNumber":62,"Velocity":33,"Duration":1125392,"SoundDuration":1125392,"Delta":317950257},{"NoteNumber":65,"Velocity":33,"Duration":1125392,"SoundDuration":1125392,"Delta":317950257},{"NoteNumber":87,"Velocity":52,"Duration":140594,"SoundDuration":140594,"Delta":318091540},{"NoteNumber":86,"Velocity":51,"Duration":139951,"SoundDuration":139951,"Delta":318232134},{"NoteNumber":84,"Velocity":50,"Duration":139951,"SoundDuration":139951,"Delta":318372085},{"NoteNumber":83,"Velocity":49,"Duration":138846,"SoundDuration":138846,"Delta":318512037},{"NoteNumber":80,"Velocity":48,"Duration":140165,"SoundDuration":140165,"Delta":318650884},{"NoteNumber":79,"Velocity":47,"Duration":141505,"SoundDuration":141505,"Delta":318791049},{"NoteNumber":77,"Velocity":46,"Duration":143094,"SoundDuration":143094,"Delta":318932555},{"NoteNumber":48,"Velocity":39,"Duration":294030,"SoundDuration":294030,"Delta":319075649},{"NoteNumber":75,"Velocity":39,"Duration":141505,"SoundDuration":141505,"Delta":319228174},{"NoteNumber":74,"Velocity":46,"Duration":140379,"SoundDuration":140379,"Delta":319369680},{"NoteNumber":75,"Velocity":44,"Duration":139286,"SoundDuration":139286,"Delta":319510060},{"NoteNumber":55,"Velocity":33,"Duration":561125,"SoundDuration":561125,"Delta":319649346},{"NoteNumber":60,"Velocity":33,"Duration":561125,"SoundDuration":561125,"Delta":319649346},{"NoteNumber":63,"Velocity":33,"Duration":561125,"SoundDuration":561125,"Delta":319649346},{"NoteNumber":79,"Velocity":44,"Duration":139726,"SoundDuration":139726,"Delta":319788193},{"NoteNumber":78,"Velocity":47,"Duration":140823,"SoundDuration":140823,"Delta":319927919},{"NoteNumber":79,"Velocity":40,"Duration":141728,"SoundDuration":141728,"Delta":320068743},{"NoteNumber":55,"Velocity":33,"Duration":561779,"SoundDuration":561779,"Delta":320210471},{"NoteNumber":60,"Velocity":33,"Duration":561779,"SoundDuration":561779,"Delta":320210471},{"NoteNumber":63,"Velocity":33,"Duration":561779,"SoundDuration":561779,"Delta":320210471},{"NoteNumber":83,"Velocity":41,"Duration":140594,"SoundDuration":140594,"Delta":320351754},{"NoteNumber":84,"Velocity":43,"Duration":139951,"SoundDuration":139951,"Delta":320492348},{"NoteNumber":83,"Velocity":42,"Duration":139951,"SoundDuration":139951,"Delta":320632300},{"NoteNumber":84,"Velocity":47,"Duration":139637,"SoundDuration":139637,"Delta":320772251},{"NoteNumber":48,"Velocity":33,"Duration":576179,"SoundDuration":576179,"Delta":320772251},{"NoteNumber":86,"Velocity":45,"Duration":142631,"SoundDuration":142631,"Delta":320911888},{"NoteNumber":87,"Velocity":49,"Duration":145752,"SoundDuration":145752,"Delta":321054520},{"NoteNumber":90,"Velocity":42,"Duration":148158,"SoundDuration":148158,"Delta":321200272},{"NoteNumber":91,"Velocity":53,"Duration":153912,"SoundDuration":153912,"Delta":321348431},{"NoteNumber":43,"Velocity":33,"Duration":584337,"SoundDuration":584337,"Delta":321348431},{"NoteNumber":86,"Velocity":51,"Duration":145160,"SoundDuration":145160,"Delta":321502343},{"NoteNumber":83,"Velocity":49,"Duration":143423,"SoundDuration":143423,"Delta":321647504},{"NoteNumber":79,"Velocity":47,"Duration":141840,"SoundDuration":141840,"Delta":321790927},{"NoteNumber":78,"Velocity":45,"Duration":140945,"SoundDuration":140945,"Delta":321932768},{"NoteNumber":55,"Velocity":29,"Duration":573441,"SoundDuration":573441,"Delta":321932768},{"NoteNumber":59,"Velocity":29,"Duration":573441,"SoundDuration":573441,"Delta":321932768},{"NoteNumber":62,"Velocity":29,"Duration":573441,"SoundDuration":573441,"Delta":321932768},{"NoteNumber":79,"Velocity":46,"Duration":142514,"SoundDuration":142514,"Delta":322073713},{"NoteNumber":83,"Velocity":47,"Duration":144112,"SoundDuration":144112,"Delta":322216228},{"NoteNumber":86,"Velocity":48,"Duration":145869,"SoundDuration":145869,"Delta":322360340},{"NoteNumber":87,"Velocity":53,"Duration":153206,"SoundDuration":153206,"Delta":322506209},{"NoteNumber":48,"Velocity":35,"Duration":576112,"SoundDuration":576112,"Delta":322506209},{"NoteNumber":84,"Velocity":51,"Duration":142969,"SoundDuration":142969,"Delta":322659416},{"NoteNumber":79,"Velocity":49,"Duration":140949,"SoundDuration":140949,"Delta":322802385},{"NoteNumber":75,"Velocity":47,"Duration":138988,"SoundDuration":138988,"Delta":322943334},{"NoteNumber":84,"Velocity":51,"Duration":138988,"SoundDuration":138988,"Delta":323082322},{"NoteNumber":55,"Velocity":30,"Duration":568762,"SoundDuration":568762,"Delta":323082322},{"NoteNumber":60,"Velocity":30,"Duration":568762,"SoundDuration":568762,"Delta":323082322},{"NoteNumber":63,"Velocity":30,"Duration":568762,"SoundDuration":568762,"Delta":323082322},{"NoteNumber":79,"Velocity":50,"Duration":140949,"SoundDuration":140949,"Delta":323221310},{"NoteNumber":75,"Velocity":49,"Duration":143309,"SoundDuration":143309,"Delta":323362260},{"NoteNumber":72,"Velocity":48,"Duration":145514,"SoundDuration":145514,"Delta":323505569},{"NoteNumber":83,"Velocity":53,"Duration":152524,"SoundDuration":152524,"Delta":323651084},{"NoteNumber":43,"Velocity":37,"Duration":573696,"SoundDuration":573696,"Delta":323651084},{"NoteNumber":79,"Velocity":51,"Duration":141505,"SoundDuration":141505,"Delta":323803609},{"NoteNumber":74,"Velocity":49,"Duration":140379,"SoundDuration":140379,"Delta":323945115},{"NoteNumber":71,"Velocity":47,"Duration":139286,"SoundDuration":139286,"Delta":324085495},{"NoteNumber":79,"Velocity":51,"Duration":138846,"SoundDuration":138846,"Delta":324224781},{"NoteNumber":50,"Velocity":32,"Duration":561125,"SoundDuration":561125,"Delta":324224781},{"NoteNumber":55,"Velocity":32,"Duration":561125,"SoundDuration":561125,"Delta":324224781},{"NoteNumber":59,"Velocity":32,"Duration":561125,"SoundDuration":561125,"Delta":324224781},{"NoteNumber":74,"Velocity":50,"Duration":139726,"SoundDuration":139726,"Delta":324363628},{"NoteNumber":71,"Velocity":49,"Duration":140823,"SoundDuration":140823,"Delta":324503354},{"NoteNumber":67,"Velocity":48,"Duration":141728,"SoundDuration":141728,"Delta":324644178},{"NoteNumber":75,"Velocity":53,"Duration":153437,"SoundDuration":153437,"Delta":324785907},{"NoteNumber":36,"Velocity":46,"Duration":579775,"SoundDuration":579775,"Delta":324785907},{"NoteNumber":72,"Velocity":51,"Duration":143767,"SoundDuration":143767,"Delta":324939344},{"NoteNumber":67,"Velocity":49,"Duration":142064,"SoundDuration":142064,"Delta":325083112},{"NoteNumber":63,"Velocity":47,"Duration":140505,"SoundDuration":140505,"Delta":325225176},{"NoteNumber":72,"Velocity":51,"Duration":139740,"SoundDuration":139740,"Delta":325365682},{"NoteNumber":48,"Velocity":39,"Duration":570763,"SoundDuration":570763,"Delta":325365682},{"NoteNumber":51,"Velocity":39,"Duration":570763,"SoundDuration":570763,"Delta":325365682},{"NoteNumber":55,"Velocity":39,"Duration":570763,"SoundDuration":570763,"Delta":325365682},{"NoteNumber":67,"Velocity":50,"Duration":141616,"SoundDuration":141616,"Delta":325505422},{"NoteNumber":63,"Velocity":49,"Duration":143653,"SoundDuration":143653,"Delta":325647039},{"NoteNumber":60,"Velocity":48,"Duration":145752,"SoundDuration":145752,"Delta":325790693},{"NoteNumber":71,"Velocity":53,"Duration":152981,"SoundDuration":152981,"Delta":325936445},{"NoteNumber":31,"Velocity":46,"Duration":580891,"SoundDuration":580891,"Delta":325936445},{"NoteNumber":67,"Velocity":51,"Duration":144112,"SoundDuration":144112,"Delta":326089427},{"NoteNumber":62,"Velocity":49,"Duration":142628,"SoundDuration":142628,"Delta":326233539},{"NoteNumber":59,"Velocity":47,"Duration":141169,"SoundDuration":141169,"Delta":326376167},{"NoteNumber":62,"Velocity":47,"Duration":140286,"SoundDuration":140286,"Delta":326517336},{"NoteNumber":47,"Velocity":39,"Duration":569329,"SoundDuration":569329,"Delta":326517336},{"NoteNumber":50,"Velocity":39,"Duration":569329,"SoundDuration":569329,"Delta":326517336},{"NoteNumber":55,"Velocity":39,"Duration":569329,"SoundDuration":569329,"Delta":326517336},{"NoteNumber":65,"Velocity":48,"Duration":141616,"SoundDuration":141616,"Delta":326657622},{"NoteNumber":71,"Velocity":50,"Duration":142966,"SoundDuration":142966,"Delta":326799239},{"NoteNumber":74,"Velocity":52,"Duration":144459,"SoundDuration":144459,"Delta":326942206},{"NoteNumber":72,"Velocity":53,"Duration":153671,"SoundDuration":153671,"Delta":327086666},{"NoteNumber":36,"Velocity":46,"Duration":583282,"SoundDuration":583282,"Delta":327086666},{"NoteNumber":67,"Velocity":51,"Duration":144575,"SoundDuration":144575,"Delta":327240337},{"NoteNumber":63,"Velocity":49,"Duration":143195,"SoundDuration":143195,"Delta":327384913},{"NoteNumber":60,"Velocity":47,"Duration":141840,"SoundDuration":141840,"Delta":327528108},{"NoteNumber":67,"Velocity":51,"Duration":140945,"SoundDuration":140945,"Delta":327669949},{"NoteNumber":43,"Velocity":39,"Duration":572046,"SoundDuration":572046,"Delta":327669949},{"NoteNumber":48,"Velocity":39,"Duration":572046,"SoundDuration":572046,"Delta":327669949},{"NoteNumber":51,"Velocity":39,"Duration":572046,"SoundDuration":572046,"Delta":327669949},{"NoteNumber":63,"Velocity":50,"Duration":142288,"SoundDuration":142288,"Delta":327810894},{"NoteNumber":60,"Velocity":49,"Duration":143651,"SoundDuration":143651,"Delta":327953183},{"NoteNumber":55,"Velocity":48,"Duration":145160,"SoundDuration":145160,"Delta":328096834},{"NoteNumber":67,"Velocity":79,"Duration":152524,"SoundDuration":152524,"Delta":328241995},{"NoteNumber":43,"Velocity":69,"Duration":294030,"SoundDuration":294030,"Delta":328241995},{"NoteNumber":31,"Velocity":69,"Duration":294030,"SoundDuration":294030,"Delta":328241995},{"NoteNumber":62,"Velocity":75,"Duration":141505,"SoundDuration":141505,"Delta":328394520},{"NoteNumber":59,"Velocity":75,"Duration":140379,"SoundDuration":140379,"Delta":328536026},{"NoteNumber":55,"Velocity":70,"Duration":139286,"SoundDuration":139286,"Delta":328676406},{"NoteNumber":59,"Velocity":75,"Duration":138632,"SoundDuration":138632,"Delta":328815692},{"NoteNumber":47,"Velocity":69,"Duration":138632,"SoundDuration":138632,"Delta":328815692},{"NoteNumber":62,"Velocity":71,"Duration":138632,"SoundDuration":138632,"Delta":328954324},{"NoteNumber":50,"Velocity":60,"Duration":138632,"SoundDuration":138632,"Delta":328954324},{"NoteNumber":59,"Velocity":71,"Duration":138632,"SoundDuration":138632,"Delta":329092957},{"NoteNumber":47,"Velocity":60,"Duration":138632,"SoundDuration":138632,"Delta":329092957},{"NoteNumber":55,"Velocity":71,"Duration":146156,"SoundDuration":146156,"Delta":329231589},{"NoteNumber":43,"Velocity":59,"Duration":146156,"SoundDuration":146156,"Delta":329231589},{"NoteNumber":60,"Velocity":70,"Duration":140594,"SoundDuration":140594,"Delta":329377745},{"NoteNumber":48,"Velocity":63,"Duration":140594,"SoundDuration":140594,"Delta":329377745},{"NoteNumber":55,"Velocity":61,"Duration":140594,"SoundDuration":140594,"Delta":329518339},{"NoteNumber":43,"Velocity":52,"Duration":140594,"SoundDuration":140594,"Delta":329518339},{"NoteNumber":51,"Velocity":61,"Duration":140594,"SoundDuration":140594,"Delta":329658933},{"NoteNumber":39,"Velocity":52,"Duration":140594,"SoundDuration":140594,"Delta":329658933},{"NoteNumber":55,"Velocity":60,"Duration":148353,"SoundDuration":148353,"Delta":329799528},{"NoteNumber":43,"Velocity":52,"Duration":148353,"SoundDuration":148353,"Delta":329799528},{"NoteNumber":51,"Velocity":64,"Duration":140594,"SoundDuration":140594,"Delta":329947881},{"NoteNumber":39,"Velocity":57,"Duration":140594,"SoundDuration":140594,"Delta":329947881},{"NoteNumber":55,"Velocity":54,"Duration":140594,"SoundDuration":140594,"Delta":330088475},{"NoteNumber":43,"Velocity":47,"Duration":140594,"SoundDuration":140594,"Delta":330088475},{"NoteNumber":51,"Velocity":54,"Duration":140594,"SoundDuration":140594,"Delta":330229069},{"NoteNumber":39,"Velocity":46,"Duration":140594,"SoundDuration":140594,"Delta":330229069},{"NoteNumber":48,"Velocity":54,"Duration":140594,"SoundDuration":140594,"Delta":330369664},{"NoteNumber":36,"Velocity":45,"Duration":140594,"SoundDuration":140594,"Delta":330369664},{"NoteNumber":31,"Velocity":57,"Duration":305747,"SoundDuration":305747,"Delta":330510258},{"NoteNumber":55,"Velocity":34,"Duration":152873,"SoundDuration":152873,"Delta":330663132},{"NoteNumber":50,"Velocity":34,"Duration":137513,"SoundDuration":137513,"Delta":330816006},{"NoteNumber":47,"Velocity":34,"Duration":137513,"SoundDuration":137513,"Delta":330953520},{"NoteNumber":56,"Velocity":40,"Duration":550054,"SoundDuration":550054,"Delta":331091033},{"NoteNumber":55,"Velocity":34,"Duration":137513,"SoundDuration":137513,"Delta":331228547},{"NoteNumber":50,"Velocity":34,"Duration":137513,"SoundDuration":137513,"Delta":331366061},{"NoteNumber":47,"Velocity":34,"Duration":137513,"SoundDuration":137513,"Delta":331503575},{"NoteNumber":56,"Velocity":40,"Duration":550054,"SoundDuration":550054,"Delta":331641088},{"NoteNumber":55,"Velocity":34,"Duration":137513,"SoundDuration":137513,"Delta":331778602},{"NoteNumber":50,"Velocity":34,"Duration":137513,"SoundDuration":137513,"Delta":331916116},{"NoteNumber":47,"Velocity":34,"Duration":137513,"SoundDuration":137513,"Delta":332053630},{"NoteNumber":56,"Velocity":39,"Duration":558628,"SoundDuration":558628,"Delta":332191143},{"NoteNumber":55,"Velocity":34,"Duration":138835,"SoundDuration":138835,"Delta":332328222},{"NoteNumber":50,"Velocity":34,"Duration":140428,"SoundDuration":140428,"Delta":332467057},{"NoteNumber":47,"Velocity":34,"Duration":142285,"SoundDuration":142285,"Delta":332607486},{"NoteNumber":36,"Velocity":50,"Duration":296296,"SoundDuration":296296,"Delta":332749771},{"NoteNumber":57,"Velocity":34,"Duration":148148,"SoundDuration":148148,"Delta":332897920},{"NoteNumber":51,"Velocity":34,"Duration":137513,"SoundDuration":137513,"Delta":333046068},{"NoteNumber":48,"Velocity":34,"Duration":137513,"SoundDuration":137513,"Delta":333183582},{"NoteNumber":54,"Velocity":40,"Duration":550054,"SoundDuration":550054,"Delta":333321095},{"NoteNumber":57,"Velocity":34,"Duration":137513,"SoundDuration":137513,"Delta":333458609},{"NoteNumber":51,"Velocity":34,"Duration":137513,"SoundDuration":137513,"Delta":333596123},{"NoteNumber":48,"Velocity":34,"Duration":137513,"SoundDuration":137513,"Delta":333733637},{"NoteNumber":54,"Velocity":40,"Duration":550054,"SoundDuration":550054,"Delta":333871150},{"NoteNumber":57,"Velocity":34,"Duration":137513,"SoundDuration":137513,"Delta":334008664},{"NoteNumber":51,"Velocity":34,"Duration":137513,"SoundDuration":137513,"Delta":334146178},{"NoteNumber":48,"Velocity":34,"Duration":137513,"SoundDuration":137513,"Delta":334283692},{"NoteNumber":54,"Velocity":40,"Duration":563874,"SoundDuration":563874,"Delta":334421205},{"NoteNumber":57,"Velocity":34,"Duration":140202,"SoundDuration":140202,"Delta":334559591},{"NoteNumber":51,"Velocity":34,"Duration":141582,"SoundDuration":141582,"Delta":334699793},{"NoteNumber":48,"Velocity":34,"Duration":143703,"SoundDuration":143703,"Delta":334841376},{"NoteNumber":31,"Velocity":50,"Duration":296296,"SoundDuration":296296,"Delta":334985080},{"NoteNumber":55,"Velocity":34,"Duration":148148,"SoundDuration":148148,"Delta":335133228},{"NoteNumber":50,"Velocity":34,"Duration":137513,"SoundDuration":137513,"Delta":335281376},{"NoteNumber":47,"Velocity":34,"Duration":137513,"SoundDuration":137513,"Delta":335418890},{"NoteNumber":56,"Velocity":39,"Duration":550054,"SoundDuration":550054,"Delta":335556404},{"NoteNumber":55,"Velocity":34,"Duration":137513,"SoundDuration":137513,"Delta":335693917},{"NoteNumber":50,"Velocity":34,"Duration":137513,"SoundDuration":137513,"Delta":335831431},{"NoteNumber":47,"Velocity":34,"Duration":137513,"SoundDuration":137513,"Delta":335968945},{"NoteNumber":56,"Velocity":39,"Duration":550054,"SoundDuration":550054,"Delta":336106459},{"NoteNumber":55,"Velocity":34,"Duration":137513,"SoundDuration":137513,"Delta":336243972},{"NoteNumber":50,"Velocity":34,"Duration":137513,"SoundDuration":137513,"Delta":336381486},{"NoteNumber":47,"Velocity":34,"Duration":137513,"SoundDuration":137513,"Delta":336519000},{"NoteNumber":56,"Velocity":39,"Duration":563874,"SoundDuration":563874,"Delta":336656514},{"NoteNumber":55,"Velocity":34,"Duration":140202,"SoundDuration":140202,"Delta":336794899},{"NoteNumber":50,"Velocity":34,"Duration":141582,"SoundDuration":141582,"Delta":336935102},{"NoteNumber":47,"Velocity":34,"Duration":143703,"SoundDuration":143703,"Delta":337076684},{"NoteNumber":36,"Velocity":50,"Duration":296296,"SoundDuration":296296,"Delta":337220388},{"NoteNumber":57,"Velocity":34,"Duration":148148,"SoundDuration":148148,"Delta":337368536},{"NoteNumber":51,"Velocity":34,"Duration":137513,"SoundDuration":137513,"Delta":337516684},{"NoteNumber":48,"Velocity":34,"Duration":137513,"SoundDuration":137513,"Delta":337654198},{"NoteNumber":54,"Velocity":39,"Duration":557207,"SoundDuration":557207,"Delta":337791712},{"NoteNumber":57,"Velocity":34,"Duration":139301,"SoundDuration":139301,"Delta":337931014},{"NoteNumber":51,"Velocity":34,"Duration":139301,"SoundDuration":139301,"Delta":338070315},{"NoteNumber":48,"Velocity":34,"Duration":139301,"SoundDuration":139301,"Delta":338209617},{"NoteNumber":54,"Velocity":39,"Duration":557207,"SoundDuration":557207,"Delta":338348919},{"NoteNumber":57,"Velocity":34,"Duration":139301,"SoundDuration":139301,"Delta":338488221},{"NoteNumber":51,"Velocity":34,"Duration":139301,"SoundDuration":139301,"Delta":338627522},{"NoteNumber":48,"Velocity":34,"Duration":139301,"SoundDuration":139301,"Delta":338766824},{"NoteNumber":54,"Velocity":39,"Duration":579814,"SoundDuration":579814,"Delta":338906126},{"NoteNumber":57,"Velocity":34,"Duration":141368,"SoundDuration":141368,"Delta":339044512},{"NoteNumber":51,"Velocity":34,"Duration":146892,"SoundDuration":146892,"Delta":339185880},{"NoteNumber":48,"Velocity":34,"Duration":153168,"SoundDuration":153168,"Delta":339332772},{"NoteNumber":55,"Velocity":77,"Duration":157928,"SoundDuration":157928,"Delta":339485941},{"NoteNumber":31,"Velocity":85,"Duration":296100,"SoundDuration":296100,"Delta":339485941},{"NoteNumber":50,"Velocity":60,"Duration":138172,"SoundDuration":138172,"Delta":339643869},{"NoteNumber":47,"Velocity":60,"Duration":137513,"SoundDuration":137513,"Delta":339782041},{"NoteNumber":50,"Velocity":60,"Duration":137513,"SoundDuration":137513,"Delta":339919555},{"NoteNumber":55,"Velocity":76,"Duration":142626,"SoundDuration":142626,"Delta":340057069},{"NoteNumber":59,"Velocity":75,"Duration":570505,"SoundDuration":570505,"Delta":340057069},{"NoteNumber":50,"Velocity":60,"Duration":142626,"SoundDuration":142626,"Delta":340199695},{"NoteNumber":47,"Velocity":60,"Duration":142626,"SoundDuration":142626,"Delta":340342321},{"NoteNumber":50,"Velocity":60,"Duration":142626,"SoundDuration":142626,"Delta":340484947},{"NoteNumber":55,"Velocity":76,"Duration":139301,"SoundDuration":139301,"Delta":340627574},{"NoteNumber":59,"Velocity":75,"Duration":1121081,"SoundDuration":1121081,"Delta":340627574},{"NoteNumber":50,"Velocity":59,"Duration":139301,"SoundDuration":139301,"Delta":340766875},{"NoteNumber":47,"Velocity":59,"Duration":139301,"SoundDuration":139301,"Delta":340906177},{"NoteNumber":50,"Velocity":59,"Duration":139301,"SoundDuration":139301,"Delta":341045479},{"NoteNumber":55,"Velocity":67,"Duration":138385,"SoundDuration":138385,"Delta":341184781},{"NoteNumber":50,"Velocity":61,"Duration":140202,"SoundDuration":140202,"Delta":341323166},{"NoteNumber":47,"Velocity":61,"Duration":141582,"SoundDuration":141582,"Delta":341463368},{"NoteNumber":50,"Velocity":61,"Duration":143703,"SoundDuration":143703,"Delta":341604951},{"NoteNumber":59,"Velocity":77,"Duration":157928,"SoundDuration":157928,"Delta":341748655},{"NoteNumber":31,"Velocity":85,"Duration":296100,"SoundDuration":296100,"Delta":341748655},{"NoteNumber":55,"Velocity":60,"Duration":138172,"SoundDuration":138172,"Delta":341906583},{"NoteNumber":50,"Velocity":60,"Duration":137513,"SoundDuration":137513,"Delta":342044755},{"NoteNumber":55,"Velocity":60,"Duration":137513,"SoundDuration":137513,"Delta":342182269},{"NoteNumber":59,"Velocity":76,"Duration":143995,"SoundDuration":143995,"Delta":342319783},{"NoteNumber":62,"Velocity":75,"Duration":575982,"SoundDuration":575982,"Delta":342319783},{"NoteNumber":55,"Velocity":60,"Duration":143995,"SoundDuration":143995,"Delta":342463778},{"NoteNumber":50,"Velocity":60,"Duration":143995,"SoundDuration":143995,"Delta":342607774},{"NoteNumber":55,"Velocity":60,"Duration":143995,"SoundDuration":143995,"Delta":342751769},{"NoteNumber":59,"Velocity":76,"Duration":139964,"SoundDuration":139964,"Delta":342895765},{"NoteNumber":62,"Velocity":75,"Duration":1123732,"SoundDuration":1123732,"Delta":342895765},{"NoteNumber":55,"Velocity":59,"Duration":139964,"SoundDuration":139964,"Delta":343035729},{"NoteNumber":50,"Velocity":59,"Duration":139964,"SoundDuration":139964,"Delta":343175694},{"NoteNumber":55,"Velocity":59,"Duration":139964,"SoundDuration":139964,"Delta":343315658},{"NoteNumber":59,"Velocity":66,"Duration":138385,"SoundDuration":138385,"Delta":343455623},{"NoteNumber":55,"Velocity":58,"Duration":140202,"SoundDuration":140202,"Delta":343594008},{"NoteNumber":50,"Velocity":58,"Duration":141582,"SoundDuration":141582,"Delta":343734211},{"NoteNumber":55,"Velocity":58,"Duration":143703,"SoundDuration":143703,"Delta":343875794},{"NoteNumber":62,"Velocity":77,"Duration":157928,"SoundDuration":157928,"Delta":344019497},{"NoteNumber":31,"Velocity":85,"Duration":296100,"SoundDuration":296100,"Delta":344019497},{"NoteNumber":59,"Velocity":60,"Duration":138172,"SoundDuration":138172,"Delta":344177425},{"NoteNumber":55,"Velocity":60,"Duration":137513,"SoundDuration":137513,"Delta":344315598},{"NoteNumber":59,"Velocity":60,"Duration":137513,"SoundDuration":137513,"Delta":344453111},{"NoteNumber":62,"Velocity":76,"Duration":139964,"SoundDuration":139964,"Delta":344590625},{"NoteNumber":65,"Velocity":75,"Duration":548194,"SoundDuration":548194,"Delta":344590625},{"NoteNumber":59,"Velocity":60,"Duration":139964,"SoundDuration":139964,"Delta":344730590},{"NoteNumber":55,"Velocity":60,"Duration":139964,"SoundDuration":139964,"Delta":344870554},{"NoteNumber":59,"Velocity":60,"Duration":139964,"SoundDuration":139964,"Delta":345010519},{"NoteNumber":62,"Velocity":76,"Duration":137400,"SoundDuration":137400,"Delta":345150483},{"NoteNumber":65,"Velocity":75,"Duration":1109865,"SoundDuration":1109865,"Delta":345150483},{"NoteNumber":59,"Velocity":59,"Duration":137400,"SoundDuration":137400,"Delta":345287884},{"NoteNumber":55,"Velocity":59,"Duration":137400,"SoundDuration":137400,"Delta":345425284},{"NoteNumber":59,"Velocity":59,"Duration":137400,"SoundDuration":137400,"Delta":345562685},{"NoteNumber":62,"Velocity":66,"Duration":138385,"SoundDuration":138385,"Delta":345700085},{"NoteNumber":59,"Velocity":58,"Duration":140202,"SoundDuration":140202,"Delta":345838471},{"NoteNumber":55,"Velocity":58,"Duration":141582,"SoundDuration":141582,"Delta":345978673},{"NoteNumber":59,"Velocity":58,"Duration":143703,"SoundDuration":143703,"Delta":346120256},{"NoteNumber":65,"Velocity":64,"Duration":138172,"SoundDuration":138172,"Delta":346263959},{"NoteNumber":59,"Velocity":39,"Duration":138172,"SoundDuration":138172,"Delta":346402132},{"NoteNumber":62,"Velocity":50,"Duration":138172,"SoundDuration":138172,"Delta":346402132},{"NoteNumber":55,"Velocity":49,"Duration":138172,"SoundDuration":138172,"Delta":346540304},{"NoteNumber":62,"Velocity":49,"Duration":138172,"SoundDuration":138172,"Delta":346678477},{"NoteNumber":59,"Velocity":39,"Duration":138172,"SoundDuration":138172,"Delta":346678477},{"NoteNumber":65,"Velocity":58,"Duration":140199,"SoundDuration":140199,"Delta":346816649},{"NoteNumber":71,"Velocity":64,"Duration":560799,"SoundDuration":560799,"Delta":346816649},{"NoteNumber":62,"Velocity":47,"Duration":140199,"SoundDuration":140199,"Delta":346956849},{"NoteNumber":59,"Velocity":38,"Duration":140199,"SoundDuration":140199,"Delta":346956849},{"NoteNumber":55,"Velocity":47,"Duration":140199,"SoundDuration":140199,"Delta":347097049},{"NoteNumber":62,"Velocity":47,"Duration":140199,"SoundDuration":140199,"Delta":347237249},{"NoteNumber":59,"Velocity":37,"Duration":140199,"SoundDuration":140199,"Delta":347237249},{"NoteNumber":65,"Velocity":61,"Duration":137513,"SoundDuration":137513,"Delta":347377449},{"NoteNumber":59,"Velocity":37,"Duration":137513,"SoundDuration":137513,"Delta":347514963},{"NoteNumber":62,"Velocity":47,"Duration":137513,"SoundDuration":137513,"Delta":347514963},{"NoteNumber":55,"Velocity":47,"Duration":137513,"SoundDuration":137513,"Delta":347652477},{"NoteNumber":62,"Velocity":46,"Duration":137513,"SoundDuration":137513,"Delta":347789991},{"NoteNumber":59,"Velocity":35,"Duration":137513,"SoundDuration":137513,"Delta":347789991},{"NoteNumber":65,"Velocity":54,"Duration":140199,"SoundDuration":140199,"Delta":347927504},{"NoteNumber":74,"Velocity":57,"Duration":560799,"SoundDuration":560799,"Delta":347927504},{"NoteNumber":62,"Velocity":44,"Duration":140199,"SoundDuration":140199,"Delta":348067704},{"NoteNumber":59,"Velocity":35,"Duration":140199,"SoundDuration":140199,"Delta":348067704},{"NoteNumber":55,"Velocity":44,"Duration":140199,"SoundDuration":140199,"Delta":348207904},{"NoteNumber":62,"Velocity":43,"Duration":140199,"SoundDuration":140199,"Delta":348348104},{"NoteNumber":59,"Velocity":34,"Duration":140199,"SoundDuration":140199,"Delta":348348104},{"NoteNumber":65,"Velocity":56,"Duration":138172,"SoundDuration":138172,"Delta":348488304},{"NoteNumber":59,"Velocity":33,"Duration":138172,"SoundDuration":138172,"Delta":348626477},{"NoteNumber":62,"Velocity":42,"Duration":138172,"SoundDuration":138172,"Delta":348626477},{"NoteNumber":55,"Velocity":42,"Duration":138172,"SoundDuration":138172,"Delta":348764649},{"NoteNumber":62,"Velocity":42,"Duration":138172,"SoundDuration":138172,"Delta":348902822},{"NoteNumber":59,"Velocity":32,"Duration":138172,"SoundDuration":138172,"Delta":348902822},{"NoteNumber":65,"Velocity":49,"Duration":140884,"SoundDuration":140884,"Delta":349040994},{"NoteNumber":77,"Velocity":52,"Duration":563538,"SoundDuration":563538,"Delta":349040994},{"NoteNumber":62,"Velocity":39,"Duration":140884,"SoundDuration":140884,"Delta":349181879},{"NoteNumber":59,"Velocity":32,"Duration":140884,"SoundDuration":140884,"Delta":349181879},{"NoteNumber":55,"Velocity":39,"Duration":140884,"SoundDuration":140884,"Delta":349322764},{"NoteNumber":62,"Velocity":39,"Duration":140884,"SoundDuration":140884,"Delta":349463649},{"NoteNumber":59,"Velocity":31,"Duration":140884,"SoundDuration":140884,"Delta":349463649},{"NoteNumber":65,"Velocity":50,"Duration":138172,"SoundDuration":138172,"Delta":349604533},{"NoteNumber":59,"Velocity":30,"Duration":138172,"SoundDuration":138172,"Delta":349742706},{"NoteNumber":62,"Velocity":39,"Duration":138172,"SoundDuration":138172,"Delta":349742706},{"NoteNumber":55,"Velocity":39,"Duration":138172,"SoundDuration":138172,"Delta":349880878},{"NoteNumber":62,"Velocity":38,"Duration":138172,"SoundDuration":138172,"Delta":350019051},{"NoteNumber":59,"Velocity":29,"Duration":138172,"SoundDuration":138172,"Delta":350019051},{"NoteNumber":65,"Velocity":45,"Duration":140884,"SoundDuration":140884,"Delta":350157223},{"NoteNumber":77,"Velocity":52,"Duration":563538,"SoundDuration":563538,"Delta":350157223},{"NoteNumber":62,"Velocity":36,"Duration":140884,"SoundDuration":140884,"Delta":350298108},{"NoteNumber":59,"Velocity":29,"Duration":140884,"SoundDuration":140884,"Delta":350298108},{"NoteNumber":55,"Velocity":35,"Duration":140884,"SoundDuration":140884,"Delta":350438993},{"NoteNumber":62,"Velocity":35,"Duration":140884,"SoundDuration":140884,"Delta":350579878},{"NoteNumber":59,"Velocity":28,"Duration":140884,"SoundDuration":140884,"Delta":350579878},{"NoteNumber":65,"Velocity":43,"Duration":138172,"SoundDuration":138172,"Delta":350720762},{"NoteNumber":77,"Velocity":49,"Duration":552689,"SoundDuration":552689,"Delta":350720762},{"NoteNumber":59,"Velocity":26,"Duration":138172,"SoundDuration":138172,"Delta":350858935},{"NoteNumber":62,"Velocity":33,"Duration":138172,"SoundDuration":138172,"Delta":350858935},{"NoteNumber":55,"Velocity":33,"Duration":138172,"SoundDuration":138172,"Delta":350997107},{"NoteNumber":62,"Velocity":31,"Duration":138172,"SoundDuration":138172,"Delta":351135280},{"NoteNumber":59,"Velocity":24,"Duration":138172,"SoundDuration":138172,"Delta":351135280},{"NoteNumber":65,"Velocity":38,"Duration":140199,"SoundDuration":140199,"Delta":351273452},{"NoteNumber":32,"Velocity":41,"Duration":560799,"SoundDuration":560799,"Delta":351273452},{"NoteNumber":44,"Velocity":41,"Duration":560799,"SoundDuration":560799,"Delta":351273452},{"NoteNumber":62,"Velocity":31,"Duration":140199,"SoundDuration":140199,"Delta":351413652},{"NoteNumber":59,"Velocity":24,"Duration":140199,"SoundDuration":140199,"Delta":351413652},{"NoteNumber":55,"Velocity":30,"Duration":140199,"SoundDuration":140199,"Delta":351553852},{"NoteNumber":62,"Velocity":30,"Duration":140199,"SoundDuration":140199,"Delta":351694052},{"NoteNumber":59,"Velocity":23,"Duration":140199,"SoundDuration":140199,"Delta":351694052},{"NoteNumber":65,"Velocity":42,"Duration":138172,"SoundDuration":138172,"Delta":351834252},{"NoteNumber":31,"Velocity":38,"Duration":276344,"SoundDuration":276344,"Delta":351834252},{"NoteNumber":43,"Velocity":38,"Duration":276344,"SoundDuration":276344,"Delta":351834252},{"NoteNumber":59,"Velocity":25,"Duration":138172,"SoundDuration":138172,"Delta":351972425},{"NoteNumber":62,"Velocity":31,"Duration":138172,"SoundDuration":138172,"Delta":351972425},{"NoteNumber":55,"Velocity":31,"Duration":138172,"SoundDuration":138172,"Delta":352110597},{"NoteNumber":62,"Velocity":30,"Duration":138172,"SoundDuration":138172,"Delta":352248770},{"NoteNumber":59,"Velocity":24,"Duration":138172,"SoundDuration":138172,"Delta":352248770},{"NoteNumber":65,"Velocity":38,"Duration":140199,"SoundDuration":140199,"Delta":352386942},{"NoteNumber":77,"Velocity":50,"Duration":549116,"SoundDuration":549116,"Delta":352386942},{"NoteNumber":62,"Velocity":30,"Duration":140199,"SoundDuration":140199,"Delta":352527142},{"NoteNumber":59,"Velocity":23,"Duration":140199,"SoundDuration":140199,"Delta":352527142},{"NoteNumber":55,"Velocity":30,"Duration":140199,"SoundDuration":140199,"Delta":352667342},{"NoteNumber":62,"Velocity":30,"Duration":140199,"SoundDuration":140199,"Delta":352807542},{"NoteNumber":59,"Velocity":22,"Duration":140199,"SoundDuration":140199,"Delta":352807542},{"NoteNumber":65,"Velocity":40,"Duration":138172,"SoundDuration":138172,"Delta":352947742},{"NoteNumber":77,"Velocity":50,"Duration":552689,"SoundDuration":552689,"Delta":352947742},{"NoteNumber":59,"Velocity":24,"Duration":138172,"SoundDuration":138172,"Delta":353085915},{"NoteNumber":62,"Velocity":30,"Duration":138172,"SoundDuration":138172,"Delta":353085915},{"NoteNumber":55,"Velocity":30,"Duration":138172,"SoundDuration":138172,"Delta":353224087},{"NoteNumber":62,"Velocity":30,"Duration":138172,"SoundDuration":138172,"Delta":353362260},{"NoteNumber":59,"Velocity":23,"Duration":138172,"SoundDuration":138172,"Delta":353362260},{"NoteNumber":65,"Velocity":36,"Duration":140884,"SoundDuration":140884,"Delta":353500432},{"NoteNumber":32,"Velocity":41,"Duration":563538,"SoundDuration":563538,"Delta":353500432},{"NoteNumber":44,"Velocity":41,"Duration":563538,"SoundDuration":563538,"Delta":353500432},{"NoteNumber":62,"Velocity":30,"Duration":140884,"SoundDuration":140884,"Delta":353641317},{"NoteNumber":59,"Velocity":23,"Duration":140884,"SoundDuration":140884,"Delta":353641317},{"NoteNumber":55,"Velocity":29,"Duration":140884,"SoundDuration":140884,"Delta":353782202},{"NoteNumber":62,"Velocity":29,"Duration":140884,"SoundDuration":140884,"Delta":353923087},{"NoteNumber":59,"Velocity":21,"Duration":140884,"SoundDuration":140884,"Delta":353923087},{"NoteNumber":65,"Velocity":40,"Duration":138172,"SoundDuration":138172,"Delta":354063971},{"NoteNumber":31,"Velocity":39,"Duration":276344,"SoundDuration":276344,"Delta":354063971},{"NoteNumber":43,"Velocity":39,"Duration":276344,"SoundDuration":276344,"Delta":354063971},{"NoteNumber":59,"Velocity":23,"Duration":138172,"SoundDuration":138172,"Delta":354202144},{"NoteNumber":62,"Velocity":31,"Duration":138172,"SoundDuration":138172,"Delta":354202144},{"NoteNumber":55,"Velocity":30,"Duration":138172,"SoundDuration":138172,"Delta":354340316},{"NoteNumber":62,"Velocity":29,"Duration":138172,"SoundDuration":138172,"Delta":354478489},{"NoteNumber":59,"Velocity":23,"Duration":138172,"SoundDuration":138172,"Delta":354478489},{"NoteNumber":65,"Velocity":35,"Duration":139521,"SoundDuration":139521,"Delta":354616661},{"NoteNumber":77,"Velocity":45,"Duration":558087,"SoundDuration":558087,"Delta":354616661},{"NoteNumber":62,"Velocity":29,"Duration":139521,"SoundDuration":139521,"Delta":354756183},{"NoteNumber":59,"Velocity":23,"Duration":139521,"SoundDuration":139521,"Delta":354756183},{"NoteNumber":55,"Velocity":28,"Duration":139521,"SoundDuration":139521,"Delta":354895705},{"NoteNumber":62,"Velocity":28,"Duration":139521,"SoundDuration":139521,"Delta":355035227},{"NoteNumber":59,"Velocity":22,"Duration":139521,"SoundDuration":139521,"Delta":355035227},{"NoteNumber":65,"Velocity":39,"Duration":138172,"SoundDuration":138172,"Delta":355174749},{"NoteNumber":59,"Velocity":23,"Duration":138172,"SoundDuration":138172,"Delta":355312922},{"NoteNumber":62,"Velocity":30,"Duration":138172,"SoundDuration":138172,"Delta":355312922},{"NoteNumber":55,"Velocity":30,"Duration":138172,"SoundDuration":138172,"Delta":355451094},{"NoteNumber":62,"Velocity":29,"Duration":138172,"SoundDuration":138172,"Delta":355589267},{"NoteNumber":59,"Velocity":23,"Duration":138172,"SoundDuration":138172,"Delta":355589267},{"NoteNumber":65,"Velocity":36,"Duration":142626,"SoundDuration":142626,"Delta":355727439},{"NoteNumber":77,"Velocity":45,"Duration":570505,"SoundDuration":570505,"Delta":355727439},{"NoteNumber":62,"Velocity":29,"Duration":142626,"SoundDuration":142626,"Delta":355870066},{"NoteNumber":59,"Velocity":23,"Duration":142626,"SoundDuration":142626,"Delta":355870066},{"NoteNumber":55,"Velocity":28,"Duration":142626,"SoundDuration":142626,"Delta":356012692},{"NoteNumber":62,"Velocity":28,"Duration":142626,"SoundDuration":142626,"Delta":356155318},{"NoteNumber":59,"Velocity":22,"Duration":142626,"SoundDuration":142626,"Delta":356155318},{"NoteNumber":65,"Velocity":39,"Duration":139301,"SoundDuration":139301,"Delta":356297944},{"NoteNumber":59,"Velocity":24,"Duration":139301,"SoundDuration":139301,"Delta":356437246},{"NoteNumber":62,"Velocity":30,"Duration":139301,"SoundDuration":139301,"Delta":356437246},{"NoteNumber":55,"Velocity":30,"Duration":139301,"SoundDuration":139301,"Delta":356576548},{"NoteNumber":62,"Velocity":29,"Duration":139301,"SoundDuration":139301,"Delta":356715850},{"NoteNumber":59,"Velocity":23,"Duration":139301,"SoundDuration":139301,"Delta":356715850},{"NoteNumber":65,"Velocity":36,"Duration":143995,"SoundDuration":143995,"Delta":356855151},{"NoteNumber":56,"Velocity":45,"Duration":575982,"SoundDuration":575982,"Delta":356855151},{"NoteNumber":62,"Velocity":29,"Duration":143995,"SoundDuration":143995,"Delta":356999147},{"NoteNumber":59,"Velocity":23,"Duration":143995,"SoundDuration":143995,"Delta":356999147},{"NoteNumber":55,"Velocity":28,"Duration":143995,"SoundDuration":143995,"Delta":357143142},{"NoteNumber":62,"Velocity":28,"Duration":143995,"SoundDuration":143995,"Delta":357287138},{"NoteNumber":59,"Velocity":22,"Duration":143995,"SoundDuration":143995,"Delta":357287138},{"NoteNumber":65,"Velocity":40,"Duration":140607,"SoundDuration":140607,"Delta":357431133},{"NoteNumber":59,"Velocity":24,"Duration":140607,"SoundDuration":140607,"Delta":357571741},{"NoteNumber":62,"Velocity":31,"Duration":140607,"SoundDuration":140607,"Delta":357571741},{"NoteNumber":55,"Velocity":31,"Duration":140607,"SoundDuration":140607,"Delta":357712348},{"NoteNumber":62,"Velocity":30,"Duration":140607,"SoundDuration":140607,"Delta":357852956},{"NoteNumber":59,"Velocity":23,"Duration":140607,"SoundDuration":140607,"Delta":357852956},{"NoteNumber":65,"Velocity":36,"Duration":144690,"SoundDuration":144690,"Delta":357993563},{"NoteNumber":43,"Velocity":46,"Duration":578759,"SoundDuration":578759,"Delta":357993563},{"NoteNumber":62,"Velocity":30,"Duration":144689,"SoundDuration":144689,"Delta":358138253},{"NoteNumber":59,"Velocity":23,"Duration":144689,"SoundDuration":144689,"Delta":358138253},{"NoteNumber":55,"Velocity":29,"Duration":144690,"SoundDuration":144690,"Delta":358282943},{"NoteNumber":62,"Velocity":29,"Duration":144689,"SoundDuration":144689,"Delta":358427633},{"NoteNumber":59,"Velocity":22,"Duration":144689,"SoundDuration":144689,"Delta":358427633},{"NoteNumber":65,"Velocity":40,"Duration":141951,"SoundDuration":141951,"Delta":358572323},{"NoteNumber":59,"Velocity":24,"Duration":141951,"SoundDuration":141951,"Delta":358714275},{"NoteNumber":62,"Velocity":31,"Duration":141951,"SoundDuration":141951,"Delta":358714275},{"NoteNumber":55,"Velocity":31,"Duration":141951,"SoundDuration":141951,"Delta":358856226},{"NoteNumber":62,"Velocity":30,"Duration":141951,"SoundDuration":141951,"Delta":358998177},{"NoteNumber":59,"Velocity":23,"Duration":141951,"SoundDuration":141951,"Delta":358998177},{"NoteNumber":59,"Velocity":68,"Duration":153593,"SoundDuration":153593,"Delta":359140128},{"NoteNumber":71,"Velocity":80,"Duration":153593,"SoundDuration":153593,"Delta":359140128},{"NoteNumber":31,"Velocity":65,"Duration":307187,"SoundDuration":307187,"Delta":359140128},{"NoteNumber":43,"Velocity":77,"Duration":307187,"SoundDuration":307187,"Delta":359140128},{"NoteNumber":62,"Velocity":68,"Duration":153593,"SoundDuration":153593,"Delta":359293722},{"NoteNumber":59,"Velocity":57,"Duration":153593,"SoundDuration":153593,"Delta":359293722},{"NoteNumber":59,"Velocity":57,"Duration":153593,"SoundDuration":153593,"Delta":359447316},{"NoteNumber":71,"Velocity":69,"Duration":153593,"SoundDuration":153593,"Delta":359447316},{"NoteNumber":31,"Velocity":65,"Duration":307187,"SoundDuration":307187,"Delta":359447316},{"NoteNumber":43,"Velocity":77,"Duration":307187,"SoundDuration":307187,"Delta":359447316},{"NoteNumber":62,"Velocity":69,"Duration":153593,"SoundDuration":153593,"Delta":359600910},{"NoteNumber":59,"Velocity":57,"Duration":153593,"SoundDuration":153593,"Delta":359600910},{"NoteNumber":60,"Velocity":87,"Duration":156578,"SoundDuration":156578,"Delta":359754504},{"NoteNumber":64,"Velocity":91,"Duration":156578,"SoundDuration":156578,"Delta":359754504},{"NoteNumber":72,"Velocity":104,"Duration":156578,"SoundDuration":156578,"Delta":359754504},{"NoteNumber":48,"Velocity":79,"Duration":156578,"SoundDuration":156578,"Delta":359754504},{"NoteNumber":36,"Velocity":71,"Duration":156578,"SoundDuration":156578,"Delta":359754504},{"NoteNumber":43,"Velocity":66,"Duration":154238,"SoundDuration":154238,"Delta":359911083},{"NoteNumber":48,"Velocity":70,"Duration":151957,"SoundDuration":151957,"Delta":360065322},{"NoteNumber":52,"Velocity":76,"Duration":149742,"SoundDuration":149742,"Delta":360217280},{"NoteNumber":91,"Velocity":94,"Duration":295159,"SoundDuration":295159,"Delta":360367022},{"NoteNumber":79,"Velocity":77,"Duration":295159,"SoundDuration":295159,"Delta":360367022},{"NoteNumber":55,"Velocity":68,"Duration":147579,"SoundDuration":147579,"Delta":360367022},{"NoteNumber":48,"Velocity":68,"Duration":147579,"SoundDuration":147579,"Delta":360514602},{"NoteNumber":52,"Velocity":68,"Duration":147579,"SoundDuration":147579,"Delta":360662182},{"NoteNumber":55,"Velocity":76,"Duration":147579,"SoundDuration":147579,"Delta":360809762},{"NoteNumber":91,"Velocity":100,"Duration":837520,"SoundDuration":837520,"Delta":360957341},{"NoteNumber":79,"Velocity":84,"Duration":837520,"SoundDuration":837520,"Delta":360957341},{"NoteNumber":60,"Velocity":66,"Duration":139586,"SoundDuration":139586,"Delta":360957341},{"NoteNumber":52,"Velocity":68,"Duration":139586,"SoundDuration":139586,"Delta":361096928},{"NoteNumber":55,"Velocity":71,"Duration":139586,"SoundDuration":139586,"Delta":361236515},{"NoteNumber":60,"Velocity":78,"Duration":139586,"SoundDuration":139586,"Delta":361376102},{"NoteNumber":64,"Velocity":71,"Duration":139586,"SoundDuration":139586,"Delta":361515688},{"NoteNumber":55,"Velocity":71,"Duration":139586,"SoundDuration":139586,"Delta":361655275},{"NoteNumber":88,"Velocity":87,"Duration":279173,"SoundDuration":279173,"Delta":361794862},{"NoteNumber":76,"Velocity":73,"Duration":279173,"SoundDuration":279173,"Delta":361794862},{"NoteNumber":60,"Velocity":71,"Duration":139586,"SoundDuration":139586,"Delta":361794862},{"NoteNumber":64,"Velocity":78,"Duration":139586,"SoundDuration":139586,"Delta":361934449},{"NoteNumber":86,"Velocity":94,"Duration":543526,"SoundDuration":543526,"Delta":362074035},{"NoteNumber":74,"Velocity":77,"Duration":543526,"SoundDuration":543526,"Delta":362074035},{"NoteNumber":65,"Velocity":62,"Duration":135881,"SoundDuration":135881,"Delta":362074035},{"NoteNumber":64,"Velocity":68,"Duration":135881,"SoundDuration":135881,"Delta":362209917},{"NoteNumber":62,"Velocity":71,"Duration":135881,"SoundDuration":135881,"Delta":362345799},{"NoteNumber":60,"Velocity":78,"Duration":135881,"SoundDuration":135881,"Delta":362481681},{"NoteNumber":79,"Velocity":76,"Duration":555761,"SoundDuration":555761,"Delta":362617562},{"NoteNumber":67,"Velocity":63,"Duration":555761,"SoundDuration":555761,"Delta":362617562},{"NoteNumber":59,"Velocity":71,"Duration":138940,"SoundDuration":138940,"Delta":362617562},{"NoteNumber":57,"Velocity":71,"Duration":138940,"SoundDuration":138940,"Delta":362756503},{"NoteNumber":55,"Velocity":76,"Duration":138940,"SoundDuration":138940,"Delta":362895443},{"NoteNumber":53,"Velocity":76,"Duration":138940,"SoundDuration":138940,"Delta":363034383},{"NoteNumber":84,"Velocity":88,"Duration":582016,"SoundDuration":582016,"Delta":363173323},{"NoteNumber":72,"Velocity":75,"Duration":582016,"SoundDuration":582016,"Delta":363173323},{"NoteNumber":52,"Velocity":62,"Duration":145504,"SoundDuration":145504,"Delta":363173323},{"NoteNumber":55,"Velocity":66,"Duration":145503,"SoundDuration":145503,"Delta":363318827},{"NoteNumber":48,"Velocity":70,"Duration":145504,"SoundDuration":145504,"Delta":363464331},{"NoteNumber":52,"Velocity":76,"Duration":145504,"SoundDuration":145504,"Delta":363609835},{"NoteNumber":88,"Velocity":87,"Duration":291007,"SoundDuration":291007,"Delta":363755339},{"NoteNumber":76,"Velocity":73,"Duration":291007,"SoundDuration":291007,"Delta":363755339},{"NoteNumber":43,"Velocity":70,"Duration":145504,"SoundDuration":145504,"Delta":363755339},{"NoteNumber":48,"Velocity":70,"Duration":145503,"SoundDuration":145503,"Delta":363900843},{"NoteNumber":40,"Velocity":71,"Duration":145504,"SoundDuration":145504,"Delta":364046347},{"NoteNumber":43,"Velocity":76,"Duration":151209,"SoundDuration":151209,"Delta":364191851},{"NoteNumber":36,"Velocity":94,"Duration":157364,"SoundDuration":157364,"Delta":364343061},{"NoteNumber":43,"Velocity":66,"Duration":150961,"SoundDuration":150961,"Delta":364500426},{"NoteNumber":48,"Velocity":70,"Duration":149742,"SoundDuration":149742,"Delta":364651388},{"NoteNumber":52,"Velocity":76,"Duration":148301,"SoundDuration":148301,"Delta":364801131},{"NoteNumber":91,"Velocity":94,"Duration":295159,"SoundDuration":295159,"Delta":364949433},{"NoteNumber":79,"Velocity":77,"Duration":295159,"SoundDuration":295159,"Delta":364949433},{"NoteNumber":55,"Velocity":68,"Duration":147579,"SoundDuration":147579,"Delta":364949433},{"NoteNumber":48,"Velocity":68,"Duration":147579,"SoundDuration":147579,"Delta":365097012},{"NoteNumber":52,"Velocity":68,"Duration":147579,"SoundDuration":147579,"Delta":365244592},{"NoteNumber":55,"Velocity":76,"Duration":147579,"SoundDuration":147579,"Delta":365392172},{"NoteNumber":91,"Velocity":100,"Duration":837520,"SoundDuration":837520,"Delta":365539752},{"NoteNumber":79,"Velocity":84,"Duration":837520,"SoundDuration":837520,"Delta":365539752},{"NoteNumber":60,"Velocity":66,"Duration":139586,"SoundDuration":139586,"Delta":365539752},{"NoteNumber":52,"Velocity":68,"Duration":139586,"SoundDuration":139586,"Delta":365679338},{"NoteNumber":55,"Velocity":71,"Duration":139586,"SoundDuration":139586,"Delta":365818925},{"NoteNumber":60,"Velocity":78,"Duration":139586,"SoundDuration":139586,"Delta":365958512},{"NoteNumber":64,"Velocity":71,"Duration":139586,"SoundDuration":139586,"Delta":366098099},{"NoteNumber":55,"Velocity":71,"Duration":139586,"SoundDuration":139586,"Delta":366237685},{"NoteNumber":88,"Velocity":87,"Duration":279173,"SoundDuration":279173,"Delta":366377272},{"NoteNumber":76,"Velocity":73,"Duration":279173,"SoundDuration":279173,"Delta":366377272},{"NoteNumber":60,"Velocity":71,"Duration":139586,"SoundDuration":139586,"Delta":366377272},{"NoteNumber":64,"Velocity":71,"Duration":139586,"SoundDuration":139586,"Delta":366516859},{"NoteNumber":86,"Velocity":94,"Duration":543526,"SoundDuration":543526,"Delta":366656446},{"NoteNumber":74,"Velocity":77,"Duration":543526,"SoundDuration":543526,"Delta":366656446},{"NoteNumber":65,"Velocity":62,"Duration":135881,"SoundDuration":135881,"Delta":366656446},{"NoteNumber":64,"Velocity":68,"Duration":135881,"SoundDuration":135881,"Delta":366792327},{"NoteNumber":62,"Velocity":71,"Duration":135881,"SoundDuration":135881,"Delta":366928209},{"NoteNumber":60,"Velocity":78,"Duration":135881,"SoundDuration":135881,"Delta":367064091},{"NoteNumber":79,"Velocity":76,"Duration":555761,"SoundDuration":555761,"Delta":367199973},{"NoteNumber":67,"Velocity":63,"Duration":555761,"SoundDuration":555761,"Delta":367199973},{"NoteNumber":59,"Velocity":71,"Duration":138940,"SoundDuration":138940,"Delta":367199973},{"NoteNumber":55,"Velocity":71,"Duration":138940,"SoundDuration":138940,"Delta":367338913},{"NoteNumber":57,"Velocity":76,"Duration":138940,"SoundDuration":138940,"Delta":367477853},{"NoteNumber":59,"Velocity":76,"Duration":138940,"SoundDuration":138940,"Delta":367616793},{"NoteNumber":84,"Velocity":83,"Duration":291007,"SoundDuration":291007,"Delta":367755734},{"NoteNumber":72,"Velocity":69,"Duration":291007,"SoundDuration":291007,"Delta":367755734},{"NoteNumber":60,"Velocity":62,"Duration":145504,"SoundDuration":145504,"Delta":367755734},{"NoteNumber":59,"Velocity":64,"Duration":145503,"SoundDuration":145503,"Delta":367901238},{"NoteNumber":57,"Velocity":68,"Duration":145504,"SoundDuration":145504,"Delta":368046742},{"NoteNumber":55,"Velocity":73,"Duration":145504,"SoundDuration":145504,"Delta":368192246},{"NoteNumber":53,"Velocity":68,"Duration":145504,"SoundDuration":145504,"Delta":368337750},{"NoteNumber":52,"Velocity":68,"Duration":145503,"SoundDuration":145503,"Delta":368483254},{"NoteNumber":50,"Velocity":69,"Duration":145504,"SoundDuration":145504,"Delta":368628758},{"NoteNumber":48,"Velocity":74,"Duration":150466,"SoundDuration":150466,"Delta":368774262},{"NoteNumber":43,"Velocity":80,"Duration":157364,"SoundDuration":157364,"Delta":368924728},{"NoteNumber":47,"Velocity":58,"Duration":152455,"SoundDuration":152455,"Delta":369082093},{"NoteNumber":50,"Velocity":62,"Duration":150473,"SoundDuration":150473,"Delta":369234548},{"NoteNumber":55,"Velocity":67,"Duration":148301,"SoundDuration":148301,"Delta":369385022},{"NoteNumber":89,"Velocity":82,"Duration":295159,"SoundDuration":295159,"Delta":369533324},{"NoteNumber":77,"Velocity":69,"Duration":295159,"SoundDuration":295159,"Delta":369533324},{"NoteNumber":47,"Velocity":60,"Duration":147579,"SoundDuration":147579,"Delta":369533324},{"NoteNumber":50,"Velocity":60,"Duration":147579,"SoundDuration":147579,"Delta":369680904},{"NoteNumber":55,"Velocity":60,"Duration":147579,"SoundDuration":147579,"Delta":369828483},{"NoteNumber":59,"Velocity":68,"Duration":147579,"SoundDuration":147579,"Delta":369976063},{"NoteNumber":89,"Velocity":86,"Duration":837520,"SoundDuration":837520,"Delta":370123643},{"NoteNumber":77,"Velocity":73,"Duration":837520,"SoundDuration":837520,"Delta":370123643},{"NoteNumber":50,"Velocity":58,"Duration":139586,"SoundDuration":139586,"Delta":370123643},{"NoteNumber":55,"Velocity":60,"Duration":139586,"SoundDuration":139586,"Delta":370263230},{"NoteNumber":59,"Velocity":63,"Duration":139586,"SoundDuration":139586,"Delta":370402816},{"NoteNumber":62,"Velocity":70,"Duration":139586,"SoundDuration":139586,"Delta":370542403},{"NoteNumber":55,"Velocity":53,"Duration":139586,"SoundDuration":139586,"Delta":370681990},{"NoteNumber":59,"Velocity":53,"Duration":139586,"SoundDuration":139586,"Delta":370821577},{"NoteNumber":86,"Velocity":55,"Duration":279173,"SoundDuration":279173,"Delta":370961163},{"NoteNumber":74,"Velocity":45,"Duration":279173,"SoundDuration":279173,"Delta":370961163},{"NoteNumber":62,"Velocity":45,"Duration":139586,"SoundDuration":139586,"Delta":370961163},{"NoteNumber":67,"Velocity":50,"Duration":139586,"SoundDuration":139586,"Delta":371100750},{"NoteNumber":88,"Velocity":52,"Duration":543526,"SoundDuration":543526,"Delta":371240337},{"NoteNumber":76,"Velocity":44,"Duration":543526,"SoundDuration":543526,"Delta":371240337},{"NoteNumber":55,"Velocity":28,"Duration":135881,"SoundDuration":135881,"Delta":371240337},{"NoteNumber":60,"Velocity":32,"Duration":135881,"SoundDuration":135881,"Delta":371376219},{"NoteNumber":67,"Velocity":34,"Duration":135881,"SoundDuration":135881,"Delta":371512100},{"NoteNumber":60,"Velocity":37,"Duration":135881,"SoundDuration":135881,"Delta":371647982},{"NoteNumber":84,"Velocity":42,"Duration":555761,"SoundDuration":555761,"Delta":371783864},{"NoteNumber":72,"Velocity":35,"Duration":555761,"SoundDuration":555761,"Delta":371783864},{"NoteNumber":55,"Velocity":28,"Duration":138940,"SoundDuration":138940,"Delta":371783864},{"NoteNumber":64,"Velocity":32,"Duration":138940,"SoundDuration":138940,"Delta":371922804},{"NoteNumber":67,"Velocity":34,"Duration":138940,"SoundDuration":138940,"Delta":372061744},{"NoteNumber":64,"Velocity":37,"Duration":138940,"SoundDuration":138940,"Delta":372200685},{"NoteNumber":83,"Velocity":52,"Duration":582016,"SoundDuration":582016,"Delta":372339625},{"NoteNumber":71,"Velocity":44,"Duration":582016,"SoundDuration":582016,"Delta":372339625},{"NoteNumber":55,"Velocity":28,"Duration":145504,"SoundDuration":145504,"Delta":372339625},{"NoteNumber":62,"Velocity":31,"Duration":145503,"SoundDuration":145503,"Delta":372485129},{"NoteNumber":67,"Velocity":33,"Duration":145504,"SoundDuration":145504,"Delta":372630633},{"NoteNumber":62,"Velocity":37,"Duration":145504,"SoundDuration":145504,"Delta":372776137},{"NoteNumber":86,"Velocity":49,"Duration":291007,"SoundDuration":291007,"Delta":372921641},{"NoteNumber":74,"Velocity":41,"Duration":291007,"SoundDuration":291007,"Delta":372921641},{"NoteNumber":55,"Velocity":28,"Duration":145504,"SoundDuration":145504,"Delta":372921641},{"NoteNumber":59,"Velocity":31,"Duration":145503,"SoundDuration":145503,"Delta":373067145},{"NoteNumber":67,"Velocity":33,"Duration":145504,"SoundDuration":145504,"Delta":373212649},{"NoteNumber":59,"Velocity":36,"Duration":150466,"SoundDuration":150466,"Delta":373358153},{"NoteNumber":43,"Velocity":86,"Duration":157364,"SoundDuration":157364,"Delta":373508619},{"NoteNumber":47,"Velocity":58,"Duration":152455,"SoundDuration":152455,"Delta":373665984},{"NoteNumber":50,"Velocity":62,"Duration":150473,"SoundDuration":150473,"Delta":373818439},{"NoteNumber":55,"Velocity":67,"Duration":148301,"SoundDuration":148301,"Delta":373968913},{"NoteNumber":89,"Velocity":78,"Duration":295159,"SoundDuration":295159,"Delta":374117215},{"NoteNumber":77,"Velocity":66,"Duration":295159,"SoundDuration":295159,"Delta":374117215},{"NoteNumber":47,"Velocity":60,"Duration":147579,"SoundDuration":147579,"Delta":374117215},{"NoteNumber":50,"Velocity":60,"Duration":147579,"SoundDuration":147579,"Delta":374264795},{"NoteNumber":55,"Velocity":60,"Duration":147579,"SoundDuration":147579,"Delta":374412375},{"NoteNumber":59,"Velocity":68,"Duration":147579,"SoundDuration":147579,"Delta":374559954},{"NoteNumber":89,"Velocity":85,"Duration":837520,"SoundDuration":837520,"Delta":374707534},{"NoteNumber":77,"Velocity":71,"Duration":837520,"SoundDuration":837520,"Delta":374707534},{"NoteNumber":50,"Velocity":58,"Duration":139586,"SoundDuration":139586,"Delta":374707534},{"NoteNumber":55,"Velocity":60,"Duration":139586,"SoundDuration":139586,"Delta":374847121},{"NoteNumber":59,"Velocity":63,"Duration":139586,"SoundDuration":139586,"Delta":374986708},{"NoteNumber":62,"Velocity":70,"Duration":139586,"SoundDuration":139586,"Delta":375126294},{"NoteNumber":55,"Velocity":53,"Duration":139586,"SoundDuration":139586,"Delta":375265881},{"NoteNumber":59,"Velocity":53,"Duration":139586,"SoundDuration":139586,"Delta":375405468},{"NoteNumber":86,"Velocity":62,"Duration":279173,"SoundDuration":279173,"Delta":375545055},{"NoteNumber":74,"Velocity":51,"Duration":279173,"SoundDuration":279173,"Delta":375545055},{"NoteNumber":62,"Velocity":53,"Duration":139586,"SoundDuration":139586,"Delta":375545055},{"NoteNumber":67,"Velocity":59,"Duration":139586,"SoundDuration":139586,"Delta":375684641},{"NoteNumber":87,"Velocity":50,"Duration":543526,"SoundDuration":543526,"Delta":375824228},{"NoteNumber":75,"Velocity":42,"Duration":543526,"SoundDuration":543526,"Delta":375824228},{"NoteNumber":55,"Velocity":26,"Duration":135881,"SoundDuration":135881,"Delta":375824228},{"NoteNumber":60,"Velocity":30,"Duration":135881,"SoundDuration":135881,"Delta":375960110},{"NoteNumber":67,"Velocity":32,"Duration":135881,"SoundDuration":135881,"Delta":376095992},{"NoteNumber":60,"Velocity":33,"Duration":135881,"SoundDuration":135881,"Delta":376231873},{"NoteNumber":84,"Velocity":39,"Duration":555761,"SoundDuration":555761,"Delta":376367755},{"NoteNumber":72,"Velocity":33,"Duration":555761,"SoundDuration":555761,"Delta":376367755},{"NoteNumber":55,"Velocity":26,"Duration":138940,"SoundDuration":138940,"Delta":376367755},{"NoteNumber":63,"Velocity":30,"Duration":138940,"SoundDuration":138940,"Delta":376506695},{"NoteNumber":67,"Velocity":32,"Duration":138940,"SoundDuration":138940,"Delta":376645636},{"NoteNumber":63,"Velocity":33,"Duration":138940,"SoundDuration":138940,"Delta":376784576},{"NoteNumber":83,"Velocity":50,"Duration":582016,"SoundDuration":582016,"Delta":376923516},{"NoteNumber":71,"Velocity":42,"Duration":582016,"SoundDuration":582016,"Delta":376923516},{"NoteNumber":55,"Velocity":26,"Duration":145504,"SoundDuration":145504,"Delta":376923516},{"NoteNumber":62,"Velocity":30,"Duration":145503,"SoundDuration":145503,"Delta":377069020},{"NoteNumber":67,"Velocity":31,"Duration":145504,"SoundDuration":145504,"Delta":377214524},{"NoteNumber":62,"Velocity":33,"Duration":145504,"SoundDuration":145504,"Delta":377360028},{"NoteNumber":86,"Velocity":45,"Duration":582016,"SoundDuration":582016,"Delta":377505532},{"NoteNumber":74,"Velocity":38,"Duration":582016,"SoundDuration":582016,"Delta":377505532},{"NoteNumber":55,"Velocity":26,"Duration":145504,"SoundDuration":145504,"Delta":377505532},{"NoteNumber":59,"Velocity":30,"Duration":145503,"SoundDuration":145503,"Delta":377651036},{"NoteNumber":67,"Velocity":31,"Duration":145504,"SoundDuration":145504,"Delta":377796540},{"NoteNumber":59,"Velocity":33,"Duration":145504,"SoundDuration":145504,"Delta":377942044},{"NoteNumber":88,"Velocity":60,"Duration":543526,"SoundDuration":543526,"Delta":378087548},{"NoteNumber":76,"Velocity":50,"Duration":543526,"SoundDuration":543526,"Delta":378087548},{"NoteNumber":55,"Velocity":33,"Duration":135881,"SoundDuration":135881,"Delta":378087548},{"NoteNumber":60,"Velocity":37,"Duration":135881,"SoundDuration":135881,"Delta":378223430},{"NoteNumber":67,"Velocity":39,"Duration":135881,"SoundDuration":135881,"Delta":378359312},{"NoteNumber":60,"Velocity":42,"Duration":135881,"SoundDuration":135881,"Delta":378495193},{"NoteNumber":84,"Velocity":50,"Duration":555761,"SoundDuration":555761,"Delta":378631075},{"NoteNumber":72,"Velocity":42,"Duration":555761,"SoundDuration":555761,"Delta":378631075},{"NoteNumber":55,"Velocity":33,"Duration":138940,"SoundDuration":138940,"Delta":378631075},{"NoteNumber":64,"Velocity":38,"Duration":138940,"SoundDuration":138940,"Delta":378770015},{"NoteNumber":67,"Velocity":40,"Duration":138940,"SoundDuration":138940,"Delta":378908956},{"NoteNumber":64,"Velocity":44,"Duration":138940,"SoundDuration":138940,"Delta":379047896},{"NoteNumber":83,"Velocity":63,"Duration":582016,"SoundDuration":582016,"Delta":379186836},{"NoteNumber":71,"Velocity":54,"Duration":582016,"SoundDuration":582016,"Delta":379186836},{"NoteNumber":55,"Velocity":34,"Duration":145504,"SoundDuration":145504,"Delta":379186836},{"NoteNumber":62,"Velocity":38,"Duration":145503,"SoundDuration":145503,"Delta":379332340},{"NoteNumber":67,"Velocity":40,"Duration":145504,"SoundDuration":145504,"Delta":379477844},{"NoteNumber":62,"Velocity":45,"Duration":145504,"SoundDuration":145504,"Delta":379623348},{"NoteNumber":86,"Velocity":62,"Duration":582016,"SoundDuration":582016,"Delta":379768852},{"NoteNumber":74,"Velocity":52,"Duration":582016,"SoundDuration":582016,"Delta":379768852},{"NoteNumber":55,"Velocity":37,"Duration":145504,"SoundDuration":145504,"Delta":379768852},{"NoteNumber":59,"Velocity":39,"Duration":145503,"SoundDuration":145503,"Delta":379914356},{"NoteNumber":67,"Velocity":43,"Duration":145504,"SoundDuration":145504,"Delta":380059860},{"NoteNumber":59,"Velocity":46,"Duration":145504,"SoundDuration":145504,"Delta":380205364},{"NoteNumber":87,"Velocity":60,"Duration":543526,"SoundDuration":543526,"Delta":380350868},{"NoteNumber":75,"Velocity":60,"Duration":543526,"SoundDuration":543526,"Delta":380350868},{"NoteNumber":55,"Velocity":33,"Duration":135881,"SoundDuration":135881,"Delta":380350868},{"NoteNumber":60,"Velocity":37,"Duration":135881,"SoundDuration":135881,"Delta":380486750},{"NoteNumber":67,"Velocity":39,"Duration":135881,"SoundDuration":135881,"Delta":380622632},{"NoteNumber":60,"Velocity":42,"Duration":135881,"SoundDuration":135881,"Delta":380758513},{"NoteNumber":84,"Velocity":49,"Duration":555761,"SoundDuration":555761,"Delta":380894395},{"NoteNumber":72,"Velocity":40,"Duration":555761,"SoundDuration":555761,"Delta":380894395},{"NoteNumber":55,"Velocity":33,"Duration":138940,"SoundDuration":138940,"Delta":380894395},{"NoteNumber":60,"Velocity":37,"Duration":138940,"SoundDuration":138940,"Delta":381033335},{"NoteNumber":63,"Velocity":39,"Duration":138940,"SoundDuration":138940,"Delta":381172276},{"NoteNumber":60,"Velocity":42,"Duration":138940,"SoundDuration":138940,"Delta":381311216},{"NoteNumber":79,"Velocity":50,"Duration":582016,"SoundDuration":582016,"Delta":381450156},{"NoteNumber":55,"Velocity":28,"Duration":145504,"SoundDuration":145504,"Delta":381450156},{"NoteNumber":59,"Velocity":30,"Duration":145503,"SoundDuration":145503,"Delta":381595660},{"NoteNumber":62,"Velocity":32,"Duration":145504,"SoundDuration":145504,"Delta":381741164},{"NoteNumber":59,"Velocity":35,"Duration":145504,"SoundDuration":145504,"Delta":381886668},{"NoteNumber":79,"Velocity":47,"Duration":576534,"SoundDuration":576534,"Delta":382032172},{"NoteNumber":55,"Velocity":28,"Duration":144133,"SoundDuration":144133,"Delta":382032172},{"NoteNumber":60,"Velocity":30,"Duration":144133,"SoundDuration":144133,"Delta":382176306},{"NoteNumber":63,"Velocity":32,"Duration":144133,"SoundDuration":144133,"Delta":382320440},{"NoteNumber":60,"Velocity":35,"Duration":144133,"SoundDuration":144133,"Delta":382464573},{"NoteNumber":81,"Velocity":37,"Duration":97002,"SoundDuration":97002,"Delta":382608707},{"NoteNumber":55,"Velocity":47,"Duration":72751,"SoundDuration":72751,"Delta":382608707},{"NoteNumber":79,"Velocity":37,"Duration":97002,"SoundDuration":97002,"Delta":382705710},{"NoteNumber":59,"Velocity":30,"Duration":145503,"SoundDuration":145503,"Delta":382754211},{"NoteNumber":81,"Velocity":37,"Duration":97002,"SoundDuration":97002,"Delta":382802712},{"NoteNumber":79,"Velocity":37,"Duration":97002,"SoundDuration":97002,"Delta":382899715},{"NoteNumber":62,"Velocity":31,"Duration":145504,"SoundDuration":145504,"Delta":382899715},{"NoteNumber":81,"Velocity":38,"Duration":97002,"SoundDuration":97002,"Delta":382996718},{"NoteNumber":59,"Velocity":32,"Duration":145504,"SoundDuration":145504,"Delta":383045219},{"NoteNumber":79,"Velocity":38,"Duration":97002,"SoundDuration":97002,"Delta":383093720},{"NoteNumber":81,"Velocity":39,"Duration":96543,"SoundDuration":96543,"Delta":383190723},{"NoteNumber":55,"Velocity":53,"Duration":72407,"SoundDuration":72407,"Delta":383190723},{"NoteNumber":79,"Velocity":39,"Duration":96543,"SoundDuration":96543,"Delta":383287267},{"NoteNumber":60,"Velocity":32,"Duration":144815,"SoundDuration":144815,"Delta":383335539},{"NoteNumber":81,"Velocity":39,"Duration":96543,"SoundDuration":96543,"Delta":383383810},{"NoteNumber":79,"Velocity":39,"Duration":96543,"SoundDuration":96543,"Delta":383480354},{"NoteNumber":64,"Velocity":33,"Duration":144815,"SoundDuration":144815,"Delta":383480354},{"NoteNumber":81,"Velocity":40,"Duration":96543,"SoundDuration":96543,"Delta":383576898},{"NoteNumber":60,"Velocity":34,"Duration":144361,"SoundDuration":144361,"Delta":383625170},{"NoteNumber":79,"Velocity":40,"Duration":96089,"SoundDuration":96089,"Delta":383673441},{"NoteNumber":81,"Velocity":41,"Duration":96089,"SoundDuration":96089,"Delta":383769531},{"NoteNumber":55,"Velocity":57,"Duration":72066,"SoundDuration":72066,"Delta":383769531},{"NoteNumber":79,"Velocity":41,"Duration":96089,"SoundDuration":96089,"Delta":383865620},{"NoteNumber":59,"Velocity":35,"Duration":143692,"SoundDuration":143692,"Delta":383913664},{"NoteNumber":81,"Velocity":41,"Duration":95647,"SoundDuration":95647,"Delta":383961709},{"NoteNumber":79,"Velocity":43,"Duration":95648,"SoundDuration":95648,"Delta":384057357},{"NoteNumber":62,"Velocity":38,"Duration":143471,"SoundDuration":143471,"Delta":384057357},{"NoteNumber":81,"Velocity":43,"Duration":95424,"SoundDuration":95424,"Delta":384153005},{"NoteNumber":59,"Velocity":38,"Duration":142802,"SoundDuration":142802,"Delta":384200829},{"NoteNumber":79,"Velocity":43,"Duration":95201,"SoundDuration":95201,"Delta":384248430},{"NoteNumber":81,"Velocity":44,"Duration":95201,"SoundDuration":95201,"Delta":384343632},{"NoteNumber":55,"Velocity":64,"Duration":71401,"SoundDuration":71401,"Delta":384343632},{"NoteNumber":79,"Velocity":44,"Duration":94768,"SoundDuration":94768,"Delta":384438834},{"NoteNumber":57,"Velocity":39,"Duration":142153,"SoundDuration":142153,"Delta":384486218},{"NoteNumber":81,"Velocity":45,"Duration":94768,"SoundDuration":94768,"Delta":384533602},{"NoteNumber":79,"Velocity":45,"Duration":94549,"SoundDuration":94549,"Delta":384628371},{"NoteNumber":60,"Velocity":41,"Duration":141715,"SoundDuration":141715,"Delta":384628371},{"NoteNumber":81,"Velocity":45,"Duration":94330,"SoundDuration":94330,"Delta":384722921},{"NoteNumber":57,"Velocity":43,"Duration":141495,"SoundDuration":141495,"Delta":384770086},{"NoteNumber":79,"Velocity":45,"Duration":94330,"SoundDuration":94330,"Delta":384817252},{"NoteNumber":81,"Velocity":47,"Duration":93581,"SoundDuration":93581,"Delta":384911582},{"NoteNumber":55,"Velocity":71,"Duration":70317,"SoundDuration":70317,"Delta":384911582},{"NoteNumber":79,"Velocity":47,"Duration":92221,"SoundDuration":92221,"Delta":385005164},{"NoteNumber":59,"Velocity":47,"Duration":140656,"SoundDuration":140656,"Delta":385051171},{"NoteNumber":81,"Velocity":47,"Duration":94441,"SoundDuration":94441,"Delta":385097386},{"NoteNumber":79,"Velocity":47,"Duration":92751,"SoundDuration":92751,"Delta":385191827},{"NoteNumber":57,"Velocity":49,"Duration":138964,"SoundDuration":138964,"Delta":385191827},{"NoteNumber":81,"Velocity":47,"Duration":93269,"SoundDuration":93269,"Delta":385284579},{"NoteNumber":55,"Velocity":50,"Duration":141825,"SoundDuration":141825,"Delta":385330792},{"NoteNumber":79,"Velocity":48,"Duration":94768,"SoundDuration":94768,"Delta":385377848},{"NoteNumber":81,"Velocity":48,"Duration":92734,"SoundDuration":92734,"Delta":385472617},{"NoteNumber":53,"Velocity":76,"Duration":69577,"SoundDuration":69577,"Delta":385472617},{"NoteNumber":79,"Velocity":48,"Duration":93478,"SoundDuration":93478,"Delta":385565352},{"NoteNumber":57,"Velocity":50,"Duration":141718,"SoundDuration":141718,"Delta":385611773},{"NoteNumber":81,"Velocity":49,"Duration":94661,"SoundDuration":94661,"Delta":385658830},{"NoteNumber":79,"Velocity":49,"Duration":92734,"SoundDuration":92734,"Delta":385753492},{"NoteNumber":55,"Velocity":53,"Duration":138947,"SoundDuration":138947,"Delta":385753492},{"NoteNumber":81,"Velocity":50,"Duration":93269,"SoundDuration":93269,"Delta":385846226},{"NoteNumber":53,"Velocity":55,"Duration":141825,"SoundDuration":141825,"Delta":385892439},{"NoteNumber":79,"Velocity":51,"Duration":94768,"SoundDuration":94768,"Delta":385939496},{"NoteNumber":81,"Velocity":51,"Duration":93800,"SoundDuration":93800,"Delta":386034265},{"NoteNumber":52,"Velocity":85,"Duration":70643,"SoundDuration":70643,"Delta":386034265},{"NoteNumber":79,"Velocity":52,"Duration":92734,"SoundDuration":92734,"Delta":386128066},{"NoteNumber":55,"Velocity":58,"Duration":140111,"SoundDuration":140111,"Delta":386174379},{"NoteNumber":81,"Velocity":52,"Duration":93690,"SoundDuration":93690,"Delta":386220800},{"NoteNumber":79,"Velocity":52,"Duration":92626,"SoundDuration":92626,"Delta":386314490},{"NoteNumber":53,"Velocity":61,"Duration":139048,"SoundDuration":139048,"Delta":386314490},{"NoteNumber":81,"Velocity":54,"Duration":93369,"SoundDuration":93369,"Delta":386407117},{"NoteNumber":52,"Velocity":64,"Duration":140845,"SoundDuration":140845,"Delta":386453538},{"NoteNumber":79,"Velocity":54,"Duration":93896,"SoundDuration":93896,"Delta":386500487},{"NoteNumber":81,"Velocity":54,"Duration":93896,"SoundDuration":93896,"Delta":386594383},{"NoteNumber":50,"Velocity":90,"Duration":70422,"SoundDuration":70422,"Delta":386594383},{"NoteNumber":79,"Velocity":55,"Duration":94330,"SoundDuration":94330,"Delta":386688280},{"NoteNumber":53,"Velocity":68,"Duration":142150,"SoundDuration":142150,"Delta":386735445},{"NoteNumber":81,"Velocity":55,"Duration":94985,"SoundDuration":94985,"Delta":386782611},{"NoteNumber":79,"Velocity":55,"Duration":95424,"SoundDuration":95424,"Delta":386877596},{"NoteNumber":52,"Velocity":72,"Duration":143469,"SoundDuration":143469,"Delta":386877596},{"NoteNumber":81,"Velocity":56,"Duration":96089,"SoundDuration":96089,"Delta":386973021},{"NoteNumber":50,"Velocity":76,"Duration":144817,"SoundDuration":144817,"Delta":387021065},{"NoteNumber":79,"Velocity":56,"Duration":96773,"SoundDuration":96773,"Delta":387069110},{"NoteNumber":81,"Velocity":48,"Duration":94566,"SoundDuration":94566,"Delta":387165883},{"NoteNumber":36,"Velocity":94,"Duration":282921,"SoundDuration":282921,"Delta":387165883},{"NoteNumber":48,"Velocity":94,"Duration":282921,"SoundDuration":282921,"Delta":387165883},{"NoteNumber":79,"Velocity":35,"Duration":93695,"SoundDuration":93695,"Delta":387260450},{"NoteNumber":50,"Velocity":56,"Duration":70858,"SoundDuration":70858,"Delta":387306979},{"NoteNumber":81,"Velocity":38,"Duration":94659,"SoundDuration":94659,"Delta":387354145},{"NoteNumber":52,"Velocity":57,"Duration":70966,"SoundDuration":70966,"Delta":387377837},{"NoteNumber":79,"Velocity":35,"Duration":92431,"SoundDuration":92431,"Delta":387448804},{"NoteNumber":53,"Velocity":60,"Duration":69583,"SoundDuration":69583,"Delta":387448804},{"NoteNumber":55,"Velocity":60,"Duration":69268,"SoundDuration":69268,"Delta":387518388},{"NoteNumber":81,"Velocity":38,"Duration":93054,"SoundDuration":93054,"Delta":387541236},{"NoteNumber":57,"Velocity":62,"Duration":70002,"SoundDuration":70002,"Delta":387587657},{"NoteNumber":79,"Velocity":36,"Duration":93370,"SoundDuration":93370,"Delta":387634290},{"NoteNumber":59,"Velocity":63,"Duration":70002,"SoundDuration":70002,"Delta":387657659},{"NoteNumber":81,"Velocity":40,"Duration":91205,"SoundDuration":91205,"Delta":387727661},{"NoteNumber":91,"Velocity":89,"Duration":274828,"SoundDuration":274828,"Delta":387727661},{"NoteNumber":60,"Velocity":63,"Duration":136504,"SoundDuration":136504,"Delta":387727661},{"NoteNumber":79,"Velocity":36,"Duration":91305,"SoundDuration":91305,"Delta":387818866},{"NoteNumber":62,"Velocity":65,"Duration":69163,"SoundDuration":69163,"Delta":387864165},{"NoteNumber":81,"Velocity":40,"Duration":92317,"SoundDuration":92317,"Delta":387910172},{"NoteNumber":64,"Velocity":66,"Duration":69161,"SoundDuration":69161,"Delta":387933329},{"NoteNumber":79,"Velocity":36,"Duration":87879,"SoundDuration":87879,"Delta":388002490},{"NoteNumber":65,"Velocity":67,"Duration":65911,"SoundDuration":65911,"Delta":388002490},{"NoteNumber":67,"Velocity":69,"Duration":67267,"SoundDuration":67267,"Delta":388068401},{"NoteNumber":81,"Velocity":40,"Duration":91205,"SoundDuration":91205,"Delta":388090370},{"NoteNumber":69,"Velocity":70,"Duration":68553,"SoundDuration":68553,"Delta":388135669},{"NoteNumber":79,"Velocity":36,"Duration":90587,"SoundDuration":90587,"Delta":388181575},{"NoteNumber":71,"Velocity":71,"Duration":67940,"SoundDuration":67940,"Delta":388204222},{"NoteNumber":81,"Velocity":40,"Duration":90793,"SoundDuration":90793,"Delta":388272163},{"NoteNumber":91,"Velocity":90,"Duration":831573,"SoundDuration":831573,"Delta":388272163},{"NoteNumber":72,"Velocity":74,"Duration":68043,"SoundDuration":68043,"Delta":388272163},{"NoteNumber":79,"Velocity":37,"Duration":90798,"SoundDuration":90798,"Delta":388362957},{"NoteNumber":71,"Velocity":71,"Duration":68857,"SoundDuration":68857,"Delta":388408055},{"NoteNumber":81,"Velocity":40,"Duration":93690,"SoundDuration":93690,"Delta":388453755},{"NoteNumber":79,"Velocity":36,"Duration":92119,"SoundDuration":92119,"Delta":388547446},{"NoteNumber":69,"Velocity":71,"Duration":69271,"SoundDuration":69271,"Delta":388547446},{"NoteNumber":81,"Velocity":40,"Duration":92740,"SoundDuration":92740,"Delta":388639565},{"NoteNumber":67,"Velocity":71,"Duration":70002,"SoundDuration":70002,"Delta":388685672},{"NoteNumber":79,"Velocity":36,"Duration":93266,"SoundDuration":93266,"Delta":388732306},{"NoteNumber":81,"Velocity":40,"Duration":91810,"SoundDuration":91810,"Delta":388825572},{"NoteNumber":65,"Velocity":72,"Duration":69060,"SoundDuration":69060,"Delta":388825572},{"NoteNumber":79,"Velocity":35,"Duration":92022,"SoundDuration":92022,"Delta":388917383},{"NoteNumber":64,"Velocity":69,"Duration":70007,"SoundDuration":70007,"Delta":388962981},{"NoteNumber":81,"Velocity":38,"Duration":94330,"SoundDuration":94330,"Delta":389009406},{"NoteNumber":79,"Velocity":33,"Duration":91097,"SoundDuration":91097,"Delta":389103737},{"NoteNumber":88,"Velocity":85,"Duration":275755,"SoundDuration":275755,"Delta":389103737},{"NoteNumber":62,"Velocity":69,"Duration":68347,"SoundDuration":68347,"Delta":389103737},{"NoteNumber":81,"Velocity":38,"Duration":92435,"SoundDuration":92435,"Delta":389194835},{"NoteNumber":60,"Velocity":67,"Duration":69793,"SoundDuration":69793,"Delta":389240741},{"NoteNumber":79,"Velocity":34,"Duration":92221,"SoundDuration":92221,"Delta":389287270},{"NoteNumber":81,"Velocity":38,"Duration":89998,"SoundDuration":89998,"Delta":389379492},{"NoteNumber":86,"Velocity":90,"Duration":539369,"SoundDuration":539369,"Delta":389379492},{"NoteNumber":59,"Velocity":73,"Duration":67645,"SoundDuration":67645,"Delta":389379492},{"NoteNumber":79,"Velocity":34,"Duration":89121,"SoundDuration":89121,"Delta":389469491},{"NoteNumber":60,"Velocity":69,"Duration":66963,"SoundDuration":66963,"Delta":389514198},{"NoteNumber":81,"Velocity":36,"Duration":90395,"SoundDuration":90395,"Delta":389558613},{"NoteNumber":79,"Velocity":33,"Duration":88549,"SoundDuration":88549,"Delta":389649008},{"NoteNumber":59,"Velocity":69,"Duration":66484,"SoundDuration":66484,"Delta":389649008},{"NoteNumber":81,"Velocity":37,"Duration":90798,"SoundDuration":90798,"Delta":389737558},{"NoteNumber":57,"Velocity":69,"Duration":68244,"SoundDuration":68244,"Delta":389782661},{"NoteNumber":79,"Velocity":33,"Duration":90504,"SoundDuration":90504,"Delta":389828357},{"NoteNumber":81,"Velocity":37,"Duration":91910,"SoundDuration":91910,"Delta":389918861},{"NoteNumber":79,"Velocity":84,"Duration":183629,"SoundDuration":183629,"Delta":389918861},{"NoteNumber":55,"Velocity":75,"Duration":69063,"SoundDuration":69063,"Delta":389918861},{"NoteNumber":79,"Velocity":33,"Duration":275243,"SoundDuration":275243,"Delta":390010772},{"NoteNumber":53,"Velocity":69,"Duration":69690,"SoundDuration":69690,"Delta":390056169},{"NoteNumber":81,"Velocity":38,"Duration":92323,"SoundDuration":92323,"Delta":390102491},{"NoteNumber":79,"Velocity":32,"Duration":276484,"SoundDuration":276484,"Delta":390194815},{"NoteNumber":52,"Velocity":69,"Duration":68250,"SoundDuration":68250,"Delta":390194815},{"NoteNumber":81,"Velocity":37,"Duration":93058,"SoundDuration":93058,"Delta":390286016},{"NoteNumber":50,"Velocity":69,"Duration":69481,"SoundDuration":69481,"Delta":390332649},{"NoteNumber":79,"Velocity":32,"Duration":92225,"SoundDuration":92225,"Delta":390379074},{"NoteNumber":81,"Velocity":38,"Duration":92139,"SoundDuration":92139,"Delta":390471299},{"NoteNumber":84,"Velocity":87,"Duration":556195,"SoundDuration":556195,"Delta":390471299},{"NoteNumber":48,"Velocity":75,"Duration":68556,"SoundDuration":68556,"Delta":390471299},{"NoteNumber":79,"Velocity":32,"Duration":92115,"SoundDuration":92115,"Delta":390563439},{"NoteNumber":48,"Velocity":69,"Duration":69689,"SoundDuration":69689,"Delta":390609340},{"NoteNumber":81,"Velocity":37,"Duration":93587,"SoundDuration":93587,"Delta":390655554},{"NoteNumber":79,"Velocity":32,"Duration":92638,"SoundDuration":92638,"Delta":390749142},{"NoteNumber":47,"Velocity":69,"Duration":69269,"SoundDuration":69269,"Delta":390749142},{"NoteNumber":81,"Velocity":36,"Duration":92969,"SoundDuration":92969,"Delta":390841780},{"NoteNumber":45,"Velocity":69,"Duration":69168,"SoundDuration":69168,"Delta":390888637},{"NoteNumber":79,"Velocity":32,"Duration":92745,"SoundDuration":92745,"Delta":390934749},{"NoteNumber":81,"Velocity":36,"Duration":95111,"SoundDuration":95111,"Delta":391027495},{"NoteNumber":88,"Velocity":84,"Duration":287673,"SoundDuration":287673,"Delta":391027495},{"NoteNumber":43,"Velocity":72,"Duration":70860,"SoundDuration":70860,"Delta":391027495},{"NoteNumber":79,"Velocity":34,"Duration":97465,"SoundDuration":97465,"Delta":391122606},{"NoteNumber":41,"Velocity":71,"Duration":72644,"SoundDuration":72644,"Delta":391171339},{"NoteNumber":81,"Velocity":37,"Duration":95096,"SoundDuration":95096,"Delta":391220072},{"NoteNumber":79,"Velocity":33,"Duration":96444,"SoundDuration":96444,"Delta":391315169},{"NoteNumber":40,"Velocity":75,"Duration":72193,"SoundDuration":72193,"Delta":391315169},{"NoteNumber":81,"Velocity":36,"Duration":98904,"SoundDuration":98904,"Delta":391411613},{"NoteNumber":38,"Velocity":80,"Duration":75604,"SoundDuration":75604,"Delta":391460115},{"NoteNumber":79,"Velocity":32,"Duration":100806,"SoundDuration":100806,"Delta":391510518},{"NoteNumber":81,"Velocity":36,"Duration":102185,"SoundDuration":102185,"Delta":391611324},{"NoteNumber":36,"Velocity":95,"Duration":306622,"SoundDuration":306622,"Delta":391611324},{"NoteNumber":48,"Velocity":95,"Duration":306622,"SoundDuration":306622,"Delta":391611324},{"NoteNumber":79,"Velocity":32,"Duration":99112,"SoundDuration":99112,"Delta":391713510},{"NoteNumber":50,"Velocity":56,"Duration":75802,"SoundDuration":75802,"Delta":391763186},{"NoteNumber":81,"Velocity":37,"Duration":105324,"SoundDuration":105324,"Delta":391812622},{"NoteNumber":52,"Velocity":57,"Duration":78958,"SoundDuration":78958,"Delta":391838988},{"NoteNumber":79,"Velocity":33,"Duration":101705,"SoundDuration":101705,"Delta":391917947},{"NoteNumber":53,"Velocity":60,"Duration":76747,"SoundDuration":76747,"Delta":391917947},{"NoteNumber":55,"Velocity":60,"Duration":75616,"SoundDuration":75616,"Delta":391994695},{"NoteNumber":81,"Velocity":38,"Duration":101819,"SoundDuration":101819,"Delta":392019653},{"NoteNumber":57,"Velocity":62,"Duration":76741,"SoundDuration":76741,"Delta":392070311},{"NoteNumber":79,"Velocity":33,"Duration":101932,"SoundDuration":101932,"Delta":392121472},{"NoteNumber":59,"Velocity":63,"Duration":76351,"SoundDuration":76351,"Delta":392147053},{"NoteNumber":81,"Velocity":39,"Duration":96668,"SoundDuration":96668,"Delta":392223404},{"NoteNumber":91,"Velocity":90,"Duration":293239,"SoundDuration":293239,"Delta":392223404},{"NoteNumber":60,"Velocity":63,"Duration":145285,"SoundDuration":145285,"Delta":392223404},{"NoteNumber":79,"Velocity":35,"Duration":97697,"SoundDuration":97697,"Delta":392320073},{"NoteNumber":62,"Velocity":65,"Duration":73916,"SoundDuration":73916,"Delta":392368690},{"NoteNumber":81,"Velocity":40,"Duration":98873,"SoundDuration":98873,"Delta":392417770},{"NoteNumber":64,"Velocity":66,"Duration":74037,"SoundDuration":74037,"Delta":392442606},{"NoteNumber":79,"Velocity":36,"Duration":96661,"SoundDuration":96661,"Delta":392516644},{"NoteNumber":65,"Velocity":67,"Duration":72411,"SoundDuration":72411,"Delta":392516644},{"NoteNumber":67,"Velocity":69,"Duration":73687,"SoundDuration":73687,"Delta":392589055},{"NoteNumber":81,"Velocity":40,"Duration":98638,"SoundDuration":98638,"Delta":392613305},{"NoteNumber":69,"Velocity":70,"Duration":73223,"SoundDuration":73223,"Delta":392662742},{"NoteNumber":79,"Velocity":36,"Duration":95331,"SoundDuration":95331,"Delta":392711944},{"NoteNumber":71,"Velocity":71,"Duration":71309,"SoundDuration":71309,"Delta":392735966},{"NoteNumber":81,"Velocity":40,"Duration":91710,"SoundDuration":91710,"Delta":392807275},{"NoteNumber":91,"Velocity":92,"Duration":834137,"SoundDuration":834137,"Delta":392807275},{"NoteNumber":72,"Velocity":74,"Duration":68960,"SoundDuration":68960,"Delta":392807275},{"NoteNumber":79,"Velocity":37,"Duration":91504,"SoundDuration":91504,"Delta":392898985},{"NoteNumber":71,"Velocity":71,"Duration":69478,"SoundDuration":69478,"Delta":392944485},{"NoteNumber":81,"Velocity":40,"Duration":93686,"SoundDuration":93686,"Delta":392990490},{"NoteNumber":79,"Velocity":36,"Duration":91805,"SoundDuration":91805,"Delta":393084177},{"NoteNumber":69,"Velocity":71,"Duration":68854,"SoundDuration":68854,"Delta":393084177},{"NoteNumber":81,"Velocity":40,"Duration":93473,"SoundDuration":93473,"Delta":393175982},{"NoteNumber":67,"Velocity":71,"Duration":70317,"SoundDuration":70317,"Delta":393222507},{"NoteNumber":79,"Velocity":36,"Duration":92537,"SoundDuration":92537,"Delta":393269456},{"NoteNumber":81,"Velocity":39,"Duration":92431,"SoundDuration":92431,"Delta":393361993},{"NoteNumber":65,"Velocity":72,"Duration":68957,"SoundDuration":68957,"Delta":393361993},{"NoteNumber":79,"Velocity":36,"Duration":94659,"SoundDuration":94659,"Delta":393454425},{"NoteNumber":64,"Velocity":69,"Duration":70749,"SoundDuration":70749,"Delta":393501809},{"NoteNumber":81,"Velocity":38,"Duration":92328,"SoundDuration":92328,"Delta":393549084},{"NoteNumber":79,"Velocity":32,"Duration":91802,"SoundDuration":91802,"Delta":393641413},{"NoteNumber":88,"Velocity":84,"Duration":277379,"SoundDuration":277379,"Delta":393641413},{"NoteNumber":62,"Velocity":69,"Duration":68646,"SoundDuration":68646,"Delta":393641413},{"NoteNumber":81,"Velocity":37,"Duration":92950,"SoundDuration":92950,"Delta":393733215},{"NoteNumber":60,"Velocity":67,"Duration":69577,"SoundDuration":69577,"Delta":393779744},{"NoteNumber":79,"Velocity":33,"Duration":92626,"SoundDuration":92626,"Delta":393826165},{"NoteNumber":81,"Velocity":39,"Duration":89607,"SoundDuration":89607,"Delta":393918792},{"NoteNumber":86,"Velocity":90,"Duration":541055,"SoundDuration":541055,"Delta":393918792},{"NoteNumber":59,"Velocity":73,"Duration":67352,"SoundDuration":67352,"Delta":393918792},{"NoteNumber":79,"Velocity":32,"Duration":89221,"SoundDuration":89221,"Delta":394008400},{"NoteNumber":60,"Velocity":69,"Duration":67556,"SoundDuration":67556,"Delta":394052815},{"NoteNumber":81,"Velocity":36,"Duration":90799,"SoundDuration":90799,"Delta":394097621},{"NoteNumber":79,"Velocity":31,"Duration":89607,"SoundDuration":89607,"Delta":394188420},{"NoteNumber":59,"Velocity":69,"Duration":67351,"SoundDuration":67351,"Delta":394188420},{"NoteNumber":81,"Velocity":36,"Duration":90006,"SoundDuration":90006,"Delta":394278028},{"NoteNumber":57,"Velocity":69,"Duration":68147,"SoundDuration":68147,"Delta":394322637},{"NoteNumber":79,"Velocity":30,"Duration":91813,"SoundDuration":91813,"Delta":394368034},{"NoteNumber":81,"Velocity":36,"Duration":92320,"SoundDuration":92320,"Delta":394459848},{"NoteNumber":79,"Velocity":82,"Duration":183711,"SoundDuration":183711,"Delta":394459848},{"NoteNumber":55,"Velocity":75,"Duration":69369,"SoundDuration":69369,"Delta":394459848},{"NoteNumber":79,"Velocity":31,"Duration":275732,"SoundDuration":275732,"Delta":394552168},{"NoteNumber":53,"Velocity":69,"Duration":68852,"SoundDuration":68852,"Delta":394597864},{"NoteNumber":81,"Velocity":36,"Duration":92842,"SoundDuration":92842,"Delta":394643559},{"NoteNumber":79,"Velocity":34,"Duration":275927,"SoundDuration":275927,"Delta":394736402},{"NoteNumber":52,"Velocity":69,"Duration":68748,"SoundDuration":68748,"Delta":394736402},{"NoteNumber":78,"Velocity":36,"Duration":92626,"SoundDuration":92626,"Delta":394827900},{"NoteNumber":50,"Velocity":69,"Duration":69263,"SoundDuration":69263,"Delta":394874214},{"NoteNumber":79,"Velocity":31,"Duration":91801,"SoundDuration":91801,"Delta":394920527},{"NoteNumber":84,"Velocity":86,"Duration":282619,"SoundDuration":282619,"Delta":395012329},{"NoteNumber":48,"Velocity":75,"Duration":282619,"SoundDuration":282619,"Delta":395012329},{"NoteNumber":36,"Velocity":75,"Duration":282619,"SoundDuration":282619,"Delta":395294948},{"NoteNumber":60,"Velocity":68,"Duration":94206,"SoundDuration":94206,"Delta":395577567},{"NoteNumber":64,"Velocity":62,"Duration":94206,"SoundDuration":94206,"Delta":395671773},{"NoteNumber":60,"Velocity":62,"Duration":94206,"SoundDuration":94206,"Delta":395765980},{"NoteNumber":55,"Velocity":62,"Duration":94206,"SoundDuration":94206,"Delta":395860186},{"NoteNumber":36,"Velocity":60,"Duration":282619,"SoundDuration":282619,"Delta":395860186},{"NoteNumber":48,"Velocity":71,"Duration":282619,"SoundDuration":282619,"Delta":395860186},{"NoteNumber":52,"Velocity":62,"Duration":94206,"SoundDuration":94206,"Delta":395954392},{"NoteNumber":55,"Velocity":62,"Duration":94206,"SoundDuration":94206,"Delta":396048599},{"NoteNumber":60,"Velocity":68,"Duration":92885,"SoundDuration":92885,"Delta":396142805},{"NoteNumber":65,"Velocity":62,"Duration":92884,"SoundDuration":92884,"Delta":396235690},{"NoteNumber":60,"Velocity":62,"Duration":92885,"SoundDuration":92885,"Delta":396328575},{"NoteNumber":57,"Velocity":62,"Duration":92884,"SoundDuration":92884,"Delta":396421460},{"NoteNumber":36,"Velocity":60,"Duration":278654,"SoundDuration":278654,"Delta":396421460},{"NoteNumber":48,"Velocity":71,"Duration":278654,"SoundDuration":278654,"Delta":396421460},{"NoteNumber":53,"Velocity":62,"Duration":92885,"SoundDuration":92885,"Delta":396514345},{"NoteNumber":57,"Velocity":62,"Duration":92884,"SoundDuration":92884,"Delta":396607230},{"NoteNumber":60,"Velocity":68,"Duration":92885,"SoundDuration":92885,"Delta":396700115},{"NoteNumber":64,"Velocity":61,"Duration":92885,"SoundDuration":92885,"Delta":396793000},{"NoteNumber":60,"Velocity":61,"Duration":92884,"SoundDuration":92884,"Delta":396885885},{"NoteNumber":55,"Velocity":61,"Duration":92885,"SoundDuration":92885,"Delta":396978770},{"NoteNumber":36,"Velocity":57,"Duration":278655,"SoundDuration":278655,"Delta":396978770},{"NoteNumber":48,"Velocity":68,"Duration":278655,"SoundDuration":278655,"Delta":396978770},{"NoteNumber":52,"Velocity":61,"Duration":92884,"SoundDuration":92884,"Delta":397071655},{"NoteNumber":55,"Velocity":61,"Duration":92885,"SoundDuration":92885,"Delta":397164540},{"NoteNumber":60,"Velocity":63,"Duration":92885,"SoundDuration":92885,"Delta":397257425},{"NoteNumber":62,"Velocity":59,"Duration":92884,"SoundDuration":92884,"Delta":397350310},{"NoteNumber":60,"Velocity":59,"Duration":92885,"SoundDuration":92885,"Delta":397443195},{"NoteNumber":53,"Velocity":59,"Duration":92884,"SoundDuration":92884,"Delta":397536080},{"NoteNumber":36,"Velocity":53,"Duration":278654,"SoundDuration":278654,"Delta":397536080},{"NoteNumber":48,"Velocity":63,"Duration":278654,"SoundDuration":278654,"Delta":397536080},{"NoteNumber":50,"Velocity":59,"Duration":92885,"SoundDuration":92885,"Delta":397628965},{"NoteNumber":53,"Velocity":59,"Duration":92884,"SoundDuration":92884,"Delta":397721850},{"NoteNumber":60,"Velocity":68,"Duration":94206,"SoundDuration":94206,"Delta":397814735},{"NoteNumber":63,"Velocity":61,"Duration":94206,"SoundDuration":94206,"Delta":397908941},{"NoteNumber":60,"Velocity":61,"Duration":94206,"SoundDuration":94206,"Delta":398003148},{"NoteNumber":54,"Velocity":61,"Duration":94206,"SoundDuration":94206,"Delta":398097354},{"NoteNumber":36,"Velocity":59,"Duration":282619,"SoundDuration":282619,"Delta":398097354},{"NoteNumber":48,"Velocity":70,"Duration":282619,"SoundDuration":282619,"Delta":398097354},{"NoteNumber":51,"Velocity":61,"Duration":94206,"SoundDuration":94206,"Delta":398191560},{"NoteNumber":54,"Velocity":61,"Duration":94206,"SoundDuration":94206,"Delta":398285767},{"NoteNumber":60,"Velocity":68,"Duration":94206,"SoundDuration":94206,"Delta":398379973},{"NoteNumber":64,"Velocity":62,"Duration":94206,"SoundDuration":94206,"Delta":398474179},{"NoteNumber":60,"Velocity":62,"Duration":94206,"SoundDuration":94206,"Delta":398568386},{"NoteNumber":55,"Velocity":62,"Duration":94206,"SoundDuration":94206,"Delta":398662592},{"NoteNumber":36,"Velocity":60,"Duration":282619,"SoundDuration":282619,"Delta":398662592},{"NoteNumber":48,"Velocity":71,"Duration":282619,"SoundDuration":282619,"Delta":398662592},{"NoteNumber":52,"Velocity":62,"Duration":94206,"SoundDuration":94206,"Delta":398756798},{"NoteNumber":55,"Velocity":62,"Duration":94206,"SoundDuration":94206,"Delta":398851005},{"NoteNumber":59,"Velocity":68,"Duration":95111,"SoundDuration":95111,"Delta":398945211},{"NoteNumber":62,"Velocity":61,"Duration":95111,"SoundDuration":95111,"Delta":399040322},{"NoteNumber":59,"Velocity":61,"Duration":95111,"SoundDuration":95111,"Delta":399135434},{"NoteNumber":53,"Velocity":61,"Duration":95111,"SoundDuration":95111,"Delta":399230545},{"NoteNumber":36,"Velocity":60,"Duration":285334,"SoundDuration":285334,"Delta":399230545},{"NoteNumber":48,"Velocity":71,"Duration":285334,"SoundDuration":285334,"Delta":399230545},{"NoteNumber":50,"Velocity":61,"Duration":95111,"SoundDuration":95111,"Delta":399325656},{"NoteNumber":53,"Velocity":61,"Duration":95111,"SoundDuration":95111,"Delta":399420768},{"NoteNumber":55,"Velocity":68,"Duration":94206,"SoundDuration":94206,"Delta":399515879},{"NoteNumber":60,"Velocity":62,"Duration":94206,"SoundDuration":94206,"Delta":399610085},{"NoteNumber":55,"Velocity":62,"Duration":94206,"SoundDuration":94206,"Delta":399704292},{"NoteNumber":52,"Velocity":62,"Duration":94206,"SoundDuration":94206,"Delta":399798498},{"NoteNumber":36,"Velocity":71,"Duration":282619,"SoundDuration":282619,"Delta":399798498},{"NoteNumber":48,"Velocity":62,"Duration":94206,"SoundDuration":94206,"Delta":399892704},{"NoteNumber":52,"Velocity":62,"Duration":94206,"SoundDuration":94206,"Delta":399986911},{"NoteNumber":64,"Velocity":68,"Duration":93309,"SoundDuration":93309,"Delta":400081117},{"NoteNumber":67,"Velocity":62,"Duration":93309,"SoundDuration":93309,"Delta":400174427},{"NoteNumber":64,"Velocity":62,"Duration":93309,"SoundDuration":93309,"Delta":400267736},{"NoteNumber":60,"Velocity":62,"Duration":93309,"SoundDuration":93309,"Delta":400361046},{"NoteNumber":48,"Velocity":60,"Duration":279929,"SoundDuration":279929,"Delta":400361046},{"NoteNumber":40,"Velocity":60,"Duration":279929,"SoundDuration":279929,"Delta":400361046},{"NoteNumber":52,"Velocity":71,"Duration":279929,"SoundDuration":279929,"Delta":400361046},{"NoteNumber":55,"Velocity":62,"Duration":93309,"SoundDuration":93309,"Delta":400454356},{"NoteNumber":60,"Velocity":62,"Duration":93309,"SoundDuration":93309,"Delta":400547665},{"NoteNumber":65,"Velocity":68,"Duration":91600,"SoundDuration":91600,"Delta":400640975},{"NoteNumber":69,"Velocity":62,"Duration":91600,"SoundDuration":91600,"Delta":400732575},{"NoteNumber":65,"Velocity":62,"Duration":91600,"SoundDuration":91600,"Delta":400824176},{"NoteNumber":60,"Velocity":62,"Duration":91600,"SoundDuration":91600,"Delta":400915776},{"NoteNumber":48,"Velocity":60,"Duration":274800,"SoundDuration":274800,"Delta":400915776},{"NoteNumber":41,"Velocity":60,"Duration":274800,"SoundDuration":274800,"Delta":400915776},{"NoteNumber":53,"Velocity":71,"Duration":274800,"SoundDuration":274800,"Delta":400915776},{"NoteNumber":57,"Velocity":62,"Duration":91600,"SoundDuration":91600,"Delta":401007376},{"NoteNumber":60,"Velocity":62,"Duration":91600,"SoundDuration":91600,"Delta":401098977},{"NoteNumber":64,"Velocity":68,"Duration":92446,"SoundDuration":92446,"Delta":401190577},{"NoteNumber":67,"Velocity":61,"Duration":92446,"SoundDuration":92446,"Delta":401283024},{"NoteNumber":64,"Velocity":61,"Duration":92446,"SoundDuration":92446,"Delta":401375471},{"NoteNumber":60,"Velocity":61,"Duration":92447,"SoundDuration":92447,"Delta":401467918},{"NoteNumber":48,"Velocity":57,"Duration":277341,"SoundDuration":277341,"Delta":401467918},{"NoteNumber":40,"Velocity":57,"Duration":277341,"SoundDuration":277341,"Delta":401467918},{"NoteNumber":52,"Velocity":68,"Duration":277341,"SoundDuration":277341,"Delta":401467918},{"NoteNumber":55,"Velocity":61,"Duration":92446,"SoundDuration":92446,"Delta":401560365},{"NoteNumber":60,"Velocity":61,"Duration":92446,"SoundDuration":92446,"Delta":401652812},{"NoteNumber":62,"Velocity":63,"Duration":92446,"SoundDuration":92446,"Delta":401745259},{"NoteNumber":65,"Velocity":59,"Duration":92446,"SoundDuration":92446,"Delta":401837706},{"NoteNumber":62,"Velocity":59,"Duration":92446,"SoundDuration":92446,"Delta":401930153},{"NoteNumber":60,"Velocity":59,"Duration":92446,"SoundDuration":92446,"Delta":402022600},{"NoteNumber":48,"Velocity":53,"Duration":277341,"SoundDuration":277341,"Delta":402022600},{"NoteNumber":38,"Velocity":53,"Duration":277341,"SoundDuration":277341,"Delta":402022600},{"NoteNumber":50,"Velocity":63,"Duration":277341,"SoundDuration":277341,"Delta":402022600},{"NoteNumber":53,"Velocity":59,"Duration":92446,"SoundDuration":92446,"Delta":402115047},{"NoteNumber":60,"Velocity":59,"Duration":92447,"SoundDuration":92447,"Delta":402207494},{"NoteNumber":63,"Velocity":68,"Duration":94188,"SoundDuration":94188,"Delta":402299941},{"NoteNumber":66,"Velocity":61,"Duration":94188,"SoundDuration":94188,"Delta":402394130},{"NoteNumber":63,"Velocity":61,"Duration":94188,"SoundDuration":94188,"Delta":402488318},{"NoteNumber":60,"Velocity":61,"Duration":94188,"SoundDuration":94188,"Delta":402582507},{"NoteNumber":48,"Velocity":59,"Duration":282565,"SoundDuration":282565,"Delta":402582507},{"NoteNumber":39,"Velocity":59,"Duration":282565,"SoundDuration":282565,"Delta":402582507},{"NoteNumber":51,"Velocity":70,"Duration":282565,"SoundDuration":282565,"Delta":402582507},{"NoteNumber":54,"Velocity":61,"Duration":94188,"SoundDuration":94188,"Delta":402676695},{"NoteNumber":60,"Velocity":61,"Duration":94188,"SoundDuration":94188,"Delta":402770884},{"NoteNumber":64,"Velocity":68,"Duration":94188,"SoundDuration":94188,"Delta":402865072},{"NoteNumber":67,"Velocity":62,"Duration":94188,"SoundDuration":94188,"Delta":402959261},{"NoteNumber":64,"Velocity":62,"Duration":94188,"SoundDuration":94188,"Delta":403053449},{"NoteNumber":60,"Velocity":62,"Duration":94188,"SoundDuration":94188,"Delta":403147638},{"NoteNumber":48,"Velocity":60,"Duration":282565,"SoundDuration":282565,"Delta":403147638},{"NoteNumber":40,"Velocity":60,"Duration":282565,"SoundDuration":282565,"Delta":403147638},{"NoteNumber":52,"Velocity":71,"Duration":282565,"SoundDuration":282565,"Delta":403147638},{"NoteNumber":55,"Velocity":62,"Duration":94188,"SoundDuration":94188,"Delta":403241826},{"NoteNumber":60,"Velocity":62,"Duration":94188,"SoundDuration":94188,"Delta":403336015},{"NoteNumber":62,"Velocity":68,"Duration":95111,"SoundDuration":95111,"Delta":403430203},{"NoteNumber":65,"Velocity":61,"Duration":95111,"SoundDuration":95111,"Delta":403525314},{"NoteNumber":62,"Velocity":61,"Duration":95111,"SoundDuration":95111,"Delta":403620426},{"NoteNumber":59,"Velocity":61,"Duration":95111,"SoundDuration":95111,"Delta":403715537},{"NoteNumber":48,"Velocity":60,"Duration":285334,"SoundDuration":285334,"Delta":403715537},{"NoteNumber":38,"Velocity":60,"Duration":285334,"SoundDuration":285334,"Delta":403715537},{"NoteNumber":50,"Velocity":71,"Duration":285334,"SoundDuration":285334,"Delta":403715537},{"NoteNumber":53,"Velocity":61,"Duration":95111,"SoundDuration":95111,"Delta":403810648},{"NoteNumber":59,"Velocity":61,"Duration":95111,"SoundDuration":95111,"Delta":403905760},{"NoteNumber":60,"Velocity":68,"Duration":94661,"SoundDuration":94661,"Delta":404000871},{"NoteNumber":64,"Velocity":62,"Duration":95111,"SoundDuration":95111,"Delta":404095532},{"NoteNumber":60,"Velocity":62,"Duration":95111,"SoundDuration":95111,"Delta":404190644},{"NoteNumber":55,"Velocity":62,"Duration":95111,"SoundDuration":95111,"Delta":404285755},{"NoteNumber":36,"Velocity":63,"Duration":285333,"SoundDuration":285333,"Delta":404285755},{"NoteNumber":48,"Velocity":63,"Duration":285333,"SoundDuration":285333,"Delta":404285755},{"NoteNumber":52,"Velocity":62,"Duration":95111,"SoundDuration":95111,"Delta":404380866},{"NoteNumber":55,"Velocity":62,"Duration":95111,"SoundDuration":95111,"Delta":404475978},{"NoteNumber":67,"Velocity":68,"Duration":95111,"SoundDuration":95111,"Delta":404571089},{"NoteNumber":36,"Velocity":51,"Duration":95111,"SoundDuration":95111,"Delta":404571089},{"NoteNumber":72,"Velocity":59,"Duration":95111,"SoundDuration":95111,"Delta":404666200},{"NoteNumber":40,"Velocity":45,"Duration":95111,"SoundDuration":95111,"Delta":404666200},{"NoteNumber":67,"Velocity":59,"Duration":95111,"SoundDuration":95111,"Delta":404761312},{"NoteNumber":43,"Velocity":45,"Duration":95111,"SoundDuration":95111,"Delta":404761312},{"NoteNumber":64,"Velocity":67,"Duration":95111,"SoundDuration":95111,"Delta":404856423},{"NoteNumber":48,"Velocity":51,"Duration":95111,"SoundDuration":95111,"Delta":404856423},{"NoteNumber":60,"Velocity":58,"Duration":95111,"SoundDuration":95111,"Delta":404951534},{"NoteNumber":43,"Velocity":46,"Duration":95111,"SoundDuration":95111,"Delta":404951534},{"NoteNumber":64,"Velocity":58,"Duration":95111,"SoundDuration":95111,"Delta":405046646},{"NoteNumber":40,"Velocity":46,"Duration":95111,"SoundDuration":95111,"Delta":405046646},{"NoteNumber":69,"Velocity":71,"Duration":92013,"SoundDuration":92013,"Delta":405141757},{"NoteNumber":36,"Velocity":51,"Duration":92013,"SoundDuration":92013,"Delta":405141757},{"NoteNumber":72,"Velocity":61,"Duration":92013,"SoundDuration":92013,"Delta":405233770},{"NoteNumber":41,"Velocity":46,"Duration":92013,"SoundDuration":92013,"Delta":405233770},{"NoteNumber":69,"Velocity":61,"Duration":92013,"SoundDuration":92013,"Delta":405325783},{"NoteNumber":45,"Velocity":46,"Duration":92013,"SoundDuration":92013,"Delta":405325783},{"NoteNumber":65,"Velocity":67,"Duration":92013,"SoundDuration":92013,"Delta":405417796},{"NoteNumber":48,"Velocity":51,"Duration":92013,"SoundDuration":92013,"Delta":405417796},{"NoteNumber":60,"Velocity":60,"Duration":92013,"SoundDuration":92013,"Delta":405509810},{"NoteNumber":45,"Velocity":45,"Duration":92013,"SoundDuration":92013,"Delta":405509810},{"NoteNumber":65,"Velocity":60,"Duration":92013,"SoundDuration":92013,"Delta":405601823},{"NoteNumber":41,"Velocity":45,"Duration":92013,"SoundDuration":92013,"Delta":405601823},{"NoteNumber":67,"Velocity":68,"Duration":92867,"SoundDuration":92867,"Delta":405693836},{"NoteNumber":36,"Velocity":51,"Duration":92867,"SoundDuration":92867,"Delta":405693836},{"NoteNumber":72,"Velocity":59,"Duration":92867,"SoundDuration":92867,"Delta":405786704},{"NoteNumber":40,"Velocity":46,"Duration":92867,"SoundDuration":92867,"Delta":405786704},{"NoteNumber":67,"Velocity":60,"Duration":92867,"SoundDuration":92867,"Delta":405879572},{"NoteNumber":43,"Velocity":46,"Duration":92867,"SoundDuration":92867,"Delta":405879572},{"NoteNumber":64,"Velocity":67,"Duration":92867,"SoundDuration":92867,"Delta":405972439},{"NoteNumber":48,"Velocity":51,"Duration":92867,"SoundDuration":92867,"Delta":405972439},{"NoteNumber":60,"Velocity":58,"Duration":92867,"SoundDuration":92867,"Delta":406065307},{"NoteNumber":43,"Velocity":46,"Duration":92867,"SoundDuration":92867,"Delta":406065307},{"NoteNumber":64,"Velocity":58,"Duration":92867,"SoundDuration":92867,"Delta":406158175},{"NoteNumber":40,"Velocity":46,"Duration":92867,"SoundDuration":92867,"Delta":406158175},{"NoteNumber":65,"Velocity":70,"Duration":92867,"SoundDuration":92867,"Delta":406251043},{"NoteNumber":36,"Velocity":51,"Duration":92867,"SoundDuration":92867,"Delta":406251043},{"NoteNumber":72,"Velocity":59,"Duration":92867,"SoundDuration":92867,"Delta":406343911},{"NoteNumber":38,"Velocity":46,"Duration":92867,"SoundDuration":92867,"Delta":406343911},{"NoteNumber":65,"Velocity":59,"Duration":92867,"SoundDuration":92867,"Delta":406436779},{"NoteNumber":41,"Velocity":46,"Duration":92867,"SoundDuration":92867,"Delta":406436779},{"NoteNumber":62,"Velocity":67,"Duration":92867,"SoundDuration":92867,"Delta":406529646},{"NoteNumber":48,"Velocity":51,"Duration":92867,"SoundDuration":92867,"Delta":406529646},{"NoteNumber":60,"Velocity":60,"Duration":92867,"SoundDuration":92867,"Delta":406622514},{"NoteNumber":41,"Velocity":45,"Duration":92867,"SoundDuration":92867,"Delta":406622514},{"NoteNumber":62,"Velocity":59,"Duration":92867,"SoundDuration":92867,"Delta":406715382},{"NoteNumber":38,"Velocity":45,"Duration":92867,"SoundDuration":92867,"Delta":406715382},{"NoteNumber":66,"Velocity":66,"Duration":94206,"SoundDuration":94206,"Delta":406808250},{"NoteNumber":36,"Velocity":56,"Duration":94206,"SoundDuration":94206,"Delta":406808250},{"NoteNumber":72,"Velocity":57,"Duration":94206,"SoundDuration":94206,"Delta":406902456},{"NoteNumber":39,"Velocity":46,"Duration":94206,"SoundDuration":94206,"Delta":406902456},{"NoteNumber":66,"Velocity":60,"Duration":94206,"SoundDuration":94206,"Delta":406996663},{"NoteNumber":42,"Velocity":46,"Duration":94206,"SoundDuration":94206,"Delta":406996663},{"NoteNumber":63,"Velocity":70,"Duration":94206,"SoundDuration":94206,"Delta":407090869},{"NoteNumber":48,"Velocity":51,"Duration":94206,"SoundDuration":94206,"Delta":407090869},{"NoteNumber":60,"Velocity":58,"Duration":94206,"SoundDuration":94206,"Delta":407185075},{"NoteNumber":42,"Velocity":46,"Duration":94206,"SoundDuration":94206,"Delta":407185075},{"NoteNumber":63,"Velocity":58,"Duration":94206,"SoundDuration":94206,"Delta":407279282},{"NoteNumber":39,"Velocity":46,"Duration":94206,"SoundDuration":94206,"Delta":407279282},{"NoteNumber":67,"Velocity":71,"Duration":94206,"SoundDuration":94206,"Delta":407373488},{"NoteNumber":36,"Velocity":57,"Duration":94206,"SoundDuration":94206,"Delta":407373488},{"NoteNumber":72,"Velocity":61,"Duration":94206,"SoundDuration":94206,"Delta":407467694},{"NoteNumber":40,"Velocity":46,"Duration":94206,"SoundDuration":94206,"Delta":407467694},{"NoteNumber":67,"Velocity":61,"Duration":94206,"SoundDuration":94206,"Delta":407561901},{"NoteNumber":43,"Velocity":46,"Duration":94206,"SoundDuration":94206,"Delta":407561901},{"NoteNumber":64,"Velocity":67,"Duration":94206,"SoundDuration":94206,"Delta":407656107},{"NoteNumber":48,"Velocity":51,"Duration":94206,"SoundDuration":94206,"Delta":407656107},{"NoteNumber":60,"Velocity":60,"Duration":94206,"SoundDuration":94206,"Delta":407750313},{"NoteNumber":43,"Velocity":45,"Duration":94206,"SoundDuration":94206,"Delta":407750313},{"NoteNumber":64,"Velocity":60,"Duration":94206,"SoundDuration":94206,"Delta":407844520},{"NoteNumber":40,"Velocity":45,"Duration":94206,"SoundDuration":94206,"Delta":407844520},{"NoteNumber":65,"Velocity":68,"Duration":95111,"SoundDuration":95111,"Delta":407938726},{"NoteNumber":36,"Velocity":51,"Duration":95111,"SoundDuration":95111,"Delta":407938726},{"NoteNumber":72,"Velocity":56,"Duration":95111,"SoundDuration":95111,"Delta":408033837},{"NoteNumber":38,"Velocity":45,"Duration":95111,"SoundDuration":95111,"Delta":408033837},{"NoteNumber":65,"Velocity":57,"Duration":95111,"SoundDuration":95111,"Delta":408128949},{"NoteNumber":41,"Velocity":44,"Duration":95111,"SoundDuration":95111,"Delta":408128949},{"NoteNumber":62,"Velocity":62,"Duration":95111,"SoundDuration":95111,"Delta":408224060},{"NoteNumber":48,"Velocity":51,"Duration":95111,"SoundDuration":95111,"Delta":408224060},{"NoteNumber":59,"Velocity":58,"Duration":95111,"SoundDuration":95111,"Delta":408319171},{"NoteNumber":41,"Velocity":44,"Duration":95111,"SoundDuration":95111,"Delta":408319171},{"NoteNumber":62,"Velocity":58,"Duration":95111,"SoundDuration":95111,"Delta":408414283},{"NoteNumber":38,"Velocity":44,"Duration":95111,"SoundDuration":95111,"Delta":408414283},{"NoteNumber":67,"Velocity":63,"Duration":94206,"SoundDuration":94206,"Delta":408509394},{"NoteNumber":36,"Velocity":51,"Duration":94206,"SoundDuration":94206,"Delta":408509394},{"NoteNumber":72,"Velocity":57,"Duration":94206,"SoundDuration":94206,"Delta":408603600},{"NoteNumber":40,"Velocity":44,"Duration":94206,"SoundDuration":94206,"Delta":408603600},{"NoteNumber":67,"Velocity":57,"Duration":94206,"SoundDuration":94206,"Delta":408697807},{"NoteNumber":43,"Velocity":44,"Duration":94206,"SoundDuration":94206,"Delta":408697807},{"NoteNumber":64,"Velocity":60,"Duration":94206,"SoundDuration":94206,"Delta":408792013},{"NoteNumber":48,"Velocity":51,"Duration":94206,"SoundDuration":94206,"Delta":408792013},{"NoteNumber":60,"Velocity":57,"Duration":99657,"SoundDuration":99657,"Delta":408886219},{"NoteNumber":43,"Velocity":44,"Duration":99657,"SoundDuration":99657,"Delta":408886219},{"NoteNumber":64,"Velocity":57,"Duration":105108,"SoundDuration":105108,"Delta":408985877},{"NoteNumber":40,"Velocity":46,"Duration":105108,"SoundDuration":105108,"Delta":408985877},{"NoteNumber":72,"Velocity":68,"Duration":93309,"SoundDuration":93309,"Delta":409090985},{"NoteNumber":36,"Velocity":51,"Duration":93309,"SoundDuration":93309,"Delta":409090985},{"NoteNumber":76,"Velocity":59,"Duration":93309,"SoundDuration":93309,"Delta":409184295},{"NoteNumber":48,"Velocity":45,"Duration":93309,"SoundDuration":93309,"Delta":409184295},{"NoteNumber":72,"Velocity":59,"Duration":93309,"SoundDuration":93309,"Delta":409277604},{"NoteNumber":52,"Velocity":45,"Duration":93309,"SoundDuration":93309,"Delta":409277604},{"NoteNumber":67,"Velocity":67,"Duration":93309,"SoundDuration":93309,"Delta":409370914},{"NoteNumber":55,"Velocity":51,"Duration":93309,"SoundDuration":93309,"Delta":409370914},{"NoteNumber":64,"Velocity":58,"Duration":93309,"SoundDuration":93309,"Delta":409464224},{"NoteNumber":52,"Velocity":46,"Duration":93309,"SoundDuration":93309,"Delta":409464224},{"NoteNumber":67,"Velocity":58,"Duration":93309,"SoundDuration":93309,"Delta":409557533},{"NoteNumber":48,"Velocity":46,"Duration":93309,"SoundDuration":93309,"Delta":409557533},{"NoteNumber":72,"Velocity":71,"Duration":92013,"SoundDuration":92013,"Delta":409650843},{"NoteNumber":36,"Velocity":51,"Duration":92013,"SoundDuration":92013,"Delta":409650843},{"NoteNumber":77,"Velocity":61,"Duration":92013,"SoundDuration":92013,"Delta":409742856},{"NoteNumber":48,"Velocity":46,"Duration":92013,"SoundDuration":92013,"Delta":409742856},{"NoteNumber":72,"Velocity":61,"Duration":92013,"SoundDuration":92013,"Delta":409834869},{"NoteNumber":53,"Velocity":46,"Duration":92013,"SoundDuration":92013,"Delta":409834869},{"NoteNumber":69,"Velocity":67,"Duration":92013,"SoundDuration":92013,"Delta":409926882},{"NoteNumber":57,"Velocity":51,"Duration":92013,"SoundDuration":92013,"Delta":409926882},{"NoteNumber":65,"Velocity":60,"Duration":92013,"SoundDuration":92013,"Delta":410018896},{"NoteNumber":53,"Velocity":45,"Duration":92013,"SoundDuration":92013,"Delta":410018896},{"NoteNumber":69,"Velocity":60,"Duration":92013,"SoundDuration":92013,"Delta":410110909},{"NoteNumber":48,"Velocity":45,"Duration":92013,"SoundDuration":92013,"Delta":410110909},{"NoteNumber":72,"Velocity":68,"Duration":92867,"SoundDuration":92867,"Delta":410202922},{"NoteNumber":36,"Velocity":51,"Duration":92867,"SoundDuration":92867,"Delta":410202922},{"NoteNumber":76,"Velocity":59,"Duration":92867,"SoundDuration":92867,"Delta":410295790},{"NoteNumber":48,"Velocity":46,"Duration":92867,"SoundDuration":92867,"Delta":410295790},{"NoteNumber":72,"Velocity":60,"Duration":92867,"SoundDuration":92867,"Delta":410388658},{"NoteNumber":52,"Velocity":46,"Duration":92867,"SoundDuration":92867,"Delta":410388658},{"NoteNumber":67,"Velocity":67,"Duration":92867,"SoundDuration":92867,"Delta":410481525},{"NoteNumber":55,"Velocity":51,"Duration":92867,"SoundDuration":92867,"Delta":410481525},{"NoteNumber":64,"Velocity":58,"Duration":92867,"SoundDuration":92867,"Delta":410574393},{"NoteNumber":52,"Velocity":46,"Duration":92867,"SoundDuration":92867,"Delta":410574393},{"NoteNumber":67,"Velocity":58,"Duration":92867,"SoundDuration":92867,"Delta":410667261},{"NoteNumber":48,"Velocity":46,"Duration":92867,"SoundDuration":92867,"Delta":410667261},{"NoteNumber":72,"Velocity":70,"Duration":92867,"SoundDuration":92867,"Delta":410760129},{"NoteNumber":36,"Velocity":51,"Duration":92867,"SoundDuration":92867,"Delta":410760129},{"NoteNumber":74,"Velocity":59,"Duration":92867,"SoundDuration":92867,"Delta":410852997},{"NoteNumber":48,"Velocity":46,"Duration":92867,"SoundDuration":92867,"Delta":410852997},{"NoteNumber":72,"Velocity":59,"Duration":92867,"SoundDuration":92867,"Delta":410945865},{"NoteNumber":50,"Velocity":46,"Duration":92867,"SoundDuration":92867,"Delta":410945865},{"NoteNumber":65,"Velocity":67,"Duration":92867,"SoundDuration":92867,"Delta":411038732},{"NoteNumber":53,"Velocity":51,"Duration":92867,"SoundDuration":92867,"Delta":411038732},{"NoteNumber":62,"Velocity":60,"Duration":92867,"SoundDuration":92867,"Delta":411131600},{"NoteNumber":50,"Velocity":45,"Duration":92867,"SoundDuration":92867,"Delta":411131600},{"NoteNumber":65,"Velocity":59,"Duration":92867,"SoundDuration":92867,"Delta":411224468},{"NoteNumber":48,"Velocity":45,"Duration":92867,"SoundDuration":92867,"Delta":411224468},{"NoteNumber":72,"Velocity":66,"Duration":94206,"SoundDuration":94206,"Delta":411317336},{"NoteNumber":36,"Velocity":56,"Duration":94206,"SoundDuration":94206,"Delta":411317336},{"NoteNumber":75,"Velocity":57,"Duration":94206,"SoundDuration":94206,"Delta":411411542},{"NoteNumber":48,"Velocity":46,"Duration":94206,"SoundDuration":94206,"Delta":411411542},{"NoteNumber":72,"Velocity":60,"Duration":94206,"SoundDuration":94206,"Delta":411505749},{"NoteNumber":51,"Velocity":46,"Duration":94206,"SoundDuration":94206,"Delta":411505749},{"NoteNumber":66,"Velocity":70,"Duration":94206,"SoundDuration":94206,"Delta":411599955},{"NoteNumber":54,"Velocity":51,"Duration":94206,"SoundDuration":94206,"Delta":411599955},{"NoteNumber":63,"Velocity":58,"Duration":94206,"SoundDuration":94206,"Delta":411694161},{"NoteNumber":51,"Velocity":46,"Duration":94206,"SoundDuration":94206,"Delta":411694161},{"NoteNumber":66,"Velocity":58,"Duration":94206,"SoundDuration":94206,"Delta":411788368},{"NoteNumber":48,"Velocity":46,"Duration":94206,"SoundDuration":94206,"Delta":411788368},{"NoteNumber":72,"Velocity":71,"Duration":94206,"SoundDuration":94206,"Delta":411882574},{"NoteNumber":36,"Velocity":57,"Duration":94206,"SoundDuration":94206,"Delta":411882574},{"NoteNumber":76,"Velocity":61,"Duration":94206,"SoundDuration":94206,"Delta":411976780},{"NoteNumber":48,"Velocity":46,"Duration":94206,"SoundDuration":94206,"Delta":411976780},{"NoteNumber":72,"Velocity":61,"Duration":94206,"SoundDuration":94206,"Delta":412070987},{"NoteNumber":52,"Velocity":46,"Duration":94206,"SoundDuration":94206,"Delta":412070987},{"NoteNumber":67,"Velocity":67,"Duration":94206,"SoundDuration":94206,"Delta":412165193},{"NoteNumber":55,"Velocity":51,"Duration":94206,"SoundDuration":94206,"Delta":412165193},{"NoteNumber":64,"Velocity":60,"Duration":94206,"SoundDuration":94206,"Delta":412259399},{"NoteNumber":52,"Velocity":45,"Duration":94206,"SoundDuration":94206,"Delta":412259399},{"NoteNumber":67,"Velocity":60,"Duration":94206,"SoundDuration":94206,"Delta":412353606},{"NoteNumber":48,"Velocity":45,"Duration":94206,"SoundDuration":94206,"Delta":412353606},{"NoteNumber":71,"Velocity":68,"Duration":95111,"SoundDuration":95111,"Delta":412447812},{"NoteNumber":36,"Velocity":51,"Duration":95111,"SoundDuration":95111,"Delta":412447812},{"NoteNumber":74,"Velocity":56,"Duration":95111,"SoundDuration":95111,"Delta":412542923},{"NoteNumber":48,"Velocity":45,"Duration":95111,"SoundDuration":95111,"Delta":412542923},{"NoteNumber":71,"Velocity":57,"Duration":95111,"SoundDuration":95111,"Delta":412638035},{"NoteNumber":50,"Velocity":44,"Duration":95111,"SoundDuration":95111,"Delta":412638035},{"NoteNumber":65,"Velocity":62,"Duration":95111,"SoundDuration":95111,"Delta":412733146},{"NoteNumber":53,"Velocity":51,"Duration":95111,"SoundDuration":95111,"Delta":412733146},{"NoteNumber":62,"Velocity":58,"Duration":95111,"SoundDuration":95111,"Delta":412828257},{"NoteNumber":50,"Velocity":44,"Duration":95111,"SoundDuration":95111,"Delta":412828257},{"NoteNumber":65,"Velocity":58,"Duration":95111,"SoundDuration":95111,"Delta":412923369},{"NoteNumber":48,"Velocity":44,"Duration":95111,"SoundDuration":95111,"Delta":412923369},{"NoteNumber":67,"Velocity":63,"Duration":94206,"SoundDuration":94206,"Delta":413018480},{"NoteNumber":36,"Velocity":51,"Duration":94206,"SoundDuration":94206,"Delta":413018480},{"NoteNumber":72,"Velocity":57,"Duration":94206,"SoundDuration":94206,"Delta":413112686},{"NoteNumber":48,"Velocity":44,"Duration":94206,"SoundDuration":94206,"Delta":413112686},{"NoteNumber":67,"Velocity":57,"Duration":94206,"SoundDuration":94206,"Delta":413206893},{"NoteNumber":52,"Velocity":44,"Duration":94206,"SoundDuration":94206,"Delta":413206893},{"NoteNumber":64,"Velocity":60,"Duration":94206,"SoundDuration":94206,"Delta":413301099},{"NoteNumber":55,"Velocity":51,"Duration":94206,"SoundDuration":94206,"Delta":413301099},{"NoteNumber":60,"Velocity":57,"Duration":99934,"SoundDuration":99934,"Delta":413395305},{"NoteNumber":52,"Velocity":44,"Duration":99934,"SoundDuration":99934,"Delta":413395305},{"NoteNumber":64,"Velocity":57,"Duration":105663,"SoundDuration":105663,"Delta":413495240},{"NoteNumber":48,"Velocity":46,"Duration":105663,"SoundDuration":105663,"Delta":413495240},{"NoteNumber":72,"Velocity":74,"Duration":94661,"SoundDuration":94661,"Delta":413600904},{"NoteNumber":36,"Velocity":59,"Duration":94661,"SoundDuration":94661,"Delta":413600904},{"NoteNumber":76,"Velocity":59,"Duration":94661,"SoundDuration":94661,"Delta":413695565},{"NoteNumber":48,"Velocity":45,"Duration":94661,"SoundDuration":94661,"Delta":413695565},{"NoteNumber":72,"Velocity":59,"Duration":94661,"SoundDuration":94661,"Delta":413790226},{"NoteNumber":52,"Velocity":45,"Duration":94661,"SoundDuration":94661,"Delta":413790226},{"NoteNumber":67,"Velocity":70,"Duration":94661,"SoundDuration":94661,"Delta":413884887},{"NoteNumber":55,"Velocity":51,"Duration":94661,"SoundDuration":94661,"Delta":413884887},{"NoteNumber":64,"Velocity":58,"Duration":94661,"SoundDuration":94661,"Delta":413979548},{"NoteNumber":52,"Velocity":46,"Duration":94661,"SoundDuration":94661,"Delta":413979548},{"NoteNumber":67,"Velocity":58,"Duration":94661,"SoundDuration":94661,"Delta":414074210},{"NoteNumber":48,"Velocity":46,"Duration":94661,"SoundDuration":94661,"Delta":414074210},{"NoteNumber":71,"Velocity":71,"Duration":92885,"SoundDuration":92885,"Delta":414168871},{"NoteNumber":43,"Velocity":51,"Duration":92885,"SoundDuration":92885,"Delta":414168871},{"NoteNumber":74,"Velocity":61,"Duration":92884,"SoundDuration":92884,"Delta":414261756},{"NoteNumber":47,"Velocity":46,"Duration":92884,"SoundDuration":92884,"Delta":414261756},{"NoteNumber":71,"Velocity":61,"Duration":92885,"SoundDuration":92885,"Delta":414354641},{"NoteNumber":50,"Velocity":46,"Duration":92885,"SoundDuration":92885,"Delta":414354641},{"NoteNumber":67,"Velocity":67,"Duration":92884,"SoundDuration":92884,"Delta":414447526},{"NoteNumber":55,"Velocity":51,"Duration":92884,"SoundDuration":92884,"Delta":414447526},{"NoteNumber":62,"Velocity":60,"Duration":98721,"SoundDuration":98721,"Delta":414540411},{"NoteNumber":50,"Velocity":45,"Duration":98721,"SoundDuration":98721,"Delta":414540411},{"NoteNumber":67,"Velocity":60,"Duration":104558,"SoundDuration":104558,"Delta":414639133},{"NoteNumber":47,"Velocity":45,"Duration":104558,"SoundDuration":104558,"Delta":414639133},{"NoteNumber":74,"Velocity":74,"Duration":94661,"SoundDuration":94661,"Delta":414743691},{"NoteNumber":38,"Velocity":59,"Duration":94661,"SoundDuration":94661,"Delta":414743691},{"NoteNumber":77,"Velocity":59,"Duration":94661,"SoundDuration":94661,"Delta":414838353},{"NoteNumber":50,"Velocity":45,"Duration":94661,"SoundDuration":94661,"Delta":414838353},{"NoteNumber":74,"Velocity":59,"Duration":94661,"SoundDuration":94661,"Delta":414933014},{"NoteNumber":53,"Velocity":45,"Duration":94661,"SoundDuration":94661,"Delta":414933014},{"NoteNumber":69,"Velocity":70,"Duration":94661,"SoundDuration":94661,"Delta":415027675},{"NoteNumber":57,"Velocity":51,"Duration":94661,"SoundDuration":94661,"Delta":415027675},{"NoteNumber":65,"Velocity":58,"Duration":94661,"SoundDuration":94661,"Delta":415122336},{"NoteNumber":53,"Velocity":46,"Duration":94661,"SoundDuration":94661,"Delta":415122336},{"NoteNumber":69,"Velocity":58,"Duration":94661,"SoundDuration":94661,"Delta":415216997},{"NoteNumber":50,"Velocity":46,"Duration":94661,"SoundDuration":94661,"Delta":415216997},{"NoteNumber":72,"Velocity":71,"Duration":92885,"SoundDuration":92885,"Delta":415311658},{"NoteNumber":45,"Velocity":51,"Duration":92885,"SoundDuration":92885,"Delta":415311658},{"NoteNumber":76,"Velocity":61,"Duration":92884,"SoundDuration":92884,"Delta":415404543},{"NoteNumber":48,"Velocity":46,"Duration":92884,"SoundDuration":92884,"Delta":415404543},{"NoteNumber":72,"Velocity":61,"Duration":92885,"SoundDuration":92885,"Delta":415497428},{"NoteNumber":52,"Velocity":46,"Duration":92885,"SoundDuration":92885,"Delta":415497428},{"NoteNumber":69,"Velocity":67,"Duration":92884,"SoundDuration":92884,"Delta":415590313},{"NoteNumber":57,"Velocity":51,"Duration":92884,"SoundDuration":92884,"Delta":415590313},{"NoteNumber":64,"Velocity":60,"Duration":97390,"SoundDuration":97390,"Delta":415683198},{"NoteNumber":52,"Velocity":45,"Duration":97390,"SoundDuration":97390,"Delta":415683198},{"NoteNumber":69,"Velocity":60,"Duration":101895,"SoundDuration":101895,"Delta":415780589},{"NoteNumber":48,"Velocity":45,"Duration":101895,"SoundDuration":101895,"Delta":415780589},{"NoteNumber":77,"Velocity":74,"Duration":94661,"SoundDuration":94661,"Delta":415882484},{"NoteNumber":41,"Velocity":59,"Duration":94661,"SoundDuration":94661,"Delta":415882484},{"NoteNumber":81,"Velocity":59,"Duration":94661,"SoundDuration":94661,"Delta":415977145},{"NoteNumber":48,"Velocity":45,"Duration":94661,"SoundDuration":94661,"Delta":415977145},{"NoteNumber":77,"Velocity":59,"Duration":94661,"SoundDuration":94661,"Delta":416071806},{"NoteNumber":50,"Velocity":45,"Duration":94661,"SoundDuration":94661,"Delta":416071806},{"NoteNumber":72,"Velocity":70,"Duration":94661,"SoundDuration":94661,"Delta":416166467},{"NoteNumber":53,"Velocity":51,"Duration":94661,"SoundDuration":94661,"Delta":416166467},{"NoteNumber":69,"Velocity":58,"Duration":94661,"SoundDuration":94661,"Delta":416261129},{"NoteNumber":50,"Velocity":46,"Duration":94661,"SoundDuration":94661,"Delta":416261129},{"NoteNumber":72,"Velocity":58,"Duration":94661,"SoundDuration":94661,"Delta":416355790},{"NoteNumber":48,"Velocity":46,"Duration":94661,"SoundDuration":94661,"Delta":416355790},{"NoteNumber":74,"Velocity":75,"Duration":94188,"SoundDuration":94188,"Delta":416450451},{"NoteNumber":43,"Velocity":51,"Duration":94188,"SoundDuration":94188,"Delta":416450451},{"NoteNumber":79,"Velocity":61,"Duration":94188,"SoundDuration":94188,"Delta":416544639},{"NoteNumber":48,"Velocity":46,"Duration":94188,"SoundDuration":94188,"Delta":416544639},{"NoteNumber":74,"Velocity":61,"Duration":94188,"SoundDuration":94188,"Delta":416638828},{"NoteNumber":50,"Velocity":46,"Duration":94188,"SoundDuration":94188,"Delta":416638828},{"NoteNumber":72,"Velocity":67,"Duration":94188,"SoundDuration":94188,"Delta":416733016},{"NoteNumber":55,"Velocity":51,"Duration":94188,"SoundDuration":94188,"Delta":416733016},{"NoteNumber":67,"Velocity":60,"Duration":94188,"SoundDuration":94188,"Delta":416827205},{"NoteNumber":50,"Velocity":45,"Duration":94188,"SoundDuration":94188,"Delta":416827205},{"NoteNumber":72,"Velocity":60,"Duration":94188,"SoundDuration":94188,"Delta":416921393},{"NoteNumber":48,"Velocity":45,"Duration":94188,"SoundDuration":94188,"Delta":416921393},{"NoteNumber":74,"Velocity":74,"Duration":94661,"SoundDuration":94661,"Delta":417015582},{"NoteNumber":43,"Velocity":59,"Duration":94661,"SoundDuration":94661,"Delta":417015582},{"NoteNumber":79,"Velocity":59,"Duration":94661,"SoundDuration":94661,"Delta":417110243},{"NoteNumber":47,"Velocity":45,"Duration":94661,"SoundDuration":94661,"Delta":417110243},{"NoteNumber":74,"Velocity":59,"Duration":94661,"SoundDuration":94661,"Delta":417204904},{"NoteNumber":50,"Velocity":45,"Duration":94661,"SoundDuration":94661,"Delta":417204904},{"NoteNumber":71,"Velocity":70,"Duration":94661,"SoundDuration":94661,"Delta":417299565},{"NoteNumber":55,"Velocity":51,"Duration":94661,"SoundDuration":94661,"Delta":417299565},{"NoteNumber":67,"Velocity":58,"Duration":94661,"SoundDuration":94661,"Delta":417394227},{"NoteNumber":50,"Velocity":46,"Duration":94661,"SoundDuration":94661,"Delta":417394227},{"NoteNumber":71,"Velocity":58,"Duration":94661,"SoundDuration":94661,"Delta":417488888},{"NoteNumber":47,"Velocity":46,"Duration":94661,"SoundDuration":94661,"Delta":417488888},{"NoteNumber":76,"Velocity":71,"Duration":92867,"SoundDuration":92867,"Delta":417583549},{"NoteNumber":36,"Velocity":51,"Duration":92867,"SoundDuration":92867,"Delta":417583549},{"NoteNumber":79,"Velocity":58,"Duration":92867,"SoundDuration":92867,"Delta":417676417},{"NoteNumber":48,"Velocity":44,"Duration":92867,"SoundDuration":92867,"Delta":417676417},{"NoteNumber":76,"Velocity":58,"Duration":93309,"SoundDuration":93309,"Delta":417769285},{"NoteNumber":52,"Velocity":44,"Duration":93309,"SoundDuration":93309,"Delta":417769285},{"NoteNumber":72,"Velocity":63,"Duration":93309,"SoundDuration":93309,"Delta":417862594},{"NoteNumber":55,"Velocity":50,"Duration":93309,"SoundDuration":93309,"Delta":417862594},{"NoteNumber":67,"Velocity":60,"Duration":93738,"SoundDuration":93738,"Delta":417955904},{"NoteNumber":52,"Velocity":43,"Duration":93738,"SoundDuration":93738,"Delta":417955904},{"NoteNumber":72,"Velocity":58,"Duration":93738,"SoundDuration":93738,"Delta":418049642},{"NoteNumber":48,"Velocity":43,"Duration":93738,"SoundDuration":93738,"Delta":418049642},{"NoteNumber":76,"Velocity":74,"Duration":94188,"SoundDuration":94188,"Delta":418143381},{"NoteNumber":36,"Velocity":59,"Duration":94188,"SoundDuration":94188,"Delta":418143381},{"NoteNumber":79,"Velocity":59,"Duration":94188,"SoundDuration":94188,"Delta":418237569},{"NoteNumber":48,"Velocity":45,"Duration":94188,"SoundDuration":94188,"Delta":418237569},{"NoteNumber":76,"Velocity":59,"Duration":94188,"SoundDuration":94188,"Delta":418331758},{"NoteNumber":52,"Velocity":45,"Duration":94188,"SoundDuration":94188,"Delta":418331758},{"NoteNumber":72,"Velocity":70,"Duration":94188,"SoundDuration":94188,"Delta":418425946},{"NoteNumber":55,"Velocity":51,"Duration":94188,"SoundDuration":94188,"Delta":418425946},{"NoteNumber":67,"Velocity":58,"Duration":94188,"SoundDuration":94188,"Delta":418520135},{"NoteNumber":52,"Velocity":46,"Duration":94188,"SoundDuration":94188,"Delta":418520135},{"NoteNumber":72,"Velocity":58,"Duration":93317,"SoundDuration":93317,"Delta":418614323},{"NoteNumber":48,"Velocity":46,"Duration":93317,"SoundDuration":93317,"Delta":418614323},{"NoteNumber":74,"Velocity":71,"Duration":92446,"SoundDuration":92446,"Delta":418707641},{"NoteNumber":43,"Velocity":51,"Duration":92446,"SoundDuration":92446,"Delta":418707641},{"NoteNumber":79,"Velocity":61,"Duration":92867,"SoundDuration":92867,"Delta":418800088},{"NoteNumber":47,"Velocity":46,"Duration":92867,"SoundDuration":92867,"Delta":418800088},{"NoteNumber":74,"Velocity":61,"Duration":93088,"SoundDuration":93088,"Delta":418892956},{"NoteNumber":50,"Velocity":46,"Duration":93088,"SoundDuration":93088,"Delta":418892956},{"NoteNumber":71,"Velocity":67,"Duration":93309,"SoundDuration":93309,"Delta":418986044},{"NoteNumber":55,"Velocity":51,"Duration":93309,"SoundDuration":93309,"Delta":418986044},{"NoteNumber":67,"Velocity":60,"Duration":98876,"SoundDuration":98876,"Delta":419079354},{"NoteNumber":50,"Velocity":45,"Duration":98876,"SoundDuration":98876,"Delta":419079354},{"NoteNumber":71,"Velocity":60,"Duration":99101,"SoundDuration":99101,"Delta":419178231},{"NoteNumber":47,"Velocity":45,"Duration":99101,"SoundDuration":99101,"Delta":419178231},{"NoteNumber":77,"Velocity":74,"Duration":94411,"SoundDuration":94411,"Delta":419277333},{"NoteNumber":38,"Velocity":59,"Duration":94411,"SoundDuration":94411,"Delta":419277333},{"NoteNumber":81,"Velocity":59,"Duration":94634,"SoundDuration":94634,"Delta":419371744},{"NoteNumber":50,"Velocity":45,"Duration":94634,"SoundDuration":94634,"Delta":419371744},{"NoteNumber":77,"Velocity":59,"Duration":94634,"SoundDuration":94634,"Delta":419466378},{"NoteNumber":53,"Velocity":45,"Duration":94634,"SoundDuration":94634,"Delta":419466378},{"NoteNumber":74,"Velocity":70,"Duration":94634,"SoundDuration":94634,"Delta":419561012},{"NoteNumber":57,"Velocity":51,"Duration":94634,"SoundDuration":94634,"Delta":419561012},{"NoteNumber":69,"Velocity":58,"Duration":94634,"SoundDuration":94634,"Delta":419655646},{"NoteNumber":53,"Velocity":46,"Duration":94634,"SoundDuration":94634,"Delta":419655646},{"NoteNumber":74,"Velocity":58,"Duration":94634,"SoundDuration":94634,"Delta":419750281},{"NoteNumber":50,"Velocity":46,"Duration":94634,"SoundDuration":94634,"Delta":419750281},{"NoteNumber":76,"Velocity":71,"Duration":92885,"SoundDuration":92885,"Delta":419844915},{"NoteNumber":45,"Velocity":51,"Duration":92885,"SoundDuration":92885,"Delta":419844915},{"NoteNumber":81,"Velocity":61,"Duration":92884,"SoundDuration":92884,"Delta":419937800},{"NoteNumber":48,"Velocity":46,"Duration":92884,"SoundDuration":92884,"Delta":419937800},{"NoteNumber":76,"Velocity":61,"Duration":92885,"SoundDuration":92885,"Delta":420030685},{"NoteNumber":52,"Velocity":46,"Duration":92885,"SoundDuration":92885,"Delta":420030685},{"NoteNumber":72,"Velocity":67,"Duration":92884,"SoundDuration":92884,"Delta":420123570},{"NoteNumber":57,"Velocity":51,"Duration":92884,"SoundDuration":92884,"Delta":420123570},{"NoteNumber":69,"Velocity":60,"Duration":98180,"SoundDuration":98180,"Delta":420216455},{"NoteNumber":52,"Velocity":45,"Duration":98180,"SoundDuration":98180,"Delta":420216455},{"NoteNumber":72,"Velocity":60,"Duration":103476,"SoundDuration":103476,"Delta":420314636},{"NoteNumber":48,"Velocity":45,"Duration":103476,"SoundDuration":103476,"Delta":420314636},{"NoteNumber":81,"Velocity":74,"Duration":94661,"SoundDuration":94661,"Delta":420418112},{"NoteNumber":45,"Velocity":59,"Duration":94661,"SoundDuration":94661,"Delta":420418112},{"NoteNumber":84,"Velocity":59,"Duration":94661,"SoundDuration":94661,"Delta":420512774},{"NoteNumber":48,"Velocity":45,"Duration":94661,"SoundDuration":94661,"Delta":420512774},{"NoteNumber":81,"Velocity":59,"Duration":94661,"SoundDuration":94661,"Delta":420607435},{"NoteNumber":52,"Velocity":45,"Duration":94661,"SoundDuration":94661,"Delta":420607435},{"NoteNumber":76,"Velocity":70,"Duration":94661,"SoundDuration":94661,"Delta":420702096},{"NoteNumber":57,"Velocity":51,"Duration":94661,"SoundDuration":94661,"Delta":420702096},{"NoteNumber":72,"Velocity":58,"Duration":94661,"SoundDuration":94661,"Delta":420796757},{"NoteNumber":52,"Velocity":46,"Duration":94661,"SoundDuration":94661,"Delta":420796757},{"NoteNumber":76,"Velocity":58,"Duration":94661,"SoundDuration":94661,"Delta":420891418},{"NoteNumber":48,"Velocity":46,"Duration":94661,"SoundDuration":94661,"Delta":420891418},{"NoteNumber":81,"Velocity":75,"Duration":92885,"SoundDuration":92885,"Delta":420986079},{"NoteNumber":38,"Velocity":51,"Duration":92885,"SoundDuration":92885,"Delta":420986079},{"NoteNumber":84,"Velocity":61,"Duration":92884,"SoundDuration":92884,"Delta":421078964},{"NoteNumber":45,"Velocity":46,"Duration":92884,"SoundDuration":92884,"Delta":421078964},{"NoteNumber":81,"Velocity":61,"Duration":92885,"SoundDuration":92885,"Delta":421171849},{"NoteNumber":48,"Velocity":46,"Duration":92885,"SoundDuration":92885,"Delta":421171849},{"NoteNumber":78,"Velocity":67,"Duration":92884,"SoundDuration":92884,"Delta":421264734},{"NoteNumber":50,"Velocity":51,"Duration":92884,"SoundDuration":92884,"Delta":421264734},{"NoteNumber":72,"Velocity":60,"Duration":92885,"SoundDuration":92885,"Delta":421357619},{"NoteNumber":48,"Velocity":45,"Duration":92885,"SoundDuration":92885,"Delta":421357619},{"NoteNumber":78,"Velocity":60,"Duration":92884,"SoundDuration":92884,"Delta":421450504},{"NoteNumber":45,"Velocity":45,"Duration":92884,"SoundDuration":92884,"Delta":421450504},{"NoteNumber":81,"Velocity":74,"Duration":94661,"SoundDuration":94661,"Delta":421543389},{"NoteNumber":38,"Velocity":59,"Duration":94661,"SoundDuration":94661,"Delta":421543389},{"NoteNumber":84,"Velocity":59,"Duration":94661,"SoundDuration":94661,"Delta":421638051},{"NoteNumber":45,"Velocity":45,"Duration":94661,"SoundDuration":94661,"Delta":421638051},{"NoteNumber":81,"Velocity":59,"Duration":94661,"SoundDuration":94661,"Delta":421732712},{"NoteNumber":48,"Velocity":45,"Duration":94661,"SoundDuration":94661,"Delta":421732712},{"NoteNumber":78,"Velocity":70,"Duration":94661,"SoundDuration":94661,"Delta":421827373},{"NoteNumber":50,"Velocity":51,"Duration":94661,"SoundDuration":94661,"Delta":421827373},{"NoteNumber":72,"Velocity":58,"Duration":94661,"SoundDuration":94661,"Delta":421922034},{"NoteNumber":48,"Velocity":46,"Duration":94661,"SoundDuration":94661,"Delta":421922034},{"NoteNumber":78,"Velocity":58,"Duration":94661,"SoundDuration":94661,"Delta":422016695},{"NoteNumber":45,"Velocity":46,"Duration":94661,"SoundDuration":94661,"Delta":422016695},{"NoteNumber":79,"Velocity":71,"Duration":92885,"SoundDuration":92885,"Delta":422111356},{"NoteNumber":43,"Velocity":51,"Duration":92885,"SoundDuration":92885,"Delta":422111356},{"NoteNumber":83,"Velocity":58,"Duration":92884,"SoundDuration":92884,"Delta":422204241},{"NoteNumber":50,"Velocity":44,"Duration":92884,"SoundDuration":92884,"Delta":422204241},{"NoteNumber":79,"Velocity":58,"Duration":92885,"SoundDuration":92885,"Delta":422297126},{"NoteNumber":55,"Velocity":44,"Duration":92885,"SoundDuration":92885,"Delta":422297126},{"NoteNumber":74,"Velocity":63,"Duration":92884,"SoundDuration":92884,"Delta":422390011},{"NoteNumber":43,"Velocity":50,"Duration":92884,"SoundDuration":92884,"Delta":422390011},{"NoteNumber":71,"Velocity":60,"Duration":98996,"SoundDuration":98996,"Delta":422482896},{"NoteNumber":47,"Velocity":43,"Duration":98996,"SoundDuration":98996,"Delta":422482896},{"NoteNumber":74,"Velocity":58,"Duration":105108,"SoundDuration":105108,"Delta":422581893},{"NoteNumber":55,"Velocity":43,"Duration":105108,"SoundDuration":105108,"Delta":422581893},{"NoteNumber":81,"Velocity":74,"Duration":94661,"SoundDuration":94661,"Delta":422687001},{"NoteNumber":43,"Velocity":59,"Duration":94661,"SoundDuration":94661,"Delta":422687001},{"NoteNumber":86,"Velocity":59,"Duration":94661,"SoundDuration":94661,"Delta":422781663},{"NoteNumber":48,"Velocity":45,"Duration":94661,"SoundDuration":94661,"Delta":422781663},{"NoteNumber":81,"Velocity":59,"Duration":94661,"SoundDuration":94661,"Delta":422876324},{"NoteNumber":50,"Velocity":45,"Duration":94661,"SoundDuration":94661,"Delta":422876324},{"NoteNumber":78,"Velocity":70,"Duration":94661,"SoundDuration":94661,"Delta":422970985},{"NoteNumber":43,"Velocity":51,"Duration":94661,"SoundDuration":94661,"Delta":422970985},{"NoteNumber":74,"Velocity":58,"Duration":94661,"SoundDuration":94661,"Delta":423065646},{"NoteNumber":48,"Velocity":46,"Duration":94661,"SoundDuration":94661,"Delta":423065646},{"NoteNumber":78,"Velocity":58,"Duration":94661,"SoundDuration":94661,"Delta":423160307},{"NoteNumber":50,"Velocity":46,"Duration":94661,"SoundDuration":94661,"Delta":423160307},{"NoteNumber":83,"Velocity":75,"Duration":92885,"SoundDuration":92885,"Delta":423254968},{"NoteNumber":43,"Velocity":51,"Duration":92885,"SoundDuration":92885,"Delta":423254968},{"NoteNumber":86,"Velocity":61,"Duration":92884,"SoundDuration":92884,"Delta":423347853},{"NoteNumber":47,"Velocity":46,"Duration":92884,"SoundDuration":92884,"Delta":423347853},{"NoteNumber":83,"Velocity":61,"Duration":92885,"SoundDuration":92885,"Delta":423440738},{"NoteNumber":50,"Velocity":46,"Duration":92885,"SoundDuration":92885,"Delta":423440738},{"NoteNumber":79,"Velocity":67,"Duration":92884,"SoundDuration":92884,"Delta":423533623},{"NoteNumber":43,"Velocity":51,"Duration":92884,"SoundDuration":92884,"Delta":423533623},{"NoteNumber":74,"Velocity":60,"Duration":92885,"SoundDuration":92885,"Delta":423626508},{"NoteNumber":47,"Velocity":45,"Duration":92885,"SoundDuration":92885,"Delta":423626508},{"NoteNumber":79,"Velocity":60,"Duration":92884,"SoundDuration":92884,"Delta":423719393},{"NoteNumber":50,"Velocity":45,"Duration":92884,"SoundDuration":92884,"Delta":423719393},{"NoteNumber":81,"Velocity":74,"Duration":94661,"SoundDuration":94661,"Delta":423812278},{"NoteNumber":43,"Velocity":59,"Duration":94661,"SoundDuration":94661,"Delta":423812278},{"NoteNumber":86,"Velocity":59,"Duration":94661,"SoundDuration":94661,"Delta":423906940},{"NoteNumber":48,"Velocity":45,"Duration":94661,"SoundDuration":94661,"Delta":423906940},{"NoteNumber":81,"Velocity":59,"Duration":94661,"SoundDuration":94661,"Delta":424001601},{"NoteNumber":50,"Velocity":45,"Duration":94661,"SoundDuration":94661,"Delta":424001601},{"NoteNumber":78,"Velocity":70,"Duration":94661,"SoundDuration":94661,"Delta":424096262},{"NoteNumber":43,"Velocity":51,"Duration":94661,"SoundDuration":94661,"Delta":424096262},{"NoteNumber":74,"Velocity":58,"Duration":94661,"SoundDuration":94661,"Delta":424190923},{"NoteNumber":48,"Velocity":46,"Duration":94661,"SoundDuration":94661,"Delta":424190923},{"NoteNumber":78,"Velocity":58,"Duration":94661,"SoundDuration":94661,"Delta":424285584},{"NoteNumber":50,"Velocity":46,"Duration":94661,"SoundDuration":94661,"Delta":424285584},{"NoteNumber":83,"Velocity":77,"Duration":92885,"SoundDuration":92885,"Delta":424380245},{"NoteNumber":43,"Velocity":58,"Duration":92885,"SoundDuration":92885,"Delta":424380245},{"NoteNumber":86,"Velocity":58,"Duration":92884,"SoundDuration":92884,"Delta":424473130},{"NoteNumber":47,"Velocity":44,"Duration":92884,"SoundDuration":92884,"Delta":424473130},{"NoteNumber":83,"Velocity":58,"Duration":92885,"SoundDuration":92885,"Delta":424566015},{"NoteNumber":50,"Velocity":44,"Duration":92885,"SoundDuration":92885,"Delta":424566015},{"NoteNumber":79,"Velocity":63,"Duration":92884,"SoundDuration":92884,"Delta":424658900},{"NoteNumber":43,"Velocity":50,"Duration":92884,"SoundDuration":92884,"Delta":424658900},{"NoteNumber":74,"Velocity":60,"Duration":98996,"SoundDuration":98996,"Delta":424751785},{"NoteNumber":47,"Velocity":43,"Duration":98996,"SoundDuration":98996,"Delta":424751785},{"NoteNumber":79,"Velocity":58,"Duration":105108,"SoundDuration":105108,"Delta":424850782},{"NoteNumber":50,"Velocity":43,"Duration":105108,"SoundDuration":105108,"Delta":424850782},{"NoteNumber":86,"Velocity":51,"Duration":93738,"SoundDuration":93738,"Delta":424955890},{"NoteNumber":43,"Velocity":40,"Duration":93738,"SoundDuration":93738,"Delta":424955890},{"NoteNumber":90,"Velocity":40,"Duration":93738,"SoundDuration":93738,"Delta":425049629},{"NoteNumber":48,"Velocity":30,"Duration":93738,"SoundDuration":93738,"Delta":425049629},{"NoteNumber":86,"Velocity":40,"Duration":93738,"SoundDuration":93738,"Delta":425143367},{"NoteNumber":50,"Velocity":30,"Duration":93738,"SoundDuration":93738,"Delta":425143367},{"NoteNumber":81,"Velocity":48,"Duration":93738,"SoundDuration":93738,"Delta":425237105},{"NoteNumber":57,"Velocity":34,"Duration":93738,"SoundDuration":93738,"Delta":425237105},{"NoteNumber":78,"Velocity":39,"Duration":93738,"SoundDuration":93738,"Delta":425330844},{"NoteNumber":50,"Velocity":31,"Duration":93738,"SoundDuration":93738,"Delta":425330844},{"NoteNumber":81,"Velocity":39,"Duration":93738,"SoundDuration":93738,"Delta":425424582},{"NoteNumber":48,"Velocity":31,"Duration":93738,"SoundDuration":93738,"Delta":425424582},{"NoteNumber":86,"Velocity":51,"Duration":92013,"SoundDuration":92013,"Delta":425518320},{"NoteNumber":43,"Velocity":35,"Duration":92013,"SoundDuration":92013,"Delta":425518320},{"NoteNumber":91,"Velocity":42,"Duration":92013,"SoundDuration":92013,"Delta":425610334},{"NoteNumber":47,"Velocity":31,"Duration":92013,"SoundDuration":92013,"Delta":425610334},{"NoteNumber":86,"Velocity":42,"Duration":92013,"SoundDuration":92013,"Delta":425702347},{"NoteNumber":50,"Velocity":31,"Duration":92013,"SoundDuration":92013,"Delta":425702347},{"NoteNumber":83,"Velocity":45,"Duration":92013,"SoundDuration":92013,"Delta":425794360},{"NoteNumber":55,"Velocity":34,"Duration":92013,"SoundDuration":92013,"Delta":425794360},{"NoteNumber":79,"Velocity":41,"Duration":92013,"SoundDuration":92013,"Delta":425886373},{"NoteNumber":50,"Velocity":30,"Duration":92013,"SoundDuration":92013,"Delta":425886373},{"NoteNumber":83,"Velocity":41,"Duration":92013,"SoundDuration":92013,"Delta":425978386},{"NoteNumber":47,"Velocity":30,"Duration":92013,"SoundDuration":92013,"Delta":425978386},{"NoteNumber":86,"Velocity":51,"Duration":93738,"SoundDuration":93738,"Delta":426070399},{"NoteNumber":43,"Velocity":40,"Duration":93738,"SoundDuration":93738,"Delta":426070399},{"NoteNumber":90,"Velocity":40,"Duration":93738,"SoundDuration":93738,"Delta":426164138},{"NoteNumber":48,"Velocity":30,"Duration":93738,"SoundDuration":93738,"Delta":426164138},{"NoteNumber":86,"Velocity":40,"Duration":93738,"SoundDuration":93738,"Delta":426257876},{"NoteNumber":50,"Velocity":30,"Duration":93738,"SoundDuration":93738,"Delta":426257876},{"NoteNumber":81,"Velocity":48,"Duration":93738,"SoundDuration":93738,"Delta":426351614},{"NoteNumber":57,"Velocity":34,"Duration":93738,"SoundDuration":93738,"Delta":426351614},{"NoteNumber":78,"Velocity":39,"Duration":93738,"SoundDuration":93738,"Delta":426445353},{"NoteNumber":50,"Velocity":31,"Duration":93738,"SoundDuration":93738,"Delta":426445353},{"NoteNumber":81,"Velocity":39,"Duration":93738,"SoundDuration":93738,"Delta":426539091},{"NoteNumber":48,"Velocity":31,"Duration":93738,"SoundDuration":93738,"Delta":426539091},{"NoteNumber":86,"Velocity":52,"Duration":92885,"SoundDuration":92885,"Delta":426632829},{"NoteNumber":43,"Velocity":39,"Duration":92885,"SoundDuration":92885,"Delta":426632829},{"NoteNumber":91,"Velocity":39,"Duration":92884,"SoundDuration":92884,"Delta":426725714},{"NoteNumber":47,"Velocity":30,"Duration":92884,"SoundDuration":92884,"Delta":426725714},{"NoteNumber":86,"Velocity":39,"Duration":92885,"SoundDuration":92885,"Delta":426818599},{"NoteNumber":50,"Velocity":30,"Duration":92885,"SoundDuration":92885,"Delta":426818599},{"NoteNumber":83,"Velocity":43,"Duration":92884,"SoundDuration":92884,"Delta":426911484},{"NoteNumber":55,"Velocity":34,"Duration":92884,"SoundDuration":92884,"Delta":426911484},{"NoteNumber":79,"Velocity":41,"Duration":99554,"SoundDuration":99554,"Delta":427004369},{"NoteNumber":50,"Velocity":29,"Duration":99554,"SoundDuration":99554,"Delta":427004369},{"NoteNumber":83,"Velocity":39,"Duration":106224,"SoundDuration":106224,"Delta":427103924},{"NoteNumber":47,"Velocity":29,"Duration":106224,"SoundDuration":106224,"Delta":427103924},{"NoteNumber":81,"Velocity":81,"Duration":94661,"SoundDuration":94661,"Delta":427210149},{"NoteNumber":43,"Velocity":65,"Duration":94661,"SoundDuration":94661,"Delta":427210149},{"NoteNumber":86,"Velocity":61,"Duration":94661,"SoundDuration":94661,"Delta":427304810},{"NoteNumber":48,"Velocity":49,"Duration":94661,"SoundDuration":94661,"Delta":427304810},{"NoteNumber":81,"Velocity":61,"Duration":94661,"SoundDuration":94661,"Delta":427399472},{"NoteNumber":50,"Velocity":49,"Duration":94661,"SoundDuration":94661,"Delta":427399472},{"NoteNumber":78,"Velocity":69,"Duration":94661,"SoundDuration":94661,"Delta":427494133},{"NoteNumber":43,"Velocity":56,"Duration":94661,"SoundDuration":94661,"Delta":427494133},{"NoteNumber":74,"Velocity":63,"Duration":94661,"SoundDuration":94661,"Delta":427588794},{"NoteNumber":48,"Velocity":51,"Duration":94661,"SoundDuration":94661,"Delta":427588794},{"NoteNumber":78,"Velocity":63,"Duration":94661,"SoundDuration":94661,"Delta":427683455},{"NoteNumber":50,"Velocity":51,"Duration":94661,"SoundDuration":94661,"Delta":427683455},{"NoteNumber":83,"Velocity":82,"Duration":92885,"SoundDuration":92885,"Delta":427778116},{"NoteNumber":43,"Velocity":56,"Duration":92885,"SoundDuration":92885,"Delta":427778116},{"NoteNumber":86,"Velocity":62,"Duration":92884,"SoundDuration":92884,"Delta":427871001},{"NoteNumber":47,"Velocity":51,"Duration":92884,"SoundDuration":92884,"Delta":427871001},{"NoteNumber":83,"Velocity":62,"Duration":92885,"SoundDuration":92885,"Delta":427963886},{"NoteNumber":50,"Velocity":51,"Duration":92885,"SoundDuration":92885,"Delta":427963886},{"NoteNumber":79,"Velocity":67,"Duration":92884,"SoundDuration":92884,"Delta":428056771},{"NoteNumber":43,"Velocity":56,"Duration":92884,"SoundDuration":92884,"Delta":428056771},{"NoteNumber":74,"Velocity":63,"Duration":92885,"SoundDuration":92885,"Delta":428149656},{"NoteNumber":47,"Velocity":49,"Duration":92885,"SoundDuration":92885,"Delta":428149656},{"NoteNumber":79,"Velocity":66,"Duration":92884,"SoundDuration":92884,"Delta":428242541},{"NoteNumber":50,"Velocity":49,"Duration":92884,"SoundDuration":92884,"Delta":428242541},{"NoteNumber":81,"Velocity":81,"Duration":94661,"SoundDuration":94661,"Delta":428335426},{"NoteNumber":43,"Velocity":65,"Duration":94661,"SoundDuration":94661,"Delta":428335426},{"NoteNumber":86,"Velocity":61,"Duration":94661,"SoundDuration":94661,"Delta":428430087},{"NoteNumber":48,"Velocity":49,"Duration":94661,"SoundDuration":94661,"Delta":428430087},{"NoteNumber":81,"Velocity":61,"Duration":94661,"SoundDuration":94661,"Delta":428524749},{"NoteNumber":50,"Velocity":49,"Duration":94661,"SoundDuration":94661,"Delta":428524749},{"NoteNumber":78,"Velocity":68,"Duration":94661,"SoundDuration":94661,"Delta":428619410},{"NoteNumber":43,"Velocity":56,"Duration":94661,"SoundDuration":94661,"Delta":428619410},{"NoteNumber":74,"Velocity":63,"Duration":94661,"SoundDuration":94661,"Delta":428714071},{"NoteNumber":48,"Velocity":51,"Duration":94661,"SoundDuration":94661,"Delta":428714071},{"NoteNumber":78,"Velocity":63,"Duration":94661,"SoundDuration":94661,"Delta":428808732},{"NoteNumber":50,"Velocity":51,"Duration":94661,"SoundDuration":94661,"Delta":428808732},{"NoteNumber":83,"Velocity":84,"Duration":92885,"SoundDuration":92885,"Delta":428903393},{"NoteNumber":43,"Velocity":63,"Duration":92885,"SoundDuration":92885,"Delta":428903393},{"NoteNumber":86,"Velocity":63,"Duration":92884,"SoundDuration":92884,"Delta":428996278},{"NoteNumber":47,"Velocity":48,"Duration":92884,"SoundDuration":92884,"Delta":428996278},{"NoteNumber":83,"Velocity":63,"Duration":92885,"SoundDuration":92885,"Delta":429089163},{"NoteNumber":50,"Velocity":48,"Duration":92885,"SoundDuration":92885,"Delta":429089163},{"NoteNumber":79,"Velocity":69,"Duration":92884,"SoundDuration":92884,"Delta":429182048},{"NoteNumber":43,"Velocity":54,"Duration":92884,"SoundDuration":92884,"Delta":429182048},{"NoteNumber":74,"Velocity":66,"Duration":97914,"SoundDuration":97914,"Delta":429274933},{"NoteNumber":47,"Velocity":47,"Duration":97914,"SoundDuration":97914,"Delta":429274933},{"NoteNumber":79,"Velocity":63,"Duration":102944,"SoundDuration":102944,"Delta":429372848},{"NoteNumber":50,"Velocity":47,"Duration":102944,"SoundDuration":102944,"Delta":429372848},{"NoteNumber":86,"Velocity":51,"Duration":93738,"SoundDuration":93738,"Delta":429475792},{"NoteNumber":43,"Velocity":40,"Duration":93738,"SoundDuration":93738,"Delta":429475792},{"NoteNumber":90,"Velocity":40,"Duration":93738,"SoundDuration":93738,"Delta":429569530},{"NoteNumber":48,"Velocity":30,"Duration":93738,"SoundDuration":93738,"Delta":429569530},{"NoteNumber":86,"Velocity":40,"Duration":93738,"SoundDuration":93738,"Delta":429663269},{"NoteNumber":50,"Velocity":30,"Duration":93738,"SoundDuration":93738,"Delta":429663269},{"NoteNumber":81,"Velocity":48,"Duration":93738,"SoundDuration":93738,"Delta":429757007},{"NoteNumber":57,"Velocity":34,"Duration":93738,"SoundDuration":93738,"Delta":429757007},{"NoteNumber":78,"Velocity":39,"Duration":93738,"SoundDuration":93738,"Delta":429850745},{"NoteNumber":50,"Velocity":31,"Duration":93738,"SoundDuration":93738,"Delta":429850745},{"NoteNumber":81,"Velocity":39,"Duration":93738,"SoundDuration":93738,"Delta":429944484},{"NoteNumber":48,"Velocity":31,"Duration":93738,"SoundDuration":93738,"Delta":429944484},{"NoteNumber":86,"Velocity":51,"Duration":92013,"SoundDuration":92013,"Delta":430038222},{"NoteNumber":43,"Velocity":35,"Duration":92013,"SoundDuration":92013,"Delta":430038222},{"NoteNumber":91,"Velocity":42,"Duration":92013,"SoundDuration":92013,"Delta":430130235},{"NoteNumber":47,"Velocity":31,"Duration":92013,"SoundDuration":92013,"Delta":430130235},{"NoteNumber":86,"Velocity":42,"Duration":92013,"SoundDuration":92013,"Delta":430222248},{"NoteNumber":50,"Velocity":31,"Duration":92013,"SoundDuration":92013,"Delta":430222248},{"NoteNumber":83,"Velocity":45,"Duration":92013,"SoundDuration":92013,"Delta":430314261},{"NoteNumber":55,"Velocity":34,"Duration":92013,"SoundDuration":92013,"Delta":430314261},{"NoteNumber":79,"Velocity":41,"Duration":92013,"SoundDuration":92013,"Delta":430406275},{"NoteNumber":50,"Velocity":30,"Duration":92013,"SoundDuration":92013,"Delta":430406275},{"NoteNumber":83,"Velocity":41,"Duration":92013,"SoundDuration":92013,"Delta":430498288},{"NoteNumber":47,"Velocity":30,"Duration":92013,"SoundDuration":92013,"Delta":430498288},{"NoteNumber":86,"Velocity":51,"Duration":94661,"SoundDuration":94661,"Delta":430590301},{"NoteNumber":43,"Velocity":40,"Duration":94661,"SoundDuration":94661,"Delta":430590301},{"NoteNumber":90,"Velocity":40,"Duration":94661,"SoundDuration":94661,"Delta":430684962},{"NoteNumber":48,"Velocity":30,"Duration":94661,"SoundDuration":94661,"Delta":430684962},{"NoteNumber":86,"Velocity":40,"Duration":94661,"SoundDuration":94661,"Delta":430779623},{"NoteNumber":50,"Velocity":30,"Duration":94661,"SoundDuration":94661,"Delta":430779623},{"NoteNumber":81,"Velocity":48,"Duration":94661,"SoundDuration":94661,"Delta":430874284},{"NoteNumber":57,"Velocity":34,"Duration":94661,"SoundDuration":94661,"Delta":430874284},{"NoteNumber":78,"Velocity":39,"Duration":94661,"SoundDuration":94661,"Delta":430968946},{"NoteNumber":50,"Velocity":31,"Duration":94661,"SoundDuration":94661,"Delta":430968946},{"NoteNumber":81,"Velocity":39,"Duration":94661,"SoundDuration":94661,"Delta":431063607},{"NoteNumber":48,"Velocity":31,"Duration":94661,"SoundDuration":94661,"Delta":431063607},{"NoteNumber":86,"Velocity":57,"Duration":92885,"SoundDuration":92885,"Delta":431158268},{"NoteNumber":43,"Velocity":43,"Duration":92885,"SoundDuration":92885,"Delta":431158268},{"NoteNumber":91,"Velocity":42,"Duration":92884,"SoundDuration":92884,"Delta":431251153},{"NoteNumber":47,"Velocity":33,"Duration":92884,"SoundDuration":92884,"Delta":431251153},{"NoteNumber":86,"Velocity":44,"Duration":92885,"SoundDuration":92885,"Delta":431344038},{"NoteNumber":50,"Velocity":34,"Duration":92885,"SoundDuration":92885,"Delta":431344038},{"NoteNumber":83,"Velocity":49,"Duration":92884,"SoundDuration":92884,"Delta":431436923},{"NoteNumber":55,"Velocity":39,"Duration":92884,"SoundDuration":92884,"Delta":431436923},{"NoteNumber":79,"Velocity":48,"Duration":92885,"SoundDuration":92885,"Delta":431529808},{"NoteNumber":50,"Velocity":34,"Duration":92885,"SoundDuration":92885,"Delta":431529808},{"NoteNumber":83,"Velocity":47,"Duration":92884,"SoundDuration":92884,"Delta":431622693},{"NoteNumber":47,"Velocity":35,"Duration":92884,"SoundDuration":92884,"Delta":431622693},{"NoteNumber":86,"Velocity":63,"Duration":94661,"SoundDuration":94661,"Delta":431715578},{"NoteNumber":43,"Velocity":50,"Duration":94661,"SoundDuration":94661,"Delta":431715578},{"NoteNumber":90,"Velocity":50,"Duration":94661,"SoundDuration":94661,"Delta":431810239},{"NoteNumber":48,"Velocity":38,"Duration":94661,"SoundDuration":94661,"Delta":431810239},{"NoteNumber":86,"Velocity":51,"Duration":94661,"SoundDuration":94661,"Delta":431904900},{"NoteNumber":50,"Velocity":39,"Duration":94661,"SoundDuration":94661,"Delta":431904900},{"NoteNumber":81,"Velocity":63,"Duration":94661,"SoundDuration":94661,"Delta":431999561},{"NoteNumber":57,"Velocity":45,"Duration":94661,"SoundDuration":94661,"Delta":431999561},{"NoteNumber":78,"Velocity":52,"Duration":94661,"SoundDuration":94661,"Delta":432094223},{"NoteNumber":50,"Velocity":42,"Duration":94661,"SoundDuration":94661,"Delta":432094223},{"NoteNumber":81,"Velocity":53,"Duration":94661,"SoundDuration":94661,"Delta":432188884},{"NoteNumber":48,"Velocity":43,"Duration":94661,"SoundDuration":94661,"Delta":432188884},{"NoteNumber":86,"Velocity":72,"Duration":92885,"SoundDuration":92885,"Delta":432283545},{"NoteNumber":43,"Velocity":50,"Duration":92885,"SoundDuration":92885,"Delta":432283545},{"NoteNumber":91,"Velocity":60,"Duration":92884,"SoundDuration":92884,"Delta":432376430},{"NoteNumber":47,"Velocity":44,"Duration":92884,"SoundDuration":92884,"Delta":432376430},{"NoteNumber":86,"Velocity":62,"Duration":92885,"SoundDuration":92885,"Delta":432469315},{"NoteNumber":50,"Velocity":45,"Duration":92885,"SoundDuration":92885,"Delta":432469315},{"NoteNumber":83,"Velocity":67,"Duration":92884,"SoundDuration":92884,"Delta":432562200},{"NoteNumber":55,"Velocity":51,"Duration":92884,"SoundDuration":92884,"Delta":432562200},{"NoteNumber":79,"Velocity":62,"Duration":92885,"SoundDuration":92885,"Delta":432655085},{"NoteNumber":50,"Velocity":45,"Duration":92885,"SoundDuration":92885,"Delta":432655085},{"NoteNumber":83,"Velocity":64,"Duration":92884,"SoundDuration":92884,"Delta":432747970},{"NoteNumber":47,"Velocity":47,"Duration":92884,"SoundDuration":92884,"Delta":432747970},{"NoteNumber":86,"Velocity":80,"Duration":94661,"SoundDuration":94661,"Delta":432840855},{"NoteNumber":43,"Velocity":64,"Duration":94661,"SoundDuration":94661,"Delta":432840855},{"NoteNumber":90,"Velocity":64,"Duration":94661,"SoundDuration":94661,"Delta":432935516},{"NoteNumber":48,"Velocity":49,"Duration":94661,"SoundDuration":94661,"Delta":432935516},{"NoteNumber":86,"Velocity":66,"Duration":94661,"SoundDuration":94661,"Delta":433030177},{"NoteNumber":50,"Velocity":50,"Duration":94661,"SoundDuration":94661,"Delta":433030177},{"NoteNumber":81,"Velocity":80,"Duration":94661,"SoundDuration":94661,"Delta":433124838},{"NoteNumber":57,"Velocity":57,"Duration":94661,"SoundDuration":94661,"Delta":433124838},{"NoteNumber":78,"Velocity":66,"Duration":94661,"SoundDuration":94661,"Delta":433219500},{"NoteNumber":50,"Velocity":53,"Duration":94661,"SoundDuration":94661,"Delta":433219500},{"NoteNumber":81,"Velocity":67,"Duration":94661,"SoundDuration":94661,"Delta":433314161},{"NoteNumber":48,"Velocity":54,"Duration":94661,"SoundDuration":94661,"Delta":433314161},{"NoteNumber":91,"Velocity":104,"Duration":302297,"SoundDuration":302297,"Delta":433408822},{"NoteNumber":79,"Velocity":98,"Duration":302297,"SoundDuration":302297,"Delta":433408822},{"NoteNumber":43,"Velocity":68,"Duration":302297,"SoundDuration":302297,"Delta":433408822},{"NoteNumber":47,"Velocity":68,"Duration":302297,"SoundDuration":302297,"Delta":433408822},{"NoteNumber":50,"Velocity":68,"Duration":302297,"SoundDuration":302297,"Delta":433408822},{"NoteNumber":55,"Velocity":80,"Duration":302297,"SoundDuration":302297,"Delta":433408822},{"NoteNumber":67,"Velocity":81,"Duration":310238,"SoundDuration":310238,"Delta":434013417},{"NoteNumber":71,"Velocity":81,"Duration":310238,"SoundDuration":310238,"Delta":434013417},{"NoteNumber":74,"Velocity":81,"Duration":310238,"SoundDuration":310238,"Delta":434013417},{"NoteNumber":79,"Velocity":96,"Duration":310238,"SoundDuration":310238,"Delta":434013417},{"NoteNumber":67,"Velocity":81,"Duration":1203127,"SoundDuration":1203127,"Delta":434633893},{"NoteNumber":71,"Velocity":81,"Duration":1203127,"SoundDuration":1203127,"Delta":434633893},{"NoteNumber":74,"Velocity":81,"Duration":1203127,"SoundDuration":1203127,"Delta":434633893},{"NoteNumber":79,"Velocity":96,"Duration":1203127,"SoundDuration":1203127,"Delta":434633893},{"NoteNumber":43,"Velocity":78,"Duration":300782,"SoundDuration":300782,"Delta":435235457},{"NoteNumber":47,"Velocity":78,"Duration":300782,"SoundDuration":300782,"Delta":435235457},{"NoteNumber":50,"Velocity":78,"Duration":300782,"SoundDuration":300782,"Delta":435235457},{"NoteNumber":55,"Velocity":92,"Duration":300782,"SoundDuration":300782,"Delta":435235457},{"NoteNumber":31,"Velocity":85,"Duration":300782,"SoundDuration":300782,"Delta":435837021},{"NoteNumber":43,"Velocity":101,"Duration":300782,"SoundDuration":300782,"Delta":435837021},{"NoteNumber":71,"Velocity":81,"Duration":307030,"SoundDuration":307030,"Delta":436438585},{"NoteNumber":74,"Velocity":81,"Duration":307030,"SoundDuration":307030,"Delta":436438585},{"NoteNumber":79,"Velocity":81,"Duration":307030,"SoundDuration":307030,"Delta":436438585},{"NoteNumber":83,"Velocity":96,"Duration":307030,"SoundDuration":307030,"Delta":436438585},{"NoteNumber":71,"Velocity":81,"Duration":1209189,"SoundDuration":1209189,"Delta":437052647},{"NoteNumber":74,"Velocity":81,"Duration":1209189,"SoundDuration":1209189,"Delta":437052647},{"NoteNumber":79,"Velocity":81,"Duration":1209189,"SoundDuration":1209189,"Delta":437052647},{"NoteNumber":83,"Velocity":96,"Duration":1209189,"SoundDuration":1209189,"Delta":437052647},{"NoteNumber":43,"Velocity":78,"Duration":302297,"SoundDuration":302297,"Delta":437674876},{"NoteNumber":47,"Velocity":78,"Duration":302297,"SoundDuration":302297,"Delta":437674876},{"NoteNumber":50,"Velocity":78,"Duration":302297,"SoundDuration":302297,"Delta":437674876},{"NoteNumber":55,"Velocity":92,"Duration":302297,"SoundDuration":302297,"Delta":437674876},{"NoteNumber":31,"Velocity":85,"Duration":302297,"SoundDuration":302297,"Delta":438279471},{"NoteNumber":43,"Velocity":101,"Duration":302297,"SoundDuration":302297,"Delta":438279471},{"NoteNumber":74,"Velocity":81,"Duration":310238,"SoundDuration":310238,"Delta":438866432},{"NoteNumber":77,"Velocity":81,"Duration":310238,"SoundDuration":310238,"Delta":438866432},{"NoteNumber":83,"Velocity":81,"Duration":310238,"SoundDuration":310238,"Delta":438866432},{"NoteNumber":86,"Velocity":96,"Duration":310238,"SoundDuration":310238,"Delta":438866432},{"NoteNumber":74,"Velocity":81,"Duration":1215436,"SoundDuration":1215436,"Delta":439486908},{"NoteNumber":77,"Velocity":81,"Duration":1215436,"SoundDuration":1215436,"Delta":439486908},{"NoteNumber":83,"Velocity":81,"Duration":1215436,"SoundDuration":1215436,"Delta":439486908},{"NoteNumber":86,"Velocity":96,"Duration":1215436,"SoundDuration":1215436,"Delta":439486908},{"NoteNumber":43,"Velocity":78,"Duration":303858,"SoundDuration":303858,"Delta":440112351},{"NoteNumber":47,"Velocity":78,"Duration":303858,"SoundDuration":303858,"Delta":440112351},{"NoteNumber":50,"Velocity":78,"Duration":303858,"SoundDuration":303858,"Delta":440112351},{"NoteNumber":55,"Velocity":92,"Duration":303858,"SoundDuration":303858,"Delta":440112351},{"NoteNumber":31,"Velocity":85,"Duration":303858,"SoundDuration":303858,"Delta":440720069},{"NoteNumber":43,"Velocity":101,"Duration":303858,"SoundDuration":303858,"Delta":440720069},{"NoteNumber":77,"Velocity":81,"Duration":320273,"SoundDuration":320273,"Delta":441310062},{"NoteNumber":83,"Velocity":81,"Duration":320273,"SoundDuration":320273,"Delta":441310062},{"NoteNumber":86,"Velocity":81,"Duration":320273,"SoundDuration":320273,"Delta":441310062},{"NoteNumber":89,"Velocity":96,"Duration":320273,"SoundDuration":320273,"Delta":441310062},{"NoteNumber":77,"Velocity":81,"Duration":1234440,"SoundDuration":1234440,"Delta":441950609},{"NoteNumber":83,"Velocity":81,"Duration":1234440,"SoundDuration":1234440,"Delta":441950609},{"NoteNumber":86,"Velocity":81,"Duration":1234440,"SoundDuration":1234440,"Delta":441950609},{"NoteNumber":89,"Velocity":96,"Duration":1234440,"SoundDuration":1234440,"Delta":441950609},{"NoteNumber":43,"Velocity":78,"Duration":308609,"SoundDuration":308609,"Delta":442585831},{"NoteNumber":47,"Velocity":78,"Duration":308609,"SoundDuration":308609,"Delta":442585831},{"NoteNumber":50,"Velocity":78,"Duration":308609,"SoundDuration":308609,"Delta":442585831},{"NoteNumber":55,"Velocity":92,"Duration":308609,"SoundDuration":308609,"Delta":442585831},{"NoteNumber":31,"Velocity":76,"Duration":313152,"SoundDuration":313152,"Delta":443203316},{"NoteNumber":43,"Velocity":90,"Duration":313152,"SoundDuration":313152,"Delta":443203316},{"NoteNumber":83,"Velocity":69,"Duration":305405,"SoundDuration":305405,"Delta":443811354},{"NoteNumber":86,"Velocity":69,"Duration":305405,"SoundDuration":305405,"Delta":443811354},{"NoteNumber":89,"Velocity":69,"Duration":305405,"SoundDuration":305405,"Delta":443811354},{"NoteNumber":92,"Velocity":81,"Duration":305405,"SoundDuration":305405,"Delta":443811354},{"NoteNumber":65,"Velocity":64,"Duration":306967,"SoundDuration":306967,"Delta":444422165},{"NoteNumber":62,"Velocity":54,"Duration":306967,"SoundDuration":306967,"Delta":444422165},{"NoteNumber":59,"Velocity":54,"Duration":306967,"SoundDuration":306967,"Delta":444422165},{"NoteNumber":55,"Velocity":54,"Duration":306967,"SoundDuration":306967,"Delta":444422165},{"NoteNumber":80,"Velocity":60,"Duration":305405,"SoundDuration":305405,"Delta":445036101},{"NoteNumber":83,"Velocity":60,"Duration":305405,"SoundDuration":305405,"Delta":445036101},{"NoteNumber":86,"Velocity":60,"Duration":305405,"SoundDuration":305405,"Delta":445036101},{"NoteNumber":89,"Velocity":70,"Duration":305405,"SoundDuration":305405,"Delta":445036101},{"NoteNumber":65,"Velocity":58,"Duration":310013,"SoundDuration":310013,"Delta":445646912},{"NoteNumber":62,"Velocity":49,"Duration":310013,"SoundDuration":310013,"Delta":445646912},{"NoteNumber":59,"Velocity":49,"Duration":310013,"SoundDuration":310013,"Delta":445646912},{"NoteNumber":55,"Velocity":49,"Duration":310013,"SoundDuration":310013,"Delta":445646912},{"NoteNumber":86,"Velocity":67,"Duration":305405,"SoundDuration":305405,"Delta":446266939},{"NoteNumber":83,"Velocity":57,"Duration":305405,"SoundDuration":305405,"Delta":446266939},{"NoteNumber":80,"Velocity":57,"Duration":305405,"SoundDuration":305405,"Delta":446266939},{"NoteNumber":77,"Velocity":57,"Duration":305405,"SoundDuration":305405,"Delta":446266939},{"NoteNumber":65,"Velocity":51,"Duration":310013,"SoundDuration":310013,"Delta":446877750},{"NoteNumber":62,"Velocity":43,"Duration":310013,"SoundDuration":310013,"Delta":446877750},{"NoteNumber":59,"Velocity":43,"Duration":310013,"SoundDuration":310013,"Delta":446877750},{"NoteNumber":55,"Velocity":43,"Duration":310013,"SoundDuration":310013,"Delta":446877750},{"NoteNumber":83,"Velocity":60,"Duration":305405,"SoundDuration":305405,"Delta":447497777},{"NoteNumber":80,"Velocity":50,"Duration":305405,"SoundDuration":305405,"Delta":447497777},{"NoteNumber":77,"Velocity":50,"Duration":305405,"SoundDuration":305405,"Delta":447497777},{"NoteNumber":74,"Velocity":50,"Duration":305405,"SoundDuration":305405,"Delta":447497777},{"NoteNumber":55,"Velocity":40,"Duration":305405,"SoundDuration":305405,"Delta":448108588},{"NoteNumber":59,"Velocity":40,"Duration":305405,"SoundDuration":305405,"Delta":448108588},{"NoteNumber":62,"Velocity":40,"Duration":305405,"SoundDuration":305405,"Delta":448108588},{"NoteNumber":65,"Velocity":48,"Duration":305405,"SoundDuration":305405,"Delta":448108588},{"NoteNumber":71,"Velocity":41,"Duration":305405,"SoundDuration":305405,"Delta":448719399},{"NoteNumber":74,"Velocity":41,"Duration":305405,"SoundDuration":305405,"Delta":448719399},{"NoteNumber":77,"Velocity":41,"Duration":305405,"SoundDuration":305405,"Delta":448719399},{"NoteNumber":80,"Velocity":49,"Duration":305405,"SoundDuration":305405,"Delta":448719399},{"NoteNumber":43,"Velocity":32,"Duration":305405,"SoundDuration":305405,"Delta":449330210},{"NoteNumber":47,"Velocity":32,"Duration":305405,"SoundDuration":305405,"Delta":449330210},{"NoteNumber":50,"Velocity":32,"Duration":305405,"SoundDuration":305405,"Delta":449330210},{"NoteNumber":53,"Velocity":38,"Duration":305405,"SoundDuration":305405,"Delta":449330210},{"NoteNumber":68,"Velocity":39,"Duration":305405,"SoundDuration":305405,"Delta":449941021},{"NoteNumber":71,"Velocity":39,"Duration":305405,"SoundDuration":305405,"Delta":449941021},{"NoteNumber":77,"Velocity":46,"Duration":305405,"SoundDuration":305405,"Delta":449941021},{"NoteNumber":74,"Velocity":39,"Duration":305405,"SoundDuration":305405,"Delta":449941021},{"NoteNumber":43,"Velocity":30,"Duration":303307,"SoundDuration":303307,"Delta":450551832},{"NoteNumber":47,"Velocity":30,"Duration":303307,"SoundDuration":303307,"Delta":450551832},{"NoteNumber":50,"Velocity":30,"Duration":303307,"SoundDuration":303307,"Delta":450551832},{"NoteNumber":53,"Velocity":36,"Duration":303307,"SoundDuration":303307,"Delta":450551832},{"NoteNumber":65,"Velocity":36,"Duration":310382,"SoundDuration":310382,"Delta":451162070},{"NoteNumber":68,"Velocity":36,"Duration":310382,"SoundDuration":310382,"Delta":451162070},{"NoteNumber":71,"Velocity":36,"Duration":310382,"SoundDuration":310382,"Delta":451162070},{"NoteNumber":74,"Velocity":44,"Duration":310382,"SoundDuration":310382,"Delta":451162070},{"NoteNumber":43,"Velocity":28,"Duration":318079,"SoundDuration":318079,"Delta":451786357},{"NoteNumber":47,"Velocity":28,"Duration":318079,"SoundDuration":318079,"Delta":451786357},{"NoteNumber":50,"Velocity":28,"Duration":318079,"SoundDuration":318079,"Delta":451786357},{"NoteNumber":53,"Velocity":34,"Duration":318079,"SoundDuration":318079,"Delta":451786357},{"NoteNumber":62,"Velocity":34,"Duration":318640,"SoundDuration":318640,"Delta":452423077},{"NoteNumber":65,"Velocity":34,"Duration":318640,"SoundDuration":318640,"Delta":452423077},{"NoteNumber":68,"Velocity":34,"Duration":318640,"SoundDuration":318640,"Delta":452423077},{"NoteNumber":71,"Velocity":41,"Duration":318640,"SoundDuration":318640,"Delta":452423077},{"NoteNumber":43,"Velocity":21,"Duration":318640,"SoundDuration":318640,"Delta":453060358},{"NoteNumber":47,"Velocity":21,"Duration":318640,"SoundDuration":318640,"Delta":453060358},{"NoteNumber":50,"Velocity":21,"Duration":318640,"SoundDuration":318640,"Delta":453060358},{"NoteNumber":53,"Velocity":25,"Duration":318640,"SoundDuration":318640,"Delta":453060358},{"NoteNumber":59,"Velocity":26,"Duration":318640,"SoundDuration":318640,"Delta":453697639},{"NoteNumber":62,"Velocity":26,"Duration":318640,"SoundDuration":318640,"Delta":453697639},{"NoteNumber":65,"Velocity":26,"Duration":318640,"SoundDuration":318640,"Delta":453697639},{"NoteNumber":68,"Velocity":32,"Duration":318640,"SoundDuration":318640,"Delta":453697639},{"NoteNumber":43,"Velocity":21,"Duration":637280,"SoundDuration":637280,"Delta":455609482},{"NoteNumber":46,"Velocity":21,"Duration":637280,"SoundDuration":637280,"Delta":455609482},{"NoteNumber":49,"Velocity":21,"Duration":637280,"SoundDuration":637280,"Delta":455609482},{"NoteNumber":52,"Velocity":25,"Duration":637280,"SoundDuration":637280,"Delta":455609482},{"NoteNumber":58,"Velocity":26,"Duration":637281,"SoundDuration":637281,"Delta":456246763},{"NoteNumber":61,"Velocity":26,"Duration":637281,"SoundDuration":637281,"Delta":456246763},{"NoteNumber":64,"Velocity":26,"Duration":637281,"SoundDuration":637281,"Delta":456246763},{"NoteNumber":67,"Velocity":32,"Duration":637281,"SoundDuration":637281,"Delta":456246763},{"NoteNumber":43,"Velocity":21,"Duration":645896,"SoundDuration":645896,"Delta":458158042},{"NoteNumber":45,"Velocity":21,"Duration":645896,"SoundDuration":645896,"Delta":458158042},{"NoteNumber":48,"Velocity":21,"Duration":645896,"SoundDuration":645896,"Delta":458158042},{"NoteNumber":51,"Velocity":25,"Duration":645896,"SoundDuration":645896,"Delta":458158042},{"NoteNumber":57,"Velocity":26,"Duration":661039,"SoundDuration":661039,"Delta":458803939},{"NoteNumber":60,"Velocity":26,"Duration":661039,"SoundDuration":661039,"Delta":458803939},{"NoteNumber":63,"Velocity":26,"Duration":661039,"SoundDuration":661039,"Delta":458803939},{"NoteNumber":66,"Velocity":32,"Duration":661039,"SoundDuration":661039,"Delta":458803939},{"NoteNumber":43,"Velocity":25,"Duration":367511,"SoundDuration":367511,"Delta":460834801},{"NoteNumber":59,"Velocity":22,"Duration":6133513,"SoundDuration":6133513,"Delta":461569825},{"NoteNumber":62,"Velocity":22,"Duration":6133513,"SoundDuration":6133513,"Delta":461569825},{"NoteNumber":65,"Velocity":27,"Duration":6133513,"SoundDuration":6133513,"Delta":461569825},{"NoteNumber":79,"Velocity":30,"Duration":358722,"SoundDuration":358722,"Delta":462304849},{"NoteNumber":55,"Velocity":27,"Duration":388953,"SoundDuration":388953,"Delta":463022295},{"NoteNumber":43,"Velocity":25,"Duration":460829,"SoundDuration":460829,"Delta":463800202},{"NoteNumber":31,"Velocity":25,"Duration":2981477,"SoundDuration":2981477,"Delta":464721861},{"NoteNumber":60,"Velocity":85,"Duration":270978,"SoundDuration":270978,"Delta":467703339},{"NoteNumber":36,"Velocity":72,"Duration":270978,"SoundDuration":270978,"Delta":467703339},{"NoteNumber":48,"Velocity":75,"Duration":270978,"SoundDuration":270978,"Delta":467703339},{"NoteNumber":91,"Velocity":50,"Duration":104580,"SoundDuration":104580,"Delta":467974317},{"NoteNumber":64,"Velocity":41,"Duration":104580,"SoundDuration":104580,"Delta":467974317},{"NoteNumber":67,"Velocity":34,"Duration":104580,"SoundDuration":104580,"Delta":468078898},{"NoteNumber":91,"Velocity":53,"Duration":290491,"SoundDuration":290491,"Delta":468183478},{"NoteNumber":64,"Velocity":41,"Duration":96830,"SoundDuration":96830,"Delta":468183478},{"NoteNumber":67,"Velocity":34,"Duration":96830,"SoundDuration":96830,"Delta":468280309},{"NoteNumber":64,"Velocity":41,"Duration":96830,"SoundDuration":96830,"Delta":468377139},{"NoteNumber":88,"Velocity":50,"Duration":96830,"SoundDuration":96830,"Delta":468473970},{"NoteNumber":67,"Velocity":33,"Duration":96830,"SoundDuration":96830,"Delta":468473970},{"NoteNumber":86,"Velocity":54,"Duration":195515,"SoundDuration":195515,"Delta":468570800},{"NoteNumber":65,"Velocity":41,"Duration":97757,"SoundDuration":97757,"Delta":468570800},{"NoteNumber":67,"Velocity":34,"Duration":97757,"SoundDuration":97757,"Delta":468668558},{"NoteNumber":79,"Velocity":50,"Duration":191705,"SoundDuration":191705,"Delta":468766316},{"NoteNumber":65,"Velocity":41,"Duration":95852,"SoundDuration":95852,"Delta":468766316},{"NoteNumber":67,"Velocity":35,"Duration":95852,"SoundDuration":95852,"Delta":468862169},{"NoteNumber":84,"Velocity":50,"Duration":198072,"SoundDuration":198072,"Delta":468958022},{"NoteNumber":64,"Velocity":41,"Duration":99036,"SoundDuration":99036,"Delta":468958022},{"NoteNumber":67,"Velocity":34,"Duration":99036,"SoundDuration":99036,"Delta":469057058},{"NoteNumber":88,"Velocity":49,"Duration":198071,"SoundDuration":198071,"Delta":469156094},{"NoteNumber":64,"Velocity":41,"Duration":99035,"SoundDuration":99035,"Delta":469156094},{"NoteNumber":67,"Velocity":35,"Duration":99036,"SoundDuration":99036,"Delta":469255130},{"NoteNumber":64,"Velocity":41,"Duration":102648,"SoundDuration":102648,"Delta":469354166},{"NoteNumber":67,"Velocity":34,"Duration":102648,"SoundDuration":102648,"Delta":469456814},{"NoteNumber":91,"Velocity":50,"Duration":99036,"SoundDuration":99036,"Delta":469559462},{"NoteNumber":64,"Velocity":41,"Duration":99036,"SoundDuration":99036,"Delta":469559462},{"NoteNumber":67,"Velocity":34,"Duration":99036,"SoundDuration":99036,"Delta":469658498},{"NoteNumber":91,"Velocity":53,"Duration":288683,"SoundDuration":288683,"Delta":469757534},{"NoteNumber":64,"Velocity":41,"Duration":96227,"SoundDuration":96227,"Delta":469757534},{"NoteNumber":67,"Velocity":34,"Duration":96227,"SoundDuration":96227,"Delta":469853762},{"NoteNumber":64,"Velocity":41,"Duration":96227,"SoundDuration":96227,"Delta":469949990},{"NoteNumber":88,"Velocity":50,"Duration":96227,"SoundDuration":96227,"Delta":470046218},{"NoteNumber":67,"Velocity":33,"Duration":96227,"SoundDuration":96227,"Delta":470046218},{"NoteNumber":86,"Velocity":54,"Duration":195515,"SoundDuration":195515,"Delta":470142445},{"NoteNumber":65,"Velocity":41,"Duration":97757,"SoundDuration":97757,"Delta":470142445},{"NoteNumber":67,"Velocity":34,"Duration":97757,"SoundDuration":97757,"Delta":470240203},{"NoteNumber":79,"Velocity":50,"Duration":191705,"SoundDuration":191705,"Delta":470337961},{"NoteNumber":65,"Velocity":41,"Duration":95852,"SoundDuration":95852,"Delta":470337961},{"NoteNumber":67,"Velocity":35,"Duration":95852,"SoundDuration":95852,"Delta":470433814},{"NoteNumber":84,"Velocity":50,"Duration":198072,"SoundDuration":198072,"Delta":470529667},{"NoteNumber":64,"Velocity":41,"Duration":99036,"SoundDuration":99036,"Delta":470529667},{"NoteNumber":67,"Velocity":34,"Duration":99036,"SoundDuration":99036,"Delta":470628703},{"NoteNumber":64,"Velocity":41,"Duration":99035,"SoundDuration":99035,"Delta":470727739},{"NoteNumber":67,"Velocity":35,"Duration":99036,"SoundDuration":99036,"Delta":470826775},{"NoteNumber":91,"Velocity":50,"Duration":94393,"SoundDuration":94393,"Delta":470925811},{"NoteNumber":60,"Velocity":41,"Duration":188785,"SoundDuration":188785,"Delta":470925811},{"NoteNumber":64,"Velocity":41,"Duration":94393,"SoundDuration":94393,"Delta":470925811},{"NoteNumber":90,"Velocity":47,"Duration":94392,"SoundDuration":94392,"Delta":471020204},{"NoteNumber":67,"Velocity":34,"Duration":94392,"SoundDuration":94392,"Delta":471020204},{"NoteNumber":91,"Velocity":50,"Duration":94393,"SoundDuration":94393,"Delta":471114597},{"NoteNumber":60,"Velocity":41,"Duration":188785,"SoundDuration":188785,"Delta":471114597},{"NoteNumber":64,"Velocity":41,"Duration":94393,"SoundDuration":94393,"Delta":471114597},{"NoteNumber":90,"Velocity":46,"Duration":94392,"SoundDuration":94392,"Delta":471208990},{"NoteNumber":67,"Velocity":34,"Duration":94392,"SoundDuration":94392,"Delta":471208990},{"NoteNumber":91,"Velocity":50,"Duration":94393,"SoundDuration":94393,"Delta":471303383},{"NoteNumber":60,"Velocity":41,"Duration":188785,"SoundDuration":188785,"Delta":471303383},{"NoteNumber":64,"Velocity":41,"Duration":94393,"SoundDuration":94393,"Delta":471303383},{"NoteNumber":90,"Velocity":47,"Duration":94392,"SoundDuration":94392,"Delta":471397776},{"NoteNumber":67,"Velocity":34,"Duration":94392,"SoundDuration":94392,"Delta":471397776},{"NoteNumber":91,"Velocity":50,"Duration":94616,"SoundDuration":94616,"Delta":471492169},{"NoteNumber":60,"Velocity":41,"Duration":190389,"SoundDuration":190389,"Delta":471492169},{"NoteNumber":64,"Velocity":41,"Duration":94616,"SoundDuration":94616,"Delta":471492169},{"NoteNumber":88,"Velocity":47,"Duration":95773,"SoundDuration":95773,"Delta":471586785},{"NoteNumber":67,"Velocity":33,"Duration":95773,"SoundDuration":95773,"Delta":471586785},{"NoteNumber":86,"Velocity":48,"Duration":95773,"SoundDuration":95773,"Delta":471682558},{"NoteNumber":60,"Velocity":38,"Duration":191546,"SoundDuration":191546,"Delta":471682558},{"NoteNumber":65,"Velocity":38,"Duration":95773,"SoundDuration":95773,"Delta":471682558},{"NoteNumber":85,"Velocity":43,"Duration":95773,"SoundDuration":95773,"Delta":471778332},{"NoteNumber":67,"Velocity":32,"Duration":95773,"SoundDuration":95773,"Delta":471778332},{"NoteNumber":86,"Velocity":48,"Duration":95773,"SoundDuration":95773,"Delta":471874105},{"NoteNumber":60,"Velocity":38,"Duration":191546,"SoundDuration":191546,"Delta":471874105},{"NoteNumber":65,"Velocity":38,"Duration":95773,"SoundDuration":95773,"Delta":471874105},{"NoteNumber":79,"Velocity":45,"Duration":95773,"SoundDuration":95773,"Delta":471969878},{"NoteNumber":67,"Velocity":33,"Duration":95773,"SoundDuration":95773,"Delta":471969878},{"NoteNumber":84,"Velocity":48,"Duration":97194,"SoundDuration":97194,"Delta":472065651},{"NoteNumber":60,"Velocity":38,"Duration":194388,"SoundDuration":194388,"Delta":472065651},{"NoteNumber":64,"Velocity":38,"Duration":97194,"SoundDuration":97194,"Delta":472065651},{"NoteNumber":83,"Velocity":44,"Duration":97194,"SoundDuration":97194,"Delta":472162846},{"NoteNumber":67,"Velocity":32,"Duration":97194,"SoundDuration":97194,"Delta":472162846},{"NoteNumber":84,"Velocity":50,"Duration":97194,"SoundDuration":97194,"Delta":472260040},{"NoteNumber":60,"Velocity":38,"Duration":197461,"SoundDuration":197461,"Delta":472260040},{"NoteNumber":64,"Velocity":38,"Duration":97194,"SoundDuration":97194,"Delta":472260040},{"NoteNumber":88,"Velocity":46,"Duration":100267,"SoundDuration":100267,"Delta":472357234},{"NoteNumber":67,"Velocity":33,"Duration":100267,"SoundDuration":100267,"Delta":472357234},{"NoteNumber":91,"Velocity":50,"Duration":94393,"SoundDuration":94393,"Delta":472457502},{"NoteNumber":60,"Velocity":41,"Duration":188785,"SoundDuration":188785,"Delta":472457502},{"NoteNumber":64,"Velocity":41,"Duration":94393,"SoundDuration":94393,"Delta":472457502},{"NoteNumber":90,"Velocity":46,"Duration":94392,"SoundDuration":94392,"Delta":472551895},{"NoteNumber":67,"Velocity":34,"Duration":94392,"SoundDuration":94392,"Delta":472551895},{"NoteNumber":91,"Velocity":50,"Duration":94393,"SoundDuration":94393,"Delta":472646288},{"NoteNumber":60,"Velocity":41,"Duration":188785,"SoundDuration":188785,"Delta":472646288},{"NoteNumber":64,"Velocity":41,"Duration":94393,"SoundDuration":94393,"Delta":472646288},{"NoteNumber":90,"Velocity":47,"Duration":94392,"SoundDuration":94392,"Delta":472740681},{"NoteNumber":67,"Velocity":34,"Duration":94392,"SoundDuration":94392,"Delta":472740681},{"NoteNumber":91,"Velocity":50,"Duration":94393,"SoundDuration":94393,"Delta":472835074},{"NoteNumber":60,"Velocity":41,"Duration":188785,"SoundDuration":188785,"Delta":472835074},{"NoteNumber":64,"Velocity":41,"Duration":94393,"SoundDuration":94393,"Delta":472835074},{"NoteNumber":90,"Velocity":46,"Duration":94392,"SoundDuration":94392,"Delta":472929467},{"NoteNumber":67,"Velocity":34,"Duration":94392,"SoundDuration":94392,"Delta":472929467},{"NoteNumber":91,"Velocity":50,"Duration":94616,"SoundDuration":94616,"Delta":473023860},{"NoteNumber":60,"Velocity":41,"Duration":190389,"SoundDuration":190389,"Delta":473023860},{"NoteNumber":64,"Velocity":41,"Duration":94616,"SoundDuration":94616,"Delta":473023860},{"NoteNumber":88,"Velocity":44,"Duration":95773,"SoundDuration":95773,"Delta":473118476},{"NoteNumber":67,"Velocity":33,"Duration":95773,"SoundDuration":95773,"Delta":473118476},{"NoteNumber":86,"Velocity":48,"Duration":95773,"SoundDuration":95773,"Delta":473214249},{"NoteNumber":60,"Velocity":38,"Duration":191546,"SoundDuration":191546,"Delta":473214249},{"NoteNumber":65,"Velocity":38,"Duration":95773,"SoundDuration":95773,"Delta":473214249},{"NoteNumber":85,"Velocity":45,"Duration":95773,"SoundDuration":95773,"Delta":473310022},{"NoteNumber":67,"Velocity":32,"Duration":95773,"SoundDuration":95773,"Delta":473310022},{"NoteNumber":86,"Velocity":49,"Duration":95773,"SoundDuration":95773,"Delta":473405796},{"NoteNumber":60,"Velocity":38,"Duration":191546,"SoundDuration":191546,"Delta":473405796},{"NoteNumber":65,"Velocity":38,"Duration":95773,"SoundDuration":95773,"Delta":473405796},{"NoteNumber":79,"Velocity":45,"Duration":95773,"SoundDuration":95773,"Delta":473501569},{"NoteNumber":67,"Velocity":33,"Duration":95773,"SoundDuration":95773,"Delta":473501569},{"NoteNumber":84,"Velocity":49,"Duration":97194,"SoundDuration":97194,"Delta":473597342},{"NoteNumber":60,"Velocity":38,"Duration":194388,"SoundDuration":194388,"Delta":473597342},{"NoteNumber":64,"Velocity":38,"Duration":97194,"SoundDuration":97194,"Delta":473597342},{"NoteNumber":83,"Velocity":46,"Duration":97194,"SoundDuration":97194,"Delta":473694536},{"NoteNumber":67,"Velocity":32,"Duration":97194,"SoundDuration":97194,"Delta":473694536},{"NoteNumber":84,"Velocity":49,"Duration":97194,"SoundDuration":97194,"Delta":473791731},{"NoteNumber":60,"Velocity":38,"Duration":194388,"SoundDuration":194388,"Delta":473791731},{"NoteNumber":64,"Velocity":38,"Duration":97194,"SoundDuration":97194,"Delta":473791731},{"NoteNumber":88,"Velocity":46,"Duration":97194,"SoundDuration":97194,"Delta":473888925},{"NoteNumber":67,"Velocity":33,"Duration":97194,"SoundDuration":97194,"Delta":473888925},{"NoteNumber":86,"Velocity":59,"Duration":95773,"SoundDuration":95773,"Delta":473986119},{"NoteNumber":60,"Velocity":48,"Duration":191546,"SoundDuration":191546,"Delta":473986119},{"NoteNumber":65,"Velocity":48,"Duration":95773,"SoundDuration":95773,"Delta":473986119},{"NoteNumber":85,"Velocity":55,"Duration":95773,"SoundDuration":95773,"Delta":474081892},{"NoteNumber":67,"Velocity":43,"Duration":95773,"SoundDuration":95773,"Delta":474081892},{"NoteNumber":86,"Velocity":68,"Duration":95773,"SoundDuration":95773,"Delta":474177666},{"NoteNumber":60,"Velocity":54,"Duration":191546,"SoundDuration":191546,"Delta":474177666},{"NoteNumber":65,"Velocity":54,"Duration":95773,"SoundDuration":95773,"Delta":474177666},{"NoteNumber":79,"Velocity":62,"Duration":95773,"SoundDuration":95773,"Delta":474273439},{"NoteNumber":67,"Velocity":47,"Duration":95773,"SoundDuration":95773,"Delta":474273439},{"NoteNumber":84,"Velocity":74,"Duration":103364,"SoundDuration":103364,"Delta":474369212},{"NoteNumber":64,"Velocity":60,"Duration":103364,"SoundDuration":103364,"Delta":474369212},{"NoteNumber":83,"Velocity":67,"Duration":103364,"SoundDuration":103364,"Delta":474464626},{"NoteNumber":63,"Velocity":53,"Duration":103364,"SoundDuration":103364,"Delta":474464626},{"NoteNumber":84,"Velocity":67,"Duration":103543,"SoundDuration":103543,"Delta":474560040},{"NoteNumber":64,"Velocity":53,"Duration":103543,"SoundDuration":103543,"Delta":474560040},{"NoteNumber":88,"Velocity":67,"Duration":97560,"SoundDuration":97560,"Delta":474655453},{"NoteNumber":60,"Velocity":54,"Duration":97560,"SoundDuration":97560,"Delta":474655453},{"NoteNumber":83,"Velocity":76,"Duration":103364,"SoundDuration":103364,"Delta":474753014},{"NoteNumber":62,"Velocity":61,"Duration":103364,"SoundDuration":103364,"Delta":474753014},{"NoteNumber":82,"Velocity":69,"Duration":103364,"SoundDuration":103364,"Delta":474848428},{"NoteNumber":61,"Velocity":54,"Duration":103364,"SoundDuration":103364,"Delta":474848428},{"NoteNumber":83,"Velocity":69,"Duration":103513,"SoundDuration":103513,"Delta":474943842},{"NoteNumber":62,"Velocity":54,"Duration":103513,"SoundDuration":103513,"Delta":474943842},{"NoteNumber":86,"Velocity":69,"Duration":97194,"SoundDuration":97194,"Delta":475039256},{"NoteNumber":59,"Velocity":54,"Duration":97194,"SoundDuration":97194,"Delta":475039256},{"NoteNumber":81,"Velocity":75,"Duration":103364,"SoundDuration":103364,"Delta":475136450},{"NoteNumber":60,"Velocity":61,"Duration":103364,"SoundDuration":103364,"Delta":475136450},{"NoteNumber":80,"Velocity":70,"Duration":103364,"SoundDuration":103364,"Delta":475231864},{"NoteNumber":59,"Velocity":54,"Duration":103364,"SoundDuration":103364,"Delta":475231864},{"NoteNumber":81,"Velocity":70,"Duration":103574,"SoundDuration":103574,"Delta":475327277},{"NoteNumber":60,"Velocity":54,"Duration":103574,"SoundDuration":103574,"Delta":475327277},{"NoteNumber":84,"Velocity":70,"Duration":97923,"SoundDuration":97923,"Delta":475422691},{"NoteNumber":57,"Velocity":54,"Duration":97923,"SoundDuration":97923,"Delta":475422691},{"NoteNumber":79,"Velocity":75,"Duration":103364,"SoundDuration":103364,"Delta":475520615},{"NoteNumber":59,"Velocity":60,"Duration":103364,"SoundDuration":103364,"Delta":475520615},{"NoteNumber":78,"Velocity":69,"Duration":103364,"SoundDuration":103364,"Delta":475616029},{"NoteNumber":58,"Velocity":54,"Duration":103364,"SoundDuration":103364,"Delta":475616029},{"NoteNumber":79,"Velocity":69,"Duration":103513,"SoundDuration":103513,"Delta":475711443},{"NoteNumber":59,"Velocity":54,"Duration":103513,"SoundDuration":103513,"Delta":475711443},{"NoteNumber":83,"Velocity":69,"Duration":97194,"SoundDuration":97194,"Delta":475806856},{"NoteNumber":55,"Velocity":54,"Duration":97194,"SoundDuration":97194,"Delta":475806856},{"NoteNumber":77,"Velocity":75,"Duration":103364,"SoundDuration":103364,"Delta":475904051},{"NoteNumber":57,"Velocity":60,"Duration":103364,"SoundDuration":103364,"Delta":475904051},{"NoteNumber":76,"Velocity":69,"Duration":103364,"SoundDuration":103364,"Delta":475999464},{"NoteNumber":56,"Velocity":54,"Duration":103364,"SoundDuration":103364,"Delta":475999464},{"NoteNumber":77,"Velocity":69,"Duration":103543,"SoundDuration":103543,"Delta":476094878},{"NoteNumber":57,"Velocity":54,"Duration":103543,"SoundDuration":103543,"Delta":476094878},{"NoteNumber":81,"Velocity":69,"Duration":97560,"SoundDuration":97560,"Delta":476190292},{"NoteNumber":53,"Velocity":54,"Duration":97560,"SoundDuration":97560,"Delta":476190292},{"NoteNumber":76,"Velocity":75,"Duration":103993,"SoundDuration":103993,"Delta":476287853},{"NoteNumber":55,"Velocity":60,"Duration":103993,"SoundDuration":103993,"Delta":476287853},{"NoteNumber":75,"Velocity":70,"Duration":103993,"SoundDuration":103993,"Delta":476383847},{"NoteNumber":54,"Velocity":54,"Duration":103993,"SoundDuration":103993,"Delta":476383847},{"NoteNumber":76,"Velocity":70,"Duration":104258,"SoundDuration":104258,"Delta":476479840},{"NoteNumber":55,"Velocity":54,"Duration":104258,"SoundDuration":104258,"Delta":476479840},{"NoteNumber":79,"Velocity":70,"Duration":99173,"SoundDuration":99173,"Delta":476575834},{"NoteNumber":52,"Velocity":54,"Duration":99173,"SoundDuration":99173,"Delta":476575834},{"NoteNumber":74,"Velocity":75,"Duration":104333,"SoundDuration":104333,"Delta":476675008},{"NoteNumber":53,"Velocity":61,"Duration":104333,"SoundDuration":104333,"Delta":476675008},{"NoteNumber":73,"Velocity":70,"Duration":104333,"SoundDuration":104333,"Delta":476771316},{"NoteNumber":52,"Velocity":54,"Duration":104333,"SoundDuration":104333,"Delta":476771316},{"NoteNumber":74,"Velocity":70,"Duration":104627,"SoundDuration":104627,"Delta":476867624},{"NoteNumber":53,"Velocity":54,"Duration":104627,"SoundDuration":104627,"Delta":476867624},{"NoteNumber":77,"Velocity":69,"Duration":99833,"SoundDuration":99833,"Delta":476963932},{"NoteNumber":50,"Velocity":54,"Duration":99833,"SoundDuration":99833,"Delta":476963932},{"NoteNumber":72,"Velocity":75,"Duration":105008,"SoundDuration":105008,"Delta":477063766},{"NoteNumber":52,"Velocity":62,"Duration":105008,"SoundDuration":105008,"Delta":477063766},{"NoteNumber":71,"Velocity":69,"Duration":105008,"SoundDuration":105008,"Delta":477160696},{"NoteNumber":51,"Velocity":54,"Duration":105008,"SoundDuration":105008,"Delta":477160696},{"NoteNumber":72,"Velocity":69,"Duration":105222,"SoundDuration":105222,"Delta":477257627},{"NoteNumber":52,"Velocity":54,"Duration":105222,"SoundDuration":105222,"Delta":477257627},{"NoteNumber":76,"Velocity":69,"Duration":99502,"SoundDuration":99502,"Delta":477354557},{"NoteNumber":48,"Velocity":54,"Duration":99502,"SoundDuration":99502,"Delta":477354557},{"NoteNumber":76,"Velocity":75,"Duration":104663,"SoundDuration":104663,"Delta":477454060},{"NoteNumber":60,"Velocity":61,"Duration":104663,"SoundDuration":104663,"Delta":477454060},{"NoteNumber":75,"Velocity":68,"Duration":104663,"SoundDuration":104663,"Delta":477550672},{"NoteNumber":59,"Velocity":54,"Duration":104663,"SoundDuration":104663,"Delta":477550672},{"NoteNumber":76,"Velocity":68,"Duration":104849,"SoundDuration":104849,"Delta":477647284},{"NoteNumber":60,"Velocity":54,"Duration":104849,"SoundDuration":104849,"Delta":477647284},{"NoteNumber":79,"Velocity":68,"Duration":98846,"SoundDuration":98846,"Delta":477743897},{"NoteNumber":64,"Velocity":54,"Duration":98846,"SoundDuration":98846,"Delta":477743897},{"NoteNumber":74,"Velocity":75,"Duration":104333,"SoundDuration":104333,"Delta":477842743},{"NoteNumber":59,"Velocity":61,"Duration":104333,"SoundDuration":104333,"Delta":477842743},{"NoteNumber":73,"Velocity":68,"Duration":104333,"SoundDuration":104333,"Delta":477939052},{"NoteNumber":58,"Velocity":54,"Duration":104333,"SoundDuration":104333,"Delta":477939052},{"NoteNumber":74,"Velocity":68,"Duration":104517,"SoundDuration":104517,"Delta":478035360},{"NoteNumber":59,"Velocity":54,"Duration":104517,"SoundDuration":104517,"Delta":478035360},{"NoteNumber":71,"Velocity":68,"Duration":98515,"SoundDuration":98515,"Delta":478131668},{"NoteNumber":62,"Velocity":54,"Duration":98515,"SoundDuration":98515,"Delta":478131668},{"NoteNumber":72,"Velocity":74,"Duration":103364,"SoundDuration":103364,"Delta":478230184},{"NoteNumber":57,"Velocity":61,"Duration":103364,"SoundDuration":103364,"Delta":478230184},{"NoteNumber":71,"Velocity":68,"Duration":103364,"SoundDuration":103364,"Delta":478325598},{"NoteNumber":56,"Velocity":54,"Duration":103364,"SoundDuration":103364,"Delta":478325598},{"NoteNumber":72,"Velocity":68,"Duration":103543,"SoundDuration":103543,"Delta":478421011},{"NoteNumber":57,"Velocity":54,"Duration":103543,"SoundDuration":103543,"Delta":478421011},{"NoteNumber":69,"Velocity":68,"Duration":97560,"SoundDuration":97560,"Delta":478516425},{"NoteNumber":60,"Velocity":54,"Duration":97560,"SoundDuration":97560,"Delta":478516425},{"NoteNumber":71,"Velocity":74,"Duration":103364,"SoundDuration":103364,"Delta":478613986},{"NoteNumber":55,"Velocity":60,"Duration":103364,"SoundDuration":103364,"Delta":478613986},{"NoteNumber":70,"Velocity":69,"Duration":103364,"SoundDuration":103364,"Delta":478709400},{"NoteNumber":54,"Velocity":54,"Duration":103364,"SoundDuration":103364,"Delta":478709400},{"NoteNumber":71,"Velocity":68,"Duration":103543,"SoundDuration":103543,"Delta":478804814},{"NoteNumber":55,"Velocity":54,"Duration":103543,"SoundDuration":103543,"Delta":478804814},{"NoteNumber":67,"Velocity":68,"Duration":97560,"SoundDuration":97560,"Delta":478900227},{"NoteNumber":59,"Velocity":54,"Duration":97560,"SoundDuration":97560,"Delta":478900227},{"NoteNumber":69,"Velocity":74,"Duration":103364,"SoundDuration":103364,"Delta":478997788},{"NoteNumber":53,"Velocity":61,"Duration":103364,"SoundDuration":103364,"Delta":478997788},{"NoteNumber":68,"Velocity":68,"Duration":103364,"SoundDuration":103364,"Delta":479093202},{"NoteNumber":52,"Velocity":54,"Duration":103364,"SoundDuration":103364,"Delta":479093202},{"NoteNumber":69,"Velocity":68,"Duration":103543,"SoundDuration":103543,"Delta":479188616},{"NoteNumber":53,"Velocity":54,"Duration":103543,"SoundDuration":103543,"Delta":479188616},{"NoteNumber":65,"Velocity":68,"Duration":97560,"SoundDuration":97560,"Delta":479284030},{"NoteNumber":57,"Velocity":54,"Duration":97560,"SoundDuration":97560,"Delta":479284030},{"NoteNumber":67,"Velocity":74,"Duration":103661,"SoundDuration":103661,"Delta":479381591},{"NoteNumber":52,"Velocity":62,"Duration":103661,"SoundDuration":103661,"Delta":479381591},{"NoteNumber":66,"Velocity":68,"Duration":103661,"SoundDuration":103661,"Delta":479477278},{"NoteNumber":51,"Velocity":54,"Duration":103661,"SoundDuration":103661,"Delta":479477278},{"NoteNumber":67,"Velocity":68,"Duration":103979,"SoundDuration":103979,"Delta":479572966},{"NoteNumber":52,"Velocity":54,"Duration":103979,"SoundDuration":103979,"Delta":479572966},{"NoteNumber":64,"Velocity":68,"Duration":99502,"SoundDuration":99502,"Delta":479668654},{"NoteNumber":55,"Velocity":54,"Duration":99502,"SoundDuration":99502,"Delta":479668654},{"NoteNumber":65,"Velocity":74,"Duration":104333,"SoundDuration":104333,"Delta":479768156},{"NoteNumber":50,"Velocity":60,"Duration":104333,"SoundDuration":104333,"Delta":479768156},{"NoteNumber":64,"Velocity":68,"Duration":104333,"SoundDuration":104333,"Delta":479864465},{"NoteNumber":49,"Velocity":54,"Duration":104333,"SoundDuration":104333,"Delta":479864465},{"NoteNumber":65,"Velocity":68,"Duration":105020,"SoundDuration":105020,"Delta":479960773},{"NoteNumber":50,"Velocity":54,"Duration":105020,"SoundDuration":105020,"Delta":479960773},{"NoteNumber":62,"Velocity":68,"Duration":99833,"SoundDuration":99833,"Delta":480057474},{"NoteNumber":53,"Velocity":53,"Duration":99833,"SoundDuration":99833,"Delta":480057474},{"NoteNumber":64,"Velocity":91,"Duration":104663,"SoundDuration":104663,"Delta":480157307},{"NoteNumber":48,"Velocity":84,"Duration":193224,"SoundDuration":193224,"Delta":480157307},{"NoteNumber":60,"Velocity":81,"Duration":104663,"SoundDuration":104663,"Delta":480253920},{"NoteNumber":55,"Velocity":81,"Duration":104772,"SoundDuration":104772,"Delta":480350532},{"NoteNumber":64,"Velocity":81,"Duration":97923,"SoundDuration":97923,"Delta":480447144},{"NoteNumber":48,"Velocity":72,"Duration":97923,"SoundDuration":97923,"Delta":480447144},{"NoteNumber":62,"Velocity":90,"Duration":103993,"SoundDuration":103993,"Delta":480545068},{"NoteNumber":43,"Velocity":84,"Duration":191987,"SoundDuration":191987,"Delta":480545068},{"NoteNumber":59,"Velocity":81,"Duration":103993,"SoundDuration":103993,"Delta":480641062},{"NoteNumber":55,"Velocity":81,"Duration":104123,"SoundDuration":104123,"Delta":480737056},{"NoteNumber":62,"Velocity":81,"Duration":97560,"SoundDuration":97560,"Delta":480833049},{"NoteNumber":43,"Velocity":72,"Duration":97560,"SoundDuration":97560,"Delta":480833049},{"NoteNumber":65,"Velocity":91,"Duration":103364,"SoundDuration":103364,"Delta":480930610},{"NoteNumber":50,"Velocity":84,"Duration":190827,"SoundDuration":190827,"Delta":480930610},{"NoteNumber":62,"Velocity":81,"Duration":103364,"SoundDuration":103364,"Delta":481026024},{"NoteNumber":57,"Velocity":81,"Duration":103574,"SoundDuration":103574,"Delta":481121438},{"NoteNumber":65,"Velocity":81,"Duration":97923,"SoundDuration":97923,"Delta":481216852},{"NoteNumber":50,"Velocity":72,"Duration":97923,"SoundDuration":97923,"Delta":481216852},{"NoteNumber":64,"Velocity":90,"Duration":103364,"SoundDuration":103364,"Delta":481314776},{"NoteNumber":45,"Velocity":84,"Duration":190827,"SoundDuration":190827,"Delta":481314776},{"NoteNumber":60,"Velocity":81,"Duration":103364,"SoundDuration":103364,"Delta":481410189},{"NoteNumber":57,"Velocity":81,"Duration":103604,"SoundDuration":103604,"Delta":481505603},{"NoteNumber":64,"Velocity":81,"Duration":98283,"SoundDuration":98283,"Delta":481601017},{"NoteNumber":45,"Velocity":72,"Duration":98283,"SoundDuration":98283,"Delta":481601017},{"NoteNumber":69,"Velocity":90,"Duration":103364,"SoundDuration":103364,"Delta":481699300},{"NoteNumber":53,"Velocity":84,"Duration":190827,"SoundDuration":190827,"Delta":481699300},{"NoteNumber":65,"Velocity":81,"Duration":103364,"SoundDuration":103364,"Delta":481794714},{"NoteNumber":60,"Velocity":81,"Duration":103604,"SoundDuration":103604,"Delta":481890128},{"NoteNumber":69,"Velocity":81,"Duration":98283,"SoundDuration":98283,"Delta":481985541},{"NoteNumber":53,"Velocity":73,"Duration":98283,"SoundDuration":98283,"Delta":481985541},{"NoteNumber":67,"Velocity":90,"Duration":103364,"SoundDuration":103364,"Delta":482083825},{"NoteNumber":48,"Velocity":84,"Duration":190827,"SoundDuration":190827,"Delta":482083825},{"NoteNumber":64,"Velocity":81,"Duration":103364,"SoundDuration":103364,"Delta":482179238},{"NoteNumber":60,"Velocity":81,"Duration":103574,"SoundDuration":103574,"Delta":482274652},{"NoteNumber":72,"Velocity":81,"Duration":97923,"SoundDuration":97923,"Delta":482370066},{"NoteNumber":48,"Velocity":74,"Duration":97923,"SoundDuration":97923,"Delta":482370066},{"NoteNumber":62,"Velocity":91,"Duration":103364,"SoundDuration":103364,"Delta":482467990},{"NoteNumber":55,"Velocity":84,"Duration":190827,"SoundDuration":190827,"Delta":482467990},{"NoteNumber":72,"Velocity":81,"Duration":103364,"SoundDuration":103364,"Delta":482563404},{"NoteNumber":67,"Velocity":81,"Duration":103574,"SoundDuration":103574,"Delta":482658817},{"NoteNumber":62,"Velocity":81,"Duration":97923,"SoundDuration":97923,"Delta":482754231},{"NoteNumber":55,"Velocity":73,"Duration":97923,"SoundDuration":97923,"Delta":482754231},{"NoteNumber":71,"Velocity":91,"Duration":103364,"SoundDuration":103364,"Delta":482852155},{"NoteNumber":43,"Velocity":84,"Duration":190827,"SoundDuration":190827,"Delta":482852155},{"NoteNumber":67,"Velocity":81,"Duration":103364,"SoundDuration":103364,"Delta":482947569},{"NoteNumber":62,"Velocity":81,"Duration":103604,"SoundDuration":103604,"Delta":483042983},{"NoteNumber":71,"Velocity":81,"Duration":98283,"SoundDuration":98283,"Delta":483138396},{"NoteNumber":43,"Velocity":74,"Duration":98283,"SoundDuration":98283,"Delta":483138396},{"NoteNumber":76,"Velocity":91,"Duration":103364,"SoundDuration":103364,"Delta":483236680},{"NoteNumber":48,"Velocity":84,"Duration":190827,"SoundDuration":190827,"Delta":483236680},{"NoteNumber":72,"Velocity":81,"Duration":103364,"SoundDuration":103364,"Delta":483332093},{"NoteNumber":67,"Velocity":81,"Duration":103574,"SoundDuration":103574,"Delta":483427507},{"NoteNumber":76,"Velocity":81,"Duration":97923,"SoundDuration":97923,"Delta":483522921},{"NoteNumber":60,"Velocity":73,"Duration":97923,"SoundDuration":97923,"Delta":483522921},{"NoteNumber":67,"Velocity":91,"Duration":103364,"SoundDuration":103364,"Delta":483620845},{"NoteNumber":55,"Velocity":84,"Duration":190827,"SoundDuration":190827,"Delta":483620845},{"NoteNumber":74,"Velocity":81,"Duration":103364,"SoundDuration":103364,"Delta":483716259},{"NoteNumber":71,"Velocity":81,"Duration":103604,"SoundDuration":103604,"Delta":483811672},{"NoteNumber":67,"Velocity":81,"Duration":98283,"SoundDuration":98283,"Delta":483907086},{"NoteNumber":55,"Velocity":73,"Duration":98283,"SoundDuration":98283,"Delta":483907086},{"NoteNumber":77,"Velocity":91,"Duration":103364,"SoundDuration":103364,"Delta":484005369},{"NoteNumber":50,"Velocity":84,"Duration":190827,"SoundDuration":190827,"Delta":484005369},{"NoteNumber":74,"Velocity":81,"Duration":103364,"SoundDuration":103364,"Delta":484100783},{"NoteNumber":69,"Velocity":81,"Duration":103604,"SoundDuration":103604,"Delta":484196197},{"NoteNumber":77,"Velocity":81,"Duration":98283,"SoundDuration":98283,"Delta":484291611},{"NoteNumber":62,"Velocity":72,"Duration":98283,"SoundDuration":98283,"Delta":484291611},{"NoteNumber":69,"Velocity":93,"Duration":103364,"SoundDuration":103364,"Delta":484389894},{"NoteNumber":57,"Velocity":84,"Duration":190827,"SoundDuration":190827,"Delta":484389894},{"NoteNumber":76,"Velocity":81,"Duration":103364,"SoundDuration":103364,"Delta":484485308},{"NoteNumber":72,"Velocity":81,"Duration":103604,"SoundDuration":103604,"Delta":484580721},{"NoteNumber":69,"Velocity":81,"Duration":98283,"SoundDuration":98283,"Delta":484676135},{"NoteNumber":57,"Velocity":72,"Duration":98283,"SoundDuration":98283,"Delta":484676135},{"NoteNumber":81,"Velocity":92,"Duration":104676,"SoundDuration":104676,"Delta":484774418},{"NoteNumber":53,"Velocity":84,"Duration":193248,"SoundDuration":193248,"Delta":484774418},{"NoteNumber":77,"Velocity":81,"Duration":104676,"SoundDuration":104676,"Delta":484871043},{"NoteNumber":72,"Velocity":81,"Duration":104984,"SoundDuration":104984,"Delta":484967667},{"NoteNumber":81,"Velocity":81,"Duration":100321,"SoundDuration":100321,"Delta":485064292},{"NoteNumber":65,"Velocity":73,"Duration":100321,"SoundDuration":100321,"Delta":485064292},{"NoteNumber":72,"Velocity":92,"Duration":105382,"SoundDuration":105382,"Delta":485164613},{"NoteNumber":53,"Velocity":84,"Duration":194552,"SoundDuration":194552,"Delta":485164613},{"NoteNumber":81,"Velocity":81,"Duration":105382,"SoundDuration":105382,"Delta":485261889},{"NoteNumber":77,"Velocity":81,"Duration":105753,"SoundDuration":105753,"Delta":485359165},{"NoteNumber":72,"Velocity":81,"Duration":101729,"SoundDuration":101729,"Delta":485456442},{"NoteNumber":65,"Velocity":73,"Duration":101729,"SoundDuration":101729,"Delta":485456442},{"NoteNumber":81,"Velocity":92,"Duration":105739,"SoundDuration":105739,"Delta":485558171},{"NoteNumber":53,"Velocity":83,"Duration":195210,"SoundDuration":195210,"Delta":485558171},{"NoteNumber":77,"Velocity":81,"Duration":105739,"SoundDuration":105739,"Delta":485655777},{"NoteNumber":72,"Velocity":81,"Duration":105994,"SoundDuration":105994,"Delta":485753382},{"NoteNumber":81,"Velocity":81,"Duration":100671,"SoundDuration":100671,"Delta":485850988},{"NoteNumber":65,"Velocity":72,"Duration":100671,"SoundDuration":100671,"Delta":485850988},{"NoteNumber":72,"Velocity":91,"Duration":106091,"SoundDuration":106091,"Delta":485951659},{"NoteNumber":53,"Velocity":82,"Duration":195860,"SoundDuration":195860,"Delta":485951659},{"NoteNumber":81,"Velocity":81,"Duration":106091,"SoundDuration":106091,"Delta":486049589},{"NoteNumber":77,"Velocity":81,"Duration":106407,"SoundDuration":106407,"Delta":486147520},{"NoteNumber":72,"Velocity":81,"Duration":101729,"SoundDuration":101729,"Delta":486245450},{"NoteNumber":53,"Velocity":72,"Duration":101729,"SoundDuration":101729,"Delta":486245450},{"NoteNumber":41,"Velocity":82,"Duration":210881,"SoundDuration":210881,"Delta":486347180},{"NoteNumber":84,"Velocity":50,"Duration":99036,"SoundDuration":99036,"Delta":486558061},{"NoteNumber":57,"Velocity":41,"Duration":99036,"SoundDuration":99036,"Delta":486558061},{"NoteNumber":60,"Velocity":34,"Duration":99036,"SoundDuration":99036,"Delta":486657097},{"NoteNumber":84,"Velocity":53,"Duration":288683,"SoundDuration":288683,"Delta":486756133},{"NoteNumber":57,"Velocity":41,"Duration":96227,"SoundDuration":96227,"Delta":486756133},{"NoteNumber":60,"Velocity":34,"Duration":96227,"SoundDuration":96227,"Delta":486852361},{"NoteNumber":57,"Velocity":41,"Duration":96227,"SoundDuration":96227,"Delta":486948589},{"NoteNumber":81,"Velocity":50,"Duration":96227,"SoundDuration":96227,"Delta":487044817},{"NoteNumber":60,"Velocity":33,"Duration":96227,"SoundDuration":96227,"Delta":487044817},{"NoteNumber":79,"Velocity":54,"Duration":195515,"SoundDuration":195515,"Delta":487141044},{"NoteNumber":58,"Velocity":41,"Duration":97757,"SoundDuration":97757,"Delta":487141044},{"NoteNumber":60,"Velocity":34,"Duration":97757,"SoundDuration":97757,"Delta":487238802},{"NoteNumber":72,"Velocity":50,"Duration":191705,"SoundDuration":191705,"Delta":487336560},{"NoteNumber":58,"Velocity":41,"Duration":95852,"SoundDuration":95852,"Delta":487336560},{"NoteNumber":60,"Velocity":35,"Duration":95852,"SoundDuration":95852,"Delta":487432413},{"NoteNumber":77,"Velocity":50,"Duration":198072,"SoundDuration":198072,"Delta":487528266},{"NoteNumber":57,"Velocity":41,"Duration":99036,"SoundDuration":99036,"Delta":487528266},{"NoteNumber":60,"Velocity":34,"Duration":99036,"SoundDuration":99036,"Delta":487627302},{"NoteNumber":81,"Velocity":47,"Duration":198071,"SoundDuration":198071,"Delta":487726338},{"NoteNumber":57,"Velocity":41,"Duration":99035,"SoundDuration":99035,"Delta":487726338},{"NoteNumber":60,"Velocity":35,"Duration":99036,"SoundDuration":99036,"Delta":487825374},{"NoteNumber":57,"Velocity":41,"Duration":94393,"SoundDuration":94393,"Delta":487924410},{"NoteNumber":60,"Velocity":34,"Duration":94392,"SoundDuration":94392,"Delta":488018803},{"NoteNumber":84,"Velocity":50,"Duration":94393,"SoundDuration":94393,"Delta":488113196},{"NoteNumber":57,"Velocity":41,"Duration":94393,"SoundDuration":94393,"Delta":488113196},{"NoteNumber":83,"Velocity":46,"Duration":94392,"SoundDuration":94392,"Delta":488207589},{"NoteNumber":60,"Velocity":34,"Duration":94392,"SoundDuration":94392,"Delta":488207589},{"NoteNumber":84,"Velocity":50,"Duration":94393,"SoundDuration":94393,"Delta":488301982},{"NoteNumber":57,"Velocity":41,"Duration":94393,"SoundDuration":94393,"Delta":488301982},{"NoteNumber":83,"Velocity":47,"Duration":94392,"SoundDuration":94392,"Delta":488396375},{"NoteNumber":60,"Velocity":34,"Duration":94392,"SoundDuration":94392,"Delta":488396375},{"NoteNumber":84,"Velocity":50,"Duration":94616,"SoundDuration":94616,"Delta":488490768},{"NoteNumber":57,"Velocity":41,"Duration":94616,"SoundDuration":94616,"Delta":488490768},{"NoteNumber":81,"Velocity":47,"Duration":95773,"SoundDuration":95773,"Delta":488585384},{"NoteNumber":60,"Velocity":33,"Duration":95773,"SoundDuration":95773,"Delta":488585384},{"NoteNumber":79,"Velocity":48,"Duration":95773,"SoundDuration":95773,"Delta":488681157},{"NoteNumber":58,"Velocity":38,"Duration":95773,"SoundDuration":95773,"Delta":488681157},{"NoteNumber":78,"Velocity":43,"Duration":95773,"SoundDuration":95773,"Delta":488776930},{"NoteNumber":60,"Velocity":32,"Duration":95773,"SoundDuration":95773,"Delta":488776930},{"NoteNumber":79,"Velocity":48,"Duration":95773,"SoundDuration":95773,"Delta":488872704},{"NoteNumber":58,"Velocity":38,"Duration":95773,"SoundDuration":95773,"Delta":488872704},{"NoteNumber":72,"Velocity":45,"Duration":95773,"SoundDuration":95773,"Delta":488968477},{"NoteNumber":60,"Velocity":33,"Duration":95773,"SoundDuration":95773,"Delta":488968477},{"NoteNumber":77,"Velocity":48,"Duration":97194,"SoundDuration":97194,"Delta":489064250},{"NoteNumber":57,"Velocity":38,"Duration":97194,"SoundDuration":97194,"Delta":489064250},{"NoteNumber":76,"Velocity":44,"Duration":97194,"SoundDuration":97194,"Delta":489161444},{"NoteNumber":60,"Velocity":32,"Duration":97194,"SoundDuration":97194,"Delta":489161444},{"NoteNumber":77,"Velocity":50,"Duration":97194,"SoundDuration":97194,"Delta":489258639},{"NoteNumber":57,"Velocity":38,"Duration":97194,"SoundDuration":97194,"Delta":489258639},{"NoteNumber":81,"Velocity":46,"Duration":100267,"SoundDuration":100267,"Delta":489355833},{"NoteNumber":60,"Velocity":33,"Duration":100267,"SoundDuration":100267,"Delta":489355833},{"NoteNumber":43,"Velocity":85,"Duration":210881,"SoundDuration":210881,"Delta":489456101},{"NoteNumber":89,"Velocity":46,"Duration":198072,"SoundDuration":198072,"Delta":489666982},{"NoteNumber":77,"Velocity":39,"Duration":198072,"SoundDuration":198072,"Delta":489666982},{"NoteNumber":59,"Velocity":42,"Duration":198072,"SoundDuration":198072,"Delta":489666982},{"NoteNumber":89,"Velocity":48,"Duration":288683,"SoundDuration":288683,"Delta":489865054},{"NoteNumber":77,"Velocity":40,"Duration":288683,"SoundDuration":288683,"Delta":489865054},{"NoteNumber":62,"Velocity":43,"Duration":192455,"SoundDuration":192455,"Delta":489865054},{"NoteNumber":59,"Velocity":39,"Duration":192455,"SoundDuration":192455,"Delta":490057510},{"NoteNumber":86,"Velocity":46,"Duration":96227,"SoundDuration":96227,"Delta":490153737},{"NoteNumber":74,"Velocity":39,"Duration":96227,"SoundDuration":96227,"Delta":490153737},{"NoteNumber":88,"Velocity":49,"Duration":195515,"SoundDuration":195515,"Delta":490249965},{"NoteNumber":76,"Velocity":41,"Duration":195515,"SoundDuration":195515,"Delta":490249965},{"NoteNumber":60,"Velocity":43,"Duration":195515,"SoundDuration":195515,"Delta":490249965},{"NoteNumber":84,"Velocity":46,"Duration":191705,"SoundDuration":191705,"Delta":490445481},{"NoteNumber":72,"Velocity":39,"Duration":191705,"SoundDuration":191705,"Delta":490445481},{"NoteNumber":64,"Velocity":42,"Duration":191705,"SoundDuration":191705,"Delta":490445481},{"NoteNumber":83,"Velocity":46,"Duration":198072,"SoundDuration":198072,"Delta":490637187},{"NoteNumber":71,"Velocity":39,"Duration":198072,"SoundDuration":198072,"Delta":490637187},{"NoteNumber":62,"Velocity":42,"Duration":198072,"SoundDuration":198072,"Delta":490637187},{"NoteNumber":86,"Velocity":42,"Duration":198071,"SoundDuration":198071,"Delta":490835259},{"NoteNumber":74,"Velocity":35,"Duration":198071,"SoundDuration":198071,"Delta":490835259},{"NoteNumber":59,"Velocity":39,"Duration":198071,"SoundDuration":198071,"Delta":490835259},{"NoteNumber":55,"Velocity":46,"Duration":210881,"SoundDuration":210881,"Delta":491033331},{"NoteNumber":89,"Velocity":46,"Duration":198072,"SoundDuration":198072,"Delta":491244212},{"NoteNumber":77,"Velocity":39,"Duration":198072,"SoundDuration":198072,"Delta":491244212},{"NoteNumber":59,"Velocity":42,"Duration":198072,"SoundDuration":198072,"Delta":491244212},{"NoteNumber":89,"Velocity":48,"Duration":288683,"SoundDuration":288683,"Delta":491442284},{"NoteNumber":77,"Velocity":40,"Duration":288683,"SoundDuration":288683,"Delta":491442284},{"NoteNumber":62,"Velocity":43,"Duration":192455,"SoundDuration":192455,"Delta":491442284},{"NoteNumber":59,"Velocity":39,"Duration":192455,"SoundDuration":192455,"Delta":491634740},{"NoteNumber":86,"Velocity":46,"Duration":96227,"SoundDuration":96227,"Delta":491730967},{"NoteNumber":74,"Velocity":39,"Duration":96227,"SoundDuration":96227,"Delta":491730967},{"NoteNumber":88,"Velocity":49,"Duration":203503,"SoundDuration":203503,"Delta":491827195},{"NoteNumber":76,"Velocity":41,"Duration":203503,"SoundDuration":203503,"Delta":491827195},{"NoteNumber":60,"Velocity":43,"Duration":203503,"SoundDuration":203503,"Delta":491827195},{"NoteNumber":84,"Velocity":46,"Duration":199958,"SoundDuration":199958,"Delta":492022711},{"NoteNumber":72,"Velocity":39,"Duration":199958,"SoundDuration":199958,"Delta":492022711},{"NoteNumber":64,"Velocity":42,"Duration":199958,"SoundDuration":199958,"Delta":492022711},{"NoteNumber":83,"Velocity":46,"Duration":206324,"SoundDuration":206324,"Delta":492214417},{"NoteNumber":71,"Velocity":39,"Duration":206324,"SoundDuration":206324,"Delta":492214417},{"NoteNumber":62,"Velocity":42,"Duration":206324,"SoundDuration":206324,"Delta":492214417},{"NoteNumber":86,"Velocity":42,"Duration":198071,"SoundDuration":198071,"Delta":492412489},{"NoteNumber":74,"Velocity":35,"Duration":198071,"SoundDuration":198071,"Delta":492412489},{"NoteNumber":59,"Velocity":39,"Duration":198071,"SoundDuration":198071,"Delta":492412489},{"NoteNumber":84,"Velocity":49,"Duration":203503,"SoundDuration":203503,"Delta":492610561},{"NoteNumber":72,"Velocity":41,"Duration":203503,"SoundDuration":203503,"Delta":492610561},{"NoteNumber":57,"Velocity":43,"Duration":203503,"SoundDuration":203503,"Delta":492610561},{"NoteNumber":81,"Velocity":46,"Duration":199894,"SoundDuration":199894,"Delta":492806077},{"NoteNumber":69,"Velocity":39,"Duration":199894,"SoundDuration":199894,"Delta":492806077},{"NoteNumber":60,"Velocity":42,"Duration":199894,"SoundDuration":199894,"Delta":492806077},{"NoteNumber":79,"Velocity":46,"Duration":204716,"SoundDuration":204716,"Delta":492997782},{"NoteNumber":67,"Velocity":39,"Duration":204716,"SoundDuration":204716,"Delta":492997782},{"NoteNumber":59,"Velocity":42,"Duration":204716,"SoundDuration":204716,"Delta":492997782},{"NoteNumber":83,"Velocity":42,"Duration":196528,"SoundDuration":196528,"Delta":493194310},{"NoteNumber":71,"Velocity":35,"Duration":196528,"SoundDuration":196528,"Delta":493194310},{"NoteNumber":55,"Velocity":39,"Duration":196528,"SoundDuration":196528,"Delta":493194310},{"NoteNumber":81,"Velocity":49,"Duration":203503,"SoundDuration":203503,"Delta":493390838},{"NoteNumber":69,"Velocity":41,"Duration":203503,"SoundDuration":203503,"Delta":493390838},{"NoteNumber":53,"Velocity":43,"Duration":203503,"SoundDuration":203503,"Delta":493390838},{"NoteNumber":77,"Velocity":46,"Duration":199894,"SoundDuration":199894,"Delta":493586354},{"NoteNumber":65,"Velocity":39,"Duration":199894,"SoundDuration":199894,"Delta":493586354},{"NoteNumber":57,"Velocity":42,"Duration":199894,"SoundDuration":199894,"Delta":493586354},{"NoteNumber":76,"Velocity":46,"Duration":204716,"SoundDuration":204716,"Delta":493778060},{"NoteNumber":64,"Velocity":39,"Duration":204716,"SoundDuration":204716,"Delta":493778060},{"NoteNumber":55,"Velocity":42,"Duration":204716,"SoundDuration":204716,"Delta":493778060},{"NoteNumber":79,"Velocity":42,"Duration":196528,"SoundDuration":196528,"Delta":493974588},{"NoteNumber":67,"Velocity":35,"Duration":196528,"SoundDuration":196528,"Delta":493974588},{"NoteNumber":52,"Velocity":39,"Duration":196528,"SoundDuration":196528,"Delta":493974588},{"NoteNumber":77,"Velocity":51,"Duration":200123,"SoundDuration":200123,"Delta":494171116},{"NoteNumber":65,"Velocity":42,"Duration":200123,"SoundDuration":200123,"Delta":494171116},{"NoteNumber":50,"Velocity":44,"Duration":200123,"SoundDuration":200123,"Delta":494171116},{"NoteNumber":74,"Velocity":48,"Duration":203885,"SoundDuration":203885,"Delta":494363079},{"NoteNumber":62,"Velocity":40,"Duration":203885,"SoundDuration":203885,"Delta":494363079},{"NoteNumber":53,"Velocity":43,"Duration":203885,"SoundDuration":203885,"Delta":494363079},{"NoteNumber":76,"Velocity":48,"Duration":200725,"SoundDuration":200725,"Delta":494558940},{"NoteNumber":64,"Velocity":41,"Duration":200725,"SoundDuration":200725,"Delta":494558940},{"NoteNumber":48,"Velocity":44,"Duration":200725,"SoundDuration":200725,"Delta":494558940},{"NoteNumber":72,"Velocity":44,"Duration":195210,"SoundDuration":195210,"Delta":494751531},{"NoteNumber":60,"Velocity":36,"Duration":195210,"SoundDuration":195210,"Delta":494751531},{"NoteNumber":52,"Velocity":41,"Duration":195210,"SoundDuration":195210,"Delta":494751531},{"NoteNumber":74,"Velocity":52,"Duration":200752,"SoundDuration":200752,"Delta":494946742},{"NoteNumber":62,"Velocity":43,"Duration":200752,"SoundDuration":200752,"Delta":494946742},{"NoteNumber":47,"Velocity":46,"Duration":200752,"SoundDuration":200752,"Delta":494946742},{"NoteNumber":71,"Velocity":49,"Duration":203859,"SoundDuration":203859,"Delta":495139334},{"NoteNumber":59,"Velocity":41,"Duration":203859,"SoundDuration":203859,"Delta":495139334},{"NoteNumber":50,"Velocity":44,"Duration":203859,"SoundDuration":203859,"Delta":495139334},{"NoteNumber":72,"Velocity":49,"Duration":200096,"SoundDuration":200096,"Delta":495335195},{"NoteNumber":60,"Velocity":41,"Duration":200096,"SoundDuration":200096,"Delta":495335195},{"NoteNumber":45,"Velocity":44,"Duration":200096,"SoundDuration":200096,"Delta":495335195},{"NoteNumber":69,"Velocity":46,"Duration":195210,"SoundDuration":195210,"Delta":495527158},{"NoteNumber":57,"Velocity":37,"Duration":195210,"SoundDuration":195210,"Delta":495527158},{"NoteNumber":48,"Velocity":42,"Duration":195210,"SoundDuration":195210,"Delta":495527158},{"NoteNumber":71,"Velocity":54,"Duration":200096,"SoundDuration":200096,"Delta":495722369},{"NoteNumber":59,"Velocity":44,"Duration":200096,"SoundDuration":200096,"Delta":495722369},{"NoteNumber":43,"Velocity":47,"Duration":200096,"SoundDuration":200096,"Delta":495722369},{"NoteNumber":67,"Velocity":50,"Duration":203235,"SoundDuration":203235,"Delta":495914332},{"NoteNumber":55,"Velocity":42,"Duration":203235,"SoundDuration":203235,"Delta":495914332},{"NoteNumber":47,"Velocity":46,"Duration":203235,"SoundDuration":203235,"Delta":495914332},{"NoteNumber":69,"Velocity":50,"Duration":200697,"SoundDuration":200697,"Delta":496109543},{"NoteNumber":57,"Velocity":42,"Duration":200697,"SoundDuration":200697,"Delta":496109543},{"NoteNumber":41,"Velocity":47,"Duration":200697,"SoundDuration":200697,"Delta":496109543},{"NoteNumber":65,"Velocity":47,"Duration":194552,"SoundDuration":194552,"Delta":496302134},{"NoteNumber":53,"Velocity":39,"Duration":194552,"SoundDuration":194552,"Delta":496302134},{"NoteNumber":45,"Velocity":42,"Duration":194552,"SoundDuration":194552,"Delta":496302134},{"NoteNumber":67,"Velocity":55,"Duration":199505,"SoundDuration":199505,"Delta":496496687},{"NoteNumber":55,"Velocity":46,"Duration":199505,"SoundDuration":199505,"Delta":496496687},{"NoteNumber":40,"Velocity":48,"Duration":199505,"SoundDuration":199505,"Delta":496496687},{"NoteNumber":64,"Velocity":51,"Duration":203252,"SoundDuration":203252,"Delta":496688062},{"NoteNumber":52,"Velocity":43,"Duration":203252,"SoundDuration":203252,"Delta":496688062},{"NoteNumber":43,"Velocity":47,"Duration":203252,"SoundDuration":203252,"Delta":496688062},{"NoteNumber":65,"Velocity":51,"Duration":203452,"SoundDuration":203452,"Delta":496883184},{"NoteNumber":53,"Velocity":43,"Duration":203452,"SoundDuration":203452,"Delta":496883184},{"NoteNumber":31,"Velocity":47,"Duration":203452,"SoundDuration":203452,"Delta":496883184},{"NoteNumber":38,"Velocity":47,"Duration":203452,"SoundDuration":203452,"Delta":496883184},{"NoteNumber":59,"Velocity":48,"Duration":199736,"SoundDuration":199736,"Delta":497078306},{"NoteNumber":47,"Velocity":40,"Duration":199736,"SoundDuration":199736,"Delta":497078306},{"NoteNumber":43,"Velocity":43,"Duration":199736,"SoundDuration":199736,"Delta":497078306},{"NoteNumber":51,"Velocity":104,"Duration":199309,"SoundDuration":199309,"Delta":497278043},{"NoteNumber":60,"Velocity":104,"Duration":199309,"SoundDuration":199309,"Delta":497278043},{"NoteNumber":32,"Velocity":79,"Duration":199309,"SoundDuration":199309,"Delta":497278043},{"NoteNumber":44,"Velocity":94,"Duration":199309,"SoundDuration":199309,"Delta":497278043},{"NoteNumber":63,"Velocity":98,"Duration":99654,"SoundDuration":99654,"Delta":497676661},{"NoteNumber":60,"Velocity":89,"Duration":99654,"SoundDuration":99654,"Delta":497676661},{"NoteNumber":56,"Velocity":82,"Duration":99654,"SoundDuration":99654,"Delta":497676661},{"NoteNumber":63,"Velocity":98,"Duration":784289,"SoundDuration":784289,"Delta":498075279},{"NoteNumber":60,"Velocity":89,"Duration":784289,"SoundDuration":784289,"Delta":498075279},{"NoteNumber":56,"Velocity":82,"Duration":784289,"SoundDuration":784289,"Delta":498075279},{"NoteNumber":72,"Velocity":74,"Duration":128948,"SoundDuration":128948,"Delta":498208152},{"NoteNumber":75,"Velocity":74,"Duration":128949,"SoundDuration":128949,"Delta":498337101},{"NoteNumber":80,"Velocity":78,"Duration":128948,"SoundDuration":128948,"Delta":498466050},{"NoteNumber":84,"Velocity":74,"Duration":128948,"SoundDuration":128948,"Delta":498594999},{"NoteNumber":87,"Velocity":74,"Duration":135620,"SoundDuration":135620,"Delta":498723948},{"NoteNumber":85,"Velocity":58,"Duration":126775,"SoundDuration":126775,"Delta":498859568},{"NoteNumber":39,"Velocity":47,"Duration":190162,"SoundDuration":190162,"Delta":498859568},{"NoteNumber":82,"Velocity":49,"Duration":126775,"SoundDuration":126775,"Delta":498986343},{"NoteNumber":79,"Velocity":49,"Duration":126775,"SoundDuration":126775,"Delta":499113118},{"NoteNumber":73,"Velocity":55,"Duration":127431,"SoundDuration":127431,"Delta":499239893},{"NoteNumber":61,"Velocity":40,"Duration":191532,"SoundDuration":191532,"Delta":499239893},{"NoteNumber":58,"Velocity":34,"Duration":191532,"SoundDuration":191532,"Delta":499239893},{"NoteNumber":55,"Velocity":34,"Duration":191532,"SoundDuration":191532,"Delta":499239893},{"NoteNumber":51,"Velocity":34,"Duration":191532,"SoundDuration":191532,"Delta":499239893},{"NoteNumber":70,"Velocity":50,"Duration":128458,"SoundDuration":128458,"Delta":499367325},{"NoteNumber":67,"Velocity":50,"Duration":136565,"SoundDuration":136565,"Delta":499495783},{"NoteNumber":85,"Velocity":56,"Duration":127583,"SoundDuration":127583,"Delta":499632349},{"NoteNumber":40,"Velocity":47,"Duration":191375,"SoundDuration":191375,"Delta":499632349},{"NoteNumber":82,"Velocity":49,"Duration":127583,"SoundDuration":127583,"Delta":499759932},{"NoteNumber":79,"Velocity":49,"Duration":127583,"SoundDuration":127583,"Delta":499887516},{"NoteNumber":73,"Velocity":55,"Duration":127583,"SoundDuration":127583,"Delta":500015100},{"NoteNumber":61,"Velocity":40,"Duration":191375,"SoundDuration":191375,"Delta":500015100},{"NoteNumber":58,"Velocity":34,"Duration":191375,"SoundDuration":191375,"Delta":500015100},{"NoteNumber":55,"Velocity":34,"Duration":191375,"SoundDuration":191375,"Delta":500015100},{"NoteNumber":52,"Velocity":34,"Duration":191375,"SoundDuration":191375,"Delta":500015100},{"NoteNumber":70,"Velocity":50,"Duration":127583,"SoundDuration":127583,"Delta":500142683},{"NoteNumber":67,"Velocity":50,"Duration":140974,"SoundDuration":140974,"Delta":500270267},{"NoteNumber":41,"Velocity":94,"Duration":199309,"SoundDuration":199309,"Delta":500411241},{"NoteNumber":60,"Velocity":98,"Duration":99654,"SoundDuration":99654,"Delta":500809859},{"NoteNumber":56,"Velocity":89,"Duration":99654,"SoundDuration":99654,"Delta":500809859},{"NoteNumber":53,"Velocity":82,"Duration":99654,"SoundDuration":99654,"Delta":500809859},{"NoteNumber":60,"Velocity":98,"Duration":784289,"SoundDuration":784289,"Delta":501208477},{"NoteNumber":56,"Velocity":89,"Duration":784289,"SoundDuration":784289,"Delta":501208477},{"NoteNumber":53,"Velocity":82,"Duration":784289,"SoundDuration":784289,"Delta":501208477},{"NoteNumber":68,"Velocity":74,"Duration":128948,"SoundDuration":128948,"Delta":501341350},{"NoteNumber":72,"Velocity":74,"Duration":128949,"SoundDuration":128949,"Delta":501470299},{"NoteNumber":77,"Velocity":78,"Duration":128948,"SoundDuration":128948,"Delta":501599248},{"NoteNumber":80,"Velocity":74,"Duration":128948,"SoundDuration":128948,"Delta":501728197},{"NoteNumber":84,"Velocity":74,"Duration":135620,"SoundDuration":135620,"Delta":501857146},{"NoteNumber":82,"Velocity":58,"Duration":127178,"SoundDuration":127178,"Delta":501992766},{"NoteNumber":36,"Velocity":47,"Duration":190766,"SoundDuration":190766,"Delta":501992766},{"NoteNumber":79,"Velocity":49,"Duration":127177,"SoundDuration":127177,"Delta":502119944},{"NoteNumber":76,"Velocity":49,"Duration":127178,"SoundDuration":127178,"Delta":502247122},{"NoteNumber":70,"Velocity":55,"Duration":127178,"SoundDuration":127178,"Delta":502374300},{"NoteNumber":58,"Velocity":40,"Duration":190766,"SoundDuration":190766,"Delta":502374300},{"NoteNumber":55,"Velocity":34,"Duration":190766,"SoundDuration":190766,"Delta":502374300},{"NoteNumber":52,"Velocity":34,"Duration":190766,"SoundDuration":190766,"Delta":502374300},{"NoteNumber":48,"Velocity":34,"Duration":190766,"SoundDuration":190766,"Delta":502374300},{"NoteNumber":67,"Velocity":50,"Duration":127177,"SoundDuration":127177,"Delta":502501478},{"NoteNumber":64,"Velocity":50,"Duration":136565,"SoundDuration":136565,"Delta":502628656},{"NoteNumber":82,"Velocity":56,"Duration":127583,"SoundDuration":127583,"Delta":502765222},{"NoteNumber":36,"Velocity":47,"Duration":191375,"SoundDuration":191375,"Delta":502765222},{"NoteNumber":79,"Velocity":49,"Duration":127583,"SoundDuration":127583,"Delta":502892805},{"NoteNumber":76,"Velocity":49,"Duration":127583,"SoundDuration":127583,"Delta":503020389},{"NoteNumber":70,"Velocity":55,"Duration":127583,"SoundDuration":127583,"Delta":503147973},{"NoteNumber":58,"Velocity":40,"Duration":191375,"SoundDuration":191375,"Delta":503147973},{"NoteNumber":55,"Velocity":34,"Duration":191375,"SoundDuration":191375,"Delta":503147973},{"NoteNumber":52,"Velocity":34,"Duration":191375,"SoundDuration":191375,"Delta":503147973},{"NoteNumber":48,"Velocity":34,"Duration":191375,"SoundDuration":191375,"Delta":503147973},{"NoteNumber":67,"Velocity":50,"Duration":127583,"SoundDuration":127583,"Delta":503275556},{"NoteNumber":64,"Velocity":50,"Duration":127583,"SoundDuration":127583,"Delta":503403140},{"NoteNumber":37,"Velocity":94,"Duration":199309,"SoundDuration":199309,"Delta":503530724},{"NoteNumber":56,"Velocity":88,"Duration":99654,"SoundDuration":99654,"Delta":503929342},{"NoteNumber":53,"Velocity":80,"Duration":99654,"SoundDuration":99654,"Delta":503929342},{"NoteNumber":49,"Velocity":73,"Duration":99654,"SoundDuration":99654,"Delta":503929342},{"NoteNumber":56,"Velocity":88,"Duration":784289,"SoundDuration":784289,"Delta":504327960},{"NoteNumber":53,"Velocity":80,"Duration":784289,"SoundDuration":784289,"Delta":504327960},{"NoteNumber":49,"Velocity":73,"Duration":784289,"SoundDuration":784289,"Delta":504327960},{"NoteNumber":65,"Velocity":74,"Duration":128948,"SoundDuration":128948,"Delta":504460832},{"NoteNumber":68,"Velocity":74,"Duration":128949,"SoundDuration":128949,"Delta":504589781},{"NoteNumber":73,"Velocity":78,"Duration":128948,"SoundDuration":128948,"Delta":504718730},{"NoteNumber":77,"Velocity":74,"Duration":128948,"SoundDuration":128948,"Delta":504847679},{"NoteNumber":80,"Velocity":74,"Duration":135620,"SoundDuration":135620,"Delta":504976628},{"NoteNumber":78,"Velocity":58,"Duration":127583,"SoundDuration":127583,"Delta":505112249},{"NoteNumber":32,"Velocity":47,"Duration":191375,"SoundDuration":191375,"Delta":505112249},{"NoteNumber":75,"Velocity":49,"Duration":127583,"SoundDuration":127583,"Delta":505239833},{"NoteNumber":72,"Velocity":49,"Duration":127583,"SoundDuration":127583,"Delta":505367416},{"NoteNumber":66,"Velocity":55,"Duration":127583,"SoundDuration":127583,"Delta":505495000},{"NoteNumber":54,"Velocity":40,"Duration":191375,"SoundDuration":191375,"Delta":505495000},{"NoteNumber":51,"Velocity":34,"Duration":191375,"SoundDuration":191375,"Delta":505495000},{"NoteNumber":48,"Velocity":34,"Duration":191375,"SoundDuration":191375,"Delta":505495000},{"NoteNumber":44,"Velocity":34,"Duration":191375,"SoundDuration":191375,"Delta":505495000},{"NoteNumber":63,"Velocity":50,"Duration":127583,"SoundDuration":127583,"Delta":505622584},{"NoteNumber":60,"Velocity":50,"Duration":136565,"SoundDuration":136565,"Delta":505750167},{"NoteNumber":78,"Velocity":56,"Duration":127991,"SoundDuration":127991,"Delta":505886733},{"NoteNumber":33,"Velocity":47,"Duration":191987,"SoundDuration":191987,"Delta":505886733},{"NoteNumber":75,"Velocity":49,"Duration":127991,"SoundDuration":127991,"Delta":506014724},{"NoteNumber":72,"Velocity":49,"Duration":127991,"SoundDuration":127991,"Delta":506142716},{"NoteNumber":66,"Velocity":55,"Duration":127991,"SoundDuration":127991,"Delta":506270708},{"NoteNumber":54,"Velocity":40,"Duration":191987,"SoundDuration":191987,"Delta":506270708},{"NoteNumber":51,"Velocity":34,"Duration":191987,"SoundDuration":191987,"Delta":506270708},{"NoteNumber":48,"Velocity":34,"Duration":191987,"SoundDuration":191987,"Delta":506270708},{"NoteNumber":45,"Velocity":34,"Duration":191987,"SoundDuration":191987,"Delta":506270708},{"NoteNumber":63,"Velocity":50,"Duration":127991,"SoundDuration":127991,"Delta":506398699},{"NoteNumber":60,"Velocity":50,"Duration":133369,"SoundDuration":133369,"Delta":506526691},{"NoteNumber":34,"Velocity":58,"Duration":129383,"SoundDuration":129383,"Delta":506660061},{"NoteNumber":53,"Velocity":39,"Duration":129382,"SoundDuration":129382,"Delta":506789444},{"NoteNumber":58,"Velocity":40,"Duration":129383,"SoundDuration":129383,"Delta":506918827},{"NoteNumber":61,"Velocity":41,"Duration":129383,"SoundDuration":129383,"Delta":507048210},{"NoteNumber":53,"Velocity":32,"Duration":194074,"SoundDuration":194074,"Delta":507048210},{"NoteNumber":49,"Velocity":27,"Duration":194074,"SoundDuration":194074,"Delta":507048210},{"NoteNumber":46,"Velocity":27,"Duration":194074,"SoundDuration":194074,"Delta":507048210},{"NoteNumber":65,"Velocity":43,"Duration":129382,"SoundDuration":129382,"Delta":507177593},{"NoteNumber":70,"Velocity":44,"Duration":129383,"SoundDuration":129383,"Delta":507306976},{"NoteNumber":73,"Velocity":46,"Duration":129383,"SoundDuration":129383,"Delta":507436359},{"NoteNumber":46,"Velocity":27,"Duration":799671,"SoundDuration":799671,"Delta":507436359},{"NoteNumber":49,"Velocity":27,"Duration":799671,"SoundDuration":799671,"Delta":507436359},{"NoteNumber":53,"Velocity":32,"Duration":799671,"SoundDuration":799671,"Delta":507436359},{"NoteNumber":77,"Velocity":45,"Duration":129382,"SoundDuration":129382,"Delta":507565742},{"NoteNumber":82,"Velocity":47,"Duration":135162,"SoundDuration":135162,"Delta":507695125},{"NoteNumber":85,"Velocity":49,"Duration":131104,"SoundDuration":131104,"Delta":507830288},{"NoteNumber":89,"Velocity":45,"Duration":131104,"SoundDuration":131104,"Delta":507961392},{"NoteNumber":77,"Velocity":41,"Duration":143533,"SoundDuration":143533,"Delta":508092497},{"NoteNumber":32,"Velocity":58,"Duration":129383,"SoundDuration":129383,"Delta":508236031},{"NoteNumber":53,"Velocity":39,"Duration":129382,"SoundDuration":129382,"Delta":508365414},{"NoteNumber":56,"Velocity":40,"Duration":129383,"SoundDuration":129383,"Delta":508494797},{"NoteNumber":60,"Velocity":41,"Duration":129383,"SoundDuration":129383,"Delta":508624180},{"NoteNumber":53,"Velocity":32,"Duration":194074,"SoundDuration":194074,"Delta":508624180},{"NoteNumber":48,"Velocity":27,"Duration":194074,"SoundDuration":194074,"Delta":508624180},{"NoteNumber":44,"Velocity":27,"Duration":194074,"SoundDuration":194074,"Delta":508624180},{"NoteNumber":65,"Velocity":43,"Duration":129382,"SoundDuration":129382,"Delta":508753563},{"NoteNumber":68,"Velocity":44,"Duration":129383,"SoundDuration":129383,"Delta":508882946},{"NoteNumber":72,"Velocity":46,"Duration":129383,"SoundDuration":129383,"Delta":509012329},{"NoteNumber":44,"Velocity":27,"Duration":799671,"SoundDuration":799671,"Delta":509012329},{"NoteNumber":48,"Velocity":27,"Duration":799671,"SoundDuration":799671,"Delta":509012329},{"NoteNumber":53,"Velocity":32,"Duration":799671,"SoundDuration":799671,"Delta":509012329},{"NoteNumber":77,"Velocity":45,"Duration":129382,"SoundDuration":129382,"Delta":509141712},{"NoteNumber":80,"Velocity":47,"Duration":135162,"SoundDuration":135162,"Delta":509271095},{"NoteNumber":84,"Velocity":49,"Duration":131104,"SoundDuration":131104,"Delta":509406257},{"NoteNumber":89,"Velocity":45,"Duration":131104,"SoundDuration":131104,"Delta":509537362},{"NoteNumber":77,"Velocity":41,"Duration":143533,"SoundDuration":143533,"Delta":509668467},{"NoteNumber":31,"Velocity":58,"Duration":129383,"SoundDuration":129383,"Delta":509812000},{"NoteNumber":53,"Velocity":39,"Duration":129382,"SoundDuration":129382,"Delta":509941383},{"NoteNumber":59,"Velocity":40,"Duration":129383,"SoundDuration":129383,"Delta":510070766},{"NoteNumber":62,"Velocity":41,"Duration":129383,"SoundDuration":129383,"Delta":510200149},{"NoteNumber":43,"Velocity":27,"Duration":194074,"SoundDuration":194074,"Delta":510200149},{"NoteNumber":53,"Velocity":32,"Duration":194074,"SoundDuration":194074,"Delta":510200149},{"NoteNumber":50,"Velocity":27,"Duration":194074,"SoundDuration":194074,"Delta":510200149},{"NoteNumber":47,"Velocity":27,"Duration":194074,"SoundDuration":194074,"Delta":510200149},{"NoteNumber":65,"Velocity":43,"Duration":129382,"SoundDuration":129382,"Delta":510329532},{"NoteNumber":71,"Velocity":44,"Duration":129383,"SoundDuration":129383,"Delta":510458915},{"NoteNumber":74,"Velocity":46,"Duration":129383,"SoundDuration":129383,"Delta":510588298},{"NoteNumber":43,"Velocity":27,"Duration":799671,"SoundDuration":799671,"Delta":510588298},{"NoteNumber":47,"Velocity":27,"Duration":799671,"SoundDuration":799671,"Delta":510588298},{"NoteNumber":50,"Velocity":27,"Duration":799671,"SoundDuration":799671,"Delta":510588298},{"NoteNumber":53,"Velocity":32,"Duration":799671,"SoundDuration":799671,"Delta":510588298},{"NoteNumber":77,"Velocity":45,"Duration":129382,"SoundDuration":129382,"Delta":510717681},{"NoteNumber":83,"Velocity":47,"Duration":135162,"SoundDuration":135162,"Delta":510847064},{"NoteNumber":86,"Velocity":49,"Duration":131104,"SoundDuration":131104,"Delta":510982227},{"NoteNumber":89,"Velocity":45,"Duration":131104,"SoundDuration":131104,"Delta":511113332},{"NoteNumber":77,"Velocity":41,"Duration":143533,"SoundDuration":143533,"Delta":511244436},{"NoteNumber":32,"Velocity":58,"Duration":129383,"SoundDuration":129383,"Delta":511387970},{"NoteNumber":51,"Velocity":39,"Duration":129382,"SoundDuration":129382,"Delta":511517353},{"NoteNumber":56,"Velocity":40,"Duration":129383,"SoundDuration":129383,"Delta":511646736},{"NoteNumber":60,"Velocity":41,"Duration":129383,"SoundDuration":129383,"Delta":511776119},{"NoteNumber":51,"Velocity":32,"Duration":194074,"SoundDuration":194074,"Delta":511776119},{"NoteNumber":48,"Velocity":27,"Duration":194074,"SoundDuration":194074,"Delta":511776119},{"NoteNumber":44,"Velocity":27,"Duration":194074,"SoundDuration":194074,"Delta":511776119},{"NoteNumber":63,"Velocity":43,"Duration":129382,"SoundDuration":129382,"Delta":511905502},{"NoteNumber":68,"Velocity":44,"Duration":129383,"SoundDuration":129383,"Delta":512034885},{"NoteNumber":72,"Velocity":46,"Duration":129382,"SoundDuration":129382,"Delta":512164268},{"NoteNumber":44,"Velocity":27,"Duration":799671,"SoundDuration":799671,"Delta":512164268},{"NoteNumber":48,"Velocity":27,"Duration":799671,"SoundDuration":799671,"Delta":512164268},{"NoteNumber":51,"Velocity":32,"Duration":799671,"SoundDuration":799671,"Delta":512164268},{"NoteNumber":75,"Velocity":45,"Duration":129382,"SoundDuration":129382,"Delta":512293651},{"NoteNumber":80,"Velocity":47,"Duration":135162,"SoundDuration":135162,"Delta":512423034},{"NoteNumber":84,"Velocity":49,"Duration":131104,"SoundDuration":131104,"Delta":512558197},{"NoteNumber":87,"Velocity":45,"Duration":131104,"SoundDuration":131104,"Delta":512689301},{"NoteNumber":75,"Velocity":41,"Duration":143533,"SoundDuration":143533,"Delta":512820406},{"NoteNumber":33,"Velocity":41,"Duration":129802,"SoundDuration":129802,"Delta":512963940},{"NoteNumber":36,"Velocity":37,"Duration":129802,"SoundDuration":129802,"Delta":513093742},{"NoteNumber":39,"Velocity":37,"Duration":129802,"SoundDuration":129802,"Delta":513223545},{"NoteNumber":42,"Velocity":41,"Duration":129802,"SoundDuration":129802,"Delta":513353348},{"NoteNumber":45,"Velocity":37,"Duration":129802,"SoundDuration":129802,"Delta":513483150},{"NoteNumber":48,"Velocity":37,"Duration":129802,"SoundDuration":129802,"Delta":513612953},{"NoteNumber":51,"Velocity":41,"Duration":129802,"SoundDuration":129802,"Delta":513742756},{"NoteNumber":54,"Velocity":38,"Duration":129802,"SoundDuration":129802,"Delta":513872558},{"NoteNumber":57,"Velocity":39,"Duration":129802,"SoundDuration":129802,"Delta":514002361},{"NoteNumber":60,"Velocity":45,"Duration":129802,"SoundDuration":129802,"Delta":514132164},{"NoteNumber":63,"Velocity":41,"Duration":129802,"SoundDuration":129802,"Delta":514261966},{"NoteNumber":66,"Velocity":41,"Duration":129802,"SoundDuration":129802,"Delta":514391769},{"NoteNumber":69,"Velocity":46,"Duration":129802,"SoundDuration":129802,"Delta":514521572},{"NoteNumber":72,"Velocity":41,"Duration":129802,"SoundDuration":129802,"Delta":514651374},{"NoteNumber":75,"Velocity":41,"Duration":129802,"SoundDuration":129802,"Delta":514781177},{"NoteNumber":78,"Velocity":46,"Duration":129802,"SoundDuration":129802,"Delta":514910980},{"NoteNumber":81,"Velocity":41,"Duration":129802,"SoundDuration":129802,"Delta":515040782},{"NoteNumber":84,"Velocity":41,"Duration":129802,"SoundDuration":129802,"Delta":515170585},{"NoteNumber":87,"Velocity":47,"Duration":130446,"SoundDuration":130446,"Delta":515300388},{"NoteNumber":84,"Velocity":43,"Duration":131324,"SoundDuration":131324,"Delta":515430834},{"NoteNumber":81,"Velocity":43,"Duration":132205,"SoundDuration":132205,"Delta":515562159},{"NoteNumber":90,"Velocity":47,"Duration":133094,"SoundDuration":133094,"Delta":515694364},{"NoteNumber":87,"Velocity":43,"Duration":136599,"SoundDuration":136599,"Delta":515827458},{"NoteNumber":84,"Velocity":43,"Duration":161539,"SoundDuration":161539,"Delta":515964058},{"NoteNumber":31,"Velocity":41,"Duration":214261,"SoundDuration":214261,"Delta":516125597},{"NoteNumber":36,"Velocity":41,"Duration":214261,"SoundDuration":214261,"Delta":516125597},{"NoteNumber":40,"Velocity":41,"Duration":214261,"SoundDuration":214261,"Delta":516125597},{"NoteNumber":43,"Velocity":41,"Duration":214261,"SoundDuration":214261,"Delta":516125597},{"NoteNumber":91,"Velocity":49,"Duration":105814,"SoundDuration":105814,"Delta":516242184},{"NoteNumber":79,"Velocity":41,"Duration":105814,"SoundDuration":105814,"Delta":516242184},{"NoteNumber":89,"Velocity":49,"Duration":105814,"SoundDuration":105814,"Delta":516339859},{"NoteNumber":77,"Velocity":41,"Duration":105814,"SoundDuration":105814,"Delta":516339859},{"NoteNumber":88,"Velocity":49,"Duration":105814,"SoundDuration":105814,"Delta":516437534},{"NoteNumber":76,"Velocity":41,"Duration":105814,"SoundDuration":105814,"Delta":516437534},{"NoteNumber":86,"Velocity":48,"Duration":105814,"SoundDuration":105814,"Delta":516535209},{"NoteNumber":74,"Velocity":40,"Duration":105814,"SoundDuration":105814,"Delta":516535209},{"NoteNumber":84,"Velocity":48,"Duration":105814,"SoundDuration":105814,"Delta":516632885},{"NoteNumber":72,"Velocity":40,"Duration":105814,"SoundDuration":105814,"Delta":516632885},{"NoteNumber":83,"Velocity":47,"Duration":105814,"SoundDuration":105814,"Delta":516730560},{"NoteNumber":71,"Velocity":39,"Duration":105814,"SoundDuration":105814,"Delta":516730560},{"NoteNumber":81,"Velocity":39,"Duration":105814,"SoundDuration":105814,"Delta":516828235},{"NoteNumber":69,"Velocity":39,"Duration":105814,"SoundDuration":105814,"Delta":516828235},{"NoteNumber":67,"Velocity":39,"Duration":195403,"SoundDuration":195403,"Delta":516925910},{"NoteNumber":79,"Velocity":47,"Duration":195403,"SoundDuration":195403,"Delta":516925910},{"NoteNumber":65,"Velocity":38,"Duration":106493,"SoundDuration":106493,"Delta":517121314},{"NoteNumber":77,"Velocity":45,"Duration":106493,"SoundDuration":106493,"Delta":517121314},{"NoteNumber":64,"Velocity":38,"Duration":107347,"SoundDuration":107347,"Delta":517219586},{"NoteNumber":76,"Velocity":45,"Duration":107347,"SoundDuration":107347,"Delta":517219586},{"NoteNumber":62,"Velocity":37,"Duration":108238,"SoundDuration":108238,"Delta":517318629},{"NoteNumber":74,"Velocity":44,"Duration":108238,"SoundDuration":108238,"Delta":517318629},{"NoteNumber":60,"Velocity":37,"Duration":109089,"SoundDuration":109089,"Delta":517418507},{"NoteNumber":72,"Velocity":44,"Duration":109089,"SoundDuration":109089,"Delta":517418507},{"NoteNumber":59,"Velocity":36,"Duration":111148,"SoundDuration":111148,"Delta":517519179},{"NoteNumber":71,"Velocity":43,"Duration":111148,"SoundDuration":111148,"Delta":517519179},{"NoteNumber":57,"Velocity":35,"Duration":115384,"SoundDuration":115384,"Delta":517621610},{"NoteNumber":69,"Velocity":42,"Duration":115384,"SoundDuration":115384,"Delta":517621610},{"NoteNumber":60,"Velocity":35,"Duration":792580,"SoundDuration":792580,"Delta":517727924},{"NoteNumber":55,"Velocity":35,"Duration":792580,"SoundDuration":792580,"Delta":517727924},{"NoteNumber":64,"Velocity":35,"Duration":792580,"SoundDuration":792580,"Delta":517727924},{"NoteNumber":67,"Velocity":42,"Duration":1183281,"SoundDuration":1183281,"Delta":517727924},{"NoteNumber":31,"Velocity":29,"Duration":105814,"SoundDuration":105814,"Delta":517836777},{"NoteNumber":43,"Velocity":35,"Duration":105814,"SoundDuration":105814,"Delta":517836777},{"NoteNumber":33,"Velocity":29,"Duration":105814,"SoundDuration":105814,"Delta":517934452},{"NoteNumber":45,"Velocity":35,"Duration":105814,"SoundDuration":105814,"Delta":517934452},{"NoteNumber":35,"Velocity":30,"Duration":105814,"SoundDuration":105814,"Delta":518032128},{"NoteNumber":47,"Velocity":36,"Duration":105814,"SoundDuration":105814,"Delta":518032128},{"NoteNumber":36,"Velocity":31,"Duration":105814,"SoundDuration":105814,"Delta":518129803},{"NoteNumber":48,"Velocity":37,"Duration":105814,"SoundDuration":105814,"Delta":518129803},{"NoteNumber":38,"Velocity":31,"Duration":105814,"SoundDuration":105814,"Delta":518227478},{"NoteNumber":50,"Velocity":37,"Duration":105814,"SoundDuration":105814,"Delta":518227478},{"NoteNumber":40,"Velocity":32,"Duration":105814,"SoundDuration":105814,"Delta":518325153},{"NoteNumber":52,"Velocity":38,"Duration":105814,"SoundDuration":105814,"Delta":518325153},{"NoteNumber":41,"Velocity":32,"Duration":105814,"SoundDuration":105814,"Delta":518422829},{"NoteNumber":53,"Velocity":38,"Duration":105814,"SoundDuration":105814,"Delta":518422829},{"NoteNumber":59,"Velocity":35,"Duration":390701,"SoundDuration":390701,"Delta":518520504},{"NoteNumber":62,"Velocity":35,"Duration":390701,"SoundDuration":390701,"Delta":518520504},{"NoteNumber":43,"Velocity":33,"Duration":195350,"SoundDuration":195350,"Delta":518520504},{"NoteNumber":55,"Velocity":39,"Duration":195350,"SoundDuration":195350,"Delta":518520504},{"NoteNumber":45,"Velocity":31,"Duration":105814,"SoundDuration":105814,"Delta":518715854},{"NoteNumber":57,"Velocity":37,"Duration":105814,"SoundDuration":105814,"Delta":518715854},{"NoteNumber":47,"Velocity":32,"Duration":105814,"SoundDuration":105814,"Delta":518813530},{"NoteNumber":59,"Velocity":38,"Duration":105814,"SoundDuration":105814,"Delta":518813530},{"NoteNumber":74,"Velocity":42,"Duration":390700,"SoundDuration":390700,"Delta":518911205},{"NoteNumber":77,"Velocity":46,"Duration":390700,"SoundDuration":390700,"Delta":518911205},{"NoteNumber":48,"Velocity":33,"Duration":105814,"SoundDuration":105814,"Delta":518911205},{"NoteNumber":60,"Velocity":39,"Duration":105814,"SoundDuration":105814,"Delta":518911205},{"NoteNumber":50,"Velocity":34,"Duration":105814,"SoundDuration":105814,"Delta":519008880},{"NoteNumber":62,"Velocity":40,"Duration":105814,"SoundDuration":105814,"Delta":519008880},{"NoteNumber":52,"Velocity":35,"Duration":105814,"SoundDuration":105814,"Delta":519106555},{"NoteNumber":64,"Velocity":42,"Duration":105814,"SoundDuration":105814,"Delta":519106555},{"NoteNumber":53,"Velocity":36,"Duration":105814,"SoundDuration":105814,"Delta":519204231},{"NoteNumber":65,"Velocity":43,"Duration":105814,"SoundDuration":105814,"Delta":519204231},{"NoteNumber":72,"Velocity":41,"Duration":48837,"SoundDuration":48837,"Delta":519301906},{"NoteNumber":76,"Velocity":49,"Duration":48837,"SoundDuration":48837,"Delta":519301906},{"NoteNumber":55,"Velocity":37,"Duration":195350,"SoundDuration":195350,"Delta":519301906},{"NoteNumber":67,"Velocity":44,"Duration":195350,"SoundDuration":195350,"Delta":519301906},{"NoteNumber":91,"Velocity":49,"Duration":105814,"SoundDuration":105814,"Delta":519399581},{"NoteNumber":79,"Velocity":41,"Duration":105814,"SoundDuration":105814,"Delta":519399581},{"NoteNumber":89,"Velocity":49,"Duration":105814,"SoundDuration":105814,"Delta":519497256},{"NoteNumber":77,"Velocity":41,"Duration":105814,"SoundDuration":105814,"Delta":519497256},{"NoteNumber":88,"Velocity":49,"Duration":105814,"SoundDuration":105814,"Delta":519594932},{"NoteNumber":76,"Velocity":41,"Duration":105814,"SoundDuration":105814,"Delta":519594932},{"NoteNumber":86,"Velocity":48,"Duration":105814,"SoundDuration":105814,"Delta":519692607},{"NoteNumber":74,"Velocity":40,"Duration":105814,"SoundDuration":105814,"Delta":519692607},{"NoteNumber":84,"Velocity":48,"Duration":105814,"SoundDuration":105814,"Delta":519790282},{"NoteNumber":72,"Velocity":40,"Duration":105814,"SoundDuration":105814,"Delta":519790282},{"NoteNumber":83,"Velocity":47,"Duration":105814,"SoundDuration":105814,"Delta":519887957},{"NoteNumber":71,"Velocity":39,"Duration":105814,"SoundDuration":105814,"Delta":519887957},{"NoteNumber":81,"Velocity":39,"Duration":105814,"SoundDuration":105814,"Delta":519985633},{"NoteNumber":69,"Velocity":39,"Duration":105814,"SoundDuration":105814,"Delta":519985633},{"NoteNumber":67,"Velocity":39,"Duration":195403,"SoundDuration":195403,"Delta":520083308},{"NoteNumber":79,"Velocity":47,"Duration":195403,"SoundDuration":195403,"Delta":520083308},{"NoteNumber":65,"Velocity":38,"Duration":106493,"SoundDuration":106493,"Delta":520278712},{"NoteNumber":77,"Velocity":45,"Duration":106493,"SoundDuration":106493,"Delta":520278712},{"NoteNumber":64,"Velocity":38,"Duration":107347,"SoundDuration":107347,"Delta":520376984},{"NoteNumber":76,"Velocity":45,"Duration":107347,"SoundDuration":107347,"Delta":520376984},{"NoteNumber":62,"Velocity":37,"Duration":108238,"SoundDuration":108238,"Delta":520476027},{"NoteNumber":74,"Velocity":44,"Duration":108238,"SoundDuration":108238,"Delta":520476027},{"NoteNumber":60,"Velocity":37,"Duration":109089,"SoundDuration":109089,"Delta":520575904},{"NoteNumber":72,"Velocity":44,"Duration":109089,"SoundDuration":109089,"Delta":520575904},{"NoteNumber":59,"Velocity":36,"Duration":111148,"SoundDuration":111148,"Delta":520676576},{"NoteNumber":71,"Velocity":43,"Duration":111148,"SoundDuration":111148,"Delta":520676576},{"NoteNumber":57,"Velocity":35,"Duration":115384,"SoundDuration":115384,"Delta":520779007},{"NoteNumber":69,"Velocity":42,"Duration":115384,"SoundDuration":115384,"Delta":520779007},{"NoteNumber":60,"Velocity":35,"Duration":792580,"SoundDuration":792580,"Delta":520885321},{"NoteNumber":55,"Velocity":35,"Duration":792580,"SoundDuration":792580,"Delta":520885321},{"NoteNumber":64,"Velocity":35,"Duration":792580,"SoundDuration":792580,"Delta":520885321},{"NoteNumber":67,"Velocity":42,"Duration":1183281,"SoundDuration":1183281,"Delta":520885321},{"NoteNumber":31,"Velocity":29,"Duration":105814,"SoundDuration":105814,"Delta":520994175},{"NoteNumber":43,"Velocity":35,"Duration":105814,"SoundDuration":105814,"Delta":520994175},{"NoteNumber":33,"Velocity":29,"Duration":105814,"SoundDuration":105814,"Delta":521091850},{"NoteNumber":45,"Velocity":35,"Duration":105814,"SoundDuration":105814,"Delta":521091850},{"NoteNumber":35,"Velocity":30,"Duration":105814,"SoundDuration":105814,"Delta":521189525},{"NoteNumber":47,"Velocity":36,"Duration":105814,"SoundDuration":105814,"Delta":521189525},{"NoteNumber":36,"Velocity":31,"Duration":105814,"SoundDuration":105814,"Delta":521287200},{"NoteNumber":48,"Velocity":37,"Duration":105814,"SoundDuration":105814,"Delta":521287200},{"NoteNumber":38,"Velocity":31,"Duration":105814,"SoundDuration":105814,"Delta":521384876},{"NoteNumber":50,"Velocity":37,"Duration":105814,"SoundDuration":105814,"Delta":521384876},{"NoteNumber":40,"Velocity":32,"Duration":105814,"SoundDuration":105814,"Delta":521482551},{"NoteNumber":52,"Velocity":38,"Duration":105814,"SoundDuration":105814,"Delta":521482551},{"NoteNumber":41,"Velocity":32,"Duration":105814,"SoundDuration":105814,"Delta":521580226},{"NoteNumber":53,"Velocity":38,"Duration":105814,"SoundDuration":105814,"Delta":521580226},{"NoteNumber":59,"Velocity":35,"Duration":390701,"SoundDuration":390701,"Delta":521677901},{"NoteNumber":62,"Velocity":35,"Duration":390701,"SoundDuration":390701,"Delta":521677901},{"NoteNumber":43,"Velocity":33,"Duration":195350,"SoundDuration":195350,"Delta":521677901},{"NoteNumber":55,"Velocity":39,"Duration":195350,"SoundDuration":195350,"Delta":521677901},{"NoteNumber":45,"Velocity":31,"Duration":105814,"SoundDuration":105814,"Delta":521873252},{"NoteNumber":57,"Velocity":37,"Duration":105814,"SoundDuration":105814,"Delta":521873252},{"NoteNumber":47,"Velocity":32,"Duration":105814,"SoundDuration":105814,"Delta":521970927},{"NoteNumber":59,"Velocity":38,"Duration":105814,"SoundDuration":105814,"Delta":521970927},{"NoteNumber":74,"Velocity":42,"Duration":390700,"SoundDuration":390700,"Delta":522068602},{"NoteNumber":77,"Velocity":46,"Duration":390700,"SoundDuration":390700,"Delta":522068602},{"NoteNumber":48,"Velocity":33,"Duration":105814,"SoundDuration":105814,"Delta":522068602},{"NoteNumber":60,"Velocity":39,"Duration":105814,"SoundDuration":105814,"Delta":522068602},{"NoteNumber":50,"Velocity":34,"Duration":105814,"SoundDuration":105814,"Delta":522166278},{"NoteNumber":62,"Velocity":40,"Duration":105814,"SoundDuration":105814,"Delta":522166278},{"NoteNumber":52,"Velocity":35,"Duration":105814,"SoundDuration":105814,"Delta":522263953},{"NoteNumber":64,"Velocity":42,"Duration":105814,"SoundDuration":105814,"Delta":522263953},{"NoteNumber":53,"Velocity":36,"Duration":109967,"SoundDuration":109967,"Delta":522361628},{"NoteNumber":65,"Velocity":43,"Duration":109967,"SoundDuration":109967,"Delta":522361628},{"NoteNumber":72,"Velocity":41,"Duration":73753,"SoundDuration":73753,"Delta":522459303},{"NoteNumber":76,"Velocity":49,"Duration":73753,"SoundDuration":73753,"Delta":522459303},{"NoteNumber":55,"Velocity":37,"Duration":245182,"SoundDuration":245182,"Delta":522459303},{"NoteNumber":67,"Velocity":44,"Duration":245182,"SoundDuration":245182,"Delta":522459303},{"NoteNumber":91,"Velocity":49,"Duration":105814,"SoundDuration":105814,"Delta":522606811},{"NoteNumber":79,"Velocity":41,"Duration":105814,"SoundDuration":105814,"Delta":522606811},{"NoteNumber":89,"Velocity":49,"Duration":105814,"SoundDuration":105814,"Delta":522704486},{"NoteNumber":77,"Velocity":41,"Duration":105814,"SoundDuration":105814,"Delta":522704486},{"NoteNumber":88,"Velocity":49,"Duration":105814,"SoundDuration":105814,"Delta":522802161},{"NoteNumber":76,"Velocity":41,"Duration":105814,"SoundDuration":105814,"Delta":522802161},{"NoteNumber":86,"Velocity":48,"Duration":105814,"SoundDuration":105814,"Delta":522899836},{"NoteNumber":74,"Velocity":40,"Duration":105814,"SoundDuration":105814,"Delta":522899836},{"NoteNumber":84,"Velocity":48,"Duration":105814,"SoundDuration":105814,"Delta":522997512},{"NoteNumber":72,"Velocity":40,"Duration":105814,"SoundDuration":105814,"Delta":522997512},{"NoteNumber":83,"Velocity":47,"Duration":105814,"SoundDuration":105814,"Delta":523095187},{"NoteNumber":71,"Velocity":39,"Duration":105814,"SoundDuration":105814,"Delta":523095187},{"NoteNumber":81,"Velocity":39,"Duration":105814,"SoundDuration":105814,"Delta":523192862},{"NoteNumber":69,"Velocity":39,"Duration":105814,"SoundDuration":105814,"Delta":523192862},{"NoteNumber":67,"Velocity":39,"Duration":195403,"SoundDuration":195403,"Delta":523290537},{"NoteNumber":79,"Velocity":47,"Duration":195403,"SoundDuration":195403,"Delta":523290537},{"NoteNumber":65,"Velocity":38,"Duration":106493,"SoundDuration":106493,"Delta":523485941},{"NoteNumber":77,"Velocity":45,"Duration":106493,"SoundDuration":106493,"Delta":523485941},{"NoteNumber":64,"Velocity":38,"Duration":107347,"SoundDuration":107347,"Delta":523584213},{"NoteNumber":76,"Velocity":45,"Duration":107347,"SoundDuration":107347,"Delta":523584213},{"NoteNumber":62,"Velocity":37,"Duration":108238,"SoundDuration":108238,"Delta":523683256},{"NoteNumber":74,"Velocity":44,"Duration":108238,"SoundDuration":108238,"Delta":523683256},{"NoteNumber":60,"Velocity":37,"Duration":109089,"SoundDuration":109089,"Delta":523783134},{"NoteNumber":72,"Velocity":44,"Duration":109089,"SoundDuration":109089,"Delta":523783134},{"NoteNumber":59,"Velocity":36,"Duration":111148,"SoundDuration":111148,"Delta":523883806},{"NoteNumber":71,"Velocity":43,"Duration":111148,"SoundDuration":111148,"Delta":523883806},{"NoteNumber":57,"Velocity":35,"Duration":115318,"SoundDuration":115318,"Delta":523986237},{"NoteNumber":69,"Velocity":42,"Duration":115318,"SoundDuration":115318,"Delta":523986237},{"NoteNumber":55,"Velocity":44,"Duration":116201,"SoundDuration":116201,"Delta":524092551},{"NoteNumber":67,"Velocity":44,"Duration":116201,"SoundDuration":116201,"Delta":524092551},{"NoteNumber":57,"Velocity":46,"Duration":105814,"SoundDuration":105814,"Delta":524200612},{"NoteNumber":55,"Velocity":35,"Duration":105814,"SoundDuration":105814,"Delta":524200612},{"NoteNumber":59,"Velocity":47,"Duration":105814,"SoundDuration":105814,"Delta":524298287},{"NoteNumber":53,"Velocity":37,"Duration":105814,"SoundDuration":105814,"Delta":524298287},{"NoteNumber":60,"Velocity":49,"Duration":105814,"SoundDuration":105814,"Delta":524395963},{"NoteNumber":52,"Velocity":38,"Duration":105814,"SoundDuration":105814,"Delta":524395963},{"NoteNumber":62,"Velocity":51,"Duration":105814,"SoundDuration":105814,"Delta":524493638},{"NoteNumber":50,"Velocity":40,"Duration":105814,"SoundDuration":105814,"Delta":524493638},{"NoteNumber":64,"Velocity":53,"Duration":105814,"SoundDuration":105814,"Delta":524591313},{"NoteNumber":48,"Velocity":41,"Duration":105814,"SoundDuration":105814,"Delta":524591313},{"NoteNumber":65,"Velocity":54,"Duration":105814,"SoundDuration":105814,"Delta":524688988},{"NoteNumber":47,"Velocity":43,"Duration":105814,"SoundDuration":105814,"Delta":524688988},{"NoteNumber":66,"Velocity":56,"Duration":105814,"SoundDuration":105814,"Delta":524786664},{"NoteNumber":45,"Velocity":44,"Duration":105814,"SoundDuration":105814,"Delta":524786664},{"NoteNumber":67,"Velocity":58,"Duration":105814,"SoundDuration":105814,"Delta":524884339},{"NoteNumber":43,"Velocity":46,"Duration":195296,"SoundDuration":195296,"Delta":524884339},{"NoteNumber":69,"Velocity":59,"Duration":105734,"SoundDuration":105734,"Delta":524982014},{"NoteNumber":71,"Velocity":61,"Duration":105599,"SoundDuration":105599,"Delta":525079635},{"NoteNumber":41,"Velocity":47,"Duration":105599,"SoundDuration":105599,"Delta":525079635},{"NoteNumber":72,"Velocity":63,"Duration":106082,"SoundDuration":106082,"Delta":525177095},{"NoteNumber":40,"Velocity":48,"Duration":106082,"SoundDuration":106082,"Delta":525177095},{"NoteNumber":74,"Velocity":65,"Duration":106659,"SoundDuration":106659,"Delta":525274983},{"NoteNumber":38,"Velocity":50,"Duration":106659,"SoundDuration":106659,"Delta":525274983},{"NoteNumber":76,"Velocity":66,"Duration":107069,"SoundDuration":107069,"Delta":525373422},{"NoteNumber":36,"Velocity":51,"Duration":107069,"SoundDuration":107069,"Delta":525373422},{"NoteNumber":77,"Velocity":68,"Duration":107627,"SoundDuration":107627,"Delta":525472243},{"NoteNumber":35,"Velocity":53,"Duration":107627,"SoundDuration":107627,"Delta":525472243},{"NoteNumber":78,"Velocity":70,"Duration":109349,"SoundDuration":109349,"Delta":525571565},{"NoteNumber":33,"Velocity":54,"Duration":109349,"SoundDuration":109349,"Delta":525571565},{"NoteNumber":79,"Velocity":54,"Duration":68696,"SoundDuration":68696,"Delta":525672320},{"NoteNumber":31,"Velocity":57,"Duration":111490,"SoundDuration":111490,"Delta":525672320},{"NoteNumber":81,"Velocity":35,"Duration":68399,"SoundDuration":68399,"Delta":525741017},{"NoteNumber":33,"Velocity":57,"Duration":110722,"SoundDuration":110722,"Delta":525775275},{"NoteNumber":79,"Velocity":44,"Duration":68104,"SoundDuration":68104,"Delta":525809417},{"NoteNumber":81,"Velocity":38,"Duration":67753,"SoundDuration":67753,"Delta":525877522},{"NoteNumber":35,"Velocity":58,"Duration":109961,"SoundDuration":109961,"Delta":525877522},{"NoteNumber":79,"Velocity":44,"Duration":67460,"SoundDuration":67460,"Delta":525945275},{"NoteNumber":36,"Velocity":58,"Duration":109204,"SoundDuration":109204,"Delta":525979065},{"NoteNumber":81,"Velocity":37,"Duration":67174,"SoundDuration":67174,"Delta":526012735},{"NoteNumber":79,"Velocity":41,"Duration":66885,"SoundDuration":66885,"Delta":526079909},{"NoteNumber":38,"Velocity":59,"Duration":108688,"SoundDuration":108688,"Delta":526079909},{"NoteNumber":81,"Velocity":36,"Duration":66885,"SoundDuration":66885,"Delta":526146795},{"NoteNumber":40,"Velocity":59,"Duration":108688,"SoundDuration":108688,"Delta":526180237},{"NoteNumber":79,"Velocity":41,"Duration":66885,"SoundDuration":66885,"Delta":526213680},{"NoteNumber":81,"Velocity":37,"Duration":66885,"SoundDuration":66885,"Delta":526280565},{"NoteNumber":41,"Velocity":60,"Duration":108688,"SoundDuration":108688,"Delta":526280565},{"NoteNumber":79,"Velocity":41,"Duration":66885,"SoundDuration":66885,"Delta":526347450},{"NoteNumber":42,"Velocity":60,"Duration":108688,"SoundDuration":108688,"Delta":526380893},{"NoteNumber":81,"Velocity":35,"Duration":66885,"SoundDuration":66885,"Delta":526414335},{"NoteNumber":79,"Velocity":41,"Duration":66885,"SoundDuration":66885,"Delta":526481220},{"NoteNumber":43,"Velocity":61,"Duration":108688,"SoundDuration":108688,"Delta":526481220},{"NoteNumber":81,"Velocity":37,"Duration":66885,"SoundDuration":66885,"Delta":526548106},{"NoteNumber":45,"Velocity":61,"Duration":108432,"SoundDuration":108432,"Delta":526581548},{"NoteNumber":79,"Velocity":41,"Duration":66657,"SoundDuration":66657,"Delta":526614991},{"NoteNumber":81,"Velocity":36,"Duration":66657,"SoundDuration":66657,"Delta":526681649},{"NoteNumber":47,"Velocity":62,"Duration":108180,"SoundDuration":108180,"Delta":526681649},{"NoteNumber":79,"Velocity":41,"Duration":66436,"SoundDuration":66436,"Delta":526748306},{"NoteNumber":48,"Velocity":62,"Duration":107931,"SoundDuration":107931,"Delta":526781525},{"NoteNumber":81,"Velocity":36,"Duration":66436,"SoundDuration":66436,"Delta":526814743},{"NoteNumber":79,"Velocity":41,"Duration":66216,"SoundDuration":66216,"Delta":526881179},{"NoteNumber":50,"Velocity":63,"Duration":107601,"SoundDuration":107601,"Delta":526881179},{"NoteNumber":81,"Velocity":37,"Duration":66216,"SoundDuration":66216,"Delta":526947395},{"NoteNumber":52,"Velocity":63,"Duration":107345,"SoundDuration":107345,"Delta":526980504},{"NoteNumber":79,"Velocity":41,"Duration":65989,"SoundDuration":65989,"Delta":527013612},{"NoteNumber":81,"Velocity":37,"Duration":65989,"SoundDuration":65989,"Delta":527079601},{"NoteNumber":53,"Velocity":64,"Duration":107096,"SoundDuration":107096,"Delta":527079601},{"NoteNumber":79,"Velocity":41,"Duration":65772,"SoundDuration":65772,"Delta":527145590},{"NoteNumber":54,"Velocity":64,"Duration":106852,"SoundDuration":106852,"Delta":527178476},{"NoteNumber":81,"Velocity":36,"Duration":65772,"SoundDuration":65772,"Delta":527211362},{"NoteNumber":79,"Velocity":41,"Duration":64344,"SoundDuration":64344,"Delta":527277134},{"NoteNumber":55,"Velocity":64,"Duration":105237,"SoundDuration":105237,"Delta":527277134},{"NoteNumber":81,"Velocity":36,"Duration":65655,"SoundDuration":65655,"Delta":527341479},{"NoteNumber":57,"Velocity":64,"Duration":106176,"SoundDuration":106176,"Delta":527374039},{"NoteNumber":79,"Velocity":41,"Duration":64968,"SoundDuration":64968,"Delta":527407134},{"NoteNumber":81,"Velocity":37,"Duration":65215,"SoundDuration":65215,"Delta":527472103},{"NoteNumber":59,"Velocity":65,"Duration":105382,"SoundDuration":105382,"Delta":527472103},{"NoteNumber":79,"Velocity":41,"Duration":64267,"SoundDuration":64267,"Delta":527537319},{"NoteNumber":60,"Velocity":65,"Duration":104649,"SoundDuration":104649,"Delta":527569452},{"NoteNumber":81,"Velocity":37,"Duration":64267,"SoundDuration":64267,"Delta":527601586},{"NoteNumber":79,"Velocity":41,"Duration":66245,"SoundDuration":66245,"Delta":527665853},{"NoteNumber":62,"Velocity":66,"Duration":106309,"SoundDuration":106309,"Delta":527665853},{"NoteNumber":81,"Velocity":36,"Duration":64777,"SoundDuration":64777,"Delta":527732099},{"NoteNumber":64,"Velocity":66,"Duration":107306,"SoundDuration":107306,"Delta":527764076},{"NoteNumber":79,"Velocity":41,"Duration":66145,"SoundDuration":66145,"Delta":527796876},{"NoteNumber":81,"Velocity":37,"Duration":66885,"SoundDuration":66885,"Delta":527863022},{"NoteNumber":65,"Velocity":67,"Duration":107466,"SoundDuration":107466,"Delta":527863022},{"NoteNumber":79,"Velocity":41,"Duration":64494,"SoundDuration":64494,"Delta":527929907},{"NoteNumber":66,"Velocity":67,"Duration":104171,"SoundDuration":104171,"Delta":527962660},{"NoteNumber":81,"Velocity":36,"Duration":64370,"SoundDuration":64370,"Delta":527994401},{"NoteNumber":79,"Velocity":40,"Duration":64624,"SoundDuration":64624,"Delta":528058772},{"NoteNumber":67,"Velocity":68,"Duration":105838,"SoundDuration":105838,"Delta":528058772},{"NoteNumber":81,"Velocity":36,"Duration":66082,"SoundDuration":66082,"Delta":528123397},{"NoteNumber":69,"Velocity":66,"Duration":106739,"SoundDuration":106739,"Delta":528156305},{"NoteNumber":79,"Velocity":39,"Duration":65531,"SoundDuration":65531,"Delta":528189480},{"NoteNumber":81,"Velocity":35,"Duration":64026,"SoundDuration":64026,"Delta":528255011},{"NoteNumber":71,"Velocity":65,"Duration":104322,"SoundDuration":104322,"Delta":528255011},{"NoteNumber":79,"Velocity":39,"Duration":64474,"SoundDuration":64474,"Delta":528319038},{"NoteNumber":72,"Velocity":63,"Duration":105714,"SoundDuration":105714,"Delta":528351275},{"NoteNumber":81,"Velocity":35,"Duration":65282,"SoundDuration":65282,"Delta":528383512},{"NoteNumber":79,"Velocity":39,"Duration":65717,"SoundDuration":65717,"Delta":528448795},{"NoteNumber":74,"Velocity":62,"Duration":106906,"SoundDuration":106906,"Delta":528448795},{"NoteNumber":81,"Velocity":35,"Duration":65934,"SoundDuration":65934,"Delta":528514512},{"NoteNumber":76,"Velocity":57,"Duration":107458,"SoundDuration":107458,"Delta":528547453},{"NoteNumber":79,"Velocity":39,"Duration":66159,"SoundDuration":66159,"Delta":528580447},{"NoteNumber":81,"Velocity":35,"Duration":66436,"SoundDuration":66436,"Delta":528646607},{"NoteNumber":77,"Velocity":55,"Duration":108097,"SoundDuration":108097,"Delta":528646607},{"NoteNumber":79,"Velocity":39,"Duration":66657,"SoundDuration":66657,"Delta":528713043},{"NoteNumber":76,"Velocity":53,"Duration":108633,"SoundDuration":108633,"Delta":528746372},{"NoteNumber":81,"Velocity":35,"Duration":66943,"SoundDuration":66943,"Delta":528779701},{"NoteNumber":79,"Velocity":36,"Duration":66504,"SoundDuration":66504,"Delta":528846645},{"NoteNumber":77,"Velocity":56,"Duration":199627,"SoundDuration":199627,"Delta":528846645},{"NoteNumber":81,"Velocity":32,"Duration":65728,"SoundDuration":65728,"Delta":528913149},{"NoteNumber":79,"Velocity":35,"Duration":67394,"SoundDuration":67394,"Delta":528978878},{"NoteNumber":81,"Velocity":31,"Duration":66449,"SoundDuration":66449,"Delta":529046272},{"NoteNumber":79,"Velocity":35,"Duration":66977,"SoundDuration":66977,"Delta":529112721},{"NoteNumber":81,"Velocity":31,"Duration":67171,"SoundDuration":67171,"Delta":529179699},{"NoteNumber":79,"Velocity":35,"Duration":66103,"SoundDuration":66103,"Delta":529246870},{"NoteNumber":81,"Velocity":31,"Duration":66704,"SoundDuration":66704,"Delta":529312974},{"NoteNumber":76,"Velocity":43,"Duration":100169,"SoundDuration":100169,"Delta":529346269},{"NoteNumber":79,"Velocity":35,"Duration":66761,"SoundDuration":66761,"Delta":529379678},{"NoteNumber":81,"Velocity":31,"Duration":64841,"SoundDuration":64841,"Delta":529446439},{"NoteNumber":77,"Velocity":46,"Duration":97122,"SoundDuration":97122,"Delta":529446439},{"NoteNumber":79,"Velocity":35,"Duration":64806,"SoundDuration":64806,"Delta":529511281},{"NoteNumber":76,"Velocity":43,"Duration":98652,"SoundDuration":98652,"Delta":529543562},{"NoteNumber":81,"Velocity":31,"Duration":66126,"SoundDuration":66126,"Delta":529576088},{"NoteNumber":79,"Velocity":36,"Duration":64958,"SoundDuration":64958,"Delta":529642214},{"NoteNumber":77,"Velocity":51,"Duration":195889,"SoundDuration":195889,"Delta":529642214},{"NoteNumber":81,"Velocity":32,"Duration":64627,"SoundDuration":64627,"Delta":529707173},{"NoteNumber":79,"Velocity":35,"Duration":66303,"SoundDuration":66303,"Delta":529771800},{"NoteNumber":81,"Velocity":31,"Duration":65273,"SoundDuration":65273,"Delta":529838104},{"NoteNumber":79,"Velocity":35,"Duration":64744,"SoundDuration":64744,"Delta":529903378},{"NoteNumber":81,"Velocity":31,"Duration":66237,"SoundDuration":66237,"Delta":529968123},{"NoteNumber":79,"Velocity":35,"Duration":65974,"SoundDuration":65974,"Delta":530034360},{"NoteNumber":81,"Velocity":31,"Duration":64592,"SoundDuration":64592,"Delta":530100335},{"NoteNumber":76,"Velocity":42,"Duration":98103,"SoundDuration":98103,"Delta":530132604},{"NoteNumber":79,"Velocity":35,"Duration":65781,"SoundDuration":65781,"Delta":530164927},{"NoteNumber":81,"Velocity":31,"Duration":65141,"SoundDuration":65141,"Delta":530230708},{"NoteNumber":77,"Velocity":46,"Duration":97411,"SoundDuration":97411,"Delta":530230708},{"NoteNumber":79,"Velocity":35,"Duration":64731,"SoundDuration":64731,"Delta":530295850},{"NoteNumber":76,"Velocity":42,"Duration":98058,"SoundDuration":98058,"Delta":530328120},{"NoteNumber":81,"Velocity":31,"Duration":65596,"SoundDuration":65596,"Delta":530360582},{"NoteNumber":79,"Velocity":36,"Duration":64216,"SoundDuration":64216,"Delta":530426179},{"NoteNumber":77,"Velocity":50,"Duration":195619,"SoundDuration":195619,"Delta":530426179},{"NoteNumber":81,"Velocity":32,"Duration":65354,"SoundDuration":65354,"Delta":530490396},{"NoteNumber":79,"Velocity":35,"Duration":66048,"SoundDuration":66048,"Delta":530555750},{"NoteNumber":81,"Velocity":32,"Duration":64763,"SoundDuration":64763,"Delta":530621799},{"NoteNumber":79,"Velocity":36,"Duration":65818,"SoundDuration":65818,"Delta":530686562},{"NoteNumber":81,"Velocity":32,"Duration":66083,"SoundDuration":66083,"Delta":530752381},{"NoteNumber":79,"Velocity":37,"Duration":64721,"SoundDuration":64721,"Delta":530818465},{"NoteNumber":81,"Velocity":33,"Duration":66082,"SoundDuration":66082,"Delta":530883186},{"NoteNumber":79,"Velocity":38,"Duration":66004,"SoundDuration":66004,"Delta":530949269},{"NoteNumber":81,"Velocity":34,"Duration":64488,"SoundDuration":64488,"Delta":531015273},{"NoteNumber":79,"Velocity":39,"Duration":63839,"SoundDuration":63839,"Delta":531079762},{"NoteNumber":81,"Velocity":35,"Duration":64785,"SoundDuration":64785,"Delta":531143602},{"NoteNumber":79,"Velocity":41,"Duration":65983,"SoundDuration":65983,"Delta":531208387},{"NoteNumber":81,"Velocity":37,"Duration":64615,"SoundDuration":64615,"Delta":531274371},{"NoteNumber":79,"Velocity":40,"Duration":65128,"SoundDuration":65128,"Delta":531338987},{"NoteNumber":81,"Velocity":36,"Duration":64293,"SoundDuration":64293,"Delta":531404115},{"NoteNumber":79,"Velocity":42,"Duration":63641,"SoundDuration":63641,"Delta":531468408},{"NoteNumber":81,"Velocity":37,"Duration":64950,"SoundDuration":64950,"Delta":531532050},{"NoteNumber":79,"Velocity":42,"Duration":66038,"SoundDuration":66038,"Delta":531597000},{"NoteNumber":81,"Velocity":38,"Duration":66105,"SoundDuration":66105,"Delta":531663038},{"NoteNumber":79,"Velocity":43,"Duration":65441,"SoundDuration":65441,"Delta":531729143},{"NoteNumber":81,"Velocity":39,"Duration":65225,"SoundDuration":65225,"Delta":531794584},{"NoteNumber":79,"Velocity":44,"Duration":66547,"SoundDuration":66547,"Delta":531859810},{"NoteNumber":81,"Velocity":39,"Duration":65992,"SoundDuration":65992,"Delta":531926357},{"NoteNumber":79,"Velocity":46,"Duration":66898,"SoundDuration":66898,"Delta":531992350},{"NoteNumber":48,"Velocity":51,"Duration":133370,"SoundDuration":133370,"Delta":531992350},{"NoteNumber":81,"Velocity":31,"Duration":66472,"SoundDuration":66472,"Delta":532059248},{"NoteNumber":79,"Velocity":33,"Duration":67692,"SoundDuration":67692,"Delta":532125721},{"NoteNumber":55,"Velocity":31,"Duration":135607,"SoundDuration":135607,"Delta":532125721},{"NoteNumber":81,"Velocity":29,"Duration":67914,"SoundDuration":67914,"Delta":532193413},{"NoteNumber":79,"Velocity":32,"Duration":66910,"SoundDuration":66910,"Delta":532261328},{"NoteNumber":60,"Velocity":31,"Duration":133653,"SoundDuration":133653,"Delta":532261328},{"NoteNumber":81,"Velocity":28,"Duration":66743,"SoundDuration":66743,"Delta":532328238},{"NoteNumber":79,"Velocity":31,"Duration":67971,"SoundDuration":67971,"Delta":532394981},{"NoteNumber":91,"Velocity":57,"Duration":403114,"SoundDuration":403114,"Delta":532394981},{"NoteNumber":64,"Velocity":33,"Duration":135829,"SoundDuration":135829,"Delta":532394981},{"NoteNumber":81,"Velocity":27,"Duration":67858,"SoundDuration":67858,"Delta":532462953},{"NoteNumber":79,"Velocity":31,"Duration":66636,"SoundDuration":66636,"Delta":532530811},{"NoteNumber":60,"Velocity":31,"Duration":132514,"SoundDuration":132514,"Delta":532530811},{"NoteNumber":81,"Velocity":27,"Duration":65878,"SoundDuration":65878,"Delta":532597447},{"NoteNumber":79,"Velocity":31,"Duration":66965,"SoundDuration":66965,"Delta":532663326},{"NoteNumber":64,"Velocity":31,"Duration":134769,"SoundDuration":134769,"Delta":532663326},{"NoteNumber":81,"Velocity":27,"Duration":67804,"SoundDuration":67804,"Delta":532730291},{"NoteNumber":79,"Velocity":32,"Duration":67808,"SoundDuration":67808,"Delta":532798096},{"NoteNumber":91,"Velocity":59,"Duration":606115,"SoundDuration":606115,"Delta":532798096},{"NoteNumber":67,"Velocity":35,"Duration":134278,"SoundDuration":134278,"Delta":532798096},{"NoteNumber":81,"Velocity":28,"Duration":66470,"SoundDuration":66470,"Delta":532865904},{"NoteNumber":79,"Velocity":31,"Duration":66363,"SoundDuration":66363,"Delta":532932375},{"NoteNumber":64,"Velocity":31,"Duration":134393,"SoundDuration":134393,"Delta":532932375},{"NoteNumber":81,"Velocity":27,"Duration":68030,"SoundDuration":68030,"Delta":532998738},{"NoteNumber":79,"Velocity":31,"Duration":68083,"SoundDuration":68083,"Delta":533066768},{"NoteNumber":67,"Velocity":31,"Duration":135541,"SoundDuration":135541,"Delta":533066768},{"NoteNumber":81,"Velocity":27,"Duration":67457,"SoundDuration":67457,"Delta":533134852},{"NoteNumber":79,"Velocity":31,"Duration":67074,"SoundDuration":67074,"Delta":533202309},{"NoteNumber":64,"Velocity":35,"Duration":133986,"SoundDuration":133986,"Delta":533202309},{"NoteNumber":81,"Velocity":27,"Duration":66912,"SoundDuration":66912,"Delta":533269384},{"NoteNumber":79,"Velocity":31,"Duration":67914,"SoundDuration":67914,"Delta":533336296},{"NoteNumber":60,"Velocity":31,"Duration":135322,"SoundDuration":135322,"Delta":533336296},{"NoteNumber":81,"Velocity":27,"Duration":67407,"SoundDuration":67407,"Delta":533404211},{"NoteNumber":88,"Velocity":50,"Duration":202618,"SoundDuration":202618,"Delta":533404211},{"NoteNumber":79,"Velocity":31,"Duration":68030,"SoundDuration":68030,"Delta":533471619},{"NoteNumber":64,"Velocity":31,"Duration":135210,"SoundDuration":135210,"Delta":533471619},{"NoteNumber":81,"Velocity":27,"Duration":67179,"SoundDuration":67179,"Delta":533539650},{"NoteNumber":79,"Velocity":37,"Duration":66470,"SoundDuration":66470,"Delta":533606829},{"NoteNumber":86,"Velocity":57,"Duration":398267,"SoundDuration":398267,"Delta":533606829},{"NoteNumber":65,"Velocity":35,"Duration":132562,"SoundDuration":132562,"Delta":533606829},{"NoteNumber":81,"Velocity":28,"Duration":66092,"SoundDuration":66092,"Delta":533673300},{"NoteNumber":79,"Velocity":34,"Duration":67183,"SoundDuration":67183,"Delta":533739392},{"NoteNumber":62,"Velocity":31,"Duration":133497,"SoundDuration":133497,"Delta":533739392},{"NoteNumber":81,"Velocity":28,"Duration":66313,"SoundDuration":66313,"Delta":533806575},{"NoteNumber":79,"Velocity":34,"Duration":65456,"SoundDuration":65456,"Delta":533872889},{"NoteNumber":65,"Velocity":31,"Duration":132207,"SoundDuration":132207,"Delta":533872889},{"NoteNumber":81,"Velocity":28,"Duration":66750,"SoundDuration":66750,"Delta":533938346},{"NoteNumber":79,"Velocity":50,"Duration":58906,"SoundDuration":58906,"Delta":534005097},{"NoteNumber":62,"Velocity":36,"Duration":134264,"SoundDuration":134264,"Delta":534005097},{"NoteNumber":81,"Velocity":27,"Duration":66967,"SoundDuration":66967,"Delta":534072395},{"NoteNumber":79,"Velocity":31,"Duration":67920,"SoundDuration":67920,"Delta":534139362},{"NoteNumber":59,"Velocity":31,"Duration":136234,"SoundDuration":136234,"Delta":534139362},{"NoteNumber":81,"Velocity":27,"Duration":68313,"SoundDuration":68313,"Delta":534207282},{"NoteNumber":79,"Velocity":31,"Duration":67020,"SoundDuration":67020,"Delta":534275596},{"NoteNumber":62,"Velocity":31,"Duration":134258,"SoundDuration":134258,"Delta":534275596},{"NoteNumber":81,"Velocity":27,"Duration":67238,"SoundDuration":67238,"Delta":534342616},{"NoteNumber":79,"Velocity":32,"Duration":67574,"SoundDuration":67574,"Delta":534409854},{"NoteNumber":84,"Velocity":53,"Duration":404385,"SoundDuration":404385,"Delta":534409854},{"NoteNumber":64,"Velocity":35,"Duration":134404,"SoundDuration":134404,"Delta":534409854},{"NoteNumber":81,"Velocity":28,"Duration":66829,"SoundDuration":66829,"Delta":534477429},{"NoteNumber":79,"Velocity":31,"Duration":67292,"SoundDuration":67292,"Delta":534544259},{"NoteNumber":60,"Velocity":31,"Duration":135514,"SoundDuration":135514,"Delta":534544259},{"NoteNumber":81,"Velocity":27,"Duration":68222,"SoundDuration":68222,"Delta":534611551},{"NoteNumber":79,"Velocity":31,"Duration":67174,"SoundDuration":67174,"Delta":534679774},{"NoteNumber":55,"Velocity":31,"Duration":134466,"SoundDuration":134466,"Delta":534679774},{"NoteNumber":81,"Velocity":27,"Duration":67292,"SoundDuration":67292,"Delta":534746948},{"NoteNumber":79,"Velocity":31,"Duration":68340,"SoundDuration":68340,"Delta":534814240},{"NoteNumber":88,"Velocity":53,"Duration":203214,"SoundDuration":203214,"Delta":534814240},{"NoteNumber":60,"Velocity":35,"Duration":136270,"SoundDuration":136270,"Delta":534814240},{"NoteNumber":81,"Velocity":27,"Duration":67930,"SoundDuration":67930,"Delta":534882581},{"NoteNumber":79,"Velocity":31,"Duration":66943,"SoundDuration":66943,"Delta":534950511},{"NoteNumber":55,"Velocity":31,"Duration":134641,"SoundDuration":134641,"Delta":534950511},{"NoteNumber":81,"Velocity":27,"Duration":67698,"SoundDuration":67698,"Delta":535017454},{"NoteNumber":79,"Velocity":31,"Duration":68516,"SoundDuration":68516,"Delta":535085153},{"NoteNumber":52,"Velocity":31,"Duration":136093,"SoundDuration":136093,"Delta":535085153},{"NoteNumber":81,"Velocity":27,"Duration":67576,"SoundDuration":67576,"Delta":535153669},{"NoteNumber":79,"Velocity":36,"Duration":67350,"SoundDuration":67350,"Delta":535221246},{"NoteNumber":48,"Velocity":49,"Duration":133823,"SoundDuration":133823,"Delta":535221246},{"NoteNumber":81,"Velocity":31,"Duration":66472,"SoundDuration":66472,"Delta":535288597},{"NoteNumber":79,"Velocity":33,"Duration":67692,"SoundDuration":67692,"Delta":535355069},{"NoteNumber":55,"Velocity":31,"Duration":135607,"SoundDuration":135607,"Delta":535355069},{"NoteNumber":81,"Velocity":29,"Duration":67914,"SoundDuration":67914,"Delta":535422761},{"NoteNumber":79,"Velocity":32,"Duration":66910,"SoundDuration":66910,"Delta":535490676},{"NoteNumber":60,"Velocity":31,"Duration":133653,"SoundDuration":133653,"Delta":535490676},{"NoteNumber":81,"Velocity":28,"Duration":66743,"SoundDuration":66743,"Delta":535557587},{"NoteNumber":79,"Velocity":31,"Duration":67971,"SoundDuration":67971,"Delta":535624330},{"NoteNumber":91,"Velocity":57,"Duration":403114,"SoundDuration":403114,"Delta":535624330},{"NoteNumber":64,"Velocity":33,"Duration":135829,"SoundDuration":135829,"Delta":535624330},{"NoteNumber":81,"Velocity":27,"Duration":67858,"SoundDuration":67858,"Delta":535692301},{"NoteNumber":79,"Velocity":31,"Duration":66636,"SoundDuration":66636,"Delta":535760159},{"NoteNumber":60,"Velocity":31,"Duration":132514,"SoundDuration":132514,"Delta":535760159},{"NoteNumber":81,"Velocity":27,"Duration":65878,"SoundDuration":65878,"Delta":535826795},{"NoteNumber":79,"Velocity":31,"Duration":66965,"SoundDuration":66965,"Delta":535892674},{"NoteNumber":64,"Velocity":31,"Duration":134769,"SoundDuration":134769,"Delta":535892674},{"NoteNumber":81,"Velocity":27,"Duration":67804,"SoundDuration":67804,"Delta":535959639},{"NoteNumber":79,"Velocity":32,"Duration":67808,"SoundDuration":67808,"Delta":536027444},{"NoteNumber":91,"Velocity":59,"Duration":606115,"SoundDuration":606115,"Delta":536027444},{"NoteNumber":67,"Velocity":35,"Duration":134278,"SoundDuration":134278,"Delta":536027444},{"NoteNumber":81,"Velocity":28,"Duration":66470,"SoundDuration":66470,"Delta":536095252},{"NoteNumber":79,"Velocity":31,"Duration":66363,"SoundDuration":66363,"Delta":536161723},{"NoteNumber":64,"Velocity":31,"Duration":134393,"SoundDuration":134393,"Delta":536161723},{"NoteNumber":81,"Velocity":27,"Duration":68030,"SoundDuration":68030,"Delta":536228086},{"NoteNumber":79,"Velocity":31,"Duration":68083,"SoundDuration":68083,"Delta":536296116},{"NoteNumber":67,"Velocity":31,"Duration":135541,"SoundDuration":135541,"Delta":536296116},{"NoteNumber":81,"Velocity":27,"Duration":67457,"SoundDuration":67457,"Delta":536364200},{"NoteNumber":79,"Velocity":31,"Duration":67074,"SoundDuration":67074,"Delta":536431658},{"NoteNumber":64,"Velocity":35,"Duration":133986,"SoundDuration":133986,"Delta":536431658},{"NoteNumber":81,"Velocity":27,"Duration":66912,"SoundDuration":66912,"Delta":536498732},{"NoteNumber":79,"Velocity":31,"Duration":67914,"SoundDuration":67914,"Delta":536565645},{"NoteNumber":60,"Velocity":31,"Duration":135322,"SoundDuration":135322,"Delta":536565645},{"NoteNumber":81,"Velocity":27,"Duration":67407,"SoundDuration":67407,"Delta":536633560},{"NoteNumber":88,"Velocity":50,"Duration":202618,"SoundDuration":202618,"Delta":536633560},{"NoteNumber":79,"Velocity":31,"Duration":68030,"SoundDuration":68030,"Delta":536700967},{"NoteNumber":64,"Velocity":31,"Duration":135210,"SoundDuration":135210,"Delta":536700967},{"NoteNumber":81,"Velocity":27,"Duration":67179,"SoundDuration":67179,"Delta":536768998},{"NoteNumber":79,"Velocity":32,"Duration":66470,"SoundDuration":66470,"Delta":536836178},{"NoteNumber":86,"Velocity":57,"Duration":398267,"SoundDuration":398267,"Delta":536836178},{"NoteNumber":65,"Velocity":35,"Duration":132562,"SoundDuration":132562,"Delta":536836178},{"NoteNumber":81,"Velocity":28,"Duration":66092,"SoundDuration":66092,"Delta":536902648},{"NoteNumber":79,"Velocity":31,"Duration":67183,"SoundDuration":67183,"Delta":536968740},{"NoteNumber":62,"Velocity":31,"Duration":133497,"SoundDuration":133497,"Delta":536968740},{"NoteNumber":81,"Velocity":27,"Duration":66313,"SoundDuration":66313,"Delta":537035924},{"NoteNumber":79,"Velocity":31,"Duration":65456,"SoundDuration":65456,"Delta":537102238},{"NoteNumber":65,"Velocity":31,"Duration":132207,"SoundDuration":132207,"Delta":537102238},{"NoteNumber":81,"Velocity":27,"Duration":66750,"SoundDuration":66750,"Delta":537167695},{"NoteNumber":79,"Velocity":31,"Duration":58906,"SoundDuration":58906,"Delta":537234445},{"NoteNumber":79,"Velocity":50,"Duration":67297,"SoundDuration":67297,"Delta":537234445},{"NoteNumber":59,"Velocity":36,"Duration":134264,"SoundDuration":134264,"Delta":537234445},{"NoteNumber":81,"Velocity":27,"Duration":66967,"SoundDuration":66967,"Delta":537301743},{"NoteNumber":79,"Velocity":31,"Duration":67920,"SoundDuration":67920,"Delta":537368710},{"NoteNumber":62,"Velocity":31,"Duration":136234,"SoundDuration":136234,"Delta":537368710},{"NoteNumber":81,"Velocity":27,"Duration":68313,"SoundDuration":68313,"Delta":537436630},{"NoteNumber":79,"Velocity":31,"Duration":67020,"SoundDuration":67020,"Delta":537504944},{"NoteNumber":59,"Velocity":31,"Duration":134258,"SoundDuration":134258,"Delta":537504944},{"NoteNumber":81,"Velocity":27,"Duration":67238,"SoundDuration":67238,"Delta":537571964},{"NoteNumber":79,"Velocity":32,"Duration":67231,"SoundDuration":67231,"Delta":537639203},{"NoteNumber":84,"Velocity":53,"Duration":201410,"SoundDuration":201410,"Delta":537639203},{"NoteNumber":60,"Velocity":35,"Duration":133890,"SoundDuration":133890,"Delta":537639203},{"NoteNumber":81,"Velocity":28,"Duration":66659,"SoundDuration":66659,"Delta":537706434},{"NoteNumber":79,"Velocity":32,"Duration":67519,"SoundDuration":67519,"Delta":537773093},{"NoteNumber":57,"Velocity":31,"Duration":134808,"SoundDuration":134808,"Delta":537773093},{"NoteNumber":81,"Velocity":28,"Duration":67288,"SoundDuration":67288,"Delta":537840613},{"NoteNumber":79,"Velocity":34,"Duration":67235,"SoundDuration":67235,"Delta":537907902},{"NoteNumber":55,"Velocity":31,"Duration":135693,"SoundDuration":135693,"Delta":537907902},{"NoteNumber":81,"Velocity":30,"Duration":68458,"SoundDuration":68458,"Delta":537975137},{"NoteNumber":79,"Velocity":35,"Duration":68223,"SoundDuration":68223,"Delta":538043595},{"NoteNumber":53,"Velocity":35,"Duration":135683,"SoundDuration":135683,"Delta":538043595},{"NoteNumber":81,"Velocity":31,"Duration":67460,"SoundDuration":67460,"Delta":538111818},{"NoteNumber":79,"Velocity":36,"Duration":68222,"SoundDuration":68222,"Delta":538179279},{"NoteNumber":52,"Velocity":31,"Duration":136859,"SoundDuration":136859,"Delta":538179279},{"NoteNumber":81,"Velocity":32,"Duration":68636,"SoundDuration":68636,"Delta":538247502},{"NoteNumber":79,"Velocity":38,"Duration":67930,"SoundDuration":67930,"Delta":538316139},{"NoteNumber":50,"Velocity":31,"Duration":135337,"SoundDuration":135337,"Delta":538316139},{"NoteNumber":81,"Velocity":34,"Duration":67407,"SoundDuration":67407,"Delta":538384069},{"NoteNumber":80,"Velocity":46,"Duration":67407,"SoundDuration":67407,"Delta":538451476},{"NoteNumber":48,"Velocity":63,"Duration":133880,"SoundDuration":133880,"Delta":538451476},{"NoteNumber":79,"Velocity":31,"Duration":66472,"SoundDuration":66472,"Delta":538518884},{"NoteNumber":80,"Velocity":33,"Duration":67692,"SoundDuration":67692,"Delta":538585356},{"NoteNumber":55,"Velocity":31,"Duration":135607,"SoundDuration":135607,"Delta":538585356},{"NoteNumber":79,"Velocity":29,"Duration":67914,"SoundDuration":67914,"Delta":538653049},{"NoteNumber":80,"Velocity":32,"Duration":66910,"SoundDuration":66910,"Delta":538720964},{"NoteNumber":60,"Velocity":31,"Duration":133653,"SoundDuration":133653,"Delta":538720964},{"NoteNumber":79,"Velocity":28,"Duration":66743,"SoundDuration":66743,"Delta":538787874},{"NoteNumber":80,"Velocity":31,"Duration":67971,"SoundDuration":67971,"Delta":538854617},{"NoteNumber":91,"Velocity":57,"Duration":403114,"SoundDuration":403114,"Delta":538854617},{"NoteNumber":63,"Velocity":33,"Duration":135829,"SoundDuration":135829,"Delta":538854617},{"NoteNumber":79,"Velocity":27,"Duration":67858,"SoundDuration":67858,"Delta":538922588},{"NoteNumber":80,"Velocity":31,"Duration":66636,"SoundDuration":66636,"Delta":538990447},{"NoteNumber":60,"Velocity":31,"Duration":132514,"SoundDuration":132514,"Delta":538990447},{"NoteNumber":79,"Velocity":27,"Duration":65878,"SoundDuration":65878,"Delta":539057083},{"NoteNumber":80,"Velocity":31,"Duration":66965,"SoundDuration":66965,"Delta":539122961},{"NoteNumber":63,"Velocity":31,"Duration":134769,"SoundDuration":134769,"Delta":539122961},{"NoteNumber":79,"Velocity":27,"Duration":67804,"SoundDuration":67804,"Delta":539189927},{"NoteNumber":80,"Velocity":32,"Duration":67808,"SoundDuration":67808,"Delta":539257731},{"NoteNumber":91,"Velocity":59,"Duration":606115,"SoundDuration":606115,"Delta":539257731},{"NoteNumber":67,"Velocity":35,"Duration":134278,"SoundDuration":134278,"Delta":539257731},{"NoteNumber":79,"Velocity":28,"Duration":66470,"SoundDuration":66470,"Delta":539325539},{"NoteNumber":80,"Velocity":31,"Duration":66363,"SoundDuration":66363,"Delta":539392010},{"NoteNumber":63,"Velocity":31,"Duration":134393,"SoundDuration":134393,"Delta":539392010},{"NoteNumber":79,"Velocity":27,"Duration":68030,"SoundDuration":68030,"Delta":539458373},{"NoteNumber":80,"Velocity":31,"Duration":68083,"SoundDuration":68083,"Delta":539526404},{"NoteNumber":67,"Velocity":31,"Duration":135541,"SoundDuration":135541,"Delta":539526404},{"NoteNumber":79,"Velocity":27,"Duration":67457,"SoundDuration":67457,"Delta":539594487},{"NoteNumber":80,"Velocity":31,"Duration":67074,"SoundDuration":67074,"Delta":539661945},{"NoteNumber":63,"Velocity":35,"Duration":133986,"SoundDuration":133986,"Delta":539661945},{"NoteNumber":79,"Velocity":27,"Duration":66912,"SoundDuration":66912,"Delta":539729019},{"NoteNumber":80,"Velocity":31,"Duration":67914,"SoundDuration":67914,"Delta":539795932},{"NoteNumber":60,"Velocity":31,"Duration":135322,"SoundDuration":135322,"Delta":539795932},{"NoteNumber":79,"Velocity":27,"Duration":67407,"SoundDuration":67407,"Delta":539863847},{"NoteNumber":87,"Velocity":50,"Duration":202618,"SoundDuration":202618,"Delta":539863847},{"NoteNumber":80,"Velocity":31,"Duration":68030,"SoundDuration":68030,"Delta":539931255},{"NoteNumber":63,"Velocity":31,"Duration":135210,"SoundDuration":135210,"Delta":539931255},{"NoteNumber":79,"Velocity":27,"Duration":67179,"SoundDuration":67179,"Delta":539999285},{"NoteNumber":80,"Velocity":37,"Duration":66470,"SoundDuration":66470,"Delta":540066465},{"NoteNumber":86,"Velocity":57,"Duration":398267,"SoundDuration":398267,"Delta":540066465},{"NoteNumber":65,"Velocity":35,"Duration":132562,"SoundDuration":132562,"Delta":540066465},{"NoteNumber":79,"Velocity":28,"Duration":66092,"SoundDuration":66092,"Delta":540132935},{"NoteNumber":80,"Velocity":34,"Duration":67183,"SoundDuration":67183,"Delta":540199028},{"NoteNumber":62,"Velocity":31,"Duration":133497,"SoundDuration":133497,"Delta":540199028},{"NoteNumber":79,"Velocity":28,"Duration":66313,"SoundDuration":66313,"Delta":540266211},{"NoteNumber":80,"Velocity":34,"Duration":65456,"SoundDuration":65456,"Delta":540332525},{"NoteNumber":65,"Velocity":31,"Duration":132207,"SoundDuration":132207,"Delta":540332525},{"NoteNumber":79,"Velocity":28,"Duration":66750,"SoundDuration":66750,"Delta":540397982},{"NoteNumber":80,"Velocity":31,"Duration":67297,"SoundDuration":67297,"Delta":540464733},{"NoteNumber":79,"Velocity":50,"Duration":58906,"SoundDuration":58906,"Delta":540464733},{"NoteNumber":62,"Velocity":36,"Duration":134264,"SoundDuration":134264,"Delta":540464733},{"NoteNumber":79,"Velocity":27,"Duration":66967,"SoundDuration":66967,"Delta":540532030},{"NoteNumber":80,"Velocity":31,"Duration":67920,"SoundDuration":67920,"Delta":540598997},{"NoteNumber":59,"Velocity":31,"Duration":136234,"SoundDuration":136234,"Delta":540598997},{"NoteNumber":79,"Velocity":27,"Duration":68313,"SoundDuration":68313,"Delta":540666918},{"NoteNumber":80,"Velocity":31,"Duration":67020,"SoundDuration":67020,"Delta":540735231},{"NoteNumber":62,"Velocity":31,"Duration":134258,"SoundDuration":134258,"Delta":540735231},{"NoteNumber":79,"Velocity":27,"Duration":67238,"SoundDuration":67238,"Delta":540802251},{"NoteNumber":80,"Velocity":32,"Duration":67859,"SoundDuration":67859,"Delta":540869490},{"NoteNumber":84,"Velocity":53,"Duration":201924,"SoundDuration":201924,"Delta":540869490},{"NoteNumber":63,"Velocity":35,"Duration":134689,"SoundDuration":134689,"Delta":540869490},{"NoteNumber":79,"Velocity":28,"Duration":66829,"SoundDuration":66829,"Delta":540937350},{"NoteNumber":80,"Velocity":31,"Duration":67234,"SoundDuration":67234,"Delta":541004180},{"NoteNumber":60,"Velocity":31,"Duration":135280,"SoundDuration":135280,"Delta":541004180},{"NoteNumber":79,"Velocity":27,"Duration":68045,"SoundDuration":68045,"Delta":541071415},{"NoteNumber":80,"Velocity":31,"Duration":67174,"SoundDuration":67174,"Delta":541139460},{"NoteNumber":63,"Velocity":31,"Duration":133890,"SoundDuration":133890,"Delta":541139460},{"NoteNumber":79,"Velocity":27,"Duration":66716,"SoundDuration":66716,"Delta":541206635},{"NoteNumber":80,"Velocity":31,"Duration":67810,"SoundDuration":67810,"Delta":541273351},{"NoteNumber":51,"Velocity":35,"Duration":203786,"SoundDuration":203786,"Delta":541273351},{"NoteNumber":58,"Velocity":35,"Duration":135856,"SoundDuration":135856,"Delta":541273351},{"NoteNumber":79,"Velocity":27,"Duration":68046,"SoundDuration":68046,"Delta":541341161},{"NoteNumber":80,"Velocity":31,"Duration":67929,"SoundDuration":67929,"Delta":541409208},{"NoteNumber":61,"Velocity":31,"Duration":136750,"SoundDuration":136750,"Delta":541409208},{"NoteNumber":79,"Velocity":27,"Duration":68820,"SoundDuration":68820,"Delta":541477138},{"NoteNumber":77,"Velocity":31,"Duration":71659,"SoundDuration":71659,"Delta":541545958},{"NoteNumber":58,"Velocity":31,"Duration":147168,"SoundDuration":147168,"Delta":541545958},{"NoteNumber":79,"Velocity":27,"Duration":75509,"SoundDuration":75509,"Delta":541617617},{"NoteNumber":80,"Velocity":36,"Duration":67350,"SoundDuration":67350,"Delta":541693127},{"NoteNumber":44,"Velocity":45,"Duration":133823,"SoundDuration":133823,"Delta":541693127},{"NoteNumber":82,"Velocity":31,"Duration":66472,"SoundDuration":66472,"Delta":541760477},{"NoteNumber":80,"Velocity":33,"Duration":67692,"SoundDuration":67692,"Delta":541826950},{"NoteNumber":51,"Velocity":31,"Duration":135607,"SoundDuration":135607,"Delta":541826950},{"NoteNumber":82,"Velocity":29,"Duration":67914,"SoundDuration":67914,"Delta":541894642},{"NoteNumber":80,"Velocity":32,"Duration":66910,"SoundDuration":66910,"Delta":541962557},{"NoteNumber":56,"Velocity":31,"Duration":133653,"SoundDuration":133653,"Delta":541962557},{"NoteNumber":82,"Velocity":28,"Duration":66743,"SoundDuration":66743,"Delta":542029467},{"NoteNumber":75,"Velocity":31,"Duration":67971,"SoundDuration":67971,"Delta":542096210},{"NoteNumber":87,"Velocity":57,"Duration":403114,"SoundDuration":403114,"Delta":542096210},{"NoteNumber":60,"Velocity":33,"Duration":135829,"SoundDuration":135829,"Delta":542096210},{"NoteNumber":77,"Velocity":27,"Duration":67858,"SoundDuration":67858,"Delta":542164182},{"NoteNumber":75,"Velocity":31,"Duration":66636,"SoundDuration":66636,"Delta":542232040},{"NoteNumber":56,"Velocity":31,"Duration":132514,"SoundDuration":132514,"Delta":542232040},{"NoteNumber":77,"Velocity":27,"Duration":65878,"SoundDuration":65878,"Delta":542298676},{"NoteNumber":75,"Velocity":31,"Duration":66965,"SoundDuration":66965,"Delta":542364555},{"NoteNumber":60,"Velocity":31,"Duration":134769,"SoundDuration":134769,"Delta":542364555},{"NoteNumber":77,"Velocity":27,"Duration":67804,"SoundDuration":67804,"Delta":542431520},{"NoteNumber":75,"Velocity":32,"Duration":67808,"SoundDuration":67808,"Delta":542499325},{"NoteNumber":87,"Velocity":59,"Duration":606115,"SoundDuration":606115,"Delta":542499325},{"NoteNumber":63,"Velocity":35,"Duration":134278,"SoundDuration":134278,"Delta":542499325},{"NoteNumber":77,"Velocity":28,"Duration":66470,"SoundDuration":66470,"Delta":542567133},{"NoteNumber":75,"Velocity":31,"Duration":66363,"SoundDuration":66363,"Delta":542633604},{"NoteNumber":60,"Velocity":31,"Duration":134393,"SoundDuration":134393,"Delta":542633604},{"NoteNumber":77,"Velocity":27,"Duration":68030,"SoundDuration":68030,"Delta":542699967},{"NoteNumber":75,"Velocity":31,"Duration":68083,"SoundDuration":68083,"Delta":542767997},{"NoteNumber":63,"Velocity":31,"Duration":135541,"SoundDuration":135541,"Delta":542767997},{"NoteNumber":77,"Velocity":27,"Duration":67457,"SoundDuration":67457,"Delta":542836081},{"NoteNumber":75,"Velocity":31,"Duration":67074,"SoundDuration":67074,"Delta":542903538},{"NoteNumber":60,"Velocity":35,"Duration":133986,"SoundDuration":133986,"Delta":542903538},{"NoteNumber":77,"Velocity":27,"Duration":66912,"SoundDuration":66912,"Delta":542970613},{"NoteNumber":75,"Velocity":31,"Duration":67914,"SoundDuration":67914,"Delta":543037525},{"NoteNumber":56,"Velocity":31,"Duration":135322,"SoundDuration":135322,"Delta":543037525},{"NoteNumber":77,"Velocity":27,"Duration":67407,"SoundDuration":67407,"Delta":543105440},{"NoteNumber":84,"Velocity":50,"Duration":202618,"SoundDuration":202618,"Delta":543105440},{"NoteNumber":75,"Velocity":31,"Duration":68030,"SoundDuration":68030,"Delta":543172848},{"NoteNumber":60,"Velocity":31,"Duration":135210,"SoundDuration":135210,"Delta":543172848},{"NoteNumber":77,"Velocity":27,"Duration":67179,"SoundDuration":67179,"Delta":543240879},{"NoteNumber":75,"Velocity":32,"Duration":66470,"SoundDuration":66470,"Delta":543308058},{"NoteNumber":82,"Velocity":57,"Duration":398267,"SoundDuration":398267,"Delta":543308058},{"NoteNumber":61,"Velocity":35,"Duration":132562,"SoundDuration":132562,"Delta":543308058},{"NoteNumber":77,"Velocity":28,"Duration":66092,"SoundDuration":66092,"Delta":543374528},{"NoteNumber":75,"Velocity":31,"Duration":67183,"SoundDuration":67183,"Delta":543440621},{"NoteNumber":58,"Velocity":31,"Duration":133497,"SoundDuration":133497,"Delta":543440621},{"NoteNumber":77,"Velocity":27,"Duration":66313,"SoundDuration":66313,"Delta":543507804},{"NoteNumber":75,"Velocity":31,"Duration":65456,"SoundDuration":65456,"Delta":543574118},{"NoteNumber":61,"Velocity":31,"Duration":132207,"SoundDuration":132207,"Delta":543574118},{"NoteNumber":77,"Velocity":27,"Duration":66750,"SoundDuration":66750,"Delta":543639575},{"NoteNumber":75,"Velocity":31,"Duration":67297,"SoundDuration":67297,"Delta":543706326},{"NoteNumber":75,"Velocity":50,"Duration":202185,"SoundDuration":202185,"Delta":543706326},{"NoteNumber":58,"Velocity":36,"Duration":134264,"SoundDuration":134264,"Delta":543706326},{"NoteNumber":77,"Velocity":27,"Duration":66967,"SoundDuration":66967,"Delta":543773623},{"NoteNumber":75,"Velocity":31,"Duration":203254,"SoundDuration":203254,"Delta":543840590},{"NoteNumber":55,"Velocity":31,"Duration":136234,"SoundDuration":136234,"Delta":543840590},{"NoteNumber":77,"Velocity":27,"Duration":68313,"SoundDuration":68313,"Delta":543908511},{"NoteNumber":75,"Velocity":31,"Duration":134258,"SoundDuration":134258,"Delta":543976825},{"NoteNumber":58,"Velocity":31,"Duration":134258,"SoundDuration":134258,"Delta":543976825},{"NoteNumber":77,"Velocity":27,"Duration":67238,"SoundDuration":67238,"Delta":544043845},{"NoteNumber":75,"Velocity":32,"Duration":67289,"SoundDuration":67289,"Delta":544111083},{"NoteNumber":80,"Velocity":53,"Duration":203155,"SoundDuration":203155,"Delta":544111083},{"NoteNumber":60,"Velocity":35,"Duration":134636,"SoundDuration":134636,"Delta":544111083},{"NoteNumber":77,"Velocity":28,"Duration":67346,"SoundDuration":67346,"Delta":544178373},{"NoteNumber":75,"Velocity":32,"Duration":68518,"SoundDuration":68518,"Delta":544245720},{"NoteNumber":56,"Velocity":31,"Duration":136331,"SoundDuration":136331,"Delta":544245720},{"NoteNumber":77,"Velocity":28,"Duration":67812,"SoundDuration":67812,"Delta":544314239},{"NoteNumber":75,"Velocity":34,"Duration":67115,"SoundDuration":67115,"Delta":544382051},{"NoteNumber":60,"Velocity":31,"Duration":135279,"SoundDuration":135279,"Delta":544382051},{"NoteNumber":77,"Velocity":30,"Duration":68163,"SoundDuration":68163,"Delta":544449167},{"NoteNumber":76,"Velocity":35,"Duration":68579,"SoundDuration":68579,"Delta":544517331},{"NoteNumber":48,"Velocity":35,"Duration":202869,"SoundDuration":202869,"Delta":544517331},{"NoteNumber":55,"Velocity":35,"Duration":135870,"SoundDuration":135870,"Delta":544517331},{"NoteNumber":77,"Velocity":31,"Duration":67291,"SoundDuration":67291,"Delta":544585910},{"NoteNumber":76,"Velocity":36,"Duration":66998,"SoundDuration":66998,"Delta":544653201},{"NoteNumber":58,"Velocity":31,"Duration":134809,"SoundDuration":134809,"Delta":544653201},{"NoteNumber":77,"Velocity":32,"Duration":50857,"SoundDuration":50857,"Delta":544720200},{"NoteNumber":76,"Velocity":38,"Duration":50857,"SoundDuration":50857,"Delta":544771058},{"NoteNumber":55,"Velocity":31,"Duration":135620,"SoundDuration":135620,"Delta":544788011},{"NoteNumber":77,"Velocity":34,"Duration":50857,"SoundDuration":50857,"Delta":544821916},{"NoteNumber":76,"Velocity":34,"Duration":50857,"SoundDuration":50857,"Delta":544868535},{"NoteNumber":77,"Velocity":36,"Duration":67350,"SoundDuration":67350,"Delta":544923631},{"NoteNumber":41,"Velocity":45,"Duration":133823,"SoundDuration":133823,"Delta":544923631},{"NoteNumber":79,"Velocity":31,"Duration":66472,"SoundDuration":66472,"Delta":544990982},{"NoteNumber":77,"Velocity":33,"Duration":67692,"SoundDuration":67692,"Delta":545057454},{"NoteNumber":48,"Velocity":31,"Duration":135607,"SoundDuration":135607,"Delta":545057454},{"NoteNumber":79,"Velocity":29,"Duration":67914,"SoundDuration":67914,"Delta":545125147},{"NoteNumber":77,"Velocity":32,"Duration":66910,"SoundDuration":66910,"Delta":545193062},{"NoteNumber":53,"Velocity":31,"Duration":133653,"SoundDuration":133653,"Delta":545193062},{"NoteNumber":79,"Velocity":28,"Duration":66743,"SoundDuration":66743,"Delta":545259972},{"NoteNumber":73,"Velocity":31,"Duration":67971,"SoundDuration":67971,"Delta":545326715},{"NoteNumber":84,"Velocity":57,"Duration":403114,"SoundDuration":403114,"Delta":545326715},{"NoteNumber":56,"Velocity":33,"Duration":135829,"SoundDuration":135829,"Delta":545326715},{"NoteNumber":72,"Velocity":27,"Duration":67858,"SoundDuration":67858,"Delta":545394686},{"NoteNumber":73,"Velocity":31,"Duration":66636,"SoundDuration":66636,"Delta":545462545},{"NoteNumber":53,"Velocity":31,"Duration":132514,"SoundDuration":132514,"Delta":545462545},{"NoteNumber":72,"Velocity":27,"Duration":65878,"SoundDuration":65878,"Delta":545529181},{"NoteNumber":73,"Velocity":31,"Duration":66965,"SoundDuration":66965,"Delta":545595059},{"NoteNumber":56,"Velocity":31,"Duration":134769,"SoundDuration":134769,"Delta":545595059},{"NoteNumber":72,"Velocity":27,"Duration":67804,"SoundDuration":67804,"Delta":545662025},{"NoteNumber":73,"Velocity":32,"Duration":67808,"SoundDuration":67808,"Delta":545729829},{"NoteNumber":84,"Velocity":59,"Duration":606115,"SoundDuration":606115,"Delta":545729829},{"NoteNumber":60,"Velocity":35,"Duration":134278,"SoundDuration":134278,"Delta":545729829},{"NoteNumber":72,"Velocity":28,"Duration":66470,"SoundDuration":66470,"Delta":545797637},{"NoteNumber":73,"Velocity":31,"Duration":66363,"SoundDuration":66363,"Delta":545864108},{"NoteNumber":56,"Velocity":31,"Duration":134393,"SoundDuration":134393,"Delta":545864108},{"NoteNumber":72,"Velocity":27,"Duration":68030,"SoundDuration":68030,"Delta":545930471},{"NoteNumber":73,"Velocity":31,"Duration":68083,"SoundDuration":68083,"Delta":545998501},{"NoteNumber":60,"Velocity":31,"Duration":135541,"SoundDuration":135541,"Delta":545998501},{"NoteNumber":72,"Velocity":27,"Duration":67457,"SoundDuration":67457,"Delta":546066585},{"NoteNumber":73,"Velocity":31,"Duration":67074,"SoundDuration":67074,"Delta":546134043},{"NoteNumber":56,"Velocity":35,"Duration":133986,"SoundDuration":133986,"Delta":546134043},{"NoteNumber":72,"Velocity":27,"Duration":66912,"SoundDuration":66912,"Delta":546201117},{"NoteNumber":73,"Velocity":31,"Duration":67914,"SoundDuration":67914,"Delta":546268030},{"NoteNumber":53,"Velocity":31,"Duration":135322,"SoundDuration":135322,"Delta":546268030},{"NoteNumber":72,"Velocity":27,"Duration":67407,"SoundDuration":67407,"Delta":546335945},{"NoteNumber":80,"Velocity":50,"Duration":202618,"SoundDuration":202618,"Delta":546335945},{"NoteNumber":73,"Velocity":31,"Duration":68030,"SoundDuration":68030,"Delta":546403353},{"NoteNumber":56,"Velocity":31,"Duration":135210,"SoundDuration":135210,"Delta":546403353},{"NoteNumber":72,"Velocity":27,"Duration":67179,"SoundDuration":67179,"Delta":546471383},{"NoteNumber":73,"Velocity":32,"Duration":66470,"SoundDuration":66470,"Delta":546538563},{"NoteNumber":79,"Velocity":57,"Duration":398267,"SoundDuration":398267,"Delta":546538563},{"NoteNumber":58,"Velocity":35,"Duration":132562,"SoundDuration":132562,"Delta":546538563},{"NoteNumber":72,"Velocity":28,"Duration":66092,"SoundDuration":66092,"Delta":546605033},{"NoteNumber":73,"Velocity":31,"Duration":67183,"SoundDuration":67183,"Delta":546671126},{"NoteNumber":55,"Velocity":31,"Duration":133497,"SoundDuration":133497,"Delta":546671126},{"NoteNumber":72,"Velocity":27,"Duration":66313,"SoundDuration":66313,"Delta":546738309},{"NoteNumber":73,"Velocity":31,"Duration":65456,"SoundDuration":65456,"Delta":546804623},{"NoteNumber":58,"Velocity":31,"Duration":132207,"SoundDuration":132207,"Delta":546804623},{"NoteNumber":72,"Velocity":27,"Duration":66750,"SoundDuration":66750,"Delta":546870080},{"NoteNumber":73,"Velocity":31,"Duration":67297,"SoundDuration":67297,"Delta":546936830},{"NoteNumber":72,"Velocity":50,"Duration":58906,"SoundDuration":58906,"Delta":546936830},{"NoteNumber":55,"Velocity":36,"Duration":134264,"SoundDuration":134264,"Delta":546936830},{"NoteNumber":72,"Velocity":27,"Duration":66967,"SoundDuration":66967,"Delta":547004128},{"NoteNumber":73,"Velocity":31,"Duration":67920,"SoundDuration":67920,"Delta":547071095},{"NoteNumber":52,"Velocity":31,"Duration":136234,"SoundDuration":136234,"Delta":547071095},{"NoteNumber":72,"Velocity":27,"Duration":68313,"SoundDuration":68313,"Delta":547139016},{"NoteNumber":73,"Velocity":31,"Duration":67020,"SoundDuration":67020,"Delta":547207329},{"NoteNumber":55,"Velocity":31,"Duration":134258,"SoundDuration":134258,"Delta":547207329},{"NoteNumber":72,"Velocity":27,"Duration":67238,"SoundDuration":67238,"Delta":547274349},{"NoteNumber":73,"Velocity":32,"Duration":67289,"SoundDuration":67289,"Delta":547341588},{"NoteNumber":77,"Velocity":57,"Duration":609116,"SoundDuration":609116,"Delta":547341588},{"NoteNumber":56,"Velocity":35,"Duration":134636,"SoundDuration":134636,"Delta":547341588},{"NoteNumber":72,"Velocity":28,"Duration":67346,"SoundDuration":67346,"Delta":547408877},{"NoteNumber":73,"Velocity":32,"Duration":68518,"SoundDuration":68518,"Delta":547476224},{"NoteNumber":53,"Velocity":31,"Duration":136331,"SoundDuration":136331,"Delta":547476224},{"NoteNumber":72,"Velocity":28,"Duration":67812,"SoundDuration":67812,"Delta":547544743},{"NoteNumber":73,"Velocity":34,"Duration":67115,"SoundDuration":67115,"Delta":547612556},{"NoteNumber":56,"Velocity":31,"Duration":135279,"SoundDuration":135279,"Delta":547612556},{"NoteNumber":72,"Velocity":30,"Duration":68163,"SoundDuration":68163,"Delta":547679671},{"NoteNumber":73,"Velocity":35,"Duration":68579,"SoundDuration":68579,"Delta":547747835},{"NoteNumber":53,"Velocity":35,"Duration":135870,"SoundDuration":135870,"Delta":547747835},{"NoteNumber":72,"Velocity":29,"Duration":67291,"SoundDuration":67291,"Delta":547816414},{"NoteNumber":73,"Velocity":34,"Duration":66998,"SoundDuration":66998,"Delta":547883706},{"NoteNumber":48,"Velocity":31,"Duration":134809,"SoundDuration":134809,"Delta":547883706},{"NoteNumber":72,"Velocity":29,"Duration":67810,"SoundDuration":67810,"Delta":547950705},{"NoteNumber":80,"Velocity":53,"Duration":203385,"SoundDuration":203385,"Delta":547950705},{"NoteNumber":73,"Velocity":34,"Duration":67810,"SoundDuration":67810,"Delta":548018515},{"NoteNumber":53,"Velocity":31,"Duration":135574,"SoundDuration":135574,"Delta":548018515},{"NoteNumber":72,"Velocity":28,"Duration":67764,"SoundDuration":67764,"Delta":548086325},{"NoteNumber":73,"Velocity":32,"Duration":66672,"SoundDuration":66672,"Delta":548154090},{"NoteNumber":79,"Velocity":57,"Duration":398469,"SoundDuration":398469,"Delta":548154090},{"NoteNumber":58,"Velocity":35,"Duration":132765,"SoundDuration":132765,"Delta":548154090},{"NoteNumber":72,"Velocity":28,"Duration":66092,"SoundDuration":66092,"Delta":548220762},{"NoteNumber":73,"Velocity":31,"Duration":67183,"SoundDuration":67183,"Delta":548286855},{"NoteNumber":55,"Velocity":31,"Duration":133497,"SoundDuration":133497,"Delta":548286855},{"NoteNumber":72,"Velocity":27,"Duration":66313,"SoundDuration":66313,"Delta":548354038},{"NoteNumber":73,"Velocity":31,"Duration":65456,"SoundDuration":65456,"Delta":548420352},{"NoteNumber":58,"Velocity":31,"Duration":132207,"SoundDuration":132207,"Delta":548420352},{"NoteNumber":72,"Velocity":27,"Duration":66750,"SoundDuration":66750,"Delta":548485809},{"NoteNumber":73,"Velocity":31,"Duration":67297,"SoundDuration":67297,"Delta":548552560},{"NoteNumber":72,"Velocity":50,"Duration":58906,"SoundDuration":58906,"Delta":548552560},{"NoteNumber":52,"Velocity":36,"Duration":134264,"SoundDuration":134264,"Delta":548552560},{"NoteNumber":72,"Velocity":27,"Duration":66967,"SoundDuration":66967,"Delta":548619857},{"NoteNumber":73,"Velocity":31,"Duration":67920,"SoundDuration":67920,"Delta":548686824},{"NoteNumber":55,"Velocity":31,"Duration":136234,"SoundDuration":136234,"Delta":548686824},{"NoteNumber":72,"Velocity":27,"Duration":68313,"SoundDuration":68313,"Delta":548754745},{"NoteNumber":73,"Velocity":31,"Duration":67020,"SoundDuration":67020,"Delta":548823059},{"NoteNumber":52,"Velocity":31,"Duration":134258,"SoundDuration":134258,"Delta":548823059},{"NoteNumber":72,"Velocity":27,"Duration":67238,"SoundDuration":67238,"Delta":548890079},{"NoteNumber":73,"Velocity":32,"Duration":67289,"SoundDuration":67289,"Delta":548957317},{"NoteNumber":77,"Velocity":57,"Duration":406247,"SoundDuration":406247,"Delta":548957317},{"NoteNumber":53,"Velocity":35,"Duration":134636,"SoundDuration":134636,"Delta":548957317},{"NoteNumber":72,"Velocity":28,"Duration":67346,"SoundDuration":67346,"Delta":549024607},{"NoteNumber":73,"Velocity":32,"Duration":68518,"SoundDuration":68518,"Delta":549091954},{"NoteNumber":56,"Velocity":31,"Duration":136331,"SoundDuration":136331,"Delta":549091954},{"NoteNumber":72,"Velocity":28,"Duration":67812,"SoundDuration":67812,"Delta":549160473},{"NoteNumber":73,"Velocity":34,"Duration":67115,"SoundDuration":67115,"Delta":549228285},{"NoteNumber":53,"Velocity":31,"Duration":135279,"SoundDuration":135279,"Delta":549228285},{"NoteNumber":72,"Velocity":30,"Duration":68163,"SoundDuration":68163,"Delta":549295401},{"NoteNumber":73,"Velocity":34,"Duration":68579,"SoundDuration":68579,"Delta":549363565},{"NoteNumber":75,"Velocity":53,"Duration":406300,"SoundDuration":406300,"Delta":549363565},{"NoteNumber":55,"Velocity":35,"Duration":135870,"SoundDuration":135870,"Delta":549363565},{"NoteNumber":72,"Velocity":29,"Duration":67291,"SoundDuration":67291,"Delta":549432144},{"NoteNumber":73,"Velocity":34,"Duration":66998,"SoundDuration":66998,"Delta":549499435},{"NoteNumber":60,"Velocity":31,"Duration":134809,"SoundDuration":134809,"Delta":549499435},{"NoteNumber":72,"Velocity":28,"Duration":67810,"SoundDuration":67810,"Delta":549566434},{"NoteNumber":73,"Velocity":34,"Duration":67810,"SoundDuration":67810,"Delta":549634244},{"NoteNumber":55,"Velocity":31,"Duration":135620,"SoundDuration":135620,"Delta":549634244},{"NoteNumber":72,"Velocity":29,"Duration":67810,"SoundDuration":67810,"Delta":549702055},{"NoteNumber":74,"Velocity":32,"Duration":67810,"SoundDuration":67810,"Delta":549769865},{"NoteNumber":65,"Velocity":40,"Duration":203431,"SoundDuration":203431,"Delta":549769865},{"NoteNumber":56,"Velocity":40,"Duration":203431,"SoundDuration":203431,"Delta":549769865},{"NoteNumber":72,"Velocity":28,"Duration":67810,"SoundDuration":67810,"Delta":549837675},{"NoteNumber":74,"Velocity":32,"Duration":67810,"SoundDuration":67810,"Delta":549905486},{"NoteNumber":72,"Velocity":28,"Duration":67810,"SoundDuration":67810,"Delta":549973296},{"NoteNumber":74,"Velocity":34,"Duration":67810,"SoundDuration":67810,"Delta":550041106},{"NoteNumber":72,"Velocity":30,"Duration":67810,"SoundDuration":67810,"Delta":550108917},{"NoteNumber":74,"Velocity":33,"Duration":67810,"SoundDuration":67810,"Delta":550176727},{"NoteNumber":72,"Velocity":28,"Duration":67810,"SoundDuration":67810,"Delta":550244537},{"NoteNumber":74,"Velocity":35,"Duration":67810,"SoundDuration":67810,"Delta":550312348},{"NoteNumber":72,"Velocity":28,"Duration":67810,"SoundDuration":67810,"Delta":550380158},{"NoteNumber":56,"Velocity":40,"Duration":203313,"SoundDuration":203313,"Delta":550380158},{"NoteNumber":65,"Velocity":40,"Duration":203313,"SoundDuration":203313,"Delta":550380158},{"NoteNumber":74,"Velocity":34,"Duration":67810,"SoundDuration":67810,"Delta":550447968},{"NoteNumber":72,"Velocity":30,"Duration":67692,"SoundDuration":67692,"Delta":550515779},{"NoteNumber":74,"Velocity":33,"Duration":67339,"SoundDuration":67339,"Delta":550583472},{"NoteNumber":56,"Velocity":44,"Duration":201737,"SoundDuration":201737,"Delta":550583472},{"NoteNumber":65,"Velocity":44,"Duration":201737,"SoundDuration":201737,"Delta":550583472},{"NoteNumber":72,"Velocity":29,"Duration":67283,"SoundDuration":67283,"Delta":550650812},{"NoteNumber":74,"Velocity":33,"Duration":67114,"SoundDuration":67114,"Delta":550718095},{"NoteNumber":72,"Velocity":29,"Duration":67055,"SoundDuration":67055,"Delta":550785209},{"NoteNumber":74,"Velocity":36,"Duration":66880,"SoundDuration":66880,"Delta":550852265},{"NoteNumber":72,"Velocity":32,"Duration":66821,"SoundDuration":66821,"Delta":550919146},{"NoteNumber":74,"Velocity":37,"Duration":66644,"SoundDuration":66644,"Delta":550985967},{"NoteNumber":72,"Velocity":33,"Duration":66586,"SoundDuration":66586,"Delta":551052612},{"NoteNumber":74,"Velocity":36,"Duration":66414,"SoundDuration":66414,"Delta":551119199},{"NoteNumber":72,"Velocity":31,"Duration":66359,"SoundDuration":66359,"Delta":551185613},{"NoteNumber":56,"Velocity":41,"Duration":198689,"SoundDuration":198689,"Delta":551185613},{"NoteNumber":65,"Velocity":41,"Duration":198689,"SoundDuration":198689,"Delta":551185613},{"NoteNumber":74,"Velocity":37,"Duration":66194,"SoundDuration":66194,"Delta":551251972},{"NoteNumber":72,"Velocity":31,"Duration":66135,"SoundDuration":66135,"Delta":551318167},{"NoteNumber":74,"Velocity":35,"Duration":65623,"SoundDuration":65623,"Delta":551384303},{"NoteNumber":56,"Velocity":49,"Duration":196828,"SoundDuration":196828,"Delta":551384303},{"NoteNumber":66,"Velocity":49,"Duration":196828,"SoundDuration":196828,"Delta":551384303},{"NoteNumber":72,"Velocity":30,"Duration":64959,"SoundDuration":64959,"Delta":551449926},{"NoteNumber":74,"Velocity":35,"Duration":66245,"SoundDuration":66245,"Delta":551514886},{"NoteNumber":72,"Velocity":31,"Duration":66131,"SoundDuration":66131,"Delta":551581131},{"NoteNumber":74,"Velocity":37,"Duration":65234,"SoundDuration":65234,"Delta":551647262},{"NoteNumber":72,"Velocity":33,"Duration":65068,"SoundDuration":65068,"Delta":551712497},{"NoteNumber":74,"Velocity":39,"Duration":66415,"SoundDuration":66415,"Delta":551777566},{"NoteNumber":72,"Velocity":34,"Duration":65406,"SoundDuration":65406,"Delta":551843981},{"NoteNumber":74,"Velocity":39,"Duration":64684,"SoundDuration":64684,"Delta":551909387},{"NoteNumber":72,"Velocity":36,"Duration":65401,"SoundDuration":65401,"Delta":551974072},{"NoteNumber":56,"Velocity":47,"Duration":197151,"SoundDuration":197151,"Delta":551974072},{"NoteNumber":66,"Velocity":47,"Duration":197151,"SoundDuration":197151,"Delta":551974072},{"NoteNumber":74,"Velocity":39,"Duration":65958,"SoundDuration":65958,"Delta":552039473},{"NoteNumber":72,"Velocity":35,"Duration":65791,"SoundDuration":65791,"Delta":552105432},{"NoteNumber":74,"Velocity":36,"Duration":64903,"SoundDuration":64903,"Delta":552171223},{"NoteNumber":56,"Velocity":52,"Duration":195594,"SoundDuration":195594,"Delta":552171223},{"NoteNumber":66,"Velocity":52,"Duration":195594,"SoundDuration":195594,"Delta":552171223},{"NoteNumber":72,"Velocity":32,"Duration":65123,"SoundDuration":65123,"Delta":552236126},{"NoteNumber":74,"Velocity":36,"Duration":65567,"SoundDuration":65567,"Delta":552301250},{"NoteNumber":72,"Velocity":32,"Duration":66474,"SoundDuration":66474,"Delta":552366818},{"NoteNumber":74,"Velocity":39,"Duration":66131,"SoundDuration":66131,"Delta":552433292},{"NoteNumber":72,"Velocity":35,"Duration":65566,"SoundDuration":65566,"Delta":552499423},{"NoteNumber":74,"Velocity":40,"Duration":65014,"SoundDuration":65014,"Delta":552564990},{"NoteNumber":72,"Velocity":36,"Duration":64959,"SoundDuration":64959,"Delta":552630005},{"NoteNumber":74,"Velocity":40,"Duration":65734,"SoundDuration":65734,"Delta":552694964},{"NoteNumber":72,"Velocity":35,"Duration":49586,"SoundDuration":49586,"Delta":552760698},{"NoteNumber":56,"Velocity":48,"Duration":196268,"SoundDuration":196268,"Delta":552760698},{"NoteNumber":66,"Velocity":48,"Duration":196268,"SoundDuration":196268,"Delta":552760698},{"NoteNumber":74,"Velocity":40,"Duration":49133,"SoundDuration":49133,"Delta":552810284},{"NoteNumber":72,"Velocity":34,"Duration":48637,"SoundDuration":48637,"Delta":552859418},{"NoteNumber":74,"Velocity":34,"Duration":48911,"SoundDuration":48911,"Delta":552908055},{"NoteNumber":72,"Velocity":38,"Duration":65850,"SoundDuration":65850,"Delta":552956966},{"NoteNumber":55,"Velocity":56,"Duration":197042,"SoundDuration":197042,"Delta":552956966},{"NoteNumber":67,"Velocity":56,"Duration":197042,"SoundDuration":197042,"Delta":552956966},{"NoteNumber":74,"Velocity":33,"Duration":65455,"SoundDuration":65455,"Delta":553022816},{"NoteNumber":76,"Velocity":39,"Duration":65737,"SoundDuration":65737,"Delta":553088272},{"NoteNumber":74,"Velocity":34,"Duration":64744,"SoundDuration":64744,"Delta":553154009},{"NoteNumber":67,"Velocity":57,"Duration":192779,"SoundDuration":192779,"Delta":553154009},{"NoteNumber":72,"Velocity":57,"Duration":192779,"SoundDuration":192779,"Delta":553154009},{"NoteNumber":76,"Velocity":42,"Duration":63831,"SoundDuration":63831,"Delta":553218754},{"NoteNumber":74,"Velocity":37,"Duration":64203,"SoundDuration":64203,"Delta":553282585},{"NoteNumber":76,"Velocity":44,"Duration":65291,"SoundDuration":65291,"Delta":553346788},{"NoteNumber":67,"Velocity":59,"Duration":196319,"SoundDuration":196319,"Delta":553346788},{"NoteNumber":72,"Velocity":59,"Duration":196319,"SoundDuration":196319,"Delta":553346788},{"NoteNumber":74,"Velocity":39,"Duration":65903,"SoundDuration":65903,"Delta":553412080},{"NoteNumber":76,"Velocity":43,"Duration":65124,"SoundDuration":65124,"Delta":553477983},{"NoteNumber":74,"Velocity":37,"Duration":64359,"SoundDuration":64359,"Delta":553543108},{"NoteNumber":67,"Velocity":60,"Duration":194284,"SoundDuration":194284,"Delta":553543108},{"NoteNumber":72,"Velocity":60,"Duration":194284,"SoundDuration":194284,"Delta":553543108},{"NoteNumber":76,"Velocity":45,"Duration":64523,"SoundDuration":64523,"Delta":553607468},{"NoteNumber":74,"Velocity":40,"Duration":65401,"SoundDuration":65401,"Delta":553671991},{"NoteNumber":76,"Velocity":42,"Duration":65680,"SoundDuration":65680,"Delta":553737392},{"NoteNumber":67,"Velocity":62,"Duration":194250,"SoundDuration":194250,"Delta":553737392},{"NoteNumber":72,"Velocity":62,"Duration":194250,"SoundDuration":194250,"Delta":553737392},{"NoteNumber":74,"Velocity":37,"Duration":64687,"SoundDuration":64687,"Delta":553803073},{"NoteNumber":76,"Velocity":42,"Duration":63882,"SoundDuration":63882,"Delta":553867760},{"NoteNumber":74,"Velocity":37,"Duration":63621,"SoundDuration":63621,"Delta":553931643},{"NoteNumber":67,"Velocity":63,"Duration":193766,"SoundDuration":193766,"Delta":553931643},{"NoteNumber":72,"Velocity":63,"Duration":193766,"SoundDuration":193766,"Delta":553931643},{"NoteNumber":76,"Velocity":46,"Duration":64686,"SoundDuration":64686,"Delta":553995264},{"NoteNumber":74,"Velocity":41,"Duration":65458,"SoundDuration":65458,"Delta":554059951},{"NoteNumber":76,"Velocity":48,"Duration":65512,"SoundDuration":65512,"Delta":554125409},{"NoteNumber":67,"Velocity":64,"Duration":194617,"SoundDuration":194617,"Delta":554125409},{"NoteNumber":72,"Velocity":64,"Duration":194617,"SoundDuration":194617,"Delta":554125409},{"NoteNumber":74,"Velocity":43,"Duration":64850,"SoundDuration":64850,"Delta":554190921},{"NoteNumber":76,"Velocity":49,"Duration":64255,"SoundDuration":64255,"Delta":554255771},{"NoteNumber":74,"Velocity":40,"Duration":64261,"SoundDuration":64261,"Delta":554320026},{"NoteNumber":67,"Velocity":66,"Duration":198489,"SoundDuration":198489,"Delta":554320026},{"NoteNumber":72,"Velocity":66,"Duration":198489,"SoundDuration":198489,"Delta":554320026},{"NoteNumber":76,"Velocity":49,"Duration":67114,"SoundDuration":67114,"Delta":554384288},{"NoteNumber":74,"Velocity":42,"Duration":67114,"SoundDuration":67114,"Delta":554451402},{"NoteNumber":76,"Velocity":46,"Duration":64095,"SoundDuration":64095,"Delta":554518516},{"NoteNumber":67,"Velocity":68,"Duration":1553330,"SoundDuration":1553330,"Delta":554518516},{"NoteNumber":72,"Velocity":46,"Duration":64095,"SoundDuration":64095,"Delta":554518516},{"NoteNumber":74,"Velocity":40,"Duration":64042,"SoundDuration":64042,"Delta":554582611},{"NoteNumber":71,"Velocity":40,"Duration":64042,"SoundDuration":64042,"Delta":554582611},{"NoteNumber":76,"Velocity":47,"Duration":64905,"SoundDuration":64905,"Delta":554646654},{"NoteNumber":72,"Velocity":47,"Duration":64905,"SoundDuration":64905,"Delta":554646654},{"NoteNumber":74,"Velocity":41,"Duration":64307,"SoundDuration":64307,"Delta":554711559},{"NoteNumber":79,"Velocity":63,"Duration":192330,"SoundDuration":192330,"Delta":554711559},{"NoteNumber":71,"Velocity":41,"Duration":64307,"SoundDuration":64307,"Delta":554711559},{"NoteNumber":76,"Velocity":49,"Duration":64206,"SoundDuration":64206,"Delta":554775866},{"NoteNumber":72,"Velocity":50,"Duration":64206,"SoundDuration":64206,"Delta":554775866},{"NoteNumber":74,"Velocity":45,"Duration":65453,"SoundDuration":65453,"Delta":554840073},{"NoteNumber":71,"Velocity":45,"Duration":65453,"SoundDuration":65453,"Delta":554840073},{"NoteNumber":76,"Velocity":52,"Duration":65015,"SoundDuration":65015,"Delta":554905527},{"NoteNumber":79,"Velocity":64,"Duration":192013,"SoundDuration":192013,"Delta":554905527},{"NoteNumber":72,"Velocity":52,"Duration":65015,"SoundDuration":65015,"Delta":554905527},{"NoteNumber":74,"Velocity":47,"Duration":64040,"SoundDuration":64040,"Delta":554970543},{"NoteNumber":71,"Velocity":44,"Duration":64040,"SoundDuration":64040,"Delta":554970543},{"NoteNumber":76,"Velocity":53,"Duration":64578,"SoundDuration":64578,"Delta":555034583},{"NoteNumber":72,"Velocity":52,"Duration":64578,"SoundDuration":64578,"Delta":555034583},{"NoteNumber":74,"Velocity":43,"Duration":64960,"SoundDuration":64960,"Delta":555099161},{"NoteNumber":79,"Velocity":66,"Duration":193037,"SoundDuration":193037,"Delta":555099161},{"NoteNumber":71,"Velocity":43,"Duration":64960,"SoundDuration":64960,"Delta":555099161},{"NoteNumber":76,"Velocity":52,"Duration":64632,"SoundDuration":64632,"Delta":555164122},{"NoteNumber":72,"Velocity":54,"Duration":64632,"SoundDuration":64632,"Delta":555164122},{"NoteNumber":74,"Velocity":53,"Duration":65070,"SoundDuration":65070,"Delta":555228755},{"NoteNumber":71,"Velocity":45,"Duration":65070,"SoundDuration":65070,"Delta":555228755},{"NoteNumber":76,"Velocity":50,"Duration":64578,"SoundDuration":64578,"Delta":555293825},{"NoteNumber":79,"Velocity":68,"Duration":191368,"SoundDuration":191368,"Delta":555293825},{"NoteNumber":72,"Velocity":50,"Duration":64578,"SoundDuration":64578,"Delta":555293825},{"NoteNumber":74,"Velocity":44,"Duration":64197,"SoundDuration":64197,"Delta":555358404},{"NoteNumber":71,"Velocity":44,"Duration":64197,"SoundDuration":64197,"Delta":555358404},{"NoteNumber":76,"Velocity":50,"Duration":64197,"SoundDuration":64197,"Delta":555422601},{"NoteNumber":72,"Velocity":50,"Duration":64197,"SoundDuration":64197,"Delta":555422601},{"NoteNumber":74,"Velocity":44,"Duration":64578,"SoundDuration":64578,"Delta":555486798},{"NoteNumber":79,"Velocity":69,"Duration":194809,"SoundDuration":194809,"Delta":555486798},{"NoteNumber":71,"Velocity":44,"Duration":64578,"SoundDuration":64578,"Delta":555486798},{"NoteNumber":76,"Velocity":54,"Duration":65908,"SoundDuration":65908,"Delta":555551377},{"NoteNumber":72,"Velocity":54,"Duration":65908,"SoundDuration":65908,"Delta":555551377},{"NoteNumber":74,"Velocity":48,"Duration":65966,"SoundDuration":65966,"Delta":555617285},{"NoteNumber":71,"Velocity":48,"Duration":65966,"SoundDuration":65966,"Delta":555617285},{"NoteNumber":76,"Velocity":58,"Duration":64959,"SoundDuration":64959,"Delta":555683251},{"NoteNumber":79,"Velocity":71,"Duration":191379,"SoundDuration":191379,"Delta":555683251},{"NoteNumber":72,"Velocity":55,"Duration":64959,"SoundDuration":64959,"Delta":555683251},{"NoteNumber":74,"Velocity":47,"Duration":64149,"SoundDuration":64149,"Delta":555748210},{"NoteNumber":71,"Velocity":44,"Duration":64149,"SoundDuration":64149,"Delta":555748210},{"NoteNumber":76,"Velocity":56,"Duration":63886,"SoundDuration":63886,"Delta":555812360},{"NoteNumber":72,"Velocity":54,"Duration":63886,"SoundDuration":63886,"Delta":555812360},{"NoteNumber":74,"Velocity":48,"Duration":65458,"SoundDuration":65458,"Delta":555876246},{"NoteNumber":79,"Velocity":72,"Duration":195600,"SoundDuration":195600,"Delta":555876246},{"NoteNumber":71,"Velocity":48,"Duration":65458,"SoundDuration":65458,"Delta":555876246},{"NoteNumber":76,"Velocity":58,"Duration":65291,"SoundDuration":65291,"Delta":555941705},{"NoteNumber":72,"Velocity":56,"Duration":65291,"SoundDuration":65291,"Delta":555941705},{"NoteNumber":74,"Velocity":48,"Duration":64850,"SoundDuration":64850,"Delta":556006996},{"NoteNumber":71,"Velocity":50,"Duration":64850,"SoundDuration":64850,"Delta":556006996},{"NoteNumber":72,"Velocity":97,"Duration":234888,"SoundDuration":234888,"Delta":556071847},{"NoteNumber":76,"Velocity":97,"Duration":234888,"SoundDuration":234888,"Delta":556071847},{"NoteNumber":36,"Velocity":85,"Duration":234888,"SoundDuration":234888,"Delta":556071847},{"NoteNumber":79,"Velocity":75,"Duration":212434,"SoundDuration":212434,"Delta":556306736},{"NoteNumber":91,"Velocity":75,"Duration":106217,"SoundDuration":106217,"Delta":556306736},{"NoteNumber":48,"Velocity":66,"Duration":106217,"SoundDuration":106217,"Delta":556306736},{"NoteNumber":52,"Velocity":66,"Duration":106217,"SoundDuration":106217,"Delta":556306736},{"NoteNumber":55,"Velocity":66,"Duration":106217,"SoundDuration":106217,"Delta":556306736},{"NoteNumber":60,"Velocity":78,"Duration":106217,"SoundDuration":106217,"Delta":556306736},{"NoteNumber":79,"Velocity":75,"Duration":604771,"SoundDuration":604771,"Delta":556519170},{"NoteNumber":91,"Velocity":79,"Duration":299900,"SoundDuration":299900,"Delta":556519170},{"NoteNumber":48,"Velocity":66,"Duration":1217576,"SoundDuration":1217576,"Delta":556519170},{"NoteNumber":52,"Velocity":66,"Duration":399866,"SoundDuration":399866,"Delta":556519170},{"NoteNumber":55,"Velocity":66,"Duration":399866,"SoundDuration":399866,"Delta":556519170},{"NoteNumber":60,"Velocity":78,"Duration":399866,"SoundDuration":399866,"Delta":556519170},{"NoteNumber":88,"Velocity":75,"Duration":99966,"SoundDuration":99966,"Delta":556819070},{"NoteNumber":86,"Velocity":81,"Duration":204904,"SoundDuration":204904,"Delta":556919037},{"NoteNumber":53,"Velocity":69,"Duration":403487,"SoundDuration":403487,"Delta":556919037},{"NoteNumber":55,"Velocity":69,"Duration":403487,"SoundDuration":403487,"Delta":556919037},{"NoteNumber":59,"Velocity":82,"Duration":403487,"SoundDuration":403487,"Delta":556919037},{"NoteNumber":79,"Velocity":75,"Duration":612805,"SoundDuration":612805,"Delta":557123941},{"NoteNumber":84,"Velocity":75,"Duration":207111,"SoundDuration":207111,"Delta":557322525},{"NoteNumber":52,"Velocity":65,"Duration":414221,"SoundDuration":414221,"Delta":557322525},{"NoteNumber":55,"Velocity":65,"Duration":414221,"SoundDuration":414221,"Delta":557322525},{"NoteNumber":60,"Velocity":77,"Duration":414221,"SoundDuration":414221,"Delta":557322525},{"NoteNumber":88,"Velocity":73,"Duration":207110,"SoundDuration":207110,"Delta":557529636},{"NoteNumber":36,"Velocity":48,"Duration":232072,"SoundDuration":232072,"Delta":557736747},{"NoteNumber":67,"Velocity":50,"Duration":210113,"SoundDuration":210113,"Delta":557968819},{"NoteNumber":79,"Velocity":50,"Duration":105056,"SoundDuration":105056,"Delta":557968819},{"NoteNumber":48,"Velocity":37,"Duration":105056,"SoundDuration":105056,"Delta":557968819},{"NoteNumber":52,"Velocity":37,"Duration":105056,"SoundDuration":105056,"Delta":557968819},{"NoteNumber":55,"Velocity":37,"Duration":105056,"SoundDuration":105056,"Delta":557968819},{"NoteNumber":60,"Velocity":43,"Duration":105056,"SoundDuration":105056,"Delta":557968819},{"NoteNumber":67,"Velocity":50,"Duration":606978,"SoundDuration":606978,"Delta":558178933},{"NoteNumber":79,"Velocity":53,"Duration":299900,"SoundDuration":299900,"Delta":558178933},{"NoteNumber":48,"Velocity":37,"Duration":1218961,"SoundDuration":1218961,"Delta":558178933},{"NoteNumber":52,"Velocity":37,"Duration":399866,"SoundDuration":399866,"Delta":558178933},{"NoteNumber":55,"Velocity":37,"Duration":399866,"SoundDuration":399866,"Delta":558178933},{"NoteNumber":60,"Velocity":43,"Duration":399866,"SoundDuration":399866,"Delta":558178933},{"NoteNumber":76,"Velocity":50,"Duration":99966,"SoundDuration":99966,"Delta":558478833},{"NoteNumber":74,"Velocity":54,"Duration":207111,"SoundDuration":207111,"Delta":558578800},{"NoteNumber":53,"Velocity":38,"Duration":406354,"SoundDuration":406354,"Delta":558578800},{"NoteNumber":55,"Velocity":38,"Duration":406354,"SoundDuration":406354,"Delta":558578800},{"NoteNumber":59,"Velocity":46,"Duration":406354,"SoundDuration":406354,"Delta":558578800},{"NoteNumber":67,"Velocity":50,"Duration":611983,"SoundDuration":611983,"Delta":558785911},{"NoteNumber":72,"Velocity":50,"Duration":206369,"SoundDuration":206369,"Delta":558985154},{"NoteNumber":52,"Velocity":37,"Duration":412739,"SoundDuration":412739,"Delta":558985154},{"NoteNumber":55,"Velocity":37,"Duration":412739,"SoundDuration":412739,"Delta":558985154},{"NoteNumber":60,"Velocity":43,"Duration":412739,"SoundDuration":412739,"Delta":558985154},{"NoteNumber":76,"Velocity":49,"Duration":206369,"SoundDuration":206369,"Delta":559191524},{"NoteNumber":36,"Velocity":85,"Duration":198347,"SoundDuration":198347,"Delta":559397894},{"NoteNumber":91,"Velocity":75,"Duration":95383,"SoundDuration":95383,"Delta":559596241},{"NoteNumber":48,"Velocity":66,"Duration":95383,"SoundDuration":95383,"Delta":559596241},{"NoteNumber":52,"Velocity":66,"Duration":95383,"SoundDuration":95383,"Delta":559596241},{"NoteNumber":55,"Velocity":66,"Duration":95383,"SoundDuration":95383,"Delta":559596241},{"NoteNumber":60,"Velocity":78,"Duration":95383,"SoundDuration":95383,"Delta":559596241},{"NoteNumber":90,"Velocity":69,"Duration":95383,"SoundDuration":95383,"Delta":559691624},{"NoteNumber":91,"Velocity":75,"Duration":95383,"SoundDuration":95383,"Delta":559787008},{"NoteNumber":48,"Velocity":66,"Duration":1171827,"SoundDuration":1171827,"Delta":559787008},{"NoteNumber":52,"Velocity":66,"Duration":384344,"SoundDuration":384344,"Delta":559787008},{"NoteNumber":55,"Velocity":66,"Duration":384344,"SoundDuration":384344,"Delta":559787008},{"NoteNumber":60,"Velocity":78,"Duration":384344,"SoundDuration":384344,"Delta":559787008},{"NoteNumber":90,"Velocity":70,"Duration":95383,"SoundDuration":95383,"Delta":559882391},{"NoteNumber":91,"Velocity":75,"Duration":96137,"SoundDuration":96137,"Delta":559977775},{"NoteNumber":88,"Velocity":70,"Duration":97439,"SoundDuration":97439,"Delta":560073913},{"NoteNumber":86,"Velocity":72,"Duration":98263,"SoundDuration":98263,"Delta":560171352},{"NoteNumber":53,"Velocity":69,"Duration":393056,"SoundDuration":393056,"Delta":560171352},{"NoteNumber":55,"Velocity":69,"Duration":393056,"SoundDuration":393056,"Delta":560171352},{"NoteNumber":59,"Velocity":82,"Duration":393056,"SoundDuration":393056,"Delta":560171352},{"NoteNumber":85,"Velocity":64,"Duration":98263,"SoundDuration":98263,"Delta":560269616},{"NoteNumber":86,"Velocity":72,"Duration":98264,"SoundDuration":98264,"Delta":560367880},{"NoteNumber":79,"Velocity":67,"Duration":98263,"SoundDuration":98263,"Delta":560466144},{"NoteNumber":84,"Velocity":72,"Duration":97930,"SoundDuration":97930,"Delta":560564408},{"NoteNumber":52,"Velocity":65,"Duration":394427,"SoundDuration":394427,"Delta":560564408},{"NoteNumber":55,"Velocity":65,"Duration":394427,"SoundDuration":394427,"Delta":560564408},{"NoteNumber":60,"Velocity":77,"Duration":394427,"SoundDuration":394427,"Delta":560564408},{"NoteNumber":83,"Velocity":66,"Duration":97930,"SoundDuration":97930,"Delta":560662339},{"NoteNumber":84,"Velocity":75,"Duration":97930,"SoundDuration":97930,"Delta":560760269},{"NoteNumber":88,"Velocity":69,"Duration":100635,"SoundDuration":100635,"Delta":560858200},{"NoteNumber":36,"Velocity":48,"Duration":195745,"SoundDuration":195745,"Delta":560958835},{"NoteNumber":79,"Velocity":50,"Duration":95687,"SoundDuration":95687,"Delta":561154581},{"NoteNumber":48,"Velocity":37,"Duration":95687,"SoundDuration":95687,"Delta":561154581},{"NoteNumber":52,"Velocity":37,"Duration":95687,"SoundDuration":95687,"Delta":561154581},{"NoteNumber":55,"Velocity":37,"Duration":95687,"SoundDuration":95687,"Delta":561154581},{"NoteNumber":60,"Velocity":43,"Duration":95687,"SoundDuration":95687,"Delta":561154581},{"NoteNumber":78,"Velocity":47,"Duration":95687,"SoundDuration":95687,"Delta":561250269},{"NoteNumber":79,"Velocity":50,"Duration":95687,"SoundDuration":95687,"Delta":561345957},{"NoteNumber":48,"Velocity":37,"Duration":1166259,"SoundDuration":1166259,"Delta":561345957},{"NoteNumber":52,"Velocity":37,"Duration":383933,"SoundDuration":383933,"Delta":561345957},{"NoteNumber":55,"Velocity":37,"Duration":383933,"SoundDuration":383933,"Delta":561345957},{"NoteNumber":60,"Velocity":43,"Duration":383933,"SoundDuration":383933,"Delta":561345957},{"NoteNumber":78,"Velocity":46,"Duration":95687,"SoundDuration":95687,"Delta":561441645},{"NoteNumber":79,"Velocity":50,"Duration":95718,"SoundDuration":95718,"Delta":561537332},{"NoteNumber":76,"Velocity":44,"Duration":96840,"SoundDuration":96840,"Delta":561633051},{"NoteNumber":74,"Velocity":48,"Duration":97276,"SoundDuration":97276,"Delta":561729891},{"NoteNumber":53,"Velocity":38,"Duration":389269,"SoundDuration":389269,"Delta":561729891},{"NoteNumber":55,"Velocity":38,"Duration":389269,"SoundDuration":389269,"Delta":561729891},{"NoteNumber":59,"Velocity":46,"Duration":389269,"SoundDuration":389269,"Delta":561729891},{"NoteNumber":73,"Velocity":45,"Duration":97276,"SoundDuration":97276,"Delta":561827167},{"NoteNumber":74,"Velocity":49,"Duration":97276,"SoundDuration":97276,"Delta":561924443},{"NoteNumber":67,"Velocity":45,"Duration":97440,"SoundDuration":97440,"Delta":562021720},{"NoteNumber":72,"Velocity":49,"Duration":98263,"SoundDuration":98263,"Delta":562119160},{"NoteNumber":52,"Velocity":37,"Duration":393056,"SoundDuration":393056,"Delta":562119160},{"NoteNumber":55,"Velocity":37,"Duration":393056,"SoundDuration":393056,"Delta":562119160},{"NoteNumber":60,"Velocity":43,"Duration":393056,"SoundDuration":393056,"Delta":562119160},{"NoteNumber":71,"Velocity":46,"Duration":98263,"SoundDuration":98263,"Delta":562217424},{"NoteNumber":72,"Velocity":49,"Duration":98263,"SoundDuration":98263,"Delta":562315688},{"NoteNumber":76,"Velocity":46,"Duration":98264,"SoundDuration":98264,"Delta":562413952},{"NoteNumber":62,"Velocity":50,"Duration":95773,"SoundDuration":95773,"Delta":562512216},{"NoteNumber":48,"Velocity":34,"Duration":189950,"SoundDuration":189950,"Delta":562512216},{"NoteNumber":53,"Velocity":41,"Duration":189950,"SoundDuration":189950,"Delta":562512216},{"NoteNumber":61,"Velocity":45,"Duration":95773,"SoundDuration":95773,"Delta":562607990},{"NoteNumber":62,"Velocity":51,"Duration":95773,"SoundDuration":95773,"Delta":562703763},{"NoteNumber":48,"Velocity":30,"Duration":189950,"SoundDuration":189950,"Delta":562703763},{"NoteNumber":53,"Velocity":36,"Duration":189950,"SoundDuration":189950,"Delta":562703763},{"NoteNumber":55,"Velocity":46,"Duration":95773,"SoundDuration":95773,"Delta":562799536},{"NoteNumber":60,"Velocity":51,"Duration":103364,"SoundDuration":103364,"Delta":562895309},{"NoteNumber":48,"Velocity":31,"Duration":189237,"SoundDuration":189237,"Delta":562895309},{"NoteNumber":52,"Velocity":37,"Duration":189237,"SoundDuration":189237,"Delta":562895309},{"NoteNumber":59,"Velocity":46,"Duration":103364,"SoundDuration":103364,"Delta":562990723},{"NoteNumber":60,"Velocity":51,"Duration":103543,"SoundDuration":103543,"Delta":563086137},{"NoteNumber":48,"Velocity":32,"Duration":191348,"SoundDuration":191348,"Delta":563086137},{"NoteNumber":52,"Velocity":38,"Duration":191348,"SoundDuration":191348,"Delta":563086137},{"NoteNumber":64,"Velocity":46,"Duration":97561,"SoundDuration":97561,"Delta":563181551},{"NoteNumber":62,"Velocity":50,"Duration":95773,"SoundDuration":95773,"Delta":563279112},{"NoteNumber":48,"Velocity":34,"Duration":189950,"SoundDuration":189950,"Delta":563279112},{"NoteNumber":53,"Velocity":41,"Duration":189950,"SoundDuration":189950,"Delta":563279112},{"NoteNumber":61,"Velocity":45,"Duration":95773,"SoundDuration":95773,"Delta":563374885},{"NoteNumber":62,"Velocity":51,"Duration":95773,"SoundDuration":95773,"Delta":563470658},{"NoteNumber":48,"Velocity":30,"Duration":189950,"SoundDuration":189950,"Delta":563470658},{"NoteNumber":53,"Velocity":36,"Duration":189950,"SoundDuration":189950,"Delta":563470658},{"NoteNumber":55,"Velocity":46,"Duration":95773,"SoundDuration":95773,"Delta":563566431},{"NoteNumber":60,"Velocity":51,"Duration":103364,"SoundDuration":103364,"Delta":563662205},{"NoteNumber":48,"Velocity":31,"Duration":189237,"SoundDuration":189237,"Delta":563662205},{"NoteNumber":52,"Velocity":37,"Duration":189237,"SoundDuration":189237,"Delta":563662205},{"NoteNumber":59,"Velocity":46,"Duration":103364,"SoundDuration":103364,"Delta":563757618},{"NoteNumber":60,"Velocity":51,"Duration":103543,"SoundDuration":103543,"Delta":563853032},{"NoteNumber":48,"Velocity":32,"Duration":191348,"SoundDuration":191348,"Delta":563853032},{"NoteNumber":52,"Velocity":38,"Duration":191348,"SoundDuration":191348,"Delta":563853032},{"NoteNumber":64,"Velocity":46,"Duration":97561,"SoundDuration":97561,"Delta":563948446},{"NoteNumber":62,"Velocity":55,"Duration":94721,"SoundDuration":94721,"Delta":564046007},{"NoteNumber":48,"Velocity":37,"Duration":187863,"SoundDuration":187863,"Delta":564046007},{"NoteNumber":53,"Velocity":45,"Duration":187863,"SoundDuration":187863,"Delta":564046007},{"NoteNumber":61,"Velocity":49,"Duration":94720,"SoundDuration":94720,"Delta":564140728},{"NoteNumber":62,"Velocity":57,"Duration":94721,"SoundDuration":94721,"Delta":564235449},{"NoteNumber":53,"Velocity":33,"Duration":187863,"SoundDuration":187863,"Delta":564235449},{"NoteNumber":48,"Velocity":33,"Duration":187863,"SoundDuration":187863,"Delta":564235449},{"NoteNumber":55,"Velocity":40,"Duration":187863,"SoundDuration":187863,"Delta":564235449},{"NoteNumber":59,"Velocity":52,"Duration":94720,"SoundDuration":94720,"Delta":564330170},{"NoteNumber":65,"Velocity":59,"Duration":101944,"SoundDuration":101944,"Delta":564424891},{"NoteNumber":50,"Velocity":36,"Duration":186637,"SoundDuration":186637,"Delta":564424891},{"NoteNumber":53,"Velocity":36,"Duration":186637,"SoundDuration":186637,"Delta":564424891},{"NoteNumber":55,"Velocity":36,"Duration":186637,"SoundDuration":186637,"Delta":564424891},{"NoteNumber":48,"Velocity":36,"Duration":186637,"SoundDuration":186637,"Delta":564424891},{"NoteNumber":59,"Velocity":43,"Duration":186637,"SoundDuration":186637,"Delta":564424891},{"NoteNumber":64,"Velocity":54,"Duration":101944,"SoundDuration":101944,"Delta":564518994},{"NoteNumber":65,"Velocity":61,"Duration":102101,"SoundDuration":102101,"Delta":564613097},{"NoteNumber":50,"Velocity":38,"Duration":188484,"SoundDuration":188484,"Delta":564613097},{"NoteNumber":53,"Velocity":38,"Duration":188484,"SoundDuration":188484,"Delta":564613097},{"NoteNumber":55,"Velocity":38,"Duration":188484,"SoundDuration":188484,"Delta":564613097},{"NoteNumber":48,"Velocity":38,"Duration":188484,"SoundDuration":188484,"Delta":564613097},{"NoteNumber":59,"Velocity":45,"Duration":188484,"SoundDuration":188484,"Delta":564613097},{"NoteNumber":62,"Velocity":56,"Duration":95981,"SoundDuration":95981,"Delta":564707200},{"NoteNumber":71,"Velocity":62,"Duration":94416,"SoundDuration":94416,"Delta":564803181},{"NoteNumber":50,"Velocity":42,"Duration":187259,"SoundDuration":187259,"Delta":564803181},{"NoteNumber":53,"Velocity":42,"Duration":187259,"SoundDuration":187259,"Delta":564803181},{"NoteNumber":55,"Velocity":42,"Duration":187259,"SoundDuration":187259,"Delta":564803181},{"NoteNumber":48,"Velocity":42,"Duration":187259,"SoundDuration":187259,"Delta":564803181},{"NoteNumber":59,"Velocity":51,"Duration":187259,"SoundDuration":187259,"Delta":564803181},{"NoteNumber":70,"Velocity":56,"Duration":94416,"SoundDuration":94416,"Delta":564897598},{"NoteNumber":71,"Velocity":65,"Duration":94416,"SoundDuration":94416,"Delta":564992015},{"NoteNumber":50,"Velocity":38,"Duration":187259,"SoundDuration":187259,"Delta":564992015},{"NoteNumber":55,"Velocity":38,"Duration":187259,"SoundDuration":187259,"Delta":564992015},{"NoteNumber":53,"Velocity":38,"Duration":187259,"SoundDuration":187259,"Delta":564992015},{"NoteNumber":48,"Velocity":38,"Duration":187259,"SoundDuration":187259,"Delta":564992015},{"NoteNumber":59,"Velocity":46,"Duration":187259,"SoundDuration":187259,"Delta":564992015},{"NoteNumber":65,"Velocity":59,"Duration":94416,"SoundDuration":94416,"Delta":565086432},{"NoteNumber":74,"Velocity":67,"Duration":101944,"SoundDuration":101944,"Delta":565180848},{"NoteNumber":50,"Velocity":40,"Duration":186637,"SoundDuration":186637,"Delta":565180848},{"NoteNumber":53,"Velocity":40,"Duration":186637,"SoundDuration":186637,"Delta":565180848},{"NoteNumber":55,"Velocity":40,"Duration":186637,"SoundDuration":186637,"Delta":565180848},{"NoteNumber":48,"Velocity":40,"Duration":186637,"SoundDuration":186637,"Delta":565180848},{"NoteNumber":59,"Velocity":48,"Duration":186637,"SoundDuration":186637,"Delta":565180848},{"NoteNumber":73,"Velocity":61,"Duration":101944,"SoundDuration":101944,"Delta":565274951},{"NoteNumber":74,"Velocity":69,"Duration":102075,"SoundDuration":102075,"Delta":565369054},{"NoteNumber":50,"Velocity":43,"Duration":188177,"SoundDuration":188177,"Delta":565369054},{"NoteNumber":53,"Velocity":43,"Duration":188177,"SoundDuration":188177,"Delta":565369054},{"NoteNumber":55,"Velocity":43,"Duration":188177,"SoundDuration":188177,"Delta":565369054},{"NoteNumber":48,"Velocity":43,"Duration":188177,"SoundDuration":188177,"Delta":565369054},{"NoteNumber":59,"Velocity":51,"Duration":188177,"SoundDuration":188177,"Delta":565369054},{"NoteNumber":71,"Velocity":63,"Duration":95669,"SoundDuration":95669,"Delta":565463157},{"NoteNumber":77,"Velocity":70,"Duration":94103,"SoundDuration":94103,"Delta":565558827},{"NoteNumber":50,"Velocity":47,"Duration":186637,"SoundDuration":186637,"Delta":565558827},{"NoteNumber":53,"Velocity":47,"Duration":186637,"SoundDuration":186637,"Delta":565558827},{"NoteNumber":55,"Velocity":47,"Duration":186637,"SoundDuration":186637,"Delta":565558827},{"NoteNumber":48,"Velocity":47,"Duration":186637,"SoundDuration":186637,"Delta":565558827},{"NoteNumber":59,"Velocity":57,"Duration":186637,"SoundDuration":186637,"Delta":565558827},{"NoteNumber":76,"Velocity":63,"Duration":94103,"SoundDuration":94103,"Delta":565652930},{"NoteNumber":77,"Velocity":71,"Duration":94103,"SoundDuration":94103,"Delta":565747033},{"NoteNumber":50,"Velocity":42,"Duration":186637,"SoundDuration":186637,"Delta":565747033},{"NoteNumber":55,"Velocity":42,"Duration":186637,"SoundDuration":186637,"Delta":565747033},{"NoteNumber":53,"Velocity":42,"Duration":186637,"SoundDuration":186637,"Delta":565747033},{"NoteNumber":48,"Velocity":42,"Duration":186637,"SoundDuration":186637,"Delta":565747033},{"NoteNumber":59,"Velocity":50,"Duration":186637,"SoundDuration":186637,"Delta":565747033},{"NoteNumber":74,"Velocity":65,"Duration":94102,"SoundDuration":94102,"Delta":565841136},{"NoteNumber":83,"Velocity":73,"Duration":100963,"SoundDuration":100963,"Delta":565935239},{"NoteNumber":50,"Velocity":44,"Duration":184840,"SoundDuration":184840,"Delta":565935239},{"NoteNumber":53,"Velocity":44,"Duration":184840,"SoundDuration":184840,"Delta":565935239},{"NoteNumber":55,"Velocity":44,"Duration":184840,"SoundDuration":184840,"Delta":565935239},{"NoteNumber":48,"Velocity":44,"Duration":184840,"SoundDuration":184840,"Delta":565935239},{"NoteNumber":59,"Velocity":52,"Duration":184840,"SoundDuration":184840,"Delta":565935239},{"NoteNumber":82,"Velocity":66,"Duration":100963,"SoundDuration":100963,"Delta":566028435},{"NoteNumber":83,"Velocity":73,"Duration":101142,"SoundDuration":101142,"Delta":566121632},{"NoteNumber":50,"Velocity":45,"Duration":186954,"SoundDuration":186954,"Delta":566121632},{"NoteNumber":53,"Velocity":45,"Duration":186954,"SoundDuration":186954,"Delta":566121632},{"NoteNumber":55,"Velocity":45,"Duration":186954,"SoundDuration":186954,"Delta":566121632},{"NoteNumber":48,"Velocity":45,"Duration":186954,"SoundDuration":186954,"Delta":566121632},{"NoteNumber":59,"Velocity":55,"Duration":186954,"SoundDuration":186954,"Delta":566121632},{"NoteNumber":77,"Velocity":67,"Duration":95346,"SoundDuration":95346,"Delta":566214829},{"NoteNumber":86,"Velocity":74,"Duration":93796,"SoundDuration":93796,"Delta":566310176},{"NoteNumber":50,"Velocity":49,"Duration":186030,"SoundDuration":186030,"Delta":566310176},{"NoteNumber":53,"Velocity":49,"Duration":186030,"SoundDuration":186030,"Delta":566310176},{"NoteNumber":55,"Velocity":49,"Duration":186030,"SoundDuration":186030,"Delta":566310176},{"NoteNumber":48,"Velocity":49,"Duration":186030,"SoundDuration":186030,"Delta":566310176},{"NoteNumber":59,"Velocity":60,"Duration":186030,"SoundDuration":186030,"Delta":566310176},{"NoteNumber":85,"Velocity":67,"Duration":93796,"SoundDuration":93796,"Delta":566403973},{"NoteNumber":86,"Velocity":76,"Duration":93796,"SoundDuration":93796,"Delta":566497770},{"NoteNumber":50,"Velocity":45,"Duration":186030,"SoundDuration":186030,"Delta":566497770},{"NoteNumber":55,"Velocity":45,"Duration":186030,"SoundDuration":186030,"Delta":566497770},{"NoteNumber":53,"Velocity":45,"Duration":186030,"SoundDuration":186030,"Delta":566497770},{"NoteNumber":48,"Velocity":45,"Duration":186030,"SoundDuration":186030,"Delta":566497770},{"NoteNumber":59,"Velocity":54,"Duration":186030,"SoundDuration":186030,"Delta":566497770},{"NoteNumber":83,"Velocity":69,"Duration":93796,"SoundDuration":93796,"Delta":566591567},{"NoteNumber":89,"Velocity":77,"Duration":100963,"SoundDuration":100963,"Delta":566685364},{"NoteNumber":50,"Velocity":46,"Duration":184840,"SoundDuration":184840,"Delta":566685364},{"NoteNumber":53,"Velocity":46,"Duration":184840,"SoundDuration":184840,"Delta":566685364},{"NoteNumber":55,"Velocity":46,"Duration":184840,"SoundDuration":184840,"Delta":566685364},{"NoteNumber":48,"Velocity":46,"Duration":184840,"SoundDuration":184840,"Delta":566685364},{"NoteNumber":59,"Velocity":55,"Duration":184840,"SoundDuration":184840,"Delta":566685364},{"NoteNumber":88,"Velocity":70,"Duration":100963,"SoundDuration":100963,"Delta":566778561},{"NoteNumber":89,"Velocity":78,"Duration":101116,"SoundDuration":101116,"Delta":566871757},{"NoteNumber":50,"Velocity":48,"Duration":186651,"SoundDuration":186651,"Delta":566871757},{"NoteNumber":53,"Velocity":48,"Duration":186651,"SoundDuration":186651,"Delta":566871757},{"NoteNumber":55,"Velocity":48,"Duration":186651,"SoundDuration":186651,"Delta":566871757},{"NoteNumber":48,"Velocity":48,"Duration":186651,"SoundDuration":186651,"Delta":566871757},{"NoteNumber":59,"Velocity":58,"Duration":186651,"SoundDuration":186651,"Delta":566871757},{"NoteNumber":83,"Velocity":71,"Duration":95039,"SoundDuration":95039,"Delta":566964954},{"NoteNumber":84,"Velocity":91,"Duration":190077,"SoundDuration":190077,"Delta":567059993},{"NoteNumber":36,"Velocity":71,"Duration":190077,"SoundDuration":190077,"Delta":567059993},{"NoteNumber":48,"Velocity":71,"Duration":190077,"SoundDuration":190077,"Delta":567059993},{"NoteNumber":64,"Velocity":68,"Duration":95039,"SoundDuration":95039,"Delta":567250071},{"NoteNumber":67,"Velocity":81,"Duration":95039,"SoundDuration":95039,"Delta":567250071},{"NoteNumber":52,"Velocity":56,"Duration":95039,"SoundDuration":95039,"Delta":567250071},{"NoteNumber":55,"Velocity":67,"Duration":95039,"SoundDuration":95039,"Delta":567250071},{"NoteNumber":60,"Velocity":72,"Duration":95039,"SoundDuration":95039,"Delta":567440149},{"NoteNumber":64,"Velocity":85,"Duration":95039,"SoundDuration":95039,"Delta":567440149},{"NoteNumber":48,"Velocity":59,"Duration":95039,"SoundDuration":95039,"Delta":567440149},{"NoteNumber":52,"Velocity":70,"Duration":95039,"SoundDuration":95039,"Delta":567440149},{"NoteNumber":67,"Velocity":68,"Duration":95039,"SoundDuration":95039,"Delta":567630227},{"NoteNumber":72,"Velocity":81,"Duration":95039,"SoundDuration":95039,"Delta":567630227},{"NoteNumber":60,"Velocity":67,"Duration":95039,"SoundDuration":95039,"Delta":567630227},{"NoteNumber":55,"Velocity":56,"Duration":95039,"SoundDuration":95039,"Delta":567630227},{"NoteNumber":64,"Velocity":71,"Duration":95038,"SoundDuration":95038,"Delta":567820305},{"NoteNumber":67,"Velocity":84,"Duration":95038,"SoundDuration":95038,"Delta":567820305},{"NoteNumber":52,"Velocity":59,"Duration":95038,"SoundDuration":95038,"Delta":567820305},{"NoteNumber":55,"Velocity":70,"Duration":95038,"SoundDuration":95038,"Delta":567820305},{"NoteNumber":72,"Velocity":68,"Duration":95039,"SoundDuration":95039,"Delta":568010383},{"NoteNumber":76,"Velocity":81,"Duration":95039,"SoundDuration":95039,"Delta":568010383},{"NoteNumber":60,"Velocity":56,"Duration":95039,"SoundDuration":95039,"Delta":568010383},{"NoteNumber":64,"Velocity":67,"Duration":95039,"SoundDuration":95039,"Delta":568010383},{"NoteNumber":67,"Velocity":73,"Duration":95039,"SoundDuration":95039,"Delta":568200461},{"NoteNumber":72,"Velocity":86,"Duration":95039,"SoundDuration":95039,"Delta":568200461},{"NoteNumber":55,"Velocity":60,"Duration":95039,"SoundDuration":95039,"Delta":568200461},{"NoteNumber":60,"Velocity":71,"Duration":95039,"SoundDuration":95039,"Delta":568200461},{"NoteNumber":76,"Velocity":68,"Duration":95039,"SoundDuration":95039,"Delta":568390539},{"NoteNumber":79,"Velocity":81,"Duration":95039,"SoundDuration":95039,"Delta":568390539},{"NoteNumber":60,"Velocity":56,"Duration":95039,"SoundDuration":95039,"Delta":568390539},{"NoteNumber":64,"Velocity":67,"Duration":95039,"SoundDuration":95039,"Delta":568390539},{"NoteNumber":72,"Velocity":73,"Duration":95038,"SoundDuration":95038,"Delta":568580617},{"NoteNumber":76,"Velocity":86,"Duration":95038,"SoundDuration":95038,"Delta":568580617},{"NoteNumber":64,"Velocity":59,"Duration":95038,"SoundDuration":95038,"Delta":568580617},{"NoteNumber":67,"Velocity":70,"Duration":95038,"SoundDuration":95038,"Delta":568580617},{"NoteNumber":84,"Velocity":81,"Duration":95039,"SoundDuration":95039,"Delta":568770695},{"NoteNumber":79,"Velocity":68,"Duration":95039,"SoundDuration":95039,"Delta":568770695},{"NoteNumber":67,"Velocity":57,"Duration":95039,"SoundDuration":95039,"Delta":568770695},{"NoteNumber":72,"Velocity":68,"Duration":95039,"SoundDuration":95039,"Delta":568770695},{"NoteNumber":76,"Velocity":73,"Duration":95039,"SoundDuration":95039,"Delta":568960773},{"NoteNumber":79,"Velocity":86,"Duration":95039,"SoundDuration":95039,"Delta":568960773},{"NoteNumber":64,"Velocity":59,"Duration":95039,"SoundDuration":95039,"Delta":568960773},{"NoteNumber":67,"Velocity":70,"Duration":95039,"SoundDuration":95039,"Delta":568960773},{"NoteNumber":88,"Velocity":82,"Duration":95039,"SoundDuration":95039,"Delta":569150851},{"NoteNumber":84,"Velocity":69,"Duration":95039,"SoundDuration":95039,"Delta":569150851},{"NoteNumber":72,"Velocity":57,"Duration":95039,"SoundDuration":95039,"Delta":569150851},{"NoteNumber":76,"Velocity":68,"Duration":95039,"SoundDuration":95039,"Delta":569150851},{"NoteNumber":84,"Velocity":87,"Duration":95038,"SoundDuration":95038,"Delta":569340929},{"NoteNumber":79,"Velocity":73,"Duration":95038,"SoundDuration":95038,"Delta":569340929},{"NoteNumber":67,"Velocity":60,"Duration":95038,"SoundDuration":95038,"Delta":569340929},{"NoteNumber":72,"Velocity":71,"Duration":95038,"SoundDuration":95038,"Delta":569340929},{"NoteNumber":91,"Velocity":82,"Duration":95039,"SoundDuration":95039,"Delta":569531007},{"NoteNumber":88,"Velocity":69,"Duration":95039,"SoundDuration":95039,"Delta":569531007},{"NoteNumber":76,"Velocity":58,"Duration":95039,"SoundDuration":95039,"Delta":569531007},{"NoteNumber":79,"Velocity":69,"Duration":95039,"SoundDuration":95039,"Delta":569531007},{"NoteNumber":84,"Velocity":74,"Duration":95039,"SoundDuration":95039,"Delta":569721085},{"NoteNumber":88,"Velocity":88,"Duration":95039,"SoundDuration":95039,"Delta":569721085},{"NoteNumber":72,"Velocity":61,"Duration":95039,"SoundDuration":95039,"Delta":569721085},{"NoteNumber":76,"Velocity":72,"Duration":95039,"SoundDuration":95039,"Delta":569721085},{"NoteNumber":91,"Velocity":82,"Duration":95039,"SoundDuration":95039,"Delta":569911163},{"NoteNumber":88,"Velocity":69,"Duration":95039,"SoundDuration":95039,"Delta":569911163},{"NoteNumber":76,"Velocity":58,"Duration":95039,"SoundDuration":95039,"Delta":569911163},{"NoteNumber":79,"Velocity":69,"Duration":95039,"SoundDuration":95039,"Delta":569911163},{"NoteNumber":88,"Velocity":87,"Duration":95038,"SoundDuration":95038,"Delta":570101241},{"NoteNumber":84,"Velocity":73,"Duration":95038,"SoundDuration":95038,"Delta":570101241},{"NoteNumber":72,"Velocity":61,"Duration":95038,"SoundDuration":95038,"Delta":570101241},{"NoteNumber":76,"Velocity":72,"Duration":95038,"SoundDuration":95038,"Delta":570101241},{"NoteNumber":76,"Velocity":54,"Duration":196399,"SoundDuration":196399,"Delta":570861553},{"NoteNumber":79,"Velocity":76,"Duration":196399,"SoundDuration":196399,"Delta":570861553},{"NoteNumber":64,"Velocity":44,"Duration":196399,"SoundDuration":196399,"Delta":570861553},{"NoteNumber":67,"Velocity":62,"Duration":196399,"SoundDuration":196399,"Delta":570861553},{"NoteNumber":72,"Velocity":50,"Duration":196399,"SoundDuration":196399,"Delta":571647151},{"NoteNumber":76,"Velocity":70,"Duration":196399,"SoundDuration":196399,"Delta":571647151},{"NoteNumber":60,"Velocity":39,"Duration":196399,"SoundDuration":196399,"Delta":571647151},{"NoteNumber":64,"Velocity":56,"Duration":196399,"SoundDuration":196399,"Delta":571647151},{"NoteNumber":64,"Velocity":43,"Duration":196399,"SoundDuration":196399,"Delta":572432749},{"NoteNumber":67,"Velocity":60,"Duration":196399,"SoundDuration":196399,"Delta":572432749},{"NoteNumber":52,"Velocity":37,"Duration":196399,"SoundDuration":196399,"Delta":572432749},{"NoteNumber":55,"Velocity":52,"Duration":196399,"SoundDuration":196399,"Delta":572432749},{"NoteNumber":60,"Velocity":39,"Duration":196399,"SoundDuration":196399,"Delta":573218347},{"NoteNumber":64,"Velocity":56,"Duration":196399,"SoundDuration":196399,"Delta":573218347},{"NoteNumber":48,"Velocity":32,"Duration":196399,"SoundDuration":196399,"Delta":573218347},{"NoteNumber":52,"Velocity":45,"Duration":196399,"SoundDuration":196399,"Delta":573218347},{"NoteNumber":76,"Velocity":36,"Duration":196399,"SoundDuration":196399,"Delta":574003945},{"NoteNumber":79,"Velocity":43,"Duration":196399,"SoundDuration":196399,"Delta":574003945},{"NoteNumber":64,"Velocity":28,"Duration":196399,"SoundDuration":196399,"Delta":574003945},{"NoteNumber":67,"Velocity":34,"Duration":196399,"SoundDuration":196399,"Delta":574003945},{"NoteNumber":76,"Velocity":36,"Duration":196399,"SoundDuration":196399,"Delta":574396744},{"NoteNumber":79,"Velocity":43,"Duration":196399,"SoundDuration":196399,"Delta":574396744},{"NoteNumber":64,"Velocity":28,"Duration":196399,"SoundDuration":196399,"Delta":574396744},{"NoteNumber":67,"Velocity":34,"Duration":196399,"SoundDuration":196399,"Delta":574396744},{"NoteNumber":72,"Velocity":35,"Duration":196399,"SoundDuration":196399,"Delta":574789543},{"NoteNumber":76,"Velocity":42,"Duration":196399,"SoundDuration":196399,"Delta":574789543},{"NoteNumber":60,"Velocity":28,"Duration":196399,"SoundDuration":196399,"Delta":574789543},{"NoteNumber":64,"Velocity":34,"Duration":196399,"SoundDuration":196399,"Delta":574789543},{"NoteNumber":91,"Velocity":101,"Duration":99833,"SoundDuration":99833,"Delta":575575141},{"NoteNumber":88,"Velocity":101,"Duration":99833,"SoundDuration":99833,"Delta":575575141},{"NoteNumber":84,"Velocity":85,"Duration":99833,"SoundDuration":99833,"Delta":575575141},{"NoteNumber":79,"Velocity":85,"Duration":99833,"SoundDuration":99833,"Delta":575575141},{"NoteNumber":36,"Velocity":69,"Duration":99833,"SoundDuration":99833,"Delta":575575141},{"NoteNumber":40,"Velocity":69,"Duration":99833,"SoundDuration":99833,"Delta":575575141},{"NoteNumber":43,"Velocity":69,"Duration":99833,"SoundDuration":99833,"Delta":575575141},{"NoteNumber":48,"Velocity":82,"Duration":99833,"SoundDuration":99833,"Delta":575575141},{"NoteNumber":79,"Velocity":85,"Duration":99833,"SoundDuration":99833,"Delta":575974475},{"NoteNumber":84,"Velocity":85,"Duration":99833,"SoundDuration":99833,"Delta":575974475},{"NoteNumber":88,"Velocity":101,"Duration":99833,"SoundDuration":99833,"Delta":575974475},{"NoteNumber":91,"Velocity":101,"Duration":99833,"SoundDuration":99833,"Delta":575974475},{"NoteNumber":36,"Velocity":69,"Duration":99833,"SoundDuration":99833,"Delta":575974475},{"NoteNumber":40,"Velocity":69,"Duration":99833,"SoundDuration":99833,"Delta":575974475},{"NoteNumber":43,"Velocity":69,"Duration":99833,"SoundDuration":99833,"Delta":575974475},{"NoteNumber":48,"Velocity":82,"Duration":99833,"SoundDuration":99833,"Delta":575974475},{"NoteNumber":88,"Velocity":101,"Duration":99833,"SoundDuration":99833,"Delta":576373809},{"NoteNumber":84,"Velocity":101,"Duration":99833,"SoundDuration":99833,"Delta":576373809},{"NoteNumber":79,"Velocity":85,"Duration":99833,"SoundDuration":99833,"Delta":576373809},{"NoteNumber":76,"Velocity":85,"Duration":99833,"SoundDuration":99833,"Delta":576373809},{"NoteNumber":36,"Velocity":69,"Duration":99833,"SoundDuration":99833,"Delta":576373809},{"NoteNumber":40,"Velocity":69,"Duration":99833,"SoundDuration":99833,"Delta":576373809},{"NoteNumber":43,"Velocity":69,"Duration":99833,"SoundDuration":99833,"Delta":576373809},{"NoteNumber":48,"Velocity":82,"Duration":99833,"SoundDuration":99833,"Delta":576373809},{"NoteNumber":64,"Velocity":85,"Duration":102923,"SoundDuration":102923,"Delta":577172477},{"NoteNumber":67,"Velocity":85,"Duration":102923,"SoundDuration":102923,"Delta":577172477},{"NoteNumber":72,"Velocity":101,"Duration":102923,"SoundDuration":102923,"Delta":577172477},{"NoteNumber":76,"Velocity":101,"Duration":102923,"SoundDuration":102923,"Delta":577172477},{"NoteNumber":36,"Velocity":69,"Duration":102923,"SoundDuration":102923,"Delta":577172477},{"NoteNumber":40,"Velocity":69,"Duration":102923,"SoundDuration":102923,"Delta":577172477},{"NoteNumber":43,"Velocity":69,"Duration":102923,"SoundDuration":102923,"Delta":577172477},{"NoteNumber":48,"Velocity":82,"Duration":102923,"SoundDuration":102923,"Delta":577172477},{"NoteNumber":60,"Velocity":85,"Duration":102922,"SoundDuration":102922,"Delta":577995861},{"NoteNumber":64,"Velocity":85,"Duration":102922,"SoundDuration":102922,"Delta":577995861},{"NoteNumber":67,"Velocity":101,"Duration":102922,"SoundDuration":102922,"Delta":577995861},{"NoteNumber":72,"Velocity":101,"Duration":102922,"SoundDuration":102922,"Delta":577995861},{"NoteNumber":36,"Velocity":69,"Duration":102922,"SoundDuration":102922,"Delta":577995861},{"NoteNumber":40,"Velocity":69,"Duration":102922,"SoundDuration":102922,"Delta":577995861},{"NoteNumber":43,"Velocity":69,"Duration":102922,"SoundDuration":102922,"Delta":577995861},{"NoteNumber":48,"Velocity":82,"Duration":102922,"SoundDuration":102922,"Delta":577995861}],"license":{"name":"Creative Commons Attribution-ShareAlike 3.0 Germany","url":"http://creativecommons.org/licenses/by-sa/3.0/de/deed.en","text":"The MIDI, audio (MP3, OGG) and video files of Bernd Krueger are licensed under the cc-by-sa Germany License. This means that you can use and adapt the files, as long as you attribute the copyright holder.\n\nName: Bernd Krueger\nSource: http://www.piano-midi.de\n\nThe distribution or public playback of the files is only allowed under identical license conditions.\n\nThe scores are open source.","attribution":"MIDI files by Bernd Krueger (piano-midi.de)"}}