{"title":"Appassionata","artist":"Beethoven","durationMs":464551,"midiSha256":"5d180a87e258b08bfac66719ecf51e4276445b992e4378eec0c3891e5c36e0ef","midiObject":[{"NoteNumber":64,"Velocity":89,"Duration":639852,"SoundDuration":639852,"Delta":0},{"NoteNumber":73,"Velocity":105,"Duration":639852,"SoundDuration":639852,"Delta":0},{"NoteNumber":46,"Velocity":71,"Duration":639852,"SoundDuration":639852,"Delta":0},{"NoteNumber":55,"Velocity":84,"Duration":639852,"SoundDuration":639852,"Delta":0},{"NoteNumber":64,"Velocity":82,"Duration":213583,"SoundDuration":213583,"Delta":646134},{"NoteNumber":73,"Velocity":97,"Duration":213583,"SoundDuration":213583,"Delta":646134},{"NoteNumber":55,"Velocity":77,"Duration":213583,"SoundDuration":213583,"Delta":646134},{"NoteNumber":46,"Velocity":65,"Duration":213583,"SoundDuration":213583,"Delta":646134},{"NoteNumber":73,"Velocity":105,"Duration":639852,"SoundDuration":639852,"Delta":861512},{"NoteNumber":64,"Velocity":89,"Duration":639852,"SoundDuration":639852,"Delta":861512},{"NoteNumber":46,"Velocity":71,"Duration":639852,"SoundDuration":639852,"Delta":861512},{"NoteNumber":55,"Velocity":84,"Duration":639852,"SoundDuration":639852,"Delta":861512},{"NoteNumber":64,"Velocity":82,"Duration":213583,"SoundDuration":213583,"Delta":1507646},{"NoteNumber":73,"Velocity":98,"Duration":213583,"SoundDuration":213583,"Delta":1507646},{"NoteNumber":55,"Velocity":76,"Duration":213583,"SoundDuration":213583,"Delta":1507646},{"NoteNumber":46,"Velocity":65,"Duration":213583,"SoundDuration":213583,"Delta":1507646},{"NoteNumber":64,"Velocity":89,"Duration":320374,"SoundDuration":320374,"Delta":1723024},{"NoteNumber":73,"Velocity":105,"Duration":320374,"SoundDuration":320374,"Delta":1723024},{"NoteNumber":46,"Velocity":71,"Duration":320374,"SoundDuration":320374,"Delta":1723024},{"NoteNumber":55,"Velocity":84,"Duration":320374,"SoundDuration":320374,"Delta":1723024},{"NoteNumber":73,"Velocity":97,"Duration":106791,"SoundDuration":106791,"Delta":2046091},{"NoteNumber":64,"Velocity":82,"Duration":106791,"SoundDuration":106791,"Delta":2046091},{"NoteNumber":55,"Velocity":77,"Duration":106791,"SoundDuration":106791,"Delta":2046091},{"NoteNumber":46,"Velocity":65,"Duration":106791,"SoundDuration":106791,"Delta":2046091},{"NoteNumber":64,"Velocity":89,"Duration":320374,"SoundDuration":320374,"Delta":2153780},{"NoteNumber":73,"Velocity":105,"Duration":320374,"SoundDuration":320374,"Delta":2153780},{"NoteNumber":46,"Velocity":71,"Duration":320374,"SoundDuration":320374,"Delta":2153780},{"NoteNumber":55,"Velocity":84,"Duration":320374,"SoundDuration":320374,"Delta":2153780},{"NoteNumber":64,"Velocity":81,"Duration":106791,"SoundDuration":106791,"Delta":2476847},{"NoteNumber":73,"Velocity":96,"Duration":106791,"SoundDuration":106791,"Delta":2476847},{"NoteNumber":46,"Velocity":65,"Duration":106791,"SoundDuration":106791,"Delta":2476847},{"NoteNumber":55,"Velocity":76,"Duration":106791,"SoundDuration":106791,"Delta":2476847},{"NoteNumber":73,"Velocity":105,"Duration":320374,"SoundDuration":320374,"Delta":2584536},{"NoteNumber":64,"Velocity":89,"Duration":320374,"SoundDuration":320374,"Delta":2584536},{"NoteNumber":55,"Velocity":84,"Duration":320374,"SoundDuration":320374,"Delta":2584536},{"NoteNumber":46,"Velocity":71,"Duration":320374,"SoundDuration":320374,"Delta":2584536},{"NoteNumber":64,"Velocity":82,"Duration":106791,"SoundDuration":106791,"Delta":2907603},{"NoteNumber":73,"Velocity":97,"Duration":106791,"SoundDuration":106791,"Delta":2907603},{"NoteNumber":46,"Velocity":64,"Duration":106791,"SoundDuration":106791,"Delta":2907603},{"NoteNumber":55,"Velocity":75,"Duration":106791,"SoundDuration":106791,"Delta":2907603},{"NoteNumber":73,"Velocity":105,"Duration":320374,"SoundDuration":320374,"Delta":3015292},{"NoteNumber":64,"Velocity":89,"Duration":320374,"SoundDuration":320374,"Delta":3015292},{"NoteNumber":55,"Velocity":84,"Duration":320374,"SoundDuration":320374,"Delta":3015292},{"NoteNumber":46,"Velocity":71,"Duration":320374,"SoundDuration":320374,"Delta":3015292},{"NoteNumber":64,"Velocity":82,"Duration":106791,"SoundDuration":106791,"Delta":3338359},{"NoteNumber":73,"Velocity":97,"Duration":106791,"SoundDuration":106791,"Delta":3338359},{"NoteNumber":46,"Velocity":64,"Duration":106791,"SoundDuration":106791,"Delta":3338359},{"NoteNumber":55,"Velocity":75,"Duration":106791,"SoundDuration":106791,"Delta":3338359},{"NoteNumber":64,"Velocity":89,"Duration":430756,"SoundDuration":430756,"Delta":3446048},{"NoteNumber":73,"Velocity":105,"Duration":430756,"SoundDuration":430756,"Delta":3446048},{"NoteNumber":55,"Velocity":84,"Duration":430756,"SoundDuration":430756,"Delta":3446048},{"NoteNumber":46,"Velocity":71,"Duration":430756,"SoundDuration":430756,"Delta":3446048},{"NoteNumber":85,"Velocity":50,"Duration":104238,"SoundDuration":104238,"Delta":4085282},{"NoteNumber":84,"Velocity":50,"Duration":104239,"SoundDuration":104239,"Delta":4189521},{"NoteNumber":82,"Velocity":54,"Duration":104238,"SoundDuration":104238,"Delta":4293760},{"NoteNumber":84,"Velocity":50,"Duration":104238,"SoundDuration":104238,"Delta":4397999},{"NoteNumber":82,"Velocity":50,"Duration":104238,"SoundDuration":104238,"Delta":4502238},{"NoteNumber":80,"Velocity":50,"Duration":104239,"SoundDuration":104239,"Delta":4606477},{"NoteNumber":79,"Velocity":54,"Duration":104238,"SoundDuration":104238,"Delta":4710716},{"NoteNumber":80,"Velocity":50,"Duration":104238,"SoundDuration":104238,"Delta":4814955},{"NoteNumber":79,"Velocity":50,"Duration":104239,"SoundDuration":104239,"Delta":4919194},{"NoteNumber":77,"Velocity":50,"Duration":104238,"SoundDuration":104238,"Delta":5023433},{"NoteNumber":76,"Velocity":54,"Duration":435635,"SoundDuration":435635,"Delta":5127672},{"NoteNumber":73,"Velocity":50,"Duration":104238,"SoundDuration":104238,"Delta":5771785},{"NoteNumber":72,"Velocity":50,"Duration":104238,"SoundDuration":104238,"Delta":5876024},{"NoteNumber":70,"Velocity":53,"Duration":104238,"SoundDuration":104238,"Delta":5980263},{"NoteNumber":72,"Velocity":50,"Duration":104239,"SoundDuration":104239,"Delta":6084502},{"NoteNumber":70,"Velocity":50,"Duration":104238,"SoundDuration":104238,"Delta":6188741},{"NoteNumber":68,"Velocity":50,"Duration":104238,"SoundDuration":104238,"Delta":6292980},{"NoteNumber":67,"Velocity":53,"Duration":104239,"SoundDuration":104239,"Delta":6397219},{"NoteNumber":68,"Velocity":50,"Duration":104238,"SoundDuration":104238,"Delta":6501458},{"NoteNumber":67,"Velocity":50,"Duration":104238,"SoundDuration":104238,"Delta":6605697},{"NoteNumber":65,"Velocity":50,"Duration":104238,"SoundDuration":104238,"Delta":6709936},{"NoteNumber":64,"Velocity":52,"Duration":427654,"SoundDuration":427654,"Delta":6814175},{"NoteNumber":73,"Velocity":50,"Duration":104238,"SoundDuration":104238,"Delta":7450308},{"NoteNumber":72,"Velocity":50,"Duration":104238,"SoundDuration":104238,"Delta":7554547},{"NoteNumber":70,"Velocity":51,"Duration":104238,"SoundDuration":104238,"Delta":7658786},{"NoteNumber":72,"Velocity":51,"Duration":104239,"SoundDuration":104239,"Delta":7763025},{"NoteNumber":70,"Velocity":52,"Duration":104238,"SoundDuration":104238,"Delta":7867264},{"NoteNumber":68,"Velocity":52,"Duration":104238,"SoundDuration":104238,"Delta":7971503},{"NoteNumber":67,"Velocity":53,"Duration":103863,"SoundDuration":103863,"Delta":8075742},{"NoteNumber":68,"Velocity":54,"Duration":103863,"SoundDuration":103863,"Delta":8179605},{"NoteNumber":67,"Velocity":54,"Duration":103863,"SoundDuration":103863,"Delta":8283469},{"NoteNumber":65,"Velocity":55,"Duration":103863,"SoundDuration":103863,"Delta":8387333},{"NoteNumber":64,"Velocity":55,"Duration":103491,"SoundDuration":103491,"Delta":8491197},{"NoteNumber":65,"Velocity":56,"Duration":103491,"SoundDuration":103491,"Delta":8594688},{"NoteNumber":64,"Velocity":57,"Duration":103491,"SoundDuration":103491,"Delta":8698179},{"NoteNumber":61,"Velocity":57,"Duration":103491,"SoundDuration":103491,"Delta":8801670},{"NoteNumber":60,"Velocity":58,"Duration":103135,"SoundDuration":103135,"Delta":8905161},{"NoteNumber":61,"Velocity":61,"Duration":103135,"SoundDuration":103135,"Delta":9008296},{"NoteNumber":60,"Velocity":62,"Duration":103135,"SoundDuration":103135,"Delta":9111431},{"NoteNumber":59,"Velocity":63,"Duration":103135,"SoundDuration":103135,"Delta":9214566},{"NoteNumber":58,"Velocity":64,"Duration":102775,"SoundDuration":102775,"Delta":9317701},{"NoteNumber":60,"Velocity":65,"Duration":102774,"SoundDuration":102774,"Delta":9420477},{"NoteNumber":58,"Velocity":66,"Duration":102410,"SoundDuration":102410,"Delta":9523252},{"NoteNumber":56,"Velocity":67,"Duration":102289,"SoundDuration":102289,"Delta":9625662},{"NoteNumber":55,"Velocity":68,"Duration":102047,"SoundDuration":102047,"Delta":9727951},{"NoteNumber":56,"Velocity":69,"Duration":101694,"SoundDuration":101694,"Delta":9829999},{"NoteNumber":55,"Velocity":70,"Duration":101578,"SoundDuration":101578,"Delta":9931694},{"NoteNumber":53,"Velocity":71,"Duration":101344,"SoundDuration":101344,"Delta":10033272},{"NoteNumber":52,"Velocity":73,"Duration":101107,"SoundDuration":101107,"Delta":10134616},{"NoteNumber":53,"Velocity":71,"Duration":100872,"SoundDuration":100872,"Delta":10235724},{"NoteNumber":52,"Velocity":72,"Duration":100637,"SoundDuration":100637,"Delta":10336596},{"NoteNumber":49,"Velocity":71,"Duration":100413,"SoundDuration":100413,"Delta":10437234},{"NoteNumber":48,"Velocity":75,"Duration":108630,"SoundDuration":108630,"Delta":10537647},{"NoteNumber":36,"Velocity":60,"Duration":108630,"SoundDuration":108630,"Delta":10537647},{"NoteNumber":49,"Velocity":75,"Duration":108282,"SoundDuration":108282,"Delta":10637948},{"NoteNumber":37,"Velocity":60,"Duration":108282,"SoundDuration":108282,"Delta":10637948},{"NoteNumber":48,"Velocity":75,"Duration":108665,"SoundDuration":108665,"Delta":10737901},{"NoteNumber":36,"Velocity":60,"Duration":108665,"SoundDuration":108665,"Delta":10737901},{"NoteNumber":47,"Velocity":75,"Duration":115604,"SoundDuration":115604,"Delta":10837624},{"NoteNumber":35,"Velocity":60,"Duration":115604,"SoundDuration":115604,"Delta":10837624},{"NoteNumber":48,"Velocity":75,"Duration":108255,"SoundDuration":108255,"Delta":10944928},{"NoteNumber":36,"Velocity":60,"Duration":108255,"SoundDuration":108255,"Delta":10944928},{"NoteNumber":49,"Velocity":75,"Duration":107773,"SoundDuration":107773,"Delta":11044882},{"NoteNumber":37,"Velocity":60,"Duration":107773,"SoundDuration":107773,"Delta":11044882},{"NoteNumber":48,"Velocity":75,"Duration":108784,"SoundDuration":108784,"Delta":11144269},{"NoteNumber":36,"Velocity":60,"Duration":108784,"SoundDuration":108784,"Delta":11144269},{"NoteNumber":47,"Velocity":75,"Duration":108407,"SoundDuration":108407,"Delta":11244754},{"NoteNumber":35,"Velocity":60,"Duration":108407,"SoundDuration":108407,"Delta":11244754},{"NoteNumber":48,"Velocity":75,"Duration":108578,"SoundDuration":108578,"Delta":11344888},{"NoteNumber":36,"Velocity":60,"Duration":108578,"SoundDuration":108578,"Delta":11344888},{"NoteNumber":49,"Velocity":75,"Duration":108412,"SoundDuration":108412,"Delta":11445021},{"NoteNumber":37,"Velocity":60,"Duration":108412,"SoundDuration":108412,"Delta":11445021},{"NoteNumber":48,"Velocity":75,"Duration":109453,"SoundDuration":109453,"Delta":11545047},{"NoteNumber":36,"Velocity":60,"Duration":109453,"SoundDuration":109453,"Delta":11545047},{"NoteNumber":47,"Velocity":75,"Duration":109319,"SoundDuration":109319,"Delta":11646084},{"NoteNumber":35,"Velocity":60,"Duration":109319,"SoundDuration":109319,"Delta":11646084},{"NoteNumber":48,"Velocity":75,"Duration":108121,"SoundDuration":108121,"Delta":11747074},{"NoteNumber":36,"Velocity":60,"Duration":108121,"SoundDuration":108121,"Delta":11747074},{"NoteNumber":49,"Velocity":75,"Duration":108698,"SoundDuration":108698,"Delta":11846809},{"NoteNumber":37,"Velocity":60,"Duration":108698,"SoundDuration":108698,"Delta":11846809},{"NoteNumber":48,"Velocity":75,"Duration":108838,"SoundDuration":108838,"Delta":11947207},{"NoteNumber":36,"Velocity":60,"Duration":108838,"SoundDuration":108838,"Delta":11947207},{"NoteNumber":47,"Velocity":75,"Duration":108501,"SoundDuration":108501,"Delta":12047629},{"NoteNumber":35,"Velocity":60,"Duration":108501,"SoundDuration":108501,"Delta":12047629},{"NoteNumber":48,"Velocity":75,"Duration":109265,"SoundDuration":109265,"Delta":12147745},{"NoteNumber":36,"Velocity":60,"Duration":109265,"SoundDuration":109265,"Delta":12147745},{"NoteNumber":49,"Velocity":75,"Duration":109161,"SoundDuration":109161,"Delta":12248652},{"NoteNumber":37,"Velocity":60,"Duration":109161,"SoundDuration":109161,"Delta":12248652},{"NoteNumber":48,"Velocity":75,"Duration":109988,"SoundDuration":109988,"Delta":12349427},{"NoteNumber":36,"Velocity":60,"Duration":109988,"SoundDuration":109988,"Delta":12349427},{"NoteNumber":47,"Velocity":75,"Duration":114934,"SoundDuration":114934,"Delta":12450539},{"NoteNumber":35,"Velocity":60,"Duration":114934,"SoundDuration":114934,"Delta":12450539},{"NoteNumber":46,"Velocity":74,"Duration":109539,"SoundDuration":109539,"Delta":12557065},{"NoteNumber":34,"Velocity":57,"Duration":109539,"SoundDuration":109539,"Delta":12557065},{"NoteNumber":48,"Velocity":74,"Duration":109434,"SoundDuration":109434,"Delta":12658117},{"NoteNumber":36,"Velocity":57,"Duration":109434,"SoundDuration":109434,"Delta":12658117},{"NoteNumber":46,"Velocity":74,"Duration":109782,"SoundDuration":109782,"Delta":12759222},{"NoteNumber":34,"Velocity":57,"Duration":109782,"SoundDuration":109782,"Delta":12759222},{"NoteNumber":45,"Velocity":74,"Duration":110203,"SoundDuration":110203,"Delta":12860490},{"NoteNumber":33,"Velocity":57,"Duration":110203,"SoundDuration":110203,"Delta":12860490},{"NoteNumber":46,"Velocity":74,"Duration":108967,"SoundDuration":108967,"Delta":12962338},{"NoteNumber":34,"Velocity":57,"Duration":108967,"SoundDuration":108967,"Delta":12962338},{"NoteNumber":48,"Velocity":74,"Duration":110120,"SoundDuration":110120,"Delta":13062818},{"NoteNumber":36,"Velocity":57,"Duration":110120,"SoundDuration":110120,"Delta":13062818},{"NoteNumber":46,"Velocity":74,"Duration":110499,"SoundDuration":110499,"Delta":13164504},{"NoteNumber":34,"Velocity":57,"Duration":110499,"SoundDuration":110499,"Delta":13164504},{"NoteNumber":45,"Velocity":74,"Duration":113475,"SoundDuration":113475,"Delta":13266191},{"NoteNumber":33,"Velocity":57,"Duration":113475,"SoundDuration":113475,"Delta":13266191},{"NoteNumber":46,"Velocity":74,"Duration":109484,"SoundDuration":109484,"Delta":13371233},{"NoteNumber":34,"Velocity":57,"Duration":109484,"SoundDuration":109484,"Delta":13371233},{"NoteNumber":48,"Velocity":74,"Duration":108935,"SoundDuration":108935,"Delta":13472336},{"NoteNumber":36,"Velocity":56,"Duration":108935,"SoundDuration":108935,"Delta":13472336},{"NoteNumber":46,"Velocity":74,"Duration":109589,"SoundDuration":109589,"Delta":13572811},{"NoteNumber":34,"Velocity":56,"Duration":109589,"SoundDuration":109589,"Delta":13572811},{"NoteNumber":45,"Velocity":74,"Duration":109829,"SoundDuration":109829,"Delta":13674019},{"NoteNumber":33,"Velocity":56,"Duration":109829,"SoundDuration":109829,"Delta":13674019},{"NoteNumber":46,"Velocity":73,"Duration":109301,"SoundDuration":109301,"Delta":13775389},{"NoteNumber":34,"Velocity":55,"Duration":109301,"SoundDuration":109301,"Delta":13775389},{"NoteNumber":48,"Velocity":73,"Duration":109935,"SoundDuration":109935,"Delta":13876230},{"NoteNumber":36,"Velocity":55,"Duration":109935,"SoundDuration":109935,"Delta":13876230},{"NoteNumber":46,"Velocity":73,"Duration":110041,"SoundDuration":110041,"Delta":13977810},{"NoteNumber":34,"Velocity":55,"Duration":110041,"SoundDuration":110041,"Delta":13977810},{"NoteNumber":45,"Velocity":73,"Duration":113774,"SoundDuration":113774,"Delta":14079071},{"NoteNumber":33,"Velocity":55,"Duration":113774,"SoundDuration":113774,"Delta":14079071},{"NoteNumber":46,"Velocity":74,"Duration":109302,"SoundDuration":109302,"Delta":14184437},{"NoteNumber":34,"Velocity":55,"Duration":109302,"SoundDuration":109302,"Delta":14184437},{"NoteNumber":48,"Velocity":72,"Duration":109537,"SoundDuration":109537,"Delta":14285332},{"NoteNumber":36,"Velocity":54,"Duration":109537,"SoundDuration":109537,"Delta":14285332},{"NoteNumber":46,"Velocity":70,"Duration":109772,"SoundDuration":109772,"Delta":14386435},{"NoteNumber":34,"Velocity":53,"Duration":109772,"SoundDuration":109772,"Delta":14386435},{"NoteNumber":45,"Velocity":68,"Duration":110009,"SoundDuration":110009,"Delta":14487748},{"NoteNumber":33,"Velocity":52,"Duration":110009,"SoundDuration":110009,"Delta":14487748},{"NoteNumber":46,"Velocity":67,"Duration":110333,"SoundDuration":110333,"Delta":14589271},{"NoteNumber":34,"Velocity":51,"Duration":110333,"SoundDuration":110333,"Delta":14589271},{"NoteNumber":48,"Velocity":65,"Duration":110573,"SoundDuration":110573,"Delta":14691118},{"NoteNumber":36,"Velocity":50,"Duration":110573,"SoundDuration":110573,"Delta":14691118},{"NoteNumber":46,"Velocity":63,"Duration":111138,"SoundDuration":111138,"Delta":14793177},{"NoteNumber":34,"Velocity":49,"Duration":111138,"SoundDuration":111138,"Delta":14793177},{"NoteNumber":45,"Velocity":61,"Duration":113016,"SoundDuration":113016,"Delta":14895504},{"NoteNumber":33,"Velocity":48,"Duration":113016,"SoundDuration":113016,"Delta":14895504},{"NoteNumber":46,"Velocity":60,"Duration":111005,"SoundDuration":111005,"Delta":15000017},{"NoteNumber":34,"Velocity":47,"Duration":111005,"SoundDuration":111005,"Delta":15000017},{"NoteNumber":43,"Velocity":58,"Duration":112027,"SoundDuration":112027,"Delta":15102427},{"NoteNumber":31,"Velocity":46,"Duration":112027,"SoundDuration":112027,"Delta":15102427},{"NoteNumber":44,"Velocity":56,"Duration":112986,"SoundDuration":112986,"Delta":15205800},{"NoteNumber":32,"Velocity":45,"Duration":112986,"SoundDuration":112986,"Delta":15205800},{"NoteNumber":46,"Velocity":54,"Duration":113923,"SoundDuration":113923,"Delta":15310037},{"NoteNumber":34,"Velocity":44,"Duration":113923,"SoundDuration":113923,"Delta":15310037},{"NoteNumber":48,"Velocity":53,"Duration":115007,"SoundDuration":115007,"Delta":15415148},{"NoteNumber":36,"Velocity":43,"Duration":115007,"SoundDuration":115007,"Delta":15415148},{"NoteNumber":46,"Velocity":51,"Duration":115888,"SoundDuration":115888,"Delta":15521279},{"NoteNumber":34,"Velocity":42,"Duration":115888,"SoundDuration":115888,"Delta":15521279},{"NoteNumber":44,"Velocity":49,"Duration":117004,"SoundDuration":117004,"Delta":15628194},{"NoteNumber":32,"Velocity":41,"Duration":117004,"SoundDuration":117004,"Delta":15628194},{"NoteNumber":43,"Velocity":47,"Duration":117590,"SoundDuration":117590,"Delta":15736157},{"NoteNumber":31,"Velocity":40,"Duration":117590,"SoundDuration":117590,"Delta":15736157},{"NoteNumber":29,"Velocity":39,"Duration":415588,"SoundDuration":415588,"Delta":15845061},{"NoteNumber":48,"Velocity":40,"Duration":104094,"SoundDuration":104094,"Delta":15949300},{"NoteNumber":53,"Velocity":37,"Duration":103806,"SoundDuration":103806,"Delta":16053395},{"NoteNumber":56,"Velocity":37,"Duration":103448,"SoundDuration":103448,"Delta":16157201},{"NoteNumber":60,"Velocity":40,"Duration":103092,"SoundDuration":103092,"Delta":16260649},{"NoteNumber":61,"Velocity":38,"Duration":103092,"SoundDuration":103092,"Delta":16363742},{"NoteNumber":60,"Velocity":38,"Duration":103211,"SoundDuration":103211,"Delta":16466835},{"NoteNumber":58,"Velocity":38,"Duration":103448,"SoundDuration":103448,"Delta":16570046},{"NoteNumber":56,"Velocity":40,"Duration":103448,"SoundDuration":103448,"Delta":16673494},{"NoteNumber":58,"Velocity":37,"Duration":103686,"SoundDuration":103686,"Delta":16776943},{"NoteNumber":56,"Velocity":37,"Duration":103806,"SoundDuration":103806,"Delta":16880630},{"NoteNumber":55,"Velocity":37,"Duration":103806,"SoundDuration":103806,"Delta":16984436},{"NoteNumber":53,"Velocity":40,"Duration":104166,"SoundDuration":104166,"Delta":17088242},{"NoteNumber":55,"Velocity":37,"Duration":104166,"SoundDuration":104166,"Delta":17192409},{"NoteNumber":56,"Velocity":37,"Duration":104287,"SoundDuration":104287,"Delta":17296576},{"NoteNumber":53,"Velocity":37,"Duration":108498,"SoundDuration":108498,"Delta":17400863},{"NoteNumber":41,"Velocity":35,"Duration":108498,"SoundDuration":108498,"Delta":17400863},{"NoteNumber":29,"Velocity":40,"Duration":414968,"SoundDuration":414968,"Delta":17509362},{"NoteNumber":48,"Velocity":40,"Duration":103950,"SoundDuration":103950,"Delta":17613601},{"NoteNumber":53,"Velocity":37,"Duration":103567,"SoundDuration":103567,"Delta":17717552},{"NoteNumber":56,"Velocity":37,"Duration":103211,"SoundDuration":103211,"Delta":17821119},{"NoteNumber":60,"Velocity":40,"Duration":102739,"SoundDuration":102739,"Delta":17924331},{"NoteNumber":61,"Velocity":38,"Duration":102739,"SoundDuration":102739,"Delta":18027070},{"NoteNumber":60,"Velocity":38,"Duration":102739,"SoundDuration":102739,"Delta":18129810},{"NoteNumber":58,"Velocity":38,"Duration":102857,"SoundDuration":102857,"Delta":18232550},{"NoteNumber":56,"Velocity":40,"Duration":103092,"SoundDuration":103092,"Delta":18335407},{"NoteNumber":58,"Velocity":37,"Duration":103092,"SoundDuration":103092,"Delta":18438500},{"NoteNumber":56,"Velocity":37,"Duration":103448,"SoundDuration":103448,"Delta":18541593},{"NoteNumber":55,"Velocity":37,"Duration":103448,"SoundDuration":103448,"Delta":18645041},{"NoteNumber":53,"Velocity":40,"Duration":103686,"SoundDuration":103686,"Delta":18748489},{"NoteNumber":55,"Velocity":37,"Duration":103806,"SoundDuration":103806,"Delta":18852176},{"NoteNumber":56,"Velocity":37,"Duration":103926,"SoundDuration":103926,"Delta":18955982},{"NoteNumber":53,"Velocity":37,"Duration":108908,"SoundDuration":108908,"Delta":19059909},{"NoteNumber":41,"Velocity":35,"Duration":108908,"SoundDuration":108908,"Delta":19059909},{"NoteNumber":34,"Velocity":40,"Duration":416258,"SoundDuration":416258,"Delta":19168818},{"NoteNumber":49,"Velocity":44,"Duration":104166,"SoundDuration":104166,"Delta":19273057},{"NoteNumber":54,"Velocity":40,"Duration":104046,"SoundDuration":104046,"Delta":19377223},{"NoteNumber":58,"Velocity":40,"Duration":103806,"SoundDuration":103806,"Delta":19481270},{"NoteNumber":61,"Velocity":44,"Duration":103448,"SoundDuration":103448,"Delta":19585076},{"NoteNumber":63,"Velocity":41,"Duration":103448,"SoundDuration":103448,"Delta":19688524},{"NoteNumber":61,"Velocity":41,"Duration":103567,"SoundDuration":103567,"Delta":19791973},{"NoteNumber":60,"Velocity":41,"Duration":103806,"SoundDuration":103806,"Delta":19895540},{"NoteNumber":58,"Velocity":44,"Duration":103806,"SoundDuration":103806,"Delta":19999347},{"NoteNumber":60,"Velocity":40,"Duration":104046,"SoundDuration":104046,"Delta":20103153},{"NoteNumber":58,"Velocity":40,"Duration":104166,"SoundDuration":104166,"Delta":20207199},{"NoteNumber":56,"Velocity":40,"Duration":104166,"SoundDuration":104166,"Delta":20311366},{"NoteNumber":54,"Velocity":44,"Duration":104529,"SoundDuration":104529,"Delta":20415533},{"NoteNumber":56,"Velocity":40,"Duration":104529,"SoundDuration":104529,"Delta":20520062},{"NoteNumber":54,"Velocity":40,"Duration":104651,"SoundDuration":104651,"Delta":20624592},{"NoteNumber":53,"Velocity":40,"Duration":108908,"SoundDuration":108908,"Delta":20729243},{"NoteNumber":37,"Velocity":36,"Duration":108908,"SoundDuration":108908,"Delta":20729243},{"NoteNumber":52,"Velocity":44,"Duration":105366,"SoundDuration":105366,"Delta":20838152},{"NoteNumber":36,"Velocity":40,"Duration":210733,"SoundDuration":210733,"Delta":20838152},{"NoteNumber":53,"Velocity":40,"Duration":105366,"SoundDuration":105366,"Delta":20943519},{"NoteNumber":55,"Velocity":40,"Duration":105366,"SoundDuration":105366,"Delta":21048885},{"NoteNumber":52,"Velocity":40,"Duration":108498,"SoundDuration":108498,"Delta":21154252},{"NoteNumber":53,"Velocity":44,"Duration":105745,"SoundDuration":105745,"Delta":21262751},{"NoteNumber":37,"Velocity":38,"Duration":211490,"SoundDuration":211490,"Delta":21262751},{"NoteNumber":55,"Velocity":40,"Duration":105745,"SoundDuration":105745,"Delta":21368497},{"NoteNumber":56,"Velocity":40,"Duration":105745,"SoundDuration":105745,"Delta":21474242},{"NoteNumber":53,"Velocity":40,"Duration":108908,"SoundDuration":108908,"Delta":21579988},{"NoteNumber":55,"Velocity":44,"Duration":105366,"SoundDuration":105366,"Delta":21688896},{"NoteNumber":34,"Velocity":40,"Duration":210733,"SoundDuration":210733,"Delta":21688896},{"NoteNumber":56,"Velocity":40,"Duration":105366,"SoundDuration":105366,"Delta":21794263},{"NoteNumber":58,"Velocity":40,"Duration":105366,"SoundDuration":105366,"Delta":21899630},{"NoteNumber":55,"Velocity":40,"Duration":108498,"SoundDuration":108498,"Delta":22004997},{"NoteNumber":52,"Velocity":44,"Duration":105366,"SoundDuration":105366,"Delta":22113496},{"NoteNumber":36,"Velocity":37,"Duration":210733,"SoundDuration":210733,"Delta":22113496},{"NoteNumber":53,"Velocity":37,"Duration":105366,"SoundDuration":105366,"Delta":22218862},{"NoteNumber":55,"Velocity":38,"Duration":105366,"SoundDuration":105366,"Delta":22324229},{"NoteNumber":52,"Velocity":40,"Duration":108908,"SoundDuration":108908,"Delta":22429596},{"NoteNumber":53,"Velocity":44,"Duration":104238,"SoundDuration":104238,"Delta":22538505},{"NoteNumber":41,"Velocity":40,"Duration":416955,"SoundDuration":416955,"Delta":22538505},{"NoteNumber":29,"Velocity":40,"Duration":416955,"SoundDuration":416955,"Delta":22538505},{"NoteNumber":48,"Velocity":40,"Duration":104238,"SoundDuration":104238,"Delta":22642744},{"NoteNumber":53,"Velocity":37,"Duration":104238,"SoundDuration":104238,"Delta":22746983},{"NoteNumber":56,"Velocity":37,"Duration":104238,"SoundDuration":104238,"Delta":22851222},{"NoteNumber":60,"Velocity":40,"Duration":104238,"SoundDuration":104238,"Delta":22955461},{"NoteNumber":61,"Velocity":38,"Duration":104238,"SoundDuration":104238,"Delta":23059700},{"NoteNumber":60,"Velocity":38,"Duration":106541,"SoundDuration":106541,"Delta":23163939},{"NoteNumber":58,"Velocity":38,"Duration":106541,"SoundDuration":106541,"Delta":23270480},{"NoteNumber":72,"Velocity":49,"Duration":106541,"SoundDuration":106541,"Delta":23270480},{"NoteNumber":68,"Velocity":49,"Duration":106541,"SoundDuration":106541,"Delta":23270480},{"NoteNumber":56,"Velocity":40,"Duration":104137,"SoundDuration":104137,"Delta":23377022},{"NoteNumber":68,"Velocity":57,"Duration":416550,"SoundDuration":416550,"Delta":23377022},{"NoteNumber":72,"Velocity":57,"Duration":416550,"SoundDuration":416550,"Delta":23377022},{"NoteNumber":58,"Velocity":37,"Duration":104137,"SoundDuration":104137,"Delta":23481160},{"NoteNumber":56,"Velocity":37,"Duration":104137,"SoundDuration":104137,"Delta":23585298},{"NoteNumber":55,"Velocity":37,"Duration":104137,"SoundDuration":104137,"Delta":23689435},{"NoteNumber":53,"Velocity":40,"Duration":104137,"SoundDuration":104137,"Delta":23793573},{"NoteNumber":68,"Velocity":30,"Duration":208275,"SoundDuration":208275,"Delta":23793573},{"NoteNumber":65,"Velocity":30,"Duration":208275,"SoundDuration":208275,"Delta":23793573},{"NoteNumber":55,"Velocity":37,"Duration":104137,"SoundDuration":104137,"Delta":23897711},{"NoteNumber":56,"Velocity":37,"Duration":104137,"SoundDuration":104137,"Delta":24001849},{"NoteNumber":53,"Velocity":37,"Duration":108498,"SoundDuration":108498,"Delta":24105986},{"NoteNumber":41,"Velocity":40,"Duration":416955,"SoundDuration":416955,"Delta":24214485},{"NoteNumber":29,"Velocity":40,"Duration":416955,"SoundDuration":416955,"Delta":24214485},{"NoteNumber":48,"Velocity":40,"Duration":104238,"SoundDuration":104238,"Delta":24318724},{"NoteNumber":53,"Velocity":37,"Duration":104238,"SoundDuration":104238,"Delta":24422963},{"NoteNumber":56,"Velocity":37,"Duration":104238,"SoundDuration":104238,"Delta":24527202},{"NoteNumber":60,"Velocity":40,"Duration":104238,"SoundDuration":104238,"Delta":24631441},{"NoteNumber":61,"Velocity":38,"Duration":104238,"SoundDuration":104238,"Delta":24735680},{"NoteNumber":60,"Velocity":38,"Duration":105834,"SoundDuration":105834,"Delta":24839919},{"NoteNumber":58,"Velocity":38,"Duration":105835,"SoundDuration":105835,"Delta":24945754},{"NoteNumber":68,"Velocity":51,"Duration":105835,"SoundDuration":105835,"Delta":24945754},{"NoteNumber":72,"Velocity":51,"Duration":105835,"SoundDuration":105835,"Delta":24945754},{"NoteNumber":56,"Velocity":40,"Duration":104137,"SoundDuration":104137,"Delta":25051589},{"NoteNumber":72,"Velocity":56,"Duration":416550,"SoundDuration":416550,"Delta":25051589},{"NoteNumber":68,"Velocity":56,"Duration":416550,"SoundDuration":416550,"Delta":25051589},{"NoteNumber":58,"Velocity":37,"Duration":104137,"SoundDuration":104137,"Delta":25155727},{"NoteNumber":56,"Velocity":37,"Duration":104137,"SoundDuration":104137,"Delta":25259865},{"NoteNumber":55,"Velocity":37,"Duration":104137,"SoundDuration":104137,"Delta":25364003},{"NoteNumber":53,"Velocity":40,"Duration":104137,"SoundDuration":104137,"Delta":25468140},{"NoteNumber":65,"Velocity":30,"Duration":208275,"SoundDuration":208275,"Delta":25468140},{"NoteNumber":68,"Velocity":30,"Duration":208275,"SoundDuration":208275,"Delta":25468140},{"NoteNumber":55,"Velocity":37,"Duration":104137,"SoundDuration":104137,"Delta":25572278},{"NoteNumber":56,"Velocity":37,"Duration":104137,"SoundDuration":104137,"Delta":25676416},{"NoteNumber":53,"Velocity":37,"Duration":108908,"SoundDuration":108908,"Delta":25780554},{"NoteNumber":34,"Velocity":40,"Duration":416955,"SoundDuration":416955,"Delta":25889462},{"NoteNumber":46,"Velocity":40,"Duration":416955,"SoundDuration":416955,"Delta":25889462},{"NoteNumber":49,"Velocity":44,"Duration":104238,"SoundDuration":104238,"Delta":25993701},{"NoteNumber":54,"Velocity":40,"Duration":104238,"SoundDuration":104238,"Delta":26097940},{"NoteNumber":58,"Velocity":40,"Duration":104238,"SoundDuration":104238,"Delta":26202179},{"NoteNumber":61,"Velocity":44,"Duration":104238,"SoundDuration":104238,"Delta":26306418},{"NoteNumber":63,"Velocity":41,"Duration":104238,"SoundDuration":104238,"Delta":26410657},{"NoteNumber":61,"Velocity":41,"Duration":106179,"SoundDuration":106179,"Delta":26514896},{"NoteNumber":60,"Velocity":41,"Duration":106179,"SoundDuration":106179,"Delta":26621076},{"NoteNumber":70,"Velocity":63,"Duration":106179,"SoundDuration":106179,"Delta":26621076},{"NoteNumber":73,"Velocity":63,"Duration":106179,"SoundDuration":106179,"Delta":26621076},{"NoteNumber":58,"Velocity":44,"Duration":104137,"SoundDuration":104137,"Delta":26727256},{"NoteNumber":73,"Velocity":70,"Duration":837873,"SoundDuration":837873,"Delta":26727256},{"NoteNumber":70,"Velocity":70,"Duration":837873,"SoundDuration":837873,"Delta":26727256},{"NoteNumber":60,"Velocity":40,"Duration":104137,"SoundDuration":104137,"Delta":26831394},{"NoteNumber":58,"Velocity":40,"Duration":104137,"SoundDuration":104137,"Delta":26935531},{"NoteNumber":56,"Velocity":40,"Duration":104137,"SoundDuration":104137,"Delta":27039669},{"NoteNumber":54,"Velocity":44,"Duration":104137,"SoundDuration":104137,"Delta":27143807},{"NoteNumber":56,"Velocity":40,"Duration":104137,"SoundDuration":104137,"Delta":27247945},{"NoteNumber":54,"Velocity":40,"Duration":104137,"SoundDuration":104137,"Delta":27352082},{"NoteNumber":53,"Velocity":40,"Duration":108908,"SoundDuration":108908,"Delta":27456220},{"NoteNumber":52,"Velocity":44,"Duration":105366,"SoundDuration":105366,"Delta":27565129},{"NoteNumber":70,"Velocity":51,"Duration":210733,"SoundDuration":210733,"Delta":27565129},{"NoteNumber":72,"Velocity":51,"Duration":210733,"SoundDuration":210733,"Delta":27565129},{"NoteNumber":53,"Velocity":40,"Duration":105366,"SoundDuration":105366,"Delta":27670496},{"NoteNumber":55,"Velocity":40,"Duration":105366,"SoundDuration":105366,"Delta":27775862},{"NoteNumber":48,"Velocity":43,"Duration":213865,"SoundDuration":213865,"Delta":27775862},{"NoteNumber":36,"Velocity":43,"Duration":213865,"SoundDuration":213865,"Delta":27775862},{"NoteNumber":52,"Velocity":40,"Duration":108498,"SoundDuration":108498,"Delta":27881229},{"NoteNumber":53,"Velocity":44,"Duration":105745,"SoundDuration":105745,"Delta":27989728},{"NoteNumber":55,"Velocity":40,"Duration":105745,"SoundDuration":105745,"Delta":28095474},{"NoteNumber":56,"Velocity":40,"Duration":105745,"SoundDuration":105745,"Delta":28201219},{"NoteNumber":37,"Velocity":37,"Duration":214654,"SoundDuration":214654,"Delta":28201219},{"NoteNumber":49,"Velocity":37,"Duration":214654,"SoundDuration":214654,"Delta":28201219},{"NoteNumber":53,"Velocity":40,"Duration":108908,"SoundDuration":108908,"Delta":28306965},{"NoteNumber":55,"Velocity":44,"Duration":106179,"SoundDuration":106179,"Delta":28415873},{"NoteNumber":56,"Velocity":40,"Duration":106179,"SoundDuration":106179,"Delta":28522053},{"NoteNumber":58,"Velocity":40,"Duration":106179,"SoundDuration":106179,"Delta":28628233},{"NoteNumber":34,"Velocity":39,"Duration":214678,"SoundDuration":214678,"Delta":28628233},{"NoteNumber":46,"Velocity":39,"Duration":214678,"SoundDuration":214678,"Delta":28628233},{"NoteNumber":55,"Velocity":40,"Duration":108498,"SoundDuration":108498,"Delta":28734413},{"NoteNumber":52,"Velocity":44,"Duration":105834,"SoundDuration":105834,"Delta":28842912},{"NoteNumber":53,"Velocity":37,"Duration":105835,"SoundDuration":105835,"Delta":28948747},{"NoteNumber":55,"Velocity":38,"Duration":105834,"SoundDuration":105834,"Delta":29054582},{"NoteNumber":48,"Velocity":35,"Duration":214743,"SoundDuration":214743,"Delta":29054582},{"NoteNumber":36,"Velocity":35,"Duration":214743,"SoundDuration":214743,"Delta":29054582},{"NoteNumber":52,"Velocity":40,"Duration":108908,"SoundDuration":108908,"Delta":29160417},{"NoteNumber":53,"Velocity":37,"Duration":104137,"SoundDuration":104137,"Delta":29269325},{"NoteNumber":29,"Velocity":44,"Duration":416550,"SoundDuration":416550,"Delta":29269325},{"NoteNumber":41,"Velocity":44,"Duration":416550,"SoundDuration":416550,"Delta":29269325},{"NoteNumber":60,"Velocity":38,"Duration":104137,"SoundDuration":104137,"Delta":29373463},{"NoteNumber":65,"Velocity":40,"Duration":104137,"SoundDuration":104137,"Delta":29477601},{"NoteNumber":68,"Velocity":42,"Duration":104137,"SoundDuration":104137,"Delta":29581739},{"NoteNumber":72,"Velocity":43,"Duration":104137,"SoundDuration":104137,"Delta":29685876},{"NoteNumber":60,"Velocity":45,"Duration":104137,"SoundDuration":104137,"Delta":29790014},{"NoteNumber":65,"Velocity":46,"Duration":104137,"SoundDuration":104137,"Delta":29894152},{"NoteNumber":68,"Velocity":48,"Duration":108687,"SoundDuration":108687,"Delta":29998290},{"NoteNumber":56,"Velocity":52,"Duration":108687,"SoundDuration":108687,"Delta":29998290},{"NoteNumber":53,"Velocity":52,"Duration":108687,"SoundDuration":108687,"Delta":29998290},{"NoteNumber":53,"Velocity":65,"Duration":416550,"SoundDuration":416550,"Delta":30106977},{"NoteNumber":56,"Velocity":65,"Duration":416550,"SoundDuration":416550,"Delta":30106977},{"NoteNumber":60,"Velocity":46,"Duration":104137,"SoundDuration":104137,"Delta":30211115},{"NoteNumber":65,"Velocity":47,"Duration":104137,"SoundDuration":104137,"Delta":30315253},{"NoteNumber":68,"Velocity":49,"Duration":104137,"SoundDuration":104137,"Delta":30419391},{"NoteNumber":72,"Velocity":50,"Duration":104137,"SoundDuration":104137,"Delta":30523528},{"NoteNumber":60,"Velocity":52,"Duration":104137,"SoundDuration":104137,"Delta":30627666},{"NoteNumber":65,"Velocity":53,"Duration":104137,"SoundDuration":104137,"Delta":30731804},{"NoteNumber":68,"Velocity":38,"Duration":108319,"SoundDuration":108319,"Delta":30835942},{"NoteNumber":56,"Velocity":54,"Duration":108319,"SoundDuration":108319,"Delta":30835942},{"NoteNumber":53,"Velocity":54,"Duration":108319,"SoundDuration":108319,"Delta":30835942},{"NoteNumber":48,"Velocity":66,"Duration":849742,"SoundDuration":849742,"Delta":30944261},{"NoteNumber":56,"Velocity":66,"Duration":849742,"SoundDuration":849742,"Delta":30944261},{"NoteNumber":53,"Velocity":66,"Duration":849742,"SoundDuration":849742,"Delta":30944261},{"NoteNumber":59,"Velocity":51,"Duration":105263,"SoundDuration":105263,"Delta":31049156},{"NoteNumber":62,"Velocity":52,"Duration":105633,"SoundDuration":105633,"Delta":31154419},{"NoteNumber":68,"Velocity":52,"Duration":106007,"SoundDuration":106007,"Delta":31260053},{"NoteNumber":71,"Velocity":54,"Duration":427943,"SoundDuration":427943,"Delta":31366060},{"NoteNumber":59,"Velocity":52,"Duration":106761,"SoundDuration":106761,"Delta":31472443},{"NoteNumber":62,"Velocity":52,"Duration":107142,"SoundDuration":107142,"Delta":31579204},{"NoteNumber":68,"Velocity":52,"Duration":107655,"SoundDuration":107655,"Delta":31686347},{"NoteNumber":71,"Velocity":54,"Duration":426044,"SoundDuration":426044,"Delta":31794003},{"NoteNumber":48,"Velocity":48,"Duration":213904,"SoundDuration":213904,"Delta":31794003},{"NoteNumber":52,"Velocity":48,"Duration":213904,"SoundDuration":213904,"Delta":31794003},{"NoteNumber":55,"Velocity":48,"Duration":213904,"SoundDuration":213904,"Delta":31794003},{"NoteNumber":59,"Velocity":52,"Duration":106761,"SoundDuration":106761,"Delta":31901146},{"NoteNumber":64,"Velocity":50,"Duration":106257,"SoundDuration":106257,"Delta":32007907},{"NoteNumber":67,"Velocity":49,"Duration":105882,"SoundDuration":105882,"Delta":32114165},{"NoteNumber":72,"Velocity":52,"Duration":418980,"SoundDuration":418980,"Delta":32220047},{"NoteNumber":60,"Velocity":46,"Duration":105017,"SoundDuration":105017,"Delta":32325434},{"NoteNumber":64,"Velocity":44,"Duration":104529,"SoundDuration":104529,"Delta":32430452},{"NoteNumber":67,"Velocity":38,"Duration":104046,"SoundDuration":104046,"Delta":32534981},{"NoteNumber":36,"Velocity":42,"Duration":416550,"SoundDuration":416550,"Delta":32639028},{"NoteNumber":48,"Velocity":42,"Duration":416550,"SoundDuration":416550,"Delta":32639028},{"NoteNumber":60,"Velocity":38,"Duration":104137,"SoundDuration":104137,"Delta":32743166},{"NoteNumber":64,"Velocity":40,"Duration":104137,"SoundDuration":104137,"Delta":32847303},{"NoteNumber":67,"Velocity":42,"Duration":104137,"SoundDuration":104137,"Delta":32951441},{"NoteNumber":72,"Velocity":43,"Duration":104137,"SoundDuration":104137,"Delta":33055579},{"NoteNumber":60,"Velocity":45,"Duration":104137,"SoundDuration":104137,"Delta":33159717},{"NoteNumber":64,"Velocity":46,"Duration":104137,"SoundDuration":104137,"Delta":33263854},{"NoteNumber":67,"Velocity":48,"Duration":108687,"SoundDuration":108687,"Delta":33367992},{"NoteNumber":58,"Velocity":60,"Duration":108687,"SoundDuration":108687,"Delta":33367992},{"NoteNumber":55,"Velocity":60,"Duration":108687,"SoundDuration":108687,"Delta":33367992},{"NoteNumber":58,"Velocity":68,"Duration":416550,"SoundDuration":416550,"Delta":33476680},{"NoteNumber":55,"Velocity":68,"Duration":416550,"SoundDuration":416550,"Delta":33476680},{"NoteNumber":60,"Velocity":46,"Duration":104137,"SoundDuration":104137,"Delta":33580818},{"NoteNumber":64,"Velocity":47,"Duration":104137,"SoundDuration":104137,"Delta":33684955},{"NoteNumber":67,"Velocity":49,"Duration":104137,"SoundDuration":104137,"Delta":33789093},{"NoteNumber":72,"Velocity":50,"Duration":104137,"SoundDuration":104137,"Delta":33893231},{"NoteNumber":60,"Velocity":52,"Duration":104137,"SoundDuration":104137,"Delta":33997369},{"NoteNumber":64,"Velocity":53,"Duration":104137,"SoundDuration":104137,"Delta":34101506},{"NoteNumber":67,"Velocity":38,"Duration":108319,"SoundDuration":108319,"Delta":34205644},{"NoteNumber":55,"Velocity":61,"Duration":108319,"SoundDuration":108319,"Delta":34205644},{"NoteNumber":58,"Velocity":61,"Duration":108319,"SoundDuration":108319,"Delta":34205644},{"NoteNumber":53,"Velocity":58,"Duration":848411,"SoundDuration":848411,"Delta":34313963},{"NoteNumber":58,"Velocity":69,"Duration":848411,"SoundDuration":848411,"Delta":34313963},{"NoteNumber":55,"Velocity":58,"Duration":848411,"SoundDuration":848411,"Delta":34313963},{"NoteNumber":60,"Velocity":51,"Duration":105263,"SoundDuration":105263,"Delta":34419303},{"NoteNumber":64,"Velocity":52,"Duration":105633,"SoundDuration":105633,"Delta":34524566},{"NoteNumber":67,"Velocity":52,"Duration":105882,"SoundDuration":105882,"Delta":34630200},{"NoteNumber":72,"Velocity":54,"Duration":426292,"SoundDuration":426292,"Delta":34736083},{"NoteNumber":60,"Velocity":52,"Duration":106383,"SoundDuration":106383,"Delta":34842215},{"NoteNumber":64,"Velocity":52,"Duration":106761,"SoundDuration":106761,"Delta":34948598},{"NoteNumber":67,"Velocity":52,"Duration":107015,"SoundDuration":107015,"Delta":35055359},{"NoteNumber":72,"Velocity":53,"Duration":423783,"SoundDuration":423783,"Delta":35162375},{"NoteNumber":56,"Velocity":52,"Duration":212515,"SoundDuration":212515,"Delta":35162375},{"NoteNumber":53,"Velocity":47,"Duration":212515,"SoundDuration":212515,"Delta":35162375},{"NoteNumber":60,"Velocity":52,"Duration":106132,"SoundDuration":106132,"Delta":35268758},{"NoteNumber":64,"Velocity":50,"Duration":105758,"SoundDuration":105758,"Delta":35374890},{"NoteNumber":67,"Velocity":49,"Duration":105510,"SoundDuration":105510,"Delta":35480649},{"NoteNumber":72,"Velocity":47,"Duration":418492,"SoundDuration":418492,"Delta":35586159},{"NoteNumber":60,"Velocity":46,"Duration":104894,"SoundDuration":104894,"Delta":35691299},{"NoteNumber":65,"Velocity":44,"Duration":104529,"SoundDuration":104529,"Delta":35796194},{"NoteNumber":68,"Velocity":38,"Duration":103927,"SoundDuration":103927,"Delta":35900724},{"NoteNumber":41,"Velocity":45,"Duration":416550,"SoundDuration":416550,"Delta":36004651},{"NoteNumber":53,"Velocity":45,"Duration":416550,"SoundDuration":416550,"Delta":36004651},{"NoteNumber":65,"Velocity":38,"Duration":104137,"SoundDuration":104137,"Delta":36108789},{"NoteNumber":69,"Velocity":40,"Duration":104137,"SoundDuration":104137,"Delta":36212927},{"NoteNumber":72,"Velocity":42,"Duration":104137,"SoundDuration":104137,"Delta":36317064},{"NoteNumber":77,"Velocity":43,"Duration":104137,"SoundDuration":104137,"Delta":36421202},{"NoteNumber":65,"Velocity":45,"Duration":104137,"SoundDuration":104137,"Delta":36525340},{"NoteNumber":69,"Velocity":46,"Duration":104137,"SoundDuration":104137,"Delta":36629478},{"NoteNumber":72,"Velocity":48,"Duration":108687,"SoundDuration":108687,"Delta":36733615},{"NoteNumber":60,"Velocity":59,"Duration":108687,"SoundDuration":108687,"Delta":36733615},{"NoteNumber":63,"Velocity":59,"Duration":108687,"SoundDuration":108687,"Delta":36733615},{"NoteNumber":60,"Velocity":68,"Duration":416550,"SoundDuration":416550,"Delta":36842303},{"NoteNumber":63,"Velocity":68,"Duration":416550,"SoundDuration":416550,"Delta":36842303},{"NoteNumber":65,"Velocity":46,"Duration":104137,"SoundDuration":104137,"Delta":36946441},{"NoteNumber":69,"Velocity":47,"Duration":104137,"SoundDuration":104137,"Delta":37050579},{"NoteNumber":72,"Velocity":49,"Duration":104137,"SoundDuration":104137,"Delta":37154716},{"NoteNumber":77,"Velocity":50,"Duration":104137,"SoundDuration":104137,"Delta":37258854},{"NoteNumber":65,"Velocity":52,"Duration":104137,"SoundDuration":104137,"Delta":37362992},{"NoteNumber":69,"Velocity":53,"Duration":104137,"SoundDuration":104137,"Delta":37467130},{"NoteNumber":72,"Velocity":54,"Duration":108319,"SoundDuration":108319,"Delta":37571267},{"NoteNumber":63,"Velocity":66,"Duration":108319,"SoundDuration":108319,"Delta":37571267},{"NoteNumber":60,"Velocity":66,"Duration":108319,"SoundDuration":108319,"Delta":37571267},{"NoteNumber":60,"Velocity":72,"Duration":1052217,"SoundDuration":1052217,"Delta":37679586},{"NoteNumber":63,"Velocity":72,"Duration":1052217,"SoundDuration":1052217,"Delta":37679586},{"NoteNumber":58,"Velocity":72,"Duration":1052217,"SoundDuration":1052217,"Delta":37679586},{"NoteNumber":65,"Velocity":50,"Duration":105492,"SoundDuration":105492,"Delta":37785079},{"NoteNumber":69,"Velocity":50,"Duration":105492,"SoundDuration":105492,"Delta":37890572},{"NoteNumber":72,"Velocity":50,"Duration":105492,"SoundDuration":105492,"Delta":37996065},{"NoteNumber":77,"Velocity":55,"Duration":421970,"SoundDuration":421970,"Delta":38101557},{"NoteNumber":65,"Velocity":53,"Duration":105492,"SoundDuration":105492,"Delta":38207050},{"NoteNumber":69,"Velocity":52,"Duration":105492,"SoundDuration":105492,"Delta":38312543},{"NoteNumber":72,"Velocity":52,"Duration":105492,"SoundDuration":105492,"Delta":38418036},{"NoteNumber":65,"Velocity":54,"Duration":104137,"SoundDuration":104137,"Delta":38523528},{"NoteNumber":69,"Velocity":54,"Duration":104137,"SoundDuration":104137,"Delta":38523528},{"NoteNumber":77,"Velocity":54,"Duration":104137,"SoundDuration":104137,"Delta":38627666},{"NoteNumber":70,"Velocity":53,"Duration":105492,"SoundDuration":105492,"Delta":38731804},{"NoteNumber":65,"Velocity":53,"Duration":105492,"SoundDuration":105492,"Delta":38731804},{"NoteNumber":58,"Velocity":64,"Duration":210985,"SoundDuration":210985,"Delta":38731804},{"NoteNumber":61,"Velocity":64,"Duration":210985,"SoundDuration":210985,"Delta":38731804},{"NoteNumber":77,"Velocity":52,"Duration":105492,"SoundDuration":105492,"Delta":38837297},{"NoteNumber":72,"Velocity":52,"Duration":106006,"SoundDuration":106006,"Delta":38942789},{"NoteNumber":65,"Velocity":52,"Duration":106006,"SoundDuration":106006,"Delta":38942789},{"NoteNumber":60,"Velocity":61,"Duration":212014,"SoundDuration":212014,"Delta":38942789},{"NoteNumber":56,"Velocity":61,"Duration":212014,"SoundDuration":212014,"Delta":38942789},{"NoteNumber":77,"Velocity":51,"Duration":106007,"SoundDuration":106007,"Delta":39048796},{"NoteNumber":65,"Velocity":50,"Duration":106006,"SoundDuration":106006,"Delta":39154803},{"NoteNumber":73,"Velocity":50,"Duration":106006,"SoundDuration":106006,"Delta":39154803},{"NoteNumber":55,"Velocity":59,"Duration":212013,"SoundDuration":212013,"Delta":39154803},{"NoteNumber":58,"Velocity":59,"Duration":212013,"SoundDuration":212013,"Delta":39154803},{"NoteNumber":77,"Velocity":50,"Duration":106006,"SoundDuration":106006,"Delta":39260810},{"NoteNumber":53,"Velocity":56,"Duration":416550,"SoundDuration":416550,"Delta":39366817},{"NoteNumber":56,"Velocity":56,"Duration":416550,"SoundDuration":416550,"Delta":39366817},{"NoteNumber":48,"Velocity":56,"Duration":416550,"SoundDuration":416550,"Delta":39366817},{"NoteNumber":60,"Velocity":52,"Duration":104137,"SoundDuration":104137,"Delta":39470955},{"NoteNumber":65,"Velocity":49,"Duration":104137,"SoundDuration":104137,"Delta":39575093},{"NoteNumber":68,"Velocity":50,"Duration":104137,"SoundDuration":104137,"Delta":39679231},{"NoteNumber":72,"Velocity":56,"Duration":422198,"SoundDuration":422198,"Delta":39783368},{"NoteNumber":60,"Velocity":50,"Duration":104137,"SoundDuration":104137,"Delta":39887506},{"NoteNumber":65,"Velocity":50,"Duration":104137,"SoundDuration":104137,"Delta":39991644},{"NoteNumber":68,"Velocity":50,"Duration":109785,"SoundDuration":109785,"Delta":40095782},{"NoteNumber":56,"Velocity":56,"Duration":109785,"SoundDuration":109785,"Delta":40095782},{"NoteNumber":53,"Velocity":56,"Duration":109785,"SoundDuration":109785,"Delta":40095782},{"NoteNumber":72,"Velocity":56,"Duration":416550,"SoundDuration":416550,"Delta":40205567},{"NoteNumber":55,"Velocity":63,"Duration":416550,"SoundDuration":416550,"Delta":40205567},{"NoteNumber":58,"Velocity":63,"Duration":416550,"SoundDuration":416550,"Delta":40205567},{"NoteNumber":48,"Velocity":63,"Duration":416550,"SoundDuration":416550,"Delta":40205567},{"NoteNumber":60,"Velocity":52,"Duration":104137,"SoundDuration":104137,"Delta":40309705},{"NoteNumber":67,"Velocity":52,"Duration":104137,"SoundDuration":104137,"Delta":40413843},{"NoteNumber":70,"Velocity":52,"Duration":104137,"SoundDuration":104137,"Delta":40517980},{"NoteNumber":72,"Velocity":56,"Duration":422198,"SoundDuration":422198,"Delta":40622118},{"NoteNumber":60,"Velocity":52,"Duration":104137,"SoundDuration":104137,"Delta":40726256},{"NoteNumber":64,"Velocity":52,"Duration":104137,"SoundDuration":104137,"Delta":40830394},{"NoteNumber":67,"Velocity":52,"Duration":109785,"SoundDuration":109785,"Delta":40934531},{"NoteNumber":55,"Velocity":53,"Duration":109785,"SoundDuration":109785,"Delta":40934531},{"NoteNumber":52,"Velocity":53,"Duration":109785,"SoundDuration":109785,"Delta":40934531},{"NoteNumber":60,"Velocity":59,"Duration":416550,"SoundDuration":416550,"Delta":41044317},{"NoteNumber":72,"Velocity":59,"Duration":416550,"SoundDuration":416550,"Delta":41044317},{"NoteNumber":65,"Velocity":59,"Duration":416550,"SoundDuration":416550,"Delta":41044317},{"NoteNumber":68,"Velocity":59,"Duration":416550,"SoundDuration":416550,"Delta":41044317},{"NoteNumber":53,"Velocity":56,"Duration":104137,"SoundDuration":104137,"Delta":41044317},{"NoteNumber":60,"Velocity":49,"Duration":104137,"SoundDuration":104137,"Delta":41148455},{"NoteNumber":56,"Velocity":49,"Duration":104137,"SoundDuration":104137,"Delta":41252592},{"NoteNumber":53,"Velocity":49,"Duration":104137,"SoundDuration":104137,"Delta":41356730},{"NoteNumber":48,"Velocity":53,"Duration":104137,"SoundDuration":104137,"Delta":41460868},{"NoteNumber":56,"Velocity":49,"Duration":104137,"SoundDuration":104137,"Delta":41565006},{"NoteNumber":53,"Velocity":49,"Duration":104137,"SoundDuration":104137,"Delta":41669143},{"NoteNumber":80,"Velocity":69,"Duration":109090,"SoundDuration":109090,"Delta":41773281},{"NoteNumber":77,"Velocity":69,"Duration":109090,"SoundDuration":109090,"Delta":41773281},{"NoteNumber":48,"Velocity":49,"Duration":109090,"SoundDuration":109090,"Delta":41773281},{"NoteNumber":80,"Velocity":74,"Duration":416550,"SoundDuration":416550,"Delta":41882372},{"NoteNumber":77,"Velocity":74,"Duration":416550,"SoundDuration":416550,"Delta":41882372},{"NoteNumber":44,"Velocity":53,"Duration":104137,"SoundDuration":104137,"Delta":41882372},{"NoteNumber":53,"Velocity":49,"Duration":104137,"SoundDuration":104137,"Delta":41986510},{"NoteNumber":48,"Velocity":49,"Duration":104137,"SoundDuration":104137,"Delta":42090648},{"NoteNumber":44,"Velocity":49,"Duration":104137,"SoundDuration":104137,"Delta":42194785},{"NoteNumber":41,"Velocity":53,"Duration":104137,"SoundDuration":104137,"Delta":42298923},{"NoteNumber":48,"Velocity":49,"Duration":104137,"SoundDuration":104137,"Delta":42403061},{"NoteNumber":44,"Velocity":49,"Duration":104137,"SoundDuration":104137,"Delta":42507199},{"NoteNumber":77,"Velocity":70,"Duration":108265,"SoundDuration":108265,"Delta":42611336},{"NoteNumber":80,"Velocity":70,"Duration":108265,"SoundDuration":108265,"Delta":42611336},{"NoteNumber":41,"Velocity":49,"Duration":108265,"SoundDuration":108265,"Delta":42611336},{"NoteNumber":77,"Velocity":75,"Duration":836235,"SoundDuration":836235,"Delta":42719602},{"NoteNumber":80,"Velocity":75,"Duration":836235,"SoundDuration":836235,"Delta":42719602},{"NoteNumber":36,"Velocity":53,"Duration":104529,"SoundDuration":104529,"Delta":42719602},{"NoteNumber":41,"Velocity":49,"Duration":104529,"SoundDuration":104529,"Delta":42824131},{"NoteNumber":44,"Velocity":49,"Duration":104529,"SoundDuration":104529,"Delta":42928661},{"NoteNumber":48,"Velocity":49,"Duration":104529,"SoundDuration":104529,"Delta":43033190},{"NoteNumber":47,"Velocity":53,"Duration":104529,"SoundDuration":104529,"Delta":43137720},{"NoteNumber":48,"Velocity":49,"Duration":104529,"SoundDuration":104529,"Delta":43242249},{"NoteNumber":47,"Velocity":49,"Duration":104529,"SoundDuration":104529,"Delta":43346779},{"NoteNumber":48,"Velocity":49,"Duration":104529,"SoundDuration":104529,"Delta":43451308},{"NoteNumber":76,"Velocity":68,"Duration":209059,"SoundDuration":209059,"Delta":43555838},{"NoteNumber":79,"Velocity":68,"Duration":209059,"SoundDuration":209059,"Delta":43555838},{"NoteNumber":47,"Velocity":53,"Duration":104529,"SoundDuration":104529,"Delta":43555838},{"NoteNumber":48,"Velocity":49,"Duration":104529,"SoundDuration":104529,"Delta":43660367},{"NoteNumber":43,"Velocity":49,"Duration":104529,"SoundDuration":104529,"Delta":43764897},{"NoteNumber":48,"Velocity":49,"Duration":104529,"SoundDuration":104529,"Delta":43869426},{"NoteNumber":40,"Velocity":53,"Duration":104529,"SoundDuration":104529,"Delta":43973956},{"NoteNumber":48,"Velocity":49,"Duration":104529,"SoundDuration":104529,"Delta":44078485},{"NoteNumber":43,"Velocity":49,"Duration":104529,"SoundDuration":104529,"Delta":44183015},{"NoteNumber":48,"Velocity":49,"Duration":104529,"SoundDuration":104529,"Delta":44287544},{"NoteNumber":36,"Velocity":56,"Duration":104137,"SoundDuration":104137,"Delta":44392074},{"NoteNumber":40,"Velocity":49,"Duration":104137,"SoundDuration":104137,"Delta":44496211},{"NoteNumber":43,"Velocity":49,"Duration":104137,"SoundDuration":104137,"Delta":44600349},{"NoteNumber":48,"Velocity":49,"Duration":104137,"SoundDuration":104137,"Delta":44704487},{"NoteNumber":40,"Velocity":53,"Duration":104137,"SoundDuration":104137,"Delta":44808625},{"NoteNumber":43,"Velocity":49,"Duration":104137,"SoundDuration":104137,"Delta":44912762},{"NoteNumber":48,"Velocity":49,"Duration":104137,"SoundDuration":104137,"Delta":45016900},{"NoteNumber":82,"Velocity":69,"Duration":109090,"SoundDuration":109090,"Delta":45121038},{"NoteNumber":79,"Velocity":69,"Duration":109090,"SoundDuration":109090,"Delta":45121038},{"NoteNumber":52,"Velocity":49,"Duration":109090,"SoundDuration":109090,"Delta":45121038},{"NoteNumber":82,"Velocity":74,"Duration":416550,"SoundDuration":416550,"Delta":45230129},{"NoteNumber":79,"Velocity":74,"Duration":416550,"SoundDuration":416550,"Delta":45230129},{"NoteNumber":43,"Velocity":53,"Duration":104137,"SoundDuration":104137,"Delta":45230129},{"NoteNumber":48,"Velocity":49,"Duration":104137,"SoundDuration":104137,"Delta":45334267},{"NoteNumber":52,"Velocity":49,"Duration":104137,"SoundDuration":104137,"Delta":45438404},{"NoteNumber":55,"Velocity":49,"Duration":104137,"SoundDuration":104137,"Delta":45542542},{"NoteNumber":48,"Velocity":53,"Duration":104137,"SoundDuration":104137,"Delta":45646680},{"NoteNumber":52,"Velocity":49,"Duration":104137,"SoundDuration":104137,"Delta":45750818},{"NoteNumber":55,"Velocity":49,"Duration":104137,"SoundDuration":104137,"Delta":45854955},{"NoteNumber":79,"Velocity":70,"Duration":108265,"SoundDuration":108265,"Delta":45959093},{"NoteNumber":82,"Velocity":70,"Duration":108265,"SoundDuration":108265,"Delta":45959093},{"NoteNumber":60,"Velocity":49,"Duration":108265,"SoundDuration":108265,"Delta":45959093},{"NoteNumber":82,"Velocity":75,"Duration":836235,"SoundDuration":836235,"Delta":46067359},{"NoteNumber":79,"Velocity":75,"Duration":836235,"SoundDuration":836235,"Delta":46067359},{"NoteNumber":53,"Velocity":59,"Duration":104529,"SoundDuration":104529,"Delta":46067359},{"NoteNumber":56,"Velocity":49,"Duration":104529,"SoundDuration":104529,"Delta":46171888},{"NoteNumber":60,"Velocity":49,"Duration":104529,"SoundDuration":104529,"Delta":46276418},{"NoteNumber":65,"Velocity":49,"Duration":104529,"SoundDuration":104529,"Delta":46380947},{"NoteNumber":64,"Velocity":53,"Duration":104529,"SoundDuration":104529,"Delta":46485477},{"NoteNumber":65,"Velocity":49,"Duration":104529,"SoundDuration":104529,"Delta":46590006},{"NoteNumber":64,"Velocity":49,"Duration":104529,"SoundDuration":104529,"Delta":46694536},{"NoteNumber":65,"Velocity":49,"Duration":104529,"SoundDuration":104529,"Delta":46799065},{"NoteNumber":80,"Velocity":68,"Duration":209059,"SoundDuration":209059,"Delta":46903595},{"NoteNumber":77,"Velocity":68,"Duration":209059,"SoundDuration":209059,"Delta":46903595},{"NoteNumber":64,"Velocity":53,"Duration":104529,"SoundDuration":104529,"Delta":46903595},{"NoteNumber":65,"Velocity":49,"Duration":104529,"SoundDuration":104529,"Delta":47008124},{"NoteNumber":60,"Velocity":49,"Duration":104529,"SoundDuration":104529,"Delta":47112654},{"NoteNumber":65,"Velocity":49,"Duration":104529,"SoundDuration":104529,"Delta":47217183},{"NoteNumber":56,"Velocity":53,"Duration":104529,"SoundDuration":104529,"Delta":47321713},{"NoteNumber":65,"Velocity":49,"Duration":104529,"SoundDuration":104529,"Delta":47426242},{"NoteNumber":60,"Velocity":49,"Duration":104529,"SoundDuration":104529,"Delta":47530772},{"NoteNumber":65,"Velocity":49,"Duration":104529,"SoundDuration":104529,"Delta":47635301},{"NoteNumber":53,"Velocity":61,"Duration":104137,"SoundDuration":104137,"Delta":47739831},{"NoteNumber":57,"Velocity":53,"Duration":104137,"SoundDuration":104137,"Delta":47843968},{"NoteNumber":60,"Velocity":53,"Duration":104137,"SoundDuration":104137,"Delta":47948106},{"NoteNumber":65,"Velocity":53,"Duration":104137,"SoundDuration":104137,"Delta":48052244},{"NoteNumber":57,"Velocity":58,"Duration":104137,"SoundDuration":104137,"Delta":48156382},{"NoteNumber":60,"Velocity":53,"Duration":104137,"SoundDuration":104137,"Delta":48260519},{"NoteNumber":65,"Velocity":53,"Duration":104137,"SoundDuration":104137,"Delta":48364657},{"NoteNumber":84,"Velocity":82,"Duration":109090,"SoundDuration":109090,"Delta":48468795},{"NoteNumber":87,"Velocity":82,"Duration":109090,"SoundDuration":109090,"Delta":48468795},{"NoteNumber":69,"Velocity":53,"Duration":109090,"SoundDuration":109090,"Delta":48468795},{"NoteNumber":87,"Velocity":89,"Duration":416550,"SoundDuration":416550,"Delta":48577886},{"NoteNumber":84,"Velocity":89,"Duration":416550,"SoundDuration":416550,"Delta":48577886},{"NoteNumber":60,"Velocity":58,"Duration":104137,"SoundDuration":104137,"Delta":48577886},{"NoteNumber":65,"Velocity":53,"Duration":104137,"SoundDuration":104137,"Delta":48682024},{"NoteNumber":69,"Velocity":53,"Duration":104137,"SoundDuration":104137,"Delta":48786161},{"NoteNumber":72,"Velocity":53,"Duration":104137,"SoundDuration":104137,"Delta":48890299},{"NoteNumber":65,"Velocity":58,"Duration":104137,"SoundDuration":104137,"Delta":48994437},{"NoteNumber":69,"Velocity":53,"Duration":104137,"SoundDuration":104137,"Delta":49098575},{"NoteNumber":72,"Velocity":53,"Duration":104137,"SoundDuration":104137,"Delta":49202712},{"NoteNumber":84,"Velocity":84,"Duration":108265,"SoundDuration":108265,"Delta":49306850},{"NoteNumber":87,"Velocity":84,"Duration":108265,"SoundDuration":108265,"Delta":49306850},{"NoteNumber":77,"Velocity":53,"Duration":108265,"SoundDuration":108265,"Delta":49306850},{"NoteNumber":87,"Velocity":90,"Duration":1045295,"SoundDuration":1045295,"Delta":49415116},{"NoteNumber":84,"Velocity":90,"Duration":1045295,"SoundDuration":1045295,"Delta":49415116},{"NoteNumber":69,"Velocity":67,"Duration":104529,"SoundDuration":104529,"Delta":49415116},{"NoteNumber":77,"Velocity":53,"Duration":104529,"SoundDuration":104529,"Delta":49519645},{"NoteNumber":76,"Velocity":53,"Duration":104529,"SoundDuration":104529,"Delta":49624175},{"NoteNumber":77,"Velocity":53,"Duration":104529,"SoundDuration":104529,"Delta":49728704},{"NoteNumber":69,"Velocity":58,"Duration":104529,"SoundDuration":104529,"Delta":49833234},{"NoteNumber":77,"Velocity":53,"Duration":104529,"SoundDuration":104529,"Delta":49937763},{"NoteNumber":69,"Velocity":53,"Duration":104529,"SoundDuration":104529,"Delta":50042293},{"NoteNumber":77,"Velocity":53,"Duration":104529,"SoundDuration":104529,"Delta":50146822},{"NoteNumber":69,"Velocity":57,"Duration":104529,"SoundDuration":104529,"Delta":50251352},{"NoteNumber":77,"Velocity":56,"Duration":104529,"SoundDuration":104529,"Delta":50355881},{"NoteNumber":85,"Velocity":79,"Duration":210526,"SoundDuration":210526,"Delta":50460411},{"NoteNumber":82,"Velocity":79,"Duration":210526,"SoundDuration":210526,"Delta":50460411},{"NoteNumber":70,"Velocity":56,"Duration":105263,"SoundDuration":105263,"Delta":50460411},{"NoteNumber":77,"Velocity":55,"Duration":105263,"SoundDuration":105263,"Delta":50565674},{"NoteNumber":80,"Velocity":77,"Duration":210526,"SoundDuration":210526,"Delta":50670937},{"NoteNumber":84,"Velocity":77,"Duration":210526,"SoundDuration":210526,"Delta":50670937},{"NoteNumber":72,"Velocity":54,"Duration":105263,"SoundDuration":105263,"Delta":50670937},{"NoteNumber":77,"Velocity":53,"Duration":105263,"SoundDuration":105263,"Delta":50776200},{"NoteNumber":79,"Velocity":73,"Duration":210526,"SoundDuration":210526,"Delta":50881464},{"NoteNumber":82,"Velocity":73,"Duration":210526,"SoundDuration":210526,"Delta":50881464},{"NoteNumber":73,"Velocity":52,"Duration":105263,"SoundDuration":105263,"Delta":50881464},{"NoteNumber":77,"Velocity":52,"Duration":105263,"SoundDuration":105263,"Delta":50986727},{"NoteNumber":77,"Velocity":82,"Duration":416550,"SoundDuration":416550,"Delta":51091990},{"NoteNumber":80,"Velocity":82,"Duration":416550,"SoundDuration":416550,"Delta":51091990},{"NoteNumber":60,"Velocity":52,"Duration":104137,"SoundDuration":104137,"Delta":51091990},{"NoteNumber":65,"Velocity":47,"Duration":104137,"SoundDuration":104137,"Delta":51196128},{"NoteNumber":68,"Velocity":47,"Duration":104137,"SoundDuration":104137,"Delta":51300266},{"NoteNumber":72,"Velocity":47,"Duration":104137,"SoundDuration":104137,"Delta":51404403},{"NoteNumber":71,"Velocity":52,"Duration":104137,"SoundDuration":104137,"Delta":51508541},{"NoteNumber":72,"Velocity":47,"Duration":104137,"SoundDuration":104137,"Delta":51612679},{"NoteNumber":71,"Velocity":47,"Duration":104137,"SoundDuration":104137,"Delta":51716817},{"NoteNumber":77,"Velocity":79,"Duration":104768,"SoundDuration":104768,"Delta":51820954},{"NoteNumber":89,"Velocity":79,"Duration":104768,"SoundDuration":104768,"Delta":51820954},{"NoteNumber":80,"Velocity":79,"Duration":104768,"SoundDuration":104768,"Delta":51820954},{"NoteNumber":72,"Velocity":47,"Duration":104768,"SoundDuration":104768,"Delta":51820954},{"NoteNumber":79,"Velocity":82,"Duration":416550,"SoundDuration":416550,"Delta":51925723},{"NoteNumber":91,"Velocity":82,"Duration":416550,"SoundDuration":416550,"Delta":51925723},{"NoteNumber":82,"Velocity":82,"Duration":416550,"SoundDuration":416550,"Delta":51925723},{"NoteNumber":60,"Velocity":52,"Duration":104137,"SoundDuration":104137,"Delta":51925723},{"NoteNumber":64,"Velocity":47,"Duration":104137,"SoundDuration":104137,"Delta":52029861},{"NoteNumber":67,"Velocity":47,"Duration":104137,"SoundDuration":104137,"Delta":52133999},{"NoteNumber":72,"Velocity":47,"Duration":104137,"SoundDuration":104137,"Delta":52238136},{"NoteNumber":60,"Velocity":52,"Duration":104137,"SoundDuration":104137,"Delta":52342274},{"NoteNumber":67,"Velocity":47,"Duration":104137,"SoundDuration":104137,"Delta":52446412},{"NoteNumber":70,"Velocity":47,"Duration":104137,"SoundDuration":104137,"Delta":52550550},{"NoteNumber":76,"Velocity":79,"Duration":110236,"SoundDuration":110236,"Delta":52654687},{"NoteNumber":88,"Velocity":79,"Duration":110236,"SoundDuration":110236,"Delta":52654687},{"NoteNumber":79,"Velocity":79,"Duration":110236,"SoundDuration":110236,"Delta":52654687},{"NoteNumber":72,"Velocity":47,"Duration":110236,"SoundDuration":110236,"Delta":52654687},{"NoteNumber":77,"Velocity":73,"Duration":104894,"SoundDuration":104894,"Delta":52764924},{"NoteNumber":89,"Velocity":73,"Duration":104894,"SoundDuration":104894,"Delta":52764924},{"NoteNumber":80,"Velocity":73,"Duration":104894,"SoundDuration":104894,"Delta":52764924},{"NoteNumber":53,"Velocity":52,"Duration":104894,"SoundDuration":104894,"Delta":52764924},{"NoteNumber":72,"Velocity":61,"Duration":104469,"SoundDuration":104469,"Delta":52869819},{"NoteNumber":65,"Velocity":38,"Duration":104469,"SoundDuration":104469,"Delta":52869819},{"NoteNumber":68,"Velocity":38,"Duration":104469,"SoundDuration":104469,"Delta":52869819},{"NoteNumber":77,"Velocity":62,"Duration":104046,"SoundDuration":104046,"Delta":52974288},{"NoteNumber":60,"Velocity":39,"Duration":104046,"SoundDuration":104046,"Delta":52974288},{"NoteNumber":72,"Velocity":39,"Duration":104046,"SoundDuration":104046,"Delta":52974288},{"NoteNumber":80,"Velocity":63,"Duration":103686,"SoundDuration":103686,"Delta":53078335},{"NoteNumber":68,"Velocity":41,"Duration":103686,"SoundDuration":103686,"Delta":53078335},{"NoteNumber":65,"Velocity":41,"Duration":103686,"SoundDuration":103686,"Delta":53078335},{"NoteNumber":84,"Velocity":68,"Duration":103270,"SoundDuration":103270,"Delta":53182021},{"NoteNumber":72,"Velocity":45,"Duration":103270,"SoundDuration":103270,"Delta":53182021},{"NoteNumber":60,"Velocity":45,"Duration":103270,"SoundDuration":103270,"Delta":53182021},{"NoteNumber":85,"Velocity":65,"Duration":102857,"SoundDuration":102857,"Delta":53285292},{"NoteNumber":68,"Velocity":44,"Duration":102857,"SoundDuration":102857,"Delta":53285292},{"NoteNumber":65,"Velocity":44,"Duration":102857,"SoundDuration":102857,"Delta":53285292},{"NoteNumber":84,"Velocity":66,"Duration":102505,"SoundDuration":102505,"Delta":53388149},{"NoteNumber":72,"Velocity":45,"Duration":102505,"SoundDuration":102505,"Delta":53388149},{"NoteNumber":60,"Velocity":45,"Duration":102505,"SoundDuration":102505,"Delta":53388149},{"NoteNumber":82,"Velocity":65,"Duration":102098,"SoundDuration":102098,"Delta":53490655},{"NoteNumber":68,"Velocity":45,"Duration":102098,"SoundDuration":102098,"Delta":53490655},{"NoteNumber":65,"Velocity":45,"Duration":102098,"SoundDuration":102098,"Delta":53490655},{"NoteNumber":80,"Velocity":68,"Duration":101867,"SoundDuration":101867,"Delta":53592754},{"NoteNumber":72,"Velocity":46,"Duration":101867,"SoundDuration":101867,"Delta":53592754},{"NoteNumber":60,"Velocity":46,"Duration":101867,"SoundDuration":101867,"Delta":53592754},{"NoteNumber":82,"Velocity":67,"Duration":102623,"SoundDuration":102623,"Delta":53694622},{"NoteNumber":68,"Velocity":46,"Duration":102623,"SoundDuration":102623,"Delta":53694622},{"NoteNumber":65,"Velocity":46,"Duration":102623,"SoundDuration":102623,"Delta":53694622},{"NoteNumber":80,"Velocity":66,"Duration":103389,"SoundDuration":103389,"Delta":53797245},{"NoteNumber":72,"Velocity":45,"Duration":103389,"SoundDuration":103389,"Delta":53797245},{"NoteNumber":60,"Velocity":45,"Duration":103389,"SoundDuration":103389,"Delta":53797245},{"NoteNumber":79,"Velocity":65,"Duration":104227,"SoundDuration":104227,"Delta":53900635},{"NoteNumber":68,"Velocity":45,"Duration":104227,"SoundDuration":104227,"Delta":53900635},{"NoteNumber":65,"Velocity":45,"Duration":104227,"SoundDuration":104227,"Delta":53900635},{"NoteNumber":77,"Velocity":64,"Duration":105018,"SoundDuration":105018,"Delta":54004862},{"NoteNumber":72,"Velocity":45,"Duration":105018,"SoundDuration":105018,"Delta":54004862},{"NoteNumber":60,"Velocity":45,"Duration":105018,"SoundDuration":105018,"Delta":54004862},{"NoteNumber":79,"Velocity":63,"Duration":105883,"SoundDuration":105883,"Delta":54109880},{"NoteNumber":68,"Velocity":44,"Duration":105883,"SoundDuration":105883,"Delta":54109880},{"NoteNumber":65,"Velocity":44,"Duration":105883,"SoundDuration":105883,"Delta":54109880},{"NoteNumber":80,"Velocity":63,"Duration":106698,"SoundDuration":106698,"Delta":54215763},{"NoteNumber":72,"Velocity":44,"Duration":106698,"SoundDuration":106698,"Delta":54215763},{"NoteNumber":60,"Velocity":44,"Duration":106698,"SoundDuration":106698,"Delta":54215763},{"NoteNumber":77,"Velocity":62,"Duration":107527,"SoundDuration":107527,"Delta":54322462},{"NoteNumber":68,"Velocity":43,"Duration":107527,"SoundDuration":107527,"Delta":54322462},{"NoteNumber":65,"Velocity":43,"Duration":107527,"SoundDuration":107527,"Delta":54322462},{"NoteNumber":53,"Velocity":54,"Duration":135211,"SoundDuration":135211,"Delta":54429990},{"NoteNumber":72,"Velocity":61,"Duration":105448,"SoundDuration":105448,"Delta":54565201},{"NoteNumber":68,"Velocity":38,"Duration":105448,"SoundDuration":105448,"Delta":54565201},{"NoteNumber":65,"Velocity":38,"Duration":105448,"SoundDuration":105448,"Delta":54565201},{"NoteNumber":77,"Velocity":62,"Duration":104956,"SoundDuration":104956,"Delta":54670649},{"NoteNumber":72,"Velocity":39,"Duration":104956,"SoundDuration":104956,"Delta":54670649},{"NoteNumber":60,"Velocity":39,"Duration":104956,"SoundDuration":104956,"Delta":54670649},{"NoteNumber":80,"Velocity":63,"Duration":104408,"SoundDuration":104408,"Delta":54775606},{"NoteNumber":68,"Velocity":41,"Duration":104408,"SoundDuration":104408,"Delta":54775606},{"NoteNumber":65,"Velocity":41,"Duration":104408,"SoundDuration":104408,"Delta":54775606},{"NoteNumber":84,"Velocity":68,"Duration":103926,"SoundDuration":103926,"Delta":54880014},{"NoteNumber":72,"Velocity":45,"Duration":103926,"SoundDuration":103926,"Delta":54880014},{"NoteNumber":60,"Velocity":45,"Duration":103926,"SoundDuration":103926,"Delta":54880014},{"NoteNumber":85,"Velocity":65,"Duration":103448,"SoundDuration":103448,"Delta":54983941},{"NoteNumber":68,"Velocity":44,"Duration":103448,"SoundDuration":103448,"Delta":54983941},{"NoteNumber":65,"Velocity":44,"Duration":103448,"SoundDuration":103448,"Delta":54983941},{"NoteNumber":84,"Velocity":66,"Duration":102975,"SoundDuration":102975,"Delta":55087389},{"NoteNumber":60,"Velocity":45,"Duration":102975,"SoundDuration":102975,"Delta":55087389},{"NoteNumber":72,"Velocity":45,"Duration":102975,"SoundDuration":102975,"Delta":55087389},{"NoteNumber":82,"Velocity":65,"Duration":102505,"SoundDuration":102505,"Delta":55190365},{"NoteNumber":65,"Velocity":45,"Duration":102505,"SoundDuration":102505,"Delta":55190365},{"NoteNumber":68,"Velocity":45,"Duration":102505,"SoundDuration":102505,"Delta":55190365},{"NoteNumber":80,"Velocity":68,"Duration":102505,"SoundDuration":102505,"Delta":55292870},{"NoteNumber":72,"Velocity":46,"Duration":102505,"SoundDuration":102505,"Delta":55292870},{"NoteNumber":60,"Velocity":46,"Duration":102505,"SoundDuration":102505,"Delta":55292870},{"NoteNumber":82,"Velocity":67,"Duration":103034,"SoundDuration":103034,"Delta":55395376},{"NoteNumber":68,"Velocity":46,"Duration":103034,"SoundDuration":103034,"Delta":55395376},{"NoteNumber":65,"Velocity":46,"Duration":103034,"SoundDuration":103034,"Delta":55395376},{"NoteNumber":80,"Velocity":66,"Duration":103627,"SoundDuration":103627,"Delta":55498411},{"NoteNumber":72,"Velocity":45,"Duration":103627,"SoundDuration":103627,"Delta":55498411},{"NoteNumber":60,"Velocity":45,"Duration":103627,"SoundDuration":103627,"Delta":55498411},{"NoteNumber":79,"Velocity":65,"Duration":104287,"SoundDuration":104287,"Delta":55602038},{"NoteNumber":68,"Velocity":45,"Duration":104287,"SoundDuration":104287,"Delta":55602038},{"NoteNumber":65,"Velocity":45,"Duration":104287,"SoundDuration":104287,"Delta":55602038},{"NoteNumber":77,"Velocity":64,"Duration":104895,"SoundDuration":104895,"Delta":55706326},{"NoteNumber":72,"Velocity":45,"Duration":104895,"SoundDuration":104895,"Delta":55706326},{"NoteNumber":60,"Velocity":45,"Duration":104895,"SoundDuration":104895,"Delta":55706326},{"NoteNumber":79,"Velocity":63,"Duration":105510,"SoundDuration":105510,"Delta":55811221},{"NoteNumber":68,"Velocity":44,"Duration":105510,"SoundDuration":105510,"Delta":55811221},{"NoteNumber":65,"Velocity":44,"Duration":105510,"SoundDuration":105510,"Delta":55811221},{"NoteNumber":80,"Velocity":63,"Duration":106194,"SoundDuration":106194,"Delta":55916731},{"NoteNumber":72,"Velocity":44,"Duration":106194,"SoundDuration":106194,"Delta":55916731},{"NoteNumber":60,"Velocity":44,"Duration":106194,"SoundDuration":106194,"Delta":55916731},{"NoteNumber":77,"Velocity":62,"Duration":106954,"SoundDuration":106954,"Delta":56022926},{"NoteNumber":68,"Velocity":43,"Duration":106954,"SoundDuration":106954,"Delta":56022926},{"NoteNumber":65,"Velocity":43,"Duration":106954,"SoundDuration":106954,"Delta":56022926},{"NoteNumber":43,"Velocity":55,"Duration":135526,"SoundDuration":135526,"Delta":56129880},{"NoteNumber":77,"Velocity":64,"Duration":105448,"SoundDuration":105448,"Delta":56265407},{"NoteNumber":55,"Velocity":40,"Duration":105448,"SoundDuration":105448,"Delta":56265407},{"NoteNumber":53,"Velocity":40,"Duration":105448,"SoundDuration":105448,"Delta":56265407},{"NoteNumber":83,"Velocity":65,"Duration":104895,"SoundDuration":104895,"Delta":56370856},{"NoteNumber":59,"Velocity":41,"Duration":104895,"SoundDuration":104895,"Delta":56370856},{"NoteNumber":50,"Velocity":41,"Duration":104895,"SoundDuration":104895,"Delta":56370856},{"NoteNumber":86,"Velocity":66,"Duration":104348,"SoundDuration":104348,"Delta":56475751},{"NoteNumber":55,"Velocity":43,"Duration":104348,"SoundDuration":104348,"Delta":56475751},{"NoteNumber":53,"Velocity":43,"Duration":104348,"SoundDuration":104348,"Delta":56475751},{"NoteNumber":89,"Velocity":72,"Duration":103746,"SoundDuration":103746,"Delta":56580099},{"NoteNumber":59,"Velocity":47,"Duration":103746,"SoundDuration":103746,"Delta":56580099},{"NoteNumber":50,"Velocity":47,"Duration":103746,"SoundDuration":103746,"Delta":56580099},{"NoteNumber":91,"Velocity":69,"Duration":103211,"SoundDuration":103211,"Delta":56683846},{"NoteNumber":55,"Velocity":46,"Duration":103211,"SoundDuration":103211,"Delta":56683846},{"NoteNumber":53,"Velocity":46,"Duration":103211,"SoundDuration":103211,"Delta":56683846},{"NoteNumber":89,"Velocity":70,"Duration":102622,"SoundDuration":102622,"Delta":56787057},{"NoteNumber":50,"Velocity":47,"Duration":102622,"SoundDuration":102622,"Delta":56787057},{"NoteNumber":59,"Velocity":47,"Duration":102622,"SoundDuration":102622,"Delta":56787057},{"NoteNumber":87,"Velocity":69,"Duration":102099,"SoundDuration":102099,"Delta":56889680},{"NoteNumber":53,"Velocity":48,"Duration":102099,"SoundDuration":102099,"Delta":56889680},{"NoteNumber":55,"Velocity":48,"Duration":102099,"SoundDuration":102099,"Delta":56889680},{"NoteNumber":86,"Velocity":72,"Duration":101867,"SoundDuration":101867,"Delta":56991780},{"NoteNumber":50,"Velocity":49,"Duration":101867,"SoundDuration":101867,"Delta":56991780},{"NoteNumber":59,"Velocity":49,"Duration":101867,"SoundDuration":101867,"Delta":56991780},{"NoteNumber":87,"Velocity":71,"Duration":102505,"SoundDuration":102505,"Delta":57093647},{"NoteNumber":56,"Velocity":49,"Duration":102505,"SoundDuration":102505,"Delta":57093647},{"NoteNumber":53,"Velocity":49,"Duration":102505,"SoundDuration":102505,"Delta":57093647},{"NoteNumber":86,"Velocity":70,"Duration":103152,"SoundDuration":103152,"Delta":57196153},{"NoteNumber":59,"Velocity":48,"Duration":103152,"SoundDuration":103152,"Delta":57196153},{"NoteNumber":50,"Velocity":48,"Duration":103152,"SoundDuration":103152,"Delta":57196153},{"NoteNumber":84,"Velocity":69,"Duration":103747,"SoundDuration":103747,"Delta":57299306},{"NoteNumber":56,"Velocity":47,"Duration":103747,"SoundDuration":103747,"Delta":57299306},{"NoteNumber":53,"Velocity":47,"Duration":103747,"SoundDuration":103747,"Delta":57299306},{"NoteNumber":83,"Velocity":68,"Duration":104408,"SoundDuration":104408,"Delta":57403053},{"NoteNumber":50,"Velocity":47,"Duration":104408,"SoundDuration":104408,"Delta":57403053},{"NoteNumber":59,"Velocity":47,"Duration":104408,"SoundDuration":104408,"Delta":57403053},{"NoteNumber":84,"Velocity":67,"Duration":105079,"SoundDuration":105079,"Delta":57507461},{"NoteNumber":53,"Velocity":46,"Duration":105079,"SoundDuration":105079,"Delta":57507461},{"NoteNumber":55,"Velocity":46,"Duration":105079,"SoundDuration":105079,"Delta":57507461},{"NoteNumber":86,"Velocity":66,"Duration":105758,"SoundDuration":105758,"Delta":57612540},{"NoteNumber":50,"Velocity":46,"Duration":105758,"SoundDuration":105758,"Delta":57612540},{"NoteNumber":59,"Velocity":46,"Duration":105758,"SoundDuration":105758,"Delta":57612540},{"NoteNumber":83,"Velocity":65,"Duration":106638,"SoundDuration":106638,"Delta":57718299},{"NoteNumber":53,"Velocity":45,"Duration":106638,"SoundDuration":106638,"Delta":57718299},{"NoteNumber":55,"Velocity":45,"Duration":106638,"SoundDuration":106638,"Delta":57718299},{"NoteNumber":43,"Velocity":54,"Duration":135087,"SoundDuration":135087,"Delta":57824937},{"NoteNumber":77,"Velocity":64,"Duration":105079,"SoundDuration":105079,"Delta":57960025},{"NoteNumber":53,"Velocity":40,"Duration":105079,"SoundDuration":105079,"Delta":57960025},{"NoteNumber":55,"Velocity":40,"Duration":105079,"SoundDuration":105079,"Delta":57960025},{"NoteNumber":83,"Velocity":65,"Duration":104590,"SoundDuration":104590,"Delta":58065104},{"NoteNumber":50,"Velocity":41,"Duration":104590,"SoundDuration":104590,"Delta":58065104},{"NoteNumber":59,"Velocity":41,"Duration":104590,"SoundDuration":104590,"Delta":58065104},{"NoteNumber":86,"Velocity":66,"Duration":104046,"SoundDuration":104046,"Delta":58169694},{"NoteNumber":53,"Velocity":43,"Duration":104046,"SoundDuration":104046,"Delta":58169694},{"NoteNumber":55,"Velocity":43,"Duration":104046,"SoundDuration":104046,"Delta":58169694},{"NoteNumber":89,"Velocity":72,"Duration":103567,"SoundDuration":103567,"Delta":58273741},{"NoteNumber":50,"Velocity":47,"Duration":103567,"SoundDuration":103567,"Delta":58273741},{"NoteNumber":59,"Velocity":47,"Duration":103567,"SoundDuration":103567,"Delta":58273741},{"NoteNumber":91,"Velocity":69,"Duration":103093,"SoundDuration":103093,"Delta":58377309},{"NoteNumber":53,"Velocity":46,"Duration":103093,"SoundDuration":103093,"Delta":58377309},{"NoteNumber":55,"Velocity":46,"Duration":103093,"SoundDuration":103093,"Delta":58377309},{"NoteNumber":89,"Velocity":70,"Duration":102622,"SoundDuration":102622,"Delta":58480402},{"NoteNumber":50,"Velocity":47,"Duration":102622,"SoundDuration":102622,"Delta":58480402},{"NoteNumber":59,"Velocity":47,"Duration":102622,"SoundDuration":102622,"Delta":58480402},{"NoteNumber":87,"Velocity":69,"Duration":102156,"SoundDuration":102156,"Delta":58583025},{"NoteNumber":55,"Velocity":48,"Duration":102156,"SoundDuration":102156,"Delta":58583025},{"NoteNumber":53,"Velocity":48,"Duration":102156,"SoundDuration":102156,"Delta":58583025},{"NoteNumber":86,"Velocity":72,"Duration":101867,"SoundDuration":101867,"Delta":58685181},{"NoteNumber":59,"Velocity":49,"Duration":101867,"SoundDuration":101867,"Delta":58685181},{"NoteNumber":50,"Velocity":49,"Duration":101867,"SoundDuration":101867,"Delta":58685181},{"NoteNumber":87,"Velocity":71,"Duration":102564,"SoundDuration":102564,"Delta":58787049},{"NoteNumber":53,"Velocity":49,"Duration":102564,"SoundDuration":102564,"Delta":58787049},{"NoteNumber":56,"Velocity":49,"Duration":102564,"SoundDuration":102564,"Delta":58787049},{"NoteNumber":86,"Velocity":70,"Duration":103270,"SoundDuration":103270,"Delta":58889614},{"NoteNumber":50,"Velocity":48,"Duration":103270,"SoundDuration":103270,"Delta":58889614},{"NoteNumber":59,"Velocity":48,"Duration":103270,"SoundDuration":103270,"Delta":58889614},{"NoteNumber":84,"Velocity":69,"Duration":104046,"SoundDuration":104046,"Delta":58992884},{"NoteNumber":53,"Velocity":47,"Duration":104046,"SoundDuration":104046,"Delta":58992884},{"NoteNumber":56,"Velocity":47,"Duration":104046,"SoundDuration":104046,"Delta":58992884},{"NoteNumber":83,"Velocity":68,"Duration":104834,"SoundDuration":104834,"Delta":59096931},{"NoteNumber":50,"Velocity":47,"Duration":104834,"SoundDuration":104834,"Delta":59096931},{"NoteNumber":59,"Velocity":47,"Duration":104834,"SoundDuration":104834,"Delta":59096931},{"NoteNumber":84,"Velocity":67,"Duration":105572,"SoundDuration":105572,"Delta":59201766},{"NoteNumber":55,"Velocity":46,"Duration":105572,"SoundDuration":105572,"Delta":59201766},{"NoteNumber":53,"Velocity":46,"Duration":105572,"SoundDuration":105572,"Delta":59201766},{"NoteNumber":86,"Velocity":66,"Duration":106320,"SoundDuration":106320,"Delta":59307338},{"NoteNumber":59,"Velocity":46,"Duration":106320,"SoundDuration":106320,"Delta":59307338},{"NoteNumber":50,"Velocity":46,"Duration":106320,"SoundDuration":106320,"Delta":59307338},{"NoteNumber":83,"Velocity":65,"Duration":107208,"SoundDuration":107208,"Delta":59413659},{"NoteNumber":55,"Velocity":45,"Duration":107208,"SoundDuration":107208,"Delta":59413659},{"NoteNumber":53,"Velocity":45,"Duration":107208,"SoundDuration":107208,"Delta":59413659},{"NoteNumber":48,"Velocity":56,"Duration":135087,"SoundDuration":135087,"Delta":59520867},{"NoteNumber":79,"Velocity":67,"Duration":105079,"SoundDuration":105079,"Delta":59655955},{"NoteNumber":60,"Velocity":42,"Duration":105079,"SoundDuration":105079,"Delta":59655955},{"NoteNumber":63,"Velocity":42,"Duration":105079,"SoundDuration":105079,"Delta":59655955},{"NoteNumber":84,"Velocity":68,"Duration":104590,"SoundDuration":104590,"Delta":59761034},{"NoteNumber":55,"Velocity":43,"Duration":104590,"SoundDuration":104590,"Delta":59761034},{"NoteNumber":67,"Velocity":43,"Duration":104590,"SoundDuration":104590,"Delta":59761034},{"NoteNumber":87,"Velocity":69,"Duration":104046,"SoundDuration":104046,"Delta":59865624},{"NoteNumber":63,"Velocity":45,"Duration":104046,"SoundDuration":104046,"Delta":59865624},{"NoteNumber":60,"Velocity":45,"Duration":104046,"SoundDuration":104046,"Delta":59865624},{"NoteNumber":91,"Velocity":75,"Duration":103567,"SoundDuration":103567,"Delta":59969671},{"NoteNumber":67,"Velocity":49,"Duration":103567,"SoundDuration":103567,"Delta":59969671},{"NoteNumber":55,"Velocity":49,"Duration":103567,"SoundDuration":103567,"Delta":59969671},{"NoteNumber":92,"Velocity":72,"Duration":103093,"SoundDuration":103093,"Delta":60073239},{"NoteNumber":63,"Velocity":48,"Duration":103093,"SoundDuration":103093,"Delta":60073239},{"NoteNumber":60,"Velocity":48,"Duration":103093,"SoundDuration":103093,"Delta":60073239},{"NoteNumber":91,"Velocity":73,"Duration":102622,"SoundDuration":102622,"Delta":60176332},{"NoteNumber":67,"Velocity":49,"Duration":102622,"SoundDuration":102622,"Delta":60176332},{"NoteNumber":55,"Velocity":49,"Duration":102622,"SoundDuration":102622,"Delta":60176332},{"NoteNumber":89,"Velocity":72,"Duration":102156,"SoundDuration":102156,"Delta":60278955},{"NoteNumber":63,"Velocity":50,"Duration":102156,"SoundDuration":102156,"Delta":60278955},{"NoteNumber":60,"Velocity":50,"Duration":102156,"SoundDuration":102156,"Delta":60278955},{"NoteNumber":87,"Velocity":75,"Duration":101867,"SoundDuration":101867,"Delta":60381111},{"NoteNumber":67,"Velocity":51,"Duration":101867,"SoundDuration":101867,"Delta":60381111},{"NoteNumber":55,"Velocity":51,"Duration":101867,"SoundDuration":101867,"Delta":60381111},{"NoteNumber":89,"Velocity":74,"Duration":102564,"SoundDuration":102564,"Delta":60482979},{"NoteNumber":63,"Velocity":51,"Duration":102564,"SoundDuration":102564,"Delta":60482979},{"NoteNumber":60,"Velocity":51,"Duration":102564,"SoundDuration":102564,"Delta":60482979},{"NoteNumber":87,"Velocity":73,"Duration":103270,"SoundDuration":103270,"Delta":60585544},{"NoteNumber":67,"Velocity":50,"Duration":103270,"SoundDuration":103270,"Delta":60585544},{"NoteNumber":55,"Velocity":50,"Duration":103270,"SoundDuration":103270,"Delta":60585544},{"NoteNumber":86,"Velocity":72,"Duration":104046,"SoundDuration":104046,"Delta":60688814},{"NoteNumber":60,"Velocity":49,"Duration":104046,"SoundDuration":104046,"Delta":60688814},{"NoteNumber":63,"Velocity":49,"Duration":104046,"SoundDuration":104046,"Delta":60688814},{"NoteNumber":84,"Velocity":71,"Duration":104834,"SoundDuration":104834,"Delta":60792861},{"NoteNumber":55,"Velocity":49,"Duration":104834,"SoundDuration":104834,"Delta":60792861},{"NoteNumber":67,"Velocity":49,"Duration":104834,"SoundDuration":104834,"Delta":60792861},{"NoteNumber":86,"Velocity":70,"Duration":105572,"SoundDuration":105572,"Delta":60897696},{"NoteNumber":63,"Velocity":48,"Duration":105572,"SoundDuration":105572,"Delta":60897696},{"NoteNumber":60,"Velocity":48,"Duration":105572,"SoundDuration":105572,"Delta":60897696},{"NoteNumber":87,"Velocity":69,"Duration":106320,"SoundDuration":106320,"Delta":61003268},{"NoteNumber":67,"Velocity":48,"Duration":106320,"SoundDuration":106320,"Delta":61003268},{"NoteNumber":55,"Velocity":48,"Duration":106320,"SoundDuration":106320,"Delta":61003268},{"NoteNumber":84,"Velocity":68,"Duration":107208,"SoundDuration":107208,"Delta":61109589},{"NoteNumber":63,"Velocity":47,"Duration":107208,"SoundDuration":107208,"Delta":61109589},{"NoteNumber":60,"Velocity":47,"Duration":107208,"SoundDuration":107208,"Delta":61109589},{"NoteNumber":48,"Velocity":56,"Duration":240166,"SoundDuration":240166,"Delta":61216797},{"NoteNumber":79,"Velocity":67,"Duration":105079,"SoundDuration":105079,"Delta":61351885},{"NoteNumber":84,"Velocity":68,"Duration":104590,"SoundDuration":104590,"Delta":61456964},{"NoteNumber":67,"Velocity":43,"Duration":104590,"SoundDuration":104590,"Delta":61456964},{"NoteNumber":87,"Velocity":69,"Duration":104046,"SoundDuration":104046,"Delta":61561554},{"NoteNumber":63,"Velocity":45,"Duration":104046,"SoundDuration":104046,"Delta":61561554},{"NoteNumber":91,"Velocity":76,"Duration":103567,"SoundDuration":103567,"Delta":61665601},{"NoteNumber":72,"Velocity":49,"Duration":103567,"SoundDuration":103567,"Delta":61665601},{"NoteNumber":92,"Velocity":74,"Duration":103093,"SoundDuration":103093,"Delta":61769169},{"NoteNumber":67,"Velocity":49,"Duration":103093,"SoundDuration":103093,"Delta":61769169},{"NoteNumber":91,"Velocity":75,"Duration":102622,"SoundDuration":102622,"Delta":61872262},{"NoteNumber":72,"Velocity":50,"Duration":102622,"SoundDuration":102622,"Delta":61872262},{"NoteNumber":89,"Velocity":74,"Duration":102156,"SoundDuration":102156,"Delta":61974885},{"NoteNumber":67,"Velocity":52,"Duration":102156,"SoundDuration":102156,"Delta":61974885},{"NoteNumber":87,"Velocity":78,"Duration":101867,"SoundDuration":101867,"Delta":62077041},{"NoteNumber":75,"Velocity":53,"Duration":101867,"SoundDuration":101867,"Delta":62077041},{"NoteNumber":89,"Velocity":77,"Duration":102564,"SoundDuration":102564,"Delta":62178909},{"NoteNumber":72,"Velocity":53,"Duration":102564,"SoundDuration":102564,"Delta":62178909},{"NoteNumber":87,"Velocity":77,"Duration":103270,"SoundDuration":103270,"Delta":62281474},{"NoteNumber":75,"Velocity":53,"Duration":103270,"SoundDuration":103270,"Delta":62281474},{"NoteNumber":86,"Velocity":76,"Duration":104046,"SoundDuration":104046,"Delta":62384744},{"NoteNumber":72,"Velocity":51,"Duration":104046,"SoundDuration":104046,"Delta":62384744},{"NoteNumber":84,"Velocity":75,"Duration":104834,"SoundDuration":104834,"Delta":62488791},{"NoteNumber":79,"Velocity":52,"Duration":104834,"SoundDuration":104834,"Delta":62488791},{"NoteNumber":86,"Velocity":75,"Duration":105572,"SoundDuration":105572,"Delta":62593626},{"NoteNumber":75,"Velocity":51,"Duration":105572,"SoundDuration":105572,"Delta":62593626},{"NoteNumber":87,"Velocity":74,"Duration":106320,"SoundDuration":106320,"Delta":62699198},{"NoteNumber":79,"Velocity":51,"Duration":106320,"SoundDuration":106320,"Delta":62699198},{"NoteNumber":84,"Velocity":74,"Duration":107208,"SoundDuration":107208,"Delta":62805519},{"NoteNumber":75,"Velocity":51,"Duration":107208,"SoundDuration":107208,"Delta":62805519},{"NoteNumber":77,"Velocity":80,"Duration":631579,"SoundDuration":631579,"Delta":62912727},{"NoteNumber":80,"Velocity":80,"Duration":631579,"SoundDuration":631579,"Delta":62912727},{"NoteNumber":85,"Velocity":70,"Duration":105263,"SoundDuration":105263,"Delta":63017990},{"NoteNumber":87,"Velocity":73,"Duration":105263,"SoundDuration":105263,"Delta":63123254},{"NoteNumber":85,"Velocity":70,"Duration":105263,"SoundDuration":105263,"Delta":63228517},{"NoteNumber":87,"Velocity":65,"Duration":105263,"SoundDuration":105263,"Delta":63333780},{"NoteNumber":85,"Velocity":63,"Duration":105263,"SoundDuration":105263,"Delta":63439043},{"NoteNumber":84,"Velocity":59,"Duration":107913,"SoundDuration":107913,"Delta":63544307},{"NoteNumber":79,"Velocity":66,"Duration":215827,"SoundDuration":215827,"Delta":63544307},{"NoteNumber":75,"Velocity":66,"Duration":215827,"SoundDuration":215827,"Delta":63544307},{"NoteNumber":85,"Velocity":59,"Duration":107913,"SoundDuration":107913,"Delta":63652220},{"NoteNumber":74,"Velocity":68,"Duration":431654,"SoundDuration":431654,"Delta":63760134},{"NoteNumber":77,"Velocity":68,"Duration":431654,"SoundDuration":431654,"Delta":63760134},{"NoteNumber":83,"Velocity":58,"Duration":107913,"SoundDuration":107913,"Delta":63868048},{"NoteNumber":84,"Velocity":60,"Duration":107913,"SoundDuration":107913,"Delta":63975962},{"NoteNumber":83,"Velocity":57,"Duration":107913,"SoundDuration":107913,"Delta":64083875},{"NoteNumber":75,"Velocity":64,"Duration":431654,"SoundDuration":431654,"Delta":64191789},{"NoteNumber":79,"Velocity":64,"Duration":431654,"SoundDuration":431654,"Delta":64191789},{"NoteNumber":84,"Velocity":57,"Duration":107913,"SoundDuration":107913,"Delta":64299703},{"NoteNumber":86,"Velocity":60,"Duration":107913,"SoundDuration":107913,"Delta":64407617},{"NoteNumber":84,"Velocity":56,"Duration":107913,"SoundDuration":107913,"Delta":64515530},{"NoteNumber":80,"Velocity":80,"Duration":631579,"SoundDuration":631579,"Delta":64623444},{"NoteNumber":77,"Velocity":80,"Duration":631579,"SoundDuration":631579,"Delta":64623444},{"NoteNumber":85,"Velocity":70,"Duration":105263,"SoundDuration":105263,"Delta":64728707},{"NoteNumber":87,"Velocity":73,"Duration":105263,"SoundDuration":105263,"Delta":64833971},{"NoteNumber":85,"Velocity":70,"Duration":105263,"SoundDuration":105263,"Delta":64939234},{"NoteNumber":87,"Velocity":65,"Duration":105263,"SoundDuration":105263,"Delta":65044497},{"NoteNumber":85,"Velocity":63,"Duration":105263,"SoundDuration":105263,"Delta":65149760},{"NoteNumber":84,"Velocity":59,"Duration":107913,"SoundDuration":107913,"Delta":65255024},{"NoteNumber":79,"Velocity":66,"Duration":215827,"SoundDuration":215827,"Delta":65255024},{"NoteNumber":75,"Velocity":66,"Duration":215827,"SoundDuration":215827,"Delta":65255024},{"NoteNumber":85,"Velocity":59,"Duration":107913,"SoundDuration":107913,"Delta":65362937},{"NoteNumber":77,"Velocity":68,"Duration":431654,"SoundDuration":431654,"Delta":65470851},{"NoteNumber":74,"Velocity":68,"Duration":431654,"SoundDuration":431654,"Delta":65470851},{"NoteNumber":83,"Velocity":58,"Duration":107913,"SoundDuration":107913,"Delta":65578765},{"NoteNumber":84,"Velocity":60,"Duration":107913,"SoundDuration":107913,"Delta":65686679},{"NoteNumber":83,"Velocity":57,"Duration":107913,"SoundDuration":107913,"Delta":65794592},{"NoteNumber":79,"Velocity":64,"Duration":431655,"SoundDuration":431655,"Delta":65902506},{"NoteNumber":75,"Velocity":64,"Duration":431655,"SoundDuration":431655,"Delta":65902506},{"NoteNumber":84,"Velocity":57,"Duration":107913,"SoundDuration":107913,"Delta":66010420},{"NoteNumber":86,"Velocity":60,"Duration":107913,"SoundDuration":107913,"Delta":66118334},{"NoteNumber":84,"Velocity":56,"Duration":107913,"SoundDuration":107913,"Delta":66226247},{"NoteNumber":77,"Velocity":80,"Duration":631579,"SoundDuration":631579,"Delta":66334161},{"NoteNumber":80,"Velocity":80,"Duration":631579,"SoundDuration":631579,"Delta":66334161},{"NoteNumber":85,"Velocity":70,"Duration":105263,"SoundDuration":105263,"Delta":66439424},{"NoteNumber":87,"Velocity":73,"Duration":105263,"SoundDuration":105263,"Delta":66544688},{"NoteNumber":85,"Velocity":70,"Duration":105263,"SoundDuration":105263,"Delta":66649951},{"NoteNumber":87,"Velocity":73,"Duration":105263,"SoundDuration":105263,"Delta":66755214},{"NoteNumber":85,"Velocity":70,"Duration":105263,"SoundDuration":105263,"Delta":66860477},{"NoteNumber":84,"Velocity":59,"Duration":107913,"SoundDuration":107913,"Delta":66965741},{"NoteNumber":79,"Velocity":66,"Duration":215827,"SoundDuration":215827,"Delta":66965741},{"NoteNumber":75,"Velocity":66,"Duration":215827,"SoundDuration":215827,"Delta":66965741},{"NoteNumber":86,"Velocity":59,"Duration":107913,"SoundDuration":107913,"Delta":67073654},{"NoteNumber":74,"Velocity":68,"Duration":431654,"SoundDuration":431654,"Delta":67181568},{"NoteNumber":77,"Velocity":68,"Duration":431654,"SoundDuration":431654,"Delta":67181568},{"NoteNumber":83,"Velocity":58,"Duration":107913,"SoundDuration":107913,"Delta":67289482},{"NoteNumber":84,"Velocity":60,"Duration":107913,"SoundDuration":107913,"Delta":67397396},{"NoteNumber":83,"Velocity":58,"Duration":107913,"SoundDuration":107913,"Delta":67505309},{"NoteNumber":72,"Velocity":65,"Duration":431655,"SoundDuration":431655,"Delta":67613223},{"NoteNumber":75,"Velocity":65,"Duration":431655,"SoundDuration":431655,"Delta":67613223},{"NoteNumber":80,"Velocity":58,"Duration":107913,"SoundDuration":107913,"Delta":67721137},{"NoteNumber":82,"Velocity":61,"Duration":107913,"SoundDuration":107913,"Delta":67829051},{"NoteNumber":80,"Velocity":57,"Duration":107913,"SoundDuration":107913,"Delta":67936964},{"NoteNumber":71,"Velocity":70,"Duration":431654,"SoundDuration":431654,"Delta":68044878},{"NoteNumber":74,"Velocity":70,"Duration":431654,"SoundDuration":431654,"Delta":68044878},{"NoteNumber":79,"Velocity":60,"Duration":107913,"SoundDuration":107913,"Delta":68152792},{"NoteNumber":80,"Velocity":62,"Duration":107913,"SoundDuration":107913,"Delta":68260706},{"NoteNumber":79,"Velocity":60,"Duration":107913,"SoundDuration":107913,"Delta":68368619},{"NoteNumber":72,"Velocity":70,"Duration":431655,"SoundDuration":431655,"Delta":68476533},{"NoteNumber":69,"Velocity":70,"Duration":431655,"SoundDuration":431655,"Delta":68476533},{"NoteNumber":78,"Velocity":61,"Duration":107913,"SoundDuration":107913,"Delta":68584447},{"NoteNumber":79,"Velocity":65,"Duration":107913,"SoundDuration":107913,"Delta":68692361},{"NoteNumber":78,"Velocity":62,"Duration":107913,"SoundDuration":107913,"Delta":68800274},{"NoteNumber":72,"Velocity":75,"Duration":431655,"SoundDuration":431655,"Delta":68908188},{"NoteNumber":68,"Velocity":75,"Duration":431655,"SoundDuration":431655,"Delta":68908188},{"NoteNumber":77,"Velocity":65,"Duration":107913,"SoundDuration":107913,"Delta":69016102},{"NoteNumber":79,"Velocity":67,"Duration":107913,"SoundDuration":107913,"Delta":69124016},{"NoteNumber":77,"Velocity":64,"Duration":107913,"SoundDuration":107913,"Delta":69231929},{"NoteNumber":72,"Velocity":75,"Duration":431654,"SoundDuration":431654,"Delta":69339843},{"NoteNumber":67,"Velocity":75,"Duration":431654,"SoundDuration":431654,"Delta":69339843},{"NoteNumber":75,"Velocity":66,"Duration":107913,"SoundDuration":107913,"Delta":69447757},{"NoteNumber":77,"Velocity":69,"Duration":107913,"SoundDuration":107913,"Delta":69555671},{"NoteNumber":75,"Velocity":67,"Duration":107913,"SoundDuration":107913,"Delta":69663584},{"NoteNumber":66,"Velocity":76,"Duration":863309,"SoundDuration":863309,"Delta":69771498},{"NoteNumber":75,"Velocity":67,"Duration":107913,"SoundDuration":107913,"Delta":69879412},{"NoteNumber":77,"Velocity":70,"Duration":107913,"SoundDuration":107913,"Delta":69987326},{"NoteNumber":75,"Velocity":68,"Duration":107913,"SoundDuration":107913,"Delta":70095239},{"NoteNumber":68,"Velocity":75,"Duration":431654,"SoundDuration":431654,"Delta":70203153},{"NoteNumber":74,"Velocity":66,"Duration":107913,"SoundDuration":107913,"Delta":70311067},{"NoteNumber":75,"Velocity":69,"Duration":107913,"SoundDuration":107913,"Delta":70418981},{"NoteNumber":74,"Velocity":64,"Duration":107913,"SoundDuration":107913,"Delta":70526894},{"NoteNumber":55,"Velocity":72,"Duration":863309,"SoundDuration":863309,"Delta":70634808},{"NoteNumber":63,"Velocity":72,"Duration":431655,"SoundDuration":431655,"Delta":70634808},{"NoteNumber":67,"Velocity":72,"Duration":863309,"SoundDuration":863309,"Delta":70634808},{"NoteNumber":72,"Velocity":64,"Duration":107913,"SoundDuration":107913,"Delta":70742722},{"NoteNumber":74,"Velocity":65,"Duration":107913,"SoundDuration":107913,"Delta":70850636},{"NoteNumber":72,"Velocity":62,"Duration":107913,"SoundDuration":107913,"Delta":70958549},{"NoteNumber":62,"Velocity":68,"Duration":431654,"SoundDuration":431654,"Delta":71066463},{"NoteNumber":71,"Velocity":60,"Duration":107913,"SoundDuration":107913,"Delta":71174377},{"NoteNumber":72,"Velocity":62,"Duration":107913,"SoundDuration":107913,"Delta":71282291},{"NoteNumber":71,"Velocity":57,"Duration":107913,"SoundDuration":107913,"Delta":71390204},{"NoteNumber":53,"Velocity":61,"Duration":631579,"SoundDuration":631579,"Delta":71498118},{"NoteNumber":61,"Velocity":72,"Duration":631579,"SoundDuration":631579,"Delta":71498118},{"NoteNumber":56,"Velocity":61,"Duration":631579,"SoundDuration":631579,"Delta":71498118},{"NoteNumber":68,"Velocity":66,"Duration":105263,"SoundDuration":105263,"Delta":71603381},{"NoteNumber":80,"Velocity":73,"Duration":105263,"SoundDuration":105263,"Delta":71708645},{"NoteNumber":68,"Velocity":59,"Duration":105263,"SoundDuration":105263,"Delta":71813908},{"NoteNumber":80,"Velocity":71,"Duration":105263,"SoundDuration":105263,"Delta":71919171},{"NoteNumber":68,"Velocity":58,"Duration":105263,"SoundDuration":105263,"Delta":72024434},{"NoteNumber":80,"Velocity":63,"Duration":107913,"SoundDuration":107913,"Delta":72129698},{"NoteNumber":55,"Velocity":50,"Duration":215827,"SoundDuration":215827,"Delta":72129698},{"NoteNumber":60,"Velocity":59,"Duration":215827,"SoundDuration":215827,"Delta":72129698},{"NoteNumber":51,"Velocity":50,"Duration":215827,"SoundDuration":215827,"Delta":72129698},{"NoteNumber":68,"Velocity":59,"Duration":107913,"SoundDuration":107913,"Delta":72237611},{"NoteNumber":50,"Velocity":51,"Duration":431654,"SoundDuration":431654,"Delta":72345525},{"NoteNumber":53,"Velocity":54,"Duration":431654,"SoundDuration":431654,"Delta":72345525},{"NoteNumber":59,"Velocity":64,"Duration":431654,"SoundDuration":431654,"Delta":72345525},{"NoteNumber":68,"Velocity":60,"Duration":107913,"SoundDuration":107913,"Delta":72453439},{"NoteNumber":80,"Velocity":71,"Duration":107913,"SoundDuration":107913,"Delta":72561353},{"NoteNumber":79,"Velocity":66,"Duration":107913,"SoundDuration":107913,"Delta":72669266},{"NoteNumber":77,"Velocity":68,"Duration":107913,"SoundDuration":107913,"Delta":72777180},{"NoteNumber":55,"Velocity":48,"Duration":431655,"SoundDuration":431655,"Delta":72777180},{"NoteNumber":60,"Velocity":57,"Duration":431655,"SoundDuration":431655,"Delta":72777180},{"NoteNumber":51,"Velocity":48,"Duration":431655,"SoundDuration":431655,"Delta":72777180},{"NoteNumber":75,"Velocity":66,"Duration":107913,"SoundDuration":107913,"Delta":72885094},{"NoteNumber":74,"Velocity":65,"Duration":107913,"SoundDuration":107913,"Delta":72993008},{"NoteNumber":72,"Velocity":58,"Duration":107913,"SoundDuration":107913,"Delta":73100921},{"NoteNumber":53,"Velocity":61,"Duration":631579,"SoundDuration":631579,"Delta":73208835},{"NoteNumber":61,"Velocity":72,"Duration":631579,"SoundDuration":631579,"Delta":73208835},{"NoteNumber":56,"Velocity":61,"Duration":631579,"SoundDuration":631579,"Delta":73208835},{"NoteNumber":80,"Velocity":68,"Duration":105263,"SoundDuration":105263,"Delta":73314098},{"NoteNumber":92,"Velocity":75,"Duration":105263,"SoundDuration":105263,"Delta":73419362},{"NoteNumber":80,"Velocity":67,"Duration":105263,"SoundDuration":105263,"Delta":73524625},{"NoteNumber":92,"Velocity":74,"Duration":105263,"SoundDuration":105263,"Delta":73629888},{"NoteNumber":80,"Velocity":67,"Duration":105263,"SoundDuration":105263,"Delta":73735151},{"NoteNumber":92,"Velocity":69,"Duration":107913,"SoundDuration":107913,"Delta":73840415},{"NoteNumber":55,"Velocity":50,"Duration":215827,"SoundDuration":215827,"Delta":73840415},{"NoteNumber":60,"Velocity":59,"Duration":215827,"SoundDuration":215827,"Delta":73840415},{"NoteNumber":51,"Velocity":50,"Duration":215827,"SoundDuration":215827,"Delta":73840415},{"NoteNumber":80,"Velocity":60,"Duration":107913,"SoundDuration":107913,"Delta":73948328},{"NoteNumber":50,"Velocity":51,"Duration":431654,"SoundDuration":431654,"Delta":74056242},{"NoteNumber":59,"Velocity":61,"Duration":431654,"SoundDuration":431654,"Delta":74056242},{"NoteNumber":53,"Velocity":51,"Duration":431654,"SoundDuration":431654,"Delta":74056242},{"NoteNumber":80,"Velocity":61,"Duration":107913,"SoundDuration":107913,"Delta":74164156},{"NoteNumber":92,"Velocity":73,"Duration":107913,"SoundDuration":107913,"Delta":74272070},{"NoteNumber":91,"Velocity":66,"Duration":107913,"SoundDuration":107913,"Delta":74379983},{"NoteNumber":89,"Velocity":70,"Duration":107913,"SoundDuration":107913,"Delta":74487897},{"NoteNumber":51,"Velocity":48,"Duration":431655,"SoundDuration":431655,"Delta":74487897},{"NoteNumber":55,"Velocity":48,"Duration":431655,"SoundDuration":431655,"Delta":74487897},{"NoteNumber":60,"Velocity":57,"Duration":431655,"SoundDuration":431655,"Delta":74487897},{"NoteNumber":87,"Velocity":68,"Duration":107913,"SoundDuration":107913,"Delta":74595811},{"NoteNumber":86,"Velocity":67,"Duration":107913,"SoundDuration":107913,"Delta":74703725},{"NoteNumber":84,"Velocity":65,"Duration":107913,"SoundDuration":107913,"Delta":74811638},{"NoteNumber":61,"Velocity":72,"Duration":631579,"SoundDuration":631579,"Delta":74919552},{"NoteNumber":56,"Velocity":61,"Duration":631579,"SoundDuration":631579,"Delta":74919552},{"NoteNumber":53,"Velocity":61,"Duration":631579,"SoundDuration":631579,"Delta":74919552},{"NoteNumber":68,"Velocity":66,"Duration":105263,"SoundDuration":105263,"Delta":75024815},{"NoteNumber":80,"Velocity":73,"Duration":105263,"SoundDuration":105263,"Delta":75130079},{"NoteNumber":68,"Velocity":66,"Duration":105263,"SoundDuration":105263,"Delta":75235342},{"NoteNumber":80,"Velocity":73,"Duration":105263,"SoundDuration":105263,"Delta":75340605},{"NoteNumber":68,"Velocity":66,"Duration":105263,"SoundDuration":105263,"Delta":75445868},{"NoteNumber":80,"Velocity":68,"Duration":107913,"SoundDuration":107913,"Delta":75551132},{"NoteNumber":60,"Velocity":59,"Duration":215827,"SoundDuration":215827,"Delta":75551132},{"NoteNumber":51,"Velocity":50,"Duration":215827,"SoundDuration":215827,"Delta":75551132},{"NoteNumber":55,"Velocity":50,"Duration":215827,"SoundDuration":215827,"Delta":75551132},{"NoteNumber":68,"Velocity":61,"Duration":107913,"SoundDuration":107913,"Delta":75659045},{"NoteNumber":50,"Velocity":51,"Duration":431654,"SoundDuration":431654,"Delta":75766959},{"NoteNumber":59,"Velocity":61,"Duration":431654,"SoundDuration":431654,"Delta":75766959},{"NoteNumber":53,"Velocity":51,"Duration":431654,"SoundDuration":431654,"Delta":75766959},{"NoteNumber":80,"Velocity":68,"Duration":107913,"SoundDuration":107913,"Delta":75874873},{"NoteNumber":68,"Velocity":60,"Duration":107913,"SoundDuration":107913,"Delta":75982787},{"NoteNumber":80,"Velocity":68,"Duration":107913,"SoundDuration":107913,"Delta":76090700},{"NoteNumber":56,"Velocity":58,"Duration":424028,"SoundDuration":424028,"Delta":76198614},{"NoteNumber":51,"Velocity":49,"Duration":424028,"SoundDuration":424028,"Delta":76198614},{"NoteNumber":48,"Velocity":49,"Duration":424028,"SoundDuration":424028,"Delta":76198614},{"NoteNumber":92,"Velocity":78,"Duration":106006,"SoundDuration":106006,"Delta":76304621},{"NoteNumber":80,"Velocity":69,"Duration":106007,"SoundDuration":106007,"Delta":76410628},{"NoteNumber":92,"Velocity":75,"Duration":106007,"SoundDuration":106007,"Delta":76516635},{"NoteNumber":55,"Velocity":63,"Duration":430108,"SoundDuration":430108,"Delta":76622642},{"NoteNumber":47,"Velocity":53,"Duration":430108,"SoundDuration":430108,"Delta":76622642},{"NoteNumber":50,"Velocity":63,"Duration":430108,"SoundDuration":430108,"Delta":76622642},{"NoteNumber":91,"Velocity":78,"Duration":107526,"SoundDuration":107526,"Delta":76730169},{"NoteNumber":79,"Velocity":71,"Duration":107527,"SoundDuration":107527,"Delta":76837696},{"NoteNumber":91,"Velocity":74,"Duration":107527,"SoundDuration":107527,"Delta":76945223},{"NoteNumber":54,"Velocity":63,"Duration":430107,"SoundDuration":430107,"Delta":77052750},{"NoteNumber":51,"Velocity":63,"Duration":430107,"SoundDuration":430107,"Delta":77052750},{"NoteNumber":48,"Velocity":53,"Duration":430107,"SoundDuration":430107,"Delta":77052750},{"NoteNumber":45,"Velocity":53,"Duration":430107,"SoundDuration":430107,"Delta":77052750},{"NoteNumber":90,"Velocity":75,"Duration":107527,"SoundDuration":107527,"Delta":77160277},{"NoteNumber":78,"Velocity":71,"Duration":107527,"SoundDuration":107527,"Delta":77267804},{"NoteNumber":90,"Velocity":74,"Duration":107526,"SoundDuration":107526,"Delta":77375331},{"NoteNumber":50,"Velocity":56,"Duration":425532,"SoundDuration":425532,"Delta":77482858},{"NoteNumber":47,"Velocity":56,"Duration":425532,"SoundDuration":425532,"Delta":77482858},{"NoteNumber":53,"Velocity":67,"Duration":425532,"SoundDuration":425532,"Delta":77482858},{"NoteNumber":89,"Velocity":78,"Duration":106383,"SoundDuration":106383,"Delta":77589241},{"NoteNumber":77,"Velocity":69,"Duration":106382,"SoundDuration":106382,"Delta":77695624},{"NoteNumber":89,"Velocity":74,"Duration":106383,"SoundDuration":106383,"Delta":77802007},{"NoteNumber":51,"Velocity":67,"Duration":425531,"SoundDuration":425531,"Delta":77908390},{"NoteNumber":48,"Velocity":56,"Duration":425531,"SoundDuration":425531,"Delta":77908390},{"NoteNumber":87,"Velocity":77,"Duration":106383,"SoundDuration":106383,"Delta":78014773},{"NoteNumber":79,"Velocity":71,"Duration":106382,"SoundDuration":106382,"Delta":78121156},{"NoteNumber":75,"Velocity":71,"Duration":106382,"SoundDuration":106382,"Delta":78121156},{"NoteNumber":87,"Velocity":75,"Duration":106382,"SoundDuration":106382,"Delta":78227539},{"NoteNumber":42,"Velocity":56,"Duration":857142,"SoundDuration":857142,"Delta":78333922},{"NoteNumber":51,"Velocity":66,"Duration":428571,"SoundDuration":428571,"Delta":78333922},{"NoteNumber":45,"Velocity":56,"Duration":857142,"SoundDuration":857142,"Delta":78333922},{"NoteNumber":87,"Velocity":75,"Duration":107142,"SoundDuration":107142,"Delta":78441065},{"NoteNumber":81,"Velocity":68,"Duration":107142,"SoundDuration":107142,"Delta":78548208},{"NoteNumber":75,"Velocity":68,"Duration":107142,"SoundDuration":107142,"Delta":78548208},{"NoteNumber":87,"Velocity":75,"Duration":107142,"SoundDuration":107142,"Delta":78655350},{"NoteNumber":50,"Velocity":64,"Duration":428571,"SoundDuration":428571,"Delta":78762493},{"NoteNumber":86,"Velocity":73,"Duration":107142,"SoundDuration":107142,"Delta":78869636},{"NoteNumber":81,"Velocity":66,"Duration":107142,"SoundDuration":107142,"Delta":78976779},{"NoteNumber":74,"Velocity":66,"Duration":107142,"SoundDuration":107142,"Delta":78976779},{"NoteNumber":86,"Velocity":73,"Duration":107142,"SoundDuration":107142,"Delta":79083921},{"NoteNumber":48,"Velocity":61,"Duration":428570,"SoundDuration":428570,"Delta":79191064},{"NoteNumber":43,"Velocity":61,"Duration":857141,"SoundDuration":857141,"Delta":79191064},{"NoteNumber":84,"Velocity":71,"Duration":107142,"SoundDuration":107142,"Delta":79298207},{"NoteNumber":75,"Velocity":66,"Duration":107142,"SoundDuration":107142,"Delta":79405350},{"NoteNumber":72,"Velocity":66,"Duration":107142,"SoundDuration":107142,"Delta":79405350},{"NoteNumber":84,"Velocity":71,"Duration":107142,"SoundDuration":107142,"Delta":79512492},{"NoteNumber":47,"Velocity":59,"Duration":428571,"SoundDuration":428571,"Delta":79619635},{"NoteNumber":83,"Velocity":69,"Duration":107142,"SoundDuration":107142,"Delta":79726778},{"NoteNumber":71,"Velocity":62,"Duration":107142,"SoundDuration":107142,"Delta":79833921},{"NoteNumber":74,"Velocity":62,"Duration":107142,"SoundDuration":107142,"Delta":79833921},{"NoteNumber":83,"Velocity":64,"Duration":107142,"SoundDuration":107142,"Delta":79941063},{"NoteNumber":79,"Velocity":65,"Duration":106007,"SoundDuration":106007,"Delta":80048206},{"NoteNumber":84,"Velocity":77,"Duration":106007,"SoundDuration":106007,"Delta":80048206},{"NoteNumber":75,"Velocity":65,"Duration":106007,"SoundDuration":106007,"Delta":80048206},{"NoteNumber":72,"Velocity":65,"Duration":106007,"SoundDuration":106007,"Delta":80048206},{"NoteNumber":36,"Velocity":59,"Duration":212013,"SoundDuration":212013,"Delta":80048206},{"NoteNumber":43,"Velocity":59,"Duration":212013,"SoundDuration":212013,"Delta":80048206},{"NoteNumber":48,"Velocity":70,"Duration":212013,"SoundDuration":212013,"Delta":80048206},{"NoteNumber":39,"Velocity":59,"Duration":212013,"SoundDuration":212013,"Delta":80048206},{"NoteNumber":67,"Velocity":74,"Duration":106006,"SoundDuration":106006,"Delta":80154213},{"NoteNumber":72,"Velocity":76,"Duration":105633,"SoundDuration":105633,"Delta":80260220},{"NoteNumber":75,"Velocity":78,"Duration":105633,"SoundDuration":105633,"Delta":80365854},{"NoteNumber":79,"Velocity":80,"Duration":105263,"SoundDuration":105263,"Delta":80471488},{"NoteNumber":80,"Velocity":76,"Duration":105263,"SoundDuration":105263,"Delta":80576751},{"NoteNumber":55,"Velocity":59,"Duration":105263,"SoundDuration":105263,"Delta":80576751},{"NoteNumber":79,"Velocity":76,"Duration":104894,"SoundDuration":104894,"Delta":80682014},{"NoteNumber":60,"Velocity":62,"Duration":104894,"SoundDuration":104894,"Delta":80682014},{"NoteNumber":77,"Velocity":76,"Duration":104652,"SoundDuration":104652,"Delta":80786909},{"NoteNumber":63,"Velocity":64,"Duration":104652,"SoundDuration":104652,"Delta":80786909},{"NoteNumber":75,"Velocity":77,"Duration":104166,"SoundDuration":104166,"Delta":80891561},{"NoteNumber":67,"Velocity":70,"Duration":104166,"SoundDuration":104166,"Delta":80891561},{"NoteNumber":77,"Velocity":71,"Duration":104408,"SoundDuration":104408,"Delta":80995728},{"NoteNumber":68,"Velocity":64,"Duration":104408,"SoundDuration":104408,"Delta":80995728},{"NoteNumber":75,"Velocity":72,"Duration":104651,"SoundDuration":104651,"Delta":81100137},{"NoteNumber":67,"Velocity":64,"Duration":104651,"SoundDuration":104651,"Delta":81100137},{"NoteNumber":74,"Velocity":72,"Duration":104894,"SoundDuration":104894,"Delta":81204788},{"NoteNumber":65,"Velocity":64,"Duration":104894,"SoundDuration":104894,"Delta":81204788},{"NoteNumber":72,"Velocity":78,"Duration":105140,"SoundDuration":105140,"Delta":81309683},{"NoteNumber":63,"Velocity":70,"Duration":105140,"SoundDuration":105140,"Delta":81309683},{"NoteNumber":70,"Velocity":73,"Duration":105386,"SoundDuration":105386,"Delta":81414823},{"NoteNumber":62,"Velocity":63,"Duration":105386,"SoundDuration":105386,"Delta":81414823},{"NoteNumber":68,"Velocity":73,"Duration":105633,"SoundDuration":105633,"Delta":81520210},{"NoteNumber":60,"Velocity":63,"Duration":105633,"SoundDuration":105633,"Delta":81520210},{"NoteNumber":67,"Velocity":72,"Duration":105882,"SoundDuration":105882,"Delta":81625844},{"NoteNumber":58,"Velocity":63,"Duration":105882,"SoundDuration":105882,"Delta":81625844},{"NoteNumber":65,"Velocity":75,"Duration":106132,"SoundDuration":106132,"Delta":81731727},{"NoteNumber":56,"Velocity":67,"Duration":106132,"SoundDuration":106132,"Delta":81731727},{"NoteNumber":63,"Velocity":70,"Duration":106383,"SoundDuration":106383,"Delta":81837859},{"NoteNumber":55,"Velocity":60,"Duration":106383,"SoundDuration":106383,"Delta":81837859},{"NoteNumber":62,"Velocity":70,"Duration":106635,"SoundDuration":106635,"Delta":81944242},{"NoteNumber":53,"Velocity":60,"Duration":106635,"SoundDuration":106635,"Delta":81944242},{"NoteNumber":60,"Velocity":70,"Duration":106888,"SoundDuration":106888,"Delta":82050877},{"NoteNumber":51,"Velocity":60,"Duration":106888,"SoundDuration":106888,"Delta":82050877},{"NoteNumber":59,"Velocity":73,"Duration":219780,"SoundDuration":219780,"Delta":82157766},{"NoteNumber":50,"Velocity":71,"Duration":109889,"SoundDuration":109889,"Delta":82157766},{"NoteNumber":51,"Velocity":65,"Duration":109890,"SoundDuration":109890,"Delta":82267656},{"NoteNumber":62,"Velocity":69,"Duration":164834,"SoundDuration":164834,"Delta":82377546},{"NoteNumber":55,"Velocity":69,"Duration":164834,"SoundDuration":164834,"Delta":82377546},{"NoteNumber":59,"Velocity":69,"Duration":164834,"SoundDuration":164834,"Delta":82377546},{"NoteNumber":67,"Velocity":82,"Duration":164834,"SoundDuration":164834,"Delta":82377546},{"NoteNumber":53,"Velocity":73,"Duration":109889,"SoundDuration":109889,"Delta":82377546},{"NoteNumber":51,"Velocity":69,"Duration":109890,"SoundDuration":109890,"Delta":82487436},{"NoteNumber":59,"Velocity":61,"Duration":164834,"SoundDuration":164834,"Delta":82597326},{"NoteNumber":65,"Velocity":73,"Duration":164834,"SoundDuration":164834,"Delta":82597326},{"NoteNumber":55,"Velocity":61,"Duration":164834,"SoundDuration":164834,"Delta":82597326},{"NoteNumber":67,"Velocity":73,"Duration":164834,"SoundDuration":164834,"Delta":82597326},{"NoteNumber":50,"Velocity":73,"Duration":109889,"SoundDuration":109889,"Delta":82597326},{"NoteNumber":48,"Velocity":73,"Duration":109890,"SoundDuration":109890,"Delta":82707216},{"NoteNumber":59,"Velocity":60,"Duration":164834,"SoundDuration":164834,"Delta":82817106},{"NoteNumber":55,"Velocity":60,"Duration":164834,"SoundDuration":164834,"Delta":82817106},{"NoteNumber":65,"Velocity":71,"Duration":164834,"SoundDuration":164834,"Delta":82817106},{"NoteNumber":67,"Velocity":71,"Duration":164834,"SoundDuration":164834,"Delta":82817106},{"NoteNumber":47,"Velocity":72,"Duration":109889,"SoundDuration":109889,"Delta":82817106},{"NoteNumber":44,"Velocity":72,"Duration":109890,"SoundDuration":109890,"Delta":82926996},{"NoteNumber":55,"Velocity":61,"Duration":164834,"SoundDuration":164834,"Delta":83036886},{"NoteNumber":67,"Velocity":72,"Duration":164834,"SoundDuration":164834,"Delta":83036886},{"NoteNumber":59,"Velocity":61,"Duration":164834,"SoundDuration":164834,"Delta":83036886},{"NoteNumber":65,"Velocity":72,"Duration":164834,"SoundDuration":164834,"Delta":83036886},{"NoteNumber":43,"Velocity":71,"Duration":109889,"SoundDuration":109889,"Delta":83036886},{"NoteNumber":41,"Velocity":71,"Duration":109890,"SoundDuration":109890,"Delta":83146776},{"NoteNumber":65,"Velocity":72,"Duration":164834,"SoundDuration":164834,"Delta":83256666},{"NoteNumber":67,"Velocity":72,"Duration":164834,"SoundDuration":164834,"Delta":83256666},{"NoteNumber":55,"Velocity":61,"Duration":164834,"SoundDuration":164834,"Delta":83256666},{"NoteNumber":59,"Velocity":61,"Duration":164834,"SoundDuration":164834,"Delta":83256666},{"NoteNumber":39,"Velocity":70,"Duration":109889,"SoundDuration":109889,"Delta":83256666},{"NoteNumber":38,"Velocity":70,"Duration":109890,"SoundDuration":109890,"Delta":83366556},{"NoteNumber":63,"Velocity":77,"Duration":106007,"SoundDuration":106007,"Delta":83476446},{"NoteNumber":55,"Velocity":77,"Duration":106007,"SoundDuration":106007,"Delta":83476446},{"NoteNumber":60,"Velocity":77,"Duration":106007,"SoundDuration":106007,"Delta":83476446},{"NoteNumber":67,"Velocity":77,"Duration":106007,"SoundDuration":106007,"Delta":83476446},{"NoteNumber":36,"Velocity":70,"Duration":212013,"SoundDuration":212013,"Delta":83476446},{"NoteNumber":43,"Velocity":70,"Duration":212013,"SoundDuration":212013,"Delta":83476446},{"NoteNumber":48,"Velocity":70,"Duration":212013,"SoundDuration":212013,"Delta":83476446},{"NoteNumber":39,"Velocity":70,"Duration":212013,"SoundDuration":212013,"Delta":83476446},{"NoteNumber":79,"Velocity":74,"Duration":106006,"SoundDuration":106006,"Delta":83582453},{"NoteNumber":84,"Velocity":76,"Duration":105633,"SoundDuration":105633,"Delta":83688460},{"NoteNumber":87,"Velocity":78,"Duration":105633,"SoundDuration":105633,"Delta":83794094},{"NoteNumber":91,"Velocity":80,"Duration":105263,"SoundDuration":105263,"Delta":83899727},{"NoteNumber":92,"Velocity":76,"Duration":105263,"SoundDuration":105263,"Delta":84004991},{"NoteNumber":67,"Velocity":59,"Duration":105263,"SoundDuration":105263,"Delta":84004991},{"NoteNumber":91,"Velocity":76,"Duration":104894,"SoundDuration":104894,"Delta":84110254},{"NoteNumber":72,"Velocity":62,"Duration":104894,"SoundDuration":104894,"Delta":84110254},{"NoteNumber":89,"Velocity":76,"Duration":104652,"SoundDuration":104652,"Delta":84215149},{"NoteNumber":75,"Velocity":64,"Duration":104652,"SoundDuration":104652,"Delta":84215149},{"NoteNumber":87,"Velocity":77,"Duration":104166,"SoundDuration":104166,"Delta":84319801},{"NoteNumber":79,"Velocity":70,"Duration":104166,"SoundDuration":104166,"Delta":84319801},{"NoteNumber":89,"Velocity":71,"Duration":104408,"SoundDuration":104408,"Delta":84423968},{"NoteNumber":80,"Velocity":64,"Duration":104408,"SoundDuration":104408,"Delta":84423968},{"NoteNumber":87,"Velocity":72,"Duration":104651,"SoundDuration":104651,"Delta":84528376},{"NoteNumber":79,"Velocity":64,"Duration":104651,"SoundDuration":104651,"Delta":84528376},{"NoteNumber":86,"Velocity":72,"Duration":104894,"SoundDuration":104894,"Delta":84633028},{"NoteNumber":77,"Velocity":64,"Duration":104894,"SoundDuration":104894,"Delta":84633028},{"NoteNumber":84,"Velocity":78,"Duration":105140,"SoundDuration":105140,"Delta":84737923},{"NoteNumber":75,"Velocity":70,"Duration":105140,"SoundDuration":105140,"Delta":84737923},{"NoteNumber":82,"Velocity":73,"Duration":105386,"SoundDuration":105386,"Delta":84843063},{"NoteNumber":74,"Velocity":63,"Duration":105386,"SoundDuration":105386,"Delta":84843063},{"NoteNumber":80,"Velocity":73,"Duration":105633,"SoundDuration":105633,"Delta":84948450},{"NoteNumber":72,"Velocity":63,"Duration":105633,"SoundDuration":105633,"Delta":84948450},{"NoteNumber":79,"Velocity":72,"Duration":105882,"SoundDuration":105882,"Delta":85054084},{"NoteNumber":70,"Velocity":63,"Duration":105882,"SoundDuration":105882,"Delta":85054084},{"NoteNumber":77,"Velocity":75,"Duration":106132,"SoundDuration":106132,"Delta":85159966},{"NoteNumber":68,"Velocity":67,"Duration":106132,"SoundDuration":106132,"Delta":85159966},{"NoteNumber":75,"Velocity":70,"Duration":106383,"SoundDuration":106383,"Delta":85266099},{"NoteNumber":67,"Velocity":60,"Duration":106383,"SoundDuration":106383,"Delta":85266099},{"NoteNumber":74,"Velocity":70,"Duration":106635,"SoundDuration":106635,"Delta":85372482},{"NoteNumber":65,"Velocity":60,"Duration":106635,"SoundDuration":106635,"Delta":85372482},{"NoteNumber":72,"Velocity":70,"Duration":106888,"SoundDuration":106888,"Delta":85479117},{"NoteNumber":63,"Velocity":60,"Duration":106888,"SoundDuration":106888,"Delta":85479117},{"NoteNumber":71,"Velocity":73,"Duration":219780,"SoundDuration":219780,"Delta":85586006},{"NoteNumber":62,"Velocity":71,"Duration":109889,"SoundDuration":109889,"Delta":85586006},{"NoteNumber":63,"Velocity":65,"Duration":109890,"SoundDuration":109890,"Delta":85695896},{"NoteNumber":71,"Velocity":69,"Duration":164834,"SoundDuration":164834,"Delta":85805786},{"NoteNumber":79,"Velocity":82,"Duration":164834,"SoundDuration":164834,"Delta":85805786},{"NoteNumber":74,"Velocity":69,"Duration":164834,"SoundDuration":164834,"Delta":85805786},{"NoteNumber":67,"Velocity":58,"Duration":164834,"SoundDuration":164834,"Delta":85805786},{"NoteNumber":65,"Velocity":73,"Duration":109889,"SoundDuration":109889,"Delta":85805786},{"NoteNumber":63,"Velocity":69,"Duration":109890,"SoundDuration":109890,"Delta":85915676},{"NoteNumber":67,"Velocity":51,"Duration":164834,"SoundDuration":164834,"Delta":86025566},{"NoteNumber":79,"Velocity":73,"Duration":164834,"SoundDuration":164834,"Delta":86025566},{"NoteNumber":71,"Velocity":61,"Duration":164834,"SoundDuration":164834,"Delta":86025566},{"NoteNumber":77,"Velocity":73,"Duration":164834,"SoundDuration":164834,"Delta":86025566},{"NoteNumber":62,"Velocity":73,"Duration":109889,"SoundDuration":109889,"Delta":86025566},{"NoteNumber":60,"Velocity":73,"Duration":109890,"SoundDuration":109890,"Delta":86135456},{"NoteNumber":77,"Velocity":70,"Duration":164834,"SoundDuration":164834,"Delta":86245346},{"NoteNumber":67,"Velocity":50,"Duration":164834,"SoundDuration":164834,"Delta":86245346},{"NoteNumber":71,"Velocity":59,"Duration":164834,"SoundDuration":164834,"Delta":86245346},{"NoteNumber":79,"Velocity":70,"Duration":164834,"SoundDuration":164834,"Delta":86245346},{"NoteNumber":59,"Velocity":72,"Duration":109889,"SoundDuration":109889,"Delta":86245346},{"NoteNumber":56,"Velocity":72,"Duration":109890,"SoundDuration":109890,"Delta":86355236},{"NoteNumber":71,"Velocity":61,"Duration":164834,"SoundDuration":164834,"Delta":86465126},{"NoteNumber":77,"Velocity":73,"Duration":164834,"SoundDuration":164834,"Delta":86465126},{"NoteNumber":67,"Velocity":51,"Duration":164834,"SoundDuration":164834,"Delta":86465126},{"NoteNumber":79,"Velocity":73,"Duration":164834,"SoundDuration":164834,"Delta":86465126},{"NoteNumber":55,"Velocity":71,"Duration":109889,"SoundDuration":109889,"Delta":86465126},{"NoteNumber":53,"Velocity":71,"Duration":109890,"SoundDuration":109890,"Delta":86575016},{"NoteNumber":71,"Velocity":60,"Duration":164834,"SoundDuration":164834,"Delta":86684906},{"NoteNumber":67,"Velocity":51,"Duration":164834,"SoundDuration":164834,"Delta":86684906},{"NoteNumber":77,"Velocity":71,"Duration":164834,"SoundDuration":164834,"Delta":86684906},{"NoteNumber":79,"Velocity":71,"Duration":164834,"SoundDuration":164834,"Delta":86684906},{"NoteNumber":51,"Velocity":70,"Duration":109889,"SoundDuration":109889,"Delta":86684906},{"NoteNumber":50,"Velocity":70,"Duration":109890,"SoundDuration":109890,"Delta":86794796},{"NoteNumber":67,"Velocity":51,"Duration":241844,"SoundDuration":241844,"Delta":86904686},{"NoteNumber":79,"Velocity":73,"Duration":241844,"SoundDuration":241844,"Delta":86904686},{"NoteNumber":72,"Velocity":61,"Duration":241844,"SoundDuration":241844,"Delta":86904686},{"NoteNumber":75,"Velocity":73,"Duration":241844,"SoundDuration":241844,"Delta":86904686},{"NoteNumber":48,"Velocity":67,"Duration":135460,"SoundDuration":135460,"Delta":86904686},{"NoteNumber":50,"Velocity":60,"Duration":106383,"SoundDuration":106383,"Delta":87040147},{"NoteNumber":51,"Velocity":60,"Duration":106635,"SoundDuration":106635,"Delta":87146530},{"NoteNumber":53,"Velocity":60,"Duration":106888,"SoundDuration":106888,"Delta":87253165},{"NoteNumber":55,"Velocity":71,"Duration":109889,"SoundDuration":109889,"Delta":87360053},{"NoteNumber":57,"Velocity":65,"Duration":109890,"SoundDuration":109890,"Delta":87469943},{"NoteNumber":87,"Velocity":69,"Duration":164834,"SoundDuration":164834,"Delta":87579833},{"NoteNumber":91,"Velocity":82,"Duration":164834,"SoundDuration":164834,"Delta":87579833},{"NoteNumber":79,"Velocity":58,"Duration":164834,"SoundDuration":164834,"Delta":87579833},{"NoteNumber":84,"Velocity":69,"Duration":164834,"SoundDuration":164834,"Delta":87579833},{"NoteNumber":59,"Velocity":73,"Duration":109889,"SoundDuration":109889,"Delta":87579833},{"NoteNumber":60,"Velocity":69,"Duration":109890,"SoundDuration":109890,"Delta":87689723},{"NoteNumber":89,"Velocity":73,"Duration":164834,"SoundDuration":164834,"Delta":87799613},{"NoteNumber":79,"Velocity":51,"Duration":164834,"SoundDuration":164834,"Delta":87799613},{"NoteNumber":83,"Velocity":61,"Duration":164834,"SoundDuration":164834,"Delta":87799613},{"NoteNumber":91,"Velocity":73,"Duration":164834,"SoundDuration":164834,"Delta":87799613},{"NoteNumber":62,"Velocity":73,"Duration":109889,"SoundDuration":109889,"Delta":87799613},{"NoteNumber":60,"Velocity":73,"Duration":109890,"SoundDuration":109890,"Delta":87909503},{"NoteNumber":83,"Velocity":59,"Duration":164834,"SoundDuration":164834,"Delta":88019393},{"NoteNumber":91,"Velocity":70,"Duration":164834,"SoundDuration":164834,"Delta":88019393},{"NoteNumber":89,"Velocity":70,"Duration":164834,"SoundDuration":164834,"Delta":88019393},{"NoteNumber":79,"Velocity":50,"Duration":164834,"SoundDuration":164834,"Delta":88019393},{"NoteNumber":59,"Velocity":72,"Duration":109889,"SoundDuration":109889,"Delta":88019393},{"NoteNumber":56,"Velocity":72,"Duration":109890,"SoundDuration":109890,"Delta":88129283},{"NoteNumber":79,"Velocity":51,"Duration":164834,"SoundDuration":164834,"Delta":88239173},{"NoteNumber":91,"Velocity":73,"Duration":164834,"SoundDuration":164834,"Delta":88239173},{"NoteNumber":89,"Velocity":73,"Duration":164834,"SoundDuration":164834,"Delta":88239173},{"NoteNumber":83,"Velocity":61,"Duration":164834,"SoundDuration":164834,"Delta":88239173},{"NoteNumber":55,"Velocity":71,"Duration":109889,"SoundDuration":109889,"Delta":88239173},{"NoteNumber":53,"Velocity":71,"Duration":109890,"SoundDuration":109890,"Delta":88349063},{"NoteNumber":83,"Velocity":60,"Duration":164834,"SoundDuration":164834,"Delta":88458953},{"NoteNumber":91,"Velocity":71,"Duration":164834,"SoundDuration":164834,"Delta":88458953},{"NoteNumber":89,"Velocity":71,"Duration":164834,"SoundDuration":164834,"Delta":88458953},{"NoteNumber":79,"Velocity":51,"Duration":164834,"SoundDuration":164834,"Delta":88458953},{"NoteNumber":51,"Velocity":70,"Duration":109889,"SoundDuration":109889,"Delta":88458953},{"NoteNumber":50,"Velocity":70,"Duration":109890,"SoundDuration":109890,"Delta":88568843},{"NoteNumber":79,"Velocity":51,"Duration":188652,"SoundDuration":188652,"Delta":88678733},{"NoteNumber":91,"Velocity":73,"Duration":188652,"SoundDuration":188652,"Delta":88678733},{"NoteNumber":84,"Velocity":61,"Duration":188652,"SoundDuration":188652,"Delta":88678733},{"NoteNumber":87,"Velocity":73,"Duration":188652,"SoundDuration":188652,"Delta":88678733},{"NoteNumber":48,"Velocity":67,"Duration":135460,"SoundDuration":135460,"Delta":88678733},{"NoteNumber":50,"Velocity":60,"Duration":106383,"SoundDuration":106383,"Delta":88814194},{"NoteNumber":51,"Velocity":60,"Duration":106635,"SoundDuration":106635,"Delta":88920577},{"NoteNumber":53,"Velocity":60,"Duration":106888,"SoundDuration":106888,"Delta":89027213},{"NoteNumber":55,"Velocity":71,"Duration":109889,"SoundDuration":109889,"Delta":89134101},{"NoteNumber":57,"Velocity":65,"Duration":109890,"SoundDuration":109890,"Delta":89243991},{"NoteNumber":75,"Velocity":69,"Duration":164834,"SoundDuration":164834,"Delta":89353881},{"NoteNumber":67,"Velocity":58,"Duration":164834,"SoundDuration":164834,"Delta":89353881},{"NoteNumber":72,"Velocity":69,"Duration":164834,"SoundDuration":164834,"Delta":89353881},{"NoteNumber":79,"Velocity":82,"Duration":164834,"SoundDuration":164834,"Delta":89353881},{"NoteNumber":59,"Velocity":73,"Duration":109889,"SoundDuration":109889,"Delta":89353881},{"NoteNumber":60,"Velocity":69,"Duration":109890,"SoundDuration":109890,"Delta":89463771},{"NoteNumber":71,"Velocity":61,"Duration":164834,"SoundDuration":164834,"Delta":89573661},{"NoteNumber":77,"Velocity":73,"Duration":164834,"SoundDuration":164834,"Delta":89573661},{"NoteNumber":67,"Velocity":51,"Duration":164834,"SoundDuration":164834,"Delta":89573661},{"NoteNumber":79,"Velocity":73,"Duration":164834,"SoundDuration":164834,"Delta":89573661},{"NoteNumber":62,"Velocity":73,"Duration":109889,"SoundDuration":109889,"Delta":89573661},{"NoteNumber":60,"Velocity":73,"Duration":109890,"SoundDuration":109890,"Delta":89683551},{"NoteNumber":71,"Velocity":59,"Duration":164834,"SoundDuration":164834,"Delta":89793441},{"NoteNumber":67,"Velocity":50,"Duration":164834,"SoundDuration":164834,"Delta":89793441},{"NoteNumber":77,"Velocity":70,"Duration":164834,"SoundDuration":164834,"Delta":89793441},{"NoteNumber":79,"Velocity":70,"Duration":164834,"SoundDuration":164834,"Delta":89793441},{"NoteNumber":59,"Velocity":72,"Duration":109889,"SoundDuration":109889,"Delta":89793441},{"NoteNumber":56,"Velocity":72,"Duration":109890,"SoundDuration":109890,"Delta":89903331},{"NoteNumber":67,"Velocity":51,"Duration":164834,"SoundDuration":164834,"Delta":90013221},{"NoteNumber":79,"Velocity":73,"Duration":164834,"SoundDuration":164834,"Delta":90013221},{"NoteNumber":71,"Velocity":61,"Duration":164834,"SoundDuration":164834,"Delta":90013221},{"NoteNumber":77,"Velocity":73,"Duration":164834,"SoundDuration":164834,"Delta":90013221},{"NoteNumber":55,"Velocity":71,"Duration":109889,"SoundDuration":109889,"Delta":90013221},{"NoteNumber":53,"Velocity":71,"Duration":109890,"SoundDuration":109890,"Delta":90123111},{"NoteNumber":77,"Velocity":71,"Duration":164834,"SoundDuration":164834,"Delta":90233001},{"NoteNumber":79,"Velocity":71,"Duration":164834,"SoundDuration":164834,"Delta":90233001},{"NoteNumber":67,"Velocity":51,"Duration":164834,"SoundDuration":164834,"Delta":90233001},{"NoteNumber":71,"Velocity":60,"Duration":164834,"SoundDuration":164834,"Delta":90233001},{"NoteNumber":51,"Velocity":70,"Duration":109889,"SoundDuration":109889,"Delta":90233001},{"NoteNumber":50,"Velocity":70,"Duration":109890,"SoundDuration":109890,"Delta":90342891},{"NoteNumber":75,"Velocity":61,"Duration":188652,"SoundDuration":188652,"Delta":90452781},{"NoteNumber":67,"Velocity":51,"Duration":188652,"SoundDuration":188652,"Delta":90452781},{"NoteNumber":72,"Velocity":61,"Duration":188652,"SoundDuration":188652,"Delta":90452781},{"NoteNumber":79,"Velocity":73,"Duration":188652,"SoundDuration":188652,"Delta":90452781},{"NoteNumber":48,"Velocity":67,"Duration":135460,"SoundDuration":135460,"Delta":90452781},{"NoteNumber":50,"Velocity":60,"Duration":106383,"SoundDuration":106383,"Delta":90588242},{"NoteNumber":51,"Velocity":60,"Duration":106635,"SoundDuration":106635,"Delta":90694625},{"NoteNumber":53,"Velocity":60,"Duration":106888,"SoundDuration":106888,"Delta":90801261},{"NoteNumber":55,"Velocity":71,"Duration":109889,"SoundDuration":109889,"Delta":90908149},{"NoteNumber":57,"Velocity":65,"Duration":109890,"SoundDuration":109890,"Delta":91018039},{"NoteNumber":75,"Velocity":69,"Duration":164834,"SoundDuration":164834,"Delta":91127929},{"NoteNumber":84,"Velocity":82,"Duration":164834,"SoundDuration":164834,"Delta":91127929},{"NoteNumber":79,"Velocity":69,"Duration":164834,"SoundDuration":164834,"Delta":91127929},{"NoteNumber":72,"Velocity":58,"Duration":164834,"SoundDuration":164834,"Delta":91127929},{"NoteNumber":59,"Velocity":73,"Duration":109889,"SoundDuration":109889,"Delta":91127929},{"NoteNumber":60,"Velocity":69,"Duration":109890,"SoundDuration":109890,"Delta":91237819},{"NoteNumber":72,"Velocity":51,"Duration":164834,"SoundDuration":164834,"Delta":91347709},{"NoteNumber":84,"Velocity":73,"Duration":164834,"SoundDuration":164834,"Delta":91347709},{"NoteNumber":76,"Velocity":61,"Duration":164834,"SoundDuration":164834,"Delta":91347709},{"NoteNumber":79,"Velocity":61,"Duration":164834,"SoundDuration":164834,"Delta":91347709},{"NoteNumber":58,"Velocity":73,"Duration":109889,"SoundDuration":109889,"Delta":91347709},{"NoteNumber":56,"Velocity":73,"Duration":109890,"SoundDuration":109890,"Delta":91457599},{"NoteNumber":72,"Velocity":50,"Duration":164834,"SoundDuration":164834,"Delta":91567489},{"NoteNumber":84,"Velocity":70,"Duration":164834,"SoundDuration":164834,"Delta":91567489},{"NoteNumber":76,"Velocity":59,"Duration":164834,"SoundDuration":164834,"Delta":91567489},{"NoteNumber":79,"Velocity":59,"Duration":164834,"SoundDuration":164834,"Delta":91567489},{"NoteNumber":55,"Velocity":72,"Duration":109889,"SoundDuration":109889,"Delta":91567489},{"NoteNumber":53,"Velocity":72,"Duration":109890,"SoundDuration":109890,"Delta":91677379},{"NoteNumber":79,"Velocity":61,"Duration":164834,"SoundDuration":164834,"Delta":91787269},{"NoteNumber":84,"Velocity":73,"Duration":164834,"SoundDuration":164834,"Delta":91787269},{"NoteNumber":76,"Velocity":61,"Duration":164834,"SoundDuration":164834,"Delta":91787269},{"NoteNumber":72,"Velocity":51,"Duration":164834,"SoundDuration":164834,"Delta":91787269},{"NoteNumber":52,"Velocity":71,"Duration":109889,"SoundDuration":109889,"Delta":91787269},{"NoteNumber":50,"Velocity":71,"Duration":109890,"SoundDuration":109890,"Delta":91897159},{"NoteNumber":76,"Velocity":60,"Duration":164834,"SoundDuration":164834,"Delta":92007049},{"NoteNumber":72,"Velocity":51,"Duration":164834,"SoundDuration":164834,"Delta":92007049},{"NoteNumber":84,"Velocity":71,"Duration":164834,"SoundDuration":164834,"Delta":92007049},{"NoteNumber":79,"Velocity":60,"Duration":164834,"SoundDuration":164834,"Delta":92007049},{"NoteNumber":48,"Velocity":70,"Duration":109889,"SoundDuration":109889,"Delta":92007049},{"NoteNumber":46,"Velocity":70,"Duration":109890,"SoundDuration":109890,"Delta":92116939},{"NoteNumber":77,"Velocity":61,"Duration":188652,"SoundDuration":188652,"Delta":92226829},{"NoteNumber":84,"Velocity":73,"Duration":188652,"SoundDuration":188652,"Delta":92226829},{"NoteNumber":80,"Velocity":61,"Duration":188652,"SoundDuration":188652,"Delta":92226829},{"NoteNumber":72,"Velocity":51,"Duration":188652,"SoundDuration":188652,"Delta":92226829},{"NoteNumber":44,"Velocity":67,"Duration":135460,"SoundDuration":135460,"Delta":92226829},{"NoteNumber":46,"Velocity":60,"Duration":106383,"SoundDuration":106383,"Delta":92362290},{"NoteNumber":48,"Velocity":60,"Duration":106635,"SoundDuration":106635,"Delta":92468673},{"NoteNumber":50,"Velocity":60,"Duration":106888,"SoundDuration":106888,"Delta":92575309},{"NoteNumber":52,"Velocity":71,"Duration":110701,"SoundDuration":110701,"Delta":92682197},{"NoteNumber":53,"Velocity":65,"Duration":110700,"SoundDuration":110700,"Delta":92792898},{"NoteNumber":60,"Velocity":58,"Duration":221401,"SoundDuration":221401,"Delta":92903599},{"NoteNumber":72,"Velocity":82,"Duration":221401,"SoundDuration":221401,"Delta":92903599},{"NoteNumber":65,"Velocity":69,"Duration":221401,"SoundDuration":221401,"Delta":92903599},{"NoteNumber":68,"Velocity":69,"Duration":221401,"SoundDuration":221401,"Delta":92903599},{"NoteNumber":55,"Velocity":73,"Duration":110701,"SoundDuration":110701,"Delta":92903599},{"NoteNumber":56,"Velocity":69,"Duration":110700,"SoundDuration":110700,"Delta":93014300},{"NoteNumber":70,"Velocity":73,"Duration":221811,"SoundDuration":221811,"Delta":93125001},{"NoteNumber":60,"Velocity":51,"Duration":221811,"SoundDuration":221811,"Delta":93125001},{"NoteNumber":64,"Velocity":61,"Duration":221811,"SoundDuration":221811,"Delta":93125001},{"NoteNumber":72,"Velocity":73,"Duration":221811,"SoundDuration":221811,"Delta":93125001},{"NoteNumber":55,"Velocity":73,"Duration":110701,"SoundDuration":110701,"Delta":93125001},{"NoteNumber":53,"Velocity":73,"Duration":111110,"SoundDuration":111110,"Delta":93235702},{"NoteNumber":64,"Velocity":59,"Duration":223742,"SoundDuration":223742,"Delta":93346813},{"NoteNumber":70,"Velocity":70,"Duration":223742,"SoundDuration":223742,"Delta":93346813},{"NoteNumber":60,"Velocity":50,"Duration":223742,"SoundDuration":223742,"Delta":93346813},{"NoteNumber":72,"Velocity":70,"Duration":223742,"SoundDuration":223742,"Delta":93346813},{"NoteNumber":52,"Velocity":72,"Duration":111662,"SoundDuration":111662,"Delta":93346813},{"NoteNumber":50,"Velocity":72,"Duration":112080,"SoundDuration":112080,"Delta":93458476},{"NoteNumber":64,"Velocity":61,"Duration":225706,"SoundDuration":225706,"Delta":93570556},{"NoteNumber":60,"Velocity":51,"Duration":225706,"SoundDuration":225706,"Delta":93570556},{"NoteNumber":70,"Velocity":73,"Duration":225706,"SoundDuration":225706,"Delta":93570556},{"NoteNumber":72,"Velocity":73,"Duration":225706,"SoundDuration":225706,"Delta":93570556},{"NoteNumber":48,"Velocity":71,"Duration":112641,"SoundDuration":112641,"Delta":93570556},{"NoteNumber":46,"Velocity":71,"Duration":113065,"SoundDuration":113065,"Delta":93683197},{"NoteNumber":60,"Velocity":51,"Duration":227849,"SoundDuration":227849,"Delta":93796263},{"NoteNumber":72,"Velocity":71,"Duration":227849,"SoundDuration":227849,"Delta":93796263},{"NoteNumber":64,"Velocity":60,"Duration":227849,"SoundDuration":227849,"Delta":93796263},{"NoteNumber":70,"Velocity":71,"Duration":227849,"SoundDuration":227849,"Delta":93796263},{"NoteNumber":44,"Velocity":70,"Duration":113636,"SoundDuration":113636,"Delta":93796263},{"NoteNumber":43,"Velocity":70,"Duration":114213,"SoundDuration":114213,"Delta":93909899},{"NoteNumber":69,"Velocity":89,"Duration":117647,"SoundDuration":117647,"Delta":94024113},{"NoteNumber":72,"Velocity":89,"Duration":117647,"SoundDuration":117647,"Delta":94024113},{"NoteNumber":60,"Velocity":63,"Duration":117647,"SoundDuration":117647,"Delta":94024113},{"NoteNumber":63,"Velocity":75,"Duration":117647,"SoundDuration":117647,"Delta":94024113},{"NoteNumber":30,"Velocity":76,"Duration":117647,"SoundDuration":117647,"Delta":94024113},{"NoteNumber":42,"Velocity":78,"Duration":117647,"SoundDuration":117647,"Delta":94024113},{"NoteNumber":57,"Velocity":70,"Duration":110900,"SoundDuration":110900,"Delta":94141760},{"NoteNumber":60,"Velocity":71,"Duration":107527,"SoundDuration":107527,"Delta":94252660},{"NoteNumber":63,"Velocity":72,"Duration":107398,"SoundDuration":107398,"Delta":94360187},{"NoteNumber":66,"Velocity":72,"Duration":107142,"SoundDuration":107142,"Delta":94467586},{"NoteNumber":69,"Velocity":72,"Duration":107015,"SoundDuration":107015,"Delta":94574729},{"NoteNumber":72,"Velocity":73,"Duration":106761,"SoundDuration":106761,"Delta":94681744},{"NoteNumber":75,"Velocity":74,"Duration":106635,"SoundDuration":106635,"Delta":94788506},{"NoteNumber":78,"Velocity":75,"Duration":106383,"SoundDuration":106383,"Delta":94895141},{"NoteNumber":81,"Velocity":77,"Duration":106257,"SoundDuration":106257,"Delta":95001524},{"NoteNumber":84,"Velocity":79,"Duration":106007,"SoundDuration":106007,"Delta":95107782},{"NoteNumber":87,"Velocity":81,"Duration":105882,"SoundDuration":105882,"Delta":95213789},{"NoteNumber":90,"Velocity":83,"Duration":105633,"SoundDuration":105633,"Delta":95319672},{"NoteNumber":87,"Velocity":83,"Duration":105510,"SoundDuration":105510,"Delta":95425305},{"NoteNumber":84,"Velocity":82,"Duration":105263,"SoundDuration":105263,"Delta":95530816},{"NoteNumber":81,"Velocity":81,"Duration":105140,"SoundDuration":105140,"Delta":95636079},{"NoteNumber":78,"Velocity":81,"Duration":105263,"SoundDuration":105263,"Delta":95741219},{"NoteNumber":75,"Velocity":80,"Duration":105263,"SoundDuration":105263,"Delta":95846483},{"NoteNumber":72,"Velocity":79,"Duration":105633,"SoundDuration":105633,"Delta":95951746},{"NoteNumber":69,"Velocity":78,"Duration":105633,"SoundDuration":105633,"Delta":96057380},{"NoteNumber":66,"Velocity":77,"Duration":106007,"SoundDuration":106007,"Delta":96163013},{"NoteNumber":63,"Velocity":76,"Duration":106006,"SoundDuration":106006,"Delta":96269020},{"NoteNumber":60,"Velocity":75,"Duration":106382,"SoundDuration":106382,"Delta":96375027},{"NoteNumber":57,"Velocity":69,"Duration":106383,"SoundDuration":106383,"Delta":96481410},{"NoteNumber":54,"Velocity":68,"Duration":106761,"SoundDuration":106761,"Delta":96587793},{"NoteNumber":51,"Velocity":68,"Duration":106761,"SoundDuration":106761,"Delta":96694555},{"NoteNumber":48,"Velocity":67,"Duration":107142,"SoundDuration":107142,"Delta":96801316},{"NoteNumber":45,"Velocity":66,"Duration":107142,"SoundDuration":107142,"Delta":96908459},{"NoteNumber":42,"Velocity":66,"Duration":107527,"SoundDuration":107527,"Delta":97015602},{"NoteNumber":39,"Velocity":65,"Duration":107526,"SoundDuration":107526,"Delta":97123129},{"NoteNumber":36,"Velocity":64,"Duration":107913,"SoundDuration":107913,"Delta":97230656},{"NoteNumber":33,"Velocity":63,"Duration":107913,"SoundDuration":107913,"Delta":97338570},{"NoteNumber":30,"Velocity":60,"Duration":108828,"SoundDuration":108828,"Delta":97446483},{"NoteNumber":33,"Velocity":59,"Duration":109091,"SoundDuration":109091,"Delta":97555312},{"NoteNumber":36,"Velocity":58,"Duration":109090,"SoundDuration":109090,"Delta":97664403},{"NoteNumber":39,"Velocity":57,"Duration":109356,"SoundDuration":109356,"Delta":97773494},{"NoteNumber":30,"Velocity":56,"Duration":109488,"SoundDuration":109488,"Delta":97882850},{"NoteNumber":33,"Velocity":54,"Duration":109489,"SoundDuration":109489,"Delta":97992339},{"NoteNumber":36,"Velocity":53,"Duration":109756,"SoundDuration":109756,"Delta":98101828},{"NoteNumber":39,"Velocity":52,"Duration":109889,"SoundDuration":109889,"Delta":98211584},{"NoteNumber":30,"Velocity":51,"Duration":109890,"SoundDuration":109890,"Delta":98321474},{"NoteNumber":33,"Velocity":47,"Duration":110159,"SoundDuration":110159,"Delta":98431364},{"NoteNumber":36,"Velocity":47,"Duration":110293,"SoundDuration":110293,"Delta":98541524},{"NoteNumber":39,"Velocity":47,"Duration":110293,"SoundDuration":110293,"Delta":98651818},{"NoteNumber":30,"Velocity":52,"Duration":110565,"SoundDuration":110565,"Delta":98762112},{"NoteNumber":33,"Velocity":47,"Duration":110700,"SoundDuration":110700,"Delta":98872677},{"NoteNumber":36,"Velocity":46,"Duration":110701,"SoundDuration":110701,"Delta":98983378},{"NoteNumber":39,"Velocity":46,"Duration":111110,"SoundDuration":111110,"Delta":99094079},{"NoteNumber":29,"Velocity":39,"Duration":415588,"SoundDuration":415588,"Delta":99205190},{"NoteNumber":57,"Velocity":40,"Duration":104094,"SoundDuration":104094,"Delta":99309429},{"NoteNumber":60,"Velocity":37,"Duration":103806,"SoundDuration":103806,"Delta":99413524},{"NoteNumber":63,"Velocity":37,"Duration":103448,"SoundDuration":103448,"Delta":99517330},{"NoteNumber":66,"Velocity":40,"Duration":103092,"SoundDuration":103092,"Delta":99620778},{"NoteNumber":68,"Velocity":38,"Duration":103092,"SoundDuration":103092,"Delta":99723871},{"NoteNumber":66,"Velocity":38,"Duration":103211,"SoundDuration":103211,"Delta":99826964},{"NoteNumber":65,"Velocity":38,"Duration":103448,"SoundDuration":103448,"Delta":99930175},{"NoteNumber":63,"Velocity":40,"Duration":103448,"SoundDuration":103448,"Delta":100033623},{"NoteNumber":65,"Velocity":37,"Duration":103686,"SoundDuration":103686,"Delta":100137072},{"NoteNumber":63,"Velocity":37,"Duration":103806,"SoundDuration":103806,"Delta":100240758},{"NoteNumber":61,"Velocity":37,"Duration":103806,"SoundDuration":103806,"Delta":100344565},{"NoteNumber":60,"Velocity":40,"Duration":104166,"SoundDuration":104166,"Delta":100448371},{"NoteNumber":61,"Velocity":37,"Duration":104166,"SoundDuration":104166,"Delta":100552538},{"NoteNumber":63,"Velocity":37,"Duration":104287,"SoundDuration":104287,"Delta":100656704},{"NoteNumber":60,"Velocity":37,"Duration":108498,"SoundDuration":108498,"Delta":100760992},{"NoteNumber":41,"Velocity":35,"Duration":108498,"SoundDuration":108498,"Delta":100760992},{"NoteNumber":29,"Velocity":40,"Duration":414968,"SoundDuration":414968,"Delta":100869491},{"NoteNumber":57,"Velocity":40,"Duration":103950,"SoundDuration":103950,"Delta":100973730},{"NoteNumber":60,"Velocity":37,"Duration":103567,"SoundDuration":103567,"Delta":101077681},{"NoteNumber":63,"Velocity":37,"Duration":103211,"SoundDuration":103211,"Delta":101181248},{"NoteNumber":66,"Velocity":40,"Duration":102739,"SoundDuration":102739,"Delta":101284459},{"NoteNumber":68,"Velocity":38,"Duration":102739,"SoundDuration":102739,"Delta":101387199},{"NoteNumber":66,"Velocity":38,"Duration":102739,"SoundDuration":102739,"Delta":101489939},{"NoteNumber":65,"Velocity":38,"Duration":102857,"SoundDuration":102857,"Delta":101592679},{"NoteNumber":63,"Velocity":40,"Duration":103092,"SoundDuration":103092,"Delta":101695536},{"NoteNumber":65,"Velocity":37,"Duration":103092,"SoundDuration":103092,"Delta":101798629},{"NoteNumber":63,"Velocity":37,"Duration":103448,"SoundDuration":103448,"Delta":101901722},{"NoteNumber":61,"Velocity":37,"Duration":103448,"SoundDuration":103448,"Delta":102005170},{"NoteNumber":60,"Velocity":40,"Duration":103686,"SoundDuration":103686,"Delta":102108618},{"NoteNumber":61,"Velocity":37,"Duration":103806,"SoundDuration":103806,"Delta":102212305},{"NoteNumber":63,"Velocity":37,"Duration":103926,"SoundDuration":103926,"Delta":102316111},{"NoteNumber":60,"Velocity":37,"Duration":108908,"SoundDuration":108908,"Delta":102420038},{"NoteNumber":41,"Velocity":35,"Duration":108908,"SoundDuration":108908,"Delta":102420038},{"NoteNumber":29,"Velocity":40,"Duration":416258,"SoundDuration":416258,"Delta":102528946},{"NoteNumber":57,"Velocity":47,"Duration":104166,"SoundDuration":104166,"Delta":102633185},{"NoteNumber":60,"Velocity":49,"Duration":104046,"SoundDuration":104046,"Delta":102737352},{"NoteNumber":63,"Velocity":50,"Duration":103806,"SoundDuration":103806,"Delta":102841399},{"NoteNumber":66,"Velocity":52,"Duration":103448,"SoundDuration":103448,"Delta":102945205},{"NoteNumber":68,"Velocity":54,"Duration":103448,"SoundDuration":103448,"Delta":103048653},{"NoteNumber":66,"Velocity":56,"Duration":103567,"SoundDuration":103567,"Delta":103152102},{"NoteNumber":57,"Velocity":38,"Duration":103567,"SoundDuration":103567,"Delta":103152102},{"NoteNumber":65,"Velocity":58,"Duration":112781,"SoundDuration":112781,"Delta":103255669},{"NoteNumber":58,"Velocity":42,"Duration":112781,"SoundDuration":112781,"Delta":103255669},{"NoteNumber":63,"Velocity":67,"Duration":209304,"SoundDuration":209304,"Delta":103368451},{"NoteNumber":60,"Velocity":49,"Duration":104894,"SoundDuration":104894,"Delta":103368451},{"NoteNumber":61,"Velocity":42,"Duration":104409,"SoundDuration":104409,"Delta":103473346},{"NoteNumber":63,"Velocity":47,"Duration":104166,"SoundDuration":104166,"Delta":103577756},{"NoteNumber":60,"Velocity":43,"Duration":104166,"SoundDuration":104166,"Delta":103577756},{"NoteNumber":65,"Velocity":49,"Duration":104166,"SoundDuration":104166,"Delta":103681922},{"NoteNumber":58,"Velocity":43,"Duration":104166,"SoundDuration":104166,"Delta":103681922},{"NoteNumber":66,"Velocity":52,"Duration":104529,"SoundDuration":104529,"Delta":103786089},{"NoteNumber":57,"Velocity":47,"Duration":209058,"SoundDuration":209058,"Delta":103786089},{"NoteNumber":68,"Velocity":54,"Duration":104529,"SoundDuration":104529,"Delta":103890619},{"NoteNumber":66,"Velocity":56,"Duration":104651,"SoundDuration":104651,"Delta":103995148},{"NoteNumber":57,"Velocity":41,"Duration":104651,"SoundDuration":104651,"Delta":103995148},{"NoteNumber":65,"Velocity":59,"Duration":113636,"SoundDuration":113636,"Delta":104099799},{"NoteNumber":58,"Velocity":46,"Duration":113636,"SoundDuration":113636,"Delta":104099799},{"NoteNumber":63,"Velocity":67,"Duration":208333,"SoundDuration":208333,"Delta":104213436},{"NoteNumber":60,"Velocity":53,"Duration":104166,"SoundDuration":104166,"Delta":104213436},{"NoteNumber":61,"Velocity":42,"Duration":104166,"SoundDuration":104166,"Delta":104317602},{"NoteNumber":63,"Velocity":50,"Duration":104166,"SoundDuration":104166,"Delta":104421769},{"NoteNumber":60,"Velocity":43,"Duration":104166,"SoundDuration":104166,"Delta":104421769},{"NoteNumber":65,"Velocity":50,"Duration":104166,"SoundDuration":104166,"Delta":104525936},{"NoteNumber":58,"Velocity":43,"Duration":104166,"SoundDuration":104166,"Delta":104525936},{"NoteNumber":66,"Velocity":56,"Duration":104529,"SoundDuration":104529,"Delta":104630103},{"NoteNumber":57,"Velocity":47,"Duration":209058,"SoundDuration":209058,"Delta":104630103},{"NoteNumber":68,"Velocity":49,"Duration":104529,"SoundDuration":104529,"Delta":104734632},{"NoteNumber":66,"Velocity":50,"Duration":104651,"SoundDuration":104651,"Delta":104839162},{"NoteNumber":57,"Velocity":43,"Duration":104651,"SoundDuration":104651,"Delta":104839162},{"NoteNumber":65,"Velocity":50,"Duration":113207,"SoundDuration":113207,"Delta":104943813},{"NoteNumber":58,"Velocity":47,"Duration":113207,"SoundDuration":113207,"Delta":104943813},{"NoteNumber":63,"Velocity":67,"Duration":238095,"SoundDuration":238095,"Delta":105057021},{"NoteNumber":60,"Velocity":52,"Duration":119047,"SoundDuration":119047,"Delta":105057021},{"NoteNumber":61,"Velocity":42,"Duration":119047,"SoundDuration":119047,"Delta":105176068},{"NoteNumber":66,"Velocity":56,"Duration":236220,"SoundDuration":236220,"Delta":105295116},{"NoteNumber":78,"Velocity":56,"Duration":236220,"SoundDuration":236220,"Delta":105295116},{"NoteNumber":60,"Velocity":43,"Duration":118110,"SoundDuration":118110,"Delta":105295116},{"NoteNumber":58,"Velocity":43,"Duration":118110,"SoundDuration":118110,"Delta":105413226},{"NoteNumber":65,"Velocity":60,"Duration":239999,"SoundDuration":239999,"Delta":105531336},{"NoteNumber":77,"Velocity":60,"Duration":239999,"SoundDuration":239999,"Delta":105531336},{"NoteNumber":57,"Velocity":44,"Duration":120000,"SoundDuration":120000,"Delta":105531336},{"NoteNumber":54,"Velocity":42,"Duration":119999,"SoundDuration":119999,"Delta":105651336},{"NoteNumber":69,"Velocity":54,"Duration":240000,"SoundDuration":240000,"Delta":105771336},{"NoteNumber":81,"Velocity":54,"Duration":240000,"SoundDuration":240000,"Delta":105771336},{"NoteNumber":53,"Velocity":41,"Duration":120000,"SoundDuration":120000,"Delta":105771336},{"NoteNumber":51,"Velocity":39,"Duration":120000,"SoundDuration":120000,"Delta":105891336},{"NoteNumber":82,"Velocity":56,"Duration":106382,"SoundDuration":106382,"Delta":106011336},{"NoteNumber":70,"Velocity":56,"Duration":106382,"SoundDuration":106382,"Delta":106011336},{"NoteNumber":49,"Velocity":44,"Duration":1683744,"SoundDuration":1683744,"Delta":106011336},{"NoteNumber":65,"Velocity":51,"Duration":106007,"SoundDuration":106007,"Delta":106117719},{"NoteNumber":53,"Velocity":32,"Duration":106007,"SoundDuration":106007,"Delta":106117719},{"NoteNumber":70,"Velocity":52,"Duration":105633,"SoundDuration":105633,"Delta":106223726},{"NoteNumber":58,"Velocity":33,"Duration":105633,"SoundDuration":105633,"Delta":106223726},{"NoteNumber":73,"Velocity":53,"Duration":105263,"SoundDuration":105263,"Delta":106329360},{"NoteNumber":53,"Velocity":34,"Duration":105263,"SoundDuration":105263,"Delta":106329360},{"NoteNumber":77,"Velocity":57,"Duration":104894,"SoundDuration":104894,"Delta":106434623},{"NoteNumber":58,"Velocity":38,"Duration":104894,"SoundDuration":104894,"Delta":106434623},{"NoteNumber":78,"Velocity":55,"Duration":104529,"SoundDuration":104529,"Delta":106539518},{"NoteNumber":53,"Velocity":37,"Duration":104529,"SoundDuration":104529,"Delta":106539518},{"NoteNumber":77,"Velocity":56,"Duration":104166,"SoundDuration":104166,"Delta":106644048},{"NoteNumber":58,"Velocity":38,"Duration":104166,"SoundDuration":104166,"Delta":106644048},{"NoteNumber":75,"Velocity":55,"Duration":103092,"SoundDuration":103092,"Delta":106748214},{"NoteNumber":53,"Velocity":38,"Duration":103092,"SoundDuration":103092,"Delta":106748214},{"NoteNumber":73,"Velocity":57,"Duration":103567,"SoundDuration":103567,"Delta":106851307},{"NoteNumber":58,"Velocity":39,"Duration":103567,"SoundDuration":103567,"Delta":106851307},{"NoteNumber":75,"Velocity":56,"Duration":104046,"SoundDuration":104046,"Delta":106954875},{"NoteNumber":53,"Velocity":39,"Duration":104046,"SoundDuration":104046,"Delta":106954875},{"NoteNumber":73,"Velocity":56,"Duration":104651,"SoundDuration":104651,"Delta":107058921},{"NoteNumber":58,"Velocity":38,"Duration":104651,"SoundDuration":104651,"Delta":107058921},{"NoteNumber":72,"Velocity":55,"Duration":105140,"SoundDuration":105140,"Delta":107163573},{"NoteNumber":53,"Velocity":38,"Duration":105140,"SoundDuration":105140,"Delta":107163573},{"NoteNumber":70,"Velocity":54,"Duration":105758,"SoundDuration":105758,"Delta":107268713},{"NoteNumber":58,"Velocity":38,"Duration":105758,"SoundDuration":105758,"Delta":107268713},{"NoteNumber":72,"Velocity":53,"Duration":106257,"SoundDuration":106257,"Delta":107374471},{"NoteNumber":53,"Velocity":37,"Duration":106257,"SoundDuration":106257,"Delta":107374471},{"NoteNumber":73,"Velocity":53,"Duration":106888,"SoundDuration":106888,"Delta":107480729},{"NoteNumber":58,"Velocity":37,"Duration":106888,"SoundDuration":106888,"Delta":107480729},{"NoteNumber":70,"Velocity":52,"Duration":107463,"SoundDuration":107463,"Delta":107587617},{"NoteNumber":53,"Velocity":36,"Duration":107463,"SoundDuration":107463,"Delta":107587617},{"NoteNumber":49,"Velocity":44,"Duration":1676169,"SoundDuration":1676169,"Delta":107695081},{"NoteNumber":65,"Velocity":51,"Duration":105758,"SoundDuration":105758,"Delta":107800717},{"NoteNumber":53,"Velocity":32,"Duration":105758,"SoundDuration":105758,"Delta":107800717},{"NoteNumber":70,"Velocity":52,"Duration":105263,"SoundDuration":105263,"Delta":107906475},{"NoteNumber":58,"Velocity":33,"Duration":105263,"SoundDuration":105263,"Delta":107906475},{"NoteNumber":73,"Velocity":53,"Duration":104773,"SoundDuration":104773,"Delta":108011739},{"NoteNumber":53,"Velocity":34,"Duration":104773,"SoundDuration":104773,"Delta":108011739},{"NoteNumber":77,"Velocity":57,"Duration":104408,"SoundDuration":104408,"Delta":108116512},{"NoteNumber":58,"Velocity":38,"Duration":104408,"SoundDuration":104408,"Delta":108116512},{"NoteNumber":78,"Velocity":55,"Duration":103926,"SoundDuration":103926,"Delta":108220920},{"NoteNumber":53,"Velocity":37,"Duration":103926,"SoundDuration":103926,"Delta":108220920},{"NoteNumber":77,"Velocity":56,"Duration":103567,"SoundDuration":103567,"Delta":108324847},{"NoteNumber":58,"Velocity":38,"Duration":103567,"SoundDuration":103567,"Delta":108324847},{"NoteNumber":75,"Velocity":55,"Duration":102975,"SoundDuration":102975,"Delta":108428414},{"NoteNumber":53,"Velocity":38,"Duration":102975,"SoundDuration":102975,"Delta":108428414},{"NoteNumber":73,"Velocity":57,"Duration":102975,"SoundDuration":102975,"Delta":108531389},{"NoteNumber":58,"Velocity":39,"Duration":102975,"SoundDuration":102975,"Delta":108531389},{"NoteNumber":75,"Velocity":56,"Duration":103567,"SoundDuration":103567,"Delta":108634364},{"NoteNumber":53,"Velocity":39,"Duration":103567,"SoundDuration":103567,"Delta":108634364},{"NoteNumber":73,"Velocity":56,"Duration":104046,"SoundDuration":104046,"Delta":108737932},{"NoteNumber":58,"Velocity":38,"Duration":104046,"SoundDuration":104046,"Delta":108737932},{"NoteNumber":72,"Velocity":55,"Duration":104651,"SoundDuration":104651,"Delta":108841979},{"NoteNumber":53,"Velocity":38,"Duration":104651,"SoundDuration":104651,"Delta":108841979},{"NoteNumber":70,"Velocity":54,"Duration":105140,"SoundDuration":105140,"Delta":108946630},{"NoteNumber":58,"Velocity":38,"Duration":105140,"SoundDuration":105140,"Delta":108946630},{"NoteNumber":72,"Velocity":53,"Duration":105758,"SoundDuration":105758,"Delta":109051770},{"NoteNumber":53,"Velocity":37,"Duration":105758,"SoundDuration":105758,"Delta":109051770},{"NoteNumber":73,"Velocity":53,"Duration":106257,"SoundDuration":106257,"Delta":109157529},{"NoteNumber":58,"Velocity":37,"Duration":106257,"SoundDuration":106257,"Delta":109157529},{"NoteNumber":70,"Velocity":52,"Duration":107463,"SoundDuration":107463,"Delta":109263786},{"NoteNumber":53,"Velocity":36,"Duration":107463,"SoundDuration":107463,"Delta":109263786},{"NoteNumber":51,"Velocity":44,"Duration":1663641,"SoundDuration":1663641,"Delta":109371250},{"NoteNumber":66,"Velocity":51,"Duration":104469,"SoundDuration":104469,"Delta":109476145},{"NoteNumber":54,"Velocity":32,"Duration":104469,"SoundDuration":104469,"Delta":109476145},{"NoteNumber":71,"Velocity":53,"Duration":104046,"SoundDuration":104046,"Delta":109580614},{"NoteNumber":59,"Velocity":33,"Duration":104046,"SoundDuration":104046,"Delta":109580614},{"NoteNumber":75,"Velocity":54,"Duration":103686,"SoundDuration":103686,"Delta":109684661},{"NoteNumber":54,"Velocity":35,"Duration":103686,"SoundDuration":103686,"Delta":109684661},{"NoteNumber":78,"Velocity":59,"Duration":103270,"SoundDuration":103270,"Delta":109788348},{"NoteNumber":59,"Velocity":39,"Duration":103270,"SoundDuration":103270,"Delta":109788348},{"NoteNumber":80,"Velocity":58,"Duration":102857,"SoundDuration":102857,"Delta":109891618},{"NoteNumber":54,"Velocity":39,"Duration":102857,"SoundDuration":102857,"Delta":109891618},{"NoteNumber":78,"Velocity":59,"Duration":102505,"SoundDuration":102505,"Delta":109994476},{"NoteNumber":59,"Velocity":40,"Duration":102505,"SoundDuration":102505,"Delta":109994476},{"NoteNumber":77,"Velocity":59,"Duration":102098,"SoundDuration":102098,"Delta":110096982},{"NoteNumber":54,"Velocity":41,"Duration":102098,"SoundDuration":102098,"Delta":110096982},{"NoteNumber":75,"Velocity":62,"Duration":101867,"SoundDuration":101867,"Delta":110199080},{"NoteNumber":59,"Velocity":42,"Duration":101867,"SoundDuration":101867,"Delta":110199080},{"NoteNumber":77,"Velocity":62,"Duration":102623,"SoundDuration":102623,"Delta":110300948},{"NoteNumber":54,"Velocity":43,"Duration":102623,"SoundDuration":102623,"Delta":110300948},{"NoteNumber":75,"Velocity":62,"Duration":103389,"SoundDuration":103389,"Delta":110403571},{"NoteNumber":59,"Velocity":42,"Duration":103389,"SoundDuration":103389,"Delta":110403571},{"NoteNumber":73,"Velocity":62,"Duration":104227,"SoundDuration":104227,"Delta":110506961},{"NoteNumber":54,"Velocity":42,"Duration":104227,"SoundDuration":104227,"Delta":110506961},{"NoteNumber":71,"Velocity":62,"Duration":105018,"SoundDuration":105018,"Delta":110611188},{"NoteNumber":59,"Velocity":43,"Duration":105018,"SoundDuration":105018,"Delta":110611188},{"NoteNumber":73,"Velocity":61,"Duration":105883,"SoundDuration":105883,"Delta":110716207},{"NoteNumber":54,"Velocity":42,"Duration":105883,"SoundDuration":105883,"Delta":110716207},{"NoteNumber":75,"Velocity":64,"Duration":106698,"SoundDuration":106698,"Delta":110822090},{"NoteNumber":59,"Velocity":45,"Duration":106698,"SoundDuration":106698,"Delta":110822090},{"NoteNumber":71,"Velocity":61,"Duration":106103,"SoundDuration":106103,"Delta":110928789},{"NoteNumber":54,"Velocity":42,"Duration":106103,"SoundDuration":106103,"Delta":110928789},{"NoteNumber":70,"Velocity":68,"Duration":103567,"SoundDuration":103567,"Delta":111034892},{"NoteNumber":53,"Velocity":46,"Duration":842350,"SoundDuration":842350,"Delta":111034892},{"NoteNumber":72,"Velocity":64,"Duration":104046,"SoundDuration":104046,"Delta":111138460},{"NoteNumber":58,"Velocity":46,"Duration":104046,"SoundDuration":104046,"Delta":111138460},{"NoteNumber":70,"Velocity":66,"Duration":104651,"SoundDuration":104651,"Delta":111242506},{"NoteNumber":61,"Velocity":44,"Duration":104651,"SoundDuration":104651,"Delta":111242506},{"NoteNumber":69,"Velocity":64,"Duration":105140,"SoundDuration":105140,"Delta":111347157},{"NoteNumber":58,"Velocity":44,"Duration":105140,"SoundDuration":105140,"Delta":111347157},{"NoteNumber":70,"Velocity":62,"Duration":105758,"SoundDuration":105758,"Delta":111452298},{"NoteNumber":61,"Velocity":43,"Duration":105758,"SoundDuration":105758,"Delta":111452298},{"NoteNumber":72,"Velocity":60,"Duration":106257,"SoundDuration":106257,"Delta":111558056},{"NoteNumber":58,"Velocity":42,"Duration":106257,"SoundDuration":106257,"Delta":111558056},{"NoteNumber":73,"Velocity":59,"Duration":106825,"SoundDuration":106825,"Delta":111664314},{"NoteNumber":61,"Velocity":41,"Duration":106825,"SoundDuration":106825,"Delta":111664314},{"NoteNumber":70,"Velocity":58,"Duration":106103,"SoundDuration":106103,"Delta":111771139},{"NoteNumber":58,"Velocity":40,"Duration":106103,"SoundDuration":106103,"Delta":111771139},{"NoteNumber":69,"Velocity":62,"Duration":103567,"SoundDuration":103567,"Delta":111877242},{"NoteNumber":51,"Velocity":42,"Duration":842654,"SoundDuration":842654,"Delta":111877242},{"NoteNumber":70,"Velocity":61,"Duration":104046,"SoundDuration":104046,"Delta":111980810},{"NoteNumber":53,"Velocity":42,"Duration":104046,"SoundDuration":104046,"Delta":111980810},{"NoteNumber":69,"Velocity":60,"Duration":104529,"SoundDuration":104529,"Delta":112084856},{"NoteNumber":60,"Velocity":41,"Duration":104529,"SoundDuration":104529,"Delta":112084856},{"NoteNumber":67,"Velocity":58,"Duration":105017,"SoundDuration":105017,"Delta":112189386},{"NoteNumber":53,"Velocity":40,"Duration":105017,"SoundDuration":105017,"Delta":112189386},{"NoteNumber":69,"Velocity":56,"Duration":105510,"SoundDuration":105510,"Delta":112294404},{"NoteNumber":60,"Velocity":39,"Duration":105510,"SoundDuration":105510,"Delta":112294404},{"NoteNumber":70,"Velocity":55,"Duration":105882,"SoundDuration":105882,"Delta":112399914},{"NoteNumber":53,"Velocity":38,"Duration":105882,"SoundDuration":105882,"Delta":112399914},{"NoteNumber":72,"Velocity":54,"Duration":106572,"SoundDuration":106572,"Delta":112505796},{"NoteNumber":60,"Velocity":38,"Duration":106572,"SoundDuration":106572,"Delta":112505796},{"NoteNumber":69,"Velocity":53,"Duration":107527,"SoundDuration":107527,"Delta":112612369},{"NoteNumber":53,"Velocity":36,"Duration":107527,"SoundDuration":107527,"Delta":112612369},{"NoteNumber":70,"Velocity":61,"Duration":209789,"SoundDuration":209789,"Delta":112719897},{"NoteNumber":49,"Velocity":48,"Duration":104894,"SoundDuration":104894,"Delta":112719897},{"NoteNumber":65,"Velocity":48,"Duration":104894,"SoundDuration":104894,"Delta":112824792},{"NoteNumber":70,"Velocity":57,"Duration":104651,"SoundDuration":104651,"Delta":112929687},{"NoteNumber":73,"Velocity":58,"Duration":104529,"SoundDuration":104529,"Delta":113034338},{"NoteNumber":77,"Velocity":62,"Duration":104166,"SoundDuration":104166,"Delta":113138867},{"NoteNumber":58,"Velocity":58,"Duration":415826,"SoundDuration":415826,"Delta":113138867},{"NoteNumber":78,"Velocity":60,"Duration":104166,"SoundDuration":104166,"Delta":113243034},{"NoteNumber":61,"Velocity":40,"Duration":104166,"SoundDuration":104166,"Delta":113243034},{"NoteNumber":77,"Velocity":61,"Duration":103806,"SoundDuration":103806,"Delta":113347201},{"NoteNumber":65,"Velocity":41,"Duration":103806,"SoundDuration":103806,"Delta":113347201},{"NoteNumber":75,"Velocity":60,"Duration":103686,"SoundDuration":103686,"Delta":113451007},{"NoteNumber":61,"Velocity":41,"Duration":103686,"SoundDuration":103686,"Delta":113451007},{"NoteNumber":73,"Velocity":62,"Duration":103806,"SoundDuration":103806,"Delta":113554694},{"NoteNumber":57,"Velocity":62,"Duration":417397,"SoundDuration":417397,"Delta":113554694},{"NoteNumber":75,"Velocity":61,"Duration":104166,"SoundDuration":104166,"Delta":113658500},{"NoteNumber":61,"Velocity":42,"Duration":104166,"SoundDuration":104166,"Delta":113658500},{"NoteNumber":73,"Velocity":61,"Duration":104529,"SoundDuration":104529,"Delta":113762667},{"NoteNumber":65,"Velocity":41,"Duration":104529,"SoundDuration":104529,"Delta":113762667},{"NoteNumber":72,"Velocity":60,"Duration":104894,"SoundDuration":104894,"Delta":113867197},{"NoteNumber":61,"Velocity":41,"Duration":104894,"SoundDuration":104894,"Delta":113867197},{"NoteNumber":82,"Velocity":69,"Duration":210896,"SoundDuration":210896,"Delta":113972092},{"NoteNumber":70,"Velocity":69,"Duration":105263,"SoundDuration":105263,"Delta":113972092},{"NoteNumber":58,"Velocity":54,"Duration":424683,"SoundDuration":424683,"Delta":113972092},{"NoteNumber":72,"Velocity":58,"Duration":105633,"SoundDuration":105633,"Delta":114077355},{"NoteNumber":61,"Velocity":40,"Duration":105633,"SoundDuration":105633,"Delta":114077355},{"NoteNumber":73,"Velocity":59,"Duration":106258,"SoundDuration":106258,"Delta":114182989},{"NoteNumber":65,"Velocity":40,"Duration":106258,"SoundDuration":106258,"Delta":114182989},{"NoteNumber":70,"Velocity":58,"Duration":107527,"SoundDuration":107527,"Delta":114289248},{"NoteNumber":61,"Velocity":40,"Duration":107527,"SoundDuration":107527,"Delta":114289248},{"NoteNumber":81,"Velocity":71,"Duration":211640,"SoundDuration":211640,"Delta":114396775},{"NoteNumber":49,"Velocity":49,"Duration":106007,"SoundDuration":106007,"Delta":114396775},{"NoteNumber":65,"Velocity":50,"Duration":105633,"SoundDuration":105633,"Delta":114502782},{"NoteNumber":70,"Velocity":60,"Duration":105263,"SoundDuration":105263,"Delta":114608416},{"NoteNumber":73,"Velocity":62,"Duration":104894,"SoundDuration":104894,"Delta":114713679},{"NoteNumber":82,"Velocity":69,"Duration":208696,"SoundDuration":208696,"Delta":114818574},{"NoteNumber":77,"Velocity":69,"Duration":104529,"SoundDuration":104529,"Delta":114818574},{"NoteNumber":58,"Velocity":65,"Duration":415832,"SoundDuration":415832,"Delta":114818574},{"NoteNumber":78,"Velocity":65,"Duration":104166,"SoundDuration":104166,"Delta":114923103},{"NoteNumber":61,"Velocity":43,"Duration":104166,"SoundDuration":104166,"Delta":114923103},{"NoteNumber":77,"Velocity":67,"Duration":103806,"SoundDuration":103806,"Delta":115027270},{"NoteNumber":65,"Velocity":45,"Duration":103806,"SoundDuration":103806,"Delta":115027270},{"NoteNumber":75,"Velocity":66,"Duration":103329,"SoundDuration":103329,"Delta":115131076},{"NoteNumber":61,"Velocity":45,"Duration":103329,"SoundDuration":103329,"Delta":115131076},{"NoteNumber":73,"Velocity":69,"Duration":103329,"SoundDuration":103329,"Delta":115234406},{"NoteNumber":57,"Velocity":70,"Duration":416805,"SoundDuration":416805,"Delta":115234406},{"NoteNumber":75,"Velocity":68,"Duration":103926,"SoundDuration":103926,"Delta":115337736},{"NoteNumber":61,"Velocity":47,"Duration":103926,"SoundDuration":103926,"Delta":115337736},{"NoteNumber":73,"Velocity":69,"Duration":104408,"SoundDuration":104408,"Delta":115441662},{"NoteNumber":65,"Velocity":46,"Duration":104408,"SoundDuration":104408,"Delta":115441662},{"NoteNumber":72,"Velocity":69,"Duration":105140,"SoundDuration":105140,"Delta":115546071},{"NoteNumber":61,"Velocity":47,"Duration":105140,"SoundDuration":105140,"Delta":115546071},{"NoteNumber":82,"Velocity":82,"Duration":212015,"SoundDuration":212015,"Delta":115651211},{"NoteNumber":70,"Velocity":68,"Duration":105758,"SoundDuration":105758,"Delta":115651211},{"NoteNumber":58,"Velocity":72,"Duration":426558,"SoundDuration":426558,"Delta":115651211},{"NoteNumber":72,"Velocity":67,"Duration":106257,"SoundDuration":106257,"Delta":115756970},{"NoteNumber":61,"Velocity":46,"Duration":106257,"SoundDuration":106257,"Delta":115756970},{"NoteNumber":73,"Velocity":68,"Duration":107015,"SoundDuration":107015,"Delta":115863227},{"NoteNumber":65,"Velocity":47,"Duration":107015,"SoundDuration":107015,"Delta":115863227},{"NoteNumber":70,"Velocity":67,"Duration":107527,"SoundDuration":107527,"Delta":115970243},{"NoteNumber":61,"Velocity":46,"Duration":107527,"SoundDuration":107527,"Delta":115970243},{"NoteNumber":71,"Velocity":88,"Duration":104166,"SoundDuration":104166,"Delta":116077770},{"NoteNumber":83,"Velocity":88,"Duration":104166,"SoundDuration":104166,"Delta":116077770},{"NoteNumber":51,"Velocity":70,"Duration":104166,"SoundDuration":104166,"Delta":116077770},{"NoteNumber":78,"Velocity":74,"Duration":103926,"SoundDuration":103926,"Delta":116181937},{"NoteNumber":66,"Velocity":55,"Duration":103926,"SoundDuration":103926,"Delta":116181937},{"NoteNumber":71,"Velocity":55,"Duration":103926,"SoundDuration":103926,"Delta":116181937},{"NoteNumber":83,"Velocity":76,"Duration":103567,"SoundDuration":103567,"Delta":116285864},{"NoteNumber":63,"Velocity":59,"Duration":103567,"SoundDuration":103567,"Delta":116285864},{"NoteNumber":87,"Velocity":78,"Duration":103329,"SoundDuration":103329,"Delta":116389431},{"NoteNumber":66,"Velocity":55,"Duration":103329,"SoundDuration":103329,"Delta":116389431},{"NoteNumber":71,"Velocity":55,"Duration":103329,"SoundDuration":103329,"Delta":116389431},{"NoteNumber":90,"Velocity":80,"Duration":102975,"SoundDuration":102975,"Delta":116492761},{"NoteNumber":63,"Velocity":59,"Duration":102975,"SoundDuration":102975,"Delta":116492761},{"NoteNumber":92,"Velocity":76,"Duration":102739,"SoundDuration":102739,"Delta":116595736},{"NoteNumber":66,"Velocity":55,"Duration":102739,"SoundDuration":102739,"Delta":116595736},{"NoteNumber":71,"Velocity":55,"Duration":102739,"SoundDuration":102739,"Delta":116595736},{"NoteNumber":90,"Velocity":76,"Duration":102389,"SoundDuration":102389,"Delta":116698476},{"NoteNumber":63,"Velocity":59,"Duration":102389,"SoundDuration":102389,"Delta":116698476},{"NoteNumber":89,"Velocity":76,"Duration":102040,"SoundDuration":102040,"Delta":116800865},{"NoteNumber":66,"Velocity":56,"Duration":102040,"SoundDuration":102040,"Delta":116800865},{"NoteNumber":71,"Velocity":56,"Duration":102040,"SoundDuration":102040,"Delta":116800865},{"NoteNumber":87,"Velocity":77,"Duration":101238,"SoundDuration":101238,"Delta":116902905},{"NoteNumber":63,"Velocity":59,"Duration":101238,"SoundDuration":101238,"Delta":116902905},{"NoteNumber":89,"Velocity":71,"Duration":101237,"SoundDuration":101237,"Delta":117004144},{"NoteNumber":66,"Velocity":55,"Duration":101237,"SoundDuration":101237,"Delta":117004144},{"NoteNumber":71,"Velocity":55,"Duration":101237,"SoundDuration":101237,"Delta":117004144},{"NoteNumber":87,"Velocity":72,"Duration":101695,"SoundDuration":101695,"Delta":117105381},{"NoteNumber":63,"Velocity":59,"Duration":101695,"SoundDuration":101695,"Delta":117105381},{"NoteNumber":85,"Velocity":72,"Duration":102156,"SoundDuration":102156,"Delta":117207076},{"NoteNumber":66,"Velocity":55,"Duration":102156,"SoundDuration":102156,"Delta":117207076},{"NoteNumber":71,"Velocity":55,"Duration":102156,"SoundDuration":102156,"Delta":117207076},{"NoteNumber":83,"Velocity":78,"Duration":102505,"SoundDuration":102505,"Delta":117309233},{"NoteNumber":63,"Velocity":59,"Duration":102505,"SoundDuration":102505,"Delta":117309233},{"NoteNumber":85,"Velocity":73,"Duration":102975,"SoundDuration":102975,"Delta":117411739},{"NoteNumber":66,"Velocity":55,"Duration":102975,"SoundDuration":102975,"Delta":117411739},{"NoteNumber":71,"Velocity":55,"Duration":102975,"SoundDuration":102975,"Delta":117411739},{"NoteNumber":83,"Velocity":73,"Duration":103329,"SoundDuration":103329,"Delta":117514714},{"NoteNumber":63,"Velocity":59,"Duration":103329,"SoundDuration":103329,"Delta":117514714},{"NoteNumber":82,"Velocity":72,"Duration":103926,"SoundDuration":103926,"Delta":117618044},{"NoteNumber":66,"Velocity":56,"Duration":103926,"SoundDuration":103926,"Delta":117618044},{"NoteNumber":71,"Velocity":56,"Duration":103926,"SoundDuration":103926,"Delta":117618044},{"NoteNumber":81,"Velocity":77,"Duration":104166,"SoundDuration":104166,"Delta":117721970},{"NoteNumber":65,"Velocity":59,"Duration":104166,"SoundDuration":104166,"Delta":117721970},{"NoteNumber":84,"Velocity":71,"Duration":103806,"SoundDuration":103806,"Delta":117826137},{"NoteNumber":69,"Velocity":55,"Duration":103806,"SoundDuration":103806,"Delta":117826137},{"NoteNumber":72,"Velocity":55,"Duration":103806,"SoundDuration":103806,"Delta":117826137},{"NoteNumber":75,"Velocity":55,"Duration":103806,"SoundDuration":103806,"Delta":117826137},{"NoteNumber":87,"Velocity":72,"Duration":103448,"SoundDuration":103448,"Delta":117929943},{"NoteNumber":65,"Velocity":59,"Duration":103448,"SoundDuration":103448,"Delta":117929943},{"NoteNumber":85,"Velocity":72,"Duration":103211,"SoundDuration":103211,"Delta":118033392},{"NoteNumber":69,"Velocity":55,"Duration":103211,"SoundDuration":103211,"Delta":118033392},{"NoteNumber":72,"Velocity":55,"Duration":103211,"SoundDuration":103211,"Delta":118033392},{"NoteNumber":75,"Velocity":55,"Duration":103211,"SoundDuration":103211,"Delta":118033392},{"NoteNumber":84,"Velocity":78,"Duration":102857,"SoundDuration":102857,"Delta":118136603},{"NoteNumber":65,"Velocity":59,"Duration":102857,"SoundDuration":102857,"Delta":118136603},{"NoteNumber":85,"Velocity":73,"Duration":103093,"SoundDuration":103093,"Delta":118239460},{"NoteNumber":69,"Velocity":55,"Duration":103093,"SoundDuration":103093,"Delta":118239460},{"NoteNumber":72,"Velocity":55,"Duration":103093,"SoundDuration":103093,"Delta":118239460},{"NoteNumber":75,"Velocity":55,"Duration":103093,"SoundDuration":103093,"Delta":118239460},{"NoteNumber":84,"Velocity":73,"Duration":103926,"SoundDuration":103926,"Delta":118342554},{"NoteNumber":65,"Velocity":59,"Duration":103926,"SoundDuration":103926,"Delta":118342554},{"NoteNumber":82,"Velocity":72,"Duration":104895,"SoundDuration":104895,"Delta":118446480},{"NoteNumber":69,"Velocity":55,"Duration":104895,"SoundDuration":104895,"Delta":118446480},{"NoteNumber":72,"Velocity":56,"Duration":104895,"SoundDuration":104895,"Delta":118446480},{"NoteNumber":75,"Velocity":56,"Duration":104895,"SoundDuration":104895,"Delta":118446480},{"NoteNumber":81,"Velocity":77,"Duration":104529,"SoundDuration":104529,"Delta":118551376},{"NoteNumber":65,"Velocity":59,"Duration":104529,"SoundDuration":104529,"Delta":118551376},{"NoteNumber":82,"Velocity":71,"Duration":104529,"SoundDuration":104529,"Delta":118655906},{"NoteNumber":69,"Velocity":55,"Duration":104529,"SoundDuration":104529,"Delta":118655906},{"NoteNumber":81,"Velocity":72,"Duration":104651,"SoundDuration":104651,"Delta":118760435},{"NoteNumber":65,"Velocity":59,"Duration":104651,"SoundDuration":104651,"Delta":118760435},{"NoteNumber":78,"Velocity":72,"Duration":104894,"SoundDuration":104894,"Delta":118865086},{"NoteNumber":69,"Velocity":55,"Duration":104894,"SoundDuration":104894,"Delta":118865086},{"NoteNumber":77,"Velocity":74,"Duration":105140,"SoundDuration":105140,"Delta":118969981},{"NoteNumber":53,"Velocity":59,"Duration":105140,"SoundDuration":105140,"Delta":118969981},{"NoteNumber":75,"Velocity":71,"Duration":105386,"SoundDuration":105386,"Delta":119075122},{"NoteNumber":65,"Velocity":50,"Duration":105386,"SoundDuration":105386,"Delta":119075122},{"NoteNumber":73,"Velocity":71,"Duration":105633,"SoundDuration":105633,"Delta":119180509},{"NoteNumber":53,"Velocity":57,"Duration":105633,"SoundDuration":105633,"Delta":119180509},{"NoteNumber":72,"Velocity":69,"Duration":105882,"SoundDuration":105882,"Delta":119286142},{"NoteNumber":65,"Velocity":49,"Duration":105882,"SoundDuration":105882,"Delta":119286142},{"NoteNumber":70,"Velocity":73,"Duration":111524,"SoundDuration":111524,"Delta":119392025},{"NoteNumber":46,"Velocity":59,"Duration":223048,"SoundDuration":223048,"Delta":119392025},{"NoteNumber":77,"Velocity":74,"Duration":424028,"SoundDuration":424028,"Delta":119615074},{"NoteNumber":58,"Velocity":44,"Duration":106007,"SoundDuration":106007,"Delta":119615074},{"NoteNumber":61,"Velocity":44,"Duration":106007,"SoundDuration":106007,"Delta":119615074},{"NoteNumber":65,"Velocity":38,"Duration":106006,"SoundDuration":106006,"Delta":119721081},{"NoteNumber":58,"Velocity":44,"Duration":106007,"SoundDuration":106007,"Delta":119827088},{"NoteNumber":61,"Velocity":44,"Duration":106007,"SoundDuration":106007,"Delta":119827088},{"NoteNumber":65,"Velocity":38,"Duration":106007,"SoundDuration":106007,"Delta":119933095},{"NoteNumber":77,"Velocity":61,"Duration":106006,"SoundDuration":106006,"Delta":120039102},{"NoteNumber":61,"Velocity":44,"Duration":106006,"SoundDuration":106006,"Delta":120039102},{"NoteNumber":58,"Velocity":44,"Duration":106006,"SoundDuration":106006,"Delta":120039102},{"NoteNumber":65,"Velocity":38,"Duration":106007,"SoundDuration":106007,"Delta":120145109},{"NoteNumber":77,"Velocity":61,"Duration":108695,"SoundDuration":108695,"Delta":120251116},{"NoteNumber":58,"Velocity":44,"Duration":108695,"SoundDuration":108695,"Delta":120251116},{"NoteNumber":61,"Velocity":44,"Duration":108695,"SoundDuration":108695,"Delta":120251116},{"NoteNumber":65,"Velocity":38,"Duration":108695,"SoundDuration":108695,"Delta":120359811},{"NoteNumber":78,"Velocity":72,"Duration":424028,"SoundDuration":424028,"Delta":120468507},{"NoteNumber":61,"Velocity":44,"Duration":106007,"SoundDuration":106007,"Delta":120468507},{"NoteNumber":58,"Velocity":44,"Duration":106007,"SoundDuration":106007,"Delta":120468507},{"NoteNumber":64,"Velocity":38,"Duration":106006,"SoundDuration":106006,"Delta":120574514},{"NoteNumber":58,"Velocity":44,"Duration":106007,"SoundDuration":106007,"Delta":120680521},{"NoteNumber":61,"Velocity":44,"Duration":106007,"SoundDuration":106007,"Delta":120680521},{"NoteNumber":64,"Velocity":38,"Duration":106007,"SoundDuration":106007,"Delta":120786528},{"NoteNumber":78,"Velocity":60,"Duration":106006,"SoundDuration":106006,"Delta":120892535},{"NoteNumber":58,"Velocity":44,"Duration":106006,"SoundDuration":106006,"Delta":120892535},{"NoteNumber":61,"Velocity":44,"Duration":106006,"SoundDuration":106006,"Delta":120892535},{"NoteNumber":64,"Velocity":38,"Duration":106007,"SoundDuration":106007,"Delta":120998542},{"NoteNumber":78,"Velocity":59,"Duration":110701,"SoundDuration":110701,"Delta":121104549},{"NoteNumber":57,"Velocity":44,"Duration":110701,"SoundDuration":110701,"Delta":121104549},{"NoteNumber":60,"Velocity":44,"Duration":110701,"SoundDuration":110701,"Delta":121104549},{"NoteNumber":64,"Velocity":38,"Duration":110700,"SoundDuration":110700,"Delta":121215250},{"NoteNumber":77,"Velocity":73,"Duration":424028,"SoundDuration":424028,"Delta":121325951},{"NoteNumber":60,"Velocity":44,"Duration":106007,"SoundDuration":106007,"Delta":121325951},{"NoteNumber":57,"Velocity":44,"Duration":106007,"SoundDuration":106007,"Delta":121325951},{"NoteNumber":65,"Velocity":38,"Duration":106006,"SoundDuration":106006,"Delta":121431958},{"NoteNumber":57,"Velocity":44,"Duration":106007,"SoundDuration":106007,"Delta":121537965},{"NoteNumber":60,"Velocity":44,"Duration":106007,"SoundDuration":106007,"Delta":121537965},{"NoteNumber":65,"Velocity":38,"Duration":106007,"SoundDuration":106007,"Delta":121643972},{"NoteNumber":77,"Velocity":63,"Duration":106006,"SoundDuration":106006,"Delta":121749979},{"NoteNumber":57,"Velocity":44,"Duration":106006,"SoundDuration":106006,"Delta":121749979},{"NoteNumber":60,"Velocity":44,"Duration":106006,"SoundDuration":106006,"Delta":121749979},{"NoteNumber":65,"Velocity":38,"Duration":106007,"SoundDuration":106007,"Delta":121855986},{"NoteNumber":77,"Velocity":65,"Duration":110293,"SoundDuration":110293,"Delta":121961993},{"NoteNumber":57,"Velocity":44,"Duration":110293,"SoundDuration":110293,"Delta":121961993},{"NoteNumber":60,"Velocity":44,"Duration":110293,"SoundDuration":110293,"Delta":121961993},{"NoteNumber":65,"Velocity":38,"Duration":110294,"SoundDuration":110294,"Delta":122072287},{"NoteNumber":72,"Velocity":61,"Duration":106761,"SoundDuration":106761,"Delta":122182581},{"NoteNumber":60,"Velocity":44,"Duration":106761,"SoundDuration":106761,"Delta":122182581},{"NoteNumber":57,"Velocity":44,"Duration":106761,"SoundDuration":106761,"Delta":122182581},{"NoteNumber":65,"Velocity":38,"Duration":106761,"SoundDuration":106761,"Delta":122289343},{"NoteNumber":73,"Velocity":61,"Duration":106761,"SoundDuration":106761,"Delta":122396104},{"NoteNumber":57,"Velocity":44,"Duration":106761,"SoundDuration":106761,"Delta":122396104},{"NoteNumber":60,"Velocity":44,"Duration":106761,"SoundDuration":106761,"Delta":122396104},{"NoteNumber":65,"Velocity":38,"Duration":106761,"SoundDuration":106761,"Delta":122502866},{"NoteNumber":75,"Velocity":61,"Duration":106761,"SoundDuration":106761,"Delta":122609627},{"NoteNumber":57,"Velocity":44,"Duration":106761,"SoundDuration":106761,"Delta":122609627},{"NoteNumber":60,"Velocity":44,"Duration":106761,"SoundDuration":106761,"Delta":122609627},{"NoteNumber":65,"Velocity":38,"Duration":106761,"SoundDuration":106761,"Delta":122716389},{"NoteNumber":73,"Velocity":65,"Duration":111524,"SoundDuration":111524,"Delta":122823150},{"NoteNumber":61,"Velocity":44,"Duration":111524,"SoundDuration":111524,"Delta":122823150},{"NoteNumber":58,"Velocity":44,"Duration":111524,"SoundDuration":111524,"Delta":122823150},{"NoteNumber":65,"Velocity":38,"Duration":111524,"SoundDuration":111524,"Delta":122934674},{"NoteNumber":89,"Velocity":80,"Duration":424028,"SoundDuration":424028,"Delta":123046199},{"NoteNumber":77,"Velocity":73,"Duration":424028,"SoundDuration":424028,"Delta":123046199},{"NoteNumber":58,"Velocity":58,"Duration":106007,"SoundDuration":106007,"Delta":123046199},{"NoteNumber":61,"Velocity":58,"Duration":106007,"SoundDuration":106007,"Delta":123046199},{"NoteNumber":65,"Velocity":51,"Duration":106006,"SoundDuration":106006,"Delta":123152206},{"NoteNumber":58,"Velocity":58,"Duration":106007,"SoundDuration":106007,"Delta":123258213},{"NoteNumber":61,"Velocity":58,"Duration":106007,"SoundDuration":106007,"Delta":123258213},{"NoteNumber":65,"Velocity":51,"Duration":106007,"SoundDuration":106007,"Delta":123364220},{"NoteNumber":89,"Velocity":74,"Duration":106006,"SoundDuration":106006,"Delta":123470227},{"NoteNumber":77,"Velocity":68,"Duration":106006,"SoundDuration":106006,"Delta":123470227},{"NoteNumber":61,"Velocity":58,"Duration":106006,"SoundDuration":106006,"Delta":123470227},{"NoteNumber":58,"Velocity":58,"Duration":106006,"SoundDuration":106006,"Delta":123470227},{"NoteNumber":65,"Velocity":51,"Duration":106007,"SoundDuration":106007,"Delta":123576234},{"NoteNumber":89,"Velocity":74,"Duration":108695,"SoundDuration":108695,"Delta":123682241},{"NoteNumber":77,"Velocity":68,"Duration":108695,"SoundDuration":108695,"Delta":123682241},{"NoteNumber":58,"Velocity":58,"Duration":108695,"SoundDuration":108695,"Delta":123682241},{"NoteNumber":61,"Velocity":58,"Duration":108695,"SoundDuration":108695,"Delta":123682241},{"NoteNumber":65,"Velocity":51,"Duration":108695,"SoundDuration":108695,"Delta":123790936},{"NoteNumber":90,"Velocity":81,"Duration":424028,"SoundDuration":424028,"Delta":123899632},{"NoteNumber":78,"Velocity":74,"Duration":424028,"SoundDuration":424028,"Delta":123899632},{"NoteNumber":61,"Velocity":58,"Duration":106007,"SoundDuration":106007,"Delta":123899632},{"NoteNumber":58,"Velocity":58,"Duration":106007,"SoundDuration":106007,"Delta":123899632},{"NoteNumber":64,"Velocity":51,"Duration":106006,"SoundDuration":106006,"Delta":124005639},{"NoteNumber":58,"Velocity":58,"Duration":106007,"SoundDuration":106007,"Delta":124111646},{"NoteNumber":61,"Velocity":58,"Duration":106007,"SoundDuration":106007,"Delta":124111646},{"NoteNumber":64,"Velocity":51,"Duration":106007,"SoundDuration":106007,"Delta":124217653},{"NoteNumber":90,"Velocity":73,"Duration":106006,"SoundDuration":106006,"Delta":124323660},{"NoteNumber":78,"Velocity":67,"Duration":106006,"SoundDuration":106006,"Delta":124323660},{"NoteNumber":58,"Velocity":58,"Duration":106006,"SoundDuration":106006,"Delta":124323660},{"NoteNumber":61,"Velocity":58,"Duration":106006,"SoundDuration":106006,"Delta":124323660},{"NoteNumber":64,"Velocity":51,"Duration":106007,"SoundDuration":106007,"Delta":124429667},{"NoteNumber":90,"Velocity":72,"Duration":110701,"SoundDuration":110701,"Delta":124535674},{"NoteNumber":78,"Velocity":66,"Duration":110701,"SoundDuration":110701,"Delta":124535674},{"NoteNumber":57,"Velocity":58,"Duration":110701,"SoundDuration":110701,"Delta":124535674},{"NoteNumber":60,"Velocity":58,"Duration":110701,"SoundDuration":110701,"Delta":124535674},{"NoteNumber":64,"Velocity":51,"Duration":110700,"SoundDuration":110700,"Delta":124646375},{"NoteNumber":89,"Velocity":82,"Duration":424028,"SoundDuration":424028,"Delta":124757076},{"NoteNumber":77,"Velocity":75,"Duration":424028,"SoundDuration":424028,"Delta":124757076},{"NoteNumber":60,"Velocity":58,"Duration":106007,"SoundDuration":106007,"Delta":124757076},{"NoteNumber":57,"Velocity":58,"Duration":106007,"SoundDuration":106007,"Delta":124757076},{"NoteNumber":65,"Velocity":51,"Duration":106006,"SoundDuration":106006,"Delta":124863083},{"NoteNumber":57,"Velocity":58,"Duration":106007,"SoundDuration":106007,"Delta":124969090},{"NoteNumber":60,"Velocity":58,"Duration":106007,"SoundDuration":106007,"Delta":124969090},{"NoteNumber":65,"Velocity":51,"Duration":106007,"SoundDuration":106007,"Delta":125075097},{"NoteNumber":89,"Velocity":77,"Duration":106006,"SoundDuration":106006,"Delta":125181104},{"NoteNumber":77,"Velocity":70,"Duration":106006,"SoundDuration":106006,"Delta":125181104},{"NoteNumber":57,"Velocity":58,"Duration":106006,"SoundDuration":106006,"Delta":125181104},{"NoteNumber":60,"Velocity":58,"Duration":106006,"SoundDuration":106006,"Delta":125181104},{"NoteNumber":65,"Velocity":51,"Duration":106007,"SoundDuration":106007,"Delta":125287111},{"NoteNumber":89,"Velocity":80,"Duration":110293,"SoundDuration":110293,"Delta":125393118},{"NoteNumber":77,"Velocity":73,"Duration":110293,"SoundDuration":110293,"Delta":125393118},{"NoteNumber":57,"Velocity":58,"Duration":110293,"SoundDuration":110293,"Delta":125393118},{"NoteNumber":60,"Velocity":58,"Duration":110293,"SoundDuration":110293,"Delta":125393118},{"NoteNumber":65,"Velocity":51,"Duration":110294,"SoundDuration":110294,"Delta":125503412},{"NoteNumber":84,"Velocity":74,"Duration":106761,"SoundDuration":106761,"Delta":125613706},{"NoteNumber":72,"Velocity":68,"Duration":106761,"SoundDuration":106761,"Delta":125613706},{"NoteNumber":60,"Velocity":58,"Duration":106761,"SoundDuration":106761,"Delta":125613706},{"NoteNumber":57,"Velocity":58,"Duration":106761,"SoundDuration":106761,"Delta":125613706},{"NoteNumber":65,"Velocity":51,"Duration":106761,"SoundDuration":106761,"Delta":125720468},{"NoteNumber":85,"Velocity":74,"Duration":106761,"SoundDuration":106761,"Delta":125827229},{"NoteNumber":73,"Velocity":68,"Duration":106761,"SoundDuration":106761,"Delta":125827229},{"NoteNumber":57,"Velocity":58,"Duration":106761,"SoundDuration":106761,"Delta":125827229},{"NoteNumber":60,"Velocity":58,"Duration":106761,"SoundDuration":106761,"Delta":125827229},{"NoteNumber":65,"Velocity":51,"Duration":106761,"SoundDuration":106761,"Delta":125933991},{"NoteNumber":87,"Velocity":74,"Duration":106761,"SoundDuration":106761,"Delta":126040752},{"NoteNumber":75,"Velocity":68,"Duration":106761,"SoundDuration":106761,"Delta":126040752},{"NoteNumber":57,"Velocity":58,"Duration":106761,"SoundDuration":106761,"Delta":126040752},{"NoteNumber":60,"Velocity":58,"Duration":106761,"SoundDuration":106761,"Delta":126040752},{"NoteNumber":65,"Velocity":51,"Duration":106761,"SoundDuration":106761,"Delta":126147514},{"NoteNumber":85,"Velocity":80,"Duration":111524,"SoundDuration":111524,"Delta":126254275},{"NoteNumber":73,"Velocity":73,"Duration":111524,"SoundDuration":111524,"Delta":126254275},{"NoteNumber":61,"Velocity":58,"Duration":111524,"SoundDuration":111524,"Delta":126254275},{"NoteNumber":58,"Velocity":58,"Duration":111524,"SoundDuration":111524,"Delta":126254275},{"NoteNumber":65,"Velocity":51,"Duration":111524,"SoundDuration":111524,"Delta":126365799},{"NoteNumber":72,"Velocity":72,"Duration":424028,"SoundDuration":424028,"Delta":126477324},{"NoteNumber":52,"Velocity":44,"Duration":106007,"SoundDuration":106007,"Delta":126477324},{"NoteNumber":55,"Velocity":44,"Duration":106007,"SoundDuration":106007,"Delta":126477324},{"NoteNumber":60,"Velocity":38,"Duration":106006,"SoundDuration":106006,"Delta":126583331},{"NoteNumber":52,"Velocity":44,"Duration":106007,"SoundDuration":106007,"Delta":126689338},{"NoteNumber":55,"Velocity":44,"Duration":106007,"SoundDuration":106007,"Delta":126689338},{"NoteNumber":60,"Velocity":38,"Duration":106007,"SoundDuration":106007,"Delta":126795345},{"NoteNumber":72,"Velocity":61,"Duration":106006,"SoundDuration":106006,"Delta":126901352},{"NoteNumber":55,"Velocity":44,"Duration":106006,"SoundDuration":106006,"Delta":126901352},{"NoteNumber":52,"Velocity":44,"Duration":106006,"SoundDuration":106006,"Delta":126901352},{"NoteNumber":60,"Velocity":38,"Duration":106007,"SoundDuration":106007,"Delta":127007359},{"NoteNumber":72,"Velocity":61,"Duration":108695,"SoundDuration":108695,"Delta":127113366},{"NoteNumber":53,"Velocity":44,"Duration":108695,"SoundDuration":108695,"Delta":127113366},{"NoteNumber":56,"Velocity":44,"Duration":108695,"SoundDuration":108695,"Delta":127113366},{"NoteNumber":60,"Velocity":38,"Duration":108695,"SoundDuration":108695,"Delta":127222061},{"NoteNumber":71,"Velocity":72,"Duration":424028,"SoundDuration":424028,"Delta":127330757},{"NoteNumber":56,"Velocity":44,"Duration":106007,"SoundDuration":106007,"Delta":127330757},{"NoteNumber":53,"Velocity":44,"Duration":106007,"SoundDuration":106007,"Delta":127330757},{"NoteNumber":62,"Velocity":38,"Duration":106006,"SoundDuration":106006,"Delta":127436764},{"NoteNumber":53,"Velocity":44,"Duration":106007,"SoundDuration":106007,"Delta":127542771},{"NoteNumber":56,"Velocity":44,"Duration":106007,"SoundDuration":106007,"Delta":127542771},{"NoteNumber":62,"Velocity":38,"Duration":106007,"SoundDuration":106007,"Delta":127648778},{"NoteNumber":71,"Velocity":60,"Duration":106006,"SoundDuration":106006,"Delta":127754785},{"NoteNumber":53,"Velocity":44,"Duration":106006,"SoundDuration":106006,"Delta":127754785},{"NoteNumber":56,"Velocity":44,"Duration":106006,"SoundDuration":106006,"Delta":127754785},{"NoteNumber":62,"Velocity":38,"Duration":106007,"SoundDuration":106007,"Delta":127860792},{"NoteNumber":71,"Velocity":59,"Duration":110701,"SoundDuration":110701,"Delta":127966799},{"NoteNumber":52,"Velocity":44,"Duration":110701,"SoundDuration":110701,"Delta":127966799},{"NoteNumber":55,"Velocity":44,"Duration":110701,"SoundDuration":110701,"Delta":127966799},{"NoteNumber":62,"Velocity":38,"Duration":110701,"SoundDuration":110701,"Delta":128077500},{"NoteNumber":72,"Velocity":71,"Duration":424027,"SoundDuration":424027,"Delta":128188201},{"NoteNumber":55,"Velocity":44,"Duration":106007,"SoundDuration":106007,"Delta":128188201},{"NoteNumber":52,"Velocity":44,"Duration":106007,"SoundDuration":106007,"Delta":128188201},{"NoteNumber":60,"Velocity":38,"Duration":106007,"SoundDuration":106007,"Delta":128294208},{"NoteNumber":52,"Velocity":44,"Duration":106006,"SoundDuration":106006,"Delta":128400215},{"NoteNumber":55,"Velocity":44,"Duration":106006,"SoundDuration":106006,"Delta":128400215},{"NoteNumber":60,"Velocity":38,"Duration":106007,"SoundDuration":106007,"Delta":128506222},{"NoteNumber":72,"Velocity":63,"Duration":106007,"SoundDuration":106007,"Delta":128612229},{"NoteNumber":52,"Velocity":44,"Duration":106007,"SoundDuration":106007,"Delta":128612229},{"NoteNumber":55,"Velocity":44,"Duration":106007,"SoundDuration":106007,"Delta":128612229},{"NoteNumber":60,"Velocity":38,"Duration":106007,"SoundDuration":106007,"Delta":128718236},{"NoteNumber":72,"Velocity":65,"Duration":110294,"SoundDuration":110294,"Delta":128824243},{"NoteNumber":52,"Velocity":44,"Duration":110294,"SoundDuration":110294,"Delta":128824243},{"NoteNumber":55,"Velocity":44,"Duration":110294,"SoundDuration":110294,"Delta":128824243},{"NoteNumber":60,"Velocity":38,"Duration":110293,"SoundDuration":110293,"Delta":128934537},{"NoteNumber":67,"Velocity":61,"Duration":106761,"SoundDuration":106761,"Delta":129044831},{"NoteNumber":55,"Velocity":44,"Duration":106761,"SoundDuration":106761,"Delta":129044831},{"NoteNumber":52,"Velocity":44,"Duration":106761,"SoundDuration":106761,"Delta":129044831},{"NoteNumber":60,"Velocity":38,"Duration":106761,"SoundDuration":106761,"Delta":129151593},{"NoteNumber":68,"Velocity":61,"Duration":106761,"SoundDuration":106761,"Delta":129258354},{"NoteNumber":52,"Velocity":44,"Duration":106761,"SoundDuration":106761,"Delta":129258354},{"NoteNumber":55,"Velocity":44,"Duration":106761,"SoundDuration":106761,"Delta":129258354},{"NoteNumber":60,"Velocity":38,"Duration":106761,"SoundDuration":106761,"Delta":129365116},{"NoteNumber":70,"Velocity":61,"Duration":106761,"SoundDuration":106761,"Delta":129471877},{"NoteNumber":52,"Velocity":44,"Duration":106761,"SoundDuration":106761,"Delta":129471877},{"NoteNumber":55,"Velocity":44,"Duration":106761,"SoundDuration":106761,"Delta":129471877},{"NoteNumber":60,"Velocity":38,"Duration":106761,"SoundDuration":106761,"Delta":129578639},{"NoteNumber":68,"Velocity":65,"Duration":111524,"SoundDuration":111524,"Delta":129685400},{"NoteNumber":56,"Velocity":44,"Duration":111524,"SoundDuration":111524,"Delta":129685400},{"NoteNumber":53,"Velocity":44,"Duration":111524,"SoundDuration":111524,"Delta":129685400},{"NoteNumber":60,"Velocity":38,"Duration":111524,"SoundDuration":111524,"Delta":129796924},{"NoteNumber":84,"Velocity":80,"Duration":424027,"SoundDuration":424027,"Delta":129908449},{"NoteNumber":72,"Velocity":73,"Duration":424027,"SoundDuration":424027,"Delta":129908449},{"NoteNumber":56,"Velocity":58,"Duration":106007,"SoundDuration":106007,"Delta":129908449},{"NoteNumber":53,"Velocity":58,"Duration":106007,"SoundDuration":106007,"Delta":129908449},{"NoteNumber":60,"Velocity":51,"Duration":106007,"SoundDuration":106007,"Delta":130014456},{"NoteNumber":56,"Velocity":58,"Duration":106006,"SoundDuration":106006,"Delta":130120463},{"NoteNumber":53,"Velocity":58,"Duration":106006,"SoundDuration":106006,"Delta":130120463},{"NoteNumber":60,"Velocity":51,"Duration":106007,"SoundDuration":106007,"Delta":130226470},{"NoteNumber":84,"Velocity":74,"Duration":106007,"SoundDuration":106007,"Delta":130332477},{"NoteNumber":72,"Velocity":68,"Duration":106007,"SoundDuration":106007,"Delta":130332477},{"NoteNumber":56,"Velocity":58,"Duration":106007,"SoundDuration":106007,"Delta":130332477},{"NoteNumber":53,"Velocity":58,"Duration":106007,"SoundDuration":106007,"Delta":130332477},{"NoteNumber":60,"Velocity":51,"Duration":106007,"SoundDuration":106007,"Delta":130438484},{"NoteNumber":84,"Velocity":74,"Duration":108695,"SoundDuration":108695,"Delta":130544491},{"NoteNumber":72,"Velocity":68,"Duration":108695,"SoundDuration":108695,"Delta":130544491},{"NoteNumber":56,"Velocity":58,"Duration":108695,"SoundDuration":108695,"Delta":130544491},{"NoteNumber":53,"Velocity":58,"Duration":108695,"SoundDuration":108695,"Delta":130544491},{"NoteNumber":60,"Velocity":51,"Duration":108695,"SoundDuration":108695,"Delta":130653186},{"NoteNumber":83,"Velocity":81,"Duration":424027,"SoundDuration":424027,"Delta":130761882},{"NoteNumber":71,"Velocity":74,"Duration":424027,"SoundDuration":424027,"Delta":130761882},{"NoteNumber":56,"Velocity":58,"Duration":106007,"SoundDuration":106007,"Delta":130761882},{"NoteNumber":53,"Velocity":58,"Duration":106007,"SoundDuration":106007,"Delta":130761882},{"NoteNumber":62,"Velocity":51,"Duration":106007,"SoundDuration":106007,"Delta":130867889},{"NoteNumber":56,"Velocity":58,"Duration":106006,"SoundDuration":106006,"Delta":130973896},{"NoteNumber":53,"Velocity":58,"Duration":106006,"SoundDuration":106006,"Delta":130973896},{"NoteNumber":62,"Velocity":51,"Duration":106007,"SoundDuration":106007,"Delta":131079903},{"NoteNumber":83,"Velocity":73,"Duration":106007,"SoundDuration":106007,"Delta":131185910},{"NoteNumber":71,"Velocity":67,"Duration":106007,"SoundDuration":106007,"Delta":131185910},{"NoteNumber":53,"Velocity":58,"Duration":106007,"SoundDuration":106007,"Delta":131185910},{"NoteNumber":56,"Velocity":58,"Duration":106007,"SoundDuration":106007,"Delta":131185910},{"NoteNumber":62,"Velocity":51,"Duration":106007,"SoundDuration":106007,"Delta":131291917},{"NoteNumber":83,"Velocity":72,"Duration":110701,"SoundDuration":110701,"Delta":131397924},{"NoteNumber":71,"Velocity":66,"Duration":110701,"SoundDuration":110701,"Delta":131397924},{"NoteNumber":55,"Velocity":58,"Duration":110701,"SoundDuration":110701,"Delta":131397924},{"NoteNumber":52,"Velocity":58,"Duration":110701,"SoundDuration":110701,"Delta":131397924},{"NoteNumber":62,"Velocity":51,"Duration":110701,"SoundDuration":110701,"Delta":131508625},{"NoteNumber":84,"Velocity":82,"Duration":424027,"SoundDuration":424027,"Delta":131619326},{"NoteNumber":72,"Velocity":75,"Duration":424027,"SoundDuration":424027,"Delta":131619326},{"NoteNumber":52,"Velocity":58,"Duration":106007,"SoundDuration":106007,"Delta":131619326},{"NoteNumber":55,"Velocity":58,"Duration":106007,"SoundDuration":106007,"Delta":131619326},{"NoteNumber":60,"Velocity":51,"Duration":106007,"SoundDuration":106007,"Delta":131725333},{"NoteNumber":52,"Velocity":58,"Duration":106006,"SoundDuration":106006,"Delta":131831340},{"NoteNumber":55,"Velocity":58,"Duration":106006,"SoundDuration":106006,"Delta":131831340},{"NoteNumber":60,"Velocity":51,"Duration":106007,"SoundDuration":106007,"Delta":131937347},{"NoteNumber":84,"Velocity":77,"Duration":106007,"SoundDuration":106007,"Delta":132043354},{"NoteNumber":72,"Velocity":70,"Duration":106007,"SoundDuration":106007,"Delta":132043354},{"NoteNumber":52,"Velocity":58,"Duration":106007,"SoundDuration":106007,"Delta":132043354},{"NoteNumber":55,"Velocity":58,"Duration":106007,"SoundDuration":106007,"Delta":132043354},{"NoteNumber":60,"Velocity":51,"Duration":106007,"SoundDuration":106007,"Delta":132149361},{"NoteNumber":84,"Velocity":80,"Duration":110294,"SoundDuration":110294,"Delta":132255368},{"NoteNumber":72,"Velocity":73,"Duration":110294,"SoundDuration":110294,"Delta":132255368},{"NoteNumber":55,"Velocity":58,"Duration":110294,"SoundDuration":110294,"Delta":132255368},{"NoteNumber":52,"Velocity":58,"Duration":110294,"SoundDuration":110294,"Delta":132255368},{"NoteNumber":60,"Velocity":51,"Duration":110293,"SoundDuration":110293,"Delta":132365662},{"NoteNumber":79,"Velocity":74,"Duration":106761,"SoundDuration":106761,"Delta":132475956},{"NoteNumber":67,"Velocity":68,"Duration":106761,"SoundDuration":106761,"Delta":132475956},{"NoteNumber":55,"Velocity":58,"Duration":106761,"SoundDuration":106761,"Delta":132475956},{"NoteNumber":52,"Velocity":58,"Duration":106761,"SoundDuration":106761,"Delta":132475956},{"NoteNumber":60,"Velocity":51,"Duration":106761,"SoundDuration":106761,"Delta":132582718},{"NoteNumber":80,"Velocity":74,"Duration":106761,"SoundDuration":106761,"Delta":132689479},{"NoteNumber":68,"Velocity":68,"Duration":106761,"SoundDuration":106761,"Delta":132689479},{"NoteNumber":55,"Velocity":58,"Duration":106761,"SoundDuration":106761,"Delta":132689479},{"NoteNumber":52,"Velocity":58,"Duration":106761,"SoundDuration":106761,"Delta":132689479},{"NoteNumber":60,"Velocity":51,"Duration":106761,"SoundDuration":106761,"Delta":132796241},{"NoteNumber":82,"Velocity":74,"Duration":106761,"SoundDuration":106761,"Delta":132903002},{"NoteNumber":70,"Velocity":68,"Duration":106761,"SoundDuration":106761,"Delta":132903002},{"NoteNumber":55,"Velocity":58,"Duration":106761,"SoundDuration":106761,"Delta":132903002},{"NoteNumber":52,"Velocity":58,"Duration":106761,"SoundDuration":106761,"Delta":132903002},{"NoteNumber":60,"Velocity":51,"Duration":106761,"SoundDuration":106761,"Delta":133009764},{"NoteNumber":80,"Velocity":80,"Duration":136986,"SoundDuration":136986,"Delta":133116525},{"NoteNumber":68,"Velocity":73,"Duration":136986,"SoundDuration":136986,"Delta":133116525},{"NoteNumber":44,"Velocity":61,"Duration":454260,"SoundDuration":454260,"Delta":133116525},{"NoteNumber":48,"Velocity":61,"Duration":454260,"SoundDuration":454260,"Delta":133116525},{"NoteNumber":53,"Velocity":72,"Duration":454260,"SoundDuration":454260,"Delta":133116525},{"NoteNumber":41,"Velocity":61,"Duration":454260,"SoundDuration":454260,"Delta":133116525},{"NoteNumber":60,"Velocity":70,"Duration":106007,"SoundDuration":106007,"Delta":133253511},{"NoteNumber":65,"Velocity":72,"Duration":105633,"SoundDuration":105633,"Delta":133359518},{"NoteNumber":68,"Velocity":74,"Duration":105633,"SoundDuration":105633,"Delta":133465152},{"NoteNumber":72,"Velocity":76,"Duration":105263,"SoundDuration":105263,"Delta":133570786},{"NoteNumber":73,"Velocity":72,"Duration":105263,"SoundDuration":105263,"Delta":133676049},{"NoteNumber":48,"Velocity":56,"Duration":105263,"SoundDuration":105263,"Delta":133676049},{"NoteNumber":72,"Velocity":72,"Duration":104894,"SoundDuration":104894,"Delta":133781312},{"NoteNumber":53,"Velocity":58,"Duration":104894,"SoundDuration":104894,"Delta":133781312},{"NoteNumber":70,"Velocity":72,"Duration":104652,"SoundDuration":104652,"Delta":133886207},{"NoteNumber":56,"Velocity":60,"Duration":104652,"SoundDuration":104652,"Delta":133886207},{"NoteNumber":68,"Velocity":73,"Duration":104166,"SoundDuration":104166,"Delta":133990860},{"NoteNumber":60,"Velocity":66,"Duration":104166,"SoundDuration":104166,"Delta":133990860},{"NoteNumber":70,"Velocity":67,"Duration":104408,"SoundDuration":104408,"Delta":134095026},{"NoteNumber":61,"Velocity":60,"Duration":104408,"SoundDuration":104408,"Delta":134095026},{"NoteNumber":68,"Velocity":69,"Duration":104651,"SoundDuration":104651,"Delta":134199435},{"NoteNumber":60,"Velocity":61,"Duration":104651,"SoundDuration":104651,"Delta":134199435},{"NoteNumber":67,"Velocity":69,"Duration":104894,"SoundDuration":104894,"Delta":134304086},{"NoteNumber":58,"Velocity":61,"Duration":104894,"SoundDuration":104894,"Delta":134304086},{"NoteNumber":65,"Velocity":75,"Duration":105140,"SoundDuration":105140,"Delta":134408981},{"NoteNumber":56,"Velocity":67,"Duration":105140,"SoundDuration":105140,"Delta":134408981},{"NoteNumber":67,"Velocity":70,"Duration":105386,"SoundDuration":105386,"Delta":134514122},{"NoteNumber":58,"Velocity":60,"Duration":105386,"SoundDuration":105386,"Delta":134514122},{"NoteNumber":68,"Velocity":70,"Duration":105633,"SoundDuration":105633,"Delta":134619508},{"NoteNumber":60,"Velocity":60,"Duration":105633,"SoundDuration":105633,"Delta":134619508},{"NoteNumber":65,"Velocity":70,"Duration":106034,"SoundDuration":106034,"Delta":134725142},{"NoteNumber":56,"Velocity":60,"Duration":106034,"SoundDuration":106034,"Delta":134725142},{"NoteNumber":66,"Velocity":75,"Duration":109091,"SoundDuration":109091,"Delta":134831176},{"NoteNumber":58,"Velocity":72,"Duration":109091,"SoundDuration":109091,"Delta":134831176},{"NoteNumber":61,"Velocity":72,"Duration":105944,"SoundDuration":105944,"Delta":134940267},{"NoteNumber":60,"Velocity":60,"Duration":105944,"SoundDuration":105944,"Delta":134940267},{"NoteNumber":66,"Velocity":74,"Duration":105633,"SoundDuration":105633,"Delta":135046212},{"NoteNumber":58,"Velocity":60,"Duration":105633,"SoundDuration":105633,"Delta":135046212},{"NoteNumber":70,"Velocity":76,"Duration":105633,"SoundDuration":105633,"Delta":135151846},{"NoteNumber":56,"Velocity":60,"Duration":105633,"SoundDuration":105633,"Delta":135151846},{"NoteNumber":73,"Velocity":78,"Duration":105263,"SoundDuration":105263,"Delta":135257479},{"NoteNumber":54,"Velocity":68,"Duration":105263,"SoundDuration":105263,"Delta":135257479},{"NoteNumber":75,"Velocity":75,"Duration":105263,"SoundDuration":105263,"Delta":135362743},{"NoteNumber":49,"Velocity":57,"Duration":105263,"SoundDuration":105263,"Delta":135362743},{"NoteNumber":73,"Velocity":75,"Duration":104894,"SoundDuration":104894,"Delta":135468006},{"NoteNumber":54,"Velocity":60,"Duration":104894,"SoundDuration":104894,"Delta":135468006},{"NoteNumber":72,"Velocity":75,"Duration":104652,"SoundDuration":104652,"Delta":135572901},{"NoteNumber":58,"Velocity":62,"Duration":104652,"SoundDuration":104652,"Delta":135572901},{"NoteNumber":70,"Velocity":76,"Duration":104166,"SoundDuration":104166,"Delta":135677553},{"NoteNumber":61,"Velocity":69,"Duration":104166,"SoundDuration":104166,"Delta":135677553},{"NoteNumber":72,"Velocity":70,"Duration":104408,"SoundDuration":104408,"Delta":135781720},{"NoteNumber":63,"Velocity":63,"Duration":104408,"SoundDuration":104408,"Delta":135781720},{"NoteNumber":70,"Velocity":71,"Duration":104651,"SoundDuration":104651,"Delta":135886129},{"NoteNumber":61,"Velocity":63,"Duration":104651,"SoundDuration":104651,"Delta":135886129},{"NoteNumber":68,"Velocity":71,"Duration":104894,"SoundDuration":104894,"Delta":135990780},{"NoteNumber":60,"Velocity":63,"Duration":104894,"SoundDuration":104894,"Delta":135990780},{"NoteNumber":66,"Velocity":76,"Duration":105140,"SoundDuration":105140,"Delta":136095675},{"NoteNumber":58,"Velocity":69,"Duration":105140,"SoundDuration":105140,"Delta":136095675},{"NoteNumber":68,"Velocity":73,"Duration":105386,"SoundDuration":105386,"Delta":136200815},{"NoteNumber":60,"Velocity":62,"Duration":105386,"SoundDuration":105386,"Delta":136200815},{"NoteNumber":70,"Velocity":73,"Duration":105633,"SoundDuration":105633,"Delta":136306202},{"NoteNumber":61,"Velocity":62,"Duration":105633,"SoundDuration":105633,"Delta":136306202},{"NoteNumber":66,"Velocity":72,"Duration":105882,"SoundDuration":105882,"Delta":136411836},{"NoteNumber":58,"Velocity":62,"Duration":105882,"SoundDuration":105882,"Delta":136411836},{"NoteNumber":69,"Velocity":77,"Duration":107527,"SoundDuration":107527,"Delta":136517718},{"NoteNumber":60,"Velocity":74,"Duration":107527,"SoundDuration":107527,"Delta":136517718},{"NoteNumber":63,"Velocity":74,"Duration":105944,"SoundDuration":105944,"Delta":136625245},{"NoteNumber":61,"Velocity":62,"Duration":105944,"SoundDuration":105944,"Delta":136625245},{"NoteNumber":69,"Velocity":76,"Duration":105633,"SoundDuration":105633,"Delta":136731190},{"NoteNumber":60,"Velocity":63,"Duration":105633,"SoundDuration":105633,"Delta":136731190},{"NoteNumber":72,"Velocity":78,"Duration":105633,"SoundDuration":105633,"Delta":136836824},{"NoteNumber":58,"Velocity":63,"Duration":105633,"SoundDuration":105633,"Delta":136836824},{"NoteNumber":75,"Velocity":80,"Duration":105263,"SoundDuration":105263,"Delta":136942458},{"NoteNumber":57,"Velocity":70,"Duration":105263,"SoundDuration":105263,"Delta":136942458},{"NoteNumber":77,"Velocity":76,"Duration":105263,"SoundDuration":105263,"Delta":137047721},{"NoteNumber":51,"Velocity":59,"Duration":105263,"SoundDuration":105263,"Delta":137047721},{"NoteNumber":75,"Velocity":76,"Duration":104894,"SoundDuration":104894,"Delta":137152984},{"NoteNumber":57,"Velocity":62,"Duration":104894,"SoundDuration":104894,"Delta":137152984},{"NoteNumber":73,"Velocity":77,"Duration":104652,"SoundDuration":104652,"Delta":137257879},{"NoteNumber":60,"Velocity":65,"Duration":104652,"SoundDuration":104652,"Delta":137257879},{"NoteNumber":72,"Velocity":78,"Duration":104166,"SoundDuration":104166,"Delta":137362532},{"NoteNumber":63,"Velocity":71,"Duration":104166,"SoundDuration":104166,"Delta":137362532},{"NoteNumber":73,"Velocity":72,"Duration":104408,"SoundDuration":104408,"Delta":137466698},{"NoteNumber":65,"Velocity":65,"Duration":104408,"SoundDuration":104408,"Delta":137466698},{"NoteNumber":72,"Velocity":73,"Duration":104651,"SoundDuration":104651,"Delta":137571107},{"NoteNumber":63,"Velocity":65,"Duration":104651,"SoundDuration":104651,"Delta":137571107},{"NoteNumber":70,"Velocity":73,"Duration":104894,"SoundDuration":104894,"Delta":137675758},{"NoteNumber":61,"Velocity":65,"Duration":104894,"SoundDuration":104894,"Delta":137675758},{"NoteNumber":69,"Velocity":80,"Duration":105140,"SoundDuration":105140,"Delta":137780653},{"NoteNumber":60,"Velocity":72,"Duration":105140,"SoundDuration":105140,"Delta":137780653},{"NoteNumber":70,"Velocity":75,"Duration":105386,"SoundDuration":105386,"Delta":137885794},{"NoteNumber":61,"Velocity":64,"Duration":105386,"SoundDuration":105386,"Delta":137885794},{"NoteNumber":72,"Velocity":75,"Duration":105633,"SoundDuration":105633,"Delta":137991180},{"NoteNumber":63,"Velocity":64,"Duration":105633,"SoundDuration":105633,"Delta":137991180},{"NoteNumber":69,"Velocity":74,"Duration":105882,"SoundDuration":105882,"Delta":138096814},{"NoteNumber":60,"Velocity":64,"Duration":105882,"SoundDuration":105882,"Delta":138096814},{"NoteNumber":70,"Velocity":90,"Duration":107527,"SoundDuration":107527,"Delta":138202697},{"NoteNumber":61,"Velocity":70,"Duration":107527,"SoundDuration":107527,"Delta":138202697},{"NoteNumber":65,"Velocity":76,"Duration":105944,"SoundDuration":105944,"Delta":138310224},{"NoteNumber":53,"Velocity":59,"Duration":105944,"SoundDuration":105944,"Delta":138310224},{"NoteNumber":70,"Velocity":79,"Duration":105633,"SoundDuration":105633,"Delta":138416169},{"NoteNumber":58,"Velocity":63,"Duration":105633,"SoundDuration":105633,"Delta":138416169},{"NoteNumber":73,"Velocity":82,"Duration":105633,"SoundDuration":105633,"Delta":138521802},{"NoteNumber":61,"Velocity":66,"Duration":105633,"SoundDuration":105633,"Delta":138521802},{"NoteNumber":77,"Velocity":83,"Duration":105263,"SoundDuration":105263,"Delta":138627436},{"NoteNumber":65,"Velocity":65,"Duration":105263,"SoundDuration":105263,"Delta":138627436},{"NoteNumber":78,"Velocity":83,"Duration":105263,"SoundDuration":105263,"Delta":138732699},{"NoteNumber":66,"Velocity":65,"Duration":105263,"SoundDuration":105263,"Delta":138732699},{"NoteNumber":77,"Velocity":82,"Duration":104894,"SoundDuration":104894,"Delta":138837963},{"NoteNumber":65,"Velocity":65,"Duration":104894,"SoundDuration":104894,"Delta":138837963},{"NoteNumber":75,"Velocity":82,"Duration":104652,"SoundDuration":104652,"Delta":138942858},{"NoteNumber":63,"Velocity":64,"Duration":104652,"SoundDuration":104652,"Delta":138942858},{"NoteNumber":73,"Velocity":81,"Duration":104166,"SoundDuration":104166,"Delta":139047510},{"NoteNumber":61,"Velocity":64,"Duration":104166,"SoundDuration":104166,"Delta":139047510},{"NoteNumber":72,"Velocity":81,"Duration":104166,"SoundDuration":104166,"Delta":139151677},{"NoteNumber":60,"Velocity":64,"Duration":104166,"SoundDuration":104166,"Delta":139151677},{"NoteNumber":70,"Velocity":80,"Duration":104166,"SoundDuration":104166,"Delta":139255843},{"NoteNumber":58,"Velocity":63,"Duration":104166,"SoundDuration":104166,"Delta":139255843},{"NoteNumber":68,"Velocity":80,"Duration":104166,"SoundDuration":104166,"Delta":139360010},{"NoteNumber":56,"Velocity":63,"Duration":104166,"SoundDuration":104166,"Delta":139360010},{"NoteNumber":66,"Velocity":79,"Duration":104166,"SoundDuration":104166,"Delta":139464177},{"NoteNumber":54,"Velocity":62,"Duration":104166,"SoundDuration":104166,"Delta":139464177},{"NoteNumber":65,"Velocity":79,"Duration":104166,"SoundDuration":104166,"Delta":139568344},{"NoteNumber":53,"Velocity":62,"Duration":104166,"SoundDuration":104166,"Delta":139568344},{"NoteNumber":63,"Velocity":78,"Duration":104166,"SoundDuration":104166,"Delta":139672510},{"NoteNumber":51,"Velocity":62,"Duration":104166,"SoundDuration":104166,"Delta":139672510},{"NoteNumber":61,"Velocity":78,"Duration":104166,"SoundDuration":104166,"Delta":139776677},{"NoteNumber":49,"Velocity":61,"Duration":104166,"SoundDuration":104166,"Delta":139776677},{"NoteNumber":60,"Velocity":77,"Duration":104166,"SoundDuration":104166,"Delta":139880844},{"NoteNumber":48,"Velocity":61,"Duration":104166,"SoundDuration":104166,"Delta":139880844},{"NoteNumber":58,"Velocity":77,"Duration":104166,"SoundDuration":104166,"Delta":139985011},{"NoteNumber":46,"Velocity":61,"Duration":104166,"SoundDuration":104166,"Delta":139985011},{"NoteNumber":56,"Velocity":76,"Duration":104166,"SoundDuration":104166,"Delta":140089177},{"NoteNumber":44,"Velocity":60,"Duration":104166,"SoundDuration":104166,"Delta":140089177},{"NoteNumber":54,"Velocity":76,"Duration":104166,"SoundDuration":104166,"Delta":140193344},{"NoteNumber":42,"Velocity":60,"Duration":104166,"SoundDuration":104166,"Delta":140193344},{"NoteNumber":53,"Velocity":73,"Duration":104166,"SoundDuration":104166,"Delta":140297511},{"NoteNumber":41,"Velocity":59,"Duration":104166,"SoundDuration":104166,"Delta":140297511},{"NoteNumber":51,"Velocity":73,"Duration":104166,"SoundDuration":104166,"Delta":140401678},{"NoteNumber":39,"Velocity":59,"Duration":104166,"SoundDuration":104166,"Delta":140401678},{"NoteNumber":49,"Velocity":74,"Duration":104166,"SoundDuration":104166,"Delta":140505844},{"NoteNumber":37,"Velocity":59,"Duration":104166,"SoundDuration":104166,"Delta":140505844},{"NoteNumber":48,"Velocity":76,"Duration":104166,"SoundDuration":104166,"Delta":140610011},{"NoteNumber":36,"Velocity":59,"Duration":104166,"SoundDuration":104166,"Delta":140610011},{"NoteNumber":46,"Velocity":78,"Duration":104166,"SoundDuration":104166,"Delta":140714178},{"NoteNumber":34,"Velocity":59,"Duration":104166,"SoundDuration":104166,"Delta":140714178},{"NoteNumber":48,"Velocity":79,"Duration":104166,"SoundDuration":104166,"Delta":140818345},{"NoteNumber":36,"Velocity":59,"Duration":104166,"SoundDuration":104166,"Delta":140818345},{"NoteNumber":49,"Velocity":81,"Duration":104166,"SoundDuration":104166,"Delta":140922511},{"NoteNumber":37,"Velocity":62,"Duration":104166,"SoundDuration":104166,"Delta":140922511},{"NoteNumber":46,"Velocity":82,"Duration":104166,"SoundDuration":104166,"Delta":141026678},{"NoteNumber":36,"Velocity":64,"Duration":104166,"SoundDuration":104166,"Delta":141026678},{"NoteNumber":46,"Velocity":82,"Duration":247933,"SoundDuration":247933,"Delta":141130845},{"NoteNumber":34,"Velocity":65,"Duration":247933,"SoundDuration":247933,"Delta":141130845},{"NoteNumber":47,"Velocity":77,"Duration":327868,"SoundDuration":327868,"Delta":141378779},{"NoteNumber":50,"Velocity":77,"Duration":327868,"SoundDuration":327868,"Delta":141378779},{"NoteNumber":53,"Velocity":77,"Duration":327868,"SoundDuration":327868,"Delta":141378779},{"NoteNumber":56,"Velocity":90,"Duration":327868,"SoundDuration":327868,"Delta":141378779},{"NoteNumber":35,"Velocity":72,"Duration":327868,"SoundDuration":327868,"Delta":141378779},{"NoteNumber":48,"Velocity":82,"Duration":107527,"SoundDuration":107527,"Delta":141706648},{"NoteNumber":52,"Velocity":82,"Duration":107527,"SoundDuration":107527,"Delta":141706648},{"NoteNumber":55,"Velocity":98,"Duration":107527,"SoundDuration":107527,"Delta":141706648},{"NoteNumber":36,"Velocity":89,"Duration":107527,"SoundDuration":107527,"Delta":141706648},{"NoteNumber":48,"Velocity":66,"Duration":107527,"SoundDuration":107527,"Delta":141814175},{"NoteNumber":60,"Velocity":66,"Duration":107527,"SoundDuration":107527,"Delta":141814175},{"NoteNumber":40,"Velocity":76,"Duration":107527,"SoundDuration":107527,"Delta":141921702},{"NoteNumber":60,"Velocity":66,"Duration":107270,"SoundDuration":107270,"Delta":142029229},{"NoteNumber":48,"Velocity":66,"Duration":107270,"SoundDuration":107270,"Delta":142029229},{"NoteNumber":36,"Velocity":76,"Duration":107142,"SoundDuration":107142,"Delta":142136500},{"NoteNumber":60,"Velocity":66,"Duration":107142,"SoundDuration":107142,"Delta":142243642},{"NoteNumber":48,"Velocity":66,"Duration":107142,"SoundDuration":107142,"Delta":142243642},{"NoteNumber":41,"Velocity":76,"Duration":107015,"SoundDuration":107015,"Delta":142350785},{"NoteNumber":60,"Velocity":66,"Duration":106761,"SoundDuration":106761,"Delta":142457801},{"NoteNumber":48,"Velocity":66,"Duration":106761,"SoundDuration":106761,"Delta":142457801},{"NoteNumber":36,"Velocity":76,"Duration":106761,"SoundDuration":106761,"Delta":142564562},{"NoteNumber":60,"Velocity":66,"Duration":106635,"SoundDuration":106635,"Delta":142671324},{"NoteNumber":48,"Velocity":66,"Duration":106635,"SoundDuration":106635,"Delta":142671324},{"NoteNumber":43,"Velocity":76,"Duration":106382,"SoundDuration":106382,"Delta":142777959},{"NoteNumber":60,"Velocity":66,"Duration":106383,"SoundDuration":106383,"Delta":142884342},{"NoteNumber":48,"Velocity":66,"Duration":106383,"SoundDuration":106383,"Delta":142884342},{"NoteNumber":36,"Velocity":76,"Duration":106382,"SoundDuration":106382,"Delta":142990725},{"NoteNumber":60,"Velocity":66,"Duration":106007,"SoundDuration":106007,"Delta":143097108},{"NoteNumber":48,"Velocity":66,"Duration":106007,"SoundDuration":106007,"Delta":143097108},{"NoteNumber":44,"Velocity":76,"Duration":106007,"SoundDuration":106007,"Delta":143203115},{"NoteNumber":60,"Velocity":66,"Duration":106006,"SoundDuration":106006,"Delta":143309122},{"NoteNumber":48,"Velocity":66,"Duration":106006,"SoundDuration":106006,"Delta":143309122},{"NoteNumber":36,"Velocity":74,"Duration":106007,"SoundDuration":106007,"Delta":143415129},{"NoteNumber":60,"Velocity":64,"Duration":106007,"SoundDuration":106007,"Delta":143521136},{"NoteNumber":72,"Velocity":64,"Duration":106007,"SoundDuration":106007,"Delta":143521136},{"NoteNumber":46,"Velocity":74,"Duration":106007,"SoundDuration":106007,"Delta":143627143},{"NoteNumber":60,"Velocity":64,"Duration":106007,"SoundDuration":106007,"Delta":143733150},{"NoteNumber":72,"Velocity":64,"Duration":106007,"SoundDuration":106007,"Delta":143733150},{"NoteNumber":36,"Velocity":75,"Duration":106007,"SoundDuration":106007,"Delta":143839157},{"NoteNumber":60,"Velocity":65,"Duration":106006,"SoundDuration":106006,"Delta":143945164},{"NoteNumber":72,"Velocity":65,"Duration":106006,"SoundDuration":106006,"Delta":143945164},{"NoteNumber":44,"Velocity":76,"Duration":106007,"SoundDuration":106007,"Delta":144051171},{"NoteNumber":60,"Velocity":66,"Duration":106007,"SoundDuration":106007,"Delta":144157178},{"NoteNumber":72,"Velocity":66,"Duration":106007,"SoundDuration":106007,"Delta":144157178},{"NoteNumber":36,"Velocity":77,"Duration":106007,"SoundDuration":106007,"Delta":144263185},{"NoteNumber":60,"Velocity":64,"Duration":106007,"SoundDuration":106007,"Delta":144369192},{"NoteNumber":72,"Velocity":64,"Duration":106007,"SoundDuration":106007,"Delta":144369192},{"NoteNumber":43,"Velocity":78,"Duration":106006,"SoundDuration":106006,"Delta":144475199},{"NoteNumber":60,"Velocity":64,"Duration":106007,"SoundDuration":106007,"Delta":144581206},{"NoteNumber":72,"Velocity":64,"Duration":106007,"SoundDuration":106007,"Delta":144581206},{"NoteNumber":36,"Velocity":79,"Duration":106007,"SoundDuration":106007,"Delta":144687213},{"NoteNumber":60,"Velocity":65,"Duration":106007,"SoundDuration":106007,"Delta":144793220},{"NoteNumber":72,"Velocity":65,"Duration":106007,"SoundDuration":106007,"Delta":144793220},{"NoteNumber":41,"Velocity":80,"Duration":106007,"SoundDuration":106007,"Delta":144899227},{"NoteNumber":60,"Velocity":66,"Duration":106006,"SoundDuration":106006,"Delta":145005234},{"NoteNumber":72,"Velocity":66,"Duration":106006,"SoundDuration":106006,"Delta":145005234},{"NoteNumber":36,"Velocity":81,"Duration":104894,"SoundDuration":104894,"Delta":145111241},{"NoteNumber":72,"Velocity":67,"Duration":105140,"SoundDuration":105140,"Delta":145216136},{"NoteNumber":84,"Velocity":67,"Duration":105140,"SoundDuration":105140,"Delta":145216136},{"NoteNumber":40,"Velocity":82,"Duration":105510,"SoundDuration":105510,"Delta":145321277},{"NoteNumber":72,"Velocity":68,"Duration":105758,"SoundDuration":105758,"Delta":145426787},{"NoteNumber":84,"Velocity":68,"Duration":105758,"SoundDuration":105758,"Delta":145426787},{"NoteNumber":36,"Velocity":82,"Duration":106132,"SoundDuration":106132,"Delta":145532545},{"NoteNumber":72,"Velocity":69,"Duration":106509,"SoundDuration":106509,"Delta":145638677},{"NoteNumber":84,"Velocity":69,"Duration":106509,"SoundDuration":106509,"Delta":145638677},{"NoteNumber":41,"Velocity":83,"Duration":106761,"SoundDuration":106761,"Delta":145745187},{"NoteNumber":72,"Velocity":70,"Duration":107142,"SoundDuration":107142,"Delta":145851948},{"NoteNumber":84,"Velocity":70,"Duration":107142,"SoundDuration":107142,"Delta":145851948},{"NoteNumber":36,"Velocity":84,"Duration":107527,"SoundDuration":107527,"Delta":145959091},{"NoteNumber":72,"Velocity":71,"Duration":107913,"SoundDuration":107913,"Delta":146066618},{"NoteNumber":84,"Velocity":71,"Duration":107913,"SoundDuration":107913,"Delta":146066618},{"NoteNumber":43,"Velocity":85,"Duration":108173,"SoundDuration":108173,"Delta":146174532},{"NoteNumber":72,"Velocity":72,"Duration":108564,"SoundDuration":108564,"Delta":146282705},{"NoteNumber":84,"Velocity":72,"Duration":108564,"SoundDuration":108564,"Delta":146282705},{"NoteNumber":36,"Velocity":86,"Duration":108959,"SoundDuration":108959,"Delta":146391270},{"NoteNumber":72,"Velocity":73,"Duration":109223,"SoundDuration":109223,"Delta":146500229},{"NoteNumber":84,"Velocity":73,"Duration":109223,"SoundDuration":109223,"Delta":146500229},{"NoteNumber":44,"Velocity":87,"Duration":109622,"SoundDuration":109622,"Delta":146609453},{"NoteNumber":72,"Velocity":74,"Duration":110159,"SoundDuration":110159,"Delta":146719075},{"NoteNumber":84,"Velocity":74,"Duration":110159,"SoundDuration":110159,"Delta":146719075},{"NoteNumber":36,"Velocity":88,"Duration":110294,"SoundDuration":110294,"Delta":146829235},{"NoteNumber":84,"Velocity":75,"Duration":110701,"SoundDuration":110701,"Delta":146939529},{"NoteNumber":96,"Velocity":75,"Duration":110701,"SoundDuration":110701,"Delta":146939529},{"NoteNumber":45,"Velocity":89,"Duration":110974,"SoundDuration":110974,"Delta":147050230},{"NoteNumber":84,"Velocity":76,"Duration":111248,"SoundDuration":111248,"Delta":147161204},{"NoteNumber":96,"Velocity":76,"Duration":111248,"SoundDuration":111248,"Delta":147161204},{"NoteNumber":36,"Velocity":91,"Duration":111524,"SoundDuration":111524,"Delta":147272453},{"NoteNumber":84,"Velocity":78,"Duration":111940,"SoundDuration":111940,"Delta":147383977},{"NoteNumber":96,"Velocity":78,"Duration":111940,"SoundDuration":111940,"Delta":147383977},{"NoteNumber":46,"Velocity":92,"Duration":112219,"SoundDuration":112219,"Delta":147495917},{"NoteNumber":84,"Velocity":81,"Duration":112500,"SoundDuration":112500,"Delta":147608137},{"NoteNumber":96,"Velocity":81,"Duration":112500,"SoundDuration":112500,"Delta":147608137},{"NoteNumber":36,"Velocity":94,"Duration":112781,"SoundDuration":112781,"Delta":147720637},{"NoteNumber":84,"Velocity":82,"Duration":113207,"SoundDuration":113207,"Delta":147833419},{"NoteNumber":96,"Velocity":82,"Duration":113207,"SoundDuration":113207,"Delta":147833419},{"NoteNumber":47,"Velocity":96,"Duration":113493,"SoundDuration":113493,"Delta":147946627},{"NoteNumber":84,"Velocity":84,"Duration":113780,"SoundDuration":113780,"Delta":148060120},{"NoteNumber":96,"Velocity":84,"Duration":113780,"SoundDuration":113780,"Delta":148060120},{"NoteNumber":36,"Velocity":99,"Duration":114652,"SoundDuration":114652,"Delta":148173901},{"NoteNumber":84,"Velocity":86,"Duration":121794,"SoundDuration":121794,"Delta":148288553},{"NoteNumber":96,"Velocity":86,"Duration":121794,"SoundDuration":121794,"Delta":148288553},{"NoteNumber":48,"Velocity":101,"Duration":137614,"SoundDuration":137614,"Delta":148410348},{"NoteNumber":84,"Velocity":88,"Duration":137614,"SoundDuration":137614,"Delta":148547962},{"NoteNumber":96,"Velocity":88,"Duration":137614,"SoundDuration":137614,"Delta":148547962},{"NoteNumber":34,"Velocity":86,"Duration":218253,"SoundDuration":218253,"Delta":148685577},{"NoteNumber":42,"Velocity":86,"Duration":218253,"SoundDuration":218253,"Delta":148685577},{"NoteNumber":37,"Velocity":86,"Duration":218253,"SoundDuration":218253,"Delta":148685577},{"NoteNumber":46,"Velocity":102,"Duration":218253,"SoundDuration":218253,"Delta":148685577},{"NoteNumber":49,"Velocity":72,"Duration":107142,"SoundDuration":107142,"Delta":148796688},{"NoteNumber":54,"Velocity":75,"Duration":107142,"SoundDuration":107142,"Delta":148903831},{"NoteNumber":58,"Velocity":76,"Duration":107142,"SoundDuration":107142,"Delta":149010974},{"NoteNumber":61,"Velocity":90,"Duration":107142,"SoundDuration":107142,"Delta":149118116},{"NoteNumber":46,"Velocity":71,"Duration":107142,"SoundDuration":107142,"Delta":149225259},{"NoteNumber":49,"Velocity":74,"Duration":107142,"SoundDuration":107142,"Delta":149332402},{"NoteNumber":54,"Velocity":76,"Duration":111940,"SoundDuration":111940,"Delta":149439545},{"NoteNumber":58,"Velocity":91,"Duration":107142,"SoundDuration":107142,"Delta":149551485},{"NoteNumber":61,"Velocity":72,"Duration":107142,"SoundDuration":107142,"Delta":149658628},{"NoteNumber":66,"Velocity":75,"Duration":107142,"SoundDuration":107142,"Delta":149765770},{"NoteNumber":70,"Velocity":76,"Duration":107142,"SoundDuration":107142,"Delta":149872913},{"NoteNumber":73,"Velocity":88,"Duration":107142,"SoundDuration":107142,"Delta":149980056},{"NoteNumber":58,"Velocity":73,"Duration":107142,"SoundDuration":107142,"Delta":150087199},{"NoteNumber":61,"Velocity":76,"Duration":107142,"SoundDuration":107142,"Delta":150194341},{"NoteNumber":66,"Velocity":78,"Duration":112359,"SoundDuration":112359,"Delta":150301484},{"NoteNumber":70,"Velocity":86,"Duration":107655,"SoundDuration":107655,"Delta":150413844},{"NoteNumber":73,"Velocity":77,"Duration":108696,"SoundDuration":108696,"Delta":150521500},{"NoteNumber":78,"Velocity":79,"Duration":109891,"SoundDuration":109891,"Delta":150630196},{"NoteNumber":82,"Velocity":81,"Duration":111112,"SoundDuration":111112,"Delta":150740087},{"NoteNumber":85,"Velocity":89,"Duration":214285,"SoundDuration":214285,"Delta":150851199},{"NoteNumber":36,"Velocity":79,"Duration":214285,"SoundDuration":214285,"Delta":152136912},{"NoteNumber":46,"Velocity":94,"Duration":214285,"SoundDuration":214285,"Delta":152136912},{"NoteNumber":43,"Velocity":79,"Duration":214285,"SoundDuration":214285,"Delta":152136912},{"NoteNumber":48,"Velocity":97,"Duration":214285,"SoundDuration":214285,"Delta":152136912},{"NoteNumber":52,"Velocity":72,"Duration":107142,"SoundDuration":107142,"Delta":152244055},{"NoteNumber":55,"Velocity":75,"Duration":107142,"SoundDuration":107142,"Delta":152351198},{"NoteNumber":58,"Velocity":76,"Duration":107142,"SoundDuration":107142,"Delta":152458341},{"NoteNumber":64,"Velocity":89,"Duration":107142,"SoundDuration":107142,"Delta":152565483},{"NoteNumber":48,"Velocity":71,"Duration":107142,"SoundDuration":107142,"Delta":152672626},{"NoteNumber":55,"Velocity":74,"Duration":107142,"SoundDuration":107142,"Delta":152779769},{"NoteNumber":58,"Velocity":76,"Duration":112782,"SoundDuration":112782,"Delta":152886912},{"NoteNumber":60,"Velocity":90,"Duration":107142,"SoundDuration":107142,"Delta":152999694},{"NoteNumber":64,"Velocity":72,"Duration":107142,"SoundDuration":107142,"Delta":153106836},{"NoteNumber":67,"Velocity":75,"Duration":107142,"SoundDuration":107142,"Delta":153213979},{"NoteNumber":70,"Velocity":76,"Duration":107142,"SoundDuration":107142,"Delta":153321122},{"NoteNumber":76,"Velocity":87,"Duration":107142,"SoundDuration":107142,"Delta":153428265},{"NoteNumber":60,"Velocity":73,"Duration":107142,"SoundDuration":107142,"Delta":153535407},{"NoteNumber":67,"Velocity":76,"Duration":107142,"SoundDuration":107142,"Delta":153642550},{"NoteNumber":70,"Velocity":78,"Duration":112359,"SoundDuration":112359,"Delta":153749693},{"NoteNumber":72,"Velocity":89,"Duration":107270,"SoundDuration":107270,"Delta":153862052},{"NoteNumber":76,"Velocity":77,"Duration":108043,"SoundDuration":108043,"Delta":153969323},{"NoteNumber":79,"Velocity":79,"Duration":108959,"SoundDuration":108959,"Delta":154077367},{"NoteNumber":82,"Velocity":81,"Duration":109891,"SoundDuration":109891,"Delta":154186326},{"NoteNumber":88,"Velocity":93,"Duration":214285,"SoundDuration":214285,"Delta":154296217},{"NoteNumber":37,"Velocity":58,"Duration":142857,"SoundDuration":142857,"Delta":155581930},{"NoteNumber":49,"Velocity":50,"Duration":142856,"SoundDuration":142856,"Delta":155724787},{"NoteNumber":52,"Velocity":50,"Duration":142856,"SoundDuration":142856,"Delta":155867644},{"NoteNumber":55,"Velocity":50,"Duration":107270,"SoundDuration":107270,"Delta":156010501},{"NoteNumber":58,"Velocity":54,"Duration":108304,"SoundDuration":108304,"Delta":156117772},{"NoteNumber":61,"Velocity":51,"Duration":109091,"SoundDuration":109091,"Delta":156226076},{"NoteNumber":64,"Velocity":53,"Duration":110295,"SoundDuration":110295,"Delta":156335168},{"NoteNumber":67,"Velocity":54,"Duration":214285,"SoundDuration":214285,"Delta":156445463},{"NoteNumber":40,"Velocity":55,"Duration":142856,"SoundDuration":142856,"Delta":157302605},{"NoteNumber":52,"Velocity":47,"Duration":142856,"SoundDuration":142856,"Delta":157445462},{"NoteNumber":55,"Velocity":47,"Duration":142856,"SoundDuration":142856,"Delta":157588319},{"NoteNumber":58,"Velocity":47,"Duration":107655,"SoundDuration":107655,"Delta":157731176},{"NoteNumber":61,"Velocity":51,"Duration":108696,"SoundDuration":108696,"Delta":157838832},{"NoteNumber":64,"Velocity":48,"Duration":109891,"SoundDuration":109891,"Delta":157947529},{"NoteNumber":67,"Velocity":50,"Duration":111112,"SoundDuration":111112,"Delta":158057420},{"NoteNumber":70,"Velocity":51,"Duration":214285,"SoundDuration":214285,"Delta":158168532},{"NoteNumber":43,"Velocity":52,"Duration":142856,"SoundDuration":142856,"Delta":159025674},{"NoteNumber":55,"Velocity":44,"Duration":142856,"SoundDuration":142856,"Delta":159168531},{"NoteNumber":58,"Velocity":44,"Duration":142856,"SoundDuration":142856,"Delta":159311388},{"NoteNumber":61,"Velocity":44,"Duration":107142,"SoundDuration":107142,"Delta":159454245},{"NoteNumber":64,"Velocity":48,"Duration":107142,"SoundDuration":107142,"Delta":159561387},{"NoteNumber":67,"Velocity":45,"Duration":107142,"SoundDuration":107142,"Delta":159668530},{"NoteNumber":70,"Velocity":47,"Duration":107142,"SoundDuration":107142,"Delta":159775673},{"NoteNumber":73,"Velocity":48,"Duration":214285,"SoundDuration":214285,"Delta":159882816},{"NoteNumber":46,"Velocity":49,"Duration":142856,"SoundDuration":142856,"Delta":160739958},{"NoteNumber":58,"Velocity":41,"Duration":142856,"SoundDuration":142856,"Delta":160882815},{"NoteNumber":61,"Velocity":41,"Duration":142857,"SoundDuration":142857,"Delta":161025672},{"NoteNumber":64,"Velocity":41,"Duration":107142,"SoundDuration":107142,"Delta":161168529},{"NoteNumber":67,"Velocity":45,"Duration":107142,"SoundDuration":107142,"Delta":161275671},{"NoteNumber":70,"Velocity":42,"Duration":107142,"SoundDuration":107142,"Delta":161382814},{"NoteNumber":73,"Velocity":44,"Duration":107142,"SoundDuration":107142,"Delta":161489957},{"NoteNumber":76,"Velocity":45,"Duration":214285,"SoundDuration":214285,"Delta":161597100},{"NoteNumber":49,"Velocity":40,"Duration":214285,"SoundDuration":214285,"Delta":162454242},{"NoteNumber":52,"Velocity":36,"Duration":214285,"SoundDuration":214285,"Delta":162668527},{"NoteNumber":55,"Velocity":36,"Duration":214285,"SoundDuration":214285,"Delta":162882813},{"NoteNumber":58,"Velocity":36,"Duration":214285,"SoundDuration":214285,"Delta":163097098},{"NoteNumber":61,"Velocity":35,"Duration":214285,"SoundDuration":214285,"Delta":163311384},{"NoteNumber":64,"Velocity":36,"Duration":214285,"SoundDuration":214285,"Delta":163525669},{"NoteNumber":67,"Velocity":37,"Duration":214285,"SoundDuration":214285,"Delta":163739955},{"NoteNumber":70,"Velocity":38,"Duration":214285,"SoundDuration":214285,"Delta":163954240},{"NoteNumber":73,"Velocity":39,"Duration":214285,"SoundDuration":214285,"Delta":164168526},{"NoteNumber":76,"Velocity":40,"Duration":214285,"SoundDuration":214285,"Delta":164382811},{"NoteNumber":79,"Velocity":40,"Duration":214285,"SoundDuration":214285,"Delta":164597097},{"NoteNumber":82,"Velocity":41,"Duration":214285,"SoundDuration":214285,"Delta":164811382},{"NoteNumber":85,"Velocity":42,"Duration":214285,"SoundDuration":214285,"Delta":165025668},{"NoteNumber":88,"Velocity":43,"Duration":214285,"SoundDuration":214285,"Delta":165239953},{"NoteNumber":91,"Velocity":44,"Duration":214285,"SoundDuration":214285,"Delta":165454239},{"NoteNumber":94,"Velocity":46,"Duration":214285,"SoundDuration":214285,"Delta":165668524},{"NoteNumber":91,"Velocity":46,"Duration":214285,"SoundDuration":214285,"Delta":165882810},{"NoteNumber":88,"Velocity":45,"Duration":214285,"SoundDuration":214285,"Delta":166097095},{"NoteNumber":85,"Velocity":45,"Duration":214285,"SoundDuration":214285,"Delta":166311381},{"NoteNumber":82,"Velocity":44,"Duration":214285,"SoundDuration":214285,"Delta":166525666},{"NoteNumber":79,"Velocity":44,"Duration":214285,"SoundDuration":214285,"Delta":166739952},{"NoteNumber":76,"Velocity":43,"Duration":214285,"SoundDuration":214285,"Delta":166954237},{"NoteNumber":73,"Velocity":43,"Duration":214285,"SoundDuration":214285,"Delta":167168523},{"NoteNumber":70,"Velocity":42,"Duration":214285,"SoundDuration":214285,"Delta":167382808},{"NoteNumber":67,"Velocity":42,"Duration":214285,"SoundDuration":214285,"Delta":167597094},{"NoteNumber":64,"Velocity":41,"Duration":214285,"SoundDuration":214285,"Delta":167811379},{"NoteNumber":61,"Velocity":40,"Duration":214285,"SoundDuration":214285,"Delta":168025665},{"NoteNumber":58,"Velocity":38,"Duration":214285,"SoundDuration":214285,"Delta":168239950},{"NoteNumber":55,"Velocity":38,"Duration":214285,"SoundDuration":214285,"Delta":168454236},{"NoteNumber":52,"Velocity":37,"Duration":214285,"SoundDuration":214285,"Delta":168668521},{"NoteNumber":49,"Velocity":36,"Duration":214285,"SoundDuration":214285,"Delta":168882807},{"NoteNumber":46,"Velocity":35,"Duration":214285,"SoundDuration":214285,"Delta":169097092},{"NoteNumber":43,"Velocity":35,"Duration":857142,"SoundDuration":857142,"Delta":169311378},{"NoteNumber":40,"Velocity":36,"Duration":857142,"SoundDuration":857142,"Delta":170168520},{"NoteNumber":37,"Velocity":35,"Duration":857141,"SoundDuration":857141,"Delta":171025662},{"NoteNumber":34,"Velocity":34,"Duration":857142,"SoundDuration":857142,"Delta":171882804},{"NoteNumber":31,"Velocity":34,"Duration":1714283,"SoundDuration":1714283,"Delta":172739946},{"NoteNumber":52,"Velocity":34,"Duration":642856,"SoundDuration":642856,"Delta":174454230},{"NoteNumber":46,"Velocity":34,"Duration":642856,"SoundDuration":642856,"Delta":174454230},{"NoteNumber":43,"Velocity":34,"Duration":642856,"SoundDuration":642856,"Delta":174454230},{"NoteNumber":36,"Velocity":34,"Duration":5035709,"SoundDuration":5035709,"Delta":174454230},{"NoteNumber":48,"Velocity":34,"Duration":642856,"SoundDuration":642856,"Delta":174454230},{"NoteNumber":55,"Velocity":34,"Duration":642856,"SoundDuration":642856,"Delta":176168514},{"NoteNumber":58,"Velocity":34,"Duration":642856,"SoundDuration":642856,"Delta":176168514},{"NoteNumber":60,"Velocity":34,"Duration":642856,"SoundDuration":642856,"Delta":176168514},{"NoteNumber":64,"Velocity":34,"Duration":642856,"SoundDuration":642856,"Delta":176168514},{"NoteNumber":67,"Velocity":34,"Duration":642856,"SoundDuration":642856,"Delta":177025656},{"NoteNumber":70,"Velocity":34,"Duration":642856,"SoundDuration":642856,"Delta":177025656},{"NoteNumber":72,"Velocity":34,"Duration":642856,"SoundDuration":642856,"Delta":177025656},{"NoteNumber":76,"Velocity":34,"Duration":642856,"SoundDuration":642856,"Delta":177025656},{"NoteNumber":88,"Velocity":34,"Duration":642856,"SoundDuration":642856,"Delta":177882798},{"NoteNumber":84,"Velocity":34,"Duration":642856,"SoundDuration":642856,"Delta":177882798},{"NoteNumber":82,"Velocity":34,"Duration":642856,"SoundDuration":642856,"Delta":177882798},{"NoteNumber":79,"Velocity":34,"Duration":642856,"SoundDuration":642856,"Delta":177882798},{"NoteNumber":46,"Velocity":34,"Duration":642856,"SoundDuration":642856,"Delta":178739940},{"NoteNumber":43,"Velocity":34,"Duration":642856,"SoundDuration":642856,"Delta":178739940},{"NoteNumber":52,"Velocity":34,"Duration":642856,"SoundDuration":642856,"Delta":178739940},{"NoteNumber":48,"Velocity":34,"Duration":642856,"SoundDuration":642856,"Delta":178739940},{"NoteNumber":36,"Velocity":34,"Duration":107142,"SoundDuration":107142,"Delta":179489939},{"NoteNumber":41,"Velocity":39,"Duration":415588,"SoundDuration":415588,"Delta":179597082},{"NoteNumber":29,"Velocity":39,"Duration":415588,"SoundDuration":415588,"Delta":179597082},{"NoteNumber":48,"Velocity":40,"Duration":104094,"SoundDuration":104094,"Delta":179701321},{"NoteNumber":53,"Velocity":37,"Duration":103806,"SoundDuration":103806,"Delta":179805415},{"NoteNumber":56,"Velocity":37,"Duration":103448,"SoundDuration":103448,"Delta":179909222},{"NoteNumber":60,"Velocity":40,"Duration":103092,"SoundDuration":103092,"Delta":180012670},{"NoteNumber":61,"Velocity":38,"Duration":103092,"SoundDuration":103092,"Delta":180115763},{"NoteNumber":60,"Velocity":38,"Duration":103211,"SoundDuration":103211,"Delta":180218855},{"NoteNumber":58,"Velocity":38,"Duration":103448,"SoundDuration":103448,"Delta":180322067},{"NoteNumber":56,"Velocity":40,"Duration":103448,"SoundDuration":103448,"Delta":180425515},{"NoteNumber":58,"Velocity":37,"Duration":103686,"SoundDuration":103686,"Delta":180528963},{"NoteNumber":56,"Velocity":37,"Duration":103806,"SoundDuration":103806,"Delta":180632650},{"NoteNumber":55,"Velocity":37,"Duration":103806,"SoundDuration":103806,"Delta":180736456},{"NoteNumber":53,"Velocity":40,"Duration":104166,"SoundDuration":104166,"Delta":180840263},{"NoteNumber":55,"Velocity":37,"Duration":104166,"SoundDuration":104166,"Delta":180944429},{"NoteNumber":56,"Velocity":37,"Duration":104287,"SoundDuration":104287,"Delta":181048596},{"NoteNumber":53,"Velocity":37,"Duration":108498,"SoundDuration":108498,"Delta":181152884},{"NoteNumber":29,"Velocity":40,"Duration":416955,"SoundDuration":416955,"Delta":181261383},{"NoteNumber":41,"Velocity":40,"Duration":416955,"SoundDuration":416955,"Delta":181261383},{"NoteNumber":48,"Velocity":40,"Duration":104239,"SoundDuration":104239,"Delta":181365622},{"NoteNumber":53,"Velocity":37,"Duration":104238,"SoundDuration":104238,"Delta":181469861},{"NoteNumber":56,"Velocity":37,"Duration":104239,"SoundDuration":104239,"Delta":181574100},{"NoteNumber":60,"Velocity":40,"Duration":104239,"SoundDuration":104239,"Delta":181678339},{"NoteNumber":61,"Velocity":38,"Duration":104239,"SoundDuration":104239,"Delta":181782578},{"NoteNumber":60,"Velocity":38,"Duration":105835,"SoundDuration":105835,"Delta":181886817},{"NoteNumber":58,"Velocity":38,"Duration":105834,"SoundDuration":105834,"Delta":181992652},{"NoteNumber":68,"Velocity":51,"Duration":105834,"SoundDuration":105834,"Delta":181992652},{"NoteNumber":72,"Velocity":51,"Duration":105834,"SoundDuration":105834,"Delta":181992652},{"NoteNumber":56,"Velocity":40,"Duration":104137,"SoundDuration":104137,"Delta":182098487},{"NoteNumber":68,"Velocity":56,"Duration":416550,"SoundDuration":416550,"Delta":182098487},{"NoteNumber":72,"Velocity":56,"Duration":416550,"SoundDuration":416550,"Delta":182098487},{"NoteNumber":58,"Velocity":37,"Duration":104137,"SoundDuration":104137,"Delta":182202625},{"NoteNumber":56,"Velocity":37,"Duration":104137,"SoundDuration":104137,"Delta":182306762},{"NoteNumber":55,"Velocity":37,"Duration":104137,"SoundDuration":104137,"Delta":182410900},{"NoteNumber":53,"Velocity":40,"Duration":104137,"SoundDuration":104137,"Delta":182515038},{"NoteNumber":68,"Velocity":30,"Duration":208275,"SoundDuration":208275,"Delta":182515038},{"NoteNumber":65,"Velocity":30,"Duration":208275,"SoundDuration":208275,"Delta":182515038},{"NoteNumber":55,"Velocity":37,"Duration":104137,"SoundDuration":104137,"Delta":182619176},{"NoteNumber":56,"Velocity":37,"Duration":104137,"SoundDuration":104137,"Delta":182723313},{"NoteNumber":53,"Velocity":37,"Duration":108908,"SoundDuration":108908,"Delta":182827451},{"NoteNumber":34,"Velocity":40,"Duration":416955,"SoundDuration":416955,"Delta":182936360},{"NoteNumber":46,"Velocity":40,"Duration":416955,"SoundDuration":416955,"Delta":182936360},{"NoteNumber":49,"Velocity":44,"Duration":104239,"SoundDuration":104239,"Delta":183040599},{"NoteNumber":54,"Velocity":40,"Duration":104238,"SoundDuration":104238,"Delta":183144838},{"NoteNumber":58,"Velocity":40,"Duration":104239,"SoundDuration":104239,"Delta":183249077},{"NoteNumber":61,"Velocity":44,"Duration":104239,"SoundDuration":104239,"Delta":183353316},{"NoteNumber":63,"Velocity":41,"Duration":104239,"SoundDuration":104239,"Delta":183457555},{"NoteNumber":61,"Velocity":41,"Duration":106179,"SoundDuration":106179,"Delta":183561794},{"NoteNumber":60,"Velocity":41,"Duration":106179,"SoundDuration":106179,"Delta":183667974},{"NoteNumber":73,"Velocity":63,"Duration":106179,"SoundDuration":106179,"Delta":183667974},{"NoteNumber":70,"Velocity":63,"Duration":106179,"SoundDuration":106179,"Delta":183667974},{"NoteNumber":58,"Velocity":44,"Duration":104137,"SoundDuration":104137,"Delta":183774153},{"NoteNumber":73,"Velocity":70,"Duration":837873,"SoundDuration":837873,"Delta":183774153},{"NoteNumber":70,"Velocity":70,"Duration":837873,"SoundDuration":837873,"Delta":183774153},{"NoteNumber":60,"Velocity":40,"Duration":104137,"SoundDuration":104137,"Delta":183878291},{"NoteNumber":58,"Velocity":40,"Duration":104137,"SoundDuration":104137,"Delta":183982429},{"NoteNumber":56,"Velocity":40,"Duration":104137,"SoundDuration":104137,"Delta":184086567},{"NoteNumber":54,"Velocity":44,"Duration":104137,"SoundDuration":104137,"Delta":184190704},{"NoteNumber":56,"Velocity":40,"Duration":104137,"SoundDuration":104137,"Delta":184294842},{"NoteNumber":54,"Velocity":40,"Duration":104137,"SoundDuration":104137,"Delta":184398980},{"NoteNumber":53,"Velocity":40,"Duration":108908,"SoundDuration":108908,"Delta":184503118},{"NoteNumber":52,"Velocity":44,"Duration":105366,"SoundDuration":105366,"Delta":184612026},{"NoteNumber":70,"Velocity":51,"Duration":210733,"SoundDuration":210733,"Delta":184612026},{"NoteNumber":72,"Velocity":51,"Duration":210733,"SoundDuration":210733,"Delta":184612026},{"NoteNumber":53,"Velocity":40,"Duration":105366,"SoundDuration":105366,"Delta":184717393},{"NoteNumber":55,"Velocity":40,"Duration":105366,"SoundDuration":105366,"Delta":184822760},{"NoteNumber":48,"Velocity":43,"Duration":213865,"SoundDuration":213865,"Delta":184822760},{"NoteNumber":36,"Velocity":43,"Duration":213865,"SoundDuration":213865,"Delta":184822760},{"NoteNumber":52,"Velocity":40,"Duration":108498,"SoundDuration":108498,"Delta":184928127},{"NoteNumber":53,"Velocity":44,"Duration":105745,"SoundDuration":105745,"Delta":185036626},{"NoteNumber":55,"Velocity":40,"Duration":105745,"SoundDuration":105745,"Delta":185142371},{"NoteNumber":56,"Velocity":40,"Duration":105745,"SoundDuration":105745,"Delta":185248117},{"NoteNumber":37,"Velocity":37,"Duration":214654,"SoundDuration":214654,"Delta":185248117},{"NoteNumber":49,"Velocity":37,"Duration":214654,"SoundDuration":214654,"Delta":185248117},{"NoteNumber":53,"Velocity":40,"Duration":108908,"SoundDuration":108908,"Delta":185353862},{"NoteNumber":55,"Velocity":44,"Duration":106179,"SoundDuration":106179,"Delta":185462771},{"NoteNumber":56,"Velocity":40,"Duration":106179,"SoundDuration":106179,"Delta":185568951},{"NoteNumber":58,"Velocity":40,"Duration":106179,"SoundDuration":106179,"Delta":185675130},{"NoteNumber":34,"Velocity":39,"Duration":214678,"SoundDuration":214678,"Delta":185675130},{"NoteNumber":46,"Velocity":39,"Duration":214678,"SoundDuration":214678,"Delta":185675130},{"NoteNumber":55,"Velocity":40,"Duration":108498,"SoundDuration":108498,"Delta":185781310},{"NoteNumber":52,"Velocity":44,"Duration":105835,"SoundDuration":105835,"Delta":185889809},{"NoteNumber":53,"Velocity":37,"Duration":105834,"SoundDuration":105834,"Delta":185995644},{"NoteNumber":55,"Velocity":38,"Duration":105835,"SoundDuration":105835,"Delta":186101479},{"NoteNumber":36,"Velocity":35,"Duration":214743,"SoundDuration":214743,"Delta":186101479},{"NoteNumber":48,"Velocity":35,"Duration":214743,"SoundDuration":214743,"Delta":186101479},{"NoteNumber":52,"Velocity":40,"Duration":108908,"SoundDuration":108908,"Delta":186207314},{"NoteNumber":53,"Velocity":38,"Duration":444949,"SoundDuration":444949,"Delta":186316223},{"NoteNumber":41,"Velocity":40,"Duration":134602,"SoundDuration":134602,"Delta":186316223},{"NoteNumber":29,"Velocity":40,"Duration":134602,"SoundDuration":134602,"Delta":186316223},{"NoteNumber":48,"Velocity":37,"Duration":103806,"SoundDuration":103806,"Delta":186450825},{"NoteNumber":53,"Velocity":37,"Duration":103448,"SoundDuration":103448,"Delta":186554631},{"NoteNumber":56,"Velocity":40,"Duration":103092,"SoundDuration":103092,"Delta":186658079},{"NoteNumber":60,"Velocity":38,"Duration":103092,"SoundDuration":103092,"Delta":186761172},{"NoteNumber":61,"Velocity":38,"Duration":103211,"SoundDuration":103211,"Delta":186864265},{"NoteNumber":64,"Velocity":57,"Duration":106382,"SoundDuration":106382,"Delta":186967476},{"NoteNumber":60,"Velocity":38,"Duration":106382,"SoundDuration":106382,"Delta":186967476},{"NoteNumber":58,"Velocity":40,"Duration":106382,"SoundDuration":106382,"Delta":187073859},{"NoteNumber":65,"Velocity":62,"Duration":106382,"SoundDuration":106382,"Delta":187180242},{"NoteNumber":56,"Velocity":37,"Duration":106382,"SoundDuration":106382,"Delta":187180242},{"NoteNumber":58,"Velocity":37,"Duration":106382,"SoundDuration":106382,"Delta":187286625},{"NoteNumber":67,"Velocity":57,"Duration":106383,"SoundDuration":106383,"Delta":187393008},{"NoteNumber":56,"Velocity":37,"Duration":106383,"SoundDuration":106383,"Delta":187393008},{"NoteNumber":55,"Velocity":40,"Duration":104166,"SoundDuration":104166,"Delta":187499391},{"NoteNumber":68,"Velocity":62,"Duration":105263,"SoundDuration":105263,"Delta":187603558},{"NoteNumber":53,"Velocity":37,"Duration":105263,"SoundDuration":105263,"Delta":187603558},{"NoteNumber":55,"Velocity":37,"Duration":105018,"SoundDuration":105018,"Delta":187708821},{"NoteNumber":65,"Velocity":59,"Duration":108498,"SoundDuration":108498,"Delta":187813840},{"NoteNumber":56,"Velocity":37,"Duration":108498,"SoundDuration":108498,"Delta":187813840},{"NoteNumber":53,"Velocity":37,"Duration":104239,"SoundDuration":104239,"Delta":187922339},{"NoteNumber":56,"Velocity":40,"Duration":104239,"SoundDuration":104239,"Delta":188026578},{"NoteNumber":48,"Velocity":37,"Duration":104238,"SoundDuration":104238,"Delta":188130817},{"NoteNumber":53,"Velocity":37,"Duration":104239,"SoundDuration":104239,"Delta":188235056},{"NoteNumber":56,"Velocity":40,"Duration":104239,"SoundDuration":104239,"Delta":188339295},{"NoteNumber":60,"Velocity":38,"Duration":104239,"SoundDuration":104239,"Delta":188443534},{"NoteNumber":61,"Velocity":38,"Duration":105835,"SoundDuration":105835,"Delta":188547773},{"NoteNumber":76,"Velocity":60,"Duration":106761,"SoundDuration":106761,"Delta":188653608},{"NoteNumber":64,"Velocity":52,"Duration":106761,"SoundDuration":106761,"Delta":188653608},{"NoteNumber":60,"Velocity":38,"Duration":106761,"SoundDuration":106761,"Delta":188653608},{"NoteNumber":58,"Velocity":40,"Duration":106761,"SoundDuration":106761,"Delta":188760369},{"NoteNumber":77,"Velocity":66,"Duration":106761,"SoundDuration":106761,"Delta":188867131},{"NoteNumber":65,"Velocity":57,"Duration":106761,"SoundDuration":106761,"Delta":188867131},{"NoteNumber":56,"Velocity":37,"Duration":106761,"SoundDuration":106761,"Delta":188867131},{"NoteNumber":58,"Velocity":37,"Duration":106761,"SoundDuration":106761,"Delta":188973892},{"NoteNumber":67,"Velocity":53,"Duration":106007,"SoundDuration":106007,"Delta":189080654},{"NoteNumber":79,"Velocity":63,"Duration":106007,"SoundDuration":106007,"Delta":189080654},{"NoteNumber":56,"Velocity":37,"Duration":106007,"SoundDuration":106007,"Delta":189080654},{"NoteNumber":55,"Velocity":40,"Duration":106007,"SoundDuration":106007,"Delta":189186661},{"NoteNumber":68,"Velocity":57,"Duration":106006,"SoundDuration":106006,"Delta":189292668},{"NoteNumber":80,"Velocity":68,"Duration":106006,"SoundDuration":106006,"Delta":189292668},{"NoteNumber":53,"Velocity":37,"Duration":106006,"SoundDuration":106006,"Delta":189292668},{"NoteNumber":55,"Velocity":37,"Duration":106007,"SoundDuration":106007,"Delta":189398675},{"NoteNumber":65,"Velocity":53,"Duration":108908,"SoundDuration":108908,"Delta":189504682},{"NoteNumber":77,"Velocity":63,"Duration":108908,"SoundDuration":108908,"Delta":189504682},{"NoteNumber":56,"Velocity":37,"Duration":108908,"SoundDuration":108908,"Delta":189504682},{"NoteNumber":53,"Velocity":37,"Duration":104239,"SoundDuration":104239,"Delta":189613591},{"NoteNumber":58,"Velocity":44,"Duration":104239,"SoundDuration":104239,"Delta":189717830},{"NoteNumber":49,"Velocity":40,"Duration":104238,"SoundDuration":104238,"Delta":189822069},{"NoteNumber":54,"Velocity":40,"Duration":104239,"SoundDuration":104239,"Delta":189926308},{"NoteNumber":58,"Velocity":44,"Duration":104239,"SoundDuration":104239,"Delta":190030547},{"NoteNumber":61,"Velocity":41,"Duration":104239,"SoundDuration":104239,"Delta":190134786},{"NoteNumber":63,"Velocity":41,"Duration":106179,"SoundDuration":106179,"Delta":190239025},{"NoteNumber":65,"Velocity":59,"Duration":222221,"SoundDuration":222221,"Delta":190345204},{"NoteNumber":77,"Velocity":71,"Duration":222221,"SoundDuration":222221,"Delta":190345204},{"NoteNumber":61,"Velocity":41,"Duration":111110,"SoundDuration":111110,"Delta":190345204},{"NoteNumber":60,"Velocity":44,"Duration":111110,"SoundDuration":111110,"Delta":190456315},{"NoteNumber":66,"Velocity":63,"Duration":222221,"SoundDuration":222221,"Delta":190567426},{"NoteNumber":78,"Velocity":77,"Duration":222221,"SoundDuration":222221,"Delta":190567426},{"NoteNumber":58,"Velocity":40,"Duration":111110,"SoundDuration":111110,"Delta":190567426},{"NoteNumber":60,"Velocity":40,"Duration":111110,"SoundDuration":111110,"Delta":190678537},{"NoteNumber":70,"Velocity":66,"Duration":220728,"SoundDuration":220728,"Delta":190789648},{"NoteNumber":82,"Velocity":79,"Duration":220728,"SoundDuration":220728,"Delta":190789648},{"NoteNumber":58,"Velocity":40,"Duration":110163,"SoundDuration":110163,"Delta":190789648},{"NoteNumber":56,"Velocity":44,"Duration":110565,"SoundDuration":110565,"Delta":190899812},{"NoteNumber":73,"Velocity":69,"Duration":111525,"SoundDuration":111525,"Delta":191010377},{"NoteNumber":85,"Velocity":81,"Duration":111525,"SoundDuration":111525,"Delta":191010377},{"NoteNumber":54,"Velocity":40,"Duration":111525,"SoundDuration":111525,"Delta":191010377},{"NoteNumber":56,"Velocity":40,"Duration":112641,"SoundDuration":112641,"Delta":191121902},{"NoteNumber":73,"Velocity":66,"Duration":112782,"SoundDuration":112782,"Delta":191234543},{"NoteNumber":85,"Velocity":79,"Duration":112782,"SoundDuration":112782,"Delta":191234543},{"NoteNumber":54,"Velocity":40,"Duration":112782,"SoundDuration":112782,"Delta":191234543},{"NoteNumber":53,"Velocity":44,"Duration":112224,"SoundDuration":112224,"Delta":191347325},{"NoteNumber":73,"Velocity":71,"Duration":436929,"SoundDuration":436929,"Delta":191459550},{"NoteNumber":85,"Velocity":83,"Duration":436929,"SoundDuration":436929,"Delta":191459550},{"NoteNumber":52,"Velocity":40,"Duration":110702,"SoundDuration":110702,"Delta":191459550},{"NoteNumber":53,"Velocity":40,"Duration":109490,"SoundDuration":109490,"Delta":191570252},{"NoteNumber":55,"Velocity":40,"Duration":108434,"SoundDuration":108434,"Delta":191679742},{"NoteNumber":56,"Velocity":44,"Duration":108303,"SoundDuration":108303,"Delta":191788176},{"NoteNumber":84,"Velocity":78,"Duration":875927,"SoundDuration":875927,"Delta":191896480},{"NoteNumber":72,"Velocity":64,"Duration":875927,"SoundDuration":875927,"Delta":191896480},{"NoteNumber":58,"Velocity":40,"Duration":108695,"SoundDuration":108695,"Delta":191896480},{"NoteNumber":56,"Velocity":40,"Duration":108959,"SoundDuration":108959,"Delta":192005175},{"NoteNumber":55,"Velocity":40,"Duration":109223,"SoundDuration":109223,"Delta":192114135},{"NoteNumber":53,"Velocity":44,"Duration":109488,"SoundDuration":109488,"Delta":192223358},{"NoteNumber":52,"Velocity":40,"Duration":109890,"SoundDuration":109890,"Delta":192332847},{"NoteNumber":53,"Velocity":40,"Duration":109889,"SoundDuration":109889,"Delta":192442737},{"NoteNumber":52,"Velocity":40,"Duration":109890,"SoundDuration":109890,"Delta":192552627},{"NoteNumber":49,"Velocity":44,"Duration":109890,"SoundDuration":109890,"Delta":192662517},{"NoteNumber":64,"Velocity":64,"Duration":439560,"SoundDuration":439560,"Delta":192772407},{"NoteNumber":76,"Velocity":64,"Duration":439560,"SoundDuration":439560,"Delta":192772407},{"NoteNumber":48,"Velocity":37,"Duration":109890,"SoundDuration":109890,"Delta":192772407},{"NoteNumber":46,"Velocity":38,"Duration":109889,"SoundDuration":109889,"Delta":192882297},{"NoteNumber":44,"Velocity":40,"Duration":109890,"SoundDuration":109890,"Delta":192992187},{"NoteNumber":43,"Velocity":40,"Duration":109890,"SoundDuration":109890,"Delta":193102077},{"NoteNumber":77,"Velocity":57,"Duration":104894,"SoundDuration":104894,"Delta":193211967},{"NoteNumber":65,"Velocity":57,"Duration":104894,"SoundDuration":104894,"Delta":193211967},{"NoteNumber":41,"Velocity":44,"Duration":418970,"SoundDuration":418970,"Delta":193211967},{"NoteNumber":60,"Velocity":41,"Duration":104894,"SoundDuration":104894,"Delta":193316862},{"NoteNumber":65,"Velocity":44,"Duration":104651,"SoundDuration":104651,"Delta":193421757},{"NoteNumber":68,"Velocity":46,"Duration":104529,"SoundDuration":104529,"Delta":193526409},{"NoteNumber":72,"Velocity":43,"Duration":104287,"SoundDuration":104287,"Delta":193630938},{"NoteNumber":60,"Velocity":45,"Duration":104166,"SoundDuration":104166,"Delta":193735226},{"NoteNumber":65,"Velocity":46,"Duration":103926,"SoundDuration":103926,"Delta":193839393},{"NoteNumber":68,"Velocity":48,"Duration":108687,"SoundDuration":108687,"Delta":193943319},{"NoteNumber":56,"Velocity":52,"Duration":108687,"SoundDuration":108687,"Delta":193943319},{"NoteNumber":53,"Velocity":52,"Duration":108687,"SoundDuration":108687,"Delta":193943319},{"NoteNumber":53,"Velocity":65,"Duration":416550,"SoundDuration":416550,"Delta":194052007},{"NoteNumber":56,"Velocity":65,"Duration":416550,"SoundDuration":416550,"Delta":194052007},{"NoteNumber":60,"Velocity":46,"Duration":104137,"SoundDuration":104137,"Delta":194156144},{"NoteNumber":65,"Velocity":47,"Duration":104137,"SoundDuration":104137,"Delta":194260282},{"NoteNumber":68,"Velocity":49,"Duration":104137,"SoundDuration":104137,"Delta":194364420},{"NoteNumber":72,"Velocity":50,"Duration":104137,"SoundDuration":104137,"Delta":194468558},{"NoteNumber":60,"Velocity":52,"Duration":104137,"SoundDuration":104137,"Delta":194572695},{"NoteNumber":65,"Velocity":53,"Duration":104137,"SoundDuration":104137,"Delta":194676833},{"NoteNumber":68,"Velocity":38,"Duration":108318,"SoundDuration":108318,"Delta":194780971},{"NoteNumber":56,"Velocity":54,"Duration":108318,"SoundDuration":108318,"Delta":194780971},{"NoteNumber":53,"Velocity":54,"Duration":108318,"SoundDuration":108318,"Delta":194780971},{"NoteNumber":48,"Velocity":66,"Duration":849742,"SoundDuration":849742,"Delta":194889290},{"NoteNumber":56,"Velocity":66,"Duration":849742,"SoundDuration":849742,"Delta":194889290},{"NoteNumber":53,"Velocity":66,"Duration":849742,"SoundDuration":849742,"Delta":194889290},{"NoteNumber":59,"Velocity":51,"Duration":105263,"SoundDuration":105263,"Delta":194994185},{"NoteNumber":62,"Velocity":52,"Duration":105633,"SoundDuration":105633,"Delta":195099448},{"NoteNumber":68,"Velocity":52,"Duration":106007,"SoundDuration":106007,"Delta":195205082},{"NoteNumber":71,"Velocity":54,"Duration":427943,"SoundDuration":427943,"Delta":195311089},{"NoteNumber":59,"Velocity":52,"Duration":106761,"SoundDuration":106761,"Delta":195417472},{"NoteNumber":62,"Velocity":52,"Duration":107142,"SoundDuration":107142,"Delta":195524233},{"NoteNumber":68,"Velocity":52,"Duration":107655,"SoundDuration":107655,"Delta":195631376},{"NoteNumber":71,"Velocity":54,"Duration":426044,"SoundDuration":426044,"Delta":195739032},{"NoteNumber":52,"Velocity":48,"Duration":213904,"SoundDuration":213904,"Delta":195739032},{"NoteNumber":48,"Velocity":48,"Duration":213904,"SoundDuration":213904,"Delta":195739032},{"NoteNumber":55,"Velocity":48,"Duration":213904,"SoundDuration":213904,"Delta":195739032},{"NoteNumber":59,"Velocity":52,"Duration":106761,"SoundDuration":106761,"Delta":195846175},{"NoteNumber":64,"Velocity":50,"Duration":106257,"SoundDuration":106257,"Delta":195952936},{"NoteNumber":67,"Velocity":49,"Duration":105882,"SoundDuration":105882,"Delta":196059194},{"NoteNumber":72,"Velocity":52,"Duration":418980,"SoundDuration":418980,"Delta":196165077},{"NoteNumber":60,"Velocity":46,"Duration":105017,"SoundDuration":105017,"Delta":196270463},{"NoteNumber":64,"Velocity":44,"Duration":104529,"SoundDuration":104529,"Delta":196375481},{"NoteNumber":67,"Velocity":38,"Duration":104046,"SoundDuration":104046,"Delta":196480011},{"NoteNumber":48,"Velocity":42,"Duration":416550,"SoundDuration":416550,"Delta":196584057},{"NoteNumber":36,"Velocity":42,"Duration":416550,"SoundDuration":416550,"Delta":196584057},{"NoteNumber":60,"Velocity":38,"Duration":104137,"SoundDuration":104137,"Delta":196688195},{"NoteNumber":64,"Velocity":40,"Duration":104137,"SoundDuration":104137,"Delta":196792333},{"NoteNumber":67,"Velocity":42,"Duration":104137,"SoundDuration":104137,"Delta":196896470},{"NoteNumber":72,"Velocity":43,"Duration":104137,"SoundDuration":104137,"Delta":197000608},{"NoteNumber":60,"Velocity":45,"Duration":104137,"SoundDuration":104137,"Delta":197104746},{"NoteNumber":64,"Velocity":46,"Duration":104137,"SoundDuration":104137,"Delta":197208884},{"NoteNumber":67,"Velocity":48,"Duration":108687,"SoundDuration":108687,"Delta":197313021},{"NoteNumber":58,"Velocity":60,"Duration":108687,"SoundDuration":108687,"Delta":197313021},{"NoteNumber":55,"Velocity":60,"Duration":108687,"SoundDuration":108687,"Delta":197313021},{"NoteNumber":55,"Velocity":68,"Duration":416550,"SoundDuration":416550,"Delta":197421709},{"NoteNumber":58,"Velocity":68,"Duration":416550,"SoundDuration":416550,"Delta":197421709},{"NoteNumber":60,"Velocity":46,"Duration":104137,"SoundDuration":104137,"Delta":197525847},{"NoteNumber":64,"Velocity":47,"Duration":104137,"SoundDuration":104137,"Delta":197629985},{"NoteNumber":67,"Velocity":49,"Duration":104137,"SoundDuration":104137,"Delta":197734122},{"NoteNumber":72,"Velocity":50,"Duration":104137,"SoundDuration":104137,"Delta":197838260},{"NoteNumber":60,"Velocity":52,"Duration":104137,"SoundDuration":104137,"Delta":197942398},{"NoteNumber":64,"Velocity":53,"Duration":104137,"SoundDuration":104137,"Delta":198046536},{"NoteNumber":67,"Velocity":38,"Duration":108318,"SoundDuration":108318,"Delta":198150673},{"NoteNumber":55,"Velocity":61,"Duration":108318,"SoundDuration":108318,"Delta":198150673},{"NoteNumber":58,"Velocity":61,"Duration":108318,"SoundDuration":108318,"Delta":198150673},{"NoteNumber":53,"Velocity":58,"Duration":848411,"SoundDuration":848411,"Delta":198258992},{"NoteNumber":58,"Velocity":69,"Duration":848411,"SoundDuration":848411,"Delta":198258992},{"NoteNumber":55,"Velocity":58,"Duration":848411,"SoundDuration":848411,"Delta":198258992},{"NoteNumber":60,"Velocity":51,"Duration":105263,"SoundDuration":105263,"Delta":198364332},{"NoteNumber":64,"Velocity":52,"Duration":105633,"SoundDuration":105633,"Delta":198469595},{"NoteNumber":67,"Velocity":52,"Duration":105882,"SoundDuration":105882,"Delta":198575229},{"NoteNumber":72,"Velocity":54,"Duration":426292,"SoundDuration":426292,"Delta":198681112},{"NoteNumber":60,"Velocity":52,"Duration":106382,"SoundDuration":106382,"Delta":198787244},{"NoteNumber":64,"Velocity":52,"Duration":106761,"SoundDuration":106761,"Delta":198893627},{"NoteNumber":67,"Velocity":52,"Duration":107015,"SoundDuration":107015,"Delta":199000389},{"NoteNumber":72,"Velocity":53,"Duration":423783,"SoundDuration":423783,"Delta":199107404},{"NoteNumber":53,"Velocity":47,"Duration":212515,"SoundDuration":212515,"Delta":199107404},{"NoteNumber":56,"Velocity":52,"Duration":212515,"SoundDuration":212515,"Delta":199107404},{"NoteNumber":60,"Velocity":52,"Duration":106132,"SoundDuration":106132,"Delta":199213787},{"NoteNumber":64,"Velocity":50,"Duration":105758,"SoundDuration":105758,"Delta":199319920},{"NoteNumber":67,"Velocity":49,"Duration":105510,"SoundDuration":105510,"Delta":199425678},{"NoteNumber":72,"Velocity":47,"Duration":418492,"SoundDuration":418492,"Delta":199531188},{"NoteNumber":60,"Velocity":46,"Duration":104894,"SoundDuration":104894,"Delta":199636329},{"NoteNumber":65,"Velocity":44,"Duration":104529,"SoundDuration":104529,"Delta":199741224},{"NoteNumber":68,"Velocity":38,"Duration":103927,"SoundDuration":103927,"Delta":199845753},{"NoteNumber":41,"Velocity":45,"Duration":416550,"SoundDuration":416550,"Delta":199949680},{"NoteNumber":53,"Velocity":45,"Duration":416550,"SoundDuration":416550,"Delta":199949680},{"NoteNumber":65,"Velocity":38,"Duration":104137,"SoundDuration":104137,"Delta":200053818},{"NoteNumber":69,"Velocity":40,"Duration":104137,"SoundDuration":104137,"Delta":200157956},{"NoteNumber":72,"Velocity":42,"Duration":104137,"SoundDuration":104137,"Delta":200262094},{"NoteNumber":77,"Velocity":43,"Duration":104137,"SoundDuration":104137,"Delta":200366231},{"NoteNumber":65,"Velocity":45,"Duration":104137,"SoundDuration":104137,"Delta":200470369},{"NoteNumber":69,"Velocity":46,"Duration":104137,"SoundDuration":104137,"Delta":200574507},{"NoteNumber":72,"Velocity":48,"Duration":108687,"SoundDuration":108687,"Delta":200678645},{"NoteNumber":63,"Velocity":59,"Duration":108687,"SoundDuration":108687,"Delta":200678645},{"NoteNumber":60,"Velocity":59,"Duration":108687,"SoundDuration":108687,"Delta":200678645},{"NoteNumber":60,"Velocity":68,"Duration":416550,"SoundDuration":416550,"Delta":200787332},{"NoteNumber":63,"Velocity":68,"Duration":416550,"SoundDuration":416550,"Delta":200787332},{"NoteNumber":65,"Velocity":46,"Duration":104137,"SoundDuration":104137,"Delta":200891470},{"NoteNumber":69,"Velocity":47,"Duration":104137,"SoundDuration":104137,"Delta":200995608},{"NoteNumber":72,"Velocity":49,"Duration":104137,"SoundDuration":104137,"Delta":201099746},{"NoteNumber":77,"Velocity":50,"Duration":104137,"SoundDuration":104137,"Delta":201203883},{"NoteNumber":65,"Velocity":52,"Duration":104137,"SoundDuration":104137,"Delta":201308021},{"NoteNumber":69,"Velocity":53,"Duration":104137,"SoundDuration":104137,"Delta":201412159},{"NoteNumber":72,"Velocity":54,"Duration":108318,"SoundDuration":108318,"Delta":201516297},{"NoteNumber":60,"Velocity":66,"Duration":108318,"SoundDuration":108318,"Delta":201516297},{"NoteNumber":63,"Velocity":66,"Duration":108318,"SoundDuration":108318,"Delta":201516297},{"NoteNumber":58,"Velocity":72,"Duration":1052217,"SoundDuration":1052217,"Delta":201624616},{"NoteNumber":63,"Velocity":72,"Duration":1052217,"SoundDuration":1052217,"Delta":201624616},{"NoteNumber":60,"Velocity":72,"Duration":1052217,"SoundDuration":1052217,"Delta":201624616},{"NoteNumber":65,"Velocity":50,"Duration":105492,"SoundDuration":105492,"Delta":201730108},{"NoteNumber":69,"Velocity":50,"Duration":105492,"SoundDuration":105492,"Delta":201835601},{"NoteNumber":72,"Velocity":50,"Duration":105492,"SoundDuration":105492,"Delta":201941094},{"NoteNumber":77,"Velocity":55,"Duration":421970,"SoundDuration":421970,"Delta":202046587},{"NoteNumber":65,"Velocity":53,"Duration":105492,"SoundDuration":105492,"Delta":202152079},{"NoteNumber":69,"Velocity":52,"Duration":105492,"SoundDuration":105492,"Delta":202257572},{"NoteNumber":72,"Velocity":52,"Duration":105492,"SoundDuration":105492,"Delta":202363065},{"NoteNumber":69,"Velocity":54,"Duration":104137,"SoundDuration":104137,"Delta":202468558},{"NoteNumber":65,"Velocity":54,"Duration":104137,"SoundDuration":104137,"Delta":202468558},{"NoteNumber":77,"Velocity":54,"Duration":104137,"SoundDuration":104137,"Delta":202572695},{"NoteNumber":65,"Velocity":53,"Duration":105492,"SoundDuration":105492,"Delta":202676833},{"NoteNumber":70,"Velocity":53,"Duration":105492,"SoundDuration":105492,"Delta":202676833},{"NoteNumber":61,"Velocity":64,"Duration":210985,"SoundDuration":210985,"Delta":202676833},{"NoteNumber":58,"Velocity":64,"Duration":210985,"SoundDuration":210985,"Delta":202676833},{"NoteNumber":77,"Velocity":52,"Duration":105492,"SoundDuration":105492,"Delta":202782326},{"NoteNumber":65,"Velocity":52,"Duration":106007,"SoundDuration":106007,"Delta":202887819},{"NoteNumber":72,"Velocity":52,"Duration":106007,"SoundDuration":106007,"Delta":202887819},{"NoteNumber":60,"Velocity":61,"Duration":212014,"SoundDuration":212014,"Delta":202887819},{"NoteNumber":56,"Velocity":61,"Duration":212014,"SoundDuration":212014,"Delta":202887819},{"NoteNumber":77,"Velocity":51,"Duration":106007,"SoundDuration":106007,"Delta":202993826},{"NoteNumber":73,"Velocity":50,"Duration":106006,"SoundDuration":106006,"Delta":203099833},{"NoteNumber":65,"Velocity":50,"Duration":106006,"SoundDuration":106006,"Delta":203099833},{"NoteNumber":58,"Velocity":59,"Duration":212013,"SoundDuration":212013,"Delta":203099833},{"NoteNumber":55,"Velocity":59,"Duration":212013,"SoundDuration":212013,"Delta":203099833},{"NoteNumber":77,"Velocity":50,"Duration":106007,"SoundDuration":106007,"Delta":203205840},{"NoteNumber":48,"Velocity":56,"Duration":416550,"SoundDuration":416550,"Delta":203311847},{"NoteNumber":56,"Velocity":56,"Duration":416550,"SoundDuration":416550,"Delta":203311847},{"NoteNumber":53,"Velocity":56,"Duration":416550,"SoundDuration":416550,"Delta":203311847},{"NoteNumber":60,"Velocity":52,"Duration":104137,"SoundDuration":104137,"Delta":203415984},{"NoteNumber":65,"Velocity":49,"Duration":104137,"SoundDuration":104137,"Delta":203520122},{"NoteNumber":68,"Velocity":50,"Duration":104137,"SoundDuration":104137,"Delta":203624260},{"NoteNumber":72,"Velocity":56,"Duration":422198,"SoundDuration":422198,"Delta":203728398},{"NoteNumber":60,"Velocity":50,"Duration":104137,"SoundDuration":104137,"Delta":203832535},{"NoteNumber":65,"Velocity":50,"Duration":104137,"SoundDuration":104137,"Delta":203936673},{"NoteNumber":68,"Velocity":50,"Duration":109785,"SoundDuration":109785,"Delta":204040811},{"NoteNumber":56,"Velocity":56,"Duration":109785,"SoundDuration":109785,"Delta":204040811},{"NoteNumber":53,"Velocity":56,"Duration":109785,"SoundDuration":109785,"Delta":204040811},{"NoteNumber":72,"Velocity":56,"Duration":416550,"SoundDuration":416550,"Delta":204150596},{"NoteNumber":48,"Velocity":63,"Duration":416550,"SoundDuration":416550,"Delta":204150596},{"NoteNumber":58,"Velocity":63,"Duration":416550,"SoundDuration":416550,"Delta":204150596},{"NoteNumber":55,"Velocity":63,"Duration":416550,"SoundDuration":416550,"Delta":204150596},{"NoteNumber":60,"Velocity":52,"Duration":104137,"SoundDuration":104137,"Delta":204254734},{"NoteNumber":67,"Velocity":52,"Duration":104137,"SoundDuration":104137,"Delta":204358872},{"NoteNumber":70,"Velocity":52,"Duration":104137,"SoundDuration":104137,"Delta":204463010},{"NoteNumber":72,"Velocity":56,"Duration":422198,"SoundDuration":422198,"Delta":204567147},{"NoteNumber":60,"Velocity":52,"Duration":104137,"SoundDuration":104137,"Delta":204671285},{"NoteNumber":64,"Velocity":52,"Duration":104137,"SoundDuration":104137,"Delta":204775423},{"NoteNumber":67,"Velocity":52,"Duration":109785,"SoundDuration":109785,"Delta":204879561},{"NoteNumber":55,"Velocity":53,"Duration":109785,"SoundDuration":109785,"Delta":204879561},{"NoteNumber":52,"Velocity":53,"Duration":109785,"SoundDuration":109785,"Delta":204879561},{"NoteNumber":60,"Velocity":59,"Duration":416550,"SoundDuration":416550,"Delta":204989346},{"NoteNumber":65,"Velocity":59,"Duration":416550,"SoundDuration":416550,"Delta":204989346},{"NoteNumber":68,"Velocity":59,"Duration":416550,"SoundDuration":416550,"Delta":204989346},{"NoteNumber":72,"Velocity":59,"Duration":416550,"SoundDuration":416550,"Delta":204989346},{"NoteNumber":53,"Velocity":56,"Duration":104137,"SoundDuration":104137,"Delta":204989346},{"NoteNumber":60,"Velocity":49,"Duration":104137,"SoundDuration":104137,"Delta":205093484},{"NoteNumber":56,"Velocity":49,"Duration":104137,"SoundDuration":104137,"Delta":205197622},{"NoteNumber":53,"Velocity":49,"Duration":104137,"SoundDuration":104137,"Delta":205301759},{"NoteNumber":48,"Velocity":53,"Duration":104137,"SoundDuration":104137,"Delta":205405897},{"NoteNumber":56,"Velocity":49,"Duration":104137,"SoundDuration":104137,"Delta":205510035},{"NoteNumber":53,"Velocity":49,"Duration":104137,"SoundDuration":104137,"Delta":205614173},{"NoteNumber":80,"Velocity":69,"Duration":109091,"SoundDuration":109091,"Delta":205718310},{"NoteNumber":77,"Velocity":69,"Duration":109091,"SoundDuration":109091,"Delta":205718310},{"NoteNumber":48,"Velocity":49,"Duration":109091,"SoundDuration":109091,"Delta":205718310},{"NoteNumber":80,"Velocity":74,"Duration":416550,"SoundDuration":416550,"Delta":205827401},{"NoteNumber":77,"Velocity":74,"Duration":416550,"SoundDuration":416550,"Delta":205827401},{"NoteNumber":44,"Velocity":53,"Duration":104137,"SoundDuration":104137,"Delta":205827401},{"NoteNumber":53,"Velocity":49,"Duration":104137,"SoundDuration":104137,"Delta":205931539},{"NoteNumber":48,"Velocity":49,"Duration":104137,"SoundDuration":104137,"Delta":206035677},{"NoteNumber":44,"Velocity":49,"Duration":104137,"SoundDuration":104137,"Delta":206139815},{"NoteNumber":41,"Velocity":53,"Duration":104137,"SoundDuration":104137,"Delta":206243952},{"NoteNumber":48,"Velocity":49,"Duration":104137,"SoundDuration":104137,"Delta":206348090},{"NoteNumber":44,"Velocity":49,"Duration":104137,"SoundDuration":104137,"Delta":206452228},{"NoteNumber":80,"Velocity":70,"Duration":108265,"SoundDuration":108265,"Delta":206556366},{"NoteNumber":77,"Velocity":70,"Duration":108265,"SoundDuration":108265,"Delta":206556366},{"NoteNumber":41,"Velocity":49,"Duration":108265,"SoundDuration":108265,"Delta":206556366},{"NoteNumber":80,"Velocity":75,"Duration":836236,"SoundDuration":836236,"Delta":206664631},{"NoteNumber":77,"Velocity":75,"Duration":836236,"SoundDuration":836236,"Delta":206664631},{"NoteNumber":36,"Velocity":53,"Duration":104529,"SoundDuration":104529,"Delta":206664631},{"NoteNumber":41,"Velocity":49,"Duration":104529,"SoundDuration":104529,"Delta":206769161},{"NoteNumber":44,"Velocity":49,"Duration":104529,"SoundDuration":104529,"Delta":206873690},{"NoteNumber":48,"Velocity":49,"Duration":104529,"SoundDuration":104529,"Delta":206978220},{"NoteNumber":47,"Velocity":53,"Duration":104529,"SoundDuration":104529,"Delta":207082749},{"NoteNumber":48,"Velocity":49,"Duration":104529,"SoundDuration":104529,"Delta":207187279},{"NoteNumber":47,"Velocity":49,"Duration":104529,"SoundDuration":104529,"Delta":207291808},{"NoteNumber":48,"Velocity":49,"Duration":104529,"SoundDuration":104529,"Delta":207396338},{"NoteNumber":79,"Velocity":68,"Duration":209058,"SoundDuration":209058,"Delta":207500867},{"NoteNumber":76,"Velocity":68,"Duration":209058,"SoundDuration":209058,"Delta":207500867},{"NoteNumber":47,"Velocity":53,"Duration":104529,"SoundDuration":104529,"Delta":207500867},{"NoteNumber":48,"Velocity":49,"Duration":104529,"SoundDuration":104529,"Delta":207605397},{"NoteNumber":43,"Velocity":49,"Duration":104529,"SoundDuration":104529,"Delta":207709926},{"NoteNumber":48,"Velocity":49,"Duration":104529,"SoundDuration":104529,"Delta":207814456},{"NoteNumber":40,"Velocity":53,"Duration":104529,"SoundDuration":104529,"Delta":207918985},{"NoteNumber":48,"Velocity":49,"Duration":104529,"SoundDuration":104529,"Delta":208023515},{"NoteNumber":43,"Velocity":49,"Duration":104529,"SoundDuration":104529,"Delta":208128044},{"NoteNumber":48,"Velocity":49,"Duration":104529,"SoundDuration":104529,"Delta":208232574},{"NoteNumber":36,"Velocity":56,"Duration":104137,"SoundDuration":104137,"Delta":208337103},{"NoteNumber":40,"Velocity":49,"Duration":104137,"SoundDuration":104137,"Delta":208441241},{"NoteNumber":43,"Velocity":49,"Duration":104137,"SoundDuration":104137,"Delta":208545379},{"NoteNumber":48,"Velocity":49,"Duration":104137,"SoundDuration":104137,"Delta":208649516},{"NoteNumber":40,"Velocity":53,"Duration":104137,"SoundDuration":104137,"Delta":208753654},{"NoteNumber":43,"Velocity":49,"Duration":104137,"SoundDuration":104137,"Delta":208857792},{"NoteNumber":48,"Velocity":49,"Duration":104137,"SoundDuration":104137,"Delta":208961930},{"NoteNumber":82,"Velocity":75,"Duration":109091,"SoundDuration":109091,"Delta":209066067},{"NoteNumber":79,"Velocity":75,"Duration":109091,"SoundDuration":109091,"Delta":209066067},{"NoteNumber":52,"Velocity":49,"Duration":109091,"SoundDuration":109091,"Delta":209066067},{"NoteNumber":82,"Velocity":81,"Duration":416550,"SoundDuration":416550,"Delta":209175158},{"NoteNumber":79,"Velocity":81,"Duration":416550,"SoundDuration":416550,"Delta":209175158},{"NoteNumber":43,"Velocity":53,"Duration":104137,"SoundDuration":104137,"Delta":209175158},{"NoteNumber":48,"Velocity":49,"Duration":104137,"SoundDuration":104137,"Delta":209279296},{"NoteNumber":52,"Velocity":49,"Duration":104137,"SoundDuration":104137,"Delta":209383434},{"NoteNumber":55,"Velocity":49,"Duration":104137,"SoundDuration":104137,"Delta":209487572},{"NoteNumber":48,"Velocity":53,"Duration":104137,"SoundDuration":104137,"Delta":209591709},{"NoteNumber":52,"Velocity":49,"Duration":104137,"SoundDuration":104137,"Delta":209695847},{"NoteNumber":55,"Velocity":49,"Duration":104137,"SoundDuration":104137,"Delta":209799985},{"NoteNumber":82,"Velocity":77,"Duration":108265,"SoundDuration":108265,"Delta":209904123},{"NoteNumber":79,"Velocity":77,"Duration":108265,"SoundDuration":108265,"Delta":209904123},{"NoteNumber":60,"Velocity":49,"Duration":108265,"SoundDuration":108265,"Delta":209904123},{"NoteNumber":82,"Velocity":82,"Duration":836236,"SoundDuration":836236,"Delta":210012388},{"NoteNumber":79,"Velocity":82,"Duration":836236,"SoundDuration":836236,"Delta":210012388},{"NoteNumber":53,"Velocity":59,"Duration":104529,"SoundDuration":104529,"Delta":210012388},{"NoteNumber":56,"Velocity":49,"Duration":104529,"SoundDuration":104529,"Delta":210116917},{"NoteNumber":60,"Velocity":49,"Duration":104529,"SoundDuration":104529,"Delta":210221447},{"NoteNumber":65,"Velocity":49,"Duration":104529,"SoundDuration":104529,"Delta":210325976},{"NoteNumber":64,"Velocity":53,"Duration":104529,"SoundDuration":104529,"Delta":210430506},{"NoteNumber":65,"Velocity":49,"Duration":104529,"SoundDuration":104529,"Delta":210535035},{"NoteNumber":64,"Velocity":49,"Duration":104529,"SoundDuration":104529,"Delta":210639565},{"NoteNumber":65,"Velocity":49,"Duration":104529,"SoundDuration":104529,"Delta":210744094},{"NoteNumber":80,"Velocity":74,"Duration":209058,"SoundDuration":209058,"Delta":210848624},{"NoteNumber":77,"Velocity":74,"Duration":209058,"SoundDuration":209058,"Delta":210848624},{"NoteNumber":64,"Velocity":53,"Duration":104529,"SoundDuration":104529,"Delta":210848624},{"NoteNumber":65,"Velocity":49,"Duration":104529,"SoundDuration":104529,"Delta":210953153},{"NoteNumber":60,"Velocity":49,"Duration":104529,"SoundDuration":104529,"Delta":211057683},{"NoteNumber":65,"Velocity":49,"Duration":104529,"SoundDuration":104529,"Delta":211162212},{"NoteNumber":56,"Velocity":53,"Duration":104529,"SoundDuration":104529,"Delta":211266742},{"NoteNumber":65,"Velocity":49,"Duration":104529,"SoundDuration":104529,"Delta":211371271},{"NoteNumber":60,"Velocity":49,"Duration":104529,"SoundDuration":104529,"Delta":211475801},{"NoteNumber":65,"Velocity":49,"Duration":104529,"SoundDuration":104529,"Delta":211580330},{"NoteNumber":53,"Velocity":61,"Duration":104137,"SoundDuration":104137,"Delta":211684860},{"NoteNumber":57,"Velocity":53,"Duration":104137,"SoundDuration":104137,"Delta":211788998},{"NoteNumber":60,"Velocity":53,"Duration":104137,"SoundDuration":104137,"Delta":211893135},{"NoteNumber":65,"Velocity":53,"Duration":104137,"SoundDuration":104137,"Delta":211997273},{"NoteNumber":57,"Velocity":58,"Duration":104137,"SoundDuration":104137,"Delta":212101411},{"NoteNumber":60,"Velocity":53,"Duration":104137,"SoundDuration":104137,"Delta":212205549},{"NoteNumber":65,"Velocity":53,"Duration":104137,"SoundDuration":104137,"Delta":212309686},{"NoteNumber":87,"Velocity":82,"Duration":109091,"SoundDuration":109091,"Delta":212413824},{"NoteNumber":84,"Velocity":82,"Duration":109091,"SoundDuration":109091,"Delta":212413824},{"NoteNumber":69,"Velocity":53,"Duration":109091,"SoundDuration":109091,"Delta":212413824},{"NoteNumber":87,"Velocity":89,"Duration":416550,"SoundDuration":416550,"Delta":212522915},{"NoteNumber":84,"Velocity":89,"Duration":416550,"SoundDuration":416550,"Delta":212522915},{"NoteNumber":60,"Velocity":58,"Duration":104137,"SoundDuration":104137,"Delta":212522915},{"NoteNumber":65,"Velocity":53,"Duration":104137,"SoundDuration":104137,"Delta":212627053},{"NoteNumber":69,"Velocity":53,"Duration":104137,"SoundDuration":104137,"Delta":212731191},{"NoteNumber":72,"Velocity":53,"Duration":104137,"SoundDuration":104137,"Delta":212835328},{"NoteNumber":65,"Velocity":58,"Duration":104137,"SoundDuration":104137,"Delta":212939466},{"NoteNumber":69,"Velocity":53,"Duration":104137,"SoundDuration":104137,"Delta":213043604},{"NoteNumber":72,"Velocity":53,"Duration":104137,"SoundDuration":104137,"Delta":213147742},{"NoteNumber":87,"Velocity":84,"Duration":108265,"SoundDuration":108265,"Delta":213251879},{"NoteNumber":84,"Velocity":84,"Duration":108265,"SoundDuration":108265,"Delta":213251879},{"NoteNumber":77,"Velocity":53,"Duration":108265,"SoundDuration":108265,"Delta":213251879},{"NoteNumber":87,"Velocity":90,"Duration":1045295,"SoundDuration":1045295,"Delta":213360145},{"NoteNumber":84,"Velocity":90,"Duration":1045295,"SoundDuration":1045295,"Delta":213360145},{"NoteNumber":69,"Velocity":67,"Duration":104529,"SoundDuration":104529,"Delta":213360145},{"NoteNumber":77,"Velocity":53,"Duration":104529,"SoundDuration":104529,"Delta":213464674},{"NoteNumber":76,"Velocity":53,"Duration":104529,"SoundDuration":104529,"Delta":213569204},{"NoteNumber":77,"Velocity":53,"Duration":104529,"SoundDuration":104529,"Delta":213673733},{"NoteNumber":69,"Velocity":58,"Duration":104529,"SoundDuration":104529,"Delta":213778263},{"NoteNumber":77,"Velocity":53,"Duration":104529,"SoundDuration":104529,"Delta":213882792},{"NoteNumber":69,"Velocity":53,"Duration":104529,"SoundDuration":104529,"Delta":213987322},{"NoteNumber":77,"Velocity":53,"Duration":104529,"SoundDuration":104529,"Delta":214091851},{"NoteNumber":69,"Velocity":57,"Duration":104529,"SoundDuration":104529,"Delta":214196381},{"NoteNumber":77,"Velocity":56,"Duration":104529,"SoundDuration":104529,"Delta":214300910},{"NoteNumber":85,"Velocity":79,"Duration":210526,"SoundDuration":210526,"Delta":214405440},{"NoteNumber":82,"Velocity":79,"Duration":210526,"SoundDuration":210526,"Delta":214405440},{"NoteNumber":70,"Velocity":56,"Duration":105263,"SoundDuration":105263,"Delta":214405440},{"NoteNumber":77,"Velocity":55,"Duration":105263,"SoundDuration":105263,"Delta":214510703},{"NoteNumber":84,"Velocity":77,"Duration":210526,"SoundDuration":210526,"Delta":214615966},{"NoteNumber":80,"Velocity":77,"Duration":210526,"SoundDuration":210526,"Delta":214615966},{"NoteNumber":72,"Velocity":54,"Duration":105263,"SoundDuration":105263,"Delta":214615966},{"NoteNumber":77,"Velocity":53,"Duration":105263,"SoundDuration":105263,"Delta":214721230},{"NoteNumber":82,"Velocity":73,"Duration":210526,"SoundDuration":210526,"Delta":214826493},{"NoteNumber":79,"Velocity":73,"Duration":210526,"SoundDuration":210526,"Delta":214826493},{"NoteNumber":73,"Velocity":52,"Duration":105263,"SoundDuration":105263,"Delta":214826493},{"NoteNumber":77,"Velocity":52,"Duration":105263,"SoundDuration":105263,"Delta":214931756},{"NoteNumber":80,"Velocity":82,"Duration":416550,"SoundDuration":416550,"Delta":215037019},{"NoteNumber":77,"Velocity":82,"Duration":416550,"SoundDuration":416550,"Delta":215037019},{"NoteNumber":60,"Velocity":52,"Duration":104137,"SoundDuration":104137,"Delta":215037019},{"NoteNumber":65,"Velocity":47,"Duration":104137,"SoundDuration":104137,"Delta":215141157},{"NoteNumber":68,"Velocity":47,"Duration":104137,"SoundDuration":104137,"Delta":215245295},{"NoteNumber":72,"Velocity":47,"Duration":104137,"SoundDuration":104137,"Delta":215349433},{"NoteNumber":71,"Velocity":52,"Duration":104137,"SoundDuration":104137,"Delta":215453570},{"NoteNumber":72,"Velocity":47,"Duration":104137,"SoundDuration":104137,"Delta":215557708},{"NoteNumber":71,"Velocity":47,"Duration":104137,"SoundDuration":104137,"Delta":215661846},{"NoteNumber":89,"Velocity":79,"Duration":104768,"SoundDuration":104768,"Delta":215765984},{"NoteNumber":80,"Velocity":79,"Duration":104768,"SoundDuration":104768,"Delta":215765984},{"NoteNumber":77,"Velocity":79,"Duration":104768,"SoundDuration":104768,"Delta":215765984},{"NoteNumber":72,"Velocity":47,"Duration":104768,"SoundDuration":104768,"Delta":215765984},{"NoteNumber":91,"Velocity":82,"Duration":416550,"SoundDuration":416550,"Delta":215870752},{"NoteNumber":82,"Velocity":82,"Duration":416550,"SoundDuration":416550,"Delta":215870752},{"NoteNumber":79,"Velocity":82,"Duration":416550,"SoundDuration":416550,"Delta":215870752},{"NoteNumber":60,"Velocity":52,"Duration":104137,"SoundDuration":104137,"Delta":215870752},{"NoteNumber":64,"Velocity":47,"Duration":104137,"SoundDuration":104137,"Delta":215974890},{"NoteNumber":67,"Velocity":47,"Duration":104137,"SoundDuration":104137,"Delta":216079028},{"NoteNumber":72,"Velocity":47,"Duration":104137,"SoundDuration":104137,"Delta":216183166},{"NoteNumber":60,"Velocity":52,"Duration":104137,"SoundDuration":104137,"Delta":216287303},{"NoteNumber":67,"Velocity":47,"Duration":104137,"SoundDuration":104137,"Delta":216391441},{"NoteNumber":70,"Velocity":47,"Duration":104137,"SoundDuration":104137,"Delta":216495579},{"NoteNumber":88,"Velocity":79,"Duration":110236,"SoundDuration":110236,"Delta":216599717},{"NoteNumber":79,"Velocity":79,"Duration":110236,"SoundDuration":110236,"Delta":216599717},{"NoteNumber":76,"Velocity":79,"Duration":110236,"SoundDuration":110236,"Delta":216599717},{"NoteNumber":72,"Velocity":47,"Duration":110236,"SoundDuration":110236,"Delta":216599717},{"NoteNumber":89,"Velocity":73,"Duration":104894,"SoundDuration":104894,"Delta":216709953},{"NoteNumber":80,"Velocity":73,"Duration":104894,"SoundDuration":104894,"Delta":216709953},{"NoteNumber":77,"Velocity":73,"Duration":104894,"SoundDuration":104894,"Delta":216709953},{"NoteNumber":53,"Velocity":52,"Duration":104894,"SoundDuration":104894,"Delta":216709953},{"NoteNumber":72,"Velocity":61,"Duration":104469,"SoundDuration":104469,"Delta":216814848},{"NoteNumber":65,"Velocity":38,"Duration":104469,"SoundDuration":104469,"Delta":216814848},{"NoteNumber":68,"Velocity":38,"Duration":104469,"SoundDuration":104469,"Delta":216814848},{"NoteNumber":77,"Velocity":62,"Duration":104046,"SoundDuration":104046,"Delta":216919317},{"NoteNumber":60,"Velocity":39,"Duration":104046,"SoundDuration":104046,"Delta":216919317},{"NoteNumber":72,"Velocity":39,"Duration":104046,"SoundDuration":104046,"Delta":216919317},{"NoteNumber":80,"Velocity":63,"Duration":103686,"SoundDuration":103686,"Delta":217023364},{"NoteNumber":68,"Velocity":41,"Duration":103686,"SoundDuration":103686,"Delta":217023364},{"NoteNumber":65,"Velocity":41,"Duration":103686,"SoundDuration":103686,"Delta":217023364},{"NoteNumber":84,"Velocity":68,"Duration":103270,"SoundDuration":103270,"Delta":217127051},{"NoteNumber":72,"Velocity":45,"Duration":103270,"SoundDuration":103270,"Delta":217127051},{"NoteNumber":60,"Velocity":45,"Duration":103270,"SoundDuration":103270,"Delta":217127051},{"NoteNumber":85,"Velocity":65,"Duration":102857,"SoundDuration":102857,"Delta":217230321},{"NoteNumber":65,"Velocity":44,"Duration":102857,"SoundDuration":102857,"Delta":217230321},{"NoteNumber":68,"Velocity":44,"Duration":102857,"SoundDuration":102857,"Delta":217230321},{"NoteNumber":84,"Velocity":66,"Duration":102505,"SoundDuration":102505,"Delta":217333179},{"NoteNumber":72,"Velocity":45,"Duration":102505,"SoundDuration":102505,"Delta":217333179},{"NoteNumber":60,"Velocity":45,"Duration":102505,"SoundDuration":102505,"Delta":217333179},{"NoteNumber":82,"Velocity":65,"Duration":102098,"SoundDuration":102098,"Delta":217435685},{"NoteNumber":65,"Velocity":45,"Duration":102098,"SoundDuration":102098,"Delta":217435685},{"NoteNumber":68,"Velocity":45,"Duration":102098,"SoundDuration":102098,"Delta":217435685},{"NoteNumber":80,"Velocity":68,"Duration":101867,"SoundDuration":101867,"Delta":217537783},{"NoteNumber":60,"Velocity":46,"Duration":101867,"SoundDuration":101867,"Delta":217537783},{"NoteNumber":72,"Velocity":46,"Duration":101867,"SoundDuration":101867,"Delta":217537783},{"NoteNumber":82,"Velocity":67,"Duration":102623,"SoundDuration":102623,"Delta":217639651},{"NoteNumber":65,"Velocity":46,"Duration":102623,"SoundDuration":102623,"Delta":217639651},{"NoteNumber":68,"Velocity":46,"Duration":102623,"SoundDuration":102623,"Delta":217639651},{"NoteNumber":80,"Velocity":66,"Duration":103389,"SoundDuration":103389,"Delta":217742274},{"NoteNumber":60,"Velocity":45,"Duration":103389,"SoundDuration":103389,"Delta":217742274},{"NoteNumber":72,"Velocity":45,"Duration":103389,"SoundDuration":103389,"Delta":217742274},{"NoteNumber":79,"Velocity":65,"Duration":104227,"SoundDuration":104227,"Delta":217845664},{"NoteNumber":68,"Velocity":45,"Duration":104227,"SoundDuration":104227,"Delta":217845664},{"NoteNumber":65,"Velocity":45,"Duration":104227,"SoundDuration":104227,"Delta":217845664},{"NoteNumber":77,"Velocity":64,"Duration":105018,"SoundDuration":105018,"Delta":217949891},{"NoteNumber":72,"Velocity":45,"Duration":105018,"SoundDuration":105018,"Delta":217949891},{"NoteNumber":60,"Velocity":45,"Duration":105018,"SoundDuration":105018,"Delta":217949891},{"NoteNumber":79,"Velocity":63,"Duration":105883,"SoundDuration":105883,"Delta":218054910},{"NoteNumber":65,"Velocity":44,"Duration":105883,"SoundDuration":105883,"Delta":218054910},{"NoteNumber":68,"Velocity":44,"Duration":105883,"SoundDuration":105883,"Delta":218054910},{"NoteNumber":80,"Velocity":63,"Duration":106698,"SoundDuration":106698,"Delta":218160793},{"NoteNumber":72,"Velocity":44,"Duration":106698,"SoundDuration":106698,"Delta":218160793},{"NoteNumber":60,"Velocity":44,"Duration":106698,"SoundDuration":106698,"Delta":218160793},{"NoteNumber":77,"Velocity":62,"Duration":107527,"SoundDuration":107527,"Delta":218267492},{"NoteNumber":65,"Velocity":43,"Duration":107527,"SoundDuration":107527,"Delta":218267492},{"NoteNumber":68,"Velocity":43,"Duration":107527,"SoundDuration":107527,"Delta":218267492},{"NoteNumber":53,"Velocity":54,"Duration":135211,"SoundDuration":135211,"Delta":218375019},{"NoteNumber":72,"Velocity":61,"Duration":105448,"SoundDuration":105448,"Delta":218510230},{"NoteNumber":65,"Velocity":38,"Duration":105448,"SoundDuration":105448,"Delta":218510230},{"NoteNumber":68,"Velocity":38,"Duration":105448,"SoundDuration":105448,"Delta":218510230},{"NoteNumber":77,"Velocity":62,"Duration":104956,"SoundDuration":104956,"Delta":218615679},{"NoteNumber":72,"Velocity":39,"Duration":104956,"SoundDuration":104956,"Delta":218615679},{"NoteNumber":60,"Velocity":39,"Duration":104956,"SoundDuration":104956,"Delta":218615679},{"NoteNumber":80,"Velocity":63,"Duration":104408,"SoundDuration":104408,"Delta":218720635},{"NoteNumber":65,"Velocity":41,"Duration":104408,"SoundDuration":104408,"Delta":218720635},{"NoteNumber":68,"Velocity":41,"Duration":104408,"SoundDuration":104408,"Delta":218720635},{"NoteNumber":84,"Velocity":68,"Duration":103926,"SoundDuration":103926,"Delta":218825044},{"NoteNumber":72,"Velocity":45,"Duration":103926,"SoundDuration":103926,"Delta":218825044},{"NoteNumber":60,"Velocity":45,"Duration":103926,"SoundDuration":103926,"Delta":218825044},{"NoteNumber":85,"Velocity":65,"Duration":103448,"SoundDuration":103448,"Delta":218928970},{"NoteNumber":65,"Velocity":44,"Duration":103448,"SoundDuration":103448,"Delta":218928970},{"NoteNumber":68,"Velocity":44,"Duration":103448,"SoundDuration":103448,"Delta":218928970},{"NoteNumber":84,"Velocity":66,"Duration":102975,"SoundDuration":102975,"Delta":219032419},{"NoteNumber":72,"Velocity":45,"Duration":102975,"SoundDuration":102975,"Delta":219032419},{"NoteNumber":60,"Velocity":45,"Duration":102975,"SoundDuration":102975,"Delta":219032419},{"NoteNumber":82,"Velocity":65,"Duration":102505,"SoundDuration":102505,"Delta":219135394},{"NoteNumber":68,"Velocity":45,"Duration":102505,"SoundDuration":102505,"Delta":219135394},{"NoteNumber":65,"Velocity":45,"Duration":102505,"SoundDuration":102505,"Delta":219135394},{"NoteNumber":80,"Velocity":68,"Duration":102505,"SoundDuration":102505,"Delta":219237900},{"NoteNumber":60,"Velocity":46,"Duration":102505,"SoundDuration":102505,"Delta":219237900},{"NoteNumber":72,"Velocity":46,"Duration":102505,"SoundDuration":102505,"Delta":219237900},{"NoteNumber":82,"Velocity":67,"Duration":103034,"SoundDuration":103034,"Delta":219340406},{"NoteNumber":65,"Velocity":46,"Duration":103034,"SoundDuration":103034,"Delta":219340406},{"NoteNumber":68,"Velocity":46,"Duration":103034,"SoundDuration":103034,"Delta":219340406},{"NoteNumber":80,"Velocity":66,"Duration":103627,"SoundDuration":103627,"Delta":219443440},{"NoteNumber":72,"Velocity":45,"Duration":103627,"SoundDuration":103627,"Delta":219443440},{"NoteNumber":60,"Velocity":45,"Duration":103627,"SoundDuration":103627,"Delta":219443440},{"NoteNumber":79,"Velocity":65,"Duration":104287,"SoundDuration":104287,"Delta":219547067},{"NoteNumber":65,"Velocity":45,"Duration":104287,"SoundDuration":104287,"Delta":219547067},{"NoteNumber":68,"Velocity":45,"Duration":104287,"SoundDuration":104287,"Delta":219547067},{"NoteNumber":77,"Velocity":64,"Duration":104895,"SoundDuration":104895,"Delta":219651355},{"NoteNumber":60,"Velocity":45,"Duration":104895,"SoundDuration":104895,"Delta":219651355},{"NoteNumber":72,"Velocity":45,"Duration":104895,"SoundDuration":104895,"Delta":219651355},{"NoteNumber":79,"Velocity":63,"Duration":105510,"SoundDuration":105510,"Delta":219756250},{"NoteNumber":68,"Velocity":44,"Duration":105510,"SoundDuration":105510,"Delta":219756250},{"NoteNumber":65,"Velocity":44,"Duration":105510,"SoundDuration":105510,"Delta":219756250},{"NoteNumber":80,"Velocity":63,"Duration":106194,"SoundDuration":106194,"Delta":219861761},{"NoteNumber":72,"Velocity":44,"Duration":106194,"SoundDuration":106194,"Delta":219861761},{"NoteNumber":60,"Velocity":44,"Duration":106194,"SoundDuration":106194,"Delta":219861761},{"NoteNumber":77,"Velocity":62,"Duration":106954,"SoundDuration":106954,"Delta":219967956},{"NoteNumber":68,"Velocity":43,"Duration":106954,"SoundDuration":106954,"Delta":219967956},{"NoteNumber":65,"Velocity":43,"Duration":106954,"SoundDuration":106954,"Delta":219967956},{"NoteNumber":44,"Velocity":55,"Duration":135526,"SoundDuration":135526,"Delta":220074910},{"NoteNumber":78,"Velocity":64,"Duration":105448,"SoundDuration":105448,"Delta":220210436},{"NoteNumber":54,"Velocity":40,"Duration":105448,"SoundDuration":105448,"Delta":220210436},{"NoteNumber":56,"Velocity":40,"Duration":105448,"SoundDuration":105448,"Delta":220210436},{"NoteNumber":84,"Velocity":65,"Duration":104895,"SoundDuration":104895,"Delta":220315885},{"NoteNumber":60,"Velocity":41,"Duration":104895,"SoundDuration":104895,"Delta":220315885},{"NoteNumber":51,"Velocity":41,"Duration":104895,"SoundDuration":104895,"Delta":220315885},{"NoteNumber":87,"Velocity":66,"Duration":104348,"SoundDuration":104348,"Delta":220420780},{"NoteNumber":54,"Velocity":43,"Duration":104348,"SoundDuration":104348,"Delta":220420780},{"NoteNumber":56,"Velocity":43,"Duration":104348,"SoundDuration":104348,"Delta":220420780},{"NoteNumber":90,"Velocity":72,"Duration":103746,"SoundDuration":103746,"Delta":220525129},{"NoteNumber":60,"Velocity":47,"Duration":103746,"SoundDuration":103746,"Delta":220525129},{"NoteNumber":51,"Velocity":47,"Duration":103746,"SoundDuration":103746,"Delta":220525129},{"NoteNumber":92,"Velocity":69,"Duration":103211,"SoundDuration":103211,"Delta":220628876},{"NoteNumber":54,"Velocity":46,"Duration":103211,"SoundDuration":103211,"Delta":220628876},{"NoteNumber":56,"Velocity":46,"Duration":103211,"SoundDuration":103211,"Delta":220628876},{"NoteNumber":90,"Velocity":70,"Duration":102622,"SoundDuration":102622,"Delta":220732087},{"NoteNumber":60,"Velocity":47,"Duration":102622,"SoundDuration":102622,"Delta":220732087},{"NoteNumber":51,"Velocity":47,"Duration":102622,"SoundDuration":102622,"Delta":220732087},{"NoteNumber":89,"Velocity":69,"Duration":102099,"SoundDuration":102099,"Delta":220834710},{"NoteNumber":56,"Velocity":48,"Duration":102099,"SoundDuration":102099,"Delta":220834710},{"NoteNumber":54,"Velocity":48,"Duration":102099,"SoundDuration":102099,"Delta":220834710},{"NoteNumber":87,"Velocity":72,"Duration":101867,"SoundDuration":101867,"Delta":220936809},{"NoteNumber":51,"Velocity":49,"Duration":101867,"SoundDuration":101867,"Delta":220936809},{"NoteNumber":60,"Velocity":49,"Duration":101867,"SoundDuration":101867,"Delta":220936809},{"NoteNumber":89,"Velocity":71,"Duration":102505,"SoundDuration":102505,"Delta":221038677},{"NoteNumber":56,"Velocity":49,"Duration":102505,"SoundDuration":102505,"Delta":221038677},{"NoteNumber":54,"Velocity":49,"Duration":102505,"SoundDuration":102505,"Delta":221038677},{"NoteNumber":87,"Velocity":70,"Duration":103152,"SoundDuration":103152,"Delta":221141183},{"NoteNumber":51,"Velocity":48,"Duration":103152,"SoundDuration":103152,"Delta":221141183},{"NoteNumber":60,"Velocity":48,"Duration":103152,"SoundDuration":103152,"Delta":221141183},{"NoteNumber":85,"Velocity":69,"Duration":103747,"SoundDuration":103747,"Delta":221244335},{"NoteNumber":54,"Velocity":47,"Duration":103747,"SoundDuration":103747,"Delta":221244335},{"NoteNumber":56,"Velocity":47,"Duration":103747,"SoundDuration":103747,"Delta":221244335},{"NoteNumber":84,"Velocity":68,"Duration":104408,"SoundDuration":104408,"Delta":221348082},{"NoteNumber":60,"Velocity":47,"Duration":104408,"SoundDuration":104408,"Delta":221348082},{"NoteNumber":51,"Velocity":47,"Duration":104408,"SoundDuration":104408,"Delta":221348082},{"NoteNumber":85,"Velocity":67,"Duration":105079,"SoundDuration":105079,"Delta":221452491},{"NoteNumber":54,"Velocity":46,"Duration":105079,"SoundDuration":105079,"Delta":221452491},{"NoteNumber":56,"Velocity":46,"Duration":105079,"SoundDuration":105079,"Delta":221452491},{"NoteNumber":87,"Velocity":66,"Duration":105758,"SoundDuration":105758,"Delta":221557570},{"NoteNumber":60,"Velocity":46,"Duration":105758,"SoundDuration":105758,"Delta":221557570},{"NoteNumber":51,"Velocity":46,"Duration":105758,"SoundDuration":105758,"Delta":221557570},{"NoteNumber":84,"Velocity":65,"Duration":106638,"SoundDuration":106638,"Delta":221663328},{"NoteNumber":56,"Velocity":45,"Duration":106638,"SoundDuration":106638,"Delta":221663328},{"NoteNumber":54,"Velocity":45,"Duration":106638,"SoundDuration":106638,"Delta":221663328},{"NoteNumber":44,"Velocity":54,"Duration":135087,"SoundDuration":135087,"Delta":221769966},{"NoteNumber":78,"Velocity":64,"Duration":105079,"SoundDuration":105079,"Delta":221905054},{"NoteNumber":54,"Velocity":40,"Duration":105079,"SoundDuration":105079,"Delta":221905054},{"NoteNumber":56,"Velocity":40,"Duration":105079,"SoundDuration":105079,"Delta":221905054},{"NoteNumber":84,"Velocity":65,"Duration":104590,"SoundDuration":104590,"Delta":222010133},{"NoteNumber":60,"Velocity":41,"Duration":104590,"SoundDuration":104590,"Delta":222010133},{"NoteNumber":51,"Velocity":41,"Duration":104590,"SoundDuration":104590,"Delta":222010133},{"NoteNumber":87,"Velocity":66,"Duration":104046,"SoundDuration":104046,"Delta":222114724},{"NoteNumber":54,"Velocity":43,"Duration":104046,"SoundDuration":104046,"Delta":222114724},{"NoteNumber":56,"Velocity":43,"Duration":104046,"SoundDuration":104046,"Delta":222114724},{"NoteNumber":90,"Velocity":72,"Duration":103567,"SoundDuration":103567,"Delta":222218770},{"NoteNumber":60,"Velocity":47,"Duration":103567,"SoundDuration":103567,"Delta":222218770},{"NoteNumber":51,"Velocity":47,"Duration":103567,"SoundDuration":103567,"Delta":222218770},{"NoteNumber":92,"Velocity":69,"Duration":103093,"SoundDuration":103093,"Delta":222322338},{"NoteNumber":54,"Velocity":46,"Duration":103093,"SoundDuration":103093,"Delta":222322338},{"NoteNumber":56,"Velocity":46,"Duration":103093,"SoundDuration":103093,"Delta":222322338},{"NoteNumber":90,"Velocity":70,"Duration":102622,"SoundDuration":102622,"Delta":222425431},{"NoteNumber":51,"Velocity":47,"Duration":102622,"SoundDuration":102622,"Delta":222425431},{"NoteNumber":60,"Velocity":47,"Duration":102622,"SoundDuration":102622,"Delta":222425431},{"NoteNumber":89,"Velocity":69,"Duration":102156,"SoundDuration":102156,"Delta":222528054},{"NoteNumber":56,"Velocity":48,"Duration":102156,"SoundDuration":102156,"Delta":222528054},{"NoteNumber":54,"Velocity":48,"Duration":102156,"SoundDuration":102156,"Delta":222528054},{"NoteNumber":87,"Velocity":72,"Duration":101867,"SoundDuration":101867,"Delta":222630211},{"NoteNumber":60,"Velocity":49,"Duration":101867,"SoundDuration":101867,"Delta":222630211},{"NoteNumber":51,"Velocity":49,"Duration":101867,"SoundDuration":101867,"Delta":222630211},{"NoteNumber":89,"Velocity":71,"Duration":102564,"SoundDuration":102564,"Delta":222732079},{"NoteNumber":54,"Velocity":49,"Duration":102564,"SoundDuration":102564,"Delta":222732079},{"NoteNumber":56,"Velocity":49,"Duration":102564,"SoundDuration":102564,"Delta":222732079},{"NoteNumber":87,"Velocity":70,"Duration":103270,"SoundDuration":103270,"Delta":222834643},{"NoteNumber":60,"Velocity":48,"Duration":103270,"SoundDuration":103270,"Delta":222834643},{"NoteNumber":51,"Velocity":48,"Duration":103270,"SoundDuration":103270,"Delta":222834643},{"NoteNumber":85,"Velocity":69,"Duration":104046,"SoundDuration":104046,"Delta":222937913},{"NoteNumber":56,"Velocity":47,"Duration":104046,"SoundDuration":104046,"Delta":222937913},{"NoteNumber":54,"Velocity":47,"Duration":104046,"SoundDuration":104046,"Delta":222937913},{"NoteNumber":84,"Velocity":68,"Duration":104834,"SoundDuration":104834,"Delta":223041960},{"NoteNumber":51,"Velocity":47,"Duration":104834,"SoundDuration":104834,"Delta":223041960},{"NoteNumber":60,"Velocity":47,"Duration":104834,"SoundDuration":104834,"Delta":223041960},{"NoteNumber":82,"Velocity":67,"Duration":105572,"SoundDuration":105572,"Delta":223146795},{"NoteNumber":54,"Velocity":46,"Duration":105572,"SoundDuration":105572,"Delta":223146795},{"NoteNumber":56,"Velocity":46,"Duration":105572,"SoundDuration":105572,"Delta":223146795},{"NoteNumber":80,"Velocity":66,"Duration":106320,"SoundDuration":106320,"Delta":223252367},{"NoteNumber":51,"Velocity":46,"Duration":106320,"SoundDuration":106320,"Delta":223252367},{"NoteNumber":60,"Velocity":46,"Duration":106320,"SoundDuration":106320,"Delta":223252367},{"NoteNumber":78,"Velocity":65,"Duration":107208,"SoundDuration":107208,"Delta":223358688},{"NoteNumber":56,"Velocity":45,"Duration":107208,"SoundDuration":107208,"Delta":223358688},{"NoteNumber":54,"Velocity":45,"Duration":107208,"SoundDuration":107208,"Delta":223358688},{"NoteNumber":77,"Velocity":68,"Duration":135087,"SoundDuration":135087,"Delta":223465896},{"NoteNumber":49,"Velocity":56,"Duration":135087,"SoundDuration":135087,"Delta":223465896},{"NoteNumber":80,"Velocity":67,"Duration":105079,"SoundDuration":105079,"Delta":223600984},{"NoteNumber":61,"Velocity":42,"Duration":105079,"SoundDuration":105079,"Delta":223600984},{"NoteNumber":65,"Velocity":42,"Duration":105079,"SoundDuration":105079,"Delta":223600984},{"NoteNumber":85,"Velocity":68,"Duration":104590,"SoundDuration":104590,"Delta":223706063},{"NoteNumber":68,"Velocity":43,"Duration":104590,"SoundDuration":104590,"Delta":223706063},{"NoteNumber":56,"Velocity":43,"Duration":104590,"SoundDuration":104590,"Delta":223706063},{"NoteNumber":89,"Velocity":69,"Duration":104046,"SoundDuration":104046,"Delta":223810654},{"NoteNumber":65,"Velocity":45,"Duration":104046,"SoundDuration":104046,"Delta":223810654},{"NoteNumber":61,"Velocity":45,"Duration":104046,"SoundDuration":104046,"Delta":223810654},{"NoteNumber":92,"Velocity":75,"Duration":103567,"SoundDuration":103567,"Delta":223914700},{"NoteNumber":56,"Velocity":49,"Duration":103567,"SoundDuration":103567,"Delta":223914700},{"NoteNumber":68,"Velocity":49,"Duration":103567,"SoundDuration":103567,"Delta":223914700},{"NoteNumber":94,"Velocity":72,"Duration":103093,"SoundDuration":103093,"Delta":224018268},{"NoteNumber":61,"Velocity":48,"Duration":103093,"SoundDuration":103093,"Delta":224018268},{"NoteNumber":65,"Velocity":48,"Duration":103093,"SoundDuration":103093,"Delta":224018268},{"NoteNumber":92,"Velocity":73,"Duration":102622,"SoundDuration":102622,"Delta":224121361},{"NoteNumber":68,"Velocity":49,"Duration":102622,"SoundDuration":102622,"Delta":224121361},{"NoteNumber":56,"Velocity":49,"Duration":102622,"SoundDuration":102622,"Delta":224121361},{"NoteNumber":90,"Velocity":72,"Duration":102156,"SoundDuration":102156,"Delta":224223984},{"NoteNumber":61,"Velocity":50,"Duration":102156,"SoundDuration":102156,"Delta":224223984},{"NoteNumber":65,"Velocity":50,"Duration":102156,"SoundDuration":102156,"Delta":224223984},{"NoteNumber":89,"Velocity":75,"Duration":101867,"SoundDuration":101867,"Delta":224326141},{"NoteNumber":68,"Velocity":51,"Duration":101867,"SoundDuration":101867,"Delta":224326141},{"NoteNumber":56,"Velocity":51,"Duration":101867,"SoundDuration":101867,"Delta":224326141},{"NoteNumber":90,"Velocity":74,"Duration":102564,"SoundDuration":102564,"Delta":224428009},{"NoteNumber":61,"Velocity":51,"Duration":102564,"SoundDuration":102564,"Delta":224428009},{"NoteNumber":65,"Velocity":51,"Duration":102564,"SoundDuration":102564,"Delta":224428009},{"NoteNumber":89,"Velocity":73,"Duration":103270,"SoundDuration":103270,"Delta":224530573},{"NoteNumber":56,"Velocity":50,"Duration":103270,"SoundDuration":103270,"Delta":224530573},{"NoteNumber":68,"Velocity":50,"Duration":103270,"SoundDuration":103270,"Delta":224530573},{"NoteNumber":87,"Velocity":72,"Duration":104046,"SoundDuration":104046,"Delta":224633843},{"NoteNumber":65,"Velocity":49,"Duration":104046,"SoundDuration":104046,"Delta":224633843},{"NoteNumber":61,"Velocity":49,"Duration":104046,"SoundDuration":104046,"Delta":224633843},{"NoteNumber":85,"Velocity":71,"Duration":104834,"SoundDuration":104834,"Delta":224737890},{"NoteNumber":68,"Velocity":49,"Duration":104834,"SoundDuration":104834,"Delta":224737890},{"NoteNumber":56,"Velocity":49,"Duration":104834,"SoundDuration":104834,"Delta":224737890},{"NoteNumber":87,"Velocity":70,"Duration":105572,"SoundDuration":105572,"Delta":224842725},{"NoteNumber":61,"Velocity":48,"Duration":105572,"SoundDuration":105572,"Delta":224842725},{"NoteNumber":65,"Velocity":48,"Duration":105572,"SoundDuration":105572,"Delta":224842725},{"NoteNumber":89,"Velocity":69,"Duration":106320,"SoundDuration":106320,"Delta":224948297},{"NoteNumber":68,"Velocity":48,"Duration":106320,"SoundDuration":106320,"Delta":224948297},{"NoteNumber":56,"Velocity":48,"Duration":106320,"SoundDuration":106320,"Delta":224948297},{"NoteNumber":85,"Velocity":68,"Duration":107208,"SoundDuration":107208,"Delta":225054618},{"NoteNumber":61,"Velocity":47,"Duration":107208,"SoundDuration":107208,"Delta":225054618},{"NoteNumber":65,"Velocity":47,"Duration":107208,"SoundDuration":107208,"Delta":225054618},{"NoteNumber":49,"Velocity":56,"Duration":135087,"SoundDuration":135087,"Delta":225161826},{"NoteNumber":80,"Velocity":67,"Duration":105079,"SoundDuration":105079,"Delta":225296914},{"NoteNumber":61,"Velocity":42,"Duration":105079,"SoundDuration":105079,"Delta":225296914},{"NoteNumber":65,"Velocity":42,"Duration":105079,"SoundDuration":105079,"Delta":225296914},{"NoteNumber":85,"Velocity":68,"Duration":104590,"SoundDuration":104590,"Delta":225401993},{"NoteNumber":68,"Velocity":43,"Duration":104590,"SoundDuration":104590,"Delta":225401993},{"NoteNumber":56,"Velocity":43,"Duration":104590,"SoundDuration":104590,"Delta":225401993},{"NoteNumber":89,"Velocity":69,"Duration":104046,"SoundDuration":104046,"Delta":225506584},{"NoteNumber":61,"Velocity":45,"Duration":104046,"SoundDuration":104046,"Delta":225506584},{"NoteNumber":65,"Velocity":45,"Duration":104046,"SoundDuration":104046,"Delta":225506584},{"NoteNumber":92,"Velocity":76,"Duration":103567,"SoundDuration":103567,"Delta":225610630},{"NoteNumber":68,"Velocity":49,"Duration":206660,"SoundDuration":206660,"Delta":225610630},{"NoteNumber":94,"Velocity":74,"Duration":103093,"SoundDuration":103093,"Delta":225714198},{"NoteNumber":92,"Velocity":75,"Duration":102622,"SoundDuration":102622,"Delta":225817291},{"NoteNumber":73,"Velocity":55,"Duration":204779,"SoundDuration":204779,"Delta":225817291},{"NoteNumber":90,"Velocity":74,"Duration":102156,"SoundDuration":102156,"Delta":225919914},{"NoteNumber":89,"Velocity":78,"Duration":101867,"SoundDuration":101867,"Delta":226022071},{"NoteNumber":77,"Velocity":58,"Duration":204432,"SoundDuration":204432,"Delta":226022071},{"NoteNumber":90,"Velocity":77,"Duration":102564,"SoundDuration":102564,"Delta":226123939},{"NoteNumber":92,"Velocity":77,"Duration":103270,"SoundDuration":103270,"Delta":226226503},{"NoteNumber":80,"Velocity":62,"Duration":207317,"SoundDuration":207317,"Delta":226226503},{"NoteNumber":90,"Velocity":76,"Duration":104046,"SoundDuration":104046,"Delta":226329773},{"NoteNumber":89,"Velocity":75,"Duration":104834,"SoundDuration":104834,"Delta":226433820},{"NoteNumber":85,"Velocity":66,"Duration":210406,"SoundDuration":210406,"Delta":226433820},{"NoteNumber":90,"Velocity":75,"Duration":105572,"SoundDuration":105572,"Delta":226538655},{"NoteNumber":92,"Velocity":74,"Duration":106320,"SoundDuration":106320,"Delta":226644227},{"NoteNumber":85,"Velocity":69,"Duration":213528,"SoundDuration":213528,"Delta":226644227},{"NoteNumber":89,"Velocity":74,"Duration":107208,"SoundDuration":107208,"Delta":226750548},{"NoteNumber":85,"Velocity":80,"Duration":631579,"SoundDuration":631579,"Delta":226857756},{"NoteNumber":82,"Velocity":80,"Duration":631579,"SoundDuration":631579,"Delta":226857756},{"NoteNumber":90,"Velocity":70,"Duration":105263,"SoundDuration":105263,"Delta":226963020},{"NoteNumber":92,"Velocity":73,"Duration":105263,"SoundDuration":105263,"Delta":227068283},{"NoteNumber":90,"Velocity":70,"Duration":105263,"SoundDuration":105263,"Delta":227173546},{"NoteNumber":92,"Velocity":65,"Duration":105263,"SoundDuration":105263,"Delta":227278809},{"NoteNumber":90,"Velocity":63,"Duration":105263,"SoundDuration":105263,"Delta":227384073},{"NoteNumber":89,"Velocity":59,"Duration":107913,"SoundDuration":107913,"Delta":227489336},{"NoteNumber":80,"Velocity":66,"Duration":215827,"SoundDuration":215827,"Delta":227489336},{"NoteNumber":84,"Velocity":66,"Duration":215827,"SoundDuration":215827,"Delta":227489336},{"NoteNumber":90,"Velocity":59,"Duration":107913,"SoundDuration":107913,"Delta":227597250},{"NoteNumber":79,"Velocity":68,"Duration":431655,"SoundDuration":431655,"Delta":227705163},{"NoteNumber":82,"Velocity":68,"Duration":431655,"SoundDuration":431655,"Delta":227705163},{"NoteNumber":88,"Velocity":58,"Duration":107913,"SoundDuration":107913,"Delta":227813077},{"NoteNumber":89,"Velocity":60,"Duration":107913,"SoundDuration":107913,"Delta":227920991},{"NoteNumber":88,"Velocity":57,"Duration":107913,"SoundDuration":107913,"Delta":228028905},{"NoteNumber":84,"Velocity":64,"Duration":431655,"SoundDuration":431655,"Delta":228136818},{"NoteNumber":80,"Velocity":64,"Duration":431655,"SoundDuration":431655,"Delta":228136818},{"NoteNumber":89,"Velocity":57,"Duration":107913,"SoundDuration":107913,"Delta":228244732},{"NoteNumber":91,"Velocity":60,"Duration":107913,"SoundDuration":107913,"Delta":228352646},{"NoteNumber":89,"Velocity":56,"Duration":107913,"SoundDuration":107913,"Delta":228460560},{"NoteNumber":82,"Velocity":80,"Duration":631579,"SoundDuration":631579,"Delta":228568473},{"NoteNumber":85,"Velocity":80,"Duration":631579,"SoundDuration":631579,"Delta":228568473},{"NoteNumber":90,"Velocity":70,"Duration":105263,"SoundDuration":105263,"Delta":228673737},{"NoteNumber":92,"Velocity":73,"Duration":105263,"SoundDuration":105263,"Delta":228779000},{"NoteNumber":90,"Velocity":70,"Duration":105263,"SoundDuration":105263,"Delta":228884263},{"NoteNumber":92,"Velocity":65,"Duration":105263,"SoundDuration":105263,"Delta":228989526},{"NoteNumber":90,"Velocity":63,"Duration":105263,"SoundDuration":105263,"Delta":229094790},{"NoteNumber":89,"Velocity":59,"Duration":107913,"SoundDuration":107913,"Delta":229200053},{"NoteNumber":84,"Velocity":66,"Duration":215827,"SoundDuration":215827,"Delta":229200053},{"NoteNumber":80,"Velocity":66,"Duration":215827,"SoundDuration":215827,"Delta":229200053},{"NoteNumber":90,"Velocity":59,"Duration":107913,"SoundDuration":107913,"Delta":229307967},{"NoteNumber":79,"Velocity":68,"Duration":431655,"SoundDuration":431655,"Delta":229415880},{"NoteNumber":82,"Velocity":68,"Duration":431655,"SoundDuration":431655,"Delta":229415880},{"NoteNumber":88,"Velocity":58,"Duration":107913,"SoundDuration":107913,"Delta":229523794},{"NoteNumber":89,"Velocity":60,"Duration":107913,"SoundDuration":107913,"Delta":229631708},{"NoteNumber":88,"Velocity":57,"Duration":107913,"SoundDuration":107913,"Delta":229739622},{"NoteNumber":80,"Velocity":64,"Duration":431655,"SoundDuration":431655,"Delta":229847535},{"NoteNumber":84,"Velocity":64,"Duration":431655,"SoundDuration":431655,"Delta":229847535},{"NoteNumber":89,"Velocity":57,"Duration":107913,"SoundDuration":107913,"Delta":229955449},{"NoteNumber":91,"Velocity":60,"Duration":107913,"SoundDuration":107913,"Delta":230063363},{"NoteNumber":89,"Velocity":56,"Duration":107913,"SoundDuration":107913,"Delta":230171277},{"NoteNumber":85,"Velocity":80,"Duration":631579,"SoundDuration":631579,"Delta":230279190},{"NoteNumber":82,"Velocity":80,"Duration":631579,"SoundDuration":631579,"Delta":230279190},{"NoteNumber":90,"Velocity":70,"Duration":105263,"SoundDuration":105263,"Delta":230384454},{"NoteNumber":92,"Velocity":73,"Duration":105263,"SoundDuration":105263,"Delta":230489717},{"NoteNumber":90,"Velocity":70,"Duration":105263,"SoundDuration":105263,"Delta":230594980},{"NoteNumber":92,"Velocity":73,"Duration":105263,"SoundDuration":105263,"Delta":230700243},{"NoteNumber":90,"Velocity":70,"Duration":105263,"SoundDuration":105263,"Delta":230805507},{"NoteNumber":89,"Velocity":59,"Duration":107913,"SoundDuration":107913,"Delta":230910770},{"NoteNumber":84,"Velocity":66,"Duration":215827,"SoundDuration":215827,"Delta":230910770},{"NoteNumber":80,"Velocity":66,"Duration":215827,"SoundDuration":215827,"Delta":230910770},{"NoteNumber":91,"Velocity":59,"Duration":107913,"SoundDuration":107913,"Delta":231018684},{"NoteNumber":79,"Velocity":68,"Duration":431655,"SoundDuration":431655,"Delta":231126597},{"NoteNumber":82,"Velocity":68,"Duration":431655,"SoundDuration":431655,"Delta":231126597},{"NoteNumber":88,"Velocity":58,"Duration":107913,"SoundDuration":107913,"Delta":231234511},{"NoteNumber":89,"Velocity":60,"Duration":107913,"SoundDuration":107913,"Delta":231342425},{"NoteNumber":88,"Velocity":58,"Duration":107913,"SoundDuration":107913,"Delta":231450339},{"NoteNumber":80,"Velocity":65,"Duration":431655,"SoundDuration":431655,"Delta":231558252},{"NoteNumber":77,"Velocity":65,"Duration":431655,"SoundDuration":431655,"Delta":231558252},{"NoteNumber":85,"Velocity":58,"Duration":107913,"SoundDuration":107913,"Delta":231666166},{"NoteNumber":87,"Velocity":61,"Duration":107913,"SoundDuration":107913,"Delta":231774080},{"NoteNumber":85,"Velocity":57,"Duration":107913,"SoundDuration":107913,"Delta":231881994},{"NoteNumber":76,"Velocity":70,"Duration":431655,"SoundDuration":431655,"Delta":231989907},{"NoteNumber":79,"Velocity":70,"Duration":431655,"SoundDuration":431655,"Delta":231989907},{"NoteNumber":84,"Velocity":60,"Duration":107913,"SoundDuration":107913,"Delta":232097821},{"NoteNumber":85,"Velocity":62,"Duration":107913,"SoundDuration":107913,"Delta":232205735},{"NoteNumber":84,"Velocity":60,"Duration":107913,"SoundDuration":107913,"Delta":232313649},{"NoteNumber":77,"Velocity":70,"Duration":431654,"SoundDuration":431654,"Delta":232421562},{"NoteNumber":74,"Velocity":70,"Duration":431654,"SoundDuration":431654,"Delta":232421562},{"NoteNumber":83,"Velocity":61,"Duration":107913,"SoundDuration":107913,"Delta":232529476},{"NoteNumber":84,"Velocity":65,"Duration":107913,"SoundDuration":107913,"Delta":232637390},{"NoteNumber":83,"Velocity":62,"Duration":107913,"SoundDuration":107913,"Delta":232745304},{"NoteNumber":77,"Velocity":75,"Duration":431655,"SoundDuration":431655,"Delta":232853217},{"NoteNumber":73,"Velocity":75,"Duration":431655,"SoundDuration":431655,"Delta":232853217},{"NoteNumber":82,"Velocity":65,"Duration":107913,"SoundDuration":107913,"Delta":232961131},{"NoteNumber":84,"Velocity":67,"Duration":107913,"SoundDuration":107913,"Delta":233069045},{"NoteNumber":82,"Velocity":64,"Duration":107913,"SoundDuration":107913,"Delta":233176959},{"NoteNumber":72,"Velocity":75,"Duration":431655,"SoundDuration":431655,"Delta":233284872},{"NoteNumber":77,"Velocity":75,"Duration":431655,"SoundDuration":431655,"Delta":233284872},{"NoteNumber":80,"Velocity":66,"Duration":107913,"SoundDuration":107913,"Delta":233392786},{"NoteNumber":82,"Velocity":69,"Duration":107913,"SoundDuration":107913,"Delta":233500700},{"NoteNumber":80,"Velocity":67,"Duration":107913,"SoundDuration":107913,"Delta":233608614},{"NoteNumber":71,"Velocity":76,"Duration":863310,"SoundDuration":863310,"Delta":233716527},{"NoteNumber":80,"Velocity":67,"Duration":107913,"SoundDuration":107913,"Delta":233824441},{"NoteNumber":82,"Velocity":70,"Duration":107913,"SoundDuration":107913,"Delta":233932355},{"NoteNumber":80,"Velocity":68,"Duration":107913,"SoundDuration":107913,"Delta":234040269},{"NoteNumber":74,"Velocity":75,"Duration":431655,"SoundDuration":431655,"Delta":234148182},{"NoteNumber":79,"Velocity":66,"Duration":107913,"SoundDuration":107913,"Delta":234256096},{"NoteNumber":80,"Velocity":69,"Duration":107913,"SoundDuration":107913,"Delta":234364010},{"NoteNumber":79,"Velocity":64,"Duration":107913,"SoundDuration":107913,"Delta":234471924},{"NoteNumber":60,"Velocity":72,"Duration":863309,"SoundDuration":863309,"Delta":234579837},{"NoteNumber":68,"Velocity":72,"Duration":431654,"SoundDuration":431654,"Delta":234579837},{"NoteNumber":72,"Velocity":72,"Duration":863309,"SoundDuration":863309,"Delta":234579837},{"NoteNumber":77,"Velocity":64,"Duration":107913,"SoundDuration":107913,"Delta":234687751},{"NoteNumber":79,"Velocity":65,"Duration":107913,"SoundDuration":107913,"Delta":234795665},{"NoteNumber":77,"Velocity":62,"Duration":107913,"SoundDuration":107913,"Delta":234903579},{"NoteNumber":67,"Velocity":68,"Duration":431655,"SoundDuration":431655,"Delta":235011492},{"NoteNumber":76,"Velocity":60,"Duration":107913,"SoundDuration":107913,"Delta":235119406},{"NoteNumber":77,"Velocity":62,"Duration":107913,"SoundDuration":107913,"Delta":235227320},{"NoteNumber":76,"Velocity":57,"Duration":107913,"SoundDuration":107913,"Delta":235335234},{"NoteNumber":46,"Velocity":61,"Duration":631579,"SoundDuration":631579,"Delta":235443147},{"NoteNumber":54,"Velocity":72,"Duration":631579,"SoundDuration":631579,"Delta":235443147},{"NoteNumber":49,"Velocity":61,"Duration":631579,"SoundDuration":631579,"Delta":235443147},{"NoteNumber":61,"Velocity":66,"Duration":105263,"SoundDuration":105263,"Delta":235548411},{"NoteNumber":73,"Velocity":73,"Duration":105263,"SoundDuration":105263,"Delta":235653674},{"NoteNumber":61,"Velocity":59,"Duration":105263,"SoundDuration":105263,"Delta":235758937},{"NoteNumber":73,"Velocity":71,"Duration":105263,"SoundDuration":105263,"Delta":235864200},{"NoteNumber":61,"Velocity":58,"Duration":105263,"SoundDuration":105263,"Delta":235969464},{"NoteNumber":73,"Velocity":63,"Duration":107913,"SoundDuration":107913,"Delta":236074727},{"NoteNumber":44,"Velocity":50,"Duration":215827,"SoundDuration":215827,"Delta":236074727},{"NoteNumber":53,"Velocity":59,"Duration":215827,"SoundDuration":215827,"Delta":236074727},{"NoteNumber":48,"Velocity":50,"Duration":215827,"SoundDuration":215827,"Delta":236074727},{"NoteNumber":61,"Velocity":59,"Duration":107913,"SoundDuration":107913,"Delta":236182641},{"NoteNumber":52,"Velocity":61,"Duration":431655,"SoundDuration":431655,"Delta":236290554},{"NoteNumber":46,"Velocity":51,"Duration":431655,"SoundDuration":431655,"Delta":236290554},{"NoteNumber":43,"Velocity":51,"Duration":431655,"SoundDuration":431655,"Delta":236290554},{"NoteNumber":61,"Velocity":60,"Duration":107913,"SoundDuration":107913,"Delta":236398468},{"NoteNumber":73,"Velocity":71,"Duration":107913,"SoundDuration":107913,"Delta":236506382},{"NoteNumber":72,"Velocity":66,"Duration":107913,"SoundDuration":107913,"Delta":236614296},{"NoteNumber":70,"Velocity":68,"Duration":107913,"SoundDuration":107913,"Delta":236722209},{"NoteNumber":48,"Velocity":48,"Duration":431655,"SoundDuration":431655,"Delta":236722209},{"NoteNumber":44,"Velocity":48,"Duration":431655,"SoundDuration":431655,"Delta":236722209},{"NoteNumber":53,"Velocity":57,"Duration":431655,"SoundDuration":431655,"Delta":236722209},{"NoteNumber":68,"Velocity":66,"Duration":107913,"SoundDuration":107913,"Delta":236830123},{"NoteNumber":67,"Velocity":65,"Duration":107913,"SoundDuration":107913,"Delta":236938037},{"NoteNumber":65,"Velocity":58,"Duration":107913,"SoundDuration":107913,"Delta":237045951},{"NoteNumber":54,"Velocity":72,"Duration":631579,"SoundDuration":631579,"Delta":237153864},{"NoteNumber":49,"Velocity":61,"Duration":631579,"SoundDuration":631579,"Delta":237153864},{"NoteNumber":46,"Velocity":61,"Duration":631579,"SoundDuration":631579,"Delta":237153864},{"NoteNumber":73,"Velocity":68,"Duration":105263,"SoundDuration":105263,"Delta":237259128},{"NoteNumber":85,"Velocity":75,"Duration":105263,"SoundDuration":105263,"Delta":237364391},{"NoteNumber":73,"Velocity":67,"Duration":105263,"SoundDuration":105263,"Delta":237469654},{"NoteNumber":85,"Velocity":74,"Duration":105263,"SoundDuration":105263,"Delta":237574917},{"NoteNumber":73,"Velocity":67,"Duration":105263,"SoundDuration":105263,"Delta":237680181},{"NoteNumber":85,"Velocity":69,"Duration":107913,"SoundDuration":107913,"Delta":237785444},{"NoteNumber":48,"Velocity":50,"Duration":215827,"SoundDuration":215827,"Delta":237785444},{"NoteNumber":53,"Velocity":59,"Duration":215827,"SoundDuration":215827,"Delta":237785444},{"NoteNumber":44,"Velocity":50,"Duration":215827,"SoundDuration":215827,"Delta":237785444},{"NoteNumber":73,"Velocity":60,"Duration":107913,"SoundDuration":107913,"Delta":237893358},{"NoteNumber":52,"Velocity":65,"Duration":431655,"SoundDuration":431655,"Delta":238001271},{"NoteNumber":46,"Velocity":54,"Duration":431655,"SoundDuration":431655,"Delta":238001271},{"NoteNumber":43,"Velocity":51,"Duration":431655,"SoundDuration":431655,"Delta":238001271},{"NoteNumber":73,"Velocity":61,"Duration":107913,"SoundDuration":107913,"Delta":238109185},{"NoteNumber":85,"Velocity":73,"Duration":107913,"SoundDuration":107913,"Delta":238217099},{"NoteNumber":84,"Velocity":66,"Duration":107913,"SoundDuration":107913,"Delta":238325013},{"NoteNumber":82,"Velocity":70,"Duration":107913,"SoundDuration":107913,"Delta":238432926},{"NoteNumber":44,"Velocity":48,"Duration":431655,"SoundDuration":431655,"Delta":238432926},{"NoteNumber":53,"Velocity":57,"Duration":431655,"SoundDuration":431655,"Delta":238432926},{"NoteNumber":48,"Velocity":48,"Duration":431655,"SoundDuration":431655,"Delta":238432926},{"NoteNumber":80,"Velocity":68,"Duration":107913,"SoundDuration":107913,"Delta":238540840},{"NoteNumber":79,"Velocity":67,"Duration":107913,"SoundDuration":107913,"Delta":238648754},{"NoteNumber":77,"Velocity":65,"Duration":107913,"SoundDuration":107913,"Delta":238756668},{"NoteNumber":46,"Velocity":61,"Duration":631579,"SoundDuration":631579,"Delta":238864581},{"NoteNumber":54,"Velocity":72,"Duration":631579,"SoundDuration":631579,"Delta":238864581},{"NoteNumber":49,"Velocity":61,"Duration":631579,"SoundDuration":631579,"Delta":238864581},{"NoteNumber":61,"Velocity":66,"Duration":105263,"SoundDuration":105263,"Delta":238969845},{"NoteNumber":73,"Velocity":73,"Duration":105263,"SoundDuration":105263,"Delta":239075108},{"NoteNumber":61,"Velocity":66,"Duration":105263,"SoundDuration":105263,"Delta":239180371},{"NoteNumber":73,"Velocity":73,"Duration":105263,"SoundDuration":105263,"Delta":239285634},{"NoteNumber":61,"Velocity":66,"Duration":105263,"SoundDuration":105263,"Delta":239390898},{"NoteNumber":73,"Velocity":68,"Duration":107913,"SoundDuration":107913,"Delta":239496161},{"NoteNumber":44,"Velocity":50,"Duration":215827,"SoundDuration":215827,"Delta":239496161},{"NoteNumber":48,"Velocity":50,"Duration":215827,"SoundDuration":215827,"Delta":239496161},{"NoteNumber":53,"Velocity":59,"Duration":215827,"SoundDuration":215827,"Delta":239496161},{"NoteNumber":61,"Velocity":61,"Duration":107913,"SoundDuration":107913,"Delta":239604075},{"NoteNumber":52,"Velocity":61,"Duration":431655,"SoundDuration":431655,"Delta":239711988},{"NoteNumber":46,"Velocity":61,"Duration":431655,"SoundDuration":431655,"Delta":239711988},{"NoteNumber":43,"Velocity":51,"Duration":431655,"SoundDuration":431655,"Delta":239711988},{"NoteNumber":73,"Velocity":68,"Duration":107913,"SoundDuration":107913,"Delta":239819902},{"NoteNumber":61,"Velocity":60,"Duration":107913,"SoundDuration":107913,"Delta":239927816},{"NoteNumber":73,"Velocity":68,"Duration":107913,"SoundDuration":107913,"Delta":240035730},{"NoteNumber":41,"Velocity":49,"Duration":424027,"SoundDuration":424027,"Delta":240143643},{"NoteNumber":49,"Velocity":58,"Duration":424027,"SoundDuration":424027,"Delta":240143643},{"NoteNumber":44,"Velocity":49,"Duration":424027,"SoundDuration":424027,"Delta":240143643},{"NoteNumber":85,"Velocity":78,"Duration":106007,"SoundDuration":106007,"Delta":240249650},{"NoteNumber":73,"Velocity":69,"Duration":106006,"SoundDuration":106006,"Delta":240355657},{"NoteNumber":85,"Velocity":75,"Duration":106007,"SoundDuration":106007,"Delta":240461664},{"NoteNumber":40,"Velocity":53,"Duration":430107,"SoundDuration":430107,"Delta":240567671},{"NoteNumber":48,"Velocity":63,"Duration":430107,"SoundDuration":430107,"Delta":240567671},{"NoteNumber":43,"Velocity":53,"Duration":430107,"SoundDuration":430107,"Delta":240567671},{"NoteNumber":84,"Velocity":76,"Duration":107527,"SoundDuration":107527,"Delta":240675198},{"NoteNumber":72,"Velocity":71,"Duration":107527,"SoundDuration":107527,"Delta":240782725},{"NoteNumber":84,"Velocity":75,"Duration":107526,"SoundDuration":107526,"Delta":240890252},{"NoteNumber":47,"Velocity":63,"Duration":430108,"SoundDuration":430108,"Delta":240997779},{"NoteNumber":38,"Velocity":53,"Duration":430108,"SoundDuration":430108,"Delta":240997779},{"NoteNumber":44,"Velocity":53,"Duration":430108,"SoundDuration":430108,"Delta":240997779},{"NoteNumber":41,"Velocity":53,"Duration":430108,"SoundDuration":430108,"Delta":240997779},{"NoteNumber":83,"Velocity":77,"Duration":107527,"SoundDuration":107527,"Delta":241105306},{"NoteNumber":71,"Velocity":71,"Duration":107527,"SoundDuration":107527,"Delta":241212833},{"NoteNumber":83,"Velocity":74,"Duration":107527,"SoundDuration":107527,"Delta":241320360},{"NoteNumber":46,"Velocity":67,"Duration":425532,"SoundDuration":425532,"Delta":241427887},{"NoteNumber":40,"Velocity":56,"Duration":425532,"SoundDuration":425532,"Delta":241427887},{"NoteNumber":43,"Velocity":56,"Duration":425532,"SoundDuration":425532,"Delta":241427887},{"NoteNumber":82,"Velocity":78,"Duration":106382,"SoundDuration":106382,"Delta":241534270},{"NoteNumber":70,"Velocity":69,"Duration":106383,"SoundDuration":106383,"Delta":241640653},{"NoteNumber":82,"Velocity":77,"Duration":106382,"SoundDuration":106382,"Delta":241747036},{"NoteNumber":44,"Velocity":67,"Duration":425532,"SoundDuration":425532,"Delta":241853419},{"NoteNumber":41,"Velocity":67,"Duration":425532,"SoundDuration":425532,"Delta":241853419},{"NoteNumber":80,"Velocity":77,"Duration":106382,"SoundDuration":106382,"Delta":241959802},{"NoteNumber":68,"Velocity":71,"Duration":106383,"SoundDuration":106383,"Delta":242066185},{"NoteNumber":72,"Velocity":71,"Duration":106383,"SoundDuration":106383,"Delta":242066185},{"NoteNumber":80,"Velocity":77,"Duration":106382,"SoundDuration":106382,"Delta":242172568},{"NoteNumber":35,"Velocity":66,"Duration":857142,"SoundDuration":857142,"Delta":242278951},{"NoteNumber":44,"Velocity":66,"Duration":428571,"SoundDuration":428571,"Delta":242278951},{"NoteNumber":80,"Velocity":75,"Duration":107142,"SoundDuration":107142,"Delta":242386094},{"NoteNumber":74,"Velocity":68,"Duration":107142,"SoundDuration":107142,"Delta":242493237},{"NoteNumber":68,"Velocity":68,"Duration":107142,"SoundDuration":107142,"Delta":242493237},{"NoteNumber":80,"Velocity":75,"Duration":107142,"SoundDuration":107142,"Delta":242600380},{"NoteNumber":42,"Velocity":64,"Duration":428571,"SoundDuration":428571,"Delta":242707522},{"NoteNumber":79,"Velocity":73,"Duration":107142,"SoundDuration":107142,"Delta":242814665},{"NoteNumber":74,"Velocity":66,"Duration":107142,"SoundDuration":107142,"Delta":242921808},{"NoteNumber":67,"Velocity":66,"Duration":107142,"SoundDuration":107142,"Delta":242921808},{"NoteNumber":79,"Velocity":73,"Duration":107142,"SoundDuration":107142,"Delta":243028951},{"NoteNumber":36,"Velocity":61,"Duration":857141,"SoundDuration":857141,"Delta":243136093},{"NoteNumber":41,"Velocity":61,"Duration":428571,"SoundDuration":428571,"Delta":243136093},{"NoteNumber":77,"Velocity":71,"Duration":107142,"SoundDuration":107142,"Delta":243243236},{"NoteNumber":68,"Velocity":66,"Duration":107142,"SoundDuration":107142,"Delta":243350379},{"NoteNumber":65,"Velocity":66,"Duration":107142,"SoundDuration":107142,"Delta":243350379},{"NoteNumber":77,"Velocity":71,"Duration":107142,"SoundDuration":107142,"Delta":243457522},{"NoteNumber":40,"Velocity":59,"Duration":428570,"SoundDuration":428570,"Delta":243564664},{"NoteNumber":76,"Velocity":72,"Duration":107142,"SoundDuration":107142,"Delta":243671807},{"NoteNumber":67,"Velocity":66,"Duration":107142,"SoundDuration":107142,"Delta":243778950},{"NoteNumber":64,"Velocity":66,"Duration":107142,"SoundDuration":107142,"Delta":243778950},{"NoteNumber":76,"Velocity":69,"Duration":107142,"SoundDuration":107142,"Delta":243886093},{"NoteNumber":65,"Velocity":65,"Duration":106007,"SoundDuration":106007,"Delta":243993235},{"NoteNumber":68,"Velocity":65,"Duration":106007,"SoundDuration":106007,"Delta":243993235},{"NoteNumber":77,"Velocity":77,"Duration":106007,"SoundDuration":106007,"Delta":243993235},{"NoteNumber":29,"Velocity":59,"Duration":212014,"SoundDuration":212014,"Delta":243993235},{"NoteNumber":32,"Velocity":59,"Duration":212014,"SoundDuration":212014,"Delta":243993235},{"NoteNumber":36,"Velocity":59,"Duration":212014,"SoundDuration":212014,"Delta":243993235},{"NoteNumber":41,"Velocity":70,"Duration":212014,"SoundDuration":212014,"Delta":243993235},{"NoteNumber":60,"Velocity":74,"Duration":106007,"SoundDuration":106007,"Delta":244099242},{"NoteNumber":65,"Velocity":76,"Duration":105633,"SoundDuration":105633,"Delta":244205249},{"NoteNumber":68,"Velocity":78,"Duration":105633,"SoundDuration":105633,"Delta":244310883},{"NoteNumber":72,"Velocity":80,"Duration":105263,"SoundDuration":105263,"Delta":244416517},{"NoteNumber":73,"Velocity":76,"Duration":105263,"SoundDuration":105263,"Delta":244521780},{"NoteNumber":48,"Velocity":59,"Duration":105263,"SoundDuration":105263,"Delta":244521780},{"NoteNumber":72,"Velocity":76,"Duration":104894,"SoundDuration":104894,"Delta":244627043},{"NoteNumber":53,"Velocity":62,"Duration":104894,"SoundDuration":104894,"Delta":244627043},{"NoteNumber":70,"Velocity":76,"Duration":104652,"SoundDuration":104652,"Delta":244731938},{"NoteNumber":56,"Velocity":64,"Duration":104652,"SoundDuration":104652,"Delta":244731938},{"NoteNumber":68,"Velocity":77,"Duration":104166,"SoundDuration":104166,"Delta":244836591},{"NoteNumber":60,"Velocity":70,"Duration":104166,"SoundDuration":104166,"Delta":244836591},{"NoteNumber":70,"Velocity":71,"Duration":104408,"SoundDuration":104408,"Delta":244940757},{"NoteNumber":61,"Velocity":64,"Duration":104408,"SoundDuration":104408,"Delta":244940757},{"NoteNumber":68,"Velocity":72,"Duration":104651,"SoundDuration":104651,"Delta":245045166},{"NoteNumber":60,"Velocity":64,"Duration":104651,"SoundDuration":104651,"Delta":245045166},{"NoteNumber":67,"Velocity":72,"Duration":104894,"SoundDuration":104894,"Delta":245149817},{"NoteNumber":58,"Velocity":64,"Duration":104894,"SoundDuration":104894,"Delta":245149817},{"NoteNumber":65,"Velocity":78,"Duration":105140,"SoundDuration":105140,"Delta":245254712},{"NoteNumber":56,"Velocity":70,"Duration":105140,"SoundDuration":105140,"Delta":245254712},{"NoteNumber":63,"Velocity":73,"Duration":105386,"SoundDuration":105386,"Delta":245359853},{"NoteNumber":55,"Velocity":63,"Duration":105386,"SoundDuration":105386,"Delta":245359853},{"NoteNumber":61,"Velocity":73,"Duration":105633,"SoundDuration":105633,"Delta":245465239},{"NoteNumber":53,"Velocity":63,"Duration":105633,"SoundDuration":105633,"Delta":245465239},{"NoteNumber":60,"Velocity":72,"Duration":105882,"SoundDuration":105882,"Delta":245570873},{"NoteNumber":51,"Velocity":63,"Duration":105882,"SoundDuration":105882,"Delta":245570873},{"NoteNumber":58,"Velocity":75,"Duration":106132,"SoundDuration":106132,"Delta":245676756},{"NoteNumber":49,"Velocity":67,"Duration":106132,"SoundDuration":106132,"Delta":245676756},{"NoteNumber":56,"Velocity":70,"Duration":106382,"SoundDuration":106382,"Delta":245782888},{"NoteNumber":48,"Velocity":60,"Duration":106382,"SoundDuration":106382,"Delta":245782888},{"NoteNumber":54,"Velocity":70,"Duration":106635,"SoundDuration":106635,"Delta":245889271},{"NoteNumber":46,"Velocity":60,"Duration":106635,"SoundDuration":106635,"Delta":245889271},{"NoteNumber":53,"Velocity":70,"Duration":106888,"SoundDuration":106888,"Delta":245995906},{"NoteNumber":44,"Velocity":60,"Duration":106888,"SoundDuration":106888,"Delta":245995906},{"NoteNumber":52,"Velocity":73,"Duration":219779,"SoundDuration":219779,"Delta":246102795},{"NoteNumber":43,"Velocity":71,"Duration":109890,"SoundDuration":109890,"Delta":246102795},{"NoteNumber":44,"Velocity":65,"Duration":109889,"SoundDuration":109889,"Delta":246212685},{"NoteNumber":48,"Velocity":69,"Duration":164835,"SoundDuration":164835,"Delta":246322575},{"NoteNumber":52,"Velocity":69,"Duration":164835,"SoundDuration":164835,"Delta":246322575},{"NoteNumber":54,"Velocity":69,"Duration":164835,"SoundDuration":164835,"Delta":246322575},{"NoteNumber":60,"Velocity":82,"Duration":164835,"SoundDuration":164835,"Delta":246322575},{"NoteNumber":46,"Velocity":73,"Duration":109890,"SoundDuration":109890,"Delta":246322575},{"NoteNumber":44,"Velocity":69,"Duration":109890,"SoundDuration":109890,"Delta":246432465},{"NoteNumber":48,"Velocity":61,"Duration":164835,"SoundDuration":164835,"Delta":246542355},{"NoteNumber":52,"Velocity":61,"Duration":164835,"SoundDuration":164835,"Delta":246542355},{"NoteNumber":58,"Velocity":73,"Duration":164835,"SoundDuration":164835,"Delta":246542355},{"NoteNumber":60,"Velocity":73,"Duration":164835,"SoundDuration":164835,"Delta":246542355},{"NoteNumber":43,"Velocity":73,"Duration":109890,"SoundDuration":109890,"Delta":246542355},{"NoteNumber":41,"Velocity":73,"Duration":109889,"SoundDuration":109889,"Delta":246652245},{"NoteNumber":48,"Velocity":60,"Duration":164835,"SoundDuration":164835,"Delta":246762135},{"NoteNumber":52,"Velocity":60,"Duration":164835,"SoundDuration":164835,"Delta":246762135},{"NoteNumber":58,"Velocity":71,"Duration":164835,"SoundDuration":164835,"Delta":246762135},{"NoteNumber":60,"Velocity":71,"Duration":164835,"SoundDuration":164835,"Delta":246762135},{"NoteNumber":40,"Velocity":72,"Duration":109890,"SoundDuration":109890,"Delta":246762135},{"NoteNumber":38,"Velocity":72,"Duration":109890,"SoundDuration":109890,"Delta":246872025},{"NoteNumber":48,"Velocity":61,"Duration":164835,"SoundDuration":164835,"Delta":246981915},{"NoteNumber":52,"Velocity":61,"Duration":164835,"SoundDuration":164835,"Delta":246981915},{"NoteNumber":58,"Velocity":72,"Duration":164835,"SoundDuration":164835,"Delta":246981915},{"NoteNumber":60,"Velocity":72,"Duration":164835,"SoundDuration":164835,"Delta":246981915},{"NoteNumber":36,"Velocity":71,"Duration":109890,"SoundDuration":109890,"Delta":246981915},{"NoteNumber":34,"Velocity":71,"Duration":109889,"SoundDuration":109889,"Delta":247091805},{"NoteNumber":48,"Velocity":61,"Duration":164835,"SoundDuration":164835,"Delta":247201695},{"NoteNumber":52,"Velocity":61,"Duration":164835,"SoundDuration":164835,"Delta":247201695},{"NoteNumber":58,"Velocity":72,"Duration":164835,"SoundDuration":164835,"Delta":247201695},{"NoteNumber":60,"Velocity":72,"Duration":164835,"SoundDuration":164835,"Delta":247201695},{"NoteNumber":32,"Velocity":70,"Duration":109890,"SoundDuration":109890,"Delta":247201695},{"NoteNumber":31,"Velocity":70,"Duration":109890,"SoundDuration":109890,"Delta":247311585},{"NoteNumber":48,"Velocity":77,"Duration":106007,"SoundDuration":106007,"Delta":247421475},{"NoteNumber":53,"Velocity":77,"Duration":106007,"SoundDuration":106007,"Delta":247421475},{"NoteNumber":56,"Velocity":77,"Duration":106007,"SoundDuration":106007,"Delta":247421475},{"NoteNumber":60,"Velocity":77,"Duration":106007,"SoundDuration":106007,"Delta":247421475},{"NoteNumber":29,"Velocity":70,"Duration":212014,"SoundDuration":212014,"Delta":247421475},{"NoteNumber":36,"Velocity":70,"Duration":212014,"SoundDuration":212014,"Delta":247421475},{"NoteNumber":41,"Velocity":70,"Duration":212014,"SoundDuration":212014,"Delta":247421475},{"NoteNumber":32,"Velocity":70,"Duration":212014,"SoundDuration":212014,"Delta":247421475},{"NoteNumber":72,"Velocity":74,"Duration":106007,"SoundDuration":106007,"Delta":247527482},{"NoteNumber":77,"Velocity":76,"Duration":105633,"SoundDuration":105633,"Delta":247633489},{"NoteNumber":80,"Velocity":78,"Duration":105633,"SoundDuration":105633,"Delta":247739123},{"NoteNumber":84,"Velocity":80,"Duration":105263,"SoundDuration":105263,"Delta":247844757},{"NoteNumber":85,"Velocity":76,"Duration":105263,"SoundDuration":105263,"Delta":247950020},{"NoteNumber":60,"Velocity":59,"Duration":105263,"SoundDuration":105263,"Delta":247950020},{"NoteNumber":84,"Velocity":76,"Duration":104894,"SoundDuration":104894,"Delta":248055283},{"NoteNumber":65,"Velocity":62,"Duration":104894,"SoundDuration":104894,"Delta":248055283},{"NoteNumber":82,"Velocity":76,"Duration":104652,"SoundDuration":104652,"Delta":248160178},{"NoteNumber":68,"Velocity":64,"Duration":104652,"SoundDuration":104652,"Delta":248160178},{"NoteNumber":80,"Velocity":77,"Duration":104166,"SoundDuration":104166,"Delta":248264830},{"NoteNumber":72,"Velocity":70,"Duration":104166,"SoundDuration":104166,"Delta":248264830},{"NoteNumber":82,"Velocity":71,"Duration":104408,"SoundDuration":104408,"Delta":248368997},{"NoteNumber":73,"Velocity":64,"Duration":104408,"SoundDuration":104408,"Delta":248368997},{"NoteNumber":80,"Velocity":72,"Duration":104651,"SoundDuration":104651,"Delta":248473406},{"NoteNumber":72,"Velocity":64,"Duration":104651,"SoundDuration":104651,"Delta":248473406},{"NoteNumber":79,"Velocity":72,"Duration":104894,"SoundDuration":104894,"Delta":248578057},{"NoteNumber":70,"Velocity":64,"Duration":104894,"SoundDuration":104894,"Delta":248578057},{"NoteNumber":77,"Velocity":78,"Duration":105140,"SoundDuration":105140,"Delta":248682952},{"NoteNumber":68,"Velocity":70,"Duration":105140,"SoundDuration":105140,"Delta":248682952},{"NoteNumber":75,"Velocity":73,"Duration":105386,"SoundDuration":105386,"Delta":248788092},{"NoteNumber":67,"Velocity":63,"Duration":105386,"SoundDuration":105386,"Delta":248788092},{"NoteNumber":73,"Velocity":73,"Duration":105633,"SoundDuration":105633,"Delta":248893479},{"NoteNumber":65,"Velocity":63,"Duration":105633,"SoundDuration":105633,"Delta":248893479},{"NoteNumber":72,"Velocity":72,"Duration":105882,"SoundDuration":105882,"Delta":248999113},{"NoteNumber":63,"Velocity":63,"Duration":105882,"SoundDuration":105882,"Delta":248999113},{"NoteNumber":70,"Velocity":75,"Duration":106132,"SoundDuration":106132,"Delta":249104996},{"NoteNumber":61,"Velocity":67,"Duration":106132,"SoundDuration":106132,"Delta":249104996},{"NoteNumber":68,"Velocity":70,"Duration":106382,"SoundDuration":106382,"Delta":249211128},{"NoteNumber":60,"Velocity":60,"Duration":106382,"SoundDuration":106382,"Delta":249211128},{"NoteNumber":67,"Velocity":70,"Duration":106635,"SoundDuration":106635,"Delta":249317511},{"NoteNumber":58,"Velocity":60,"Duration":106635,"SoundDuration":106635,"Delta":249317511},{"NoteNumber":65,"Velocity":70,"Duration":106888,"SoundDuration":106888,"Delta":249424146},{"NoteNumber":56,"Velocity":60,"Duration":106888,"SoundDuration":106888,"Delta":249424146},{"NoteNumber":64,"Velocity":73,"Duration":219779,"SoundDuration":219779,"Delta":249531035},{"NoteNumber":55,"Velocity":71,"Duration":109890,"SoundDuration":109890,"Delta":249531035},{"NoteNumber":56,"Velocity":65,"Duration":109889,"SoundDuration":109889,"Delta":249640925},{"NoteNumber":60,"Velocity":58,"Duration":164835,"SoundDuration":164835,"Delta":249750815},{"NoteNumber":64,"Velocity":69,"Duration":164835,"SoundDuration":164835,"Delta":249750815},{"NoteNumber":67,"Velocity":69,"Duration":164835,"SoundDuration":164835,"Delta":249750815},{"NoteNumber":72,"Velocity":82,"Duration":164835,"SoundDuration":164835,"Delta":249750815},{"NoteNumber":58,"Velocity":73,"Duration":109890,"SoundDuration":109890,"Delta":249750815},{"NoteNumber":56,"Velocity":69,"Duration":109890,"SoundDuration":109890,"Delta":249860705},{"NoteNumber":60,"Velocity":51,"Duration":164835,"SoundDuration":164835,"Delta":249970595},{"NoteNumber":64,"Velocity":61,"Duration":164835,"SoundDuration":164835,"Delta":249970595},{"NoteNumber":70,"Velocity":73,"Duration":164835,"SoundDuration":164835,"Delta":249970595},{"NoteNumber":72,"Velocity":73,"Duration":164835,"SoundDuration":164835,"Delta":249970595},{"NoteNumber":55,"Velocity":73,"Duration":109890,"SoundDuration":109890,"Delta":249970595},{"NoteNumber":53,"Velocity":73,"Duration":109889,"SoundDuration":109889,"Delta":250080485},{"NoteNumber":60,"Velocity":50,"Duration":164835,"SoundDuration":164835,"Delta":250190375},{"NoteNumber":64,"Velocity":59,"Duration":164835,"SoundDuration":164835,"Delta":250190375},{"NoteNumber":70,"Velocity":70,"Duration":164835,"SoundDuration":164835,"Delta":250190375},{"NoteNumber":72,"Velocity":70,"Duration":164835,"SoundDuration":164835,"Delta":250190375},{"NoteNumber":52,"Velocity":72,"Duration":109890,"SoundDuration":109890,"Delta":250190375},{"NoteNumber":50,"Velocity":72,"Duration":109890,"SoundDuration":109890,"Delta":250300265},{"NoteNumber":60,"Velocity":51,"Duration":164835,"SoundDuration":164835,"Delta":250410155},{"NoteNumber":64,"Velocity":61,"Duration":164835,"SoundDuration":164835,"Delta":250410155},{"NoteNumber":70,"Velocity":73,"Duration":164835,"SoundDuration":164835,"Delta":250410155},{"NoteNumber":72,"Velocity":73,"Duration":164835,"SoundDuration":164835,"Delta":250410155},{"NoteNumber":48,"Velocity":71,"Duration":109890,"SoundDuration":109890,"Delta":250410155},{"NoteNumber":46,"Velocity":71,"Duration":109889,"SoundDuration":109889,"Delta":250520045},{"NoteNumber":60,"Velocity":51,"Duration":164835,"SoundDuration":164835,"Delta":250629935},{"NoteNumber":64,"Velocity":60,"Duration":164835,"SoundDuration":164835,"Delta":250629935},{"NoteNumber":70,"Velocity":71,"Duration":164835,"SoundDuration":164835,"Delta":250629935},{"NoteNumber":72,"Velocity":71,"Duration":164835,"SoundDuration":164835,"Delta":250629935},{"NoteNumber":44,"Velocity":70,"Duration":109890,"SoundDuration":109890,"Delta":250629935},{"NoteNumber":43,"Velocity":70,"Duration":109890,"SoundDuration":109890,"Delta":250739825},{"NoteNumber":60,"Velocity":51,"Duration":241843,"SoundDuration":241843,"Delta":250849715},{"NoteNumber":65,"Velocity":61,"Duration":241843,"SoundDuration":241843,"Delta":250849715},{"NoteNumber":68,"Velocity":73,"Duration":241843,"SoundDuration":241843,"Delta":250849715},{"NoteNumber":72,"Velocity":73,"Duration":241843,"SoundDuration":241843,"Delta":250849715},{"NoteNumber":41,"Velocity":67,"Duration":135460,"SoundDuration":135460,"Delta":250849715},{"NoteNumber":43,"Velocity":60,"Duration":106382,"SoundDuration":106382,"Delta":250985176},{"NoteNumber":44,"Velocity":60,"Duration":106635,"SoundDuration":106635,"Delta":251091559},{"NoteNumber":46,"Velocity":60,"Duration":106888,"SoundDuration":106888,"Delta":251198194},{"NoteNumber":48,"Velocity":71,"Duration":109890,"SoundDuration":109890,"Delta":251305083},{"NoteNumber":50,"Velocity":65,"Duration":109889,"SoundDuration":109889,"Delta":251414973},{"NoteNumber":72,"Velocity":63,"Duration":164835,"SoundDuration":164835,"Delta":251524863},{"NoteNumber":77,"Velocity":75,"Duration":164835,"SoundDuration":164835,"Delta":251524863},{"NoteNumber":80,"Velocity":75,"Duration":164835,"SoundDuration":164835,"Delta":251524863},{"NoteNumber":84,"Velocity":90,"Duration":164835,"SoundDuration":164835,"Delta":251524863},{"NoteNumber":52,"Velocity":73,"Duration":109890,"SoundDuration":109890,"Delta":251524863},{"NoteNumber":53,"Velocity":69,"Duration":109890,"SoundDuration":109890,"Delta":251634753},{"NoteNumber":72,"Velocity":56,"Duration":164835,"SoundDuration":164835,"Delta":251744643},{"NoteNumber":76,"Velocity":67,"Duration":164835,"SoundDuration":164835,"Delta":251744643},{"NoteNumber":82,"Velocity":80,"Duration":164835,"SoundDuration":164835,"Delta":251744643},{"NoteNumber":84,"Velocity":80,"Duration":164835,"SoundDuration":164835,"Delta":251744643},{"NoteNumber":55,"Velocity":73,"Duration":109890,"SoundDuration":109890,"Delta":251744643},{"NoteNumber":53,"Velocity":73,"Duration":109889,"SoundDuration":109889,"Delta":251854533},{"NoteNumber":72,"Velocity":55,"Duration":164835,"SoundDuration":164835,"Delta":251964423},{"NoteNumber":76,"Velocity":64,"Duration":164835,"SoundDuration":164835,"Delta":251964423},{"NoteNumber":82,"Velocity":77,"Duration":164835,"SoundDuration":164835,"Delta":251964423},{"NoteNumber":84,"Velocity":77,"Duration":164835,"SoundDuration":164835,"Delta":251964423},{"NoteNumber":52,"Velocity":72,"Duration":109890,"SoundDuration":109890,"Delta":251964423},{"NoteNumber":50,"Velocity":72,"Duration":109890,"SoundDuration":109890,"Delta":252074313},{"NoteNumber":72,"Velocity":56,"Duration":164835,"SoundDuration":164835,"Delta":252184203},{"NoteNumber":76,"Velocity":67,"Duration":164835,"SoundDuration":164835,"Delta":252184203},{"NoteNumber":82,"Velocity":80,"Duration":164835,"SoundDuration":164835,"Delta":252184203},{"NoteNumber":84,"Velocity":80,"Duration":164835,"SoundDuration":164835,"Delta":252184203},{"NoteNumber":48,"Velocity":71,"Duration":109890,"SoundDuration":109890,"Delta":252184203},{"NoteNumber":46,"Velocity":71,"Duration":109889,"SoundDuration":109889,"Delta":252294093},{"NoteNumber":72,"Velocity":56,"Duration":164835,"SoundDuration":164835,"Delta":252403983},{"NoteNumber":76,"Velocity":66,"Duration":164835,"SoundDuration":164835,"Delta":252403983},{"NoteNumber":82,"Velocity":78,"Duration":164835,"SoundDuration":164835,"Delta":252403983},{"NoteNumber":84,"Velocity":78,"Duration":164835,"SoundDuration":164835,"Delta":252403983},{"NoteNumber":44,"Velocity":70,"Duration":109890,"SoundDuration":109890,"Delta":252403983},{"NoteNumber":43,"Velocity":70,"Duration":109890,"SoundDuration":109890,"Delta":252513873},{"NoteNumber":72,"Velocity":56,"Duration":188652,"SoundDuration":188652,"Delta":252623763},{"NoteNumber":77,"Velocity":67,"Duration":188652,"SoundDuration":188652,"Delta":252623763},{"NoteNumber":80,"Velocity":80,"Duration":188652,"SoundDuration":188652,"Delta":252623763},{"NoteNumber":84,"Velocity":80,"Duration":188652,"SoundDuration":188652,"Delta":252623763},{"NoteNumber":41,"Velocity":67,"Duration":135460,"SoundDuration":135460,"Delta":252623763},{"NoteNumber":43,"Velocity":60,"Duration":106382,"SoundDuration":106382,"Delta":252759224},{"NoteNumber":44,"Velocity":60,"Duration":106635,"SoundDuration":106635,"Delta":252865607},{"NoteNumber":46,"Velocity":60,"Duration":106888,"SoundDuration":106888,"Delta":252972242},{"NoteNumber":48,"Velocity":71,"Duration":109890,"SoundDuration":109890,"Delta":253079131},{"NoteNumber":50,"Velocity":65,"Duration":109889,"SoundDuration":109889,"Delta":253189021},{"NoteNumber":60,"Velocity":58,"Duration":164835,"SoundDuration":164835,"Delta":253298911},{"NoteNumber":65,"Velocity":69,"Duration":164835,"SoundDuration":164835,"Delta":253298911},{"NoteNumber":68,"Velocity":69,"Duration":164835,"SoundDuration":164835,"Delta":253298911},{"NoteNumber":72,"Velocity":82,"Duration":164835,"SoundDuration":164835,"Delta":253298911},{"NoteNumber":52,"Velocity":73,"Duration":109890,"SoundDuration":109890,"Delta":253298911},{"NoteNumber":53,"Velocity":69,"Duration":109890,"SoundDuration":109890,"Delta":253408801},{"NoteNumber":60,"Velocity":51,"Duration":164835,"SoundDuration":164835,"Delta":253518691},{"NoteNumber":64,"Velocity":61,"Duration":164835,"SoundDuration":164835,"Delta":253518691},{"NoteNumber":70,"Velocity":73,"Duration":164835,"SoundDuration":164835,"Delta":253518691},{"NoteNumber":72,"Velocity":73,"Duration":164835,"SoundDuration":164835,"Delta":253518691},{"NoteNumber":55,"Velocity":73,"Duration":109890,"SoundDuration":109890,"Delta":253518691},{"NoteNumber":53,"Velocity":73,"Duration":109889,"SoundDuration":109889,"Delta":253628581},{"NoteNumber":60,"Velocity":50,"Duration":164835,"SoundDuration":164835,"Delta":253738471},{"NoteNumber":64,"Velocity":59,"Duration":164835,"SoundDuration":164835,"Delta":253738471},{"NoteNumber":70,"Velocity":70,"Duration":164835,"SoundDuration":164835,"Delta":253738471},{"NoteNumber":72,"Velocity":70,"Duration":164835,"SoundDuration":164835,"Delta":253738471},{"NoteNumber":52,"Velocity":72,"Duration":109890,"SoundDuration":109890,"Delta":253738471},{"NoteNumber":50,"Velocity":72,"Duration":109890,"SoundDuration":109890,"Delta":253848361},{"NoteNumber":60,"Velocity":51,"Duration":164835,"SoundDuration":164835,"Delta":253958251},{"NoteNumber":64,"Velocity":61,"Duration":164835,"SoundDuration":164835,"Delta":253958251},{"NoteNumber":70,"Velocity":73,"Duration":164835,"SoundDuration":164835,"Delta":253958251},{"NoteNumber":72,"Velocity":73,"Duration":164835,"SoundDuration":164835,"Delta":253958251},{"NoteNumber":48,"Velocity":71,"Duration":109890,"SoundDuration":109890,"Delta":253958251},{"NoteNumber":46,"Velocity":71,"Duration":109889,"SoundDuration":109889,"Delta":254068141},{"NoteNumber":60,"Velocity":51,"Duration":164835,"SoundDuration":164835,"Delta":254178031},{"NoteNumber":64,"Velocity":60,"Duration":164835,"SoundDuration":164835,"Delta":254178031},{"NoteNumber":70,"Velocity":71,"Duration":164835,"SoundDuration":164835,"Delta":254178031},{"NoteNumber":72,"Velocity":71,"Duration":164835,"SoundDuration":164835,"Delta":254178031},{"NoteNumber":44,"Velocity":70,"Duration":109890,"SoundDuration":109890,"Delta":254178031},{"NoteNumber":43,"Velocity":70,"Duration":109890,"SoundDuration":109890,"Delta":254287921},{"NoteNumber":60,"Velocity":56,"Duration":188652,"SoundDuration":188652,"Delta":254397811},{"NoteNumber":65,"Velocity":67,"Duration":188652,"SoundDuration":188652,"Delta":254397811},{"NoteNumber":68,"Velocity":67,"Duration":188652,"SoundDuration":188652,"Delta":254397811},{"NoteNumber":72,"Velocity":80,"Duration":188652,"SoundDuration":188652,"Delta":254397811},{"NoteNumber":41,"Velocity":67,"Duration":135460,"SoundDuration":135460,"Delta":254397811},{"NoteNumber":40,"Velocity":60,"Duration":106382,"SoundDuration":106382,"Delta":254533272},{"NoteNumber":72,"Velocity":70,"Duration":160016,"SoundDuration":160016,"Delta":254639655},{"NoteNumber":77,"Velocity":70,"Duration":160016,"SoundDuration":160016,"Delta":254639655},{"NoteNumber":80,"Velocity":70,"Duration":160016,"SoundDuration":160016,"Delta":254639655},{"NoteNumber":84,"Velocity":84,"Duration":160016,"SoundDuration":160016,"Delta":254639655},{"NoteNumber":38,"Velocity":60,"Duration":106635,"SoundDuration":106635,"Delta":254639655},{"NoteNumber":36,"Velocity":60,"Duration":106888,"SoundDuration":106888,"Delta":254746290},{"NoteNumber":72,"Velocity":74,"Duration":164835,"SoundDuration":164835,"Delta":254853179},{"NoteNumber":77,"Velocity":74,"Duration":164835,"SoundDuration":164835,"Delta":254853179},{"NoteNumber":80,"Velocity":74,"Duration":164835,"SoundDuration":164835,"Delta":254853179},{"NoteNumber":84,"Velocity":90,"Duration":164835,"SoundDuration":164835,"Delta":254853179},{"NoteNumber":34,"Velocity":64,"Duration":109890,"SoundDuration":109890,"Delta":254853179},{"NoteNumber":32,"Velocity":59,"Duration":109889,"SoundDuration":109889,"Delta":254963069},{"NoteNumber":72,"Velocity":73,"Duration":164835,"SoundDuration":164835,"Delta":255072959},{"NoteNumber":77,"Velocity":73,"Duration":164835,"SoundDuration":164835,"Delta":255072959},{"NoteNumber":80,"Velocity":73,"Duration":164835,"SoundDuration":164835,"Delta":255072959},{"NoteNumber":84,"Velocity":88,"Duration":164835,"SoundDuration":164835,"Delta":255072959},{"NoteNumber":31,"Velocity":65,"Duration":109890,"SoundDuration":109890,"Delta":255072959},{"NoteNumber":29,"Velocity":58,"Duration":109890,"SoundDuration":109890,"Delta":255182849},{"NoteNumber":72,"Velocity":64,"Duration":164835,"SoundDuration":164835,"Delta":255292739},{"NoteNumber":76,"Velocity":78,"Duration":164835,"SoundDuration":164835,"Delta":255292739},{"NoteNumber":82,"Velocity":78,"Duration":164835,"SoundDuration":164835,"Delta":255292739},{"NoteNumber":84,"Velocity":93,"Duration":164835,"SoundDuration":164835,"Delta":255292739},{"NoteNumber":31,"Velocity":68,"Duration":109890,"SoundDuration":109890,"Delta":255292739},{"NoteNumber":32,"Velocity":69,"Duration":109889,"SoundDuration":109889,"Delta":255402629},{"NoteNumber":72,"Velocity":64,"Duration":164835,"SoundDuration":164835,"Delta":255512519},{"NoteNumber":76,"Velocity":75,"Duration":164835,"SoundDuration":164835,"Delta":255512519},{"NoteNumber":82,"Velocity":75,"Duration":164835,"SoundDuration":164835,"Delta":255512519},{"NoteNumber":84,"Velocity":91,"Duration":164835,"SoundDuration":164835,"Delta":255512519},{"NoteNumber":34,"Velocity":71,"Duration":109890,"SoundDuration":109890,"Delta":255512519},{"NoteNumber":36,"Velocity":72,"Duration":109890,"SoundDuration":109890,"Delta":255622409},{"NoteNumber":72,"Velocity":68,"Duration":164835,"SoundDuration":164835,"Delta":255732299},{"NoteNumber":76,"Velocity":81,"Duration":164835,"SoundDuration":164835,"Delta":255732299},{"NoteNumber":82,"Velocity":81,"Duration":164835,"SoundDuration":164835,"Delta":255732299},{"NoteNumber":84,"Velocity":97,"Duration":164835,"SoundDuration":164835,"Delta":255732299},{"NoteNumber":38,"Velocity":74,"Duration":109890,"SoundDuration":109890,"Delta":255732299},{"NoteNumber":40,"Velocity":75,"Duration":109889,"SoundDuration":109889,"Delta":255842189},{"NoteNumber":72,"Velocity":69,"Duration":164835,"SoundDuration":164835,"Delta":255952079},{"NoteNumber":76,"Velocity":82,"Duration":164835,"SoundDuration":164835,"Delta":255952079},{"NoteNumber":82,"Velocity":82,"Duration":164835,"SoundDuration":164835,"Delta":255952079},{"NoteNumber":84,"Velocity":96,"Duration":164835,"SoundDuration":164835,"Delta":255952079},{"NoteNumber":41,"Velocity":77,"Duration":109890,"SoundDuration":109890,"Delta":255952079},{"NoteNumber":43,"Velocity":78,"Duration":109889,"SoundDuration":109889,"Delta":256061969},{"NoteNumber":72,"Velocity":72,"Duration":117646,"SoundDuration":117646,"Delta":256171859},{"NoteNumber":75,"Velocity":85,"Duration":117646,"SoundDuration":117646,"Delta":256171859},{"NoteNumber":81,"Velocity":102,"Duration":117646,"SoundDuration":117646,"Delta":256171859},{"NoteNumber":84,"Velocity":102,"Duration":117646,"SoundDuration":117646,"Delta":256171859},{"NoteNumber":30,"Velocity":76,"Duration":117646,"SoundDuration":117646,"Delta":256171859},{"NoteNumber":42,"Velocity":78,"Duration":117646,"SoundDuration":117646,"Delta":256171859},{"NoteNumber":57,"Velocity":70,"Duration":110900,"SoundDuration":110900,"Delta":256289506},{"NoteNumber":60,"Velocity":71,"Duration":107527,"SoundDuration":107527,"Delta":256400406},{"NoteNumber":63,"Velocity":72,"Duration":107398,"SoundDuration":107398,"Delta":256507933},{"NoteNumber":66,"Velocity":72,"Duration":107142,"SoundDuration":107142,"Delta":256615332},{"NoteNumber":69,"Velocity":72,"Duration":107015,"SoundDuration":107015,"Delta":256722475},{"NoteNumber":72,"Velocity":73,"Duration":106761,"SoundDuration":106761,"Delta":256829490},{"NoteNumber":75,"Velocity":74,"Duration":106635,"SoundDuration":106635,"Delta":256936252},{"NoteNumber":78,"Velocity":75,"Duration":106382,"SoundDuration":106382,"Delta":257042887},{"NoteNumber":81,"Velocity":77,"Duration":106257,"SoundDuration":106257,"Delta":257149270},{"NoteNumber":84,"Velocity":79,"Duration":106007,"SoundDuration":106007,"Delta":257255528},{"NoteNumber":87,"Velocity":81,"Duration":105882,"SoundDuration":105882,"Delta":257361535},{"NoteNumber":90,"Velocity":83,"Duration":105633,"SoundDuration":105633,"Delta":257467417},{"NoteNumber":87,"Velocity":83,"Duration":105510,"SoundDuration":105510,"Delta":257573051},{"NoteNumber":84,"Velocity":82,"Duration":105263,"SoundDuration":105263,"Delta":257678561},{"NoteNumber":81,"Velocity":81,"Duration":105140,"SoundDuration":105140,"Delta":257783825},{"NoteNumber":78,"Velocity":81,"Duration":105263,"SoundDuration":105263,"Delta":257888965},{"NoteNumber":75,"Velocity":80,"Duration":105263,"SoundDuration":105263,"Delta":257994228},{"NoteNumber":72,"Velocity":79,"Duration":105633,"SoundDuration":105633,"Delta":258099492},{"NoteNumber":69,"Velocity":78,"Duration":105633,"SoundDuration":105633,"Delta":258205125},{"NoteNumber":66,"Velocity":77,"Duration":106006,"SoundDuration":106006,"Delta":258310759},{"NoteNumber":63,"Velocity":76,"Duration":106007,"SoundDuration":106007,"Delta":258416766},{"NoteNumber":60,"Velocity":75,"Duration":106382,"SoundDuration":106382,"Delta":258522773},{"NoteNumber":57,"Velocity":69,"Duration":106382,"SoundDuration":106382,"Delta":258629156},{"NoteNumber":54,"Velocity":68,"Duration":106761,"SoundDuration":106761,"Delta":258735539},{"NoteNumber":51,"Velocity":68,"Duration":106761,"SoundDuration":106761,"Delta":258842301},{"NoteNumber":48,"Velocity":67,"Duration":107142,"SoundDuration":107142,"Delta":258949062},{"NoteNumber":45,"Velocity":66,"Duration":107142,"SoundDuration":107142,"Delta":259056205},{"NoteNumber":42,"Velocity":66,"Duration":107527,"SoundDuration":107527,"Delta":259163348},{"NoteNumber":39,"Velocity":65,"Duration":107527,"SoundDuration":107527,"Delta":259270875},{"NoteNumber":36,"Velocity":64,"Duration":107913,"SoundDuration":107913,"Delta":259378402},{"NoteNumber":33,"Velocity":63,"Duration":107913,"SoundDuration":107913,"Delta":259486315},{"NoteNumber":30,"Velocity":60,"Duration":108828,"SoundDuration":108828,"Delta":259594229},{"NoteNumber":39,"Velocity":59,"Duration":109091,"SoundDuration":109091,"Delta":259703057},{"NoteNumber":36,"Velocity":58,"Duration":109090,"SoundDuration":109090,"Delta":259812148},{"NoteNumber":33,"Velocity":57,"Duration":109356,"SoundDuration":109356,"Delta":259921239},{"NoteNumber":30,"Velocity":56,"Duration":109488,"SoundDuration":109488,"Delta":260030596},{"NoteNumber":39,"Velocity":54,"Duration":109488,"SoundDuration":109488,"Delta":260140085},{"NoteNumber":36,"Velocity":53,"Duration":109756,"SoundDuration":109756,"Delta":260249574},{"NoteNumber":33,"Velocity":52,"Duration":109890,"SoundDuration":109890,"Delta":260359330},{"NoteNumber":30,"Velocity":51,"Duration":109890,"SoundDuration":109890,"Delta":260469220},{"NoteNumber":39,"Velocity":47,"Duration":110159,"SoundDuration":110159,"Delta":260579110},{"NoteNumber":36,"Velocity":47,"Duration":110294,"SoundDuration":110294,"Delta":260689269},{"NoteNumber":33,"Velocity":43,"Duration":110294,"SoundDuration":110294,"Delta":260799563},{"NoteNumber":30,"Velocity":47,"Duration":110565,"SoundDuration":110565,"Delta":260909857},{"NoteNumber":39,"Velocity":41,"Duration":110701,"SoundDuration":110701,"Delta":261020423},{"NoteNumber":36,"Velocity":39,"Duration":110700,"SoundDuration":110700,"Delta":261131124},{"NoteNumber":33,"Velocity":38,"Duration":111110,"SoundDuration":111110,"Delta":261241825},{"NoteNumber":29,"Velocity":39,"Duration":415588,"SoundDuration":415588,"Delta":261352936},{"NoteNumber":57,"Velocity":40,"Duration":104094,"SoundDuration":104094,"Delta":261457175},{"NoteNumber":60,"Velocity":37,"Duration":103806,"SoundDuration":103806,"Delta":261561270},{"NoteNumber":63,"Velocity":37,"Duration":103448,"SoundDuration":103448,"Delta":261665076},{"NoteNumber":66,"Velocity":40,"Duration":103092,"SoundDuration":103092,"Delta":261768524},{"NoteNumber":68,"Velocity":38,"Duration":103092,"SoundDuration":103092,"Delta":261871617},{"NoteNumber":66,"Velocity":38,"Duration":103211,"SoundDuration":103211,"Delta":261974710},{"NoteNumber":65,"Velocity":38,"Duration":103448,"SoundDuration":103448,"Delta":262077921},{"NoteNumber":63,"Velocity":40,"Duration":103448,"SoundDuration":103448,"Delta":262181369},{"NoteNumber":65,"Velocity":37,"Duration":103686,"SoundDuration":103686,"Delta":262284817},{"NoteNumber":63,"Velocity":37,"Duration":103806,"SoundDuration":103806,"Delta":262388504},{"NoteNumber":61,"Velocity":37,"Duration":103806,"SoundDuration":103806,"Delta":262492310},{"NoteNumber":60,"Velocity":40,"Duration":104166,"SoundDuration":104166,"Delta":262596117},{"NoteNumber":61,"Velocity":37,"Duration":104166,"SoundDuration":104166,"Delta":262700283},{"NoteNumber":63,"Velocity":37,"Duration":104287,"SoundDuration":104287,"Delta":262804450},{"NoteNumber":60,"Velocity":37,"Duration":108498,"SoundDuration":108498,"Delta":262908738},{"NoteNumber":41,"Velocity":35,"Duration":108498,"SoundDuration":108498,"Delta":262908738},{"NoteNumber":29,"Velocity":40,"Duration":414968,"SoundDuration":414968,"Delta":263017237},{"NoteNumber":57,"Velocity":40,"Duration":103950,"SoundDuration":103950,"Delta":263121476},{"NoteNumber":60,"Velocity":37,"Duration":103567,"SoundDuration":103567,"Delta":263225426},{"NoteNumber":63,"Velocity":37,"Duration":103211,"SoundDuration":103211,"Delta":263328994},{"NoteNumber":66,"Velocity":40,"Duration":102739,"SoundDuration":102739,"Delta":263432205},{"NoteNumber":68,"Velocity":38,"Duration":102739,"SoundDuration":102739,"Delta":263534945},{"NoteNumber":66,"Velocity":38,"Duration":102739,"SoundDuration":102739,"Delta":263637685},{"NoteNumber":65,"Velocity":38,"Duration":102857,"SoundDuration":102857,"Delta":263740424},{"NoteNumber":63,"Velocity":40,"Duration":103092,"SoundDuration":103092,"Delta":263843282},{"NoteNumber":65,"Velocity":37,"Duration":103092,"SoundDuration":103092,"Delta":263946375},{"NoteNumber":63,"Velocity":37,"Duration":103448,"SoundDuration":103448,"Delta":264049467},{"NoteNumber":61,"Velocity":37,"Duration":103448,"SoundDuration":103448,"Delta":264152916},{"NoteNumber":60,"Velocity":40,"Duration":103686,"SoundDuration":103686,"Delta":264256364},{"NoteNumber":61,"Velocity":37,"Duration":103806,"SoundDuration":103806,"Delta":264360051},{"NoteNumber":63,"Velocity":37,"Duration":103926,"SoundDuration":103926,"Delta":264463857},{"NoteNumber":60,"Velocity":37,"Duration":108908,"SoundDuration":108908,"Delta":264567783},{"NoteNumber":41,"Velocity":35,"Duration":108908,"SoundDuration":108908,"Delta":264567783},{"NoteNumber":29,"Velocity":40,"Duration":416258,"SoundDuration":416258,"Delta":264676692},{"NoteNumber":57,"Velocity":47,"Duration":104166,"SoundDuration":104166,"Delta":264780931},{"NoteNumber":60,"Velocity":49,"Duration":104046,"SoundDuration":104046,"Delta":264885098},{"NoteNumber":63,"Velocity":50,"Duration":103806,"SoundDuration":103806,"Delta":264989145},{"NoteNumber":66,"Velocity":52,"Duration":103448,"SoundDuration":103448,"Delta":265092951},{"NoteNumber":68,"Velocity":54,"Duration":103448,"SoundDuration":103448,"Delta":265196399},{"NoteNumber":66,"Velocity":56,"Duration":103567,"SoundDuration":103567,"Delta":265299847},{"NoteNumber":57,"Velocity":38,"Duration":103567,"SoundDuration":103567,"Delta":265299847},{"NoteNumber":65,"Velocity":58,"Duration":112781,"SoundDuration":112781,"Delta":265403415},{"NoteNumber":58,"Velocity":42,"Duration":112781,"SoundDuration":112781,"Delta":265403415},{"NoteNumber":63,"Velocity":67,"Duration":209304,"SoundDuration":209304,"Delta":265516197},{"NoteNumber":60,"Velocity":49,"Duration":104894,"SoundDuration":104894,"Delta":265516197},{"NoteNumber":61,"Velocity":42,"Duration":104409,"SoundDuration":104409,"Delta":265621092},{"NoteNumber":63,"Velocity":47,"Duration":104166,"SoundDuration":104166,"Delta":265725501},{"NoteNumber":60,"Velocity":43,"Duration":104166,"SoundDuration":104166,"Delta":265725501},{"NoteNumber":65,"Velocity":49,"Duration":104166,"SoundDuration":104166,"Delta":265829668},{"NoteNumber":58,"Velocity":43,"Duration":104166,"SoundDuration":104166,"Delta":265829668},{"NoteNumber":66,"Velocity":52,"Duration":104529,"SoundDuration":104529,"Delta":265933835},{"NoteNumber":57,"Velocity":47,"Duration":209059,"SoundDuration":209059,"Delta":265933835},{"NoteNumber":68,"Velocity":54,"Duration":104529,"SoundDuration":104529,"Delta":266038364},{"NoteNumber":66,"Velocity":56,"Duration":104651,"SoundDuration":104651,"Delta":266142894},{"NoteNumber":57,"Velocity":41,"Duration":104651,"SoundDuration":104651,"Delta":266142894},{"NoteNumber":65,"Velocity":59,"Duration":113636,"SoundDuration":113636,"Delta":266247545},{"NoteNumber":58,"Velocity":46,"Duration":113636,"SoundDuration":113636,"Delta":266247545},{"NoteNumber":63,"Velocity":67,"Duration":208333,"SoundDuration":208333,"Delta":266361181},{"NoteNumber":60,"Velocity":53,"Duration":104166,"SoundDuration":104166,"Delta":266361181},{"NoteNumber":61,"Velocity":42,"Duration":104166,"SoundDuration":104166,"Delta":266465348},{"NoteNumber":63,"Velocity":50,"Duration":104166,"SoundDuration":104166,"Delta":266569515},{"NoteNumber":60,"Velocity":43,"Duration":104166,"SoundDuration":104166,"Delta":266569515},{"NoteNumber":65,"Velocity":50,"Duration":104166,"SoundDuration":104166,"Delta":266673682},{"NoteNumber":58,"Velocity":43,"Duration":104166,"SoundDuration":104166,"Delta":266673682},{"NoteNumber":66,"Velocity":56,"Duration":104529,"SoundDuration":104529,"Delta":266777848},{"NoteNumber":57,"Velocity":47,"Duration":209059,"SoundDuration":209059,"Delta":266777848},{"NoteNumber":68,"Velocity":49,"Duration":104529,"SoundDuration":104529,"Delta":266882378},{"NoteNumber":66,"Velocity":50,"Duration":104651,"SoundDuration":104651,"Delta":266986907},{"NoteNumber":57,"Velocity":43,"Duration":104651,"SoundDuration":104651,"Delta":266986907},{"NoteNumber":65,"Velocity":50,"Duration":113207,"SoundDuration":113207,"Delta":267091559},{"NoteNumber":58,"Velocity":47,"Duration":113207,"SoundDuration":113207,"Delta":267091559},{"NoteNumber":63,"Velocity":67,"Duration":232557,"SoundDuration":232557,"Delta":267204766},{"NoteNumber":60,"Velocity":52,"Duration":116279,"SoundDuration":116279,"Delta":267204766},{"NoteNumber":61,"Velocity":42,"Duration":116278,"SoundDuration":116278,"Delta":267321045},{"NoteNumber":66,"Velocity":56,"Duration":236220,"SoundDuration":236220,"Delta":267437324},{"NoteNumber":78,"Velocity":56,"Duration":236220,"SoundDuration":236220,"Delta":267437324},{"NoteNumber":60,"Velocity":43,"Duration":118110,"SoundDuration":118110,"Delta":267437324},{"NoteNumber":58,"Velocity":43,"Duration":118110,"SoundDuration":118110,"Delta":267555435},{"NoteNumber":65,"Velocity":60,"Duration":240000,"SoundDuration":240000,"Delta":267673545},{"NoteNumber":77,"Velocity":60,"Duration":240000,"SoundDuration":240000,"Delta":267673545},{"NoteNumber":57,"Velocity":44,"Duration":120000,"SoundDuration":120000,"Delta":267673545},{"NoteNumber":54,"Velocity":42,"Duration":120000,"SoundDuration":120000,"Delta":267793545},{"NoteNumber":69,"Velocity":54,"Duration":240000,"SoundDuration":240000,"Delta":267913545},{"NoteNumber":81,"Velocity":54,"Duration":240000,"SoundDuration":240000,"Delta":267913545},{"NoteNumber":53,"Velocity":41,"Duration":120000,"SoundDuration":120000,"Delta":267913545},{"NoteNumber":51,"Velocity":39,"Duration":120000,"SoundDuration":120000,"Delta":268033545},{"NoteNumber":82,"Velocity":56,"Duration":104894,"SoundDuration":104894,"Delta":268153545},{"NoteNumber":70,"Velocity":56,"Duration":104894,"SoundDuration":104894,"Delta":268153545},{"NoteNumber":49,"Velocity":44,"Duration":1665065,"SoundDuration":1665065,"Delta":268153545},{"NoteNumber":65,"Velocity":51,"Duration":104469,"SoundDuration":104469,"Delta":268258440},{"NoteNumber":53,"Velocity":32,"Duration":104469,"SoundDuration":104469,"Delta":268258440},{"NoteNumber":70,"Velocity":52,"Duration":104046,"SoundDuration":104046,"Delta":268362909},{"NoteNumber":58,"Velocity":33,"Duration":104046,"SoundDuration":104046,"Delta":268362909},{"NoteNumber":73,"Velocity":53,"Duration":103686,"SoundDuration":103686,"Delta":268466955},{"NoteNumber":53,"Velocity":34,"Duration":103686,"SoundDuration":103686,"Delta":268466955},{"NoteNumber":77,"Velocity":57,"Duration":103270,"SoundDuration":103270,"Delta":268570642},{"NoteNumber":58,"Velocity":38,"Duration":103270,"SoundDuration":103270,"Delta":268570642},{"NoteNumber":78,"Velocity":55,"Duration":102857,"SoundDuration":102857,"Delta":268673913},{"NoteNumber":53,"Velocity":37,"Duration":102857,"SoundDuration":102857,"Delta":268673913},{"NoteNumber":77,"Velocity":56,"Duration":102505,"SoundDuration":102505,"Delta":268776770},{"NoteNumber":58,"Velocity":38,"Duration":102505,"SoundDuration":102505,"Delta":268776770},{"NoteNumber":75,"Velocity":55,"Duration":102098,"SoundDuration":102098,"Delta":268879276},{"NoteNumber":53,"Velocity":38,"Duration":102098,"SoundDuration":102098,"Delta":268879276},{"NoteNumber":73,"Velocity":57,"Duration":101867,"SoundDuration":101867,"Delta":268981375},{"NoteNumber":58,"Velocity":39,"Duration":101867,"SoundDuration":101867,"Delta":268981375},{"NoteNumber":75,"Velocity":56,"Duration":102623,"SoundDuration":102623,"Delta":269083243},{"NoteNumber":53,"Velocity":39,"Duration":102623,"SoundDuration":102623,"Delta":269083243},{"NoteNumber":73,"Velocity":56,"Duration":103389,"SoundDuration":103389,"Delta":269185866},{"NoteNumber":58,"Velocity":38,"Duration":103389,"SoundDuration":103389,"Delta":269185866},{"NoteNumber":72,"Velocity":55,"Duration":104227,"SoundDuration":104227,"Delta":269289255},{"NoteNumber":53,"Velocity":38,"Duration":104227,"SoundDuration":104227,"Delta":269289255},{"NoteNumber":70,"Velocity":54,"Duration":105018,"SoundDuration":105018,"Delta":269393483},{"NoteNumber":58,"Velocity":38,"Duration":105018,"SoundDuration":105018,"Delta":269393483},{"NoteNumber":72,"Velocity":53,"Duration":105883,"SoundDuration":105883,"Delta":269498501},{"NoteNumber":53,"Velocity":37,"Duration":105883,"SoundDuration":105883,"Delta":269498501},{"NoteNumber":73,"Velocity":53,"Duration":106698,"SoundDuration":106698,"Delta":269604384},{"NoteNumber":58,"Velocity":37,"Duration":106698,"SoundDuration":106698,"Delta":269604384},{"NoteNumber":70,"Velocity":52,"Duration":107527,"SoundDuration":107527,"Delta":269711083},{"NoteNumber":53,"Velocity":36,"Duration":107527,"SoundDuration":107527,"Delta":269711083},{"NoteNumber":49,"Velocity":44,"Duration":1665065,"SoundDuration":1665065,"Delta":269818611},{"NoteNumber":65,"Velocity":51,"Duration":104469,"SoundDuration":104469,"Delta":269923506},{"NoteNumber":53,"Velocity":32,"Duration":104469,"SoundDuration":104469,"Delta":269923506},{"NoteNumber":70,"Velocity":52,"Duration":104046,"SoundDuration":104046,"Delta":270027975},{"NoteNumber":58,"Velocity":33,"Duration":104046,"SoundDuration":104046,"Delta":270027975},{"NoteNumber":73,"Velocity":53,"Duration":103686,"SoundDuration":103686,"Delta":270132021},{"NoteNumber":53,"Velocity":34,"Duration":103686,"SoundDuration":103686,"Delta":270132021},{"NoteNumber":77,"Velocity":57,"Duration":103270,"SoundDuration":103270,"Delta":270235708},{"NoteNumber":58,"Velocity":38,"Duration":103270,"SoundDuration":103270,"Delta":270235708},{"NoteNumber":78,"Velocity":55,"Duration":102857,"SoundDuration":102857,"Delta":270338979},{"NoteNumber":53,"Velocity":37,"Duration":102857,"SoundDuration":102857,"Delta":270338979},{"NoteNumber":77,"Velocity":56,"Duration":102505,"SoundDuration":102505,"Delta":270441836},{"NoteNumber":58,"Velocity":38,"Duration":102505,"SoundDuration":102505,"Delta":270441836},{"NoteNumber":75,"Velocity":55,"Duration":102098,"SoundDuration":102098,"Delta":270544342},{"NoteNumber":53,"Velocity":38,"Duration":102098,"SoundDuration":102098,"Delta":270544342},{"NoteNumber":73,"Velocity":57,"Duration":101867,"SoundDuration":101867,"Delta":270646441},{"NoteNumber":58,"Velocity":39,"Duration":101867,"SoundDuration":101867,"Delta":270646441},{"NoteNumber":75,"Velocity":56,"Duration":102623,"SoundDuration":102623,"Delta":270748309},{"NoteNumber":53,"Velocity":39,"Duration":102623,"SoundDuration":102623,"Delta":270748309},{"NoteNumber":73,"Velocity":56,"Duration":103389,"SoundDuration":103389,"Delta":270850932},{"NoteNumber":58,"Velocity":38,"Duration":103389,"SoundDuration":103389,"Delta":270850932},{"NoteNumber":72,"Velocity":55,"Duration":104227,"SoundDuration":104227,"Delta":270954321},{"NoteNumber":53,"Velocity":38,"Duration":104227,"SoundDuration":104227,"Delta":270954321},{"NoteNumber":70,"Velocity":54,"Duration":105018,"SoundDuration":105018,"Delta":271058549},{"NoteNumber":58,"Velocity":38,"Duration":105018,"SoundDuration":105018,"Delta":271058549},{"NoteNumber":72,"Velocity":53,"Duration":105883,"SoundDuration":105883,"Delta":271163567},{"NoteNumber":53,"Velocity":37,"Duration":105883,"SoundDuration":105883,"Delta":271163567},{"NoteNumber":73,"Velocity":53,"Duration":106698,"SoundDuration":106698,"Delta":271269450},{"NoteNumber":58,"Velocity":37,"Duration":106698,"SoundDuration":106698,"Delta":271269450},{"NoteNumber":70,"Velocity":52,"Duration":107527,"SoundDuration":107527,"Delta":271376149},{"NoteNumber":53,"Velocity":36,"Duration":107527,"SoundDuration":107527,"Delta":271376149},{"NoteNumber":51,"Velocity":44,"Duration":1665065,"SoundDuration":1665065,"Delta":271483676},{"NoteNumber":66,"Velocity":51,"Duration":104469,"SoundDuration":104469,"Delta":271588571},{"NoteNumber":54,"Velocity":32,"Duration":104469,"SoundDuration":104469,"Delta":271588571},{"NoteNumber":71,"Velocity":53,"Duration":104046,"SoundDuration":104046,"Delta":271693040},{"NoteNumber":59,"Velocity":33,"Duration":104046,"SoundDuration":104046,"Delta":271693040},{"NoteNumber":75,"Velocity":54,"Duration":103686,"SoundDuration":103686,"Delta":271797087},{"NoteNumber":54,"Velocity":35,"Duration":103686,"SoundDuration":103686,"Delta":271797087},{"NoteNumber":78,"Velocity":59,"Duration":103270,"SoundDuration":103270,"Delta":271900774},{"NoteNumber":59,"Velocity":39,"Duration":103270,"SoundDuration":103270,"Delta":271900774},{"NoteNumber":80,"Velocity":58,"Duration":102857,"SoundDuration":102857,"Delta":272004044},{"NoteNumber":54,"Velocity":39,"Duration":102857,"SoundDuration":102857,"Delta":272004044},{"NoteNumber":78,"Velocity":59,"Duration":102505,"SoundDuration":102505,"Delta":272106902},{"NoteNumber":59,"Velocity":40,"Duration":102505,"SoundDuration":102505,"Delta":272106902},{"NoteNumber":77,"Velocity":59,"Duration":102098,"SoundDuration":102098,"Delta":272209408},{"NoteNumber":54,"Velocity":41,"Duration":102098,"SoundDuration":102098,"Delta":272209408},{"NoteNumber":75,"Velocity":62,"Duration":101867,"SoundDuration":101867,"Delta":272311507},{"NoteNumber":59,"Velocity":42,"Duration":101867,"SoundDuration":101867,"Delta":272311507},{"NoteNumber":77,"Velocity":62,"Duration":102623,"SoundDuration":102623,"Delta":272413374},{"NoteNumber":54,"Velocity":43,"Duration":102623,"SoundDuration":102623,"Delta":272413374},{"NoteNumber":75,"Velocity":62,"Duration":103389,"SoundDuration":103389,"Delta":272515998},{"NoteNumber":59,"Velocity":42,"Duration":103389,"SoundDuration":103389,"Delta":272515998},{"NoteNumber":73,"Velocity":62,"Duration":104227,"SoundDuration":104227,"Delta":272619387},{"NoteNumber":54,"Velocity":42,"Duration":104227,"SoundDuration":104227,"Delta":272619387},{"NoteNumber":71,"Velocity":62,"Duration":105018,"SoundDuration":105018,"Delta":272723615},{"NoteNumber":59,"Velocity":43,"Duration":105018,"SoundDuration":105018,"Delta":272723615},{"NoteNumber":73,"Velocity":61,"Duration":105883,"SoundDuration":105883,"Delta":272828633},{"NoteNumber":54,"Velocity":42,"Duration":105883,"SoundDuration":105883,"Delta":272828633},{"NoteNumber":75,"Velocity":64,"Duration":106698,"SoundDuration":106698,"Delta":272934516},{"NoteNumber":59,"Velocity":45,"Duration":106698,"SoundDuration":106698,"Delta":272934516},{"NoteNumber":71,"Velocity":61,"Duration":107527,"SoundDuration":107527,"Delta":273041215},{"NoteNumber":54,"Velocity":42,"Duration":107527,"SoundDuration":107527,"Delta":273041215},{"NoteNumber":70,"Velocity":68,"Duration":102040,"SoundDuration":102040,"Delta":273148742},{"NoteNumber":53,"Velocity":46,"Duration":826837,"SoundDuration":826837,"Delta":273148742},{"NoteNumber":72,"Velocity":64,"Duration":102389,"SoundDuration":102389,"Delta":273250783},{"NoteNumber":58,"Velocity":46,"Duration":102389,"SoundDuration":102389,"Delta":273250783},{"NoteNumber":70,"Velocity":66,"Duration":102739,"SoundDuration":102739,"Delta":273353172},{"NoteNumber":61,"Velocity":44,"Duration":102739,"SoundDuration":102739,"Delta":273353172},{"NoteNumber":69,"Velocity":64,"Duration":103092,"SoundDuration":103092,"Delta":273455912},{"NoteNumber":58,"Velocity":44,"Duration":103092,"SoundDuration":103092,"Delta":273455912},{"NoteNumber":70,"Velocity":62,"Duration":103448,"SoundDuration":103448,"Delta":273559004},{"NoteNumber":61,"Velocity":43,"Duration":103448,"SoundDuration":103448,"Delta":273559004},{"NoteNumber":72,"Velocity":60,"Duration":103806,"SoundDuration":103806,"Delta":273662453},{"NoteNumber":58,"Velocity":42,"Duration":103806,"SoundDuration":103806,"Delta":273662453},{"NoteNumber":73,"Velocity":59,"Duration":104166,"SoundDuration":104166,"Delta":273766259},{"NoteNumber":61,"Velocity":41,"Duration":104166,"SoundDuration":104166,"Delta":273766259},{"NoteNumber":70,"Velocity":58,"Duration":105154,"SoundDuration":105154,"Delta":273870426},{"NoteNumber":58,"Velocity":40,"Duration":105154,"SoundDuration":105154,"Delta":273870426},{"NoteNumber":69,"Velocity":62,"Duration":101695,"SoundDuration":101695,"Delta":273975580},{"NoteNumber":51,"Velocity":42,"Duration":826811,"SoundDuration":826811,"Delta":273975580},{"NoteNumber":70,"Velocity":61,"Duration":102156,"SoundDuration":102156,"Delta":274077275},{"NoteNumber":53,"Velocity":42,"Duration":102156,"SoundDuration":102156,"Delta":274077275},{"NoteNumber":69,"Velocity":60,"Duration":102622,"SoundDuration":102622,"Delta":274179432},{"NoteNumber":60,"Velocity":41,"Duration":102622,"SoundDuration":102622,"Delta":274179432},{"NoteNumber":67,"Velocity":58,"Duration":102975,"SoundDuration":102975,"Delta":274282055},{"NoteNumber":53,"Velocity":40,"Duration":102975,"SoundDuration":102975,"Delta":274282055},{"NoteNumber":69,"Velocity":56,"Duration":103567,"SoundDuration":103567,"Delta":274385030},{"NoteNumber":60,"Velocity":39,"Duration":103567,"SoundDuration":103567,"Delta":274385030},{"NoteNumber":70,"Velocity":55,"Duration":103926,"SoundDuration":103926,"Delta":274488597},{"NoteNumber":53,"Velocity":38,"Duration":103926,"SoundDuration":103926,"Delta":274488597},{"NoteNumber":72,"Velocity":54,"Duration":104408,"SoundDuration":104408,"Delta":274592524},{"NoteNumber":60,"Velocity":38,"Duration":104408,"SoundDuration":104408,"Delta":274592524},{"NoteNumber":69,"Velocity":53,"Duration":105459,"SoundDuration":105459,"Delta":274696932},{"NoteNumber":53,"Velocity":36,"Duration":105459,"SoundDuration":105459,"Delta":274696932},{"NoteNumber":70,"Velocity":61,"Duration":209789,"SoundDuration":209789,"Delta":274802392},{"NoteNumber":49,"Velocity":48,"Duration":104894,"SoundDuration":104894,"Delta":274802392},{"NoteNumber":65,"Velocity":48,"Duration":104894,"SoundDuration":104894,"Delta":274907287},{"NoteNumber":70,"Velocity":57,"Duration":104651,"SoundDuration":104651,"Delta":275012182},{"NoteNumber":73,"Velocity":58,"Duration":104529,"SoundDuration":104529,"Delta":275116833},{"NoteNumber":77,"Velocity":62,"Duration":104166,"SoundDuration":104166,"Delta":275221363},{"NoteNumber":58,"Velocity":58,"Duration":415826,"SoundDuration":415826,"Delta":275221363},{"NoteNumber":78,"Velocity":60,"Duration":104166,"SoundDuration":104166,"Delta":275325530},{"NoteNumber":61,"Velocity":40,"Duration":104166,"SoundDuration":104166,"Delta":275325530},{"NoteNumber":77,"Velocity":61,"Duration":103806,"SoundDuration":103806,"Delta":275429696},{"NoteNumber":65,"Velocity":41,"Duration":103806,"SoundDuration":103806,"Delta":275429696},{"NoteNumber":75,"Velocity":61,"Duration":103686,"SoundDuration":103686,"Delta":275533503},{"NoteNumber":61,"Velocity":41,"Duration":103686,"SoundDuration":103686,"Delta":275533503},{"NoteNumber":73,"Velocity":63,"Duration":103806,"SoundDuration":103806,"Delta":275637189},{"NoteNumber":57,"Velocity":63,"Duration":417397,"SoundDuration":417397,"Delta":275637189},{"NoteNumber":75,"Velocity":62,"Duration":104166,"SoundDuration":104166,"Delta":275740996},{"NoteNumber":61,"Velocity":42,"Duration":104166,"SoundDuration":104166,"Delta":275740996},{"NoteNumber":73,"Velocity":62,"Duration":104529,"SoundDuration":104529,"Delta":275845162},{"NoteNumber":65,"Velocity":42,"Duration":104529,"SoundDuration":104529,"Delta":275845162},{"NoteNumber":72,"Velocity":61,"Duration":104894,"SoundDuration":104894,"Delta":275949692},{"NoteNumber":61,"Velocity":42,"Duration":104894,"SoundDuration":104894,"Delta":275949692},{"NoteNumber":82,"Velocity":71,"Duration":210896,"SoundDuration":210896,"Delta":276054587},{"NoteNumber":70,"Velocity":71,"Duration":105263,"SoundDuration":105263,"Delta":276054587},{"NoteNumber":58,"Velocity":55,"Duration":424683,"SoundDuration":424683,"Delta":276054587},{"NoteNumber":72,"Velocity":60,"Duration":105633,"SoundDuration":105633,"Delta":276159850},{"NoteNumber":61,"Velocity":41,"Duration":105633,"SoundDuration":105633,"Delta":276159850},{"NoteNumber":73,"Velocity":61,"Duration":106258,"SoundDuration":106258,"Delta":276265484},{"NoteNumber":65,"Velocity":41,"Duration":106258,"SoundDuration":106258,"Delta":276265484},{"NoteNumber":70,"Velocity":60,"Duration":107527,"SoundDuration":107527,"Delta":276371743},{"NoteNumber":61,"Velocity":41,"Duration":107527,"SoundDuration":107527,"Delta":276371743},{"NoteNumber":81,"Velocity":74,"Duration":211640,"SoundDuration":211640,"Delta":276479270},{"NoteNumber":49,"Velocity":51,"Duration":106006,"SoundDuration":106006,"Delta":276479270},{"NoteNumber":65,"Velocity":52,"Duration":105633,"SoundDuration":105633,"Delta":276585277},{"NoteNumber":70,"Velocity":63,"Duration":105263,"SoundDuration":105263,"Delta":276690911},{"NoteNumber":73,"Velocity":65,"Duration":104894,"SoundDuration":104894,"Delta":276796174},{"NoteNumber":82,"Velocity":73,"Duration":208696,"SoundDuration":208696,"Delta":276901069},{"NoteNumber":77,"Velocity":73,"Duration":104529,"SoundDuration":104529,"Delta":276901069},{"NoteNumber":58,"Velocity":68,"Duration":415832,"SoundDuration":415832,"Delta":276901069},{"NoteNumber":78,"Velocity":68,"Duration":104166,"SoundDuration":104166,"Delta":277005599},{"NoteNumber":61,"Velocity":45,"Duration":104166,"SoundDuration":104166,"Delta":277005599},{"NoteNumber":77,"Velocity":71,"Duration":103806,"SoundDuration":103806,"Delta":277109766},{"NoteNumber":65,"Velocity":47,"Duration":103806,"SoundDuration":103806,"Delta":277109766},{"NoteNumber":75,"Velocity":70,"Duration":103329,"SoundDuration":103329,"Delta":277213572},{"NoteNumber":61,"Velocity":48,"Duration":103329,"SoundDuration":103329,"Delta":277213572},{"NoteNumber":73,"Velocity":73,"Duration":103329,"SoundDuration":103329,"Delta":277316902},{"NoteNumber":57,"Velocity":74,"Duration":416805,"SoundDuration":416805,"Delta":277316902},{"NoteNumber":75,"Velocity":72,"Duration":103926,"SoundDuration":103926,"Delta":277420231},{"NoteNumber":61,"Velocity":50,"Duration":103926,"SoundDuration":103926,"Delta":277420231},{"NoteNumber":73,"Velocity":74,"Duration":104408,"SoundDuration":104408,"Delta":277524158},{"NoteNumber":65,"Velocity":49,"Duration":104408,"SoundDuration":104408,"Delta":277524158},{"NoteNumber":72,"Velocity":74,"Duration":105140,"SoundDuration":105140,"Delta":277628566},{"NoteNumber":61,"Velocity":50,"Duration":105140,"SoundDuration":105140,"Delta":277628566},{"NoteNumber":82,"Velocity":88,"Duration":212015,"SoundDuration":212015,"Delta":277733707},{"NoteNumber":70,"Velocity":73,"Duration":105758,"SoundDuration":105758,"Delta":277733707},{"NoteNumber":58,"Velocity":77,"Duration":426558,"SoundDuration":426558,"Delta":277733707},{"NoteNumber":72,"Velocity":73,"Duration":106257,"SoundDuration":106257,"Delta":277839465},{"NoteNumber":61,"Velocity":50,"Duration":106257,"SoundDuration":106257,"Delta":277839465},{"NoteNumber":73,"Velocity":74,"Duration":107015,"SoundDuration":107015,"Delta":277945723},{"NoteNumber":65,"Velocity":51,"Duration":107015,"SoundDuration":107015,"Delta":277945723},{"NoteNumber":70,"Velocity":73,"Duration":107527,"SoundDuration":107527,"Delta":278052738},{"NoteNumber":61,"Velocity":50,"Duration":107527,"SoundDuration":107527,"Delta":278052738},{"NoteNumber":71,"Velocity":88,"Duration":104166,"SoundDuration":104166,"Delta":278160266},{"NoteNumber":83,"Velocity":88,"Duration":104166,"SoundDuration":104166,"Delta":278160266},{"NoteNumber":51,"Velocity":70,"Duration":104166,"SoundDuration":104166,"Delta":278160266},{"NoteNumber":78,"Velocity":74,"Duration":103926,"SoundDuration":103926,"Delta":278264433},{"NoteNumber":66,"Velocity":55,"Duration":103926,"SoundDuration":103926,"Delta":278264433},{"NoteNumber":71,"Velocity":55,"Duration":103926,"SoundDuration":103926,"Delta":278264433},{"NoteNumber":83,"Velocity":76,"Duration":103567,"SoundDuration":103567,"Delta":278368359},{"NoteNumber":63,"Velocity":59,"Duration":103567,"SoundDuration":103567,"Delta":278368359},{"NoteNumber":87,"Velocity":78,"Duration":103329,"SoundDuration":103329,"Delta":278471927},{"NoteNumber":66,"Velocity":55,"Duration":103329,"SoundDuration":103329,"Delta":278471927},{"NoteNumber":71,"Velocity":55,"Duration":103329,"SoundDuration":103329,"Delta":278471927},{"NoteNumber":90,"Velocity":80,"Duration":102975,"SoundDuration":102975,"Delta":278575256},{"NoteNumber":63,"Velocity":59,"Duration":102975,"SoundDuration":102975,"Delta":278575256},{"NoteNumber":92,"Velocity":76,"Duration":102739,"SoundDuration":102739,"Delta":278678231},{"NoteNumber":66,"Velocity":55,"Duration":102739,"SoundDuration":102739,"Delta":278678231},{"NoteNumber":71,"Velocity":55,"Duration":102739,"SoundDuration":102739,"Delta":278678231},{"NoteNumber":90,"Velocity":76,"Duration":102389,"SoundDuration":102389,"Delta":278780971},{"NoteNumber":63,"Velocity":59,"Duration":102389,"SoundDuration":102389,"Delta":278780971},{"NoteNumber":89,"Velocity":76,"Duration":102040,"SoundDuration":102040,"Delta":278883360},{"NoteNumber":66,"Velocity":56,"Duration":102040,"SoundDuration":102040,"Delta":278883360},{"NoteNumber":71,"Velocity":56,"Duration":102040,"SoundDuration":102040,"Delta":278883360},{"NoteNumber":87,"Velocity":77,"Duration":101238,"SoundDuration":101238,"Delta":278985401},{"NoteNumber":63,"Velocity":59,"Duration":101238,"SoundDuration":101238,"Delta":278985401},{"NoteNumber":89,"Velocity":71,"Duration":101237,"SoundDuration":101237,"Delta":279086639},{"NoteNumber":66,"Velocity":55,"Duration":101237,"SoundDuration":101237,"Delta":279086639},{"NoteNumber":71,"Velocity":55,"Duration":101237,"SoundDuration":101237,"Delta":279086639},{"NoteNumber":87,"Velocity":72,"Duration":101695,"SoundDuration":101695,"Delta":279187877},{"NoteNumber":63,"Velocity":59,"Duration":101695,"SoundDuration":101695,"Delta":279187877},{"NoteNumber":85,"Velocity":72,"Duration":102156,"SoundDuration":102156,"Delta":279289572},{"NoteNumber":66,"Velocity":55,"Duration":102156,"SoundDuration":102156,"Delta":279289572},{"NoteNumber":71,"Velocity":55,"Duration":102156,"SoundDuration":102156,"Delta":279289572},{"NoteNumber":83,"Velocity":78,"Duration":102505,"SoundDuration":102505,"Delta":279391729},{"NoteNumber":63,"Velocity":59,"Duration":102505,"SoundDuration":102505,"Delta":279391729},{"NoteNumber":85,"Velocity":73,"Duration":102975,"SoundDuration":102975,"Delta":279494234},{"NoteNumber":66,"Velocity":55,"Duration":102975,"SoundDuration":102975,"Delta":279494234},{"NoteNumber":71,"Velocity":55,"Duration":102975,"SoundDuration":102975,"Delta":279494234},{"NoteNumber":83,"Velocity":73,"Duration":103329,"SoundDuration":103329,"Delta":279597210},{"NoteNumber":63,"Velocity":59,"Duration":103329,"SoundDuration":103329,"Delta":279597210},{"NoteNumber":82,"Velocity":72,"Duration":103926,"SoundDuration":103926,"Delta":279700539},{"NoteNumber":66,"Velocity":56,"Duration":103926,"SoundDuration":103926,"Delta":279700539},{"NoteNumber":71,"Velocity":56,"Duration":103926,"SoundDuration":103926,"Delta":279700539},{"NoteNumber":81,"Velocity":77,"Duration":104166,"SoundDuration":104166,"Delta":279804466},{"NoteNumber":65,"Velocity":59,"Duration":104166,"SoundDuration":104166,"Delta":279804466},{"NoteNumber":84,"Velocity":71,"Duration":103806,"SoundDuration":103806,"Delta":279908632},{"NoteNumber":69,"Velocity":55,"Duration":103806,"SoundDuration":103806,"Delta":279908632},{"NoteNumber":72,"Velocity":55,"Duration":103806,"SoundDuration":103806,"Delta":279908632},{"NoteNumber":75,"Velocity":55,"Duration":103806,"SoundDuration":103806,"Delta":279908632},{"NoteNumber":87,"Velocity":72,"Duration":103448,"SoundDuration":103448,"Delta":280012439},{"NoteNumber":65,"Velocity":59,"Duration":103448,"SoundDuration":103448,"Delta":280012439},{"NoteNumber":85,"Velocity":72,"Duration":103211,"SoundDuration":103211,"Delta":280115887},{"NoteNumber":69,"Velocity":55,"Duration":103211,"SoundDuration":103211,"Delta":280115887},{"NoteNumber":72,"Velocity":55,"Duration":103211,"SoundDuration":103211,"Delta":280115887},{"NoteNumber":75,"Velocity":55,"Duration":103211,"SoundDuration":103211,"Delta":280115887},{"NoteNumber":84,"Velocity":78,"Duration":102857,"SoundDuration":102857,"Delta":280219098},{"NoteNumber":65,"Velocity":59,"Duration":102857,"SoundDuration":102857,"Delta":280219098},{"NoteNumber":85,"Velocity":73,"Duration":103093,"SoundDuration":103093,"Delta":280321956},{"NoteNumber":69,"Velocity":55,"Duration":103093,"SoundDuration":103093,"Delta":280321956},{"NoteNumber":72,"Velocity":55,"Duration":103093,"SoundDuration":103093,"Delta":280321956},{"NoteNumber":75,"Velocity":55,"Duration":103093,"SoundDuration":103093,"Delta":280321956},{"NoteNumber":84,"Velocity":73,"Duration":103926,"SoundDuration":103926,"Delta":280425049},{"NoteNumber":65,"Velocity":59,"Duration":103926,"SoundDuration":103926,"Delta":280425049},{"NoteNumber":82,"Velocity":72,"Duration":104895,"SoundDuration":104895,"Delta":280528976},{"NoteNumber":69,"Velocity":55,"Duration":104895,"SoundDuration":104895,"Delta":280528976},{"NoteNumber":72,"Velocity":56,"Duration":104895,"SoundDuration":104895,"Delta":280528976},{"NoteNumber":75,"Velocity":56,"Duration":104895,"SoundDuration":104895,"Delta":280528976},{"NoteNumber":81,"Velocity":77,"Duration":104529,"SoundDuration":104529,"Delta":280633872},{"NoteNumber":65,"Velocity":59,"Duration":104529,"SoundDuration":104529,"Delta":280633872},{"NoteNumber":82,"Velocity":71,"Duration":104529,"SoundDuration":104529,"Delta":280738401},{"NoteNumber":69,"Velocity":55,"Duration":104529,"SoundDuration":104529,"Delta":280738401},{"NoteNumber":81,"Velocity":72,"Duration":104651,"SoundDuration":104651,"Delta":280842931},{"NoteNumber":65,"Velocity":59,"Duration":104651,"SoundDuration":104651,"Delta":280842931},{"NoteNumber":78,"Velocity":72,"Duration":104894,"SoundDuration":104894,"Delta":280947582},{"NoteNumber":69,"Velocity":55,"Duration":104894,"SoundDuration":104894,"Delta":280947582},{"NoteNumber":77,"Velocity":74,"Duration":105140,"SoundDuration":105140,"Delta":281052477},{"NoteNumber":53,"Velocity":59,"Duration":105140,"SoundDuration":105140,"Delta":281052477},{"NoteNumber":75,"Velocity":71,"Duration":105386,"SoundDuration":105386,"Delta":281157617},{"NoteNumber":65,"Velocity":50,"Duration":105386,"SoundDuration":105386,"Delta":281157617},{"NoteNumber":73,"Velocity":71,"Duration":105633,"SoundDuration":105633,"Delta":281263004},{"NoteNumber":53,"Velocity":57,"Duration":105633,"SoundDuration":105633,"Delta":281263004},{"NoteNumber":72,"Velocity":69,"Duration":105882,"SoundDuration":105882,"Delta":281368638},{"NoteNumber":65,"Velocity":49,"Duration":105882,"SoundDuration":105882,"Delta":281368638},{"NoteNumber":70,"Velocity":73,"Duration":114068,"SoundDuration":114068,"Delta":281474520},{"NoteNumber":46,"Velocity":59,"Duration":228137,"SoundDuration":228137,"Delta":281474520},{"NoteNumber":77,"Velocity":74,"Duration":424028,"SoundDuration":424028,"Delta":281702657},{"NoteNumber":58,"Velocity":44,"Duration":106006,"SoundDuration":106006,"Delta":281702657},{"NoteNumber":61,"Velocity":44,"Duration":106006,"SoundDuration":106006,"Delta":281702657},{"NoteNumber":65,"Velocity":38,"Duration":106007,"SoundDuration":106007,"Delta":281808664},{"NoteNumber":58,"Velocity":44,"Duration":106006,"SoundDuration":106006,"Delta":281914671},{"NoteNumber":61,"Velocity":44,"Duration":106006,"SoundDuration":106006,"Delta":281914671},{"NoteNumber":65,"Velocity":38,"Duration":106007,"SoundDuration":106007,"Delta":282020678},{"NoteNumber":77,"Velocity":61,"Duration":106006,"SoundDuration":106006,"Delta":282126685},{"NoteNumber":61,"Velocity":44,"Duration":106006,"SoundDuration":106006,"Delta":282126685},{"NoteNumber":58,"Velocity":44,"Duration":106006,"SoundDuration":106006,"Delta":282126685},{"NoteNumber":65,"Velocity":38,"Duration":106006,"SoundDuration":106006,"Delta":282232692},{"NoteNumber":77,"Velocity":61,"Duration":108695,"SoundDuration":108695,"Delta":282338699},{"NoteNumber":58,"Velocity":44,"Duration":108695,"SoundDuration":108695,"Delta":282338699},{"NoteNumber":61,"Velocity":44,"Duration":108695,"SoundDuration":108695,"Delta":282338699},{"NoteNumber":65,"Velocity":38,"Duration":108695,"SoundDuration":108695,"Delta":282447395},{"NoteNumber":78,"Velocity":72,"Duration":424028,"SoundDuration":424028,"Delta":282556091},{"NoteNumber":61,"Velocity":44,"Duration":106006,"SoundDuration":106006,"Delta":282556091},{"NoteNumber":58,"Velocity":44,"Duration":106006,"SoundDuration":106006,"Delta":282556091},{"NoteNumber":64,"Velocity":38,"Duration":106007,"SoundDuration":106007,"Delta":282662098},{"NoteNumber":58,"Velocity":44,"Duration":106006,"SoundDuration":106006,"Delta":282768105},{"NoteNumber":61,"Velocity":44,"Duration":106006,"SoundDuration":106006,"Delta":282768105},{"NoteNumber":64,"Velocity":38,"Duration":106007,"SoundDuration":106007,"Delta":282874112},{"NoteNumber":78,"Velocity":60,"Duration":106006,"SoundDuration":106006,"Delta":282980119},{"NoteNumber":58,"Velocity":44,"Duration":106006,"SoundDuration":106006,"Delta":282980119},{"NoteNumber":61,"Velocity":44,"Duration":106006,"SoundDuration":106006,"Delta":282980119},{"NoteNumber":64,"Velocity":38,"Duration":106006,"SoundDuration":106006,"Delta":283086126},{"NoteNumber":78,"Velocity":59,"Duration":110701,"SoundDuration":110701,"Delta":283192133},{"NoteNumber":57,"Velocity":44,"Duration":110701,"SoundDuration":110701,"Delta":283192133},{"NoteNumber":60,"Velocity":44,"Duration":110701,"SoundDuration":110701,"Delta":283192133},{"NoteNumber":64,"Velocity":38,"Duration":110701,"SoundDuration":110701,"Delta":283302834},{"NoteNumber":77,"Velocity":73,"Duration":424028,"SoundDuration":424028,"Delta":283413535},{"NoteNumber":60,"Velocity":44,"Duration":106006,"SoundDuration":106006,"Delta":283413535},{"NoteNumber":57,"Velocity":44,"Duration":106006,"SoundDuration":106006,"Delta":283413535},{"NoteNumber":65,"Velocity":38,"Duration":106007,"SoundDuration":106007,"Delta":283519542},{"NoteNumber":57,"Velocity":44,"Duration":106006,"SoundDuration":106006,"Delta":283625549},{"NoteNumber":60,"Velocity":44,"Duration":106006,"SoundDuration":106006,"Delta":283625549},{"NoteNumber":65,"Velocity":38,"Duration":106007,"SoundDuration":106007,"Delta":283731556},{"NoteNumber":77,"Velocity":63,"Duration":106006,"SoundDuration":106006,"Delta":283837563},{"NoteNumber":57,"Velocity":44,"Duration":106006,"SoundDuration":106006,"Delta":283837563},{"NoteNumber":60,"Velocity":44,"Duration":106006,"SoundDuration":106006,"Delta":283837563},{"NoteNumber":65,"Velocity":38,"Duration":106006,"SoundDuration":106006,"Delta":283943570},{"NoteNumber":77,"Velocity":65,"Duration":110294,"SoundDuration":110294,"Delta":284049577},{"NoteNumber":57,"Velocity":44,"Duration":110294,"SoundDuration":110294,"Delta":284049577},{"NoteNumber":60,"Velocity":44,"Duration":110294,"SoundDuration":110294,"Delta":284049577},{"NoteNumber":65,"Velocity":38,"Duration":110294,"SoundDuration":110294,"Delta":284159871},{"NoteNumber":72,"Velocity":61,"Duration":106761,"SoundDuration":106761,"Delta":284270165},{"NoteNumber":60,"Velocity":44,"Duration":106761,"SoundDuration":106761,"Delta":284270165},{"NoteNumber":57,"Velocity":44,"Duration":106761,"SoundDuration":106761,"Delta":284270165},{"NoteNumber":65,"Velocity":38,"Duration":106761,"SoundDuration":106761,"Delta":284376926},{"NoteNumber":73,"Velocity":61,"Duration":106761,"SoundDuration":106761,"Delta":284483688},{"NoteNumber":57,"Velocity":44,"Duration":106761,"SoundDuration":106761,"Delta":284483688},{"NoteNumber":60,"Velocity":44,"Duration":106761,"SoundDuration":106761,"Delta":284483688},{"NoteNumber":65,"Velocity":38,"Duration":106761,"SoundDuration":106761,"Delta":284590449},{"NoteNumber":75,"Velocity":61,"Duration":106761,"SoundDuration":106761,"Delta":284697211},{"NoteNumber":57,"Velocity":44,"Duration":106761,"SoundDuration":106761,"Delta":284697211},{"NoteNumber":60,"Velocity":44,"Duration":106761,"SoundDuration":106761,"Delta":284697211},{"NoteNumber":65,"Velocity":38,"Duration":106761,"SoundDuration":106761,"Delta":284803972},{"NoteNumber":73,"Velocity":65,"Duration":111524,"SoundDuration":111524,"Delta":284910734},{"NoteNumber":61,"Velocity":44,"Duration":111524,"SoundDuration":111524,"Delta":284910734},{"NoteNumber":58,"Velocity":44,"Duration":111524,"SoundDuration":111524,"Delta":284910734},{"NoteNumber":65,"Velocity":38,"Duration":111524,"SoundDuration":111524,"Delta":285022258},{"NoteNumber":89,"Velocity":80,"Duration":421804,"SoundDuration":421804,"Delta":285133782},{"NoteNumber":77,"Velocity":73,"Duration":421804,"SoundDuration":421804,"Delta":285133782},{"NoteNumber":58,"Velocity":58,"Duration":106006,"SoundDuration":106006,"Delta":285133782},{"NoteNumber":61,"Velocity":58,"Duration":106006,"SoundDuration":106006,"Delta":285133782},{"NoteNumber":65,"Velocity":51,"Duration":106007,"SoundDuration":106007,"Delta":285239789},{"NoteNumber":58,"Velocity":58,"Duration":104894,"SoundDuration":104894,"Delta":285345796},{"NoteNumber":61,"Velocity":58,"Duration":104894,"SoundDuration":104894,"Delta":285345796},{"NoteNumber":65,"Velocity":51,"Duration":104894,"SoundDuration":104894,"Delta":285450691},{"NoteNumber":89,"Velocity":74,"Duration":104894,"SoundDuration":104894,"Delta":285555586},{"NoteNumber":77,"Velocity":68,"Duration":104894,"SoundDuration":104894,"Delta":285555586},{"NoteNumber":61,"Velocity":58,"Duration":104894,"SoundDuration":104894,"Delta":285555586},{"NoteNumber":58,"Velocity":58,"Duration":104894,"SoundDuration":104894,"Delta":285555586},{"NoteNumber":65,"Velocity":51,"Duration":104894,"SoundDuration":104894,"Delta":285660481},{"NoteNumber":89,"Velocity":74,"Duration":108695,"SoundDuration":108695,"Delta":285765376},{"NoteNumber":77,"Velocity":68,"Duration":108695,"SoundDuration":108695,"Delta":285765376},{"NoteNumber":58,"Velocity":58,"Duration":108695,"SoundDuration":108695,"Delta":285765376},{"NoteNumber":61,"Velocity":58,"Duration":108695,"SoundDuration":108695,"Delta":285765376},{"NoteNumber":65,"Velocity":51,"Duration":108695,"SoundDuration":108695,"Delta":285874072},{"NoteNumber":90,"Velocity":81,"Duration":422540,"SoundDuration":422540,"Delta":285982768},{"NoteNumber":78,"Velocity":74,"Duration":422540,"SoundDuration":422540,"Delta":285982768},{"NoteNumber":61,"Velocity":58,"Duration":106006,"SoundDuration":106006,"Delta":285982768},{"NoteNumber":58,"Velocity":58,"Duration":106006,"SoundDuration":106006,"Delta":285982768},{"NoteNumber":64,"Velocity":51,"Duration":106007,"SoundDuration":106007,"Delta":286088775},{"NoteNumber":58,"Velocity":58,"Duration":105263,"SoundDuration":105263,"Delta":286194782},{"NoteNumber":61,"Velocity":58,"Duration":105263,"SoundDuration":105263,"Delta":286194782},{"NoteNumber":64,"Velocity":51,"Duration":105263,"SoundDuration":105263,"Delta":286300045},{"NoteNumber":90,"Velocity":73,"Duration":105263,"SoundDuration":105263,"Delta":286405308},{"NoteNumber":78,"Velocity":67,"Duration":105263,"SoundDuration":105263,"Delta":286405308},{"NoteNumber":58,"Velocity":58,"Duration":105263,"SoundDuration":105263,"Delta":286405308},{"NoteNumber":61,"Velocity":58,"Duration":105263,"SoundDuration":105263,"Delta":286405308},{"NoteNumber":64,"Velocity":51,"Duration":105263,"SoundDuration":105263,"Delta":286510572},{"NoteNumber":90,"Velocity":72,"Duration":110701,"SoundDuration":110701,"Delta":286615835},{"NoteNumber":78,"Velocity":66,"Duration":110701,"SoundDuration":110701,"Delta":286615835},{"NoteNumber":57,"Velocity":58,"Duration":110701,"SoundDuration":110701,"Delta":286615835},{"NoteNumber":60,"Velocity":58,"Duration":110701,"SoundDuration":110701,"Delta":286615835},{"NoteNumber":64,"Velocity":51,"Duration":110701,"SoundDuration":110701,"Delta":286726536},{"NoteNumber":89,"Velocity":82,"Duration":424028,"SoundDuration":424028,"Delta":286837237},{"NoteNumber":77,"Velocity":75,"Duration":424028,"SoundDuration":424028,"Delta":286837237},{"NoteNumber":60,"Velocity":58,"Duration":106006,"SoundDuration":106006,"Delta":286837237},{"NoteNumber":57,"Velocity":58,"Duration":106006,"SoundDuration":106006,"Delta":286837237},{"NoteNumber":65,"Velocity":51,"Duration":106007,"SoundDuration":106007,"Delta":286943244},{"NoteNumber":57,"Velocity":58,"Duration":106006,"SoundDuration":106006,"Delta":287049251},{"NoteNumber":60,"Velocity":58,"Duration":106006,"SoundDuration":106006,"Delta":287049251},{"NoteNumber":65,"Velocity":51,"Duration":106007,"SoundDuration":106007,"Delta":287155258},{"NoteNumber":89,"Velocity":77,"Duration":106006,"SoundDuration":106006,"Delta":287261265},{"NoteNumber":77,"Velocity":70,"Duration":106006,"SoundDuration":106006,"Delta":287261265},{"NoteNumber":57,"Velocity":58,"Duration":106006,"SoundDuration":106006,"Delta":287261265},{"NoteNumber":60,"Velocity":58,"Duration":106006,"SoundDuration":106006,"Delta":287261265},{"NoteNumber":65,"Velocity":51,"Duration":106006,"SoundDuration":106006,"Delta":287367272},{"NoteNumber":89,"Velocity":80,"Duration":110294,"SoundDuration":110294,"Delta":287473279},{"NoteNumber":77,"Velocity":73,"Duration":110294,"SoundDuration":110294,"Delta":287473279},{"NoteNumber":57,"Velocity":58,"Duration":110294,"SoundDuration":110294,"Delta":287473279},{"NoteNumber":60,"Velocity":58,"Duration":110294,"SoundDuration":110294,"Delta":287473279},{"NoteNumber":65,"Velocity":51,"Duration":110294,"SoundDuration":110294,"Delta":287583573},{"NoteNumber":84,"Velocity":74,"Duration":106761,"SoundDuration":106761,"Delta":287693867},{"NoteNumber":72,"Velocity":68,"Duration":106761,"SoundDuration":106761,"Delta":287693867},{"NoteNumber":60,"Velocity":58,"Duration":106761,"SoundDuration":106761,"Delta":287693867},{"NoteNumber":57,"Velocity":58,"Duration":106761,"SoundDuration":106761,"Delta":287693867},{"NoteNumber":65,"Velocity":51,"Duration":106761,"SoundDuration":106761,"Delta":287800628},{"NoteNumber":85,"Velocity":74,"Duration":106761,"SoundDuration":106761,"Delta":287907390},{"NoteNumber":73,"Velocity":68,"Duration":106761,"SoundDuration":106761,"Delta":287907390},{"NoteNumber":57,"Velocity":58,"Duration":106761,"SoundDuration":106761,"Delta":287907390},{"NoteNumber":60,"Velocity":58,"Duration":106761,"SoundDuration":106761,"Delta":287907390},{"NoteNumber":65,"Velocity":51,"Duration":106761,"SoundDuration":106761,"Delta":288014151},{"NoteNumber":87,"Velocity":74,"Duration":106761,"SoundDuration":106761,"Delta":288120913},{"NoteNumber":75,"Velocity":68,"Duration":106761,"SoundDuration":106761,"Delta":288120913},{"NoteNumber":57,"Velocity":58,"Duration":106761,"SoundDuration":106761,"Delta":288120913},{"NoteNumber":60,"Velocity":58,"Duration":106761,"SoundDuration":106761,"Delta":288120913},{"NoteNumber":65,"Velocity":51,"Duration":106761,"SoundDuration":106761,"Delta":288227674},{"NoteNumber":85,"Velocity":80,"Duration":111524,"SoundDuration":111524,"Delta":288334436},{"NoteNumber":73,"Velocity":73,"Duration":111524,"SoundDuration":111524,"Delta":288334436},{"NoteNumber":61,"Velocity":58,"Duration":111524,"SoundDuration":111524,"Delta":288334436},{"NoteNumber":58,"Velocity":58,"Duration":111524,"SoundDuration":111524,"Delta":288334436},{"NoteNumber":65,"Velocity":51,"Duration":111524,"SoundDuration":111524,"Delta":288445960},{"NoteNumber":72,"Velocity":72,"Duration":422540,"SoundDuration":422540,"Delta":288557484},{"NoteNumber":52,"Velocity":44,"Duration":106006,"SoundDuration":106006,"Delta":288557484},{"NoteNumber":55,"Velocity":44,"Duration":106006,"SoundDuration":106006,"Delta":288557484},{"NoteNumber":60,"Velocity":38,"Duration":106007,"SoundDuration":106007,"Delta":288663491},{"NoteNumber":52,"Velocity":44,"Duration":105263,"SoundDuration":105263,"Delta":288769498},{"NoteNumber":55,"Velocity":44,"Duration":105263,"SoundDuration":105263,"Delta":288769498},{"NoteNumber":60,"Velocity":38,"Duration":105263,"SoundDuration":105263,"Delta":288874762},{"NoteNumber":72,"Velocity":61,"Duration":105263,"SoundDuration":105263,"Delta":288980025},{"NoteNumber":55,"Velocity":44,"Duration":105263,"SoundDuration":105263,"Delta":288980025},{"NoteNumber":52,"Velocity":44,"Duration":105263,"SoundDuration":105263,"Delta":288980025},{"NoteNumber":60,"Velocity":38,"Duration":105263,"SoundDuration":105263,"Delta":289085288},{"NoteNumber":72,"Velocity":61,"Duration":108695,"SoundDuration":108695,"Delta":289190551},{"NoteNumber":53,"Velocity":44,"Duration":108695,"SoundDuration":108695,"Delta":289190551},{"NoteNumber":56,"Velocity":44,"Duration":108695,"SoundDuration":108695,"Delta":289190551},{"NoteNumber":60,"Velocity":38,"Duration":108695,"SoundDuration":108695,"Delta":289299247},{"NoteNumber":71,"Velocity":72,"Duration":421804,"SoundDuration":421804,"Delta":289407943},{"NoteNumber":56,"Velocity":44,"Duration":106006,"SoundDuration":106006,"Delta":289407943},{"NoteNumber":53,"Velocity":44,"Duration":106006,"SoundDuration":106006,"Delta":289407943},{"NoteNumber":62,"Velocity":38,"Duration":106007,"SoundDuration":106007,"Delta":289513950},{"NoteNumber":53,"Velocity":44,"Duration":104894,"SoundDuration":104894,"Delta":289619957},{"NoteNumber":56,"Velocity":44,"Duration":104894,"SoundDuration":104894,"Delta":289619957},{"NoteNumber":62,"Velocity":38,"Duration":104894,"SoundDuration":104894,"Delta":289724852},{"NoteNumber":71,"Velocity":60,"Duration":104894,"SoundDuration":104894,"Delta":289829747},{"NoteNumber":53,"Velocity":44,"Duration":104894,"SoundDuration":104894,"Delta":289829747},{"NoteNumber":56,"Velocity":44,"Duration":104894,"SoundDuration":104894,"Delta":289829747},{"NoteNumber":62,"Velocity":38,"Duration":104894,"SoundDuration":104894,"Delta":289934642},{"NoteNumber":71,"Velocity":59,"Duration":110701,"SoundDuration":110701,"Delta":290039537},{"NoteNumber":52,"Velocity":44,"Duration":110701,"SoundDuration":110701,"Delta":290039537},{"NoteNumber":55,"Velocity":44,"Duration":110701,"SoundDuration":110701,"Delta":290039537},{"NoteNumber":62,"Velocity":38,"Duration":110701,"SoundDuration":110701,"Delta":290150238},{"NoteNumber":72,"Velocity":71,"Duration":424028,"SoundDuration":424028,"Delta":290260939},{"NoteNumber":55,"Velocity":44,"Duration":106006,"SoundDuration":106006,"Delta":290260939},{"NoteNumber":52,"Velocity":44,"Duration":106006,"SoundDuration":106006,"Delta":290260939},{"NoteNumber":60,"Velocity":38,"Duration":106007,"SoundDuration":106007,"Delta":290366946},{"NoteNumber":52,"Velocity":44,"Duration":106006,"SoundDuration":106006,"Delta":290472953},{"NoteNumber":55,"Velocity":44,"Duration":106006,"SoundDuration":106006,"Delta":290472953},{"NoteNumber":60,"Velocity":38,"Duration":106007,"SoundDuration":106007,"Delta":290578960},{"NoteNumber":72,"Velocity":63,"Duration":106006,"SoundDuration":106006,"Delta":290684967},{"NoteNumber":52,"Velocity":44,"Duration":106006,"SoundDuration":106006,"Delta":290684967},{"NoteNumber":55,"Velocity":44,"Duration":106006,"SoundDuration":106006,"Delta":290684967},{"NoteNumber":60,"Velocity":38,"Duration":106006,"SoundDuration":106006,"Delta":290790974},{"NoteNumber":72,"Velocity":65,"Duration":110294,"SoundDuration":110294,"Delta":290896981},{"NoteNumber":52,"Velocity":44,"Duration":110294,"SoundDuration":110294,"Delta":290896981},{"NoteNumber":55,"Velocity":44,"Duration":110294,"SoundDuration":110294,"Delta":290896981},{"NoteNumber":60,"Velocity":38,"Duration":110294,"SoundDuration":110294,"Delta":291007275},{"NoteNumber":67,"Velocity":61,"Duration":106761,"SoundDuration":106761,"Delta":291117569},{"NoteNumber":55,"Velocity":44,"Duration":106761,"SoundDuration":106761,"Delta":291117569},{"NoteNumber":52,"Velocity":44,"Duration":106761,"SoundDuration":106761,"Delta":291117569},{"NoteNumber":60,"Velocity":38,"Duration":106761,"SoundDuration":106761,"Delta":291224330},{"NoteNumber":68,"Velocity":61,"Duration":106761,"SoundDuration":106761,"Delta":291331092},{"NoteNumber":52,"Velocity":44,"Duration":106761,"SoundDuration":106761,"Delta":291331092},{"NoteNumber":55,"Velocity":44,"Duration":106761,"SoundDuration":106761,"Delta":291331092},{"NoteNumber":60,"Velocity":38,"Duration":106761,"SoundDuration":106761,"Delta":291437853},{"NoteNumber":70,"Velocity":61,"Duration":106761,"SoundDuration":106761,"Delta":291544615},{"NoteNumber":52,"Velocity":44,"Duration":106761,"SoundDuration":106761,"Delta":291544615},{"NoteNumber":55,"Velocity":44,"Duration":106761,"SoundDuration":106761,"Delta":291544615},{"NoteNumber":60,"Velocity":38,"Duration":106761,"SoundDuration":106761,"Delta":291651376},{"NoteNumber":68,"Velocity":65,"Duration":111524,"SoundDuration":111524,"Delta":291758138},{"NoteNumber":56,"Velocity":44,"Duration":111524,"SoundDuration":111524,"Delta":291758138},{"NoteNumber":53,"Velocity":44,"Duration":111524,"SoundDuration":111524,"Delta":291758138},{"NoteNumber":60,"Velocity":38,"Duration":111524,"SoundDuration":111524,"Delta":291869662},{"NoteNumber":84,"Velocity":80,"Duration":422540,"SoundDuration":422540,"Delta":291981186},{"NoteNumber":72,"Velocity":73,"Duration":422540,"SoundDuration":422540,"Delta":291981186},{"NoteNumber":53,"Velocity":58,"Duration":106006,"SoundDuration":106006,"Delta":291981186},{"NoteNumber":56,"Velocity":58,"Duration":106006,"SoundDuration":106006,"Delta":291981186},{"NoteNumber":60,"Velocity":51,"Duration":106007,"SoundDuration":106007,"Delta":292087193},{"NoteNumber":53,"Velocity":58,"Duration":105263,"SoundDuration":105263,"Delta":292193200},{"NoteNumber":56,"Velocity":58,"Duration":105263,"SoundDuration":105263,"Delta":292193200},{"NoteNumber":60,"Velocity":51,"Duration":105263,"SoundDuration":105263,"Delta":292298464},{"NoteNumber":84,"Velocity":74,"Duration":105263,"SoundDuration":105263,"Delta":292403727},{"NoteNumber":72,"Velocity":68,"Duration":105263,"SoundDuration":105263,"Delta":292403727},{"NoteNumber":56,"Velocity":58,"Duration":105263,"SoundDuration":105263,"Delta":292403727},{"NoteNumber":53,"Velocity":58,"Duration":105263,"SoundDuration":105263,"Delta":292403727},{"NoteNumber":60,"Velocity":51,"Duration":105263,"SoundDuration":105263,"Delta":292508990},{"NoteNumber":84,"Velocity":74,"Duration":108695,"SoundDuration":108695,"Delta":292614253},{"NoteNumber":72,"Velocity":68,"Duration":108695,"SoundDuration":108695,"Delta":292614253},{"NoteNumber":53,"Velocity":58,"Duration":108695,"SoundDuration":108695,"Delta":292614253},{"NoteNumber":56,"Velocity":58,"Duration":108695,"SoundDuration":108695,"Delta":292614253},{"NoteNumber":60,"Velocity":51,"Duration":108695,"SoundDuration":108695,"Delta":292722949},{"NoteNumber":83,"Velocity":81,"Duration":422540,"SoundDuration":422540,"Delta":292831645},{"NoteNumber":71,"Velocity":74,"Duration":422540,"SoundDuration":422540,"Delta":292831645},{"NoteNumber":56,"Velocity":58,"Duration":106006,"SoundDuration":106006,"Delta":292831645},{"NoteNumber":53,"Velocity":58,"Duration":106006,"SoundDuration":106006,"Delta":292831645},{"NoteNumber":62,"Velocity":51,"Duration":106007,"SoundDuration":106007,"Delta":292937652},{"NoteNumber":53,"Velocity":58,"Duration":105263,"SoundDuration":105263,"Delta":293043659},{"NoteNumber":56,"Velocity":58,"Duration":105263,"SoundDuration":105263,"Delta":293043659},{"NoteNumber":62,"Velocity":51,"Duration":105263,"SoundDuration":105263,"Delta":293148922},{"NoteNumber":83,"Velocity":73,"Duration":105263,"SoundDuration":105263,"Delta":293254185},{"NoteNumber":71,"Velocity":67,"Duration":105263,"SoundDuration":105263,"Delta":293254185},{"NoteNumber":53,"Velocity":58,"Duration":105263,"SoundDuration":105263,"Delta":293254185},{"NoteNumber":56,"Velocity":58,"Duration":105263,"SoundDuration":105263,"Delta":293254185},{"NoteNumber":62,"Velocity":51,"Duration":105263,"SoundDuration":105263,"Delta":293359449},{"NoteNumber":83,"Velocity":72,"Duration":110701,"SoundDuration":110701,"Delta":293464712},{"NoteNumber":71,"Velocity":66,"Duration":110701,"SoundDuration":110701,"Delta":293464712},{"NoteNumber":52,"Velocity":58,"Duration":110701,"SoundDuration":110701,"Delta":293464712},{"NoteNumber":55,"Velocity":58,"Duration":110701,"SoundDuration":110701,"Delta":293464712},{"NoteNumber":62,"Velocity":51,"Duration":110701,"SoundDuration":110701,"Delta":293575413},{"NoteNumber":84,"Velocity":82,"Duration":421804,"SoundDuration":421804,"Delta":293686114},{"NoteNumber":72,"Velocity":75,"Duration":421804,"SoundDuration":421804,"Delta":293686114},{"NoteNumber":55,"Velocity":58,"Duration":106006,"SoundDuration":106006,"Delta":293686114},{"NoteNumber":52,"Velocity":58,"Duration":106006,"SoundDuration":106006,"Delta":293686114},{"NoteNumber":60,"Velocity":51,"Duration":106007,"SoundDuration":106007,"Delta":293792121},{"NoteNumber":52,"Velocity":58,"Duration":104894,"SoundDuration":104894,"Delta":293898128},{"NoteNumber":55,"Velocity":58,"Duration":104894,"SoundDuration":104894,"Delta":293898128},{"NoteNumber":60,"Velocity":51,"Duration":104894,"SoundDuration":104894,"Delta":294003023},{"NoteNumber":84,"Velocity":77,"Duration":104894,"SoundDuration":104894,"Delta":294107918},{"NoteNumber":72,"Velocity":70,"Duration":104894,"SoundDuration":104894,"Delta":294107918},{"NoteNumber":52,"Velocity":58,"Duration":104894,"SoundDuration":104894,"Delta":294107918},{"NoteNumber":55,"Velocity":58,"Duration":104894,"SoundDuration":104894,"Delta":294107918},{"NoteNumber":60,"Velocity":51,"Duration":104894,"SoundDuration":104894,"Delta":294212813},{"NoteNumber":84,"Velocity":80,"Duration":110294,"SoundDuration":110294,"Delta":294317708},{"NoteNumber":72,"Velocity":73,"Duration":110294,"SoundDuration":110294,"Delta":294317708},{"NoteNumber":52,"Velocity":58,"Duration":110294,"SoundDuration":110294,"Delta":294317708},{"NoteNumber":55,"Velocity":58,"Duration":110294,"SoundDuration":110294,"Delta":294317708},{"NoteNumber":60,"Velocity":51,"Duration":110294,"SoundDuration":110294,"Delta":294428002},{"NoteNumber":79,"Velocity":74,"Duration":106761,"SoundDuration":106761,"Delta":294538296},{"NoteNumber":67,"Velocity":68,"Duration":106761,"SoundDuration":106761,"Delta":294538296},{"NoteNumber":55,"Velocity":58,"Duration":106761,"SoundDuration":106761,"Delta":294538296},{"NoteNumber":52,"Velocity":58,"Duration":106761,"SoundDuration":106761,"Delta":294538296},{"NoteNumber":60,"Velocity":51,"Duration":106761,"SoundDuration":106761,"Delta":294645057},{"NoteNumber":80,"Velocity":74,"Duration":106761,"SoundDuration":106761,"Delta":294751819},{"NoteNumber":68,"Velocity":68,"Duration":106761,"SoundDuration":106761,"Delta":294751819},{"NoteNumber":52,"Velocity":58,"Duration":106761,"SoundDuration":106761,"Delta":294751819},{"NoteNumber":55,"Velocity":58,"Duration":106761,"SoundDuration":106761,"Delta":294751819},{"NoteNumber":60,"Velocity":51,"Duration":106761,"SoundDuration":106761,"Delta":294858580},{"NoteNumber":82,"Velocity":74,"Duration":106761,"SoundDuration":106761,"Delta":294965342},{"NoteNumber":70,"Velocity":68,"Duration":106761,"SoundDuration":106761,"Delta":294965342},{"NoteNumber":52,"Velocity":58,"Duration":106761,"SoundDuration":106761,"Delta":294965342},{"NoteNumber":55,"Velocity":58,"Duration":106761,"SoundDuration":106761,"Delta":294965342},{"NoteNumber":60,"Velocity":51,"Duration":106761,"SoundDuration":106761,"Delta":295072103},{"NoteNumber":80,"Velocity":80,"Duration":136986,"SoundDuration":136986,"Delta":295178865},{"NoteNumber":68,"Velocity":73,"Duration":136986,"SoundDuration":136986,"Delta":295178865},{"NoteNumber":41,"Velocity":61,"Duration":454260,"SoundDuration":454260,"Delta":295178865},{"NoteNumber":44,"Velocity":61,"Duration":454260,"SoundDuration":454260,"Delta":295178865},{"NoteNumber":48,"Velocity":61,"Duration":454260,"SoundDuration":454260,"Delta":295178865},{"NoteNumber":53,"Velocity":72,"Duration":454260,"SoundDuration":454260,"Delta":295178865},{"NoteNumber":60,"Velocity":70,"Duration":106006,"SoundDuration":106006,"Delta":295315851},{"NoteNumber":65,"Velocity":72,"Duration":105633,"SoundDuration":105633,"Delta":295421858},{"NoteNumber":68,"Velocity":74,"Duration":105633,"SoundDuration":105633,"Delta":295527492},{"NoteNumber":72,"Velocity":76,"Duration":105263,"SoundDuration":105263,"Delta":295633126},{"NoteNumber":73,"Velocity":72,"Duration":105263,"SoundDuration":105263,"Delta":295738389},{"NoteNumber":48,"Velocity":56,"Duration":105263,"SoundDuration":105263,"Delta":295738389},{"NoteNumber":72,"Velocity":72,"Duration":104894,"SoundDuration":104894,"Delta":295843652},{"NoteNumber":53,"Velocity":58,"Duration":104894,"SoundDuration":104894,"Delta":295843652},{"NoteNumber":70,"Velocity":72,"Duration":104652,"SoundDuration":104652,"Delta":295948547},{"NoteNumber":56,"Velocity":60,"Duration":104652,"SoundDuration":104652,"Delta":295948547},{"NoteNumber":68,"Velocity":73,"Duration":104166,"SoundDuration":104166,"Delta":296053199},{"NoteNumber":60,"Velocity":66,"Duration":104166,"SoundDuration":104166,"Delta":296053199},{"NoteNumber":70,"Velocity":67,"Duration":104408,"SoundDuration":104408,"Delta":296157366},{"NoteNumber":61,"Velocity":60,"Duration":104408,"SoundDuration":104408,"Delta":296157366},{"NoteNumber":68,"Velocity":69,"Duration":104651,"SoundDuration":104651,"Delta":296261775},{"NoteNumber":60,"Velocity":61,"Duration":104651,"SoundDuration":104651,"Delta":296261775},{"NoteNumber":67,"Velocity":69,"Duration":104894,"SoundDuration":104894,"Delta":296366426},{"NoteNumber":58,"Velocity":61,"Duration":104894,"SoundDuration":104894,"Delta":296366426},{"NoteNumber":65,"Velocity":75,"Duration":105140,"SoundDuration":105140,"Delta":296471321},{"NoteNumber":56,"Velocity":67,"Duration":105140,"SoundDuration":105140,"Delta":296471321},{"NoteNumber":67,"Velocity":70,"Duration":105386,"SoundDuration":105386,"Delta":296576462},{"NoteNumber":58,"Velocity":60,"Duration":105386,"SoundDuration":105386,"Delta":296576462},{"NoteNumber":68,"Velocity":70,"Duration":105633,"SoundDuration":105633,"Delta":296681848},{"NoteNumber":60,"Velocity":60,"Duration":105633,"SoundDuration":105633,"Delta":296681848},{"NoteNumber":65,"Velocity":70,"Duration":106034,"SoundDuration":106034,"Delta":296787482},{"NoteNumber":56,"Velocity":60,"Duration":106034,"SoundDuration":106034,"Delta":296787482},{"NoteNumber":66,"Velocity":75,"Duration":109090,"SoundDuration":109090,"Delta":296893516},{"NoteNumber":58,"Velocity":72,"Duration":109090,"SoundDuration":109090,"Delta":296893516},{"NoteNumber":61,"Velocity":72,"Duration":104894,"SoundDuration":104894,"Delta":297002607},{"NoteNumber":60,"Velocity":60,"Duration":104894,"SoundDuration":104894,"Delta":297002607},{"NoteNumber":66,"Velocity":74,"Duration":104773,"SoundDuration":104773,"Delta":297107502},{"NoteNumber":58,"Velocity":60,"Duration":104773,"SoundDuration":104773,"Delta":297107502},{"NoteNumber":70,"Velocity":76,"Duration":104529,"SoundDuration":104529,"Delta":297212275},{"NoteNumber":56,"Velocity":60,"Duration":104529,"SoundDuration":104529,"Delta":297212275},{"NoteNumber":73,"Velocity":78,"Duration":104287,"SoundDuration":104287,"Delta":297316805},{"NoteNumber":54,"Velocity":68,"Duration":104287,"SoundDuration":104287,"Delta":297316805},{"NoteNumber":75,"Velocity":75,"Duration":104166,"SoundDuration":104166,"Delta":297421092},{"NoteNumber":49,"Velocity":57,"Duration":104166,"SoundDuration":104166,"Delta":297421092},{"NoteNumber":73,"Velocity":75,"Duration":103806,"SoundDuration":103806,"Delta":297525259},{"NoteNumber":54,"Velocity":60,"Duration":103806,"SoundDuration":103806,"Delta":297525259},{"NoteNumber":72,"Velocity":75,"Duration":103807,"SoundDuration":103807,"Delta":297629065},{"NoteNumber":58,"Velocity":62,"Duration":103807,"SoundDuration":103807,"Delta":297629065},{"NoteNumber":70,"Velocity":76,"Duration":104166,"SoundDuration":104166,"Delta":297732873},{"NoteNumber":61,"Velocity":69,"Duration":104166,"SoundDuration":104166,"Delta":297732873},{"NoteNumber":72,"Velocity":70,"Duration":104408,"SoundDuration":104408,"Delta":297837039},{"NoteNumber":63,"Velocity":63,"Duration":104408,"SoundDuration":104408,"Delta":297837039},{"NoteNumber":70,"Velocity":71,"Duration":104651,"SoundDuration":104651,"Delta":297941448},{"NoteNumber":61,"Velocity":63,"Duration":104651,"SoundDuration":104651,"Delta":297941448},{"NoteNumber":68,"Velocity":71,"Duration":104894,"SoundDuration":104894,"Delta":298046099},{"NoteNumber":60,"Velocity":63,"Duration":104894,"SoundDuration":104894,"Delta":298046099},{"NoteNumber":66,"Velocity":76,"Duration":105140,"SoundDuration":105140,"Delta":298150994},{"NoteNumber":58,"Velocity":69,"Duration":105140,"SoundDuration":105140,"Delta":298150994},{"NoteNumber":68,"Velocity":73,"Duration":105386,"SoundDuration":105386,"Delta":298256135},{"NoteNumber":60,"Velocity":62,"Duration":105386,"SoundDuration":105386,"Delta":298256135},{"NoteNumber":70,"Velocity":73,"Duration":105633,"SoundDuration":105633,"Delta":298361521},{"NoteNumber":61,"Velocity":62,"Duration":105633,"SoundDuration":105633,"Delta":298361521},{"NoteNumber":66,"Velocity":72,"Duration":105882,"SoundDuration":105882,"Delta":298467155},{"NoteNumber":58,"Velocity":62,"Duration":105882,"SoundDuration":105882,"Delta":298467155},{"NoteNumber":69,"Velocity":77,"Duration":107527,"SoundDuration":107527,"Delta":298573038},{"NoteNumber":60,"Velocity":74,"Duration":107527,"SoundDuration":107527,"Delta":298573038},{"NoteNumber":63,"Velocity":74,"Duration":105759,"SoundDuration":105759,"Delta":298680565},{"NoteNumber":61,"Velocity":62,"Duration":105759,"SoundDuration":105759,"Delta":298680565},{"NoteNumber":69,"Velocity":76,"Duration":105140,"SoundDuration":105140,"Delta":298786324},{"NoteNumber":60,"Velocity":63,"Duration":105140,"SoundDuration":105140,"Delta":298786324},{"NoteNumber":72,"Velocity":78,"Duration":104773,"SoundDuration":104773,"Delta":298891464},{"NoteNumber":58,"Velocity":63,"Duration":104773,"SoundDuration":104773,"Delta":298891464},{"NoteNumber":75,"Velocity":80,"Duration":104408,"SoundDuration":104408,"Delta":298996238},{"NoteNumber":57,"Velocity":70,"Duration":104408,"SoundDuration":104408,"Delta":298996238},{"NoteNumber":77,"Velocity":76,"Duration":104046,"SoundDuration":104046,"Delta":299100646},{"NoteNumber":51,"Velocity":59,"Duration":104046,"SoundDuration":104046,"Delta":299100646},{"NoteNumber":75,"Velocity":76,"Duration":103686,"SoundDuration":103686,"Delta":299204693},{"NoteNumber":57,"Velocity":62,"Duration":103686,"SoundDuration":103686,"Delta":299204693},{"NoteNumber":73,"Velocity":77,"Duration":103329,"SoundDuration":103329,"Delta":299308380},{"NoteNumber":60,"Velocity":65,"Duration":103329,"SoundDuration":103329,"Delta":299308380},{"NoteNumber":72,"Velocity":78,"Duration":103211,"SoundDuration":103211,"Delta":299411709},{"NoteNumber":63,"Velocity":71,"Duration":103211,"SoundDuration":103211,"Delta":299411709},{"NoteNumber":73,"Velocity":72,"Duration":103567,"SoundDuration":103567,"Delta":299514921},{"NoteNumber":65,"Velocity":65,"Duration":103567,"SoundDuration":103567,"Delta":299514921},{"NoteNumber":72,"Velocity":73,"Duration":103926,"SoundDuration":103926,"Delta":299618488},{"NoteNumber":63,"Velocity":65,"Duration":103926,"SoundDuration":103926,"Delta":299618488},{"NoteNumber":70,"Velocity":73,"Duration":104408,"SoundDuration":104408,"Delta":299722415},{"NoteNumber":61,"Velocity":65,"Duration":104408,"SoundDuration":104408,"Delta":299722415},{"NoteNumber":69,"Velocity":80,"Duration":104773,"SoundDuration":104773,"Delta":299826823},{"NoteNumber":60,"Velocity":72,"Duration":104773,"SoundDuration":104773,"Delta":299826823},{"NoteNumber":70,"Velocity":75,"Duration":105140,"SoundDuration":105140,"Delta":299931596},{"NoteNumber":61,"Velocity":64,"Duration":105140,"SoundDuration":105140,"Delta":299931596},{"NoteNumber":72,"Velocity":75,"Duration":105633,"SoundDuration":105633,"Delta":300036737},{"NoteNumber":63,"Velocity":64,"Duration":105633,"SoundDuration":105633,"Delta":300036737},{"NoteNumber":69,"Velocity":74,"Duration":105882,"SoundDuration":105882,"Delta":300142371},{"NoteNumber":60,"Velocity":64,"Duration":105882,"SoundDuration":105882,"Delta":300142371},{"NoteNumber":70,"Velocity":90,"Duration":107527,"SoundDuration":107527,"Delta":300248253},{"NoteNumber":61,"Velocity":70,"Duration":107527,"SoundDuration":107527,"Delta":300248253},{"NoteNumber":65,"Velocity":76,"Duration":105944,"SoundDuration":105944,"Delta":300355780},{"NoteNumber":53,"Velocity":59,"Duration":105944,"SoundDuration":105944,"Delta":300355780},{"NoteNumber":70,"Velocity":79,"Duration":105633,"SoundDuration":105633,"Delta":300461725},{"NoteNumber":58,"Velocity":63,"Duration":105633,"SoundDuration":105633,"Delta":300461725},{"NoteNumber":73,"Velocity":82,"Duration":105633,"SoundDuration":105633,"Delta":300567359},{"NoteNumber":61,"Velocity":66,"Duration":105633,"SoundDuration":105633,"Delta":300567359},{"NoteNumber":77,"Velocity":83,"Duration":105263,"SoundDuration":105263,"Delta":300672993},{"NoteNumber":65,"Velocity":65,"Duration":105263,"SoundDuration":105263,"Delta":300672993},{"NoteNumber":78,"Velocity":83,"Duration":105263,"SoundDuration":105263,"Delta":300778256},{"NoteNumber":66,"Velocity":65,"Duration":105263,"SoundDuration":105263,"Delta":300778256},{"NoteNumber":77,"Velocity":82,"Duration":104894,"SoundDuration":104894,"Delta":300883519},{"NoteNumber":65,"Velocity":65,"Duration":104894,"SoundDuration":104894,"Delta":300883519},{"NoteNumber":75,"Velocity":82,"Duration":104652,"SoundDuration":104652,"Delta":300988414},{"NoteNumber":63,"Velocity":64,"Duration":104652,"SoundDuration":104652,"Delta":300988414},{"NoteNumber":73,"Velocity":81,"Duration":104166,"SoundDuration":104166,"Delta":301093066},{"NoteNumber":61,"Velocity":64,"Duration":104166,"SoundDuration":104166,"Delta":301093066},{"NoteNumber":72,"Velocity":81,"Duration":104166,"SoundDuration":104166,"Delta":301197233},{"NoteNumber":60,"Velocity":64,"Duration":104166,"SoundDuration":104166,"Delta":301197233},{"NoteNumber":70,"Velocity":80,"Duration":104166,"SoundDuration":104166,"Delta":301301400},{"NoteNumber":58,"Velocity":63,"Duration":104166,"SoundDuration":104166,"Delta":301301400},{"NoteNumber":68,"Velocity":80,"Duration":103806,"SoundDuration":103806,"Delta":301405567},{"NoteNumber":56,"Velocity":63,"Duration":103806,"SoundDuration":103806,"Delta":301405567},{"NoteNumber":66,"Velocity":79,"Duration":103806,"SoundDuration":103806,"Delta":301509373},{"NoteNumber":54,"Velocity":62,"Duration":103806,"SoundDuration":103806,"Delta":301509373},{"NoteNumber":65,"Velocity":79,"Duration":103686,"SoundDuration":103686,"Delta":301613179},{"NoteNumber":53,"Velocity":62,"Duration":103686,"SoundDuration":103686,"Delta":301613179},{"NoteNumber":63,"Velocity":78,"Duration":103448,"SoundDuration":103448,"Delta":301716866},{"NoteNumber":51,"Velocity":62,"Duration":103448,"SoundDuration":103448,"Delta":301716866},{"NoteNumber":61,"Velocity":78,"Duration":103448,"SoundDuration":103448,"Delta":301820314},{"NoteNumber":49,"Velocity":61,"Duration":103448,"SoundDuration":103448,"Delta":301820314},{"NoteNumber":60,"Velocity":77,"Duration":103211,"SoundDuration":103211,"Delta":301923762},{"NoteNumber":48,"Velocity":61,"Duration":103211,"SoundDuration":103211,"Delta":301923762},{"NoteNumber":58,"Velocity":77,"Duration":103092,"SoundDuration":103092,"Delta":302026974},{"NoteNumber":46,"Velocity":61,"Duration":103092,"SoundDuration":103092,"Delta":302026974},{"NoteNumber":56,"Velocity":76,"Duration":103092,"SoundDuration":103092,"Delta":302130066},{"NoteNumber":44,"Velocity":60,"Duration":103092,"SoundDuration":103092,"Delta":302130066},{"NoteNumber":54,"Velocity":76,"Duration":103329,"SoundDuration":103329,"Delta":302233159},{"NoteNumber":42,"Velocity":60,"Duration":103329,"SoundDuration":103329,"Delta":302233159},{"NoteNumber":53,"Velocity":73,"Duration":103448,"SoundDuration":103448,"Delta":302336489},{"NoteNumber":41,"Velocity":59,"Duration":103448,"SoundDuration":103448,"Delta":302336489},{"NoteNumber":51,"Velocity":73,"Duration":103448,"SoundDuration":103448,"Delta":302439937},{"NoteNumber":39,"Velocity":59,"Duration":103448,"SoundDuration":103448,"Delta":302439937},{"NoteNumber":49,"Velocity":74,"Duration":103806,"SoundDuration":103806,"Delta":302543385},{"NoteNumber":37,"Velocity":59,"Duration":103806,"SoundDuration":103806,"Delta":302543385},{"NoteNumber":48,"Velocity":76,"Duration":103806,"SoundDuration":103806,"Delta":302647192},{"NoteNumber":36,"Velocity":59,"Duration":103806,"SoundDuration":103806,"Delta":302647192},{"NoteNumber":46,"Velocity":78,"Duration":103806,"SoundDuration":103806,"Delta":302750998},{"NoteNumber":34,"Velocity":59,"Duration":103806,"SoundDuration":103806,"Delta":302750998},{"NoteNumber":48,"Velocity":79,"Duration":104166,"SoundDuration":104166,"Delta":302854804},{"NoteNumber":36,"Velocity":59,"Duration":104166,"SoundDuration":104166,"Delta":302854804},{"NoteNumber":49,"Velocity":81,"Duration":104166,"SoundDuration":104166,"Delta":302958971},{"NoteNumber":37,"Velocity":62,"Duration":104166,"SoundDuration":104166,"Delta":302958971},{"NoteNumber":46,"Velocity":82,"Duration":104287,"SoundDuration":104287,"Delta":303063138},{"NoteNumber":36,"Velocity":64,"Duration":104287,"SoundDuration":104287,"Delta":303063138},{"NoteNumber":46,"Velocity":82,"Duration":247933,"SoundDuration":247933,"Delta":303167425},{"NoteNumber":34,"Velocity":65,"Duration":247933,"SoundDuration":247933,"Delta":303167425},{"NoteNumber":47,"Velocity":77,"Duration":327869,"SoundDuration":327869,"Delta":303415359},{"NoteNumber":50,"Velocity":77,"Duration":327869,"SoundDuration":327869,"Delta":303415359},{"NoteNumber":53,"Velocity":77,"Duration":327869,"SoundDuration":327869,"Delta":303415359},{"NoteNumber":56,"Velocity":90,"Duration":327869,"SoundDuration":327869,"Delta":303415359},{"NoteNumber":35,"Velocity":72,"Duration":327869,"SoundDuration":327869,"Delta":303415359},{"NoteNumber":48,"Velocity":82,"Duration":107527,"SoundDuration":107527,"Delta":303743228},{"NoteNumber":52,"Velocity":82,"Duration":107527,"SoundDuration":107527,"Delta":303743228},{"NoteNumber":55,"Velocity":98,"Duration":107527,"SoundDuration":107527,"Delta":303743228},{"NoteNumber":36,"Velocity":89,"Duration":107527,"SoundDuration":107527,"Delta":303743228},{"NoteNumber":48,"Velocity":66,"Duration":107527,"SoundDuration":107527,"Delta":303850755},{"NoteNumber":60,"Velocity":66,"Duration":107527,"SoundDuration":107527,"Delta":303850755},{"NoteNumber":40,"Velocity":76,"Duration":107527,"SoundDuration":107527,"Delta":303958282},{"NoteNumber":60,"Velocity":66,"Duration":107270,"SoundDuration":107270,"Delta":304065809},{"NoteNumber":48,"Velocity":66,"Duration":107270,"SoundDuration":107270,"Delta":304065809},{"NoteNumber":36,"Velocity":76,"Duration":107142,"SoundDuration":107142,"Delta":304173080},{"NoteNumber":60,"Velocity":66,"Duration":107142,"SoundDuration":107142,"Delta":304280223},{"NoteNumber":48,"Velocity":66,"Duration":107142,"SoundDuration":107142,"Delta":304280223},{"NoteNumber":41,"Velocity":76,"Duration":107015,"SoundDuration":107015,"Delta":304387366},{"NoteNumber":60,"Velocity":66,"Duration":106761,"SoundDuration":106761,"Delta":304494381},{"NoteNumber":48,"Velocity":66,"Duration":106761,"SoundDuration":106761,"Delta":304494381},{"NoteNumber":36,"Velocity":76,"Duration":106761,"SoundDuration":106761,"Delta":304601143},{"NoteNumber":60,"Velocity":66,"Duration":106635,"SoundDuration":106635,"Delta":304707904},{"NoteNumber":48,"Velocity":66,"Duration":106635,"SoundDuration":106635,"Delta":304707904},{"NoteNumber":43,"Velocity":76,"Duration":106382,"SoundDuration":106382,"Delta":304814540},{"NoteNumber":60,"Velocity":66,"Duration":106382,"SoundDuration":106382,"Delta":304920923},{"NoteNumber":48,"Velocity":66,"Duration":106382,"SoundDuration":106382,"Delta":304920923},{"NoteNumber":36,"Velocity":76,"Duration":106383,"SoundDuration":106383,"Delta":305027306},{"NoteNumber":60,"Velocity":66,"Duration":106006,"SoundDuration":106006,"Delta":305133689},{"NoteNumber":48,"Velocity":66,"Duration":106006,"SoundDuration":106006,"Delta":305133689},{"NoteNumber":44,"Velocity":76,"Duration":106007,"SoundDuration":106007,"Delta":305239696},{"NoteNumber":60,"Velocity":66,"Duration":106006,"SoundDuration":106006,"Delta":305345703},{"NoteNumber":48,"Velocity":66,"Duration":106006,"SoundDuration":106006,"Delta":305345703},{"NoteNumber":36,"Velocity":74,"Duration":106007,"SoundDuration":106007,"Delta":305451710},{"NoteNumber":60,"Velocity":64,"Duration":106006,"SoundDuration":106006,"Delta":305557717},{"NoteNumber":72,"Velocity":64,"Duration":106006,"SoundDuration":106006,"Delta":305557717},{"NoteNumber":46,"Velocity":74,"Duration":104894,"SoundDuration":104894,"Delta":305663724},{"NoteNumber":60,"Velocity":64,"Duration":104894,"SoundDuration":104894,"Delta":305768619},{"NoteNumber":72,"Velocity":64,"Duration":104894,"SoundDuration":104894,"Delta":305768619},{"NoteNumber":36,"Velocity":75,"Duration":104894,"SoundDuration":104894,"Delta":305873514},{"NoteNumber":60,"Velocity":65,"Duration":104651,"SoundDuration":104651,"Delta":305978409},{"NoteNumber":72,"Velocity":65,"Duration":104651,"SoundDuration":104651,"Delta":305978409},{"NoteNumber":44,"Velocity":76,"Duration":104529,"SoundDuration":104529,"Delta":306083060},{"NoteNumber":60,"Velocity":66,"Duration":104529,"SoundDuration":104529,"Delta":306187590},{"NoteNumber":72,"Velocity":66,"Duration":104529,"SoundDuration":104529,"Delta":306187590},{"NoteNumber":36,"Velocity":77,"Duration":104287,"SoundDuration":104287,"Delta":306292119},{"NoteNumber":60,"Velocity":64,"Duration":104166,"SoundDuration":104166,"Delta":306396407},{"NoteNumber":72,"Velocity":64,"Duration":104166,"SoundDuration":104166,"Delta":306396407},{"NoteNumber":43,"Velocity":78,"Duration":104166,"SoundDuration":104166,"Delta":306500573},{"NoteNumber":60,"Velocity":64,"Duration":104166,"SoundDuration":104166,"Delta":306604740},{"NoteNumber":72,"Velocity":64,"Duration":104166,"SoundDuration":104166,"Delta":306604740},{"NoteNumber":36,"Velocity":79,"Duration":104166,"SoundDuration":104166,"Delta":306708907},{"NoteNumber":60,"Velocity":65,"Duration":104166,"SoundDuration":104166,"Delta":306813074},{"NoteNumber":72,"Velocity":65,"Duration":104166,"SoundDuration":104166,"Delta":306813074},{"NoteNumber":41,"Velocity":80,"Duration":104166,"SoundDuration":104166,"Delta":306917240},{"NoteNumber":60,"Velocity":66,"Duration":104166,"SoundDuration":104166,"Delta":307021407},{"NoteNumber":72,"Velocity":66,"Duration":104166,"SoundDuration":104166,"Delta":307021407},{"NoteNumber":36,"Velocity":81,"Duration":104894,"SoundDuration":104894,"Delta":307125574},{"NoteNumber":72,"Velocity":67,"Duration":105140,"SoundDuration":105140,"Delta":307230469},{"NoteNumber":84,"Velocity":67,"Duration":105140,"SoundDuration":105140,"Delta":307230469},{"NoteNumber":40,"Velocity":82,"Duration":105510,"SoundDuration":105510,"Delta":307335609},{"NoteNumber":72,"Velocity":68,"Duration":105758,"SoundDuration":105758,"Delta":307441120},{"NoteNumber":84,"Velocity":68,"Duration":105758,"SoundDuration":105758,"Delta":307441120},{"NoteNumber":36,"Velocity":82,"Duration":106132,"SoundDuration":106132,"Delta":307546878},{"NoteNumber":72,"Velocity":69,"Duration":106509,"SoundDuration":106509,"Delta":307653010},{"NoteNumber":84,"Velocity":69,"Duration":106509,"SoundDuration":106509,"Delta":307653010},{"NoteNumber":41,"Velocity":83,"Duration":106761,"SoundDuration":106761,"Delta":307759519},{"NoteNumber":72,"Velocity":70,"Duration":107142,"SoundDuration":107142,"Delta":307866281},{"NoteNumber":84,"Velocity":70,"Duration":107142,"SoundDuration":107142,"Delta":307866281},{"NoteNumber":36,"Velocity":84,"Duration":107527,"SoundDuration":107527,"Delta":307973424},{"NoteNumber":72,"Velocity":71,"Duration":107913,"SoundDuration":107913,"Delta":308080951},{"NoteNumber":84,"Velocity":71,"Duration":107913,"SoundDuration":107913,"Delta":308080951},{"NoteNumber":43,"Velocity":85,"Duration":108173,"SoundDuration":108173,"Delta":308188864},{"NoteNumber":72,"Velocity":72,"Duration":108564,"SoundDuration":108564,"Delta":308297038},{"NoteNumber":84,"Velocity":72,"Duration":108564,"SoundDuration":108564,"Delta":308297038},{"NoteNumber":36,"Velocity":86,"Duration":108959,"SoundDuration":108959,"Delta":308405603},{"NoteNumber":72,"Velocity":73,"Duration":109223,"SoundDuration":109223,"Delta":308514562},{"NoteNumber":84,"Velocity":73,"Duration":109223,"SoundDuration":109223,"Delta":308514562},{"NoteNumber":44,"Velocity":87,"Duration":109622,"SoundDuration":109622,"Delta":308623786},{"NoteNumber":72,"Velocity":74,"Duration":110295,"SoundDuration":110295,"Delta":308733408},{"NoteNumber":84,"Velocity":74,"Duration":110295,"SoundDuration":110295,"Delta":308733408},{"NoteNumber":36,"Velocity":88,"Duration":110837,"SoundDuration":110837,"Delta":308843703},{"NoteNumber":84,"Velocity":75,"Duration":111386,"SoundDuration":111386,"Delta":308954541},{"NoteNumber":96,"Velocity":75,"Duration":111386,"SoundDuration":111386,"Delta":308954541},{"NoteNumber":45,"Velocity":89,"Duration":111940,"SoundDuration":111940,"Delta":309065927},{"NoteNumber":84,"Velocity":76,"Duration":112500,"SoundDuration":112500,"Delta":309177868},{"NoteNumber":96,"Velocity":76,"Duration":112500,"SoundDuration":112500,"Delta":309177868},{"NoteNumber":36,"Velocity":91,"Duration":113065,"SoundDuration":113065,"Delta":309290368},{"NoteNumber":84,"Velocity":78,"Duration":113493,"SoundDuration":113493,"Delta":309403434},{"NoteNumber":96,"Velocity":78,"Duration":113493,"SoundDuration":113493,"Delta":309403434},{"NoteNumber":46,"Velocity":92,"Duration":114213,"SoundDuration":114213,"Delta":309516927},{"NoteNumber":84,"Velocity":81,"Duration":114649,"SoundDuration":114649,"Delta":309631141},{"NoteNumber":96,"Velocity":81,"Duration":114649,"SoundDuration":114649,"Delta":309631141},{"NoteNumber":36,"Velocity":94,"Duration":115237,"SoundDuration":115237,"Delta":309745791},{"NoteNumber":84,"Velocity":82,"Duration":115830,"SoundDuration":115830,"Delta":309861028},{"NoteNumber":96,"Velocity":82,"Duration":115830,"SoundDuration":115830,"Delta":309861028},{"NoteNumber":47,"Velocity":96,"Duration":116429,"SoundDuration":116429,"Delta":309976858},{"NoteNumber":84,"Velocity":84,"Duration":117035,"SoundDuration":117035,"Delta":310093288},{"NoteNumber":96,"Velocity":84,"Duration":117035,"SoundDuration":117035,"Delta":310093288},{"NoteNumber":36,"Velocity":99,"Duration":115845,"SoundDuration":115845,"Delta":310210323},{"NoteNumber":84,"Velocity":86,"Duration":121794,"SoundDuration":121794,"Delta":310326168},{"NoteNumber":96,"Velocity":86,"Duration":121794,"SoundDuration":121794,"Delta":310326168},{"NoteNumber":48,"Velocity":101,"Duration":137614,"SoundDuration":137614,"Delta":310447963},{"NoteNumber":84,"Velocity":88,"Duration":137614,"SoundDuration":137614,"Delta":310585578},{"NoteNumber":96,"Velocity":88,"Duration":137614,"SoundDuration":137614,"Delta":310585578},{"NoteNumber":34,"Velocity":86,"Duration":218253,"SoundDuration":218253,"Delta":310723193},{"NoteNumber":37,"Velocity":86,"Duration":218253,"SoundDuration":218253,"Delta":310723193},{"NoteNumber":42,"Velocity":86,"Duration":218253,"SoundDuration":218253,"Delta":310723193},{"NoteNumber":46,"Velocity":102,"Duration":218253,"SoundDuration":218253,"Delta":310723193},{"NoteNumber":49,"Velocity":72,"Duration":107142,"SoundDuration":107142,"Delta":310834304},{"NoteNumber":54,"Velocity":75,"Duration":107142,"SoundDuration":107142,"Delta":310941446},{"NoteNumber":58,"Velocity":76,"Duration":107142,"SoundDuration":107142,"Delta":311048589},{"NoteNumber":61,"Velocity":90,"Duration":107142,"SoundDuration":107142,"Delta":311155732},{"NoteNumber":46,"Velocity":71,"Duration":107142,"SoundDuration":107142,"Delta":311262875},{"NoteNumber":49,"Velocity":74,"Duration":107142,"SoundDuration":107142,"Delta":311370017},{"NoteNumber":54,"Velocity":76,"Duration":111940,"SoundDuration":111940,"Delta":311477160},{"NoteNumber":58,"Velocity":91,"Duration":107142,"SoundDuration":107142,"Delta":311589100},{"NoteNumber":61,"Velocity":72,"Duration":107142,"SoundDuration":107142,"Delta":311696243},{"NoteNumber":66,"Velocity":75,"Duration":107142,"SoundDuration":107142,"Delta":311803386},{"NoteNumber":70,"Velocity":76,"Duration":107142,"SoundDuration":107142,"Delta":311910529},{"NoteNumber":73,"Velocity":88,"Duration":107142,"SoundDuration":107142,"Delta":312017671},{"NoteNumber":58,"Velocity":73,"Duration":107142,"SoundDuration":107142,"Delta":312124814},{"NoteNumber":61,"Velocity":76,"Duration":107142,"SoundDuration":107142,"Delta":312231957},{"NoteNumber":66,"Velocity":78,"Duration":112359,"SoundDuration":112359,"Delta":312339100},{"NoteNumber":70,"Velocity":86,"Duration":107655,"SoundDuration":107655,"Delta":312451459},{"NoteNumber":73,"Velocity":77,"Duration":108696,"SoundDuration":108696,"Delta":312559115},{"NoteNumber":78,"Velocity":79,"Duration":109890,"SoundDuration":109890,"Delta":312667812},{"NoteNumber":82,"Velocity":81,"Duration":111112,"SoundDuration":111112,"Delta":312777703},{"NoteNumber":85,"Velocity":89,"Duration":214285,"SoundDuration":214285,"Delta":312888815},{"NoteNumber":36,"Velocity":79,"Duration":214285,"SoundDuration":214285,"Delta":314174528},{"NoteNumber":43,"Velocity":79,"Duration":214285,"SoundDuration":214285,"Delta":314174528},{"NoteNumber":46,"Velocity":94,"Duration":214285,"SoundDuration":214285,"Delta":314174528},{"NoteNumber":48,"Velocity":97,"Duration":214285,"SoundDuration":214285,"Delta":314174528},{"NoteNumber":52,"Velocity":72,"Duration":107142,"SoundDuration":107142,"Delta":314281670},{"NoteNumber":55,"Velocity":75,"Duration":107142,"SoundDuration":107142,"Delta":314388813},{"NoteNumber":58,"Velocity":76,"Duration":107142,"SoundDuration":107142,"Delta":314495956},{"NoteNumber":64,"Velocity":89,"Duration":107142,"SoundDuration":107142,"Delta":314603099},{"NoteNumber":48,"Velocity":71,"Duration":107142,"SoundDuration":107142,"Delta":314710241},{"NoteNumber":55,"Velocity":74,"Duration":107142,"SoundDuration":107142,"Delta":314817384},{"NoteNumber":58,"Velocity":76,"Duration":112781,"SoundDuration":112781,"Delta":314924527},{"NoteNumber":60,"Velocity":90,"Duration":107142,"SoundDuration":107142,"Delta":315037309},{"NoteNumber":64,"Velocity":72,"Duration":107142,"SoundDuration":107142,"Delta":315144452},{"NoteNumber":67,"Velocity":75,"Duration":107142,"SoundDuration":107142,"Delta":315251594},{"NoteNumber":70,"Velocity":76,"Duration":107142,"SoundDuration":107142,"Delta":315358737},{"NoteNumber":76,"Velocity":87,"Duration":107142,"SoundDuration":107142,"Delta":315465880},{"NoteNumber":60,"Velocity":73,"Duration":107142,"SoundDuration":107142,"Delta":315573023},{"NoteNumber":67,"Velocity":76,"Duration":107142,"SoundDuration":107142,"Delta":315680165},{"NoteNumber":70,"Velocity":78,"Duration":112359,"SoundDuration":112359,"Delta":315787308},{"NoteNumber":72,"Velocity":89,"Duration":107270,"SoundDuration":107270,"Delta":315899668},{"NoteNumber":76,"Velocity":77,"Duration":108043,"SoundDuration":108043,"Delta":316006939},{"NoteNumber":79,"Velocity":79,"Duration":108959,"SoundDuration":108959,"Delta":316114982},{"NoteNumber":82,"Velocity":81,"Duration":109890,"SoundDuration":109890,"Delta":316223941},{"NoteNumber":88,"Velocity":93,"Duration":214285,"SoundDuration":214285,"Delta":316333832},{"NoteNumber":37,"Velocity":58,"Duration":142856,"SoundDuration":142856,"Delta":317619545},{"NoteNumber":49,"Velocity":50,"Duration":142857,"SoundDuration":142857,"Delta":317762402},{"NoteNumber":52,"Velocity":50,"Duration":142856,"SoundDuration":142856,"Delta":317905259},{"NoteNumber":55,"Velocity":50,"Duration":107270,"SoundDuration":107270,"Delta":318048116},{"NoteNumber":58,"Velocity":54,"Duration":108304,"SoundDuration":108304,"Delta":318155387},{"NoteNumber":61,"Velocity":51,"Duration":109091,"SoundDuration":109091,"Delta":318263691},{"NoteNumber":64,"Velocity":53,"Duration":110294,"SoundDuration":110294,"Delta":318372783},{"NoteNumber":67,"Velocity":54,"Duration":214285,"SoundDuration":214285,"Delta":318483078},{"NoteNumber":40,"Velocity":55,"Duration":142856,"SoundDuration":142856,"Delta":319340220},{"NoteNumber":52,"Velocity":47,"Duration":142856,"SoundDuration":142856,"Delta":319483077},{"NoteNumber":55,"Velocity":47,"Duration":142856,"SoundDuration":142856,"Delta":319625934},{"NoteNumber":58,"Velocity":47,"Duration":107655,"SoundDuration":107655,"Delta":319768791},{"NoteNumber":61,"Velocity":51,"Duration":108696,"SoundDuration":108696,"Delta":319876447},{"NoteNumber":64,"Velocity":48,"Duration":109890,"SoundDuration":109890,"Delta":319985144},{"NoteNumber":67,"Velocity":50,"Duration":111112,"SoundDuration":111112,"Delta":320095035},{"NoteNumber":70,"Velocity":51,"Duration":214285,"SoundDuration":214285,"Delta":320206147},{"NoteNumber":43,"Velocity":52,"Duration":142856,"SoundDuration":142856,"Delta":321063289},{"NoteNumber":55,"Velocity":44,"Duration":142856,"SoundDuration":142856,"Delta":321206146},{"NoteNumber":58,"Velocity":44,"Duration":142856,"SoundDuration":142856,"Delta":321349003},{"NoteNumber":61,"Velocity":44,"Duration":107142,"SoundDuration":107142,"Delta":321491860},{"NoteNumber":64,"Velocity":48,"Duration":107142,"SoundDuration":107142,"Delta":321599003},{"NoteNumber":67,"Velocity":45,"Duration":107142,"SoundDuration":107142,"Delta":321706146},{"NoteNumber":70,"Velocity":47,"Duration":107142,"SoundDuration":107142,"Delta":321813288},{"NoteNumber":73,"Velocity":48,"Duration":214285,"SoundDuration":214285,"Delta":321920431},{"NoteNumber":46,"Velocity":49,"Duration":142857,"SoundDuration":142857,"Delta":322777573},{"NoteNumber":58,"Velocity":41,"Duration":142856,"SoundDuration":142856,"Delta":322920430},{"NoteNumber":61,"Velocity":41,"Duration":142856,"SoundDuration":142856,"Delta":323063287},{"NoteNumber":64,"Velocity":41,"Duration":107142,"SoundDuration":107142,"Delta":323206144},{"NoteNumber":67,"Velocity":45,"Duration":107142,"SoundDuration":107142,"Delta":323313287},{"NoteNumber":70,"Velocity":42,"Duration":107142,"SoundDuration":107142,"Delta":323420430},{"NoteNumber":73,"Velocity":44,"Duration":107142,"SoundDuration":107142,"Delta":323527572},{"NoteNumber":76,"Velocity":45,"Duration":214285,"SoundDuration":214285,"Delta":323634715},{"NoteNumber":49,"Velocity":40,"Duration":214285,"SoundDuration":214285,"Delta":324491857},{"NoteNumber":52,"Velocity":36,"Duration":214285,"SoundDuration":214285,"Delta":324706143},{"NoteNumber":55,"Velocity":36,"Duration":214285,"SoundDuration":214285,"Delta":324920428},{"NoteNumber":58,"Velocity":36,"Duration":214285,"SoundDuration":214285,"Delta":325134714},{"NoteNumber":61,"Velocity":35,"Duration":214285,"SoundDuration":214285,"Delta":325348999},{"NoteNumber":64,"Velocity":36,"Duration":214285,"SoundDuration":214285,"Delta":325563285},{"NoteNumber":67,"Velocity":37,"Duration":214285,"SoundDuration":214285,"Delta":325777570},{"NoteNumber":70,"Velocity":38,"Duration":214285,"SoundDuration":214285,"Delta":325991856},{"NoteNumber":73,"Velocity":39,"Duration":214285,"SoundDuration":214285,"Delta":326206141},{"NoteNumber":76,"Velocity":40,"Duration":214285,"SoundDuration":214285,"Delta":326420427},{"NoteNumber":79,"Velocity":40,"Duration":214285,"SoundDuration":214285,"Delta":326634712},{"NoteNumber":82,"Velocity":41,"Duration":214285,"SoundDuration":214285,"Delta":326848998},{"NoteNumber":85,"Velocity":42,"Duration":214285,"SoundDuration":214285,"Delta":327063283},{"NoteNumber":88,"Velocity":43,"Duration":214285,"SoundDuration":214285,"Delta":327277569},{"NoteNumber":91,"Velocity":44,"Duration":214285,"SoundDuration":214285,"Delta":327491854},{"NoteNumber":94,"Velocity":46,"Duration":214285,"SoundDuration":214285,"Delta":327706140},{"NoteNumber":91,"Velocity":46,"Duration":214285,"SoundDuration":214285,"Delta":327920425},{"NoteNumber":88,"Velocity":45,"Duration":214285,"SoundDuration":214285,"Delta":328134711},{"NoteNumber":85,"Velocity":45,"Duration":214285,"SoundDuration":214285,"Delta":328348996},{"NoteNumber":82,"Velocity":44,"Duration":214285,"SoundDuration":214285,"Delta":328563282},{"NoteNumber":79,"Velocity":44,"Duration":214285,"SoundDuration":214285,"Delta":328777567},{"NoteNumber":76,"Velocity":43,"Duration":214285,"SoundDuration":214285,"Delta":328991853},{"NoteNumber":73,"Velocity":43,"Duration":214285,"SoundDuration":214285,"Delta":329206138},{"NoteNumber":70,"Velocity":42,"Duration":214285,"SoundDuration":214285,"Delta":329420424},{"NoteNumber":67,"Velocity":42,"Duration":214285,"SoundDuration":214285,"Delta":329634709},{"NoteNumber":64,"Velocity":41,"Duration":214285,"SoundDuration":214285,"Delta":329848995},{"NoteNumber":61,"Velocity":40,"Duration":214285,"SoundDuration":214285,"Delta":330063280},{"NoteNumber":58,"Velocity":38,"Duration":214285,"SoundDuration":214285,"Delta":330277566},{"NoteNumber":55,"Velocity":38,"Duration":214285,"SoundDuration":214285,"Delta":330491851},{"NoteNumber":52,"Velocity":37,"Duration":214285,"SoundDuration":214285,"Delta":330706137},{"NoteNumber":49,"Velocity":36,"Duration":214285,"SoundDuration":214285,"Delta":330920422},{"NoteNumber":46,"Velocity":35,"Duration":214285,"SoundDuration":214285,"Delta":331134708},{"NoteNumber":43,"Velocity":35,"Duration":857141,"SoundDuration":857141,"Delta":331348993},{"NoteNumber":40,"Velocity":36,"Duration":857142,"SoundDuration":857142,"Delta":332206135},{"NoteNumber":37,"Velocity":35,"Duration":857142,"SoundDuration":857142,"Delta":333063277},{"NoteNumber":34,"Velocity":34,"Duration":857142,"SoundDuration":857142,"Delta":333920419},{"NoteNumber":31,"Velocity":34,"Duration":1714284,"SoundDuration":1714284,"Delta":334777561},{"NoteNumber":52,"Velocity":34,"Duration":642856,"SoundDuration":642856,"Delta":336491845},{"NoteNumber":48,"Velocity":34,"Duration":642856,"SoundDuration":642856,"Delta":336491845},{"NoteNumber":46,"Velocity":34,"Duration":642856,"SoundDuration":642856,"Delta":336491845},{"NoteNumber":43,"Velocity":34,"Duration":642856,"SoundDuration":642856,"Delta":336491845},{"NoteNumber":36,"Velocity":34,"Duration":5035709,"SoundDuration":5035709,"Delta":336491845},{"NoteNumber":55,"Velocity":34,"Duration":642856,"SoundDuration":642856,"Delta":338206129},{"NoteNumber":58,"Velocity":34,"Duration":642856,"SoundDuration":642856,"Delta":338206129},{"NoteNumber":60,"Velocity":34,"Duration":642856,"SoundDuration":642856,"Delta":338206129},{"NoteNumber":64,"Velocity":34,"Duration":642856,"SoundDuration":642856,"Delta":338206129},{"NoteNumber":67,"Velocity":34,"Duration":642856,"SoundDuration":642856,"Delta":339063271},{"NoteNumber":70,"Velocity":34,"Duration":642856,"SoundDuration":642856,"Delta":339063271},{"NoteNumber":72,"Velocity":34,"Duration":642856,"SoundDuration":642856,"Delta":339063271},{"NoteNumber":76,"Velocity":34,"Duration":642856,"SoundDuration":642856,"Delta":339063271},{"NoteNumber":88,"Velocity":34,"Duration":642856,"SoundDuration":642856,"Delta":339920413},{"NoteNumber":84,"Velocity":34,"Duration":642856,"SoundDuration":642856,"Delta":339920413},{"NoteNumber":82,"Velocity":34,"Duration":642856,"SoundDuration":642856,"Delta":339920413},{"NoteNumber":79,"Velocity":34,"Duration":642856,"SoundDuration":642856,"Delta":339920413},{"NoteNumber":43,"Velocity":34,"Duration":642856,"SoundDuration":642856,"Delta":340777555},{"NoteNumber":46,"Velocity":34,"Duration":642856,"SoundDuration":642856,"Delta":340777555},{"NoteNumber":48,"Velocity":34,"Duration":642856,"SoundDuration":642856,"Delta":340777555},{"NoteNumber":52,"Velocity":34,"Duration":642856,"SoundDuration":642856,"Delta":340777555},{"NoteNumber":36,"Velocity":34,"Duration":107142,"SoundDuration":107142,"Delta":341527554},{"NoteNumber":41,"Velocity":39,"Duration":415588,"SoundDuration":415588,"Delta":341634697},{"NoteNumber":29,"Velocity":39,"Duration":415588,"SoundDuration":415588,"Delta":341634697},{"NoteNumber":48,"Velocity":40,"Duration":104094,"SoundDuration":104094,"Delta":341738936},{"NoteNumber":53,"Velocity":37,"Duration":103806,"SoundDuration":103806,"Delta":341843031},{"NoteNumber":56,"Velocity":37,"Duration":103448,"SoundDuration":103448,"Delta":341946837},{"NoteNumber":60,"Velocity":40,"Duration":103092,"SoundDuration":103092,"Delta":342050285},{"NoteNumber":61,"Velocity":38,"Duration":103092,"SoundDuration":103092,"Delta":342153378},{"NoteNumber":60,"Velocity":38,"Duration":103211,"SoundDuration":103211,"Delta":342256471},{"NoteNumber":58,"Velocity":38,"Duration":103448,"SoundDuration":103448,"Delta":342359682},{"NoteNumber":56,"Velocity":40,"Duration":103448,"SoundDuration":103448,"Delta":342463130},{"NoteNumber":58,"Velocity":37,"Duration":103686,"SoundDuration":103686,"Delta":342566579},{"NoteNumber":56,"Velocity":37,"Duration":103806,"SoundDuration":103806,"Delta":342670265},{"NoteNumber":55,"Velocity":37,"Duration":103806,"SoundDuration":103806,"Delta":342774072},{"NoteNumber":53,"Velocity":40,"Duration":104166,"SoundDuration":104166,"Delta":342877878},{"NoteNumber":55,"Velocity":37,"Duration":104166,"SoundDuration":104166,"Delta":342982045},{"NoteNumber":56,"Velocity":37,"Duration":104287,"SoundDuration":104287,"Delta":343086211},{"NoteNumber":53,"Velocity":37,"Duration":108498,"SoundDuration":108498,"Delta":343190499},{"NoteNumber":41,"Velocity":40,"Duration":416956,"SoundDuration":416956,"Delta":343298998},{"NoteNumber":29,"Velocity":40,"Duration":416956,"SoundDuration":416956,"Delta":343298998},{"NoteNumber":48,"Velocity":40,"Duration":104239,"SoundDuration":104239,"Delta":343403237},{"NoteNumber":53,"Velocity":37,"Duration":104239,"SoundDuration":104239,"Delta":343507476},{"NoteNumber":56,"Velocity":37,"Duration":104239,"SoundDuration":104239,"Delta":343611715},{"NoteNumber":60,"Velocity":40,"Duration":104238,"SoundDuration":104238,"Delta":343715954},{"NoteNumber":61,"Velocity":38,"Duration":104239,"SoundDuration":104239,"Delta":343820193},{"NoteNumber":60,"Velocity":38,"Duration":105835,"SoundDuration":105835,"Delta":343924432},{"NoteNumber":58,"Velocity":38,"Duration":105835,"SoundDuration":105835,"Delta":344030267},{"NoteNumber":68,"Velocity":51,"Duration":105835,"SoundDuration":105835,"Delta":344030267},{"NoteNumber":72,"Velocity":51,"Duration":105835,"SoundDuration":105835,"Delta":344030267},{"NoteNumber":56,"Velocity":40,"Duration":104137,"SoundDuration":104137,"Delta":344136102},{"NoteNumber":68,"Velocity":56,"Duration":416551,"SoundDuration":416551,"Delta":344136102},{"NoteNumber":72,"Velocity":56,"Duration":416551,"SoundDuration":416551,"Delta":344136102},{"NoteNumber":58,"Velocity":37,"Duration":104137,"SoundDuration":104137,"Delta":344240240},{"NoteNumber":56,"Velocity":37,"Duration":104137,"SoundDuration":104137,"Delta":344344378},{"NoteNumber":55,"Velocity":37,"Duration":104137,"SoundDuration":104137,"Delta":344448515},{"NoteNumber":53,"Velocity":40,"Duration":104137,"SoundDuration":104137,"Delta":344552653},{"NoteNumber":65,"Velocity":30,"Duration":208275,"SoundDuration":208275,"Delta":344552653},{"NoteNumber":68,"Velocity":30,"Duration":208275,"SoundDuration":208275,"Delta":344552653},{"NoteNumber":55,"Velocity":37,"Duration":104137,"SoundDuration":104137,"Delta":344656791},{"NoteNumber":56,"Velocity":37,"Duration":104137,"SoundDuration":104137,"Delta":344760929},{"NoteNumber":53,"Velocity":37,"Duration":108908,"SoundDuration":108908,"Delta":344865066},{"NoteNumber":46,"Velocity":40,"Duration":416956,"SoundDuration":416956,"Delta":344973975},{"NoteNumber":34,"Velocity":40,"Duration":416956,"SoundDuration":416956,"Delta":344973975},{"NoteNumber":49,"Velocity":44,"Duration":104239,"SoundDuration":104239,"Delta":345078214},{"NoteNumber":54,"Velocity":40,"Duration":104239,"SoundDuration":104239,"Delta":345182453},{"NoteNumber":58,"Velocity":40,"Duration":104239,"SoundDuration":104239,"Delta":345286692},{"NoteNumber":61,"Velocity":44,"Duration":104238,"SoundDuration":104238,"Delta":345390931},{"NoteNumber":63,"Velocity":41,"Duration":104239,"SoundDuration":104239,"Delta":345495170},{"NoteNumber":61,"Velocity":41,"Duration":106179,"SoundDuration":106179,"Delta":345599409},{"NoteNumber":60,"Velocity":41,"Duration":106179,"SoundDuration":106179,"Delta":345705589},{"NoteNumber":70,"Velocity":63,"Duration":106179,"SoundDuration":106179,"Delta":345705589},{"NoteNumber":73,"Velocity":63,"Duration":106179,"SoundDuration":106179,"Delta":345705589},{"NoteNumber":58,"Velocity":44,"Duration":104137,"SoundDuration":104137,"Delta":345811769},{"NoteNumber":70,"Velocity":70,"Duration":837873,"SoundDuration":837873,"Delta":345811769},{"NoteNumber":73,"Velocity":70,"Duration":837873,"SoundDuration":837873,"Delta":345811769},{"NoteNumber":60,"Velocity":40,"Duration":104137,"SoundDuration":104137,"Delta":345915906},{"NoteNumber":58,"Velocity":40,"Duration":104137,"SoundDuration":104137,"Delta":346020044},{"NoteNumber":56,"Velocity":40,"Duration":104137,"SoundDuration":104137,"Delta":346124182},{"NoteNumber":54,"Velocity":44,"Duration":104137,"SoundDuration":104137,"Delta":346228320},{"NoteNumber":56,"Velocity":40,"Duration":104137,"SoundDuration":104137,"Delta":346332457},{"NoteNumber":54,"Velocity":40,"Duration":104137,"SoundDuration":104137,"Delta":346436595},{"NoteNumber":53,"Velocity":40,"Duration":108908,"SoundDuration":108908,"Delta":346540733},{"NoteNumber":52,"Velocity":44,"Duration":105366,"SoundDuration":105366,"Delta":346649642},{"NoteNumber":70,"Velocity":51,"Duration":210733,"SoundDuration":210733,"Delta":346649642},{"NoteNumber":72,"Velocity":51,"Duration":210733,"SoundDuration":210733,"Delta":346649642},{"NoteNumber":53,"Velocity":40,"Duration":105366,"SoundDuration":105366,"Delta":346755008},{"NoteNumber":55,"Velocity":40,"Duration":105366,"SoundDuration":105366,"Delta":346860375},{"NoteNumber":48,"Velocity":43,"Duration":213865,"SoundDuration":213865,"Delta":346860375},{"NoteNumber":36,"Velocity":43,"Duration":213865,"SoundDuration":213865,"Delta":346860375},{"NoteNumber":52,"Velocity":40,"Duration":108498,"SoundDuration":108498,"Delta":346965742},{"NoteNumber":53,"Velocity":44,"Duration":105745,"SoundDuration":105745,"Delta":347074241},{"NoteNumber":55,"Velocity":40,"Duration":105745,"SoundDuration":105745,"Delta":347179986},{"NoteNumber":56,"Velocity":40,"Duration":105745,"SoundDuration":105745,"Delta":347285732},{"NoteNumber":49,"Velocity":37,"Duration":214654,"SoundDuration":214654,"Delta":347285732},{"NoteNumber":37,"Velocity":37,"Duration":214654,"SoundDuration":214654,"Delta":347285732},{"NoteNumber":53,"Velocity":40,"Duration":108908,"SoundDuration":108908,"Delta":347391477},{"NoteNumber":55,"Velocity":44,"Duration":106179,"SoundDuration":106179,"Delta":347500386},{"NoteNumber":56,"Velocity":40,"Duration":106179,"SoundDuration":106179,"Delta":347606566},{"NoteNumber":58,"Velocity":40,"Duration":106179,"SoundDuration":106179,"Delta":347712746},{"NoteNumber":46,"Velocity":39,"Duration":214678,"SoundDuration":214678,"Delta":347712746},{"NoteNumber":34,"Velocity":39,"Duration":214678,"SoundDuration":214678,"Delta":347712746},{"NoteNumber":55,"Velocity":40,"Duration":108498,"SoundDuration":108498,"Delta":347818925},{"NoteNumber":52,"Velocity":44,"Duration":105835,"SoundDuration":105835,"Delta":347927424},{"NoteNumber":53,"Velocity":37,"Duration":105835,"SoundDuration":105835,"Delta":348033259},{"NoteNumber":55,"Velocity":38,"Duration":105834,"SoundDuration":105834,"Delta":348139094},{"NoteNumber":48,"Velocity":35,"Duration":214743,"SoundDuration":214743,"Delta":348139094},{"NoteNumber":36,"Velocity":35,"Duration":214743,"SoundDuration":214743,"Delta":348139094},{"NoteNumber":52,"Velocity":40,"Duration":108908,"SoundDuration":108908,"Delta":348244929},{"NoteNumber":53,"Velocity":38,"Duration":444949,"SoundDuration":444949,"Delta":348353838},{"NoteNumber":29,"Velocity":40,"Duration":134602,"SoundDuration":134602,"Delta":348353838},{"NoteNumber":41,"Velocity":40,"Duration":134602,"SoundDuration":134602,"Delta":348353838},{"NoteNumber":48,"Velocity":37,"Duration":103806,"SoundDuration":103806,"Delta":348488440},{"NoteNumber":53,"Velocity":37,"Duration":103448,"SoundDuration":103448,"Delta":348592246},{"NoteNumber":56,"Velocity":40,"Duration":103092,"SoundDuration":103092,"Delta":348695695},{"NoteNumber":60,"Velocity":38,"Duration":103092,"SoundDuration":103092,"Delta":348798787},{"NoteNumber":61,"Velocity":38,"Duration":103211,"SoundDuration":103211,"Delta":348901880},{"NoteNumber":64,"Velocity":57,"Duration":106006,"SoundDuration":106006,"Delta":349005091},{"NoteNumber":60,"Velocity":38,"Duration":106006,"SoundDuration":106006,"Delta":349005091},{"NoteNumber":58,"Velocity":40,"Duration":106007,"SoundDuration":106007,"Delta":349111098},{"NoteNumber":65,"Velocity":62,"Duration":106382,"SoundDuration":106382,"Delta":349217105},{"NoteNumber":56,"Velocity":37,"Duration":106382,"SoundDuration":106382,"Delta":349217105},{"NoteNumber":58,"Velocity":37,"Duration":106382,"SoundDuration":106382,"Delta":349323488},{"NoteNumber":67,"Velocity":57,"Duration":106382,"SoundDuration":106382,"Delta":349429871},{"NoteNumber":56,"Velocity":37,"Duration":106382,"SoundDuration":106382,"Delta":349429871},{"NoteNumber":55,"Velocity":40,"Duration":104166,"SoundDuration":104166,"Delta":349536254},{"NoteNumber":68,"Velocity":62,"Duration":105263,"SoundDuration":105263,"Delta":349640421},{"NoteNumber":53,"Velocity":37,"Duration":105263,"SoundDuration":105263,"Delta":349640421},{"NoteNumber":55,"Velocity":37,"Duration":105018,"SoundDuration":105018,"Delta":349745684},{"NoteNumber":65,"Velocity":59,"Duration":108498,"SoundDuration":108498,"Delta":349850703},{"NoteNumber":56,"Velocity":37,"Duration":108498,"SoundDuration":108498,"Delta":349850703},{"NoteNumber":53,"Velocity":37,"Duration":104239,"SoundDuration":104239,"Delta":349959202},{"NoteNumber":56,"Velocity":40,"Duration":103092,"SoundDuration":103092,"Delta":350063441},{"NoteNumber":48,"Velocity":37,"Duration":103092,"SoundDuration":103092,"Delta":350166534},{"NoteNumber":53,"Velocity":37,"Duration":103092,"SoundDuration":103092,"Delta":350269627},{"NoteNumber":56,"Velocity":40,"Duration":103092,"SoundDuration":103092,"Delta":350372719},{"NoteNumber":60,"Velocity":38,"Duration":103092,"SoundDuration":103092,"Delta":350475812},{"NoteNumber":61,"Velocity":38,"Duration":105835,"SoundDuration":105835,"Delta":350578905},{"NoteNumber":76,"Velocity":60,"Duration":106382,"SoundDuration":106382,"Delta":350684740},{"NoteNumber":64,"Velocity":52,"Duration":106382,"SoundDuration":106382,"Delta":350684740},{"NoteNumber":60,"Velocity":38,"Duration":106382,"SoundDuration":106382,"Delta":350684740},{"NoteNumber":58,"Velocity":40,"Duration":106382,"SoundDuration":106382,"Delta":350791123},{"NoteNumber":77,"Velocity":66,"Duration":106761,"SoundDuration":106761,"Delta":350897506},{"NoteNumber":65,"Velocity":57,"Duration":106761,"SoundDuration":106761,"Delta":350897506},{"NoteNumber":56,"Velocity":37,"Duration":106761,"SoundDuration":106761,"Delta":350897506},{"NoteNumber":58,"Velocity":37,"Duration":106761,"SoundDuration":106761,"Delta":351004267},{"NoteNumber":67,"Velocity":53,"Duration":106006,"SoundDuration":106006,"Delta":351111029},{"NoteNumber":79,"Velocity":63,"Duration":106006,"SoundDuration":106006,"Delta":351111029},{"NoteNumber":56,"Velocity":37,"Duration":106006,"SoundDuration":106006,"Delta":351111029},{"NoteNumber":55,"Velocity":40,"Duration":106007,"SoundDuration":106007,"Delta":351217036},{"NoteNumber":68,"Velocity":57,"Duration":106006,"SoundDuration":106006,"Delta":351323043},{"NoteNumber":80,"Velocity":68,"Duration":106006,"SoundDuration":106006,"Delta":351323043},{"NoteNumber":53,"Velocity":37,"Duration":106006,"SoundDuration":106006,"Delta":351323043},{"NoteNumber":55,"Velocity":37,"Duration":106007,"SoundDuration":106007,"Delta":351429050},{"NoteNumber":65,"Velocity":53,"Duration":108908,"SoundDuration":108908,"Delta":351535057},{"NoteNumber":77,"Velocity":63,"Duration":108908,"SoundDuration":108908,"Delta":351535057},{"NoteNumber":56,"Velocity":37,"Duration":108908,"SoundDuration":108908,"Delta":351535057},{"NoteNumber":53,"Velocity":37,"Duration":104239,"SoundDuration":104239,"Delta":351643966},{"NoteNumber":58,"Velocity":44,"Duration":103092,"SoundDuration":103092,"Delta":351748205},{"NoteNumber":49,"Velocity":40,"Duration":103092,"SoundDuration":103092,"Delta":351851297},{"NoteNumber":54,"Velocity":40,"Duration":103092,"SoundDuration":103092,"Delta":351954390},{"NoteNumber":58,"Velocity":44,"Duration":103092,"SoundDuration":103092,"Delta":352057483},{"NoteNumber":61,"Velocity":41,"Duration":103092,"SoundDuration":103092,"Delta":352160576},{"NoteNumber":63,"Velocity":41,"Duration":106179,"SoundDuration":106179,"Delta":352263668},{"NoteNumber":65,"Velocity":59,"Duration":222221,"SoundDuration":222221,"Delta":352369848},{"NoteNumber":77,"Velocity":71,"Duration":222221,"SoundDuration":222221,"Delta":352369848},{"NoteNumber":61,"Velocity":41,"Duration":111110,"SoundDuration":111110,"Delta":352369848},{"NoteNumber":60,"Velocity":44,"Duration":111110,"SoundDuration":111110,"Delta":352480959},{"NoteNumber":66,"Velocity":63,"Duration":222221,"SoundDuration":222221,"Delta":352592070},{"NoteNumber":78,"Velocity":77,"Duration":222221,"SoundDuration":222221,"Delta":352592070},{"NoteNumber":58,"Velocity":40,"Duration":111110,"SoundDuration":111110,"Delta":352592070},{"NoteNumber":60,"Velocity":40,"Duration":111110,"SoundDuration":111110,"Delta":352703181},{"NoteNumber":70,"Velocity":66,"Duration":220728,"SoundDuration":220728,"Delta":352814292},{"NoteNumber":82,"Velocity":79,"Duration":220728,"SoundDuration":220728,"Delta":352814292},{"NoteNumber":58,"Velocity":40,"Duration":110163,"SoundDuration":110163,"Delta":352814292},{"NoteNumber":56,"Velocity":44,"Duration":110565,"SoundDuration":110565,"Delta":352924455},{"NoteNumber":73,"Velocity":69,"Duration":111525,"SoundDuration":111525,"Delta":353035021},{"NoteNumber":85,"Velocity":81,"Duration":111525,"SoundDuration":111525,"Delta":353035021},{"NoteNumber":54,"Velocity":40,"Duration":111525,"SoundDuration":111525,"Delta":353035021},{"NoteNumber":56,"Velocity":40,"Duration":112641,"SoundDuration":112641,"Delta":353146546},{"NoteNumber":73,"Velocity":66,"Duration":112781,"SoundDuration":112781,"Delta":353259187},{"NoteNumber":85,"Velocity":79,"Duration":112781,"SoundDuration":112781,"Delta":353259187},{"NoteNumber":54,"Velocity":40,"Duration":112781,"SoundDuration":112781,"Delta":353259187},{"NoteNumber":53,"Velocity":44,"Duration":112225,"SoundDuration":112225,"Delta":353371969},{"NoteNumber":73,"Velocity":71,"Duration":436929,"SoundDuration":436929,"Delta":353484194},{"NoteNumber":85,"Velocity":83,"Duration":436929,"SoundDuration":436929,"Delta":353484194},{"NoteNumber":52,"Velocity":40,"Duration":110702,"SoundDuration":110702,"Delta":353484194},{"NoteNumber":53,"Velocity":40,"Duration":109489,"SoundDuration":109489,"Delta":353594896},{"NoteNumber":55,"Velocity":40,"Duration":108434,"SoundDuration":108434,"Delta":353704386},{"NoteNumber":56,"Velocity":44,"Duration":108303,"SoundDuration":108303,"Delta":353812820},{"NoteNumber":84,"Velocity":78,"Duration":875927,"SoundDuration":875927,"Delta":353921123},{"NoteNumber":72,"Velocity":64,"Duration":875927,"SoundDuration":875927,"Delta":353921123},{"NoteNumber":58,"Velocity":40,"Duration":108695,"SoundDuration":108695,"Delta":353921123},{"NoteNumber":56,"Velocity":40,"Duration":108959,"SoundDuration":108959,"Delta":354029819},{"NoteNumber":55,"Velocity":40,"Duration":109223,"SoundDuration":109223,"Delta":354138778},{"NoteNumber":53,"Velocity":44,"Duration":109488,"SoundDuration":109488,"Delta":354248002},{"NoteNumber":52,"Velocity":40,"Duration":109890,"SoundDuration":109890,"Delta":354357491},{"NoteNumber":53,"Velocity":40,"Duration":109890,"SoundDuration":109890,"Delta":354467381},{"NoteNumber":52,"Velocity":40,"Duration":109890,"SoundDuration":109890,"Delta":354577271},{"NoteNumber":49,"Velocity":44,"Duration":109889,"SoundDuration":109889,"Delta":354687161},{"NoteNumber":64,"Velocity":64,"Duration":439560,"SoundDuration":439560,"Delta":354797051},{"NoteNumber":76,"Velocity":64,"Duration":439560,"SoundDuration":439560,"Delta":354797051},{"NoteNumber":48,"Velocity":37,"Duration":109890,"SoundDuration":109890,"Delta":354797051},{"NoteNumber":46,"Velocity":38,"Duration":109890,"SoundDuration":109890,"Delta":354906941},{"NoteNumber":44,"Velocity":40,"Duration":109890,"SoundDuration":109890,"Delta":355016831},{"NoteNumber":43,"Velocity":40,"Duration":109890,"SoundDuration":109890,"Delta":355126721},{"NoteNumber":77,"Velocity":57,"Duration":103916,"SoundDuration":103916,"Delta":355236611},{"NoteNumber":65,"Velocity":57,"Duration":103916,"SoundDuration":103916,"Delta":355236611},{"NoteNumber":41,"Velocity":44,"Duration":412965,"SoundDuration":412965,"Delta":355236611},{"NoteNumber":60,"Velocity":41,"Duration":103567,"SoundDuration":103567,"Delta":355340528},{"NoteNumber":65,"Velocity":44,"Duration":102975,"SoundDuration":102975,"Delta":355444095},{"NoteNumber":68,"Velocity":46,"Duration":102505,"SoundDuration":102505,"Delta":355547071},{"NoteNumber":72,"Velocity":43,"Duration":102272,"SoundDuration":102272,"Delta":355649576},{"NoteNumber":60,"Velocity":45,"Duration":102975,"SoundDuration":102975,"Delta":355751849},{"NoteNumber":65,"Velocity":46,"Duration":103686,"SoundDuration":103686,"Delta":355854824},{"NoteNumber":68,"Velocity":48,"Duration":108687,"SoundDuration":108687,"Delta":355958511},{"NoteNumber":53,"Velocity":52,"Duration":108687,"SoundDuration":108687,"Delta":355958511},{"NoteNumber":56,"Velocity":52,"Duration":108687,"SoundDuration":108687,"Delta":355958511},{"NoteNumber":53,"Velocity":65,"Duration":412252,"SoundDuration":412252,"Delta":356067199},{"NoteNumber":56,"Velocity":65,"Duration":412252,"SoundDuration":412252,"Delta":356067199},{"NoteNumber":60,"Velocity":46,"Duration":103211,"SoundDuration":103211,"Delta":356170877},{"NoteNumber":65,"Velocity":47,"Duration":102857,"SoundDuration":102857,"Delta":356274088},{"NoteNumber":68,"Velocity":49,"Duration":102505,"SoundDuration":102505,"Delta":356376946},{"NoteNumber":72,"Velocity":50,"Duration":102857,"SoundDuration":102857,"Delta":356479452},{"NoteNumber":60,"Velocity":52,"Duration":103567,"SoundDuration":103567,"Delta":356582309},{"NoteNumber":65,"Velocity":53,"Duration":104167,"SoundDuration":104167,"Delta":356685877},{"NoteNumber":68,"Velocity":38,"Duration":108318,"SoundDuration":108318,"Delta":356790044},{"NoteNumber":53,"Velocity":54,"Duration":108318,"SoundDuration":108318,"Delta":356790044},{"NoteNumber":56,"Velocity":54,"Duration":108318,"SoundDuration":108318,"Delta":356790044},{"NoteNumber":48,"Velocity":66,"Duration":849742,"SoundDuration":849742,"Delta":356898363},{"NoteNumber":53,"Velocity":66,"Duration":849742,"SoundDuration":849742,"Delta":356898363},{"NoteNumber":56,"Velocity":66,"Duration":849742,"SoundDuration":849742,"Delta":356898363},{"NoteNumber":59,"Velocity":51,"Duration":105263,"SoundDuration":105263,"Delta":357003258},{"NoteNumber":62,"Velocity":52,"Duration":105633,"SoundDuration":105633,"Delta":357108522},{"NoteNumber":68,"Velocity":52,"Duration":106006,"SoundDuration":106006,"Delta":357214155},{"NoteNumber":71,"Velocity":54,"Duration":427943,"SoundDuration":427943,"Delta":357320162},{"NoteNumber":59,"Velocity":52,"Duration":106761,"SoundDuration":106761,"Delta":357426545},{"NoteNumber":62,"Velocity":52,"Duration":107142,"SoundDuration":107142,"Delta":357533307},{"NoteNumber":68,"Velocity":52,"Duration":107655,"SoundDuration":107655,"Delta":357640450},{"NoteNumber":71,"Velocity":54,"Duration":426044,"SoundDuration":426044,"Delta":357748105},{"NoteNumber":48,"Velocity":48,"Duration":213904,"SoundDuration":213904,"Delta":357748105},{"NoteNumber":52,"Velocity":48,"Duration":213904,"SoundDuration":213904,"Delta":357748105},{"NoteNumber":55,"Velocity":48,"Duration":213904,"SoundDuration":213904,"Delta":357748105},{"NoteNumber":59,"Velocity":52,"Duration":106761,"SoundDuration":106761,"Delta":357855248},{"NoteNumber":64,"Velocity":50,"Duration":106257,"SoundDuration":106257,"Delta":357962010},{"NoteNumber":67,"Velocity":49,"Duration":105882,"SoundDuration":105882,"Delta":358068267},{"NoteNumber":72,"Velocity":52,"Duration":418980,"SoundDuration":418980,"Delta":358174150},{"NoteNumber":60,"Velocity":46,"Duration":105017,"SoundDuration":105017,"Delta":358279537},{"NoteNumber":64,"Velocity":44,"Duration":104529,"SoundDuration":104529,"Delta":358384554},{"NoteNumber":67,"Velocity":38,"Duration":104046,"SoundDuration":104046,"Delta":358489084},{"NoteNumber":36,"Velocity":42,"Duration":412614,"SoundDuration":412614,"Delta":358593131},{"NoteNumber":48,"Velocity":42,"Duration":412614,"SoundDuration":412614,"Delta":358593131},{"NoteNumber":60,"Velocity":38,"Duration":103329,"SoundDuration":103329,"Delta":358696817},{"NoteNumber":64,"Velocity":40,"Duration":102975,"SoundDuration":102975,"Delta":358800147},{"NoteNumber":67,"Velocity":42,"Duration":102622,"SoundDuration":102622,"Delta":358903122},{"NoteNumber":72,"Velocity":43,"Duration":102272,"SoundDuration":102272,"Delta":359005745},{"NoteNumber":60,"Velocity":45,"Duration":103093,"SoundDuration":103093,"Delta":359108018},{"NoteNumber":64,"Velocity":46,"Duration":104288,"SoundDuration":104288,"Delta":359211112},{"NoteNumber":67,"Velocity":48,"Duration":106941,"SoundDuration":106941,"Delta":359315400},{"NoteNumber":55,"Velocity":60,"Duration":106941,"SoundDuration":106941,"Delta":359315400},{"NoteNumber":58,"Velocity":60,"Duration":106941,"SoundDuration":106941,"Delta":359315400},{"NoteNumber":55,"Velocity":68,"Duration":411669,"SoundDuration":411669,"Delta":359422341},{"NoteNumber":58,"Velocity":68,"Duration":411669,"SoundDuration":411669,"Delta":359422341},{"NoteNumber":60,"Velocity":46,"Duration":103092,"SoundDuration":103092,"Delta":359525790},{"NoteNumber":64,"Velocity":47,"Duration":102739,"SoundDuration":102739,"Delta":359628882},{"NoteNumber":67,"Velocity":49,"Duration":102389,"SoundDuration":102389,"Delta":359731622},{"NoteNumber":72,"Velocity":50,"Duration":101810,"SoundDuration":101810,"Delta":359834011},{"NoteNumber":60,"Velocity":52,"Duration":102740,"SoundDuration":102740,"Delta":359935821},{"NoteNumber":64,"Velocity":53,"Duration":103686,"SoundDuration":103686,"Delta":360038562},{"NoteNumber":67,"Velocity":38,"Duration":108318,"SoundDuration":108318,"Delta":360142249},{"NoteNumber":55,"Velocity":61,"Duration":108318,"SoundDuration":108318,"Delta":360142249},{"NoteNumber":58,"Velocity":61,"Duration":108318,"SoundDuration":108318,"Delta":360142249},{"NoteNumber":53,"Velocity":58,"Duration":848411,"SoundDuration":848411,"Delta":360250568},{"NoteNumber":55,"Velocity":58,"Duration":848411,"SoundDuration":848411,"Delta":360250568},{"NoteNumber":58,"Velocity":69,"Duration":848411,"SoundDuration":848411,"Delta":360250568},{"NoteNumber":60,"Velocity":51,"Duration":105263,"SoundDuration":105263,"Delta":360355907},{"NoteNumber":64,"Velocity":52,"Duration":105633,"SoundDuration":105633,"Delta":360461171},{"NoteNumber":67,"Velocity":52,"Duration":105882,"SoundDuration":105882,"Delta":360566804},{"NoteNumber":72,"Velocity":54,"Duration":426292,"SoundDuration":426292,"Delta":360672687},{"NoteNumber":60,"Velocity":52,"Duration":106382,"SoundDuration":106382,"Delta":360778819},{"NoteNumber":64,"Velocity":52,"Duration":106761,"SoundDuration":106761,"Delta":360885202},{"NoteNumber":67,"Velocity":52,"Duration":107015,"SoundDuration":107015,"Delta":360991964},{"NoteNumber":72,"Velocity":53,"Duration":423783,"SoundDuration":423783,"Delta":361098980},{"NoteNumber":53,"Velocity":47,"Duration":212515,"SoundDuration":212515,"Delta":361098980},{"NoteNumber":56,"Velocity":52,"Duration":212515,"SoundDuration":212515,"Delta":361098980},{"NoteNumber":60,"Velocity":52,"Duration":106132,"SoundDuration":106132,"Delta":361205363},{"NoteNumber":64,"Velocity":50,"Duration":105758,"SoundDuration":105758,"Delta":361311495},{"NoteNumber":67,"Velocity":49,"Duration":105510,"SoundDuration":105510,"Delta":361417253},{"NoteNumber":72,"Velocity":47,"Duration":418492,"SoundDuration":418492,"Delta":361522763},{"NoteNumber":60,"Velocity":46,"Duration":104894,"SoundDuration":104894,"Delta":361627904},{"NoteNumber":65,"Velocity":44,"Duration":104529,"SoundDuration":104529,"Delta":361732799},{"NoteNumber":68,"Velocity":38,"Duration":103927,"SoundDuration":103927,"Delta":361837328},{"NoteNumber":41,"Velocity":45,"Duration":412970,"SoundDuration":412970,"Delta":361941256},{"NoteNumber":53,"Velocity":45,"Duration":412970,"SoundDuration":412970,"Delta":361941256},{"NoteNumber":65,"Velocity":38,"Duration":103448,"SoundDuration":103448,"Delta":362045062},{"NoteNumber":69,"Velocity":40,"Duration":103092,"SoundDuration":103092,"Delta":362148510},{"NoteNumber":72,"Velocity":42,"Duration":102622,"SoundDuration":102622,"Delta":362251603},{"NoteNumber":77,"Velocity":43,"Duration":102740,"SoundDuration":102740,"Delta":362354226},{"NoteNumber":65,"Velocity":45,"Duration":103449,"SoundDuration":103449,"Delta":362456966},{"NoteNumber":69,"Velocity":46,"Duration":104167,"SoundDuration":104167,"Delta":362560415},{"NoteNumber":72,"Velocity":48,"Duration":108687,"SoundDuration":108687,"Delta":362664583},{"NoteNumber":60,"Velocity":59,"Duration":108687,"SoundDuration":108687,"Delta":362664583},{"NoteNumber":63,"Velocity":59,"Duration":108687,"SoundDuration":108687,"Delta":362664583},{"NoteNumber":60,"Velocity":68,"Duration":413086,"SoundDuration":413086,"Delta":362773270},{"NoteNumber":63,"Velocity":68,"Duration":413086,"SoundDuration":413086,"Delta":362773270},{"NoteNumber":65,"Velocity":46,"Duration":103448,"SoundDuration":103448,"Delta":362877077},{"NoteNumber":69,"Velocity":47,"Duration":103092,"SoundDuration":103092,"Delta":362980525},{"NoteNumber":72,"Velocity":49,"Duration":102739,"SoundDuration":102739,"Delta":363083618},{"NoteNumber":77,"Velocity":50,"Duration":102505,"SoundDuration":102505,"Delta":363186357},{"NoteNumber":65,"Velocity":52,"Duration":103329,"SoundDuration":103329,"Delta":363288863},{"NoteNumber":69,"Velocity":53,"Duration":104167,"SoundDuration":104167,"Delta":363392193},{"NoteNumber":72,"Velocity":54,"Duration":108318,"SoundDuration":108318,"Delta":363496361},{"NoteNumber":60,"Velocity":66,"Duration":108318,"SoundDuration":108318,"Delta":363496361},{"NoteNumber":63,"Velocity":66,"Duration":108318,"SoundDuration":108318,"Delta":363496361},{"NoteNumber":58,"Velocity":72,"Duration":1048023,"SoundDuration":1048023,"Delta":363604680},{"NoteNumber":60,"Velocity":72,"Duration":1048023,"SoundDuration":1048023,"Delta":363604680},{"NoteNumber":63,"Velocity":72,"Duration":1048023,"SoundDuration":1048023,"Delta":363604680},{"NoteNumber":65,"Velocity":50,"Duration":105492,"SoundDuration":105492,"Delta":363710172},{"NoteNumber":69,"Velocity":50,"Duration":105492,"SoundDuration":105492,"Delta":363815665},{"NoteNumber":72,"Velocity":50,"Duration":105492,"SoundDuration":105492,"Delta":363921158},{"NoteNumber":77,"Velocity":55,"Duration":421971,"SoundDuration":421971,"Delta":364026651},{"NoteNumber":65,"Velocity":53,"Duration":105492,"SoundDuration":105492,"Delta":364132143},{"NoteNumber":69,"Velocity":52,"Duration":105492,"SoundDuration":105492,"Delta":364237636},{"NoteNumber":72,"Velocity":52,"Duration":105492,"SoundDuration":105492,"Delta":364343129},{"NoteNumber":69,"Velocity":54,"Duration":102040,"SoundDuration":102040,"Delta":364448622},{"NoteNumber":65,"Velocity":54,"Duration":102040,"SoundDuration":102040,"Delta":364448622},{"NoteNumber":77,"Velocity":54,"Duration":102040,"SoundDuration":102040,"Delta":364550662},{"NoteNumber":65,"Velocity":53,"Duration":103806,"SoundDuration":103806,"Delta":364652703},{"NoteNumber":70,"Velocity":53,"Duration":103806,"SoundDuration":103806,"Delta":364652703},{"NoteNumber":58,"Velocity":64,"Duration":207612,"SoundDuration":207612,"Delta":364652703},{"NoteNumber":61,"Velocity":64,"Duration":207612,"SoundDuration":207612,"Delta":364652703},{"NoteNumber":77,"Velocity":52,"Duration":103806,"SoundDuration":103806,"Delta":364756509},{"NoteNumber":65,"Velocity":52,"Duration":106006,"SoundDuration":106006,"Delta":364860316},{"NoteNumber":72,"Velocity":52,"Duration":106006,"SoundDuration":106006,"Delta":364860316},{"NoteNumber":56,"Velocity":61,"Duration":212014,"SoundDuration":212014,"Delta":364860316},{"NoteNumber":60,"Velocity":61,"Duration":212014,"SoundDuration":212014,"Delta":364860316},{"NoteNumber":77,"Velocity":51,"Duration":106007,"SoundDuration":106007,"Delta":364966323},{"NoteNumber":73,"Velocity":50,"Duration":107913,"SoundDuration":107913,"Delta":365072330},{"NoteNumber":65,"Velocity":50,"Duration":107913,"SoundDuration":107913,"Delta":365072330},{"NoteNumber":55,"Velocity":59,"Duration":215827,"SoundDuration":215827,"Delta":365072330},{"NoteNumber":58,"Velocity":59,"Duration":215827,"SoundDuration":215827,"Delta":365072330},{"NoteNumber":77,"Velocity":50,"Duration":107913,"SoundDuration":107913,"Delta":365180243},{"NoteNumber":48,"Velocity":56,"Duration":416551,"SoundDuration":416551,"Delta":365288157},{"NoteNumber":53,"Velocity":56,"Duration":416551,"SoundDuration":416551,"Delta":365288157},{"NoteNumber":56,"Velocity":56,"Duration":416551,"SoundDuration":416551,"Delta":365288157},{"NoteNumber":60,"Velocity":52,"Duration":104137,"SoundDuration":104137,"Delta":365392295},{"NoteNumber":65,"Velocity":49,"Duration":104137,"SoundDuration":104137,"Delta":365496433},{"NoteNumber":68,"Velocity":50,"Duration":104137,"SoundDuration":104137,"Delta":365600570},{"NoteNumber":72,"Velocity":56,"Duration":422198,"SoundDuration":422198,"Delta":365704708},{"NoteNumber":60,"Velocity":50,"Duration":104137,"SoundDuration":104137,"Delta":365808846},{"NoteNumber":65,"Velocity":50,"Duration":104137,"SoundDuration":104137,"Delta":365912984},{"NoteNumber":68,"Velocity":50,"Duration":109785,"SoundDuration":109785,"Delta":366017121},{"NoteNumber":53,"Velocity":56,"Duration":109785,"SoundDuration":109785,"Delta":366017121},{"NoteNumber":56,"Velocity":56,"Duration":109785,"SoundDuration":109785,"Delta":366017121},{"NoteNumber":72,"Velocity":56,"Duration":413082,"SoundDuration":413082,"Delta":366126907},{"NoteNumber":48,"Velocity":63,"Duration":413082,"SoundDuration":413082,"Delta":366126907},{"NoteNumber":55,"Velocity":63,"Duration":413082,"SoundDuration":413082,"Delta":366126907},{"NoteNumber":58,"Velocity":63,"Duration":413082,"SoundDuration":413082,"Delta":366126907},{"NoteNumber":60,"Velocity":52,"Duration":103448,"SoundDuration":103448,"Delta":366230355},{"NoteNumber":67,"Velocity":52,"Duration":103092,"SoundDuration":103092,"Delta":366333803},{"NoteNumber":70,"Velocity":52,"Duration":103092,"SoundDuration":103092,"Delta":366436896},{"NoteNumber":72,"Velocity":56,"Duration":419778,"SoundDuration":419778,"Delta":366539989},{"NoteNumber":60,"Velocity":52,"Duration":103329,"SoundDuration":103329,"Delta":366642846},{"NoteNumber":64,"Velocity":52,"Duration":103806,"SoundDuration":103806,"Delta":366746176},{"NoteNumber":67,"Velocity":52,"Duration":109785,"SoundDuration":109785,"Delta":366849982},{"NoteNumber":52,"Velocity":53,"Duration":109785,"SoundDuration":109785,"Delta":366849982},{"NoteNumber":55,"Velocity":53,"Duration":109785,"SoundDuration":109785,"Delta":366849982},{"NoteNumber":60,"Velocity":59,"Duration":414396,"SoundDuration":414396,"Delta":366959768},{"NoteNumber":65,"Velocity":59,"Duration":414396,"SoundDuration":414396,"Delta":366959768},{"NoteNumber":68,"Velocity":59,"Duration":414396,"SoundDuration":414396,"Delta":366959768},{"NoteNumber":72,"Velocity":59,"Duration":414396,"SoundDuration":414396,"Delta":366959768},{"NoteNumber":53,"Velocity":56,"Duration":104166,"SoundDuration":104166,"Delta":366959768},{"NoteNumber":60,"Velocity":49,"Duration":103806,"SoundDuration":103806,"Delta":367063935},{"NoteNumber":56,"Velocity":49,"Duration":103448,"SoundDuration":103448,"Delta":367167741},{"NoteNumber":53,"Velocity":49,"Duration":102975,"SoundDuration":102975,"Delta":367271189},{"NoteNumber":48,"Velocity":53,"Duration":102975,"SoundDuration":102975,"Delta":367374164},{"NoteNumber":56,"Velocity":49,"Duration":103686,"SoundDuration":103686,"Delta":367477139},{"NoteNumber":53,"Velocity":49,"Duration":104408,"SoundDuration":104408,"Delta":367580826},{"NoteNumber":80,"Velocity":69,"Duration":109090,"SoundDuration":109090,"Delta":367685235},{"NoteNumber":77,"Velocity":69,"Duration":109090,"SoundDuration":109090,"Delta":367685235},{"NoteNumber":48,"Velocity":49,"Duration":109090,"SoundDuration":109090,"Delta":367685235},{"NoteNumber":80,"Velocity":74,"Duration":411669,"SoundDuration":411669,"Delta":367794326},{"NoteNumber":77,"Velocity":74,"Duration":411669,"SoundDuration":411669,"Delta":367794326},{"NoteNumber":44,"Velocity":53,"Duration":103448,"SoundDuration":103448,"Delta":367794326},{"NoteNumber":53,"Velocity":49,"Duration":103092,"SoundDuration":103092,"Delta":367897774},{"NoteNumber":48,"Velocity":49,"Duration":102739,"SoundDuration":102739,"Delta":368000867},{"NoteNumber":44,"Velocity":49,"Duration":102389,"SoundDuration":102389,"Delta":368103606},{"NoteNumber":41,"Velocity":53,"Duration":102156,"SoundDuration":102156,"Delta":368205995},{"NoteNumber":48,"Velocity":49,"Duration":103093,"SoundDuration":103093,"Delta":368308152},{"NoteNumber":44,"Velocity":49,"Duration":104046,"SoundDuration":104046,"Delta":368411246},{"NoteNumber":80,"Velocity":70,"Duration":108265,"SoundDuration":108265,"Delta":368515292},{"NoteNumber":77,"Velocity":70,"Duration":108265,"SoundDuration":108265,"Delta":368515292},{"NoteNumber":41,"Velocity":49,"Duration":108265,"SoundDuration":108265,"Delta":368515292},{"NoteNumber":80,"Velocity":75,"Duration":836357,"SoundDuration":836357,"Delta":368623558},{"NoteNumber":77,"Velocity":75,"Duration":836357,"SoundDuration":836357,"Delta":368623558},{"NoteNumber":36,"Velocity":53,"Duration":104529,"SoundDuration":104529,"Delta":368623558},{"NoteNumber":41,"Velocity":49,"Duration":104529,"SoundDuration":104529,"Delta":368728087},{"NoteNumber":44,"Velocity":49,"Duration":104529,"SoundDuration":104529,"Delta":368832617},{"NoteNumber":48,"Velocity":49,"Duration":104529,"SoundDuration":104529,"Delta":368937146},{"NoteNumber":47,"Velocity":53,"Duration":104529,"SoundDuration":104529,"Delta":369041676},{"NoteNumber":48,"Velocity":49,"Duration":104529,"SoundDuration":104529,"Delta":369146205},{"NoteNumber":47,"Velocity":49,"Duration":104529,"SoundDuration":104529,"Delta":369250735},{"NoteNumber":48,"Velocity":49,"Duration":104651,"SoundDuration":104651,"Delta":369355264},{"NoteNumber":79,"Velocity":68,"Duration":209181,"SoundDuration":209181,"Delta":369459916},{"NoteNumber":76,"Velocity":68,"Duration":209181,"SoundDuration":209181,"Delta":369459916},{"NoteNumber":47,"Velocity":53,"Duration":104773,"SoundDuration":104773,"Delta":369459916},{"NoteNumber":48,"Velocity":49,"Duration":104408,"SoundDuration":104408,"Delta":369564689},{"NoteNumber":43,"Velocity":49,"Duration":104046,"SoundDuration":104046,"Delta":369669097},{"NoteNumber":48,"Velocity":49,"Duration":103686,"SoundDuration":103686,"Delta":369773144},{"NoteNumber":40,"Velocity":53,"Duration":103567,"SoundDuration":103567,"Delta":369876831},{"NoteNumber":48,"Velocity":49,"Duration":103926,"SoundDuration":103926,"Delta":369980399},{"NoteNumber":43,"Velocity":49,"Duration":104287,"SoundDuration":104287,"Delta":370084325},{"NoteNumber":48,"Velocity":49,"Duration":104529,"SoundDuration":104529,"Delta":370188613},{"NoteNumber":36,"Velocity":56,"Duration":104137,"SoundDuration":104137,"Delta":370293142},{"NoteNumber":40,"Velocity":49,"Duration":104137,"SoundDuration":104137,"Delta":370397280},{"NoteNumber":43,"Velocity":49,"Duration":104137,"SoundDuration":104137,"Delta":370501418},{"NoteNumber":48,"Velocity":49,"Duration":104137,"SoundDuration":104137,"Delta":370605555},{"NoteNumber":40,"Velocity":53,"Duration":104137,"SoundDuration":104137,"Delta":370709693},{"NoteNumber":43,"Velocity":49,"Duration":104137,"SoundDuration":104137,"Delta":370813831},{"NoteNumber":48,"Velocity":49,"Duration":104137,"SoundDuration":104137,"Delta":370917969},{"NoteNumber":82,"Velocity":75,"Duration":109090,"SoundDuration":109090,"Delta":371022106},{"NoteNumber":79,"Velocity":75,"Duration":109090,"SoundDuration":109090,"Delta":371022106},{"NoteNumber":52,"Velocity":49,"Duration":109090,"SoundDuration":109090,"Delta":371022106},{"NoteNumber":82,"Velocity":81,"Duration":416551,"SoundDuration":416551,"Delta":371131197},{"NoteNumber":79,"Velocity":81,"Duration":416551,"SoundDuration":416551,"Delta":371131197},{"NoteNumber":43,"Velocity":53,"Duration":104137,"SoundDuration":104137,"Delta":371131197},{"NoteNumber":48,"Velocity":49,"Duration":104137,"SoundDuration":104137,"Delta":371235335},{"NoteNumber":52,"Velocity":49,"Duration":104137,"SoundDuration":104137,"Delta":371339473},{"NoteNumber":55,"Velocity":49,"Duration":104137,"SoundDuration":104137,"Delta":371443611},{"NoteNumber":48,"Velocity":53,"Duration":104137,"SoundDuration":104137,"Delta":371547748},{"NoteNumber":52,"Velocity":49,"Duration":104137,"SoundDuration":104137,"Delta":371651886},{"NoteNumber":55,"Velocity":49,"Duration":104137,"SoundDuration":104137,"Delta":371756024},{"NoteNumber":82,"Velocity":77,"Duration":108265,"SoundDuration":108265,"Delta":371860162},{"NoteNumber":79,"Velocity":77,"Duration":108265,"SoundDuration":108265,"Delta":371860162},{"NoteNumber":60,"Velocity":49,"Duration":108265,"SoundDuration":108265,"Delta":371860162},{"NoteNumber":82,"Velocity":82,"Duration":827011,"SoundDuration":827011,"Delta":371968427},{"NoteNumber":79,"Velocity":82,"Duration":827011,"SoundDuration":827011,"Delta":371968427},{"NoteNumber":53,"Velocity":59,"Duration":104287,"SoundDuration":104287,"Delta":371968427},{"NoteNumber":56,"Velocity":49,"Duration":103926,"SoundDuration":103926,"Delta":372072715},{"NoteNumber":60,"Velocity":49,"Duration":103448,"SoundDuration":103448,"Delta":372176641},{"NoteNumber":65,"Velocity":49,"Duration":102975,"SoundDuration":102975,"Delta":372280089},{"NoteNumber":64,"Velocity":53,"Duration":102739,"SoundDuration":102739,"Delta":372383065},{"NoteNumber":65,"Velocity":49,"Duration":102975,"SoundDuration":102975,"Delta":372485804},{"NoteNumber":64,"Velocity":49,"Duration":103211,"SoundDuration":103211,"Delta":372588779},{"NoteNumber":65,"Velocity":49,"Duration":103448,"SoundDuration":103448,"Delta":372691991},{"NoteNumber":80,"Velocity":74,"Duration":207612,"SoundDuration":207612,"Delta":372795439},{"NoteNumber":77,"Velocity":74,"Duration":207612,"SoundDuration":207612,"Delta":372795439},{"NoteNumber":64,"Velocity":53,"Duration":103806,"SoundDuration":103806,"Delta":372795439},{"NoteNumber":65,"Velocity":49,"Duration":103806,"SoundDuration":103806,"Delta":372899245},{"NoteNumber":60,"Velocity":49,"Duration":103806,"SoundDuration":103806,"Delta":373003051},{"NoteNumber":65,"Velocity":49,"Duration":103806,"SoundDuration":103806,"Delta":373106858},{"NoteNumber":56,"Velocity":53,"Duration":103806,"SoundDuration":103806,"Delta":373210664},{"NoteNumber":65,"Velocity":49,"Duration":103806,"SoundDuration":103806,"Delta":373314470},{"NoteNumber":60,"Velocity":49,"Duration":103806,"SoundDuration":103806,"Delta":373418276},{"NoteNumber":65,"Velocity":49,"Duration":103806,"SoundDuration":103806,"Delta":373522083},{"NoteNumber":53,"Velocity":61,"Duration":103806,"SoundDuration":103806,"Delta":373625889},{"NoteNumber":57,"Velocity":53,"Duration":103448,"SoundDuration":103448,"Delta":373729695},{"NoteNumber":60,"Velocity":53,"Duration":103211,"SoundDuration":103211,"Delta":373833143},{"NoteNumber":65,"Velocity":53,"Duration":102857,"SoundDuration":102857,"Delta":373936355},{"NoteNumber":57,"Velocity":58,"Duration":103211,"SoundDuration":103211,"Delta":374039212},{"NoteNumber":60,"Velocity":53,"Duration":103686,"SoundDuration":103686,"Delta":374142423},{"NoteNumber":65,"Velocity":53,"Duration":104408,"SoundDuration":104408,"Delta":374246110},{"NoteNumber":87,"Velocity":82,"Duration":109090,"SoundDuration":109090,"Delta":374350519},{"NoteNumber":84,"Velocity":82,"Duration":109090,"SoundDuration":109090,"Delta":374350519},{"NoteNumber":69,"Velocity":53,"Duration":109090,"SoundDuration":109090,"Delta":374350519},{"NoteNumber":87,"Velocity":89,"Duration":416551,"SoundDuration":416551,"Delta":374459610},{"NoteNumber":84,"Velocity":89,"Duration":416551,"SoundDuration":416551,"Delta":374459610},{"NoteNumber":60,"Velocity":58,"Duration":104137,"SoundDuration":104137,"Delta":374459610},{"NoteNumber":65,"Velocity":53,"Duration":104137,"SoundDuration":104137,"Delta":374563748},{"NoteNumber":69,"Velocity":53,"Duration":104137,"SoundDuration":104137,"Delta":374667885},{"NoteNumber":72,"Velocity":53,"Duration":104137,"SoundDuration":104137,"Delta":374772023},{"NoteNumber":65,"Velocity":58,"Duration":104137,"SoundDuration":104137,"Delta":374876161},{"NoteNumber":69,"Velocity":53,"Duration":104137,"SoundDuration":104137,"Delta":374980299},{"NoteNumber":72,"Velocity":53,"Duration":104137,"SoundDuration":104137,"Delta":375084436},{"NoteNumber":87,"Velocity":84,"Duration":108265,"SoundDuration":108265,"Delta":375188574},{"NoteNumber":84,"Velocity":84,"Duration":108265,"SoundDuration":108265,"Delta":375188574},{"NoteNumber":77,"Velocity":53,"Duration":108265,"SoundDuration":108265,"Delta":375188574},{"NoteNumber":87,"Velocity":90,"Duration":1041715,"SoundDuration":1041715,"Delta":375296839},{"NoteNumber":84,"Velocity":90,"Duration":1041715,"SoundDuration":1041715,"Delta":375296839},{"NoteNumber":69,"Velocity":67,"Duration":104529,"SoundDuration":104529,"Delta":375296839},{"NoteNumber":77,"Velocity":53,"Duration":104529,"SoundDuration":104529,"Delta":375401369},{"NoteNumber":76,"Velocity":53,"Duration":104529,"SoundDuration":104529,"Delta":375505898},{"NoteNumber":77,"Velocity":53,"Duration":104529,"SoundDuration":104529,"Delta":375610428},{"NoteNumber":69,"Velocity":58,"Duration":104529,"SoundDuration":104529,"Delta":375714957},{"NoteNumber":77,"Velocity":53,"Duration":104529,"SoundDuration":104529,"Delta":375819487},{"NoteNumber":69,"Velocity":53,"Duration":104529,"SoundDuration":104529,"Delta":375924016},{"NoteNumber":77,"Velocity":53,"Duration":104529,"SoundDuration":104529,"Delta":376028546},{"NoteNumber":69,"Velocity":57,"Duration":102739,"SoundDuration":102739,"Delta":376133075},{"NoteNumber":77,"Velocity":56,"Duration":102739,"SoundDuration":102739,"Delta":376235815},{"NoteNumber":85,"Velocity":79,"Duration":207612,"SoundDuration":207612,"Delta":376338555},{"NoteNumber":82,"Velocity":79,"Duration":207612,"SoundDuration":207612,"Delta":376338555},{"NoteNumber":70,"Velocity":56,"Duration":103806,"SoundDuration":103806,"Delta":376338555},{"NoteNumber":77,"Velocity":55,"Duration":103806,"SoundDuration":103806,"Delta":376442361},{"NoteNumber":84,"Velocity":77,"Duration":207612,"SoundDuration":207612,"Delta":376546167},{"NoteNumber":80,"Velocity":77,"Duration":207612,"SoundDuration":207612,"Delta":376546167},{"NoteNumber":72,"Velocity":54,"Duration":103806,"SoundDuration":103806,"Delta":376546167},{"NoteNumber":77,"Velocity":53,"Duration":103806,"SoundDuration":103806,"Delta":376649974},{"NoteNumber":82,"Velocity":73,"Duration":207612,"SoundDuration":207612,"Delta":376753780},{"NoteNumber":79,"Velocity":73,"Duration":207612,"SoundDuration":207612,"Delta":376753780},{"NoteNumber":73,"Velocity":52,"Duration":103806,"SoundDuration":103806,"Delta":376753780},{"NoteNumber":77,"Velocity":52,"Duration":103806,"SoundDuration":103806,"Delta":376857586},{"NoteNumber":80,"Velocity":82,"Duration":412371,"SoundDuration":412371,"Delta":376961392},{"NoteNumber":77,"Velocity":82,"Duration":412371,"SoundDuration":412371,"Delta":376961392},{"NoteNumber":60,"Velocity":52,"Duration":103092,"SoundDuration":103092,"Delta":376961392},{"NoteNumber":65,"Velocity":47,"Duration":103092,"SoundDuration":103092,"Delta":377064485},{"NoteNumber":68,"Velocity":47,"Duration":103092,"SoundDuration":103092,"Delta":377167578},{"NoteNumber":72,"Velocity":47,"Duration":103092,"SoundDuration":103092,"Delta":377270671},{"NoteNumber":71,"Velocity":52,"Duration":101695,"SoundDuration":101695,"Delta":377373763},{"NoteNumber":72,"Velocity":47,"Duration":101695,"SoundDuration":101695,"Delta":377475458},{"NoteNumber":71,"Velocity":47,"Duration":101695,"SoundDuration":101695,"Delta":377577153},{"NoteNumber":89,"Velocity":79,"Duration":104768,"SoundDuration":104768,"Delta":377678848},{"NoteNumber":80,"Velocity":79,"Duration":104768,"SoundDuration":104768,"Delta":377678848},{"NoteNumber":77,"Velocity":79,"Duration":104768,"SoundDuration":104768,"Delta":377678848},{"NoteNumber":72,"Velocity":47,"Duration":104768,"SoundDuration":104768,"Delta":377678848},{"NoteNumber":91,"Velocity":82,"Duration":416551,"SoundDuration":416551,"Delta":377783617},{"NoteNumber":82,"Velocity":82,"Duration":416551,"SoundDuration":416551,"Delta":377783617},{"NoteNumber":79,"Velocity":82,"Duration":416551,"SoundDuration":416551,"Delta":377783617},{"NoteNumber":60,"Velocity":52,"Duration":104137,"SoundDuration":104137,"Delta":377783617},{"NoteNumber":64,"Velocity":47,"Duration":104137,"SoundDuration":104137,"Delta":377887755},{"NoteNumber":67,"Velocity":47,"Duration":104137,"SoundDuration":104137,"Delta":377991893},{"NoteNumber":72,"Velocity":47,"Duration":104137,"SoundDuration":104137,"Delta":378096031},{"NoteNumber":60,"Velocity":52,"Duration":104137,"SoundDuration":104137,"Delta":378200168},{"NoteNumber":67,"Velocity":47,"Duration":104137,"SoundDuration":104137,"Delta":378304306},{"NoteNumber":70,"Velocity":47,"Duration":104137,"SoundDuration":104137,"Delta":378408444},{"NoteNumber":88,"Velocity":79,"Duration":110236,"SoundDuration":110236,"Delta":378512582},{"NoteNumber":79,"Velocity":79,"Duration":110236,"SoundDuration":110236,"Delta":378512582},{"NoteNumber":76,"Velocity":79,"Duration":110236,"SoundDuration":110236,"Delta":378512582},{"NoteNumber":72,"Velocity":47,"Duration":110236,"SoundDuration":110236,"Delta":378512582},{"NoteNumber":89,"Velocity":73,"Duration":104894,"SoundDuration":104894,"Delta":378622818},{"NoteNumber":80,"Velocity":73,"Duration":104894,"SoundDuration":104894,"Delta":378622818},{"NoteNumber":77,"Velocity":73,"Duration":104894,"SoundDuration":104894,"Delta":378622818},{"NoteNumber":53,"Velocity":52,"Duration":104894,"SoundDuration":104894,"Delta":378622818},{"NoteNumber":72,"Velocity":61,"Duration":104469,"SoundDuration":104469,"Delta":378727713},{"NoteNumber":68,"Velocity":38,"Duration":104469,"SoundDuration":104469,"Delta":378727713},{"NoteNumber":65,"Velocity":38,"Duration":104469,"SoundDuration":104469,"Delta":378727713},{"NoteNumber":77,"Velocity":62,"Duration":104046,"SoundDuration":104046,"Delta":378832182},{"NoteNumber":60,"Velocity":39,"Duration":104046,"SoundDuration":104046,"Delta":378832182},{"NoteNumber":72,"Velocity":39,"Duration":104046,"SoundDuration":104046,"Delta":378832182},{"NoteNumber":80,"Velocity":63,"Duration":103686,"SoundDuration":103686,"Delta":378936229},{"NoteNumber":68,"Velocity":41,"Duration":103686,"SoundDuration":103686,"Delta":378936229},{"NoteNumber":65,"Velocity":41,"Duration":103686,"SoundDuration":103686,"Delta":378936229},{"NoteNumber":84,"Velocity":68,"Duration":103270,"SoundDuration":103270,"Delta":379039916},{"NoteNumber":60,"Velocity":45,"Duration":103270,"SoundDuration":103270,"Delta":379039916},{"NoteNumber":72,"Velocity":45,"Duration":103270,"SoundDuration":103270,"Delta":379039916},{"NoteNumber":85,"Velocity":65,"Duration":102857,"SoundDuration":102857,"Delta":379143186},{"NoteNumber":68,"Velocity":44,"Duration":102857,"SoundDuration":102857,"Delta":379143186},{"NoteNumber":65,"Velocity":44,"Duration":102857,"SoundDuration":102857,"Delta":379143186},{"NoteNumber":84,"Velocity":66,"Duration":102505,"SoundDuration":102505,"Delta":379246043},{"NoteNumber":60,"Velocity":45,"Duration":102505,"SoundDuration":102505,"Delta":379246043},{"NoteNumber":72,"Velocity":45,"Duration":102505,"SoundDuration":102505,"Delta":379246043},{"NoteNumber":82,"Velocity":65,"Duration":102098,"SoundDuration":102098,"Delta":379348549},{"NoteNumber":68,"Velocity":45,"Duration":102098,"SoundDuration":102098,"Delta":379348549},{"NoteNumber":65,"Velocity":45,"Duration":102098,"SoundDuration":102098,"Delta":379348549},{"NoteNumber":80,"Velocity":68,"Duration":101867,"SoundDuration":101867,"Delta":379450648},{"NoteNumber":60,"Velocity":46,"Duration":101867,"SoundDuration":101867,"Delta":379450648},{"NoteNumber":72,"Velocity":46,"Duration":101867,"SoundDuration":101867,"Delta":379450648},{"NoteNumber":82,"Velocity":67,"Duration":102623,"SoundDuration":102623,"Delta":379552516},{"NoteNumber":68,"Velocity":46,"Duration":102623,"SoundDuration":102623,"Delta":379552516},{"NoteNumber":65,"Velocity":46,"Duration":102623,"SoundDuration":102623,"Delta":379552516},{"NoteNumber":80,"Velocity":66,"Duration":103389,"SoundDuration":103389,"Delta":379655139},{"NoteNumber":60,"Velocity":45,"Duration":103389,"SoundDuration":103389,"Delta":379655139},{"NoteNumber":72,"Velocity":45,"Duration":103389,"SoundDuration":103389,"Delta":379655139},{"NoteNumber":79,"Velocity":65,"Duration":104227,"SoundDuration":104227,"Delta":379758529},{"NoteNumber":68,"Velocity":45,"Duration":104227,"SoundDuration":104227,"Delta":379758529},{"NoteNumber":65,"Velocity":45,"Duration":104227,"SoundDuration":104227,"Delta":379758529},{"NoteNumber":77,"Velocity":64,"Duration":105018,"SoundDuration":105018,"Delta":379862756},{"NoteNumber":60,"Velocity":45,"Duration":105018,"SoundDuration":105018,"Delta":379862756},{"NoteNumber":72,"Velocity":45,"Duration":105018,"SoundDuration":105018,"Delta":379862756},{"NoteNumber":79,"Velocity":63,"Duration":105883,"SoundDuration":105883,"Delta":379967774},{"NoteNumber":68,"Velocity":44,"Duration":105883,"SoundDuration":105883,"Delta":379967774},{"NoteNumber":65,"Velocity":44,"Duration":105883,"SoundDuration":105883,"Delta":379967774},{"NoteNumber":80,"Velocity":63,"Duration":106698,"SoundDuration":106698,"Delta":380073657},{"NoteNumber":60,"Velocity":44,"Duration":106698,"SoundDuration":106698,"Delta":380073657},{"NoteNumber":72,"Velocity":44,"Duration":106698,"SoundDuration":106698,"Delta":380073657},{"NoteNumber":77,"Velocity":62,"Duration":107527,"SoundDuration":107527,"Delta":380180356},{"NoteNumber":68,"Velocity":43,"Duration":107527,"SoundDuration":107527,"Delta":380180356},{"NoteNumber":65,"Velocity":43,"Duration":107527,"SoundDuration":107527,"Delta":380180356},{"NoteNumber":53,"Velocity":54,"Duration":135211,"SoundDuration":135211,"Delta":380287884},{"NoteNumber":72,"Velocity":61,"Duration":105448,"SoundDuration":105448,"Delta":380423095},{"NoteNumber":68,"Velocity":38,"Duration":105448,"SoundDuration":105448,"Delta":380423095},{"NoteNumber":65,"Velocity":38,"Duration":105448,"SoundDuration":105448,"Delta":380423095},{"NoteNumber":77,"Velocity":62,"Duration":104956,"SoundDuration":104956,"Delta":380528544},{"NoteNumber":60,"Velocity":39,"Duration":104956,"SoundDuration":104956,"Delta":380528544},{"NoteNumber":72,"Velocity":39,"Duration":104956,"SoundDuration":104956,"Delta":380528544},{"NoteNumber":80,"Velocity":63,"Duration":104408,"SoundDuration":104408,"Delta":380633500},{"NoteNumber":68,"Velocity":41,"Duration":104408,"SoundDuration":104408,"Delta":380633500},{"NoteNumber":65,"Velocity":41,"Duration":104408,"SoundDuration":104408,"Delta":380633500},{"NoteNumber":84,"Velocity":68,"Duration":103926,"SoundDuration":103926,"Delta":380737908},{"NoteNumber":60,"Velocity":45,"Duration":103926,"SoundDuration":103926,"Delta":380737908},{"NoteNumber":72,"Velocity":45,"Duration":103926,"SoundDuration":103926,"Delta":380737908},{"NoteNumber":85,"Velocity":65,"Duration":103448,"SoundDuration":103448,"Delta":380841835},{"NoteNumber":68,"Velocity":44,"Duration":103448,"SoundDuration":103448,"Delta":380841835},{"NoteNumber":65,"Velocity":44,"Duration":103448,"SoundDuration":103448,"Delta":380841835},{"NoteNumber":84,"Velocity":66,"Duration":102975,"SoundDuration":102975,"Delta":380945284},{"NoteNumber":60,"Velocity":45,"Duration":102975,"SoundDuration":102975,"Delta":380945284},{"NoteNumber":72,"Velocity":45,"Duration":102975,"SoundDuration":102975,"Delta":380945284},{"NoteNumber":82,"Velocity":65,"Duration":102505,"SoundDuration":102505,"Delta":381048259},{"NoteNumber":68,"Velocity":45,"Duration":102505,"SoundDuration":102505,"Delta":381048259},{"NoteNumber":65,"Velocity":45,"Duration":102505,"SoundDuration":102505,"Delta":381048259},{"NoteNumber":80,"Velocity":68,"Duration":102505,"SoundDuration":102505,"Delta":381150765},{"NoteNumber":60,"Velocity":46,"Duration":102505,"SoundDuration":102505,"Delta":381150765},{"NoteNumber":72,"Velocity":46,"Duration":102505,"SoundDuration":102505,"Delta":381150765},{"NoteNumber":82,"Velocity":67,"Duration":103034,"SoundDuration":103034,"Delta":381253270},{"NoteNumber":68,"Velocity":46,"Duration":103034,"SoundDuration":103034,"Delta":381253270},{"NoteNumber":65,"Velocity":46,"Duration":103034,"SoundDuration":103034,"Delta":381253270},{"NoteNumber":80,"Velocity":66,"Duration":103627,"SoundDuration":103627,"Delta":381356305},{"NoteNumber":60,"Velocity":45,"Duration":103627,"SoundDuration":103627,"Delta":381356305},{"NoteNumber":72,"Velocity":45,"Duration":103627,"SoundDuration":103627,"Delta":381356305},{"NoteNumber":79,"Velocity":65,"Duration":104287,"SoundDuration":104287,"Delta":381459932},{"NoteNumber":68,"Velocity":45,"Duration":104287,"SoundDuration":104287,"Delta":381459932},{"NoteNumber":65,"Velocity":45,"Duration":104287,"SoundDuration":104287,"Delta":381459932},{"NoteNumber":77,"Velocity":64,"Duration":104895,"SoundDuration":104895,"Delta":381564220},{"NoteNumber":60,"Velocity":45,"Duration":104895,"SoundDuration":104895,"Delta":381564220},{"NoteNumber":72,"Velocity":45,"Duration":104895,"SoundDuration":104895,"Delta":381564220},{"NoteNumber":79,"Velocity":63,"Duration":105510,"SoundDuration":105510,"Delta":381669115},{"NoteNumber":68,"Velocity":44,"Duration":105510,"SoundDuration":105510,"Delta":381669115},{"NoteNumber":65,"Velocity":44,"Duration":105510,"SoundDuration":105510,"Delta":381669115},{"NoteNumber":80,"Velocity":63,"Duration":106195,"SoundDuration":106195,"Delta":381774625},{"NoteNumber":60,"Velocity":44,"Duration":106195,"SoundDuration":106195,"Delta":381774625},{"NoteNumber":72,"Velocity":44,"Duration":106195,"SoundDuration":106195,"Delta":381774625},{"NoteNumber":77,"Velocity":62,"Duration":106953,"SoundDuration":106953,"Delta":381880820},{"NoteNumber":68,"Velocity":43,"Duration":106953,"SoundDuration":106953,"Delta":381880820},{"NoteNumber":65,"Velocity":43,"Duration":106953,"SoundDuration":106953,"Delta":381880820},{"NoteNumber":44,"Velocity":55,"Duration":134964,"SoundDuration":134964,"Delta":381987774},{"NoteNumber":78,"Velocity":64,"Duration":104651,"SoundDuration":104651,"Delta":382122739},{"NoteNumber":56,"Velocity":40,"Duration":104651,"SoundDuration":104651,"Delta":382122739},{"NoteNumber":54,"Velocity":40,"Duration":104651,"SoundDuration":104651,"Delta":382122739},{"NoteNumber":84,"Velocity":65,"Duration":104046,"SoundDuration":104046,"Delta":382227391},{"NoteNumber":51,"Velocity":41,"Duration":104046,"SoundDuration":104046,"Delta":382227391},{"NoteNumber":60,"Velocity":41,"Duration":104046,"SoundDuration":104046,"Delta":382227391},{"NoteNumber":87,"Velocity":66,"Duration":103567,"SoundDuration":103567,"Delta":382331437},{"NoteNumber":56,"Velocity":43,"Duration":103567,"SoundDuration":103567,"Delta":382331437},{"NoteNumber":54,"Velocity":43,"Duration":103567,"SoundDuration":103567,"Delta":382331437},{"NoteNumber":90,"Velocity":72,"Duration":102975,"SoundDuration":102975,"Delta":382435005},{"NoteNumber":51,"Velocity":47,"Duration":102975,"SoundDuration":102975,"Delta":382435005},{"NoteNumber":60,"Velocity":47,"Duration":102975,"SoundDuration":102975,"Delta":382435005},{"NoteNumber":92,"Velocity":69,"Duration":102505,"SoundDuration":102505,"Delta":382537980},{"NoteNumber":56,"Velocity":46,"Duration":102505,"SoundDuration":102505,"Delta":382537980},{"NoteNumber":54,"Velocity":46,"Duration":102505,"SoundDuration":102505,"Delta":382537980},{"NoteNumber":90,"Velocity":70,"Duration":101925,"SoundDuration":101925,"Delta":382640486},{"NoteNumber":51,"Velocity":47,"Duration":101925,"SoundDuration":101925,"Delta":382640486},{"NoteNumber":60,"Velocity":47,"Duration":101925,"SoundDuration":101925,"Delta":382640486},{"NoteNumber":89,"Velocity":69,"Duration":101465,"SoundDuration":101465,"Delta":382742411},{"NoteNumber":56,"Velocity":48,"Duration":101465,"SoundDuration":101465,"Delta":382742411},{"NoteNumber":54,"Velocity":48,"Duration":101465,"SoundDuration":101465,"Delta":382742411},{"NoteNumber":87,"Velocity":72,"Duration":100111,"SoundDuration":100111,"Delta":382843877},{"NoteNumber":51,"Velocity":49,"Duration":100111,"SoundDuration":100111,"Delta":382843877},{"NoteNumber":60,"Velocity":49,"Duration":100111,"SoundDuration":100111,"Delta":382843877},{"NoteNumber":89,"Velocity":71,"Duration":100897,"SoundDuration":100897,"Delta":382943989},{"NoteNumber":56,"Velocity":49,"Duration":100897,"SoundDuration":100897,"Delta":382943989},{"NoteNumber":54,"Velocity":49,"Duration":100897,"SoundDuration":100897,"Delta":382943989},{"NoteNumber":87,"Velocity":70,"Duration":101695,"SoundDuration":101695,"Delta":383044886},{"NoteNumber":51,"Velocity":48,"Duration":101695,"SoundDuration":101695,"Delta":383044886},{"NoteNumber":60,"Velocity":48,"Duration":101695,"SoundDuration":101695,"Delta":383044886},{"NoteNumber":85,"Velocity":69,"Duration":102389,"SoundDuration":102389,"Delta":383146582},{"NoteNumber":56,"Velocity":47,"Duration":102389,"SoundDuration":102389,"Delta":383146582},{"NoteNumber":54,"Velocity":47,"Duration":102389,"SoundDuration":102389,"Delta":383146582},{"NoteNumber":84,"Velocity":68,"Duration":103211,"SoundDuration":103211,"Delta":383248971},{"NoteNumber":51,"Velocity":47,"Duration":103211,"SoundDuration":103211,"Delta":383248971},{"NoteNumber":60,"Velocity":47,"Duration":103211,"SoundDuration":103211,"Delta":383248971},{"NoteNumber":85,"Velocity":67,"Duration":104046,"SoundDuration":104046,"Delta":383352183},{"NoteNumber":56,"Velocity":46,"Duration":104046,"SoundDuration":104046,"Delta":383352183},{"NoteNumber":54,"Velocity":46,"Duration":104046,"SoundDuration":104046,"Delta":383352183},{"NoteNumber":87,"Velocity":66,"Duration":104895,"SoundDuration":104895,"Delta":383456229},{"NoteNumber":51,"Velocity":46,"Duration":104895,"SoundDuration":104895,"Delta":383456229},{"NoteNumber":60,"Velocity":46,"Duration":104895,"SoundDuration":104895,"Delta":383456229},{"NoteNumber":84,"Velocity":65,"Duration":106514,"SoundDuration":106514,"Delta":383561125},{"NoteNumber":56,"Velocity":45,"Duration":106514,"SoundDuration":106514,"Delta":383561125},{"NoteNumber":54,"Velocity":45,"Duration":106514,"SoundDuration":106514,"Delta":383561125},{"NoteNumber":44,"Velocity":54,"Duration":119444,"SoundDuration":119444,"Delta":383667640},{"NoteNumber":78,"Velocity":64,"Duration":103686,"SoundDuration":103686,"Delta":383787084},{"NoteNumber":56,"Velocity":40,"Duration":103686,"SoundDuration":103686,"Delta":383787084},{"NoteNumber":54,"Velocity":40,"Duration":103686,"SoundDuration":103686,"Delta":383787084},{"NoteNumber":84,"Velocity":65,"Duration":103211,"SoundDuration":103211,"Delta":383890771},{"NoteNumber":51,"Velocity":41,"Duration":103211,"SoundDuration":103211,"Delta":383890771},{"NoteNumber":60,"Velocity":41,"Duration":103211,"SoundDuration":103211,"Delta":383890771},{"NoteNumber":87,"Velocity":66,"Duration":102622,"SoundDuration":102622,"Delta":383993982},{"NoteNumber":56,"Velocity":43,"Duration":102622,"SoundDuration":102622,"Delta":383993982},{"NoteNumber":54,"Velocity":43,"Duration":102622,"SoundDuration":102622,"Delta":383993982},{"NoteNumber":90,"Velocity":72,"Duration":102156,"SoundDuration":102156,"Delta":384096605},{"NoteNumber":51,"Velocity":47,"Duration":102156,"SoundDuration":102156,"Delta":384096605},{"NoteNumber":60,"Velocity":47,"Duration":102156,"SoundDuration":102156,"Delta":384096605},{"NoteNumber":92,"Velocity":69,"Duration":101580,"SoundDuration":101580,"Delta":384198762},{"NoteNumber":56,"Velocity":46,"Duration":101580,"SoundDuration":101580,"Delta":384198762},{"NoteNumber":54,"Velocity":46,"Duration":101580,"SoundDuration":101580,"Delta":384198762},{"NoteNumber":90,"Velocity":70,"Duration":101123,"SoundDuration":101123,"Delta":384300342},{"NoteNumber":51,"Velocity":47,"Duration":101123,"SoundDuration":101123,"Delta":384300342},{"NoteNumber":60,"Velocity":47,"Duration":101123,"SoundDuration":101123,"Delta":384300342},{"NoteNumber":89,"Velocity":69,"Duration":100558,"SoundDuration":100558,"Delta":384401466},{"NoteNumber":56,"Velocity":48,"Duration":100558,"SoundDuration":100558,"Delta":384401466},{"NoteNumber":54,"Velocity":48,"Duration":100558,"SoundDuration":100558,"Delta":384401466},{"NoteNumber":87,"Velocity":72,"Duration":100671,"SoundDuration":100671,"Delta":384502025},{"NoteNumber":51,"Velocity":49,"Duration":100671,"SoundDuration":100671,"Delta":384502025},{"NoteNumber":60,"Velocity":49,"Duration":100671,"SoundDuration":100671,"Delta":384502025},{"NoteNumber":89,"Velocity":71,"Duration":101465,"SoundDuration":101465,"Delta":384602697},{"NoteNumber":56,"Velocity":49,"Duration":101465,"SoundDuration":101465,"Delta":384602697},{"NoteNumber":54,"Velocity":49,"Duration":101465,"SoundDuration":101465,"Delta":384602697},{"NoteNumber":87,"Velocity":70,"Duration":102389,"SoundDuration":102389,"Delta":384704163},{"NoteNumber":51,"Velocity":48,"Duration":102389,"SoundDuration":102389,"Delta":384704163},{"NoteNumber":60,"Velocity":48,"Duration":102389,"SoundDuration":102389,"Delta":384704163},{"NoteNumber":85,"Velocity":69,"Duration":103093,"SoundDuration":103093,"Delta":384806553},{"NoteNumber":56,"Velocity":47,"Duration":103093,"SoundDuration":103093,"Delta":384806553},{"NoteNumber":54,"Velocity":47,"Duration":103093,"SoundDuration":103093,"Delta":384806553},{"NoteNumber":84,"Velocity":68,"Duration":104046,"SoundDuration":104046,"Delta":384909646},{"NoteNumber":51,"Velocity":47,"Duration":104046,"SoundDuration":104046,"Delta":384909646},{"NoteNumber":60,"Velocity":47,"Duration":104046,"SoundDuration":104046,"Delta":384909646},{"NoteNumber":82,"Velocity":67,"Duration":104895,"SoundDuration":104895,"Delta":385013693},{"NoteNumber":56,"Velocity":46,"Duration":104895,"SoundDuration":104895,"Delta":385013693},{"NoteNumber":54,"Velocity":46,"Duration":104895,"SoundDuration":104895,"Delta":385013693},{"NoteNumber":80,"Velocity":66,"Duration":106196,"SoundDuration":106196,"Delta":385118589},{"NoteNumber":51,"Velocity":46,"Duration":106196,"SoundDuration":106196,"Delta":385118589},{"NoteNumber":60,"Velocity":46,"Duration":106196,"SoundDuration":106196,"Delta":385118589},{"NoteNumber":78,"Velocity":65,"Duration":107208,"SoundDuration":107208,"Delta":385224785},{"NoteNumber":56,"Velocity":45,"Duration":107208,"SoundDuration":107208,"Delta":385224785},{"NoteNumber":54,"Velocity":45,"Duration":107208,"SoundDuration":107208,"Delta":385224785},{"NoteNumber":77,"Velocity":68,"Duration":104408,"SoundDuration":104408,"Delta":385331993},{"NoteNumber":49,"Velocity":56,"Duration":104408,"SoundDuration":104408,"Delta":385331993},{"NoteNumber":80,"Velocity":67,"Duration":103926,"SoundDuration":103926,"Delta":385436402},{"NoteNumber":65,"Velocity":42,"Duration":103926,"SoundDuration":103926,"Delta":385436402},{"NoteNumber":61,"Velocity":42,"Duration":103926,"SoundDuration":103926,"Delta":385436402},{"NoteNumber":85,"Velocity":68,"Duration":103329,"SoundDuration":103329,"Delta":385540328},{"NoteNumber":56,"Velocity":43,"Duration":103329,"SoundDuration":103329,"Delta":385540328},{"NoteNumber":68,"Velocity":43,"Duration":103329,"SoundDuration":103329,"Delta":385540328},{"NoteNumber":89,"Velocity":69,"Duration":102622,"SoundDuration":102622,"Delta":385643658},{"NoteNumber":65,"Velocity":45,"Duration":102622,"SoundDuration":102622,"Delta":385643658},{"NoteNumber":61,"Velocity":45,"Duration":102622,"SoundDuration":102622,"Delta":385643658},{"NoteNumber":92,"Velocity":75,"Duration":102156,"SoundDuration":102156,"Delta":385746281},{"NoteNumber":56,"Velocity":49,"Duration":102156,"SoundDuration":102156,"Delta":385746281},{"NoteNumber":68,"Velocity":49,"Duration":102156,"SoundDuration":102156,"Delta":385746281},{"NoteNumber":94,"Velocity":72,"Duration":101465,"SoundDuration":101465,"Delta":385848438},{"NoteNumber":65,"Velocity":48,"Duration":101465,"SoundDuration":101465,"Delta":385848438},{"NoteNumber":61,"Velocity":48,"Duration":101465,"SoundDuration":101465,"Delta":385848438},{"NoteNumber":92,"Velocity":73,"Duration":100897,"SoundDuration":100897,"Delta":385949904},{"NoteNumber":56,"Velocity":49,"Duration":100897,"SoundDuration":100897,"Delta":385949904},{"NoteNumber":68,"Velocity":49,"Duration":100897,"SoundDuration":100897,"Delta":385949904},{"NoteNumber":90,"Velocity":72,"Duration":100335,"SoundDuration":100335,"Delta":386050801},{"NoteNumber":65,"Velocity":50,"Duration":100335,"SoundDuration":100335,"Delta":386050801},{"NoteNumber":61,"Velocity":50,"Duration":100335,"SoundDuration":100335,"Delta":386050801},{"NoteNumber":89,"Velocity":75,"Duration":100335,"SoundDuration":100335,"Delta":386151136},{"NoteNumber":56,"Velocity":51,"Duration":100335,"SoundDuration":100335,"Delta":386151136},{"NoteNumber":68,"Velocity":51,"Duration":100335,"SoundDuration":100335,"Delta":386151136},{"NoteNumber":90,"Velocity":74,"Duration":101123,"SoundDuration":101123,"Delta":386251471},{"NoteNumber":65,"Velocity":51,"Duration":101123,"SoundDuration":101123,"Delta":386251471},{"NoteNumber":61,"Velocity":51,"Duration":101123,"SoundDuration":101123,"Delta":386251471},{"NoteNumber":89,"Velocity":73,"Duration":101925,"SoundDuration":101925,"Delta":386352595},{"NoteNumber":56,"Velocity":50,"Duration":101925,"SoundDuration":101925,"Delta":386352595},{"NoteNumber":68,"Velocity":50,"Duration":101925,"SoundDuration":101925,"Delta":386352595},{"NoteNumber":87,"Velocity":72,"Duration":102740,"SoundDuration":102740,"Delta":386454520},{"NoteNumber":65,"Velocity":49,"Duration":102740,"SoundDuration":102740,"Delta":386454520},{"NoteNumber":61,"Velocity":49,"Duration":102740,"SoundDuration":102740,"Delta":386454520},{"NoteNumber":85,"Velocity":71,"Duration":103567,"SoundDuration":103567,"Delta":386557261},{"NoteNumber":56,"Velocity":49,"Duration":103567,"SoundDuration":103567,"Delta":386557261},{"NoteNumber":68,"Velocity":49,"Duration":103567,"SoundDuration":103567,"Delta":386557261},{"NoteNumber":87,"Velocity":70,"Duration":104408,"SoundDuration":104408,"Delta":386660829},{"NoteNumber":65,"Velocity":48,"Duration":104408,"SoundDuration":104408,"Delta":386660829},{"NoteNumber":61,"Velocity":48,"Duration":104408,"SoundDuration":104408,"Delta":386660829},{"NoteNumber":89,"Velocity":69,"Duration":105263,"SoundDuration":105263,"Delta":386765237},{"NoteNumber":56,"Velocity":48,"Duration":105263,"SoundDuration":105263,"Delta":386765237},{"NoteNumber":68,"Velocity":48,"Duration":105263,"SoundDuration":105263,"Delta":386765237},{"NoteNumber":85,"Velocity":68,"Duration":106956,"SoundDuration":106956,"Delta":386870501},{"NoteNumber":65,"Velocity":47,"Duration":106956,"SoundDuration":106956,"Delta":386870501},{"NoteNumber":61,"Velocity":47,"Duration":106956,"SoundDuration":106956,"Delta":386870501},{"NoteNumber":49,"Velocity":56,"Duration":119686,"SoundDuration":119686,"Delta":386977458},{"NoteNumber":80,"Velocity":67,"Duration":104046,"SoundDuration":104046,"Delta":387097144},{"NoteNumber":61,"Velocity":42,"Duration":104046,"SoundDuration":104046,"Delta":387097144},{"NoteNumber":65,"Velocity":42,"Duration":104046,"SoundDuration":104046,"Delta":387097144},{"NoteNumber":85,"Velocity":68,"Duration":103567,"SoundDuration":103567,"Delta":387201191},{"NoteNumber":56,"Velocity":43,"Duration":103567,"SoundDuration":103567,"Delta":387201191},{"NoteNumber":68,"Velocity":43,"Duration":103567,"SoundDuration":103567,"Delta":387201191},{"NoteNumber":89,"Velocity":69,"Duration":102975,"SoundDuration":102975,"Delta":387304758},{"NoteNumber":61,"Velocity":45,"Duration":102975,"SoundDuration":102975,"Delta":387304758},{"NoteNumber":65,"Velocity":45,"Duration":102975,"SoundDuration":102975,"Delta":387304758},{"NoteNumber":92,"Velocity":76,"Duration":102389,"SoundDuration":102389,"Delta":387407733},{"NoteNumber":68,"Velocity":49,"Duration":204200,"SoundDuration":204200,"Delta":387407733},{"NoteNumber":94,"Velocity":74,"Duration":101810,"SoundDuration":101810,"Delta":387510123},{"NoteNumber":92,"Velocity":75,"Duration":101237,"SoundDuration":101237,"Delta":387611934},{"NoteNumber":73,"Velocity":55,"Duration":202021,"SoundDuration":202021,"Delta":387611934},{"NoteNumber":90,"Velocity":74,"Duration":100784,"SoundDuration":100784,"Delta":387713171},{"NoteNumber":89,"Velocity":78,"Duration":100111,"SoundDuration":100111,"Delta":387813955},{"NoteNumber":77,"Velocity":58,"Duration":200783,"SoundDuration":200783,"Delta":387813955},{"NoteNumber":90,"Velocity":77,"Duration":100671,"SoundDuration":100671,"Delta":387914067},{"NoteNumber":92,"Velocity":77,"Duration":101695,"SoundDuration":101695,"Delta":388014739},{"NoteNumber":80,"Velocity":62,"Duration":204436,"SoundDuration":204436,"Delta":388014739},{"NoteNumber":90,"Velocity":76,"Duration":102740,"SoundDuration":102740,"Delta":388116434},{"NoteNumber":89,"Velocity":75,"Duration":103449,"SoundDuration":103449,"Delta":388219175},{"NoteNumber":85,"Velocity":66,"Duration":207979,"SoundDuration":207979,"Delta":388219175},{"NoteNumber":90,"Velocity":75,"Duration":104530,"SoundDuration":104530,"Delta":388322624},{"NoteNumber":92,"Velocity":74,"Duration":105634,"SoundDuration":105634,"Delta":388427154},{"NoteNumber":85,"Velocity":69,"Duration":212716,"SoundDuration":212716,"Delta":388427154},{"NoteNumber":89,"Velocity":74,"Duration":107082,"SoundDuration":107082,"Delta":388532789},{"NoteNumber":85,"Velocity":80,"Duration":626532,"SoundDuration":626532,"Delta":388639871},{"NoteNumber":82,"Velocity":80,"Duration":626532,"SoundDuration":626532,"Delta":388639871},{"NoteNumber":90,"Velocity":70,"Duration":105263,"SoundDuration":105263,"Delta":388745134},{"NoteNumber":92,"Velocity":73,"Duration":105263,"SoundDuration":105263,"Delta":388850397},{"NoteNumber":90,"Velocity":70,"Duration":105263,"SoundDuration":105263,"Delta":388955661},{"NoteNumber":92,"Velocity":65,"Duration":102739,"SoundDuration":102739,"Delta":389060924},{"NoteNumber":90,"Velocity":63,"Duration":102739,"SoundDuration":102739,"Delta":389163664},{"NoteNumber":89,"Velocity":59,"Duration":107913,"SoundDuration":107913,"Delta":389266403},{"NoteNumber":80,"Velocity":66,"Duration":215827,"SoundDuration":215827,"Delta":389266403},{"NoteNumber":84,"Velocity":66,"Duration":215827,"SoundDuration":215827,"Delta":389266403},{"NoteNumber":90,"Velocity":59,"Duration":107913,"SoundDuration":107913,"Delta":389374317},{"NoteNumber":79,"Velocity":68,"Duration":431655,"SoundDuration":431655,"Delta":389482231},{"NoteNumber":82,"Velocity":68,"Duration":431655,"SoundDuration":431655,"Delta":389482231},{"NoteNumber":88,"Velocity":58,"Duration":107913,"SoundDuration":107913,"Delta":389590145},{"NoteNumber":89,"Velocity":60,"Duration":107913,"SoundDuration":107913,"Delta":389698058},{"NoteNumber":88,"Velocity":57,"Duration":107913,"SoundDuration":107913,"Delta":389805972},{"NoteNumber":80,"Velocity":64,"Duration":431654,"SoundDuration":431654,"Delta":389913886},{"NoteNumber":84,"Velocity":64,"Duration":431654,"SoundDuration":431654,"Delta":389913886},{"NoteNumber":89,"Velocity":57,"Duration":107913,"SoundDuration":107913,"Delta":390021800},{"NoteNumber":91,"Velocity":60,"Duration":107913,"SoundDuration":107913,"Delta":390129713},{"NoteNumber":89,"Velocity":56,"Duration":107913,"SoundDuration":107913,"Delta":390237627},{"NoteNumber":85,"Velocity":80,"Duration":628665,"SoundDuration":628665,"Delta":390345541},{"NoteNumber":82,"Velocity":80,"Duration":628665,"SoundDuration":628665,"Delta":390345541},{"NoteNumber":90,"Velocity":70,"Duration":105263,"SoundDuration":105263,"Delta":390450804},{"NoteNumber":92,"Velocity":73,"Duration":105263,"SoundDuration":105263,"Delta":390556067},{"NoteNumber":90,"Velocity":70,"Duration":105263,"SoundDuration":105263,"Delta":390661331},{"NoteNumber":92,"Velocity":65,"Duration":103806,"SoundDuration":103806,"Delta":390766594},{"NoteNumber":90,"Velocity":63,"Duration":103806,"SoundDuration":103806,"Delta":390870400},{"NoteNumber":89,"Velocity":59,"Duration":107913,"SoundDuration":107913,"Delta":390974206},{"NoteNumber":80,"Velocity":66,"Duration":215827,"SoundDuration":215827,"Delta":390974206},{"NoteNumber":84,"Velocity":66,"Duration":215827,"SoundDuration":215827,"Delta":390974206},{"NoteNumber":90,"Velocity":59,"Duration":107913,"SoundDuration":107913,"Delta":391082120},{"NoteNumber":79,"Velocity":68,"Duration":431655,"SoundDuration":431655,"Delta":391190034},{"NoteNumber":82,"Velocity":68,"Duration":431655,"SoundDuration":431655,"Delta":391190034},{"NoteNumber":88,"Velocity":58,"Duration":107913,"SoundDuration":107913,"Delta":391297948},{"NoteNumber":89,"Velocity":60,"Duration":107913,"SoundDuration":107913,"Delta":391405861},{"NoteNumber":88,"Velocity":57,"Duration":107913,"SoundDuration":107913,"Delta":391513775},{"NoteNumber":80,"Velocity":64,"Duration":431654,"SoundDuration":431654,"Delta":391621689},{"NoteNumber":84,"Velocity":64,"Duration":431654,"SoundDuration":431654,"Delta":391621689},{"NoteNumber":89,"Velocity":57,"Duration":107913,"SoundDuration":107913,"Delta":391729603},{"NoteNumber":91,"Velocity":60,"Duration":107913,"SoundDuration":107913,"Delta":391837516},{"NoteNumber":89,"Velocity":56,"Duration":107913,"SoundDuration":107913,"Delta":391945430},{"NoteNumber":85,"Velocity":80,"Duration":628665,"SoundDuration":628665,"Delta":392053344},{"NoteNumber":82,"Velocity":80,"Duration":628665,"SoundDuration":628665,"Delta":392053344},{"NoteNumber":90,"Velocity":70,"Duration":105263,"SoundDuration":105263,"Delta":392158607},{"NoteNumber":92,"Velocity":73,"Duration":105263,"SoundDuration":105263,"Delta":392263870},{"NoteNumber":90,"Velocity":70,"Duration":105263,"SoundDuration":105263,"Delta":392369134},{"NoteNumber":92,"Velocity":73,"Duration":103806,"SoundDuration":103806,"Delta":392474397},{"NoteNumber":90,"Velocity":70,"Duration":103806,"SoundDuration":103806,"Delta":392578203},{"NoteNumber":89,"Velocity":59,"Duration":107913,"SoundDuration":107913,"Delta":392682009},{"NoteNumber":80,"Velocity":66,"Duration":215827,"SoundDuration":215827,"Delta":392682009},{"NoteNumber":84,"Velocity":66,"Duration":215827,"SoundDuration":215827,"Delta":392682009},{"NoteNumber":91,"Velocity":59,"Duration":107913,"SoundDuration":107913,"Delta":392789923},{"NoteNumber":79,"Velocity":68,"Duration":431655,"SoundDuration":431655,"Delta":392897837},{"NoteNumber":82,"Velocity":68,"Duration":431655,"SoundDuration":431655,"Delta":392897837},{"NoteNumber":88,"Velocity":58,"Duration":107913,"SoundDuration":107913,"Delta":393005751},{"NoteNumber":89,"Velocity":60,"Duration":107913,"SoundDuration":107913,"Delta":393113664},{"NoteNumber":88,"Velocity":58,"Duration":107913,"SoundDuration":107913,"Delta":393221578},{"NoteNumber":77,"Velocity":65,"Duration":431654,"SoundDuration":431654,"Delta":393329492},{"NoteNumber":80,"Velocity":65,"Duration":431654,"SoundDuration":431654,"Delta":393329492},{"NoteNumber":85,"Velocity":58,"Duration":107913,"SoundDuration":107913,"Delta":393437406},{"NoteNumber":87,"Velocity":61,"Duration":107913,"SoundDuration":107913,"Delta":393545319},{"NoteNumber":85,"Velocity":57,"Duration":107913,"SoundDuration":107913,"Delta":393653233},{"NoteNumber":79,"Velocity":70,"Duration":431654,"SoundDuration":431654,"Delta":393761147},{"NoteNumber":76,"Velocity":70,"Duration":431654,"SoundDuration":431654,"Delta":393761147},{"NoteNumber":84,"Velocity":60,"Duration":107913,"SoundDuration":107913,"Delta":393869061},{"NoteNumber":85,"Velocity":62,"Duration":107913,"SoundDuration":107913,"Delta":393976974},{"NoteNumber":84,"Velocity":60,"Duration":107913,"SoundDuration":107913,"Delta":394084888},{"NoteNumber":74,"Velocity":70,"Duration":431655,"SoundDuration":431655,"Delta":394192802},{"NoteNumber":77,"Velocity":70,"Duration":431655,"SoundDuration":431655,"Delta":394192802},{"NoteNumber":83,"Velocity":61,"Duration":107913,"SoundDuration":107913,"Delta":394300716},{"NoteNumber":84,"Velocity":65,"Duration":107913,"SoundDuration":107913,"Delta":394408629},{"NoteNumber":83,"Velocity":62,"Duration":107913,"SoundDuration":107913,"Delta":394516543},{"NoteNumber":77,"Velocity":75,"Duration":431654,"SoundDuration":431654,"Delta":394624457},{"NoteNumber":73,"Velocity":75,"Duration":431654,"SoundDuration":431654,"Delta":394624457},{"NoteNumber":82,"Velocity":65,"Duration":107913,"SoundDuration":107913,"Delta":394732371},{"NoteNumber":84,"Velocity":67,"Duration":107913,"SoundDuration":107913,"Delta":394840284},{"NoteNumber":82,"Velocity":64,"Duration":107913,"SoundDuration":107913,"Delta":394948198},{"NoteNumber":72,"Velocity":75,"Duration":431655,"SoundDuration":431655,"Delta":395056112},{"NoteNumber":77,"Velocity":75,"Duration":431655,"SoundDuration":431655,"Delta":395056112},{"NoteNumber":80,"Velocity":66,"Duration":107913,"SoundDuration":107913,"Delta":395164026},{"NoteNumber":82,"Velocity":69,"Duration":107913,"SoundDuration":107913,"Delta":395271939},{"NoteNumber":80,"Velocity":67,"Duration":107913,"SoundDuration":107913,"Delta":395379853},{"NoteNumber":71,"Velocity":76,"Duration":863309,"SoundDuration":863309,"Delta":395487767},{"NoteNumber":80,"Velocity":67,"Duration":107913,"SoundDuration":107913,"Delta":395595681},{"NoteNumber":82,"Velocity":70,"Duration":107913,"SoundDuration":107913,"Delta":395703594},{"NoteNumber":80,"Velocity":68,"Duration":107913,"SoundDuration":107913,"Delta":395811508},{"NoteNumber":74,"Velocity":75,"Duration":431654,"SoundDuration":431654,"Delta":395919422},{"NoteNumber":79,"Velocity":66,"Duration":107913,"SoundDuration":107913,"Delta":396027336},{"NoteNumber":80,"Velocity":69,"Duration":107913,"SoundDuration":107913,"Delta":396135249},{"NoteNumber":79,"Velocity":64,"Duration":107913,"SoundDuration":107913,"Delta":396243163},{"NoteNumber":68,"Velocity":72,"Duration":431655,"SoundDuration":431655,"Delta":396351077},{"NoteNumber":60,"Velocity":72,"Duration":863310,"SoundDuration":863310,"Delta":396351077},{"NoteNumber":72,"Velocity":72,"Duration":863310,"SoundDuration":863310,"Delta":396351077},{"NoteNumber":77,"Velocity":64,"Duration":107913,"SoundDuration":107913,"Delta":396458991},{"NoteNumber":79,"Velocity":65,"Duration":107913,"SoundDuration":107913,"Delta":396566904},{"NoteNumber":77,"Velocity":62,"Duration":107913,"SoundDuration":107913,"Delta":396674818},{"NoteNumber":67,"Velocity":68,"Duration":431654,"SoundDuration":431654,"Delta":396782732},{"NoteNumber":76,"Velocity":60,"Duration":107913,"SoundDuration":107913,"Delta":396890646},{"NoteNumber":77,"Velocity":62,"Duration":107913,"SoundDuration":107913,"Delta":396998559},{"NoteNumber":76,"Velocity":57,"Duration":107913,"SoundDuration":107913,"Delta":397106473},{"NoteNumber":46,"Velocity":61,"Duration":627949,"SoundDuration":627949,"Delta":397214387},{"NoteNumber":54,"Velocity":72,"Duration":627949,"SoundDuration":627949,"Delta":397214387},{"NoteNumber":49,"Velocity":61,"Duration":627949,"SoundDuration":627949,"Delta":397214387},{"NoteNumber":61,"Velocity":66,"Duration":105263,"SoundDuration":105263,"Delta":397319650},{"NoteNumber":73,"Velocity":73,"Duration":105263,"SoundDuration":105263,"Delta":397424913},{"NoteNumber":61,"Velocity":59,"Duration":105263,"SoundDuration":105263,"Delta":397530177},{"NoteNumber":73,"Velocity":71,"Duration":103448,"SoundDuration":103448,"Delta":397635440},{"NoteNumber":61,"Velocity":58,"Duration":103448,"SoundDuration":103448,"Delta":397738888},{"NoteNumber":73,"Velocity":63,"Duration":107913,"SoundDuration":107913,"Delta":397842336},{"NoteNumber":44,"Velocity":50,"Duration":215827,"SoundDuration":215827,"Delta":397842336},{"NoteNumber":48,"Velocity":50,"Duration":215827,"SoundDuration":215827,"Delta":397842336},{"NoteNumber":53,"Velocity":59,"Duration":215827,"SoundDuration":215827,"Delta":397842336},{"NoteNumber":61,"Velocity":59,"Duration":107913,"SoundDuration":107913,"Delta":397950250},{"NoteNumber":52,"Velocity":61,"Duration":431655,"SoundDuration":431655,"Delta":398058164},{"NoteNumber":43,"Velocity":51,"Duration":431655,"SoundDuration":431655,"Delta":398058164},{"NoteNumber":46,"Velocity":51,"Duration":431655,"SoundDuration":431655,"Delta":398058164},{"NoteNumber":61,"Velocity":60,"Duration":107913,"SoundDuration":107913,"Delta":398166078},{"NoteNumber":73,"Velocity":71,"Duration":107913,"SoundDuration":107913,"Delta":398273991},{"NoteNumber":72,"Velocity":66,"Duration":107913,"SoundDuration":107913,"Delta":398381905},{"NoteNumber":70,"Velocity":68,"Duration":107913,"SoundDuration":107913,"Delta":398489819},{"NoteNumber":44,"Velocity":48,"Duration":431654,"SoundDuration":431654,"Delta":398489819},{"NoteNumber":48,"Velocity":48,"Duration":431654,"SoundDuration":431654,"Delta":398489819},{"NoteNumber":53,"Velocity":57,"Duration":431654,"SoundDuration":431654,"Delta":398489819},{"NoteNumber":68,"Velocity":66,"Duration":107913,"SoundDuration":107913,"Delta":398597733},{"NoteNumber":67,"Velocity":65,"Duration":107913,"SoundDuration":107913,"Delta":398705646},{"NoteNumber":65,"Velocity":58,"Duration":107913,"SoundDuration":107913,"Delta":398813560},{"NoteNumber":46,"Velocity":61,"Duration":629386,"SoundDuration":629386,"Delta":398921474},{"NoteNumber":54,"Velocity":72,"Duration":629386,"SoundDuration":629386,"Delta":398921474},{"NoteNumber":49,"Velocity":61,"Duration":629386,"SoundDuration":629386,"Delta":398921474},{"NoteNumber":73,"Velocity":68,"Duration":105263,"SoundDuration":105263,"Delta":399026737},{"NoteNumber":85,"Velocity":75,"Duration":105263,"SoundDuration":105263,"Delta":399132000},{"NoteNumber":73,"Velocity":67,"Duration":105263,"SoundDuration":105263,"Delta":399237264},{"NoteNumber":85,"Velocity":74,"Duration":104166,"SoundDuration":104166,"Delta":399342527},{"NoteNumber":73,"Velocity":67,"Duration":104166,"SoundDuration":104166,"Delta":399446694},{"NoteNumber":85,"Velocity":69,"Duration":107913,"SoundDuration":107913,"Delta":399550860},{"NoteNumber":44,"Velocity":50,"Duration":215827,"SoundDuration":215827,"Delta":399550860},{"NoteNumber":48,"Velocity":50,"Duration":215827,"SoundDuration":215827,"Delta":399550860},{"NoteNumber":53,"Velocity":59,"Duration":215827,"SoundDuration":215827,"Delta":399550860},{"NoteNumber":73,"Velocity":60,"Duration":107913,"SoundDuration":107913,"Delta":399658774},{"NoteNumber":52,"Velocity":65,"Duration":431655,"SoundDuration":431655,"Delta":399766688},{"NoteNumber":43,"Velocity":51,"Duration":431655,"SoundDuration":431655,"Delta":399766688},{"NoteNumber":46,"Velocity":54,"Duration":431655,"SoundDuration":431655,"Delta":399766688},{"NoteNumber":73,"Velocity":61,"Duration":107913,"SoundDuration":107913,"Delta":399874602},{"NoteNumber":85,"Velocity":73,"Duration":107913,"SoundDuration":107913,"Delta":399982515},{"NoteNumber":84,"Velocity":66,"Duration":107913,"SoundDuration":107913,"Delta":400090429},{"NoteNumber":82,"Velocity":70,"Duration":107913,"SoundDuration":107913,"Delta":400198343},{"NoteNumber":44,"Velocity":48,"Duration":431654,"SoundDuration":431654,"Delta":400198343},{"NoteNumber":48,"Velocity":48,"Duration":431654,"SoundDuration":431654,"Delta":400198343},{"NoteNumber":53,"Velocity":57,"Duration":431654,"SoundDuration":431654,"Delta":400198343},{"NoteNumber":80,"Velocity":68,"Duration":107913,"SoundDuration":107913,"Delta":400306257},{"NoteNumber":79,"Velocity":67,"Duration":107913,"SoundDuration":107913,"Delta":400414170},{"NoteNumber":77,"Velocity":65,"Duration":107913,"SoundDuration":107913,"Delta":400522084},{"NoteNumber":46,"Velocity":61,"Duration":629386,"SoundDuration":629386,"Delta":400629998},{"NoteNumber":54,"Velocity":72,"Duration":629386,"SoundDuration":629386,"Delta":400629998},{"NoteNumber":49,"Velocity":61,"Duration":629386,"SoundDuration":629386,"Delta":400629998},{"NoteNumber":61,"Velocity":66,"Duration":105263,"SoundDuration":105263,"Delta":400735261},{"NoteNumber":73,"Velocity":73,"Duration":105263,"SoundDuration":105263,"Delta":400840524},{"NoteNumber":61,"Velocity":66,"Duration":105263,"SoundDuration":105263,"Delta":400945788},{"NoteNumber":73,"Velocity":73,"Duration":104166,"SoundDuration":104166,"Delta":401051051},{"NoteNumber":61,"Velocity":66,"Duration":104166,"SoundDuration":104166,"Delta":401155218},{"NoteNumber":73,"Velocity":68,"Duration":107913,"SoundDuration":107913,"Delta":401259384},{"NoteNumber":53,"Velocity":59,"Duration":215827,"SoundDuration":215827,"Delta":401259384},{"NoteNumber":44,"Velocity":50,"Duration":215827,"SoundDuration":215827,"Delta":401259384},{"NoteNumber":48,"Velocity":50,"Duration":215827,"SoundDuration":215827,"Delta":401259384},{"NoteNumber":61,"Velocity":61,"Duration":107913,"SoundDuration":107913,"Delta":401367298},{"NoteNumber":52,"Velocity":61,"Duration":431655,"SoundDuration":431655,"Delta":401475212},{"NoteNumber":43,"Velocity":51,"Duration":431655,"SoundDuration":431655,"Delta":401475212},{"NoteNumber":46,"Velocity":61,"Duration":431655,"SoundDuration":431655,"Delta":401475212},{"NoteNumber":73,"Velocity":68,"Duration":107913,"SoundDuration":107913,"Delta":401583126},{"NoteNumber":61,"Velocity":60,"Duration":107913,"SoundDuration":107913,"Delta":401691039},{"NoteNumber":73,"Velocity":68,"Duration":107913,"SoundDuration":107913,"Delta":401798953},{"NoteNumber":49,"Velocity":58,"Duration":418117,"SoundDuration":418117,"Delta":401906867},{"NoteNumber":41,"Velocity":49,"Duration":418117,"SoundDuration":418117,"Delta":401906867},{"NoteNumber":44,"Velocity":49,"Duration":418117,"SoundDuration":418117,"Delta":401906867},{"NoteNumber":85,"Velocity":78,"Duration":104529,"SoundDuration":104529,"Delta":402011396},{"NoteNumber":73,"Velocity":69,"Duration":104529,"SoundDuration":104529,"Delta":402115926},{"NoteNumber":85,"Velocity":75,"Duration":104529,"SoundDuration":104529,"Delta":402220455},{"NoteNumber":40,"Velocity":53,"Duration":422534,"SoundDuration":422534,"Delta":402324985},{"NoteNumber":48,"Velocity":63,"Duration":422534,"SoundDuration":422534,"Delta":402324985},{"NoteNumber":43,"Velocity":53,"Duration":422534,"SoundDuration":422534,"Delta":402324985},{"NoteNumber":84,"Velocity":76,"Duration":105633,"SoundDuration":105633,"Delta":402430619},{"NoteNumber":72,"Velocity":71,"Duration":105633,"SoundDuration":105633,"Delta":402536252},{"NoteNumber":84,"Velocity":74,"Duration":105633,"SoundDuration":105633,"Delta":402641886},{"NoteNumber":47,"Velocity":63,"Duration":422535,"SoundDuration":422535,"Delta":402747520},{"NoteNumber":44,"Velocity":53,"Duration":422535,"SoundDuration":422535,"Delta":402747520},{"NoteNumber":38,"Velocity":53,"Duration":422535,"SoundDuration":422535,"Delta":402747520},{"NoteNumber":41,"Velocity":53,"Duration":422535,"SoundDuration":422535,"Delta":402747520},{"NoteNumber":83,"Velocity":77,"Duration":105633,"SoundDuration":105633,"Delta":402853154},{"NoteNumber":71,"Velocity":71,"Duration":105633,"SoundDuration":105633,"Delta":402958787},{"NoteNumber":83,"Velocity":74,"Duration":105633,"SoundDuration":105633,"Delta":403064421},{"NoteNumber":46,"Velocity":67,"Duration":421052,"SoundDuration":421052,"Delta":403170055},{"NoteNumber":43,"Velocity":56,"Duration":421052,"SoundDuration":421052,"Delta":403170055},{"NoteNumber":40,"Velocity":56,"Duration":421052,"SoundDuration":421052,"Delta":403170055},{"NoteNumber":82,"Velocity":78,"Duration":105263,"SoundDuration":105263,"Delta":403275318},{"NoteNumber":70,"Velocity":69,"Duration":105263,"SoundDuration":105263,"Delta":403380581},{"NoteNumber":82,"Velocity":74,"Duration":105263,"SoundDuration":105263,"Delta":403485845},{"NoteNumber":41,"Velocity":67,"Duration":421053,"SoundDuration":421053,"Delta":403591108},{"NoteNumber":44,"Velocity":67,"Duration":421053,"SoundDuration":421053,"Delta":403591108},{"NoteNumber":80,"Velocity":77,"Duration":105263,"SoundDuration":105263,"Delta":403696371},{"NoteNumber":68,"Velocity":71,"Duration":105263,"SoundDuration":105263,"Delta":403801634},{"NoteNumber":72,"Velocity":71,"Duration":105263,"SoundDuration":105263,"Delta":403801634},{"NoteNumber":80,"Velocity":73,"Duration":105263,"SoundDuration":105263,"Delta":403906898},{"NoteNumber":44,"Velocity":66,"Duration":422534,"SoundDuration":422534,"Delta":404012161},{"NoteNumber":35,"Velocity":66,"Duration":851105,"SoundDuration":851105,"Delta":404012161},{"NoteNumber":80,"Velocity":75,"Duration":105633,"SoundDuration":105633,"Delta":404117795},{"NoteNumber":74,"Velocity":68,"Duration":105633,"SoundDuration":105633,"Delta":404223428},{"NoteNumber":68,"Velocity":68,"Duration":105633,"SoundDuration":105633,"Delta":404223428},{"NoteNumber":80,"Velocity":72,"Duration":105633,"SoundDuration":105633,"Delta":404329062},{"NoteNumber":42,"Velocity":64,"Duration":428570,"SoundDuration":428570,"Delta":404434696},{"NoteNumber":79,"Velocity":73,"Duration":107142,"SoundDuration":107142,"Delta":404541839},{"NoteNumber":74,"Velocity":66,"Duration":107142,"SoundDuration":107142,"Delta":404648981},{"NoteNumber":67,"Velocity":66,"Duration":107142,"SoundDuration":107142,"Delta":404648981},{"NoteNumber":79,"Velocity":73,"Duration":107142,"SoundDuration":107142,"Delta":404756124},{"NoteNumber":41,"Velocity":61,"Duration":428571,"SoundDuration":428571,"Delta":404863267},{"NoteNumber":36,"Velocity":61,"Duration":857142,"SoundDuration":857142,"Delta":404863267},{"NoteNumber":77,"Velocity":71,"Duration":107142,"SoundDuration":107142,"Delta":404970410},{"NoteNumber":68,"Velocity":66,"Duration":107142,"SoundDuration":107142,"Delta":405077552},{"NoteNumber":65,"Velocity":66,"Duration":107142,"SoundDuration":107142,"Delta":405077552},{"NoteNumber":77,"Velocity":71,"Duration":107142,"SoundDuration":107142,"Delta":405184695},{"NoteNumber":40,"Velocity":59,"Duration":428570,"SoundDuration":428570,"Delta":405291838},{"NoteNumber":76,"Velocity":72,"Duration":107142,"SoundDuration":107142,"Delta":405398981},{"NoteNumber":67,"Velocity":66,"Duration":107142,"SoundDuration":107142,"Delta":405506123},{"NoteNumber":64,"Velocity":66,"Duration":107142,"SoundDuration":107142,"Delta":405506123},{"NoteNumber":76,"Velocity":69,"Duration":107142,"SoundDuration":107142,"Delta":405613266},{"NoteNumber":65,"Velocity":65,"Duration":105511,"SoundDuration":105511,"Delta":405720409},{"NoteNumber":68,"Velocity":65,"Duration":105511,"SoundDuration":105511,"Delta":405720409},{"NoteNumber":77,"Velocity":77,"Duration":105511,"SoundDuration":105511,"Delta":405720409},{"NoteNumber":29,"Velocity":59,"Duration":210528,"SoundDuration":210528,"Delta":405720409},{"NoteNumber":32,"Velocity":59,"Duration":210528,"SoundDuration":210528,"Delta":405720409},{"NoteNumber":36,"Velocity":59,"Duration":210528,"SoundDuration":210528,"Delta":405720409},{"NoteNumber":41,"Velocity":70,"Duration":210528,"SoundDuration":210528,"Delta":405720409},{"NoteNumber":60,"Velocity":74,"Duration":105017,"SoundDuration":105017,"Delta":405825920},{"NoteNumber":65,"Velocity":76,"Duration":104651,"SoundDuration":104651,"Delta":405930938},{"NoteNumber":68,"Velocity":78,"Duration":104287,"SoundDuration":104287,"Delta":406035589},{"NoteNumber":72,"Velocity":80,"Duration":103806,"SoundDuration":103806,"Delta":406139877},{"NoteNumber":73,"Velocity":76,"Duration":103448,"SoundDuration":103448,"Delta":406243683},{"NoteNumber":48,"Velocity":59,"Duration":103448,"SoundDuration":103448,"Delta":406243683},{"NoteNumber":72,"Velocity":76,"Duration":103092,"SoundDuration":103092,"Delta":406347131},{"NoteNumber":53,"Velocity":62,"Duration":103092,"SoundDuration":103092,"Delta":406347131},{"NoteNumber":70,"Velocity":76,"Duration":102622,"SoundDuration":102622,"Delta":406450224},{"NoteNumber":56,"Velocity":64,"Duration":102622,"SoundDuration":102622,"Delta":406450224},{"NoteNumber":68,"Velocity":77,"Duration":102389,"SoundDuration":102389,"Delta":406552847},{"NoteNumber":60,"Velocity":70,"Duration":102389,"SoundDuration":102389,"Delta":406552847},{"NoteNumber":70,"Velocity":71,"Duration":102739,"SoundDuration":102739,"Delta":406655236},{"NoteNumber":61,"Velocity":64,"Duration":102739,"SoundDuration":102739,"Delta":406655236},{"NoteNumber":68,"Velocity":72,"Duration":103092,"SoundDuration":103092,"Delta":406757976},{"NoteNumber":60,"Velocity":64,"Duration":103092,"SoundDuration":103092,"Delta":406757976},{"NoteNumber":67,"Velocity":72,"Duration":103448,"SoundDuration":103448,"Delta":406861068},{"NoteNumber":58,"Velocity":64,"Duration":103448,"SoundDuration":103448,"Delta":406861068},{"NoteNumber":65,"Velocity":78,"Duration":103806,"SoundDuration":103806,"Delta":406964517},{"NoteNumber":56,"Velocity":70,"Duration":103806,"SoundDuration":103806,"Delta":406964517},{"NoteNumber":63,"Velocity":73,"Duration":104166,"SoundDuration":104166,"Delta":407068323},{"NoteNumber":55,"Velocity":63,"Duration":104166,"SoundDuration":104166,"Delta":407068323},{"NoteNumber":61,"Velocity":73,"Duration":104529,"SoundDuration":104529,"Delta":407172490},{"NoteNumber":53,"Velocity":63,"Duration":104529,"SoundDuration":104529,"Delta":407172490},{"NoteNumber":60,"Velocity":72,"Duration":104894,"SoundDuration":104894,"Delta":407277019},{"NoteNumber":51,"Velocity":63,"Duration":104894,"SoundDuration":104894,"Delta":407277019},{"NoteNumber":58,"Velocity":75,"Duration":105263,"SoundDuration":105263,"Delta":407381914},{"NoteNumber":49,"Velocity":67,"Duration":105263,"SoundDuration":105263,"Delta":407381914},{"NoteNumber":56,"Velocity":70,"Duration":105633,"SoundDuration":105633,"Delta":407487177},{"NoteNumber":48,"Velocity":60,"Duration":105633,"SoundDuration":105633,"Delta":407487177},{"NoteNumber":54,"Velocity":70,"Duration":106510,"SoundDuration":106510,"Delta":407592811},{"NoteNumber":46,"Velocity":60,"Duration":106510,"SoundDuration":106510,"Delta":407592811},{"NoteNumber":53,"Velocity":70,"Duration":106888,"SoundDuration":106888,"Delta":407699321},{"NoteNumber":44,"Velocity":60,"Duration":106888,"SoundDuration":106888,"Delta":407699321},{"NoteNumber":52,"Velocity":73,"Duration":219780,"SoundDuration":219780,"Delta":407806210},{"NoteNumber":43,"Velocity":71,"Duration":109890,"SoundDuration":109890,"Delta":407806210},{"NoteNumber":44,"Velocity":65,"Duration":109890,"SoundDuration":109890,"Delta":407916100},{"NoteNumber":48,"Velocity":69,"Duration":164834,"SoundDuration":164834,"Delta":408025990},{"NoteNumber":52,"Velocity":69,"Duration":164834,"SoundDuration":164834,"Delta":408025990},{"NoteNumber":54,"Velocity":69,"Duration":164834,"SoundDuration":164834,"Delta":408025990},{"NoteNumber":60,"Velocity":82,"Duration":164834,"SoundDuration":164834,"Delta":408025990},{"NoteNumber":46,"Velocity":73,"Duration":109890,"SoundDuration":109890,"Delta":408025990},{"NoteNumber":44,"Velocity":69,"Duration":109889,"SoundDuration":109889,"Delta":408135880},{"NoteNumber":48,"Velocity":61,"Duration":164835,"SoundDuration":164835,"Delta":408245770},{"NoteNumber":52,"Velocity":61,"Duration":164835,"SoundDuration":164835,"Delta":408245770},{"NoteNumber":58,"Velocity":73,"Duration":164835,"SoundDuration":164835,"Delta":408245770},{"NoteNumber":60,"Velocity":73,"Duration":164835,"SoundDuration":164835,"Delta":408245770},{"NoteNumber":43,"Velocity":73,"Duration":109890,"SoundDuration":109890,"Delta":408245770},{"NoteNumber":41,"Velocity":73,"Duration":109890,"SoundDuration":109890,"Delta":408355660},{"NoteNumber":48,"Velocity":60,"Duration":164835,"SoundDuration":164835,"Delta":408465550},{"NoteNumber":52,"Velocity":60,"Duration":164835,"SoundDuration":164835,"Delta":408465550},{"NoteNumber":58,"Velocity":71,"Duration":164835,"SoundDuration":164835,"Delta":408465550},{"NoteNumber":60,"Velocity":71,"Duration":164835,"SoundDuration":164835,"Delta":408465550},{"NoteNumber":40,"Velocity":72,"Duration":109890,"SoundDuration":109890,"Delta":408465550},{"NoteNumber":38,"Velocity":72,"Duration":109890,"SoundDuration":109890,"Delta":408575440},{"NoteNumber":48,"Velocity":61,"Duration":164834,"SoundDuration":164834,"Delta":408685330},{"NoteNumber":52,"Velocity":61,"Duration":164834,"SoundDuration":164834,"Delta":408685330},{"NoteNumber":58,"Velocity":72,"Duration":164834,"SoundDuration":164834,"Delta":408685330},{"NoteNumber":60,"Velocity":72,"Duration":164834,"SoundDuration":164834,"Delta":408685330},{"NoteNumber":36,"Velocity":71,"Duration":109890,"SoundDuration":109890,"Delta":408685330},{"NoteNumber":34,"Velocity":71,"Duration":109890,"SoundDuration":109890,"Delta":408795220},{"NoteNumber":48,"Velocity":61,"Duration":164834,"SoundDuration":164834,"Delta":408905110},{"NoteNumber":52,"Velocity":61,"Duration":164834,"SoundDuration":164834,"Delta":408905110},{"NoteNumber":58,"Velocity":72,"Duration":164834,"SoundDuration":164834,"Delta":408905110},{"NoteNumber":60,"Velocity":72,"Duration":164834,"SoundDuration":164834,"Delta":408905110},{"NoteNumber":32,"Velocity":70,"Duration":109890,"SoundDuration":109890,"Delta":408905110},{"NoteNumber":31,"Velocity":70,"Duration":109889,"SoundDuration":109889,"Delta":409015000},{"NoteNumber":48,"Velocity":77,"Duration":105759,"SoundDuration":105759,"Delta":409124890},{"NoteNumber":53,"Velocity":77,"Duration":105759,"SoundDuration":105759,"Delta":409124890},{"NoteNumber":56,"Velocity":77,"Duration":105759,"SoundDuration":105759,"Delta":409124890},{"NoteNumber":60,"Velocity":77,"Duration":105759,"SoundDuration":105759,"Delta":409124890},{"NoteNumber":29,"Velocity":70,"Duration":210899,"SoundDuration":210899,"Delta":409124890},{"NoteNumber":32,"Velocity":70,"Duration":210899,"SoundDuration":210899,"Delta":409124890},{"NoteNumber":36,"Velocity":70,"Duration":210899,"SoundDuration":210899,"Delta":409124890},{"NoteNumber":41,"Velocity":70,"Duration":210899,"SoundDuration":210899,"Delta":409124890},{"NoteNumber":72,"Velocity":74,"Duration":105140,"SoundDuration":105140,"Delta":409230649},{"NoteNumber":77,"Velocity":76,"Duration":104651,"SoundDuration":104651,"Delta":409335789},{"NoteNumber":80,"Velocity":78,"Duration":104046,"SoundDuration":104046,"Delta":409440441},{"NoteNumber":84,"Velocity":80,"Duration":103686,"SoundDuration":103686,"Delta":409544487},{"NoteNumber":85,"Velocity":76,"Duration":103211,"SoundDuration":103211,"Delta":409648174},{"NoteNumber":60,"Velocity":59,"Duration":103211,"SoundDuration":103211,"Delta":409648174},{"NoteNumber":84,"Velocity":76,"Duration":102622,"SoundDuration":102622,"Delta":409751385},{"NoteNumber":65,"Velocity":62,"Duration":102622,"SoundDuration":102622,"Delta":409751385},{"NoteNumber":82,"Velocity":76,"Duration":102739,"SoundDuration":102739,"Delta":409854008},{"NoteNumber":68,"Velocity":64,"Duration":102739,"SoundDuration":102739,"Delta":409854008},{"NoteNumber":80,"Velocity":77,"Duration":102975,"SoundDuration":102975,"Delta":409956748},{"NoteNumber":72,"Velocity":70,"Duration":102975,"SoundDuration":102975,"Delta":409956748},{"NoteNumber":82,"Velocity":71,"Duration":103211,"SoundDuration":103211,"Delta":410059723},{"NoteNumber":73,"Velocity":64,"Duration":103211,"SoundDuration":103211,"Delta":410059723},{"NoteNumber":80,"Velocity":72,"Duration":103567,"SoundDuration":103567,"Delta":410162934},{"NoteNumber":72,"Velocity":64,"Duration":103567,"SoundDuration":103567,"Delta":410162934},{"NoteNumber":79,"Velocity":72,"Duration":103806,"SoundDuration":103806,"Delta":410266502},{"NoteNumber":70,"Velocity":64,"Duration":103806,"SoundDuration":103806,"Delta":410266502},{"NoteNumber":77,"Velocity":78,"Duration":104166,"SoundDuration":104166,"Delta":410370308},{"NoteNumber":68,"Velocity":70,"Duration":104166,"SoundDuration":104166,"Delta":410370308},{"NoteNumber":75,"Velocity":73,"Duration":104529,"SoundDuration":104529,"Delta":410474475},{"NoteNumber":67,"Velocity":63,"Duration":104529,"SoundDuration":104529,"Delta":410474475},{"NoteNumber":73,"Velocity":73,"Duration":104773,"SoundDuration":104773,"Delta":410579004},{"NoteNumber":65,"Velocity":63,"Duration":104773,"SoundDuration":104773,"Delta":410579004},{"NoteNumber":72,"Velocity":72,"Duration":105017,"SoundDuration":105017,"Delta":410683778},{"NoteNumber":63,"Velocity":63,"Duration":105017,"SoundDuration":105017,"Delta":410683778},{"NoteNumber":70,"Velocity":75,"Duration":105386,"SoundDuration":105386,"Delta":410788795},{"NoteNumber":61,"Velocity":67,"Duration":105386,"SoundDuration":105386,"Delta":410788795},{"NoteNumber":68,"Velocity":70,"Duration":105633,"SoundDuration":105633,"Delta":410894182},{"NoteNumber":60,"Velocity":60,"Duration":105633,"SoundDuration":105633,"Delta":410894182},{"NoteNumber":67,"Velocity":70,"Duration":106006,"SoundDuration":106006,"Delta":410999816},{"NoteNumber":58,"Velocity":60,"Duration":106006,"SoundDuration":106006,"Delta":410999816},{"NoteNumber":65,"Velocity":70,"Duration":106636,"SoundDuration":106636,"Delta":411105823},{"NoteNumber":56,"Velocity":60,"Duration":106636,"SoundDuration":106636,"Delta":411105823},{"NoteNumber":64,"Velocity":73,"Duration":219780,"SoundDuration":219780,"Delta":411212459},{"NoteNumber":55,"Velocity":71,"Duration":109890,"SoundDuration":109890,"Delta":411212459},{"NoteNumber":56,"Velocity":65,"Duration":109890,"SoundDuration":109890,"Delta":411322349},{"NoteNumber":60,"Velocity":58,"Duration":164834,"SoundDuration":164834,"Delta":411432239},{"NoteNumber":64,"Velocity":69,"Duration":164834,"SoundDuration":164834,"Delta":411432239},{"NoteNumber":67,"Velocity":69,"Duration":164834,"SoundDuration":164834,"Delta":411432239},{"NoteNumber":72,"Velocity":82,"Duration":164834,"SoundDuration":164834,"Delta":411432239},{"NoteNumber":58,"Velocity":73,"Duration":109890,"SoundDuration":109890,"Delta":411432239},{"NoteNumber":56,"Velocity":69,"Duration":109889,"SoundDuration":109889,"Delta":411542129},{"NoteNumber":60,"Velocity":51,"Duration":164835,"SoundDuration":164835,"Delta":411652019},{"NoteNumber":64,"Velocity":61,"Duration":164835,"SoundDuration":164835,"Delta":411652019},{"NoteNumber":70,"Velocity":73,"Duration":164835,"SoundDuration":164835,"Delta":411652019},{"NoteNumber":72,"Velocity":73,"Duration":164835,"SoundDuration":164835,"Delta":411652019},{"NoteNumber":55,"Velocity":73,"Duration":109890,"SoundDuration":109890,"Delta":411652019},{"NoteNumber":53,"Velocity":73,"Duration":109890,"SoundDuration":109890,"Delta":411761909},{"NoteNumber":60,"Velocity":50,"Duration":164835,"SoundDuration":164835,"Delta":411871799},{"NoteNumber":64,"Velocity":59,"Duration":164835,"SoundDuration":164835,"Delta":411871799},{"NoteNumber":70,"Velocity":70,"Duration":164835,"SoundDuration":164835,"Delta":411871799},{"NoteNumber":72,"Velocity":70,"Duration":164835,"SoundDuration":164835,"Delta":411871799},{"NoteNumber":52,"Velocity":72,"Duration":109890,"SoundDuration":109890,"Delta":411871799},{"NoteNumber":50,"Velocity":72,"Duration":109890,"SoundDuration":109890,"Delta":411981689},{"NoteNumber":60,"Velocity":51,"Duration":164834,"SoundDuration":164834,"Delta":412091579},{"NoteNumber":64,"Velocity":61,"Duration":164834,"SoundDuration":164834,"Delta":412091579},{"NoteNumber":70,"Velocity":73,"Duration":164834,"SoundDuration":164834,"Delta":412091579},{"NoteNumber":72,"Velocity":73,"Duration":164834,"SoundDuration":164834,"Delta":412091579},{"NoteNumber":48,"Velocity":71,"Duration":109890,"SoundDuration":109890,"Delta":412091579},{"NoteNumber":46,"Velocity":71,"Duration":109890,"SoundDuration":109890,"Delta":412201469},{"NoteNumber":60,"Velocity":51,"Duration":164834,"SoundDuration":164834,"Delta":412311359},{"NoteNumber":64,"Velocity":60,"Duration":164834,"SoundDuration":164834,"Delta":412311359},{"NoteNumber":70,"Velocity":71,"Duration":164834,"SoundDuration":164834,"Delta":412311359},{"NoteNumber":72,"Velocity":71,"Duration":164834,"SoundDuration":164834,"Delta":412311359},{"NoteNumber":44,"Velocity":70,"Duration":109890,"SoundDuration":109890,"Delta":412311359},{"NoteNumber":43,"Velocity":70,"Duration":109889,"SoundDuration":109889,"Delta":412421249},{"NoteNumber":60,"Velocity":51,"Duration":241843,"SoundDuration":241843,"Delta":412531139},{"NoteNumber":65,"Velocity":61,"Duration":241843,"SoundDuration":241843,"Delta":412531139},{"NoteNumber":68,"Velocity":73,"Duration":241843,"SoundDuration":241843,"Delta":412531139},{"NoteNumber":72,"Velocity":73,"Duration":241843,"SoundDuration":241843,"Delta":412531139},{"NoteNumber":41,"Velocity":67,"Duration":135460,"SoundDuration":135460,"Delta":412531139},{"NoteNumber":43,"Velocity":60,"Duration":106382,"SoundDuration":106382,"Delta":412666600},{"NoteNumber":44,"Velocity":60,"Duration":106635,"SoundDuration":106635,"Delta":412772983},{"NoteNumber":46,"Velocity":60,"Duration":106888,"SoundDuration":106888,"Delta":412879618},{"NoteNumber":48,"Velocity":71,"Duration":109890,"SoundDuration":109890,"Delta":412986507},{"NoteNumber":50,"Velocity":65,"Duration":109890,"SoundDuration":109890,"Delta":413096397},{"NoteNumber":72,"Velocity":63,"Duration":164834,"SoundDuration":164834,"Delta":413206287},{"NoteNumber":77,"Velocity":75,"Duration":164834,"SoundDuration":164834,"Delta":413206287},{"NoteNumber":80,"Velocity":75,"Duration":164834,"SoundDuration":164834,"Delta":413206287},{"NoteNumber":84,"Velocity":90,"Duration":164834,"SoundDuration":164834,"Delta":413206287},{"NoteNumber":52,"Velocity":73,"Duration":109890,"SoundDuration":109890,"Delta":413206287},{"NoteNumber":53,"Velocity":69,"Duration":109889,"SoundDuration":109889,"Delta":413316177},{"NoteNumber":72,"Velocity":56,"Duration":164835,"SoundDuration":164835,"Delta":413426067},{"NoteNumber":76,"Velocity":67,"Duration":164835,"SoundDuration":164835,"Delta":413426067},{"NoteNumber":82,"Velocity":80,"Duration":164835,"SoundDuration":164835,"Delta":413426067},{"NoteNumber":84,"Velocity":80,"Duration":164835,"SoundDuration":164835,"Delta":413426067},{"NoteNumber":55,"Velocity":73,"Duration":109890,"SoundDuration":109890,"Delta":413426067},{"NoteNumber":53,"Velocity":73,"Duration":109890,"SoundDuration":109890,"Delta":413535957},{"NoteNumber":72,"Velocity":55,"Duration":164835,"SoundDuration":164835,"Delta":413645847},{"NoteNumber":76,"Velocity":64,"Duration":164835,"SoundDuration":164835,"Delta":413645847},{"NoteNumber":82,"Velocity":77,"Duration":164835,"SoundDuration":164835,"Delta":413645847},{"NoteNumber":84,"Velocity":77,"Duration":164835,"SoundDuration":164835,"Delta":413645847},{"NoteNumber":52,"Velocity":72,"Duration":109890,"SoundDuration":109890,"Delta":413645847},{"NoteNumber":50,"Velocity":72,"Duration":109890,"SoundDuration":109890,"Delta":413755737},{"NoteNumber":72,"Velocity":56,"Duration":164834,"SoundDuration":164834,"Delta":413865627},{"NoteNumber":76,"Velocity":67,"Duration":164834,"SoundDuration":164834,"Delta":413865627},{"NoteNumber":82,"Velocity":80,"Duration":164834,"SoundDuration":164834,"Delta":413865627},{"NoteNumber":84,"Velocity":80,"Duration":164834,"SoundDuration":164834,"Delta":413865627},{"NoteNumber":48,"Velocity":71,"Duration":109890,"SoundDuration":109890,"Delta":413865627},{"NoteNumber":46,"Velocity":71,"Duration":109890,"SoundDuration":109890,"Delta":413975517},{"NoteNumber":72,"Velocity":56,"Duration":164834,"SoundDuration":164834,"Delta":414085407},{"NoteNumber":76,"Velocity":66,"Duration":164834,"SoundDuration":164834,"Delta":414085407},{"NoteNumber":82,"Velocity":78,"Duration":164834,"SoundDuration":164834,"Delta":414085407},{"NoteNumber":84,"Velocity":78,"Duration":164834,"SoundDuration":164834,"Delta":414085407},{"NoteNumber":44,"Velocity":70,"Duration":109890,"SoundDuration":109890,"Delta":414085407},{"NoteNumber":43,"Velocity":70,"Duration":109889,"SoundDuration":109889,"Delta":414195297},{"NoteNumber":72,"Velocity":56,"Duration":188652,"SoundDuration":188652,"Delta":414305187},{"NoteNumber":77,"Velocity":67,"Duration":188652,"SoundDuration":188652,"Delta":414305187},{"NoteNumber":80,"Velocity":80,"Duration":188652,"SoundDuration":188652,"Delta":414305187},{"NoteNumber":84,"Velocity":80,"Duration":188652,"SoundDuration":188652,"Delta":414305187},{"NoteNumber":41,"Velocity":67,"Duration":135460,"SoundDuration":135460,"Delta":414305187},{"NoteNumber":43,"Velocity":60,"Duration":106382,"SoundDuration":106382,"Delta":414440648},{"NoteNumber":44,"Velocity":60,"Duration":106635,"SoundDuration":106635,"Delta":414547031},{"NoteNumber":46,"Velocity":60,"Duration":106888,"SoundDuration":106888,"Delta":414653666},{"NoteNumber":48,"Velocity":71,"Duration":109890,"SoundDuration":109890,"Delta":414760555},{"NoteNumber":50,"Velocity":65,"Duration":109890,"SoundDuration":109890,"Delta":414870445},{"NoteNumber":60,"Velocity":58,"Duration":164834,"SoundDuration":164834,"Delta":414980335},{"NoteNumber":65,"Velocity":69,"Duration":164834,"SoundDuration":164834,"Delta":414980335},{"NoteNumber":68,"Velocity":69,"Duration":164834,"SoundDuration":164834,"Delta":414980335},{"NoteNumber":72,"Velocity":82,"Duration":164834,"SoundDuration":164834,"Delta":414980335},{"NoteNumber":52,"Velocity":73,"Duration":109890,"SoundDuration":109890,"Delta":414980335},{"NoteNumber":53,"Velocity":69,"Duration":109889,"SoundDuration":109889,"Delta":415090225},{"NoteNumber":60,"Velocity":51,"Duration":164835,"SoundDuration":164835,"Delta":415200115},{"NoteNumber":64,"Velocity":61,"Duration":164835,"SoundDuration":164835,"Delta":415200115},{"NoteNumber":70,"Velocity":73,"Duration":164835,"SoundDuration":164835,"Delta":415200115},{"NoteNumber":72,"Velocity":73,"Duration":164835,"SoundDuration":164835,"Delta":415200115},{"NoteNumber":55,"Velocity":73,"Duration":109890,"SoundDuration":109890,"Delta":415200115},{"NoteNumber":53,"Velocity":73,"Duration":109890,"SoundDuration":109890,"Delta":415310005},{"NoteNumber":60,"Velocity":50,"Duration":164835,"SoundDuration":164835,"Delta":415419895},{"NoteNumber":64,"Velocity":59,"Duration":164835,"SoundDuration":164835,"Delta":415419895},{"NoteNumber":70,"Velocity":70,"Duration":164835,"SoundDuration":164835,"Delta":415419895},{"NoteNumber":72,"Velocity":70,"Duration":164835,"SoundDuration":164835,"Delta":415419895},{"NoteNumber":52,"Velocity":72,"Duration":109890,"SoundDuration":109890,"Delta":415419895},{"NoteNumber":50,"Velocity":72,"Duration":109890,"SoundDuration":109890,"Delta":415529785},{"NoteNumber":60,"Velocity":51,"Duration":164834,"SoundDuration":164834,"Delta":415639675},{"NoteNumber":64,"Velocity":61,"Duration":164834,"SoundDuration":164834,"Delta":415639675},{"NoteNumber":70,"Velocity":73,"Duration":164834,"SoundDuration":164834,"Delta":415639675},{"NoteNumber":72,"Velocity":73,"Duration":164834,"SoundDuration":164834,"Delta":415639675},{"NoteNumber":48,"Velocity":71,"Duration":109890,"SoundDuration":109890,"Delta":415639675},{"NoteNumber":46,"Velocity":71,"Duration":109890,"SoundDuration":109890,"Delta":415749565},{"NoteNumber":60,"Velocity":51,"Duration":164834,"SoundDuration":164834,"Delta":415859455},{"NoteNumber":64,"Velocity":60,"Duration":164834,"SoundDuration":164834,"Delta":415859455},{"NoteNumber":70,"Velocity":71,"Duration":164834,"SoundDuration":164834,"Delta":415859455},{"NoteNumber":72,"Velocity":71,"Duration":164834,"SoundDuration":164834,"Delta":415859455},{"NoteNumber":44,"Velocity":70,"Duration":109890,"SoundDuration":109890,"Delta":415859455},{"NoteNumber":43,"Velocity":70,"Duration":109889,"SoundDuration":109889,"Delta":415969345},{"NoteNumber":60,"Velocity":73,"Duration":135460,"SoundDuration":135460,"Delta":416079235},{"NoteNumber":65,"Velocity":73,"Duration":135460,"SoundDuration":135460,"Delta":416079235},{"NoteNumber":68,"Velocity":73,"Duration":135460,"SoundDuration":135460,"Delta":416079235},{"NoteNumber":72,"Velocity":73,"Duration":135460,"SoundDuration":135460,"Delta":416079235},{"NoteNumber":41,"Velocity":67,"Duration":455367,"SoundDuration":455367,"Delta":416079235},{"NoteNumber":67,"Velocity":74,"Duration":106382,"SoundDuration":106382,"Delta":416214696},{"NoteNumber":68,"Velocity":75,"Duration":106635,"SoundDuration":106635,"Delta":416321079},{"NoteNumber":70,"Velocity":76,"Duration":106888,"SoundDuration":106888,"Delta":416427714},{"NoteNumber":72,"Velocity":77,"Duration":108564,"SoundDuration":108564,"Delta":416534603},{"NoteNumber":74,"Velocity":78,"Duration":108043,"SoundDuration":108043,"Delta":416643168},{"NoteNumber":76,"Velocity":79,"Duration":107270,"SoundDuration":107270,"Delta":416751211},{"NoteNumber":48,"Velocity":72,"Duration":160651,"SoundDuration":160651,"Delta":416751211},{"NoteNumber":36,"Velocity":60,"Duration":160651,"SoundDuration":160651,"Delta":416751211},{"NoteNumber":41,"Velocity":60,"Duration":160651,"SoundDuration":160651,"Delta":416751211},{"NoteNumber":44,"Velocity":60,"Duration":160651,"SoundDuration":160651,"Delta":416751211},{"NoteNumber":77,"Velocity":80,"Duration":106635,"SoundDuration":106635,"Delta":416858482},{"NoteNumber":79,"Velocity":80,"Duration":106006,"SoundDuration":106006,"Delta":416965118},{"NoteNumber":43,"Velocity":63,"Duration":159198,"SoundDuration":159198,"Delta":416965118},{"NoteNumber":40,"Velocity":63,"Duration":159198,"SoundDuration":159198,"Delta":416965118},{"NoteNumber":46,"Velocity":63,"Duration":159198,"SoundDuration":159198,"Delta":416965118},{"NoteNumber":36,"Velocity":53,"Duration":159198,"SoundDuration":159198,"Delta":416965118},{"NoteNumber":48,"Velocity":76,"Duration":159198,"SoundDuration":159198,"Delta":416965118},{"NoteNumber":77,"Velocity":79,"Duration":106382,"SoundDuration":106382,"Delta":417071125},{"NoteNumber":76,"Velocity":79,"Duration":106761,"SoundDuration":106761,"Delta":417177508},{"NoteNumber":43,"Velocity":62,"Duration":160332,"SoundDuration":160332,"Delta":417177508},{"NoteNumber":36,"Velocity":53,"Duration":160332,"SoundDuration":160332,"Delta":417177508},{"NoteNumber":40,"Velocity":62,"Duration":160332,"SoundDuration":160332,"Delta":417177508},{"NoteNumber":46,"Velocity":62,"Duration":160332,"SoundDuration":160332,"Delta":417177508},{"NoteNumber":48,"Velocity":74,"Duration":160332,"SoundDuration":160332,"Delta":417177508},{"NoteNumber":73,"Velocity":78,"Duration":107142,"SoundDuration":107142,"Delta":417284269},{"NoteNumber":72,"Velocity":77,"Duration":107527,"SoundDuration":107527,"Delta":417391412},{"NoteNumber":43,"Velocity":52,"Duration":161483,"SoundDuration":161483,"Delta":417391412},{"NoteNumber":40,"Velocity":52,"Duration":161483,"SoundDuration":161483,"Delta":417391412},{"NoteNumber":36,"Velocity":52,"Duration":161483,"SoundDuration":161483,"Delta":417391412},{"NoteNumber":46,"Velocity":62,"Duration":161483,"SoundDuration":161483,"Delta":417391412},{"NoteNumber":48,"Velocity":76,"Duration":161483,"SoundDuration":161483,"Delta":417391412},{"NoteNumber":70,"Velocity":76,"Duration":107913,"SoundDuration":107913,"Delta":417498939},{"NoteNumber":68,"Velocity":75,"Duration":108303,"SoundDuration":108303,"Delta":417606853},{"NoteNumber":43,"Velocity":59,"Duration":162651,"SoundDuration":162651,"Delta":417606853},{"NoteNumber":46,"Velocity":59,"Duration":162651,"SoundDuration":162651,"Delta":417606853},{"NoteNumber":36,"Velocity":50,"Duration":162651,"SoundDuration":162651,"Delta":417606853},{"NoteNumber":40,"Velocity":59,"Duration":162651,"SoundDuration":162651,"Delta":417606853},{"NoteNumber":48,"Velocity":71,"Duration":162651,"SoundDuration":162651,"Delta":417606853},{"NoteNumber":67,"Velocity":74,"Duration":108695,"SoundDuration":108695,"Delta":417715156},{"NoteNumber":65,"Velocity":73,"Duration":135460,"SoundDuration":135460,"Delta":417823852},{"NoteNumber":36,"Velocity":56,"Duration":455495,"SoundDuration":455495,"Delta":417823852},{"NoteNumber":48,"Velocity":67,"Duration":455495,"SoundDuration":455495,"Delta":417823852},{"NoteNumber":44,"Velocity":56,"Duration":455495,"SoundDuration":455495,"Delta":417823852},{"NoteNumber":41,"Velocity":56,"Duration":455495,"SoundDuration":455495,"Delta":417823852},{"NoteNumber":67,"Velocity":74,"Duration":106382,"SoundDuration":106382,"Delta":417959313},{"NoteNumber":68,"Velocity":75,"Duration":106635,"SoundDuration":106635,"Delta":418065696},{"NoteNumber":70,"Velocity":76,"Duration":107016,"SoundDuration":107016,"Delta":418172331},{"NoteNumber":72,"Velocity":77,"Duration":107527,"SoundDuration":107527,"Delta":418279348},{"NoteNumber":74,"Velocity":78,"Duration":107142,"SoundDuration":107142,"Delta":418386875},{"NoteNumber":76,"Velocity":79,"Duration":106761,"SoundDuration":106761,"Delta":418494017},{"NoteNumber":60,"Velocity":72,"Duration":159953,"SoundDuration":159953,"Delta":418494017},{"NoteNumber":48,"Velocity":60,"Duration":159953,"SoundDuration":159953,"Delta":418494017},{"NoteNumber":53,"Velocity":60,"Duration":159953,"SoundDuration":159953,"Delta":418494017},{"NoteNumber":56,"Velocity":60,"Duration":159953,"SoundDuration":159953,"Delta":418494017},{"NoteNumber":77,"Velocity":80,"Duration":106382,"SoundDuration":106382,"Delta":418600779},{"NoteNumber":79,"Velocity":80,"Duration":106006,"SoundDuration":106006,"Delta":418707162},{"NoteNumber":55,"Velocity":63,"Duration":158823,"SoundDuration":158823,"Delta":418707162},{"NoteNumber":52,"Velocity":63,"Duration":158823,"SoundDuration":158823,"Delta":418707162},{"NoteNumber":58,"Velocity":63,"Duration":158823,"SoundDuration":158823,"Delta":418707162},{"NoteNumber":48,"Velocity":53,"Duration":158823,"SoundDuration":158823,"Delta":418707162},{"NoteNumber":60,"Velocity":76,"Duration":158823,"SoundDuration":158823,"Delta":418707162},{"NoteNumber":77,"Velocity":79,"Duration":105758,"SoundDuration":105758,"Delta":418813169},{"NoteNumber":76,"Velocity":79,"Duration":106257,"SoundDuration":106257,"Delta":418918927},{"NoteNumber":55,"Velocity":62,"Duration":159638,"SoundDuration":159638,"Delta":418918927},{"NoteNumber":48,"Velocity":53,"Duration":159638,"SoundDuration":159638,"Delta":418918927},{"NoteNumber":52,"Velocity":62,"Duration":159638,"SoundDuration":159638,"Delta":418918927},{"NoteNumber":58,"Velocity":62,"Duration":159638,"SoundDuration":159638,"Delta":418918927},{"NoteNumber":60,"Velocity":74,"Duration":159638,"SoundDuration":159638,"Delta":418918927},{"NoteNumber":73,"Velocity":78,"Duration":106888,"SoundDuration":106888,"Delta":419025185},{"NoteNumber":72,"Velocity":77,"Duration":107398,"SoundDuration":107398,"Delta":419132073},{"NoteNumber":55,"Velocity":52,"Duration":161355,"SoundDuration":161355,"Delta":419132073},{"NoteNumber":52,"Velocity":52,"Duration":161355,"SoundDuration":161355,"Delta":419132073},{"NoteNumber":48,"Velocity":52,"Duration":161355,"SoundDuration":161355,"Delta":419132073},{"NoteNumber":58,"Velocity":62,"Duration":161355,"SoundDuration":161355,"Delta":419132073},{"NoteNumber":60,"Velocity":76,"Duration":161355,"SoundDuration":161355,"Delta":419132073},{"NoteNumber":70,"Velocity":76,"Duration":108043,"SoundDuration":108043,"Delta":419239472},{"NoteNumber":68,"Velocity":75,"Duration":108696,"SoundDuration":108696,"Delta":419347516},{"NoteNumber":55,"Velocity":59,"Duration":163242,"SoundDuration":163242,"Delta":419347516},{"NoteNumber":58,"Velocity":59,"Duration":163242,"SoundDuration":163242,"Delta":419347516},{"NoteNumber":48,"Velocity":50,"Duration":163242,"SoundDuration":163242,"Delta":419347516},{"NoteNumber":52,"Velocity":59,"Duration":163242,"SoundDuration":163242,"Delta":419347516},{"NoteNumber":60,"Velocity":71,"Duration":163242,"SoundDuration":163242,"Delta":419347516},{"NoteNumber":67,"Velocity":74,"Duration":109091,"SoundDuration":109091,"Delta":419456212},{"NoteNumber":65,"Velocity":73,"Duration":104894,"SoundDuration":104894,"Delta":419565303},{"NoteNumber":48,"Velocity":56,"Duration":420329,"SoundDuration":420329,"Delta":419565303},{"NoteNumber":60,"Velocity":67,"Duration":420329,"SoundDuration":420329,"Delta":419565303},{"NoteNumber":56,"Velocity":56,"Duration":420329,"SoundDuration":420329,"Delta":419565303},{"NoteNumber":53,"Velocity":56,"Duration":420329,"SoundDuration":420329,"Delta":419565303},{"NoteNumber":67,"Velocity":74,"Duration":104894,"SoundDuration":104894,"Delta":419670198},{"NoteNumber":68,"Velocity":75,"Duration":104894,"SoundDuration":104894,"Delta":419775093},{"NoteNumber":70,"Velocity":76,"Duration":105644,"SoundDuration":105644,"Delta":419879988},{"NoteNumber":72,"Velocity":77,"Duration":106382,"SoundDuration":106382,"Delta":419985633},{"NoteNumber":74,"Velocity":78,"Duration":106382,"SoundDuration":106382,"Delta":420092016},{"NoteNumber":76,"Velocity":79,"Duration":106382,"SoundDuration":106382,"Delta":420198399},{"NoteNumber":48,"Velocity":64,"Duration":159387,"SoundDuration":159387,"Delta":420198399},{"NoteNumber":36,"Velocity":54,"Duration":159387,"SoundDuration":159387,"Delta":420198399},{"NoteNumber":41,"Velocity":54,"Duration":159387,"SoundDuration":159387,"Delta":420198399},{"NoteNumber":44,"Velocity":54,"Duration":159387,"SoundDuration":159387,"Delta":420198399},{"NoteNumber":77,"Velocity":80,"Duration":105636,"SoundDuration":105636,"Delta":420304782},{"NoteNumber":79,"Velocity":80,"Duration":105263,"SoundDuration":105263,"Delta":420410418},{"NoteNumber":43,"Velocity":56,"Duration":157833,"SoundDuration":157833,"Delta":420410418},{"NoteNumber":40,"Velocity":56,"Duration":157833,"SoundDuration":157833,"Delta":420410418},{"NoteNumber":46,"Velocity":56,"Duration":157833,"SoundDuration":157833,"Delta":420410418},{"NoteNumber":36,"Velocity":47,"Duration":157833,"SoundDuration":157833,"Delta":420410418},{"NoteNumber":48,"Velocity":68,"Duration":157833,"SoundDuration":157833,"Delta":420410418},{"NoteNumber":78,"Velocity":76,"Duration":105017,"SoundDuration":105017,"Delta":420515681},{"NoteNumber":79,"Velocity":79,"Duration":104894,"SoundDuration":104894,"Delta":420620699},{"NoteNumber":43,"Velocity":55,"Duration":157159,"SoundDuration":157159,"Delta":420620699},{"NoteNumber":36,"Velocity":47,"Duration":157159,"SoundDuration":157159,"Delta":420620699},{"NoteNumber":40,"Velocity":55,"Duration":157159,"SoundDuration":157159,"Delta":420620699},{"NoteNumber":46,"Velocity":55,"Duration":157159,"SoundDuration":157159,"Delta":420620699},{"NoteNumber":48,"Velocity":66,"Duration":157159,"SoundDuration":157159,"Delta":420620699},{"NoteNumber":78,"Velocity":73,"Duration":104529,"SoundDuration":104529,"Delta":420725594},{"NoteNumber":79,"Velocity":77,"Duration":104408,"SoundDuration":104408,"Delta":420830124},{"NoteNumber":43,"Velocity":46,"Duration":156491,"SoundDuration":156491,"Delta":420830124},{"NoteNumber":40,"Velocity":46,"Duration":156491,"SoundDuration":156491,"Delta":420830124},{"NoteNumber":36,"Velocity":46,"Duration":156491,"SoundDuration":156491,"Delta":420830124},{"NoteNumber":46,"Velocity":55,"Duration":156491,"SoundDuration":156491,"Delta":420830124},{"NoteNumber":48,"Velocity":68,"Duration":156491,"SoundDuration":156491,"Delta":420830124},{"NoteNumber":78,"Velocity":72,"Duration":104166,"SoundDuration":104166,"Delta":420934532},{"NoteNumber":79,"Velocity":75,"Duration":103926,"SoundDuration":103926,"Delta":421038699},{"NoteNumber":43,"Velocity":53,"Duration":155829,"SoundDuration":155829,"Delta":421038699},{"NoteNumber":46,"Velocity":53,"Duration":155829,"SoundDuration":155829,"Delta":421038699},{"NoteNumber":36,"Velocity":45,"Duration":155829,"SoundDuration":155829,"Delta":421038699},{"NoteNumber":40,"Velocity":53,"Duration":155829,"SoundDuration":155829,"Delta":421038699},{"NoteNumber":48,"Velocity":63,"Duration":155829,"SoundDuration":155829,"Delta":421038699},{"NoteNumber":78,"Velocity":70,"Duration":103806,"SoundDuration":103806,"Delta":421142625},{"NoteNumber":79,"Velocity":77,"Duration":103448,"SoundDuration":103448,"Delta":421246432},{"NoteNumber":43,"Velocity":56,"Duration":155172,"SoundDuration":155172,"Delta":421246432},{"NoteNumber":40,"Velocity":56,"Duration":155172,"SoundDuration":155172,"Delta":421246432},{"NoteNumber":46,"Velocity":56,"Duration":155172,"SoundDuration":155172,"Delta":421246432},{"NoteNumber":36,"Velocity":47,"Duration":155172,"SoundDuration":155172,"Delta":421246432},{"NoteNumber":48,"Velocity":68,"Duration":155172,"SoundDuration":155172,"Delta":421246432},{"NoteNumber":78,"Velocity":72,"Duration":103448,"SoundDuration":103448,"Delta":421349880},{"NoteNumber":79,"Velocity":76,"Duration":103448,"SoundDuration":103448,"Delta":421453328},{"NoteNumber":43,"Velocity":55,"Duration":155172,"SoundDuration":155172,"Delta":421453328},{"NoteNumber":36,"Velocity":47,"Duration":155172,"SoundDuration":155172,"Delta":421453328},{"NoteNumber":40,"Velocity":55,"Duration":155172,"SoundDuration":155172,"Delta":421453328},{"NoteNumber":46,"Velocity":55,"Duration":155172,"SoundDuration":155172,"Delta":421453328},{"NoteNumber":48,"Velocity":66,"Duration":155172,"SoundDuration":155172,"Delta":421453328},{"NoteNumber":78,"Velocity":72,"Duration":103448,"SoundDuration":103448,"Delta":421556776},{"NoteNumber":79,"Velocity":75,"Duration":103448,"SoundDuration":103448,"Delta":421660225},{"NoteNumber":43,"Velocity":46,"Duration":155172,"SoundDuration":155172,"Delta":421660225},{"NoteNumber":40,"Velocity":46,"Duration":155172,"SoundDuration":155172,"Delta":421660225},{"NoteNumber":36,"Velocity":46,"Duration":155172,"SoundDuration":155172,"Delta":421660225},{"NoteNumber":46,"Velocity":55,"Duration":155172,"SoundDuration":155172,"Delta":421660225},{"NoteNumber":48,"Velocity":68,"Duration":155172,"SoundDuration":155172,"Delta":421660225},{"NoteNumber":78,"Velocity":71,"Duration":103448,"SoundDuration":103448,"Delta":421763673},{"NoteNumber":79,"Velocity":74,"Duration":103448,"SoundDuration":103448,"Delta":421867121},{"NoteNumber":43,"Velocity":53,"Duration":155172,"SoundDuration":155172,"Delta":421867121},{"NoteNumber":46,"Velocity":53,"Duration":155172,"SoundDuration":155172,"Delta":421867121},{"NoteNumber":36,"Velocity":45,"Duration":155172,"SoundDuration":155172,"Delta":421867121},{"NoteNumber":40,"Velocity":53,"Duration":155172,"SoundDuration":155172,"Delta":421867121},{"NoteNumber":48,"Velocity":63,"Duration":155172,"SoundDuration":155172,"Delta":421867121},{"NoteNumber":78,"Velocity":71,"Duration":104263,"SoundDuration":104263,"Delta":421970569},{"NoteNumber":79,"Velocity":80,"Duration":102505,"SoundDuration":102505,"Delta":422074833},{"NoteNumber":43,"Velocity":56,"Duration":153934,"SoundDuration":153934,"Delta":422074833},{"NoteNumber":40,"Velocity":56,"Duration":153934,"SoundDuration":153934,"Delta":422074833},{"NoteNumber":46,"Velocity":56,"Duration":153934,"SoundDuration":153934,"Delta":422074833},{"NoteNumber":36,"Velocity":47,"Duration":153934,"SoundDuration":153934,"Delta":422074833},{"NoteNumber":48,"Velocity":68,"Duration":153934,"SoundDuration":153934,"Delta":422074833},{"NoteNumber":77,"Velocity":79,"Duration":102975,"SoundDuration":102975,"Delta":422177339},{"NoteNumber":76,"Velocity":79,"Duration":103567,"SoundDuration":103567,"Delta":422280314},{"NoteNumber":43,"Velocity":55,"Duration":155650,"SoundDuration":155650,"Delta":422280314},{"NoteNumber":36,"Velocity":47,"Duration":155650,"SoundDuration":155650,"Delta":422280314},{"NoteNumber":40,"Velocity":55,"Duration":155650,"SoundDuration":155650,"Delta":422280314},{"NoteNumber":46,"Velocity":55,"Duration":155650,"SoundDuration":155650,"Delta":422280314},{"NoteNumber":48,"Velocity":66,"Duration":155650,"SoundDuration":155650,"Delta":422280314},{"NoteNumber":73,"Velocity":78,"Duration":104287,"SoundDuration":104287,"Delta":422383882},{"NoteNumber":72,"Velocity":77,"Duration":104773,"SoundDuration":104773,"Delta":422488169},{"NoteNumber":43,"Velocity":46,"Duration":157466,"SoundDuration":157466,"Delta":422488169},{"NoteNumber":40,"Velocity":46,"Duration":157466,"SoundDuration":157466,"Delta":422488169},{"NoteNumber":36,"Velocity":46,"Duration":157466,"SoundDuration":157466,"Delta":422488169},{"NoteNumber":46,"Velocity":55,"Duration":157466,"SoundDuration":157466,"Delta":422488169},{"NoteNumber":48,"Velocity":68,"Duration":157466,"SoundDuration":157466,"Delta":422488169},{"NoteNumber":70,"Velocity":76,"Duration":105510,"SoundDuration":105510,"Delta":422592942},{"NoteNumber":68,"Velocity":75,"Duration":106132,"SoundDuration":106132,"Delta":422698453},{"NoteNumber":48,"Velocity":63,"Duration":159386,"SoundDuration":159386,"Delta":422698453},{"NoteNumber":43,"Velocity":53,"Duration":159386,"SoundDuration":159386,"Delta":422698453},{"NoteNumber":46,"Velocity":53,"Duration":159386,"SoundDuration":159386,"Delta":422698453},{"NoteNumber":36,"Velocity":45,"Duration":159386,"SoundDuration":159386,"Delta":422698453},{"NoteNumber":40,"Velocity":53,"Duration":159386,"SoundDuration":159386,"Delta":422698453},{"NoteNumber":67,"Velocity":74,"Duration":106762,"SoundDuration":106762,"Delta":422804585},{"NoteNumber":56,"Velocity":94,"Duration":684579,"SoundDuration":684579,"Delta":422911347},{"NoteNumber":60,"Velocity":94,"Duration":684579,"SoundDuration":684579,"Delta":422911347},{"NoteNumber":65,"Velocity":111,"Duration":684579,"SoundDuration":684579,"Delta":422911347},{"NoteNumber":29,"Velocity":62,"Duration":684579,"SoundDuration":684579,"Delta":422911347},{"NoteNumber":32,"Velocity":62,"Duration":684579,"SoundDuration":684579,"Delta":422911347},{"NoteNumber":36,"Velocity":62,"Duration":684579,"SoundDuration":684579,"Delta":422911347},{"NoteNumber":41,"Velocity":75,"Duration":684579,"SoundDuration":684579,"Delta":422911347},{"NoteNumber":56,"Velocity":88,"Duration":667408,"SoundDuration":667408,"Delta":423595927},{"NoteNumber":60,"Velocity":88,"Duration":667408,"SoundDuration":667408,"Delta":423595927},{"NoteNumber":68,"Velocity":105,"Duration":667408,"SoundDuration":667408,"Delta":423595927},{"NoteNumber":29,"Velocity":62,"Duration":667408,"SoundDuration":667408,"Delta":423595927},{"NoteNumber":32,"Velocity":62,"Duration":667408,"SoundDuration":667408,"Delta":423595927},{"NoteNumber":36,"Velocity":62,"Duration":667408,"SoundDuration":667408,"Delta":423595927},{"NoteNumber":41,"Velocity":75,"Duration":667408,"SoundDuration":667408,"Delta":423595927},{"NoteNumber":55,"Velocity":50,"Duration":76600,"SoundDuration":76600,"Delta":424263335},{"NoteNumber":58,"Velocity":50,"Duration":76600,"SoundDuration":76600,"Delta":424263335},{"NoteNumber":67,"Velocity":50,"Duration":76600,"SoundDuration":76600,"Delta":424263335},{"NoteNumber":36,"Velocity":40,"Duration":76600,"SoundDuration":76600,"Delta":424263335},{"NoteNumber":48,"Velocity":40,"Duration":76600,"SoundDuration":76600,"Delta":424263335},{"NoteNumber":55,"Velocity":50,"Duration":74563,"SoundDuration":74563,"Delta":424416537},{"NoteNumber":58,"Velocity":50,"Duration":74563,"SoundDuration":74563,"Delta":424416537},{"NoteNumber":64,"Velocity":50,"Duration":74563,"SoundDuration":74563,"Delta":424416537},{"NoteNumber":36,"Velocity":36,"Duration":74563,"SoundDuration":74563,"Delta":424416537},{"NoteNumber":55,"Velocity":46,"Duration":75150,"SoundDuration":75150,"Delta":424565665},{"NoteNumber":58,"Velocity":46,"Duration":75150,"SoundDuration":75150,"Delta":424565665},{"NoteNumber":60,"Velocity":46,"Duration":75150,"SoundDuration":75150,"Delta":424565665},{"NoteNumber":36,"Velocity":36,"Duration":75150,"SoundDuration":75150,"Delta":424565665},{"NoteNumber":55,"Velocity":46,"Duration":75150,"SoundDuration":75150,"Delta":424715965},{"NoteNumber":58,"Velocity":46,"Duration":75150,"SoundDuration":75150,"Delta":424715965},{"NoteNumber":64,"Velocity":46,"Duration":75150,"SoundDuration":75150,"Delta":424715965},{"NoteNumber":36,"Velocity":36,"Duration":75150,"SoundDuration":75150,"Delta":424715965},{"NoteNumber":56,"Velocity":50,"Duration":76014,"SoundDuration":76014,"Delta":424866266},{"NoteNumber":60,"Velocity":50,"Duration":76014,"SoundDuration":76014,"Delta":424866266},{"NoteNumber":65,"Velocity":50,"Duration":76014,"SoundDuration":76014,"Delta":424866266},{"NoteNumber":29,"Velocity":40,"Duration":76014,"SoundDuration":76014,"Delta":424866266},{"NoteNumber":41,"Velocity":40,"Duration":76014,"SoundDuration":76014,"Delta":424866266},{"NoteNumber":56,"Velocity":47,"Duration":73986,"SoundDuration":73986,"Delta":425018295},{"NoteNumber":60,"Velocity":47,"Duration":73986,"SoundDuration":73986,"Delta":425018295},{"NoteNumber":41,"Velocity":37,"Duration":73986,"SoundDuration":73986,"Delta":425018295},{"NoteNumber":56,"Velocity":47,"Duration":74954,"SoundDuration":74954,"Delta":425166268},{"NoteNumber":60,"Velocity":47,"Duration":74954,"SoundDuration":74954,"Delta":425166268},{"NoteNumber":65,"Velocity":47,"Duration":74954,"SoundDuration":74954,"Delta":425166268},{"NoteNumber":41,"Velocity":37,"Duration":74954,"SoundDuration":74954,"Delta":425166268},{"NoteNumber":56,"Velocity":47,"Duration":74955,"SoundDuration":74955,"Delta":425316178},{"NoteNumber":60,"Velocity":47,"Duration":74955,"SoundDuration":74955,"Delta":425316178},{"NoteNumber":68,"Velocity":47,"Duration":74955,"SoundDuration":74955,"Delta":425316178},{"NoteNumber":41,"Velocity":37,"Duration":74955,"SoundDuration":74955,"Delta":425316178},{"NoteNumber":55,"Velocity":50,"Duration":74954,"SoundDuration":74954,"Delta":425466088},{"NoteNumber":58,"Velocity":50,"Duration":74954,"SoundDuration":74954,"Delta":425466088},{"NoteNumber":67,"Velocity":50,"Duration":74954,"SoundDuration":74954,"Delta":425466088},{"NoteNumber":36,"Velocity":40,"Duration":74954,"SoundDuration":74954,"Delta":425466088},{"NoteNumber":48,"Velocity":40,"Duration":74954,"SoundDuration":74954,"Delta":425466088},{"NoteNumber":55,"Velocity":50,"Duration":73414,"SoundDuration":73414,"Delta":425615998},{"NoteNumber":58,"Velocity":50,"Duration":73414,"SoundDuration":73414,"Delta":425615998},{"NoteNumber":64,"Velocity":50,"Duration":73414,"SoundDuration":73414,"Delta":425615998},{"NoteNumber":36,"Velocity":36,"Duration":73414,"SoundDuration":73414,"Delta":425615998},{"NoteNumber":55,"Velocity":46,"Duration":74367,"SoundDuration":74367,"Delta":425762827},{"NoteNumber":58,"Velocity":46,"Duration":74367,"SoundDuration":74367,"Delta":425762827},{"NoteNumber":60,"Velocity":46,"Duration":74367,"SoundDuration":74367,"Delta":425762827},{"NoteNumber":36,"Velocity":36,"Duration":74367,"SoundDuration":74367,"Delta":425762827},{"NoteNumber":55,"Velocity":46,"Duration":74367,"SoundDuration":74367,"Delta":425911562},{"NoteNumber":58,"Velocity":46,"Duration":74367,"SoundDuration":74367,"Delta":425911562},{"NoteNumber":64,"Velocity":46,"Duration":74367,"SoundDuration":74367,"Delta":425911562},{"NoteNumber":36,"Velocity":36,"Duration":74367,"SoundDuration":74367,"Delta":425911562},{"NoteNumber":56,"Velocity":50,"Duration":74693,"SoundDuration":74693,"Delta":426060298},{"NoteNumber":60,"Velocity":50,"Duration":74693,"SoundDuration":74693,"Delta":426060298},{"NoteNumber":65,"Velocity":50,"Duration":74693,"SoundDuration":74693,"Delta":426060298},{"NoteNumber":29,"Velocity":40,"Duration":74693,"SoundDuration":74693,"Delta":426060298},{"NoteNumber":41,"Velocity":40,"Duration":74693,"SoundDuration":74693,"Delta":426060298},{"NoteNumber":56,"Velocity":47,"Duration":74030,"SoundDuration":74030,"Delta":426209685},{"NoteNumber":60,"Velocity":47,"Duration":74030,"SoundDuration":74030,"Delta":426209685},{"NoteNumber":41,"Velocity":37,"Duration":74030,"SoundDuration":74030,"Delta":426209685},{"NoteNumber":56,"Velocity":49,"Duration":74030,"SoundDuration":74030,"Delta":426357746},{"NoteNumber":60,"Velocity":49,"Duration":74030,"SoundDuration":74030,"Delta":426357746},{"NoteNumber":65,"Velocity":49,"Duration":74030,"SoundDuration":74030,"Delta":426357746},{"NoteNumber":41,"Velocity":38,"Duration":74030,"SoundDuration":74030,"Delta":426357746},{"NoteNumber":56,"Velocity":50,"Duration":74030,"SoundDuration":74030,"Delta":426505806},{"NoteNumber":60,"Velocity":50,"Duration":74030,"SoundDuration":74030,"Delta":426505806},{"NoteNumber":68,"Velocity":50,"Duration":74030,"SoundDuration":74030,"Delta":426505806},{"NoteNumber":41,"Velocity":39,"Duration":74030,"SoundDuration":74030,"Delta":426505806},{"NoteNumber":55,"Velocity":55,"Duration":75818,"SoundDuration":75818,"Delta":426653867},{"NoteNumber":60,"Velocity":55,"Duration":75818,"SoundDuration":75818,"Delta":426653867},{"NoteNumber":67,"Velocity":55,"Duration":75818,"SoundDuration":75818,"Delta":426653867},{"NoteNumber":31,"Velocity":44,"Duration":75818,"SoundDuration":75818,"Delta":426653867},{"NoteNumber":55,"Velocity":50,"Duration":75818,"SoundDuration":75818,"Delta":426805504},{"NoteNumber":60,"Velocity":50,"Duration":75818,"SoundDuration":75818,"Delta":426805504},{"NoteNumber":63,"Velocity":50,"Duration":75818,"SoundDuration":75818,"Delta":426805504},{"NoteNumber":43,"Velocity":39,"Duration":75818,"SoundDuration":75818,"Delta":426805504},{"NoteNumber":55,"Velocity":49,"Duration":77699,"SoundDuration":77699,"Delta":426957142},{"NoteNumber":59,"Velocity":49,"Duration":77699,"SoundDuration":77699,"Delta":426957142},{"NoteNumber":62,"Velocity":49,"Duration":77699,"SoundDuration":77699,"Delta":426957142},{"NoteNumber":31,"Velocity":38,"Duration":77699,"SoundDuration":77699,"Delta":426957142},{"NoteNumber":55,"Velocity":48,"Duration":77699,"SoundDuration":77699,"Delta":427112542},{"NoteNumber":59,"Velocity":48,"Duration":77699,"SoundDuration":77699,"Delta":427112542},{"NoteNumber":67,"Velocity":48,"Duration":77699,"SoundDuration":77699,"Delta":427112542},{"NoteNumber":31,"Velocity":38,"Duration":77699,"SoundDuration":77699,"Delta":427112542},{"NoteNumber":60,"Velocity":60,"Duration":310800,"SoundDuration":310800,"Delta":427267942},{"NoteNumber":36,"Velocity":48,"Duration":310800,"SoundDuration":310800,"Delta":427267942},{"NoteNumber":60,"Velocity":75,"Duration":51800,"SoundDuration":51800,"Delta":427734142},{"NoteNumber":36,"Velocity":53,"Duration":38850,"SoundDuration":38850,"Delta":427734142},{"NoteNumber":34,"Velocity":55,"Duration":38849,"SoundDuration":38849,"Delta":427772992},{"NoteNumber":62,"Velocity":78,"Duration":51800,"SoundDuration":51800,"Delta":427785942},{"NoteNumber":32,"Velocity":57,"Duration":38850,"SoundDuration":38850,"Delta":427811842},{"NoteNumber":64,"Velocity":80,"Duration":51799,"SoundDuration":51799,"Delta":427837742},{"NoteNumber":31,"Velocity":61,"Duration":38849,"SoundDuration":38849,"Delta":427850692},{"NoteNumber":56,"Velocity":94,"Duration":661885,"SoundDuration":661885,"Delta":427889542},{"NoteNumber":60,"Velocity":94,"Duration":661885,"SoundDuration":661885,"Delta":427889542},{"NoteNumber":65,"Velocity":111,"Duration":661885,"SoundDuration":661885,"Delta":427889542},{"NoteNumber":29,"Velocity":62,"Duration":661885,"SoundDuration":661885,"Delta":427889542},{"NoteNumber":32,"Velocity":62,"Duration":661885,"SoundDuration":661885,"Delta":427889542},{"NoteNumber":36,"Velocity":62,"Duration":661885,"SoundDuration":661885,"Delta":427889542},{"NoteNumber":41,"Velocity":75,"Duration":661885,"SoundDuration":661885,"Delta":427889542},{"NoteNumber":56,"Velocity":88,"Duration":647563,"SoundDuration":647563,"Delta":428551428},{"NoteNumber":60,"Velocity":88,"Duration":647563,"SoundDuration":647563,"Delta":428551428},{"NoteNumber":68,"Velocity":105,"Duration":647563,"SoundDuration":647563,"Delta":428551428},{"NoteNumber":29,"Velocity":62,"Duration":647563,"SoundDuration":647563,"Delta":428551428},{"NoteNumber":32,"Velocity":62,"Duration":647563,"SoundDuration":647563,"Delta":428551428},{"NoteNumber":36,"Velocity":62,"Duration":647563,"SoundDuration":647563,"Delta":428551428},{"NoteNumber":41,"Velocity":75,"Duration":647563,"SoundDuration":647563,"Delta":428551428},{"NoteNumber":55,"Velocity":50,"Duration":76793,"SoundDuration":76793,"Delta":429198992},{"NoteNumber":58,"Velocity":50,"Duration":76793,"SoundDuration":76793,"Delta":429198992},{"NoteNumber":67,"Velocity":50,"Duration":76793,"SoundDuration":76793,"Delta":429198992},{"NoteNumber":36,"Velocity":40,"Duration":76793,"SoundDuration":76793,"Delta":429198992},{"NoteNumber":48,"Velocity":40,"Duration":76793,"SoundDuration":76793,"Delta":429198992},{"NoteNumber":55,"Velocity":50,"Duration":74756,"SoundDuration":74756,"Delta":429352578},{"NoteNumber":58,"Velocity":50,"Duration":74756,"SoundDuration":74756,"Delta":429352578},{"NoteNumber":64,"Velocity":50,"Duration":74756,"SoundDuration":74756,"Delta":429352578},{"NoteNumber":36,"Velocity":36,"Duration":74756,"SoundDuration":74756,"Delta":429352578},{"NoteNumber":55,"Velocity":46,"Duration":75150,"SoundDuration":75150,"Delta":429502092},{"NoteNumber":58,"Velocity":46,"Duration":75150,"SoundDuration":75150,"Delta":429502092},{"NoteNumber":60,"Velocity":46,"Duration":75150,"SoundDuration":75150,"Delta":429502092},{"NoteNumber":36,"Velocity":36,"Duration":75150,"SoundDuration":75150,"Delta":429502092},{"NoteNumber":55,"Velocity":46,"Duration":75150,"SoundDuration":75150,"Delta":429652392},{"NoteNumber":58,"Velocity":46,"Duration":75150,"SoundDuration":75150,"Delta":429652392},{"NoteNumber":64,"Velocity":46,"Duration":75150,"SoundDuration":75150,"Delta":429652392},{"NoteNumber":36,"Velocity":36,"Duration":75150,"SoundDuration":75150,"Delta":429652392},{"NoteNumber":56,"Velocity":50,"Duration":76016,"SoundDuration":76016,"Delta":429802693},{"NoteNumber":60,"Velocity":50,"Duration":76016,"SoundDuration":76016,"Delta":429802693},{"NoteNumber":65,"Velocity":50,"Duration":76016,"SoundDuration":76016,"Delta":429802693},{"NoteNumber":29,"Velocity":40,"Duration":76016,"SoundDuration":76016,"Delta":429802693},{"NoteNumber":41,"Velocity":40,"Duration":76016,"SoundDuration":76016,"Delta":429802693},{"NoteNumber":56,"Velocity":47,"Duration":73793,"SoundDuration":73793,"Delta":429955061},{"NoteNumber":60,"Velocity":47,"Duration":73793,"SoundDuration":73793,"Delta":429955061},{"NoteNumber":41,"Velocity":37,"Duration":73793,"SoundDuration":73793,"Delta":429955061},{"NoteNumber":56,"Velocity":47,"Duration":74756,"SoundDuration":74756,"Delta":430102648},{"NoteNumber":60,"Velocity":47,"Duration":74756,"SoundDuration":74756,"Delta":430102648},{"NoteNumber":65,"Velocity":47,"Duration":74756,"SoundDuration":74756,"Delta":430102648},{"NoteNumber":41,"Velocity":37,"Duration":74756,"SoundDuration":74756,"Delta":430102648},{"NoteNumber":56,"Velocity":47,"Duration":74756,"SoundDuration":74756,"Delta":430252162},{"NoteNumber":60,"Velocity":47,"Duration":74756,"SoundDuration":74756,"Delta":430252162},{"NoteNumber":68,"Velocity":47,"Duration":74756,"SoundDuration":74756,"Delta":430252162},{"NoteNumber":41,"Velocity":37,"Duration":74756,"SoundDuration":74756,"Delta":430252162},{"NoteNumber":55,"Velocity":50,"Duration":73986,"SoundDuration":73986,"Delta":430401676},{"NoteNumber":58,"Velocity":50,"Duration":73986,"SoundDuration":73986,"Delta":430401676},{"NoteNumber":67,"Velocity":50,"Duration":73986,"SoundDuration":73986,"Delta":430401676},{"NoteNumber":36,"Velocity":40,"Duration":73986,"SoundDuration":73986,"Delta":430401676},{"NoteNumber":48,"Velocity":40,"Duration":73986,"SoundDuration":73986,"Delta":430401676},{"NoteNumber":55,"Velocity":50,"Duration":72854,"SoundDuration":72854,"Delta":430549649},{"NoteNumber":58,"Velocity":50,"Duration":72854,"SoundDuration":72854,"Delta":430549649},{"NoteNumber":64,"Velocity":50,"Duration":72854,"SoundDuration":72854,"Delta":430549649},{"NoteNumber":36,"Velocity":36,"Duration":72854,"SoundDuration":72854,"Delta":430549649},{"NoteNumber":55,"Velocity":46,"Duration":73605,"SoundDuration":73605,"Delta":430695358},{"NoteNumber":58,"Velocity":46,"Duration":73605,"SoundDuration":73605,"Delta":430695358},{"NoteNumber":60,"Velocity":46,"Duration":73605,"SoundDuration":73605,"Delta":430695358},{"NoteNumber":36,"Velocity":36,"Duration":73605,"SoundDuration":73605,"Delta":430695358},{"NoteNumber":55,"Velocity":46,"Duration":73605,"SoundDuration":73605,"Delta":430842568},{"NoteNumber":58,"Velocity":46,"Duration":73605,"SoundDuration":73605,"Delta":430842568},{"NoteNumber":64,"Velocity":46,"Duration":73605,"SoundDuration":73605,"Delta":430842568},{"NoteNumber":36,"Velocity":36,"Duration":73605,"SoundDuration":73605,"Delta":430842568},{"NoteNumber":56,"Velocity":50,"Duration":74693,"SoundDuration":74693,"Delta":430989779},{"NoteNumber":60,"Velocity":50,"Duration":74693,"SoundDuration":74693,"Delta":430989779},{"NoteNumber":65,"Velocity":50,"Duration":74693,"SoundDuration":74693,"Delta":430989779},{"NoteNumber":29,"Velocity":40,"Duration":74693,"SoundDuration":74693,"Delta":430989779},{"NoteNumber":41,"Velocity":40,"Duration":74693,"SoundDuration":74693,"Delta":430989779},{"NoteNumber":56,"Velocity":47,"Duration":73811,"SoundDuration":73811,"Delta":431139166},{"NoteNumber":60,"Velocity":47,"Duration":73811,"SoundDuration":73811,"Delta":431139166},{"NoteNumber":41,"Velocity":37,"Duration":73811,"SoundDuration":73811,"Delta":431139166},{"NoteNumber":56,"Velocity":49,"Duration":73811,"SoundDuration":73811,"Delta":431286790},{"NoteNumber":60,"Velocity":49,"Duration":73811,"SoundDuration":73811,"Delta":431286790},{"NoteNumber":65,"Velocity":49,"Duration":73811,"SoundDuration":73811,"Delta":431286790},{"NoteNumber":41,"Velocity":38,"Duration":73811,"SoundDuration":73811,"Delta":431286790},{"NoteNumber":56,"Velocity":50,"Duration":73811,"SoundDuration":73811,"Delta":431434413},{"NoteNumber":60,"Velocity":50,"Duration":73811,"SoundDuration":73811,"Delta":431434413},{"NoteNumber":68,"Velocity":50,"Duration":73811,"SoundDuration":73811,"Delta":431434413},{"NoteNumber":41,"Velocity":39,"Duration":73811,"SoundDuration":73811,"Delta":431434413},{"NoteNumber":55,"Velocity":55,"Duration":75818,"SoundDuration":75818,"Delta":431582037},{"NoteNumber":60,"Velocity":55,"Duration":75818,"SoundDuration":75818,"Delta":431582037},{"NoteNumber":67,"Velocity":55,"Duration":75818,"SoundDuration":75818,"Delta":431582037},{"NoteNumber":31,"Velocity":44,"Duration":75818,"SoundDuration":75818,"Delta":431582037},{"NoteNumber":55,"Velocity":50,"Duration":75818,"SoundDuration":75818,"Delta":431733674},{"NoteNumber":60,"Velocity":50,"Duration":75818,"SoundDuration":75818,"Delta":431733674},{"NoteNumber":63,"Velocity":50,"Duration":75818,"SoundDuration":75818,"Delta":431733674},{"NoteNumber":43,"Velocity":39,"Duration":75818,"SoundDuration":75818,"Delta":431733674},{"NoteNumber":55,"Velocity":49,"Duration":77699,"SoundDuration":77699,"Delta":431885312},{"NoteNumber":59,"Velocity":49,"Duration":77699,"SoundDuration":77699,"Delta":431885312},{"NoteNumber":62,"Velocity":49,"Duration":77699,"SoundDuration":77699,"Delta":431885312},{"NoteNumber":31,"Velocity":38,"Duration":77699,"SoundDuration":77699,"Delta":431885312},{"NoteNumber":55,"Velocity":48,"Duration":77699,"SoundDuration":77699,"Delta":432040712},{"NoteNumber":59,"Velocity":48,"Duration":77699,"SoundDuration":77699,"Delta":432040712},{"NoteNumber":67,"Velocity":48,"Duration":77699,"SoundDuration":77699,"Delta":432040712},{"NoteNumber":31,"Velocity":38,"Duration":77699,"SoundDuration":77699,"Delta":432040712},{"NoteNumber":60,"Velocity":60,"Duration":310800,"SoundDuration":310800,"Delta":432196112},{"NoteNumber":36,"Velocity":48,"Duration":310800,"SoundDuration":310800,"Delta":432196112},{"NoteNumber":63,"Velocity":75,"Duration":51800,"SoundDuration":51800,"Delta":432662312},{"NoteNumber":39,"Velocity":63,"Duration":51800,"SoundDuration":51800,"Delta":432662312},{"NoteNumber":65,"Velocity":78,"Duration":51800,"SoundDuration":51800,"Delta":432714112},{"NoteNumber":41,"Velocity":66,"Duration":51800,"SoundDuration":51800,"Delta":432714112},{"NoteNumber":67,"Velocity":80,"Duration":51799,"SoundDuration":51799,"Delta":432765912},{"NoteNumber":43,"Velocity":68,"Duration":51799,"SoundDuration":51799,"Delta":432765912},{"NoteNumber":60,"Velocity":94,"Duration":661885,"SoundDuration":661885,"Delta":432817712},{"NoteNumber":63,"Velocity":94,"Duration":661885,"SoundDuration":661885,"Delta":432817712},{"NoteNumber":68,"Velocity":111,"Duration":661885,"SoundDuration":661885,"Delta":432817712},{"NoteNumber":32,"Velocity":62,"Duration":661885,"SoundDuration":661885,"Delta":432817712},{"NoteNumber":36,"Velocity":62,"Duration":661885,"SoundDuration":661885,"Delta":432817712},{"NoteNumber":39,"Velocity":62,"Duration":661885,"SoundDuration":661885,"Delta":432817712},{"NoteNumber":44,"Velocity":75,"Duration":661885,"SoundDuration":661885,"Delta":432817712},{"NoteNumber":60,"Velocity":88,"Duration":647563,"SoundDuration":647563,"Delta":433479598},{"NoteNumber":63,"Velocity":88,"Duration":647563,"SoundDuration":647563,"Delta":433479598},{"NoteNumber":72,"Velocity":105,"Duration":647563,"SoundDuration":647563,"Delta":433479598},{"NoteNumber":32,"Velocity":62,"Duration":647563,"SoundDuration":647563,"Delta":433479598},{"NoteNumber":36,"Velocity":62,"Duration":647563,"SoundDuration":647563,"Delta":433479598},{"NoteNumber":39,"Velocity":62,"Duration":647563,"SoundDuration":647563,"Delta":433479598},{"NoteNumber":44,"Velocity":75,"Duration":647563,"SoundDuration":647563,"Delta":433479598},{"NoteNumber":58,"Velocity":50,"Duration":75441,"SoundDuration":75441,"Delta":434127162},{"NoteNumber":61,"Velocity":50,"Duration":75441,"SoundDuration":75441,"Delta":434127162},{"NoteNumber":70,"Velocity":50,"Duration":75441,"SoundDuration":75441,"Delta":434127162},{"NoteNumber":39,"Velocity":40,"Duration":75441,"SoundDuration":75441,"Delta":434127162},{"NoteNumber":51,"Velocity":40,"Duration":75441,"SoundDuration":75441,"Delta":434127162},{"NoteNumber":58,"Velocity":50,"Duration":73605,"SoundDuration":73605,"Delta":434278044},{"NoteNumber":61,"Velocity":50,"Duration":73605,"SoundDuration":73605,"Delta":434278044},{"NoteNumber":67,"Velocity":50,"Duration":73605,"SoundDuration":73605,"Delta":434278044},{"NoteNumber":39,"Velocity":36,"Duration":73605,"SoundDuration":73605,"Delta":434278044},{"NoteNumber":58,"Velocity":46,"Duration":74176,"SoundDuration":74176,"Delta":434425255},{"NoteNumber":61,"Velocity":46,"Duration":74176,"SoundDuration":74176,"Delta":434425255},{"NoteNumber":63,"Velocity":46,"Duration":74176,"SoundDuration":74176,"Delta":434425255},{"NoteNumber":39,"Velocity":36,"Duration":74176,"SoundDuration":74176,"Delta":434425255},{"NoteNumber":58,"Velocity":46,"Duration":74176,"SoundDuration":74176,"Delta":434573608},{"NoteNumber":61,"Velocity":46,"Duration":74176,"SoundDuration":74176,"Delta":434573608},{"NoteNumber":67,"Velocity":46,"Duration":74176,"SoundDuration":74176,"Delta":434573608},{"NoteNumber":39,"Velocity":36,"Duration":74176,"SoundDuration":74176,"Delta":434573608},{"NoteNumber":60,"Velocity":50,"Duration":75251,"SoundDuration":75251,"Delta":434721962},{"NoteNumber":63,"Velocity":50,"Duration":75251,"SoundDuration":75251,"Delta":434721962},{"NoteNumber":68,"Velocity":50,"Duration":75251,"SoundDuration":75251,"Delta":434721962},{"NoteNumber":32,"Velocity":40,"Duration":75251,"SoundDuration":75251,"Delta":434721962},{"NoteNumber":44,"Velocity":40,"Duration":75251,"SoundDuration":75251,"Delta":434721962},{"NoteNumber":60,"Velocity":47,"Duration":73227,"SoundDuration":73227,"Delta":434872466},{"NoteNumber":63,"Velocity":47,"Duration":73227,"SoundDuration":73227,"Delta":434872466},{"NoteNumber":44,"Velocity":37,"Duration":73227,"SoundDuration":73227,"Delta":434872466},{"NoteNumber":60,"Velocity":47,"Duration":73793,"SoundDuration":73793,"Delta":435018922},{"NoteNumber":63,"Velocity":47,"Duration":73793,"SoundDuration":73793,"Delta":435018922},{"NoteNumber":68,"Velocity":47,"Duration":73793,"SoundDuration":73793,"Delta":435018922},{"NoteNumber":44,"Velocity":37,"Duration":73793,"SoundDuration":73793,"Delta":435018922},{"NoteNumber":60,"Velocity":47,"Duration":73793,"SoundDuration":73793,"Delta":435166509},{"NoteNumber":63,"Velocity":47,"Duration":73793,"SoundDuration":73793,"Delta":435166509},{"NoteNumber":72,"Velocity":47,"Duration":73793,"SoundDuration":73793,"Delta":435166509},{"NoteNumber":44,"Velocity":37,"Duration":73793,"SoundDuration":73793,"Delta":435166509},{"NoteNumber":58,"Velocity":50,"Duration":74471,"SoundDuration":74471,"Delta":435314096},{"NoteNumber":61,"Velocity":50,"Duration":74471,"SoundDuration":74471,"Delta":435314096},{"NoteNumber":70,"Velocity":50,"Duration":74471,"SoundDuration":74471,"Delta":435314096},{"NoteNumber":39,"Velocity":40,"Duration":74471,"SoundDuration":74471,"Delta":435314096},{"NoteNumber":51,"Velocity":40,"Duration":74471,"SoundDuration":74471,"Delta":435314096},{"NoteNumber":58,"Velocity":50,"Duration":73381,"SoundDuration":73381,"Delta":435463038},{"NoteNumber":61,"Velocity":50,"Duration":73381,"SoundDuration":73381,"Delta":435463038},{"NoteNumber":67,"Velocity":50,"Duration":73381,"SoundDuration":73381,"Delta":435463038},{"NoteNumber":39,"Velocity":36,"Duration":73381,"SoundDuration":73381,"Delta":435463038},{"NoteNumber":58,"Velocity":46,"Duration":73381,"SoundDuration":73381,"Delta":435609802},{"NoteNumber":61,"Velocity":46,"Duration":73381,"SoundDuration":73381,"Delta":435609802},{"NoteNumber":63,"Velocity":46,"Duration":73381,"SoundDuration":73381,"Delta":435609802},{"NoteNumber":39,"Velocity":36,"Duration":73381,"SoundDuration":73381,"Delta":435609802},{"NoteNumber":58,"Velocity":46,"Duration":73382,"SoundDuration":73382,"Delta":435756566},{"NoteNumber":61,"Velocity":46,"Duration":73382,"SoundDuration":73382,"Delta":435756566},{"NoteNumber":67,"Velocity":46,"Duration":73382,"SoundDuration":73382,"Delta":435756566},{"NoteNumber":39,"Velocity":36,"Duration":73382,"SoundDuration":73382,"Delta":435756566},{"NoteNumber":60,"Velocity":50,"Duration":74471,"SoundDuration":74471,"Delta":435903330},{"NoteNumber":63,"Velocity":50,"Duration":74471,"SoundDuration":74471,"Delta":435903330},{"NoteNumber":68,"Velocity":50,"Duration":74471,"SoundDuration":74471,"Delta":435903330},{"NoteNumber":32,"Velocity":40,"Duration":74471,"SoundDuration":74471,"Delta":435903330},{"NoteNumber":44,"Velocity":40,"Duration":74471,"SoundDuration":74471,"Delta":435903330},{"NoteNumber":60,"Velocity":47,"Duration":73381,"SoundDuration":73381,"Delta":436052273},{"NoteNumber":63,"Velocity":47,"Duration":73381,"SoundDuration":73381,"Delta":436052273},{"NoteNumber":44,"Velocity":37,"Duration":73381,"SoundDuration":73381,"Delta":436052273},{"NoteNumber":60,"Velocity":47,"Duration":73381,"SoundDuration":73381,"Delta":436199037},{"NoteNumber":63,"Velocity":47,"Duration":73381,"SoundDuration":73381,"Delta":436199037},{"NoteNumber":68,"Velocity":47,"Duration":73381,"SoundDuration":73381,"Delta":436199037},{"NoteNumber":44,"Velocity":37,"Duration":73381,"SoundDuration":73381,"Delta":436199037},{"NoteNumber":60,"Velocity":47,"Duration":73382,"SoundDuration":73382,"Delta":436345801},{"NoteNumber":63,"Velocity":47,"Duration":73382,"SoundDuration":73382,"Delta":436345801},{"NoteNumber":72,"Velocity":47,"Duration":73382,"SoundDuration":73382,"Delta":436345801},{"NoteNumber":44,"Velocity":37,"Duration":73382,"SoundDuration":73382,"Delta":436345801},{"NoteNumber":60,"Velocity":52,"Duration":75063,"SoundDuration":75063,"Delta":436492565},{"NoteNumber":63,"Velocity":52,"Duration":75063,"SoundDuration":75063,"Delta":436492565},{"NoteNumber":69,"Velocity":52,"Duration":75063,"SoundDuration":75063,"Delta":436492565},{"NoteNumber":29,"Velocity":42,"Duration":75063,"SoundDuration":75063,"Delta":436492565},{"NoteNumber":41,"Velocity":42,"Duration":75063,"SoundDuration":75063,"Delta":436492565},{"NoteNumber":60,"Velocity":52,"Duration":73950,"SoundDuration":73950,"Delta":436642692},{"NoteNumber":63,"Velocity":52,"Duration":73950,"SoundDuration":73950,"Delta":436642692},{"NoteNumber":65,"Velocity":52,"Duration":73950,"SoundDuration":73950,"Delta":436642692},{"NoteNumber":29,"Velocity":37,"Duration":73950,"SoundDuration":73950,"Delta":436642692},{"NoteNumber":60,"Velocity":48,"Duration":73950,"SoundDuration":73950,"Delta":436790592},{"NoteNumber":63,"Velocity":48,"Duration":73950,"SoundDuration":73950,"Delta":436790592},{"NoteNumber":69,"Velocity":48,"Duration":73950,"SoundDuration":73950,"Delta":436790592},{"NoteNumber":29,"Velocity":38,"Duration":73950,"SoundDuration":73950,"Delta":436790592},{"NoteNumber":60,"Velocity":49,"Duration":73950,"SoundDuration":73950,"Delta":436938492},{"NoteNumber":63,"Velocity":49,"Duration":73950,"SoundDuration":73950,"Delta":436938492},{"NoteNumber":72,"Velocity":49,"Duration":73950,"SoundDuration":73950,"Delta":436938492},{"NoteNumber":29,"Velocity":38,"Duration":73950,"SoundDuration":73950,"Delta":436938492},{"NoteNumber":61,"Velocity":54,"Duration":75822,"SoundDuration":75822,"Delta":437086392},{"NoteNumber":65,"Velocity":54,"Duration":75822,"SoundDuration":75822,"Delta":437086392},{"NoteNumber":70,"Velocity":54,"Duration":75822,"SoundDuration":75822,"Delta":437086392},{"NoteNumber":34,"Velocity":43,"Duration":75822,"SoundDuration":75822,"Delta":437086392},{"NoteNumber":46,"Velocity":43,"Duration":75822,"SoundDuration":75822,"Delta":437086392},{"NoteNumber":61,"Velocity":52,"Duration":73950,"SoundDuration":73950,"Delta":437238038},{"NoteNumber":65,"Velocity":52,"Duration":73950,"SoundDuration":73950,"Delta":437238038},{"NoteNumber":46,"Velocity":40,"Duration":73950,"SoundDuration":73950,"Delta":437238038},{"NoteNumber":61,"Velocity":53,"Duration":73950,"SoundDuration":73950,"Delta":437385938},{"NoteNumber":65,"Velocity":53,"Duration":73950,"SoundDuration":73950,"Delta":437385938},{"NoteNumber":70,"Velocity":53,"Duration":73950,"SoundDuration":73950,"Delta":437385938},{"NoteNumber":46,"Velocity":42,"Duration":73950,"SoundDuration":73950,"Delta":437385938},{"NoteNumber":61,"Velocity":54,"Duration":73950,"SoundDuration":73950,"Delta":437533838},{"NoteNumber":65,"Velocity":54,"Duration":73950,"SoundDuration":73950,"Delta":437533838},{"NoteNumber":73,"Velocity":54,"Duration":73950,"SoundDuration":73950,"Delta":437533838},{"NoteNumber":46,"Velocity":42,"Duration":73950,"SoundDuration":73950,"Delta":437533838},{"NoteNumber":60,"Velocity":60,"Duration":75635,"SoundDuration":75635,"Delta":437681738},{"NoteNumber":65,"Velocity":60,"Duration":75635,"SoundDuration":75635,"Delta":437681738},{"NoteNumber":72,"Velocity":60,"Duration":75635,"SoundDuration":75635,"Delta":437681738},{"NoteNumber":36,"Velocity":48,"Duration":75635,"SoundDuration":75635,"Delta":437681738},{"NoteNumber":60,"Velocity":60,"Duration":74689,"SoundDuration":74689,"Delta":437833008},{"NoteNumber":65,"Velocity":60,"Duration":74689,"SoundDuration":74689,"Delta":437833008},{"NoteNumber":68,"Velocity":60,"Duration":74689,"SoundDuration":74689,"Delta":437833008},{"NoteNumber":48,"Velocity":43,"Duration":74689,"SoundDuration":74689,"Delta":437833008},{"NoteNumber":60,"Velocity":53,"Duration":74689,"SoundDuration":74689,"Delta":437982388},{"NoteNumber":64,"Velocity":53,"Duration":74689,"SoundDuration":74689,"Delta":437982388},{"NoteNumber":67,"Velocity":53,"Duration":74689,"SoundDuration":74689,"Delta":437982388},{"NoteNumber":36,"Velocity":42,"Duration":74689,"SoundDuration":74689,"Delta":437982388},{"NoteNumber":60,"Velocity":53,"Duration":74689,"SoundDuration":74689,"Delta":438131768},{"NoteNumber":64,"Velocity":53,"Duration":74689,"SoundDuration":74689,"Delta":438131768},{"NoteNumber":72,"Velocity":53,"Duration":74689,"SoundDuration":74689,"Delta":438131768},{"NoteNumber":36,"Velocity":42,"Duration":74689,"SoundDuration":74689,"Delta":438131768},{"NoteNumber":65,"Velocity":70,"Duration":303291,"SoundDuration":303291,"Delta":438281148},{"NoteNumber":29,"Velocity":48,"Duration":303291,"SoundDuration":303291,"Delta":438281148},{"NoteNumber":41,"Velocity":48,"Duration":303291,"SoundDuration":303291,"Delta":438281148},{"NoteNumber":63,"Velocity":75,"Duration":50548,"SoundDuration":50548,"Delta":438736085},{"NoteNumber":39,"Velocity":63,"Duration":50548,"SoundDuration":50548,"Delta":438736085},{"NoteNumber":65,"Velocity":78,"Duration":50548,"SoundDuration":50548,"Delta":438786633},{"NoteNumber":41,"Velocity":66,"Duration":50548,"SoundDuration":50548,"Delta":438786633},{"NoteNumber":67,"Velocity":80,"Duration":50548,"SoundDuration":50548,"Delta":438837182},{"NoteNumber":43,"Velocity":68,"Duration":50548,"SoundDuration":50548,"Delta":438837182},{"NoteNumber":60,"Velocity":94,"Duration":656455,"SoundDuration":656455,"Delta":438887730},{"NoteNumber":63,"Velocity":94,"Duration":656455,"SoundDuration":656455,"Delta":438887730},{"NoteNumber":68,"Velocity":111,"Duration":656455,"SoundDuration":656455,"Delta":438887730},{"NoteNumber":32,"Velocity":62,"Duration":656455,"SoundDuration":656455,"Delta":438887730},{"NoteNumber":36,"Velocity":62,"Duration":656455,"SoundDuration":656455,"Delta":438887730},{"NoteNumber":39,"Velocity":62,"Duration":656455,"SoundDuration":656455,"Delta":438887730},{"NoteNumber":44,"Velocity":75,"Duration":656455,"SoundDuration":656455,"Delta":438887730},{"NoteNumber":60,"Velocity":88,"Duration":640649,"SoundDuration":640649,"Delta":439544186},{"NoteNumber":63,"Velocity":88,"Duration":640649,"SoundDuration":640649,"Delta":439544186},{"NoteNumber":72,"Velocity":105,"Duration":640649,"SoundDuration":640649,"Delta":439544186},{"NoteNumber":32,"Velocity":62,"Duration":640649,"SoundDuration":640649,"Delta":439544186},{"NoteNumber":36,"Velocity":62,"Duration":640649,"SoundDuration":640649,"Delta":439544186},{"NoteNumber":39,"Velocity":62,"Duration":640649,"SoundDuration":640649,"Delta":439544186},{"NoteNumber":44,"Velocity":75,"Duration":640649,"SoundDuration":640649,"Delta":439544186},{"NoteNumber":58,"Velocity":50,"Duration":74756,"SoundDuration":74756,"Delta":440184836},{"NoteNumber":61,"Velocity":50,"Duration":74756,"SoundDuration":74756,"Delta":440184836},{"NoteNumber":70,"Velocity":50,"Duration":74756,"SoundDuration":74756,"Delta":440184836},{"NoteNumber":39,"Velocity":40,"Duration":74756,"SoundDuration":74756,"Delta":440184836},{"NoteNumber":51,"Velocity":40,"Duration":74756,"SoundDuration":74756,"Delta":440184836},{"NoteNumber":58,"Velocity":50,"Duration":73042,"SoundDuration":73042,"Delta":440334350},{"NoteNumber":61,"Velocity":50,"Duration":73042,"SoundDuration":73042,"Delta":440334350},{"NoteNumber":67,"Velocity":50,"Duration":73042,"SoundDuration":73042,"Delta":440334350},{"NoteNumber":39,"Velocity":36,"Duration":73042,"SoundDuration":73042,"Delta":440334350},{"NoteNumber":58,"Velocity":46,"Duration":74367,"SoundDuration":74367,"Delta":440480435},{"NoteNumber":61,"Velocity":46,"Duration":74367,"SoundDuration":74367,"Delta":440480435},{"NoteNumber":63,"Velocity":46,"Duration":74367,"SoundDuration":74367,"Delta":440480435},{"NoteNumber":39,"Velocity":36,"Duration":74367,"SoundDuration":74367,"Delta":440480435},{"NoteNumber":58,"Velocity":46,"Duration":74367,"SoundDuration":74367,"Delta":440629171},{"NoteNumber":61,"Velocity":46,"Duration":74367,"SoundDuration":74367,"Delta":440629171},{"NoteNumber":67,"Velocity":46,"Duration":74367,"SoundDuration":74367,"Delta":440629171},{"NoteNumber":39,"Velocity":36,"Duration":74367,"SoundDuration":74367,"Delta":440629171},{"NoteNumber":60,"Velocity":50,"Duration":75063,"SoundDuration":75063,"Delta":440777906},{"NoteNumber":63,"Velocity":50,"Duration":75063,"SoundDuration":75063,"Delta":440777906},{"NoteNumber":68,"Velocity":50,"Duration":75063,"SoundDuration":75063,"Delta":440777906},{"NoteNumber":32,"Velocity":40,"Duration":75063,"SoundDuration":75063,"Delta":440777906},{"NoteNumber":44,"Velocity":40,"Duration":75063,"SoundDuration":75063,"Delta":440777906},{"NoteNumber":60,"Velocity":47,"Duration":73950,"SoundDuration":73950,"Delta":440928034},{"NoteNumber":63,"Velocity":47,"Duration":73950,"SoundDuration":73950,"Delta":440928034},{"NoteNumber":44,"Velocity":37,"Duration":73950,"SoundDuration":73950,"Delta":440928034},{"NoteNumber":60,"Velocity":47,"Duration":73950,"SoundDuration":73950,"Delta":441075934},{"NoteNumber":63,"Velocity":47,"Duration":73950,"SoundDuration":73950,"Delta":441075934},{"NoteNumber":68,"Velocity":47,"Duration":73950,"SoundDuration":73950,"Delta":441075934},{"NoteNumber":44,"Velocity":37,"Duration":73950,"SoundDuration":73950,"Delta":441075934},{"NoteNumber":60,"Velocity":47,"Duration":73950,"SoundDuration":73950,"Delta":441223834},{"NoteNumber":63,"Velocity":47,"Duration":73950,"SoundDuration":73950,"Delta":441223834},{"NoteNumber":72,"Velocity":47,"Duration":73950,"SoundDuration":73950,"Delta":441223834},{"NoteNumber":44,"Velocity":37,"Duration":73950,"SoundDuration":73950,"Delta":441223834},{"NoteNumber":58,"Velocity":50,"Duration":74471,"SoundDuration":74471,"Delta":441371734},{"NoteNumber":61,"Velocity":50,"Duration":74471,"SoundDuration":74471,"Delta":441371734},{"NoteNumber":70,"Velocity":50,"Duration":74471,"SoundDuration":74471,"Delta":441371734},{"NoteNumber":39,"Velocity":40,"Duration":74471,"SoundDuration":74471,"Delta":441371734},{"NoteNumber":51,"Velocity":40,"Duration":74471,"SoundDuration":74471,"Delta":441371734},{"NoteNumber":58,"Velocity":50,"Duration":73381,"SoundDuration":73381,"Delta":441520676},{"NoteNumber":61,"Velocity":50,"Duration":73381,"SoundDuration":73381,"Delta":441520676},{"NoteNumber":67,"Velocity":50,"Duration":73381,"SoundDuration":73381,"Delta":441520676},{"NoteNumber":39,"Velocity":36,"Duration":73381,"SoundDuration":73381,"Delta":441520676},{"NoteNumber":58,"Velocity":46,"Duration":73381,"SoundDuration":73381,"Delta":441667440},{"NoteNumber":61,"Velocity":46,"Duration":73381,"SoundDuration":73381,"Delta":441667440},{"NoteNumber":63,"Velocity":46,"Duration":73381,"SoundDuration":73381,"Delta":441667440},{"NoteNumber":39,"Velocity":36,"Duration":73381,"SoundDuration":73381,"Delta":441667440},{"NoteNumber":58,"Velocity":46,"Duration":73382,"SoundDuration":73382,"Delta":441814204},{"NoteNumber":61,"Velocity":46,"Duration":73382,"SoundDuration":73382,"Delta":441814204},{"NoteNumber":67,"Velocity":46,"Duration":73382,"SoundDuration":73382,"Delta":441814204},{"NoteNumber":39,"Velocity":36,"Duration":73382,"SoundDuration":73382,"Delta":441814204},{"NoteNumber":60,"Velocity":50,"Duration":75745,"SoundDuration":75745,"Delta":441960968},{"NoteNumber":63,"Velocity":50,"Duration":75745,"SoundDuration":75745,"Delta":441960968},{"NoteNumber":68,"Velocity":50,"Duration":75745,"SoundDuration":75745,"Delta":441960968},{"NoteNumber":32,"Velocity":40,"Duration":75745,"SoundDuration":75745,"Delta":441960968},{"NoteNumber":44,"Velocity":40,"Duration":75745,"SoundDuration":75745,"Delta":441960968},{"NoteNumber":60,"Velocity":47,"Duration":74563,"SoundDuration":74563,"Delta":442112460},{"NoteNumber":63,"Velocity":47,"Duration":74563,"SoundDuration":74563,"Delta":442112460},{"NoteNumber":44,"Velocity":37,"Duration":74563,"SoundDuration":74563,"Delta":442112460},{"NoteNumber":60,"Velocity":47,"Duration":74563,"SoundDuration":74563,"Delta":442261588},{"NoteNumber":63,"Velocity":47,"Duration":74563,"SoundDuration":74563,"Delta":442261588},{"NoteNumber":68,"Velocity":47,"Duration":74563,"SoundDuration":74563,"Delta":442261588},{"NoteNumber":44,"Velocity":37,"Duration":74563,"SoundDuration":74563,"Delta":442261588},{"NoteNumber":60,"Velocity":47,"Duration":74563,"SoundDuration":74563,"Delta":442410715},{"NoteNumber":63,"Velocity":47,"Duration":74563,"SoundDuration":74563,"Delta":442410715},{"NoteNumber":72,"Velocity":47,"Duration":74563,"SoundDuration":74563,"Delta":442410715},{"NoteNumber":44,"Velocity":37,"Duration":74563,"SoundDuration":74563,"Delta":442410715},{"NoteNumber":60,"Velocity":52,"Duration":75251,"SoundDuration":75251,"Delta":442559843},{"NoteNumber":63,"Velocity":52,"Duration":75251,"SoundDuration":75251,"Delta":442559843},{"NoteNumber":69,"Velocity":52,"Duration":75251,"SoundDuration":75251,"Delta":442559843},{"NoteNumber":29,"Velocity":42,"Duration":75251,"SoundDuration":75251,"Delta":442559843},{"NoteNumber":41,"Velocity":42,"Duration":75251,"SoundDuration":75251,"Delta":442559843},{"NoteNumber":60,"Velocity":52,"Duration":73950,"SoundDuration":73950,"Delta":442710347},{"NoteNumber":63,"Velocity":52,"Duration":73950,"SoundDuration":73950,"Delta":442710347},{"NoteNumber":65,"Velocity":52,"Duration":73950,"SoundDuration":73950,"Delta":442710347},{"NoteNumber":29,"Velocity":37,"Duration":73950,"SoundDuration":73950,"Delta":442710347},{"NoteNumber":60,"Velocity":48,"Duration":73950,"SoundDuration":73950,"Delta":442858247},{"NoteNumber":63,"Velocity":48,"Duration":73950,"SoundDuration":73950,"Delta":442858247},{"NoteNumber":69,"Velocity":48,"Duration":73950,"SoundDuration":73950,"Delta":442858247},{"NoteNumber":29,"Velocity":38,"Duration":73950,"SoundDuration":73950,"Delta":442858247},{"NoteNumber":60,"Velocity":49,"Duration":73950,"SoundDuration":73950,"Delta":443006147},{"NoteNumber":63,"Velocity":49,"Duration":73950,"SoundDuration":73950,"Delta":443006147},{"NoteNumber":72,"Velocity":49,"Duration":73950,"SoundDuration":73950,"Delta":443006147},{"NoteNumber":29,"Velocity":38,"Duration":73950,"SoundDuration":73950,"Delta":443006147},{"NoteNumber":61,"Velocity":54,"Duration":75635,"SoundDuration":75635,"Delta":443154047},{"NoteNumber":65,"Velocity":54,"Duration":75635,"SoundDuration":75635,"Delta":443154047},{"NoteNumber":70,"Velocity":54,"Duration":75635,"SoundDuration":75635,"Delta":443154047},{"NoteNumber":34,"Velocity":43,"Duration":75635,"SoundDuration":75635,"Delta":443154047},{"NoteNumber":46,"Velocity":43,"Duration":75635,"SoundDuration":75635,"Delta":443154047},{"NoteNumber":61,"Velocity":52,"Duration":74504,"SoundDuration":74504,"Delta":443305317},{"NoteNumber":65,"Velocity":52,"Duration":74504,"SoundDuration":74504,"Delta":443305317},{"NoteNumber":46,"Velocity":40,"Duration":74504,"SoundDuration":74504,"Delta":443305317},{"NoteNumber":61,"Velocity":53,"Duration":74504,"SoundDuration":74504,"Delta":443454326},{"NoteNumber":65,"Velocity":53,"Duration":74504,"SoundDuration":74504,"Delta":443454326},{"NoteNumber":70,"Velocity":53,"Duration":74504,"SoundDuration":74504,"Delta":443454326},{"NoteNumber":46,"Velocity":42,"Duration":74504,"SoundDuration":74504,"Delta":443454326},{"NoteNumber":61,"Velocity":54,"Duration":74504,"SoundDuration":74504,"Delta":443603335},{"NoteNumber":65,"Velocity":54,"Duration":74504,"SoundDuration":74504,"Delta":443603335},{"NoteNumber":73,"Velocity":54,"Duration":74504,"SoundDuration":74504,"Delta":443603335},{"NoteNumber":46,"Velocity":42,"Duration":74504,"SoundDuration":74504,"Delta":443603335},{"NoteNumber":60,"Velocity":60,"Duration":75822,"SoundDuration":75822,"Delta":443752344},{"NoteNumber":65,"Velocity":60,"Duration":75822,"SoundDuration":75822,"Delta":443752344},{"NoteNumber":72,"Velocity":60,"Duration":75822,"SoundDuration":75822,"Delta":443752344},{"NoteNumber":36,"Velocity":48,"Duration":75822,"SoundDuration":75822,"Delta":443752344},{"NoteNumber":60,"Velocity":60,"Duration":74504,"SoundDuration":74504,"Delta":443903990},{"NoteNumber":65,"Velocity":60,"Duration":74504,"SoundDuration":74504,"Delta":443903990},{"NoteNumber":68,"Velocity":60,"Duration":74504,"SoundDuration":74504,"Delta":443903990},{"NoteNumber":48,"Velocity":43,"Duration":74504,"SoundDuration":74504,"Delta":443903990},{"NoteNumber":60,"Velocity":53,"Duration":74504,"SoundDuration":74504,"Delta":444052999},{"NoteNumber":64,"Velocity":53,"Duration":74504,"SoundDuration":74504,"Delta":444052999},{"NoteNumber":67,"Velocity":53,"Duration":74504,"SoundDuration":74504,"Delta":444052999},{"NoteNumber":36,"Velocity":42,"Duration":74504,"SoundDuration":74504,"Delta":444052999},{"NoteNumber":60,"Velocity":53,"Duration":74504,"SoundDuration":74504,"Delta":444202008},{"NoteNumber":64,"Velocity":53,"Duration":74504,"SoundDuration":74504,"Delta":444202008},{"NoteNumber":72,"Velocity":53,"Duration":74504,"SoundDuration":74504,"Delta":444202008},{"NoteNumber":36,"Velocity":42,"Duration":74504,"SoundDuration":74504,"Delta":444202008},{"NoteNumber":65,"Velocity":70,"Duration":69354,"SoundDuration":69354,"Delta":444351017},{"NoteNumber":29,"Velocity":54,"Duration":69354,"SoundDuration":69354,"Delta":444351017},{"NoteNumber":41,"Velocity":54,"Duration":69354,"SoundDuration":69354,"Delta":444351017},{"NoteNumber":60,"Velocity":65,"Duration":69832,"SoundDuration":69832,"Delta":444420371},{"NoteNumber":41,"Velocity":45,"Duration":558188,"SoundDuration":558188,"Delta":444420371},{"NoteNumber":65,"Velocity":63,"Duration":70009,"SoundDuration":70009,"Delta":444490204},{"NoteNumber":44,"Velocity":49,"Duration":488356,"SoundDuration":488356,"Delta":444490204},{"NoteNumber":68,"Velocity":62,"Duration":70247,"SoundDuration":70247,"Delta":444560214},{"NoteNumber":48,"Velocity":52,"Duration":418346,"SoundDuration":418346,"Delta":444560214},{"NoteNumber":72,"Velocity":62,"Duration":69595,"SoundDuration":69595,"Delta":444630461},{"NoteNumber":53,"Velocity":67,"Duration":348098,"SoundDuration":348098,"Delta":444630461},{"NoteNumber":73,"Velocity":58,"Duration":69595,"SoundDuration":69595,"Delta":444700057},{"NoteNumber":72,"Velocity":62,"Duration":69596,"SoundDuration":69596,"Delta":444769653},{"NoteNumber":70,"Velocity":57,"Duration":69595,"SoundDuration":69595,"Delta":444839249},{"NoteNumber":68,"Velocity":65,"Duration":69714,"SoundDuration":69714,"Delta":444908845},{"NoteNumber":70,"Velocity":60,"Duration":69891,"SoundDuration":69891,"Delta":444978560},{"NoteNumber":41,"Velocity":45,"Duration":559531,"SoundDuration":559531,"Delta":444978560},{"NoteNumber":68,"Velocity":60,"Duration":70069,"SoundDuration":70069,"Delta":445048451},{"NoteNumber":44,"Velocity":49,"Duration":489640,"SoundDuration":489640,"Delta":445048451},{"NoteNumber":67,"Velocity":54,"Duration":70247,"SoundDuration":70247,"Delta":445118521},{"NoteNumber":48,"Velocity":52,"Duration":419570,"SoundDuration":419570,"Delta":445118521},{"NoteNumber":65,"Velocity":63,"Duration":69813,"SoundDuration":69813,"Delta":445188769},{"NoteNumber":53,"Velocity":67,"Duration":349322,"SoundDuration":349322,"Delta":445188769},{"NoteNumber":67,"Velocity":54,"Duration":69813,"SoundDuration":69813,"Delta":445258582},{"NoteNumber":68,"Velocity":57,"Duration":69812,"SoundDuration":69812,"Delta":445328395},{"NoteNumber":65,"Velocity":54,"Duration":70344,"SoundDuration":70344,"Delta":445398208},{"NoteNumber":68,"Velocity":67,"Duration":69539,"SoundDuration":69539,"Delta":445468553},{"NoteNumber":60,"Velocity":63,"Duration":69832,"SoundDuration":69832,"Delta":445538092},{"NoteNumber":41,"Velocity":45,"Duration":558310,"SoundDuration":558310,"Delta":445538092},{"NoteNumber":65,"Velocity":63,"Duration":70069,"SoundDuration":70069,"Delta":445607924},{"NoteNumber":44,"Velocity":49,"Duration":488477,"SoundDuration":488477,"Delta":445607924},{"NoteNumber":68,"Velocity":60,"Duration":70428,"SoundDuration":70428,"Delta":445677994},{"NoteNumber":48,"Velocity":52,"Duration":418408,"SoundDuration":418408,"Delta":445677994},{"NoteNumber":72,"Velocity":63,"Duration":69595,"SoundDuration":69595,"Delta":445748422},{"NoteNumber":53,"Velocity":67,"Duration":347980,"SoundDuration":347980,"Delta":445748422},{"NoteNumber":73,"Velocity":59,"Duration":69595,"SoundDuration":69595,"Delta":445818018},{"NoteNumber":72,"Velocity":61,"Duration":69596,"SoundDuration":69596,"Delta":445887614},{"NoteNumber":70,"Velocity":61,"Duration":69595,"SoundDuration":69595,"Delta":445957210},{"NoteNumber":68,"Velocity":64,"Duration":69595,"SoundDuration":69595,"Delta":446026806},{"NoteNumber":70,"Velocity":61,"Duration":69714,"SoundDuration":69714,"Delta":446096402},{"NoteNumber":41,"Velocity":45,"Duration":490135,"SoundDuration":490135,"Delta":446096402},{"NoteNumber":68,"Velocity":60,"Duration":69949,"SoundDuration":69949,"Delta":446166117},{"NoteNumber":44,"Velocity":49,"Duration":420420,"SoundDuration":420420,"Delta":446166117},{"NoteNumber":67,"Velocity":54,"Duration":70188,"SoundDuration":70188,"Delta":446236066},{"NoteNumber":48,"Velocity":52,"Duration":350470,"SoundDuration":350470,"Delta":446236066},{"NoteNumber":65,"Velocity":63,"Duration":69978,"SoundDuration":69978,"Delta":446306255},{"NoteNumber":53,"Velocity":67,"Duration":280281,"SoundDuration":280281,"Delta":446306255},{"NoteNumber":67,"Velocity":54,"Duration":69978,"SoundDuration":69978,"Delta":446376234},{"NoteNumber":68,"Velocity":57,"Duration":69979,"SoundDuration":69979,"Delta":446446213},{"NoteNumber":65,"Velocity":54,"Duration":70344,"SoundDuration":70344,"Delta":446516192},{"NoteNumber":66,"Velocity":67,"Duration":69539,"SoundDuration":69539,"Delta":446586537},{"NoteNumber":61,"Velocity":63,"Duration":69832,"SoundDuration":69832,"Delta":446656076},{"NoteNumber":46,"Velocity":45,"Duration":558318,"SoundDuration":558318,"Delta":446656076},{"NoteNumber":66,"Velocity":63,"Duration":70188,"SoundDuration":70188,"Delta":446725909},{"NoteNumber":49,"Velocity":49,"Duration":488485,"SoundDuration":488485,"Delta":446725909},{"NoteNumber":70,"Velocity":62,"Duration":70487,"SoundDuration":70487,"Delta":446796097},{"NoteNumber":54,"Velocity":52,"Duration":418297,"SoundDuration":418297,"Delta":446796097},{"NoteNumber":73,"Velocity":63,"Duration":69595,"SoundDuration":69595,"Delta":446866585},{"NoteNumber":58,"Velocity":67,"Duration":347809,"SoundDuration":347809,"Delta":446866585},{"NoteNumber":75,"Velocity":61,"Duration":69595,"SoundDuration":69595,"Delta":446936181},{"NoteNumber":73,"Velocity":63,"Duration":69596,"SoundDuration":69596,"Delta":447005777},{"NoteNumber":72,"Velocity":61,"Duration":69595,"SoundDuration":69595,"Delta":447075373},{"NoteNumber":70,"Velocity":64,"Duration":69425,"SoundDuration":69425,"Delta":447144969},{"NoteNumber":72,"Velocity":60,"Duration":69595,"SoundDuration":69595,"Delta":447214395},{"NoteNumber":46,"Velocity":45,"Duration":490460,"SoundDuration":490460,"Delta":447214395},{"NoteNumber":70,"Velocity":60,"Duration":69773,"SoundDuration":69773,"Delta":447283991},{"NoteNumber":49,"Velocity":49,"Duration":420864,"SoundDuration":420864,"Delta":447283991},{"NoteNumber":68,"Velocity":54,"Duration":70009,"SoundDuration":70009,"Delta":447353765},{"NoteNumber":54,"Velocity":52,"Duration":351090,"SoundDuration":351090,"Delta":447353765},{"NoteNumber":66,"Velocity":63,"Duration":69978,"SoundDuration":69978,"Delta":447423774},{"NoteNumber":58,"Velocity":67,"Duration":281081,"SoundDuration":281081,"Delta":447423774},{"NoteNumber":68,"Velocity":54,"Duration":69978,"SoundDuration":69978,"Delta":447493753},{"NoteNumber":66,"Velocity":57,"Duration":69979,"SoundDuration":69979,"Delta":447563732},{"NoteNumber":65,"Velocity":54,"Duration":71144,"SoundDuration":71144,"Delta":447633711},{"NoteNumber":64,"Velocity":69,"Duration":69482,"SoundDuration":69482,"Delta":447704855},{"NoteNumber":65,"Velocity":63,"Duration":69832,"SoundDuration":69832,"Delta":447774337},{"NoteNumber":48,"Velocity":45,"Duration":558609,"SoundDuration":558609,"Delta":447774337},{"NoteNumber":67,"Velocity":63,"Duration":70188,"SoundDuration":70188,"Delta":447844170},{"NoteNumber":55,"Velocity":49,"Duration":488776,"SoundDuration":488776,"Delta":447844170},{"NoteNumber":68,"Velocity":62,"Duration":70608,"SoundDuration":70608,"Delta":447914359},{"NoteNumber":58,"Velocity":52,"Duration":418588,"SoundDuration":418588,"Delta":447914359},{"NoteNumber":70,"Velocity":63,"Duration":69595,"SoundDuration":69595,"Delta":447984967},{"NoteNumber":60,"Velocity":67,"Duration":347980,"SoundDuration":347980,"Delta":447984967},{"NoteNumber":68,"Velocity":61,"Duration":69595,"SoundDuration":69595,"Delta":448054563},{"NoteNumber":67,"Velocity":63,"Duration":69596,"SoundDuration":69596,"Delta":448124159},{"NoteNumber":65,"Velocity":61,"Duration":69595,"SoundDuration":69595,"Delta":448193755},{"NoteNumber":64,"Velocity":63,"Duration":69595,"SoundDuration":69595,"Delta":448263351},{"NoteNumber":65,"Velocity":64,"Duration":69832,"SoundDuration":69832,"Delta":448332947},{"NoteNumber":48,"Velocity":45,"Duration":490416,"SoundDuration":490416,"Delta":448332947},{"NoteNumber":67,"Velocity":61,"Duration":70188,"SoundDuration":70188,"Delta":448402779},{"NoteNumber":55,"Velocity":49,"Duration":420584,"SoundDuration":420584,"Delta":448402779},{"NoteNumber":68,"Velocity":54,"Duration":70487,"SoundDuration":70487,"Delta":448472968},{"NoteNumber":58,"Velocity":52,"Duration":350395,"SoundDuration":350395,"Delta":448472968},{"NoteNumber":70,"Velocity":62,"Duration":69813,"SoundDuration":69813,"Delta":448543456},{"NoteNumber":60,"Velocity":67,"Duration":279907,"SoundDuration":279907,"Delta":448543456},{"NoteNumber":72,"Velocity":63,"Duration":69813,"SoundDuration":69813,"Delta":448613269},{"NoteNumber":74,"Velocity":65,"Duration":69812,"SoundDuration":69812,"Delta":448683082},{"NoteNumber":76,"Velocity":69,"Duration":70468,"SoundDuration":70468,"Delta":448752895},{"NoteNumber":77,"Velocity":72,"Duration":69595,"SoundDuration":69595,"Delta":448823364},{"NoteNumber":41,"Velocity":56,"Duration":69595,"SoundDuration":69595,"Delta":448823364},{"NoteNumber":53,"Velocity":56,"Duration":69595,"SoundDuration":69595,"Delta":448823364},{"NoteNumber":72,"Velocity":69,"Duration":69832,"SoundDuration":69832,"Delta":448892960},{"NoteNumber":53,"Velocity":47,"Duration":558188,"SoundDuration":558188,"Delta":448892960},{"NoteNumber":77,"Velocity":65,"Duration":70009,"SoundDuration":70009,"Delta":448962792},{"NoteNumber":56,"Velocity":51,"Duration":488356,"SoundDuration":488356,"Delta":448962792},{"NoteNumber":80,"Velocity":64,"Duration":70247,"SoundDuration":70247,"Delta":449032802},{"NoteNumber":60,"Velocity":54,"Duration":418346,"SoundDuration":418346,"Delta":449032802},{"NoteNumber":84,"Velocity":67,"Duration":69595,"SoundDuration":69595,"Delta":449103050},{"NoteNumber":65,"Velocity":71,"Duration":348098,"SoundDuration":348098,"Delta":449103050},{"NoteNumber":85,"Velocity":64,"Duration":69595,"SoundDuration":69595,"Delta":449172646},{"NoteNumber":84,"Velocity":64,"Duration":69596,"SoundDuration":69596,"Delta":449242242},{"NoteNumber":82,"Velocity":64,"Duration":69595,"SoundDuration":69595,"Delta":449311838},{"NoteNumber":80,"Velocity":66,"Duration":69714,"SoundDuration":69714,"Delta":449381434},{"NoteNumber":82,"Velocity":63,"Duration":69891,"SoundDuration":69891,"Delta":449451149},{"NoteNumber":53,"Velocity":47,"Duration":558880,"SoundDuration":558880,"Delta":449451149},{"NoteNumber":80,"Velocity":63,"Duration":70069,"SoundDuration":70069,"Delta":449521040},{"NoteNumber":56,"Velocity":51,"Duration":488989,"SoundDuration":488989,"Delta":449521040},{"NoteNumber":79,"Velocity":55,"Duration":70247,"SoundDuration":70247,"Delta":449591109},{"NoteNumber":60,"Velocity":54,"Duration":418919,"SoundDuration":418919,"Delta":449591109},{"NoteNumber":77,"Velocity":63,"Duration":69595,"SoundDuration":69595,"Delta":449661357},{"NoteNumber":65,"Velocity":71,"Duration":348672,"SoundDuration":348672,"Delta":449661357},{"NoteNumber":79,"Velocity":56,"Duration":69595,"SoundDuration":69595,"Delta":449730953},{"NoteNumber":80,"Velocity":60,"Duration":69596,"SoundDuration":69596,"Delta":449800549},{"NoteNumber":77,"Velocity":55,"Duration":70344,"SoundDuration":70344,"Delta":449870145},{"NoteNumber":80,"Velocity":72,"Duration":69539,"SoundDuration":69539,"Delta":449940490},{"NoteNumber":72,"Velocity":65,"Duration":69832,"SoundDuration":69832,"Delta":450010029},{"NoteNumber":53,"Velocity":47,"Duration":558310,"SoundDuration":558310,"Delta":450010029},{"NoteNumber":77,"Velocity":65,"Duration":70069,"SoundDuration":70069,"Delta":450079862},{"NoteNumber":56,"Velocity":51,"Duration":488477,"SoundDuration":488477,"Delta":450079862},{"NoteNumber":80,"Velocity":64,"Duration":70428,"SoundDuration":70428,"Delta":450149931},{"NoteNumber":60,"Velocity":54,"Duration":418408,"SoundDuration":418408,"Delta":450149931},{"NoteNumber":84,"Velocity":67,"Duration":69595,"SoundDuration":69595,"Delta":450220359},{"NoteNumber":65,"Velocity":71,"Duration":347980,"SoundDuration":347980,"Delta":450220359},{"NoteNumber":85,"Velocity":64,"Duration":69595,"SoundDuration":69595,"Delta":450289955},{"NoteNumber":84,"Velocity":64,"Duration":69596,"SoundDuration":69596,"Delta":450359551},{"NoteNumber":82,"Velocity":64,"Duration":69595,"SoundDuration":69595,"Delta":450429147},{"NoteNumber":80,"Velocity":64,"Duration":69595,"SoundDuration":69595,"Delta":450498743},{"NoteNumber":82,"Velocity":63,"Duration":69714,"SoundDuration":69714,"Delta":450568339},{"NoteNumber":53,"Velocity":47,"Duration":488654,"SoundDuration":488654,"Delta":450568339},{"NoteNumber":80,"Velocity":63,"Duration":69949,"SoundDuration":69949,"Delta":450638054},{"NoteNumber":56,"Velocity":51,"Duration":418939,"SoundDuration":418939,"Delta":450638054},{"NoteNumber":79,"Velocity":55,"Duration":70188,"SoundDuration":70188,"Delta":450708004},{"NoteNumber":60,"Velocity":54,"Duration":348989,"SoundDuration":348989,"Delta":450708004},{"NoteNumber":77,"Velocity":63,"Duration":69595,"SoundDuration":69595,"Delta":450778193},{"NoteNumber":65,"Velocity":71,"Duration":278801,"SoundDuration":278801,"Delta":450778193},{"NoteNumber":79,"Velocity":56,"Duration":69595,"SoundDuration":69595,"Delta":450847789},{"NoteNumber":80,"Velocity":60,"Duration":69596,"SoundDuration":69596,"Delta":450917385},{"NoteNumber":77,"Velocity":55,"Duration":70013,"SoundDuration":70013,"Delta":450986981},{"NoteNumber":78,"Velocity":71,"Duration":69539,"SoundDuration":69539,"Delta":451056994},{"NoteNumber":73,"Velocity":65,"Duration":69832,"SoundDuration":69832,"Delta":451126533},{"NoteNumber":58,"Velocity":47,"Duration":558318,"SoundDuration":558318,"Delta":451126533},{"NoteNumber":78,"Velocity":65,"Duration":70188,"SoundDuration":70188,"Delta":451196365},{"NoteNumber":61,"Velocity":51,"Duration":488485,"SoundDuration":488485,"Delta":451196365},{"NoteNumber":82,"Velocity":64,"Duration":70487,"SoundDuration":70487,"Delta":451266554},{"NoteNumber":66,"Velocity":54,"Duration":418297,"SoundDuration":418297,"Delta":451266554},{"NoteNumber":85,"Velocity":67,"Duration":69595,"SoundDuration":69595,"Delta":451337042},{"NoteNumber":70,"Velocity":71,"Duration":347809,"SoundDuration":347809,"Delta":451337042},{"NoteNumber":87,"Velocity":64,"Duration":69595,"SoundDuration":69595,"Delta":451406638},{"NoteNumber":85,"Velocity":64,"Duration":69596,"SoundDuration":69596,"Delta":451476234},{"NoteNumber":84,"Velocity":64,"Duration":69595,"SoundDuration":69595,"Delta":451545830},{"NoteNumber":82,"Velocity":67,"Duration":69425,"SoundDuration":69425,"Delta":451615426},{"NoteNumber":84,"Velocity":63,"Duration":69595,"SoundDuration":69595,"Delta":451684851},{"NoteNumber":58,"Velocity":47,"Duration":488805,"SoundDuration":488805,"Delta":451684851},{"NoteNumber":82,"Velocity":63,"Duration":69773,"SoundDuration":69773,"Delta":451754447},{"NoteNumber":61,"Velocity":51,"Duration":419209,"SoundDuration":419209,"Delta":451754447},{"NoteNumber":80,"Velocity":55,"Duration":70009,"SoundDuration":70009,"Delta":451824221},{"NoteNumber":66,"Velocity":54,"Duration":349435,"SoundDuration":349435,"Delta":451824221},{"NoteNumber":78,"Velocity":63,"Duration":69595,"SoundDuration":69595,"Delta":451894231},{"NoteNumber":70,"Velocity":71,"Duration":279426,"SoundDuration":279426,"Delta":451894231},{"NoteNumber":80,"Velocity":56,"Duration":69595,"SoundDuration":69595,"Delta":451963827},{"NoteNumber":78,"Velocity":60,"Duration":69596,"SoundDuration":69596,"Delta":452033423},{"NoteNumber":77,"Velocity":55,"Duration":70637,"SoundDuration":70637,"Delta":452103019},{"NoteNumber":76,"Velocity":72,"Duration":69482,"SoundDuration":69482,"Delta":452173657},{"NoteNumber":77,"Velocity":65,"Duration":69832,"SoundDuration":69832,"Delta":452243139},{"NoteNumber":60,"Velocity":47,"Duration":558609,"SoundDuration":558609,"Delta":452243139},{"NoteNumber":79,"Velocity":65,"Duration":70188,"SoundDuration":70188,"Delta":452312972},{"NoteNumber":64,"Velocity":51,"Duration":488776,"SoundDuration":488776,"Delta":452312972},{"NoteNumber":80,"Velocity":64,"Duration":70608,"SoundDuration":70608,"Delta":452383160},{"NoteNumber":67,"Velocity":54,"Duration":418588,"SoundDuration":418588,"Delta":452383160},{"NoteNumber":82,"Velocity":70,"Duration":69595,"SoundDuration":69595,"Delta":452453768},{"NoteNumber":72,"Velocity":71,"Duration":347980,"SoundDuration":347980,"Delta":452453768},{"NoteNumber":80,"Velocity":66,"Duration":69595,"SoundDuration":69595,"Delta":452523364},{"NoteNumber":79,"Velocity":65,"Duration":69596,"SoundDuration":69596,"Delta":452592960},{"NoteNumber":77,"Velocity":63,"Duration":69595,"SoundDuration":69595,"Delta":452662556},{"NoteNumber":76,"Velocity":66,"Duration":69595,"SoundDuration":69595,"Delta":452732152},{"NoteNumber":77,"Velocity":67,"Duration":69832,"SoundDuration":69832,"Delta":452801748},{"NoteNumber":48,"Velocity":47,"Duration":490101,"SoundDuration":490101,"Delta":452801748},{"NoteNumber":79,"Velocity":63,"Duration":70188,"SoundDuration":70188,"Delta":452871581},{"NoteNumber":52,"Velocity":51,"Duration":420269,"SoundDuration":420269,"Delta":452871581},{"NoteNumber":80,"Velocity":55,"Duration":70487,"SoundDuration":70487,"Delta":452941770},{"NoteNumber":55,"Velocity":54,"Duration":350080,"SoundDuration":350080,"Delta":452941770},{"NoteNumber":82,"Velocity":63,"Duration":69595,"SoundDuration":69595,"Delta":453012258},{"NoteNumber":60,"Velocity":73,"Duration":279592,"SoundDuration":279592,"Delta":453012258},{"NoteNumber":84,"Velocity":66,"Duration":69595,"SoundDuration":69595,"Delta":453081854},{"NoteNumber":86,"Velocity":71,"Duration":69596,"SoundDuration":69596,"Delta":453151450},{"NoteNumber":88,"Velocity":73,"Duration":70804,"SoundDuration":70804,"Delta":453221046},{"NoteNumber":89,"Velocity":80,"Duration":69595,"SoundDuration":69595,"Delta":453291850},{"NoteNumber":41,"Velocity":77,"Duration":69595,"SoundDuration":69595,"Delta":453291850},{"NoteNumber":53,"Velocity":77,"Duration":69595,"SoundDuration":69595,"Delta":453291850},{"NoteNumber":80,"Velocity":75,"Duration":69832,"SoundDuration":69832,"Delta":453361446},{"NoteNumber":84,"Velocity":70,"Duration":70009,"SoundDuration":70009,"Delta":453431279},{"NoteNumber":89,"Velocity":70,"Duration":70247,"SoundDuration":70247,"Delta":453501289},{"NoteNumber":92,"Velocity":86,"Duration":348098,"SoundDuration":348098,"Delta":453571536},{"NoteNumber":72,"Velocity":71,"Duration":558307,"SoundDuration":558307,"Delta":453710728},{"NoteNumber":77,"Velocity":74,"Duration":488711,"SoundDuration":488711,"Delta":453780324},{"NoteNumber":80,"Velocity":89,"Duration":419115,"SoundDuration":419115,"Delta":453849920},{"NoteNumber":84,"Velocity":70,"Duration":69891,"SoundDuration":69891,"Delta":453919635},{"NoteNumber":89,"Velocity":70,"Duration":70069,"SoundDuration":70069,"Delta":453989526},{"NoteNumber":92,"Velocity":73,"Duration":70247,"SoundDuration":70247,"Delta":454059596},{"NoteNumber":96,"Velocity":77,"Duration":69595,"SoundDuration":69595,"Delta":454129844},{"NoteNumber":92,"Velocity":76,"Duration":69595,"SoundDuration":69595,"Delta":454199440},{"NoteNumber":91,"Velocity":73,"Duration":69596,"SoundDuration":69596,"Delta":454269036},{"NoteNumber":60,"Velocity":67,"Duration":139135,"SoundDuration":139135,"Delta":454269036},{"NoteNumber":88,"Velocity":73,"Duration":69539,"SoundDuration":69539,"Delta":454338632},{"NoteNumber":89,"Velocity":78,"Duration":69595,"SoundDuration":69595,"Delta":454408171},{"NoteNumber":65,"Velocity":82,"Duration":139428,"SoundDuration":139428,"Delta":454408171},{"NoteNumber":80,"Velocity":75,"Duration":69832,"SoundDuration":69832,"Delta":454477767},{"NoteNumber":84,"Velocity":70,"Duration":70009,"SoundDuration":70009,"Delta":454547599},{"NoteNumber":89,"Velocity":70,"Duration":70247,"SoundDuration":70247,"Delta":454617609},{"NoteNumber":92,"Velocity":86,"Duration":348098,"SoundDuration":348098,"Delta":454687857},{"NoteNumber":72,"Velocity":71,"Duration":558307,"SoundDuration":558307,"Delta":454827049},{"NoteNumber":77,"Velocity":74,"Duration":488711,"SoundDuration":488711,"Delta":454896645},{"NoteNumber":80,"Velocity":87,"Duration":419115,"SoundDuration":419115,"Delta":454966241},{"NoteNumber":84,"Velocity":69,"Duration":69891,"SoundDuration":69891,"Delta":455035956},{"NoteNumber":89,"Velocity":72,"Duration":70069,"SoundDuration":70069,"Delta":455105847},{"NoteNumber":92,"Velocity":75,"Duration":70247,"SoundDuration":70247,"Delta":455175916},{"NoteNumber":96,"Velocity":77,"Duration":69595,"SoundDuration":69595,"Delta":455246164},{"NoteNumber":92,"Velocity":76,"Duration":69595,"SoundDuration":69595,"Delta":455315760},{"NoteNumber":91,"Velocity":75,"Duration":69596,"SoundDuration":69596,"Delta":455385356},{"NoteNumber":60,"Velocity":67,"Duration":139135,"SoundDuration":139135,"Delta":455385356},{"NoteNumber":88,"Velocity":72,"Duration":69539,"SoundDuration":69539,"Delta":455454952},{"NoteNumber":89,"Velocity":78,"Duration":69595,"SoundDuration":69595,"Delta":455524491},{"NoteNumber":65,"Velocity":82,"Duration":139428,"SoundDuration":139428,"Delta":455524491},{"NoteNumber":80,"Velocity":75,"Duration":69832,"SoundDuration":69832,"Delta":455594087},{"NoteNumber":84,"Velocity":70,"Duration":70009,"SoundDuration":70009,"Delta":455663920},{"NoteNumber":89,"Velocity":70,"Duration":70247,"SoundDuration":70247,"Delta":455733929},{"NoteNumber":92,"Velocity":86,"Duration":348098,"SoundDuration":348098,"Delta":455804177},{"NoteNumber":72,"Velocity":71,"Duration":558307,"SoundDuration":558307,"Delta":455943369},{"NoteNumber":77,"Velocity":74,"Duration":488711,"SoundDuration":488711,"Delta":456012965},{"NoteNumber":80,"Velocity":86,"Duration":419115,"SoundDuration":419115,"Delta":456082561},{"NoteNumber":84,"Velocity":69,"Duration":69891,"SoundDuration":69891,"Delta":456152276},{"NoteNumber":89,"Velocity":72,"Duration":70069,"SoundDuration":70069,"Delta":456222167},{"NoteNumber":92,"Velocity":75,"Duration":70247,"SoundDuration":70247,"Delta":456292237},{"NoteNumber":96,"Velocity":77,"Duration":69595,"SoundDuration":69595,"Delta":456362485},{"NoteNumber":92,"Velocity":76,"Duration":69595,"SoundDuration":69595,"Delta":456432081},{"NoteNumber":91,"Velocity":75,"Duration":69596,"SoundDuration":69596,"Delta":456501677},{"NoteNumber":60,"Velocity":67,"Duration":139135,"SoundDuration":139135,"Delta":456501677},{"NoteNumber":88,"Velocity":73,"Duration":69539,"SoundDuration":69539,"Delta":456571273},{"NoteNumber":89,"Velocity":77,"Duration":69595,"SoundDuration":69595,"Delta":456640812},{"NoteNumber":65,"Velocity":85,"Duration":139428,"SoundDuration":139428,"Delta":456640812},{"NoteNumber":80,"Velocity":75,"Duration":69832,"SoundDuration":69832,"Delta":456710408},{"NoteNumber":84,"Velocity":70,"Duration":70009,"SoundDuration":70009,"Delta":456780240},{"NoteNumber":89,"Velocity":70,"Duration":70247,"SoundDuration":70247,"Delta":456850250},{"NoteNumber":92,"Velocity":86,"Duration":348098,"SoundDuration":348098,"Delta":456920498},{"NoteNumber":72,"Velocity":71,"Duration":558307,"SoundDuration":558307,"Delta":457059690},{"NoteNumber":77,"Velocity":74,"Duration":488711,"SoundDuration":488711,"Delta":457129286},{"NoteNumber":80,"Velocity":88,"Duration":419115,"SoundDuration":419115,"Delta":457198882},{"NoteNumber":84,"Velocity":70,"Duration":69891,"SoundDuration":69891,"Delta":457268596},{"NoteNumber":89,"Velocity":72,"Duration":70069,"SoundDuration":70069,"Delta":457338488},{"NoteNumber":92,"Velocity":75,"Duration":70247,"SoundDuration":70247,"Delta":457408557},{"NoteNumber":96,"Velocity":76,"Duration":69595,"SoundDuration":69595,"Delta":457478805},{"NoteNumber":92,"Velocity":76,"Duration":69595,"SoundDuration":69595,"Delta":457548401},{"NoteNumber":91,"Velocity":75,"Duration":69596,"SoundDuration":69596,"Delta":457617997},{"NoteNumber":60,"Velocity":66,"Duration":139135,"SoundDuration":139135,"Delta":457617997},{"NoteNumber":88,"Velocity":73,"Duration":69539,"SoundDuration":69539,"Delta":457687593},{"NoteNumber":89,"Velocity":77,"Duration":68603,"SoundDuration":68603,"Delta":457757132},{"NoteNumber":65,"Velocity":88,"Duration":275387,"SoundDuration":275387,"Delta":457757132},{"NoteNumber":84,"Velocity":72,"Duration":68752,"SoundDuration":68752,"Delta":457825736},{"NoteNumber":89,"Velocity":72,"Duration":68928,"SoundDuration":68928,"Delta":457894489},{"NoteNumber":92,"Velocity":76,"Duration":69102,"SoundDuration":69102,"Delta":457963417},{"NoteNumber":96,"Velocity":79,"Duration":68465,"SoundDuration":68465,"Delta":458032520},{"NoteNumber":92,"Velocity":78,"Duration":68465,"SoundDuration":68465,"Delta":458100985},{"NoteNumber":91,"Velocity":77,"Duration":68465,"SoundDuration":68465,"Delta":458169450},{"NoteNumber":60,"Velocity":67,"Duration":137771,"SoundDuration":137771,"Delta":458169450},{"NoteNumber":88,"Velocity":76,"Duration":69306,"SoundDuration":69306,"Delta":458237915},{"NoteNumber":89,"Velocity":79,"Duration":68708,"SoundDuration":68708,"Delta":458307221},{"NoteNumber":53,"Velocity":89,"Duration":275492,"SoundDuration":275492,"Delta":458307221},{"NoteNumber":84,"Velocity":75,"Duration":68752,"SoundDuration":68752,"Delta":458375930},{"NoteNumber":89,"Velocity":77,"Duration":68928,"SoundDuration":68928,"Delta":458444682},{"NoteNumber":92,"Velocity":80,"Duration":69102,"SoundDuration":69102,"Delta":458513611},{"NoteNumber":96,"Velocity":80,"Duration":68465,"SoundDuration":68465,"Delta":458582713},{"NoteNumber":92,"Velocity":79,"Duration":68465,"SoundDuration":68465,"Delta":458651178},{"NoteNumber":91,"Velocity":77,"Duration":68465,"SoundDuration":68465,"Delta":458719643},{"NoteNumber":48,"Velocity":66,"Duration":137771,"SoundDuration":137771,"Delta":458719643},{"NoteNumber":88,"Velocity":77,"Duration":69306,"SoundDuration":69306,"Delta":458788108},{"NoteNumber":89,"Velocity":89,"Duration":68708,"SoundDuration":68708,"Delta":458857415},{"NoteNumber":41,"Velocity":92,"Duration":275492,"SoundDuration":275492,"Delta":458857415},{"NoteNumber":84,"Velocity":82,"Duration":68752,"SoundDuration":68752,"Delta":458926124},{"NoteNumber":89,"Velocity":85,"Duration":68928,"SoundDuration":68928,"Delta":458994876},{"NoteNumber":92,"Velocity":88,"Duration":69102,"SoundDuration":69102,"Delta":459063805},{"NoteNumber":96,"Velocity":84,"Duration":68465,"SoundDuration":68465,"Delta":459132907},{"NoteNumber":92,"Velocity":82,"Duration":68465,"SoundDuration":68465,"Delta":459201372},{"NoteNumber":91,"Velocity":82,"Duration":68465,"SoundDuration":68465,"Delta":459269837},{"NoteNumber":36,"Velocity":63,"Duration":137322,"SoundDuration":137322,"Delta":459269837},{"NoteNumber":88,"Velocity":80,"Duration":68857,"SoundDuration":68857,"Delta":459338302},{"NoteNumber":96,"Velocity":89,"Duration":68708,"SoundDuration":68708,"Delta":459407159},{"NoteNumber":29,"Velocity":87,"Duration":137461,"SoundDuration":137461,"Delta":459407159},{"NoteNumber":92,"Velocity":75,"Duration":68752,"SoundDuration":68752,"Delta":459475868},{"NoteNumber":91,"Velocity":79,"Duration":68928,"SoundDuration":68928,"Delta":459544621},{"NoteNumber":36,"Velocity":65,"Duration":138030,"SoundDuration":138030,"Delta":459544621},{"NoteNumber":88,"Velocity":84,"Duration":69102,"SoundDuration":69102,"Delta":459613549},{"NoteNumber":96,"Velocity":90,"Duration":68465,"SoundDuration":68465,"Delta":459682652},{"NoteNumber":29,"Velocity":89,"Duration":136930,"SoundDuration":136930,"Delta":459682652},{"NoteNumber":92,"Velocity":89,"Duration":68465,"SoundDuration":68465,"Delta":459751117},{"NoteNumber":91,"Velocity":87,"Duration":68465,"SoundDuration":68465,"Delta":459819582},{"NoteNumber":36,"Velocity":64,"Duration":138100,"SoundDuration":138100,"Delta":459819582},{"NoteNumber":88,"Velocity":89,"Duration":69635,"SoundDuration":69635,"Delta":459888047},{"NoteNumber":96,"Velocity":93,"Duration":68380,"SoundDuration":68380,"Delta":459957683},{"NoteNumber":29,"Velocity":72,"Duration":68380,"SoundDuration":68380,"Delta":459957683},{"NoteNumber":92,"Velocity":79,"Duration":68380,"SoundDuration":68380,"Delta":460026063},{"NoteNumber":32,"Velocity":63,"Duration":68380,"SoundDuration":68380,"Delta":460026063},{"NoteNumber":89,"Velocity":80,"Duration":68380,"SoundDuration":68380,"Delta":460094444},{"NoteNumber":36,"Velocity":63,"Duration":68380,"SoundDuration":68380,"Delta":460094444},{"NoteNumber":84,"Velocity":80,"Duration":69978,"SoundDuration":69978,"Delta":460162825},{"NoteNumber":41,"Velocity":63,"Duration":69978,"SoundDuration":69978,"Delta":460162825},{"NoteNumber":92,"Velocity":93,"Duration":68380,"SoundDuration":68380,"Delta":460232804},{"NoteNumber":29,"Velocity":72,"Duration":68380,"SoundDuration":68380,"Delta":460232804},{"NoteNumber":89,"Velocity":82,"Duration":68380,"SoundDuration":68380,"Delta":460301185},{"NoteNumber":32,"Velocity":63,"Duration":68380,"SoundDuration":68380,"Delta":460301185},{"NoteNumber":84,"Velocity":82,"Duration":68380,"SoundDuration":68380,"Delta":460369565},{"NoteNumber":36,"Velocity":63,"Duration":68380,"SoundDuration":68380,"Delta":460369565},{"NoteNumber":80,"Velocity":82,"Duration":69813,"SoundDuration":69813,"Delta":460437946},{"NoteNumber":41,"Velocity":63,"Duration":69813,"SoundDuration":69813,"Delta":460437946},{"NoteNumber":89,"Velocity":93,"Duration":68380,"SoundDuration":68380,"Delta":460507759},{"NoteNumber":29,"Velocity":72,"Duration":68380,"SoundDuration":68380,"Delta":460507759},{"NoteNumber":84,"Velocity":81,"Duration":68380,"SoundDuration":68380,"Delta":460576140},{"NoteNumber":32,"Velocity":63,"Duration":68380,"SoundDuration":68380,"Delta":460576140},{"NoteNumber":80,"Velocity":81,"Duration":68380,"SoundDuration":68380,"Delta":460644521},{"NoteNumber":36,"Velocity":63,"Duration":68380,"SoundDuration":68380,"Delta":460644521},{"NoteNumber":77,"Velocity":82,"Duration":69331,"SoundDuration":69331,"Delta":460712901},{"NoteNumber":41,"Velocity":63,"Duration":69331,"SoundDuration":69331,"Delta":460712901},{"NoteNumber":84,"Velocity":93,"Duration":68380,"SoundDuration":68380,"Delta":460782233},{"NoteNumber":29,"Velocity":72,"Duration":68380,"SoundDuration":68380,"Delta":460782233},{"NoteNumber":80,"Velocity":81,"Duration":68380,"SoundDuration":68380,"Delta":460850614},{"NoteNumber":32,"Velocity":63,"Duration":68380,"SoundDuration":68380,"Delta":460850614},{"NoteNumber":77,"Velocity":81,"Duration":68380,"SoundDuration":68380,"Delta":460918995},{"NoteNumber":36,"Velocity":63,"Duration":68380,"SoundDuration":68380,"Delta":460918995},{"NoteNumber":72,"Velocity":81,"Duration":69813,"SoundDuration":69813,"Delta":460987376},{"NoteNumber":41,"Velocity":63,"Duration":69813,"SoundDuration":69813,"Delta":460987376},{"NoteNumber":80,"Velocity":93,"Duration":68380,"SoundDuration":68380,"Delta":461057189},{"NoteNumber":29,"Velocity":72,"Duration":68380,"SoundDuration":68380,"Delta":461057189},{"NoteNumber":77,"Velocity":80,"Duration":68380,"SoundDuration":68380,"Delta":461125569},{"NoteNumber":32,"Velocity":63,"Duration":68380,"SoundDuration":68380,"Delta":461125569},{"NoteNumber":72,"Velocity":80,"Duration":68380,"SoundDuration":68380,"Delta":461193950},{"NoteNumber":36,"Velocity":63,"Duration":68380,"SoundDuration":68380,"Delta":461193950},{"NoteNumber":68,"Velocity":80,"Duration":69650,"SoundDuration":69650,"Delta":461262331},{"NoteNumber":41,"Velocity":63,"Duration":69650,"SoundDuration":69650,"Delta":461262331},{"NoteNumber":77,"Velocity":93,"Duration":68380,"SoundDuration":68380,"Delta":461331982},{"NoteNumber":29,"Velocity":72,"Duration":68380,"SoundDuration":68380,"Delta":461331982},{"NoteNumber":72,"Velocity":82,"Duration":68380,"SoundDuration":68380,"Delta":461400362},{"NoteNumber":32,"Velocity":63,"Duration":68380,"SoundDuration":68380,"Delta":461400362},{"NoteNumber":68,"Velocity":81,"Duration":68380,"SoundDuration":68380,"Delta":461468743},{"NoteNumber":36,"Velocity":63,"Duration":68380,"SoundDuration":68380,"Delta":461468743},{"NoteNumber":65,"Velocity":81,"Duration":69650,"SoundDuration":69650,"Delta":461537124},{"NoteNumber":41,"Velocity":63,"Duration":69650,"SoundDuration":69650,"Delta":461537124},{"NoteNumber":72,"Velocity":93,"Duration":68380,"SoundDuration":68380,"Delta":461606775},{"NoteNumber":29,"Velocity":72,"Duration":68380,"SoundDuration":68380,"Delta":461606775},{"NoteNumber":68,"Velocity":80,"Duration":68380,"SoundDuration":68380,"Delta":461675155},{"NoteNumber":32,"Velocity":63,"Duration":68380,"SoundDuration":68380,"Delta":461675155},{"NoteNumber":65,"Velocity":80,"Duration":68380,"SoundDuration":68380,"Delta":461743536},{"NoteNumber":36,"Velocity":63,"Duration":68380,"SoundDuration":68380,"Delta":461743536},{"NoteNumber":60,"Velocity":80,"Duration":69813,"SoundDuration":69813,"Delta":461811917},{"NoteNumber":41,"Velocity":63,"Duration":69813,"SoundDuration":69813,"Delta":461811917},{"NoteNumber":68,"Velocity":93,"Duration":68380,"SoundDuration":68380,"Delta":461881730},{"NoteNumber":29,"Velocity":72,"Duration":68380,"SoundDuration":68380,"Delta":461881730},{"NoteNumber":65,"Velocity":80,"Duration":68380,"SoundDuration":68380,"Delta":461950111},{"NoteNumber":32,"Velocity":63,"Duration":68380,"SoundDuration":68380,"Delta":461950111},{"NoteNumber":60,"Velocity":81,"Duration":68380,"SoundDuration":68380,"Delta":462018491},{"NoteNumber":36,"Velocity":63,"Duration":68380,"SoundDuration":68380,"Delta":462018491},{"NoteNumber":56,"Velocity":81,"Duration":69813,"SoundDuration":69813,"Delta":462086872},{"NoteNumber":41,"Velocity":63,"Duration":69813,"SoundDuration":69813,"Delta":462086872},{"NoteNumber":65,"Velocity":93,"Duration":68380,"SoundDuration":68380,"Delta":462156685},{"NoteNumber":29,"Velocity":72,"Duration":68380,"SoundDuration":68380,"Delta":462156685},{"NoteNumber":60,"Velocity":81,"Duration":68380,"SoundDuration":68380,"Delta":462225066},{"NoteNumber":32,"Velocity":63,"Duration":68380,"SoundDuration":68380,"Delta":462225066},{"NoteNumber":56,"Velocity":81,"Duration":68380,"SoundDuration":68380,"Delta":462293447},{"NoteNumber":36,"Velocity":63,"Duration":68380,"SoundDuration":68380,"Delta":462293447},{"NoteNumber":53,"Velocity":81,"Duration":69813,"SoundDuration":69813,"Delta":462361827},{"NoteNumber":41,"Velocity":63,"Duration":69813,"SoundDuration":69813,"Delta":462361827},{"NoteNumber":60,"Velocity":93,"Duration":68380,"SoundDuration":68380,"Delta":462431640},{"NoteNumber":29,"Velocity":72,"Duration":68380,"SoundDuration":68380,"Delta":462431640},{"NoteNumber":56,"Velocity":81,"Duration":68380,"SoundDuration":68380,"Delta":462500021},{"NoteNumber":32,"Velocity":63,"Duration":68380,"SoundDuration":68380,"Delta":462500021},{"NoteNumber":53,"Velocity":81,"Duration":68380,"SoundDuration":68380,"Delta":462568402},{"NoteNumber":36,"Velocity":63,"Duration":68380,"SoundDuration":68380,"Delta":462568402},{"NoteNumber":48,"Velocity":81,"Duration":69978,"SoundDuration":69978,"Delta":462636783},{"NoteNumber":41,"Velocity":63,"Duration":69978,"SoundDuration":69978,"Delta":462636783},{"NoteNumber":56,"Velocity":93,"Duration":68380,"SoundDuration":68380,"Delta":462706762},{"NoteNumber":29,"Velocity":72,"Duration":68380,"SoundDuration":68380,"Delta":462706762},{"NoteNumber":53,"Velocity":81,"Duration":68380,"SoundDuration":68380,"Delta":462775142},{"NoteNumber":32,"Velocity":63,"Duration":68380,"SoundDuration":68380,"Delta":462775142},{"NoteNumber":48,"Velocity":81,"Duration":68380,"SoundDuration":68380,"Delta":462843523},{"NoteNumber":36,"Velocity":63,"Duration":68380,"SoundDuration":68380,"Delta":462843523},{"NoteNumber":44,"Velocity":81,"Duration":69813,"SoundDuration":69813,"Delta":462911904},{"NoteNumber":41,"Velocity":63,"Duration":69813,"SoundDuration":69813,"Delta":462911904},{"NoteNumber":53,"Velocity":93,"Duration":68536,"SoundDuration":68536,"Delta":462981717},{"NoteNumber":29,"Velocity":72,"Duration":68536,"SoundDuration":68536,"Delta":462981717},{"NoteNumber":48,"Velocity":85,"Duration":68536,"SoundDuration":68536,"Delta":463050254},{"NoteNumber":32,"Velocity":63,"Duration":68536,"SoundDuration":68536,"Delta":463050254},{"NoteNumber":44,"Velocity":80,"Duration":68536,"SoundDuration":68536,"Delta":463118791},{"NoteNumber":36,"Velocity":63,"Duration":68536,"SoundDuration":68536,"Delta":463118791},{"NoteNumber":48,"Velocity":80,"Duration":69650,"SoundDuration":69650,"Delta":463187328},{"NoteNumber":41,"Velocity":63,"Duration":69650,"SoundDuration":69650,"Delta":463187328},{"NoteNumber":41,"Velocity":90,"Duration":141609,"SoundDuration":141609,"Delta":463256979},{"NoteNumber":44,"Velocity":90,"Duration":141609,"SoundDuration":141609,"Delta":463256979},{"NoteNumber":48,"Velocity":90,"Duration":141609,"SoundDuration":141609,"Delta":463256979},{"NoteNumber":53,"Velocity":106,"Duration":141609,"SoundDuration":141609,"Delta":463256979},{"NoteNumber":29,"Velocity":69,"Duration":141609,"SoundDuration":141609,"Delta":463256979},{"NoteNumber":32,"Velocity":69,"Duration":141609,"SoundDuration":141609,"Delta":463256979},{"NoteNumber":36,"Velocity":69,"Duration":141609,"SoundDuration":141609,"Delta":463256979},{"NoteNumber":41,"Velocity":81,"Duration":141609,"SoundDuration":141609,"Delta":463256979},{"NoteNumber":65,"Velocity":94,"Duration":144335,"SoundDuration":144335,"Delta":463823417},{"NoteNumber":68,"Velocity":94,"Duration":144335,"SoundDuration":144335,"Delta":463823417},{"NoteNumber":72,"Velocity":94,"Duration":144335,"SoundDuration":144335,"Delta":463823417},{"NoteNumber":77,"Velocity":111,"Duration":144335,"SoundDuration":144335,"Delta":463823417},{"NoteNumber":29,"Velocity":72,"Duration":144335,"SoundDuration":144335,"Delta":463823417},{"NoteNumber":32,"Velocity":72,"Duration":144335,"SoundDuration":144335,"Delta":463823417},{"NoteNumber":36,"Velocity":72,"Duration":144335,"SoundDuration":144335,"Delta":463823417},{"NoteNumber":41,"Velocity":85,"Duration":144335,"SoundDuration":144335,"Delta":463823417},{"NoteNumber":53,"Velocity":94,"Duration":150504,"SoundDuration":150504,"Delta":464400757},{"NoteNumber":56,"Velocity":94,"Duration":150504,"SoundDuration":150504,"Delta":464400757},{"NoteNumber":60,"Velocity":94,"Duration":150504,"SoundDuration":150504,"Delta":464400757},{"NoteNumber":65,"Velocity":111,"Duration":150504,"SoundDuration":150504,"Delta":464400757},{"NoteNumber":29,"Velocity":72,"Duration":150504,"SoundDuration":150504,"Delta":464400757},{"NoteNumber":32,"Velocity":72,"Duration":150504,"SoundDuration":150504,"Delta":464400757},{"NoteNumber":36,"Velocity":72,"Duration":150504,"SoundDuration":150504,"Delta":464400757},{"NoteNumber":41,"Velocity":85,"Duration":150504,"SoundDuration":150504,"Delta":464400757}],"license":{"name":"Creative Commons Attribution-ShareAlike 3.0 Germany","url":"http://creativecommons.org/licenses/by-sa/3.0/de/deed.en","text":"The MIDI, audio (MP3, OGG) and video files of Bernd Krueger are licensed under the cc-by-sa Germany License. This means that you can use and adapt the files, as long as you attribute the copyright holder.\n\nName: Bernd Krueger\nSource: http://www.piano-midi.de\n\nThe distribution or public playback of the files is only allowed under identical license conditions.\n\nThe scores are open source.","attribution":"MIDI files by Bernd Krueger (piano-midi.de)"}}