{"title":"Für Elise","artist":"Beethoven","durationMs":164728,"midiSha256":"a1481bdafe94d33e0de8934c97aec45534c908bc797bae7293f626074aec2e07","midiObject":[{"NoteNumber":76,"Velocity":36,"Duration":220293,"SoundDuration":220293,"Delta":0},{"NoteNumber":75,"Velocity":33,"Duration":215607,"SoundDuration":215607,"Delta":220294},{"NoteNumber":76,"Velocity":39,"Duration":213873,"SoundDuration":213873,"Delta":435901},{"NoteNumber":75,"Velocity":36,"Duration":211084,"SoundDuration":211084,"Delta":649775},{"NoteNumber":76,"Velocity":45,"Duration":212794,"SoundDuration":212794,"Delta":860859},{"NoteNumber":71,"Velocity":40,"Duration":215300,"SoundDuration":215300,"Delta":1073653},{"NoteNumber":74,"Velocity":47,"Duration":215300,"SoundDuration":215300,"Delta":1288954},{"NoteNumber":72,"Velocity":39,"Duration":239043,"SoundDuration":239043,"Delta":1504255},{"NoteNumber":69,"Velocity":51,"Duration":433651,"SoundDuration":433651,"Delta":1743299},{"NoteNumber":45,"Velocity":37,"Duration":216825,"SoundDuration":216825,"Delta":1743299},{"NoteNumber":52,"Velocity":33,"Duration":216825,"SoundDuration":216825,"Delta":1960124},{"NoteNumber":57,"Velocity":33,"Duration":216825,"SoundDuration":216825,"Delta":2176950},{"NoteNumber":60,"Velocity":34,"Duration":209321,"SoundDuration":209321,"Delta":2393776},{"NoteNumber":64,"Velocity":38,"Duration":209321,"SoundDuration":209321,"Delta":2603098},{"NoteNumber":69,"Velocity":42,"Duration":231731,"SoundDuration":231731,"Delta":2812419},{"NoteNumber":71,"Velocity":46,"Duration":433651,"SoundDuration":433651,"Delta":3044151},{"NoteNumber":40,"Velocity":40,"Duration":216825,"SoundDuration":216825,"Delta":3044151},{"NoteNumber":52,"Velocity":33,"Duration":216825,"SoundDuration":216825,"Delta":3260977},{"NoteNumber":56,"Velocity":34,"Duration":210822,"SoundDuration":210822,"Delta":3477803},{"NoteNumber":64,"Velocity":36,"Duration":210822,"SoundDuration":210822,"Delta":3688625},{"NoteNumber":68,"Velocity":39,"Duration":210822,"SoundDuration":210822,"Delta":3899447},{"NoteNumber":71,"Velocity":42,"Duration":239043,"SoundDuration":239043,"Delta":4110269},{"NoteNumber":72,"Velocity":45,"Duration":433651,"SoundDuration":433651,"Delta":4349313},{"NoteNumber":45,"Velocity":38,"Duration":216825,"SoundDuration":216825,"Delta":4349313},{"NoteNumber":52,"Velocity":35,"Duration":216825,"SoundDuration":216825,"Delta":4566139},{"NoteNumber":57,"Velocity":35,"Duration":216825,"SoundDuration":216825,"Delta":4782965},{"NoteNumber":64,"Velocity":35,"Duration":216825,"SoundDuration":216825,"Delta":4999790},{"NoteNumber":76,"Velocity":38,"Duration":216425,"SoundDuration":216425,"Delta":5216616},{"NoteNumber":75,"Velocity":34,"Duration":213377,"SoundDuration":213377,"Delta":5433042},{"NoteNumber":76,"Velocity":41,"Duration":209791,"SoundDuration":209791,"Delta":5646420},{"NoteNumber":75,"Velocity":37,"Duration":209643,"SoundDuration":209643,"Delta":5856211},{"NoteNumber":76,"Velocity":46,"Duration":212101,"SoundDuration":212101,"Delta":6065855},{"NoteNumber":71,"Velocity":39,"Duration":218372,"SoundDuration":218372,"Delta":6277956},{"NoteNumber":74,"Velocity":48,"Duration":218372,"SoundDuration":218372,"Delta":6496329},{"NoteNumber":72,"Velocity":39,"Duration":228553,"SoundDuration":228553,"Delta":6714701},{"NoteNumber":69,"Velocity":48,"Duration":433651,"SoundDuration":433651,"Delta":6943255},{"NoteNumber":45,"Velocity":36,"Duration":216825,"SoundDuration":216825,"Delta":6943255},{"NoteNumber":52,"Velocity":35,"Duration":216825,"SoundDuration":216825,"Delta":7160081},{"NoteNumber":57,"Velocity":34,"Duration":216825,"SoundDuration":216825,"Delta":7376907},{"NoteNumber":60,"Velocity":34,"Duration":210822,"SoundDuration":210822,"Delta":7593733},{"NoteNumber":64,"Velocity":37,"Duration":210822,"SoundDuration":210822,"Delta":7804555},{"NoteNumber":69,"Velocity":41,"Duration":231731,"SoundDuration":231731,"Delta":8015377},{"NoteNumber":71,"Velocity":45,"Duration":433651,"SoundDuration":433651,"Delta":8247109},{"NoteNumber":40,"Velocity":38,"Duration":216825,"SoundDuration":216825,"Delta":8247109},{"NoteNumber":52,"Velocity":35,"Duration":216825,"SoundDuration":216825,"Delta":8463935},{"NoteNumber":56,"Velocity":36,"Duration":214071,"SoundDuration":214071,"Delta":8680760},{"NoteNumber":64,"Velocity":37,"Duration":220296,"SoundDuration":220296,"Delta":8894832},{"NoteNumber":72,"Velocity":40,"Duration":220296,"SoundDuration":220296,"Delta":9115129},{"NoteNumber":71,"Velocity":38,"Duration":225191,"SoundDuration":225191,"Delta":9335426},{"NoteNumber":69,"Velocity":40,"Duration":459981,"SoundDuration":459981,"Delta":9560617},{"NoteNumber":45,"Velocity":38,"Duration":229990,"SoundDuration":229990,"Delta":9560617},{"NoteNumber":52,"Velocity":32,"Duration":229990,"SoundDuration":229990,"Delta":9790608},{"NoteNumber":57,"Velocity":32,"Duration":229990,"SoundDuration":229990,"Delta":10020599},{"NoteNumber":76,"Velocity":36,"Duration":225454,"SoundDuration":225454,"Delta":10518208},{"NoteNumber":75,"Velocity":33,"Duration":217791,"SoundDuration":217791,"Delta":10743662},{"NoteNumber":76,"Velocity":39,"Duration":212585,"SoundDuration":212585,"Delta":10961454},{"NoteNumber":75,"Velocity":36,"Duration":212584,"SoundDuration":212584,"Delta":11174039},{"NoteNumber":76,"Velocity":45,"Duration":216884,"SoundDuration":216884,"Delta":11386624},{"NoteNumber":71,"Velocity":40,"Duration":214071,"SoundDuration":214071,"Delta":11603509},{"NoteNumber":74,"Velocity":47,"Duration":214071,"SoundDuration":214071,"Delta":11817581},{"NoteNumber":72,"Velocity":39,"Duration":239043,"SoundDuration":239043,"Delta":12031652},{"NoteNumber":69,"Velocity":51,"Duration":433651,"SoundDuration":433651,"Delta":12270696},{"NoteNumber":45,"Velocity":37,"Duration":216825,"SoundDuration":216825,"Delta":12270696},{"NoteNumber":52,"Velocity":33,"Duration":216825,"SoundDuration":216825,"Delta":12487522},{"NoteNumber":57,"Velocity":33,"Duration":216825,"SoundDuration":216825,"Delta":12704348},{"NoteNumber":60,"Velocity":34,"Duration":209321,"SoundDuration":209321,"Delta":12921173},{"NoteNumber":64,"Velocity":38,"Duration":209321,"SoundDuration":209321,"Delta":13130495},{"NoteNumber":69,"Velocity":42,"Duration":231731,"SoundDuration":231731,"Delta":13339817},{"NoteNumber":71,"Velocity":46,"Duration":433651,"SoundDuration":433651,"Delta":13571549},{"NoteNumber":40,"Velocity":40,"Duration":216825,"SoundDuration":216825,"Delta":13571549},{"NoteNumber":52,"Velocity":33,"Duration":216825,"SoundDuration":216825,"Delta":13788374},{"NoteNumber":56,"Velocity":34,"Duration":210822,"SoundDuration":210822,"Delta":14005200},{"NoteNumber":64,"Velocity":36,"Duration":210822,"SoundDuration":210822,"Delta":14216022},{"NoteNumber":68,"Velocity":39,"Duration":210822,"SoundDuration":210822,"Delta":14426845},{"NoteNumber":71,"Velocity":42,"Duration":239043,"SoundDuration":239043,"Delta":14637667},{"NoteNumber":72,"Velocity":45,"Duration":433651,"SoundDuration":433651,"Delta":14876711},{"NoteNumber":45,"Velocity":38,"Duration":216825,"SoundDuration":216825,"Delta":14876711},{"NoteNumber":52,"Velocity":35,"Duration":216825,"SoundDuration":216825,"Delta":15093536},{"NoteNumber":57,"Velocity":35,"Duration":216825,"SoundDuration":216825,"Delta":15310362},{"NoteNumber":64,"Velocity":35,"Duration":217288,"SoundDuration":217288,"Delta":15527188},{"NoteNumber":76,"Velocity":38,"Duration":219024,"SoundDuration":219024,"Delta":15744476},{"NoteNumber":75,"Velocity":34,"Duration":214544,"SoundDuration":214544,"Delta":15963501},{"NoteNumber":76,"Velocity":41,"Duration":212585,"SoundDuration":212585,"Delta":16178046},{"NoteNumber":75,"Velocity":37,"Duration":212585,"SoundDuration":212585,"Delta":16390631},{"NoteNumber":76,"Velocity":46,"Duration":211851,"SoundDuration":211851,"Delta":16603216},{"NoteNumber":71,"Velocity":39,"Duration":218372,"SoundDuration":218372,"Delta":16815067},{"NoteNumber":74,"Velocity":48,"Duration":218372,"SoundDuration":218372,"Delta":17033440},{"NoteNumber":72,"Velocity":39,"Duration":226860,"SoundDuration":226860,"Delta":17251812},{"NoteNumber":69,"Velocity":48,"Duration":433651,"SoundDuration":433651,"Delta":17478672},{"NoteNumber":45,"Velocity":38,"Duration":216825,"SoundDuration":216825,"Delta":17478672},{"NoteNumber":52,"Velocity":35,"Duration":216825,"SoundDuration":216825,"Delta":17695498},{"NoteNumber":57,"Velocity":34,"Duration":216825,"SoundDuration":216825,"Delta":17912324},{"NoteNumber":60,"Velocity":34,"Duration":210822,"SoundDuration":210822,"Delta":18129150},{"NoteNumber":64,"Velocity":37,"Duration":210822,"SoundDuration":210822,"Delta":18339972},{"NoteNumber":69,"Velocity":41,"Duration":231731,"SoundDuration":231731,"Delta":18550794},{"NoteNumber":71,"Velocity":45,"Duration":433651,"SoundDuration":433651,"Delta":18782526},{"NoteNumber":40,"Velocity":38,"Duration":216825,"SoundDuration":216825,"Delta":18782526},{"NoteNumber":52,"Velocity":37,"Duration":216825,"SoundDuration":216825,"Delta":18999352},{"NoteNumber":56,"Velocity":37,"Duration":217139,"SoundDuration":217139,"Delta":19216177},{"NoteNumber":64,"Velocity":37,"Duration":225191,"SoundDuration":225191,"Delta":19433317},{"NoteNumber":72,"Velocity":40,"Duration":225191,"SoundDuration":225191,"Delta":19658508},{"NoteNumber":71,"Velocity":38,"Duration":232054,"SoundDuration":232054,"Delta":19883700},{"NoteNumber":69,"Velocity":40,"Duration":462524,"SoundDuration":462524,"Delta":20115754},{"NoteNumber":45,"Velocity":38,"Duration":235663,"SoundDuration":235663,"Delta":20115754},{"NoteNumber":52,"Velocity":32,"Duration":226860,"SoundDuration":226860,"Delta":20351418},{"NoteNumber":57,"Velocity":32,"Duration":218690,"SoundDuration":218690,"Delta":20578278},{"NoteNumber":71,"Velocity":42,"Duration":221239,"SoundDuration":221239,"Delta":20796969},{"NoteNumber":72,"Velocity":45,"Duration":221239,"SoundDuration":221239,"Delta":21018208},{"NoteNumber":74,"Velocity":48,"Duration":228658,"SoundDuration":228658,"Delta":21239447},{"NoteNumber":76,"Velocity":51,"Duration":649853,"SoundDuration":649853,"Delta":21468106},{"NoteNumber":48,"Velocity":44,"Duration":213979,"SoundDuration":213979,"Delta":21468106},{"NoteNumber":55,"Velocity":38,"Duration":213979,"SoundDuration":213979,"Delta":21682086},{"NoteNumber":60,"Velocity":39,"Duration":221893,"SoundDuration":221893,"Delta":21896066},{"NoteNumber":67,"Velocity":40,"Duration":216857,"SoundDuration":216857,"Delta":22117959},{"NoteNumber":77,"Velocity":46,"Duration":218308,"SoundDuration":218308,"Delta":22334816},{"NoteNumber":76,"Velocity":43,"Duration":218308,"SoundDuration":218308,"Delta":22553125},{"NoteNumber":74,"Velocity":50,"Duration":649014,"SoundDuration":649014,"Delta":22771434},{"NoteNumber":43,"Velocity":44,"Duration":213979,"SoundDuration":213979,"Delta":22771434},{"NoteNumber":55,"Velocity":38,"Duration":213979,"SoundDuration":213979,"Delta":22985414},{"NoteNumber":59,"Velocity":39,"Duration":221054,"SoundDuration":221054,"Delta":23199394},{"NoteNumber":65,"Velocity":40,"Duration":219780,"SoundDuration":219780,"Delta":23420448},{"NoteNumber":76,"Velocity":46,"Duration":219780,"SoundDuration":219780,"Delta":23640228},{"NoteNumber":74,"Velocity":43,"Duration":219780,"SoundDuration":219780,"Delta":23860008},{"NoteNumber":72,"Velocity":50,"Duration":649853,"SoundDuration":649853,"Delta":24079788},{"NoteNumber":45,"Velocity":44,"Duration":213979,"SoundDuration":213979,"Delta":24079788},{"NoteNumber":52,"Velocity":38,"Duration":213979,"SoundDuration":213979,"Delta":24293768},{"NoteNumber":57,"Velocity":39,"Duration":221893,"SoundDuration":221893,"Delta":24507748},{"NoteNumber":64,"Velocity":40,"Duration":225835,"SoundDuration":225835,"Delta":24729642},{"NoteNumber":74,"Velocity":46,"Duration":217139,"SoundDuration":217139,"Delta":24955477},{"NoteNumber":72,"Velocity":43,"Duration":218690,"SoundDuration":218690,"Delta":25172617},{"NoteNumber":71,"Velocity":50,"Duration":433713,"SoundDuration":433713,"Delta":25391308},{"NoteNumber":40,"Velocity":44,"Duration":216857,"SoundDuration":216857,"Delta":25391308},{"NoteNumber":52,"Velocity":38,"Duration":216856,"SoundDuration":216856,"Delta":25608165},{"NoteNumber":64,"Velocity":39,"Duration":170557,"SoundDuration":170557,"Delta":25825022},{"NoteNumber":64,"Velocity":39,"Duration":214071,"SoundDuration":214071,"Delta":26052432},{"NoteNumber":76,"Velocity":45,"Duration":168161,"SoundDuration":168161,"Delta":26266504},{"NoteNumber":64,"Velocity":39,"Duration":214071,"SoundDuration":214071,"Delta":26490719},{"NoteNumber":76,"Velocity":44,"Duration":169376,"SoundDuration":169376,"Delta":26704791},{"NoteNumber":76,"Velocity":43,"Duration":233827,"SoundDuration":233827,"Delta":26930626},{"NoteNumber":88,"Velocity":48,"Duration":168893,"SoundDuration":168893,"Delta":27164453},{"NoteNumber":75,"Velocity":42,"Duration":214648,"SoundDuration":214648,"Delta":27389645},{"NoteNumber":76,"Velocity":50,"Duration":158339,"SoundDuration":158339,"Delta":27604293},{"NoteNumber":75,"Velocity":42,"Duration":211607,"SoundDuration":211607,"Delta":27815412},{"NoteNumber":76,"Velocity":48,"Duration":161707,"SoundDuration":161707,"Delta":28027020},{"NoteNumber":75,"Velocity":39,"Duration":217398,"SoundDuration":217398,"Delta":28242630},{"NoteNumber":76,"Velocity":41,"Duration":164151,"SoundDuration":164151,"Delta":28460028},{"NoteNumber":75,"Velocity":35,"Duration":221095,"SoundDuration":221095,"Delta":28679254},{"NoteNumber":76,"Velocity":37,"Duration":222973,"SoundDuration":222973,"Delta":28900350},{"NoteNumber":75,"Velocity":34,"Duration":224911,"SoundDuration":224911,"Delta":29123323},{"NoteNumber":76,"Velocity":40,"Duration":220052,"SoundDuration":220052,"Delta":29348235},{"NoteNumber":75,"Velocity":36,"Duration":225414,"SoundDuration":225414,"Delta":29568287},{"NoteNumber":76,"Velocity":40,"Duration":229431,"SoundDuration":229431,"Delta":29793701},{"NoteNumber":71,"Velocity":35,"Duration":232054,"SoundDuration":232054,"Delta":30023133},{"NoteNumber":74,"Velocity":42,"Duration":221893,"SoundDuration":221893,"Delta":30255187},{"NoteNumber":72,"Velocity":37,"Duration":239043,"SoundDuration":239043,"Delta":30477081},{"NoteNumber":69,"Velocity":45,"Duration":433651,"SoundDuration":433651,"Delta":30716124},{"NoteNumber":45,"Velocity":36,"Duration":216825,"SoundDuration":216825,"Delta":30716124},{"NoteNumber":52,"Velocity":33,"Duration":216825,"SoundDuration":216825,"Delta":30932950},{"NoteNumber":57,"Velocity":33,"Duration":216825,"SoundDuration":216825,"Delta":31149776},{"NoteNumber":60,"Velocity":34,"Duration":209321,"SoundDuration":209321,"Delta":31366602},{"NoteNumber":64,"Velocity":38,"Duration":209321,"SoundDuration":209321,"Delta":31575923},{"NoteNumber":69,"Velocity":42,"Duration":231731,"SoundDuration":231731,"Delta":31785245},{"NoteNumber":71,"Velocity":46,"Duration":433651,"SoundDuration":433651,"Delta":32016977},{"NoteNumber":40,"Velocity":40,"Duration":216825,"SoundDuration":216825,"Delta":32016977},{"NoteNumber":52,"Velocity":33,"Duration":216825,"SoundDuration":216825,"Delta":32233803},{"NoteNumber":56,"Velocity":34,"Duration":210822,"SoundDuration":210822,"Delta":32450629},{"NoteNumber":64,"Velocity":36,"Duration":210822,"SoundDuration":210822,"Delta":32661451},{"NoteNumber":68,"Velocity":39,"Duration":210822,"SoundDuration":210822,"Delta":32872273},{"NoteNumber":71,"Velocity":42,"Duration":239043,"SoundDuration":239043,"Delta":33083095},{"NoteNumber":72,"Velocity":45,"Duration":433651,"SoundDuration":433651,"Delta":33322139},{"NoteNumber":45,"Velocity":38,"Duration":216825,"SoundDuration":216825,"Delta":33322139},{"NoteNumber":52,"Velocity":35,"Duration":216825,"SoundDuration":216825,"Delta":33538965},{"NoteNumber":57,"Velocity":35,"Duration":216825,"SoundDuration":216825,"Delta":33755791},{"NoteNumber":64,"Velocity":35,"Duration":216825,"SoundDuration":216825,"Delta":33972616},{"NoteNumber":76,"Velocity":38,"Duration":218173,"SoundDuration":218173,"Delta":34189442},{"NoteNumber":75,"Velocity":34,"Duration":215352,"SoundDuration":215352,"Delta":34407616},{"NoteNumber":76,"Velocity":41,"Duration":212832,"SoundDuration":212832,"Delta":34622968},{"NoteNumber":75,"Velocity":37,"Duration":212585,"SoundDuration":212585,"Delta":34835801},{"NoteNumber":76,"Velocity":46,"Duration":213328,"SoundDuration":213328,"Delta":35048386},{"NoteNumber":71,"Velocity":39,"Duration":215610,"SoundDuration":215610,"Delta":35261714},{"NoteNumber":74,"Velocity":48,"Duration":215610,"SoundDuration":215610,"Delta":35477324},{"NoteNumber":72,"Velocity":39,"Duration":225191,"SoundDuration":225191,"Delta":35692935},{"NoteNumber":69,"Velocity":46,"Duration":433651,"SoundDuration":433651,"Delta":35918126},{"NoteNumber":45,"Velocity":38,"Duration":216825,"SoundDuration":216825,"Delta":35918126},{"NoteNumber":52,"Velocity":35,"Duration":216825,"SoundDuration":216825,"Delta":36134952},{"NoteNumber":57,"Velocity":34,"Duration":216825,"SoundDuration":216825,"Delta":36351778},{"NoteNumber":60,"Velocity":34,"Duration":210822,"SoundDuration":210822,"Delta":36568603},{"NoteNumber":64,"Velocity":37,"Duration":210822,"SoundDuration":210822,"Delta":36779426},{"NoteNumber":69,"Velocity":41,"Duration":231731,"SoundDuration":231731,"Delta":36990248},{"NoteNumber":71,"Velocity":45,"Duration":433651,"SoundDuration":433651,"Delta":37221980},{"NoteNumber":40,"Velocity":38,"Duration":216825,"SoundDuration":216825,"Delta":37221980},{"NoteNumber":52,"Velocity":37,"Duration":216825,"SoundDuration":216825,"Delta":37438805},{"NoteNumber":56,"Velocity":37,"Duration":218690,"SoundDuration":218690,"Delta":37655631},{"NoteNumber":64,"Velocity":37,"Duration":218690,"SoundDuration":218690,"Delta":37874322},{"NoteNumber":72,"Velocity":40,"Duration":223513,"SoundDuration":223513,"Delta":38093013},{"NoteNumber":71,"Velocity":38,"Duration":225191,"SoundDuration":225191,"Delta":38316526},{"NoteNumber":69,"Velocity":40,"Duration":459981,"SoundDuration":459981,"Delta":38541718},{"NoteNumber":45,"Velocity":38,"Duration":229990,"SoundDuration":229990,"Delta":38541718},{"NoteNumber":52,"Velocity":32,"Duration":229990,"SoundDuration":229990,"Delta":38771709},{"NoteNumber":57,"Velocity":32,"Duration":225191,"SoundDuration":225191,"Delta":39001699},{"NoteNumber":71,"Velocity":43,"Duration":221238,"SoundDuration":221238,"Delta":39226891},{"NoteNumber":72,"Velocity":45,"Duration":221239,"SoundDuration":221239,"Delta":39448130},{"NoteNumber":74,"Velocity":47,"Duration":228658,"SoundDuration":228658,"Delta":39669369},{"NoteNumber":76,"Velocity":50,"Duration":649853,"SoundDuration":649853,"Delta":39898027},{"NoteNumber":48,"Velocity":44,"Duration":213979,"SoundDuration":213979,"Delta":39898027},{"NoteNumber":55,"Velocity":38,"Duration":213979,"SoundDuration":213979,"Delta":40112007},{"NoteNumber":60,"Velocity":39,"Duration":221893,"SoundDuration":221893,"Delta":40325987},{"NoteNumber":67,"Velocity":40,"Duration":216856,"SoundDuration":216856,"Delta":40547881},{"NoteNumber":77,"Velocity":46,"Duration":218308,"SoundDuration":218308,"Delta":40764738},{"NoteNumber":76,"Velocity":43,"Duration":218308,"SoundDuration":218308,"Delta":40983047},{"NoteNumber":74,"Velocity":50,"Duration":649014,"SoundDuration":649014,"Delta":41201355},{"NoteNumber":43,"Velocity":44,"Duration":213979,"SoundDuration":213979,"Delta":41201355},{"NoteNumber":55,"Velocity":38,"Duration":213979,"SoundDuration":213979,"Delta":41415335},{"NoteNumber":59,"Velocity":39,"Duration":221054,"SoundDuration":221054,"Delta":41629315},{"NoteNumber":65,"Velocity":40,"Duration":219780,"SoundDuration":219780,"Delta":41850369},{"NoteNumber":76,"Velocity":46,"Duration":219780,"SoundDuration":219780,"Delta":42070150},{"NoteNumber":74,"Velocity":43,"Duration":219780,"SoundDuration":219780,"Delta":42289930},{"NoteNumber":72,"Velocity":50,"Duration":649853,"SoundDuration":649853,"Delta":42509710},{"NoteNumber":45,"Velocity":44,"Duration":213979,"SoundDuration":213979,"Delta":42509710},{"NoteNumber":52,"Velocity":38,"Duration":213979,"SoundDuration":213979,"Delta":42723690},{"NoteNumber":57,"Velocity":39,"Duration":221893,"SoundDuration":221893,"Delta":42937670},{"NoteNumber":64,"Velocity":40,"Duration":225835,"SoundDuration":225835,"Delta":43159564},{"NoteNumber":74,"Velocity":46,"Duration":217139,"SoundDuration":217139,"Delta":43385399},{"NoteNumber":72,"Velocity":43,"Duration":217139,"SoundDuration":217139,"Delta":43602539},{"NoteNumber":71,"Velocity":50,"Duration":433714,"SoundDuration":433714,"Delta":43819678},{"NoteNumber":40,"Velocity":44,"Duration":216856,"SoundDuration":216856,"Delta":43819678},{"NoteNumber":52,"Velocity":38,"Duration":216857,"SoundDuration":216857,"Delta":44036535},{"NoteNumber":64,"Velocity":39,"Duration":170557,"SoundDuration":170557,"Delta":44253392},{"NoteNumber":64,"Velocity":39,"Duration":214071,"SoundDuration":214071,"Delta":44480803},{"NoteNumber":76,"Velocity":45,"Duration":168161,"SoundDuration":168161,"Delta":44694874},{"NoteNumber":64,"Velocity":39,"Duration":214071,"SoundDuration":214071,"Delta":44919090},{"NoteNumber":76,"Velocity":44,"Duration":169376,"SoundDuration":169376,"Delta":45133161},{"NoteNumber":76,"Velocity":43,"Duration":230308,"SoundDuration":230308,"Delta":45358997},{"NoteNumber":88,"Velocity":48,"Duration":167635,"SoundDuration":167635,"Delta":45589305},{"NoteNumber":75,"Velocity":42,"Duration":214156,"SoundDuration":214156,"Delta":45812819},{"NoteNumber":76,"Velocity":50,"Duration":157232,"SoundDuration":157232,"Delta":46026976},{"NoteNumber":75,"Velocity":42,"Duration":211363,"SoundDuration":211363,"Delta":46236619},{"NoteNumber":76,"Velocity":48,"Duration":160553,"SoundDuration":160553,"Delta":46447982},{"NoteNumber":75,"Velocity":39,"Duration":216374,"SoundDuration":216374,"Delta":46662311},{"NoteNumber":76,"Velocity":41,"Duration":163500,"SoundDuration":163500,"Delta":46878686},{"NoteNumber":75,"Velocity":35,"Duration":220562,"SoundDuration":220562,"Delta":47096859},{"NoteNumber":76,"Velocity":37,"Duration":222703,"SoundDuration":222703,"Delta":47317422},{"NoteNumber":75,"Velocity":34,"Duration":224632,"SoundDuration":224632,"Delta":47540126},{"NoteNumber":76,"Velocity":39,"Duration":224071,"SoundDuration":224071,"Delta":47764758},{"NoteNumber":75,"Velocity":36,"Duration":225191,"SoundDuration":225191,"Delta":47988829},{"NoteNumber":76,"Velocity":39,"Duration":230910,"SoundDuration":230910,"Delta":48214021},{"NoteNumber":71,"Velocity":35,"Duration":225191,"SoundDuration":225191,"Delta":48444932},{"NoteNumber":74,"Velocity":40,"Duration":220296,"SoundDuration":220296,"Delta":48670123},{"NoteNumber":72,"Velocity":33,"Duration":239043,"SoundDuration":239043,"Delta":48890420},{"NoteNumber":69,"Velocity":46,"Duration":433651,"SoundDuration":433651,"Delta":49129464},{"NoteNumber":45,"Velocity":34,"Duration":216825,"SoundDuration":216825,"Delta":49129464},{"NoteNumber":52,"Velocity":32,"Duration":216825,"SoundDuration":216825,"Delta":49346289},{"NoteNumber":57,"Velocity":32,"Duration":216825,"SoundDuration":216825,"Delta":49563115},{"NoteNumber":60,"Velocity":34,"Duration":209321,"SoundDuration":209321,"Delta":49779941},{"NoteNumber":64,"Velocity":38,"Duration":209321,"SoundDuration":209321,"Delta":49989263},{"NoteNumber":69,"Velocity":42,"Duration":231731,"SoundDuration":231731,"Delta":50198584},{"NoteNumber":71,"Velocity":46,"Duration":433651,"SoundDuration":433651,"Delta":50430316},{"NoteNumber":40,"Velocity":38,"Duration":216825,"SoundDuration":216825,"Delta":50430316},{"NoteNumber":52,"Velocity":33,"Duration":216825,"SoundDuration":216825,"Delta":50647142},{"NoteNumber":56,"Velocity":34,"Duration":210822,"SoundDuration":210822,"Delta":50863968},{"NoteNumber":64,"Velocity":36,"Duration":210822,"SoundDuration":210822,"Delta":51074790},{"NoteNumber":68,"Velocity":39,"Duration":210822,"SoundDuration":210822,"Delta":51285612},{"NoteNumber":71,"Velocity":42,"Duration":239043,"SoundDuration":239043,"Delta":51496434},{"NoteNumber":72,"Velocity":45,"Duration":433651,"SoundDuration":433651,"Delta":51735478},{"NoteNumber":45,"Velocity":38,"Duration":216825,"SoundDuration":216825,"Delta":51735478},{"NoteNumber":52,"Velocity":35,"Duration":216825,"SoundDuration":216825,"Delta":51952304},{"NoteNumber":57,"Velocity":35,"Duration":216825,"SoundDuration":216825,"Delta":52169130},{"NoteNumber":64,"Velocity":35,"Duration":216857,"SoundDuration":216857,"Delta":52385955},{"NoteNumber":76,"Velocity":38,"Duration":216170,"SoundDuration":216170,"Delta":52602812},{"NoteNumber":75,"Velocity":34,"Duration":213132,"SoundDuration":213132,"Delta":52818983},{"NoteNumber":76,"Velocity":41,"Duration":211118,"SoundDuration":211118,"Delta":53032115},{"NoteNumber":75,"Velocity":37,"Duration":211118,"SoundDuration":211118,"Delta":53243234},{"NoteNumber":76,"Velocity":46,"Duration":214748,"SoundDuration":214748,"Delta":53454353},{"NoteNumber":71,"Velocity":39,"Duration":218372,"SoundDuration":218372,"Delta":53669101},{"NoteNumber":74,"Velocity":48,"Duration":218372,"SoundDuration":218372,"Delta":53887474},{"NoteNumber":72,"Velocity":39,"Duration":239043,"SoundDuration":239043,"Delta":54105846},{"NoteNumber":69,"Velocity":48,"Duration":433651,"SoundDuration":433651,"Delta":54344890},{"NoteNumber":45,"Velocity":38,"Duration":216825,"SoundDuration":216825,"Delta":54344890},{"NoteNumber":52,"Velocity":35,"Duration":216825,"SoundDuration":216825,"Delta":54561716},{"NoteNumber":57,"Velocity":34,"Duration":216825,"SoundDuration":216825,"Delta":54778542},{"NoteNumber":60,"Velocity":34,"Duration":210822,"SoundDuration":210822,"Delta":54995367},{"NoteNumber":64,"Velocity":37,"Duration":210822,"SoundDuration":210822,"Delta":55206190},{"NoteNumber":69,"Velocity":41,"Duration":231731,"SoundDuration":231731,"Delta":55417012},{"NoteNumber":71,"Velocity":45,"Duration":433651,"SoundDuration":433651,"Delta":55648744},{"NoteNumber":40,"Velocity":38,"Duration":216825,"SoundDuration":216825,"Delta":55648744},{"NoteNumber":52,"Velocity":37,"Duration":216825,"SoundDuration":216825,"Delta":55865569},{"NoteNumber":56,"Velocity":37,"Duration":224853,"SoundDuration":224853,"Delta":56082395},{"NoteNumber":64,"Velocity":37,"Duration":228554,"SoundDuration":228554,"Delta":56307249},{"NoteNumber":72,"Velocity":40,"Duration":235663,"SoundDuration":235663,"Delta":56535803},{"NoteNumber":71,"Velocity":38,"Duration":244818,"SoundDuration":244818,"Delta":56771467},{"NoteNumber":69,"Velocity":40,"Duration":471327,"SoundDuration":471327,"Delta":57016285},{"NoteNumber":45,"Velocity":38,"Duration":235663,"SoundDuration":235663,"Delta":57016285},{"NoteNumber":52,"Velocity":32,"Duration":235663,"SoundDuration":235663,"Delta":57251948},{"NoteNumber":57,"Velocity":32,"Duration":232108,"SoundDuration":232108,"Delta":57487612},{"NoteNumber":64,"Velocity":40,"Duration":170427,"SoundDuration":170427,"Delta":57719721},{"NoteNumber":72,"Velocity":46,"Duration":170427,"SoundDuration":170427,"Delta":57719721},{"NoteNumber":58,"Velocity":34,"Duration":170427,"SoundDuration":170427,"Delta":57719721},{"NoteNumber":60,"Velocity":34,"Duration":170427,"SoundDuration":170427,"Delta":57719721},{"NoteNumber":65,"Velocity":41,"Duration":166161,"SoundDuration":166161,"Delta":57946585},{"NoteNumber":72,"Velocity":47,"Duration":166161,"SoundDuration":166161,"Delta":57946585},{"NoteNumber":57,"Velocity":34,"Duration":166161,"SoundDuration":166161,"Delta":57946585},{"NoteNumber":60,"Velocity":34,"Duration":166161,"SoundDuration":166161,"Delta":57946585},{"NoteNumber":64,"Velocity":43,"Duration":128821,"SoundDuration":128821,"Delta":58167419},{"NoteNumber":67,"Velocity":43,"Duration":128821,"SoundDuration":128821,"Delta":58167419},{"NoteNumber":72,"Velocity":49,"Duration":128821,"SoundDuration":128821,"Delta":58167419},{"NoteNumber":55,"Velocity":34,"Duration":128821,"SoundDuration":128821,"Delta":58167419},{"NoteNumber":58,"Velocity":34,"Duration":128821,"SoundDuration":128821,"Delta":58167419},{"NoteNumber":60,"Velocity":34,"Duration":128821,"SoundDuration":128821,"Delta":58167419},{"NoteNumber":65,"Velocity":43,"Duration":84440,"SoundDuration":84440,"Delta":58296241},{"NoteNumber":69,"Velocity":41,"Duration":84440,"SoundDuration":84440,"Delta":58380681},{"NoteNumber":72,"Velocity":55,"Duration":892434,"SoundDuration":892434,"Delta":58465122},{"NoteNumber":53,"Velocity":44,"Duration":223513,"SoundDuration":223513,"Delta":58465122},{"NoteNumber":57,"Velocity":38,"Duration":223513,"SoundDuration":223513,"Delta":58688636},{"NoteNumber":60,"Velocity":36,"Duration":223513,"SoundDuration":223513,"Delta":58912149},{"NoteNumber":57,"Velocity":37,"Duration":221893,"SoundDuration":221893,"Delta":59135663},{"NoteNumber":77,"Velocity":57,"Duration":346658,"SoundDuration":346658,"Delta":59357557},{"NoteNumber":60,"Velocity":37,"Duration":230631,"SoundDuration":230631,"Delta":59357557},{"NoteNumber":57,"Velocity":37,"Duration":240611,"SoundDuration":240611,"Delta":59588188},{"NoteNumber":76,"Velocity":52,"Duration":120431,"SoundDuration":120431,"Delta":59704215},{"NoteNumber":76,"Velocity":57,"Duration":450383,"SoundDuration":450383,"Delta":59828800},{"NoteNumber":53,"Velocity":44,"Duration":225191,"SoundDuration":225191,"Delta":59828800},{"NoteNumber":58,"Velocity":38,"Duration":225191,"SoundDuration":225191,"Delta":60053991},{"NoteNumber":74,"Velocity":51,"Duration":455568,"SoundDuration":455568,"Delta":60279183},{"NoteNumber":62,"Velocity":37,"Duration":223513,"SoundDuration":223513,"Delta":60279183},{"NoteNumber":58,"Velocity":37,"Duration":232054,"SoundDuration":232054,"Delta":60502696},{"NoteNumber":82,"Velocity":62,"Duration":335135,"SoundDuration":335135,"Delta":60734751},{"NoteNumber":62,"Velocity":37,"Duration":221893,"SoundDuration":221893,"Delta":60734751},{"NoteNumber":58,"Velocity":38,"Duration":231073,"SoundDuration":231073,"Delta":60956644},{"NoteNumber":81,"Velocity":56,"Duration":113904,"SoundDuration":113904,"Delta":61069886},{"NoteNumber":81,"Velocity":56,"Duration":215863,"SoundDuration":215863,"Delta":61187718},{"NoteNumber":53,"Velocity":44,"Duration":215863,"SoundDuration":215863,"Delta":61187718},{"NoteNumber":79,"Velocity":56,"Duration":218967,"SoundDuration":218967,"Delta":61403582},{"NoteNumber":64,"Velocity":37,"Duration":218967,"SoundDuration":218967,"Delta":61403582},{"NoteNumber":77,"Velocity":55,"Duration":222167,"SoundDuration":222167,"Delta":61622549},{"NoteNumber":53,"Velocity":36,"Duration":222167,"SoundDuration":222167,"Delta":61622549},{"NoteNumber":58,"Velocity":36,"Duration":222167,"SoundDuration":222167,"Delta":61622549},{"NoteNumber":55,"Velocity":36,"Duration":222167,"SoundDuration":222167,"Delta":61622549},{"NoteNumber":76,"Velocity":55,"Duration":225468,"SoundDuration":225468,"Delta":61844717},{"NoteNumber":64,"Velocity":36,"Duration":225468,"SoundDuration":225468,"Delta":61844717},{"NoteNumber":74,"Velocity":55,"Duration":228554,"SoundDuration":228554,"Delta":62070185},{"NoteNumber":53,"Velocity":36,"Duration":228554,"SoundDuration":228554,"Delta":62070185},{"NoteNumber":55,"Velocity":36,"Duration":228554,"SoundDuration":228554,"Delta":62070185},{"NoteNumber":58,"Velocity":36,"Duration":228554,"SoundDuration":228554,"Delta":62070185},{"NoteNumber":72,"Velocity":54,"Duration":233826,"SoundDuration":233826,"Delta":62298739},{"NoteNumber":64,"Velocity":36,"Duration":233826,"SoundDuration":233826,"Delta":62298739},{"NoteNumber":70,"Velocity":54,"Duration":437381,"SoundDuration":437381,"Delta":62532566},{"NoteNumber":53,"Velocity":44,"Duration":218690,"SoundDuration":218690,"Delta":62532566},{"NoteNumber":57,"Velocity":36,"Duration":218690,"SoundDuration":218690,"Delta":62751256},{"NoteNumber":69,"Velocity":51,"Duration":392731,"SoundDuration":392731,"Delta":62969947},{"NoteNumber":60,"Velocity":36,"Duration":218690,"SoundDuration":218690,"Delta":62969947},{"NoteNumber":57,"Velocity":36,"Duration":232054,"SoundDuration":232054,"Delta":63188638},{"NoteNumber":70,"Velocity":44,"Duration":58013,"SoundDuration":58013,"Delta":63362679},{"NoteNumber":69,"Velocity":49,"Duration":111756,"SoundDuration":111756,"Delta":63420692},{"NoteNumber":60,"Velocity":36,"Duration":223513,"SoundDuration":223513,"Delta":63420692},{"NoteNumber":67,"Velocity":50,"Duration":111756,"SoundDuration":111756,"Delta":63532449},{"NoteNumber":69,"Velocity":51,"Duration":111756,"SoundDuration":111756,"Delta":63644206},{"NoteNumber":57,"Velocity":36,"Duration":223513,"SoundDuration":223513,"Delta":63644206},{"NoteNumber":70,"Velocity":52,"Duration":111756,"SoundDuration":111756,"Delta":63755963},{"NoteNumber":72,"Velocity":54,"Duration":884626,"SoundDuration":884626,"Delta":63867720},{"NoteNumber":53,"Velocity":42,"Duration":218690,"SoundDuration":218690,"Delta":63867720},{"NoteNumber":57,"Velocity":34,"Duration":218690,"SoundDuration":218690,"Delta":64086411},{"NoteNumber":60,"Velocity":35,"Duration":218690,"SoundDuration":218690,"Delta":64305101},{"NoteNumber":57,"Velocity":36,"Duration":228554,"SoundDuration":228554,"Delta":64523792},{"NoteNumber":74,"Velocity":55,"Duration":221893,"SoundDuration":221893,"Delta":64752346},{"NoteNumber":60,"Velocity":38,"Duration":221893,"SoundDuration":221893,"Delta":64752346},{"NoteNumber":75,"Velocity":57,"Duration":221893,"SoundDuration":221893,"Delta":64974240},{"NoteNumber":57,"Velocity":39,"Duration":221893,"SoundDuration":221893,"Delta":64974240},{"NoteNumber":76,"Velocity":59,"Duration":656072,"SoundDuration":656072,"Delta":65196133},{"NoteNumber":52,"Velocity":49,"Duration":218690,"SoundDuration":218690,"Delta":65196133},{"NoteNumber":57,"Velocity":38,"Duration":218690,"SoundDuration":218690,"Delta":65414824},{"NoteNumber":60,"Velocity":38,"Duration":218690,"SoundDuration":218690,"Delta":65633515},{"NoteNumber":76,"Velocity":58,"Duration":226860,"SoundDuration":226860,"Delta":65852205},{"NoteNumber":57,"Velocity":38,"Duration":226860,"SoundDuration":226860,"Delta":65852205},{"NoteNumber":77,"Velocity":63,"Duration":226860,"SoundDuration":226860,"Delta":66079066},{"NoteNumber":50,"Velocity":38,"Duration":226860,"SoundDuration":226860,"Delta":66079066},{"NoteNumber":62,"Velocity":38,"Duration":226860,"SoundDuration":226860,"Delta":66079066},{"NoteNumber":69,"Velocity":58,"Duration":226860,"SoundDuration":226860,"Delta":66305926},{"NoteNumber":53,"Velocity":38,"Duration":226860,"SoundDuration":226860,"Delta":66305926},{"NoteNumber":72,"Velocity":64,"Duration":874763,"SoundDuration":874763,"Delta":66532786},{"NoteNumber":55,"Velocity":47,"Duration":218690,"SoundDuration":218690,"Delta":66532786},{"NoteNumber":64,"Velocity":38,"Duration":218690,"SoundDuration":218690,"Delta":66751477},{"NoteNumber":55,"Velocity":40,"Duration":218690,"SoundDuration":218690,"Delta":66970168},{"NoteNumber":64,"Velocity":38,"Duration":218690,"SoundDuration":218690,"Delta":67188858},{"NoteNumber":74,"Velocity":64,"Duration":337787,"SoundDuration":337787,"Delta":67407549},{"NoteNumber":55,"Velocity":41,"Duration":225191,"SoundDuration":225191,"Delta":67407549},{"NoteNumber":65,"Velocity":38,"Duration":224641,"SoundDuration":224641,"Delta":67632741},{"NoteNumber":71,"Velocity":57,"Duration":112046,"SoundDuration":112046,"Delta":67745336},{"NoteNumber":72,"Velocity":64,"Duration":114277,"SoundDuration":114277,"Delta":67857383},{"NoteNumber":60,"Velocity":45,"Duration":450682,"SoundDuration":450682,"Delta":67857383},{"NoteNumber":64,"Velocity":45,"Duration":450682,"SoundDuration":450682,"Delta":67857383},{"NoteNumber":79,"Velocity":57,"Duration":113151,"SoundDuration":113151,"Delta":67971660},{"NoteNumber":67,"Velocity":64,"Duration":112036,"SoundDuration":112036,"Delta":68084812},{"NoteNumber":79,"Velocity":57,"Duration":111216,"SoundDuration":111216,"Delta":68196848},{"NoteNumber":69,"Velocity":64,"Duration":109880,"SoundDuration":109880,"Delta":68308065},{"NoteNumber":79,"Velocity":63,"Duration":109086,"SoundDuration":109086,"Delta":68417946},{"NoteNumber":71,"Velocity":66,"Duration":108059,"SoundDuration":108059,"Delta":68527032},{"NoteNumber":65,"Velocity":40,"Duration":161577,"SoundDuration":161577,"Delta":68527032},{"NoteNumber":67,"Velocity":40,"Duration":161577,"SoundDuration":161577,"Delta":68527032},{"NoteNumber":79,"Velocity":63,"Duration":106788,"SoundDuration":106788,"Delta":68635092},{"NoteNumber":72,"Velocity":68,"Duration":106292,"SoundDuration":106292,"Delta":68741880},{"NoteNumber":64,"Velocity":43,"Duration":159438,"SoundDuration":159438,"Delta":68741880},{"NoteNumber":67,"Velocity":43,"Duration":159438,"SoundDuration":159438,"Delta":68741880},{"NoteNumber":79,"Velocity":66,"Duration":106292,"SoundDuration":106292,"Delta":68848173},{"NoteNumber":74,"Velocity":70,"Duration":106292,"SoundDuration":106292,"Delta":68954465},{"NoteNumber":62,"Velocity":46,"Duration":159316,"SoundDuration":159316,"Delta":68954465},{"NoteNumber":65,"Velocity":46,"Duration":159316,"SoundDuration":159316,"Delta":68954465},{"NoteNumber":67,"Velocity":46,"Duration":159316,"SoundDuration":159316,"Delta":68954465},{"NoteNumber":79,"Velocity":65,"Duration":105803,"SoundDuration":105803,"Delta":69060758},{"NoteNumber":76,"Velocity":72,"Duration":107035,"SoundDuration":107035,"Delta":69166562},{"NoteNumber":60,"Velocity":49,"Duration":447326,"SoundDuration":447326,"Delta":69166562},{"NoteNumber":64,"Velocity":49,"Duration":447326,"SoundDuration":447326,"Delta":69166562},{"NoteNumber":67,"Velocity":49,"Duration":447326,"SoundDuration":447326,"Delta":69166562},{"NoteNumber":79,"Velocity":63,"Duration":113430,"SoundDuration":113430,"Delta":69273598},{"NoteNumber":84,"Velocity":67,"Duration":113430,"SoundDuration":113430,"Delta":69387028},{"NoteNumber":83,"Velocity":62,"Duration":113430,"SoundDuration":113430,"Delta":69500458},{"NoteNumber":81,"Velocity":67,"Duration":109678,"SoundDuration":109678,"Delta":69613888},{"NoteNumber":53,"Velocity":42,"Duration":435387,"SoundDuration":435387,"Delta":69613888},{"NoteNumber":57,"Velocity":42,"Duration":435387,"SoundDuration":435387,"Delta":69613888},{"NoteNumber":79,"Velocity":62,"Duration":108569,"SoundDuration":108569,"Delta":69723567},{"NoteNumber":77,"Velocity":67,"Duration":108569,"SoundDuration":108569,"Delta":69832136},{"NoteNumber":76,"Velocity":61,"Duration":108569,"SoundDuration":108569,"Delta":69940706},{"NoteNumber":74,"Velocity":69,"Duration":108569,"SoundDuration":108569,"Delta":70049276},{"NoteNumber":55,"Velocity":42,"Duration":442569,"SoundDuration":442569,"Delta":70049276},{"NoteNumber":59,"Velocity":42,"Duration":442569,"SoundDuration":442569,"Delta":70049276},{"NoteNumber":79,"Velocity":63,"Duration":108569,"SoundDuration":108569,"Delta":70157846},{"NoteNumber":77,"Velocity":69,"Duration":109362,"SoundDuration":109362,"Delta":70266415},{"NoteNumber":74,"Velocity":64,"Duration":116067,"SoundDuration":116067,"Delta":70375777},{"NoteNumber":72,"Velocity":64,"Duration":117301,"SoundDuration":117301,"Delta":70491845},{"NoteNumber":60,"Velocity":45,"Duration":455656,"SoundDuration":455656,"Delta":70491845},{"NoteNumber":79,"Velocity":57,"Duration":113994,"SoundDuration":113994,"Delta":70609147},{"NoteNumber":67,"Velocity":64,"Duration":112873,"SoundDuration":112873,"Delta":70723141},{"NoteNumber":79,"Velocity":57,"Duration":111486,"SoundDuration":111486,"Delta":70836015},{"NoteNumber":69,"Velocity":64,"Duration":110414,"SoundDuration":110414,"Delta":70947502},{"NoteNumber":79,"Velocity":63,"Duration":107805,"SoundDuration":107805,"Delta":71057916},{"NoteNumber":71,"Velocity":66,"Duration":107292,"SoundDuration":107292,"Delta":71165722},{"NoteNumber":65,"Velocity":40,"Duration":160810,"SoundDuration":160810,"Delta":71165722},{"NoteNumber":67,"Velocity":40,"Duration":160810,"SoundDuration":160810,"Delta":71165722},{"NoteNumber":79,"Velocity":63,"Duration":106788,"SoundDuration":106788,"Delta":71273014},{"NoteNumber":72,"Velocity":68,"Duration":106292,"SoundDuration":106292,"Delta":71379802},{"NoteNumber":64,"Velocity":43,"Duration":159438,"SoundDuration":159438,"Delta":71379802},{"NoteNumber":67,"Velocity":43,"Duration":159438,"SoundDuration":159438,"Delta":71379802},{"NoteNumber":79,"Velocity":66,"Duration":106292,"SoundDuration":106292,"Delta":71486094},{"NoteNumber":74,"Velocity":70,"Duration":106292,"SoundDuration":106292,"Delta":71592387},{"NoteNumber":62,"Velocity":46,"Duration":159316,"SoundDuration":159316,"Delta":71592387},{"NoteNumber":65,"Velocity":46,"Duration":159316,"SoundDuration":159316,"Delta":71592387},{"NoteNumber":67,"Velocity":46,"Duration":159316,"SoundDuration":159316,"Delta":71592387},{"NoteNumber":79,"Velocity":65,"Duration":105803,"SoundDuration":105803,"Delta":71698679},{"NoteNumber":76,"Velocity":72,"Duration":105559,"SoundDuration":105559,"Delta":71804483},{"NoteNumber":60,"Velocity":49,"Duration":444176,"SoundDuration":444176,"Delta":71804483},{"NoteNumber":64,"Velocity":49,"Duration":444176,"SoundDuration":444176,"Delta":71804483},{"NoteNumber":67,"Velocity":49,"Duration":444176,"SoundDuration":444176,"Delta":71804483},{"NoteNumber":79,"Velocity":65,"Duration":111756,"SoundDuration":111756,"Delta":71910043},{"NoteNumber":84,"Velocity":69,"Duration":113430,"SoundDuration":113430,"Delta":72021800},{"NoteNumber":83,"Velocity":64,"Duration":113430,"SoundDuration":113430,"Delta":72135230},{"NoteNumber":81,"Velocity":70,"Duration":109167,"SoundDuration":109167,"Delta":72248660},{"NoteNumber":53,"Velocity":42,"Duration":431044,"SoundDuration":431044,"Delta":72248660},{"NoteNumber":57,"Velocity":42,"Duration":431044,"SoundDuration":431044,"Delta":72248660},{"NoteNumber":79,"Velocity":60,"Duration":107035,"SoundDuration":107035,"Delta":72357827},{"NoteNumber":77,"Velocity":64,"Duration":107035,"SoundDuration":107035,"Delta":72464863},{"NoteNumber":76,"Velocity":55,"Duration":107805,"SoundDuration":107805,"Delta":72571899},{"NoteNumber":74,"Velocity":65,"Duration":107805,"SoundDuration":107805,"Delta":72679704},{"NoteNumber":55,"Velocity":42,"Duration":445326,"SoundDuration":445326,"Delta":72679704},{"NoteNumber":59,"Velocity":42,"Duration":445326,"SoundDuration":445326,"Delta":72679704},{"NoteNumber":79,"Velocity":57,"Duration":108314,"SoundDuration":108314,"Delta":72787509},{"NoteNumber":77,"Velocity":63,"Duration":108569,"SoundDuration":108569,"Delta":72895824},{"NoteNumber":74,"Velocity":53,"Duration":120637,"SoundDuration":120637,"Delta":73004394},{"NoteNumber":76,"Velocity":57,"Duration":117831,"SoundDuration":117831,"Delta":73125031},{"NoteNumber":59,"Velocity":42,"Duration":476064,"SoundDuration":476064,"Delta":73125031},{"NoteNumber":56,"Velocity":42,"Duration":476064,"SoundDuration":476064,"Delta":73125031},{"NoteNumber":77,"Velocity":50,"Duration":117831,"SoundDuration":117831,"Delta":73242863},{"NoteNumber":76,"Velocity":50,"Duration":117831,"SoundDuration":117831,"Delta":73360695},{"NoteNumber":75,"Velocity":50,"Duration":122568,"SoundDuration":122568,"Delta":73478526},{"NoteNumber":76,"Velocity":57,"Duration":116913,"SoundDuration":116913,"Delta":73601095},{"NoteNumber":71,"Velocity":49,"Duration":116913,"SoundDuration":116913,"Delta":73718009},{"NoteNumber":76,"Velocity":54,"Duration":116913,"SoundDuration":116913,"Delta":73834922},{"NoteNumber":75,"Velocity":52,"Duration":121595,"SoundDuration":121595,"Delta":73951836},{"NoteNumber":76,"Velocity":57,"Duration":118110,"SoundDuration":118110,"Delta":74073431},{"NoteNumber":71,"Velocity":51,"Duration":118110,"SoundDuration":118110,"Delta":74191542},{"NoteNumber":76,"Velocity":54,"Duration":113430,"SoundDuration":113430,"Delta":74309652},{"NoteNumber":75,"Velocity":49,"Duration":131027,"SoundDuration":131027,"Delta":74423082},{"NoteNumber":76,"Velocity":57,"Duration":670541,"SoundDuration":670541,"Delta":74554109},{"NoteNumber":71,"Velocity":52,"Duration":223513,"SoundDuration":223513,"Delta":75224650},{"NoteNumber":76,"Velocity":57,"Duration":223513,"SoundDuration":223513,"Delta":75448164},{"NoteNumber":75,"Velocity":49,"Duration":232054,"SoundDuration":232054,"Delta":75671678},{"NoteNumber":76,"Velocity":56,"Duration":651418,"SoundDuration":651418,"Delta":75903732},{"NoteNumber":71,"Velocity":42,"Duration":214648,"SoundDuration":214648,"Delta":76555151},{"NoteNumber":76,"Velocity":50,"Duration":158339,"SoundDuration":158339,"Delta":76769800},{"NoteNumber":75,"Velocity":42,"Duration":211607,"SoundDuration":211607,"Delta":76980919},{"NoteNumber":76,"Velocity":48,"Duration":161707,"SoundDuration":161707,"Delta":77192526},{"NoteNumber":75,"Velocity":39,"Duration":217398,"SoundDuration":217398,"Delta":77408136},{"NoteNumber":76,"Velocity":41,"Duration":164151,"SoundDuration":164151,"Delta":77625535},{"NoteNumber":75,"Velocity":35,"Duration":221095,"SoundDuration":221095,"Delta":77844761},{"NoteNumber":76,"Velocity":37,"Duration":167095,"SoundDuration":167095,"Delta":78065856},{"NoteNumber":75,"Velocity":34,"Duration":224911,"SoundDuration":224911,"Delta":78288829},{"NoteNumber":76,"Velocity":40,"Duration":220052,"SoundDuration":220052,"Delta":78513741},{"NoteNumber":75,"Velocity":36,"Duration":225414,"SoundDuration":225414,"Delta":78733794},{"NoteNumber":76,"Velocity":40,"Duration":232027,"SoundDuration":232027,"Delta":78959208},{"NoteNumber":71,"Velocity":36,"Duration":221893,"SoundDuration":221893,"Delta":79191235},{"NoteNumber":74,"Velocity":43,"Duration":217139,"SoundDuration":217139,"Delta":79413128},{"NoteNumber":72,"Velocity":35,"Duration":239043,"SoundDuration":239043,"Delta":79630268},{"NoteNumber":69,"Velocity":45,"Duration":433651,"SoundDuration":433651,"Delta":79869312},{"NoteNumber":45,"Velocity":35,"Duration":216825,"SoundDuration":216825,"Delta":79869312},{"NoteNumber":52,"Velocity":31,"Duration":216825,"SoundDuration":216825,"Delta":80086137},{"NoteNumber":57,"Velocity":31,"Duration":216825,"SoundDuration":216825,"Delta":80302963},{"NoteNumber":60,"Velocity":34,"Duration":209321,"SoundDuration":209321,"Delta":80519789},{"NoteNumber":64,"Velocity":38,"Duration":209321,"SoundDuration":209321,"Delta":80729111},{"NoteNumber":69,"Velocity":42,"Duration":231731,"SoundDuration":231731,"Delta":80938432},{"NoteNumber":71,"Velocity":46,"Duration":433651,"SoundDuration":433651,"Delta":81170164},{"NoteNumber":40,"Velocity":40,"Duration":216825,"SoundDuration":216825,"Delta":81170164},{"NoteNumber":52,"Velocity":33,"Duration":216825,"SoundDuration":216825,"Delta":81386990},{"NoteNumber":56,"Velocity":34,"Duration":210822,"SoundDuration":210822,"Delta":81603816},{"NoteNumber":64,"Velocity":36,"Duration":210822,"SoundDuration":210822,"Delta":81814638},{"NoteNumber":68,"Velocity":39,"Duration":210822,"SoundDuration":210822,"Delta":82025460},{"NoteNumber":71,"Velocity":42,"Duration":239043,"SoundDuration":239043,"Delta":82236282},{"NoteNumber":72,"Velocity":45,"Duration":433651,"SoundDuration":433651,"Delta":82475326},{"NoteNumber":45,"Velocity":38,"Duration":216825,"SoundDuration":216825,"Delta":82475326},{"NoteNumber":52,"Velocity":35,"Duration":216825,"SoundDuration":216825,"Delta":82692152},{"NoteNumber":57,"Velocity":35,"Duration":216825,"SoundDuration":216825,"Delta":82908978},{"NoteNumber":64,"Velocity":35,"Duration":217288,"SoundDuration":217288,"Delta":83125803},{"NoteNumber":76,"Velocity":38,"Duration":219024,"SoundDuration":219024,"Delta":83343092},{"NoteNumber":75,"Velocity":34,"Duration":214544,"SoundDuration":214544,"Delta":83562117},{"NoteNumber":76,"Velocity":41,"Duration":212585,"SoundDuration":212585,"Delta":83776661},{"NoteNumber":75,"Velocity":37,"Duration":212584,"SoundDuration":212584,"Delta":83989246},{"NoteNumber":76,"Velocity":46,"Duration":211851,"SoundDuration":211851,"Delta":84201831},{"NoteNumber":71,"Velocity":39,"Duration":218372,"SoundDuration":218372,"Delta":84413683},{"NoteNumber":74,"Velocity":48,"Duration":218372,"SoundDuration":218372,"Delta":84632055},{"NoteNumber":72,"Velocity":39,"Duration":226860,"SoundDuration":226860,"Delta":84850428},{"NoteNumber":69,"Velocity":48,"Duration":433651,"SoundDuration":433651,"Delta":85077288},{"NoteNumber":45,"Velocity":38,"Duration":216825,"SoundDuration":216825,"Delta":85077288},{"NoteNumber":52,"Velocity":35,"Duration":216825,"SoundDuration":216825,"Delta":85294114},{"NoteNumber":57,"Velocity":34,"Duration":216825,"SoundDuration":216825,"Delta":85510939},{"NoteNumber":60,"Velocity":34,"Duration":210822,"SoundDuration":210822,"Delta":85727765},{"NoteNumber":64,"Velocity":37,"Duration":210822,"SoundDuration":210822,"Delta":85938587},{"NoteNumber":69,"Velocity":41,"Duration":231731,"SoundDuration":231731,"Delta":86149410},{"NoteNumber":71,"Velocity":45,"Duration":433651,"SoundDuration":433651,"Delta":86381141},{"NoteNumber":40,"Velocity":38,"Duration":216825,"SoundDuration":216825,"Delta":86381141},{"NoteNumber":52,"Velocity":37,"Duration":216825,"SoundDuration":216825,"Delta":86597967},{"NoteNumber":56,"Velocity":37,"Duration":215610,"SoundDuration":215610,"Delta":86814793},{"NoteNumber":64,"Velocity":37,"Duration":225191,"SoundDuration":225191,"Delta":87030403},{"NoteNumber":72,"Velocity":40,"Duration":225191,"SoundDuration":225191,"Delta":87255595},{"NoteNumber":71,"Velocity":38,"Duration":232054,"SoundDuration":232054,"Delta":87480786},{"NoteNumber":69,"Velocity":40,"Duration":459177,"SoundDuration":459177,"Delta":87712841},{"NoteNumber":45,"Velocity":38,"Duration":235663,"SoundDuration":235663,"Delta":87712841},{"NoteNumber":52,"Velocity":32,"Duration":223513,"SoundDuration":223513,"Delta":87948504},{"NoteNumber":57,"Velocity":32,"Duration":218690,"SoundDuration":218690,"Delta":88172018},{"NoteNumber":71,"Velocity":44,"Duration":221238,"SoundDuration":221238,"Delta":88390709},{"NoteNumber":72,"Velocity":46,"Duration":221238,"SoundDuration":221238,"Delta":88611948},{"NoteNumber":74,"Velocity":48,"Duration":228658,"SoundDuration":228658,"Delta":88833187},{"NoteNumber":76,"Velocity":52,"Duration":649853,"SoundDuration":649853,"Delta":89061845},{"NoteNumber":48,"Velocity":44,"Duration":213980,"SoundDuration":213980,"Delta":89061845},{"NoteNumber":55,"Velocity":38,"Duration":213979,"SoundDuration":213979,"Delta":89275825},{"NoteNumber":60,"Velocity":39,"Duration":221893,"SoundDuration":221893,"Delta":89489805},{"NoteNumber":67,"Velocity":40,"Duration":216857,"SoundDuration":216857,"Delta":89711699},{"NoteNumber":77,"Velocity":46,"Duration":218308,"SoundDuration":218308,"Delta":89928556},{"NoteNumber":76,"Velocity":43,"Duration":218308,"SoundDuration":218308,"Delta":90146865},{"NoteNumber":74,"Velocity":50,"Duration":649014,"SoundDuration":649014,"Delta":90365173},{"NoteNumber":43,"Velocity":44,"Duration":213980,"SoundDuration":213980,"Delta":90365173},{"NoteNumber":55,"Velocity":38,"Duration":213979,"SoundDuration":213979,"Delta":90579153},{"NoteNumber":59,"Velocity":39,"Duration":221054,"SoundDuration":221054,"Delta":90793133},{"NoteNumber":65,"Velocity":40,"Duration":219780,"SoundDuration":219780,"Delta":91014187},{"NoteNumber":76,"Velocity":46,"Duration":219780,"SoundDuration":219780,"Delta":91233968},{"NoteNumber":74,"Velocity":43,"Duration":219780,"SoundDuration":219780,"Delta":91453748},{"NoteNumber":72,"Velocity":50,"Duration":649853,"SoundDuration":649853,"Delta":91673528},{"NoteNumber":45,"Velocity":44,"Duration":213980,"SoundDuration":213980,"Delta":91673528},{"NoteNumber":52,"Velocity":38,"Duration":213979,"SoundDuration":213979,"Delta":91887508},{"NoteNumber":57,"Velocity":39,"Duration":221893,"SoundDuration":221893,"Delta":92101488},{"NoteNumber":64,"Velocity":40,"Duration":225835,"SoundDuration":225835,"Delta":92323382},{"NoteNumber":74,"Velocity":46,"Duration":217139,"SoundDuration":217139,"Delta":92549217},{"NoteNumber":72,"Velocity":43,"Duration":218690,"SoundDuration":218690,"Delta":92766357},{"NoteNumber":71,"Velocity":50,"Duration":433713,"SoundDuration":433713,"Delta":92985047},{"NoteNumber":40,"Velocity":44,"Duration":216857,"SoundDuration":216857,"Delta":92985047},{"NoteNumber":52,"Velocity":38,"Duration":216856,"SoundDuration":216856,"Delta":93201904},{"NoteNumber":64,"Velocity":39,"Duration":170557,"SoundDuration":170557,"Delta":93418761},{"NoteNumber":64,"Velocity":39,"Duration":214071,"SoundDuration":214071,"Delta":93646172},{"NoteNumber":76,"Velocity":45,"Duration":168161,"SoundDuration":168161,"Delta":93860244},{"NoteNumber":64,"Velocity":39,"Duration":214071,"SoundDuration":214071,"Delta":94084459},{"NoteNumber":76,"Velocity":44,"Duration":169376,"SoundDuration":169376,"Delta":94298531},{"NoteNumber":76,"Velocity":43,"Duration":230308,"SoundDuration":230308,"Delta":94524366},{"NoteNumber":88,"Velocity":48,"Duration":168893,"SoundDuration":168893,"Delta":94754675},{"NoteNumber":75,"Velocity":42,"Duration":214648,"SoundDuration":214648,"Delta":94979866},{"NoteNumber":76,"Velocity":50,"Duration":158339,"SoundDuration":158339,"Delta":95194515},{"NoteNumber":75,"Velocity":42,"Duration":211607,"SoundDuration":211607,"Delta":95405634},{"NoteNumber":76,"Velocity":48,"Duration":161707,"SoundDuration":161707,"Delta":95617241},{"NoteNumber":75,"Velocity":39,"Duration":217398,"SoundDuration":217398,"Delta":95832852},{"NoteNumber":76,"Velocity":41,"Duration":164151,"SoundDuration":164151,"Delta":96050250},{"NoteNumber":75,"Velocity":35,"Duration":221095,"SoundDuration":221095,"Delta":96269476},{"NoteNumber":76,"Velocity":37,"Duration":222973,"SoundDuration":222973,"Delta":96490571},{"NoteNumber":75,"Velocity":34,"Duration":224911,"SoundDuration":224911,"Delta":96713544},{"NoteNumber":76,"Velocity":40,"Duration":220052,"SoundDuration":220052,"Delta":96938456},{"NoteNumber":75,"Velocity":36,"Duration":225414,"SoundDuration":225414,"Delta":97158509},{"NoteNumber":76,"Velocity":43,"Duration":233391,"SoundDuration":233391,"Delta":97383923},{"NoteNumber":71,"Velocity":38,"Duration":225191,"SoundDuration":225191,"Delta":97617315},{"NoteNumber":74,"Velocity":44,"Duration":218690,"SoundDuration":218690,"Delta":97842506},{"NoteNumber":72,"Velocity":38,"Duration":239043,"SoundDuration":239043,"Delta":98061197},{"NoteNumber":69,"Velocity":47,"Duration":433651,"SoundDuration":433651,"Delta":98300241},{"NoteNumber":45,"Velocity":35,"Duration":216825,"SoundDuration":216825,"Delta":98300241},{"NoteNumber":52,"Velocity":33,"Duration":216825,"SoundDuration":216825,"Delta":98517066},{"NoteNumber":57,"Velocity":33,"Duration":216825,"SoundDuration":216825,"Delta":98733892},{"NoteNumber":60,"Velocity":34,"Duration":209321,"SoundDuration":209321,"Delta":98950718},{"NoteNumber":64,"Velocity":38,"Duration":209321,"SoundDuration":209321,"Delta":99160040},{"NoteNumber":69,"Velocity":42,"Duration":231731,"SoundDuration":231731,"Delta":99369361},{"NoteNumber":71,"Velocity":46,"Duration":433651,"SoundDuration":433651,"Delta":99601093},{"NoteNumber":40,"Velocity":37,"Duration":216825,"SoundDuration":216825,"Delta":99601093},{"NoteNumber":52,"Velocity":33,"Duration":216825,"SoundDuration":216825,"Delta":99817919},{"NoteNumber":56,"Velocity":34,"Duration":210822,"SoundDuration":210822,"Delta":100034745},{"NoteNumber":64,"Velocity":36,"Duration":210822,"SoundDuration":210822,"Delta":100245567},{"NoteNumber":68,"Velocity":39,"Duration":210822,"SoundDuration":210822,"Delta":100456389},{"NoteNumber":71,"Velocity":42,"Duration":239043,"SoundDuration":239043,"Delta":100667211},{"NoteNumber":72,"Velocity":45,"Duration":433651,"SoundDuration":433651,"Delta":100906255},{"NoteNumber":45,"Velocity":38,"Duration":216825,"SoundDuration":216825,"Delta":100906255},{"NoteNumber":52,"Velocity":33,"Duration":216825,"SoundDuration":216825,"Delta":101123081},{"NoteNumber":57,"Velocity":33,"Duration":216825,"SoundDuration":216825,"Delta":101339907},{"NoteNumber":64,"Velocity":35,"Duration":216825,"SoundDuration":216825,"Delta":101556732},{"NoteNumber":76,"Velocity":38,"Duration":216425,"SoundDuration":216425,"Delta":101773558},{"NoteNumber":75,"Velocity":34,"Duration":213377,"SoundDuration":213377,"Delta":101989984},{"NoteNumber":76,"Velocity":41,"Duration":209938,"SoundDuration":209938,"Delta":102203362},{"NoteNumber":75,"Velocity":37,"Duration":209405,"SoundDuration":209405,"Delta":102413300},{"NoteNumber":76,"Velocity":41,"Duration":211215,"SoundDuration":211215,"Delta":102622706},{"NoteNumber":71,"Velocity":34,"Duration":220296,"SoundDuration":220296,"Delta":102833922},{"NoteNumber":74,"Velocity":45,"Duration":220296,"SoundDuration":220296,"Delta":103054219},{"NoteNumber":72,"Velocity":36,"Duration":225191,"SoundDuration":225191,"Delta":103274516},{"NoteNumber":69,"Velocity":46,"Duration":433651,"SoundDuration":433651,"Delta":103499707},{"NoteNumber":45,"Velocity":36,"Duration":216825,"SoundDuration":216825,"Delta":103499707},{"NoteNumber":52,"Velocity":35,"Duration":216825,"SoundDuration":216825,"Delta":103716533},{"NoteNumber":57,"Velocity":34,"Duration":216825,"SoundDuration":216825,"Delta":103933359},{"NoteNumber":60,"Velocity":34,"Duration":210822,"SoundDuration":210822,"Delta":104150184},{"NoteNumber":64,"Velocity":37,"Duration":210822,"SoundDuration":210822,"Delta":104361007},{"NoteNumber":69,"Velocity":41,"Duration":231731,"SoundDuration":231731,"Delta":104571829},{"NoteNumber":71,"Velocity":45,"Duration":433651,"SoundDuration":433651,"Delta":104803561},{"NoteNumber":40,"Velocity":38,"Duration":216825,"SoundDuration":216825,"Delta":104803561},{"NoteNumber":52,"Velocity":37,"Duration":216825,"SoundDuration":216825,"Delta":105020386},{"NoteNumber":56,"Velocity":37,"Duration":218690,"SoundDuration":218690,"Delta":105237212},{"NoteNumber":64,"Velocity":37,"Duration":226860,"SoundDuration":226860,"Delta":105455903},{"NoteNumber":72,"Velocity":40,"Duration":223513,"SoundDuration":223513,"Delta":105682763},{"NoteNumber":71,"Velocity":38,"Duration":225191,"SoundDuration":225191,"Delta":105906277},{"NoteNumber":69,"Velocity":40,"Duration":448681,"SoundDuration":448681,"Delta":106131468},{"NoteNumber":45,"Velocity":38,"Duration":172493,"SoundDuration":172493,"Delta":106131468},{"NoteNumber":45,"Velocity":35,"Duration":164018,"SoundDuration":164018,"Delta":106361459},{"NoteNumber":45,"Velocity":38,"Duration":164018,"SoundDuration":164018,"Delta":106580150},{"NoteNumber":45,"Velocity":34,"Duration":164018,"SoundDuration":164018,"Delta":106798841},{"NoteNumber":45,"Velocity":38,"Duration":164018,"SoundDuration":164018,"Delta":107017531},{"NoteNumber":45,"Velocity":35,"Duration":164018,"SoundDuration":164018,"Delta":107236222},{"NoteNumber":64,"Velocity":45,"Duration":1308592,"SoundDuration":1308592,"Delta":107455020},{"NoteNumber":67,"Velocity":45,"Duration":1308592,"SoundDuration":1308592,"Delta":107455020},{"NoteNumber":70,"Velocity":45,"Duration":1308592,"SoundDuration":1308592,"Delta":107455020},{"NoteNumber":73,"Velocity":53,"Duration":1308592,"SoundDuration":1308592,"Delta":107455020},{"NoteNumber":45,"Velocity":44,"Duration":163173,"SoundDuration":163173,"Delta":107455020},{"NoteNumber":45,"Velocity":38,"Duration":161295,"SoundDuration":161295,"Delta":107673029},{"NoteNumber":45,"Velocity":45,"Duration":161039,"SoundDuration":161039,"Delta":107888586},{"NoteNumber":45,"Velocity":39,"Duration":163271,"SoundDuration":163271,"Delta":108103681},{"NoteNumber":45,"Velocity":46,"Duration":160600,"SoundDuration":160600,"Delta":108320001},{"NoteNumber":45,"Velocity":40,"Duration":167824,"SoundDuration":167824,"Delta":108534504},{"NoteNumber":65,"Velocity":49,"Duration":845616,"SoundDuration":845616,"Delta":108763613},{"NoteNumber":69,"Velocity":49,"Duration":845616,"SoundDuration":845616,"Delta":108763613},{"NoteNumber":74,"Velocity":59,"Duration":845616,"SoundDuration":845616,"Delta":108763613},{"NoteNumber":45,"Velocity":47,"Duration":158848,"SoundDuration":158848,"Delta":108763613},{"NoteNumber":45,"Velocity":42,"Duration":156468,"SoundDuration":156468,"Delta":108976593},{"NoteNumber":45,"Velocity":48,"Duration":156841,"SoundDuration":156841,"Delta":109185075},{"NoteNumber":45,"Velocity":43,"Duration":160267,"SoundDuration":160267,"Delta":109395444},{"NoteNumber":73,"Velocity":54,"Duration":165222,"SoundDuration":165222,"Delta":109609230},{"NoteNumber":76,"Velocity":64,"Duration":165222,"SoundDuration":165222,"Delta":109609230},{"NoteNumber":45,"Velocity":50,"Duration":165222,"SoundDuration":165222,"Delta":109609230},{"NoteNumber":74,"Velocity":59,"Duration":174040,"SoundDuration":174040,"Delta":109829526},{"NoteNumber":77,"Velocity":70,"Duration":174040,"SoundDuration":174040,"Delta":109829526},{"NoteNumber":45,"Velocity":47,"Duration":174040,"SoundDuration":174040,"Delta":109829526},{"NoteNumber":68,"Velocity":65,"Duration":857785,"SoundDuration":857785,"Delta":110061581},{"NoteNumber":74,"Velocity":65,"Duration":857785,"SoundDuration":857785,"Delta":110061581},{"NoteNumber":77,"Velocity":77,"Duration":857785,"SoundDuration":857785,"Delta":110061581},{"NoteNumber":45,"Velocity":53,"Duration":158251,"SoundDuration":158251,"Delta":110061581},{"NoteNumber":45,"Velocity":48,"Duration":161112,"SoundDuration":161112,"Delta":110273411},{"NoteNumber":45,"Velocity":53,"Duration":158794,"SoundDuration":158794,"Delta":110488426},{"NoteNumber":45,"Velocity":50,"Duration":163111,"SoundDuration":163111,"Delta":110699707},{"NoteNumber":68,"Velocity":63,"Duration":458494,"SoundDuration":458494,"Delta":110919366},{"NoteNumber":74,"Velocity":63,"Duration":458494,"SoundDuration":458494,"Delta":110919366},{"NoteNumber":77,"Velocity":75,"Duration":458494,"SoundDuration":458494,"Delta":110919366},{"NoteNumber":45,"Velocity":54,"Duration":160327,"SoundDuration":160327,"Delta":110919366},{"NoteNumber":45,"Velocity":50,"Duration":176273,"SoundDuration":176273,"Delta":111133119},{"NoteNumber":69,"Velocity":60,"Duration":1293560,"SoundDuration":1293560,"Delta":111377860},{"NoteNumber":72,"Velocity":60,"Duration":1293560,"SoundDuration":1293560,"Delta":111377860},{"NoteNumber":76,"Velocity":72,"Duration":1293560,"SoundDuration":1293560,"Delta":111377860},{"NoteNumber":45,"Velocity":55,"Duration":159072,"SoundDuration":159072,"Delta":111377860},{"NoteNumber":45,"Velocity":49,"Duration":159145,"SoundDuration":159145,"Delta":111589712},{"NoteNumber":45,"Velocity":55,"Duration":160081,"SoundDuration":160081,"Delta":111801392},{"NoteNumber":45,"Velocity":51,"Duration":157917,"SoundDuration":157917,"Delta":112015001},{"NoteNumber":45,"Velocity":55,"Duration":158862,"SoundDuration":158862,"Delta":112224973},{"NoteNumber":45,"Velocity":52,"Duration":173748,"SoundDuration":173748,"Delta":112437353},{"NoteNumber":65,"Velocity":69,"Duration":855137,"SoundDuration":855137,"Delta":112671420},{"NoteNumber":74,"Velocity":82,"Duration":855137,"SoundDuration":855137,"Delta":112671420},{"NoteNumber":38,"Velocity":50,"Duration":168482,"SoundDuration":168482,"Delta":112671420},{"NoteNumber":45,"Velocity":60,"Duration":168482,"SoundDuration":168482,"Delta":112671420},{"NoteNumber":38,"Velocity":46,"Duration":158527,"SoundDuration":158527,"Delta":112894188},{"NoteNumber":45,"Velocity":55,"Duration":158527,"SoundDuration":158527,"Delta":112894188},{"NoteNumber":38,"Velocity":49,"Duration":158761,"SoundDuration":158761,"Delta":113105715},{"NoteNumber":45,"Velocity":58,"Duration":158761,"SoundDuration":158761,"Delta":113105715},{"NoteNumber":38,"Velocity":46,"Duration":156762,"SoundDuration":156762,"Delta":113316650},{"NoteNumber":45,"Velocity":55,"Duration":156762,"SoundDuration":156762,"Delta":113316650},{"NoteNumber":64,"Velocity":61,"Duration":163430,"SoundDuration":163430,"Delta":113526558},{"NoteNumber":72,"Velocity":73,"Duration":163430,"SoundDuration":163430,"Delta":113526558},{"NoteNumber":38,"Velocity":48,"Duration":163430,"SoundDuration":163430,"Delta":113526558},{"NoteNumber":45,"Velocity":57,"Duration":163430,"SoundDuration":163430,"Delta":113526558},{"NoteNumber":62,"Velocity":61,"Duration":159438,"SoundDuration":159438,"Delta":113747128},{"NoteNumber":71,"Velocity":73,"Duration":159438,"SoundDuration":159438,"Delta":113747128},{"NoteNumber":38,"Velocity":44,"Duration":159438,"SoundDuration":159438,"Delta":113747128},{"NoteNumber":45,"Velocity":52,"Duration":159438,"SoundDuration":159438,"Delta":113747128},{"NoteNumber":60,"Velocity":67,"Duration":854800,"SoundDuration":854800,"Delta":113959713},{"NoteNumber":66,"Velocity":67,"Duration":854800,"SoundDuration":854800,"Delta":113959713},{"NoteNumber":69,"Velocity":79,"Duration":854800,"SoundDuration":854800,"Delta":113959713},{"NoteNumber":39,"Velocity":46,"Duration":159438,"SoundDuration":159438,"Delta":113959713},{"NoteNumber":45,"Velocity":55,"Duration":159438,"SoundDuration":159438,"Delta":113959713},{"NoteNumber":39,"Velocity":42,"Duration":160553,"SoundDuration":160553,"Delta":114172298},{"NoteNumber":45,"Velocity":50,"Duration":160553,"SoundDuration":160553,"Delta":114172298},{"NoteNumber":39,"Velocity":45,"Duration":160553,"SoundDuration":160553,"Delta":114386369},{"NoteNumber":45,"Velocity":53,"Duration":160553,"SoundDuration":160553,"Delta":114386369},{"NoteNumber":39,"Velocity":41,"Duration":160553,"SoundDuration":160553,"Delta":114600441},{"NoteNumber":45,"Velocity":49,"Duration":160553,"SoundDuration":160553,"Delta":114600441},{"NoteNumber":60,"Velocity":66,"Duration":440593,"SoundDuration":440593,"Delta":114814513},{"NoteNumber":69,"Velocity":78,"Duration":440593,"SoundDuration":440593,"Delta":114814513},{"NoteNumber":39,"Velocity":42,"Duration":165222,"SoundDuration":165222,"Delta":114814513},{"NoteNumber":45,"Velocity":51,"Duration":165222,"SoundDuration":165222,"Delta":114814513},{"NoteNumber":39,"Velocity":42,"Duration":165222,"SoundDuration":165222,"Delta":115034810},{"NoteNumber":45,"Velocity":50,"Duration":165222,"SoundDuration":165222,"Delta":115034810},{"NoteNumber":60,"Velocity":68,"Duration":428143,"SoundDuration":428143,"Delta":115255106},{"NoteNumber":69,"Velocity":80,"Duration":428143,"SoundDuration":428143,"Delta":115255106},{"NoteNumber":40,"Velocity":47,"Duration":160553,"SoundDuration":160553,"Delta":115255106},{"NoteNumber":45,"Velocity":56,"Duration":160553,"SoundDuration":160553,"Delta":115255106},{"NoteNumber":40,"Velocity":41,"Duration":160553,"SoundDuration":160553,"Delta":115469178},{"NoteNumber":45,"Velocity":49,"Duration":160553,"SoundDuration":160553,"Delta":115469178},{"NoteNumber":64,"Velocity":66,"Duration":450383,"SoundDuration":450383,"Delta":115683250},{"NoteNumber":72,"Velocity":78,"Duration":450383,"SoundDuration":450383,"Delta":115683250},{"NoteNumber":40,"Velocity":44,"Duration":168893,"SoundDuration":168893,"Delta":115683250},{"NoteNumber":45,"Velocity":52,"Duration":168893,"SoundDuration":168893,"Delta":115683250},{"NoteNumber":40,"Velocity":41,"Duration":168893,"SoundDuration":168893,"Delta":115908441},{"NoteNumber":45,"Velocity":49,"Duration":168893,"SoundDuration":168893,"Delta":115908441},{"NoteNumber":62,"Velocity":61,"Duration":461366,"SoundDuration":461366,"Delta":116133633},{"NoteNumber":71,"Velocity":73,"Duration":461366,"SoundDuration":461366,"Delta":116133633},{"NoteNumber":44,"Velocity":50,"Duration":168893,"SoundDuration":168893,"Delta":116133633},{"NoteNumber":40,"Velocity":42,"Duration":168893,"SoundDuration":168893,"Delta":116133633},{"NoteNumber":44,"Velocity":50,"Duration":174385,"SoundDuration":174385,"Delta":116358824},{"NoteNumber":40,"Velocity":42,"Duration":174385,"SoundDuration":174385,"Delta":116358824},{"NoteNumber":60,"Velocity":56,"Duration":1312144,"SoundDuration":1312144,"Delta":116594999},{"NoteNumber":69,"Velocity":67,"Duration":1312144,"SoundDuration":1312144,"Delta":116594999},{"NoteNumber":33,"Velocity":42,"Duration":164018,"SoundDuration":164018,"Delta":116594999},{"NoteNumber":45,"Velocity":50,"Duration":164018,"SoundDuration":164018,"Delta":116594999},{"NoteNumber":45,"Velocity":42,"Duration":164018,"SoundDuration":164018,"Delta":116813690},{"NoteNumber":45,"Velocity":45,"Duration":164018,"SoundDuration":164018,"Delta":117032381},{"NoteNumber":45,"Velocity":42,"Duration":164018,"SoundDuration":164018,"Delta":117251071},{"NoteNumber":45,"Velocity":44,"Duration":164018,"SoundDuration":164018,"Delta":117469762},{"NoteNumber":45,"Velocity":42,"Duration":164018,"SoundDuration":164018,"Delta":117688453},{"NoteNumber":64,"Velocity":45,"Duration":1309552,"SoundDuration":1309552,"Delta":117907144},{"NoteNumber":67,"Velocity":45,"Duration":1309552,"SoundDuration":1309552,"Delta":117907144},{"NoteNumber":70,"Velocity":45,"Duration":1309552,"SoundDuration":1309552,"Delta":117907144},{"NoteNumber":73,"Velocity":53,"Duration":1309552,"SoundDuration":1309552,"Delta":117907144},{"NoteNumber":45,"Velocity":44,"Duration":162392,"SoundDuration":162392,"Delta":117907144},{"NoteNumber":45,"Velocity":38,"Duration":166022,"SoundDuration":166022,"Delta":118125010},{"NoteNumber":45,"Velocity":45,"Duration":163110,"SoundDuration":163110,"Delta":118344806},{"NoteNumber":45,"Velocity":39,"Duration":159272,"SoundDuration":159272,"Delta":118561089},{"NoteNumber":45,"Velocity":46,"Duration":160051,"SoundDuration":160051,"Delta":118773632},{"NoteNumber":45,"Velocity":40,"Duration":167824,"SoundDuration":167824,"Delta":118987587},{"NoteNumber":65,"Velocity":49,"Duration":851918,"SoundDuration":851918,"Delta":119216696},{"NoteNumber":69,"Velocity":49,"Duration":851918,"SoundDuration":851918,"Delta":119216696},{"NoteNumber":74,"Velocity":59,"Duration":851918,"SoundDuration":851918,"Delta":119216696},{"NoteNumber":45,"Velocity":47,"Duration":159765,"SoundDuration":159765,"Delta":119216696},{"NoteNumber":45,"Velocity":42,"Duration":159212,"SoundDuration":159212,"Delta":119431562},{"NoteNumber":45,"Velocity":48,"Duration":157380,"SoundDuration":157380,"Delta":119643921},{"NoteNumber":45,"Velocity":43,"Duration":160267,"SoundDuration":160267,"Delta":119854829},{"NoteNumber":73,"Velocity":54,"Duration":165222,"SoundDuration":165222,"Delta":120068614},{"NoteNumber":76,"Velocity":64,"Duration":165222,"SoundDuration":165222,"Delta":120068614},{"NoteNumber":45,"Velocity":50,"Duration":165222,"SoundDuration":165222,"Delta":120068614},{"NoteNumber":74,"Velocity":59,"Duration":174040,"SoundDuration":174040,"Delta":120288911},{"NoteNumber":77,"Velocity":70,"Duration":174040,"SoundDuration":174040,"Delta":120288911},{"NoteNumber":45,"Velocity":47,"Duration":174040,"SoundDuration":174040,"Delta":120288911},{"NoteNumber":74,"Velocity":65,"Duration":839565,"SoundDuration":839565,"Delta":120520966},{"NoteNumber":77,"Velocity":77,"Duration":839565,"SoundDuration":839565,"Delta":120520966},{"NoteNumber":45,"Velocity":53,"Duration":158251,"SoundDuration":158251,"Delta":120520966},{"NoteNumber":45,"Velocity":48,"Duration":159669,"SoundDuration":159669,"Delta":120732796},{"NoteNumber":45,"Velocity":53,"Duration":156111,"SoundDuration":156111,"Delta":120945859},{"NoteNumber":45,"Velocity":50,"Duration":156129,"SoundDuration":156129,"Delta":121152770},{"NoteNumber":74,"Velocity":63,"Duration":467555,"SoundDuration":467555,"Delta":121360531},{"NoteNumber":77,"Velocity":75,"Duration":467555,"SoundDuration":467555,"Delta":121360531},{"NoteNumber":45,"Velocity":54,"Duration":160327,"SoundDuration":160327,"Delta":121360531},{"NoteNumber":45,"Velocity":50,"Duration":182779,"SoundDuration":182779,"Delta":121574284},{"NoteNumber":74,"Velocity":60,"Duration":1293560,"SoundDuration":1293560,"Delta":121828086},{"NoteNumber":77,"Velocity":72,"Duration":1293560,"SoundDuration":1293560,"Delta":121828086},{"NoteNumber":46,"Velocity":55,"Duration":159072,"SoundDuration":159072,"Delta":121828086},{"NoteNumber":46,"Velocity":49,"Duration":159145,"SoundDuration":159145,"Delta":122039938},{"NoteNumber":46,"Velocity":55,"Duration":160081,"SoundDuration":160081,"Delta":122251618},{"NoteNumber":46,"Velocity":51,"Duration":157917,"SoundDuration":157917,"Delta":122465228},{"NoteNumber":46,"Velocity":55,"Duration":158862,"SoundDuration":158862,"Delta":122675199},{"NoteNumber":46,"Velocity":52,"Duration":173748,"SoundDuration":173748,"Delta":122887579},{"NoteNumber":67,"Velocity":69,"Duration":844651,"SoundDuration":844651,"Delta":123121647},{"NoteNumber":75,"Velocity":82,"Duration":844651,"SoundDuration":844651,"Delta":123121647},{"NoteNumber":46,"Velocity":60,"Duration":157996,"SoundDuration":157996,"Delta":123121647},{"NoteNumber":46,"Velocity":55,"Duration":158527,"SoundDuration":158527,"Delta":123333928},{"NoteNumber":46,"Velocity":58,"Duration":158761,"SoundDuration":158761,"Delta":123545456},{"NoteNumber":46,"Velocity":55,"Duration":156762,"SoundDuration":156762,"Delta":123756390},{"NoteNumber":65,"Velocity":61,"Duration":159438,"SoundDuration":159438,"Delta":123966298},{"NoteNumber":74,"Velocity":73,"Duration":159438,"SoundDuration":159438,"Delta":123966298},{"NoteNumber":46,"Velocity":57,"Duration":159438,"SoundDuration":159438,"Delta":123966298},{"NoteNumber":63,"Velocity":61,"Duration":159438,"SoundDuration":159438,"Delta":124178883},{"NoteNumber":72,"Velocity":73,"Duration":159438,"SoundDuration":159438,"Delta":124178883},{"NoteNumber":46,"Velocity":52,"Duration":159438,"SoundDuration":159438,"Delta":124178883},{"NoteNumber":62,"Velocity":67,"Duration":854800,"SoundDuration":854800,"Delta":124391468},{"NoteNumber":65,"Velocity":67,"Duration":854800,"SoundDuration":854800,"Delta":124391468},{"NoteNumber":70,"Velocity":79,"Duration":854800,"SoundDuration":854800,"Delta":124391468},{"NoteNumber":46,"Velocity":55,"Duration":159438,"SoundDuration":159438,"Delta":124391468},{"NoteNumber":46,"Velocity":50,"Duration":160553,"SoundDuration":160553,"Delta":124604053},{"NoteNumber":46,"Velocity":53,"Duration":160553,"SoundDuration":160553,"Delta":124818125},{"NoteNumber":46,"Velocity":49,"Duration":160553,"SoundDuration":160553,"Delta":125032197},{"NoteNumber":65,"Velocity":66,"Duration":453720,"SoundDuration":453720,"Delta":125246269},{"NoteNumber":62,"Velocity":66,"Duration":453720,"SoundDuration":453720,"Delta":125246269},{"NoteNumber":69,"Velocity":78,"Duration":453720,"SoundDuration":453720,"Delta":125246269},{"NoteNumber":46,"Velocity":51,"Duration":170145,"SoundDuration":170145,"Delta":125246269},{"NoteNumber":46,"Velocity":50,"Duration":170145,"SoundDuration":170145,"Delta":125473129},{"NoteNumber":65,"Velocity":68,"Duration":884662,"SoundDuration":884662,"Delta":125699989},{"NoteNumber":62,"Velocity":68,"Duration":884662,"SoundDuration":884662,"Delta":125699989},{"NoteNumber":68,"Velocity":80,"Duration":884662,"SoundDuration":884662,"Delta":125699989},{"NoteNumber":47,"Velocity":56,"Duration":162854,"SoundDuration":162854,"Delta":125699989},{"NoteNumber":47,"Velocity":49,"Duration":162854,"SoundDuration":162854,"Delta":125917129},{"NoteNumber":47,"Velocity":52,"Duration":168893,"SoundDuration":168893,"Delta":126134268},{"NoteNumber":47,"Velocity":49,"Duration":168893,"SoundDuration":168893,"Delta":126359460},{"NoteNumber":65,"Velocity":61,"Duration":466409,"SoundDuration":466409,"Delta":126584651},{"NoteNumber":62,"Velocity":61,"Duration":466409,"SoundDuration":466409,"Delta":126584651},{"NoteNumber":68,"Velocity":73,"Duration":466409,"SoundDuration":466409,"Delta":126584651},{"NoteNumber":47,"Velocity":50,"Duration":171415,"SoundDuration":171415,"Delta":126584651},{"NoteNumber":47,"Velocity":50,"Duration":176066,"SoundDuration":176066,"Delta":126813205},{"NoteNumber":64,"Velocity":61,"Duration":900765,"SoundDuration":900765,"Delta":127051061},{"NoteNumber":60,"Velocity":61,"Duration":900765,"SoundDuration":900765,"Delta":127051061},{"NoteNumber":69,"Velocity":73,"Duration":900765,"SoundDuration":900765,"Delta":127051061},{"NoteNumber":48,"Velocity":55,"Duration":900765,"SoundDuration":900765,"Delta":127051061},{"NoteNumber":64,"Velocity":49,"Duration":450382,"SoundDuration":450382,"Delta":128402210},{"NoteNumber":71,"Velocity":58,"Duration":450382,"SoundDuration":450382,"Delta":128402210},{"NoteNumber":52,"Velocity":39,"Duration":450382,"SoundDuration":450382,"Delta":128402210},{"NoteNumber":56,"Velocity":44,"Duration":450382,"SoundDuration":450382,"Delta":128402210},{"NoteNumber":57,"Velocity":42,"Duration":149009,"SoundDuration":149009,"Delta":129753359},{"NoteNumber":33,"Velocity":35,"Duration":443001,"SoundDuration":443001,"Delta":129753359},{"NoteNumber":60,"Velocity":44,"Duration":147662,"SoundDuration":147662,"Delta":129902368},{"NoteNumber":64,"Velocity":45,"Duration":146329,"SoundDuration":146329,"Delta":130050031},{"NoteNumber":69,"Velocity":47,"Duration":145018,"SoundDuration":145018,"Delta":130196360},{"NoteNumber":72,"Velocity":43,"Duration":144759,"SoundDuration":144759,"Delta":130341378},{"NoteNumber":76,"Velocity":43,"Duration":144759,"SoundDuration":144759,"Delta":130486138},{"NoteNumber":74,"Velocity":47,"Duration":145018,"SoundDuration":145018,"Delta":130630898},{"NoteNumber":64,"Velocity":32,"Duration":439559,"SoundDuration":439559,"Delta":130630898},{"NoteNumber":60,"Velocity":27,"Duration":439559,"SoundDuration":439559,"Delta":130630898},{"NoteNumber":57,"Velocity":27,"Duration":439559,"SoundDuration":439559,"Delta":130630898},{"NoteNumber":72,"Velocity":43,"Duration":146329,"SoundDuration":146329,"Delta":130775916},{"NoteNumber":71,"Velocity":43,"Duration":148212,"SoundDuration":148212,"Delta":130922245},{"NoteNumber":69,"Velocity":45,"Duration":149018,"SoundDuration":149018,"Delta":131070458},{"NoteNumber":64,"Velocity":33,"Duration":439607,"SoundDuration":439607,"Delta":131070458},{"NoteNumber":60,"Velocity":28,"Duration":439607,"SoundDuration":439607,"Delta":131070458},{"NoteNumber":57,"Velocity":28,"Duration":439607,"SoundDuration":439607,"Delta":131070458},{"NoteNumber":72,"Velocity":47,"Duration":146595,"SoundDuration":146595,"Delta":131219476},{"NoteNumber":76,"Velocity":48,"Duration":143993,"SoundDuration":143993,"Delta":131366072},{"NoteNumber":81,"Velocity":50,"Duration":142714,"SoundDuration":142714,"Delta":131510065},{"NoteNumber":84,"Velocity":47,"Duration":142714,"SoundDuration":142714,"Delta":131652780},{"NoteNumber":88,"Velocity":47,"Duration":142714,"SoundDuration":142714,"Delta":131795494},{"NoteNumber":86,"Velocity":52,"Duration":142970,"SoundDuration":142970,"Delta":131938209},{"NoteNumber":64,"Velocity":32,"Duration":432756,"SoundDuration":432756,"Delta":131938209},{"NoteNumber":60,"Velocity":27,"Duration":432756,"SoundDuration":432756,"Delta":131938209},{"NoteNumber":57,"Velocity":27,"Duration":432756,"SoundDuration":432756,"Delta":131938209},{"NoteNumber":84,"Velocity":47,"Duration":144249,"SoundDuration":144249,"Delta":132081180},{"NoteNumber":83,"Velocity":47,"Duration":145535,"SoundDuration":145535,"Delta":132225430},{"NoteNumber":81,"Velocity":49,"Duration":145276,"SoundDuration":145276,"Delta":132370965},{"NoteNumber":64,"Velocity":34,"Duration":431234,"SoundDuration":431234,"Delta":132370965},{"NoteNumber":60,"Velocity":28,"Duration":431234,"SoundDuration":431234,"Delta":132370965},{"NoteNumber":57,"Velocity":28,"Duration":431234,"SoundDuration":431234,"Delta":132370965},{"NoteNumber":84,"Velocity":51,"Duration":143738,"SoundDuration":143738,"Delta":132516242},{"NoteNumber":88,"Velocity":53,"Duration":142218,"SoundDuration":142218,"Delta":132659980},{"NoteNumber":93,"Velocity":53,"Duration":140746,"SoundDuration":140746,"Delta":132802199},{"NoteNumber":96,"Velocity":50,"Duration":140745,"SoundDuration":140745,"Delta":132942945},{"NoteNumber":100,"Velocity":50,"Duration":140746,"SoundDuration":140746,"Delta":133083691},{"NoteNumber":98,"Velocity":54,"Duration":140746,"SoundDuration":140746,"Delta":133224437},{"NoteNumber":64,"Velocity":32,"Duration":422237,"SoundDuration":422237,"Delta":133224437},{"NoteNumber":60,"Velocity":27,"Duration":422237,"SoundDuration":422237,"Delta":133224437},{"NoteNumber":57,"Velocity":27,"Duration":422237,"SoundDuration":422237,"Delta":133224437},{"NoteNumber":96,"Velocity":49,"Duration":140746,"SoundDuration":140746,"Delta":133365183},{"NoteNumber":95,"Velocity":50,"Duration":140745,"SoundDuration":140745,"Delta":133505929},{"NoteNumber":94,"Velocity":54,"Duration":138577,"SoundDuration":138577,"Delta":133646675},{"NoteNumber":64,"Velocity":33,"Duration":414287,"SoundDuration":414287,"Delta":133646675},{"NoteNumber":60,"Velocity":28,"Duration":414287,"SoundDuration":414287,"Delta":133646675},{"NoteNumber":57,"Velocity":28,"Duration":414287,"SoundDuration":414287,"Delta":133646675},{"NoteNumber":93,"Velocity":50,"Duration":137855,"SoundDuration":137855,"Delta":133785253},{"NoteNumber":92,"Velocity":49,"Duration":137855,"SoundDuration":137855,"Delta":133923108},{"NoteNumber":91,"Velocity":51,"Duration":137855,"SoundDuration":137855,"Delta":134060963},{"NoteNumber":90,"Velocity":49,"Duration":137855,"SoundDuration":137855,"Delta":134198818},{"NoteNumber":89,"Velocity":48,"Duration":137855,"SoundDuration":137855,"Delta":134336673},{"NoteNumber":88,"Velocity":51,"Duration":137855,"SoundDuration":137855,"Delta":134474528},{"NoteNumber":87,"Velocity":49,"Duration":137855,"SoundDuration":137855,"Delta":134612383},{"NoteNumber":86,"Velocity":50,"Duration":137855,"SoundDuration":137855,"Delta":134750238},{"NoteNumber":85,"Velocity":50,"Duration":138811,"SoundDuration":138811,"Delta":134888093},{"NoteNumber":84,"Velocity":49,"Duration":138811,"SoundDuration":138811,"Delta":135026905},{"NoteNumber":83,"Velocity":49,"Duration":138811,"SoundDuration":138811,"Delta":135165717},{"NoteNumber":82,"Velocity":48,"Duration":139287,"SoundDuration":139287,"Delta":135304528},{"NoteNumber":81,"Velocity":48,"Duration":141234,"SoundDuration":141234,"Delta":135443816},{"NoteNumber":80,"Velocity":47,"Duration":143995,"SoundDuration":143995,"Delta":135585050},{"NoteNumber":79,"Velocity":47,"Duration":153015,"SoundDuration":153015,"Delta":135729046},{"NoteNumber":78,"Velocity":46,"Duration":166221,"SoundDuration":166221,"Delta":135882061},{"NoteNumber":77,"Velocity":46,"Duration":181716,"SoundDuration":181716,"Delta":136048283},{"NoteNumber":76,"Velocity":39,"Duration":228554,"SoundDuration":228554,"Delta":136229999},{"NoteNumber":75,"Velocity":36,"Duration":228554,"SoundDuration":228554,"Delta":136458553},{"NoteNumber":76,"Velocity":41,"Duration":232321,"SoundDuration":232321,"Delta":136687107},{"NoteNumber":71,"Velocity":35,"Duration":217139,"SoundDuration":217139,"Delta":136919429},{"NoteNumber":74,"Velocity":43,"Duration":228554,"SoundDuration":228554,"Delta":137136568},{"NoteNumber":72,"Velocity":39,"Duration":239043,"SoundDuration":239043,"Delta":137365122},{"NoteNumber":69,"Velocity":46,"Duration":433651,"SoundDuration":433651,"Delta":137604166},{"NoteNumber":45,"Velocity":37,"Duration":216825,"SoundDuration":216825,"Delta":137604166},{"NoteNumber":52,"Velocity":33,"Duration":216825,"SoundDuration":216825,"Delta":137820992},{"NoteNumber":57,"Velocity":33,"Duration":216825,"SoundDuration":216825,"Delta":138037817},{"NoteNumber":60,"Velocity":34,"Duration":209321,"SoundDuration":209321,"Delta":138254643},{"NoteNumber":64,"Velocity":38,"Duration":209321,"SoundDuration":209321,"Delta":138463965},{"NoteNumber":69,"Velocity":42,"Duration":231731,"SoundDuration":231731,"Delta":138673287},{"NoteNumber":71,"Velocity":46,"Duration":433651,"SoundDuration":433651,"Delta":138905018},{"NoteNumber":40,"Velocity":40,"Duration":216825,"SoundDuration":216825,"Delta":138905018},{"NoteNumber":52,"Velocity":33,"Duration":216825,"SoundDuration":216825,"Delta":139121844},{"NoteNumber":56,"Velocity":34,"Duration":210822,"SoundDuration":210822,"Delta":139338670},{"NoteNumber":64,"Velocity":36,"Duration":210822,"SoundDuration":210822,"Delta":139549492},{"NoteNumber":68,"Velocity":39,"Duration":210822,"SoundDuration":210822,"Delta":139760314},{"NoteNumber":71,"Velocity":42,"Duration":239043,"SoundDuration":239043,"Delta":139971137},{"NoteNumber":72,"Velocity":45,"Duration":433651,"SoundDuration":433651,"Delta":140210180},{"NoteNumber":45,"Velocity":38,"Duration":216825,"SoundDuration":216825,"Delta":140210180},{"NoteNumber":52,"Velocity":35,"Duration":216825,"SoundDuration":216825,"Delta":140427006},{"NoteNumber":57,"Velocity":35,"Duration":216825,"SoundDuration":216825,"Delta":140643832},{"NoteNumber":64,"Velocity":35,"Duration":217288,"SoundDuration":217288,"Delta":140860658},{"NoteNumber":76,"Velocity":38,"Duration":219024,"SoundDuration":219024,"Delta":141077946},{"NoteNumber":75,"Velocity":34,"Duration":214544,"SoundDuration":214544,"Delta":141296971},{"NoteNumber":76,"Velocity":41,"Duration":212584,"SoundDuration":212584,"Delta":141511515},{"NoteNumber":75,"Velocity":37,"Duration":212585,"SoundDuration":212585,"Delta":141724100},{"NoteNumber":76,"Velocity":46,"Duration":211851,"SoundDuration":211851,"Delta":141936685},{"NoteNumber":71,"Velocity":39,"Duration":218372,"SoundDuration":218372,"Delta":142148537},{"NoteNumber":74,"Velocity":48,"Duration":218372,"SoundDuration":218372,"Delta":142366909},{"NoteNumber":72,"Velocity":39,"Duration":226860,"SoundDuration":226860,"Delta":142585282},{"NoteNumber":69,"Velocity":48,"Duration":433651,"SoundDuration":433651,"Delta":142812142},{"NoteNumber":45,"Velocity":38,"Duration":216825,"SoundDuration":216825,"Delta":142812142},{"NoteNumber":52,"Velocity":35,"Duration":216825,"SoundDuration":216825,"Delta":143028968},{"NoteNumber":57,"Velocity":34,"Duration":216825,"SoundDuration":216825,"Delta":143245794},{"NoteNumber":60,"Velocity":34,"Duration":210822,"SoundDuration":210822,"Delta":143462619},{"NoteNumber":64,"Velocity":37,"Duration":210822,"SoundDuration":210822,"Delta":143673442},{"NoteNumber":69,"Velocity":41,"Duration":231731,"SoundDuration":231731,"Delta":143884264},{"NoteNumber":71,"Velocity":45,"Duration":433651,"SoundDuration":433651,"Delta":144115996},{"NoteNumber":40,"Velocity":38,"Duration":216825,"SoundDuration":216825,"Delta":144115996},{"NoteNumber":52,"Velocity":37,"Duration":216825,"SoundDuration":216825,"Delta":144332821},{"NoteNumber":56,"Velocity":37,"Duration":214071,"SoundDuration":214071,"Delta":144549647},{"NoteNumber":64,"Velocity":37,"Duration":218690,"SoundDuration":218690,"Delta":144763719},{"NoteNumber":72,"Velocity":40,"Duration":218690,"SoundDuration":218690,"Delta":144982410},{"NoteNumber":71,"Velocity":38,"Duration":232054,"SoundDuration":232054,"Delta":145201100},{"NoteNumber":69,"Velocity":40,"Duration":459177,"SoundDuration":459177,"Delta":145433155},{"NoteNumber":45,"Velocity":38,"Duration":235663,"SoundDuration":235663,"Delta":145433155},{"NoteNumber":52,"Velocity":32,"Duration":223513,"SoundDuration":223513,"Delta":145668819},{"NoteNumber":57,"Velocity":32,"Duration":218690,"SoundDuration":218690,"Delta":145892332},{"NoteNumber":71,"Velocity":38,"Duration":221238,"SoundDuration":221238,"Delta":146111023},{"NoteNumber":72,"Velocity":42,"Duration":221238,"SoundDuration":221238,"Delta":146332262},{"NoteNumber":74,"Velocity":46,"Duration":228658,"SoundDuration":228658,"Delta":146553501},{"NoteNumber":76,"Velocity":50,"Duration":649853,"SoundDuration":649853,"Delta":146782160},{"NoteNumber":48,"Velocity":44,"Duration":213979,"SoundDuration":213979,"Delta":146782160},{"NoteNumber":55,"Velocity":38,"Duration":213980,"SoundDuration":213980,"Delta":146996140},{"NoteNumber":60,"Velocity":39,"Duration":221893,"SoundDuration":221893,"Delta":147210120},{"NoteNumber":67,"Velocity":40,"Duration":216857,"SoundDuration":216857,"Delta":147432013},{"NoteNumber":77,"Velocity":46,"Duration":218308,"SoundDuration":218308,"Delta":147648870},{"NoteNumber":76,"Velocity":43,"Duration":218308,"SoundDuration":218308,"Delta":147867179},{"NoteNumber":74,"Velocity":50,"Duration":649014,"SoundDuration":649014,"Delta":148085488},{"NoteNumber":43,"Velocity":44,"Duration":213979,"SoundDuration":213979,"Delta":148085488},{"NoteNumber":55,"Velocity":38,"Duration":213980,"SoundDuration":213980,"Delta":148299468},{"NoteNumber":59,"Velocity":39,"Duration":221054,"SoundDuration":221054,"Delta":148513448},{"NoteNumber":65,"Velocity":40,"Duration":219780,"SoundDuration":219780,"Delta":148734502},{"NoteNumber":76,"Velocity":46,"Duration":219780,"SoundDuration":219780,"Delta":148954282},{"NoteNumber":74,"Velocity":43,"Duration":219780,"SoundDuration":219780,"Delta":149174062},{"NoteNumber":72,"Velocity":50,"Duration":649853,"SoundDuration":649853,"Delta":149393842},{"NoteNumber":45,"Velocity":44,"Duration":213979,"SoundDuration":213979,"Delta":149393842},{"NoteNumber":52,"Velocity":38,"Duration":213980,"SoundDuration":213980,"Delta":149607822},{"NoteNumber":57,"Velocity":39,"Duration":221893,"SoundDuration":221893,"Delta":149821802},{"NoteNumber":64,"Velocity":40,"Duration":225835,"SoundDuration":225835,"Delta":150043696},{"NoteNumber":74,"Velocity":46,"Duration":217139,"SoundDuration":217139,"Delta":150269531},{"NoteNumber":72,"Velocity":43,"Duration":218690,"SoundDuration":218690,"Delta":150486671},{"NoteNumber":71,"Velocity":50,"Duration":433714,"SoundDuration":433714,"Delta":150705362},{"NoteNumber":40,"Velocity":44,"Duration":216857,"SoundDuration":216857,"Delta":150705362},{"NoteNumber":52,"Velocity":38,"Duration":216857,"SoundDuration":216857,"Delta":150922219},{"NoteNumber":64,"Velocity":39,"Duration":170557,"SoundDuration":170557,"Delta":151139076},{"NoteNumber":64,"Velocity":39,"Duration":214071,"SoundDuration":214071,"Delta":151366486},{"NoteNumber":76,"Velocity":45,"Duration":168161,"SoundDuration":168161,"Delta":151580558},{"NoteNumber":64,"Velocity":39,"Duration":214071,"SoundDuration":214071,"Delta":151804773},{"NoteNumber":76,"Velocity":44,"Duration":169376,"SoundDuration":169376,"Delta":152018845},{"NoteNumber":76,"Velocity":43,"Duration":233826,"SoundDuration":233826,"Delta":152244680},{"NoteNumber":88,"Velocity":48,"Duration":168893,"SoundDuration":168893,"Delta":152478507},{"NoteNumber":75,"Velocity":42,"Duration":214648,"SoundDuration":214648,"Delta":152703699},{"NoteNumber":76,"Velocity":50,"Duration":158339,"SoundDuration":158339,"Delta":152918347},{"NoteNumber":75,"Velocity":42,"Duration":211607,"SoundDuration":211607,"Delta":153129466},{"NoteNumber":76,"Velocity":48,"Duration":161707,"SoundDuration":161707,"Delta":153341074},{"NoteNumber":75,"Velocity":39,"Duration":217398,"SoundDuration":217398,"Delta":153556684},{"NoteNumber":76,"Velocity":41,"Duration":164151,"SoundDuration":164151,"Delta":153774082},{"NoteNumber":75,"Velocity":35,"Duration":221095,"SoundDuration":221095,"Delta":153993308},{"NoteNumber":76,"Velocity":37,"Duration":222973,"SoundDuration":222973,"Delta":154214404},{"NoteNumber":75,"Velocity":34,"Duration":224911,"SoundDuration":224911,"Delta":154437377},{"NoteNumber":76,"Velocity":40,"Duration":220052,"SoundDuration":220052,"Delta":154662289},{"NoteNumber":75,"Velocity":36,"Duration":225414,"SoundDuration":225414,"Delta":154882341},{"NoteNumber":76,"Velocity":42,"Duration":230625,"SoundDuration":230625,"Delta":155107755},{"NoteNumber":71,"Velocity":36,"Duration":220296,"SoundDuration":220296,"Delta":155338381},{"NoteNumber":74,"Velocity":43,"Duration":214071,"SoundDuration":214071,"Delta":155558678},{"NoteNumber":72,"Velocity":35,"Duration":239043,"SoundDuration":239043,"Delta":155772750},{"NoteNumber":69,"Velocity":48,"Duration":433651,"SoundDuration":433651,"Delta":156011793},{"NoteNumber":45,"Velocity":36,"Duration":216825,"SoundDuration":216825,"Delta":156011793},{"NoteNumber":52,"Velocity":33,"Duration":216825,"SoundDuration":216825,"Delta":156228619},{"NoteNumber":57,"Velocity":33,"Duration":216825,"SoundDuration":216825,"Delta":156445445},{"NoteNumber":60,"Velocity":34,"Duration":209321,"SoundDuration":209321,"Delta":156662271},{"NoteNumber":64,"Velocity":38,"Duration":209321,"SoundDuration":209321,"Delta":156871592},{"NoteNumber":69,"Velocity":42,"Duration":231731,"SoundDuration":231731,"Delta":157080914},{"NoteNumber":71,"Velocity":46,"Duration":433651,"SoundDuration":433651,"Delta":157312646},{"NoteNumber":40,"Velocity":40,"Duration":216825,"SoundDuration":216825,"Delta":157312646},{"NoteNumber":52,"Velocity":33,"Duration":216825,"SoundDuration":216825,"Delta":157529472},{"NoteNumber":56,"Velocity":34,"Duration":210822,"SoundDuration":210822,"Delta":157746297},{"NoteNumber":64,"Velocity":36,"Duration":210822,"SoundDuration":210822,"Delta":157957120},{"NoteNumber":68,"Velocity":39,"Duration":210822,"SoundDuration":210822,"Delta":158167942},{"NoteNumber":71,"Velocity":42,"Duration":239043,"SoundDuration":239043,"Delta":158378764},{"NoteNumber":72,"Velocity":45,"Duration":433651,"SoundDuration":433651,"Delta":158617808},{"NoteNumber":45,"Velocity":38,"Duration":216825,"SoundDuration":216825,"Delta":158617808},{"NoteNumber":52,"Velocity":35,"Duration":216825,"SoundDuration":216825,"Delta":158834634},{"NoteNumber":57,"Velocity":35,"Duration":216825,"SoundDuration":216825,"Delta":159051459},{"NoteNumber":64,"Velocity":35,"Duration":216825,"SoundDuration":216825,"Delta":159268285},{"NoteNumber":76,"Velocity":38,"Duration":216425,"SoundDuration":216425,"Delta":159485111},{"NoteNumber":75,"Velocity":34,"Duration":213377,"SoundDuration":213377,"Delta":159701537},{"NoteNumber":76,"Velocity":41,"Duration":209938,"SoundDuration":209938,"Delta":159914915},{"NoteNumber":75,"Velocity":37,"Duration":209643,"SoundDuration":209643,"Delta":160124853},{"NoteNumber":76,"Velocity":46,"Duration":210332,"SoundDuration":210332,"Delta":160334497},{"NoteNumber":71,"Velocity":39,"Duration":212584,"SoundDuration":212584,"Delta":160544829},{"NoteNumber":74,"Velocity":48,"Duration":215610,"SoundDuration":215610,"Delta":160757414},{"NoteNumber":72,"Velocity":39,"Duration":225191,"SoundDuration":225191,"Delta":160973024},{"NoteNumber":69,"Velocity":48,"Duration":433651,"SoundDuration":433651,"Delta":161198216},{"NoteNumber":45,"Velocity":38,"Duration":216825,"SoundDuration":216825,"Delta":161198216},{"NoteNumber":52,"Velocity":35,"Duration":216825,"SoundDuration":216825,"Delta":161415041},{"NoteNumber":57,"Velocity":34,"Duration":216825,"SoundDuration":216825,"Delta":161631867},{"NoteNumber":60,"Velocity":34,"Duration":210822,"SoundDuration":210822,"Delta":161848693},{"NoteNumber":64,"Velocity":37,"Duration":210822,"SoundDuration":210822,"Delta":162059515},{"NoteNumber":69,"Velocity":41,"Duration":231731,"SoundDuration":231731,"Delta":162270337},{"NoteNumber":71,"Velocity":45,"Duration":433651,"SoundDuration":433651,"Delta":162502069},{"NoteNumber":40,"Velocity":38,"Duration":216825,"SoundDuration":216825,"Delta":162502069},{"NoteNumber":52,"Velocity":37,"Duration":216825,"SoundDuration":216825,"Delta":162718895},{"NoteNumber":56,"Velocity":37,"Duration":218690,"SoundDuration":218690,"Delta":162935721},{"NoteNumber":64,"Velocity":37,"Duration":255449,"SoundDuration":255449,"Delta":163154411},{"NoteNumber":72,"Velocity":40,"Duration":276344,"SoundDuration":276344,"Delta":163409861},{"NoteNumber":71,"Velocity":38,"Duration":428204,"SoundDuration":428204,"Delta":163686206},{"NoteNumber":69,"Velocity":36,"Duration":614125,"SoundDuration":614125,"Delta":164114410},{"NoteNumber":33,"Velocity":17,"Duration":614125,"SoundDuration":614125,"Delta":164114410},{"NoteNumber":45,"Velocity":25,"Duration":614125,"SoundDuration":614125,"Delta":164114410}],"license":{"name":"Creative Commons Attribution-ShareAlike 3.0 Germany","url":"http://creativecommons.org/licenses/by-sa/3.0/de/deed.en","text":"The MIDI, audio (MP3, OGG) and video files of Bernd Krueger are licensed under the cc-by-sa Germany License. This means that you can use and adapt the files, as long as you attribute the copyright holder.\n\nName: Bernd Krueger\nSource: http://www.piano-midi.de\n\nThe distribution or public playback of the files is only allowed under identical license conditions.\n\nThe scores are open source.","attribution":"MIDI files by Bernd Krueger (piano-midi.de)"}}