{
  "title": "Grande Sonata Opus 22 3. movement",
  "artist": "Beethoven",
  "durationMs": 182948.38937083338,
  "midiSha256": "f3aae2a9d93f7c5a33e13f09f7e085e33fdb4dd51a1f5d2d7975ea30d8df1f4a",
  "midiObject": [
    {
      "NoteNumber": 62,
      "Velocity": 50,
      "Duration": 381323,
      "SoundDuration": 381323,
      "Delta": 0
    },
    {
      "NoteNumber": 63,
      "Velocity": 46,
      "Duration": 139237,
      "SoundDuration": 139237,
      "Delta": 381323
    },
    {
      "NoteNumber": 65,
      "Velocity": 50,
      "Duration": 981012,
      "SoundDuration": 981012,
      "Delta": 520560
    },
    {
      "NoteNumber": 46,
      "Velocity": 40,
      "Duration": 126582,
      "SoundDuration": 126582,
      "Delta": 520560
    },
    {
      "NoteNumber": 58,
      "Velocity": 29,
      "Duration": 253164,
      "SoundDuration": 253164,
      "Delta": 773724
    },
    {
      "NoteNumber": 62,
      "Velocity": 34,
      "Duration": 253164,
      "SoundDuration": 253164,
      "Delta": 1026889
    },
    {
      "NoteNumber": 58,
      "Velocity": 29,
      "Duration": 253164,
      "SoundDuration": 253164,
      "Delta": 1280053
    },
    {
      "NoteNumber": 69,
      "Velocity": 46,
      "Duration": 31645,
      "SoundDuration": 31645,
      "Delta": 1501572
    },
    {
      "NoteNumber": 67,
      "Velocity": 50,
      "Duration": 123456,
      "SoundDuration": 123456,
      "Delta": 1533218
    },
    {
      "NoteNumber": 63,
      "Velocity": 34,
      "Duration": 246913,
      "SoundDuration": 246913,
      "Delta": 1533218
    },
    {
      "NoteNumber": 65,
      "Velocity": 45,
      "Duration": 123456,
      "SoundDuration": 123456,
      "Delta": 1656675
    },
    {
      "NoteNumber": 67,
      "Velocity": 50,
      "Duration": 129477,
      "SoundDuration": 129477,
      "Delta": 1780131
    },
    {
      "NoteNumber": 60,
      "Velocity": 31,
      "Duration": 258955,
      "SoundDuration": 258955,
      "Delta": 1780131
    },
    {
      "NoteNumber": 69,
      "Velocity": 43,
      "Duration": 129477,
      "SoundDuration": 129477,
      "Delta": 1909609
    },
    {
      "NoteNumber": 70,
      "Velocity": 50,
      "Duration": 492611,
      "SoundDuration": 492611,
      "Delta": 2039087
    },
    {
      "NoteNumber": 62,
      "Velocity": 40,
      "Duration": 246305,
      "SoundDuration": 246305,
      "Delta": 2039087
    },
    {
      "NoteNumber": 61,
      "Velocity": 30,
      "Duration": 246305,
      "SoundDuration": 246305,
      "Delta": 2285392
    },
    {
      "NoteNumber": 65,
      "Velocity": 41,
      "Duration": 431034,
      "SoundDuration": 431034,
      "Delta": 2531698
    },
    {
      "NoteNumber": 62,
      "Velocity": 34,
      "Duration": 246305,
      "SoundDuration": 246305,
      "Delta": 2531698
    },
    {
      "NoteNumber": 58,
      "Velocity": 30,
      "Duration": 246305,
      "SoundDuration": 246305,
      "Delta": 2778003
    },
    {
      "NoteNumber": 69,
      "Velocity": 43,
      "Duration": 30788,
      "SoundDuration": 30788,
      "Delta": 2993521
    },
    {
      "NoteNumber": 67,
      "Velocity": 50,
      "Duration": 123152,
      "SoundDuration": 123152,
      "Delta": 3024309
    },
    {
      "NoteNumber": 63,
      "Velocity": 34,
      "Duration": 246305,
      "SoundDuration": 246305,
      "Delta": 3024309
    },
    {
      "NoteNumber": 65,
      "Velocity": 46,
      "Duration": 123152,
      "SoundDuration": 123152,
      "Delta": 3147462
    },
    {
      "NoteNumber": 67,
      "Velocity": 50,
      "Duration": 128877,
      "SoundDuration": 128877,
      "Delta": 3270614
    },
    {
      "NoteNumber": 60,
      "Velocity": 29,
      "Duration": 257754,
      "SoundDuration": 257754,
      "Delta": 3270614
    },
    {
      "NoteNumber": 69,
      "Velocity": 50,
      "Duration": 128877,
      "SoundDuration": 128877,
      "Delta": 3399491
    },
    {
      "NoteNumber": 70,
      "Velocity": 50,
      "Duration": 61850,
      "SoundDuration": 61850,
      "Delta": 3528368
    },
    {
      "NoteNumber": 62,
      "Velocity": 40,
      "Duration": 247402,
      "SoundDuration": 247402,
      "Delta": 3528368
    },
    {
      "NoteNumber": 61,
      "Velocity": 30,
      "Duration": 247402,
      "SoundDuration": 247402,
      "Delta": 3775771
    },
    {
      "NoteNumber": 69,
      "Velocity": 46,
      "Duration": 61850,
      "SoundDuration": 61850,
      "Delta": 3899472
    },
    {
      "NoteNumber": 70,
      "Velocity": 56,
      "Duration": 61850,
      "SoundDuration": 61850,
      "Delta": 4023173
    },
    {
      "NoteNumber": 62,
      "Velocity": 34,
      "Duration": 247402,
      "SoundDuration": 247402,
      "Delta": 4023173
    },
    {
      "NoteNumber": 57,
      "Velocity": 30,
      "Duration": 247402,
      "SoundDuration": 247402,
      "Delta": 4270576
    },
    {
      "NoteNumber": 72,
      "Velocity": 48,
      "Duration": 61850,
      "SoundDuration": 61850,
      "Delta": 4394277
    },
    {
      "NoteNumber": 74,
      "Velocity": 55,
      "Duration": 61850,
      "SoundDuration": 61850,
      "Delta": 4517978
    },
    {
      "NoteNumber": 58,
      "Velocity": 34,
      "Duration": 247402,
      "SoundDuration": 247402,
      "Delta": 4517978
    },
    {
      "NoteNumber": 55,
      "Velocity": 30,
      "Duration": 248214,
      "SoundDuration": 248214,
      "Delta": 4765381
    },
    {
      "NoteNumber": 76,
      "Velocity": 59,
      "Duration": 67916,
      "SoundDuration": 67916,
      "Delta": 4889082
    },
    {
      "NoteNumber": 70,
      "Velocity": 53,
      "Duration": 513128,
      "SoundDuration": 513128,
      "Delta": 5024915
    },
    {
      "NoteNumber": 76,
      "Velocity": 63,
      "Duration": 513128,
      "SoundDuration": 513128,
      "Delta": 5024915
    },
    {
      "NoteNumber": 53,
      "Velocity": 40,
      "Duration": 769692,
      "SoundDuration": 769692,
      "Delta": 5024915
    },
    {
      "NoteNumber": 69,
      "Velocity": 48,
      "Duration": 256564,
      "SoundDuration": 256564,
      "Delta": 5538043
    },
    {
      "NoteNumber": 77,
      "Velocity": 57,
      "Duration": 256564,
      "SoundDuration": 256564,
      "Delta": 5538043
    },
    {
      "NoteNumber": 65,
      "Velocity": 35,
      "Duration": 256564,
      "SoundDuration": 256564,
      "Delta": 5538043
    },
    {
      "NoteNumber": 77,
      "Velocity": 43,
      "Duration": 32070,
      "SoundDuration": 32070,
      "Delta": 6019100
    },
    {
      "NoteNumber": 75,
      "Velocity": 50,
      "Duration": 123152,
      "SoundDuration": 123152,
      "Delta": 6051171
    },
    {
      "NoteNumber": 74,
      "Velocity": 46,
      "Duration": 123152,
      "SoundDuration": 123152,
      "Delta": 6174324
    },
    {
      "NoteNumber": 75,
      "Velocity": 54,
      "Duration": 123152,
      "SoundDuration": 123152,
      "Delta": 6297476
    },
    {
      "NoteNumber": 77,
      "Velocity": 51,
      "Duration": 123152,
      "SoundDuration": 123152,
      "Delta": 6420629
    },
    {
      "NoteNumber": 79,
      "Velocity": 59,
      "Duration": 492610,
      "SoundDuration": 492610,
      "Delta": 6543782
    },
    {
      "NoteNumber": 53,
      "Velocity": 36,
      "Duration": 1482125,
      "SoundDuration": 1482125,
      "Delta": 6790087
    },
    {
      "NoteNumber": 72,
      "Velocity": 50,
      "Duration": 434812,
      "SoundDuration": 434812,
      "Delta": 7036393
    },
    {
      "NoteNumber": 57,
      "Velocity": 40,
      "Duration": 246305,
      "SoundDuration": 246305,
      "Delta": 7036393
    },
    {
      "NoteNumber": 60,
      "Velocity": 37,
      "Duration": 253860,
      "SoundDuration": 253860,
      "Delta": 7282698
    },
    {
      "NoteNumber": 74,
      "Velocity": 43,
      "Duration": 32676,
      "SoundDuration": 32676,
      "Delta": 7503882
    },
    {
      "NoteNumber": 72,
      "Velocity": 50,
      "Duration": 122609,
      "SoundDuration": 122609,
      "Delta": 7536559
    },
    {
      "NoteNumber": 63,
      "Velocity": 40,
      "Duration": 735654,
      "SoundDuration": 735654,
      "Delta": 7536559
    },
    {
      "NoteNumber": 71,
      "Velocity": 46,
      "Duration": 122608,
      "SoundDuration": 122608,
      "Delta": 7659168
    },
    {
      "NoteNumber": 72,
      "Velocity": 54,
      "Duration": 122609,
      "SoundDuration": 122609,
      "Delta": 7781777
    },
    {
      "NoteNumber": 74,
      "Velocity": 51,
      "Duration": 122609,
      "SoundDuration": 122609,
      "Delta": 7904386
    },
    {
      "NoteNumber": 75,
      "Velocity": 59,
      "Duration": 490435,
      "SoundDuration": 490435,
      "Delta": 8026995
    },
    {
      "NoteNumber": 53,
      "Velocity": 42,
      "Duration": 1732376,
      "SoundDuration": 1732376,
      "Delta": 8272213
    },
    {
      "NoteNumber": 69,
      "Velocity": 50,
      "Duration": 432265,
      "SoundDuration": 432265,
      "Delta": 8517431
    },
    {
      "NoteNumber": 60,
      "Velocity": 48,
      "Duration": 245217,
      "SoundDuration": 245217,
      "Delta": 8517431
    },
    {
      "NoteNumber": 63,
      "Velocity": 41,
      "Duration": 251485,
      "SoundDuration": 251485,
      "Delta": 8762649
    },
    {
      "NoteNumber": 70,
      "Velocity": 43,
      "Duration": 32219,
      "SoundDuration": 32219,
      "Delta": 8981915
    },
    {
      "NoteNumber": 69,
      "Velocity": 50,
      "Duration": 122609,
      "SoundDuration": 122609,
      "Delta": 9014135
    },
    {
      "NoteNumber": 66,
      "Velocity": 55,
      "Duration": 990454,
      "SoundDuration": 990454,
      "Delta": 9014135
    },
    {
      "NoteNumber": 67,
      "Velocity": 46,
      "Duration": 122608,
      "SoundDuration": 122608,
      "Delta": 9136744
    },
    {
      "NoteNumber": 69,
      "Velocity": 52,
      "Duration": 122609,
      "SoundDuration": 122609,
      "Delta": 9259353
    },
    {
      "NoteNumber": 70,
      "Velocity": 48,
      "Duration": 84738,
      "SoundDuration": 84738,
      "Delta": 9381962
    },
    {
      "NoteNumber": 74,
      "Velocity": 43,
      "Duration": 31776,
      "SoundDuration": 31776,
      "Delta": 9477292
    },
    {
      "NoteNumber": 72,
      "Velocity": 53,
      "Duration": 122609,
      "SoundDuration": 122609,
      "Delta": 9509069
    },
    {
      "NoteNumber": 71,
      "Velocity": 50,
      "Duration": 122608,
      "SoundDuration": 122608,
      "Delta": 9631678
    },
    {
      "NoteNumber": 72,
      "Velocity": 54,
      "Duration": 122609,
      "SoundDuration": 122609,
      "Delta": 9754287
    },
    {
      "NoteNumber": 74,
      "Velocity": 51,
      "Duration": 85128,
      "SoundDuration": 85128,
      "Delta": 9876896
    },
    {
      "NoteNumber": 77,
      "Velocity": 43,
      "Duration": 31923,
      "SoundDuration": 31923,
      "Delta": 9972665
    },
    {
      "NoteNumber": 75,
      "Velocity": 57,
      "Duration": 123152,
      "SoundDuration": 123152,
      "Delta": 10004589
    },
    {
      "NoteNumber": 65,
      "Velocity": 38,
      "Duration": 492611,
      "SoundDuration": 492611,
      "Delta": 10004589
    },
    {
      "NoteNumber": 53,
      "Velocity": 38,
      "Duration": 492611,
      "SoundDuration": 492611,
      "Delta": 10004589
    },
    {
      "NoteNumber": 74,
      "Velocity": 52,
      "Duration": 123152,
      "SoundDuration": 123152,
      "Delta": 10127741
    },
    {
      "NoteNumber": 75,
      "Velocity": 58,
      "Duration": 123152,
      "SoundDuration": 123152,
      "Delta": 10250894
    },
    {
      "NoteNumber": 77,
      "Velocity": 55,
      "Duration": 123152,
      "SoundDuration": 123152,
      "Delta": 10374047
    },
    {
      "NoteNumber": 79,
      "Velocity": 64,
      "Duration": 61576,
      "SoundDuration": 61576,
      "Delta": 10497200
    },
    {
      "NoteNumber": 53,
      "Velocity": 32,
      "Duration": 541208,
      "SoundDuration": 541208,
      "Delta": 10497200
    },
    {
      "NoteNumber": 63,
      "Velocity": 32,
      "Duration": 541208,
      "SoundDuration": 541208,
      "Delta": 10497200
    },
    {
      "NoteNumber": 69,
      "Velocity": 42,
      "Duration": 155666,
      "SoundDuration": 155666,
      "Delta": 10882742
    },
    {
      "NoteNumber": 72,
      "Velocity": 50,
      "Duration": 540687,
      "SoundDuration": 540687,
      "Delta": 11038408
    },
    {
      "NoteNumber": 58,
      "Velocity": 30,
      "Duration": 825046,
      "SoundDuration": 825046,
      "Delta": 11038408
    },
    {
      "NoteNumber": 63,
      "Velocity": 36,
      "Duration": 540687,
      "SoundDuration": 540687,
      "Delta": 11038408
    },
    {
      "NoteNumber": 70,
      "Velocity": 44,
      "Duration": 284359,
      "SoundDuration": 284359,
      "Delta": 11579095
    },
    {
      "NoteNumber": 62,
      "Velocity": 32,
      "Duration": 284359,
      "SoundDuration": 284359,
      "Delta": 11579095
    },
    {
      "NoteNumber": 62,
      "Velocity": 50,
      "Duration": 381323,
      "SoundDuration": 381323,
      "Delta": 12147815
    },
    {
      "NoteNumber": 63,
      "Velocity": 46,
      "Duration": 139236,
      "SoundDuration": 139236,
      "Delta": 12529139
    },
    {
      "NoteNumber": 65,
      "Velocity": 50,
      "Duration": 976891,
      "SoundDuration": 976891,
      "Delta": 12668376
    },
    {
      "NoteNumber": 46,
      "Velocity": 40,
      "Duration": 126050,
      "SoundDuration": 126050,
      "Delta": 12668376
    },
    {
      "NoteNumber": 58,
      "Velocity": 29,
      "Duration": 252100,
      "SoundDuration": 252100,
      "Delta": 12920477
    },
    {
      "NoteNumber": 62,
      "Velocity": 34,
      "Duration": 252101,
      "SoundDuration": 252101,
      "Delta": 13172578
    },
    {
      "NoteNumber": 58,
      "Velocity": 29,
      "Duration": 252100,
      "SoundDuration": 252100,
      "Delta": 13424679
    },
    {
      "NoteNumber": 69,
      "Velocity": 46,
      "Duration": 31512,
      "SoundDuration": 31512,
      "Delta": 13645267
    },
    {
      "NoteNumber": 67,
      "Velocity": 50,
      "Duration": 121457,
      "SoundDuration": 121457,
      "Delta": 13676780
    },
    {
      "NoteNumber": 63,
      "Velocity": 34,
      "Duration": 242915,
      "SoundDuration": 242915,
      "Delta": 13676780
    },
    {
      "NoteNumber": 65,
      "Velocity": 45,
      "Duration": 121457,
      "SoundDuration": 121457,
      "Delta": 13798237
    },
    {
      "NoteNumber": 67,
      "Velocity": 50,
      "Duration": 129477,
      "SoundDuration": 129477,
      "Delta": 13919695
    },
    {
      "NoteNumber": 60,
      "Velocity": 31,
      "Duration": 258955,
      "SoundDuration": 258955,
      "Delta": 13919695
    },
    {
      "NoteNumber": 69,
      "Velocity": 43,
      "Duration": 129477,
      "SoundDuration": 129477,
      "Delta": 14049172
    },
    {
      "NoteNumber": 70,
      "Velocity": 50,
      "Duration": 492611,
      "SoundDuration": 492611,
      "Delta": 14178650
    },
    {
      "NoteNumber": 62,
      "Velocity": 40,
      "Duration": 246305,
      "SoundDuration": 246305,
      "Delta": 14178650
    },
    {
      "NoteNumber": 61,
      "Velocity": 30,
      "Duration": 246305,
      "SoundDuration": 246305,
      "Delta": 14424956
    },
    {
      "NoteNumber": 65,
      "Velocity": 41,
      "Duration": 431034,
      "SoundDuration": 431034,
      "Delta": 14671261
    },
    {
      "NoteNumber": 62,
      "Velocity": 34,
      "Duration": 246305,
      "SoundDuration": 246305,
      "Delta": 14671261
    },
    {
      "NoteNumber": 58,
      "Velocity": 30,
      "Duration": 246305,
      "SoundDuration": 246305,
      "Delta": 14917567
    },
    {
      "NoteNumber": 69,
      "Velocity": 43,
      "Duration": 30788,
      "SoundDuration": 30788,
      "Delta": 15133084
    },
    {
      "NoteNumber": 67,
      "Velocity": 50,
      "Duration": 120967,
      "SoundDuration": 120967,
      "Delta": 15163872
    },
    {
      "NoteNumber": 63,
      "Velocity": 34,
      "Duration": 241935,
      "SoundDuration": 241935,
      "Delta": 15163872
    },
    {
      "NoteNumber": 65,
      "Velocity": 46,
      "Duration": 120967,
      "SoundDuration": 120967,
      "Delta": 15284840
    },
    {
      "NoteNumber": 67,
      "Velocity": 50,
      "Duration": 128876,
      "SoundDuration": 128876,
      "Delta": 15405808
    },
    {
      "NoteNumber": 60,
      "Velocity": 29,
      "Duration": 257753,
      "SoundDuration": 257753,
      "Delta": 15405808
    },
    {
      "NoteNumber": 69,
      "Velocity": 50,
      "Duration": 128876,
      "SoundDuration": 128876,
      "Delta": 15534685
    },
    {
      "NoteNumber": 70,
      "Velocity": 50,
      "Duration": 61850,
      "SoundDuration": 61850,
      "Delta": 15663562
    },
    {
      "NoteNumber": 62,
      "Velocity": 40,
      "Duration": 247402,
      "SoundDuration": 247402,
      "Delta": 15663562
    },
    {
      "NoteNumber": 61,
      "Velocity": 30,
      "Duration": 247402,
      "SoundDuration": 247402,
      "Delta": 15910964
    },
    {
      "NoteNumber": 69,
      "Velocity": 46,
      "Duration": 61850,
      "SoundDuration": 61850,
      "Delta": 16034665
    },
    {
      "NoteNumber": 70,
      "Velocity": 56,
      "Duration": 61850,
      "SoundDuration": 61850,
      "Delta": 16158367
    },
    {
      "NoteNumber": 62,
      "Velocity": 34,
      "Duration": 247402,
      "SoundDuration": 247402,
      "Delta": 16158367
    },
    {
      "NoteNumber": 57,
      "Velocity": 30,
      "Duration": 247402,
      "SoundDuration": 247402,
      "Delta": 16405769
    },
    {
      "NoteNumber": 72,
      "Velocity": 48,
      "Duration": 61850,
      "SoundDuration": 61850,
      "Delta": 16529470
    },
    {
      "NoteNumber": 74,
      "Velocity": 55,
      "Duration": 61224,
      "SoundDuration": 61224,
      "Delta": 16653172
    },
    {
      "NoteNumber": 58,
      "Velocity": 34,
      "Duration": 244897,
      "SoundDuration": 244897,
      "Delta": 16653172
    },
    {
      "NoteNumber": 55,
      "Velocity": 30,
      "Duration": 246962,
      "SoundDuration": 246962,
      "Delta": 16898069
    },
    {
      "NoteNumber": 76,
      "Velocity": 59,
      "Duration": 67916,
      "SoundDuration": 67916,
      "Delta": 17020518
    },
    {
      "NoteNumber": 70,
      "Velocity": 53,
      "Duration": 513128,
      "SoundDuration": 513128,
      "Delta": 17156351
    },
    {
      "NoteNumber": 76,
      "Velocity": 63,
      "Duration": 513128,
      "SoundDuration": 513128,
      "Delta": 17156351
    },
    {
      "NoteNumber": 53,
      "Velocity": 40,
      "Duration": 769691,
      "SoundDuration": 769691,
      "Delta": 17156351
    },
    {
      "NoteNumber": 69,
      "Velocity": 48,
      "Duration": 256563,
      "SoundDuration": 256563,
      "Delta": 17669479
    },
    {
      "NoteNumber": 77,
      "Velocity": 57,
      "Duration": 256563,
      "SoundDuration": 256563,
      "Delta": 17669479
    },
    {
      "NoteNumber": 65,
      "Velocity": 35,
      "Duration": 256563,
      "SoundDuration": 256563,
      "Delta": 17669479
    },
    {
      "NoteNumber": 77,
      "Velocity": 43,
      "Duration": 32070,
      "SoundDuration": 32070,
      "Delta": 18150537
    },
    {
      "NoteNumber": 75,
      "Velocity": 50,
      "Duration": 123152,
      "SoundDuration": 123152,
      "Delta": 18182607
    },
    {
      "NoteNumber": 74,
      "Velocity": 46,
      "Duration": 123152,
      "SoundDuration": 123152,
      "Delta": 18305760
    },
    {
      "NoteNumber": 75,
      "Velocity": 54,
      "Duration": 123152,
      "SoundDuration": 123152,
      "Delta": 18428913
    },
    {
      "NoteNumber": 77,
      "Velocity": 51,
      "Duration": 123152,
      "SoundDuration": 123152,
      "Delta": 18552065
    },
    {
      "NoteNumber": 79,
      "Velocity": 59,
      "Duration": 489220,
      "SoundDuration": 489220,
      "Delta": 18675218
    },
    {
      "NoteNumber": 53,
      "Velocity": 36,
      "Duration": 1473648,
      "SoundDuration": 1473648,
      "Delta": 18921524
    },
    {
      "NoteNumber": 72,
      "Velocity": 50,
      "Duration": 429726,
      "SoundDuration": 429726,
      "Delta": 19164439
    },
    {
      "NoteNumber": 57,
      "Velocity": 40,
      "Duration": 242915,
      "SoundDuration": 242915,
      "Delta": 19164439
    },
    {
      "NoteNumber": 60,
      "Velocity": 37,
      "Duration": 252164,
      "SoundDuration": 252164,
      "Delta": 19407354
    },
    {
      "NoteNumber": 74,
      "Velocity": 43,
      "Duration": 32676,
      "SoundDuration": 32676,
      "Delta": 19626842
    },
    {
      "NoteNumber": 72,
      "Velocity": 50,
      "Duration": 122609,
      "SoundDuration": 122609,
      "Delta": 19659519
    },
    {
      "NoteNumber": 63,
      "Velocity": 40,
      "Duration": 735654,
      "SoundDuration": 735654,
      "Delta": 19659519
    },
    {
      "NoteNumber": 71,
      "Velocity": 46,
      "Duration": 122609,
      "SoundDuration": 122609,
      "Delta": 19782128
    },
    {
      "NoteNumber": 72,
      "Velocity": 54,
      "Duration": 122608,
      "SoundDuration": 122608,
      "Delta": 19904737
    },
    {
      "NoteNumber": 74,
      "Velocity": 51,
      "Duration": 122609,
      "SoundDuration": 122609,
      "Delta": 20027346
    },
    {
      "NoteNumber": 75,
      "Velocity": 59,
      "Duration": 488133,
      "SoundDuration": 488133,
      "Delta": 20149955
    },
    {
      "NoteNumber": 53,
      "Velocity": 42,
      "Duration": 1726618,
      "SoundDuration": 1726618,
      "Delta": 20395173
    },
    {
      "NoteNumber": 69,
      "Velocity": 50,
      "Duration": 428811,
      "SoundDuration": 428811,
      "Delta": 20638088
    },
    {
      "NoteNumber": 60,
      "Velocity": 48,
      "Duration": 242915,
      "SoundDuration": 242915,
      "Delta": 20638088
    },
    {
      "NoteNumber": 63,
      "Velocity": 41,
      "Duration": 250334,
      "SoundDuration": 250334,
      "Delta": 20881003
    },
    {
      "NoteNumber": 70,
      "Velocity": 43,
      "Duration": 32219,
      "SoundDuration": 32219,
      "Delta": 21099118
    },
    {
      "NoteNumber": 69,
      "Velocity": 50,
      "Duration": 122609,
      "SoundDuration": 122609,
      "Delta": 21131337
    },
    {
      "NoteNumber": 66,
      "Velocity": 55,
      "Duration": 990453,
      "SoundDuration": 990453,
      "Delta": 21131337
    },
    {
      "NoteNumber": 67,
      "Velocity": 46,
      "Duration": 122609,
      "SoundDuration": 122609,
      "Delta": 21253946
    },
    {
      "NoteNumber": 69,
      "Velocity": 52,
      "Duration": 122608,
      "SoundDuration": 122608,
      "Delta": 21376555
    },
    {
      "NoteNumber": 70,
      "Velocity": 48,
      "Duration": 84738,
      "SoundDuration": 84738,
      "Delta": 21499164
    },
    {
      "NoteNumber": 74,
      "Velocity": 43,
      "Duration": 31776,
      "SoundDuration": 31776,
      "Delta": 21594495
    },
    {
      "NoteNumber": 72,
      "Velocity": 53,
      "Duration": 122609,
      "SoundDuration": 122609,
      "Delta": 21626272
    },
    {
      "NoteNumber": 71,
      "Velocity": 50,
      "Duration": 122609,
      "SoundDuration": 122609,
      "Delta": 21748881
    },
    {
      "NoteNumber": 72,
      "Velocity": 54,
      "Duration": 122608,
      "SoundDuration": 122608,
      "Delta": 21871490
    },
    {
      "NoteNumber": 74,
      "Velocity": 51,
      "Duration": 85128,
      "SoundDuration": 85128,
      "Delta": 21994099
    },
    {
      "NoteNumber": 77,
      "Velocity": 43,
      "Duration": 31923,
      "SoundDuration": 31923,
      "Delta": 22089868
    },
    {
      "NoteNumber": 75,
      "Velocity": 57,
      "Duration": 123152,
      "SoundDuration": 123152,
      "Delta": 22121791
    },
    {
      "NoteNumber": 65,
      "Velocity": 38,
      "Duration": 492611,
      "SoundDuration": 492611,
      "Delta": 22121791
    },
    {
      "NoteNumber": 53,
      "Velocity": 38,
      "Duration": 492611,
      "SoundDuration": 492611,
      "Delta": 22121791
    },
    {
      "NoteNumber": 74,
      "Velocity": 52,
      "Duration": 123152,
      "SoundDuration": 123152,
      "Delta": 22244944
    },
    {
      "NoteNumber": 75,
      "Velocity": 58,
      "Duration": 123152,
      "SoundDuration": 123152,
      "Delta": 22368097
    },
    {
      "NoteNumber": 77,
      "Velocity": 55,
      "Duration": 123152,
      "SoundDuration": 123152,
      "Delta": 22491249
    },
    {
      "NoteNumber": 79,
      "Velocity": 64,
      "Duration": 61576,
      "SoundDuration": 61576,
      "Delta": 22614402
    },
    {
      "NoteNumber": 53,
      "Velocity": 32,
      "Duration": 547704,
      "SoundDuration": 547704,
      "Delta": 22614402
    },
    {
      "NoteNumber": 63,
      "Velocity": 32,
      "Duration": 547704,
      "SoundDuration": 547704,
      "Delta": 22614402
    },
    {
      "NoteNumber": 69,
      "Velocity": 42,
      "Duration": 162162,
      "SoundDuration": 162162,
      "Delta": 22999945
    },
    {
      "NoteNumber": 72,
      "Velocity": 50,
      "Duration": 540686,
      "SoundDuration": 540686,
      "Delta": 23162107
    },
    {
      "NoteNumber": 58,
      "Velocity": 30,
      "Duration": 845193,
      "SoundDuration": 845193,
      "Delta": 23162107
    },
    {
      "NoteNumber": 63,
      "Velocity": 36,
      "Duration": 540686,
      "SoundDuration": 540686,
      "Delta": 23162107
    },
    {
      "NoteNumber": 70,
      "Velocity": 44,
      "Duration": 304506,
      "SoundDuration": 304506,
      "Delta": 23702794
    },
    {
      "NoteNumber": 62,
      "Velocity": 32,
      "Duration": 304506,
      "SoundDuration": 304506,
      "Delta": 23702794
    },
    {
      "NoteNumber": 69,
      "Velocity": 38,
      "Duration": 124792,
      "SoundDuration": 124792,
      "Delta": 24299249
    },
    {
      "NoteNumber": 74,
      "Velocity": 46,
      "Duration": 124792,
      "SoundDuration": 124792,
      "Delta": 24299249
    },
    {
      "NoteNumber": 66,
      "Velocity": 38,
      "Duration": 124792,
      "SoundDuration": 124792,
      "Delta": 24299249
    },
    {
      "NoteNumber": 70,
      "Velocity": 34,
      "Duration": 123784,
      "SoundDuration": 123784,
      "Delta": 24424042
    },
    {
      "NoteNumber": 73,
      "Velocity": 41,
      "Duration": 123784,
      "SoundDuration": 123784,
      "Delta": 24424042
    },
    {
      "NoteNumber": 67,
      "Velocity": 33,
      "Duration": 123784,
      "SoundDuration": 123784,
      "Delta": 24424042
    },
    {
      "NoteNumber": 69,
      "Velocity": 42,
      "Duration": 122893,
      "SoundDuration": 122893,
      "Delta": 24547826
    },
    {
      "NoteNumber": 74,
      "Velocity": 50,
      "Duration": 122893,
      "SoundDuration": 122893,
      "Delta": 24547826
    },
    {
      "NoteNumber": 66,
      "Velocity": 42,
      "Duration": 122893,
      "SoundDuration": 122893,
      "Delta": 24547826
    },
    {
      "NoteNumber": 70,
      "Velocity": 34,
      "Duration": 121853,
      "SoundDuration": 121853,
      "Delta": 24670719
    },
    {
      "NoteNumber": 73,
      "Velocity": 40,
      "Duration": 121853,
      "SoundDuration": 121853,
      "Delta": 24670719
    },
    {
      "NoteNumber": 67,
      "Velocity": 38,
      "Duration": 121853,
      "SoundDuration": 121853,
      "Delta": 24670719
    },
    {
      "NoteNumber": 69,
      "Velocity": 45,
      "Duration": 120989,
      "SoundDuration": 120989,
      "Delta": 24792572
    },
    {
      "NoteNumber": 74,
      "Velocity": 54,
      "Duration": 120989,
      "SoundDuration": 120989,
      "Delta": 24792572
    },
    {
      "NoteNumber": 66,
      "Velocity": 45,
      "Duration": 120989,
      "SoundDuration": 120989,
      "Delta": 24792572
    },
    {
      "NoteNumber": 70,
      "Velocity": 40,
      "Duration": 119985,
      "SoundDuration": 119985,
      "Delta": 24913562
    },
    {
      "NoteNumber": 73,
      "Velocity": 49,
      "Duration": 119985,
      "SoundDuration": 119985,
      "Delta": 24913562
    },
    {
      "NoteNumber": 67,
      "Velocity": 39,
      "Duration": 119985,
      "SoundDuration": 119985,
      "Delta": 24913562
    },
    {
      "NoteNumber": 69,
      "Velocity": 49,
      "Duration": 119143,
      "SoundDuration": 119143,
      "Delta": 25033547
    },
    {
      "NoteNumber": 74,
      "Velocity": 57,
      "Duration": 119143,
      "SoundDuration": 119143,
      "Delta": 25033547
    },
    {
      "NoteNumber": 66,
      "Velocity": 49,
      "Duration": 119143,
      "SoundDuration": 119143,
      "Delta": 25033547
    },
    {
      "NoteNumber": 70,
      "Velocity": 39,
      "Duration": 118112,
      "SoundDuration": 118112,
      "Delta": 25152690
    },
    {
      "NoteNumber": 73,
      "Velocity": 47,
      "Duration": 118112,
      "SoundDuration": 118112,
      "Delta": 25152690
    },
    {
      "NoteNumber": 67,
      "Velocity": 45,
      "Duration": 118112,
      "SoundDuration": 118112,
      "Delta": 25152690
    },
    {
      "NoteNumber": 69,
      "Velocity": 52,
      "Duration": 116278,
      "SoundDuration": 116278,
      "Delta": 25270802
    },
    {
      "NoteNumber": 74,
      "Velocity": 62,
      "Duration": 116278,
      "SoundDuration": 116278,
      "Delta": 25270802
    },
    {
      "NoteNumber": 66,
      "Velocity": 52,
      "Duration": 116278,
      "SoundDuration": 116278,
      "Delta": 25270802
    },
    {
      "NoteNumber": 70,
      "Velocity": 47,
      "Duration": 116693,
      "SoundDuration": 116693,
      "Delta": 25387081
    },
    {
      "NoteNumber": 73,
      "Velocity": 56,
      "Duration": 116693,
      "SoundDuration": 116693,
      "Delta": 25387081
    },
    {
      "NoteNumber": 67,
      "Velocity": 45,
      "Duration": 116693,
      "SoundDuration": 116693,
      "Delta": 25387081
    },
    {
      "NoteNumber": 69,
      "Velocity": 55,
      "Duration": 117168,
      "SoundDuration": 117168,
      "Delta": 25503775
    },
    {
      "NoteNumber": 74,
      "Velocity": 66,
      "Duration": 117168,
      "SoundDuration": 117168,
      "Delta": 25503775
    },
    {
      "NoteNumber": 66,
      "Velocity": 55,
      "Duration": 117168,
      "SoundDuration": 117168,
      "Delta": 25503775
    },
    {
      "NoteNumber": 70,
      "Velocity": 46,
      "Duration": 117666,
      "SoundDuration": 117666,
      "Delta": 25620943
    },
    {
      "NoteNumber": 73,
      "Velocity": 54,
      "Duration": 117666,
      "SoundDuration": 117666,
      "Delta": 25620943
    },
    {
      "NoteNumber": 67,
      "Velocity": 52,
      "Duration": 117666,
      "SoundDuration": 117666,
      "Delta": 25620943
    },
    {
      "NoteNumber": 69,
      "Velocity": 59,
      "Duration": 118145,
      "SoundDuration": 118145,
      "Delta": 25738609
    },
    {
      "NoteNumber": 74,
      "Velocity": 71,
      "Duration": 118145,
      "SoundDuration": 118145,
      "Delta": 25738609
    },
    {
      "NoteNumber": 66,
      "Velocity": 59,
      "Duration": 118145,
      "SoundDuration": 118145,
      "Delta": 25738609
    },
    {
      "NoteNumber": 70,
      "Velocity": 53,
      "Duration": 118631,
      "SoundDuration": 118631,
      "Delta": 25856755
    },
    {
      "NoteNumber": 73,
      "Velocity": 64,
      "Duration": 118631,
      "SoundDuration": 118631,
      "Delta": 25856755
    },
    {
      "NoteNumber": 67,
      "Velocity": 52,
      "Duration": 118631,
      "SoundDuration": 118631,
      "Delta": 25856755
    },
    {
      "NoteNumber": 69,
      "Velocity": 63,
      "Duration": 118515,
      "SoundDuration": 118515,
      "Delta": 25975387
    },
    {
      "NoteNumber": 74,
      "Velocity": 75,
      "Duration": 118515,
      "SoundDuration": 118515,
      "Delta": 25975387
    },
    {
      "NoteNumber": 66,
      "Velocity": 63,
      "Duration": 118515,
      "SoundDuration": 118515,
      "Delta": 25975387
    },
    {
      "NoteNumber": 70,
      "Velocity": 52,
      "Duration": 139237,
      "SoundDuration": 139237,
      "Delta": 26093903
    },
    {
      "NoteNumber": 73,
      "Velocity": 62,
      "Duration": 139237,
      "SoundDuration": 139237,
      "Delta": 26093903
    },
    {
      "NoteNumber": 67,
      "Velocity": 58,
      "Duration": 139237,
      "SoundDuration": 139237,
      "Delta": 26093903
    },
    {
      "NoteNumber": 69,
      "Velocity": 83,
      "Duration": 251910,
      "SoundDuration": 251910,
      "Delta": 26233140
    },
    {
      "NoteNumber": 74,
      "Velocity": 83,
      "Duration": 251910,
      "SoundDuration": 251910,
      "Delta": 26233140
    },
    {
      "NoteNumber": 66,
      "Velocity": 70,
      "Duration": 251910,
      "SoundDuration": 251910,
      "Delta": 26233140
    },
    {
      "NoteNumber": 86,
      "Velocity": 100,
      "Duration": 755731,
      "SoundDuration": 755731,
      "Delta": 26736961
    },
    {
      "NoteNumber": 78,
      "Velocity": 84,
      "Duration": 755731,
      "SoundDuration": 755731,
      "Delta": 26736961
    },
    {
      "NoteNumber": 50,
      "Velocity": 62,
      "Duration": 755731,
      "SoundDuration": 755731,
      "Delta": 26736961
    },
    {
      "NoteNumber": 62,
      "Velocity": 74,
      "Duration": 755731,
      "SoundDuration": 755731,
      "Delta": 26736961
    },
    {
      "NoteNumber": 84,
      "Velocity": 75,
      "Duration": 125955,
      "SoundDuration": 125955,
      "Delta": 27492692
    },
    {
      "NoteNumber": 78,
      "Velocity": 63,
      "Duration": 125955,
      "SoundDuration": 125955,
      "Delta": 27492692
    },
    {
      "NoteNumber": 50,
      "Velocity": 46,
      "Duration": 125955,
      "SoundDuration": 125955,
      "Delta": 27492692
    },
    {
      "NoteNumber": 62,
      "Velocity": 56,
      "Duration": 125955,
      "SoundDuration": 125955,
      "Delta": 27492692
    },
    {
      "NoteNumber": 82,
      "Velocity": 91,
      "Duration": 248508,
      "SoundDuration": 248508,
      "Delta": 27744603
    },
    {
      "NoteNumber": 79,
      "Velocity": 77,
      "Duration": 248508,
      "SoundDuration": 248508,
      "Delta": 27744603
    },
    {
      "NoteNumber": 51,
      "Velocity": 57,
      "Duration": 248508,
      "SoundDuration": 248508,
      "Delta": 27744603
    },
    {
      "NoteNumber": 63,
      "Velocity": 68,
      "Duration": 248508,
      "SoundDuration": 248508,
      "Delta": 27744603
    },
    {
      "NoteNumber": 81,
      "Velocity": 73,
      "Duration": 68587,
      "SoundDuration": 68587,
      "Delta": 28117366
    },
    {
      "NoteNumber": 75,
      "Velocity": 61,
      "Duration": 68587,
      "SoundDuration": 68587,
      "Delta": 28117366
    },
    {
      "NoteNumber": 48,
      "Velocity": 45,
      "Duration": 68587,
      "SoundDuration": 68587,
      "Delta": 28117366
    },
    {
      "NoteNumber": 60,
      "Velocity": 53,
      "Duration": 68587,
      "SoundDuration": 68587,
      "Delta": 28117366
    },
    {
      "NoteNumber": 70,
      "Velocity": 72,
      "Duration": 247402,
      "SoundDuration": 247402,
      "Delta": 28254540
    },
    {
      "NoteNumber": 79,
      "Velocity": 85,
      "Duration": 247402,
      "SoundDuration": 247402,
      "Delta": 28254540
    },
    {
      "NoteNumber": 50,
      "Velocity": 53,
      "Duration": 247402,
      "SoundDuration": 247402,
      "Delta": 28254540
    },
    {
      "NoteNumber": 62,
      "Velocity": 63,
      "Duration": 247402,
      "SoundDuration": 247402,
      "Delta": 28254540
    },
    {
      "NoteNumber": 72,
      "Velocity": 69,
      "Duration": 247402,
      "SoundDuration": 247402,
      "Delta": 28749345
    },
    {
      "NoteNumber": 78,
      "Velocity": 81,
      "Duration": 247402,
      "SoundDuration": 247402,
      "Delta": 28749345
    },
    {
      "NoteNumber": 38,
      "Velocity": 51,
      "Duration": 247402,
      "SoundDuration": 247402,
      "Delta": 28749345
    },
    {
      "NoteNumber": 50,
      "Velocity": 61,
      "Duration": 247402,
      "SoundDuration": 247402,
      "Delta": 28749345
    },
    {
      "NoteNumber": 72,
      "Velocity": 69,
      "Duration": 508431,
      "SoundDuration": 508431,
      "Delta": 29272458
    },
    {
      "NoteNumber": 81,
      "Velocity": 82,
      "Duration": 508431,
      "SoundDuration": 508431,
      "Delta": 29272458
    },
    {
      "NoteNumber": 43,
      "Velocity": 51,
      "Duration": 762646,
      "SoundDuration": 762646,
      "Delta": 29272458
    },
    {
      "NoteNumber": 55,
      "Velocity": 61,
      "Duration": 762646,
      "SoundDuration": 762646,
      "Delta": 29272458
    },
    {
      "NoteNumber": 70,
      "Velocity": 61,
      "Duration": 254215,
      "SoundDuration": 254215,
      "Delta": 29780889
    },
    {
      "NoteNumber": 79,
      "Velocity": 72,
      "Duration": 254215,
      "SoundDuration": 254215,
      "Delta": 29780889
    },
    {
      "NoteNumber": 56,
      "Velocity": 25,
      "Duration": 124278,
      "SoundDuration": 124278,
      "Delta": 30288590
    },
    {
      "NoteNumber": 58,
      "Velocity": 30,
      "Duration": 124278,
      "SoundDuration": 124278,
      "Delta": 30288590
    },
    {
      "NoteNumber": 50,
      "Velocity": 25,
      "Duration": 124278,
      "SoundDuration": 124278,
      "Delta": 30288590
    },
    {
      "NoteNumber": 59,
      "Velocity": 27,
      "Duration": 123528,
      "SoundDuration": 123528,
      "Delta": 30411844
    },
    {
      "NoteNumber": 51,
      "Velocity": 22,
      "Duration": 123528,
      "SoundDuration": 123528,
      "Delta": 30411844
    },
    {
      "NoteNumber": 56,
      "Velocity": 27,
      "Duration": 122728,
      "SoundDuration": 122728,
      "Delta": 30534356
    },
    {
      "NoteNumber": 58,
      "Velocity": 33,
      "Duration": 122728,
      "SoundDuration": 122728,
      "Delta": 30534356
    },
    {
      "NoteNumber": 50,
      "Velocity": 27,
      "Duration": 122728,
      "SoundDuration": 122728,
      "Delta": 30534356
    },
    {
      "NoteNumber": 59,
      "Velocity": 26,
      "Duration": 122110,
      "SoundDuration": 122110,
      "Delta": 30656073
    },
    {
      "NoteNumber": 51,
      "Velocity": 24,
      "Duration": 122110,
      "SoundDuration": 122110,
      "Delta": 30656073
    },
    {
      "NoteNumber": 56,
      "Velocity": 28,
      "Duration": 121289,
      "SoundDuration": 121289,
      "Delta": 30777180
    },
    {
      "NoteNumber": 58,
      "Velocity": 34,
      "Duration": 121289,
      "SoundDuration": 121289,
      "Delta": 30777180
    },
    {
      "NoteNumber": 50,
      "Velocity": 28,
      "Duration": 121289,
      "SoundDuration": 121289,
      "Delta": 30777180
    },
    {
      "NoteNumber": 59,
      "Velocity": 30,
      "Duration": 120633,
      "SoundDuration": 120633,
      "Delta": 30897469
    },
    {
      "NoteNumber": 51,
      "Velocity": 24,
      "Duration": 120633,
      "SoundDuration": 120633,
      "Delta": 30897469
    },
    {
      "NoteNumber": 56,
      "Velocity": 30,
      "Duration": 119906,
      "SoundDuration": 119906,
      "Delta": 31017106
    },
    {
      "NoteNumber": 58,
      "Velocity": 36,
      "Duration": 119906,
      "SoundDuration": 119906,
      "Delta": 31017106
    },
    {
      "NoteNumber": 50,
      "Velocity": 30,
      "Duration": 119906,
      "SoundDuration": 119906,
      "Delta": 31017106
    },
    {
      "NoteNumber": 59,
      "Velocity": 29,
      "Duration": 119223,
      "SoundDuration": 119223,
      "Delta": 31136025
    },
    {
      "NoteNumber": 51,
      "Velocity": 28,
      "Duration": 119223,
      "SoundDuration": 119223,
      "Delta": 31136025
    },
    {
      "NoteNumber": 56,
      "Velocity": 33,
      "Duration": 118816,
      "SoundDuration": 118816,
      "Delta": 31254267
    },
    {
      "NoteNumber": 58,
      "Velocity": 39,
      "Duration": 118816,
      "SoundDuration": 118816,
      "Delta": 31254267
    },
    {
      "NoteNumber": 50,
      "Velocity": 33,
      "Duration": 118816,
      "SoundDuration": 118816,
      "Delta": 31254267
    },
    {
      "NoteNumber": 59,
      "Velocity": 36,
      "Duration": 119737,
      "SoundDuration": 119737,
      "Delta": 31372099
    },
    {
      "NoteNumber": 51,
      "Velocity": 29,
      "Duration": 119737,
      "SoundDuration": 119737,
      "Delta": 31372099
    },
    {
      "NoteNumber": 56,
      "Velocity": 36,
      "Duration": 120733,
      "SoundDuration": 120733,
      "Delta": 31490845
    },
    {
      "NoteNumber": 58,
      "Velocity": 42,
      "Duration": 120733,
      "SoundDuration": 120733,
      "Delta": 31490845
    },
    {
      "NoteNumber": 50,
      "Velocity": 36,
      "Duration": 120733,
      "SoundDuration": 120733,
      "Delta": 31490845
    },
    {
      "NoteNumber": 59,
      "Velocity": 34,
      "Duration": 121765,
      "SoundDuration": 121765,
      "Delta": 31610575
    },
    {
      "NoteNumber": 51,
      "Velocity": 33,
      "Duration": 121765,
      "SoundDuration": 121765,
      "Delta": 31610575
    },
    {
      "NoteNumber": 56,
      "Velocity": 38,
      "Duration": 122790,
      "SoundDuration": 122790,
      "Delta": 31731328
    },
    {
      "NoteNumber": 58,
      "Velocity": 45,
      "Duration": 122790,
      "SoundDuration": 122790,
      "Delta": 31731328
    },
    {
      "NoteNumber": 50,
      "Velocity": 38,
      "Duration": 122790,
      "SoundDuration": 122790,
      "Delta": 31731328
    },
    {
      "NoteNumber": 59,
      "Velocity": 41,
      "Duration": 123837,
      "SoundDuration": 123837,
      "Delta": 31853099
    },
    {
      "NoteNumber": 51,
      "Velocity": 33,
      "Duration": 123837,
      "SoundDuration": 123837,
      "Delta": 31853099
    },
    {
      "NoteNumber": 56,
      "Velocity": 40,
      "Duration": 124876,
      "SoundDuration": 124876,
      "Delta": 31975908
    },
    {
      "NoteNumber": 58,
      "Velocity": 49,
      "Duration": 124876,
      "SoundDuration": 124876,
      "Delta": 31975908
    },
    {
      "NoteNumber": 50,
      "Velocity": 40,
      "Duration": 124876,
      "SoundDuration": 124876,
      "Delta": 31975908
    },
    {
      "NoteNumber": 59,
      "Velocity": 40,
      "Duration": 140286,
      "SoundDuration": 140286,
      "Delta": 32099624
    },
    {
      "NoteNumber": 51,
      "Velocity": 38,
      "Duration": 140286,
      "SoundDuration": 140286,
      "Delta": 32099624
    },
    {
      "NoteNumber": 56,
      "Velocity": 65,
      "Duration": 251910,
      "SoundDuration": 251910,
      "Delta": 32238861
    },
    {
      "NoteNumber": 58,
      "Velocity": 65,
      "Duration": 251910,
      "SoundDuration": 251910,
      "Delta": 32238861
    },
    {
      "NoteNumber": 50,
      "Velocity": 54,
      "Duration": 251910,
      "SoundDuration": 251910,
      "Delta": 32238861
    },
    {
      "NoteNumber": 80,
      "Velocity": 85,
      "Duration": 755731,
      "SoundDuration": 755731,
      "Delta": 32742682
    },
    {
      "NoteNumber": 71,
      "Velocity": 72,
      "Duration": 755731,
      "SoundDuration": 755731,
      "Delta": 32742682
    },
    {
      "NoteNumber": 50,
      "Velocity": 53,
      "Duration": 755731,
      "SoundDuration": 755731,
      "Delta": 32742682
    },
    {
      "NoteNumber": 53,
      "Velocity": 64,
      "Duration": 755731,
      "SoundDuration": 755731,
      "Delta": 32742682
    },
    {
      "NoteNumber": 79,
      "Velocity": 59,
      "Duration": 251910,
      "SoundDuration": 251910,
      "Delta": 33498413
    },
    {
      "NoteNumber": 72,
      "Velocity": 49,
      "Duration": 251910,
      "SoundDuration": 251910,
      "Delta": 33498413
    },
    {
      "NoteNumber": 51,
      "Velocity": 36,
      "Duration": 251910,
      "SoundDuration": 251910,
      "Delta": 33498413
    },
    {
      "NoteNumber": 55,
      "Velocity": 43,
      "Duration": 251910,
      "SoundDuration": 251910,
      "Delta": 33498413
    },
    {
      "NoteNumber": 77,
      "Velocity": 70,
      "Duration": 372763,
      "SoundDuration": 372763,
      "Delta": 33750324
    },
    {
      "NoteNumber": 68,
      "Velocity": 58,
      "Duration": 372763,
      "SoundDuration": 372763,
      "Delta": 33750324
    },
    {
      "NoteNumber": 47,
      "Velocity": 43,
      "Duration": 372763,
      "SoundDuration": 372763,
      "Delta": 33750324
    },
    {
      "NoteNumber": 50,
      "Velocity": 51,
      "Duration": 372763,
      "SoundDuration": 372763,
      "Delta": 33750324
    },
    {
      "NoteNumber": 75,
      "Velocity": 53,
      "Duration": 137174,
      "SoundDuration": 137174,
      "Delta": 34123087
    },
    {
      "NoteNumber": 67,
      "Velocity": 45,
      "Duration": 137174,
      "SoundDuration": 137174,
      "Delta": 34123087
    },
    {
      "NoteNumber": 48,
      "Velocity": 32,
      "Duration": 137174,
      "SoundDuration": 137174,
      "Delta": 34123087
    },
    {
      "NoteNumber": 51,
      "Velocity": 39,
      "Duration": 137174,
      "SoundDuration": 137174,
      "Delta": 34123087
    },
    {
      "NoteNumber": 65,
      "Velocity": 52,
      "Duration": 494804,
      "SoundDuration": 494804,
      "Delta": 34260262
    },
    {
      "NoteNumber": 74,
      "Velocity": 61,
      "Duration": 494804,
      "SoundDuration": 494804,
      "Delta": 34260262
    },
    {
      "NoteNumber": 50,
      "Velocity": 38,
      "Duration": 494804,
      "SoundDuration": 494804,
      "Delta": 34260262
    },
    {
      "NoteNumber": 53,
      "Velocity": 45,
      "Duration": 494804,
      "SoundDuration": 494804,
      "Delta": 34260262
    },
    {
      "NoteNumber": 63,
      "Velocity": 46,
      "Duration": 523112,
      "SoundDuration": 523112,
      "Delta": 34755067
    },
    {
      "NoteNumber": 72,
      "Velocity": 54,
      "Duration": 523112,
      "SoundDuration": 523112,
      "Delta": 34755067
    },
    {
      "NoteNumber": 51,
      "Velocity": 34,
      "Duration": 523112,
      "SoundDuration": 523112,
      "Delta": 34755067
    },
    {
      "NoteNumber": 55,
      "Velocity": 41,
      "Duration": 523112,
      "SoundDuration": 523112,
      "Delta": 34755067
    },
    {
      "NoteNumber": 62,
      "Velocity": 40,
      "Duration": 508431,
      "SoundDuration": 508431,
      "Delta": 35278179
    },
    {
      "NoteNumber": 70,
      "Velocity": 48,
      "Duration": 508431,
      "SoundDuration": 508431,
      "Delta": 35278179
    },
    {
      "NoteNumber": 53,
      "Velocity": 36,
      "Duration": 508431,
      "SoundDuration": 508431,
      "Delta": 35278179
    },
    {
      "NoteNumber": 60,
      "Velocity": 36,
      "Duration": 254215,
      "SoundDuration": 254215,
      "Delta": 35786610
    },
    {
      "NoteNumber": 69,
      "Velocity": 42,
      "Duration": 254215,
      "SoundDuration": 254215,
      "Delta": 35786610
    },
    {
      "NoteNumber": 41,
      "Velocity": 30,
      "Duration": 254215,
      "SoundDuration": 254215,
      "Delta": 35786610
    },
    {
      "NoteNumber": 62,
      "Velocity": 50,
      "Duration": 381323,
      "SoundDuration": 381323,
      "Delta": 36295041
    },
    {
      "NoteNumber": 63,
      "Velocity": 46,
      "Duration": 139237,
      "SoundDuration": 139237,
      "Delta": 36676364
    },
    {
      "NoteNumber": 65,
      "Velocity": 50,
      "Duration": 958684,
      "SoundDuration": 958684,
      "Delta": 36815601
    },
    {
      "NoteNumber": 46,
      "Velocity": 40,
      "Duration": 123701,
      "SoundDuration": 123701,
      "Delta": 36815601
    },
    {
      "NoteNumber": 58,
      "Velocity": 29,
      "Duration": 247402,
      "SoundDuration": 247402,
      "Delta": 37063004
    },
    {
      "NoteNumber": 62,
      "Velocity": 34,
      "Duration": 247402,
      "SoundDuration": 247402,
      "Delta": 37310406
    },
    {
      "NoteNumber": 58,
      "Velocity": 29,
      "Duration": 247402,
      "SoundDuration": 247402,
      "Delta": 37557809
    },
    {
      "NoteNumber": 69,
      "Velocity": 46,
      "Duration": 30925,
      "SoundDuration": 30925,
      "Delta": 37774286
    },
    {
      "NoteNumber": 67,
      "Velocity": 50,
      "Duration": 123701,
      "SoundDuration": 123701,
      "Delta": 37805211
    },
    {
      "NoteNumber": 63,
      "Velocity": 34,
      "Duration": 247402,
      "SoundDuration": 247402,
      "Delta": 37805211
    },
    {
      "NoteNumber": 65,
      "Velocity": 45,
      "Duration": 123701,
      "SoundDuration": 123701,
      "Delta": 37928913
    },
    {
      "NoteNumber": 67,
      "Velocity": 50,
      "Duration": 129477,
      "SoundDuration": 129477,
      "Delta": 38052614
    },
    {
      "NoteNumber": 60,
      "Velocity": 31,
      "Duration": 258955,
      "SoundDuration": 258955,
      "Delta": 38052614
    },
    {
      "NoteNumber": 69,
      "Velocity": 43,
      "Duration": 129477,
      "SoundDuration": 129477,
      "Delta": 38182092
    },
    {
      "NoteNumber": 70,
      "Velocity": 50,
      "Duration": 492610,
      "SoundDuration": 492610,
      "Delta": 38311569
    },
    {
      "NoteNumber": 62,
      "Velocity": 40,
      "Duration": 246305,
      "SoundDuration": 246305,
      "Delta": 38311569
    },
    {
      "NoteNumber": 61,
      "Velocity": 30,
      "Duration": 246305,
      "SoundDuration": 246305,
      "Delta": 38557875
    },
    {
      "NoteNumber": 65,
      "Velocity": 41,
      "Duration": 431034,
      "SoundDuration": 431034,
      "Delta": 38804180
    },
    {
      "NoteNumber": 62,
      "Velocity": 34,
      "Duration": 246305,
      "SoundDuration": 246305,
      "Delta": 38804180
    },
    {
      "NoteNumber": 58,
      "Velocity": 30,
      "Duration": 246305,
      "SoundDuration": 246305,
      "Delta": 39050486
    },
    {
      "NoteNumber": 69,
      "Velocity": 43,
      "Duration": 30788,
      "SoundDuration": 30788,
      "Delta": 39266003
    },
    {
      "NoteNumber": 67,
      "Velocity": 50,
      "Duration": 122449,
      "SoundDuration": 122449,
      "Delta": 39296791
    },
    {
      "NoteNumber": 63,
      "Velocity": 34,
      "Duration": 244897,
      "SoundDuration": 244897,
      "Delta": 39296791
    },
    {
      "NoteNumber": 65,
      "Velocity": 46,
      "Duration": 122448,
      "SoundDuration": 122448,
      "Delta": 39419240
    },
    {
      "NoteNumber": 67,
      "Velocity": 50,
      "Duration": 128877,
      "SoundDuration": 128877,
      "Delta": 39541689
    },
    {
      "NoteNumber": 60,
      "Velocity": 29,
      "Duration": 257753,
      "SoundDuration": 257753,
      "Delta": 39541689
    },
    {
      "NoteNumber": 69,
      "Velocity": 50,
      "Duration": 128876,
      "SoundDuration": 128876,
      "Delta": 39670566
    },
    {
      "NoteNumber": 70,
      "Velocity": 50,
      "Duration": 61850,
      "SoundDuration": 61850,
      "Delta": 39799443
    },
    {
      "NoteNumber": 62,
      "Velocity": 40,
      "Duration": 247402,
      "SoundDuration": 247402,
      "Delta": 39799443
    },
    {
      "NoteNumber": 61,
      "Velocity": 30,
      "Duration": 247402,
      "SoundDuration": 247402,
      "Delta": 40046846
    },
    {
      "NoteNumber": 69,
      "Velocity": 46,
      "Duration": 61850,
      "SoundDuration": 61850,
      "Delta": 40170547
    },
    {
      "NoteNumber": 70,
      "Velocity": 56,
      "Duration": 61850,
      "SoundDuration": 61850,
      "Delta": 40294248
    },
    {
      "NoteNumber": 62,
      "Velocity": 34,
      "Duration": 247402,
      "SoundDuration": 247402,
      "Delta": 40294248
    },
    {
      "NoteNumber": 57,
      "Velocity": 30,
      "Duration": 247402,
      "SoundDuration": 247402,
      "Delta": 40541651
    },
    {
      "NoteNumber": 72,
      "Velocity": 48,
      "Duration": 61850,
      "SoundDuration": 61850,
      "Delta": 40665352
    },
    {
      "NoteNumber": 74,
      "Velocity": 55,
      "Duration": 61850,
      "SoundDuration": 61850,
      "Delta": 40789053
    },
    {
      "NoteNumber": 58,
      "Velocity": 34,
      "Duration": 247402,
      "SoundDuration": 247402,
      "Delta": 40789053
    },
    {
      "NoteNumber": 55,
      "Velocity": 30,
      "Duration": 248214,
      "SoundDuration": 248214,
      "Delta": 41036456
    },
    {
      "NoteNumber": 76,
      "Velocity": 59,
      "Duration": 67916,
      "SoundDuration": 67916,
      "Delta": 41160157
    },
    {
      "NoteNumber": 70,
      "Velocity": 53,
      "Duration": 513128,
      "SoundDuration": 513128,
      "Delta": 41295990
    },
    {
      "NoteNumber": 76,
      "Velocity": 63,
      "Duration": 513128,
      "SoundDuration": 513128,
      "Delta": 41295990
    },
    {
      "NoteNumber": 53,
      "Velocity": 40,
      "Duration": 769691,
      "SoundDuration": 769691,
      "Delta": 41295990
    },
    {
      "NoteNumber": 69,
      "Velocity": 48,
      "Duration": 256563,
      "SoundDuration": 256563,
      "Delta": 41809118
    },
    {
      "NoteNumber": 77,
      "Velocity": 57,
      "Duration": 256563,
      "SoundDuration": 256563,
      "Delta": 41809118
    },
    {
      "NoteNumber": 65,
      "Velocity": 35,
      "Duration": 256563,
      "SoundDuration": 256563,
      "Delta": 41809118
    },
    {
      "NoteNumber": 77,
      "Velocity": 43,
      "Duration": 32070,
      "SoundDuration": 32070,
      "Delta": 42290175
    },
    {
      "NoteNumber": 75,
      "Velocity": 50,
      "Duration": 123152,
      "SoundDuration": 123152,
      "Delta": 42322246
    },
    {
      "NoteNumber": 74,
      "Velocity": 46,
      "Duration": 123152,
      "SoundDuration": 123152,
      "Delta": 42445399
    },
    {
      "NoteNumber": 75,
      "Velocity": 54,
      "Duration": 123152,
      "SoundDuration": 123152,
      "Delta": 42568551
    },
    {
      "NoteNumber": 77,
      "Velocity": 51,
      "Duration": 123152,
      "SoundDuration": 123152,
      "Delta": 42691704
    },
    {
      "NoteNumber": 79,
      "Velocity": 59,
      "Duration": 492611,
      "SoundDuration": 492611,
      "Delta": 42814857
    },
    {
      "NoteNumber": 41,
      "Velocity": 37,
      "Duration": 123152,
      "SoundDuration": 123152,
      "Delta": 42938010
    },
    {
      "NoteNumber": 45,
      "Velocity": 38,
      "Duration": 123152,
      "SoundDuration": 123152,
      "Delta": 43061162
    },
    {
      "NoteNumber": 48,
      "Velocity": 39,
      "Duration": 123152,
      "SoundDuration": 123152,
      "Delta": 43184315
    },
    {
      "NoteNumber": 72,
      "Velocity": 50,
      "Duration": 434812,
      "SoundDuration": 434812,
      "Delta": 43307468
    },
    {
      "NoteNumber": 53,
      "Velocity": 40,
      "Duration": 123152,
      "SoundDuration": 123152,
      "Delta": 43307468
    },
    {
      "NoteNumber": 57,
      "Velocity": 41,
      "Duration": 123152,
      "SoundDuration": 123152,
      "Delta": 43430621
    },
    {
      "NoteNumber": 60,
      "Velocity": 42,
      "Duration": 123152,
      "SoundDuration": 123152,
      "Delta": 43553773
    },
    {
      "NoteNumber": 62,
      "Velocity": 43,
      "Duration": 130707,
      "SoundDuration": 130707,
      "Delta": 43676926
    },
    {
      "NoteNumber": 74,
      "Velocity": 43,
      "Duration": 32676,
      "SoundDuration": 32676,
      "Delta": 43774957
    },
    {
      "NoteNumber": 72,
      "Velocity": 50,
      "Duration": 122608,
      "SoundDuration": 122608,
      "Delta": 43807634
    },
    {
      "NoteNumber": 63,
      "Velocity": 48,
      "Duration": 613044,
      "SoundDuration": 613044,
      "Delta": 43807634
    },
    {
      "NoteNumber": 71,
      "Velocity": 46,
      "Duration": 122609,
      "SoundDuration": 122609,
      "Delta": 43930243
    },
    {
      "NoteNumber": 72,
      "Velocity": 54,
      "Duration": 122608,
      "SoundDuration": 122608,
      "Delta": 44052852
    },
    {
      "NoteNumber": 74,
      "Velocity": 51,
      "Duration": 122609,
      "SoundDuration": 122609,
      "Delta": 44175461
    },
    {
      "NoteNumber": 75,
      "Velocity": 59,
      "Duration": 490435,
      "SoundDuration": 490435,
      "Delta": 44298070
    },
    {
      "NoteNumber": 41,
      "Velocity": 37,
      "Duration": 122608,
      "SoundDuration": 122608,
      "Delta": 44420679
    },
    {
      "NoteNumber": 45,
      "Velocity": 41,
      "Duration": 122609,
      "SoundDuration": 122609,
      "Delta": 44543288
    },
    {
      "NoteNumber": 48,
      "Velocity": 43,
      "Duration": 122608,
      "SoundDuration": 122608,
      "Delta": 44665897
    },
    {
      "NoteNumber": 69,
      "Velocity": 50,
      "Duration": 432265,
      "SoundDuration": 432265,
      "Delta": 44788506
    },
    {
      "NoteNumber": 53,
      "Velocity": 44,
      "Duration": 122609,
      "SoundDuration": 122609,
      "Delta": 44788506
    },
    {
      "NoteNumber": 57,
      "Velocity": 46,
      "Duration": 122608,
      "SoundDuration": 122608,
      "Delta": 44911115
    },
    {
      "NoteNumber": 60,
      "Velocity": 48,
      "Duration": 122608,
      "SoundDuration": 122608,
      "Delta": 45033724
    },
    {
      "NoteNumber": 63,
      "Velocity": 49,
      "Duration": 128877,
      "SoundDuration": 128877,
      "Delta": 45156333
    },
    {
      "NoteNumber": 70,
      "Velocity": 43,
      "Duration": 32219,
      "SoundDuration": 32219,
      "Delta": 45252990
    },
    {
      "NoteNumber": 69,
      "Velocity": 50,
      "Duration": 122608,
      "SoundDuration": 122608,
      "Delta": 45285210
    },
    {
      "NoteNumber": 66,
      "Velocity": 55,
      "Duration": 990453,
      "SoundDuration": 990453,
      "Delta": 45285210
    },
    {
      "NoteNumber": 67,
      "Velocity": 46,
      "Duration": 122609,
      "SoundDuration": 122609,
      "Delta": 45407819
    },
    {
      "NoteNumber": 69,
      "Velocity": 52,
      "Duration": 122608,
      "SoundDuration": 122608,
      "Delta": 45530428
    },
    {
      "NoteNumber": 70,
      "Velocity": 48,
      "Duration": 84738,
      "SoundDuration": 84738,
      "Delta": 45653037
    },
    {
      "NoteNumber": 74,
      "Velocity": 43,
      "Duration": 31776,
      "SoundDuration": 31776,
      "Delta": 45748367
    },
    {
      "NoteNumber": 72,
      "Velocity": 53,
      "Duration": 122608,
      "SoundDuration": 122608,
      "Delta": 45780144
    },
    {
      "NoteNumber": 71,
      "Velocity": 50,
      "Duration": 122609,
      "SoundDuration": 122609,
      "Delta": 45902753
    },
    {
      "NoteNumber": 72,
      "Velocity": 54,
      "Duration": 122608,
      "SoundDuration": 122608,
      "Delta": 46025362
    },
    {
      "NoteNumber": 74,
      "Velocity": 51,
      "Duration": 85128,
      "SoundDuration": 85128,
      "Delta": 46147971
    },
    {
      "NoteNumber": 77,
      "Velocity": 43,
      "Duration": 31923,
      "SoundDuration": 31923,
      "Delta": 46243741
    },
    {
      "NoteNumber": 75,
      "Velocity": 57,
      "Duration": 123152,
      "SoundDuration": 123152,
      "Delta": 46275664
    },
    {
      "NoteNumber": 65,
      "Velocity": 38,
      "Duration": 492610,
      "SoundDuration": 492610,
      "Delta": 46275664
    },
    {
      "NoteNumber": 53,
      "Velocity": 38,
      "Duration": 492610,
      "SoundDuration": 492610,
      "Delta": 46275664
    },
    {
      "NoteNumber": 74,
      "Velocity": 52,
      "Duration": 123152,
      "SoundDuration": 123152,
      "Delta": 46398816
    },
    {
      "NoteNumber": 75,
      "Velocity": 58,
      "Duration": 123152,
      "SoundDuration": 123152,
      "Delta": 46521969
    },
    {
      "NoteNumber": 77,
      "Velocity": 55,
      "Duration": 123152,
      "SoundDuration": 123152,
      "Delta": 46645122
    },
    {
      "NoteNumber": 79,
      "Velocity": 61,
      "Duration": 123152,
      "SoundDuration": 123152,
      "Delta": 46768275
    },
    {
      "NoteNumber": 53,
      "Velocity": 32,
      "Duration": 541208,
      "SoundDuration": 541208,
      "Delta": 46768275
    },
    {
      "NoteNumber": 63,
      "Velocity": 32,
      "Duration": 541208,
      "SoundDuration": 541208,
      "Delta": 46768275
    },
    {
      "NoteNumber": 75,
      "Velocity": 59,
      "Duration": 123152,
      "SoundDuration": 123152,
      "Delta": 46891427
    },
    {
      "NoteNumber": 72,
      "Velocity": 52,
      "Duration": 139237,
      "SoundDuration": 139237,
      "Delta": 47014580
    },
    {
      "NoteNumber": 69,
      "Velocity": 42,
      "Duration": 155666,
      "SoundDuration": 155666,
      "Delta": 47153817
    },
    {
      "NoteNumber": 70,
      "Velocity": 50,
      "Duration": 494804,
      "SoundDuration": 494804,
      "Delta": 47309483
    },
    {
      "NoteNumber": 46,
      "Velocity": 40,
      "Duration": 123701,
      "SoundDuration": 123701,
      "Delta": 47309483
    },
    {
      "NoteNumber": 58,
      "Velocity": 29,
      "Duration": 247402,
      "SoundDuration": 247402,
      "Delta": 47556886
    },
    {
      "NoteNumber": 62,
      "Velocity": 34,
      "Duration": 247402,
      "SoundDuration": 247402,
      "Delta": 47804288
    },
    {
      "NoteNumber": 58,
      "Velocity": 29,
      "Duration": 247402,
      "SoundDuration": 247402,
      "Delta": 48051691
    },
    {
      "NoteNumber": 81,
      "Velocity": 46,
      "Duration": 30925,
      "SoundDuration": 30925,
      "Delta": 48268168
    },
    {
      "NoteNumber": 79,
      "Velocity": 50,
      "Duration": 123701,
      "SoundDuration": 123701,
      "Delta": 48299093
    },
    {
      "NoteNumber": 63,
      "Velocity": 34,
      "Duration": 247402,
      "SoundDuration": 247402,
      "Delta": 48299093
    },
    {
      "NoteNumber": 78,
      "Velocity": 45,
      "Duration": 123701,
      "SoundDuration": 123701,
      "Delta": 48422795
    },
    {
      "NoteNumber": 79,
      "Velocity": 50,
      "Duration": 129477,
      "SoundDuration": 129477,
      "Delta": 48546496
    },
    {
      "NoteNumber": 58,
      "Velocity": 31,
      "Duration": 258955,
      "SoundDuration": 258955,
      "Delta": 48546496
    },
    {
      "NoteNumber": 81,
      "Velocity": 43,
      "Duration": 129477,
      "SoundDuration": 129477,
      "Delta": 48675974
    },
    {
      "NoteNumber": 82,
      "Velocity": 50,
      "Duration": 492610,
      "SoundDuration": 492610,
      "Delta": 48805451
    },
    {
      "NoteNumber": 62,
      "Velocity": 40,
      "Duration": 246305,
      "SoundDuration": 246305,
      "Delta": 48805451
    },
    {
      "NoteNumber": 61,
      "Velocity": 30,
      "Duration": 246305,
      "SoundDuration": 246305,
      "Delta": 49051757
    },
    {
      "NoteNumber": 77,
      "Velocity": 41,
      "Duration": 431034,
      "SoundDuration": 431034,
      "Delta": 49298062
    },
    {
      "NoteNumber": 62,
      "Velocity": 34,
      "Duration": 246305,
      "SoundDuration": 246305,
      "Delta": 49298062
    },
    {
      "NoteNumber": 58,
      "Velocity": 30,
      "Duration": 246305,
      "SoundDuration": 246305,
      "Delta": 49544368
    },
    {
      "NoteNumber": 69,
      "Velocity": 43,
      "Duration": 30788,
      "SoundDuration": 30788,
      "Delta": 49759885
    },
    {
      "NoteNumber": 75,
      "Velocity": 41,
      "Duration": 504059,
      "SoundDuration": 504059,
      "Delta": 49790673
    },
    {
      "NoteNumber": 67,
      "Velocity": 50,
      "Duration": 123152,
      "SoundDuration": 123152,
      "Delta": 49790673
    },
    {
      "NoteNumber": 60,
      "Velocity": 34,
      "Duration": 246305,
      "SoundDuration": 246305,
      "Delta": 49790673
    },
    {
      "NoteNumber": 65,
      "Velocity": 46,
      "Duration": 123152,
      "SoundDuration": 123152,
      "Delta": 49913826
    },
    {
      "NoteNumber": 67,
      "Velocity": 50,
      "Duration": 128877,
      "SoundDuration": 128877,
      "Delta": 50036979
    },
    {
      "NoteNumber": 53,
      "Velocity": 29,
      "Duration": 257753,
      "SoundDuration": 257753,
      "Delta": 50036979
    },
    {
      "NoteNumber": 69,
      "Velocity": 46,
      "Duration": 128876,
      "SoundDuration": 128876,
      "Delta": 50165856
    },
    {
      "NoteNumber": 74,
      "Velocity": 44,
      "Duration": 492610,
      "SoundDuration": 492610,
      "Delta": 50294733
    },
    {
      "NoteNumber": 70,
      "Velocity": 50,
      "Duration": 492610,
      "SoundDuration": 492610,
      "Delta": 50294733
    },
    {
      "NoteNumber": 58,
      "Velocity": 40,
      "Duration": 246305,
      "SoundDuration": 246305,
      "Delta": 50294733
    },
    {
      "NoteNumber": 46,
      "Velocity": 30,
      "Duration": 246305,
      "SoundDuration": 246305,
      "Delta": 50541038
    },
    {
      "NoteNumber": 65,
      "Velocity": 41,
      "Duration": 246305,
      "SoundDuration": 246305,
      "Delta": 50787344
    },
    {
      "NoteNumber": 50,
      "Velocity": 34,
      "Duration": 246305,
      "SoundDuration": 246305,
      "Delta": 50787344
    },
    {
      "NoteNumber": 46,
      "Velocity": 30,
      "Duration": 246305,
      "SoundDuration": 246305,
      "Delta": 51033649
    },
    {
      "NoteNumber": 69,
      "Velocity": 43,
      "Duration": 30788,
      "SoundDuration": 30788,
      "Delta": 51249167
    },
    {
      "NoteNumber": 67,
      "Velocity": 50,
      "Duration": 123152,
      "SoundDuration": 123152,
      "Delta": 51279955
    },
    {
      "NoteNumber": 51,
      "Velocity": 34,
      "Duration": 246305,
      "SoundDuration": 246305,
      "Delta": 51279955
    },
    {
      "NoteNumber": 66,
      "Velocity": 46,
      "Duration": 123152,
      "SoundDuration": 123152,
      "Delta": 51403108
    },
    {
      "NoteNumber": 67,
      "Velocity": 50,
      "Duration": 128877,
      "SoundDuration": 128877,
      "Delta": 51526260
    },
    {
      "NoteNumber": 46,
      "Velocity": 29,
      "Duration": 257753,
      "SoundDuration": 257753,
      "Delta": 51526260
    },
    {
      "NoteNumber": 69,
      "Velocity": 46,
      "Duration": 128876,
      "SoundDuration": 128876,
      "Delta": 51655137
    },
    {
      "NoteNumber": 70,
      "Velocity": 50,
      "Duration": 492610,
      "SoundDuration": 492610,
      "Delta": 51784014
    },
    {
      "NoteNumber": 50,
      "Velocity": 40,
      "Duration": 246305,
      "SoundDuration": 246305,
      "Delta": 51784014
    },
    {
      "NoteNumber": 49,
      "Velocity": 30,
      "Duration": 246305,
      "SoundDuration": 246305,
      "Delta": 52030320
    },
    {
      "NoteNumber": 65,
      "Velocity": 41,
      "Duration": 431034,
      "SoundDuration": 431034,
      "Delta": 52276625
    },
    {
      "NoteNumber": 50,
      "Velocity": 34,
      "Duration": 246305,
      "SoundDuration": 246305,
      "Delta": 52276625
    },
    {
      "NoteNumber": 46,
      "Velocity": 30,
      "Duration": 246305,
      "SoundDuration": 246305,
      "Delta": 52522931
    },
    {
      "NoteNumber": 57,
      "Velocity": 36,
      "Duration": 30788,
      "SoundDuration": 30788,
      "Delta": 52738448
    },
    {
      "NoteNumber": 63,
      "Velocity": 34,
      "Duration": 504059,
      "SoundDuration": 504059,
      "Delta": 52769236
    },
    {
      "NoteNumber": 55,
      "Velocity": 42,
      "Duration": 123152,
      "SoundDuration": 123152,
      "Delta": 52769236
    },
    {
      "NoteNumber": 48,
      "Velocity": 34,
      "Duration": 246305,
      "SoundDuration": 246305,
      "Delta": 52769236
    },
    {
      "NoteNumber": 53,
      "Velocity": 39,
      "Duration": 123152,
      "SoundDuration": 123152,
      "Delta": 52892389
    },
    {
      "NoteNumber": 55,
      "Velocity": 42,
      "Duration": 128877,
      "SoundDuration": 128877,
      "Delta": 53015542
    },
    {
      "NoteNumber": 41,
      "Velocity": 29,
      "Duration": 257753,
      "SoundDuration": 257753,
      "Delta": 53015542
    },
    {
      "NoteNumber": 57,
      "Velocity": 39,
      "Duration": 128876,
      "SoundDuration": 128876,
      "Delta": 53144419
    },
    {
      "NoteNumber": 62,
      "Velocity": 34,
      "Duration": 514076,
      "SoundDuration": 514076,
      "Delta": 53273296
    },
    {
      "NoteNumber": 58,
      "Velocity": 42,
      "Duration": 257753,
      "SoundDuration": 257753,
      "Delta": 53273296
    },
    {
      "NoteNumber": 46,
      "Velocity": 40,
      "Duration": 257753,
      "SoundDuration": 257753,
      "Delta": 53273296
    },
    {
      "NoteNumber": 53,
      "Velocity": 33,
      "Duration": 214795,
      "SoundDuration": 214795,
      "Delta": 53531050
    },
    {
      "NoteNumber": 50,
      "Velocity": 30,
      "Duration": 256322,
      "SoundDuration": 256322,
      "Delta": 53531050
    },
    {
      "NoteNumber": 57,
      "Velocity": 37,
      "Duration": 30788,
      "SoundDuration": 30788,
      "Delta": 53756585
    },
    {
      "NoteNumber": 63,
      "Velocity": 39,
      "Duration": 504059,
      "SoundDuration": 504059,
      "Delta": 53787373
    },
    {
      "NoteNumber": 55,
      "Velocity": 43,
      "Duration": 123152,
      "SoundDuration": 123152,
      "Delta": 53787373
    },
    {
      "NoteNumber": 48,
      "Velocity": 35,
      "Duration": 246305,
      "SoundDuration": 246305,
      "Delta": 53787373
    },
    {
      "NoteNumber": 53,
      "Velocity": 40,
      "Duration": 123152,
      "SoundDuration": 123152,
      "Delta": 53910526
    },
    {
      "NoteNumber": 55,
      "Velocity": 44,
      "Duration": 128877,
      "SoundDuration": 128877,
      "Delta": 54033678
    },
    {
      "NoteNumber": 41,
      "Velocity": 31,
      "Duration": 257753,
      "SoundDuration": 257753,
      "Delta": 54033678
    },
    {
      "NoteNumber": 57,
      "Velocity": 40,
      "Duration": 128876,
      "SoundDuration": 128876,
      "Delta": 54162555
    },
    {
      "NoteNumber": 62,
      "Velocity": 36,
      "Duration": 514076,
      "SoundDuration": 514076,
      "Delta": 54291432
    },
    {
      "NoteNumber": 58,
      "Velocity": 44,
      "Duration": 257753,
      "SoundDuration": 257753,
      "Delta": 54291432
    },
    {
      "NoteNumber": 46,
      "Velocity": 36,
      "Duration": 257753,
      "SoundDuration": 257753,
      "Delta": 54291432
    },
    {
      "NoteNumber": 53,
      "Velocity": 34,
      "Duration": 193315,
      "SoundDuration": 193315,
      "Delta": 54549186
    },
    {
      "NoteNumber": 50,
      "Velocity": 31,
      "Duration": 256322,
      "SoundDuration": 256322,
      "Delta": 54549186
    },
    {
      "NoteNumber": 57,
      "Velocity": 39,
      "Duration": 30788,
      "SoundDuration": 30788,
      "Delta": 54774721
    },
    {
      "NoteNumber": 63,
      "Velocity": 44,
      "Duration": 504059,
      "SoundDuration": 504059,
      "Delta": 54805509
    },
    {
      "NoteNumber": 55,
      "Velocity": 46,
      "Duration": 123152,
      "SoundDuration": 123152,
      "Delta": 54805509
    },
    {
      "NoteNumber": 48,
      "Velocity": 44,
      "Duration": 246305,
      "SoundDuration": 246305,
      "Delta": 54805509
    },
    {
      "NoteNumber": 53,
      "Velocity": 43,
      "Duration": 123152,
      "SoundDuration": 123152,
      "Delta": 54928662
    },
    {
      "NoteNumber": 55,
      "Velocity": 47,
      "Duration": 128877,
      "SoundDuration": 128877,
      "Delta": 55051815
    },
    {
      "NoteNumber": 41,
      "Velocity": 33,
      "Duration": 257753,
      "SoundDuration": 257753,
      "Delta": 55051815
    },
    {
      "NoteNumber": 57,
      "Velocity": 44,
      "Duration": 128876,
      "SoundDuration": 128876,
      "Delta": 55180692
    },
    {
      "NoteNumber": 62,
      "Velocity": 42,
      "Duration": 248508,
      "SoundDuration": 248508,
      "Delta": 55309569
    },
    {
      "NoteNumber": 58,
      "Velocity": 48,
      "Duration": 124254,
      "SoundDuration": 124254,
      "Delta": 55309569
    },
    {
      "NoteNumber": 46,
      "Velocity": 45,
      "Duration": 124254,
      "SoundDuration": 124254,
      "Delta": 55309569
    },
    {
      "NoteNumber": 53,
      "Velocity": 41,
      "Duration": 124254,
      "SoundDuration": 124254,
      "Delta": 55433823
    },
    {
      "NoteNumber": 50,
      "Velocity": 37,
      "Duration": 124254,
      "SoundDuration": 124254,
      "Delta": 55433823
    },
    {
      "NoteNumber": 63,
      "Velocity": 40,
      "Duration": 248508,
      "SoundDuration": 248508,
      "Delta": 55558078
    },
    {
      "NoteNumber": 57,
      "Velocity": 50,
      "Duration": 124254,
      "SoundDuration": 124254,
      "Delta": 55558078
    },
    {
      "NoteNumber": 41,
      "Velocity": 46,
      "Duration": 124254,
      "SoundDuration": 124254,
      "Delta": 55558078
    },
    {
      "NoteNumber": 53,
      "Velocity": 43,
      "Duration": 124254,
      "SoundDuration": 124254,
      "Delta": 55682332
    },
    {
      "NoteNumber": 48,
      "Velocity": 39,
      "Duration": 124254,
      "SoundDuration": 124254,
      "Delta": 55682332
    },
    {
      "NoteNumber": 62,
      "Velocity": 49,
      "Duration": 248509,
      "SoundDuration": 248509,
      "Delta": 55806587
    },
    {
      "NoteNumber": 58,
      "Velocity": 51,
      "Duration": 124254,
      "SoundDuration": 124254,
      "Delta": 55806587
    },
    {
      "NoteNumber": 46,
      "Velocity": 47,
      "Duration": 124254,
      "SoundDuration": 124254,
      "Delta": 55806587
    },
    {
      "NoteNumber": 53,
      "Velocity": 46,
      "Duration": 124254,
      "SoundDuration": 124254,
      "Delta": 55930841
    },
    {
      "NoteNumber": 50,
      "Velocity": 41,
      "Duration": 124254,
      "SoundDuration": 124254,
      "Delta": 55930841
    },
    {
      "NoteNumber": 63,
      "Velocity": 42,
      "Duration": 262109,
      "SoundDuration": 262109,
      "Delta": 56055096
    },
    {
      "NoteNumber": 57,
      "Velocity": 52,
      "Duration": 124254,
      "SoundDuration": 124254,
      "Delta": 56055096
    },
    {
      "NoteNumber": 41,
      "Velocity": 49,
      "Duration": 124254,
      "SoundDuration": 124254,
      "Delta": 56055096
    },
    {
      "NoteNumber": 53,
      "Velocity": 47,
      "Duration": 137855,
      "SoundDuration": 137855,
      "Delta": 56179350
    },
    {
      "NoteNumber": 48,
      "Velocity": 43,
      "Duration": 137855,
      "SoundDuration": 137855,
      "Delta": 56179350
    },
    {
      "NoteNumber": 58,
      "Velocity": 34,
      "Duration": 124254,
      "SoundDuration": 124254,
      "Delta": 56317205
    },
    {
      "NoteNumber": 62,
      "Velocity": 40,
      "Duration": 124254,
      "SoundDuration": 124254,
      "Delta": 56317205
    },
    {
      "NoteNumber": 46,
      "Velocity": 24,
      "Duration": 124254,
      "SoundDuration": 124254,
      "Delta": 56317205
    },
    {
      "NoteNumber": 50,
      "Velocity": 30,
      "Duration": 124254,
      "SoundDuration": 124254,
      "Delta": 56317205
    },
    {
      "NoteNumber": 62,
      "Velocity": 34,
      "Duration": 124254,
      "SoundDuration": 124254,
      "Delta": 56814223
    },
    {
      "NoteNumber": 70,
      "Velocity": 40,
      "Duration": 124254,
      "SoundDuration": 124254,
      "Delta": 56814223
    },
    {
      "NoteNumber": 34,
      "Velocity": 24,
      "Duration": 124254,
      "SoundDuration": 124254,
      "Delta": 56814223
    },
    {
      "NoteNumber": 46,
      "Velocity": 30,
      "Duration": 124254,
      "SoundDuration": 124254,
      "Delta": 56814223
    },
    {
      "NoteNumber": 69,
      "Velocity": 38,
      "Duration": 124792,
      "SoundDuration": 124792,
      "Delta": 57311241
    },
    {
      "NoteNumber": 74,
      "Velocity": 46,
      "Duration": 124792,
      "SoundDuration": 124792,
      "Delta": 57311241
    },
    {
      "NoteNumber": 66,
      "Velocity": 38,
      "Duration": 124792,
      "SoundDuration": 124792,
      "Delta": 57311241
    },
    {
      "NoteNumber": 70,
      "Velocity": 34,
      "Duration": 123784,
      "SoundDuration": 123784,
      "Delta": 57436034
    },
    {
      "NoteNumber": 73,
      "Velocity": 41,
      "Duration": 123784,
      "SoundDuration": 123784,
      "Delta": 57436034
    },
    {
      "NoteNumber": 67,
      "Velocity": 33,
      "Duration": 123784,
      "SoundDuration": 123784,
      "Delta": 57436034
    },
    {
      "NoteNumber": 69,
      "Velocity": 42,
      "Duration": 122893,
      "SoundDuration": 122893,
      "Delta": 57559818
    },
    {
      "NoteNumber": 74,
      "Velocity": 50,
      "Duration": 122893,
      "SoundDuration": 122893,
      "Delta": 57559818
    },
    {
      "NoteNumber": 66,
      "Velocity": 42,
      "Duration": 122893,
      "SoundDuration": 122893,
      "Delta": 57559818
    },
    {
      "NoteNumber": 70,
      "Velocity": 34,
      "Duration": 121779,
      "SoundDuration": 121779,
      "Delta": 57682711
    },
    {
      "NoteNumber": 73,
      "Velocity": 40,
      "Duration": 121779,
      "SoundDuration": 121779,
      "Delta": 57682711
    },
    {
      "NoteNumber": 67,
      "Velocity": 38,
      "Duration": 121779,
      "SoundDuration": 121779,
      "Delta": 57682711
    },
    {
      "NoteNumber": 69,
      "Velocity": 45,
      "Duration": 120547,
      "SoundDuration": 120547,
      "Delta": 57804491
    },
    {
      "NoteNumber": 74,
      "Velocity": 53,
      "Duration": 120547,
      "SoundDuration": 120547,
      "Delta": 57804491
    },
    {
      "NoteNumber": 66,
      "Velocity": 45,
      "Duration": 120547,
      "SoundDuration": 120547,
      "Delta": 57804491
    },
    {
      "NoteNumber": 70,
      "Velocity": 40,
      "Duration": 119360,
      "SoundDuration": 119360,
      "Delta": 57925038
    },
    {
      "NoteNumber": 73,
      "Velocity": 49,
      "Duration": 119360,
      "SoundDuration": 119360,
      "Delta": 57925038
    },
    {
      "NoteNumber": 67,
      "Velocity": 39,
      "Duration": 119360,
      "SoundDuration": 119360,
      "Delta": 57925038
    },
    {
      "NoteNumber": 69,
      "Velocity": 48,
      "Duration": 118173,
      "SoundDuration": 118173,
      "Delta": 58044399
    },
    {
      "NoteNumber": 74,
      "Velocity": 57,
      "Duration": 118173,
      "SoundDuration": 118173,
      "Delta": 58044399
    },
    {
      "NoteNumber": 66,
      "Velocity": 48,
      "Duration": 118173,
      "SoundDuration": 118173,
      "Delta": 58044399
    },
    {
      "NoteNumber": 70,
      "Velocity": 39,
      "Duration": 117192,
      "SoundDuration": 117192,
      "Delta": 58162572
    },
    {
      "NoteNumber": 73,
      "Velocity": 47,
      "Duration": 117192,
      "SoundDuration": 117192,
      "Delta": 58162572
    },
    {
      "NoteNumber": 67,
      "Velocity": 45,
      "Duration": 117192,
      "SoundDuration": 117192,
      "Delta": 58162572
    },
    {
      "NoteNumber": 69,
      "Velocity": 52,
      "Duration": 116278,
      "SoundDuration": 116278,
      "Delta": 58279765
    },
    {
      "NoteNumber": 74,
      "Velocity": 62,
      "Duration": 116278,
      "SoundDuration": 116278,
      "Delta": 58279765
    },
    {
      "NoteNumber": 66,
      "Velocity": 52,
      "Duration": 116278,
      "SoundDuration": 116278,
      "Delta": 58279765
    },
    {
      "NoteNumber": 70,
      "Velocity": 47,
      "Duration": 116693,
      "SoundDuration": 116693,
      "Delta": 58396044
    },
    {
      "NoteNumber": 73,
      "Velocity": 56,
      "Duration": 116693,
      "SoundDuration": 116693,
      "Delta": 58396044
    },
    {
      "NoteNumber": 67,
      "Velocity": 45,
      "Duration": 116693,
      "SoundDuration": 116693,
      "Delta": 58396044
    },
    {
      "NoteNumber": 69,
      "Velocity": 55,
      "Duration": 117168,
      "SoundDuration": 117168,
      "Delta": 58512738
    },
    {
      "NoteNumber": 74,
      "Velocity": 66,
      "Duration": 117168,
      "SoundDuration": 117168,
      "Delta": 58512738
    },
    {
      "NoteNumber": 66,
      "Velocity": 55,
      "Duration": 117168,
      "SoundDuration": 117168,
      "Delta": 58512738
    },
    {
      "NoteNumber": 70,
      "Velocity": 46,
      "Duration": 117666,
      "SoundDuration": 117666,
      "Delta": 58629906
    },
    {
      "NoteNumber": 73,
      "Velocity": 54,
      "Duration": 117666,
      "SoundDuration": 117666,
      "Delta": 58629906
    },
    {
      "NoteNumber": 67,
      "Velocity": 52,
      "Duration": 117666,
      "SoundDuration": 117666,
      "Delta": 58629906
    },
    {
      "NoteNumber": 69,
      "Velocity": 59,
      "Duration": 118145,
      "SoundDuration": 118145,
      "Delta": 58747573
    },
    {
      "NoteNumber": 74,
      "Velocity": 71,
      "Duration": 118145,
      "SoundDuration": 118145,
      "Delta": 58747573
    },
    {
      "NoteNumber": 66,
      "Velocity": 59,
      "Duration": 118145,
      "SoundDuration": 118145,
      "Delta": 58747573
    },
    {
      "NoteNumber": 70,
      "Velocity": 53,
      "Duration": 118631,
      "SoundDuration": 118631,
      "Delta": 58865718
    },
    {
      "NoteNumber": 73,
      "Velocity": 63,
      "Duration": 118631,
      "SoundDuration": 118631,
      "Delta": 58865718
    },
    {
      "NoteNumber": 67,
      "Velocity": 51,
      "Duration": 118631,
      "SoundDuration": 118631,
      "Delta": 58865718
    },
    {
      "NoteNumber": 69,
      "Velocity": 63,
      "Duration": 118515,
      "SoundDuration": 118515,
      "Delta": 58984350
    },
    {
      "NoteNumber": 74,
      "Velocity": 75,
      "Duration": 118515,
      "SoundDuration": 118515,
      "Delta": 58984350
    },
    {
      "NoteNumber": 66,
      "Velocity": 63,
      "Duration": 118515,
      "SoundDuration": 118515,
      "Delta": 58984350
    },
    {
      "NoteNumber": 70,
      "Velocity": 52,
      "Duration": 139237,
      "SoundDuration": 139237,
      "Delta": 59102866
    },
    {
      "NoteNumber": 73,
      "Velocity": 61,
      "Duration": 139237,
      "SoundDuration": 139237,
      "Delta": 59102866
    },
    {
      "NoteNumber": 67,
      "Velocity": 58,
      "Duration": 139237,
      "SoundDuration": 139237,
      "Delta": 59102866
    },
    {
      "NoteNumber": 69,
      "Velocity": 83,
      "Duration": 251910,
      "SoundDuration": 251910,
      "Delta": 59242103
    },
    {
      "NoteNumber": 74,
      "Velocity": 83,
      "Duration": 251910,
      "SoundDuration": 251910,
      "Delta": 59242103
    },
    {
      "NoteNumber": 66,
      "Velocity": 70,
      "Duration": 251910,
      "SoundDuration": 251910,
      "Delta": 59242103
    },
    {
      "NoteNumber": 86,
      "Velocity": 100,
      "Duration": 755731,
      "SoundDuration": 755731,
      "Delta": 59745924
    },
    {
      "NoteNumber": 78,
      "Velocity": 84,
      "Duration": 755731,
      "SoundDuration": 755731,
      "Delta": 59745924
    },
    {
      "NoteNumber": 50,
      "Velocity": 62,
      "Duration": 755731,
      "SoundDuration": 755731,
      "Delta": 59745924
    },
    {
      "NoteNumber": 62,
      "Velocity": 74,
      "Duration": 755731,
      "SoundDuration": 755731,
      "Delta": 59745924
    },
    {
      "NoteNumber": 84,
      "Velocity": 75,
      "Duration": 125955,
      "SoundDuration": 125955,
      "Delta": 60501655
    },
    {
      "NoteNumber": 78,
      "Velocity": 63,
      "Duration": 125955,
      "SoundDuration": 125955,
      "Delta": 60501655
    },
    {
      "NoteNumber": 50,
      "Velocity": 46,
      "Duration": 125955,
      "SoundDuration": 125955,
      "Delta": 60501655
    },
    {
      "NoteNumber": 62,
      "Velocity": 56,
      "Duration": 125955,
      "SoundDuration": 125955,
      "Delta": 60501655
    },
    {
      "NoteNumber": 82,
      "Velocity": 91,
      "Duration": 245901,
      "SoundDuration": 245901,
      "Delta": 60753566
    },
    {
      "NoteNumber": 79,
      "Velocity": 77,
      "Duration": 245901,
      "SoundDuration": 245901,
      "Delta": 60753566
    },
    {
      "NoteNumber": 51,
      "Velocity": 57,
      "Duration": 245901,
      "SoundDuration": 245901,
      "Delta": 60753566
    },
    {
      "NoteNumber": 63,
      "Velocity": 68,
      "Duration": 245901,
      "SoundDuration": 245901,
      "Delta": 60753566
    },
    {
      "NoteNumber": 81,
      "Velocity": 73,
      "Duration": 68587,
      "SoundDuration": 68587,
      "Delta": 61122418
    },
    {
      "NoteNumber": 75,
      "Velocity": 61,
      "Duration": 68587,
      "SoundDuration": 68587,
      "Delta": 61122418
    },
    {
      "NoteNumber": 48,
      "Velocity": 45,
      "Duration": 68587,
      "SoundDuration": 68587,
      "Delta": 61122418
    },
    {
      "NoteNumber": 60,
      "Velocity": 53,
      "Duration": 68587,
      "SoundDuration": 68587,
      "Delta": 61122418
    },
    {
      "NoteNumber": 70,
      "Velocity": 72,
      "Duration": 247402,
      "SoundDuration": 247402,
      "Delta": 61259592
    },
    {
      "NoteNumber": 79,
      "Velocity": 85,
      "Duration": 247402,
      "SoundDuration": 247402,
      "Delta": 61259592
    },
    {
      "NoteNumber": 50,
      "Velocity": 53,
      "Duration": 247402,
      "SoundDuration": 247402,
      "Delta": 61259592
    },
    {
      "NoteNumber": 62,
      "Velocity": 63,
      "Duration": 247402,
      "SoundDuration": 247402,
      "Delta": 61259592
    },
    {
      "NoteNumber": 72,
      "Velocity": 69,
      "Duration": 247402,
      "SoundDuration": 247402,
      "Delta": 61754397
    },
    {
      "NoteNumber": 78,
      "Velocity": 81,
      "Duration": 247402,
      "SoundDuration": 247402,
      "Delta": 61754397
    },
    {
      "NoteNumber": 38,
      "Velocity": 51,
      "Duration": 247402,
      "SoundDuration": 247402,
      "Delta": 61754397
    },
    {
      "NoteNumber": 50,
      "Velocity": 61,
      "Duration": 247402,
      "SoundDuration": 247402,
      "Delta": 61754397
    },
    {
      "NoteNumber": 72,
      "Velocity": 69,
      "Duration": 508431,
      "SoundDuration": 508431,
      "Delta": 62277510
    },
    {
      "NoteNumber": 81,
      "Velocity": 82,
      "Duration": 508431,
      "SoundDuration": 508431,
      "Delta": 62277510
    },
    {
      "NoteNumber": 43,
      "Velocity": 51,
      "Duration": 762646,
      "SoundDuration": 762646,
      "Delta": 62277510
    },
    {
      "NoteNumber": 55,
      "Velocity": 61,
      "Duration": 762646,
      "SoundDuration": 762646,
      "Delta": 62277510
    },
    {
      "NoteNumber": 70,
      "Velocity": 61,
      "Duration": 254215,
      "SoundDuration": 254215,
      "Delta": 62785941
    },
    {
      "NoteNumber": 79,
      "Velocity": 72,
      "Duration": 254215,
      "SoundDuration": 254215,
      "Delta": 62785941
    },
    {
      "NoteNumber": 56,
      "Velocity": 25,
      "Duration": 126531,
      "SoundDuration": 126531,
      "Delta": 63294031
    },
    {
      "NoteNumber": 58,
      "Velocity": 30,
      "Duration": 126531,
      "SoundDuration": 126531,
      "Delta": 63294031
    },
    {
      "NoteNumber": 50,
      "Velocity": 25,
      "Duration": 126531,
      "SoundDuration": 126531,
      "Delta": 63294031
    },
    {
      "NoteNumber": 59,
      "Velocity": 27,
      "Duration": 124903,
      "SoundDuration": 124903,
      "Delta": 63419525
    },
    {
      "NoteNumber": 51,
      "Velocity": 22,
      "Duration": 124903,
      "SoundDuration": 124903,
      "Delta": 63419525
    },
    {
      "NoteNumber": 56,
      "Velocity": 27,
      "Duration": 123317,
      "SoundDuration": 123317,
      "Delta": 63543404
    },
    {
      "NoteNumber": 58,
      "Velocity": 33,
      "Duration": 123317,
      "SoundDuration": 123317,
      "Delta": 63543404
    },
    {
      "NoteNumber": 50,
      "Velocity": 27,
      "Duration": 123317,
      "SoundDuration": 123317,
      "Delta": 63543404
    },
    {
      "NoteNumber": 59,
      "Velocity": 27,
      "Duration": 121843,
      "SoundDuration": 121843,
      "Delta": 63665709
    },
    {
      "NoteNumber": 51,
      "Velocity": 24,
      "Duration": 121843,
      "SoundDuration": 121843,
      "Delta": 63665709
    },
    {
      "NoteNumber": 56,
      "Velocity": 29,
      "Duration": 121289,
      "SoundDuration": 121289,
      "Delta": 63786548
    },
    {
      "NoteNumber": 58,
      "Velocity": 35,
      "Duration": 121289,
      "SoundDuration": 121289,
      "Delta": 63786548
    },
    {
      "NoteNumber": 50,
      "Velocity": 29,
      "Duration": 121289,
      "SoundDuration": 121289,
      "Delta": 63786548
    },
    {
      "NoteNumber": 59,
      "Velocity": 32,
      "Duration": 120633,
      "SoundDuration": 120633,
      "Delta": 63906838
    },
    {
      "NoteNumber": 51,
      "Velocity": 25,
      "Duration": 120633,
      "SoundDuration": 120633,
      "Delta": 63906838
    },
    {
      "NoteNumber": 56,
      "Velocity": 32,
      "Duration": 119906,
      "SoundDuration": 119906,
      "Delta": 64026475
    },
    {
      "NoteNumber": 58,
      "Velocity": 37,
      "Duration": 119906,
      "SoundDuration": 119906,
      "Delta": 64026475
    },
    {
      "NoteNumber": 50,
      "Velocity": 32,
      "Duration": 119906,
      "SoundDuration": 119906,
      "Delta": 64026475
    },
    {
      "NoteNumber": 59,
      "Velocity": 30,
      "Duration": 119223,
      "SoundDuration": 119223,
      "Delta": 64145393
    },
    {
      "NoteNumber": 51,
      "Velocity": 29,
      "Duration": 119223,
      "SoundDuration": 119223,
      "Delta": 64145393
    },
    {
      "NoteNumber": 56,
      "Velocity": 34,
      "Duration": 118816,
      "SoundDuration": 118816,
      "Delta": 64263636
    },
    {
      "NoteNumber": 58,
      "Velocity": 41,
      "Duration": 118816,
      "SoundDuration": 118816,
      "Delta": 64263636
    },
    {
      "NoteNumber": 50,
      "Velocity": 34,
      "Duration": 118816,
      "SoundDuration": 118816,
      "Delta": 64263636
    },
    {
      "NoteNumber": 59,
      "Velocity": 38,
      "Duration": 119737,
      "SoundDuration": 119737,
      "Delta": 64381468
    },
    {
      "NoteNumber": 51,
      "Velocity": 30,
      "Duration": 119737,
      "SoundDuration": 119737,
      "Delta": 64381468
    },
    {
      "NoteNumber": 56,
      "Velocity": 37,
      "Duration": 120733,
      "SoundDuration": 120733,
      "Delta": 64500214
    },
    {
      "NoteNumber": 58,
      "Velocity": 44,
      "Duration": 120733,
      "SoundDuration": 120733,
      "Delta": 64500214
    },
    {
      "NoteNumber": 50,
      "Velocity": 37,
      "Duration": 120733,
      "SoundDuration": 120733,
      "Delta": 64500214
    },
    {
      "NoteNumber": 59,
      "Velocity": 35,
      "Duration": 121765,
      "SoundDuration": 121765,
      "Delta": 64619943
    },
    {
      "NoteNumber": 51,
      "Velocity": 34,
      "Duration": 121765,
      "SoundDuration": 121765,
      "Delta": 64619943
    },
    {
      "NoteNumber": 56,
      "Velocity": 39,
      "Duration": 122790,
      "SoundDuration": 122790,
      "Delta": 64740697
    },
    {
      "NoteNumber": 58,
      "Velocity": 46,
      "Duration": 122790,
      "SoundDuration": 122790,
      "Delta": 64740697
    },
    {
      "NoteNumber": 50,
      "Velocity": 39,
      "Duration": 122790,
      "SoundDuration": 122790,
      "Delta": 64740697
    },
    {
      "NoteNumber": 59,
      "Velocity": 42,
      "Duration": 123837,
      "SoundDuration": 123837,
      "Delta": 64862467
    },
    {
      "NoteNumber": 51,
      "Velocity": 34,
      "Duration": 123837,
      "SoundDuration": 123837,
      "Delta": 64862467
    },
    {
      "NoteNumber": 56,
      "Velocity": 42,
      "Duration": 124876,
      "SoundDuration": 124876,
      "Delta": 64985276
    },
    {
      "NoteNumber": 58,
      "Velocity": 50,
      "Duration": 124876,
      "SoundDuration": 124876,
      "Delta": 64985276
    },
    {
      "NoteNumber": 50,
      "Velocity": 42,
      "Duration": 124876,
      "SoundDuration": 124876,
      "Delta": 64985276
    },
    {
      "NoteNumber": 59,
      "Velocity": 41,
      "Duration": 140286,
      "SoundDuration": 140286,
      "Delta": 65108993
    },
    {
      "NoteNumber": 51,
      "Velocity": 38,
      "Duration": 140286,
      "SoundDuration": 140286,
      "Delta": 65108993
    },
    {
      "NoteNumber": 56,
      "Velocity": 65,
      "Duration": 251910,
      "SoundDuration": 251910,
      "Delta": 65248230
    },
    {
      "NoteNumber": 58,
      "Velocity": 65,
      "Duration": 251910,
      "SoundDuration": 251910,
      "Delta": 65248230
    },
    {
      "NoteNumber": 50,
      "Velocity": 54,
      "Duration": 251910,
      "SoundDuration": 251910,
      "Delta": 65248230
    },
    {
      "NoteNumber": 80,
      "Velocity": 85,
      "Duration": 755731,
      "SoundDuration": 755731,
      "Delta": 65752051
    },
    {
      "NoteNumber": 71,
      "Velocity": 72,
      "Duration": 755731,
      "SoundDuration": 755731,
      "Delta": 65752051
    },
    {
      "NoteNumber": 50,
      "Velocity": 53,
      "Duration": 755731,
      "SoundDuration": 755731,
      "Delta": 65752051
    },
    {
      "NoteNumber": 53,
      "Velocity": 64,
      "Duration": 755731,
      "SoundDuration": 755731,
      "Delta": 65752051
    },
    {
      "NoteNumber": 79,
      "Velocity": 59,
      "Duration": 251910,
      "SoundDuration": 251910,
      "Delta": 66507782
    },
    {
      "NoteNumber": 72,
      "Velocity": 49,
      "Duration": 251910,
      "SoundDuration": 251910,
      "Delta": 66507782
    },
    {
      "NoteNumber": 51,
      "Velocity": 36,
      "Duration": 251910,
      "SoundDuration": 251910,
      "Delta": 66507782
    },
    {
      "NoteNumber": 55,
      "Velocity": 43,
      "Duration": 251910,
      "SoundDuration": 251910,
      "Delta": 66507782
    },
    {
      "NoteNumber": 77,
      "Velocity": 70,
      "Duration": 365853,
      "SoundDuration": 365853,
      "Delta": 66759693
    },
    {
      "NoteNumber": 68,
      "Velocity": 58,
      "Duration": 365853,
      "SoundDuration": 365853,
      "Delta": 66759693
    },
    {
      "NoteNumber": 47,
      "Velocity": 43,
      "Duration": 365853,
      "SoundDuration": 365853,
      "Delta": 66759693
    },
    {
      "NoteNumber": 50,
      "Velocity": 51,
      "Duration": 365853,
      "SoundDuration": 365853,
      "Delta": 66759693
    },
    {
      "NoteNumber": 75,
      "Velocity": 53,
      "Duration": 137174,
      "SoundDuration": 137174,
      "Delta": 67125546
    },
    {
      "NoteNumber": 67,
      "Velocity": 45,
      "Duration": 137174,
      "SoundDuration": 137174,
      "Delta": 67125546
    },
    {
      "NoteNumber": 48,
      "Velocity": 32,
      "Duration": 137174,
      "SoundDuration": 137174,
      "Delta": 67125546
    },
    {
      "NoteNumber": 51,
      "Velocity": 39,
      "Duration": 137174,
      "SoundDuration": 137174,
      "Delta": 67125546
    },
    {
      "NoteNumber": 65,
      "Velocity": 52,
      "Duration": 494804,
      "SoundDuration": 494804,
      "Delta": 67262721
    },
    {
      "NoteNumber": 74,
      "Velocity": 61,
      "Duration": 494804,
      "SoundDuration": 494804,
      "Delta": 67262721
    },
    {
      "NoteNumber": 50,
      "Velocity": 38,
      "Duration": 494804,
      "SoundDuration": 494804,
      "Delta": 67262721
    },
    {
      "NoteNumber": 53,
      "Velocity": 45,
      "Duration": 494804,
      "SoundDuration": 494804,
      "Delta": 67262721
    },
    {
      "NoteNumber": 63,
      "Velocity": 46,
      "Duration": 523112,
      "SoundDuration": 523112,
      "Delta": 67757526
    },
    {
      "NoteNumber": 72,
      "Velocity": 54,
      "Duration": 523112,
      "SoundDuration": 523112,
      "Delta": 67757526
    },
    {
      "NoteNumber": 51,
      "Velocity": 34,
      "Duration": 523112,
      "SoundDuration": 523112,
      "Delta": 67757526
    },
    {
      "NoteNumber": 55,
      "Velocity": 41,
      "Duration": 523112,
      "SoundDuration": 523112,
      "Delta": 67757526
    },
    {
      "NoteNumber": 62,
      "Velocity": 40,
      "Duration": 508431,
      "SoundDuration": 508431,
      "Delta": 68280638
    },
    {
      "NoteNumber": 70,
      "Velocity": 48,
      "Duration": 508431,
      "SoundDuration": 508431,
      "Delta": 68280638
    },
    {
      "NoteNumber": 53,
      "Velocity": 36,
      "Duration": 508431,
      "SoundDuration": 508431,
      "Delta": 68280638
    },
    {
      "NoteNumber": 60,
      "Velocity": 36,
      "Duration": 254215,
      "SoundDuration": 254215,
      "Delta": 68789069
    },
    {
      "NoteNumber": 69,
      "Velocity": 42,
      "Duration": 254215,
      "SoundDuration": 254215,
      "Delta": 68789069
    },
    {
      "NoteNumber": 41,
      "Velocity": 30,
      "Duration": 254215,
      "SoundDuration": 254215,
      "Delta": 68789069
    },
    {
      "NoteNumber": 62,
      "Velocity": 50,
      "Duration": 381323,
      "SoundDuration": 381323,
      "Delta": 69297500
    },
    {
      "NoteNumber": 63,
      "Velocity": 46,
      "Duration": 139236,
      "SoundDuration": 139236,
      "Delta": 69678823
    },
    {
      "NoteNumber": 65,
      "Velocity": 50,
      "Duration": 958684,
      "SoundDuration": 958684,
      "Delta": 69818060
    },
    {
      "NoteNumber": 46,
      "Velocity": 40,
      "Duration": 123701,
      "SoundDuration": 123701,
      "Delta": 69818060
    },
    {
      "NoteNumber": 58,
      "Velocity": 29,
      "Duration": 247402,
      "SoundDuration": 247402,
      "Delta": 70065463
    },
    {
      "NoteNumber": 62,
      "Velocity": 34,
      "Duration": 247402,
      "SoundDuration": 247402,
      "Delta": 70312865
    },
    {
      "NoteNumber": 58,
      "Velocity": 29,
      "Duration": 247402,
      "SoundDuration": 247402,
      "Delta": 70560268
    },
    {
      "NoteNumber": 69,
      "Velocity": 46,
      "Duration": 30925,
      "SoundDuration": 30925,
      "Delta": 70776745
    },
    {
      "NoteNumber": 67,
      "Velocity": 50,
      "Duration": 121951,
      "SoundDuration": 121951,
      "Delta": 70807670
    },
    {
      "NoteNumber": 63,
      "Velocity": 34,
      "Duration": 243902,
      "SoundDuration": 243902,
      "Delta": 70807670
    },
    {
      "NoteNumber": 65,
      "Velocity": 45,
      "Duration": 121951,
      "SoundDuration": 121951,
      "Delta": 70929622
    },
    {
      "NoteNumber": 67,
      "Velocity": 50,
      "Duration": 129477,
      "SoundDuration": 129477,
      "Delta": 71051573
    },
    {
      "NoteNumber": 60,
      "Velocity": 31,
      "Duration": 258955,
      "SoundDuration": 258955,
      "Delta": 71051573
    },
    {
      "NoteNumber": 69,
      "Velocity": 43,
      "Duration": 129477,
      "SoundDuration": 129477,
      "Delta": 71181051
    },
    {
      "NoteNumber": 70,
      "Velocity": 50,
      "Duration": 492610,
      "SoundDuration": 492610,
      "Delta": 71310528
    },
    {
      "NoteNumber": 62,
      "Velocity": 40,
      "Duration": 246305,
      "SoundDuration": 246305,
      "Delta": 71310528
    },
    {
      "NoteNumber": 61,
      "Velocity": 30,
      "Duration": 246305,
      "SoundDuration": 246305,
      "Delta": 71556834
    },
    {
      "NoteNumber": 65,
      "Velocity": 41,
      "Duration": 431034,
      "SoundDuration": 431034,
      "Delta": 71803139
    },
    {
      "NoteNumber": 62,
      "Velocity": 34,
      "Duration": 246305,
      "SoundDuration": 246305,
      "Delta": 71803139
    },
    {
      "NoteNumber": 58,
      "Velocity": 30,
      "Duration": 246305,
      "SoundDuration": 246305,
      "Delta": 72049445
    },
    {
      "NoteNumber": 69,
      "Velocity": 43,
      "Duration": 30788,
      "SoundDuration": 30788,
      "Delta": 72264962
    },
    {
      "NoteNumber": 67,
      "Velocity": 50,
      "Duration": 120967,
      "SoundDuration": 120967,
      "Delta": 72295750
    },
    {
      "NoteNumber": 63,
      "Velocity": 34,
      "Duration": 241935,
      "SoundDuration": 241935,
      "Delta": 72295750
    },
    {
      "NoteNumber": 65,
      "Velocity": 46,
      "Duration": 120967,
      "SoundDuration": 120967,
      "Delta": 72416718
    },
    {
      "NoteNumber": 67,
      "Velocity": 50,
      "Duration": 128877,
      "SoundDuration": 128877,
      "Delta": 72537686
    },
    {
      "NoteNumber": 60,
      "Velocity": 29,
      "Duration": 257754,
      "SoundDuration": 257754,
      "Delta": 72537686
    },
    {
      "NoteNumber": 69,
      "Velocity": 50,
      "Duration": 128877,
      "SoundDuration": 128877,
      "Delta": 72666563
    },
    {
      "NoteNumber": 70,
      "Velocity": 50,
      "Duration": 61850,
      "SoundDuration": 61850,
      "Delta": 72795440
    },
    {
      "NoteNumber": 62,
      "Velocity": 40,
      "Duration": 247402,
      "SoundDuration": 247402,
      "Delta": 72795440
    },
    {
      "NoteNumber": 61,
      "Velocity": 30,
      "Duration": 247402,
      "SoundDuration": 247402,
      "Delta": 73042842
    },
    {
      "NoteNumber": 69,
      "Velocity": 46,
      "Duration": 61850,
      "SoundDuration": 61850,
      "Delta": 73166544
    },
    {
      "NoteNumber": 70,
      "Velocity": 56,
      "Duration": 61850,
      "SoundDuration": 61850,
      "Delta": 73290245
    },
    {
      "NoteNumber": 62,
      "Velocity": 34,
      "Duration": 247402,
      "SoundDuration": 247402,
      "Delta": 73290245
    },
    {
      "NoteNumber": 57,
      "Velocity": 30,
      "Duration": 247402,
      "SoundDuration": 247402,
      "Delta": 73537647
    },
    {
      "NoteNumber": 72,
      "Velocity": 48,
      "Duration": 61850,
      "SoundDuration": 61850,
      "Delta": 73661349
    },
    {
      "NoteNumber": 74,
      "Velocity": 55,
      "Duration": 61850,
      "SoundDuration": 61850,
      "Delta": 73785050
    },
    {
      "NoteNumber": 58,
      "Velocity": 34,
      "Duration": 247402,
      "SoundDuration": 247402,
      "Delta": 73785050
    },
    {
      "NoteNumber": 55,
      "Velocity": 30,
      "Duration": 252206,
      "SoundDuration": 252206,
      "Delta": 74032452
    },
    {
      "NoteNumber": 76,
      "Velocity": 59,
      "Duration": 70093,
      "SoundDuration": 70093,
      "Delta": 74156154
    },
    {
      "NoteNumber": 70,
      "Velocity": 53,
      "Duration": 513127,
      "SoundDuration": 513127,
      "Delta": 74296341
    },
    {
      "NoteNumber": 76,
      "Velocity": 63,
      "Duration": 513127,
      "SoundDuration": 513127,
      "Delta": 74296341
    },
    {
      "NoteNumber": 53,
      "Velocity": 40,
      "Duration": 769692,
      "SoundDuration": 769692,
      "Delta": 74296341
    },
    {
      "NoteNumber": 69,
      "Velocity": 48,
      "Duration": 256564,
      "SoundDuration": 256564,
      "Delta": 74809469
    },
    {
      "NoteNumber": 77,
      "Velocity": 57,
      "Duration": 256564,
      "SoundDuration": 256564,
      "Delta": 74809469
    },
    {
      "NoteNumber": 65,
      "Velocity": 35,
      "Duration": 256564,
      "SoundDuration": 256564,
      "Delta": 74809469
    },
    {
      "NoteNumber": 77,
      "Velocity": 43,
      "Duration": 32070,
      "SoundDuration": 32070,
      "Delta": 75290526
    },
    {
      "NoteNumber": 75,
      "Velocity": 50,
      "Duration": 123152,
      "SoundDuration": 123152,
      "Delta": 75322597
    },
    {
      "NoteNumber": 74,
      "Velocity": 46,
      "Duration": 123152,
      "SoundDuration": 123152,
      "Delta": 75445749
    },
    {
      "NoteNumber": 75,
      "Velocity": 54,
      "Duration": 123152,
      "SoundDuration": 123152,
      "Delta": 75568902
    },
    {
      "NoteNumber": 77,
      "Velocity": 51,
      "Duration": 123152,
      "SoundDuration": 123152,
      "Delta": 75692055
    },
    {
      "NoteNumber": 79,
      "Velocity": 59,
      "Duration": 492610,
      "SoundDuration": 492610,
      "Delta": 75815208
    },
    {
      "NoteNumber": 41,
      "Velocity": 37,
      "Duration": 123152,
      "SoundDuration": 123152,
      "Delta": 75938360
    },
    {
      "NoteNumber": 45,
      "Velocity": 38,
      "Duration": 123152,
      "SoundDuration": 123152,
      "Delta": 76061513
    },
    {
      "NoteNumber": 48,
      "Velocity": 39,
      "Duration": 123152,
      "SoundDuration": 123152,
      "Delta": 76184666
    },
    {
      "NoteNumber": 72,
      "Velocity": 50,
      "Duration": 431207,
      "SoundDuration": 431207,
      "Delta": 76307819
    },
    {
      "NoteNumber": 53,
      "Velocity": 40,
      "Duration": 121951,
      "SoundDuration": 121951,
      "Delta": 76307819
    },
    {
      "NoteNumber": 57,
      "Velocity": 41,
      "Duration": 121951,
      "SoundDuration": 121951,
      "Delta": 76429770
    },
    {
      "NoteNumber": 60,
      "Velocity": 42,
      "Duration": 121951,
      "SoundDuration": 121951,
      "Delta": 76551721
    },
    {
      "NoteNumber": 62,
      "Velocity": 43,
      "Duration": 130707,
      "SoundDuration": 130707,
      "Delta": 76673672
    },
    {
      "NoteNumber": 74,
      "Velocity": 43,
      "Duration": 32676,
      "SoundDuration": 32676,
      "Delta": 76771703
    },
    {
      "NoteNumber": 72,
      "Velocity": 50,
      "Duration": 122608,
      "SoundDuration": 122608,
      "Delta": 76804380
    },
    {
      "NoteNumber": 63,
      "Velocity": 48,
      "Duration": 613044,
      "SoundDuration": 613044,
      "Delta": 76804380
    },
    {
      "NoteNumber": 71,
      "Velocity": 46,
      "Duration": 122608,
      "SoundDuration": 122608,
      "Delta": 76926989
    },
    {
      "NoteNumber": 72,
      "Velocity": 54,
      "Duration": 122609,
      "SoundDuration": 122609,
      "Delta": 77049598
    },
    {
      "NoteNumber": 74,
      "Velocity": 51,
      "Duration": 122608,
      "SoundDuration": 122608,
      "Delta": 77172207
    },
    {
      "NoteNumber": 75,
      "Velocity": 59,
      "Duration": 490436,
      "SoundDuration": 490436,
      "Delta": 77294816
    },
    {
      "NoteNumber": 41,
      "Velocity": 37,
      "Duration": 122608,
      "SoundDuration": 122608,
      "Delta": 77417425
    },
    {
      "NoteNumber": 45,
      "Velocity": 41,
      "Duration": 122608,
      "SoundDuration": 122608,
      "Delta": 77540034
    },
    {
      "NoteNumber": 48,
      "Velocity": 43,
      "Duration": 122609,
      "SoundDuration": 122609,
      "Delta": 77662643
    },
    {
      "NoteNumber": 69,
      "Velocity": 50,
      "Duration": 428810,
      "SoundDuration": 428810,
      "Delta": 77785252
    },
    {
      "NoteNumber": 53,
      "Velocity": 44,
      "Duration": 121457,
      "SoundDuration": 121457,
      "Delta": 77785252
    },
    {
      "NoteNumber": 57,
      "Velocity": 46,
      "Duration": 121457,
      "SoundDuration": 121457,
      "Delta": 77906709
    },
    {
      "NoteNumber": 60,
      "Velocity": 48,
      "Duration": 121457,
      "SoundDuration": 121457,
      "Delta": 78028167
    },
    {
      "NoteNumber": 63,
      "Velocity": 49,
      "Duration": 128877,
      "SoundDuration": 128877,
      "Delta": 78149624
    },
    {
      "NoteNumber": 70,
      "Velocity": 43,
      "Duration": 32219,
      "SoundDuration": 32219,
      "Delta": 78246282
    },
    {
      "NoteNumber": 69,
      "Velocity": 50,
      "Duration": 122608,
      "SoundDuration": 122608,
      "Delta": 78278501
    },
    {
      "NoteNumber": 66,
      "Velocity": 55,
      "Duration": 990453,
      "SoundDuration": 990453,
      "Delta": 78278501
    },
    {
      "NoteNumber": 67,
      "Velocity": 46,
      "Duration": 122608,
      "SoundDuration": 122608,
      "Delta": 78401110
    },
    {
      "NoteNumber": 69,
      "Velocity": 52,
      "Duration": 122609,
      "SoundDuration": 122609,
      "Delta": 78523719
    },
    {
      "NoteNumber": 70,
      "Velocity": 48,
      "Duration": 84738,
      "SoundDuration": 84738,
      "Delta": 78646328
    },
    {
      "NoteNumber": 74,
      "Velocity": 43,
      "Duration": 31776,
      "SoundDuration": 31776,
      "Delta": 78741659
    },
    {
      "NoteNumber": 72,
      "Velocity": 53,
      "Duration": 122608,
      "SoundDuration": 122608,
      "Delta": 78773436
    },
    {
      "NoteNumber": 71,
      "Velocity": 50,
      "Duration": 122608,
      "SoundDuration": 122608,
      "Delta": 78896045
    },
    {
      "NoteNumber": 72,
      "Velocity": 54,
      "Duration": 122609,
      "SoundDuration": 122609,
      "Delta": 79018654
    },
    {
      "NoteNumber": 74,
      "Velocity": 51,
      "Duration": 85128,
      "SoundDuration": 85128,
      "Delta": 79141263
    },
    {
      "NoteNumber": 77,
      "Velocity": 43,
      "Duration": 31923,
      "SoundDuration": 31923,
      "Delta": 79237032
    },
    {
      "NoteNumber": 75,
      "Velocity": 57,
      "Duration": 123152,
      "SoundDuration": 123152,
      "Delta": 79268955
    },
    {
      "NoteNumber": 65,
      "Velocity": 38,
      "Duration": 492610,
      "SoundDuration": 492610,
      "Delta": 79268955
    },
    {
      "NoteNumber": 53,
      "Velocity": 38,
      "Duration": 492610,
      "SoundDuration": 492610,
      "Delta": 79268955
    },
    {
      "NoteNumber": 74,
      "Velocity": 52,
      "Duration": 123152,
      "SoundDuration": 123152,
      "Delta": 79392108
    },
    {
      "NoteNumber": 75,
      "Velocity": 58,
      "Duration": 123152,
      "SoundDuration": 123152,
      "Delta": 79515261
    },
    {
      "NoteNumber": 77,
      "Velocity": 55,
      "Duration": 123152,
      "SoundDuration": 123152,
      "Delta": 79638414
    },
    {
      "NoteNumber": 79,
      "Velocity": 61,
      "Duration": 123152,
      "SoundDuration": 123152,
      "Delta": 79761566
    },
    {
      "NoteNumber": 53,
      "Velocity": 32,
      "Duration": 541208,
      "SoundDuration": 541208,
      "Delta": 79761566
    },
    {
      "NoteNumber": 63,
      "Velocity": 32,
      "Duration": 541208,
      "SoundDuration": 541208,
      "Delta": 79761566
    },
    {
      "NoteNumber": 75,
      "Velocity": 59,
      "Duration": 123152,
      "SoundDuration": 123152,
      "Delta": 79884719
    },
    {
      "NoteNumber": 72,
      "Velocity": 52,
      "Duration": 139236,
      "SoundDuration": 139236,
      "Delta": 80007872
    },
    {
      "NoteNumber": 69,
      "Velocity": 42,
      "Duration": 155666,
      "SoundDuration": 155666,
      "Delta": 80147109
    },
    {
      "NoteNumber": 70,
      "Velocity": 50,
      "Duration": 494804,
      "SoundDuration": 494804,
      "Delta": 80302775
    },
    {
      "NoteNumber": 46,
      "Velocity": 40,
      "Duration": 123701,
      "SoundDuration": 123701,
      "Delta": 80302775
    },
    {
      "NoteNumber": 58,
      "Velocity": 29,
      "Duration": 247402,
      "SoundDuration": 247402,
      "Delta": 80550178
    },
    {
      "NoteNumber": 62,
      "Velocity": 34,
      "Duration": 247402,
      "SoundDuration": 247402,
      "Delta": 80797580
    },
    {
      "NoteNumber": 58,
      "Velocity": 29,
      "Duration": 247402,
      "SoundDuration": 247402,
      "Delta": 81044983
    },
    {
      "NoteNumber": 81,
      "Velocity": 46,
      "Duration": 30925,
      "SoundDuration": 30925,
      "Delta": 81261460
    },
    {
      "NoteNumber": 79,
      "Velocity": 50,
      "Duration": 123701,
      "SoundDuration": 123701,
      "Delta": 81292385
    },
    {
      "NoteNumber": 63,
      "Velocity": 34,
      "Duration": 247402,
      "SoundDuration": 247402,
      "Delta": 81292385
    },
    {
      "NoteNumber": 78,
      "Velocity": 45,
      "Duration": 123701,
      "SoundDuration": 123701,
      "Delta": 81416086
    },
    {
      "NoteNumber": 79,
      "Velocity": 50,
      "Duration": 129477,
      "SoundDuration": 129477,
      "Delta": 81539788
    },
    {
      "NoteNumber": 58,
      "Velocity": 31,
      "Duration": 258955,
      "SoundDuration": 258955,
      "Delta": 81539788
    },
    {
      "NoteNumber": 81,
      "Velocity": 43,
      "Duration": 129477,
      "SoundDuration": 129477,
      "Delta": 81669265
    },
    {
      "NoteNumber": 82,
      "Velocity": 50,
      "Duration": 492610,
      "SoundDuration": 492610,
      "Delta": 81798743
    },
    {
      "NoteNumber": 62,
      "Velocity": 40,
      "Duration": 246305,
      "SoundDuration": 246305,
      "Delta": 81798743
    },
    {
      "NoteNumber": 61,
      "Velocity": 30,
      "Duration": 246305,
      "SoundDuration": 246305,
      "Delta": 82045049
    },
    {
      "NoteNumber": 77,
      "Velocity": 41,
      "Duration": 431034,
      "SoundDuration": 431034,
      "Delta": 82291354
    },
    {
      "NoteNumber": 62,
      "Velocity": 34,
      "Duration": 246305,
      "SoundDuration": 246305,
      "Delta": 82291354
    },
    {
      "NoteNumber": 58,
      "Velocity": 30,
      "Duration": 246305,
      "SoundDuration": 246305,
      "Delta": 82537660
    },
    {
      "NoteNumber": 69,
      "Velocity": 43,
      "Duration": 30788,
      "SoundDuration": 30788,
      "Delta": 82753177
    },
    {
      "NoteNumber": 75,
      "Velocity": 41,
      "Duration": 504059,
      "SoundDuration": 504059,
      "Delta": 82783965
    },
    {
      "NoteNumber": 67,
      "Velocity": 50,
      "Duration": 123152,
      "SoundDuration": 123152,
      "Delta": 82783965
    },
    {
      "NoteNumber": 60,
      "Velocity": 34,
      "Duration": 246305,
      "SoundDuration": 246305,
      "Delta": 82783965
    },
    {
      "NoteNumber": 65,
      "Velocity": 46,
      "Duration": 123152,
      "SoundDuration": 123152,
      "Delta": 82907118
    },
    {
      "NoteNumber": 67,
      "Velocity": 50,
      "Duration": 128877,
      "SoundDuration": 128877,
      "Delta": 83030271
    },
    {
      "NoteNumber": 53,
      "Velocity": 29,
      "Duration": 257754,
      "SoundDuration": 257754,
      "Delta": 83030271
    },
    {
      "NoteNumber": 69,
      "Velocity": 46,
      "Duration": 128877,
      "SoundDuration": 128877,
      "Delta": 83159148
    },
    {
      "NoteNumber": 74,
      "Velocity": 44,
      "Duration": 492610,
      "SoundDuration": 492610,
      "Delta": 83288025
    },
    {
      "NoteNumber": 70,
      "Velocity": 50,
      "Duration": 492610,
      "SoundDuration": 492610,
      "Delta": 83288025
    },
    {
      "NoteNumber": 58,
      "Velocity": 40,
      "Duration": 246305,
      "SoundDuration": 246305,
      "Delta": 83288025
    },
    {
      "NoteNumber": 46,
      "Velocity": 30,
      "Duration": 246305,
      "SoundDuration": 246305,
      "Delta": 83534330
    },
    {
      "NoteNumber": 65,
      "Velocity": 41,
      "Duration": 246305,
      "SoundDuration": 246305,
      "Delta": 83780636
    },
    {
      "NoteNumber": 50,
      "Velocity": 34,
      "Duration": 246305,
      "SoundDuration": 246305,
      "Delta": 83780636
    },
    {
      "NoteNumber": 46,
      "Velocity": 30,
      "Duration": 246305,
      "SoundDuration": 246305,
      "Delta": 84026941
    },
    {
      "NoteNumber": 69,
      "Velocity": 43,
      "Duration": 30788,
      "SoundDuration": 30788,
      "Delta": 84242458
    },
    {
      "NoteNumber": 67,
      "Velocity": 50,
      "Duration": 121457,
      "SoundDuration": 121457,
      "Delta": 84273247
    },
    {
      "NoteNumber": 51,
      "Velocity": 34,
      "Duration": 242914,
      "SoundDuration": 242914,
      "Delta": 84273247
    },
    {
      "NoteNumber": 66,
      "Velocity": 46,
      "Duration": 121457,
      "SoundDuration": 121457,
      "Delta": 84394704
    },
    {
      "NoteNumber": 67,
      "Velocity": 50,
      "Duration": 128877,
      "SoundDuration": 128877,
      "Delta": 84516162
    },
    {
      "NoteNumber": 46,
      "Velocity": 29,
      "Duration": 257754,
      "SoundDuration": 257754,
      "Delta": 84516162
    },
    {
      "NoteNumber": 69,
      "Velocity": 46,
      "Duration": 128877,
      "SoundDuration": 128877,
      "Delta": 84645039
    },
    {
      "NoteNumber": 70,
      "Velocity": 50,
      "Duration": 492610,
      "SoundDuration": 492610,
      "Delta": 84773916
    },
    {
      "NoteNumber": 50,
      "Velocity": 40,
      "Duration": 246305,
      "SoundDuration": 246305,
      "Delta": 84773916
    },
    {
      "NoteNumber": 49,
      "Velocity": 30,
      "Duration": 246305,
      "SoundDuration": 246305,
      "Delta": 85020221
    },
    {
      "NoteNumber": 65,
      "Velocity": 41,
      "Duration": 431034,
      "SoundDuration": 431034,
      "Delta": 85266527
    },
    {
      "NoteNumber": 50,
      "Velocity": 34,
      "Duration": 246305,
      "SoundDuration": 246305,
      "Delta": 85266527
    },
    {
      "NoteNumber": 46,
      "Velocity": 30,
      "Duration": 246305,
      "SoundDuration": 246305,
      "Delta": 85512832
    },
    {
      "NoteNumber": 57,
      "Velocity": 36,
      "Duration": 30788,
      "SoundDuration": 30788,
      "Delta": 85728349
    },
    {
      "NoteNumber": 63,
      "Velocity": 34,
      "Duration": 500669,
      "SoundDuration": 500669,
      "Delta": 85759138
    },
    {
      "NoteNumber": 55,
      "Velocity": 42,
      "Duration": 121457,
      "SoundDuration": 121457,
      "Delta": 85759138
    },
    {
      "NoteNumber": 48,
      "Velocity": 34,
      "Duration": 242914,
      "SoundDuration": 242914,
      "Delta": 85759138
    },
    {
      "NoteNumber": 53,
      "Velocity": 39,
      "Duration": 121457,
      "SoundDuration": 121457,
      "Delta": 85880595
    },
    {
      "NoteNumber": 55,
      "Velocity": 42,
      "Duration": 128877,
      "SoundDuration": 128877,
      "Delta": 86002053
    },
    {
      "NoteNumber": 41,
      "Velocity": 29,
      "Duration": 257754,
      "SoundDuration": 257754,
      "Delta": 86002053
    },
    {
      "NoteNumber": 57,
      "Velocity": 39,
      "Duration": 128877,
      "SoundDuration": 128877,
      "Delta": 86130930
    },
    {
      "NoteNumber": 62,
      "Velocity": 34,
      "Duration": 514076,
      "SoundDuration": 514076,
      "Delta": 86259807
    },
    {
      "NoteNumber": 58,
      "Velocity": 42,
      "Duration": 257753,
      "SoundDuration": 257753,
      "Delta": 86259807
    },
    {
      "NoteNumber": 46,
      "Velocity": 40,
      "Duration": 257753,
      "SoundDuration": 257753,
      "Delta": 86259807
    },
    {
      "NoteNumber": 53,
      "Velocity": 33,
      "Duration": 214795,
      "SoundDuration": 214795,
      "Delta": 86517561
    },
    {
      "NoteNumber": 50,
      "Velocity": 30,
      "Duration": 256322,
      "SoundDuration": 256322,
      "Delta": 86517561
    },
    {
      "NoteNumber": 57,
      "Velocity": 37,
      "Duration": 30788,
      "SoundDuration": 30788,
      "Delta": 86743095
    },
    {
      "NoteNumber": 63,
      "Velocity": 39,
      "Duration": 504059,
      "SoundDuration": 504059,
      "Delta": 86773884
    },
    {
      "NoteNumber": 55,
      "Velocity": 43,
      "Duration": 123152,
      "SoundDuration": 123152,
      "Delta": 86773884
    },
    {
      "NoteNumber": 48,
      "Velocity": 35,
      "Duration": 246305,
      "SoundDuration": 246305,
      "Delta": 86773884
    },
    {
      "NoteNumber": 53,
      "Velocity": 40,
      "Duration": 123152,
      "SoundDuration": 123152,
      "Delta": 86897036
    },
    {
      "NoteNumber": 55,
      "Velocity": 44,
      "Duration": 128877,
      "SoundDuration": 128877,
      "Delta": 87020189
    },
    {
      "NoteNumber": 41,
      "Velocity": 31,
      "Duration": 257754,
      "SoundDuration": 257754,
      "Delta": 87020189
    },
    {
      "NoteNumber": 57,
      "Velocity": 40,
      "Duration": 128877,
      "SoundDuration": 128877,
      "Delta": 87149066
    },
    {
      "NoteNumber": 62,
      "Velocity": 36,
      "Duration": 514076,
      "SoundDuration": 514076,
      "Delta": 87277943
    },
    {
      "NoteNumber": 58,
      "Velocity": 44,
      "Duration": 257753,
      "SoundDuration": 257753,
      "Delta": 87277943
    },
    {
      "NoteNumber": 46,
      "Velocity": 36,
      "Duration": 257753,
      "SoundDuration": 257753,
      "Delta": 87277943
    },
    {
      "NoteNumber": 53,
      "Velocity": 34,
      "Duration": 193315,
      "SoundDuration": 193315,
      "Delta": 87535697
    },
    {
      "NoteNumber": 50,
      "Velocity": 31,
      "Duration": 256322,
      "SoundDuration": 256322,
      "Delta": 87535697
    },
    {
      "NoteNumber": 57,
      "Velocity": 39,
      "Duration": 30788,
      "SoundDuration": 30788,
      "Delta": 87761232
    },
    {
      "NoteNumber": 63,
      "Velocity": 44,
      "Duration": 504059,
      "SoundDuration": 504059,
      "Delta": 87792020
    },
    {
      "NoteNumber": 55,
      "Velocity": 46,
      "Duration": 123152,
      "SoundDuration": 123152,
      "Delta": 87792020
    },
    {
      "NoteNumber": 48,
      "Velocity": 44,
      "Duration": 246305,
      "SoundDuration": 246305,
      "Delta": 87792020
    },
    {
      "NoteNumber": 53,
      "Velocity": 43,
      "Duration": 123152,
      "SoundDuration": 123152,
      "Delta": 87915173
    },
    {
      "NoteNumber": 55,
      "Velocity": 47,
      "Duration": 128877,
      "SoundDuration": 128877,
      "Delta": 88038326
    },
    {
      "NoteNumber": 41,
      "Velocity": 33,
      "Duration": 257754,
      "SoundDuration": 257754,
      "Delta": 88038326
    },
    {
      "NoteNumber": 57,
      "Velocity": 44,
      "Duration": 128877,
      "SoundDuration": 128877,
      "Delta": 88167203
    },
    {
      "NoteNumber": 62,
      "Velocity": 42,
      "Duration": 248508,
      "SoundDuration": 248508,
      "Delta": 88296080
    },
    {
      "NoteNumber": 58,
      "Velocity": 48,
      "Duration": 124254,
      "SoundDuration": 124254,
      "Delta": 88296080
    },
    {
      "NoteNumber": 46,
      "Velocity": 45,
      "Duration": 124254,
      "SoundDuration": 124254,
      "Delta": 88296080
    },
    {
      "NoteNumber": 53,
      "Velocity": 41,
      "Duration": 124254,
      "SoundDuration": 124254,
      "Delta": 88420334
    },
    {
      "NoteNumber": 50,
      "Velocity": 37,
      "Duration": 124254,
      "SoundDuration": 124254,
      "Delta": 88420334
    },
    {
      "NoteNumber": 63,
      "Velocity": 40,
      "Duration": 248508,
      "SoundDuration": 248508,
      "Delta": 88544589
    },
    {
      "NoteNumber": 57,
      "Velocity": 50,
      "Duration": 124254,
      "SoundDuration": 124254,
      "Delta": 88544589
    },
    {
      "NoteNumber": 41,
      "Velocity": 46,
      "Duration": 124254,
      "SoundDuration": 124254,
      "Delta": 88544589
    },
    {
      "NoteNumber": 53,
      "Velocity": 43,
      "Duration": 124254,
      "SoundDuration": 124254,
      "Delta": 88668843
    },
    {
      "NoteNumber": 48,
      "Velocity": 39,
      "Duration": 124254,
      "SoundDuration": 124254,
      "Delta": 88668843
    },
    {
      "NoteNumber": 62,
      "Velocity": 49,
      "Duration": 248508,
      "SoundDuration": 248508,
      "Delta": 88793098
    },
    {
      "NoteNumber": 58,
      "Velocity": 51,
      "Duration": 124254,
      "SoundDuration": 124254,
      "Delta": 88793098
    },
    {
      "NoteNumber": 46,
      "Velocity": 47,
      "Duration": 124254,
      "SoundDuration": 124254,
      "Delta": 88793098
    },
    {
      "NoteNumber": 53,
      "Velocity": 46,
      "Duration": 124254,
      "SoundDuration": 124254,
      "Delta": 88917352
    },
    {
      "NoteNumber": 50,
      "Velocity": 41,
      "Duration": 124254,
      "SoundDuration": 124254,
      "Delta": 88917352
    },
    {
      "NoteNumber": 63,
      "Velocity": 42,
      "Duration": 262109,
      "SoundDuration": 262109,
      "Delta": 89041607
    },
    {
      "NoteNumber": 57,
      "Velocity": 52,
      "Duration": 124254,
      "SoundDuration": 124254,
      "Delta": 89041607
    },
    {
      "NoteNumber": 41,
      "Velocity": 49,
      "Duration": 124254,
      "SoundDuration": 124254,
      "Delta": 89041607
    },
    {
      "NoteNumber": 53,
      "Velocity": 47,
      "Duration": 137855,
      "SoundDuration": 137855,
      "Delta": 89165861
    },
    {
      "NoteNumber": 48,
      "Velocity": 43,
      "Duration": 137855,
      "SoundDuration": 137855,
      "Delta": 89165861
    },
    {
      "NoteNumber": 58,
      "Velocity": 34,
      "Duration": 124254,
      "SoundDuration": 124254,
      "Delta": 89303716
    },
    {
      "NoteNumber": 62,
      "Velocity": 40,
      "Duration": 124254,
      "SoundDuration": 124254,
      "Delta": 89303716
    },
    {
      "NoteNumber": 46,
      "Velocity": 24,
      "Duration": 124254,
      "SoundDuration": 124254,
      "Delta": 89303716
    },
    {
      "NoteNumber": 50,
      "Velocity": 30,
      "Duration": 124254,
      "SoundDuration": 124254,
      "Delta": 89303716
    },
    {
      "NoteNumber": 62,
      "Velocity": 34,
      "Duration": 124254,
      "SoundDuration": 124254,
      "Delta": 89800734
    },
    {
      "NoteNumber": 70,
      "Velocity": 40,
      "Duration": 124254,
      "SoundDuration": 124254,
      "Delta": 89800734
    },
    {
      "NoteNumber": 34,
      "Velocity": 24,
      "Duration": 124254,
      "SoundDuration": 124254,
      "Delta": 89800734
    },
    {
      "NoteNumber": 46,
      "Velocity": 30,
      "Duration": 124254,
      "SoundDuration": 124254,
      "Delta": 89800734
    },
    {
      "NoteNumber": 62,
      "Velocity": 62,
      "Duration": 120000,
      "SoundDuration": 120000,
      "Delta": 90297752
    },
    {
      "NoteNumber": 63,
      "Velocity": 48,
      "Duration": 119999,
      "SoundDuration": 119999,
      "Delta": 90417752
    },
    {
      "NoteNumber": 62,
      "Velocity": 48,
      "Duration": 120000,
      "SoundDuration": 120000,
      "Delta": 90537752
    },
    {
      "NoteNumber": 60,
      "Velocity": 48,
      "Duration": 129870,
      "SoundDuration": 129870,
      "Delta": 90657752
    },
    {
      "NoteNumber": 58,
      "Velocity": 62,
      "Duration": 120481,
      "SoundDuration": 120481,
      "Delta": 90787622
    },
    {
      "NoteNumber": 60,
      "Velocity": 48,
      "Duration": 120482,
      "SoundDuration": 120482,
      "Delta": 90908104
    },
    {
      "NoteNumber": 58,
      "Velocity": 47,
      "Duration": 120481,
      "SoundDuration": 120481,
      "Delta": 91028586
    },
    {
      "NoteNumber": 57,
      "Velocity": 47,
      "Duration": 128755,
      "SoundDuration": 128755,
      "Delta": 91149068
    },
    {
      "NoteNumber": 62,
      "Velocity": 61,
      "Duration": 1455600,
      "SoundDuration": 1455600,
      "Delta": 91277824
    },
    {
      "NoteNumber": 67,
      "Velocity": 61,
      "Duration": 966585,
      "SoundDuration": 966585,
      "Delta": 91277824
    },
    {
      "NoteNumber": 70,
      "Velocity": 61,
      "Duration": 966585,
      "SoundDuration": 966585,
      "Delta": 91277824
    },
    {
      "NoteNumber": 74,
      "Velocity": 79,
      "Duration": 1455600,
      "SoundDuration": 1455600,
      "Delta": 91277824
    },
    {
      "NoteNumber": 55,
      "Velocity": 63,
      "Duration": 120481,
      "SoundDuration": 120481,
      "Delta": 91277824
    },
    {
      "NoteNumber": 57,
      "Velocity": 46,
      "Duration": 120482,
      "SoundDuration": 120482,
      "Delta": 91398306
    },
    {
      "NoteNumber": 58,
      "Velocity": 46,
      "Duration": 120481,
      "SoundDuration": 120481,
      "Delta": 91518788
    },
    {
      "NoteNumber": 57,
      "Velocity": 46,
      "Duration": 127659,
      "SoundDuration": 127659,
      "Delta": 91639270
    },
    {
      "NoteNumber": 55,
      "Velocity": 58,
      "Duration": 120481,
      "SoundDuration": 120481,
      "Delta": 91766929
    },
    {
      "NoteNumber": 58,
      "Velocity": 46,
      "Duration": 120482,
      "SoundDuration": 120482,
      "Delta": 91887411
    },
    {
      "NoteNumber": 57,
      "Velocity": 46,
      "Duration": 120481,
      "SoundDuration": 120481,
      "Delta": 92007893
    },
    {
      "NoteNumber": 55,
      "Velocity": 45,
      "Duration": 126582,
      "SoundDuration": 126582,
      "Delta": 92128375
    },
    {
      "NoteNumber": 69,
      "Velocity": 62,
      "Duration": 120481,
      "SoundDuration": 120481,
      "Delta": 92254957
    },
    {
      "NoteNumber": 72,
      "Velocity": 62,
      "Duration": 120481,
      "SoundDuration": 120481,
      "Delta": 92254957
    },
    {
      "NoteNumber": 54,
      "Velocity": 59,
      "Duration": 120481,
      "SoundDuration": 120481,
      "Delta": 92254957
    },
    {
      "NoteNumber": 55,
      "Velocity": 45,
      "Duration": 120482,
      "SoundDuration": 120482,
      "Delta": 92375439
    },
    {
      "NoteNumber": 54,
      "Velocity": 45,
      "Duration": 120481,
      "SoundDuration": 120481,
      "Delta": 92495921
    },
    {
      "NoteNumber": 51,
      "Velocity": 44,
      "Duration": 127659,
      "SoundDuration": 127659,
      "Delta": 92616403
    },
    {
      "NoteNumber": 62,
      "Velocity": 59,
      "Duration": 1455871,
      "SoundDuration": 1455871,
      "Delta": 92744063
    },
    {
      "NoteNumber": 74,
      "Velocity": 81,
      "Duration": 1455871,
      "SoundDuration": 1455871,
      "Delta": 92744063
    },
    {
      "NoteNumber": 69,
      "Velocity": 59,
      "Duration": 967499,
      "SoundDuration": 967499,
      "Delta": 92744063
    },
    {
      "NoteNumber": 66,
      "Velocity": 59,
      "Duration": 967499,
      "SoundDuration": 967499,
      "Delta": 92744063
    },
    {
      "NoteNumber": 50,
      "Velocity": 57,
      "Duration": 120481,
      "SoundDuration": 120481,
      "Delta": 92744063
    },
    {
      "NoteNumber": 51,
      "Velocity": 44,
      "Duration": 120482,
      "SoundDuration": 120482,
      "Delta": 92864545
    },
    {
      "NoteNumber": 50,
      "Velocity": 42,
      "Duration": 120481,
      "SoundDuration": 120481,
      "Delta": 92985027
    },
    {
      "NoteNumber": 48,
      "Velocity": 42,
      "Duration": 126582,
      "SoundDuration": 126582,
      "Delta": 93105509
    },
    {
      "NoteNumber": 46,
      "Velocity": 55,
      "Duration": 120481,
      "SoundDuration": 120481,
      "Delta": 93232091
    },
    {
      "NoteNumber": 48,
      "Velocity": 41,
      "Duration": 120482,
      "SoundDuration": 120482,
      "Delta": 93352573
    },
    {
      "NoteNumber": 46,
      "Velocity": 41,
      "Duration": 120481,
      "SoundDuration": 120481,
      "Delta": 93473055
    },
    {
      "NoteNumber": 45,
      "Velocity": 41,
      "Duration": 128755,
      "SoundDuration": 128755,
      "Delta": 93593537
    },
    {
      "NoteNumber": 70,
      "Velocity": 62,
      "Duration": 121951,
      "SoundDuration": 121951,
      "Delta": 93722292
    },
    {
      "NoteNumber": 67,
      "Velocity": 62,
      "Duration": 121951,
      "SoundDuration": 121951,
      "Delta": 93722292
    },
    {
      "NoteNumber": 43,
      "Velocity": 56,
      "Duration": 121951,
      "SoundDuration": 121951,
      "Delta": 93722292
    },
    {
      "NoteNumber": 42,
      "Velocity": 42,
      "Duration": 121951,
      "SoundDuration": 121951,
      "Delta": 93844244
    },
    {
      "NoteNumber": 43,
      "Velocity": 42,
      "Duration": 121951,
      "SoundDuration": 121951,
      "Delta": 93966195
    },
    {
      "NoteNumber": 45,
      "Velocity": 42,
      "Duration": 121951,
      "SoundDuration": 121951,
      "Delta": 94088146
    },
    {
      "NoteNumber": 67,
      "Velocity": 68,
      "Duration": 968373,
      "SoundDuration": 968373,
      "Delta": 94210097
    },
    {
      "NoteNumber": 70,
      "Velocity": 68,
      "Duration": 968373,
      "SoundDuration": 968373,
      "Delta": 94210097
    },
    {
      "NoteNumber": 79,
      "Velocity": 89,
      "Duration": 968373,
      "SoundDuration": 968373,
      "Delta": 94210097
    },
    {
      "NoteNumber": 46,
      "Velocity": 55,
      "Duration": 120481,
      "SoundDuration": 120481,
      "Delta": 94210097
    },
    {
      "NoteNumber": 45,
      "Velocity": 42,
      "Duration": 120482,
      "SoundDuration": 120482,
      "Delta": 94330579
    },
    {
      "NoteNumber": 46,
      "Velocity": 41,
      "Duration": 120481,
      "SoundDuration": 120481,
      "Delta": 94451061
    },
    {
      "NoteNumber": 47,
      "Velocity": 41,
      "Duration": 120481,
      "SoundDuration": 120481,
      "Delta": 94571543
    },
    {
      "NoteNumber": 48,
      "Velocity": 59,
      "Duration": 120482,
      "SoundDuration": 120482,
      "Delta": 94692025
    },
    {
      "NoteNumber": 47,
      "Velocity": 47,
      "Duration": 120481,
      "SoundDuration": 120481,
      "Delta": 94812507
    },
    {
      "NoteNumber": 48,
      "Velocity": 48,
      "Duration": 120481,
      "SoundDuration": 120481,
      "Delta": 94932989
    },
    {
      "NoteNumber": 49,
      "Velocity": 48,
      "Duration": 124774,
      "SoundDuration": 124774,
      "Delta": 95047447
    },
    {
      "NoteNumber": 66,
      "Velocity": 63,
      "Duration": 478087,
      "SoundDuration": 478087,
      "Delta": 95178471
    },
    {
      "NoteNumber": 69,
      "Velocity": 63,
      "Duration": 478087,
      "SoundDuration": 478087,
      "Delta": 95178471
    },
    {
      "NoteNumber": 78,
      "Velocity": 75,
      "Duration": 478087,
      "SoundDuration": 478087,
      "Delta": 95178471
    },
    {
      "NoteNumber": 50,
      "Velocity": 60,
      "Duration": 119522,
      "SoundDuration": 119522,
      "Delta": 95178471
    },
    {
      "NoteNumber": 38,
      "Velocity": 46,
      "Duration": 119522,
      "SoundDuration": 119522,
      "Delta": 95297993
    },
    {
      "NoteNumber": 42,
      "Velocity": 46,
      "Duration": 119521,
      "SoundDuration": 119521,
      "Delta": 95417515
    },
    {
      "NoteNumber": 45,
      "Velocity": 42,
      "Duration": 119522,
      "SoundDuration": 119522,
      "Delta": 95537037
    },
    {
      "NoteNumber": 50,
      "Velocity": 57,
      "Duration": 119522,
      "SoundDuration": 119522,
      "Delta": 95656559
    },
    {
      "NoteNumber": 54,
      "Velocity": 53,
      "Duration": 119522,
      "SoundDuration": 119522,
      "Delta": 95776081
    },
    {
      "NoteNumber": 57,
      "Velocity": 56,
      "Duration": 121317,
      "SoundDuration": 121317,
      "Delta": 95901579
    },
    {
      "NoteNumber": 61,
      "Velocity": 58,
      "Duration": 155440,
      "SoundDuration": 155440,
      "Delta": 96015125
    },
    {
      "NoteNumber": 62,
      "Velocity": 66,
      "Duration": 120000,
      "SoundDuration": 120000,
      "Delta": 96170566
    },
    {
      "NoteNumber": 63,
      "Velocity": 59,
      "Duration": 119999,
      "SoundDuration": 119999,
      "Delta": 96290566
    },
    {
      "NoteNumber": 62,
      "Velocity": 57,
      "Duration": 120000,
      "SoundDuration": 120000,
      "Delta": 96410566
    },
    {
      "NoteNumber": 60,
      "Velocity": 56,
      "Duration": 129870,
      "SoundDuration": 129870,
      "Delta": 96530566
    },
    {
      "NoteNumber": 58,
      "Velocity": 62,
      "Duration": 120481,
      "SoundDuration": 120481,
      "Delta": 96660436
    },
    {
      "NoteNumber": 60,
      "Velocity": 48,
      "Duration": 120482,
      "SoundDuration": 120482,
      "Delta": 96780918
    },
    {
      "NoteNumber": 58,
      "Velocity": 47,
      "Duration": 120481,
      "SoundDuration": 120481,
      "Delta": 96901400
    },
    {
      "NoteNumber": 57,
      "Velocity": 47,
      "Duration": 128755,
      "SoundDuration": 128755,
      "Delta": 97021882
    },
    {
      "NoteNumber": 67,
      "Velocity": 61,
      "Duration": 1455600,
      "SoundDuration": 1455600,
      "Delta": 97150637
    },
    {
      "NoteNumber": 70,
      "Velocity": 61,
      "Duration": 1466239,
      "SoundDuration": 1466239,
      "Delta": 97150637
    },
    {
      "NoteNumber": 74,
      "Velocity": 61,
      "Duration": 489105,
      "SoundDuration": 489105,
      "Delta": 97150637
    },
    {
      "NoteNumber": 79,
      "Velocity": 79,
      "Duration": 1455600,
      "SoundDuration": 1455600,
      "Delta": 97150637
    },
    {
      "NoteNumber": 55,
      "Velocity": 63,
      "Duration": 120481,
      "SoundDuration": 120481,
      "Delta": 97150637
    },
    {
      "NoteNumber": 57,
      "Velocity": 46,
      "Duration": 120482,
      "SoundDuration": 120482,
      "Delta": 97271119
    },
    {
      "NoteNumber": 55,
      "Velocity": 46,
      "Duration": 120481,
      "SoundDuration": 120481,
      "Delta": 97391601
    },
    {
      "NoteNumber": 53,
      "Velocity": 46,
      "Duration": 127659,
      "SoundDuration": 127659,
      "Delta": 97512083
    },
    {
      "NoteNumber": 73,
      "Velocity": 74,
      "Duration": 488028,
      "SoundDuration": 488028,
      "Delta": 97639743
    },
    {
      "NoteNumber": 52,
      "Velocity": 58,
      "Duration": 120481,
      "SoundDuration": 120481,
      "Delta": 97639743
    },
    {
      "NoteNumber": 53,
      "Velocity": 46,
      "Duration": 120482,
      "SoundDuration": 120482,
      "Delta": 97760225
    },
    {
      "NoteNumber": 52,
      "Velocity": 46,
      "Duration": 120481,
      "SoundDuration": 120481,
      "Delta": 97880707
    },
    {
      "NoteNumber": 50,
      "Velocity": 45,
      "Duration": 126582,
      "SoundDuration": 126582,
      "Delta": 98001189
    },
    {
      "NoteNumber": 76,
      "Velocity": 80,
      "Duration": 120481,
      "SoundDuration": 120481,
      "Delta": 98127771
    },
    {
      "NoteNumber": 49,
      "Velocity": 59,
      "Duration": 120481,
      "SoundDuration": 120481,
      "Delta": 98127771
    },
    {
      "NoteNumber": 50,
      "Velocity": 45,
      "Duration": 120482,
      "SoundDuration": 120482,
      "Delta": 98248253
    },
    {
      "NoteNumber": 49,
      "Velocity": 45,
      "Duration": 120481,
      "SoundDuration": 120481,
      "Delta": 98368735
    },
    {
      "NoteNumber": 46,
      "Velocity": 44,
      "Duration": 127659,
      "SoundDuration": 127659,
      "Delta": 98489217
    },
    {
      "NoteNumber": 85,
      "Velocity": 86,
      "Duration": 978229,
      "SoundDuration": 978229,
      "Delta": 98616877
    },
    {
      "NoteNumber": 76,
      "Velocity": 59,
      "Duration": 488028,
      "SoundDuration": 488028,
      "Delta": 98616877
    },
    {
      "NoteNumber": 73,
      "Velocity": 66,
      "Duration": 978229,
      "SoundDuration": 978229,
      "Delta": 98616877
    },
    {
      "NoteNumber": 45,
      "Velocity": 57,
      "Duration": 120481,
      "SoundDuration": 120481,
      "Delta": 98616877
    },
    {
      "NoteNumber": 46,
      "Velocity": 44,
      "Duration": 120482,
      "SoundDuration": 120482,
      "Delta": 98737359
    },
    {
      "NoteNumber": 45,
      "Velocity": 42,
      "Duration": 120481,
      "SoundDuration": 120481,
      "Delta": 98857841
    },
    {
      "NoteNumber": 43,
      "Velocity": 42,
      "Duration": 126582,
      "SoundDuration": 126582,
      "Delta": 98978323
    },
    {
      "NoteNumber": 79,
      "Velocity": 80,
      "Duration": 490201,
      "SoundDuration": 490201,
      "Delta": 99104905
    },
    {
      "NoteNumber": 41,
      "Velocity": 55,
      "Duration": 120481,
      "SoundDuration": 120481,
      "Delta": 99104905
    },
    {
      "NoteNumber": 43,
      "Velocity": 41,
      "Duration": 120482,
      "SoundDuration": 120482,
      "Delta": 99225387
    },
    {
      "NoteNumber": 41,
      "Velocity": 41,
      "Duration": 120481,
      "SoundDuration": 120481,
      "Delta": 99345869
    },
    {
      "NoteNumber": 40,
      "Velocity": 41,
      "Duration": 128755,
      "SoundDuration": 128755,
      "Delta": 99466351
    },
    {
      "NoteNumber": 74,
      "Velocity": 74,
      "Duration": 121951,
      "SoundDuration": 121951,
      "Delta": 99595106
    },
    {
      "NoteNumber": 86,
      "Velocity": 88,
      "Duration": 121951,
      "SoundDuration": 121951,
      "Delta": 99595106
    },
    {
      "NoteNumber": 77,
      "Velocity": 74,
      "Duration": 121951,
      "SoundDuration": 121951,
      "Delta": 99595106
    },
    {
      "NoteNumber": 38,
      "Velocity": 56,
      "Duration": 121951,
      "SoundDuration": 121951,
      "Delta": 99595106
    },
    {
      "NoteNumber": 40,
      "Velocity": 42,
      "Duration": 121951,
      "SoundDuration": 121951,
      "Delta": 99717057
    },
    {
      "NoteNumber": 41,
      "Velocity": 42,
      "Duration": 121951,
      "SoundDuration": 121951,
      "Delta": 99839009
    },
    {
      "NoteNumber": 38,
      "Velocity": 42,
      "Duration": 121951,
      "SoundDuration": 121951,
      "Delta": 99960960
    },
    {
      "NoteNumber": 74,
      "Velocity": 74,
      "Duration": 240964,
      "SoundDuration": 240964,
      "Delta": 100082911
    },
    {
      "NoteNumber": 76,
      "Velocity": 74,
      "Duration": 240964,
      "SoundDuration": 240964,
      "Delta": 100082911
    },
    {
      "NoteNumber": 86,
      "Velocity": 88,
      "Duration": 240964,
      "SoundDuration": 240964,
      "Delta": 100082911
    },
    {
      "NoteNumber": 43,
      "Velocity": 55,
      "Duration": 120481,
      "SoundDuration": 120481,
      "Delta": 100082911
    },
    {
      "NoteNumber": 45,
      "Velocity": 42,
      "Duration": 120482,
      "SoundDuration": 120482,
      "Delta": 100203393
    },
    {
      "NoteNumber": 46,
      "Velocity": 41,
      "Duration": 120481,
      "SoundDuration": 120481,
      "Delta": 100323875
    },
    {
      "NoteNumber": 43,
      "Velocity": 41,
      "Duration": 120481,
      "SoundDuration": 120481,
      "Delta": 100444357
    },
    {
      "NoteNumber": 73,
      "Velocity": 70,
      "Duration": 240964,
      "SoundDuration": 240964,
      "Delta": 100564839
    },
    {
      "NoteNumber": 76,
      "Velocity": 70,
      "Duration": 240964,
      "SoundDuration": 240964,
      "Delta": 100564839
    },
    {
      "NoteNumber": 85,
      "Velocity": 83,
      "Duration": 240964,
      "SoundDuration": 240964,
      "Delta": 100564839
    },
    {
      "NoteNumber": 45,
      "Velocity": 57,
      "Duration": 120482,
      "SoundDuration": 120482,
      "Delta": 100564839
    },
    {
      "NoteNumber": 44,
      "Velocity": 45,
      "Duration": 120481,
      "SoundDuration": 120481,
      "Delta": 100685321
    },
    {
      "NoteNumber": 45,
      "Velocity": 45,
      "Duration": 120481,
      "SoundDuration": 120481,
      "Delta": 100805803
    },
    {
      "NoteNumber": 33,
      "Velocity": 45,
      "Duration": 125000,
      "SoundDuration": 125000,
      "Delta": 100926285
    },
    {
      "NoteNumber": 74,
      "Velocity": 74,
      "Duration": 478087,
      "SoundDuration": 478087,
      "Delta": 101051285
    },
    {
      "NoteNumber": 77,
      "Velocity": 74,
      "Duration": 478087,
      "SoundDuration": 478087,
      "Delta": 101051285
    },
    {
      "NoteNumber": 86,
      "Velocity": 88,
      "Duration": 478087,
      "SoundDuration": 478087,
      "Delta": 101051285
    },
    {
      "NoteNumber": 38,
      "Velocity": 60,
      "Duration": 119522,
      "SoundDuration": 119522,
      "Delta": 101051285
    },
    {
      "NoteNumber": 41,
      "Velocity": 46,
      "Duration": 119522,
      "SoundDuration": 119522,
      "Delta": 101170807
    },
    {
      "NoteNumber": 45,
      "Velocity": 46,
      "Duration": 119521,
      "SoundDuration": 119521,
      "Delta": 101290329
    },
    {
      "NoteNumber": 50,
      "Velocity": 42,
      "Duration": 119522,
      "SoundDuration": 119522,
      "Delta": 101409851
    },
    {
      "NoteNumber": 38,
      "Velocity": 57,
      "Duration": 452708,
      "SoundDuration": 452708,
      "Delta": 101529373
    },
    {
      "NoteNumber": 62,
      "Velocity": 62,
      "Duration": 120000,
      "SoundDuration": 120000,
      "Delta": 102013462
    },
    {
      "NoteNumber": 63,
      "Velocity": 48,
      "Duration": 119999,
      "SoundDuration": 119999,
      "Delta": 102133462
    },
    {
      "NoteNumber": 62,
      "Velocity": 48,
      "Duration": 120000,
      "SoundDuration": 120000,
      "Delta": 102253462
    },
    {
      "NoteNumber": 60,
      "Velocity": 48,
      "Duration": 129870,
      "SoundDuration": 129870,
      "Delta": 102373462
    },
    {
      "NoteNumber": 58,
      "Velocity": 62,
      "Duration": 120481,
      "SoundDuration": 120481,
      "Delta": 102503332
    },
    {
      "NoteNumber": 60,
      "Velocity": 48,
      "Duration": 120482,
      "SoundDuration": 120482,
      "Delta": 102623814
    },
    {
      "NoteNumber": 58,
      "Velocity": 47,
      "Duration": 120481,
      "SoundDuration": 120481,
      "Delta": 102744296
    },
    {
      "NoteNumber": 57,
      "Velocity": 47,
      "Duration": 128755,
      "SoundDuration": 128755,
      "Delta": 102864778
    },
    {
      "NoteNumber": 62,
      "Velocity": 61,
      "Duration": 1449840,
      "SoundDuration": 1449840,
      "Delta": 102993534
    },
    {
      "NoteNumber": 67,
      "Velocity": 61,
      "Duration": 963705,
      "SoundDuration": 963705,
      "Delta": 102993534
    },
    {
      "NoteNumber": 70,
      "Velocity": 61,
      "Duration": 963705,
      "SoundDuration": 963705,
      "Delta": 102993534
    },
    {
      "NoteNumber": 74,
      "Velocity": 79,
      "Duration": 1449840,
      "SoundDuration": 1449840,
      "Delta": 102993534
    },
    {
      "NoteNumber": 55,
      "Velocity": 63,
      "Duration": 119522,
      "SoundDuration": 119522,
      "Delta": 102993534
    },
    {
      "NoteNumber": 57,
      "Velocity": 46,
      "Duration": 119522,
      "SoundDuration": 119522,
      "Delta": 103113056
    },
    {
      "NoteNumber": 58,
      "Velocity": 46,
      "Duration": 119521,
      "SoundDuration": 119521,
      "Delta": 103232578
    },
    {
      "NoteNumber": 57,
      "Velocity": 46,
      "Duration": 127659,
      "SoundDuration": 127659,
      "Delta": 103352100
    },
    {
      "NoteNumber": 55,
      "Velocity": 58,
      "Duration": 120481,
      "SoundDuration": 120481,
      "Delta": 103479759
    },
    {
      "NoteNumber": 58,
      "Velocity": 46,
      "Duration": 120482,
      "SoundDuration": 120482,
      "Delta": 103600241
    },
    {
      "NoteNumber": 57,
      "Velocity": 46,
      "Duration": 120481,
      "SoundDuration": 120481,
      "Delta": 103720723
    },
    {
      "NoteNumber": 55,
      "Velocity": 45,
      "Duration": 126582,
      "SoundDuration": 126582,
      "Delta": 103841205
    },
    {
      "NoteNumber": 69,
      "Velocity": 62,
      "Duration": 119522,
      "SoundDuration": 119522,
      "Delta": 103967787
    },
    {
      "NoteNumber": 72,
      "Velocity": 62,
      "Duration": 119522,
      "SoundDuration": 119522,
      "Delta": 103967787
    },
    {
      "NoteNumber": 54,
      "Velocity": 59,
      "Duration": 119522,
      "SoundDuration": 119522,
      "Delta": 103967787
    },
    {
      "NoteNumber": 55,
      "Velocity": 45,
      "Duration": 119522,
      "SoundDuration": 119522,
      "Delta": 104087309
    },
    {
      "NoteNumber": 54,
      "Velocity": 45,
      "Duration": 119521,
      "SoundDuration": 119521,
      "Delta": 104206831
    },
    {
      "NoteNumber": 51,
      "Velocity": 44,
      "Duration": 127659,
      "SoundDuration": 127659,
      "Delta": 104326353
    },
    {
      "NoteNumber": 62,
      "Velocity": 59,
      "Duration": 1452991,
      "SoundDuration": 1452991,
      "Delta": 104454013
    },
    {
      "NoteNumber": 74,
      "Velocity": 81,
      "Duration": 1452991,
      "SoundDuration": 1452991,
      "Delta": 104454013
    },
    {
      "NoteNumber": 69,
      "Velocity": 59,
      "Duration": 964619,
      "SoundDuration": 964619,
      "Delta": 104454013
    },
    {
      "NoteNumber": 66,
      "Velocity": 59,
      "Duration": 964619,
      "SoundDuration": 964619,
      "Delta": 104454013
    },
    {
      "NoteNumber": 50,
      "Velocity": 57,
      "Duration": 120481,
      "SoundDuration": 120481,
      "Delta": 104454013
    },
    {
      "NoteNumber": 51,
      "Velocity": 44,
      "Duration": 120482,
      "SoundDuration": 120482,
      "Delta": 104574495
    },
    {
      "NoteNumber": 50,
      "Velocity": 42,
      "Duration": 120481,
      "SoundDuration": 120481,
      "Delta": 104694977
    },
    {
      "NoteNumber": 48,
      "Velocity": 42,
      "Duration": 126582,
      "SoundDuration": 126582,
      "Delta": 104815459
    },
    {
      "NoteNumber": 46,
      "Velocity": 55,
      "Duration": 119522,
      "SoundDuration": 119522,
      "Delta": 104942041
    },
    {
      "NoteNumber": 48,
      "Velocity": 41,
      "Duration": 119522,
      "SoundDuration": 119522,
      "Delta": 105061563
    },
    {
      "NoteNumber": 46,
      "Velocity": 41,
      "Duration": 119521,
      "SoundDuration": 119521,
      "Delta": 105181085
    },
    {
      "NoteNumber": 45,
      "Velocity": 41,
      "Duration": 128755,
      "SoundDuration": 128755,
      "Delta": 105300607
    },
    {
      "NoteNumber": 70,
      "Velocity": 62,
      "Duration": 121951,
      "SoundDuration": 121951,
      "Delta": 105429362
    },
    {
      "NoteNumber": 67,
      "Velocity": 62,
      "Duration": 121951,
      "SoundDuration": 121951,
      "Delta": 105429362
    },
    {
      "NoteNumber": 43,
      "Velocity": 56,
      "Duration": 121951,
      "SoundDuration": 121951,
      "Delta": 105429362
    },
    {
      "NoteNumber": 42,
      "Velocity": 42,
      "Duration": 121951,
      "SoundDuration": 121951,
      "Delta": 105551314
    },
    {
      "NoteNumber": 43,
      "Velocity": 42,
      "Duration": 121951,
      "SoundDuration": 121951,
      "Delta": 105673265
    },
    {
      "NoteNumber": 45,
      "Velocity": 42,
      "Duration": 121951,
      "SoundDuration": 121951,
      "Delta": 105795216
    },
    {
      "NoteNumber": 67,
      "Velocity": 68,
      "Duration": 968373,
      "SoundDuration": 968373,
      "Delta": 105917167
    },
    {
      "NoteNumber": 70,
      "Velocity": 68,
      "Duration": 968373,
      "SoundDuration": 968373,
      "Delta": 105917167
    },
    {
      "NoteNumber": 79,
      "Velocity": 89,
      "Duration": 968373,
      "SoundDuration": 968373,
      "Delta": 105917167
    },
    {
      "NoteNumber": 46,
      "Velocity": 55,
      "Duration": 120481,
      "SoundDuration": 120481,
      "Delta": 105917167
    },
    {
      "NoteNumber": 45,
      "Velocity": 42,
      "Duration": 120482,
      "SoundDuration": 120482,
      "Delta": 106037649
    },
    {
      "NoteNumber": 46,
      "Velocity": 41,
      "Duration": 120481,
      "SoundDuration": 120481,
      "Delta": 106158131
    },
    {
      "NoteNumber": 47,
      "Velocity": 41,
      "Duration": 120481,
      "SoundDuration": 120481,
      "Delta": 106278613
    },
    {
      "NoteNumber": 48,
      "Velocity": 59,
      "Duration": 120482,
      "SoundDuration": 120482,
      "Delta": 106399095
    },
    {
      "NoteNumber": 47,
      "Velocity": 47,
      "Duration": 120481,
      "SoundDuration": 120481,
      "Delta": 106519577
    },
    {
      "NoteNumber": 48,
      "Velocity": 48,
      "Duration": 120481,
      "SoundDuration": 120481,
      "Delta": 106640059
    },
    {
      "NoteNumber": 49,
      "Velocity": 48,
      "Duration": 125000,
      "SoundDuration": 125000,
      "Delta": 106760541
    },
    {
      "NoteNumber": 66,
      "Velocity": 63,
      "Duration": 478087,
      "SoundDuration": 478087,
      "Delta": 106885541
    },
    {
      "NoteNumber": 69,
      "Velocity": 63,
      "Duration": 478087,
      "SoundDuration": 478087,
      "Delta": 106885541
    },
    {
      "NoteNumber": 78,
      "Velocity": 75,
      "Duration": 478087,
      "SoundDuration": 478087,
      "Delta": 106885541
    },
    {
      "NoteNumber": 50,
      "Velocity": 60,
      "Duration": 119522,
      "SoundDuration": 119522,
      "Delta": 106885541
    },
    {
      "NoteNumber": 38,
      "Velocity": 46,
      "Duration": 119522,
      "SoundDuration": 119522,
      "Delta": 107005063
    },
    {
      "NoteNumber": 42,
      "Velocity": 47,
      "Duration": 119521,
      "SoundDuration": 119521,
      "Delta": 107124585
    },
    {
      "NoteNumber": 45,
      "Velocity": 48,
      "Duration": 119522,
      "SoundDuration": 119522,
      "Delta": 107244107
    },
    {
      "NoteNumber": 50,
      "Velocity": 57,
      "Duration": 119522,
      "SoundDuration": 119522,
      "Delta": 107363629
    },
    {
      "NoteNumber": 54,
      "Velocity": 49,
      "Duration": 119522,
      "SoundDuration": 119522,
      "Delta": 107483151
    },
    {
      "NoteNumber": 57,
      "Velocity": 53,
      "Duration": 121277,
      "SoundDuration": 121277,
      "Delta": 107608649
    },
    {
      "NoteNumber": 61,
      "Velocity": 57,
      "Duration": 154639,
      "SoundDuration": 154639,
      "Delta": 107722195
    },
    {
      "NoteNumber": 62,
      "Velocity": 62,
      "Duration": 120000,
      "SoundDuration": 120000,
      "Delta": 107876835
    },
    {
      "NoteNumber": 63,
      "Velocity": 57,
      "Duration": 119999,
      "SoundDuration": 119999,
      "Delta": 107996835
    },
    {
      "NoteNumber": 62,
      "Velocity": 52,
      "Duration": 120000,
      "SoundDuration": 120000,
      "Delta": 108116835
    },
    {
      "NoteNumber": 60,
      "Velocity": 49,
      "Duration": 129870,
      "SoundDuration": 129870,
      "Delta": 108236835
    },
    {
      "NoteNumber": 58,
      "Velocity": 62,
      "Duration": 120481,
      "SoundDuration": 120481,
      "Delta": 108366705
    },
    {
      "NoteNumber": 60,
      "Velocity": 48,
      "Duration": 120482,
      "SoundDuration": 120482,
      "Delta": 108487187
    },
    {
      "NoteNumber": 58,
      "Velocity": 47,
      "Duration": 120481,
      "SoundDuration": 120481,
      "Delta": 108607669
    },
    {
      "NoteNumber": 57,
      "Velocity": 47,
      "Duration": 128755,
      "SoundDuration": 128755,
      "Delta": 108728151
    },
    {
      "NoteNumber": 67,
      "Velocity": 61,
      "Duration": 1454154,
      "SoundDuration": 1454154,
      "Delta": 108856906
    },
    {
      "NoteNumber": 70,
      "Velocity": 61,
      "Duration": 1464793,
      "SoundDuration": 1464793,
      "Delta": 108856906
    },
    {
      "NoteNumber": 74,
      "Velocity": 61,
      "Duration": 487659,
      "SoundDuration": 487659,
      "Delta": 108856906
    },
    {
      "NoteNumber": 79,
      "Velocity": 79,
      "Duration": 1454154,
      "SoundDuration": 1454154,
      "Delta": 108856906
    },
    {
      "NoteNumber": 55,
      "Velocity": 63,
      "Duration": 120000,
      "SoundDuration": 120000,
      "Delta": 108856906
    },
    {
      "NoteNumber": 57,
      "Velocity": 46,
      "Duration": 119999,
      "SoundDuration": 119999,
      "Delta": 108976906
    },
    {
      "NoteNumber": 55,
      "Velocity": 46,
      "Duration": 120000,
      "SoundDuration": 120000,
      "Delta": 109096906
    },
    {
      "NoteNumber": 53,
      "Velocity": 46,
      "Duration": 127659,
      "SoundDuration": 127659,
      "Delta": 109216906
    },
    {
      "NoteNumber": 73,
      "Velocity": 74,
      "Duration": 488028,
      "SoundDuration": 488028,
      "Delta": 109344566
    },
    {
      "NoteNumber": 52,
      "Velocity": 58,
      "Duration": 120481,
      "SoundDuration": 120481,
      "Delta": 109344566
    },
    {
      "NoteNumber": 53,
      "Velocity": 46,
      "Duration": 120482,
      "SoundDuration": 120482,
      "Delta": 109465048
    },
    {
      "NoteNumber": 52,
      "Velocity": 46,
      "Duration": 120481,
      "SoundDuration": 120481,
      "Delta": 109585530
    },
    {
      "NoteNumber": 50,
      "Velocity": 45,
      "Duration": 126582,
      "SoundDuration": 126582,
      "Delta": 109706012
    },
    {
      "NoteNumber": 76,
      "Velocity": 80,
      "Duration": 120481,
      "SoundDuration": 120481,
      "Delta": 109832594
    },
    {
      "NoteNumber": 49,
      "Velocity": 59,
      "Duration": 120481,
      "SoundDuration": 120481,
      "Delta": 109832594
    },
    {
      "NoteNumber": 50,
      "Velocity": 45,
      "Duration": 120482,
      "SoundDuration": 120482,
      "Delta": 109953076
    },
    {
      "NoteNumber": 49,
      "Velocity": 45,
      "Duration": 120481,
      "SoundDuration": 120481,
      "Delta": 110073558
    },
    {
      "NoteNumber": 46,
      "Velocity": 44,
      "Duration": 127659,
      "SoundDuration": 127659,
      "Delta": 110194040
    },
    {
      "NoteNumber": 85,
      "Velocity": 86,
      "Duration": 973925,
      "SoundDuration": 973925,
      "Delta": 110321699
    },
    {
      "NoteNumber": 76,
      "Velocity": 59,
      "Duration": 483724,
      "SoundDuration": 483724,
      "Delta": 110321699
    },
    {
      "NoteNumber": 73,
      "Velocity": 66,
      "Duration": 973925,
      "SoundDuration": 973925,
      "Delta": 110321699
    },
    {
      "NoteNumber": 45,
      "Velocity": 57,
      "Duration": 119047,
      "SoundDuration": 119047,
      "Delta": 110321699
    },
    {
      "NoteNumber": 46,
      "Velocity": 44,
      "Duration": 119047,
      "SoundDuration": 119047,
      "Delta": 110440747
    },
    {
      "NoteNumber": 45,
      "Velocity": 42,
      "Duration": 119047,
      "SoundDuration": 119047,
      "Delta": 110559794
    },
    {
      "NoteNumber": 43,
      "Velocity": 42,
      "Duration": 126582,
      "SoundDuration": 126582,
      "Delta": 110678842
    },
    {
      "NoteNumber": 79,
      "Velocity": 80,
      "Duration": 490201,
      "SoundDuration": 490201,
      "Delta": 110805424
    },
    {
      "NoteNumber": 41,
      "Velocity": 55,
      "Duration": 120481,
      "SoundDuration": 120481,
      "Delta": 110805424
    },
    {
      "NoteNumber": 43,
      "Velocity": 41,
      "Duration": 120482,
      "SoundDuration": 120482,
      "Delta": 110925906
    },
    {
      "NoteNumber": 41,
      "Velocity": 41,
      "Duration": 120481,
      "SoundDuration": 120481,
      "Delta": 111046388
    },
    {
      "NoteNumber": 40,
      "Velocity": 41,
      "Duration": 128755,
      "SoundDuration": 128755,
      "Delta": 111166870
    },
    {
      "NoteNumber": 74,
      "Velocity": 74,
      "Duration": 121951,
      "SoundDuration": 121951,
      "Delta": 111295625
    },
    {
      "NoteNumber": 86,
      "Velocity": 88,
      "Duration": 121951,
      "SoundDuration": 121951,
      "Delta": 111295625
    },
    {
      "NoteNumber": 77,
      "Velocity": 74,
      "Duration": 121951,
      "SoundDuration": 121951,
      "Delta": 111295625
    },
    {
      "NoteNumber": 38,
      "Velocity": 56,
      "Duration": 121951,
      "SoundDuration": 121951,
      "Delta": 111295625
    },
    {
      "NoteNumber": 40,
      "Velocity": 42,
      "Duration": 121951,
      "SoundDuration": 121951,
      "Delta": 111417577
    },
    {
      "NoteNumber": 41,
      "Velocity": 42,
      "Duration": 121951,
      "SoundDuration": 121951,
      "Delta": 111539528
    },
    {
      "NoteNumber": 38,
      "Velocity": 42,
      "Duration": 121951,
      "SoundDuration": 121951,
      "Delta": 111661479
    },
    {
      "NoteNumber": 74,
      "Velocity": 74,
      "Duration": 240964,
      "SoundDuration": 240964,
      "Delta": 111783430
    },
    {
      "NoteNumber": 76,
      "Velocity": 74,
      "Duration": 240964,
      "SoundDuration": 240964,
      "Delta": 111783430
    },
    {
      "NoteNumber": 86,
      "Velocity": 88,
      "Duration": 240964,
      "SoundDuration": 240964,
      "Delta": 111783430
    },
    {
      "NoteNumber": 43,
      "Velocity": 55,
      "Duration": 120481,
      "SoundDuration": 120481,
      "Delta": 111783430
    },
    {
      "NoteNumber": 45,
      "Velocity": 42,
      "Duration": 120482,
      "SoundDuration": 120482,
      "Delta": 111903912
    },
    {
      "NoteNumber": 46,
      "Velocity": 41,
      "Duration": 120481,
      "SoundDuration": 120481,
      "Delta": 112024394
    },
    {
      "NoteNumber": 43,
      "Velocity": 41,
      "Duration": 120481,
      "SoundDuration": 120481,
      "Delta": 112144876
    },
    {
      "NoteNumber": 73,
      "Velocity": 70,
      "Duration": 240964,
      "SoundDuration": 240964,
      "Delta": 112265358
    },
    {
      "NoteNumber": 76,
      "Velocity": 70,
      "Duration": 240964,
      "SoundDuration": 240964,
      "Delta": 112265358
    },
    {
      "NoteNumber": 85,
      "Velocity": 83,
      "Duration": 240964,
      "SoundDuration": 240964,
      "Delta": 112265358
    },
    {
      "NoteNumber": 45,
      "Velocity": 57,
      "Duration": 120482,
      "SoundDuration": 120482,
      "Delta": 112265358
    },
    {
      "NoteNumber": 44,
      "Velocity": 45,
      "Duration": 120481,
      "SoundDuration": 120481,
      "Delta": 112385840
    },
    {
      "NoteNumber": 45,
      "Velocity": 45,
      "Duration": 120481,
      "SoundDuration": 120481,
      "Delta": 112506322
    },
    {
      "NoteNumber": 33,
      "Velocity": 45,
      "Duration": 125000,
      "SoundDuration": 125000,
      "Delta": 112626804
    },
    {
      "NoteNumber": 74,
      "Velocity": 74,
      "Duration": 478087,
      "SoundDuration": 478087,
      "Delta": 112751804
    },
    {
      "NoteNumber": 77,
      "Velocity": 74,
      "Duration": 478087,
      "SoundDuration": 478087,
      "Delta": 112751804
    },
    {
      "NoteNumber": 86,
      "Velocity": 88,
      "Duration": 478087,
      "SoundDuration": 478087,
      "Delta": 112751804
    },
    {
      "NoteNumber": 38,
      "Velocity": 60,
      "Duration": 119522,
      "SoundDuration": 119522,
      "Delta": 112751804
    },
    {
      "NoteNumber": 41,
      "Velocity": 46,
      "Duration": 119522,
      "SoundDuration": 119522,
      "Delta": 112871326
    },
    {
      "NoteNumber": 45,
      "Velocity": 46,
      "Duration": 119521,
      "SoundDuration": 119521,
      "Delta": 112990848
    },
    {
      "NoteNumber": 50,
      "Velocity": 42,
      "Duration": 119522,
      "SoundDuration": 119522,
      "Delta": 113110370
    },
    {
      "NoteNumber": 38,
      "Velocity": 57,
      "Duration": 452708,
      "SoundDuration": 452708,
      "Delta": 113229892
    },
    {
      "NoteNumber": 80,
      "Velocity": 74,
      "Duration": 120000,
      "SoundDuration": 120000,
      "Delta": 113713981
    },
    {
      "NoteNumber": 82,
      "Velocity": 48,
      "Duration": 120000,
      "SoundDuration": 120000,
      "Delta": 113833981
    },
    {
      "NoteNumber": 80,
      "Velocity": 48,
      "Duration": 119999,
      "SoundDuration": 119999,
      "Delta": 113953981
    },
    {
      "NoteNumber": 79,
      "Velocity": 48,
      "Duration": 120000,
      "SoundDuration": 120000,
      "Delta": 114073981
    },
    {
      "NoteNumber": 77,
      "Velocity": 68,
      "Duration": 122950,
      "SoundDuration": 122950,
      "Delta": 114193981
    },
    {
      "NoteNumber": 68,
      "Velocity": 67,
      "Duration": 122950,
      "SoundDuration": 122950,
      "Delta": 114193981
    },
    {
      "NoteNumber": 79,
      "Velocity": 48,
      "Duration": 120481,
      "SoundDuration": 120481,
      "Delta": 114316932
    },
    {
      "NoteNumber": 70,
      "Velocity": 46,
      "Duration": 120481,
      "SoundDuration": 120481,
      "Delta": 114316932
    },
    {
      "NoteNumber": 77,
      "Velocity": 47,
      "Duration": 120482,
      "SoundDuration": 120482,
      "Delta": 114437414
    },
    {
      "NoteNumber": 68,
      "Velocity": 46,
      "Duration": 120482,
      "SoundDuration": 120482,
      "Delta": 114437414
    },
    {
      "NoteNumber": 75,
      "Velocity": 47,
      "Duration": 120481,
      "SoundDuration": 120481,
      "Delta": 114557896
    },
    {
      "NoteNumber": 67,
      "Velocity": 46,
      "Duration": 120481,
      "SoundDuration": 120481,
      "Delta": 114557896
    },
    {
      "NoteNumber": 74,
      "Velocity": 63,
      "Duration": 123456,
      "SoundDuration": 123456,
      "Delta": 114678378
    },
    {
      "NoteNumber": 65,
      "Velocity": 59,
      "Duration": 123456,
      "SoundDuration": 123456,
      "Delta": 114678378
    },
    {
      "NoteNumber": 75,
      "Velocity": 46,
      "Duration": 120481,
      "SoundDuration": 120481,
      "Delta": 114801835
    },
    {
      "NoteNumber": 67,
      "Velocity": 46,
      "Duration": 120481,
      "SoundDuration": 120481,
      "Delta": 114801835
    },
    {
      "NoteNumber": 74,
      "Velocity": 46,
      "Duration": 120482,
      "SoundDuration": 120482,
      "Delta": 114922317
    },
    {
      "NoteNumber": 65,
      "Velocity": 46,
      "Duration": 120482,
      "SoundDuration": 120482,
      "Delta": 114922317
    },
    {
      "NoteNumber": 72,
      "Velocity": 46,
      "Duration": 120481,
      "SoundDuration": 120481,
      "Delta": 115042799
    },
    {
      "NoteNumber": 63,
      "Velocity": 46,
      "Duration": 120481,
      "SoundDuration": 120481,
      "Delta": 115042799
    },
    {
      "NoteNumber": 79,
      "Velocity": 74,
      "Duration": 128755,
      "SoundDuration": 128755,
      "Delta": 115163281
    },
    {
      "NoteNumber": 71,
      "Velocity": 84,
      "Duration": 488755,
      "SoundDuration": 488755,
      "Delta": 115163281
    },
    {
      "NoteNumber": 55,
      "Velocity": 56,
      "Duration": 488755,
      "SoundDuration": 488755,
      "Delta": 115163281
    },
    {
      "NoteNumber": 62,
      "Velocity": 67,
      "Duration": 488755,
      "SoundDuration": 488755,
      "Delta": 115163281
    },
    {
      "NoteNumber": 80,
      "Velocity": 48,
      "Duration": 120000,
      "SoundDuration": 120000,
      "Delta": 115292036
    },
    {
      "NoteNumber": 79,
      "Velocity": 48,
      "Duration": 119999,
      "SoundDuration": 119999,
      "Delta": 115412036
    },
    {
      "NoteNumber": 77,
      "Velocity": 48,
      "Duration": 120000,
      "SoundDuration": 120000,
      "Delta": 115532036
    },
    {
      "NoteNumber": 72,
      "Velocity": 66,
      "Duration": 243432,
      "SoundDuration": 243432,
      "Delta": 115652036
    },
    {
      "NoteNumber": 75,
      "Velocity": 68,
      "Duration": 122950,
      "SoundDuration": 122950,
      "Delta": 115652036
    },
    {
      "NoteNumber": 60,
      "Velocity": 56,
      "Duration": 243432,
      "SoundDuration": 243432,
      "Delta": 115652036
    },
    {
      "NoteNumber": 63,
      "Velocity": 67,
      "Duration": 243432,
      "SoundDuration": 243432,
      "Delta": 115652036
    },
    {
      "NoteNumber": 77,
      "Velocity": 48,
      "Duration": 120481,
      "SoundDuration": 120481,
      "Delta": 115774987
    },
    {
      "NoteNumber": 75,
      "Velocity": 47,
      "Duration": 120482,
      "SoundDuration": 120482,
      "Delta": 115895469
    },
    {
      "NoteNumber": 74,
      "Velocity": 47,
      "Duration": 120481,
      "SoundDuration": 120481,
      "Delta": 116015951
    },
    {
      "NoteNumber": 72,
      "Velocity": 63,
      "Duration": 243938,
      "SoundDuration": 243938,
      "Delta": 116136433
    },
    {
      "NoteNumber": 71,
      "Velocity": 46,
      "Duration": 120481,
      "SoundDuration": 120481,
      "Delta": 116259890
    },
    {
      "NoteNumber": 72,
      "Velocity": 46,
      "Duration": 120482,
      "SoundDuration": 120482,
      "Delta": 116380372
    },
    {
      "NoteNumber": 74,
      "Velocity": 46,
      "Duration": 120481,
      "SoundDuration": 120481,
      "Delta": 116500854
    },
    {
      "NoteNumber": 75,
      "Velocity": 74,
      "Duration": 120000,
      "SoundDuration": 120000,
      "Delta": 116621336
    },
    {
      "NoteNumber": 77,
      "Velocity": 48,
      "Duration": 120000,
      "SoundDuration": 120000,
      "Delta": 116741336
    },
    {
      "NoteNumber": 75,
      "Velocity": 48,
      "Duration": 119999,
      "SoundDuration": 119999,
      "Delta": 116861336
    },
    {
      "NoteNumber": 74,
      "Velocity": 48,
      "Duration": 120000,
      "SoundDuration": 120000,
      "Delta": 116981336
    },
    {
      "NoteNumber": 72,
      "Velocity": 68,
      "Duration": 122950,
      "SoundDuration": 122950,
      "Delta": 117101336
    },
    {
      "NoteNumber": 63,
      "Velocity": 67,
      "Duration": 122950,
      "SoundDuration": 122950,
      "Delta": 117101336
    },
    {
      "NoteNumber": 74,
      "Velocity": 48,
      "Duration": 119522,
      "SoundDuration": 119522,
      "Delta": 117224286
    },
    {
      "NoteNumber": 65,
      "Velocity": 46,
      "Duration": 119522,
      "SoundDuration": 119522,
      "Delta": 117224286
    },
    {
      "NoteNumber": 72,
      "Velocity": 47,
      "Duration": 119522,
      "SoundDuration": 119522,
      "Delta": 117343808
    },
    {
      "NoteNumber": 63,
      "Velocity": 46,
      "Duration": 119522,
      "SoundDuration": 119522,
      "Delta": 117343808
    },
    {
      "NoteNumber": 70,
      "Velocity": 47,
      "Duration": 119521,
      "SoundDuration": 119521,
      "Delta": 117463330
    },
    {
      "NoteNumber": 62,
      "Velocity": 46,
      "Duration": 119521,
      "SoundDuration": 119521,
      "Delta": 117463330
    },
    {
      "NoteNumber": 69,
      "Velocity": 63,
      "Duration": 123456,
      "SoundDuration": 123456,
      "Delta": 117582852
    },
    {
      "NoteNumber": 60,
      "Velocity": 59,
      "Duration": 123456,
      "SoundDuration": 123456,
      "Delta": 117582852
    },
    {
      "NoteNumber": 70,
      "Velocity": 46,
      "Duration": 120481,
      "SoundDuration": 120481,
      "Delta": 117706309
    },
    {
      "NoteNumber": 62,
      "Velocity": 46,
      "Duration": 120481,
      "SoundDuration": 120481,
      "Delta": 117706309
    },
    {
      "NoteNumber": 69,
      "Velocity": 46,
      "Duration": 120482,
      "SoundDuration": 120482,
      "Delta": 117826791
    },
    {
      "NoteNumber": 60,
      "Velocity": 46,
      "Duration": 120482,
      "SoundDuration": 120482,
      "Delta": 117826791
    },
    {
      "NoteNumber": 67,
      "Velocity": 46,
      "Duration": 120481,
      "SoundDuration": 120481,
      "Delta": 117947273
    },
    {
      "NoteNumber": 58,
      "Velocity": 46,
      "Duration": 120481,
      "SoundDuration": 120481,
      "Delta": 117947273
    },
    {
      "NoteNumber": 74,
      "Velocity": 74,
      "Duration": 128755,
      "SoundDuration": 128755,
      "Delta": 118067755
    },
    {
      "NoteNumber": 66,
      "Velocity": 79,
      "Duration": 488755,
      "SoundDuration": 488755,
      "Delta": 118067755
    },
    {
      "NoteNumber": 50,
      "Velocity": 56,
      "Duration": 488755,
      "SoundDuration": 488755,
      "Delta": 118067755
    },
    {
      "NoteNumber": 57,
      "Velocity": 67,
      "Duration": 488755,
      "SoundDuration": 488755,
      "Delta": 118067755
    },
    {
      "NoteNumber": 75,
      "Velocity": 48,
      "Duration": 120000,
      "SoundDuration": 120000,
      "Delta": 118196510
    },
    {
      "NoteNumber": 74,
      "Velocity": 48,
      "Duration": 119999,
      "SoundDuration": 119999,
      "Delta": 118316510
    },
    {
      "NoteNumber": 72,
      "Velocity": 48,
      "Duration": 120000,
      "SoundDuration": 120000,
      "Delta": 118436510
    },
    {
      "NoteNumber": 67,
      "Velocity": 66,
      "Duration": 243432,
      "SoundDuration": 243432,
      "Delta": 118556510
    },
    {
      "NoteNumber": 70,
      "Velocity": 68,
      "Duration": 122950,
      "SoundDuration": 122950,
      "Delta": 118556510
    },
    {
      "NoteNumber": 55,
      "Velocity": 56,
      "Duration": 243432,
      "SoundDuration": 243432,
      "Delta": 118556510
    },
    {
      "NoteNumber": 58,
      "Velocity": 67,
      "Duration": 243432,
      "SoundDuration": 243432,
      "Delta": 118556510
    },
    {
      "NoteNumber": 72,
      "Velocity": 48,
      "Duration": 120481,
      "SoundDuration": 120481,
      "Delta": 118679461
    },
    {
      "NoteNumber": 70,
      "Velocity": 47,
      "Duration": 120482,
      "SoundDuration": 120482,
      "Delta": 118799943
    },
    {
      "NoteNumber": 69,
      "Velocity": 47,
      "Duration": 120481,
      "SoundDuration": 120481,
      "Delta": 118920425
    },
    {
      "NoteNumber": 67,
      "Velocity": 63,
      "Duration": 123456,
      "SoundDuration": 123456,
      "Delta": 119040907
    },
    {
      "NoteNumber": 66,
      "Velocity": 46,
      "Duration": 120481,
      "SoundDuration": 120481,
      "Delta": 119164364
    },
    {
      "NoteNumber": 67,
      "Velocity": 46,
      "Duration": 120482,
      "SoundDuration": 120482,
      "Delta": 119284846
    },
    {
      "NoteNumber": 69,
      "Velocity": 46,
      "Duration": 120481,
      "SoundDuration": 120481,
      "Delta": 119405328
    },
    {
      "NoteNumber": 67,
      "Velocity": 59,
      "Duration": 975767,
      "SoundDuration": 975767,
      "Delta": 119525810
    },
    {
      "NoteNumber": 70,
      "Velocity": 59,
      "Duration": 975767,
      "SoundDuration": 975767,
      "Delta": 119525810
    },
    {
      "NoteNumber": 74,
      "Velocity": 77,
      "Duration": 975767,
      "SoundDuration": 975767,
      "Delta": 119525810
    },
    {
      "NoteNumber": 62,
      "Velocity": 62,
      "Duration": 120000,
      "SoundDuration": 120000,
      "Delta": 119525810
    },
    {
      "NoteNumber": 63,
      "Velocity": 48,
      "Duration": 119999,
      "SoundDuration": 119999,
      "Delta": 119645810
    },
    {
      "NoteNumber": 62,
      "Velocity": 48,
      "Duration": 120000,
      "SoundDuration": 120000,
      "Delta": 119765810
    },
    {
      "NoteNumber": 60,
      "Velocity": 48,
      "Duration": 129870,
      "SoundDuration": 129870,
      "Delta": 119885810
    },
    {
      "NoteNumber": 58,
      "Velocity": 62,
      "Duration": 119047,
      "SoundDuration": 119047,
      "Delta": 120015680
    },
    {
      "NoteNumber": 60,
      "Velocity": 48,
      "Duration": 119047,
      "SoundDuration": 119047,
      "Delta": 120134728
    },
    {
      "NoteNumber": 58,
      "Velocity": 47,
      "Duration": 119047,
      "SoundDuration": 119047,
      "Delta": 120253775
    },
    {
      "NoteNumber": 57,
      "Velocity": 47,
      "Duration": 128755,
      "SoundDuration": 128755,
      "Delta": 120372823
    },
    {
      "NoteNumber": 67,
      "Velocity": 61,
      "Duration": 1455600,
      "SoundDuration": 1455600,
      "Delta": 120501578
    },
    {
      "NoteNumber": 70,
      "Velocity": 61,
      "Duration": 1466239,
      "SoundDuration": 1466239,
      "Delta": 120501578
    },
    {
      "NoteNumber": 74,
      "Velocity": 61,
      "Duration": 977133,
      "SoundDuration": 977133,
      "Delta": 120501578
    },
    {
      "NoteNumber": 79,
      "Velocity": 86,
      "Duration": 1455600,
      "SoundDuration": 1455600,
      "Delta": 120501578
    },
    {
      "NoteNumber": 55,
      "Velocity": 63,
      "Duration": 120481,
      "SoundDuration": 120481,
      "Delta": 120501578
    },
    {
      "NoteNumber": 57,
      "Velocity": 46,
      "Duration": 120482,
      "SoundDuration": 120482,
      "Delta": 120622060
    },
    {
      "NoteNumber": 55,
      "Velocity": 46,
      "Duration": 120481,
      "SoundDuration": 120481,
      "Delta": 120742542
    },
    {
      "NoteNumber": 53,
      "Velocity": 46,
      "Duration": 127659,
      "SoundDuration": 127659,
      "Delta": 120863024
    },
    {
      "NoteNumber": 51,
      "Velocity": 58,
      "Duration": 120481,
      "SoundDuration": 120481,
      "Delta": 120990683
    },
    {
      "NoteNumber": 53,
      "Velocity": 46,
      "Duration": 120482,
      "SoundDuration": 120482,
      "Delta": 121111165
    },
    {
      "NoteNumber": 51,
      "Velocity": 46,
      "Duration": 120481,
      "SoundDuration": 120481,
      "Delta": 121231647
    },
    {
      "NoteNumber": 50,
      "Velocity": 45,
      "Duration": 126582,
      "SoundDuration": 126582,
      "Delta": 121352129
    },
    {
      "NoteNumber": 72,
      "Velocity": 71,
      "Duration": 120481,
      "SoundDuration": 120481,
      "Delta": 121478712
    },
    {
      "NoteNumber": 75,
      "Velocity": 80,
      "Duration": 120481,
      "SoundDuration": 120481,
      "Delta": 121478712
    },
    {
      "NoteNumber": 48,
      "Velocity": 59,
      "Duration": 120481,
      "SoundDuration": 120481,
      "Delta": 121478712
    },
    {
      "NoteNumber": 50,
      "Velocity": 45,
      "Duration": 120482,
      "SoundDuration": 120482,
      "Delta": 121599194
    },
    {
      "NoteNumber": 48,
      "Velocity": 45,
      "Duration": 120481,
      "SoundDuration": 120481,
      "Delta": 121719676
    },
    {
      "NoteNumber": 46,
      "Velocity": 44,
      "Duration": 127659,
      "SoundDuration": 127659,
      "Delta": 121840158
    },
    {
      "NoteNumber": 84,
      "Velocity": 86,
      "Duration": 1095877,
      "SoundDuration": 1095877,
      "Delta": 121967817
    },
    {
      "NoteNumber": 75,
      "Velocity": 59,
      "Duration": 483724,
      "SoundDuration": 483724,
      "Delta": 121967817
    },
    {
      "NoteNumber": 72,
      "Velocity": 66,
      "Duration": 1095877,
      "SoundDuration": 1095877,
      "Delta": 121967817
    },
    {
      "NoteNumber": 44,
      "Velocity": 57,
      "Duration": 119047,
      "SoundDuration": 119047,
      "Delta": 121967817
    },
    {
      "NoteNumber": 46,
      "Velocity": 44,
      "Duration": 119047,
      "SoundDuration": 119047,
      "Delta": 122086865
    },
    {
      "NoteNumber": 44,
      "Velocity": 42,
      "Duration": 119047,
      "SoundDuration": 119047,
      "Delta": 122205912
    },
    {
      "NoteNumber": 43,
      "Velocity": 42,
      "Duration": 126582,
      "SoundDuration": 126582,
      "Delta": 122324960
    },
    {
      "NoteNumber": 81,
      "Velocity": 69,
      "Duration": 479471,
      "SoundDuration": 479471,
      "Delta": 122451542
    },
    {
      "NoteNumber": 42,
      "Velocity": 55,
      "Duration": 120481,
      "SoundDuration": 120481,
      "Delta": 122451542
    },
    {
      "NoteNumber": 43,
      "Velocity": 41,
      "Duration": 120482,
      "SoundDuration": 120482,
      "Delta": 122572024
    },
    {
      "NoteNumber": 42,
      "Velocity": 41,
      "Duration": 120481,
      "SoundDuration": 120481,
      "Delta": 122692506
    },
    {
      "NoteNumber": 40,
      "Velocity": 41,
      "Duration": 128755,
      "SoundDuration": 128755,
      "Delta": 122812988
    },
    {
      "NoteNumber": 78,
      "Velocity": 74,
      "Duration": 121951,
      "SoundDuration": 121951,
      "Delta": 122941743
    },
    {
      "NoteNumber": 81,
      "Velocity": 66,
      "Duration": 121951,
      "SoundDuration": 121951,
      "Delta": 122941743
    },
    {
      "NoteNumber": 38,
      "Velocity": 56,
      "Duration": 121951,
      "SoundDuration": 121951,
      "Delta": 122941743
    },
    {
      "NoteNumber": 40,
      "Velocity": 42,
      "Duration": 121951,
      "SoundDuration": 121951,
      "Delta": 123063694
    },
    {
      "NoteNumber": 42,
      "Velocity": 42,
      "Duration": 121951,
      "SoundDuration": 121951,
      "Delta": 123185646
    },
    {
      "NoteNumber": 38,
      "Velocity": 42,
      "Duration": 121951,
      "SoundDuration": 121951,
      "Delta": 123307597
    },
    {
      "NoteNumber": 79,
      "Velocity": 74,
      "Duration": 240964,
      "SoundDuration": 240964,
      "Delta": 123429548
    },
    {
      "NoteNumber": 70,
      "Velocity": 67,
      "Duration": 240964,
      "SoundDuration": 240964,
      "Delta": 123429548
    },
    {
      "NoteNumber": 74,
      "Velocity": 67,
      "Duration": 240964,
      "SoundDuration": 240964,
      "Delta": 123429548
    },
    {
      "NoteNumber": 82,
      "Velocity": 88,
      "Duration": 240964,
      "SoundDuration": 240964,
      "Delta": 123429548
    },
    {
      "NoteNumber": 43,
      "Velocity": 55,
      "Duration": 120481,
      "SoundDuration": 120481,
      "Delta": 123429548
    },
    {
      "NoteNumber": 45,
      "Velocity": 42,
      "Duration": 120482,
      "SoundDuration": 120482,
      "Delta": 123550030
    },
    {
      "NoteNumber": 46,
      "Velocity": 41,
      "Duration": 120481,
      "SoundDuration": 120481,
      "Delta": 123670512
    },
    {
      "NoteNumber": 43,
      "Velocity": 41,
      "Duration": 120481,
      "SoundDuration": 120481,
      "Delta": 123790994
    },
    {
      "NoteNumber": 69,
      "Velocity": 62,
      "Duration": 240964,
      "SoundDuration": 240964,
      "Delta": 123911476
    },
    {
      "NoteNumber": 66,
      "Velocity": 62,
      "Duration": 240964,
      "SoundDuration": 240964,
      "Delta": 123911476
    },
    {
      "NoteNumber": 74,
      "Velocity": 70,
      "Duration": 240964,
      "SoundDuration": 240964,
      "Delta": 123911476
    },
    {
      "NoteNumber": 78,
      "Velocity": 83,
      "Duration": 240964,
      "SoundDuration": 240964,
      "Delta": 123911476
    },
    {
      "NoteNumber": 50,
      "Velocity": 57,
      "Duration": 120482,
      "SoundDuration": 120482,
      "Delta": 123911476
    },
    {
      "NoteNumber": 48,
      "Velocity": 45,
      "Duration": 120481,
      "SoundDuration": 120481,
      "Delta": 124031958
    },
    {
      "NoteNumber": 46,
      "Velocity": 45,
      "Duration": 120481,
      "SoundDuration": 120481,
      "Delta": 124152440
    },
    {
      "NoteNumber": 45,
      "Velocity": 45,
      "Duration": 125000,
      "SoundDuration": 125000,
      "Delta": 124272922
    },
    {
      "NoteNumber": 70,
      "Velocity": 67,
      "Duration": 478087,
      "SoundDuration": 478087,
      "Delta": 124397922
    },
    {
      "NoteNumber": 67,
      "Velocity": 67,
      "Duration": 478087,
      "SoundDuration": 478087,
      "Delta": 124397922
    },
    {
      "NoteNumber": 74,
      "Velocity": 74,
      "Duration": 478087,
      "SoundDuration": 478087,
      "Delta": 124397922
    },
    {
      "NoteNumber": 79,
      "Velocity": 88,
      "Duration": 478087,
      "SoundDuration": 478087,
      "Delta": 124397922
    },
    {
      "NoteNumber": 43,
      "Velocity": 60,
      "Duration": 119522,
      "SoundDuration": 119522,
      "Delta": 124397922
    },
    {
      "NoteNumber": 46,
      "Velocity": 46,
      "Duration": 119522,
      "SoundDuration": 119522,
      "Delta": 124517444
    },
    {
      "NoteNumber": 50,
      "Velocity": 46,
      "Duration": 119521,
      "SoundDuration": 119521,
      "Delta": 124636966
    },
    {
      "NoteNumber": 55,
      "Velocity": 42,
      "Duration": 119522,
      "SoundDuration": 119522,
      "Delta": 124756488
    },
    {
      "NoteNumber": 43,
      "Velocity": 57,
      "Duration": 448207,
      "SoundDuration": 448207,
      "Delta": 124876010
    },
    {
      "NoteNumber": 80,
      "Velocity": 74,
      "Duration": 120000,
      "SoundDuration": 120000,
      "Delta": 125354098
    },
    {
      "NoteNumber": 82,
      "Velocity": 48,
      "Duration": 120000,
      "SoundDuration": 120000,
      "Delta": 125474098
    },
    {
      "NoteNumber": 80,
      "Velocity": 48,
      "Duration": 119999,
      "SoundDuration": 119999,
      "Delta": 125594098
    },
    {
      "NoteNumber": 79,
      "Velocity": 48,
      "Duration": 120000,
      "SoundDuration": 120000,
      "Delta": 125714098
    },
    {
      "NoteNumber": 77,
      "Velocity": 68,
      "Duration": 122950,
      "SoundDuration": 122950,
      "Delta": 125834098
    },
    {
      "NoteNumber": 68,
      "Velocity": 67,
      "Duration": 122950,
      "SoundDuration": 122950,
      "Delta": 125834098
    },
    {
      "NoteNumber": 79,
      "Velocity": 48,
      "Duration": 120481,
      "SoundDuration": 120481,
      "Delta": 125957049
    },
    {
      "NoteNumber": 70,
      "Velocity": 46,
      "Duration": 120481,
      "SoundDuration": 120481,
      "Delta": 125957049
    },
    {
      "NoteNumber": 77,
      "Velocity": 47,
      "Duration": 120482,
      "SoundDuration": 120482,
      "Delta": 126077531
    },
    {
      "NoteNumber": 68,
      "Velocity": 46,
      "Duration": 120482,
      "SoundDuration": 120482,
      "Delta": 126077531
    },
    {
      "NoteNumber": 75,
      "Velocity": 47,
      "Duration": 120481,
      "SoundDuration": 120481,
      "Delta": 126198013
    },
    {
      "NoteNumber": 67,
      "Velocity": 46,
      "Duration": 120481,
      "SoundDuration": 120481,
      "Delta": 126198013
    },
    {
      "NoteNumber": 74,
      "Velocity": 63,
      "Duration": 123456,
      "SoundDuration": 123456,
      "Delta": 126318495
    },
    {
      "NoteNumber": 65,
      "Velocity": 59,
      "Duration": 123456,
      "SoundDuration": 123456,
      "Delta": 126318495
    },
    {
      "NoteNumber": 75,
      "Velocity": 46,
      "Duration": 120481,
      "SoundDuration": 120481,
      "Delta": 126441952
    },
    {
      "NoteNumber": 67,
      "Velocity": 46,
      "Duration": 120481,
      "SoundDuration": 120481,
      "Delta": 126441952
    },
    {
      "NoteNumber": 74,
      "Velocity": 46,
      "Duration": 120482,
      "SoundDuration": 120482,
      "Delta": 126562434
    },
    {
      "NoteNumber": 65,
      "Velocity": 46,
      "Duration": 120482,
      "SoundDuration": 120482,
      "Delta": 126562434
    },
    {
      "NoteNumber": 72,
      "Velocity": 46,
      "Duration": 120481,
      "SoundDuration": 120481,
      "Delta": 126682916
    },
    {
      "NoteNumber": 63,
      "Velocity": 46,
      "Duration": 120481,
      "SoundDuration": 120481,
      "Delta": 126682916
    },
    {
      "NoteNumber": 79,
      "Velocity": 74,
      "Duration": 128755,
      "SoundDuration": 128755,
      "Delta": 126803398
    },
    {
      "NoteNumber": 71,
      "Velocity": 84,
      "Duration": 488755,
      "SoundDuration": 488755,
      "Delta": 126803398
    },
    {
      "NoteNumber": 55,
      "Velocity": 56,
      "Duration": 488755,
      "SoundDuration": 488755,
      "Delta": 126803398
    },
    {
      "NoteNumber": 62,
      "Velocity": 67,
      "Duration": 488755,
      "SoundDuration": 488755,
      "Delta": 126803398
    },
    {
      "NoteNumber": 80,
      "Velocity": 48,
      "Duration": 120000,
      "SoundDuration": 120000,
      "Delta": 126932153
    },
    {
      "NoteNumber": 79,
      "Velocity": 48,
      "Duration": 120000,
      "SoundDuration": 120000,
      "Delta": 127052153
    },
    {
      "NoteNumber": 77,
      "Velocity": 48,
      "Duration": 120000,
      "SoundDuration": 120000,
      "Delta": 127172153
    },
    {
      "NoteNumber": 72,
      "Velocity": 66,
      "Duration": 243432,
      "SoundDuration": 243432,
      "Delta": 127292153
    },
    {
      "NoteNumber": 75,
      "Velocity": 68,
      "Duration": 122950,
      "SoundDuration": 122950,
      "Delta": 127292153
    },
    {
      "NoteNumber": 60,
      "Velocity": 56,
      "Duration": 243432,
      "SoundDuration": 243432,
      "Delta": 127292153
    },
    {
      "NoteNumber": 63,
      "Velocity": 67,
      "Duration": 243432,
      "SoundDuration": 243432,
      "Delta": 127292153
    },
    {
      "NoteNumber": 77,
      "Velocity": 48,
      "Duration": 120482,
      "SoundDuration": 120482,
      "Delta": 127415104
    },
    {
      "NoteNumber": 75,
      "Velocity": 47,
      "Duration": 120481,
      "SoundDuration": 120481,
      "Delta": 127535586
    },
    {
      "NoteNumber": 74,
      "Velocity": 47,
      "Duration": 120482,
      "SoundDuration": 120482,
      "Delta": 127656068
    },
    {
      "NoteNumber": 72,
      "Velocity": 63,
      "Duration": 243938,
      "SoundDuration": 243938,
      "Delta": 127776550
    },
    {
      "NoteNumber": 71,
      "Velocity": 46,
      "Duration": 120482,
      "SoundDuration": 120482,
      "Delta": 127900006
    },
    {
      "NoteNumber": 72,
      "Velocity": 46,
      "Duration": 120481,
      "SoundDuration": 120481,
      "Delta": 128020488
    },
    {
      "NoteNumber": 74,
      "Velocity": 46,
      "Duration": 120482,
      "SoundDuration": 120482,
      "Delta": 128140970
    },
    {
      "NoteNumber": 75,
      "Velocity": 74,
      "Duration": 120000,
      "SoundDuration": 120000,
      "Delta": 128261452
    },
    {
      "NoteNumber": 77,
      "Velocity": 48,
      "Duration": 120000,
      "SoundDuration": 120000,
      "Delta": 128381452
    },
    {
      "NoteNumber": 75,
      "Velocity": 48,
      "Duration": 120000,
      "SoundDuration": 120000,
      "Delta": 128501452
    },
    {
      "NoteNumber": 74,
      "Velocity": 48,
      "Duration": 120000,
      "SoundDuration": 120000,
      "Delta": 128621452
    },
    {
      "NoteNumber": 72,
      "Velocity": 68,
      "Duration": 122950,
      "SoundDuration": 122950,
      "Delta": 128741452
    },
    {
      "NoteNumber": 63,
      "Velocity": 67,
      "Duration": 122950,
      "SoundDuration": 122950,
      "Delta": 128741452
    },
    {
      "NoteNumber": 74,
      "Velocity": 48,
      "Duration": 120482,
      "SoundDuration": 120482,
      "Delta": 128864403
    },
    {
      "NoteNumber": 65,
      "Velocity": 46,
      "Duration": 120482,
      "SoundDuration": 120482,
      "Delta": 128864403
    },
    {
      "NoteNumber": 72,
      "Velocity": 47,
      "Duration": 120481,
      "SoundDuration": 120481,
      "Delta": 128984885
    },
    {
      "NoteNumber": 63,
      "Velocity": 46,
      "Duration": 120481,
      "SoundDuration": 120481,
      "Delta": 128984885
    },
    {
      "NoteNumber": 70,
      "Velocity": 47,
      "Duration": 120482,
      "SoundDuration": 120482,
      "Delta": 129105367
    },
    {
      "NoteNumber": 62,
      "Velocity": 46,
      "Duration": 120482,
      "SoundDuration": 120482,
      "Delta": 129105367
    },
    {
      "NoteNumber": 69,
      "Velocity": 63,
      "Duration": 123456,
      "SoundDuration": 123456,
      "Delta": 129225849
    },
    {
      "NoteNumber": 60,
      "Velocity": 59,
      "Duration": 123456,
      "SoundDuration": 123456,
      "Delta": 129225849
    },
    {
      "NoteNumber": 70,
      "Velocity": 46,
      "Duration": 120482,
      "SoundDuration": 120482,
      "Delta": 129349306
    },
    {
      "NoteNumber": 62,
      "Velocity": 46,
      "Duration": 120482,
      "SoundDuration": 120482,
      "Delta": 129349306
    },
    {
      "NoteNumber": 69,
      "Velocity": 46,
      "Duration": 120481,
      "SoundDuration": 120481,
      "Delta": 129469788
    },
    {
      "NoteNumber": 60,
      "Velocity": 46,
      "Duration": 120481,
      "SoundDuration": 120481,
      "Delta": 129469788
    },
    {
      "NoteNumber": 67,
      "Velocity": 46,
      "Duration": 120482,
      "SoundDuration": 120482,
      "Delta": 129590270
    },
    {
      "NoteNumber": 58,
      "Velocity": 46,
      "Duration": 120482,
      "SoundDuration": 120482,
      "Delta": 129590270
    },
    {
      "NoteNumber": 74,
      "Velocity": 74,
      "Duration": 128755,
      "SoundDuration": 128755,
      "Delta": 129710752
    },
    {
      "NoteNumber": 66,
      "Velocity": 79,
      "Duration": 488755,
      "SoundDuration": 488755,
      "Delta": 129710752
    },
    {
      "NoteNumber": 50,
      "Velocity": 56,
      "Duration": 488755,
      "SoundDuration": 488755,
      "Delta": 129710752
    },
    {
      "NoteNumber": 57,
      "Velocity": 67,
      "Duration": 488755,
      "SoundDuration": 488755,
      "Delta": 129710752
    },
    {
      "NoteNumber": 75,
      "Velocity": 48,
      "Duration": 120000,
      "SoundDuration": 120000,
      "Delta": 129839507
    },
    {
      "NoteNumber": 74,
      "Velocity": 48,
      "Duration": 120000,
      "SoundDuration": 120000,
      "Delta": 129959507
    },
    {
      "NoteNumber": 72,
      "Velocity": 48,
      "Duration": 120000,
      "SoundDuration": 120000,
      "Delta": 130079507
    },
    {
      "NoteNumber": 67,
      "Velocity": 66,
      "Duration": 243432,
      "SoundDuration": 243432,
      "Delta": 130199507
    },
    {
      "NoteNumber": 70,
      "Velocity": 68,
      "Duration": 122950,
      "SoundDuration": 122950,
      "Delta": 130199507
    },
    {
      "NoteNumber": 55,
      "Velocity": 56,
      "Duration": 243432,
      "SoundDuration": 243432,
      "Delta": 130199507
    },
    {
      "NoteNumber": 58,
      "Velocity": 67,
      "Duration": 243432,
      "SoundDuration": 243432,
      "Delta": 130199507
    },
    {
      "NoteNumber": 72,
      "Velocity": 48,
      "Duration": 120482,
      "SoundDuration": 120482,
      "Delta": 130322458
    },
    {
      "NoteNumber": 70,
      "Velocity": 47,
      "Duration": 120481,
      "SoundDuration": 120481,
      "Delta": 130442940
    },
    {
      "NoteNumber": 69,
      "Velocity": 47,
      "Duration": 120482,
      "SoundDuration": 120482,
      "Delta": 130563422
    },
    {
      "NoteNumber": 67,
      "Velocity": 63,
      "Duration": 123456,
      "SoundDuration": 123456,
      "Delta": 130683904
    },
    {
      "NoteNumber": 66,
      "Velocity": 46,
      "Duration": 120482,
      "SoundDuration": 120482,
      "Delta": 130807361
    },
    {
      "NoteNumber": 67,
      "Velocity": 46,
      "Duration": 120481,
      "SoundDuration": 120481,
      "Delta": 130927843
    },
    {
      "NoteNumber": 69,
      "Velocity": 46,
      "Duration": 120482,
      "SoundDuration": 120482,
      "Delta": 131048325
    },
    {
      "NoteNumber": 67,
      "Velocity": 59,
      "Duration": 980071,
      "SoundDuration": 980071,
      "Delta": 131168807
    },
    {
      "NoteNumber": 70,
      "Velocity": 59,
      "Duration": 980071,
      "SoundDuration": 980071,
      "Delta": 131168807
    },
    {
      "NoteNumber": 74,
      "Velocity": 77,
      "Duration": 980071,
      "SoundDuration": 980071,
      "Delta": 131168807
    },
    {
      "NoteNumber": 62,
      "Velocity": 62,
      "Duration": 120000,
      "SoundDuration": 120000,
      "Delta": 131168807
    },
    {
      "NoteNumber": 63,
      "Velocity": 48,
      "Duration": 120000,
      "SoundDuration": 120000,
      "Delta": 131288807
    },
    {
      "NoteNumber": 62,
      "Velocity": 48,
      "Duration": 120000,
      "SoundDuration": 120000,
      "Delta": 131408807
    },
    {
      "NoteNumber": 60,
      "Velocity": 48,
      "Duration": 129870,
      "SoundDuration": 129870,
      "Delta": 131528807
    },
    {
      "NoteNumber": 58,
      "Velocity": 62,
      "Duration": 120482,
      "SoundDuration": 120482,
      "Delta": 131658677
    },
    {
      "NoteNumber": 60,
      "Velocity": 48,
      "Duration": 120481,
      "SoundDuration": 120481,
      "Delta": 131779159
    },
    {
      "NoteNumber": 58,
      "Velocity": 47,
      "Duration": 120482,
      "SoundDuration": 120482,
      "Delta": 131899641
    },
    {
      "NoteNumber": 57,
      "Velocity": 47,
      "Duration": 128755,
      "SoundDuration": 128755,
      "Delta": 132020123
    },
    {
      "NoteNumber": 67,
      "Velocity": 61,
      "Duration": 1455600,
      "SoundDuration": 1455600,
      "Delta": 132148878
    },
    {
      "NoteNumber": 70,
      "Velocity": 61,
      "Duration": 1466239,
      "SoundDuration": 1466239,
      "Delta": 132148878
    },
    {
      "NoteNumber": 74,
      "Velocity": 61,
      "Duration": 977133,
      "SoundDuration": 977133,
      "Delta": 132148878
    },
    {
      "NoteNumber": 79,
      "Velocity": 86,
      "Duration": 1455600,
      "SoundDuration": 1455600,
      "Delta": 132148878
    },
    {
      "NoteNumber": 55,
      "Velocity": 63,
      "Duration": 120482,
      "SoundDuration": 120482,
      "Delta": 132148878
    },
    {
      "NoteNumber": 57,
      "Velocity": 46,
      "Duration": 120481,
      "SoundDuration": 120481,
      "Delta": 132269360
    },
    {
      "NoteNumber": 55,
      "Velocity": 46,
      "Duration": 120482,
      "SoundDuration": 120482,
      "Delta": 132389842
    },
    {
      "NoteNumber": 53,
      "Velocity": 46,
      "Duration": 127659,
      "SoundDuration": 127659,
      "Delta": 132510324
    },
    {
      "NoteNumber": 51,
      "Velocity": 58,
      "Duration": 120482,
      "SoundDuration": 120482,
      "Delta": 132637984
    },
    {
      "NoteNumber": 53,
      "Velocity": 46,
      "Duration": 120481,
      "SoundDuration": 120481,
      "Delta": 132758466
    },
    {
      "NoteNumber": 51,
      "Velocity": 46,
      "Duration": 120482,
      "SoundDuration": 120482,
      "Delta": 132878948
    },
    {
      "NoteNumber": 50,
      "Velocity": 45,
      "Duration": 126582,
      "SoundDuration": 126582,
      "Delta": 132999430
    },
    {
      "NoteNumber": 72,
      "Velocity": 71,
      "Duration": 120482,
      "SoundDuration": 120482,
      "Delta": 133126012
    },
    {
      "NoteNumber": 75,
      "Velocity": 80,
      "Duration": 120482,
      "SoundDuration": 120482,
      "Delta": 133126012
    },
    {
      "NoteNumber": 48,
      "Velocity": 59,
      "Duration": 120482,
      "SoundDuration": 120482,
      "Delta": 133126012
    },
    {
      "NoteNumber": 50,
      "Velocity": 45,
      "Duration": 120481,
      "SoundDuration": 120481,
      "Delta": 133246494
    },
    {
      "NoteNumber": 48,
      "Velocity": 45,
      "Duration": 120482,
      "SoundDuration": 120482,
      "Delta": 133366976
    },
    {
      "NoteNumber": 46,
      "Velocity": 44,
      "Duration": 127659,
      "SoundDuration": 127659,
      "Delta": 133487458
    },
    {
      "NoteNumber": 84,
      "Velocity": 86,
      "Duration": 1100180,
      "SoundDuration": 1100180,
      "Delta": 133615117
    },
    {
      "NoteNumber": 75,
      "Velocity": 59,
      "Duration": 488028,
      "SoundDuration": 488028,
      "Delta": 133615117
    },
    {
      "NoteNumber": 72,
      "Velocity": 66,
      "Duration": 1100180,
      "SoundDuration": 1100180,
      "Delta": 133615117
    },
    {
      "NoteNumber": 44,
      "Velocity": 57,
      "Duration": 120482,
      "SoundDuration": 120482,
      "Delta": 133615117
    },
    {
      "NoteNumber": 46,
      "Velocity": 44,
      "Duration": 120481,
      "SoundDuration": 120481,
      "Delta": 133735599
    },
    {
      "NoteNumber": 44,
      "Velocity": 42,
      "Duration": 120482,
      "SoundDuration": 120482,
      "Delta": 133856081
    },
    {
      "NoteNumber": 43,
      "Velocity": 42,
      "Duration": 126582,
      "SoundDuration": 126582,
      "Delta": 133976563
    },
    {
      "NoteNumber": 81,
      "Velocity": 69,
      "Duration": 479471,
      "SoundDuration": 479471,
      "Delta": 134103146
    },
    {
      "NoteNumber": 42,
      "Velocity": 55,
      "Duration": 120482,
      "SoundDuration": 120482,
      "Delta": 134103146
    },
    {
      "NoteNumber": 43,
      "Velocity": 41,
      "Duration": 120481,
      "SoundDuration": 120481,
      "Delta": 134223628
    },
    {
      "NoteNumber": 42,
      "Velocity": 41,
      "Duration": 120482,
      "SoundDuration": 120482,
      "Delta": 134344110
    },
    {
      "NoteNumber": 40,
      "Velocity": 41,
      "Duration": 128755,
      "SoundDuration": 128755,
      "Delta": 134464592
    },
    {
      "NoteNumber": 78,
      "Velocity": 74,
      "Duration": 121951,
      "SoundDuration": 121951,
      "Delta": 134593347
    },
    {
      "NoteNumber": 81,
      "Velocity": 66,
      "Duration": 121951,
      "SoundDuration": 121951,
      "Delta": 134593347
    },
    {
      "NoteNumber": 38,
      "Velocity": 56,
      "Duration": 121951,
      "SoundDuration": 121951,
      "Delta": 134593347
    },
    {
      "NoteNumber": 40,
      "Velocity": 42,
      "Duration": 121951,
      "SoundDuration": 121951,
      "Delta": 134715298
    },
    {
      "NoteNumber": 42,
      "Velocity": 42,
      "Duration": 121951,
      "SoundDuration": 121951,
      "Delta": 134837249
    },
    {
      "NoteNumber": 38,
      "Velocity": 42,
      "Duration": 121951,
      "SoundDuration": 121951,
      "Delta": 134959201
    },
    {
      "NoteNumber": 79,
      "Velocity": 74,
      "Duration": 240963,
      "SoundDuration": 240963,
      "Delta": 135081152
    },
    {
      "NoteNumber": 70,
      "Velocity": 67,
      "Duration": 240963,
      "SoundDuration": 240963,
      "Delta": 135081152
    },
    {
      "NoteNumber": 74,
      "Velocity": 67,
      "Duration": 240963,
      "SoundDuration": 240963,
      "Delta": 135081152
    },
    {
      "NoteNumber": 82,
      "Velocity": 88,
      "Duration": 240963,
      "SoundDuration": 240963,
      "Delta": 135081152
    },
    {
      "NoteNumber": 43,
      "Velocity": 55,
      "Duration": 120482,
      "SoundDuration": 120482,
      "Delta": 135081152
    },
    {
      "NoteNumber": 45,
      "Velocity": 42,
      "Duration": 120481,
      "SoundDuration": 120481,
      "Delta": 135201634
    },
    {
      "NoteNumber": 46,
      "Velocity": 41,
      "Duration": 120482,
      "SoundDuration": 120482,
      "Delta": 135322116
    },
    {
      "NoteNumber": 43,
      "Velocity": 41,
      "Duration": 120482,
      "SoundDuration": 120482,
      "Delta": 135442598
    },
    {
      "NoteNumber": 69,
      "Velocity": 62,
      "Duration": 240963,
      "SoundDuration": 240963,
      "Delta": 135563080
    },
    {
      "NoteNumber": 66,
      "Velocity": 62,
      "Duration": 240963,
      "SoundDuration": 240963,
      "Delta": 135563080
    },
    {
      "NoteNumber": 74,
      "Velocity": 70,
      "Duration": 240963,
      "SoundDuration": 240963,
      "Delta": 135563080
    },
    {
      "NoteNumber": 78,
      "Velocity": 83,
      "Duration": 240963,
      "SoundDuration": 240963,
      "Delta": 135563080
    },
    {
      "NoteNumber": 50,
      "Velocity": 57,
      "Duration": 120481,
      "SoundDuration": 120481,
      "Delta": 135563080
    },
    {
      "NoteNumber": 48,
      "Velocity": 45,
      "Duration": 120482,
      "SoundDuration": 120482,
      "Delta": 135683562
    },
    {
      "NoteNumber": 46,
      "Velocity": 45,
      "Duration": 120482,
      "SoundDuration": 120482,
      "Delta": 135804044
    },
    {
      "NoteNumber": 45,
      "Velocity": 45,
      "Duration": 125000,
      "SoundDuration": 125000,
      "Delta": 135924526
    },
    {
      "NoteNumber": 70,
      "Velocity": 67,
      "Duration": 478088,
      "SoundDuration": 478088,
      "Delta": 136049526
    },
    {
      "NoteNumber": 67,
      "Velocity": 67,
      "Duration": 478088,
      "SoundDuration": 478088,
      "Delta": 136049526
    },
    {
      "NoteNumber": 74,
      "Velocity": 74,
      "Duration": 478088,
      "SoundDuration": 478088,
      "Delta": 136049526
    },
    {
      "NoteNumber": 79,
      "Velocity": 88,
      "Duration": 478088,
      "SoundDuration": 478088,
      "Delta": 136049526
    },
    {
      "NoteNumber": 43,
      "Velocity": 60,
      "Duration": 119521,
      "SoundDuration": 119521,
      "Delta": 136049526
    },
    {
      "NoteNumber": 46,
      "Velocity": 46,
      "Duration": 119522,
      "SoundDuration": 119522,
      "Delta": 136169048
    },
    {
      "NoteNumber": 50,
      "Velocity": 46,
      "Duration": 119521,
      "SoundDuration": 119521,
      "Delta": 136288570
    },
    {
      "NoteNumber": 55,
      "Velocity": 42,
      "Duration": 119522,
      "SoundDuration": 119522,
      "Delta": 136408092
    },
    {
      "NoteNumber": 43,
      "Velocity": 57,
      "Duration": 572821,
      "SoundDuration": 572821,
      "Delta": 136527614
    },
    {
      "NoteNumber": 62,
      "Velocity": 50,
      "Duration": 381323,
      "SoundDuration": 381323,
      "Delta": 137141644
    },
    {
      "NoteNumber": 63,
      "Velocity": 46,
      "Duration": 139237,
      "SoundDuration": 139237,
      "Delta": 137522968
    },
    {
      "NoteNumber": 65,
      "Velocity": 50,
      "Duration": 981012,
      "SoundDuration": 981012,
      "Delta": 137662205
    },
    {
      "NoteNumber": 46,
      "Velocity": 40,
      "Duration": 126582,
      "SoundDuration": 126582,
      "Delta": 137662205
    },
    {
      "NoteNumber": 58,
      "Velocity": 29,
      "Duration": 253164,
      "SoundDuration": 253164,
      "Delta": 137915369
    },
    {
      "NoteNumber": 62,
      "Velocity": 34,
      "Duration": 253164,
      "SoundDuration": 253164,
      "Delta": 138168534
    },
    {
      "NoteNumber": 58,
      "Velocity": 29,
      "Duration": 253164,
      "SoundDuration": 253164,
      "Delta": 138421698
    },
    {
      "NoteNumber": 69,
      "Velocity": 46,
      "Duration": 31645,
      "SoundDuration": 31645,
      "Delta": 138643217
    },
    {
      "NoteNumber": 67,
      "Velocity": 50,
      "Duration": 122448,
      "SoundDuration": 122448,
      "Delta": 138674863
    },
    {
      "NoteNumber": 63,
      "Velocity": 34,
      "Duration": 244898,
      "SoundDuration": 244898,
      "Delta": 138674863
    },
    {
      "NoteNumber": 65,
      "Velocity": 45,
      "Duration": 122449,
      "SoundDuration": 122449,
      "Delta": 138797312
    },
    {
      "NoteNumber": 67,
      "Velocity": 50,
      "Duration": 129477,
      "SoundDuration": 129477,
      "Delta": 138919761
    },
    {
      "NoteNumber": 60,
      "Velocity": 31,
      "Duration": 258955,
      "SoundDuration": 258955,
      "Delta": 138919761
    },
    {
      "NoteNumber": 69,
      "Velocity": 43,
      "Duration": 129477,
      "SoundDuration": 129477,
      "Delta": 139049238
    },
    {
      "NoteNumber": 70,
      "Velocity": 50,
      "Duration": 492611,
      "SoundDuration": 492611,
      "Delta": 139178716
    },
    {
      "NoteNumber": 62,
      "Velocity": 40,
      "Duration": 246305,
      "SoundDuration": 246305,
      "Delta": 139178716
    },
    {
      "NoteNumber": 61,
      "Velocity": 30,
      "Duration": 246305,
      "SoundDuration": 246305,
      "Delta": 139425022
    },
    {
      "NoteNumber": 65,
      "Velocity": 41,
      "Duration": 431034,
      "SoundDuration": 431034,
      "Delta": 139671327
    },
    {
      "NoteNumber": 62,
      "Velocity": 34,
      "Duration": 246305,
      "SoundDuration": 246305,
      "Delta": 139671327
    },
    {
      "NoteNumber": 58,
      "Velocity": 30,
      "Duration": 246305,
      "SoundDuration": 246305,
      "Delta": 139917633
    },
    {
      "NoteNumber": 69,
      "Velocity": 43,
      "Duration": 30788,
      "SoundDuration": 30788,
      "Delta": 140133150
    },
    {
      "NoteNumber": 67,
      "Velocity": 50,
      "Duration": 120967,
      "SoundDuration": 120967,
      "Delta": 140163938
    },
    {
      "NoteNumber": 63,
      "Velocity": 34,
      "Duration": 241935,
      "SoundDuration": 241935,
      "Delta": 140163938
    },
    {
      "NoteNumber": 65,
      "Velocity": 46,
      "Duration": 120967,
      "SoundDuration": 120967,
      "Delta": 140284906
    },
    {
      "NoteNumber": 67,
      "Velocity": 50,
      "Duration": 128876,
      "SoundDuration": 128876,
      "Delta": 140405874
    },
    {
      "NoteNumber": 60,
      "Velocity": 29,
      "Duration": 257754,
      "SoundDuration": 257754,
      "Delta": 140405874
    },
    {
      "NoteNumber": 69,
      "Velocity": 50,
      "Duration": 128877,
      "SoundDuration": 128877,
      "Delta": 140534751
    },
    {
      "NoteNumber": 70,
      "Velocity": 50,
      "Duration": 61850,
      "SoundDuration": 61850,
      "Delta": 140663628
    },
    {
      "NoteNumber": 62,
      "Velocity": 40,
      "Duration": 247402,
      "SoundDuration": 247402,
      "Delta": 140663628
    },
    {
      "NoteNumber": 61,
      "Velocity": 30,
      "Duration": 247402,
      "SoundDuration": 247402,
      "Delta": 140911030
    },
    {
      "NoteNumber": 69,
      "Velocity": 46,
      "Duration": 61850,
      "SoundDuration": 61850,
      "Delta": 141034731
    },
    {
      "NoteNumber": 70,
      "Velocity": 56,
      "Duration": 61850,
      "SoundDuration": 61850,
      "Delta": 141158433
    },
    {
      "NoteNumber": 62,
      "Velocity": 34,
      "Duration": 247402,
      "SoundDuration": 247402,
      "Delta": 141158433
    },
    {
      "NoteNumber": 57,
      "Velocity": 30,
      "Duration": 247402,
      "SoundDuration": 247402,
      "Delta": 141405835
    },
    {
      "NoteNumber": 72,
      "Velocity": 48,
      "Duration": 61850,
      "SoundDuration": 61850,
      "Delta": 141529536
    },
    {
      "NoteNumber": 74,
      "Velocity": 55,
      "Duration": 61850,
      "SoundDuration": 61850,
      "Delta": 141653238
    },
    {
      "NoteNumber": 58,
      "Velocity": 34,
      "Duration": 247402,
      "SoundDuration": 247402,
      "Delta": 141653238
    },
    {
      "NoteNumber": 55,
      "Velocity": 30,
      "Duration": 248214,
      "SoundDuration": 248214,
      "Delta": 141900640
    },
    {
      "NoteNumber": 76,
      "Velocity": 59,
      "Duration": 67916,
      "SoundDuration": 67916,
      "Delta": 142024341
    },
    {
      "NoteNumber": 70,
      "Velocity": 53,
      "Duration": 513127,
      "SoundDuration": 513127,
      "Delta": 142160174
    },
    {
      "NoteNumber": 76,
      "Velocity": 63,
      "Duration": 513127,
      "SoundDuration": 513127,
      "Delta": 142160174
    },
    {
      "NoteNumber": 53,
      "Velocity": 40,
      "Duration": 769691,
      "SoundDuration": 769691,
      "Delta": 142160174
    },
    {
      "NoteNumber": 69,
      "Velocity": 48,
      "Duration": 256563,
      "SoundDuration": 256563,
      "Delta": 142673302
    },
    {
      "NoteNumber": 77,
      "Velocity": 57,
      "Duration": 256563,
      "SoundDuration": 256563,
      "Delta": 142673302
    },
    {
      "NoteNumber": 65,
      "Velocity": 35,
      "Duration": 256563,
      "SoundDuration": 256563,
      "Delta": 142673302
    },
    {
      "NoteNumber": 77,
      "Velocity": 43,
      "Duration": 32070,
      "SoundDuration": 32070,
      "Delta": 143154360
    },
    {
      "NoteNumber": 75,
      "Velocity": 50,
      "Duration": 123152,
      "SoundDuration": 123152,
      "Delta": 143186430
    },
    {
      "NoteNumber": 74,
      "Velocity": 46,
      "Duration": 123152,
      "SoundDuration": 123152,
      "Delta": 143309583
    },
    {
      "NoteNumber": 75,
      "Velocity": 54,
      "Duration": 123152,
      "SoundDuration": 123152,
      "Delta": 143432736
    },
    {
      "NoteNumber": 77,
      "Velocity": 51,
      "Duration": 123152,
      "SoundDuration": 123152,
      "Delta": 143555888
    },
    {
      "NoteNumber": 79,
      "Velocity": 59,
      "Duration": 492610,
      "SoundDuration": 492610,
      "Delta": 143679041
    },
    {
      "NoteNumber": 53,
      "Velocity": 36,
      "Duration": 1473265,
      "SoundDuration": 1473265,
      "Delta": 143925347
    },
    {
      "NoteNumber": 72,
      "Velocity": 50,
      "Duration": 434812,
      "SoundDuration": 434812,
      "Delta": 144171652
    },
    {
      "NoteNumber": 57,
      "Velocity": 40,
      "Duration": 246305,
      "SoundDuration": 246305,
      "Delta": 144171652
    },
    {
      "NoteNumber": 60,
      "Velocity": 37,
      "Duration": 253860,
      "SoundDuration": 253860,
      "Delta": 144417958
    },
    {
      "NoteNumber": 74,
      "Velocity": 43,
      "Duration": 32676,
      "SoundDuration": 32676,
      "Delta": 144639141
    },
    {
      "NoteNumber": 72,
      "Velocity": 50,
      "Duration": 120482,
      "SoundDuration": 120482,
      "Delta": 144671818
    },
    {
      "NoteNumber": 63,
      "Velocity": 40,
      "Duration": 726793,
      "SoundDuration": 726793,
      "Delta": 144671818
    },
    {
      "NoteNumber": 71,
      "Velocity": 46,
      "Duration": 120481,
      "SoundDuration": 120481,
      "Delta": 144792300
    },
    {
      "NoteNumber": 72,
      "Velocity": 54,
      "Duration": 121457,
      "SoundDuration": 121457,
      "Delta": 144912782
    },
    {
      "NoteNumber": 74,
      "Velocity": 51,
      "Duration": 121457,
      "SoundDuration": 121457,
      "Delta": 145034239
    },
    {
      "NoteNumber": 75,
      "Velocity": 59,
      "Duration": 485829,
      "SoundDuration": 485829,
      "Delta": 145155697
    },
    {
      "NoteNumber": 53,
      "Velocity": 42,
      "Duration": 1713856,
      "SoundDuration": 1713856,
      "Delta": 145398612
    },
    {
      "NoteNumber": 69,
      "Velocity": 50,
      "Duration": 428810,
      "SoundDuration": 428810,
      "Delta": 145641527
    },
    {
      "NoteNumber": 60,
      "Velocity": 48,
      "Duration": 242915,
      "SoundDuration": 242915,
      "Delta": 145641527
    },
    {
      "NoteNumber": 63,
      "Velocity": 41,
      "Duration": 250334,
      "SoundDuration": 250334,
      "Delta": 145884442
    },
    {
      "NoteNumber": 70,
      "Velocity": 43,
      "Duration": 32219,
      "SoundDuration": 32219,
      "Delta": 146102557
    },
    {
      "NoteNumber": 69,
      "Velocity": 50,
      "Duration": 120482,
      "SoundDuration": 120482,
      "Delta": 146134776
    },
    {
      "NoteNumber": 66,
      "Velocity": 55,
      "Duration": 977691,
      "SoundDuration": 977691,
      "Delta": 146134776
    },
    {
      "NoteNumber": 67,
      "Velocity": 46,
      "Duration": 120481,
      "SoundDuration": 120481,
      "Delta": 146255258
    },
    {
      "NoteNumber": 69,
      "Velocity": 52,
      "Duration": 120482,
      "SoundDuration": 120482,
      "Delta": 146375740
    },
    {
      "NoteNumber": 70,
      "Velocity": 48,
      "Duration": 84738,
      "SoundDuration": 84738,
      "Delta": 146496222
    },
    {
      "NoteNumber": 74,
      "Velocity": 43,
      "Duration": 31776,
      "SoundDuration": 31776,
      "Delta": 146591553
    },
    {
      "NoteNumber": 72,
      "Velocity": 53,
      "Duration": 120482,
      "SoundDuration": 120482,
      "Delta": 146623330
    },
    {
      "NoteNumber": 71,
      "Velocity": 50,
      "Duration": 120481,
      "SoundDuration": 120481,
      "Delta": 146743812
    },
    {
      "NoteNumber": 72,
      "Velocity": 54,
      "Duration": 120482,
      "SoundDuration": 120482,
      "Delta": 146864294
    },
    {
      "NoteNumber": 74,
      "Velocity": 51,
      "Duration": 85128,
      "SoundDuration": 85128,
      "Delta": 146984776
    },
    {
      "NoteNumber": 77,
      "Velocity": 43,
      "Duration": 31923,
      "SoundDuration": 31923,
      "Delta": 147080545
    },
    {
      "NoteNumber": 75,
      "Velocity": 57,
      "Duration": 123152,
      "SoundDuration": 123152,
      "Delta": 147112468
    },
    {
      "NoteNumber": 65,
      "Velocity": 38,
      "Duration": 492611,
      "SoundDuration": 492611,
      "Delta": 147112468
    },
    {
      "NoteNumber": 53,
      "Velocity": 38,
      "Duration": 492611,
      "SoundDuration": 492611,
      "Delta": 147112468
    },
    {
      "NoteNumber": 74,
      "Velocity": 52,
      "Duration": 123152,
      "SoundDuration": 123152,
      "Delta": 147235621
    },
    {
      "NoteNumber": 75,
      "Velocity": 58,
      "Duration": 123152,
      "SoundDuration": 123152,
      "Delta": 147358774
    },
    {
      "NoteNumber": 77,
      "Velocity": 55,
      "Duration": 123152,
      "SoundDuration": 123152,
      "Delta": 147481927
    },
    {
      "NoteNumber": 79,
      "Velocity": 64,
      "Duration": 61576,
      "SoundDuration": 61576,
      "Delta": 147605079
    },
    {
      "NoteNumber": 53,
      "Velocity": 32,
      "Duration": 541208,
      "SoundDuration": 541208,
      "Delta": 147605079
    },
    {
      "NoteNumber": 63,
      "Velocity": 32,
      "Duration": 541208,
      "SoundDuration": 541208,
      "Delta": 147605079
    },
    {
      "NoteNumber": 69,
      "Velocity": 42,
      "Duration": 155666,
      "SoundDuration": 155666,
      "Delta": 147990622
    },
    {
      "NoteNumber": 72,
      "Velocity": 50,
      "Duration": 540686,
      "SoundDuration": 540686,
      "Delta": 148146288
    },
    {
      "NoteNumber": 58,
      "Velocity": 30,
      "Duration": 825046,
      "SoundDuration": 825046,
      "Delta": 148146288
    },
    {
      "NoteNumber": 63,
      "Velocity": 36,
      "Duration": 540686,
      "SoundDuration": 540686,
      "Delta": 148146288
    },
    {
      "NoteNumber": 70,
      "Velocity": 44,
      "Duration": 284359,
      "SoundDuration": 284359,
      "Delta": 148686975
    },
    {
      "NoteNumber": 62,
      "Velocity": 32,
      "Duration": 284359,
      "SoundDuration": 284359,
      "Delta": 148686975
    },
    {
      "NoteNumber": 69,
      "Velocity": 38,
      "Duration": 124792,
      "SoundDuration": 124792,
      "Delta": 149255695
    },
    {
      "NoteNumber": 74,
      "Velocity": 46,
      "Duration": 124792,
      "SoundDuration": 124792,
      "Delta": 149255695
    },
    {
      "NoteNumber": 66,
      "Velocity": 38,
      "Duration": 124792,
      "SoundDuration": 124792,
      "Delta": 149255695
    },
    {
      "NoteNumber": 70,
      "Velocity": 34,
      "Duration": 123784,
      "SoundDuration": 123784,
      "Delta": 149380488
    },
    {
      "NoteNumber": 73,
      "Velocity": 41,
      "Duration": 123784,
      "SoundDuration": 123784,
      "Delta": 149380488
    },
    {
      "NoteNumber": 67,
      "Velocity": 33,
      "Duration": 123784,
      "SoundDuration": 123784,
      "Delta": 149380488
    },
    {
      "NoteNumber": 69,
      "Velocity": 41,
      "Duration": 122893,
      "SoundDuration": 122893,
      "Delta": 149504272
    },
    {
      "NoteNumber": 74,
      "Velocity": 49,
      "Duration": 122893,
      "SoundDuration": 122893,
      "Delta": 149504272
    },
    {
      "NoteNumber": 66,
      "Velocity": 41,
      "Duration": 122893,
      "SoundDuration": 122893,
      "Delta": 149504272
    },
    {
      "NoteNumber": 70,
      "Velocity": 34,
      "Duration": 121779,
      "SoundDuration": 121779,
      "Delta": 149627165
    },
    {
      "NoteNumber": 73,
      "Velocity": 40,
      "Duration": 121779,
      "SoundDuration": 121779,
      "Delta": 149627165
    },
    {
      "NoteNumber": 67,
      "Velocity": 38,
      "Duration": 121779,
      "SoundDuration": 121779,
      "Delta": 149627165
    },
    {
      "NoteNumber": 69,
      "Velocity": 45,
      "Duration": 120547,
      "SoundDuration": 120547,
      "Delta": 149748945
    },
    {
      "NoteNumber": 74,
      "Velocity": 53,
      "Duration": 120547,
      "SoundDuration": 120547,
      "Delta": 149748945
    },
    {
      "NoteNumber": 66,
      "Velocity": 45,
      "Duration": 120547,
      "SoundDuration": 120547,
      "Delta": 149748945
    },
    {
      "NoteNumber": 70,
      "Velocity": 40,
      "Duration": 119360,
      "SoundDuration": 119360,
      "Delta": 149869492
    },
    {
      "NoteNumber": 73,
      "Velocity": 49,
      "Duration": 119360,
      "SoundDuration": 119360,
      "Delta": 149869492
    },
    {
      "NoteNumber": 67,
      "Velocity": 39,
      "Duration": 119360,
      "SoundDuration": 119360,
      "Delta": 149869492
    },
    {
      "NoteNumber": 69,
      "Velocity": 48,
      "Duration": 118173,
      "SoundDuration": 118173,
      "Delta": 149988853
    },
    {
      "NoteNumber": 74,
      "Velocity": 57,
      "Duration": 118173,
      "SoundDuration": 118173,
      "Delta": 149988853
    },
    {
      "NoteNumber": 66,
      "Velocity": 48,
      "Duration": 118173,
      "SoundDuration": 118173,
      "Delta": 149988853
    },
    {
      "NoteNumber": 70,
      "Velocity": 39,
      "Duration": 117192,
      "SoundDuration": 117192,
      "Delta": 150107026
    },
    {
      "NoteNumber": 73,
      "Velocity": 46,
      "Duration": 117192,
      "SoundDuration": 117192,
      "Delta": 150107026
    },
    {
      "NoteNumber": 67,
      "Velocity": 44,
      "Duration": 117192,
      "SoundDuration": 117192,
      "Delta": 150107026
    },
    {
      "NoteNumber": 69,
      "Velocity": 52,
      "Duration": 116278,
      "SoundDuration": 116278,
      "Delta": 150224219
    },
    {
      "NoteNumber": 74,
      "Velocity": 62,
      "Duration": 116278,
      "SoundDuration": 116278,
      "Delta": 150224219
    },
    {
      "NoteNumber": 66,
      "Velocity": 52,
      "Duration": 116278,
      "SoundDuration": 116278,
      "Delta": 150224219
    },
    {
      "NoteNumber": 70,
      "Velocity": 47,
      "Duration": 116693,
      "SoundDuration": 116693,
      "Delta": 150340498
    },
    {
      "NoteNumber": 73,
      "Velocity": 56,
      "Duration": 116693,
      "SoundDuration": 116693,
      "Delta": 150340498
    },
    {
      "NoteNumber": 67,
      "Velocity": 44,
      "Duration": 116693,
      "SoundDuration": 116693,
      "Delta": 150340498
    },
    {
      "NoteNumber": 69,
      "Velocity": 55,
      "Duration": 117168,
      "SoundDuration": 117168,
      "Delta": 150457192
    },
    {
      "NoteNumber": 74,
      "Velocity": 66,
      "Duration": 117168,
      "SoundDuration": 117168,
      "Delta": 150457192
    },
    {
      "NoteNumber": 66,
      "Velocity": 55,
      "Duration": 117168,
      "SoundDuration": 117168,
      "Delta": 150457192
    },
    {
      "NoteNumber": 70,
      "Velocity": 46,
      "Duration": 117666,
      "SoundDuration": 117666,
      "Delta": 150574360
    },
    {
      "NoteNumber": 73,
      "Velocity": 54,
      "Duration": 117666,
      "SoundDuration": 117666,
      "Delta": 150574360
    },
    {
      "NoteNumber": 67,
      "Velocity": 51,
      "Duration": 117666,
      "SoundDuration": 117666,
      "Delta": 150574360
    },
    {
      "NoteNumber": 69,
      "Velocity": 59,
      "Duration": 118145,
      "SoundDuration": 118145,
      "Delta": 150692027
    },
    {
      "NoteNumber": 74,
      "Velocity": 70,
      "Duration": 118145,
      "SoundDuration": 118145,
      "Delta": 150692027
    },
    {
      "NoteNumber": 66,
      "Velocity": 59,
      "Duration": 118145,
      "SoundDuration": 118145,
      "Delta": 150692027
    },
    {
      "NoteNumber": 70,
      "Velocity": 53,
      "Duration": 118631,
      "SoundDuration": 118631,
      "Delta": 150810172
    },
    {
      "NoteNumber": 73,
      "Velocity": 63,
      "Duration": 118631,
      "SoundDuration": 118631,
      "Delta": 150810172
    },
    {
      "NoteNumber": 67,
      "Velocity": 51,
      "Duration": 118631,
      "SoundDuration": 118631,
      "Delta": 150810172
    },
    {
      "NoteNumber": 69,
      "Velocity": 63,
      "Duration": 118515,
      "SoundDuration": 118515,
      "Delta": 150928804
    },
    {
      "NoteNumber": 74,
      "Velocity": 74,
      "Duration": 118515,
      "SoundDuration": 118515,
      "Delta": 150928804
    },
    {
      "NoteNumber": 66,
      "Velocity": 63,
      "Duration": 118515,
      "SoundDuration": 118515,
      "Delta": 150928804
    },
    {
      "NoteNumber": 70,
      "Velocity": 52,
      "Duration": 139237,
      "SoundDuration": 139237,
      "Delta": 151047320
    },
    {
      "NoteNumber": 73,
      "Velocity": 61,
      "Duration": 139237,
      "SoundDuration": 139237,
      "Delta": 151047320
    },
    {
      "NoteNumber": 67,
      "Velocity": 58,
      "Duration": 139237,
      "SoundDuration": 139237,
      "Delta": 151047320
    },
    {
      "NoteNumber": 69,
      "Velocity": 82,
      "Duration": 251910,
      "SoundDuration": 251910,
      "Delta": 151186557
    },
    {
      "NoteNumber": 74,
      "Velocity": 82,
      "Duration": 251910,
      "SoundDuration": 251910,
      "Delta": 151186557
    },
    {
      "NoteNumber": 66,
      "Velocity": 69,
      "Duration": 251910,
      "SoundDuration": 251910,
      "Delta": 151186557
    },
    {
      "NoteNumber": 86,
      "Velocity": 100,
      "Duration": 755731,
      "SoundDuration": 755731,
      "Delta": 151690378
    },
    {
      "NoteNumber": 78,
      "Velocity": 84,
      "Duration": 755731,
      "SoundDuration": 755731,
      "Delta": 151690378
    },
    {
      "NoteNumber": 50,
      "Velocity": 62,
      "Duration": 755731,
      "SoundDuration": 755731,
      "Delta": 151690378
    },
    {
      "NoteNumber": 62,
      "Velocity": 74,
      "Duration": 755731,
      "SoundDuration": 755731,
      "Delta": 151690378
    },
    {
      "NoteNumber": 84,
      "Velocity": 75,
      "Duration": 125955,
      "SoundDuration": 125955,
      "Delta": 152446109
    },
    {
      "NoteNumber": 78,
      "Velocity": 63,
      "Duration": 125955,
      "SoundDuration": 125955,
      "Delta": 152446109
    },
    {
      "NoteNumber": 50,
      "Velocity": 46,
      "Duration": 125955,
      "SoundDuration": 125955,
      "Delta": 152446109
    },
    {
      "NoteNumber": 62,
      "Velocity": 56,
      "Duration": 125955,
      "SoundDuration": 125955,
      "Delta": 152446109
    },
    {
      "NoteNumber": 82,
      "Velocity": 91,
      "Duration": 245901,
      "SoundDuration": 245901,
      "Delta": 152698020
    },
    {
      "NoteNumber": 79,
      "Velocity": 77,
      "Duration": 245901,
      "SoundDuration": 245901,
      "Delta": 152698020
    },
    {
      "NoteNumber": 51,
      "Velocity": 57,
      "Duration": 245901,
      "SoundDuration": 245901,
      "Delta": 152698020
    },
    {
      "NoteNumber": 63,
      "Velocity": 68,
      "Duration": 245901,
      "SoundDuration": 245901,
      "Delta": 152698020
    },
    {
      "NoteNumber": 81,
      "Velocity": 73,
      "Duration": 68587,
      "SoundDuration": 68587,
      "Delta": 153066872
    },
    {
      "NoteNumber": 75,
      "Velocity": 61,
      "Duration": 68587,
      "SoundDuration": 68587,
      "Delta": 153066872
    },
    {
      "NoteNumber": 48,
      "Velocity": 45,
      "Duration": 68587,
      "SoundDuration": 68587,
      "Delta": 153066872
    },
    {
      "NoteNumber": 60,
      "Velocity": 53,
      "Duration": 68587,
      "SoundDuration": 68587,
      "Delta": 153066872
    },
    {
      "NoteNumber": 70,
      "Velocity": 72,
      "Duration": 247402,
      "SoundDuration": 247402,
      "Delta": 153204046
    },
    {
      "NoteNumber": 79,
      "Velocity": 85,
      "Duration": 247402,
      "SoundDuration": 247402,
      "Delta": 153204046
    },
    {
      "NoteNumber": 50,
      "Velocity": 53,
      "Duration": 247402,
      "SoundDuration": 247402,
      "Delta": 153204046
    },
    {
      "NoteNumber": 62,
      "Velocity": 63,
      "Duration": 247402,
      "SoundDuration": 247402,
      "Delta": 153204046
    },
    {
      "NoteNumber": 72,
      "Velocity": 69,
      "Duration": 247402,
      "SoundDuration": 247402,
      "Delta": 153698851
    },
    {
      "NoteNumber": 78,
      "Velocity": 81,
      "Duration": 247402,
      "SoundDuration": 247402,
      "Delta": 153698851
    },
    {
      "NoteNumber": 38,
      "Velocity": 51,
      "Duration": 247402,
      "SoundDuration": 247402,
      "Delta": 153698851
    },
    {
      "NoteNumber": 50,
      "Velocity": 61,
      "Duration": 247402,
      "SoundDuration": 247402,
      "Delta": 153698851
    },
    {
      "NoteNumber": 72,
      "Velocity": 69,
      "Duration": 508431,
      "SoundDuration": 508431,
      "Delta": 154221964
    },
    {
      "NoteNumber": 81,
      "Velocity": 82,
      "Duration": 508431,
      "SoundDuration": 508431,
      "Delta": 154221964
    },
    {
      "NoteNumber": 43,
      "Velocity": 51,
      "Duration": 762646,
      "SoundDuration": 762646,
      "Delta": 154221964
    },
    {
      "NoteNumber": 55,
      "Velocity": 61,
      "Duration": 762646,
      "SoundDuration": 762646,
      "Delta": 154221964
    },
    {
      "NoteNumber": 70,
      "Velocity": 61,
      "Duration": 254215,
      "SoundDuration": 254215,
      "Delta": 154730395
    },
    {
      "NoteNumber": 79,
      "Velocity": 72,
      "Duration": 254215,
      "SoundDuration": 254215,
      "Delta": 154730395
    },
    {
      "NoteNumber": 56,
      "Velocity": 25,
      "Duration": 126531,
      "SoundDuration": 126531,
      "Delta": 155238485
    },
    {
      "NoteNumber": 58,
      "Velocity": 30,
      "Duration": 126531,
      "SoundDuration": 126531,
      "Delta": 155238485
    },
    {
      "NoteNumber": 50,
      "Velocity": 25,
      "Duration": 126531,
      "SoundDuration": 126531,
      "Delta": 155238485
    },
    {
      "NoteNumber": 59,
      "Velocity": 27,
      "Duration": 124903,
      "SoundDuration": 124903,
      "Delta": 155363979
    },
    {
      "NoteNumber": 51,
      "Velocity": 22,
      "Duration": 124903,
      "SoundDuration": 124903,
      "Delta": 155363979
    },
    {
      "NoteNumber": 56,
      "Velocity": 27,
      "Duration": 123317,
      "SoundDuration": 123317,
      "Delta": 155487858
    },
    {
      "NoteNumber": 58,
      "Velocity": 33,
      "Duration": 123317,
      "SoundDuration": 123317,
      "Delta": 155487858
    },
    {
      "NoteNumber": 50,
      "Velocity": 27,
      "Duration": 123317,
      "SoundDuration": 123317,
      "Delta": 155487858
    },
    {
      "NoteNumber": 59,
      "Velocity": 27,
      "Duration": 121754,
      "SoundDuration": 121754,
      "Delta": 155610163
    },
    {
      "NoteNumber": 51,
      "Velocity": 24,
      "Duration": 121754,
      "SoundDuration": 121754,
      "Delta": 155610163
    },
    {
      "NoteNumber": 56,
      "Velocity": 29,
      "Duration": 120554,
      "SoundDuration": 120554,
      "Delta": 155730918
    },
    {
      "NoteNumber": 58,
      "Velocity": 35,
      "Duration": 120554,
      "SoundDuration": 120554,
      "Delta": 155730918
    },
    {
      "NoteNumber": 50,
      "Velocity": 29,
      "Duration": 120554,
      "SoundDuration": 120554,
      "Delta": 155730918
    },
    {
      "NoteNumber": 59,
      "Velocity": 32,
      "Duration": 119562,
      "SoundDuration": 119562,
      "Delta": 155850480
    },
    {
      "NoteNumber": 51,
      "Velocity": 25,
      "Duration": 119562,
      "SoundDuration": 119562,
      "Delta": 155850480
    },
    {
      "NoteNumber": 56,
      "Velocity": 32,
      "Duration": 118589,
      "SoundDuration": 118589,
      "Delta": 155969058
    },
    {
      "NoteNumber": 58,
      "Velocity": 37,
      "Duration": 118589,
      "SoundDuration": 118589,
      "Delta": 155969058
    },
    {
      "NoteNumber": 50,
      "Velocity": 32,
      "Duration": 118589,
      "SoundDuration": 118589,
      "Delta": 155969058
    },
    {
      "NoteNumber": 59,
      "Velocity": 30,
      "Duration": 117626,
      "SoundDuration": 117626,
      "Delta": 156086672
    },
    {
      "NoteNumber": 51,
      "Velocity": 29,
      "Duration": 117626,
      "SoundDuration": 117626,
      "Delta": 156086672
    },
    {
      "NoteNumber": 56,
      "Velocity": 34,
      "Duration": 118816,
      "SoundDuration": 118816,
      "Delta": 156203318
    },
    {
      "NoteNumber": 58,
      "Velocity": 41,
      "Duration": 118816,
      "SoundDuration": 118816,
      "Delta": 156203318
    },
    {
      "NoteNumber": 50,
      "Velocity": 34,
      "Duration": 118816,
      "SoundDuration": 118816,
      "Delta": 156203318
    },
    {
      "NoteNumber": 59,
      "Velocity": 38,
      "Duration": 119737,
      "SoundDuration": 119737,
      "Delta": 156321150
    },
    {
      "NoteNumber": 51,
      "Velocity": 30,
      "Duration": 119737,
      "SoundDuration": 119737,
      "Delta": 156321150
    },
    {
      "NoteNumber": 56,
      "Velocity": 37,
      "Duration": 120733,
      "SoundDuration": 120733,
      "Delta": 156439896
    },
    {
      "NoteNumber": 58,
      "Velocity": 44,
      "Duration": 120733,
      "SoundDuration": 120733,
      "Delta": 156439896
    },
    {
      "NoteNumber": 50,
      "Velocity": 37,
      "Duration": 120733,
      "SoundDuration": 120733,
      "Delta": 156439896
    },
    {
      "NoteNumber": 59,
      "Velocity": 35,
      "Duration": 121765,
      "SoundDuration": 121765,
      "Delta": 156559625
    },
    {
      "NoteNumber": 51,
      "Velocity": 34,
      "Duration": 121765,
      "SoundDuration": 121765,
      "Delta": 156559625
    },
    {
      "NoteNumber": 56,
      "Velocity": 39,
      "Duration": 122790,
      "SoundDuration": 122790,
      "Delta": 156680378
    },
    {
      "NoteNumber": 58,
      "Velocity": 46,
      "Duration": 122790,
      "SoundDuration": 122790,
      "Delta": 156680378
    },
    {
      "NoteNumber": 50,
      "Velocity": 39,
      "Duration": 122790,
      "SoundDuration": 122790,
      "Delta": 156680378
    },
    {
      "NoteNumber": 59,
      "Velocity": 42,
      "Duration": 123837,
      "SoundDuration": 123837,
      "Delta": 156802149
    },
    {
      "NoteNumber": 51,
      "Velocity": 34,
      "Duration": 123837,
      "SoundDuration": 123837,
      "Delta": 156802149
    },
    {
      "NoteNumber": 56,
      "Velocity": 41,
      "Duration": 124876,
      "SoundDuration": 124876,
      "Delta": 156924958
    },
    {
      "NoteNumber": 58,
      "Velocity": 49,
      "Duration": 124876,
      "SoundDuration": 124876,
      "Delta": 156924958
    },
    {
      "NoteNumber": 50,
      "Velocity": 41,
      "Duration": 124876,
      "SoundDuration": 124876,
      "Delta": 156924958
    },
    {
      "NoteNumber": 59,
      "Velocity": 41,
      "Duration": 140286,
      "SoundDuration": 140286,
      "Delta": 157048674
    },
    {
      "NoteNumber": 51,
      "Velocity": 38,
      "Duration": 140286,
      "SoundDuration": 140286,
      "Delta": 157048674
    },
    {
      "NoteNumber": 56,
      "Velocity": 65,
      "Duration": 251910,
      "SoundDuration": 251910,
      "Delta": 157187911
    },
    {
      "NoteNumber": 58,
      "Velocity": 65,
      "Duration": 251910,
      "SoundDuration": 251910,
      "Delta": 157187911
    },
    {
      "NoteNumber": 50,
      "Velocity": 54,
      "Duration": 251910,
      "SoundDuration": 251910,
      "Delta": 157187911
    },
    {
      "NoteNumber": 80,
      "Velocity": 85,
      "Duration": 755731,
      "SoundDuration": 755731,
      "Delta": 157691732
    },
    {
      "NoteNumber": 71,
      "Velocity": 72,
      "Duration": 755731,
      "SoundDuration": 755731,
      "Delta": 157691732
    },
    {
      "NoteNumber": 50,
      "Velocity": 53,
      "Duration": 755731,
      "SoundDuration": 755731,
      "Delta": 157691732
    },
    {
      "NoteNumber": 53,
      "Velocity": 64,
      "Duration": 755731,
      "SoundDuration": 755731,
      "Delta": 157691732
    },
    {
      "NoteNumber": 79,
      "Velocity": 59,
      "Duration": 251910,
      "SoundDuration": 251910,
      "Delta": 158447464
    },
    {
      "NoteNumber": 72,
      "Velocity": 49,
      "Duration": 251910,
      "SoundDuration": 251910,
      "Delta": 158447464
    },
    {
      "NoteNumber": 51,
      "Velocity": 36,
      "Duration": 251910,
      "SoundDuration": 251910,
      "Delta": 158447464
    },
    {
      "NoteNumber": 55,
      "Velocity": 43,
      "Duration": 251910,
      "SoundDuration": 251910,
      "Delta": 158447464
    },
    {
      "NoteNumber": 77,
      "Velocity": 70,
      "Duration": 361446,
      "SoundDuration": 361446,
      "Delta": 158699374
    },
    {
      "NoteNumber": 68,
      "Velocity": 58,
      "Duration": 361446,
      "SoundDuration": 361446,
      "Delta": 158699374
    },
    {
      "NoteNumber": 47,
      "Velocity": 43,
      "Duration": 361446,
      "SoundDuration": 361446,
      "Delta": 158699374
    },
    {
      "NoteNumber": 50,
      "Velocity": 51,
      "Duration": 361446,
      "SoundDuration": 361446,
      "Delta": 158699374
    },
    {
      "NoteNumber": 75,
      "Velocity": 53,
      "Duration": 137174,
      "SoundDuration": 137174,
      "Delta": 159060820
    },
    {
      "NoteNumber": 67,
      "Velocity": 45,
      "Duration": 137174,
      "SoundDuration": 137174,
      "Delta": 159060820
    },
    {
      "NoteNumber": 48,
      "Velocity": 32,
      "Duration": 137174,
      "SoundDuration": 137174,
      "Delta": 159060820
    },
    {
      "NoteNumber": 51,
      "Velocity": 39,
      "Duration": 137174,
      "SoundDuration": 137174,
      "Delta": 159060820
    },
    {
      "NoteNumber": 65,
      "Velocity": 52,
      "Duration": 494805,
      "SoundDuration": 494805,
      "Delta": 159197994
    },
    {
      "NoteNumber": 74,
      "Velocity": 61,
      "Duration": 494805,
      "SoundDuration": 494805,
      "Delta": 159197994
    },
    {
      "NoteNumber": 50,
      "Velocity": 38,
      "Duration": 494805,
      "SoundDuration": 494805,
      "Delta": 159197994
    },
    {
      "NoteNumber": 53,
      "Velocity": 45,
      "Duration": 494805,
      "SoundDuration": 494805,
      "Delta": 159197994
    },
    {
      "NoteNumber": 63,
      "Velocity": 46,
      "Duration": 523112,
      "SoundDuration": 523112,
      "Delta": 159692799
    },
    {
      "NoteNumber": 72,
      "Velocity": 54,
      "Duration": 523112,
      "SoundDuration": 523112,
      "Delta": 159692799
    },
    {
      "NoteNumber": 51,
      "Velocity": 34,
      "Duration": 523112,
      "SoundDuration": 523112,
      "Delta": 159692799
    },
    {
      "NoteNumber": 55,
      "Velocity": 41,
      "Duration": 523112,
      "SoundDuration": 523112,
      "Delta": 159692799
    },
    {
      "NoteNumber": 62,
      "Velocity": 40,
      "Duration": 508431,
      "SoundDuration": 508431,
      "Delta": 160215912
    },
    {
      "NoteNumber": 70,
      "Velocity": 48,
      "Duration": 508431,
      "SoundDuration": 508431,
      "Delta": 160215912
    },
    {
      "NoteNumber": 53,
      "Velocity": 36,
      "Duration": 508431,
      "SoundDuration": 508431,
      "Delta": 160215912
    },
    {
      "NoteNumber": 60,
      "Velocity": 36,
      "Duration": 254215,
      "SoundDuration": 254215,
      "Delta": 160724343
    },
    {
      "NoteNumber": 69,
      "Velocity": 42,
      "Duration": 254215,
      "SoundDuration": 254215,
      "Delta": 160724343
    },
    {
      "NoteNumber": 41,
      "Velocity": 30,
      "Duration": 254215,
      "SoundDuration": 254215,
      "Delta": 160724343
    },
    {
      "NoteNumber": 62,
      "Velocity": 50,
      "Duration": 381323,
      "SoundDuration": 381323,
      "Delta": 161232774
    },
    {
      "NoteNumber": 63,
      "Velocity": 46,
      "Duration": 139237,
      "SoundDuration": 139237,
      "Delta": 161614097
    },
    {
      "NoteNumber": 65,
      "Velocity": 50,
      "Duration": 958684,
      "SoundDuration": 958684,
      "Delta": 161753334
    },
    {
      "NoteNumber": 46,
      "Velocity": 40,
      "Duration": 123701,
      "SoundDuration": 123701,
      "Delta": 161753334
    },
    {
      "NoteNumber": 58,
      "Velocity": 29,
      "Duration": 247402,
      "SoundDuration": 247402,
      "Delta": 162000737
    },
    {
      "NoteNumber": 62,
      "Velocity": 34,
      "Duration": 247402,
      "SoundDuration": 247402,
      "Delta": 162248139
    },
    {
      "NoteNumber": 58,
      "Velocity": 29,
      "Duration": 247402,
      "SoundDuration": 247402,
      "Delta": 162495542
    },
    {
      "NoteNumber": 69,
      "Velocity": 46,
      "Duration": 30925,
      "SoundDuration": 30925,
      "Delta": 162712019
    },
    {
      "NoteNumber": 67,
      "Velocity": 50,
      "Duration": 120967,
      "SoundDuration": 120967,
      "Delta": 162742944
    },
    {
      "NoteNumber": 63,
      "Velocity": 34,
      "Duration": 241935,
      "SoundDuration": 241935,
      "Delta": 162742944
    },
    {
      "NoteNumber": 65,
      "Velocity": 45,
      "Duration": 120967,
      "SoundDuration": 120967,
      "Delta": 162863912
    },
    {
      "NoteNumber": 67,
      "Velocity": 50,
      "Duration": 129477,
      "SoundDuration": 129477,
      "Delta": 162984880
    },
    {
      "NoteNumber": 60,
      "Velocity": 31,
      "Duration": 258955,
      "SoundDuration": 258955,
      "Delta": 162984880
    },
    {
      "NoteNumber": 69,
      "Velocity": 43,
      "Duration": 129477,
      "SoundDuration": 129477,
      "Delta": 163114357
    },
    {
      "NoteNumber": 70,
      "Velocity": 50,
      "Duration": 492611,
      "SoundDuration": 492611,
      "Delta": 163243835
    },
    {
      "NoteNumber": 62,
      "Velocity": 40,
      "Duration": 246305,
      "SoundDuration": 246305,
      "Delta": 163243835
    },
    {
      "NoteNumber": 61,
      "Velocity": 30,
      "Duration": 246305,
      "SoundDuration": 246305,
      "Delta": 163490141
    },
    {
      "NoteNumber": 65,
      "Velocity": 41,
      "Duration": 431034,
      "SoundDuration": 431034,
      "Delta": 163736446
    },
    {
      "NoteNumber": 62,
      "Velocity": 34,
      "Duration": 246305,
      "SoundDuration": 246305,
      "Delta": 163736446
    },
    {
      "NoteNumber": 58,
      "Velocity": 30,
      "Duration": 246305,
      "SoundDuration": 246305,
      "Delta": 163982752
    },
    {
      "NoteNumber": 69,
      "Velocity": 43,
      "Duration": 30788,
      "SoundDuration": 30788,
      "Delta": 164198269
    },
    {
      "NoteNumber": 67,
      "Velocity": 50,
      "Duration": 120482,
      "SoundDuration": 120482,
      "Delta": 164229057
    },
    {
      "NoteNumber": 63,
      "Velocity": 34,
      "Duration": 240963,
      "SoundDuration": 240963,
      "Delta": 164229057
    },
    {
      "NoteNumber": 65,
      "Velocity": 46,
      "Duration": 120481,
      "SoundDuration": 120481,
      "Delta": 164349539
    },
    {
      "NoteNumber": 67,
      "Velocity": 50,
      "Duration": 128876,
      "SoundDuration": 128876,
      "Delta": 164470021
    },
    {
      "NoteNumber": 60,
      "Velocity": 29,
      "Duration": 257754,
      "SoundDuration": 257754,
      "Delta": 164470021
    },
    {
      "NoteNumber": 69,
      "Velocity": 50,
      "Duration": 128877,
      "SoundDuration": 128877,
      "Delta": 164598898
    },
    {
      "NoteNumber": 70,
      "Velocity": 50,
      "Duration": 61850,
      "SoundDuration": 61850,
      "Delta": 164727775
    },
    {
      "NoteNumber": 62,
      "Velocity": 40,
      "Duration": 247402,
      "SoundDuration": 247402,
      "Delta": 164727775
    },
    {
      "NoteNumber": 61,
      "Velocity": 30,
      "Duration": 247402,
      "SoundDuration": 247402,
      "Delta": 164975178
    },
    {
      "NoteNumber": 69,
      "Velocity": 46,
      "Duration": 61850,
      "SoundDuration": 61850,
      "Delta": 165098879
    },
    {
      "NoteNumber": 70,
      "Velocity": 56,
      "Duration": 61850,
      "SoundDuration": 61850,
      "Delta": 165222580
    },
    {
      "NoteNumber": 62,
      "Velocity": 34,
      "Duration": 247402,
      "SoundDuration": 247402,
      "Delta": 165222580
    },
    {
      "NoteNumber": 57,
      "Velocity": 30,
      "Duration": 247402,
      "SoundDuration": 247402,
      "Delta": 165469983
    },
    {
      "NoteNumber": 72,
      "Velocity": 48,
      "Duration": 61850,
      "SoundDuration": 61850,
      "Delta": 165593684
    },
    {
      "NoteNumber": 74,
      "Velocity": 55,
      "Duration": 61850,
      "SoundDuration": 61850,
      "Delta": 165717385
    },
    {
      "NoteNumber": 58,
      "Velocity": 34,
      "Duration": 247402,
      "SoundDuration": 247402,
      "Delta": 165717385
    },
    {
      "NoteNumber": 55,
      "Velocity": 30,
      "Duration": 254653,
      "SoundDuration": 254653,
      "Delta": 165964788
    },
    {
      "NoteNumber": 76,
      "Velocity": 59,
      "Duration": 71428,
      "SoundDuration": 71428,
      "Delta": 166088489
    },
    {
      "NoteNumber": 70,
      "Velocity": 53,
      "Duration": 513127,
      "SoundDuration": 513127,
      "Delta": 166231346
    },
    {
      "NoteNumber": 76,
      "Velocity": 63,
      "Duration": 513127,
      "SoundDuration": 513127,
      "Delta": 166231346
    },
    {
      "NoteNumber": 53,
      "Velocity": 40,
      "Duration": 769691,
      "SoundDuration": 769691,
      "Delta": 166231346
    },
    {
      "NoteNumber": 69,
      "Velocity": 48,
      "Duration": 256563,
      "SoundDuration": 256563,
      "Delta": 166744474
    },
    {
      "NoteNumber": 77,
      "Velocity": 57,
      "Duration": 256563,
      "SoundDuration": 256563,
      "Delta": 166744474
    },
    {
      "NoteNumber": 65,
      "Velocity": 35,
      "Duration": 256563,
      "SoundDuration": 256563,
      "Delta": 166744474
    },
    {
      "NoteNumber": 77,
      "Velocity": 43,
      "Duration": 32070,
      "SoundDuration": 32070,
      "Delta": 167225532
    },
    {
      "NoteNumber": 75,
      "Velocity": 50,
      "Duration": 123152,
      "SoundDuration": 123152,
      "Delta": 167257602
    },
    {
      "NoteNumber": 74,
      "Velocity": 46,
      "Duration": 123152,
      "SoundDuration": 123152,
      "Delta": 167380755
    },
    {
      "NoteNumber": 75,
      "Velocity": 54,
      "Duration": 123152,
      "SoundDuration": 123152,
      "Delta": 167503908
    },
    {
      "NoteNumber": 77,
      "Velocity": 51,
      "Duration": 123152,
      "SoundDuration": 123152,
      "Delta": 167627060
    },
    {
      "NoteNumber": 79,
      "Velocity": 59,
      "Duration": 492610,
      "SoundDuration": 492610,
      "Delta": 167750213
    },
    {
      "NoteNumber": 41,
      "Velocity": 37,
      "Duration": 123152,
      "SoundDuration": 123152,
      "Delta": 167873366
    },
    {
      "NoteNumber": 45,
      "Velocity": 38,
      "Duration": 123152,
      "SoundDuration": 123152,
      "Delta": 167996519
    },
    {
      "NoteNumber": 48,
      "Velocity": 39,
      "Duration": 123152,
      "SoundDuration": 123152,
      "Delta": 168119671
    },
    {
      "NoteNumber": 72,
      "Velocity": 50,
      "Duration": 431207,
      "SoundDuration": 431207,
      "Delta": 168242824
    },
    {
      "NoteNumber": 53,
      "Velocity": 40,
      "Duration": 121951,
      "SoundDuration": 121951,
      "Delta": 168242824
    },
    {
      "NoteNumber": 57,
      "Velocity": 41,
      "Duration": 121951,
      "SoundDuration": 121951,
      "Delta": 168364775
    },
    {
      "NoteNumber": 60,
      "Velocity": 42,
      "Duration": 121951,
      "SoundDuration": 121951,
      "Delta": 168486727
    },
    {
      "NoteNumber": 62,
      "Velocity": 43,
      "Duration": 130707,
      "SoundDuration": 130707,
      "Delta": 168608678
    },
    {
      "NoteNumber": 74,
      "Velocity": 43,
      "Duration": 32676,
      "SoundDuration": 32676,
      "Delta": 168706709
    },
    {
      "NoteNumber": 72,
      "Velocity": 50,
      "Duration": 122609,
      "SoundDuration": 122609,
      "Delta": 168739385
    },
    {
      "NoteNumber": 63,
      "Velocity": 48,
      "Duration": 613044,
      "SoundDuration": 613044,
      "Delta": 168739385
    },
    {
      "NoteNumber": 71,
      "Velocity": 46,
      "Duration": 122608,
      "SoundDuration": 122608,
      "Delta": 168861994
    },
    {
      "NoteNumber": 72,
      "Velocity": 54,
      "Duration": 122609,
      "SoundDuration": 122609,
      "Delta": 168984603
    },
    {
      "NoteNumber": 74,
      "Velocity": 51,
      "Duration": 122608,
      "SoundDuration": 122608,
      "Delta": 169107212
    },
    {
      "NoteNumber": 75,
      "Velocity": 59,
      "Duration": 490436,
      "SoundDuration": 490436,
      "Delta": 169229821
    },
    {
      "NoteNumber": 41,
      "Velocity": 37,
      "Duration": 122609,
      "SoundDuration": 122609,
      "Delta": 169352430
    },
    {
      "NoteNumber": 45,
      "Velocity": 41,
      "Duration": 122608,
      "SoundDuration": 122608,
      "Delta": 169475039
    },
    {
      "NoteNumber": 48,
      "Velocity": 43,
      "Duration": 122609,
      "SoundDuration": 122609,
      "Delta": 169597648
    },
    {
      "NoteNumber": 69,
      "Velocity": 50,
      "Duration": 428810,
      "SoundDuration": 428810,
      "Delta": 169720257
    },
    {
      "NoteNumber": 53,
      "Velocity": 44,
      "Duration": 121457,
      "SoundDuration": 121457,
      "Delta": 169720257
    },
    {
      "NoteNumber": 57,
      "Velocity": 46,
      "Duration": 121457,
      "SoundDuration": 121457,
      "Delta": 169841715
    },
    {
      "NoteNumber": 60,
      "Velocity": 48,
      "Duration": 121457,
      "SoundDuration": 121457,
      "Delta": 169963172
    },
    {
      "NoteNumber": 63,
      "Velocity": 49,
      "Duration": 128876,
      "SoundDuration": 128876,
      "Delta": 170084630
    },
    {
      "NoteNumber": 70,
      "Velocity": 43,
      "Duration": 32219,
      "SoundDuration": 32219,
      "Delta": 170181288
    },
    {
      "NoteNumber": 69,
      "Velocity": 50,
      "Duration": 122609,
      "SoundDuration": 122609,
      "Delta": 170213507
    },
    {
      "NoteNumber": 66,
      "Velocity": 55,
      "Duration": 990453,
      "SoundDuration": 990453,
      "Delta": 170213507
    },
    {
      "NoteNumber": 67,
      "Velocity": 46,
      "Duration": 122608,
      "SoundDuration": 122608,
      "Delta": 170336116
    },
    {
      "NoteNumber": 69,
      "Velocity": 52,
      "Duration": 122609,
      "SoundDuration": 122609,
      "Delta": 170458725
    },
    {
      "NoteNumber": 70,
      "Velocity": 48,
      "Duration": 84738,
      "SoundDuration": 84738,
      "Delta": 170581334
    },
    {
      "NoteNumber": 74,
      "Velocity": 43,
      "Duration": 31776,
      "SoundDuration": 31776,
      "Delta": 170676665
    },
    {
      "NoteNumber": 72,
      "Velocity": 53,
      "Duration": 122609,
      "SoundDuration": 122609,
      "Delta": 170708442
    },
    {
      "NoteNumber": 71,
      "Velocity": 50,
      "Duration": 122608,
      "SoundDuration": 122608,
      "Delta": 170831051
    },
    {
      "NoteNumber": 72,
      "Velocity": 54,
      "Duration": 122609,
      "SoundDuration": 122609,
      "Delta": 170953660
    },
    {
      "NoteNumber": 74,
      "Velocity": 51,
      "Duration": 85128,
      "SoundDuration": 85128,
      "Delta": 171076269
    },
    {
      "NoteNumber": 77,
      "Velocity": 43,
      "Duration": 31923,
      "SoundDuration": 31923,
      "Delta": 171172038
    },
    {
      "NoteNumber": 75,
      "Velocity": 57,
      "Duration": 123152,
      "SoundDuration": 123152,
      "Delta": 171203961
    },
    {
      "NoteNumber": 65,
      "Velocity": 38,
      "Duration": 492611,
      "SoundDuration": 492611,
      "Delta": 171203961
    },
    {
      "NoteNumber": 53,
      "Velocity": 38,
      "Duration": 492611,
      "SoundDuration": 492611,
      "Delta": 171203961
    },
    {
      "NoteNumber": 74,
      "Velocity": 52,
      "Duration": 123152,
      "SoundDuration": 123152,
      "Delta": 171327114
    },
    {
      "NoteNumber": 75,
      "Velocity": 58,
      "Duration": 123152,
      "SoundDuration": 123152,
      "Delta": 171450266
    },
    {
      "NoteNumber": 77,
      "Velocity": 55,
      "Duration": 123152,
      "SoundDuration": 123152,
      "Delta": 171573419
    },
    {
      "NoteNumber": 79,
      "Velocity": 61,
      "Duration": 123152,
      "SoundDuration": 123152,
      "Delta": 171696572
    },
    {
      "NoteNumber": 53,
      "Velocity": 32,
      "Duration": 541208,
      "SoundDuration": 541208,
      "Delta": 171696572
    },
    {
      "NoteNumber": 63,
      "Velocity": 32,
      "Duration": 541208,
      "SoundDuration": 541208,
      "Delta": 171696572
    },
    {
      "NoteNumber": 75,
      "Velocity": 59,
      "Duration": 123152,
      "SoundDuration": 123152,
      "Delta": 171819725
    },
    {
      "NoteNumber": 72,
      "Velocity": 52,
      "Duration": 139237,
      "SoundDuration": 139237,
      "Delta": 171942877
    },
    {
      "NoteNumber": 69,
      "Velocity": 42,
      "Duration": 155666,
      "SoundDuration": 155666,
      "Delta": 172082114
    },
    {
      "NoteNumber": 70,
      "Velocity": 50,
      "Duration": 494805,
      "SoundDuration": 494805,
      "Delta": 172237781
    },
    {
      "NoteNumber": 46,
      "Velocity": 40,
      "Duration": 123701,
      "SoundDuration": 123701,
      "Delta": 172237781
    },
    {
      "NoteNumber": 58,
      "Velocity": 29,
      "Duration": 247402,
      "SoundDuration": 247402,
      "Delta": 172485183
    },
    {
      "NoteNumber": 62,
      "Velocity": 34,
      "Duration": 247402,
      "SoundDuration": 247402,
      "Delta": 172732586
    },
    {
      "NoteNumber": 58,
      "Velocity": 29,
      "Duration": 247402,
      "SoundDuration": 247402,
      "Delta": 172979988
    },
    {
      "NoteNumber": 81,
      "Velocity": 46,
      "Duration": 30925,
      "SoundDuration": 30925,
      "Delta": 173196465
    },
    {
      "NoteNumber": 79,
      "Velocity": 50,
      "Duration": 123701,
      "SoundDuration": 123701,
      "Delta": 173227391
    },
    {
      "NoteNumber": 63,
      "Velocity": 34,
      "Duration": 247402,
      "SoundDuration": 247402,
      "Delta": 173227391
    },
    {
      "NoteNumber": 78,
      "Velocity": 45,
      "Duration": 123701,
      "SoundDuration": 123701,
      "Delta": 173351092
    },
    {
      "NoteNumber": 79,
      "Velocity": 50,
      "Duration": 129477,
      "SoundDuration": 129477,
      "Delta": 173474793
    },
    {
      "NoteNumber": 58,
      "Velocity": 31,
      "Duration": 258955,
      "SoundDuration": 258955,
      "Delta": 173474793
    },
    {
      "NoteNumber": 81,
      "Velocity": 43,
      "Duration": 129477,
      "SoundDuration": 129477,
      "Delta": 173604271
    },
    {
      "NoteNumber": 82,
      "Velocity": 50,
      "Duration": 492611,
      "SoundDuration": 492611,
      "Delta": 173733749
    },
    {
      "NoteNumber": 62,
      "Velocity": 40,
      "Duration": 246305,
      "SoundDuration": 246305,
      "Delta": 173733749
    },
    {
      "NoteNumber": 61,
      "Velocity": 30,
      "Duration": 246305,
      "SoundDuration": 246305,
      "Delta": 173980054
    },
    {
      "NoteNumber": 77,
      "Velocity": 41,
      "Duration": 431034,
      "SoundDuration": 431034,
      "Delta": 174226360
    },
    {
      "NoteNumber": 62,
      "Velocity": 34,
      "Duration": 246305,
      "SoundDuration": 246305,
      "Delta": 174226360
    },
    {
      "NoteNumber": 58,
      "Velocity": 30,
      "Duration": 246305,
      "SoundDuration": 246305,
      "Delta": 174472665
    },
    {
      "NoteNumber": 69,
      "Velocity": 43,
      "Duration": 30788,
      "SoundDuration": 30788,
      "Delta": 174688183
    },
    {
      "NoteNumber": 75,
      "Velocity": 41,
      "Duration": 504059,
      "SoundDuration": 504059,
      "Delta": 174718971
    },
    {
      "NoteNumber": 67,
      "Velocity": 50,
      "Duration": 123152,
      "SoundDuration": 123152,
      "Delta": 174718971
    },
    {
      "NoteNumber": 60,
      "Velocity": 34,
      "Duration": 246305,
      "SoundDuration": 246305,
      "Delta": 174718971
    },
    {
      "NoteNumber": 65,
      "Velocity": 46,
      "Duration": 123152,
      "SoundDuration": 123152,
      "Delta": 174842123
    },
    {
      "NoteNumber": 67,
      "Velocity": 50,
      "Duration": 128876,
      "SoundDuration": 128876,
      "Delta": 174965276
    },
    {
      "NoteNumber": 53,
      "Velocity": 29,
      "Duration": 257754,
      "SoundDuration": 257754,
      "Delta": 174965276
    },
    {
      "NoteNumber": 69,
      "Velocity": 46,
      "Duration": 128877,
      "SoundDuration": 128877,
      "Delta": 175094153
    },
    {
      "NoteNumber": 74,
      "Velocity": 44,
      "Duration": 492611,
      "SoundDuration": 492611,
      "Delta": 175223030
    },
    {
      "NoteNumber": 70,
      "Velocity": 50,
      "Duration": 492611,
      "SoundDuration": 492611,
      "Delta": 175223030
    },
    {
      "NoteNumber": 58,
      "Velocity": 40,
      "Duration": 246305,
      "SoundDuration": 246305,
      "Delta": 175223030
    },
    {
      "NoteNumber": 46,
      "Velocity": 30,
      "Duration": 246305,
      "SoundDuration": 246305,
      "Delta": 175469336
    },
    {
      "NoteNumber": 65,
      "Velocity": 41,
      "Duration": 246305,
      "SoundDuration": 246305,
      "Delta": 175715641
    },
    {
      "NoteNumber": 50,
      "Velocity": 34,
      "Duration": 246305,
      "SoundDuration": 246305,
      "Delta": 175715641
    },
    {
      "NoteNumber": 46,
      "Velocity": 30,
      "Duration": 246305,
      "SoundDuration": 246305,
      "Delta": 175961947
    },
    {
      "NoteNumber": 69,
      "Velocity": 43,
      "Duration": 30788,
      "SoundDuration": 30788,
      "Delta": 176177464
    },
    {
      "NoteNumber": 67,
      "Velocity": 50,
      "Duration": 120967,
      "SoundDuration": 120967,
      "Delta": 176208252
    },
    {
      "NoteNumber": 51,
      "Velocity": 34,
      "Duration": 241935,
      "SoundDuration": 241935,
      "Delta": 176208252
    },
    {
      "NoteNumber": 66,
      "Velocity": 46,
      "Duration": 120967,
      "SoundDuration": 120967,
      "Delta": 176329220
    },
    {
      "NoteNumber": 67,
      "Velocity": 50,
      "Duration": 128876,
      "SoundDuration": 128876,
      "Delta": 176450188
    },
    {
      "NoteNumber": 46,
      "Velocity": 29,
      "Duration": 257754,
      "SoundDuration": 257754,
      "Delta": 176450188
    },
    {
      "NoteNumber": 69,
      "Velocity": 46,
      "Duration": 128877,
      "SoundDuration": 128877,
      "Delta": 176579065
    },
    {
      "NoteNumber": 70,
      "Velocity": 50,
      "Duration": 492611,
      "SoundDuration": 492611,
      "Delta": 176707942
    },
    {
      "NoteNumber": 50,
      "Velocity": 40,
      "Duration": 246305,
      "SoundDuration": 246305,
      "Delta": 176707942
    },
    {
      "NoteNumber": 49,
      "Velocity": 30,
      "Duration": 246305,
      "SoundDuration": 246305,
      "Delta": 176954247
    },
    {
      "NoteNumber": 65,
      "Velocity": 41,
      "Duration": 431034,
      "SoundDuration": 431034,
      "Delta": 177200553
    },
    {
      "NoteNumber": 50,
      "Velocity": 34,
      "Duration": 246305,
      "SoundDuration": 246305,
      "Delta": 177200553
    },
    {
      "NoteNumber": 46,
      "Velocity": 30,
      "Duration": 246305,
      "SoundDuration": 246305,
      "Delta": 177446858
    },
    {
      "NoteNumber": 57,
      "Velocity": 36,
      "Duration": 30788,
      "SoundDuration": 30788,
      "Delta": 177662376
    },
    {
      "NoteNumber": 63,
      "Velocity": 34,
      "Duration": 498717,
      "SoundDuration": 498717,
      "Delta": 177693164
    },
    {
      "NoteNumber": 55,
      "Velocity": 42,
      "Duration": 120482,
      "SoundDuration": 120482,
      "Delta": 177693164
    },
    {
      "NoteNumber": 48,
      "Velocity": 34,
      "Duration": 240963,
      "SoundDuration": 240963,
      "Delta": 177693164
    },
    {
      "NoteNumber": 53,
      "Velocity": 39,
      "Duration": 120481,
      "SoundDuration": 120481,
      "Delta": 177813646
    },
    {
      "NoteNumber": 55,
      "Velocity": 42,
      "Duration": 128876,
      "SoundDuration": 128876,
      "Delta": 177934128
    },
    {
      "NoteNumber": 41,
      "Velocity": 29,
      "Duration": 257754,
      "SoundDuration": 257754,
      "Delta": 177934128
    },
    {
      "NoteNumber": 57,
      "Velocity": 39,
      "Duration": 128877,
      "SoundDuration": 128877,
      "Delta": 178063005
    },
    {
      "NoteNumber": 62,
      "Velocity": 34,
      "Duration": 514076,
      "SoundDuration": 514076,
      "Delta": 178191882
    },
    {
      "NoteNumber": 58,
      "Velocity": 42,
      "Duration": 257754,
      "SoundDuration": 257754,
      "Delta": 178191882
    },
    {
      "NoteNumber": 46,
      "Velocity": 40,
      "Duration": 257754,
      "SoundDuration": 257754,
      "Delta": 178191882
    },
    {
      "NoteNumber": 53,
      "Velocity": 33,
      "Duration": 214794,
      "SoundDuration": 214794,
      "Delta": 178449636
    },
    {
      "NoteNumber": 50,
      "Velocity": 30,
      "Duration": 256322,
      "SoundDuration": 256322,
      "Delta": 178449636
    },
    {
      "NoteNumber": 57,
      "Velocity": 37,
      "Duration": 30788,
      "SoundDuration": 30788,
      "Delta": 178675170
    },
    {
      "NoteNumber": 63,
      "Velocity": 39,
      "Duration": 499689,
      "SoundDuration": 499689,
      "Delta": 178705959
    },
    {
      "NoteNumber": 55,
      "Velocity": 43,
      "Duration": 120967,
      "SoundDuration": 120967,
      "Delta": 178705959
    },
    {
      "NoteNumber": 48,
      "Velocity": 35,
      "Duration": 241935,
      "SoundDuration": 241935,
      "Delta": 178705959
    },
    {
      "NoteNumber": 53,
      "Velocity": 40,
      "Duration": 120967,
      "SoundDuration": 120967,
      "Delta": 178826926
    },
    {
      "NoteNumber": 55,
      "Velocity": 44,
      "Duration": 128876,
      "SoundDuration": 128876,
      "Delta": 178947894
    },
    {
      "NoteNumber": 41,
      "Velocity": 31,
      "Duration": 257754,
      "SoundDuration": 257754,
      "Delta": 178947894
    },
    {
      "NoteNumber": 57,
      "Velocity": 40,
      "Duration": 128877,
      "SoundDuration": 128877,
      "Delta": 179076771
    },
    {
      "NoteNumber": 62,
      "Velocity": 36,
      "Duration": 514076,
      "SoundDuration": 514076,
      "Delta": 179205648
    },
    {
      "NoteNumber": 58,
      "Velocity": 44,
      "Duration": 257754,
      "SoundDuration": 257754,
      "Delta": 179205648
    },
    {
      "NoteNumber": 46,
      "Velocity": 36,
      "Duration": 257754,
      "SoundDuration": 257754,
      "Delta": 179205648
    },
    {
      "NoteNumber": 53,
      "Velocity": 34,
      "Duration": 193315,
      "SoundDuration": 193315,
      "Delta": 179463402
    },
    {
      "NoteNumber": 50,
      "Velocity": 31,
      "Duration": 256322,
      "SoundDuration": 256322,
      "Delta": 179463402
    },
    {
      "NoteNumber": 57,
      "Velocity": 39,
      "Duration": 30788,
      "SoundDuration": 30788,
      "Delta": 179688937
    },
    {
      "NoteNumber": 63,
      "Velocity": 44,
      "Duration": 504059,
      "SoundDuration": 504059,
      "Delta": 179719725
    },
    {
      "NoteNumber": 55,
      "Velocity": 46,
      "Duration": 123152,
      "SoundDuration": 123152,
      "Delta": 179719725
    },
    {
      "NoteNumber": 48,
      "Velocity": 44,
      "Duration": 246305,
      "SoundDuration": 246305,
      "Delta": 179719725
    },
    {
      "NoteNumber": 53,
      "Velocity": 43,
      "Duration": 123152,
      "SoundDuration": 123152,
      "Delta": 179842878
    },
    {
      "NoteNumber": 55,
      "Velocity": 47,
      "Duration": 128876,
      "SoundDuration": 128876,
      "Delta": 179966031
    },
    {
      "NoteNumber": 41,
      "Velocity": 33,
      "Duration": 257754,
      "SoundDuration": 257754,
      "Delta": 179966031
    },
    {
      "NoteNumber": 57,
      "Velocity": 44,
      "Duration": 128877,
      "SoundDuration": 128877,
      "Delta": 180094908
    },
    {
      "NoteNumber": 62,
      "Velocity": 42,
      "Duration": 248509,
      "SoundDuration": 248509,
      "Delta": 180223785
    },
    {
      "NoteNumber": 58,
      "Velocity": 48,
      "Duration": 124254,
      "SoundDuration": 124254,
      "Delta": 180223785
    },
    {
      "NoteNumber": 46,
      "Velocity": 45,
      "Duration": 124254,
      "SoundDuration": 124254,
      "Delta": 180223785
    },
    {
      "NoteNumber": 53,
      "Velocity": 41,
      "Duration": 124254,
      "SoundDuration": 124254,
      "Delta": 180348039
    },
    {
      "NoteNumber": 50,
      "Velocity": 37,
      "Duration": 124254,
      "SoundDuration": 124254,
      "Delta": 180348039
    },
    {
      "NoteNumber": 63,
      "Velocity": 40,
      "Duration": 248508,
      "SoundDuration": 248508,
      "Delta": 180472294
    },
    {
      "NoteNumber": 57,
      "Velocity": 50,
      "Duration": 124254,
      "SoundDuration": 124254,
      "Delta": 180472294
    },
    {
      "NoteNumber": 41,
      "Velocity": 46,
      "Duration": 124254,
      "SoundDuration": 124254,
      "Delta": 180472294
    },
    {
      "NoteNumber": 53,
      "Velocity": 43,
      "Duration": 124254,
      "SoundDuration": 124254,
      "Delta": 180596548
    },
    {
      "NoteNumber": 48,
      "Velocity": 39,
      "Duration": 124254,
      "SoundDuration": 124254,
      "Delta": 180596548
    },
    {
      "NoteNumber": 62,
      "Velocity": 49,
      "Duration": 248509,
      "SoundDuration": 248509,
      "Delta": 180720803
    },
    {
      "NoteNumber": 58,
      "Velocity": 51,
      "Duration": 124254,
      "SoundDuration": 124254,
      "Delta": 180720803
    },
    {
      "NoteNumber": 46,
      "Velocity": 47,
      "Duration": 124254,
      "SoundDuration": 124254,
      "Delta": 180720803
    },
    {
      "NoteNumber": 53,
      "Velocity": 46,
      "Duration": 124254,
      "SoundDuration": 124254,
      "Delta": 180845057
    },
    {
      "NoteNumber": 50,
      "Velocity": 41,
      "Duration": 124254,
      "SoundDuration": 124254,
      "Delta": 180845057
    },
    {
      "NoteNumber": 63,
      "Velocity": 42,
      "Duration": 262109,
      "SoundDuration": 262109,
      "Delta": 180969312
    },
    {
      "NoteNumber": 57,
      "Velocity": 52,
      "Duration": 124254,
      "SoundDuration": 124254,
      "Delta": 180969312
    },
    {
      "NoteNumber": 41,
      "Velocity": 49,
      "Duration": 124254,
      "SoundDuration": 124254,
      "Delta": 180969312
    },
    {
      "NoteNumber": 53,
      "Velocity": 47,
      "Duration": 137855,
      "SoundDuration": 137855,
      "Delta": 181093566
    },
    {
      "NoteNumber": 48,
      "Velocity": 43,
      "Duration": 137855,
      "SoundDuration": 137855,
      "Delta": 181093566
    },
    {
      "NoteNumber": 58,
      "Velocity": 34,
      "Duration": 127118,
      "SoundDuration": 127118,
      "Delta": 181231421
    },
    {
      "NoteNumber": 62,
      "Velocity": 40,
      "Duration": 127118,
      "SoundDuration": 127118,
      "Delta": 181231421
    },
    {
      "NoteNumber": 46,
      "Velocity": 24,
      "Duration": 127118,
      "SoundDuration": 127118,
      "Delta": 181231421
    },
    {
      "NoteNumber": 50,
      "Velocity": 30,
      "Duration": 127118,
      "SoundDuration": 127118,
      "Delta": 181231421
    },
    {
      "NoteNumber": 62,
      "Velocity": 34,
      "Duration": 127118,
      "SoundDuration": 127118,
      "Delta": 181739896
    },
    {
      "NoteNumber": 70,
      "Velocity": 40,
      "Duration": 127118,
      "SoundDuration": 127118,
      "Delta": 181739896
    },
    {
      "NoteNumber": 34,
      "Velocity": 24,
      "Duration": 127118,
      "SoundDuration": 127118,
      "Delta": 181739896
    },
    {
      "NoteNumber": 46,
      "Velocity": 30,
      "Duration": 127118,
      "SoundDuration": 127118,
      "Delta": 181739896
    }
  ]
}