{"title":"Grande Sonate Opus 22 - 4. movement","artist":"Beethoven","durationMs":281890,"midiSha256":"cf139e4a65e6b742972454008d8369c04be1fe3a686cb03d244bc54161a96145","midiObject":[{"NoteNumber":77,"Velocity":45,"Duration":182926,"SoundDuration":182926,"Delta":0},{"NoteNumber":79,"Velocity":50,"Duration":175438,"SoundDuration":175438,"Delta":182927},{"NoteNumber":77,"Velocity":46,"Duration":175438,"SoundDuration":175438,"Delta":358365},{"NoteNumber":75,"Velocity":50,"Duration":175438,"SoundDuration":175438,"Delta":533804},{"NoteNumber":58,"Velocity":42,"Duration":350876,"SoundDuration":350876,"Delta":533804},{"NoteNumber":74,"Velocity":46,"Duration":175438,"SoundDuration":175438,"Delta":709242},{"NoteNumber":65,"Velocity":34,"Duration":175438,"SoundDuration":175438,"Delta":709242},{"NoteNumber":72,"Velocity":46,"Duration":175438,"SoundDuration":175438,"Delta":884681},{"NoteNumber":62,"Velocity":38,"Duration":350876,"SoundDuration":350876,"Delta":884681},{"NoteNumber":70,"Velocity":46,"Duration":175438,"SoundDuration":175438,"Delta":1060119},{"NoteNumber":65,"Velocity":34,"Duration":175438,"SoundDuration":175438,"Delta":1060119},{"NoteNumber":69,"Velocity":50,"Duration":350877,"SoundDuration":350877,"Delta":1235558},{"NoteNumber":63,"Velocity":38,"Duration":175438,"SoundDuration":175438,"Delta":1235558},{"NoteNumber":60,"Velocity":38,"Duration":350877,"SoundDuration":350877,"Delta":1235558},{"NoteNumber":65,"Velocity":34,"Duration":175438,"SoundDuration":175438,"Delta":1410996},{"NoteNumber":70,"Velocity":47,"Duration":372807,"SoundDuration":372807,"Delta":1586435},{"NoteNumber":62,"Velocity":37,"Duration":175438,"SoundDuration":175438,"Delta":1586435},{"NoteNumber":58,"Velocity":37,"Duration":372807,"SoundDuration":372807,"Delta":1586435},{"NoteNumber":65,"Velocity":34,"Duration":197368,"SoundDuration":197368,"Delta":1761873},{"NoteNumber":71,"Velocity":53,"Duration":348837,"SoundDuration":348837,"Delta":1959242},{"NoteNumber":57,"Velocity":43,"Duration":1397745,"SoundDuration":1397745,"Delta":1959242},{"NoteNumber":63,"Velocity":43,"Duration":1397745,"SoundDuration":1397745,"Delta":1959242},{"NoteNumber":65,"Velocity":34,"Duration":87209,"SoundDuration":87209,"Delta":2133660},{"NoteNumber":72,"Velocity":49,"Duration":526399,"SoundDuration":526399,"Delta":2308079},{"NoteNumber":65,"Velocity":34,"Duration":86206,"SoundDuration":86206,"Delta":2308079},{"NoteNumber":65,"Velocity":34,"Duration":88235,"SoundDuration":88235,"Delta":2480493},{"NoteNumber":65,"Velocity":37,"Duration":88757,"SoundDuration":88757,"Delta":2656963},{"NoteNumber":78,"Velocity":45,"Duration":179640,"SoundDuration":179640,"Delta":2834478},{"NoteNumber":65,"Velocity":34,"Duration":89820,"SoundDuration":89820,"Delta":2834478},{"NoteNumber":81,"Velocity":50,"Duration":170454,"SoundDuration":170454,"Delta":3014119},{"NoteNumber":65,"Velocity":34,"Duration":85227,"SoundDuration":85227,"Delta":3014119},{"NoteNumber":79,"Velocity":46,"Duration":172413,"SoundDuration":172413,"Delta":3184573},{"NoteNumber":65,"Velocity":34,"Duration":86206,"SoundDuration":86206,"Delta":3184573},{"NoteNumber":77,"Velocity":50,"Duration":173410,"SoundDuration":173410,"Delta":3356987},{"NoteNumber":57,"Velocity":42,"Duration":346821,"SoundDuration":346821,"Delta":3356987},{"NoteNumber":75,"Velocity":46,"Duration":173410,"SoundDuration":173410,"Delta":3530397},{"NoteNumber":65,"Velocity":34,"Duration":173410,"SoundDuration":173410,"Delta":3530397},{"NoteNumber":74,"Velocity":46,"Duration":173410,"SoundDuration":173410,"Delta":3703808},{"NoteNumber":63,"Velocity":38,"Duration":346820,"SoundDuration":346820,"Delta":3703808},{"NoteNumber":72,"Velocity":46,"Duration":173410,"SoundDuration":173410,"Delta":3877218},{"NoteNumber":65,"Velocity":34,"Duration":173410,"SoundDuration":173410,"Delta":3877218},{"NoteNumber":70,"Velocity":50,"Duration":346821,"SoundDuration":346821,"Delta":4050629},{"NoteNumber":62,"Velocity":38,"Duration":346821,"SoundDuration":346821,"Delta":4050629},{"NoteNumber":65,"Velocity":34,"Duration":173410,"SoundDuration":173410,"Delta":4224039},{"NoteNumber":72,"Velocity":47,"Duration":365718,"SoundDuration":365718,"Delta":4397450},{"NoteNumber":57,"Velocity":37,"Duration":365718,"SoundDuration":365718,"Delta":4397450},{"NoteNumber":65,"Velocity":34,"Duration":192307,"SoundDuration":192307,"Delta":4570860},{"NoteNumber":73,"Velocity":53,"Duration":345847,"SoundDuration":345847,"Delta":4763168},{"NoteNumber":58,"Velocity":43,"Duration":1043845,"SoundDuration":1043845,"Delta":4763168},{"NoteNumber":65,"Velocity":34,"Duration":85714,"SoundDuration":85714,"Delta":4937587},{"NoteNumber":74,"Velocity":49,"Duration":517275,"SoundDuration":517275,"Delta":5109015},{"NoteNumber":65,"Velocity":34,"Duration":86705,"SoundDuration":86705,"Delta":5109015},{"NoteNumber":65,"Velocity":34,"Duration":85227,"SoundDuration":85227,"Delta":5282426},{"NoteNumber":65,"Velocity":37,"Duration":86705,"SoundDuration":86705,"Delta":5452880},{"NoteNumber":77,"Velocity":51,"Duration":180723,"SoundDuration":180723,"Delta":5626291},{"NoteNumber":65,"Velocity":34,"Duration":90361,"SoundDuration":90361,"Delta":5626291},{"NoteNumber":79,"Velocity":58,"Duration":170454,"SoundDuration":170454,"Delta":5807014},{"NoteNumber":59,"Velocity":34,"Duration":344872,"SoundDuration":344872,"Delta":5807014},{"NoteNumber":74,"Velocity":52,"Duration":174418,"SoundDuration":174418,"Delta":5977468},{"NoteNumber":65,"Velocity":34,"Duration":87209,"SoundDuration":87209,"Delta":5977468},{"NoteNumber":77,"Velocity":56,"Duration":174418,"SoundDuration":174418,"Delta":6151887},{"NoteNumber":60,"Velocity":42,"Duration":345847,"SoundDuration":345847,"Delta":6151887},{"NoteNumber":75,"Velocity":52,"Duration":171428,"SoundDuration":171428,"Delta":6326305},{"NoteNumber":65,"Velocity":34,"Duration":171428,"SoundDuration":171428,"Delta":6326305},{"NoteNumber":77,"Velocity":57,"Duration":172413,"SoundDuration":172413,"Delta":6497734},{"NoteNumber":57,"Velocity":38,"Duration":344827,"SoundDuration":344827,"Delta":6497734},{"NoteNumber":72,"Velocity":52,"Duration":172413,"SoundDuration":172413,"Delta":6670147},{"NoteNumber":65,"Velocity":34,"Duration":172413,"SoundDuration":172413,"Delta":6670147},{"NoteNumber":75,"Velocity":57,"Duration":174418,"SoundDuration":174418,"Delta":6842561},{"NoteNumber":58,"Velocity":42,"Duration":346832,"SoundDuration":346832,"Delta":6842561},{"NoteNumber":74,"Velocity":52,"Duration":172413,"SoundDuration":172413,"Delta":7016980},{"NoteNumber":65,"Velocity":34,"Duration":172413,"SoundDuration":172413,"Delta":7016980},{"NoteNumber":79,"Velocity":59,"Duration":173410,"SoundDuration":173410,"Delta":7189393},{"NoteNumber":59,"Velocity":38,"Duration":355228,"SoundDuration":355228,"Delta":7189393},{"NoteNumber":74,"Velocity":52,"Duration":181818,"SoundDuration":181818,"Delta":7362804},{"NoteNumber":65,"Velocity":34,"Duration":181818,"SoundDuration":181818,"Delta":7362804},{"NoteNumber":77,"Velocity":62,"Duration":174418,"SoundDuration":174418,"Delta":7544622},{"NoteNumber":60,"Velocity":47,"Duration":348836,"SoundDuration":348836,"Delta":7544622},{"NoteNumber":75,"Velocity":56,"Duration":174418,"SoundDuration":174418,"Delta":7719040},{"NoteNumber":65,"Velocity":34,"Duration":174418,"SoundDuration":174418,"Delta":7719040},{"NoteNumber":77,"Velocity":62,"Duration":174418,"SoundDuration":174418,"Delta":7893459},{"NoteNumber":57,"Velocity":42,"Duration":348836,"SoundDuration":348836,"Delta":7893459},{"NoteNumber":72,"Velocity":54,"Duration":174418,"SoundDuration":174418,"Delta":8067877},{"NoteNumber":65,"Velocity":34,"Duration":174418,"SoundDuration":174418,"Delta":8067877},{"NoteNumber":74,"Velocity":67,"Duration":174418,"SoundDuration":174418,"Delta":8242296},{"NoteNumber":58,"Velocity":52,"Duration":345847,"SoundDuration":345847,"Delta":8242296},{"NoteNumber":75,"Velocity":57,"Duration":171428,"SoundDuration":171428,"Delta":8416714},{"NoteNumber":62,"Velocity":38,"Duration":171428,"SoundDuration":171428,"Delta":8416714},{"NoteNumber":76,"Velocity":59,"Duration":171428,"SoundDuration":171428,"Delta":8588143},{"NoteNumber":57,"Velocity":47,"Duration":342857,"SoundDuration":342857,"Delta":8588143},{"NoteNumber":77,"Velocity":61,"Duration":171428,"SoundDuration":171428,"Delta":8759572},{"NoteNumber":60,"Velocity":42,"Duration":171428,"SoundDuration":171428,"Delta":8759572},{"NoteNumber":78,"Velocity":67,"Duration":172413,"SoundDuration":172413,"Delta":8931000},{"NoteNumber":55,"Velocity":58,"Duration":330459,"SoundDuration":330459,"Delta":8931000},{"NoteNumber":79,"Velocity":64,"Duration":172413,"SoundDuration":172413,"Delta":9103414},{"NoteNumber":58,"Velocity":42,"Duration":172413,"SoundDuration":172413,"Delta":9103414},{"NoteNumber":81,"Velocity":67,"Duration":172413,"SoundDuration":172413,"Delta":9275827},{"NoteNumber":55,"Velocity":49,"Duration":344827,"SoundDuration":344827,"Delta":9275827},{"NoteNumber":82,"Velocity":69,"Duration":172413,"SoundDuration":172413,"Delta":9448241},{"NoteNumber":58,"Velocity":41,"Duration":172413,"SoundDuration":172413,"Delta":9448241},{"NoteNumber":84,"Velocity":70,"Duration":173410,"SoundDuration":173410,"Delta":9620655},{"NoteNumber":48,"Velocity":63,"Duration":332370,"SoundDuration":332370,"Delta":9620655},{"NoteNumber":85,"Velocity":74,"Duration":173410,"SoundDuration":173410,"Delta":9794065},{"NoteNumber":58,"Velocity":39,"Duration":173410,"SoundDuration":173410,"Delta":9794065},{"NoteNumber":86,"Velocity":81,"Duration":173410,"SoundDuration":173410,"Delta":9967476},{"NoteNumber":48,"Velocity":43,"Duration":373410,"SoundDuration":373410,"Delta":9967476},{"NoteNumber":76,"Velocity":54,"Duration":199999,"SoundDuration":199999,"Delta":10140886},{"NoteNumber":58,"Velocity":34,"Duration":199999,"SoundDuration":199999,"Delta":10140886},{"NoteNumber":79,"Velocity":58,"Duration":346821,"SoundDuration":346821,"Delta":10340886},{"NoteNumber":53,"Velocity":43,"Duration":1077574,"SoundDuration":1077574,"Delta":10340886},{"NoteNumber":58,"Velocity":29,"Duration":173410,"SoundDuration":173410,"Delta":10514297},{"NoteNumber":77,"Velocity":53,"Duration":352940,"SoundDuration":352940,"Delta":10687707},{"NoteNumber":57,"Velocity":35,"Duration":176470,"SoundDuration":176470,"Delta":10687707},{"NoteNumber":55,"Velocity":29,"Duration":176470,"SoundDuration":176470,"Delta":10864178},{"NoteNumber":57,"Velocity":34,"Duration":377812,"SoundDuration":377812,"Delta":11040648},{"NoteNumber":65,"Velocity":38,"Duration":201342,"SoundDuration":201342,"Delta":11217119},{"NoteNumber":77,"Velocity":45,"Duration":201342,"SoundDuration":201342,"Delta":11217119},{"NoteNumber":67,"Velocity":42,"Duration":175438,"SoundDuration":175438,"Delta":11418461},{"NoteNumber":79,"Velocity":50,"Duration":175438,"SoundDuration":175438,"Delta":11418461},{"NoteNumber":65,"Velocity":39,"Duration":175438,"SoundDuration":175438,"Delta":11593900},{"NoteNumber":77,"Velocity":46,"Duration":175438,"SoundDuration":175438,"Delta":11593900},{"NoteNumber":63,"Velocity":42,"Duration":175438,"SoundDuration":175438,"Delta":11769338},{"NoteNumber":75,"Velocity":50,"Duration":175438,"SoundDuration":175438,"Delta":11769338},{"NoteNumber":46,"Velocity":42,"Duration":350876,"SoundDuration":350876,"Delta":11769338},{"NoteNumber":62,"Velocity":39,"Duration":175438,"SoundDuration":175438,"Delta":11944777},{"NoteNumber":74,"Velocity":46,"Duration":175438,"SoundDuration":175438,"Delta":11944777},{"NoteNumber":53,"Velocity":34,"Duration":175438,"SoundDuration":175438,"Delta":11944777},{"NoteNumber":60,"Velocity":39,"Duration":175438,"SoundDuration":175438,"Delta":12120215},{"NoteNumber":72,"Velocity":46,"Duration":175438,"SoundDuration":175438,"Delta":12120215},{"NoteNumber":50,"Velocity":38,"Duration":350877,"SoundDuration":350877,"Delta":12120215},{"NoteNumber":58,"Velocity":39,"Duration":175438,"SoundDuration":175438,"Delta":12295654},{"NoteNumber":70,"Velocity":46,"Duration":175438,"SoundDuration":175438,"Delta":12295654},{"NoteNumber":53,"Velocity":34,"Duration":175438,"SoundDuration":175438,"Delta":12295654},{"NoteNumber":57,"Velocity":42,"Duration":350877,"SoundDuration":350877,"Delta":12471092},{"NoteNumber":69,"Velocity":42,"Duration":350877,"SoundDuration":350877,"Delta":12471092},{"NoteNumber":51,"Velocity":38,"Duration":175438,"SoundDuration":175438,"Delta":12471092},{"NoteNumber":48,"Velocity":38,"Duration":350877,"SoundDuration":350877,"Delta":12471092},{"NoteNumber":53,"Velocity":34,"Duration":175438,"SoundDuration":175438,"Delta":12646531},{"NoteNumber":58,"Velocity":39,"Duration":372806,"SoundDuration":372806,"Delta":12821969},{"NoteNumber":70,"Velocity":47,"Duration":372806,"SoundDuration":372806,"Delta":12821969},{"NoteNumber":50,"Velocity":37,"Duration":175438,"SoundDuration":175438,"Delta":12821969},{"NoteNumber":46,"Velocity":37,"Duration":372806,"SoundDuration":372806,"Delta":12821969},{"NoteNumber":53,"Velocity":34,"Duration":197368,"SoundDuration":197368,"Delta":12997408},{"NoteNumber":59,"Velocity":45,"Duration":348836,"SoundDuration":348836,"Delta":13194776},{"NoteNumber":71,"Velocity":53,"Duration":348836,"SoundDuration":348836,"Delta":13194776},{"NoteNumber":45,"Velocity":43,"Duration":1396779,"SoundDuration":1396779,"Delta":13194776},{"NoteNumber":51,"Velocity":43,"Duration":1396779,"SoundDuration":1396779,"Delta":13194776},{"NoteNumber":53,"Velocity":34,"Duration":87209,"SoundDuration":87209,"Delta":13369195},{"NoteNumber":60,"Velocity":41,"Duration":523255,"SoundDuration":523255,"Delta":13543613},{"NoteNumber":72,"Velocity":49,"Duration":523255,"SoundDuration":523255,"Delta":13543613},{"NoteNumber":53,"Velocity":34,"Duration":87209,"SoundDuration":87209,"Delta":13543613},{"NoteNumber":53,"Velocity":34,"Duration":87209,"SoundDuration":87209,"Delta":13718032},{"NoteNumber":53,"Velocity":37,"Duration":87209,"SoundDuration":87209,"Delta":13892450},{"NoteNumber":66,"Velocity":38,"Duration":181818,"SoundDuration":181818,"Delta":14066869},{"NoteNumber":78,"Velocity":45,"Duration":181818,"SoundDuration":181818,"Delta":14066869},{"NoteNumber":53,"Velocity":34,"Duration":90909,"SoundDuration":90909,"Delta":14066869},{"NoteNumber":69,"Velocity":42,"Duration":170454,"SoundDuration":170454,"Delta":14248687},{"NoteNumber":81,"Velocity":50,"Duration":170454,"SoundDuration":170454,"Delta":14248687},{"NoteNumber":53,"Velocity":34,"Duration":85227,"SoundDuration":85227,"Delta":14248687},{"NoteNumber":67,"Velocity":39,"Duration":172413,"SoundDuration":172413,"Delta":14419141},{"NoteNumber":79,"Velocity":46,"Duration":172413,"SoundDuration":172413,"Delta":14419141},{"NoteNumber":53,"Velocity":34,"Duration":86206,"SoundDuration":86206,"Delta":14419141},{"NoteNumber":65,"Velocity":42,"Duration":173410,"SoundDuration":173410,"Delta":14591555},{"NoteNumber":77,"Velocity":50,"Duration":173410,"SoundDuration":173410,"Delta":14591555},{"NoteNumber":45,"Velocity":42,"Duration":346821,"SoundDuration":346821,"Delta":14591555},{"NoteNumber":63,"Velocity":39,"Duration":173410,"SoundDuration":173410,"Delta":14764966},{"NoteNumber":75,"Velocity":46,"Duration":173410,"SoundDuration":173410,"Delta":14764966},{"NoteNumber":53,"Velocity":34,"Duration":173410,"SoundDuration":173410,"Delta":14764966},{"NoteNumber":62,"Velocity":39,"Duration":173410,"SoundDuration":173410,"Delta":14938376},{"NoteNumber":74,"Velocity":46,"Duration":173410,"SoundDuration":173410,"Delta":14938376},{"NoteNumber":51,"Velocity":38,"Duration":346821,"SoundDuration":346821,"Delta":14938376},{"NoteNumber":60,"Velocity":39,"Duration":173410,"SoundDuration":173410,"Delta":15111787},{"NoteNumber":72,"Velocity":46,"Duration":173410,"SoundDuration":173410,"Delta":15111787},{"NoteNumber":53,"Velocity":34,"Duration":173410,"SoundDuration":173410,"Delta":15111787},{"NoteNumber":58,"Velocity":42,"Duration":346820,"SoundDuration":346820,"Delta":15285197},{"NoteNumber":70,"Velocity":50,"Duration":346820,"SoundDuration":346820,"Delta":15285197},{"NoteNumber":50,"Velocity":38,"Duration":346820,"SoundDuration":346820,"Delta":15285197},{"NoteNumber":53,"Velocity":34,"Duration":173410,"SoundDuration":173410,"Delta":15458608},{"NoteNumber":60,"Velocity":39,"Duration":365718,"SoundDuration":365718,"Delta":15632018},{"NoteNumber":72,"Velocity":47,"Duration":365718,"SoundDuration":365718,"Delta":15632018},{"NoteNumber":45,"Velocity":37,"Duration":365718,"SoundDuration":365718,"Delta":15632018},{"NoteNumber":53,"Velocity":34,"Duration":192307,"SoundDuration":192307,"Delta":15805429},{"NoteNumber":61,"Velocity":45,"Duration":348836,"SoundDuration":348836,"Delta":15997736},{"NoteNumber":73,"Velocity":53,"Duration":348836,"SoundDuration":348836,"Delta":15997736},{"NoteNumber":46,"Velocity":43,"Duration":1052815,"SoundDuration":1052815,"Delta":15997736},{"NoteNumber":53,"Velocity":34,"Duration":87209,"SoundDuration":87209,"Delta":16172155},{"NoteNumber":62,"Velocity":41,"Duration":523255,"SoundDuration":523255,"Delta":16346573},{"NoteNumber":74,"Velocity":49,"Duration":523255,"SoundDuration":523255,"Delta":16346573},{"NoteNumber":53,"Velocity":34,"Duration":87209,"SoundDuration":87209,"Delta":16346573},{"NoteNumber":53,"Velocity":34,"Duration":87209,"SoundDuration":87209,"Delta":16520992},{"NoteNumber":53,"Velocity":37,"Duration":87209,"SoundDuration":87209,"Delta":16695410},{"NoteNumber":77,"Velocity":56,"Duration":180723,"SoundDuration":180723,"Delta":16869829},{"NoteNumber":53,"Velocity":37,"Duration":90361,"SoundDuration":90361,"Delta":16869829},{"NoteNumber":68,"Velocity":45,"Duration":693710,"SoundDuration":693710,"Delta":17050552},{"NoteNumber":79,"Velocity":63,"Duration":170454,"SoundDuration":170454,"Delta":17050552},{"NoteNumber":47,"Velocity":37,"Duration":344873,"SoundDuration":344873,"Delta":17050552},{"NoteNumber":74,"Velocity":57,"Duration":174418,"SoundDuration":174418,"Delta":17221007},{"NoteNumber":53,"Velocity":37,"Duration":87209,"SoundDuration":87209,"Delta":17221007},{"NoteNumber":77,"Velocity":62,"Duration":174418,"SoundDuration":174418,"Delta":17395425},{"NoteNumber":48,"Velocity":46,"Duration":348836,"SoundDuration":348836,"Delta":17395425},{"NoteNumber":75,"Velocity":58,"Duration":174418,"SoundDuration":174418,"Delta":17569844},{"NoteNumber":53,"Velocity":38,"Duration":174418,"SoundDuration":174418,"Delta":17569844},{"NoteNumber":69,"Velocity":45,"Duration":348836,"SoundDuration":348836,"Delta":17744262},{"NoteNumber":77,"Velocity":63,"Duration":174418,"SoundDuration":174418,"Delta":17744262},{"NoteNumber":41,"Velocity":42,"Duration":348836,"SoundDuration":348836,"Delta":17744262},{"NoteNumber":72,"Velocity":58,"Duration":174418,"SoundDuration":174418,"Delta":17918681},{"NoteNumber":53,"Velocity":38,"Duration":174418,"SoundDuration":174418,"Delta":17918681},{"NoteNumber":70,"Velocity":46,"Duration":348836,"SoundDuration":348836,"Delta":18093099},{"NoteNumber":75,"Velocity":64,"Duration":174418,"SoundDuration":174418,"Delta":18093099},{"NoteNumber":46,"Velocity":47,"Duration":348836,"SoundDuration":348836,"Delta":18093099},{"NoteNumber":74,"Velocity":59,"Duration":174418,"SoundDuration":174418,"Delta":18267518},{"NoteNumber":53,"Velocity":38,"Duration":174418,"SoundDuration":174418,"Delta":18267518},{"NoteNumber":68,"Velocity":46,"Duration":705073,"SoundDuration":705073,"Delta":18441936},{"NoteNumber":79,"Velocity":67,"Duration":174418,"SoundDuration":174418,"Delta":18441936},{"NoteNumber":47,"Velocity":43,"Duration":356236,"SoundDuration":356236,"Delta":18441936},{"NoteNumber":74,"Velocity":59,"Duration":181818,"SoundDuration":181818,"Delta":18616355},{"NoteNumber":53,"Velocity":39,"Duration":181818,"SoundDuration":181818,"Delta":18616355},{"NoteNumber":77,"Velocity":71,"Duration":174418,"SoundDuration":174418,"Delta":18798173},{"NoteNumber":48,"Velocity":54,"Duration":348836,"SoundDuration":348836,"Delta":18798173},{"NoteNumber":75,"Velocity":64,"Duration":174418,"SoundDuration":174418,"Delta":18972591},{"NoteNumber":53,"Velocity":39,"Duration":174418,"SoundDuration":174418,"Delta":18972591},{"NoteNumber":69,"Velocity":47,"Duration":348836,"SoundDuration":348836,"Delta":19147010},{"NoteNumber":77,"Velocity":71,"Duration":174418,"SoundDuration":174418,"Delta":19147010},{"NoteNumber":41,"Velocity":48,"Duration":348836,"SoundDuration":348836,"Delta":19147010},{"NoteNumber":72,"Velocity":63,"Duration":174418,"SoundDuration":174418,"Delta":19321428},{"NoteNumber":53,"Velocity":39,"Duration":174418,"SoundDuration":174418,"Delta":19321428},{"NoteNumber":70,"Velocity":59,"Duration":174418,"SoundDuration":174418,"Delta":19495847},{"NoteNumber":75,"Velocity":71,"Duration":174418,"SoundDuration":174418,"Delta":19495847},{"NoteNumber":46,"Velocity":56,"Duration":345847,"SoundDuration":345847,"Delta":19495847},{"NoteNumber":62,"Velocity":53,"Duration":171428,"SoundDuration":171428,"Delta":19670265},{"NoteNumber":74,"Velocity":63,"Duration":171428,"SoundDuration":171428,"Delta":19670265},{"NoteNumber":53,"Velocity":41,"Duration":171428,"SoundDuration":171428,"Delta":19670265},{"NoteNumber":63,"Velocity":56,"Duration":171428,"SoundDuration":171428,"Delta":19841694},{"NoteNumber":75,"Velocity":67,"Duration":171428,"SoundDuration":171428,"Delta":19841694},{"NoteNumber":44,"Velocity":50,"Duration":342856,"SoundDuration":342856,"Delta":19841694},{"NoteNumber":65,"Velocity":60,"Duration":171428,"SoundDuration":171428,"Delta":20013122},{"NoteNumber":77,"Velocity":71,"Duration":171428,"SoundDuration":171428,"Delta":20013122},{"NoteNumber":46,"Velocity":45,"Duration":171428,"SoundDuration":171428,"Delta":20013122},{"NoteNumber":66,"Velocity":67,"Duration":172413,"SoundDuration":172413,"Delta":20184551},{"NoteNumber":78,"Velocity":80,"Duration":172413,"SoundDuration":172413,"Delta":20184551},{"NoteNumber":43,"Velocity":65,"Duration":330459,"SoundDuration":330459,"Delta":20184551},{"NoteNumber":67,"Velocity":63,"Duration":172413,"SoundDuration":172413,"Delta":20356965},{"NoteNumber":79,"Velocity":75,"Duration":172413,"SoundDuration":172413,"Delta":20356965},{"NoteNumber":46,"Velocity":53,"Duration":172413,"SoundDuration":172413,"Delta":20356965},{"NoteNumber":69,"Velocity":67,"Duration":86206,"SoundDuration":86206,"Delta":20529378},{"NoteNumber":81,"Velocity":80,"Duration":86206,"SoundDuration":86206,"Delta":20529378},{"NoteNumber":39,"Velocity":61,"Duration":365962,"SoundDuration":365962,"Delta":20529378},{"NoteNumber":70,"Velocity":70,"Duration":96774,"SoundDuration":96774,"Delta":20701792},{"NoteNumber":82,"Velocity":83,"Duration":96774,"SoundDuration":96774,"Delta":20701792},{"NoteNumber":51,"Velocity":53,"Duration":193548,"SoundDuration":193548,"Delta":20701792},{"NoteNumber":58,"Velocity":70,"Duration":344827,"SoundDuration":344827,"Delta":20895341},{"NoteNumber":70,"Velocity":70,"Duration":344827,"SoundDuration":344827,"Delta":20895341},{"NoteNumber":41,"Velocity":56,"Duration":330459,"SoundDuration":330459,"Delta":20895341},{"NoteNumber":50,"Velocity":42,"Duration":172413,"SoundDuration":172413,"Delta":21067754},{"NoteNumber":60,"Velocity":58,"Duration":379310,"SoundDuration":379310,"Delta":21240168},{"NoteNumber":72,"Velocity":69,"Duration":379310,"SoundDuration":379310,"Delta":21240168},{"NoteNumber":41,"Velocity":49,"Duration":379310,"SoundDuration":379310,"Delta":21240168},{"NoteNumber":45,"Velocity":43,"Duration":206896,"SoundDuration":206896,"Delta":21412582},{"NoteNumber":61,"Velocity":41,"Duration":346820,"SoundDuration":346820,"Delta":21619478},{"NoteNumber":73,"Velocity":49,"Duration":346820,"SoundDuration":346820,"Delta":21619478},{"NoteNumber":34,"Velocity":43,"Duration":173410,"SoundDuration":173410,"Delta":21619478},{"NoteNumber":46,"Velocity":29,"Duration":880080,"SoundDuration":880080,"Delta":21792889},{"NoteNumber":62,"Velocity":38,"Duration":443285,"SoundDuration":443285,"Delta":21966299},{"NoteNumber":74,"Velocity":45,"Duration":443285,"SoundDuration":443285,"Delta":21966299},{"NoteNumber":58,"Velocity":35,"Duration":88038,"SoundDuration":88038,"Delta":21966299},{"NoteNumber":58,"Velocity":29,"Duration":88968,"SoundDuration":88968,"Delta":22143624},{"NoteNumber":58,"Velocity":37,"Duration":88235,"SoundDuration":88235,"Delta":22321350},{"NoteNumber":70,"Velocity":59,"Duration":88192,"SoundDuration":88192,"Delta":22409585},{"NoteNumber":69,"Velocity":61,"Duration":87719,"SoundDuration":87719,"Delta":22497777},{"NoteNumber":58,"Velocity":35,"Duration":87719,"SoundDuration":87719,"Delta":22497777},{"NoteNumber":70,"Velocity":62,"Duration":87472,"SoundDuration":87472,"Delta":22585496},{"NoteNumber":71,"Velocity":62,"Duration":87209,"SoundDuration":87209,"Delta":22672969},{"NoteNumber":56,"Velocity":43,"Duration":346902,"SoundDuration":346902,"Delta":22672969},{"NoteNumber":72,"Velocity":64,"Duration":86764,"SoundDuration":86764,"Delta":22760178},{"NoteNumber":73,"Velocity":65,"Duration":86705,"SoundDuration":86705,"Delta":22846942},{"NoteNumber":58,"Velocity":39,"Duration":172928,"SoundDuration":172928,"Delta":22846942},{"NoteNumber":74,"Velocity":67,"Duration":86223,"SoundDuration":86223,"Delta":22933648},{"NoteNumber":75,"Velocity":69,"Duration":86026,"SoundDuration":86026,"Delta":23019871},{"NoteNumber":55,"Velocity":52,"Duration":342470,"SoundDuration":342470,"Delta":23019871},{"NoteNumber":76,"Velocity":70,"Duration":85714,"SoundDuration":85714,"Delta":23105897},{"NoteNumber":77,"Velocity":71,"Duration":85503,"SoundDuration":85503,"Delta":23191612},{"NoteNumber":58,"Velocity":46,"Duration":170730,"SoundDuration":170730,"Delta":23191612},{"NoteNumber":78,"Velocity":73,"Duration":85227,"SoundDuration":85227,"Delta":23277115},{"NoteNumber":79,"Velocity":74,"Duration":84826,"SoundDuration":84826,"Delta":23362342},{"NoteNumber":51,"Velocity":56,"Duration":337999,"SoundDuration":337999,"Delta":23362342},{"NoteNumber":80,"Velocity":76,"Duration":84634,"SoundDuration":84634,"Delta":23447168},{"NoteNumber":81,"Velocity":77,"Duration":84269,"SoundDuration":84269,"Delta":23531803},{"NoteNumber":63,"Velocity":50,"Duration":168539,"SoundDuration":168539,"Delta":23531803},{"NoteNumber":82,"Velocity":78,"Duration":84269,"SoundDuration":84269,"Delta":23616072},{"NoteNumber":70,"Velocity":53,"Duration":68965,"SoundDuration":68965,"Delta":23700342},{"NoteNumber":53,"Velocity":35,"Duration":330459,"SoundDuration":330459,"Delta":23700342},{"NoteNumber":72,"Velocity":48,"Duration":68965,"SoundDuration":68965,"Delta":23769308},{"NoteNumber":70,"Velocity":45,"Duration":68965,"SoundDuration":68965,"Delta":23838273},{"NoteNumber":62,"Velocity":29,"Duration":172413,"SoundDuration":172413,"Delta":23872756},{"NoteNumber":69,"Velocity":45,"Duration":68965,"SoundDuration":68965,"Delta":23907239},{"NoteNumber":70,"Velocity":45,"Duration":68965,"SoundDuration":68965,"Delta":23976204},{"NoteNumber":63,"Velocity":42,"Duration":375116,"SoundDuration":375116,"Delta":24045170},{"NoteNumber":74,"Velocity":52,"Duration":273765,"SoundDuration":273765,"Delta":24045170},{"NoteNumber":53,"Velocity":35,"Duration":375116,"SoundDuration":375116,"Delta":24045170},{"NoteNumber":57,"Velocity":29,"Duration":202702,"SoundDuration":202702,"Delta":24217583},{"NoteNumber":72,"Velocity":41,"Duration":101351,"SoundDuration":101351,"Delta":24318935},{"NoteNumber":62,"Velocity":42,"Duration":349623,"SoundDuration":349623,"Delta":24420286},{"NoteNumber":70,"Velocity":50,"Duration":349623,"SoundDuration":349623,"Delta":24420286},{"NoteNumber":46,"Velocity":33,"Duration":349623,"SoundDuration":349623,"Delta":24420286},{"NoteNumber":58,"Velocity":39,"Duration":349623,"SoundDuration":349623,"Delta":24420286},{"NoteNumber":65,"Velocity":67,"Duration":689982,"SoundDuration":689982,"Delta":25114737},{"NoteNumber":74,"Velocity":80,"Duration":689982,"SoundDuration":689982,"Delta":25114737},{"NoteNumber":58,"Velocity":50,"Duration":689982,"SoundDuration":689982,"Delta":25114737},{"NoteNumber":62,"Velocity":60,"Duration":689982,"SoundDuration":689982,"Delta":25114737},{"NoteNumber":67,"Velocity":45,"Duration":697629,"SoundDuration":697629,"Delta":25804719},{"NoteNumber":72,"Velocity":53,"Duration":75955,"SoundDuration":75955,"Delta":25804719},{"NoteNumber":51,"Velocity":38,"Duration":1056911,"SoundDuration":1056911,"Delta":25804719},{"NoteNumber":60,"Velocity":45,"Duration":1056911,"SoundDuration":1056911,"Delta":25804719},{"NoteNumber":74,"Velocity":50,"Duration":73959,"SoundDuration":73959,"Delta":25880675},{"NoteNumber":72,"Velocity":53,"Duration":75019,"SoundDuration":75019,"Delta":25954635},{"NoteNumber":74,"Velocity":50,"Duration":74482,"SoundDuration":74482,"Delta":26029655},{"NoteNumber":72,"Velocity":53,"Duration":72857,"SoundDuration":72857,"Delta":26104137},{"NoteNumber":71,"Velocity":49,"Duration":74285,"SoundDuration":74285,"Delta":26176994},{"NoteNumber":72,"Velocity":49,"Duration":72925,"SoundDuration":72925,"Delta":26251280},{"NoteNumber":74,"Velocity":49,"Duration":89820,"SoundDuration":89820,"Delta":26322709},{"NoteNumber":75,"Velocity":50,"Duration":89820,"SoundDuration":89820,"Delta":26412529},{"NoteNumber":67,"Velocity":57,"Duration":359281,"SoundDuration":359281,"Delta":26502349},{"NoteNumber":63,"Velocity":45,"Duration":370370,"SoundDuration":370370,"Delta":26861631},{"NoteNumber":69,"Velocity":54,"Duration":370370,"SoundDuration":370370,"Delta":26861631},{"NoteNumber":53,"Velocity":34,"Duration":370370,"SoundDuration":370370,"Delta":26861631},{"NoteNumber":60,"Velocity":41,"Duration":370370,"SoundDuration":370370,"Delta":26861631},{"NoteNumber":62,"Velocity":47,"Duration":721923,"SoundDuration":721923,"Delta":27232001},{"NoteNumber":70,"Velocity":56,"Duration":350877,"SoundDuration":350877,"Delta":27232001},{"NoteNumber":46,"Velocity":42,"Duration":350877,"SoundDuration":350877,"Delta":27232001},{"NoteNumber":58,"Velocity":50,"Duration":350877,"SoundDuration":350877,"Delta":27232001},{"NoteNumber":65,"Velocity":46,"Duration":186335,"SoundDuration":186335,"Delta":27582878},{"NoteNumber":65,"Velocity":67,"Duration":705649,"SoundDuration":705649,"Delta":27953925},{"NoteNumber":74,"Velocity":80,"Duration":705649,"SoundDuration":705649,"Delta":27953925},{"NoteNumber":58,"Velocity":50,"Duration":705649,"SoundDuration":705649,"Delta":27953925},{"NoteNumber":62,"Velocity":60,"Duration":705649,"SoundDuration":705649,"Delta":27953925},{"NoteNumber":67,"Velocity":45,"Duration":681579,"SoundDuration":681579,"Delta":28659575},{"NoteNumber":72,"Velocity":63,"Duration":175438,"SoundDuration":175438,"Delta":28659575},{"NoteNumber":52,"Velocity":41,"Duration":681579,"SoundDuration":681579,"Delta":28659575},{"NoteNumber":55,"Velocity":41,"Duration":681579,"SoundDuration":681579,"Delta":28659575},{"NoteNumber":74,"Velocity":56,"Duration":54945,"SoundDuration":54945,"Delta":28835014},{"NoteNumber":72,"Velocity":56,"Duration":54945,"SoundDuration":54945,"Delta":28889959},{"NoteNumber":71,"Velocity":56,"Duration":54945,"SoundDuration":54945,"Delta":28944904},{"NoteNumber":72,"Velocity":63,"Duration":253070,"SoundDuration":253070,"Delta":28999849},{"NoteNumber":74,"Velocity":58,"Duration":88235,"SoundDuration":88235,"Delta":29252919},{"NoteNumber":64,"Velocity":45,"Duration":697835,"SoundDuration":697835,"Delta":29341155},{"NoteNumber":70,"Velocity":63,"Duration":176470,"SoundDuration":176470,"Delta":29341155},{"NoteNumber":48,"Velocity":41,"Duration":697835,"SoundDuration":697835,"Delta":29341155},{"NoteNumber":60,"Velocity":41,"Duration":697835,"SoundDuration":697835,"Delta":29341155},{"NoteNumber":72,"Velocity":56,"Duration":55248,"SoundDuration":55248,"Delta":29517625},{"NoteNumber":70,"Velocity":56,"Duration":55248,"SoundDuration":55248,"Delta":29572874},{"NoteNumber":69,"Velocity":56,"Duration":55248,"SoundDuration":55248,"Delta":29628122},{"NoteNumber":70,"Velocity":63,"Duration":260682,"SoundDuration":260682,"Delta":29683371},{"NoteNumber":72,"Velocity":58,"Duration":94936,"SoundDuration":94936,"Delta":29944053},{"NoteNumber":65,"Velocity":47,"Duration":763617,"SoundDuration":763617,"Delta":30038990},{"NoteNumber":70,"Velocity":56,"Duration":394736,"SoundDuration":394736,"Delta":30038990},{"NoteNumber":53,"Velocity":42,"Duration":763617,"SoundDuration":763617,"Delta":30038990},{"NoteNumber":60,"Velocity":50,"Duration":763617,"SoundDuration":763617,"Delta":30038990},{"NoteNumber":69,"Velocity":46,"Duration":185185,"SoundDuration":185185,"Delta":30433727},{"NoteNumber":45,"Velocity":62,"Duration":692049,"SoundDuration":692049,"Delta":30802608},{"NoteNumber":53,"Velocity":52,"Duration":605842,"SoundDuration":605842,"Delta":30888814},{"NoteNumber":57,"Velocity":54,"Duration":519635,"SoundDuration":519635,"Delta":30975021},{"NoteNumber":69,"Velocity":55,"Duration":691063,"SoundDuration":691063,"Delta":31138065},{"NoteNumber":77,"Velocity":64,"Duration":609542,"SoundDuration":609542,"Delta":31219587},{"NoteNumber":81,"Velocity":69,"Duration":528020,"SoundDuration":528020,"Delta":31301108},{"NoteNumber":46,"Velocity":65,"Duration":688598,"SoundDuration":688598,"Delta":31494657},{"NoteNumber":53,"Velocity":54,"Duration":602883,"SoundDuration":602883,"Delta":31580371},{"NoteNumber":57,"Velocity":57,"Duration":517169,"SoundDuration":517169,"Delta":31666085},{"NoteNumber":69,"Velocity":57,"Duration":686742,"SoundDuration":686742,"Delta":31829129},{"NoteNumber":77,"Velocity":68,"Duration":605221,"SoundDuration":605221,"Delta":31910651},{"NoteNumber":81,"Velocity":73,"Duration":523699,"SoundDuration":523699,"Delta":31992172},{"NoteNumber":48,"Velocity":68,"Duration":682279,"SoundDuration":682279,"Delta":32183255},{"NoteNumber":53,"Velocity":57,"Duration":597051,"SoundDuration":597051,"Delta":32268482},{"NoteNumber":57,"Velocity":59,"Duration":511824,"SoundDuration":511824,"Delta":32353710},{"NoteNumber":69,"Velocity":60,"Duration":681316,"SoundDuration":681316,"Delta":32515872},{"NoteNumber":77,"Velocity":71,"Duration":600234,"SoundDuration":600234,"Delta":32596953},{"NoteNumber":81,"Velocity":76,"Duration":519153,"SoundDuration":519153,"Delta":32678034},{"NoteNumber":50,"Velocity":71,"Duration":709643,"SoundDuration":709643,"Delta":32865534},{"NoteNumber":53,"Velocity":59,"Duration":624897,"SoundDuration":624897,"Delta":32950280},{"NoteNumber":57,"Velocity":62,"Duration":540151,"SoundDuration":540151,"Delta":33035026},{"NoteNumber":69,"Velocity":63,"Duration":377989,"SoundDuration":377989,"Delta":33197188},{"NoteNumber":77,"Velocity":74,"Duration":296908,"SoundDuration":296908,"Delta":33278269},{"NoteNumber":81,"Velocity":79,"Duration":215827,"SoundDuration":215827,"Delta":33359350},{"NoteNumber":62,"Velocity":53,"Duration":692937,"SoundDuration":692937,"Delta":33575177},{"NoteNumber":65,"Velocity":53,"Duration":692937,"SoundDuration":692937,"Delta":33575177},{"NoteNumber":69,"Velocity":63,"Duration":361446,"SoundDuration":361446,"Delta":33575177},{"NoteNumber":89,"Velocity":82,"Duration":670474,"SoundDuration":670474,"Delta":33936623},{"NoteNumber":77,"Velocity":69,"Duration":670474,"SoundDuration":670474,"Delta":33936623},{"NoteNumber":71,"Velocity":59,"Duration":670474,"SoundDuration":670474,"Delta":33936623},{"NoteNumber":60,"Velocity":54,"Duration":677965,"SoundDuration":677965,"Delta":34268115},{"NoteNumber":67,"Velocity":64,"Duration":677965,"SoundDuration":677965,"Delta":34268115},{"NoteNumber":88,"Velocity":62,"Duration":169491,"SoundDuration":169491,"Delta":34607098},{"NoteNumber":76,"Velocity":52,"Duration":169491,"SoundDuration":169491,"Delta":34607098},{"NoteNumber":72,"Velocity":58,"Duration":169491,"SoundDuration":169491,"Delta":34607098},{"NoteNumber":58,"Velocity":53,"Duration":719110,"SoundDuration":719110,"Delta":34946081},{"NoteNumber":62,"Velocity":53,"Duration":719110,"SoundDuration":719110,"Delta":34946081},{"NoteNumber":65,"Velocity":63,"Duration":387619,"SoundDuration":387619,"Delta":34946081},{"NoteNumber":86,"Velocity":82,"Duration":670474,"SoundDuration":670474,"Delta":35333700},{"NoteNumber":74,"Velocity":69,"Duration":670474,"SoundDuration":670474,"Delta":35333700},{"NoteNumber":64,"Velocity":50,"Duration":670474,"SoundDuration":670474,"Delta":35333700},{"NoteNumber":67,"Velocity":59,"Duration":670474,"SoundDuration":670474,"Delta":35333700},{"NoteNumber":57,"Velocity":54,"Duration":677965,"SoundDuration":677965,"Delta":35665192},{"NoteNumber":84,"Velocity":62,"Duration":169491,"SoundDuration":169491,"Delta":36004175},{"NoteNumber":72,"Velocity":52,"Duration":169491,"SoundDuration":169491,"Delta":36004175},{"NoteNumber":65,"Velocity":50,"Duration":169491,"SoundDuration":169491,"Delta":36004175},{"NoteNumber":69,"Velocity":58,"Duration":169491,"SoundDuration":169491,"Delta":36004175},{"NoteNumber":55,"Velocity":53,"Duration":704522,"SoundDuration":704522,"Delta":36343158},{"NoteNumber":58,"Velocity":53,"Duration":704522,"SoundDuration":704522,"Delta":36343158},{"NoteNumber":62,"Velocity":63,"Duration":373030,"SoundDuration":373030,"Delta":36343158},{"NoteNumber":82,"Velocity":82,"Duration":501945,"SoundDuration":501945,"Delta":36716189},{"NoteNumber":70,"Velocity":69,"Duration":501945,"SoundDuration":501945,"Delta":36716189},{"NoteNumber":64,"Velocity":59,"Duration":331491,"SoundDuration":331491,"Delta":36716189},{"NoteNumber":60,"Velocity":58,"Duration":340909,"SoundDuration":340909,"Delta":37047680},{"NoteNumber":65,"Velocity":58,"Duration":340909,"SoundDuration":340909,"Delta":37047680},{"NoteNumber":53,"Velocity":58,"Duration":340909,"SoundDuration":340909,"Delta":37047680},{"NoteNumber":69,"Velocity":52,"Duration":338052,"SoundDuration":338052,"Delta":37218135},{"NoteNumber":81,"Velocity":62,"Duration":338052,"SoundDuration":338052,"Delta":37218135},{"NoteNumber":46,"Velocity":45,"Duration":167597,"SoundDuration":167597,"Delta":37388589},{"NoteNumber":58,"Velocity":53,"Duration":167597,"SoundDuration":167597,"Delta":37388589},{"NoteNumber":67,"Velocity":60,"Duration":334264,"SoundDuration":334264,"Delta":37556187},{"NoteNumber":79,"Velocity":60,"Duration":334264,"SoundDuration":334264,"Delta":37556187},{"NoteNumber":48,"Velocity":51,"Duration":166666,"SoundDuration":166666,"Delta":37723785},{"NoteNumber":57,"Velocity":60,"Duration":166666,"SoundDuration":166666,"Delta":37723785},{"NoteNumber":65,"Velocity":52,"Duration":333333,"SoundDuration":333333,"Delta":37890451},{"NoteNumber":77,"Velocity":62,"Duration":333333,"SoundDuration":333333,"Delta":37890451},{"NoteNumber":48,"Velocity":45,"Duration":166666,"SoundDuration":166666,"Delta":38057118},{"NoteNumber":52,"Velocity":54,"Duration":166666,"SoundDuration":166666,"Delta":38057118},{"NoteNumber":67,"Velocity":54,"Duration":211267,"SoundDuration":211267,"Delta":38223785},{"NoteNumber":79,"Velocity":58,"Duration":211267,"SoundDuration":211267,"Delta":38223785},{"NoteNumber":68,"Velocity":56,"Duration":357143,"SoundDuration":357143,"Delta":38435052},{"NoteNumber":80,"Velocity":66,"Duration":357143,"SoundDuration":357143,"Delta":38435052},{"NoteNumber":41,"Velocity":51,"Duration":357143,"SoundDuration":357143,"Delta":38435052},{"NoteNumber":53,"Velocity":60,"Duration":357143,"SoundDuration":357143,"Delta":38435052},{"NoteNumber":69,"Velocity":51,"Duration":357143,"SoundDuration":357143,"Delta":38792195},{"NoteNumber":81,"Velocity":60,"Duration":357143,"SoundDuration":357143,"Delta":38792195},{"NoteNumber":65,"Velocity":57,"Duration":1061446,"SoundDuration":1061446,"Delta":39149338},{"NoteNumber":69,"Velocity":57,"Duration":361446,"SoundDuration":361446,"Delta":39149338},{"NoteNumber":50,"Velocity":58,"Duration":704303,"SoundDuration":704303,"Delta":39149338},{"NoteNumber":53,"Velocity":58,"Duration":361446,"SoundDuration":361446,"Delta":39149338},{"NoteNumber":71,"Velocity":49,"Duration":700000,"SoundDuration":700000,"Delta":39510784},{"NoteNumber":56,"Velocity":52,"Duration":700000,"SoundDuration":700000,"Delta":39510784},{"NoteNumber":48,"Velocity":62,"Duration":714286,"SoundDuration":714286,"Delta":39853641},{"NoteNumber":72,"Velocity":62,"Duration":178571,"SoundDuration":178571,"Delta":40210784},{"NoteNumber":64,"Velocity":52,"Duration":178571,"SoundDuration":178571,"Delta":40210784},{"NoteNumber":57,"Velocity":58,"Duration":178571,"SoundDuration":178571,"Delta":40210784},{"NoteNumber":62,"Velocity":57,"Duration":1061446,"SoundDuration":1061446,"Delta":40567927},{"NoteNumber":65,"Velocity":57,"Duration":361446,"SoundDuration":361446,"Delta":40567927},{"NoteNumber":46,"Velocity":58,"Duration":704303,"SoundDuration":704303,"Delta":40567927},{"NoteNumber":50,"Velocity":58,"Duration":361446,"SoundDuration":361446,"Delta":40567927},{"NoteNumber":67,"Velocity":49,"Duration":342857,"SoundDuration":342857,"Delta":40929373},{"NoteNumber":52,"Velocity":52,"Duration":700000,"SoundDuration":700000,"Delta":40929373},{"NoteNumber":68,"Velocity":53,"Duration":357143,"SoundDuration":357143,"Delta":41272230},{"NoteNumber":45,"Velocity":62,"Duration":714286,"SoundDuration":714286,"Delta":41272230},{"NoteNumber":69,"Velocity":62,"Duration":178571,"SoundDuration":178571,"Delta":41629373},{"NoteNumber":60,"Velocity":52,"Duration":178571,"SoundDuration":178571,"Delta":41629373},{"NoteNumber":53,"Velocity":58,"Duration":178571,"SoundDuration":178571,"Delta":41629373},{"NoteNumber":58,"Velocity":57,"Duration":892857,"SoundDuration":892857,"Delta":41986516},{"NoteNumber":62,"Velocity":57,"Duration":357143,"SoundDuration":357143,"Delta":41986516},{"NoteNumber":43,"Velocity":62,"Duration":714286,"SoundDuration":714286,"Delta":41986516},{"NoteNumber":50,"Velocity":58,"Duration":357143,"SoundDuration":357143,"Delta":41986516},{"NoteNumber":64,"Velocity":49,"Duration":357143,"SoundDuration":357143,"Delta":42343659},{"NoteNumber":49,"Velocity":52,"Duration":535714,"SoundDuration":535714,"Delta":42343659},{"NoteNumber":65,"Velocity":53,"Duration":178571,"SoundDuration":178571,"Delta":42700802},{"NoteNumber":41,"Velocity":62,"Duration":357143,"SoundDuration":357143,"Delta":42700802},{"NoteNumber":57,"Velocity":57,"Duration":357143,"SoundDuration":357143,"Delta":42879374},{"NoteNumber":48,"Velocity":51,"Duration":357143,"SoundDuration":357143,"Delta":42879374},{"NoteNumber":34,"Velocity":57,"Duration":356986,"SoundDuration":356986,"Delta":43057945},{"NoteNumber":55,"Velocity":62,"Duration":354699,"SoundDuration":354699,"Delta":43236517},{"NoteNumber":46,"Velocity":54,"Duration":354699,"SoundDuration":354699,"Delta":43236517},{"NoteNumber":36,"Velocity":59,"Duration":355733,"SoundDuration":355733,"Delta":43414932},{"NoteNumber":53,"Velocity":67,"Duration":361780,"SoundDuration":361780,"Delta":43591216},{"NoteNumber":45,"Velocity":55,"Duration":361780,"SoundDuration":361780,"Delta":43591216},{"NoteNumber":36,"Velocity":62,"Duration":367949,"SoundDuration":367949,"Delta":43770665},{"NoteNumber":52,"Velocity":72,"Duration":185618,"SoundDuration":185618,"Delta":43952996},{"NoteNumber":43,"Velocity":57,"Duration":185618,"SoundDuration":185618,"Delta":43952996},{"NoteNumber":53,"Velocity":70,"Duration":88757,"SoundDuration":88757,"Delta":44138615},{"NoteNumber":29,"Velocity":64,"Duration":345900,"SoundDuration":345900,"Delta":44138615},{"NoteNumber":45,"Velocity":50,"Duration":85714,"SoundDuration":85714,"Delta":44227373},{"NoteNumber":48,"Velocity":50,"Duration":85714,"SoundDuration":85714,"Delta":44313087},{"NoteNumber":53,"Velocity":50,"Duration":85714,"SoundDuration":85714,"Delta":44398801},{"NoteNumber":57,"Velocity":53,"Duration":85714,"SoundDuration":85714,"Delta":44484515},{"NoteNumber":41,"Velocity":46,"Duration":1042856,"SoundDuration":1042856,"Delta":44484515},{"NoteNumber":60,"Velocity":50,"Duration":85714,"SoundDuration":85714,"Delta":44570230},{"NoteNumber":65,"Velocity":50,"Duration":85714,"SoundDuration":85714,"Delta":44655944},{"NoteNumber":69,"Velocity":50,"Duration":85714,"SoundDuration":85714,"Delta":44741658},{"NoteNumber":60,"Velocity":55,"Duration":85714,"SoundDuration":85714,"Delta":44827372},{"NoteNumber":45,"Velocity":46,"Duration":699999,"SoundDuration":699999,"Delta":44827372},{"NoteNumber":65,"Velocity":50,"Duration":85714,"SoundDuration":85714,"Delta":44913087},{"NoteNumber":69,"Velocity":50,"Duration":85714,"SoundDuration":85714,"Delta":44998801},{"NoteNumber":72,"Velocity":50,"Duration":85714,"SoundDuration":85714,"Delta":45084515},{"NoteNumber":65,"Velocity":55,"Duration":85714,"SoundDuration":85714,"Delta":45170229},{"NoteNumber":48,"Velocity":46,"Duration":357142,"SoundDuration":357142,"Delta":45170229},{"NoteNumber":69,"Velocity":50,"Duration":85714,"SoundDuration":85714,"Delta":45255944},{"NoteNumber":72,"Velocity":50,"Duration":85714,"SoundDuration":85714,"Delta":45341658},{"NoteNumber":77,"Velocity":50,"Duration":100000,"SoundDuration":100000,"Delta":45427372},{"NoteNumber":76,"Velocity":74,"Duration":88235,"SoundDuration":88235,"Delta":45527372},{"NoteNumber":41,"Velocity":54,"Duration":1395199,"SoundDuration":1395199,"Delta":45527372},{"NoteNumber":43,"Velocity":54,"Duration":1395199,"SoundDuration":1395199,"Delta":45527372},{"NoteNumber":82,"Velocity":50,"Duration":88235,"SoundDuration":88235,"Delta":45615607},{"NoteNumber":79,"Velocity":50,"Duration":86206,"SoundDuration":86206,"Delta":45703843},{"NoteNumber":76,"Velocity":50,"Duration":86206,"SoundDuration":86206,"Delta":45790049},{"NoteNumber":72,"Velocity":54,"Duration":86206,"SoundDuration":86206,"Delta":45876256},{"NoteNumber":46,"Velocity":47,"Duration":1046314,"SoundDuration":1046314,"Delta":45876256},{"NoteNumber":79,"Velocity":50,"Duration":86206,"SoundDuration":86206,"Delta":45962463},{"NoteNumber":76,"Velocity":50,"Duration":86206,"SoundDuration":86206,"Delta":46048670},{"NoteNumber":72,"Velocity":50,"Duration":86206,"SoundDuration":86206,"Delta":46134877},{"NoteNumber":70,"Velocity":56,"Duration":86206,"SoundDuration":86206,"Delta":46221084},{"NoteNumber":48,"Velocity":47,"Duration":701487,"SoundDuration":701487,"Delta":46221084},{"NoteNumber":76,"Velocity":50,"Duration":86206,"SoundDuration":86206,"Delta":46307291},{"NoteNumber":72,"Velocity":50,"Duration":86206,"SoundDuration":86206,"Delta":46393498},{"NoteNumber":70,"Velocity":50,"Duration":86206,"SoundDuration":86206,"Delta":46479704},{"NoteNumber":67,"Velocity":54,"Duration":86206,"SoundDuration":86206,"Delta":46565911},{"NoteNumber":52,"Velocity":47,"Duration":356659,"SoundDuration":356659,"Delta":46565911},{"NoteNumber":72,"Velocity":50,"Duration":86206,"SoundDuration":86206,"Delta":46652118},{"NoteNumber":70,"Velocity":50,"Duration":86206,"SoundDuration":86206,"Delta":46738325},{"NoteNumber":67,"Velocity":50,"Duration":98039,"SoundDuration":98039,"Delta":46824532},{"NoteNumber":65,"Velocity":70,"Duration":88757,"SoundDuration":88757,"Delta":46922571},{"NoteNumber":41,"Velocity":64,"Duration":345900,"SoundDuration":345900,"Delta":46922571},{"NoteNumber":57,"Velocity":50,"Duration":85714,"SoundDuration":85714,"Delta":47011329},{"NoteNumber":60,"Velocity":50,"Duration":85714,"SoundDuration":85714,"Delta":47097043},{"NoteNumber":65,"Velocity":50,"Duration":85714,"SoundDuration":85714,"Delta":47182757},{"NoteNumber":69,"Velocity":53,"Duration":85714,"SoundDuration":85714,"Delta":47268471},{"NoteNumber":53,"Velocity":46,"Duration":1042856,"SoundDuration":1042856,"Delta":47268471},{"NoteNumber":72,"Velocity":50,"Duration":85714,"SoundDuration":85714,"Delta":47354186},{"NoteNumber":77,"Velocity":50,"Duration":85714,"SoundDuration":85714,"Delta":47439900},{"NoteNumber":81,"Velocity":50,"Duration":85714,"SoundDuration":85714,"Delta":47525614},{"NoteNumber":72,"Velocity":55,"Duration":85714,"SoundDuration":85714,"Delta":47611328},{"NoteNumber":57,"Velocity":46,"Duration":699999,"SoundDuration":699999,"Delta":47611328},{"NoteNumber":77,"Velocity":50,"Duration":85714,"SoundDuration":85714,"Delta":47697043},{"NoteNumber":81,"Velocity":50,"Duration":85714,"SoundDuration":85714,"Delta":47782757},{"NoteNumber":84,"Velocity":50,"Duration":85714,"SoundDuration":85714,"Delta":47868471},{"NoteNumber":77,"Velocity":55,"Duration":85714,"SoundDuration":85714,"Delta":47954185},{"NoteNumber":60,"Velocity":46,"Duration":357142,"SoundDuration":357142,"Delta":47954185},{"NoteNumber":81,"Velocity":50,"Duration":85714,"SoundDuration":85714,"Delta":48039900},{"NoteNumber":84,"Velocity":50,"Duration":85714,"SoundDuration":85714,"Delta":48125614},{"NoteNumber":89,"Velocity":50,"Duration":100000,"SoundDuration":100000,"Delta":48211328},{"NoteNumber":82,"Velocity":74,"Duration":88235,"SoundDuration":88235,"Delta":48311328},{"NoteNumber":53,"Velocity":54,"Duration":1395199,"SoundDuration":1395199,"Delta":48311328},{"NoteNumber":55,"Velocity":54,"Duration":1395199,"SoundDuration":1395199,"Delta":48311328},{"NoteNumber":88,"Velocity":50,"Duration":88235,"SoundDuration":88235,"Delta":48399563},{"NoteNumber":84,"Velocity":50,"Duration":86206,"SoundDuration":86206,"Delta":48487799},{"NoteNumber":82,"Velocity":50,"Duration":86206,"SoundDuration":86206,"Delta":48574005},{"NoteNumber":79,"Velocity":54,"Duration":86206,"SoundDuration":86206,"Delta":48660212},{"NoteNumber":58,"Velocity":47,"Duration":1046314,"SoundDuration":1046314,"Delta":48660212},{"NoteNumber":84,"Velocity":50,"Duration":86206,"SoundDuration":86206,"Delta":48746419},{"NoteNumber":82,"Velocity":50,"Duration":86206,"SoundDuration":86206,"Delta":48832626},{"NoteNumber":79,"Velocity":50,"Duration":86206,"SoundDuration":86206,"Delta":48918833},{"NoteNumber":76,"Velocity":56,"Duration":86206,"SoundDuration":86206,"Delta":49005040},{"NoteNumber":60,"Velocity":47,"Duration":701487,"SoundDuration":701487,"Delta":49005040},{"NoteNumber":82,"Velocity":50,"Duration":86206,"SoundDuration":86206,"Delta":49091247},{"NoteNumber":79,"Velocity":50,"Duration":86206,"SoundDuration":86206,"Delta":49177454},{"NoteNumber":76,"Velocity":50,"Duration":86206,"SoundDuration":86206,"Delta":49263660},{"NoteNumber":70,"Velocity":54,"Duration":86206,"SoundDuration":86206,"Delta":49349867},{"NoteNumber":64,"Velocity":47,"Duration":356659,"SoundDuration":356659,"Delta":49349867},{"NoteNumber":79,"Velocity":50,"Duration":86206,"SoundDuration":86206,"Delta":49436074},{"NoteNumber":76,"Velocity":50,"Duration":86206,"SoundDuration":86206,"Delta":49522281},{"NoteNumber":70,"Velocity":50,"Duration":98039,"SoundDuration":98039,"Delta":49608488},{"NoteNumber":65,"Velocity":77,"Duration":88757,"SoundDuration":88757,"Delta":49706527},{"NoteNumber":41,"Velocity":75,"Duration":345900,"SoundDuration":345900,"Delta":49706527},{"NoteNumber":57,"Velocity":55,"Duration":85714,"SoundDuration":85714,"Delta":49795285},{"NoteNumber":60,"Velocity":55,"Duration":85714,"SoundDuration":85714,"Delta":49880999},{"NoteNumber":65,"Velocity":55,"Duration":85714,"SoundDuration":85714,"Delta":49966713},{"NoteNumber":69,"Velocity":58,"Duration":85714,"SoundDuration":85714,"Delta":50052427},{"NoteNumber":53,"Velocity":57,"Duration":1060966,"SoundDuration":1060966,"Delta":50052427},{"NoteNumber":72,"Velocity":55,"Duration":85714,"SoundDuration":85714,"Delta":50138142},{"NoteNumber":77,"Velocity":55,"Duration":85714,"SoundDuration":85714,"Delta":50223856},{"NoteNumber":81,"Velocity":55,"Duration":85714,"SoundDuration":85714,"Delta":50309570},{"NoteNumber":72,"Velocity":61,"Duration":85714,"SoundDuration":85714,"Delta":50395284},{"NoteNumber":57,"Velocity":57,"Duration":718109,"SoundDuration":718109,"Delta":50395284},{"NoteNumber":77,"Velocity":55,"Duration":85714,"SoundDuration":85714,"Delta":50480999},{"NoteNumber":81,"Velocity":56,"Duration":85714,"SoundDuration":85714,"Delta":50566713},{"NoteNumber":84,"Velocity":56,"Duration":85714,"SoundDuration":85714,"Delta":50652427},{"NoteNumber":77,"Velocity":61,"Duration":85714,"SoundDuration":85714,"Delta":50738141},{"NoteNumber":60,"Velocity":58,"Duration":375253,"SoundDuration":375253,"Delta":50738141},{"NoteNumber":81,"Velocity":56,"Duration":85714,"SoundDuration":85714,"Delta":50823856},{"NoteNumber":84,"Velocity":56,"Duration":85714,"SoundDuration":85714,"Delta":50909570},{"NoteNumber":89,"Velocity":56,"Duration":118110,"SoundDuration":118110,"Delta":50995284},{"NoteNumber":39,"Velocity":82,"Duration":345900,"SoundDuration":345900,"Delta":51113394},{"NoteNumber":57,"Velocity":62,"Duration":85714,"SoundDuration":85714,"Delta":51202152},{"NoteNumber":60,"Velocity":62,"Duration":85714,"SoundDuration":85714,"Delta":51287866},{"NoteNumber":65,"Velocity":62,"Duration":85714,"SoundDuration":85714,"Delta":51373580},{"NoteNumber":69,"Velocity":66,"Duration":85714,"SoundDuration":85714,"Delta":51459294},{"NoteNumber":51,"Velocity":63,"Duration":1062856,"SoundDuration":1062856,"Delta":51459294},{"NoteNumber":72,"Velocity":62,"Duration":85714,"SoundDuration":85714,"Delta":51545009},{"NoteNumber":77,"Velocity":62,"Duration":85714,"SoundDuration":85714,"Delta":51630723},{"NoteNumber":81,"Velocity":62,"Duration":85714,"SoundDuration":85714,"Delta":51716437},{"NoteNumber":72,"Velocity":69,"Duration":85714,"SoundDuration":85714,"Delta":51802151},{"NoteNumber":57,"Velocity":64,"Duration":719999,"SoundDuration":719999,"Delta":51802151},{"NoteNumber":77,"Velocity":63,"Duration":85714,"SoundDuration":85714,"Delta":51887866},{"NoteNumber":81,"Velocity":63,"Duration":85714,"SoundDuration":85714,"Delta":51973580},{"NoteNumber":84,"Velocity":63,"Duration":85714,"SoundDuration":85714,"Delta":52059294},{"NoteNumber":77,"Velocity":69,"Duration":85714,"SoundDuration":85714,"Delta":52145008},{"NoteNumber":60,"Velocity":64,"Duration":377142,"SoundDuration":377142,"Delta":52145008},{"NoteNumber":81,"Velocity":63,"Duration":85714,"SoundDuration":85714,"Delta":52230723},{"NoteNumber":84,"Velocity":63,"Duration":85714,"SoundDuration":85714,"Delta":52316437},{"NoteNumber":89,"Velocity":63,"Duration":119999,"SoundDuration":119999,"Delta":52402151},{"NoteNumber":37,"Velocity":91,"Duration":345900,"SoundDuration":345900,"Delta":52522151},{"NoteNumber":58,"Velocity":63,"Duration":85714,"SoundDuration":85714,"Delta":52610909},{"NoteNumber":61,"Velocity":70,"Duration":85714,"SoundDuration":85714,"Delta":52696623},{"NoteNumber":65,"Velocity":70,"Duration":85714,"SoundDuration":85714,"Delta":52782337},{"NoteNumber":70,"Velocity":73,"Duration":85714,"SoundDuration":85714,"Delta":52868051},{"NoteNumber":49,"Velocity":66,"Duration":1075600,"SoundDuration":1075600,"Delta":52868051},{"NoteNumber":73,"Velocity":70,"Duration":85714,"SoundDuration":85714,"Delta":52953766},{"NoteNumber":77,"Velocity":70,"Duration":85714,"SoundDuration":85714,"Delta":53039480},{"NoteNumber":82,"Velocity":70,"Duration":85714,"SoundDuration":85714,"Delta":53125194},{"NoteNumber":73,"Velocity":77,"Duration":85714,"SoundDuration":85714,"Delta":53210908},{"NoteNumber":53,"Velocity":67,"Duration":732743,"SoundDuration":732743,"Delta":53210908},{"NoteNumber":77,"Velocity":70,"Duration":85714,"SoundDuration":85714,"Delta":53296623},{"NoteNumber":82,"Velocity":70,"Duration":85714,"SoundDuration":85714,"Delta":53382337},{"NoteNumber":85,"Velocity":70,"Duration":85714,"SoundDuration":85714,"Delta":53468051},{"NoteNumber":77,"Velocity":78,"Duration":85714,"SoundDuration":85714,"Delta":53553765},{"NoteNumber":58,"Velocity":67,"Duration":389886,"SoundDuration":389886,"Delta":53553765},{"NoteNumber":82,"Velocity":71,"Duration":85714,"SoundDuration":85714,"Delta":53639480},{"NoteNumber":85,"Velocity":71,"Duration":85714,"SoundDuration":85714,"Delta":53725194},{"NoteNumber":89,"Velocity":71,"Duration":132743,"SoundDuration":132743,"Delta":53810908},{"NoteNumber":76,"Velocity":79,"Duration":87209,"SoundDuration":87209,"Delta":53943651},{"NoteNumber":42,"Velocity":94,"Duration":1403822,"SoundDuration":1403822,"Delta":53943651},{"NoteNumber":88,"Velocity":70,"Duration":86705,"SoundDuration":86705,"Delta":54030861},{"NoteNumber":85,"Velocity":70,"Duration":86705,"SoundDuration":86705,"Delta":54117566},{"NoteNumber":82,"Velocity":70,"Duration":86705,"SoundDuration":86705,"Delta":54204271},{"NoteNumber":76,"Velocity":80,"Duration":86705,"SoundDuration":86705,"Delta":54290976},{"NoteNumber":46,"Velocity":68,"Duration":346821,"SoundDuration":346821,"Delta":54290976},{"NoteNumber":73,"Velocity":68,"Duration":86705,"SoundDuration":86705,"Delta":54377682},{"NoteNumber":70,"Velocity":70,"Duration":86705,"SoundDuration":86705,"Delta":54464387},{"NoteNumber":64,"Velocity":70,"Duration":86705,"SoundDuration":86705,"Delta":54551092},{"NoteNumber":61,"Velocity":79,"Duration":86705,"SoundDuration":86705,"Delta":54637797},{"NoteNumber":49,"Velocity":72,"Duration":346820,"SoundDuration":346820,"Delta":54637797},{"NoteNumber":63,"Velocity":68,"Duration":86705,"SoundDuration":86705,"Delta":54724503},{"NoteNumber":61,"Velocity":69,"Duration":86705,"SoundDuration":86705,"Delta":54811208},{"NoteNumber":60,"Velocity":69,"Duration":86705,"SoundDuration":86705,"Delta":54897913},{"NoteNumber":58,"Velocity":78,"Duration":86705,"SoundDuration":86705,"Delta":54984618},{"NoteNumber":52,"Velocity":75,"Duration":362855,"SoundDuration":362855,"Delta":54984618},{"NoteNumber":61,"Velocity":72,"Duration":86705,"SoundDuration":86705,"Delta":55071324},{"NoteNumber":60,"Velocity":76,"Duration":86705,"SoundDuration":86705,"Delta":55158029},{"NoteNumber":58,"Velocity":81,"Duration":102739,"SoundDuration":102739,"Delta":55244734},{"NoteNumber":57,"Velocity":86,"Duration":348837,"SoundDuration":348837,"Delta":55347474},{"NoteNumber":41,"Velocity":72,"Duration":872092,"SoundDuration":872092,"Delta":55347474},{"NoteNumber":53,"Velocity":84,"Duration":872092,"SoundDuration":872092,"Delta":55347474},{"NoteNumber":48,"Velocity":40,"Duration":182926,"SoundDuration":182926,"Delta":56219566},{"NoteNumber":50,"Velocity":45,"Duration":174418,"SoundDuration":174418,"Delta":56402493},{"NoteNumber":48,"Velocity":41,"Duration":174418,"SoundDuration":174418,"Delta":56576912},{"NoteNumber":46,"Velocity":45,"Duration":174418,"SoundDuration":174418,"Delta":56751330},{"NoteNumber":45,"Velocity":40,"Duration":174418,"SoundDuration":174418,"Delta":56925749},{"NoteNumber":43,"Velocity":43,"Duration":174418,"SoundDuration":174418,"Delta":57100167},{"NoteNumber":41,"Velocity":40,"Duration":145161,"SoundDuration":145161,"Delta":57274586},{"NoteNumber":41,"Velocity":45,"Duration":357345,"SoundDuration":357345,"Delta":57468134},{"NoteNumber":60,"Velocity":40,"Duration":182926,"SoundDuration":182926,"Delta":57642553},{"NoteNumber":62,"Velocity":45,"Duration":174418,"SoundDuration":174418,"Delta":57825479},{"NoteNumber":60,"Velocity":41,"Duration":174418,"SoundDuration":174418,"Delta":57999898},{"NoteNumber":58,"Velocity":45,"Duration":174418,"SoundDuration":174418,"Delta":58174316},{"NoteNumber":57,"Velocity":40,"Duration":174418,"SoundDuration":174418,"Delta":58348735},{"NoteNumber":55,"Velocity":43,"Duration":174418,"SoundDuration":174418,"Delta":58523153},{"NoteNumber":53,"Velocity":40,"Duration":145161,"SoundDuration":145161,"Delta":58697572},{"NoteNumber":53,"Velocity":45,"Duration":357345,"SoundDuration":357345,"Delta":58891120},{"NoteNumber":51,"Velocity":38,"Duration":60975,"SoundDuration":60975,"Delta":59065539},{"NoteNumber":53,"Velocity":40,"Duration":60975,"SoundDuration":60975,"Delta":59126515},{"NoteNumber":51,"Velocity":38,"Duration":60975,"SoundDuration":60975,"Delta":59187490},{"NoteNumber":53,"Velocity":45,"Duration":174418,"SoundDuration":174418,"Delta":59248466},{"NoteNumber":51,"Velocity":41,"Duration":174418,"SoundDuration":174418,"Delta":59422884},{"NoteNumber":50,"Velocity":45,"Duration":174418,"SoundDuration":174418,"Delta":59597303},{"NoteNumber":48,"Velocity":40,"Duration":174418,"SoundDuration":174418,"Delta":59771721},{"NoteNumber":46,"Velocity":43,"Duration":174418,"SoundDuration":174418,"Delta":59946140},{"NoteNumber":45,"Velocity":40,"Duration":145161,"SoundDuration":145161,"Delta":60120558},{"NoteNumber":45,"Velocity":45,"Duration":357345,"SoundDuration":357345,"Delta":60314107},{"NoteNumber":63,"Velocity":38,"Duration":60975,"SoundDuration":60975,"Delta":60488525},{"NoteNumber":65,"Velocity":40,"Duration":60975,"SoundDuration":60975,"Delta":60549501},{"NoteNumber":63,"Velocity":38,"Duration":60975,"SoundDuration":60975,"Delta":60610476},{"NoteNumber":65,"Velocity":45,"Duration":174418,"SoundDuration":174418,"Delta":60671452},{"NoteNumber":63,"Velocity":41,"Duration":174418,"SoundDuration":174418,"Delta":60845870},{"NoteNumber":62,"Velocity":45,"Duration":174418,"SoundDuration":174418,"Delta":61020289},{"NoteNumber":60,"Velocity":40,"Duration":174418,"SoundDuration":174418,"Delta":61194707},{"NoteNumber":58,"Velocity":43,"Duration":174418,"SoundDuration":174418,"Delta":61369126},{"NoteNumber":57,"Velocity":40,"Duration":145161,"SoundDuration":145161,"Delta":61543544},{"NoteNumber":57,"Velocity":45,"Duration":357345,"SoundDuration":357345,"Delta":61737093},{"NoteNumber":60,"Velocity":40,"Duration":182926,"SoundDuration":182926,"Delta":61911511},{"NoteNumber":62,"Velocity":45,"Duration":174418,"SoundDuration":174418,"Delta":62094438},{"NoteNumber":72,"Velocity":44,"Duration":174418,"SoundDuration":174418,"Delta":62268857},{"NoteNumber":60,"Velocity":41,"Duration":174418,"SoundDuration":174418,"Delta":62268857},{"NoteNumber":74,"Velocity":49,"Duration":174418,"SoundDuration":174418,"Delta":62443275},{"NoteNumber":58,"Velocity":45,"Duration":174418,"SoundDuration":174418,"Delta":62443275},{"NoteNumber":72,"Velocity":45,"Duration":174418,"SoundDuration":174418,"Delta":62617694},{"NoteNumber":57,"Velocity":40,"Duration":174418,"SoundDuration":174418,"Delta":62617694},{"NoteNumber":70,"Velocity":49,"Duration":174418,"SoundDuration":174418,"Delta":62792112},{"NoteNumber":55,"Velocity":43,"Duration":174418,"SoundDuration":174418,"Delta":62792112},{"NoteNumber":69,"Velocity":44,"Duration":193548,"SoundDuration":193548,"Delta":62966531},{"NoteNumber":53,"Velocity":40,"Duration":145161,"SoundDuration":145161,"Delta":62966531},{"NoteNumber":67,"Velocity":47,"Duration":174418,"SoundDuration":174418,"Delta":63160079},{"NoteNumber":65,"Velocity":44,"Duration":137195,"SoundDuration":137195,"Delta":63334498},{"NoteNumber":63,"Velocity":40,"Duration":182926,"SoundDuration":182926,"Delta":63334498},{"NoteNumber":65,"Velocity":45,"Duration":174418,"SoundDuration":174418,"Delta":63517424},{"NoteNumber":75,"Velocity":44,"Duration":174418,"SoundDuration":174418,"Delta":63691843},{"NoteNumber":63,"Velocity":41,"Duration":174418,"SoundDuration":174418,"Delta":63691843},{"NoteNumber":77,"Velocity":49,"Duration":174418,"SoundDuration":174418,"Delta":63866261},{"NoteNumber":62,"Velocity":45,"Duration":174418,"SoundDuration":174418,"Delta":63866261},{"NoteNumber":75,"Velocity":45,"Duration":174418,"SoundDuration":174418,"Delta":64040680},{"NoteNumber":60,"Velocity":40,"Duration":174418,"SoundDuration":174418,"Delta":64040680},{"NoteNumber":74,"Velocity":49,"Duration":174418,"SoundDuration":174418,"Delta":64215098},{"NoteNumber":58,"Velocity":43,"Duration":174418,"SoundDuration":174418,"Delta":64215098},{"NoteNumber":72,"Velocity":44,"Duration":174418,"SoundDuration":174418,"Delta":64389517},{"NoteNumber":57,"Velocity":40,"Duration":130813,"SoundDuration":130813,"Delta":64389517},{"NoteNumber":70,"Velocity":47,"Duration":174418,"SoundDuration":174418,"Delta":64563935},{"NoteNumber":69,"Velocity":44,"Duration":182926,"SoundDuration":182926,"Delta":64738354},{"NoteNumber":77,"Velocity":49,"Duration":173410,"SoundDuration":173410,"Delta":64921281},{"NoteNumber":75,"Velocity":47,"Duration":173410,"SoundDuration":173410,"Delta":65094691},{"NoteNumber":74,"Velocity":47,"Duration":173410,"SoundDuration":173410,"Delta":65268102},{"NoteNumber":72,"Velocity":47,"Duration":173410,"SoundDuration":173410,"Delta":65441512},{"NoteNumber":70,"Velocity":44,"Duration":173410,"SoundDuration":173410,"Delta":65614923},{"NoteNumber":69,"Velocity":44,"Duration":179640,"SoundDuration":179640,"Delta":65788333},{"NoteNumber":77,"Velocity":53,"Duration":170454,"SoundDuration":170454,"Delta":65967974},{"NoteNumber":75,"Velocity":49,"Duration":170454,"SoundDuration":170454,"Delta":66138428},{"NoteNumber":74,"Velocity":46,"Duration":170454,"SoundDuration":170454,"Delta":66308883},{"NoteNumber":72,"Velocity":46,"Duration":170454,"SoundDuration":170454,"Delta":66479337},{"NoteNumber":70,"Velocity":49,"Duration":113636,"SoundDuration":113636,"Delta":66649792},{"NoteNumber":69,"Velocity":49,"Duration":117059,"SoundDuration":117059,"Delta":66763428},{"NoteNumber":77,"Velocity":54,"Duration":120481,"SoundDuration":120481,"Delta":66880487},{"NoteNumber":75,"Velocity":49,"Duration":114285,"SoundDuration":114285,"Delta":67000969},{"NoteNumber":74,"Velocity":49,"Duration":114285,"SoundDuration":114285,"Delta":67115255},{"NoteNumber":72,"Velocity":49,"Duration":114285,"SoundDuration":114285,"Delta":67229541},{"NoteNumber":70,"Velocity":49,"Duration":89820,"SoundDuration":89820,"Delta":67343826},{"NoteNumber":69,"Velocity":49,"Duration":89820,"SoundDuration":89820,"Delta":67433647},{"NoteNumber":77,"Velocity":58,"Duration":85714,"SoundDuration":85714,"Delta":67523467},{"NoteNumber":75,"Velocity":50,"Duration":85714,"SoundDuration":85714,"Delta":67609181},{"NoteNumber":74,"Velocity":50,"Duration":85714,"SoundDuration":85714,"Delta":67694896},{"NoteNumber":72,"Velocity":50,"Duration":85714,"SoundDuration":85714,"Delta":67780610},{"NoteNumber":70,"Velocity":50,"Duration":93167,"SoundDuration":93167,"Delta":67866324},{"NoteNumber":69,"Velocity":50,"Duration":93167,"SoundDuration":93167,"Delta":67959492},{"NoteNumber":77,"Velocity":59,"Duration":86206,"SoundDuration":86206,"Delta":68052660},{"NoteNumber":75,"Velocity":52,"Duration":86206,"SoundDuration":86206,"Delta":68138867},{"NoteNumber":74,"Velocity":52,"Duration":86206,"SoundDuration":86206,"Delta":68225073},{"NoteNumber":72,"Velocity":52,"Duration":86206,"SoundDuration":86206,"Delta":68311280},{"NoteNumber":70,"Velocity":52,"Duration":97402,"SoundDuration":97402,"Delta":68397487},{"NoteNumber":69,"Velocity":52,"Duration":97402,"SoundDuration":97402,"Delta":68494890},{"NoteNumber":78,"Velocity":61,"Duration":90431,"SoundDuration":90431,"Delta":68592292},{"NoteNumber":77,"Velocity":55,"Duration":89651,"SoundDuration":89651,"Delta":68682724},{"NoteNumber":75,"Velocity":56,"Duration":70744,"SoundDuration":70744,"Delta":68772375},{"NoteNumber":74,"Velocity":57,"Duration":70082,"SoundDuration":70082,"Delta":68843120},{"NoteNumber":72,"Velocity":58,"Duration":69432,"SoundDuration":69432,"Delta":68913203},{"NoteNumber":70,"Velocity":58,"Duration":74758,"SoundDuration":74758,"Delta":68982635},{"NoteNumber":69,"Velocity":59,"Duration":93023,"SoundDuration":93023,"Delta":69057393},{"NoteNumber":79,"Velocity":50,"Duration":186335,"SoundDuration":186335,"Delta":69150417},{"NoteNumber":77,"Velocity":46,"Duration":175438,"SoundDuration":175438,"Delta":69336752},{"NoteNumber":75,"Velocity":50,"Duration":175438,"SoundDuration":175438,"Delta":69512191},{"NoteNumber":58,"Velocity":42,"Duration":350876,"SoundDuration":350876,"Delta":69512191},{"NoteNumber":74,"Velocity":46,"Duration":175438,"SoundDuration":175438,"Delta":69687629},{"NoteNumber":65,"Velocity":34,"Duration":175438,"SoundDuration":175438,"Delta":69687629},{"NoteNumber":72,"Velocity":46,"Duration":175438,"SoundDuration":175438,"Delta":69863068},{"NoteNumber":62,"Velocity":38,"Duration":350877,"SoundDuration":350877,"Delta":69863068},{"NoteNumber":70,"Velocity":46,"Duration":175438,"SoundDuration":175438,"Delta":70038506},{"NoteNumber":65,"Velocity":34,"Duration":175438,"SoundDuration":175438,"Delta":70038506},{"NoteNumber":69,"Velocity":50,"Duration":350876,"SoundDuration":350876,"Delta":70213945},{"NoteNumber":63,"Velocity":38,"Duration":175438,"SoundDuration":175438,"Delta":70213945},{"NoteNumber":60,"Velocity":38,"Duration":350876,"SoundDuration":350876,"Delta":70213945},{"NoteNumber":65,"Velocity":34,"Duration":175438,"SoundDuration":175438,"Delta":70389383},{"NoteNumber":70,"Velocity":47,"Duration":372806,"SoundDuration":372806,"Delta":70564822},{"NoteNumber":62,"Velocity":37,"Duration":175438,"SoundDuration":175438,"Delta":70564822},{"NoteNumber":58,"Velocity":37,"Duration":372806,"SoundDuration":372806,"Delta":70564822},{"NoteNumber":65,"Velocity":34,"Duration":197368,"SoundDuration":197368,"Delta":70740260},{"NoteNumber":71,"Velocity":53,"Duration":348837,"SoundDuration":348837,"Delta":70937629},{"NoteNumber":57,"Velocity":43,"Duration":1394601,"SoundDuration":1394601,"Delta":70937629},{"NoteNumber":63,"Velocity":43,"Duration":1394601,"SoundDuration":1394601,"Delta":70937629},{"NoteNumber":65,"Velocity":34,"Duration":87209,"SoundDuration":87209,"Delta":71112047},{"NoteNumber":72,"Velocity":49,"Duration":348837,"SoundDuration":348837,"Delta":71286466},{"NoteNumber":65,"Velocity":34,"Duration":87209,"SoundDuration":87209,"Delta":71286466},{"NoteNumber":65,"Velocity":34,"Duration":87209,"SoundDuration":87209,"Delta":71460884},{"NoteNumber":65,"Velocity":37,"Duration":87209,"SoundDuration":87209,"Delta":71635303},{"NoteNumber":78,"Velocity":45,"Duration":179640,"SoundDuration":179640,"Delta":71809721},{"NoteNumber":65,"Velocity":34,"Duration":89820,"SoundDuration":89820,"Delta":71809721},{"NoteNumber":81,"Velocity":50,"Duration":170454,"SoundDuration":170454,"Delta":71989362},{"NoteNumber":65,"Velocity":34,"Duration":85227,"SoundDuration":85227,"Delta":71989362},{"NoteNumber":79,"Velocity":46,"Duration":172413,"SoundDuration":172413,"Delta":72159816},{"NoteNumber":65,"Velocity":34,"Duration":86206,"SoundDuration":86206,"Delta":72159816},{"NoteNumber":77,"Velocity":50,"Duration":173410,"SoundDuration":173410,"Delta":72332230},{"NoteNumber":57,"Velocity":42,"Duration":346821,"SoundDuration":346821,"Delta":72332230},{"NoteNumber":75,"Velocity":44,"Duration":173410,"SoundDuration":173410,"Delta":72505641},{"NoteNumber":65,"Velocity":34,"Duration":173410,"SoundDuration":173410,"Delta":72505641},{"NoteNumber":74,"Velocity":46,"Duration":173410,"SoundDuration":173410,"Delta":72679051},{"NoteNumber":63,"Velocity":38,"Duration":346820,"SoundDuration":346820,"Delta":72679051},{"NoteNumber":72,"Velocity":44,"Duration":173410,"SoundDuration":173410,"Delta":72852462},{"NoteNumber":65,"Velocity":34,"Duration":173410,"SoundDuration":173410,"Delta":72852462},{"NoteNumber":69,"Velocity":50,"Duration":173410,"SoundDuration":173410,"Delta":73025872},{"NoteNumber":62,"Velocity":38,"Duration":346821,"SoundDuration":346821,"Delta":73025872},{"NoteNumber":70,"Velocity":41,"Duration":173410,"SoundDuration":173410,"Delta":73199283},{"NoteNumber":65,"Velocity":34,"Duration":173410,"SoundDuration":173410,"Delta":73199283},{"NoteNumber":71,"Velocity":47,"Duration":173410,"SoundDuration":173410,"Delta":73372693},{"NoteNumber":57,"Velocity":37,"Duration":365718,"SoundDuration":365718,"Delta":73372693},{"NoteNumber":72,"Velocity":44,"Duration":192307,"SoundDuration":192307,"Delta":73546104},{"NoteNumber":65,"Velocity":34,"Duration":192307,"SoundDuration":192307,"Delta":73546104},{"NoteNumber":73,"Velocity":58,"Duration":348837,"SoundDuration":348837,"Delta":73738411},{"NoteNumber":58,"Velocity":47,"Duration":1052815,"SoundDuration":1052815,"Delta":73738411},{"NoteNumber":65,"Velocity":37,"Duration":87209,"SoundDuration":87209,"Delta":73912830},{"NoteNumber":74,"Velocity":53,"Duration":523255,"SoundDuration":523255,"Delta":74087248},{"NoteNumber":65,"Velocity":37,"Duration":87209,"SoundDuration":87209,"Delta":74087248},{"NoteNumber":65,"Velocity":37,"Duration":87209,"SoundDuration":87209,"Delta":74261667},{"NoteNumber":65,"Velocity":41,"Duration":87209,"SoundDuration":87209,"Delta":74436085},{"NoteNumber":77,"Velocity":56,"Duration":180723,"SoundDuration":180723,"Delta":74610504},{"NoteNumber":65,"Velocity":37,"Duration":90361,"SoundDuration":90361,"Delta":74610504},{"NoteNumber":79,"Velocity":64,"Duration":170454,"SoundDuration":170454,"Delta":74791227},{"NoteNumber":59,"Velocity":37,"Duration":344873,"SoundDuration":344873,"Delta":74791227},{"NoteNumber":74,"Velocity":58,"Duration":174418,"SoundDuration":174418,"Delta":74961681},{"NoteNumber":65,"Velocity":38,"Duration":87209,"SoundDuration":87209,"Delta":74961681},{"NoteNumber":77,"Velocity":62,"Duration":174418,"SoundDuration":174418,"Delta":75136100},{"NoteNumber":60,"Velocity":47,"Duration":348837,"SoundDuration":348837,"Delta":75136100},{"NoteNumber":75,"Velocity":58,"Duration":174418,"SoundDuration":174418,"Delta":75310518},{"NoteNumber":65,"Velocity":38,"Duration":174418,"SoundDuration":174418,"Delta":75310518},{"NoteNumber":77,"Velocity":64,"Duration":174418,"SoundDuration":174418,"Delta":75484937},{"NoteNumber":57,"Velocity":42,"Duration":348836,"SoundDuration":348836,"Delta":75484937},{"NoteNumber":72,"Velocity":58,"Duration":174418,"SoundDuration":174418,"Delta":75659355},{"NoteNumber":65,"Velocity":38,"Duration":174418,"SoundDuration":174418,"Delta":75659355},{"NoteNumber":75,"Velocity":64,"Duration":174418,"SoundDuration":174418,"Delta":75833774},{"NoteNumber":58,"Velocity":47,"Duration":348837,"SoundDuration":348837,"Delta":75833774},{"NoteNumber":74,"Velocity":59,"Duration":174418,"SoundDuration":174418,"Delta":76008192},{"NoteNumber":65,"Velocity":38,"Duration":174418,"SoundDuration":174418,"Delta":76008192},{"NoteNumber":79,"Velocity":67,"Duration":174418,"SoundDuration":174418,"Delta":76182611},{"NoteNumber":59,"Velocity":43,"Duration":356236,"SoundDuration":356236,"Delta":76182611},{"NoteNumber":74,"Velocity":59,"Duration":181818,"SoundDuration":181818,"Delta":76357029},{"NoteNumber":65,"Velocity":38,"Duration":181818,"SoundDuration":181818,"Delta":76357029},{"NoteNumber":77,"Velocity":71,"Duration":174418,"SoundDuration":174418,"Delta":76538848},{"NoteNumber":60,"Velocity":54,"Duration":348837,"SoundDuration":348837,"Delta":76538848},{"NoteNumber":75,"Velocity":64,"Duration":174418,"SoundDuration":174418,"Delta":76713266},{"NoteNumber":65,"Velocity":39,"Duration":174418,"SoundDuration":174418,"Delta":76713266},{"NoteNumber":77,"Velocity":71,"Duration":174418,"SoundDuration":174418,"Delta":76887685},{"NoteNumber":57,"Velocity":48,"Duration":348837,"SoundDuration":348837,"Delta":76887685},{"NoteNumber":72,"Velocity":62,"Duration":174418,"SoundDuration":174418,"Delta":77062103},{"NoteNumber":65,"Velocity":39,"Duration":174418,"SoundDuration":174418,"Delta":77062103},{"NoteNumber":74,"Velocity":70,"Duration":174418,"SoundDuration":174418,"Delta":77236522},{"NoteNumber":58,"Velocity":55,"Duration":345846,"SoundDuration":345846,"Delta":77236522},{"NoteNumber":75,"Velocity":60,"Duration":171428,"SoundDuration":171428,"Delta":77410940},{"NoteNumber":62,"Velocity":40,"Duration":171428,"SoundDuration":171428,"Delta":77410940},{"NoteNumber":76,"Velocity":62,"Duration":171428,"SoundDuration":171428,"Delta":77582369},{"NoteNumber":57,"Velocity":49,"Duration":342856,"SoundDuration":342856,"Delta":77582369},{"NoteNumber":77,"Velocity":64,"Duration":171428,"SoundDuration":171428,"Delta":77753797},{"NoteNumber":60,"Velocity":44,"Duration":171428,"SoundDuration":171428,"Delta":77753797},{"NoteNumber":78,"Velocity":70,"Duration":172413,"SoundDuration":172413,"Delta":77925226},{"NoteNumber":55,"Velocity":60,"Duration":330459,"SoundDuration":330459,"Delta":77925226},{"NoteNumber":79,"Velocity":66,"Duration":172413,"SoundDuration":172413,"Delta":78097639},{"NoteNumber":58,"Velocity":43,"Duration":172413,"SoundDuration":172413,"Delta":78097639},{"NoteNumber":81,"Velocity":69,"Duration":172413,"SoundDuration":172413,"Delta":78270053},{"NoteNumber":55,"Velocity":50,"Duration":344827,"SoundDuration":344827,"Delta":78270053},{"NoteNumber":82,"Velocity":70,"Duration":172413,"SoundDuration":172413,"Delta":78442467},{"NoteNumber":58,"Velocity":42,"Duration":172413,"SoundDuration":172413,"Delta":78442467},{"NoteNumber":84,"Velocity":71,"Duration":173410,"SoundDuration":173410,"Delta":78614881},{"NoteNumber":48,"Velocity":57,"Duration":332370,"SoundDuration":332370,"Delta":78614881},{"NoteNumber":85,"Velocity":76,"Duration":173410,"SoundDuration":173410,"Delta":78788291},{"NoteNumber":58,"Velocity":40,"Duration":173410,"SoundDuration":173410,"Delta":78788291},{"NoteNumber":86,"Velocity":81,"Duration":173410,"SoundDuration":173410,"Delta":78961702},{"NoteNumber":48,"Velocity":44,"Duration":373410,"SoundDuration":373410,"Delta":78961702},{"NoteNumber":76,"Velocity":64,"Duration":200000,"SoundDuration":200000,"Delta":79135112},{"NoteNumber":58,"Velocity":40,"Duration":200000,"SoundDuration":200000,"Delta":79135112},{"NoteNumber":79,"Velocity":58,"Duration":346821,"SoundDuration":346821,"Delta":79335112},{"NoteNumber":53,"Velocity":43,"Duration":1073948,"SoundDuration":1073948,"Delta":79335112},{"NoteNumber":58,"Velocity":29,"Duration":173410,"SoundDuration":173410,"Delta":79508523},{"NoteNumber":77,"Velocity":53,"Duration":346820,"SoundDuration":346820,"Delta":79681933},{"NoteNumber":57,"Velocity":35,"Duration":173410,"SoundDuration":173410,"Delta":79681933},{"NoteNumber":55,"Velocity":29,"Duration":173410,"SoundDuration":173410,"Delta":79855344},{"NoteNumber":57,"Velocity":34,"Duration":380307,"SoundDuration":380307,"Delta":80028754},{"NoteNumber":65,"Velocity":38,"Duration":206896,"SoundDuration":206896,"Delta":80202165},{"NoteNumber":77,"Velocity":45,"Duration":206896,"SoundDuration":206896,"Delta":80202165},{"NoteNumber":67,"Velocity":42,"Duration":175438,"SoundDuration":175438,"Delta":80409061},{"NoteNumber":79,"Velocity":50,"Duration":175438,"SoundDuration":175438,"Delta":80409061},{"NoteNumber":65,"Velocity":39,"Duration":175438,"SoundDuration":175438,"Delta":80584500},{"NoteNumber":77,"Velocity":46,"Duration":175438,"SoundDuration":175438,"Delta":80584500},{"NoteNumber":63,"Velocity":42,"Duration":175438,"SoundDuration":175438,"Delta":80759938},{"NoteNumber":75,"Velocity":50,"Duration":175438,"SoundDuration":175438,"Delta":80759938},{"NoteNumber":46,"Velocity":42,"Duration":350876,"SoundDuration":350876,"Delta":80759938},{"NoteNumber":62,"Velocity":39,"Duration":175438,"SoundDuration":175438,"Delta":80935377},{"NoteNumber":74,"Velocity":46,"Duration":175438,"SoundDuration":175438,"Delta":80935377},{"NoteNumber":53,"Velocity":34,"Duration":175438,"SoundDuration":175438,"Delta":80935377},{"NoteNumber":60,"Velocity":39,"Duration":175438,"SoundDuration":175438,"Delta":81110815},{"NoteNumber":72,"Velocity":46,"Duration":175438,"SoundDuration":175438,"Delta":81110815},{"NoteNumber":50,"Velocity":38,"Duration":350877,"SoundDuration":350877,"Delta":81110815},{"NoteNumber":58,"Velocity":39,"Duration":175438,"SoundDuration":175438,"Delta":81286254},{"NoteNumber":70,"Velocity":46,"Duration":175438,"SoundDuration":175438,"Delta":81286254},{"NoteNumber":53,"Velocity":34,"Duration":175438,"SoundDuration":175438,"Delta":81286254},{"NoteNumber":57,"Velocity":42,"Duration":350876,"SoundDuration":350876,"Delta":81461692},{"NoteNumber":69,"Velocity":42,"Duration":350876,"SoundDuration":350876,"Delta":81461692},{"NoteNumber":51,"Velocity":38,"Duration":175438,"SoundDuration":175438,"Delta":81461692},{"NoteNumber":48,"Velocity":38,"Duration":350876,"SoundDuration":350876,"Delta":81461692},{"NoteNumber":53,"Velocity":34,"Duration":175438,"SoundDuration":175438,"Delta":81637131},{"NoteNumber":58,"Velocity":39,"Duration":372806,"SoundDuration":372806,"Delta":81812569},{"NoteNumber":70,"Velocity":47,"Duration":372806,"SoundDuration":372806,"Delta":81812569},{"NoteNumber":50,"Velocity":37,"Duration":175438,"SoundDuration":175438,"Delta":81812569},{"NoteNumber":46,"Velocity":37,"Duration":372806,"SoundDuration":372806,"Delta":81812569},{"NoteNumber":53,"Velocity":34,"Duration":197368,"SoundDuration":197368,"Delta":81988008},{"NoteNumber":59,"Velocity":45,"Duration":348837,"SoundDuration":348837,"Delta":82185376},{"NoteNumber":71,"Velocity":53,"Duration":348837,"SoundDuration":348837,"Delta":82185376},{"NoteNumber":45,"Velocity":43,"Duration":1396779,"SoundDuration":1396779,"Delta":82185376},{"NoteNumber":51,"Velocity":43,"Duration":1396779,"SoundDuration":1396779,"Delta":82185376},{"NoteNumber":53,"Velocity":34,"Duration":87209,"SoundDuration":87209,"Delta":82359795},{"NoteNumber":60,"Velocity":41,"Duration":523255,"SoundDuration":523255,"Delta":82534213},{"NoteNumber":72,"Velocity":49,"Duration":523255,"SoundDuration":523255,"Delta":82534213},{"NoteNumber":53,"Velocity":34,"Duration":87209,"SoundDuration":87209,"Delta":82534213},{"NoteNumber":53,"Velocity":34,"Duration":87209,"SoundDuration":87209,"Delta":82708632},{"NoteNumber":53,"Velocity":37,"Duration":87209,"SoundDuration":87209,"Delta":82883050},{"NoteNumber":66,"Velocity":38,"Duration":181818,"SoundDuration":181818,"Delta":83057469},{"NoteNumber":78,"Velocity":45,"Duration":181818,"SoundDuration":181818,"Delta":83057469},{"NoteNumber":53,"Velocity":34,"Duration":90909,"SoundDuration":90909,"Delta":83057469},{"NoteNumber":69,"Velocity":42,"Duration":170454,"SoundDuration":170454,"Delta":83239287},{"NoteNumber":81,"Velocity":50,"Duration":170454,"SoundDuration":170454,"Delta":83239287},{"NoteNumber":53,"Velocity":34,"Duration":85227,"SoundDuration":85227,"Delta":83239287},{"NoteNumber":67,"Velocity":39,"Duration":172413,"SoundDuration":172413,"Delta":83409741},{"NoteNumber":79,"Velocity":46,"Duration":172413,"SoundDuration":172413,"Delta":83409741},{"NoteNumber":53,"Velocity":34,"Duration":86206,"SoundDuration":86206,"Delta":83409741},{"NoteNumber":65,"Velocity":42,"Duration":173410,"SoundDuration":173410,"Delta":83582155},{"NoteNumber":77,"Velocity":50,"Duration":173410,"SoundDuration":173410,"Delta":83582155},{"NoteNumber":45,"Velocity":42,"Duration":346821,"SoundDuration":346821,"Delta":83582155},{"NoteNumber":63,"Velocity":43,"Duration":173410,"SoundDuration":173410,"Delta":83755566},{"NoteNumber":75,"Velocity":43,"Duration":173410,"SoundDuration":173410,"Delta":83755566},{"NoteNumber":53,"Velocity":34,"Duration":173410,"SoundDuration":173410,"Delta":83755566},{"NoteNumber":62,"Velocity":39,"Duration":173410,"SoundDuration":173410,"Delta":83928976},{"NoteNumber":74,"Velocity":46,"Duration":173410,"SoundDuration":173410,"Delta":83928976},{"NoteNumber":51,"Velocity":38,"Duration":346820,"SoundDuration":346820,"Delta":83928976},{"NoteNumber":60,"Velocity":43,"Duration":173410,"SoundDuration":173410,"Delta":84102387},{"NoteNumber":72,"Velocity":43,"Duration":173410,"SoundDuration":173410,"Delta":84102387},{"NoteNumber":53,"Velocity":34,"Duration":173410,"SoundDuration":173410,"Delta":84102387},{"NoteNumber":57,"Velocity":42,"Duration":173410,"SoundDuration":173410,"Delta":84275797},{"NoteNumber":69,"Velocity":50,"Duration":173410,"SoundDuration":173410,"Delta":84275797},{"NoteNumber":50,"Velocity":38,"Duration":346821,"SoundDuration":346821,"Delta":84275797},{"NoteNumber":58,"Velocity":44,"Duration":173410,"SoundDuration":173410,"Delta":84449208},{"NoteNumber":70,"Velocity":44,"Duration":173410,"SoundDuration":173410,"Delta":84449208},{"NoteNumber":53,"Velocity":34,"Duration":173410,"SoundDuration":173410,"Delta":84449208},{"NoteNumber":59,"Velocity":39,"Duration":173410,"SoundDuration":173410,"Delta":84622618},{"NoteNumber":71,"Velocity":47,"Duration":173410,"SoundDuration":173410,"Delta":84622618},{"NoteNumber":45,"Velocity":37,"Duration":365718,"SoundDuration":365718,"Delta":84622618},{"NoteNumber":60,"Velocity":45,"Duration":192307,"SoundDuration":192307,"Delta":84796029},{"NoteNumber":72,"Velocity":45,"Duration":192307,"SoundDuration":192307,"Delta":84796029},{"NoteNumber":53,"Velocity":34,"Duration":192307,"SoundDuration":192307,"Delta":84796029},{"NoteNumber":61,"Velocity":45,"Duration":348837,"SoundDuration":348837,"Delta":84988336},{"NoteNumber":73,"Velocity":53,"Duration":348837,"SoundDuration":348837,"Delta":84988336},{"NoteNumber":46,"Velocity":43,"Duration":1052815,"SoundDuration":1052815,"Delta":84988336},{"NoteNumber":53,"Velocity":34,"Duration":87209,"SoundDuration":87209,"Delta":85162755},{"NoteNumber":62,"Velocity":41,"Duration":523255,"SoundDuration":523255,"Delta":85337173},{"NoteNumber":74,"Velocity":49,"Duration":523255,"SoundDuration":523255,"Delta":85337173},{"NoteNumber":53,"Velocity":34,"Duration":87209,"SoundDuration":87209,"Delta":85337173},{"NoteNumber":53,"Velocity":34,"Duration":87209,"SoundDuration":87209,"Delta":85511592},{"NoteNumber":53,"Velocity":37,"Duration":87209,"SoundDuration":87209,"Delta":85686010},{"NoteNumber":77,"Velocity":56,"Duration":180723,"SoundDuration":180723,"Delta":85860429},{"NoteNumber":53,"Velocity":37,"Duration":90361,"SoundDuration":90361,"Delta":85860429},{"NoteNumber":68,"Velocity":45,"Duration":693710,"SoundDuration":693710,"Delta":86041152},{"NoteNumber":79,"Velocity":63,"Duration":170454,"SoundDuration":170454,"Delta":86041152},{"NoteNumber":47,"Velocity":37,"Duration":344873,"SoundDuration":344873,"Delta":86041152},{"NoteNumber":74,"Velocity":57,"Duration":174418,"SoundDuration":174418,"Delta":86211606},{"NoteNumber":53,"Velocity":37,"Duration":87209,"SoundDuration":87209,"Delta":86211606},{"NoteNumber":77,"Velocity":62,"Duration":174418,"SoundDuration":174418,"Delta":86386025},{"NoteNumber":48,"Velocity":46,"Duration":348837,"SoundDuration":348837,"Delta":86386025},{"NoteNumber":75,"Velocity":58,"Duration":174418,"SoundDuration":174418,"Delta":86560443},{"NoteNumber":53,"Velocity":38,"Duration":174418,"SoundDuration":174418,"Delta":86560443},{"NoteNumber":69,"Velocity":45,"Duration":348836,"SoundDuration":348836,"Delta":86734862},{"NoteNumber":77,"Velocity":63,"Duration":174418,"SoundDuration":174418,"Delta":86734862},{"NoteNumber":41,"Velocity":42,"Duration":348836,"SoundDuration":348836,"Delta":86734862},{"NoteNumber":72,"Velocity":58,"Duration":174418,"SoundDuration":174418,"Delta":86909280},{"NoteNumber":53,"Velocity":38,"Duration":174418,"SoundDuration":174418,"Delta":86909280},{"NoteNumber":70,"Velocity":46,"Duration":348837,"SoundDuration":348837,"Delta":87083699},{"NoteNumber":75,"Velocity":64,"Duration":174418,"SoundDuration":174418,"Delta":87083699},{"NoteNumber":46,"Velocity":47,"Duration":348837,"SoundDuration":348837,"Delta":87083699},{"NoteNumber":74,"Velocity":59,"Duration":174418,"SoundDuration":174418,"Delta":87258117},{"NoteNumber":53,"Velocity":38,"Duration":174418,"SoundDuration":174418,"Delta":87258117},{"NoteNumber":68,"Velocity":46,"Duration":705073,"SoundDuration":705073,"Delta":87432536},{"NoteNumber":79,"Velocity":67,"Duration":174418,"SoundDuration":174418,"Delta":87432536},{"NoteNumber":47,"Velocity":43,"Duration":356236,"SoundDuration":356236,"Delta":87432536},{"NoteNumber":74,"Velocity":59,"Duration":181818,"SoundDuration":181818,"Delta":87606954},{"NoteNumber":53,"Velocity":39,"Duration":181818,"SoundDuration":181818,"Delta":87606954},{"NoteNumber":77,"Velocity":71,"Duration":174418,"SoundDuration":174418,"Delta":87788773},{"NoteNumber":48,"Velocity":54,"Duration":348837,"SoundDuration":348837,"Delta":87788773},{"NoteNumber":75,"Velocity":64,"Duration":174418,"SoundDuration":174418,"Delta":87963191},{"NoteNumber":53,"Velocity":39,"Duration":174418,"SoundDuration":174418,"Delta":87963191},{"NoteNumber":69,"Velocity":47,"Duration":348837,"SoundDuration":348837,"Delta":88137610},{"NoteNumber":77,"Velocity":71,"Duration":174418,"SoundDuration":174418,"Delta":88137610},{"NoteNumber":41,"Velocity":48,"Duration":348837,"SoundDuration":348837,"Delta":88137610},{"NoteNumber":72,"Velocity":63,"Duration":174418,"SoundDuration":174418,"Delta":88312028},{"NoteNumber":53,"Velocity":39,"Duration":174418,"SoundDuration":174418,"Delta":88312028},{"NoteNumber":70,"Velocity":59,"Duration":174418,"SoundDuration":174418,"Delta":88486447},{"NoteNumber":75,"Velocity":71,"Duration":174418,"SoundDuration":174418,"Delta":88486447},{"NoteNumber":46,"Velocity":56,"Duration":345846,"SoundDuration":345846,"Delta":88486447},{"NoteNumber":62,"Velocity":53,"Duration":171428,"SoundDuration":171428,"Delta":88660865},{"NoteNumber":74,"Velocity":63,"Duration":171428,"SoundDuration":171428,"Delta":88660865},{"NoteNumber":53,"Velocity":41,"Duration":171428,"SoundDuration":171428,"Delta":88660865},{"NoteNumber":63,"Velocity":56,"Duration":171428,"SoundDuration":171428,"Delta":88832294},{"NoteNumber":75,"Velocity":67,"Duration":171428,"SoundDuration":171428,"Delta":88832294},{"NoteNumber":44,"Velocity":50,"Duration":342856,"SoundDuration":342856,"Delta":88832294},{"NoteNumber":65,"Velocity":60,"Duration":171428,"SoundDuration":171428,"Delta":89003722},{"NoteNumber":77,"Velocity":71,"Duration":171428,"SoundDuration":171428,"Delta":89003722},{"NoteNumber":46,"Velocity":45,"Duration":171428,"SoundDuration":171428,"Delta":89003722},{"NoteNumber":66,"Velocity":64,"Duration":172413,"SoundDuration":172413,"Delta":89175151},{"NoteNumber":78,"Velocity":76,"Duration":172413,"SoundDuration":172413,"Delta":89175151},{"NoteNumber":43,"Velocity":62,"Duration":330459,"SoundDuration":330459,"Delta":89175151},{"NoteNumber":67,"Velocity":61,"Duration":172413,"SoundDuration":172413,"Delta":89347564},{"NoteNumber":79,"Velocity":72,"Duration":172413,"SoundDuration":172413,"Delta":89347564},{"NoteNumber":46,"Velocity":51,"Duration":172413,"SoundDuration":172413,"Delta":89347564},{"NoteNumber":69,"Velocity":64,"Duration":86206,"SoundDuration":86206,"Delta":89519978},{"NoteNumber":81,"Velocity":76,"Duration":86206,"SoundDuration":86206,"Delta":89519978},{"NoteNumber":39,"Velocity":58,"Duration":371089,"SoundDuration":371089,"Delta":89519978},{"NoteNumber":70,"Velocity":67,"Duration":99337,"SoundDuration":99337,"Delta":89692392},{"NoteNumber":82,"Velocity":80,"Duration":99337,"SoundDuration":99337,"Delta":89692392},{"NoteNumber":51,"Velocity":51,"Duration":198675,"SoundDuration":198675,"Delta":89692392},{"NoteNumber":58,"Velocity":71,"Duration":346821,"SoundDuration":346821,"Delta":89891067},{"NoteNumber":70,"Velocity":71,"Duration":346821,"SoundDuration":346821,"Delta":89891067},{"NoteNumber":41,"Velocity":56,"Duration":332370,"SoundDuration":332370,"Delta":89891067},{"NoteNumber":50,"Velocity":42,"Duration":173410,"SoundDuration":173410,"Delta":90064478},{"NoteNumber":60,"Velocity":58,"Duration":373410,"SoundDuration":373410,"Delta":90237888},{"NoteNumber":72,"Velocity":69,"Duration":373410,"SoundDuration":373410,"Delta":90237888},{"NoteNumber":41,"Velocity":49,"Duration":373410,"SoundDuration":373410,"Delta":90237888},{"NoteNumber":45,"Velocity":43,"Duration":200000,"SoundDuration":200000,"Delta":90411299},{"NoteNumber":61,"Velocity":41,"Duration":346821,"SoundDuration":346821,"Delta":90611299},{"NoteNumber":73,"Velocity":49,"Duration":346821,"SoundDuration":346821,"Delta":90611299},{"NoteNumber":34,"Velocity":43,"Duration":173410,"SoundDuration":173410,"Delta":90611299},{"NoteNumber":46,"Velocity":29,"Duration":880080,"SoundDuration":880080,"Delta":90784709},{"NoteNumber":62,"Velocity":38,"Duration":443285,"SoundDuration":443285,"Delta":90958120},{"NoteNumber":74,"Velocity":45,"Duration":443285,"SoundDuration":443285,"Delta":90958120},{"NoteNumber":58,"Velocity":35,"Duration":88038,"SoundDuration":88038,"Delta":90958120},{"NoteNumber":58,"Velocity":29,"Duration":88968,"SoundDuration":88968,"Delta":91135444},{"NoteNumber":58,"Velocity":40,"Duration":88235,"SoundDuration":88235,"Delta":91313170},{"NoteNumber":70,"Velocity":59,"Duration":88192,"SoundDuration":88192,"Delta":91401406},{"NoteNumber":69,"Velocity":61,"Duration":87719,"SoundDuration":87719,"Delta":91489598},{"NoteNumber":58,"Velocity":35,"Duration":87719,"SoundDuration":87719,"Delta":91489598},{"NoteNumber":70,"Velocity":62,"Duration":87472,"SoundDuration":87472,"Delta":91577317},{"NoteNumber":71,"Velocity":62,"Duration":87209,"SoundDuration":87209,"Delta":91664790},{"NoteNumber":56,"Velocity":43,"Duration":346902,"SoundDuration":346902,"Delta":91664790},{"NoteNumber":72,"Velocity":64,"Duration":86764,"SoundDuration":86764,"Delta":91751999},{"NoteNumber":73,"Velocity":65,"Duration":86705,"SoundDuration":86705,"Delta":91838763},{"NoteNumber":58,"Velocity":39,"Duration":172928,"SoundDuration":172928,"Delta":91838763},{"NoteNumber":74,"Velocity":67,"Duration":86223,"SoundDuration":86223,"Delta":91925468},{"NoteNumber":75,"Velocity":69,"Duration":86026,"SoundDuration":86026,"Delta":92011692},{"NoteNumber":55,"Velocity":52,"Duration":342470,"SoundDuration":342470,"Delta":92011692},{"NoteNumber":76,"Velocity":70,"Duration":85714,"SoundDuration":85714,"Delta":92097718},{"NoteNumber":77,"Velocity":71,"Duration":85503,"SoundDuration":85503,"Delta":92183432},{"NoteNumber":58,"Velocity":46,"Duration":170730,"SoundDuration":170730,"Delta":92183432},{"NoteNumber":78,"Velocity":73,"Duration":85227,"SoundDuration":85227,"Delta":92268936},{"NoteNumber":79,"Velocity":74,"Duration":84826,"SoundDuration":84826,"Delta":92354163},{"NoteNumber":51,"Velocity":56,"Duration":337999,"SoundDuration":337999,"Delta":92354163},{"NoteNumber":80,"Velocity":76,"Duration":84634,"SoundDuration":84634,"Delta":92438989},{"NoteNumber":81,"Velocity":78,"Duration":84269,"SoundDuration":84269,"Delta":92523623},{"NoteNumber":63,"Velocity":51,"Duration":168539,"SoundDuration":168539,"Delta":92523623},{"NoteNumber":82,"Velocity":78,"Duration":84269,"SoundDuration":84269,"Delta":92607893},{"NoteNumber":70,"Velocity":53,"Duration":68965,"SoundDuration":68965,"Delta":92692163},{"NoteNumber":53,"Velocity":35,"Duration":330459,"SoundDuration":330459,"Delta":92692163},{"NoteNumber":72,"Velocity":48,"Duration":68965,"SoundDuration":68965,"Delta":92761128},{"NoteNumber":70,"Velocity":45,"Duration":68965,"SoundDuration":68965,"Delta":92830094},{"NoteNumber":62,"Velocity":29,"Duration":172413,"SoundDuration":172413,"Delta":92864576},{"NoteNumber":69,"Velocity":45,"Duration":68965,"SoundDuration":68965,"Delta":92899059},{"NoteNumber":70,"Velocity":45,"Duration":68965,"SoundDuration":68965,"Delta":92968025},{"NoteNumber":63,"Velocity":42,"Duration":375116,"SoundDuration":375116,"Delta":93036990},{"NoteNumber":74,"Velocity":52,"Duration":273765,"SoundDuration":273765,"Delta":93036990},{"NoteNumber":53,"Velocity":35,"Duration":375116,"SoundDuration":375116,"Delta":93036990},{"NoteNumber":57,"Velocity":29,"Duration":202702,"SoundDuration":202702,"Delta":93209404},{"NoteNumber":72,"Velocity":41,"Duration":101351,"SoundDuration":101351,"Delta":93310755},{"NoteNumber":62,"Velocity":42,"Duration":349623,"SoundDuration":349623,"Delta":93412107},{"NoteNumber":70,"Velocity":50,"Duration":349623,"SoundDuration":349623,"Delta":93412107},{"NoteNumber":46,"Velocity":33,"Duration":349623,"SoundDuration":349623,"Delta":93412107},{"NoteNumber":58,"Velocity":39,"Duration":349623,"SoundDuration":349623,"Delta":93412107},{"NoteNumber":53,"Velocity":79,"Duration":700241,"SoundDuration":700241,"Delta":94106557},{"NoteNumber":61,"Velocity":96,"Duration":700241,"SoundDuration":700241,"Delta":94106557},{"NoteNumber":46,"Velocity":59,"Duration":700241,"SoundDuration":700241,"Delta":94106557},{"NoteNumber":49,"Velocity":71,"Duration":700241,"SoundDuration":700241,"Delta":94106557},{"NoteNumber":54,"Velocity":85,"Duration":698426,"SoundDuration":698426,"Delta":94806799},{"NoteNumber":59,"Velocity":96,"Duration":524007,"SoundDuration":524007,"Delta":94806799},{"NoteNumber":39,"Velocity":53,"Duration":1053455,"SoundDuration":1053455,"Delta":94806799},{"NoteNumber":47,"Velocity":64,"Duration":524007,"SoundDuration":524007,"Delta":94806799},{"NoteNumber":61,"Velocity":70,"Duration":87209,"SoundDuration":87209,"Delta":95330807},{"NoteNumber":49,"Velocity":64,"Duration":87209,"SoundDuration":87209,"Delta":95330807},{"NoteNumber":63,"Velocity":71,"Duration":87209,"SoundDuration":87209,"Delta":95418016},{"NoteNumber":51,"Velocity":64,"Duration":87209,"SoundDuration":87209,"Delta":95418016},{"NoteNumber":54,"Velocity":81,"Duration":355029,"SoundDuration":355029,"Delta":95505226},{"NoteNumber":42,"Velocity":58,"Duration":355029,"SoundDuration":355029,"Delta":95505226},{"NoteNumber":51,"Velocity":64,"Duration":372670,"SoundDuration":372670,"Delta":95860255},{"NoteNumber":57,"Velocity":77,"Duration":372670,"SoundDuration":372670,"Delta":95860255},{"NoteNumber":41,"Velocity":48,"Duration":372670,"SoundDuration":372670,"Delta":95860255},{"NoteNumber":45,"Velocity":58,"Duration":372670,"SoundDuration":372670,"Delta":95860255},{"NoteNumber":49,"Velocity":67,"Duration":719207,"SoundDuration":719207,"Delta":96232926},{"NoteNumber":58,"Velocity":79,"Duration":348837,"SoundDuration":348837,"Delta":96232926},{"NoteNumber":34,"Velocity":59,"Duration":534022,"SoundDuration":534022,"Delta":96232926},{"NoteNumber":46,"Velocity":71,"Duration":534022,"SoundDuration":534022,"Delta":96232926},{"NoteNumber":53,"Velocity":65,"Duration":185185,"SoundDuration":185185,"Delta":96581763},{"NoteNumber":53,"Velocity":79,"Duration":701753,"SoundDuration":701753,"Delta":96952134},{"NoteNumber":61,"Velocity":96,"Duration":701753,"SoundDuration":701753,"Delta":96952134},{"NoteNumber":46,"Velocity":59,"Duration":701753,"SoundDuration":701753,"Delta":96952134},{"NoteNumber":49,"Velocity":71,"Duration":701753,"SoundDuration":701753,"Delta":96952134},{"NoteNumber":55,"Velocity":96,"Duration":714286,"SoundDuration":714286,"Delta":97653888},{"NoteNumber":60,"Velocity":96,"Duration":714286,"SoundDuration":714286,"Delta":97653888},{"NoteNumber":40,"Velocity":71,"Duration":714286,"SoundDuration":714286,"Delta":97653888},{"NoteNumber":48,"Velocity":71,"Duration":714286,"SoundDuration":714286,"Delta":97653888},{"NoteNumber":60,"Velocity":96,"Duration":714286,"SoundDuration":714286,"Delta":98368174},{"NoteNumber":70,"Velocity":96,"Duration":714286,"SoundDuration":714286,"Delta":98368174},{"NoteNumber":52,"Velocity":71,"Duration":714286,"SoundDuration":714286,"Delta":98368174},{"NoteNumber":55,"Velocity":71,"Duration":714286,"SoundDuration":714286,"Delta":98368174},{"NoteNumber":60,"Velocity":81,"Duration":182926,"SoundDuration":182926,"Delta":99082460},{"NoteNumber":68,"Velocity":96,"Duration":182926,"SoundDuration":182926,"Delta":99082460},{"NoteNumber":53,"Velocity":59,"Duration":182926,"SoundDuration":182926,"Delta":99082460},{"NoteNumber":56,"Velocity":71,"Duration":182926,"SoundDuration":182926,"Delta":99082460},{"NoteNumber":65,"Velocity":86,"Duration":710059,"SoundDuration":710059,"Delta":99445607},{"NoteNumber":68,"Velocity":86,"Duration":710059,"SoundDuration":710059,"Delta":99445607},{"NoteNumber":77,"Velocity":102,"Duration":710059,"SoundDuration":710059,"Delta":99445607},{"NoteNumber":47,"Velocity":64,"Duration":177514,"SoundDuration":177514,"Delta":99445607},{"NoteNumber":59,"Velocity":76,"Duration":177514,"SoundDuration":177514,"Delta":99445607},{"NoteNumber":48,"Velocity":59,"Duration":177514,"SoundDuration":177514,"Delta":99800637},{"NoteNumber":60,"Velocity":71,"Duration":177514,"SoundDuration":177514,"Delta":99800637},{"NoteNumber":64,"Velocity":81,"Duration":187500,"SoundDuration":187500,"Delta":100155666},{"NoteNumber":67,"Velocity":81,"Duration":187500,"SoundDuration":187500,"Delta":100155666},{"NoteNumber":76,"Velocity":96,"Duration":187500,"SoundDuration":187500,"Delta":100155666},{"NoteNumber":36,"Velocity":59,"Duration":187500,"SoundDuration":187500,"Delta":100155666},{"NoteNumber":48,"Velocity":71,"Duration":187500,"SoundDuration":187500,"Delta":100155666},{"NoteNumber":65,"Velocity":86,"Duration":188679,"SoundDuration":188679,"Delta":100530666},{"NoteNumber":68,"Velocity":86,"Duration":188679,"SoundDuration":188679,"Delta":100530666},{"NoteNumber":77,"Velocity":102,"Duration":188679,"SoundDuration":188679,"Delta":100530666},{"NoteNumber":41,"Velocity":70,"Duration":188679,"SoundDuration":188679,"Delta":100530666},{"NoteNumber":53,"Velocity":82,"Duration":188679,"SoundDuration":188679,"Delta":100530666},{"NoteNumber":60,"Velocity":36,"Duration":96491,"SoundDuration":96491,"Delta":100719345},{"NoteNumber":40,"Velocity":30,"Duration":87719,"SoundDuration":87719,"Delta":100719345},{"NoteNumber":43,"Velocity":36,"Duration":87719,"SoundDuration":87719,"Delta":100719345},{"NoteNumber":58,"Velocity":31,"Duration":87719,"SoundDuration":87719,"Delta":100807065},{"NoteNumber":60,"Velocity":36,"Duration":96491,"SoundDuration":96491,"Delta":100894784},{"NoteNumber":41,"Velocity":30,"Duration":87719,"SoundDuration":87719,"Delta":100894784},{"NoteNumber":44,"Velocity":36,"Duration":87719,"SoundDuration":87719,"Delta":100894784},{"NoteNumber":56,"Velocity":32,"Duration":87719,"SoundDuration":87719,"Delta":100982503},{"NoteNumber":60,"Velocity":36,"Duration":95375,"SoundDuration":95375,"Delta":101070222},{"NoteNumber":43,"Velocity":30,"Duration":86705,"SoundDuration":86705,"Delta":101070222},{"NoteNumber":46,"Velocity":36,"Duration":86705,"SoundDuration":86705,"Delta":101070222},{"NoteNumber":55,"Velocity":31,"Duration":86705,"SoundDuration":86705,"Delta":101156928},{"NoteNumber":60,"Velocity":42,"Duration":95375,"SoundDuration":95375,"Delta":101243633},{"NoteNumber":44,"Velocity":34,"Duration":86705,"SoundDuration":86705,"Delta":101243633},{"NoteNumber":48,"Velocity":40,"Duration":86705,"SoundDuration":86705,"Delta":101243633},{"NoteNumber":53,"Velocity":31,"Duration":86705,"SoundDuration":86705,"Delta":101330338},{"NoteNumber":60,"Velocity":36,"Duration":95375,"SoundDuration":95375,"Delta":101417043},{"NoteNumber":46,"Velocity":29,"Duration":86705,"SoundDuration":86705,"Delta":101417043},{"NoteNumber":49,"Velocity":35,"Duration":86705,"SoundDuration":86705,"Delta":101417043},{"NoteNumber":52,"Velocity":31,"Duration":86705,"SoundDuration":86705,"Delta":101503749},{"NoteNumber":60,"Velocity":36,"Duration":95375,"SoundDuration":95375,"Delta":101590454},{"NoteNumber":44,"Velocity":29,"Duration":86705,"SoundDuration":86705,"Delta":101590454},{"NoteNumber":48,"Velocity":35,"Duration":86705,"SoundDuration":86705,"Delta":101590454},{"NoteNumber":53,"Velocity":30,"Duration":86705,"SoundDuration":86705,"Delta":101677159},{"NoteNumber":60,"Velocity":36,"Duration":104430,"SoundDuration":104430,"Delta":101763864},{"NoteNumber":43,"Velocity":29,"Duration":94936,"SoundDuration":94936,"Delta":101763864},{"NoteNumber":46,"Velocity":35,"Duration":94936,"SoundDuration":94936,"Delta":101763864},{"NoteNumber":55,"Velocity":31,"Duration":94936,"SoundDuration":94936,"Delta":101858801},{"NoteNumber":60,"Velocity":45,"Duration":96491,"SoundDuration":96491,"Delta":101953738},{"NoteNumber":41,"Velocity":34,"Duration":87719,"SoundDuration":87719,"Delta":101953738},{"NoteNumber":44,"Velocity":40,"Duration":87719,"SoundDuration":87719,"Delta":101953738},{"NoteNumber":56,"Velocity":31,"Duration":87719,"SoundDuration":87719,"Delta":102041457},{"NoteNumber":65,"Velocity":36,"Duration":94827,"SoundDuration":94827,"Delta":102129176},{"NoteNumber":45,"Velocity":30,"Duration":86206,"SoundDuration":86206,"Delta":102129176},{"NoteNumber":48,"Velocity":36,"Duration":86206,"SoundDuration":86206,"Delta":102129176},{"NoteNumber":63,"Velocity":31,"Duration":86206,"SoundDuration":86206,"Delta":102215383},{"NoteNumber":65,"Velocity":36,"Duration":94827,"SoundDuration":94827,"Delta":102301590},{"NoteNumber":46,"Velocity":30,"Duration":86206,"SoundDuration":86206,"Delta":102301590},{"NoteNumber":49,"Velocity":36,"Duration":86206,"SoundDuration":86206,"Delta":102301590},{"NoteNumber":61,"Velocity":32,"Duration":86206,"SoundDuration":86206,"Delta":102387797},{"NoteNumber":65,"Velocity":36,"Duration":94827,"SoundDuration":94827,"Delta":102474004},{"NoteNumber":51,"Velocity":36,"Duration":86206,"SoundDuration":86206,"Delta":102474004},{"NoteNumber":48,"Velocity":30,"Duration":86206,"SoundDuration":86206,"Delta":102474004},{"NoteNumber":60,"Velocity":31,"Duration":86206,"SoundDuration":86206,"Delta":102560211},{"NoteNumber":65,"Velocity":42,"Duration":94827,"SoundDuration":94827,"Delta":102646418},{"NoteNumber":53,"Velocity":40,"Duration":86206,"SoundDuration":86206,"Delta":102646418},{"NoteNumber":49,"Velocity":34,"Duration":86206,"SoundDuration":86206,"Delta":102646418},{"NoteNumber":58,"Velocity":31,"Duration":86206,"SoundDuration":86206,"Delta":102732624},{"NoteNumber":65,"Velocity":36,"Duration":94827,"SoundDuration":94827,"Delta":102818831},{"NoteNumber":51,"Velocity":30,"Duration":86206,"SoundDuration":86206,"Delta":102818831},{"NoteNumber":54,"Velocity":36,"Duration":86206,"SoundDuration":86206,"Delta":102818831},{"NoteNumber":57,"Velocity":31,"Duration":86206,"SoundDuration":86206,"Delta":102905038},{"NoteNumber":65,"Velocity":36,"Duration":94827,"SoundDuration":94827,"Delta":102991245},{"NoteNumber":49,"Velocity":30,"Duration":86206,"SoundDuration":86206,"Delta":102991245},{"NoteNumber":53,"Velocity":36,"Duration":86206,"SoundDuration":86206,"Delta":102991245},{"NoteNumber":58,"Velocity":30,"Duration":86206,"SoundDuration":86206,"Delta":103077452},{"NoteNumber":65,"Velocity":36,"Duration":100609,"SoundDuration":100609,"Delta":103163659},{"NoteNumber":48,"Velocity":30,"Duration":91463,"SoundDuration":91463,"Delta":103163659},{"NoteNumber":51,"Velocity":36,"Duration":91463,"SoundDuration":91463,"Delta":103163659},{"NoteNumber":60,"Velocity":31,"Duration":91463,"SoundDuration":91463,"Delta":103255122},{"NoteNumber":65,"Velocity":49,"Duration":95930,"SoundDuration":95930,"Delta":103346586},{"NoteNumber":46,"Velocity":38,"Duration":87209,"SoundDuration":87209,"Delta":103346586},{"NoteNumber":49,"Velocity":45,"Duration":87209,"SoundDuration":87209,"Delta":103346586},{"NoteNumber":61,"Velocity":34,"Duration":87209,"SoundDuration":87209,"Delta":103433795},{"NoteNumber":65,"Velocity":39,"Duration":94285,"SoundDuration":94285,"Delta":103521004},{"NoteNumber":46,"Velocity":30,"Duration":85714,"SoundDuration":85714,"Delta":103521004},{"NoteNumber":49,"Velocity":36,"Duration":85714,"SoundDuration":85714,"Delta":103521004},{"NoteNumber":61,"Velocity":34,"Duration":85714,"SoundDuration":85714,"Delta":103606718},{"NoteNumber":67,"Velocity":39,"Duration":94285,"SoundDuration":94285,"Delta":103692433},{"NoteNumber":47,"Velocity":30,"Duration":85714,"SoundDuration":85714,"Delta":103692433},{"NoteNumber":50,"Velocity":36,"Duration":85714,"SoundDuration":85714,"Delta":103692433},{"NoteNumber":65,"Velocity":35,"Duration":85714,"SoundDuration":85714,"Delta":103778147},{"NoteNumber":67,"Velocity":39,"Duration":94285,"SoundDuration":94285,"Delta":103863861},{"NoteNumber":47,"Velocity":30,"Duration":85714,"SoundDuration":85714,"Delta":103863861},{"NoteNumber":50,"Velocity":36,"Duration":85714,"SoundDuration":85714,"Delta":103863861},{"NoteNumber":65,"Velocity":34,"Duration":85714,"SoundDuration":85714,"Delta":103949575},{"NoteNumber":68,"Velocity":46,"Duration":94285,"SoundDuration":94285,"Delta":104035290},{"NoteNumber":48,"Velocity":39,"Duration":85714,"SoundDuration":85714,"Delta":104035290},{"NoteNumber":53,"Velocity":47,"Duration":85714,"SoundDuration":85714,"Delta":104035290},{"NoteNumber":65,"Velocity":34,"Duration":85714,"SoundDuration":85714,"Delta":104121004},{"NoteNumber":68,"Velocity":39,"Duration":94285,"SoundDuration":94285,"Delta":104206718},{"NoteNumber":48,"Velocity":32,"Duration":85714,"SoundDuration":85714,"Delta":104206718},{"NoteNumber":53,"Velocity":38,"Duration":85714,"SoundDuration":85714,"Delta":104206718},{"NoteNumber":65,"Velocity":34,"Duration":85714,"SoundDuration":85714,"Delta":104292432},{"NoteNumber":70,"Velocity":39,"Duration":94285,"SoundDuration":94285,"Delta":104378147},{"NoteNumber":48,"Velocity":32,"Duration":85714,"SoundDuration":85714,"Delta":104378147},{"NoteNumber":55,"Velocity":38,"Duration":85714,"SoundDuration":85714,"Delta":104378147},{"NoteNumber":64,"Velocity":33,"Duration":85714,"SoundDuration":85714,"Delta":104463861},{"NoteNumber":70,"Velocity":39,"Duration":100000,"SoundDuration":100000,"Delta":104549575},{"NoteNumber":48,"Velocity":32,"Duration":90909,"SoundDuration":90909,"Delta":104549575},{"NoteNumber":55,"Velocity":38,"Duration":90909,"SoundDuration":90909,"Delta":104549575},{"NoteNumber":64,"Velocity":34,"Duration":90909,"SoundDuration":90909,"Delta":104640484},{"NoteNumber":65,"Velocity":78,"Duration":188679,"SoundDuration":188679,"Delta":104731393},{"NoteNumber":53,"Velocity":61,"Duration":188679,"SoundDuration":188679,"Delta":104731393},{"NoteNumber":56,"Velocity":72,"Duration":188679,"SoundDuration":188679,"Delta":104731393},{"NoteNumber":60,"Velocity":36,"Duration":85714,"SoundDuration":85714,"Delta":104920073},{"NoteNumber":72,"Velocity":42,"Duration":94285,"SoundDuration":94285,"Delta":104920073},{"NoteNumber":40,"Velocity":36,"Duration":85714,"SoundDuration":85714,"Delta":104920073},{"NoteNumber":52,"Velocity":42,"Duration":85714,"SoundDuration":85714,"Delta":104920073},{"NoteNumber":70,"Velocity":37,"Duration":85714,"SoundDuration":85714,"Delta":105005787},{"NoteNumber":60,"Velocity":36,"Duration":85714,"SoundDuration":85714,"Delta":105091501},{"NoteNumber":72,"Velocity":43,"Duration":94285,"SoundDuration":94285,"Delta":105091501},{"NoteNumber":41,"Velocity":36,"Duration":85714,"SoundDuration":85714,"Delta":105091501},{"NoteNumber":53,"Velocity":43,"Duration":85714,"SoundDuration":85714,"Delta":105091501},{"NoteNumber":68,"Velocity":39,"Duration":85714,"SoundDuration":85714,"Delta":105177215},{"NoteNumber":60,"Velocity":36,"Duration":85714,"SoundDuration":85714,"Delta":105262930},{"NoteNumber":72,"Velocity":44,"Duration":94285,"SoundDuration":94285,"Delta":105262930},{"NoteNumber":43,"Velocity":36,"Duration":85714,"SoundDuration":85714,"Delta":105262930},{"NoteNumber":55,"Velocity":44,"Duration":85714,"SoundDuration":85714,"Delta":105262930},{"NoteNumber":67,"Velocity":39,"Duration":85714,"SoundDuration":85714,"Delta":105348644},{"NoteNumber":60,"Velocity":44,"Duration":85714,"SoundDuration":85714,"Delta":105434358},{"NoteNumber":72,"Velocity":53,"Duration":94285,"SoundDuration":94285,"Delta":105434358},{"NoteNumber":44,"Velocity":42,"Duration":85714,"SoundDuration":85714,"Delta":105434358},{"NoteNumber":56,"Velocity":50,"Duration":85714,"SoundDuration":85714,"Delta":105434358},{"NoteNumber":65,"Velocity":39,"Duration":85714,"SoundDuration":85714,"Delta":105520072},{"NoteNumber":60,"Velocity":38,"Duration":85714,"SoundDuration":85714,"Delta":105605787},{"NoteNumber":72,"Velocity":46,"Duration":94285,"SoundDuration":94285,"Delta":105605787},{"NoteNumber":46,"Velocity":37,"Duration":85714,"SoundDuration":85714,"Delta":105605787},{"NoteNumber":58,"Velocity":45,"Duration":85714,"SoundDuration":85714,"Delta":105605787},{"NoteNumber":64,"Velocity":39,"Duration":85714,"SoundDuration":85714,"Delta":105691501},{"NoteNumber":60,"Velocity":39,"Duration":85714,"SoundDuration":85714,"Delta":105777215},{"NoteNumber":72,"Velocity":47,"Duration":94285,"SoundDuration":94285,"Delta":105777215},{"NoteNumber":44,"Velocity":37,"Duration":85714,"SoundDuration":85714,"Delta":105777215},{"NoteNumber":56,"Velocity":46,"Duration":85714,"SoundDuration":85714,"Delta":105777215},{"NoteNumber":65,"Velocity":40,"Duration":85714,"SoundDuration":85714,"Delta":105862929},{"NoteNumber":60,"Velocity":40,"Duration":91463,"SoundDuration":91463,"Delta":105948644},{"NoteNumber":72,"Velocity":48,"Duration":100609,"SoundDuration":100609,"Delta":105948644},{"NoteNumber":43,"Velocity":37,"Duration":91463,"SoundDuration":91463,"Delta":105948644},{"NoteNumber":55,"Velocity":46,"Duration":91463,"SoundDuration":91463,"Delta":105948644},{"NoteNumber":67,"Velocity":41,"Duration":91463,"SoundDuration":91463,"Delta":106040107},{"NoteNumber":60,"Velocity":52,"Duration":89820,"SoundDuration":89820,"Delta":106131570},{"NoteNumber":72,"Velocity":61,"Duration":98802,"SoundDuration":98802,"Delta":106131570},{"NoteNumber":41,"Velocity":46,"Duration":89820,"SoundDuration":89820,"Delta":106131570},{"NoteNumber":53,"Velocity":54,"Duration":89820,"SoundDuration":89820,"Delta":106131570},{"NoteNumber":68,"Velocity":42,"Duration":89820,"SoundDuration":89820,"Delta":106221391},{"NoteNumber":65,"Velocity":42,"Duration":86206,"SoundDuration":86206,"Delta":106311211},{"NoteNumber":77,"Velocity":50,"Duration":94827,"SoundDuration":94827,"Delta":106311211},{"NoteNumber":45,"Velocity":42,"Duration":86206,"SoundDuration":86206,"Delta":106311211},{"NoteNumber":57,"Velocity":50,"Duration":86206,"SoundDuration":86206,"Delta":106311211},{"NoteNumber":75,"Velocity":43,"Duration":86206,"SoundDuration":86206,"Delta":106397418},{"NoteNumber":65,"Velocity":42,"Duration":86206,"SoundDuration":86206,"Delta":106483625},{"NoteNumber":77,"Velocity":50,"Duration":94827,"SoundDuration":94827,"Delta":106483625},{"NoteNumber":46,"Velocity":42,"Duration":86206,"SoundDuration":86206,"Delta":106483625},{"NoteNumber":58,"Velocity":50,"Duration":86206,"SoundDuration":86206,"Delta":106483625},{"NoteNumber":73,"Velocity":46,"Duration":86206,"SoundDuration":86206,"Delta":106569832},{"NoteNumber":65,"Velocity":42,"Duration":86206,"SoundDuration":86206,"Delta":106656039},{"NoteNumber":77,"Velocity":52,"Duration":94827,"SoundDuration":94827,"Delta":106656039},{"NoteNumber":60,"Velocity":52,"Duration":86206,"SoundDuration":86206,"Delta":106656039},{"NoteNumber":48,"Velocity":42,"Duration":86206,"SoundDuration":86206,"Delta":106656039},{"NoteNumber":72,"Velocity":45,"Duration":86206,"SoundDuration":86206,"Delta":106742245},{"NoteNumber":65,"Velocity":51,"Duration":86206,"SoundDuration":86206,"Delta":106828452},{"NoteNumber":77,"Velocity":62,"Duration":94827,"SoundDuration":94827,"Delta":106828452},{"NoteNumber":61,"Velocity":58,"Duration":86206,"SoundDuration":86206,"Delta":106828452},{"NoteNumber":49,"Velocity":50,"Duration":86206,"SoundDuration":86206,"Delta":106828452},{"NoteNumber":70,"Velocity":45,"Duration":86206,"SoundDuration":86206,"Delta":106914659},{"NoteNumber":65,"Velocity":44,"Duration":86206,"SoundDuration":86206,"Delta":107000866},{"NoteNumber":77,"Velocity":54,"Duration":94827,"SoundDuration":94827,"Delta":107000866},{"NoteNumber":51,"Velocity":44,"Duration":86206,"SoundDuration":86206,"Delta":107000866},{"NoteNumber":63,"Velocity":54,"Duration":86206,"SoundDuration":86206,"Delta":107000866},{"NoteNumber":69,"Velocity":47,"Duration":86206,"SoundDuration":86206,"Delta":107087073},{"NoteNumber":65,"Velocity":44,"Duration":86206,"SoundDuration":86206,"Delta":107173280},{"NoteNumber":77,"Velocity":54,"Duration":94827,"SoundDuration":94827,"Delta":107173280},{"NoteNumber":49,"Velocity":44,"Duration":86206,"SoundDuration":86206,"Delta":107173280},{"NoteNumber":61,"Velocity":54,"Duration":86206,"SoundDuration":86206,"Delta":107173280},{"NoteNumber":70,"Velocity":46,"Duration":86206,"SoundDuration":86206,"Delta":107259487},{"NoteNumber":65,"Velocity":46,"Duration":90361,"SoundDuration":90361,"Delta":107345694},{"NoteNumber":77,"Velocity":56,"Duration":99397,"SoundDuration":99397,"Delta":107345694},{"NoteNumber":48,"Velocity":46,"Duration":90361,"SoundDuration":90361,"Delta":107345694},{"NoteNumber":60,"Velocity":56,"Duration":90361,"SoundDuration":90361,"Delta":107345694},{"NoteNumber":72,"Velocity":47,"Duration":90361,"SoundDuration":90361,"Delta":107436055},{"NoteNumber":65,"Velocity":63,"Duration":86206,"SoundDuration":86206,"Delta":107526417},{"NoteNumber":77,"Velocity":77,"Duration":94827,"SoundDuration":94827,"Delta":107526417},{"NoteNumber":46,"Velocity":60,"Duration":86206,"SoundDuration":86206,"Delta":107526417},{"NoteNumber":58,"Velocity":71,"Duration":86206,"SoundDuration":86206,"Delta":107526417},{"NoteNumber":73,"Velocity":54,"Duration":86206,"SoundDuration":86206,"Delta":107612623},{"NoteNumber":65,"Velocity":52,"Duration":86206,"SoundDuration":86206,"Delta":107698830},{"NoteNumber":77,"Velocity":62,"Duration":94827,"SoundDuration":94827,"Delta":107698830},{"NoteNumber":58,"Velocity":48,"Duration":86206,"SoundDuration":86206,"Delta":107698830},{"NoteNumber":61,"Velocity":57,"Duration":86206,"SoundDuration":86206,"Delta":107698830},{"NoteNumber":73,"Velocity":54,"Duration":86206,"SoundDuration":86206,"Delta":107785037},{"NoteNumber":67,"Velocity":53,"Duration":86206,"SoundDuration":86206,"Delta":107871244},{"NoteNumber":79,"Velocity":63,"Duration":94827,"SoundDuration":94827,"Delta":107871244},{"NoteNumber":59,"Velocity":48,"Duration":86206,"SoundDuration":86206,"Delta":107871244},{"NoteNumber":62,"Velocity":58,"Duration":86206,"SoundDuration":86206,"Delta":107871244},{"NoteNumber":77,"Velocity":57,"Duration":86206,"SoundDuration":86206,"Delta":107957451},{"NoteNumber":67,"Velocity":53,"Duration":86206,"SoundDuration":86206,"Delta":108043658},{"NoteNumber":79,"Velocity":63,"Duration":94827,"SoundDuration":94827,"Delta":108043658},{"NoteNumber":59,"Velocity":48,"Duration":86206,"SoundDuration":86206,"Delta":108043658},{"NoteNumber":62,"Velocity":58,"Duration":86206,"SoundDuration":86206,"Delta":108043658},{"NoteNumber":77,"Velocity":56,"Duration":86206,"SoundDuration":86206,"Delta":108129865},{"NoteNumber":68,"Velocity":65,"Duration":87209,"SoundDuration":87209,"Delta":108216072},{"NoteNumber":80,"Velocity":76,"Duration":95930,"SoundDuration":95930,"Delta":108216072},{"NoteNumber":60,"Velocity":65,"Duration":87209,"SoundDuration":87209,"Delta":108216072},{"NoteNumber":65,"Velocity":78,"Duration":87209,"SoundDuration":87209,"Delta":108216072},{"NoteNumber":77,"Velocity":57,"Duration":87209,"SoundDuration":87209,"Delta":108303281},{"NoteNumber":68,"Velocity":55,"Duration":87209,"SoundDuration":87209,"Delta":108390490},{"NoteNumber":80,"Velocity":67,"Duration":95930,"SoundDuration":95930,"Delta":108390490},{"NoteNumber":60,"Velocity":54,"Duration":87209,"SoundDuration":87209,"Delta":108390490},{"NoteNumber":65,"Velocity":64,"Duration":87209,"SoundDuration":87209,"Delta":108390490},{"NoteNumber":77,"Velocity":58,"Duration":87209,"SoundDuration":87209,"Delta":108477699},{"NoteNumber":70,"Velocity":57,"Duration":89820,"SoundDuration":89820,"Delta":108564909},{"NoteNumber":82,"Velocity":67,"Duration":98802,"SoundDuration":98802,"Delta":108564909},{"NoteNumber":60,"Velocity":55,"Duration":89820,"SoundDuration":89820,"Delta":108564909},{"NoteNumber":67,"Velocity":66,"Duration":89820,"SoundDuration":89820,"Delta":108564909},{"NoteNumber":76,"Velocity":57,"Duration":89820,"SoundDuration":89820,"Delta":108654729},{"NoteNumber":70,"Velocity":58,"Duration":104166,"SoundDuration":104166,"Delta":108744549},{"NoteNumber":82,"Velocity":68,"Duration":114583,"SoundDuration":114583,"Delta":108744549},{"NoteNumber":60,"Velocity":56,"Duration":104166,"SoundDuration":104166,"Delta":108744549},{"NoteNumber":67,"Velocity":67,"Duration":104166,"SoundDuration":104166,"Delta":108744549},{"NoteNumber":76,"Velocity":60,"Duration":104166,"SoundDuration":104166,"Delta":108848716},{"NoteNumber":77,"Velocity":94,"Duration":201342,"SoundDuration":201342,"Delta":108952883},{"NoteNumber":53,"Velocity":53,"Duration":100671,"SoundDuration":100671,"Delta":108952883},{"NoteNumber":56,"Velocity":53,"Duration":100671,"SoundDuration":100671,"Delta":108952883},{"NoteNumber":60,"Velocity":53,"Duration":100671,"SoundDuration":100671,"Delta":108952883},{"NoteNumber":65,"Velocity":63,"Duration":100671,"SoundDuration":100671,"Delta":108952883},{"NoteNumber":89,"Velocity":93,"Duration":360363,"SoundDuration":360363,"Delta":109154225},{"NoteNumber":53,"Velocity":53,"Duration":90361,"SoundDuration":90361,"Delta":109154225},{"NoteNumber":56,"Velocity":53,"Duration":90361,"SoundDuration":90361,"Delta":109154225},{"NoteNumber":60,"Velocity":53,"Duration":90361,"SoundDuration":90361,"Delta":109154225},{"NoteNumber":65,"Velocity":63,"Duration":90361,"SoundDuration":90361,"Delta":109154225},{"NoteNumber":53,"Velocity":47,"Duration":89820,"SoundDuration":89820,"Delta":109334948},{"NoteNumber":56,"Velocity":47,"Duration":89820,"SoundDuration":89820,"Delta":109334948},{"NoteNumber":60,"Velocity":47,"Duration":89820,"SoundDuration":89820,"Delta":109334948},{"NoteNumber":65,"Velocity":56,"Duration":89820,"SoundDuration":89820,"Delta":109334948},{"NoteNumber":89,"Velocity":89,"Duration":179640,"SoundDuration":179640,"Delta":109514589},{"NoteNumber":53,"Velocity":47,"Duration":89820,"SoundDuration":89820,"Delta":109514589},{"NoteNumber":56,"Velocity":47,"Duration":89820,"SoundDuration":89820,"Delta":109514589},{"NoteNumber":60,"Velocity":47,"Duration":89820,"SoundDuration":89820,"Delta":109514589},{"NoteNumber":65,"Velocity":56,"Duration":89820,"SoundDuration":89820,"Delta":109514589},{"NoteNumber":88,"Velocity":90,"Duration":87719,"SoundDuration":87719,"Delta":109694229},{"NoteNumber":53,"Velocity":49,"Duration":87719,"SoundDuration":87719,"Delta":109694229},{"NoteNumber":55,"Velocity":49,"Duration":87719,"SoundDuration":87719,"Delta":109694229},{"NoteNumber":58,"Velocity":49,"Duration":87719,"SoundDuration":87719,"Delta":109694229},{"NoteNumber":60,"Velocity":49,"Duration":87719,"SoundDuration":87719,"Delta":109694229},{"NoteNumber":64,"Velocity":59,"Duration":87719,"SoundDuration":87719,"Delta":109694229},{"NoteNumber":85,"Velocity":73,"Duration":87719,"SoundDuration":87719,"Delta":109781949},{"NoteNumber":82,"Velocity":78,"Duration":87719,"SoundDuration":87719,"Delta":109869668},{"NoteNumber":53,"Velocity":42,"Duration":87719,"SoundDuration":87719,"Delta":109869668},{"NoteNumber":55,"Velocity":42,"Duration":87719,"SoundDuration":87719,"Delta":109869668},{"NoteNumber":58,"Velocity":42,"Duration":87719,"SoundDuration":87719,"Delta":109869668},{"NoteNumber":60,"Velocity":42,"Duration":87719,"SoundDuration":87719,"Delta":109869668},{"NoteNumber":64,"Velocity":50,"Duration":87719,"SoundDuration":87719,"Delta":109869668},{"NoteNumber":79,"Velocity":74,"Duration":87719,"SoundDuration":87719,"Delta":109957387},{"NoteNumber":76,"Velocity":67,"Duration":175438,"SoundDuration":175438,"Delta":110045106},{"NoteNumber":73,"Velocity":56,"Duration":87719,"SoundDuration":87719,"Delta":110045106},{"NoteNumber":53,"Velocity":42,"Duration":87719,"SoundDuration":87719,"Delta":110045106},{"NoteNumber":55,"Velocity":42,"Duration":87719,"SoundDuration":87719,"Delta":110045106},{"NoteNumber":58,"Velocity":42,"Duration":87719,"SoundDuration":87719,"Delta":110045106},{"NoteNumber":60,"Velocity":42,"Duration":87719,"SoundDuration":87719,"Delta":110045106},{"NoteNumber":64,"Velocity":50,"Duration":87719,"SoundDuration":87719,"Delta":110045106},{"NoteNumber":72,"Velocity":61,"Duration":87719,"SoundDuration":87719,"Delta":110132826},{"NoteNumber":76,"Velocity":61,"Duration":175438,"SoundDuration":175438,"Delta":110220545},{"NoteNumber":73,"Velocity":51,"Duration":87719,"SoundDuration":87719,"Delta":110220545},{"NoteNumber":53,"Velocity":42,"Duration":87719,"SoundDuration":87719,"Delta":110220545},{"NoteNumber":55,"Velocity":42,"Duration":87719,"SoundDuration":87719,"Delta":110220545},{"NoteNumber":58,"Velocity":42,"Duration":87719,"SoundDuration":87719,"Delta":110220545},{"NoteNumber":60,"Velocity":42,"Duration":87719,"SoundDuration":87719,"Delta":110220545},{"NoteNumber":64,"Velocity":50,"Duration":87719,"SoundDuration":87719,"Delta":110220545},{"NoteNumber":70,"Velocity":60,"Duration":87719,"SoundDuration":87719,"Delta":110308264},{"NoteNumber":77,"Velocity":83,"Duration":184563,"SoundDuration":184563,"Delta":110395983},{"NoteNumber":68,"Velocity":77,"Duration":201342,"SoundDuration":201342,"Delta":110395983},{"NoteNumber":41,"Velocity":53,"Duration":100671,"SoundDuration":100671,"Delta":110395983},{"NoteNumber":44,"Velocity":53,"Duration":100671,"SoundDuration":100671,"Delta":110395983},{"NoteNumber":48,"Velocity":53,"Duration":100671,"SoundDuration":100671,"Delta":110395983},{"NoteNumber":53,"Velocity":63,"Duration":100671,"SoundDuration":100671,"Delta":110395983},{"NoteNumber":77,"Velocity":93,"Duration":360363,"SoundDuration":360363,"Delta":110597326},{"NoteNumber":41,"Velocity":53,"Duration":90361,"SoundDuration":90361,"Delta":110597326},{"NoteNumber":44,"Velocity":53,"Duration":90361,"SoundDuration":90361,"Delta":110597326},{"NoteNumber":48,"Velocity":53,"Duration":90361,"SoundDuration":90361,"Delta":110597326},{"NoteNumber":53,"Velocity":63,"Duration":90361,"SoundDuration":90361,"Delta":110597326},{"NoteNumber":41,"Velocity":47,"Duration":89820,"SoundDuration":89820,"Delta":110778049},{"NoteNumber":44,"Velocity":47,"Duration":89820,"SoundDuration":89820,"Delta":110778049},{"NoteNumber":48,"Velocity":47,"Duration":89820,"SoundDuration":89820,"Delta":110778049},{"NoteNumber":53,"Velocity":56,"Duration":89820,"SoundDuration":89820,"Delta":110778049},{"NoteNumber":77,"Velocity":89,"Duration":179640,"SoundDuration":179640,"Delta":110957689},{"NoteNumber":41,"Velocity":47,"Duration":89820,"SoundDuration":89820,"Delta":110957689},{"NoteNumber":44,"Velocity":47,"Duration":89820,"SoundDuration":89820,"Delta":110957689},{"NoteNumber":48,"Velocity":47,"Duration":89820,"SoundDuration":89820,"Delta":110957689},{"NoteNumber":53,"Velocity":56,"Duration":89820,"SoundDuration":89820,"Delta":110957689},{"NoteNumber":76,"Velocity":90,"Duration":87719,"SoundDuration":87719,"Delta":111137330},{"NoteNumber":41,"Velocity":49,"Duration":87719,"SoundDuration":87719,"Delta":111137330},{"NoteNumber":43,"Velocity":49,"Duration":87719,"SoundDuration":87719,"Delta":111137330},{"NoteNumber":46,"Velocity":49,"Duration":87719,"SoundDuration":87719,"Delta":111137330},{"NoteNumber":48,"Velocity":49,"Duration":87719,"SoundDuration":87719,"Delta":111137330},{"NoteNumber":52,"Velocity":59,"Duration":87719,"SoundDuration":87719,"Delta":111137330},{"NoteNumber":73,"Velocity":75,"Duration":87719,"SoundDuration":87719,"Delta":111225049},{"NoteNumber":70,"Velocity":78,"Duration":87719,"SoundDuration":87719,"Delta":111312769},{"NoteNumber":41,"Velocity":42,"Duration":87719,"SoundDuration":87719,"Delta":111312769},{"NoteNumber":43,"Velocity":42,"Duration":87719,"SoundDuration":87719,"Delta":111312769},{"NoteNumber":46,"Velocity":42,"Duration":87719,"SoundDuration":87719,"Delta":111312769},{"NoteNumber":48,"Velocity":42,"Duration":87719,"SoundDuration":87719,"Delta":111312769},{"NoteNumber":52,"Velocity":50,"Duration":87719,"SoundDuration":87719,"Delta":111312769},{"NoteNumber":67,"Velocity":74,"Duration":87719,"SoundDuration":87719,"Delta":111400488},{"NoteNumber":64,"Velocity":67,"Duration":175438,"SoundDuration":175438,"Delta":111488207},{"NoteNumber":61,"Velocity":56,"Duration":87719,"SoundDuration":87719,"Delta":111488207},{"NoteNumber":41,"Velocity":42,"Duration":87719,"SoundDuration":87719,"Delta":111488207},{"NoteNumber":43,"Velocity":42,"Duration":87719,"SoundDuration":87719,"Delta":111488207},{"NoteNumber":46,"Velocity":42,"Duration":87719,"SoundDuration":87719,"Delta":111488207},{"NoteNumber":48,"Velocity":42,"Duration":87719,"SoundDuration":87719,"Delta":111488207},{"NoteNumber":52,"Velocity":50,"Duration":87719,"SoundDuration":87719,"Delta":111488207},{"NoteNumber":60,"Velocity":61,"Duration":87719,"SoundDuration":87719,"Delta":111575926},{"NoteNumber":64,"Velocity":61,"Duration":204081,"SoundDuration":204081,"Delta":111663646},{"NoteNumber":61,"Velocity":51,"Duration":102040,"SoundDuration":102040,"Delta":111663646},{"NoteNumber":41,"Velocity":42,"Duration":102040,"SoundDuration":102040,"Delta":111663646},{"NoteNumber":43,"Velocity":42,"Duration":102040,"SoundDuration":102040,"Delta":111663646},{"NoteNumber":46,"Velocity":42,"Duration":102040,"SoundDuration":102040,"Delta":111663646},{"NoteNumber":48,"Velocity":42,"Duration":102040,"SoundDuration":102040,"Delta":111663646},{"NoteNumber":52,"Velocity":50,"Duration":102040,"SoundDuration":102040,"Delta":111663646},{"NoteNumber":58,"Velocity":60,"Duration":102040,"SoundDuration":102040,"Delta":111765686},{"NoteNumber":56,"Velocity":70,"Duration":361446,"SoundDuration":361446,"Delta":111867727},{"NoteNumber":65,"Velocity":83,"Duration":361446,"SoundDuration":361446,"Delta":111867727},{"NoteNumber":41,"Velocity":51,"Duration":722892,"SoundDuration":722892,"Delta":111867727},{"NoteNumber":53,"Velocity":61,"Duration":722892,"SoundDuration":722892,"Delta":111867727},{"NoteNumber":44,"Velocity":79,"Duration":722892,"SoundDuration":722892,"Delta":112590619},{"NoteNumber":43,"Velocity":83,"Duration":525550,"SoundDuration":525550,"Delta":113313511},{"NoteNumber":58,"Velocity":88,"Duration":813253,"SoundDuration":813253,"Delta":113658339},{"NoteNumber":44,"Velocity":70,"Duration":90361,"SoundDuration":90361,"Delta":113839062},{"NoteNumber":46,"Velocity":70,"Duration":90361,"SoundDuration":90361,"Delta":113929423},{"NoteNumber":38,"Velocity":85,"Duration":180723,"SoundDuration":180723,"Delta":114019785},{"NoteNumber":40,"Velocity":80,"Duration":180723,"SoundDuration":180723,"Delta":114381231},{"NoteNumber":61,"Velocity":71,"Duration":90361,"SoundDuration":90361,"Delta":114471592},{"NoteNumber":60,"Velocity":71,"Duration":101351,"SoundDuration":101351,"Delta":114561954},{"NoteNumber":58,"Velocity":64,"Duration":101351,"SoundDuration":101351,"Delta":114663305},{"NoteNumber":56,"Velocity":81,"Duration":370370,"SoundDuration":370370,"Delta":114764657},{"NoteNumber":41,"Velocity":90,"Duration":185185,"SoundDuration":185185,"Delta":114764657},{"NoteNumber":53,"Velocity":73,"Duration":382165,"SoundDuration":382165,"Delta":115135027},{"NoteNumber":49,"Velocity":79,"Duration":722892,"SoundDuration":722892,"Delta":115517193},{"NoteNumber":48,"Velocity":83,"Duration":525550,"SoundDuration":525550,"Delta":116240085},{"NoteNumber":63,"Velocity":88,"Duration":813253,"SoundDuration":813253,"Delta":116584912},{"NoteNumber":49,"Velocity":70,"Duration":90361,"SoundDuration":90361,"Delta":116765635},{"NoteNumber":51,"Velocity":70,"Duration":90361,"SoundDuration":90361,"Delta":116855997},{"NoteNumber":43,"Velocity":85,"Duration":180723,"SoundDuration":180723,"Delta":116946358},{"NoteNumber":45,"Velocity":80,"Duration":180723,"SoundDuration":180723,"Delta":117307804},{"NoteNumber":66,"Velocity":71,"Duration":90361,"SoundDuration":90361,"Delta":117398166},{"NoteNumber":65,"Velocity":71,"Duration":101351,"SoundDuration":101351,"Delta":117488527},{"NoteNumber":63,"Velocity":64,"Duration":101351,"SoundDuration":101351,"Delta":117589878},{"NoteNumber":61,"Velocity":81,"Duration":370370,"SoundDuration":370370,"Delta":117691230},{"NoteNumber":46,"Velocity":90,"Duration":185185,"SoundDuration":185185,"Delta":117691230},{"NoteNumber":58,"Velocity":73,"Duration":380352,"SoundDuration":380352,"Delta":118061600},{"NoteNumber":73,"Velocity":79,"Duration":721437,"SoundDuration":721437,"Delta":118441953},{"NoteNumber":63,"Velocity":72,"Duration":1159535,"SoundDuration":1159535,"Delta":119163391},{"NoteNumber":72,"Velocity":83,"Duration":527004,"SoundDuration":527004,"Delta":119163391},{"NoteNumber":73,"Velocity":70,"Duration":90361,"SoundDuration":90361,"Delta":119690395},{"NoteNumber":75,"Velocity":70,"Duration":90361,"SoundDuration":90361,"Delta":119780757},{"NoteNumber":67,"Velocity":85,"Duration":180723,"SoundDuration":180723,"Delta":119871118},{"NoteNumber":53,"Velocity":80,"Duration":744495,"SoundDuration":744495,"Delta":119871118},{"NoteNumber":69,"Velocity":80,"Duration":184569,"SoundDuration":184569,"Delta":120232564},{"NoteNumber":66,"Velocity":71,"Duration":94207,"SoundDuration":94207,"Delta":120322926},{"NoteNumber":65,"Velocity":71,"Duration":101351,"SoundDuration":101351,"Delta":120417134},{"NoteNumber":63,"Velocity":64,"Duration":97128,"SoundDuration":97128,"Delta":120518485},{"NoteNumber":61,"Velocity":81,"Duration":361446,"SoundDuration":361446,"Delta":120615614},{"NoteNumber":70,"Velocity":81,"Duration":746061,"SoundDuration":746061,"Delta":120615614},{"NoteNumber":46,"Velocity":90,"Duration":361446,"SoundDuration":361446,"Delta":120615614},{"NoteNumber":58,"Velocity":73,"Duration":384615,"SoundDuration":384615,"Delta":120977060},{"NoteNumber":78,"Velocity":79,"Duration":721437,"SoundDuration":721437,"Delta":121361675},{"NoteNumber":68,"Velocity":72,"Duration":1159535,"SoundDuration":1159535,"Delta":122083113},{"NoteNumber":77,"Velocity":83,"Duration":527004,"SoundDuration":527004,"Delta":122083113},{"NoteNumber":78,"Velocity":70,"Duration":90361,"SoundDuration":90361,"Delta":122610118},{"NoteNumber":80,"Velocity":70,"Duration":90361,"SoundDuration":90361,"Delta":122700479},{"NoteNumber":72,"Velocity":85,"Duration":180723,"SoundDuration":180723,"Delta":122790841},{"NoteNumber":58,"Velocity":80,"Duration":744495,"SoundDuration":744495,"Delta":122790841},{"NoteNumber":74,"Velocity":80,"Duration":184569,"SoundDuration":184569,"Delta":123152287},{"NoteNumber":71,"Velocity":71,"Duration":94207,"SoundDuration":94207,"Delta":123242648},{"NoteNumber":70,"Velocity":71,"Duration":101351,"SoundDuration":101351,"Delta":123336856},{"NoteNumber":68,"Velocity":64,"Duration":97128,"SoundDuration":97128,"Delta":123438207},{"NoteNumber":66,"Velocity":81,"Duration":361446,"SoundDuration":361446,"Delta":123535336},{"NoteNumber":75,"Velocity":81,"Duration":746061,"SoundDuration":746061,"Delta":123535336},{"NoteNumber":51,"Velocity":90,"Duration":361446,"SoundDuration":361446,"Delta":123535336},{"NoteNumber":63,"Velocity":73,"Duration":384615,"SoundDuration":384615,"Delta":123896782},{"NoteNumber":58,"Velocity":79,"Duration":722892,"SoundDuration":722892,"Delta":124281397},{"NoteNumber":54,"Velocity":67,"Duration":722892,"SoundDuration":722892,"Delta":124281397},{"NoteNumber":56,"Velocity":83,"Duration":525550,"SoundDuration":525550,"Delta":125004289},{"NoteNumber":53,"Velocity":70,"Duration":525550,"SoundDuration":525550,"Delta":125004289},{"NoteNumber":83,"Velocity":93,"Duration":903615,"SoundDuration":903615,"Delta":125349117},{"NoteNumber":80,"Velocity":79,"Duration":903615,"SoundDuration":903615,"Delta":125349117},{"NoteNumber":54,"Velocity":59,"Duration":99397,"SoundDuration":99397,"Delta":125529840},{"NoteNumber":58,"Velocity":70,"Duration":99397,"SoundDuration":99397,"Delta":125529840},{"NoteNumber":56,"Velocity":59,"Duration":99397,"SoundDuration":99397,"Delta":125620201},{"NoteNumber":59,"Velocity":70,"Duration":99397,"SoundDuration":99397,"Delta":125620201},{"NoteNumber":48,"Velocity":72,"Duration":180723,"SoundDuration":180723,"Delta":125710563},{"NoteNumber":51,"Velocity":85,"Duration":180723,"SoundDuration":180723,"Delta":125710563},{"NoteNumber":50,"Velocity":68,"Duration":180723,"SoundDuration":180723,"Delta":126072009},{"NoteNumber":53,"Velocity":80,"Duration":180723,"SoundDuration":180723,"Delta":126072009},{"NoteNumber":78,"Velocity":68,"Duration":89189,"SoundDuration":89189,"Delta":126252732},{"NoteNumber":82,"Velocity":80,"Duration":89189,"SoundDuration":89189,"Delta":126252732},{"NoteNumber":77,"Velocity":62,"Duration":89701,"SoundDuration":89701,"Delta":126333813},{"NoteNumber":80,"Velocity":74,"Duration":89701,"SoundDuration":89701,"Delta":126333813},{"NoteNumber":75,"Velocity":86,"Duration":172413,"SoundDuration":172413,"Delta":126414894},{"NoteNumber":78,"Velocity":93,"Duration":172413,"SoundDuration":172413,"Delta":126414894},{"NoteNumber":54,"Velocity":83,"Duration":525550,"SoundDuration":525550,"Delta":126414894},{"NoteNumber":51,"Velocity":70,"Duration":525550,"SoundDuration":525550,"Delta":126414894},{"NoteNumber":82,"Velocity":93,"Duration":903614,"SoundDuration":903614,"Delta":126759722},{"NoteNumber":78,"Velocity":79,"Duration":903614,"SoundDuration":903614,"Delta":126759722},{"NoteNumber":53,"Velocity":59,"Duration":99397,"SoundDuration":99397,"Delta":126940445},{"NoteNumber":56,"Velocity":70,"Duration":99397,"SoundDuration":99397,"Delta":126940445},{"NoteNumber":54,"Velocity":59,"Duration":99397,"SoundDuration":99397,"Delta":127030806},{"NoteNumber":58,"Velocity":70,"Duration":99397,"SoundDuration":99397,"Delta":127030806},{"NoteNumber":46,"Velocity":72,"Duration":180722,"SoundDuration":180722,"Delta":127121168},{"NoteNumber":49,"Velocity":85,"Duration":180722,"SoundDuration":180722,"Delta":127121168},{"NoteNumber":48,"Velocity":68,"Duration":180723,"SoundDuration":180723,"Delta":127482614},{"NoteNumber":51,"Velocity":80,"Duration":180723,"SoundDuration":180723,"Delta":127482614},{"NoteNumber":77,"Velocity":68,"Duration":89189,"SoundDuration":89189,"Delta":127663337},{"NoteNumber":80,"Velocity":80,"Duration":89189,"SoundDuration":89189,"Delta":127663337},{"NoteNumber":75,"Velocity":62,"Duration":89701,"SoundDuration":89701,"Delta":127744418},{"NoteNumber":78,"Velocity":74,"Duration":89701,"SoundDuration":89701,"Delta":127744418},{"NoteNumber":77,"Velocity":91,"Duration":525550,"SoundDuration":525550,"Delta":127825499},{"NoteNumber":73,"Velocity":77,"Duration":525550,"SoundDuration":525550,"Delta":127825499},{"NoteNumber":49,"Velocity":78,"Duration":172413,"SoundDuration":172413,"Delta":127825499},{"NoteNumber":53,"Velocity":83,"Duration":172413,"SoundDuration":172413,"Delta":127825499},{"NoteNumber":56,"Velocity":83,"Duration":903615,"SoundDuration":903615,"Delta":128170326},{"NoteNumber":53,"Velocity":70,"Duration":903615,"SoundDuration":903615,"Delta":128170326},{"NoteNumber":75,"Velocity":64,"Duration":99397,"SoundDuration":99397,"Delta":128351049},{"NoteNumber":78,"Velocity":77,"Duration":99397,"SoundDuration":99397,"Delta":128351049},{"NoteNumber":77,"Velocity":64,"Duration":99397,"SoundDuration":99397,"Delta":128441411},{"NoteNumber":80,"Velocity":77,"Duration":99397,"SoundDuration":99397,"Delta":128441411},{"NoteNumber":68,"Velocity":79,"Duration":180723,"SoundDuration":180723,"Delta":128531772},{"NoteNumber":72,"Velocity":93,"Duration":180723,"SoundDuration":180723,"Delta":128531772},{"NoteNumber":70,"Velocity":74,"Duration":180723,"SoundDuration":180723,"Delta":128893218},{"NoteNumber":73,"Velocity":88,"Duration":180723,"SoundDuration":180723,"Delta":128893218},{"NoteNumber":51,"Velocity":60,"Duration":99397,"SoundDuration":99397,"Delta":129073941},{"NoteNumber":54,"Velocity":71,"Duration":99397,"SoundDuration":99397,"Delta":129073941},{"NoteNumber":49,"Velocity":56,"Duration":98982,"SoundDuration":98982,"Delta":129164303},{"NoteNumber":53,"Velocity":67,"Duration":98982,"SoundDuration":98982,"Delta":129164303},{"NoteNumber":75,"Velocity":91,"Duration":525550,"SoundDuration":525550,"Delta":129254664},{"NoteNumber":72,"Velocity":77,"Duration":525550,"SoundDuration":525550,"Delta":129254664},{"NoteNumber":48,"Velocity":78,"Duration":172413,"SoundDuration":172413,"Delta":129254664},{"NoteNumber":51,"Velocity":83,"Duration":172413,"SoundDuration":172413,"Delta":129254664},{"NoteNumber":66,"Velocity":83,"Duration":903615,"SoundDuration":903615,"Delta":129599492},{"NoteNumber":63,"Velocity":70,"Duration":903615,"SoundDuration":903615,"Delta":129599492},{"NoteNumber":73,"Velocity":64,"Duration":99397,"SoundDuration":99397,"Delta":129780215},{"NoteNumber":77,"Velocity":77,"Duration":99397,"SoundDuration":99397,"Delta":129780215},{"NoteNumber":75,"Velocity":64,"Duration":99397,"SoundDuration":99397,"Delta":129870576},{"NoteNumber":78,"Velocity":77,"Duration":99397,"SoundDuration":99397,"Delta":129870576},{"NoteNumber":67,"Velocity":79,"Duration":180723,"SoundDuration":180723,"Delta":129960938},{"NoteNumber":70,"Velocity":93,"Duration":180723,"SoundDuration":180723,"Delta":129960938},{"NoteNumber":69,"Velocity":74,"Duration":180723,"SoundDuration":180723,"Delta":130322384},{"NoteNumber":72,"Velocity":88,"Duration":180723,"SoundDuration":180723,"Delta":130322384},{"NoteNumber":61,"Velocity":60,"Duration":99397,"SoundDuration":99397,"Delta":130503107},{"NoteNumber":65,"Velocity":71,"Duration":99397,"SoundDuration":99397,"Delta":130503107},{"NoteNumber":60,"Velocity":56,"Duration":98982,"SoundDuration":98982,"Delta":130593468},{"NoteNumber":63,"Velocity":67,"Duration":98982,"SoundDuration":98982,"Delta":130593468},{"NoteNumber":73,"Velocity":91,"Duration":525550,"SoundDuration":525550,"Delta":130683830},{"NoteNumber":70,"Velocity":77,"Duration":706273,"SoundDuration":706273,"Delta":130683830},{"NoteNumber":61,"Velocity":83,"Duration":525550,"SoundDuration":525550,"Delta":130683830},{"NoteNumber":58,"Velocity":70,"Duration":525550,"SoundDuration":525550,"Delta":130683830},{"NoteNumber":75,"Velocity":77,"Duration":90361,"SoundDuration":90361,"Delta":131209380},{"NoteNumber":56,"Velocity":59,"Duration":180723,"SoundDuration":180723,"Delta":131209380},{"NoteNumber":60,"Velocity":70,"Duration":180723,"SoundDuration":180723,"Delta":131209380},{"NoteNumber":77,"Velocity":77,"Duration":90361,"SoundDuration":90361,"Delta":131299742},{"NoteNumber":78,"Velocity":91,"Duration":525550,"SoundDuration":525550,"Delta":131390103},{"NoteNumber":70,"Velocity":77,"Duration":706273,"SoundDuration":706273,"Delta":131390103},{"NoteNumber":58,"Velocity":83,"Duration":525550,"SoundDuration":525550,"Delta":131390103},{"NoteNumber":54,"Velocity":70,"Duration":525550,"SoundDuration":525550,"Delta":131390103},{"NoteNumber":80,"Velocity":77,"Duration":90361,"SoundDuration":90361,"Delta":131915654},{"NoteNumber":53,"Velocity":59,"Duration":180723,"SoundDuration":180723,"Delta":131915654},{"NoteNumber":56,"Velocity":70,"Duration":180723,"SoundDuration":180723,"Delta":131915654},{"NoteNumber":82,"Velocity":77,"Duration":90361,"SoundDuration":90361,"Delta":132006015},{"NoteNumber":83,"Velocity":91,"Duration":525550,"SoundDuration":525550,"Delta":132096377},{"NoteNumber":78,"Velocity":77,"Duration":706273,"SoundDuration":706273,"Delta":132096377},{"NoteNumber":54,"Velocity":83,"Duration":344827,"SoundDuration":344827,"Delta":132096377},{"NoteNumber":51,"Velocity":70,"Duration":706273,"SoundDuration":706273,"Delta":132096377},{"NoteNumber":63,"Velocity":70,"Duration":361446,"SoundDuration":361446,"Delta":132441204},{"NoteNumber":85,"Velocity":77,"Duration":90361,"SoundDuration":90361,"Delta":132621927},{"NoteNumber":87,"Velocity":77,"Duration":90361,"SoundDuration":90361,"Delta":132712289},{"NoteNumber":65,"Velocity":77,"Duration":180723,"SoundDuration":180723,"Delta":132802650},{"NoteNumber":70,"Velocity":91,"Duration":180723,"SoundDuration":180723,"Delta":132802650},{"NoteNumber":53,"Velocity":70,"Duration":180723,"SoundDuration":180723,"Delta":132802650},{"NoteNumber":61,"Velocity":83,"Duration":180723,"SoundDuration":180723,"Delta":132802650},{"NoteNumber":63,"Velocity":74,"Duration":180723,"SoundDuration":180723,"Delta":133164096},{"NoteNumber":69,"Velocity":88,"Duration":180723,"SoundDuration":180723,"Delta":133164096},{"NoteNumber":60,"Velocity":79,"Duration":180723,"SoundDuration":180723,"Delta":133164096},{"NoteNumber":53,"Velocity":67,"Duration":180723,"SoundDuration":180723,"Delta":133164096},{"NoteNumber":61,"Velocity":75,"Duration":188679,"SoundDuration":188679,"Delta":133525542},{"NoteNumber":70,"Velocity":90,"Duration":188679,"SoundDuration":188679,"Delta":133525542},{"NoteNumber":46,"Velocity":61,"Duration":188679,"SoundDuration":188679,"Delta":133525542},{"NoteNumber":58,"Velocity":72,"Duration":188679,"SoundDuration":188679,"Delta":133525542},{"NoteNumber":65,"Velocity":36,"Duration":96491,"SoundDuration":96491,"Delta":133714222},{"NoteNumber":45,"Velocity":30,"Duration":87719,"SoundDuration":87719,"Delta":133714222},{"NoteNumber":48,"Velocity":36,"Duration":87719,"SoundDuration":87719,"Delta":133714222},{"NoteNumber":63,"Velocity":31,"Duration":87719,"SoundDuration":87719,"Delta":133801941},{"NoteNumber":65,"Velocity":36,"Duration":96491,"SoundDuration":96491,"Delta":133889660},{"NoteNumber":46,"Velocity":30,"Duration":87719,"SoundDuration":87719,"Delta":133889660},{"NoteNumber":49,"Velocity":36,"Duration":87719,"SoundDuration":87719,"Delta":133889660},{"NoteNumber":61,"Velocity":32,"Duration":87719,"SoundDuration":87719,"Delta":133977379},{"NoteNumber":65,"Velocity":36,"Duration":95375,"SoundDuration":95375,"Delta":134065099},{"NoteNumber":48,"Velocity":30,"Duration":86705,"SoundDuration":86705,"Delta":134065099},{"NoteNumber":51,"Velocity":36,"Duration":86705,"SoundDuration":86705,"Delta":134065099},{"NoteNumber":60,"Velocity":31,"Duration":86705,"SoundDuration":86705,"Delta":134151804},{"NoteNumber":65,"Velocity":42,"Duration":95375,"SoundDuration":95375,"Delta":134238509},{"NoteNumber":49,"Velocity":34,"Duration":86705,"SoundDuration":86705,"Delta":134238509},{"NoteNumber":53,"Velocity":40,"Duration":86705,"SoundDuration":86705,"Delta":134238509},{"NoteNumber":58,"Velocity":31,"Duration":86705,"SoundDuration":86705,"Delta":134325214},{"NoteNumber":65,"Velocity":36,"Duration":95375,"SoundDuration":95375,"Delta":134411920},{"NoteNumber":51,"Velocity":29,"Duration":86705,"SoundDuration":86705,"Delta":134411920},{"NoteNumber":54,"Velocity":35,"Duration":86705,"SoundDuration":86705,"Delta":134411920},{"NoteNumber":57,"Velocity":31,"Duration":86705,"SoundDuration":86705,"Delta":134498625},{"NoteNumber":65,"Velocity":36,"Duration":95375,"SoundDuration":95375,"Delta":134585330},{"NoteNumber":49,"Velocity":29,"Duration":86705,"SoundDuration":86705,"Delta":134585330},{"NoteNumber":53,"Velocity":35,"Duration":86705,"SoundDuration":86705,"Delta":134585330},{"NoteNumber":58,"Velocity":30,"Duration":86705,"SoundDuration":86705,"Delta":134672035},{"NoteNumber":65,"Velocity":36,"Duration":104430,"SoundDuration":104430,"Delta":134758741},{"NoteNumber":48,"Velocity":29,"Duration":94936,"SoundDuration":94936,"Delta":134758741},{"NoteNumber":51,"Velocity":35,"Duration":94936,"SoundDuration":94936,"Delta":134758741},{"NoteNumber":60,"Velocity":31,"Duration":94936,"SoundDuration":94936,"Delta":134853677},{"NoteNumber":65,"Velocity":45,"Duration":96491,"SoundDuration":96491,"Delta":134948614},{"NoteNumber":46,"Velocity":34,"Duration":87719,"SoundDuration":87719,"Delta":134948614},{"NoteNumber":49,"Velocity":40,"Duration":87719,"SoundDuration":87719,"Delta":134948614},{"NoteNumber":61,"Velocity":31,"Duration":87719,"SoundDuration":87719,"Delta":135036333},{"NoteNumber":70,"Velocity":36,"Duration":94827,"SoundDuration":94827,"Delta":135124053},{"NoteNumber":50,"Velocity":30,"Duration":86206,"SoundDuration":86206,"Delta":135124053},{"NoteNumber":53,"Velocity":36,"Duration":86206,"SoundDuration":86206,"Delta":135124053},{"NoteNumber":68,"Velocity":31,"Duration":86206,"SoundDuration":86206,"Delta":135210259},{"NoteNumber":70,"Velocity":36,"Duration":94827,"SoundDuration":94827,"Delta":135296466},{"NoteNumber":51,"Velocity":30,"Duration":86206,"SoundDuration":86206,"Delta":135296466},{"NoteNumber":54,"Velocity":36,"Duration":86206,"SoundDuration":86206,"Delta":135296466},{"NoteNumber":66,"Velocity":32,"Duration":86206,"SoundDuration":86206,"Delta":135382673},{"NoteNumber":70,"Velocity":36,"Duration":94827,"SoundDuration":94827,"Delta":135468880},{"NoteNumber":56,"Velocity":36,"Duration":86206,"SoundDuration":86206,"Delta":135468880},{"NoteNumber":53,"Velocity":30,"Duration":86206,"SoundDuration":86206,"Delta":135468880},{"NoteNumber":65,"Velocity":31,"Duration":86206,"SoundDuration":86206,"Delta":135555087},{"NoteNumber":70,"Velocity":42,"Duration":94827,"SoundDuration":94827,"Delta":135641294},{"NoteNumber":58,"Velocity":40,"Duration":86206,"SoundDuration":86206,"Delta":135641294},{"NoteNumber":54,"Velocity":34,"Duration":86206,"SoundDuration":86206,"Delta":135641294},{"NoteNumber":63,"Velocity":31,"Duration":86206,"SoundDuration":86206,"Delta":135727501},{"NoteNumber":70,"Velocity":36,"Duration":94827,"SoundDuration":94827,"Delta":135813708},{"NoteNumber":56,"Velocity":30,"Duration":86206,"SoundDuration":86206,"Delta":135813708},{"NoteNumber":59,"Velocity":36,"Duration":86206,"SoundDuration":86206,"Delta":135813708},{"NoteNumber":62,"Velocity":31,"Duration":86206,"SoundDuration":86206,"Delta":135899914},{"NoteNumber":70,"Velocity":36,"Duration":94827,"SoundDuration":94827,"Delta":135986121},{"NoteNumber":54,"Velocity":30,"Duration":86206,"SoundDuration":86206,"Delta":135986121},{"NoteNumber":58,"Velocity":36,"Duration":86206,"SoundDuration":86206,"Delta":135986121},{"NoteNumber":63,"Velocity":30,"Duration":86206,"SoundDuration":86206,"Delta":136072328},{"NoteNumber":70,"Velocity":36,"Duration":100609,"SoundDuration":100609,"Delta":136158535},{"NoteNumber":53,"Velocity":30,"Duration":91463,"SoundDuration":91463,"Delta":136158535},{"NoteNumber":56,"Velocity":36,"Duration":91463,"SoundDuration":91463,"Delta":136158535},{"NoteNumber":65,"Velocity":31,"Duration":91463,"SoundDuration":91463,"Delta":136249998},{"NoteNumber":70,"Velocity":49,"Duration":95930,"SoundDuration":95930,"Delta":136341462},{"NoteNumber":51,"Velocity":38,"Duration":87209,"SoundDuration":87209,"Delta":136341462},{"NoteNumber":54,"Velocity":45,"Duration":87209,"SoundDuration":87209,"Delta":136341462},{"NoteNumber":66,"Velocity":34,"Duration":87209,"SoundDuration":87209,"Delta":136428671},{"NoteNumber":70,"Velocity":39,"Duration":94285,"SoundDuration":94285,"Delta":136515880},{"NoteNumber":51,"Velocity":30,"Duration":85714,"SoundDuration":85714,"Delta":136515880},{"NoteNumber":54,"Velocity":36,"Duration":85714,"SoundDuration":85714,"Delta":136515880},{"NoteNumber":66,"Velocity":34,"Duration":85714,"SoundDuration":85714,"Delta":136601595},{"NoteNumber":72,"Velocity":39,"Duration":94285,"SoundDuration":94285,"Delta":136687309},{"NoteNumber":52,"Velocity":30,"Duration":85714,"SoundDuration":85714,"Delta":136687309},{"NoteNumber":55,"Velocity":36,"Duration":85714,"SoundDuration":85714,"Delta":136687309},{"NoteNumber":70,"Velocity":35,"Duration":85714,"SoundDuration":85714,"Delta":136773023},{"NoteNumber":72,"Velocity":39,"Duration":94285,"SoundDuration":94285,"Delta":136858737},{"NoteNumber":52,"Velocity":30,"Duration":85714,"SoundDuration":85714,"Delta":136858737},{"NoteNumber":55,"Velocity":36,"Duration":85714,"SoundDuration":85714,"Delta":136858737},{"NoteNumber":70,"Velocity":34,"Duration":85714,"SoundDuration":85714,"Delta":136944452},{"NoteNumber":73,"Velocity":46,"Duration":94285,"SoundDuration":94285,"Delta":137030166},{"NoteNumber":53,"Velocity":39,"Duration":85714,"SoundDuration":85714,"Delta":137030166},{"NoteNumber":58,"Velocity":47,"Duration":85714,"SoundDuration":85714,"Delta":137030166},{"NoteNumber":70,"Velocity":34,"Duration":85714,"SoundDuration":85714,"Delta":137115880},{"NoteNumber":73,"Velocity":39,"Duration":94285,"SoundDuration":94285,"Delta":137201594},{"NoteNumber":53,"Velocity":32,"Duration":85714,"SoundDuration":85714,"Delta":137201594},{"NoteNumber":58,"Velocity":38,"Duration":85714,"SoundDuration":85714,"Delta":137201594},{"NoteNumber":70,"Velocity":34,"Duration":85714,"SoundDuration":85714,"Delta":137287309},{"NoteNumber":75,"Velocity":39,"Duration":94285,"SoundDuration":94285,"Delta":137373023},{"NoteNumber":53,"Velocity":32,"Duration":85714,"SoundDuration":85714,"Delta":137373023},{"NoteNumber":60,"Velocity":38,"Duration":85714,"SoundDuration":85714,"Delta":137373023},{"NoteNumber":69,"Velocity":33,"Duration":85714,"SoundDuration":85714,"Delta":137458737},{"NoteNumber":75,"Velocity":39,"Duration":100000,"SoundDuration":100000,"Delta":137544451},{"NoteNumber":53,"Velocity":32,"Duration":90909,"SoundDuration":90909,"Delta":137544451},{"NoteNumber":60,"Velocity":38,"Duration":90909,"SoundDuration":90909,"Delta":137544451},{"NoteNumber":69,"Velocity":34,"Duration":90909,"SoundDuration":90909,"Delta":137635360},{"NoteNumber":70,"Velocity":74,"Duration":188679,"SoundDuration":188679,"Delta":137726270},{"NoteNumber":46,"Velocity":58,"Duration":188679,"SoundDuration":188679,"Delta":137726270},{"NoteNumber":58,"Velocity":69,"Duration":188679,"SoundDuration":188679,"Delta":137726270},{"NoteNumber":77,"Velocity":48,"Duration":94285,"SoundDuration":94285,"Delta":137914949},{"NoteNumber":65,"Velocity":40,"Duration":85714,"SoundDuration":85714,"Delta":137914949},{"NoteNumber":45,"Velocity":40,"Duration":85714,"SoundDuration":85714,"Delta":137914949},{"NoteNumber":57,"Velocity":48,"Duration":85714,"SoundDuration":85714,"Delta":137914949},{"NoteNumber":75,"Velocity":42,"Duration":85714,"SoundDuration":85714,"Delta":138000663},{"NoteNumber":65,"Velocity":40,"Duration":85714,"SoundDuration":85714,"Delta":138086377},{"NoteNumber":77,"Velocity":48,"Duration":94285,"SoundDuration":94285,"Delta":138086377},{"NoteNumber":46,"Velocity":40,"Duration":85714,"SoundDuration":85714,"Delta":138086377},{"NoteNumber":58,"Velocity":48,"Duration":85714,"SoundDuration":85714,"Delta":138086377},{"NoteNumber":73,"Velocity":43,"Duration":85714,"SoundDuration":85714,"Delta":138172092},{"NoteNumber":65,"Velocity":40,"Duration":85714,"SoundDuration":85714,"Delta":138257806},{"NoteNumber":77,"Velocity":50,"Duration":94285,"SoundDuration":94285,"Delta":138257806},{"NoteNumber":48,"Velocity":40,"Duration":85714,"SoundDuration":85714,"Delta":138257806},{"NoteNumber":60,"Velocity":50,"Duration":85714,"SoundDuration":85714,"Delta":138257806},{"NoteNumber":72,"Velocity":45,"Duration":85714,"SoundDuration":85714,"Delta":138343520},{"NoteNumber":77,"Velocity":59,"Duration":94285,"SoundDuration":94285,"Delta":138429234},{"NoteNumber":65,"Velocity":49,"Duration":85714,"SoundDuration":85714,"Delta":138429234},{"NoteNumber":49,"Velocity":48,"Duration":85714,"SoundDuration":85714,"Delta":138429234},{"NoteNumber":61,"Velocity":57,"Duration":85714,"SoundDuration":85714,"Delta":138429234},{"NoteNumber":70,"Velocity":45,"Duration":85714,"SoundDuration":85714,"Delta":138514949},{"NoteNumber":65,"Velocity":44,"Duration":85714,"SoundDuration":85714,"Delta":138600663},{"NoteNumber":77,"Velocity":54,"Duration":94285,"SoundDuration":94285,"Delta":138600663},{"NoteNumber":51,"Velocity":43,"Duration":85714,"SoundDuration":85714,"Delta":138600663},{"NoteNumber":63,"Velocity":51,"Duration":85714,"SoundDuration":85714,"Delta":138600663},{"NoteNumber":69,"Velocity":45,"Duration":85714,"SoundDuration":85714,"Delta":138686377},{"NoteNumber":65,"Velocity":44,"Duration":85714,"SoundDuration":85714,"Delta":138772091},{"NoteNumber":77,"Velocity":54,"Duration":94285,"SoundDuration":94285,"Delta":138772091},{"NoteNumber":49,"Velocity":43,"Duration":85714,"SoundDuration":85714,"Delta":138772091},{"NoteNumber":61,"Velocity":53,"Duration":85714,"SoundDuration":85714,"Delta":138772091},{"NoteNumber":70,"Velocity":45,"Duration":85714,"SoundDuration":85714,"Delta":138857806},{"NoteNumber":77,"Velocity":56,"Duration":100609,"SoundDuration":100609,"Delta":138943520},{"NoteNumber":65,"Velocity":46,"Duration":91463,"SoundDuration":91463,"Delta":138943520},{"NoteNumber":48,"Velocity":43,"Duration":91463,"SoundDuration":91463,"Delta":138943520},{"NoteNumber":60,"Velocity":54,"Duration":91463,"SoundDuration":91463,"Delta":138943520},{"NoteNumber":72,"Velocity":47,"Duration":91463,"SoundDuration":91463,"Delta":139034983},{"NoteNumber":65,"Velocity":61,"Duration":89820,"SoundDuration":89820,"Delta":139126447},{"NoteNumber":77,"Velocity":72,"Duration":98802,"SoundDuration":98802,"Delta":139126447},{"NoteNumber":46,"Velocity":54,"Duration":89820,"SoundDuration":89820,"Delta":139126447},{"NoteNumber":58,"Velocity":64,"Duration":89820,"SoundDuration":89820,"Delta":139126447},{"NoteNumber":73,"Velocity":48,"Duration":89820,"SoundDuration":89820,"Delta":139216267},{"NoteNumber":70,"Velocity":48,"Duration":86206,"SoundDuration":86206,"Delta":139306087},{"NoteNumber":82,"Velocity":58,"Duration":94827,"SoundDuration":94827,"Delta":139306087},{"NoteNumber":50,"Velocity":48,"Duration":86206,"SoundDuration":86206,"Delta":139306087},{"NoteNumber":62,"Velocity":58,"Duration":86206,"SoundDuration":86206,"Delta":139306087},{"NoteNumber":80,"Velocity":50,"Duration":86206,"SoundDuration":86206,"Delta":139392294},{"NoteNumber":70,"Velocity":50,"Duration":86206,"SoundDuration":86206,"Delta":139478501},{"NoteNumber":82,"Velocity":59,"Duration":94827,"SoundDuration":94827,"Delta":139478501},{"NoteNumber":51,"Velocity":50,"Duration":86206,"SoundDuration":86206,"Delta":139478501},{"NoteNumber":63,"Velocity":59,"Duration":86206,"SoundDuration":86206,"Delta":139478501},{"NoteNumber":78,"Velocity":55,"Duration":86206,"SoundDuration":86206,"Delta":139564708},{"NoteNumber":82,"Velocity":62,"Duration":94827,"SoundDuration":94827,"Delta":139650915},{"NoteNumber":70,"Velocity":50,"Duration":86206,"SoundDuration":86206,"Delta":139650915},{"NoteNumber":65,"Velocity":62,"Duration":86206,"SoundDuration":86206,"Delta":139650915},{"NoteNumber":53,"Velocity":50,"Duration":86206,"SoundDuration":86206,"Delta":139650915},{"NoteNumber":77,"Velocity":54,"Duration":86206,"SoundDuration":86206,"Delta":139737122},{"NoteNumber":70,"Velocity":62,"Duration":86206,"SoundDuration":86206,"Delta":139823329},{"NoteNumber":82,"Velocity":73,"Duration":94827,"SoundDuration":94827,"Delta":139823329},{"NoteNumber":66,"Velocity":70,"Duration":86206,"SoundDuration":86206,"Delta":139823329},{"NoteNumber":54,"Velocity":58,"Duration":86206,"SoundDuration":86206,"Delta":139823329},{"NoteNumber":75,"Velocity":54,"Duration":86206,"SoundDuration":86206,"Delta":139909535},{"NoteNumber":82,"Velocity":66,"Duration":94827,"SoundDuration":94827,"Delta":139995742},{"NoteNumber":70,"Velocity":53,"Duration":86206,"SoundDuration":86206,"Delta":139995742},{"NoteNumber":56,"Velocity":53,"Duration":86206,"SoundDuration":86206,"Delta":139995742},{"NoteNumber":68,"Velocity":66,"Duration":86206,"SoundDuration":86206,"Delta":139995742},{"NoteNumber":74,"Velocity":55,"Duration":86206,"SoundDuration":86206,"Delta":140081949},{"NoteNumber":70,"Velocity":53,"Duration":86206,"SoundDuration":86206,"Delta":140168156},{"NoteNumber":82,"Velocity":66,"Duration":94827,"SoundDuration":94827,"Delta":140168156},{"NoteNumber":54,"Velocity":53,"Duration":86206,"SoundDuration":86206,"Delta":140168156},{"NoteNumber":66,"Velocity":66,"Duration":86206,"SoundDuration":86206,"Delta":140168156},{"NoteNumber":75,"Velocity":55,"Duration":86206,"SoundDuration":86206,"Delta":140254363},{"NoteNumber":70,"Velocity":57,"Duration":90361,"SoundDuration":90361,"Delta":140340570},{"NoteNumber":82,"Velocity":69,"Duration":99397,"SoundDuration":99397,"Delta":140340570},{"NoteNumber":53,"Velocity":57,"Duration":90361,"SoundDuration":90361,"Delta":140340570},{"NoteNumber":65,"Velocity":69,"Duration":90361,"SoundDuration":90361,"Delta":140340570},{"NoteNumber":77,"Velocity":58,"Duration":90361,"SoundDuration":90361,"Delta":140430931},{"NoteNumber":82,"Velocity":86,"Duration":94827,"SoundDuration":94827,"Delta":140521293},{"NoteNumber":70,"Velocity":70,"Duration":86206,"SoundDuration":86206,"Delta":140521293},{"NoteNumber":51,"Velocity":74,"Duration":86206,"SoundDuration":86206,"Delta":140521293},{"NoteNumber":63,"Velocity":88,"Duration":86206,"SoundDuration":86206,"Delta":140521293},{"NoteNumber":78,"Velocity":66,"Duration":86206,"SoundDuration":86206,"Delta":140607500},{"NoteNumber":70,"Velocity":63,"Duration":86206,"SoundDuration":86206,"Delta":140693707},{"NoteNumber":82,"Velocity":75,"Duration":94827,"SoundDuration":94827,"Delta":140693707},{"NoteNumber":63,"Velocity":58,"Duration":86206,"SoundDuration":86206,"Delta":140693707},{"NoteNumber":66,"Velocity":69,"Duration":86206,"SoundDuration":86206,"Delta":140693707},{"NoteNumber":78,"Velocity":68,"Duration":86206,"SoundDuration":86206,"Delta":140779913},{"NoteNumber":72,"Velocity":66,"Duration":86206,"SoundDuration":86206,"Delta":140866120},{"NoteNumber":84,"Velocity":78,"Duration":94827,"SoundDuration":94827,"Delta":140866120},{"NoteNumber":64,"Velocity":60,"Duration":86206,"SoundDuration":86206,"Delta":140866120},{"NoteNumber":67,"Velocity":72,"Duration":86206,"SoundDuration":86206,"Delta":140866120},{"NoteNumber":82,"Velocity":71,"Duration":86206,"SoundDuration":86206,"Delta":140952327},{"NoteNumber":84,"Velocity":78,"Duration":94827,"SoundDuration":94827,"Delta":141038534},{"NoteNumber":72,"Velocity":66,"Duration":86206,"SoundDuration":86206,"Delta":141038534},{"NoteNumber":64,"Velocity":60,"Duration":86206,"SoundDuration":86206,"Delta":141038534},{"NoteNumber":67,"Velocity":72,"Duration":86206,"SoundDuration":86206,"Delta":141038534},{"NoteNumber":82,"Velocity":71,"Duration":86206,"SoundDuration":86206,"Delta":141124741},{"NoteNumber":85,"Velocity":97,"Duration":95930,"SoundDuration":95930,"Delta":141210948},{"NoteNumber":73,"Velocity":82,"Duration":87209,"SoundDuration":87209,"Delta":141210948},{"NoteNumber":65,"Velocity":73,"Duration":87209,"SoundDuration":87209,"Delta":141210948},{"NoteNumber":70,"Velocity":90,"Duration":87209,"SoundDuration":87209,"Delta":141210948},{"NoteNumber":82,"Velocity":71,"Duration":87209,"SoundDuration":87209,"Delta":141298157},{"NoteNumber":73,"Velocity":69,"Duration":87209,"SoundDuration":87209,"Delta":141385366},{"NoteNumber":85,"Velocity":86,"Duration":95930,"SoundDuration":95930,"Delta":141385366},{"NoteNumber":65,"Velocity":68,"Duration":87209,"SoundDuration":87209,"Delta":141385366},{"NoteNumber":70,"Velocity":81,"Duration":87209,"SoundDuration":87209,"Delta":141385366},{"NoteNumber":82,"Velocity":74,"Duration":87209,"SoundDuration":87209,"Delta":141472576},{"NoteNumber":75,"Velocity":73,"Duration":89820,"SoundDuration":89820,"Delta":141559785},{"NoteNumber":87,"Velocity":86,"Duration":98802,"SoundDuration":98802,"Delta":141559785},{"NoteNumber":65,"Velocity":70,"Duration":89820,"SoundDuration":89820,"Delta":141559785},{"NoteNumber":72,"Velocity":85,"Duration":89820,"SoundDuration":89820,"Delta":141559785},{"NoteNumber":81,"Velocity":73,"Duration":89820,"SoundDuration":89820,"Delta":141649605},{"NoteNumber":87,"Velocity":87,"Duration":114583,"SoundDuration":114583,"Delta":141739426},{"NoteNumber":75,"Velocity":75,"Duration":104166,"SoundDuration":104166,"Delta":141739426},{"NoteNumber":65,"Velocity":71,"Duration":104166,"SoundDuration":104166,"Delta":141739426},{"NoteNumber":72,"Velocity":86,"Duration":104166,"SoundDuration":104166,"Delta":141739426},{"NoteNumber":81,"Velocity":77,"Duration":104166,"SoundDuration":104166,"Delta":141843592},{"NoteNumber":82,"Velocity":100,"Duration":201342,"SoundDuration":201342,"Delta":141947759},{"NoteNumber":58,"Velocity":66,"Duration":100671,"SoundDuration":100671,"Delta":141947759},{"NoteNumber":61,"Velocity":66,"Duration":100671,"SoundDuration":100671,"Delta":141947759},{"NoteNumber":65,"Velocity":66,"Duration":100671,"SoundDuration":100671,"Delta":141947759},{"NoteNumber":70,"Velocity":78,"Duration":100671,"SoundDuration":100671,"Delta":141947759},{"NoteNumber":89,"Velocity":97,"Duration":360363,"SoundDuration":360363,"Delta":142149101},{"NoteNumber":58,"Velocity":55,"Duration":90361,"SoundDuration":90361,"Delta":142149101},{"NoteNumber":61,"Velocity":55,"Duration":90361,"SoundDuration":90361,"Delta":142149101},{"NoteNumber":65,"Velocity":55,"Duration":90361,"SoundDuration":90361,"Delta":142149101},{"NoteNumber":70,"Velocity":66,"Duration":90361,"SoundDuration":90361,"Delta":142149101},{"NoteNumber":58,"Velocity":49,"Duration":89820,"SoundDuration":89820,"Delta":142329824},{"NoteNumber":61,"Velocity":49,"Duration":89820,"SoundDuration":89820,"Delta":142329824},{"NoteNumber":65,"Velocity":49,"Duration":89820,"SoundDuration":89820,"Delta":142329824},{"NoteNumber":70,"Velocity":58,"Duration":89820,"SoundDuration":89820,"Delta":142329824},{"NoteNumber":89,"Velocity":93,"Duration":179640,"SoundDuration":179640,"Delta":142509465},{"NoteNumber":58,"Velocity":49,"Duration":89820,"SoundDuration":89820,"Delta":142509465},{"NoteNumber":61,"Velocity":49,"Duration":89820,"SoundDuration":89820,"Delta":142509465},{"NoteNumber":65,"Velocity":49,"Duration":89820,"SoundDuration":89820,"Delta":142509465},{"NoteNumber":70,"Velocity":58,"Duration":89820,"SoundDuration":89820,"Delta":142509465},{"NoteNumber":87,"Velocity":94,"Duration":87719,"SoundDuration":87719,"Delta":142689106},{"NoteNumber":58,"Velocity":51,"Duration":87719,"SoundDuration":87719,"Delta":142689106},{"NoteNumber":60,"Velocity":51,"Duration":87719,"SoundDuration":87719,"Delta":142689106},{"NoteNumber":63,"Velocity":51,"Duration":87719,"SoundDuration":87719,"Delta":142689106},{"NoteNumber":65,"Velocity":51,"Duration":87719,"SoundDuration":87719,"Delta":142689106},{"NoteNumber":69,"Velocity":61,"Duration":87719,"SoundDuration":87719,"Delta":142689106},{"NoteNumber":84,"Velocity":74,"Duration":87719,"SoundDuration":87719,"Delta":142776825},{"NoteNumber":81,"Velocity":81,"Duration":87719,"SoundDuration":87719,"Delta":142864544},{"NoteNumber":58,"Velocity":44,"Duration":87719,"SoundDuration":87719,"Delta":142864544},{"NoteNumber":60,"Velocity":44,"Duration":87719,"SoundDuration":87719,"Delta":142864544},{"NoteNumber":63,"Velocity":44,"Duration":87719,"SoundDuration":87719,"Delta":142864544},{"NoteNumber":65,"Velocity":44,"Duration":87719,"SoundDuration":87719,"Delta":142864544},{"NoteNumber":69,"Velocity":52,"Duration":87719,"SoundDuration":87719,"Delta":142864544},{"NoteNumber":77,"Velocity":77,"Duration":87719,"SoundDuration":87719,"Delta":142952263},{"NoteNumber":75,"Velocity":58,"Duration":87719,"SoundDuration":87719,"Delta":143039983},{"NoteNumber":58,"Velocity":44,"Duration":87719,"SoundDuration":87719,"Delta":143039983},{"NoteNumber":60,"Velocity":44,"Duration":87719,"SoundDuration":87719,"Delta":143039983},{"NoteNumber":63,"Velocity":44,"Duration":87719,"SoundDuration":87719,"Delta":143039983},{"NoteNumber":65,"Velocity":44,"Duration":87719,"SoundDuration":87719,"Delta":143039983},{"NoteNumber":69,"Velocity":52,"Duration":87719,"SoundDuration":87719,"Delta":143039983},{"NoteNumber":74,"Velocity":64,"Duration":87719,"SoundDuration":87719,"Delta":143127702},{"NoteNumber":75,"Velocity":53,"Duration":87719,"SoundDuration":87719,"Delta":143215421},{"NoteNumber":58,"Velocity":44,"Duration":87719,"SoundDuration":87719,"Delta":143215421},{"NoteNumber":60,"Velocity":44,"Duration":87719,"SoundDuration":87719,"Delta":143215421},{"NoteNumber":63,"Velocity":44,"Duration":87719,"SoundDuration":87719,"Delta":143215421},{"NoteNumber":65,"Velocity":44,"Duration":87719,"SoundDuration":87719,"Delta":143215421},{"NoteNumber":69,"Velocity":52,"Duration":87719,"SoundDuration":87719,"Delta":143215421},{"NoteNumber":72,"Velocity":63,"Duration":87719,"SoundDuration":87719,"Delta":143303140},{"NoteNumber":70,"Velocity":87,"Duration":184563,"SoundDuration":184563,"Delta":143390860},{"NoteNumber":46,"Velocity":55,"Duration":100671,"SoundDuration":100671,"Delta":143390860},{"NoteNumber":49,"Velocity":55,"Duration":100671,"SoundDuration":100671,"Delta":143390860},{"NoteNumber":53,"Velocity":55,"Duration":100671,"SoundDuration":100671,"Delta":143390860},{"NoteNumber":58,"Velocity":66,"Duration":100671,"SoundDuration":100671,"Delta":143390860},{"NoteNumber":77,"Velocity":97,"Duration":360363,"SoundDuration":360363,"Delta":143592202},{"NoteNumber":46,"Velocity":55,"Duration":90361,"SoundDuration":90361,"Delta":143592202},{"NoteNumber":49,"Velocity":55,"Duration":90361,"SoundDuration":90361,"Delta":143592202},{"NoteNumber":53,"Velocity":55,"Duration":90361,"SoundDuration":90361,"Delta":143592202},{"NoteNumber":58,"Velocity":66,"Duration":90361,"SoundDuration":90361,"Delta":143592202},{"NoteNumber":46,"Velocity":49,"Duration":89820,"SoundDuration":89820,"Delta":143772925},{"NoteNumber":49,"Velocity":49,"Duration":89820,"SoundDuration":89820,"Delta":143772925},{"NoteNumber":53,"Velocity":49,"Duration":89820,"SoundDuration":89820,"Delta":143772925},{"NoteNumber":58,"Velocity":58,"Duration":89820,"SoundDuration":89820,"Delta":143772925},{"NoteNumber":77,"Velocity":93,"Duration":179640,"SoundDuration":179640,"Delta":143952566},{"NoteNumber":46,"Velocity":49,"Duration":89820,"SoundDuration":89820,"Delta":143952566},{"NoteNumber":49,"Velocity":49,"Duration":89820,"SoundDuration":89820,"Delta":143952566},{"NoteNumber":53,"Velocity":49,"Duration":89820,"SoundDuration":89820,"Delta":143952566},{"NoteNumber":58,"Velocity":58,"Duration":89820,"SoundDuration":89820,"Delta":143952566},{"NoteNumber":75,"Velocity":94,"Duration":87719,"SoundDuration":87719,"Delta":144132206},{"NoteNumber":46,"Velocity":51,"Duration":87719,"SoundDuration":87719,"Delta":144132206},{"NoteNumber":48,"Velocity":51,"Duration":87719,"SoundDuration":87719,"Delta":144132206},{"NoteNumber":51,"Velocity":51,"Duration":87719,"SoundDuration":87719,"Delta":144132206},{"NoteNumber":53,"Velocity":51,"Duration":87719,"SoundDuration":87719,"Delta":144132206},{"NoteNumber":57,"Velocity":61,"Duration":87719,"SoundDuration":87719,"Delta":144132206},{"NoteNumber":72,"Velocity":73,"Duration":87719,"SoundDuration":87719,"Delta":144219926},{"NoteNumber":69,"Velocity":81,"Duration":87719,"SoundDuration":87719,"Delta":144307645},{"NoteNumber":46,"Velocity":44,"Duration":87719,"SoundDuration":87719,"Delta":144307645},{"NoteNumber":48,"Velocity":44,"Duration":87719,"SoundDuration":87719,"Delta":144307645},{"NoteNumber":51,"Velocity":44,"Duration":87719,"SoundDuration":87719,"Delta":144307645},{"NoteNumber":53,"Velocity":44,"Duration":87719,"SoundDuration":87719,"Delta":144307645},{"NoteNumber":57,"Velocity":52,"Duration":87719,"SoundDuration":87719,"Delta":144307645},{"NoteNumber":65,"Velocity":74,"Duration":87719,"SoundDuration":87719,"Delta":144395364},{"NoteNumber":63,"Velocity":58,"Duration":87719,"SoundDuration":87719,"Delta":144483083},{"NoteNumber":46,"Velocity":44,"Duration":87719,"SoundDuration":87719,"Delta":144483083},{"NoteNumber":48,"Velocity":44,"Duration":87719,"SoundDuration":87719,"Delta":144483083},{"NoteNumber":51,"Velocity":44,"Duration":87719,"SoundDuration":87719,"Delta":144483083},{"NoteNumber":53,"Velocity":44,"Duration":87719,"SoundDuration":87719,"Delta":144483083},{"NoteNumber":57,"Velocity":52,"Duration":87719,"SoundDuration":87719,"Delta":144483083},{"NoteNumber":62,"Velocity":64,"Duration":87719,"SoundDuration":87719,"Delta":144570803},{"NoteNumber":63,"Velocity":53,"Duration":102040,"SoundDuration":102040,"Delta":144658522},{"NoteNumber":46,"Velocity":44,"Duration":102040,"SoundDuration":102040,"Delta":144658522},{"NoteNumber":48,"Velocity":44,"Duration":102040,"SoundDuration":102040,"Delta":144658522},{"NoteNumber":51,"Velocity":44,"Duration":102040,"SoundDuration":102040,"Delta":144658522},{"NoteNumber":53,"Velocity":44,"Duration":102040,"SoundDuration":102040,"Delta":144658522},{"NoteNumber":57,"Velocity":52,"Duration":102040,"SoundDuration":102040,"Delta":144658522},{"NoteNumber":60,"Velocity":63,"Duration":102040,"SoundDuration":102040,"Delta":144760563},{"NoteNumber":58,"Velocity":87,"Duration":361446,"SoundDuration":361446,"Delta":144862604},{"NoteNumber":46,"Velocity":64,"Duration":903615,"SoundDuration":903615,"Delta":144862604},{"NoteNumber":49,"Velocity":45,"Duration":200470,"SoundDuration":200470,"Delta":145766219},{"NoteNumber":51,"Velocity":50,"Duration":192982,"SoundDuration":192982,"Delta":145949145},{"NoteNumber":49,"Velocity":46,"Duration":192982,"SoundDuration":192982,"Delta":146124584},{"NoteNumber":47,"Velocity":50,"Duration":192982,"SoundDuration":192982,"Delta":146300022},{"NoteNumber":46,"Velocity":46,"Duration":192982,"SoundDuration":192982,"Delta":146475461},{"NoteNumber":44,"Velocity":46,"Duration":192982,"SoundDuration":192982,"Delta":146650899},{"NoteNumber":42,"Velocity":46,"Duration":192982,"SoundDuration":192982,"Delta":146826338},{"NoteNumber":41,"Velocity":50,"Duration":350876,"SoundDuration":350876,"Delta":147001776},{"NoteNumber":42,"Velocity":47,"Duration":392829,"SoundDuration":392829,"Delta":147352653},{"NoteNumber":63,"Velocity":36,"Duration":754716,"SoundDuration":754716,"Delta":147745483},{"NoteNumber":58,"Velocity":36,"Duration":377358,"SoundDuration":377358,"Delta":147745483},{"NoteNumber":61,"Velocity":43,"Duration":377358,"SoundDuration":377358,"Delta":147745483},{"NoteNumber":43,"Velocity":53,"Duration":377358,"SoundDuration":377358,"Delta":147745483},{"NoteNumber":56,"Velocity":34,"Duration":377358,"SoundDuration":377358,"Delta":148122842},{"NoteNumber":59,"Velocity":40,"Duration":377358,"SoundDuration":377358,"Delta":148122842},{"NoteNumber":44,"Velocity":49,"Duration":551776,"SoundDuration":551776,"Delta":148122842},{"NoteNumber":51,"Velocity":45,"Duration":196686,"SoundDuration":196686,"Delta":148674619},{"NoteNumber":52,"Velocity":50,"Duration":187695,"SoundDuration":187695,"Delta":148854259},{"NoteNumber":51,"Velocity":46,"Duration":189957,"SoundDuration":189957,"Delta":149024714},{"NoteNumber":49,"Velocity":50,"Duration":192982,"SoundDuration":192982,"Delta":149197128},{"NoteNumber":47,"Velocity":41,"Duration":192982,"SoundDuration":192982,"Delta":149372566},{"NoteNumber":46,"Velocity":46,"Duration":192982,"SoundDuration":192982,"Delta":149548005},{"NoteNumber":44,"Velocity":40,"Duration":192982,"SoundDuration":192982,"Delta":149723443},{"NoteNumber":43,"Velocity":48,"Duration":350876,"SoundDuration":350876,"Delta":149898882},{"NoteNumber":44,"Velocity":40,"Duration":392829,"SoundDuration":392829,"Delta":150249759},{"NoteNumber":63,"Velocity":30,"Duration":1600444,"SoundDuration":1600444,"Delta":150642588},{"NoteNumber":60,"Velocity":30,"Duration":1600444,"SoundDuration":1600444,"Delta":150642588},{"NoteNumber":66,"Velocity":36,"Duration":400000,"SoundDuration":400000,"Delta":150642588},{"NoteNumber":45,"Velocity":45,"Duration":1600444,"SoundDuration":1600444,"Delta":150642588},{"NoteNumber":65,"Velocity":34,"Duration":583333,"SoundDuration":583333,"Delta":151042588},{"NoteNumber":65,"Velocity":34,"Duration":219354,"SoundDuration":219354,"Delta":151642588},{"NoteNumber":66,"Velocity":34,"Duration":214238,"SoundDuration":214238,"Delta":151842588},{"NoteNumber":65,"Velocity":34,"Duration":206896,"SoundDuration":206896,"Delta":152036137},{"NoteNumber":63,"Velocity":30,"Duration":1599027,"SoundDuration":1599027,"Delta":152243033},{"NoteNumber":60,"Velocity":30,"Duration":1599027,"SoundDuration":1599027,"Delta":152243033},{"NoteNumber":66,"Velocity":36,"Duration":400000,"SoundDuration":400000,"Delta":152243033},{"NoteNumber":46,"Velocity":45,"Duration":1599027,"SoundDuration":1599027,"Delta":152243033},{"NoteNumber":65,"Velocity":34,"Duration":583333,"SoundDuration":583333,"Delta":152643033},{"NoteNumber":65,"Velocity":34,"Duration":219354,"SoundDuration":219354,"Delta":153243033},{"NoteNumber":66,"Velocity":34,"Duration":214096,"SoundDuration":214096,"Delta":153443033},{"NoteNumber":65,"Velocity":34,"Duration":205479,"SoundDuration":205479,"Delta":153636582},{"NoteNumber":63,"Velocity":30,"Duration":397350,"SoundDuration":397350,"Delta":153842061},{"NoteNumber":60,"Velocity":30,"Duration":397350,"SoundDuration":397350,"Delta":153842061},{"NoteNumber":66,"Velocity":36,"Duration":596026,"SoundDuration":596026,"Delta":153842061},{"NoteNumber":45,"Velocity":45,"Duration":397350,"SoundDuration":397350,"Delta":153842061},{"NoteNumber":65,"Velocity":34,"Duration":198675,"SoundDuration":198675,"Delta":154438088},{"NoteNumber":66,"Velocity":36,"Duration":592105,"SoundDuration":592105,"Delta":154636763},{"NoteNumber":65,"Velocity":29,"Duration":200984,"SoundDuration":200984,"Delta":155228869},{"NoteNumber":66,"Velocity":34,"Duration":101351,"SoundDuration":101351,"Delta":155429853},{"NoteNumber":65,"Velocity":29,"Duration":100863,"SoundDuration":100863,"Delta":155531205},{"NoteNumber":66,"Velocity":34,"Duration":100380,"SoundDuration":100380,"Delta":155632068},{"NoteNumber":65,"Velocity":29,"Duration":99900,"SoundDuration":99900,"Delta":155732449},{"NoteNumber":66,"Velocity":34,"Duration":99337,"SoundDuration":99337,"Delta":155832349},{"NoteNumber":65,"Velocity":29,"Duration":98771,"SoundDuration":98771,"Delta":155931687},{"NoteNumber":66,"Velocity":34,"Duration":98308,"SoundDuration":98308,"Delta":156030458},{"NoteNumber":65,"Velocity":30,"Duration":97533,"SoundDuration":97533,"Delta":156128766},{"NoteNumber":66,"Velocity":34,"Duration":95973,"SoundDuration":95973,"Delta":156226300},{"NoteNumber":65,"Velocity":30,"Duration":94174,"SoundDuration":94174,"Delta":156322273},{"NoteNumber":66,"Velocity":34,"Duration":92854,"SoundDuration":92854,"Delta":156416447},{"NoteNumber":65,"Velocity":29,"Duration":91096,"SoundDuration":91096,"Delta":156509301},{"NoteNumber":66,"Velocity":34,"Duration":89885,"SoundDuration":89885,"Delta":156600397},{"NoteNumber":65,"Velocity":29,"Duration":88289,"SoundDuration":88289,"Delta":156690282},{"NoteNumber":66,"Velocity":34,"Duration":87016,"SoundDuration":87016,"Delta":156778572},{"NoteNumber":65,"Velocity":31,"Duration":85618,"SoundDuration":85618,"Delta":156865588},{"NoteNumber":67,"Velocity":34,"Duration":84388,"SoundDuration":84388,"Delta":156951207},{"NoteNumber":65,"Velocity":29,"Duration":84042,"SoundDuration":84042,"Delta":157035596},{"NoteNumber":67,"Velocity":35,"Duration":83558,"SoundDuration":83558,"Delta":157119638},{"NoteNumber":65,"Velocity":30,"Duration":83080,"SoundDuration":83080,"Delta":157203196},{"NoteNumber":67,"Velocity":36,"Duration":82599,"SoundDuration":82599,"Delta":157286276},{"NoteNumber":65,"Velocity":31,"Duration":83805,"SoundDuration":83805,"Delta":157368876},{"NoteNumber":67,"Velocity":37,"Duration":83798,"SoundDuration":83798,"Delta":157452681},{"NoteNumber":65,"Velocity":33,"Duration":84175,"SoundDuration":84175,"Delta":157536480},{"NoteNumber":67,"Velocity":39,"Duration":84523,"SoundDuration":84523,"Delta":157620656},{"NoteNumber":65,"Velocity":34,"Duration":84866,"SoundDuration":84866,"Delta":157705179},{"NoteNumber":67,"Velocity":40,"Duration":85227,"SoundDuration":85227,"Delta":157790045},{"NoteNumber":65,"Velocity":34,"Duration":85698,"SoundDuration":85698,"Delta":157875273},{"NoteNumber":67,"Velocity":41,"Duration":86050,"SoundDuration":86050,"Delta":157960971},{"NoteNumber":65,"Velocity":35,"Duration":86406,"SoundDuration":86406,"Delta":158047022},{"NoteNumber":67,"Velocity":42,"Duration":86772,"SoundDuration":86772,"Delta":158133428},{"NoteNumber":65,"Velocity":39,"Duration":87209,"SoundDuration":87209,"Delta":158220200},{"NoteNumber":55,"Velocity":35,"Duration":175438,"SoundDuration":175438,"Delta":158307410},{"NoteNumber":63,"Velocity":42,"Duration":175438,"SoundDuration":175438,"Delta":158307410},{"NoteNumber":65,"Velocity":42,"Duration":175438,"SoundDuration":175438,"Delta":158482848},{"NoteNumber":53,"Velocity":33,"Duration":175438,"SoundDuration":175438,"Delta":158482848},{"NoteNumber":62,"Velocity":39,"Duration":175438,"SoundDuration":175438,"Delta":158482848},{"NoteNumber":77,"Velocity":48,"Duration":175438,"SoundDuration":175438,"Delta":158658287},{"NoteNumber":51,"Velocity":33,"Duration":175438,"SoundDuration":175438,"Delta":158658287},{"NoteNumber":60,"Velocity":39,"Duration":175438,"SoundDuration":175438,"Delta":158658287},{"NoteNumber":65,"Velocity":42,"Duration":175438,"SoundDuration":175438,"Delta":158833725},{"NoteNumber":50,"Velocity":33,"Duration":175438,"SoundDuration":175438,"Delta":158833725},{"NoteNumber":58,"Velocity":39,"Duration":175438,"SoundDuration":175438,"Delta":158833725},{"NoteNumber":48,"Velocity":35,"Duration":350876,"SoundDuration":350876,"Delta":159009164},{"NoteNumber":57,"Velocity":35,"Duration":350876,"SoundDuration":350876,"Delta":159009164},{"NoteNumber":65,"Velocity":42,"Duration":175438,"SoundDuration":175438,"Delta":159184602},{"NoteNumber":77,"Velocity":47,"Duration":175438,"SoundDuration":175438,"Delta":159360041},{"NoteNumber":50,"Velocity":33,"Duration":372807,"SoundDuration":372807,"Delta":159360041},{"NoteNumber":58,"Velocity":39,"Duration":372807,"SoundDuration":372807,"Delta":159360041},{"NoteNumber":65,"Velocity":42,"Duration":197368,"SoundDuration":197368,"Delta":159535479},{"NoteNumber":56,"Velocity":38,"Duration":348837,"SoundDuration":348837,"Delta":159732848},{"NoteNumber":59,"Velocity":45,"Duration":348837,"SoundDuration":348837,"Delta":159732848},{"NoteNumber":65,"Velocity":42,"Duration":174418,"SoundDuration":174418,"Delta":159907266},{"NoteNumber":77,"Velocity":48,"Duration":174418,"SoundDuration":174418,"Delta":160081685},{"NoteNumber":57,"Velocity":34,"Duration":523255,"SoundDuration":523255,"Delta":160081685},{"NoteNumber":60,"Velocity":41,"Duration":523255,"SoundDuration":523255,"Delta":160081685},{"NoteNumber":65,"Velocity":42,"Duration":174418,"SoundDuration":174418,"Delta":160256103},{"NoteNumber":77,"Velocity":48,"Duration":174418,"SoundDuration":174418,"Delta":160430522},{"NoteNumber":66,"Velocity":38,"Duration":181818,"SoundDuration":181818,"Delta":160604940},{"NoteNumber":69,"Velocity":42,"Duration":170454,"SoundDuration":170454,"Delta":160786758},{"NoteNumber":67,"Velocity":39,"Duration":172413,"SoundDuration":172413,"Delta":160957213},{"NoteNumber":65,"Velocity":42,"Duration":158959,"SoundDuration":158959,"Delta":161129627},{"NoteNumber":65,"Velocity":42,"Duration":173410,"SoundDuration":173410,"Delta":161303037},{"NoteNumber":55,"Velocity":33,"Duration":173410,"SoundDuration":173410,"Delta":161303037},{"NoteNumber":63,"Velocity":39,"Duration":173410,"SoundDuration":173410,"Delta":161303037},{"NoteNumber":77,"Velocity":48,"Duration":173410,"SoundDuration":173410,"Delta":161476448},{"NoteNumber":53,"Velocity":33,"Duration":173410,"SoundDuration":173410,"Delta":161476448},{"NoteNumber":62,"Velocity":39,"Duration":173410,"SoundDuration":173410,"Delta":161476448},{"NoteNumber":65,"Velocity":42,"Duration":173410,"SoundDuration":173410,"Delta":161649858},{"NoteNumber":51,"Velocity":33,"Duration":173410,"SoundDuration":173410,"Delta":161649858},{"NoteNumber":60,"Velocity":39,"Duration":173410,"SoundDuration":173410,"Delta":161649858},{"NoteNumber":50,"Velocity":35,"Duration":346820,"SoundDuration":346820,"Delta":161823269},{"NoteNumber":58,"Velocity":42,"Duration":346820,"SoundDuration":346820,"Delta":161823269},{"NoteNumber":65,"Velocity":42,"Duration":173410,"SoundDuration":173410,"Delta":161996679},{"NoteNumber":77,"Velocity":47,"Duration":173410,"SoundDuration":173410,"Delta":162170090},{"NoteNumber":57,"Velocity":33,"Duration":365718,"SoundDuration":365718,"Delta":162170090},{"NoteNumber":60,"Velocity":39,"Duration":365718,"SoundDuration":365718,"Delta":162170090},{"NoteNumber":65,"Velocity":42,"Duration":192307,"SoundDuration":192307,"Delta":162343500},{"NoteNumber":57,"Velocity":38,"Duration":348837,"SoundDuration":348837,"Delta":162535808},{"NoteNumber":61,"Velocity":45,"Duration":348837,"SoundDuration":348837,"Delta":162535808},{"NoteNumber":65,"Velocity":42,"Duration":174418,"SoundDuration":174418,"Delta":162710226},{"NoteNumber":77,"Velocity":48,"Duration":174418,"SoundDuration":174418,"Delta":162884645},{"NoteNumber":58,"Velocity":34,"Duration":523255,"SoundDuration":523255,"Delta":162884645},{"NoteNumber":62,"Velocity":41,"Duration":523255,"SoundDuration":523255,"Delta":162884645},{"NoteNumber":65,"Velocity":42,"Duration":174418,"SoundDuration":174418,"Delta":163059063},{"NoteNumber":77,"Velocity":48,"Duration":355141,"SoundDuration":355141,"Delta":163233482},{"NoteNumber":65,"Velocity":43,"Duration":180723,"SoundDuration":180723,"Delta":163407900},{"NoteNumber":59,"Velocity":34,"Duration":344873,"SoundDuration":344873,"Delta":163588623},{"NoteNumber":67,"Velocity":49,"Duration":170454,"SoundDuration":170454,"Delta":163588623},{"NoteNumber":62,"Velocity":44,"Duration":174418,"SoundDuration":174418,"Delta":163759078},{"NoteNumber":60,"Velocity":37,"Duration":348837,"SoundDuration":348837,"Delta":163933496},{"NoteNumber":65,"Velocity":51,"Duration":174418,"SoundDuration":174418,"Delta":163933496},{"NoteNumber":77,"Velocity":56,"Duration":174418,"SoundDuration":174418,"Delta":164107915},{"NoteNumber":63,"Velocity":48,"Duration":174418,"SoundDuration":174418,"Delta":164107915},{"NoteNumber":89,"Velocity":67,"Duration":348837,"SoundDuration":348837,"Delta":164282333},{"NoteNumber":57,"Velocity":37,"Duration":348837,"SoundDuration":348837,"Delta":164282333},{"NoteNumber":65,"Velocity":53,"Duration":174418,"SoundDuration":174418,"Delta":164282333},{"NoteNumber":60,"Velocity":48,"Duration":174418,"SoundDuration":174418,"Delta":164456752},{"NoteNumber":58,"Velocity":38,"Duration":348837,"SoundDuration":348837,"Delta":164631170},{"NoteNumber":63,"Velocity":53,"Duration":174418,"SoundDuration":174418,"Delta":164631170},{"NoteNumber":65,"Velocity":47,"Duration":174418,"SoundDuration":174418,"Delta":164805589},{"NoteNumber":62,"Velocity":49,"Duration":174418,"SoundDuration":174418,"Delta":164805589},{"NoteNumber":77,"Velocity":54,"Duration":356236,"SoundDuration":356236,"Delta":164980007},{"NoteNumber":59,"Velocity":38,"Duration":356236,"SoundDuration":356236,"Delta":164980007},{"NoteNumber":67,"Velocity":56,"Duration":174418,"SoundDuration":174418,"Delta":164980007},{"NoteNumber":62,"Velocity":50,"Duration":181818,"SoundDuration":181818,"Delta":165154426},{"NoteNumber":60,"Velocity":39,"Duration":348837,"SoundDuration":348837,"Delta":165336244},{"NoteNumber":65,"Velocity":59,"Duration":174418,"SoundDuration":174418,"Delta":165336244},{"NoteNumber":77,"Velocity":66,"Duration":174418,"SoundDuration":174418,"Delta":165510663},{"NoteNumber":63,"Velocity":54,"Duration":174418,"SoundDuration":174418,"Delta":165510663},{"NoteNumber":89,"Velocity":78,"Duration":523121,"SoundDuration":523121,"Delta":165685081},{"NoteNumber":57,"Velocity":39,"Duration":348837,"SoundDuration":348837,"Delta":165685081},{"NoteNumber":65,"Velocity":60,"Duration":174418,"SoundDuration":174418,"Delta":165685081},{"NoteNumber":60,"Velocity":52,"Duration":174418,"SoundDuration":174418,"Delta":165859500},{"NoteNumber":58,"Velocity":50,"Duration":346279,"SoundDuration":346279,"Delta":166033918},{"NoteNumber":63,"Velocity":59,"Duration":174284,"SoundDuration":174284,"Delta":166033918},{"NoteNumber":77,"Velocity":71,"Duration":342201,"SoundDuration":342201,"Delta":166208203},{"NoteNumber":62,"Velocity":53,"Duration":342201,"SoundDuration":342201,"Delta":166208203},{"NoteNumber":57,"Velocity":47,"Duration":338731,"SoundDuration":338731,"Delta":166380198},{"NoteNumber":79,"Velocity":67,"Duration":84436,"SoundDuration":84436,"Delta":166550404},{"NoteNumber":60,"Velocity":60,"Duration":500509,"SoundDuration":500509,"Delta":166550404},{"NoteNumber":81,"Velocity":70,"Duration":84089,"SoundDuration":84089,"Delta":166634840},{"NoteNumber":82,"Velocity":72,"Duration":83119,"SoundDuration":83119,"Delta":166718930},{"NoteNumber":55,"Velocity":66,"Duration":666085,"SoundDuration":666085,"Delta":166718930},{"NoteNumber":84,"Velocity":73,"Duration":82872,"SoundDuration":82872,"Delta":166802049},{"NoteNumber":86,"Velocity":75,"Duration":82872,"SoundDuration":82872,"Delta":166884922},{"NoteNumber":84,"Velocity":73,"Duration":83118,"SoundDuration":83118,"Delta":166967795},{"NoteNumber":82,"Velocity":74,"Duration":83333,"SoundDuration":83333,"Delta":167050914},{"NoteNumber":58,"Velocity":60,"Duration":670607,"SoundDuration":670607,"Delta":167050914},{"NoteNumber":81,"Velocity":70,"Duration":83333,"SoundDuration":83333,"Delta":167134247},{"NoteNumber":79,"Velocity":71,"Duration":83635,"SoundDuration":83635,"Delta":167217580},{"NoteNumber":77,"Velocity":69,"Duration":83798,"SoundDuration":83798,"Delta":167301216},{"NoteNumber":76,"Velocity":68,"Duration":83798,"SoundDuration":83798,"Delta":167385015},{"NoteNumber":48,"Velocity":62,"Duration":673584,"SoundDuration":673584,"Delta":167385015},{"NoteNumber":74,"Velocity":66,"Duration":84167,"SoundDuration":84167,"Delta":167468814},{"NoteNumber":72,"Velocity":63,"Duration":84269,"SoundDuration":84269,"Delta":167552982},{"NoteNumber":70,"Velocity":62,"Duration":84269,"SoundDuration":84269,"Delta":167637251},{"NoteNumber":69,"Velocity":60,"Duration":84269,"SoundDuration":84269,"Delta":167721521},{"NoteNumber":58,"Velocity":58,"Duration":683635,"SoundDuration":683635,"Delta":167721521},{"NoteNumber":67,"Velocity":58,"Duration":84269,"SoundDuration":84269,"Delta":167805791},{"NoteNumber":65,"Velocity":57,"Duration":84269,"SoundDuration":84269,"Delta":167890060},{"NoteNumber":64,"Velocity":55,"Duration":84269,"SoundDuration":84269,"Delta":167974330},{"NoteNumber":67,"Velocity":54,"Duration":86440,"SoundDuration":86440,"Delta":168058599},{"NoteNumber":53,"Velocity":58,"Duration":693303,"SoundDuration":693303,"Delta":168058599},{"NoteNumber":65,"Velocity":49,"Duration":86705,"SoundDuration":86705,"Delta":168145040},{"NoteNumber":69,"Velocity":54,"Duration":86705,"SoundDuration":86705,"Delta":168231746},{"NoteNumber":67,"Velocity":48,"Duration":86705,"SoundDuration":86705,"Delta":168318451},{"NoteNumber":70,"Velocity":54,"Duration":86705,"SoundDuration":86705,"Delta":168405156},{"NoteNumber":57,"Velocity":47,"Duration":346747,"SoundDuration":346747,"Delta":168405156},{"NoteNumber":69,"Velocity":50,"Duration":86705,"SoundDuration":86705,"Delta":168491861},{"NoteNumber":72,"Velocity":54,"Duration":86705,"SoundDuration":86705,"Delta":168578567},{"NoteNumber":70,"Velocity":49,"Duration":86631,"SoundDuration":86631,"Delta":168665272},{"NoteNumber":74,"Velocity":54,"Duration":85633,"SoundDuration":85633,"Delta":168751903},{"NoteNumber":72,"Velocity":48,"Duration":86431,"SoundDuration":86431,"Delta":168837537},{"NoteNumber":75,"Velocity":54,"Duration":87210,"SoundDuration":87210,"Delta":168923968},{"NoteNumber":74,"Velocity":49,"Duration":87994,"SoundDuration":87994,"Delta":169011178},{"NoteNumber":77,"Velocity":54,"Duration":88837,"SoundDuration":88837,"Delta":169099173},{"NoteNumber":76,"Velocity":48,"Duration":89615,"SoundDuration":89615,"Delta":169188010},{"NoteNumber":79,"Velocity":53,"Duration":90535,"SoundDuration":90535,"Delta":169277626},{"NoteNumber":77,"Velocity":49,"Duration":90909,"SoundDuration":90909,"Delta":169368161},{"NoteNumber":63,"Velocity":42,"Duration":175438,"SoundDuration":175438,"Delta":169459070},{"NoteNumber":75,"Velocity":50,"Duration":175438,"SoundDuration":175438,"Delta":169459070},{"NoteNumber":46,"Velocity":42,"Duration":350876,"SoundDuration":350876,"Delta":169459070},{"NoteNumber":62,"Velocity":39,"Duration":175438,"SoundDuration":175438,"Delta":169634508},{"NoteNumber":74,"Velocity":46,"Duration":175438,"SoundDuration":175438,"Delta":169634508},{"NoteNumber":53,"Velocity":34,"Duration":175438,"SoundDuration":175438,"Delta":169634508},{"NoteNumber":60,"Velocity":39,"Duration":175438,"SoundDuration":175438,"Delta":169809947},{"NoteNumber":72,"Velocity":46,"Duration":175438,"SoundDuration":175438,"Delta":169809947},{"NoteNumber":50,"Velocity":38,"Duration":350876,"SoundDuration":350876,"Delta":169809947},{"NoteNumber":58,"Velocity":39,"Duration":175438,"SoundDuration":175438,"Delta":169985385},{"NoteNumber":70,"Velocity":46,"Duration":175438,"SoundDuration":175438,"Delta":169985385},{"NoteNumber":53,"Velocity":34,"Duration":175438,"SoundDuration":175438,"Delta":169985385},{"NoteNumber":57,"Velocity":42,"Duration":350876,"SoundDuration":350876,"Delta":170160824},{"NoteNumber":69,"Velocity":42,"Duration":350876,"SoundDuration":350876,"Delta":170160824},{"NoteNumber":51,"Velocity":38,"Duration":175438,"SoundDuration":175438,"Delta":170160824},{"NoteNumber":48,"Velocity":38,"Duration":350876,"SoundDuration":350876,"Delta":170160824},{"NoteNumber":53,"Velocity":34,"Duration":175438,"SoundDuration":175438,"Delta":170336262},{"NoteNumber":58,"Velocity":39,"Duration":372807,"SoundDuration":372807,"Delta":170511701},{"NoteNumber":70,"Velocity":47,"Duration":372807,"SoundDuration":372807,"Delta":170511701},{"NoteNumber":50,"Velocity":37,"Duration":175438,"SoundDuration":175438,"Delta":170511701},{"NoteNumber":46,"Velocity":37,"Duration":372807,"SoundDuration":372807,"Delta":170511701},{"NoteNumber":53,"Velocity":34,"Duration":197368,"SoundDuration":197368,"Delta":170687139},{"NoteNumber":59,"Velocity":45,"Duration":348837,"SoundDuration":348837,"Delta":170884508},{"NoteNumber":71,"Velocity":53,"Duration":348837,"SoundDuration":348837,"Delta":170884508},{"NoteNumber":45,"Velocity":43,"Duration":1396779,"SoundDuration":1396779,"Delta":170884508},{"NoteNumber":51,"Velocity":43,"Duration":1396779,"SoundDuration":1396779,"Delta":170884508},{"NoteNumber":53,"Velocity":34,"Duration":87209,"SoundDuration":87209,"Delta":171058926},{"NoteNumber":60,"Velocity":41,"Duration":523255,"SoundDuration":523255,"Delta":171233345},{"NoteNumber":72,"Velocity":49,"Duration":523255,"SoundDuration":523255,"Delta":171233345},{"NoteNumber":53,"Velocity":34,"Duration":87209,"SoundDuration":87209,"Delta":171233345},{"NoteNumber":53,"Velocity":34,"Duration":87209,"SoundDuration":87209,"Delta":171407763},{"NoteNumber":53,"Velocity":37,"Duration":87209,"SoundDuration":87209,"Delta":171582182},{"NoteNumber":66,"Velocity":48,"Duration":90909,"SoundDuration":90909,"Delta":171756600},{"NoteNumber":53,"Velocity":34,"Duration":90909,"SoundDuration":90909,"Delta":171756600},{"NoteNumber":78,"Velocity":45,"Duration":90909,"SoundDuration":90909,"Delta":171847509},{"NoteNumber":69,"Velocity":43,"Duration":85227,"SoundDuration":85227,"Delta":171938418},{"NoteNumber":53,"Velocity":34,"Duration":85227,"SoundDuration":85227,"Delta":171938418},{"NoteNumber":81,"Velocity":46,"Duration":85227,"SoundDuration":85227,"Delta":172023646},{"NoteNumber":67,"Velocity":53,"Duration":86206,"SoundDuration":86206,"Delta":172108873},{"NoteNumber":53,"Velocity":34,"Duration":86206,"SoundDuration":86206,"Delta":172108873},{"NoteNumber":79,"Velocity":46,"Duration":86206,"SoundDuration":86206,"Delta":172195080},{"NoteNumber":65,"Velocity":52,"Duration":86705,"SoundDuration":86705,"Delta":172281287},{"NoteNumber":45,"Velocity":42,"Duration":346821,"SoundDuration":346821,"Delta":172281287},{"NoteNumber":77,"Velocity":47,"Duration":86705,"SoundDuration":86705,"Delta":172367992},{"NoteNumber":63,"Velocity":51,"Duration":86705,"SoundDuration":86705,"Delta":172454697},{"NoteNumber":53,"Velocity":34,"Duration":173410,"SoundDuration":173410,"Delta":172454697},{"NoteNumber":75,"Velocity":46,"Duration":86705,"SoundDuration":86705,"Delta":172541402},{"NoteNumber":62,"Velocity":51,"Duration":86705,"SoundDuration":86705,"Delta":172628108},{"NoteNumber":51,"Velocity":38,"Duration":346821,"SoundDuration":346821,"Delta":172628108},{"NoteNumber":74,"Velocity":46,"Duration":86705,"SoundDuration":86705,"Delta":172714813},{"NoteNumber":60,"Velocity":51,"Duration":86705,"SoundDuration":86705,"Delta":172801518},{"NoteNumber":53,"Velocity":34,"Duration":173410,"SoundDuration":173410,"Delta":172801518},{"NoteNumber":72,"Velocity":46,"Duration":86705,"SoundDuration":86705,"Delta":172888223},{"NoteNumber":57,"Velocity":50,"Duration":86705,"SoundDuration":86705,"Delta":172974929},{"NoteNumber":50,"Velocity":38,"Duration":346820,"SoundDuration":346820,"Delta":172974929},{"NoteNumber":69,"Velocity":42,"Duration":86705,"SoundDuration":86705,"Delta":173061634},{"NoteNumber":58,"Velocity":47,"Duration":86705,"SoundDuration":86705,"Delta":173148339},{"NoteNumber":53,"Velocity":34,"Duration":173410,"SoundDuration":173410,"Delta":173148339},{"NoteNumber":70,"Velocity":42,"Duration":86705,"SoundDuration":86705,"Delta":173235044},{"NoteNumber":59,"Velocity":49,"Duration":86705,"SoundDuration":86705,"Delta":173321750},{"NoteNumber":45,"Velocity":37,"Duration":365718,"SoundDuration":365718,"Delta":173321750},{"NoteNumber":71,"Velocity":42,"Duration":86705,"SoundDuration":86705,"Delta":173408455},{"NoteNumber":60,"Velocity":49,"Duration":96153,"SoundDuration":96153,"Delta":173495160},{"NoteNumber":53,"Velocity":34,"Duration":192307,"SoundDuration":192307,"Delta":173495160},{"NoteNumber":72,"Velocity":42,"Duration":96153,"SoundDuration":96153,"Delta":173591314},{"NoteNumber":61,"Velocity":45,"Duration":348837,"SoundDuration":348837,"Delta":173687468},{"NoteNumber":73,"Velocity":53,"Duration":348837,"SoundDuration":348837,"Delta":173687468},{"NoteNumber":46,"Velocity":43,"Duration":1052815,"SoundDuration":1052815,"Delta":173687468},{"NoteNumber":53,"Velocity":34,"Duration":87209,"SoundDuration":87209,"Delta":173861886},{"NoteNumber":62,"Velocity":41,"Duration":523255,"SoundDuration":523255,"Delta":174036305},{"NoteNumber":74,"Velocity":49,"Duration":523255,"SoundDuration":523255,"Delta":174036305},{"NoteNumber":53,"Velocity":34,"Duration":87209,"SoundDuration":87209,"Delta":174036305},{"NoteNumber":53,"Velocity":34,"Duration":87209,"SoundDuration":87209,"Delta":174210723},{"NoteNumber":53,"Velocity":40,"Duration":87209,"SoundDuration":87209,"Delta":174385142},{"NoteNumber":65,"Velocity":56,"Duration":90361,"SoundDuration":90361,"Delta":174559560},{"NoteNumber":53,"Velocity":37,"Duration":90361,"SoundDuration":90361,"Delta":174559560},{"NoteNumber":77,"Velocity":52,"Duration":90361,"SoundDuration":90361,"Delta":174649922},{"NoteNumber":67,"Velocity":64,"Duration":85227,"SoundDuration":85227,"Delta":174740283},{"NoteNumber":53,"Velocity":37,"Duration":85227,"SoundDuration":85227,"Delta":174740283},{"NoteNumber":47,"Velocity":37,"Duration":344873,"SoundDuration":344873,"Delta":174740283},{"NoteNumber":79,"Velocity":58,"Duration":85227,"SoundDuration":85227,"Delta":174825511},{"NoteNumber":62,"Velocity":57,"Duration":87209,"SoundDuration":87209,"Delta":174910738},{"NoteNumber":53,"Velocity":37,"Duration":87209,"SoundDuration":87209,"Delta":174910738},{"NoteNumber":74,"Velocity":52,"Duration":87209,"SoundDuration":87209,"Delta":174997947},{"NoteNumber":65,"Velocity":62,"Duration":87209,"SoundDuration":87209,"Delta":175085156},{"NoteNumber":48,"Velocity":47,"Duration":348837,"SoundDuration":348837,"Delta":175085156},{"NoteNumber":77,"Velocity":59,"Duration":87209,"SoundDuration":87209,"Delta":175172366},{"NoteNumber":63,"Velocity":58,"Duration":87209,"SoundDuration":87209,"Delta":175259575},{"NoteNumber":53,"Velocity":38,"Duration":174418,"SoundDuration":174418,"Delta":175259575},{"NoteNumber":75,"Velocity":53,"Duration":87209,"SoundDuration":87209,"Delta":175346784},{"NoteNumber":65,"Velocity":64,"Duration":87209,"SoundDuration":87209,"Delta":175433993},{"NoteNumber":45,"Velocity":42,"Duration":348837,"SoundDuration":348837,"Delta":175433993},{"NoteNumber":77,"Velocity":58,"Duration":87209,"SoundDuration":87209,"Delta":175521203},{"NoteNumber":60,"Velocity":58,"Duration":87209,"SoundDuration":87209,"Delta":175608412},{"NoteNumber":53,"Velocity":38,"Duration":174418,"SoundDuration":174418,"Delta":175608412},{"NoteNumber":72,"Velocity":51,"Duration":87209,"SoundDuration":87209,"Delta":175695621},{"NoteNumber":63,"Velocity":64,"Duration":87209,"SoundDuration":87209,"Delta":175782830},{"NoteNumber":46,"Velocity":47,"Duration":348837,"SoundDuration":348837,"Delta":175782830},{"NoteNumber":75,"Velocity":59,"Duration":87209,"SoundDuration":87209,"Delta":175870040},{"NoteNumber":62,"Velocity":59,"Duration":87209,"SoundDuration":87209,"Delta":175957249},{"NoteNumber":53,"Velocity":38,"Duration":174418,"SoundDuration":174418,"Delta":175957249},{"NoteNumber":74,"Velocity":53,"Duration":87209,"SoundDuration":87209,"Delta":176044458},{"NoteNumber":67,"Velocity":67,"Duration":87209,"SoundDuration":87209,"Delta":176131667},{"NoteNumber":47,"Velocity":43,"Duration":356236,"SoundDuration":356236,"Delta":176131667},{"NoteNumber":79,"Velocity":60,"Duration":87209,"SoundDuration":87209,"Delta":176218877},{"NoteNumber":62,"Velocity":59,"Duration":90909,"SoundDuration":90909,"Delta":176306086},{"NoteNumber":53,"Velocity":39,"Duration":181818,"SoundDuration":181818,"Delta":176306086},{"NoteNumber":74,"Velocity":55,"Duration":90909,"SoundDuration":90909,"Delta":176396995},{"NoteNumber":65,"Velocity":71,"Duration":87209,"SoundDuration":87209,"Delta":176487904},{"NoteNumber":48,"Velocity":54,"Duration":348837,"SoundDuration":348837,"Delta":176487904},{"NoteNumber":77,"Velocity":67,"Duration":87209,"SoundDuration":87209,"Delta":176575113},{"NoteNumber":63,"Velocity":64,"Duration":87209,"SoundDuration":87209,"Delta":176662323},{"NoteNumber":53,"Velocity":39,"Duration":174418,"SoundDuration":174418,"Delta":176662323},{"NoteNumber":75,"Velocity":59,"Duration":87209,"SoundDuration":87209,"Delta":176749532},{"NoteNumber":65,"Velocity":72,"Duration":87209,"SoundDuration":87209,"Delta":176836741},{"NoteNumber":45,"Velocity":49,"Duration":348837,"SoundDuration":348837,"Delta":176836741},{"NoteNumber":77,"Velocity":67,"Duration":87209,"SoundDuration":87209,"Delta":176923950},{"NoteNumber":60,"Velocity":63,"Duration":87209,"SoundDuration":87209,"Delta":177011160},{"NoteNumber":53,"Velocity":39,"Duration":174418,"SoundDuration":174418,"Delta":177011160},{"NoteNumber":72,"Velocity":60,"Duration":87209,"SoundDuration":87209,"Delta":177098369},{"NoteNumber":63,"Velocity":71,"Duration":87209,"SoundDuration":87209,"Delta":177185578},{"NoteNumber":46,"Velocity":56,"Duration":345846,"SoundDuration":345846,"Delta":177185578},{"NoteNumber":75,"Velocity":64,"Duration":87209,"SoundDuration":87209,"Delta":177272787},{"NoteNumber":62,"Velocity":64,"Duration":85714,"SoundDuration":85714,"Delta":177359997},{"NoteNumber":53,"Velocity":41,"Duration":171428,"SoundDuration":171428,"Delta":177359997},{"NoteNumber":74,"Velocity":57,"Duration":85714,"SoundDuration":85714,"Delta":177445711},{"NoteNumber":63,"Velocity":67,"Duration":85714,"SoundDuration":85714,"Delta":177531425},{"NoteNumber":44,"Velocity":51,"Duration":342857,"SoundDuration":342857,"Delta":177531425},{"NoteNumber":75,"Velocity":58,"Duration":85714,"SoundDuration":85714,"Delta":177617139},{"NoteNumber":65,"Velocity":71,"Duration":85714,"SoundDuration":85714,"Delta":177702854},{"NoteNumber":46,"Velocity":45,"Duration":171428,"SoundDuration":171428,"Delta":177702854},{"NoteNumber":77,"Velocity":64,"Duration":85714,"SoundDuration":85714,"Delta":177788568},{"NoteNumber":66,"Velocity":76,"Duration":86206,"SoundDuration":86206,"Delta":177874282},{"NoteNumber":43,"Velocity":62,"Duration":330459,"SoundDuration":330459,"Delta":177874282},{"NoteNumber":78,"Velocity":69,"Duration":86206,"SoundDuration":86206,"Delta":177960489},{"NoteNumber":67,"Velocity":76,"Duration":86206,"SoundDuration":86206,"Delta":178046696},{"NoteNumber":46,"Velocity":51,"Duration":172413,"SoundDuration":172413,"Delta":178046696},{"NoteNumber":79,"Velocity":69,"Duration":86206,"SoundDuration":86206,"Delta":178132903},{"NoteNumber":69,"Velocity":76,"Duration":86206,"SoundDuration":86206,"Delta":178219110},{"NoteNumber":39,"Velocity":58,"Duration":367219,"SoundDuration":367219,"Delta":178219110},{"NoteNumber":81,"Velocity":66,"Duration":86206,"SoundDuration":86206,"Delta":178305317},{"NoteNumber":70,"Velocity":78,"Duration":97402,"SoundDuration":97402,"Delta":178391523},{"NoteNumber":51,"Velocity":51,"Duration":194805,"SoundDuration":194805,"Delta":178391523},{"NoteNumber":82,"Velocity":70,"Duration":97402,"SoundDuration":97402,"Delta":178488926},{"NoteNumber":58,"Velocity":71,"Duration":344827,"SoundDuration":344827,"Delta":178586329},{"NoteNumber":70,"Velocity":71,"Duration":344827,"SoundDuration":344827,"Delta":178586329},{"NoteNumber":41,"Velocity":56,"Duration":330459,"SoundDuration":330459,"Delta":178586329},{"NoteNumber":50,"Velocity":42,"Duration":172413,"SoundDuration":172413,"Delta":178758742},{"NoteNumber":60,"Velocity":58,"Duration":372413,"SoundDuration":372413,"Delta":178931156},{"NoteNumber":72,"Velocity":69,"Duration":372413,"SoundDuration":372413,"Delta":178931156},{"NoteNumber":41,"Velocity":49,"Duration":372413,"SoundDuration":372413,"Delta":178931156},{"NoteNumber":45,"Velocity":43,"Duration":199999,"SoundDuration":199999,"Delta":179103570},{"NoteNumber":61,"Velocity":41,"Duration":346821,"SoundDuration":346821,"Delta":179303570},{"NoteNumber":73,"Velocity":49,"Duration":346821,"SoundDuration":346821,"Delta":179303570},{"NoteNumber":34,"Velocity":43,"Duration":173410,"SoundDuration":173410,"Delta":179303570},{"NoteNumber":46,"Velocity":29,"Duration":880080,"SoundDuration":880080,"Delta":179476980},{"NoteNumber":62,"Velocity":38,"Duration":443285,"SoundDuration":443285,"Delta":179650391},{"NoteNumber":74,"Velocity":45,"Duration":443285,"SoundDuration":443285,"Delta":179650391},{"NoteNumber":58,"Velocity":35,"Duration":88038,"SoundDuration":88038,"Delta":179650391},{"NoteNumber":58,"Velocity":29,"Duration":88968,"SoundDuration":88968,"Delta":179827715},{"NoteNumber":58,"Velocity":37,"Duration":88235,"SoundDuration":88235,"Delta":180005441},{"NoteNumber":70,"Velocity":59,"Duration":88192,"SoundDuration":88192,"Delta":180093677},{"NoteNumber":69,"Velocity":61,"Duration":87719,"SoundDuration":87719,"Delta":180181869},{"NoteNumber":58,"Velocity":35,"Duration":87719,"SoundDuration":87719,"Delta":180181869},{"NoteNumber":70,"Velocity":62,"Duration":87472,"SoundDuration":87472,"Delta":180269588},{"NoteNumber":71,"Velocity":62,"Duration":87209,"SoundDuration":87209,"Delta":180357061},{"NoteNumber":56,"Velocity":43,"Duration":346902,"SoundDuration":346902,"Delta":180357061},{"NoteNumber":72,"Velocity":64,"Duration":86764,"SoundDuration":86764,"Delta":180444270},{"NoteNumber":73,"Velocity":65,"Duration":86705,"SoundDuration":86705,"Delta":180531034},{"NoteNumber":58,"Velocity":39,"Duration":172928,"SoundDuration":172928,"Delta":180531034},{"NoteNumber":74,"Velocity":67,"Duration":86223,"SoundDuration":86223,"Delta":180617739},{"NoteNumber":75,"Velocity":69,"Duration":86026,"SoundDuration":86026,"Delta":180703963},{"NoteNumber":55,"Velocity":52,"Duration":342470,"SoundDuration":342470,"Delta":180703963},{"NoteNumber":76,"Velocity":70,"Duration":85714,"SoundDuration":85714,"Delta":180789989},{"NoteNumber":77,"Velocity":71,"Duration":85503,"SoundDuration":85503,"Delta":180875703},{"NoteNumber":58,"Velocity":46,"Duration":170730,"SoundDuration":170730,"Delta":180875703},{"NoteNumber":78,"Velocity":73,"Duration":85227,"SoundDuration":85227,"Delta":180961207},{"NoteNumber":79,"Velocity":74,"Duration":84825,"SoundDuration":84825,"Delta":181046434},{"NoteNumber":51,"Velocity":56,"Duration":337999,"SoundDuration":337999,"Delta":181046434},{"NoteNumber":80,"Velocity":76,"Duration":84634,"SoundDuration":84634,"Delta":181131260},{"NoteNumber":81,"Velocity":77,"Duration":84269,"SoundDuration":84269,"Delta":181215894},{"NoteNumber":63,"Velocity":50,"Duration":168539,"SoundDuration":168539,"Delta":181215894},{"NoteNumber":82,"Velocity":78,"Duration":84269,"SoundDuration":84269,"Delta":181300164},{"NoteNumber":70,"Velocity":53,"Duration":68965,"SoundDuration":68965,"Delta":181384434},{"NoteNumber":53,"Velocity":35,"Duration":330459,"SoundDuration":330459,"Delta":181384434},{"NoteNumber":72,"Velocity":48,"Duration":68965,"SoundDuration":68965,"Delta":181453399},{"NoteNumber":70,"Velocity":45,"Duration":68965,"SoundDuration":68965,"Delta":181522365},{"NoteNumber":62,"Velocity":29,"Duration":172413,"SoundDuration":172413,"Delta":181556847},{"NoteNumber":69,"Velocity":45,"Duration":68965,"SoundDuration":68965,"Delta":181591330},{"NoteNumber":70,"Velocity":45,"Duration":68965,"SoundDuration":68965,"Delta":181660296},{"NoteNumber":63,"Velocity":42,"Duration":375116,"SoundDuration":375116,"Delta":181729261},{"NoteNumber":74,"Velocity":52,"Duration":273765,"SoundDuration":273765,"Delta":181729261},{"NoteNumber":53,"Velocity":35,"Duration":375116,"SoundDuration":375116,"Delta":181729261},{"NoteNumber":57,"Velocity":29,"Duration":202702,"SoundDuration":202702,"Delta":181901675},{"NoteNumber":72,"Velocity":41,"Duration":101351,"SoundDuration":101351,"Delta":182003026},{"NoteNumber":62,"Velocity":42,"Duration":365853,"SoundDuration":365853,"Delta":182104378},{"NoteNumber":70,"Velocity":50,"Duration":365853,"SoundDuration":365853,"Delta":182104378},{"NoteNumber":46,"Velocity":33,"Duration":365853,"SoundDuration":365853,"Delta":182104378},{"NoteNumber":58,"Velocity":39,"Duration":365853,"SoundDuration":365853,"Delta":182104378},{"NoteNumber":65,"Velocity":67,"Duration":682357,"SoundDuration":682357,"Delta":182836085},{"NoteNumber":74,"Velocity":80,"Duration":682357,"SoundDuration":682357,"Delta":182836085},{"NoteNumber":58,"Velocity":50,"Duration":682357,"SoundDuration":682357,"Delta":182836085},{"NoteNumber":62,"Velocity":60,"Duration":682357,"SoundDuration":682357,"Delta":182836085},{"NoteNumber":67,"Velocity":45,"Duration":697629,"SoundDuration":697629,"Delta":183518443},{"NoteNumber":72,"Velocity":53,"Duration":75955,"SoundDuration":75955,"Delta":183518443},{"NoteNumber":51,"Velocity":38,"Duration":1052659,"SoundDuration":1052659,"Delta":183518443},{"NoteNumber":60,"Velocity":45,"Duration":1052659,"SoundDuration":1052659,"Delta":183518443},{"NoteNumber":74,"Velocity":50,"Duration":73959,"SoundDuration":73959,"Delta":183594398},{"NoteNumber":72,"Velocity":53,"Duration":75019,"SoundDuration":75019,"Delta":183668358},{"NoteNumber":74,"Velocity":50,"Duration":74482,"SoundDuration":74482,"Delta":183743378},{"NoteNumber":72,"Velocity":53,"Duration":72857,"SoundDuration":72857,"Delta":183817861},{"NoteNumber":71,"Velocity":49,"Duration":74285,"SoundDuration":74285,"Delta":183890718},{"NoteNumber":72,"Velocity":49,"Duration":72925,"SoundDuration":72925,"Delta":183965003},{"NoteNumber":74,"Velocity":49,"Duration":89820,"SoundDuration":89820,"Delta":184036432},{"NoteNumber":75,"Velocity":50,"Duration":89820,"SoundDuration":89820,"Delta":184126252},{"NoteNumber":67,"Velocity":57,"Duration":355029,"SoundDuration":355029,"Delta":184216073},{"NoteNumber":63,"Velocity":45,"Duration":377358,"SoundDuration":377358,"Delta":184571102},{"NoteNumber":69,"Velocity":54,"Duration":377358,"SoundDuration":377358,"Delta":184571102},{"NoteNumber":53,"Velocity":34,"Duration":377358,"SoundDuration":377358,"Delta":184571102},{"NoteNumber":60,"Velocity":41,"Duration":377358,"SoundDuration":377358,"Delta":184571102},{"NoteNumber":62,"Velocity":47,"Duration":734948,"SoundDuration":734948,"Delta":184948461},{"NoteNumber":70,"Velocity":56,"Duration":355029,"SoundDuration":355029,"Delta":184948461},{"NoteNumber":46,"Velocity":42,"Duration":734948,"SoundDuration":734948,"Delta":184948461},{"NoteNumber":58,"Velocity":50,"Duration":734948,"SoundDuration":734948,"Delta":184948461},{"NoteNumber":65,"Velocity":46,"Duration":198675,"SoundDuration":198675,"Delta":185303490},{"NoteNumber":65,"Velocity":67,"Duration":690335,"SoundDuration":690335,"Delta":185697777},{"NoteNumber":74,"Velocity":80,"Duration":690335,"SoundDuration":690335,"Delta":185697777},{"NoteNumber":58,"Velocity":50,"Duration":690335,"SoundDuration":690335,"Delta":185697777},{"NoteNumber":62,"Velocity":60,"Duration":690335,"SoundDuration":690335,"Delta":185697777},{"NoteNumber":67,"Velocity":45,"Duration":681579,"SoundDuration":681579,"Delta":186388113},{"NoteNumber":72,"Velocity":63,"Duration":175438,"SoundDuration":175438,"Delta":186388113},{"NoteNumber":52,"Velocity":41,"Duration":681579,"SoundDuration":681579,"Delta":186388113},{"NoteNumber":55,"Velocity":41,"Duration":681579,"SoundDuration":681579,"Delta":186388113},{"NoteNumber":74,"Velocity":56,"Duration":54945,"SoundDuration":54945,"Delta":186563551},{"NoteNumber":72,"Velocity":56,"Duration":54945,"SoundDuration":54945,"Delta":186618496},{"NoteNumber":71,"Velocity":56,"Duration":54945,"SoundDuration":54945,"Delta":186673442},{"NoteNumber":72,"Velocity":63,"Duration":253070,"SoundDuration":253070,"Delta":186728387},{"NoteNumber":74,"Velocity":58,"Duration":88235,"SoundDuration":88235,"Delta":186981457},{"NoteNumber":64,"Velocity":45,"Duration":697835,"SoundDuration":697835,"Delta":187069692},{"NoteNumber":70,"Velocity":63,"Duration":176470,"SoundDuration":176470,"Delta":187069692},{"NoteNumber":48,"Velocity":41,"Duration":697835,"SoundDuration":697835,"Delta":187069692},{"NoteNumber":60,"Velocity":41,"Duration":697835,"SoundDuration":697835,"Delta":187069692},{"NoteNumber":72,"Velocity":56,"Duration":55248,"SoundDuration":55248,"Delta":187246163},{"NoteNumber":70,"Velocity":56,"Duration":55248,"SoundDuration":55248,"Delta":187301411},{"NoteNumber":69,"Velocity":56,"Duration":55248,"SoundDuration":55248,"Delta":187356660},{"NoteNumber":70,"Velocity":63,"Duration":260682,"SoundDuration":260682,"Delta":187411909},{"NoteNumber":72,"Velocity":58,"Duration":94936,"SoundDuration":94936,"Delta":187672591},{"NoteNumber":65,"Velocity":47,"Duration":758438,"SoundDuration":758438,"Delta":187767528},{"NoteNumber":70,"Velocity":56,"Duration":400000,"SoundDuration":400000,"Delta":187767528},{"NoteNumber":53,"Velocity":42,"Duration":758438,"SoundDuration":758438,"Delta":187767528},{"NoteNumber":60,"Velocity":50,"Duration":758438,"SoundDuration":758438,"Delta":187767528},{"NoteNumber":69,"Velocity":46,"Duration":179640,"SoundDuration":179640,"Delta":188167528},{"NoteNumber":67,"Velocity":67,"Duration":690335,"SoundDuration":690335,"Delta":188525966},{"NoteNumber":79,"Velocity":80,"Duration":690335,"SoundDuration":690335,"Delta":188525966},{"NoteNumber":58,"Velocity":50,"Duration":690335,"SoundDuration":690335,"Delta":188525966},{"NoteNumber":62,"Velocity":60,"Duration":690335,"SoundDuration":690335,"Delta":188525966},{"NoteNumber":72,"Velocity":45,"Duration":681579,"SoundDuration":681579,"Delta":189216302},{"NoteNumber":77,"Velocity":63,"Duration":175438,"SoundDuration":175438,"Delta":189216302},{"NoteNumber":57,"Velocity":41,"Duration":681579,"SoundDuration":681579,"Delta":189216302},{"NoteNumber":60,"Velocity":41,"Duration":681579,"SoundDuration":681579,"Delta":189216302},{"NoteNumber":79,"Velocity":56,"Duration":54945,"SoundDuration":54945,"Delta":189391740},{"NoteNumber":77,"Velocity":56,"Duration":54945,"SoundDuration":54945,"Delta":189446685},{"NoteNumber":76,"Velocity":56,"Duration":54945,"SoundDuration":54945,"Delta":189501630},{"NoteNumber":77,"Velocity":63,"Duration":253070,"SoundDuration":253070,"Delta":189556576},{"NoteNumber":79,"Velocity":58,"Duration":88235,"SoundDuration":88235,"Delta":189809646},{"NoteNumber":69,"Velocity":45,"Duration":697835,"SoundDuration":697835,"Delta":189897881},{"NoteNumber":75,"Velocity":63,"Duration":176470,"SoundDuration":176470,"Delta":189897881},{"NoteNumber":53,"Velocity":41,"Duration":697835,"SoundDuration":697835,"Delta":189897881},{"NoteNumber":65,"Velocity":41,"Duration":697835,"SoundDuration":697835,"Delta":189897881},{"NoteNumber":77,"Velocity":56,"Duration":55248,"SoundDuration":55248,"Delta":190074352},{"NoteNumber":75,"Velocity":56,"Duration":55248,"SoundDuration":55248,"Delta":190129600},{"NoteNumber":74,"Velocity":56,"Duration":55248,"SoundDuration":55248,"Delta":190184849},{"NoteNumber":75,"Velocity":63,"Duration":260682,"SoundDuration":260682,"Delta":190240098},{"NoteNumber":77,"Velocity":58,"Duration":94936,"SoundDuration":94936,"Delta":190500780},{"NoteNumber":70,"Velocity":47,"Duration":679157,"SoundDuration":679157,"Delta":190595717},{"NoteNumber":75,"Velocity":56,"Duration":346821,"SoundDuration":346821,"Delta":190595717},{"NoteNumber":58,"Velocity":42,"Duration":679157,"SoundDuration":679157,"Delta":190595717},{"NoteNumber":65,"Velocity":50,"Duration":679157,"SoundDuration":679157,"Delta":190595717},{"NoteNumber":74,"Velocity":46,"Duration":173410,"SoundDuration":173410,"Delta":190942538},{"NoteNumber":50,"Velocity":62,"Duration":692049,"SoundDuration":692049,"Delta":191289242},{"NoteNumber":58,"Velocity":52,"Duration":605842,"SoundDuration":605842,"Delta":191375449},{"NoteNumber":62,"Velocity":54,"Duration":519635,"SoundDuration":519635,"Delta":191461656},{"NoteNumber":74,"Velocity":54,"Duration":691063,"SoundDuration":691063,"Delta":191624700},{"NoteNumber":82,"Velocity":69,"Duration":609542,"SoundDuration":609542,"Delta":191706221},{"NoteNumber":86,"Velocity":73,"Duration":528020,"SoundDuration":528020,"Delta":191787743},{"NoteNumber":51,"Velocity":69,"Duration":688598,"SoundDuration":688598,"Delta":191981292},{"NoteNumber":58,"Velocity":58,"Duration":602883,"SoundDuration":602883,"Delta":192067006},{"NoteNumber":62,"Velocity":60,"Duration":517169,"SoundDuration":517169,"Delta":192152720},{"NoteNumber":74,"Velocity":61,"Duration":686743,"SoundDuration":686743,"Delta":192315764},{"NoteNumber":82,"Velocity":73,"Duration":605221,"SoundDuration":605221,"Delta":192397285},{"NoteNumber":86,"Velocity":78,"Duration":523699,"SoundDuration":523699,"Delta":192478807},{"NoteNumber":53,"Velocity":73,"Duration":682278,"SoundDuration":682278,"Delta":192669890},{"NoteNumber":58,"Velocity":61,"Duration":597051,"SoundDuration":597051,"Delta":192755117},{"NoteNumber":62,"Velocity":64,"Duration":511824,"SoundDuration":511824,"Delta":192840344},{"NoteNumber":74,"Velocity":65,"Duration":681315,"SoundDuration":681315,"Delta":193002507},{"NoteNumber":82,"Velocity":76,"Duration":600234,"SoundDuration":600234,"Delta":193083588},{"NoteNumber":86,"Velocity":81,"Duration":519153,"SoundDuration":519153,"Delta":193164669},{"NoteNumber":55,"Velocity":77,"Duration":709643,"SoundDuration":709643,"Delta":193352169},{"NoteNumber":58,"Velocity":64,"Duration":624897,"SoundDuration":624897,"Delta":193436915},{"NoteNumber":62,"Velocity":68,"Duration":540151,"SoundDuration":540151,"Delta":193521660},{"NoteNumber":74,"Velocity":68,"Duration":377989,"SoundDuration":377989,"Delta":193683823},{"NoteNumber":82,"Velocity":80,"Duration":296908,"SoundDuration":296908,"Delta":193764904},{"NoteNumber":86,"Velocity":86,"Duration":215827,"SoundDuration":215827,"Delta":193845985},{"NoteNumber":62,"Velocity":58,"Duration":372670,"SoundDuration":372670,"Delta":194061812},{"NoteNumber":65,"Velocity":58,"Duration":372670,"SoundDuration":372670,"Delta":194061812},{"NoteNumber":70,"Velocity":69,"Duration":357143,"SoundDuration":357143,"Delta":194061812},{"NoteNumber":86,"Velocity":90,"Duration":670474,"SoundDuration":670474,"Delta":194434483},{"NoteNumber":74,"Velocity":75,"Duration":670474,"SoundDuration":670474,"Delta":194434483},{"NoteNumber":64,"Velocity":58,"Duration":331491,"SoundDuration":331491,"Delta":194434483},{"NoteNumber":67,"Velocity":58,"Duration":331491,"SoundDuration":331491,"Delta":194434483},{"NoteNumber":70,"Velocity":64,"Duration":670474,"SoundDuration":670474,"Delta":194434483},{"NoteNumber":65,"Velocity":59,"Duration":677965,"SoundDuration":677965,"Delta":194765975},{"NoteNumber":84,"Velocity":68,"Duration":169491,"SoundDuration":169491,"Delta":195104958},{"NoteNumber":72,"Velocity":57,"Duration":169491,"SoundDuration":169491,"Delta":195104958},{"NoteNumber":69,"Velocity":63,"Duration":169491,"SoundDuration":169491,"Delta":195104958},{"NoteNumber":58,"Velocity":58,"Duration":346821,"SoundDuration":346821,"Delta":195443941},{"NoteNumber":62,"Velocity":58,"Duration":346821,"SoundDuration":346821,"Delta":195443941},{"NoteNumber":67,"Velocity":69,"Duration":332370,"SoundDuration":332370,"Delta":195443941},{"NoteNumber":82,"Velocity":90,"Duration":670474,"SoundDuration":670474,"Delta":195790762},{"NoteNumber":70,"Velocity":75,"Duration":670474,"SoundDuration":670474,"Delta":195790762},{"NoteNumber":61,"Velocity":55,"Duration":331491,"SoundDuration":331491,"Delta":195790762},{"NoteNumber":64,"Velocity":55,"Duration":670474,"SoundDuration":670474,"Delta":195790762},{"NoteNumber":67,"Velocity":64,"Duration":670474,"SoundDuration":670474,"Delta":195790762},{"NoteNumber":62,"Velocity":59,"Duration":508474,"SoundDuration":508474,"Delta":196122253},{"NoteNumber":81,"Velocity":68,"Duration":169491,"SoundDuration":169491,"Delta":196461236},{"NoteNumber":69,"Velocity":57,"Duration":169491,"SoundDuration":169491,"Delta":196461236},{"NoteNumber":65,"Velocity":63,"Duration":169491,"SoundDuration":169491,"Delta":196461236},{"NoteNumber":55,"Velocity":58,"Duration":346924,"SoundDuration":346924,"Delta":196800219},{"NoteNumber":58,"Velocity":58,"Duration":346924,"SoundDuration":346924,"Delta":196800219},{"NoteNumber":63,"Velocity":69,"Duration":346924,"SoundDuration":346924,"Delta":196800219},{"NoteNumber":79,"Velocity":90,"Duration":501946,"SoundDuration":501946,"Delta":197147144},{"NoteNumber":67,"Velocity":75,"Duration":501946,"SoundDuration":501946,"Delta":197147144},{"NoteNumber":57,"Velocity":58,"Duration":331491,"SoundDuration":331491,"Delta":197147144},{"NoteNumber":60,"Velocity":58,"Duration":331491,"SoundDuration":331491,"Delta":197147144},{"NoteNumber":63,"Velocity":64,"Duration":672400,"SoundDuration":672400,"Delta":197147144},{"NoteNumber":58,"Velocity":68,"Duration":340909,"SoundDuration":340909,"Delta":197478636},{"NoteNumber":65,"Velocity":57,"Duration":340908,"SoundDuration":340908,"Delta":197649090},{"NoteNumber":77,"Velocity":68,"Duration":340908,"SoundDuration":340908,"Delta":197649090},{"NoteNumber":62,"Velocity":58,"Duration":340908,"SoundDuration":340908,"Delta":197649090},{"NoteNumber":51,"Velocity":49,"Duration":340908,"SoundDuration":340908,"Delta":197819545},{"NoteNumber":63,"Velocity":66,"Duration":340909,"SoundDuration":340909,"Delta":197989999},{"NoteNumber":75,"Velocity":66,"Duration":340909,"SoundDuration":340909,"Delta":197989999},{"NoteNumber":60,"Velocity":66,"Duration":340909,"SoundDuration":340909,"Delta":197989999},{"NoteNumber":53,"Velocity":56,"Duration":326704,"SoundDuration":326704,"Delta":198160454},{"NoteNumber":62,"Velocity":57,"Duration":340909,"SoundDuration":340909,"Delta":198330908},{"NoteNumber":74,"Velocity":68,"Duration":340909,"SoundDuration":340909,"Delta":198330908},{"NoteNumber":58,"Velocity":59,"Duration":340909,"SoundDuration":340909,"Delta":198330908},{"NoteNumber":53,"Velocity":49,"Duration":381721,"SoundDuration":381721,"Delta":198501363},{"NoteNumber":60,"Velocity":59,"Duration":211267,"SoundDuration":211267,"Delta":198671817},{"NoteNumber":72,"Velocity":63,"Duration":211267,"SoundDuration":211267,"Delta":198671817},{"NoteNumber":57,"Velocity":59,"Duration":568410,"SoundDuration":568410,"Delta":198671817},{"NoteNumber":61,"Velocity":61,"Duration":357143,"SoundDuration":357143,"Delta":198883085},{"NoteNumber":73,"Velocity":72,"Duration":357143,"SoundDuration":357143,"Delta":198883085},{"NoteNumber":46,"Velocity":56,"Duration":535714,"SoundDuration":535714,"Delta":198883085},{"NoteNumber":62,"Velocity":56,"Duration":178571,"SoundDuration":178571,"Delta":199240228},{"NoteNumber":74,"Velocity":66,"Duration":178571,"SoundDuration":178571,"Delta":199240228},{"NoteNumber":58,"Velocity":66,"Duration":178571,"SoundDuration":178571,"Delta":199240228},{"NoteNumber":62,"Velocity":62,"Duration":361446,"SoundDuration":361446,"Delta":199597371},{"NoteNumber":46,"Velocity":63,"Duration":704303,"SoundDuration":704303,"Delta":199597371},{"NoteNumber":53,"Velocity":63,"Duration":361446,"SoundDuration":361446,"Delta":199597371},{"NoteNumber":74,"Velocity":57,"Duration":700000,"SoundDuration":700000,"Delta":199958817},{"NoteNumber":64,"Velocity":53,"Duration":700000,"SoundDuration":700000,"Delta":199958817},{"NoteNumber":55,"Velocity":57,"Duration":700000,"SoundDuration":700000,"Delta":199958817},{"NoteNumber":45,"Velocity":68,"Duration":714285,"SoundDuration":714285,"Delta":200301674},{"NoteNumber":65,"Velocity":68,"Duration":178571,"SoundDuration":178571,"Delta":200658817},{"NoteNumber":72,"Velocity":57,"Duration":178571,"SoundDuration":178571,"Delta":200658817},{"NoteNumber":57,"Velocity":63,"Duration":178571,"SoundDuration":178571,"Delta":200658817},{"NoteNumber":58,"Velocity":62,"Duration":361446,"SoundDuration":361446,"Delta":201015960},{"NoteNumber":43,"Velocity":63,"Duration":704303,"SoundDuration":704303,"Delta":201015960},{"NoteNumber":50,"Velocity":63,"Duration":361446,"SoundDuration":361446,"Delta":201015960},{"NoteNumber":70,"Velocity":57,"Duration":700000,"SoundDuration":700000,"Delta":201377406},{"NoteNumber":61,"Velocity":53,"Duration":700000,"SoundDuration":700000,"Delta":201377406},{"NoteNumber":52,"Velocity":57,"Duration":700000,"SoundDuration":700000,"Delta":201377406},{"NoteNumber":41,"Velocity":68,"Duration":714285,"SoundDuration":714285,"Delta":201720263},{"NoteNumber":62,"Velocity":68,"Duration":178571,"SoundDuration":178571,"Delta":202077406},{"NoteNumber":69,"Velocity":57,"Duration":178571,"SoundDuration":178571,"Delta":202077406},{"NoteNumber":53,"Velocity":63,"Duration":178571,"SoundDuration":178571,"Delta":202077406},{"NoteNumber":55,"Velocity":62,"Duration":357143,"SoundDuration":357143,"Delta":202434549},{"NoteNumber":67,"Velocity":62,"Duration":357143,"SoundDuration":357143,"Delta":202434549},{"NoteNumber":39,"Velocity":68,"Duration":714286,"SoundDuration":714286,"Delta":202434549},{"NoteNumber":46,"Velocity":63,"Duration":357143,"SoundDuration":357143,"Delta":202434549},{"NoteNumber":57,"Velocity":59,"Duration":357143,"SoundDuration":357143,"Delta":202791692},{"NoteNumber":66,"Velocity":53,"Duration":714286,"SoundDuration":714286,"Delta":202791692},{"NoteNumber":48,"Velocity":57,"Duration":357143,"SoundDuration":357143,"Delta":202791692},{"NoteNumber":58,"Velocity":59,"Duration":357143,"SoundDuration":357143,"Delta":203148835},{"NoteNumber":53,"Velocity":56,"Duration":357143,"SoundDuration":357143,"Delta":203148835},{"NoteNumber":38,"Velocity":68,"Duration":357143,"SoundDuration":357143,"Delta":203148835},{"NoteNumber":65,"Velocity":69,"Duration":357143,"SoundDuration":357143,"Delta":203327406},{"NoteNumber":55,"Velocity":69,"Duration":356986,"SoundDuration":356986,"Delta":203505978},{"NoteNumber":60,"Velocity":69,"Duration":356986,"SoundDuration":356986,"Delta":203505978},{"NoteNumber":39,"Velocity":69,"Duration":356986,"SoundDuration":356986,"Delta":203505978},{"NoteNumber":63,"Velocity":77,"Duration":354699,"SoundDuration":354699,"Delta":203684549},{"NoteNumber":58,"Velocity":68,"Duration":355733,"SoundDuration":355733,"Delta":203862964},{"NoteNumber":53,"Velocity":68,"Duration":355733,"SoundDuration":355733,"Delta":203862964},{"NoteNumber":41,"Velocity":73,"Duration":355733,"SoundDuration":355733,"Delta":203862964},{"NoteNumber":62,"Velocity":84,"Duration":361780,"SoundDuration":361780,"Delta":204039248},{"NoteNumber":57,"Velocity":72,"Duration":367949,"SoundDuration":367949,"Delta":204218698},{"NoteNumber":51,"Velocity":72,"Duration":367949,"SoundDuration":367949,"Delta":204218698},{"NoteNumber":29,"Velocity":79,"Duration":367949,"SoundDuration":367949,"Delta":204218698},{"NoteNumber":60,"Velocity":92,"Duration":185618,"SoundDuration":185618,"Delta":204401029},{"NoteNumber":58,"Velocity":92,"Duration":88757,"SoundDuration":88757,"Delta":204586648},{"NoteNumber":34,"Velocity":83,"Duration":345900,"SoundDuration":345900,"Delta":204586648},{"NoteNumber":50,"Velocity":50,"Duration":85714,"SoundDuration":85714,"Delta":204675405},{"NoteNumber":53,"Velocity":50,"Duration":85714,"SoundDuration":85714,"Delta":204761119},{"NoteNumber":58,"Velocity":50,"Duration":85714,"SoundDuration":85714,"Delta":204846834},{"NoteNumber":62,"Velocity":53,"Duration":85714,"SoundDuration":85714,"Delta":204932548},{"NoteNumber":46,"Velocity":46,"Duration":1042856,"SoundDuration":1042856,"Delta":204932548},{"NoteNumber":65,"Velocity":50,"Duration":85714,"SoundDuration":85714,"Delta":205018262},{"NoteNumber":70,"Velocity":50,"Duration":85714,"SoundDuration":85714,"Delta":205103976},{"NoteNumber":74,"Velocity":50,"Duration":85714,"SoundDuration":85714,"Delta":205189691},{"NoteNumber":65,"Velocity":55,"Duration":85714,"SoundDuration":85714,"Delta":205275405},{"NoteNumber":50,"Velocity":46,"Duration":699999,"SoundDuration":699999,"Delta":205275405},{"NoteNumber":70,"Velocity":50,"Duration":85714,"SoundDuration":85714,"Delta":205361119},{"NoteNumber":74,"Velocity":50,"Duration":85714,"SoundDuration":85714,"Delta":205446833},{"NoteNumber":77,"Velocity":50,"Duration":85714,"SoundDuration":85714,"Delta":205532548},{"NoteNumber":70,"Velocity":55,"Duration":85714,"SoundDuration":85714,"Delta":205618262},{"NoteNumber":53,"Velocity":46,"Duration":357142,"SoundDuration":357142,"Delta":205618262},{"NoteNumber":74,"Velocity":50,"Duration":85714,"SoundDuration":85714,"Delta":205703976},{"NoteNumber":77,"Velocity":50,"Duration":85714,"SoundDuration":85714,"Delta":205789690},{"NoteNumber":82,"Velocity":50,"Duration":99999,"SoundDuration":99999,"Delta":205875405},{"NoteNumber":81,"Velocity":69,"Duration":88235,"SoundDuration":88235,"Delta":205975405},{"NoteNumber":46,"Velocity":54,"Duration":1395199,"SoundDuration":1395199,"Delta":205975405},{"NoteNumber":48,"Velocity":54,"Duration":1395199,"SoundDuration":1395199,"Delta":205975405},{"NoteNumber":87,"Velocity":50,"Duration":88235,"SoundDuration":88235,"Delta":206063640},{"NoteNumber":84,"Velocity":50,"Duration":86206,"SoundDuration":86206,"Delta":206151875},{"NoteNumber":81,"Velocity":50,"Duration":86206,"SoundDuration":86206,"Delta":206238082},{"NoteNumber":77,"Velocity":54,"Duration":86206,"SoundDuration":86206,"Delta":206324289},{"NoteNumber":51,"Velocity":47,"Duration":1046314,"SoundDuration":1046314,"Delta":206324289},{"NoteNumber":84,"Velocity":50,"Duration":86206,"SoundDuration":86206,"Delta":206410496},{"NoteNumber":81,"Velocity":50,"Duration":86206,"SoundDuration":86206,"Delta":206496703},{"NoteNumber":77,"Velocity":50,"Duration":86206,"SoundDuration":86206,"Delta":206582909},{"NoteNumber":75,"Velocity":56,"Duration":86206,"SoundDuration":86206,"Delta":206669116},{"NoteNumber":53,"Velocity":47,"Duration":701487,"SoundDuration":701487,"Delta":206669116},{"NoteNumber":81,"Velocity":50,"Duration":86206,"SoundDuration":86206,"Delta":206755323},{"NoteNumber":77,"Velocity":50,"Duration":86206,"SoundDuration":86206,"Delta":206841530},{"NoteNumber":75,"Velocity":50,"Duration":86206,"SoundDuration":86206,"Delta":206927737},{"NoteNumber":72,"Velocity":54,"Duration":86206,"SoundDuration":86206,"Delta":207013944},{"NoteNumber":57,"Velocity":47,"Duration":356659,"SoundDuration":356659,"Delta":207013944},{"NoteNumber":77,"Velocity":50,"Duration":86206,"SoundDuration":86206,"Delta":207100151},{"NoteNumber":75,"Velocity":50,"Duration":86206,"SoundDuration":86206,"Delta":207186358},{"NoteNumber":72,"Velocity":50,"Duration":98039,"SoundDuration":98039,"Delta":207272564},{"NoteNumber":70,"Velocity":69,"Duration":88757,"SoundDuration":88757,"Delta":207370604},{"NoteNumber":34,"Velocity":64,"Duration":345900,"SoundDuration":345900,"Delta":207370604},{"NoteNumber":50,"Velocity":50,"Duration":85714,"SoundDuration":85714,"Delta":207459361},{"NoteNumber":53,"Velocity":50,"Duration":85714,"SoundDuration":85714,"Delta":207545075},{"NoteNumber":58,"Velocity":50,"Duration":85714,"SoundDuration":85714,"Delta":207630790},{"NoteNumber":62,"Velocity":53,"Duration":85714,"SoundDuration":85714,"Delta":207716504},{"NoteNumber":46,"Velocity":46,"Duration":1042856,"SoundDuration":1042856,"Delta":207716504},{"NoteNumber":65,"Velocity":50,"Duration":85714,"SoundDuration":85714,"Delta":207802218},{"NoteNumber":70,"Velocity":50,"Duration":85714,"SoundDuration":85714,"Delta":207887932},{"NoteNumber":74,"Velocity":50,"Duration":85714,"SoundDuration":85714,"Delta":207973647},{"NoteNumber":65,"Velocity":55,"Duration":85714,"SoundDuration":85714,"Delta":208059361},{"NoteNumber":50,"Velocity":46,"Duration":699999,"SoundDuration":699999,"Delta":208059361},{"NoteNumber":70,"Velocity":50,"Duration":85714,"SoundDuration":85714,"Delta":208145075},{"NoteNumber":74,"Velocity":50,"Duration":85714,"SoundDuration":85714,"Delta":208230789},{"NoteNumber":77,"Velocity":50,"Duration":85714,"SoundDuration":85714,"Delta":208316504},{"NoteNumber":70,"Velocity":55,"Duration":85714,"SoundDuration":85714,"Delta":208402218},{"NoteNumber":53,"Velocity":46,"Duration":357142,"SoundDuration":357142,"Delta":208402218},{"NoteNumber":74,"Velocity":50,"Duration":85714,"SoundDuration":85714,"Delta":208487932},{"NoteNumber":77,"Velocity":50,"Duration":85714,"SoundDuration":85714,"Delta":208573646},{"NoteNumber":82,"Velocity":50,"Duration":99999,"SoundDuration":99999,"Delta":208659361},{"NoteNumber":81,"Velocity":72,"Duration":88235,"SoundDuration":88235,"Delta":208759361},{"NoteNumber":46,"Velocity":54,"Duration":1395199,"SoundDuration":1395199,"Delta":208759361},{"NoteNumber":48,"Velocity":54,"Duration":1395199,"SoundDuration":1395199,"Delta":208759361},{"NoteNumber":87,"Velocity":50,"Duration":88235,"SoundDuration":88235,"Delta":208847596},{"NoteNumber":84,"Velocity":50,"Duration":86206,"SoundDuration":86206,"Delta":208935831},{"NoteNumber":81,"Velocity":50,"Duration":86206,"SoundDuration":86206,"Delta":209022038},{"NoteNumber":77,"Velocity":54,"Duration":86206,"SoundDuration":86206,"Delta":209108245},{"NoteNumber":51,"Velocity":47,"Duration":1046314,"SoundDuration":1046314,"Delta":209108245},{"NoteNumber":84,"Velocity":50,"Duration":86206,"SoundDuration":86206,"Delta":209194452},{"NoteNumber":81,"Velocity":50,"Duration":86206,"SoundDuration":86206,"Delta":209280659},{"NoteNumber":77,"Velocity":50,"Duration":86206,"SoundDuration":86206,"Delta":209366865},{"NoteNumber":75,"Velocity":56,"Duration":86206,"SoundDuration":86206,"Delta":209453072},{"NoteNumber":53,"Velocity":47,"Duration":701487,"SoundDuration":701487,"Delta":209453072},{"NoteNumber":81,"Velocity":50,"Duration":86206,"SoundDuration":86206,"Delta":209539279},{"NoteNumber":77,"Velocity":50,"Duration":86206,"SoundDuration":86206,"Delta":209625486},{"NoteNumber":75,"Velocity":50,"Duration":86206,"SoundDuration":86206,"Delta":209711693},{"NoteNumber":72,"Velocity":54,"Duration":86206,"SoundDuration":86206,"Delta":209797900},{"NoteNumber":57,"Velocity":47,"Duration":356659,"SoundDuration":356659,"Delta":209797900},{"NoteNumber":77,"Velocity":50,"Duration":86206,"SoundDuration":86206,"Delta":209884107},{"NoteNumber":75,"Velocity":50,"Duration":86206,"SoundDuration":86206,"Delta":209970314},{"NoteNumber":72,"Velocity":50,"Duration":98039,"SoundDuration":98039,"Delta":210056520},{"NoteNumber":70,"Velocity":74,"Duration":88757,"SoundDuration":88757,"Delta":210154560},{"NoteNumber":34,"Velocity":69,"Duration":345900,"SoundDuration":345900,"Delta":210154560},{"NoteNumber":50,"Velocity":50,"Duration":85714,"SoundDuration":85714,"Delta":210243317},{"NoteNumber":53,"Velocity":50,"Duration":85714,"SoundDuration":85714,"Delta":210329031},{"NoteNumber":58,"Velocity":50,"Duration":85714,"SoundDuration":85714,"Delta":210414746},{"NoteNumber":62,"Velocity":53,"Duration":85714,"SoundDuration":85714,"Delta":210500460},{"NoteNumber":46,"Velocity":52,"Duration":1060966,"SoundDuration":1060966,"Delta":210500460},{"NoteNumber":65,"Velocity":50,"Duration":85714,"SoundDuration":85714,"Delta":210586174},{"NoteNumber":70,"Velocity":50,"Duration":85714,"SoundDuration":85714,"Delta":210671888},{"NoteNumber":74,"Velocity":50,"Duration":85714,"SoundDuration":85714,"Delta":210757603},{"NoteNumber":65,"Velocity":55,"Duration":85714,"SoundDuration":85714,"Delta":210843317},{"NoteNumber":50,"Velocity":52,"Duration":718109,"SoundDuration":718109,"Delta":210843317},{"NoteNumber":70,"Velocity":50,"Duration":85714,"SoundDuration":85714,"Delta":210929031},{"NoteNumber":74,"Velocity":50,"Duration":85714,"SoundDuration":85714,"Delta":211014745},{"NoteNumber":77,"Velocity":50,"Duration":85714,"SoundDuration":85714,"Delta":211100460},{"NoteNumber":70,"Velocity":55,"Duration":85714,"SoundDuration":85714,"Delta":211186174},{"NoteNumber":53,"Velocity":52,"Duration":375252,"SoundDuration":375252,"Delta":211186174},{"NoteNumber":74,"Velocity":50,"Duration":85714,"SoundDuration":85714,"Delta":211271888},{"NoteNumber":77,"Velocity":50,"Duration":85714,"SoundDuration":85714,"Delta":211357602},{"NoteNumber":82,"Velocity":50,"Duration":118110,"SoundDuration":118110,"Delta":211443317},{"NoteNumber":32,"Velocity":77,"Duration":345900,"SoundDuration":345900,"Delta":211561427},{"NoteNumber":50,"Velocity":55,"Duration":85714,"SoundDuration":85714,"Delta":211650184},{"NoteNumber":53,"Velocity":55,"Duration":85714,"SoundDuration":85714,"Delta":211735898},{"NoteNumber":58,"Velocity":55,"Duration":85714,"SoundDuration":85714,"Delta":211821613},{"NoteNumber":62,"Velocity":58,"Duration":85714,"SoundDuration":85714,"Delta":211907327},{"NoteNumber":44,"Velocity":56,"Duration":1062856,"SoundDuration":1062856,"Delta":211907327},{"NoteNumber":65,"Velocity":55,"Duration":85714,"SoundDuration":85714,"Delta":211993041},{"NoteNumber":70,"Velocity":55,"Duration":85714,"SoundDuration":85714,"Delta":212078755},{"NoteNumber":74,"Velocity":55,"Duration":85714,"SoundDuration":85714,"Delta":212164470},{"NoteNumber":65,"Velocity":60,"Duration":85714,"SoundDuration":85714,"Delta":212250184},{"NoteNumber":50,"Velocity":56,"Duration":719999,"SoundDuration":719999,"Delta":212250184},{"NoteNumber":70,"Velocity":55,"Duration":85714,"SoundDuration":85714,"Delta":212335898},{"NoteNumber":74,"Velocity":55,"Duration":85714,"SoundDuration":85714,"Delta":212421612},{"NoteNumber":77,"Velocity":55,"Duration":85714,"SoundDuration":85714,"Delta":212507327},{"NoteNumber":70,"Velocity":60,"Duration":85714,"SoundDuration":85714,"Delta":212593041},{"NoteNumber":53,"Velocity":56,"Duration":377142,"SoundDuration":377142,"Delta":212593041},{"NoteNumber":74,"Velocity":55,"Duration":85714,"SoundDuration":85714,"Delta":212678755},{"NoteNumber":77,"Velocity":55,"Duration":85714,"SoundDuration":85714,"Delta":212764469},{"NoteNumber":82,"Velocity":55,"Duration":120000,"SoundDuration":120000,"Delta":212850184},{"NoteNumber":31,"Velocity":83,"Duration":345900,"SoundDuration":345900,"Delta":212970184},{"NoteNumber":51,"Velocity":55,"Duration":85714,"SoundDuration":85714,"Delta":213058941},{"NoteNumber":55,"Velocity":60,"Duration":85714,"SoundDuration":85714,"Delta":213144655},{"NoteNumber":58,"Velocity":60,"Duration":85714,"SoundDuration":85714,"Delta":213230370},{"NoteNumber":63,"Velocity":63,"Duration":85714,"SoundDuration":85714,"Delta":213316084},{"NoteNumber":43,"Velocity":57,"Duration":1075600,"SoundDuration":1075600,"Delta":213316084},{"NoteNumber":67,"Velocity":60,"Duration":85714,"SoundDuration":85714,"Delta":213401798},{"NoteNumber":70,"Velocity":60,"Duration":85714,"SoundDuration":85714,"Delta":213487512},{"NoteNumber":75,"Velocity":60,"Duration":85714,"SoundDuration":85714,"Delta":213573227},{"NoteNumber":67,"Velocity":66,"Duration":85714,"SoundDuration":85714,"Delta":213658941},{"NoteNumber":46,"Velocity":57,"Duration":732743,"SoundDuration":732743,"Delta":213658941},{"NoteNumber":70,"Velocity":60,"Duration":85714,"SoundDuration":85714,"Delta":213744655},{"NoteNumber":75,"Velocity":60,"Duration":85714,"SoundDuration":85714,"Delta":213830369},{"NoteNumber":79,"Velocity":60,"Duration":85714,"SoundDuration":85714,"Delta":213916084},{"NoteNumber":70,"Velocity":66,"Duration":85714,"SoundDuration":85714,"Delta":214001798},{"NoteNumber":51,"Velocity":57,"Duration":389886,"SoundDuration":389886,"Delta":214001798},{"NoteNumber":75,"Velocity":60,"Duration":85714,"SoundDuration":85714,"Delta":214087512},{"NoteNumber":79,"Velocity":60,"Duration":85714,"SoundDuration":85714,"Delta":214173226},{"NoteNumber":82,"Velocity":60,"Duration":132743,"SoundDuration":132743,"Delta":214258941},{"NoteNumber":38,"Velocity":59,"Duration":87209,"SoundDuration":87209,"Delta":214391684},{"NoteNumber":41,"Velocity":60,"Duration":86705,"SoundDuration":86705,"Delta":214478893},{"NoteNumber":44,"Velocity":61,"Duration":86705,"SoundDuration":86705,"Delta":214565598},{"NoteNumber":46,"Velocity":61,"Duration":86705,"SoundDuration":86705,"Delta":214652304},{"NoteNumber":50,"Velocity":62,"Duration":86705,"SoundDuration":86705,"Delta":214739009},{"NoteNumber":53,"Velocity":64,"Duration":86705,"SoundDuration":86705,"Delta":214825714},{"NoteNumber":56,"Velocity":65,"Duration":86705,"SoundDuration":86705,"Delta":214912419},{"NoteNumber":58,"Velocity":66,"Duration":86705,"SoundDuration":86705,"Delta":214999125},{"NoteNumber":62,"Velocity":66,"Duration":86705,"SoundDuration":86705,"Delta":215085830},{"NoteNumber":65,"Velocity":59,"Duration":86705,"SoundDuration":86705,"Delta":215172535},{"NoteNumber":68,"Velocity":61,"Duration":86705,"SoundDuration":86705,"Delta":215259240},{"NoteNumber":70,"Velocity":64,"Duration":86705,"SoundDuration":86705,"Delta":215345946},{"NoteNumber":74,"Velocity":67,"Duration":69050,"SoundDuration":69050,"Delta":215432651},{"NoteNumber":77,"Velocity":68,"Duration":70493,"SoundDuration":70493,"Delta":215501701},{"NoteNumber":80,"Velocity":70,"Duration":73256,"SoundDuration":73256,"Delta":215572195},{"NoteNumber":84,"Velocity":68,"Duration":88691,"SoundDuration":88691,"Delta":215645451},{"NoteNumber":82,"Velocity":65,"Duration":127659,"SoundDuration":127659,"Delta":215734143},{"NoteNumber":80,"Velocity":50,"Duration":175438,"SoundDuration":175438,"Delta":215861803},{"NoteNumber":63,"Velocity":42,"Duration":350876,"SoundDuration":350876,"Delta":215861803},{"NoteNumber":79,"Velocity":46,"Duration":175438,"SoundDuration":175438,"Delta":216037241},{"NoteNumber":70,"Velocity":34,"Duration":175438,"SoundDuration":175438,"Delta":216037241},{"NoteNumber":77,"Velocity":46,"Duration":175438,"SoundDuration":175438,"Delta":216212680},{"NoteNumber":67,"Velocity":38,"Duration":350876,"SoundDuration":350876,"Delta":216212680},{"NoteNumber":75,"Velocity":46,"Duration":175438,"SoundDuration":175438,"Delta":216388118},{"NoteNumber":70,"Velocity":34,"Duration":175438,"SoundDuration":175438,"Delta":216388118},{"NoteNumber":74,"Velocity":50,"Duration":350876,"SoundDuration":350876,"Delta":216563557},{"NoteNumber":68,"Velocity":38,"Duration":175438,"SoundDuration":175438,"Delta":216563557},{"NoteNumber":65,"Velocity":38,"Duration":350876,"SoundDuration":350876,"Delta":216563557},{"NoteNumber":70,"Velocity":34,"Duration":175438,"SoundDuration":175438,"Delta":216738995},{"NoteNumber":75,"Velocity":47,"Duration":372807,"SoundDuration":372807,"Delta":216914434},{"NoteNumber":67,"Velocity":37,"Duration":175438,"SoundDuration":175438,"Delta":216914434},{"NoteNumber":63,"Velocity":37,"Duration":372807,"SoundDuration":372807,"Delta":216914434},{"NoteNumber":70,"Velocity":34,"Duration":197368,"SoundDuration":197368,"Delta":217089872},{"NoteNumber":76,"Velocity":53,"Duration":348837,"SoundDuration":348837,"Delta":217287241},{"NoteNumber":62,"Velocity":43,"Duration":1394601,"SoundDuration":1394601,"Delta":217287241},{"NoteNumber":68,"Velocity":43,"Duration":1394601,"SoundDuration":1394601,"Delta":217287241},{"NoteNumber":70,"Velocity":34,"Duration":87209,"SoundDuration":87209,"Delta":217461659},{"NoteNumber":77,"Velocity":49,"Duration":348837,"SoundDuration":348837,"Delta":217636078},{"NoteNumber":70,"Velocity":34,"Duration":87209,"SoundDuration":87209,"Delta":217636078},{"NoteNumber":70,"Velocity":34,"Duration":87209,"SoundDuration":87209,"Delta":217810496},{"NoteNumber":70,"Velocity":37,"Duration":87209,"SoundDuration":87209,"Delta":217984915},{"NoteNumber":83,"Velocity":45,"Duration":35928,"SoundDuration":35928,"Delta":218159333},{"NoteNumber":70,"Velocity":34,"Duration":89820,"SoundDuration":89820,"Delta":218159333},{"NoteNumber":84,"Velocity":43,"Duration":35928,"SoundDuration":35928,"Delta":218195262},{"NoteNumber":83,"Velocity":45,"Duration":35928,"SoundDuration":35928,"Delta":218231190},{"NoteNumber":81,"Velocity":42,"Duration":35928,"SoundDuration":35928,"Delta":218267118},{"NoteNumber":83,"Velocity":42,"Duration":35928,"SoundDuration":35928,"Delta":218303046},{"NoteNumber":86,"Velocity":50,"Duration":170454,"SoundDuration":170454,"Delta":218338974},{"NoteNumber":70,"Velocity":34,"Duration":85227,"SoundDuration":85227,"Delta":218338974},{"NoteNumber":84,"Velocity":46,"Duration":172413,"SoundDuration":172413,"Delta":218509429},{"NoteNumber":70,"Velocity":34,"Duration":86206,"SoundDuration":86206,"Delta":218509429},{"NoteNumber":82,"Velocity":50,"Duration":173410,"SoundDuration":173410,"Delta":218681842},{"NoteNumber":62,"Velocity":42,"Duration":346821,"SoundDuration":346821,"Delta":218681842},{"NoteNumber":80,"Velocity":44,"Duration":173410,"SoundDuration":173410,"Delta":218855253},{"NoteNumber":70,"Velocity":34,"Duration":173410,"SoundDuration":173410,"Delta":218855253},{"NoteNumber":79,"Velocity":46,"Duration":173410,"SoundDuration":173410,"Delta":219028663},{"NoteNumber":68,"Velocity":38,"Duration":346821,"SoundDuration":346821,"Delta":219028663},{"NoteNumber":77,"Velocity":43,"Duration":173410,"SoundDuration":173410,"Delta":219202074},{"NoteNumber":70,"Velocity":34,"Duration":173410,"SoundDuration":173410,"Delta":219202074},{"NoteNumber":74,"Velocity":50,"Duration":173410,"SoundDuration":173410,"Delta":219375484},{"NoteNumber":67,"Velocity":38,"Duration":346820,"SoundDuration":346820,"Delta":219375484},{"NoteNumber":75,"Velocity":44,"Duration":173410,"SoundDuration":173410,"Delta":219548895},{"NoteNumber":70,"Velocity":34,"Duration":173410,"SoundDuration":173410,"Delta":219548895},{"NoteNumber":76,"Velocity":47,"Duration":173410,"SoundDuration":173410,"Delta":219722305},{"NoteNumber":62,"Velocity":37,"Duration":365718,"SoundDuration":365718,"Delta":219722305},{"NoteNumber":77,"Velocity":43,"Duration":192307,"SoundDuration":192307,"Delta":219895716},{"NoteNumber":70,"Velocity":34,"Duration":192307,"SoundDuration":192307,"Delta":219895716},{"NoteNumber":78,"Velocity":53,"Duration":348837,"SoundDuration":348837,"Delta":220088024},{"NoteNumber":63,"Velocity":43,"Duration":348837,"SoundDuration":348837,"Delta":220088024},{"NoteNumber":70,"Velocity":34,"Duration":87209,"SoundDuration":87209,"Delta":220262442},{"NoteNumber":79,"Velocity":49,"Duration":523255,"SoundDuration":523255,"Delta":220436861},{"NoteNumber":63,"Velocity":43,"Duration":348837,"SoundDuration":348837,"Delta":220436861},{"NoteNumber":71,"Velocity":34,"Duration":87209,"SoundDuration":87209,"Delta":220611279},{"NoteNumber":63,"Velocity":43,"Duration":355141,"SoundDuration":355141,"Delta":220785698},{"NoteNumber":79,"Velocity":51,"Duration":180723,"SoundDuration":180723,"Delta":220960116},{"NoteNumber":72,"Velocity":34,"Duration":90361,"SoundDuration":90361,"Delta":220960116},{"NoteNumber":80,"Velocity":58,"Duration":170454,"SoundDuration":170454,"Delta":221140839},{"NoteNumber":79,"Velocity":52,"Duration":174418,"SoundDuration":174418,"Delta":221311294},{"NoteNumber":77,"Velocity":50,"Duration":175438,"SoundDuration":175438,"Delta":221485712},{"NoteNumber":75,"Velocity":44,"Duration":175438,"SoundDuration":175438,"Delta":221661151},{"NoteNumber":67,"Velocity":34,"Duration":175438,"SoundDuration":175438,"Delta":221661151},{"NoteNumber":74,"Velocity":46,"Duration":175438,"SoundDuration":175438,"Delta":221836589},{"NoteNumber":63,"Velocity":38,"Duration":350876,"SoundDuration":350876,"Delta":221836589},{"NoteNumber":72,"Velocity":43,"Duration":175438,"SoundDuration":175438,"Delta":222012028},{"NoteNumber":67,"Velocity":34,"Duration":175438,"SoundDuration":175438,"Delta":222012028},{"NoteNumber":71,"Velocity":50,"Duration":350876,"SoundDuration":350876,"Delta":222187466},{"NoteNumber":65,"Velocity":38,"Duration":175438,"SoundDuration":175438,"Delta":222187466},{"NoteNumber":62,"Velocity":38,"Duration":350876,"SoundDuration":350876,"Delta":222187466},{"NoteNumber":67,"Velocity":34,"Duration":175438,"SoundDuration":175438,"Delta":222362905},{"NoteNumber":72,"Velocity":47,"Duration":372807,"SoundDuration":372807,"Delta":222538343},{"NoteNumber":63,"Velocity":37,"Duration":175438,"SoundDuration":175438,"Delta":222538343},{"NoteNumber":60,"Velocity":37,"Duration":372807,"SoundDuration":372807,"Delta":222538343},{"NoteNumber":67,"Velocity":34,"Duration":197368,"SoundDuration":197368,"Delta":222713782},{"NoteNumber":73,"Velocity":53,"Duration":348837,"SoundDuration":348837,"Delta":222911150},{"NoteNumber":59,"Velocity":43,"Duration":872092,"SoundDuration":872092,"Delta":222911150},{"NoteNumber":65,"Velocity":43,"Duration":872092,"SoundDuration":872092,"Delta":222911150},{"NoteNumber":67,"Velocity":34,"Duration":87209,"SoundDuration":87209,"Delta":223085569},{"NoteNumber":74,"Velocity":49,"Duration":348837,"SoundDuration":348837,"Delta":223259987},{"NoteNumber":67,"Velocity":34,"Duration":87209,"SoundDuration":87209,"Delta":223259987},{"NoteNumber":67,"Velocity":34,"Duration":87209,"SoundDuration":87209,"Delta":223434406},{"NoteNumber":67,"Velocity":34,"Duration":174418,"SoundDuration":174418,"Delta":223608824},{"NoteNumber":79,"Velocity":34,"Duration":182926,"SoundDuration":182926,"Delta":223783243},{"NoteNumber":80,"Velocity":40,"Duration":174418,"SoundDuration":174418,"Delta":223966169},{"NoteNumber":79,"Velocity":36,"Duration":174418,"SoundDuration":174418,"Delta":224140588},{"NoteNumber":77,"Velocity":40,"Duration":174418,"SoundDuration":174418,"Delta":224315006},{"NoteNumber":75,"Velocity":36,"Duration":174418,"SoundDuration":174418,"Delta":224489425},{"NoteNumber":74,"Velocity":38,"Duration":174418,"SoundDuration":174418,"Delta":224663843},{"NoteNumber":72,"Velocity":36,"Duration":193548,"SoundDuration":193548,"Delta":224838262},{"NoteNumber":75,"Velocity":34,"Duration":182926,"SoundDuration":182926,"Delta":225206229},{"NoteNumber":67,"Velocity":28,"Duration":182926,"SoundDuration":182926,"Delta":225206229},{"NoteNumber":77,"Velocity":40,"Duration":174418,"SoundDuration":174418,"Delta":225389156},{"NoteNumber":68,"Velocity":34,"Duration":174418,"SoundDuration":174418,"Delta":225389156},{"NoteNumber":75,"Velocity":36,"Duration":174418,"SoundDuration":174418,"Delta":225563574},{"NoteNumber":67,"Velocity":30,"Duration":174418,"SoundDuration":174418,"Delta":225563574},{"NoteNumber":74,"Velocity":40,"Duration":174418,"SoundDuration":174418,"Delta":225737993},{"NoteNumber":65,"Velocity":34,"Duration":174418,"SoundDuration":174418,"Delta":225737993},{"NoteNumber":72,"Velocity":36,"Duration":174418,"SoundDuration":174418,"Delta":225912411},{"NoteNumber":63,"Velocity":30,"Duration":174418,"SoundDuration":174418,"Delta":225912411},{"NoteNumber":70,"Velocity":38,"Duration":174418,"SoundDuration":174418,"Delta":226086830},{"NoteNumber":62,"Velocity":32,"Duration":174418,"SoundDuration":174418,"Delta":226086830},{"NoteNumber":69,"Velocity":36,"Duration":193548,"SoundDuration":193548,"Delta":226261248},{"NoteNumber":60,"Velocity":30,"Duration":193548,"SoundDuration":193548,"Delta":226261248},{"NoteNumber":63,"Velocity":40,"Duration":182926,"SoundDuration":182926,"Delta":226629215},{"NoteNumber":65,"Velocity":45,"Duration":174418,"SoundDuration":174418,"Delta":226812142},{"NoteNumber":63,"Velocity":41,"Duration":174418,"SoundDuration":174418,"Delta":226986560},{"NoteNumber":62,"Velocity":45,"Duration":174418,"SoundDuration":174418,"Delta":227160979},{"NoteNumber":60,"Velocity":40,"Duration":174418,"SoundDuration":174418,"Delta":227335397},{"NoteNumber":58,"Velocity":43,"Duration":174418,"SoundDuration":174418,"Delta":227509816},{"NoteNumber":57,"Velocity":40,"Duration":176470,"SoundDuration":176470,"Delta":227684234},{"NoteNumber":55,"Velocity":46,"Duration":174418,"SoundDuration":174418,"Delta":227860705},{"NoteNumber":53,"Velocity":40,"Duration":174418,"SoundDuration":174418,"Delta":228035123},{"NoteNumber":51,"Velocity":40,"Duration":174418,"SoundDuration":174418,"Delta":228209542},{"NoteNumber":50,"Velocity":40,"Duration":174418,"SoundDuration":174418,"Delta":228383960},{"NoteNumber":48,"Velocity":51,"Duration":174418,"SoundDuration":174418,"Delta":228558379},{"NoteNumber":57,"Velocity":36,"Duration":87209,"SoundDuration":87209,"Delta":228645588},{"NoteNumber":58,"Velocity":36,"Duration":87209,"SoundDuration":87209,"Delta":228732797},{"NoteNumber":46,"Velocity":41,"Duration":174418,"SoundDuration":174418,"Delta":228732797},{"NoteNumber":60,"Velocity":37,"Duration":87209,"SoundDuration":87209,"Delta":228820007},{"NoteNumber":62,"Velocity":37,"Duration":87209,"SoundDuration":87209,"Delta":228907216},{"NoteNumber":45,"Velocity":45,"Duration":174418,"SoundDuration":174418,"Delta":228907216},{"NoteNumber":63,"Velocity":38,"Duration":87209,"SoundDuration":87209,"Delta":228994425},{"NoteNumber":65,"Velocity":39,"Duration":89285,"SoundDuration":89285,"Delta":229081634},{"NoteNumber":43,"Velocity":47,"Duration":178571,"SoundDuration":178571,"Delta":229081634},{"NoteNumber":67,"Velocity":39,"Duration":89285,"SoundDuration":89285,"Delta":229170920},{"NoteNumber":69,"Velocity":40,"Duration":115033,"SoundDuration":115033,"Delta":229260206},{"NoteNumber":41,"Velocity":51,"Duration":3477723,"SoundDuration":3477723,"Delta":229260206},{"NoteNumber":70,"Velocity":42,"Duration":114942,"SoundDuration":114942,"Delta":229375240},{"NoteNumber":71,"Velocity":43,"Duration":114663,"SoundDuration":114663,"Delta":229490182},{"NoteNumber":72,"Velocity":44,"Duration":114285,"SoundDuration":114285,"Delta":229604846},{"NoteNumber":73,"Velocity":44,"Duration":114172,"SoundDuration":114172,"Delta":229719131},{"NoteNumber":74,"Velocity":45,"Duration":114104,"SoundDuration":114104,"Delta":229833303},{"NoteNumber":75,"Velocity":49,"Duration":115607,"SoundDuration":115607,"Delta":229947408},{"NoteNumber":69,"Velocity":42,"Duration":115116,"SoundDuration":115116,"Delta":230063015},{"NoteNumber":70,"Velocity":42,"Duration":114786,"SoundDuration":114786,"Delta":230178132},{"NoteNumber":71,"Velocity":45,"Duration":114285,"SoundDuration":114285,"Delta":230292918},{"NoteNumber":72,"Velocity":48,"Duration":113806,"SoundDuration":113806,"Delta":230407204},{"NoteNumber":74,"Velocity":50,"Duration":114986,"SoundDuration":114986,"Delta":230521011},{"NoteNumber":75,"Velocity":52,"Duration":115407,"SoundDuration":115407,"Delta":230635998},{"NoteNumber":69,"Velocity":47,"Duration":114704,"SoundDuration":114704,"Delta":230751405},{"NoteNumber":70,"Velocity":49,"Duration":114009,"SoundDuration":114009,"Delta":230866110},{"NoteNumber":71,"Velocity":50,"Duration":113323,"SoundDuration":113323,"Delta":230980119},{"NoteNumber":72,"Velocity":52,"Duration":112645,"SoundDuration":112645,"Delta":231093443},{"NoteNumber":74,"Velocity":53,"Duration":111975,"SoundDuration":111975,"Delta":231206088},{"NoteNumber":75,"Velocity":62,"Duration":83597,"SoundDuration":83597,"Delta":231318063},{"NoteNumber":69,"Velocity":54,"Duration":84269,"SoundDuration":84269,"Delta":231401660},{"NoteNumber":68,"Velocity":51,"Duration":84539,"SoundDuration":84539,"Delta":231485930},{"NoteNumber":69,"Velocity":52,"Duration":84898,"SoundDuration":84898,"Delta":231570469},{"NoteNumber":70,"Velocity":53,"Duration":85259,"SoundDuration":85259,"Delta":231655368},{"NoteNumber":71,"Velocity":54,"Duration":85714,"SoundDuration":85714,"Delta":231740627},{"NoteNumber":72,"Velocity":56,"Duration":85993,"SoundDuration":85993,"Delta":231826342},{"NoteNumber":73,"Velocity":57,"Duration":86364,"SoundDuration":86364,"Delta":231912335},{"NoteNumber":74,"Velocity":59,"Duration":117007,"SoundDuration":117007,"Delta":231998700},{"NoteNumber":75,"Velocity":61,"Duration":123125,"SoundDuration":123125,"Delta":232115707},{"NoteNumber":76,"Velocity":59,"Duration":128712,"SoundDuration":128712,"Delta":232238833},{"NoteNumber":79,"Velocity":50,"Duration":186335,"SoundDuration":186335,"Delta":232367545},{"NoteNumber":77,"Velocity":46,"Duration":168711,"SoundDuration":168711,"Delta":232553881},{"NoteNumber":77,"Velocity":50,"Duration":58479,"SoundDuration":58479,"Delta":232737930},{"NoteNumber":67,"Velocity":42,"Duration":87719,"SoundDuration":87719,"Delta":232737930},{"NoteNumber":75,"Velocity":46,"Duration":58479,"SoundDuration":58479,"Delta":232854889},{"NoteNumber":65,"Velocity":34,"Duration":173410,"SoundDuration":173410,"Delta":232913368},{"NoteNumber":74,"Velocity":46,"Duration":57803,"SoundDuration":57803,"Delta":232971172},{"NoteNumber":74,"Velocity":46,"Duration":57803,"SoundDuration":57803,"Delta":233086779},{"NoteNumber":62,"Velocity":38,"Duration":346821,"SoundDuration":346821,"Delta":233086779},{"NoteNumber":72,"Velocity":46,"Duration":57803,"SoundDuration":57803,"Delta":233202386},{"NoteNumber":65,"Velocity":34,"Duration":173410,"SoundDuration":173410,"Delta":233260189},{"NoteNumber":70,"Velocity":46,"Duration":57803,"SoundDuration":57803,"Delta":233317993},{"NoteNumber":70,"Velocity":50,"Duration":57803,"SoundDuration":57803,"Delta":233433600},{"NoteNumber":63,"Velocity":38,"Duration":173410,"SoundDuration":173410,"Delta":233433600},{"NoteNumber":60,"Velocity":38,"Duration":346821,"SoundDuration":346821,"Delta":233433600},{"NoteNumber":68,"Velocity":44,"Duration":57803,"SoundDuration":57803,"Delta":233549207},{"NoteNumber":65,"Velocity":34,"Duration":173410,"SoundDuration":173410,"Delta":233607010},{"NoteNumber":69,"Velocity":44,"Duration":57803,"SoundDuration":57803,"Delta":233664814},{"NoteNumber":72,"Velocity":47,"Duration":57803,"SoundDuration":57803,"Delta":233780421},{"NoteNumber":62,"Velocity":37,"Duration":173410,"SoundDuration":173410,"Delta":233780421},{"NoteNumber":58,"Velocity":37,"Duration":370778,"SoundDuration":370778,"Delta":233780421},{"NoteNumber":69,"Velocity":44,"Duration":57803,"SoundDuration":57803,"Delta":233896028},{"NoteNumber":65,"Velocity":34,"Duration":197368,"SoundDuration":197368,"Delta":233953831},{"NoteNumber":70,"Velocity":44,"Duration":65789,"SoundDuration":65789,"Delta":234019621},{"NoteNumber":71,"Velocity":53,"Duration":348837,"SoundDuration":348837,"Delta":234151200},{"NoteNumber":57,"Velocity":43,"Duration":1405692,"SoundDuration":1405692,"Delta":234151200},{"NoteNumber":63,"Velocity":43,"Duration":1405692,"SoundDuration":1405692,"Delta":234151200},{"NoteNumber":65,"Velocity":34,"Duration":87209,"SoundDuration":87209,"Delta":234325618},{"NoteNumber":72,"Velocity":49,"Duration":348837,"SoundDuration":348837,"Delta":234500037},{"NoteNumber":65,"Velocity":34,"Duration":87209,"SoundDuration":87209,"Delta":234500037},{"NoteNumber":65,"Velocity":34,"Duration":87209,"SoundDuration":87209,"Delta":234674455},{"NoteNumber":65,"Velocity":37,"Duration":88235,"SoundDuration":88235,"Delta":234848874},{"NoteNumber":78,"Velocity":45,"Duration":188679,"SoundDuration":188679,"Delta":235025344},{"NoteNumber":65,"Velocity":34,"Duration":94339,"SoundDuration":94339,"Delta":235025344},{"NoteNumber":81,"Velocity":50,"Duration":170454,"SoundDuration":170454,"Delta":235214024},{"NoteNumber":65,"Velocity":34,"Duration":85227,"SoundDuration":85227,"Delta":235214024},{"NoteNumber":79,"Velocity":46,"Duration":172413,"SoundDuration":172413,"Delta":235384478},{"NoteNumber":65,"Velocity":34,"Duration":86206,"SoundDuration":86206,"Delta":235384478},{"NoteNumber":79,"Velocity":50,"Duration":54945,"SoundDuration":54945,"Delta":235556892},{"NoteNumber":57,"Velocity":42,"Duration":337249,"SoundDuration":337249,"Delta":235556892},{"NoteNumber":77,"Velocity":46,"Duration":54945,"SoundDuration":54945,"Delta":235666782},{"NoteNumber":65,"Velocity":34,"Duration":172413,"SoundDuration":172413,"Delta":235721727},{"NoteNumber":75,"Velocity":46,"Duration":57471,"SoundDuration":57471,"Delta":235779198},{"NoteNumber":75,"Velocity":46,"Duration":57471,"SoundDuration":57471,"Delta":235894141},{"NoteNumber":63,"Velocity":38,"Duration":344827,"SoundDuration":344827,"Delta":235894141},{"NoteNumber":74,"Velocity":42,"Duration":57471,"SoundDuration":57471,"Delta":236009083},{"NoteNumber":65,"Velocity":34,"Duration":172413,"SoundDuration":172413,"Delta":236066555},{"NoteNumber":72,"Velocity":42,"Duration":57471,"SoundDuration":57471,"Delta":236124026},{"NoteNumber":72,"Velocity":50,"Duration":59171,"SoundDuration":59171,"Delta":236238968},{"NoteNumber":62,"Velocity":38,"Duration":355029,"SoundDuration":355029,"Delta":236238968},{"NoteNumber":69,"Velocity":44,"Duration":59171,"SoundDuration":59171,"Delta":236357311},{"NoteNumber":65,"Velocity":34,"Duration":177514,"SoundDuration":177514,"Delta":236416483},{"NoteNumber":70,"Velocity":44,"Duration":59171,"SoundDuration":59171,"Delta":236475655},{"NoteNumber":74,"Velocity":47,"Duration":59171,"SoundDuration":59171,"Delta":236593998},{"NoteNumber":57,"Velocity":37,"Duration":369822,"SoundDuration":369822,"Delta":236593998},{"NoteNumber":71,"Velocity":44,"Duration":59171,"SoundDuration":59171,"Delta":236712341},{"NoteNumber":65,"Velocity":34,"Duration":192307,"SoundDuration":192307,"Delta":236771513},{"NoteNumber":72,"Velocity":44,"Duration":64102,"SoundDuration":64102,"Delta":236835615},{"NoteNumber":73,"Velocity":53,"Duration":348837,"SoundDuration":348837,"Delta":236963820},{"NoteNumber":58,"Velocity":43,"Duration":1052815,"SoundDuration":1052815,"Delta":236963820},{"NoteNumber":65,"Velocity":34,"Duration":87209,"SoundDuration":87209,"Delta":237138239},{"NoteNumber":74,"Velocity":49,"Duration":465115,"SoundDuration":465115,"Delta":237312657},{"NoteNumber":65,"Velocity":34,"Duration":87209,"SoundDuration":87209,"Delta":237312657},{"NoteNumber":65,"Velocity":34,"Duration":87209,"SoundDuration":87209,"Delta":237487076},{"NoteNumber":65,"Velocity":37,"Duration":87209,"SoundDuration":87209,"Delta":237661494},{"NoteNumber":77,"Velocity":51,"Duration":118380,"SoundDuration":118380,"Delta":237777773},{"NoteNumber":65,"Velocity":34,"Duration":90361,"SoundDuration":90361,"Delta":237835913},{"NoteNumber":76,"Velocity":48,"Duration":120482,"SoundDuration":120482,"Delta":237896154},{"NoteNumber":77,"Velocity":58,"Duration":113636,"SoundDuration":113636,"Delta":238016636},{"NoteNumber":59,"Velocity":34,"Duration":344873,"SoundDuration":344873,"Delta":238016636},{"NoteNumber":79,"Velocity":52,"Duration":114957,"SoundDuration":114957,"Delta":238130272},{"NoteNumber":65,"Velocity":34,"Duration":87209,"SoundDuration":87209,"Delta":238187090},{"NoteNumber":74,"Velocity":49,"Duration":116278,"SoundDuration":116278,"Delta":238245230},{"NoteNumber":77,"Velocity":56,"Duration":116278,"SoundDuration":116278,"Delta":238361509},{"NoteNumber":60,"Velocity":42,"Duration":348837,"SoundDuration":348837,"Delta":238361509},{"NoteNumber":75,"Velocity":52,"Duration":116279,"SoundDuration":116279,"Delta":238477788},{"NoteNumber":65,"Velocity":34,"Duration":174418,"SoundDuration":174418,"Delta":238535927},{"NoteNumber":74,"Velocity":51,"Duration":116278,"SoundDuration":116278,"Delta":238594067},{"NoteNumber":75,"Velocity":57,"Duration":116278,"SoundDuration":116278,"Delta":238710346},{"NoteNumber":57,"Velocity":38,"Duration":348837,"SoundDuration":348837,"Delta":238710346},{"NoteNumber":77,"Velocity":52,"Duration":116278,"SoundDuration":116278,"Delta":238826625},{"NoteNumber":65,"Velocity":34,"Duration":174418,"SoundDuration":174418,"Delta":238884764},{"NoteNumber":72,"Velocity":52,"Duration":116279,"SoundDuration":116279,"Delta":238942904},{"NoteNumber":75,"Velocity":57,"Duration":117647,"SoundDuration":117647,"Delta":239059183},{"NoteNumber":58,"Velocity":42,"Duration":352940,"SoundDuration":352940,"Delta":239059183},{"NoteNumber":74,"Velocity":52,"Duration":117647,"SoundDuration":117647,"Delta":239176830},{"NoteNumber":65,"Velocity":34,"Duration":176470,"SoundDuration":176470,"Delta":239235653},{"NoteNumber":73,"Velocity":51,"Duration":117646,"SoundDuration":117646,"Delta":239294477},{"NoteNumber":74,"Velocity":59,"Duration":117647,"SoundDuration":117647,"Delta":239412124},{"NoteNumber":59,"Velocity":38,"Duration":358288,"SoundDuration":358288,"Delta":239412124},{"NoteNumber":79,"Velocity":52,"Duration":119429,"SoundDuration":119429,"Delta":239529771},{"NoteNumber":65,"Velocity":34,"Duration":181818,"SoundDuration":181818,"Delta":239588594},{"NoteNumber":74,"Velocity":55,"Duration":121212,"SoundDuration":121212,"Delta":239649200},{"NoteNumber":77,"Velocity":62,"Duration":116278,"SoundDuration":116278,"Delta":239770413},{"NoteNumber":60,"Velocity":47,"Duration":348837,"SoundDuration":348837,"Delta":239770413},{"NoteNumber":75,"Velocity":56,"Duration":116279,"SoundDuration":116279,"Delta":239886692},{"NoteNumber":65,"Velocity":34,"Duration":174418,"SoundDuration":174418,"Delta":239944831},{"NoteNumber":74,"Velocity":56,"Duration":116278,"SoundDuration":116278,"Delta":240002971},{"NoteNumber":75,"Velocity":62,"Duration":116278,"SoundDuration":116278,"Delta":240119250},{"NoteNumber":57,"Velocity":42,"Duration":348837,"SoundDuration":348837,"Delta":240119250},{"NoteNumber":77,"Velocity":54,"Duration":116278,"SoundDuration":116278,"Delta":240235529},{"NoteNumber":65,"Velocity":34,"Duration":174418,"SoundDuration":174418,"Delta":240293668},{"NoteNumber":72,"Velocity":54,"Duration":116279,"SoundDuration":116279,"Delta":240351808},{"NoteNumber":75,"Velocity":61,"Duration":87209,"SoundDuration":87209,"Delta":240468087},{"NoteNumber":58,"Velocity":48,"Duration":345846,"SoundDuration":345846,"Delta":240468087},{"NoteNumber":74,"Velocity":55,"Duration":87209,"SoundDuration":87209,"Delta":240555296},{"NoteNumber":73,"Velocity":52,"Duration":85714,"SoundDuration":85714,"Delta":240642505},{"NoteNumber":62,"Velocity":35,"Duration":171428,"SoundDuration":171428,"Delta":240642505},{"NoteNumber":74,"Velocity":53,"Duration":85714,"SoundDuration":85714,"Delta":240728219},{"NoteNumber":75,"Velocity":55,"Duration":85714,"SoundDuration":85714,"Delta":240813934},{"NoteNumber":57,"Velocity":44,"Duration":342857,"SoundDuration":342857,"Delta":240813934},{"NoteNumber":76,"Velocity":56,"Duration":85714,"SoundDuration":85714,"Delta":240899648},{"NoteNumber":77,"Velocity":57,"Duration":85714,"SoundDuration":85714,"Delta":240985362},{"NoteNumber":60,"Velocity":39,"Duration":171428,"SoundDuration":171428,"Delta":240985362},{"NoteNumber":78,"Velocity":58,"Duration":85714,"SoundDuration":85714,"Delta":241071076},{"NoteNumber":79,"Velocity":64,"Duration":86206,"SoundDuration":86206,"Delta":241156791},{"NoteNumber":55,"Velocity":55,"Duration":330459,"SoundDuration":330459,"Delta":241156791},{"NoteNumber":80,"Velocity":60,"Duration":86206,"SoundDuration":86206,"Delta":241242997},{"NoteNumber":81,"Velocity":61,"Duration":86206,"SoundDuration":86206,"Delta":241329204},{"NoteNumber":58,"Velocity":47,"Duration":172413,"SoundDuration":172413,"Delta":241329204},{"NoteNumber":82,"Velocity":62,"Duration":86206,"SoundDuration":86206,"Delta":241415411},{"NoteNumber":83,"Velocity":63,"Duration":86206,"SoundDuration":86206,"Delta":241501618},{"NoteNumber":55,"Velocity":57,"Duration":344827,"SoundDuration":344827,"Delta":241501618},{"NoteNumber":84,"Velocity":65,"Duration":86206,"SoundDuration":86206,"Delta":241587825},{"NoteNumber":85,"Velocity":67,"Duration":86206,"SoundDuration":86206,"Delta":241674032},{"NoteNumber":58,"Velocity":50,"Duration":172413,"SoundDuration":172413,"Delta":241674032},{"NoteNumber":86,"Velocity":68,"Duration":86206,"SoundDuration":86206,"Delta":241760239},{"NoteNumber":88,"Velocity":79,"Duration":86705,"SoundDuration":86705,"Delta":241846446},{"NoteNumber":48,"Velocity":63,"Duration":332370,"SoundDuration":332370,"Delta":241846446},{"NoteNumber":86,"Velocity":62,"Duration":86705,"SoundDuration":86705,"Delta":241933151},{"NoteNumber":84,"Velocity":65,"Duration":86705,"SoundDuration":86705,"Delta":242019856},{"NoteNumber":58,"Velocity":46,"Duration":173410,"SoundDuration":173410,"Delta":242019856},{"NoteNumber":82,"Velocity":59,"Duration":86705,"SoundDuration":86705,"Delta":242106561},{"NoteNumber":81,"Velocity":64,"Duration":86705,"SoundDuration":86705,"Delta":242193267},{"NoteNumber":48,"Velocity":53,"Duration":365618,"SoundDuration":365618,"Delta":242193267},{"NoteNumber":79,"Velocity":59,"Duration":86705,"SoundDuration":86705,"Delta":242279972},{"NoteNumber":77,"Velocity":58,"Duration":87852,"SoundDuration":87852,"Delta":242366677},{"NoteNumber":58,"Velocity":34,"Duration":351167,"SoundDuration":351167,"Delta":242366677},{"NoteNumber":76,"Velocity":54,"Duration":104355,"SoundDuration":104355,"Delta":242454530},{"NoteNumber":79,"Velocity":58,"Duration":346821,"SoundDuration":346821,"Delta":242558885},{"NoteNumber":53,"Velocity":43,"Duration":1073948,"SoundDuration":1073948,"Delta":242558885},{"NoteNumber":58,"Velocity":29,"Duration":173410,"SoundDuration":173410,"Delta":242732296},{"NoteNumber":77,"Velocity":53,"Duration":346821,"SoundDuration":346821,"Delta":242905706},{"NoteNumber":57,"Velocity":35,"Duration":173410,"SoundDuration":173410,"Delta":242905706},{"NoteNumber":55,"Velocity":29,"Duration":173410,"SoundDuration":173410,"Delta":243079117},{"NoteNumber":57,"Velocity":34,"Duration":380306,"SoundDuration":380306,"Delta":243252527},{"NoteNumber":65,"Velocity":38,"Duration":206896,"SoundDuration":206896,"Delta":243425938},{"NoteNumber":77,"Velocity":45,"Duration":206896,"SoundDuration":206896,"Delta":243425938},{"NoteNumber":67,"Velocity":42,"Duration":175438,"SoundDuration":175438,"Delta":243632834},{"NoteNumber":79,"Velocity":50,"Duration":175438,"SoundDuration":175438,"Delta":243632834},{"NoteNumber":65,"Velocity":39,"Duration":175438,"SoundDuration":175438,"Delta":243808273},{"NoteNumber":77,"Velocity":46,"Duration":175438,"SoundDuration":175438,"Delta":243808273},{"NoteNumber":46,"Velocity":42,"Duration":350876,"SoundDuration":350876,"Delta":243983711},{"NoteNumber":63,"Velocity":42,"Duration":58479,"SoundDuration":58479,"Delta":244100670},{"NoteNumber":75,"Velocity":50,"Duration":58479,"SoundDuration":58479,"Delta":244100670},{"NoteNumber":53,"Velocity":34,"Duration":175438,"SoundDuration":175438,"Delta":244159150},{"NoteNumber":62,"Velocity":35,"Duration":58479,"SoundDuration":58479,"Delta":244217629},{"NoteNumber":74,"Velocity":41,"Duration":58479,"SoundDuration":58479,"Delta":244217629},{"NoteNumber":50,"Velocity":38,"Duration":350876,"SoundDuration":350876,"Delta":244334588},{"NoteNumber":60,"Velocity":39,"Duration":58479,"SoundDuration":58479,"Delta":244451547},{"NoteNumber":72,"Velocity":46,"Duration":58479,"SoundDuration":58479,"Delta":244451547},{"NoteNumber":53,"Velocity":34,"Duration":175438,"SoundDuration":175438,"Delta":244510027},{"NoteNumber":58,"Velocity":35,"Duration":58479,"SoundDuration":58479,"Delta":244568506},{"NoteNumber":70,"Velocity":41,"Duration":58479,"SoundDuration":58479,"Delta":244568506},{"NoteNumber":51,"Velocity":38,"Duration":178571,"SoundDuration":178571,"Delta":244685465},{"NoteNumber":48,"Velocity":38,"Duration":357143,"SoundDuration":357143,"Delta":244685465},{"NoteNumber":56,"Velocity":42,"Duration":59523,"SoundDuration":59523,"Delta":244804513},{"NoteNumber":68,"Velocity":50,"Duration":59523,"SoundDuration":59523,"Delta":244804513},{"NoteNumber":53,"Velocity":34,"Duration":178571,"SoundDuration":178571,"Delta":244864037},{"NoteNumber":57,"Velocity":35,"Duration":59523,"SoundDuration":59523,"Delta":244923560},{"NoteNumber":69,"Velocity":41,"Duration":59523,"SoundDuration":59523,"Delta":244923560},{"NoteNumber":50,"Velocity":37,"Duration":178571,"SoundDuration":178571,"Delta":245042608},{"NoteNumber":46,"Velocity":37,"Duration":361006,"SoundDuration":361006,"Delta":245042608},{"NoteNumber":57,"Velocity":39,"Duration":59523,"SoundDuration":59523,"Delta":245161656},{"NoteNumber":69,"Velocity":46,"Duration":59523,"SoundDuration":59523,"Delta":245161656},{"NoteNumber":53,"Velocity":34,"Duration":182434,"SoundDuration":182434,"Delta":245221180},{"NoteNumber":70,"Velocity":41,"Duration":60811,"SoundDuration":60811,"Delta":245279407},{"NoteNumber":58,"Velocity":35,"Duration":60811,"SoundDuration":60811,"Delta":245279407},{"NoteNumber":59,"Velocity":45,"Duration":348837,"SoundDuration":348837,"Delta":245403614},{"NoteNumber":71,"Velocity":53,"Duration":348837,"SoundDuration":348837,"Delta":245403614},{"NoteNumber":45,"Velocity":43,"Duration":1396779,"SoundDuration":1396779,"Delta":245403614},{"NoteNumber":51,"Velocity":43,"Duration":1396779,"SoundDuration":1396779,"Delta":245403614},{"NoteNumber":53,"Velocity":34,"Duration":87209,"SoundDuration":87209,"Delta":245578033},{"NoteNumber":72,"Velocity":49,"Duration":523255,"SoundDuration":523255,"Delta":245752451},{"NoteNumber":60,"Velocity":41,"Duration":523255,"SoundDuration":523255,"Delta":245752451},{"NoteNumber":53,"Velocity":34,"Duration":87209,"SoundDuration":87209,"Delta":245752451},{"NoteNumber":53,"Velocity":34,"Duration":87209,"SoundDuration":87209,"Delta":245926870},{"NoteNumber":53,"Velocity":37,"Duration":87209,"SoundDuration":87209,"Delta":246101288},{"NoteNumber":78,"Velocity":45,"Duration":181818,"SoundDuration":181818,"Delta":246275707},{"NoteNumber":66,"Velocity":38,"Duration":181818,"SoundDuration":181818,"Delta":246275707},{"NoteNumber":53,"Velocity":34,"Duration":90909,"SoundDuration":90909,"Delta":246275707},{"NoteNumber":69,"Velocity":42,"Duration":170454,"SoundDuration":170454,"Delta":246457525},{"NoteNumber":81,"Velocity":50,"Duration":170454,"SoundDuration":170454,"Delta":246457525},{"NoteNumber":53,"Velocity":34,"Duration":85227,"SoundDuration":85227,"Delta":246457525},{"NoteNumber":67,"Velocity":39,"Duration":172413,"SoundDuration":172413,"Delta":246627979},{"NoteNumber":79,"Velocity":46,"Duration":172413,"SoundDuration":172413,"Delta":246627979},{"NoteNumber":53,"Velocity":34,"Duration":86206,"SoundDuration":86206,"Delta":246627979},{"NoteNumber":45,"Velocity":42,"Duration":346821,"SoundDuration":346821,"Delta":246800393},{"NoteNumber":65,"Velocity":42,"Duration":57803,"SoundDuration":57803,"Delta":246916000},{"NoteNumber":77,"Velocity":50,"Duration":57803,"SoundDuration":57803,"Delta":246916000},{"NoteNumber":53,"Velocity":34,"Duration":173410,"SoundDuration":173410,"Delta":246973804},{"NoteNumber":63,"Velocity":35,"Duration":57803,"SoundDuration":57803,"Delta":247031607},{"NoteNumber":75,"Velocity":41,"Duration":57803,"SoundDuration":57803,"Delta":247031607},{"NoteNumber":51,"Velocity":38,"Duration":346821,"SoundDuration":346821,"Delta":247147214},{"NoteNumber":62,"Velocity":39,"Duration":57803,"SoundDuration":57803,"Delta":247262821},{"NoteNumber":74,"Velocity":46,"Duration":57803,"SoundDuration":57803,"Delta":247262821},{"NoteNumber":53,"Velocity":34,"Duration":173410,"SoundDuration":173410,"Delta":247320625},{"NoteNumber":72,"Velocity":41,"Duration":57803,"SoundDuration":57803,"Delta":247378428},{"NoteNumber":60,"Velocity":35,"Duration":57803,"SoundDuration":57803,"Delta":247378428},{"NoteNumber":50,"Velocity":38,"Duration":352940,"SoundDuration":352940,"Delta":247494035},{"NoteNumber":57,"Velocity":42,"Duration":58823,"SoundDuration":58823,"Delta":247611682},{"NoteNumber":69,"Velocity":50,"Duration":58823,"SoundDuration":58823,"Delta":247611682},{"NoteNumber":53,"Velocity":34,"Duration":176470,"SoundDuration":176470,"Delta":247670506},{"NoteNumber":58,"Velocity":35,"Duration":58823,"SoundDuration":58823,"Delta":247729329},{"NoteNumber":70,"Velocity":41,"Duration":58823,"SoundDuration":58823,"Delta":247729329},{"NoteNumber":45,"Velocity":37,"Duration":368778,"SoundDuration":368778,"Delta":247846976},{"NoteNumber":59,"Velocity":39,"Duration":58823,"SoundDuration":58823,"Delta":247964623},{"NoteNumber":71,"Velocity":46,"Duration":58823,"SoundDuration":58823,"Delta":247964623},{"NoteNumber":53,"Velocity":34,"Duration":192307,"SoundDuration":192307,"Delta":248023447},{"NoteNumber":72,"Velocity":41,"Duration":64102,"SoundDuration":64102,"Delta":248087549},{"NoteNumber":60,"Velocity":35,"Duration":64102,"SoundDuration":64102,"Delta":248087549},{"NoteNumber":61,"Velocity":45,"Duration":348837,"SoundDuration":348837,"Delta":248215754},{"NoteNumber":73,"Velocity":53,"Duration":348837,"SoundDuration":348837,"Delta":248215754},{"NoteNumber":46,"Velocity":43,"Duration":1052815,"SoundDuration":1052815,"Delta":248215754},{"NoteNumber":53,"Velocity":34,"Duration":87209,"SoundDuration":87209,"Delta":248390173},{"NoteNumber":74,"Velocity":49,"Duration":465115,"SoundDuration":465115,"Delta":248564591},{"NoteNumber":62,"Velocity":41,"Duration":703978,"SoundDuration":703978,"Delta":248564591},{"NoteNumber":53,"Velocity":34,"Duration":87209,"SoundDuration":87209,"Delta":248564591},{"NoteNumber":53,"Velocity":34,"Duration":87209,"SoundDuration":87209,"Delta":248739010},{"NoteNumber":53,"Velocity":40,"Duration":87209,"SoundDuration":87209,"Delta":248913428},{"NoteNumber":77,"Velocity":56,"Duration":118380,"SoundDuration":118380,"Delta":249029707},{"NoteNumber":53,"Velocity":37,"Duration":90361,"SoundDuration":90361,"Delta":249087847},{"NoteNumber":76,"Velocity":56,"Duration":120482,"SoundDuration":120482,"Delta":249148088},{"NoteNumber":68,"Velocity":54,"Duration":693710,"SoundDuration":693710,"Delta":249268570},{"NoteNumber":77,"Velocity":62,"Duration":113636,"SoundDuration":113636,"Delta":249268570},{"NoteNumber":47,"Velocity":37,"Duration":344873,"SoundDuration":344873,"Delta":249268570},{"NoteNumber":79,"Velocity":57,"Duration":114957,"SoundDuration":114957,"Delta":249382206},{"NoteNumber":53,"Velocity":37,"Duration":87209,"SoundDuration":87209,"Delta":249439024},{"NoteNumber":74,"Velocity":51,"Duration":116278,"SoundDuration":116278,"Delta":249497164},{"NoteNumber":77,"Velocity":62,"Duration":116278,"SoundDuration":116278,"Delta":249613443},{"NoteNumber":48,"Velocity":47,"Duration":348837,"SoundDuration":348837,"Delta":249613443},{"NoteNumber":75,"Velocity":58,"Duration":116279,"SoundDuration":116279,"Delta":249729722},{"NoteNumber":53,"Velocity":38,"Duration":174418,"SoundDuration":174418,"Delta":249787861},{"NoteNumber":74,"Velocity":54,"Duration":116278,"SoundDuration":116278,"Delta":249846001},{"NoteNumber":75,"Velocity":63,"Duration":116278,"SoundDuration":116278,"Delta":249962280},{"NoteNumber":69,"Velocity":46,"Duration":348837,"SoundDuration":348837,"Delta":249962280},{"NoteNumber":41,"Velocity":42,"Duration":348837,"SoundDuration":348837,"Delta":249962280},{"NoteNumber":77,"Velocity":58,"Duration":116278,"SoundDuration":116278,"Delta":250078559},{"NoteNumber":53,"Velocity":38,"Duration":174418,"SoundDuration":174418,"Delta":250136698},{"NoteNumber":72,"Velocity":53,"Duration":116279,"SoundDuration":116279,"Delta":250194838},{"NoteNumber":75,"Velocity":64,"Duration":116278,"SoundDuration":116278,"Delta":250311117},{"NoteNumber":70,"Velocity":46,"Duration":348837,"SoundDuration":348837,"Delta":250311117},{"NoteNumber":46,"Velocity":47,"Duration":348837,"SoundDuration":348837,"Delta":250311117},{"NoteNumber":74,"Velocity":59,"Duration":116278,"SoundDuration":116278,"Delta":250427396},{"NoteNumber":53,"Velocity":38,"Duration":174418,"SoundDuration":174418,"Delta":250485535},{"NoteNumber":73,"Velocity":59,"Duration":116279,"SoundDuration":116279,"Delta":250543675},{"NoteNumber":74,"Velocity":67,"Duration":116278,"SoundDuration":116278,"Delta":250659954},{"NoteNumber":68,"Velocity":47,"Duration":713129,"SoundDuration":713129,"Delta":250659954},{"NoteNumber":47,"Velocity":43,"Duration":364292,"SoundDuration":364292,"Delta":250659954},{"NoteNumber":79,"Velocity":62,"Duration":121430,"SoundDuration":121430,"Delta":250776233},{"NoteNumber":53,"Velocity":39,"Duration":189873,"SoundDuration":189873,"Delta":250834372},{"NoteNumber":74,"Velocity":59,"Duration":126582,"SoundDuration":126582,"Delta":250897664},{"NoteNumber":77,"Velocity":71,"Duration":116278,"SoundDuration":116278,"Delta":251024246},{"NoteNumber":48,"Velocity":54,"Duration":348837,"SoundDuration":348837,"Delta":251024246},{"NoteNumber":75,"Velocity":64,"Duration":116279,"SoundDuration":116279,"Delta":251140525},{"NoteNumber":53,"Velocity":47,"Duration":174418,"SoundDuration":174418,"Delta":251198664},{"NoteNumber":74,"Velocity":61,"Duration":116278,"SoundDuration":116278,"Delta":251256804},{"NoteNumber":75,"Velocity":72,"Duration":116278,"SoundDuration":116278,"Delta":251373083},{"NoteNumber":69,"Velocity":47,"Duration":348837,"SoundDuration":348837,"Delta":251373083},{"NoteNumber":41,"Velocity":53,"Duration":348837,"SoundDuration":348837,"Delta":251373083},{"NoteNumber":77,"Velocity":66,"Duration":116278,"SoundDuration":116278,"Delta":251489362},{"NoteNumber":53,"Velocity":44,"Duration":174418,"SoundDuration":174418,"Delta":251547501},{"NoteNumber":72,"Velocity":63,"Duration":87209,"SoundDuration":87209,"Delta":251605641},{"NoteNumber":70,"Velocity":60,"Duration":116278,"SoundDuration":116278,"Delta":251721920},{"NoteNumber":75,"Velocity":71,"Duration":116278,"SoundDuration":116278,"Delta":251721920},{"NoteNumber":46,"Velocity":64,"Duration":345846,"SoundDuration":345846,"Delta":251721920},{"NoteNumber":62,"Velocity":53,"Duration":115282,"SoundDuration":115282,"Delta":251838199},{"NoteNumber":74,"Velocity":63,"Duration":115282,"SoundDuration":115282,"Delta":251838199},{"NoteNumber":53,"Velocity":49,"Duration":171428,"SoundDuration":171428,"Delta":251896338},{"NoteNumber":61,"Velocity":53,"Duration":114285,"SoundDuration":114285,"Delta":251953481},{"NoteNumber":73,"Velocity":63,"Duration":114285,"SoundDuration":114285,"Delta":251953481},{"NoteNumber":62,"Velocity":57,"Duration":114285,"SoundDuration":114285,"Delta":252067767},{"NoteNumber":74,"Velocity":67,"Duration":114285,"SoundDuration":114285,"Delta":252067767},{"NoteNumber":44,"Velocity":60,"Duration":342857,"SoundDuration":342857,"Delta":252067767},{"NoteNumber":63,"Velocity":60,"Duration":57142,"SoundDuration":57142,"Delta":252182053},{"NoteNumber":75,"Velocity":71,"Duration":57142,"SoundDuration":57142,"Delta":252182053},{"NoteNumber":46,"Velocity":45,"Duration":171428,"SoundDuration":171428,"Delta":252239195},{"NoteNumber":64,"Velocity":60,"Duration":57142,"SoundDuration":57142,"Delta":252296338},{"NoteNumber":76,"Velocity":71,"Duration":57142,"SoundDuration":57142,"Delta":252296338},{"NoteNumber":65,"Velocity":64,"Duration":57471,"SoundDuration":57471,"Delta":252410624},{"NoteNumber":77,"Velocity":76,"Duration":57471,"SoundDuration":57471,"Delta":252410624},{"NoteNumber":43,"Velocity":73,"Duration":330459,"SoundDuration":330459,"Delta":252410624},{"NoteNumber":66,"Velocity":61,"Duration":57471,"SoundDuration":57471,"Delta":252525566},{"NoteNumber":78,"Velocity":72,"Duration":57471,"SoundDuration":57471,"Delta":252525566},{"NoteNumber":46,"Velocity":60,"Duration":172413,"SoundDuration":172413,"Delta":252583038},{"NoteNumber":67,"Velocity":61,"Duration":57471,"SoundDuration":57471,"Delta":252640509},{"NoteNumber":79,"Velocity":72,"Duration":57471,"SoundDuration":57471,"Delta":252640509},{"NoteNumber":68,"Velocity":64,"Duration":57471,"SoundDuration":57471,"Delta":252755451},{"NoteNumber":80,"Velocity":76,"Duration":57471,"SoundDuration":57471,"Delta":252755451},{"NoteNumber":39,"Velocity":69,"Duration":344827,"SoundDuration":344827,"Delta":252755451},{"NoteNumber":69,"Velocity":67,"Duration":57471,"SoundDuration":57471,"Delta":252870394},{"NoteNumber":81,"Velocity":80,"Duration":57471,"SoundDuration":57471,"Delta":252870394},{"NoteNumber":51,"Velocity":60,"Duration":172413,"SoundDuration":172413,"Delta":252927865},{"NoteNumber":70,"Velocity":67,"Duration":57471,"SoundDuration":57471,"Delta":252985336},{"NoteNumber":82,"Velocity":80,"Duration":57471,"SoundDuration":57471,"Delta":252985336},{"NoteNumber":70,"Velocity":71,"Duration":352940,"SoundDuration":352940,"Delta":253100279},{"NoteNumber":58,"Velocity":71,"Duration":352940,"SoundDuration":352940,"Delta":253100279},{"NoteNumber":41,"Velocity":56,"Duration":338235,"SoundDuration":338235,"Delta":253100279},{"NoteNumber":50,"Velocity":42,"Duration":176470,"SoundDuration":176470,"Delta":253276749},{"NoteNumber":72,"Velocity":69,"Duration":376470,"SoundDuration":376470,"Delta":253453220},{"NoteNumber":60,"Velocity":58,"Duration":376470,"SoundDuration":376470,"Delta":253453220},{"NoteNumber":41,"Velocity":49,"Duration":376470,"SoundDuration":376470,"Delta":253453220},{"NoteNumber":45,"Velocity":43,"Duration":199999,"SoundDuration":199999,"Delta":253629690},{"NoteNumber":61,"Velocity":41,"Duration":346821,"SoundDuration":346821,"Delta":253829690},{"NoteNumber":73,"Velocity":49,"Duration":346821,"SoundDuration":346821,"Delta":253829690},{"NoteNumber":34,"Velocity":43,"Duration":173410,"SoundDuration":173410,"Delta":253829690},{"NoteNumber":46,"Velocity":29,"Duration":880080,"SoundDuration":880080,"Delta":254003101},{"NoteNumber":62,"Velocity":38,"Duration":443285,"SoundDuration":443285,"Delta":254176511},{"NoteNumber":74,"Velocity":45,"Duration":443285,"SoundDuration":443285,"Delta":254176511},{"NoteNumber":58,"Velocity":35,"Duration":88038,"SoundDuration":88038,"Delta":254176511},{"NoteNumber":58,"Velocity":29,"Duration":88968,"SoundDuration":88968,"Delta":254353836},{"NoteNumber":58,"Velocity":49,"Duration":88235,"SoundDuration":88235,"Delta":254531562},{"NoteNumber":70,"Velocity":59,"Duration":88192,"SoundDuration":88192,"Delta":254619797},{"NoteNumber":69,"Velocity":61,"Duration":87719,"SoundDuration":87719,"Delta":254707989},{"NoteNumber":58,"Velocity":39,"Duration":87719,"SoundDuration":87719,"Delta":254707989},{"NoteNumber":70,"Velocity":62,"Duration":87472,"SoundDuration":87472,"Delta":254795709},{"NoteNumber":71,"Velocity":62,"Duration":87209,"SoundDuration":87209,"Delta":254883181},{"NoteNumber":56,"Velocity":50,"Duration":346902,"SoundDuration":346902,"Delta":254883181},{"NoteNumber":72,"Velocity":64,"Duration":86764,"SoundDuration":86764,"Delta":254970391},{"NoteNumber":73,"Velocity":65,"Duration":86705,"SoundDuration":86705,"Delta":255057155},{"NoteNumber":58,"Velocity":39,"Duration":172928,"SoundDuration":172928,"Delta":255057155},{"NoteNumber":74,"Velocity":67,"Duration":86223,"SoundDuration":86223,"Delta":255143860},{"NoteNumber":75,"Velocity":69,"Duration":86026,"SoundDuration":86026,"Delta":255230083},{"NoteNumber":55,"Velocity":63,"Duration":342470,"SoundDuration":342470,"Delta":255230083},{"NoteNumber":76,"Velocity":70,"Duration":85714,"SoundDuration":85714,"Delta":255316110},{"NoteNumber":77,"Velocity":71,"Duration":85503,"SoundDuration":85503,"Delta":255401824},{"NoteNumber":58,"Velocity":52,"Duration":170730,"SoundDuration":170730,"Delta":255401824},{"NoteNumber":78,"Velocity":73,"Duration":85227,"SoundDuration":85227,"Delta":255487327},{"NoteNumber":79,"Velocity":74,"Duration":84825,"SoundDuration":84825,"Delta":255572554},{"NoteNumber":51,"Velocity":56,"Duration":337999,"SoundDuration":337999,"Delta":255572554},{"NoteNumber":80,"Velocity":76,"Duration":84634,"SoundDuration":84634,"Delta":255657380},{"NoteNumber":81,"Velocity":77,"Duration":84269,"SoundDuration":84269,"Delta":255742015},{"NoteNumber":63,"Velocity":50,"Duration":168539,"SoundDuration":168539,"Delta":255742015},{"NoteNumber":82,"Velocity":78,"Duration":84269,"SoundDuration":84269,"Delta":255826285},{"NoteNumber":70,"Velocity":53,"Duration":68965,"SoundDuration":68965,"Delta":255910554},{"NoteNumber":53,"Velocity":35,"Duration":330459,"SoundDuration":330459,"Delta":255910554},{"NoteNumber":72,"Velocity":48,"Duration":68965,"SoundDuration":68965,"Delta":255979520},{"NoteNumber":70,"Velocity":45,"Duration":68965,"SoundDuration":68965,"Delta":256048485},{"NoteNumber":62,"Velocity":29,"Duration":172413,"SoundDuration":172413,"Delta":256082968},{"NoteNumber":69,"Velocity":45,"Duration":68965,"SoundDuration":68965,"Delta":256117451},{"NoteNumber":70,"Velocity":45,"Duration":68965,"SoundDuration":68965,"Delta":256186416},{"NoteNumber":63,"Velocity":44,"Duration":375116,"SoundDuration":375116,"Delta":256255382},{"NoteNumber":74,"Velocity":52,"Duration":273765,"SoundDuration":273765,"Delta":256255382},{"NoteNumber":53,"Velocity":35,"Duration":375116,"SoundDuration":375116,"Delta":256255382},{"NoteNumber":57,"Velocity":29,"Duration":202702,"SoundDuration":202702,"Delta":256427795},{"NoteNumber":72,"Velocity":41,"Duration":101351,"SoundDuration":101351,"Delta":256529147},{"NoteNumber":70,"Velocity":53,"Duration":93382,"SoundDuration":93382,"Delta":256630498},{"NoteNumber":62,"Velocity":53,"Duration":359297,"SoundDuration":359297,"Delta":256630498},{"NoteNumber":46,"Velocity":33,"Duration":359297,"SoundDuration":359297,"Delta":256630498},{"NoteNumber":58,"Velocity":39,"Duration":359297,"SoundDuration":359297,"Delta":256630498},{"NoteNumber":65,"Velocity":59,"Duration":89822,"SoundDuration":89822,"Delta":256723881},{"NoteNumber":67,"Velocity":62,"Duration":88628,"SoundDuration":88628,"Delta":256813703},{"NoteNumber":69,"Velocity":64,"Duration":87464,"SoundDuration":87464,"Delta":256902331},{"NoteNumber":70,"Velocity":67,"Duration":86332,"SoundDuration":86332,"Delta":256989796},{"NoteNumber":72,"Velocity":71,"Duration":85714,"SoundDuration":85714,"Delta":257076129},{"NoteNumber":74,"Velocity":78,"Duration":85714,"SoundDuration":85714,"Delta":257161843},{"NoteNumber":75,"Velocity":84,"Duration":85714,"SoundDuration":85714,"Delta":257247557},{"NoteNumber":70,"Velocity":85,"Duration":754717,"SoundDuration":754717,"Delta":257333271},{"NoteNumber":77,"Velocity":101,"Duration":754717,"SoundDuration":754717,"Delta":257333271},{"NoteNumber":62,"Velocity":69,"Duration":754717,"SoundDuration":754717,"Delta":257333271},{"NoteNumber":65,"Velocity":79,"Duration":754717,"SoundDuration":754717,"Delta":257333271},{"NoteNumber":69,"Velocity":85,"Duration":754716,"SoundDuration":754716,"Delta":258087988},{"NoteNumber":77,"Velocity":101,"Duration":754716,"SoundDuration":754716,"Delta":258087988},{"NoteNumber":60,"Velocity":69,"Duration":754716,"SoundDuration":754716,"Delta":258087988},{"NoteNumber":63,"Velocity":69,"Duration":754716,"SoundDuration":754716,"Delta":258087988},{"NoteNumber":65,"Velocity":79,"Duration":754716,"SoundDuration":754716,"Delta":258087988},{"NoteNumber":70,"Velocity":85,"Duration":566037,"SoundDuration":566037,"Delta":258842705},{"NoteNumber":77,"Velocity":101,"Duration":754717,"SoundDuration":754717,"Delta":258842705},{"NoteNumber":58,"Velocity":69,"Duration":754717,"SoundDuration":754717,"Delta":258842705},{"NoteNumber":62,"Velocity":69,"Duration":754717,"SoundDuration":754717,"Delta":258842705},{"NoteNumber":65,"Velocity":79,"Duration":754717,"SoundDuration":754717,"Delta":258842705},{"NoteNumber":72,"Velocity":85,"Duration":94339,"SoundDuration":94339,"Delta":259408743},{"NoteNumber":74,"Velocity":85,"Duration":94339,"SoundDuration":94339,"Delta":259503083},{"NoteNumber":75,"Velocity":85,"Duration":754716,"SoundDuration":754716,"Delta":259597422},{"NoteNumber":77,"Velocity":101,"Duration":754716,"SoundDuration":754716,"Delta":259597422},{"NoteNumber":65,"Velocity":79,"Duration":754716,"SoundDuration":754716,"Delta":259597422},{"NoteNumber":60,"Velocity":69,"Duration":754716,"SoundDuration":754716,"Delta":259597422},{"NoteNumber":57,"Velocity":69,"Duration":754716,"SoundDuration":754716,"Delta":259597422},{"NoteNumber":74,"Velocity":85,"Duration":566037,"SoundDuration":566037,"Delta":260352139},{"NoteNumber":82,"Velocity":101,"Duration":754717,"SoundDuration":754717,"Delta":260352139},{"NoteNumber":65,"Velocity":86,"Duration":754717,"SoundDuration":754717,"Delta":260352139},{"NoteNumber":56,"Velocity":72,"Duration":754717,"SoundDuration":754717,"Delta":260352139},{"NoteNumber":58,"Velocity":72,"Duration":754717,"SoundDuration":754717,"Delta":260352139},{"NoteNumber":75,"Velocity":56,"Duration":94339,"SoundDuration":94339,"Delta":260918177},{"NoteNumber":77,"Velocity":57,"Duration":94339,"SoundDuration":94339,"Delta":261012517},{"NoteNumber":82,"Velocity":81,"Duration":88235,"SoundDuration":88235,"Delta":261106856},{"NoteNumber":79,"Velocity":68,"Duration":88235,"SoundDuration":88235,"Delta":261106856},{"NoteNumber":63,"Velocity":64,"Duration":88235,"SoundDuration":88235,"Delta":261106856},{"NoteNumber":58,"Velocity":55,"Duration":88235,"SoundDuration":88235,"Delta":261106856},{"NoteNumber":55,"Velocity":55,"Duration":88235,"SoundDuration":88235,"Delta":261106856},{"NoteNumber":72,"Velocity":45,"Duration":88235,"SoundDuration":88235,"Delta":261459797},{"NoteNumber":84,"Velocity":53,"Duration":88235,"SoundDuration":88235,"Delta":261459797},{"NoteNumber":79,"Velocity":45,"Duration":88235,"SoundDuration":88235,"Delta":261459797},{"NoteNumber":60,"Velocity":35,"Duration":88235,"SoundDuration":88235,"Delta":261459797},{"NoteNumber":58,"Velocity":29,"Duration":88235,"SoundDuration":88235,"Delta":261459797},{"NoteNumber":52,"Velocity":29,"Duration":88235,"SoundDuration":88235,"Delta":261459797},{"NoteNumber":86,"Velocity":63,"Duration":88235,"SoundDuration":88235,"Delta":261812738},{"NoteNumber":77,"Velocity":53,"Duration":88235,"SoundDuration":88235,"Delta":261812738},{"NoteNumber":74,"Velocity":53,"Duration":88235,"SoundDuration":88235,"Delta":261812738},{"NoteNumber":62,"Velocity":39,"Duration":88235,"SoundDuration":88235,"Delta":261812738},{"NoteNumber":58,"Velocity":33,"Duration":88235,"SoundDuration":88235,"Delta":261812738},{"NoteNumber":53,"Velocity":33,"Duration":88235,"SoundDuration":88235,"Delta":261812738},{"NoteNumber":87,"Velocity":54,"Duration":96153,"SoundDuration":96153,"Delta":262165679},{"NoteNumber":75,"Velocity":45,"Duration":96153,"SoundDuration":96153,"Delta":262165679},{"NoteNumber":60,"Velocity":35,"Duration":96153,"SoundDuration":96153,"Delta":262165679},{"NoteNumber":57,"Velocity":29,"Duration":96153,"SoundDuration":96153,"Delta":262165679},{"NoteNumber":53,"Velocity":29,"Duration":96153,"SoundDuration":96153,"Delta":262165679},{"NoteNumber":74,"Velocity":51,"Duration":697674,"SoundDuration":697674,"Delta":262550295},{"NoteNumber":86,"Velocity":61,"Duration":348837,"SoundDuration":348837,"Delta":262550295},{"NoteNumber":46,"Velocity":33,"Duration":348837,"SoundDuration":348837,"Delta":262550295},{"NoteNumber":58,"Velocity":39,"Duration":348837,"SoundDuration":348837,"Delta":262550295},{"NoteNumber":82,"Velocity":53,"Duration":174418,"SoundDuration":174418,"Delta":262899132},{"NoteNumber":70,"Velocity":81,"Duration":739043,"SoundDuration":739043,"Delta":263247969},{"NoteNumber":77,"Velocity":97,"Duration":739043,"SoundDuration":739043,"Delta":263247969},{"NoteNumber":62,"Velocity":70,"Duration":103773,"SoundDuration":103773,"Delta":263247969},{"NoteNumber":61,"Velocity":56,"Duration":103321,"SoundDuration":103321,"Delta":263342308},{"NoteNumber":62,"Velocity":60,"Duration":98802,"SoundDuration":98802,"Delta":263436648},{"NoteNumber":61,"Velocity":55,"Duration":98802,"SoundDuration":98802,"Delta":263526468},{"NoteNumber":62,"Velocity":60,"Duration":98802,"SoundDuration":98802,"Delta":263616289},{"NoteNumber":65,"Velocity":55,"Duration":99374,"SoundDuration":99374,"Delta":263706109},{"NoteNumber":63,"Velocity":55,"Duration":105095,"SoundDuration":105095,"Delta":263795930},{"NoteNumber":62,"Velocity":55,"Duration":95541,"SoundDuration":95541,"Delta":263891471},{"NoteNumber":69,"Velocity":81,"Duration":734476,"SoundDuration":734476,"Delta":263987012},{"NoteNumber":77,"Velocity":97,"Duration":734476,"SoundDuration":734476,"Delta":263987012},{"NoteNumber":60,"Velocity":70,"Duration":99397,"SoundDuration":99397,"Delta":263987012},{"NoteNumber":59,"Velocity":56,"Duration":99397,"SoundDuration":99397,"Delta":264077374},{"NoteNumber":60,"Velocity":60,"Duration":99397,"SoundDuration":99397,"Delta":264167735},{"NoteNumber":59,"Velocity":55,"Duration":99397,"SoundDuration":99397,"Delta":264258097},{"NoteNumber":60,"Velocity":60,"Duration":99397,"SoundDuration":99397,"Delta":264348458},{"NoteNumber":63,"Velocity":55,"Duration":99976,"SoundDuration":99976,"Delta":264438820},{"NoteNumber":62,"Velocity":55,"Duration":105769,"SoundDuration":105769,"Delta":264529181},{"NoteNumber":60,"Velocity":55,"Duration":96153,"SoundDuration":96153,"Delta":264625335},{"NoteNumber":70,"Velocity":81,"Duration":551136,"SoundDuration":551136,"Delta":264721489},{"NoteNumber":77,"Velocity":97,"Duration":744685,"SoundDuration":744685,"Delta":264721489},{"NoteNumber":58,"Velocity":70,"Duration":103124,"SoundDuration":103124,"Delta":264721489},{"NoteNumber":57,"Velocity":56,"Duration":102840,"SoundDuration":102840,"Delta":264815239},{"NoteNumber":58,"Velocity":60,"Duration":100000,"SoundDuration":100000,"Delta":264908989},{"NoteNumber":57,"Velocity":55,"Duration":100000,"SoundDuration":100000,"Delta":264999898},{"NoteNumber":58,"Velocity":60,"Duration":100000,"SoundDuration":100000,"Delta":265090807},{"NoteNumber":62,"Velocity":55,"Duration":100586,"SoundDuration":100586,"Delta":265181716},{"NoteNumber":72,"Velocity":81,"Duration":96774,"SoundDuration":96774,"Delta":265272626},{"NoteNumber":60,"Velocity":55,"Duration":106451,"SoundDuration":106451,"Delta":265272626},{"NoteNumber":74,"Velocity":81,"Duration":96774,"SoundDuration":96774,"Delta":265369400},{"NoteNumber":58,"Velocity":55,"Duration":96774,"SoundDuration":96774,"Delta":265369400},{"NoteNumber":75,"Velocity":81,"Duration":741054,"SoundDuration":741054,"Delta":265466174},{"NoteNumber":77,"Velocity":97,"Duration":741054,"SoundDuration":741054,"Delta":265466174},{"NoteNumber":57,"Velocity":70,"Duration":102484,"SoundDuration":102484,"Delta":265466174},{"NoteNumber":56,"Velocity":56,"Duration":102258,"SoundDuration":102258,"Delta":265559342},{"NoteNumber":57,"Velocity":60,"Duration":100000,"SoundDuration":100000,"Delta":265652510},{"NoteNumber":56,"Velocity":55,"Duration":100000,"SoundDuration":100000,"Delta":265743419},{"NoteNumber":57,"Velocity":60,"Duration":100000,"SoundDuration":100000,"Delta":265834328},{"NoteNumber":60,"Velocity":55,"Duration":100463,"SoundDuration":100463,"Delta":265925237},{"NoteNumber":58,"Velocity":55,"Duration":105095,"SoundDuration":105095,"Delta":266016146},{"NoteNumber":57,"Velocity":55,"Duration":95541,"SoundDuration":95541,"Delta":266111687},{"NoteNumber":74,"Velocity":81,"Duration":554532,"SoundDuration":554532,"Delta":266207229},{"NoteNumber":82,"Velocity":97,"Duration":835869,"SoundDuration":835869,"Delta":266207229},{"NoteNumber":56,"Velocity":70,"Duration":103773,"SoundDuration":103773,"Delta":266207229},{"NoteNumber":55,"Velocity":56,"Duration":103485,"SoundDuration":103485,"Delta":266301568},{"NoteNumber":56,"Velocity":60,"Duration":100609,"SoundDuration":100609,"Delta":266395908},{"NoteNumber":55,"Velocity":55,"Duration":100609,"SoundDuration":100609,"Delta":266487371},{"NoteNumber":56,"Velocity":60,"Duration":100609,"SoundDuration":100609,"Delta":266578835},{"NoteNumber":60,"Velocity":55,"Duration":100957,"SoundDuration":100957,"Delta":266670298},{"NoteNumber":75,"Velocity":67,"Duration":94936,"SoundDuration":94936,"Delta":266761762},{"NoteNumber":58,"Velocity":55,"Duration":104430,"SoundDuration":104430,"Delta":266761762},{"NoteNumber":77,"Velocity":68,"Duration":94936,"SoundDuration":94936,"Delta":266856698},{"NoteNumber":56,"Velocity":55,"Duration":94936,"SoundDuration":94936,"Delta":266856698},{"NoteNumber":79,"Velocity":97,"Duration":91463,"SoundDuration":91463,"Delta":266951635},{"NoteNumber":75,"Velocity":81,"Duration":91463,"SoundDuration":91463,"Delta":266951635},{"NoteNumber":55,"Velocity":70,"Duration":100609,"SoundDuration":100609,"Delta":266951635},{"NoteNumber":58,"Velocity":48,"Duration":100609,"SoundDuration":100609,"Delta":267043098},{"NoteNumber":57,"Velocity":43,"Duration":100609,"SoundDuration":100609,"Delta":267134562},{"NoteNumber":58,"Velocity":43,"Duration":91463,"SoundDuration":91463,"Delta":267226025},{"NoteNumber":72,"Velocity":67,"Duration":88757,"SoundDuration":88757,"Delta":267317489},{"NoteNumber":84,"Velocity":79,"Duration":88757,"SoundDuration":88757,"Delta":267317489},{"NoteNumber":79,"Velocity":67,"Duration":88757,"SoundDuration":88757,"Delta":267317489},{"NoteNumber":52,"Velocity":49,"Duration":97633,"SoundDuration":97633,"Delta":267317489},{"NoteNumber":58,"Velocity":43,"Duration":97633,"SoundDuration":97633,"Delta":267406246},{"NoteNumber":57,"Velocity":42,"Duration":97633,"SoundDuration":97633,"Delta":267495003},{"NoteNumber":58,"Velocity":43,"Duration":88757,"SoundDuration":88757,"Delta":267583761},{"NoteNumber":86,"Velocity":98,"Duration":88757,"SoundDuration":88757,"Delta":267672518},{"NoteNumber":77,"Velocity":82,"Duration":88757,"SoundDuration":88757,"Delta":267672518},{"NoteNumber":74,"Velocity":82,"Duration":88757,"SoundDuration":88757,"Delta":267672518},{"NoteNumber":53,"Velocity":57,"Duration":97633,"SoundDuration":97633,"Delta":267672518},{"NoteNumber":58,"Velocity":46,"Duration":97633,"SoundDuration":97633,"Delta":267761275},{"NoteNumber":57,"Velocity":50,"Duration":97633,"SoundDuration":97633,"Delta":267850033},{"NoteNumber":58,"Velocity":50,"Duration":88757,"SoundDuration":88757,"Delta":267938790},{"NoteNumber":87,"Velocity":87,"Duration":90909,"SoundDuration":90909,"Delta":268027548},{"NoteNumber":75,"Velocity":74,"Duration":90909,"SoundDuration":90909,"Delta":268027548},{"NoteNumber":53,"Velocity":60,"Duration":100000,"SoundDuration":100000,"Delta":268027548},{"NoteNumber":57,"Velocity":50,"Duration":100000,"SoundDuration":100000,"Delta":268118457},{"NoteNumber":56,"Velocity":50,"Duration":100000,"SoundDuration":100000,"Delta":268209366},{"NoteNumber":57,"Velocity":51,"Duration":90909,"SoundDuration":90909,"Delta":268300275},{"NoteNumber":74,"Velocity":75,"Duration":697674,"SoundDuration":697674,"Delta":268391184},{"NoteNumber":86,"Velocity":104,"Duration":348837,"SoundDuration":348837,"Delta":268391184},{"NoteNumber":58,"Velocity":61,"Duration":87209,"SoundDuration":87209,"Delta":268391184},{"NoteNumber":60,"Velocity":56,"Duration":87209,"SoundDuration":87209,"Delta":268478393},{"NoteNumber":62,"Velocity":58,"Duration":87209,"SoundDuration":87209,"Delta":268565603},{"NoteNumber":63,"Velocity":61,"Duration":87209,"SoundDuration":87209,"Delta":268652812},{"NoteNumber":82,"Velocity":81,"Duration":174418,"SoundDuration":174418,"Delta":268740021},{"NoteNumber":65,"Velocity":63,"Duration":87209,"SoundDuration":87209,"Delta":268740021},{"NoteNumber":67,"Velocity":66,"Duration":87209,"SoundDuration":87209,"Delta":268827230},{"NoteNumber":69,"Velocity":68,"Duration":87209,"SoundDuration":87209,"Delta":268914440},{"NoteNumber":70,"Velocity":72,"Duration":87209,"SoundDuration":87209,"Delta":269001649},{"NoteNumber":70,"Velocity":74,"Duration":554532,"SoundDuration":554532,"Delta":269088858},{"NoteNumber":74,"Velocity":88,"Duration":554532,"SoundDuration":554532,"Delta":269088858},{"NoteNumber":82,"Velocity":106,"Duration":835869,"SoundDuration":835869,"Delta":269088858},{"NoteNumber":68,"Velocity":76,"Duration":103773,"SoundDuration":103773,"Delta":269088858},{"NoteNumber":67,"Velocity":61,"Duration":103485,"SoundDuration":103485,"Delta":269183198},{"NoteNumber":65,"Velocity":66,"Duration":100609,"SoundDuration":100609,"Delta":269277537},{"NoteNumber":63,"Velocity":60,"Duration":100609,"SoundDuration":100609,"Delta":269369001},{"NoteNumber":62,"Velocity":66,"Duration":100609,"SoundDuration":100609,"Delta":269460464},{"NoteNumber":60,"Velocity":60,"Duration":100957,"SoundDuration":100957,"Delta":269551927},{"NoteNumber":72,"Velocity":61,"Duration":94936,"SoundDuration":94936,"Delta":269643391},{"NoteNumber":75,"Velocity":73,"Duration":94936,"SoundDuration":94936,"Delta":269643391},{"NoteNumber":58,"Velocity":60,"Duration":104430,"SoundDuration":104430,"Delta":269643391},{"NoteNumber":74,"Velocity":62,"Duration":94936,"SoundDuration":94936,"Delta":269738328},{"NoteNumber":77,"Velocity":74,"Duration":94936,"SoundDuration":94936,"Delta":269738328},{"NoteNumber":56,"Velocity":60,"Duration":94936,"SoundDuration":94936,"Delta":269738328},{"NoteNumber":79,"Velocity":106,"Duration":91463,"SoundDuration":91463,"Delta":269833264},{"NoteNumber":75,"Velocity":88,"Duration":91463,"SoundDuration":91463,"Delta":269833264},{"NoteNumber":55,"Velocity":76,"Duration":100609,"SoundDuration":100609,"Delta":269833264},{"NoteNumber":58,"Velocity":52,"Duration":100609,"SoundDuration":100609,"Delta":269924728},{"NoteNumber":57,"Velocity":46,"Duration":100609,"SoundDuration":100609,"Delta":270016191},{"NoteNumber":58,"Velocity":46,"Duration":91463,"SoundDuration":91463,"Delta":270107654},{"NoteNumber":72,"Velocity":72,"Duration":88757,"SoundDuration":88757,"Delta":270199118},{"NoteNumber":84,"Velocity":86,"Duration":88757,"SoundDuration":88757,"Delta":270199118},{"NoteNumber":79,"Velocity":72,"Duration":88757,"SoundDuration":88757,"Delta":270199118},{"NoteNumber":52,"Velocity":44,"Duration":97633,"SoundDuration":97633,"Delta":270199118},{"NoteNumber":58,"Velocity":52,"Duration":97633,"SoundDuration":97633,"Delta":270287875},{"NoteNumber":57,"Velocity":46,"Duration":97633,"SoundDuration":97633,"Delta":270376633},{"NoteNumber":58,"Velocity":48,"Duration":88757,"SoundDuration":88757,"Delta":270465390},{"NoteNumber":86,"Velocity":108,"Duration":88757,"SoundDuration":88757,"Delta":270554147},{"NoteNumber":77,"Velocity":90,"Duration":88757,"SoundDuration":88757,"Delta":270554147},{"NoteNumber":74,"Velocity":90,"Duration":88757,"SoundDuration":88757,"Delta":270554147},{"NoteNumber":53,"Velocity":62,"Duration":97633,"SoundDuration":97633,"Delta":270554147},{"NoteNumber":58,"Velocity":50,"Duration":97633,"SoundDuration":97633,"Delta":270642905},{"NoteNumber":57,"Velocity":55,"Duration":97633,"SoundDuration":97633,"Delta":270731662},{"NoteNumber":58,"Velocity":55,"Duration":88757,"SoundDuration":88757,"Delta":270820419},{"NoteNumber":87,"Velocity":99,"Duration":90909,"SoundDuration":90909,"Delta":270909177},{"NoteNumber":75,"Velocity":80,"Duration":90909,"SoundDuration":90909,"Delta":270909177},{"NoteNumber":53,"Velocity":66,"Duration":100000,"SoundDuration":100000,"Delta":270909177},{"NoteNumber":57,"Velocity":55,"Duration":100000,"SoundDuration":100000,"Delta":271000086},{"NoteNumber":56,"Velocity":55,"Duration":100000,"SoundDuration":100000,"Delta":271090995},{"NoteNumber":57,"Velocity":56,"Duration":90909,"SoundDuration":90909,"Delta":271181904},{"NoteNumber":74,"Velocity":82,"Duration":683139,"SoundDuration":683139,"Delta":271272813},{"NoteNumber":86,"Velocity":114,"Duration":348837,"SoundDuration":348837,"Delta":271272813},{"NoteNumber":58,"Velocity":67,"Duration":87209,"SoundDuration":87209,"Delta":271272813},{"NoteNumber":57,"Velocity":61,"Duration":87209,"SoundDuration":87209,"Delta":271360023},{"NoteNumber":55,"Velocity":63,"Duration":87209,"SoundDuration":87209,"Delta":271447232},{"NoteNumber":53,"Velocity":67,"Duration":87209,"SoundDuration":87209,"Delta":271534441},{"NoteNumber":82,"Velocity":88,"Duration":174418,"SoundDuration":174418,"Delta":271621650},{"NoteNumber":51,"Velocity":69,"Duration":87209,"SoundDuration":87209,"Delta":271621650},{"NoteNumber":50,"Velocity":72,"Duration":87209,"SoundDuration":87209,"Delta":271708860},{"NoteNumber":48,"Velocity":74,"Duration":87209,"SoundDuration":87209,"Delta":271796069},{"NoteNumber":46,"Velocity":79,"Duration":87209,"SoundDuration":87209,"Delta":271883278},{"NoteNumber":70,"Velocity":94,"Duration":554532,"SoundDuration":554532,"Delta":271970487},{"NoteNumber":74,"Velocity":94,"Duration":554532,"SoundDuration":554532,"Delta":271970487},{"NoteNumber":82,"Velocity":111,"Duration":846840,"SoundDuration":846840,"Delta":271970487},{"NoteNumber":44,"Velocity":76,"Duration":103773,"SoundDuration":103773,"Delta":271970487},{"NoteNumber":43,"Velocity":61,"Duration":103485,"SoundDuration":103485,"Delta":272064827},{"NoteNumber":41,"Velocity":66,"Duration":100609,"SoundDuration":100609,"Delta":272159167},{"NoteNumber":39,"Velocity":60,"Duration":100609,"SoundDuration":100609,"Delta":272250630},{"NoteNumber":38,"Velocity":66,"Duration":100609,"SoundDuration":100609,"Delta":272342093},{"NoteNumber":36,"Velocity":60,"Duration":101078,"SoundDuration":101078,"Delta":272433557},{"NoteNumber":72,"Velocity":73,"Duration":96153,"SoundDuration":96153,"Delta":272525020},{"NoteNumber":75,"Velocity":86,"Duration":96153,"SoundDuration":96153,"Delta":272525020},{"NoteNumber":34,"Velocity":60,"Duration":105769,"SoundDuration":105769,"Delta":272525020},{"NoteNumber":74,"Velocity":75,"Duration":96153,"SoundDuration":96153,"Delta":272621174},{"NoteNumber":77,"Velocity":90,"Duration":96153,"SoundDuration":96153,"Delta":272621174},{"NoteNumber":32,"Velocity":60,"Duration":96153,"SoundDuration":96153,"Delta":272621174},{"NoteNumber":79,"Velocity":106,"Duration":100000,"SoundDuration":100000,"Delta":272717328},{"NoteNumber":75,"Velocity":74,"Duration":100000,"SoundDuration":100000,"Delta":272717328},{"NoteNumber":31,"Velocity":87,"Duration":110000,"SoundDuration":110000,"Delta":272717328},{"NoteNumber":43,"Velocity":56,"Duration":109999,"SoundDuration":109999,"Delta":272817328},{"NoteNumber":42,"Velocity":58,"Duration":110000,"SoundDuration":110000,"Delta":272917328},{"NoteNumber":43,"Velocity":58,"Duration":99999,"SoundDuration":99999,"Delta":273017328},{"NoteNumber":76,"Velocity":85,"Duration":94936,"SoundDuration":94936,"Delta":273117328},{"NoteNumber":72,"Velocity":85,"Duration":94936,"SoundDuration":94936,"Delta":273117328},{"NoteNumber":84,"Velocity":100,"Duration":94936,"SoundDuration":94936,"Delta":273117328},{"NoteNumber":82,"Velocity":85,"Duration":94936,"SoundDuration":94936,"Delta":273117328},{"NoteNumber":30,"Velocity":84,"Duration":104430,"SoundDuration":104430,"Delta":273117328},{"NoteNumber":42,"Velocity":63,"Duration":104430,"SoundDuration":104430,"Delta":273212265},{"NoteNumber":41,"Velocity":62,"Duration":104430,"SoundDuration":104430,"Delta":273307201},{"NoteNumber":42,"Velocity":62,"Duration":94936,"SoundDuration":94936,"Delta":273402138},{"NoteNumber":82,"Velocity":91,"Duration":96774,"SoundDuration":96774,"Delta":273497075},{"NoteNumber":86,"Velocity":108,"Duration":96774,"SoundDuration":96774,"Delta":273497075},{"NoteNumber":77,"Velocity":91,"Duration":96774,"SoundDuration":96774,"Delta":273497075},{"NoteNumber":74,"Velocity":91,"Duration":96774,"SoundDuration":96774,"Delta":273497075},{"NoteNumber":29,"Velocity":93,"Duration":106451,"SoundDuration":106451,"Delta":273497075},{"NoteNumber":41,"Velocity":66,"Duration":106451,"SoundDuration":106451,"Delta":273593849},{"NoteNumber":40,"Velocity":66,"Duration":106451,"SoundDuration":106451,"Delta":273690623},{"NoteNumber":41,"Velocity":66,"Duration":96774,"SoundDuration":96774,"Delta":273787398},{"NoteNumber":75,"Velocity":82,"Duration":101351,"SoundDuration":101351,"Delta":273884172},{"NoteNumber":81,"Velocity":97,"Duration":101351,"SoundDuration":101351,"Delta":273884172},{"NoteNumber":69,"Velocity":82,"Duration":101351,"SoundDuration":101351,"Delta":273884172},{"NoteNumber":29,"Velocity":90,"Duration":111486,"SoundDuration":111486,"Delta":273884172},{"NoteNumber":41,"Velocity":68,"Duration":111486,"SoundDuration":111486,"Delta":273985523},{"NoteNumber":40,"Velocity":68,"Duration":114394,"SoundDuration":114394,"Delta":274086875},{"NoteNumber":41,"Velocity":68,"Duration":130434,"SoundDuration":130434,"Delta":274188226},{"NoteNumber":74,"Velocity":87,"Duration":87209,"SoundDuration":87209,"Delta":274318661},{"NoteNumber":70,"Velocity":87,"Duration":87209,"SoundDuration":87209,"Delta":274318661},{"NoteNumber":82,"Velocity":103,"Duration":87209,"SoundDuration":87209,"Delta":274318661},{"NoteNumber":34,"Velocity":96,"Duration":367967,"SoundDuration":367967,"Delta":274318661},{"NoteNumber":77,"Velocity":45,"Duration":193548,"SoundDuration":193548,"Delta":274493079},{"NoteNumber":79,"Velocity":50,"Duration":179640,"SoundDuration":179640,"Delta":274686628},{"NoteNumber":77,"Velocity":46,"Duration":179640,"SoundDuration":179640,"Delta":274866268},{"NoteNumber":65,"Velocity":39,"Duration":179640,"SoundDuration":179640,"Delta":274866268},{"NoteNumber":75,"Velocity":50,"Duration":179640,"SoundDuration":179640,"Delta":275045909},{"NoteNumber":67,"Velocity":42,"Duration":179640,"SoundDuration":179640,"Delta":275045909},{"NoteNumber":74,"Velocity":43,"Duration":179640,"SoundDuration":179640,"Delta":275225550},{"NoteNumber":65,"Velocity":36,"Duration":179640,"SoundDuration":179640,"Delta":275225550},{"NoteNumber":72,"Velocity":46,"Duration":179640,"SoundDuration":179640,"Delta":275405191},{"NoteNumber":63,"Velocity":39,"Duration":179640,"SoundDuration":179640,"Delta":275405191},{"NoteNumber":70,"Velocity":43,"Duration":179640,"SoundDuration":179640,"Delta":275584831},{"NoteNumber":62,"Velocity":36,"Duration":179640,"SoundDuration":179640,"Delta":275584831},{"NoteNumber":63,"Velocity":40,"Duration":1070493,"SoundDuration":1070493,"Delta":275764472},{"NoteNumber":69,"Velocity":50,"Duration":179640,"SoundDuration":179640,"Delta":275764472},{"NoteNumber":53,"Velocity":35,"Duration":724107,"SoundDuration":724107,"Delta":275764472},{"NoteNumber":60,"Velocity":42,"Duration":179640,"SoundDuration":179640,"Delta":275764472},{"NoteNumber":67,"Velocity":46,"Duration":179640,"SoundDuration":179640,"Delta":275944113},{"NoteNumber":58,"Velocity":37,"Duration":179640,"SoundDuration":179640,"Delta":275944113},{"NoteNumber":65,"Velocity":47,"Duration":726272,"SoundDuration":726272,"Delta":276123754},{"NoteNumber":57,"Velocity":39,"Duration":179640,"SoundDuration":179640,"Delta":276123754},{"NoteNumber":55,"Velocity":36,"Duration":185185,"SoundDuration":185185,"Delta":276303394},{"NoteNumber":41,"Velocity":35,"Duration":722892,"SoundDuration":722892,"Delta":276488580},{"NoteNumber":53,"Velocity":39,"Duration":180723,"SoundDuration":180723,"Delta":276488580},{"NoteNumber":51,"Velocity":37,"Duration":180723,"SoundDuration":180723,"Delta":276669303},{"NoteNumber":63,"Velocity":37,"Duration":361446,"SoundDuration":361446,"Delta":276850026},{"NoteNumber":67,"Velocity":44,"Duration":180723,"SoundDuration":180723,"Delta":276850026},{"NoteNumber":50,"Velocity":36,"Duration":180723,"SoundDuration":180723,"Delta":276850026},{"NoteNumber":69,"Velocity":42,"Duration":180723,"SoundDuration":180723,"Delta":277030749},{"NoteNumber":48,"Velocity":34,"Duration":180723,"SoundDuration":180723,"Delta":277030749},{"NoteNumber":62,"Velocity":35,"Duration":89285,"SoundDuration":89285,"Delta":277211472},{"NoteNumber":70,"Velocity":42,"Duration":89285,"SoundDuration":89285,"Delta":277211472},{"NoteNumber":46,"Velocity":53,"Duration":367250,"SoundDuration":367250,"Delta":277211472},{"NoteNumber":65,"Velocity":38,"Duration":188679,"SoundDuration":188679,"Delta":277390043},{"NoteNumber":67,"Velocity":42,"Duration":178571,"SoundDuration":178571,"Delta":277578722},{"NoteNumber":65,"Velocity":39,"Duration":178571,"SoundDuration":178571,"Delta":277757294},{"NoteNumber":53,"Velocity":33,"Duration":178571,"SoundDuration":178571,"Delta":277757294},{"NoteNumber":63,"Velocity":42,"Duration":178571,"SoundDuration":178571,"Delta":277935865},{"NoteNumber":55,"Velocity":35,"Duration":178571,"SoundDuration":178571,"Delta":277935865},{"NoteNumber":62,"Velocity":37,"Duration":178571,"SoundDuration":178571,"Delta":278114437},{"NoteNumber":53,"Velocity":32,"Duration":178571,"SoundDuration":178571,"Delta":278114437},{"NoteNumber":60,"Velocity":39,"Duration":178571,"SoundDuration":178571,"Delta":278293008},{"NoteNumber":51,"Velocity":33,"Duration":178571,"SoundDuration":178571,"Delta":278293008},{"NoteNumber":58,"Velocity":37,"Duration":178571,"SoundDuration":178571,"Delta":278471580},{"NoteNumber":50,"Velocity":32,"Duration":178571,"SoundDuration":178571,"Delta":278471580},{"NoteNumber":51,"Velocity":34,"Duration":1068115,"SoundDuration":1068115,"Delta":278650151},{"NoteNumber":57,"Velocity":42,"Duration":178571,"SoundDuration":178571,"Delta":278650151},{"NoteNumber":41,"Velocity":30,"Duration":715355,"SoundDuration":715355,"Delta":278650151},{"NoteNumber":48,"Velocity":35,"Duration":178571,"SoundDuration":178571,"Delta":278650151},{"NoteNumber":55,"Velocity":39,"Duration":178571,"SoundDuration":178571,"Delta":278828723},{"NoteNumber":46,"Velocity":32,"Duration":178571,"SoundDuration":178571,"Delta":278828723},{"NoteNumber":53,"Velocity":39,"Duration":726310,"SoundDuration":726310,"Delta":279007294},{"NoteNumber":45,"Velocity":33,"Duration":178571,"SoundDuration":178571,"Delta":279007294},{"NoteNumber":43,"Velocity":29,"Duration":179640,"SoundDuration":179640,"Delta":279185866},{"NoteNumber":29,"Velocity":30,"Duration":760480,"SoundDuration":760480,"Delta":279365507},{"NoteNumber":41,"Velocity":33,"Duration":184049,"SoundDuration":184049,"Delta":279365507},{"NoteNumber":39,"Velocity":31,"Duration":184048,"SoundDuration":184048,"Delta":279549556},{"NoteNumber":51,"Velocity":31,"Duration":392382,"SoundDuration":392382,"Delta":279733605},{"NoteNumber":55,"Velocity":37,"Duration":184049,"SoundDuration":184049,"Delta":279733605},{"NoteNumber":38,"Velocity":30,"Duration":184049,"SoundDuration":184049,"Delta":279733605},{"NoteNumber":57,"Velocity":35,"Duration":208333,"SoundDuration":208333,"Delta":279917654},{"NoteNumber":36,"Velocity":28,"Duration":208333,"SoundDuration":208333,"Delta":279917654},{"NoteNumber":50,"Velocity":32,"Duration":92592,"SoundDuration":92592,"Delta":280125987},{"NoteNumber":58,"Velocity":37,"Duration":92592,"SoundDuration":92592,"Delta":280125987},{"NoteNumber":34,"Velocity":31,"Duration":92592,"SoundDuration":92592,"Delta":280125987},{"NoteNumber":63,"Velocity":42,"Duration":92592,"SoundDuration":92592,"Delta":280496357},{"NoteNumber":69,"Velocity":42,"Duration":92592,"SoundDuration":92592,"Delta":280496357},{"NoteNumber":53,"Velocity":35,"Duration":92592,"SoundDuration":92592,"Delta":280496357},{"NoteNumber":60,"Velocity":35,"Duration":92592,"SoundDuration":92592,"Delta":280496357},{"NoteNumber":62,"Velocity":42,"Duration":103448,"SoundDuration":103448,"Delta":280866728},{"NoteNumber":70,"Velocity":42,"Duration":103448,"SoundDuration":103448,"Delta":280866728},{"NoteNumber":58,"Velocity":35,"Duration":103448,"SoundDuration":103448,"Delta":280866728},{"NoteNumber":72,"Velocity":88,"Duration":121951,"SoundDuration":121951,"Delta":281280521},{"NoteNumber":75,"Velocity":88,"Duration":121951,"SoundDuration":121951,"Delta":281280521},{"NoteNumber":81,"Velocity":105,"Duration":121951,"SoundDuration":121951,"Delta":281280521},{"NoteNumber":41,"Velocity":70,"Duration":121951,"SoundDuration":121951,"Delta":281280521},{"NoteNumber":53,"Velocity":84,"Duration":121951,"SoundDuration":121951,"Delta":281280521},{"NoteNumber":70,"Velocity":98,"Duration":121951,"SoundDuration":121951,"Delta":281768326},{"NoteNumber":74,"Velocity":98,"Duration":121951,"SoundDuration":121951,"Delta":281768326},{"NoteNumber":82,"Velocity":116,"Duration":121951,"SoundDuration":121951,"Delta":281768326},{"NoteNumber":34,"Velocity":79,"Duration":121951,"SoundDuration":121951,"Delta":281768326},{"NoteNumber":46,"Velocity":93,"Duration":121951,"SoundDuration":121951,"Delta":281768326}],"license":{"name":"Creative Commons Attribution-ShareAlike 3.0 Germany","url":"http://creativecommons.org/licenses/by-sa/3.0/de/deed.en","text":"The MIDI, audio (MP3, OGG) and video files of Bernd Krueger are licensed under the cc-by-sa Germany License. This means that you can use and adapt the files, as long as you attribute the copyright holder.\n\nName: Bernd Krueger\nSource: http://www.piano-midi.de\n\nThe distribution or public playback of the files is only allowed under identical license conditions.\n\nThe scores are open source.","attribution":"MIDI files by Bernd Krueger (piano-midi.de)"}}