{"title":"Hammerklaviersonate 2. Satz","artist":"Beethoven","durationMs":135337,"midiSha256":"0ec22a4817d03b7304cca9f60c70022ba1ccfbd4c4cff861a11f9257812678b0","midiObject":[{"NoteNumber":74,"Velocity":50,"Duration":189075,"SoundDuration":189075,"Delta":0},{"NoteNumber":62,"Velocity":40,"Duration":189075,"SoundDuration":189075,"Delta":0},{"NoteNumber":58,"Velocity":34,"Duration":189075,"SoundDuration":189075,"Delta":0},{"NoteNumber":69,"Velocity":42,"Duration":74175,"SoundDuration":74175,"Delta":189075},{"NoteNumber":77,"Velocity":50,"Duration":74175,"SoundDuration":74175,"Delta":189075},{"NoteNumber":53,"Velocity":34,"Duration":74175,"SoundDuration":74175,"Delta":189075},{"NoteNumber":60,"Velocity":40,"Duration":74175,"SoundDuration":74175,"Delta":189075},{"NoteNumber":72,"Velocity":53,"Duration":253164,"SoundDuration":253164,"Delta":271493},{"NoteNumber":77,"Velocity":62,"Duration":253164,"SoundDuration":253164,"Delta":271493},{"NoteNumber":60,"Velocity":50,"Duration":253164,"SoundDuration":253164,"Delta":271493},{"NoteNumber":57,"Velocity":42,"Duration":253164,"SoundDuration":253164,"Delta":271493},{"NoteNumber":65,"Velocity":46,"Duration":126582,"SoundDuration":126582,"Delta":524657},{"NoteNumber":74,"Velocity":55,"Duration":126582,"SoundDuration":126582,"Delta":524657},{"NoteNumber":62,"Velocity":44,"Duration":126582,"SoundDuration":126582,"Delta":524657},{"NoteNumber":58,"Velocity":37,"Duration":126582,"SoundDuration":126582,"Delta":524657},{"NoteNumber":70,"Velocity":50,"Duration":189075,"SoundDuration":189075,"Delta":777822},{"NoteNumber":58,"Velocity":40,"Duration":189075,"SoundDuration":189075,"Delta":777822},{"NoteNumber":55,"Velocity":34,"Duration":189075,"SoundDuration":189075,"Delta":777822},{"NoteNumber":66,"Velocity":42,"Duration":74175,"SoundDuration":74175,"Delta":966898},{"NoteNumber":74,"Velocity":50,"Duration":74175,"SoundDuration":74175,"Delta":966898},{"NoteNumber":50,"Velocity":34,"Duration":74175,"SoundDuration":74175,"Delta":966898},{"NoteNumber":57,"Velocity":40,"Duration":74175,"SoundDuration":74175,"Delta":966898},{"NoteNumber":69,"Velocity":53,"Duration":253164,"SoundDuration":253164,"Delta":1049315},{"NoteNumber":74,"Velocity":62,"Duration":253164,"SoundDuration":253164,"Delta":1049315},{"NoteNumber":57,"Velocity":50,"Duration":253164,"SoundDuration":253164,"Delta":1049315},{"NoteNumber":54,"Velocity":42,"Duration":253164,"SoundDuration":253164,"Delta":1049315},{"NoteNumber":62,"Velocity":46,"Duration":126582,"SoundDuration":126582,"Delta":1302480},{"NoteNumber":70,"Velocity":55,"Duration":126582,"SoundDuration":126582,"Delta":1302480},{"NoteNumber":58,"Velocity":44,"Duration":126582,"SoundDuration":126582,"Delta":1302480},{"NoteNumber":55,"Velocity":37,"Duration":126582,"SoundDuration":126582,"Delta":1302480},{"NoteNumber":67,"Velocity":52,"Duration":189075,"SoundDuration":189075,"Delta":1555644},{"NoteNumber":55,"Velocity":42,"Duration":189075,"SoundDuration":189075,"Delta":1555644},{"NoteNumber":51,"Velocity":35,"Duration":189075,"SoundDuration":189075,"Delta":1555644},{"NoteNumber":62,"Velocity":44,"Duration":74175,"SoundDuration":74175,"Delta":1744720},{"NoteNumber":70,"Velocity":53,"Duration":74175,"SoundDuration":74175,"Delta":1744720},{"NoteNumber":46,"Velocity":36,"Duration":74175,"SoundDuration":74175,"Delta":1744720},{"NoteNumber":53,"Velocity":42,"Duration":74175,"SoundDuration":74175,"Delta":1744720},{"NoteNumber":65,"Velocity":57,"Duration":253164,"SoundDuration":253164,"Delta":1827138},{"NoteNumber":70,"Velocity":66,"Duration":253164,"SoundDuration":253164,"Delta":1827138},{"NoteNumber":53,"Velocity":54,"Duration":253164,"SoundDuration":253164,"Delta":1827138},{"NoteNumber":50,"Velocity":45,"Duration":253164,"SoundDuration":253164,"Delta":1827138},{"NoteNumber":58,"Velocity":51,"Duration":126582,"SoundDuration":126582,"Delta":2080302},{"NoteNumber":67,"Velocity":61,"Duration":126582,"SoundDuration":126582,"Delta":2080302},{"NoteNumber":55,"Velocity":48,"Duration":126582,"SoundDuration":126582,"Delta":2080302},{"NoteNumber":51,"Velocity":41,"Duration":126582,"SoundDuration":126582,"Delta":2080302},{"NoteNumber":58,"Velocity":47,"Duration":189075,"SoundDuration":189075,"Delta":2333467},{"NoteNumber":67,"Velocity":57,"Duration":189075,"SoundDuration":189075,"Delta":2333467},{"NoteNumber":55,"Velocity":45,"Duration":189075,"SoundDuration":189075,"Delta":2333467},{"NoteNumber":51,"Velocity":38,"Duration":189075,"SoundDuration":189075,"Delta":2333467},{"NoteNumber":63,"Velocity":48,"Duration":73369,"SoundDuration":73369,"Delta":2522542},{"NoteNumber":69,"Velocity":58,"Duration":73369,"SoundDuration":73369,"Delta":2522542},{"NoteNumber":48,"Velocity":39,"Duration":73369,"SoundDuration":73369,"Delta":2522542},{"NoteNumber":53,"Velocity":46,"Duration":73369,"SoundDuration":73369,"Delta":2522542},{"NoteNumber":63,"Velocity":62,"Duration":253164,"SoundDuration":253164,"Delta":2604064},{"NoteNumber":69,"Velocity":72,"Duration":253164,"SoundDuration":253164,"Delta":2604064},{"NoteNumber":53,"Velocity":58,"Duration":379746,"SoundDuration":379746,"Delta":2604064},{"NoteNumber":48,"Velocity":49,"Duration":253164,"SoundDuration":253164,"Delta":2604064},{"NoteNumber":58,"Velocity":55,"Duration":126582,"SoundDuration":126582,"Delta":2857229},{"NoteNumber":70,"Velocity":66,"Duration":126582,"SoundDuration":126582,"Delta":2857229},{"NoteNumber":50,"Velocity":44,"Duration":126582,"SoundDuration":126582,"Delta":2857229},{"NoteNumber":65,"Velocity":51,"Duration":271493,"SoundDuration":271493,"Delta":3110393},{"NoteNumber":70,"Velocity":61,"Duration":189075,"SoundDuration":189075,"Delta":3110393},{"NoteNumber":53,"Velocity":41,"Duration":271493,"SoundDuration":271493,"Delta":3110393},{"NoteNumber":50,"Velocity":49,"Duration":189075,"SoundDuration":189075,"Delta":3110393},{"NoteNumber":72,"Velocity":63,"Duration":74175,"SoundDuration":74175,"Delta":3299469},{"NoteNumber":45,"Velocity":42,"Duration":74175,"SoundDuration":74175,"Delta":3299469},{"NoteNumber":65,"Velocity":67,"Duration":253164,"SoundDuration":253164,"Delta":3381887},{"NoteNumber":72,"Velocity":79,"Duration":253164,"SoundDuration":253164,"Delta":3381887},{"NoteNumber":53,"Velocity":64,"Duration":379746,"SoundDuration":379746,"Delta":3381887},{"NoteNumber":45,"Velocity":53,"Duration":253164,"SoundDuration":253164,"Delta":3381887},{"NoteNumber":70,"Velocity":60,"Duration":126582,"SoundDuration":126582,"Delta":3635051},{"NoteNumber":65,"Velocity":60,"Duration":126582,"SoundDuration":126582,"Delta":3635051},{"NoteNumber":74,"Velocity":72,"Duration":126582,"SoundDuration":126582,"Delta":3635051},{"NoteNumber":44,"Velocity":48,"Duration":126582,"SoundDuration":126582,"Delta":3635051},{"NoteNumber":70,"Velocity":56,"Duration":270597,"SoundDuration":270597,"Delta":3888216},{"NoteNumber":74,"Velocity":67,"Duration":189075,"SoundDuration":189075,"Delta":3888216},{"NoteNumber":44,"Velocity":45,"Duration":189075,"SoundDuration":189075,"Delta":3888216},{"NoteNumber":53,"Velocity":53,"Duration":189075,"SoundDuration":189075,"Delta":3888216},{"NoteNumber":75,"Velocity":70,"Duration":73369,"SoundDuration":73369,"Delta":4077291},{"NoteNumber":43,"Velocity":46,"Duration":73369,"SoundDuration":73369,"Delta":4077291},{"NoteNumber":51,"Velocity":46,"Duration":73369,"SoundDuration":73369,"Delta":4077291},{"NoteNumber":70,"Velocity":75,"Duration":259740,"SoundDuration":259740,"Delta":4158813},{"NoteNumber":75,"Velocity":88,"Duration":259740,"SoundDuration":259740,"Delta":4158813},{"NoteNumber":51,"Velocity":71,"Duration":259740,"SoundDuration":259740,"Delta":4158813},{"NoteNumber":43,"Velocity":59,"Duration":259740,"SoundDuration":259740,"Delta":4158813},{"NoteNumber":73,"Velocity":68,"Duration":71428,"SoundDuration":71428,"Delta":4418554},{"NoteNumber":70,"Velocity":68,"Duration":71428,"SoundDuration":71428,"Delta":4418554},{"NoteNumber":65,"Velocity":68,"Duration":71428,"SoundDuration":71428,"Delta":4418554},{"NoteNumber":77,"Velocity":82,"Duration":71428,"SoundDuration":71428,"Delta":4418554},{"NoteNumber":49,"Velocity":56,"Duration":71428,"SoundDuration":71428,"Delta":4418554},{"NoteNumber":41,"Velocity":49,"Duration":71428,"SoundDuration":71428,"Delta":4418554},{"NoteNumber":67,"Velocity":79,"Duration":76142,"SoundDuration":76142,"Delta":4704268},{"NoteNumber":70,"Velocity":79,"Duration":76142,"SoundDuration":76142,"Delta":4704268},{"NoteNumber":72,"Velocity":79,"Duration":76142,"SoundDuration":76142,"Delta":4704268},{"NoteNumber":79,"Velocity":94,"Duration":76142,"SoundDuration":76142,"Delta":4704268},{"NoteNumber":40,"Velocity":58,"Duration":76142,"SoundDuration":76142,"Delta":4704268},{"NoteNumber":48,"Velocity":62,"Duration":76142,"SoundDuration":76142,"Delta":4704268},{"NoteNumber":60,"Velocity":79,"Duration":156250,"SoundDuration":156250,"Delta":5008837},{"NoteNumber":69,"Velocity":79,"Duration":156250,"SoundDuration":156250,"Delta":5008837},{"NoteNumber":72,"Velocity":94,"Duration":156250,"SoundDuration":156250,"Delta":5008837},{"NoteNumber":41,"Velocity":58,"Duration":156250,"SoundDuration":156250,"Delta":5008837},{"NoteNumber":53,"Velocity":62,"Duration":156250,"SoundDuration":156250,"Delta":5008837},{"NoteNumber":86,"Velocity":50,"Duration":189075,"SoundDuration":189075,"Delta":5633837},{"NoteNumber":74,"Velocity":40,"Duration":189075,"SoundDuration":189075,"Delta":5633837},{"NoteNumber":70,"Velocity":34,"Duration":189075,"SoundDuration":189075,"Delta":5633837},{"NoteNumber":81,"Velocity":42,"Duration":74175,"SoundDuration":74175,"Delta":5822912},{"NoteNumber":89,"Velocity":50,"Duration":74175,"SoundDuration":74175,"Delta":5822912},{"NoteNumber":65,"Velocity":34,"Duration":74175,"SoundDuration":74175,"Delta":5822912},{"NoteNumber":72,"Velocity":40,"Duration":74175,"SoundDuration":74175,"Delta":5822912},{"NoteNumber":84,"Velocity":53,"Duration":253164,"SoundDuration":253164,"Delta":5905330},{"NoteNumber":89,"Velocity":62,"Duration":253164,"SoundDuration":253164,"Delta":5905330},{"NoteNumber":72,"Velocity":50,"Duration":253164,"SoundDuration":253164,"Delta":5905330},{"NoteNumber":69,"Velocity":42,"Duration":253164,"SoundDuration":253164,"Delta":5905330},{"NoteNumber":77,"Velocity":46,"Duration":130434,"SoundDuration":130434,"Delta":6158494},{"NoteNumber":86,"Velocity":55,"Duration":130434,"SoundDuration":130434,"Delta":6158494},{"NoteNumber":74,"Velocity":44,"Duration":130434,"SoundDuration":130434,"Delta":6158494},{"NoteNumber":70,"Velocity":37,"Duration":130434,"SoundDuration":130434,"Delta":6158494},{"NoteNumber":82,"Velocity":50,"Duration":189075,"SoundDuration":189075,"Delta":6419364},{"NoteNumber":70,"Velocity":40,"Duration":189075,"SoundDuration":189075,"Delta":6419364},{"NoteNumber":67,"Velocity":34,"Duration":189075,"SoundDuration":189075,"Delta":6419364},{"NoteNumber":78,"Velocity":42,"Duration":74175,"SoundDuration":74175,"Delta":6608440},{"NoteNumber":86,"Velocity":50,"Duration":74175,"SoundDuration":74175,"Delta":6608440},{"NoteNumber":62,"Velocity":34,"Duration":74175,"SoundDuration":74175,"Delta":6608440},{"NoteNumber":69,"Velocity":40,"Duration":74175,"SoundDuration":74175,"Delta":6608440},{"NoteNumber":81,"Velocity":53,"Duration":253164,"SoundDuration":253164,"Delta":6690857},{"NoteNumber":86,"Velocity":62,"Duration":253164,"SoundDuration":253164,"Delta":6690857},{"NoteNumber":69,"Velocity":50,"Duration":253164,"SoundDuration":253164,"Delta":6690857},{"NoteNumber":66,"Velocity":42,"Duration":253164,"SoundDuration":253164,"Delta":6690857},{"NoteNumber":74,"Velocity":46,"Duration":126582,"SoundDuration":126582,"Delta":6944022},{"NoteNumber":82,"Velocity":55,"Duration":126582,"SoundDuration":126582,"Delta":6944022},{"NoteNumber":70,"Velocity":44,"Duration":126582,"SoundDuration":126582,"Delta":6944022},{"NoteNumber":67,"Velocity":37,"Duration":126582,"SoundDuration":126582,"Delta":6944022},{"NoteNumber":79,"Velocity":52,"Duration":189075,"SoundDuration":189075,"Delta":7197186},{"NoteNumber":67,"Velocity":42,"Duration":189075,"SoundDuration":189075,"Delta":7197186},{"NoteNumber":63,"Velocity":35,"Duration":189075,"SoundDuration":189075,"Delta":7197186},{"NoteNumber":74,"Velocity":44,"Duration":74175,"SoundDuration":74175,"Delta":7386262},{"NoteNumber":82,"Velocity":53,"Duration":74175,"SoundDuration":74175,"Delta":7386262},{"NoteNumber":58,"Velocity":36,"Duration":74175,"SoundDuration":74175,"Delta":7386262},{"NoteNumber":65,"Velocity":42,"Duration":74175,"SoundDuration":74175,"Delta":7386262},{"NoteNumber":77,"Velocity":57,"Duration":253164,"SoundDuration":253164,"Delta":7468680},{"NoteNumber":82,"Velocity":66,"Duration":253164,"SoundDuration":253164,"Delta":7468680},{"NoteNumber":65,"Velocity":54,"Duration":253164,"SoundDuration":253164,"Delta":7468680},{"NoteNumber":62,"Velocity":45,"Duration":253164,"SoundDuration":253164,"Delta":7468680},{"NoteNumber":70,"Velocity":51,"Duration":129310,"SoundDuration":129310,"Delta":7721844},{"NoteNumber":79,"Velocity":61,"Duration":129310,"SoundDuration":129310,"Delta":7721844},{"NoteNumber":67,"Velocity":48,"Duration":129310,"SoundDuration":129310,"Delta":7721844},{"NoteNumber":63,"Velocity":41,"Duration":129310,"SoundDuration":129310,"Delta":7721844},{"NoteNumber":70,"Velocity":47,"Duration":189075,"SoundDuration":189075,"Delta":7980465},{"NoteNumber":79,"Velocity":57,"Duration":189075,"SoundDuration":189075,"Delta":7980465},{"NoteNumber":67,"Velocity":45,"Duration":189075,"SoundDuration":189075,"Delta":7980465},{"NoteNumber":63,"Velocity":38,"Duration":189075,"SoundDuration":189075,"Delta":7980465},{"NoteNumber":75,"Velocity":48,"Duration":73369,"SoundDuration":73369,"Delta":8169540},{"NoteNumber":81,"Velocity":58,"Duration":73369,"SoundDuration":73369,"Delta":8169540},{"NoteNumber":60,"Velocity":39,"Duration":73369,"SoundDuration":73369,"Delta":8169540},{"NoteNumber":65,"Velocity":46,"Duration":73369,"SoundDuration":73369,"Delta":8169540},{"NoteNumber":75,"Velocity":62,"Duration":253164,"SoundDuration":253164,"Delta":8251062},{"NoteNumber":81,"Velocity":72,"Duration":253164,"SoundDuration":253164,"Delta":8251062},{"NoteNumber":65,"Velocity":58,"Duration":379746,"SoundDuration":379746,"Delta":8251062},{"NoteNumber":60,"Velocity":49,"Duration":253164,"SoundDuration":253164,"Delta":8251062},{"NoteNumber":70,"Velocity":55,"Duration":126582,"SoundDuration":126582,"Delta":8504227},{"NoteNumber":82,"Velocity":66,"Duration":126582,"SoundDuration":126582,"Delta":8504227},{"NoteNumber":62,"Velocity":44,"Duration":126582,"SoundDuration":126582,"Delta":8504227},{"NoteNumber":77,"Velocity":51,"Duration":271493,"SoundDuration":271493,"Delta":8757391},{"NoteNumber":82,"Velocity":61,"Duration":189075,"SoundDuration":189075,"Delta":8757391},{"NoteNumber":74,"Velocity":49,"Duration":189075,"SoundDuration":189075,"Delta":8757391},{"NoteNumber":84,"Velocity":63,"Duration":74175,"SoundDuration":74175,"Delta":8946467},{"NoteNumber":72,"Velocity":42,"Duration":74175,"SoundDuration":74175,"Delta":8946467},{"NoteNumber":69,"Velocity":42,"Duration":74175,"SoundDuration":74175,"Delta":8946467},{"NoteNumber":77,"Velocity":67,"Duration":253164,"SoundDuration":253164,"Delta":9028885},{"NoteNumber":84,"Velocity":79,"Duration":253164,"SoundDuration":253164,"Delta":9028885},{"NoteNumber":72,"Velocity":64,"Duration":253164,"SoundDuration":253164,"Delta":9028885},{"NoteNumber":69,"Velocity":53,"Duration":253164,"SoundDuration":253164,"Delta":9028885},{"NoteNumber":77,"Velocity":60,"Duration":131004,"SoundDuration":131004,"Delta":9282049},{"NoteNumber":86,"Velocity":72,"Duration":131004,"SoundDuration":131004,"Delta":9282049},{"NoteNumber":70,"Velocity":52,"Duration":131004,"SoundDuration":131004,"Delta":9282049},{"NoteNumber":68,"Velocity":48,"Duration":131004,"SoundDuration":131004,"Delta":9282049},{"NoteNumber":82,"Velocity":56,"Duration":270597,"SoundDuration":270597,"Delta":9544058},{"NoteNumber":87,"Velocity":67,"Duration":189075,"SoundDuration":189075,"Delta":9544058},{"NoteNumber":67,"Velocity":45,"Duration":189075,"SoundDuration":189075,"Delta":9544058},{"NoteNumber":70,"Velocity":53,"Duration":270597,"SoundDuration":270597,"Delta":9544058},{"NoteNumber":88,"Velocity":70,"Duration":73369,"SoundDuration":73369,"Delta":9733133},{"NoteNumber":66,"Velocity":46,"Duration":73369,"SoundDuration":73369,"Delta":9733133},{"NoteNumber":82,"Velocity":75,"Duration":259740,"SoundDuration":259740,"Delta":9814655},{"NoteNumber":88,"Velocity":88,"Duration":259740,"SoundDuration":259740,"Delta":9814655},{"NoteNumber":70,"Velocity":71,"Duration":259740,"SoundDuration":259740,"Delta":9814655},{"NoteNumber":66,"Velocity":59,"Duration":259740,"SoundDuration":259740,"Delta":9814655},{"NoteNumber":81,"Velocity":68,"Duration":71428,"SoundDuration":71428,"Delta":10074396},{"NoteNumber":77,"Velocity":68,"Duration":71428,"SoundDuration":71428,"Delta":10074396},{"NoteNumber":89,"Velocity":82,"Duration":71428,"SoundDuration":71428,"Delta":10074396},{"NoteNumber":72,"Velocity":56,"Duration":71428,"SoundDuration":71428,"Delta":10074396},{"NoteNumber":65,"Velocity":49,"Duration":71428,"SoundDuration":71428,"Delta":10074396},{"NoteNumber":79,"Velocity":79,"Duration":76142,"SoundDuration":76142,"Delta":10360110},{"NoteNumber":82,"Velocity":79,"Duration":76142,"SoundDuration":76142,"Delta":10360110},{"NoteNumber":88,"Velocity":79,"Duration":76142,"SoundDuration":76142,"Delta":10360110},{"NoteNumber":91,"Velocity":94,"Duration":76142,"SoundDuration":76142,"Delta":10360110},{"NoteNumber":48,"Velocity":58,"Duration":76142,"SoundDuration":76142,"Delta":10360110},{"NoteNumber":60,"Velocity":62,"Duration":76142,"SoundDuration":76142,"Delta":10360110},{"NoteNumber":77,"Velocity":79,"Duration":160427,"SoundDuration":160427,"Delta":10664679},{"NoteNumber":81,"Velocity":79,"Duration":160427,"SoundDuration":160427,"Delta":10664679},{"NoteNumber":89,"Velocity":94,"Duration":160427,"SoundDuration":160427,"Delta":10664679},{"NoteNumber":53,"Velocity":58,"Duration":160427,"SoundDuration":160427,"Delta":10664679},{"NoteNumber":65,"Velocity":62,"Duration":160427,"SoundDuration":160427,"Delta":10664679},{"NoteNumber":71,"Velocity":43,"Duration":189075,"SoundDuration":189075,"Delta":11306390},{"NoteNumber":74,"Velocity":50,"Duration":189075,"SoundDuration":189075,"Delta":11306390},{"NoteNumber":65,"Velocity":40,"Duration":786666,"SoundDuration":786666,"Delta":11306390},{"NoteNumber":53,"Velocity":34,"Duration":786666,"SoundDuration":786666,"Delta":11306390},{"NoteNumber":74,"Velocity":42,"Duration":61813,"SoundDuration":61813,"Delta":11495465},{"NoteNumber":77,"Velocity":50,"Duration":61813,"SoundDuration":61813,"Delta":11495465},{"NoteNumber":74,"Velocity":53,"Duration":253164,"SoundDuration":253164,"Delta":11577883},{"NoteNumber":77,"Velocity":62,"Duration":253164,"SoundDuration":253164,"Delta":11577883},{"NoteNumber":71,"Velocity":46,"Duration":131004,"SoundDuration":131004,"Delta":11831047},{"NoteNumber":74,"Velocity":55,"Duration":131004,"SoundDuration":131004,"Delta":11831047},{"NoteNumber":71,"Velocity":43,"Duration":189075,"SoundDuration":189075,"Delta":12093056},{"NoteNumber":74,"Velocity":50,"Duration":189075,"SoundDuration":189075,"Delta":12093056},{"NoteNumber":53,"Velocity":40,"Duration":777822,"SoundDuration":777822,"Delta":12093056},{"NoteNumber":41,"Velocity":34,"Duration":777822,"SoundDuration":777822,"Delta":12093056},{"NoteNumber":75,"Velocity":42,"Duration":61813,"SoundDuration":61813,"Delta":12282132},{"NoteNumber":79,"Velocity":50,"Duration":61813,"SoundDuration":61813,"Delta":12282132},{"NoteNumber":75,"Velocity":53,"Duration":253164,"SoundDuration":253164,"Delta":12364549},{"NoteNumber":79,"Velocity":62,"Duration":253164,"SoundDuration":253164,"Delta":12364549},{"NoteNumber":72,"Velocity":46,"Duration":126582,"SoundDuration":126582,"Delta":12617714},{"NoteNumber":75,"Velocity":55,"Duration":126582,"SoundDuration":126582,"Delta":12617714},{"NoteNumber":69,"Velocity":43,"Duration":189075,"SoundDuration":189075,"Delta":12870878},{"NoteNumber":72,"Velocity":50,"Duration":189075,"SoundDuration":189075,"Delta":12870878},{"NoteNumber":53,"Velocity":40,"Duration":790144,"SoundDuration":790144,"Delta":12870878},{"NoteNumber":41,"Velocity":34,"Duration":790144,"SoundDuration":790144,"Delta":12870878},{"NoteNumber":72,"Velocity":42,"Duration":61813,"SoundDuration":61813,"Delta":13059954},{"NoteNumber":75,"Velocity":50,"Duration":61813,"SoundDuration":61813,"Delta":13059954},{"NoteNumber":72,"Velocity":53,"Duration":253164,"SoundDuration":253164,"Delta":13142372},{"NoteNumber":75,"Velocity":62,"Duration":253164,"SoundDuration":253164,"Delta":13142372},{"NoteNumber":69,"Velocity":46,"Duration":132743,"SoundDuration":132743,"Delta":13395536},{"NoteNumber":72,"Velocity":55,"Duration":132743,"SoundDuration":132743,"Delta":13395536},{"NoteNumber":69,"Velocity":43,"Duration":189075,"SoundDuration":189075,"Delta":13661023},{"NoteNumber":72,"Velocity":50,"Duration":189075,"SoundDuration":189075,"Delta":13661023},{"NoteNumber":41,"Velocity":36,"Duration":777822,"SoundDuration":777822,"Delta":13661023},{"NoteNumber":29,"Velocity":30,"Duration":777822,"SoundDuration":777822,"Delta":13661023},{"NoteNumber":73,"Velocity":42,"Duration":61813,"SoundDuration":61813,"Delta":13850098},{"NoteNumber":77,"Velocity":50,"Duration":61813,"SoundDuration":61813,"Delta":13850098},{"NoteNumber":74,"Velocity":53,"Duration":253164,"SoundDuration":253164,"Delta":13932516},{"NoteNumber":77,"Velocity":62,"Duration":253164,"SoundDuration":253164,"Delta":13932516},{"NoteNumber":70,"Velocity":46,"Duration":126582,"SoundDuration":126582,"Delta":14185681},{"NoteNumber":74,"Velocity":55,"Duration":126582,"SoundDuration":126582,"Delta":14185681},{"NoteNumber":57,"Velocity":38,"Duration":189075,"SoundDuration":189075,"Delta":14438845},{"NoteNumber":60,"Velocity":45,"Duration":189075,"SoundDuration":189075,"Delta":14438845},{"NoteNumber":42,"Velocity":36,"Duration":524657,"SoundDuration":524657,"Delta":14438845},{"NoteNumber":30,"Velocity":30,"Duration":524657,"SoundDuration":524657,"Delta":14438845},{"NoteNumber":60,"Velocity":37,"Duration":61813,"SoundDuration":61813,"Delta":14627921},{"NoteNumber":63,"Velocity":45,"Duration":61813,"SoundDuration":61813,"Delta":14627921},{"NoteNumber":60,"Velocity":47,"Duration":506328,"SoundDuration":506328,"Delta":14710338},{"NoteNumber":63,"Velocity":55,"Duration":506328,"SoundDuration":506328,"Delta":14710338},{"NoteNumber":31,"Velocity":28,"Duration":506328,"SoundDuration":506328,"Delta":14963503},{"NoteNumber":43,"Velocity":34,"Duration":506328,"SoundDuration":506328,"Delta":14963503},{"NoteNumber":58,"Velocity":40,"Duration":253164,"SoundDuration":253164,"Delta":15216667},{"NoteNumber":62,"Velocity":48,"Duration":253164,"SoundDuration":253164,"Delta":15216667},{"NoteNumber":57,"Velocity":39,"Duration":262008,"SoundDuration":262008,"Delta":15469832},{"NoteNumber":60,"Velocity":46,"Duration":262008,"SoundDuration":262008,"Delta":15469832},{"NoteNumber":33,"Velocity":28,"Duration":262008,"SoundDuration":262008,"Delta":15469832},{"NoteNumber":45,"Velocity":34,"Duration":262008,"SoundDuration":262008,"Delta":15469832},{"NoteNumber":55,"Velocity":38,"Duration":262008,"SoundDuration":262008,"Delta":15731840},{"NoteNumber":58,"Velocity":45,"Duration":262008,"SoundDuration":262008,"Delta":15731840},{"NoteNumber":34,"Velocity":28,"Duration":262008,"SoundDuration":262008,"Delta":15731840},{"NoteNumber":46,"Velocity":33,"Duration":262008,"SoundDuration":262008,"Delta":15731840},{"NoteNumber":53,"Velocity":36,"Duration":542382,"SoundDuration":542382,"Delta":15993849},{"NoteNumber":57,"Velocity":43,"Duration":542382,"SoundDuration":542382,"Delta":15993849},{"NoteNumber":35,"Velocity":28,"Duration":262008,"SoundDuration":262008,"Delta":15993849},{"NoteNumber":47,"Velocity":33,"Duration":262008,"SoundDuration":262008,"Delta":15993849},{"NoteNumber":36,"Velocity":28,"Duration":560748,"SoundDuration":560748,"Delta":16255857},{"NoteNumber":48,"Velocity":33,"Duration":560748,"SoundDuration":560748,"Delta":16255857},{"NoteNumber":52,"Velocity":33,"Duration":280374,"SoundDuration":280374,"Delta":16536231},{"NoteNumber":55,"Velocity":39,"Duration":280374,"SoundDuration":280374,"Delta":16536231},{"NoteNumber":51,"Velocity":32,"Duration":589652,"SoundDuration":589652,"Delta":16816605},{"NoteNumber":55,"Velocity":32,"Duration":898930,"SoundDuration":898930,"Delta":16816605},{"NoteNumber":60,"Velocity":38,"Duration":589652,"SoundDuration":589652,"Delta":16816605},{"NoteNumber":36,"Velocity":32,"Duration":280373,"SoundDuration":280373,"Delta":16816605},{"NoteNumber":43,"Velocity":32,"Duration":618556,"SoundDuration":618556,"Delta":17096979},{"NoteNumber":50,"Velocity":32,"Duration":309278,"SoundDuration":309278,"Delta":17406258},{"NoteNumber":59,"Velocity":38,"Duration":309278,"SoundDuration":309278,"Delta":17406258},{"NoteNumber":59,"Velocity":40,"Duration":189075,"SoundDuration":189075,"Delta":18643372},{"NoteNumber":62,"Velocity":40,"Duration":74175,"SoundDuration":74175,"Delta":18832448},{"NoteNumber":62,"Velocity":49,"Duration":253164,"SoundDuration":253164,"Delta":18914865},{"NoteNumber":59,"Velocity":44,"Duration":126582,"SoundDuration":126582,"Delta":19168030},{"NoteNumber":62,"Velocity":33,"Duration":658586,"SoundDuration":658586,"Delta":19421194},{"NoteNumber":71,"Velocity":40,"Duration":189075,"SoundDuration":189075,"Delta":19421194},{"NoteNumber":43,"Velocity":32,"Duration":189075,"SoundDuration":189075,"Delta":19421194},{"NoteNumber":55,"Velocity":27,"Duration":658586,"SoundDuration":658586,"Delta":19421194},{"NoteNumber":74,"Velocity":40,"Duration":74175,"SoundDuration":74175,"Delta":19610270},{"NoteNumber":47,"Velocity":32,"Duration":74175,"SoundDuration":74175,"Delta":19610270},{"NoteNumber":74,"Velocity":49,"Duration":253164,"SoundDuration":253164,"Delta":19692688},{"NoteNumber":47,"Velocity":40,"Duration":253164,"SoundDuration":253164,"Delta":19692688},{"NoteNumber":71,"Velocity":44,"Duration":133928,"SoundDuration":133928,"Delta":19945852},{"NoteNumber":43,"Velocity":35,"Duration":133928,"SoundDuration":133928,"Delta":19945852},{"NoteNumber":84,"Velocity":46,"Duration":189075,"SoundDuration":189075,"Delta":20213709},{"NoteNumber":72,"Velocity":36,"Duration":189075,"SoundDuration":189075,"Delta":20213709},{"NoteNumber":87,"Velocity":46,"Duration":74175,"SoundDuration":74175,"Delta":20402785},{"NoteNumber":75,"Velocity":36,"Duration":74175,"SoundDuration":74175,"Delta":20402785},{"NoteNumber":87,"Velocity":56,"Duration":253164,"SoundDuration":253164,"Delta":20485203},{"NoteNumber":75,"Velocity":46,"Duration":253164,"SoundDuration":253164,"Delta":20485203},{"NoteNumber":84,"Velocity":50,"Duration":126582,"SoundDuration":126582,"Delta":20738367},{"NoteNumber":72,"Velocity":40,"Duration":126582,"SoundDuration":126582,"Delta":20738367},{"NoteNumber":62,"Velocity":43,"Duration":189075,"SoundDuration":189075,"Delta":20991532},{"NoteNumber":71,"Velocity":50,"Duration":189075,"SoundDuration":189075,"Delta":20991532},{"NoteNumber":55,"Velocity":40,"Duration":790144,"SoundDuration":790144,"Delta":20991532},{"NoteNumber":43,"Velocity":34,"Duration":790144,"SoundDuration":790144,"Delta":20991532},{"NoteNumber":65,"Velocity":42,"Duration":61813,"SoundDuration":61813,"Delta":21180607},{"NoteNumber":74,"Velocity":50,"Duration":61813,"SoundDuration":61813,"Delta":21180607},{"NoteNumber":65,"Velocity":53,"Duration":253164,"SoundDuration":253164,"Delta":21263025},{"NoteNumber":74,"Velocity":62,"Duration":253164,"SoundDuration":253164,"Delta":21263025},{"NoteNumber":62,"Velocity":47,"Duration":132743,"SoundDuration":132743,"Delta":21516189},{"NoteNumber":71,"Velocity":56,"Duration":132743,"SoundDuration":132743,"Delta":21516189},{"NoteNumber":62,"Velocity":51,"Duration":189075,"SoundDuration":189075,"Delta":21781676},{"NoteNumber":71,"Velocity":59,"Duration":189075,"SoundDuration":189075,"Delta":21781676},{"NoteNumber":48,"Velocity":48,"Duration":783278,"SoundDuration":783278,"Delta":21781676},{"NoteNumber":36,"Velocity":40,"Duration":783278,"SoundDuration":783278,"Delta":21781676},{"NoteNumber":67,"Velocity":50,"Duration":61813,"SoundDuration":61813,"Delta":21970752},{"NoteNumber":75,"Velocity":60,"Duration":61813,"SoundDuration":61813,"Delta":21970752},{"NoteNumber":67,"Velocity":63,"Duration":253164,"SoundDuration":253164,"Delta":22053169},{"NoteNumber":75,"Velocity":75,"Duration":253164,"SoundDuration":253164,"Delta":22053169},{"NoteNumber":63,"Velocity":56,"Duration":129310,"SoundDuration":129310,"Delta":22306334},{"NoteNumber":72,"Velocity":68,"Duration":129310,"SoundDuration":129310,"Delta":22306334},{"NoteNumber":69,"Velocity":61,"Duration":189075,"SoundDuration":189075,"Delta":22564954},{"NoteNumber":72,"Velocity":73,"Duration":189075,"SoundDuration":189075,"Delta":22564954},{"NoteNumber":29,"Velocity":57,"Duration":530338,"SoundDuration":530338,"Delta":22564954},{"NoteNumber":41,"Velocity":71,"Duration":530338,"SoundDuration":530338,"Delta":22564954},{"NoteNumber":72,"Velocity":66,"Duration":73369,"SoundDuration":73369,"Delta":22754030},{"NoteNumber":81,"Velocity":75,"Duration":73369,"SoundDuration":73369,"Delta":22754030},{"NoteNumber":72,"Velocity":80,"Duration":259740,"SoundDuration":259740,"Delta":22835552},{"NoteNumber":81,"Velocity":94,"Duration":259740,"SoundDuration":259740,"Delta":22835552},{"NoteNumber":69,"Velocity":71,"Duration":71428,"SoundDuration":71428,"Delta":23095292},{"NoteNumber":77,"Velocity":85,"Duration":71428,"SoundDuration":71428,"Delta":23095292},{"NoteNumber":41,"Velocity":57,"Duration":71428,"SoundDuration":71428,"Delta":23095292},{"NoteNumber":53,"Velocity":60,"Duration":71428,"SoundDuration":71428,"Delta":23095292},{"NoteNumber":70,"Velocity":86,"Duration":76142,"SoundDuration":76142,"Delta":23381007},{"NoteNumber":82,"Velocity":103,"Duration":76142,"SoundDuration":76142,"Delta":23381007},{"NoteNumber":34,"Velocity":63,"Duration":76142,"SoundDuration":76142,"Delta":23381007},{"NoteNumber":46,"Velocity":68,"Duration":76142,"SoundDuration":76142,"Delta":23381007},{"NoteNumber":70,"Velocity":86,"Duration":160427,"SoundDuration":160427,"Delta":23685575},{"NoteNumber":82,"Velocity":103,"Duration":160427,"SoundDuration":160427,"Delta":23685575},{"NoteNumber":34,"Velocity":63,"Duration":160427,"SoundDuration":160427,"Delta":23685575},{"NoteNumber":46,"Velocity":68,"Duration":160427,"SoundDuration":160427,"Delta":23685575},{"NoteNumber":83,"Velocity":43,"Duration":189075,"SoundDuration":189075,"Delta":24327286},{"NoteNumber":86,"Velocity":50,"Duration":189075,"SoundDuration":189075,"Delta":24327286},{"NoteNumber":77,"Velocity":40,"Duration":786666,"SoundDuration":786666,"Delta":24327286},{"NoteNumber":65,"Velocity":34,"Duration":786666,"SoundDuration":786666,"Delta":24327286},{"NoteNumber":86,"Velocity":42,"Duration":61813,"SoundDuration":61813,"Delta":24516362},{"NoteNumber":89,"Velocity":50,"Duration":61813,"SoundDuration":61813,"Delta":24516362},{"NoteNumber":86,"Velocity":53,"Duration":253164,"SoundDuration":253164,"Delta":24598780},{"NoteNumber":89,"Velocity":62,"Duration":253164,"SoundDuration":253164,"Delta":24598780},{"NoteNumber":83,"Velocity":46,"Duration":131004,"SoundDuration":131004,"Delta":24851944},{"NoteNumber":86,"Velocity":55,"Duration":131004,"SoundDuration":131004,"Delta":24851944},{"NoteNumber":83,"Velocity":43,"Duration":189075,"SoundDuration":189075,"Delta":25113953},{"NoteNumber":86,"Velocity":50,"Duration":189075,"SoundDuration":189075,"Delta":25113953},{"NoteNumber":65,"Velocity":40,"Duration":777822,"SoundDuration":777822,"Delta":25113953},{"NoteNumber":53,"Velocity":34,"Duration":777822,"SoundDuration":777822,"Delta":25113953},{"NoteNumber":87,"Velocity":42,"Duration":61813,"SoundDuration":61813,"Delta":25303028},{"NoteNumber":91,"Velocity":50,"Duration":61813,"SoundDuration":61813,"Delta":25303028},{"NoteNumber":87,"Velocity":53,"Duration":253164,"SoundDuration":253164,"Delta":25385446},{"NoteNumber":91,"Velocity":62,"Duration":253164,"SoundDuration":253164,"Delta":25385446},{"NoteNumber":84,"Velocity":46,"Duration":126582,"SoundDuration":126582,"Delta":25638611},{"NoteNumber":87,"Velocity":55,"Duration":126582,"SoundDuration":126582,"Delta":25638611},{"NoteNumber":81,"Velocity":43,"Duration":189075,"SoundDuration":189075,"Delta":25891775},{"NoteNumber":84,"Velocity":50,"Duration":189075,"SoundDuration":189075,"Delta":25891775},{"NoteNumber":65,"Velocity":40,"Duration":786666,"SoundDuration":786666,"Delta":25891775},{"NoteNumber":53,"Velocity":34,"Duration":786666,"SoundDuration":786666,"Delta":25891775},{"NoteNumber":84,"Velocity":42,"Duration":61813,"SoundDuration":61813,"Delta":26080851},{"NoteNumber":87,"Velocity":50,"Duration":61813,"SoundDuration":61813,"Delta":26080851},{"NoteNumber":84,"Velocity":53,"Duration":253164,"SoundDuration":253164,"Delta":26163268},{"NoteNumber":87,"Velocity":62,"Duration":253164,"SoundDuration":253164,"Delta":26163268},{"NoteNumber":81,"Velocity":46,"Duration":131004,"SoundDuration":131004,"Delta":26416433},{"NoteNumber":84,"Velocity":55,"Duration":131004,"SoundDuration":131004,"Delta":26416433},{"NoteNumber":81,"Velocity":43,"Duration":189075,"SoundDuration":189075,"Delta":26678441},{"NoteNumber":84,"Velocity":50,"Duration":189075,"SoundDuration":189075,"Delta":26678441},{"NoteNumber":53,"Velocity":36,"Duration":777822,"SoundDuration":777822,"Delta":26678441},{"NoteNumber":41,"Velocity":30,"Duration":777822,"SoundDuration":777822,"Delta":26678441},{"NoteNumber":85,"Velocity":42,"Duration":61813,"SoundDuration":61813,"Delta":26867517},{"NoteNumber":89,"Velocity":50,"Duration":61813,"SoundDuration":61813,"Delta":26867517},{"NoteNumber":86,"Velocity":53,"Duration":253164,"SoundDuration":253164,"Delta":26949935},{"NoteNumber":89,"Velocity":62,"Duration":253164,"SoundDuration":253164,"Delta":26949935},{"NoteNumber":82,"Velocity":46,"Duration":126582,"SoundDuration":126582,"Delta":27203099},{"NoteNumber":86,"Velocity":55,"Duration":126582,"SoundDuration":126582,"Delta":27203099},{"NoteNumber":69,"Velocity":38,"Duration":189075,"SoundDuration":189075,"Delta":27456264},{"NoteNumber":72,"Velocity":45,"Duration":189075,"SoundDuration":189075,"Delta":27456264},{"NoteNumber":54,"Velocity":36,"Duration":524657,"SoundDuration":524657,"Delta":27456264},{"NoteNumber":42,"Velocity":30,"Duration":524657,"SoundDuration":524657,"Delta":27456264},{"NoteNumber":72,"Velocity":37,"Duration":61813,"SoundDuration":61813,"Delta":27645340},{"NoteNumber":75,"Velocity":45,"Duration":61813,"SoundDuration":61813,"Delta":27645340},{"NoteNumber":72,"Velocity":47,"Duration":506329,"SoundDuration":506329,"Delta":27727757},{"NoteNumber":75,"Velocity":55,"Duration":506329,"SoundDuration":506329,"Delta":27727757},{"NoteNumber":54,"Velocity":28,"Duration":253164,"SoundDuration":253164,"Delta":27980922},{"NoteNumber":60,"Velocity":28,"Duration":253164,"SoundDuration":253164,"Delta":27980922},{"NoteNumber":63,"Velocity":34,"Duration":253164,"SoundDuration":253164,"Delta":27980922},{"NoteNumber":70,"Velocity":40,"Duration":253164,"SoundDuration":253164,"Delta":28234086},{"NoteNumber":74,"Velocity":48,"Duration":253164,"SoundDuration":253164,"Delta":28234086},{"NoteNumber":55,"Velocity":28,"Duration":253164,"SoundDuration":253164,"Delta":28234086},{"NoteNumber":58,"Velocity":28,"Duration":253164,"SoundDuration":253164,"Delta":28234086},{"NoteNumber":62,"Velocity":34,"Duration":253164,"SoundDuration":253164,"Delta":28234086},{"NoteNumber":69,"Velocity":39,"Duration":262008,"SoundDuration":262008,"Delta":28487251},{"NoteNumber":72,"Velocity":46,"Duration":262008,"SoundDuration":262008,"Delta":28487251},{"NoteNumber":57,"Velocity":28,"Duration":262008,"SoundDuration":262008,"Delta":28487251},{"NoteNumber":60,"Velocity":34,"Duration":262008,"SoundDuration":262008,"Delta":28487251},{"NoteNumber":67,"Velocity":38,"Duration":262008,"SoundDuration":262008,"Delta":28749259},{"NoteNumber":70,"Velocity":45,"Duration":262008,"SoundDuration":262008,"Delta":28749259},{"NoteNumber":46,"Velocity":28,"Duration":262008,"SoundDuration":262008,"Delta":28749259},{"NoteNumber":55,"Velocity":28,"Duration":262008,"SoundDuration":262008,"Delta":28749259},{"NoteNumber":58,"Velocity":33,"Duration":262008,"SoundDuration":262008,"Delta":28749259},{"NoteNumber":65,"Velocity":36,"Duration":542382,"SoundDuration":542382,"Delta":29011268},{"NoteNumber":69,"Velocity":43,"Duration":542382,"SoundDuration":542382,"Delta":29011268},{"NoteNumber":53,"Velocity":28,"Duration":542382,"SoundDuration":542382,"Delta":29011268},{"NoteNumber":47,"Velocity":28,"Duration":262008,"SoundDuration":262008,"Delta":29011268},{"NoteNumber":57,"Velocity":33,"Duration":542382,"SoundDuration":542382,"Delta":29011268},{"NoteNumber":48,"Velocity":28,"Duration":560748,"SoundDuration":560748,"Delta":29273276},{"NoteNumber":64,"Velocity":33,"Duration":280374,"SoundDuration":280374,"Delta":29553650},{"NoteNumber":67,"Velocity":39,"Duration":280374,"SoundDuration":280374,"Delta":29553650},{"NoteNumber":52,"Velocity":27,"Duration":280374,"SoundDuration":280374,"Delta":29553650},{"NoteNumber":55,"Velocity":33,"Duration":280374,"SoundDuration":280374,"Delta":29553650},{"NoteNumber":63,"Velocity":32,"Duration":589652,"SoundDuration":589652,"Delta":29834024},{"NoteNumber":67,"Velocity":32,"Duration":898930,"SoundDuration":898930,"Delta":29834024},{"NoteNumber":72,"Velocity":38,"Duration":589652,"SoundDuration":589652,"Delta":29834024},{"NoteNumber":51,"Velocity":27,"Duration":280373,"SoundDuration":280373,"Delta":29834024},{"NoteNumber":55,"Velocity":33,"Duration":280373,"SoundDuration":280373,"Delta":29834024},{"NoteNumber":60,"Velocity":32,"Duration":589652,"SoundDuration":589652,"Delta":29834024},{"NoteNumber":55,"Velocity":32,"Duration":618556,"SoundDuration":618556,"Delta":30114398},{"NoteNumber":62,"Velocity":32,"Duration":309278,"SoundDuration":309278,"Delta":30423677},{"NoteNumber":71,"Velocity":38,"Duration":309278,"SoundDuration":309278,"Delta":30423677},{"NoteNumber":59,"Velocity":30,"Duration":309278,"SoundDuration":309278,"Delta":30423677},{"NoteNumber":71,"Velocity":40,"Duration":189075,"SoundDuration":189075,"Delta":31660791},{"NoteNumber":74,"Velocity":40,"Duration":74175,"SoundDuration":74175,"Delta":31849866},{"NoteNumber":74,"Velocity":49,"Duration":253164,"SoundDuration":253164,"Delta":31932284},{"NoteNumber":71,"Velocity":44,"Duration":133333,"SoundDuration":133333,"Delta":32185449},{"NoteNumber":74,"Velocity":33,"Duration":655662,"SoundDuration":655662,"Delta":32452115},{"NoteNumber":83,"Velocity":40,"Duration":189075,"SoundDuration":189075,"Delta":32452115},{"NoteNumber":55,"Velocity":32,"Duration":189075,"SoundDuration":189075,"Delta":32452115},{"NoteNumber":67,"Velocity":27,"Duration":655662,"SoundDuration":655662,"Delta":32452115},{"NoteNumber":86,"Velocity":40,"Duration":74175,"SoundDuration":74175,"Delta":32641191},{"NoteNumber":59,"Velocity":32,"Duration":74175,"SoundDuration":74175,"Delta":32641191},{"NoteNumber":86,"Velocity":49,"Duration":253164,"SoundDuration":253164,"Delta":32723608},{"NoteNumber":59,"Velocity":40,"Duration":253164,"SoundDuration":253164,"Delta":32723608},{"NoteNumber":83,"Velocity":44,"Duration":131004,"SoundDuration":131004,"Delta":32976773},{"NoteNumber":55,"Velocity":35,"Duration":131004,"SoundDuration":131004,"Delta":32976773},{"NoteNumber":72,"Velocity":46,"Duration":189075,"SoundDuration":189075,"Delta":33238781},{"NoteNumber":60,"Velocity":36,"Duration":189075,"SoundDuration":189075,"Delta":33238781},{"NoteNumber":75,"Velocity":46,"Duration":74175,"SoundDuration":74175,"Delta":33427857},{"NoteNumber":63,"Velocity":36,"Duration":74175,"SoundDuration":74175,"Delta":33427857},{"NoteNumber":75,"Velocity":56,"Duration":253164,"SoundDuration":253164,"Delta":33510275},{"NoteNumber":63,"Velocity":46,"Duration":253164,"SoundDuration":253164,"Delta":33510275},{"NoteNumber":72,"Velocity":50,"Duration":131004,"SoundDuration":131004,"Delta":33763439},{"NoteNumber":60,"Velocity":40,"Duration":131004,"SoundDuration":131004,"Delta":33763439},{"NoteNumber":74,"Velocity":43,"Duration":189075,"SoundDuration":189075,"Delta":34025448},{"NoteNumber":83,"Velocity":50,"Duration":189075,"SoundDuration":189075,"Delta":34025448},{"NoteNumber":67,"Velocity":40,"Duration":784398,"SoundDuration":784398,"Delta":34025448},{"NoteNumber":55,"Velocity":34,"Duration":784398,"SoundDuration":784398,"Delta":34025448},{"NoteNumber":77,"Velocity":42,"Duration":61813,"SoundDuration":61813,"Delta":34214524},{"NoteNumber":86,"Velocity":50,"Duration":61813,"SoundDuration":61813,"Delta":34214524},{"NoteNumber":77,"Velocity":54,"Duration":253164,"SoundDuration":253164,"Delta":34296941},{"NoteNumber":86,"Velocity":63,"Duration":253164,"SoundDuration":253164,"Delta":34296941},{"NoteNumber":74,"Velocity":48,"Duration":129870,"SoundDuration":129870,"Delta":34550106},{"NoteNumber":83,"Velocity":57,"Duration":129870,"SoundDuration":129870,"Delta":34550106},{"NoteNumber":74,"Velocity":52,"Duration":189075,"SoundDuration":189075,"Delta":34809846},{"NoteNumber":83,"Velocity":60,"Duration":189075,"SoundDuration":189075,"Delta":34809846},{"NoteNumber":60,"Velocity":49,"Duration":783278,"SoundDuration":783278,"Delta":34809846},{"NoteNumber":48,"Velocity":41,"Duration":783278,"SoundDuration":783278,"Delta":34809846},{"NoteNumber":79,"Velocity":52,"Duration":61813,"SoundDuration":61813,"Delta":34998922},{"NoteNumber":87,"Velocity":62,"Duration":61813,"SoundDuration":61813,"Delta":34998922},{"NoteNumber":79,"Velocity":66,"Duration":253164,"SoundDuration":253164,"Delta":35081340},{"NoteNumber":87,"Velocity":78,"Duration":253164,"SoundDuration":253164,"Delta":35081340},{"NoteNumber":75,"Velocity":58,"Duration":129310,"SoundDuration":129310,"Delta":35334504},{"NoteNumber":84,"Velocity":70,"Duration":129310,"SoundDuration":129310,"Delta":35334504},{"NoteNumber":81,"Velocity":64,"Duration":189075,"SoundDuration":189075,"Delta":35593125},{"NoteNumber":84,"Velocity":77,"Duration":189075,"SoundDuration":189075,"Delta":35593125},{"NoteNumber":41,"Velocity":59,"Duration":816052,"SoundDuration":816052,"Delta":35593125},{"NoteNumber":53,"Velocity":74,"Duration":816052,"SoundDuration":816052,"Delta":35593125},{"NoteNumber":84,"Velocity":69,"Duration":73369,"SoundDuration":73369,"Delta":35782200},{"NoteNumber":93,"Velocity":79,"Duration":73369,"SoundDuration":73369,"Delta":35782200},{"NoteNumber":84,"Velocity":83,"Duration":259740,"SoundDuration":259740,"Delta":35863722},{"NoteNumber":93,"Velocity":98,"Duration":259740,"SoundDuration":259740,"Delta":35863722},{"NoteNumber":81,"Velocity":74,"Duration":71428,"SoundDuration":71428,"Delta":36123463},{"NoteNumber":89,"Velocity":89,"Duration":71428,"SoundDuration":71428,"Delta":36123463},{"NoteNumber":82,"Velocity":94,"Duration":76142,"SoundDuration":76142,"Delta":36409177},{"NoteNumber":94,"Velocity":112,"Duration":76142,"SoundDuration":76142,"Delta":36409177},{"NoteNumber":34,"Velocity":69,"Duration":76142,"SoundDuration":76142,"Delta":36409177},{"NoteNumber":46,"Velocity":74,"Duration":76142,"SoundDuration":76142,"Delta":36409177},{"NoteNumber":82,"Velocity":94,"Duration":160427,"SoundDuration":160427,"Delta":36713746},{"NoteNumber":94,"Velocity":112,"Duration":160427,"SoundDuration":160427,"Delta":36713746},{"NoteNumber":34,"Velocity":69,"Duration":160427,"SoundDuration":160427,"Delta":36713746},{"NoteNumber":46,"Velocity":74,"Duration":160427,"SoundDuration":160427,"Delta":36713746},{"NoteNumber":73,"Velocity":52,"Duration":538116,"SoundDuration":538116,"Delta":37355457},{"NoteNumber":85,"Velocity":62,"Duration":538116,"SoundDuration":538116,"Delta":37355457},{"NoteNumber":34,"Velocity":31,"Duration":134529,"SoundDuration":134529,"Delta":37355457},{"NoteNumber":46,"Velocity":37,"Duration":134529,"SoundDuration":134529,"Delta":37355457},{"NoteNumber":34,"Velocity":31,"Duration":134529,"SoundDuration":134529,"Delta":37624515},{"NoteNumber":46,"Velocity":37,"Duration":134529,"SoundDuration":134529,"Delta":37624515},{"NoteNumber":89,"Velocity":58,"Duration":269058,"SoundDuration":269058,"Delta":37893574},{"NoteNumber":77,"Velocity":58,"Duration":269058,"SoundDuration":269058,"Delta":37893574},{"NoteNumber":73,"Velocity":52,"Duration":533255,"SoundDuration":533255,"Delta":38162632},{"NoteNumber":85,"Velocity":62,"Duration":533255,"SoundDuration":533255,"Delta":38162632},{"NoteNumber":34,"Velocity":37,"Duration":89686,"SoundDuration":89686,"Delta":38162632},{"NoteNumber":41,"Velocity":30,"Duration":89345,"SoundDuration":89345,"Delta":38252318},{"NoteNumber":49,"Velocity":30,"Duration":89027,"SoundDuration":89027,"Delta":38341664},{"NoteNumber":34,"Velocity":37,"Duration":88711,"SoundDuration":88711,"Delta":38430692},{"NoteNumber":41,"Velocity":31,"Duration":88398,"SoundDuration":88398,"Delta":38519403},{"NoteNumber":49,"Velocity":31,"Duration":88086,"SoundDuration":88086,"Delta":38607802},{"NoteNumber":70,"Velocity":52,"Duration":262202,"SoundDuration":262202,"Delta":38695888},{"NoteNumber":82,"Velocity":62,"Duration":262202,"SoundDuration":262202,"Delta":38695888},{"NoteNumber":34,"Velocity":37,"Duration":87719,"SoundDuration":87719,"Delta":38695888},{"NoteNumber":41,"Velocity":31,"Duration":87393,"SoundDuration":87393,"Delta":38783607},{"NoteNumber":49,"Velocity":30,"Duration":87089,"SoundDuration":87089,"Delta":38871001},{"NoteNumber":65,"Velocity":48,"Duration":260869,"SoundDuration":260869,"Delta":38958090},{"NoteNumber":77,"Velocity":57,"Duration":260869,"SoundDuration":260869,"Delta":38958090},{"NoteNumber":34,"Velocity":37,"Duration":86956,"SoundDuration":86956,"Delta":38958090},{"NoteNumber":41,"Velocity":31,"Duration":86956,"SoundDuration":86956,"Delta":39045047},{"NoteNumber":49,"Velocity":31,"Duration":86956,"SoundDuration":86956,"Delta":39132003},{"NoteNumber":70,"Velocity":53,"Duration":528290,"SoundDuration":528290,"Delta":39218960},{"NoteNumber":82,"Velocity":63,"Duration":528290,"SoundDuration":528290,"Delta":39218960},{"NoteNumber":34,"Velocity":37,"Duration":86956,"SoundDuration":86956,"Delta":39218960},{"NoteNumber":41,"Velocity":31,"Duration":86956,"SoundDuration":86956,"Delta":39305916},{"NoteNumber":49,"Velocity":31,"Duration":86956,"SoundDuration":86956,"Delta":39392873},{"NoteNumber":34,"Velocity":38,"Duration":86956,"SoundDuration":86956,"Delta":39479829},{"NoteNumber":41,"Velocity":32,"Duration":89140,"SoundDuration":89140,"Delta":39566786},{"NoteNumber":49,"Velocity":31,"Duration":91324,"SoundDuration":91324,"Delta":39655926},{"NoteNumber":85,"Velocity":66,"Duration":260869,"SoundDuration":260869,"Delta":39747250},{"NoteNumber":73,"Velocity":55,"Duration":260869,"SoundDuration":260869,"Delta":39747250},{"NoteNumber":34,"Velocity":39,"Duration":86956,"SoundDuration":86956,"Delta":39747250},{"NoteNumber":41,"Velocity":33,"Duration":86956,"SoundDuration":86956,"Delta":39834207},{"NoteNumber":49,"Velocity":34,"Duration":86956,"SoundDuration":86956,"Delta":39921163},{"NoteNumber":77,"Velocity":58,"Duration":528290,"SoundDuration":528290,"Delta":40008120},{"NoteNumber":89,"Velocity":69,"Duration":528290,"SoundDuration":528290,"Delta":40008120},{"NoteNumber":34,"Velocity":41,"Duration":86956,"SoundDuration":86956,"Delta":40008120},{"NoteNumber":41,"Velocity":35,"Duration":86956,"SoundDuration":86956,"Delta":40095076},{"NoteNumber":49,"Velocity":35,"Duration":86956,"SoundDuration":86956,"Delta":40182033},{"NoteNumber":34,"Velocity":42,"Duration":86956,"SoundDuration":86956,"Delta":40268989},{"NoteNumber":41,"Velocity":36,"Duration":89140,"SoundDuration":89140,"Delta":40355946},{"NoteNumber":49,"Velocity":35,"Duration":91324,"SoundDuration":91324,"Delta":40445086},{"NoteNumber":85,"Velocity":79,"Duration":260869,"SoundDuration":260869,"Delta":40536410},{"NoteNumber":73,"Velocity":67,"Duration":260869,"SoundDuration":260869,"Delta":40536410},{"NoteNumber":34,"Velocity":44,"Duration":86956,"SoundDuration":86956,"Delta":40536410},{"NoteNumber":41,"Velocity":37,"Duration":86956,"SoundDuration":86956,"Delta":40623367},{"NoteNumber":49,"Velocity":38,"Duration":86956,"SoundDuration":86956,"Delta":40710323},{"NoteNumber":82,"Velocity":81,"Duration":525833,"SoundDuration":525833,"Delta":40797280},{"NoteNumber":70,"Velocity":68,"Duration":525833,"SoundDuration":525833,"Delta":40797280},{"NoteNumber":34,"Velocity":49,"Duration":86956,"SoundDuration":86956,"Delta":40797280},{"NoteNumber":41,"Velocity":42,"Duration":86956,"SoundDuration":86956,"Delta":40884236},{"NoteNumber":49,"Velocity":42,"Duration":86956,"SoundDuration":86956,"Delta":40971193},{"NoteNumber":34,"Velocity":54,"Duration":86956,"SoundDuration":86956,"Delta":41058149},{"NoteNumber":41,"Velocity":49,"Duration":88321,"SoundDuration":88321,"Delta":41145106},{"NoteNumber":49,"Velocity":49,"Duration":89686,"SoundDuration":89686,"Delta":41233427},{"NoteNumber":77,"Velocity":82,"Duration":262008,"SoundDuration":262008,"Delta":41323113},{"NoteNumber":65,"Velocity":68,"Duration":262008,"SoundDuration":262008,"Delta":41323113},{"NoteNumber":34,"Velocity":61,"Duration":87336,"SoundDuration":87336,"Delta":41323113},{"NoteNumber":41,"Velocity":56,"Duration":87336,"SoundDuration":87336,"Delta":41410449},{"NoteNumber":49,"Velocity":58,"Duration":87336,"SoundDuration":87336,"Delta":41497786},{"NoteNumber":70,"Velocity":72,"Duration":531261,"SoundDuration":531261,"Delta":41585122},{"NoteNumber":82,"Velocity":86,"Duration":531261,"SoundDuration":531261,"Delta":41585122},{"NoteNumber":34,"Velocity":69,"Duration":87336,"SoundDuration":87336,"Delta":41585122},{"NoteNumber":41,"Velocity":57,"Duration":87336,"SoundDuration":87336,"Delta":41672458},{"NoteNumber":49,"Velocity":52,"Duration":87336,"SoundDuration":87336,"Delta":41759794},{"NoteNumber":34,"Velocity":61,"Duration":87336,"SoundDuration":87336,"Delta":41847130},{"NoteNumber":41,"Velocity":51,"Duration":89750,"SoundDuration":89750,"Delta":41934466},{"NoteNumber":49,"Velocity":51,"Duration":92165,"SoundDuration":92165,"Delta":42024217},{"NoteNumber":85,"Velocity":78,"Duration":262008,"SoundDuration":262008,"Delta":42116383},{"NoteNumber":73,"Velocity":66,"Duration":262008,"SoundDuration":262008,"Delta":42116383},{"NoteNumber":32,"Velocity":60,"Duration":87336,"SoundDuration":87336,"Delta":42116383},{"NoteNumber":41,"Velocity":50,"Duration":87336,"SoundDuration":87336,"Delta":42203719},{"NoteNumber":49,"Velocity":46,"Duration":87336,"SoundDuration":87336,"Delta":42291056},{"NoteNumber":77,"Velocity":60,"Duration":535980,"SoundDuration":535980,"Delta":42378392},{"NoteNumber":89,"Velocity":72,"Duration":535980,"SoundDuration":535980,"Delta":42378392},{"NoteNumber":32,"Velocity":44,"Duration":87336,"SoundDuration":87336,"Delta":42378392},{"NoteNumber":41,"Velocity":36,"Duration":87336,"SoundDuration":87336,"Delta":42465728},{"NoteNumber":49,"Velocity":35,"Duration":87336,"SoundDuration":87336,"Delta":42553064},{"NoteNumber":32,"Velocity":41,"Duration":91324,"SoundDuration":91324,"Delta":42640400},{"NoteNumber":41,"Velocity":34,"Duration":91324,"SoundDuration":91324,"Delta":42731724},{"NoteNumber":49,"Velocity":32,"Duration":91324,"SoundDuration":91324,"Delta":42823049},{"NoteNumber":92,"Velocity":51,"Duration":284359,"SoundDuration":284359,"Delta":42914373},{"NoteNumber":80,"Velocity":42,"Duration":284359,"SoundDuration":284359,"Delta":42914373},{"NoteNumber":37,"Velocity":39,"Duration":94786,"SoundDuration":94786,"Delta":42914373},{"NoteNumber":41,"Velocity":32,"Duration":94786,"SoundDuration":94786,"Delta":43009159},{"NoteNumber":49,"Velocity":31,"Duration":94786,"SoundDuration":94786,"Delta":43103946},{"NoteNumber":85,"Velocity":48,"Duration":284359,"SoundDuration":284359,"Delta":43198733},{"NoteNumber":73,"Velocity":40,"Duration":284359,"SoundDuration":284359,"Delta":43198733},{"NoteNumber":37,"Velocity":37,"Duration":94786,"SoundDuration":94786,"Delta":43198733},{"NoteNumber":41,"Velocity":26,"Duration":94786,"SoundDuration":94786,"Delta":43293519},{"NoteNumber":49,"Velocity":26,"Duration":94786,"SoundDuration":94786,"Delta":43388306},{"NoteNumber":37,"Velocity":30,"Duration":94786,"SoundDuration":94786,"Delta":43483093},{"NoteNumber":41,"Velocity":25,"Duration":94786,"SoundDuration":94786,"Delta":43577879},{"NoteNumber":49,"Velocity":25,"Duration":94786,"SoundDuration":94786,"Delta":43672666},{"NoteNumber":70,"Velocity":34,"Duration":67264,"SoundDuration":67264,"Delta":43767453},{"NoteNumber":82,"Velocity":40,"Duration":67264,"SoundDuration":67264,"Delta":43767453},{"NoteNumber":37,"Velocity":40,"Duration":538116,"SoundDuration":538116,"Delta":43767453},{"NoteNumber":49,"Velocity":48,"Duration":538116,"SoundDuration":538116,"Delta":43767453},{"NoteNumber":70,"Velocity":34,"Duration":67264,"SoundDuration":67264,"Delta":44036511},{"NoteNumber":82,"Velocity":40,"Duration":67264,"SoundDuration":67264,"Delta":44036511},{"NoteNumber":53,"Velocity":50,"Duration":269058,"SoundDuration":269058,"Delta":44305570},{"NoteNumber":41,"Velocity":50,"Duration":269058,"SoundDuration":269058,"Delta":44305570},{"NoteNumber":73,"Velocity":37,"Duration":89686,"SoundDuration":89686,"Delta":44574628},{"NoteNumber":37,"Velocity":44,"Duration":533255,"SoundDuration":533255,"Delta":44574628},{"NoteNumber":49,"Velocity":52,"Duration":533255,"SoundDuration":533255,"Delta":44574628},{"NoteNumber":70,"Velocity":30,"Duration":89345,"SoundDuration":89345,"Delta":44664314},{"NoteNumber":65,"Velocity":30,"Duration":89027,"SoundDuration":89027,"Delta":44753660},{"NoteNumber":73,"Velocity":37,"Duration":88711,"SoundDuration":88711,"Delta":44842688},{"NoteNumber":70,"Velocity":31,"Duration":88398,"SoundDuration":88398,"Delta":44931400},{"NoteNumber":65,"Velocity":31,"Duration":88086,"SoundDuration":88086,"Delta":45019798},{"NoteNumber":77,"Velocity":37,"Duration":87719,"SoundDuration":87719,"Delta":45107884},{"NoteNumber":34,"Velocity":44,"Duration":262202,"SoundDuration":262202,"Delta":45107884},{"NoteNumber":46,"Velocity":52,"Duration":262202,"SoundDuration":262202,"Delta":45107884},{"NoteNumber":73,"Velocity":31,"Duration":87393,"SoundDuration":87393,"Delta":45195603},{"NoteNumber":70,"Velocity":30,"Duration":87089,"SoundDuration":87089,"Delta":45282997},{"NoteNumber":73,"Velocity":37,"Duration":86956,"SoundDuration":86956,"Delta":45370086},{"NoteNumber":29,"Velocity":40,"Duration":260869,"SoundDuration":260869,"Delta":45370086},{"NoteNumber":41,"Velocity":49,"Duration":260869,"SoundDuration":260869,"Delta":45370086},{"NoteNumber":70,"Velocity":31,"Duration":86956,"SoundDuration":86956,"Delta":45457043},{"NoteNumber":65,"Velocity":31,"Duration":86956,"SoundDuration":86956,"Delta":45543999},{"NoteNumber":73,"Velocity":37,"Duration":86956,"SoundDuration":86956,"Delta":45630956},{"NoteNumber":34,"Velocity":46,"Duration":528290,"SoundDuration":528290,"Delta":45630956},{"NoteNumber":46,"Velocity":53,"Duration":528290,"SoundDuration":528290,"Delta":45630956},{"NoteNumber":70,"Velocity":31,"Duration":86956,"SoundDuration":86956,"Delta":45717912},{"NoteNumber":65,"Velocity":31,"Duration":86956,"SoundDuration":86956,"Delta":45804869},{"NoteNumber":70,"Velocity":39,"Duration":86956,"SoundDuration":86956,"Delta":45891825},{"NoteNumber":65,"Velocity":32,"Duration":89140,"SoundDuration":89140,"Delta":45978782},{"NoteNumber":61,"Velocity":32,"Duration":91324,"SoundDuration":91324,"Delta":46067922},{"NoteNumber":65,"Velocity":40,"Duration":86956,"SoundDuration":86956,"Delta":46159246},{"NoteNumber":49,"Velocity":61,"Duration":260869,"SoundDuration":260869,"Delta":46159246},{"NoteNumber":37,"Velocity":51,"Duration":260869,"SoundDuration":260869,"Delta":46159246},{"NoteNumber":61,"Velocity":34,"Duration":86956,"SoundDuration":86956,"Delta":46246203},{"NoteNumber":58,"Velocity":36,"Duration":86956,"SoundDuration":86956,"Delta":46333159},{"NoteNumber":61,"Velocity":49,"Duration":86956,"SoundDuration":86956,"Delta":46420116},{"NoteNumber":70,"Velocity":49,"Duration":86956,"SoundDuration":86956,"Delta":46420116},{"NoteNumber":41,"Velocity":51,"Duration":528290,"SoundDuration":528290,"Delta":46420116},{"NoteNumber":53,"Velocity":61,"Duration":528290,"SoundDuration":528290,"Delta":46420116},{"NoteNumber":58,"Velocity":42,"Duration":86956,"SoundDuration":86956,"Delta":46507072},{"NoteNumber":61,"Velocity":42,"Duration":86956,"SoundDuration":86956,"Delta":46594029},{"NoteNumber":70,"Velocity":50,"Duration":86956,"SoundDuration":86956,"Delta":46680985},{"NoteNumber":61,"Velocity":43,"Duration":89140,"SoundDuration":89140,"Delta":46767942},{"NoteNumber":58,"Velocity":43,"Duration":91324,"SoundDuration":91324,"Delta":46857082},{"NoteNumber":65,"Velocity":54,"Duration":86956,"SoundDuration":86956,"Delta":46948406},{"NoteNumber":73,"Velocity":54,"Duration":86956,"SoundDuration":86956,"Delta":46948406},{"NoteNumber":49,"Velocity":70,"Duration":260869,"SoundDuration":260869,"Delta":46948406},{"NoteNumber":37,"Velocity":59,"Duration":260869,"SoundDuration":260869,"Delta":46948406},{"NoteNumber":61,"Velocity":46,"Duration":86956,"SoundDuration":86956,"Delta":47035363},{"NoteNumber":65,"Velocity":51,"Duration":86956,"SoundDuration":86956,"Delta":47122319},{"NoteNumber":77,"Velocity":63,"Duration":86956,"SoundDuration":86956,"Delta":47209276},{"NoteNumber":46,"Velocity":79,"Duration":525833,"SoundDuration":525833,"Delta":47209276},{"NoteNumber":34,"Velocity":67,"Duration":525833,"SoundDuration":525833,"Delta":47209276},{"NoteNumber":73,"Velocity":55,"Duration":86956,"SoundDuration":86956,"Delta":47296232},{"NoteNumber":70,"Velocity":59,"Duration":86956,"SoundDuration":86956,"Delta":47383189},{"NoteNumber":77,"Velocity":71,"Duration":86956,"SoundDuration":86956,"Delta":47470145},{"NoteNumber":73,"Velocity":60,"Duration":88321,"SoundDuration":88321,"Delta":47557102},{"NoteNumber":70,"Velocity":64,"Duration":89686,"SoundDuration":89686,"Delta":47645423},{"NoteNumber":73,"Velocity":77,"Duration":87336,"SoundDuration":87336,"Delta":47735109},{"NoteNumber":41,"Velocity":73,"Duration":262008,"SoundDuration":262008,"Delta":47735109},{"NoteNumber":29,"Velocity":61,"Duration":262008,"SoundDuration":262008,"Delta":47735109},{"NoteNumber":70,"Velocity":67,"Duration":87336,"SoundDuration":87336,"Delta":47822446},{"NoteNumber":65,"Velocity":61,"Duration":87336,"SoundDuration":87336,"Delta":47909782},{"NoteNumber":70,"Velocity":83,"Duration":87336,"SoundDuration":87336,"Delta":47997118},{"NoteNumber":34,"Velocity":64,"Duration":531261,"SoundDuration":531261,"Delta":47997118},{"NoteNumber":46,"Velocity":77,"Duration":531261,"SoundDuration":531261,"Delta":47997118},{"NoteNumber":65,"Velocity":68,"Duration":87336,"SoundDuration":87336,"Delta":48084454},{"NoteNumber":61,"Velocity":58,"Duration":87336,"SoundDuration":87336,"Delta":48171790},{"NoteNumber":70,"Velocity":64,"Duration":87336,"SoundDuration":87336,"Delta":48259126},{"NoteNumber":65,"Velocity":54,"Duration":89750,"SoundDuration":89750,"Delta":48346463},{"NoteNumber":61,"Velocity":46,"Duration":92165,"SoundDuration":92165,"Delta":48436214},{"NoteNumber":65,"Velocity":60,"Duration":87336,"SoundDuration":87336,"Delta":48528379},{"NoteNumber":49,"Velocity":69,"Duration":262008,"SoundDuration":262008,"Delta":48528379},{"NoteNumber":37,"Velocity":58,"Duration":262008,"SoundDuration":262008,"Delta":48528379},{"NoteNumber":61,"Velocity":45,"Duration":87336,"SoundDuration":87336,"Delta":48615716},{"NoteNumber":58,"Velocity":44,"Duration":87336,"SoundDuration":87336,"Delta":48703052},{"NoteNumber":61,"Velocity":31,"Duration":87336,"SoundDuration":87336,"Delta":48790388},{"NoteNumber":68,"Velocity":44,"Duration":87336,"SoundDuration":87336,"Delta":48790388},{"NoteNumber":41,"Velocity":54,"Duration":535980,"SoundDuration":535980,"Delta":48790388},{"NoteNumber":53,"Velocity":64,"Duration":535980,"SoundDuration":535980,"Delta":48790388},{"NoteNumber":56,"Velocity":36,"Duration":87336,"SoundDuration":87336,"Delta":48877724},{"NoteNumber":61,"Velocity":35,"Duration":87336,"SoundDuration":87336,"Delta":48965060},{"NoteNumber":68,"Velocity":41,"Duration":91324,"SoundDuration":91324,"Delta":49052396},{"NoteNumber":65,"Velocity":34,"Duration":91324,"SoundDuration":91324,"Delta":49143721},{"NoteNumber":61,"Velocity":32,"Duration":91324,"SoundDuration":91324,"Delta":49235045},{"NoteNumber":65,"Velocity":27,"Duration":94786,"SoundDuration":94786,"Delta":49326369},{"NoteNumber":73,"Velocity":39,"Duration":94786,"SoundDuration":94786,"Delta":49326369},{"NoteNumber":56,"Velocity":45,"Duration":284359,"SoundDuration":284359,"Delta":49326369},{"NoteNumber":44,"Velocity":37,"Duration":284359,"SoundDuration":284359,"Delta":49326369},{"NoteNumber":61,"Velocity":32,"Duration":94786,"SoundDuration":94786,"Delta":49421156},{"NoteNumber":65,"Velocity":31,"Duration":94786,"SoundDuration":94786,"Delta":49515942},{"NoteNumber":77,"Velocity":37,"Duration":94786,"SoundDuration":94786,"Delta":49610729},{"NoteNumber":49,"Velocity":43,"Duration":284359,"SoundDuration":284359,"Delta":49610729},{"NoteNumber":37,"Velocity":36,"Duration":284359,"SoundDuration":284359,"Delta":49610729},{"NoteNumber":73,"Velocity":26,"Duration":94786,"SoundDuration":94786,"Delta":49705516},{"NoteNumber":68,"Velocity":26,"Duration":94786,"SoundDuration":94786,"Delta":49800302},{"NoteNumber":77,"Velocity":30,"Duration":94786,"SoundDuration":94786,"Delta":49895089},{"NoteNumber":73,"Velocity":25,"Duration":94786,"SoundDuration":94786,"Delta":49989876},{"NoteNumber":68,"Velocity":25,"Duration":94786,"SoundDuration":94786,"Delta":50084662},{"NoteNumber":80,"Velocity":30,"Duration":103092,"SoundDuration":103092,"Delta":50179449},{"NoteNumber":37,"Velocity":37,"Duration":154639,"SoundDuration":154639,"Delta":50179449},{"NoteNumber":49,"Velocity":37,"Duration":154639,"SoundDuration":154639,"Delta":50179449},{"NoteNumber":77,"Velocity":25,"Duration":103092,"SoundDuration":103092,"Delta":50282542},{"NoteNumber":73,"Velocity":25,"Duration":100515,"SoundDuration":100515,"Delta":50385635},{"NoteNumber":65,"Velocity":33,"Duration":309278,"SoundDuration":309278,"Delta":50488727},{"NoteNumber":73,"Velocity":40,"Duration":309278,"SoundDuration":309278,"Delta":50488727},{"NoteNumber":37,"Velocity":34,"Duration":154639,"SoundDuration":154639,"Delta":50488727},{"NoteNumber":49,"Velocity":34,"Duration":154639,"SoundDuration":154639,"Delta":50488727},{"NoteNumber":37,"Velocity":37,"Duration":103092,"SoundDuration":103092,"Delta":50798006},{"NoteNumber":41,"Velocity":31,"Duration":103092,"SoundDuration":103092,"Delta":50901099},{"NoteNumber":49,"Velocity":30,"Duration":102108,"SoundDuration":102108,"Delta":51004192},{"NoteNumber":77,"Velocity":48,"Duration":547112,"SoundDuration":547112,"Delta":51106300},{"NoteNumber":89,"Velocity":57,"Duration":547112,"SoundDuration":547112,"Delta":51106300},{"NoteNumber":37,"Velocity":37,"Duration":93822,"SoundDuration":93822,"Delta":51106300},{"NoteNumber":41,"Velocity":30,"Duration":92262,"SoundDuration":92262,"Delta":51200122},{"NoteNumber":49,"Velocity":30,"Duration":90757,"SoundDuration":90757,"Delta":51292385},{"NoteNumber":37,"Velocity":37,"Duration":90090,"SoundDuration":90090,"Delta":51383142},{"NoteNumber":41,"Velocity":31,"Duration":90090,"SoundDuration":90090,"Delta":51473232},{"NoteNumber":49,"Velocity":31,"Duration":90090,"SoundDuration":90090,"Delta":51563322},{"NoteNumber":92,"Velocity":53,"Duration":270154,"SoundDuration":270154,"Delta":51653412},{"NoteNumber":80,"Velocity":53,"Duration":270154,"SoundDuration":270154,"Delta":51653412},{"NoteNumber":37,"Velocity":37,"Duration":90090,"SoundDuration":90090,"Delta":51653412},{"NoteNumber":41,"Velocity":31,"Duration":90090,"SoundDuration":90090,"Delta":51743503},{"NoteNumber":49,"Velocity":30,"Duration":89974,"SoundDuration":89974,"Delta":51833593},{"NoteNumber":77,"Velocity":48,"Duration":533255,"SoundDuration":533255,"Delta":51923567},{"NoteNumber":89,"Velocity":57,"Duration":533255,"SoundDuration":533255,"Delta":51923567},{"NoteNumber":37,"Velocity":37,"Duration":89686,"SoundDuration":89686,"Delta":51923567},{"NoteNumber":41,"Velocity":30,"Duration":89345,"SoundDuration":89345,"Delta":52013253},{"NoteNumber":49,"Velocity":30,"Duration":89027,"SoundDuration":89027,"Delta":52102599},{"NoteNumber":37,"Velocity":37,"Duration":88711,"SoundDuration":88711,"Delta":52191626},{"NoteNumber":41,"Velocity":31,"Duration":88398,"SoundDuration":88398,"Delta":52280338},{"NoteNumber":49,"Velocity":31,"Duration":88086,"SoundDuration":88086,"Delta":52368736},{"NoteNumber":73,"Velocity":48,"Duration":262202,"SoundDuration":262202,"Delta":52456823},{"NoteNumber":85,"Velocity":57,"Duration":262202,"SoundDuration":262202,"Delta":52456823},{"NoteNumber":37,"Velocity":37,"Duration":87719,"SoundDuration":87719,"Delta":52456823},{"NoteNumber":41,"Velocity":31,"Duration":87393,"SoundDuration":87393,"Delta":52544542},{"NoteNumber":49,"Velocity":30,"Duration":87089,"SoundDuration":87089,"Delta":52631936},{"NoteNumber":68,"Velocity":44,"Duration":260869,"SoundDuration":260869,"Delta":52719025},{"NoteNumber":80,"Velocity":52,"Duration":260869,"SoundDuration":260869,"Delta":52719025},{"NoteNumber":37,"Velocity":37,"Duration":86956,"SoundDuration":86956,"Delta":52719025},{"NoteNumber":41,"Velocity":31,"Duration":86956,"SoundDuration":86956,"Delta":52805982},{"NoteNumber":49,"Velocity":31,"Duration":86956,"SoundDuration":86956,"Delta":52892938},{"NoteNumber":73,"Velocity":49,"Duration":528290,"SoundDuration":528290,"Delta":52979895},{"NoteNumber":85,"Velocity":58,"Duration":528290,"SoundDuration":528290,"Delta":52979895},{"NoteNumber":37,"Velocity":37,"Duration":86956,"SoundDuration":86956,"Delta":52979895},{"NoteNumber":41,"Velocity":31,"Duration":86956,"SoundDuration":86956,"Delta":53066851},{"NoteNumber":49,"Velocity":31,"Duration":86956,"SoundDuration":86956,"Delta":53153808},{"NoteNumber":37,"Velocity":38,"Duration":86956,"SoundDuration":86956,"Delta":53240764},{"NoteNumber":41,"Velocity":32,"Duration":89140,"SoundDuration":89140,"Delta":53327721},{"NoteNumber":49,"Velocity":31,"Duration":91324,"SoundDuration":91324,"Delta":53416861},{"NoteNumber":89,"Velocity":60,"Duration":260869,"SoundDuration":260869,"Delta":53508185},{"NoteNumber":77,"Velocity":50,"Duration":260869,"SoundDuration":260869,"Delta":53508185},{"NoteNumber":32,"Velocity":39,"Duration":86956,"SoundDuration":86956,"Delta":53508185},{"NoteNumber":41,"Velocity":33,"Duration":86956,"SoundDuration":86956,"Delta":53595142},{"NoteNumber":49,"Velocity":34,"Duration":86956,"SoundDuration":86956,"Delta":53682098},{"NoteNumber":80,"Velocity":53,"Duration":528290,"SoundDuration":528290,"Delta":53769055},{"NoteNumber":92,"Velocity":63,"Duration":528290,"SoundDuration":528290,"Delta":53769055},{"NoteNumber":32,"Velocity":41,"Duration":86956,"SoundDuration":86956,"Delta":53769055},{"NoteNumber":41,"Velocity":35,"Duration":86956,"SoundDuration":86956,"Delta":53856011},{"NoteNumber":49,"Velocity":35,"Duration":86956,"SoundDuration":86956,"Delta":53942968},{"NoteNumber":32,"Velocity":42,"Duration":86956,"SoundDuration":86956,"Delta":54029924},{"NoteNumber":41,"Velocity":36,"Duration":89140,"SoundDuration":89140,"Delta":54116881},{"NoteNumber":49,"Velocity":35,"Duration":91324,"SoundDuration":91324,"Delta":54206021},{"NoteNumber":89,"Velocity":72,"Duration":260869,"SoundDuration":260869,"Delta":54297345},{"NoteNumber":77,"Velocity":61,"Duration":260869,"SoundDuration":260869,"Delta":54297345},{"NoteNumber":32,"Velocity":46,"Duration":86956,"SoundDuration":86956,"Delta":54297345},{"NoteNumber":41,"Velocity":37,"Duration":86956,"SoundDuration":86956,"Delta":54384302},{"NoteNumber":49,"Velocity":40,"Duration":86956,"SoundDuration":86956,"Delta":54471258},{"NoteNumber":85,"Velocity":81,"Duration":525833,"SoundDuration":525833,"Delta":54558215},{"NoteNumber":73,"Velocity":68,"Duration":525833,"SoundDuration":525833,"Delta":54558215},{"NoteNumber":34,"Velocity":51,"Duration":86956,"SoundDuration":86956,"Delta":54558215},{"NoteNumber":41,"Velocity":43,"Duration":86956,"SoundDuration":86956,"Delta":54645171},{"NoteNumber":49,"Velocity":43,"Duration":86956,"SoundDuration":86956,"Delta":54732128},{"NoteNumber":34,"Velocity":55,"Duration":86956,"SoundDuration":86956,"Delta":54819084},{"NoteNumber":41,"Velocity":48,"Duration":88321,"SoundDuration":88321,"Delta":54906041},{"NoteNumber":49,"Velocity":51,"Duration":89686,"SoundDuration":89686,"Delta":54994362},{"NoteNumber":82,"Velocity":82,"Duration":262008,"SoundDuration":262008,"Delta":55084048},{"NoteNumber":70,"Velocity":68,"Duration":262008,"SoundDuration":262008,"Delta":55084048},{"NoteNumber":34,"Velocity":61,"Duration":87336,"SoundDuration":87336,"Delta":55084048},{"NoteNumber":41,"Velocity":53,"Duration":87336,"SoundDuration":87336,"Delta":55171384},{"NoteNumber":49,"Velocity":55,"Duration":87336,"SoundDuration":87336,"Delta":55258720},{"NoteNumber":65,"Velocity":72,"Duration":531261,"SoundDuration":531261,"Delta":55346057},{"NoteNumber":77,"Velocity":86,"Duration":531261,"SoundDuration":531261,"Delta":55346057},{"NoteNumber":34,"Velocity":66,"Duration":87336,"SoundDuration":87336,"Delta":55346057},{"NoteNumber":41,"Velocity":57,"Duration":87336,"SoundDuration":87336,"Delta":55433393},{"NoteNumber":49,"Velocity":52,"Duration":87336,"SoundDuration":87336,"Delta":55520729},{"NoteNumber":34,"Velocity":55,"Duration":87336,"SoundDuration":87336,"Delta":55608065},{"NoteNumber":41,"Velocity":45,"Duration":89750,"SoundDuration":89750,"Delta":55695401},{"NoteNumber":49,"Velocity":42,"Duration":92165,"SoundDuration":92165,"Delta":55785152},{"NoteNumber":82,"Velocity":78,"Duration":262008,"SoundDuration":262008,"Delta":55877318},{"NoteNumber":70,"Velocity":66,"Duration":262008,"SoundDuration":262008,"Delta":55877318},{"NoteNumber":34,"Velocity":50,"Duration":87336,"SoundDuration":87336,"Delta":55877318},{"NoteNumber":41,"Velocity":45,"Duration":87336,"SoundDuration":87336,"Delta":55964654},{"NoteNumber":49,"Velocity":44,"Duration":87336,"SoundDuration":87336,"Delta":56051990},{"NoteNumber":73,"Velocity":60,"Duration":535980,"SoundDuration":535980,"Delta":56139327},{"NoteNumber":85,"Velocity":72,"Duration":535980,"SoundDuration":535980,"Delta":56139327},{"NoteNumber":29,"Velocity":44,"Duration":87336,"SoundDuration":87336,"Delta":56139327},{"NoteNumber":41,"Velocity":36,"Duration":87336,"SoundDuration":87336,"Delta":56226663},{"NoteNumber":49,"Velocity":35,"Duration":87336,"SoundDuration":87336,"Delta":56313999},{"NoteNumber":29,"Velocity":41,"Duration":91324,"SoundDuration":91324,"Delta":56401335},{"NoteNumber":41,"Velocity":27,"Duration":91324,"SoundDuration":91324,"Delta":56492659},{"NoteNumber":49,"Velocity":27,"Duration":91324,"SoundDuration":91324,"Delta":56583983},{"NoteNumber":89,"Velocity":51,"Duration":284359,"SoundDuration":284359,"Delta":56675308},{"NoteNumber":77,"Velocity":42,"Duration":284359,"SoundDuration":284359,"Delta":56675308},{"NoteNumber":29,"Velocity":33,"Duration":94786,"SoundDuration":94786,"Delta":56675308},{"NoteNumber":41,"Velocity":32,"Duration":94786,"SoundDuration":94786,"Delta":56770094},{"NoteNumber":49,"Velocity":28,"Duration":94786,"SoundDuration":94786,"Delta":56864881},{"NoteNumber":82,"Velocity":48,"Duration":284359,"SoundDuration":284359,"Delta":56959668},{"NoteNumber":70,"Velocity":40,"Duration":284359,"SoundDuration":284359,"Delta":56959668},{"NoteNumber":34,"Velocity":37,"Duration":94786,"SoundDuration":94786,"Delta":56959668},{"NoteNumber":41,"Velocity":26,"Duration":94786,"SoundDuration":94786,"Delta":57054454},{"NoteNumber":49,"Velocity":26,"Duration":94786,"SoundDuration":94786,"Delta":57149241},{"NoteNumber":34,"Velocity":30,"Duration":284359,"SoundDuration":284359,"Delta":57244028},{"NoteNumber":61,"Velocity":34,"Duration":67710,"SoundDuration":67710,"Delta":57528388},{"NoteNumber":73,"Velocity":40,"Duration":67710,"SoundDuration":67710,"Delta":57528388},{"NoteNumber":41,"Velocity":39,"Duration":538563,"SoundDuration":538563,"Delta":57528388},{"NoteNumber":53,"Velocity":46,"Duration":538563,"SoundDuration":538563,"Delta":57528388},{"NoteNumber":61,"Velocity":34,"Duration":67264,"SoundDuration":67264,"Delta":57797892},{"NoteNumber":73,"Velocity":40,"Duration":67264,"SoundDuration":67264,"Delta":57797892},{"NoteNumber":61,"Velocity":37,"Duration":89686,"SoundDuration":89686,"Delta":58066951},{"NoteNumber":56,"Velocity":48,"Duration":269058,"SoundDuration":269058,"Delta":58066951},{"NoteNumber":44,"Velocity":48,"Duration":269058,"SoundDuration":269058,"Delta":58066951},{"NoteNumber":65,"Velocity":32,"Duration":89686,"SoundDuration":89686,"Delta":58156637},{"NoteNumber":73,"Velocity":32,"Duration":89686,"SoundDuration":89686,"Delta":58246323},{"NoteNumber":77,"Velocity":37,"Duration":268129,"SoundDuration":268129,"Delta":58336009},{"NoteNumber":41,"Velocity":42,"Duration":533413,"SoundDuration":533413,"Delta":58336009},{"NoteNumber":53,"Velocity":50,"Duration":533413,"SoundDuration":533413,"Delta":58336009},{"NoteNumber":73,"Velocity":30,"Duration":89380,"SoundDuration":89380,"Delta":58425695},{"NoteNumber":68,"Velocity":30,"Duration":89062,"SoundDuration":89062,"Delta":58515076},{"NoteNumber":77,"Velocity":37,"Duration":265284,"SoundDuration":265284,"Delta":58604139},{"NoteNumber":73,"Velocity":31,"Duration":88432,"SoundDuration":88432,"Delta":58692885},{"NoteNumber":68,"Velocity":31,"Duration":88105,"SoundDuration":88105,"Delta":58781317},{"NoteNumber":77,"Velocity":37,"Duration":87733,"SoundDuration":87733,"Delta":58869423},{"NoteNumber":80,"Velocity":37,"Duration":262283,"SoundDuration":262283,"Delta":58869423},{"NoteNumber":37,"Velocity":42,"Duration":262283,"SoundDuration":262283,"Delta":58869423},{"NoteNumber":49,"Velocity":50,"Duration":262283,"SoundDuration":262283,"Delta":58869423},{"NoteNumber":73,"Velocity":31,"Duration":87427,"SoundDuration":87427,"Delta":58957157},{"NoteNumber":68,"Velocity":30,"Duration":87122,"SoundDuration":87122,"Delta":59044584},{"NoteNumber":77,"Velocity":37,"Duration":86956,"SoundDuration":86956,"Delta":59131706},{"NoteNumber":32,"Velocity":39,"Duration":260869,"SoundDuration":260869,"Delta":59131706},{"NoteNumber":44,"Velocity":47,"Duration":260869,"SoundDuration":260869,"Delta":59131706},{"NoteNumber":73,"Velocity":31,"Duration":86956,"SoundDuration":86956,"Delta":59218663},{"NoteNumber":68,"Velocity":31,"Duration":86956,"SoundDuration":86956,"Delta":59305619},{"NoteNumber":77,"Velocity":37,"Duration":86956,"SoundDuration":86956,"Delta":59392576},{"NoteNumber":37,"Velocity":44,"Duration":527908,"SoundDuration":527908,"Delta":59392576},{"NoteNumber":49,"Velocity":51,"Duration":527908,"SoundDuration":527908,"Delta":59392576},{"NoteNumber":73,"Velocity":31,"Duration":86956,"SoundDuration":86956,"Delta":59479532},{"NoteNumber":68,"Velocity":31,"Duration":86956,"SoundDuration":86956,"Delta":59566489},{"NoteNumber":73,"Velocity":38,"Duration":86956,"SoundDuration":86956,"Delta":59653445},{"NoteNumber":68,"Velocity":32,"Duration":88758,"SoundDuration":88758,"Delta":59740402},{"NoteNumber":65,"Velocity":31,"Duration":91324,"SoundDuration":91324,"Delta":59829160},{"NoteNumber":61,"Velocity":34,"Duration":87338,"SoundDuration":87338,"Delta":59920484},{"NoteNumber":68,"Velocity":39,"Duration":87338,"SoundDuration":87338,"Delta":59920484},{"NoteNumber":53,"Velocity":59,"Duration":261251,"SoundDuration":261251,"Delta":59920484},{"NoteNumber":41,"Velocity":49,"Duration":261251,"SoundDuration":261251,"Delta":59920484},{"NoteNumber":56,"Velocity":33,"Duration":86956,"SoundDuration":86956,"Delta":60007823},{"NoteNumber":61,"Velocity":34,"Duration":86956,"SoundDuration":86956,"Delta":60094779},{"NoteNumber":65,"Velocity":32,"Duration":86956,"SoundDuration":86956,"Delta":60181736},{"NoteNumber":73,"Velocity":41,"Duration":86956,"SoundDuration":86956,"Delta":60181736},{"NoteNumber":44,"Velocity":51,"Duration":527908,"SoundDuration":527908,"Delta":60181736},{"NoteNumber":56,"Velocity":61,"Duration":527908,"SoundDuration":527908,"Delta":60181736},{"NoteNumber":61,"Velocity":35,"Duration":86956,"SoundDuration":86956,"Delta":60268692},{"NoteNumber":65,"Velocity":35,"Duration":86956,"SoundDuration":86956,"Delta":60355649},{"NoteNumber":73,"Velocity":50,"Duration":86956,"SoundDuration":86956,"Delta":60442605},{"NoteNumber":68,"Velocity":40,"Duration":88758,"SoundDuration":88758,"Delta":60529562},{"NoteNumber":65,"Velocity":43,"Duration":91324,"SoundDuration":91324,"Delta":60618320},{"NoteNumber":77,"Velocity":54,"Duration":87338,"SoundDuration":87338,"Delta":60709644},{"NoteNumber":53,"Velocity":70,"Duration":261251,"SoundDuration":261251,"Delta":60709644},{"NoteNumber":41,"Velocity":59,"Duration":261251,"SoundDuration":261251,"Delta":60709644},{"NoteNumber":73,"Velocity":47,"Duration":86956,"SoundDuration":86956,"Delta":60796983},{"NoteNumber":68,"Velocity":50,"Duration":86956,"SoundDuration":86956,"Delta":60883939},{"NoteNumber":80,"Velocity":62,"Duration":86956,"SoundDuration":86956,"Delta":60970896},{"NoteNumber":49,"Velocity":79,"Duration":525594,"SoundDuration":525594,"Delta":60970896},{"NoteNumber":37,"Velocity":67,"Duration":525594,"SoundDuration":525594,"Delta":60970896},{"NoteNumber":77,"Velocity":53,"Duration":86956,"SoundDuration":86956,"Delta":61057852},{"NoteNumber":73,"Velocity":55,"Duration":86956,"SoundDuration":86956,"Delta":61144809},{"NoteNumber":77,"Velocity":67,"Duration":86956,"SoundDuration":86956,"Delta":61231765},{"NoteNumber":73,"Velocity":60,"Duration":88082,"SoundDuration":88082,"Delta":61318722},{"NoteNumber":77,"Velocity":62,"Duration":87444,"SoundDuration":87444,"Delta":61406804},{"NoteNumber":77,"Velocity":72,"Duration":87541,"SoundDuration":87541,"Delta":61496491},{"NoteNumber":34,"Velocity":61,"Duration":262214,"SoundDuration":262214,"Delta":61496491},{"NoteNumber":46,"Velocity":73,"Duration":262214,"SoundDuration":262214,"Delta":61496491},{"NoteNumber":73,"Velocity":63,"Duration":87336,"SoundDuration":87336,"Delta":61584032},{"NoteNumber":65,"Velocity":60,"Duration":87336,"SoundDuration":87336,"Delta":61671368},{"NoteNumber":73,"Velocity":75,"Duration":87336,"SoundDuration":87336,"Delta":61758705},{"NoteNumber":29,"Velocity":64,"Duration":530838,"SoundDuration":530838,"Delta":61758705},{"NoteNumber":41,"Velocity":77,"Duration":530838,"SoundDuration":530838,"Delta":61758705},{"NoteNumber":70,"Velocity":66,"Duration":87336,"SoundDuration":87336,"Delta":61846041},{"NoteNumber":65,"Velocity":52,"Duration":87336,"SoundDuration":87336,"Delta":61933377},{"NoteNumber":73,"Velocity":55,"Duration":87336,"SoundDuration":87336,"Delta":62020713},{"NoteNumber":70,"Velocity":45,"Duration":89328,"SoundDuration":89328,"Delta":62108049},{"NoteNumber":65,"Velocity":42,"Duration":92165,"SoundDuration":92165,"Delta":62197378},{"NoteNumber":70,"Velocity":60,"Duration":87758,"SoundDuration":87758,"Delta":62289544},{"NoteNumber":34,"Velocity":58,"Duration":262431,"SoundDuration":262431,"Delta":62289544},{"NoteNumber":46,"Velocity":69,"Duration":262431,"SoundDuration":262431,"Delta":62289544},{"NoteNumber":65,"Velocity":45,"Duration":87336,"SoundDuration":87336,"Delta":62377302},{"NoteNumber":61,"Velocity":44,"Duration":87336,"SoundDuration":87336,"Delta":62464638},{"NoteNumber":65,"Velocity":44,"Duration":87336,"SoundDuration":87336,"Delta":62551975},{"NoteNumber":37,"Velocity":54,"Duration":535632,"SoundDuration":535632,"Delta":62551975},{"NoteNumber":49,"Velocity":64,"Duration":535632,"SoundDuration":535632,"Delta":62551975},{"NoteNumber":61,"Velocity":36,"Duration":87336,"SoundDuration":87336,"Delta":62639311},{"NoteNumber":58,"Velocity":35,"Duration":87336,"SoundDuration":87336,"Delta":62726647},{"NoteNumber":65,"Velocity":41,"Duration":90975,"SoundDuration":90975,"Delta":62813983},{"NoteNumber":61,"Velocity":34,"Duration":91324,"SoundDuration":91324,"Delta":62904958},{"NoteNumber":58,"Velocity":32,"Duration":91324,"SoundDuration":91324,"Delta":62996283},{"NoteNumber":61,"Velocity":27,"Duration":94483,"SoundDuration":94483,"Delta":63087607},{"NoteNumber":70,"Velocity":39,"Duration":94483,"SoundDuration":94483,"Delta":63087607},{"NoteNumber":41,"Velocity":37,"Duration":284057,"SoundDuration":284057,"Delta":63087607},{"NoteNumber":53,"Velocity":45,"Duration":284057,"SoundDuration":284057,"Delta":63087607},{"NoteNumber":58,"Velocity":32,"Duration":94786,"SoundDuration":94786,"Delta":63182090},{"NoteNumber":61,"Velocity":31,"Duration":94786,"SoundDuration":94786,"Delta":63276877},{"NoteNumber":73,"Velocity":37,"Duration":94786,"SoundDuration":94786,"Delta":63371664},{"NoteNumber":34,"Velocity":36,"Duration":284359,"SoundDuration":284359,"Delta":63371664},{"NoteNumber":46,"Velocity":43,"Duration":284359,"SoundDuration":284359,"Delta":63371664},{"NoteNumber":70,"Velocity":26,"Duration":94786,"SoundDuration":94786,"Delta":63466450},{"NoteNumber":65,"Velocity":26,"Duration":94786,"SoundDuration":94786,"Delta":63561237},{"NoteNumber":73,"Velocity":30,"Duration":94786,"SoundDuration":94786,"Delta":63656024},{"NoteNumber":70,"Velocity":25,"Duration":94786,"SoundDuration":94786,"Delta":63750810},{"NoteNumber":65,"Velocity":25,"Duration":94786,"SoundDuration":94786,"Delta":63845597},{"NoteNumber":77,"Velocity":30,"Duration":96618,"SoundDuration":96618,"Delta":63940384},{"NoteNumber":73,"Velocity":25,"Duration":96618,"SoundDuration":96618,"Delta":64037002},{"NoteNumber":65,"Velocity":25,"Duration":96955,"SoundDuration":96955,"Delta":64133620},{"NoteNumber":70,"Velocity":40,"Duration":299134,"SoundDuration":299134,"Delta":64230576},{"NoteNumber":61,"Velocity":29,"Duration":98541,"SoundDuration":98541,"Delta":64230576},{"NoteNumber":58,"Velocity":20,"Duration":99721,"SoundDuration":99721,"Delta":64329118},{"NoteNumber":53,"Velocity":20,"Duration":100871,"SoundDuration":100871,"Delta":64428839},{"NoteNumber":61,"Velocity":24,"Duration":102185,"SoundDuration":102185,"Delta":64529710},{"NoteNumber":58,"Velocity":20,"Duration":103521,"SoundDuration":103521,"Delta":64631896},{"NoteNumber":53,"Velocity":20,"Duration":104692,"SoundDuration":104692,"Delta":64735418},{"NoteNumber":65,"Velocity":24,"Duration":106136,"SoundDuration":106136,"Delta":64840110},{"NoteNumber":61,"Velocity":20,"Duration":107464,"SoundDuration":107464,"Delta":64946247},{"NoteNumber":53,"Velocity":20,"Duration":108890,"SoundDuration":108890,"Delta":65053712},{"NoteNumber":70,"Velocity":50,"Duration":50167,"SoundDuration":50167,"Delta":65162602},{"NoteNumber":58,"Velocity":42,"Duration":50167,"SoundDuration":50167,"Delta":65162602},{"NoteNumber":73,"Velocity":44,"Duration":50167,"SoundDuration":50167,"Delta":65363271},{"NoteNumber":61,"Velocity":37,"Duration":50167,"SoundDuration":50167,"Delta":65363271},{"NoteNumber":72,"Velocity":50,"Duration":49668,"SoundDuration":49668,"Delta":65563940},{"NoteNumber":60,"Velocity":42,"Duration":49668,"SoundDuration":49668,"Delta":65563940},{"NoteNumber":65,"Velocity":43,"Duration":50335,"SoundDuration":50335,"Delta":65762616},{"NoteNumber":53,"Velocity":36,"Duration":50335,"SoundDuration":50335,"Delta":65762616},{"NoteNumber":77,"Velocity":50,"Duration":49504,"SoundDuration":49504,"Delta":65963958},{"NoteNumber":65,"Velocity":42,"Duration":49504,"SoundDuration":49504,"Delta":65963958},{"NoteNumber":75,"Velocity":45,"Duration":49504,"SoundDuration":49504,"Delta":66161978},{"NoteNumber":63,"Velocity":38,"Duration":49504,"SoundDuration":49504,"Delta":66161978},{"NoteNumber":73,"Velocity":45,"Duration":48859,"SoundDuration":48859,"Delta":66359998},{"NoteNumber":61,"Velocity":38,"Duration":48859,"SoundDuration":48859,"Delta":66359998},{"NoteNumber":72,"Velocity":45,"Duration":51369,"SoundDuration":51369,"Delta":66555438},{"NoteNumber":60,"Velocity":38,"Duration":51369,"SoundDuration":51369,"Delta":66555438},{"NoteNumber":70,"Velocity":50,"Duration":49342,"SoundDuration":49342,"Delta":66760917},{"NoteNumber":58,"Velocity":42,"Duration":49342,"SoundDuration":49342,"Delta":66760917},{"NoteNumber":73,"Velocity":43,"Duration":49342,"SoundDuration":49342,"Delta":66958286},{"NoteNumber":61,"Velocity":36,"Duration":49342,"SoundDuration":49342,"Delta":66958286},{"NoteNumber":72,"Velocity":50,"Duration":48543,"SoundDuration":48543,"Delta":67155654},{"NoteNumber":60,"Velocity":42,"Duration":48543,"SoundDuration":48543,"Delta":67155654},{"NoteNumber":68,"Velocity":42,"Duration":50505,"SoundDuration":50505,"Delta":67349829},{"NoteNumber":56,"Velocity":35,"Duration":50505,"SoundDuration":50505,"Delta":67349829},{"NoteNumber":72,"Velocity":50,"Duration":49342,"SoundDuration":49342,"Delta":67551849},{"NoteNumber":60,"Velocity":42,"Duration":49342,"SoundDuration":49342,"Delta":67551849},{"NoteNumber":67,"Velocity":42,"Duration":51903,"SoundDuration":51903,"Delta":67749218},{"NoteNumber":55,"Velocity":35,"Duration":51903,"SoundDuration":51903,"Delta":67749218},{"NoteNumber":65,"Velocity":46,"Duration":413792,"SoundDuration":413792,"Delta":67956830},{"NoteNumber":53,"Velocity":39,"Duration":413792,"SoundDuration":413792,"Delta":67956830},{"NoteNumber":41,"Velocity":46,"Duration":153973,"SoundDuration":153973,"Delta":68370623},{"NoteNumber":53,"Velocity":55,"Duration":153973,"SoundDuration":153973,"Delta":68370623},{"NoteNumber":65,"Velocity":42,"Duration":100334,"SoundDuration":100334,"Delta":68474429},{"NoteNumber":68,"Velocity":42,"Duration":100334,"SoundDuration":100334,"Delta":68474429},{"NoteNumber":72,"Velocity":50,"Duration":100334,"SoundDuration":100334,"Delta":68474429},{"NoteNumber":44,"Velocity":41,"Duration":152556,"SoundDuration":152556,"Delta":68574764},{"NoteNumber":56,"Velocity":49,"Duration":152556,"SoundDuration":152556,"Delta":68574764},{"NoteNumber":65,"Velocity":40,"Duration":100334,"SoundDuration":100334,"Delta":68677153},{"NoteNumber":68,"Velocity":40,"Duration":100334,"SoundDuration":100334,"Delta":68677153},{"NoteNumber":72,"Velocity":48,"Duration":100334,"SoundDuration":100334,"Delta":68677153},{"NoteNumber":43,"Velocity":48,"Duration":151545,"SoundDuration":151545,"Delta":68777487},{"NoteNumber":55,"Velocity":57,"Duration":151545,"SoundDuration":151545,"Delta":68777487},{"NoteNumber":64,"Velocity":41,"Duration":99010,"SoundDuration":99010,"Delta":68879528},{"NoteNumber":70,"Velocity":41,"Duration":99010,"SoundDuration":99010,"Delta":68879528},{"NoteNumber":72,"Velocity":49,"Duration":99010,"SoundDuration":99010,"Delta":68879528},{"NoteNumber":36,"Velocity":41,"Duration":156794,"SoundDuration":156794,"Delta":68978538},{"NoteNumber":48,"Velocity":50,"Duration":156794,"SoundDuration":156794,"Delta":68978538},{"NoteNumber":64,"Velocity":42,"Duration":104529,"SoundDuration":104529,"Delta":69083068},{"NoteNumber":67,"Velocity":42,"Duration":104529,"SoundDuration":104529,"Delta":69083068},{"NoteNumber":70,"Velocity":42,"Duration":104529,"SoundDuration":104529,"Delta":69083068},{"NoteNumber":72,"Velocity":51,"Duration":104529,"SoundDuration":104529,"Delta":69083068},{"NoteNumber":48,"Velocity":51,"Duration":151248,"SoundDuration":151248,"Delta":69187597},{"NoteNumber":60,"Velocity":61,"Duration":151248,"SoundDuration":151248,"Delta":69187597},{"NoteNumber":64,"Velocity":46,"Duration":97719,"SoundDuration":97719,"Delta":69289986},{"NoteNumber":67,"Velocity":46,"Duration":97719,"SoundDuration":97719,"Delta":69289986},{"NoteNumber":72,"Velocity":57,"Duration":97719,"SoundDuration":97719,"Delta":69289986},{"NoteNumber":46,"Velocity":48,"Duration":151382,"SoundDuration":151382,"Delta":69387706},{"NoteNumber":58,"Velocity":57,"Duration":151382,"SoundDuration":151382,"Delta":69387706},{"NoteNumber":64,"Velocity":47,"Duration":98684,"SoundDuration":98684,"Delta":69489747},{"NoteNumber":67,"Velocity":47,"Duration":98684,"SoundDuration":98684,"Delta":69489747},{"NoteNumber":72,"Velocity":57,"Duration":98684,"SoundDuration":98684,"Delta":69489747},{"NoteNumber":44,"Velocity":49,"Duration":149006,"SoundDuration":149006,"Delta":69588431},{"NoteNumber":56,"Velocity":58,"Duration":149006,"SoundDuration":149006,"Delta":69588431},{"NoteNumber":65,"Velocity":48,"Duration":99337,"SoundDuration":99337,"Delta":69687769},{"NoteNumber":68,"Velocity":48,"Duration":99337,"SoundDuration":99337,"Delta":69687769},{"NoteNumber":72,"Velocity":58,"Duration":99337,"SoundDuration":99337,"Delta":69687769},{"NoteNumber":43,"Velocity":50,"Duration":159574,"SoundDuration":159574,"Delta":69787106},{"NoteNumber":55,"Velocity":60,"Duration":159574,"SoundDuration":159574,"Delta":69787106},{"NoteNumber":64,"Velocity":49,"Duration":106383,"SoundDuration":106383,"Delta":69893489},{"NoteNumber":70,"Velocity":49,"Duration":106383,"SoundDuration":106383,"Delta":69893489},{"NoteNumber":72,"Velocity":59,"Duration":106383,"SoundDuration":106383,"Delta":69893489},{"NoteNumber":41,"Velocity":57,"Duration":152953,"SoundDuration":152953,"Delta":69999872},{"NoteNumber":53,"Velocity":69,"Duration":152953,"SoundDuration":152953,"Delta":69999872},{"NoteNumber":65,"Velocity":58,"Duration":99010,"SoundDuration":99010,"Delta":70103321},{"NoteNumber":68,"Velocity":58,"Duration":99010,"SoundDuration":99010,"Delta":70103321},{"NoteNumber":72,"Velocity":70,"Duration":99010,"SoundDuration":99010,"Delta":70103321},{"NoteNumber":44,"Velocity":50,"Duration":153475,"SoundDuration":153475,"Delta":70202331},{"NoteNumber":56,"Velocity":60,"Duration":153475,"SoundDuration":153475,"Delta":70202331},{"NoteNumber":65,"Velocity":54,"Duration":99337,"SoundDuration":99337,"Delta":70306137},{"NoteNumber":68,"Velocity":54,"Duration":99337,"SoundDuration":99337,"Delta":70306137},{"NoteNumber":72,"Velocity":54,"Duration":99337,"SoundDuration":99337,"Delta":70306137},{"NoteNumber":77,"Velocity":65,"Duration":99337,"SoundDuration":99337,"Delta":70306137},{"NoteNumber":43,"Velocity":60,"Duration":145021,"SoundDuration":145021,"Delta":70405475},{"NoteNumber":55,"Velocity":73,"Duration":145021,"SoundDuration":145021,"Delta":70405475},{"NoteNumber":65,"Velocity":56,"Duration":95237,"SoundDuration":95237,"Delta":70502877},{"NoteNumber":70,"Velocity":56,"Duration":95237,"SoundDuration":95237,"Delta":70502877},{"NoteNumber":72,"Velocity":56,"Duration":95237,"SoundDuration":95237,"Delta":70502877},{"NoteNumber":77,"Velocity":66,"Duration":95237,"SoundDuration":95237,"Delta":70502877},{"NoteNumber":48,"Velocity":50,"Duration":151515,"SoundDuration":151515,"Delta":70598115},{"NoteNumber":60,"Velocity":61,"Duration":151515,"SoundDuration":151515,"Delta":70598115},{"NoteNumber":64,"Velocity":57,"Duration":101010,"SoundDuration":101010,"Delta":70699125},{"NoteNumber":70,"Velocity":57,"Duration":101010,"SoundDuration":101010,"Delta":70699125},{"NoteNumber":72,"Velocity":57,"Duration":101010,"SoundDuration":101010,"Delta":70699125},{"NoteNumber":76,"Velocity":69,"Duration":101010,"SoundDuration":101010,"Delta":70699125},{"NoteNumber":45,"Velocity":63,"Duration":151037,"SoundDuration":151037,"Delta":70800135},{"NoteNumber":57,"Velocity":75,"Duration":151037,"SoundDuration":151037,"Delta":70800135},{"NoteNumber":65,"Velocity":69,"Duration":98684,"SoundDuration":98684,"Delta":70901830},{"NoteNumber":72,"Velocity":69,"Duration":98684,"SoundDuration":98684,"Delta":70901830},{"NoteNumber":77,"Velocity":82,"Duration":98684,"SoundDuration":98684,"Delta":70901830},{"NoteNumber":41,"Velocity":54,"Duration":155709,"SoundDuration":155709,"Delta":71000514},{"NoteNumber":53,"Velocity":65,"Duration":155709,"SoundDuration":155709,"Delta":71000514},{"NoteNumber":65,"Velocity":60,"Duration":103806,"SoundDuration":103806,"Delta":71104321},{"NoteNumber":72,"Velocity":60,"Duration":103806,"SoundDuration":103806,"Delta":71104321},{"NoteNumber":75,"Velocity":73,"Duration":103806,"SoundDuration":103806,"Delta":71104321},{"NoteNumber":46,"Velocity":66,"Duration":152026,"SoundDuration":152026,"Delta":71208127},{"NoteNumber":58,"Velocity":79,"Duration":152026,"SoundDuration":152026,"Delta":71208127},{"NoteNumber":65,"Velocity":62,"Duration":101351,"SoundDuration":101351,"Delta":71309478},{"NoteNumber":70,"Velocity":62,"Duration":101351,"SoundDuration":101351,"Delta":71309478},{"NoteNumber":73,"Velocity":75,"Duration":101351,"SoundDuration":101351,"Delta":71309478},{"NoteNumber":48,"Velocity":56,"Duration":179642,"SoundDuration":179642,"Delta":71410829},{"NoteNumber":60,"Velocity":68,"Duration":179642,"SoundDuration":179642,"Delta":71410829},{"NoteNumber":63,"Velocity":63,"Duration":144230,"SoundDuration":144230,"Delta":71518356},{"NoteNumber":69,"Velocity":63,"Duration":144230,"SoundDuration":144230,"Delta":71518356},{"NoteNumber":72,"Velocity":76,"Duration":144230,"SoundDuration":144230,"Delta":71518356},{"NoteNumber":70,"Velocity":76,"Duration":100334,"SoundDuration":100334,"Delta":71662587},{"NoteNumber":77,"Velocity":76,"Duration":100334,"SoundDuration":100334,"Delta":71662587},{"NoteNumber":82,"Velocity":90,"Duration":100334,"SoundDuration":100334,"Delta":71662587},{"NoteNumber":49,"Velocity":78,"Duration":100334,"SoundDuration":100334,"Delta":71662587},{"NoteNumber":61,"Velocity":69,"Duration":100334,"SoundDuration":100334,"Delta":71762922},{"NoteNumber":85,"Velocity":85,"Duration":100334,"SoundDuration":100334,"Delta":71863256},{"NoteNumber":82,"Velocity":72,"Duration":100334,"SoundDuration":100334,"Delta":71863256},{"NoteNumber":77,"Velocity":72,"Duration":100334,"SoundDuration":100334,"Delta":71863256},{"NoteNumber":73,"Velocity":72,"Duration":100334,"SoundDuration":100334,"Delta":71863256},{"NoteNumber":46,"Velocity":78,"Duration":100334,"SoundDuration":100334,"Delta":71863256},{"NoteNumber":58,"Velocity":68,"Duration":100334,"SoundDuration":100334,"Delta":71963591},{"NoteNumber":84,"Velocity":85,"Duration":99337,"SoundDuration":99337,"Delta":72063925},{"NoteNumber":81,"Velocity":85,"Duration":99337,"SoundDuration":99337,"Delta":72063925},{"NoteNumber":77,"Velocity":72,"Duration":99337,"SoundDuration":99337,"Delta":72063925},{"NoteNumber":72,"Velocity":72,"Duration":99337,"SoundDuration":99337,"Delta":72063925},{"NoteNumber":41,"Velocity":78,"Duration":99337,"SoundDuration":99337,"Delta":72063925},{"NoteNumber":53,"Velocity":67,"Duration":99337,"SoundDuration":99337,"Delta":72163263},{"NoteNumber":77,"Velocity":85,"Duration":101010,"SoundDuration":101010,"Delta":72262601},{"NoteNumber":72,"Velocity":72,"Duration":101010,"SoundDuration":101010,"Delta":72262601},{"NoteNumber":69,"Velocity":72,"Duration":101010,"SoundDuration":101010,"Delta":72262601},{"NoteNumber":65,"Velocity":72,"Duration":101010,"SoundDuration":101010,"Delta":72262601},{"NoteNumber":39,"Velocity":78,"Duration":101010,"SoundDuration":101010,"Delta":72262601},{"NoteNumber":51,"Velocity":66,"Duration":115384,"SoundDuration":115384,"Delta":72363611},{"NoteNumber":89,"Velocity":99,"Duration":99010,"SoundDuration":99010,"Delta":72478995},{"NoteNumber":82,"Velocity":83,"Duration":99010,"SoundDuration":99010,"Delta":72478995},{"NoteNumber":77,"Velocity":83,"Duration":99010,"SoundDuration":99010,"Delta":72478995},{"NoteNumber":37,"Velocity":78,"Duration":99010,"SoundDuration":99010,"Delta":72478995},{"NoteNumber":49,"Velocity":67,"Duration":99009,"SoundDuration":99009,"Delta":72578005},{"NoteNumber":87,"Velocity":84,"Duration":99010,"SoundDuration":99010,"Delta":72677015},{"NoteNumber":81,"Velocity":71,"Duration":99010,"SoundDuration":99010,"Delta":72677015},{"NoteNumber":77,"Velocity":71,"Duration":99010,"SoundDuration":99010,"Delta":72677015},{"NoteNumber":75,"Velocity":71,"Duration":99010,"SoundDuration":99010,"Delta":72677015},{"NoteNumber":36,"Velocity":78,"Duration":99010,"SoundDuration":99010,"Delta":72677015},{"NoteNumber":48,"Velocity":67,"Duration":99009,"SoundDuration":99009,"Delta":72776025},{"NoteNumber":85,"Velocity":84,"Duration":97719,"SoundDuration":97719,"Delta":72875035},{"NoteNumber":82,"Velocity":71,"Duration":97719,"SoundDuration":97719,"Delta":72875035},{"NoteNumber":77,"Velocity":71,"Duration":97719,"SoundDuration":97719,"Delta":72875035},{"NoteNumber":73,"Velocity":71,"Duration":97719,"SoundDuration":97719,"Delta":72875035},{"NoteNumber":34,"Velocity":73,"Duration":97719,"SoundDuration":97719,"Delta":72875035},{"NoteNumber":46,"Velocity":62,"Duration":97719,"SoundDuration":97719,"Delta":72972755},{"NoteNumber":84,"Velocity":84,"Duration":102739,"SoundDuration":102739,"Delta":73070475},{"NoteNumber":77,"Velocity":71,"Duration":102739,"SoundDuration":102739,"Delta":73070475},{"NoteNumber":72,"Velocity":71,"Duration":102739,"SoundDuration":102739,"Delta":73070475},{"NoteNumber":33,"Velocity":73,"Duration":102739,"SoundDuration":102739,"Delta":73070475},{"NoteNumber":45,"Velocity":61,"Duration":102739,"SoundDuration":102739,"Delta":73173214},{"NoteNumber":82,"Velocity":90,"Duration":98684,"SoundDuration":98684,"Delta":73275954},{"NoteNumber":77,"Velocity":76,"Duration":98684,"SoundDuration":98684,"Delta":73275954},{"NoteNumber":73,"Velocity":76,"Duration":98684,"SoundDuration":98684,"Delta":73275954},{"NoteNumber":70,"Velocity":76,"Duration":98684,"SoundDuration":98684,"Delta":73275954},{"NoteNumber":34,"Velocity":75,"Duration":98684,"SoundDuration":98684,"Delta":73275954},{"NoteNumber":46,"Velocity":63,"Duration":98684,"SoundDuration":98684,"Delta":73374638},{"NoteNumber":85,"Velocity":82,"Duration":98684,"SoundDuration":98684,"Delta":73473323},{"NoteNumber":82,"Velocity":69,"Duration":98684,"SoundDuration":98684,"Delta":73473323},{"NoteNumber":77,"Velocity":69,"Duration":98684,"SoundDuration":98684,"Delta":73473323},{"NoteNumber":73,"Velocity":69,"Duration":98684,"SoundDuration":98684,"Delta":73473323},{"NoteNumber":34,"Velocity":73,"Duration":98684,"SoundDuration":98684,"Delta":73473323},{"NoteNumber":46,"Velocity":65,"Duration":98684,"SoundDuration":98684,"Delta":73572007},{"NoteNumber":84,"Velocity":90,"Duration":97087,"SoundDuration":97087,"Delta":73670691},{"NoteNumber":77,"Velocity":76,"Duration":97087,"SoundDuration":97087,"Delta":73670691},{"NoteNumber":72,"Velocity":76,"Duration":97087,"SoundDuration":97087,"Delta":73670691},{"NoteNumber":33,"Velocity":74,"Duration":97087,"SoundDuration":97087,"Delta":73670691},{"NoteNumber":45,"Velocity":62,"Duration":97087,"SoundDuration":97087,"Delta":73767779},{"NoteNumber":77,"Velocity":81,"Duration":101010,"SoundDuration":101010,"Delta":73864866},{"NoteNumber":72,"Velocity":68,"Duration":101010,"SoundDuration":101010,"Delta":73864866},{"NoteNumber":69,"Velocity":68,"Duration":101010,"SoundDuration":101010,"Delta":73864866},{"NoteNumber":65,"Velocity":68,"Duration":101010,"SoundDuration":101010,"Delta":73864866},{"NoteNumber":39,"Velocity":73,"Duration":101010,"SoundDuration":101010,"Delta":73864866},{"NoteNumber":51,"Velocity":60,"Duration":111940,"SoundDuration":111940,"Delta":73965876},{"NoteNumber":89,"Velocity":109,"Duration":98684,"SoundDuration":98684,"Delta":74077816},{"NoteNumber":77,"Velocity":92,"Duration":98684,"SoundDuration":98684,"Delta":74077816},{"NoteNumber":37,"Velocity":71,"Duration":98684,"SoundDuration":98684,"Delta":74077816},{"NoteNumber":49,"Velocity":61,"Duration":98684,"SoundDuration":98684,"Delta":74176501},{"NoteNumber":85,"Velocity":92,"Duration":103806,"SoundDuration":103806,"Delta":74275185},{"NoteNumber":82,"Velocity":78,"Duration":103806,"SoundDuration":103806,"Delta":74275185},{"NoteNumber":73,"Velocity":78,"Duration":103806,"SoundDuration":103806,"Delta":74275185},{"NoteNumber":34,"Velocity":70,"Duration":103806,"SoundDuration":103806,"Delta":74275185},{"NoteNumber":46,"Velocity":63,"Duration":103806,"SoundDuration":103806,"Delta":74378991},{"NoteNumber":84,"Velocity":101,"Duration":413792,"SoundDuration":413792,"Delta":74482797},{"NoteNumber":81,"Velocity":85,"Duration":413792,"SoundDuration":413792,"Delta":74482797},{"NoteNumber":72,"Velocity":85,"Duration":413792,"SoundDuration":413792,"Delta":74482797},{"NoteNumber":41,"Velocity":75,"Duration":413792,"SoundDuration":413792,"Delta":74482797},{"NoteNumber":53,"Velocity":75,"Duration":413792,"SoundDuration":413792,"Delta":74482797},{"NoteNumber":89,"Velocity":109,"Duration":98684,"SoundDuration":98684,"Delta":74896590},{"NoteNumber":77,"Velocity":92,"Duration":98684,"SoundDuration":98684,"Delta":74896590},{"NoteNumber":61,"Velocity":71,"Duration":98684,"SoundDuration":98684,"Delta":74896590},{"NoteNumber":73,"Velocity":61,"Duration":98684,"SoundDuration":98684,"Delta":74995275},{"NoteNumber":85,"Velocity":92,"Duration":103806,"SoundDuration":103806,"Delta":75093959},{"NoteNumber":82,"Velocity":78,"Duration":103806,"SoundDuration":103806,"Delta":75093959},{"NoteNumber":58,"Velocity":70,"Duration":103806,"SoundDuration":103806,"Delta":75093959},{"NoteNumber":70,"Velocity":63,"Duration":103806,"SoundDuration":103806,"Delta":75197765},{"NoteNumber":84,"Velocity":101,"Duration":425874,"SoundDuration":425874,"Delta":75301571},{"NoteNumber":81,"Velocity":85,"Duration":425874,"SoundDuration":425874,"Delta":75301571},{"NoteNumber":77,"Velocity":80,"Duration":218978,"SoundDuration":218978,"Delta":75508468},{"NoteNumber":72,"Velocity":97,"Duration":432460,"SoundDuration":432460,"Delta":75727446},{"NoteNumber":69,"Velocity":81,"Duration":432460,"SoundDuration":432460,"Delta":75727446},{"NoteNumber":65,"Velocity":80,"Duration":225564,"SoundDuration":225564,"Delta":75934342},{"NoteNumber":60,"Velocity":98,"Duration":452981,"SoundDuration":452981,"Delta":76159906},{"NoteNumber":57,"Velocity":80,"Duration":452981,"SoundDuration":452981,"Delta":76159906},{"NoteNumber":53,"Velocity":80,"Duration":237154,"SoundDuration":237154,"Delta":76375734},{"NoteNumber":48,"Velocity":101,"Duration":508955,"SoundDuration":508955,"Delta":76612888},{"NoteNumber":45,"Velocity":85,"Duration":508955,"SoundDuration":508955,"Delta":76612888},{"NoteNumber":41,"Velocity":80,"Duration":279070,"SoundDuration":279070,"Delta":76842773},{"NoteNumber":36,"Velocity":101,"Duration":1666110,"SoundDuration":1666110,"Delta":77121843},{"NoteNumber":33,"Velocity":85,"Duration":1666110,"SoundDuration":1666110,"Delta":77121843},{"NoteNumber":29,"Velocity":89,"Duration":1350320,"SoundDuration":1350320,"Delta":77437632},{"NoteNumber":29,"Velocity":65,"Duration":46712,"SoundDuration":46712,"Delta":78787953},{"NoteNumber":31,"Velocity":65,"Duration":46487,"SoundDuration":46487,"Delta":78834666},{"NoteNumber":33,"Velocity":66,"Duration":46262,"SoundDuration":46262,"Delta":78881153},{"NoteNumber":34,"Velocity":66,"Duration":68980,"SoundDuration":68980,"Delta":78927416},{"NoteNumber":36,"Velocity":67,"Duration":68483,"SoundDuration":68483,"Delta":78996397},{"NoteNumber":38,"Velocity":68,"Duration":67997,"SoundDuration":67997,"Delta":79064880},{"NoteNumber":40,"Velocity":69,"Duration":67520,"SoundDuration":67520,"Delta":79132878},{"NoteNumber":41,"Velocity":69,"Duration":44751,"SoundDuration":44751,"Delta":79200399},{"NoteNumber":43,"Velocity":70,"Duration":44544,"SoundDuration":44544,"Delta":79245150},{"NoteNumber":45,"Velocity":70,"Duration":44338,"SoundDuration":44338,"Delta":79289695},{"NoteNumber":46,"Velocity":71,"Duration":66128,"SoundDuration":66128,"Delta":79334034},{"NoteNumber":48,"Velocity":72,"Duration":65675,"SoundDuration":65675,"Delta":79400162},{"NoteNumber":50,"Velocity":73,"Duration":65230,"SoundDuration":65230,"Delta":79465838},{"NoteNumber":52,"Velocity":73,"Duration":64785,"SoundDuration":64785,"Delta":79531068},{"NoteNumber":53,"Velocity":74,"Duration":42948,"SoundDuration":42948,"Delta":79595854},{"NoteNumber":55,"Velocity":75,"Duration":42757,"SoundDuration":42757,"Delta":79638803},{"NoteNumber":57,"Velocity":75,"Duration":42510,"SoundDuration":42510,"Delta":79681561},{"NoteNumber":58,"Velocity":76,"Duration":63559,"SoundDuration":63559,"Delta":79724071},{"NoteNumber":60,"Velocity":77,"Duration":63532,"SoundDuration":63532,"Delta":79787630},{"NoteNumber":62,"Velocity":77,"Duration":63424,"SoundDuration":63424,"Delta":79851163},{"NoteNumber":64,"Velocity":78,"Duration":63388,"SoundDuration":63388,"Delta":79914588},{"NoteNumber":65,"Velocity":81,"Duration":42194,"SoundDuration":42194,"Delta":79977976},{"NoteNumber":67,"Velocity":81,"Duration":42194,"SoundDuration":42194,"Delta":80020170},{"NoteNumber":69,"Velocity":81,"Duration":42167,"SoundDuration":42167,"Delta":80062364},{"NoteNumber":70,"Velocity":81,"Duration":63157,"SoundDuration":63157,"Delta":80104532},{"NoteNumber":72,"Velocity":82,"Duration":63121,"SoundDuration":63121,"Delta":80167690},{"NoteNumber":74,"Velocity":82,"Duration":63025,"SoundDuration":63025,"Delta":80230811},{"NoteNumber":76,"Velocity":83,"Duration":62998,"SoundDuration":62998,"Delta":80293837},{"NoteNumber":77,"Velocity":83,"Duration":41928,"SoundDuration":41928,"Delta":80356835},{"NoteNumber":79,"Velocity":83,"Duration":41928,"SoundDuration":41928,"Delta":80398764},{"NoteNumber":81,"Velocity":84,"Duration":41892,"SoundDuration":41892,"Delta":80440693},{"NoteNumber":82,"Velocity":84,"Duration":62761,"SoundDuration":62761,"Delta":80482585},{"NoteNumber":84,"Velocity":84,"Duration":62735,"SoundDuration":62735,"Delta":80545347},{"NoteNumber":86,"Velocity":85,"Duration":62630,"SoundDuration":62630,"Delta":80608082},{"NoteNumber":88,"Velocity":85,"Duration":62476,"SoundDuration":62476,"Delta":80670712},{"NoteNumber":89,"Velocity":86,"Duration":41780,"SoundDuration":41780,"Delta":80733189},{"NoteNumber":65,"Velocity":60,"Duration":41780,"SoundDuration":41780,"Delta":80733189},{"NoteNumber":91,"Velocity":88,"Duration":42147,"SoundDuration":42147,"Delta":80774969},{"NoteNumber":67,"Velocity":61,"Duration":42147,"SoundDuration":42147,"Delta":80774969},{"NoteNumber":93,"Velocity":89,"Duration":42522,"SoundDuration":42522,"Delta":80817117},{"NoteNumber":69,"Velocity":62,"Duration":42522,"SoundDuration":42522,"Delta":80817117},{"NoteNumber":94,"Velocity":90,"Duration":64497,"SoundDuration":64497,"Delta":80859640},{"NoteNumber":70,"Velocity":63,"Duration":64497,"SoundDuration":64497,"Delta":80859640},{"NoteNumber":96,"Velocity":92,"Duration":65374,"SoundDuration":65374,"Delta":80924137},{"NoteNumber":72,"Velocity":64,"Duration":65374,"SoundDuration":65374,"Delta":80924137},{"NoteNumber":98,"Velocity":94,"Duration":66276,"SoundDuration":66276,"Delta":80989512},{"NoteNumber":74,"Velocity":65,"Duration":66276,"SoundDuration":66276,"Delta":80989512},{"NoteNumber":100,"Velocity":96,"Duration":67207,"SoundDuration":67207,"Delta":81055788},{"NoteNumber":76,"Velocity":67,"Duration":67207,"SoundDuration":67207,"Delta":81055788},{"NoteNumber":101,"Velocity":98,"Duration":67864,"SoundDuration":67864,"Delta":81122996},{"NoteNumber":77,"Velocity":68,"Duration":67864,"SoundDuration":67864,"Delta":81122996},{"NoteNumber":75,"Velocity":68,"Duration":50847,"SoundDuration":50847,"Delta":82002110},{"NoteNumber":78,"Velocity":81,"Duration":50847,"SoundDuration":50847,"Delta":82002110},{"NoteNumber":53,"Velocity":66,"Duration":50847,"SoundDuration":50847,"Delta":82002110},{"NoteNumber":69,"Velocity":70,"Duration":50847,"SoundDuration":50847,"Delta":82052958},{"NoteNumber":63,"Velocity":58,"Duration":50847,"SoundDuration":50847,"Delta":82052958},{"NoteNumber":75,"Velocity":67,"Duration":51033,"SoundDuration":51033,"Delta":82103805},{"NoteNumber":78,"Velocity":79,"Duration":51033,"SoundDuration":51033,"Delta":82103805},{"NoteNumber":53,"Velocity":66,"Duration":51033,"SoundDuration":51033,"Delta":82103805},{"NoteNumber":69,"Velocity":70,"Duration":51437,"SoundDuration":51437,"Delta":82154839},{"NoteNumber":63,"Velocity":58,"Duration":51437,"SoundDuration":51437,"Delta":82154839},{"NoteNumber":75,"Velocity":67,"Duration":51136,"SoundDuration":51136,"Delta":82206277},{"NoteNumber":78,"Velocity":79,"Duration":51136,"SoundDuration":51136,"Delta":82206277},{"NoteNumber":53,"Velocity":66,"Duration":51136,"SoundDuration":51136,"Delta":82206277},{"NoteNumber":69,"Velocity":70,"Duration":50833,"SoundDuration":50833,"Delta":82257413},{"NoteNumber":63,"Velocity":58,"Duration":50833,"SoundDuration":50833,"Delta":82257413},{"NoteNumber":75,"Velocity":67,"Duration":50530,"SoundDuration":50530,"Delta":82308247},{"NoteNumber":78,"Velocity":79,"Duration":50530,"SoundDuration":50530,"Delta":82308247},{"NoteNumber":53,"Velocity":66,"Duration":50530,"SoundDuration":50530,"Delta":82308247},{"NoteNumber":69,"Velocity":70,"Duration":50257,"SoundDuration":50257,"Delta":82358778},{"NoteNumber":63,"Velocity":58,"Duration":50257,"SoundDuration":50257,"Delta":82358778},{"NoteNumber":75,"Velocity":68,"Duration":49947,"SoundDuration":49947,"Delta":82409035},{"NoteNumber":78,"Velocity":80,"Duration":49947,"SoundDuration":49947,"Delta":82409035},{"NoteNumber":53,"Velocity":66,"Duration":49947,"SoundDuration":49947,"Delta":82409035},{"NoteNumber":69,"Velocity":70,"Duration":50014,"SoundDuration":50014,"Delta":82458982},{"NoteNumber":63,"Velocity":57,"Duration":50014,"SoundDuration":50014,"Delta":82458982},{"NoteNumber":75,"Velocity":65,"Duration":50310,"SoundDuration":50310,"Delta":82508996},{"NoteNumber":78,"Velocity":77,"Duration":50310,"SoundDuration":50310,"Delta":82508996},{"NoteNumber":53,"Velocity":65,"Duration":50310,"SoundDuration":50310,"Delta":82508996},{"NoteNumber":69,"Velocity":70,"Duration":50661,"SoundDuration":50661,"Delta":82559307},{"NoteNumber":63,"Velocity":58,"Duration":50661,"SoundDuration":50661,"Delta":82559307},{"NoteNumber":74,"Velocity":50,"Duration":189075,"SoundDuration":189075,"Delta":83395910},{"NoteNumber":62,"Velocity":40,"Duration":189075,"SoundDuration":189075,"Delta":83395910},{"NoteNumber":58,"Velocity":34,"Duration":189075,"SoundDuration":189075,"Delta":83395910},{"NoteNumber":69,"Velocity":42,"Duration":74175,"SoundDuration":74175,"Delta":83584985},{"NoteNumber":77,"Velocity":50,"Duration":74175,"SoundDuration":74175,"Delta":83584985},{"NoteNumber":53,"Velocity":34,"Duration":74175,"SoundDuration":74175,"Delta":83584985},{"NoteNumber":60,"Velocity":40,"Duration":74175,"SoundDuration":74175,"Delta":83584985},{"NoteNumber":72,"Velocity":53,"Duration":253164,"SoundDuration":253164,"Delta":83667403},{"NoteNumber":77,"Velocity":62,"Duration":253164,"SoundDuration":253164,"Delta":83667403},{"NoteNumber":60,"Velocity":50,"Duration":253164,"SoundDuration":253164,"Delta":83667403},{"NoteNumber":57,"Velocity":42,"Duration":253164,"SoundDuration":253164,"Delta":83667403},{"NoteNumber":65,"Velocity":46,"Duration":128755,"SoundDuration":128755,"Delta":83920567},{"NoteNumber":74,"Velocity":55,"Duration":128755,"SoundDuration":128755,"Delta":83920567},{"NoteNumber":62,"Velocity":44,"Duration":128755,"SoundDuration":128755,"Delta":83920567},{"NoteNumber":58,"Velocity":37,"Duration":128755,"SoundDuration":128755,"Delta":83920567},{"NoteNumber":70,"Velocity":50,"Duration":189075,"SoundDuration":189075,"Delta":84178078},{"NoteNumber":58,"Velocity":40,"Duration":189075,"SoundDuration":189075,"Delta":84178078},{"NoteNumber":55,"Velocity":34,"Duration":189075,"SoundDuration":189075,"Delta":84178078},{"NoteNumber":66,"Velocity":42,"Duration":74175,"SoundDuration":74175,"Delta":84367154},{"NoteNumber":74,"Velocity":50,"Duration":74175,"SoundDuration":74175,"Delta":84367154},{"NoteNumber":50,"Velocity":34,"Duration":74175,"SoundDuration":74175,"Delta":84367154},{"NoteNumber":57,"Velocity":40,"Duration":74175,"SoundDuration":74175,"Delta":84367154},{"NoteNumber":69,"Velocity":53,"Duration":253164,"SoundDuration":253164,"Delta":84449571},{"NoteNumber":74,"Velocity":62,"Duration":253164,"SoundDuration":253164,"Delta":84449571},{"NoteNumber":57,"Velocity":50,"Duration":253164,"SoundDuration":253164,"Delta":84449571},{"NoteNumber":54,"Velocity":42,"Duration":253164,"SoundDuration":253164,"Delta":84449571},{"NoteNumber":62,"Velocity":46,"Duration":130434,"SoundDuration":130434,"Delta":84702736},{"NoteNumber":70,"Velocity":55,"Duration":130434,"SoundDuration":130434,"Delta":84702736},{"NoteNumber":58,"Velocity":44,"Duration":130434,"SoundDuration":130434,"Delta":84702736},{"NoteNumber":55,"Velocity":37,"Duration":130434,"SoundDuration":130434,"Delta":84702736},{"NoteNumber":67,"Velocity":52,"Duration":189075,"SoundDuration":189075,"Delta":84963605},{"NoteNumber":55,"Velocity":42,"Duration":189075,"SoundDuration":189075,"Delta":84963605},{"NoteNumber":51,"Velocity":35,"Duration":189075,"SoundDuration":189075,"Delta":84963605},{"NoteNumber":62,"Velocity":44,"Duration":74175,"SoundDuration":74175,"Delta":85152681},{"NoteNumber":70,"Velocity":53,"Duration":74175,"SoundDuration":74175,"Delta":85152681},{"NoteNumber":46,"Velocity":36,"Duration":74175,"SoundDuration":74175,"Delta":85152681},{"NoteNumber":53,"Velocity":42,"Duration":74175,"SoundDuration":74175,"Delta":85152681},{"NoteNumber":65,"Velocity":57,"Duration":253164,"SoundDuration":253164,"Delta":85235099},{"NoteNumber":70,"Velocity":66,"Duration":253164,"SoundDuration":253164,"Delta":85235099},{"NoteNumber":53,"Velocity":54,"Duration":253164,"SoundDuration":253164,"Delta":85235099},{"NoteNumber":50,"Velocity":45,"Duration":253164,"SoundDuration":253164,"Delta":85235099},{"NoteNumber":58,"Velocity":51,"Duration":126582,"SoundDuration":126582,"Delta":85488263},{"NoteNumber":67,"Velocity":61,"Duration":126582,"SoundDuration":126582,"Delta":85488263},{"NoteNumber":55,"Velocity":48,"Duration":126582,"SoundDuration":126582,"Delta":85488263},{"NoteNumber":51,"Velocity":41,"Duration":126582,"SoundDuration":126582,"Delta":85488263},{"NoteNumber":58,"Velocity":47,"Duration":189075,"SoundDuration":189075,"Delta":85741428},{"NoteNumber":67,"Velocity":57,"Duration":189075,"SoundDuration":189075,"Delta":85741428},{"NoteNumber":55,"Velocity":45,"Duration":189075,"SoundDuration":189075,"Delta":85741428},{"NoteNumber":51,"Velocity":38,"Duration":189075,"SoundDuration":189075,"Delta":85741428},{"NoteNumber":63,"Velocity":48,"Duration":73369,"SoundDuration":73369,"Delta":85930503},{"NoteNumber":69,"Velocity":58,"Duration":73369,"SoundDuration":73369,"Delta":85930503},{"NoteNumber":48,"Velocity":39,"Duration":73369,"SoundDuration":73369,"Delta":85930503},{"NoteNumber":53,"Velocity":46,"Duration":73369,"SoundDuration":73369,"Delta":85930503},{"NoteNumber":63,"Velocity":62,"Duration":253164,"SoundDuration":253164,"Delta":86012025},{"NoteNumber":69,"Velocity":72,"Duration":253164,"SoundDuration":253164,"Delta":86012025},{"NoteNumber":53,"Velocity":58,"Duration":384743,"SoundDuration":384743,"Delta":86012025},{"NoteNumber":48,"Velocity":49,"Duration":253164,"SoundDuration":253164,"Delta":86012025},{"NoteNumber":58,"Velocity":55,"Duration":131579,"SoundDuration":131579,"Delta":86265190},{"NoteNumber":70,"Velocity":66,"Duration":131579,"SoundDuration":131579,"Delta":86265190},{"NoteNumber":50,"Velocity":44,"Duration":131579,"SoundDuration":131579,"Delta":86265190},{"NoteNumber":65,"Velocity":51,"Duration":271493,"SoundDuration":271493,"Delta":86528348},{"NoteNumber":70,"Velocity":61,"Duration":189075,"SoundDuration":189075,"Delta":86528348},{"NoteNumber":53,"Velocity":41,"Duration":271493,"SoundDuration":271493,"Delta":86528348},{"NoteNumber":50,"Velocity":49,"Duration":189075,"SoundDuration":189075,"Delta":86528348},{"NoteNumber":72,"Velocity":63,"Duration":74175,"SoundDuration":74175,"Delta":86717423},{"NoteNumber":45,"Velocity":42,"Duration":74175,"SoundDuration":74175,"Delta":86717423},{"NoteNumber":65,"Velocity":67,"Duration":253164,"SoundDuration":253164,"Delta":86799841},{"NoteNumber":72,"Velocity":79,"Duration":253164,"SoundDuration":253164,"Delta":86799841},{"NoteNumber":53,"Velocity":64,"Duration":381369,"SoundDuration":381369,"Delta":86799841},{"NoteNumber":45,"Velocity":53,"Duration":253164,"SoundDuration":253164,"Delta":86799841},{"NoteNumber":70,"Velocity":60,"Duration":128205,"SoundDuration":128205,"Delta":87053006},{"NoteNumber":65,"Velocity":60,"Duration":128205,"SoundDuration":128205,"Delta":87053006},{"NoteNumber":74,"Velocity":72,"Duration":128205,"SoundDuration":128205,"Delta":87053006},{"NoteNumber":44,"Velocity":48,"Duration":128205,"SoundDuration":128205,"Delta":87053006},{"NoteNumber":70,"Velocity":56,"Duration":270597,"SoundDuration":270597,"Delta":87309416},{"NoteNumber":74,"Velocity":67,"Duration":189075,"SoundDuration":189075,"Delta":87309416},{"NoteNumber":44,"Velocity":45,"Duration":189075,"SoundDuration":189075,"Delta":87309416},{"NoteNumber":53,"Velocity":53,"Duration":189075,"SoundDuration":189075,"Delta":87309416},{"NoteNumber":75,"Velocity":70,"Duration":73369,"SoundDuration":73369,"Delta":87498492},{"NoteNumber":43,"Velocity":46,"Duration":73369,"SoundDuration":73369,"Delta":87498492},{"NoteNumber":51,"Velocity":46,"Duration":73369,"SoundDuration":73369,"Delta":87498492},{"NoteNumber":70,"Velocity":75,"Duration":259740,"SoundDuration":259740,"Delta":87580014},{"NoteNumber":75,"Velocity":88,"Duration":259740,"SoundDuration":259740,"Delta":87580014},{"NoteNumber":51,"Velocity":71,"Duration":259740,"SoundDuration":259740,"Delta":87580014},{"NoteNumber":43,"Velocity":59,"Duration":259740,"SoundDuration":259740,"Delta":87580014},{"NoteNumber":73,"Velocity":68,"Duration":71428,"SoundDuration":71428,"Delta":87839754},{"NoteNumber":70,"Velocity":68,"Duration":71428,"SoundDuration":71428,"Delta":87839754},{"NoteNumber":65,"Velocity":68,"Duration":71428,"SoundDuration":71428,"Delta":87839754},{"NoteNumber":77,"Velocity":82,"Duration":71428,"SoundDuration":71428,"Delta":87839754},{"NoteNumber":49,"Velocity":56,"Duration":71428,"SoundDuration":71428,"Delta":87839754},{"NoteNumber":41,"Velocity":49,"Duration":71428,"SoundDuration":71428,"Delta":87839754},{"NoteNumber":67,"Velocity":79,"Duration":76142,"SoundDuration":76142,"Delta":88125469},{"NoteNumber":70,"Velocity":79,"Duration":76142,"SoundDuration":76142,"Delta":88125469},{"NoteNumber":72,"Velocity":79,"Duration":76142,"SoundDuration":76142,"Delta":88125469},{"NoteNumber":79,"Velocity":94,"Duration":76142,"SoundDuration":76142,"Delta":88125469},{"NoteNumber":40,"Velocity":58,"Duration":76142,"SoundDuration":76142,"Delta":88125469},{"NoteNumber":48,"Velocity":62,"Duration":76142,"SoundDuration":76142,"Delta":88125469},{"NoteNumber":60,"Velocity":79,"Duration":156250,"SoundDuration":156250,"Delta":88430037},{"NoteNumber":69,"Velocity":79,"Duration":156250,"SoundDuration":156250,"Delta":88430037},{"NoteNumber":72,"Velocity":94,"Duration":156250,"SoundDuration":156250,"Delta":88430037},{"NoteNumber":41,"Velocity":58,"Duration":156250,"SoundDuration":156250,"Delta":88430037},{"NoteNumber":53,"Velocity":62,"Duration":156250,"SoundDuration":156250,"Delta":88430037},{"NoteNumber":86,"Velocity":50,"Duration":189075,"SoundDuration":189075,"Delta":89055037},{"NoteNumber":74,"Velocity":40,"Duration":189075,"SoundDuration":189075,"Delta":89055037},{"NoteNumber":70,"Velocity":34,"Duration":189075,"SoundDuration":189075,"Delta":89055037},{"NoteNumber":81,"Velocity":42,"Duration":74175,"SoundDuration":74175,"Delta":89244113},{"NoteNumber":89,"Velocity":50,"Duration":74175,"SoundDuration":74175,"Delta":89244113},{"NoteNumber":65,"Velocity":34,"Duration":74175,"SoundDuration":74175,"Delta":89244113},{"NoteNumber":72,"Velocity":40,"Duration":74175,"SoundDuration":74175,"Delta":89244113},{"NoteNumber":81,"Velocity":53,"Duration":253164,"SoundDuration":253164,"Delta":89326530},{"NoteNumber":89,"Velocity":62,"Duration":253164,"SoundDuration":253164,"Delta":89326530},{"NoteNumber":72,"Velocity":50,"Duration":253164,"SoundDuration":253164,"Delta":89326530},{"NoteNumber":69,"Velocity":42,"Duration":253164,"SoundDuration":253164,"Delta":89326530},{"NoteNumber":77,"Velocity":46,"Duration":255892,"SoundDuration":255892,"Delta":89453113},{"NoteNumber":86,"Velocity":55,"Duration":129310,"SoundDuration":129310,"Delta":89579695},{"NoteNumber":74,"Velocity":44,"Duration":129310,"SoundDuration":129310,"Delta":89579695},{"NoteNumber":70,"Velocity":37,"Duration":129310,"SoundDuration":129310,"Delta":89579695},{"NoteNumber":82,"Velocity":50,"Duration":189075,"SoundDuration":189075,"Delta":89838315},{"NoteNumber":70,"Velocity":40,"Duration":189075,"SoundDuration":189075,"Delta":89838315},{"NoteNumber":67,"Velocity":34,"Duration":189075,"SoundDuration":189075,"Delta":89838315},{"NoteNumber":78,"Velocity":42,"Duration":74175,"SoundDuration":74175,"Delta":90027391},{"NoteNumber":86,"Velocity":50,"Duration":74175,"SoundDuration":74175,"Delta":90027391},{"NoteNumber":62,"Velocity":34,"Duration":74175,"SoundDuration":74175,"Delta":90027391},{"NoteNumber":69,"Velocity":40,"Duration":74175,"SoundDuration":74175,"Delta":90027391},{"NoteNumber":86,"Velocity":62,"Duration":253164,"SoundDuration":253164,"Delta":90109809},{"NoteNumber":69,"Velocity":50,"Duration":253164,"SoundDuration":253164,"Delta":90109809},{"NoteNumber":66,"Velocity":42,"Duration":253164,"SoundDuration":253164,"Delta":90109809},{"NoteNumber":74,"Velocity":46,"Duration":255892,"SoundDuration":255892,"Delta":90236391},{"NoteNumber":82,"Velocity":55,"Duration":129310,"SoundDuration":129310,"Delta":90362973},{"NoteNumber":70,"Velocity":44,"Duration":129310,"SoundDuration":129310,"Delta":90362973},{"NoteNumber":67,"Velocity":37,"Duration":129310,"SoundDuration":129310,"Delta":90362973},{"NoteNumber":79,"Velocity":52,"Duration":189075,"SoundDuration":189075,"Delta":90621594},{"NoteNumber":67,"Velocity":42,"Duration":189075,"SoundDuration":189075,"Delta":90621594},{"NoteNumber":63,"Velocity":35,"Duration":189075,"SoundDuration":189075,"Delta":90621594},{"NoteNumber":74,"Velocity":44,"Duration":74175,"SoundDuration":74175,"Delta":90810670},{"NoteNumber":82,"Velocity":53,"Duration":74175,"SoundDuration":74175,"Delta":90810670},{"NoteNumber":58,"Velocity":36,"Duration":74175,"SoundDuration":74175,"Delta":90810670},{"NoteNumber":65,"Velocity":42,"Duration":74175,"SoundDuration":74175,"Delta":90810670},{"NoteNumber":82,"Velocity":66,"Duration":253164,"SoundDuration":253164,"Delta":90893087},{"NoteNumber":65,"Velocity":54,"Duration":253164,"SoundDuration":253164,"Delta":90893087},{"NoteNumber":62,"Velocity":45,"Duration":253164,"SoundDuration":253164,"Delta":90893087},{"NoteNumber":70,"Velocity":51,"Duration":254787,"SoundDuration":254787,"Delta":91019669},{"NoteNumber":79,"Velocity":61,"Duration":128205,"SoundDuration":128205,"Delta":91146252},{"NoteNumber":67,"Velocity":48,"Duration":128205,"SoundDuration":128205,"Delta":91146252},{"NoteNumber":63,"Velocity":41,"Duration":128205,"SoundDuration":128205,"Delta":91146252},{"NoteNumber":70,"Velocity":47,"Duration":189075,"SoundDuration":189075,"Delta":91402662},{"NoteNumber":79,"Velocity":57,"Duration":189075,"SoundDuration":189075,"Delta":91402662},{"NoteNumber":67,"Velocity":45,"Duration":189075,"SoundDuration":189075,"Delta":91402662},{"NoteNumber":63,"Velocity":38,"Duration":189075,"SoundDuration":189075,"Delta":91402662},{"NoteNumber":75,"Velocity":48,"Duration":73369,"SoundDuration":73369,"Delta":91591738},{"NoteNumber":81,"Velocity":58,"Duration":73369,"SoundDuration":73369,"Delta":91591738},{"NoteNumber":60,"Velocity":39,"Duration":73369,"SoundDuration":73369,"Delta":91591738},{"NoteNumber":65,"Velocity":46,"Duration":73369,"SoundDuration":73369,"Delta":91591738},{"NoteNumber":81,"Velocity":72,"Duration":253164,"SoundDuration":253164,"Delta":91673260},{"NoteNumber":65,"Velocity":58,"Duration":387092,"SoundDuration":387092,"Delta":91673260},{"NoteNumber":60,"Velocity":49,"Duration":253164,"SoundDuration":253164,"Delta":91673260},{"NoteNumber":75,"Velocity":62,"Duration":127133,"SoundDuration":127133,"Delta":91809336},{"NoteNumber":70,"Velocity":55,"Duration":133928,"SoundDuration":133928,"Delta":91926424},{"NoteNumber":82,"Velocity":66,"Duration":133928,"SoundDuration":133928,"Delta":91926424},{"NoteNumber":62,"Velocity":44,"Duration":133928,"SoundDuration":133928,"Delta":91926424},{"NoteNumber":77,"Velocity":51,"Duration":271493,"SoundDuration":271493,"Delta":92194281},{"NoteNumber":82,"Velocity":61,"Duration":189075,"SoundDuration":189075,"Delta":92194281},{"NoteNumber":74,"Velocity":49,"Duration":189075,"SoundDuration":189075,"Delta":92194281},{"NoteNumber":84,"Velocity":63,"Duration":74175,"SoundDuration":74175,"Delta":92383357},{"NoteNumber":72,"Velocity":42,"Duration":74175,"SoundDuration":74175,"Delta":92383357},{"NoteNumber":69,"Velocity":42,"Duration":74175,"SoundDuration":74175,"Delta":92383357},{"NoteNumber":84,"Velocity":79,"Duration":253164,"SoundDuration":253164,"Delta":92465775},{"NoteNumber":72,"Velocity":64,"Duration":253164,"SoundDuration":253164,"Delta":92465775},{"NoteNumber":69,"Velocity":53,"Duration":253164,"SoundDuration":253164,"Delta":92465775},{"NoteNumber":77,"Velocity":67,"Duration":257017,"SoundDuration":257017,"Delta":92592357},{"NoteNumber":86,"Velocity":72,"Duration":130434,"SoundDuration":130434,"Delta":92718939},{"NoteNumber":70,"Velocity":52,"Duration":130434,"SoundDuration":130434,"Delta":92718939},{"NoteNumber":68,"Velocity":48,"Duration":130434,"SoundDuration":130434,"Delta":92718939},{"NoteNumber":82,"Velocity":56,"Duration":270597,"SoundDuration":270597,"Delta":92979809},{"NoteNumber":87,"Velocity":67,"Duration":189075,"SoundDuration":189075,"Delta":92979809},{"NoteNumber":67,"Velocity":45,"Duration":189075,"SoundDuration":189075,"Delta":92979809},{"NoteNumber":70,"Velocity":53,"Duration":270597,"SoundDuration":270597,"Delta":92979809},{"NoteNumber":88,"Velocity":70,"Duration":73369,"SoundDuration":73369,"Delta":93168884},{"NoteNumber":66,"Velocity":46,"Duration":73369,"SoundDuration":73369,"Delta":93168884},{"NoteNumber":88,"Velocity":88,"Duration":259740,"SoundDuration":259740,"Delta":93250406},{"NoteNumber":70,"Velocity":71,"Duration":259740,"SoundDuration":259740,"Delta":93250406},{"NoteNumber":66,"Velocity":59,"Duration":259740,"SoundDuration":259740,"Delta":93250406},{"NoteNumber":82,"Velocity":76,"Duration":129870,"SoundDuration":129870,"Delta":93380276},{"NoteNumber":81,"Velocity":68,"Duration":71428,"SoundDuration":71428,"Delta":93510147},{"NoteNumber":89,"Velocity":82,"Duration":71428,"SoundDuration":71428,"Delta":93510147},{"NoteNumber":72,"Velocity":56,"Duration":71428,"SoundDuration":71428,"Delta":93510147},{"NoteNumber":65,"Velocity":49,"Duration":71428,"SoundDuration":71428,"Delta":93510147},{"NoteNumber":79,"Velocity":79,"Duration":76142,"SoundDuration":76142,"Delta":93795861},{"NoteNumber":82,"Velocity":79,"Duration":76142,"SoundDuration":76142,"Delta":93795861},{"NoteNumber":88,"Velocity":79,"Duration":76142,"SoundDuration":76142,"Delta":93795861},{"NoteNumber":91,"Velocity":94,"Duration":76142,"SoundDuration":76142,"Delta":93795861},{"NoteNumber":48,"Velocity":58,"Duration":76142,"SoundDuration":76142,"Delta":93795861},{"NoteNumber":60,"Velocity":62,"Duration":76142,"SoundDuration":76142,"Delta":93795861},{"NoteNumber":77,"Velocity":79,"Duration":160427,"SoundDuration":160427,"Delta":94100430},{"NoteNumber":81,"Velocity":79,"Duration":160427,"SoundDuration":160427,"Delta":94100430},{"NoteNumber":89,"Velocity":94,"Duration":160427,"SoundDuration":160427,"Delta":94100430},{"NoteNumber":53,"Velocity":58,"Duration":160427,"SoundDuration":160427,"Delta":94100430},{"NoteNumber":65,"Velocity":62,"Duration":160427,"SoundDuration":160427,"Delta":94100430},{"NoteNumber":71,"Velocity":43,"Duration":189075,"SoundDuration":189075,"Delta":94742141},{"NoteNumber":74,"Velocity":50,"Duration":189075,"SoundDuration":189075,"Delta":94742141},{"NoteNumber":65,"Velocity":40,"Duration":398075,"SoundDuration":398075,"Delta":94742141},{"NoteNumber":53,"Velocity":34,"Duration":398075,"SoundDuration":398075,"Delta":94742141},{"NoteNumber":74,"Velocity":42,"Duration":61813,"SoundDuration":61813,"Delta":94931216},{"NoteNumber":77,"Velocity":50,"Duration":61813,"SoundDuration":61813,"Delta":94931216},{"NoteNumber":74,"Velocity":53,"Duration":253164,"SoundDuration":253164,"Delta":95013634},{"NoteNumber":77,"Velocity":62,"Duration":253164,"SoundDuration":253164,"Delta":95013634},{"NoteNumber":53,"Velocity":34,"Duration":126582,"SoundDuration":126582,"Delta":95140216},{"NoteNumber":71,"Velocity":46,"Duration":133928,"SoundDuration":133928,"Delta":95266798},{"NoteNumber":74,"Velocity":55,"Duration":133928,"SoundDuration":133928,"Delta":95266798},{"NoteNumber":65,"Velocity":39,"Duration":133928,"SoundDuration":133928,"Delta":95266798},{"NoteNumber":71,"Velocity":43,"Duration":189075,"SoundDuration":189075,"Delta":95534655},{"NoteNumber":74,"Velocity":50,"Duration":189075,"SoundDuration":189075,"Delta":95534655},{"NoteNumber":53,"Velocity":40,"Duration":398075,"SoundDuration":398075,"Delta":95534655},{"NoteNumber":41,"Velocity":34,"Duration":398075,"SoundDuration":398075,"Delta":95534655},{"NoteNumber":75,"Velocity":42,"Duration":61813,"SoundDuration":61813,"Delta":95723731},{"NoteNumber":79,"Velocity":50,"Duration":61813,"SoundDuration":61813,"Delta":95723731},{"NoteNumber":75,"Velocity":53,"Duration":253164,"SoundDuration":253164,"Delta":95806149},{"NoteNumber":79,"Velocity":62,"Duration":253164,"SoundDuration":253164,"Delta":95806149},{"NoteNumber":41,"Velocity":34,"Duration":126582,"SoundDuration":126582,"Delta":95932731},{"NoteNumber":72,"Velocity":46,"Duration":126582,"SoundDuration":126582,"Delta":96059313},{"NoteNumber":75,"Velocity":55,"Duration":126582,"SoundDuration":126582,"Delta":96059313},{"NoteNumber":53,"Velocity":39,"Duration":126582,"SoundDuration":126582,"Delta":96059313},{"NoteNumber":69,"Velocity":43,"Duration":189075,"SoundDuration":189075,"Delta":96312478},{"NoteNumber":72,"Velocity":50,"Duration":189075,"SoundDuration":189075,"Delta":96312478},{"NoteNumber":53,"Velocity":40,"Duration":398075,"SoundDuration":398075,"Delta":96312478},{"NoteNumber":41,"Velocity":34,"Duration":398075,"SoundDuration":398075,"Delta":96312478},{"NoteNumber":72,"Velocity":42,"Duration":61813,"SoundDuration":61813,"Delta":96501554},{"NoteNumber":75,"Velocity":50,"Duration":61813,"SoundDuration":61813,"Delta":96501554},{"NoteNumber":72,"Velocity":53,"Duration":253164,"SoundDuration":253164,"Delta":96583971},{"NoteNumber":75,"Velocity":62,"Duration":253164,"SoundDuration":253164,"Delta":96583971},{"NoteNumber":63,"Velocity":34,"Duration":259915,"SoundDuration":259915,"Delta":96710553},{"NoteNumber":41,"Velocity":34,"Duration":126582,"SoundDuration":126582,"Delta":96710553},{"NoteNumber":69,"Velocity":46,"Duration":133333,"SoundDuration":133333,"Delta":96837136},{"NoteNumber":72,"Velocity":55,"Duration":133333,"SoundDuration":133333,"Delta":96837136},{"NoteNumber":53,"Velocity":39,"Duration":133333,"SoundDuration":133333,"Delta":96837136},{"NoteNumber":69,"Velocity":43,"Duration":189075,"SoundDuration":189075,"Delta":97103802},{"NoteNumber":72,"Velocity":50,"Duration":189075,"SoundDuration":189075,"Delta":97103802},{"NoteNumber":41,"Velocity":36,"Duration":398075,"SoundDuration":398075,"Delta":97103802},{"NoteNumber":29,"Velocity":30,"Duration":398075,"SoundDuration":398075,"Delta":97103802},{"NoteNumber":73,"Velocity":42,"Duration":61813,"SoundDuration":61813,"Delta":97292878},{"NoteNumber":77,"Velocity":50,"Duration":61813,"SoundDuration":61813,"Delta":97292878},{"NoteNumber":74,"Velocity":53,"Duration":253164,"SoundDuration":253164,"Delta":97375296},{"NoteNumber":77,"Velocity":62,"Duration":253164,"SoundDuration":253164,"Delta":97375296},{"NoteNumber":65,"Velocity":34,"Duration":254787,"SoundDuration":254787,"Delta":97501878},{"NoteNumber":29,"Velocity":34,"Duration":126582,"SoundDuration":126582,"Delta":97501878},{"NoteNumber":70,"Velocity":46,"Duration":128205,"SoundDuration":128205,"Delta":97628460},{"NoteNumber":74,"Velocity":55,"Duration":128205,"SoundDuration":128205,"Delta":97628460},{"NoteNumber":41,"Velocity":39,"Duration":128205,"SoundDuration":128205,"Delta":97628460},{"NoteNumber":57,"Velocity":38,"Duration":189075,"SoundDuration":189075,"Delta":97884871},{"NoteNumber":60,"Velocity":45,"Duration":189075,"SoundDuration":189075,"Delta":97884871},{"NoteNumber":42,"Velocity":36,"Duration":524657,"SoundDuration":524657,"Delta":97884871},{"NoteNumber":30,"Velocity":30,"Duration":524657,"SoundDuration":524657,"Delta":97884871},{"NoteNumber":60,"Velocity":37,"Duration":61813,"SoundDuration":61813,"Delta":98073946},{"NoteNumber":63,"Velocity":45,"Duration":61813,"SoundDuration":61813,"Delta":98073946},{"NoteNumber":60,"Velocity":47,"Duration":506328,"SoundDuration":506328,"Delta":98156364},{"NoteNumber":63,"Velocity":55,"Duration":506328,"SoundDuration":506328,"Delta":98156364},{"NoteNumber":31,"Velocity":28,"Duration":768337,"SoundDuration":768337,"Delta":98409528},{"NoteNumber":43,"Velocity":34,"Duration":768337,"SoundDuration":768337,"Delta":98409528},{"NoteNumber":58,"Velocity":40,"Duration":253164,"SoundDuration":253164,"Delta":98662693},{"NoteNumber":62,"Velocity":48,"Duration":253164,"SoundDuration":253164,"Delta":98662693},{"NoteNumber":57,"Velocity":39,"Duration":262008,"SoundDuration":262008,"Delta":98915857},{"NoteNumber":60,"Velocity":46,"Duration":262008,"SoundDuration":262008,"Delta":98915857},{"NoteNumber":55,"Velocity":38,"Duration":262008,"SoundDuration":262008,"Delta":99177866},{"NoteNumber":58,"Velocity":45,"Duration":262008,"SoundDuration":262008,"Delta":99177866},{"NoteNumber":33,"Velocity":28,"Duration":262008,"SoundDuration":262008,"Delta":99177866},{"NoteNumber":45,"Velocity":33,"Duration":262008,"SoundDuration":262008,"Delta":99177866},{"NoteNumber":53,"Velocity":36,"Duration":542382,"SoundDuration":542382,"Delta":99439874},{"NoteNumber":57,"Velocity":43,"Duration":542382,"SoundDuration":542382,"Delta":99439874},{"NoteNumber":34,"Velocity":28,"Duration":262008,"SoundDuration":262008,"Delta":99439874},{"NoteNumber":46,"Velocity":33,"Duration":262008,"SoundDuration":262008,"Delta":99439874},{"NoteNumber":35,"Velocity":28,"Duration":280373,"SoundDuration":280373,"Delta":99701883},{"NoteNumber":47,"Velocity":33,"Duration":280373,"SoundDuration":280373,"Delta":99701883},{"NoteNumber":52,"Velocity":33,"Duration":280374,"SoundDuration":280374,"Delta":99982257},{"NoteNumber":55,"Velocity":39,"Duration":280374,"SoundDuration":280374,"Delta":99982257},{"NoteNumber":36,"Velocity":28,"Duration":280374,"SoundDuration":280374,"Delta":99982257},{"NoteNumber":48,"Velocity":33,"Duration":280374,"SoundDuration":280374,"Delta":99982257},{"NoteNumber":51,"Velocity":32,"Duration":589652,"SoundDuration":589652,"Delta":100262631},{"NoteNumber":55,"Velocity":32,"Duration":898930,"SoundDuration":898930,"Delta":100262631},{"NoteNumber":60,"Velocity":38,"Duration":589652,"SoundDuration":589652,"Delta":100262631},{"NoteNumber":36,"Velocity":32,"Duration":280373,"SoundDuration":280373,"Delta":100262631},{"NoteNumber":43,"Velocity":32,"Duration":618556,"SoundDuration":618556,"Delta":100543005},{"NoteNumber":50,"Velocity":32,"Duration":309278,"SoundDuration":309278,"Delta":100852283},{"NoteNumber":59,"Velocity":38,"Duration":309278,"SoundDuration":309278,"Delta":100852283},{"NoteNumber":59,"Velocity":40,"Duration":189075,"SoundDuration":189075,"Delta":102089397},{"NoteNumber":62,"Velocity":40,"Duration":74175,"SoundDuration":74175,"Delta":102278473},{"NoteNumber":62,"Velocity":49,"Duration":253164,"SoundDuration":253164,"Delta":102360891},{"NoteNumber":59,"Velocity":44,"Duration":131579,"SoundDuration":131579,"Delta":102614055},{"NoteNumber":62,"Velocity":33,"Duration":395965,"SoundDuration":395965,"Delta":102877213},{"NoteNumber":71,"Velocity":40,"Duration":189075,"SoundDuration":189075,"Delta":102877213},{"NoteNumber":43,"Velocity":32,"Duration":189075,"SoundDuration":189075,"Delta":102877213},{"NoteNumber":55,"Velocity":27,"Duration":777822,"SoundDuration":777822,"Delta":102877213},{"NoteNumber":74,"Velocity":40,"Duration":74175,"SoundDuration":74175,"Delta":103066289},{"NoteNumber":47,"Velocity":32,"Duration":74175,"SoundDuration":74175,"Delta":103066289},{"NoteNumber":74,"Velocity":49,"Duration":253164,"SoundDuration":253164,"Delta":103148707},{"NoteNumber":47,"Velocity":40,"Duration":253164,"SoundDuration":253164,"Delta":103148707},{"NoteNumber":62,"Velocity":33,"Duration":253164,"SoundDuration":253164,"Delta":103275289},{"NoteNumber":71,"Velocity":44,"Duration":126582,"SoundDuration":126582,"Delta":103401871},{"NoteNumber":43,"Velocity":35,"Duration":126582,"SoundDuration":126582,"Delta":103401871},{"NoteNumber":84,"Velocity":46,"Duration":189075,"SoundDuration":189075,"Delta":103655036},{"NoteNumber":72,"Velocity":36,"Duration":189075,"SoundDuration":189075,"Delta":103655036},{"NoteNumber":87,"Velocity":46,"Duration":74175,"SoundDuration":74175,"Delta":103844111},{"NoteNumber":75,"Velocity":36,"Duration":74175,"SoundDuration":74175,"Delta":103844111},{"NoteNumber":87,"Velocity":56,"Duration":253164,"SoundDuration":253164,"Delta":103926529},{"NoteNumber":75,"Velocity":46,"Duration":253164,"SoundDuration":253164,"Delta":103926529},{"NoteNumber":84,"Velocity":50,"Duration":132158,"SoundDuration":132158,"Delta":104179694},{"NoteNumber":72,"Velocity":40,"Duration":132158,"SoundDuration":132158,"Delta":104179694},{"NoteNumber":62,"Velocity":43,"Duration":189075,"SoundDuration":189075,"Delta":104444011},{"NoteNumber":71,"Velocity":50,"Duration":189075,"SoundDuration":189075,"Delta":104444011},{"NoteNumber":55,"Velocity":40,"Duration":395965,"SoundDuration":395965,"Delta":104444011},{"NoteNumber":43,"Velocity":34,"Duration":395965,"SoundDuration":395965,"Delta":104444011},{"NoteNumber":65,"Velocity":42,"Duration":61813,"SoundDuration":61813,"Delta":104633086},{"NoteNumber":74,"Velocity":50,"Duration":61813,"SoundDuration":61813,"Delta":104633086},{"NoteNumber":65,"Velocity":53,"Duration":253164,"SoundDuration":253164,"Delta":104715504},{"NoteNumber":74,"Velocity":62,"Duration":253164,"SoundDuration":253164,"Delta":104715504},{"NoteNumber":43,"Velocity":34,"Duration":126582,"SoundDuration":126582,"Delta":104842086},{"NoteNumber":62,"Velocity":46,"Duration":126582,"SoundDuration":126582,"Delta":104968668},{"NoteNumber":71,"Velocity":55,"Duration":126582,"SoundDuration":126582,"Delta":104968668},{"NoteNumber":55,"Velocity":39,"Duration":126582,"SoundDuration":126582,"Delta":104968668},{"NoteNumber":62,"Velocity":49,"Duration":189075,"SoundDuration":189075,"Delta":105221833},{"NoteNumber":71,"Velocity":57,"Duration":189075,"SoundDuration":189075,"Delta":105221833},{"NoteNumber":48,"Velocity":46,"Duration":398075,"SoundDuration":398075,"Delta":105221833},{"NoteNumber":36,"Velocity":39,"Duration":398075,"SoundDuration":398075,"Delta":105221833},{"NoteNumber":67,"Velocity":48,"Duration":61813,"SoundDuration":61813,"Delta":105410909},{"NoteNumber":75,"Velocity":57,"Duration":61813,"SoundDuration":61813,"Delta":105410909},{"NoteNumber":67,"Velocity":61,"Duration":253164,"SoundDuration":253164,"Delta":105493326},{"NoteNumber":75,"Velocity":72,"Duration":253164,"SoundDuration":253164,"Delta":105493326},{"NoteNumber":36,"Velocity":54,"Duration":126582,"SoundDuration":126582,"Delta":105619909},{"NoteNumber":63,"Velocity":54,"Duration":130434,"SoundDuration":130434,"Delta":105746491},{"NoteNumber":72,"Velocity":66,"Duration":130434,"SoundDuration":130434,"Delta":105746491},{"NoteNumber":48,"Velocity":64,"Duration":130434,"SoundDuration":130434,"Delta":105746491},{"NoteNumber":69,"Velocity":59,"Duration":189075,"SoundDuration":189075,"Delta":106007360},{"NoteNumber":72,"Velocity":71,"Duration":189075,"SoundDuration":189075,"Delta":106007360},{"NoteNumber":29,"Velocity":55,"Duration":398303,"SoundDuration":398303,"Delta":106007360},{"NoteNumber":41,"Velocity":69,"Duration":398303,"SoundDuration":398303,"Delta":106007360},{"NoteNumber":72,"Velocity":65,"Duration":73369,"SoundDuration":73369,"Delta":106196436},{"NoteNumber":81,"Velocity":75,"Duration":73369,"SoundDuration":73369,"Delta":106196436},{"NoteNumber":72,"Velocity":80,"Duration":259740,"SoundDuration":259740,"Delta":106277958},{"NoteNumber":81,"Velocity":94,"Duration":259740,"SoundDuration":259740,"Delta":106277958},{"NoteNumber":41,"Velocity":75,"Duration":129870,"SoundDuration":129870,"Delta":106407828},{"NoteNumber":69,"Velocity":72,"Duration":71428,"SoundDuration":71428,"Delta":106537698},{"NoteNumber":77,"Velocity":87,"Duration":71428,"SoundDuration":71428,"Delta":106537698},{"NoteNumber":53,"Velocity":86,"Duration":71428,"SoundDuration":71428,"Delta":106537698},{"NoteNumber":70,"Velocity":90,"Duration":76142,"SoundDuration":76142,"Delta":106823413},{"NoteNumber":82,"Velocity":108,"Duration":76142,"SoundDuration":76142,"Delta":106823413},{"NoteNumber":34,"Velocity":66,"Duration":76142,"SoundDuration":76142,"Delta":106823413},{"NoteNumber":46,"Velocity":71,"Duration":76142,"SoundDuration":76142,"Delta":106823413},{"NoteNumber":70,"Velocity":90,"Duration":160427,"SoundDuration":160427,"Delta":107127981},{"NoteNumber":82,"Velocity":108,"Duration":160427,"SoundDuration":160427,"Delta":107127981},{"NoteNumber":34,"Velocity":66,"Duration":160427,"SoundDuration":160427,"Delta":107127981},{"NoteNumber":46,"Velocity":71,"Duration":160427,"SoundDuration":160427,"Delta":107127981},{"NoteNumber":83,"Velocity":43,"Duration":189075,"SoundDuration":189075,"Delta":107769692},{"NoteNumber":86,"Velocity":50,"Duration":189075,"SoundDuration":189075,"Delta":107769692},{"NoteNumber":77,"Velocity":40,"Duration":395965,"SoundDuration":395965,"Delta":107769692},{"NoteNumber":65,"Velocity":34,"Duration":395965,"SoundDuration":395965,"Delta":107769692},{"NoteNumber":86,"Velocity":42,"Duration":61813,"SoundDuration":61813,"Delta":107958768},{"NoteNumber":89,"Velocity":50,"Duration":61813,"SoundDuration":61813,"Delta":107958768},{"NoteNumber":86,"Velocity":53,"Duration":253164,"SoundDuration":253164,"Delta":108041186},{"NoteNumber":89,"Velocity":62,"Duration":253164,"SoundDuration":253164,"Delta":108041186},{"NoteNumber":65,"Velocity":34,"Duration":126582,"SoundDuration":126582,"Delta":108167768},{"NoteNumber":83,"Velocity":46,"Duration":133333,"SoundDuration":133333,"Delta":108294350},{"NoteNumber":86,"Velocity":55,"Duration":133333,"SoundDuration":133333,"Delta":108294350},{"NoteNumber":77,"Velocity":39,"Duration":133333,"SoundDuration":133333,"Delta":108294350},{"NoteNumber":83,"Velocity":43,"Duration":189075,"SoundDuration":189075,"Delta":108561017},{"NoteNumber":86,"Velocity":50,"Duration":189075,"SoundDuration":189075,"Delta":108561017},{"NoteNumber":53,"Velocity":34,"Duration":395965,"SoundDuration":395965,"Delta":108561017},{"NoteNumber":65,"Velocity":40,"Duration":395965,"SoundDuration":395965,"Delta":108561017},{"NoteNumber":87,"Velocity":42,"Duration":61813,"SoundDuration":61813,"Delta":108750092},{"NoteNumber":91,"Velocity":50,"Duration":61813,"SoundDuration":61813,"Delta":108750092},{"NoteNumber":87,"Velocity":53,"Duration":253164,"SoundDuration":253164,"Delta":108832510},{"NoteNumber":91,"Velocity":62,"Duration":253164,"SoundDuration":253164,"Delta":108832510},{"NoteNumber":53,"Velocity":34,"Duration":126582,"SoundDuration":126582,"Delta":108959092},{"NoteNumber":84,"Velocity":46,"Duration":135746,"SoundDuration":135746,"Delta":109085675},{"NoteNumber":87,"Velocity":55,"Duration":135746,"SoundDuration":135746,"Delta":109085675},{"NoteNumber":65,"Velocity":39,"Duration":135746,"SoundDuration":135746,"Delta":109085675},{"NoteNumber":81,"Velocity":43,"Duration":189075,"SoundDuration":189075,"Delta":109357168},{"NoteNumber":84,"Velocity":50,"Duration":189075,"SoundDuration":189075,"Delta":109357168},{"NoteNumber":65,"Velocity":40,"Duration":395965,"SoundDuration":395965,"Delta":109357168},{"NoteNumber":53,"Velocity":34,"Duration":395965,"SoundDuration":395965,"Delta":109357168},{"NoteNumber":84,"Velocity":42,"Duration":61813,"SoundDuration":61813,"Delta":109546243},{"NoteNumber":87,"Velocity":50,"Duration":61813,"SoundDuration":61813,"Delta":109546243},{"NoteNumber":84,"Velocity":53,"Duration":253164,"SoundDuration":253164,"Delta":109628661},{"NoteNumber":87,"Velocity":62,"Duration":253164,"SoundDuration":253164,"Delta":109628661},{"NoteNumber":75,"Velocity":39,"Duration":256452,"SoundDuration":256452,"Delta":109755243},{"NoteNumber":53,"Velocity":34,"Duration":126582,"SoundDuration":126582,"Delta":109755243},{"NoteNumber":81,"Velocity":46,"Duration":129870,"SoundDuration":129870,"Delta":109881825},{"NoteNumber":84,"Velocity":55,"Duration":129870,"SoundDuration":129870,"Delta":109881825},{"NoteNumber":65,"Velocity":39,"Duration":129870,"SoundDuration":129870,"Delta":109881825},{"NoteNumber":81,"Velocity":43,"Duration":189075,"SoundDuration":189075,"Delta":110141566},{"NoteNumber":84,"Velocity":50,"Duration":189075,"SoundDuration":189075,"Delta":110141566},{"NoteNumber":41,"Velocity":30,"Duration":395965,"SoundDuration":395965,"Delta":110141566},{"NoteNumber":53,"Velocity":36,"Duration":395965,"SoundDuration":395965,"Delta":110141566},{"NoteNumber":85,"Velocity":42,"Duration":61813,"SoundDuration":61813,"Delta":110330642},{"NoteNumber":89,"Velocity":50,"Duration":61813,"SoundDuration":61813,"Delta":110330642},{"NoteNumber":86,"Velocity":53,"Duration":253164,"SoundDuration":253164,"Delta":110413059},{"NoteNumber":89,"Velocity":62,"Duration":253164,"SoundDuration":253164,"Delta":110413059},{"NoteNumber":77,"Velocity":39,"Duration":253164,"SoundDuration":253164,"Delta":110539642},{"NoteNumber":41,"Velocity":34,"Duration":126582,"SoundDuration":126582,"Delta":110539642},{"NoteNumber":82,"Velocity":46,"Duration":126582,"SoundDuration":126582,"Delta":110666224},{"NoteNumber":86,"Velocity":55,"Duration":126582,"SoundDuration":126582,"Delta":110666224},{"NoteNumber":53,"Velocity":39,"Duration":126582,"SoundDuration":126582,"Delta":110666224},{"NoteNumber":69,"Velocity":38,"Duration":189075,"SoundDuration":189075,"Delta":110919388},{"NoteNumber":72,"Velocity":45,"Duration":189075,"SoundDuration":189075,"Delta":110919388},{"NoteNumber":60,"Velocity":30,"Duration":519383,"SoundDuration":519383,"Delta":110919388},{"NoteNumber":63,"Velocity":36,"Duration":519383,"SoundDuration":519383,"Delta":110919388},{"NoteNumber":54,"Velocity":30,"Duration":519383,"SoundDuration":519383,"Delta":110919388},{"NoteNumber":72,"Velocity":37,"Duration":61813,"SoundDuration":61813,"Delta":111108464},{"NoteNumber":75,"Velocity":45,"Duration":61813,"SoundDuration":61813,"Delta":111108464},{"NoteNumber":72,"Velocity":47,"Duration":506328,"SoundDuration":506328,"Delta":111190882},{"NoteNumber":75,"Velocity":55,"Duration":506328,"SoundDuration":506328,"Delta":111190882},{"NoteNumber":54,"Velocity":28,"Duration":253164,"SoundDuration":253164,"Delta":111444046},{"NoteNumber":60,"Velocity":28,"Duration":253164,"SoundDuration":253164,"Delta":111444046},{"NoteNumber":63,"Velocity":34,"Duration":253164,"SoundDuration":253164,"Delta":111444046},{"NoteNumber":70,"Velocity":40,"Duration":253164,"SoundDuration":253164,"Delta":111697211},{"NoteNumber":74,"Velocity":48,"Duration":253164,"SoundDuration":253164,"Delta":111697211},{"NoteNumber":62,"Velocity":34,"Duration":253164,"SoundDuration":253164,"Delta":111697211},{"NoteNumber":55,"Velocity":28,"Duration":253164,"SoundDuration":253164,"Delta":111697211},{"NoteNumber":58,"Velocity":28,"Duration":253164,"SoundDuration":253164,"Delta":111697211},{"NoteNumber":69,"Velocity":39,"Duration":262008,"SoundDuration":262008,"Delta":111950375},{"NoteNumber":72,"Velocity":46,"Duration":262008,"SoundDuration":262008,"Delta":111950375},{"NoteNumber":57,"Velocity":28,"Duration":131004,"SoundDuration":131004,"Delta":111950375},{"NoteNumber":60,"Velocity":34,"Duration":131004,"SoundDuration":131004,"Delta":111950375},{"NoteNumber":45,"Velocity":28,"Duration":131004,"SoundDuration":131004,"Delta":112081379},{"NoteNumber":67,"Velocity":38,"Duration":262008,"SoundDuration":262008,"Delta":112212384},{"NoteNumber":70,"Velocity":45,"Duration":262008,"SoundDuration":262008,"Delta":112212384},{"NoteNumber":58,"Velocity":33,"Duration":262008,"SoundDuration":262008,"Delta":112212384},{"NoteNumber":55,"Velocity":28,"Duration":262008,"SoundDuration":262008,"Delta":112212384},{"NoteNumber":46,"Velocity":28,"Duration":262008,"SoundDuration":262008,"Delta":112212384},{"NoteNumber":65,"Velocity":36,"Duration":542382,"SoundDuration":542382,"Delta":112474392},{"NoteNumber":69,"Velocity":43,"Duration":542382,"SoundDuration":542382,"Delta":112474392},{"NoteNumber":53,"Velocity":28,"Duration":542382,"SoundDuration":542382,"Delta":112474392},{"NoteNumber":47,"Velocity":28,"Duration":262008,"SoundDuration":262008,"Delta":112474392},{"NoteNumber":57,"Velocity":33,"Duration":542382,"SoundDuration":542382,"Delta":112474392},{"NoteNumber":48,"Velocity":28,"Duration":560748,"SoundDuration":560748,"Delta":112736401},{"NoteNumber":64,"Velocity":33,"Duration":280374,"SoundDuration":280374,"Delta":113016775},{"NoteNumber":67,"Velocity":39,"Duration":280374,"SoundDuration":280374,"Delta":113016775},{"NoteNumber":55,"Velocity":33,"Duration":280374,"SoundDuration":280374,"Delta":113016775},{"NoteNumber":52,"Velocity":27,"Duration":280374,"SoundDuration":280374,"Delta":113016775},{"NoteNumber":63,"Velocity":32,"Duration":589652,"SoundDuration":589652,"Delta":113297149},{"NoteNumber":67,"Velocity":32,"Duration":898930,"SoundDuration":898930,"Delta":113297149},{"NoteNumber":72,"Velocity":38,"Duration":589652,"SoundDuration":589652,"Delta":113297149},{"NoteNumber":51,"Velocity":27,"Duration":280373,"SoundDuration":280373,"Delta":113297149},{"NoteNumber":55,"Velocity":33,"Duration":280373,"SoundDuration":280373,"Delta":113297149},{"NoteNumber":60,"Velocity":32,"Duration":589652,"SoundDuration":589652,"Delta":113297149},{"NoteNumber":55,"Velocity":32,"Duration":618556,"SoundDuration":618556,"Delta":113577523},{"NoteNumber":62,"Velocity":32,"Duration":309278,"SoundDuration":309278,"Delta":113886801},{"NoteNumber":71,"Velocity":38,"Duration":309278,"SoundDuration":309278,"Delta":113886801},{"NoteNumber":59,"Velocity":30,"Duration":309278,"SoundDuration":309278,"Delta":113886801},{"NoteNumber":71,"Velocity":40,"Duration":189075,"SoundDuration":189075,"Delta":115123915},{"NoteNumber":74,"Velocity":40,"Duration":74175,"SoundDuration":74175,"Delta":115312991},{"NoteNumber":74,"Velocity":49,"Duration":253164,"SoundDuration":253164,"Delta":115395409},{"NoteNumber":71,"Velocity":44,"Duration":126582,"SoundDuration":126582,"Delta":115648573},{"NoteNumber":50,"Velocity":33,"Duration":398075,"SoundDuration":398075,"Delta":115901738},{"NoteNumber":59,"Velocity":40,"Duration":189075,"SoundDuration":189075,"Delta":115901738},{"NoteNumber":31,"Velocity":32,"Duration":189075,"SoundDuration":189075,"Delta":115901738},{"NoteNumber":43,"Velocity":27,"Duration":791324,"SoundDuration":791324,"Delta":115901738},{"NoteNumber":62,"Velocity":40,"Duration":74175,"SoundDuration":74175,"Delta":116090813},{"NoteNumber":35,"Velocity":32,"Duration":74175,"SoundDuration":74175,"Delta":116090813},{"NoteNumber":62,"Velocity":49,"Duration":253164,"SoundDuration":253164,"Delta":116173231},{"NoteNumber":35,"Velocity":40,"Duration":253164,"SoundDuration":253164,"Delta":116173231},{"NoteNumber":50,"Velocity":33,"Duration":259915,"SoundDuration":259915,"Delta":116299813},{"NoteNumber":59,"Velocity":44,"Duration":133333,"SoundDuration":133333,"Delta":116426395},{"NoteNumber":31,"Velocity":35,"Duration":133333,"SoundDuration":133333,"Delta":116426395},{"NoteNumber":84,"Velocity":46,"Duration":189075,"SoundDuration":189075,"Delta":116693062},{"NoteNumber":72,"Velocity":36,"Duration":189075,"SoundDuration":189075,"Delta":116693062},{"NoteNumber":87,"Velocity":46,"Duration":74175,"SoundDuration":74175,"Delta":116882138},{"NoteNumber":75,"Velocity":36,"Duration":74175,"SoundDuration":74175,"Delta":116882138},{"NoteNumber":87,"Velocity":56,"Duration":253164,"SoundDuration":253164,"Delta":116964555},{"NoteNumber":75,"Velocity":46,"Duration":253164,"SoundDuration":253164,"Delta":116964555},{"NoteNumber":84,"Velocity":50,"Duration":132743,"SoundDuration":132743,"Delta":117217720},{"NoteNumber":72,"Velocity":40,"Duration":132743,"SoundDuration":132743,"Delta":117217720},{"NoteNumber":74,"Velocity":43,"Duration":189075,"SoundDuration":189075,"Delta":117483206},{"NoteNumber":83,"Velocity":50,"Duration":189075,"SoundDuration":189075,"Delta":117483206},{"NoteNumber":67,"Velocity":40,"Duration":398075,"SoundDuration":398075,"Delta":117483206},{"NoteNumber":55,"Velocity":34,"Duration":398075,"SoundDuration":398075,"Delta":117483206},{"NoteNumber":77,"Velocity":42,"Duration":61813,"SoundDuration":61813,"Delta":117672282},{"NoteNumber":86,"Velocity":50,"Duration":61813,"SoundDuration":61813,"Delta":117672282},{"NoteNumber":77,"Velocity":53,"Duration":253164,"SoundDuration":253164,"Delta":117754700},{"NoteNumber":86,"Velocity":62,"Duration":253164,"SoundDuration":253164,"Delta":117754700},{"NoteNumber":55,"Velocity":34,"Duration":126582,"SoundDuration":126582,"Delta":117881282},{"NoteNumber":74,"Velocity":47,"Duration":126582,"SoundDuration":126582,"Delta":118007864},{"NoteNumber":83,"Velocity":56,"Duration":126582,"SoundDuration":126582,"Delta":118007864},{"NoteNumber":67,"Velocity":40,"Duration":126582,"SoundDuration":126582,"Delta":118007864},{"NoteNumber":74,"Velocity":51,"Duration":189075,"SoundDuration":189075,"Delta":118261029},{"NoteNumber":83,"Velocity":59,"Duration":189075,"SoundDuration":189075,"Delta":118261029},{"NoteNumber":60,"Velocity":48,"Duration":398075,"SoundDuration":398075,"Delta":118261029},{"NoteNumber":48,"Velocity":40,"Duration":398075,"SoundDuration":398075,"Delta":118261029},{"NoteNumber":79,"Velocity":50,"Duration":61813,"SoundDuration":61813,"Delta":118450104},{"NoteNumber":87,"Velocity":60,"Duration":61813,"SoundDuration":61813,"Delta":118450104},{"NoteNumber":79,"Velocity":63,"Duration":253164,"SoundDuration":253164,"Delta":118532522},{"NoteNumber":87,"Velocity":75,"Duration":253164,"SoundDuration":253164,"Delta":118532522},{"NoteNumber":48,"Velocity":55,"Duration":126582,"SoundDuration":126582,"Delta":118659104},{"NoteNumber":75,"Velocity":56,"Duration":136363,"SoundDuration":136363,"Delta":118785687},{"NoteNumber":84,"Velocity":68,"Duration":136363,"SoundDuration":136363,"Delta":118785687},{"NoteNumber":60,"Velocity":64,"Duration":136363,"SoundDuration":136363,"Delta":118785687},{"NoteNumber":81,"Velocity":63,"Duration":189075,"SoundDuration":189075,"Delta":119058414},{"NoteNumber":84,"Velocity":77,"Duration":189075,"SoundDuration":189075,"Delta":119058414},{"NoteNumber":41,"Velocity":59,"Duration":400467,"SoundDuration":400467,"Delta":119058414},{"NoteNumber":53,"Velocity":74,"Duration":400467,"SoundDuration":400467,"Delta":119058414},{"NoteNumber":84,"Velocity":69,"Duration":73369,"SoundDuration":73369,"Delta":119247490},{"NoteNumber":93,"Velocity":80,"Duration":73369,"SoundDuration":73369,"Delta":119247490},{"NoteNumber":84,"Velocity":85,"Duration":259740,"SoundDuration":259740,"Delta":119329012},{"NoteNumber":93,"Velocity":101,"Duration":259740,"SoundDuration":259740,"Delta":119329012},{"NoteNumber":41,"Velocity":70,"Duration":129870,"SoundDuration":129870,"Delta":119458882},{"NoteNumber":81,"Velocity":77,"Duration":71428,"SoundDuration":71428,"Delta":119588752},{"NoteNumber":89,"Velocity":93,"Duration":71428,"SoundDuration":71428,"Delta":119588752},{"NoteNumber":53,"Velocity":78,"Duration":71428,"SoundDuration":71428,"Delta":119588752},{"NoteNumber":82,"Velocity":99,"Duration":76142,"SoundDuration":76142,"Delta":119874467},{"NoteNumber":94,"Velocity":117,"Duration":76142,"SoundDuration":76142,"Delta":119874467},{"NoteNumber":34,"Velocity":72,"Duration":76142,"SoundDuration":76142,"Delta":119874467},{"NoteNumber":46,"Velocity":78,"Duration":76142,"SoundDuration":76142,"Delta":119874467},{"NoteNumber":82,"Velocity":99,"Duration":160427,"SoundDuration":160427,"Delta":120179035},{"NoteNumber":94,"Velocity":117,"Duration":160427,"SoundDuration":160427,"Delta":120179035},{"NoteNumber":34,"Velocity":72,"Duration":160427,"SoundDuration":160427,"Delta":120179035},{"NoteNumber":46,"Velocity":78,"Duration":160427,"SoundDuration":160427,"Delta":120179035},{"NoteNumber":59,"Velocity":28,"Duration":76142,"SoundDuration":76142,"Delta":120820746},{"NoteNumber":71,"Velocity":35,"Duration":76142,"SoundDuration":76142,"Delta":120820746},{"NoteNumber":35,"Velocity":21,"Duration":76142,"SoundDuration":76142,"Delta":120820746},{"NoteNumber":47,"Velocity":23,"Duration":76142,"SoundDuration":76142,"Delta":120820746},{"NoteNumber":59,"Velocity":28,"Duration":160427,"SoundDuration":160427,"Delta":121125315},{"NoteNumber":71,"Velocity":35,"Duration":160427,"SoundDuration":160427,"Delta":121125315},{"NoteNumber":35,"Velocity":21,"Duration":160427,"SoundDuration":160427,"Delta":121125315},{"NoteNumber":47,"Velocity":23,"Duration":160427,"SoundDuration":160427,"Delta":121125315},{"NoteNumber":82,"Velocity":99,"Duration":76142,"SoundDuration":76142,"Delta":121767026},{"NoteNumber":94,"Velocity":117,"Duration":76142,"SoundDuration":76142,"Delta":121767026},{"NoteNumber":34,"Velocity":72,"Duration":76142,"SoundDuration":76142,"Delta":121767026},{"NoteNumber":46,"Velocity":78,"Duration":76142,"SoundDuration":76142,"Delta":121767026},{"NoteNumber":82,"Velocity":99,"Duration":160427,"SoundDuration":160427,"Delta":122071594},{"NoteNumber":94,"Velocity":117,"Duration":160427,"SoundDuration":160427,"Delta":122071594},{"NoteNumber":34,"Velocity":72,"Duration":160427,"SoundDuration":160427,"Delta":122071594},{"NoteNumber":46,"Velocity":78,"Duration":160427,"SoundDuration":160427,"Delta":122071594},{"NoteNumber":59,"Velocity":25,"Duration":79365,"SoundDuration":79365,"Delta":122713305},{"NoteNumber":71,"Velocity":31,"Duration":79365,"SoundDuration":79365,"Delta":122713305},{"NoteNumber":35,"Velocity":18,"Duration":79365,"SoundDuration":79365,"Delta":122713305},{"NoteNumber":47,"Velocity":20,"Duration":79365,"SoundDuration":79365,"Delta":122713305},{"NoteNumber":59,"Velocity":25,"Duration":178571,"SoundDuration":178571,"Delta":123030766},{"NoteNumber":71,"Velocity":30,"Duration":178571,"SoundDuration":178571,"Delta":123030766},{"NoteNumber":35,"Velocity":18,"Duration":178571,"SoundDuration":178571,"Delta":123030766},{"NoteNumber":47,"Velocity":19,"Duration":178571,"SoundDuration":178571,"Delta":123030766},{"NoteNumber":58,"Velocity":23,"Duration":86206,"SoundDuration":86206,"Delta":123745052},{"NoteNumber":70,"Velocity":28,"Duration":86206,"SoundDuration":86206,"Delta":123745052},{"NoteNumber":34,"Velocity":17,"Duration":86206,"SoundDuration":86206,"Delta":123745052},{"NoteNumber":46,"Velocity":18,"Duration":86206,"SoundDuration":86206,"Delta":123745052},{"NoteNumber":58,"Velocity":22,"Duration":185185,"SoundDuration":185185,"Delta":124089879},{"NoteNumber":70,"Velocity":27,"Duration":185185,"SoundDuration":185185,"Delta":124089879},{"NoteNumber":34,"Velocity":17,"Duration":185185,"SoundDuration":185185,"Delta":124089879},{"NoteNumber":46,"Velocity":18,"Duration":185185,"SoundDuration":185185,"Delta":124089879},{"NoteNumber":62,"Velocity":31,"Duration":314685,"SoundDuration":314685,"Delta":124830620},{"NoteNumber":66,"Velocity":28,"Duration":99650,"SoundDuration":99650,"Delta":125145305},{"NoteNumber":66,"Velocity":33,"Duration":447760,"SoundDuration":447760,"Delta":125250201},{"NoteNumber":62,"Velocity":28,"Duration":256410,"SoundDuration":256410,"Delta":125697962},{"NoteNumber":59,"Velocity":22,"Duration":117187,"SoundDuration":117187,"Delta":126210782},{"NoteNumber":71,"Velocity":28,"Duration":117187,"SoundDuration":117187,"Delta":126210782},{"NoteNumber":35,"Velocity":16,"Duration":117187,"SoundDuration":117187,"Delta":126210782},{"NoteNumber":47,"Velocity":18,"Duration":117187,"SoundDuration":117187,"Delta":126210782},{"NoteNumber":59,"Velocity":22,"Duration":234375,"SoundDuration":234375,"Delta":126679532},{"NoteNumber":71,"Velocity":27,"Duration":234375,"SoundDuration":234375,"Delta":126679532},{"NoteNumber":35,"Velocity":16,"Duration":234375,"SoundDuration":234375,"Delta":126679532},{"NoteNumber":47,"Velocity":17,"Duration":234375,"SoundDuration":234375,"Delta":126679532},{"NoteNumber":59,"Velocity":22,"Duration":133928,"SoundDuration":133928,"Delta":127617032},{"NoteNumber":71,"Velocity":28,"Duration":133928,"SoundDuration":133928,"Delta":127617032},{"NoteNumber":35,"Velocity":16,"Duration":133928,"SoundDuration":133928,"Delta":127617032},{"NoteNumber":47,"Velocity":18,"Duration":133928,"SoundDuration":133928,"Delta":127617032},{"NoteNumber":59,"Velocity":22,"Duration":267857,"SoundDuration":267857,"Delta":128152747},{"NoteNumber":71,"Velocity":27,"Duration":267857,"SoundDuration":267857,"Delta":128152747},{"NoteNumber":35,"Velocity":16,"Duration":267857,"SoundDuration":267857,"Delta":128152747},{"NoteNumber":47,"Velocity":17,"Duration":267857,"SoundDuration":267857,"Delta":128152747},{"NoteNumber":59,"Velocity":39,"Duration":137731,"SoundDuration":137731,"Delta":129224176},{"NoteNumber":71,"Velocity":46,"Duration":137731,"SoundDuration":137731,"Delta":129224176},{"NoteNumber":35,"Velocity":25,"Duration":137731,"SoundDuration":137731,"Delta":129224176},{"NoteNumber":47,"Velocity":30,"Duration":137731,"SoundDuration":137731,"Delta":129224176},{"NoteNumber":59,"Velocity":39,"Duration":242857,"SoundDuration":242857,"Delta":129501954},{"NoteNumber":71,"Velocity":47,"Duration":242857,"SoundDuration":242857,"Delta":129501954},{"NoteNumber":35,"Velocity":34,"Duration":242857,"SoundDuration":242857,"Delta":129501954},{"NoteNumber":47,"Velocity":41,"Duration":242857,"SoundDuration":242857,"Delta":129501954},{"NoteNumber":59,"Velocity":43,"Duration":242857,"SoundDuration":242857,"Delta":129746852},{"NoteNumber":71,"Velocity":51,"Duration":242857,"SoundDuration":242857,"Delta":129746852},{"NoteNumber":35,"Velocity":38,"Duration":242857,"SoundDuration":242857,"Delta":129746852},{"NoteNumber":47,"Velocity":45,"Duration":242857,"SoundDuration":242857,"Delta":129746852},{"NoteNumber":59,"Velocity":45,"Duration":242857,"SoundDuration":242857,"Delta":129991750},{"NoteNumber":71,"Velocity":55,"Duration":242857,"SoundDuration":242857,"Delta":129991750},{"NoteNumber":35,"Velocity":42,"Duration":242857,"SoundDuration":242857,"Delta":129991750},{"NoteNumber":47,"Velocity":51,"Duration":242857,"SoundDuration":242857,"Delta":129991750},{"NoteNumber":59,"Velocity":50,"Duration":242126,"SoundDuration":242126,"Delta":130236648},{"NoteNumber":71,"Velocity":59,"Duration":242126,"SoundDuration":242126,"Delta":130236648},{"NoteNumber":35,"Velocity":46,"Duration":242126,"SoundDuration":242126,"Delta":130236648},{"NoteNumber":47,"Velocity":55,"Duration":242126,"SoundDuration":242126,"Delta":130236648},{"NoteNumber":59,"Velocity":55,"Duration":221446,"SoundDuration":221446,"Delta":130480704},{"NoteNumber":71,"Velocity":65,"Duration":221446,"SoundDuration":221446,"Delta":130480704},{"NoteNumber":35,"Velocity":52,"Duration":221446,"SoundDuration":221446,"Delta":130480704},{"NoteNumber":47,"Velocity":61,"Duration":221446,"SoundDuration":221446,"Delta":130480704},{"NoteNumber":71,"Velocity":60,"Duration":204672,"SoundDuration":204672,"Delta":130703936},{"NoteNumber":83,"Velocity":72,"Duration":204672,"SoundDuration":204672,"Delta":130703936},{"NoteNumber":35,"Velocity":55,"Duration":204672,"SoundDuration":204672,"Delta":130703936},{"NoteNumber":47,"Velocity":66,"Duration":204672,"SoundDuration":204672,"Delta":130703936},{"NoteNumber":71,"Velocity":66,"Duration":190223,"SoundDuration":190223,"Delta":130910258},{"NoteNumber":83,"Velocity":79,"Duration":190223,"SoundDuration":190223,"Delta":130910258},{"NoteNumber":35,"Velocity":60,"Duration":190223,"SoundDuration":190223,"Delta":130910258},{"NoteNumber":47,"Velocity":72,"Duration":190223,"SoundDuration":190223,"Delta":130910258},{"NoteNumber":71,"Velocity":73,"Duration":177464,"SoundDuration":177464,"Delta":131102025},{"NoteNumber":83,"Velocity":87,"Duration":177464,"SoundDuration":177464,"Delta":131102025},{"NoteNumber":35,"Velocity":65,"Duration":177464,"SoundDuration":177464,"Delta":131102025},{"NoteNumber":47,"Velocity":77,"Duration":177464,"SoundDuration":177464,"Delta":131102025},{"NoteNumber":71,"Velocity":96,"Duration":168835,"SoundDuration":168835,"Delta":131280913},{"NoteNumber":83,"Velocity":81,"Duration":168835,"SoundDuration":168835,"Delta":131280913},{"NoteNumber":35,"Velocity":70,"Duration":168835,"SoundDuration":168835,"Delta":131280913},{"NoteNumber":47,"Velocity":83,"Duration":168835,"SoundDuration":168835,"Delta":131280913},{"NoteNumber":83,"Velocity":81,"Duration":167162,"SoundDuration":167162,"Delta":131451162},{"NoteNumber":95,"Velocity":97,"Duration":167162,"SoundDuration":167162,"Delta":131451162},{"NoteNumber":35,"Velocity":67,"Duration":167162,"SoundDuration":167162,"Delta":131451162},{"NoteNumber":47,"Velocity":80,"Duration":167162,"SoundDuration":167162,"Delta":131451162},{"NoteNumber":83,"Velocity":82,"Duration":165547,"SoundDuration":165547,"Delta":131619720},{"NoteNumber":95,"Velocity":97,"Duration":165547,"SoundDuration":165547,"Delta":131619720},{"NoteNumber":35,"Velocity":70,"Duration":165547,"SoundDuration":165547,"Delta":131619720},{"NoteNumber":47,"Velocity":83,"Duration":165547,"SoundDuration":165547,"Delta":131619720},{"NoteNumber":83,"Velocity":83,"Duration":163975,"SoundDuration":163975,"Delta":131786653},{"NoteNumber":95,"Velocity":98,"Duration":163975,"SoundDuration":163975,"Delta":131786653},{"NoteNumber":35,"Velocity":71,"Duration":163975,"SoundDuration":163975,"Delta":131786653},{"NoteNumber":47,"Velocity":84,"Duration":163975,"SoundDuration":163975,"Delta":131786653},{"NoteNumber":95,"Velocity":105,"Duration":163461,"SoundDuration":163461,"Delta":131952003},{"NoteNumber":83,"Velocity":88,"Duration":163461,"SoundDuration":163461,"Delta":131952003},{"NoteNumber":35,"Velocity":72,"Duration":163461,"SoundDuration":163461,"Delta":131952003},{"NoteNumber":47,"Velocity":86,"Duration":163461,"SoundDuration":163461,"Delta":131952003},{"NoteNumber":95,"Velocity":99,"Duration":163461,"SoundDuration":163461,"Delta":132116838},{"NoteNumber":83,"Velocity":83,"Duration":163461,"SoundDuration":163461,"Delta":132116838},{"NoteNumber":35,"Velocity":70,"Duration":163461,"SoundDuration":163461,"Delta":132116838},{"NoteNumber":47,"Velocity":82,"Duration":163461,"SoundDuration":163461,"Delta":132116838},{"NoteNumber":95,"Velocity":100,"Duration":190626,"SoundDuration":190626,"Delta":132281673},{"NoteNumber":83,"Velocity":84,"Duration":190626,"SoundDuration":190626,"Delta":132281673},{"NoteNumber":35,"Velocity":70,"Duration":190626,"SoundDuration":190626,"Delta":132281673},{"NoteNumber":47,"Velocity":83,"Duration":190626,"SoundDuration":190626,"Delta":132281673},{"NoteNumber":82,"Velocity":92,"Duration":88599,"SoundDuration":88599,"Delta":132472299},{"NoteNumber":94,"Velocity":109,"Duration":88599,"SoundDuration":88599,"Delta":132472299},{"NoteNumber":34,"Velocity":84,"Duration":88599,"SoundDuration":88599,"Delta":132472299},{"NoteNumber":46,"Velocity":99,"Duration":88599,"SoundDuration":88599,"Delta":132472299},{"NoteNumber":82,"Velocity":92,"Duration":91463,"SoundDuration":91463,"Delta":132651445},{"NoteNumber":94,"Velocity":109,"Duration":91463,"SoundDuration":91463,"Delta":132651445},{"NoteNumber":34,"Velocity":84,"Duration":91463,"SoundDuration":91463,"Delta":132651445},{"NoteNumber":46,"Velocity":99,"Duration":91463,"SoundDuration":91463,"Delta":132651445},{"NoteNumber":62,"Velocity":40,"Duration":189097,"SoundDuration":189097,"Delta":133121804},{"NoteNumber":58,"Velocity":32,"Duration":189097,"SoundDuration":189097,"Delta":133121804},{"NoteNumber":65,"Velocity":40,"Duration":72559,"SoundDuration":72559,"Delta":133310902},{"NoteNumber":53,"Velocity":32,"Duration":72559,"SoundDuration":72559,"Delta":133310902},{"NoteNumber":65,"Velocity":49,"Duration":254758,"SoundDuration":254758,"Delta":133391704},{"NoteNumber":57,"Velocity":40,"Duration":254758,"SoundDuration":254758,"Delta":133391704},{"NoteNumber":60,"Velocity":46,"Duration":253164,"SoundDuration":253164,"Delta":133519880},{"NoteNumber":53,"Velocity":33,"Duration":126582,"SoundDuration":126582,"Delta":133646462},{"NoteNumber":62,"Velocity":44,"Duration":126582,"SoundDuration":126582,"Delta":133646462},{"NoteNumber":58,"Velocity":35,"Duration":126582,"SoundDuration":126582,"Delta":133646462},{"NoteNumber":74,"Velocity":40,"Duration":189093,"SoundDuration":189093,"Delta":133889188},{"NoteNumber":70,"Velocity":32,"Duration":189093,"SoundDuration":189093,"Delta":133889188},{"NoteNumber":77,"Velocity":40,"Duration":72883,"SoundDuration":72883,"Delta":134078281},{"NoteNumber":65,"Velocity":32,"Duration":72883,"SoundDuration":72883,"Delta":134078281},{"NoteNumber":77,"Velocity":49,"Duration":254439,"SoundDuration":254439,"Delta":134159406},{"NoteNumber":69,"Velocity":40,"Duration":254439,"SoundDuration":254439,"Delta":134159406},{"NoteNumber":72,"Velocity":33,"Duration":253164,"SoundDuration":253164,"Delta":134287263},{"NoteNumber":65,"Velocity":33,"Duration":126582,"SoundDuration":126582,"Delta":134413845},{"NoteNumber":74,"Velocity":44,"Duration":126582,"SoundDuration":126582,"Delta":134413845},{"NoteNumber":70,"Velocity":35,"Duration":126582,"SoundDuration":126582,"Delta":134413845},{"NoteNumber":86,"Velocity":34,"Duration":189093,"SoundDuration":189093,"Delta":134685945},{"NoteNumber":82,"Velocity":27,"Duration":189093,"SoundDuration":189093,"Delta":134685945},{"NoteNumber":89,"Velocity":34,"Duration":72883,"SoundDuration":72883,"Delta":134875039},{"NoteNumber":77,"Velocity":27,"Duration":72883,"SoundDuration":72883,"Delta":134875039},{"NoteNumber":89,"Velocity":41,"Duration":254439,"SoundDuration":254439,"Delta":134956163},{"NoteNumber":81,"Velocity":34,"Duration":254439,"SoundDuration":254439,"Delta":134956163},{"NoteNumber":84,"Velocity":35,"Duration":253164,"SoundDuration":253164,"Delta":135084021},{"NoteNumber":77,"Velocity":28,"Duration":126582,"SoundDuration":126582,"Delta":135210603},{"NoteNumber":86,"Velocity":37,"Duration":126582,"SoundDuration":126582,"Delta":135210603},{"NoteNumber":82,"Velocity":29,"Duration":126582,"SoundDuration":126582,"Delta":135210603}],"license":{"name":"Creative Commons Attribution-ShareAlike 3.0 Germany","url":"http://creativecommons.org/licenses/by-sa/3.0/de/deed.en","text":"The MIDI, audio (MP3, OGG) and video files of Bernd Krueger are licensed under the cc-by-sa Germany License. This means that you can use and adapt the files, as long as you attribute the copyright holder.\n\nName: Bernd Krueger\nSource: http://www.piano-midi.de\n\nThe distribution or public playback of the files is only allowed under identical license conditions.\n\nThe scores are open source.","attribution":"MIDI files by Bernd Krueger (piano-midi.de)","attributionUrl":"http://www.piano-midi.de"}}