{"title":"Hammerklaviersonate 4. Satz","artist":"Beethoven","durationMs":641853,"midiSha256":"c3b0ff902da5a62c3ea30f37b771db3288e7782a33a0ff0933c6856207ee1990","midiObject":[{"NoteNumber":41,"Velocity":50,"Duration":182215,"SoundDuration":182215,"Delta":0},{"NoteNumber":53,"Velocity":46,"Duration":136661,"SoundDuration":136661,"Delta":182215},{"NoteNumber":53,"Velocity":54,"Duration":182215,"SoundDuration":182215,"Delta":364431},{"NoteNumber":65,"Velocity":46,"Duration":136661,"SoundDuration":136661,"Delta":546647},{"NoteNumber":65,"Velocity":50,"Duration":182215,"SoundDuration":182215,"Delta":728862},{"NoteNumber":77,"Velocity":46,"Duration":136661,"SoundDuration":136661,"Delta":911078},{"NoteNumber":77,"Velocity":59,"Duration":187335,"SoundDuration":187335,"Delta":1093294},{"NoteNumber":89,"Velocity":66,"Duration":3731374,"SoundDuration":3731374,"Delta":1280630},{"NoteNumber":29,"Velocity":30,"Duration":3531051,"SoundDuration":3531051,"Delta":1480953},{"NoteNumber":41,"Velocity":36,"Duration":3531051,"SoundDuration":3531051,"Delta":1480953},{"NoteNumber":77,"Velocity":51,"Duration":3317740,"SoundDuration":3317740,"Delta":1694263},{"NoteNumber":89,"Velocity":50,"Duration":867386,"SoundDuration":867386,"Delta":5012004},{"NoteNumber":77,"Velocity":42,"Duration":867386,"SoundDuration":867386,"Delta":5012004},{"NoteNumber":41,"Velocity":27,"Duration":578257,"SoundDuration":578257,"Delta":5879390},{"NoteNumber":53,"Velocity":32,"Duration":578257,"SoundDuration":578257,"Delta":5879390},{"NoteNumber":85,"Velocity":39,"Duration":867386,"SoundDuration":867386,"Delta":7325034},{"NoteNumber":89,"Velocity":47,"Duration":867386,"SoundDuration":867386,"Delta":7325034},{"NoteNumber":80,"Velocity":39,"Duration":867386,"SoundDuration":867386,"Delta":7325034},{"NoteNumber":77,"Velocity":39,"Duration":867386,"SoundDuration":867386,"Delta":7325034},{"NoteNumber":37,"Velocity":28,"Duration":578257,"SoundDuration":578257,"Delta":8192420},{"NoteNumber":49,"Velocity":34,"Duration":578257,"SoundDuration":578257,"Delta":8192420},{"NoteNumber":89,"Velocity":40,"Duration":867386,"SoundDuration":867386,"Delta":9638064},{"NoteNumber":82,"Velocity":34,"Duration":867386,"SoundDuration":867386,"Delta":9638064},{"NoteNumber":77,"Velocity":34,"Duration":867386,"SoundDuration":867386,"Delta":9638064},{"NoteNumber":85,"Velocity":34,"Duration":867386,"SoundDuration":867386,"Delta":9638064},{"NoteNumber":34,"Velocity":26,"Duration":578257,"SoundDuration":578257,"Delta":10505450},{"NoteNumber":46,"Velocity":31,"Duration":578257,"SoundDuration":578257,"Delta":10505450},{"NoteNumber":82,"Velocity":32,"Duration":2231022,"SoundDuration":2231022,"Delta":11951094},{"NoteNumber":78,"Velocity":32,"Duration":2231022,"SoundDuration":2231022,"Delta":11951094},{"NoteNumber":90,"Velocity":38,"Duration":2231022,"SoundDuration":2231022,"Delta":11951094},{"NoteNumber":85,"Velocity":32,"Duration":2231022,"SoundDuration":2231022,"Delta":11951094},{"NoteNumber":30,"Velocity":20,"Duration":1363636,"SoundDuration":1363636,"Delta":12818480},{"NoteNumber":42,"Velocity":24,"Duration":1363636,"SoundDuration":1363636,"Delta":12818480},{"NoteNumber":73,"Velocity":37,"Duration":280164,"SoundDuration":280164,"Delta":15063778},{"NoteNumber":78,"Velocity":41,"Duration":278396,"SoundDuration":278396,"Delta":15343943},{"NoteNumber":73,"Velocity":36,"Duration":278396,"SoundDuration":278396,"Delta":15622339},{"NoteNumber":78,"Velocity":42,"Duration":278396,"SoundDuration":278396,"Delta":15900736},{"NoteNumber":73,"Velocity":35,"Duration":278396,"SoundDuration":278396,"Delta":16179132},{"NoteNumber":78,"Velocity":42,"Duration":278396,"SoundDuration":278396,"Delta":16457529},{"NoteNumber":70,"Velocity":38,"Duration":306874,"SoundDuration":306874,"Delta":16735925},{"NoteNumber":75,"Velocity":48,"Duration":2267749,"SoundDuration":2267749,"Delta":17042799},{"NoteNumber":66,"Velocity":35,"Duration":281003,"SoundDuration":281003,"Delta":17323803},{"NoteNumber":71,"Velocity":41,"Duration":281004,"SoundDuration":281004,"Delta":17604807},{"NoteNumber":66,"Velocity":35,"Duration":281003,"SoundDuration":281003,"Delta":17885811},{"NoteNumber":71,"Velocity":43,"Duration":281003,"SoundDuration":281003,"Delta":18166815},{"NoteNumber":66,"Velocity":37,"Duration":281003,"SoundDuration":281003,"Delta":18447819},{"NoteNumber":71,"Velocity":42,"Duration":281003,"SoundDuration":281003,"Delta":18728823},{"NoteNumber":63,"Velocity":39,"Duration":300721,"SoundDuration":300721,"Delta":19009827},{"NoteNumber":75,"Velocity":47,"Duration":556792,"SoundDuration":556792,"Delta":19310549},{"NoteNumber":65,"Velocity":33,"Duration":278396,"SoundDuration":278396,"Delta":19310549},{"NoteNumber":68,"Velocity":32,"Duration":278396,"SoundDuration":278396,"Delta":19588945},{"NoteNumber":53,"Velocity":29,"Duration":278396,"SoundDuration":278396,"Delta":19588945},{"NoteNumber":73,"Velocity":43,"Duration":1113586,"SoundDuration":1113586,"Delta":19867342},{"NoteNumber":65,"Velocity":30,"Duration":278396,"SoundDuration":278396,"Delta":19867342},{"NoteNumber":56,"Velocity":32,"Duration":278396,"SoundDuration":278396,"Delta":19867342},{"NoteNumber":68,"Velocity":37,"Duration":278396,"SoundDuration":278396,"Delta":20145738},{"NoteNumber":53,"Velocity":27,"Duration":278396,"SoundDuration":278396,"Delta":20145738},{"NoteNumber":65,"Velocity":35,"Duration":278396,"SoundDuration":278396,"Delta":20424135},{"NoteNumber":56,"Velocity":32,"Duration":278396,"SoundDuration":278396,"Delta":20424135},{"NoteNumber":68,"Velocity":38,"Duration":278396,"SoundDuration":278396,"Delta":20702531},{"NoteNumber":53,"Velocity":26,"Duration":278396,"SoundDuration":278396,"Delta":20702531},{"NoteNumber":65,"Velocity":28,"Duration":278396,"SoundDuration":278396,"Delta":20980928},{"NoteNumber":71,"Velocity":39,"Duration":556792,"SoundDuration":556792,"Delta":20980928},{"NoteNumber":56,"Velocity":31,"Duration":278396,"SoundDuration":278396,"Delta":20980928},{"NoteNumber":68,"Velocity":27,"Duration":278396,"SoundDuration":278396,"Delta":21259324},{"NoteNumber":49,"Velocity":25,"Duration":278396,"SoundDuration":278396,"Delta":21259324},{"NoteNumber":66,"Velocity":38,"Duration":589622,"SoundDuration":589622,"Delta":21537721},{"NoteNumber":70,"Velocity":45,"Duration":589622,"SoundDuration":589622,"Delta":21537721},{"NoteNumber":54,"Velocity":38,"Duration":589622,"SoundDuration":589622,"Delta":21537721},{"NoteNumber":69,"Velocity":38,"Duration":562007,"SoundDuration":562007,"Delta":22127343},{"NoteNumber":66,"Velocity":38,"Duration":562007,"SoundDuration":562007,"Delta":22127343},{"NoteNumber":75,"Velocity":45,"Duration":562007,"SoundDuration":562007,"Delta":22127343},{"NoteNumber":48,"Velocity":30,"Duration":562007,"SoundDuration":562007,"Delta":22127343},{"NoteNumber":65,"Velocity":34,"Duration":1042662,"SoundDuration":1042662,"Delta":22689351},{"NoteNumber":68,"Velocity":40,"Duration":1042662,"SoundDuration":1042662,"Delta":22689351},{"NoteNumber":49,"Velocity":28,"Duration":572737,"SoundDuration":572737,"Delta":22689351},{"NoteNumber":42,"Velocity":28,"Duration":644831,"SoundDuration":644831,"Delta":23262089},{"NoteNumber":66,"Velocity":29,"Duration":174906,"SoundDuration":174906,"Delta":23732014},{"NoteNumber":70,"Velocity":35,"Duration":174906,"SoundDuration":174906,"Delta":23732014},{"NoteNumber":78,"Velocity":39,"Duration":589622,"SoundDuration":589622,"Delta":23906920},{"NoteNumber":82,"Velocity":47,"Duration":589622,"SoundDuration":589622,"Delta":23906920},{"NoteNumber":70,"Velocity":39,"Duration":589622,"SoundDuration":589622,"Delta":23906920},{"NoteNumber":73,"Velocity":39,"Duration":589622,"SoundDuration":589622,"Delta":23906920},{"NoteNumber":54,"Velocity":31,"Duration":640592,"SoundDuration":640592,"Delta":24496543},{"NoteNumber":42,"Velocity":26,"Duration":640592,"SoundDuration":640592,"Delta":24496543},{"NoteNumber":78,"Velocity":34,"Duration":902747,"SoundDuration":902747,"Delta":25482917},{"NoteNumber":70,"Velocity":34,"Duration":902747,"SoundDuration":902747,"Delta":25482917},{"NoteNumber":75,"Velocity":34,"Duration":902747,"SoundDuration":902747,"Delta":25482917},{"NoteNumber":82,"Velocity":41,"Duration":902747,"SoundDuration":902747,"Delta":25482917},{"NoteNumber":51,"Velocity":32,"Duration":653879,"SoundDuration":653879,"Delta":26385664},{"NoteNumber":39,"Velocity":27,"Duration":653879,"SoundDuration":653879,"Delta":26385664},{"NoteNumber":78,"Velocity":32,"Duration":2175664,"SoundDuration":2175664,"Delta":27366483},{"NoteNumber":87,"Velocity":39,"Duration":2175664,"SoundDuration":2175664,"Delta":27366483},{"NoteNumber":75,"Velocity":32,"Duration":2175664,"SoundDuration":2175664,"Delta":27366483},{"NoteNumber":35,"Velocity":27,"Duration":1764706,"SoundDuration":1764706,"Delta":27777442},{"NoteNumber":47,"Velocity":32,"Duration":1764706,"SoundDuration":1764706,"Delta":27777442},{"NoteNumber":54,"Velocity":30,"Duration":198991,"SoundDuration":198991,"Delta":29542148},{"NoteNumber":56,"Velocity":31,"Duration":198991,"SoundDuration":198991,"Delta":29741140},{"NoteNumber":58,"Velocity":31,"Duration":198991,"SoundDuration":198991,"Delta":29940132},{"NoteNumber":59,"Velocity":32,"Duration":196232,"SoundDuration":196232,"Delta":30139124},{"NoteNumber":61,"Velocity":33,"Duration":195722,"SoundDuration":195722,"Delta":30335356},{"NoteNumber":63,"Velocity":34,"Duration":194956,"SoundDuration":194956,"Delta":30531078},{"NoteNumber":64,"Velocity":35,"Duration":193750,"SoundDuration":193750,"Delta":30726035},{"NoteNumber":63,"Velocity":36,"Duration":193253,"SoundDuration":193253,"Delta":30919786},{"NoteNumber":66,"Velocity":35,"Duration":189248,"SoundDuration":189248,"Delta":31113039},{"NoteNumber":59,"Velocity":33,"Duration":211680,"SoundDuration":211680,"Delta":31113039},{"NoteNumber":68,"Velocity":38,"Duration":210454,"SoundDuration":210454,"Delta":31305494},{"NoteNumber":66,"Velocity":39,"Duration":210454,"SoundDuration":210454,"Delta":31305494},{"NoteNumber":70,"Velocity":41,"Duration":209645,"SoundDuration":209645,"Delta":31496826},{"NoteNumber":64,"Velocity":39,"Duration":209645,"SoundDuration":209645,"Delta":31496826},{"NoteNumber":71,"Velocity":45,"Duration":209019,"SoundDuration":209019,"Delta":31687469},{"NoteNumber":63,"Velocity":40,"Duration":209019,"SoundDuration":209019,"Delta":31687469},{"NoteNumber":73,"Velocity":48,"Duration":209019,"SoundDuration":209019,"Delta":31877487},{"NoteNumber":61,"Velocity":41,"Duration":209019,"SoundDuration":209019,"Delta":31877487},{"NoteNumber":75,"Velocity":52,"Duration":209019,"SoundDuration":209019,"Delta":32067505},{"NoteNumber":59,"Velocity":42,"Duration":209019,"SoundDuration":209019,"Delta":32067505},{"NoteNumber":76,"Velocity":52,"Duration":209019,"SoundDuration":209019,"Delta":32257523},{"NoteNumber":58,"Velocity":43,"Duration":209019,"SoundDuration":209019,"Delta":32257523},{"NoteNumber":75,"Velocity":55,"Duration":209019,"SoundDuration":209019,"Delta":32447540},{"NoteNumber":59,"Velocity":43,"Duration":209019,"SoundDuration":209019,"Delta":32447540},{"NoteNumber":71,"Velocity":52,"Duration":190017,"SoundDuration":190017,"Delta":32637558},{"NoteNumber":54,"Velocity":38,"Duration":190017,"SoundDuration":190017,"Delta":32637558},{"NoteNumber":78,"Velocity":57,"Duration":209019,"SoundDuration":209019,"Delta":32827576},{"NoteNumber":56,"Velocity":44,"Duration":209019,"SoundDuration":209019,"Delta":32827576},{"NoteNumber":76,"Velocity":55,"Duration":209019,"SoundDuration":209019,"Delta":33017594},{"NoteNumber":58,"Velocity":44,"Duration":209019,"SoundDuration":209019,"Delta":33017594},{"NoteNumber":75,"Velocity":53,"Duration":209019,"SoundDuration":209019,"Delta":33207611},{"NoteNumber":59,"Velocity":43,"Duration":209019,"SoundDuration":209019,"Delta":33207611},{"NoteNumber":73,"Velocity":51,"Duration":209019,"SoundDuration":209019,"Delta":33397629},{"NoteNumber":61,"Velocity":43,"Duration":209019,"SoundDuration":209019,"Delta":33397629},{"NoteNumber":71,"Velocity":49,"Duration":210582,"SoundDuration":210582,"Delta":33587647},{"NoteNumber":63,"Velocity":42,"Duration":210582,"SoundDuration":210582,"Delta":33587647},{"NoteNumber":70,"Velocity":47,"Duration":224756,"SoundDuration":224756,"Delta":33777665},{"NoteNumber":64,"Velocity":42,"Duration":224756,"SoundDuration":224756,"Delta":33777665},{"NoteNumber":71,"Velocity":47,"Duration":191082,"SoundDuration":191082,"Delta":33983313},{"NoteNumber":63,"Velocity":42,"Duration":191082,"SoundDuration":191082,"Delta":33983313},{"NoteNumber":78,"Velocity":47,"Duration":182098,"SoundDuration":182098,"Delta":34174396},{"NoteNumber":75,"Velocity":42,"Duration":203703,"SoundDuration":203703,"Delta":34174396},{"NoteNumber":80,"Velocity":47,"Duration":203703,"SoundDuration":203703,"Delta":34359581},{"NoteNumber":78,"Velocity":39,"Duration":203703,"SoundDuration":203703,"Delta":34359581},{"NoteNumber":82,"Velocity":49,"Duration":203703,"SoundDuration":203703,"Delta":34544766},{"NoteNumber":76,"Velocity":40,"Duration":203703,"SoundDuration":203703,"Delta":34544766},{"NoteNumber":83,"Velocity":50,"Duration":203703,"SoundDuration":203703,"Delta":34729952},{"NoteNumber":75,"Velocity":42,"Duration":203703,"SoundDuration":203703,"Delta":34729952},{"NoteNumber":85,"Velocity":52,"Duration":203703,"SoundDuration":203703,"Delta":34915137},{"NoteNumber":73,"Velocity":44,"Duration":203703,"SoundDuration":203703,"Delta":34915137},{"NoteNumber":87,"Velocity":53,"Duration":205319,"SoundDuration":205319,"Delta":35100322},{"NoteNumber":71,"Velocity":45,"Duration":205319,"SoundDuration":205319,"Delta":35100322},{"NoteNumber":88,"Velocity":52,"Duration":219860,"SoundDuration":219860,"Delta":35285507},{"NoteNumber":70,"Velocity":47,"Duration":219860,"SoundDuration":219860,"Delta":35285507},{"NoteNumber":87,"Velocity":59,"Duration":203703,"SoundDuration":203703,"Delta":35486850},{"NoteNumber":71,"Velocity":50,"Duration":203703,"SoundDuration":203703,"Delta":35486850},{"NoteNumber":85,"Velocity":47,"Duration":203703,"SoundDuration":203703,"Delta":35672035},{"NoteNumber":70,"Velocity":42,"Duration":203703,"SoundDuration":203703,"Delta":35672035},{"NoteNumber":83,"Velocity":47,"Duration":203703,"SoundDuration":203703,"Delta":35857220},{"NoteNumber":75,"Velocity":42,"Duration":203703,"SoundDuration":203703,"Delta":35857220},{"NoteNumber":82,"Velocity":47,"Duration":203703,"SoundDuration":203703,"Delta":36042405},{"NoteNumber":73,"Velocity":42,"Duration":203703,"SoundDuration":203703,"Delta":36042405},{"NoteNumber":80,"Velocity":54,"Duration":203703,"SoundDuration":203703,"Delta":36227591},{"NoteNumber":71,"Velocity":49,"Duration":203703,"SoundDuration":203703,"Delta":36227591},{"NoteNumber":78,"Velocity":47,"Duration":203703,"SoundDuration":203703,"Delta":36412776},{"NoteNumber":70,"Velocity":37,"Duration":203703,"SoundDuration":203703,"Delta":36412776},{"NoteNumber":76,"Velocity":47,"Duration":205185,"SoundDuration":205185,"Delta":36597961},{"NoteNumber":68,"Velocity":37,"Duration":205185,"SoundDuration":205185,"Delta":36597961},{"NoteNumber":75,"Velocity":47,"Duration":218404,"SoundDuration":218404,"Delta":36783146},{"NoteNumber":66,"Velocity":37,"Duration":218404,"SoundDuration":218404,"Delta":36783146},{"NoteNumber":73,"Velocity":51,"Duration":202453,"SoundDuration":202453,"Delta":36983146},{"NoteNumber":64,"Velocity":46,"Duration":202453,"SoundDuration":202453,"Delta":36983146},{"NoteNumber":71,"Velocity":47,"Duration":202453,"SoundDuration":202453,"Delta":37167195},{"NoteNumber":63,"Velocity":42,"Duration":202453,"SoundDuration":202453,"Delta":37167195},{"NoteNumber":70,"Velocity":47,"Duration":204183,"SoundDuration":204183,"Delta":37351244},{"NoteNumber":61,"Velocity":42,"Duration":204183,"SoundDuration":204183,"Delta":37351244},{"NoteNumber":68,"Velocity":47,"Duration":219860,"SoundDuration":219860,"Delta":37535293},{"NoteNumber":59,"Velocity":42,"Duration":219860,"SoundDuration":219860,"Delta":37535293},{"NoteNumber":66,"Velocity":51,"Duration":185185,"SoundDuration":185185,"Delta":37736636},{"NoteNumber":58,"Velocity":42,"Duration":185185,"SoundDuration":185185,"Delta":37736636},{"NoteNumber":76,"Velocity":54,"Duration":185185,"SoundDuration":185185,"Delta":37921821},{"NoteNumber":61,"Velocity":45,"Duration":185185,"SoundDuration":185185,"Delta":37921821},{"NoteNumber":75,"Velocity":57,"Duration":185185,"SoundDuration":185185,"Delta":38107006},{"NoteNumber":59,"Velocity":47,"Duration":185185,"SoundDuration":185185,"Delta":38107006},{"NoteNumber":80,"Velocity":60,"Duration":185185,"SoundDuration":185185,"Delta":38292191},{"NoteNumber":64,"Velocity":50,"Duration":185185,"SoundDuration":185185,"Delta":38292191},{"NoteNumber":78,"Velocity":60,"Duration":187794,"SoundDuration":187794,"Delta":38477377},{"NoteNumber":63,"Velocity":50,"Duration":187794,"SoundDuration":187794,"Delta":38477377},{"NoteNumber":83,"Velocity":45,"Duration":211896,"SoundDuration":211896,"Delta":38665171},{"NoteNumber":62,"Velocity":39,"Duration":211896,"SoundDuration":211896,"Delta":38665171},{"NoteNumber":82,"Velocity":52,"Duration":245980,"SoundDuration":245980,"Delta":38877067},{"NoteNumber":61,"Velocity":47,"Duration":245980,"SoundDuration":245980,"Delta":38877067},{"NoteNumber":88,"Velocity":49,"Duration":293160,"SoundDuration":293160,"Delta":39123047},{"NoteNumber":54,"Velocity":40,"Duration":293160,"SoundDuration":293160,"Delta":39123047},{"NoteNumber":76,"Velocity":41,"Duration":2727272,"SoundDuration":2727272,"Delta":39416207},{"NoteNumber":82,"Velocity":41,"Duration":2727272,"SoundDuration":2727272,"Delta":39416207},{"NoteNumber":88,"Velocity":49,"Duration":2727272,"SoundDuration":2727272,"Delta":39416207},{"NoteNumber":61,"Velocity":34,"Duration":2727272,"SoundDuration":2727272,"Delta":39416207},{"NoteNumber":66,"Velocity":40,"Duration":2727272,"SoundDuration":2727272,"Delta":39416207},{"NoteNumber":54,"Velocity":34,"Duration":2727272,"SoundDuration":2727272,"Delta":39416207},{"NoteNumber":83,"Velocity":41,"Duration":811688,"SoundDuration":811688,"Delta":42143480},{"NoteNumber":87,"Velocity":49,"Duration":811688,"SoundDuration":811688,"Delta":42143480},{"NoteNumber":78,"Velocity":41,"Duration":811688,"SoundDuration":811688,"Delta":42143480},{"NoteNumber":75,"Velocity":41,"Duration":811688,"SoundDuration":811688,"Delta":42143480},{"NoteNumber":47,"Velocity":32,"Duration":541125,"SoundDuration":541125,"Delta":42955169},{"NoteNumber":35,"Velocity":32,"Duration":541125,"SoundDuration":541125,"Delta":42955169},{"NoteNumber":75,"Velocity":49,"Duration":838258,"SoundDuration":838258,"Delta":44307982},{"NoteNumber":83,"Velocity":49,"Duration":838258,"SoundDuration":838258,"Delta":44307982},{"NoteNumber":87,"Velocity":49,"Duration":838258,"SoundDuration":838258,"Delta":44307982},{"NoteNumber":80,"Velocity":49,"Duration":838258,"SoundDuration":838258,"Delta":44307982},{"NoteNumber":32,"Velocity":82,"Duration":284964,"SoundDuration":284964,"Delta":44991665},{"NoteNumber":44,"Velocity":82,"Duration":284964,"SoundDuration":284964,"Delta":44991665},{"NoteNumber":75,"Velocity":37,"Duration":130389,"SoundDuration":130389,"Delta":45146241},{"NoteNumber":68,"Velocity":37,"Duration":127616,"SoundDuration":127616,"Delta":45276630},{"NoteNumber":75,"Velocity":37,"Duration":127616,"SoundDuration":127616,"Delta":45404246},{"NoteNumber":76,"Velocity":46,"Duration":127075,"SoundDuration":127075,"Delta":45531863},{"NoteNumber":75,"Velocity":40,"Duration":127075,"SoundDuration":127075,"Delta":45658938},{"NoteNumber":68,"Velocity":42,"Duration":127075,"SoundDuration":127075,"Delta":45786014},{"NoteNumber":75,"Velocity":45,"Duration":132111,"SoundDuration":132111,"Delta":45913089},{"NoteNumber":76,"Velocity":49,"Duration":1138855,"SoundDuration":1138855,"Delta":46045201},{"NoteNumber":68,"Velocity":39,"Duration":126539,"SoundDuration":126539,"Delta":46171741},{"NoteNumber":61,"Velocity":41,"Duration":126539,"SoundDuration":126539,"Delta":46298280},{"NoteNumber":68,"Velocity":37,"Duration":126539,"SoundDuration":126539,"Delta":46424820},{"NoteNumber":70,"Velocity":42,"Duration":126539,"SoundDuration":126539,"Delta":46551359},{"NoteNumber":68,"Velocity":34,"Duration":126539,"SoundDuration":126539,"Delta":46677899},{"NoteNumber":61,"Velocity":41,"Duration":126539,"SoundDuration":126539,"Delta":46804438},{"NoteNumber":68,"Velocity":34,"Duration":126539,"SoundDuration":126539,"Delta":46930978},{"NoteNumber":67,"Velocity":45,"Duration":759236,"SoundDuration":759236,"Delta":47057517},{"NoteNumber":70,"Velocity":41,"Duration":126539,"SoundDuration":126539,"Delta":47184057},{"NoteNumber":75,"Velocity":46,"Duration":126539,"SoundDuration":126539,"Delta":47310596},{"NoteNumber":74,"Velocity":42,"Duration":126539,"SoundDuration":126539,"Delta":47437136},{"NoteNumber":75,"Velocity":44,"Duration":126539,"SoundDuration":126539,"Delta":47563675},{"NoteNumber":70,"Velocity":37,"Duration":126539,"SoundDuration":126539,"Delta":47690215},{"NoteNumber":75,"Velocity":43,"Duration":126539,"SoundDuration":126539,"Delta":47816754},{"NoteNumber":67,"Velocity":52,"Duration":506157,"SoundDuration":506157,"Delta":47816754},{"NoteNumber":73,"Velocity":37,"Duration":126539,"SoundDuration":126539,"Delta":47943294},{"NoteNumber":72,"Velocity":52,"Duration":126539,"SoundDuration":126539,"Delta":48069833},{"NoteNumber":75,"Velocity":46,"Duration":126539,"SoundDuration":126539,"Delta":48196373},{"NoteNumber":72,"Velocity":55,"Duration":126539,"SoundDuration":126539,"Delta":48322912},{"NoteNumber":67,"Velocity":49,"Duration":253079,"SoundDuration":253079,"Delta":48322912},{"NoteNumber":80,"Velocity":47,"Duration":126539,"SoundDuration":126539,"Delta":48449452},{"NoteNumber":73,"Velocity":60,"Duration":126539,"SoundDuration":126539,"Delta":48575991},{"NoteNumber":64,"Velocity":57,"Duration":253078,"SoundDuration":253078,"Delta":48575991},{"NoteNumber":80,"Velocity":54,"Duration":126539,"SoundDuration":126539,"Delta":48702531},{"NoteNumber":75,"Velocity":63,"Duration":126539,"SoundDuration":126539,"Delta":48829070},{"NoteNumber":63,"Velocity":52,"Duration":262236,"SoundDuration":262236,"Delta":48829070},{"NoteNumber":80,"Velocity":58,"Duration":135697,"SoundDuration":135697,"Delta":48955610},{"NoteNumber":76,"Velocity":70,"Duration":504032,"SoundDuration":504032,"Delta":49091307},{"NoteNumber":61,"Velocity":60,"Duration":126007,"SoundDuration":126007,"Delta":49091307},{"NoteNumber":56,"Velocity":37,"Duration":126007,"SoundDuration":126007,"Delta":49217315},{"NoteNumber":49,"Velocity":42,"Duration":126008,"SoundDuration":126008,"Delta":49343323},{"NoteNumber":56,"Velocity":37,"Duration":126007,"SoundDuration":126007,"Delta":49469331},{"NoteNumber":64,"Velocity":53,"Duration":630039,"SoundDuration":630039,"Delta":49595339},{"NoteNumber":57,"Velocity":44,"Duration":126007,"SoundDuration":126007,"Delta":49595339},{"NoteNumber":56,"Velocity":37,"Duration":126007,"SoundDuration":126007,"Delta":49721347},{"NoteNumber":49,"Velocity":37,"Duration":126007,"SoundDuration":126007,"Delta":49847355},{"NoteNumber":56,"Velocity":37,"Duration":126007,"SoundDuration":126007,"Delta":49973363},{"NoteNumber":57,"Velocity":46,"Duration":756047,"SoundDuration":756047,"Delta":50099371},{"NoteNumber":61,"Velocity":42,"Duration":126008,"SoundDuration":126008,"Delta":50225379},{"NoteNumber":66,"Velocity":50,"Duration":126007,"SoundDuration":126007,"Delta":50351387},{"NoteNumber":65,"Velocity":37,"Duration":126007,"SoundDuration":126007,"Delta":50477395},{"NoteNumber":66,"Velocity":51,"Duration":126007,"SoundDuration":126007,"Delta":50603403},{"NoteNumber":61,"Velocity":43,"Duration":126007,"SoundDuration":126007,"Delta":50729411},{"NoteNumber":66,"Velocity":51,"Duration":126008,"SoundDuration":126008,"Delta":50855419},{"NoteNumber":56,"Velocity":40,"Duration":258120,"SoundDuration":258120,"Delta":50855419},{"NoteNumber":64,"Velocity":44,"Duration":132111,"SoundDuration":132111,"Delta":50981427},{"NoteNumber":63,"Velocity":54,"Duration":264223,"SoundDuration":264223,"Delta":51113539},{"NoteNumber":58,"Velocity":57,"Duration":132111,"SoundDuration":132111,"Delta":51113539},{"NoteNumber":55,"Velocity":57,"Duration":1020271,"SoundDuration":1020271,"Delta":51113539},{"NoteNumber":61,"Velocity":44,"Duration":132111,"SoundDuration":132111,"Delta":51245651},{"NoteNumber":75,"Velocity":60,"Duration":504032,"SoundDuration":504032,"Delta":51377763},{"NoteNumber":58,"Velocity":52,"Duration":126007,"SoundDuration":126007,"Delta":51377763},{"NoteNumber":63,"Velocity":44,"Duration":126007,"SoundDuration":126007,"Delta":51503771},{"NoteNumber":64,"Velocity":54,"Duration":126008,"SoundDuration":126008,"Delta":51629779},{"NoteNumber":63,"Velocity":42,"Duration":126007,"SoundDuration":126007,"Delta":51755787},{"NoteNumber":73,"Velocity":52,"Duration":252015,"SoundDuration":252015,"Delta":51881795},{"NoteNumber":58,"Velocity":46,"Duration":126007,"SoundDuration":126007,"Delta":51881795},{"NoteNumber":63,"Velocity":39,"Duration":126007,"SoundDuration":126007,"Delta":52007803},{"NoteNumber":71,"Velocity":63,"Duration":126007,"SoundDuration":126007,"Delta":52133811},{"NoteNumber":56,"Velocity":55,"Duration":252015,"SoundDuration":252015,"Delta":52133811},{"NoteNumber":75,"Velocity":53,"Duration":126007,"SoundDuration":126007,"Delta":52259819},{"NoteNumber":59,"Velocity":41,"Duration":126007,"SoundDuration":126007,"Delta":52259819},{"NoteNumber":71,"Velocity":62,"Duration":126007,"SoundDuration":126007,"Delta":52385827},{"NoteNumber":56,"Velocity":42,"Duration":126007,"SoundDuration":126007,"Delta":52385827},{"NoteNumber":75,"Velocity":53,"Duration":136313,"SoundDuration":136313,"Delta":52511835},{"NoteNumber":59,"Velocity":42,"Duration":136313,"SoundDuration":136313,"Delta":52511835},{"NoteNumber":76,"Velocity":63,"Duration":126007,"SoundDuration":126007,"Delta":52648149},{"NoteNumber":83,"Velocity":63,"Duration":632743,"SoundDuration":632743,"Delta":52648149},{"NoteNumber":61,"Velocity":53,"Duration":126007,"SoundDuration":126007,"Delta":52648149},{"NoteNumber":75,"Velocity":60,"Duration":126007,"SoundDuration":126007,"Delta":52774157},{"NoteNumber":59,"Velocity":37,"Duration":126007,"SoundDuration":126007,"Delta":52774157},{"NoteNumber":68,"Velocity":65,"Duration":126007,"SoundDuration":126007,"Delta":52900165},{"NoteNumber":56,"Velocity":45,"Duration":126007,"SoundDuration":126007,"Delta":52900165},{"NoteNumber":47,"Velocity":38,"Duration":252016,"SoundDuration":252016,"Delta":52900165},{"NoteNumber":71,"Velocity":60,"Duration":126008,"SoundDuration":126008,"Delta":53026173},{"NoteNumber":59,"Velocity":37,"Duration":126008,"SoundDuration":126008,"Delta":53026173},{"NoteNumber":76,"Velocity":58,"Duration":528259,"SoundDuration":528259,"Delta":53152181},{"NoteNumber":52,"Velocity":49,"Duration":257422,"SoundDuration":257422,"Delta":53152181},{"NoteNumber":49,"Velocity":41,"Duration":789038,"SoundDuration":789038,"Delta":53152181},{"NoteNumber":80,"Velocity":59,"Duration":128711,"SoundDuration":128711,"Delta":53280892},{"NoteNumber":81,"Velocity":65,"Duration":128711,"SoundDuration":128711,"Delta":53409604},{"NoteNumber":61,"Velocity":57,"Duration":531616,"SoundDuration":531616,"Delta":53409604},{"NoteNumber":85,"Velocity":59,"Duration":142126,"SoundDuration":142126,"Delta":53538315},{"NoteNumber":69,"Velocity":58,"Duration":260778,"SoundDuration":260778,"Delta":53680441},{"NoteNumber":76,"Velocity":70,"Duration":130389,"SoundDuration":130389,"Delta":53680441},{"NoteNumber":81,"Velocity":59,"Duration":130389,"SoundDuration":130389,"Delta":53810831},{"NoteNumber":71,"Velocity":62,"Duration":276673,"SoundDuration":276673,"Delta":53941220},{"NoteNumber":75,"Velocity":73,"Duration":130389,"SoundDuration":130389,"Delta":53941220},{"NoteNumber":59,"Velocity":46,"Duration":276673,"SoundDuration":276673,"Delta":53941220},{"NoteNumber":51,"Velocity":39,"Duration":276673,"SoundDuration":276673,"Delta":53941220},{"NoteNumber":80,"Velocity":71,"Duration":146284,"SoundDuration":146284,"Delta":54071610},{"NoteNumber":75,"Velocity":81,"Duration":133285,"SoundDuration":133285,"Delta":54217894},{"NoteNumber":71,"Velocity":69,"Duration":266571,"SoundDuration":266571,"Delta":54217894},{"NoteNumber":59,"Velocity":57,"Duration":266571,"SoundDuration":266571,"Delta":54217894},{"NoteNumber":51,"Velocity":48,"Duration":826280,"SoundDuration":826280,"Delta":54217894},{"NoteNumber":80,"Velocity":73,"Duration":133285,"SoundDuration":133285,"Delta":54351180},{"NoteNumber":75,"Velocity":81,"Duration":133286,"SoundDuration":133286,"Delta":54484466},{"NoteNumber":73,"Velocity":69,"Duration":275466,"SoundDuration":275466,"Delta":54484466},{"NoteNumber":58,"Velocity":48,"Duration":275466,"SoundDuration":275466,"Delta":54484466},{"NoteNumber":79,"Velocity":77,"Duration":142180,"SoundDuration":142180,"Delta":54617752},{"NoteNumber":75,"Velocity":81,"Duration":139880,"SoundDuration":139880,"Delta":54759933},{"NoteNumber":71,"Velocity":69,"Duration":284241,"SoundDuration":284241,"Delta":54759933},{"NoteNumber":56,"Velocity":55,"Duration":284241,"SoundDuration":284241,"Delta":54759933},{"NoteNumber":80,"Velocity":74,"Duration":144361,"SoundDuration":144361,"Delta":54899814},{"NoteNumber":70,"Velocity":69,"Duration":303471,"SoundDuration":303471,"Delta":55044175},{"NoteNumber":75,"Velocity":81,"Duration":149202,"SoundDuration":149202,"Delta":55044175},{"NoteNumber":51,"Velocity":41,"Duration":303471,"SoundDuration":303471,"Delta":55044175},{"NoteNumber":55,"Velocity":49,"Duration":303471,"SoundDuration":303471,"Delta":55044175},{"NoteNumber":82,"Velocity":72,"Duration":154268,"SoundDuration":154268,"Delta":55193378},{"NoteNumber":80,"Velocity":32,"Duration":1629018,"SoundDuration":1629018,"Delta":56706342},{"NoteNumber":75,"Velocity":32,"Duration":1629018,"SoundDuration":1629018,"Delta":56706342},{"NoteNumber":83,"Velocity":38,"Duration":1629018,"SoundDuration":1629018,"Delta":56706342},{"NoteNumber":71,"Velocity":32,"Duration":1629018,"SoundDuration":1629018,"Delta":56706342},{"NoteNumber":44,"Velocity":20,"Duration":951172,"SoundDuration":951172,"Delta":58335360},{"NoteNumber":56,"Velocity":24,"Duration":951172,"SoundDuration":951172,"Delta":58335360},{"NoteNumber":80,"Velocity":32,"Duration":1716295,"SoundDuration":1716295,"Delta":60354909},{"NoteNumber":83,"Velocity":38,"Duration":1716295,"SoundDuration":1716295,"Delta":60354909},{"NoteNumber":76,"Velocity":32,"Duration":1716295,"SoundDuration":1716295,"Delta":60354909},{"NoteNumber":71,"Velocity":32,"Duration":1716295,"SoundDuration":1716295,"Delta":60354909},{"NoteNumber":40,"Velocity":20,"Duration":1895825,"SoundDuration":1895825,"Delta":62071205},{"NoteNumber":52,"Velocity":24,"Duration":1895825,"SoundDuration":1895825,"Delta":62071205},{"NoteNumber":85,"Velocity":38,"Duration":1629018,"SoundDuration":1629018,"Delta":65325726},{"NoteNumber":76,"Velocity":32,"Duration":1629018,"SoundDuration":1629018,"Delta":65325726},{"NoteNumber":73,"Velocity":32,"Duration":1629018,"SoundDuration":1629018,"Delta":65325726},{"NoteNumber":80,"Velocity":32,"Duration":1629018,"SoundDuration":1629018,"Delta":65325726},{"NoteNumber":49,"Velocity":24,"Duration":951172,"SoundDuration":951172,"Delta":66954745},{"NoteNumber":37,"Velocity":20,"Duration":951172,"SoundDuration":951172,"Delta":66954745},{"NoteNumber":76,"Velocity":32,"Duration":1629018,"SoundDuration":1629018,"Delta":69264614},{"NoteNumber":73,"Velocity":32,"Duration":1629018,"SoundDuration":1629018,"Delta":69264614},{"NoteNumber":85,"Velocity":38,"Duration":1629018,"SoundDuration":1629018,"Delta":69264614},{"NoteNumber":81,"Velocity":32,"Duration":1629018,"SoundDuration":1629018,"Delta":69264614},{"NoteNumber":33,"Velocity":38,"Duration":217202,"SoundDuration":217202,"Delta":70459228},{"NoteNumber":45,"Velocity":32,"Duration":162901,"SoundDuration":162901,"Delta":70676430},{"NoteNumber":45,"Velocity":41,"Duration":217202,"SoundDuration":217202,"Delta":70893633},{"NoteNumber":57,"Velocity":32,"Duration":162901,"SoundDuration":162901,"Delta":71110835},{"NoteNumber":57,"Velocity":32,"Duration":217202,"SoundDuration":217202,"Delta":71328038},{"NoteNumber":69,"Velocity":37,"Duration":162901,"SoundDuration":162901,"Delta":71545240},{"NoteNumber":69,"Velocity":32,"Duration":217202,"SoundDuration":217202,"Delta":71762443},{"NoteNumber":81,"Velocity":41,"Duration":217202,"SoundDuration":217202,"Delta":71979645},{"NoteNumber":81,"Velocity":46,"Duration":1520417,"SoundDuration":1520417,"Delta":72196848},{"NoteNumber":93,"Velocity":45,"Duration":1303215,"SoundDuration":1303215,"Delta":72414050},{"NoteNumber":45,"Velocity":32,"Duration":217202,"SoundDuration":217202,"Delta":72631253},{"NoteNumber":33,"Velocity":27,"Duration":217202,"SoundDuration":217202,"Delta":72631253},{"NoteNumber":47,"Velocity":39,"Duration":13855951,"SoundDuration":13855951,"Delta":72848455},{"NoteNumber":33,"Velocity":33,"Duration":13855951,"SoundDuration":13855951,"Delta":72848455},{"NoteNumber":38,"Velocity":33,"Duration":13855951,"SoundDuration":13855951,"Delta":72848455},{"NoteNumber":40,"Velocity":33,"Duration":13855951,"SoundDuration":13855951,"Delta":72848455},{"NoteNumber":92,"Velocity":61,"Duration":822452,"SoundDuration":822452,"Delta":73717265},{"NoteNumber":80,"Velocity":51,"Duration":822452,"SoundDuration":822452,"Delta":73717265},{"NoteNumber":88,"Velocity":58,"Duration":776095,"SoundDuration":776095,"Delta":74539718},{"NoteNumber":76,"Velocity":49,"Duration":776095,"SoundDuration":776095,"Delta":74539718},{"NoteNumber":75,"Velocity":46,"Duration":776096,"SoundDuration":776096,"Delta":75315814},{"NoteNumber":87,"Velocity":55,"Duration":776096,"SoundDuration":776096,"Delta":75315814},{"NoteNumber":74,"Velocity":45,"Duration":776095,"SoundDuration":776095,"Delta":76091910},{"NoteNumber":86,"Velocity":53,"Duration":776095,"SoundDuration":776095,"Delta":76091910},{"NoteNumber":83,"Velocity":50,"Duration":769776,"SoundDuration":769776,"Delta":76868006},{"NoteNumber":71,"Velocity":42,"Duration":769776,"SoundDuration":769776,"Delta":76868006},{"NoteNumber":80,"Velocity":51,"Duration":274837,"SoundDuration":274837,"Delta":77637783},{"NoteNumber":76,"Velocity":45,"Duration":270746,"SoundDuration":270746,"Delta":77912620},{"NoteNumber":75,"Velocity":45,"Duration":266775,"SoundDuration":266775,"Delta":78183367},{"NoteNumber":74,"Velocity":45,"Duration":262917,"SoundDuration":262917,"Delta":78450143},{"NoteNumber":71,"Velocity":45,"Duration":259169,"SoundDuration":259169,"Delta":78713060},{"NoteNumber":68,"Velocity":45,"Duration":256017,"SoundDuration":256017,"Delta":78972229},{"NoteNumber":64,"Velocity":48,"Duration":252451,"SoundDuration":252451,"Delta":79228247},{"NoteNumber":63,"Velocity":42,"Duration":248849,"SoundDuration":248849,"Delta":79480699},{"NoteNumber":62,"Velocity":42,"Duration":245490,"SoundDuration":245490,"Delta":79729548},{"NoteNumber":59,"Velocity":42,"Duration":182837,"SoundDuration":182837,"Delta":79975038},{"NoteNumber":56,"Velocity":36,"Duration":182837,"SoundDuration":182837,"Delta":80157876},{"NoteNumber":52,"Velocity":37,"Duration":182837,"SoundDuration":182837,"Delta":80340714},{"NoteNumber":51,"Velocity":37,"Duration":182837,"SoundDuration":182837,"Delta":80523551},{"NoteNumber":50,"Velocity":48,"Duration":116614,"SoundDuration":116614,"Delta":80706389},{"NoteNumber":52,"Velocity":39,"Duration":116286,"SoundDuration":116286,"Delta":80803523},{"NoteNumber":50,"Velocity":48,"Duration":115663,"SoundDuration":115663,"Delta":80900454},{"NoteNumber":52,"Velocity":41,"Duration":115047,"SoundDuration":115047,"Delta":80996887},{"NoteNumber":50,"Velocity":40,"Duration":114438,"SoundDuration":114438,"Delta":81092827},{"NoteNumber":52,"Velocity":34,"Duration":113595,"SoundDuration":113595,"Delta":81188278},{"NoteNumber":50,"Velocity":40,"Duration":113001,"SoundDuration":113001,"Delta":81283005},{"NoteNumber":52,"Velocity":35,"Duration":112412,"SoundDuration":112412,"Delta":81377256},{"NoteNumber":50,"Velocity":40,"Duration":111830,"SoundDuration":111830,"Delta":81471006},{"NoteNumber":52,"Velocity":34,"Duration":111169,"SoundDuration":111169,"Delta":81564203},{"NoteNumber":50,"Velocity":40,"Duration":110457,"SoundDuration":110457,"Delta":81656940},{"NoteNumber":52,"Velocity":35,"Duration":109896,"SoundDuration":109896,"Delta":81748993},{"NoteNumber":50,"Velocity":40,"Duration":109340,"SoundDuration":109340,"Delta":81840596},{"NoteNumber":52,"Velocity":34,"Duration":108789,"SoundDuration":108789,"Delta":81931755},{"NoteNumber":50,"Velocity":40,"Duration":108027,"SoundDuration":108027,"Delta":82022472},{"NoteNumber":52,"Velocity":35,"Duration":108082,"SoundDuration":108082,"Delta":82112536},{"NoteNumber":50,"Velocity":40,"Duration":108844,"SoundDuration":108844,"Delta":82202546},{"NoteNumber":52,"Velocity":34,"Duration":109395,"SoundDuration":109395,"Delta":82293209},{"NoteNumber":50,"Velocity":40,"Duration":110176,"SoundDuration":110176,"Delta":82384312},{"NoteNumber":52,"Velocity":34,"Duration":110969,"SoundDuration":110969,"Delta":82476084},{"NoteNumber":50,"Velocity":40,"Duration":111542,"SoundDuration":111542,"Delta":82568534},{"NoteNumber":52,"Velocity":34,"Duration":112442,"SoundDuration":112442,"Delta":82661443},{"NoteNumber":50,"Velocity":40,"Duration":113387,"SoundDuration":113387,"Delta":82755048},{"NoteNumber":52,"Velocity":34,"Duration":94936,"SoundDuration":94936,"Delta":82849447},{"NoteNumber":51,"Velocity":45,"Duration":113031,"SoundDuration":113031,"Delta":82944384},{"NoteNumber":52,"Velocity":38,"Duration":112179,"SoundDuration":112179,"Delta":83038665},{"NoteNumber":51,"Velocity":45,"Duration":111369,"SoundDuration":111369,"Delta":83132211},{"NoteNumber":52,"Velocity":41,"Duration":110487,"SoundDuration":110487,"Delta":83225063},{"NoteNumber":51,"Velocity":40,"Duration":109590,"SoundDuration":109590,"Delta":83317229},{"NoteNumber":52,"Velocity":34,"Duration":108789,"SoundDuration":108789,"Delta":83408638},{"NoteNumber":51,"Velocity":40,"Duration":108027,"SoundDuration":108027,"Delta":83499355},{"NoteNumber":52,"Velocity":35,"Duration":107276,"SoundDuration":107276,"Delta":83589419},{"NoteNumber":51,"Velocity":40,"Duration":107330,"SoundDuration":107330,"Delta":83678838},{"NoteNumber":52,"Velocity":35,"Duration":107865,"SoundDuration":107865,"Delta":83768204},{"NoteNumber":51,"Velocity":40,"Duration":108406,"SoundDuration":108406,"Delta":83858025},{"NoteNumber":52,"Velocity":35,"Duration":105008,"SoundDuration":105008,"Delta":83948359},{"NoteNumber":51,"Velocity":40,"Duration":91560,"SoundDuration":91560,"Delta":84037364},{"NoteNumber":52,"Velocity":35,"Duration":122268,"SoundDuration":122268,"Delta":84139026},{"NoteNumber":51,"Velocity":40,"Duration":128133,"SoundDuration":128133,"Delta":84240779},{"NoteNumber":52,"Velocity":42,"Duration":97636,"SoundDuration":97636,"Delta":84343645},{"NoteNumber":54,"Velocity":35,"Duration":118324,"SoundDuration":118324,"Delta":84441282},{"NoteNumber":52,"Velocity":44,"Duration":117679,"SoundDuration":117679,"Delta":84539966},{"NoteNumber":54,"Velocity":38,"Duration":117551,"SoundDuration":117551,"Delta":84638037},{"NoteNumber":52,"Velocity":40,"Duration":116914,"SoundDuration":116914,"Delta":84736077},{"NoteNumber":54,"Velocity":35,"Duration":116788,"SoundDuration":116788,"Delta":84833511},{"NoteNumber":52,"Velocity":40,"Duration":116160,"SoundDuration":116160,"Delta":84930914},{"NoteNumber":54,"Velocity":35,"Duration":116036,"SoundDuration":116036,"Delta":85027719},{"NoteNumber":52,"Velocity":40,"Duration":115415,"SoundDuration":115415,"Delta":85124494},{"NoteNumber":54,"Velocity":35,"Duration":115292,"SoundDuration":115292,"Delta":85220678},{"NoteNumber":52,"Velocity":40,"Duration":114680,"SoundDuration":114680,"Delta":85316832},{"NoteNumber":54,"Velocity":35,"Duration":114558,"SoundDuration":114558,"Delta":85412404},{"NoteNumber":52,"Velocity":40,"Duration":113954,"SoundDuration":113954,"Delta":85507946},{"NoteNumber":54,"Velocity":35,"Duration":113834,"SoundDuration":113834,"Delta":85602913},{"NoteNumber":52,"Velocity":40,"Duration":113237,"SoundDuration":113237,"Delta":85697849},{"NoteNumber":54,"Velocity":36,"Duration":113119,"SoundDuration":113119,"Delta":85792219},{"NoteNumber":52,"Velocity":40,"Duration":112529,"SoundDuration":112529,"Delta":85886559},{"NoteNumber":54,"Velocity":35,"Duration":112412,"SoundDuration":112412,"Delta":85980338},{"NoteNumber":52,"Velocity":40,"Duration":111830,"SoundDuration":111830,"Delta":86074088},{"NoteNumber":54,"Velocity":36,"Duration":111484,"SoundDuration":111484,"Delta":86167285},{"NoteNumber":52,"Velocity":40,"Duration":162905,"SoundDuration":162905,"Delta":86260251},{"NoteNumber":51,"Velocity":37,"Duration":187500,"SoundDuration":187500,"Delta":86391906},{"NoteNumber":52,"Velocity":37,"Duration":156250,"SoundDuration":156250,"Delta":86548156},{"NoteNumber":52,"Velocity":41,"Duration":1263424,"SoundDuration":1263424,"Delta":86704406},{"NoteNumber":49,"Velocity":34,"Duration":1263424,"SoundDuration":1263424,"Delta":86704406},{"NoteNumber":45,"Velocity":26,"Duration":631712,"SoundDuration":631712,"Delta":87336118},{"NoteNumber":33,"Velocity":22,"Duration":631712,"SoundDuration":631712,"Delta":87336118},{"NoteNumber":52,"Velocity":41,"Duration":70093,"SoundDuration":70093,"Delta":87967830},{"NoteNumber":49,"Velocity":34,"Duration":70093,"SoundDuration":70093,"Delta":87967830},{"NoteNumber":45,"Velocity":28,"Duration":154671,"SoundDuration":154671,"Delta":88248204},{"NoteNumber":33,"Velocity":23,"Duration":154671,"SoundDuration":154671,"Delta":88248204},{"NoteNumber":49,"Velocity":34,"Duration":600120,"SoundDuration":600120,"Delta":88557546},{"NoteNumber":52,"Velocity":41,"Duration":600120,"SoundDuration":600120,"Delta":88557546},{"NoteNumber":52,"Velocity":41,"Duration":1143074,"SoundDuration":1143074,"Delta":89157666},{"NoteNumber":49,"Velocity":34,"Duration":1143074,"SoundDuration":1143074,"Delta":89157666},{"NoteNumber":33,"Velocity":22,"Duration":571537,"SoundDuration":571537,"Delta":89729204},{"NoteNumber":45,"Velocity":26,"Duration":571537,"SoundDuration":571537,"Delta":89729204},{"NoteNumber":49,"Velocity":34,"Duration":66383,"SoundDuration":66383,"Delta":90300741},{"NoteNumber":57,"Velocity":41,"Duration":66383,"SoundDuration":66383,"Delta":90300741},{"NoteNumber":42,"Velocity":28,"Duration":154671,"SoundDuration":154671,"Delta":90566275},{"NoteNumber":30,"Velocity":23,"Duration":154671,"SoundDuration":154671,"Delta":90566275},{"NoteNumber":54,"Velocity":34,"Duration":594059,"SoundDuration":594059,"Delta":90875617},{"NoteNumber":49,"Velocity":34,"Duration":594059,"SoundDuration":594059,"Delta":90875617},{"NoteNumber":57,"Velocity":41,"Duration":594059,"SoundDuration":594059,"Delta":90875617},{"NoteNumber":57,"Velocity":41,"Duration":1143074,"SoundDuration":1143074,"Delta":91469677},{"NoteNumber":54,"Velocity":34,"Duration":1143074,"SoundDuration":1143074,"Delta":91469677},{"NoteNumber":38,"Velocity":22,"Duration":571537,"SoundDuration":571537,"Delta":92041214},{"NoteNumber":50,"Velocity":26,"Duration":571537,"SoundDuration":571537,"Delta":92041214},{"NoteNumber":57,"Velocity":41,"Duration":66383,"SoundDuration":66383,"Delta":92612752},{"NoteNumber":54,"Velocity":34,"Duration":66383,"SoundDuration":66383,"Delta":92612752},{"NoteNumber":38,"Velocity":23,"Duration":153061,"SoundDuration":153061,"Delta":92878286},{"NoteNumber":50,"Velocity":28,"Duration":153061,"SoundDuration":153061,"Delta":92878286},{"NoteNumber":57,"Velocity":41,"Duration":571428,"SoundDuration":571428,"Delta":93184408},{"NoteNumber":54,"Velocity":34,"Duration":571428,"SoundDuration":571428,"Delta":93184408},{"NoteNumber":57,"Velocity":41,"Duration":1101118,"SoundDuration":1101118,"Delta":93755837},{"NoteNumber":54,"Velocity":34,"Duration":1101118,"SoundDuration":1101118,"Delta":93755837},{"NoteNumber":50,"Velocity":26,"Duration":550559,"SoundDuration":550559,"Delta":94306396},{"NoteNumber":38,"Velocity":22,"Duration":550559,"SoundDuration":550559,"Delta":94306396},{"NoteNumber":54,"Velocity":34,"Duration":60483,"SoundDuration":60483,"Delta":94856956},{"NoteNumber":62,"Velocity":41,"Duration":60483,"SoundDuration":60483,"Delta":94856956},{"NoteNumber":35,"Velocity":23,"Duration":144230,"SoundDuration":144230,"Delta":95098891},{"NoteNumber":47,"Velocity":28,"Duration":144230,"SoundDuration":144230,"Delta":95098891},{"NoteNumber":54,"Velocity":34,"Duration":545454,"SoundDuration":545454,"Delta":95387353},{"NoteNumber":59,"Velocity":34,"Duration":540909,"SoundDuration":540909,"Delta":95387353},{"NoteNumber":62,"Velocity":41,"Duration":540909,"SoundDuration":540909,"Delta":95387353},{"NoteNumber":62,"Velocity":41,"Duration":1013713,"SoundDuration":1013713,"Delta":95932807},{"NoteNumber":59,"Velocity":34,"Duration":1013713,"SoundDuration":1013713,"Delta":95932807},{"NoteNumber":43,"Velocity":22,"Duration":521829,"SoundDuration":521829,"Delta":96424691},{"NoteNumber":55,"Velocity":26,"Duration":521829,"SoundDuration":521829,"Delta":96424691},{"NoteNumber":59,"Velocity":35,"Duration":86538,"SoundDuration":86538,"Delta":96946521},{"NoteNumber":62,"Velocity":42,"Duration":86538,"SoundDuration":86538,"Delta":96946521},{"NoteNumber":43,"Velocity":23,"Duration":136363,"SoundDuration":136363,"Delta":97177290},{"NoteNumber":55,"Velocity":28,"Duration":136363,"SoundDuration":136363,"Delta":97177290},{"NoteNumber":59,"Velocity":35,"Duration":491803,"SoundDuration":491803,"Delta":97450018},{"NoteNumber":62,"Velocity":42,"Duration":491803,"SoundDuration":491803,"Delta":97450018},{"NoteNumber":62,"Velocity":43,"Duration":952381,"SoundDuration":952381,"Delta":97941821},{"NoteNumber":59,"Velocity":36,"Duration":952381,"SoundDuration":952381,"Delta":97941821},{"NoteNumber":43,"Velocity":23,"Duration":476190,"SoundDuration":476190,"Delta":98418012},{"NoteNumber":55,"Velocity":27,"Duration":476190,"SoundDuration":476190,"Delta":98418012},{"NoteNumber":67,"Velocity":45,"Duration":84586,"SoundDuration":84586,"Delta":98894202},{"NoteNumber":59,"Velocity":38,"Duration":84586,"SoundDuration":84586,"Delta":98894202},{"NoteNumber":40,"Velocity":26,"Duration":118110,"SoundDuration":118110,"Delta":99119766},{"NoteNumber":52,"Velocity":31,"Duration":118110,"SoundDuration":118110,"Delta":99119766},{"NoteNumber":59,"Velocity":38,"Duration":512820,"SoundDuration":512820,"Delta":99355987},{"NoteNumber":67,"Velocity":47,"Duration":512820,"SoundDuration":512820,"Delta":99355987},{"NoteNumber":67,"Velocity":47,"Duration":941220,"SoundDuration":941220,"Delta":99868807},{"NoteNumber":64,"Velocity":40,"Duration":941220,"SoundDuration":941220,"Delta":99868807},{"NoteNumber":60,"Velocity":31,"Duration":468750,"SoundDuration":468750,"Delta":100341277},{"NoteNumber":48,"Velocity":27,"Duration":468750,"SoundDuration":468750,"Delta":100341277},{"NoteNumber":64,"Velocity":42,"Duration":84586,"SoundDuration":84586,"Delta":100810027},{"NoteNumber":67,"Velocity":51,"Duration":84586,"SoundDuration":84586,"Delta":100810027},{"NoteNumber":48,"Velocity":28,"Duration":114503,"SoundDuration":114503,"Delta":101035591},{"NoteNumber":60,"Velocity":34,"Duration":114503,"SoundDuration":114503,"Delta":101035591},{"NoteNumber":67,"Velocity":51,"Duration":472441,"SoundDuration":472441,"Delta":101264599},{"NoteNumber":64,"Velocity":42,"Duration":472441,"SoundDuration":472441,"Delta":101264599},{"NoteNumber":64,"Velocity":44,"Duration":869564,"SoundDuration":869564,"Delta":101737040},{"NoteNumber":72,"Velocity":53,"Duration":869564,"SoundDuration":869564,"Delta":101737040},{"NoteNumber":57,"Velocity":34,"Duration":434782,"SoundDuration":434782,"Delta":102171823},{"NoteNumber":45,"Velocity":29,"Duration":434782,"SoundDuration":434782,"Delta":102171823},{"NoteNumber":64,"Velocity":46,"Duration":79787,"SoundDuration":79787,"Delta":102606605},{"NoteNumber":72,"Velocity":55,"Duration":79787,"SoundDuration":79787,"Delta":102606605},{"NoteNumber":45,"Velocity":31,"Duration":110294,"SoundDuration":110294,"Delta":102819371},{"NoteNumber":57,"Velocity":38,"Duration":110294,"SoundDuration":110294,"Delta":102819371},{"NoteNumber":64,"Velocity":52,"Duration":451127,"SoundDuration":451127,"Delta":103039959},{"NoteNumber":72,"Velocity":52,"Duration":451127,"SoundDuration":451127,"Delta":103039959},{"NoteNumber":72,"Velocity":58,"Duration":842961,"SoundDuration":842961,"Delta":103491087},{"NoteNumber":69,"Velocity":48,"Duration":842961,"SoundDuration":842961,"Delta":103491087},{"NoteNumber":41,"Velocity":32,"Duration":419580,"SoundDuration":419580,"Delta":103914468},{"NoteNumber":53,"Velocity":38,"Duration":419580,"SoundDuration":419580,"Delta":103914468},{"NoteNumber":72,"Velocity":65,"Duration":100671,"SoundDuration":100671,"Delta":104334049},{"NoteNumber":69,"Velocity":54,"Duration":100671,"SoundDuration":100671,"Delta":104334049},{"NoteNumber":53,"Velocity":45,"Duration":100671,"SoundDuration":100671,"Delta":104535391},{"NoteNumber":41,"Velocity":37,"Duration":100671,"SoundDuration":100671,"Delta":104535391},{"NoteNumber":69,"Velocity":57,"Duration":431654,"SoundDuration":431654,"Delta":104736733},{"NoteNumber":72,"Velocity":69,"Duration":431654,"SoundDuration":431654,"Delta":104736733},{"NoteNumber":69,"Velocity":60,"Duration":805368,"SoundDuration":805368,"Delta":105168388},{"NoteNumber":77,"Velocity":73,"Duration":805368,"SoundDuration":805368,"Delta":105168388},{"NoteNumber":38,"Velocity":41,"Duration":402684,"SoundDuration":402684,"Delta":105571072},{"NoteNumber":50,"Velocity":48,"Duration":402684,"SoundDuration":402684,"Delta":105571072},{"NoteNumber":69,"Velocity":67,"Duration":96774,"SoundDuration":96774,"Delta":105973757},{"NoteNumber":74,"Velocity":67,"Duration":96774,"SoundDuration":96774,"Delta":105973757},{"NoteNumber":77,"Velocity":82,"Duration":96774,"SoundDuration":96774,"Delta":105973757},{"NoteNumber":50,"Velocity":57,"Duration":96774,"SoundDuration":96774,"Delta":106167305},{"NoteNumber":38,"Velocity":47,"Duration":96774,"SoundDuration":96774,"Delta":106167305},{"NoteNumber":74,"Velocity":71,"Duration":431654,"SoundDuration":431654,"Delta":106360854},{"NoteNumber":69,"Velocity":71,"Duration":431654,"SoundDuration":431654,"Delta":106360854},{"NoteNumber":77,"Velocity":86,"Duration":431654,"SoundDuration":431654,"Delta":106360854},{"NoteNumber":76,"Velocity":76,"Duration":402685,"SoundDuration":402685,"Delta":106792508},{"NoteNumber":69,"Velocity":76,"Duration":402685,"SoundDuration":402685,"Delta":106792508},{"NoteNumber":73,"Velocity":76,"Duration":402685,"SoundDuration":402685,"Delta":106792508},{"NoteNumber":81,"Velocity":91,"Duration":402685,"SoundDuration":402685,"Delta":106792508},{"NoteNumber":33,"Velocity":48,"Duration":201342,"SoundDuration":201342,"Delta":106993851},{"NoteNumber":37,"Velocity":48,"Duration":201342,"SoundDuration":201342,"Delta":106993851},{"NoteNumber":40,"Velocity":48,"Duration":201342,"SoundDuration":201342,"Delta":106993851},{"NoteNumber":45,"Velocity":57,"Duration":201342,"SoundDuration":201342,"Delta":106993851},{"NoteNumber":76,"Velocity":75,"Duration":50335,"SoundDuration":50335,"Delta":107195193},{"NoteNumber":73,"Velocity":75,"Duration":50335,"SoundDuration":50335,"Delta":107195193},{"NoteNumber":69,"Velocity":75,"Duration":50335,"SoundDuration":50335,"Delta":107195193},{"NoteNumber":81,"Velocity":89,"Duration":50335,"SoundDuration":50335,"Delta":107195193},{"NoteNumber":37,"Velocity":50,"Duration":50335,"SoundDuration":50335,"Delta":107295865},{"NoteNumber":33,"Velocity":50,"Duration":50335,"SoundDuration":50335,"Delta":107295865},{"NoteNumber":45,"Velocity":61,"Duration":50335,"SoundDuration":50335,"Delta":107295865},{"NoteNumber":40,"Velocity":50,"Duration":50335,"SoundDuration":50335,"Delta":107295865},{"NoteNumber":73,"Velocity":74,"Duration":201342,"SoundDuration":201342,"Delta":107396536},{"NoteNumber":69,"Velocity":74,"Duration":201342,"SoundDuration":201342,"Delta":107396536},{"NoteNumber":81,"Velocity":89,"Duration":201342,"SoundDuration":201342,"Delta":107396536},{"NoteNumber":76,"Velocity":74,"Duration":201342,"SoundDuration":201342,"Delta":107396536},{"NoteNumber":69,"Velocity":73,"Duration":402685,"SoundDuration":402685,"Delta":107597878},{"NoteNumber":81,"Velocity":87,"Duration":402685,"SoundDuration":402685,"Delta":107597878},{"NoteNumber":73,"Velocity":73,"Duration":402685,"SoundDuration":402685,"Delta":107597878},{"NoteNumber":76,"Velocity":73,"Duration":402685,"SoundDuration":402685,"Delta":107597878},{"NoteNumber":37,"Velocity":46,"Duration":201342,"SoundDuration":201342,"Delta":107799221},{"NoteNumber":40,"Velocity":46,"Duration":201342,"SoundDuration":201342,"Delta":107799221},{"NoteNumber":45,"Velocity":54,"Duration":201342,"SoundDuration":201342,"Delta":107799221},{"NoteNumber":33,"Velocity":46,"Duration":201342,"SoundDuration":201342,"Delta":107799221},{"NoteNumber":69,"Velocity":71,"Duration":50335,"SoundDuration":50335,"Delta":108000563},{"NoteNumber":73,"Velocity":71,"Duration":50335,"SoundDuration":50335,"Delta":108000563},{"NoteNumber":76,"Velocity":71,"Duration":50335,"SoundDuration":50335,"Delta":108000563},{"NoteNumber":81,"Velocity":86,"Duration":50335,"SoundDuration":50335,"Delta":108000563},{"NoteNumber":33,"Velocity":47,"Duration":50335,"SoundDuration":50335,"Delta":108101235},{"NoteNumber":40,"Velocity":47,"Duration":50335,"SoundDuration":50335,"Delta":108101235},{"NoteNumber":45,"Velocity":58,"Duration":50335,"SoundDuration":50335,"Delta":108101235},{"NoteNumber":37,"Velocity":47,"Duration":50335,"SoundDuration":50335,"Delta":108101235},{"NoteNumber":76,"Velocity":71,"Duration":201342,"SoundDuration":201342,"Delta":108201906},{"NoteNumber":73,"Velocity":71,"Duration":201342,"SoundDuration":201342,"Delta":108201906},{"NoteNumber":81,"Velocity":85,"Duration":201342,"SoundDuration":201342,"Delta":108201906},{"NoteNumber":69,"Velocity":71,"Duration":201342,"SoundDuration":201342,"Delta":108201906},{"NoteNumber":73,"Velocity":70,"Duration":402684,"SoundDuration":402684,"Delta":108403248},{"NoteNumber":81,"Velocity":83,"Duration":402684,"SoundDuration":402684,"Delta":108403248},{"NoteNumber":76,"Velocity":70,"Duration":402684,"SoundDuration":402684,"Delta":108403248},{"NoteNumber":69,"Velocity":70,"Duration":402684,"SoundDuration":402684,"Delta":108403248},{"NoteNumber":37,"Velocity":44,"Duration":201342,"SoundDuration":201342,"Delta":108604591},{"NoteNumber":33,"Velocity":44,"Duration":201342,"SoundDuration":201342,"Delta":108604591},{"NoteNumber":45,"Velocity":52,"Duration":201342,"SoundDuration":201342,"Delta":108604591},{"NoteNumber":40,"Velocity":44,"Duration":201342,"SoundDuration":201342,"Delta":108604591},{"NoteNumber":69,"Velocity":68,"Duration":50335,"SoundDuration":50335,"Delta":108805933},{"NoteNumber":81,"Velocity":82,"Duration":50335,"SoundDuration":50335,"Delta":108805933},{"NoteNumber":33,"Velocity":45,"Duration":50335,"SoundDuration":50335,"Delta":108906605},{"NoteNumber":45,"Velocity":56,"Duration":50335,"SoundDuration":50335,"Delta":108906605},{"NoteNumber":81,"Velocity":81,"Duration":201342,"SoundDuration":201342,"Delta":109007276},{"NoteNumber":69,"Velocity":68,"Duration":201342,"SoundDuration":201342,"Delta":109007276},{"NoteNumber":69,"Velocity":61,"Duration":406583,"SoundDuration":406583,"Delta":109208618},{"NoteNumber":81,"Velocity":73,"Duration":406583,"SoundDuration":406583,"Delta":109208618},{"NoteNumber":45,"Velocity":44,"Duration":203389,"SoundDuration":203389,"Delta":109411812},{"NoteNumber":33,"Velocity":37,"Duration":203389,"SoundDuration":203389,"Delta":109411812},{"NoteNumber":69,"Velocity":54,"Duration":50847,"SoundDuration":50847,"Delta":109615202},{"NoteNumber":81,"Velocity":65,"Duration":50847,"SoundDuration":50847,"Delta":109615202},{"NoteNumber":33,"Velocity":35,"Duration":50847,"SoundDuration":50847,"Delta":109716897},{"NoteNumber":45,"Velocity":43,"Duration":50847,"SoundDuration":50847,"Delta":109716897},{"NoteNumber":69,"Velocity":51,"Duration":203389,"SoundDuration":203389,"Delta":109818592},{"NoteNumber":81,"Velocity":61,"Duration":203389,"SoundDuration":203389,"Delta":109818592},{"NoteNumber":81,"Velocity":57,"Duration":415473,"SoundDuration":415473,"Delta":110021982},{"NoteNumber":69,"Velocity":47,"Duration":415473,"SoundDuration":415473,"Delta":110021982},{"NoteNumber":33,"Velocity":28,"Duration":209967,"SoundDuration":209967,"Delta":110227488},{"NoteNumber":45,"Velocity":33,"Duration":209967,"SoundDuration":209967,"Delta":110227488},{"NoteNumber":81,"Velocity":49,"Duration":53232,"SoundDuration":53232,"Delta":110437455},{"NoteNumber":69,"Velocity":40,"Duration":53232,"SoundDuration":53232,"Delta":110437455},{"NoteNumber":45,"Velocity":32,"Duration":53805,"SoundDuration":53805,"Delta":110544228},{"NoteNumber":33,"Velocity":26,"Duration":53805,"SoundDuration":53805,"Delta":110544228},{"NoteNumber":69,"Velocity":37,"Duration":219649,"SoundDuration":219649,"Delta":110652152},{"NoteNumber":81,"Velocity":45,"Duration":219649,"SoundDuration":219649,"Delta":110652152},{"NoteNumber":69,"Velocity":27,"Duration":450181,"SoundDuration":450181,"Delta":110871801},{"NoteNumber":81,"Velocity":32,"Duration":450181,"SoundDuration":450181,"Delta":110871801},{"NoteNumber":29,"Velocity":17,"Duration":226949,"SoundDuration":226949,"Delta":111095034},{"NoteNumber":41,"Velocity":20,"Duration":226949,"SoundDuration":226949,"Delta":111095034},{"NoteNumber":81,"Velocity":32,"Duration":57571,"SoundDuration":57571,"Delta":111321983},{"NoteNumber":69,"Velocity":27,"Duration":57571,"SoundDuration":57571,"Delta":111321983},{"NoteNumber":41,"Velocity":22,"Duration":58697,"SoundDuration":58697,"Delta":111437687},{"NoteNumber":29,"Velocity":18,"Duration":58697,"SoundDuration":58697,"Delta":111437687},{"NoteNumber":81,"Velocity":32,"Duration":265331,"SoundDuration":265331,"Delta":111555665},{"NoteNumber":69,"Velocity":27,"Duration":265331,"SoundDuration":265331,"Delta":111555665},{"NoteNumber":81,"Velocity":40,"Duration":72303,"SoundDuration":72303,"Delta":111820997},{"NoteNumber":29,"Velocity":25,"Duration":215921,"SoundDuration":215921,"Delta":111820997},{"NoteNumber":41,"Velocity":30,"Duration":215921,"SoundDuration":215921,"Delta":111820997},{"NoteNumber":82,"Velocity":36,"Duration":71988,"SoundDuration":71988,"Delta":111893301},{"NoteNumber":81,"Velocity":40,"Duration":71630,"SoundDuration":71630,"Delta":111965289},{"NoteNumber":82,"Velocity":35,"Duration":71349,"SoundDuration":71349,"Delta":112036919},{"NoteNumber":81,"Velocity":40,"Duration":70994,"SoundDuration":70994,"Delta":112108268},{"NoteNumber":82,"Velocity":36,"Duration":70718,"SoundDuration":70718,"Delta":112179263},{"NoteNumber":81,"Velocity":40,"Duration":70367,"SoundDuration":70367,"Delta":112249981},{"NoteNumber":53,"Velocity":25,"Duration":210246,"SoundDuration":210246,"Delta":112249981},{"NoteNumber":57,"Velocity":30,"Duration":210246,"SoundDuration":210246,"Delta":112249981},{"NoteNumber":82,"Velocity":36,"Duration":70074,"SoundDuration":70074,"Delta":112320348},{"NoteNumber":81,"Velocity":40,"Duration":69805,"SoundDuration":69805,"Delta":112390422},{"NoteNumber":82,"Velocity":36,"Duration":69465,"SoundDuration":69465,"Delta":112460228},{"NoteNumber":81,"Velocity":40,"Duration":69444,"SoundDuration":69444,"Delta":112529693},{"NoteNumber":82,"Velocity":35,"Duration":69444,"SoundDuration":69444,"Delta":112599138},{"NoteNumber":81,"Velocity":40,"Duration":69444,"SoundDuration":69444,"Delta":112668582},{"NoteNumber":82,"Velocity":36,"Duration":69444,"SoundDuration":69444,"Delta":112738027},{"NoteNumber":81,"Velocity":40,"Duration":69444,"SoundDuration":69444,"Delta":112807471},{"NoteNumber":82,"Velocity":35,"Duration":69444,"SoundDuration":69444,"Delta":112876916},{"NoteNumber":81,"Velocity":40,"Duration":69444,"SoundDuration":69444,"Delta":112946360},{"NoteNumber":82,"Velocity":34,"Duration":69444,"SoundDuration":69444,"Delta":113015805},{"NoteNumber":81,"Velocity":48,"Duration":69444,"SoundDuration":69444,"Delta":113085249},{"NoteNumber":41,"Velocity":46,"Duration":208138,"SoundDuration":208138,"Delta":113085249},{"NoteNumber":29,"Velocity":39,"Duration":208138,"SoundDuration":208138,"Delta":113085249},{"NoteNumber":82,"Velocity":43,"Duration":69444,"SoundDuration":69444,"Delta":113154694},{"NoteNumber":81,"Velocity":49,"Duration":69249,"SoundDuration":69249,"Delta":113224138},{"NoteNumber":82,"Velocity":43,"Duration":69201,"SoundDuration":69201,"Delta":113293387},{"NoteNumber":81,"Velocity":50,"Duration":68965,"SoundDuration":68965,"Delta":113362589},{"NoteNumber":82,"Velocity":43,"Duration":68844,"SoundDuration":68844,"Delta":113431554},{"NoteNumber":84,"Velocity":52,"Duration":68728,"SoundDuration":68728,"Delta":113500398},{"NoteNumber":57,"Velocity":33,"Duration":205543,"SoundDuration":205543,"Delta":113500398},{"NoteNumber":60,"Velocity":39,"Duration":205543,"SoundDuration":205543,"Delta":113500398},{"NoteNumber":86,"Velocity":47,"Duration":68560,"SoundDuration":68560,"Delta":113569127},{"NoteNumber":84,"Velocity":53,"Duration":68254,"SoundDuration":68254,"Delta":113637688},{"NoteNumber":86,"Velocity":47,"Duration":68027,"SoundDuration":68027,"Delta":113705942},{"NoteNumber":84,"Velocity":54,"Duration":68122,"SoundDuration":68122,"Delta":113773969},{"NoteNumber":86,"Velocity":49,"Duration":68259,"SoundDuration":68259,"Delta":113842092},{"NoteNumber":84,"Velocity":56,"Duration":68332,"SoundDuration":68332,"Delta":113910351},{"NoteNumber":86,"Velocity":50,"Duration":68493,"SoundDuration":68493,"Delta":113978684},{"NoteNumber":84,"Velocity":57,"Duration":68543,"SoundDuration":68543,"Delta":114047177},{"NoteNumber":86,"Velocity":52,"Duration":68728,"SoundDuration":68728,"Delta":114115720},{"NoteNumber":84,"Velocity":58,"Duration":68755,"SoundDuration":68755,"Delta":114184449},{"NoteNumber":86,"Velocity":51,"Duration":69222,"SoundDuration":69222,"Delta":114253204},{"NoteNumber":84,"Velocity":60,"Duration":70098,"SoundDuration":70098,"Delta":114322426},{"NoteNumber":41,"Velocity":55,"Duration":209490,"SoundDuration":209490,"Delta":114322426},{"NoteNumber":29,"Velocity":46,"Duration":209490,"SoundDuration":209490,"Delta":114322426},{"NoteNumber":86,"Velocity":54,"Duration":69829,"SoundDuration":69829,"Delta":114392525},{"NoteNumber":84,"Velocity":61,"Duration":69562,"SoundDuration":69562,"Delta":114462355},{"NoteNumber":86,"Velocity":54,"Duration":69297,"SoundDuration":69297,"Delta":114531917},{"NoteNumber":84,"Velocity":62,"Duration":69034,"SoundDuration":69034,"Delta":114601214},{"NoteNumber":86,"Velocity":53,"Duration":68722,"SoundDuration":68722,"Delta":114670248},{"NoteNumber":89,"Velocity":64,"Duration":68493,"SoundDuration":68493,"Delta":114738971},{"NoteNumber":65,"Velocity":54,"Duration":205479,"SoundDuration":205479,"Delta":114738971},{"NoteNumber":60,"Velocity":45,"Duration":205479,"SoundDuration":205479,"Delta":114738971},{"NoteNumber":57,"Velocity":45,"Duration":205479,"SoundDuration":205479,"Delta":114738971},{"NoteNumber":53,"Velocity":45,"Duration":205479,"SoundDuration":205479,"Delta":114738971},{"NoteNumber":91,"Velocity":57,"Duration":68493,"SoundDuration":68493,"Delta":114807465},{"NoteNumber":89,"Velocity":65,"Duration":68493,"SoundDuration":68493,"Delta":114875958},{"NoteNumber":91,"Velocity":57,"Duration":68493,"SoundDuration":68493,"Delta":114944451},{"NoteNumber":89,"Velocity":66,"Duration":68493,"SoundDuration":68493,"Delta":115012944},{"NoteNumber":91,"Velocity":60,"Duration":68493,"SoundDuration":68493,"Delta":115081437},{"NoteNumber":89,"Velocity":68,"Duration":68349,"SoundDuration":68349,"Delta":115149930},{"NoteNumber":29,"Velocity":48,"Duration":205248,"SoundDuration":205248,"Delta":115149930},{"NoteNumber":41,"Velocity":57,"Duration":205248,"SoundDuration":205248,"Delta":115149930},{"NoteNumber":91,"Velocity":61,"Duration":68355,"SoundDuration":68355,"Delta":115218280},{"NoteNumber":89,"Velocity":69,"Duration":68543,"SoundDuration":68543,"Delta":115286636},{"NoteNumber":91,"Velocity":63,"Duration":68802,"SoundDuration":68802,"Delta":115355179},{"NoteNumber":89,"Velocity":70,"Duration":68992,"SoundDuration":68992,"Delta":115423982},{"NoteNumber":91,"Velocity":62,"Duration":69255,"SoundDuration":69255,"Delta":115492974},{"NoteNumber":89,"Velocity":78,"Duration":103108,"SoundDuration":103108,"Delta":115562229},{"NoteNumber":65,"Velocity":66,"Duration":205848,"SoundDuration":205848,"Delta":115562229},{"NoteNumber":60,"Velocity":56,"Duration":205848,"SoundDuration":205848,"Delta":115562229},{"NoteNumber":57,"Velocity":56,"Duration":205848,"SoundDuration":205848,"Delta":115562229},{"NoteNumber":53,"Velocity":56,"Duration":205848,"SoundDuration":205848,"Delta":115562229},{"NoteNumber":87,"Velocity":77,"Duration":102739,"SoundDuration":102739,"Delta":115665338},{"NoteNumber":86,"Velocity":76,"Duration":102739,"SoundDuration":102739,"Delta":115768078},{"NoteNumber":84,"Velocity":75,"Duration":102739,"SoundDuration":102739,"Delta":115870817},{"NoteNumber":82,"Velocity":73,"Duration":102739,"SoundDuration":102739,"Delta":115973557},{"NoteNumber":29,"Velocity":63,"Duration":618358,"SoundDuration":618358,"Delta":115973557},{"NoteNumber":41,"Velocity":75,"Duration":618358,"SoundDuration":618358,"Delta":115973557},{"NoteNumber":81,"Velocity":72,"Duration":102739,"SoundDuration":102739,"Delta":116076297},{"NoteNumber":79,"Velocity":71,"Duration":102739,"SoundDuration":102739,"Delta":116179037},{"NoteNumber":77,"Velocity":73,"Duration":102789,"SoundDuration":102789,"Delta":116281776},{"NoteNumber":75,"Velocity":75,"Duration":103285,"SoundDuration":103285,"Delta":116384566},{"NoteNumber":74,"Velocity":76,"Duration":104063,"SoundDuration":104063,"Delta":116487851},{"NoteNumber":72,"Velocity":78,"Duration":109473,"SoundDuration":109473,"Delta":116591915},{"NoteNumber":43,"Velocity":54,"Duration":109473,"SoundDuration":109473,"Delta":116591915},{"NoteNumber":77,"Velocity":79,"Duration":112493,"SoundDuration":112493,"Delta":116701389},{"NoteNumber":45,"Velocity":55,"Duration":112493,"SoundDuration":112493,"Delta":116701389},{"NoteNumber":65,"Velocity":75,"Duration":208333,"SoundDuration":208333,"Delta":116813882},{"NoteNumber":70,"Velocity":89,"Duration":208333,"SoundDuration":208333,"Delta":116813882},{"NoteNumber":58,"Velocity":75,"Duration":208333,"SoundDuration":208333,"Delta":116813882},{"NoteNumber":62,"Velocity":75,"Duration":208333,"SoundDuration":208333,"Delta":116813882},{"NoteNumber":34,"Velocity":55,"Duration":208333,"SoundDuration":208333,"Delta":116813882},{"NoteNumber":38,"Velocity":55,"Duration":208333,"SoundDuration":208333,"Delta":116813882},{"NoteNumber":46,"Velocity":65,"Duration":208333,"SoundDuration":208333,"Delta":116813882},{"NoteNumber":41,"Velocity":55,"Duration":208333,"SoundDuration":208333,"Delta":116813882},{"NoteNumber":67,"Velocity":50,"Duration":125000,"SoundDuration":125000,"Delta":117438883},{"NoteNumber":65,"Velocity":43,"Duration":125000,"SoundDuration":125000,"Delta":117543049},{"NoteNumber":63,"Velocity":50,"Duration":125000,"SoundDuration":125000,"Delta":117647216},{"NoteNumber":62,"Velocity":47,"Duration":125000,"SoundDuration":125000,"Delta":117751383},{"NoteNumber":60,"Velocity":47,"Duration":125000,"SoundDuration":125000,"Delta":117855550},{"NoteNumber":58,"Velocity":47,"Duration":125346,"SoundDuration":125346,"Delta":117959716},{"NoteNumber":57,"Velocity":50,"Duration":125873,"SoundDuration":125873,"Delta":118064083},{"NoteNumber":53,"Velocity":40,"Duration":209762,"SoundDuration":209762,"Delta":118064083},{"NoteNumber":58,"Velocity":44,"Duration":125773,"SoundDuration":125773,"Delta":118168978},{"NoteNumber":57,"Velocity":44,"Duration":125435,"SoundDuration":125435,"Delta":118273846},{"NoteNumber":55,"Velocity":44,"Duration":125408,"SoundDuration":125408,"Delta":118378376},{"NoteNumber":53,"Velocity":50,"Duration":104212,"SoundDuration":104212,"Delta":118482905},{"NoteNumber":69,"Velocity":46,"Duration":69489,"SoundDuration":69489,"Delta":118482905},{"NoteNumber":70,"Velocity":40,"Duration":69444,"SoundDuration":69444,"Delta":118552395},{"NoteNumber":55,"Velocity":44,"Duration":104166,"SoundDuration":104166,"Delta":118587117},{"NoteNumber":69,"Velocity":46,"Duration":69444,"SoundDuration":69444,"Delta":118621839},{"NoteNumber":53,"Velocity":44,"Duration":103636,"SoundDuration":103636,"Delta":118691284},{"NoteNumber":70,"Velocity":40,"Duration":69055,"SoundDuration":69055,"Delta":118691284},{"NoteNumber":69,"Velocity":44,"Duration":69186,"SoundDuration":69186,"Delta":118760339},{"NoteNumber":51,"Velocity":44,"Duration":104149,"SoundDuration":104149,"Delta":118794920},{"NoteNumber":70,"Velocity":40,"Duration":69544,"SoundDuration":69544,"Delta":118829526},{"NoteNumber":50,"Velocity":50,"Duration":104877,"SoundDuration":104877,"Delta":118899070},{"NoteNumber":69,"Velocity":45,"Duration":69811,"SoundDuration":69811,"Delta":118899070},{"NoteNumber":70,"Velocity":40,"Duration":70157,"SoundDuration":70157,"Delta":118968881},{"NoteNumber":51,"Velocity":44,"Duration":105615,"SoundDuration":105615,"Delta":119003947},{"NoteNumber":69,"Velocity":44,"Duration":70525,"SoundDuration":70525,"Delta":119039038},{"NoteNumber":50,"Velocity":44,"Duration":106364,"SoundDuration":106364,"Delta":119109563},{"NoteNumber":70,"Velocity":40,"Duration":53069,"SoundDuration":53069,"Delta":119109563},{"NoteNumber":69,"Velocity":44,"Duration":53295,"SoundDuration":53295,"Delta":119162633},{"NoteNumber":48,"Velocity":44,"Duration":107124,"SoundDuration":107124,"Delta":119215928},{"NoteNumber":67,"Velocity":40,"Duration":53447,"SoundDuration":53447,"Delta":119215928},{"NoteNumber":69,"Velocity":40,"Duration":53677,"SoundDuration":53677,"Delta":119269376},{"NoteNumber":46,"Velocity":50,"Duration":416667,"SoundDuration":416667,"Delta":119323053},{"NoteNumber":70,"Velocity":52,"Duration":416667,"SoundDuration":416667,"Delta":119323053},{"NoteNumber":70,"Velocity":52,"Duration":125000,"SoundDuration":125000,"Delta":119948053},{"NoteNumber":69,"Velocity":46,"Duration":125000,"SoundDuration":125000,"Delta":120052220},{"NoteNumber":67,"Velocity":46,"Duration":125000,"SoundDuration":125000,"Delta":120156387},{"NoteNumber":65,"Velocity":46,"Duration":125000,"SoundDuration":125000,"Delta":120260553},{"NoteNumber":63,"Velocity":48,"Duration":126723,"SoundDuration":126723,"Delta":120364720},{"NoteNumber":62,"Velocity":43,"Duration":133615,"SoundDuration":133615,"Delta":120468887},{"NoteNumber":67,"Velocity":52,"Duration":208333,"SoundDuration":208333,"Delta":120581669},{"NoteNumber":67,"Velocity":52,"Duration":125000,"SoundDuration":125000,"Delta":121206669},{"NoteNumber":65,"Velocity":46,"Duration":125000,"SoundDuration":125000,"Delta":121310836},{"NoteNumber":63,"Velocity":46,"Duration":125000,"SoundDuration":125000,"Delta":121415003},{"NoteNumber":62,"Velocity":46,"Duration":125000,"SoundDuration":125000,"Delta":121519170},{"NoteNumber":60,"Velocity":49,"Duration":126723,"SoundDuration":126723,"Delta":121623336},{"NoteNumber":58,"Velocity":45,"Duration":133615,"SoundDuration":133615,"Delta":121727503},{"NoteNumber":63,"Velocity":52,"Duration":208333,"SoundDuration":208333,"Delta":121840285},{"NoteNumber":63,"Velocity":52,"Duration":125000,"SoundDuration":125000,"Delta":122465286},{"NoteNumber":62,"Velocity":46,"Duration":125000,"SoundDuration":125000,"Delta":122569452},{"NoteNumber":60,"Velocity":52,"Duration":125000,"SoundDuration":125000,"Delta":122673619},{"NoteNumber":62,"Velocity":46,"Duration":125000,"SoundDuration":125000,"Delta":122777786},{"NoteNumber":60,"Velocity":46,"Duration":125905,"SoundDuration":125905,"Delta":122881953},{"NoteNumber":58,"Velocity":46,"Duration":108695,"SoundDuration":108695,"Delta":122986119},{"NoteNumber":57,"Velocity":53,"Duration":125000,"SoundDuration":125000,"Delta":123094815},{"NoteNumber":58,"Velocity":47,"Duration":125000,"SoundDuration":125000,"Delta":123198982},{"NoteNumber":57,"Velocity":47,"Duration":125905,"SoundDuration":125905,"Delta":123303149},{"NoteNumber":55,"Velocity":47,"Duration":129529,"SoundDuration":129529,"Delta":123407315},{"NoteNumber":53,"Velocity":52,"Duration":125000,"SoundDuration":125000,"Delta":123516011},{"NoteNumber":55,"Velocity":47,"Duration":125000,"SoundDuration":125000,"Delta":123620178},{"NoteNumber":57,"Velocity":48,"Duration":125000,"SoundDuration":125000,"Delta":123724345},{"NoteNumber":58,"Velocity":48,"Duration":125000,"SoundDuration":125000,"Delta":123828511},{"NoteNumber":59,"Velocity":52,"Duration":125000,"SoundDuration":125000,"Delta":123932678},{"NoteNumber":60,"Velocity":49,"Duration":125000,"SoundDuration":125000,"Delta":124036845},{"NoteNumber":62,"Velocity":49,"Duration":125905,"SoundDuration":125905,"Delta":124141012},{"NoteNumber":60,"Velocity":49,"Duration":108695,"SoundDuration":108695,"Delta":124245178},{"NoteNumber":58,"Velocity":52,"Duration":125000,"SoundDuration":125000,"Delta":124353874},{"NoteNumber":60,"Velocity":47,"Duration":125000,"SoundDuration":125000,"Delta":124458041},{"NoteNumber":62,"Velocity":47,"Duration":127788,"SoundDuration":127788,"Delta":124562208},{"NoteNumber":63,"Velocity":47,"Duration":138943,"SoundDuration":138943,"Delta":124666374},{"NoteNumber":64,"Velocity":52,"Duration":125000,"SoundDuration":125000,"Delta":124784485},{"NoteNumber":65,"Velocity":45,"Duration":125000,"SoundDuration":125000,"Delta":124888651},{"NoteNumber":67,"Velocity":45,"Duration":125000,"SoundDuration":125000,"Delta":124992818},{"NoteNumber":65,"Velocity":45,"Duration":125000,"SoundDuration":125000,"Delta":125096985},{"NoteNumber":63,"Velocity":52,"Duration":125000,"SoundDuration":125000,"Delta":125201152},{"NoteNumber":62,"Velocity":48,"Duration":125000,"SoundDuration":125000,"Delta":125305318},{"NoteNumber":60,"Velocity":48,"Duration":126064,"SoundDuration":126064,"Delta":125409485},{"NoteNumber":58,"Velocity":48,"Duration":109488,"SoundDuration":109488,"Delta":125513652},{"NoteNumber":57,"Velocity":52,"Duration":125000,"SoundDuration":125000,"Delta":125623141},{"NoteNumber":58,"Velocity":47,"Duration":125000,"SoundDuration":125000,"Delta":125727308},{"NoteNumber":57,"Velocity":47,"Duration":125000,"SoundDuration":125000,"Delta":125831474},{"NoteNumber":55,"Velocity":47,"Duration":125000,"SoundDuration":125000,"Delta":125935641},{"NoteNumber":53,"Velocity":53,"Duration":125000,"SoundDuration":125000,"Delta":126039808},{"NoteNumber":55,"Velocity":47,"Duration":125000,"SoundDuration":125000,"Delta":126143975},{"NoteNumber":57,"Velocity":48,"Duration":125000,"SoundDuration":125000,"Delta":126248141},{"NoteNumber":58,"Velocity":48,"Duration":104166,"SoundDuration":104166,"Delta":126352308},{"NoteNumber":59,"Velocity":54,"Duration":125000,"SoundDuration":125000,"Delta":126456475},{"NoteNumber":60,"Velocity":47,"Duration":125000,"SoundDuration":125000,"Delta":126560642},{"NoteNumber":62,"Velocity":48,"Duration":125595,"SoundDuration":125595,"Delta":126664808},{"NoteNumber":60,"Velocity":48,"Duration":107142,"SoundDuration":107142,"Delta":126768975},{"NoteNumber":58,"Velocity":55,"Duration":124567,"SoundDuration":124567,"Delta":126876118},{"NoteNumber":60,"Velocity":48,"Duration":124567,"SoundDuration":124567,"Delta":126979924},{"NoteNumber":62,"Velocity":49,"Duration":126028,"SoundDuration":126028,"Delta":127083730},{"NoteNumber":63,"Velocity":49,"Duration":132016,"SoundDuration":132016,"Delta":127187537},{"NoteNumber":64,"Velocity":56,"Duration":125435,"SoundDuration":125435,"Delta":127298648},{"NoteNumber":65,"Velocity":51,"Duration":125435,"SoundDuration":125435,"Delta":127403177},{"NoteNumber":67,"Velocity":52,"Duration":125435,"SoundDuration":125435,"Delta":127507707},{"NoteNumber":65,"Velocity":52,"Duration":104529,"SoundDuration":104529,"Delta":127612236},{"NoteNumber":58,"Velocity":57,"Duration":104529,"SoundDuration":104529,"Delta":127716766},{"NoteNumber":66,"Velocity":52,"Duration":125435,"SoundDuration":125435,"Delta":127821295},{"NoteNumber":67,"Velocity":53,"Duration":128723,"SoundDuration":128723,"Delta":127925825},{"NoteNumber":66,"Velocity":53,"Duration":120967,"SoundDuration":120967,"Delta":128030354},{"NoteNumber":58,"Velocity":61,"Duration":105263,"SoundDuration":105263,"Delta":128151322},{"NoteNumber":67,"Velocity":53,"Duration":126315,"SoundDuration":126315,"Delta":128256585},{"NoteNumber":69,"Velocity":53,"Duration":126315,"SoundDuration":126315,"Delta":128361848},{"NoteNumber":67,"Velocity":53,"Duration":105263,"SoundDuration":105263,"Delta":128467112},{"NoteNumber":66,"Velocity":59,"Duration":105263,"SoundDuration":105263,"Delta":128572375},{"NoteNumber":67,"Velocity":55,"Duration":126315,"SoundDuration":126315,"Delta":128677638},{"NoteNumber":69,"Velocity":55,"Duration":126315,"SoundDuration":126315,"Delta":128782901},{"NoteNumber":67,"Velocity":55,"Duration":105263,"SoundDuration":105263,"Delta":128888165},{"NoteNumber":64,"Velocity":60,"Duration":105263,"SoundDuration":105263,"Delta":128993428},{"NoteNumber":65,"Velocity":54,"Duration":126315,"SoundDuration":126315,"Delta":129098691},{"NoteNumber":67,"Velocity":54,"Duration":127081,"SoundDuration":127081,"Delta":129203954},{"NoteNumber":65,"Velocity":55,"Duration":109091,"SoundDuration":109091,"Delta":129309218},{"NoteNumber":64,"Velocity":61,"Duration":104529,"SoundDuration":104529,"Delta":129418309},{"NoteNumber":65,"Velocity":57,"Duration":125435,"SoundDuration":125435,"Delta":129522838},{"NoteNumber":67,"Velocity":57,"Duration":126669,"SoundDuration":126669,"Delta":129627368},{"NoteNumber":65,"Velocity":57,"Duration":110701,"SoundDuration":110701,"Delta":129731897},{"NoteNumber":62,"Velocity":62,"Duration":104894,"SoundDuration":104894,"Delta":129842598},{"NoteNumber":63,"Velocity":58,"Duration":125874,"SoundDuration":125874,"Delta":129947493},{"NoteNumber":65,"Velocity":59,"Duration":126713,"SoundDuration":126713,"Delta":130052388},{"NoteNumber":63,"Velocity":59,"Duration":109091,"SoundDuration":109091,"Delta":130157283},{"NoteNumber":61,"Velocity":63,"Duration":104529,"SoundDuration":104529,"Delta":130266374},{"NoteNumber":62,"Velocity":59,"Duration":125435,"SoundDuration":125435,"Delta":130370904},{"NoteNumber":63,"Velocity":59,"Duration":125881,"SoundDuration":125881,"Delta":130475433},{"NoteNumber":62,"Velocity":59,"Duration":106761,"SoundDuration":106761,"Delta":130579963},{"NoteNumber":58,"Velocity":65,"Duration":103448,"SoundDuration":103448,"Delta":130686724},{"NoteNumber":61,"Velocity":65,"Duration":103448,"SoundDuration":103448,"Delta":130686724},{"NoteNumber":62,"Velocity":58,"Duration":124137,"SoundDuration":124137,"Delta":130790172},{"NoteNumber":63,"Velocity":58,"Duration":124137,"SoundDuration":124137,"Delta":130893621},{"NoteNumber":62,"Velocity":58,"Duration":103484,"SoundDuration":103484,"Delta":130997069},{"NoteNumber":76,"Velocity":65,"Duration":69650,"SoundDuration":69650,"Delta":131100553},{"NoteNumber":59,"Velocity":65,"Duration":104372,"SoundDuration":104372,"Delta":131100553},{"NoteNumber":77,"Velocity":59,"Duration":69384,"SoundDuration":69384,"Delta":131170203},{"NoteNumber":60,"Velocity":60,"Duration":103782,"SoundDuration":103782,"Delta":131204925},{"NoteNumber":76,"Velocity":65,"Duration":69120,"SoundDuration":69120,"Delta":131239588},{"NoteNumber":77,"Velocity":60,"Duration":68858,"SoundDuration":68858,"Delta":131308708},{"NoteNumber":62,"Velocity":60,"Duration":103211,"SoundDuration":103211,"Delta":131308708},{"NoteNumber":76,"Velocity":65,"Duration":68599,"SoundDuration":68599,"Delta":131377567},{"NoteNumber":60,"Velocity":60,"Duration":102576,"SoundDuration":102576,"Delta":131411920},{"NoteNumber":77,"Velocity":61,"Duration":68329,"SoundDuration":68329,"Delta":131446166},{"NoteNumber":76,"Velocity":65,"Duration":68061,"SoundDuration":68061,"Delta":131514496},{"NoteNumber":57,"Velocity":65,"Duration":102203,"SoundDuration":102203,"Delta":131514496},{"NoteNumber":77,"Velocity":65,"Duration":68387,"SoundDuration":68387,"Delta":131582558},{"NoteNumber":58,"Velocity":58,"Duration":102904,"SoundDuration":102904,"Delta":131616699},{"NoteNumber":76,"Velocity":65,"Duration":68657,"SoundDuration":68657,"Delta":131650946},{"NoteNumber":77,"Velocity":61,"Duration":51724,"SoundDuration":51724,"Delta":131719604},{"NoteNumber":60,"Velocity":58,"Duration":103615,"SoundDuration":103615,"Delta":131719604},{"NoteNumber":76,"Velocity":65,"Duration":51891,"SoundDuration":51891,"Delta":131771328},{"NoteNumber":74,"Velocity":61,"Duration":57692,"SoundDuration":57692,"Delta":131823219},{"NoteNumber":58,"Velocity":58,"Duration":115384,"SoundDuration":115384,"Delta":131823219},{"NoteNumber":76,"Velocity":61,"Duration":57692,"SoundDuration":57692,"Delta":131880911},{"NoteNumber":77,"Velocity":69,"Duration":463569,"SoundDuration":463569,"Delta":131938604},{"NoteNumber":57,"Velocity":65,"Duration":113207,"SoundDuration":113207,"Delta":132175758},{"NoteNumber":69,"Velocity":76,"Duration":637572,"SoundDuration":637572,"Delta":132402173},{"NoteNumber":77,"Velocity":62,"Duration":128113,"SoundDuration":128113,"Delta":132612699},{"NoteNumber":76,"Velocity":52,"Duration":128113,"SoundDuration":128113,"Delta":132719461},{"NoteNumber":74,"Velocity":52,"Duration":128113,"SoundDuration":128113,"Delta":132826222},{"NoteNumber":72,"Velocity":52,"Duration":128113,"SoundDuration":128113,"Delta":132932984},{"NoteNumber":70,"Velocity":58,"Duration":129317,"SoundDuration":129317,"Delta":133039745},{"NoteNumber":69,"Velocity":51,"Duration":136311,"SoundDuration":136311,"Delta":133146507},{"NoteNumber":74,"Velocity":69,"Duration":462566,"SoundDuration":462566,"Delta":133259289},{"NoteNumber":53,"Velocity":65,"Duration":113636,"SoundDuration":113636,"Delta":133494583},{"NoteNumber":65,"Velocity":76,"Duration":645978,"SoundDuration":645978,"Delta":133721855},{"NoteNumber":74,"Velocity":62,"Duration":129963,"SoundDuration":129963,"Delta":133934621},{"NoteNumber":72,"Velocity":52,"Duration":129963,"SoundDuration":129963,"Delta":134042924},{"NoteNumber":70,"Velocity":52,"Duration":129963,"SoundDuration":129963,"Delta":134151228},{"NoteNumber":69,"Velocity":52,"Duration":129963,"SoundDuration":129963,"Delta":134259531},{"NoteNumber":67,"Velocity":58,"Duration":130859,"SoundDuration":130859,"Delta":134367834},{"NoteNumber":65,"Velocity":51,"Duration":136782,"SoundDuration":136782,"Delta":134476137},{"NoteNumber":70,"Velocity":69,"Duration":472558,"SoundDuration":472558,"Delta":134588919},{"NoteNumber":50,"Velocity":61,"Duration":116278,"SoundDuration":116278,"Delta":134828919},{"NoteNumber":62,"Velocity":68,"Duration":246537,"SoundDuration":246537,"Delta":135061477},{"NoteNumber":70,"Velocity":66,"Duration":130909,"SoundDuration":130909,"Delta":135286196},{"NoteNumber":60,"Velocity":61,"Duration":240000,"SoundDuration":240000,"Delta":135286196},{"NoteNumber":69,"Velocity":65,"Duration":130909,"SoundDuration":130909,"Delta":135395287},{"NoteNumber":67,"Velocity":64,"Duration":130909,"SoundDuration":130909,"Delta":135504378},{"NoteNumber":58,"Velocity":60,"Duration":240000,"SoundDuration":240000,"Delta":135504378},{"NoteNumber":69,"Velocity":63,"Duration":130909,"SoundDuration":130909,"Delta":135613469},{"NoteNumber":67,"Velocity":61,"Duration":130909,"SoundDuration":130909,"Delta":135722560},{"NoteNumber":59,"Velocity":60,"Duration":240000,"SoundDuration":240000,"Delta":135722560},{"NoteNumber":65,"Velocity":62,"Duration":130909,"SoundDuration":130909,"Delta":135831651},{"NoteNumber":64,"Velocity":66,"Duration":130909,"SoundDuration":130909,"Delta":135940742},{"NoteNumber":60,"Velocity":70,"Duration":109090,"SoundDuration":109090,"Delta":135940742},{"NoteNumber":65,"Velocity":59,"Duration":130909,"SoundDuration":130909,"Delta":136049833},{"NoteNumber":64,"Velocity":59,"Duration":130909,"SoundDuration":130909,"Delta":136158924},{"NoteNumber":62,"Velocity":59,"Duration":109091,"SoundDuration":109091,"Delta":136268015},{"NoteNumber":60,"Velocity":59,"Duration":109090,"SoundDuration":109090,"Delta":136377106},{"NoteNumber":58,"Velocity":71,"Duration":654545,"SoundDuration":654545,"Delta":136377106},{"NoteNumber":62,"Velocity":62,"Duration":130909,"SoundDuration":130909,"Delta":136486197},{"NoteNumber":64,"Velocity":57,"Duration":130909,"SoundDuration":130909,"Delta":136595288},{"NoteNumber":65,"Velocity":57,"Duration":130909,"SoundDuration":130909,"Delta":136704379},{"NoteNumber":66,"Velocity":57,"Duration":130909,"SoundDuration":130909,"Delta":136813470},{"NoteNumber":67,"Velocity":57,"Duration":130909,"SoundDuration":130909,"Delta":136922561},{"NoteNumber":69,"Velocity":57,"Duration":132437,"SoundDuration":132437,"Delta":137031652},{"NoteNumber":58,"Velocity":59,"Duration":225822,"SoundDuration":225822,"Delta":137031652},{"NoteNumber":67,"Velocity":57,"Duration":116731,"SoundDuration":116731,"Delta":137140743},{"NoteNumber":65,"Velocity":60,"Duration":131386,"SoundDuration":131386,"Delta":137257475},{"NoteNumber":58,"Velocity":65,"Duration":240875,"SoundDuration":240875,"Delta":137257475},{"NoteNumber":67,"Velocity":61,"Duration":131386,"SoundDuration":131386,"Delta":137366964},{"NoteNumber":69,"Velocity":61,"Duration":131386,"SoundDuration":131386,"Delta":137476453},{"NoteNumber":57,"Velocity":59,"Duration":240875,"SoundDuration":240875,"Delta":137476453},{"NoteNumber":70,"Velocity":62,"Duration":131386,"SoundDuration":131386,"Delta":137585942},{"NoteNumber":71,"Velocity":63,"Duration":131386,"SoundDuration":131386,"Delta":137695431},{"NoteNumber":55,"Velocity":59,"Duration":240875,"SoundDuration":240875,"Delta":137695431},{"NoteNumber":72,"Velocity":63,"Duration":131386,"SoundDuration":131386,"Delta":137804920},{"NoteNumber":74,"Velocity":64,"Duration":131386,"SoundDuration":131386,"Delta":137914409},{"NoteNumber":53,"Velocity":59,"Duration":240875,"SoundDuration":240875,"Delta":137914409},{"NoteNumber":72,"Velocity":60,"Duration":131386,"SoundDuration":131386,"Delta":138023898},{"NoteNumber":70,"Velocity":64,"Duration":131386,"SoundDuration":131386,"Delta":138133387},{"NoteNumber":52,"Velocity":59,"Duration":240875,"SoundDuration":240875,"Delta":138133387},{"NoteNumber":69,"Velocity":63,"Duration":131386,"SoundDuration":131386,"Delta":138242876},{"NoteNumber":67,"Velocity":62,"Duration":131386,"SoundDuration":131386,"Delta":138352365},{"NoteNumber":53,"Velocity":59,"Duration":218978,"SoundDuration":218978,"Delta":138352365},{"NoteNumber":65,"Velocity":60,"Duration":132744,"SoundDuration":132744,"Delta":138461854},{"NoteNumber":64,"Velocity":65,"Duration":139534,"SoundDuration":139534,"Delta":138571343},{"NoteNumber":60,"Velocity":69,"Duration":116278,"SoundDuration":116278,"Delta":138571343},{"NoteNumber":65,"Velocity":56,"Duration":138920,"SoundDuration":138920,"Delta":138687622},{"NoteNumber":64,"Velocity":58,"Duration":135849,"SoundDuration":135849,"Delta":138803901},{"NoteNumber":62,"Velocity":58,"Duration":113207,"SoundDuration":113207,"Delta":138917108},{"NoteNumber":60,"Velocity":62,"Duration":131386,"SoundDuration":131386,"Delta":139030316},{"NoteNumber":58,"Velocity":68,"Duration":656934,"SoundDuration":656934,"Delta":139030316},{"NoteNumber":62,"Velocity":62,"Duration":131386,"SoundDuration":131386,"Delta":139139805},{"NoteNumber":64,"Velocity":58,"Duration":131386,"SoundDuration":131386,"Delta":139249294},{"NoteNumber":65,"Velocity":58,"Duration":131386,"SoundDuration":131386,"Delta":139358783},{"NoteNumber":66,"Velocity":58,"Duration":131386,"SoundDuration":131386,"Delta":139468272},{"NoteNumber":67,"Velocity":58,"Duration":131386,"SoundDuration":131386,"Delta":139577761},{"NoteNumber":69,"Velocity":58,"Duration":131386,"SoundDuration":131386,"Delta":139687250},{"NoteNumber":57,"Velocity":65,"Duration":218977,"SoundDuration":218977,"Delta":139687250},{"NoteNumber":65,"Velocity":58,"Duration":109488,"SoundDuration":109488,"Delta":139796739},{"NoteNumber":64,"Velocity":66,"Duration":139534,"SoundDuration":139534,"Delta":139906228},{"NoteNumber":62,"Velocity":71,"Duration":116278,"SoundDuration":116278,"Delta":139906228},{"NoteNumber":65,"Velocity":62,"Duration":138920,"SoundDuration":138920,"Delta":140022507},{"NoteNumber":72,"Velocity":59,"Duration":135849,"SoundDuration":135849,"Delta":140138786},{"NoteNumber":70,"Velocity":59,"Duration":113207,"SoundDuration":113207,"Delta":140251993},{"NoteNumber":69,"Velocity":62,"Duration":130909,"SoundDuration":130909,"Delta":140365201},{"NoteNumber":61,"Velocity":70,"Duration":654546,"SoundDuration":654546,"Delta":140365201},{"NoteNumber":70,"Velocity":56,"Duration":130909,"SoundDuration":130909,"Delta":140474292},{"NoteNumber":72,"Velocity":56,"Duration":130909,"SoundDuration":130909,"Delta":140583383},{"NoteNumber":70,"Velocity":56,"Duration":109091,"SoundDuration":109091,"Delta":140692474},{"NoteNumber":68,"Velocity":58,"Duration":130909,"SoundDuration":130909,"Delta":140801565},{"NoteNumber":69,"Velocity":57,"Duration":130909,"SoundDuration":130909,"Delta":140910656},{"NoteNumber":70,"Velocity":57,"Duration":130909,"SoundDuration":130909,"Delta":141019747},{"NoteNumber":60,"Velocity":62,"Duration":218181,"SoundDuration":218181,"Delta":141019747},{"NoteNumber":69,"Velocity":57,"Duration":109091,"SoundDuration":109091,"Delta":141128838},{"NoteNumber":67,"Velocity":68,"Duration":138995,"SoundDuration":138995,"Delta":141237929},{"NoteNumber":65,"Velocity":71,"Duration":115829,"SoundDuration":115829,"Delta":141237929},{"NoteNumber":68,"Velocity":62,"Duration":138386,"SoundDuration":138386,"Delta":141353759},{"NoteNumber":75,"Velocity":68,"Duration":135338,"SoundDuration":135338,"Delta":141469589},{"NoteNumber":74,"Velocity":62,"Duration":112781,"SoundDuration":112781,"Delta":141582371},{"NoteNumber":72,"Velocity":64,"Duration":130909,"SoundDuration":130909,"Delta":141695153},{"NoteNumber":64,"Velocity":70,"Duration":654546,"SoundDuration":654546,"Delta":141695153},{"NoteNumber":73,"Velocity":59,"Duration":130909,"SoundDuration":130909,"Delta":141804244},{"NoteNumber":74,"Velocity":59,"Duration":130909,"SoundDuration":130909,"Delta":141913335},{"NoteNumber":73,"Velocity":59,"Duration":109091,"SoundDuration":109091,"Delta":142022426},{"NoteNumber":71,"Velocity":62,"Duration":130909,"SoundDuration":130909,"Delta":142131517},{"NoteNumber":72,"Velocity":58,"Duration":130909,"SoundDuration":130909,"Delta":142240608},{"NoteNumber":74,"Velocity":58,"Duration":130909,"SoundDuration":130909,"Delta":142349699},{"NoteNumber":63,"Velocity":61,"Duration":218181,"SoundDuration":218181,"Delta":142349699},{"NoteNumber":72,"Velocity":58,"Duration":109091,"SoundDuration":109091,"Delta":142458790},{"NoteNumber":63,"Velocity":79,"Duration":902382,"SoundDuration":902382,"Delta":142567881},{"NoteNumber":68,"Velocity":79,"Duration":142292,"SoundDuration":142292,"Delta":142567881},{"NoteNumber":41,"Velocity":73,"Duration":237154,"SoundDuration":237154,"Delta":142567881},{"NoteNumber":69,"Velocity":68,"Duration":141304,"SoundDuration":141304,"Delta":142686458},{"NoteNumber":70,"Velocity":68,"Duration":136363,"SoundDuration":136363,"Delta":142805035},{"NoteNumber":69,"Velocity":68,"Duration":113636,"SoundDuration":113636,"Delta":142918671},{"NoteNumber":64,"Velocity":68,"Duration":109488,"SoundDuration":109488,"Delta":143032307},{"NoteNumber":57,"Velocity":70,"Duration":72992,"SoundDuration":72992,"Delta":143032307},{"NoteNumber":58,"Velocity":62,"Duration":72992,"SoundDuration":72992,"Delta":143105300},{"NoteNumber":65,"Velocity":64,"Duration":109488,"SoundDuration":109488,"Delta":143141796},{"NoteNumber":57,"Velocity":70,"Duration":72992,"SoundDuration":72992,"Delta":143178293},{"NoteNumber":67,"Velocity":64,"Duration":109488,"SoundDuration":109488,"Delta":143251285},{"NoteNumber":58,"Velocity":63,"Duration":72992,"SoundDuration":72992,"Delta":143251285},{"NoteNumber":57,"Velocity":70,"Duration":72992,"SoundDuration":72992,"Delta":143324278},{"NoteNumber":65,"Velocity":64,"Duration":109489,"SoundDuration":109489,"Delta":143360774},{"NoteNumber":58,"Velocity":63,"Duration":72992,"SoundDuration":72992,"Delta":143397271},{"NoteNumber":65,"Velocity":71,"Duration":689338,"SoundDuration":689338,"Delta":143470263},{"NoteNumber":71,"Velocity":68,"Duration":111110,"SoundDuration":111110,"Delta":143470263},{"NoteNumber":57,"Velocity":70,"Duration":74073,"SoundDuration":74073,"Delta":143470263},{"NoteNumber":58,"Velocity":64,"Duration":74073,"SoundDuration":74073,"Delta":143544337},{"NoteNumber":72,"Velocity":63,"Duration":111110,"SoundDuration":111110,"Delta":143581374},{"NoteNumber":57,"Velocity":70,"Duration":74073,"SoundDuration":74073,"Delta":143618411},{"NoteNumber":74,"Velocity":63,"Duration":116284,"SoundDuration":116284,"Delta":143692485},{"NoteNumber":58,"Velocity":63,"Duration":56786,"SoundDuration":56786,"Delta":143692485},{"NoteNumber":57,"Velocity":70,"Duration":59497,"SoundDuration":59497,"Delta":143749272},{"NoteNumber":72,"Velocity":63,"Duration":129429,"SoundDuration":129429,"Delta":143808770},{"NoteNumber":55,"Velocity":65,"Duration":62971,"SoundDuration":62971,"Delta":143808770},{"NoteNumber":57,"Velocity":65,"Duration":66458,"SoundDuration":66458,"Delta":143871741},{"NoteNumber":58,"Velocity":72,"Duration":442803,"SoundDuration":442803,"Delta":143938199},{"NoteNumber":62,"Velocity":65,"Duration":110700,"SoundDuration":110700,"Delta":144159601},{"NoteNumber":74,"Velocity":76,"Duration":648448,"SoundDuration":648448,"Delta":144381003},{"NoteNumber":69,"Velocity":45,"Duration":213523,"SoundDuration":213523,"Delta":144602405},{"NoteNumber":58,"Velocity":62,"Duration":128113,"SoundDuration":128113,"Delta":144602405},{"NoteNumber":57,"Velocity":52,"Duration":128113,"SoundDuration":128113,"Delta":144709167},{"NoteNumber":70,"Velocity":50,"Duration":433066,"SoundDuration":433066,"Delta":144815928},{"NoteNumber":55,"Velocity":52,"Duration":128113,"SoundDuration":128113,"Delta":144815928},{"NoteNumber":53,"Velocity":52,"Duration":128113,"SoundDuration":128113,"Delta":144922690},{"NoteNumber":51,"Velocity":58,"Duration":129317,"SoundDuration":129317,"Delta":145029451},{"NoteNumber":50,"Velocity":51,"Duration":136311,"SoundDuration":136311,"Delta":145136213},{"NoteNumber":55,"Velocity":69,"Duration":462566,"SoundDuration":462566,"Delta":145248995},{"NoteNumber":58,"Velocity":65,"Duration":113636,"SoundDuration":113636,"Delta":145484289},{"NoteNumber":70,"Velocity":76,"Duration":645978,"SoundDuration":645978,"Delta":145711561},{"NoteNumber":66,"Velocity":45,"Duration":216606,"SoundDuration":216606,"Delta":145924327},{"NoteNumber":55,"Velocity":62,"Duration":129963,"SoundDuration":129963,"Delta":145924327},{"NoteNumber":53,"Velocity":52,"Duration":129963,"SoundDuration":129963,"Delta":146032631},{"NoteNumber":67,"Velocity":50,"Duration":437691,"SoundDuration":437691,"Delta":146140934},{"NoteNumber":51,"Velocity":52,"Duration":129963,"SoundDuration":129963,"Delta":146140934},{"NoteNumber":50,"Velocity":52,"Duration":129963,"SoundDuration":129963,"Delta":146249237},{"NoteNumber":48,"Velocity":58,"Duration":130859,"SoundDuration":130859,"Delta":146357540},{"NoteNumber":46,"Velocity":51,"Duration":136782,"SoundDuration":136782,"Delta":146465844},{"NoteNumber":51,"Velocity":69,"Duration":472558,"SoundDuration":472558,"Delta":146578626},{"NoteNumber":67,"Velocity":61,"Duration":116278,"SoundDuration":116278,"Delta":146818626},{"NoteNumber":79,"Velocity":68,"Duration":246537,"SoundDuration":246537,"Delta":147051184},{"NoteNumber":71,"Velocity":51,"Duration":218182,"SoundDuration":218182,"Delta":147275903},{"NoteNumber":77,"Velocity":61,"Duration":240000,"SoundDuration":240000,"Delta":147275903},{"NoteNumber":51,"Velocity":56,"Duration":130909,"SoundDuration":130909,"Delta":147275903},{"NoteNumber":50,"Velocity":55,"Duration":130909,"SoundDuration":130909,"Delta":147384994},{"NoteNumber":72,"Velocity":51,"Duration":218181,"SoundDuration":218181,"Delta":147494085},{"NoteNumber":75,"Velocity":60,"Duration":240909,"SoundDuration":240909,"Delta":147494085},{"NoteNumber":48,"Velocity":54,"Duration":130909,"SoundDuration":130909,"Delta":147494085},{"NoteNumber":50,"Velocity":53,"Duration":131818,"SoundDuration":131818,"Delta":147603176},{"NoteNumber":67,"Velocity":51,"Duration":227272,"SoundDuration":227272,"Delta":147712267},{"NoteNumber":76,"Velocity":60,"Duration":249660,"SoundDuration":249660,"Delta":147712267},{"NoteNumber":48,"Velocity":51,"Duration":136363,"SoundDuration":136363,"Delta":147712267},{"NoteNumber":46,"Velocity":52,"Duration":136024,"SoundDuration":136024,"Delta":147825903},{"NoteNumber":72,"Velocity":59,"Duration":111940,"SoundDuration":111940,"Delta":147939539},{"NoteNumber":77,"Velocity":70,"Duration":111940,"SoundDuration":111940,"Delta":147939539},{"NoteNumber":45,"Velocity":56,"Duration":134328,"SoundDuration":134328,"Delta":147939539},{"NoteNumber":46,"Velocity":50,"Duration":135655,"SoundDuration":135655,"Delta":148051479},{"NoteNumber":65,"Velocity":59,"Duration":237154,"SoundDuration":237154,"Delta":148163420},{"NoteNumber":45,"Velocity":50,"Duration":142292,"SoundDuration":142292,"Delta":148163420},{"NoteNumber":43,"Velocity":50,"Duration":118577,"SoundDuration":118577,"Delta":148281997},{"NoteNumber":72,"Velocity":59,"Duration":217391,"SoundDuration":217391,"Delta":148400574},{"NoteNumber":75,"Velocity":78,"Duration":652174,"SoundDuration":652174,"Delta":148400574},{"NoteNumber":41,"Velocity":50,"Duration":108695,"SoundDuration":108695,"Delta":148400574},{"NoteNumber":43,"Velocity":52,"Duration":130434,"SoundDuration":130434,"Delta":148509269},{"NoteNumber":66,"Velocity":59,"Duration":217391,"SoundDuration":217391,"Delta":148617965},{"NoteNumber":45,"Velocity":48,"Duration":130434,"SoundDuration":130434,"Delta":148617965},{"NoteNumber":46,"Velocity":48,"Duration":130434,"SoundDuration":130434,"Delta":148726661},{"NoteNumber":65,"Velocity":59,"Duration":661796,"SoundDuration":661796,"Delta":148835357},{"NoteNumber":47,"Velocity":48,"Duration":130434,"SoundDuration":130434,"Delta":148835357},{"NoteNumber":48,"Velocity":48,"Duration":130434,"SoundDuration":130434,"Delta":148944052},{"NoteNumber":75,"Velocity":59,"Duration":225427,"SoundDuration":225427,"Delta":149052748},{"NoteNumber":50,"Velocity":48,"Duration":132042,"SoundDuration":132042,"Delta":149052748},{"NoteNumber":48,"Velocity":48,"Duration":116731,"SoundDuration":116731,"Delta":149161444},{"NoteNumber":75,"Velocity":65,"Duration":240875,"SoundDuration":240875,"Delta":149278175},{"NoteNumber":46,"Velocity":51,"Duration":131386,"SoundDuration":131386,"Delta":149278175},{"NoteNumber":48,"Velocity":51,"Duration":131386,"SoundDuration":131386,"Delta":149387664},{"NoteNumber":65,"Velocity":50,"Duration":218978,"SoundDuration":218978,"Delta":149497153},{"NoteNumber":74,"Velocity":59,"Duration":240875,"SoundDuration":240875,"Delta":149497153},{"NoteNumber":50,"Velocity":51,"Duration":131386,"SoundDuration":131386,"Delta":149497153},{"NoteNumber":51,"Velocity":52,"Duration":131386,"SoundDuration":131386,"Delta":149606642},{"NoteNumber":63,"Velocity":50,"Duration":218977,"SoundDuration":218977,"Delta":149716131},{"NoteNumber":72,"Velocity":59,"Duration":240875,"SoundDuration":240875,"Delta":149716131},{"NoteNumber":52,"Velocity":53,"Duration":131386,"SoundDuration":131386,"Delta":149716131},{"NoteNumber":53,"Velocity":53,"Duration":131386,"SoundDuration":131386,"Delta":149825620},{"NoteNumber":62,"Velocity":50,"Duration":218977,"SoundDuration":218977,"Delta":149935109},{"NoteNumber":70,"Velocity":59,"Duration":240875,"SoundDuration":240875,"Delta":149935109},{"NoteNumber":55,"Velocity":54,"Duration":131386,"SoundDuration":131386,"Delta":149935109},{"NoteNumber":53,"Velocity":51,"Duration":131386,"SoundDuration":131386,"Delta":150044598},{"NoteNumber":60,"Velocity":50,"Duration":218977,"SoundDuration":218977,"Delta":150154087},{"NoteNumber":69,"Velocity":59,"Duration":240875,"SoundDuration":240875,"Delta":150154087},{"NoteNumber":51,"Velocity":54,"Duration":131386,"SoundDuration":131386,"Delta":150154087},{"NoteNumber":50,"Velocity":53,"Duration":131386,"SoundDuration":131386,"Delta":150263576},{"NoteNumber":62,"Velocity":50,"Duration":218978,"SoundDuration":218978,"Delta":150373065},{"NoteNumber":70,"Velocity":59,"Duration":218978,"SoundDuration":218978,"Delta":150373065},{"NoteNumber":48,"Velocity":52,"Duration":131386,"SoundDuration":131386,"Delta":150373065},{"NoteNumber":46,"Velocity":51,"Duration":131877,"SoundDuration":131877,"Delta":150482554},{"NoteNumber":65,"Velocity":70,"Duration":111940,"SoundDuration":111940,"Delta":150592043},{"NoteNumber":45,"Velocity":56,"Duration":134328,"SoundDuration":134328,"Delta":150592043},{"NoteNumber":46,"Velocity":50,"Duration":135655,"SoundDuration":135655,"Delta":150703984},{"NoteNumber":71,"Velocity":59,"Duration":237154,"SoundDuration":237154,"Delta":150815924},{"NoteNumber":45,"Velocity":50,"Duration":142292,"SoundDuration":142292,"Delta":150815924},{"NoteNumber":43,"Velocity":50,"Duration":118577,"SoundDuration":118577,"Delta":150934501},{"NoteNumber":72,"Velocity":59,"Duration":217391,"SoundDuration":217391,"Delta":151053078},{"NoteNumber":63,"Velocity":78,"Duration":652174,"SoundDuration":652174,"Delta":151053078},{"NoteNumber":41,"Velocity":50,"Duration":108695,"SoundDuration":108695,"Delta":151053078},{"NoteNumber":43,"Velocity":52,"Duration":130434,"SoundDuration":130434,"Delta":151161774},{"NoteNumber":66,"Velocity":59,"Duration":217391,"SoundDuration":217391,"Delta":151270469},{"NoteNumber":45,"Velocity":48,"Duration":130434,"SoundDuration":130434,"Delta":151270469},{"NoteNumber":46,"Velocity":48,"Duration":130434,"SoundDuration":130434,"Delta":151379165},{"NoteNumber":65,"Velocity":59,"Duration":442818,"SoundDuration":442818,"Delta":151487861},{"NoteNumber":45,"Velocity":48,"Duration":130434,"SoundDuration":130434,"Delta":151487861},{"NoteNumber":46,"Velocity":48,"Duration":130434,"SoundDuration":130434,"Delta":151596557},{"NoteNumber":62,"Velocity":59,"Duration":225427,"SoundDuration":225427,"Delta":151705252},{"NoteNumber":48,"Velocity":48,"Duration":132042,"SoundDuration":132042,"Delta":151705252},{"NoteNumber":50,"Velocity":48,"Duration":116731,"SoundDuration":116731,"Delta":151813948},{"NoteNumber":80,"Velocity":77,"Duration":113207,"SoundDuration":113207,"Delta":151930680},{"NoteNumber":51,"Velocity":51,"Duration":135849,"SoundDuration":135849,"Delta":151930680},{"NoteNumber":53,"Velocity":51,"Duration":135025,"SoundDuration":135025,"Delta":152043887},{"NoteNumber":70,"Velocity":59,"Duration":217786,"SoundDuration":217786,"Delta":152157095},{"NoteNumber":55,"Velocity":51,"Duration":130830,"SoundDuration":130830,"Delta":152157095},{"NoteNumber":51,"Velocity":52,"Duration":130434,"SoundDuration":130434,"Delta":152266186},{"NoteNumber":76,"Velocity":59,"Duration":217391,"SoundDuration":217391,"Delta":152374881},{"NoteNumber":79,"Velocity":85,"Duration":652174,"SoundDuration":652174,"Delta":152374881},{"NoteNumber":49,"Velocity":53,"Duration":130434,"SoundDuration":130434,"Delta":152374881},{"NoteNumber":50,"Velocity":53,"Duration":130434,"SoundDuration":130434,"Delta":152483577},{"NoteNumber":70,"Velocity":59,"Duration":652174,"SoundDuration":652174,"Delta":152592273},{"NoteNumber":52,"Velocity":54,"Duration":130434,"SoundDuration":130434,"Delta":152592273},{"NoteNumber":49,"Velocity":51,"Duration":130434,"SoundDuration":130434,"Delta":152700969},{"NoteNumber":50,"Velocity":54,"Duration":108695,"SoundDuration":108695,"Delta":152809664},{"NoteNumber":53,"Velocity":53,"Duration":108695,"SoundDuration":108695,"Delta":152918360},{"NoteNumber":77,"Velocity":59,"Duration":217391,"SoundDuration":217391,"Delta":153027056},{"NoteNumber":58,"Velocity":52,"Duration":108695,"SoundDuration":108695,"Delta":153027056},{"NoteNumber":62,"Velocity":51,"Duration":108695,"SoundDuration":108695,"Delta":153135752},{"NoteNumber":72,"Velocity":77,"Duration":110294,"SoundDuration":110294,"Delta":153244447},{"NoteNumber":54,"Velocity":56,"Duration":132352,"SoundDuration":132352,"Delta":153244447},{"NoteNumber":55,"Velocity":50,"Duration":132682,"SoundDuration":132682,"Delta":153354741},{"NoteNumber":75,"Velocity":59,"Duration":223880,"SoundDuration":223880,"Delta":153465035},{"NoteNumber":57,"Velocity":50,"Duration":134328,"SoundDuration":134328,"Delta":153465035},{"NoteNumber":55,"Velocity":50,"Duration":111940,"SoundDuration":111940,"Delta":153576976},{"NoteNumber":79,"Velocity":59,"Duration":217391,"SoundDuration":217391,"Delta":153688916},{"NoteNumber":70,"Velocity":85,"Duration":652174,"SoundDuration":652174,"Delta":153688916},{"NoteNumber":51,"Velocity":50,"Duration":108695,"SoundDuration":108695,"Delta":153688916},{"NoteNumber":52,"Velocity":52,"Duration":130434,"SoundDuration":130434,"Delta":153797612},{"NoteNumber":73,"Velocity":59,"Duration":217391,"SoundDuration":217391,"Delta":153906307},{"NoteNumber":53,"Velocity":48,"Duration":130434,"SoundDuration":130434,"Delta":153906307},{"NoteNumber":52,"Velocity":48,"Duration":130434,"SoundDuration":130434,"Delta":154015003},{"NoteNumber":72,"Velocity":59,"Duration":442818,"SoundDuration":442818,"Delta":154123699},{"NoteNumber":53,"Velocity":48,"Duration":108695,"SoundDuration":108695,"Delta":154123699},{"NoteNumber":57,"Velocity":48,"Duration":108695,"SoundDuration":108695,"Delta":154232395},{"NoteNumber":69,"Velocity":59,"Duration":225427,"SoundDuration":225427,"Delta":154341090},{"NoteNumber":60,"Velocity":48,"Duration":108695,"SoundDuration":108695,"Delta":154341090},{"NoteNumber":65,"Velocity":48,"Duration":116731,"SoundDuration":116731,"Delta":154449786},{"NoteNumber":89,"Velocity":83,"Duration":113207,"SoundDuration":113207,"Delta":154566518},{"NoteNumber":59,"Velocity":51,"Duration":135849,"SoundDuration":135849,"Delta":154566518},{"NoteNumber":60,"Velocity":51,"Duration":135025,"SoundDuration":135025,"Delta":154679725},{"NoteNumber":81,"Velocity":67,"Duration":218182,"SoundDuration":218182,"Delta":154792933},{"NoteNumber":62,"Velocity":51,"Duration":130909,"SoundDuration":130909,"Delta":154792933},{"NoteNumber":60,"Velocity":52,"Duration":130909,"SoundDuration":130909,"Delta":154902024},{"NoteNumber":84,"Velocity":67,"Duration":218181,"SoundDuration":218181,"Delta":155011115},{"NoteNumber":87,"Velocity":89,"Duration":654545,"SoundDuration":654545,"Delta":155011115},{"NoteNumber":56,"Velocity":53,"Duration":130909,"SoundDuration":130909,"Delta":155011115},{"NoteNumber":57,"Velocity":53,"Duration":130909,"SoundDuration":130909,"Delta":155120206},{"NoteNumber":78,"Velocity":67,"Duration":218182,"SoundDuration":218182,"Delta":155229297},{"NoteNumber":58,"Velocity":54,"Duration":130909,"SoundDuration":130909,"Delta":155229297},{"NoteNumber":57,"Velocity":51,"Duration":130909,"SoundDuration":130909,"Delta":155338388},{"NoteNumber":77,"Velocity":67,"Duration":436363,"SoundDuration":436363,"Delta":155447479},{"NoteNumber":58,"Velocity":54,"Duration":130909,"SoundDuration":130909,"Delta":155447479},{"NoteNumber":57,"Velocity":53,"Duration":130909,"SoundDuration":130909,"Delta":155556570},{"NoteNumber":86,"Velocity":71,"Duration":218182,"SoundDuration":218182,"Delta":155665661},{"NoteNumber":55,"Velocity":52,"Duration":130909,"SoundDuration":130909,"Delta":155665661},{"NoteNumber":53,"Velocity":51,"Duration":131732,"SoundDuration":131732,"Delta":155774752},{"NoteNumber":92,"Velocity":92,"Duration":113207,"SoundDuration":113207,"Delta":155883843},{"NoteNumber":51,"Velocity":51,"Duration":135849,"SoundDuration":135849,"Delta":155883843},{"NoteNumber":53,"Velocity":51,"Duration":135025,"SoundDuration":135025,"Delta":155997050},{"NoteNumber":82,"Velocity":67,"Duration":218182,"SoundDuration":218182,"Delta":156110258},{"NoteNumber":55,"Velocity":51,"Duration":130909,"SoundDuration":130909,"Delta":156110258},{"NoteNumber":51,"Velocity":52,"Duration":130909,"SoundDuration":130909,"Delta":156219349},{"NoteNumber":88,"Velocity":67,"Duration":218181,"SoundDuration":218181,"Delta":156328440},{"NoteNumber":91,"Velocity":102,"Duration":654545,"SoundDuration":654545,"Delta":156328440},{"NoteNumber":50,"Velocity":53,"Duration":130909,"SoundDuration":130909,"Delta":156328440},{"NoteNumber":49,"Velocity":53,"Duration":130909,"SoundDuration":130909,"Delta":156437531},{"NoteNumber":82,"Velocity":67,"Duration":436363,"SoundDuration":436363,"Delta":156546622},{"NoteNumber":48,"Velocity":54,"Duration":130909,"SoundDuration":130909,"Delta":156546622},{"NoteNumber":49,"Velocity":51,"Duration":130909,"SoundDuration":130909,"Delta":156655713},{"NoteNumber":50,"Velocity":54,"Duration":130909,"SoundDuration":130909,"Delta":156764804},{"NoteNumber":52,"Velocity":53,"Duration":130909,"SoundDuration":130909,"Delta":156873895},{"NoteNumber":86,"Velocity":67,"Duration":218182,"SoundDuration":218182,"Delta":156982986},{"NoteNumber":89,"Velocity":77,"Duration":444597,"SoundDuration":444597,"Delta":156982986},{"NoteNumber":53,"Velocity":52,"Duration":130909,"SoundDuration":130909,"Delta":156982986},{"NoteNumber":54,"Velocity":51,"Duration":131732,"SoundDuration":131732,"Delta":157092077},{"NoteNumber":83,"Velocity":67,"Duration":226415,"SoundDuration":226415,"Delta":157201168},{"NoteNumber":55,"Velocity":51,"Duration":135849,"SoundDuration":135849,"Delta":157201168},{"NoteNumber":57,"Velocity":51,"Duration":135025,"SoundDuration":135025,"Delta":157314375},{"NoteNumber":79,"Velocity":67,"Duration":218182,"SoundDuration":218182,"Delta":157427583},{"NoteNumber":89,"Velocity":77,"Duration":436363,"SoundDuration":436363,"Delta":157427583},{"NoteNumber":58,"Velocity":51,"Duration":130909,"SoundDuration":130909,"Delta":157427583},{"NoteNumber":59,"Velocity":52,"Duration":130909,"SoundDuration":130909,"Delta":157536674},{"NoteNumber":84,"Velocity":67,"Duration":218181,"SoundDuration":218181,"Delta":157645765},{"NoteNumber":48,"Velocity":53,"Duration":109091,"SoundDuration":109091,"Delta":157645765},{"NoteNumber":52,"Velocity":53,"Duration":109090,"SoundDuration":109090,"Delta":157754856},{"NoteNumber":79,"Velocity":67,"Duration":218182,"SoundDuration":218182,"Delta":157863947},{"NoteNumber":88,"Velocity":72,"Duration":218182,"SoundDuration":218182,"Delta":157863947},{"NoteNumber":55,"Velocity":54,"Duration":109091,"SoundDuration":109091,"Delta":157863947},{"NoteNumber":60,"Velocity":51,"Duration":109091,"SoundDuration":109091,"Delta":157973038},{"NoteNumber":84,"Velocity":67,"Duration":218181,"SoundDuration":218181,"Delta":158082129},{"NoteNumber":87,"Velocity":77,"Duration":662779,"SoundDuration":662779,"Delta":158082129},{"NoteNumber":53,"Velocity":54,"Duration":130909,"SoundDuration":130909,"Delta":158082129},{"NoteNumber":55,"Velocity":53,"Duration":130909,"SoundDuration":130909,"Delta":158191220},{"NoteNumber":77,"Velocity":67,"Duration":444597,"SoundDuration":444597,"Delta":158300311},{"NoteNumber":56,"Velocity":52,"Duration":130909,"SoundDuration":130909,"Delta":158300311},{"NoteNumber":57,"Velocity":51,"Duration":131732,"SoundDuration":131732,"Delta":158409402},{"NoteNumber":46,"Velocity":51,"Duration":113207,"SoundDuration":113207,"Delta":158518493},{"NoteNumber":50,"Velocity":51,"Duration":113207,"SoundDuration":113207,"Delta":158631700},{"NoteNumber":82,"Velocity":67,"Duration":218182,"SoundDuration":218182,"Delta":158744908},{"NoteNumber":86,"Velocity":77,"Duration":218182,"SoundDuration":218182,"Delta":158744908},{"NoteNumber":53,"Velocity":51,"Duration":109091,"SoundDuration":109091,"Delta":158744908},{"NoteNumber":58,"Velocity":52,"Duration":109091,"SoundDuration":109091,"Delta":158853999},{"NoteNumber":82,"Velocity":67,"Duration":218181,"SoundDuration":218181,"Delta":158963090},{"NoteNumber":85,"Velocity":77,"Duration":218181,"SoundDuration":218181,"Delta":158963090},{"NoteNumber":52,"Velocity":53,"Duration":109091,"SoundDuration":109091,"Delta":158963090},{"NoteNumber":55,"Velocity":53,"Duration":109090,"SoundDuration":109090,"Delta":159072181},{"NoteNumber":70,"Velocity":67,"Duration":218182,"SoundDuration":218182,"Delta":159181272},{"NoteNumber":73,"Velocity":77,"Duration":327273,"SoundDuration":327273,"Delta":159181272},{"NoteNumber":58,"Velocity":54,"Duration":109091,"SoundDuration":109091,"Delta":159181272},{"NoteNumber":64,"Velocity":51,"Duration":109091,"SoundDuration":109091,"Delta":159290363},{"NoteNumber":58,"Velocity":67,"Duration":218181,"SoundDuration":218181,"Delta":159399454},{"NoteNumber":55,"Velocity":54,"Duration":109091,"SoundDuration":109091,"Delta":159399454},{"NoteNumber":79,"Velocity":68,"Duration":109090,"SoundDuration":109090,"Delta":159508545},{"NoteNumber":52,"Velocity":53,"Duration":109090,"SoundDuration":109090,"Delta":159508545},{"NoteNumber":82,"Velocity":71,"Duration":109091,"SoundDuration":109091,"Delta":159617636},{"NoteNumber":55,"Velocity":52,"Duration":109091,"SoundDuration":109091,"Delta":159617636},{"NoteNumber":85,"Velocity":73,"Duration":109091,"SoundDuration":109091,"Delta":159726727},{"NoteNumber":52,"Velocity":51,"Duration":109091,"SoundDuration":109091,"Delta":159726727},{"NoteNumber":76,"Velocity":76,"Duration":73459,"SoundDuration":73459,"Delta":159835818},{"NoteNumber":85,"Velocity":76,"Duration":220080,"SoundDuration":220080,"Delta":159835818},{"NoteNumber":77,"Velocity":64,"Duration":73418,"SoundDuration":73418,"Delta":159909277},{"NoteNumber":76,"Velocity":76,"Duration":73203,"SoundDuration":73203,"Delta":159982695},{"NoteNumber":77,"Velocity":64,"Duration":72992,"SoundDuration":72992,"Delta":160055898},{"NoteNumber":84,"Velocity":69,"Duration":109432,"SoundDuration":109432,"Delta":160055898},{"NoteNumber":76,"Velocity":76,"Duration":72803,"SoundDuration":72803,"Delta":160128891},{"NoteNumber":82,"Velocity":69,"Duration":108664,"SoundDuration":108664,"Delta":160165331},{"NoteNumber":77,"Velocity":64,"Duration":72300,"SoundDuration":72300,"Delta":160201695},{"NoteNumber":76,"Velocity":76,"Duration":72283,"SoundDuration":72283,"Delta":160273995},{"NoteNumber":81,"Velocity":72,"Duration":108515,"SoundDuration":108515,"Delta":160273995},{"NoteNumber":77,"Velocity":64,"Duration":72463,"SoundDuration":72463,"Delta":160346279},{"NoteNumber":82,"Velocity":67,"Duration":108909,"SoundDuration":108909,"Delta":160382511},{"NoteNumber":76,"Velocity":76,"Duration":72677,"SoundDuration":72677,"Delta":160418743},{"NoteNumber":77,"Velocity":64,"Duration":54641,"SoundDuration":54641,"Delta":160491421},{"NoteNumber":84,"Velocity":67,"Duration":109386,"SoundDuration":109386,"Delta":160491421},{"NoteNumber":76,"Velocity":57,"Duration":54744,"SoundDuration":54744,"Delta":160546063},{"NoteNumber":74,"Velocity":57,"Duration":54841,"SoundDuration":54841,"Delta":160600807},{"NoteNumber":82,"Velocity":67,"Duration":109786,"SoundDuration":109786,"Delta":160600807},{"NoteNumber":76,"Velocity":57,"Duration":54945,"SoundDuration":54945,"Delta":160655648},{"NoteNumber":77,"Velocity":73,"Duration":440945,"SoundDuration":440945,"Delta":160710593},{"NoteNumber":81,"Velocity":73,"Duration":110177,"SoundDuration":110177,"Delta":160710593},{"NoteNumber":41,"Velocity":67,"Duration":220471,"SoundDuration":220471,"Delta":160710593},{"NoteNumber":79,"Velocity":67,"Duration":110294,"SoundDuration":110294,"Delta":160820771},{"NoteNumber":81,"Velocity":67,"Duration":110294,"SoundDuration":110294,"Delta":160931065},{"NoteNumber":82,"Velocity":67,"Duration":110179,"SoundDuration":110179,"Delta":161041359},{"NoteNumber":84,"Velocity":77,"Duration":109432,"SoundDuration":109432,"Delta":161151539},{"NoteNumber":57,"Velocity":70,"Duration":72992,"SoundDuration":72992,"Delta":161151539},{"NoteNumber":58,"Velocity":64,"Duration":72803,"SoundDuration":72803,"Delta":161224532},{"NoteNumber":82,"Velocity":71,"Duration":108955,"SoundDuration":108955,"Delta":161260972},{"NoteNumber":57,"Velocity":70,"Duration":72592,"SoundDuration":72592,"Delta":161297336},{"NoteNumber":81,"Velocity":70,"Duration":108483,"SoundDuration":108483,"Delta":161369928},{"NoteNumber":58,"Velocity":62,"Duration":72382,"SoundDuration":72382,"Delta":161369928},{"NoteNumber":57,"Velocity":70,"Duration":72172,"SoundDuration":72172,"Delta":161442310},{"NoteNumber":79,"Velocity":69,"Duration":107905,"SoundDuration":107905,"Delta":161478411},{"NoteNumber":58,"Velocity":62,"Duration":71833,"SoundDuration":71833,"Delta":161514483},{"NoteNumber":77,"Velocity":68,"Duration":107405,"SoundDuration":107405,"Delta":161586316},{"NoteNumber":57,"Velocity":68,"Duration":71508,"SoundDuration":71508,"Delta":161586316},{"NoteNumber":58,"Velocity":59,"Duration":71897,"SoundDuration":71897,"Delta":161657825},{"NoteNumber":79,"Velocity":69,"Duration":108336,"SoundDuration":108336,"Delta":161693722},{"NoteNumber":57,"Velocity":68,"Duration":72336,"SoundDuration":72336,"Delta":161729722},{"NoteNumber":77,"Velocity":69,"Duration":109340,"SoundDuration":109340,"Delta":161802059},{"NoteNumber":58,"Velocity":61,"Duration":54539,"SoundDuration":54539,"Delta":161802059},{"NoteNumber":57,"Velocity":68,"Duration":54801,"SoundDuration":54801,"Delta":161856598},{"NoteNumber":75,"Velocity":69,"Duration":110189,"SoundDuration":110189,"Delta":161911399},{"NoteNumber":55,"Velocity":63,"Duration":55042,"SoundDuration":55042,"Delta":161911399},{"NoteNumber":57,"Velocity":63,"Duration":55147,"SoundDuration":55147,"Delta":161966442},{"NoteNumber":62,"Velocity":67,"Duration":217391,"SoundDuration":217391,"Delta":162021589},{"NoteNumber":74,"Velocity":73,"Duration":108695,"SoundDuration":108695,"Delta":162021589},{"NoteNumber":58,"Velocity":63,"Duration":435009,"SoundDuration":435009,"Delta":162021589},{"NoteNumber":85,"Velocity":82,"Duration":108695,"SoundDuration":108695,"Delta":162130284},{"NoteNumber":86,"Velocity":85,"Duration":108695,"SoundDuration":108695,"Delta":162238980},{"NoteNumber":85,"Velocity":81,"Duration":108922,"SoundDuration":108922,"Delta":162347676},{"NoteNumber":78,"Velocity":76,"Duration":73445,"SoundDuration":73445,"Delta":162456598},{"NoteNumber":87,"Velocity":76,"Duration":219371,"SoundDuration":219371,"Delta":162456598},{"NoteNumber":79,"Velocity":64,"Duration":73149,"SoundDuration":73149,"Delta":162530043},{"NoteNumber":78,"Velocity":76,"Duration":72777,"SoundDuration":72777,"Delta":162603193},{"NoteNumber":79,"Velocity":64,"Duration":72405,"SoundDuration":72405,"Delta":162675970},{"NoteNumber":86,"Velocity":69,"Duration":108506,"SoundDuration":108506,"Delta":162675970},{"NoteNumber":78,"Velocity":76,"Duration":71883,"SoundDuration":71883,"Delta":162748375},{"NoteNumber":84,"Velocity":69,"Duration":107264,"SoundDuration":107264,"Delta":162784476},{"NoteNumber":79,"Velocity":64,"Duration":71482,"SoundDuration":71482,"Delta":162820258},{"NoteNumber":78,"Velocity":76,"Duration":71765,"SoundDuration":71765,"Delta":162891741},{"NoteNumber":83,"Velocity":72,"Duration":107736,"SoundDuration":107736,"Delta":162891741},{"NoteNumber":79,"Velocity":64,"Duration":71971,"SoundDuration":71971,"Delta":162963506},{"NoteNumber":84,"Velocity":67,"Duration":108258,"SoundDuration":108258,"Delta":162999478},{"NoteNumber":78,"Velocity":76,"Duration":72257,"SoundDuration":72257,"Delta":163035478},{"NoteNumber":79,"Velocity":64,"Duration":54347,"SoundDuration":54347,"Delta":163107736},{"NoteNumber":86,"Velocity":67,"Duration":108830,"SoundDuration":108830,"Delta":163107736},{"NoteNumber":78,"Velocity":57,"Duration":54482,"SoundDuration":54482,"Delta":163162084},{"NoteNumber":75,"Velocity":57,"Duration":54641,"SoundDuration":54641,"Delta":163216567},{"NoteNumber":84,"Velocity":67,"Duration":109442,"SoundDuration":109442,"Delta":163216567},{"NoteNumber":78,"Velocity":57,"Duration":54801,"SoundDuration":54801,"Delta":163271208},{"NoteNumber":79,"Velocity":73,"Duration":439559,"SoundDuration":439559,"Delta":163326010},{"NoteNumber":83,"Velocity":73,"Duration":109890,"SoundDuration":109890,"Delta":163326010},{"NoteNumber":43,"Velocity":67,"Duration":219779,"SoundDuration":219779,"Delta":163326010},{"NoteNumber":81,"Velocity":67,"Duration":109889,"SoundDuration":109889,"Delta":163435900},{"NoteNumber":83,"Velocity":67,"Duration":109890,"SoundDuration":109890,"Delta":163545790},{"NoteNumber":84,"Velocity":67,"Duration":109889,"SoundDuration":109889,"Delta":163655680},{"NoteNumber":86,"Velocity":77,"Duration":109890,"SoundDuration":109890,"Delta":163765570},{"NoteNumber":59,"Velocity":70,"Duration":73260,"SoundDuration":73260,"Delta":163765570},{"NoteNumber":60,"Velocity":64,"Duration":73229,"SoundDuration":73229,"Delta":163838830},{"NoteNumber":84,"Velocity":71,"Duration":109592,"SoundDuration":109592,"Delta":163875460},{"NoteNumber":59,"Velocity":70,"Duration":72992,"SoundDuration":72992,"Delta":163912059},{"NoteNumber":83,"Velocity":70,"Duration":109353,"SoundDuration":109353,"Delta":163985052},{"NoteNumber":60,"Velocity":62,"Duration":72989,"SoundDuration":72989,"Delta":163985052},{"NoteNumber":59,"Velocity":70,"Duration":72727,"SoundDuration":72727,"Delta":164058041},{"NoteNumber":80,"Velocity":69,"Duration":108979,"SoundDuration":108979,"Delta":164094405},{"NoteNumber":60,"Velocity":62,"Duration":72615,"SoundDuration":72615,"Delta":164130769},{"NoteNumber":79,"Velocity":68,"Duration":108437,"SoundDuration":108437,"Delta":164203385},{"NoteNumber":59,"Velocity":68,"Duration":72205,"SoundDuration":72205,"Delta":164203385},{"NoteNumber":60,"Velocity":59,"Duration":72463,"SoundDuration":72463,"Delta":164275590},{"NoteNumber":80,"Velocity":69,"Duration":108909,"SoundDuration":108909,"Delta":164311822},{"NoteNumber":59,"Velocity":68,"Duration":72677,"SoundDuration":72677,"Delta":164348054},{"NoteNumber":79,"Velocity":69,"Duration":109386,"SoundDuration":109386,"Delta":164420732},{"NoteNumber":60,"Velocity":61,"Duration":54641,"SoundDuration":54641,"Delta":164420732},{"NoteNumber":59,"Velocity":68,"Duration":54744,"SoundDuration":54744,"Delta":164475373},{"NoteNumber":77,"Velocity":69,"Duration":109923,"SoundDuration":109923,"Delta":164530118},{"NoteNumber":57,"Velocity":63,"Duration":54921,"SoundDuration":54921,"Delta":164530118},{"NoteNumber":59,"Velocity":63,"Duration":55002,"SoundDuration":55002,"Delta":164585040},{"NoteNumber":75,"Velocity":65,"Duration":220587,"SoundDuration":220587,"Delta":164640042},{"NoteNumber":67,"Velocity":65,"Duration":110293,"SoundDuration":110293,"Delta":164640042},{"NoteNumber":60,"Velocity":63,"Duration":220587,"SoundDuration":220587,"Delta":164640042},{"NoteNumber":71,"Velocity":66,"Duration":110294,"SoundDuration":110294,"Delta":164750336},{"NoteNumber":72,"Velocity":68,"Duration":110294,"SoundDuration":110294,"Delta":164860630},{"NoteNumber":44,"Velocity":63,"Duration":221293,"SoundDuration":221293,"Delta":164860630},{"NoteNumber":73,"Velocity":71,"Duration":110999,"SoundDuration":110999,"Delta":164970924},{"NoteNumber":75,"Velocity":74,"Duration":112216,"SoundDuration":112216,"Delta":165081923},{"NoteNumber":60,"Velocity":70,"Duration":74902,"SoundDuration":74902,"Delta":165081923},{"NoteNumber":61,"Velocity":64,"Duration":74626,"SoundDuration":74626,"Delta":165156826},{"NoteNumber":73,"Velocity":74,"Duration":111714,"SoundDuration":111714,"Delta":165194140},{"NoteNumber":60,"Velocity":70,"Duration":74401,"SoundDuration":74401,"Delta":165231453},{"NoteNumber":72,"Velocity":72,"Duration":111217,"SoundDuration":111217,"Delta":165305855},{"NoteNumber":61,"Velocity":62,"Duration":74180,"SoundDuration":74180,"Delta":165305855},{"NoteNumber":60,"Velocity":70,"Duration":74043,"SoundDuration":74043,"Delta":165380035},{"NoteNumber":70,"Velocity":70,"Duration":110806,"SoundDuration":110806,"Delta":165417072},{"NoteNumber":61,"Velocity":62,"Duration":73800,"SoundDuration":73800,"Delta":165454079},{"NoteNumber":68,"Velocity":78,"Duration":109720,"SoundDuration":109720,"Delta":165527879},{"NoteNumber":60,"Velocity":68,"Duration":73224,"SoundDuration":73224,"Delta":165527879},{"NoteNumber":61,"Velocity":59,"Duration":72992,"SoundDuration":72992,"Delta":165601104},{"NoteNumber":70,"Velocity":75,"Duration":109545,"SoundDuration":109545,"Delta":165637600},{"NoteNumber":60,"Velocity":68,"Duration":73049,"SoundDuration":73049,"Delta":165674096},{"NoteNumber":68,"Velocity":73,"Duration":109890,"SoundDuration":109890,"Delta":165747146},{"NoteNumber":61,"Velocity":61,"Duration":54945,"SoundDuration":54945,"Delta":165747146},{"NoteNumber":60,"Velocity":68,"Duration":54945,"SoundDuration":54945,"Delta":165802091},{"NoteNumber":66,"Velocity":70,"Duration":110108,"SoundDuration":110108,"Delta":165857036},{"NoteNumber":58,"Velocity":63,"Duration":54961,"SoundDuration":54961,"Delta":165857036},{"NoteNumber":60,"Velocity":63,"Duration":55147,"SoundDuration":55147,"Delta":165911998},{"NoteNumber":65,"Velocity":76,"Duration":441176,"SoundDuration":441176,"Delta":165967145},{"NoteNumber":61,"Velocity":63,"Duration":441176,"SoundDuration":441176,"Delta":165967145},{"NoteNumber":73,"Velocity":70,"Duration":110294,"SoundDuration":110294,"Delta":166187733},{"NoteNumber":75,"Velocity":70,"Duration":110294,"SoundDuration":110294,"Delta":166298027},{"NoteNumber":77,"Velocity":76,"Duration":110293,"SoundDuration":110293,"Delta":166408321},{"NoteNumber":78,"Velocity":74,"Duration":110294,"SoundDuration":110294,"Delta":166518615},{"NoteNumber":77,"Velocity":71,"Duration":110294,"SoundDuration":110294,"Delta":166628909},{"NoteNumber":61,"Velocity":61,"Duration":110294,"SoundDuration":110294,"Delta":166628909},{"NoteNumber":75,"Velocity":71,"Duration":110293,"SoundDuration":110293,"Delta":166739203},{"NoteNumber":60,"Velocity":61,"Duration":110293,"SoundDuration":110293,"Delta":166739203},{"NoteNumber":73,"Velocity":72,"Duration":110294,"SoundDuration":110294,"Delta":166849497},{"NoteNumber":58,"Velocity":67,"Duration":110294,"SoundDuration":110294,"Delta":166849497},{"NoteNumber":72,"Velocity":71,"Duration":110293,"SoundDuration":110293,"Delta":166959791},{"NoteNumber":56,"Velocity":61,"Duration":110293,"SoundDuration":110293,"Delta":166959791},{"NoteNumber":70,"Velocity":69,"Duration":110294,"SoundDuration":110294,"Delta":167070085},{"NoteNumber":54,"Velocity":61,"Duration":110294,"SoundDuration":110294,"Delta":167070085},{"NoteNumber":68,"Velocity":68,"Duration":110294,"SoundDuration":110294,"Delta":167180379},{"NoteNumber":53,"Velocity":61,"Duration":110294,"SoundDuration":110294,"Delta":167180379},{"NoteNumber":73,"Velocity":79,"Duration":559819,"SoundDuration":559819,"Delta":167290673},{"NoteNumber":61,"Velocity":79,"Duration":110293,"SoundDuration":110293,"Delta":167290673},{"NoteNumber":58,"Velocity":69,"Duration":449929,"SoundDuration":449929,"Delta":167290673},{"NoteNumber":63,"Velocity":69,"Duration":110294,"SoundDuration":110294,"Delta":167400967},{"NoteNumber":64,"Velocity":69,"Duration":110293,"SoundDuration":110293,"Delta":167511261},{"NoteNumber":65,"Velocity":69,"Duration":119047,"SoundDuration":119047,"Delta":167621555},{"NoteNumber":66,"Velocity":74,"Duration":439560,"SoundDuration":439560,"Delta":167740602},{"NoteNumber":75,"Velocity":74,"Duration":109889,"SoundDuration":109889,"Delta":167850492},{"NoteNumber":73,"Velocity":69,"Duration":109890,"SoundDuration":109890,"Delta":167960382},{"NoteNumber":58,"Velocity":63,"Duration":109890,"SoundDuration":109890,"Delta":167960382},{"NoteNumber":72,"Velocity":69,"Duration":109890,"SoundDuration":109890,"Delta":168070272},{"NoteNumber":56,"Velocity":61,"Duration":109890,"SoundDuration":109890,"Delta":168070272},{"NoteNumber":70,"Velocity":68,"Duration":109890,"SoundDuration":109890,"Delta":168180162},{"NoteNumber":54,"Velocity":57,"Duration":109890,"SoundDuration":109890,"Delta":168180162},{"NoteNumber":68,"Velocity":67,"Duration":109889,"SoundDuration":109889,"Delta":168290052},{"NoteNumber":53,"Velocity":58,"Duration":109889,"SoundDuration":109889,"Delta":168290052},{"NoteNumber":66,"Velocity":66,"Duration":109890,"SoundDuration":109890,"Delta":168399942},{"NoteNumber":51,"Velocity":58,"Duration":109890,"SoundDuration":109890,"Delta":168399942},{"NoteNumber":65,"Velocity":66,"Duration":117187,"SoundDuration":117187,"Delta":168509832},{"NoteNumber":49,"Velocity":58,"Duration":117187,"SoundDuration":117187,"Delta":168509832},{"NoteNumber":70,"Velocity":74,"Duration":766423,"SoundDuration":766423,"Delta":168627020},{"NoteNumber":58,"Velocity":74,"Duration":109488,"SoundDuration":109488,"Delta":168627020},{"NoteNumber":54,"Velocity":64,"Duration":437956,"SoundDuration":437956,"Delta":168627020},{"NoteNumber":60,"Velocity":68,"Duration":109488,"SoundDuration":109488,"Delta":168736509},{"NoteNumber":61,"Velocity":69,"Duration":109488,"SoundDuration":109488,"Delta":168845998},{"NoteNumber":62,"Velocity":70,"Duration":109489,"SoundDuration":109489,"Delta":168955487},{"NoteNumber":63,"Velocity":71,"Duration":109488,"SoundDuration":109488,"Delta":169064976},{"NoteNumber":62,"Velocity":67,"Duration":109488,"SoundDuration":109488,"Delta":169174465},{"NoteNumber":63,"Velocity":67,"Duration":109488,"SoundDuration":109488,"Delta":169283954},{"NoteNumber":54,"Velocity":61,"Duration":109488,"SoundDuration":109488,"Delta":169283954},{"NoteNumber":65,"Velocity":67,"Duration":109488,"SoundDuration":109488,"Delta":169393443},{"NoteNumber":53,"Velocity":56,"Duration":109488,"SoundDuration":109488,"Delta":169393443},{"NoteNumber":66,"Velocity":74,"Duration":225563,"SoundDuration":225563,"Delta":169502932},{"NoteNumber":51,"Velocity":61,"Duration":112782,"SoundDuration":112782,"Delta":169502932},{"NoteNumber":53,"Velocity":57,"Duration":112781,"SoundDuration":112781,"Delta":169615714},{"NoteNumber":67,"Velocity":70,"Duration":223048,"SoundDuration":223048,"Delta":169728496},{"NoteNumber":70,"Velocity":80,"Duration":223048,"SoundDuration":223048,"Delta":169728496},{"NoteNumber":51,"Velocity":57,"Duration":111524,"SoundDuration":111524,"Delta":169728496},{"NoteNumber":49,"Velocity":57,"Duration":111524,"SoundDuration":111524,"Delta":169840020},{"NoteNumber":68,"Velocity":72,"Duration":226415,"SoundDuration":226415,"Delta":169951544},{"NoteNumber":72,"Velocity":82,"Duration":226415,"SoundDuration":226415,"Delta":169951544},{"NoteNumber":48,"Velocity":61,"Duration":113207,"SoundDuration":113207,"Delta":169951544},{"NoteNumber":49,"Velocity":55,"Duration":113207,"SoundDuration":113207,"Delta":170064752},{"NoteNumber":73,"Velocity":83,"Duration":229007,"SoundDuration":229007,"Delta":170177959},{"NoteNumber":48,"Velocity":55,"Duration":114503,"SoundDuration":114503,"Delta":170177959},{"NoteNumber":46,"Velocity":55,"Duration":114503,"SoundDuration":114503,"Delta":170292463},{"NoteNumber":66,"Velocity":79,"Duration":659339,"SoundDuration":659339,"Delta":170406967},{"NoteNumber":75,"Velocity":90,"Duration":659339,"SoundDuration":659339,"Delta":170406967},{"NoteNumber":44,"Velocity":61,"Duration":109890,"SoundDuration":109890,"Delta":170406967},{"NoteNumber":46,"Velocity":55,"Duration":109889,"SoundDuration":109889,"Delta":170516857},{"NoteNumber":48,"Velocity":56,"Duration":109890,"SoundDuration":109890,"Delta":170626747},{"NoteNumber":49,"Velocity":57,"Duration":109890,"SoundDuration":109890,"Delta":170736637},{"NoteNumber":50,"Velocity":62,"Duration":109890,"SoundDuration":109890,"Delta":170846527},{"NoteNumber":51,"Velocity":57,"Duration":109889,"SoundDuration":109889,"Delta":170956417},{"NoteNumber":66,"Velocity":70,"Duration":219780,"SoundDuration":219780,"Delta":171066307},{"NoteNumber":75,"Velocity":80,"Duration":219780,"SoundDuration":219780,"Delta":171066307},{"NoteNumber":53,"Velocity":57,"Duration":109890,"SoundDuration":109890,"Delta":171066307},{"NoteNumber":51,"Velocity":57,"Duration":109890,"SoundDuration":109890,"Delta":171176197},{"NoteNumber":66,"Velocity":74,"Duration":219779,"SoundDuration":219779,"Delta":171286087},{"NoteNumber":75,"Velocity":85,"Duration":219779,"SoundDuration":219779,"Delta":171286087},{"NoteNumber":49,"Velocity":57,"Duration":109890,"SoundDuration":109890,"Delta":171286087},{"NoteNumber":51,"Velocity":57,"Duration":109889,"SoundDuration":109889,"Delta":171395977},{"NoteNumber":65,"Velocity":70,"Duration":219780,"SoundDuration":219780,"Delta":171505867},{"NoteNumber":73,"Velocity":80,"Duration":219780,"SoundDuration":219780,"Delta":171505867},{"NoteNumber":53,"Velocity":59,"Duration":109890,"SoundDuration":109890,"Delta":171505867},{"NoteNumber":54,"Velocity":59,"Duration":109890,"SoundDuration":109890,"Delta":171615757},{"NoteNumber":63,"Velocity":73,"Duration":219779,"SoundDuration":219779,"Delta":171725647},{"NoteNumber":72,"Velocity":83,"Duration":219779,"SoundDuration":219779,"Delta":171725647},{"NoteNumber":55,"Velocity":61,"Duration":109890,"SoundDuration":109890,"Delta":171725647},{"NoteNumber":56,"Velocity":62,"Duration":109889,"SoundDuration":109889,"Delta":171835537},{"NoteNumber":61,"Velocity":70,"Duration":227272,"SoundDuration":227272,"Delta":171945427},{"NoteNumber":73,"Velocity":80,"Duration":227272,"SoundDuration":227272,"Delta":171945427},{"NoteNumber":58,"Velocity":66,"Duration":113636,"SoundDuration":113636,"Delta":171945427},{"NoteNumber":56,"Velocity":62,"Duration":113636,"SoundDuration":113636,"Delta":172059063},{"NoteNumber":60,"Velocity":70,"Duration":221402,"SoundDuration":221402,"Delta":172172699},{"NoteNumber":63,"Velocity":70,"Duration":221402,"SoundDuration":221402,"Delta":172172699},{"NoteNumber":54,"Velocity":61,"Duration":110701,"SoundDuration":110701,"Delta":172172699},{"NoteNumber":53,"Velocity":62,"Duration":110701,"SoundDuration":110701,"Delta":172283400},{"NoteNumber":65,"Velocity":67,"Duration":109091,"SoundDuration":109091,"Delta":172394101},{"NoteNumber":61,"Velocity":67,"Duration":218182,"SoundDuration":218182,"Delta":172394101},{"NoteNumber":51,"Velocity":60,"Duration":109091,"SoundDuration":109091,"Delta":172394101},{"NoteNumber":66,"Velocity":68,"Duration":109091,"SoundDuration":109091,"Delta":172503192},{"NoteNumber":49,"Velocity":58,"Duration":109091,"SoundDuration":109091,"Delta":172503192},{"NoteNumber":68,"Velocity":70,"Duration":109090,"SoundDuration":109090,"Delta":172612283},{"NoteNumber":60,"Velocity":70,"Duration":218181,"SoundDuration":218181,"Delta":172612283},{"NoteNumber":44,"Velocity":70,"Duration":218181,"SoundDuration":218181,"Delta":172612283},{"NoteNumber":70,"Velocity":71,"Duration":109091,"SoundDuration":109091,"Delta":172721374},{"NoteNumber":72,"Velocity":72,"Duration":109091,"SoundDuration":109091,"Delta":172830465},{"NoteNumber":63,"Velocity":72,"Duration":218182,"SoundDuration":218182,"Delta":172830465},{"NoteNumber":73,"Velocity":74,"Duration":109091,"SoundDuration":109091,"Delta":172939556},{"NoteNumber":74,"Velocity":75,"Duration":109090,"SoundDuration":109090,"Delta":173048647},{"NoteNumber":51,"Velocity":86,"Duration":658585,"SoundDuration":658585,"Delta":173048647},{"NoteNumber":42,"Velocity":75,"Duration":658585,"SoundDuration":658585,"Delta":173048647},{"NoteNumber":75,"Velocity":77,"Duration":109091,"SoundDuration":109091,"Delta":173157738},{"NoteNumber":77,"Velocity":79,"Duration":109091,"SoundDuration":109091,"Delta":173266829},{"NoteNumber":75,"Velocity":76,"Duration":109091,"SoundDuration":109091,"Delta":173375920},{"NoteNumber":73,"Velocity":74,"Duration":111110,"SoundDuration":111110,"Delta":173485011},{"NoteNumber":72,"Velocity":73,"Duration":111110,"SoundDuration":111110,"Delta":173596122},{"NoteNumber":70,"Velocity":72,"Duration":108303,"SoundDuration":108303,"Delta":173707233},{"NoteNumber":42,"Velocity":65,"Duration":216606,"SoundDuration":216606,"Delta":173707233},{"NoteNumber":51,"Velocity":74,"Duration":216606,"SoundDuration":216606,"Delta":173707233},{"NoteNumber":68,"Velocity":71,"Duration":108303,"SoundDuration":108303,"Delta":173815536},{"NoteNumber":73,"Velocity":72,"Duration":109091,"SoundDuration":109091,"Delta":173923840},{"NoteNumber":51,"Velocity":80,"Duration":218182,"SoundDuration":218182,"Delta":173923840},{"NoteNumber":42,"Velocity":70,"Duration":218182,"SoundDuration":218182,"Delta":173923840},{"NoteNumber":75,"Velocity":73,"Duration":109091,"SoundDuration":109091,"Delta":174032931},{"NoteNumber":77,"Velocity":75,"Duration":109090,"SoundDuration":109090,"Delta":174142022},{"NoteNumber":41,"Velocity":65,"Duration":218181,"SoundDuration":218181,"Delta":174142022},{"NoteNumber":49,"Velocity":74,"Duration":218181,"SoundDuration":218181,"Delta":174142022},{"NoteNumber":78,"Velocity":77,"Duration":109091,"SoundDuration":109091,"Delta":174251113},{"NoteNumber":79,"Velocity":78,"Duration":109091,"SoundDuration":109091,"Delta":174360204},{"NoteNumber":39,"Velocity":70,"Duration":218182,"SoundDuration":218182,"Delta":174360204},{"NoteNumber":48,"Velocity":80,"Duration":218182,"SoundDuration":218182,"Delta":174360204},{"NoteNumber":80,"Velocity":76,"Duration":109091,"SoundDuration":109091,"Delta":174469295},{"NoteNumber":82,"Velocity":81,"Duration":109090,"SoundDuration":109090,"Delta":174578386},{"NoteNumber":49,"Velocity":77,"Duration":223594,"SoundDuration":223594,"Delta":174578386},{"NoteNumber":37,"Velocity":67,"Duration":223594,"SoundDuration":223594,"Delta":174578386},{"NoteNumber":80,"Velocity":73,"Duration":114503,"SoundDuration":114503,"Delta":174687477},{"NoteNumber":78,"Velocity":79,"Duration":112359,"SoundDuration":112359,"Delta":174801980},{"NoteNumber":48,"Velocity":70,"Duration":224718,"SoundDuration":224718,"Delta":174801980},{"NoteNumber":51,"Velocity":80,"Duration":224718,"SoundDuration":224718,"Delta":174801980},{"NoteNumber":77,"Velocity":78,"Duration":112359,"SoundDuration":112359,"Delta":174914340},{"NoteNumber":75,"Velocity":76,"Duration":109488,"SoundDuration":109488,"Delta":175026699},{"NoteNumber":53,"Velocity":72,"Duration":218977,"SoundDuration":218977,"Delta":175026699},{"NoteNumber":49,"Velocity":63,"Duration":218977,"SoundDuration":218977,"Delta":175026699},{"NoteNumber":73,"Velocity":75,"Duration":109488,"SoundDuration":109488,"Delta":175136188},{"NoteNumber":60,"Velocity":70,"Duration":111110,"SoundDuration":111110,"Delta":175245677},{"NoteNumber":68,"Velocity":80,"Duration":222221,"SoundDuration":222221,"Delta":175245677},{"NoteNumber":61,"Velocity":63,"Duration":111110,"SoundDuration":111110,"Delta":175356788},{"NoteNumber":60,"Velocity":63,"Duration":111940,"SoundDuration":111940,"Delta":175467899},{"NoteNumber":58,"Velocity":65,"Duration":111940,"SoundDuration":111940,"Delta":175579840},{"NoteNumber":66,"Velocity":80,"Duration":654546,"SoundDuration":654546,"Delta":175691780},{"NoteNumber":56,"Velocity":68,"Duration":109091,"SoundDuration":109091,"Delta":175691780},{"NoteNumber":58,"Velocity":58,"Duration":109091,"SoundDuration":109091,"Delta":175800871},{"NoteNumber":60,"Velocity":58,"Duration":109090,"SoundDuration":109090,"Delta":175909962},{"NoteNumber":61,"Velocity":58,"Duration":109091,"SoundDuration":109091,"Delta":176019053},{"NoteNumber":62,"Velocity":64,"Duration":109091,"SoundDuration":109091,"Delta":176128144},{"NoteNumber":63,"Velocity":58,"Duration":109091,"SoundDuration":109091,"Delta":176237235},{"NoteNumber":65,"Velocity":80,"Duration":218181,"SoundDuration":218181,"Delta":176346326},{"NoteNumber":60,"Velocity":58,"Duration":109090,"SoundDuration":109090,"Delta":176346326},{"NoteNumber":61,"Velocity":58,"Duration":109091,"SoundDuration":109091,"Delta":176455417},{"NoteNumber":70,"Velocity":80,"Duration":445343,"SoundDuration":445343,"Delta":176564508},{"NoteNumber":64,"Velocity":64,"Duration":112782,"SoundDuration":112782,"Delta":176564508},{"NoteNumber":37,"Velocity":63,"Duration":225563,"SoundDuration":225563,"Delta":176564508},{"NoteNumber":49,"Velocity":72,"Duration":225563,"SoundDuration":225563,"Delta":176564508},{"NoteNumber":65,"Velocity":58,"Duration":112781,"SoundDuration":112781,"Delta":176677290},{"NoteNumber":66,"Velocity":58,"Duration":109890,"SoundDuration":109890,"Delta":176790072},{"NoteNumber":65,"Velocity":58,"Duration":109889,"SoundDuration":109889,"Delta":176899962},{"NoteNumber":62,"Velocity":68,"Duration":109890,"SoundDuration":109890,"Delta":177009852},{"NoteNumber":36,"Velocity":70,"Duration":659340,"SoundDuration":659340,"Delta":177009852},{"NoteNumber":48,"Velocity":80,"Duration":659340,"SoundDuration":659340,"Delta":177009852},{"NoteNumber":63,"Velocity":57,"Duration":109890,"SoundDuration":109890,"Delta":177119742},{"NoteNumber":67,"Velocity":57,"Duration":109890,"SoundDuration":109890,"Delta":177229632},{"NoteNumber":68,"Velocity":57,"Duration":109889,"SoundDuration":109889,"Delta":177339522},{"NoteNumber":66,"Velocity":65,"Duration":109890,"SoundDuration":109890,"Delta":177449412},{"NoteNumber":67,"Velocity":58,"Duration":109890,"SoundDuration":109890,"Delta":177559302},{"NoteNumber":68,"Velocity":58,"Duration":112359,"SoundDuration":112359,"Delta":177669192},{"NoteNumber":46,"Velocity":73,"Duration":224718,"SoundDuration":224718,"Delta":177669192},{"NoteNumber":34,"Velocity":64,"Duration":224718,"SoundDuration":224718,"Delta":177669192},{"NoteNumber":67,"Velocity":58,"Duration":112359,"SoundDuration":112359,"Delta":177781551},{"NoteNumber":73,"Velocity":70,"Duration":218977,"SoundDuration":218977,"Delta":177893911},{"NoteNumber":69,"Velocity":66,"Duration":109488,"SoundDuration":109488,"Delta":177893911},{"NoteNumber":51,"Velocity":81,"Duration":437956,"SoundDuration":437956,"Delta":177893911},{"NoteNumber":39,"Velocity":71,"Duration":437956,"SoundDuration":437956,"Delta":177893911},{"NoteNumber":70,"Velocity":61,"Duration":109488,"SoundDuration":109488,"Delta":178003400},{"NoteNumber":72,"Velocity":70,"Duration":109488,"SoundDuration":109488,"Delta":178112889},{"NoteNumber":70,"Velocity":61,"Duration":109489,"SoundDuration":109489,"Delta":178222378},{"NoteNumber":72,"Velocity":80,"Duration":656933,"SoundDuration":656933,"Delta":178331867},{"NoteNumber":67,"Velocity":68,"Duration":109488,"SoundDuration":109488,"Delta":178331867},{"NoteNumber":68,"Velocity":60,"Duration":109488,"SoundDuration":109488,"Delta":178441356},{"NoteNumber":70,"Velocity":60,"Duration":109488,"SoundDuration":109488,"Delta":178550845},{"NoteNumber":68,"Velocity":60,"Duration":109488,"SoundDuration":109488,"Delta":178660334},{"NoteNumber":66,"Velocity":66,"Duration":109488,"SoundDuration":109488,"Delta":178769823},{"NoteNumber":67,"Velocity":61,"Duration":109488,"SoundDuration":109488,"Delta":178879312},{"NoteNumber":70,"Velocity":80,"Duration":224718,"SoundDuration":224718,"Delta":178988801},{"NoteNumber":68,"Velocity":61,"Duration":112359,"SoundDuration":112359,"Delta":178988801},{"NoteNumber":67,"Velocity":61,"Duration":112359,"SoundDuration":112359,"Delta":179101160},{"NoteNumber":75,"Velocity":80,"Duration":440404,"SoundDuration":440404,"Delta":179213520},{"NoteNumber":69,"Velocity":68,"Duration":109091,"SoundDuration":109091,"Delta":179213520},{"NoteNumber":43,"Velocity":63,"Duration":218182,"SoundDuration":218182,"Delta":179213520},{"NoteNumber":55,"Velocity":72,"Duration":218182,"SoundDuration":218182,"Delta":179213520},{"NoteNumber":70,"Velocity":62,"Duration":109091,"SoundDuration":109091,"Delta":179322611},{"NoteNumber":72,"Velocity":62,"Duration":111110,"SoundDuration":111110,"Delta":179431702},{"NoteNumber":70,"Velocity":62,"Duration":111110,"SoundDuration":111110,"Delta":179542813},{"NoteNumber":68,"Velocity":68,"Duration":109091,"SoundDuration":109091,"Delta":179653924},{"NoteNumber":41,"Velocity":70,"Duration":654546,"SoundDuration":654546,"Delta":179653924},{"NoteNumber":53,"Velocity":80,"Duration":654546,"SoundDuration":654546,"Delta":179653924},{"NoteNumber":70,"Velocity":61,"Duration":109091,"SoundDuration":109091,"Delta":179763015},{"NoteNumber":72,"Velocity":61,"Duration":109090,"SoundDuration":109090,"Delta":179872106},{"NoteNumber":73,"Velocity":61,"Duration":109091,"SoundDuration":109091,"Delta":179981197},{"NoteNumber":72,"Velocity":68,"Duration":109091,"SoundDuration":109091,"Delta":180090288},{"NoteNumber":73,"Velocity":63,"Duration":109091,"SoundDuration":109091,"Delta":180199379},{"NoteNumber":71,"Velocity":63,"Duration":109090,"SoundDuration":109090,"Delta":180308470},{"NoteNumber":51,"Velocity":72,"Duration":218181,"SoundDuration":218181,"Delta":180308470},{"NoteNumber":39,"Velocity":63,"Duration":218181,"SoundDuration":218181,"Delta":180308470},{"NoteNumber":72,"Velocity":63,"Duration":109091,"SoundDuration":109091,"Delta":180417561},{"NoteNumber":77,"Velocity":80,"Duration":218182,"SoundDuration":218182,"Delta":180526652},{"NoteNumber":71,"Velocity":68,"Duration":109091,"SoundDuration":109091,"Delta":180526652},{"NoteNumber":56,"Velocity":80,"Duration":445454,"SoundDuration":445454,"Delta":180526652},{"NoteNumber":44,"Velocity":70,"Duration":445454,"SoundDuration":445454,"Delta":180526652},{"NoteNumber":72,"Velocity":62,"Duration":109091,"SoundDuration":109091,"Delta":180635743},{"NoteNumber":73,"Velocity":62,"Duration":113636,"SoundDuration":113636,"Delta":180744834},{"NoteNumber":72,"Velocity":62,"Duration":113636,"SoundDuration":113636,"Delta":180858470},{"NoteNumber":77,"Velocity":80,"Duration":109091,"SoundDuration":109091,"Delta":180972106},{"NoteNumber":69,"Velocity":68,"Duration":109091,"SoundDuration":109091,"Delta":180972106},{"NoteNumber":70,"Velocity":63,"Duration":109091,"SoundDuration":109091,"Delta":181081197},{"NoteNumber":75,"Velocity":80,"Duration":110701,"SoundDuration":110701,"Delta":181190288},{"NoteNumber":72,"Velocity":63,"Duration":110701,"SoundDuration":110701,"Delta":181190288},{"NoteNumber":70,"Velocity":63,"Duration":110701,"SoundDuration":110701,"Delta":181300989},{"NoteNumber":62,"Velocity":68,"Duration":109091,"SoundDuration":109091,"Delta":181411690},{"NoteNumber":55,"Velocity":72,"Duration":218182,"SoundDuration":218182,"Delta":181411690},{"NoteNumber":43,"Velocity":63,"Duration":218182,"SoundDuration":218182,"Delta":181411690},{"NoteNumber":63,"Velocity":63,"Duration":109091,"SoundDuration":109091,"Delta":181520781},{"NoteNumber":65,"Velocity":63,"Duration":109090,"SoundDuration":109090,"Delta":181629872},{"NoteNumber":63,"Velocity":63,"Duration":109091,"SoundDuration":109091,"Delta":181738963},{"NoteNumber":73,"Velocity":80,"Duration":218182,"SoundDuration":218182,"Delta":181848054},{"NoteNumber":67,"Velocity":68,"Duration":109091,"SoundDuration":109091,"Delta":181848054},{"NoteNumber":43,"Velocity":69,"Duration":218182,"SoundDuration":218182,"Delta":181848054},{"NoteNumber":55,"Velocity":79,"Duration":218182,"SoundDuration":218182,"Delta":181848054},{"NoteNumber":68,"Velocity":61,"Duration":109091,"SoundDuration":109091,"Delta":181957145},{"NoteNumber":70,"Velocity":61,"Duration":111940,"SoundDuration":111940,"Delta":182066236},{"NoteNumber":41,"Velocity":67,"Duration":223880,"SoundDuration":223880,"Delta":182066236},{"NoteNumber":53,"Velocity":77,"Duration":223880,"SoundDuration":223880,"Delta":182066236},{"NoteNumber":68,"Velocity":61,"Duration":111940,"SoundDuration":111940,"Delta":182178177},{"NoteNumber":73,"Velocity":80,"Duration":218182,"SoundDuration":218182,"Delta":182290117},{"NoteNumber":67,"Velocity":68,"Duration":109091,"SoundDuration":109091,"Delta":182290117},{"NoteNumber":68,"Velocity":63,"Duration":109091,"SoundDuration":109091,"Delta":182399208},{"NoteNumber":72,"Velocity":80,"Duration":218181,"SoundDuration":218181,"Delta":182508299},{"NoteNumber":70,"Velocity":63,"Duration":109090,"SoundDuration":109090,"Delta":182508299},{"NoteNumber":68,"Velocity":63,"Duration":109091,"SoundDuration":109091,"Delta":182617390},{"NoteNumber":67,"Velocity":68,"Duration":109091,"SoundDuration":109091,"Delta":182726481},{"NoteNumber":63,"Velocity":68,"Duration":218182,"SoundDuration":218182,"Delta":182726481},{"NoteNumber":51,"Velocity":68,"Duration":218182,"SoundDuration":218182,"Delta":182726481},{"NoteNumber":68,"Velocity":62,"Duration":109091,"SoundDuration":109091,"Delta":182835572},{"NoteNumber":73,"Velocity":80,"Duration":109090,"SoundDuration":109090,"Delta":182944663},{"NoteNumber":70,"Velocity":62,"Duration":109090,"SoundDuration":109090,"Delta":182944663},{"NoteNumber":71,"Velocity":62,"Duration":109565,"SoundDuration":109565,"Delta":183053754},{"NoteNumber":91,"Velocity":75,"Duration":74432,"SoundDuration":74432,"Delta":183163320},{"NoteNumber":72,"Velocity":68,"Duration":111469,"SoundDuration":111469,"Delta":183163320},{"NoteNumber":63,"Velocity":68,"Duration":221886,"SoundDuration":221886,"Delta":183163320},{"NoteNumber":92,"Velocity":60,"Duration":73950,"SoundDuration":73950,"Delta":183237753},{"NoteNumber":70,"Velocity":68,"Duration":110416,"SoundDuration":110416,"Delta":183274790},{"NoteNumber":91,"Velocity":68,"Duration":68923,"SoundDuration":68923,"Delta":183311704},{"NoteNumber":92,"Velocity":60,"Duration":73072,"SoundDuration":73072,"Delta":183385206},{"NoteNumber":69,"Velocity":61,"Duration":109436,"SoundDuration":109436,"Delta":183385206},{"NoteNumber":61,"Velocity":60,"Duration":208865,"SoundDuration":208865,"Delta":183385206},{"NoteNumber":91,"Velocity":75,"Duration":72608,"SoundDuration":72608,"Delta":183458279},{"NoteNumber":70,"Velocity":61,"Duration":99428,"SoundDuration":99428,"Delta":183494643},{"NoteNumber":92,"Velocity":60,"Duration":72176,"SoundDuration":72176,"Delta":183530888},{"NoteNumber":91,"Velocity":75,"Duration":71454,"SoundDuration":71454,"Delta":183603065},{"NoteNumber":70,"Velocity":68,"Duration":107232,"SoundDuration":107232,"Delta":183603065},{"NoteNumber":61,"Velocity":68,"Duration":214978,"SoundDuration":214978,"Delta":183603065},{"NoteNumber":92,"Velocity":60,"Duration":71620,"SoundDuration":71620,"Delta":183674519},{"NoteNumber":68,"Velocity":58,"Duration":107746,"SoundDuration":107746,"Delta":183710297},{"NoteNumber":91,"Velocity":75,"Duration":71903,"SoundDuration":71903,"Delta":183746139},{"NoteNumber":92,"Velocity":60,"Duration":54138,"SoundDuration":54138,"Delta":183818043},{"NoteNumber":63,"Velocity":65,"Duration":108434,"SoundDuration":108434,"Delta":183818043},{"NoteNumber":60,"Velocity":59,"Duration":217432,"SoundDuration":217432,"Delta":183818043},{"NoteNumber":91,"Velocity":75,"Duration":54295,"SoundDuration":54295,"Delta":183872182},{"NoteNumber":89,"Velocity":60,"Duration":54453,"SoundDuration":54453,"Delta":183926477},{"NoteNumber":68,"Velocity":60,"Duration":108998,"SoundDuration":108998,"Delta":183926477},{"NoteNumber":91,"Velocity":60,"Duration":54545,"SoundDuration":54545,"Delta":183980931},{"NoteNumber":92,"Velocity":75,"Duration":468929,"SoundDuration":468929,"Delta":184035476},{"NoteNumber":48,"Velocity":66,"Duration":119521,"SoundDuration":119521,"Delta":184265361},{"NoteNumber":60,"Velocity":74,"Duration":441176,"SoundDuration":441176,"Delta":184504405},{"NoteNumber":67,"Velocity":66,"Duration":110294,"SoundDuration":110294,"Delta":184724993},{"NoteNumber":92,"Velocity":67,"Duration":110294,"SoundDuration":110294,"Delta":184724993},{"NoteNumber":91,"Velocity":62,"Duration":110294,"SoundDuration":110294,"Delta":184835287},{"NoteNumber":68,"Velocity":74,"Duration":447002,"SoundDuration":447002,"Delta":184945581},{"NoteNumber":89,"Velocity":69,"Duration":110293,"SoundDuration":110293,"Delta":184945581},{"NoteNumber":87,"Velocity":60,"Duration":110294,"SoundDuration":110294,"Delta":185055875},{"NoteNumber":85,"Velocity":60,"Duration":113207,"SoundDuration":113207,"Delta":185166169},{"NoteNumber":84,"Velocity":60,"Duration":113207,"SoundDuration":113207,"Delta":185279377},{"NoteNumber":89,"Velocity":68,"Duration":461647,"SoundDuration":461647,"Delta":185392584},{"NoteNumber":44,"Velocity":66,"Duration":113636,"SoundDuration":113636,"Delta":185626959},{"NoteNumber":56,"Velocity":74,"Duration":436363,"SoundDuration":436363,"Delta":185854232},{"NoteNumber":64,"Velocity":66,"Duration":109090,"SoundDuration":109090,"Delta":186072414},{"NoteNumber":89,"Velocity":67,"Duration":109090,"SoundDuration":109090,"Delta":186072414},{"NoteNumber":87,"Velocity":62,"Duration":109091,"SoundDuration":109091,"Delta":186181505},{"NoteNumber":65,"Velocity":74,"Duration":436363,"SoundDuration":436363,"Delta":186290596},{"NoteNumber":85,"Velocity":69,"Duration":109091,"SoundDuration":109091,"Delta":186290596},{"NoteNumber":84,"Velocity":60,"Duration":109091,"SoundDuration":109091,"Delta":186399687},{"NoteNumber":82,"Velocity":60,"Duration":109090,"SoundDuration":109090,"Delta":186508778},{"NoteNumber":80,"Velocity":60,"Duration":109091,"SoundDuration":109091,"Delta":186617869},{"NoteNumber":85,"Velocity":68,"Duration":460939,"SoundDuration":460939,"Delta":186726960},{"NoteNumber":41,"Velocity":59,"Duration":118110,"SoundDuration":118110,"Delta":186951679},{"NoteNumber":53,"Velocity":66,"Duration":111940,"SoundDuration":111940,"Delta":187187899},{"NoteNumber":75,"Velocity":72,"Duration":220587,"SoundDuration":220587,"Delta":187411780},{"NoteNumber":85,"Velocity":67,"Duration":110294,"SoundDuration":110294,"Delta":187411780},{"NoteNumber":57,"Velocity":58,"Duration":110294,"SoundDuration":110294,"Delta":187411780},{"NoteNumber":84,"Velocity":60,"Duration":110293,"SoundDuration":110293,"Delta":187522074},{"NoteNumber":73,"Velocity":80,"Duration":220588,"SoundDuration":220588,"Delta":187632368},{"NoteNumber":82,"Velocity":67,"Duration":110294,"SoundDuration":110294,"Delta":187632368},{"NoteNumber":58,"Velocity":68,"Duration":220588,"SoundDuration":220588,"Delta":187632368},{"NoteNumber":84,"Velocity":61,"Duration":110294,"SoundDuration":110294,"Delta":187742662},{"NoteNumber":70,"Velocity":68,"Duration":220587,"SoundDuration":220587,"Delta":187852956},{"NoteNumber":82,"Velocity":61,"Duration":110293,"SoundDuration":110293,"Delta":187852956},{"NoteNumber":62,"Velocity":57,"Duration":220587,"SoundDuration":220587,"Delta":187852956},{"NoteNumber":80,"Velocity":61,"Duration":110294,"SoundDuration":110294,"Delta":187963250},{"NoteNumber":70,"Velocity":68,"Duration":220587,"SoundDuration":220587,"Delta":188073544},{"NoteNumber":79,"Velocity":67,"Duration":110293,"SoundDuration":110293,"Delta":188073544},{"NoteNumber":63,"Velocity":62,"Duration":220587,"SoundDuration":220587,"Delta":188073544},{"NoteNumber":80,"Velocity":62,"Duration":110294,"SoundDuration":110294,"Delta":188183838},{"NoteNumber":79,"Velocity":62,"Duration":110294,"SoundDuration":110294,"Delta":188294132},{"NoteNumber":77,"Velocity":62,"Duration":110293,"SoundDuration":110293,"Delta":188404426},{"NoteNumber":75,"Velocity":62,"Duration":110294,"SoundDuration":110294,"Delta":188514720},{"NoteNumber":58,"Velocity":67,"Duration":667417,"SoundDuration":667417,"Delta":188514720},{"NoteNumber":61,"Velocity":73,"Duration":667417,"SoundDuration":667417,"Delta":188514720},{"NoteNumber":77,"Velocity":61,"Duration":110294,"SoundDuration":110294,"Delta":188625014},{"NoteNumber":79,"Velocity":63,"Duration":113636,"SoundDuration":113636,"Delta":188735308},{"NoteNumber":80,"Velocity":64,"Duration":113636,"SoundDuration":113636,"Delta":188848944},{"NoteNumber":81,"Velocity":66,"Duration":110701,"SoundDuration":110701,"Delta":188962580},{"NoteNumber":82,"Velocity":68,"Duration":110701,"SoundDuration":110701,"Delta":189073281},{"NoteNumber":84,"Velocity":69,"Duration":114503,"SoundDuration":114503,"Delta":189183982},{"NoteNumber":61,"Velocity":69,"Duration":227099,"SoundDuration":227099,"Delta":189183982},{"NoteNumber":58,"Velocity":63,"Duration":227099,"SoundDuration":227099,"Delta":189183982},{"NoteNumber":82,"Velocity":67,"Duration":114503,"SoundDuration":114503,"Delta":189298486},{"NoteNumber":80,"Velocity":69,"Duration":110294,"SoundDuration":110294,"Delta":189412990},{"NoteNumber":58,"Velocity":65,"Duration":220587,"SoundDuration":220587,"Delta":189412990},{"NoteNumber":61,"Velocity":71,"Duration":220587,"SoundDuration":220587,"Delta":189412990},{"NoteNumber":82,"Velocity":64,"Duration":110293,"SoundDuration":110293,"Delta":189523284},{"NoteNumber":84,"Velocity":68,"Duration":112782,"SoundDuration":112782,"Delta":189633578},{"NoteNumber":60,"Velocity":68,"Duration":225563,"SoundDuration":225563,"Delta":189633578},{"NoteNumber":56,"Velocity":62,"Duration":225563,"SoundDuration":225563,"Delta":189633578},{"NoteNumber":85,"Velocity":69,"Duration":112781,"SoundDuration":112781,"Delta":189746360},{"NoteNumber":86,"Velocity":72,"Duration":113636,"SoundDuration":113636,"Delta":189859142},{"NoteNumber":49,"Velocity":64,"Duration":227272,"SoundDuration":227272,"Delta":189859142},{"NoteNumber":58,"Velocity":70,"Duration":227272,"SoundDuration":227272,"Delta":189859142},{"NoteNumber":87,"Velocity":73,"Duration":113636,"SoundDuration":113636,"Delta":189972778},{"NoteNumber":89,"Velocity":75,"Duration":113636,"SoundDuration":113636,"Delta":190086414},{"NoteNumber":56,"Velocity":62,"Duration":227272,"SoundDuration":227272,"Delta":190086414},{"NoteNumber":48,"Velocity":57,"Duration":227272,"SoundDuration":227272,"Delta":190086414},{"NoteNumber":87,"Velocity":71,"Duration":113636,"SoundDuration":113636,"Delta":190200050},{"NoteNumber":85,"Velocity":74,"Duration":116278,"SoundDuration":116278,"Delta":190313687},{"NoteNumber":55,"Velocity":72,"Duration":232558,"SoundDuration":232558,"Delta":190313687},{"NoteNumber":46,"Velocity":66,"Duration":232558,"SoundDuration":232558,"Delta":190313687},{"NoteNumber":84,"Velocity":73,"Duration":116279,"SoundDuration":116279,"Delta":190429966},{"NoteNumber":82,"Velocity":71,"Duration":116278,"SoundDuration":116278,"Delta":190546245},{"NoteNumber":56,"Velocity":68,"Duration":232557,"SoundDuration":232557,"Delta":190546245},{"NoteNumber":48,"Velocity":62,"Duration":232557,"SoundDuration":232557,"Delta":190546245},{"NoteNumber":80,"Velocity":70,"Duration":116278,"SoundDuration":116278,"Delta":190662524},{"NoteNumber":73,"Velocity":78,"Duration":223880,"SoundDuration":223880,"Delta":190778803},{"NoteNumber":82,"Velocity":78,"Duration":223880,"SoundDuration":223880,"Delta":190778803},{"NoteNumber":43,"Velocity":60,"Duration":134328,"SoundDuration":134328,"Delta":190778803},{"NoteNumber":44,"Velocity":55,"Duration":134328,"SoundDuration":134328,"Delta":190890743},{"NoteNumber":43,"Velocity":55,"Duration":134328,"SoundDuration":134328,"Delta":191002683},{"NoteNumber":41,"Velocity":55,"Duration":133999,"SoundDuration":133999,"Delta":191114623},{"NoteNumber":73,"Velocity":80,"Duration":669262,"SoundDuration":669262,"Delta":191226564},{"NoteNumber":70,"Velocity":73,"Duration":669262,"SoundDuration":669262,"Delta":191226564},{"NoteNumber":39,"Velocity":55,"Duration":132352,"SoundDuration":132352,"Delta":191226564},{"NoteNumber":41,"Velocity":54,"Duration":133021,"SoundDuration":133021,"Delta":191336858},{"NoteNumber":43,"Velocity":56,"Duration":136363,"SoundDuration":136363,"Delta":191447152},{"NoteNumber":44,"Velocity":57,"Duration":113636,"SoundDuration":113636,"Delta":191560788},{"NoteNumber":45,"Velocity":59,"Duration":110701,"SoundDuration":110701,"Delta":191674424},{"NoteNumber":46,"Velocity":61,"Duration":133601,"SoundDuration":133601,"Delta":191785125},{"NoteNumber":73,"Velocity":75,"Duration":227099,"SoundDuration":227099,"Delta":191895826},{"NoteNumber":65,"Velocity":69,"Duration":227099,"SoundDuration":227099,"Delta":191895826},{"NoteNumber":48,"Velocity":62,"Duration":137404,"SoundDuration":137404,"Delta":191895826},{"NoteNumber":46,"Velocity":60,"Duration":136562,"SoundDuration":136562,"Delta":192010330},{"NoteNumber":73,"Velocity":78,"Duration":243144,"SoundDuration":243144,"Delta":192124834},{"NoteNumber":65,"Velocity":71,"Duration":243144,"SoundDuration":243144,"Delta":192124834},{"NoteNumber":43,"Velocity":62,"Duration":132352,"SoundDuration":132352,"Delta":192124834},{"NoteNumber":44,"Velocity":57,"Duration":132850,"SoundDuration":132850,"Delta":192235128},{"NoteNumber":72,"Velocity":74,"Duration":248291,"SoundDuration":248291,"Delta":192345422},{"NoteNumber":63,"Velocity":68,"Duration":248291,"SoundDuration":248291,"Delta":192345422},{"NoteNumber":46,"Velocity":61,"Duration":135338,"SoundDuration":135338,"Delta":192345422},{"NoteNumber":48,"Velocity":62,"Duration":135509,"SoundDuration":135509,"Delta":192458204},{"NoteNumber":61,"Velocity":70,"Duration":249999,"SoundDuration":249999,"Delta":192570986},{"NoteNumber":70,"Velocity":77,"Duration":249999,"SoundDuration":249999,"Delta":192570986},{"NoteNumber":49,"Velocity":64,"Duration":136363,"SoundDuration":136363,"Delta":192570986},{"NoteNumber":51,"Velocity":65,"Duration":136363,"SoundDuration":136363,"Delta":192684622},{"NoteNumber":60,"Velocity":62,"Duration":227272,"SoundDuration":227272,"Delta":192798258},{"NoteNumber":68,"Velocity":68,"Duration":227272,"SoundDuration":227272,"Delta":192798258},{"NoteNumber":53,"Velocity":67,"Duration":136363,"SoundDuration":136363,"Delta":192798258},{"NoteNumber":51,"Velocity":63,"Duration":113636,"SoundDuration":113636,"Delta":192911894},{"NoteNumber":58,"Velocity":72,"Duration":255813,"SoundDuration":255813,"Delta":193025531},{"NoteNumber":67,"Velocity":79,"Duration":255813,"SoundDuration":255813,"Delta":193025531},{"NoteNumber":49,"Velocity":72,"Duration":116278,"SoundDuration":116278,"Delta":193025531},{"NoteNumber":48,"Velocity":71,"Duration":116279,"SoundDuration":116279,"Delta":193141810},{"NoteNumber":60,"Velocity":68,"Duration":232350,"SoundDuration":232350,"Delta":193258089},{"NoteNumber":68,"Velocity":74,"Duration":232350,"SoundDuration":232350,"Delta":193258089},{"NoteNumber":46,"Velocity":69,"Duration":116278,"SoundDuration":116278,"Delta":193258089},{"NoteNumber":44,"Velocity":63,"Duration":116071,"SoundDuration":116071,"Delta":193374368},{"NoteNumber":69,"Velocity":62,"Duration":110609,"SoundDuration":110609,"Delta":193490440},{"NoteNumber":63,"Velocity":71,"Duration":220903,"SoundDuration":220903,"Delta":193490440},{"NoteNumber":54,"Velocity":65,"Duration":220903,"SoundDuration":220903,"Delta":193490440},{"NoteNumber":70,"Velocity":57,"Duration":110294,"SoundDuration":110294,"Delta":193601049},{"NoteNumber":72,"Velocity":61,"Duration":112595,"SoundDuration":112595,"Delta":193711343},{"NoteNumber":61,"Velocity":68,"Duration":225377,"SoundDuration":225377,"Delta":193711343},{"NoteNumber":53,"Velocity":62,"Duration":225377,"SoundDuration":225377,"Delta":193711343},{"NoteNumber":73,"Velocity":62,"Duration":112782,"SoundDuration":112782,"Delta":193823939},{"NoteNumber":75,"Velocity":64,"Duration":113572,"SoundDuration":113572,"Delta":193936721},{"NoteNumber":51,"Velocity":64,"Duration":227208,"SoundDuration":227208,"Delta":193936721},{"NoteNumber":60,"Velocity":70,"Duration":227208,"SoundDuration":227208,"Delta":193936721},{"NoteNumber":77,"Velocity":65,"Duration":113636,"SoundDuration":113636,"Delta":194050293},{"NoteNumber":78,"Velocity":67,"Duration":113636,"SoundDuration":113636,"Delta":194163929},{"NoteNumber":49,"Velocity":57,"Duration":227272,"SoundDuration":227272,"Delta":194163929},{"NoteNumber":58,"Velocity":62,"Duration":227272,"SoundDuration":227272,"Delta":194163929},{"NoteNumber":77,"Velocity":63,"Duration":113636,"SoundDuration":113636,"Delta":194277565},{"NoteNumber":75,"Velocity":66,"Duration":116080,"SoundDuration":116080,"Delta":194391202},{"NoteNumber":57,"Velocity":72,"Duration":232359,"SoundDuration":232359,"Delta":194391202},{"NoteNumber":48,"Velocity":66,"Duration":232359,"SoundDuration":232359,"Delta":194391202},{"NoteNumber":73,"Velocity":65,"Duration":116279,"SoundDuration":116279,"Delta":194507282},{"NoteNumber":72,"Velocity":63,"Duration":116278,"SoundDuration":116278,"Delta":194623561},{"NoteNumber":49,"Velocity":62,"Duration":232557,"SoundDuration":232557,"Delta":194623561},{"NoteNumber":58,"Velocity":68,"Duration":232557,"SoundDuration":232557,"Delta":194623561},{"NoteNumber":70,"Velocity":63,"Duration":116278,"SoundDuration":116278,"Delta":194739840},{"NoteNumber":75,"Velocity":78,"Duration":243144,"SoundDuration":243144,"Delta":194856119},{"NoteNumber":66,"Velocity":71,"Duration":243144,"SoundDuration":243144,"Delta":194856119},{"NoteNumber":45,"Velocity":62,"Duration":132352,"SoundDuration":132352,"Delta":194856119},{"NoteNumber":46,"Velocity":57,"Duration":132850,"SoundDuration":132850,"Delta":194966413},{"NoteNumber":73,"Velocity":74,"Duration":248291,"SoundDuration":248291,"Delta":195076707},{"NoteNumber":65,"Velocity":68,"Duration":248291,"SoundDuration":248291,"Delta":195076707},{"NoteNumber":48,"Velocity":61,"Duration":135338,"SoundDuration":135338,"Delta":195076707},{"NoteNumber":49,"Velocity":62,"Duration":135509,"SoundDuration":135509,"Delta":195189489},{"NoteNumber":63,"Velocity":70,"Duration":249999,"SoundDuration":249999,"Delta":195302271},{"NoteNumber":72,"Velocity":77,"Duration":249999,"SoundDuration":249999,"Delta":195302271},{"NoteNumber":51,"Velocity":64,"Duration":136363,"SoundDuration":136363,"Delta":195302271},{"NoteNumber":53,"Velocity":65,"Duration":136363,"SoundDuration":136363,"Delta":195415908},{"NoteNumber":61,"Velocity":62,"Duration":227272,"SoundDuration":227272,"Delta":195529544},{"NoteNumber":70,"Velocity":68,"Duration":227272,"SoundDuration":227272,"Delta":195529544},{"NoteNumber":54,"Velocity":67,"Duration":136363,"SoundDuration":136363,"Delta":195529544},{"NoteNumber":53,"Velocity":63,"Duration":113636,"SoundDuration":113636,"Delta":195643180},{"NoteNumber":60,"Velocity":72,"Duration":255813,"SoundDuration":255813,"Delta":195756816},{"NoteNumber":69,"Velocity":79,"Duration":255813,"SoundDuration":255813,"Delta":195756816},{"NoteNumber":51,"Velocity":72,"Duration":116278,"SoundDuration":116278,"Delta":195756816},{"NoteNumber":49,"Velocity":71,"Duration":116279,"SoundDuration":116279,"Delta":195873095},{"NoteNumber":61,"Velocity":68,"Duration":232344,"SoundDuration":232344,"Delta":195989374},{"NoteNumber":70,"Velocity":74,"Duration":232344,"SoundDuration":232344,"Delta":195989374},{"NoteNumber":48,"Velocity":69,"Duration":116278,"SoundDuration":116278,"Delta":195989374},{"NoteNumber":46,"Velocity":63,"Duration":116065,"SoundDuration":116065,"Delta":196105653},{"NoteNumber":50,"Velocity":62,"Duration":138098,"SoundDuration":138098,"Delta":196221719},{"NoteNumber":44,"Velocity":71,"Duration":252102,"SoundDuration":252102,"Delta":196221719},{"NoteNumber":51,"Velocity":57,"Duration":136904,"SoundDuration":136904,"Delta":196336916},{"NoteNumber":53,"Velocity":61,"Duration":135754,"SoundDuration":135754,"Delta":196451094},{"NoteNumber":43,"Velocity":68,"Duration":247799,"SoundDuration":247799,"Delta":196451094},{"NoteNumber":55,"Velocity":62,"Duration":134570,"SoundDuration":134570,"Delta":196564324},{"NoteNumber":56,"Velocity":64,"Duration":133489,"SoundDuration":133489,"Delta":196676537},{"NoteNumber":41,"Velocity":70,"Duration":243320,"SoundDuration":243320,"Delta":196676537},{"NoteNumber":58,"Velocity":65,"Duration":131971,"SoundDuration":131971,"Delta":196787886},{"NoteNumber":59,"Velocity":67,"Duration":132202,"SoundDuration":132202,"Delta":196897930},{"NoteNumber":39,"Velocity":62,"Duration":243489,"SoundDuration":243489,"Delta":196897930},{"NoteNumber":58,"Velocity":63,"Duration":133427,"SoundDuration":133427,"Delta":197007992},{"NoteNumber":56,"Velocity":66,"Duration":134675,"SoundDuration":134675,"Delta":197119084},{"NoteNumber":38,"Velocity":72,"Duration":248033,"SoundDuration":248033,"Delta":197119084},{"NoteNumber":55,"Velocity":65,"Duration":135914,"SoundDuration":135914,"Delta":197231203},{"NoteNumber":53,"Velocity":63,"Duration":138548,"SoundDuration":138548,"Delta":197344390},{"NoteNumber":39,"Velocity":68,"Duration":237722,"SoundDuration":237722,"Delta":197344390},{"NoteNumber":51,"Velocity":63,"Duration":123966,"SoundDuration":123966,"Delta":197458145},{"NoteNumber":52,"Velocity":62,"Duration":138266,"SoundDuration":138266,"Delta":197582112},{"NoteNumber":46,"Velocity":71,"Duration":250847,"SoundDuration":250847,"Delta":197582112},{"NoteNumber":53,"Velocity":57,"Duration":135463,"SoundDuration":135463,"Delta":197697497},{"NoteNumber":55,"Velocity":61,"Duration":134433,"SoundDuration":134433,"Delta":197810488},{"NoteNumber":44,"Velocity":68,"Duration":245761,"SoundDuration":245761,"Delta":197810488},{"NoteNumber":56,"Velocity":62,"Duration":133684,"SoundDuration":133684,"Delta":197922564},{"NoteNumber":58,"Velocity":64,"Duration":133025,"SoundDuration":133025,"Delta":198034027},{"NoteNumber":43,"Velocity":70,"Duration":243077,"SoundDuration":243077,"Delta":198034027},{"NoteNumber":60,"Velocity":65,"Duration":132161,"SoundDuration":132161,"Delta":198144943},{"NoteNumber":61,"Velocity":67,"Duration":132689,"SoundDuration":132689,"Delta":198255096},{"NoteNumber":41,"Velocity":62,"Duration":244194,"SoundDuration":244194,"Delta":198255096},{"NoteNumber":60,"Velocity":63,"Duration":133726,"SoundDuration":133726,"Delta":198365564},{"NoteNumber":58,"Velocity":66,"Duration":134811,"SoundDuration":134811,"Delta":198476902},{"NoteNumber":40,"Velocity":72,"Duration":248169,"SoundDuration":248169,"Delta":198476902},{"NoteNumber":56,"Velocity":65,"Duration":135914,"SoundDuration":135914,"Delta":198589157},{"NoteNumber":55,"Velocity":63,"Duration":140479,"SoundDuration":140479,"Delta":198702344},{"NoteNumber":41,"Velocity":68,"Duration":246206,"SoundDuration":246206,"Delta":198702344},{"NoteNumber":53,"Velocity":63,"Duration":132158,"SoundDuration":132158,"Delta":198816392},{"NoteNumber":75,"Velocity":78,"Duration":243144,"SoundDuration":243144,"Delta":198948550},{"NoteNumber":71,"Velocity":71,"Duration":243144,"SoundDuration":243144,"Delta":198948550},{"NoteNumber":53,"Velocity":62,"Duration":132352,"SoundDuration":132352,"Delta":198948550},{"NoteNumber":54,"Velocity":57,"Duration":132850,"SoundDuration":132850,"Delta":199058844},{"NoteNumber":73,"Velocity":74,"Duration":248291,"SoundDuration":248291,"Delta":199169138},{"NoteNumber":70,"Velocity":68,"Duration":248291,"SoundDuration":248291,"Delta":199169138},{"NoteNumber":56,"Velocity":61,"Duration":135338,"SoundDuration":135338,"Delta":199169138},{"NoteNumber":58,"Velocity":62,"Duration":135509,"SoundDuration":135509,"Delta":199281920},{"NoteNumber":68,"Velocity":70,"Duration":249999,"SoundDuration":249999,"Delta":199394702},{"NoteNumber":71,"Velocity":77,"Duration":249999,"SoundDuration":249999,"Delta":199394702},{"NoteNumber":59,"Velocity":64,"Duration":136363,"SoundDuration":136363,"Delta":199394702},{"NoteNumber":61,"Velocity":65,"Duration":136363,"SoundDuration":136363,"Delta":199508339},{"NoteNumber":66,"Velocity":62,"Duration":227272,"SoundDuration":227272,"Delta":199621975},{"NoteNumber":70,"Velocity":68,"Duration":227272,"SoundDuration":227272,"Delta":199621975},{"NoteNumber":63,"Velocity":67,"Duration":136363,"SoundDuration":136363,"Delta":199621975},{"NoteNumber":61,"Velocity":63,"Duration":136892,"SoundDuration":136892,"Delta":199735611},{"NoteNumber":65,"Velocity":72,"Duration":255813,"SoundDuration":255813,"Delta":199849247},{"NoteNumber":68,"Velocity":79,"Duration":255813,"SoundDuration":255813,"Delta":199849247},{"NoteNumber":59,"Velocity":72,"Duration":139534,"SoundDuration":139534,"Delta":199849247},{"NoteNumber":58,"Velocity":71,"Duration":139534,"SoundDuration":139534,"Delta":199965526},{"NoteNumber":66,"Velocity":68,"Duration":247283,"SoundDuration":247283,"Delta":200081805},{"NoteNumber":70,"Velocity":74,"Duration":247283,"SoundDuration":247283,"Delta":200081805},{"NoteNumber":56,"Velocity":69,"Duration":142479,"SoundDuration":142479,"Delta":200081805},{"NoteNumber":54,"Velocity":63,"Duration":131004,"SoundDuration":131004,"Delta":200198084},{"NoteNumber":85,"Velocity":78,"Duration":243144,"SoundDuration":243144,"Delta":200329089},{"NoteNumber":76,"Velocity":71,"Duration":243144,"SoundDuration":243144,"Delta":200329089},{"NoteNumber":43,"Velocity":62,"Duration":132352,"SoundDuration":132352,"Delta":200329089},{"NoteNumber":44,"Velocity":57,"Duration":132850,"SoundDuration":132850,"Delta":200439383},{"NoteNumber":83,"Velocity":74,"Duration":248291,"SoundDuration":248291,"Delta":200549677},{"NoteNumber":75,"Velocity":68,"Duration":248291,"SoundDuration":248291,"Delta":200549677},{"NoteNumber":46,"Velocity":61,"Duration":135338,"SoundDuration":135338,"Delta":200549677},{"NoteNumber":47,"Velocity":62,"Duration":135509,"SoundDuration":135509,"Delta":200662459},{"NoteNumber":73,"Velocity":70,"Duration":249999,"SoundDuration":249999,"Delta":200775241},{"NoteNumber":82,"Velocity":77,"Duration":249999,"SoundDuration":249999,"Delta":200775241},{"NoteNumber":49,"Velocity":64,"Duration":136363,"SoundDuration":136363,"Delta":200775241},{"NoteNumber":51,"Velocity":65,"Duration":136363,"SoundDuration":136363,"Delta":200888877},{"NoteNumber":71,"Velocity":62,"Duration":227272,"SoundDuration":227272,"Delta":201002513},{"NoteNumber":80,"Velocity":68,"Duration":227272,"SoundDuration":227272,"Delta":201002513},{"NoteNumber":52,"Velocity":67,"Duration":136363,"SoundDuration":136363,"Delta":201002513},{"NoteNumber":51,"Velocity":63,"Duration":136892,"SoundDuration":136892,"Delta":201116149},{"NoteNumber":70,"Velocity":72,"Duration":255114,"SoundDuration":255114,"Delta":201229786},{"NoteNumber":79,"Velocity":79,"Duration":255114,"SoundDuration":255114,"Delta":201229786},{"NoteNumber":49,"Velocity":72,"Duration":139534,"SoundDuration":139534,"Delta":201229786},{"NoteNumber":47,"Velocity":71,"Duration":138835,"SoundDuration":138835,"Delta":201346065},{"NoteNumber":71,"Velocity":68,"Duration":460858,"SoundDuration":460858,"Delta":201462344},{"NoteNumber":80,"Velocity":74,"Duration":460858,"SoundDuration":460858,"Delta":201462344},{"NoteNumber":46,"Velocity":69,"Duration":135338,"SoundDuration":135338,"Delta":201462344},{"NoteNumber":44,"Velocity":63,"Duration":136311,"SoundDuration":136311,"Delta":201575126},{"NoteNumber":42,"Velocity":63,"Duration":141176,"SoundDuration":141176,"Delta":201687908},{"NoteNumber":40,"Velocity":63,"Duration":140723,"SoundDuration":140723,"Delta":201805555},{"NoteNumber":80,"Velocity":78,"Duration":462272,"SoundDuration":462272,"Delta":201923202},{"NoteNumber":83,"Velocity":85,"Duration":462272,"SoundDuration":462272,"Delta":201923202},{"NoteNumber":39,"Velocity":63,"Duration":138461,"SoundDuration":138461,"Delta":201923202},{"NoteNumber":38,"Velocity":63,"Duration":115384,"SoundDuration":115384,"Delta":202038586},{"NoteNumber":39,"Velocity":63,"Duration":115384,"SoundDuration":115384,"Delta":202153971},{"NoteNumber":43,"Velocity":63,"Duration":116119,"SoundDuration":116119,"Delta":202269355},{"NoteNumber":79,"Velocity":82,"Duration":250924,"SoundDuration":250924,"Delta":202385474},{"NoteNumber":82,"Velocity":90,"Duration":250924,"SoundDuration":250924,"Delta":202385474},{"NoteNumber":46,"Velocity":63,"Duration":123022,"SoundDuration":123022,"Delta":202385474},{"NoteNumber":51,"Velocity":63,"Duration":127902,"SoundDuration":127902,"Delta":202508497},{"NoteNumber":73,"Velocity":66,"Duration":685872,"SoundDuration":685872,"Delta":202636399},{"NoteNumber":76,"Velocity":78,"Duration":685872,"SoundDuration":685872,"Delta":202636399},{"NoteNumber":43,"Velocity":60,"Duration":928906,"SoundDuration":928906,"Delta":202636399},{"NoteNumber":55,"Velocity":84,"Duration":78201,"SoundDuration":78201,"Delta":202636399},{"NoteNumber":56,"Velocity":70,"Duration":77572,"SoundDuration":77572,"Delta":202714601},{"NoteNumber":55,"Velocity":74,"Duration":76953,"SoundDuration":76953,"Delta":202792174},{"NoteNumber":56,"Velocity":67,"Duration":76340,"SoundDuration":76340,"Delta":202869127},{"NoteNumber":55,"Velocity":73,"Duration":75740,"SoundDuration":75740,"Delta":202945467},{"NoteNumber":56,"Velocity":64,"Duration":75146,"SoundDuration":75146,"Delta":203021207},{"NoteNumber":55,"Velocity":72,"Duration":74945,"SoundDuration":74945,"Delta":203096353},{"NoteNumber":56,"Velocity":64,"Duration":75305,"SoundDuration":75305,"Delta":203171298},{"NoteNumber":55,"Velocity":70,"Duration":75668,"SoundDuration":75668,"Delta":203246603},{"NoteNumber":73,"Velocity":64,"Duration":472041,"SoundDuration":472041,"Delta":203322271},{"NoteNumber":76,"Velocity":76,"Duration":472041,"SoundDuration":472041,"Delta":203322271},{"NoteNumber":56,"Velocity":64,"Duration":57027,"SoundDuration":57027,"Delta":203322271},{"NoteNumber":55,"Velocity":75,"Duration":57251,"SoundDuration":57251,"Delta":203379298},{"NoteNumber":53,"Velocity":65,"Duration":64377,"SoundDuration":64377,"Delta":203436550},{"NoteNumber":55,"Velocity":70,"Duration":64377,"SoundDuration":64377,"Delta":203500928},{"NoteNumber":44,"Velocity":75,"Duration":921457,"SoundDuration":921457,"Delta":203565306},{"NoteNumber":56,"Velocity":83,"Duration":921457,"SoundDuration":921457,"Delta":203565306},{"NoteNumber":71,"Velocity":52,"Duration":231660,"SoundDuration":231660,"Delta":203794313},{"NoteNumber":75,"Velocity":62,"Duration":231660,"SoundDuration":231660,"Delta":203794313},{"NoteNumber":70,"Velocity":57,"Duration":226415,"SoundDuration":226415,"Delta":204025973},{"NoteNumber":73,"Velocity":68,"Duration":226415,"SoundDuration":226415,"Delta":204025973},{"NoteNumber":68,"Velocity":56,"Duration":234375,"SoundDuration":234375,"Delta":204252388},{"NoteNumber":71,"Velocity":66,"Duration":234375,"SoundDuration":234375,"Delta":204252388},{"NoteNumber":67,"Velocity":59,"Duration":230769,"SoundDuration":230769,"Delta":204486763},{"NoteNumber":70,"Velocity":70,"Duration":230769,"SoundDuration":230769,"Delta":204486763},{"NoteNumber":51,"Velocity":70,"Duration":461537,"SoundDuration":461537,"Delta":204486763},{"NoteNumber":39,"Velocity":59,"Duration":461537,"SoundDuration":461537,"Delta":204486763},{"NoteNumber":68,"Velocity":56,"Duration":230768,"SoundDuration":230768,"Delta":204717532},{"NoteNumber":71,"Velocity":66,"Duration":230768,"SoundDuration":230768,"Delta":204717532},{"NoteNumber":70,"Velocity":57,"Duration":238094,"SoundDuration":238094,"Delta":204948301},{"NoteNumber":73,"Velocity":68,"Duration":238094,"SoundDuration":238094,"Delta":204948301},{"NoteNumber":37,"Velocity":59,"Duration":481242,"SoundDuration":481242,"Delta":204948301},{"NoteNumber":49,"Velocity":70,"Duration":481242,"SoundDuration":481242,"Delta":204948301},{"NoteNumber":71,"Velocity":60,"Duration":473959,"SoundDuration":473959,"Delta":205186396},{"NoteNumber":75,"Velocity":71,"Duration":473959,"SoundDuration":473959,"Delta":205186396},{"NoteNumber":41,"Velocity":60,"Duration":928906,"SoundDuration":928906,"Delta":205429544},{"NoteNumber":53,"Velocity":84,"Duration":78201,"SoundDuration":78201,"Delta":205429544},{"NoteNumber":54,"Velocity":70,"Duration":77572,"SoundDuration":77572,"Delta":205507746},{"NoteNumber":53,"Velocity":74,"Duration":76953,"SoundDuration":76953,"Delta":205585318},{"NoteNumber":71,"Velocity":59,"Duration":225353,"SoundDuration":225353,"Delta":205662271},{"NoteNumber":75,"Velocity":70,"Duration":225353,"SoundDuration":225353,"Delta":205662271},{"NoteNumber":54,"Velocity":67,"Duration":76340,"SoundDuration":76340,"Delta":205662271},{"NoteNumber":53,"Velocity":73,"Duration":75740,"SoundDuration":75740,"Delta":205738612},{"NoteNumber":54,"Velocity":64,"Duration":75146,"SoundDuration":75146,"Delta":205814352},{"NoteNumber":75,"Velocity":85,"Duration":697959,"SoundDuration":697959,"Delta":205889498},{"NoteNumber":71,"Velocity":72,"Duration":697959,"SoundDuration":697959,"Delta":205889498},{"NoteNumber":53,"Velocity":72,"Duration":74945,"SoundDuration":74945,"Delta":205889498},{"NoteNumber":54,"Velocity":64,"Duration":75305,"SoundDuration":75305,"Delta":205964443},{"NoteNumber":53,"Velocity":70,"Duration":75668,"SoundDuration":75668,"Delta":206039748},{"NoteNumber":54,"Velocity":64,"Duration":57027,"SoundDuration":57027,"Delta":206115416},{"NoteNumber":53,"Velocity":75,"Duration":57251,"SoundDuration":57251,"Delta":206172443},{"NoteNumber":51,"Velocity":65,"Duration":64377,"SoundDuration":64377,"Delta":206229695},{"NoteNumber":53,"Velocity":70,"Duration":64377,"SoundDuration":64377,"Delta":206294073},{"NoteNumber":54,"Velocity":83,"Duration":460667,"SoundDuration":460667,"Delta":206358450},{"NoteNumber":42,"Velocity":75,"Duration":460667,"SoundDuration":460667,"Delta":206358450},{"NoteNumber":73,"Velocity":76,"Duration":458075,"SoundDuration":458075,"Delta":206587458},{"NoteNumber":70,"Velocity":52,"Duration":458075,"SoundDuration":458075,"Delta":206587458},{"NoteNumber":37,"Velocity":59,"Duration":460790,"SoundDuration":460790,"Delta":206819118},{"NoteNumber":49,"Velocity":70,"Duration":460790,"SoundDuration":460790,"Delta":206819118},{"NoteNumber":68,"Velocity":56,"Duration":234375,"SoundDuration":234375,"Delta":207045533},{"NoteNumber":71,"Velocity":66,"Duration":234375,"SoundDuration":234375,"Delta":207045533},{"NoteNumber":66,"Velocity":47,"Duration":230769,"SoundDuration":230769,"Delta":207279908},{"NoteNumber":70,"Velocity":56,"Duration":230769,"SoundDuration":230769,"Delta":207279908},{"NoteNumber":39,"Velocity":47,"Duration":461537,"SoundDuration":461537,"Delta":207279908},{"NoteNumber":51,"Velocity":56,"Duration":461537,"SoundDuration":461537,"Delta":207279908},{"NoteNumber":68,"Velocity":52,"Duration":230768,"SoundDuration":230768,"Delta":207510677},{"NoteNumber":65,"Velocity":44,"Duration":230768,"SoundDuration":230768,"Delta":207510677},{"NoteNumber":70,"Velocity":54,"Duration":238094,"SoundDuration":238094,"Delta":207741446},{"NoteNumber":66,"Velocity":45,"Duration":238094,"SoundDuration":238094,"Delta":207741446},{"NoteNumber":47,"Velocity":56,"Duration":697864,"SoundDuration":697864,"Delta":207741446},{"NoteNumber":35,"Velocity":47,"Duration":697864,"SoundDuration":697864,"Delta":207741446},{"NoteNumber":68,"Velocity":48,"Duration":229884,"SoundDuration":229884,"Delta":207979541},{"NoteNumber":71,"Velocity":56,"Duration":229884,"SoundDuration":229884,"Delta":207979541},{"NoteNumber":66,"Velocity":56,"Duration":229884,"SoundDuration":229884,"Delta":208209426},{"NoteNumber":73,"Velocity":56,"Duration":229884,"SoundDuration":229884,"Delta":208209426},{"NoteNumber":66,"Velocity":51,"Duration":229884,"SoundDuration":229884,"Delta":208439311},{"NoteNumber":75,"Velocity":60,"Duration":455448,"SoundDuration":455448,"Delta":208439311},{"NoteNumber":46,"Velocity":45,"Duration":229884,"SoundDuration":229884,"Delta":208439311},{"NoteNumber":34,"Velocity":38,"Duration":229884,"SoundDuration":229884,"Delta":208439311},{"NoteNumber":65,"Velocity":54,"Duration":225563,"SoundDuration":225563,"Delta":208669196},{"NoteNumber":44,"Velocity":45,"Duration":225563,"SoundDuration":225563,"Delta":208669196},{"NoteNumber":32,"Velocity":38,"Duration":225563,"SoundDuration":225563,"Delta":208669196},{"NoteNumber":66,"Velocity":45,"Duration":225564,"SoundDuration":225564,"Delta":208894760},{"NoteNumber":73,"Velocity":54,"Duration":456360,"SoundDuration":456360,"Delta":208894760},{"NoteNumber":46,"Velocity":45,"Duration":225564,"SoundDuration":225564,"Delta":208894760},{"NoteNumber":34,"Velocity":38,"Duration":225564,"SoundDuration":225564,"Delta":208894760},{"NoteNumber":68,"Velocity":40,"Duration":114503,"SoundDuration":114503,"Delta":209120324},{"NoteNumber":35,"Velocity":38,"Duration":230796,"SoundDuration":230796,"Delta":209120324},{"NoteNumber":47,"Velocity":45,"Duration":230796,"SoundDuration":230796,"Delta":209120324},{"NoteNumber":66,"Velocity":53,"Duration":116292,"SoundDuration":116292,"Delta":209234827},{"NoteNumber":65,"Velocity":40,"Duration":117187,"SoundDuration":117187,"Delta":209351120},{"NoteNumber":73,"Velocity":48,"Duration":234375,"SoundDuration":234375,"Delta":209351120},{"NoteNumber":49,"Velocity":45,"Duration":234375,"SoundDuration":234375,"Delta":209351120},{"NoteNumber":37,"Velocity":38,"Duration":234375,"SoundDuration":234375,"Delta":209351120},{"NoteNumber":68,"Velocity":48,"Duration":117187,"SoundDuration":117187,"Delta":209468308},{"NoteNumber":66,"Velocity":46,"Duration":230769,"SoundDuration":230769,"Delta":209585495},{"NoteNumber":70,"Velocity":39,"Duration":115384,"SoundDuration":115384,"Delta":209585495},{"NoteNumber":30,"Velocity":39,"Duration":461537,"SoundDuration":461537,"Delta":209585495},{"NoteNumber":42,"Velocity":39,"Duration":461537,"SoundDuration":461537,"Delta":209585495},{"NoteNumber":58,"Velocity":46,"Duration":115384,"SoundDuration":115384,"Delta":209700880},{"NoteNumber":61,"Velocity":40,"Duration":115384,"SoundDuration":115384,"Delta":209816264},{"NoteNumber":66,"Velocity":40,"Duration":115384,"SoundDuration":115384,"Delta":209931649},{"NoteNumber":70,"Velocity":52,"Duration":114503,"SoundDuration":114503,"Delta":210047033},{"NoteNumber":66,"Velocity":40,"Duration":115090,"SoundDuration":115090,"Delta":210161537},{"NoteNumber":65,"Velocity":40,"Duration":115384,"SoundDuration":115384,"Delta":210276628},{"NoteNumber":71,"Velocity":54,"Duration":115384,"SoundDuration":115384,"Delta":210276628},{"NoteNumber":63,"Velocity":40,"Duration":129310,"SoundDuration":129310,"Delta":210392013},{"NoteNumber":65,"Velocity":41,"Duration":230769,"SoundDuration":230769,"Delta":210521323},{"NoteNumber":73,"Velocity":57,"Duration":230769,"SoundDuration":230769,"Delta":210521323},{"NoteNumber":49,"Velocity":35,"Duration":115384,"SoundDuration":115384,"Delta":210636707},{"NoteNumber":66,"Velocity":40,"Duration":115384,"SoundDuration":115384,"Delta":210752092},{"NoteNumber":51,"Velocity":35,"Duration":115384,"SoundDuration":115384,"Delta":210752092},{"NoteNumber":68,"Velocity":40,"Duration":115384,"SoundDuration":115384,"Delta":210867476},{"NoteNumber":53,"Velocity":35,"Duration":115384,"SoundDuration":115384,"Delta":210867476},{"NoteNumber":70,"Velocity":50,"Duration":461538,"SoundDuration":461538,"Delta":210982861},{"NoteNumber":54,"Velocity":40,"Duration":115384,"SoundDuration":115384,"Delta":210982861},{"NoteNumber":46,"Velocity":35,"Duration":115384,"SoundDuration":115384,"Delta":211098245},{"NoteNumber":49,"Velocity":35,"Duration":115384,"SoundDuration":115384,"Delta":211213630},{"NoteNumber":54,"Velocity":35,"Duration":115384,"SoundDuration":115384,"Delta":211329014},{"NoteNumber":58,"Velocity":51,"Duration":114942,"SoundDuration":114942,"Delta":211444399},{"NoteNumber":78,"Velocity":58,"Duration":114942,"SoundDuration":114942,"Delta":211559341},{"NoteNumber":77,"Velocity":54,"Duration":114942,"SoundDuration":114942,"Delta":211674284},{"NoteNumber":59,"Velocity":54,"Duration":114942,"SoundDuration":114942,"Delta":211674284},{"NoteNumber":75,"Velocity":58,"Duration":132743,"SoundDuration":132743,"Delta":211789226},{"NoteNumber":77,"Velocity":65,"Duration":230769,"SoundDuration":230769,"Delta":211921970},{"NoteNumber":61,"Velocity":56,"Duration":461537,"SoundDuration":461537,"Delta":211921970},{"NoteNumber":78,"Velocity":62,"Duration":115384,"SoundDuration":115384,"Delta":212152739},{"NoteNumber":80,"Velocity":68,"Duration":692306,"SoundDuration":692306,"Delta":212268123},{"NoteNumber":77,"Velocity":67,"Duration":115384,"SoundDuration":115384,"Delta":212383508},{"NoteNumber":65,"Velocity":56,"Duration":115384,"SoundDuration":115384,"Delta":212498892},{"NoteNumber":68,"Velocity":60,"Duration":115384,"SoundDuration":115384,"Delta":212614277},{"NoteNumber":73,"Velocity":64,"Duration":115384,"SoundDuration":115384,"Delta":212729661},{"NoteNumber":77,"Velocity":70,"Duration":229603,"SoundDuration":229603,"Delta":212845046},{"NoteNumber":89,"Velocity":72,"Duration":114218,"SoundDuration":114218,"Delta":212960430},{"NoteNumber":78,"Velocity":75,"Duration":227272,"SoundDuration":227272,"Delta":213074649},{"NoteNumber":87,"Velocity":75,"Duration":113636,"SoundDuration":113636,"Delta":213074649},{"NoteNumber":85,"Velocity":71,"Duration":113636,"SoundDuration":113636,"Delta":213188285},{"NoteNumber":80,"Velocity":59,"Duration":469136,"SoundDuration":469136,"Delta":213301922},{"NoteNumber":84,"Velocity":75,"Duration":228143,"SoundDuration":228143,"Delta":213301922},{"NoteNumber":56,"Velocity":44,"Duration":114507,"SoundDuration":114507,"Delta":213415558},{"NoteNumber":85,"Velocity":70,"Duration":114942,"SoundDuration":114942,"Delta":213530065},{"NoteNumber":58,"Velocity":46,"Duration":114942,"SoundDuration":114942,"Delta":213530065},{"NoteNumber":87,"Velocity":70,"Duration":126050,"SoundDuration":126050,"Delta":213645007},{"NoteNumber":60,"Velocity":48,"Duration":126050,"SoundDuration":126050,"Delta":213645007},{"NoteNumber":80,"Velocity":66,"Duration":461537,"SoundDuration":461537,"Delta":213771058},{"NoteNumber":77,"Velocity":57,"Duration":576922,"SoundDuration":576922,"Delta":213771058},{"NoteNumber":61,"Velocity":50,"Duration":115384,"SoundDuration":115384,"Delta":213771058},{"NoteNumber":53,"Velocity":43,"Duration":115384,"SoundDuration":115384,"Delta":213886442},{"NoteNumber":56,"Velocity":45,"Duration":115384,"SoundDuration":115384,"Delta":214001827},{"NoteNumber":61,"Velocity":45,"Duration":115384,"SoundDuration":115384,"Delta":214117211},{"NoteNumber":53,"Velocity":73,"Duration":115384,"SoundDuration":115384,"Delta":214232596},{"NoteNumber":77,"Velocity":66,"Duration":115384,"SoundDuration":115384,"Delta":214347980},{"NoteNumber":75,"Velocity":65,"Duration":115384,"SoundDuration":115384,"Delta":214463365},{"NoteNumber":54,"Velocity":75,"Duration":115384,"SoundDuration":115384,"Delta":214463365},{"NoteNumber":73,"Velocity":63,"Duration":134529,"SoundDuration":134529,"Delta":214578749},{"NoteNumber":72,"Velocity":62,"Duration":114942,"SoundDuration":114942,"Delta":214713279},{"NoteNumber":56,"Velocity":78,"Duration":574712,"SoundDuration":574712,"Delta":214713279},{"NoteNumber":70,"Velocity":61,"Duration":114942,"SoundDuration":114942,"Delta":214828221},{"NoteNumber":68,"Velocity":59,"Duration":114942,"SoundDuration":114942,"Delta":214943164},{"NoteNumber":66,"Velocity":58,"Duration":114942,"SoundDuration":114942,"Delta":215058106},{"NoteNumber":65,"Velocity":69,"Duration":113026,"SoundDuration":113026,"Delta":215173049},{"NoteNumber":77,"Velocity":75,"Duration":114942,"SoundDuration":114942,"Delta":215173049},{"NoteNumber":65,"Velocity":56,"Duration":114942,"SoundDuration":114942,"Delta":215287991},{"NoteNumber":78,"Velocity":80,"Duration":114942,"SoundDuration":114942,"Delta":215402934},{"NoteNumber":63,"Velocity":56,"Duration":114942,"SoundDuration":114942,"Delta":215402934},{"NoteNumber":61,"Velocity":56,"Duration":135746,"SoundDuration":135746,"Delta":215517876},{"NoteNumber":80,"Velocity":83,"Duration":574712,"SoundDuration":574712,"Delta":215653623},{"NoteNumber":60,"Velocity":56,"Duration":114942,"SoundDuration":114942,"Delta":215653623},{"NoteNumber":68,"Velocity":62,"Duration":114942,"SoundDuration":114942,"Delta":215768565},{"NoteNumber":58,"Velocity":56,"Duration":114942,"SoundDuration":114942,"Delta":215768565},{"NoteNumber":70,"Velocity":62,"Duration":114942,"SoundDuration":114942,"Delta":215883508},{"NoteNumber":56,"Velocity":56,"Duration":114942,"SoundDuration":114942,"Delta":215883508},{"NoteNumber":72,"Velocity":62,"Duration":114942,"SoundDuration":114942,"Delta":215998450},{"NoteNumber":54,"Velocity":56,"Duration":114942,"SoundDuration":114942,"Delta":215998450},{"NoteNumber":74,"Velocity":62,"Duration":229884,"SoundDuration":229884,"Delta":216113393},{"NoteNumber":53,"Velocity":56,"Duration":229884,"SoundDuration":229884,"Delta":216113393},{"NoteNumber":77,"Velocity":62,"Duration":114942,"SoundDuration":114942,"Delta":216228335},{"NoteNumber":75,"Velocity":62,"Duration":114942,"SoundDuration":114942,"Delta":216343278},{"NoteNumber":70,"Velocity":62,"Duration":238399,"SoundDuration":238399,"Delta":216343278},{"NoteNumber":56,"Velocity":56,"Duration":238399,"SoundDuration":238399,"Delta":216343278},{"NoteNumber":74,"Velocity":62,"Duration":123456,"SoundDuration":123456,"Delta":216458220},{"NoteNumber":70,"Velocity":56,"Duration":114942,"SoundDuration":114942,"Delta":216581677},{"NoteNumber":75,"Velocity":62,"Duration":459769,"SoundDuration":459769,"Delta":216581677},{"NoteNumber":54,"Velocity":56,"Duration":110153,"SoundDuration":110153,"Delta":216581677},{"NoteNumber":54,"Velocity":56,"Duration":114942,"SoundDuration":114942,"Delta":216696619},{"NoteNumber":58,"Velocity":56,"Duration":114942,"SoundDuration":114942,"Delta":216811562},{"NoteNumber":63,"Velocity":56,"Duration":114942,"SoundDuration":114942,"Delta":216926504},{"NoteNumber":66,"Velocity":66,"Duration":115384,"SoundDuration":115384,"Delta":217041447},{"NoteNumber":90,"Velocity":78,"Duration":113367,"SoundDuration":113367,"Delta":217156831},{"NoteNumber":89,"Velocity":78,"Duration":112359,"SoundDuration":112359,"Delta":217270199},{"NoteNumber":68,"Velocity":78,"Duration":112359,"SoundDuration":112359,"Delta":217270199},{"NoteNumber":87,"Velocity":76,"Duration":112359,"SoundDuration":112359,"Delta":217382559},{"NoteNumber":86,"Velocity":74,"Duration":114942,"SoundDuration":114942,"Delta":217494918},{"NoteNumber":70,"Velocity":74,"Duration":465243,"SoundDuration":465243,"Delta":217494918},{"NoteNumber":83,"Velocity":72,"Duration":114942,"SoundDuration":114942,"Delta":217609861},{"NoteNumber":62,"Velocity":56,"Duration":114942,"SoundDuration":114942,"Delta":217609861},{"NoteNumber":82,"Velocity":70,"Duration":116310,"SoundDuration":116310,"Delta":217724803},{"NoteNumber":63,"Velocity":56,"Duration":116310,"SoundDuration":116310,"Delta":217724803},{"NoteNumber":80,"Velocity":68,"Duration":119047,"SoundDuration":119047,"Delta":217841114},{"NoteNumber":65,"Velocity":56,"Duration":119047,"SoundDuration":119047,"Delta":217841114},{"NoteNumber":70,"Velocity":66,"Duration":229007,"SoundDuration":229007,"Delta":217960162},{"NoteNumber":78,"Velocity":74,"Duration":458014,"SoundDuration":458014,"Delta":217960162},{"NoteNumber":63,"Velocity":56,"Duration":114503,"SoundDuration":114503,"Delta":217960162},{"NoteNumber":54,"Velocity":56,"Duration":114503,"SoundDuration":114503,"Delta":218074665},{"NoteNumber":66,"Velocity":66,"Duration":343511,"SoundDuration":343511,"Delta":218189169},{"NoteNumber":58,"Velocity":56,"Duration":114503,"SoundDuration":114503,"Delta":218189169},{"NoteNumber":51,"Velocity":56,"Duration":114503,"SoundDuration":114503,"Delta":218303673},{"NoteNumber":54,"Velocity":64,"Duration":114503,"SoundDuration":114503,"Delta":218418177},{"NoteNumber":78,"Velocity":74,"Duration":114503,"SoundDuration":114503,"Delta":218532680},{"NoteNumber":77,"Velocity":72,"Duration":114503,"SoundDuration":114503,"Delta":218647184},{"NoteNumber":56,"Velocity":64,"Duration":114503,"SoundDuration":114503,"Delta":218647184},{"NoteNumber":75,"Velocity":71,"Duration":135746,"SoundDuration":135746,"Delta":218761688},{"NoteNumber":74,"Velocity":70,"Duration":114503,"SoundDuration":114503,"Delta":218897434},{"NoteNumber":58,"Velocity":64,"Duration":572518,"SoundDuration":572518,"Delta":218897434},{"NoteNumber":71,"Velocity":68,"Duration":114503,"SoundDuration":114503,"Delta":219011938},{"NoteNumber":70,"Velocity":67,"Duration":114503,"SoundDuration":114503,"Delta":219126442},{"NoteNumber":68,"Velocity":65,"Duration":114503,"SoundDuration":114503,"Delta":219240946},{"NoteNumber":66,"Velocity":69,"Duration":114503,"SoundDuration":114503,"Delta":219355449},{"NoteNumber":78,"Velocity":78,"Duration":114503,"SoundDuration":114503,"Delta":219355449},{"NoteNumber":54,"Velocity":56,"Duration":114503,"SoundDuration":114503,"Delta":219469953},{"NoteNumber":80,"Velocity":83,"Duration":114503,"SoundDuration":114503,"Delta":219584457},{"NoteNumber":53,"Velocity":56,"Duration":114503,"SoundDuration":114503,"Delta":219584457},{"NoteNumber":51,"Velocity":56,"Duration":135746,"SoundDuration":135746,"Delta":219698961},{"NoteNumber":82,"Velocity":88,"Duration":571222,"SoundDuration":571222,"Delta":219834707},{"NoteNumber":50,"Velocity":56,"Duration":114503,"SoundDuration":114503,"Delta":219834707},{"NoteNumber":47,"Velocity":56,"Duration":114503,"SoundDuration":114503,"Delta":219949211},{"NoteNumber":46,"Velocity":56,"Duration":114503,"SoundDuration":114503,"Delta":220063715},{"NoteNumber":44,"Velocity":56,"Duration":114503,"SoundDuration":114503,"Delta":220178218},{"NoteNumber":43,"Velocity":64,"Duration":113207,"SoundDuration":113207,"Delta":220292722},{"NoteNumber":79,"Velocity":66,"Duration":113207,"SoundDuration":113207,"Delta":220405930},{"NoteNumber":77,"Velocity":65,"Duration":113207,"SoundDuration":113207,"Delta":220519137},{"NoteNumber":44,"Velocity":64,"Duration":113207,"SoundDuration":113207,"Delta":220519137},{"NoteNumber":75,"Velocity":65,"Duration":113207,"SoundDuration":113207,"Delta":220632345},{"NoteNumber":87,"Velocity":76,"Duration":113207,"SoundDuration":113207,"Delta":220745552},{"NoteNumber":46,"Velocity":69,"Duration":113207,"SoundDuration":113207,"Delta":220745552},{"NoteNumber":83,"Velocity":65,"Duration":113207,"SoundDuration":113207,"Delta":220858760},{"NoteNumber":82,"Velocity":65,"Duration":113207,"SoundDuration":113207,"Delta":220971967},{"NoteNumber":47,"Velocity":74,"Duration":113207,"SoundDuration":113207,"Delta":220971967},{"NoteNumber":80,"Velocity":65,"Duration":136363,"SoundDuration":136363,"Delta":221085175},{"NoteNumber":92,"Velocity":80,"Duration":113207,"SoundDuration":113207,"Delta":221221538},{"NoteNumber":59,"Velocity":77,"Duration":591741,"SoundDuration":591741,"Delta":221221538},{"NoteNumber":89,"Velocity":67,"Duration":113207,"SoundDuration":113207,"Delta":221334746},{"NoteNumber":87,"Velocity":68,"Duration":113207,"SoundDuration":113207,"Delta":221447953},{"NoteNumber":86,"Velocity":68,"Duration":137614,"SoundDuration":137614,"Delta":221561161},{"NoteNumber":92,"Velocity":87,"Duration":572518,"SoundDuration":572518,"Delta":221698776},{"NoteNumber":56,"Velocity":56,"Duration":114503,"SoundDuration":114503,"Delta":221813279},{"NoteNumber":54,"Velocity":56,"Duration":114503,"SoundDuration":114503,"Delta":221927783},{"NoteNumber":53,"Velocity":56,"Duration":114503,"SoundDuration":114503,"Delta":222042287},{"NoteNumber":51,"Velocity":56,"Duration":458015,"SoundDuration":458015,"Delta":222156791},{"NoteNumber":58,"Velocity":56,"Duration":916090,"SoundDuration":916090,"Delta":222156791},{"NoteNumber":80,"Velocity":70,"Duration":114503,"SoundDuration":114503,"Delta":222271294},{"NoteNumber":78,"Velocity":70,"Duration":114503,"SoundDuration":114503,"Delta":222385798},{"NoteNumber":77,"Velocity":70,"Duration":114503,"SoundDuration":114503,"Delta":222500302},{"NoteNumber":80,"Velocity":82,"Duration":113207,"SoundDuration":113207,"Delta":222614806},{"NoteNumber":50,"Velocity":56,"Duration":458075,"SoundDuration":458075,"Delta":222614806},{"NoteNumber":77,"Velocity":69,"Duration":113207,"SoundDuration":113207,"Delta":222728013},{"NoteNumber":75,"Velocity":69,"Duration":115829,"SoundDuration":115829,"Delta":222841221},{"NoteNumber":74,"Velocity":69,"Duration":115830,"SoundDuration":115830,"Delta":222957051},{"NoteNumber":77,"Velocity":81,"Duration":117077,"SoundDuration":117077,"Delta":223072881},{"NoteNumber":73,"Velocity":50,"Duration":78102,"SoundDuration":78102,"Delta":223072881},{"NoteNumber":75,"Velocity":44,"Duration":77885,"SoundDuration":77885,"Delta":223150983},{"NoteNumber":70,"Velocity":70,"Duration":116554,"SoundDuration":116554,"Delta":223189958},{"NoteNumber":73,"Velocity":50,"Duration":77643,"SoundDuration":77643,"Delta":223228869},{"NoteNumber":69,"Velocity":70,"Duration":116013,"SoundDuration":116013,"Delta":223306513},{"NoteNumber":75,"Velocity":46,"Duration":77403,"SoundDuration":77403,"Delta":223306513},{"NoteNumber":73,"Velocity":52,"Duration":77164,"SoundDuration":77164,"Delta":223383916},{"NoteNumber":70,"Velocity":70,"Duration":115337,"SoundDuration":115337,"Delta":223422526},{"NoteNumber":75,"Velocity":47,"Duration":76783,"SoundDuration":76783,"Delta":223461080},{"NoteNumber":82,"Velocity":85,"Duration":114068,"SoundDuration":114068,"Delta":223537863},{"NoteNumber":73,"Velocity":53,"Duration":76045,"SoundDuration":76045,"Delta":223537863},{"NoteNumber":75,"Velocity":45,"Duration":76045,"SoundDuration":76045,"Delta":223613909},{"NoteNumber":77,"Velocity":72,"Duration":114651,"SoundDuration":114651,"Delta":223651932},{"NoteNumber":73,"Velocity":53,"Duration":76628,"SoundDuration":76628,"Delta":223689955},{"NoteNumber":76,"Velocity":72,"Duration":115388,"SoundDuration":115388,"Delta":223766583},{"NoteNumber":75,"Velocity":47,"Duration":76628,"SoundDuration":76628,"Delta":223766583},{"NoteNumber":73,"Velocity":54,"Duration":77519,"SoundDuration":77519,"Delta":223843211},{"NoteNumber":77,"Velocity":72,"Duration":116278,"SoundDuration":116278,"Delta":223881971},{"NoteNumber":75,"Velocity":49,"Duration":77519,"SoundDuration":77519,"Delta":223920731},{"NoteNumber":89,"Velocity":85,"Duration":114068,"SoundDuration":114068,"Delta":223998250},{"NoteNumber":73,"Velocity":56,"Duration":76045,"SoundDuration":76045,"Delta":223998250},{"NoteNumber":75,"Velocity":49,"Duration":77238,"SoundDuration":77238,"Delta":224074296},{"NoteNumber":82,"Velocity":73,"Duration":117647,"SoundDuration":117647,"Delta":224112318},{"NoteNumber":73,"Velocity":56,"Duration":78431,"SoundDuration":78431,"Delta":224151534},{"NoteNumber":81,"Velocity":73,"Duration":114942,"SoundDuration":114942,"Delta":224229965},{"NoteNumber":75,"Velocity":51,"Duration":76628,"SoundDuration":76628,"Delta":224229965},{"NoteNumber":73,"Velocity":56,"Duration":76628,"SoundDuration":76628,"Delta":224306594},{"NoteNumber":82,"Velocity":73,"Duration":114723,"SoundDuration":114723,"Delta":224344908},{"NoteNumber":75,"Velocity":50,"Duration":76408,"SoundDuration":76408,"Delta":224383222},{"NoteNumber":94,"Velocity":87,"Duration":115656,"SoundDuration":115656,"Delta":224459631},{"NoteNumber":73,"Velocity":56,"Duration":76795,"SoundDuration":76795,"Delta":224459631},{"NoteNumber":75,"Velocity":50,"Duration":78042,"SoundDuration":78042,"Delta":224536426},{"NoteNumber":92,"Velocity":76,"Duration":118509,"SoundDuration":118509,"Delta":224575288},{"NoteNumber":73,"Velocity":56,"Duration":79327,"SoundDuration":79327,"Delta":224614469},{"NoteNumber":90,"Velocity":76,"Duration":121525,"SoundDuration":121525,"Delta":224693797},{"NoteNumber":75,"Velocity":51,"Duration":60367,"SoundDuration":60367,"Delta":224693797},{"NoteNumber":73,"Velocity":56,"Duration":61158,"SoundDuration":61158,"Delta":224754164},{"NoteNumber":89,"Velocity":76,"Duration":135746,"SoundDuration":135746,"Delta":224815323},{"NoteNumber":71,"Velocity":48,"Duration":67873,"SoundDuration":67873,"Delta":224815323},{"NoteNumber":73,"Velocity":48,"Duration":67873,"SoundDuration":67873,"Delta":224883196},{"NoteNumber":90,"Velocity":87,"Duration":463320,"SoundDuration":463320,"Delta":224951069},{"NoteNumber":75,"Velocity":61,"Duration":939510,"SoundDuration":939510,"Delta":224951069},{"NoteNumber":47,"Velocity":87,"Duration":119047,"SoundDuration":119047,"Delta":225414389},{"NoteNumber":59,"Velocity":96,"Duration":917811,"SoundDuration":917811,"Delta":225890579},{"NoteNumber":75,"Velocity":87,"Duration":114068,"SoundDuration":114068,"Delta":226352117},{"NoteNumber":65,"Velocity":67,"Duration":114068,"SoundDuration":114068,"Delta":226580254},{"NoteNumber":73,"Velocity":80,"Duration":114068,"SoundDuration":114068,"Delta":226580254},{"NoteNumber":63,"Velocity":66,"Duration":114503,"SoundDuration":114503,"Delta":226808391},{"NoteNumber":71,"Velocity":78,"Duration":114503,"SoundDuration":114503,"Delta":226808391},{"NoteNumber":86,"Velocity":91,"Duration":114503,"SoundDuration":114503,"Delta":226808391},{"NoteNumber":61,"Velocity":62,"Duration":114503,"SoundDuration":114503,"Delta":227037399},{"NoteNumber":70,"Velocity":74,"Duration":114503,"SoundDuration":114503,"Delta":227037399},{"NoteNumber":59,"Velocity":60,"Duration":114503,"SoundDuration":114503,"Delta":227266406},{"NoteNumber":68,"Velocity":71,"Duration":114503,"SoundDuration":114503,"Delta":227266406},{"NoteNumber":87,"Velocity":96,"Duration":928804,"SoundDuration":928804,"Delta":227266406},{"NoteNumber":58,"Velocity":57,"Duration":114503,"SoundDuration":114503,"Delta":227495414},{"NoteNumber":66,"Velocity":68,"Duration":114503,"SoundDuration":114503,"Delta":227495414},{"NoteNumber":63,"Velocity":72,"Duration":935959,"SoundDuration":935959,"Delta":227735440},{"NoteNumber":71,"Velocity":85,"Duration":935959,"SoundDuration":935959,"Delta":227735440},{"NoteNumber":44,"Velocity":87,"Duration":119047,"SoundDuration":119047,"Delta":228195210},{"NoteNumber":56,"Velocity":96,"Duration":917811,"SoundDuration":917811,"Delta":228671400},{"NoteNumber":63,"Velocity":70,"Duration":114068,"SoundDuration":114068,"Delta":229132938},{"NoteNumber":71,"Velocity":87,"Duration":114068,"SoundDuration":114068,"Delta":229132938},{"NoteNumber":61,"Velocity":67,"Duration":114068,"SoundDuration":114068,"Delta":229361075},{"NoteNumber":70,"Velocity":80,"Duration":114068,"SoundDuration":114068,"Delta":229361075},{"NoteNumber":59,"Velocity":66,"Duration":114503,"SoundDuration":114503,"Delta":229589212},{"NoteNumber":68,"Velocity":78,"Duration":114503,"SoundDuration":114503,"Delta":229589212},{"NoteNumber":82,"Velocity":91,"Duration":114503,"SoundDuration":114503,"Delta":229589212},{"NoteNumber":58,"Velocity":62,"Duration":114503,"SoundDuration":114503,"Delta":229818220},{"NoteNumber":66,"Velocity":74,"Duration":114503,"SoundDuration":114503,"Delta":229818220},{"NoteNumber":56,"Velocity":60,"Duration":114503,"SoundDuration":114503,"Delta":230047227},{"NoteNumber":65,"Velocity":71,"Duration":114503,"SoundDuration":114503,"Delta":230047227},{"NoteNumber":83,"Velocity":96,"Duration":928804,"SoundDuration":928804,"Delta":230047227},{"NoteNumber":54,"Velocity":57,"Duration":114503,"SoundDuration":114503,"Delta":230276235},{"NoteNumber":63,"Velocity":68,"Duration":114503,"SoundDuration":114503,"Delta":230276235},{"NoteNumber":59,"Velocity":72,"Duration":935959,"SoundDuration":935959,"Delta":230516262},{"NoteNumber":68,"Velocity":85,"Duration":935959,"SoundDuration":935959,"Delta":230516262},{"NoteNumber":41,"Velocity":87,"Duration":119047,"SoundDuration":119047,"Delta":230976032},{"NoteNumber":53,"Velocity":96,"Duration":917811,"SoundDuration":917811,"Delta":231452222},{"NoteNumber":59,"Velocity":70,"Duration":114068,"SoundDuration":114068,"Delta":231913760},{"NoteNumber":68,"Velocity":87,"Duration":114068,"SoundDuration":114068,"Delta":231913760},{"NoteNumber":58,"Velocity":67,"Duration":114068,"SoundDuration":114068,"Delta":232141897},{"NoteNumber":66,"Velocity":80,"Duration":114068,"SoundDuration":114068,"Delta":232141897},{"NoteNumber":56,"Velocity":66,"Duration":114503,"SoundDuration":114503,"Delta":232370034},{"NoteNumber":65,"Velocity":78,"Duration":114503,"SoundDuration":114503,"Delta":232370034},{"NoteNumber":82,"Velocity":91,"Duration":114503,"SoundDuration":114503,"Delta":232370034},{"NoteNumber":58,"Velocity":62,"Duration":114503,"SoundDuration":114503,"Delta":232599041},{"NoteNumber":66,"Velocity":74,"Duration":114503,"SoundDuration":114503,"Delta":232599041},{"NoteNumber":56,"Velocity":60,"Duration":114503,"SoundDuration":114503,"Delta":232828049},{"NoteNumber":65,"Velocity":71,"Duration":114503,"SoundDuration":114503,"Delta":232828049},{"NoteNumber":83,"Velocity":96,"Duration":928804,"SoundDuration":928804,"Delta":232828049},{"NoteNumber":54,"Velocity":57,"Duration":114503,"SoundDuration":114503,"Delta":233057056},{"NoteNumber":63,"Velocity":68,"Duration":114503,"SoundDuration":114503,"Delta":233057056},{"NoteNumber":53,"Velocity":67,"Duration":114942,"SoundDuration":114942,"Delta":233297083},{"NoteNumber":62,"Velocity":79,"Duration":114942,"SoundDuration":114942,"Delta":233297083},{"NoteNumber":63,"Velocity":71,"Duration":114942,"SoundDuration":114942,"Delta":233526968},{"NoteNumber":54,"Velocity":60,"Duration":114942,"SoundDuration":114942,"Delta":233526968},{"NoteNumber":82,"Velocity":96,"Duration":459770,"SoundDuration":459770,"Delta":233756853},{"NoteNumber":53,"Velocity":66,"Duration":114942,"SoundDuration":114942,"Delta":233756853},{"NoteNumber":62,"Velocity":78,"Duration":114942,"SoundDuration":114942,"Delta":233756853},{"NoteNumber":51,"Velocity":60,"Duration":114942,"SoundDuration":114942,"Delta":233986738},{"NoteNumber":60,"Velocity":71,"Duration":114942,"SoundDuration":114942,"Delta":233986738},{"NoteNumber":80,"Velocity":96,"Duration":1391360,"SoundDuration":1391360,"Delta":234216623},{"NoteNumber":50,"Velocity":67,"Duration":114942,"SoundDuration":114942,"Delta":234216623},{"NoteNumber":58,"Velocity":79,"Duration":114942,"SoundDuration":114942,"Delta":234216623},{"NoteNumber":51,"Velocity":60,"Duration":114942,"SoundDuration":114942,"Delta":234446508},{"NoteNumber":60,"Velocity":71,"Duration":114942,"SoundDuration":114942,"Delta":234446508},{"NoteNumber":53,"Velocity":67,"Duration":114942,"SoundDuration":114942,"Delta":234676393},{"NoteNumber":62,"Velocity":79,"Duration":114942,"SoundDuration":114942,"Delta":234676393},{"NoteNumber":63,"Velocity":71,"Duration":114942,"SoundDuration":114942,"Delta":234906278},{"NoteNumber":54,"Velocity":60,"Duration":114942,"SoundDuration":114942,"Delta":234906278},{"NoteNumber":55,"Velocity":67,"Duration":114942,"SoundDuration":114942,"Delta":235136163},{"NoteNumber":64,"Velocity":79,"Duration":114942,"SoundDuration":114942,"Delta":235136163},{"NoteNumber":65,"Velocity":71,"Duration":120967,"SoundDuration":120967,"Delta":235366048},{"NoteNumber":56,"Velocity":60,"Duration":120967,"SoundDuration":120967,"Delta":235366048},{"NoteNumber":92,"Velocity":109,"Duration":686159,"SoundDuration":686159,"Delta":235607983},{"NoteNumber":58,"Velocity":65,"Duration":114068,"SoundDuration":114068,"Delta":235607983},{"NoteNumber":66,"Velocity":77,"Duration":114068,"SoundDuration":114068,"Delta":235607983},{"NoteNumber":56,"Velocity":60,"Duration":114068,"SoundDuration":114068,"Delta":235836120},{"NoteNumber":65,"Velocity":71,"Duration":114068,"SoundDuration":114068,"Delta":235836120},{"NoteNumber":54,"Velocity":65,"Duration":114942,"SoundDuration":114942,"Delta":236064257},{"NoteNumber":63,"Velocity":77,"Duration":114942,"SoundDuration":114942,"Delta":236064257},{"NoteNumber":65,"Velocity":71,"Duration":114942,"SoundDuration":114942,"Delta":236294142},{"NoteNumber":56,"Velocity":60,"Duration":114942,"SoundDuration":114942,"Delta":236294142},{"NoteNumber":90,"Velocity":99,"Duration":114942,"SoundDuration":114942,"Delta":236524027},{"NoteNumber":58,"Velocity":66,"Duration":114942,"SoundDuration":114942,"Delta":236524027},{"NoteNumber":66,"Velocity":78,"Duration":114942,"SoundDuration":114942,"Delta":236524027},{"NoteNumber":59,"Velocity":60,"Duration":114942,"SoundDuration":114942,"Delta":236753912},{"NoteNumber":68,"Velocity":71,"Duration":114942,"SoundDuration":114942,"Delta":236753912},{"NoteNumber":89,"Velocity":99,"Duration":114942,"SoundDuration":114942,"Delta":236983797},{"NoteNumber":69,"Velocity":78,"Duration":114942,"SoundDuration":114942,"Delta":236983797},{"NoteNumber":65,"Velocity":66,"Duration":114942,"SoundDuration":114942,"Delta":236983797},{"NoteNumber":66,"Velocity":60,"Duration":114942,"SoundDuration":114942,"Delta":237213682},{"NoteNumber":70,"Velocity":71,"Duration":114942,"SoundDuration":114942,"Delta":237213682},{"NoteNumber":87,"Velocity":107,"Duration":115829,"SoundDuration":115829,"Delta":237443567},{"NoteNumber":71,"Velocity":79,"Duration":115829,"SoundDuration":115829,"Delta":237443567},{"NoteNumber":68,"Velocity":67,"Duration":115829,"SoundDuration":115829,"Delta":237443567},{"NoteNumber":66,"Velocity":60,"Duration":115829,"SoundDuration":115829,"Delta":237675227},{"NoteNumber":70,"Velocity":71,"Duration":115829,"SoundDuration":115829,"Delta":237675227},{"NoteNumber":86,"Velocity":99,"Duration":116731,"SoundDuration":116731,"Delta":237906887},{"NoteNumber":59,"Velocity":67,"Duration":116731,"SoundDuration":116731,"Delta":237906887},{"NoteNumber":68,"Velocity":79,"Duration":116731,"SoundDuration":116731,"Delta":237906887},{"NoteNumber":66,"Velocity":71,"Duration":120967,"SoundDuration":120967,"Delta":238140350},{"NoteNumber":58,"Velocity":60,"Duration":120967,"SoundDuration":120967,"Delta":238140350},{"NoteNumber":65,"Velocity":69,"Duration":114503,"SoundDuration":114503,"Delta":238382286},{"NoteNumber":68,"Velocity":82,"Duration":114503,"SoundDuration":114503,"Delta":238382286},{"NoteNumber":34,"Velocity":84,"Duration":1383132,"SoundDuration":1383132,"Delta":238382286},{"NoteNumber":46,"Velocity":99,"Duration":1383132,"SoundDuration":1383132,"Delta":238382286},{"NoteNumber":63,"Velocity":60,"Duration":114503,"SoundDuration":114503,"Delta":238611293},{"NoteNumber":66,"Velocity":71,"Duration":114503,"SoundDuration":114503,"Delta":238611293},{"NoteNumber":56,"Velocity":68,"Duration":114503,"SoundDuration":114503,"Delta":238840301},{"NoteNumber":65,"Velocity":81,"Duration":114503,"SoundDuration":114503,"Delta":238840301},{"NoteNumber":58,"Velocity":60,"Duration":114503,"SoundDuration":114503,"Delta":239069308},{"NoteNumber":66,"Velocity":71,"Duration":114503,"SoundDuration":114503,"Delta":239069308},{"NoteNumber":56,"Velocity":68,"Duration":114503,"SoundDuration":114503,"Delta":239298316},{"NoteNumber":65,"Velocity":80,"Duration":114503,"SoundDuration":114503,"Delta":239298316},{"NoteNumber":54,"Velocity":60,"Duration":119047,"SoundDuration":119047,"Delta":239527323},{"NoteNumber":63,"Velocity":71,"Duration":119047,"SoundDuration":119047,"Delta":239527323},{"NoteNumber":53,"Velocity":66,"Duration":114068,"SoundDuration":114068,"Delta":239765418},{"NoteNumber":62,"Velocity":78,"Duration":114068,"SoundDuration":114068,"Delta":239765418},{"NoteNumber":44,"Velocity":99,"Duration":1375059,"SoundDuration":1375059,"Delta":239765418},{"NoteNumber":32,"Velocity":84,"Duration":1375059,"SoundDuration":1375059,"Delta":239765418},{"NoteNumber":54,"Velocity":60,"Duration":114068,"SoundDuration":114068,"Delta":239993555},{"NoteNumber":63,"Velocity":71,"Duration":114068,"SoundDuration":114068,"Delta":239993555},{"NoteNumber":62,"Velocity":68,"Duration":114068,"SoundDuration":114068,"Delta":240221692},{"NoteNumber":65,"Velocity":81,"Duration":114068,"SoundDuration":114068,"Delta":240221692},{"NoteNumber":63,"Velocity":60,"Duration":114068,"SoundDuration":114068,"Delta":240449829},{"NoteNumber":66,"Velocity":71,"Duration":114068,"SoundDuration":114068,"Delta":240449829},{"NoteNumber":65,"Velocity":68,"Duration":114068,"SoundDuration":114068,"Delta":240677966},{"NoteNumber":68,"Velocity":80,"Duration":114068,"SoundDuration":114068,"Delta":240677966},{"NoteNumber":66,"Velocity":71,"Duration":117187,"SoundDuration":117187,"Delta":240906103},{"NoteNumber":70,"Velocity":60,"Duration":117187,"SoundDuration":117187,"Delta":240906103},{"NoteNumber":63,"Velocity":67,"Duration":114068,"SoundDuration":114068,"Delta":241140478},{"NoteNumber":72,"Velocity":79,"Duration":114068,"SoundDuration":114068,"Delta":241140478},{"NoteNumber":32,"Velocity":84,"Duration":680993,"SoundDuration":680993,"Delta":241140478},{"NoteNumber":44,"Velocity":99,"Duration":680993,"SoundDuration":680993,"Delta":241140478},{"NoteNumber":65,"Velocity":60,"Duration":114068,"SoundDuration":114068,"Delta":241368615},{"NoteNumber":74,"Velocity":71,"Duration":114068,"SoundDuration":114068,"Delta":241368615},{"NoteNumber":66,"Velocity":67,"Duration":112359,"SoundDuration":112359,"Delta":241596752},{"NoteNumber":75,"Velocity":79,"Duration":112359,"SoundDuration":112359,"Delta":241596752},{"NoteNumber":68,"Velocity":60,"Duration":112359,"SoundDuration":112359,"Delta":241821471},{"NoteNumber":77,"Velocity":71,"Duration":112359,"SoundDuration":112359,"Delta":241821471},{"NoteNumber":70,"Velocity":66,"Duration":114503,"SoundDuration":114503,"Delta":242046190},{"NoteNumber":78,"Velocity":78,"Duration":114503,"SoundDuration":114503,"Delta":242046190},{"NoteNumber":42,"Velocity":99,"Duration":114503,"SoundDuration":114503,"Delta":242046190},{"NoteNumber":30,"Velocity":84,"Duration":114503,"SoundDuration":114503,"Delta":242046190},{"NoteNumber":71,"Velocity":60,"Duration":114503,"SoundDuration":114503,"Delta":242275198},{"NoteNumber":79,"Velocity":71,"Duration":114503,"SoundDuration":114503,"Delta":242275198},{"NoteNumber":77,"Velocity":66,"Duration":116731,"SoundDuration":116731,"Delta":242504205},{"NoteNumber":80,"Velocity":78,"Duration":116731,"SoundDuration":116731,"Delta":242504205},{"NoteNumber":41,"Velocity":99,"Duration":116731,"SoundDuration":116731,"Delta":242504205},{"NoteNumber":29,"Velocity":84,"Duration":116731,"SoundDuration":116731,"Delta":242504205},{"NoteNumber":82,"Velocity":71,"Duration":116731,"SoundDuration":116731,"Delta":242737668},{"NoteNumber":78,"Velocity":60,"Duration":116731,"SoundDuration":116731,"Delta":242737668},{"NoteNumber":83,"Velocity":80,"Duration":115829,"SoundDuration":115829,"Delta":242971131},{"NoteNumber":80,"Velocity":68,"Duration":115829,"SoundDuration":115829,"Delta":242971131},{"NoteNumber":39,"Velocity":99,"Duration":115829,"SoundDuration":115829,"Delta":242971131},{"NoteNumber":27,"Velocity":84,"Duration":115829,"SoundDuration":115829,"Delta":242971131},{"NoteNumber":82,"Velocity":71,"Duration":115829,"SoundDuration":115829,"Delta":243202791},{"NoteNumber":78,"Velocity":60,"Duration":115829,"SoundDuration":115829,"Delta":243202791},{"NoteNumber":71,"Velocity":68,"Duration":113207,"SoundDuration":113207,"Delta":243434451},{"NoteNumber":80,"Velocity":81,"Duration":113207,"SoundDuration":113207,"Delta":243434451},{"NoteNumber":26,"Velocity":84,"Duration":113207,"SoundDuration":113207,"Delta":243434451},{"NoteNumber":38,"Velocity":99,"Duration":113207,"SoundDuration":113207,"Delta":243434451},{"NoteNumber":70,"Velocity":60,"Duration":113207,"SoundDuration":113207,"Delta":243660866},{"NoteNumber":78,"Velocity":71,"Duration":113207,"SoundDuration":113207,"Delta":243660866},{"NoteNumber":68,"Velocity":68,"Duration":114068,"SoundDuration":114068,"Delta":243887281},{"NoteNumber":75,"Velocity":80,"Duration":114068,"SoundDuration":114068,"Delta":243887281},{"NoteNumber":27,"Velocity":84,"Duration":114068,"SoundDuration":114068,"Delta":243887281},{"NoteNumber":39,"Velocity":99,"Duration":114068,"SoundDuration":114068,"Delta":243887281},{"NoteNumber":66,"Velocity":71,"Duration":114068,"SoundDuration":114068,"Delta":244115418},{"NoteNumber":58,"Velocity":60,"Duration":114068,"SoundDuration":114068,"Delta":244115418},{"NoteNumber":73,"Velocity":66,"Duration":115829,"SoundDuration":115829,"Delta":244343555},{"NoteNumber":65,"Velocity":78,"Duration":115829,"SoundDuration":115829,"Delta":244343555},{"NoteNumber":56,"Velocity":68,"Duration":115829,"SoundDuration":115829,"Delta":244343555},{"NoteNumber":63,"Velocity":71,"Duration":115829,"SoundDuration":115829,"Delta":244575215},{"NoteNumber":54,"Velocity":60,"Duration":115829,"SoundDuration":115829,"Delta":244575215},{"NoteNumber":72,"Velocity":66,"Duration":115829,"SoundDuration":115829,"Delta":244806875},{"NoteNumber":61,"Velocity":78,"Duration":115829,"SoundDuration":115829,"Delta":244806875},{"NoteNumber":53,"Velocity":68,"Duration":115829,"SoundDuration":115829,"Delta":244806875},{"NoteNumber":60,"Velocity":71,"Duration":115830,"SoundDuration":115830,"Delta":245038535},{"NoteNumber":51,"Velocity":60,"Duration":115830,"SoundDuration":115830,"Delta":245038535},{"NoteNumber":63,"Velocity":78,"Duration":1405716,"SoundDuration":1405716,"Delta":245270195},{"NoteNumber":49,"Velocity":66,"Duration":115830,"SoundDuration":115830,"Delta":245270195},{"NoteNumber":58,"Velocity":78,"Duration":115830,"SoundDuration":115830,"Delta":245270195},{"NoteNumber":57,"Velocity":71,"Duration":116731,"SoundDuration":116731,"Delta":245501863},{"NoteNumber":48,"Velocity":60,"Duration":116731,"SoundDuration":116731,"Delta":245501863},{"NoteNumber":46,"Velocity":60,"Duration":116731,"SoundDuration":116731,"Delta":245735326},{"NoteNumber":54,"Velocity":71,"Duration":116731,"SoundDuration":116731,"Delta":245735326},{"NoteNumber":44,"Velocity":60,"Duration":117187,"SoundDuration":117187,"Delta":245968884},{"NoteNumber":53,"Velocity":71,"Duration":117187,"SoundDuration":117187,"Delta":245968884},{"NoteNumber":42,"Velocity":60,"Duration":117187,"SoundDuration":117187,"Delta":246203259},{"NoteNumber":51,"Velocity":71,"Duration":117187,"SoundDuration":117187,"Delta":246203259},{"NoteNumber":41,"Velocity":60,"Duration":119521,"SoundDuration":119521,"Delta":246437822},{"NoteNumber":49,"Velocity":71,"Duration":119521,"SoundDuration":119521,"Delta":246437822},{"NoteNumber":81,"Velocity":71,"Duration":78125,"SoundDuration":78125,"Delta":246675912},{"NoteNumber":73,"Velocity":71,"Duration":117183,"SoundDuration":117183,"Delta":246675912},{"NoteNumber":51,"Velocity":71,"Duration":1387180,"SoundDuration":1387180,"Delta":246675912},{"NoteNumber":39,"Velocity":60,"Duration":1387180,"SoundDuration":1387180,"Delta":246675912},{"NoteNumber":82,"Velocity":65,"Duration":77969,"SoundDuration":77969,"Delta":246754037},{"NoteNumber":81,"Velocity":71,"Duration":77821,"SoundDuration":77821,"Delta":246832007},{"NoteNumber":82,"Velocity":66,"Duration":77696,"SoundDuration":77696,"Delta":246909828},{"NoteNumber":72,"Velocity":66,"Duration":116456,"SoundDuration":116456,"Delta":246909828},{"NoteNumber":81,"Velocity":71,"Duration":77519,"SoundDuration":77519,"Delta":246987524},{"NoteNumber":82,"Velocity":66,"Duration":77335,"SoundDuration":77335,"Delta":247065043},{"NoteNumber":81,"Velocity":71,"Duration":77219,"SoundDuration":77219,"Delta":247142379},{"NoteNumber":77,"Velocity":71,"Duration":115826,"SoundDuration":115826,"Delta":247142379},{"NoteNumber":82,"Velocity":66,"Duration":77067,"SoundDuration":77067,"Delta":247219599},{"NoteNumber":81,"Velocity":71,"Duration":76922,"SoundDuration":76922,"Delta":247296667},{"NoteNumber":82,"Velocity":65,"Duration":76801,"SoundDuration":76801,"Delta":247373590},{"NoteNumber":75,"Velocity":65,"Duration":115115,"SoundDuration":115115,"Delta":247373590},{"NoteNumber":81,"Velocity":71,"Duration":76628,"SoundDuration":76628,"Delta":247450392},{"NoteNumber":82,"Velocity":65,"Duration":76449,"SoundDuration":76449,"Delta":247527020},{"NoteNumber":81,"Velocity":71,"Duration":76303,"SoundDuration":76303,"Delta":247603469},{"NoteNumber":73,"Velocity":71,"Duration":114326,"SoundDuration":114326,"Delta":247603469},{"NoteNumber":82,"Velocity":64,"Duration":76045,"SoundDuration":76045,"Delta":247679772},{"NoteNumber":81,"Velocity":71,"Duration":76314,"SoundDuration":76314,"Delta":247755818},{"NoteNumber":82,"Velocity":67,"Duration":76661,"SoundDuration":76661,"Delta":247832132},{"NoteNumber":72,"Velocity":67,"Duration":115122,"SoundDuration":115122,"Delta":247832132},{"NoteNumber":81,"Velocity":71,"Duration":76986,"SoundDuration":76986,"Delta":247908794},{"NoteNumber":82,"Velocity":67,"Duration":77313,"SoundDuration":77313,"Delta":247985780},{"NoteNumber":81,"Velocity":71,"Duration":77519,"SoundDuration":77519,"Delta":248063093},{"NoteNumber":78,"Velocity":71,"Duration":116279,"SoundDuration":116279,"Delta":248063093},{"NoteNumber":24,"Velocity":64,"Duration":1375470,"SoundDuration":1375470,"Delta":248063093},{"NoteNumber":36,"Velocity":71,"Duration":77519,"SoundDuration":77519,"Delta":248063093},{"NoteNumber":82,"Velocity":66,"Duration":77519,"SoundDuration":77519,"Delta":248140613},{"NoteNumber":37,"Velocity":65,"Duration":77519,"SoundDuration":77519,"Delta":248140613},{"NoteNumber":81,"Velocity":71,"Duration":77515,"SoundDuration":77515,"Delta":248218132},{"NoteNumber":36,"Velocity":71,"Duration":77515,"SoundDuration":77515,"Delta":248218132},{"NoteNumber":79,"Velocity":67,"Duration":115829,"SoundDuration":115829,"Delta":248295648},{"NoteNumber":72,"Velocity":67,"Duration":115829,"SoundDuration":115829,"Delta":248295648},{"NoteNumber":37,"Velocity":66,"Duration":77219,"SoundDuration":77219,"Delta":248295648},{"NoteNumber":36,"Velocity":71,"Duration":77156,"SoundDuration":77156,"Delta":248372868},{"NoteNumber":81,"Velocity":67,"Duration":115469,"SoundDuration":115469,"Delta":248411478},{"NoteNumber":37,"Velocity":66,"Duration":76922,"SoundDuration":76922,"Delta":248450024},{"NoteNumber":75,"Velocity":74,"Duration":76801,"SoundDuration":76801,"Delta":248526947},{"NoteNumber":82,"Velocity":74,"Duration":1387388,"SoundDuration":1387388,"Delta":248526947},{"NoteNumber":36,"Velocity":71,"Duration":76801,"SoundDuration":76801,"Delta":248526947},{"NoteNumber":77,"Velocity":69,"Duration":76628,"SoundDuration":76628,"Delta":248603749},{"NoteNumber":37,"Velocity":66,"Duration":76628,"SoundDuration":76628,"Delta":248603749},{"NoteNumber":75,"Velocity":74,"Duration":76536,"SoundDuration":76536,"Delta":248680377},{"NoteNumber":36,"Velocity":71,"Duration":76536,"SoundDuration":76536,"Delta":248680377},{"NoteNumber":77,"Velocity":69,"Duration":76335,"SoundDuration":76335,"Delta":248756914},{"NoteNumber":37,"Velocity":67,"Duration":76335,"SoundDuration":76335,"Delta":248756914},{"NoteNumber":75,"Velocity":74,"Duration":76187,"SoundDuration":76187,"Delta":248833250},{"NoteNumber":36,"Velocity":71,"Duration":76187,"SoundDuration":76187,"Delta":248833250},{"NoteNumber":77,"Velocity":70,"Duration":76045,"SoundDuration":76045,"Delta":248909437},{"NoteNumber":37,"Velocity":66,"Duration":76045,"SoundDuration":76045,"Delta":248909437},{"NoteNumber":75,"Velocity":74,"Duration":75722,"SoundDuration":75722,"Delta":248985483},{"NoteNumber":36,"Velocity":71,"Duration":75722,"SoundDuration":75722,"Delta":248985483},{"NoteNumber":77,"Velocity":70,"Duration":75471,"SoundDuration":75471,"Delta":249061205},{"NoteNumber":37,"Velocity":67,"Duration":75471,"SoundDuration":75471,"Delta":249061205},{"NoteNumber":75,"Velocity":74,"Duration":75471,"SoundDuration":75471,"Delta":249136677},{"NoteNumber":36,"Velocity":71,"Duration":75471,"SoundDuration":75471,"Delta":249136677},{"NoteNumber":77,"Velocity":67,"Duration":75471,"SoundDuration":75471,"Delta":249212149},{"NoteNumber":37,"Velocity":66,"Duration":75471,"SoundDuration":75471,"Delta":249212149},{"NoteNumber":75,"Velocity":74,"Duration":75471,"SoundDuration":75471,"Delta":249287620},{"NoteNumber":36,"Velocity":71,"Duration":75471,"SoundDuration":75471,"Delta":249287620},{"NoteNumber":77,"Velocity":69,"Duration":75471,"SoundDuration":75471,"Delta":249363092},{"NoteNumber":37,"Velocity":66,"Duration":75471,"SoundDuration":75471,"Delta":249363092},{"NoteNumber":75,"Velocity":74,"Duration":75471,"SoundDuration":75471,"Delta":249438564},{"NoteNumber":36,"Velocity":71,"Duration":75471,"SoundDuration":75471,"Delta":249438564},{"NoteNumber":77,"Velocity":69,"Duration":75618,"SoundDuration":75618,"Delta":249514035},{"NoteNumber":37,"Velocity":68,"Duration":75618,"SoundDuration":75618,"Delta":249514035},{"NoteNumber":75,"Velocity":74,"Duration":76111,"SoundDuration":76111,"Delta":249589653},{"NoteNumber":36,"Velocity":71,"Duration":76111,"SoundDuration":76111,"Delta":249589653},{"NoteNumber":73,"Velocity":70,"Duration":117629,"SoundDuration":117629,"Delta":249665764},{"NoteNumber":34,"Velocity":68,"Duration":117629,"SoundDuration":117629,"Delta":249665764},{"NoteNumber":75,"Velocity":68,"Duration":130942,"SoundDuration":130942,"Delta":249783394},{"NoteNumber":36,"Velocity":68,"Duration":130942,"SoundDuration":130942,"Delta":249783394},{"NoteNumber":73,"Velocity":70,"Duration":117008,"SoundDuration":117008,"Delta":249914336},{"NoteNumber":82,"Velocity":83,"Duration":117008,"SoundDuration":117008,"Delta":249914336},{"NoteNumber":34,"Velocity":86,"Duration":931891,"SoundDuration":931891,"Delta":249914336},{"NoteNumber":72,"Velocity":62,"Duration":117187,"SoundDuration":117187,"Delta":250148532},{"NoteNumber":80,"Velocity":74,"Duration":117187,"SoundDuration":117187,"Delta":250148532},{"NoteNumber":70,"Velocity":62,"Duration":115829,"SoundDuration":115829,"Delta":250382907},{"NoteNumber":78,"Velocity":74,"Duration":115829,"SoundDuration":115829,"Delta":250382907},{"NoteNumber":68,"Velocity":62,"Duration":115829,"SoundDuration":115829,"Delta":250614567},{"NoteNumber":77,"Velocity":74,"Duration":115829,"SoundDuration":115829,"Delta":250614567},{"NoteNumber":66,"Velocity":62,"Duration":115829,"SoundDuration":115829,"Delta":250846227},{"NoteNumber":75,"Velocity":74,"Duration":115829,"SoundDuration":115829,"Delta":250846227},{"NoteNumber":65,"Velocity":62,"Duration":115830,"SoundDuration":115830,"Delta":251077887},{"NoteNumber":73,"Velocity":74,"Duration":115830,"SoundDuration":115830,"Delta":251077887},{"NoteNumber":75,"Velocity":73,"Duration":117187,"SoundDuration":117187,"Delta":251319768},{"NoteNumber":78,"Velocity":87,"Duration":921397,"SoundDuration":921397,"Delta":251319768},{"NoteNumber":34,"Velocity":84,"Duration":117187,"SoundDuration":117187,"Delta":251319768},{"NoteNumber":63,"Velocity":71,"Duration":114503,"SoundDuration":114503,"Delta":251554143},{"NoteNumber":24,"Velocity":55,"Duration":114503,"SoundDuration":114503,"Delta":251554143},{"NoteNumber":36,"Velocity":65,"Duration":114503,"SoundDuration":114503,"Delta":251554143},{"NoteNumber":65,"Velocity":74,"Duration":114503,"SoundDuration":114503,"Delta":251783150},{"NoteNumber":37,"Velocity":66,"Duration":114503,"SoundDuration":114503,"Delta":251783150},{"NoteNumber":25,"Velocity":56,"Duration":114503,"SoundDuration":114503,"Delta":251783150},{"NoteNumber":66,"Velocity":77,"Duration":114503,"SoundDuration":114503,"Delta":252012158},{"NoteNumber":27,"Velocity":56,"Duration":114503,"SoundDuration":114503,"Delta":252012158},{"NoteNumber":39,"Velocity":67,"Duration":114503,"SoundDuration":114503,"Delta":252012158},{"NoteNumber":68,"Velocity":79,"Duration":114503,"SoundDuration":114503,"Delta":252241165},{"NoteNumber":41,"Velocity":68,"Duration":114503,"SoundDuration":114503,"Delta":252241165},{"NoteNumber":29,"Velocity":57,"Duration":114503,"SoundDuration":114503,"Delta":252241165},{"NoteNumber":70,"Velocity":82,"Duration":359990,"SoundDuration":359990,"Delta":252470173},{"NoteNumber":30,"Velocity":58,"Duration":114503,"SoundDuration":114503,"Delta":252470173},{"NoteNumber":42,"Velocity":69,"Duration":114503,"SoundDuration":114503,"Delta":252470173},{"NoteNumber":78,"Velocity":85,"Duration":116731,"SoundDuration":116731,"Delta":252713432},{"NoteNumber":25,"Velocity":59,"Duration":922713,"SoundDuration":922713,"Delta":252713432},{"NoteNumber":37,"Velocity":70,"Duration":922713,"SoundDuration":922713,"Delta":252713432},{"NoteNumber":68,"Velocity":66,"Duration":116731,"SoundDuration":116731,"Delta":252946895},{"NoteNumber":77,"Velocity":78,"Duration":116731,"SoundDuration":116731,"Delta":252946895},{"NoteNumber":66,"Velocity":64,"Duration":114503,"SoundDuration":114503,"Delta":253178130},{"NoteNumber":75,"Velocity":76,"Duration":114503,"SoundDuration":114503,"Delta":253178130},{"NoteNumber":65,"Velocity":62,"Duration":114503,"SoundDuration":114503,"Delta":253407138},{"NoteNumber":73,"Velocity":74,"Duration":114503,"SoundDuration":114503,"Delta":253407138},{"NoteNumber":76,"Velocity":80,"Duration":458014,"SoundDuration":458014,"Delta":253636145},{"NoteNumber":79,"Velocity":80,"Duration":114503,"SoundDuration":114503,"Delta":253636145},{"NoteNumber":36,"Velocity":79,"Duration":916030,"SoundDuration":916030,"Delta":253636145},{"NoteNumber":24,"Velocity":62,"Duration":916030,"SoundDuration":916030,"Delta":253636145},{"NoteNumber":85,"Velocity":70,"Duration":114503,"SoundDuration":114503,"Delta":253750649},{"NoteNumber":82,"Velocity":71,"Duration":114503,"SoundDuration":114503,"Delta":253865153},{"NoteNumber":79,"Velocity":71,"Duration":114503,"SoundDuration":114503,"Delta":253979656},{"NoteNumber":76,"Velocity":74,"Duration":114503,"SoundDuration":114503,"Delta":254094160},{"NoteNumber":82,"Velocity":69,"Duration":114503,"SoundDuration":114503,"Delta":254208664},{"NoteNumber":79,"Velocity":70,"Duration":114503,"SoundDuration":114503,"Delta":254323168},{"NoteNumber":76,"Velocity":70,"Duration":114503,"SoundDuration":114503,"Delta":254437671},{"NoteNumber":73,"Velocity":76,"Duration":114503,"SoundDuration":114503,"Delta":254552175},{"NoteNumber":79,"Velocity":69,"Duration":114503,"SoundDuration":114503,"Delta":254666679},{"NoteNumber":76,"Velocity":69,"Duration":114503,"SoundDuration":114503,"Delta":254781183},{"NoteNumber":73,"Velocity":69,"Duration":114503,"SoundDuration":114503,"Delta":254895686},{"NoteNumber":70,"Velocity":66,"Duration":1381392,"SoundDuration":1381392,"Delta":255010190},{"NoteNumber":72,"Velocity":78,"Duration":116279,"SoundDuration":116279,"Delta":255010190},{"NoteNumber":52,"Velocity":71,"Duration":77519,"SoundDuration":77519,"Delta":255010190},{"NoteNumber":40,"Velocity":71,"Duration":1381392,"SoundDuration":1381392,"Delta":255010190},{"NoteNumber":53,"Velocity":65,"Duration":77519,"SoundDuration":77519,"Delta":255087709},{"NoteNumber":79,"Velocity":69,"Duration":116275,"SoundDuration":116275,"Delta":255126469},{"NoteNumber":52,"Velocity":63,"Duration":77515,"SoundDuration":77515,"Delta":255165229},{"NoteNumber":76,"Velocity":69,"Duration":115829,"SoundDuration":115829,"Delta":255242744},{"NoteNumber":53,"Velocity":59,"Duration":77219,"SoundDuration":77219,"Delta":255242744},{"NoteNumber":52,"Velocity":63,"Duration":77156,"SoundDuration":77156,"Delta":255319964},{"NoteNumber":72,"Velocity":69,"Duration":115469,"SoundDuration":115469,"Delta":255358574},{"NoteNumber":53,"Velocity":59,"Duration":76922,"SoundDuration":76922,"Delta":255397121},{"NoteNumber":73,"Velocity":77,"Duration":115115,"SoundDuration":115115,"Delta":255474044},{"NoteNumber":52,"Velocity":63,"Duration":76801,"SoundDuration":76801,"Delta":255474044},{"NoteNumber":53,"Velocity":59,"Duration":76628,"SoundDuration":76628,"Delta":255550846},{"NoteNumber":82,"Velocity":69,"Duration":114851,"SoundDuration":114851,"Delta":255589160},{"NoteNumber":52,"Velocity":63,"Duration":76536,"SoundDuration":76536,"Delta":255627474},{"NoteNumber":79,"Velocity":69,"Duration":114500,"SoundDuration":114500,"Delta":255704011},{"NoteNumber":53,"Velocity":60,"Duration":76335,"SoundDuration":76335,"Delta":255704011},{"NoteNumber":52,"Velocity":63,"Duration":76187,"SoundDuration":76187,"Delta":255780347},{"NoteNumber":76,"Velocity":69,"Duration":114068,"SoundDuration":114068,"Delta":255818511},{"NoteNumber":53,"Velocity":59,"Duration":76045,"SoundDuration":76045,"Delta":255856534},{"NoteNumber":72,"Velocity":85,"Duration":459003,"SoundDuration":459003,"Delta":255932580},{"NoteNumber":52,"Velocity":63,"Duration":76045,"SoundDuration":76045,"Delta":255932580},{"NoteNumber":53,"Velocity":60,"Duration":76194,"SoundDuration":76194,"Delta":256008625},{"NoteNumber":52,"Velocity":63,"Duration":76339,"SoundDuration":76339,"Delta":256084820},{"NoteNumber":53,"Velocity":59,"Duration":76628,"SoundDuration":76628,"Delta":256161159},{"NoteNumber":52,"Velocity":63,"Duration":76779,"SoundDuration":76779,"Delta":256237787},{"NoteNumber":53,"Velocity":59,"Duration":77015,"SoundDuration":77015,"Delta":256314567},{"NoteNumber":55,"Velocity":71,"Duration":76801,"SoundDuration":76801,"Delta":256391583},{"NoteNumber":56,"Velocity":66,"Duration":76628,"SoundDuration":76628,"Delta":256468384},{"NoteNumber":55,"Velocity":63,"Duration":76536,"SoundDuration":76536,"Delta":256545012},{"NoteNumber":56,"Velocity":60,"Duration":76335,"SoundDuration":76335,"Delta":256621549},{"NoteNumber":55,"Velocity":63,"Duration":76187,"SoundDuration":76187,"Delta":256697885},{"NoteNumber":56,"Velocity":59,"Duration":76045,"SoundDuration":76045,"Delta":256774072},{"NoteNumber":82,"Velocity":87,"Duration":904742,"SoundDuration":904742,"Delta":256850118},{"NoteNumber":55,"Velocity":63,"Duration":75722,"SoundDuration":75722,"Delta":256850118},{"NoteNumber":56,"Velocity":60,"Duration":75471,"SoundDuration":75471,"Delta":256925840},{"NoteNumber":55,"Velocity":63,"Duration":75471,"SoundDuration":75471,"Delta":257001312},{"NoteNumber":56,"Velocity":59,"Duration":75471,"SoundDuration":75471,"Delta":257076784},{"NoteNumber":55,"Velocity":63,"Duration":75471,"SoundDuration":75471,"Delta":257152255},{"NoteNumber":56,"Velocity":59,"Duration":75461,"SoundDuration":75461,"Delta":257227727},{"NoteNumber":55,"Velocity":63,"Duration":74626,"SoundDuration":74626,"Delta":257303188},{"NoteNumber":56,"Velocity":60,"Duration":74853,"SoundDuration":74853,"Delta":257377815},{"NoteNumber":55,"Velocity":63,"Duration":75163,"SoundDuration":75163,"Delta":257452669},{"NoteNumber":56,"Velocity":59,"Duration":75390,"SoundDuration":75390,"Delta":257527832},{"NoteNumber":55,"Velocity":63,"Duration":75703,"SoundDuration":75703,"Delta":257603222},{"NoteNumber":56,"Velocity":59,"Duration":75934,"SoundDuration":75934,"Delta":257678926},{"NoteNumber":58,"Velocity":70,"Duration":1358730,"SoundDuration":1358730,"Delta":257754860},{"NoteNumber":67,"Velocity":71,"Duration":76252,"SoundDuration":76252,"Delta":257754860},{"NoteNumber":29,"Velocity":89,"Duration":903818,"SoundDuration":903818,"Delta":257754860},{"NoteNumber":68,"Velocity":66,"Duration":76100,"SoundDuration":76100,"Delta":257831113},{"NoteNumber":67,"Velocity":63,"Duration":75869,"SoundDuration":75869,"Delta":257907213},{"NoteNumber":68,"Velocity":60,"Duration":75639,"SoundDuration":75639,"Delta":257983082},{"NoteNumber":67,"Velocity":63,"Duration":75411,"SoundDuration":75411,"Delta":258058722},{"NoteNumber":68,"Velocity":59,"Duration":75184,"SoundDuration":75184,"Delta":258134133},{"NoteNumber":67,"Velocity":63,"Duration":74906,"SoundDuration":74906,"Delta":258209317},{"NoteNumber":68,"Velocity":60,"Duration":74679,"SoundDuration":74679,"Delta":258284224},{"NoteNumber":67,"Velocity":63,"Duration":74630,"SoundDuration":74630,"Delta":258358903},{"NoteNumber":68,"Velocity":59,"Duration":74906,"SoundDuration":74906,"Delta":258433533},{"NoteNumber":67,"Velocity":63,"Duration":75050,"SoundDuration":75050,"Delta":258508440},{"NoteNumber":68,"Velocity":59,"Duration":75187,"SoundDuration":75187,"Delta":258583490},{"NoteNumber":67,"Velocity":63,"Duration":75390,"SoundDuration":75390,"Delta":258658678},{"NoteNumber":68,"Velocity":60,"Duration":75532,"SoundDuration":75532,"Delta":258734068},{"NoteNumber":67,"Velocity":63,"Duration":75757,"SoundDuration":75757,"Delta":258809601},{"NoteNumber":68,"Velocity":59,"Duration":75876,"SoundDuration":75876,"Delta":258885358},{"NoteNumber":67,"Velocity":63,"Duration":76045,"SoundDuration":76045,"Delta":258961235},{"NoteNumber":68,"Velocity":59,"Duration":76310,"SoundDuration":76310,"Delta":259037280},{"NoteNumber":60,"Velocity":70,"Duration":229966,"SoundDuration":229966,"Delta":259113591},{"NoteNumber":65,"Velocity":70,"Duration":458535,"SoundDuration":458535,"Delta":259113591},{"NoteNumber":45,"Velocity":60,"Duration":76801,"SoundDuration":76801,"Delta":259113591},{"NoteNumber":46,"Velocity":56,"Duration":76628,"SoundDuration":76628,"Delta":259190392},{"NoteNumber":45,"Velocity":60,"Duration":76536,"SoundDuration":76536,"Delta":259267021},{"NoteNumber":75,"Velocity":70,"Duration":1135253,"SoundDuration":1135253,"Delta":259343558},{"NoteNumber":46,"Velocity":56,"Duration":76335,"SoundDuration":76335,"Delta":259343558},{"NoteNumber":45,"Velocity":60,"Duration":76187,"SoundDuration":76187,"Delta":259419893},{"NoteNumber":46,"Velocity":56,"Duration":76045,"SoundDuration":76045,"Delta":259496081},{"NoteNumber":45,"Velocity":60,"Duration":75722,"SoundDuration":75722,"Delta":259572126},{"NoteNumber":46,"Velocity":56,"Duration":75471,"SoundDuration":75471,"Delta":259647849},{"NoteNumber":45,"Velocity":60,"Duration":75471,"SoundDuration":75471,"Delta":259723320},{"NoteNumber":46,"Velocity":56,"Duration":75471,"SoundDuration":75471,"Delta":259798792},{"NoteNumber":45,"Velocity":60,"Duration":75471,"SoundDuration":75471,"Delta":259874264},{"NoteNumber":46,"Velocity":56,"Duration":75471,"SoundDuration":75471,"Delta":259949735},{"NoteNumber":45,"Velocity":60,"Duration":75722,"SoundDuration":75722,"Delta":260025207},{"NoteNumber":46,"Velocity":56,"Duration":75471,"SoundDuration":75471,"Delta":260100929},{"NoteNumber":45,"Velocity":60,"Duration":75471,"SoundDuration":75471,"Delta":260176401},{"NoteNumber":46,"Velocity":56,"Duration":75471,"SoundDuration":75471,"Delta":260251873},{"NoteNumber":45,"Velocity":60,"Duration":75471,"SoundDuration":75471,"Delta":260327344},{"NoteNumber":46,"Velocity":56,"Duration":75995,"SoundDuration":75995,"Delta":260402816},{"NoteNumber":60,"Velocity":60,"Duration":75926,"SoundDuration":75926,"Delta":260478812},{"NoteNumber":61,"Velocity":56,"Duration":75757,"SoundDuration":75757,"Delta":260554738},{"NoteNumber":60,"Velocity":60,"Duration":75496,"SoundDuration":75496,"Delta":260630496},{"NoteNumber":61,"Velocity":56,"Duration":75354,"SoundDuration":75354,"Delta":260705992},{"NoteNumber":60,"Velocity":60,"Duration":75128,"SoundDuration":75128,"Delta":260781347},{"NoteNumber":61,"Velocity":56,"Duration":74906,"SoundDuration":74906,"Delta":260856475},{"NoteNumber":87,"Velocity":116,"Duration":898220,"SoundDuration":898220,"Delta":260931382},{"NoteNumber":60,"Velocity":60,"Duration":74906,"SoundDuration":74906,"Delta":260931382},{"NoteNumber":61,"Velocity":56,"Duration":74906,"SoundDuration":74906,"Delta":261006288},{"NoteNumber":60,"Velocity":60,"Duration":74906,"SoundDuration":74906,"Delta":261081194},{"NoteNumber":61,"Velocity":56,"Duration":74906,"SoundDuration":74906,"Delta":261156101},{"NoteNumber":60,"Velocity":60,"Duration":74906,"SoundDuration":74906,"Delta":261231007},{"NoteNumber":61,"Velocity":56,"Duration":74906,"SoundDuration":74906,"Delta":261305913},{"NoteNumber":60,"Velocity":60,"Duration":74676,"SoundDuration":74676,"Delta":261380820},{"NoteNumber":61,"Velocity":56,"Duration":74349,"SoundDuration":74349,"Delta":261455496},{"NoteNumber":60,"Velocity":60,"Duration":74602,"SoundDuration":74602,"Delta":261529846},{"NoteNumber":61,"Velocity":56,"Duration":74825,"SoundDuration":74825,"Delta":261604448},{"NoteNumber":60,"Velocity":60,"Duration":75050,"SoundDuration":75050,"Delta":261679274},{"NoteNumber":61,"Velocity":56,"Duration":75276,"SoundDuration":75276,"Delta":261754325},{"NoteNumber":63,"Velocity":79,"Duration":897819,"SoundDuration":897819,"Delta":261829602},{"NoteNumber":72,"Velocity":60,"Duration":75675,"SoundDuration":75675,"Delta":261829602},{"NoteNumber":34,"Velocity":71,"Duration":1348866,"SoundDuration":1348866,"Delta":261829602},{"NoteNumber":73,"Velocity":56,"Duration":75611,"SoundDuration":75611,"Delta":261905277},{"NoteNumber":72,"Velocity":60,"Duration":75383,"SoundDuration":75383,"Delta":261980888},{"NoteNumber":73,"Velocity":56,"Duration":75071,"SoundDuration":75071,"Delta":262056271},{"NoteNumber":72,"Velocity":60,"Duration":74846,"SoundDuration":74846,"Delta":262131343},{"NoteNumber":73,"Velocity":56,"Duration":74623,"SoundDuration":74623,"Delta":262206190},{"NoteNumber":72,"Velocity":60,"Duration":74318,"SoundDuration":74318,"Delta":262280813},{"NoteNumber":73,"Velocity":56,"Duration":74073,"SoundDuration":74073,"Delta":262355132},{"NoteNumber":72,"Velocity":60,"Duration":74242,"SoundDuration":74242,"Delta":262429206},{"NoteNumber":73,"Velocity":56,"Duration":74463,"SoundDuration":74463,"Delta":262503448},{"NoteNumber":72,"Velocity":60,"Duration":74626,"SoundDuration":74626,"Delta":262577912},{"NoteNumber":73,"Velocity":56,"Duration":74881,"SoundDuration":74881,"Delta":262652539},{"NoteNumber":64,"Velocity":79,"Duration":451047,"SoundDuration":451047,"Delta":262727421},{"NoteNumber":72,"Velocity":60,"Duration":75107,"SoundDuration":75107,"Delta":262727421},{"NoteNumber":73,"Velocity":56,"Duration":75188,"SoundDuration":75188,"Delta":262802528},{"NoteNumber":72,"Velocity":60,"Duration":75187,"SoundDuration":75187,"Delta":262877716},{"NoteNumber":73,"Velocity":56,"Duration":75188,"SoundDuration":75188,"Delta":262952904},{"NoteNumber":72,"Velocity":60,"Duration":75187,"SoundDuration":75187,"Delta":263028092},{"NoteNumber":73,"Velocity":56,"Duration":75188,"SoundDuration":75188,"Delta":263103280},{"NoteNumber":70,"Velocity":59,"Duration":458535,"SoundDuration":458535,"Delta":263178468},{"NoteNumber":65,"Velocity":59,"Duration":229966,"SoundDuration":229966,"Delta":263178468},{"NoteNumber":49,"Velocity":51,"Duration":76801,"SoundDuration":76801,"Delta":263178468},{"NoteNumber":51,"Velocity":47,"Duration":76628,"SoundDuration":76628,"Delta":263255269},{"NoteNumber":49,"Velocity":51,"Duration":76536,"SoundDuration":76536,"Delta":263331898},{"NoteNumber":73,"Velocity":59,"Duration":1135253,"SoundDuration":1135253,"Delta":263408435},{"NoteNumber":51,"Velocity":47,"Duration":76335,"SoundDuration":76335,"Delta":263408435},{"NoteNumber":49,"Velocity":51,"Duration":76187,"SoundDuration":76187,"Delta":263484771},{"NoteNumber":51,"Velocity":47,"Duration":76045,"SoundDuration":76045,"Delta":263560958},{"NoteNumber":49,"Velocity":51,"Duration":75722,"SoundDuration":75722,"Delta":263637003},{"NoteNumber":51,"Velocity":47,"Duration":75471,"SoundDuration":75471,"Delta":263712726},{"NoteNumber":49,"Velocity":51,"Duration":75471,"SoundDuration":75471,"Delta":263788197},{"NoteNumber":51,"Velocity":47,"Duration":75471,"SoundDuration":75471,"Delta":263863669},{"NoteNumber":49,"Velocity":51,"Duration":75471,"SoundDuration":75471,"Delta":263939141},{"NoteNumber":51,"Velocity":47,"Duration":75471,"SoundDuration":75471,"Delta":264014612},{"NoteNumber":49,"Velocity":51,"Duration":75722,"SoundDuration":75722,"Delta":264090084},{"NoteNumber":51,"Velocity":47,"Duration":75471,"SoundDuration":75471,"Delta":264165807},{"NoteNumber":49,"Velocity":51,"Duration":75471,"SoundDuration":75471,"Delta":264241278},{"NoteNumber":51,"Velocity":51,"Duration":56603,"SoundDuration":56603,"Delta":264316750},{"NoteNumber":49,"Velocity":45,"Duration":56603,"SoundDuration":56603,"Delta":264373354},{"NoteNumber":48,"Velocity":45,"Duration":56697,"SoundDuration":56697,"Delta":264429957},{"NoteNumber":49,"Velocity":45,"Duration":57034,"SoundDuration":57034,"Delta":264486654},{"NoteNumber":85,"Velocity":110,"Duration":1350790,"SoundDuration":1350790,"Delta":264543689},{"NoteNumber":58,"Velocity":51,"Duration":75926,"SoundDuration":75926,"Delta":264543689},{"NoteNumber":51,"Velocity":50,"Duration":1350790,"SoundDuration":1350790,"Delta":264543689},{"NoteNumber":60,"Velocity":47,"Duration":75757,"SoundDuration":75757,"Delta":264619615},{"NoteNumber":58,"Velocity":51,"Duration":75496,"SoundDuration":75496,"Delta":264695373},{"NoteNumber":60,"Velocity":47,"Duration":75354,"SoundDuration":75354,"Delta":264770870},{"NoteNumber":58,"Velocity":51,"Duration":75128,"SoundDuration":75128,"Delta":264846224},{"NoteNumber":60,"Velocity":47,"Duration":74906,"SoundDuration":74906,"Delta":264921352},{"NoteNumber":58,"Velocity":60,"Duration":74906,"SoundDuration":74906,"Delta":264996259},{"NoteNumber":60,"Velocity":56,"Duration":74906,"SoundDuration":74906,"Delta":265071165},{"NoteNumber":58,"Velocity":60,"Duration":74906,"SoundDuration":74906,"Delta":265146071},{"NoteNumber":60,"Velocity":56,"Duration":74906,"SoundDuration":74906,"Delta":265220978},{"NoteNumber":58,"Velocity":60,"Duration":74906,"SoundDuration":74906,"Delta":265295884},{"NoteNumber":60,"Velocity":56,"Duration":74906,"SoundDuration":74906,"Delta":265370790},{"NoteNumber":58,"Velocity":60,"Duration":74676,"SoundDuration":74676,"Delta":265445697},{"NoteNumber":60,"Velocity":56,"Duration":74349,"SoundDuration":74349,"Delta":265520373},{"NoteNumber":58,"Velocity":60,"Duration":74602,"SoundDuration":74602,"Delta":265594723},{"NoteNumber":60,"Velocity":60,"Duration":56099,"SoundDuration":56099,"Delta":265669325},{"NoteNumber":58,"Velocity":56,"Duration":56183,"SoundDuration":56183,"Delta":265725425},{"NoteNumber":57,"Velocity":56,"Duration":56391,"SoundDuration":56391,"Delta":265781608},{"NoteNumber":58,"Velocity":56,"Duration":56479,"SoundDuration":56479,"Delta":265837999},{"NoteNumber":61,"Velocity":79,"Duration":1348866,"SoundDuration":1348866,"Delta":265894479},{"NoteNumber":70,"Velocity":60,"Duration":75675,"SoundDuration":75675,"Delta":265894479},{"NoteNumber":56,"Velocity":66,"Duration":673846,"SoundDuration":673846,"Delta":265894479},{"NoteNumber":72,"Velocity":56,"Duration":75611,"SoundDuration":75611,"Delta":265970154},{"NoteNumber":70,"Velocity":60,"Duration":75383,"SoundDuration":75383,"Delta":266045765},{"NoteNumber":72,"Velocity":56,"Duration":75071,"SoundDuration":75071,"Delta":266121148},{"NoteNumber":70,"Velocity":60,"Duration":74846,"SoundDuration":74846,"Delta":266196220},{"NoteNumber":72,"Velocity":56,"Duration":74623,"SoundDuration":74623,"Delta":266271067},{"NoteNumber":70,"Velocity":60,"Duration":74318,"SoundDuration":74318,"Delta":266345690},{"NoteNumber":72,"Velocity":56,"Duration":74073,"SoundDuration":74073,"Delta":266420009},{"NoteNumber":70,"Velocity":60,"Duration":74242,"SoundDuration":74242,"Delta":266494083},{"NoteNumber":72,"Velocity":56,"Duration":74463,"SoundDuration":74463,"Delta":266568325},{"NoteNumber":55,"Velocity":60,"Duration":223972,"SoundDuration":223972,"Delta":266568325},{"NoteNumber":70,"Velocity":60,"Duration":74626,"SoundDuration":74626,"Delta":266642789},{"NoteNumber":72,"Velocity":56,"Duration":74881,"SoundDuration":74881,"Delta":266717416},{"NoteNumber":70,"Velocity":60,"Duration":75107,"SoundDuration":75107,"Delta":266792298},{"NoteNumber":53,"Velocity":66,"Duration":225483,"SoundDuration":225483,"Delta":266792298},{"NoteNumber":72,"Velocity":56,"Duration":75188,"SoundDuration":75188,"Delta":266867405},{"NoteNumber":70,"Velocity":60,"Duration":75187,"SoundDuration":75187,"Delta":266942593},{"NoteNumber":72,"Velocity":56,"Duration":75188,"SoundDuration":75188,"Delta":267017781},{"NoteNumber":51,"Velocity":53,"Duration":225564,"SoundDuration":225564,"Delta":267017781},{"NoteNumber":70,"Velocity":60,"Duration":75187,"SoundDuration":75187,"Delta":267092969},{"NoteNumber":72,"Velocity":56,"Duration":75188,"SoundDuration":75188,"Delta":267168157},{"NoteNumber":67,"Velocity":69,"Duration":673846,"SoundDuration":673846,"Delta":267243345},{"NoteNumber":70,"Velocity":60,"Duration":75675,"SoundDuration":75675,"Delta":267243345},{"NoteNumber":50,"Velocity":66,"Duration":226669,"SoundDuration":226669,"Delta":267243345},{"NoteNumber":72,"Velocity":56,"Duration":75611,"SoundDuration":75611,"Delta":267319020},{"NoteNumber":70,"Velocity":60,"Duration":75383,"SoundDuration":75383,"Delta":267394631},{"NoteNumber":72,"Velocity":56,"Duration":75071,"SoundDuration":75071,"Delta":267470014},{"NoteNumber":51,"Velocity":55,"Duration":224542,"SoundDuration":224542,"Delta":267470014},{"NoteNumber":70,"Velocity":60,"Duration":74846,"SoundDuration":74846,"Delta":267545086},{"NoteNumber":72,"Velocity":56,"Duration":74623,"SoundDuration":74623,"Delta":267619933},{"NoteNumber":70,"Velocity":60,"Duration":74318,"SoundDuration":74318,"Delta":267694557},{"NoteNumber":51,"Velocity":66,"Duration":1348782,"SoundDuration":1348782,"Delta":267694557},{"NoteNumber":72,"Velocity":56,"Duration":74073,"SoundDuration":74073,"Delta":267768875},{"NoteNumber":70,"Velocity":60,"Duration":74242,"SoundDuration":74242,"Delta":267842949},{"NoteNumber":65,"Velocity":59,"Duration":223972,"SoundDuration":223972,"Delta":267917192},{"NoteNumber":72,"Velocity":56,"Duration":74463,"SoundDuration":74463,"Delta":267917192},{"NoteNumber":70,"Velocity":60,"Duration":74626,"SoundDuration":74626,"Delta":267991656},{"NoteNumber":72,"Velocity":56,"Duration":74881,"SoundDuration":74881,"Delta":268066283},{"NoteNumber":63,"Velocity":59,"Duration":225483,"SoundDuration":225483,"Delta":268141164},{"NoteNumber":70,"Velocity":60,"Duration":75107,"SoundDuration":75107,"Delta":268141164},{"NoteNumber":72,"Velocity":56,"Duration":75188,"SoundDuration":75188,"Delta":268216271},{"NoteNumber":70,"Velocity":60,"Duration":75187,"SoundDuration":75187,"Delta":268291459},{"NoteNumber":72,"Velocity":56,"Duration":56391,"SoundDuration":56391,"Delta":268366647},{"NoteNumber":61,"Velocity":59,"Duration":225564,"SoundDuration":225564,"Delta":268366647},{"NoteNumber":70,"Velocity":56,"Duration":56391,"SoundDuration":56391,"Delta":268423038},{"NoteNumber":69,"Velocity":53,"Duration":56390,"SoundDuration":56390,"Delta":268479429},{"NoteNumber":70,"Velocity":54,"Duration":56391,"SoundDuration":56391,"Delta":268535820},{"NoteNumber":77,"Velocity":69,"Duration":676692,"SoundDuration":676692,"Delta":268592211},{"NoteNumber":60,"Velocity":55,"Duration":225564,"SoundDuration":225564,"Delta":268592211},{"NoteNumber":61,"Velocity":59,"Duration":225563,"SoundDuration":225563,"Delta":268817775},{"NoteNumber":51,"Velocity":57,"Duration":902256,"SoundDuration":902256,"Delta":269043339},{"NoteNumber":59,"Velocity":59,"Duration":225564,"SoundDuration":225564,"Delta":269043339},{"NoteNumber":75,"Velocity":47,"Duration":225563,"SoundDuration":225563,"Delta":269268903},{"NoteNumber":60,"Velocity":53,"Duration":225563,"SoundDuration":225563,"Delta":269268903},{"NoteNumber":73,"Velocity":51,"Duration":225564,"SoundDuration":225564,"Delta":269494467},{"NoteNumber":58,"Velocity":59,"Duration":225564,"SoundDuration":225564,"Delta":269494467},{"NoteNumber":72,"Velocity":48,"Duration":225564,"SoundDuration":225564,"Delta":269720031},{"NoteNumber":56,"Velocity":53,"Duration":225564,"SoundDuration":225564,"Delta":269720031},{"NoteNumber":67,"Velocity":51,"Duration":229966,"SoundDuration":229966,"Delta":269945595},{"NoteNumber":71,"Velocity":51,"Duration":229966,"SoundDuration":229966,"Delta":269945595},{"NoteNumber":51,"Velocity":45,"Duration":76801,"SoundDuration":76801,"Delta":269945595},{"NoteNumber":53,"Velocity":42,"Duration":76628,"SoundDuration":76628,"Delta":270022397},{"NoteNumber":51,"Velocity":45,"Duration":76536,"SoundDuration":76536,"Delta":270099025},{"NoteNumber":68,"Velocity":46,"Duration":228568,"SoundDuration":228568,"Delta":270175562},{"NoteNumber":72,"Velocity":46,"Duration":228568,"SoundDuration":228568,"Delta":270175562},{"NoteNumber":53,"Velocity":42,"Duration":76335,"SoundDuration":76335,"Delta":270175562},{"NoteNumber":51,"Velocity":45,"Duration":76187,"SoundDuration":76187,"Delta":270251898},{"NoteNumber":53,"Velocity":42,"Duration":76045,"SoundDuration":76045,"Delta":270328085},{"NoteNumber":69,"Velocity":51,"Duration":226665,"SoundDuration":226665,"Delta":270404131},{"NoteNumber":75,"Velocity":51,"Duration":226665,"SoundDuration":226665,"Delta":270404131},{"NoteNumber":51,"Velocity":45,"Duration":75722,"SoundDuration":75722,"Delta":270404131},{"NoteNumber":53,"Velocity":42,"Duration":75471,"SoundDuration":75471,"Delta":270479853},{"NoteNumber":51,"Velocity":45,"Duration":75471,"SoundDuration":75471,"Delta":270555325},{"NoteNumber":70,"Velocity":48,"Duration":226414,"SoundDuration":226414,"Delta":270630797},{"NoteNumber":73,"Velocity":48,"Duration":226414,"SoundDuration":226414,"Delta":270630797},{"NoteNumber":53,"Velocity":42,"Duration":75471,"SoundDuration":75471,"Delta":270630797},{"NoteNumber":51,"Velocity":45,"Duration":75471,"SoundDuration":75471,"Delta":270706268},{"NoteNumber":53,"Velocity":42,"Duration":75471,"SoundDuration":75471,"Delta":270781740},{"NoteNumber":63,"Velocity":51,"Duration":226665,"SoundDuration":226665,"Delta":270857212},{"NoteNumber":72,"Velocity":51,"Duration":226665,"SoundDuration":226665,"Delta":270857212},{"NoteNumber":51,"Velocity":45,"Duration":75722,"SoundDuration":75722,"Delta":270857212},{"NoteNumber":53,"Velocity":42,"Duration":75471,"SoundDuration":75471,"Delta":270932934},{"NoteNumber":51,"Velocity":45,"Duration":75471,"SoundDuration":75471,"Delta":271008406},{"NoteNumber":61,"Velocity":49,"Duration":455075,"SoundDuration":455075,"Delta":271083877},{"NoteNumber":70,"Velocity":49,"Duration":226938,"SoundDuration":226938,"Delta":271083877},{"NoteNumber":53,"Velocity":45,"Duration":113207,"SoundDuration":113207,"Delta":271083877},{"NoteNumber":51,"Velocity":40,"Duration":113731,"SoundDuration":113731,"Delta":271197085},{"NoteNumber":69,"Velocity":51,"Duration":228137,"SoundDuration":228137,"Delta":271310816},{"NoteNumber":53,"Velocity":52,"Duration":228137,"SoundDuration":228137,"Delta":271310816},{"NoteNumber":61,"Velocity":45,"Duration":456274,"SoundDuration":456274,"Delta":271538953},{"NoteNumber":70,"Velocity":45,"Duration":228137,"SoundDuration":228137,"Delta":271538953},{"NoteNumber":55,"Velocity":47,"Duration":228137,"SoundDuration":228137,"Delta":271538953},{"NoteNumber":63,"Velocity":51,"Duration":456274,"SoundDuration":456274,"Delta":271767090},{"NoteNumber":56,"Velocity":40,"Duration":114068,"SoundDuration":114068,"Delta":271767090},{"NoteNumber":48,"Velocity":40,"Duration":114068,"SoundDuration":114068,"Delta":271881159},{"NoteNumber":60,"Velocity":45,"Duration":223384,"SoundDuration":223384,"Delta":271995227},{"NoteNumber":51,"Velocity":40,"Duration":114068,"SoundDuration":114068,"Delta":271995227},{"NoteNumber":56,"Velocity":40,"Duration":114068,"SoundDuration":114068,"Delta":272109296},{"NoteNumber":60,"Velocity":52,"Duration":114068,"SoundDuration":114068,"Delta":272223364},{"NoteNumber":80,"Velocity":52,"Duration":136540,"SoundDuration":136540,"Delta":272337433},{"NoteNumber":79,"Velocity":51,"Duration":134831,"SoundDuration":134831,"Delta":272451501},{"NoteNumber":61,"Velocity":54,"Duration":112359,"SoundDuration":112359,"Delta":272451501},{"NoteNumber":77,"Velocity":50,"Duration":134831,"SoundDuration":134831,"Delta":272563861},{"NoteNumber":75,"Velocity":60,"Duration":112359,"SoundDuration":112359,"Delta":272676220},{"NoteNumber":63,"Velocity":61,"Duration":462078,"SoundDuration":462078,"Delta":272676220},{"NoteNumber":70,"Velocity":48,"Duration":112359,"SoundDuration":112359,"Delta":272788580},{"NoteNumber":72,"Velocity":40,"Duration":112359,"SoundDuration":112359,"Delta":272900939},{"NoteNumber":79,"Velocity":64,"Duration":112359,"SoundDuration":112359,"Delta":272900939},{"NoteNumber":73,"Velocity":53,"Duration":125000,"SoundDuration":125000,"Delta":273013299},{"NoteNumber":72,"Velocity":48,"Duration":113636,"SoundDuration":113636,"Delta":273138299},{"NoteNumber":80,"Velocity":68,"Duration":227272,"SoundDuration":227272,"Delta":273138299},{"NoteNumber":60,"Velocity":48,"Duration":113636,"SoundDuration":113636,"Delta":273251935},{"NoteNumber":63,"Velocity":48,"Duration":113636,"SoundDuration":113636,"Delta":273365571},{"NoteNumber":68,"Velocity":48,"Duration":113636,"SoundDuration":113636,"Delta":273479207},{"NoteNumber":72,"Velocity":59,"Duration":113636,"SoundDuration":113636,"Delta":273592844},{"NoteNumber":84,"Velocity":52,"Duration":113636,"SoundDuration":113636,"Delta":273706480},{"NoteNumber":82,"Velocity":51,"Duration":113636,"SoundDuration":113636,"Delta":273820116},{"NoteNumber":73,"Velocity":62,"Duration":113636,"SoundDuration":113636,"Delta":273820116},{"NoteNumber":80,"Velocity":50,"Duration":119047,"SoundDuration":119047,"Delta":273933752},{"NoteNumber":79,"Velocity":50,"Duration":451127,"SoundDuration":451127,"Delta":274052800},{"NoteNumber":75,"Velocity":65,"Duration":676692,"SoundDuration":676692,"Delta":274052800},{"NoteNumber":58,"Velocity":40,"Duration":112782,"SoundDuration":112782,"Delta":274165582},{"NoteNumber":60,"Velocity":43,"Duration":112781,"SoundDuration":112781,"Delta":274278364},{"NoteNumber":61,"Velocity":45,"Duration":112781,"SoundDuration":112781,"Delta":274391146},{"NoteNumber":80,"Velocity":51,"Duration":112782,"SoundDuration":112782,"Delta":274503928},{"NoteNumber":60,"Velocity":49,"Duration":451128,"SoundDuration":451128,"Delta":274503928},{"NoteNumber":72,"Velocity":50,"Duration":112781,"SoundDuration":112781,"Delta":274616710},{"NoteNumber":75,"Velocity":48,"Duration":112781,"SoundDuration":112781,"Delta":274729492},{"NoteNumber":80,"Velocity":57,"Duration":112782,"SoundDuration":112782,"Delta":274842274},{"NoteNumber":84,"Velocity":74,"Duration":112781,"SoundDuration":112781,"Delta":274955056},{"NoteNumber":56,"Velocity":40,"Duration":135338,"SoundDuration":135338,"Delta":275067838},{"NoteNumber":85,"Velocity":77,"Duration":112782,"SoundDuration":112782,"Delta":275180620},{"NoteNumber":55,"Velocity":44,"Duration":136591,"SoundDuration":136591,"Delta":275180620},{"NoteNumber":53,"Velocity":40,"Duration":141603,"SoundDuration":141603,"Delta":275293402},{"NoteNumber":87,"Velocity":80,"Duration":455077,"SoundDuration":455077,"Delta":275412449},{"NoteNumber":51,"Velocity":49,"Duration":455077,"SoundDuration":455077,"Delta":275412449},{"NoteNumber":55,"Velocity":42,"Duration":112782,"SoundDuration":112782,"Delta":275525231},{"NoteNumber":56,"Velocity":44,"Duration":112781,"SoundDuration":112781,"Delta":275638013},{"NoteNumber":58,"Velocity":47,"Duration":116731,"SoundDuration":116731,"Delta":275750795},{"NoteNumber":60,"Velocity":63,"Duration":112781,"SoundDuration":112781,"Delta":275867527},{"NoteNumber":72,"Velocity":52,"Duration":112782,"SoundDuration":112782,"Delta":275980309},{"NoteNumber":70,"Velocity":50,"Duration":112781,"SoundDuration":112781,"Delta":276093091},{"NoteNumber":61,"Velocity":65,"Duration":112781,"SoundDuration":112781,"Delta":276093091},{"NoteNumber":68,"Velocity":49,"Duration":112781,"SoundDuration":112781,"Delta":276205873},{"NoteNumber":67,"Velocity":50,"Duration":451128,"SoundDuration":451128,"Delta":276318655},{"NoteNumber":63,"Velocity":68,"Duration":562652,"SoundDuration":562652,"Delta":276318655},{"NoteNumber":53,"Velocity":44,"Duration":112781,"SoundDuration":112781,"Delta":276431437},{"NoteNumber":51,"Velocity":52,"Duration":112781,"SoundDuration":112781,"Delta":276544219},{"NoteNumber":49,"Velocity":46,"Duration":112782,"SoundDuration":112782,"Delta":276657001},{"NoteNumber":68,"Velocity":50,"Duration":559304,"SoundDuration":559304,"Delta":276769783},{"NoteNumber":48,"Velocity":53,"Duration":223048,"SoundDuration":223048,"Delta":276769783},{"NoteNumber":60,"Velocity":62,"Duration":111524,"SoundDuration":111524,"Delta":276881307},{"NoteNumber":58,"Velocity":65,"Duration":111524,"SoundDuration":111524,"Delta":276992831},{"NoteNumber":50,"Velocity":55,"Duration":111524,"SoundDuration":111524,"Delta":276992831},{"NoteNumber":56,"Velocity":68,"Duration":111524,"SoundDuration":111524,"Delta":277104356},{"NoteNumber":52,"Velocity":58,"Duration":111524,"SoundDuration":111524,"Delta":277104356},{"NoteNumber":60,"Velocity":71,"Duration":226414,"SoundDuration":226414,"Delta":277215880},{"NoteNumber":53,"Velocity":61,"Duration":452830,"SoundDuration":452830,"Delta":277215880},{"NoteNumber":68,"Velocity":62,"Duration":113207,"SoundDuration":113207,"Delta":277329087},{"NoteNumber":72,"Velocity":65,"Duration":113207,"SoundDuration":113207,"Delta":277442295},{"NoteNumber":77,"Velocity":67,"Duration":113207,"SoundDuration":113207,"Delta":277555502},{"NoteNumber":80,"Velocity":72,"Duration":113207,"SoundDuration":113207,"Delta":277668710},{"NoteNumber":77,"Velocity":65,"Duration":113207,"SoundDuration":113207,"Delta":277781917},{"NoteNumber":75,"Velocity":65,"Duration":113207,"SoundDuration":113207,"Delta":277895125},{"NoteNumber":82,"Velocity":75,"Duration":113207,"SoundDuration":113207,"Delta":277895125},{"NoteNumber":73,"Velocity":62,"Duration":119047,"SoundDuration":119047,"Delta":278008332},{"NoteNumber":72,"Velocity":66,"Duration":563910,"SoundDuration":563910,"Delta":278127380},{"NoteNumber":84,"Velocity":79,"Duration":902256,"SoundDuration":902256,"Delta":278127380},{"NoteNumber":52,"Velocity":55,"Duration":112782,"SoundDuration":112782,"Delta":278240162},{"NoteNumber":53,"Velocity":56,"Duration":112781,"SoundDuration":112781,"Delta":278352944},{"NoteNumber":55,"Velocity":58,"Duration":112781,"SoundDuration":112781,"Delta":278465726},{"NoteNumber":56,"Velocity":64,"Duration":112782,"SoundDuration":112782,"Delta":278578508},{"NoteNumber":68,"Velocity":65,"Duration":135338,"SoundDuration":135338,"Delta":278691290},{"NoteNumber":67,"Velocity":63,"Duration":135338,"SoundDuration":135338,"Delta":278804072},{"NoteNumber":58,"Velocity":68,"Duration":112781,"SoundDuration":112781,"Delta":278804072},{"NoteNumber":65,"Velocity":61,"Duration":135170,"SoundDuration":135170,"Delta":278916854},{"NoteNumber":68,"Velocity":71,"Duration":560120,"SoundDuration":560120,"Delta":279029636},{"NoteNumber":60,"Velocity":73,"Duration":560120,"SoundDuration":560120,"Delta":279029636},{"NoteNumber":80,"Velocity":65,"Duration":111940,"SoundDuration":111940,"Delta":279141576},{"NoteNumber":79,"Velocity":69,"Duration":111940,"SoundDuration":111940,"Delta":279253516},{"NoteNumber":77,"Velocity":63,"Duration":111940,"SoundDuration":111940,"Delta":279365457},{"NoteNumber":76,"Velocity":71,"Duration":112359,"SoundDuration":112359,"Delta":279477397},{"NoteNumber":72,"Velocity":61,"Duration":112359,"SoundDuration":112359,"Delta":279589756},{"NoteNumber":56,"Velocity":59,"Duration":112359,"SoundDuration":112359,"Delta":279589756},{"NoteNumber":70,"Velocity":65,"Duration":112359,"SoundDuration":112359,"Delta":279702116},{"NoteNumber":77,"Velocity":65,"Duration":112359,"SoundDuration":112359,"Delta":279702116},{"NoteNumber":55,"Velocity":59,"Duration":112359,"SoundDuration":112359,"Delta":279702116},{"NoteNumber":68,"Velocity":60,"Duration":112359,"SoundDuration":112359,"Delta":279814475},{"NoteNumber":53,"Velocity":59,"Duration":112359,"SoundDuration":112359,"Delta":279814475},{"NoteNumber":80,"Velocity":66,"Duration":112359,"SoundDuration":112359,"Delta":279926835},{"NoteNumber":60,"Velocity":64,"Duration":112359,"SoundDuration":112359,"Delta":279926835},{"NoteNumber":65,"Velocity":69,"Duration":135436,"SoundDuration":135436,"Delta":280039194},{"NoteNumber":82,"Velocity":68,"Duration":115384,"SoundDuration":115384,"Delta":280151554},{"NoteNumber":64,"Velocity":67,"Duration":139974,"SoundDuration":139974,"Delta":280151554},{"NoteNumber":62,"Velocity":65,"Duration":145507,"SoundDuration":145507,"Delta":280266938},{"NoteNumber":84,"Velocity":69,"Duration":563910,"SoundDuration":563910,"Delta":280389889},{"NoteNumber":60,"Velocity":62,"Duration":112781,"SoundDuration":112781,"Delta":280389889},{"NoteNumber":72,"Velocity":62,"Duration":112782,"SoundDuration":112782,"Delta":280502671},{"NoteNumber":58,"Velocity":60,"Duration":112782,"SoundDuration":112782,"Delta":280502671},{"NoteNumber":74,"Velocity":64,"Duration":112781,"SoundDuration":112781,"Delta":280615453},{"NoteNumber":56,"Velocity":57,"Duration":112781,"SoundDuration":112781,"Delta":280615453},{"NoteNumber":76,"Velocity":66,"Duration":112781,"SoundDuration":112781,"Delta":280728235},{"NoteNumber":55,"Velocity":55,"Duration":112781,"SoundDuration":112781,"Delta":280728235},{"NoteNumber":77,"Velocity":68,"Duration":451128,"SoundDuration":451128,"Delta":280841017},{"NoteNumber":53,"Velocity":68,"Duration":225564,"SoundDuration":225564,"Delta":280841017},{"NoteNumber":80,"Velocity":62,"Duration":112781,"SoundDuration":112781,"Delta":280953799},{"NoteNumber":79,"Velocity":65,"Duration":112781,"SoundDuration":112781,"Delta":281066581},{"NoteNumber":77,"Velocity":60,"Duration":112782,"SoundDuration":112782,"Delta":281179363},{"NoteNumber":81,"Velocity":66,"Duration":112781,"SoundDuration":112781,"Delta":281292145},{"NoteNumber":60,"Velocity":64,"Duration":112781,"SoundDuration":112781,"Delta":281292145},{"NoteNumber":63,"Velocity":69,"Duration":136219,"SoundDuration":136219,"Delta":281404927},{"NoteNumber":82,"Velocity":69,"Duration":117187,"SoundDuration":117187,"Delta":281517709},{"NoteNumber":61,"Velocity":67,"Duration":141577,"SoundDuration":141577,"Delta":281517709},{"NoteNumber":60,"Velocity":65,"Duration":144507,"SoundDuration":144507,"Delta":281634897},{"NoteNumber":84,"Velocity":72,"Duration":563910,"SoundDuration":563910,"Delta":281756848},{"NoteNumber":58,"Velocity":62,"Duration":112781,"SoundDuration":112781,"Delta":281756848},{"NoteNumber":72,"Velocity":58,"Duration":112782,"SoundDuration":112782,"Delta":281869630},{"NoteNumber":57,"Velocity":60,"Duration":112782,"SoundDuration":112782,"Delta":281869630},{"NoteNumber":74,"Velocity":61,"Duration":112781,"SoundDuration":112781,"Delta":281982412},{"NoteNumber":55,"Velocity":57,"Duration":112781,"SoundDuration":112781,"Delta":281982412},{"NoteNumber":76,"Velocity":64,"Duration":112781,"SoundDuration":112781,"Delta":282095194},{"NoteNumber":53,"Velocity":55,"Duration":112781,"SoundDuration":112781,"Delta":282095194},{"NoteNumber":77,"Velocity":68,"Duration":334823,"SoundDuration":334823,"Delta":282207976},{"NoteNumber":51,"Velocity":68,"Duration":447786,"SoundDuration":447786,"Delta":282207976},{"NoteNumber":81,"Velocity":63,"Duration":112781,"SoundDuration":112781,"Delta":282320758},{"NoteNumber":79,"Velocity":65,"Duration":111110,"SoundDuration":111110,"Delta":282433540},{"NoteNumber":77,"Velocity":62,"Duration":111110,"SoundDuration":111110,"Delta":282544651},{"NoteNumber":82,"Velocity":68,"Duration":112359,"SoundDuration":112359,"Delta":282655762},{"NoteNumber":49,"Velocity":64,"Duration":112359,"SoundDuration":112359,"Delta":282655762},{"NoteNumber":61,"Velocity":69,"Duration":135260,"SoundDuration":135260,"Delta":282768121},{"NoteNumber":84,"Velocity":71,"Duration":114503,"SoundDuration":114503,"Delta":282880481},{"NoteNumber":60,"Velocity":67,"Duration":139195,"SoundDuration":139195,"Delta":282880481},{"NoteNumber":58,"Velocity":65,"Duration":145928,"SoundDuration":145928,"Delta":282994985},{"NoteNumber":85,"Velocity":74,"Duration":564822,"SoundDuration":564822,"Delta":283118441},{"NoteNumber":57,"Velocity":62,"Duration":112359,"SoundDuration":112359,"Delta":283118441},{"NoteNumber":77,"Velocity":59,"Duration":112359,"SoundDuration":112359,"Delta":283230801},{"NoteNumber":55,"Velocity":60,"Duration":112359,"SoundDuration":112359,"Delta":283230801},{"NoteNumber":79,"Velocity":61,"Duration":112359,"SoundDuration":112359,"Delta":283343160},{"NoteNumber":53,"Velocity":57,"Duration":112359,"SoundDuration":112359,"Delta":283343160},{"NoteNumber":81,"Velocity":63,"Duration":115384,"SoundDuration":115384,"Delta":283455520},{"NoteNumber":51,"Velocity":55,"Duration":115384,"SoundDuration":115384,"Delta":283455520},{"NoteNumber":82,"Velocity":65,"Duration":102996,"SoundDuration":102996,"Delta":283570904},{"NoteNumber":49,"Velocity":68,"Duration":449437,"SoundDuration":449437,"Delta":283570904},{"NoteNumber":82,"Velocity":58,"Duration":337078,"SoundDuration":337078,"Delta":283683264},{"NoteNumber":78,"Velocity":58,"Duration":112359,"SoundDuration":112359,"Delta":283795623},{"NoteNumber":77,"Velocity":56,"Duration":112359,"SoundDuration":112359,"Delta":283907983},{"NoteNumber":81,"Velocity":63,"Duration":457560,"SoundDuration":457560,"Delta":284020342},{"NoteNumber":75,"Velocity":63,"Duration":112359,"SoundDuration":112359,"Delta":284020342},{"NoteNumber":48,"Velocity":64,"Duration":112359,"SoundDuration":112359,"Delta":284020342},{"NoteNumber":60,"Velocity":69,"Duration":134831,"SoundDuration":134831,"Delta":284132702},{"NoteNumber":77,"Velocity":65,"Duration":112359,"SoundDuration":112359,"Delta":284245061},{"NoteNumber":58,"Velocity":67,"Duration":136455,"SoundDuration":136455,"Delta":284245061},{"NoteNumber":57,"Velocity":65,"Duration":142953,"SoundDuration":142953,"Delta":284357421},{"NoteNumber":78,"Velocity":70,"Duration":560962,"SoundDuration":560962,"Delta":284477903},{"NoteNumber":54,"Velocity":62,"Duration":112359,"SoundDuration":112359,"Delta":284477903},{"NoteNumber":81,"Velocity":60,"Duration":112359,"SoundDuration":112359,"Delta":284590262},{"NoteNumber":53,"Velocity":60,"Duration":112359,"SoundDuration":112359,"Delta":284590262},{"NoteNumber":84,"Velocity":62,"Duration":112359,"SoundDuration":112359,"Delta":284702622},{"NoteNumber":51,"Velocity":57,"Duration":112359,"SoundDuration":112359,"Delta":284702622},{"NoteNumber":85,"Velocity":65,"Duration":112359,"SoundDuration":112359,"Delta":284814981},{"NoteNumber":49,"Velocity":55,"Duration":112359,"SoundDuration":112359,"Delta":284814981},{"NoteNumber":87,"Velocity":67,"Duration":447780,"SoundDuration":447780,"Delta":284927341},{"NoteNumber":48,"Velocity":68,"Duration":447780,"SoundDuration":447780,"Delta":284927341},{"NoteNumber":75,"Velocity":60,"Duration":111524,"SoundDuration":111524,"Delta":285038865},{"NoteNumber":73,"Velocity":63,"Duration":111524,"SoundDuration":111524,"Delta":285150389},{"NoteNumber":72,"Velocity":55,"Duration":113207,"SoundDuration":113207,"Delta":285261914},{"NoteNumber":77,"Velocity":65,"Duration":140077,"SoundDuration":140077,"Delta":285375121},{"NoteNumber":50,"Velocity":68,"Duration":116731,"SoundDuration":116731,"Delta":285375121},{"NoteNumber":38,"Velocity":57,"Duration":116731,"SoundDuration":116731,"Delta":285375121},{"NoteNumber":82,"Velocity":69,"Duration":140077,"SoundDuration":140077,"Delta":285491853},{"NoteNumber":81,"Velocity":65,"Duration":141121,"SoundDuration":141121,"Delta":285608584},{"NoteNumber":51,"Velocity":71,"Duration":116731,"SoundDuration":116731,"Delta":285608584},{"NoteNumber":39,"Velocity":60,"Duration":116731,"SoundDuration":116731,"Delta":285608584},{"NoteNumber":79,"Velocity":64,"Duration":144592,"SoundDuration":144592,"Delta":285725316},{"NoteNumber":77,"Velocity":60,"Duration":113207,"SoundDuration":113207,"Delta":285847267},{"NoteNumber":41,"Velocity":64,"Duration":565189,"SoundDuration":565189,"Delta":285847267},{"NoteNumber":53,"Velocity":76,"Duration":565189,"SoundDuration":565189,"Delta":285847267},{"NoteNumber":75,"Velocity":60,"Duration":113207,"SoundDuration":113207,"Delta":285960474},{"NoteNumber":74,"Velocity":60,"Duration":113207,"SoundDuration":113207,"Delta":286073682},{"NoteNumber":72,"Velocity":60,"Duration":113207,"SoundDuration":113207,"Delta":286186889},{"NoteNumber":70,"Velocity":67,"Duration":676710,"SoundDuration":676710,"Delta":286300097},{"NoteNumber":74,"Velocity":67,"Duration":112359,"SoundDuration":112359,"Delta":286300097},{"NoteNumber":77,"Velocity":60,"Duration":112359,"SoundDuration":112359,"Delta":286412456},{"NoteNumber":50,"Velocity":63,"Duration":112359,"SoundDuration":112359,"Delta":286412456},{"NoteNumber":78,"Velocity":60,"Duration":112359,"SoundDuration":112359,"Delta":286524816},{"NoteNumber":48,"Velocity":63,"Duration":112359,"SoundDuration":112359,"Delta":286524816},{"NoteNumber":80,"Velocity":60,"Duration":112359,"SoundDuration":112359,"Delta":286637175},{"NoteNumber":46,"Velocity":63,"Duration":112359,"SoundDuration":112359,"Delta":286637175},{"NoteNumber":79,"Velocity":66,"Duration":136363,"SoundDuration":136363,"Delta":286749535},{"NoteNumber":39,"Velocity":57,"Duration":113636,"SoundDuration":113636,"Delta":286749535},{"NoteNumber":51,"Velocity":68,"Duration":113636,"SoundDuration":113636,"Delta":286749535},{"NoteNumber":82,"Velocity":67,"Duration":136363,"SoundDuration":136363,"Delta":286863171},{"NoteNumber":80,"Velocity":70,"Duration":137258,"SoundDuration":137258,"Delta":286976807},{"NoteNumber":41,"Velocity":57,"Duration":113636,"SoundDuration":113636,"Delta":286976807},{"NoteNumber":53,"Velocity":68,"Duration":113636,"SoundDuration":113636,"Delta":286976807},{"NoteNumber":79,"Velocity":69,"Duration":140582,"SoundDuration":140582,"Delta":287090444},{"NoteNumber":77,"Velocity":68,"Duration":112359,"SoundDuration":112359,"Delta":287208554},{"NoteNumber":43,"Velocity":59,"Duration":561797,"SoundDuration":561797,"Delta":287208554},{"NoteNumber":55,"Velocity":70,"Duration":561797,"SoundDuration":561797,"Delta":287208554},{"NoteNumber":75,"Velocity":66,"Duration":112359,"SoundDuration":112359,"Delta":287320913},{"NoteNumber":63,"Velocity":65,"Duration":337078,"SoundDuration":337078,"Delta":287433273},{"NoteNumber":74,"Velocity":65,"Duration":112359,"SoundDuration":112359,"Delta":287433273},{"NoteNumber":72,"Velocity":64,"Duration":112359,"SoundDuration":112359,"Delta":287545632},{"NoteNumber":70,"Velocity":69,"Duration":446940,"SoundDuration":446940,"Delta":287657992},{"NoteNumber":67,"Velocity":60,"Duration":112359,"SoundDuration":112359,"Delta":287770351},{"NoteNumber":51,"Velocity":64,"Duration":112359,"SoundDuration":112359,"Delta":287770351},{"NoteNumber":68,"Velocity":60,"Duration":111110,"SoundDuration":111110,"Delta":287882711},{"NoteNumber":47,"Velocity":64,"Duration":111110,"SoundDuration":111110,"Delta":287882711},{"NoteNumber":70,"Velocity":60,"Duration":111110,"SoundDuration":111110,"Delta":287993822},{"NoteNumber":46,"Velocity":64,"Duration":111110,"SoundDuration":111110,"Delta":287993822},{"NoteNumber":63,"Velocity":65,"Duration":114503,"SoundDuration":114503,"Delta":288104933},{"NoteNumber":43,"Velocity":57,"Duration":114503,"SoundDuration":114503,"Delta":288104933},{"NoteNumber":55,"Velocity":68,"Duration":114503,"SoundDuration":114503,"Delta":288104933},{"NoteNumber":75,"Velocity":69,"Duration":137404,"SoundDuration":137404,"Delta":288219437},{"NoteNumber":73,"Velocity":68,"Duration":138408,"SoundDuration":138408,"Delta":288333940},{"NoteNumber":44,"Velocity":60,"Duration":114503,"SoundDuration":114503,"Delta":288333940},{"NoteNumber":56,"Velocity":71,"Duration":114503,"SoundDuration":114503,"Delta":288333940},{"NoteNumber":72,"Velocity":67,"Duration":141826,"SoundDuration":141826,"Delta":288448444},{"NoteNumber":70,"Velocity":65,"Duration":111524,"SoundDuration":111524,"Delta":288567966},{"NoteNumber":46,"Velocity":61,"Duration":557621,"SoundDuration":557621,"Delta":288567966},{"NoteNumber":58,"Velocity":72,"Duration":557621,"SoundDuration":557621,"Delta":288567966},{"NoteNumber":68,"Velocity":64,"Duration":111524,"SoundDuration":111524,"Delta":288679490},{"NoteNumber":67,"Velocity":60,"Duration":111524,"SoundDuration":111524,"Delta":288791015},{"NoteNumber":65,"Velocity":60,"Duration":111524,"SoundDuration":111524,"Delta":288902539},{"NoteNumber":67,"Velocity":66,"Duration":111524,"SoundDuration":111524,"Delta":289014063},{"NoteNumber":63,"Velocity":66,"Duration":673521,"SoundDuration":673521,"Delta":289014063},{"NoteNumber":70,"Velocity":61,"Duration":111524,"SoundDuration":111524,"Delta":289125587},{"NoteNumber":55,"Velocity":64,"Duration":111524,"SoundDuration":111524,"Delta":289125587},{"NoteNumber":72,"Velocity":62,"Duration":110294,"SoundDuration":110294,"Delta":289237112},{"NoteNumber":53,"Velocity":64,"Duration":110294,"SoundDuration":110294,"Delta":289237112},{"NoteNumber":73,"Velocity":63,"Duration":110294,"SoundDuration":110294,"Delta":289347406},{"NoteNumber":51,"Velocity":64,"Duration":110294,"SoundDuration":110294,"Delta":289347406},{"NoteNumber":72,"Velocity":64,"Duration":137930,"SoundDuration":137930,"Delta":289457700},{"NoteNumber":44,"Velocity":61,"Duration":114942,"SoundDuration":114942,"Delta":289457700},{"NoteNumber":56,"Velocity":72,"Duration":114942,"SoundDuration":114942,"Delta":289457700},{"NoteNumber":84,"Velocity":70,"Duration":137931,"SoundDuration":137931,"Delta":289572642},{"NoteNumber":82,"Velocity":69,"Duration":138564,"SoundDuration":138564,"Delta":289687585},{"NoteNumber":46,"Velocity":61,"Duration":114942,"SoundDuration":114942,"Delta":289687585},{"NoteNumber":58,"Velocity":72,"Duration":114942,"SoundDuration":114942,"Delta":289687585},{"NoteNumber":80,"Velocity":68,"Duration":140415,"SoundDuration":140415,"Delta":289802527},{"NoteNumber":79,"Velocity":66,"Duration":111524,"SoundDuration":111524,"Delta":289920637},{"NoteNumber":48,"Velocity":63,"Duration":558037,"SoundDuration":558037,"Delta":289920637},{"NoteNumber":60,"Velocity":75,"Duration":558037,"SoundDuration":558037,"Delta":289920637},{"NoteNumber":77,"Velocity":66,"Duration":111524,"SoundDuration":111524,"Delta":290032162},{"NoteNumber":75,"Velocity":63,"Duration":111524,"SoundDuration":111524,"Delta":290143686},{"NoteNumber":73,"Velocity":61,"Duration":111524,"SoundDuration":111524,"Delta":290255210},{"NoteNumber":63,"Velocity":72,"Duration":111940,"SoundDuration":111940,"Delta":290366734},{"NoteNumber":72,"Velocity":65,"Duration":671678,"SoundDuration":671678,"Delta":290366734},{"NoteNumber":56,"Velocity":60,"Duration":134328,"SoundDuration":134328,"Delta":290478675},{"NoteNumber":67,"Velocity":74,"Duration":111940,"SoundDuration":111940,"Delta":290590615},{"NoteNumber":51,"Velocity":59,"Duration":134667,"SoundDuration":134667,"Delta":290590615},{"NoteNumber":48,"Velocity":59,"Duration":113636,"SoundDuration":113636,"Delta":290702555},{"NoteNumber":68,"Velocity":79,"Duration":222221,"SoundDuration":222221,"Delta":290816191},{"NoteNumber":56,"Velocity":69,"Duration":111110,"SoundDuration":111110,"Delta":290816191},{"NoteNumber":51,"Velocity":60,"Duration":111110,"SoundDuration":111110,"Delta":290927302},{"NoteNumber":79,"Velocity":65,"Duration":222221,"SoundDuration":222221,"Delta":291038413},{"NoteNumber":70,"Velocity":78,"Duration":222221,"SoundDuration":222221,"Delta":291038413},{"NoteNumber":48,"Velocity":60,"Duration":111110,"SoundDuration":111110,"Delta":291038413},{"NoteNumber":44,"Velocity":60,"Duration":111110,"SoundDuration":111110,"Delta":291149524},{"NoteNumber":80,"Velocity":65,"Duration":666666,"SoundDuration":666666,"Delta":291260635},{"NoteNumber":72,"Velocity":79,"Duration":222222,"SoundDuration":222222,"Delta":291260635},{"NoteNumber":51,"Velocity":63,"Duration":111111,"SoundDuration":111111,"Delta":291260635},{"NoteNumber":48,"Velocity":58,"Duration":111110,"SoundDuration":111110,"Delta":291371746},{"NoteNumber":73,"Velocity":80,"Duration":222221,"SoundDuration":222221,"Delta":291482857},{"NoteNumber":44,"Velocity":58,"Duration":111110,"SoundDuration":111110,"Delta":291482857},{"NoteNumber":39,"Velocity":58,"Duration":111110,"SoundDuration":111110,"Delta":291593968},{"NoteNumber":75,"Velocity":82,"Duration":453332,"SoundDuration":453332,"Delta":291705079},{"NoteNumber":42,"Velocity":63,"Duration":111110,"SoundDuration":111110,"Delta":291705079},{"NoteNumber":51,"Velocity":58,"Duration":111110,"SoundDuration":111110,"Delta":291816190},{"NoteNumber":84,"Velocity":87,"Duration":231110,"SoundDuration":231110,"Delta":291927301},{"NoteNumber":48,"Velocity":58,"Duration":111110,"SoundDuration":111110,"Delta":291927301},{"NoteNumber":42,"Velocity":58,"Duration":120000,"SoundDuration":120000,"Delta":292038412},{"NoteNumber":73,"Velocity":66,"Duration":135338,"SoundDuration":135338,"Delta":292158412},{"NoteNumber":85,"Velocity":92,"Duration":455533,"SoundDuration":455533,"Delta":292158412},{"NoteNumber":53,"Velocity":72,"Duration":112781,"SoundDuration":112781,"Delta":292158412},{"NoteNumber":41,"Velocity":61,"Duration":112781,"SoundDuration":112781,"Delta":292158412},{"NoteNumber":77,"Velocity":73,"Duration":135338,"SoundDuration":135338,"Delta":292271194},{"NoteNumber":75,"Velocity":71,"Duration":136219,"SoundDuration":136219,"Delta":292383976},{"NoteNumber":42,"Velocity":61,"Duration":112781,"SoundDuration":112781,"Delta":292383976},{"NoteNumber":54,"Velocity":72,"Duration":112781,"SoundDuration":112781,"Delta":292383976},{"NoteNumber":73,"Velocity":69,"Duration":139409,"SoundDuration":139409,"Delta":292496758},{"NoteNumber":72,"Velocity":71,"Duration":111110,"SoundDuration":111110,"Delta":292613946},{"NoteNumber":44,"Velocity":63,"Duration":555555,"SoundDuration":555555,"Delta":292613946},{"NoteNumber":56,"Velocity":75,"Duration":555555,"SoundDuration":555555,"Delta":292613946},{"NoteNumber":70,"Velocity":66,"Duration":111110,"SoundDuration":111110,"Delta":292725057},{"NoteNumber":68,"Velocity":66,"Duration":111110,"SoundDuration":111110,"Delta":292836168},{"NoteNumber":66,"Velocity":66,"Duration":111110,"SoundDuration":111110,"Delta":292947279},{"NoteNumber":65,"Velocity":66,"Duration":670058,"SoundDuration":670058,"Delta":293058390},{"NoteNumber":68,"Velocity":79,"Duration":111111,"SoundDuration":111111,"Delta":293058390},{"NoteNumber":53,"Velocity":60,"Duration":133333,"SoundDuration":133333,"Delta":293169501},{"NoteNumber":72,"Velocity":81,"Duration":111110,"SoundDuration":111110,"Delta":293280612},{"NoteNumber":49,"Velocity":59,"Duration":134011,"SoundDuration":134011,"Delta":293280612},{"NoteNumber":44,"Velocity":59,"Duration":114503,"SoundDuration":114503,"Delta":293391723},{"NoteNumber":73,"Velocity":85,"Duration":669238,"SoundDuration":669238,"Delta":293506227},{"NoteNumber":53,"Velocity":69,"Duration":111110,"SoundDuration":111110,"Delta":293506227},{"NoteNumber":48,"Velocity":60,"Duration":111110,"SoundDuration":111110,"Delta":293617338},{"NoteNumber":66,"Velocity":72,"Duration":111110,"SoundDuration":111110,"Delta":293728449},{"NoteNumber":44,"Velocity":60,"Duration":111110,"SoundDuration":111110,"Delta":293728449},{"NoteNumber":41,"Velocity":60,"Duration":114503,"SoundDuration":114503,"Delta":293839560},{"NoteNumber":68,"Velocity":79,"Duration":664205,"SoundDuration":664205,"Delta":293954063},{"NoteNumber":49,"Velocity":63,"Duration":110701,"SoundDuration":110701,"Delta":293954063},{"NoteNumber":44,"Velocity":58,"Duration":110701,"SoundDuration":110701,"Delta":294064764},{"NoteNumber":76,"Velocity":79,"Duration":221402,"SoundDuration":221402,"Delta":294175465},{"NoteNumber":41,"Velocity":58,"Duration":110701,"SoundDuration":110701,"Delta":294175465},{"NoteNumber":37,"Velocity":58,"Duration":110701,"SoundDuration":110701,"Delta":294286166},{"NoteNumber":77,"Velocity":84,"Duration":221401,"SoundDuration":221401,"Delta":294396867},{"NoteNumber":44,"Velocity":63,"Duration":110700,"SoundDuration":110700,"Delta":294396867},{"NoteNumber":41,"Velocity":58,"Duration":110701,"SoundDuration":110701,"Delta":294507568},{"NoteNumber":70,"Velocity":74,"Duration":679601,"SoundDuration":679601,"Delta":294618269},{"NoteNumber":78,"Velocity":86,"Duration":334609,"SoundDuration":334609,"Delta":294618269},{"NoteNumber":39,"Velocity":58,"Duration":110701,"SoundDuration":110701,"Delta":294618269},{"NoteNumber":37,"Velocity":58,"Duration":110701,"SoundDuration":110701,"Delta":294728970},{"NoteNumber":58,"Velocity":72,"Duration":113207,"SoundDuration":113207,"Delta":294839671},{"NoteNumber":46,"Velocity":61,"Duration":113207,"SoundDuration":113207,"Delta":294839671},{"NoteNumber":82,"Velocity":83,"Duration":135849,"SoundDuration":135849,"Delta":294952879},{"NoteNumber":80,"Velocity":80,"Duration":136922,"SoundDuration":136922,"Delta":295066086},{"NoteNumber":59,"Velocity":72,"Duration":113207,"SoundDuration":113207,"Delta":295066086},{"NoteNumber":47,"Velocity":61,"Duration":113207,"SoundDuration":113207,"Delta":295066086},{"NoteNumber":78,"Velocity":77,"Duration":140881,"SoundDuration":140881,"Delta":295179294},{"NoteNumber":77,"Velocity":81,"Duration":111524,"SoundDuration":111524,"Delta":295297871},{"NoteNumber":61,"Velocity":75,"Duration":557621,"SoundDuration":557621,"Delta":295297871},{"NoteNumber":49,"Velocity":63,"Duration":557621,"SoundDuration":557621,"Delta":295297871},{"NoteNumber":75,"Velocity":72,"Duration":111524,"SoundDuration":111524,"Delta":295409395},{"NoteNumber":73,"Velocity":72,"Duration":111524,"SoundDuration":111524,"Delta":295520919},{"NoteNumber":71,"Velocity":72,"Duration":111524,"SoundDuration":111524,"Delta":295632444},{"NoteNumber":61,"Velocity":72,"Duration":111524,"SoundDuration":111524,"Delta":295743968},{"NoteNumber":70,"Velocity":72,"Duration":673526,"SoundDuration":673526,"Delta":295743968},{"NoteNumber":58,"Velocity":60,"Duration":133829,"SoundDuration":133829,"Delta":295855492},{"NoteNumber":65,"Velocity":75,"Duration":111524,"SoundDuration":111524,"Delta":295967016},{"NoteNumber":54,"Velocity":59,"Duration":134870,"SoundDuration":134870,"Delta":295967016},{"NoteNumber":49,"Velocity":59,"Duration":116731,"SoundDuration":116731,"Delta":296078541},{"NoteNumber":66,"Velocity":78,"Duration":665845,"SoundDuration":665845,"Delta":296195272},{"NoteNumber":58,"Velocity":69,"Duration":111110,"SoundDuration":111110,"Delta":296195272},{"NoteNumber":54,"Velocity":60,"Duration":111110,"SoundDuration":111110,"Delta":296306383},{"NoteNumber":71,"Velocity":72,"Duration":222221,"SoundDuration":222221,"Delta":296417494},{"NoteNumber":49,"Velocity":60,"Duration":111110,"SoundDuration":111110,"Delta":296417494},{"NoteNumber":46,"Velocity":60,"Duration":111110,"SoundDuration":111110,"Delta":296528605},{"NoteNumber":73,"Velocity":76,"Duration":664205,"SoundDuration":664205,"Delta":296639716},{"NoteNumber":54,"Velocity":63,"Duration":110701,"SoundDuration":110701,"Delta":296639716},{"NoteNumber":49,"Velocity":58,"Duration":110701,"SoundDuration":110701,"Delta":296750417},{"NoteNumber":68,"Velocity":66,"Duration":221402,"SoundDuration":221402,"Delta":296861118},{"NoteNumber":46,"Velocity":58,"Duration":110701,"SoundDuration":110701,"Delta":296861118},{"NoteNumber":42,"Velocity":58,"Duration":110701,"SoundDuration":110701,"Delta":296971819},{"NoteNumber":70,"Velocity":73,"Duration":221401,"SoundDuration":221401,"Delta":297082520},{"NoteNumber":49,"Velocity":63,"Duration":110700,"SoundDuration":110700,"Delta":297082520},{"NoteNumber":46,"Velocity":58,"Duration":110701,"SoundDuration":110701,"Delta":297193221},{"NoteNumber":82,"Velocity":66,"Duration":221402,"SoundDuration":221402,"Delta":297303922},{"NoteNumber":78,"Velocity":66,"Duration":334609,"SoundDuration":334609,"Delta":297303922},{"NoteNumber":44,"Velocity":58,"Duration":110701,"SoundDuration":110701,"Delta":297303922},{"NoteNumber":42,"Velocity":58,"Duration":110701,"SoundDuration":110701,"Delta":297414623},{"NoteNumber":83,"Velocity":72,"Duration":226414,"SoundDuration":226414,"Delta":297525324},{"NoteNumber":50,"Velocity":72,"Duration":113207,"SoundDuration":113207,"Delta":297525324},{"NoteNumber":38,"Velocity":61,"Duration":113207,"SoundDuration":113207,"Delta":297525324},{"NoteNumber":74,"Velocity":66,"Duration":135849,"SoundDuration":135849,"Delta":297638532},{"NoteNumber":73,"Velocity":66,"Duration":137017,"SoundDuration":137017,"Delta":297751739},{"NoteNumber":52,"Velocity":72,"Duration":113207,"SoundDuration":113207,"Delta":297751739},{"NoteNumber":40,"Velocity":61,"Duration":113207,"SoundDuration":113207,"Delta":297751739},{"NoteNumber":71,"Velocity":66,"Duration":141352,"SoundDuration":141352,"Delta":297864947},{"NoteNumber":70,"Velocity":70,"Duration":111524,"SoundDuration":111524,"Delta":297983994},{"NoteNumber":54,"Velocity":75,"Duration":557621,"SoundDuration":557621,"Delta":297983994},{"NoteNumber":42,"Velocity":63,"Duration":557621,"SoundDuration":557621,"Delta":297983994},{"NoteNumber":67,"Velocity":68,"Duration":111524,"SoundDuration":111524,"Delta":298095518},{"NoteNumber":66,"Velocity":67,"Duration":111524,"SoundDuration":111524,"Delta":298207043},{"NoteNumber":64,"Velocity":66,"Duration":111524,"SoundDuration":111524,"Delta":298318567},{"NoteNumber":62,"Velocity":71,"Duration":675184,"SoundDuration":675184,"Delta":298430091},{"NoteNumber":66,"Velocity":71,"Duration":111524,"SoundDuration":111524,"Delta":298430091},{"NoteNumber":50,"Velocity":60,"Duration":133829,"SoundDuration":133829,"Delta":298541615},{"NoteNumber":70,"Velocity":74,"Duration":111524,"SoundDuration":111524,"Delta":298653140},{"NoteNumber":47,"Velocity":59,"Duration":134870,"SoundDuration":134870,"Delta":298653140},{"NoteNumber":42,"Velocity":59,"Duration":116731,"SoundDuration":116731,"Delta":298764664},{"NoteNumber":71,"Velocity":79,"Duration":671641,"SoundDuration":671641,"Delta":298881395},{"NoteNumber":50,"Velocity":69,"Duration":111940,"SoundDuration":111940,"Delta":298881395},{"NoteNumber":47,"Velocity":60,"Duration":111940,"SoundDuration":111940,"Delta":298993336},{"NoteNumber":64,"Velocity":73,"Duration":223880,"SoundDuration":223880,"Delta":299105276},{"NoteNumber":42,"Velocity":60,"Duration":111940,"SoundDuration":111940,"Delta":299105276},{"NoteNumber":38,"Velocity":60,"Duration":111940,"SoundDuration":111940,"Delta":299217216},{"NoteNumber":66,"Velocity":76,"Duration":671641,"SoundDuration":671641,"Delta":299329156},{"NoteNumber":47,"Velocity":63,"Duration":111940,"SoundDuration":111940,"Delta":299329156},{"NoteNumber":42,"Velocity":58,"Duration":111940,"SoundDuration":111940,"Delta":299441097},{"NoteNumber":73,"Velocity":71,"Duration":223880,"SoundDuration":223880,"Delta":299553037},{"NoteNumber":38,"Velocity":58,"Duration":111940,"SoundDuration":111940,"Delta":299553037},{"NoteNumber":35,"Velocity":58,"Duration":111940,"SoundDuration":111940,"Delta":299664977},{"NoteNumber":74,"Velocity":75,"Duration":223880,"SoundDuration":223880,"Delta":299776917},{"NoteNumber":42,"Velocity":65,"Duration":111940,"SoundDuration":111940,"Delta":299776917},{"NoteNumber":38,"Velocity":58,"Duration":111940,"SoundDuration":111940,"Delta":299888858},{"NoteNumber":73,"Velocity":78,"Duration":232422,"SoundDuration":232422,"Delta":300000798},{"NoteNumber":76,"Velocity":78,"Duration":232422,"SoundDuration":232422,"Delta":300000798},{"NoteNumber":37,"Velocity":63,"Duration":111940,"SoundDuration":111940,"Delta":300000798},{"NoteNumber":35,"Velocity":66,"Duration":120481,"SoundDuration":120481,"Delta":300112738},{"NoteNumber":78,"Velocity":86,"Duration":114942,"SoundDuration":114942,"Delta":300233220},{"NoteNumber":74,"Velocity":65,"Duration":229885,"SoundDuration":229885,"Delta":300233220},{"NoteNumber":30,"Velocity":74,"Duration":229885,"SoundDuration":229885,"Delta":300233220},{"NoteNumber":82,"Velocity":90,"Duration":114942,"SoundDuration":114942,"Delta":300463105},{"NoteNumber":73,"Velocity":65,"Duration":138942,"SoundDuration":138942,"Delta":300463105},{"NoteNumber":71,"Velocity":65,"Duration":120000,"SoundDuration":120000,"Delta":300578048},{"NoteNumber":83,"Velocity":90,"Duration":672511,"SoundDuration":672511,"Delta":300698048},{"NoteNumber":74,"Velocity":65,"Duration":133829,"SoundDuration":133829,"Delta":300698048},{"NoteNumber":71,"Velocity":60,"Duration":133829,"SoundDuration":133829,"Delta":300809572},{"NoteNumber":67,"Velocity":61,"Duration":133829,"SoundDuration":133829,"Delta":300921096},{"NoteNumber":66,"Velocity":61,"Duration":111524,"SoundDuration":111524,"Delta":301032620},{"NoteNumber":71,"Velocity":65,"Duration":135849,"SoundDuration":135849,"Delta":301144145},{"NoteNumber":66,"Velocity":58,"Duration":135849,"SoundDuration":135849,"Delta":301257352},{"NoteNumber":85,"Velocity":90,"Duration":113207,"SoundDuration":113207,"Delta":301370560},{"NoteNumber":64,"Velocity":58,"Duration":135849,"SoundDuration":135849,"Delta":301370560},{"NoteNumber":62,"Velocity":58,"Duration":113207,"SoundDuration":113207,"Delta":301483767},{"NoteNumber":86,"Velocity":94,"Duration":114503,"SoundDuration":114503,"Delta":301596975},{"NoteNumber":66,"Velocity":63,"Duration":137404,"SoundDuration":137404,"Delta":301596975},{"NoteNumber":62,"Velocity":54,"Duration":138219,"SoundDuration":138219,"Delta":301711478},{"NoteNumber":88,"Velocity":97,"Duration":118577,"SoundDuration":118577,"Delta":301825982},{"NoteNumber":61,"Velocity":54,"Duration":143893,"SoundDuration":143893,"Delta":301825982},{"NoteNumber":59,"Velocity":54,"Duration":126582,"SoundDuration":126582,"Delta":301944559},{"NoteNumber":90,"Velocity":99,"Duration":227272,"SoundDuration":227272,"Delta":302071141},{"NoteNumber":62,"Velocity":59,"Duration":136363,"SoundDuration":136363,"Delta":302071141},{"NoteNumber":59,"Velocity":49,"Duration":136363,"SoundDuration":136363,"Delta":302184778},{"NoteNumber":55,"Velocity":50,"Duration":136363,"SoundDuration":136363,"Delta":302298414},{"NoteNumber":54,"Velocity":50,"Duration":113636,"SoundDuration":113636,"Delta":302412050},{"NoteNumber":78,"Velocity":71,"Duration":223880,"SoundDuration":223880,"Delta":302525686},{"NoteNumber":55,"Velocity":59,"Duration":111940,"SoundDuration":111940,"Delta":302525686},{"NoteNumber":54,"Velocity":41,"Duration":134328,"SoundDuration":134328,"Delta":302637627},{"NoteNumber":56,"Velocity":41,"Duration":134328,"SoundDuration":134328,"Delta":302749567},{"NoteNumber":58,"Velocity":41,"Duration":112180,"SoundDuration":112180,"Delta":302861507},{"NoteNumber":59,"Velocity":40,"Duration":136217,"SoundDuration":136217,"Delta":302973688},{"NoteNumber":61,"Velocity":36,"Duration":135703,"SoundDuration":135703,"Delta":303087263},{"NoteNumber":62,"Velocity":37,"Duration":135194,"SoundDuration":135194,"Delta":303200410},{"NoteNumber":64,"Velocity":39,"Duration":134688,"SoundDuration":134688,"Delta":303313133},{"NoteNumber":66,"Velocity":40,"Duration":134186,"SoundDuration":134186,"Delta":303425433},{"NoteNumber":67,"Velocity":41,"Duration":133605,"SoundDuration":133605,"Delta":303537314},{"NoteNumber":66,"Velocity":41,"Duration":133474,"SoundDuration":133474,"Delta":303648697},{"NoteNumber":65,"Velocity":40,"Duration":133888,"SoundDuration":133888,"Delta":303759867},{"NoteNumber":78,"Velocity":57,"Duration":450021,"SoundDuration":450021,"Delta":303871391},{"NoteNumber":64,"Velocity":38,"Duration":134363,"SoundDuration":134363,"Delta":303871391},{"NoteNumber":62,"Velocity":37,"Duration":134806,"SoundDuration":134806,"Delta":303983307},{"NoteNumber":61,"Velocity":36,"Duration":135229,"SoundDuration":135229,"Delta":304095642},{"NoteNumber":59,"Velocity":35,"Duration":113097,"SoundDuration":113097,"Delta":304208315},{"NoteNumber":76,"Velocity":56,"Duration":895778,"SoundDuration":895778,"Delta":304321412},{"NoteNumber":61,"Velocity":35,"Duration":134448,"SoundDuration":134448,"Delta":304321412},{"NoteNumber":62,"Velocity":37,"Duration":134688,"SoundDuration":134688,"Delta":304433389},{"NoteNumber":61,"Velocity":36,"Duration":134328,"SoundDuration":134328,"Delta":304545689},{"NoteNumber":60,"Velocity":36,"Duration":133936,"SoundDuration":133936,"Delta":304657629},{"NoteNumber":59,"Velocity":35,"Duration":133498,"SoundDuration":133498,"Delta":304769261},{"NoteNumber":58,"Velocity":34,"Duration":134030,"SoundDuration":134030,"Delta":304880479},{"NoteNumber":56,"Velocity":33,"Duration":134699,"SoundDuration":134699,"Delta":304992121},{"NoteNumber":54,"Velocity":32,"Duration":135207,"SoundDuration":135207,"Delta":305104288},{"NoteNumber":73,"Velocity":50,"Duration":446097,"SoundDuration":446097,"Delta":305217191},{"NoteNumber":56,"Velocity":36,"Duration":133829,"SoundDuration":133829,"Delta":305217191},{"NoteNumber":58,"Velocity":35,"Duration":133829,"SoundDuration":133829,"Delta":305328715},{"NoteNumber":59,"Velocity":39,"Duration":133829,"SoundDuration":133829,"Delta":305440240},{"NoteNumber":58,"Velocity":34,"Duration":133829,"SoundDuration":133829,"Delta":305551764},{"NoteNumber":74,"Velocity":56,"Duration":899030,"SoundDuration":899030,"Delta":305663288},{"NoteNumber":59,"Velocity":36,"Duration":133829,"SoundDuration":133829,"Delta":305663288},{"NoteNumber":61,"Velocity":34,"Duration":133829,"SoundDuration":133829,"Delta":305774812},{"NoteNumber":62,"Velocity":41,"Duration":133829,"SoundDuration":133829,"Delta":305886337},{"NoteNumber":61,"Velocity":35,"Duration":133829,"SoundDuration":133829,"Delta":305997861},{"NoteNumber":62,"Velocity":39,"Duration":133829,"SoundDuration":133829,"Delta":306109385},{"NoteNumber":64,"Velocity":36,"Duration":111524,"SoundDuration":111524,"Delta":306220909},{"NoteNumber":73,"Velocity":50,"Duration":889148,"SoundDuration":889148,"Delta":306562319},{"NoteNumber":64,"Velocity":36,"Duration":446097,"SoundDuration":446097,"Delta":306562319},{"NoteNumber":59,"Velocity":39,"Duration":133687,"SoundDuration":133687,"Delta":307008416},{"NoteNumber":61,"Velocity":39,"Duration":133193,"SoundDuration":133193,"Delta":307119881},{"NoteNumber":62,"Velocity":34,"Duration":132401,"SoundDuration":132401,"Delta":307230934},{"NoteNumber":64,"Velocity":34,"Duration":132225,"SoundDuration":132225,"Delta":307341358},{"NoteNumber":71,"Velocity":50,"Duration":449507,"SoundDuration":449507,"Delta":307451467},{"NoteNumber":66,"Velocity":39,"Duration":133039,"SoundDuration":133039,"Delta":307451467},{"NoteNumber":67,"Velocity":34,"Duration":111417,"SoundDuration":111417,"Delta":307562284},{"NoteNumber":71,"Velocity":50,"Duration":444443,"SoundDuration":444443,"Delta":307900974},{"NoteNumber":67,"Velocity":36,"Duration":444443,"SoundDuration":444443,"Delta":307900974},{"NoteNumber":71,"Velocity":56,"Duration":450359,"SoundDuration":450359,"Delta":308345418},{"NoteNumber":62,"Velocity":39,"Duration":133333,"SoundDuration":133333,"Delta":308345418},{"NoteNumber":64,"Velocity":36,"Duration":133924,"SoundDuration":133924,"Delta":308456529},{"NoteNumber":66,"Velocity":36,"Duration":136882,"SoundDuration":136882,"Delta":308567640},{"NoteNumber":68,"Velocity":36,"Duration":136624,"SoundDuration":136624,"Delta":308681709},{"NoteNumber":66,"Velocity":50,"Duration":463659,"SoundDuration":463659,"Delta":308795777},{"NoteNumber":70,"Velocity":39,"Duration":135338,"SoundDuration":135338,"Delta":308795777},{"NoteNumber":71,"Velocity":35,"Duration":112782,"SoundDuration":112782,"Delta":308908559},{"NoteNumber":74,"Velocity":56,"Duration":443085,"SoundDuration":443085,"Delta":309259436},{"NoteNumber":71,"Velocity":36,"Duration":443085,"SoundDuration":443085,"Delta":309259436},{"NoteNumber":73,"Velocity":56,"Duration":443727,"SoundDuration":443727,"Delta":309702522},{"NoteNumber":70,"Velocity":33,"Duration":74349,"SoundDuration":74349,"Delta":309702522},{"NoteNumber":71,"Velocity":27,"Duration":74235,"SoundDuration":74235,"Delta":309776871},{"NoteNumber":70,"Velocity":32,"Duration":74073,"SoundDuration":74073,"Delta":309851107},{"NoteNumber":71,"Velocity":28,"Duration":73906,"SoundDuration":73906,"Delta":309925181},{"NoteNumber":70,"Velocity":32,"Duration":73800,"SoundDuration":73800,"Delta":309999088},{"NoteNumber":71,"Velocity":32,"Duration":73361,"SoundDuration":73361,"Delta":310072888},{"NoteNumber":66,"Velocity":56,"Duration":220160,"SoundDuration":220160,"Delta":310146250},{"NoteNumber":70,"Velocity":33,"Duration":73260,"SoundDuration":73260,"Delta":310146250},{"NoteNumber":71,"Velocity":33,"Duration":73371,"SoundDuration":73371,"Delta":310219510},{"NoteNumber":70,"Velocity":28,"Duration":73529,"SoundDuration":73529,"Delta":310292881},{"NoteNumber":71,"Velocity":33,"Duration":55163,"SoundDuration":55163,"Delta":310366410},{"NoteNumber":70,"Velocity":29,"Duration":55350,"SoundDuration":55350,"Delta":310421574},{"NoteNumber":68,"Velocity":29,"Duration":55350,"SoundDuration":55350,"Delta":310476924},{"NoteNumber":70,"Velocity":30,"Duration":55350,"SoundDuration":55350,"Delta":310532275},{"NoteNumber":82,"Velocity":46,"Duration":73800,"SoundDuration":73800,"Delta":310587625},{"NoteNumber":54,"Velocity":50,"Duration":221181,"SoundDuration":221181,"Delta":310587625},{"NoteNumber":83,"Velocity":37,"Duration":73800,"SoundDuration":73800,"Delta":310661426},{"NoteNumber":82,"Velocity":45,"Duration":73580,"SoundDuration":73580,"Delta":310735227},{"NoteNumber":83,"Velocity":40,"Duration":73529,"SoundDuration":73529,"Delta":310808807},{"NoteNumber":82,"Velocity":45,"Duration":73418,"SoundDuration":73418,"Delta":310882336},{"NoteNumber":83,"Velocity":45,"Duration":73260,"SoundDuration":73260,"Delta":310955755},{"NoteNumber":82,"Velocity":46,"Duration":73176,"SoundDuration":73176,"Delta":311029015},{"NoteNumber":83,"Velocity":46,"Duration":72645,"SoundDuration":72645,"Delta":311102191},{"NoteNumber":82,"Velocity":40,"Duration":73137,"SoundDuration":73137,"Delta":311174837},{"NoteNumber":83,"Velocity":46,"Duration":55425,"SoundDuration":55425,"Delta":311247974},{"NoteNumber":82,"Velocity":41,"Duration":55755,"SoundDuration":55755,"Delta":311303400},{"NoteNumber":80,"Velocity":41,"Duration":56275,"SoundDuration":56275,"Delta":311359155},{"NoteNumber":82,"Velocity":42,"Duration":56750,"SoundDuration":56750,"Delta":311415430},{"NoteNumber":83,"Velocity":54,"Duration":451439,"SoundDuration":451439,"Delta":311472181},{"NoteNumber":59,"Velocity":50,"Duration":219780,"SoundDuration":219780,"Delta":311472181},{"NoteNumber":74,"Velocity":36,"Duration":74887,"SoundDuration":74887,"Delta":311923621},{"NoteNumber":76,"Velocity":34,"Duration":74094,"SoundDuration":74094,"Delta":311998508},{"NoteNumber":74,"Velocity":37,"Duration":73770,"SoundDuration":73770,"Delta":312072603},{"NoteNumber":83,"Velocity":46,"Duration":109991,"SoundDuration":109991,"Delta":312146373},{"NoteNumber":76,"Velocity":35,"Duration":73391,"SoundDuration":73391,"Delta":312146373},{"NoteNumber":74,"Velocity":39,"Duration":73096,"SoundDuration":73096,"Delta":312219764},{"NoteNumber":81,"Velocity":40,"Duration":109299,"SoundDuration":109299,"Delta":312256364},{"NoteNumber":76,"Velocity":36,"Duration":72803,"SoundDuration":72803,"Delta":312292861},{"NoteNumber":79,"Velocity":47,"Duration":108217,"SoundDuration":108217,"Delta":312365664},{"NoteNumber":74,"Velocity":40,"Duration":72246,"SoundDuration":72246,"Delta":312365664},{"NoteNumber":76,"Velocity":37,"Duration":71945,"SoundDuration":71945,"Delta":312437910},{"NoteNumber":78,"Velocity":40,"Duration":108176,"SoundDuration":108176,"Delta":312473882},{"NoteNumber":74,"Velocity":41,"Duration":72202,"SoundDuration":72202,"Delta":312509856},{"NoteNumber":76,"Velocity":43,"Duration":108676,"SoundDuration":108676,"Delta":312582058},{"NoteNumber":74,"Velocity":42,"Duration":54377,"SoundDuration":54377,"Delta":312636357},{"NoteNumber":78,"Velocity":40,"Duration":109200,"SoundDuration":109200,"Delta":312690735},{"NoteNumber":73,"Velocity":43,"Duration":54545,"SoundDuration":54545,"Delta":312690735},{"NoteNumber":74,"Velocity":48,"Duration":54654,"SoundDuration":54654,"Delta":312745280},{"NoteNumber":79,"Velocity":45,"Duration":109488,"SoundDuration":109488,"Delta":312799935},{"NoteNumber":76,"Velocity":54,"Duration":437955,"SoundDuration":437955,"Delta":312799935},{"NoteNumber":81,"Velocity":40,"Duration":109488,"SoundDuration":109488,"Delta":312909424},{"NoteNumber":79,"Velocity":44,"Duration":109488,"SoundDuration":109488,"Delta":313018913},{"NoteNumber":78,"Velocity":40,"Duration":109488,"SoundDuration":109488,"Delta":313128402},{"NoteNumber":76,"Velocity":42,"Duration":109488,"SoundDuration":109488,"Delta":313237891},{"NoteNumber":45,"Velocity":50,"Duration":218977,"SoundDuration":218977,"Delta":313237891},{"NoteNumber":67,"Velocity":41,"Duration":438695,"SoundDuration":438695,"Delta":313237891},{"NoteNumber":74,"Velocity":40,"Duration":109488,"SoundDuration":109488,"Delta":313347380},{"NoteNumber":73,"Velocity":37,"Duration":109488,"SoundDuration":109488,"Delta":313456869},{"NoteNumber":74,"Velocity":40,"Duration":110228,"SoundDuration":110228,"Delta":313566358},{"NoteNumber":76,"Velocity":44,"Duration":110285,"SoundDuration":110285,"Delta":313676587},{"NoteNumber":61,"Velocity":36,"Duration":73661,"SoundDuration":73661,"Delta":313676587},{"NoteNumber":62,"Velocity":34,"Duration":73116,"SoundDuration":73116,"Delta":313750248},{"NoteNumber":74,"Velocity":40,"Duration":109082,"SoundDuration":109082,"Delta":313786872},{"NoteNumber":61,"Velocity":37,"Duration":72589,"SoundDuration":72589,"Delta":313823365},{"NoteNumber":73,"Velocity":40,"Duration":107905,"SoundDuration":107905,"Delta":313895954},{"NoteNumber":62,"Velocity":35,"Duration":72069,"SoundDuration":72069,"Delta":313895954},{"NoteNumber":61,"Velocity":39,"Duration":71547,"SoundDuration":71547,"Delta":313968023},{"NoteNumber":71,"Velocity":40,"Duration":106725,"SoundDuration":106725,"Delta":314003859},{"NoteNumber":62,"Velocity":36,"Duration":71014,"SoundDuration":71014,"Delta":314039570},{"NoteNumber":69,"Velocity":44,"Duration":105989,"SoundDuration":105989,"Delta":314110584},{"NoteNumber":61,"Velocity":40,"Duration":70550,"SoundDuration":70550,"Delta":314110584},{"NoteNumber":62,"Velocity":37,"Duration":70978,"SoundDuration":70978,"Delta":314181134},{"NoteNumber":68,"Velocity":36,"Duration":107000,"SoundDuration":107000,"Delta":314216573},{"NoteNumber":61,"Velocity":41,"Duration":71461,"SoundDuration":71461,"Delta":314252113},{"NoteNumber":69,"Velocity":40,"Duration":108079,"SoundDuration":108079,"Delta":314323574},{"NoteNumber":62,"Velocity":37,"Duration":53908,"SoundDuration":53908,"Delta":314323574},{"NoteNumber":61,"Velocity":43,"Duration":54171,"SoundDuration":54171,"Delta":314377483},{"NoteNumber":67,"Velocity":38,"Duration":109484,"SoundDuration":109484,"Delta":314431654},{"NoteNumber":59,"Velocity":43,"Duration":54417,"SoundDuration":54417,"Delta":314431654},{"NoteNumber":61,"Velocity":48,"Duration":55067,"SoundDuration":55067,"Delta":314486071},{"NoteNumber":66,"Velocity":38,"Duration":109882,"SoundDuration":109882,"Delta":314541139},{"NoteNumber":62,"Velocity":54,"Duration":438349,"SoundDuration":438349,"Delta":314541139},{"NoteNumber":69,"Velocity":39,"Duration":107664,"SoundDuration":107664,"Delta":314651022},{"NoteNumber":71,"Velocity":40,"Duration":109488,"SoundDuration":109488,"Delta":314760511},{"NoteNumber":69,"Velocity":44,"Duration":218977,"SoundDuration":218977,"Delta":314760511},{"NoteNumber":73,"Velocity":41,"Duration":109488,"SoundDuration":109488,"Delta":314870000},{"NoteNumber":74,"Velocity":41,"Duration":107913,"SoundDuration":107913,"Delta":314979489},{"NoteNumber":71,"Velocity":50,"Duration":215827,"SoundDuration":215827,"Delta":314979489},{"NoteNumber":76,"Velocity":44,"Duration":107913,"SoundDuration":107913,"Delta":315087403},{"NoteNumber":78,"Velocity":46,"Duration":107913,"SoundDuration":107913,"Delta":315195317},{"NoteNumber":67,"Velocity":49,"Duration":215827,"SoundDuration":215827,"Delta":315195317},{"NoteNumber":79,"Velocity":48,"Duration":107913,"SoundDuration":107913,"Delta":315303230},{"NoteNumber":81,"Velocity":50,"Duration":109090,"SoundDuration":109090,"Delta":315411144},{"NoteNumber":66,"Velocity":47,"Duration":218182,"SoundDuration":218182,"Delta":315411144},{"NoteNumber":83,"Velocity":47,"Duration":109091,"SoundDuration":109091,"Delta":315520235},{"NoteNumber":81,"Velocity":49,"Duration":109090,"SoundDuration":109090,"Delta":315629326},{"NoteNumber":65,"Velocity":45,"Duration":224475,"SoundDuration":224475,"Delta":315629326},{"NoteNumber":80,"Velocity":49,"Duration":115384,"SoundDuration":115384,"Delta":315738417},{"NoteNumber":79,"Velocity":48,"Duration":109488,"SoundDuration":109488,"Delta":315853802},{"NoteNumber":66,"Velocity":47,"Duration":868201,"SoundDuration":868201,"Delta":315853802},{"NoteNumber":57,"Velocity":47,"Duration":437955,"SoundDuration":437955,"Delta":315853802},{"NoteNumber":78,"Velocity":42,"Duration":109488,"SoundDuration":109488,"Delta":315963291},{"NoteNumber":76,"Velocity":42,"Duration":109488,"SoundDuration":109488,"Delta":316072780},{"NoteNumber":75,"Velocity":44,"Duration":109488,"SoundDuration":109488,"Delta":316182269},{"NoteNumber":76,"Velocity":50,"Duration":109488,"SoundDuration":109488,"Delta":316291758},{"NoteNumber":55,"Velocity":47,"Duration":868201,"SoundDuration":868201,"Delta":316291758},{"NoteNumber":78,"Velocity":40,"Duration":109488,"SoundDuration":109488,"Delta":316401247},{"NoteNumber":76,"Velocity":40,"Duration":105633,"SoundDuration":105633,"Delta":316510736},{"NoteNumber":75,"Velocity":40,"Duration":105633,"SoundDuration":105633,"Delta":316616369},{"NoteNumber":74,"Velocity":47,"Duration":109488,"SoundDuration":109488,"Delta":316722003},{"NoteNumber":64,"Velocity":51,"Duration":437955,"SoundDuration":437955,"Delta":316722003},{"NoteNumber":73,"Velocity":40,"Duration":109488,"SoundDuration":109488,"Delta":316831492},{"NoteNumber":71,"Velocity":40,"Duration":109488,"SoundDuration":109488,"Delta":316940981},{"NoteNumber":69,"Velocity":40,"Duration":109488,"SoundDuration":109488,"Delta":317050470},{"NoteNumber":71,"Velocity":44,"Duration":109488,"SoundDuration":109488,"Delta":317159959},{"NoteNumber":55,"Velocity":47,"Duration":444542,"SoundDuration":444542,"Delta":317159959},{"NoteNumber":52,"Velocity":47,"Duration":444542,"SoundDuration":444542,"Delta":317159959},{"NoteNumber":73,"Velocity":37,"Duration":109488,"SoundDuration":109488,"Delta":317269448},{"NoteNumber":74,"Velocity":40,"Duration":112781,"SoundDuration":112781,"Delta":317378937},{"NoteNumber":73,"Velocity":36,"Duration":112782,"SoundDuration":112782,"Delta":317491719},{"NoteNumber":74,"Velocity":41,"Duration":109488,"SoundDuration":109488,"Delta":317604501},{"NoteNumber":59,"Velocity":47,"Duration":434032,"SoundDuration":434032,"Delta":317604501},{"NoteNumber":54,"Velocity":47,"Duration":872966,"SoundDuration":872966,"Delta":317604501},{"NoteNumber":76,"Velocity":42,"Duration":109488,"SoundDuration":109488,"Delta":317713990},{"NoteNumber":78,"Velocity":44,"Duration":107527,"SoundDuration":107527,"Delta":317823479},{"NoteNumber":76,"Velocity":45,"Duration":107527,"SoundDuration":107527,"Delta":317931006},{"NoteNumber":78,"Velocity":51,"Duration":107527,"SoundDuration":107527,"Delta":318038533},{"NoteNumber":57,"Velocity":45,"Duration":438934,"SoundDuration":438934,"Delta":318038533},{"NoteNumber":79,"Velocity":46,"Duration":107527,"SoundDuration":107527,"Delta":318146060},{"NoteNumber":79,"Velocity":44,"Duration":437955,"SoundDuration":437955,"Delta":318477468},{"NoteNumber":52,"Velocity":44,"Duration":872761,"SoundDuration":872761,"Delta":318477468},{"NoteNumber":55,"Velocity":44,"Duration":872761,"SoundDuration":872761,"Delta":318477468},{"NoteNumber":74,"Velocity":46,"Duration":109488,"SoundDuration":109488,"Delta":318915424},{"NoteNumber":76,"Velocity":47,"Duration":109488,"SoundDuration":109488,"Delta":319024913},{"NoteNumber":78,"Velocity":48,"Duration":107913,"SoundDuration":107913,"Delta":319134402},{"NoteNumber":79,"Velocity":49,"Duration":107913,"SoundDuration":107913,"Delta":319242315},{"NoteNumber":81,"Velocity":55,"Duration":107913,"SoundDuration":107913,"Delta":319350229},{"NoteNumber":50,"Velocity":47,"Duration":439707,"SoundDuration":439707,"Delta":319350229},{"NoteNumber":54,"Velocity":47,"Duration":439707,"SoundDuration":439707,"Delta":319350229},{"NoteNumber":83,"Velocity":50,"Duration":107913,"SoundDuration":107913,"Delta":319458143},{"NoteNumber":83,"Velocity":55,"Duration":436364,"SoundDuration":436364,"Delta":319789937},{"NoteNumber":50,"Velocity":45,"Duration":436364,"SoundDuration":436364,"Delta":319789937},{"NoteNumber":55,"Velocity":45,"Duration":436364,"SoundDuration":436364,"Delta":319789937},{"NoteNumber":78,"Velocity":59,"Duration":109090,"SoundDuration":109090,"Delta":320226301},{"NoteNumber":50,"Velocity":47,"Duration":434009,"SoundDuration":434009,"Delta":320226301},{"NoteNumber":55,"Velocity":47,"Duration":218181,"SoundDuration":218181,"Delta":320226301},{"NoteNumber":79,"Velocity":60,"Duration":109090,"SoundDuration":109090,"Delta":320335392},{"NoteNumber":81,"Velocity":61,"Duration":107913,"SoundDuration":107913,"Delta":320444483},{"NoteNumber":54,"Velocity":43,"Duration":215827,"SoundDuration":215827,"Delta":320444483},{"NoteNumber":83,"Velocity":62,"Duration":107913,"SoundDuration":107913,"Delta":320552397},{"NoteNumber":85,"Velocity":63,"Duration":107913,"SoundDuration":107913,"Delta":320660311},{"NoteNumber":52,"Velocity":47,"Duration":215827,"SoundDuration":215827,"Delta":320660311},{"NoteNumber":45,"Velocity":47,"Duration":440546,"SoundDuration":440546,"Delta":320660311},{"NoteNumber":86,"Velocity":59,"Duration":107913,"SoundDuration":107913,"Delta":320768224},{"NoteNumber":54,"Velocity":42,"Duration":224718,"SoundDuration":224718,"Delta":320876138},{"NoteNumber":86,"Velocity":67,"Duration":433213,"SoundDuration":433213,"Delta":321100857},{"NoteNumber":54,"Velocity":47,"Duration":433213,"SoundDuration":433213,"Delta":321100857},{"NoteNumber":56,"Velocity":47,"Duration":216606,"SoundDuration":216606,"Delta":321100857},{"NoteNumber":57,"Velocity":42,"Duration":216606,"SoundDuration":216606,"Delta":321317464},{"NoteNumber":85,"Velocity":61,"Duration":72992,"SoundDuration":72992,"Delta":321534070},{"NoteNumber":55,"Velocity":52,"Duration":884052,"SoundDuration":884052,"Delta":321534070},{"NoteNumber":52,"Velocity":52,"Duration":437955,"SoundDuration":437955,"Delta":321534070},{"NoteNumber":86,"Velocity":51,"Duration":72992,"SoundDuration":72992,"Delta":321607063},{"NoteNumber":85,"Velocity":63,"Duration":72992,"SoundDuration":72992,"Delta":321680055},{"NoteNumber":86,"Velocity":52,"Duration":72992,"SoundDuration":72992,"Delta":321753048},{"NoteNumber":85,"Velocity":65,"Duration":72992,"SoundDuration":72992,"Delta":321826041},{"NoteNumber":86,"Velocity":54,"Duration":72992,"SoundDuration":72992,"Delta":321899033},{"NoteNumber":85,"Velocity":68,"Duration":74349,"SoundDuration":74349,"Delta":321972026},{"NoteNumber":46,"Velocity":46,"Duration":446097,"SoundDuration":446097,"Delta":321972026},{"NoteNumber":86,"Velocity":56,"Duration":74349,"SoundDuration":74349,"Delta":322046376},{"NoteNumber":85,"Velocity":68,"Duration":74349,"SoundDuration":74349,"Delta":322120725},{"NoteNumber":86,"Velocity":53,"Duration":74349,"SoundDuration":74349,"Delta":322195075},{"NoteNumber":85,"Velocity":63,"Duration":74349,"SoundDuration":74349,"Delta":322269424},{"NoteNumber":86,"Velocity":51,"Duration":74349,"SoundDuration":74349,"Delta":322343774},{"NoteNumber":70,"Velocity":48,"Duration":218182,"SoundDuration":218182,"Delta":322418123},{"NoteNumber":54,"Velocity":46,"Duration":218182,"SoundDuration":218182,"Delta":322418123},{"NoteNumber":70,"Velocity":48,"Duration":73445,"SoundDuration":73445,"Delta":322866074},{"NoteNumber":78,"Velocity":60,"Duration":436286,"SoundDuration":436286,"Delta":322866074},{"NoteNumber":71,"Velocity":43,"Duration":73149,"SoundDuration":73149,"Delta":322939519},{"NoteNumber":70,"Velocity":48,"Duration":72856,"SoundDuration":72856,"Delta":323012668},{"NoteNumber":71,"Velocity":44,"Duration":72565,"SoundDuration":72565,"Delta":323085525},{"NoteNumber":70,"Velocity":48,"Duration":72277,"SoundDuration":72277,"Delta":323158091},{"NoteNumber":71,"Velocity":44,"Duration":71991,"SoundDuration":71991,"Delta":323230368},{"NoteNumber":70,"Velocity":48,"Duration":71707,"SoundDuration":71707,"Delta":323302360},{"NoteNumber":76,"Velocity":56,"Duration":432685,"SoundDuration":432685,"Delta":323302360},{"NoteNumber":71,"Velocity":45,"Duration":71791,"SoundDuration":71791,"Delta":323374067},{"NoteNumber":70,"Velocity":48,"Duration":71997,"SoundDuration":71997,"Delta":323445858},{"NoteNumber":71,"Velocity":45,"Duration":72202,"SoundDuration":72202,"Delta":323517856},{"NoteNumber":70,"Velocity":48,"Duration":72388,"SoundDuration":72388,"Delta":323590058},{"NoteNumber":71,"Velocity":44,"Duration":72598,"SoundDuration":72598,"Delta":323662446},{"NoteNumber":70,"Velocity":48,"Duration":72727,"SoundDuration":72727,"Delta":323735045},{"NoteNumber":73,"Velocity":56,"Duration":443103,"SoundDuration":443103,"Delta":323735045},{"NoteNumber":54,"Velocity":41,"Duration":109090,"SoundDuration":109090,"Delta":323735045},{"NoteNumber":71,"Velocity":48,"Duration":72727,"SoundDuration":72727,"Delta":323807773},{"NoteNumber":52,"Velocity":39,"Duration":109090,"SoundDuration":109090,"Delta":323844136},{"NoteNumber":70,"Velocity":44,"Duration":72727,"SoundDuration":72727,"Delta":323880500},{"NoteNumber":71,"Velocity":48,"Duration":109091,"SoundDuration":109091,"Delta":323953227},{"NoteNumber":50,"Velocity":39,"Duration":109091,"SoundDuration":109091,"Delta":323953227},{"NoteNumber":70,"Velocity":48,"Duration":115830,"SoundDuration":115830,"Delta":324062318},{"NoteNumber":49,"Velocity":39,"Duration":115830,"SoundDuration":115830,"Delta":324062318},{"NoteNumber":71,"Velocity":54,"Duration":864127,"SoundDuration":864127,"Delta":324178148},{"NoteNumber":76,"Velocity":64,"Duration":430914,"SoundDuration":430914,"Delta":324178148},{"NoteNumber":47,"Velocity":39,"Duration":128113,"SoundDuration":128113,"Delta":324178148},{"NoteNumber":49,"Velocity":38,"Duration":128500,"SoundDuration":128500,"Delta":324284910},{"NoteNumber":50,"Velocity":38,"Duration":130434,"SoundDuration":130434,"Delta":324391671},{"NoteNumber":52,"Velocity":38,"Duration":130356,"SoundDuration":130356,"Delta":324500367},{"NoteNumber":74,"Velocity":57,"Duration":1302645,"SoundDuration":1302645,"Delta":324609063},{"NoteNumber":54,"Velocity":41,"Duration":129963,"SoundDuration":129963,"Delta":324609063},{"NoteNumber":55,"Velocity":38,"Duration":129963,"SoundDuration":129963,"Delta":324717366},{"NoteNumber":54,"Velocity":38,"Duration":129963,"SoundDuration":129963,"Delta":324825669},{"NoteNumber":53,"Velocity":38,"Duration":129963,"SoundDuration":129963,"Delta":324933972},{"NoteNumber":66,"Velocity":57,"Duration":438117,"SoundDuration":438117,"Delta":325042276},{"NoteNumber":52,"Velocity":41,"Duration":129963,"SoundDuration":129963,"Delta":325042276},{"NoteNumber":50,"Velocity":37,"Duration":129963,"SoundDuration":129963,"Delta":325150579},{"NoteNumber":49,"Velocity":37,"Duration":130944,"SoundDuration":130944,"Delta":325258882},{"NoteNumber":47,"Velocity":37,"Duration":134559,"SoundDuration":134559,"Delta":325367185},{"NoteNumber":64,"Velocity":59,"Duration":864528,"SoundDuration":864528,"Delta":325480393},{"NoteNumber":49,"Velocity":37,"Duration":128113,"SoundDuration":128113,"Delta":325480393},{"NoteNumber":50,"Velocity":36,"Duration":128659,"SoundDuration":128659,"Delta":325587154},{"NoteNumber":49,"Velocity":36,"Duration":131149,"SoundDuration":131149,"Delta":325693916},{"NoteNumber":48,"Velocity":36,"Duration":129963,"SoundDuration":129963,"Delta":325803405},{"NoteNumber":73,"Velocity":63,"Duration":1302019,"SoundDuration":1302019,"Delta":325911708},{"NoteNumber":47,"Velocity":41,"Duration":129963,"SoundDuration":129963,"Delta":325911708},{"NoteNumber":46,"Velocity":34,"Duration":129963,"SoundDuration":129963,"Delta":326020011},{"NoteNumber":44,"Velocity":34,"Duration":129963,"SoundDuration":129963,"Delta":326128315},{"NoteNumber":42,"Velocity":34,"Duration":129963,"SoundDuration":129963,"Delta":326236618},{"NoteNumber":61,"Velocity":56,"Duration":437691,"SoundDuration":437691,"Delta":326344921},{"NoteNumber":44,"Velocity":40,"Duration":129963,"SoundDuration":129963,"Delta":326344921},{"NoteNumber":46,"Velocity":36,"Duration":129963,"SoundDuration":129963,"Delta":326453224},{"NoteNumber":47,"Velocity":36,"Duration":130859,"SoundDuration":130859,"Delta":326561528},{"NoteNumber":46,"Velocity":36,"Duration":133834,"SoundDuration":133834,"Delta":326669831},{"NoteNumber":64,"Velocity":57,"Duration":431114,"SoundDuration":431114,"Delta":326782613},{"NoteNumber":47,"Velocity":36,"Duration":126315,"SoundDuration":126315,"Delta":326782613},{"NoteNumber":49,"Velocity":38,"Duration":127322,"SoundDuration":127322,"Delta":326887876},{"NoteNumber":50,"Velocity":41,"Duration":132352,"SoundDuration":132352,"Delta":326993139},{"NoteNumber":49,"Velocity":43,"Duration":131954,"SoundDuration":131954,"Delta":327103433},{"NoteNumber":71,"Velocity":63,"Duration":1742129,"SoundDuration":1742129,"Delta":327213727},{"NoteNumber":62,"Velocity":48,"Duration":433213,"SoundDuration":433213,"Delta":327213727},{"NoteNumber":50,"Velocity":45,"Duration":129963,"SoundDuration":129963,"Delta":327213727},{"NoteNumber":52,"Velocity":41,"Duration":108303,"SoundDuration":108303,"Delta":327322031},{"NoteNumber":61,"Velocity":48,"Duration":868225,"SoundDuration":868225,"Delta":327646940},{"NoteNumber":52,"Velocity":44,"Duration":438117,"SoundDuration":438117,"Delta":327646940},{"NoteNumber":47,"Velocity":36,"Duration":129032,"SoundDuration":129032,"Delta":328085058},{"NoteNumber":49,"Velocity":38,"Duration":129032,"SoundDuration":129032,"Delta":328192585},{"NoteNumber":50,"Velocity":41,"Duration":129032,"SoundDuration":129032,"Delta":328300112},{"NoteNumber":52,"Velocity":43,"Duration":129032,"SoundDuration":129032,"Delta":328407639},{"NoteNumber":59,"Velocity":48,"Duration":440691,"SoundDuration":440691,"Delta":328515166},{"NoteNumber":54,"Velocity":45,"Duration":129032,"SoundDuration":129032,"Delta":328515166},{"NoteNumber":55,"Velocity":41,"Duration":107527,"SoundDuration":107527,"Delta":328622693},{"NoteNumber":64,"Velocity":48,"Duration":215054,"SoundDuration":215054,"Delta":328955857},{"NoteNumber":59,"Velocity":40,"Duration":430108,"SoundDuration":430108,"Delta":328955857},{"NoteNumber":55,"Velocity":44,"Duration":430108,"SoundDuration":430108,"Delta":328955857},{"NoteNumber":62,"Velocity":43,"Duration":215054,"SoundDuration":215054,"Delta":329170911},{"NoteNumber":61,"Velocity":48,"Duration":215054,"SoundDuration":215054,"Delta":329385965},{"NoteNumber":59,"Velocity":40,"Duration":430107,"SoundDuration":430107,"Delta":329385965},{"NoteNumber":50,"Velocity":36,"Duration":129032,"SoundDuration":129032,"Delta":329385965},{"NoteNumber":52,"Velocity":38,"Duration":129032,"SoundDuration":129032,"Delta":329493492},{"NoteNumber":62,"Velocity":42,"Duration":215053,"SoundDuration":215053,"Delta":329601019},{"NoteNumber":54,"Velocity":41,"Duration":129032,"SoundDuration":129032,"Delta":329601019},{"NoteNumber":56,"Velocity":43,"Duration":129032,"SoundDuration":129032,"Delta":329708546},{"NoteNumber":61,"Velocity":48,"Duration":215054,"SoundDuration":215054,"Delta":329816073},{"NoteNumber":54,"Velocity":40,"Duration":434521,"SoundDuration":434521,"Delta":329816073},{"NoteNumber":58,"Velocity":45,"Duration":129032,"SoundDuration":129032,"Delta":329816073},{"NoteNumber":59,"Velocity":41,"Duration":107527,"SoundDuration":107527,"Delta":329923600},{"NoteNumber":62,"Velocity":43,"Duration":219467,"SoundDuration":219467,"Delta":330031127},{"NoteNumber":64,"Velocity":48,"Duration":215054,"SoundDuration":215054,"Delta":330250594},{"NoteNumber":62,"Velocity":40,"Duration":430507,"SoundDuration":430507,"Delta":330250594},{"NoteNumber":59,"Velocity":44,"Duration":430507,"SoundDuration":430507,"Delta":330250594},{"NoteNumber":65,"Velocity":43,"Duration":215453,"SoundDuration":215453,"Delta":330465648},{"NoteNumber":61,"Velocity":48,"Duration":429061,"SoundDuration":429061,"Delta":330681102},{"NoteNumber":66,"Velocity":51,"Duration":854390,"SoundDuration":854390,"Delta":330681102},{"NoteNumber":58,"Velocity":40,"Duration":72303,"SoundDuration":72303,"Delta":330681102},{"NoteNumber":59,"Velocity":37,"Duration":72017,"SoundDuration":72017,"Delta":330753405},{"NoteNumber":58,"Velocity":40,"Duration":71733,"SoundDuration":71733,"Delta":330825422},{"NoteNumber":59,"Velocity":36,"Duration":71447,"SoundDuration":71447,"Delta":330897155},{"NoteNumber":58,"Velocity":40,"Duration":71145,"SoundDuration":71145,"Delta":330968603},{"NoteNumber":59,"Velocity":34,"Duration":70413,"SoundDuration":70413,"Delta":331039749},{"NoteNumber":54,"Velocity":48,"Duration":425329,"SoundDuration":425329,"Delta":331110163},{"NoteNumber":58,"Velocity":40,"Duration":70080,"SoundDuration":70080,"Delta":331110163},{"NoteNumber":59,"Velocity":37,"Duration":70379,"SoundDuration":70379,"Delta":331180243},{"NoteNumber":58,"Velocity":40,"Duration":70724,"SoundDuration":70724,"Delta":331250622},{"NoteNumber":59,"Velocity":36,"Duration":71076,"SoundDuration":71076,"Delta":331321347},{"NoteNumber":58,"Velocity":40,"Duration":71384,"SoundDuration":71384,"Delta":331392424},{"NoteNumber":59,"Velocity":36,"Duration":71684,"SoundDuration":71684,"Delta":331463808},{"NoteNumber":78,"Velocity":55,"Duration":436649,"SoundDuration":436649,"Delta":331535492},{"NoteNumber":42,"Velocity":36,"Duration":215054,"SoundDuration":215054,"Delta":331535492},{"NoteNumber":44,"Velocity":39,"Duration":107527,"SoundDuration":107527,"Delta":331750546},{"NoteNumber":46,"Velocity":42,"Duration":114068,"SoundDuration":114068,"Delta":331858073},{"NoteNumber":74,"Velocity":50,"Duration":72553,"SoundDuration":72553,"Delta":331972142},{"NoteNumber":47,"Velocity":45,"Duration":108730,"SoundDuration":108730,"Delta":331972142},{"NoteNumber":76,"Velocity":47,"Duration":72248,"SoundDuration":72248,"Delta":332044696},{"NoteNumber":49,"Velocity":45,"Duration":107882,"SoundDuration":107882,"Delta":332080872},{"NoteNumber":74,"Velocity":52,"Duration":71810,"SoundDuration":71810,"Delta":332116944},{"NoteNumber":76,"Velocity":50,"Duration":71371,"SoundDuration":71371,"Delta":332188754},{"NoteNumber":50,"Velocity":44,"Duration":106905,"SoundDuration":106905,"Delta":332188754},{"NoteNumber":74,"Velocity":55,"Duration":70966,"SoundDuration":70966,"Delta":332260126},{"NoteNumber":52,"Velocity":42,"Duration":105924,"SoundDuration":105924,"Delta":332295659},{"NoteNumber":76,"Velocity":52,"Duration":70491,"SoundDuration":70491,"Delta":332331092},{"NoteNumber":74,"Velocity":56,"Duration":70178,"SoundDuration":70178,"Delta":332401583},{"NoteNumber":54,"Velocity":50,"Duration":211353,"SoundDuration":211353,"Delta":332401583},{"NoteNumber":76,"Velocity":50,"Duration":70450,"SoundDuration":70450,"Delta":332471762},{"NoteNumber":74,"Velocity":53,"Duration":70724,"SoundDuration":70724,"Delta":332542213},{"NoteNumber":76,"Velocity":45,"Duration":71000,"SoundDuration":71000,"Delta":332612937},{"NoteNumber":74,"Velocity":50,"Duration":71279,"SoundDuration":71279,"Delta":332683938},{"NoteNumber":76,"Velocity":44,"Duration":71559,"SoundDuration":71559,"Delta":332755217},{"NoteNumber":62,"Velocity":55,"Duration":435660,"SoundDuration":435660,"Delta":332826777},{"NoteNumber":71,"Velocity":55,"Duration":215053,"SoundDuration":215053,"Delta":332826777},{"NoteNumber":59,"Velocity":44,"Duration":435660,"SoundDuration":435660,"Delta":332826777},{"NoteNumber":65,"Velocity":47,"Duration":220606,"SoundDuration":220606,"Delta":333041831},{"NoteNumber":61,"Velocity":51,"Duration":428648,"SoundDuration":428648,"Delta":333262437},{"NoteNumber":66,"Velocity":51,"Duration":861383,"SoundDuration":861383,"Delta":333262437},{"NoteNumber":58,"Velocity":40,"Duration":72668,"SoundDuration":72668,"Delta":333262437},{"NoteNumber":59,"Velocity":37,"Duration":72170,"SoundDuration":72170,"Delta":333335105},{"NoteNumber":58,"Velocity":40,"Duration":71678,"SoundDuration":71678,"Delta":333407276},{"NoteNumber":59,"Velocity":36,"Duration":71193,"SoundDuration":71193,"Delta":333478954},{"NoteNumber":58,"Velocity":40,"Duration":70715,"SoundDuration":70715,"Delta":333550148},{"NoteNumber":59,"Velocity":34,"Duration":70221,"SoundDuration":70221,"Delta":333620864},{"NoteNumber":54,"Velocity":43,"Duration":432735,"SoundDuration":432735,"Delta":333691085},{"NoteNumber":58,"Velocity":40,"Duration":70478,"SoundDuration":70478,"Delta":333691085},{"NoteNumber":59,"Velocity":37,"Duration":70878,"SoundDuration":70878,"Delta":333761564},{"NoteNumber":58,"Velocity":40,"Duration":71304,"SoundDuration":71304,"Delta":333832442},{"NoteNumber":59,"Velocity":36,"Duration":71742,"SoundDuration":71742,"Delta":333903747},{"NoteNumber":58,"Velocity":40,"Duration":73424,"SoundDuration":73424,"Delta":333975490},{"NoteNumber":59,"Velocity":36,"Duration":74906,"SoundDuration":74906,"Delta":334048914},{"NoteNumber":66,"Velocity":51,"Duration":214285,"SoundDuration":214285,"Delta":334123821},{"NoteNumber":42,"Velocity":44,"Duration":428570,"SoundDuration":428570,"Delta":334123821},{"NoteNumber":54,"Velocity":44,"Duration":428570,"SoundDuration":428570,"Delta":334123821},{"NoteNumber":68,"Velocity":51,"Duration":107142,"SoundDuration":107142,"Delta":334338106},{"NoteNumber":70,"Velocity":56,"Duration":107142,"SoundDuration":107142,"Delta":334445249},{"NoteNumber":71,"Velocity":58,"Duration":107142,"SoundDuration":107142,"Delta":334552392},{"NoteNumber":50,"Velocity":40,"Duration":71428,"SoundDuration":71428,"Delta":334552392},{"NoteNumber":52,"Velocity":37,"Duration":70802,"SoundDuration":70802,"Delta":334623820},{"NoteNumber":73,"Velocity":60,"Duration":105263,"SoundDuration":105263,"Delta":334659534},{"NoteNumber":50,"Velocity":40,"Duration":70175,"SoundDuration":70175,"Delta":334694622},{"NoteNumber":74,"Velocity":62,"Duration":105263,"SoundDuration":105263,"Delta":334764798},{"NoteNumber":52,"Velocity":36,"Duration":70175,"SoundDuration":70175,"Delta":334764798},{"NoteNumber":50,"Velocity":40,"Duration":74150,"SoundDuration":74150,"Delta":334834973},{"NoteNumber":76,"Velocity":64,"Duration":117187,"SoundDuration":117187,"Delta":334870061},{"NoteNumber":52,"Velocity":34,"Duration":78125,"SoundDuration":78125,"Delta":334909123},{"NoteNumber":78,"Velocity":66,"Duration":106761,"SoundDuration":106761,"Delta":334987248},{"NoteNumber":50,"Velocity":40,"Duration":71174,"SoundDuration":71174,"Delta":334987248},{"NoteNumber":52,"Velocity":37,"Duration":71174,"SoundDuration":71174,"Delta":335058423},{"NoteNumber":79,"Velocity":69,"Duration":106761,"SoundDuration":106761,"Delta":335094010},{"NoteNumber":50,"Velocity":40,"Duration":71174,"SoundDuration":71174,"Delta":335129597},{"NoteNumber":52,"Velocity":36,"Duration":71174,"SoundDuration":71174,"Delta":335200771},{"NoteNumber":50,"Velocity":40,"Duration":73465,"SoundDuration":73465,"Delta":335271946},{"NoteNumber":52,"Velocity":36,"Duration":75757,"SoundDuration":75757,"Delta":335345412},{"NoteNumber":79,"Velocity":60,"Duration":431251,"SoundDuration":431251,"Delta":335421169},{"NoteNumber":47,"Velocity":33,"Duration":213523,"SoundDuration":213523,"Delta":335421169},{"NoteNumber":37,"Velocity":28,"Duration":217728,"SoundDuration":217728,"Delta":335634692},{"NoteNumber":46,"Velocity":34,"Duration":217728,"SoundDuration":217728,"Delta":335634692},{"NoteNumber":78,"Velocity":50,"Duration":72565,"SoundDuration":72565,"Delta":335852420},{"NoteNumber":38,"Velocity":32,"Duration":108742,"SoundDuration":108742,"Delta":335852420},{"NoteNumber":45,"Velocity":32,"Duration":430469,"SoundDuration":430469,"Delta":335852420},{"NoteNumber":79,"Velocity":47,"Duration":72248,"SoundDuration":72248,"Delta":335924986},{"NoteNumber":40,"Velocity":33,"Duration":107959,"SoundDuration":107959,"Delta":335961163},{"NoteNumber":78,"Velocity":52,"Duration":71887,"SoundDuration":71887,"Delta":335997234},{"NoteNumber":79,"Velocity":50,"Duration":71604,"SoundDuration":71604,"Delta":336069122},{"NoteNumber":42,"Velocity":35,"Duration":107264,"SoundDuration":107264,"Delta":336069122},{"NoteNumber":78,"Velocity":55,"Duration":71247,"SoundDuration":71247,"Delta":336140727},{"NoteNumber":43,"Velocity":36,"Duration":106503,"SoundDuration":106503,"Delta":336176387},{"NoteNumber":79,"Velocity":52,"Duration":70916,"SoundDuration":70916,"Delta":336211974},{"NoteNumber":78,"Velocity":56,"Duration":70671,"SoundDuration":70671,"Delta":336282890},{"NoteNumber":45,"Velocity":38,"Duration":106007,"SoundDuration":106007,"Delta":336282890},{"NoteNumber":79,"Velocity":50,"Duration":70774,"SoundDuration":70774,"Delta":336353562},{"NoteNumber":47,"Velocity":37,"Duration":106361,"SoundDuration":106361,"Delta":336388897},{"NoteNumber":78,"Velocity":53,"Duration":70921,"SoundDuration":70921,"Delta":336424336},{"NoteNumber":79,"Velocity":45,"Duration":71152,"SoundDuration":71152,"Delta":336495258},{"NoteNumber":78,"Velocity":50,"Duration":71279,"SoundDuration":71279,"Delta":336566411},{"NoteNumber":79,"Velocity":44,"Duration":71428,"SoundDuration":71428,"Delta":336637690},{"NoteNumber":74,"Velocity":60,"Duration":439290,"SoundDuration":439290,"Delta":336709118},{"NoteNumber":54,"Velocity":38,"Duration":439290,"SoundDuration":439290,"Delta":336709118},{"NoteNumber":47,"Velocity":33,"Duration":439290,"SoundDuration":439290,"Delta":336709118},{"NoteNumber":71,"Velocity":60,"Duration":851197,"SoundDuration":851197,"Delta":337148408},{"NoteNumber":62,"Velocity":45,"Duration":71130,"SoundDuration":71130,"Delta":337148408},{"NoteNumber":43,"Velocity":32,"Duration":106663,"SoundDuration":106663,"Delta":337148408},{"NoteNumber":64,"Velocity":42,"Duration":70994,"SoundDuration":70994,"Delta":337219539},{"NoteNumber":45,"Velocity":33,"Duration":106179,"SoundDuration":106179,"Delta":337255072},{"NoteNumber":62,"Velocity":46,"Duration":70718,"SoundDuration":70718,"Delta":337290533},{"NoteNumber":64,"Velocity":45,"Duration":70444,"SoundDuration":70444,"Delta":337361251},{"NoteNumber":47,"Velocity":35,"Duration":105603,"SoundDuration":105603,"Delta":337361251},{"NoteNumber":62,"Velocity":49,"Duration":70246,"SoundDuration":70246,"Delta":337431696},{"NoteNumber":49,"Velocity":36,"Duration":105063,"SoundDuration":105063,"Delta":337466855},{"NoteNumber":64,"Velocity":46,"Duration":69976,"SoundDuration":69976,"Delta":337501942},{"NoteNumber":62,"Velocity":50,"Duration":69786,"SoundDuration":69786,"Delta":337571918},{"NoteNumber":50,"Velocity":38,"Duration":104874,"SoundDuration":104874,"Delta":337571918},{"NoteNumber":64,"Velocity":45,"Duration":70305,"SoundDuration":70305,"Delta":337641705},{"NoteNumber":52,"Velocity":37,"Duration":106071,"SoundDuration":106071,"Delta":337676793},{"NoteNumber":62,"Velocity":47,"Duration":70853,"SoundDuration":70853,"Delta":337712011},{"NoteNumber":64,"Velocity":40,"Duration":71410,"SoundDuration":71410,"Delta":337782864},{"NoteNumber":62,"Velocity":45,"Duration":72338,"SoundDuration":72338,"Delta":337854274},{"NoteNumber":64,"Velocity":39,"Duration":72992,"SoundDuration":72992,"Delta":337926613},{"NoteNumber":61,"Velocity":50,"Duration":438009,"SoundDuration":438009,"Delta":337999605},{"NoteNumber":67,"Velocity":60,"Duration":438009,"SoundDuration":438009,"Delta":337999605},{"NoteNumber":52,"Velocity":38,"Duration":438009,"SoundDuration":438009,"Delta":337999605},{"NoteNumber":64,"Velocity":62,"Duration":109672,"SoundDuration":109672,"Delta":338437615},{"NoteNumber":49,"Velocity":45,"Duration":109672,"SoundDuration":109672,"Delta":338437615},{"NoteNumber":66,"Velocity":63,"Duration":108900,"SoundDuration":108900,"Delta":338547287},{"NoteNumber":50,"Velocity":48,"Duration":108900,"SoundDuration":108900,"Delta":338547287},{"NoteNumber":67,"Velocity":64,"Duration":108193,"SoundDuration":108193,"Delta":338656188},{"NoteNumber":52,"Velocity":50,"Duration":108193,"SoundDuration":108193,"Delta":338656188},{"NoteNumber":69,"Velocity":65,"Duration":107418,"SoundDuration":107418,"Delta":338764381},{"NoteNumber":54,"Velocity":53,"Duration":107418,"SoundDuration":107418,"Delta":338764381},{"NoteNumber":71,"Velocity":67,"Duration":106783,"SoundDuration":106783,"Delta":338871799},{"NoteNumber":55,"Velocity":55,"Duration":106783,"SoundDuration":106783,"Delta":338871799},{"NoteNumber":73,"Velocity":66,"Duration":106761,"SoundDuration":106761,"Delta":338978583},{"NoteNumber":57,"Velocity":48,"Duration":106761,"SoundDuration":106761,"Delta":338978583},{"NoteNumber":61,"Velocity":55,"Duration":110701,"SoundDuration":110701,"Delta":339085344},{"NoteNumber":62,"Velocity":57,"Duration":118110,"SoundDuration":118110,"Delta":339196045},{"NoteNumber":73,"Velocity":69,"Duration":428570,"SoundDuration":428570,"Delta":339314155},{"NoteNumber":64,"Velocity":57,"Duration":107142,"SoundDuration":107142,"Delta":339314155},{"NoteNumber":57,"Velocity":59,"Duration":428570,"SoundDuration":428570,"Delta":339314155},{"NoteNumber":66,"Velocity":55,"Duration":107142,"SoundDuration":107142,"Delta":339421298},{"NoteNumber":67,"Velocity":57,"Duration":107142,"SoundDuration":107142,"Delta":339528441},{"NoteNumber":69,"Velocity":60,"Duration":107142,"SoundDuration":107142,"Delta":339635584},{"NoteNumber":67,"Velocity":62,"Duration":109672,"SoundDuration":109672,"Delta":339742726},{"NoteNumber":52,"Velocity":45,"Duration":109672,"SoundDuration":109672,"Delta":339742726},{"NoteNumber":69,"Velocity":63,"Duration":108900,"SoundDuration":108900,"Delta":339852399},{"NoteNumber":54,"Velocity":48,"Duration":108900,"SoundDuration":108900,"Delta":339852399},{"NoteNumber":71,"Velocity":64,"Duration":108193,"SoundDuration":108193,"Delta":339961299},{"NoteNumber":55,"Velocity":50,"Duration":108193,"SoundDuration":108193,"Delta":339961299},{"NoteNumber":73,"Velocity":65,"Duration":107418,"SoundDuration":107418,"Delta":340069492},{"NoteNumber":57,"Velocity":53,"Duration":107418,"SoundDuration":107418,"Delta":340069492},{"NoteNumber":74,"Velocity":67,"Duration":106783,"SoundDuration":106783,"Delta":340176911},{"NoteNumber":59,"Velocity":55,"Duration":106783,"SoundDuration":106783,"Delta":340176911},{"NoteNumber":76,"Velocity":66,"Duration":106761,"SoundDuration":106761,"Delta":340283694},{"NoteNumber":61,"Velocity":48,"Duration":106761,"SoundDuration":106761,"Delta":340283694},{"NoteNumber":64,"Velocity":55,"Duration":110701,"SoundDuration":110701,"Delta":340390456},{"NoteNumber":66,"Velocity":57,"Duration":117187,"SoundDuration":117187,"Delta":340501157},{"NoteNumber":76,"Velocity":69,"Duration":428570,"SoundDuration":428570,"Delta":340618344},{"NoteNumber":67,"Velocity":57,"Duration":107142,"SoundDuration":107142,"Delta":340618344},{"NoteNumber":61,"Velocity":59,"Duration":428570,"SoundDuration":428570,"Delta":340618344},{"NoteNumber":69,"Velocity":55,"Duration":107142,"SoundDuration":107142,"Delta":340725487},{"NoteNumber":71,"Velocity":57,"Duration":107142,"SoundDuration":107142,"Delta":340832630},{"NoteNumber":73,"Velocity":60,"Duration":107142,"SoundDuration":107142,"Delta":340939773},{"NoteNumber":79,"Velocity":74,"Duration":109672,"SoundDuration":109672,"Delta":341046915},{"NoteNumber":64,"Velocity":58,"Duration":109672,"SoundDuration":109672,"Delta":341046915},{"NoteNumber":78,"Velocity":72,"Duration":108900,"SoundDuration":108900,"Delta":341156588},{"NoteNumber":62,"Velocity":56,"Duration":108900,"SoundDuration":108900,"Delta":341156588},{"NoteNumber":76,"Velocity":71,"Duration":108193,"SoundDuration":108193,"Delta":341265488},{"NoteNumber":61,"Velocity":53,"Duration":108193,"SoundDuration":108193,"Delta":341265488},{"NoteNumber":74,"Velocity":69,"Duration":107418,"SoundDuration":107418,"Delta":341373681},{"NoteNumber":59,"Velocity":51,"Duration":107418,"SoundDuration":107418,"Delta":341373681},{"NoteNumber":73,"Velocity":67,"Duration":106783,"SoundDuration":106783,"Delta":341481100},{"NoteNumber":57,"Velocity":49,"Duration":106783,"SoundDuration":106783,"Delta":341481100},{"NoteNumber":71,"Velocity":68,"Duration":106761,"SoundDuration":106761,"Delta":341587883},{"NoteNumber":55,"Velocity":44,"Duration":106761,"SoundDuration":106761,"Delta":341587883},{"NoteNumber":67,"Velocity":64,"Duration":110701,"SoundDuration":110701,"Delta":341694645},{"NoteNumber":66,"Velocity":61,"Duration":117187,"SoundDuration":117187,"Delta":341805346},{"NoteNumber":71,"Velocity":75,"Duration":428570,"SoundDuration":428570,"Delta":341922533},{"NoteNumber":64,"Velocity":62,"Duration":107142,"SoundDuration":107142,"Delta":341922533},{"NoteNumber":55,"Velocity":64,"Duration":428570,"SoundDuration":428570,"Delta":341922533},{"NoteNumber":62,"Velocity":60,"Duration":107142,"SoundDuration":107142,"Delta":342029676},{"NoteNumber":61,"Velocity":57,"Duration":107142,"SoundDuration":107142,"Delta":342136819},{"NoteNumber":59,"Velocity":55,"Duration":107142,"SoundDuration":107142,"Delta":342243962},{"NoteNumber":76,"Velocity":74,"Duration":109672,"SoundDuration":109672,"Delta":342351104},{"NoteNumber":61,"Velocity":58,"Duration":109672,"SoundDuration":109672,"Delta":342351104},{"NoteNumber":74,"Velocity":72,"Duration":108900,"SoundDuration":108900,"Delta":342460777},{"NoteNumber":59,"Velocity":56,"Duration":108900,"SoundDuration":108900,"Delta":342460777},{"NoteNumber":73,"Velocity":71,"Duration":108193,"SoundDuration":108193,"Delta":342569677},{"NoteNumber":57,"Velocity":53,"Duration":108193,"SoundDuration":108193,"Delta":342569677},{"NoteNumber":71,"Velocity":69,"Duration":107418,"SoundDuration":107418,"Delta":342677870},{"NoteNumber":55,"Velocity":51,"Duration":107418,"SoundDuration":107418,"Delta":342677870},{"NoteNumber":69,"Velocity":67,"Duration":106783,"SoundDuration":106783,"Delta":342785289},{"NoteNumber":54,"Velocity":49,"Duration":106783,"SoundDuration":106783,"Delta":342785289},{"NoteNumber":67,"Velocity":72,"Duration":106761,"SoundDuration":106761,"Delta":342892072},{"NoteNumber":52,"Velocity":44,"Duration":106761,"SoundDuration":106761,"Delta":342892072},{"NoteNumber":64,"Velocity":64,"Duration":110701,"SoundDuration":110701,"Delta":342998834},{"NoteNumber":62,"Velocity":61,"Duration":117646,"SoundDuration":117646,"Delta":343109535},{"NoteNumber":67,"Velocity":75,"Duration":428430,"SoundDuration":428430,"Delta":343227182},{"NoteNumber":61,"Velocity":62,"Duration":107142,"SoundDuration":107142,"Delta":343227182},{"NoteNumber":52,"Velocity":64,"Duration":428430,"SoundDuration":428430,"Delta":343227182},{"NoteNumber":59,"Velocity":60,"Duration":107142,"SoundDuration":107142,"Delta":343334325},{"NoteNumber":57,"Velocity":57,"Duration":107142,"SoundDuration":107142,"Delta":343441467},{"NoteNumber":55,"Velocity":55,"Duration":107001,"SoundDuration":107001,"Delta":343548610},{"NoteNumber":62,"Velocity":73,"Duration":105291,"SoundDuration":105291,"Delta":343655612},{"NoteNumber":66,"Velocity":73,"Duration":423851,"SoundDuration":423851,"Delta":343655612},{"NoteNumber":38,"Velocity":57,"Duration":105291,"SoundDuration":105291,"Delta":343655612},{"NoteNumber":61,"Velocity":68,"Duration":105736,"SoundDuration":105736,"Delta":343760903},{"NoteNumber":40,"Velocity":47,"Duration":105736,"SoundDuration":105736,"Delta":343760903},{"NoteNumber":59,"Velocity":63,"Duration":106185,"SoundDuration":106185,"Delta":343866639},{"NoteNumber":42,"Velocity":50,"Duration":106185,"SoundDuration":106185,"Delta":343866639},{"NoteNumber":57,"Velocity":62,"Duration":106638,"SoundDuration":106638,"Delta":343972825},{"NoteNumber":43,"Velocity":53,"Duration":106638,"SoundDuration":106638,"Delta":343972825},{"NoteNumber":55,"Velocity":62,"Duration":107095,"SoundDuration":107095,"Delta":344079463},{"NoteNumber":44,"Velocity":56,"Duration":107095,"SoundDuration":107095,"Delta":344079463},{"NoteNumber":54,"Velocity":61,"Duration":107142,"SoundDuration":107142,"Delta":344186559},{"NoteNumber":45,"Velocity":50,"Duration":107142,"SoundDuration":107142,"Delta":344186559},{"NoteNumber":66,"Velocity":63,"Duration":111524,"SoundDuration":111524,"Delta":344293701},{"NoteNumber":67,"Velocity":65,"Duration":116975,"SoundDuration":116975,"Delta":344405226},{"NoteNumber":69,"Velocity":67,"Duration":108587,"SoundDuration":108587,"Delta":344522201},{"NoteNumber":54,"Velocity":65,"Duration":431059,"SoundDuration":431059,"Delta":344522201},{"NoteNumber":45,"Velocity":65,"Duration":431059,"SoundDuration":431059,"Delta":344522201},{"NoteNumber":71,"Velocity":69,"Duration":108040,"SoundDuration":108040,"Delta":344630789},{"NoteNumber":73,"Velocity":72,"Duration":107469,"SoundDuration":107469,"Delta":344738829},{"NoteNumber":74,"Velocity":74,"Duration":106961,"SoundDuration":106961,"Delta":344846299},{"NoteNumber":66,"Velocity":73,"Duration":105291,"SoundDuration":105291,"Delta":344953261},{"NoteNumber":69,"Velocity":73,"Duration":423851,"SoundDuration":423851,"Delta":344953261},{"NoteNumber":42,"Velocity":57,"Duration":105291,"SoundDuration":105291,"Delta":344953261},{"NoteNumber":64,"Velocity":68,"Duration":105736,"SoundDuration":105736,"Delta":345058552},{"NoteNumber":43,"Velocity":47,"Duration":105736,"SoundDuration":105736,"Delta":345058552},{"NoteNumber":62,"Velocity":63,"Duration":106185,"SoundDuration":106185,"Delta":345164288},{"NoteNumber":45,"Velocity":50,"Duration":106185,"SoundDuration":106185,"Delta":345164288},{"NoteNumber":61,"Velocity":62,"Duration":106638,"SoundDuration":106638,"Delta":345270474},{"NoteNumber":47,"Velocity":53,"Duration":106638,"SoundDuration":106638,"Delta":345270474},{"NoteNumber":59,"Velocity":62,"Duration":107095,"SoundDuration":107095,"Delta":345377112},{"NoteNumber":49,"Velocity":56,"Duration":107095,"SoundDuration":107095,"Delta":345377112},{"NoteNumber":57,"Velocity":61,"Duration":107142,"SoundDuration":107142,"Delta":345484207},{"NoteNumber":50,"Velocity":50,"Duration":107142,"SoundDuration":107142,"Delta":345484207},{"NoteNumber":69,"Velocity":63,"Duration":111524,"SoundDuration":111524,"Delta":345591350},{"NoteNumber":71,"Velocity":65,"Duration":116550,"SoundDuration":116550,"Delta":345702874},{"NoteNumber":73,"Velocity":67,"Duration":108587,"SoundDuration":108587,"Delta":345819425},{"NoteNumber":50,"Velocity":65,"Duration":431059,"SoundDuration":431059,"Delta":345819425},{"NoteNumber":57,"Velocity":65,"Duration":431059,"SoundDuration":431059,"Delta":345819425},{"NoteNumber":74,"Velocity":69,"Duration":108040,"SoundDuration":108040,"Delta":345928013},{"NoteNumber":76,"Velocity":72,"Duration":107469,"SoundDuration":107469,"Delta":346036053},{"NoteNumber":78,"Velocity":74,"Duration":106961,"SoundDuration":106961,"Delta":346143523},{"NoteNumber":67,"Velocity":73,"Duration":105291,"SoundDuration":105291,"Delta":346250484},{"NoteNumber":71,"Velocity":73,"Duration":423851,"SoundDuration":423851,"Delta":346250484},{"NoteNumber":43,"Velocity":57,"Duration":105291,"SoundDuration":105291,"Delta":346250484},{"NoteNumber":66,"Velocity":68,"Duration":105736,"SoundDuration":105736,"Delta":346355775},{"NoteNumber":45,"Velocity":47,"Duration":105736,"SoundDuration":105736,"Delta":346355775},{"NoteNumber":64,"Velocity":63,"Duration":106185,"SoundDuration":106185,"Delta":346461512},{"NoteNumber":47,"Velocity":50,"Duration":106185,"SoundDuration":106185,"Delta":346461512},{"NoteNumber":62,"Velocity":62,"Duration":106638,"SoundDuration":106638,"Delta":346567697},{"NoteNumber":49,"Velocity":53,"Duration":106638,"SoundDuration":106638,"Delta":346567697},{"NoteNumber":61,"Velocity":62,"Duration":107095,"SoundDuration":107095,"Delta":346674336},{"NoteNumber":50,"Velocity":56,"Duration":107095,"SoundDuration":107095,"Delta":346674336},{"NoteNumber":59,"Velocity":61,"Duration":107142,"SoundDuration":107142,"Delta":346781431},{"NoteNumber":52,"Velocity":50,"Duration":107142,"SoundDuration":107142,"Delta":346781431},{"NoteNumber":71,"Velocity":63,"Duration":111524,"SoundDuration":111524,"Delta":346888574},{"NoteNumber":73,"Velocity":65,"Duration":116550,"SoundDuration":116550,"Delta":347000098},{"NoteNumber":67,"Velocity":65,"Duration":431059,"SoundDuration":431059,"Delta":347116649},{"NoteNumber":74,"Velocity":67,"Duration":108587,"SoundDuration":108587,"Delta":347116649},{"NoteNumber":52,"Velocity":65,"Duration":431059,"SoundDuration":431059,"Delta":347116649},{"NoteNumber":76,"Velocity":69,"Duration":108040,"SoundDuration":108040,"Delta":347225236},{"NoteNumber":78,"Velocity":72,"Duration":107469,"SoundDuration":107469,"Delta":347333277},{"NoteNumber":79,"Velocity":74,"Duration":106961,"SoundDuration":106961,"Delta":347440746},{"NoteNumber":76,"Velocity":80,"Duration":105291,"SoundDuration":105291,"Delta":347547708},{"NoteNumber":79,"Velocity":80,"Duration":423851,"SoundDuration":423851,"Delta":347547708},{"NoteNumber":49,"Velocity":62,"Duration":105291,"SoundDuration":105291,"Delta":347547708},{"NoteNumber":74,"Velocity":74,"Duration":105736,"SoundDuration":105736,"Delta":347652999},{"NoteNumber":50,"Velocity":51,"Duration":105736,"SoundDuration":105736,"Delta":347652999},{"NoteNumber":73,"Velocity":69,"Duration":106185,"SoundDuration":106185,"Delta":347758736},{"NoteNumber":52,"Velocity":55,"Duration":106185,"SoundDuration":106185,"Delta":347758736},{"NoteNumber":71,"Velocity":68,"Duration":106638,"SoundDuration":106638,"Delta":347864921},{"NoteNumber":54,"Velocity":58,"Duration":106638,"SoundDuration":106638,"Delta":347864921},{"NoteNumber":69,"Velocity":68,"Duration":107095,"SoundDuration":107095,"Delta":347971560},{"NoteNumber":55,"Velocity":61,"Duration":107095,"SoundDuration":107095,"Delta":347971560},{"NoteNumber":67,"Velocity":67,"Duration":107142,"SoundDuration":107142,"Delta":348078655},{"NoteNumber":57,"Velocity":55,"Duration":107142,"SoundDuration":107142,"Delta":348078655},{"NoteNumber":79,"Velocity":69,"Duration":111524,"SoundDuration":111524,"Delta":348185797},{"NoteNumber":81,"Velocity":68,"Duration":117835,"SoundDuration":117835,"Delta":348297322},{"NoteNumber":79,"Velocity":71,"Duration":430691,"SoundDuration":430691,"Delta":348415158},{"NoteNumber":83,"Velocity":73,"Duration":108587,"SoundDuration":108587,"Delta":348415158},{"NoteNumber":57,"Velocity":71,"Duration":430691,"SoundDuration":430691,"Delta":348415158},{"NoteNumber":85,"Velocity":75,"Duration":108040,"SoundDuration":108040,"Delta":348523745},{"NoteNumber":86,"Velocity":79,"Duration":107469,"SoundDuration":107469,"Delta":348631786},{"NoteNumber":88,"Velocity":81,"Duration":106594,"SoundDuration":106594,"Delta":348739255},{"NoteNumber":78,"Velocity":71,"Duration":422823,"SoundDuration":422823,"Delta":348845850},{"NoteNumber":90,"Velocity":85,"Duration":104415,"SoundDuration":104415,"Delta":348845850},{"NoteNumber":50,"Velocity":67,"Duration":104415,"SoundDuration":104415,"Delta":348845850},{"NoteNumber":88,"Velocity":83,"Duration":105294,"SoundDuration":105294,"Delta":348950265},{"NoteNumber":49,"Velocity":64,"Duration":105294,"SoundDuration":105294,"Delta":348950265},{"NoteNumber":86,"Velocity":80,"Duration":106113,"SoundDuration":106113,"Delta":349055559},{"NoteNumber":47,"Velocity":62,"Duration":106113,"SoundDuration":106113,"Delta":349055559},{"NoteNumber":85,"Velocity":78,"Duration":107000,"SoundDuration":107000,"Delta":349161673},{"NoteNumber":45,"Velocity":60,"Duration":107000,"SoundDuration":107000,"Delta":349161673},{"NoteNumber":83,"Velocity":76,"Duration":107813,"SoundDuration":107813,"Delta":349268673},{"NoteNumber":43,"Velocity":57,"Duration":107813,"SoundDuration":107813,"Delta":349268673},{"NoteNumber":81,"Velocity":73,"Duration":107913,"SoundDuration":107913,"Delta":349376487},{"NoteNumber":42,"Velocity":55,"Duration":107913,"SoundDuration":107913,"Delta":349376487},{"NoteNumber":54,"Velocity":55,"Duration":110701,"SoundDuration":110701,"Delta":349484401},{"NoteNumber":55,"Velocity":58,"Duration":117187,"SoundDuration":117187,"Delta":349595102},{"NoteNumber":81,"Velocity":71,"Duration":431654,"SoundDuration":431654,"Delta":349712289},{"NoteNumber":57,"Velocity":62,"Duration":107913,"SoundDuration":107913,"Delta":349712289},{"NoteNumber":59,"Velocity":65,"Duration":107913,"SoundDuration":107913,"Delta":349820203},{"NoteNumber":61,"Velocity":69,"Duration":107913,"SoundDuration":107913,"Delta":349928117},{"NoteNumber":62,"Velocity":72,"Duration":107913,"SoundDuration":107913,"Delta":350036031},{"NoteNumber":74,"Velocity":71,"Duration":422823,"SoundDuration":422823,"Delta":350143944},{"NoteNumber":86,"Velocity":85,"Duration":104415,"SoundDuration":104415,"Delta":350143944},{"NoteNumber":47,"Velocity":67,"Duration":104415,"SoundDuration":104415,"Delta":350143944},{"NoteNumber":85,"Velocity":83,"Duration":105294,"SoundDuration":105294,"Delta":350248359},{"NoteNumber":45,"Velocity":64,"Duration":105294,"SoundDuration":105294,"Delta":350248359},{"NoteNumber":83,"Velocity":80,"Duration":106113,"SoundDuration":106113,"Delta":350353654},{"NoteNumber":43,"Velocity":62,"Duration":106113,"SoundDuration":106113,"Delta":350353654},{"NoteNumber":81,"Velocity":78,"Duration":107000,"SoundDuration":107000,"Delta":350459768},{"NoteNumber":42,"Velocity":60,"Duration":107000,"SoundDuration":107000,"Delta":350459768},{"NoteNumber":79,"Velocity":76,"Duration":107813,"SoundDuration":107813,"Delta":350566768},{"NoteNumber":40,"Velocity":57,"Duration":107813,"SoundDuration":107813,"Delta":350566768},{"NoteNumber":78,"Velocity":73,"Duration":107913,"SoundDuration":107913,"Delta":350674582},{"NoteNumber":38,"Velocity":55,"Duration":107913,"SoundDuration":107913,"Delta":350674582},{"NoteNumber":50,"Velocity":55,"Duration":110701,"SoundDuration":110701,"Delta":350782496},{"NoteNumber":52,"Velocity":58,"Duration":116731,"SoundDuration":116731,"Delta":350893197},{"NoteNumber":78,"Velocity":71,"Duration":431067,"SoundDuration":431067,"Delta":351009928},{"NoteNumber":54,"Velocity":62,"Duration":107913,"SoundDuration":107913,"Delta":351009928},{"NoteNumber":55,"Velocity":65,"Duration":107913,"SoundDuration":107913,"Delta":351117842},{"NoteNumber":57,"Velocity":69,"Duration":107913,"SoundDuration":107913,"Delta":351225756},{"NoteNumber":59,"Velocity":72,"Duration":105559,"SoundDuration":105559,"Delta":351333670},{"NoteNumber":55,"Velocity":61,"Duration":106314,"SoundDuration":106314,"Delta":351440995},{"NoteNumber":59,"Velocity":72,"Duration":106314,"SoundDuration":106314,"Delta":351440995},{"NoteNumber":57,"Velocity":69,"Duration":106955,"SoundDuration":106955,"Delta":351547310},{"NoteNumber":54,"Velocity":58,"Duration":106955,"SoundDuration":106955,"Delta":351547310},{"NoteNumber":52,"Velocity":56,"Duration":107611,"SoundDuration":107611,"Delta":351654265},{"NoteNumber":55,"Velocity":67,"Duration":107611,"SoundDuration":107611,"Delta":351654265},{"NoteNumber":50,"Velocity":54,"Duration":108232,"SoundDuration":108232,"Delta":351761876},{"NoteNumber":54,"Velocity":64,"Duration":108232,"SoundDuration":108232,"Delta":351761876},{"NoteNumber":49,"Velocity":52,"Duration":108695,"SoundDuration":108695,"Delta":351870108},{"NoteNumber":52,"Velocity":62,"Duration":108695,"SoundDuration":108695,"Delta":351870108},{"NoteNumber":47,"Velocity":51,"Duration":111524,"SoundDuration":111524,"Delta":351978804},{"NoteNumber":50,"Velocity":60,"Duration":111524,"SoundDuration":111524,"Delta":351978804},{"NoteNumber":74,"Velocity":69,"Duration":108659,"SoundDuration":108659,"Delta":352090328},{"NoteNumber":76,"Velocity":70,"Duration":108417,"SoundDuration":108417,"Delta":352198988},{"NoteNumber":78,"Velocity":72,"Duration":108027,"SoundDuration":108027,"Delta":352307406},{"NoteNumber":47,"Velocity":52,"Duration":434600,"SoundDuration":434600,"Delta":352307406},{"NoteNumber":50,"Velocity":60,"Duration":434600,"SoundDuration":434600,"Delta":352307406},{"NoteNumber":79,"Velocity":73,"Duration":107717,"SoundDuration":107717,"Delta":352415433},{"NoteNumber":81,"Velocity":74,"Duration":107331,"SoundDuration":107331,"Delta":352523150},{"NoteNumber":82,"Velocity":75,"Duration":111524,"SoundDuration":111524,"Delta":352630482},{"NoteNumber":83,"Velocity":76,"Duration":106493,"SoundDuration":106493,"Delta":352742006},{"NoteNumber":43,"Velocity":65,"Duration":106493,"SoundDuration":106493,"Delta":352742006},{"NoteNumber":81,"Velocity":71,"Duration":106879,"SoundDuration":106879,"Delta":352848500},{"NoteNumber":45,"Velocity":59,"Duration":106879,"SoundDuration":106879,"Delta":352848500},{"NoteNumber":79,"Velocity":71,"Duration":107414,"SoundDuration":107414,"Delta":352955379},{"NoteNumber":47,"Velocity":59,"Duration":107414,"SoundDuration":107414,"Delta":352955379},{"NoteNumber":78,"Velocity":70,"Duration":107998,"SoundDuration":107998,"Delta":353062794},{"NoteNumber":48,"Velocity":58,"Duration":107998,"SoundDuration":107998,"Delta":353062794},{"NoteNumber":76,"Velocity":69,"Duration":108502,"SoundDuration":108502,"Delta":353170792},{"NoteNumber":50,"Velocity":57,"Duration":108502,"SoundDuration":108502,"Delta":353170792},{"NoteNumber":74,"Velocity":68,"Duration":109054,"SoundDuration":109054,"Delta":353279295},{"NoteNumber":52,"Velocity":56,"Duration":109054,"SoundDuration":109054,"Delta":353279295},{"NoteNumber":79,"Velocity":77,"Duration":106906,"SoundDuration":106906,"Delta":353388350},{"NoteNumber":47,"Velocity":64,"Duration":106906,"SoundDuration":106906,"Delta":353388350},{"NoteNumber":78,"Velocity":71,"Duration":106389,"SoundDuration":106389,"Delta":353495256},{"NoteNumber":48,"Velocity":59,"Duration":106389,"SoundDuration":106389,"Delta":353495256},{"NoteNumber":76,"Velocity":70,"Duration":106955,"SoundDuration":106955,"Delta":353601646},{"NoteNumber":50,"Velocity":58,"Duration":106955,"SoundDuration":106955,"Delta":353601646},{"NoteNumber":74,"Velocity":69,"Duration":107414,"SoundDuration":107414,"Delta":353708601},{"NoteNumber":52,"Velocity":57,"Duration":107414,"SoundDuration":107414,"Delta":353708601},{"NoteNumber":72,"Velocity":68,"Duration":107998,"SoundDuration":107998,"Delta":353816016},{"NoteNumber":54,"Velocity":55,"Duration":107998,"SoundDuration":107998,"Delta":353816016},{"NoteNumber":71,"Velocity":66,"Duration":108054,"SoundDuration":108054,"Delta":353924014},{"NoteNumber":55,"Velocity":54,"Duration":108054,"SoundDuration":108054,"Delta":353924014},{"NoteNumber":76,"Velocity":78,"Duration":106198,"SoundDuration":106198,"Delta":354032069},{"NoteNumber":45,"Velocity":64,"Duration":106198,"SoundDuration":106198,"Delta":354032069},{"NoteNumber":74,"Velocity":69,"Duration":106844,"SoundDuration":106844,"Delta":354138267},{"NoteNumber":47,"Velocity":58,"Duration":106844,"SoundDuration":106844,"Delta":354138267},{"NoteNumber":73,"Velocity":67,"Duration":107456,"SoundDuration":107456,"Delta":354245111},{"NoteNumber":49,"Velocity":57,"Duration":107456,"SoundDuration":107456,"Delta":354245111},{"NoteNumber":71,"Velocity":66,"Duration":108111,"SoundDuration":108111,"Delta":354352568},{"NoteNumber":50,"Velocity":55,"Duration":108111,"SoundDuration":108111,"Delta":354352568},{"NoteNumber":69,"Velocity":67,"Duration":108781,"SoundDuration":108781,"Delta":354460680},{"NoteNumber":52,"Velocity":54,"Duration":108781,"SoundDuration":108781,"Delta":354460680},{"NoteNumber":68,"Velocity":63,"Duration":109496,"SoundDuration":109496,"Delta":354569462},{"NoteNumber":53,"Velocity":58,"Duration":109496,"SoundDuration":109496,"Delta":354569462},{"NoteNumber":67,"Velocity":63,"Duration":1102749,"SoundDuration":1102749,"Delta":354678958},{"NoteNumber":64,"Velocity":63,"Duration":109890,"SoundDuration":109890,"Delta":354678958},{"NoteNumber":45,"Velocity":54,"Duration":109890,"SoundDuration":109890,"Delta":354678958},{"NoteNumber":62,"Velocity":59,"Duration":109890,"SoundDuration":109890,"Delta":354788848},{"NoteNumber":47,"Velocity":51,"Duration":109890,"SoundDuration":109890,"Delta":354788848},{"NoteNumber":61,"Velocity":63,"Duration":109890,"SoundDuration":109890,"Delta":354898738},{"NoteNumber":49,"Velocity":54,"Duration":109890,"SoundDuration":109890,"Delta":354898738},{"NoteNumber":59,"Velocity":59,"Duration":109890,"SoundDuration":109890,"Delta":355008628},{"NoteNumber":50,"Velocity":52,"Duration":109890,"SoundDuration":109890,"Delta":355008628},{"NoteNumber":57,"Velocity":58,"Duration":109890,"SoundDuration":109890,"Delta":355118518},{"NoteNumber":49,"Velocity":52,"Duration":109890,"SoundDuration":109890,"Delta":355118518},{"NoteNumber":56,"Velocity":57,"Duration":109890,"SoundDuration":109890,"Delta":355228408},{"NoteNumber":47,"Velocity":52,"Duration":109890,"SoundDuration":109890,"Delta":355228408},{"NoteNumber":64,"Velocity":62,"Duration":109488,"SoundDuration":109488,"Delta":355338298},{"NoteNumber":46,"Velocity":60,"Duration":552500,"SoundDuration":552500,"Delta":355338298},{"NoteNumber":62,"Velocity":57,"Duration":109488,"SoundDuration":109488,"Delta":355447787},{"NoteNumber":61,"Velocity":57,"Duration":109488,"SoundDuration":109488,"Delta":355557276},{"NoteNumber":62,"Velocity":57,"Duration":114942,"SoundDuration":114942,"Delta":355666765},{"NoteNumber":66,"Velocity":70,"Duration":878579,"SoundDuration":878579,"Delta":355781708},{"NoteNumber":64,"Velocity":70,"Duration":545455,"SoundDuration":545455,"Delta":355781708},{"NoteNumber":44,"Velocity":50,"Duration":109091,"SoundDuration":109091,"Delta":355890799},{"NoteNumber":42,"Velocity":50,"Duration":109090,"SoundDuration":109090,"Delta":355999890},{"NoteNumber":44,"Velocity":50,"Duration":109091,"SoundDuration":109091,"Delta":356108981},{"NoteNumber":46,"Velocity":60,"Duration":442215,"SoundDuration":442215,"Delta":356218072},{"NoteNumber":61,"Velocity":58,"Duration":109090,"SoundDuration":109090,"Delta":356327163},{"NoteNumber":62,"Velocity":58,"Duration":109091,"SoundDuration":109091,"Delta":356436254},{"NoteNumber":64,"Velocity":58,"Duration":114942,"SoundDuration":114942,"Delta":356545345},{"NoteNumber":62,"Velocity":65,"Duration":877835,"SoundDuration":877835,"Delta":356660287},{"NoteNumber":66,"Velocity":65,"Duration":441471,"SoundDuration":441471,"Delta":356660287},{"NoteNumber":47,"Velocity":50,"Duration":108695,"SoundDuration":108695,"Delta":356660287},{"NoteNumber":49,"Velocity":46,"Duration":108695,"SoundDuration":108695,"Delta":356768983},{"NoteNumber":47,"Velocity":46,"Duration":108695,"SoundDuration":108695,"Delta":356877679},{"NoteNumber":45,"Velocity":46,"Duration":115384,"SoundDuration":115384,"Delta":356986374},{"NoteNumber":71,"Velocity":68,"Duration":1094130,"SoundDuration":1094130,"Delta":357101759},{"NoteNumber":44,"Velocity":50,"Duration":109090,"SoundDuration":109090,"Delta":357101759},{"NoteNumber":50,"Velocity":48,"Duration":109091,"SoundDuration":109091,"Delta":357210850},{"NoteNumber":47,"Velocity":48,"Duration":109090,"SoundDuration":109090,"Delta":357319941},{"NoteNumber":53,"Velocity":48,"Duration":109091,"SoundDuration":109091,"Delta":357429032},{"NoteNumber":56,"Velocity":56,"Duration":109090,"SoundDuration":109090,"Delta":357538123},{"NoteNumber":62,"Velocity":52,"Duration":109090,"SoundDuration":109090,"Delta":357647214},{"NoteNumber":59,"Velocity":57,"Duration":110701,"SoundDuration":110701,"Delta":357756305},{"NoteNumber":65,"Velocity":52,"Duration":110701,"SoundDuration":110701,"Delta":357867006},{"NoteNumber":66,"Velocity":57,"Duration":436364,"SoundDuration":436364,"Delta":357977707},{"NoteNumber":45,"Velocity":57,"Duration":109090,"SoundDuration":109090,"Delta":357977707},{"NoteNumber":54,"Velocity":52,"Duration":109091,"SoundDuration":109091,"Delta":358086798},{"NoteNumber":50,"Velocity":57,"Duration":109090,"SoundDuration":109090,"Delta":358195889},{"NoteNumber":57,"Velocity":52,"Duration":109091,"SoundDuration":109091,"Delta":358304980},{"NoteNumber":62,"Velocity":57,"Duration":108303,"SoundDuration":108303,"Delta":358414071},{"NoteNumber":54,"Velocity":57,"Duration":108303,"SoundDuration":108303,"Delta":358414071},{"NoteNumber":66,"Velocity":52,"Duration":108303,"SoundDuration":108303,"Delta":358522374},{"NoteNumber":62,"Velocity":49,"Duration":108303,"SoundDuration":108303,"Delta":358522374},{"NoteNumber":68,"Velocity":57,"Duration":216606,"SoundDuration":216606,"Delta":358630677},{"NoteNumber":65,"Velocity":48,"Duration":108303,"SoundDuration":108303,"Delta":358630677},{"NoteNumber":47,"Velocity":57,"Duration":216606,"SoundDuration":216606,"Delta":358630677},{"NoteNumber":64,"Velocity":52,"Duration":108303,"SoundDuration":108303,"Delta":358738981},{"NoteNumber":67,"Velocity":63,"Duration":218977,"SoundDuration":218977,"Delta":358847284},{"NoteNumber":58,"Velocity":57,"Duration":109488,"SoundDuration":109488,"Delta":358847284},{"NoteNumber":49,"Velocity":59,"Duration":218977,"SoundDuration":218977,"Delta":358847284},{"NoteNumber":64,"Velocity":50,"Duration":109488,"SoundDuration":109488,"Delta":358956773},{"NoteNumber":66,"Velocity":58,"Duration":447848,"SoundDuration":447848,"Delta":359066262},{"NoteNumber":62,"Velocity":48,"Duration":109488,"SoundDuration":109488,"Delta":359066262},{"NoteNumber":50,"Velocity":65,"Duration":230456,"SoundDuration":230456,"Delta":359066262},{"NoteNumber":57,"Velocity":51,"Duration":120967,"SoundDuration":120967,"Delta":359175751},{"NoteNumber":58,"Velocity":68,"Duration":435468,"SoundDuration":435468,"Delta":359296719},{"NoteNumber":31,"Velocity":80,"Duration":217391,"SoundDuration":217391,"Delta":359296719},{"NoteNumber":64,"Velocity":57,"Duration":218076,"SoundDuration":218076,"Delta":359514110},{"NoteNumber":58,"Velocity":65,"Duration":652003,"SoundDuration":652003,"Delta":359732187},{"NoteNumber":49,"Velocity":71,"Duration":73631,"SoundDuration":73631,"Delta":359732187},{"NoteNumber":50,"Velocity":63,"Duration":73149,"SoundDuration":73149,"Delta":359805818},{"NoteNumber":49,"Velocity":71,"Duration":72777,"SoundDuration":72777,"Delta":359878968},{"NoteNumber":55,"Velocity":65,"Duration":215946,"SoundDuration":215946,"Delta":359951745},{"NoteNumber":50,"Velocity":62,"Duration":72405,"SoundDuration":72405,"Delta":359951745},{"NoteNumber":49,"Velocity":71,"Duration":71988,"SoundDuration":71988,"Delta":360024150},{"NoteNumber":50,"Velocity":63,"Duration":71553,"SoundDuration":71553,"Delta":360096138},{"NoteNumber":52,"Velocity":65,"Duration":436834,"SoundDuration":436834,"Delta":360167691},{"NoteNumber":49,"Velocity":71,"Duration":71742,"SoundDuration":71742,"Delta":360167691},{"NoteNumber":50,"Velocity":65,"Duration":72156,"SoundDuration":72156,"Delta":360239434},{"NoteNumber":49,"Velocity":71,"Duration":72598,"SoundDuration":72598,"Delta":360311591},{"NoteNumber":58,"Velocity":65,"Duration":328639,"SoundDuration":328639,"Delta":360384190},{"NoteNumber":50,"Velocity":65,"Duration":54737,"SoundDuration":54737,"Delta":360384190},{"NoteNumber":49,"Velocity":65,"Duration":55002,"SoundDuration":55002,"Delta":360438928},{"NoteNumber":47,"Velocity":65,"Duration":55245,"SoundDuration":55245,"Delta":360493930},{"NoteNumber":49,"Velocity":65,"Duration":55350,"SoundDuration":55350,"Delta":360549175},{"NoteNumber":54,"Velocity":65,"Duration":324909,"SoundDuration":324909,"Delta":360604526},{"NoteNumber":50,"Velocity":73,"Duration":433213,"SoundDuration":433213,"Delta":360604526},{"NoteNumber":56,"Velocity":57,"Duration":108303,"SoundDuration":108303,"Delta":360712829},{"NoteNumber":57,"Velocity":65,"Duration":324909,"SoundDuration":324909,"Delta":360821132},{"NoteNumber":53,"Velocity":60,"Duration":108303,"SoundDuration":108303,"Delta":360929436},{"NoteNumber":54,"Velocity":65,"Duration":324909,"SoundDuration":324909,"Delta":361037739},{"NoteNumber":61,"Velocity":58,"Duration":108303,"SoundDuration":108303,"Delta":361146042},{"NoteNumber":62,"Velocity":65,"Duration":326095,"SoundDuration":326095,"Delta":361254345},{"NoteNumber":50,"Velocity":69,"Duration":129963,"SoundDuration":129963,"Delta":361254345},{"NoteNumber":55,"Velocity":60,"Duration":108303,"SoundDuration":108303,"Delta":361362649},{"NoteNumber":49,"Velocity":68,"Duration":130201,"SoundDuration":130201,"Delta":361362649},{"NoteNumber":57,"Velocity":65,"Duration":330088,"SoundDuration":330088,"Delta":361470952},{"NoteNumber":47,"Velocity":66,"Duration":131386,"SoundDuration":131386,"Delta":361470952},{"NoteNumber":61,"Velocity":58,"Duration":109488,"SoundDuration":109488,"Delta":361580441},{"NoteNumber":45,"Velocity":65,"Duration":131711,"SoundDuration":131711,"Delta":361580441},{"NoteNumber":62,"Velocity":65,"Duration":330135,"SoundDuration":330135,"Delta":361689930},{"NoteNumber":43,"Velocity":64,"Duration":133333,"SoundDuration":133333,"Delta":361689930},{"NoteNumber":58,"Velocity":60,"Duration":111110,"SoundDuration":111110,"Delta":361801041},{"NoteNumber":42,"Velocity":62,"Duration":111110,"SoundDuration":111110,"Delta":361801041},{"NoteNumber":59,"Velocity":65,"Duration":323741,"SoundDuration":323741,"Delta":361912152},{"NoteNumber":47,"Velocity":73,"Duration":431654,"SoundDuration":431654,"Delta":361912152},{"NoteNumber":53,"Velocity":58,"Duration":107913,"SoundDuration":107913,"Delta":362020066},{"NoteNumber":54,"Velocity":65,"Duration":322588,"SoundDuration":322588,"Delta":362127979},{"NoteNumber":49,"Velocity":60,"Duration":107913,"SoundDuration":107913,"Delta":362235893},{"NoteNumber":50,"Velocity":65,"Duration":321050,"SoundDuration":321050,"Delta":362343807},{"NoteNumber":54,"Velocity":59,"Duration":106761,"SoundDuration":106761,"Delta":362450568},{"NoteNumber":55,"Velocity":65,"Duration":324944,"SoundDuration":324944,"Delta":362557330},{"NoteNumber":47,"Velocity":69,"Duration":129032,"SoundDuration":129032,"Delta":362557330},{"NoteNumber":51,"Velocity":60,"Duration":107527,"SoundDuration":107527,"Delta":362664857},{"NoteNumber":45,"Velocity":68,"Duration":129504,"SoundDuration":129504,"Delta":362664857},{"NoteNumber":52,"Velocity":65,"Duration":332561,"SoundDuration":332561,"Delta":362772384},{"NoteNumber":43,"Velocity":66,"Duration":131867,"SoundDuration":131867,"Delta":362772384},{"NoteNumber":57,"Velocity":57,"Duration":109890,"SoundDuration":109890,"Delta":362882274},{"NoteNumber":42,"Velocity":65,"Duration":132446,"SoundDuration":132446,"Delta":362882274},{"NoteNumber":59,"Velocity":65,"Duration":333867,"SoundDuration":333867,"Delta":362992164},{"NoteNumber":40,"Velocity":64,"Duration":135338,"SoundDuration":135338,"Delta":362992164},{"NoteNumber":54,"Velocity":60,"Duration":112782,"SoundDuration":112782,"Delta":363104946},{"NoteNumber":38,"Velocity":62,"Duration":112782,"SoundDuration":112782,"Delta":363104946},{"NoteNumber":55,"Velocity":65,"Duration":324909,"SoundDuration":324909,"Delta":363217728},{"NoteNumber":43,"Velocity":73,"Duration":433213,"SoundDuration":433213,"Delta":363217728},{"NoteNumber":58,"Velocity":59,"Duration":108303,"SoundDuration":108303,"Delta":363326031},{"NoteNumber":59,"Velocity":65,"Duration":323749,"SoundDuration":323749,"Delta":363434334},{"NoteNumber":54,"Velocity":60,"Duration":108303,"SoundDuration":108303,"Delta":363542638},{"NoteNumber":55,"Velocity":65,"Duration":321428,"SoundDuration":321428,"Delta":363650941},{"NoteNumber":63,"Velocity":56,"Duration":107142,"SoundDuration":107142,"Delta":363758084},{"NoteNumber":64,"Velocity":65,"Duration":322199,"SoundDuration":322199,"Delta":363865226},{"NoteNumber":43,"Velocity":66,"Duration":128571,"SoundDuration":128571,"Delta":363865226},{"NoteNumber":57,"Velocity":60,"Duration":107142,"SoundDuration":107142,"Delta":363972369},{"NoteNumber":42,"Velocity":60,"Duration":128725,"SoundDuration":128725,"Delta":363972369},{"NoteNumber":59,"Velocity":65,"Duration":323741,"SoundDuration":323741,"Delta":364079512},{"NoteNumber":40,"Velocity":66,"Duration":129496,"SoundDuration":129496,"Delta":364079512},{"NoteNumber":66,"Velocity":59,"Duration":107913,"SoundDuration":107913,"Delta":364187426},{"NoteNumber":39,"Velocity":57,"Duration":129496,"SoundDuration":129496,"Delta":364187426},{"NoteNumber":67,"Velocity":65,"Duration":434001,"SoundDuration":434001,"Delta":364295339},{"NoteNumber":40,"Velocity":57,"Duration":129652,"SoundDuration":129652,"Delta":364295339},{"NoteNumber":58,"Velocity":60,"Duration":108695,"SoundDuration":108695,"Delta":364403253},{"NoteNumber":38,"Velocity":57,"Duration":130434,"SoundDuration":130434,"Delta":364403253},{"NoteNumber":57,"Velocity":60,"Duration":437979,"SoundDuration":437979,"Delta":364511949},{"NoteNumber":37,"Velocity":66,"Duration":130434,"SoundDuration":130434,"Delta":364511949},{"NoteNumber":38,"Velocity":58,"Duration":130754,"SoundDuration":130754,"Delta":364620645},{"NoteNumber":68,"Velocity":72,"Duration":220588,"SoundDuration":220588,"Delta":364729340},{"NoteNumber":37,"Velocity":58,"Duration":132352,"SoundDuration":132352,"Delta":364729340},{"NoteNumber":35,"Velocity":58,"Duration":131954,"SoundDuration":131954,"Delta":364839634},{"NoteNumber":69,"Velocity":78,"Duration":647509,"SoundDuration":647509,"Delta":364949928},{"NoteNumber":33,"Velocity":66,"Duration":129963,"SoundDuration":129963,"Delta":364949928},{"NoteNumber":35,"Velocity":61,"Duration":129963,"SoundDuration":129963,"Delta":365058232},{"NoteNumber":64,"Velocity":67,"Duration":216606,"SoundDuration":216606,"Delta":365166535},{"NoteNumber":37,"Velocity":61,"Duration":129963,"SoundDuration":129963,"Delta":365166535},{"NoteNumber":38,"Velocity":61,"Duration":129579,"SoundDuration":129579,"Delta":365274838},{"NoteNumber":61,"Velocity":73,"Duration":214296,"SoundDuration":214296,"Delta":365383141},{"NoteNumber":39,"Velocity":66,"Duration":127965,"SoundDuration":127965,"Delta":365383141},{"NoteNumber":40,"Velocity":58,"Duration":129496,"SoundDuration":129496,"Delta":365489524},{"NoteNumber":57,"Velocity":65,"Duration":431654,"SoundDuration":431654,"Delta":365597438},{"NoteNumber":67,"Velocity":65,"Duration":215827,"SoundDuration":215827,"Delta":365597438},{"NoteNumber":42,"Velocity":58,"Duration":129496,"SoundDuration":129496,"Delta":365597438},{"NoteNumber":40,"Velocity":58,"Duration":129496,"SoundDuration":129496,"Delta":365705352},{"NoteNumber":66,"Velocity":73,"Duration":431654,"SoundDuration":431654,"Delta":365813266},{"NoteNumber":38,"Velocity":66,"Duration":129496,"SoundDuration":129496,"Delta":365813266},{"NoteNumber":40,"Velocity":58,"Duration":129496,"SoundDuration":129496,"Delta":365921179},{"NoteNumber":58,"Velocity":65,"Duration":215827,"SoundDuration":215827,"Delta":366029093},{"NoteNumber":38,"Velocity":58,"Duration":129496,"SoundDuration":129496,"Delta":366029093},{"NoteNumber":37,"Velocity":58,"Duration":129496,"SoundDuration":129496,"Delta":366137007},{"NoteNumber":59,"Velocity":65,"Duration":647482,"SoundDuration":647482,"Delta":366244921},{"NoteNumber":35,"Velocity":66,"Duration":129496,"SoundDuration":129496,"Delta":366244921},{"NoteNumber":37,"Velocity":61,"Duration":129496,"SoundDuration":129496,"Delta":366352834},{"NoteNumber":66,"Velocity":66,"Duration":215827,"SoundDuration":215827,"Delta":366460748},{"NoteNumber":38,"Velocity":61,"Duration":129496,"SoundDuration":129496,"Delta":366460748},{"NoteNumber":40,"Velocity":61,"Duration":129496,"SoundDuration":129496,"Delta":366568662},{"NoteNumber":63,"Velocity":71,"Duration":215827,"SoundDuration":215827,"Delta":366676576},{"NoteNumber":41,"Velocity":66,"Duration":129496,"SoundDuration":129496,"Delta":366676576},{"NoteNumber":42,"Velocity":58,"Duration":129496,"SoundDuration":129496,"Delta":366784489},{"NoteNumber":57,"Velocity":65,"Duration":215827,"SoundDuration":215827,"Delta":366892403},{"NoteNumber":59,"Velocity":67,"Duration":441391,"SoundDuration":441391,"Delta":366892403},{"NoteNumber":43,"Velocity":58,"Duration":129496,"SoundDuration":129496,"Delta":366892403},{"NoteNumber":42,"Velocity":58,"Duration":130470,"SoundDuration":130470,"Delta":367000317},{"NoteNumber":55,"Velocity":65,"Duration":225564,"SoundDuration":225564,"Delta":367108231},{"NoteNumber":40,"Velocity":66,"Duration":135338,"SoundDuration":135338,"Delta":367108231},{"NoteNumber":41,"Velocity":58,"Duration":134922,"SoundDuration":134922,"Delta":367221013},{"NoteNumber":71,"Velocity":82,"Duration":221402,"SoundDuration":221402,"Delta":367333795},{"NoteNumber":40,"Velocity":58,"Duration":132841,"SoundDuration":132841,"Delta":367333795},{"NoteNumber":38,"Velocity":58,"Duration":132361,"SoundDuration":132361,"Delta":367444496},{"NoteNumber":72,"Velocity":86,"Duration":649819,"SoundDuration":649819,"Delta":367555197},{"NoteNumber":36,"Velocity":66,"Duration":129963,"SoundDuration":129963,"Delta":367555197},{"NoteNumber":38,"Velocity":61,"Duration":129963,"SoundDuration":129963,"Delta":367663500},{"NoteNumber":67,"Velocity":69,"Duration":216606,"SoundDuration":216606,"Delta":367771803},{"NoteNumber":40,"Velocity":61,"Duration":129963,"SoundDuration":129963,"Delta":367771803},{"NoteNumber":41,"Velocity":61,"Duration":129963,"SoundDuration":129963,"Delta":367880106},{"NoteNumber":64,"Velocity":75,"Duration":216606,"SoundDuration":216606,"Delta":367988410},{"NoteNumber":42,"Velocity":66,"Duration":129963,"SoundDuration":129963,"Delta":367988410},{"NoteNumber":43,"Velocity":58,"Duration":129963,"SoundDuration":129963,"Delta":368096713},{"NoteNumber":60,"Velocity":65,"Duration":433213,"SoundDuration":433213,"Delta":368205016},{"NoteNumber":71,"Velocity":70,"Duration":216606,"SoundDuration":216606,"Delta":368205016},{"NoteNumber":45,"Velocity":58,"Duration":129963,"SoundDuration":129963,"Delta":368205016},{"NoteNumber":43,"Velocity":58,"Duration":129963,"SoundDuration":129963,"Delta":368313319},{"NoteNumber":69,"Velocity":76,"Duration":216606,"SoundDuration":216606,"Delta":368421623},{"NoteNumber":42,"Velocity":66,"Duration":129963,"SoundDuration":129963,"Delta":368421623},{"NoteNumber":43,"Velocity":58,"Duration":129963,"SoundDuration":129963,"Delta":368529926},{"NoteNumber":61,"Velocity":75,"Duration":215445,"SoundDuration":215445,"Delta":368638229},{"NoteNumber":42,"Velocity":58,"Duration":129731,"SoundDuration":129731,"Delta":368638229},{"NoteNumber":40,"Velocity":58,"Duration":128571,"SoundDuration":128571,"Delta":368746532},{"NoteNumber":62,"Velocity":75,"Duration":645946,"SoundDuration":645946,"Delta":368853675},{"NoteNumber":38,"Velocity":66,"Duration":128571,"SoundDuration":128571,"Delta":368853675},{"NoteNumber":40,"Velocity":61,"Duration":128803,"SoundDuration":128803,"Delta":368960818},{"NoteNumber":69,"Velocity":69,"Duration":216606,"SoundDuration":216606,"Delta":369067961},{"NoteNumber":42,"Velocity":61,"Duration":129963,"SoundDuration":129963,"Delta":369067961},{"NoteNumber":43,"Velocity":61,"Duration":129808,"SoundDuration":129808,"Delta":369176264},{"NoteNumber":66,"Velocity":74,"Duration":215054,"SoundDuration":215054,"Delta":369284567},{"NoteNumber":44,"Velocity":66,"Duration":129032,"SoundDuration":129032,"Delta":369284567},{"NoteNumber":45,"Velocity":58,"Duration":129032,"SoundDuration":129032,"Delta":369392094},{"NoteNumber":60,"Velocity":69,"Duration":215054,"SoundDuration":215054,"Delta":369499621},{"NoteNumber":62,"Velocity":69,"Duration":438102,"SoundDuration":438102,"Delta":369499621},{"NoteNumber":47,"Velocity":58,"Duration":129032,"SoundDuration":129032,"Delta":369499621},{"NoteNumber":45,"Velocity":58,"Duration":107527,"SoundDuration":107527,"Delta":369607148},{"NoteNumber":59,"Velocity":63,"Duration":111524,"SoundDuration":111524,"Delta":369714675},{"NoteNumber":43,"Velocity":58,"Duration":223048,"SoundDuration":223048,"Delta":369714675},{"NoteNumber":60,"Velocity":62,"Duration":133184,"SoundDuration":133184,"Delta":369826200},{"NoteNumber":74,"Velocity":72,"Duration":129963,"SoundDuration":129963,"Delta":369937724},{"NoteNumber":59,"Velocity":54,"Duration":129963,"SoundDuration":129963,"Delta":369937724},{"NoteNumber":72,"Velocity":69,"Duration":129963,"SoundDuration":129963,"Delta":370046027},{"NoteNumber":57,"Velocity":54,"Duration":129963,"SoundDuration":129963,"Delta":370046027},{"NoteNumber":71,"Velocity":72,"Duration":655434,"SoundDuration":655434,"Delta":370154330},{"NoteNumber":55,"Velocity":64,"Duration":216606,"SoundDuration":216606,"Delta":370154330},{"NoteNumber":57,"Velocity":57,"Duration":129963,"SoundDuration":129963,"Delta":370262634},{"NoteNumber":53,"Velocity":57,"Duration":216606,"SoundDuration":216606,"Delta":370370937},{"NoteNumber":59,"Velocity":57,"Duration":129963,"SoundDuration":129963,"Delta":370370937},{"NoteNumber":60,"Velocity":57,"Duration":130525,"SoundDuration":130525,"Delta":370479240},{"NoteNumber":61,"Velocity":64,"Duration":133333,"SoundDuration":133333,"Delta":370587543},{"NoteNumber":52,"Velocity":64,"Duration":222221,"SoundDuration":222221,"Delta":370587543},{"NoteNumber":62,"Velocity":57,"Duration":132616,"SoundDuration":132616,"Delta":370698654},{"NoteNumber":76,"Velocity":69,"Duration":435642,"SoundDuration":435642,"Delta":370809765},{"NoteNumber":56,"Velocity":57,"Duration":129032,"SoundDuration":129032,"Delta":370809765},{"NoteNumber":62,"Velocity":57,"Duration":107527,"SoundDuration":107527,"Delta":370917292},{"NoteNumber":56,"Velocity":53,"Duration":435642,"SoundDuration":435642,"Delta":371024819},{"NoteNumber":60,"Velocity":49,"Duration":110294,"SoundDuration":110294,"Delta":371024819},{"NoteNumber":62,"Velocity":44,"Duration":110294,"SoundDuration":110294,"Delta":371135113},{"NoteNumber":76,"Velocity":69,"Duration":107527,"SoundDuration":107527,"Delta":371245407},{"NoteNumber":60,"Velocity":49,"Duration":107527,"SoundDuration":107527,"Delta":371245407},{"NoteNumber":74,"Velocity":65,"Duration":107527,"SoundDuration":107527,"Delta":371352934},{"NoteNumber":59,"Velocity":44,"Duration":107527,"SoundDuration":107527,"Delta":371352934},{"NoteNumber":72,"Velocity":74,"Duration":430108,"SoundDuration":430108,"Delta":371460461},{"NoteNumber":57,"Velocity":48,"Duration":215054,"SoundDuration":215054,"Delta":371460461},{"NoteNumber":59,"Velocity":44,"Duration":107527,"SoundDuration":107527,"Delta":371567988},{"NoteNumber":60,"Velocity":49,"Duration":107527,"SoundDuration":107527,"Delta":371675515},{"NoteNumber":55,"Velocity":48,"Duration":215054,"SoundDuration":215054,"Delta":371675515},{"NoteNumber":62,"Velocity":44,"Duration":107527,"SoundDuration":107527,"Delta":371783042},{"NoteNumber":73,"Velocity":69,"Duration":219780,"SoundDuration":219780,"Delta":371890569},{"NoteNumber":63,"Velocity":49,"Duration":109890,"SoundDuration":109890,"Delta":371890569},{"NoteNumber":54,"Velocity":55,"Duration":219780,"SoundDuration":219780,"Delta":371890569},{"NoteNumber":64,"Velocity":45,"Duration":109890,"SoundDuration":109890,"Delta":372000459},{"NoteNumber":78,"Velocity":75,"Duration":430108,"SoundDuration":430108,"Delta":372110349},{"NoteNumber":58,"Velocity":49,"Duration":107527,"SoundDuration":107527,"Delta":372110349},{"NoteNumber":64,"Velocity":46,"Duration":107527,"SoundDuration":107527,"Delta":372217876},{"NoteNumber":62,"Velocity":49,"Duration":107527,"SoundDuration":107527,"Delta":372325403},{"NoteNumber":58,"Velocity":51,"Duration":430108,"SoundDuration":430108,"Delta":372325403},{"NoteNumber":64,"Velocity":45,"Duration":107527,"SoundDuration":107527,"Delta":372432930},{"NoteNumber":78,"Velocity":70,"Duration":107527,"SoundDuration":107527,"Delta":372540457},{"NoteNumber":62,"Velocity":49,"Duration":107527,"SoundDuration":107527,"Delta":372540457},{"NoteNumber":76,"Velocity":65,"Duration":107527,"SoundDuration":107527,"Delta":372647984},{"NoteNumber":61,"Velocity":43,"Duration":107527,"SoundDuration":107527,"Delta":372647984},{"NoteNumber":74,"Velocity":76,"Duration":645161,"SoundDuration":645161,"Delta":372755511},{"NoteNumber":59,"Velocity":48,"Duration":215053,"SoundDuration":215053,"Delta":372755511},{"NoteNumber":61,"Velocity":42,"Duration":107527,"SoundDuration":107527,"Delta":372863038},{"NoteNumber":57,"Velocity":48,"Duration":215054,"SoundDuration":215054,"Delta":372970565},{"NoteNumber":62,"Velocity":49,"Duration":107527,"SoundDuration":107527,"Delta":372970565},{"NoteNumber":64,"Velocity":45,"Duration":107527,"SoundDuration":107527,"Delta":373078092},{"NoteNumber":65,"Velocity":49,"Duration":107527,"SoundDuration":107527,"Delta":373185619},{"NoteNumber":55,"Velocity":55,"Duration":215054,"SoundDuration":215054,"Delta":373185619},{"NoteNumber":66,"Velocity":45,"Duration":107527,"SoundDuration":107527,"Delta":373293146},{"NoteNumber":71,"Velocity":69,"Duration":110701,"SoundDuration":110701,"Delta":373400673},{"NoteNumber":67,"Velocity":49,"Duration":110701,"SoundDuration":110701,"Delta":373400673},{"NoteNumber":79,"Velocity":75,"Duration":324986,"SoundDuration":324986,"Delta":373511374},{"NoteNumber":65,"Velocity":45,"Duration":110701,"SoundDuration":110701,"Delta":373511374},{"NoteNumber":64,"Velocity":49,"Duration":107142,"SoundDuration":107142,"Delta":373622075},{"NoteNumber":59,"Velocity":53,"Duration":428570,"SoundDuration":428570,"Delta":373622075},{"NoteNumber":65,"Velocity":45,"Duration":107142,"SoundDuration":107142,"Delta":373729218},{"NoteNumber":79,"Velocity":69,"Duration":107142,"SoundDuration":107142,"Delta":373836361},{"NoteNumber":64,"Velocity":49,"Duration":107142,"SoundDuration":107142,"Delta":373836361},{"NoteNumber":77,"Velocity":69,"Duration":107142,"SoundDuration":107142,"Delta":373943504},{"NoteNumber":62,"Velocity":45,"Duration":107142,"SoundDuration":107142,"Delta":373943504},{"NoteNumber":76,"Velocity":76,"Duration":214285,"SoundDuration":214285,"Delta":374050646},{"NoteNumber":60,"Velocity":48,"Duration":214285,"SoundDuration":214285,"Delta":374050646},{"NoteNumber":62,"Velocity":49,"Duration":107142,"SoundDuration":107142,"Delta":374157789},{"NoteNumber":79,"Velocity":78,"Duration":214285,"SoundDuration":214285,"Delta":374264932},{"NoteNumber":64,"Velocity":49,"Duration":107142,"SoundDuration":107142,"Delta":374264932},{"NoteNumber":59,"Velocity":50,"Duration":214285,"SoundDuration":214285,"Delta":374264932},{"NoteNumber":62,"Velocity":47,"Duration":107142,"SoundDuration":107142,"Delta":374372075},{"NoteNumber":78,"Velocity":81,"Duration":214285,"SoundDuration":214285,"Delta":374479217},{"NoteNumber":57,"Velocity":51,"Duration":214285,"SoundDuration":214285,"Delta":374479217},{"NoteNumber":60,"Velocity":49,"Duration":107142,"SoundDuration":107142,"Delta":374479217},{"NoteNumber":62,"Velocity":47,"Duration":107142,"SoundDuration":107142,"Delta":374586360},{"NoteNumber":79,"Velocity":84,"Duration":221402,"SoundDuration":221402,"Delta":374693503},{"NoteNumber":60,"Velocity":49,"Duration":110701,"SoundDuration":110701,"Delta":374693503},{"NoteNumber":55,"Velocity":52,"Duration":221402,"SoundDuration":221402,"Delta":374693503},{"NoteNumber":59,"Velocity":48,"Duration":110701,"SoundDuration":110701,"Delta":374804204},{"NoteNumber":84,"Velocity":86,"Duration":214285,"SoundDuration":214285,"Delta":374914905},{"NoteNumber":57,"Velocity":49,"Duration":107142,"SoundDuration":107142,"Delta":374914905},{"NoteNumber":54,"Velocity":54,"Duration":214285,"SoundDuration":214285,"Delta":374914905},{"NoteNumber":59,"Velocity":49,"Duration":107142,"SoundDuration":107142,"Delta":375022048},{"NoteNumber":52,"Velocity":56,"Duration":215674,"SoundDuration":215674,"Delta":375129190},{"NoteNumber":57,"Velocity":49,"Duration":107142,"SoundDuration":107142,"Delta":375129190},{"NoteNumber":55,"Velocity":50,"Duration":108531,"SoundDuration":108531,"Delta":375236333},{"NoteNumber":69,"Velocity":69,"Duration":72303,"SoundDuration":72303,"Delta":375344865},{"NoteNumber":54,"Velocity":57,"Duration":429069,"SoundDuration":429069,"Delta":375344865},{"NoteNumber":51,"Velocity":49,"Duration":108349,"SoundDuration":108349,"Delta":375344865},{"NoteNumber":71,"Velocity":63,"Duration":71988,"SoundDuration":71988,"Delta":375417168},{"NoteNumber":50,"Velocity":49,"Duration":107572,"SoundDuration":107572,"Delta":375453214},{"NoteNumber":69,"Velocity":69,"Duration":71630,"SoundDuration":71630,"Delta":375489156},{"NoteNumber":71,"Velocity":64,"Duration":70740,"SoundDuration":70740,"Delta":375560787},{"NoteNumber":48,"Velocity":54,"Duration":106201,"SoundDuration":106201,"Delta":375560787},{"NoteNumber":69,"Velocity":69,"Duration":71026,"SoundDuration":71026,"Delta":375631527},{"NoteNumber":50,"Velocity":49,"Duration":106945,"SoundDuration":106945,"Delta":375666988},{"NoteNumber":71,"Velocity":63,"Duration":71380,"SoundDuration":71380,"Delta":375702553},{"NoteNumber":69,"Velocity":69,"Duration":71742,"SoundDuration":71742,"Delta":375773934},{"NoteNumber":66,"Velocity":69,"Duration":436695,"SoundDuration":436695,"Delta":375773934},{"NoteNumber":51,"Velocity":53,"Duration":107769,"SoundDuration":107769,"Delta":375773934},{"NoteNumber":71,"Velocity":64,"Duration":72156,"SoundDuration":72156,"Delta":375845677},{"NoteNumber":50,"Velocity":49,"Duration":108650,"SoundDuration":108650,"Delta":375881704},{"NoteNumber":69,"Velocity":69,"Duration":72519,"SoundDuration":72519,"Delta":375917834},{"NoteNumber":71,"Velocity":64,"Duration":73217,"SoundDuration":73217,"Delta":375990354},{"NoteNumber":51,"Velocity":53,"Duration":109982,"SoundDuration":109982,"Delta":375990354},{"NoteNumber":69,"Velocity":69,"Duration":73529,"SoundDuration":73529,"Delta":376063571},{"NoteNumber":48,"Velocity":49,"Duration":110294,"SoundDuration":110294,"Delta":376100336},{"NoteNumber":71,"Velocity":63,"Duration":73529,"SoundDuration":73529,"Delta":376137101},{"NoteNumber":67,"Velocity":69,"Duration":447761,"SoundDuration":447761,"Delta":376210630},{"NoteNumber":59,"Velocity":65,"Duration":111940,"SoundDuration":111940,"Delta":376434510},{"NoteNumber":47,"Velocity":73,"Duration":638298,"SoundDuration":638298,"Delta":376658391},{"NoteNumber":67,"Velocity":69,"Duration":106382,"SoundDuration":106382,"Delta":376871157},{"NoteNumber":57,"Velocity":57,"Duration":212765,"SoundDuration":212765,"Delta":376871157},{"NoteNumber":69,"Velocity":62,"Duration":106382,"SoundDuration":106382,"Delta":376977540},{"NoteNumber":71,"Velocity":69,"Duration":106383,"SoundDuration":106383,"Delta":377083923},{"NoteNumber":55,"Velocity":63,"Duration":425532,"SoundDuration":425532,"Delta":377083923},{"NoteNumber":72,"Velocity":65,"Duration":106382,"SoundDuration":106382,"Delta":377190306},{"NoteNumber":74,"Velocity":65,"Duration":106382,"SoundDuration":106382,"Delta":377296689},{"NoteNumber":76,"Velocity":65,"Duration":106382,"SoundDuration":106382,"Delta":377403072},{"NoteNumber":71,"Velocity":75,"Duration":451127,"SoundDuration":451127,"Delta":377509455},{"NoteNumber":55,"Velocity":64,"Duration":112781,"SoundDuration":112781,"Delta":377735019},{"NoteNumber":43,"Velocity":69,"Duration":636041,"SoundDuration":636041,"Delta":377960583},{"NoteNumber":71,"Velocity":69,"Duration":106006,"SoundDuration":106006,"Delta":378172597},{"NoteNumber":54,"Velocity":53,"Duration":212014,"SoundDuration":212014,"Delta":378172597},{"NoteNumber":72,"Velocity":63,"Duration":106007,"SoundDuration":106007,"Delta":378278604},{"NoteNumber":74,"Velocity":69,"Duration":106006,"SoundDuration":106006,"Delta":378384611},{"NoteNumber":52,"Velocity":61,"Duration":212013,"SoundDuration":212013,"Delta":378384611},{"NoteNumber":76,"Velocity":69,"Duration":106006,"SoundDuration":106006,"Delta":378490618},{"NoteNumber":78,"Velocity":63,"Duration":106007,"SoundDuration":106007,"Delta":378596625},{"NoteNumber":50,"Velocity":53,"Duration":212014,"SoundDuration":212014,"Delta":378596625},{"NoteNumber":47,"Velocity":53,"Duration":212014,"SoundDuration":212014,"Delta":378596625},{"NoteNumber":79,"Velocity":63,"Duration":106006,"SoundDuration":106006,"Delta":378702632},{"NoteNumber":74,"Velocity":75,"Duration":447761,"SoundDuration":447761,"Delta":378808639},{"NoteNumber":45,"Velocity":53,"Duration":223880,"SoundDuration":223880,"Delta":378808639},{"NoteNumber":48,"Velocity":53,"Duration":223880,"SoundDuration":223880,"Delta":378808639},{"NoteNumber":60,"Velocity":65,"Duration":223880,"SoundDuration":223880,"Delta":379032519},{"NoteNumber":48,"Velocity":53,"Duration":212765,"SoundDuration":212765,"Delta":379256400},{"NoteNumber":52,"Velocity":53,"Duration":212765,"SoundDuration":212765,"Delta":379256400},{"NoteNumber":74,"Velocity":69,"Duration":106382,"SoundDuration":106382,"Delta":379469166},{"NoteNumber":50,"Velocity":50,"Duration":212765,"SoundDuration":212765,"Delta":379469166},{"NoteNumber":47,"Velocity":50,"Duration":212765,"SoundDuration":212765,"Delta":379469166},{"NoteNumber":76,"Velocity":63,"Duration":106382,"SoundDuration":106382,"Delta":379575549},{"NoteNumber":78,"Velocity":69,"Duration":106383,"SoundDuration":106383,"Delta":379681932},{"NoteNumber":45,"Velocity":53,"Duration":212766,"SoundDuration":212766,"Delta":379681932},{"NoteNumber":48,"Velocity":53,"Duration":212766,"SoundDuration":212766,"Delta":379681932},{"NoteNumber":76,"Velocity":65,"Duration":106382,"SoundDuration":106382,"Delta":379788315},{"NoteNumber":78,"Velocity":65,"Duration":106382,"SoundDuration":106382,"Delta":379894698},{"NoteNumber":43,"Velocity":50,"Duration":219590,"SoundDuration":219590,"Delta":379894698},{"NoteNumber":47,"Velocity":50,"Duration":219590,"SoundDuration":219590,"Delta":379894698},{"NoteNumber":79,"Velocity":65,"Duration":113207,"SoundDuration":113207,"Delta":380001081},{"NoteNumber":81,"Velocity":69,"Duration":106006,"SoundDuration":106006,"Delta":380114288},{"NoteNumber":42,"Velocity":59,"Duration":212014,"SoundDuration":212014,"Delta":380114288},{"NoteNumber":45,"Velocity":59,"Duration":429545,"SoundDuration":429545,"Delta":380114288},{"NoteNumber":80,"Velocity":65,"Duration":106007,"SoundDuration":106007,"Delta":380220295},{"NoteNumber":81,"Velocity":69,"Duration":106006,"SoundDuration":106006,"Delta":380326302},{"NoteNumber":51,"Velocity":53,"Duration":217531,"SoundDuration":217531,"Delta":380326302},{"NoteNumber":83,"Velocity":69,"Duration":111524,"SoundDuration":111524,"Delta":380432309},{"NoteNumber":84,"Velocity":79,"Duration":106006,"SoundDuration":106006,"Delta":380543834},{"NoteNumber":50,"Velocity":63,"Duration":1493475,"SoundDuration":1493475,"Delta":380543834},{"NoteNumber":83,"Velocity":71,"Duration":106007,"SoundDuration":106007,"Delta":380649841},{"NoteNumber":81,"Velocity":70,"Duration":106006,"SoundDuration":106006,"Delta":380755848},{"NoteNumber":52,"Velocity":53,"Duration":212014,"SoundDuration":212014,"Delta":380755848},{"NoteNumber":79,"Velocity":67,"Duration":106007,"SoundDuration":106007,"Delta":380861855},{"NoteNumber":78,"Velocity":70,"Duration":106006,"SoundDuration":106006,"Delta":380967862},{"NoteNumber":54,"Velocity":53,"Duration":212013,"SoundDuration":212013,"Delta":380967862},{"NoteNumber":75,"Velocity":67,"Duration":106006,"SoundDuration":106006,"Delta":381073869},{"NoteNumber":74,"Velocity":67,"Duration":106007,"SoundDuration":106007,"Delta":381179876},{"NoteNumber":55,"Velocity":53,"Duration":221391,"SoundDuration":221391,"Delta":381179876},{"NoteNumber":76,"Velocity":67,"Duration":115384,"SoundDuration":115384,"Delta":381285883},{"NoteNumber":78,"Velocity":75,"Duration":106006,"SoundDuration":106006,"Delta":381401267},{"NoteNumber":57,"Velocity":53,"Duration":212014,"SoundDuration":212014,"Delta":381401267},{"NoteNumber":76,"Velocity":73,"Duration":106007,"SoundDuration":106007,"Delta":381507274},{"NoteNumber":74,"Velocity":71,"Duration":106006,"SoundDuration":106006,"Delta":381613281},{"NoteNumber":59,"Velocity":56,"Duration":212014,"SoundDuration":212014,"Delta":381613281},{"NoteNumber":72,"Velocity":69,"Duration":106007,"SoundDuration":106007,"Delta":381719288},{"NoteNumber":71,"Velocity":69,"Duration":106006,"SoundDuration":106006,"Delta":381825295},{"NoteNumber":60,"Velocity":60,"Duration":212013,"SoundDuration":212013,"Delta":381825295},{"NoteNumber":69,"Velocity":64,"Duration":106006,"SoundDuration":106006,"Delta":381931302},{"NoteNumber":67,"Velocity":64,"Duration":106007,"SoundDuration":106007,"Delta":382037309},{"NoteNumber":50,"Velocity":53,"Duration":212014,"SoundDuration":212014,"Delta":382037309},{"NoteNumber":59,"Velocity":53,"Duration":212014,"SoundDuration":212014,"Delta":382037309},{"NoteNumber":69,"Velocity":64,"Duration":106006,"SoundDuration":106006,"Delta":382143316},{"NoteNumber":71,"Velocity":64,"Duration":106007,"SoundDuration":106007,"Delta":382249323},{"NoteNumber":57,"Velocity":53,"Duration":212014,"SoundDuration":212014,"Delta":382249323},{"NoteNumber":48,"Velocity":53,"Duration":212014,"SoundDuration":212014,"Delta":382249323},{"NoteNumber":72,"Velocity":66,"Duration":106006,"SoundDuration":106006,"Delta":382355330},{"NoteNumber":74,"Velocity":68,"Duration":108303,"SoundDuration":108303,"Delta":382461337},{"NoteNumber":55,"Velocity":49,"Duration":439173,"SoundDuration":439173,"Delta":382461337},{"NoteNumber":47,"Velocity":49,"Duration":223245,"SoundDuration":223245,"Delta":382461337},{"NoteNumber":75,"Velocity":70,"Duration":114942,"SoundDuration":114942,"Delta":382569640},{"NoteNumber":76,"Velocity":72,"Duration":110294,"SoundDuration":110294,"Delta":382684583},{"NoteNumber":48,"Velocity":53,"Duration":427195,"SoundDuration":427195,"Delta":382684583},{"NoteNumber":79,"Velocity":66,"Duration":105633,"SoundDuration":105633,"Delta":382794877},{"NoteNumber":78,"Velocity":69,"Duration":105633,"SoundDuration":105633,"Delta":382900511},{"NoteNumber":60,"Velocity":53,"Duration":421794,"SoundDuration":421794,"Delta":382900511},{"NoteNumber":76,"Velocity":66,"Duration":105633,"SoundDuration":105633,"Delta":383006144},{"NoteNumber":74,"Velocity":69,"Duration":105263,"SoundDuration":105263,"Delta":383111778},{"NoteNumber":50,"Velocity":58,"Duration":431174,"SoundDuration":431174,"Delta":383111778},{"NoteNumber":79,"Velocity":64,"Duration":105263,"SoundDuration":105263,"Delta":383217041},{"NoteNumber":78,"Velocity":67,"Duration":105263,"SoundDuration":105263,"Delta":383322305},{"NoteNumber":59,"Velocity":53,"Duration":220647,"SoundDuration":220647,"Delta":383322305},{"NoteNumber":79,"Velocity":63,"Duration":115384,"SoundDuration":115384,"Delta":383427568},{"NoteNumber":73,"Velocity":69,"Duration":422534,"SoundDuration":422534,"Delta":383542952},{"NoteNumber":58,"Velocity":64,"Duration":105633,"SoundDuration":105633,"Delta":383542952},{"NoteNumber":52,"Velocity":64,"Duration":422534,"SoundDuration":422534,"Delta":383542952},{"NoteNumber":67,"Velocity":55,"Duration":105633,"SoundDuration":105633,"Delta":383648586},{"NoteNumber":66,"Velocity":56,"Duration":105633,"SoundDuration":105633,"Delta":383754220},{"NoteNumber":67,"Velocity":56,"Duration":105633,"SoundDuration":105633,"Delta":383859854},{"NoteNumber":69,"Velocity":63,"Duration":218182,"SoundDuration":218182,"Delta":383965487},{"NoteNumber":72,"Velocity":75,"Duration":851984,"SoundDuration":851984,"Delta":383965487},{"NoteNumber":54,"Velocity":61,"Duration":130909,"SoundDuration":130909,"Delta":383965487},{"NoteNumber":57,"Velocity":56,"Duration":130217,"SoundDuration":130217,"Delta":384074578},{"NoteNumber":63,"Velocity":68,"Duration":211267,"SoundDuration":211267,"Delta":384183669},{"NoteNumber":55,"Velocity":56,"Duration":126760,"SoundDuration":126760,"Delta":384183669},{"NoteNumber":54,"Velocity":56,"Duration":126760,"SoundDuration":126760,"Delta":384289303},{"NoteNumber":66,"Velocity":68,"Duration":211267,"SoundDuration":211267,"Delta":384394937},{"NoteNumber":52,"Velocity":60,"Duration":126760,"SoundDuration":126760,"Delta":384394937},{"NoteNumber":50,"Velocity":55,"Duration":126760,"SoundDuration":126760,"Delta":384500571},{"NoteNumber":69,"Velocity":68,"Duration":423281,"SoundDuration":423281,"Delta":384606204},{"NoteNumber":52,"Velocity":55,"Duration":126760,"SoundDuration":126760,"Delta":384606204},{"NoteNumber":54,"Velocity":55,"Duration":126835,"SoundDuration":126835,"Delta":384711838},{"NoteNumber":71,"Velocity":75,"Duration":427068,"SoundDuration":427068,"Delta":384817472},{"NoteNumber":55,"Velocity":61,"Duration":127208,"SoundDuration":127208,"Delta":384817472},{"NoteNumber":50,"Velocity":55,"Duration":127512,"SoundDuration":127512,"Delta":384923479},{"NoteNumber":67,"Velocity":69,"Duration":215054,"SoundDuration":215054,"Delta":385029486},{"NoteNumber":55,"Velocity":55,"Duration":129032,"SoundDuration":129032,"Delta":385029486},{"NoteNumber":54,"Velocity":55,"Duration":128653,"SoundDuration":128653,"Delta":385137013},{"NoteNumber":73,"Velocity":73,"Duration":211267,"SoundDuration":211267,"Delta":385244540},{"NoteNumber":52,"Velocity":60,"Duration":126760,"SoundDuration":126760,"Delta":385244540},{"NoteNumber":54,"Velocity":53,"Duration":126760,"SoundDuration":126760,"Delta":385350174},{"NoteNumber":74,"Velocity":76,"Duration":211267,"SoundDuration":211267,"Delta":385455807},{"NoteNumber":52,"Velocity":53,"Duration":126760,"SoundDuration":126760,"Delta":385455807},{"NoteNumber":50,"Velocity":53,"Duration":126910,"SoundDuration":126910,"Delta":385561441},{"NoteNumber":67,"Velocity":66,"Duration":212765,"SoundDuration":212765,"Delta":385667075},{"NoteNumber":76,"Velocity":78,"Duration":212765,"SoundDuration":212765,"Delta":385667075},{"NoteNumber":49,"Velocity":60,"Duration":127659,"SoundDuration":127659,"Delta":385667075},{"NoteNumber":50,"Velocity":54,"Duration":127659,"SoundDuration":127659,"Delta":385773458},{"NoteNumber":78,"Velocity":81,"Duration":218924,"SoundDuration":218924,"Delta":385879841},{"NoteNumber":49,"Velocity":55,"Duration":129371,"SoundDuration":129371,"Delta":385879841},{"NoteNumber":47,"Velocity":55,"Duration":112541,"SoundDuration":112541,"Delta":385986224},{"NoteNumber":79,"Velocity":90,"Duration":633121,"SoundDuration":633121,"Delta":386098765},{"NoteNumber":50,"Velocity":60,"Duration":71781,"SoundDuration":71781,"Delta":386098765},{"NoteNumber":45,"Velocity":60,"Duration":214074,"SoundDuration":214074,"Delta":386098765},{"NoteNumber":52,"Velocity":55,"Duration":71323,"SoundDuration":71323,"Delta":386170546},{"NoteNumber":50,"Velocity":60,"Duration":70969,"SoundDuration":70969,"Delta":386241870},{"NoteNumber":52,"Velocity":55,"Duration":70615,"SoundDuration":70615,"Delta":386312839},{"NoteNumber":44,"Velocity":55,"Duration":210639,"SoundDuration":210639,"Delta":386312839},{"NoteNumber":50,"Velocity":60,"Duration":70218,"SoundDuration":70218,"Delta":386383455},{"NoteNumber":52,"Velocity":54,"Duration":69805,"SoundDuration":69805,"Delta":386453674},{"NoteNumber":50,"Velocity":60,"Duration":69535,"SoundDuration":69535,"Delta":386523479},{"NoteNumber":45,"Velocity":63,"Duration":860231,"SoundDuration":860231,"Delta":386523479},{"NoteNumber":52,"Velocity":56,"Duration":69303,"SoundDuration":69303,"Delta":386593014},{"NoteNumber":50,"Velocity":60,"Duration":69568,"SoundDuration":69568,"Delta":386662318},{"NoteNumber":78,"Velocity":80,"Duration":210369,"SoundDuration":210369,"Delta":386731886},{"NoteNumber":52,"Velocity":60,"Duration":52353,"SoundDuration":52353,"Delta":386731886},{"NoteNumber":50,"Velocity":55,"Duration":52499,"SoundDuration":52499,"Delta":386784239},{"NoteNumber":49,"Velocity":55,"Duration":52647,"SoundDuration":52647,"Delta":386836739},{"NoteNumber":50,"Velocity":55,"Duration":52869,"SoundDuration":52869,"Delta":386889386},{"NoteNumber":76,"Velocity":85,"Duration":223880,"SoundDuration":223880,"Delta":386942256},{"NoteNumber":49,"Velocity":60,"Duration":441454,"SoundDuration":441454,"Delta":386942256},{"NoteNumber":79,"Velocity":80,"Duration":105633,"SoundDuration":105633,"Delta":387166136},{"NoteNumber":78,"Velocity":69,"Duration":111940,"SoundDuration":111940,"Delta":387271770},{"NoteNumber":66,"Velocity":79,"Duration":422534,"SoundDuration":422534,"Delta":387383710},{"NoteNumber":50,"Velocity":61,"Duration":105633,"SoundDuration":105633,"Delta":387594978},{"NoteNumber":47,"Velocity":61,"Duration":211267,"SoundDuration":211267,"Delta":387594978},{"NoteNumber":52,"Velocity":56,"Duration":105633,"SoundDuration":105633,"Delta":387700612},{"NoteNumber":45,"Velocity":60,"Duration":427740,"SoundDuration":427740,"Delta":387806245},{"NoteNumber":54,"Velocity":60,"Duration":106210,"SoundDuration":106210,"Delta":387806245},{"NoteNumber":55,"Velocity":62,"Duration":105402,"SoundDuration":105402,"Delta":387912456},{"NoteNumber":57,"Velocity":64,"Duration":105425,"SoundDuration":105425,"Delta":388017859},{"NoteNumber":59,"Velocity":66,"Duration":110701,"SoundDuration":110701,"Delta":388123284},{"NoteNumber":54,"Velocity":66,"Duration":429587,"SoundDuration":429587,"Delta":388233985},{"NoteNumber":76,"Velocity":80,"Duration":105633,"SoundDuration":105633,"Delta":388445999},{"NoteNumber":74,"Velocity":69,"Duration":111940,"SoundDuration":111940,"Delta":388551633},{"NoteNumber":62,"Velocity":79,"Duration":422535,"SoundDuration":422535,"Delta":388663573},{"NoteNumber":43,"Velocity":61,"Duration":211267,"SoundDuration":211267,"Delta":388874841},{"NoteNumber":54,"Velocity":61,"Duration":105633,"SoundDuration":105633,"Delta":388874841},{"NoteNumber":55,"Velocity":56,"Duration":105633,"SoundDuration":105633,"Delta":388980475},{"NoteNumber":54,"Velocity":60,"Duration":427740,"SoundDuration":427740,"Delta":389086108},{"NoteNumber":57,"Velocity":60,"Duration":106210,"SoundDuration":106210,"Delta":389086108},{"NoteNumber":59,"Velocity":62,"Duration":105402,"SoundDuration":105402,"Delta":389192319},{"NoteNumber":61,"Velocity":64,"Duration":105425,"SoundDuration":105425,"Delta":389297722},{"NoteNumber":62,"Velocity":66,"Duration":110701,"SoundDuration":110701,"Delta":389403148},{"NoteNumber":57,"Velocity":66,"Duration":442628,"SoundDuration":442628,"Delta":389513849},{"NoteNumber":83,"Velocity":80,"Duration":105633,"SoundDuration":105633,"Delta":389738903},{"NoteNumber":81,"Velocity":69,"Duration":111940,"SoundDuration":111940,"Delta":389844537},{"NoteNumber":78,"Velocity":70,"Duration":105633,"SoundDuration":105633,"Delta":389956477},{"NoteNumber":74,"Velocity":64,"Duration":105633,"SoundDuration":105633,"Delta":390062111},{"NoteNumber":73,"Velocity":64,"Duration":105633,"SoundDuration":105633,"Delta":390167745},{"NoteNumber":50,"Velocity":53,"Duration":211267,"SoundDuration":211267,"Delta":390167745},{"NoteNumber":57,"Velocity":53,"Duration":105633,"SoundDuration":105633,"Delta":390167745},{"NoteNumber":71,"Velocity":64,"Duration":105633,"SoundDuration":105633,"Delta":390273378},{"NoteNumber":59,"Velocity":47,"Duration":105633,"SoundDuration":105633,"Delta":390273378},{"NoteNumber":70,"Velocity":73,"Duration":428425,"SoundDuration":428425,"Delta":390379012},{"NoteNumber":61,"Velocity":62,"Duration":105633,"SoundDuration":105633,"Delta":390379012},{"NoteNumber":52,"Velocity":53,"Duration":105633,"SoundDuration":105633,"Delta":390379012},{"NoteNumber":60,"Velocity":62,"Duration":105633,"SoundDuration":105633,"Delta":390484646},{"NoteNumber":51,"Velocity":47,"Duration":105633,"SoundDuration":105633,"Delta":390484646},{"NoteNumber":61,"Velocity":62,"Duration":105633,"SoundDuration":105633,"Delta":390590280},{"NoteNumber":52,"Velocity":47,"Duration":105633,"SoundDuration":105633,"Delta":390590280},{"NoteNumber":63,"Velocity":62,"Duration":111524,"SoundDuration":111524,"Delta":390695913},{"NoteNumber":54,"Velocity":47,"Duration":111524,"SoundDuration":111524,"Delta":390695913},{"NoteNumber":69,"Velocity":69,"Duration":636041,"SoundDuration":636041,"Delta":390807438},{"NoteNumber":64,"Velocity":58,"Duration":106006,"SoundDuration":106006,"Delta":390807438},{"NoteNumber":55,"Velocity":53,"Duration":106006,"SoundDuration":106006,"Delta":390807438},{"NoteNumber":63,"Velocity":60,"Duration":106007,"SoundDuration":106007,"Delta":390913445},{"NoteNumber":54,"Velocity":47,"Duration":106007,"SoundDuration":106007,"Delta":390913445},{"NoteNumber":64,"Velocity":60,"Duration":106006,"SoundDuration":106006,"Delta":391019452},{"NoteNumber":55,"Velocity":47,"Duration":106006,"SoundDuration":106006,"Delta":391019452},{"NoteNumber":66,"Velocity":60,"Duration":106007,"SoundDuration":106007,"Delta":391125459},{"NoteNumber":57,"Velocity":47,"Duration":106007,"SoundDuration":106007,"Delta":391125459},{"NoteNumber":67,"Velocity":68,"Duration":106006,"SoundDuration":106006,"Delta":391231466},{"NoteNumber":59,"Velocity":53,"Duration":106006,"SoundDuration":106006,"Delta":391231466},{"NoteNumber":66,"Velocity":61,"Duration":106006,"SoundDuration":106006,"Delta":391337473},{"NoteNumber":57,"Velocity":47,"Duration":106006,"SoundDuration":106006,"Delta":391337473},{"NoteNumber":71,"Velocity":69,"Duration":106007,"SoundDuration":106007,"Delta":391443480},{"NoteNumber":64,"Velocity":58,"Duration":106007,"SoundDuration":106007,"Delta":391443480},{"NoteNumber":55,"Velocity":47,"Duration":106007,"SoundDuration":106007,"Delta":391443480},{"NoteNumber":62,"Velocity":62,"Duration":110701,"SoundDuration":110701,"Delta":391549487},{"NoteNumber":56,"Velocity":47,"Duration":110701,"SoundDuration":110701,"Delta":391549487},{"NoteNumber":73,"Velocity":74,"Duration":105633,"SoundDuration":105633,"Delta":391660188},{"NoteNumber":45,"Velocity":47,"Duration":211267,"SoundDuration":211267,"Delta":391660188},{"NoteNumber":57,"Velocity":47,"Duration":105633,"SoundDuration":105633,"Delta":391660188},{"NoteNumber":72,"Velocity":63,"Duration":105633,"SoundDuration":105633,"Delta":391765821},{"NoteNumber":56,"Velocity":42,"Duration":105633,"SoundDuration":105633,"Delta":391765821},{"NoteNumber":73,"Velocity":63,"Duration":105633,"SoundDuration":105633,"Delta":391871455},{"NoteNumber":57,"Velocity":46,"Duration":105633,"SoundDuration":105633,"Delta":391871455},{"NoteNumber":74,"Velocity":63,"Duration":105633,"SoundDuration":105633,"Delta":391977089},{"NoteNumber":59,"Velocity":49,"Duration":105633,"SoundDuration":105633,"Delta":391977089},{"NoteNumber":76,"Velocity":68,"Duration":105633,"SoundDuration":105633,"Delta":392082723},{"NoteNumber":61,"Velocity":53,"Duration":211267,"SoundDuration":211267,"Delta":392082723},{"NoteNumber":75,"Velocity":67,"Duration":105633,"SoundDuration":105633,"Delta":392188356},{"NoteNumber":76,"Velocity":68,"Duration":107527,"SoundDuration":107527,"Delta":392293990},{"NoteNumber":49,"Velocity":47,"Duration":107527,"SoundDuration":107527,"Delta":392293990},{"NoteNumber":45,"Velocity":47,"Duration":430318,"SoundDuration":430318,"Delta":392293990},{"NoteNumber":78,"Velocity":70,"Duration":111524,"SoundDuration":111524,"Delta":392401517},{"NoteNumber":50,"Velocity":41,"Duration":111524,"SoundDuration":111524,"Delta":392401517},{"NoteNumber":79,"Velocity":71,"Duration":105633,"SoundDuration":105633,"Delta":392513041},{"NoteNumber":52,"Velocity":52,"Duration":633802,"SoundDuration":633802,"Delta":392513041},{"NoteNumber":78,"Velocity":68,"Duration":105633,"SoundDuration":105633,"Delta":392618675},{"NoteNumber":76,"Velocity":64,"Duration":105633,"SoundDuration":105633,"Delta":392724309},{"NoteNumber":47,"Velocity":40,"Duration":211267,"SoundDuration":211267,"Delta":392724309},{"NoteNumber":74,"Velocity":64,"Duration":105633,"SoundDuration":105633,"Delta":392829943},{"NoteNumber":73,"Velocity":68,"Duration":105633,"SoundDuration":105633,"Delta":392935576},{"NoteNumber":49,"Velocity":53,"Duration":211267,"SoundDuration":211267,"Delta":392935576},{"NoteNumber":70,"Velocity":60,"Duration":105633,"SoundDuration":105633,"Delta":393041210},{"NoteNumber":69,"Velocity":60,"Duration":107527,"SoundDuration":107527,"Delta":393146844},{"NoteNumber":54,"Velocity":47,"Duration":107527,"SoundDuration":107527,"Delta":393146844},{"NoteNumber":50,"Velocity":47,"Duration":643809,"SoundDuration":643809,"Delta":393146844},{"NoteNumber":71,"Velocity":60,"Duration":112359,"SoundDuration":112359,"Delta":393254371},{"NoteNumber":55,"Velocity":42,"Duration":112359,"SoundDuration":112359,"Delta":393254371},{"NoteNumber":72,"Velocity":68,"Duration":106006,"SoundDuration":106006,"Delta":393366730},{"NoteNumber":57,"Velocity":47,"Duration":106006,"SoundDuration":106006,"Delta":393366730},{"NoteNumber":71,"Velocity":62,"Duration":106007,"SoundDuration":106007,"Delta":393472737},{"NoteNumber":55,"Velocity":41,"Duration":106007,"SoundDuration":106007,"Delta":393472737},{"NoteNumber":69,"Velocity":62,"Duration":106006,"SoundDuration":106006,"Delta":393578744},{"NoteNumber":54,"Velocity":41,"Duration":106006,"SoundDuration":106006,"Delta":393578744},{"NoteNumber":67,"Velocity":62,"Duration":105901,"SoundDuration":105901,"Delta":393684751},{"NoteNumber":52,"Velocity":41,"Duration":105901,"SoundDuration":105901,"Delta":393684751},{"NoteNumber":66,"Velocity":68,"Duration":105516,"SoundDuration":105516,"Delta":393790653},{"NoteNumber":50,"Velocity":47,"Duration":105516,"SoundDuration":105516,"Delta":393790653},{"NoteNumber":67,"Velocity":64,"Duration":106264,"SoundDuration":106264,"Delta":393896170},{"NoteNumber":52,"Velocity":43,"Duration":106264,"SoundDuration":106264,"Delta":393896170},{"NoteNumber":69,"Velocity":64,"Duration":107098,"SoundDuration":107098,"Delta":394002434},{"NoteNumber":54,"Velocity":43,"Duration":107098,"SoundDuration":107098,"Delta":394002434},{"NoteNumber":71,"Velocity":64,"Duration":107946,"SoundDuration":107946,"Delta":394109533},{"NoteNumber":55,"Velocity":43,"Duration":107946,"SoundDuration":107946,"Delta":394109533},{"NoteNumber":72,"Velocity":77,"Duration":72840,"SoundDuration":72840,"Delta":394217480},{"NoteNumber":57,"Velocity":43,"Duration":109148,"SoundDuration":109148,"Delta":394217480},{"NoteNumber":74,"Velocity":69,"Duration":72510,"SoundDuration":72510,"Delta":394290320},{"NoteNumber":59,"Velocity":39,"Duration":108138,"SoundDuration":108138,"Delta":394326628},{"NoteNumber":72,"Velocity":74,"Duration":71936,"SoundDuration":71936,"Delta":394362830},{"NoteNumber":74,"Velocity":68,"Duration":71448,"SoundDuration":71448,"Delta":394434767},{"NoteNumber":60,"Velocity":43,"Duration":106981,"SoundDuration":106981,"Delta":394434767},{"NoteNumber":72,"Velocity":71,"Duration":70966,"SoundDuration":70966,"Delta":394506215},{"NoteNumber":62,"Velocity":39,"Duration":105924,"SoundDuration":105924,"Delta":394541749},{"NoteNumber":74,"Velocity":66,"Duration":70491,"SoundDuration":70491,"Delta":394577182},{"NoteNumber":72,"Velocity":70,"Duration":70022,"SoundDuration":70022,"Delta":394647673},{"NoteNumber":64,"Velocity":49,"Duration":104813,"SoundDuration":104813,"Delta":394647673},{"NoteNumber":74,"Velocity":62,"Duration":69316,"SoundDuration":69316,"Delta":394717695},{"NoteNumber":62,"Velocity":43,"Duration":103807,"SoundDuration":103807,"Delta":394752487},{"NoteNumber":72,"Velocity":69,"Duration":69282,"SoundDuration":69282,"Delta":394787011},{"NoteNumber":74,"Velocity":63,"Duration":69817,"SoundDuration":69817,"Delta":394856294},{"NoteNumber":64,"Velocity":57,"Duration":104957,"SoundDuration":104957,"Delta":394856294},{"NoteNumber":50,"Velocity":43,"Duration":211071,"SoundDuration":211071,"Delta":394856294},{"NoteNumber":72,"Velocity":68,"Duration":70379,"SoundDuration":70379,"Delta":394926111},{"NoteNumber":66,"Velocity":43,"Duration":106114,"SoundDuration":106114,"Delta":394961252},{"NoteNumber":74,"Velocity":67,"Duration":70875,"SoundDuration":70875,"Delta":394996491},{"NoteNumber":67,"Velocity":64,"Duration":438196,"SoundDuration":438196,"Delta":395067366},{"NoteNumber":71,"Velocity":64,"Duration":438196,"SoundDuration":438196,"Delta":395067366},{"NoteNumber":55,"Velocity":46,"Duration":106382,"SoundDuration":106382,"Delta":395067366},{"NoteNumber":59,"Velocity":40,"Duration":106382,"SoundDuration":106382,"Delta":395173749},{"NoteNumber":55,"Velocity":46,"Duration":106382,"SoundDuration":106382,"Delta":395280132},{"NoteNumber":52,"Velocity":43,"Duration":119047,"SoundDuration":119047,"Delta":395386515},{"NoteNumber":69,"Velocity":77,"Duration":72840,"SoundDuration":72840,"Delta":395505562},{"NoteNumber":54,"Velocity":43,"Duration":109148,"SoundDuration":109148,"Delta":395505562},{"NoteNumber":71,"Velocity":69,"Duration":72510,"SoundDuration":72510,"Delta":395578403},{"NoteNumber":52,"Velocity":39,"Duration":108138,"SoundDuration":108138,"Delta":395614711},{"NoteNumber":69,"Velocity":74,"Duration":71936,"SoundDuration":71936,"Delta":395650913},{"NoteNumber":71,"Velocity":68,"Duration":71448,"SoundDuration":71448,"Delta":395722850},{"NoteNumber":54,"Velocity":43,"Duration":106981,"SoundDuration":106981,"Delta":395722850},{"NoteNumber":69,"Velocity":71,"Duration":70966,"SoundDuration":70966,"Delta":395794298},{"NoteNumber":55,"Velocity":39,"Duration":105924,"SoundDuration":105924,"Delta":395829831},{"NoteNumber":71,"Velocity":66,"Duration":70491,"SoundDuration":70491,"Delta":395865264},{"NoteNumber":69,"Velocity":70,"Duration":70022,"SoundDuration":70022,"Delta":395935756},{"NoteNumber":57,"Velocity":49,"Duration":104813,"SoundDuration":104813,"Delta":395935756},{"NoteNumber":71,"Velocity":62,"Duration":69316,"SoundDuration":69316,"Delta":396005778},{"NoteNumber":59,"Velocity":43,"Duration":103807,"SoundDuration":103807,"Delta":396040569},{"NoteNumber":69,"Velocity":69,"Duration":69282,"SoundDuration":69282,"Delta":396075094},{"NoteNumber":71,"Velocity":63,"Duration":69814,"SoundDuration":69814,"Delta":396144377},{"NoteNumber":61,"Velocity":57,"Duration":104779,"SoundDuration":104779,"Delta":396144377},{"NoteNumber":47,"Velocity":43,"Duration":223826,"SoundDuration":223826,"Delta":396144377},{"NoteNumber":69,"Velocity":68,"Duration":74647,"SoundDuration":74647,"Delta":396214191},{"NoteNumber":63,"Velocity":43,"Duration":119047,"SoundDuration":119047,"Delta":396249156},{"NoteNumber":71,"Velocity":67,"Duration":79364,"SoundDuration":79364,"Delta":396288839},{"NoteNumber":68,"Velocity":46,"Duration":106382,"SoundDuration":106382,"Delta":396368204},{"NoteNumber":64,"Velocity":64,"Duration":425531,"SoundDuration":425531,"Delta":396368204},{"NoteNumber":52,"Velocity":52,"Duration":425531,"SoundDuration":425531,"Delta":396368204},{"NoteNumber":71,"Velocity":40,"Duration":106382,"SoundDuration":106382,"Delta":396474587},{"NoteNumber":68,"Velocity":46,"Duration":106382,"SoundDuration":106382,"Delta":396580970},{"NoteNumber":64,"Velocity":43,"Duration":106382,"SoundDuration":106382,"Delta":396687353},{"NoteNumber":67,"Velocity":73,"Duration":72840,"SoundDuration":72840,"Delta":396793736},{"NoteNumber":52,"Velocity":43,"Duration":109148,"SoundDuration":109148,"Delta":396793736},{"NoteNumber":69,"Velocity":66,"Duration":72510,"SoundDuration":72510,"Delta":396866576},{"NoteNumber":50,"Velocity":39,"Duration":108138,"SoundDuration":108138,"Delta":396902884},{"NoteNumber":67,"Velocity":70,"Duration":71936,"SoundDuration":71936,"Delta":396939086},{"NoteNumber":69,"Velocity":65,"Duration":71448,"SoundDuration":71448,"Delta":397011023},{"NoteNumber":52,"Velocity":43,"Duration":106981,"SoundDuration":106981,"Delta":397011023},{"NoteNumber":67,"Velocity":68,"Duration":70966,"SoundDuration":70966,"Delta":397082471},{"NoteNumber":54,"Velocity":39,"Duration":105924,"SoundDuration":105924,"Delta":397118005},{"NoteNumber":69,"Velocity":63,"Duration":70491,"SoundDuration":70491,"Delta":397153437},{"NoteNumber":67,"Velocity":67,"Duration":70022,"SoundDuration":70022,"Delta":397223929},{"NoteNumber":55,"Velocity":49,"Duration":104813,"SoundDuration":104813,"Delta":397223929},{"NoteNumber":69,"Velocity":59,"Duration":69316,"SoundDuration":69316,"Delta":397293951},{"NoteNumber":57,"Velocity":43,"Duration":103807,"SoundDuration":103807,"Delta":397328743},{"NoteNumber":67,"Velocity":66,"Duration":69282,"SoundDuration":69282,"Delta":397363267},{"NoteNumber":69,"Velocity":60,"Duration":69814,"SoundDuration":69814,"Delta":397432550},{"NoteNumber":59,"Velocity":57,"Duration":104779,"SoundDuration":104779,"Delta":397432550},{"NoteNumber":45,"Velocity":43,"Duration":223826,"SoundDuration":223826,"Delta":397432550},{"NoteNumber":67,"Velocity":65,"Duration":74647,"SoundDuration":74647,"Delta":397502364},{"NoteNumber":61,"Velocity":43,"Duration":119047,"SoundDuration":119047,"Delta":397537329},{"NoteNumber":69,"Velocity":64,"Duration":79364,"SoundDuration":79364,"Delta":397577012},{"NoteNumber":66,"Velocity":52,"Duration":106382,"SoundDuration":106382,"Delta":397656377},{"NoteNumber":62,"Velocity":64,"Duration":425531,"SoundDuration":425531,"Delta":397656377},{"NoteNumber":50,"Velocity":52,"Duration":425531,"SoundDuration":425531,"Delta":397656377},{"NoteNumber":69,"Velocity":46,"Duration":106382,"SoundDuration":106382,"Delta":397762760},{"NoteNumber":66,"Velocity":52,"Duration":106382,"SoundDuration":106382,"Delta":397869143},{"NoteNumber":62,"Velocity":49,"Duration":106382,"SoundDuration":106382,"Delta":397975526},{"NoteNumber":66,"Velocity":50,"Duration":109148,"SoundDuration":109148,"Delta":398081909},{"NoteNumber":57,"Velocity":66,"Duration":72840,"SoundDuration":72840,"Delta":398081909},{"NoteNumber":59,"Velocity":59,"Duration":72510,"SoundDuration":72510,"Delta":398154749},{"NoteNumber":64,"Velocity":46,"Duration":108138,"SoundDuration":108138,"Delta":398191057},{"NoteNumber":57,"Velocity":63,"Duration":71936,"SoundDuration":71936,"Delta":398227259},{"NoteNumber":66,"Velocity":48,"Duration":106981,"SoundDuration":106981,"Delta":398299196},{"NoteNumber":59,"Velocity":58,"Duration":71448,"SoundDuration":71448,"Delta":398299196},{"NoteNumber":57,"Velocity":60,"Duration":70960,"SoundDuration":70960,"Delta":398370644},{"NoteNumber":67,"Velocity":40,"Duration":106038,"SoundDuration":106038,"Delta":398406178},{"NoteNumber":59,"Velocity":57,"Duration":70612,"SoundDuration":70612,"Delta":398441604},{"NoteNumber":69,"Velocity":48,"Duration":105368,"SoundDuration":105368,"Delta":398512217},{"NoteNumber":57,"Velocity":59,"Duration":70339,"SoundDuration":70339,"Delta":398512217},{"NoteNumber":59,"Velocity":53,"Duration":69994,"SoundDuration":69994,"Delta":398582556},{"NoteNumber":71,"Velocity":50,"Duration":104633,"SoundDuration":104633,"Delta":398617585},{"NoteNumber":57,"Velocity":59,"Duration":69668,"SoundDuration":69668,"Delta":398652550},{"NoteNumber":83,"Velocity":73,"Duration":223826,"SoundDuration":223826,"Delta":398722219},{"NoteNumber":73,"Velocity":60,"Duration":104779,"SoundDuration":104779,"Delta":398722219},{"NoteNumber":59,"Velocity":54,"Duration":69814,"SoundDuration":69814,"Delta":398722219},{"NoteNumber":57,"Velocity":58,"Duration":74647,"SoundDuration":74647,"Delta":398792033},{"NoteNumber":75,"Velocity":55,"Duration":119047,"SoundDuration":119047,"Delta":398826998},{"NoteNumber":59,"Velocity":57,"Duration":79364,"SoundDuration":79364,"Delta":398866681},{"NoteNumber":76,"Velocity":83,"Duration":218182,"SoundDuration":218182,"Delta":398946046},{"NoteNumber":56,"Velocity":54,"Duration":109090,"SoundDuration":109090,"Delta":398946046},{"NoteNumber":59,"Velocity":42,"Duration":109091,"SoundDuration":109091,"Delta":399055137},{"NoteNumber":88,"Velocity":84,"Duration":227091,"SoundDuration":227091,"Delta":399164228},{"NoteNumber":56,"Velocity":50,"Duration":105633,"SoundDuration":105633,"Delta":399164228},{"NoteNumber":52,"Velocity":40,"Duration":121457,"SoundDuration":121457,"Delta":399269861},{"NoteNumber":64,"Velocity":50,"Duration":109148,"SoundDuration":109148,"Delta":399391319},{"NoteNumber":55,"Velocity":66,"Duration":72840,"SoundDuration":72840,"Delta":399391319},{"NoteNumber":57,"Velocity":59,"Duration":72510,"SoundDuration":72510,"Delta":399464159},{"NoteNumber":62,"Velocity":46,"Duration":108138,"SoundDuration":108138,"Delta":399500467},{"NoteNumber":55,"Velocity":63,"Duration":71936,"SoundDuration":71936,"Delta":399536669},{"NoteNumber":64,"Velocity":48,"Duration":106981,"SoundDuration":106981,"Delta":399608606},{"NoteNumber":57,"Velocity":58,"Duration":71448,"SoundDuration":71448,"Delta":399608606},{"NoteNumber":55,"Velocity":60,"Duration":70960,"SoundDuration":70960,"Delta":399680054},{"NoteNumber":66,"Velocity":40,"Duration":106038,"SoundDuration":106038,"Delta":399715588},{"NoteNumber":57,"Velocity":57,"Duration":70612,"SoundDuration":70612,"Delta":399751014},{"NoteNumber":67,"Velocity":48,"Duration":105368,"SoundDuration":105368,"Delta":399821627},{"NoteNumber":55,"Velocity":59,"Duration":70339,"SoundDuration":70339,"Delta":399821627},{"NoteNumber":57,"Velocity":53,"Duration":69994,"SoundDuration":69994,"Delta":399891966},{"NoteNumber":69,"Velocity":50,"Duration":104633,"SoundDuration":104633,"Delta":399926995},{"NoteNumber":55,"Velocity":59,"Duration":69668,"SoundDuration":69668,"Delta":399961960},{"NoteNumber":81,"Velocity":73,"Duration":223826,"SoundDuration":223826,"Delta":400031629},{"NoteNumber":71,"Velocity":61,"Duration":104779,"SoundDuration":104779,"Delta":400031629},{"NoteNumber":57,"Velocity":54,"Duration":69814,"SoundDuration":69814,"Delta":400031629},{"NoteNumber":55,"Velocity":58,"Duration":74647,"SoundDuration":74647,"Delta":400101443},{"NoteNumber":73,"Velocity":55,"Duration":119047,"SoundDuration":119047,"Delta":400136408},{"NoteNumber":57,"Velocity":57,"Duration":79364,"SoundDuration":79364,"Delta":400176091},{"NoteNumber":74,"Velocity":83,"Duration":218182,"SoundDuration":218182,"Delta":400255456},{"NoteNumber":54,"Velocity":54,"Duration":109090,"SoundDuration":109090,"Delta":400255456},{"NoteNumber":57,"Velocity":42,"Duration":109091,"SoundDuration":109091,"Delta":400364547},{"NoteNumber":86,"Velocity":84,"Duration":225155,"SoundDuration":225155,"Delta":400473638},{"NoteNumber":54,"Velocity":50,"Duration":105633,"SoundDuration":105633,"Delta":400473638},{"NoteNumber":50,"Velocity":40,"Duration":119522,"SoundDuration":119522,"Delta":400579271},{"NoteNumber":62,"Velocity":50,"Duration":109148,"SoundDuration":109148,"Delta":400698793},{"NoteNumber":53,"Velocity":66,"Duration":72840,"SoundDuration":72840,"Delta":400698793},{"NoteNumber":55,"Velocity":59,"Duration":72510,"SoundDuration":72510,"Delta":400771634},{"NoteNumber":60,"Velocity":46,"Duration":108138,"SoundDuration":108138,"Delta":400807942},{"NoteNumber":53,"Velocity":63,"Duration":71936,"SoundDuration":71936,"Delta":400844144},{"NoteNumber":62,"Velocity":48,"Duration":106981,"SoundDuration":106981,"Delta":400916080},{"NoteNumber":55,"Velocity":58,"Duration":71448,"SoundDuration":71448,"Delta":400916080},{"NoteNumber":53,"Velocity":60,"Duration":70960,"SoundDuration":70960,"Delta":400987529},{"NoteNumber":63,"Velocity":40,"Duration":106038,"SoundDuration":106038,"Delta":401023062},{"NoteNumber":55,"Velocity":57,"Duration":70612,"SoundDuration":70612,"Delta":401058489},{"NoteNumber":65,"Velocity":48,"Duration":105368,"SoundDuration":105368,"Delta":401129101},{"NoteNumber":53,"Velocity":59,"Duration":70339,"SoundDuration":70339,"Delta":401129101},{"NoteNumber":55,"Velocity":53,"Duration":69994,"SoundDuration":69994,"Delta":401199440},{"NoteNumber":67,"Velocity":50,"Duration":104633,"SoundDuration":104633,"Delta":401234470},{"NoteNumber":53,"Velocity":59,"Duration":69668,"SoundDuration":69668,"Delta":401269435},{"NoteNumber":79,"Velocity":73,"Duration":223826,"SoundDuration":223826,"Delta":401339103},{"NoteNumber":69,"Velocity":61,"Duration":104779,"SoundDuration":104779,"Delta":401339103},{"NoteNumber":55,"Velocity":54,"Duration":69814,"SoundDuration":69814,"Delta":401339103},{"NoteNumber":53,"Velocity":58,"Duration":74647,"SoundDuration":74647,"Delta":401408918},{"NoteNumber":71,"Velocity":55,"Duration":119047,"SoundDuration":119047,"Delta":401443883},{"NoteNumber":55,"Velocity":57,"Duration":79364,"SoundDuration":79364,"Delta":401483565},{"NoteNumber":72,"Velocity":83,"Duration":218182,"SoundDuration":218182,"Delta":401562930},{"NoteNumber":51,"Velocity":54,"Duration":109090,"SoundDuration":109090,"Delta":401562930},{"NoteNumber":55,"Velocity":49,"Duration":109091,"SoundDuration":109091,"Delta":401672021},{"NoteNumber":84,"Velocity":84,"Duration":333591,"SoundDuration":333591,"Delta":401781112},{"NoteNumber":51,"Velocity":59,"Duration":105633,"SoundDuration":105633,"Delta":401781112},{"NoteNumber":48,"Velocity":54,"Duration":121951,"SoundDuration":121951,"Delta":401886746},{"NoteNumber":56,"Velocity":73,"Duration":212014,"SoundDuration":212014,"Delta":402008697},{"NoteNumber":76,"Velocity":78,"Duration":106007,"SoundDuration":106007,"Delta":402114704},{"NoteNumber":77,"Velocity":84,"Duration":106006,"SoundDuration":106006,"Delta":402220711},{"NoteNumber":79,"Velocity":89,"Duration":106140,"SoundDuration":106140,"Delta":402326718},{"NoteNumber":80,"Velocity":94,"Duration":217241,"SoundDuration":217241,"Delta":402432859},{"NoteNumber":41,"Velocity":66,"Duration":72886,"SoundDuration":72886,"Delta":402432859},{"NoteNumber":43,"Velocity":59,"Duration":72464,"SoundDuration":72464,"Delta":402505746},{"NoteNumber":64,"Velocity":55,"Duration":108070,"SoundDuration":108070,"Delta":402542030},{"NoteNumber":41,"Velocity":63,"Duration":71891,"SoundDuration":71891,"Delta":402578210},{"NoteNumber":65,"Velocity":57,"Duration":106915,"SoundDuration":106915,"Delta":402650101},{"NoteNumber":43,"Velocity":58,"Duration":71403,"SoundDuration":71403,"Delta":402650101},{"NoteNumber":41,"Velocity":60,"Duration":70916,"SoundDuration":70916,"Delta":402721505},{"NoteNumber":67,"Velocity":58,"Duration":105995,"SoundDuration":105995,"Delta":402757016},{"NoteNumber":43,"Velocity":57,"Duration":70590,"SoundDuration":70590,"Delta":402792421},{"NoteNumber":68,"Velocity":59,"Duration":543121,"SoundDuration":543121,"Delta":402863011},{"NoteNumber":41,"Velocity":59,"Duration":70317,"SoundDuration":70317,"Delta":402863011},{"NoteNumber":43,"Velocity":53,"Duration":69972,"SoundDuration":69972,"Delta":402933329},{"NoteNumber":70,"Velocity":61,"Duration":104591,"SoundDuration":104591,"Delta":402968337},{"NoteNumber":41,"Velocity":59,"Duration":69626,"SoundDuration":69626,"Delta":403003302},{"NoteNumber":72,"Velocity":62,"Duration":105647,"SoundDuration":105647,"Delta":403072928},{"NoteNumber":43,"Velocity":54,"Duration":69856,"SoundDuration":69856,"Delta":403072928},{"NoteNumber":41,"Velocity":58,"Duration":75473,"SoundDuration":75473,"Delta":403142784},{"NoteNumber":74,"Velocity":65,"Duration":118466,"SoundDuration":118466,"Delta":403178575},{"NoteNumber":43,"Velocity":57,"Duration":78784,"SoundDuration":78784,"Delta":403218258},{"NoteNumber":75,"Velocity":70,"Duration":430948,"SoundDuration":430948,"Delta":403297042},{"NoteNumber":39,"Velocity":63,"Duration":430948,"SoundDuration":430948,"Delta":403297042},{"NoteNumber":67,"Velocity":58,"Duration":109091,"SoundDuration":109091,"Delta":403406133},{"NoteNumber":70,"Velocity":62,"Duration":127659,"SoundDuration":127659,"Delta":403515224},{"NoteNumber":68,"Velocity":58,"Duration":127659,"SoundDuration":127659,"Delta":403621607},{"NoteNumber":67,"Velocity":62,"Duration":127659,"SoundDuration":127659,"Delta":403727990},{"NoteNumber":65,"Velocity":55,"Duration":127659,"SoundDuration":127659,"Delta":403834373},{"NoteNumber":63,"Velocity":55,"Duration":127659,"SoundDuration":127659,"Delta":403940756},{"NoteNumber":39,"Velocity":53,"Duration":127659,"SoundDuration":127659,"Delta":403940756},{"NoteNumber":62,"Velocity":55,"Duration":128043,"SoundDuration":128043,"Delta":404047139},{"NoteNumber":41,"Velocity":54,"Duration":128043,"SoundDuration":128043,"Delta":404047139},{"NoteNumber":75,"Velocity":62,"Duration":129963,"SoundDuration":129963,"Delta":404153522},{"NoteNumber":63,"Velocity":62,"Duration":869461,"SoundDuration":869461,"Delta":404153522},{"NoteNumber":43,"Velocity":56,"Duration":129963,"SoundDuration":129963,"Delta":404153522},{"NoteNumber":74,"Velocity":58,"Duration":129963,"SoundDuration":129963,"Delta":404261825},{"NoteNumber":44,"Velocity":57,"Duration":129963,"SoundDuration":129963,"Delta":404261825},{"NoteNumber":72,"Velocity":58,"Duration":131649,"SoundDuration":131649,"Delta":404370128},{"NoteNumber":46,"Velocity":59,"Duration":131649,"SoundDuration":131649,"Delta":404370128},{"NoteNumber":70,"Velocity":58,"Duration":116731,"SoundDuration":116731,"Delta":404478431},{"NoteNumber":48,"Velocity":60,"Duration":116731,"SoundDuration":116731,"Delta":404478431},{"NoteNumber":75,"Velocity":62,"Duration":107527,"SoundDuration":107527,"Delta":404595163},{"NoteNumber":43,"Velocity":67,"Duration":215054,"SoundDuration":215054,"Delta":404595163},{"NoteNumber":70,"Velocity":55,"Duration":128803,"SoundDuration":128803,"Delta":404702690},{"NoteNumber":75,"Velocity":62,"Duration":127659,"SoundDuration":127659,"Delta":404810217},{"NoteNumber":74,"Velocity":55,"Duration":127659,"SoundDuration":127659,"Delta":404916600},{"NoteNumber":72,"Velocity":62,"Duration":127659,"SoundDuration":127659,"Delta":405022983},{"NoteNumber":70,"Velocity":61,"Duration":127659,"SoundDuration":127659,"Delta":405129366},{"NoteNumber":68,"Velocity":60,"Duration":128605,"SoundDuration":128605,"Delta":405235749},{"NoteNumber":43,"Velocity":53,"Duration":128605,"SoundDuration":128605,"Delta":405235749},{"NoteNumber":67,"Velocity":59,"Duration":111110,"SoundDuration":111110,"Delta":405342132},{"NoteNumber":44,"Velocity":54,"Duration":132463,"SoundDuration":132463,"Delta":405342132},{"NoteNumber":79,"Velocity":73,"Duration":541114,"SoundDuration":541114,"Delta":405453243},{"NoteNumber":75,"Velocity":73,"Duration":128113,"SoundDuration":128113,"Delta":405453243},{"NoteNumber":46,"Velocity":56,"Duration":128113,"SoundDuration":128113,"Delta":405453243},{"NoteNumber":74,"Velocity":60,"Duration":128113,"SoundDuration":128113,"Delta":405560004},{"NoteNumber":48,"Velocity":57,"Duration":128113,"SoundDuration":128113,"Delta":405560004},{"NoteNumber":72,"Velocity":66,"Duration":129575,"SoundDuration":129575,"Delta":405666766},{"NoteNumber":50,"Velocity":59,"Duration":129575,"SoundDuration":129575,"Delta":405666766},{"NoteNumber":70,"Velocity":60,"Duration":135420,"SoundDuration":135420,"Delta":405773527},{"NoteNumber":51,"Velocity":60,"Duration":114068,"SoundDuration":114068,"Delta":405773527},{"NoteNumber":74,"Velocity":73,"Duration":424049,"SoundDuration":424049,"Delta":405887596},{"NoteNumber":46,"Velocity":67,"Duration":213523,"SoundDuration":213523,"Delta":405887596},{"NoteNumber":77,"Velocity":66,"Duration":127814,"SoundDuration":127814,"Delta":405994357},{"NoteNumber":80,"Velocity":69,"Duration":126315,"SoundDuration":126315,"Delta":406101119},{"NoteNumber":79,"Velocity":62,"Duration":126315,"SoundDuration":126315,"Delta":406206382},{"NoteNumber":77,"Velocity":69,"Duration":126315,"SoundDuration":126315,"Delta":406311645},{"NoteNumber":75,"Velocity":68,"Duration":126315,"SoundDuration":126315,"Delta":406416909},{"NoteNumber":74,"Velocity":66,"Duration":126315,"SoundDuration":126315,"Delta":406522172},{"NoteNumber":46,"Velocity":53,"Duration":126315,"SoundDuration":126315,"Delta":406522172},{"NoteNumber":72,"Velocity":64,"Duration":105263,"SoundDuration":105263,"Delta":406627435},{"NoteNumber":48,"Velocity":54,"Duration":126691,"SoundDuration":126691,"Delta":406627435},{"NoteNumber":70,"Velocity":69,"Duration":963612,"SoundDuration":963612,"Delta":406732698},{"NoteNumber":65,"Velocity":69,"Duration":128571,"SoundDuration":128571,"Delta":406732698},{"NoteNumber":50,"Velocity":56,"Duration":128571,"SoundDuration":128571,"Delta":406732698},{"NoteNumber":67,"Velocity":55,"Duration":128571,"SoundDuration":128571,"Delta":406839841},{"NoteNumber":48,"Velocity":57,"Duration":128571,"SoundDuration":128571,"Delta":406839841},{"NoteNumber":65,"Velocity":62,"Duration":130308,"SoundDuration":130308,"Delta":406946984},{"NoteNumber":50,"Velocity":59,"Duration":130308,"SoundDuration":130308,"Delta":406946984},{"NoteNumber":63,"Velocity":58,"Duration":137106,"SoundDuration":137106,"Delta":407054127},{"NoteNumber":51,"Velocity":60,"Duration":137106,"SoundDuration":137106,"Delta":407054127},{"NoteNumber":62,"Velocity":68,"Duration":127659,"SoundDuration":127659,"Delta":407169957},{"NoteNumber":53,"Velocity":62,"Duration":127659,"SoundDuration":127659,"Delta":407169957},{"NoteNumber":60,"Velocity":59,"Duration":127288,"SoundDuration":127288,"Delta":407276340},{"NoteNumber":52,"Velocity":56,"Duration":127288,"SoundDuration":127288,"Delta":407276340},{"NoteNumber":62,"Velocity":59,"Duration":125435,"SoundDuration":125435,"Delta":407382723},{"NoteNumber":53,"Velocity":56,"Duration":125435,"SoundDuration":125435,"Delta":407382723},{"NoteNumber":63,"Velocity":59,"Duration":125435,"SoundDuration":125435,"Delta":407487252},{"NoteNumber":55,"Velocity":56,"Duration":125435,"SoundDuration":125435,"Delta":407487252},{"NoteNumber":65,"Velocity":62,"Duration":523751,"SoundDuration":523751,"Delta":407591782},{"NoteNumber":56,"Velocity":63,"Duration":125435,"SoundDuration":125435,"Delta":407591782},{"NoteNumber":72,"Velocity":59,"Duration":125435,"SoundDuration":125435,"Delta":407696311},{"NoteNumber":55,"Velocity":54,"Duration":125435,"SoundDuration":125435,"Delta":407696311},{"NoteNumber":74,"Velocity":61,"Duration":125435,"SoundDuration":125435,"Delta":407800841},{"NoteNumber":53,"Velocity":54,"Duration":125435,"SoundDuration":125435,"Delta":407800841},{"NoteNumber":75,"Velocity":64,"Duration":125656,"SoundDuration":125656,"Delta":407905370},{"NoteNumber":51,"Velocity":54,"Duration":125656,"SoundDuration":125656,"Delta":407905370},{"NoteNumber":77,"Velocity":70,"Duration":537850,"SoundDuration":537850,"Delta":408009900},{"NoteNumber":50,"Velocity":61,"Duration":126760,"SoundDuration":126760,"Delta":408009900},{"NoteNumber":67,"Velocity":60,"Duration":126760,"SoundDuration":126760,"Delta":408115533},{"NoteNumber":51,"Velocity":54,"Duration":126760,"SoundDuration":126760,"Delta":408115533},{"NoteNumber":68,"Velocity":63,"Duration":128622,"SoundDuration":128622,"Delta":408221167},{"NoteNumber":50,"Velocity":54,"Duration":128622,"SoundDuration":128622,"Delta":408221167},{"NoteNumber":69,"Velocity":65,"Duration":136143,"SoundDuration":136143,"Delta":408326801},{"NoteNumber":48,"Velocity":54,"Duration":136143,"SoundDuration":136143,"Delta":408326801},{"NoteNumber":70,"Velocity":68,"Duration":530034,"SoundDuration":530034,"Delta":408441743},{"NoteNumber":46,"Velocity":56,"Duration":127208,"SoundDuration":127208,"Delta":408441743},{"NoteNumber":79,"Velocity":62,"Duration":127208,"SoundDuration":127208,"Delta":408547750},{"NoteNumber":48,"Velocity":51,"Duration":127208,"SoundDuration":127208,"Delta":408547750},{"NoteNumber":80,"Velocity":67,"Duration":127208,"SoundDuration":127208,"Delta":408653757},{"NoteNumber":46,"Velocity":51,"Duration":127208,"SoundDuration":127208,"Delta":408653757},{"NoteNumber":81,"Velocity":70,"Duration":127208,"SoundDuration":127208,"Delta":408759764},{"NoteNumber":44,"Velocity":51,"Duration":127208,"SoundDuration":127208,"Delta":408759764},{"NoteNumber":82,"Velocity":72,"Duration":438988,"SoundDuration":438988,"Delta":408865771},{"NoteNumber":43,"Velocity":56,"Duration":127208,"SoundDuration":127208,"Delta":408865771},{"NoteNumber":72,"Velocity":62,"Duration":127208,"SoundDuration":127208,"Delta":408971778},{"NoteNumber":44,"Velocity":50,"Duration":127208,"SoundDuration":127208,"Delta":408971778},{"NoteNumber":74,"Velocity":65,"Duration":130200,"SoundDuration":130200,"Delta":409077785},{"NoteNumber":46,"Velocity":50,"Duration":130200,"SoundDuration":130200,"Delta":409077785},{"NoteNumber":75,"Velocity":69,"Duration":143272,"SoundDuration":143272,"Delta":409183792},{"NoteNumber":48,"Velocity":50,"Duration":143272,"SoundDuration":143272,"Delta":409183792},{"NoteNumber":77,"Velocity":61,"Duration":133829,"SoundDuration":133829,"Delta":409304760},{"NoteNumber":80,"Velocity":72,"Duration":133829,"SoundDuration":133829,"Delta":409304760},{"NoteNumber":50,"Velocity":59,"Duration":133829,"SoundDuration":133829,"Delta":409304760},{"NoteNumber":75,"Velocity":57,"Duration":134425,"SoundDuration":134425,"Delta":409416284},{"NoteNumber":79,"Velocity":68,"Duration":134425,"SoundDuration":134425,"Delta":409416284},{"NoteNumber":51,"Velocity":52,"Duration":134425,"SoundDuration":134425,"Delta":409416284},{"NoteNumber":74,"Velocity":54,"Duration":114503,"SoundDuration":114503,"Delta":409527809},{"NoteNumber":77,"Velocity":75,"Duration":139608,"SoundDuration":139608,"Delta":409527809},{"NoteNumber":53,"Velocity":57,"Duration":139608,"SoundDuration":139608,"Delta":409527809},{"NoteNumber":75,"Velocity":70,"Duration":125522,"SoundDuration":125522,"Delta":409642312},{"NoteNumber":55,"Velocity":62,"Duration":125522,"SoundDuration":125522,"Delta":409642312},{"NoteNumber":84,"Velocity":87,"Duration":230769,"SoundDuration":230769,"Delta":409767835},{"NoteNumber":44,"Velocity":60,"Duration":138461,"SoundDuration":138461,"Delta":409767835},{"NoteNumber":46,"Velocity":61,"Duration":138461,"SoundDuration":138461,"Delta":409883220},{"NoteNumber":48,"Velocity":62,"Duration":134322,"SoundDuration":134322,"Delta":409998604},{"NoteNumber":49,"Velocity":63,"Duration":131723,"SoundDuration":131723,"Delta":410110844},{"NoteNumber":68,"Velocity":75,"Duration":72727,"SoundDuration":72727,"Delta":410220750},{"NoteNumber":51,"Velocity":64,"Duration":109091,"SoundDuration":109091,"Delta":410220750},{"NoteNumber":70,"Velocity":67,"Duration":72618,"SoundDuration":72618,"Delta":410293477},{"NoteNumber":53,"Velocity":65,"Duration":108584,"SoundDuration":108584,"Delta":410329841},{"NoteNumber":68,"Velocity":72,"Duration":72329,"SoundDuration":72329,"Delta":410366096},{"NoteNumber":70,"Velocity":62,"Duration":72039,"SoundDuration":72039,"Delta":410438425},{"NoteNumber":55,"Velocity":66,"Duration":107882,"SoundDuration":107882,"Delta":410438425},{"NoteNumber":68,"Velocity":67,"Duration":71684,"SoundDuration":71684,"Delta":410510465},{"NoteNumber":56,"Velocity":67,"Duration":107736,"SoundDuration":107736,"Delta":410546307},{"NoteNumber":70,"Velocity":61,"Duration":71894,"SoundDuration":71894,"Delta":410582150},{"NoteNumber":68,"Velocity":67,"Duration":72179,"SoundDuration":72179,"Delta":410654044},{"NoteNumber":58,"Velocity":69,"Duration":108336,"SoundDuration":108336,"Delta":410654044},{"NoteNumber":70,"Velocity":62,"Duration":72388,"SoundDuration":72388,"Delta":410726223},{"NoteNumber":59,"Velocity":70,"Duration":108909,"SoundDuration":108909,"Delta":410762380},{"NoteNumber":68,"Velocity":67,"Duration":72677,"SoundDuration":72677,"Delta":410798612},{"NoteNumber":70,"Velocity":61,"Duration":72889,"SoundDuration":72889,"Delta":410871290},{"NoteNumber":60,"Velocity":71,"Duration":219551,"SoundDuration":219551,"Delta":410871290},{"NoteNumber":68,"Velocity":67,"Duration":73183,"SoundDuration":73183,"Delta":410944180},{"NoteNumber":70,"Velocity":62,"Duration":73478,"SoundDuration":73478,"Delta":411017363},{"NoteNumber":77,"Velocity":70,"Duration":138996,"SoundDuration":138996,"Delta":411090842},{"NoteNumber":80,"Velocity":82,"Duration":229295,"SoundDuration":229295,"Delta":411090842},{"NoteNumber":79,"Velocity":72,"Duration":137810,"SoundDuration":137810,"Delta":411206672},{"NoteNumber":80,"Velocity":73,"Duration":134461,"SoundDuration":134461,"Delta":411322010},{"NoteNumber":82,"Velocity":75,"Duration":133629,"SoundDuration":133629,"Delta":411434143},{"NoteNumber":84,"Velocity":76,"Duration":110667,"SoundDuration":110667,"Delta":411545550},{"NoteNumber":65,"Velocity":75,"Duration":73903,"SoundDuration":73903,"Delta":411545550},{"NoteNumber":67,"Velocity":67,"Duration":73499,"SoundDuration":73499,"Delta":411619453},{"NoteNumber":86,"Velocity":78,"Duration":109937,"SoundDuration":109937,"Delta":411656218},{"NoteNumber":65,"Velocity":72,"Duration":73203,"SoundDuration":73203,"Delta":411692952},{"NoteNumber":87,"Velocity":80,"Duration":109273,"SoundDuration":109273,"Delta":411766155},{"NoteNumber":67,"Velocity":62,"Duration":72909,"SoundDuration":72909,"Delta":411766155},{"NoteNumber":65,"Velocity":67,"Duration":72618,"SoundDuration":72618,"Delta":411839065},{"NoteNumber":88,"Velocity":81,"Duration":108506,"SoundDuration":108506,"Delta":411875429},{"NoteNumber":67,"Velocity":61,"Duration":72251,"SoundDuration":72251,"Delta":411911684},{"NoteNumber":89,"Velocity":83,"Duration":108571,"SoundDuration":108571,"Delta":411983935},{"NoteNumber":65,"Velocity":67,"Duration":72283,"SoundDuration":72283,"Delta":411983935},{"NoteNumber":67,"Velocity":62,"Duration":72651,"SoundDuration":72651,"Delta":412056219},{"NoteNumber":91,"Velocity":84,"Duration":109363,"SoundDuration":109363,"Delta":412092507},{"NoteNumber":65,"Velocity":67,"Duration":72999,"SoundDuration":72999,"Delta":412128870},{"NoteNumber":92,"Velocity":86,"Duration":221393,"SoundDuration":221393,"Delta":412201870},{"NoteNumber":67,"Velocity":61,"Duration":73424,"SoundDuration":73424,"Delta":412201870},{"NoteNumber":65,"Velocity":67,"Duration":73753,"SoundDuration":73753,"Delta":412275295},{"NoteNumber":67,"Velocity":62,"Duration":74215,"SoundDuration":74215,"Delta":412349049},{"NoteNumber":94,"Velocity":100,"Duration":237153,"SoundDuration":237153,"Delta":412423264},{"NoteNumber":55,"Velocity":60,"Duration":142292,"SoundDuration":142292,"Delta":412423264},{"NoteNumber":56,"Velocity":61,"Duration":142292,"SoundDuration":142292,"Delta":412541841},{"NoteNumber":58,"Velocity":62,"Duration":135146,"SoundDuration":135146,"Delta":412660418},{"NoteNumber":60,"Velocity":63,"Duration":131723,"SoundDuration":131723,"Delta":412773482},{"NoteNumber":79,"Velocity":75,"Duration":72727,"SoundDuration":72727,"Delta":412883388},{"NoteNumber":62,"Velocity":64,"Duration":109091,"SoundDuration":109091,"Delta":412883388},{"NoteNumber":80,"Velocity":67,"Duration":72618,"SoundDuration":72618,"Delta":412956115},{"NoteNumber":63,"Velocity":65,"Duration":108584,"SoundDuration":108584,"Delta":412992479},{"NoteNumber":79,"Velocity":72,"Duration":72329,"SoundDuration":72329,"Delta":413028733},{"NoteNumber":80,"Velocity":62,"Duration":72039,"SoundDuration":72039,"Delta":413101063},{"NoteNumber":65,"Velocity":66,"Duration":107882,"SoundDuration":107882,"Delta":413101063},{"NoteNumber":79,"Velocity":67,"Duration":71684,"SoundDuration":71684,"Delta":413173103},{"NoteNumber":67,"Velocity":67,"Duration":107736,"SoundDuration":107736,"Delta":413208945},{"NoteNumber":80,"Velocity":61,"Duration":71894,"SoundDuration":71894,"Delta":413244788},{"NoteNumber":79,"Velocity":67,"Duration":72179,"SoundDuration":72179,"Delta":413316682},{"NoteNumber":68,"Velocity":69,"Duration":108336,"SoundDuration":108336,"Delta":413316682},{"NoteNumber":80,"Velocity":62,"Duration":72388,"SoundDuration":72388,"Delta":413388861},{"NoteNumber":69,"Velocity":70,"Duration":108909,"SoundDuration":108909,"Delta":413425018},{"NoteNumber":79,"Velocity":67,"Duration":72677,"SoundDuration":72677,"Delta":413461250},{"NoteNumber":80,"Velocity":61,"Duration":72889,"SoundDuration":72889,"Delta":413533928},{"NoteNumber":70,"Velocity":71,"Duration":219551,"SoundDuration":219551,"Delta":413533928},{"NoteNumber":79,"Velocity":67,"Duration":73183,"SoundDuration":73183,"Delta":413606818},{"NoteNumber":80,"Velocity":62,"Duration":73478,"SoundDuration":73478,"Delta":413680001},{"NoteNumber":75,"Velocity":70,"Duration":142292,"SoundDuration":142292,"Delta":413753480},{"NoteNumber":55,"Velocity":93,"Duration":236273,"SoundDuration":236273,"Delta":413753480},{"NoteNumber":77,"Velocity":72,"Duration":140168,"SoundDuration":140168,"Delta":413872057},{"NoteNumber":79,"Velocity":73,"Duration":134461,"SoundDuration":134461,"Delta":413989753},{"NoteNumber":80,"Velocity":75,"Duration":133629,"SoundDuration":133629,"Delta":414101885},{"NoteNumber":82,"Velocity":76,"Duration":110667,"SoundDuration":110667,"Delta":414213293},{"NoteNumber":39,"Velocity":75,"Duration":73903,"SoundDuration":73903,"Delta":414213293},{"NoteNumber":41,"Velocity":67,"Duration":73499,"SoundDuration":73499,"Delta":414287196},{"NoteNumber":84,"Velocity":78,"Duration":109937,"SoundDuration":109937,"Delta":414323961},{"NoteNumber":39,"Velocity":72,"Duration":73203,"SoundDuration":73203,"Delta":414360695},{"NoteNumber":85,"Velocity":80,"Duration":109273,"SoundDuration":109273,"Delta":414433898},{"NoteNumber":41,"Velocity":62,"Duration":72909,"SoundDuration":72909,"Delta":414433898},{"NoteNumber":39,"Velocity":67,"Duration":72618,"SoundDuration":72618,"Delta":414506808},{"NoteNumber":86,"Velocity":81,"Duration":108506,"SoundDuration":108506,"Delta":414543171},{"NoteNumber":41,"Velocity":61,"Duration":72251,"SoundDuration":72251,"Delta":414579426},{"NoteNumber":87,"Velocity":83,"Duration":108571,"SoundDuration":108571,"Delta":414651678},{"NoteNumber":39,"Velocity":67,"Duration":72283,"SoundDuration":72283,"Delta":414651678},{"NoteNumber":41,"Velocity":62,"Duration":72651,"SoundDuration":72651,"Delta":414723962},{"NoteNumber":89,"Velocity":84,"Duration":109363,"SoundDuration":109363,"Delta":414760250},{"NoteNumber":39,"Velocity":67,"Duration":72999,"SoundDuration":72999,"Delta":414796613},{"NoteNumber":90,"Velocity":86,"Duration":110247,"SoundDuration":110247,"Delta":414869613},{"NoteNumber":41,"Velocity":61,"Duration":73424,"SoundDuration":73424,"Delta":414869613},{"NoteNumber":39,"Velocity":67,"Duration":73753,"SoundDuration":73753,"Delta":414943038},{"NoteNumber":91,"Velocity":88,"Duration":111146,"SoundDuration":111146,"Delta":414979860},{"NoteNumber":41,"Velocity":62,"Duration":74215,"SoundDuration":74215,"Delta":415016791},{"NoteNumber":92,"Velocity":90,"Duration":115830,"SoundDuration":115830,"Delta":415091006},{"NoteNumber":82,"Velocity":70,"Duration":138996,"SoundDuration":138996,"Delta":415091006},{"NoteNumber":34,"Velocity":97,"Duration":231168,"SoundDuration":231168,"Delta":415091006},{"NoteNumber":80,"Velocity":76,"Duration":137810,"SoundDuration":137810,"Delta":415206836},{"NoteNumber":79,"Velocity":73,"Duration":134461,"SoundDuration":134461,"Delta":415322175},{"NoteNumber":77,"Velocity":73,"Duration":109555,"SoundDuration":109555,"Delta":415434307},{"NoteNumber":77,"Velocity":72,"Duration":877713,"SoundDuration":877713,"Delta":415545715},{"NoteNumber":75,"Velocity":72,"Duration":110667,"SoundDuration":110667,"Delta":415545715},{"NoteNumber":50,"Velocity":75,"Duration":73903,"SoundDuration":73903,"Delta":415545715},{"NoteNumber":51,"Velocity":67,"Duration":73499,"SoundDuration":73499,"Delta":415619618},{"NoteNumber":74,"Velocity":72,"Duration":109937,"SoundDuration":109937,"Delta":415656382},{"NoteNumber":50,"Velocity":72,"Duration":73203,"SoundDuration":73203,"Delta":415693117},{"NoteNumber":72,"Velocity":71,"Duration":109273,"SoundDuration":109273,"Delta":415766320},{"NoteNumber":51,"Velocity":62,"Duration":72909,"SoundDuration":72909,"Delta":415766320},{"NoteNumber":50,"Velocity":67,"Duration":72618,"SoundDuration":72618,"Delta":415839230},{"NoteNumber":70,"Velocity":70,"Duration":108506,"SoundDuration":108506,"Delta":415875593},{"NoteNumber":51,"Velocity":61,"Duration":72251,"SoundDuration":72251,"Delta":415911848},{"NoteNumber":69,"Velocity":70,"Duration":108571,"SoundDuration":108571,"Delta":415984100},{"NoteNumber":50,"Velocity":67,"Duration":72283,"SoundDuration":72283,"Delta":415984100},{"NoteNumber":51,"Velocity":62,"Duration":72651,"SoundDuration":72651,"Delta":416056384},{"NoteNumber":70,"Velocity":65,"Duration":109363,"SoundDuration":109363,"Delta":416092671},{"NoteNumber":50,"Velocity":67,"Duration":72999,"SoundDuration":72999,"Delta":416129035},{"NoteNumber":65,"Velocity":68,"Duration":110247,"SoundDuration":110247,"Delta":416202035},{"NoteNumber":51,"Velocity":61,"Duration":73424,"SoundDuration":73424,"Delta":416202035},{"NoteNumber":50,"Velocity":67,"Duration":73753,"SoundDuration":73753,"Delta":416275460},{"NoteNumber":68,"Velocity":63,"Duration":111146,"SoundDuration":111146,"Delta":416312282},{"NoteNumber":51,"Velocity":62,"Duration":74215,"SoundDuration":74215,"Delta":416349213},{"NoteNumber":67,"Velocity":90,"Duration":115830,"SoundDuration":115830,"Delta":416423428},{"NoteNumber":39,"Velocity":94,"Duration":231168,"SoundDuration":231168,"Delta":416423428},{"NoteNumber":82,"Velocity":73,"Duration":137810,"SoundDuration":137810,"Delta":416539258},{"NoteNumber":84,"Velocity":74,"Duration":134461,"SoundDuration":134461,"Delta":416654597},{"NoteNumber":86,"Velocity":75,"Duration":133629,"SoundDuration":133629,"Delta":416766729},{"NoteNumber":82,"Velocity":77,"Duration":877713,"SoundDuration":877713,"Delta":416878136},{"NoteNumber":87,"Velocity":77,"Duration":110667,"SoundDuration":110667,"Delta":416878136},{"NoteNumber":55,"Velocity":75,"Duration":73903,"SoundDuration":73903,"Delta":416878136},{"NoteNumber":56,"Velocity":67,"Duration":73499,"SoundDuration":73499,"Delta":416952040},{"NoteNumber":86,"Velocity":78,"Duration":109937,"SoundDuration":109937,"Delta":416988804},{"NoteNumber":55,"Velocity":72,"Duration":73203,"SoundDuration":73203,"Delta":417025539},{"NoteNumber":87,"Velocity":79,"Duration":109273,"SoundDuration":109273,"Delta":417098742},{"NoteNumber":56,"Velocity":62,"Duration":72909,"SoundDuration":72909,"Delta":417098742},{"NoteNumber":55,"Velocity":67,"Duration":72618,"SoundDuration":72618,"Delta":417171652},{"NoteNumber":89,"Velocity":81,"Duration":108506,"SoundDuration":108506,"Delta":417208015},{"NoteNumber":56,"Velocity":61,"Duration":72251,"SoundDuration":72251,"Delta":417244270},{"NoteNumber":91,"Velocity":82,"Duration":108571,"SoundDuration":108571,"Delta":417316522},{"NoteNumber":55,"Velocity":67,"Duration":72283,"SoundDuration":72283,"Delta":417316522},{"NoteNumber":56,"Velocity":62,"Duration":72651,"SoundDuration":72651,"Delta":417388805},{"NoteNumber":89,"Velocity":83,"Duration":109363,"SoundDuration":109363,"Delta":417425093},{"NoteNumber":55,"Velocity":67,"Duration":72999,"SoundDuration":72999,"Delta":417461457},{"NoteNumber":91,"Velocity":85,"Duration":110247,"SoundDuration":110247,"Delta":417534457},{"NoteNumber":56,"Velocity":61,"Duration":73424,"SoundDuration":73424,"Delta":417534457},{"NoteNumber":55,"Velocity":67,"Duration":73753,"SoundDuration":73753,"Delta":417607882},{"NoteNumber":92,"Velocity":86,"Duration":111146,"SoundDuration":111146,"Delta":417644704},{"NoteNumber":56,"Velocity":62,"Duration":74215,"SoundDuration":74215,"Delta":417681635},{"NoteNumber":94,"Velocity":90,"Duration":115830,"SoundDuration":115830,"Delta":417755850},{"NoteNumber":36,"Velocity":98,"Duration":231168,"SoundDuration":231168,"Delta":417755850},{"NoteNumber":80,"Velocity":73,"Duration":134461,"SoundDuration":134461,"Delta":417987019},{"NoteNumber":79,"Velocity":73,"Duration":109555,"SoundDuration":109555,"Delta":418099151},{"NoteNumber":79,"Velocity":72,"Duration":877713,"SoundDuration":877713,"Delta":418210558},{"NoteNumber":77,"Velocity":72,"Duration":110667,"SoundDuration":110667,"Delta":418210558},{"NoteNumber":52,"Velocity":75,"Duration":73903,"SoundDuration":73903,"Delta":418210558},{"NoteNumber":53,"Velocity":67,"Duration":73499,"SoundDuration":73499,"Delta":418284462},{"NoteNumber":76,"Velocity":72,"Duration":109937,"SoundDuration":109937,"Delta":418321226},{"NoteNumber":52,"Velocity":72,"Duration":73203,"SoundDuration":73203,"Delta":418357961},{"NoteNumber":73,"Velocity":71,"Duration":109273,"SoundDuration":109273,"Delta":418431164},{"NoteNumber":53,"Velocity":62,"Duration":72909,"SoundDuration":72909,"Delta":418431164},{"NoteNumber":52,"Velocity":67,"Duration":72618,"SoundDuration":72618,"Delta":418504074},{"NoteNumber":72,"Velocity":70,"Duration":108506,"SoundDuration":108506,"Delta":418540437},{"NoteNumber":53,"Velocity":61,"Duration":72251,"SoundDuration":72251,"Delta":418576692},{"NoteNumber":71,"Velocity":70,"Duration":108571,"SoundDuration":108571,"Delta":418648943},{"NoteNumber":52,"Velocity":67,"Duration":72283,"SoundDuration":72283,"Delta":418648943},{"NoteNumber":53,"Velocity":62,"Duration":72651,"SoundDuration":72651,"Delta":418721227},{"NoteNumber":72,"Velocity":65,"Duration":109363,"SoundDuration":109363,"Delta":418757515},{"NoteNumber":52,"Velocity":67,"Duration":72999,"SoundDuration":72999,"Delta":418793879},{"NoteNumber":67,"Velocity":68,"Duration":110247,"SoundDuration":110247,"Delta":418866879},{"NoteNumber":53,"Velocity":61,"Duration":73424,"SoundDuration":73424,"Delta":418866879},{"NoteNumber":52,"Velocity":67,"Duration":73753,"SoundDuration":73753,"Delta":418940304},{"NoteNumber":70,"Velocity":63,"Duration":111146,"SoundDuration":111146,"Delta":418977126},{"NoteNumber":53,"Velocity":62,"Duration":74215,"SoundDuration":74215,"Delta":419014057},{"NoteNumber":68,"Velocity":90,"Duration":115830,"SoundDuration":115830,"Delta":419088272},{"NoteNumber":41,"Velocity":95,"Duration":231168,"SoundDuration":231168,"Delta":419088272},{"NoteNumber":84,"Velocity":74,"Duration":134461,"SoundDuration":134461,"Delta":419319441},{"NoteNumber":88,"Velocity":75,"Duration":133629,"SoundDuration":133629,"Delta":419431573},{"NoteNumber":84,"Velocity":77,"Duration":656320,"SoundDuration":656320,"Delta":419542980},{"NoteNumber":89,"Velocity":77,"Duration":110667,"SoundDuration":110667,"Delta":419542980},{"NoteNumber":56,"Velocity":75,"Duration":73903,"SoundDuration":73903,"Delta":419542980},{"NoteNumber":58,"Velocity":67,"Duration":73499,"SoundDuration":73499,"Delta":419616884},{"NoteNumber":91,"Velocity":78,"Duration":109937,"SoundDuration":109937,"Delta":419653648},{"NoteNumber":56,"Velocity":72,"Duration":73203,"SoundDuration":73203,"Delta":419690383},{"NoteNumber":92,"Velocity":79,"Duration":109273,"SoundDuration":109273,"Delta":419763586},{"NoteNumber":58,"Velocity":62,"Duration":72909,"SoundDuration":72909,"Delta":419763586},{"NoteNumber":56,"Velocity":67,"Duration":72618,"SoundDuration":72618,"Delta":419836495},{"NoteNumber":91,"Velocity":81,"Duration":108506,"SoundDuration":108506,"Delta":419872859},{"NoteNumber":58,"Velocity":61,"Duration":72251,"SoundDuration":72251,"Delta":419909114},{"NoteNumber":89,"Velocity":79,"Duration":108571,"SoundDuration":108571,"Delta":419981365},{"NoteNumber":56,"Velocity":67,"Duration":72283,"SoundDuration":72283,"Delta":419981365},{"NoteNumber":58,"Velocity":62,"Duration":72651,"SoundDuration":72651,"Delta":420053649},{"NoteNumber":87,"Velocity":77,"Duration":109363,"SoundDuration":109363,"Delta":420089937},{"NoteNumber":56,"Velocity":67,"Duration":72999,"SoundDuration":72999,"Delta":420126301},{"NoteNumber":78,"Velocity":75,"Duration":221393,"SoundDuration":221393,"Delta":420199301},{"NoteNumber":86,"Velocity":75,"Duration":110247,"SoundDuration":110247,"Delta":420199301},{"NoteNumber":58,"Velocity":61,"Duration":73424,"SoundDuration":73424,"Delta":420199301},{"NoteNumber":56,"Velocity":67,"Duration":73753,"SoundDuration":73753,"Delta":420272726},{"NoteNumber":84,"Velocity":73,"Duration":111146,"SoundDuration":111146,"Delta":420309548},{"NoteNumber":58,"Velocity":62,"Duration":74215,"SoundDuration":74215,"Delta":420346479},{"NoteNumber":83,"Velocity":79,"Duration":223048,"SoundDuration":223048,"Delta":420420694},{"NoteNumber":79,"Velocity":73,"Duration":223048,"SoundDuration":223048,"Delta":420420694},{"NoteNumber":55,"Velocity":73,"Duration":223048,"SoundDuration":223048,"Delta":420420694},{"NoteNumber":74,"Velocity":73,"Duration":116279,"SoundDuration":116279,"Delta":420643743},{"NoteNumber":59,"Velocity":65,"Duration":116279,"SoundDuration":116279,"Delta":420643743},{"NoteNumber":59,"Velocity":73,"Duration":55555,"SoundDuration":55555,"Delta":420876301},{"NoteNumber":43,"Velocity":62,"Duration":55555,"SoundDuration":55555,"Delta":420876301},{"NoteNumber":60,"Velocity":68,"Duration":55555,"SoundDuration":55555,"Delta":420931856},{"NoteNumber":44,"Velocity":54,"Duration":55555,"SoundDuration":55555,"Delta":420931856},{"NoteNumber":59,"Velocity":73,"Duration":55555,"SoundDuration":55555,"Delta":420987412},{"NoteNumber":43,"Velocity":61,"Duration":55555,"SoundDuration":55555,"Delta":420987412},{"NoteNumber":60,"Velocity":66,"Duration":55555,"SoundDuration":55555,"Delta":421042967},{"NoteNumber":44,"Velocity":54,"Duration":55555,"SoundDuration":55555,"Delta":421042967},{"NoteNumber":55,"Velocity":73,"Duration":111110,"SoundDuration":111110,"Delta":421098523},{"NoteNumber":71,"Velocity":73,"Duration":55555,"SoundDuration":55555,"Delta":421320745},{"NoteNumber":72,"Velocity":68,"Duration":55555,"SoundDuration":55555,"Delta":421376300},{"NoteNumber":71,"Velocity":73,"Duration":55555,"SoundDuration":55555,"Delta":421431856},{"NoteNumber":72,"Velocity":66,"Duration":55555,"SoundDuration":55555,"Delta":421487411},{"NoteNumber":79,"Velocity":73,"Duration":115384,"SoundDuration":115384,"Delta":421542967},{"NoteNumber":63,"Velocity":64,"Duration":115384,"SoundDuration":115384,"Delta":421542967},{"NoteNumber":63,"Velocity":73,"Duration":55146,"SoundDuration":55146,"Delta":421773736},{"NoteNumber":48,"Velocity":62,"Duration":55146,"SoundDuration":55146,"Delta":421773736},{"NoteNumber":65,"Velocity":68,"Duration":55147,"SoundDuration":55147,"Delta":421828883},{"NoteNumber":50,"Velocity":54,"Duration":55147,"SoundDuration":55147,"Delta":421828883},{"NoteNumber":63,"Velocity":73,"Duration":55146,"SoundDuration":55146,"Delta":421884030},{"NoteNumber":48,"Velocity":61,"Duration":55146,"SoundDuration":55146,"Delta":421884030},{"NoteNumber":65,"Velocity":66,"Duration":55147,"SoundDuration":55147,"Delta":421939177},{"NoteNumber":50,"Velocity":54,"Duration":55147,"SoundDuration":55147,"Delta":421939177},{"NoteNumber":60,"Velocity":73,"Duration":110293,"SoundDuration":110293,"Delta":421994324},{"NoteNumber":75,"Velocity":75,"Duration":55147,"SoundDuration":55147,"Delta":422214912},{"NoteNumber":77,"Velocity":70,"Duration":55146,"SoundDuration":55146,"Delta":422270059},{"NoteNumber":75,"Velocity":75,"Duration":55146,"SoundDuration":55146,"Delta":422325206},{"NoteNumber":77,"Velocity":68,"Duration":55147,"SoundDuration":55147,"Delta":422380353},{"NoteNumber":84,"Velocity":75,"Duration":112781,"SoundDuration":112781,"Delta":422435500},{"NoteNumber":57,"Velocity":66,"Duration":112781,"SoundDuration":112781,"Delta":422435500},{"NoteNumber":69,"Velocity":77,"Duration":54944,"SoundDuration":54944,"Delta":422661064},{"NoteNumber":42,"Velocity":65,"Duration":54944,"SoundDuration":54944,"Delta":422661064},{"NoteNumber":70,"Velocity":72,"Duration":54945,"SoundDuration":54945,"Delta":422716009},{"NoteNumber":43,"Velocity":57,"Duration":54945,"SoundDuration":54945,"Delta":422716009},{"NoteNumber":69,"Velocity":78,"Duration":54944,"SoundDuration":54944,"Delta":422770954},{"NoteNumber":42,"Velocity":65,"Duration":54944,"SoundDuration":54944,"Delta":422770954},{"NoteNumber":70,"Velocity":70,"Duration":54945,"SoundDuration":54945,"Delta":422825899},{"NoteNumber":43,"Velocity":57,"Duration":54945,"SoundDuration":54945,"Delta":422825899},{"NoteNumber":62,"Velocity":78,"Duration":109890,"SoundDuration":109890,"Delta":422880844},{"NoteNumber":78,"Velocity":79,"Duration":54945,"SoundDuration":54945,"Delta":423100624},{"NoteNumber":79,"Velocity":74,"Duration":54944,"SoundDuration":54944,"Delta":423155569},{"NoteNumber":78,"Velocity":80,"Duration":54945,"SoundDuration":54945,"Delta":423210514},{"NoteNumber":79,"Velocity":72,"Duration":54944,"SoundDuration":54944,"Delta":423265459},{"NoteNumber":86,"Velocity":81,"Duration":112781,"SoundDuration":112781,"Delta":423320404},{"NoteNumber":58,"Velocity":68,"Duration":112781,"SoundDuration":112781,"Delta":423320404},{"NoteNumber":70,"Velocity":81,"Duration":218977,"SoundDuration":218977,"Delta":423545968},{"NoteNumber":43,"Velocity":69,"Duration":54744,"SoundDuration":54744,"Delta":423545968},{"NoteNumber":44,"Velocity":61,"Duration":54744,"SoundDuration":54744,"Delta":423600712},{"NoteNumber":43,"Velocity":68,"Duration":54744,"SoundDuration":54744,"Delta":423655457},{"NoteNumber":44,"Velocity":61,"Duration":54744,"SoundDuration":54744,"Delta":423710201},{"NoteNumber":67,"Velocity":83,"Duration":109488,"SoundDuration":109488,"Delta":423764946},{"NoteNumber":82,"Velocity":83,"Duration":54545,"SoundDuration":54545,"Delta":423983924},{"NoteNumber":84,"Velocity":78,"Duration":54545,"SoundDuration":54545,"Delta":424038469},{"NoteNumber":82,"Velocity":84,"Duration":54545,"SoundDuration":54545,"Delta":424093015},{"NoteNumber":84,"Velocity":77,"Duration":54545,"SoundDuration":54545,"Delta":424147560},{"NoteNumber":91,"Velocity":86,"Duration":112359,"SoundDuration":112359,"Delta":424202106},{"NoteNumber":64,"Velocity":75,"Duration":112359,"SoundDuration":112359,"Delta":424202106},{"NoteNumber":76,"Velocity":88,"Duration":54744,"SoundDuration":54744,"Delta":424426825},{"NoteNumber":49,"Velocity":75,"Duration":54744,"SoundDuration":54744,"Delta":424426825},{"NoteNumber":77,"Velocity":82,"Duration":54744,"SoundDuration":54744,"Delta":424481569},{"NoteNumber":50,"Velocity":65,"Duration":54744,"SoundDuration":54744,"Delta":424481569},{"NoteNumber":76,"Velocity":89,"Duration":54744,"SoundDuration":54744,"Delta":424536314},{"NoteNumber":49,"Velocity":74,"Duration":54744,"SoundDuration":54744,"Delta":424536314},{"NoteNumber":77,"Velocity":81,"Duration":54744,"SoundDuration":54744,"Delta":424591058},{"NoteNumber":50,"Velocity":66,"Duration":54744,"SoundDuration":54744,"Delta":424591058},{"NoteNumber":73,"Velocity":90,"Duration":109488,"SoundDuration":109488,"Delta":424645803},{"NoteNumber":88,"Velocity":92,"Duration":54744,"SoundDuration":54744,"Delta":424864781},{"NoteNumber":89,"Velocity":86,"Duration":54744,"SoundDuration":54744,"Delta":424919525},{"NoteNumber":88,"Velocity":93,"Duration":54744,"SoundDuration":54744,"Delta":424974270},{"NoteNumber":89,"Velocity":85,"Duration":54744,"SoundDuration":54744,"Delta":425029014},{"NoteNumber":81,"Velocity":93,"Duration":113636,"SoundDuration":113636,"Delta":425083759},{"NoteNumber":93,"Velocity":93,"Duration":113636,"SoundDuration":113636,"Delta":425083759},{"NoteNumber":57,"Velocity":82,"Duration":113636,"SoundDuration":113636,"Delta":425083759},{"NoteNumber":89,"Velocity":94,"Duration":109488,"SoundDuration":109488,"Delta":425311031},{"NoteNumber":77,"Velocity":79,"Duration":109488,"SoundDuration":109488,"Delta":425311031},{"NoteNumber":53,"Velocity":67,"Duration":109488,"SoundDuration":109488,"Delta":425311031},{"NoteNumber":86,"Velocity":95,"Duration":109488,"SoundDuration":109488,"Delta":425530009},{"NoteNumber":74,"Velocity":80,"Duration":109488,"SoundDuration":109488,"Delta":425530009},{"NoteNumber":50,"Velocity":69,"Duration":109488,"SoundDuration":109488,"Delta":425530009},{"NoteNumber":81,"Velocity":97,"Duration":109488,"SoundDuration":109488,"Delta":425748987},{"NoteNumber":69,"Velocity":82,"Duration":109488,"SoundDuration":109488,"Delta":425748987},{"NoteNumber":45,"Velocity":70,"Duration":109488,"SoundDuration":109488,"Delta":425748987},{"NoteNumber":77,"Velocity":98,"Duration":109488,"SoundDuration":109488,"Delta":425967965},{"NoteNumber":65,"Velocity":83,"Duration":109488,"SoundDuration":109488,"Delta":425967965},{"NoteNumber":41,"Velocity":72,"Duration":109488,"SoundDuration":109488,"Delta":425967965},{"NoteNumber":74,"Velocity":101,"Duration":109488,"SoundDuration":109488,"Delta":426186943},{"NoteNumber":62,"Velocity":85,"Duration":109488,"SoundDuration":109488,"Delta":426186943},{"NoteNumber":38,"Velocity":73,"Duration":109488,"SoundDuration":109488,"Delta":426186943},{"NoteNumber":69,"Velocity":93,"Duration":109488,"SoundDuration":109488,"Delta":426405921},{"NoteNumber":57,"Velocity":78,"Duration":109488,"SoundDuration":109488,"Delta":426405921},{"NoteNumber":33,"Velocity":57,"Duration":109488,"SoundDuration":109488,"Delta":426405921},{"NoteNumber":45,"Velocity":68,"Duration":109488,"SoundDuration":109488,"Delta":426405921},{"NoteNumber":56,"Velocity":80,"Duration":111940,"SoundDuration":111940,"Delta":426624899},{"NoteNumber":62,"Velocity":80,"Duration":111940,"SoundDuration":111940,"Delta":426624899},{"NoteNumber":68,"Velocity":95,"Duration":111940,"SoundDuration":111940,"Delta":426624899},{"NoteNumber":46,"Velocity":70,"Duration":111940,"SoundDuration":111940,"Delta":426624899},{"NoteNumber":34,"Velocity":58,"Duration":111940,"SoundDuration":111940,"Delta":426624899},{"NoteNumber":80,"Velocity":96,"Duration":111940,"SoundDuration":111940,"Delta":426848780},{"NoteNumber":74,"Velocity":81,"Duration":111940,"SoundDuration":111940,"Delta":426848780},{"NoteNumber":68,"Velocity":81,"Duration":111940,"SoundDuration":111940,"Delta":426848780},{"NoteNumber":34,"Velocity":59,"Duration":111940,"SoundDuration":111940,"Delta":426848780},{"NoteNumber":46,"Velocity":71,"Duration":111940,"SoundDuration":111940,"Delta":426848780},{"NoteNumber":81,"Velocity":98,"Duration":117187,"SoundDuration":117187,"Delta":427072660},{"NoteNumber":73,"Velocity":82,"Duration":117187,"SoundDuration":117187,"Delta":427072660},{"NoteNumber":69,"Velocity":82,"Duration":117187,"SoundDuration":117187,"Delta":427072660},{"NoteNumber":33,"Velocity":60,"Duration":117187,"SoundDuration":117187,"Delta":427072660},{"NoteNumber":37,"Velocity":60,"Duration":117187,"SoundDuration":117187,"Delta":427072660},{"NoteNumber":45,"Velocity":72,"Duration":117187,"SoundDuration":117187,"Delta":427072660},{"NoteNumber":40,"Velocity":60,"Duration":117187,"SoundDuration":117187,"Delta":427072660},{"NoteNumber":93,"Velocity":110,"Duration":117187,"SoundDuration":117187,"Delta":427541410},{"NoteNumber":88,"Velocity":93,"Duration":117187,"SoundDuration":117187,"Delta":427541410},{"NoteNumber":85,"Velocity":93,"Duration":117187,"SoundDuration":117187,"Delta":427541410},{"NoteNumber":81,"Velocity":93,"Duration":117187,"SoundDuration":117187,"Delta":427541410},{"NoteNumber":33,"Velocity":65,"Duration":117187,"SoundDuration":117187,"Delta":427541410},{"NoteNumber":45,"Velocity":76,"Duration":117187,"SoundDuration":117187,"Delta":427541410},{"NoteNumber":37,"Velocity":65,"Duration":117187,"SoundDuration":117187,"Delta":427541410},{"NoteNumber":40,"Velocity":65,"Duration":117187,"SoundDuration":117187,"Delta":427541410},{"NoteNumber":69,"Velocity":50,"Duration":484975,"SoundDuration":484975,"Delta":430353910},{"NoteNumber":67,"Velocity":45,"Duration":492187,"SoundDuration":492187,"Delta":430815448},{"NoteNumber":66,"Velocity":50,"Duration":492187,"SoundDuration":492187,"Delta":431284198},{"NoteNumber":67,"Velocity":46,"Duration":492187,"SoundDuration":492187,"Delta":431752948},{"NoteNumber":69,"Velocity":46,"Duration":468750,"SoundDuration":468750,"Delta":432221698},{"NoteNumber":62,"Velocity":50,"Duration":474375,"SoundDuration":474375,"Delta":432690448},{"NoteNumber":62,"Velocity":44,"Duration":492187,"SoundDuration":492187,"Delta":433164823},{"NoteNumber":64,"Velocity":44,"Duration":492187,"SoundDuration":492187,"Delta":433164823},{"NoteNumber":60,"Velocity":44,"Duration":468750,"SoundDuration":468750,"Delta":433633573},{"NoteNumber":66,"Velocity":44,"Duration":468750,"SoundDuration":468750,"Delta":433633573},{"NoteNumber":67,"Velocity":50,"Duration":935782,"SoundDuration":935782,"Delta":434102323},{"NoteNumber":59,"Velocity":50,"Duration":486963,"SoundDuration":486963,"Delta":434102323},{"NoteNumber":61,"Velocity":41,"Duration":496063,"SoundDuration":496063,"Delta":434565664},{"NoteNumber":66,"Velocity":44,"Duration":473841,"SoundDuration":473841,"Delta":435038105},{"NoteNumber":62,"Velocity":44,"Duration":940767,"SoundDuration":940767,"Delta":435038105},{"NoteNumber":64,"Velocity":50,"Duration":948853,"SoundDuration":948853,"Delta":435511946},{"NoteNumber":61,"Velocity":42,"Duration":947044,"SoundDuration":947044,"Delta":435978872},{"NoteNumber":57,"Velocity":44,"Duration":505183,"SoundDuration":505183,"Delta":435978872},{"NoteNumber":69,"Velocity":47,"Duration":1877275,"SoundDuration":1877275,"Delta":436460800},{"NoteNumber":55,"Velocity":42,"Duration":488371,"SoundDuration":488371,"Delta":436460800},{"NoteNumber":63,"Velocity":48,"Duration":488371,"SoundDuration":488371,"Delta":436925916},{"NoteNumber":54,"Velocity":42,"Duration":488371,"SoundDuration":488371,"Delta":436925916},{"NoteNumber":64,"Velocity":47,"Duration":489212,"SoundDuration":489212,"Delta":437391032},{"NoteNumber":55,"Velocity":44,"Duration":489212,"SoundDuration":489212,"Delta":437391032},{"NoteNumber":66,"Velocity":48,"Duration":947044,"SoundDuration":947044,"Delta":437856148},{"NoteNumber":57,"Velocity":44,"Duration":947044,"SoundDuration":947044,"Delta":437856148},{"NoteNumber":71,"Velocity":52,"Duration":488371,"SoundDuration":488371,"Delta":438338076},{"NoteNumber":73,"Velocity":54,"Duration":488371,"SoundDuration":488371,"Delta":438803192},{"NoteNumber":64,"Velocity":45,"Duration":465115,"SoundDuration":465115,"Delta":438803192},{"NoteNumber":55,"Velocity":44,"Duration":488371,"SoundDuration":488371,"Delta":438803192},{"NoteNumber":74,"Velocity":54,"Duration":465116,"SoundDuration":465116,"Delta":439268308},{"NoteNumber":62,"Velocity":45,"Duration":945116,"SoundDuration":945116,"Delta":439268308},{"NoteNumber":54,"Velocity":40,"Duration":465116,"SoundDuration":465116,"Delta":439268308},{"NoteNumber":69,"Velocity":50,"Duration":480000,"SoundDuration":480000,"Delta":439733424},{"NoteNumber":59,"Velocity":47,"Duration":480000,"SoundDuration":480000,"Delta":439733424},{"NoteNumber":67,"Velocity":47,"Duration":461538,"SoundDuration":461538,"Delta":440213424},{"NoteNumber":64,"Velocity":47,"Duration":461538,"SoundDuration":461538,"Delta":440213424},{"NoteNumber":49,"Velocity":40,"Duration":461538,"SoundDuration":461538,"Delta":440213424},{"NoteNumber":66,"Velocity":47,"Duration":930288,"SoundDuration":930288,"Delta":440674962},{"NoteNumber":57,"Velocity":39,"Duration":468750,"SoundDuration":468750,"Delta":440674962},{"NoteNumber":50,"Velocity":40,"Duration":468750,"SoundDuration":468750,"Delta":440674962},{"NoteNumber":58,"Velocity":50,"Duration":461538,"SoundDuration":461538,"Delta":441143712},{"NoteNumber":43,"Velocity":43,"Duration":461538,"SoundDuration":461538,"Delta":441143712},{"NoteNumber":64,"Velocity":46,"Duration":1423075,"SoundDuration":1423075,"Delta":441605250},{"NoteNumber":59,"Velocity":46,"Duration":461537,"SoundDuration":461537,"Delta":441605250},{"NoteNumber":44,"Velocity":41,"Duration":461537,"SoundDuration":461537,"Delta":441605250},{"NoteNumber":61,"Velocity":46,"Duration":461538,"SoundDuration":461538,"Delta":442066788},{"NoteNumber":45,"Velocity":41,"Duration":461538,"SoundDuration":461538,"Delta":442066788},{"NoteNumber":62,"Velocity":50,"Duration":500000,"SoundDuration":500000,"Delta":442528326},{"NoteNumber":47,"Velocity":37,"Duration":500000,"SoundDuration":500000,"Delta":442528326},{"NoteNumber":69,"Velocity":51,"Duration":494230,"SoundDuration":494230,"Delta":443028326},{"NoteNumber":76,"Velocity":60,"Duration":494230,"SoundDuration":494230,"Delta":443028326},{"NoteNumber":42,"Velocity":47,"Duration":494230,"SoundDuration":494230,"Delta":443028326},{"NoteNumber":71,"Velocity":45,"Duration":933978,"SoundDuration":933978,"Delta":443499480},{"NoteNumber":74,"Velocity":54,"Duration":485160,"SoundDuration":485160,"Delta":443499480},{"NoteNumber":44,"Velocity":47,"Duration":485160,"SoundDuration":485160,"Delta":443499480},{"NoteNumber":73,"Velocity":58,"Duration":495607,"SoundDuration":495607,"Delta":443961018},{"NoteNumber":45,"Velocity":47,"Duration":495607,"SoundDuration":495607,"Delta":443961018},{"NoteNumber":69,"Velocity":42,"Duration":486486,"SoundDuration":486486,"Delta":444433459},{"NoteNumber":74,"Velocity":53,"Duration":486486,"SoundDuration":486486,"Delta":444433459},{"NoteNumber":47,"Velocity":46,"Duration":486486,"SoundDuration":486486,"Delta":444433459},{"NoteNumber":67,"Velocity":42,"Duration":463320,"SoundDuration":463320,"Delta":444896779},{"NoteNumber":76,"Velocity":53,"Duration":463320,"SoundDuration":463320,"Delta":444896779},{"NoteNumber":49,"Velocity":47,"Duration":463320,"SoundDuration":463320,"Delta":444896779},{"NoteNumber":66,"Velocity":42,"Duration":499999,"SoundDuration":499999,"Delta":445360099},{"NoteNumber":69,"Velocity":50,"Duration":499999,"SoundDuration":499999,"Delta":445360099},{"NoteNumber":50,"Velocity":47,"Duration":499999,"SoundDuration":499999,"Delta":445360099},{"NoteNumber":67,"Velocity":39,"Duration":488277,"SoundDuration":488277,"Delta":445836289},{"NoteNumber":71,"Velocity":46,"Duration":488277,"SoundDuration":488277,"Delta":445836289},{"NoteNumber":62,"Velocity":44,"Duration":488277,"SoundDuration":488277,"Delta":445836289},{"NoteNumber":69,"Velocity":39,"Duration":484614,"SoundDuration":484614,"Delta":446301490},{"NoteNumber":72,"Velocity":46,"Duration":484614,"SoundDuration":484614,"Delta":446301490},{"NoteNumber":60,"Velocity":44,"Duration":484614,"SoundDuration":484614,"Delta":446301490},{"NoteNumber":74,"Velocity":52,"Duration":923076,"SoundDuration":923076,"Delta":446763028},{"NoteNumber":62,"Velocity":42,"Duration":484614,"SoundDuration":484614,"Delta":446763028},{"NoteNumber":59,"Velocity":47,"Duration":484614,"SoundDuration":484614,"Delta":446763028},{"NoteNumber":64,"Velocity":44,"Duration":485253,"SoundDuration":485253,"Delta":447224566},{"NoteNumber":61,"Velocity":39,"Duration":485253,"SoundDuration":485253,"Delta":447224566},{"NoteNumber":73,"Velocity":52,"Duration":935846,"SoundDuration":935846,"Delta":447686104},{"NoteNumber":66,"Velocity":44,"Duration":474308,"SoundDuration":474308,"Delta":447686104},{"NoteNumber":62,"Velocity":40,"Duration":474308,"SoundDuration":474308,"Delta":447686104},{"NoteNumber":67,"Velocity":50,"Duration":923075,"SoundDuration":923075,"Delta":448160412},{"NoteNumber":55,"Velocity":42,"Duration":484614,"SoundDuration":484614,"Delta":448160412},{"NoteNumber":71,"Velocity":46,"Duration":461537,"SoundDuration":461537,"Delta":448621950},{"NoteNumber":57,"Velocity":44,"Duration":484614,"SoundDuration":484614,"Delta":448621950},{"NoteNumber":66,"Velocity":39,"Duration":957055,"SoundDuration":957055,"Delta":449083488},{"NoteNumber":69,"Velocity":46,"Duration":957055,"SoundDuration":957055,"Delta":449083488},{"NoteNumber":59,"Velocity":47,"Duration":461538,"SoundDuration":461538,"Delta":449083488},{"NoteNumber":52,"Velocity":47,"Duration":495517,"SoundDuration":495517,"Delta":449545026},{"NoteNumber":64,"Velocity":39,"Duration":484975,"SoundDuration":484975,"Delta":450017467},{"NoteNumber":67,"Velocity":46,"Duration":484975,"SoundDuration":484975,"Delta":450017467},{"NoteNumber":54,"Velocity":41,"Duration":484975,"SoundDuration":484975,"Delta":450017467},{"NoteNumber":62,"Velocity":39,"Duration":941191,"SoundDuration":941191,"Delta":450479005},{"NoteNumber":66,"Velocity":46,"Duration":492372,"SoundDuration":492372,"Delta":450479005},{"NoteNumber":55,"Velocity":41,"Duration":492372,"SoundDuration":492372,"Delta":450479005},{"NoteNumber":64,"Velocity":50,"Duration":935761,"SoundDuration":935761,"Delta":450947755},{"NoteNumber":56,"Velocity":47,"Duration":495607,"SoundDuration":495607,"Delta":450947755},{"NoteNumber":61,"Velocity":44,"Duration":935761,"SoundDuration":935761,"Delta":451420196},{"NoteNumber":57,"Velocity":45,"Duration":486942,"SoundDuration":486942,"Delta":451420196},{"NoteNumber":69,"Velocity":54,"Duration":935315,"SoundDuration":935315,"Delta":451883516},{"NoteNumber":55,"Velocity":45,"Duration":472441,"SoundDuration":472441,"Delta":451883516},{"NoteNumber":63,"Velocity":48,"Duration":1389514,"SoundDuration":1389514,"Delta":452355957},{"NoteNumber":54,"Velocity":44,"Duration":462874,"SoundDuration":462874,"Delta":452355957},{"NoteNumber":66,"Velocity":48,"Duration":463320,"SoundDuration":463320,"Delta":452818831},{"NoteNumber":59,"Velocity":45,"Duration":463320,"SoundDuration":463320,"Delta":452818831},{"NoteNumber":71,"Velocity":54,"Duration":939509,"SoundDuration":939509,"Delta":453282151},{"NoteNumber":57,"Velocity":45,"Duration":463320,"SoundDuration":463320,"Delta":453282151},{"NoteNumber":64,"Velocity":54,"Duration":476189,"SoundDuration":476189,"Delta":453745471},{"NoteNumber":55,"Velocity":44,"Duration":941305,"SoundDuration":941305,"Delta":453745471},{"NoteNumber":76,"Velocity":67,"Duration":488371,"SoundDuration":488371,"Delta":454221661},{"NoteNumber":61,"Velocity":51,"Duration":488371,"SoundDuration":488371,"Delta":454221661},{"NoteNumber":74,"Velocity":63,"Duration":489115,"SoundDuration":489115,"Delta":454686777},{"NoteNumber":59,"Velocity":47,"Duration":489115,"SoundDuration":489115,"Delta":454686777},{"NoteNumber":53,"Velocity":39,"Duration":489115,"SoundDuration":489115,"Delta":454686777},{"NoteNumber":73,"Velocity":59,"Duration":480000,"SoundDuration":480000,"Delta":455151893},{"NoteNumber":54,"Velocity":44,"Duration":948837,"SoundDuration":948837,"Delta":455151893},{"NoteNumber":58,"Velocity":51,"Duration":480000,"SoundDuration":480000,"Delta":455151893},{"NoteNumber":78,"Velocity":64,"Duration":492092,"SoundDuration":492092,"Delta":455631893},{"NoteNumber":62,"Velocity":54,"Duration":492092,"SoundDuration":492092,"Delta":455631893},{"NoteNumber":76,"Velocity":57,"Duration":489020,"SoundDuration":489020,"Delta":456100730},{"NoteNumber":61,"Velocity":54,"Duration":489020,"SoundDuration":489020,"Delta":456100730},{"NoteNumber":56,"Velocity":54,"Duration":255813,"SoundDuration":255813,"Delta":456100730},{"NoteNumber":58,"Velocity":48,"Duration":256462,"SoundDuration":256462,"Delta":456333288},{"NoteNumber":74,"Velocity":57,"Duration":478088,"SoundDuration":478088,"Delta":456565846},{"NoteNumber":59,"Velocity":44,"Duration":478088,"SoundDuration":478088,"Delta":456565846},{"NoteNumber":62,"Velocity":54,"Duration":478088,"SoundDuration":478088,"Delta":456565846},{"NoteNumber":81,"Velocity":71,"Duration":486486,"SoundDuration":486486,"Delta":457043934},{"NoteNumber":57,"Velocity":46,"Duration":486486,"SoundDuration":486486,"Delta":457043934},{"NoteNumber":61,"Velocity":55,"Duration":463320,"SoundDuration":463320,"Delta":457043934},{"NoteNumber":79,"Velocity":68,"Duration":486942,"SoundDuration":486942,"Delta":457507254},{"NoteNumber":61,"Velocity":45,"Duration":486942,"SoundDuration":486942,"Delta":457507254},{"NoteNumber":64,"Velocity":54,"Duration":486942,"SoundDuration":486942,"Delta":457507254},{"NoteNumber":78,"Velocity":67,"Duration":472441,"SoundDuration":472441,"Delta":457970574},{"NoteNumber":62,"Velocity":47,"Duration":472441,"SoundDuration":472441,"Delta":457970574},{"NoteNumber":66,"Velocity":56,"Duration":472441,"SoundDuration":472441,"Delta":457970574},{"NoteNumber":71,"Velocity":53,"Duration":463320,"SoundDuration":463320,"Delta":458443015},{"NoteNumber":75,"Velocity":63,"Duration":463320,"SoundDuration":463320,"Delta":458443015},{"NoteNumber":54,"Velocity":52,"Duration":463320,"SoundDuration":463320,"Delta":458443015},{"NoteNumber":69,"Velocity":46,"Duration":472441,"SoundDuration":472441,"Delta":458906335},{"NoteNumber":78,"Velocity":56,"Duration":472441,"SoundDuration":472441,"Delta":458906335},{"NoteNumber":51,"Velocity":51,"Duration":472441,"SoundDuration":472441,"Delta":458906335},{"NoteNumber":67,"Velocity":51,"Duration":461538,"SoundDuration":461538,"Delta":459378776},{"NoteNumber":71,"Velocity":62,"Duration":461538,"SoundDuration":461538,"Delta":459378776},{"NoteNumber":52,"Velocity":54,"Duration":461538,"SoundDuration":461538,"Delta":459378776},{"NoteNumber":66,"Velocity":42,"Duration":484614,"SoundDuration":484614,"Delta":459840314},{"NoteNumber":69,"Velocity":50,"Duration":484614,"SoundDuration":484614,"Delta":459840314},{"NoteNumber":64,"Velocity":53,"Duration":484614,"SoundDuration":484614,"Delta":459840314},{"NoteNumber":68,"Velocity":42,"Duration":484614,"SoundDuration":484614,"Delta":460301852},{"NoteNumber":71,"Velocity":49,"Duration":484614,"SoundDuration":484614,"Delta":460301852},{"NoteNumber":62,"Velocity":52,"Duration":484614,"SoundDuration":484614,"Delta":460301852},{"NoteNumber":69,"Velocity":50,"Duration":461538,"SoundDuration":461538,"Delta":460763390},{"NoteNumber":73,"Velocity":57,"Duration":461538,"SoundDuration":461538,"Delta":460763390},{"NoteNumber":61,"Velocity":59,"Duration":461538,"SoundDuration":461538,"Delta":460763390},{"NoteNumber":71,"Velocity":44,"Duration":488645,"SoundDuration":488645,"Delta":461224928},{"NoteNumber":74,"Velocity":61,"Duration":488645,"SoundDuration":488645,"Delta":461224928},{"NoteNumber":45,"Velocity":50,"Duration":488645,"SoundDuration":488645,"Delta":461224928},{"NoteNumber":76,"Velocity":62,"Duration":952034,"SoundDuration":952034,"Delta":461690044},{"NoteNumber":73,"Velocity":44,"Duration":494588,"SoundDuration":494588,"Delta":461690044},{"NoteNumber":43,"Velocity":47,"Duration":494588,"SoundDuration":494588,"Delta":461690044},{"NoteNumber":69,"Velocity":55,"Duration":481446,"SoundDuration":481446,"Delta":462160632},{"NoteNumber":42,"Velocity":48,"Duration":481446,"SoundDuration":481446,"Delta":462160632},{"NoteNumber":65,"Velocity":49,"Duration":486849,"SoundDuration":486849,"Delta":462642078},{"NoteNumber":74,"Velocity":58,"Duration":486849,"SoundDuration":486849,"Delta":462642078},{"NoteNumber":44,"Velocity":47,"Duration":486849,"SoundDuration":486849,"Delta":462642078},{"NoteNumber":64,"Velocity":46,"Duration":494117,"SoundDuration":494117,"Delta":463105398},{"NoteNumber":73,"Velocity":54,"Duration":494117,"SoundDuration":494117,"Delta":463105398},{"NoteNumber":45,"Velocity":47,"Duration":941175,"SoundDuration":941175,"Delta":463105398},{"NoteNumber":62,"Velocity":44,"Duration":1893691,"SoundDuration":1893691,"Delta":463575986},{"NoteNumber":71,"Velocity":52,"Duration":1893691,"SoundDuration":1893691,"Delta":463575986},{"NoteNumber":44,"Velocity":43,"Duration":470588,"SoundDuration":470588,"Delta":464046574},{"NoteNumber":40,"Velocity":43,"Duration":470588,"SoundDuration":470588,"Delta":464517162},{"NoteNumber":45,"Velocity":47,"Duration":481927,"SoundDuration":481927,"Delta":464987750},{"NoteNumber":61,"Velocity":45,"Duration":478088,"SoundDuration":478088,"Delta":465469678},{"NoteNumber":69,"Velocity":53,"Duration":478088,"SoundDuration":478088,"Delta":465469678},{"NoteNumber":57,"Velocity":43,"Duration":478088,"SoundDuration":478088,"Delta":465469678},{"NoteNumber":63,"Velocity":46,"Duration":930231,"SoundDuration":930231,"Delta":465947766},{"NoteNumber":72,"Velocity":55,"Duration":930231,"SoundDuration":930231,"Delta":465947766},{"NoteNumber":54,"Velocity":43,"Duration":465116,"SoundDuration":465116,"Delta":465947766},{"NoteNumber":55,"Velocity":47,"Duration":947043,"SoundDuration":947043,"Delta":466412882},{"NoteNumber":64,"Velocity":45,"Duration":481927,"SoundDuration":481927,"Delta":466877998},{"NoteNumber":71,"Velocity":54,"Duration":481927,"SoundDuration":481927,"Delta":466877998},{"NoteNumber":67,"Velocity":42,"Duration":969018,"SoundDuration":969018,"Delta":467359926},{"NoteNumber":73,"Velocity":53,"Duration":969018,"SoundDuration":969018,"Delta":467359926},{"NoteNumber":52,"Velocity":47,"Duration":466926,"SoundDuration":466926,"Delta":467359926},{"NoteNumber":51,"Velocity":42,"Duration":502092,"SoundDuration":502092,"Delta":467826852},{"NoteNumber":66,"Velocity":45,"Duration":487804,"SoundDuration":487804,"Delta":468328944},{"NoteNumber":74,"Velocity":57,"Duration":487804,"SoundDuration":487804,"Delta":468328944},{"NoteNumber":50,"Velocity":46,"Duration":487804,"SoundDuration":487804,"Delta":468328944},{"NoteNumber":75,"Velocity":54,"Duration":1002826,"SoundDuration":1002826,"Delta":468816749},{"NoteNumber":67,"Velocity":45,"Duration":487805,"SoundDuration":487805,"Delta":468816749},{"NoteNumber":48,"Velocity":46,"Duration":487805,"SoundDuration":487805,"Delta":468816749},{"NoteNumber":57,"Velocity":44,"Duration":515020,"SoundDuration":515020,"Delta":469304554},{"NoteNumber":53,"Velocity":30,"Duration":515020,"SoundDuration":515020,"Delta":469304554},{"NoteNumber":74,"Velocity":58,"Duration":645160,"SoundDuration":645160,"Delta":469819575},{"NoteNumber":58,"Velocity":46,"Duration":645160,"SoundDuration":645160,"Delta":469819575},{"NoteNumber":46,"Velocity":39,"Duration":645160,"SoundDuration":645160,"Delta":469819575},{"NoteNumber":73,"Velocity":55,"Duration":701753,"SoundDuration":701753,"Delta":470464736},{"NoteNumber":46,"Velocity":39,"Duration":701753,"SoundDuration":701753,"Delta":470464736},{"NoteNumber":52,"Velocity":46,"Duration":701753,"SoundDuration":701753,"Delta":470464736},{"NoteNumber":72,"Velocity":55,"Duration":350877,"SoundDuration":350877,"Delta":471166490},{"NoteNumber":53,"Velocity":46,"Duration":690288,"SoundDuration":690288,"Delta":471166490},{"NoteNumber":45,"Velocity":46,"Duration":690288,"SoundDuration":690288,"Delta":471166490},{"NoteNumber":69,"Velocity":50,"Duration":78585,"SoundDuration":78585,"Delta":471856779},{"NoteNumber":77,"Velocity":50,"Duration":464365,"SoundDuration":464365,"Delta":471856779},{"NoteNumber":48,"Velocity":46,"Duration":464365,"SoundDuration":464365,"Delta":471856779},{"NoteNumber":70,"Velocity":44,"Duration":78125,"SoundDuration":78125,"Delta":471935365},{"NoteNumber":69,"Velocity":50,"Duration":77670,"SoundDuration":77670,"Delta":472013490},{"NoteNumber":70,"Velocity":44,"Duration":77220,"SoundDuration":77220,"Delta":472091160},{"NoteNumber":69,"Velocity":50,"Duration":76717,"SoundDuration":76717,"Delta":472168381},{"NoteNumber":70,"Velocity":44,"Duration":76045,"SoundDuration":76045,"Delta":472245098},{"NoteNumber":69,"Velocity":50,"Duration":76074,"SoundDuration":76074,"Delta":472321144},{"NoteNumber":75,"Velocity":45,"Duration":471483,"SoundDuration":471483,"Delta":472321144},{"NoteNumber":41,"Velocity":46,"Duration":471483,"SoundDuration":471483,"Delta":472321144},{"NoteNumber":70,"Velocity":45,"Duration":76718,"SoundDuration":76718,"Delta":472397219},{"NoteNumber":69,"Velocity":50,"Duration":78096,"SoundDuration":78096,"Delta":472473937},{"NoteNumber":70,"Velocity":49,"Duration":59368,"SoundDuration":59368,"Delta":472552034},{"NoteNumber":69,"Velocity":46,"Duration":60258,"SoundDuration":60258,"Delta":472611402},{"NoteNumber":67,"Velocity":46,"Duration":60483,"SoundDuration":60483,"Delta":472671660},{"NoteNumber":69,"Velocity":46,"Duration":60483,"SoundDuration":60483,"Delta":472732144},{"NoteNumber":74,"Velocity":50,"Duration":484793,"SoundDuration":484793,"Delta":472792628},{"NoteNumber":46,"Velocity":46,"Duration":461538,"SoundDuration":461538,"Delta":472792628},{"NoteNumber":75,"Velocity":46,"Duration":488738,"SoundDuration":488738,"Delta":473254166},{"NoteNumber":70,"Velocity":43,"Duration":139534,"SoundDuration":139534,"Delta":473486724},{"NoteNumber":69,"Velocity":39,"Duration":139901,"SoundDuration":139901,"Delta":473603003},{"NoteNumber":67,"Velocity":42,"Duration":141732,"SoundDuration":141732,"Delta":473719282},{"NoteNumber":77,"Velocity":46,"Duration":472441,"SoundDuration":472441,"Delta":473719282},{"NoteNumber":65,"Velocity":41,"Duration":141732,"SoundDuration":141732,"Delta":473837392},{"NoteNumber":63,"Velocity":39,"Duration":141732,"SoundDuration":141732,"Delta":473955502},{"NoteNumber":62,"Velocity":37,"Duration":118110,"SoundDuration":118110,"Delta":474073612},{"NoteNumber":67,"Velocity":50,"Duration":463320,"SoundDuration":463320,"Delta":474191723},{"NoteNumber":71,"Velocity":50,"Duration":463320,"SoundDuration":463320,"Delta":474191723},{"NoteNumber":72,"Velocity":44,"Duration":492559,"SoundDuration":492559,"Delta":474655043},{"NoteNumber":67,"Velocity":40,"Duration":140625,"SoundDuration":140625,"Delta":474889418},{"NoteNumber":65,"Velocity":38,"Duration":140997,"SoundDuration":140997,"Delta":475006605},{"NoteNumber":63,"Velocity":40,"Duration":142856,"SoundDuration":142856,"Delta":475123793},{"NoteNumber":74,"Velocity":44,"Duration":476189,"SoundDuration":476189,"Delta":475123793},{"NoteNumber":62,"Velocity":40,"Duration":142856,"SoundDuration":142856,"Delta":475242840},{"NoteNumber":60,"Velocity":39,"Duration":142856,"SoundDuration":142856,"Delta":475361888},{"NoteNumber":59,"Velocity":38,"Duration":119047,"SoundDuration":119047,"Delta":475480935},{"NoteNumber":62,"Velocity":46,"Duration":480971,"SoundDuration":480971,"Delta":475599983},{"NoteNumber":71,"Velocity":55,"Duration":240481,"SoundDuration":240481,"Delta":475599983},{"NoteNumber":43,"Velocity":46,"Duration":480971,"SoundDuration":480971,"Delta":475599983},{"NoteNumber":67,"Velocity":50,"Duration":464365,"SoundDuration":464365,"Delta":476080954},{"NoteNumber":59,"Velocity":50,"Duration":78585,"SoundDuration":78585,"Delta":476080954},{"NoteNumber":60,"Velocity":44,"Duration":78125,"SoundDuration":78125,"Delta":476159540},{"NoteNumber":59,"Velocity":50,"Duration":77670,"SoundDuration":77670,"Delta":476237666},{"NoteNumber":60,"Velocity":44,"Duration":77220,"SoundDuration":77220,"Delta":476315336},{"NoteNumber":59,"Velocity":51,"Duration":76717,"SoundDuration":76717,"Delta":476392557},{"NoteNumber":60,"Velocity":44,"Duration":76045,"SoundDuration":76045,"Delta":476469274},{"NoteNumber":65,"Velocity":46,"Duration":471483,"SoundDuration":471483,"Delta":476545320},{"NoteNumber":59,"Velocity":51,"Duration":76074,"SoundDuration":76074,"Delta":476545320},{"NoteNumber":60,"Velocity":46,"Duration":76718,"SoundDuration":76718,"Delta":476621394},{"NoteNumber":59,"Velocity":52,"Duration":78096,"SoundDuration":78096,"Delta":476698113},{"NoteNumber":60,"Velocity":51,"Duration":59368,"SoundDuration":59368,"Delta":476776209},{"NoteNumber":59,"Velocity":48,"Duration":60258,"SoundDuration":60258,"Delta":476835578},{"NoteNumber":57,"Velocity":48,"Duration":60483,"SoundDuration":60483,"Delta":476895836},{"NoteNumber":59,"Velocity":48,"Duration":60483,"SoundDuration":60483,"Delta":476956319},{"NoteNumber":64,"Velocity":53,"Duration":484793,"SoundDuration":484793,"Delta":477016803},{"NoteNumber":60,"Velocity":48,"Duration":461538,"SoundDuration":461538,"Delta":477016803},{"NoteNumber":65,"Velocity":50,"Duration":488738,"SoundDuration":488738,"Delta":477478341},{"NoteNumber":60,"Velocity":47,"Duration":139534,"SoundDuration":139534,"Delta":477710899},{"NoteNumber":58,"Velocity":43,"Duration":139901,"SoundDuration":139901,"Delta":477827178},{"NoteNumber":67,"Velocity":51,"Duration":472441,"SoundDuration":472441,"Delta":477943457},{"NoteNumber":57,"Velocity":47,"Duration":141732,"SoundDuration":141732,"Delta":477943457},{"NoteNumber":55,"Velocity":46,"Duration":141732,"SoundDuration":141732,"Delta":478061568},{"NoteNumber":53,"Velocity":44,"Duration":141732,"SoundDuration":141732,"Delta":478179678},{"NoteNumber":52,"Velocity":42,"Duration":118110,"SoundDuration":118110,"Delta":478297788},{"NoteNumber":60,"Velocity":58,"Duration":463320,"SoundDuration":463320,"Delta":478415898},{"NoteNumber":57,"Velocity":53,"Duration":463320,"SoundDuration":463320,"Delta":478415898},{"NoteNumber":62,"Velocity":52,"Duration":492559,"SoundDuration":492559,"Delta":478879218},{"NoteNumber":72,"Velocity":52,"Duration":492559,"SoundDuration":492559,"Delta":478879218},{"NoteNumber":57,"Velocity":52,"Duration":140625,"SoundDuration":140625,"Delta":479113593},{"NoteNumber":55,"Velocity":47,"Duration":140997,"SoundDuration":140997,"Delta":479230781},{"NoteNumber":64,"Velocity":54,"Duration":499355,"SoundDuration":499355,"Delta":479347968},{"NoteNumber":70,"Velocity":54,"Duration":476189,"SoundDuration":476189,"Delta":479347968},{"NoteNumber":53,"Velocity":51,"Duration":142856,"SoundDuration":142856,"Delta":479347968},{"NoteNumber":52,"Velocity":50,"Duration":142856,"SoundDuration":142856,"Delta":479467016},{"NoteNumber":50,"Velocity":48,"Duration":142856,"SoundDuration":142856,"Delta":479586063},{"NoteNumber":48,"Velocity":46,"Duration":119047,"SoundDuration":119047,"Delta":479705111},{"NoteNumber":65,"Velocity":57,"Duration":463320,"SoundDuration":463320,"Delta":479824158},{"NoteNumber":69,"Velocity":63,"Duration":463320,"SoundDuration":463320,"Delta":479824158},{"NoteNumber":53,"Velocity":57,"Duration":463320,"SoundDuration":463320,"Delta":479824158},{"NoteNumber":67,"Velocity":57,"Duration":492559,"SoundDuration":492559,"Delta":480287478},{"NoteNumber":70,"Velocity":57,"Duration":492559,"SoundDuration":492559,"Delta":480287478},{"NoteNumber":53,"Velocity":56,"Duration":140625,"SoundDuration":140625,"Delta":480521853},{"NoteNumber":52,"Velocity":51,"Duration":140997,"SoundDuration":140997,"Delta":480639041},{"NoteNumber":69,"Velocity":58,"Duration":499999,"SoundDuration":499999,"Delta":480756228},{"NoteNumber":72,"Velocity":58,"Duration":476189,"SoundDuration":476189,"Delta":480756228},{"NoteNumber":50,"Velocity":55,"Duration":142856,"SoundDuration":142856,"Delta":480756228},{"NoteNumber":48,"Velocity":54,"Duration":142856,"SoundDuration":142856,"Delta":480875276},{"NoteNumber":46,"Velocity":52,"Duration":142856,"SoundDuration":142856,"Delta":480994323},{"NoteNumber":45,"Velocity":49,"Duration":119047,"SoundDuration":119047,"Delta":481113371},{"NoteNumber":63,"Velocity":70,"Duration":238095,"SoundDuration":238095,"Delta":481232418},{"NoteNumber":65,"Velocity":70,"Duration":238095,"SoundDuration":238095,"Delta":481232418},{"NoteNumber":48,"Velocity":57,"Duration":142857,"SoundDuration":142857,"Delta":481232418},{"NoteNumber":46,"Velocity":57,"Duration":142856,"SoundDuration":142856,"Delta":481351466},{"NoteNumber":72,"Velocity":64,"Duration":475462,"SoundDuration":475462,"Delta":481470513},{"NoteNumber":45,"Velocity":57,"Duration":142856,"SoundDuration":142856,"Delta":481470513},{"NoteNumber":43,"Velocity":58,"Duration":119047,"SoundDuration":119047,"Delta":481589561},{"NoteNumber":81,"Velocity":72,"Duration":79364,"SoundDuration":79364,"Delta":481708608},{"NoteNumber":41,"Velocity":81,"Duration":471964,"SoundDuration":471964,"Delta":481708608},{"NoteNumber":29,"Velocity":71,"Duration":471964,"SoundDuration":471964,"Delta":481708608},{"NoteNumber":82,"Velocity":57,"Duration":79188,"SoundDuration":79188,"Delta":481787973},{"NoteNumber":81,"Velocity":72,"Duration":78814,"SoundDuration":78814,"Delta":481867162},{"NoteNumber":82,"Velocity":57,"Duration":78566,"SoundDuration":78566,"Delta":481945976},{"NoteNumber":77,"Velocity":72,"Duration":465939,"SoundDuration":465939,"Delta":481945976},{"NoteNumber":81,"Velocity":72,"Duration":78197,"SoundDuration":78197,"Delta":482024542},{"NoteNumber":82,"Velocity":57,"Duration":77832,"SoundDuration":77832,"Delta":482102740},{"NoteNumber":81,"Velocity":72,"Duration":77590,"SoundDuration":77590,"Delta":482180573},{"NoteNumber":39,"Velocity":72,"Duration":464754,"SoundDuration":464754,"Delta":482180573},{"NoteNumber":27,"Velocity":63,"Duration":464754,"SoundDuration":464754,"Delta":482180573},{"NoteNumber":82,"Velocity":57,"Duration":76898,"SoundDuration":76898,"Delta":482258164},{"NoteNumber":81,"Velocity":72,"Duration":76853,"SoundDuration":76853,"Delta":482335062},{"NoteNumber":82,"Velocity":57,"Duration":77377,"SoundDuration":77377,"Delta":482411915},{"NoteNumber":78,"Velocity":81,"Duration":233412,"SoundDuration":233412,"Delta":482411915},{"NoteNumber":81,"Velocity":72,"Duration":77749,"SoundDuration":77749,"Delta":482489292},{"NoteNumber":82,"Velocity":57,"Duration":78285,"SoundDuration":78285,"Delta":482567042},{"NoteNumber":26,"Velocity":71,"Duration":463059,"SoundDuration":463059,"Delta":482645327},{"NoteNumber":38,"Velocity":81,"Duration":463059,"SoundDuration":463059,"Delta":482645327},{"NoteNumber":82,"Velocity":90,"Duration":113736,"SoundDuration":113736,"Delta":482880621},{"NoteNumber":81,"Velocity":82,"Duration":114028,"SoundDuration":114028,"Delta":482994358},{"NoteNumber":79,"Velocity":81,"Duration":114453,"SoundDuration":114453,"Delta":483108387},{"NoteNumber":39,"Velocity":73,"Duration":460725,"SoundDuration":460725,"Delta":483108387},{"NoteNumber":27,"Velocity":64,"Duration":460725,"SoundDuration":460725,"Delta":483108387},{"NoteNumber":77,"Velocity":80,"Duration":114942,"SoundDuration":114942,"Delta":483222840},{"NoteNumber":75,"Velocity":79,"Duration":115451,"SoundDuration":115451,"Delta":483337783},{"NoteNumber":74,"Velocity":78,"Duration":115878,"SoundDuration":115878,"Delta":483453234},{"NoteNumber":29,"Velocity":63,"Duration":463682,"SoundDuration":463682,"Delta":483569113},{"NoteNumber":41,"Velocity":72,"Duration":463682,"SoundDuration":463682,"Delta":483569113},{"NoteNumber":58,"Velocity":82,"Duration":115747,"SoundDuration":115747,"Delta":483802263},{"NoteNumber":56,"Velocity":73,"Duration":114785,"SoundDuration":114785,"Delta":483918010},{"NoteNumber":55,"Velocity":72,"Duration":115451,"SoundDuration":115451,"Delta":484032795},{"NoteNumber":39,"Velocity":81,"Duration":465669,"SoundDuration":465669,"Delta":484032795},{"NoteNumber":27,"Velocity":71,"Duration":465669,"SoundDuration":465669,"Delta":484032795},{"NoteNumber":53,"Velocity":72,"Duration":116058,"SoundDuration":116058,"Delta":484148247},{"NoteNumber":51,"Velocity":71,"Duration":116799,"SoundDuration":116799,"Delta":484264306},{"NoteNumber":50,"Velocity":70,"Duration":117359,"SoundDuration":117359,"Delta":484381106},{"NoteNumber":41,"Velocity":71,"Duration":467722,"SoundDuration":467722,"Delta":484498465},{"NoteNumber":29,"Velocity":62,"Duration":467722,"SoundDuration":467722,"Delta":484498465},{"NoteNumber":79,"Velocity":95,"Duration":116657,"SoundDuration":116657,"Delta":484735338},{"NoteNumber":77,"Velocity":82,"Duration":114192,"SoundDuration":114192,"Delta":484851995},{"NoteNumber":75,"Velocity":81,"Duration":115009,"SoundDuration":115009,"Delta":484966188},{"NoteNumber":31,"Velocity":62,"Duration":465059,"SoundDuration":465059,"Delta":484966188},{"NoteNumber":43,"Velocity":71,"Duration":465059,"SoundDuration":465059,"Delta":484966188},{"NoteNumber":74,"Velocity":80,"Duration":115838,"SoundDuration":115838,"Delta":485081197},{"NoteNumber":72,"Velocity":79,"Duration":116679,"SoundDuration":116679,"Delta":485197035},{"NoteNumber":70,"Velocity":78,"Duration":117532,"SoundDuration":117532,"Delta":485313714},{"NoteNumber":40,"Velocity":80,"Duration":468691,"SoundDuration":468691,"Delta":485431247},{"NoteNumber":28,"Velocity":70,"Duration":468691,"SoundDuration":468691,"Delta":485431247},{"NoteNumber":60,"Velocity":82,"Duration":116777,"SoundDuration":116777,"Delta":485668327},{"NoteNumber":58,"Velocity":73,"Duration":114833,"SoundDuration":114833,"Delta":485785105},{"NoteNumber":56,"Velocity":72,"Duration":115521,"SoundDuration":115521,"Delta":485899938},{"NoteNumber":29,"Velocity":60,"Duration":466520,"SoundDuration":466520,"Delta":485899938},{"NoteNumber":41,"Velocity":69,"Duration":466520,"SoundDuration":466520,"Delta":485899938},{"NoteNumber":55,"Velocity":72,"Duration":116287,"SoundDuration":116287,"Delta":486015460},{"NoteNumber":53,"Velocity":71,"Duration":116932,"SoundDuration":116932,"Delta":486131747},{"NoteNumber":52,"Velocity":70,"Duration":117778,"SoundDuration":117778,"Delta":486248680},{"NoteNumber":31,"Velocity":60,"Duration":464439,"SoundDuration":464439,"Delta":486366459},{"NoteNumber":43,"Velocity":69,"Duration":464439,"SoundDuration":464439,"Delta":486366459},{"NoteNumber":77,"Velocity":92,"Duration":113823,"SoundDuration":113823,"Delta":486602679},{"NoteNumber":76,"Velocity":82,"Duration":114395,"SoundDuration":114395,"Delta":486716503},{"NoteNumber":73,"Velocity":81,"Duration":115078,"SoundDuration":115078,"Delta":486830898},{"NoteNumber":29,"Velocity":67,"Duration":464713,"SoundDuration":464713,"Delta":486830898},{"NoteNumber":41,"Velocity":77,"Duration":464713,"SoundDuration":464713,"Delta":486830898},{"NoteNumber":72,"Velocity":80,"Duration":115838,"SoundDuration":115838,"Delta":486945977},{"NoteNumber":70,"Velocity":79,"Duration":116478,"SoundDuration":116478,"Delta":487061815},{"NoteNumber":69,"Velocity":78,"Duration":117318,"SoundDuration":117318,"Delta":487178294},{"NoteNumber":31,"Velocity":59,"Duration":462780,"SoundDuration":462780,"Delta":487295612},{"NoteNumber":43,"Velocity":67,"Duration":462780,"SoundDuration":462780,"Delta":487295612},{"NoteNumber":57,"Velocity":82,"Duration":113827,"SoundDuration":113827,"Delta":487529937},{"NoteNumber":55,"Velocity":73,"Duration":114628,"SoundDuration":114628,"Delta":487643764},{"NoteNumber":54,"Velocity":72,"Duration":115451,"SoundDuration":115451,"Delta":487758393},{"NoteNumber":45,"Velocity":67,"Duration":466210,"SoundDuration":466210,"Delta":487758393},{"NoteNumber":33,"Velocity":59,"Duration":466210,"SoundDuration":466210,"Delta":487758393},{"NoteNumber":51,"Velocity":72,"Duration":116058,"SoundDuration":116058,"Delta":487873845},{"NoteNumber":50,"Velocity":71,"Duration":116921,"SoundDuration":116921,"Delta":487989903},{"NoteNumber":48,"Velocity":70,"Duration":117778,"SoundDuration":117778,"Delta":488106824},{"NoteNumber":30,"Velocity":64,"Duration":463953,"SoundDuration":463953,"Delta":488224603},{"NoteNumber":42,"Velocity":73,"Duration":463953,"SoundDuration":463953,"Delta":488224603},{"NoteNumber":86,"Velocity":90,"Duration":113114,"SoundDuration":113114,"Delta":488461683},{"NoteNumber":84,"Velocity":82,"Duration":113759,"SoundDuration":113759,"Delta":488574798},{"NoteNumber":82,"Velocity":81,"Duration":114570,"SoundDuration":114570,"Delta":488688557},{"NoteNumber":43,"Velocity":65,"Duration":463386,"SoundDuration":463386,"Delta":488688557},{"NoteNumber":31,"Velocity":57,"Duration":463386,"SoundDuration":463386,"Delta":488688557},{"NoteNumber":81,"Velocity":80,"Duration":115392,"SoundDuration":115392,"Delta":488803127},{"NoteNumber":79,"Velocity":79,"Duration":116227,"SoundDuration":116227,"Delta":488918520},{"NoteNumber":78,"Velocity":78,"Duration":117196,"SoundDuration":117196,"Delta":489034747},{"NoteNumber":45,"Velocity":65,"Duration":462133,"SoundDuration":462133,"Delta":489151943},{"NoteNumber":33,"Velocity":57,"Duration":462133,"SoundDuration":462133,"Delta":489151943},{"NoteNumber":62,"Velocity":82,"Duration":114395,"SoundDuration":114395,"Delta":489387237},{"NoteNumber":61,"Velocity":73,"Duration":112444,"SoundDuration":112444,"Delta":489501632},{"NoteNumber":60,"Velocity":72,"Duration":113236,"SoundDuration":113236,"Delta":489614077},{"NoteNumber":43,"Velocity":72,"Duration":458182,"SoundDuration":458182,"Delta":489614077},{"NoteNumber":31,"Velocity":63,"Duration":458182,"SoundDuration":458182,"Delta":489614077},{"NoteNumber":58,"Velocity":72,"Duration":114040,"SoundDuration":114040,"Delta":489727314},{"NoteNumber":57,"Velocity":71,"Duration":114855,"SoundDuration":114855,"Delta":489841354},{"NoteNumber":55,"Velocity":70,"Duration":116050,"SoundDuration":116050,"Delta":489956209},{"NoteNumber":33,"Velocity":57,"Duration":466114,"SoundDuration":466114,"Delta":490072260},{"NoteNumber":45,"Velocity":65,"Duration":466114,"SoundDuration":466114,"Delta":490072260},{"NoteNumber":75,"Velocity":92,"Duration":113823,"SoundDuration":113823,"Delta":490310155},{"NoteNumber":74,"Velocity":82,"Duration":114395,"SoundDuration":114395,"Delta":490423978},{"NoteNumber":72,"Velocity":81,"Duration":115078,"SoundDuration":115078,"Delta":490538374},{"NoteNumber":34,"Velocity":69,"Duration":115078,"SoundDuration":115078,"Delta":490538374},{"NoteNumber":70,"Velocity":80,"Duration":115838,"SoundDuration":115838,"Delta":490653452},{"NoteNumber":46,"Velocity":65,"Duration":115838,"SoundDuration":115838,"Delta":490653452},{"NoteNumber":69,"Velocity":79,"Duration":116478,"SoundDuration":116478,"Delta":490769291},{"NoteNumber":48,"Velocity":65,"Duration":116478,"SoundDuration":116478,"Delta":490769291},{"NoteNumber":67,"Velocity":78,"Duration":117318,"SoundDuration":117318,"Delta":490885770},{"NoteNumber":46,"Velocity":61,"Duration":117318,"SoundDuration":117318,"Delta":490885770},{"NoteNumber":65,"Velocity":78,"Duration":117646,"SoundDuration":117646,"Delta":491003088},{"NoteNumber":45,"Velocity":65,"Duration":117646,"SoundDuration":117646,"Delta":491003088},{"NoteNumber":64,"Velocity":78,"Duration":122449,"SoundDuration":122449,"Delta":491120735},{"NoteNumber":43,"Velocity":69,"Duration":122449,"SoundDuration":122449,"Delta":491120735},{"NoteNumber":70,"Velocity":88,"Duration":232557,"SoundDuration":232557,"Delta":491243184},{"NoteNumber":62,"Velocity":88,"Duration":116279,"SoundDuration":116279,"Delta":491243184},{"NoteNumber":41,"Velocity":69,"Duration":116279,"SoundDuration":116279,"Delta":491243184},{"NoteNumber":60,"Velocity":81,"Duration":116278,"SoundDuration":116278,"Delta":491359463},{"NoteNumber":40,"Velocity":69,"Duration":116278,"SoundDuration":116278,"Delta":491359463},{"NoteNumber":58,"Velocity":80,"Duration":116279,"SoundDuration":116279,"Delta":491475742},{"NoteNumber":43,"Velocity":69,"Duration":116279,"SoundDuration":116279,"Delta":491475742},{"NoteNumber":57,"Velocity":80,"Duration":116279,"SoundDuration":116279,"Delta":491592021},{"NoteNumber":41,"Velocity":65,"Duration":116279,"SoundDuration":116279,"Delta":491592021},{"NoteNumber":55,"Velocity":79,"Duration":116278,"SoundDuration":116278,"Delta":491708300},{"NoteNumber":52,"Velocity":65,"Duration":116278,"SoundDuration":116278,"Delta":491708300},{"NoteNumber":53,"Velocity":78,"Duration":116279,"SoundDuration":116279,"Delta":491824579},{"NoteNumber":50,"Velocity":65,"Duration":116279,"SoundDuration":116279,"Delta":491824579},{"NoteNumber":52,"Velocity":77,"Duration":116279,"SoundDuration":116279,"Delta":491940858},{"NoteNumber":48,"Velocity":65,"Duration":116279,"SoundDuration":116279,"Delta":491940858},{"NoteNumber":50,"Velocity":75,"Duration":121951,"SoundDuration":121951,"Delta":492057137},{"NoteNumber":46,"Velocity":63,"Duration":121951,"SoundDuration":121951,"Delta":492057137},{"NoteNumber":60,"Velocity":78,"Duration":115384,"SoundDuration":115384,"Delta":492179088},{"NoteNumber":45,"Velocity":65,"Duration":115384,"SoundDuration":115384,"Delta":492179088},{"NoteNumber":58,"Velocity":74,"Duration":115384,"SoundDuration":115384,"Delta":492294472},{"NoteNumber":43,"Velocity":60,"Duration":115384,"SoundDuration":115384,"Delta":492294472},{"NoteNumber":57,"Velocity":80,"Duration":115384,"SoundDuration":115384,"Delta":492409857},{"NoteNumber":41,"Velocity":69,"Duration":115384,"SoundDuration":115384,"Delta":492409857},{"NoteNumber":55,"Velocity":82,"Duration":115384,"SoundDuration":115384,"Delta":492525241},{"NoteNumber":40,"Velocity":71,"Duration":115384,"SoundDuration":115384,"Delta":492525241},{"NoteNumber":53,"Velocity":86,"Duration":115384,"SoundDuration":115384,"Delta":492640626},{"NoteNumber":38,"Velocity":73,"Duration":115384,"SoundDuration":115384,"Delta":492640626},{"NoteNumber":52,"Velocity":89,"Duration":124481,"SoundDuration":124481,"Delta":492756010},{"NoteNumber":36,"Velocity":75,"Duration":124481,"SoundDuration":124481,"Delta":492756010},{"NoteNumber":58,"Velocity":95,"Duration":230769,"SoundDuration":230769,"Delta":492880492},{"NoteNumber":50,"Velocity":95,"Duration":115384,"SoundDuration":115384,"Delta":492880492},{"NoteNumber":48,"Velocity":87,"Duration":115384,"SoundDuration":115384,"Delta":492995876},{"NoteNumber":52,"Velocity":81,"Duration":115384,"SoundDuration":115384,"Delta":493111261},{"NoteNumber":55,"Velocity":85,"Duration":115775,"SoundDuration":115775,"Delta":493226645},{"NoteNumber":46,"Velocity":80,"Duration":232773,"SoundDuration":232773,"Delta":493342420},{"NoteNumber":43,"Velocity":71,"Duration":77965,"SoundDuration":77965,"Delta":493342420},{"NoteNumber":45,"Velocity":65,"Duration":77602,"SoundDuration":77602,"Delta":493420386},{"NoteNumber":43,"Velocity":71,"Duration":77205,"SoundDuration":77205,"Delta":493497988},{"NoteNumber":45,"Velocity":65,"Duration":76923,"SoundDuration":76923,"Delta":493575193},{"NoteNumber":43,"Velocity":71,"Duration":77078,"SoundDuration":77078,"Delta":493652116},{"NoteNumber":45,"Velocity":66,"Duration":77317,"SoundDuration":77317,"Delta":493729195},{"NoteNumber":64,"Velocity":80,"Duration":77798,"SoundDuration":77798,"Delta":493806512},{"NoteNumber":43,"Velocity":71,"Duration":77798,"SoundDuration":77798,"Delta":493806512},{"NoteNumber":65,"Velocity":74,"Duration":77602,"SoundDuration":77602,"Delta":493884311},{"NoteNumber":45,"Velocity":65,"Duration":77602,"SoundDuration":77602,"Delta":493884311},{"NoteNumber":64,"Velocity":80,"Duration":77205,"SoundDuration":77205,"Delta":493961913},{"NoteNumber":43,"Velocity":71,"Duration":77205,"SoundDuration":77205,"Delta":493961913},{"NoteNumber":65,"Velocity":74,"Duration":76922,"SoundDuration":76922,"Delta":494039118},{"NoteNumber":45,"Velocity":66,"Duration":76922,"SoundDuration":76922,"Delta":494039118},{"NoteNumber":64,"Velocity":80,"Duration":76613,"SoundDuration":76613,"Delta":494116041},{"NoteNumber":43,"Velocity":71,"Duration":76613,"SoundDuration":76613,"Delta":494116041},{"NoteNumber":65,"Velocity":75,"Duration":75709,"SoundDuration":75709,"Delta":494192655},{"NoteNumber":45,"Velocity":66,"Duration":75709,"SoundDuration":75709,"Delta":494192655},{"NoteNumber":64,"Velocity":80,"Duration":75471,"SoundDuration":75471,"Delta":494268365},{"NoteNumber":41,"Velocity":88,"Duration":463734,"SoundDuration":463734,"Delta":494268365},{"NoteNumber":65,"Velocity":73,"Duration":75564,"SoundDuration":75564,"Delta":494343836},{"NoteNumber":64,"Velocity":82,"Duration":75793,"SoundDuration":75793,"Delta":494419401},{"NoteNumber":65,"Velocity":74,"Duration":57518,"SoundDuration":57518,"Delta":494495194},{"NoteNumber":64,"Velocity":80,"Duration":58779,"SoundDuration":58779,"Delta":494552713},{"NoteNumber":62,"Velocity":73,"Duration":60122,"SoundDuration":60122,"Delta":494611493},{"NoteNumber":64,"Velocity":73,"Duration":60483,"SoundDuration":60483,"Delta":494671615},{"NoteNumber":65,"Velocity":86,"Duration":461538,"SoundDuration":461538,"Delta":494732099},{"NoteNumber":41,"Velocity":75,"Duration":115384,"SoundDuration":115384,"Delta":494962868},{"NoteNumber":43,"Velocity":68,"Duration":115384,"SoundDuration":115384,"Delta":495078252},{"NoteNumber":45,"Velocity":75,"Duration":115384,"SoundDuration":115384,"Delta":495193637},{"NoteNumber":46,"Velocity":74,"Duration":115384,"SoundDuration":115384,"Delta":495309021},{"NoteNumber":65,"Velocity":78,"Duration":115384,"SoundDuration":115384,"Delta":495424406},{"NoteNumber":48,"Velocity":74,"Duration":115384,"SoundDuration":115384,"Delta":495424406},{"NoteNumber":64,"Velocity":74,"Duration":115384,"SoundDuration":115384,"Delta":495539790},{"NoteNumber":50,"Velocity":74,"Duration":115384,"SoundDuration":115384,"Delta":495539790},{"NoteNumber":62,"Velocity":80,"Duration":115384,"SoundDuration":115384,"Delta":495655175},{"NoteNumber":45,"Velocity":87,"Duration":469610,"SoundDuration":469610,"Delta":495655175},{"NoteNumber":60,"Velocity":74,"Duration":115384,"SoundDuration":115384,"Delta":495770559},{"NoteNumber":58,"Velocity":74,"Duration":115384,"SoundDuration":115384,"Delta":495885944},{"NoteNumber":57,"Velocity":74,"Duration":123456,"SoundDuration":123456,"Delta":496001328},{"NoteNumber":62,"Velocity":88,"Duration":461538,"SoundDuration":461538,"Delta":496124785},{"NoteNumber":45,"Velocity":75,"Duration":115384,"SoundDuration":115384,"Delta":496355554},{"NoteNumber":46,"Velocity":68,"Duration":115384,"SoundDuration":115384,"Delta":496470939},{"NoteNumber":48,"Velocity":75,"Duration":115384,"SoundDuration":115384,"Delta":496586323},{"NoteNumber":50,"Velocity":74,"Duration":115384,"SoundDuration":115384,"Delta":496701708},{"NoteNumber":62,"Velocity":78,"Duration":115384,"SoundDuration":115384,"Delta":496817092},{"NoteNumber":52,"Velocity":74,"Duration":115384,"SoundDuration":115384,"Delta":496817092},{"NoteNumber":60,"Velocity":74,"Duration":115384,"SoundDuration":115384,"Delta":496932477},{"NoteNumber":53,"Velocity":74,"Duration":115384,"SoundDuration":115384,"Delta":496932477},{"NoteNumber":58,"Velocity":80,"Duration":115384,"SoundDuration":115384,"Delta":497047861},{"NoteNumber":48,"Velocity":87,"Duration":469610,"SoundDuration":469610,"Delta":497047861},{"NoteNumber":57,"Velocity":74,"Duration":115384,"SoundDuration":115384,"Delta":497163246},{"NoteNumber":55,"Velocity":74,"Duration":115384,"SoundDuration":115384,"Delta":497278630},{"NoteNumber":53,"Velocity":74,"Duration":123456,"SoundDuration":123456,"Delta":497394015},{"NoteNumber":58,"Velocity":88,"Duration":461538,"SoundDuration":461538,"Delta":497517471},{"NoteNumber":48,"Velocity":67,"Duration":115384,"SoundDuration":115384,"Delta":497748240},{"NoteNumber":50,"Velocity":63,"Duration":115384,"SoundDuration":115384,"Delta":497863625},{"NoteNumber":52,"Velocity":73,"Duration":115384,"SoundDuration":115384,"Delta":497979009},{"NoteNumber":50,"Velocity":63,"Duration":115384,"SoundDuration":115384,"Delta":498094394},{"NoteNumber":70,"Velocity":78,"Duration":115384,"SoundDuration":115384,"Delta":498209778},{"NoteNumber":52,"Velocity":63,"Duration":115384,"SoundDuration":115384,"Delta":498209778},{"NoteNumber":69,"Velocity":72,"Duration":120481,"SoundDuration":120481,"Delta":498325163},{"NoteNumber":53,"Velocity":63,"Duration":120481,"SoundDuration":120481,"Delta":498325163},{"NoteNumber":67,"Velocity":90,"Duration":115384,"SoundDuration":115384,"Delta":498445645},{"NoteNumber":55,"Velocity":74,"Duration":115384,"SoundDuration":115384,"Delta":498445645},{"NoteNumber":69,"Velocity":73,"Duration":115384,"SoundDuration":115384,"Delta":498561029},{"NoteNumber":53,"Velocity":63,"Duration":115384,"SoundDuration":115384,"Delta":498561029},{"NoteNumber":67,"Velocity":73,"Duration":115384,"SoundDuration":115384,"Delta":498676414},{"NoteNumber":55,"Velocity":63,"Duration":115384,"SoundDuration":115384,"Delta":498676414},{"NoteNumber":65,"Velocity":73,"Duration":120481,"SoundDuration":120481,"Delta":498791798},{"NoteNumber":57,"Velocity":63,"Duration":120481,"SoundDuration":120481,"Delta":498791798},{"NoteNumber":64,"Velocity":89,"Duration":115384,"SoundDuration":115384,"Delta":498912280},{"NoteNumber":58,"Velocity":74,"Duration":115384,"SoundDuration":115384,"Delta":498912280},{"NoteNumber":65,"Velocity":74,"Duration":115384,"SoundDuration":115384,"Delta":499027665},{"NoteNumber":57,"Velocity":62,"Duration":115384,"SoundDuration":115384,"Delta":499027665},{"NoteNumber":64,"Velocity":74,"Duration":115384,"SoundDuration":115384,"Delta":499143049},{"NoteNumber":55,"Velocity":62,"Duration":115384,"SoundDuration":115384,"Delta":499143049},{"NoteNumber":62,"Velocity":74,"Duration":120000,"SoundDuration":120000,"Delta":499258434},{"NoteNumber":57,"Velocity":62,"Duration":120000,"SoundDuration":120000,"Delta":499258434},{"NoteNumber":60,"Velocity":90,"Duration":115830,"SoundDuration":115830,"Delta":499378434},{"NoteNumber":58,"Velocity":73,"Duration":115830,"SoundDuration":115830,"Delta":499378434},{"NoteNumber":62,"Velocity":73,"Duration":115829,"SoundDuration":115829,"Delta":499494264},{"NoteNumber":57,"Velocity":61,"Duration":115829,"SoundDuration":115829,"Delta":499494264},{"NoteNumber":64,"Velocity":73,"Duration":115830,"SoundDuration":115830,"Delta":499610094},{"NoteNumber":55,"Velocity":62,"Duration":115830,"SoundDuration":115830,"Delta":499610094},{"NoteNumber":65,"Velocity":73,"Duration":120481,"SoundDuration":120481,"Delta":499725924},{"NoteNumber":53,"Velocity":62,"Duration":120481,"SoundDuration":120481,"Delta":499725924},{"NoteNumber":66,"Velocity":88,"Duration":116279,"SoundDuration":116279,"Delta":499846406},{"NoteNumber":52,"Velocity":74,"Duration":116279,"SoundDuration":116279,"Delta":499846406},{"NoteNumber":67,"Velocity":73,"Duration":116278,"SoundDuration":116278,"Delta":499962685},{"NoteNumber":50,"Velocity":62,"Duration":116278,"SoundDuration":116278,"Delta":499962685},{"NoteNumber":69,"Velocity":73,"Duration":116279,"SoundDuration":116279,"Delta":500078964},{"NoteNumber":48,"Velocity":62,"Duration":116279,"SoundDuration":116279,"Delta":500078964},{"NoteNumber":67,"Velocity":73,"Duration":120481,"SoundDuration":120481,"Delta":500195243},{"NoteNumber":50,"Velocity":62,"Duration":120481,"SoundDuration":120481,"Delta":500195243},{"NoteNumber":65,"Velocity":87,"Duration":116279,"SoundDuration":116279,"Delta":500315725},{"NoteNumber":51,"Velocity":73,"Duration":116279,"SoundDuration":116279,"Delta":500315725},{"NoteNumber":67,"Velocity":75,"Duration":116278,"SoundDuration":116278,"Delta":500432004},{"NoteNumber":50,"Velocity":62,"Duration":116278,"SoundDuration":116278,"Delta":500432004},{"NoteNumber":69,"Velocity":75,"Duration":116279,"SoundDuration":116279,"Delta":500548283},{"NoteNumber":48,"Velocity":62,"Duration":116279,"SoundDuration":116279,"Delta":500548283},{"NoteNumber":70,"Velocity":75,"Duration":121457,"SoundDuration":121457,"Delta":500664562},{"NoteNumber":46,"Velocity":62,"Duration":121457,"SoundDuration":121457,"Delta":500664562},{"NoteNumber":71,"Velocity":89,"Duration":115830,"SoundDuration":115830,"Delta":500786019},{"NoteNumber":50,"Velocity":76,"Duration":115830,"SoundDuration":115830,"Delta":500786019},{"NoteNumber":72,"Velocity":73,"Duration":115829,"SoundDuration":115829,"Delta":500901849},{"NoteNumber":48,"Velocity":62,"Duration":115829,"SoundDuration":115829,"Delta":500901849},{"NoteNumber":74,"Velocity":73,"Duration":115830,"SoundDuration":115830,"Delta":501017679},{"NoteNumber":46,"Velocity":62,"Duration":115830,"SoundDuration":115830,"Delta":501017679},{"NoteNumber":72,"Velocity":73,"Duration":122950,"SoundDuration":122950,"Delta":501133509},{"NoteNumber":45,"Velocity":62,"Duration":122950,"SoundDuration":122950,"Delta":501133509},{"NoteNumber":74,"Velocity":94,"Duration":115384,"SoundDuration":115384,"Delta":501256460},{"NoteNumber":75,"Velocity":94,"Duration":230769,"SoundDuration":230769,"Delta":501256460},{"NoteNumber":46,"Velocity":73,"Duration":115384,"SoundDuration":115384,"Delta":501256460},{"NoteNumber":72,"Velocity":73,"Duration":115384,"SoundDuration":115384,"Delta":501371845},{"NoteNumber":45,"Velocity":63,"Duration":115384,"SoundDuration":115384,"Delta":501371845},{"NoteNumber":70,"Velocity":73,"Duration":115384,"SoundDuration":115384,"Delta":501487229},{"NoteNumber":43,"Velocity":63,"Duration":115384,"SoundDuration":115384,"Delta":501487229},{"NoteNumber":69,"Velocity":73,"Duration":115654,"SoundDuration":115654,"Delta":501602614},{"NoteNumber":41,"Velocity":63,"Duration":115654,"SoundDuration":115654,"Delta":501602614},{"NoteNumber":60,"Velocity":85,"Duration":77946,"SoundDuration":77946,"Delta":501718269},{"NoteNumber":51,"Velocity":78,"Duration":929743,"SoundDuration":929743,"Delta":501718269},{"NoteNumber":62,"Velocity":78,"Duration":77429,"SoundDuration":77429,"Delta":501796215},{"NoteNumber":60,"Velocity":85,"Duration":76941,"SoundDuration":76941,"Delta":501873645},{"NoteNumber":62,"Velocity":80,"Duration":77253,"SoundDuration":77253,"Delta":501950586},{"NoteNumber":29,"Velocity":98,"Duration":232810,"SoundDuration":232810,"Delta":501950586},{"NoteNumber":60,"Velocity":85,"Duration":77572,"SoundDuration":77572,"Delta":502027840},{"NoteNumber":62,"Velocity":78,"Duration":77984,"SoundDuration":77984,"Delta":502105412},{"NoteNumber":60,"Velocity":85,"Duration":78125,"SoundDuration":78125,"Delta":502183396},{"NoteNumber":45,"Velocity":72,"Duration":78125,"SoundDuration":78125,"Delta":502183396},{"NoteNumber":62,"Velocity":80,"Duration":77931,"SoundDuration":77931,"Delta":502261521},{"NoteNumber":46,"Velocity":65,"Duration":77931,"SoundDuration":77931,"Delta":502261521},{"NoteNumber":60,"Velocity":85,"Duration":77609,"SoundDuration":77609,"Delta":502339453},{"NoteNumber":45,"Velocity":72,"Duration":77609,"SoundDuration":77609,"Delta":502339453},{"NoteNumber":62,"Velocity":73,"Duration":77294,"SoundDuration":77294,"Delta":502417062},{"NoteNumber":46,"Velocity":64,"Duration":77294,"SoundDuration":77294,"Delta":502417062},{"NoteNumber":60,"Velocity":82,"Duration":76982,"SoundDuration":76982,"Delta":502494357},{"NoteNumber":45,"Velocity":72,"Duration":76982,"SoundDuration":76982,"Delta":502494357},{"NoteNumber":62,"Velocity":73,"Duration":76672,"SoundDuration":76672,"Delta":502571340},{"NoteNumber":46,"Velocity":64,"Duration":76672,"SoundDuration":76672,"Delta":502571340},{"NoteNumber":58,"Velocity":78,"Duration":470544,"SoundDuration":470544,"Delta":502648012},{"NoteNumber":45,"Velocity":72,"Duration":76176,"SoundDuration":76176,"Delta":502648012},{"NoteNumber":50,"Velocity":72,"Duration":470544,"SoundDuration":470544,"Delta":502648012},{"NoteNumber":46,"Velocity":65,"Duration":76525,"SoundDuration":76525,"Delta":502724189},{"NoteNumber":45,"Velocity":72,"Duration":77034,"SoundDuration":77034,"Delta":502800715},{"NoteNumber":46,"Velocity":70,"Duration":58064,"SoundDuration":58064,"Delta":502877749},{"NoteNumber":45,"Velocity":63,"Duration":59073,"SoundDuration":59073,"Delta":502935814},{"NoteNumber":43,"Velocity":63,"Duration":61170,"SoundDuration":61170,"Delta":502994887},{"NoteNumber":45,"Velocity":63,"Duration":62500,"SoundDuration":62500,"Delta":503056057},{"NoteNumber":46,"Velocity":84,"Duration":575268,"SoundDuration":575268,"Delta":503118557},{"NoteNumber":58,"Velocity":65,"Duration":120967,"SoundDuration":120967,"Delta":503451891},{"NoteNumber":60,"Velocity":60,"Duration":120967,"SoundDuration":120967,"Delta":503572858},{"NoteNumber":62,"Velocity":68,"Duration":117646,"SoundDuration":117646,"Delta":503693826},{"NoteNumber":63,"Velocity":60,"Duration":117647,"SoundDuration":117647,"Delta":503811473},{"NoteNumber":62,"Velocity":60,"Duration":117646,"SoundDuration":117646,"Delta":503929120},{"NoteNumber":65,"Velocity":60,"Duration":117646,"SoundDuration":117646,"Delta":503929120},{"NoteNumber":46,"Velocity":60,"Duration":117646,"SoundDuration":117646,"Delta":503929120},{"NoteNumber":60,"Velocity":60,"Duration":126582,"SoundDuration":126582,"Delta":504046767},{"NoteNumber":67,"Velocity":60,"Duration":126582,"SoundDuration":126582,"Delta":504046767},{"NoteNumber":45,"Velocity":54,"Duration":126582,"SoundDuration":126582,"Delta":504046767},{"NoteNumber":58,"Velocity":60,"Duration":117646,"SoundDuration":117646,"Delta":504173349},{"NoteNumber":63,"Velocity":72,"Duration":473388,"SoundDuration":473388,"Delta":504173349},{"NoteNumber":43,"Velocity":60,"Duration":117646,"SoundDuration":117646,"Delta":504173349},{"NoteNumber":57,"Velocity":60,"Duration":117647,"SoundDuration":117647,"Delta":504290996},{"NoteNumber":41,"Velocity":53,"Duration":117647,"SoundDuration":117647,"Delta":504290996},{"NoteNumber":55,"Velocity":60,"Duration":119047,"SoundDuration":119047,"Delta":504408643},{"NoteNumber":39,"Velocity":53,"Duration":119047,"SoundDuration":119047,"Delta":504408643},{"NoteNumber":53,"Velocity":60,"Duration":119047,"SoundDuration":119047,"Delta":504527691},{"NoteNumber":38,"Velocity":53,"Duration":119047,"SoundDuration":119047,"Delta":504527691},{"NoteNumber":58,"Velocity":72,"Duration":474315,"SoundDuration":474315,"Delta":504646738},{"NoteNumber":43,"Velocity":65,"Duration":474315,"SoundDuration":474315,"Delta":504646738},{"NoteNumber":62,"Velocity":65,"Duration":118110,"SoundDuration":118110,"Delta":504884833},{"NoteNumber":63,"Velocity":56,"Duration":118110,"SoundDuration":118110,"Delta":505002944},{"NoteNumber":65,"Velocity":66,"Duration":116279,"SoundDuration":116279,"Delta":505121054},{"NoteNumber":67,"Velocity":60,"Duration":116278,"SoundDuration":116278,"Delta":505237333},{"NoteNumber":58,"Velocity":60,"Duration":358989,"SoundDuration":358989,"Delta":505353612},{"NoteNumber":69,"Velocity":60,"Duration":116279,"SoundDuration":116279,"Delta":505353612},{"NoteNumber":43,"Velocity":60,"Duration":116279,"SoundDuration":116279,"Delta":505353612},{"NoteNumber":70,"Velocity":60,"Duration":125522,"SoundDuration":125522,"Delta":505469891},{"NoteNumber":41,"Velocity":54,"Duration":125522,"SoundDuration":125522,"Delta":505469891},{"NoteNumber":67,"Velocity":74,"Duration":473418,"SoundDuration":473418,"Delta":505595414},{"NoteNumber":39,"Velocity":60,"Duration":117187,"SoundDuration":117187,"Delta":505595414},{"NoteNumber":59,"Velocity":60,"Duration":117187,"SoundDuration":117187,"Delta":505712601},{"NoteNumber":38,"Velocity":53,"Duration":117187,"SoundDuration":117187,"Delta":505712601},{"NoteNumber":60,"Velocity":60,"Duration":119522,"SoundDuration":119522,"Delta":505829789},{"NoteNumber":36,"Velocity":53,"Duration":119522,"SoundDuration":119522,"Delta":505829789},{"NoteNumber":62,"Velocity":60,"Duration":119521,"SoundDuration":119521,"Delta":505949311},{"NoteNumber":35,"Velocity":53,"Duration":119521,"SoundDuration":119521,"Delta":505949311},{"NoteNumber":63,"Velocity":72,"Duration":465144,"SoundDuration":465144,"Delta":506068833},{"NoteNumber":36,"Velocity":65,"Duration":465144,"SoundDuration":465144,"Delta":506068833},{"NoteNumber":65,"Velocity":66,"Duration":115384,"SoundDuration":115384,"Delta":506303208},{"NoteNumber":67,"Velocity":60,"Duration":115384,"SoundDuration":115384,"Delta":506418592},{"NoteNumber":69,"Velocity":71,"Duration":115830,"SoundDuration":115830,"Delta":506533977},{"NoteNumber":67,"Velocity":62,"Duration":115829,"SoundDuration":115829,"Delta":506649807},{"NoteNumber":63,"Velocity":55,"Duration":463320,"SoundDuration":463320,"Delta":506765637},{"NoteNumber":69,"Velocity":62,"Duration":115830,"SoundDuration":115830,"Delta":506765637},{"NoteNumber":51,"Velocity":60,"Duration":115830,"SoundDuration":115830,"Delta":506765637},{"NoteNumber":70,"Velocity":62,"Duration":115830,"SoundDuration":115830,"Delta":506881467},{"NoteNumber":50,"Velocity":53,"Duration":115830,"SoundDuration":115830,"Delta":506881467},{"NoteNumber":72,"Velocity":72,"Duration":115830,"SoundDuration":115830,"Delta":506997297},{"NoteNumber":48,"Velocity":60,"Duration":115830,"SoundDuration":115830,"Delta":506997297},{"NoteNumber":70,"Velocity":65,"Duration":115829,"SoundDuration":115829,"Delta":507113127},{"NoteNumber":50,"Velocity":53,"Duration":115829,"SoundDuration":115829,"Delta":507113127},{"NoteNumber":64,"Velocity":59,"Duration":472354,"SoundDuration":472354,"Delta":507228957},{"NoteNumber":72,"Velocity":65,"Duration":115830,"SoundDuration":115830,"Delta":507228957},{"NoteNumber":48,"Velocity":53,"Duration":115830,"SoundDuration":115830,"Delta":507228957},{"NoteNumber":74,"Velocity":65,"Duration":123966,"SoundDuration":123966,"Delta":507344787},{"NoteNumber":46,"Velocity":53,"Duration":123966,"SoundDuration":123966,"Delta":507344787},{"NoteNumber":75,"Velocity":78,"Duration":116279,"SoundDuration":116279,"Delta":507468754},{"NoteNumber":45,"Velocity":64,"Duration":116279,"SoundDuration":116279,"Delta":507468754},{"NoteNumber":74,"Velocity":69,"Duration":116278,"SoundDuration":116278,"Delta":507585033},{"NoteNumber":46,"Velocity":58,"Duration":116278,"SoundDuration":116278,"Delta":507585033},{"NoteNumber":65,"Velocity":60,"Duration":940634,"SoundDuration":940634,"Delta":507701312},{"NoteNumber":72,"Velocity":72,"Duration":116279,"SoundDuration":116279,"Delta":507701312},{"NoteNumber":45,"Velocity":61,"Duration":116279,"SoundDuration":116279,"Delta":507701312},{"NoteNumber":74,"Velocity":75,"Duration":123966,"SoundDuration":123966,"Delta":507817591},{"NoteNumber":43,"Velocity":64,"Duration":123966,"SoundDuration":123966,"Delta":507817591},{"NoteNumber":75,"Velocity":86,"Duration":116731,"SoundDuration":116731,"Delta":507941558},{"NoteNumber":41,"Velocity":72,"Duration":116731,"SoundDuration":116731,"Delta":507941558},{"NoteNumber":74,"Velocity":76,"Duration":116731,"SoundDuration":116731,"Delta":508058289},{"NoteNumber":43,"Velocity":60,"Duration":116731,"SoundDuration":116731,"Delta":508058289},{"NoteNumber":73,"Velocity":73,"Duration":116731,"SoundDuration":116731,"Delta":508175021},{"NoteNumber":45,"Velocity":60,"Duration":116731,"SoundDuration":116731,"Delta":508175021},{"NoteNumber":72,"Velocity":72,"Duration":116731,"SoundDuration":116731,"Delta":508291752},{"NoteNumber":46,"Velocity":60,"Duration":116731,"SoundDuration":116731,"Delta":508291752},{"NoteNumber":70,"Velocity":77,"Duration":116731,"SoundDuration":116731,"Delta":508408484},{"NoteNumber":48,"Velocity":68,"Duration":116731,"SoundDuration":116731,"Delta":508408484},{"NoteNumber":69,"Velocity":64,"Duration":116731,"SoundDuration":116731,"Delta":508525215},{"NoteNumber":49,"Velocity":56,"Duration":116731,"SoundDuration":116731,"Delta":508525215},{"NoteNumber":63,"Velocity":54,"Duration":236220,"SoundDuration":236220,"Delta":508641947},{"NoteNumber":67,"Velocity":63,"Duration":118110,"SoundDuration":118110,"Delta":508641947},{"NoteNumber":50,"Velocity":56,"Duration":118110,"SoundDuration":118110,"Delta":508641947},{"NoteNumber":69,"Velocity":64,"Duration":118110,"SoundDuration":118110,"Delta":508760057},{"NoteNumber":48,"Velocity":56,"Duration":118110,"SoundDuration":118110,"Delta":508760057},{"NoteNumber":62,"Velocity":63,"Duration":469672,"SoundDuration":469672,"Delta":508878167},{"NoteNumber":70,"Velocity":74,"Duration":118110,"SoundDuration":118110,"Delta":508878167},{"NoteNumber":46,"Velocity":66,"Duration":118110,"SoundDuration":118110,"Delta":508878167},{"NoteNumber":69,"Velocity":63,"Duration":117187,"SoundDuration":117187,"Delta":508996278},{"NoteNumber":48,"Velocity":57,"Duration":117187,"SoundDuration":117187,"Delta":508996278},{"NoteNumber":67,"Velocity":62,"Duration":117187,"SoundDuration":117187,"Delta":509113465},{"NoteNumber":50,"Velocity":57,"Duration":117187,"SoundDuration":117187,"Delta":509113465},{"NoteNumber":65,"Velocity":62,"Duration":253551,"SoundDuration":253551,"Delta":509230653},{"NoteNumber":51,"Velocity":57,"Duration":117187,"SoundDuration":117187,"Delta":509230653},{"NoteNumber":60,"Velocity":65,"Duration":253095,"SoundDuration":253095,"Delta":509347840},{"NoteNumber":52,"Velocity":60,"Duration":136363,"SoundDuration":136363,"Delta":509347840},{"NoteNumber":78,"Velocity":68,"Duration":116731,"SoundDuration":116731,"Delta":509484204},{"NoteNumber":51,"Velocity":55,"Duration":116731,"SoundDuration":116731,"Delta":509484204},{"NoteNumber":79,"Velocity":74,"Duration":116731,"SoundDuration":116731,"Delta":509600935},{"NoteNumber":50,"Velocity":60,"Duration":116731,"SoundDuration":116731,"Delta":509600935},{"NoteNumber":77,"Velocity":69,"Duration":116731,"SoundDuration":116731,"Delta":509717667},{"NoteNumber":51,"Velocity":54,"Duration":116731,"SoundDuration":116731,"Delta":509717667},{"NoteNumber":75,"Velocity":71,"Duration":116731,"SoundDuration":116731,"Delta":509834398},{"NoteNumber":53,"Velocity":59,"Duration":116731,"SoundDuration":116731,"Delta":509834398},{"NoteNumber":74,"Velocity":64,"Duration":116731,"SoundDuration":116731,"Delta":509951130},{"NoteNumber":55,"Velocity":56,"Duration":116731,"SoundDuration":116731,"Delta":509951130},{"NoteNumber":72,"Velocity":67,"Duration":116731,"SoundDuration":116731,"Delta":510067861},{"NoteNumber":57,"Velocity":61,"Duration":116731,"SoundDuration":116731,"Delta":510067861},{"NoteNumber":70,"Velocity":69,"Duration":123966,"SoundDuration":123966,"Delta":510184593},{"NoteNumber":58,"Velocity":57,"Duration":123966,"SoundDuration":123966,"Delta":510184593},{"NoteNumber":69,"Velocity":74,"Duration":115830,"SoundDuration":115830,"Delta":510308560},{"NoteNumber":60,"Velocity":63,"Duration":115830,"SoundDuration":115830,"Delta":510308560},{"NoteNumber":70,"Velocity":65,"Duration":115829,"SoundDuration":115829,"Delta":510424390},{"NoteNumber":58,"Velocity":60,"Duration":115829,"SoundDuration":115829,"Delta":510424390},{"NoteNumber":69,"Velocity":67,"Duration":115830,"SoundDuration":115830,"Delta":510540220},{"NoteNumber":60,"Velocity":66,"Duration":115830,"SoundDuration":115830,"Delta":510540220},{"NoteNumber":67,"Velocity":68,"Duration":127659,"SoundDuration":127659,"Delta":510656050},{"NoteNumber":62,"Velocity":62,"Duration":127659,"SoundDuration":127659,"Delta":510656050},{"NoteNumber":65,"Velocity":81,"Duration":116279,"SoundDuration":116279,"Delta":510783709},{"NoteNumber":63,"Velocity":68,"Duration":116279,"SoundDuration":116279,"Delta":510783709},{"NoteNumber":67,"Velocity":71,"Duration":116278,"SoundDuration":116278,"Delta":510899988},{"NoteNumber":62,"Velocity":63,"Duration":116278,"SoundDuration":116278,"Delta":510899988},{"NoteNumber":69,"Velocity":71,"Duration":116279,"SoundDuration":116279,"Delta":511016267},{"NoteNumber":61,"Velocity":62,"Duration":116279,"SoundDuration":116279,"Delta":511016267},{"NoteNumber":70,"Velocity":71,"Duration":116279,"SoundDuration":116279,"Delta":511132546},{"NoteNumber":60,"Velocity":60,"Duration":116279,"SoundDuration":116279,"Delta":511132546},{"NoteNumber":72,"Velocity":80,"Duration":116278,"SoundDuration":116278,"Delta":511248825},{"NoteNumber":58,"Velocity":65,"Duration":116278,"SoundDuration":116278,"Delta":511248825},{"NoteNumber":73,"Velocity":70,"Duration":116279,"SoundDuration":116279,"Delta":511365104},{"NoteNumber":57,"Velocity":60,"Duration":116279,"SoundDuration":116279,"Delta":511365104},{"NoteNumber":74,"Velocity":70,"Duration":116279,"SoundDuration":116279,"Delta":511481383},{"NoteNumber":55,"Velocity":57,"Duration":116279,"SoundDuration":116279,"Delta":511481383},{"NoteNumber":72,"Velocity":70,"Duration":116278,"SoundDuration":116278,"Delta":511597662},{"NoteNumber":57,"Velocity":55,"Duration":116278,"SoundDuration":116278,"Delta":511597662},{"NoteNumber":70,"Velocity":65,"Duration":235294,"SoundDuration":235294,"Delta":511713941},{"NoteNumber":74,"Velocity":81,"Duration":117646,"SoundDuration":117646,"Delta":511713941},{"NoteNumber":58,"Velocity":63,"Duration":117646,"SoundDuration":117646,"Delta":511713941},{"NoteNumber":76,"Velocity":70,"Duration":117647,"SoundDuration":117647,"Delta":511831588},{"NoteNumber":57,"Velocity":57,"Duration":117647,"SoundDuration":117647,"Delta":511831588},{"NoteNumber":77,"Velocity":70,"Duration":125000,"SoundDuration":125000,"Delta":511949235},{"NoteNumber":55,"Velocity":58,"Duration":125000,"SoundDuration":125000,"Delta":511949235},{"NoteNumber":79,"Velocity":81,"Duration":232558,"SoundDuration":232558,"Delta":512074235},{"NoteNumber":53,"Velocity":58,"Duration":116278,"SoundDuration":116278,"Delta":512074235},{"NoteNumber":55,"Velocity":58,"Duration":77519,"SoundDuration":77519,"Delta":512190514},{"NoteNumber":52,"Velocity":50,"Duration":465116,"SoundDuration":465116,"Delta":512190514},{"NoteNumber":57,"Velocity":52,"Duration":77519,"SoundDuration":77519,"Delta":512268034},{"NoteNumber":72,"Velocity":70,"Duration":116278,"SoundDuration":116278,"Delta":512306793},{"NoteNumber":55,"Velocity":58,"Duration":77519,"SoundDuration":77519,"Delta":512345553},{"NoteNumber":74,"Velocity":71,"Duration":116278,"SoundDuration":116278,"Delta":512423072},{"NoteNumber":57,"Velocity":52,"Duration":77519,"SoundDuration":77519,"Delta":512423072},{"NoteNumber":55,"Velocity":58,"Duration":77519,"SoundDuration":77519,"Delta":512500592},{"NoteNumber":76,"Velocity":72,"Duration":116279,"SoundDuration":116279,"Delta":512539351},{"NoteNumber":57,"Velocity":53,"Duration":77519,"SoundDuration":77519,"Delta":512578111},{"NoteNumber":77,"Velocity":73,"Duration":116278,"SoundDuration":116278,"Delta":512655630},{"NoteNumber":55,"Velocity":58,"Duration":77519,"SoundDuration":77519,"Delta":512655630},{"NoteNumber":46,"Velocity":58,"Duration":476134,"SoundDuration":476134,"Delta":512655630},{"NoteNumber":57,"Velocity":53,"Duration":77519,"SoundDuration":77519,"Delta":512733150},{"NoteNumber":79,"Velocity":74,"Duration":116278,"SoundDuration":116278,"Delta":512771909},{"NoteNumber":55,"Velocity":58,"Duration":77519,"SoundDuration":77519,"Delta":512810669},{"NoteNumber":81,"Velocity":75,"Duration":118576,"SoundDuration":118576,"Delta":512888188},{"NoteNumber":57,"Velocity":54,"Duration":79051,"SoundDuration":79051,"Delta":512888188},{"NoteNumber":55,"Velocity":58,"Duration":81192,"SoundDuration":81192,"Delta":512967240},{"NoteNumber":82,"Velocity":76,"Duration":125000,"SoundDuration":125000,"Delta":513006765},{"NoteNumber":57,"Velocity":54,"Duration":83333,"SoundDuration":83333,"Delta":513048432},{"NoteNumber":84,"Velocity":77,"Duration":116278,"SoundDuration":116278,"Delta":513131765},{"NoteNumber":53,"Velocity":58,"Duration":465115,"SoundDuration":465115,"Delta":513131765},{"NoteNumber":45,"Velocity":51,"Duration":465115,"SoundDuration":465115,"Delta":513131765},{"NoteNumber":81,"Velocity":68,"Duration":116279,"SoundDuration":116279,"Delta":513248044},{"NoteNumber":79,"Velocity":73,"Duration":116278,"SoundDuration":116278,"Delta":513364323},{"NoteNumber":77,"Velocity":72,"Duration":116278,"SoundDuration":116278,"Delta":513480602},{"NoteNumber":75,"Velocity":81,"Duration":116279,"SoundDuration":116279,"Delta":513596881},{"NoteNumber":57,"Velocity":58,"Duration":77519,"SoundDuration":77519,"Delta":513596881},{"NoteNumber":54,"Velocity":50,"Duration":465116,"SoundDuration":465116,"Delta":513596881},{"NoteNumber":58,"Velocity":52,"Duration":77519,"SoundDuration":77519,"Delta":513674401},{"NoteNumber":74,"Velocity":71,"Duration":116278,"SoundDuration":116278,"Delta":513713160},{"NoteNumber":57,"Velocity":58,"Duration":77519,"SoundDuration":77519,"Delta":513751920},{"NoteNumber":76,"Velocity":71,"Duration":116278,"SoundDuration":116278,"Delta":513829439},{"NoteNumber":58,"Velocity":52,"Duration":77519,"SoundDuration":77519,"Delta":513829439},{"NoteNumber":57,"Velocity":58,"Duration":77519,"SoundDuration":77519,"Delta":513906959},{"NoteNumber":78,"Velocity":71,"Duration":116279,"SoundDuration":116279,"Delta":513945718},{"NoteNumber":58,"Velocity":53,"Duration":77519,"SoundDuration":77519,"Delta":513984478},{"NoteNumber":79,"Velocity":79,"Duration":116278,"SoundDuration":116278,"Delta":514061997},{"NoteNumber":48,"Velocity":58,"Duration":477128,"SoundDuration":477128,"Delta":514061997},{"NoteNumber":57,"Velocity":58,"Duration":77519,"SoundDuration":77519,"Delta":514061997},{"NoteNumber":58,"Velocity":53,"Duration":77519,"SoundDuration":77519,"Delta":514139517},{"NoteNumber":81,"Velocity":72,"Duration":116278,"SoundDuration":116278,"Delta":514178276},{"NoteNumber":57,"Velocity":58,"Duration":77519,"SoundDuration":77519,"Delta":514217036},{"NoteNumber":82,"Velocity":81,"Duration":119047,"SoundDuration":119047,"Delta":514294555},{"NoteNumber":58,"Velocity":54,"Duration":79365,"SoundDuration":79365,"Delta":514294555},{"NoteNumber":57,"Velocity":58,"Duration":81523,"SoundDuration":81523,"Delta":514373920},{"NoteNumber":84,"Velocity":71,"Duration":125523,"SoundDuration":125523,"Delta":514413603},{"NoteNumber":58,"Velocity":54,"Duration":83682,"SoundDuration":83682,"Delta":514455444},{"NoteNumber":86,"Velocity":85,"Duration":115829,"SoundDuration":115829,"Delta":514539126},{"NoteNumber":55,"Velocity":58,"Duration":463319,"SoundDuration":463319,"Delta":514539126},{"NoteNumber":46,"Velocity":51,"Duration":463319,"SoundDuration":463319,"Delta":514539126},{"NoteNumber":82,"Velocity":76,"Duration":115830,"SoundDuration":115830,"Delta":514654956},{"NoteNumber":81,"Velocity":76,"Duration":115829,"SoundDuration":115829,"Delta":514770786},{"NoteNumber":79,"Velocity":76,"Duration":115829,"SoundDuration":115829,"Delta":514886616},{"NoteNumber":77,"Velocity":82,"Duration":115830,"SoundDuration":115830,"Delta":515002446},{"NoteNumber":55,"Velocity":50,"Duration":463320,"SoundDuration":463320,"Delta":515002446},{"NoteNumber":58,"Velocity":58,"Duration":77220,"SoundDuration":77220,"Delta":515002446},{"NoteNumber":60,"Velocity":52,"Duration":77220,"SoundDuration":77220,"Delta":515079666},{"NoteNumber":75,"Velocity":73,"Duration":115829,"SoundDuration":115829,"Delta":515118276},{"NoteNumber":58,"Velocity":58,"Duration":77220,"SoundDuration":77220,"Delta":515156886},{"NoteNumber":77,"Velocity":76,"Duration":115829,"SoundDuration":115829,"Delta":515234106},{"NoteNumber":60,"Velocity":52,"Duration":77220,"SoundDuration":77220,"Delta":515234106},{"NoteNumber":58,"Velocity":58,"Duration":77220,"SoundDuration":77220,"Delta":515311326},{"NoteNumber":79,"Velocity":79,"Duration":115830,"SoundDuration":115830,"Delta":515349936},{"NoteNumber":60,"Velocity":53,"Duration":77220,"SoundDuration":77220,"Delta":515388546},{"NoteNumber":81,"Velocity":82,"Duration":116407,"SoundDuration":116407,"Delta":515465766},{"NoteNumber":58,"Velocity":58,"Duration":77493,"SoundDuration":77493,"Delta":515465766},{"NoteNumber":50,"Velocity":58,"Duration":473898,"SoundDuration":473898,"Delta":515465766},{"NoteNumber":60,"Velocity":53,"Duration":78034,"SoundDuration":78034,"Delta":515543259},{"NoteNumber":82,"Velocity":84,"Duration":117798,"SoundDuration":117798,"Delta":515582174},{"NoteNumber":58,"Velocity":58,"Duration":78678,"SoundDuration":78678,"Delta":515621294},{"NoteNumber":84,"Velocity":87,"Duration":119127,"SoundDuration":119127,"Delta":515699973},{"NoteNumber":60,"Velocity":54,"Duration":79243,"SoundDuration":79243,"Delta":515699973},{"NoteNumber":58,"Velocity":58,"Duration":79896,"SoundDuration":79896,"Delta":515779216},{"NoteNumber":86,"Velocity":90,"Duration":120564,"SoundDuration":120564,"Delta":515819101},{"NoteNumber":60,"Velocity":54,"Duration":80552,"SoundDuration":80552,"Delta":515859113},{"NoteNumber":87,"Velocity":93,"Duration":241935,"SoundDuration":241935,"Delta":515939665},{"NoteNumber":57,"Velocity":58,"Duration":483871,"SoundDuration":483871,"Delta":515939665},{"NoteNumber":48,"Velocity":51,"Duration":241935,"SoundDuration":241935,"Delta":515939665},{"NoteNumber":42,"Velocity":52,"Duration":362301,"SoundDuration":362301,"Delta":516181600},{"NoteNumber":69,"Velocity":69,"Duration":473164,"SoundDuration":473164,"Delta":516423536},{"NoteNumber":72,"Velocity":74,"Duration":80366,"SoundDuration":80366,"Delta":516423536},{"NoteNumber":74,"Velocity":70,"Duration":79793,"SoundDuration":79793,"Delta":516503902},{"NoteNumber":43,"Velocity":48,"Duration":118989,"SoundDuration":118989,"Delta":516543902},{"NoteNumber":72,"Velocity":74,"Duration":79196,"SoundDuration":79196,"Delta":516583695},{"NoteNumber":74,"Velocity":70,"Duration":78589,"SoundDuration":78589,"Delta":516662891},{"NoteNumber":45,"Velocity":50,"Duration":117663,"SoundDuration":117663,"Delta":516662891},{"NoteNumber":72,"Velocity":74,"Duration":78033,"SoundDuration":78033,"Delta":516741481},{"NoteNumber":46,"Velocity":53,"Duration":116145,"SoundDuration":116145,"Delta":516780555},{"NoteNumber":74,"Velocity":70,"Duration":77185,"SoundDuration":77185,"Delta":516819515},{"NoteNumber":63,"Velocity":69,"Duration":473093,"SoundDuration":473093,"Delta":516896700},{"NoteNumber":72,"Velocity":74,"Duration":76757,"SoundDuration":76757,"Delta":516896700},{"NoteNumber":48,"Velocity":55,"Duration":115218,"SoundDuration":115218,"Delta":516896700},{"NoteNumber":74,"Velocity":69,"Duration":77067,"SoundDuration":77067,"Delta":516973458},{"NoteNumber":50,"Velocity":58,"Duration":115987,"SoundDuration":115987,"Delta":517011919},{"NoteNumber":72,"Velocity":74,"Duration":77380,"SoundDuration":77380,"Delta":517050525},{"NoteNumber":74,"Velocity":70,"Duration":58756,"SoundDuration":58756,"Delta":517127906},{"NoteNumber":52,"Velocity":60,"Duration":118662,"SoundDuration":118662,"Delta":517127906},{"NoteNumber":72,"Velocity":74,"Duration":59906,"SoundDuration":59906,"Delta":517186663},{"NoteNumber":70,"Velocity":68,"Duration":61035,"SoundDuration":61035,"Delta":517246569},{"NoteNumber":54,"Velocity":63,"Duration":123225,"SoundDuration":123225,"Delta":517246569},{"NoteNumber":72,"Velocity":68,"Duration":62189,"SoundDuration":62189,"Delta":517307605},{"NoteNumber":62,"Velocity":69,"Duration":240963,"SoundDuration":240963,"Delta":517369794},{"NoteNumber":70,"Velocity":81,"Duration":481928,"SoundDuration":481928,"Delta":517369794},{"NoteNumber":43,"Velocity":65,"Duration":120482,"SoundDuration":120482,"Delta":517369794},{"NoteNumber":55,"Velocity":55,"Duration":120481,"SoundDuration":120481,"Delta":517490276},{"NoteNumber":61,"Velocity":69,"Duration":240964,"SoundDuration":240964,"Delta":517610758},{"NoteNumber":41,"Velocity":62,"Duration":120482,"SoundDuration":120482,"Delta":517610758},{"NoteNumber":53,"Velocity":51,"Duration":120482,"SoundDuration":120482,"Delta":517731240},{"NoteNumber":67,"Velocity":69,"Duration":473164,"SoundDuration":473164,"Delta":517851722},{"NoteNumber":70,"Velocity":74,"Duration":80366,"SoundDuration":80366,"Delta":517851722},{"NoteNumber":40,"Velocity":53,"Duration":120366,"SoundDuration":120366,"Delta":517851722},{"NoteNumber":72,"Velocity":70,"Duration":79793,"SoundDuration":79793,"Delta":517932088},{"NoteNumber":41,"Velocity":48,"Duration":118989,"SoundDuration":118989,"Delta":517972088},{"NoteNumber":70,"Velocity":74,"Duration":79196,"SoundDuration":79196,"Delta":518011882},{"NoteNumber":72,"Velocity":70,"Duration":78589,"SoundDuration":78589,"Delta":518091078},{"NoteNumber":43,"Velocity":50,"Duration":117663,"SoundDuration":117663,"Delta":518091078},{"NoteNumber":70,"Velocity":74,"Duration":78033,"SoundDuration":78033,"Delta":518169668},{"NoteNumber":45,"Velocity":53,"Duration":116145,"SoundDuration":116145,"Delta":518208742},{"NoteNumber":72,"Velocity":70,"Duration":77185,"SoundDuration":77185,"Delta":518247702},{"NoteNumber":61,"Velocity":69,"Duration":473093,"SoundDuration":473093,"Delta":518324887},{"NoteNumber":70,"Velocity":74,"Duration":76757,"SoundDuration":76757,"Delta":518324887},{"NoteNumber":46,"Velocity":55,"Duration":115218,"SoundDuration":115218,"Delta":518324887},{"NoteNumber":72,"Velocity":69,"Duration":77067,"SoundDuration":77067,"Delta":518401644},{"NoteNumber":48,"Velocity":58,"Duration":115987,"SoundDuration":115987,"Delta":518440106},{"NoteNumber":70,"Velocity":74,"Duration":77380,"SoundDuration":77380,"Delta":518478712},{"NoteNumber":72,"Velocity":70,"Duration":58756,"SoundDuration":58756,"Delta":518556093},{"NoteNumber":50,"Velocity":60,"Duration":118662,"SoundDuration":118662,"Delta":518556093},{"NoteNumber":70,"Velocity":74,"Duration":59906,"SoundDuration":59906,"Delta":518614849},{"NoteNumber":69,"Velocity":68,"Duration":61035,"SoundDuration":61035,"Delta":518674756},{"NoteNumber":52,"Velocity":63,"Duration":123225,"SoundDuration":123225,"Delta":518674756},{"NoteNumber":70,"Velocity":68,"Duration":62189,"SoundDuration":62189,"Delta":518735791},{"NoteNumber":60,"Velocity":69,"Duration":240963,"SoundDuration":240963,"Delta":518797981},{"NoteNumber":69,"Velocity":81,"Duration":240963,"SoundDuration":240963,"Delta":518797981},{"NoteNumber":41,"Velocity":65,"Duration":120482,"SoundDuration":120482,"Delta":518797981},{"NoteNumber":53,"Velocity":55,"Duration":120481,"SoundDuration":120481,"Delta":518918463},{"NoteNumber":68,"Velocity":67,"Duration":240964,"SoundDuration":240964,"Delta":519038945},{"NoteNumber":59,"Velocity":62,"Duration":240964,"SoundDuration":240964,"Delta":519038945},{"NoteNumber":39,"Velocity":62,"Duration":120482,"SoundDuration":120482,"Delta":519038945},{"NoteNumber":51,"Velocity":51,"Duration":120482,"SoundDuration":120482,"Delta":519159427},{"NoteNumber":65,"Velocity":69,"Duration":473164,"SoundDuration":473164,"Delta":519279909},{"NoteNumber":68,"Velocity":74,"Duration":80366,"SoundDuration":80366,"Delta":519279909},{"NoteNumber":38,"Velocity":53,"Duration":120366,"SoundDuration":120366,"Delta":519279909},{"NoteNumber":70,"Velocity":70,"Duration":79793,"SoundDuration":79793,"Delta":519360275},{"NoteNumber":39,"Velocity":48,"Duration":118989,"SoundDuration":118989,"Delta":519400275},{"NoteNumber":68,"Velocity":74,"Duration":79196,"SoundDuration":79196,"Delta":519440068},{"NoteNumber":70,"Velocity":70,"Duration":78589,"SoundDuration":78589,"Delta":519519265},{"NoteNumber":41,"Velocity":50,"Duration":117663,"SoundDuration":117663,"Delta":519519265},{"NoteNumber":68,"Velocity":74,"Duration":78033,"SoundDuration":78033,"Delta":519597855},{"NoteNumber":43,"Velocity":53,"Duration":116145,"SoundDuration":116145,"Delta":519636929},{"NoteNumber":70,"Velocity":70,"Duration":77185,"SoundDuration":77185,"Delta":519675889},{"NoteNumber":59,"Velocity":69,"Duration":473093,"SoundDuration":473093,"Delta":519753074},{"NoteNumber":68,"Velocity":74,"Duration":76757,"SoundDuration":76757,"Delta":519753074},{"NoteNumber":44,"Velocity":55,"Duration":115218,"SoundDuration":115218,"Delta":519753074},{"NoteNumber":70,"Velocity":69,"Duration":77067,"SoundDuration":77067,"Delta":519829831},{"NoteNumber":46,"Velocity":58,"Duration":115987,"SoundDuration":115987,"Delta":519868292},{"NoteNumber":68,"Velocity":74,"Duration":77380,"SoundDuration":77380,"Delta":519906899},{"NoteNumber":70,"Velocity":70,"Duration":58756,"SoundDuration":58756,"Delta":519984280},{"NoteNumber":48,"Velocity":60,"Duration":118662,"SoundDuration":118662,"Delta":519984280},{"NoteNumber":68,"Velocity":74,"Duration":59906,"SoundDuration":59906,"Delta":520043036},{"NoteNumber":67,"Velocity":68,"Duration":61035,"SoundDuration":61035,"Delta":520102942},{"NoteNumber":50,"Velocity":63,"Duration":123225,"SoundDuration":123225,"Delta":520102942},{"NoteNumber":68,"Velocity":68,"Duration":62189,"SoundDuration":62189,"Delta":520163978},{"NoteNumber":58,"Velocity":69,"Duration":240963,"SoundDuration":240963,"Delta":520226168},{"NoteNumber":67,"Velocity":81,"Duration":481928,"SoundDuration":481928,"Delta":520226168},{"NoteNumber":39,"Velocity":74,"Duration":120482,"SoundDuration":120482,"Delta":520226168},{"NoteNumber":51,"Velocity":63,"Duration":120481,"SoundDuration":120481,"Delta":520346650},{"NoteNumber":64,"Velocity":62,"Duration":240964,"SoundDuration":240964,"Delta":520467132},{"NoteNumber":49,"Velocity":71,"Duration":240964,"SoundDuration":240964,"Delta":520467132},{"NoteNumber":37,"Velocity":58,"Duration":240964,"SoundDuration":240964,"Delta":520467132},{"NoteNumber":34,"Velocity":66,"Duration":80044,"SoundDuration":80044,"Delta":520708096},{"NoteNumber":49,"Velocity":66,"Duration":119885,"SoundDuration":119885,"Delta":520708096},{"NoteNumber":36,"Velocity":52,"Duration":79527,"SoundDuration":79527,"Delta":520788140},{"NoteNumber":48,"Velocity":53,"Duration":118714,"SoundDuration":118714,"Delta":520827981},{"NoteNumber":34,"Velocity":66,"Duration":79028,"SoundDuration":79028,"Delta":520867667},{"NoteNumber":50,"Velocity":53,"Duration":117632,"SoundDuration":117632,"Delta":520946696},{"NoteNumber":36,"Velocity":52,"Duration":78558,"SoundDuration":78558,"Delta":520946696},{"NoteNumber":34,"Velocity":66,"Duration":78037,"SoundDuration":78037,"Delta":521025254},{"NoteNumber":52,"Velocity":53,"Duration":116554,"SoundDuration":116554,"Delta":521064328},{"NoteNumber":36,"Velocity":52,"Duration":77591,"SoundDuration":77591,"Delta":521103292},{"NoteNumber":34,"Velocity":66,"Duration":77350,"SoundDuration":77350,"Delta":521180883},{"NoteNumber":53,"Velocity":57,"Duration":116201,"SoundDuration":116201,"Delta":521180883},{"NoteNumber":36,"Velocity":52,"Duration":77810,"SoundDuration":77810,"Delta":521258234},{"NoteNumber":55,"Velocity":59,"Duration":117249,"SoundDuration":117249,"Delta":521297084},{"NoteNumber":34,"Velocity":66,"Duration":78289,"SoundDuration":78289,"Delta":521336044},{"NoteNumber":67,"Velocity":62,"Duration":237855,"SoundDuration":237855,"Delta":521414334},{"NoteNumber":36,"Velocity":52,"Duration":78794,"SoundDuration":78794,"Delta":521414334},{"NoteNumber":57,"Velocity":61,"Duration":118363,"SoundDuration":118363,"Delta":521414334},{"NoteNumber":34,"Velocity":66,"Duration":79251,"SoundDuration":79251,"Delta":521493129},{"NoteNumber":58,"Velocity":63,"Duration":119491,"SoundDuration":119491,"Delta":521532697},{"NoteNumber":36,"Velocity":52,"Duration":79809,"SoundDuration":79809,"Delta":521572380},{"NoteNumber":64,"Velocity":69,"Duration":241146,"SoundDuration":241146,"Delta":521652189},{"NoteNumber":33,"Velocity":66,"Duration":482110,"SoundDuration":482110,"Delta":521652189},{"NoteNumber":60,"Velocity":65,"Duration":120664,"SoundDuration":120664,"Delta":521652189},{"NoteNumber":57,"Velocity":64,"Duration":120481,"SoundDuration":120481,"Delta":521772854},{"NoteNumber":65,"Velocity":61,"Duration":240964,"SoundDuration":240964,"Delta":521893336},{"NoteNumber":55,"Velocity":62,"Duration":120482,"SoundDuration":120482,"Delta":521893336},{"NoteNumber":53,"Velocity":60,"Duration":120482,"SoundDuration":120482,"Delta":522013818},{"NoteNumber":51,"Velocity":66,"Duration":119885,"SoundDuration":119885,"Delta":522134300},{"NoteNumber":36,"Velocity":66,"Duration":80044,"SoundDuration":80044,"Delta":522134300},{"NoteNumber":38,"Velocity":52,"Duration":79527,"SoundDuration":79527,"Delta":522214344},{"NoteNumber":50,"Velocity":53,"Duration":118714,"SoundDuration":118714,"Delta":522254185},{"NoteNumber":36,"Velocity":66,"Duration":79028,"SoundDuration":79028,"Delta":522293871},{"NoteNumber":38,"Velocity":52,"Duration":78558,"SoundDuration":78558,"Delta":522372900},{"NoteNumber":52,"Velocity":53,"Duration":117632,"SoundDuration":117632,"Delta":522372900},{"NoteNumber":36,"Velocity":66,"Duration":78037,"SoundDuration":78037,"Delta":522451458},{"NoteNumber":54,"Velocity":53,"Duration":116554,"SoundDuration":116554,"Delta":522490532},{"NoteNumber":38,"Velocity":52,"Duration":77591,"SoundDuration":77591,"Delta":522529496},{"NoteNumber":36,"Velocity":66,"Duration":77350,"SoundDuration":77350,"Delta":522607087},{"NoteNumber":55,"Velocity":57,"Duration":116201,"SoundDuration":116201,"Delta":522607087},{"NoteNumber":38,"Velocity":52,"Duration":77810,"SoundDuration":77810,"Delta":522684438},{"NoteNumber":57,"Velocity":59,"Duration":117249,"SoundDuration":117249,"Delta":522723288},{"NoteNumber":36,"Velocity":66,"Duration":78285,"SoundDuration":78285,"Delta":522761272},{"NoteNumber":69,"Velocity":62,"Duration":237855,"SoundDuration":237855,"Delta":522840538},{"NoteNumber":38,"Velocity":52,"Duration":78794,"SoundDuration":78794,"Delta":522840538},{"NoteNumber":58,"Velocity":61,"Duration":118363,"SoundDuration":118363,"Delta":522840538},{"NoteNumber":36,"Velocity":66,"Duration":79251,"SoundDuration":79251,"Delta":522919333},{"NoteNumber":60,"Velocity":63,"Duration":119491,"SoundDuration":119491,"Delta":522958901},{"NoteNumber":38,"Velocity":52,"Duration":79809,"SoundDuration":79809,"Delta":522998584},{"NoteNumber":66,"Velocity":69,"Duration":241146,"SoundDuration":241146,"Delta":523078393},{"NoteNumber":34,"Velocity":66,"Duration":482110,"SoundDuration":482110,"Delta":523078393},{"NoteNumber":62,"Velocity":65,"Duration":120664,"SoundDuration":120664,"Delta":523078393},{"NoteNumber":58,"Velocity":64,"Duration":120481,"SoundDuration":120481,"Delta":523199058},{"NoteNumber":67,"Velocity":61,"Duration":240964,"SoundDuration":240964,"Delta":523319540},{"NoteNumber":57,"Velocity":62,"Duration":120482,"SoundDuration":120482,"Delta":523319540},{"NoteNumber":55,"Velocity":60,"Duration":120482,"SoundDuration":120482,"Delta":523440022},{"NoteNumber":53,"Velocity":66,"Duration":119885,"SoundDuration":119885,"Delta":523560504},{"NoteNumber":38,"Velocity":66,"Duration":80044,"SoundDuration":80044,"Delta":523560504},{"NoteNumber":39,"Velocity":52,"Duration":79527,"SoundDuration":79527,"Delta":523640548},{"NoteNumber":51,"Velocity":53,"Duration":118714,"SoundDuration":118714,"Delta":523680389},{"NoteNumber":38,"Velocity":66,"Duration":79028,"SoundDuration":79028,"Delta":523720075},{"NoteNumber":53,"Velocity":53,"Duration":117632,"SoundDuration":117632,"Delta":523799104},{"NoteNumber":39,"Velocity":52,"Duration":78558,"SoundDuration":78558,"Delta":523799104},{"NoteNumber":38,"Velocity":66,"Duration":78037,"SoundDuration":78037,"Delta":523877662},{"NoteNumber":55,"Velocity":53,"Duration":116554,"SoundDuration":116554,"Delta":523916736},{"NoteNumber":39,"Velocity":52,"Duration":77591,"SoundDuration":77591,"Delta":523955700},{"NoteNumber":57,"Velocity":57,"Duration":116201,"SoundDuration":116201,"Delta":524033291},{"NoteNumber":38,"Velocity":66,"Duration":77350,"SoundDuration":77350,"Delta":524033291},{"NoteNumber":39,"Velocity":52,"Duration":77810,"SoundDuration":77810,"Delta":524110642},{"NoteNumber":58,"Velocity":59,"Duration":117249,"SoundDuration":117249,"Delta":524149492},{"NoteNumber":38,"Velocity":66,"Duration":78289,"SoundDuration":78289,"Delta":524188452},{"NoteNumber":70,"Velocity":62,"Duration":237855,"SoundDuration":237855,"Delta":524266742},{"NoteNumber":60,"Velocity":61,"Duration":118363,"SoundDuration":118363,"Delta":524266742},{"NoteNumber":39,"Velocity":52,"Duration":78794,"SoundDuration":78794,"Delta":524266742},{"NoteNumber":38,"Velocity":66,"Duration":79251,"SoundDuration":79251,"Delta":524345537},{"NoteNumber":62,"Velocity":63,"Duration":119491,"SoundDuration":119491,"Delta":524385105},{"NoteNumber":39,"Velocity":52,"Duration":79809,"SoundDuration":79809,"Delta":524424788},{"NoteNumber":67,"Velocity":69,"Duration":241146,"SoundDuration":241146,"Delta":524504597},{"NoteNumber":36,"Velocity":66,"Duration":482110,"SoundDuration":482110,"Delta":524504597},{"NoteNumber":63,"Velocity":65,"Duration":120664,"SoundDuration":120664,"Delta":524504597},{"NoteNumber":60,"Velocity":64,"Duration":120481,"SoundDuration":120481,"Delta":524625262},{"NoteNumber":69,"Velocity":61,"Duration":240964,"SoundDuration":240964,"Delta":524745744},{"NoteNumber":58,"Velocity":62,"Duration":120482,"SoundDuration":120482,"Delta":524745744},{"NoteNumber":57,"Velocity":60,"Duration":120482,"SoundDuration":120482,"Delta":524866226},{"NoteNumber":69,"Velocity":55,"Duration":123966,"SoundDuration":123966,"Delta":524986708},{"NoteNumber":72,"Velocity":61,"Duration":247933,"SoundDuration":247933,"Delta":524986708},{"NoteNumber":39,"Velocity":66,"Duration":82644,"SoundDuration":82644,"Delta":524986708},{"NoteNumber":41,"Velocity":60,"Duration":82644,"SoundDuration":82644,"Delta":525069352},{"NoteNumber":65,"Velocity":49,"Duration":123966,"SoundDuration":123966,"Delta":525110675},{"NoteNumber":39,"Velocity":66,"Duration":82644,"SoundDuration":82644,"Delta":525151997},{"NoteNumber":67,"Velocity":55,"Duration":119047,"SoundDuration":119047,"Delta":525234642},{"NoteNumber":77,"Velocity":66,"Duration":476189,"SoundDuration":476189,"Delta":525234642},{"NoteNumber":41,"Velocity":62,"Duration":59523,"SoundDuration":59523,"Delta":525234642},{"NoteNumber":39,"Velocity":55,"Duration":59523,"SoundDuration":59523,"Delta":525294165},{"NoteNumber":69,"Velocity":50,"Duration":119047,"SoundDuration":119047,"Delta":525353689},{"NoteNumber":38,"Velocity":55,"Duration":59523,"SoundDuration":59523,"Delta":525353689},{"NoteNumber":39,"Velocity":55,"Duration":59523,"SoundDuration":59523,"Delta":525413213},{"NoteNumber":70,"Velocity":55,"Duration":119047,"SoundDuration":119047,"Delta":525472737},{"NoteNumber":38,"Velocity":63,"Duration":472469,"SoundDuration":472469,"Delta":525472737},{"NoteNumber":69,"Velocity":48,"Duration":119047,"SoundDuration":119047,"Delta":525591784},{"NoteNumber":70,"Velocity":55,"Duration":117187,"SoundDuration":117187,"Delta":525710832},{"NoteNumber":74,"Velocity":61,"Duration":234375,"SoundDuration":234375,"Delta":525710832},{"NoteNumber":65,"Velocity":43,"Duration":117187,"SoundDuration":117187,"Delta":525828019},{"NoteNumber":67,"Velocity":55,"Duration":118576,"SoundDuration":118576,"Delta":525945207},{"NoteNumber":72,"Velocity":61,"Duration":238576,"SoundDuration":238576,"Delta":525945207},{"NoteNumber":40,"Velocity":63,"Duration":238576,"SoundDuration":238576,"Delta":525945207},{"NoteNumber":66,"Velocity":48,"Duration":120000,"SoundDuration":120000,"Delta":526063784},{"NoteNumber":67,"Velocity":55,"Duration":120482,"SoundDuration":120482,"Delta":526183784},{"NoteNumber":70,"Velocity":57,"Duration":238592,"SoundDuration":238592,"Delta":526183784},{"NoteNumber":52,"Velocity":57,"Duration":238592,"SoundDuration":238592,"Delta":526183784},{"NoteNumber":60,"Velocity":49,"Duration":236220,"SoundDuration":236220,"Delta":526304266},{"NoteNumber":69,"Velocity":61,"Duration":236220,"SoundDuration":236220,"Delta":526422376},{"NoteNumber":53,"Velocity":37,"Duration":1427074,"SoundDuration":1427074,"Delta":526422376},{"NoteNumber":63,"Velocity":49,"Duration":118110,"SoundDuration":118110,"Delta":526540486},{"NoteNumber":68,"Velocity":58,"Duration":245228,"SoundDuration":245228,"Delta":526658596},{"NoteNumber":62,"Velocity":48,"Duration":118110,"SoundDuration":118110,"Delta":526658596},{"NoteNumber":60,"Velocity":48,"Duration":127118,"SoundDuration":127118,"Delta":526776707},{"NoteNumber":67,"Velocity":49,"Duration":119912,"SoundDuration":119912,"Delta":526903825},{"NoteNumber":79,"Velocity":73,"Duration":710041,"SoundDuration":710041,"Delta":526903825},{"NoteNumber":59,"Velocity":48,"Duration":119912,"SoundDuration":119912,"Delta":526903825},{"NoteNumber":69,"Velocity":59,"Duration":119276,"SoundDuration":119276,"Delta":527023738},{"NoteNumber":60,"Velocity":52,"Duration":119276,"SoundDuration":119276,"Delta":527023738},{"NoteNumber":71,"Velocity":57,"Duration":118511,"SoundDuration":118511,"Delta":527143015},{"NoteNumber":62,"Velocity":49,"Duration":118511,"SoundDuration":118511,"Delta":527143015},{"NoteNumber":72,"Velocity":55,"Duration":117820,"SoundDuration":117820,"Delta":527261526},{"NoteNumber":63,"Velocity":46,"Duration":117820,"SoundDuration":117820,"Delta":527261526},{"NoteNumber":73,"Velocity":53,"Duration":117191,"SoundDuration":117191,"Delta":527379347},{"NoteNumber":64,"Velocity":53,"Duration":117191,"SoundDuration":117191,"Delta":527379347},{"NoteNumber":74,"Velocity":51,"Duration":117329,"SoundDuration":117329,"Delta":527496538},{"NoteNumber":65,"Velocity":43,"Duration":117329,"SoundDuration":117329,"Delta":527496538},{"NoteNumber":75,"Velocity":59,"Duration":117647,"SoundDuration":117647,"Delta":527613867},{"NoteNumber":77,"Velocity":59,"Duration":235583,"SoundDuration":235583,"Delta":527613867},{"NoteNumber":67,"Velocity":49,"Duration":117647,"SoundDuration":117647,"Delta":527613867},{"NoteNumber":74,"Velocity":41,"Duration":117936,"SoundDuration":117936,"Delta":527731514},{"NoteNumber":65,"Velocity":40,"Duration":117936,"SoundDuration":117936,"Delta":527731514},{"NoteNumber":77,"Velocity":52,"Duration":236220,"SoundDuration":236220,"Delta":527849451},{"NoteNumber":60,"Velocity":45,"Duration":118110,"SoundDuration":118110,"Delta":527849451},{"NoteNumber":53,"Velocity":37,"Duration":1427713,"SoundDuration":1427713,"Delta":527849451},{"NoteNumber":62,"Velocity":41,"Duration":118110,"SoundDuration":118110,"Delta":527967561},{"NoteNumber":75,"Velocity":47,"Duration":239044,"SoundDuration":239044,"Delta":528085671},{"NoteNumber":63,"Velocity":45,"Duration":119521,"SoundDuration":119521,"Delta":528085671},{"NoteNumber":62,"Velocity":39,"Duration":119522,"SoundDuration":119522,"Delta":528205193},{"NoteNumber":66,"Velocity":45,"Duration":118110,"SoundDuration":118110,"Delta":528324715},{"NoteNumber":74,"Velocity":52,"Duration":236220,"SoundDuration":236220,"Delta":528324715},{"NoteNumber":67,"Velocity":41,"Duration":118110,"SoundDuration":118110,"Delta":528442826},{"NoteNumber":68,"Velocity":45,"Duration":119521,"SoundDuration":119521,"Delta":528560936},{"NoteNumber":72,"Velocity":47,"Duration":239044,"SoundDuration":239044,"Delta":528560936},{"NoteNumber":67,"Velocity":41,"Duration":119522,"SoundDuration":119522,"Delta":528680458},{"NoteNumber":71,"Velocity":52,"Duration":236220,"SoundDuration":236220,"Delta":528799980},{"NoteNumber":65,"Velocity":45,"Duration":118110,"SoundDuration":118110,"Delta":528799980},{"NoteNumber":63,"Velocity":41,"Duration":118110,"SoundDuration":118110,"Delta":528918090},{"NoteNumber":72,"Velocity":46,"Duration":240963,"SoundDuration":240963,"Delta":529036200},{"NoteNumber":62,"Velocity":45,"Duration":120482,"SoundDuration":120482,"Delta":529036200},{"NoteNumber":63,"Velocity":41,"Duration":120481,"SoundDuration":120481,"Delta":529156682},{"NoteNumber":69,"Velocity":57,"Duration":118110,"SoundDuration":118110,"Delta":529277164},{"NoteNumber":77,"Velocity":57,"Duration":236220,"SoundDuration":236220,"Delta":529277164},{"NoteNumber":60,"Velocity":48,"Duration":118110,"SoundDuration":118110,"Delta":529277164},{"NoteNumber":53,"Velocity":37,"Duration":1427074,"SoundDuration":1427074,"Delta":529277164},{"NoteNumber":70,"Velocity":50,"Duration":118110,"SoundDuration":118110,"Delta":529395275},{"NoteNumber":62,"Velocity":41,"Duration":118110,"SoundDuration":118110,"Delta":529395275},{"NoteNumber":69,"Velocity":55,"Duration":118110,"SoundDuration":118110,"Delta":529513385},{"NoteNumber":60,"Velocity":48,"Duration":118110,"SoundDuration":118110,"Delta":529513385},{"NoteNumber":67,"Velocity":49,"Duration":127118,"SoundDuration":127118,"Delta":529631495},{"NoteNumber":58,"Velocity":41,"Duration":127118,"SoundDuration":127118,"Delta":529631495},{"NoteNumber":65,"Velocity":58,"Duration":119912,"SoundDuration":119912,"Delta":529758614},{"NoteNumber":75,"Velocity":68,"Duration":710041,"SoundDuration":710041,"Delta":529758614},{"NoteNumber":57,"Velocity":48,"Duration":119912,"SoundDuration":119912,"Delta":529758614},{"NoteNumber":67,"Velocity":55,"Duration":119276,"SoundDuration":119276,"Delta":529878526},{"NoteNumber":58,"Velocity":52,"Duration":119276,"SoundDuration":119276,"Delta":529878526},{"NoteNumber":69,"Velocity":54,"Duration":118511,"SoundDuration":118511,"Delta":529997803},{"NoteNumber":60,"Velocity":49,"Duration":118511,"SoundDuration":118511,"Delta":529997803},{"NoteNumber":70,"Velocity":52,"Duration":117820,"SoundDuration":117820,"Delta":530116315},{"NoteNumber":62,"Velocity":46,"Duration":117820,"SoundDuration":117820,"Delta":530116315},{"NoteNumber":71,"Velocity":50,"Duration":117191,"SoundDuration":117191,"Delta":530234135},{"NoteNumber":63,"Velocity":53,"Duration":117191,"SoundDuration":117191,"Delta":530234135},{"NoteNumber":72,"Velocity":49,"Duration":117329,"SoundDuration":117329,"Delta":530351327},{"NoteNumber":64,"Velocity":43,"Duration":117329,"SoundDuration":117329,"Delta":530351327},{"NoteNumber":74,"Velocity":59,"Duration":117647,"SoundDuration":117647,"Delta":530468656},{"NoteNumber":75,"Velocity":59,"Duration":235583,"SoundDuration":235583,"Delta":530468656},{"NoteNumber":65,"Velocity":49,"Duration":117647,"SoundDuration":117647,"Delta":530468656},{"NoteNumber":72,"Velocity":41,"Duration":117936,"SoundDuration":117936,"Delta":530586303},{"NoteNumber":63,"Velocity":40,"Duration":117936,"SoundDuration":117936,"Delta":530586303},{"NoteNumber":75,"Velocity":52,"Duration":236220,"SoundDuration":236220,"Delta":530704239},{"NoteNumber":53,"Velocity":37,"Duration":1186749,"SoundDuration":1186749,"Delta":530704239},{"NoteNumber":58,"Velocity":45,"Duration":118110,"SoundDuration":118110,"Delta":530704239},{"NoteNumber":60,"Velocity":41,"Duration":118110,"SoundDuration":118110,"Delta":530822350},{"NoteNumber":74,"Velocity":47,"Duration":239044,"SoundDuration":239044,"Delta":530940460},{"NoteNumber":62,"Velocity":45,"Duration":119521,"SoundDuration":119521,"Delta":530940460},{"NoteNumber":63,"Velocity":39,"Duration":119522,"SoundDuration":119522,"Delta":531059982},{"NoteNumber":64,"Velocity":45,"Duration":118110,"SoundDuration":118110,"Delta":531179504},{"NoteNumber":72,"Velocity":52,"Duration":236220,"SoundDuration":236220,"Delta":531179504},{"NoteNumber":65,"Velocity":41,"Duration":118110,"SoundDuration":118110,"Delta":531297614},{"NoteNumber":67,"Velocity":45,"Duration":119521,"SoundDuration":119521,"Delta":531415724},{"NoteNumber":70,"Velocity":47,"Duration":239044,"SoundDuration":239044,"Delta":531415724},{"NoteNumber":65,"Velocity":41,"Duration":119522,"SoundDuration":119522,"Delta":531535246},{"NoteNumber":69,"Velocity":52,"Duration":236220,"SoundDuration":236220,"Delta":531654768},{"NoteNumber":63,"Velocity":45,"Duration":118110,"SoundDuration":118110,"Delta":531654768},{"NoteNumber":62,"Velocity":41,"Duration":118110,"SoundDuration":118110,"Delta":531772879},{"NoteNumber":70,"Velocity":46,"Duration":240963,"SoundDuration":240963,"Delta":531890989},{"NoteNumber":60,"Velocity":45,"Duration":120482,"SoundDuration":120482,"Delta":531890989},{"NoteNumber":54,"Velocity":37,"Duration":240963,"SoundDuration":240963,"Delta":531890989},{"NoteNumber":58,"Velocity":41,"Duration":120481,"SoundDuration":120481,"Delta":532011471},{"NoteNumber":59,"Velocity":64,"Duration":118110,"SoundDuration":118110,"Delta":532131953},{"NoteNumber":55,"Velocity":77,"Duration":118110,"SoundDuration":118110,"Delta":532131953},{"NoteNumber":43,"Velocity":65,"Duration":118110,"SoundDuration":118110,"Delta":532131953},{"NoteNumber":60,"Velocity":57,"Duration":118110,"SoundDuration":118110,"Delta":532250063},{"NoteNumber":59,"Velocity":57,"Duration":118110,"SoundDuration":118110,"Delta":532368173},{"NoteNumber":57,"Velocity":57,"Duration":127118,"SoundDuration":127118,"Delta":532486284},{"NoteNumber":55,"Velocity":65,"Duration":119912,"SoundDuration":119912,"Delta":532613402},{"NoteNumber":41,"Velocity":72,"Duration":710041,"SoundDuration":710041,"Delta":532613402},{"NoteNumber":53,"Velocity":85,"Duration":710041,"SoundDuration":710041,"Delta":532613402},{"NoteNumber":57,"Velocity":58,"Duration":119276,"SoundDuration":119276,"Delta":532733315},{"NoteNumber":59,"Velocity":59,"Duration":118511,"SoundDuration":118511,"Delta":532852592},{"NoteNumber":60,"Velocity":59,"Duration":117820,"SoundDuration":117820,"Delta":532971103},{"NoteNumber":61,"Velocity":65,"Duration":117191,"SoundDuration":117191,"Delta":533088924},{"NoteNumber":62,"Velocity":58,"Duration":117329,"SoundDuration":117329,"Delta":533206115},{"NoteNumber":63,"Velocity":58,"Duration":117647,"SoundDuration":117647,"Delta":533323444},{"NoteNumber":53,"Velocity":72,"Duration":235583,"SoundDuration":235583,"Delta":533323444},{"NoteNumber":41,"Velocity":61,"Duration":235583,"SoundDuration":235583,"Delta":533323444},{"NoteNumber":62,"Velocity":58,"Duration":117936,"SoundDuration":117936,"Delta":533441091},{"NoteNumber":72,"Velocity":57,"Duration":236220,"SoundDuration":236220,"Delta":533559028},{"NoteNumber":60,"Velocity":64,"Duration":118110,"SoundDuration":118110,"Delta":533559028},{"NoteNumber":53,"Velocity":74,"Duration":236220,"SoundDuration":236220,"Delta":533559028},{"NoteNumber":41,"Velocity":62,"Duration":236220,"SoundDuration":236220,"Delta":533559028},{"NoteNumber":62,"Velocity":57,"Duration":118110,"SoundDuration":118110,"Delta":533677138},{"NoteNumber":64,"Velocity":57,"Duration":119521,"SoundDuration":119521,"Delta":533795248},{"NoteNumber":40,"Velocity":54,"Duration":179283,"SoundDuration":179283,"Delta":533795248},{"NoteNumber":52,"Velocity":64,"Duration":179283,"SoundDuration":179283,"Delta":533795248},{"NoteNumber":65,"Velocity":57,"Duration":119522,"SoundDuration":119522,"Delta":533914770},{"NoteNumber":70,"Velocity":68,"Duration":711484,"SoundDuration":711484,"Delta":534034292},{"NoteNumber":66,"Velocity":64,"Duration":118110,"SoundDuration":118110,"Delta":534034292},{"NoteNumber":49,"Velocity":66,"Duration":236220,"SoundDuration":236220,"Delta":534034292},{"NoteNumber":37,"Velocity":56,"Duration":236220,"SoundDuration":236220,"Delta":534034292},{"NoteNumber":67,"Velocity":57,"Duration":118110,"SoundDuration":118110,"Delta":534152403},{"NoteNumber":68,"Velocity":57,"Duration":119521,"SoundDuration":119521,"Delta":534270513},{"NoteNumber":36,"Velocity":50,"Duration":179283,"SoundDuration":179283,"Delta":534270513},{"NoteNumber":48,"Velocity":59,"Duration":179283,"SoundDuration":179283,"Delta":534270513},{"NoteNumber":67,"Velocity":57,"Duration":119522,"SoundDuration":119522,"Delta":534390035},{"NoteNumber":65,"Velocity":63,"Duration":118110,"SoundDuration":118110,"Delta":534509557},{"NoteNumber":35,"Velocity":56,"Duration":236220,"SoundDuration":236220,"Delta":534509557},{"NoteNumber":47,"Velocity":66,"Duration":236220,"SoundDuration":236220,"Delta":534509557},{"NoteNumber":64,"Velocity":56,"Duration":118110,"SoundDuration":118110,"Delta":534627667},{"NoteNumber":70,"Velocity":59,"Duration":240963,"SoundDuration":240963,"Delta":534745777},{"NoteNumber":61,"Velocity":56,"Duration":120482,"SoundDuration":120482,"Delta":534745777},{"NoteNumber":36,"Velocity":47,"Duration":180722,"SoundDuration":180722,"Delta":534745777},{"NoteNumber":48,"Velocity":56,"Duration":180722,"SoundDuration":180722,"Delta":534745777},{"NoteNumber":60,"Velocity":56,"Duration":120481,"SoundDuration":120481,"Delta":534866259},{"NoteNumber":69,"Velocity":64,"Duration":118110,"SoundDuration":118110,"Delta":534986741},{"NoteNumber":53,"Velocity":77,"Duration":118110,"SoundDuration":118110,"Delta":534986741},{"NoteNumber":41,"Velocity":65,"Duration":118110,"SoundDuration":118110,"Delta":534986741},{"NoteNumber":70,"Velocity":57,"Duration":118110,"SoundDuration":118110,"Delta":535104852},{"NoteNumber":69,"Velocity":57,"Duration":118110,"SoundDuration":118110,"Delta":535222962},{"NoteNumber":67,"Velocity":57,"Duration":127118,"SoundDuration":127118,"Delta":535341072},{"NoteNumber":65,"Velocity":65,"Duration":119912,"SoundDuration":119912,"Delta":535468191},{"NoteNumber":39,"Velocity":72,"Duration":710041,"SoundDuration":710041,"Delta":535468191},{"NoteNumber":51,"Velocity":85,"Duration":710041,"SoundDuration":710041,"Delta":535468191},{"NoteNumber":67,"Velocity":58,"Duration":119276,"SoundDuration":119276,"Delta":535588103},{"NoteNumber":69,"Velocity":59,"Duration":118511,"SoundDuration":118511,"Delta":535707380},{"NoteNumber":70,"Velocity":59,"Duration":117820,"SoundDuration":117820,"Delta":535825891},{"NoteNumber":71,"Velocity":65,"Duration":117191,"SoundDuration":117191,"Delta":535943712},{"NoteNumber":72,"Velocity":58,"Duration":117329,"SoundDuration":117329,"Delta":536060904},{"NoteNumber":74,"Velocity":58,"Duration":117647,"SoundDuration":117647,"Delta":536178233},{"NoteNumber":51,"Velocity":72,"Duration":235583,"SoundDuration":235583,"Delta":536178233},{"NoteNumber":39,"Velocity":61,"Duration":235583,"SoundDuration":235583,"Delta":536178233},{"NoteNumber":72,"Velocity":58,"Duration":117936,"SoundDuration":117936,"Delta":536295880},{"NoteNumber":70,"Velocity":64,"Duration":118110,"SoundDuration":118110,"Delta":536413816},{"NoteNumber":51,"Velocity":74,"Duration":236220,"SoundDuration":236220,"Delta":536413816},{"NoteNumber":39,"Velocity":62,"Duration":236220,"SoundDuration":236220,"Delta":536413816},{"NoteNumber":72,"Velocity":57,"Duration":118110,"SoundDuration":118110,"Delta":536531926},{"NoteNumber":74,"Velocity":57,"Duration":119521,"SoundDuration":119521,"Delta":536650037},{"NoteNumber":50,"Velocity":64,"Duration":179283,"SoundDuration":179283,"Delta":536650037},{"NoteNumber":38,"Velocity":54,"Duration":179283,"SoundDuration":179283,"Delta":536650037},{"NoteNumber":75,"Velocity":57,"Duration":119522,"SoundDuration":119522,"Delta":536769559},{"NoteNumber":76,"Velocity":64,"Duration":118110,"SoundDuration":118110,"Delta":536889081},{"NoteNumber":48,"Velocity":66,"Duration":236220,"SoundDuration":236220,"Delta":536889081},{"NoteNumber":36,"Velocity":56,"Duration":236220,"SoundDuration":236220,"Delta":536889081},{"NoteNumber":77,"Velocity":57,"Duration":118110,"SoundDuration":118110,"Delta":537007191},{"NoteNumber":79,"Velocity":57,"Duration":119521,"SoundDuration":119521,"Delta":537125301},{"NoteNumber":47,"Velocity":59,"Duration":179283,"SoundDuration":179283,"Delta":537125301},{"NoteNumber":35,"Velocity":50,"Duration":179283,"SoundDuration":179283,"Delta":537125301},{"NoteNumber":77,"Velocity":57,"Duration":119522,"SoundDuration":119522,"Delta":537244823},{"NoteNumber":67,"Velocity":66,"Duration":236220,"SoundDuration":236220,"Delta":537364345},{"NoteNumber":71,"Velocity":63,"Duration":118110,"SoundDuration":118110,"Delta":537364345},{"NoteNumber":74,"Velocity":56,"Duration":118110,"SoundDuration":118110,"Delta":537482455},{"NoteNumber":65,"Velocity":56,"Duration":180722,"SoundDuration":180722,"Delta":537600566},{"NoteNumber":75,"Velocity":56,"Duration":120482,"SoundDuration":120482,"Delta":537600566},{"NoteNumber":77,"Velocity":56,"Duration":120481,"SoundDuration":120481,"Delta":537721048},{"NoteNumber":65,"Velocity":68,"Duration":236220,"SoundDuration":236220,"Delta":537841530},{"NoteNumber":71,"Velocity":64,"Duration":118110,"SoundDuration":118110,"Delta":537841530},{"NoteNumber":72,"Velocity":57,"Duration":118110,"SoundDuration":118110,"Delta":537959640},{"NoteNumber":63,"Velocity":62,"Duration":179283,"SoundDuration":179283,"Delta":538077750},{"NoteNumber":74,"Velocity":57,"Duration":119521,"SoundDuration":119521,"Delta":538077750},{"NoteNumber":72,"Velocity":57,"Duration":119522,"SoundDuration":119522,"Delta":538197272},{"NoteNumber":62,"Velocity":66,"Duration":236220,"SoundDuration":236220,"Delta":538316794},{"NoteNumber":74,"Velocity":64,"Duration":118110,"SoundDuration":118110,"Delta":538316794},{"NoteNumber":75,"Velocity":57,"Duration":118110,"SoundDuration":118110,"Delta":538434904},{"NoteNumber":60,"Velocity":61,"Duration":179283,"SoundDuration":179283,"Delta":538553015},{"NoteNumber":77,"Velocity":57,"Duration":119521,"SoundDuration":119521,"Delta":538553015},{"NoteNumber":75,"Velocity":57,"Duration":119522,"SoundDuration":119522,"Delta":538672537},{"NoteNumber":69,"Velocity":63,"Duration":118110,"SoundDuration":118110,"Delta":538792059},{"NoteNumber":53,"Velocity":66,"Duration":236220,"SoundDuration":236220,"Delta":538792059},{"NoteNumber":41,"Velocity":56,"Duration":236220,"SoundDuration":236220,"Delta":538792059},{"NoteNumber":72,"Velocity":56,"Duration":118110,"SoundDuration":118110,"Delta":538910169},{"NoteNumber":74,"Velocity":56,"Duration":120482,"SoundDuration":120482,"Delta":539028279},{"NoteNumber":39,"Velocity":51,"Duration":180722,"SoundDuration":180722,"Delta":539028279},{"NoteNumber":51,"Velocity":60,"Duration":180722,"SoundDuration":180722,"Delta":539028279},{"NoteNumber":75,"Velocity":56,"Duration":120481,"SoundDuration":120481,"Delta":539148761},{"NoteNumber":76,"Velocity":64,"Duration":118110,"SoundDuration":118110,"Delta":539269243},{"NoteNumber":51,"Velocity":66,"Duration":236220,"SoundDuration":236220,"Delta":539269243},{"NoteNumber":39,"Velocity":56,"Duration":236220,"SoundDuration":236220,"Delta":539269243},{"NoteNumber":77,"Velocity":57,"Duration":118110,"SoundDuration":118110,"Delta":539387353},{"NoteNumber":79,"Velocity":57,"Duration":119521,"SoundDuration":119521,"Delta":539505464},{"NoteNumber":38,"Velocity":51,"Duration":179283,"SoundDuration":179283,"Delta":539505464},{"NoteNumber":50,"Velocity":60,"Duration":179283,"SoundDuration":179283,"Delta":539505464},{"NoteNumber":77,"Velocity":57,"Duration":119522,"SoundDuration":119522,"Delta":539624986},{"NoteNumber":81,"Velocity":64,"Duration":118110,"SoundDuration":118110,"Delta":539744508},{"NoteNumber":36,"Velocity":56,"Duration":236220,"SoundDuration":236220,"Delta":539744508},{"NoteNumber":48,"Velocity":66,"Duration":236220,"SoundDuration":236220,"Delta":539744508},{"NoteNumber":82,"Velocity":57,"Duration":118110,"SoundDuration":118110,"Delta":539862618},{"NoteNumber":84,"Velocity":57,"Duration":119521,"SoundDuration":119521,"Delta":539980728},{"NoteNumber":34,"Velocity":51,"Duration":179283,"SoundDuration":179283,"Delta":539980728},{"NoteNumber":46,"Velocity":61,"Duration":179283,"SoundDuration":179283,"Delta":539980728},{"NoteNumber":82,"Velocity":57,"Duration":119522,"SoundDuration":119522,"Delta":540100250},{"NoteNumber":75,"Velocity":66,"Duration":231660,"SoundDuration":231660,"Delta":540219772},{"NoteNumber":78,"Velocity":63,"Duration":115829,"SoundDuration":115829,"Delta":540219772},{"NoteNumber":79,"Velocity":56,"Duration":115830,"SoundDuration":115830,"Delta":540335602},{"NoteNumber":74,"Velocity":56,"Duration":177165,"SoundDuration":177165,"Delta":540451432},{"NoteNumber":81,"Velocity":56,"Duration":118110,"SoundDuration":118110,"Delta":540451432},{"NoteNumber":79,"Velocity":56,"Duration":118110,"SoundDuration":118110,"Delta":540569542},{"NoteNumber":74,"Velocity":68,"Duration":230769,"SoundDuration":230769,"Delta":540687653},{"NoteNumber":80,"Velocity":64,"Duration":115384,"SoundDuration":115384,"Delta":540687653},{"NoteNumber":81,"Velocity":57,"Duration":115384,"SoundDuration":115384,"Delta":540803037},{"NoteNumber":72,"Velocity":62,"Duration":177865,"SoundDuration":177865,"Delta":540918422},{"NoteNumber":82,"Velocity":57,"Duration":118576,"SoundDuration":118576,"Delta":540918422},{"NoteNumber":81,"Velocity":57,"Duration":118577,"SoundDuration":118577,"Delta":541036999},{"NoteNumber":70,"Velocity":66,"Duration":232558,"SoundDuration":232558,"Delta":541155576},{"NoteNumber":83,"Velocity":64,"Duration":116278,"SoundDuration":116278,"Delta":541155576},{"NoteNumber":84,"Velocity":57,"Duration":116279,"SoundDuration":116279,"Delta":541271855},{"NoteNumber":69,"Velocity":61,"Duration":177865,"SoundDuration":177865,"Delta":541388134},{"NoteNumber":86,"Velocity":57,"Duration":118576,"SoundDuration":118576,"Delta":541388134},{"NoteNumber":84,"Velocity":57,"Duration":118577,"SoundDuration":118577,"Delta":541506711},{"NoteNumber":74,"Velocity":66,"Duration":231660,"SoundDuration":231660,"Delta":541625288},{"NoteNumber":76,"Velocity":63,"Duration":115829,"SoundDuration":115829,"Delta":541625288},{"NoteNumber":78,"Velocity":56,"Duration":115830,"SoundDuration":115830,"Delta":541741118},{"NoteNumber":72,"Velocity":56,"Duration":177865,"SoundDuration":177865,"Delta":541856948},{"NoteNumber":79,"Velocity":56,"Duration":118576,"SoundDuration":118576,"Delta":541856948},{"NoteNumber":78,"Velocity":56,"Duration":118577,"SoundDuration":118577,"Delta":541975525},{"NoteNumber":72,"Velocity":68,"Duration":229884,"SoundDuration":229884,"Delta":542094102},{"NoteNumber":79,"Velocity":64,"Duration":114942,"SoundDuration":114942,"Delta":542094102},{"NoteNumber":80,"Velocity":57,"Duration":114942,"SoundDuration":114942,"Delta":542209044},{"NoteNumber":70,"Velocity":62,"Duration":177865,"SoundDuration":177865,"Delta":542323987},{"NoteNumber":81,"Velocity":57,"Duration":118576,"SoundDuration":118576,"Delta":542323987},{"NoteNumber":79,"Velocity":57,"Duration":118577,"SoundDuration":118577,"Delta":542442564},{"NoteNumber":74,"Velocity":66,"Duration":230769,"SoundDuration":230769,"Delta":542561141},{"NoteNumber":82,"Velocity":64,"Duration":115384,"SoundDuration":115384,"Delta":542561141},{"NoteNumber":83,"Velocity":57,"Duration":115384,"SoundDuration":115384,"Delta":542676525},{"NoteNumber":75,"Velocity":61,"Duration":177865,"SoundDuration":177865,"Delta":542791910},{"NoteNumber":84,"Velocity":57,"Duration":118576,"SoundDuration":118576,"Delta":542791910},{"NoteNumber":82,"Velocity":57,"Duration":118577,"SoundDuration":118577,"Delta":542910487},{"NoteNumber":74,"Velocity":66,"Duration":230769,"SoundDuration":230769,"Delta":543029064},{"NoteNumber":80,"Velocity":63,"Duration":115384,"SoundDuration":115384,"Delta":543029064},{"NoteNumber":81,"Velocity":56,"Duration":115384,"SoundDuration":115384,"Delta":543144448},{"NoteNumber":72,"Velocity":56,"Duration":177865,"SoundDuration":177865,"Delta":543259833},{"NoteNumber":82,"Velocity":56,"Duration":118576,"SoundDuration":118576,"Delta":543259833},{"NoteNumber":81,"Velocity":56,"Duration":118577,"SoundDuration":118577,"Delta":543378410},{"NoteNumber":76,"Velocity":68,"Duration":229007,"SoundDuration":229007,"Delta":543496987},{"NoteNumber":85,"Velocity":64,"Duration":114503,"SoundDuration":114503,"Delta":543496987},{"NoteNumber":86,"Velocity":57,"Duration":114503,"SoundDuration":114503,"Delta":543611490},{"NoteNumber":77,"Velocity":62,"Duration":177165,"SoundDuration":177165,"Delta":543725994},{"NoteNumber":87,"Velocity":57,"Duration":118110,"SoundDuration":118110,"Delta":543725994},{"NoteNumber":86,"Velocity":57,"Duration":118110,"SoundDuration":118110,"Delta":543844104},{"NoteNumber":75,"Velocity":66,"Duration":229007,"SoundDuration":229007,"Delta":543962215},{"NoteNumber":83,"Velocity":64,"Duration":114503,"SoundDuration":114503,"Delta":543962215},{"NoteNumber":84,"Velocity":57,"Duration":114503,"SoundDuration":114503,"Delta":544076718},{"NoteNumber":74,"Velocity":61,"Duration":177165,"SoundDuration":177165,"Delta":544191222},{"NoteNumber":86,"Velocity":57,"Duration":118110,"SoundDuration":118110,"Delta":544191222},{"NoteNumber":82,"Velocity":57,"Duration":118110,"SoundDuration":118110,"Delta":544309332},{"NoteNumber":73,"Velocity":70,"Duration":112782,"SoundDuration":112782,"Delta":544427443},{"NoteNumber":42,"Velocity":64,"Duration":225563,"SoundDuration":225563,"Delta":544427443},{"NoteNumber":54,"Velocity":76,"Duration":225563,"SoundDuration":225563,"Delta":544427443},{"NoteNumber":74,"Velocity":65,"Duration":112781,"SoundDuration":112781,"Delta":544540225},{"NoteNumber":72,"Velocity":71,"Duration":140625,"SoundDuration":140625,"Delta":544653007},{"NoteNumber":55,"Velocity":66,"Duration":117187,"SoundDuration":117187,"Delta":544653007},{"NoteNumber":43,"Velocity":56,"Duration":117187,"SoundDuration":117187,"Delta":544653007},{"NoteNumber":70,"Velocity":67,"Duration":117187,"SoundDuration":117187,"Delta":544770194},{"NoteNumber":68,"Velocity":64,"Duration":112359,"SoundDuration":112359,"Delta":544887382},{"NoteNumber":71,"Velocity":83,"Duration":224719,"SoundDuration":224719,"Delta":544887382},{"NoteNumber":41,"Velocity":61,"Duration":224719,"SoundDuration":224719,"Delta":544887382},{"NoteNumber":53,"Velocity":72,"Duration":224719,"SoundDuration":224719,"Delta":544887382},{"NoteNumber":62,"Velocity":61,"Duration":112359,"SoundDuration":112359,"Delta":544999741},{"NoteNumber":67,"Velocity":64,"Duration":138996,"SoundDuration":138996,"Delta":545112101},{"NoteNumber":72,"Velocity":76,"Duration":138996,"SoundDuration":138996,"Delta":545112101},{"NoteNumber":52,"Velocity":66,"Duration":115829,"SoundDuration":115829,"Delta":545112101},{"NoteNumber":40,"Velocity":56,"Duration":115829,"SoundDuration":115829,"Delta":545112101},{"NoteNumber":64,"Velocity":61,"Duration":115830,"SoundDuration":115830,"Delta":545227931},{"NoteNumber":62,"Velocity":64,"Duration":111940,"SoundDuration":111940,"Delta":545343761},{"NoteNumber":70,"Velocity":82,"Duration":223880,"SoundDuration":223880,"Delta":545343761},{"NoteNumber":55,"Velocity":72,"Duration":223880,"SoundDuration":223880,"Delta":545343761},{"NoteNumber":43,"Velocity":61,"Duration":223880,"SoundDuration":223880,"Delta":545343761},{"NoteNumber":64,"Velocity":62,"Duration":111940,"SoundDuration":111940,"Delta":545455701},{"NoteNumber":61,"Velocity":64,"Duration":137404,"SoundDuration":137404,"Delta":545567641},{"NoteNumber":69,"Velocity":76,"Duration":137404,"SoundDuration":137404,"Delta":545567641},{"NoteNumber":57,"Velocity":66,"Duration":114503,"SoundDuration":114503,"Delta":545567641},{"NoteNumber":45,"Velocity":56,"Duration":114503,"SoundDuration":114503,"Delta":545567641},{"NoteNumber":64,"Velocity":61,"Duration":114503,"SoundDuration":114503,"Delta":545682145},{"NoteNumber":70,"Velocity":64,"Duration":112359,"SoundDuration":112359,"Delta":545796649},{"NoteNumber":73,"Velocity":83,"Duration":224719,"SoundDuration":224719,"Delta":545796649},{"NoteNumber":43,"Velocity":62,"Duration":224719,"SoundDuration":224719,"Delta":545796649},{"NoteNumber":55,"Velocity":74,"Duration":224719,"SoundDuration":224719,"Delta":545796649},{"NoteNumber":64,"Velocity":61,"Duration":112359,"SoundDuration":112359,"Delta":545909008},{"NoteNumber":69,"Velocity":64,"Duration":138461,"SoundDuration":138461,"Delta":546021368},{"NoteNumber":74,"Velocity":76,"Duration":138461,"SoundDuration":138461,"Delta":546021368},{"NoteNumber":42,"Velocity":56,"Duration":115384,"SoundDuration":115384,"Delta":546021368},{"NoteNumber":54,"Velocity":66,"Duration":115384,"SoundDuration":115384,"Delta":546021368},{"NoteNumber":66,"Velocity":64,"Duration":115384,"SoundDuration":115384,"Delta":546136752},{"NoteNumber":63,"Velocity":64,"Duration":111940,"SoundDuration":111940,"Delta":546252137},{"NoteNumber":72,"Velocity":83,"Duration":223880,"SoundDuration":223880,"Delta":546252137},{"NoteNumber":45,"Velocity":64,"Duration":223880,"SoundDuration":223880,"Delta":546252137},{"NoteNumber":57,"Velocity":76,"Duration":223880,"SoundDuration":223880,"Delta":546252137},{"NoteNumber":66,"Velocity":61,"Duration":111940,"SoundDuration":111940,"Delta":546364077},{"NoteNumber":62,"Velocity":64,"Duration":137930,"SoundDuration":137930,"Delta":546476017},{"NoteNumber":70,"Velocity":76,"Duration":137930,"SoundDuration":137930,"Delta":546476017},{"NoteNumber":58,"Velocity":66,"Duration":114942,"SoundDuration":114942,"Delta":546476017},{"NoteNumber":46,"Velocity":56,"Duration":114942,"SoundDuration":114942,"Delta":546476017},{"NoteNumber":67,"Velocity":62,"Duration":114942,"SoundDuration":114942,"Delta":546590960},{"NoteNumber":70,"Velocity":64,"Duration":111524,"SoundDuration":111524,"Delta":546705902},{"NoteNumber":75,"Velocity":83,"Duration":223048,"SoundDuration":223048,"Delta":546705902},{"NoteNumber":42,"Velocity":62,"Duration":223048,"SoundDuration":223048,"Delta":546705902},{"NoteNumber":54,"Velocity":74,"Duration":223048,"SoundDuration":223048,"Delta":546705902},{"NoteNumber":69,"Velocity":63,"Duration":111524,"SoundDuration":111524,"Delta":546817426},{"NoteNumber":70,"Velocity":64,"Duration":136363,"SoundDuration":136363,"Delta":546928951},{"NoteNumber":76,"Velocity":76,"Duration":136363,"SoundDuration":136363,"Delta":546928951},{"NoteNumber":43,"Velocity":56,"Duration":113636,"SoundDuration":113636,"Delta":546928951},{"NoteNumber":55,"Velocity":66,"Duration":113636,"SoundDuration":113636,"Delta":546928951},{"NoteNumber":67,"Velocity":62,"Duration":113636,"SoundDuration":113636,"Delta":547042587},{"NoteNumber":73,"Velocity":64,"Duration":111524,"SoundDuration":111524,"Delta":547156223},{"NoteNumber":78,"Velocity":82,"Duration":223048,"SoundDuration":223048,"Delta":547156223},{"NoteNumber":39,"Velocity":65,"Duration":223048,"SoundDuration":223048,"Delta":547156223},{"NoteNumber":51,"Velocity":77,"Duration":223048,"SoundDuration":223048,"Delta":547156223},{"NoteNumber":72,"Velocity":63,"Duration":111524,"SoundDuration":111524,"Delta":547267747},{"NoteNumber":73,"Velocity":64,"Duration":136882,"SoundDuration":136882,"Delta":547379272},{"NoteNumber":79,"Velocity":76,"Duration":136882,"SoundDuration":136882,"Delta":547379272},{"NoteNumber":40,"Velocity":56,"Duration":114068,"SoundDuration":114068,"Delta":547379272},{"NoteNumber":52,"Velocity":66,"Duration":114068,"SoundDuration":114068,"Delta":547379272},{"NoteNumber":70,"Velocity":62,"Duration":114068,"SoundDuration":114068,"Delta":547493340},{"NoteNumber":64,"Velocity":78,"Duration":240000,"SoundDuration":240000,"Delta":547607409},{"NoteNumber":67,"Velocity":78,"Duration":240000,"SoundDuration":240000,"Delta":547607409},{"NoteNumber":70,"Velocity":92,"Duration":240000,"SoundDuration":240000,"Delta":547607409},{"NoteNumber":58,"Velocity":56,"Duration":240000,"SoundDuration":240000,"Delta":547607409},{"NoteNumber":61,"Velocity":66,"Duration":240000,"SoundDuration":240000,"Delta":547607409},{"NoteNumber":85,"Velocity":74,"Duration":915546,"SoundDuration":915546,"Delta":548087409},{"NoteNumber":82,"Velocity":74,"Duration":915546,"SoundDuration":915546,"Delta":548087409},{"NoteNumber":88,"Velocity":88,"Duration":76370,"SoundDuration":76370,"Delta":548087409},{"NoteNumber":46,"Velocity":69,"Duration":915546,"SoundDuration":915546,"Delta":548087409},{"NoteNumber":43,"Velocity":65,"Duration":76370,"SoundDuration":76370,"Delta":548087409},{"NoteNumber":89,"Velocity":80,"Duration":76537,"SoundDuration":76537,"Delta":548163780},{"NoteNumber":45,"Velocity":57,"Duration":76537,"SoundDuration":76537,"Delta":548163780},{"NoteNumber":88,"Velocity":88,"Duration":75859,"SoundDuration":75859,"Delta":548240317},{"NoteNumber":43,"Velocity":65,"Duration":75859,"SoundDuration":75859,"Delta":548240317},{"NoteNumber":89,"Velocity":79,"Duration":75128,"SoundDuration":75128,"Delta":548316176},{"NoteNumber":45,"Velocity":58,"Duration":75128,"SoundDuration":75128,"Delta":548316176},{"NoteNumber":88,"Velocity":89,"Duration":74446,"SoundDuration":74446,"Delta":548391304},{"NoteNumber":43,"Velocity":66,"Duration":74446,"SoundDuration":74446,"Delta":548391304},{"NoteNumber":89,"Velocity":82,"Duration":73566,"SoundDuration":73566,"Delta":548465751},{"NoteNumber":45,"Velocity":58,"Duration":73566,"SoundDuration":73566,"Delta":548465751},{"NoteNumber":88,"Velocity":90,"Duration":73230,"SoundDuration":73230,"Delta":548539317},{"NoteNumber":43,"Velocity":66,"Duration":73230,"SoundDuration":73230,"Delta":548539317},{"NoteNumber":89,"Velocity":82,"Duration":73664,"SoundDuration":73664,"Delta":548612547},{"NoteNumber":45,"Velocity":61,"Duration":73664,"SoundDuration":73664,"Delta":548612547},{"NoteNumber":88,"Velocity":91,"Duration":73971,"SoundDuration":73971,"Delta":548686212},{"NoteNumber":43,"Velocity":67,"Duration":73971,"SoundDuration":73971,"Delta":548686212},{"NoteNumber":89,"Velocity":81,"Duration":56652,"SoundDuration":56652,"Delta":548760184},{"NoteNumber":45,"Velocity":58,"Duration":56652,"SoundDuration":56652,"Delta":548760184},{"NoteNumber":88,"Velocity":88,"Duration":59340,"SoundDuration":59340,"Delta":548816837},{"NoteNumber":43,"Velocity":69,"Duration":59340,"SoundDuration":59340,"Delta":548816837},{"NoteNumber":86,"Velocity":84,"Duration":62191,"SoundDuration":62191,"Delta":548876177},{"NoteNumber":41,"Velocity":62,"Duration":62191,"SoundDuration":62191,"Delta":548876177},{"NoteNumber":88,"Velocity":89,"Duration":64586,"SoundDuration":64586,"Delta":548938368},{"NoteNumber":43,"Velocity":66,"Duration":64586,"SoundDuration":64586,"Delta":548938368},{"NoteNumber":91,"Velocity":98,"Duration":457026,"SoundDuration":457026,"Delta":549002955},{"NoteNumber":58,"Velocity":92,"Duration":56818,"SoundDuration":56818,"Delta":549232709},{"NoteNumber":76,"Velocity":88,"Duration":76370,"SoundDuration":76370,"Delta":549459982},{"NoteNumber":77,"Velocity":80,"Duration":76537,"SoundDuration":76537,"Delta":549536352},{"NoteNumber":76,"Velocity":88,"Duration":75859,"SoundDuration":75859,"Delta":549612890},{"NoteNumber":77,"Velocity":79,"Duration":75128,"SoundDuration":75128,"Delta":549688749},{"NoteNumber":91,"Velocity":88,"Duration":112407,"SoundDuration":112407,"Delta":549688749},{"NoteNumber":76,"Velocity":89,"Duration":74446,"SoundDuration":74446,"Delta":549763877},{"NoteNumber":89,"Velocity":79,"Duration":110734,"SoundDuration":110734,"Delta":549801156},{"NoteNumber":77,"Velocity":82,"Duration":73566,"SoundDuration":73566,"Delta":549838324},{"NoteNumber":76,"Velocity":90,"Duration":73230,"SoundDuration":73230,"Delta":549911890},{"NoteNumber":88,"Velocity":88,"Duration":109994,"SoundDuration":109994,"Delta":549911890},{"NoteNumber":77,"Velocity":82,"Duration":73664,"SoundDuration":73664,"Delta":549985120},{"NoteNumber":85,"Velocity":79,"Duration":110871,"SoundDuration":110871,"Delta":550021885},{"NoteNumber":76,"Velocity":91,"Duration":73971,"SoundDuration":73971,"Delta":550058785},{"NoteNumber":84,"Velocity":88,"Duration":115992,"SoundDuration":115992,"Delta":550132757},{"NoteNumber":77,"Velocity":81,"Duration":56652,"SoundDuration":56652,"Delta":550132757},{"NoteNumber":76,"Velocity":88,"Duration":59340,"SoundDuration":59340,"Delta":550189409},{"NoteNumber":82,"Velocity":79,"Duration":126778,"SoundDuration":126778,"Delta":550248750},{"NoteNumber":74,"Velocity":84,"Duration":62191,"SoundDuration":62191,"Delta":550248750},{"NoteNumber":76,"Velocity":89,"Duration":64586,"SoundDuration":64586,"Delta":550310941},{"NoteNumber":77,"Velocity":98,"Duration":447916,"SoundDuration":447916,"Delta":550375528},{"NoteNumber":81,"Velocity":92,"Duration":57034,"SoundDuration":57034,"Delta":550595308},{"NoteNumber":93,"Velocity":98,"Duration":228137,"SoundDuration":228137,"Delta":550823445},{"NoteNumber":77,"Velocity":86,"Duration":110700,"SoundDuration":110700,"Delta":551051582},{"NoteNumber":64,"Velocity":62,"Duration":221402,"SoundDuration":221402,"Delta":551051582},{"NoteNumber":76,"Velocity":85,"Duration":110701,"SoundDuration":110701,"Delta":551162283},{"NoteNumber":74,"Velocity":83,"Duration":110700,"SoundDuration":110700,"Delta":551272984},{"NoteNumber":65,"Velocity":73,"Duration":221617,"SoundDuration":221617,"Delta":551272984},{"NoteNumber":72,"Velocity":82,"Duration":110916,"SoundDuration":110916,"Delta":551383685},{"NoteNumber":70,"Velocity":81,"Duration":113300,"SoundDuration":113300,"Delta":551494601},{"NoteNumber":69,"Velocity":80,"Duration":115947,"SoundDuration":115947,"Delta":551607902},{"NoteNumber":74,"Velocity":98,"Duration":447916,"SoundDuration":447916,"Delta":551723850},{"NoteNumber":77,"Velocity":92,"Duration":57034,"SoundDuration":57034,"Delta":551943630},{"NoteNumber":89,"Velocity":98,"Duration":225563,"SoundDuration":225563,"Delta":552171767},{"NoteNumber":74,"Velocity":86,"Duration":110700,"SoundDuration":110700,"Delta":552397331},{"NoteNumber":61,"Velocity":62,"Duration":221402,"SoundDuration":221402,"Delta":552397331},{"NoteNumber":72,"Velocity":85,"Duration":110701,"SoundDuration":110701,"Delta":552508032},{"NoteNumber":70,"Velocity":83,"Duration":110700,"SoundDuration":110700,"Delta":552618733},{"NoteNumber":62,"Velocity":73,"Duration":221617,"SoundDuration":221617,"Delta":552618733},{"NoteNumber":69,"Velocity":82,"Duration":110916,"SoundDuration":110916,"Delta":552729434},{"NoteNumber":67,"Velocity":81,"Duration":113300,"SoundDuration":113300,"Delta":552840350},{"NoteNumber":65,"Velocity":80,"Duration":115947,"SoundDuration":115947,"Delta":552953651},{"NoteNumber":70,"Velocity":98,"Duration":465115,"SoundDuration":465115,"Delta":553069599},{"NoteNumber":74,"Velocity":85,"Duration":232557,"SoundDuration":232557,"Delta":553302157},{"NoteNumber":86,"Velocity":97,"Duration":223880,"SoundDuration":223880,"Delta":553534715},{"NoteNumber":84,"Velocity":95,"Duration":221639,"SoundDuration":221639,"Delta":553758595},{"NoteNumber":70,"Velocity":70,"Duration":133078,"SoundDuration":133078,"Delta":553758595},{"NoteNumber":69,"Velocity":65,"Duration":132841,"SoundDuration":132841,"Delta":553869534},{"NoteNumber":82,"Velocity":92,"Duration":221473,"SoundDuration":221473,"Delta":553980235},{"NoteNumber":67,"Velocity":70,"Duration":132841,"SoundDuration":132841,"Delta":553980235},{"NoteNumber":69,"Velocity":61,"Duration":133063,"SoundDuration":133063,"Delta":554090936},{"NoteNumber":83,"Velocity":90,"Duration":228323,"SoundDuration":228323,"Delta":554201708},{"NoteNumber":67,"Velocity":67,"Duration":135619,"SoundDuration":135619,"Delta":554201708},{"NoteNumber":65,"Velocity":61,"Duration":139233,"SoundDuration":139233,"Delta":554314420},{"NoteNumber":84,"Velocity":90,"Duration":236220,"SoundDuration":236220,"Delta":554430031},{"NoteNumber":64,"Velocity":68,"Duration":141732,"SoundDuration":141732,"Delta":554430031},{"NoteNumber":65,"Velocity":62,"Duration":141732,"SoundDuration":141732,"Delta":554548142},{"NoteNumber":64,"Velocity":62,"Duration":141732,"SoundDuration":141732,"Delta":554666252},{"NoteNumber":62,"Velocity":62,"Duration":140837,"SoundDuration":140837,"Delta":554784362},{"NoteNumber":82,"Velocity":94,"Duration":681817,"SoundDuration":681817,"Delta":554902472},{"NoteNumber":60,"Velocity":66,"Duration":136363,"SoundDuration":136363,"Delta":554902472},{"NoteNumber":62,"Velocity":59,"Duration":136363,"SoundDuration":136363,"Delta":555016109},{"NoteNumber":64,"Velocity":63,"Duration":136363,"SoundDuration":136363,"Delta":555129745},{"NoteNumber":65,"Velocity":59,"Duration":136363,"SoundDuration":136363,"Delta":555243381},{"NoteNumber":66,"Velocity":66,"Duration":136363,"SoundDuration":136363,"Delta":555357017},{"NoteNumber":67,"Velocity":59,"Duration":136536,"SoundDuration":136536,"Delta":555470654},{"NoteNumber":82,"Velocity":87,"Duration":229007,"SoundDuration":229007,"Delta":555584290},{"NoteNumber":69,"Velocity":65,"Duration":137404,"SoundDuration":137404,"Delta":555584290},{"NoteNumber":67,"Velocity":60,"Duration":114503,"SoundDuration":114503,"Delta":555698794},{"NoteNumber":77,"Velocity":74,"Duration":139534,"SoundDuration":139534,"Delta":555813297},{"NoteNumber":70,"Velocity":85,"Duration":232558,"SoundDuration":232558,"Delta":555813297},{"NoteNumber":79,"Velocity":68,"Duration":139534,"SoundDuration":139534,"Delta":555929576},{"NoteNumber":81,"Velocity":68,"Duration":139534,"SoundDuration":139534,"Delta":556045855},{"NoteNumber":82,"Velocity":68,"Duration":138835,"SoundDuration":138835,"Delta":556162134},{"NoteNumber":83,"Velocity":72,"Duration":135338,"SoundDuration":135338,"Delta":556278413},{"NoteNumber":69,"Velocity":89,"Duration":676692,"SoundDuration":676692,"Delta":556278413},{"NoteNumber":84,"Velocity":64,"Duration":135338,"SoundDuration":135338,"Delta":556391195},{"NoteNumber":86,"Velocity":69,"Duration":135338,"SoundDuration":135338,"Delta":556503977},{"NoteNumber":84,"Velocity":64,"Duration":135338,"SoundDuration":135338,"Delta":556616759},{"NoteNumber":82,"Velocity":72,"Duration":135338,"SoundDuration":135338,"Delta":556729541},{"NoteNumber":81,"Velocity":64,"Duration":135595,"SoundDuration":135595,"Delta":556842323},{"NoteNumber":79,"Velocity":71,"Duration":136882,"SoundDuration":136882,"Delta":556955105},{"NoteNumber":69,"Velocity":82,"Duration":228136,"SoundDuration":228136,"Delta":556955105},{"NoteNumber":77,"Velocity":66,"Duration":114068,"SoundDuration":114068,"Delta":557069174},{"NoteNumber":86,"Velocity":90,"Duration":236220,"SoundDuration":236220,"Delta":557183242},{"NoteNumber":66,"Velocity":68,"Duration":141732,"SoundDuration":141732,"Delta":557183242},{"NoteNumber":67,"Velocity":62,"Duration":141732,"SoundDuration":141732,"Delta":557301353},{"NoteNumber":66,"Velocity":62,"Duration":141732,"SoundDuration":141732,"Delta":557419463},{"NoteNumber":64,"Velocity":62,"Duration":140837,"SoundDuration":140837,"Delta":557537573},{"NoteNumber":84,"Velocity":94,"Duration":681817,"SoundDuration":681817,"Delta":557655683},{"NoteNumber":62,"Velocity":66,"Duration":136363,"SoundDuration":136363,"Delta":557655683},{"NoteNumber":64,"Velocity":59,"Duration":136363,"SoundDuration":136363,"Delta":557769320},{"NoteNumber":66,"Velocity":63,"Duration":136363,"SoundDuration":136363,"Delta":557882956},{"NoteNumber":67,"Velocity":59,"Duration":136363,"SoundDuration":136363,"Delta":557996592},{"NoteNumber":68,"Velocity":66,"Duration":136363,"SoundDuration":136363,"Delta":558110228},{"NoteNumber":69,"Velocity":59,"Duration":136536,"SoundDuration":136536,"Delta":558223865},{"NoteNumber":84,"Velocity":87,"Duration":229007,"SoundDuration":229007,"Delta":558337501},{"NoteNumber":70,"Velocity":65,"Duration":137404,"SoundDuration":137404,"Delta":558337501},{"NoteNumber":69,"Velocity":60,"Duration":114503,"SoundDuration":114503,"Delta":558452005},{"NoteNumber":79,"Velocity":74,"Duration":139534,"SoundDuration":139534,"Delta":558566508},{"NoteNumber":72,"Velocity":85,"Duration":232558,"SoundDuration":232558,"Delta":558566508},{"NoteNumber":81,"Velocity":68,"Duration":139534,"SoundDuration":139534,"Delta":558682787},{"NoteNumber":82,"Velocity":68,"Duration":139534,"SoundDuration":139534,"Delta":558799066},{"NoteNumber":84,"Velocity":68,"Duration":138835,"SoundDuration":138835,"Delta":558915345},{"NoteNumber":85,"Velocity":72,"Duration":135338,"SoundDuration":135338,"Delta":559031624},{"NoteNumber":70,"Velocity":89,"Duration":676692,"SoundDuration":676692,"Delta":559031624},{"NoteNumber":86,"Velocity":64,"Duration":135338,"SoundDuration":135338,"Delta":559144406},{"NoteNumber":87,"Velocity":69,"Duration":135338,"SoundDuration":135338,"Delta":559257188},{"NoteNumber":86,"Velocity":64,"Duration":135338,"SoundDuration":135338,"Delta":559369970},{"NoteNumber":84,"Velocity":72,"Duration":135338,"SoundDuration":135338,"Delta":559482752},{"NoteNumber":82,"Velocity":64,"Duration":135595,"SoundDuration":135595,"Delta":559595534},{"NoteNumber":81,"Velocity":71,"Duration":136882,"SoundDuration":136882,"Delta":559708316},{"NoteNumber":70,"Velocity":82,"Duration":228136,"SoundDuration":228136,"Delta":559708316},{"NoteNumber":79,"Velocity":66,"Duration":114068,"SoundDuration":114068,"Delta":559822385},{"NoteNumber":89,"Velocity":90,"Duration":236220,"SoundDuration":236220,"Delta":559936453},{"NoteNumber":69,"Velocity":68,"Duration":141732,"SoundDuration":141732,"Delta":559936453},{"NoteNumber":70,"Velocity":62,"Duration":141732,"SoundDuration":141732,"Delta":560054564},{"NoteNumber":69,"Velocity":62,"Duration":141732,"SoundDuration":141732,"Delta":560172674},{"NoteNumber":67,"Velocity":62,"Duration":140837,"SoundDuration":140837,"Delta":560290784},{"NoteNumber":87,"Velocity":94,"Duration":681817,"SoundDuration":681817,"Delta":560408894},{"NoteNumber":65,"Velocity":66,"Duration":136363,"SoundDuration":136363,"Delta":560408894},{"NoteNumber":67,"Velocity":59,"Duration":136363,"SoundDuration":136363,"Delta":560522531},{"NoteNumber":69,"Velocity":63,"Duration":136363,"SoundDuration":136363,"Delta":560636167},{"NoteNumber":70,"Velocity":59,"Duration":136363,"SoundDuration":136363,"Delta":560749803},{"NoteNumber":71,"Velocity":66,"Duration":136363,"SoundDuration":136363,"Delta":560863439},{"NoteNumber":72,"Velocity":59,"Duration":136536,"SoundDuration":136536,"Delta":560977076},{"NoteNumber":87,"Velocity":87,"Duration":229007,"SoundDuration":229007,"Delta":561090712},{"NoteNumber":74,"Velocity":65,"Duration":137404,"SoundDuration":137404,"Delta":561090712},{"NoteNumber":72,"Velocity":60,"Duration":114503,"SoundDuration":114503,"Delta":561205216},{"NoteNumber":82,"Velocity":74,"Duration":139534,"SoundDuration":139534,"Delta":561319719},{"NoteNumber":75,"Velocity":85,"Duration":232558,"SoundDuration":232558,"Delta":561319719},{"NoteNumber":84,"Velocity":68,"Duration":139534,"SoundDuration":139534,"Delta":561435998},{"NoteNumber":86,"Velocity":68,"Duration":139534,"SoundDuration":139534,"Delta":561552277},{"NoteNumber":87,"Velocity":68,"Duration":138835,"SoundDuration":138835,"Delta":561668556},{"NoteNumber":88,"Velocity":72,"Duration":135338,"SoundDuration":135338,"Delta":561784835},{"NoteNumber":74,"Velocity":89,"Duration":676692,"SoundDuration":676692,"Delta":561784835},{"NoteNumber":89,"Velocity":65,"Duration":135338,"SoundDuration":135338,"Delta":561897617},{"NoteNumber":91,"Velocity":70,"Duration":135338,"SoundDuration":135338,"Delta":562010399},{"NoteNumber":89,"Velocity":65,"Duration":135338,"SoundDuration":135338,"Delta":562123181},{"NoteNumber":88,"Velocity":74,"Duration":135338,"SoundDuration":135338,"Delta":562235963},{"NoteNumber":89,"Velocity":65,"Duration":135595,"SoundDuration":135595,"Delta":562348745},{"NoteNumber":90,"Velocity":73,"Duration":136882,"SoundDuration":136882,"Delta":562461527},{"NoteNumber":75,"Velocity":85,"Duration":114068,"SoundDuration":114068,"Delta":562461527},{"NoteNumber":89,"Velocity":68,"Duration":114068,"SoundDuration":114068,"Delta":562575596},{"NoteNumber":73,"Velocity":76,"Duration":114068,"SoundDuration":114068,"Delta":562575596},{"NoteNumber":86,"Velocity":75,"Duration":135338,"SoundDuration":135338,"Delta":562689664},{"NoteNumber":71,"Velocity":86,"Duration":135338,"SoundDuration":135338,"Delta":562689664},{"NoteNumber":87,"Velocity":70,"Duration":135338,"SoundDuration":135338,"Delta":562802446},{"NoteNumber":72,"Velocity":79,"Duration":135338,"SoundDuration":135338,"Delta":562802446},{"NoteNumber":89,"Velocity":70,"Duration":136591,"SoundDuration":136591,"Delta":562915228},{"NoteNumber":73,"Velocity":79,"Duration":136591,"SoundDuration":136591,"Delta":562915228},{"NoteNumber":87,"Velocity":71,"Duration":119047,"SoundDuration":119047,"Delta":563028010},{"NoteNumber":72,"Velocity":80,"Duration":119047,"SoundDuration":119047,"Delta":563028010},{"NoteNumber":84,"Velocity":76,"Duration":135849,"SoundDuration":135849,"Delta":563147058},{"NoteNumber":69,"Velocity":86,"Duration":135849,"SoundDuration":135849,"Delta":563147058},{"NoteNumber":85,"Velocity":71,"Duration":135849,"SoundDuration":135849,"Delta":563260265},{"NoteNumber":70,"Velocity":83,"Duration":135849,"SoundDuration":135849,"Delta":563260265},{"NoteNumber":87,"Velocity":71,"Duration":137017,"SoundDuration":137017,"Delta":563373473},{"NoteNumber":72,"Velocity":83,"Duration":137017,"SoundDuration":137017,"Delta":563373473},{"NoteNumber":85,"Velocity":71,"Duration":119047,"SoundDuration":119047,"Delta":563486680},{"NoteNumber":70,"Velocity":83,"Duration":119047,"SoundDuration":119047,"Delta":563486680},{"NoteNumber":83,"Velocity":77,"Duration":135338,"SoundDuration":135338,"Delta":563605728},{"NoteNumber":68,"Velocity":88,"Duration":135338,"SoundDuration":135338,"Delta":563605728},{"NoteNumber":84,"Velocity":72,"Duration":135338,"SoundDuration":135338,"Delta":563718510},{"NoteNumber":69,"Velocity":84,"Duration":135338,"SoundDuration":135338,"Delta":563718510},{"NoteNumber":85,"Velocity":73,"Duration":136591,"SoundDuration":136591,"Delta":563831292},{"NoteNumber":70,"Velocity":85,"Duration":136591,"SoundDuration":136591,"Delta":563831292},{"NoteNumber":84,"Velocity":73,"Duration":119047,"SoundDuration":119047,"Delta":563944074},{"NoteNumber":69,"Velocity":85,"Duration":119047,"SoundDuration":119047,"Delta":563944074},{"NoteNumber":75,"Velocity":89,"Duration":115384,"SoundDuration":115384,"Delta":564063121},{"NoteNumber":29,"Velocity":84,"Duration":115384,"SoundDuration":115384,"Delta":564063121},{"NoteNumber":90,"Velocity":95,"Duration":224009,"SoundDuration":224009,"Delta":564293890},{"NoteNumber":66,"Velocity":66,"Duration":1117285,"SoundDuration":1117285,"Delta":564517900},{"NoteNumber":72,"Velocity":66,"Duration":890012,"SoundDuration":890012,"Delta":564517900},{"NoteNumber":77,"Velocity":72,"Duration":112059,"SoundDuration":112059,"Delta":564517900},{"NoteNumber":45,"Velocity":66,"Duration":74763,"SoundDuration":74763,"Delta":564517900},{"NoteNumber":46,"Velocity":58,"Duration":74470,"SoundDuration":74470,"Delta":564592663},{"NoteNumber":75,"Velocity":65,"Duration":111355,"SoundDuration":111355,"Delta":564629959},{"NoteNumber":45,"Velocity":66,"Duration":74180,"SoundDuration":74180,"Delta":564667134},{"NoteNumber":77,"Velocity":72,"Duration":110728,"SoundDuration":110728,"Delta":564741315},{"NoteNumber":46,"Velocity":59,"Duration":73889,"SoundDuration":73889,"Delta":564741315},{"NoteNumber":45,"Velocity":66,"Duration":73580,"SoundDuration":73580,"Delta":564815204},{"NoteNumber":75,"Velocity":67,"Duration":110038,"SoundDuration":110038,"Delta":564852044},{"NoteNumber":46,"Velocity":60,"Duration":73297,"SoundDuration":73297,"Delta":564888785},{"NoteNumber":77,"Velocity":72,"Duration":110483,"SoundDuration":110483,"Delta":564962082},{"NoteNumber":45,"Velocity":66,"Duration":73583,"SoundDuration":73583,"Delta":564962082},{"NoteNumber":46,"Velocity":66,"Duration":73869,"SoundDuration":73869,"Delta":565035665},{"NoteNumber":75,"Velocity":67,"Duration":111125,"SoundDuration":111125,"Delta":565072566},{"NoteNumber":45,"Velocity":66,"Duration":74156,"SoundDuration":74156,"Delta":565109534},{"NoteNumber":74,"Velocity":72,"Duration":111759,"SoundDuration":111759,"Delta":565183691},{"NoteNumber":46,"Velocity":60,"Duration":55789,"SoundDuration":55789,"Delta":565183691},{"NoteNumber":45,"Velocity":66,"Duration":55970,"SoundDuration":55970,"Delta":565239481},{"NoteNumber":75,"Velocity":66,"Duration":112461,"SoundDuration":112461,"Delta":565295451},{"NoteNumber":43,"Velocity":60,"Duration":56151,"SoundDuration":56151,"Delta":565295451},{"NoteNumber":45,"Velocity":60,"Duration":56310,"SoundDuration":56310,"Delta":565351603},{"NoteNumber":74,"Velocity":74,"Duration":450321,"SoundDuration":450321,"Delta":565407913},{"NoteNumber":46,"Velocity":71,"Duration":450321,"SoundDuration":450321,"Delta":565407913},{"NoteNumber":58,"Velocity":73,"Duration":223048,"SoundDuration":223048,"Delta":565635185},{"NoteNumber":65,"Velocity":73,"Duration":223048,"SoundDuration":223048,"Delta":565635185},{"NoteNumber":70,"Velocity":75,"Duration":229007,"SoundDuration":229007,"Delta":565858234},{"NoteNumber":74,"Velocity":69,"Duration":111111,"SoundDuration":111111,"Delta":566087241},{"NoteNumber":46,"Velocity":60,"Duration":111111,"SoundDuration":111111,"Delta":566087241},{"NoteNumber":75,"Velocity":61,"Duration":111110,"SoundDuration":111110,"Delta":566198352},{"NoteNumber":45,"Velocity":52,"Duration":111110,"SoundDuration":111110,"Delta":566198352},{"NoteNumber":77,"Velocity":66,"Duration":111111,"SoundDuration":111111,"Delta":566309463},{"NoteNumber":43,"Velocity":59,"Duration":111111,"SoundDuration":111111,"Delta":566309463},{"NoteNumber":79,"Velocity":67,"Duration":111110,"SoundDuration":111110,"Delta":566420574},{"NoteNumber":41,"Velocity":59,"Duration":111110,"SoundDuration":111110,"Delta":566420574},{"NoteNumber":81,"Velocity":68,"Duration":111111,"SoundDuration":111111,"Delta":566531685},{"NoteNumber":39,"Velocity":63,"Duration":111111,"SoundDuration":111111,"Delta":566531685},{"NoteNumber":82,"Velocity":69,"Duration":120482,"SoundDuration":120482,"Delta":566642796},{"NoteNumber":38,"Velocity":64,"Duration":120482,"SoundDuration":120482,"Delta":566642796},{"NoteNumber":77,"Velocity":78,"Duration":445270,"SoundDuration":445270,"Delta":566763278},{"NoteNumber":41,"Velocity":69,"Duration":445270,"SoundDuration":445270,"Delta":566763278},{"NoteNumber":62,"Velocity":73,"Duration":223048,"SoundDuration":223048,"Delta":566985500},{"NoteNumber":74,"Velocity":75,"Duration":229007,"SoundDuration":229007,"Delta":567208549},{"NoteNumber":77,"Velocity":69,"Duration":111111,"SoundDuration":111111,"Delta":567437556},{"NoteNumber":43,"Velocity":60,"Duration":111111,"SoundDuration":111111,"Delta":567437556},{"NoteNumber":79,"Velocity":61,"Duration":111110,"SoundDuration":111110,"Delta":567548667},{"NoteNumber":41,"Velocity":52,"Duration":111110,"SoundDuration":111110,"Delta":567548667},{"NoteNumber":81,"Velocity":66,"Duration":111111,"SoundDuration":111111,"Delta":567659778},{"NoteNumber":39,"Velocity":59,"Duration":111111,"SoundDuration":111111,"Delta":567659778},{"NoteNumber":82,"Velocity":67,"Duration":111110,"SoundDuration":111110,"Delta":567770889},{"NoteNumber":38,"Velocity":59,"Duration":111110,"SoundDuration":111110,"Delta":567770889},{"NoteNumber":84,"Velocity":68,"Duration":111111,"SoundDuration":111111,"Delta":567882000},{"NoteNumber":36,"Velocity":63,"Duration":111111,"SoundDuration":111111,"Delta":567882000},{"NoteNumber":86,"Velocity":69,"Duration":120482,"SoundDuration":120482,"Delta":567993111},{"NoteNumber":34,"Velocity":64,"Duration":120482,"SoundDuration":120482,"Delta":567993111},{"NoteNumber":79,"Velocity":78,"Duration":445270,"SoundDuration":445270,"Delta":568113593},{"NoteNumber":39,"Velocity":69,"Duration":445270,"SoundDuration":445270,"Delta":568113593},{"NoteNumber":63,"Velocity":73,"Duration":223048,"SoundDuration":223048,"Delta":568335815},{"NoteNumber":75,"Velocity":75,"Duration":229007,"SoundDuration":229007,"Delta":568558864},{"NoteNumber":79,"Velocity":69,"Duration":111111,"SoundDuration":111111,"Delta":568787871},{"NoteNumber":39,"Velocity":60,"Duration":111111,"SoundDuration":111111,"Delta":568787871},{"NoteNumber":81,"Velocity":61,"Duration":111110,"SoundDuration":111110,"Delta":568898982},{"NoteNumber":38,"Velocity":52,"Duration":111110,"SoundDuration":111110,"Delta":568898982},{"NoteNumber":82,"Velocity":66,"Duration":111111,"SoundDuration":111111,"Delta":569010093},{"NoteNumber":36,"Velocity":59,"Duration":111111,"SoundDuration":111111,"Delta":569010093},{"NoteNumber":83,"Velocity":67,"Duration":111110,"SoundDuration":111110,"Delta":569121204},{"NoteNumber":38,"Velocity":59,"Duration":111110,"SoundDuration":111110,"Delta":569121204},{"NoteNumber":84,"Velocity":68,"Duration":111111,"SoundDuration":111111,"Delta":569232315},{"NoteNumber":36,"Velocity":63,"Duration":111111,"SoundDuration":111111,"Delta":569232315},{"NoteNumber":86,"Velocity":69,"Duration":120482,"SoundDuration":120482,"Delta":569343426},{"NoteNumber":34,"Velocity":64,"Duration":120482,"SoundDuration":120482,"Delta":569343426},{"NoteNumber":87,"Velocity":78,"Duration":229884,"SoundDuration":229884,"Delta":569463908},{"NoteNumber":33,"Velocity":59,"Duration":229884,"SoundDuration":229884,"Delta":569463908},{"NoteNumber":88,"Velocity":83,"Duration":344827,"SoundDuration":344827,"Delta":569693793},{"NoteNumber":45,"Velocity":60,"Duration":114942,"SoundDuration":114942,"Delta":569693793},{"NoteNumber":43,"Velocity":52,"Duration":114942,"SoundDuration":114942,"Delta":569808736},{"NoteNumber":53,"Velocity":59,"Duration":229884,"SoundDuration":229884,"Delta":569923678},{"NoteNumber":41,"Velocity":59,"Duration":229884,"SoundDuration":229884,"Delta":569923678},{"NoteNumber":89,"Velocity":73,"Duration":114942,"SoundDuration":114942,"Delta":570038621},{"NoteNumber":87,"Velocity":81,"Duration":113800,"SoundDuration":113800,"Delta":570153563},{"NoteNumber":86,"Velocity":78,"Duration":113942,"SoundDuration":113942,"Delta":570267364},{"NoteNumber":84,"Velocity":79,"Duration":113219,"SoundDuration":113219,"Delta":570381307},{"NoteNumber":69,"Velocity":59,"Duration":75600,"SoundDuration":75600,"Delta":570381307},{"NoteNumber":70,"Velocity":54,"Duration":75212,"SoundDuration":75212,"Delta":570456907},{"NoteNumber":82,"Velocity":75,"Duration":112503,"SoundDuration":112503,"Delta":570494526},{"NoteNumber":69,"Velocity":59,"Duration":74909,"SoundDuration":74909,"Delta":570532120},{"NoteNumber":81,"Velocity":75,"Duration":111780,"SoundDuration":111780,"Delta":570607030},{"NoteNumber":70,"Velocity":54,"Duration":74606,"SoundDuration":74606,"Delta":570607030},{"NoteNumber":69,"Velocity":59,"Duration":74228,"SoundDuration":74228,"Delta":570681636},{"NoteNumber":79,"Velocity":75,"Duration":111032,"SoundDuration":111032,"Delta":570718810},{"NoteNumber":70,"Velocity":53,"Duration":73978,"SoundDuration":73978,"Delta":570755865},{"NoteNumber":77,"Velocity":80,"Duration":110691,"SoundDuration":110691,"Delta":570829843},{"NoteNumber":69,"Velocity":59,"Duration":73678,"SoundDuration":73678,"Delta":570829843},{"NoteNumber":70,"Velocity":54,"Duration":74129,"SoundDuration":74129,"Delta":570903522},{"NoteNumber":79,"Velocity":70,"Duration":111652,"SoundDuration":111652,"Delta":570940535},{"NoteNumber":69,"Velocity":59,"Duration":74536,"SoundDuration":74536,"Delta":570977651},{"NoteNumber":77,"Velocity":76,"Duration":112683,"SoundDuration":112683,"Delta":571052188},{"NoteNumber":70,"Velocity":53,"Duration":56218,"SoundDuration":56218,"Delta":571052188},{"NoteNumber":69,"Velocity":56,"Duration":56465,"SoundDuration":56465,"Delta":571108406},{"NoteNumber":75,"Velocity":68,"Duration":113673,"SoundDuration":113673,"Delta":571164872},{"NoteNumber":67,"Velocity":53,"Duration":56710,"SoundDuration":56710,"Delta":571164872},{"NoteNumber":69,"Velocity":53,"Duration":56962,"SoundDuration":56962,"Delta":571221583},{"NoteNumber":74,"Velocity":74,"Duration":120482,"SoundDuration":120482,"Delta":571278545},{"NoteNumber":70,"Velocity":59,"Duration":465683,"SoundDuration":465683,"Delta":571278545},{"NoteNumber":75,"Velocity":68,"Duration":120481,"SoundDuration":120481,"Delta":571399027},{"NoteNumber":77,"Velocity":73,"Duration":112359,"SoundDuration":112359,"Delta":571519509},{"NoteNumber":46,"Velocity":73,"Duration":112359,"SoundDuration":112359,"Delta":571519509},{"NoteNumber":76,"Velocity":66,"Duration":112359,"SoundDuration":112359,"Delta":571631869},{"NoteNumber":77,"Velocity":78,"Duration":223112,"SoundDuration":223112,"Delta":571744228},{"NoteNumber":62,"Velocity":73,"Duration":55848,"SoundDuration":55848,"Delta":571744228},{"NoteNumber":63,"Velocity":68,"Duration":55894,"SoundDuration":55894,"Delta":571800076},{"NoteNumber":62,"Velocity":73,"Duration":55970,"SoundDuration":55970,"Delta":571855971},{"NoteNumber":63,"Velocity":68,"Duration":55399,"SoundDuration":55399,"Delta":571911941},{"NoteNumber":70,"Velocity":73,"Duration":111278,"SoundDuration":111278,"Delta":571967340},{"NoteNumber":69,"Velocity":74,"Duration":111971,"SoundDuration":111971,"Delta":572078619},{"NoteNumber":67,"Velocity":72,"Duration":112475,"SoundDuration":112475,"Delta":572190591},{"NoteNumber":65,"Velocity":69,"Duration":112966,"SoundDuration":112966,"Delta":572303066},{"NoteNumber":63,"Velocity":67,"Duration":113461,"SoundDuration":113461,"Delta":572416033},{"NoteNumber":62,"Velocity":64,"Duration":113960,"SoundDuration":113960,"Delta":572529494},{"NoteNumber":59,"Velocity":78,"Duration":223880,"SoundDuration":223880,"Delta":572643454},{"NoteNumber":67,"Velocity":73,"Duration":447761,"SoundDuration":447761,"Delta":572643454},{"NoteNumber":75,"Velocity":64,"Duration":75600,"SoundDuration":75600,"Delta":573091215},{"NoteNumber":77,"Velocity":59,"Duration":75212,"SoundDuration":75212,"Delta":573166815},{"NoteNumber":75,"Velocity":64,"Duration":74909,"SoundDuration":74909,"Delta":573242028},{"NoteNumber":77,"Velocity":59,"Duration":74103,"SoundDuration":74103,"Delta":573316938},{"NoteNumber":67,"Velocity":73,"Duration":111278,"SoundDuration":111278,"Delta":573316938},{"NoteNumber":75,"Velocity":64,"Duration":74470,"SoundDuration":74470,"Delta":573391042},{"NoteNumber":65,"Velocity":74,"Duration":111971,"SoundDuration":111971,"Delta":573428216},{"NoteNumber":77,"Velocity":58,"Duration":74675,"SoundDuration":74675,"Delta":573465513},{"NoteNumber":75,"Velocity":64,"Duration":74349,"SoundDuration":74349,"Delta":573540188},{"NoteNumber":63,"Velocity":72,"Duration":111870,"SoundDuration":111870,"Delta":573540188},{"NoteNumber":77,"Velocity":59,"Duration":75114,"SoundDuration":75114,"Delta":573614538},{"NoteNumber":62,"Velocity":69,"Duration":112966,"SoundDuration":112966,"Delta":573652058},{"NoteNumber":75,"Velocity":64,"Duration":75372,"SoundDuration":75372,"Delta":573689652},{"NoteNumber":77,"Velocity":58,"Duration":56643,"SoundDuration":56643,"Delta":573765025},{"NoteNumber":60,"Velocity":67,"Duration":113461,"SoundDuration":113461,"Delta":573765025},{"NoteNumber":75,"Velocity":61,"Duration":56818,"SoundDuration":56818,"Delta":573821668},{"NoteNumber":74,"Velocity":58,"Duration":56926,"SoundDuration":56926,"Delta":573878486},{"NoteNumber":59,"Velocity":64,"Duration":113960,"SoundDuration":113960,"Delta":573878486},{"NoteNumber":75,"Velocity":58,"Duration":57034,"SoundDuration":57034,"Delta":573935412},{"NoteNumber":79,"Velocity":64,"Duration":462470,"SoundDuration":462470,"Delta":573992446},{"NoteNumber":63,"Velocity":73,"Duration":462470,"SoundDuration":462470,"Delta":573992446},{"NoteNumber":51,"Velocity":73,"Duration":114503,"SoundDuration":114503,"Delta":574225909},{"NoteNumber":60,"Velocity":73,"Duration":56491,"SoundDuration":56491,"Delta":574454917},{"NoteNumber":62,"Velocity":68,"Duration":55894,"SoundDuration":55894,"Delta":574511408},{"NoteNumber":60,"Velocity":73,"Duration":55970,"SoundDuration":55970,"Delta":574567303},{"NoteNumber":62,"Velocity":68,"Duration":55399,"SoundDuration":55399,"Delta":574623273},{"NoteNumber":79,"Velocity":73,"Duration":111278,"SoundDuration":111278,"Delta":574678673},{"NoteNumber":63,"Velocity":62,"Duration":111278,"SoundDuration":111278,"Delta":574678673},{"NoteNumber":77,"Velocity":74,"Duration":111971,"SoundDuration":111971,"Delta":574789951},{"NoteNumber":62,"Velocity":62,"Duration":111971,"SoundDuration":111971,"Delta":574789951},{"NoteNumber":75,"Velocity":72,"Duration":112475,"SoundDuration":112475,"Delta":574901923},{"NoteNumber":60,"Velocity":61,"Duration":112475,"SoundDuration":112475,"Delta":574901923},{"NoteNumber":74,"Velocity":69,"Duration":112966,"SoundDuration":112966,"Delta":575014398},{"NoteNumber":59,"Velocity":58,"Duration":112966,"SoundDuration":112966,"Delta":575014398},{"NoteNumber":72,"Velocity":67,"Duration":113461,"SoundDuration":113461,"Delta":575127365},{"NoteNumber":57,"Velocity":56,"Duration":113461,"SoundDuration":113461,"Delta":575127365},{"NoteNumber":71,"Velocity":64,"Duration":113960,"SoundDuration":113960,"Delta":575240826},{"NoteNumber":55,"Velocity":54,"Duration":113960,"SoundDuration":113960,"Delta":575240826},{"NoteNumber":72,"Velocity":73,"Duration":447761,"SoundDuration":447761,"Delta":575354786},{"NoteNumber":36,"Velocity":73,"Duration":223880,"SoundDuration":223880,"Delta":575354786},{"NoteNumber":63,"Velocity":62,"Duration":447761,"SoundDuration":447761,"Delta":575354786},{"NoteNumber":67,"Velocity":73,"Duration":448973,"SoundDuration":448973,"Delta":575802547},{"NoteNumber":52,"Velocity":59,"Duration":75600,"SoundDuration":75600,"Delta":575802547},{"NoteNumber":53,"Velocity":54,"Duration":75212,"SoundDuration":75212,"Delta":575878148},{"NoteNumber":52,"Velocity":59,"Duration":74909,"SoundDuration":74909,"Delta":575953360},{"NoteNumber":72,"Velocity":73,"Duration":111278,"SoundDuration":111278,"Delta":576028270},{"NoteNumber":53,"Velocity":54,"Duration":74103,"SoundDuration":74103,"Delta":576028270},{"NoteNumber":52,"Velocity":59,"Duration":74470,"SoundDuration":74470,"Delta":576102374},{"NoteNumber":70,"Velocity":70,"Duration":111971,"SoundDuration":111971,"Delta":576139549},{"NoteNumber":53,"Velocity":53,"Duration":74675,"SoundDuration":74675,"Delta":576176845},{"NoteNumber":60,"Velocity":73,"Duration":452863,"SoundDuration":452863,"Delta":576251520},{"NoteNumber":69,"Velocity":72,"Duration":112475,"SoundDuration":112475,"Delta":576251520},{"NoteNumber":52,"Velocity":59,"Duration":74906,"SoundDuration":74906,"Delta":576251520},{"NoteNumber":53,"Velocity":54,"Duration":75163,"SoundDuration":75163,"Delta":576326427},{"NoteNumber":67,"Velocity":69,"Duration":112966,"SoundDuration":112966,"Delta":576363996},{"NoteNumber":52,"Velocity":59,"Duration":75372,"SoundDuration":75372,"Delta":576401590},{"NoteNumber":65,"Velocity":67,"Duration":113461,"SoundDuration":113461,"Delta":576476962},{"NoteNumber":53,"Velocity":53,"Duration":56643,"SoundDuration":56643,"Delta":576476962},{"NoteNumber":52,"Velocity":56,"Duration":56818,"SoundDuration":56818,"Delta":576533606},{"NoteNumber":64,"Velocity":64,"Duration":113960,"SoundDuration":113960,"Delta":576590424},{"NoteNumber":50,"Velocity":53,"Duration":56926,"SoundDuration":56926,"Delta":576590424},{"NoteNumber":52,"Velocity":53,"Duration":57034,"SoundDuration":57034,"Delta":576647350},{"NoteNumber":62,"Velocity":64,"Duration":114068,"SoundDuration":114068,"Delta":576704384},{"NoteNumber":53,"Velocity":59,"Duration":457144,"SoundDuration":457144,"Delta":576704384},{"NoteNumber":60,"Velocity":61,"Duration":114068,"SoundDuration":114068,"Delta":576818453},{"NoteNumber":58,"Velocity":59,"Duration":114503,"SoundDuration":114503,"Delta":576932521},{"NoteNumber":57,"Velocity":58,"Duration":114503,"SoundDuration":114503,"Delta":577047025},{"NoteNumber":69,"Velocity":73,"Duration":229007,"SoundDuration":229007,"Delta":577161529},{"NoteNumber":62,"Velocity":68,"Duration":111111,"SoundDuration":111111,"Delta":577390536},{"NoteNumber":53,"Velocity":64,"Duration":111111,"SoundDuration":111111,"Delta":577390536},{"NoteNumber":60,"Velocity":64,"Duration":111110,"SoundDuration":111110,"Delta":577501647},{"NoteNumber":52,"Velocity":59,"Duration":111110,"SoundDuration":111110,"Delta":577501647},{"NoteNumber":58,"Velocity":68,"Duration":111111,"SoundDuration":111111,"Delta":577612758},{"NoteNumber":50,"Velocity":65,"Duration":111111,"SoundDuration":111111,"Delta":577612758},{"NoteNumber":57,"Velocity":65,"Duration":110964,"SoundDuration":110964,"Delta":577723869},{"NoteNumber":48,"Velocity":62,"Duration":110964,"SoundDuration":110964,"Delta":577723869},{"NoteNumber":55,"Velocity":63,"Duration":110827,"SoundDuration":110827,"Delta":577834833},{"NoteNumber":46,"Velocity":59,"Duration":110827,"SoundDuration":110827,"Delta":577834833},{"NoteNumber":53,"Velocity":60,"Duration":111303,"SoundDuration":111303,"Delta":577945661},{"NoteNumber":45,"Velocity":56,"Duration":111303,"SoundDuration":111303,"Delta":577945661},{"NoteNumber":52,"Velocity":64,"Duration":111784,"SoundDuration":111784,"Delta":578056964},{"NoteNumber":55,"Velocity":86,"Duration":450056,"SoundDuration":450056,"Delta":578056964},{"NoteNumber":50,"Velocity":64,"Duration":112268,"SoundDuration":112268,"Delta":578168749},{"NoteNumber":48,"Velocity":62,"Duration":112796,"SoundDuration":112796,"Delta":578281017},{"NoteNumber":46,"Velocity":61,"Duration":113207,"SoundDuration":113207,"Delta":578393814},{"NoteNumber":58,"Velocity":76,"Duration":221402,"SoundDuration":221402,"Delta":578507021},{"NoteNumber":75,"Velocity":76,"Duration":110700,"SoundDuration":110700,"Delta":578728423},{"NoteNumber":55,"Velocity":64,"Duration":110700,"SoundDuration":110700,"Delta":578728423},{"NoteNumber":74,"Velocity":71,"Duration":110701,"SoundDuration":110701,"Delta":578839124},{"NoteNumber":53,"Velocity":60,"Duration":110701,"SoundDuration":110701,"Delta":578839124},{"NoteNumber":72,"Velocity":77,"Duration":109943,"SoundDuration":109943,"Delta":578949825},{"NoteNumber":51,"Velocity":64,"Duration":109943,"SoundDuration":109943,"Delta":578949825},{"NoteNumber":70,"Velocity":74,"Duration":109863,"SoundDuration":109863,"Delta":579059769},{"NoteNumber":50,"Velocity":61,"Duration":109863,"SoundDuration":109863,"Delta":579059769},{"NoteNumber":69,"Velocity":71,"Duration":110504,"SoundDuration":110504,"Delta":579169632},{"NoteNumber":48,"Velocity":60,"Duration":110504,"SoundDuration":110504,"Delta":579169632},{"NoteNumber":67,"Velocity":68,"Duration":111166,"SoundDuration":111166,"Delta":579280137},{"NoteNumber":46,"Velocity":59,"Duration":111166,"SoundDuration":111166,"Delta":579280137},{"NoteNumber":65,"Velocity":74,"Duration":111784,"SoundDuration":111784,"Delta":579391303},{"NoteNumber":57,"Velocity":64,"Duration":450589,"SoundDuration":450589,"Delta":579391303},{"NoteNumber":63,"Velocity":73,"Duration":112507,"SoundDuration":112507,"Delta":579503087},{"NoteNumber":62,"Velocity":71,"Duration":113090,"SoundDuration":113090,"Delta":579615595},{"NoteNumber":60,"Velocity":69,"Duration":113207,"SoundDuration":113207,"Delta":579728685},{"NoteNumber":72,"Velocity":77,"Duration":221402,"SoundDuration":221402,"Delta":579841893},{"NoteNumber":60,"Velocity":74,"Duration":110700,"SoundDuration":110700,"Delta":580063295},{"NoteNumber":57,"Velocity":62,"Duration":110700,"SoundDuration":110700,"Delta":580063295},{"NoteNumber":58,"Velocity":70,"Duration":110701,"SoundDuration":110701,"Delta":580173996},{"NoteNumber":55,"Velocity":59,"Duration":110701,"SoundDuration":110701,"Delta":580173996},{"NoteNumber":57,"Velocity":76,"Duration":110700,"SoundDuration":110700,"Delta":580284697},{"NoteNumber":53,"Velocity":64,"Duration":110700,"SoundDuration":110700,"Delta":580284697},{"NoteNumber":55,"Velocity":72,"Duration":110701,"SoundDuration":110701,"Delta":580395398},{"NoteNumber":51,"Velocity":61,"Duration":110701,"SoundDuration":110701,"Delta":580395398},{"NoteNumber":53,"Velocity":70,"Duration":110700,"SoundDuration":110700,"Delta":580506099},{"NoteNumber":50,"Velocity":59,"Duration":110700,"SoundDuration":110700,"Delta":580506099},{"NoteNumber":51,"Velocity":68,"Duration":110701,"SoundDuration":110701,"Delta":580616800},{"NoteNumber":48,"Velocity":57,"Duration":110701,"SoundDuration":110701,"Delta":580616800},{"NoteNumber":50,"Velocity":72,"Duration":112782,"SoundDuration":112782,"Delta":580727501},{"NoteNumber":46,"Velocity":61,"Duration":112782,"SoundDuration":112782,"Delta":580727501},{"NoteNumber":60,"Velocity":79,"Duration":109091,"SoundDuration":109091,"Delta":580840283},{"NoteNumber":57,"Velocity":67,"Duration":109091,"SoundDuration":109091,"Delta":580840283},{"NoteNumber":58,"Velocity":69,"Duration":109090,"SoundDuration":109090,"Delta":580949374},{"NoteNumber":55,"Velocity":58,"Duration":109090,"SoundDuration":109090,"Delta":580949374},{"NoteNumber":57,"Velocity":66,"Duration":109091,"SoundDuration":109091,"Delta":581058465},{"NoteNumber":53,"Velocity":56,"Duration":109091,"SoundDuration":109091,"Delta":581058465},{"NoteNumber":62,"Velocity":61,"Duration":218181,"SoundDuration":218181,"Delta":581167556},{"NoteNumber":74,"Velocity":76,"Duration":109091,"SoundDuration":109091,"Delta":581167556},{"NoteNumber":58,"Velocity":64,"Duration":109091,"SoundDuration":109091,"Delta":581167556},{"NoteNumber":72,"Velocity":72,"Duration":109090,"SoundDuration":109090,"Delta":581276647},{"NoteNumber":57,"Velocity":61,"Duration":109090,"SoundDuration":109090,"Delta":581276647},{"NoteNumber":77,"Velocity":76,"Duration":109091,"SoundDuration":109091,"Delta":581385738},{"NoteNumber":62,"Velocity":64,"Duration":109091,"SoundDuration":109091,"Delta":581385738},{"NoteNumber":75,"Velocity":71,"Duration":113636,"SoundDuration":113636,"Delta":581494829},{"NoteNumber":60,"Velocity":60,"Duration":113636,"SoundDuration":113636,"Delta":581494829},{"NoteNumber":74,"Velocity":79,"Duration":109489,"SoundDuration":109489,"Delta":581608465},{"NoteNumber":58,"Velocity":67,"Duration":109489,"SoundDuration":109489,"Delta":581608465},{"NoteNumber":72,"Velocity":76,"Duration":109488,"SoundDuration":109488,"Delta":581717954},{"NoteNumber":57,"Velocity":64,"Duration":109488,"SoundDuration":109488,"Delta":581717954},{"NoteNumber":70,"Velocity":74,"Duration":109489,"SoundDuration":109489,"Delta":581827443},{"NoteNumber":55,"Velocity":62,"Duration":109489,"SoundDuration":109489,"Delta":581827443},{"NoteNumber":69,"Velocity":71,"Duration":113207,"SoundDuration":113207,"Delta":581936932},{"NoteNumber":53,"Velocity":60,"Duration":113207,"SoundDuration":113207,"Delta":581936932},{"NoteNumber":79,"Velocity":78,"Duration":109489,"SoundDuration":109489,"Delta":582050140},{"NoteNumber":51,"Velocity":66,"Duration":109489,"SoundDuration":109489,"Delta":582050140},{"NoteNumber":77,"Velocity":76,"Duration":109488,"SoundDuration":109488,"Delta":582159629},{"NoteNumber":50,"Velocity":64,"Duration":109488,"SoundDuration":109488,"Delta":582159629},{"NoteNumber":75,"Velocity":73,"Duration":109489,"SoundDuration":109489,"Delta":582269118},{"NoteNumber":48,"Velocity":62,"Duration":109489,"SoundDuration":109489,"Delta":582269118},{"NoteNumber":74,"Velocity":71,"Duration":114503,"SoundDuration":114503,"Delta":582378607},{"NoteNumber":46,"Velocity":60,"Duration":114503,"SoundDuration":114503,"Delta":582378607},{"NoteNumber":74,"Velocity":61,"Duration":442970,"SoundDuration":442970,"Delta":582493110},{"NoteNumber":82,"Velocity":81,"Duration":109489,"SoundDuration":109489,"Delta":582493110},{"NoteNumber":43,"Velocity":68,"Duration":109489,"SoundDuration":109489,"Delta":582493110},{"NoteNumber":81,"Velocity":78,"Duration":109488,"SoundDuration":109488,"Delta":582602599},{"NoteNumber":45,"Velocity":66,"Duration":109488,"SoundDuration":109488,"Delta":582602599},{"NoteNumber":79,"Velocity":75,"Duration":109489,"SoundDuration":109489,"Delta":582712088},{"NoteNumber":46,"Velocity":63,"Duration":109489,"SoundDuration":109489,"Delta":582712088},{"NoteNumber":77,"Velocity":72,"Duration":114503,"SoundDuration":114503,"Delta":582821577},{"NoteNumber":47,"Velocity":61,"Duration":114503,"SoundDuration":114503,"Delta":582821577},{"NoteNumber":67,"Velocity":86,"Duration":219780,"SoundDuration":219780,"Delta":582936081},{"NoteNumber":75,"Velocity":86,"Duration":219780,"SoundDuration":219780,"Delta":582936081},{"NoteNumber":48,"Velocity":61,"Duration":109889,"SoundDuration":109889,"Delta":582936081},{"NoteNumber":50,"Velocity":62,"Duration":109890,"SoundDuration":109890,"Delta":583045971},{"NoteNumber":72,"Velocity":86,"Duration":219780,"SoundDuration":219780,"Delta":583155861},{"NoteNumber":51,"Velocity":64,"Duration":109889,"SoundDuration":109889,"Delta":583155861},{"NoteNumber":50,"Velocity":62,"Duration":109890,"SoundDuration":109890,"Delta":583265751},{"NoteNumber":93,"Velocity":86,"Duration":73260,"SoundDuration":73260,"Delta":583375641},{"NoteNumber":48,"Velocity":61,"Duration":109889,"SoundDuration":109889,"Delta":583375641},{"NoteNumber":94,"Velocity":82,"Duration":73260,"SoundDuration":73260,"Delta":583448901},{"NoteNumber":46,"Velocity":58,"Duration":109746,"SoundDuration":109746,"Delta":583485531},{"NoteNumber":93,"Velocity":86,"Duration":73116,"SoundDuration":73116,"Delta":583522161},{"NoteNumber":84,"Velocity":86,"Duration":217680,"SoundDuration":217680,"Delta":583595277},{"NoteNumber":94,"Velocity":81,"Duration":72836,"SoundDuration":72836,"Delta":583595277},{"NoteNumber":45,"Velocity":58,"Duration":109164,"SoundDuration":109164,"Delta":583595277},{"NoteNumber":93,"Velocity":86,"Duration":72559,"SoundDuration":72559,"Delta":583668114},{"NoteNumber":43,"Velocity":57,"Duration":108515,"SoundDuration":108515,"Delta":583704442},{"NoteNumber":94,"Velocity":81,"Duration":72283,"SoundDuration":72283,"Delta":583740674},{"NoteNumber":93,"Velocity":86,"Duration":72010,"SoundDuration":72010,"Delta":583812957},{"NoteNumber":41,"Velocity":61,"Duration":107904,"SoundDuration":107904,"Delta":583812957},{"NoteNumber":94,"Velocity":80,"Duration":71653,"SoundDuration":71653,"Delta":583884968},{"NoteNumber":39,"Velocity":61,"Duration":106987,"SoundDuration":106987,"Delta":583920862},{"NoteNumber":93,"Velocity":86,"Duration":71228,"SoundDuration":71228,"Delta":583956621},{"NoteNumber":94,"Velocity":86,"Duration":53657,"SoundDuration":53657,"Delta":584027850},{"NoteNumber":89,"Velocity":82,"Duration":215991,"SoundDuration":215991,"Delta":584027850},{"NoteNumber":38,"Velocity":64,"Duration":107537,"SoundDuration":107537,"Delta":584027850},{"NoteNumber":93,"Velocity":81,"Duration":53879,"SoundDuration":53879,"Delta":584081508},{"NoteNumber":91,"Velocity":80,"Duration":54106,"SoundDuration":54106,"Delta":584135387},{"NoteNumber":36,"Velocity":66,"Duration":108454,"SoundDuration":108454,"Delta":584135387},{"NoteNumber":93,"Velocity":80,"Duration":54347,"SoundDuration":54347,"Delta":584189493},{"NoteNumber":94,"Velocity":90,"Duration":437803,"SoundDuration":437803,"Delta":584243841},{"NoteNumber":34,"Velocity":76,"Duration":218825,"SoundDuration":218825,"Delta":584243841},{"NoteNumber":86,"Velocity":88,"Duration":218977,"SoundDuration":218977,"Delta":584462667},{"NoteNumber":50,"Velocity":64,"Duration":72992,"SoundDuration":72992,"Delta":584681645},{"NoteNumber":51,"Velocity":59,"Duration":72866,"SoundDuration":72866,"Delta":584754637},{"NoteNumber":50,"Velocity":65,"Duration":72585,"SoundDuration":72585,"Delta":584827504},{"NoteNumber":94,"Velocity":88,"Duration":108375,"SoundDuration":108375,"Delta":584900090},{"NoteNumber":51,"Velocity":60,"Duration":72310,"SoundDuration":72310,"Delta":584900090},{"NoteNumber":50,"Velocity":66,"Duration":72036,"SoundDuration":72036,"Delta":584972400},{"NoteNumber":93,"Velocity":86,"Duration":107720,"SoundDuration":107720,"Delta":585008465},{"NoteNumber":51,"Velocity":61,"Duration":71749,"SoundDuration":71749,"Delta":585044436},{"NoteNumber":91,"Velocity":83,"Duration":107457,"SoundDuration":107457,"Delta":585116186},{"NoteNumber":50,"Velocity":67,"Duration":71537,"SoundDuration":71537,"Delta":585116186},{"NoteNumber":51,"Velocity":62,"Duration":71933,"SoundDuration":71933,"Delta":585187723},{"NoteNumber":89,"Velocity":81,"Duration":108356,"SoundDuration":108356,"Delta":585223643},{"NoteNumber":50,"Velocity":68,"Duration":72342,"SoundDuration":72342,"Delta":585259656},{"NoteNumber":87,"Velocity":78,"Duration":109307,"SoundDuration":109307,"Delta":585331999},{"NoteNumber":51,"Velocity":65,"Duration":54525,"SoundDuration":54525,"Delta":585331999},{"NoteNumber":50,"Velocity":69,"Duration":54781,"SoundDuration":54781,"Delta":585386525},{"NoteNumber":86,"Velocity":76,"Duration":110159,"SoundDuration":110159,"Delta":585441306},{"NoteNumber":48,"Velocity":65,"Duration":55012,"SoundDuration":55012,"Delta":585441306},{"NoteNumber":50,"Velocity":65,"Duration":55147,"SoundDuration":55147,"Delta":585496318},{"NoteNumber":63,"Velocity":77,"Duration":218181,"SoundDuration":218181,"Delta":585551465},{"NoteNumber":91,"Velocity":88,"Duration":218181,"SoundDuration":218181,"Delta":585551465},{"NoteNumber":51,"Velocity":72,"Duration":218181,"SoundDuration":218181,"Delta":585551465},{"NoteNumber":79,"Velocity":81,"Duration":218182,"SoundDuration":218182,"Delta":585769647},{"NoteNumber":79,"Velocity":69,"Duration":72727,"SoundDuration":72727,"Delta":585987829},{"NoteNumber":81,"Velocity":64,"Duration":72727,"SoundDuration":72727,"Delta":586060557},{"NoteNumber":79,"Velocity":68,"Duration":72727,"SoundDuration":72727,"Delta":586133284},{"NoteNumber":81,"Velocity":66,"Duration":72310,"SoundDuration":72310,"Delta":586206011},{"NoteNumber":91,"Velocity":88,"Duration":108375,"SoundDuration":108375,"Delta":586206011},{"NoteNumber":79,"Velocity":69,"Duration":72036,"SoundDuration":72036,"Delta":586278321},{"NoteNumber":89,"Velocity":86,"Duration":107720,"SoundDuration":107720,"Delta":586314387},{"NoteNumber":81,"Velocity":66,"Duration":71749,"SoundDuration":71749,"Delta":586350358},{"NoteNumber":79,"Velocity":71,"Duration":71537,"SoundDuration":71537,"Delta":586422107},{"NoteNumber":87,"Velocity":83,"Duration":107457,"SoundDuration":107457,"Delta":586422107},{"NoteNumber":81,"Velocity":65,"Duration":71933,"SoundDuration":71933,"Delta":586493645},{"NoteNumber":86,"Velocity":81,"Duration":108356,"SoundDuration":108356,"Delta":586529564},{"NoteNumber":79,"Velocity":71,"Duration":72342,"SoundDuration":72342,"Delta":586565578},{"NoteNumber":81,"Velocity":69,"Duration":72773,"SoundDuration":72773,"Delta":586637921},{"NoteNumber":84,"Velocity":78,"Duration":109307,"SoundDuration":109307,"Delta":586637921},{"NoteNumber":79,"Velocity":73,"Duration":73163,"SoundDuration":73163,"Delta":586710695},{"NoteNumber":82,"Velocity":76,"Duration":110159,"SoundDuration":110159,"Delta":586747228},{"NoteNumber":81,"Velocity":67,"Duration":73529,"SoundDuration":73529,"Delta":586783858},{"NoteNumber":87,"Velocity":88,"Duration":440403,"SoundDuration":440403,"Delta":586857387},{"NoteNumber":79,"Velocity":75,"Duration":72727,"SoundDuration":72727,"Delta":586857387},{"NoteNumber":81,"Velocity":70,"Duration":72727,"SoundDuration":72727,"Delta":586930114},{"NoteNumber":79,"Velocity":74,"Duration":72727,"SoundDuration":72727,"Delta":587002842},{"NoteNumber":80,"Velocity":72,"Duration":222221,"SoundDuration":222221,"Delta":587075569},{"NoteNumber":81,"Velocity":78,"Duration":217391,"SoundDuration":217391,"Delta":587297791},{"NoteNumber":87,"Velocity":88,"Duration":108695,"SoundDuration":108695,"Delta":587515183},{"NoteNumber":52,"Velocity":67,"Duration":221055,"SoundDuration":221055,"Delta":587515183},{"NoteNumber":86,"Velocity":82,"Duration":112359,"SoundDuration":112359,"Delta":587623878},{"NoteNumber":84,"Velocity":88,"Duration":109091,"SoundDuration":109091,"Delta":587736238},{"NoteNumber":53,"Velocity":72,"Duration":438797,"SoundDuration":438797,"Delta":587736238},{"NoteNumber":86,"Velocity":82,"Duration":109090,"SoundDuration":109090,"Delta":587845329},{"NoteNumber":64,"Velocity":67,"Duration":220615,"SoundDuration":220615,"Delta":587954420},{"NoteNumber":84,"Velocity":83,"Duration":109091,"SoundDuration":109091,"Delta":587954420},{"NoteNumber":82,"Velocity":83,"Duration":111524,"SoundDuration":111524,"Delta":588063511},{"NoteNumber":65,"Velocity":72,"Duration":216606,"SoundDuration":216606,"Delta":588175035},{"NoteNumber":81,"Velocity":88,"Duration":108303,"SoundDuration":108303,"Delta":588175035},{"NoteNumber":82,"Velocity":83,"Duration":108303,"SoundDuration":108303,"Delta":588283338},{"NoteNumber":81,"Velocity":83,"Duration":108303,"SoundDuration":108303,"Delta":588391642},{"NoteNumber":53,"Velocity":72,"Duration":219827,"SoundDuration":219827,"Delta":588391642},{"NoteNumber":79,"Velocity":83,"Duration":111524,"SoundDuration":111524,"Delta":588499945},{"NoteNumber":77,"Velocity":88,"Duration":108695,"SoundDuration":108695,"Delta":588611469},{"NoteNumber":63,"Velocity":61,"Duration":654589,"SoundDuration":654589,"Delta":588611469},{"NoteNumber":66,"Velocity":72,"Duration":654589,"SoundDuration":654589,"Delta":588611469},{"NoteNumber":79,"Velocity":82,"Duration":108695,"SoundDuration":108695,"Delta":588720165},{"NoteNumber":81,"Velocity":82,"Duration":108695,"SoundDuration":108695,"Delta":588828861},{"NoteNumber":82,"Velocity":82,"Duration":111111,"SoundDuration":111111,"Delta":588937556},{"NoteNumber":83,"Velocity":84,"Duration":108695,"SoundDuration":108695,"Delta":589048667},{"NoteNumber":84,"Velocity":85,"Duration":108695,"SoundDuration":108695,"Delta":589157363},{"NoteNumber":86,"Velocity":86,"Duration":108695,"SoundDuration":108695,"Delta":589266059},{"NoteNumber":66,"Velocity":66,"Duration":217391,"SoundDuration":217391,"Delta":589266059},{"NoteNumber":63,"Velocity":56,"Duration":217391,"SoundDuration":217391,"Delta":589266059},{"NoteNumber":84,"Velocity":84,"Duration":108695,"SoundDuration":108695,"Delta":589374755},{"NoteNumber":82,"Velocity":89,"Duration":108695,"SoundDuration":108695,"Delta":589483450},{"NoteNumber":63,"Velocity":59,"Duration":217391,"SoundDuration":217391,"Delta":589483450},{"NoteNumber":66,"Velocity":70,"Duration":217391,"SoundDuration":217391,"Delta":589483450},{"NoteNumber":84,"Velocity":90,"Duration":108695,"SoundDuration":108695,"Delta":589592146},{"NoteNumber":86,"Velocity":92,"Duration":108695,"SoundDuration":108695,"Delta":589700842},{"NoteNumber":65,"Velocity":67,"Duration":221055,"SoundDuration":221055,"Delta":589700842},{"NoteNumber":62,"Velocity":56,"Duration":221055,"SoundDuration":221055,"Delta":589700842},{"NoteNumber":87,"Velocity":94,"Duration":112359,"SoundDuration":112359,"Delta":589809538},{"NoteNumber":89,"Velocity":96,"Duration":108695,"SoundDuration":108695,"Delta":589921897},{"NoteNumber":60,"Velocity":55,"Duration":217391,"SoundDuration":217391,"Delta":589921897},{"NoteNumber":63,"Velocity":65,"Duration":217391,"SoundDuration":217391,"Delta":589921897},{"NoteNumber":80,"Velocity":82,"Duration":108695,"SoundDuration":108695,"Delta":590030593},{"NoteNumber":81,"Velocity":83,"Duration":108695,"SoundDuration":108695,"Delta":590139289},{"NoteNumber":62,"Velocity":63,"Duration":224974,"SoundDuration":224974,"Delta":590139289},{"NoteNumber":58,"Velocity":53,"Duration":224974,"SoundDuration":224974,"Delta":590139289},{"NoteNumber":82,"Velocity":87,"Duration":116278,"SoundDuration":116278,"Delta":590247984},{"NoteNumber":84,"Velocity":95,"Duration":215827,"SoundDuration":215827,"Delta":590364263},{"NoteNumber":50,"Velocity":63,"Duration":107913,"SoundDuration":107913,"Delta":590364263},{"NoteNumber":51,"Velocity":56,"Duration":107913,"SoundDuration":107913,"Delta":590472177},{"NoteNumber":82,"Velocity":88,"Duration":223048,"SoundDuration":223048,"Delta":590580091},{"NoteNumber":50,"Velocity":57,"Duration":111524,"SoundDuration":111524,"Delta":590580091},{"NoteNumber":48,"Velocity":57,"Duration":111524,"SoundDuration":111524,"Delta":590691615},{"NoteNumber":79,"Velocity":80,"Duration":215418,"SoundDuration":215418,"Delta":590803139},{"NoteNumber":82,"Velocity":95,"Duration":215418,"SoundDuration":215418,"Delta":590803139},{"NoteNumber":46,"Velocity":63,"Duration":107646,"SoundDuration":107646,"Delta":590803139},{"NoteNumber":48,"Velocity":58,"Duration":107771,"SoundDuration":107771,"Delta":590910786},{"NoteNumber":77,"Velocity":75,"Duration":216735,"SoundDuration":216735,"Delta":591018557},{"NoteNumber":80,"Velocity":89,"Duration":216735,"SoundDuration":216735,"Delta":591018557},{"NoteNumber":50,"Velocity":58,"Duration":108140,"SoundDuration":108140,"Delta":591018557},{"NoteNumber":51,"Velocity":58,"Duration":108594,"SoundDuration":108594,"Delta":591126698},{"NoteNumber":70,"Velocity":75,"Duration":218398,"SoundDuration":218398,"Delta":591235293},{"NoteNumber":79,"Velocity":89,"Duration":218398,"SoundDuration":218398,"Delta":591235293},{"NoteNumber":52,"Velocity":61,"Duration":108969,"SoundDuration":108969,"Delta":591235293},{"NoteNumber":53,"Velocity":62,"Duration":109429,"SoundDuration":109429,"Delta":591344262},{"NoteNumber":68,"Velocity":71,"Duration":220080,"SoundDuration":220080,"Delta":591453691},{"NoteNumber":77,"Velocity":84,"Duration":220080,"SoundDuration":220080,"Delta":591453691},{"NoteNumber":55,"Velocity":64,"Duration":109806,"SoundDuration":109806,"Delta":591453691},{"NoteNumber":53,"Velocity":62,"Duration":110273,"SoundDuration":110273,"Delta":591563498},{"NoteNumber":92,"Velocity":100,"Duration":215827,"SoundDuration":215827,"Delta":591673771},{"NoteNumber":89,"Velocity":85,"Duration":215827,"SoundDuration":215827,"Delta":591673771},{"NoteNumber":50,"Velocity":61,"Duration":107913,"SoundDuration":107913,"Delta":591673771},{"NoteNumber":51,"Velocity":63,"Duration":107913,"SoundDuration":107913,"Delta":591781685},{"NoteNumber":87,"Velocity":80,"Duration":164731,"SoundDuration":164731,"Delta":591889599},{"NoteNumber":91,"Velocity":95,"Duration":164731,"SoundDuration":164731,"Delta":591889599},{"NoteNumber":53,"Velocity":65,"Duration":107913,"SoundDuration":107913,"Delta":591889599},{"NoteNumber":51,"Velocity":63,"Duration":113636,"SoundDuration":113636,"Delta":591997513},{"NoteNumber":91,"Velocity":101,"Duration":217391,"SoundDuration":217391,"Delta":592111149},{"NoteNumber":87,"Velocity":85,"Duration":217391,"SoundDuration":217391,"Delta":592111149},{"NoteNumber":47,"Velocity":63,"Duration":108695,"SoundDuration":108695,"Delta":592111149},{"NoteNumber":48,"Velocity":63,"Duration":108695,"SoundDuration":108695,"Delta":592219845},{"NoteNumber":84,"Velocity":80,"Duration":222332,"SoundDuration":222332,"Delta":592328540},{"NoteNumber":87,"Velocity":95,"Duration":222332,"SoundDuration":222332,"Delta":592328540},{"NoteNumber":50,"Velocity":65,"Duration":108695,"SoundDuration":108695,"Delta":592328540},{"NoteNumber":51,"Velocity":66,"Duration":113636,"SoundDuration":113636,"Delta":592437236},{"NoteNumber":86,"Velocity":99,"Duration":216606,"SoundDuration":216606,"Delta":592550872},{"NoteNumber":82,"Velocity":84,"Duration":216606,"SoundDuration":216606,"Delta":592550872},{"NoteNumber":52,"Velocity":68,"Duration":108303,"SoundDuration":108303,"Delta":592550872},{"NoteNumber":53,"Velocity":70,"Duration":108303,"SoundDuration":108303,"Delta":592659176},{"NoteNumber":89,"Velocity":90,"Duration":172132,"SoundDuration":172132,"Delta":592767479},{"NoteNumber":86,"Velocity":76,"Duration":172132,"SoundDuration":172132,"Delta":592767479},{"NoteNumber":55,"Velocity":73,"Duration":108303,"SoundDuration":108303,"Delta":592767479},{"NoteNumber":53,"Velocity":69,"Duration":127659,"SoundDuration":127659,"Delta":592875782},{"NoteNumber":72,"Velocity":83,"Duration":222221,"SoundDuration":222221,"Delta":593003442},{"NoteNumber":75,"Velocity":83,"Duration":222221,"SoundDuration":222221,"Delta":593003442},{"NoteNumber":81,"Velocity":98,"Duration":222221,"SoundDuration":222221,"Delta":593003442},{"NoteNumber":53,"Velocity":71,"Duration":222221,"SoundDuration":222221,"Delta":593003442},{"NoteNumber":41,"Velocity":60,"Duration":222221,"SoundDuration":222221,"Delta":593003442},{"NoteNumber":70,"Velocity":84,"Duration":222221,"SoundDuration":222221,"Delta":593225664},{"NoteNumber":74,"Velocity":84,"Duration":222221,"SoundDuration":222221,"Delta":593225664},{"NoteNumber":82,"Velocity":99,"Duration":222221,"SoundDuration":222221,"Delta":593225664},{"NoteNumber":34,"Velocity":56,"Duration":222221,"SoundDuration":222221,"Delta":593225664},{"NoteNumber":46,"Velocity":67,"Duration":222221,"SoundDuration":222221,"Delta":593225664},{"NoteNumber":80,"Velocity":62,"Duration":222222,"SoundDuration":222222,"Delta":593892330},{"NoteNumber":66,"Velocity":45,"Duration":73428,"SoundDuration":73428,"Delta":594336597},{"NoteNumber":34,"Velocity":45,"Duration":219441,"SoundDuration":219441,"Delta":594336597},{"NoteNumber":67,"Velocity":42,"Duration":73146,"SoundDuration":73146,"Delta":594410025},{"NoteNumber":66,"Velocity":48,"Duration":72866,"SoundDuration":72866,"Delta":594483171},{"NoteNumber":67,"Velocity":46,"Duration":72503,"SoundDuration":72503,"Delta":594556038},{"NoteNumber":66,"Velocity":52,"Duration":72228,"SoundDuration":72228,"Delta":594628541},{"NoteNumber":67,"Velocity":48,"Duration":71788,"SoundDuration":71788,"Delta":594700770},{"NoteNumber":66,"Velocity":56,"Duration":71524,"SoundDuration":71524,"Delta":594772558},{"NoteNumber":50,"Velocity":56,"Duration":71524,"SoundDuration":71524,"Delta":594772558},{"NoteNumber":67,"Velocity":51,"Duration":71874,"SoundDuration":71874,"Delta":594844083},{"NoteNumber":51,"Velocity":51,"Duration":71874,"SoundDuration":71874,"Delta":594844083},{"NoteNumber":66,"Velocity":58,"Duration":72192,"SoundDuration":72192,"Delta":594915958},{"NoteNumber":50,"Velocity":59,"Duration":72192,"SoundDuration":72192,"Delta":594915958},{"NoteNumber":67,"Velocity":55,"Duration":54423,"SoundDuration":54423,"Delta":594988150},{"NoteNumber":51,"Velocity":55,"Duration":54423,"SoundDuration":54423,"Delta":594988150},{"NoteNumber":66,"Velocity":63,"Duration":54568,"SoundDuration":54568,"Delta":595042574},{"NoteNumber":50,"Velocity":63,"Duration":54568,"SoundDuration":54568,"Delta":595042574},{"NoteNumber":67,"Velocity":58,"Duration":54797,"SoundDuration":54797,"Delta":595097143},{"NoteNumber":51,"Velocity":56,"Duration":54797,"SoundDuration":54797,"Delta":595097143},{"NoteNumber":66,"Velocity":60,"Duration":55032,"SoundDuration":55032,"Delta":595151941},{"NoteNumber":50,"Velocity":58,"Duration":55032,"SoundDuration":55032,"Delta":595151941},{"NoteNumber":78,"Velocity":93,"Duration":221402,"SoundDuration":221402,"Delta":595206973},{"NoteNumber":51,"Velocity":67,"Duration":221402,"SoundDuration":221402,"Delta":595206973},{"NoteNumber":63,"Velocity":67,"Duration":221402,"SoundDuration":221402,"Delta":595206973},{"NoteNumber":63,"Velocity":63,"Duration":73800,"SoundDuration":73800,"Delta":595649777},{"NoteNumber":78,"Velocity":57,"Duration":439739,"SoundDuration":439739,"Delta":595649777},{"NoteNumber":65,"Velocity":57,"Duration":73600,"SoundDuration":73600,"Delta":595723578},{"NoteNumber":63,"Velocity":66,"Duration":73401,"SoundDuration":73401,"Delta":595797178},{"NoteNumber":65,"Velocity":60,"Duration":73203,"SoundDuration":73203,"Delta":595870580},{"NoteNumber":63,"Velocity":69,"Duration":72992,"SoundDuration":72992,"Delta":595943783},{"NoteNumber":65,"Velocity":64,"Duration":72740,"SoundDuration":72740,"Delta":596016776},{"NoteNumber":63,"Velocity":73,"Duration":72366,"SoundDuration":72366,"Delta":596089516},{"NoteNumber":42,"Velocity":77,"Duration":217436,"SoundDuration":217436,"Delta":596089516},{"NoteNumber":54,"Velocity":84,"Duration":217436,"SoundDuration":217436,"Delta":596089516},{"NoteNumber":65,"Velocity":67,"Duration":72395,"SoundDuration":72395,"Delta":596161883},{"NoteNumber":63,"Velocity":76,"Duration":72674,"SoundDuration":72674,"Delta":596234278},{"NoteNumber":65,"Velocity":71,"Duration":54704,"SoundDuration":54704,"Delta":596306952},{"NoteNumber":63,"Velocity":80,"Duration":54934,"SoundDuration":54934,"Delta":596361657},{"NoteNumber":62,"Velocity":74,"Duration":55086,"SoundDuration":55086,"Delta":596416592},{"NoteNumber":63,"Velocity":75,"Duration":55235,"SoundDuration":55235,"Delta":596471678},{"NoteNumber":66,"Velocity":83,"Duration":111025,"SoundDuration":111025,"Delta":596526914},{"NoteNumber":27,"Velocity":100,"Duration":73988,"SoundDuration":73988,"Delta":596526914},{"NoteNumber":29,"Velocity":56,"Duration":74073,"SoundDuration":74073,"Delta":596600902},{"NoteNumber":45,"Velocity":63,"Duration":111110,"SoundDuration":111110,"Delta":596637939},{"NoteNumber":27,"Velocity":66,"Duration":74073,"SoundDuration":74073,"Delta":596674976},{"NoteNumber":48,"Velocity":65,"Duration":111704,"SoundDuration":111704,"Delta":596749050},{"NoteNumber":29,"Velocity":55,"Duration":74250,"SoundDuration":74250,"Delta":596749050},{"NoteNumber":27,"Velocity":66,"Duration":74906,"SoundDuration":74906,"Delta":596823301},{"NoteNumber":51,"Velocity":66,"Duration":112093,"SoundDuration":112093,"Delta":596860754},{"NoteNumber":29,"Velocity":54,"Duration":74640,"SoundDuration":74640,"Delta":596898207},{"NoteNumber":54,"Velocity":68,"Duration":111545,"SoundDuration":111545,"Delta":596972848},{"NoteNumber":27,"Velocity":64,"Duration":74436,"SoundDuration":74436,"Delta":596972848},{"NoteNumber":29,"Velocity":57,"Duration":74146,"SoundDuration":74146,"Delta":597047284},{"NoteNumber":57,"Velocity":70,"Duration":110981,"SoundDuration":110981,"Delta":597084394},{"NoteNumber":27,"Velocity":63,"Duration":73944,"SoundDuration":73944,"Delta":597121431},{"NoteNumber":60,"Velocity":71,"Duration":110419,"SoundDuration":110419,"Delta":597195375},{"NoteNumber":29,"Velocity":53,"Duration":73654,"SoundDuration":73654,"Delta":597195375},{"NoteNumber":27,"Velocity":62,"Duration":73455,"SoundDuration":73455,"Delta":597269030},{"NoteNumber":63,"Velocity":73,"Duration":109863,"SoundDuration":109863,"Delta":597305794},{"NoteNumber":29,"Velocity":55,"Duration":73173,"SoundDuration":73173,"Delta":597342485},{"NoteNumber":66,"Velocity":78,"Duration":120000,"SoundDuration":120000,"Delta":597415658},{"NoteNumber":27,"Velocity":62,"Duration":80000,"SoundDuration":80000,"Delta":597415658},{"NoteNumber":29,"Velocity":52,"Duration":76690,"SoundDuration":76690,"Delta":597495658},{"NoteNumber":57,"Velocity":64,"Duration":110491,"SoundDuration":110491,"Delta":597535658},{"NoteNumber":27,"Velocity":61,"Duration":73800,"SoundDuration":73800,"Delta":597572349},{"NoteNumber":60,"Velocity":66,"Duration":110677,"SoundDuration":110677,"Delta":597646150},{"NoteNumber":29,"Velocity":51,"Duration":73800,"SoundDuration":73800,"Delta":597646150},{"NoteNumber":27,"Velocity":59,"Duration":73641,"SoundDuration":73641,"Delta":597719950},{"NoteNumber":63,"Velocity":68,"Duration":110293,"SoundDuration":110293,"Delta":597756827},{"NoteNumber":29,"Velocity":50,"Duration":73529,"SoundDuration":73529,"Delta":597793591},{"NoteNumber":66,"Velocity":69,"Duration":110058,"SoundDuration":110058,"Delta":597867121},{"NoteNumber":27,"Velocity":58,"Duration":73428,"SoundDuration":73428,"Delta":597867121},{"NoteNumber":29,"Velocity":50,"Duration":73260,"SoundDuration":73260,"Delta":597940549},{"NoteNumber":69,"Velocity":71,"Duration":109890,"SoundDuration":109890,"Delta":597977179},{"NoteNumber":27,"Velocity":57,"Duration":73260,"SoundDuration":73260,"Delta":598013809},{"NoteNumber":72,"Velocity":73,"Duration":109529,"SoundDuration":109529,"Delta":598087069},{"NoteNumber":29,"Velocity":51,"Duration":73032,"SoundDuration":73032,"Delta":598087069},{"NoteNumber":27,"Velocity":57,"Duration":72992,"SoundDuration":72992,"Delta":598160102},{"NoteNumber":75,"Velocity":75,"Duration":109319,"SoundDuration":109319,"Delta":598196598},{"NoteNumber":29,"Velocity":49,"Duration":72823,"SoundDuration":72823,"Delta":598233095},{"NoteNumber":78,"Velocity":81,"Duration":120482,"SoundDuration":120482,"Delta":598305918},{"NoteNumber":27,"Velocity":56,"Duration":80321,"SoundDuration":80321,"Delta":598305918},{"NoteNumber":29,"Velocity":49,"Duration":77061,"SoundDuration":77061,"Delta":598386239},{"NoteNumber":69,"Velocity":66,"Duration":110701,"SoundDuration":110701,"Delta":598426400},{"NoteNumber":27,"Velocity":56,"Duration":73800,"SoundDuration":73800,"Delta":598463300},{"NoteNumber":72,"Velocity":67,"Duration":110592,"SoundDuration":110592,"Delta":598537101},{"NoteNumber":29,"Velocity":49,"Duration":73800,"SoundDuration":73800,"Delta":598537101},{"NoteNumber":27,"Velocity":56,"Duration":73556,"SoundDuration":73556,"Delta":598610902},{"NoteNumber":75,"Velocity":69,"Duration":110294,"SoundDuration":110294,"Delta":598647694},{"NoteNumber":29,"Velocity":48,"Duration":73529,"SoundDuration":73529,"Delta":598684458},{"NoteNumber":78,"Velocity":71,"Duration":109974,"SoundDuration":109974,"Delta":598757988},{"NoteNumber":27,"Velocity":56,"Duration":73344,"SoundDuration":73344,"Delta":598757988},{"NoteNumber":29,"Velocity":48,"Duration":73260,"SoundDuration":73260,"Delta":598831332},{"NoteNumber":81,"Velocity":72,"Duration":109763,"SoundDuration":109763,"Delta":598867962},{"NoteNumber":27,"Velocity":56,"Duration":73133,"SoundDuration":73133,"Delta":598904592},{"NoteNumber":84,"Velocity":74,"Duration":109489,"SoundDuration":109489,"Delta":598977725},{"NoteNumber":29,"Velocity":48,"Duration":72992,"SoundDuration":72992,"Delta":598977725},{"NoteNumber":27,"Velocity":56,"Duration":72919,"SoundDuration":72919,"Delta":599050717},{"NoteNumber":87,"Velocity":76,"Duration":109150,"SoundDuration":109150,"Delta":599087214},{"NoteNumber":29,"Velocity":48,"Duration":72727,"SoundDuration":72727,"Delta":599123637},{"NoteNumber":90,"Velocity":86,"Duration":120000,"SoundDuration":120000,"Delta":599196364},{"NoteNumber":27,"Velocity":56,"Duration":80000,"SoundDuration":80000,"Delta":599196364},{"NoteNumber":29,"Velocity":49,"Duration":77329,"SoundDuration":77329,"Delta":599276364},{"NoteNumber":69,"Velocity":67,"Duration":111880,"SoundDuration":111880,"Delta":599316364},{"NoteNumber":27,"Velocity":56,"Duration":74550,"SoundDuration":74550,"Delta":599353694},{"NoteNumber":72,"Velocity":70,"Duration":110736,"SoundDuration":110736,"Delta":599428245},{"NoteNumber":29,"Velocity":50,"Duration":73968,"SoundDuration":73968,"Delta":599428245},{"NoteNumber":27,"Velocity":56,"Duration":73398,"SoundDuration":73398,"Delta":599502213},{"NoteNumber":75,"Velocity":74,"Duration":109466,"SoundDuration":109466,"Delta":599538982},{"NoteNumber":29,"Velocity":49,"Duration":72836,"SoundDuration":72836,"Delta":599575612},{"NoteNumber":78,"Velocity":77,"Duration":116367,"SoundDuration":116367,"Delta":599648449},{"NoteNumber":27,"Velocity":56,"Duration":79330,"SoundDuration":79330,"Delta":599648449},{"NoteNumber":29,"Velocity":49,"Duration":74043,"SoundDuration":74043,"Delta":599727779},{"NoteNumber":57,"Velocity":63,"Duration":110762,"SoundDuration":110762,"Delta":599764816},{"NoteNumber":27,"Velocity":56,"Duration":73756,"SoundDuration":73756,"Delta":599801823},{"NoteNumber":60,"Velocity":68,"Duration":110102,"SoundDuration":110102,"Delta":599875579},{"NoteNumber":29,"Velocity":49,"Duration":73472,"SoundDuration":73472,"Delta":599875579},{"NoteNumber":27,"Velocity":56,"Duration":73186,"SoundDuration":73186,"Delta":599949051},{"NoteNumber":63,"Velocity":72,"Duration":109380,"SoundDuration":109380,"Delta":599985681},{"NoteNumber":29,"Velocity":48,"Duration":72823,"SoundDuration":72823,"Delta":600022238},{"NoteNumber":66,"Velocity":76,"Duration":120482,"SoundDuration":120482,"Delta":600095061},{"NoteNumber":27,"Velocity":56,"Duration":80321,"SoundDuration":80321,"Delta":600095061},{"NoteNumber":29,"Velocity":48,"Duration":76657,"SoundDuration":76657,"Delta":600175383},{"NoteNumber":45,"Velocity":64,"Duration":109489,"SoundDuration":109489,"Delta":600215543},{"NoteNumber":27,"Velocity":56,"Duration":72992,"SoundDuration":72992,"Delta":600252040},{"NoteNumber":48,"Velocity":69,"Duration":109488,"SoundDuration":109488,"Delta":600325032},{"NoteNumber":29,"Velocity":48,"Duration":72992,"SoundDuration":72992,"Delta":600325032},{"NoteNumber":27,"Velocity":56,"Duration":72992,"SoundDuration":72992,"Delta":600398025},{"NoteNumber":51,"Velocity":74,"Duration":109489,"SoundDuration":109489,"Delta":600434521},{"NoteNumber":29,"Velocity":48,"Duration":72992,"SoundDuration":72992,"Delta":600471018},{"NoteNumber":54,"Velocity":79,"Duration":445494,"SoundDuration":445494,"Delta":600544010},{"NoteNumber":27,"Velocity":56,"Duration":73153,"SoundDuration":73153,"Delta":600544010},{"NoteNumber":29,"Velocity":49,"Duration":73610,"SoundDuration":73610,"Delta":600617163},{"NoteNumber":27,"Velocity":56,"Duration":74012,"SoundDuration":74012,"Delta":600690774},{"NoteNumber":29,"Velocity":50,"Duration":74470,"SoundDuration":74470,"Delta":600764787},{"NoteNumber":27,"Velocity":56,"Duration":74903,"SoundDuration":74903,"Delta":600839258},{"NoteNumber":29,"Velocity":41,"Duration":75344,"SoundDuration":75344,"Delta":600914161},{"NoteNumber":45,"Velocity":79,"Duration":679244,"SoundDuration":679244,"Delta":600989505},{"NoteNumber":42,"Velocity":79,"Duration":679244,"SoundDuration":679244,"Delta":600989505},{"NoteNumber":51,"Velocity":79,"Duration":679244,"SoundDuration":679244,"Delta":600989505},{"NoteNumber":29,"Velocity":30,"Duration":452829,"SoundDuration":452829,"Delta":600989505},{"NoteNumber":34,"Velocity":54,"Duration":75471,"SoundDuration":75471,"Delta":600989505},{"NoteNumber":36,"Velocity":44,"Duration":75471,"SoundDuration":75471,"Delta":601064977},{"NoteNumber":34,"Velocity":52,"Duration":75471,"SoundDuration":75471,"Delta":601140448},{"NoteNumber":36,"Velocity":39,"Duration":75471,"SoundDuration":75471,"Delta":601215920},{"NoteNumber":34,"Velocity":49,"Duration":75471,"SoundDuration":75471,"Delta":601291392},{"NoteNumber":36,"Velocity":38,"Duration":75471,"SoundDuration":75471,"Delta":601366863},{"NoteNumber":29,"Velocity":30,"Duration":1342542,"SoundDuration":1342542,"Delta":601442335},{"NoteNumber":34,"Velocity":46,"Duration":75471,"SoundDuration":75471,"Delta":601442335},{"NoteNumber":36,"Velocity":36,"Duration":75471,"SoundDuration":75471,"Delta":601517807},{"NoteNumber":34,"Velocity":44,"Duration":75471,"SoundDuration":75471,"Delta":601593278},{"NoteNumber":41,"Velocity":70,"Duration":226415,"SoundDuration":226415,"Delta":601668750},{"NoteNumber":44,"Velocity":70,"Duration":226415,"SoundDuration":226415,"Delta":601668750},{"NoteNumber":50,"Velocity":70,"Duration":226415,"SoundDuration":226415,"Delta":601668750},{"NoteNumber":36,"Velocity":33,"Duration":75471,"SoundDuration":75471,"Delta":601668750},{"NoteNumber":34,"Velocity":41,"Duration":75471,"SoundDuration":75471,"Delta":601744222},{"NoteNumber":36,"Velocity":30,"Duration":75471,"SoundDuration":75471,"Delta":601819693},{"NoteNumber":70,"Velocity":50,"Duration":109889,"SoundDuration":109889,"Delta":601895165},{"NoteNumber":34,"Velocity":37,"Duration":73260,"SoundDuration":73260,"Delta":601895165},{"NoteNumber":36,"Velocity":31,"Duration":73260,"SoundDuration":73260,"Delta":601968425},{"NoteNumber":68,"Velocity":45,"Duration":109890,"SoundDuration":109890,"Delta":602005055},{"NoteNumber":34,"Velocity":37,"Duration":73260,"SoundDuration":73260,"Delta":602041685},{"NoteNumber":70,"Velocity":50,"Duration":109889,"SoundDuration":109889,"Delta":602114945},{"NoteNumber":36,"Velocity":32,"Duration":73260,"SoundDuration":73260,"Delta":602114945},{"NoteNumber":34,"Velocity":37,"Duration":73260,"SoundDuration":73260,"Delta":602188205},{"NoteNumber":68,"Velocity":45,"Duration":109890,"SoundDuration":109890,"Delta":602224835},{"NoteNumber":36,"Velocity":32,"Duration":73260,"SoundDuration":73260,"Delta":602261465},{"NoteNumber":70,"Velocity":50,"Duration":109889,"SoundDuration":109889,"Delta":602334725},{"NoteNumber":34,"Velocity":37,"Duration":73260,"SoundDuration":73260,"Delta":602334725},{"NoteNumber":36,"Velocity":31,"Duration":73260,"SoundDuration":73260,"Delta":602407985},{"NoteNumber":68,"Velocity":45,"Duration":109890,"SoundDuration":109890,"Delta":602444615},{"NoteNumber":34,"Velocity":37,"Duration":73260,"SoundDuration":73260,"Delta":602481245},{"NoteNumber":67,"Velocity":50,"Duration":109889,"SoundDuration":109889,"Delta":602554505},{"NoteNumber":36,"Velocity":30,"Duration":73260,"SoundDuration":73260,"Delta":602554505},{"NoteNumber":34,"Velocity":37,"Duration":76790,"SoundDuration":76790,"Delta":602627765},{"NoteNumber":68,"Velocity":45,"Duration":120482,"SoundDuration":120482,"Delta":602664395},{"NoteNumber":36,"Velocity":31,"Duration":80321,"SoundDuration":80321,"Delta":602704556},{"NoteNumber":71,"Velocity":58,"Duration":439560,"SoundDuration":439560,"Delta":602784877},{"NoteNumber":34,"Velocity":37,"Duration":73260,"SoundDuration":73260,"Delta":602784877},{"NoteNumber":29,"Velocity":30,"Duration":1323300,"SoundDuration":1323300,"Delta":602784877},{"NoteNumber":36,"Velocity":31,"Duration":73260,"SoundDuration":73260,"Delta":602858137},{"NoteNumber":34,"Velocity":37,"Duration":73260,"SoundDuration":73260,"Delta":602931397},{"NoteNumber":56,"Velocity":53,"Duration":219780,"SoundDuration":219780,"Delta":603004657},{"NoteNumber":36,"Velocity":30,"Duration":73260,"SoundDuration":73260,"Delta":603004657},{"NoteNumber":34,"Velocity":37,"Duration":73260,"SoundDuration":73260,"Delta":603077917},{"NoteNumber":36,"Velocity":31,"Duration":73260,"SoundDuration":73260,"Delta":603151177},{"NoteNumber":68,"Velocity":50,"Duration":219780,"SoundDuration":219780,"Delta":603224437},{"NoteNumber":34,"Velocity":37,"Duration":73260,"SoundDuration":73260,"Delta":603224437},{"NoteNumber":36,"Velocity":31,"Duration":73260,"SoundDuration":73260,"Delta":603297697},{"NoteNumber":34,"Velocity":37,"Duration":73260,"SoundDuration":73260,"Delta":603370957},{"NoteNumber":71,"Velocity":46,"Duration":108695,"SoundDuration":108695,"Delta":603444217},{"NoteNumber":79,"Velocity":55,"Duration":217391,"SoundDuration":217391,"Delta":603444217},{"NoteNumber":36,"Velocity":30,"Duration":72463,"SoundDuration":72463,"Delta":603444217},{"NoteNumber":34,"Velocity":37,"Duration":72463,"SoundDuration":72463,"Delta":603516681},{"NoteNumber":70,"Velocity":50,"Duration":108695,"SoundDuration":108695,"Delta":603552913},{"NoteNumber":36,"Velocity":31,"Duration":72463,"SoundDuration":72463,"Delta":603589145},{"NoteNumber":68,"Velocity":47,"Duration":108695,"SoundDuration":108695,"Delta":603661609},{"NoteNumber":80,"Velocity":56,"Duration":217391,"SoundDuration":217391,"Delta":603661609},{"NoteNumber":34,"Velocity":37,"Duration":72463,"SoundDuration":72463,"Delta":603661609},{"NoteNumber":36,"Velocity":31,"Duration":72463,"SoundDuration":72463,"Delta":603734072},{"NoteNumber":66,"Velocity":48,"Duration":108695,"SoundDuration":108695,"Delta":603770304},{"NoteNumber":34,"Velocity":37,"Duration":72463,"SoundDuration":72463,"Delta":603806536},{"NoteNumber":65,"Velocity":52,"Duration":108695,"SoundDuration":108695,"Delta":603879000},{"NoteNumber":36,"Velocity":30,"Duration":72463,"SoundDuration":72463,"Delta":603879000},{"NoteNumber":34,"Velocity":37,"Duration":76392,"SoundDuration":76392,"Delta":603951464},{"NoteNumber":63,"Velocity":48,"Duration":120482,"SoundDuration":120482,"Delta":603987696},{"NoteNumber":36,"Velocity":31,"Duration":80321,"SoundDuration":80321,"Delta":604027856},{"NoteNumber":68,"Velocity":58,"Duration":439560,"SoundDuration":439560,"Delta":604108178},{"NoteNumber":34,"Velocity":37,"Duration":73260,"SoundDuration":73260,"Delta":604108178},{"NoteNumber":29,"Velocity":30,"Duration":1322905,"SoundDuration":1322905,"Delta":604108178},{"NoteNumber":36,"Velocity":31,"Duration":73260,"SoundDuration":73260,"Delta":604181438},{"NoteNumber":34,"Velocity":37,"Duration":73260,"SoundDuration":73260,"Delta":604254698},{"NoteNumber":53,"Velocity":53,"Duration":219780,"SoundDuration":219780,"Delta":604327958},{"NoteNumber":36,"Velocity":30,"Duration":73260,"SoundDuration":73260,"Delta":604327958},{"NoteNumber":34,"Velocity":37,"Duration":73260,"SoundDuration":73260,"Delta":604401218},{"NoteNumber":36,"Velocity":31,"Duration":73260,"SoundDuration":73260,"Delta":604474478},{"NoteNumber":65,"Velocity":50,"Duration":219780,"SoundDuration":219780,"Delta":604547738},{"NoteNumber":34,"Velocity":37,"Duration":73260,"SoundDuration":73260,"Delta":604547738},{"NoteNumber":36,"Velocity":31,"Duration":73260,"SoundDuration":73260,"Delta":604620998},{"NoteNumber":34,"Velocity":37,"Duration":73260,"SoundDuration":73260,"Delta":604694258},{"NoteNumber":68,"Velocity":46,"Duration":109091,"SoundDuration":109091,"Delta":604767518},{"NoteNumber":76,"Velocity":55,"Duration":218181,"SoundDuration":218181,"Delta":604767518},{"NoteNumber":36,"Velocity":30,"Duration":72727,"SoundDuration":72727,"Delta":604767518},{"NoteNumber":34,"Velocity":37,"Duration":72727,"SoundDuration":72727,"Delta":604840245},{"NoteNumber":66,"Velocity":50,"Duration":109090,"SoundDuration":109090,"Delta":604876609},{"NoteNumber":36,"Velocity":31,"Duration":72727,"SoundDuration":72727,"Delta":604912972},{"NoteNumber":65,"Velocity":47,"Duration":109091,"SoundDuration":109091,"Delta":604985700},{"NoteNumber":77,"Velocity":56,"Duration":218182,"SoundDuration":218182,"Delta":604985700},{"NoteNumber":34,"Velocity":37,"Duration":72727,"SoundDuration":72727,"Delta":604985700},{"NoteNumber":36,"Velocity":31,"Duration":72727,"SoundDuration":72727,"Delta":605058427},{"NoteNumber":63,"Velocity":48,"Duration":109091,"SoundDuration":109091,"Delta":605094791},{"NoteNumber":34,"Velocity":37,"Duration":72727,"SoundDuration":72727,"Delta":605131154},{"NoteNumber":62,"Velocity":52,"Duration":109090,"SoundDuration":109090,"Delta":605203882},{"NoteNumber":36,"Velocity":30,"Duration":72727,"SoundDuration":72727,"Delta":605203882},{"NoteNumber":34,"Velocity":37,"Duration":75733,"SoundDuration":75733,"Delta":605276609},{"NoteNumber":59,"Velocity":48,"Duration":118110,"SoundDuration":118110,"Delta":605312973},{"NoteNumber":36,"Velocity":31,"Duration":78740,"SoundDuration":78740,"Delta":605352343},{"NoteNumber":66,"Velocity":58,"Duration":439560,"SoundDuration":439560,"Delta":605431083},{"NoteNumber":29,"Velocity":30,"Duration":1319550,"SoundDuration":1319550,"Delta":605431083},{"NoteNumber":34,"Velocity":37,"Duration":73260,"SoundDuration":73260,"Delta":605431083},{"NoteNumber":36,"Velocity":31,"Duration":73260,"SoundDuration":73260,"Delta":605504343},{"NoteNumber":34,"Velocity":37,"Duration":73260,"SoundDuration":73260,"Delta":605577603},{"NoteNumber":51,"Velocity":53,"Duration":219780,"SoundDuration":219780,"Delta":605650863},{"NoteNumber":36,"Velocity":30,"Duration":73260,"SoundDuration":73260,"Delta":605650863},{"NoteNumber":34,"Velocity":37,"Duration":73260,"SoundDuration":73260,"Delta":605724123},{"NoteNumber":36,"Velocity":31,"Duration":73260,"SoundDuration":73260,"Delta":605797383},{"NoteNumber":63,"Velocity":50,"Duration":219780,"SoundDuration":219780,"Delta":605870643},{"NoteNumber":34,"Velocity":37,"Duration":73260,"SoundDuration":73260,"Delta":605870643},{"NoteNumber":36,"Velocity":31,"Duration":73260,"SoundDuration":73260,"Delta":605943903},{"NoteNumber":34,"Velocity":37,"Duration":73260,"SoundDuration":73260,"Delta":606017163},{"NoteNumber":66,"Velocity":46,"Duration":108695,"SoundDuration":108695,"Delta":606090423},{"NoteNumber":74,"Velocity":55,"Duration":217391,"SoundDuration":217391,"Delta":606090423},{"NoteNumber":36,"Velocity":30,"Duration":72463,"SoundDuration":72463,"Delta":606090423},{"NoteNumber":34,"Velocity":37,"Duration":72463,"SoundDuration":72463,"Delta":606162887},{"NoteNumber":65,"Velocity":50,"Duration":108695,"SoundDuration":108695,"Delta":606199119},{"NoteNumber":36,"Velocity":31,"Duration":72463,"SoundDuration":72463,"Delta":606235351},{"NoteNumber":63,"Velocity":47,"Duration":108695,"SoundDuration":108695,"Delta":606307815},{"NoteNumber":75,"Velocity":56,"Duration":217391,"SoundDuration":217391,"Delta":606307815},{"NoteNumber":34,"Velocity":37,"Duration":72463,"SoundDuration":72463,"Delta":606307815},{"NoteNumber":36,"Velocity":31,"Duration":72463,"SoundDuration":72463,"Delta":606380278},{"NoteNumber":61,"Velocity":48,"Duration":108695,"SoundDuration":108695,"Delta":606416510},{"NoteNumber":34,"Velocity":37,"Duration":72463,"SoundDuration":72463,"Delta":606452742},{"NoteNumber":63,"Velocity":56,"Duration":335317,"SoundDuration":335317,"Delta":606525206},{"NoteNumber":59,"Velocity":52,"Duration":108695,"SoundDuration":108695,"Delta":606525206},{"NoteNumber":36,"Velocity":30,"Duration":72463,"SoundDuration":72463,"Delta":606525206},{"NoteNumber":34,"Velocity":37,"Duration":75142,"SoundDuration":75142,"Delta":606597670},{"NoteNumber":58,"Velocity":48,"Duration":116731,"SoundDuration":116731,"Delta":606633902},{"NoteNumber":36,"Velocity":31,"Duration":77820,"SoundDuration":77820,"Delta":606672812},{"NoteNumber":57,"Velocity":50,"Duration":219780,"SoundDuration":219780,"Delta":606750633},{"NoteNumber":29,"Velocity":30,"Duration":1319572,"SoundDuration":1319572,"Delta":606750633},{"NoteNumber":34,"Velocity":37,"Duration":73260,"SoundDuration":73260,"Delta":606750633},{"NoteNumber":36,"Velocity":31,"Duration":73260,"SoundDuration":73260,"Delta":606823893},{"NoteNumber":65,"Velocity":46,"Duration":109890,"SoundDuration":109890,"Delta":606860523},{"NoteNumber":34,"Velocity":37,"Duration":73260,"SoundDuration":73260,"Delta":606897153},{"NoteNumber":63,"Velocity":46,"Duration":111940,"SoundDuration":111940,"Delta":606970413},{"NoteNumber":36,"Velocity":30,"Duration":74626,"SoundDuration":74626,"Delta":606970413},{"NoteNumber":34,"Velocity":37,"Duration":74626,"SoundDuration":74626,"Delta":607045040},{"NoteNumber":62,"Velocity":46,"Duration":111940,"SoundDuration":111940,"Delta":607082354},{"NoteNumber":36,"Velocity":31,"Duration":74626,"SoundDuration":74626,"Delta":607119667},{"NoteNumber":54,"Velocity":52,"Duration":656933,"SoundDuration":656933,"Delta":607194294},{"NoteNumber":63,"Velocity":52,"Duration":109489,"SoundDuration":109489,"Delta":607194294},{"NoteNumber":34,"Velocity":37,"Duration":72992,"SoundDuration":72992,"Delta":607194294},{"NoteNumber":36,"Velocity":31,"Duration":72992,"SoundDuration":72992,"Delta":607267286},{"NoteNumber":61,"Velocity":48,"Duration":109488,"SoundDuration":109488,"Delta":607303783},{"NoteNumber":34,"Velocity":37,"Duration":72992,"SoundDuration":72992,"Delta":607340279},{"NoteNumber":60,"Velocity":48,"Duration":109489,"SoundDuration":109489,"Delta":607413272},{"NoteNumber":36,"Velocity":30,"Duration":72992,"SoundDuration":72992,"Delta":607413272},{"NoteNumber":34,"Velocity":37,"Duration":72992,"SoundDuration":72992,"Delta":607486264},{"NoteNumber":59,"Velocity":48,"Duration":109488,"SoundDuration":109488,"Delta":607522761},{"NoteNumber":36,"Velocity":31,"Duration":72992,"SoundDuration":72992,"Delta":607559257},{"NoteNumber":60,"Velocity":54,"Duration":109489,"SoundDuration":109489,"Delta":607632250},{"NoteNumber":34,"Velocity":37,"Duration":72992,"SoundDuration":72992,"Delta":607632250},{"NoteNumber":36,"Velocity":31,"Duration":72992,"SoundDuration":72992,"Delta":607705242},{"NoteNumber":59,"Velocity":48,"Duration":109488,"SoundDuration":109488,"Delta":607741739},{"NoteNumber":34,"Velocity":37,"Duration":72992,"SoundDuration":72992,"Delta":607778235},{"NoteNumber":54,"Velocity":48,"Duration":218977,"SoundDuration":218977,"Delta":607851228},{"NoteNumber":60,"Velocity":48,"Duration":109489,"SoundDuration":109489,"Delta":607851228},{"NoteNumber":36,"Velocity":30,"Duration":72992,"SoundDuration":72992,"Delta":607851228},{"NoteNumber":34,"Velocity":37,"Duration":72992,"SoundDuration":72992,"Delta":607924220},{"NoteNumber":61,"Velocity":48,"Duration":109488,"SoundDuration":109488,"Delta":607960717},{"NoteNumber":36,"Velocity":31,"Duration":72992,"SoundDuration":72992,"Delta":607997213},{"NoteNumber":54,"Velocity":48,"Duration":218977,"SoundDuration":218977,"Delta":608070206},{"NoteNumber":63,"Velocity":56,"Duration":218977,"SoundDuration":218977,"Delta":608070206},{"NoteNumber":34,"Velocity":37,"Duration":72992,"SoundDuration":72992,"Delta":608070206},{"NoteNumber":29,"Velocity":30,"Duration":1322489,"SoundDuration":1322489,"Delta":608070206},{"NoteNumber":36,"Velocity":31,"Duration":72992,"SoundDuration":72992,"Delta":608143198},{"NoteNumber":34,"Velocity":37,"Duration":72992,"SoundDuration":72992,"Delta":608216191},{"NoteNumber":53,"Velocity":48,"Duration":218977,"SoundDuration":218977,"Delta":608289184},{"NoteNumber":36,"Velocity":30,"Duration":72992,"SoundDuration":72992,"Delta":608289184},{"NoteNumber":34,"Velocity":37,"Duration":72992,"SoundDuration":72992,"Delta":608362176},{"NoteNumber":36,"Velocity":31,"Duration":72992,"SoundDuration":72992,"Delta":608435169},{"NoteNumber":60,"Velocity":56,"Duration":656934,"SoundDuration":656934,"Delta":608508162},{"NoteNumber":53,"Velocity":48,"Duration":218977,"SoundDuration":218977,"Delta":608508162},{"NoteNumber":34,"Velocity":37,"Duration":72992,"SoundDuration":72992,"Delta":608508162},{"NoteNumber":36,"Velocity":31,"Duration":72992,"SoundDuration":72992,"Delta":608581154},{"NoteNumber":34,"Velocity":37,"Duration":72992,"SoundDuration":72992,"Delta":608654147},{"NoteNumber":51,"Velocity":45,"Duration":218978,"SoundDuration":218978,"Delta":608727140},{"NoteNumber":36,"Velocity":30,"Duration":72992,"SoundDuration":72992,"Delta":608727140},{"NoteNumber":34,"Velocity":37,"Duration":72992,"SoundDuration":72992,"Delta":608800132},{"NoteNumber":36,"Velocity":31,"Duration":72992,"SoundDuration":72992,"Delta":608873125},{"NoteNumber":50,"Velocity":55,"Duration":218977,"SoundDuration":218977,"Delta":608946118},{"NoteNumber":34,"Velocity":37,"Duration":72992,"SoundDuration":72992,"Delta":608946118},{"NoteNumber":36,"Velocity":31,"Duration":72992,"SoundDuration":72992,"Delta":609019110},{"NoteNumber":34,"Velocity":37,"Duration":72992,"SoundDuration":72992,"Delta":609092103},{"NoteNumber":60,"Velocity":45,"Duration":227599,"SoundDuration":227599,"Delta":609165096},{"NoteNumber":51,"Velocity":45,"Duration":227599,"SoundDuration":227599,"Delta":609165096},{"NoteNumber":36,"Velocity":30,"Duration":72992,"SoundDuration":72992,"Delta":609165096},{"NoteNumber":34,"Velocity":37,"Duration":75866,"SoundDuration":75866,"Delta":609238088},{"NoteNumber":36,"Velocity":31,"Duration":78740,"SoundDuration":78740,"Delta":609313955},{"NoteNumber":51,"Velocity":52,"Duration":223048,"SoundDuration":223048,"Delta":609392695},{"NoteNumber":60,"Velocity":52,"Duration":223048,"SoundDuration":223048,"Delta":609392695},{"NoteNumber":29,"Velocity":30,"Duration":446097,"SoundDuration":446097,"Delta":609392695},{"NoteNumber":34,"Velocity":37,"Duration":55762,"SoundDuration":55762,"Delta":609392695},{"NoteNumber":36,"Velocity":31,"Duration":55762,"SoundDuration":55762,"Delta":609448457},{"NoteNumber":34,"Velocity":37,"Duration":55762,"SoundDuration":55762,"Delta":609504219},{"NoteNumber":36,"Velocity":30,"Duration":55762,"SoundDuration":55762,"Delta":609559981},{"NoteNumber":50,"Velocity":38,"Duration":223048,"SoundDuration":223048,"Delta":609615744},{"NoteNumber":58,"Velocity":45,"Duration":223048,"SoundDuration":223048,"Delta":609615744},{"NoteNumber":34,"Velocity":37,"Duration":55762,"SoundDuration":55762,"Delta":609615744},{"NoteNumber":36,"Velocity":31,"Duration":55762,"SoundDuration":55762,"Delta":609671506},{"NoteNumber":34,"Velocity":37,"Duration":55762,"SoundDuration":55762,"Delta":609727268},{"NoteNumber":36,"Velocity":31,"Duration":55762,"SoundDuration":55762,"Delta":609783030},{"NoteNumber":51,"Velocity":43,"Duration":223048,"SoundDuration":223048,"Delta":609838792},{"NoteNumber":57,"Velocity":51,"Duration":223048,"SoundDuration":223048,"Delta":609838792},{"NoteNumber":29,"Velocity":30,"Duration":446097,"SoundDuration":446097,"Delta":609838792},{"NoteNumber":34,"Velocity":37,"Duration":55762,"SoundDuration":55762,"Delta":609838792},{"NoteNumber":36,"Velocity":30,"Duration":55762,"SoundDuration":55762,"Delta":609894554},{"NoteNumber":34,"Velocity":37,"Duration":55762,"SoundDuration":55762,"Delta":609950316},{"NoteNumber":36,"Velocity":31,"Duration":55762,"SoundDuration":55762,"Delta":610006078},{"NoteNumber":50,"Velocity":36,"Duration":223048,"SoundDuration":223048,"Delta":610061841},{"NoteNumber":58,"Velocity":43,"Duration":223048,"SoundDuration":223048,"Delta":610061841},{"NoteNumber":34,"Velocity":37,"Duration":55762,"SoundDuration":55762,"Delta":610061841},{"NoteNumber":36,"Velocity":31,"Duration":55762,"SoundDuration":55762,"Delta":610117603},{"NoteNumber":34,"Velocity":37,"Duration":55762,"SoundDuration":55762,"Delta":610173365},{"NoteNumber":36,"Velocity":30,"Duration":55762,"SoundDuration":55762,"Delta":610229127},{"NoteNumber":45,"Velocity":41,"Duration":223048,"SoundDuration":223048,"Delta":610284889},{"NoteNumber":51,"Velocity":41,"Duration":223048,"SoundDuration":223048,"Delta":610284889},{"NoteNumber":54,"Velocity":49,"Duration":223048,"SoundDuration":223048,"Delta":610284889},{"NoteNumber":29,"Velocity":30,"Duration":460202,"SoundDuration":460202,"Delta":610284889},{"NoteNumber":34,"Velocity":37,"Duration":55762,"SoundDuration":55762,"Delta":610284889},{"NoteNumber":36,"Velocity":31,"Duration":55762,"SoundDuration":55762,"Delta":610340651},{"NoteNumber":34,"Velocity":37,"Duration":55762,"SoundDuration":55762,"Delta":610396413},{"NoteNumber":36,"Velocity":31,"Duration":55762,"SoundDuration":55762,"Delta":610452175},{"NoteNumber":46,"Velocity":33,"Duration":237154,"SoundDuration":237154,"Delta":610507938},{"NoteNumber":50,"Velocity":33,"Duration":237154,"SoundDuration":237154,"Delta":610507938},{"NoteNumber":53,"Velocity":39,"Duration":237154,"SoundDuration":237154,"Delta":610507938},{"NoteNumber":34,"Velocity":37,"Duration":59288,"SoundDuration":59288,"Delta":610507938},{"NoteNumber":36,"Velocity":30,"Duration":59288,"SoundDuration":59288,"Delta":610567226},{"NoteNumber":34,"Velocity":37,"Duration":59288,"SoundDuration":59288,"Delta":610626515},{"NoteNumber":36,"Velocity":31,"Duration":59288,"SoundDuration":59288,"Delta":610685803},{"NoteNumber":54,"Velocity":45,"Duration":229884,"SoundDuration":229884,"Delta":610745092},{"NoteNumber":57,"Velocity":45,"Duration":229884,"SoundDuration":229884,"Delta":610745092},{"NoteNumber":63,"Velocity":53,"Duration":229884,"SoundDuration":229884,"Delta":610745092},{"NoteNumber":29,"Velocity":30,"Duration":459770,"SoundDuration":459770,"Delta":610745092},{"NoteNumber":34,"Velocity":37,"Duration":57471,"SoundDuration":57471,"Delta":610745092},{"NoteNumber":36,"Velocity":31,"Duration":57471,"SoundDuration":57471,"Delta":610802563},{"NoteNumber":34,"Velocity":37,"Duration":57471,"SoundDuration":57471,"Delta":610860034},{"NoteNumber":36,"Velocity":31,"Duration":57471,"SoundDuration":57471,"Delta":610917505},{"NoteNumber":53,"Velocity":35,"Duration":229885,"SoundDuration":229885,"Delta":610974977},{"NoteNumber":58,"Velocity":35,"Duration":229885,"SoundDuration":229885,"Delta":610974977},{"NoteNumber":62,"Velocity":42,"Duration":229885,"SoundDuration":229885,"Delta":610974977},{"NoteNumber":34,"Velocity":37,"Duration":57471,"SoundDuration":57471,"Delta":610974977},{"NoteNumber":36,"Velocity":30,"Duration":57471,"SoundDuration":57471,"Delta":611032448},{"NoteNumber":34,"Velocity":37,"Duration":57471,"SoundDuration":57471,"Delta":611089919},{"NoteNumber":36,"Velocity":31,"Duration":57471,"SoundDuration":57471,"Delta":611147390},{"NoteNumber":63,"Velocity":43,"Duration":233463,"SoundDuration":233463,"Delta":611204862},{"NoteNumber":66,"Velocity":43,"Duration":233463,"SoundDuration":233463,"Delta":611204862},{"NoteNumber":69,"Velocity":51,"Duration":233463,"SoundDuration":233463,"Delta":611204862},{"NoteNumber":29,"Velocity":30,"Duration":466925,"SoundDuration":466925,"Delta":611204862},{"NoteNumber":34,"Velocity":37,"Duration":58365,"SoundDuration":58365,"Delta":611204862},{"NoteNumber":36,"Velocity":31,"Duration":58365,"SoundDuration":58365,"Delta":611263227},{"NoteNumber":34,"Velocity":37,"Duration":58365,"SoundDuration":58365,"Delta":611321593},{"NoteNumber":36,"Velocity":31,"Duration":58365,"SoundDuration":58365,"Delta":611379959},{"NoteNumber":62,"Velocity":35,"Duration":233462,"SoundDuration":233462,"Delta":611438325},{"NoteNumber":65,"Velocity":35,"Duration":233462,"SoundDuration":233462,"Delta":611438325},{"NoteNumber":70,"Velocity":42,"Duration":233462,"SoundDuration":233462,"Delta":611438325},{"NoteNumber":34,"Velocity":37,"Duration":58365,"SoundDuration":58365,"Delta":611438325},{"NoteNumber":36,"Velocity":30,"Duration":58365,"SoundDuration":58365,"Delta":611496690},{"NoteNumber":34,"Velocity":37,"Duration":58365,"SoundDuration":58365,"Delta":611555056},{"NoteNumber":36,"Velocity":31,"Duration":58365,"SoundDuration":58365,"Delta":611613422},{"NoteNumber":69,"Velocity":44,"Duration":244898,"SoundDuration":244898,"Delta":611671788},{"NoteNumber":75,"Velocity":44,"Duration":244898,"SoundDuration":244898,"Delta":611671788},{"NoteNumber":78,"Velocity":52,"Duration":244898,"SoundDuration":244898,"Delta":611671788},{"NoteNumber":29,"Velocity":30,"Duration":586319,"SoundDuration":586319,"Delta":611671788},{"NoteNumber":34,"Velocity":37,"Duration":61224,"SoundDuration":61224,"Delta":611671788},{"NoteNumber":36,"Velocity":31,"Duration":61224,"SoundDuration":61224,"Delta":611733012},{"NoteNumber":34,"Velocity":37,"Duration":61224,"SoundDuration":61224,"Delta":611794237},{"NoteNumber":36,"Velocity":37,"Duration":89002,"SoundDuration":89002,"Delta":611855461},{"NoteNumber":70,"Velocity":38,"Duration":341421,"SoundDuration":341421,"Delta":611916686},{"NoteNumber":74,"Velocity":38,"Duration":341421,"SoundDuration":341421,"Delta":611916686},{"NoteNumber":77,"Velocity":45,"Duration":341421,"SoundDuration":341421,"Delta":611916686},{"NoteNumber":34,"Velocity":37,"Duration":111111,"SoundDuration":111111,"Delta":611916686},{"NoteNumber":33,"Velocity":35,"Duration":111111,"SoundDuration":111111,"Delta":612027797},{"NoteNumber":34,"Velocity":35,"Duration":119199,"SoundDuration":119199,"Delta":612138908},{"NoteNumber":81,"Velocity":52,"Duration":106107,"SoundDuration":106107,"Delta":612258107},{"NoteNumber":72,"Velocity":44,"Duration":1406548,"SoundDuration":1406548,"Delta":612258107},{"NoteNumber":75,"Velocity":44,"Duration":1406548,"SoundDuration":1406548,"Delta":612258107},{"NoteNumber":30,"Velocity":35,"Duration":706197,"SoundDuration":706197,"Delta":612258107},{"NoteNumber":34,"Velocity":35,"Duration":706197,"SoundDuration":706197,"Delta":612258107},{"NoteNumber":42,"Velocity":42,"Duration":706197,"SoundDuration":706197,"Delta":612258107},{"NoteNumber":82,"Velocity":47,"Duration":98590,"SoundDuration":98590,"Delta":612364214},{"NoteNumber":81,"Velocity":52,"Duration":91574,"SoundDuration":91574,"Delta":612462805},{"NoteNumber":82,"Velocity":47,"Duration":86701,"SoundDuration":86701,"Delta":612554380},{"NoteNumber":81,"Velocity":52,"Duration":84949,"SoundDuration":84949,"Delta":612641081},{"NoteNumber":82,"Velocity":46,"Duration":82398,"SoundDuration":82398,"Delta":612726030},{"NoteNumber":81,"Velocity":52,"Duration":79354,"SoundDuration":79354,"Delta":612808429},{"NoteNumber":82,"Velocity":47,"Duration":76521,"SoundDuration":76521,"Delta":612887783},{"NoteNumber":81,"Velocity":52,"Duration":75376,"SoundDuration":75376,"Delta":612964305},{"NoteNumber":31,"Velocity":35,"Duration":1356088,"SoundDuration":1356088,"Delta":612964305},{"NoteNumber":34,"Velocity":35,"Duration":1356088,"SoundDuration":1356088,"Delta":612964305},{"NoteNumber":43,"Velocity":42,"Duration":1356088,"SoundDuration":1356088,"Delta":612964305},{"NoteNumber":82,"Velocity":47,"Duration":75376,"SoundDuration":75376,"Delta":613039682},{"NoteNumber":81,"Velocity":52,"Duration":75376,"SoundDuration":75376,"Delta":613115059},{"NoteNumber":82,"Velocity":48,"Duration":75923,"SoundDuration":75923,"Delta":613190436},{"NoteNumber":81,"Velocity":52,"Duration":111536,"SoundDuration":111536,"Delta":613266359},{"NoteNumber":79,"Velocity":47,"Duration":131754,"SoundDuration":131754,"Delta":613377896},{"NoteNumber":81,"Velocity":47,"Duration":155005,"SoundDuration":155005,"Delta":613509650},{"NoteNumber":70,"Velocity":39,"Duration":655738,"SoundDuration":655738,"Delta":613664655},{"NoteNumber":73,"Velocity":39,"Duration":655738,"SoundDuration":655738,"Delta":613664655},{"NoteNumber":82,"Velocity":47,"Duration":655738,"SoundDuration":655738,"Delta":613664655},{"NoteNumber":64,"Velocity":44,"Duration":106107,"SoundDuration":106107,"Delta":614320393},{"NoteNumber":55,"Velocity":37,"Duration":106107,"SoundDuration":106107,"Delta":614320393},{"NoteNumber":65,"Velocity":39,"Duration":98590,"SoundDuration":98590,"Delta":614426501},{"NoteNumber":57,"Velocity":33,"Duration":98590,"SoundDuration":98590,"Delta":614426501},{"NoteNumber":64,"Velocity":44,"Duration":91574,"SoundDuration":91574,"Delta":614525091},{"NoteNumber":55,"Velocity":37,"Duration":91574,"SoundDuration":91574,"Delta":614525091},{"NoteNumber":65,"Velocity":39,"Duration":86701,"SoundDuration":86701,"Delta":614616666},{"NoteNumber":57,"Velocity":33,"Duration":86701,"SoundDuration":86701,"Delta":614616666},{"NoteNumber":64,"Velocity":44,"Duration":84949,"SoundDuration":84949,"Delta":614703367},{"NoteNumber":55,"Velocity":37,"Duration":84949,"SoundDuration":84949,"Delta":614703367},{"NoteNumber":65,"Velocity":39,"Duration":82398,"SoundDuration":82398,"Delta":614788316},{"NoteNumber":57,"Velocity":33,"Duration":82398,"SoundDuration":82398,"Delta":614788316},{"NoteNumber":64,"Velocity":44,"Duration":79354,"SoundDuration":79354,"Delta":614870715},{"NoteNumber":55,"Velocity":37,"Duration":79354,"SoundDuration":79354,"Delta":614870715},{"NoteNumber":65,"Velocity":39,"Duration":76521,"SoundDuration":76521,"Delta":614950070},{"NoteNumber":57,"Velocity":33,"Duration":76521,"SoundDuration":76521,"Delta":614950070},{"NoteNumber":70,"Velocity":40,"Duration":666826,"SoundDuration":666826,"Delta":615026591},{"NoteNumber":73,"Velocity":48,"Duration":666826,"SoundDuration":666826,"Delta":615026591},{"NoteNumber":64,"Velocity":44,"Duration":75376,"SoundDuration":75376,"Delta":615026591},{"NoteNumber":55,"Velocity":37,"Duration":75376,"SoundDuration":75376,"Delta":615026591},{"NoteNumber":65,"Velocity":39,"Duration":75376,"SoundDuration":75376,"Delta":615101968},{"NoteNumber":57,"Velocity":33,"Duration":75376,"SoundDuration":75376,"Delta":615101968},{"NoteNumber":64,"Velocity":44,"Duration":75376,"SoundDuration":75376,"Delta":615177345},{"NoteNumber":55,"Velocity":37,"Duration":75376,"SoundDuration":75376,"Delta":615177345},{"NoteNumber":65,"Velocity":40,"Duration":75923,"SoundDuration":75923,"Delta":615252722},{"NoteNumber":57,"Velocity":34,"Duration":75923,"SoundDuration":75923,"Delta":615252722},{"NoteNumber":64,"Velocity":44,"Duration":107406,"SoundDuration":107406,"Delta":615328645},{"NoteNumber":55,"Velocity":37,"Duration":107406,"SoundDuration":107406,"Delta":615328645},{"NoteNumber":62,"Velocity":39,"Duration":118920,"SoundDuration":118920,"Delta":615436052},{"NoteNumber":53,"Velocity":33,"Duration":118920,"SoundDuration":118920,"Delta":615436052},{"NoteNumber":64,"Velocity":39,"Duration":138445,"SoundDuration":138445,"Delta":615554973},{"NoteNumber":55,"Velocity":33,"Duration":138445,"SoundDuration":138445,"Delta":615554973},{"NoteNumber":65,"Velocity":46,"Duration":710690,"SoundDuration":710690,"Delta":615693418},{"NoteNumber":72,"Velocity":46,"Duration":710690,"SoundDuration":710690,"Delta":615693418},{"NoteNumber":57,"Velocity":42,"Duration":710690,"SoundDuration":710690,"Delta":615693418},{"NoteNumber":69,"Velocity":46,"Duration":136010,"SoundDuration":136010,"Delta":616404108},{"NoteNumber":60,"Velocity":39,"Duration":136010,"SoundDuration":136010,"Delta":616404108},{"NoteNumber":70,"Velocity":42,"Duration":122819,"SoundDuration":122819,"Delta":616540119},{"NoteNumber":62,"Velocity":35,"Duration":122819,"SoundDuration":122819,"Delta":616540119},{"NoteNumber":69,"Velocity":46,"Duration":100574,"SoundDuration":100574,"Delta":616662938},{"NoteNumber":60,"Velocity":39,"Duration":100574,"SoundDuration":100574,"Delta":616662938},{"NoteNumber":70,"Velocity":42,"Duration":89120,"SoundDuration":89120,"Delta":616763512},{"NoteNumber":62,"Velocity":35,"Duration":89120,"SoundDuration":89120,"Delta":616763512},{"NoteNumber":69,"Velocity":46,"Duration":84877,"SoundDuration":84877,"Delta":616852633},{"NoteNumber":60,"Velocity":39,"Duration":84877,"SoundDuration":84877,"Delta":616852633},{"NoteNumber":70,"Velocity":41,"Duration":82398,"SoundDuration":82398,"Delta":616937510},{"NoteNumber":62,"Velocity":35,"Duration":82398,"SoundDuration":82398,"Delta":616937510},{"NoteNumber":69,"Velocity":46,"Duration":79354,"SoundDuration":79354,"Delta":617019909},{"NoteNumber":60,"Velocity":39,"Duration":79354,"SoundDuration":79354,"Delta":617019909},{"NoteNumber":70,"Velocity":42,"Duration":76521,"SoundDuration":76521,"Delta":617099264},{"NoteNumber":62,"Velocity":35,"Duration":76521,"SoundDuration":76521,"Delta":617099264},{"NoteNumber":69,"Velocity":46,"Duration":75376,"SoundDuration":75376,"Delta":617175785},{"NoteNumber":75,"Velocity":52,"Duration":720554,"SoundDuration":720554,"Delta":617175785},{"NoteNumber":60,"Velocity":39,"Duration":75376,"SoundDuration":75376,"Delta":617175785},{"NoteNumber":53,"Velocity":52,"Duration":720554,"SoundDuration":720554,"Delta":617175785},{"NoteNumber":70,"Velocity":42,"Duration":75376,"SoundDuration":75376,"Delta":617251162},{"NoteNumber":62,"Velocity":35,"Duration":75376,"SoundDuration":75376,"Delta":617251162},{"NoteNumber":69,"Velocity":46,"Duration":75376,"SoundDuration":75376,"Delta":617326539},{"NoteNumber":60,"Velocity":39,"Duration":75376,"SoundDuration":75376,"Delta":617326539},{"NoteNumber":70,"Velocity":43,"Duration":75923,"SoundDuration":75923,"Delta":617401916},{"NoteNumber":62,"Velocity":36,"Duration":75923,"SoundDuration":75923,"Delta":617401916},{"NoteNumber":69,"Velocity":46,"Duration":107455,"SoundDuration":107455,"Delta":617477839},{"NoteNumber":60,"Velocity":39,"Duration":107455,"SoundDuration":107455,"Delta":617477839},{"NoteNumber":67,"Velocity":42,"Duration":128821,"SoundDuration":128821,"Delta":617585295},{"NoteNumber":58,"Velocity":35,"Duration":128821,"SoundDuration":128821,"Delta":617585295},{"NoteNumber":69,"Velocity":42,"Duration":182223,"SoundDuration":182223,"Delta":617714116},{"NoteNumber":60,"Velocity":35,"Duration":182223,"SoundDuration":182223,"Delta":617714116},{"NoteNumber":65,"Velocity":37,"Duration":983607,"SoundDuration":983607,"Delta":617896339},{"NoteNumber":72,"Velocity":37,"Duration":983607,"SoundDuration":983607,"Delta":617896339},{"NoteNumber":75,"Velocity":44,"Duration":983607,"SoundDuration":983607,"Delta":617896339},{"NoteNumber":53,"Velocity":34,"Duration":983607,"SoundDuration":983607,"Delta":617896339},{"NoteNumber":57,"Velocity":34,"Duration":983607,"SoundDuration":983607,"Delta":617896339},{"NoteNumber":60,"Velocity":40,"Duration":983607,"SoundDuration":983607,"Delta":617896339},{"NoteNumber":65,"Velocity":37,"Duration":1333333,"SoundDuration":1333333,"Delta":618879946},{"NoteNumber":72,"Velocity":37,"Duration":1333333,"SoundDuration":1333333,"Delta":618879946},{"NoteNumber":75,"Velocity":44,"Duration":1333333,"SoundDuration":1333333,"Delta":618879946},{"NoteNumber":53,"Velocity":39,"Duration":1333333,"SoundDuration":1333333,"Delta":618879946},{"NoteNumber":60,"Velocity":47,"Duration":1333333,"SoundDuration":1333333,"Delta":618879946},{"NoteNumber":57,"Velocity":39,"Duration":1333333,"SoundDuration":1333333,"Delta":618879946},{"NoteNumber":79,"Velocity":44,"Duration":130434,"SoundDuration":130434,"Delta":620213280},{"NoteNumber":77,"Velocity":39,"Duration":130434,"SoundDuration":130434,"Delta":620321976},{"NoteNumber":75,"Velocity":44,"Duration":130434,"SoundDuration":130434,"Delta":620430671},{"NoteNumber":74,"Velocity":39,"Duration":130434,"SoundDuration":130434,"Delta":620539367},{"NoteNumber":72,"Velocity":39,"Duration":134227,"SoundDuration":134227,"Delta":620648063},{"NoteNumber":71,"Velocity":39,"Duration":127659,"SoundDuration":127659,"Delta":620756759},{"NoteNumber":75,"Velocity":46,"Duration":447761,"SoundDuration":447761,"Delta":620884418},{"NoteNumber":67,"Velocity":44,"Duration":130909,"SoundDuration":130909,"Delta":621556060},{"NoteNumber":55,"Velocity":37,"Duration":130909,"SoundDuration":130909,"Delta":621556060},{"NoteNumber":65,"Velocity":39,"Duration":130909,"SoundDuration":130909,"Delta":621665151},{"NoteNumber":53,"Velocity":33,"Duration":130909,"SoundDuration":130909,"Delta":621665151},{"NoteNumber":63,"Velocity":44,"Duration":130909,"SoundDuration":130909,"Delta":621774242},{"NoteNumber":51,"Velocity":37,"Duration":130909,"SoundDuration":130909,"Delta":621774242},{"NoteNumber":62,"Velocity":39,"Duration":130909,"SoundDuration":130909,"Delta":621883333},{"NoteNumber":50,"Velocity":33,"Duration":130909,"SoundDuration":130909,"Delta":621883333},{"NoteNumber":60,"Velocity":39,"Duration":134842,"SoundDuration":134842,"Delta":621992424},{"NoteNumber":48,"Velocity":33,"Duration":134842,"SoundDuration":134842,"Delta":621992424},{"NoteNumber":59,"Velocity":39,"Duration":128755,"SoundDuration":128755,"Delta":622101515},{"NoteNumber":47,"Velocity":33,"Duration":128755,"SoundDuration":128755,"Delta":622101515},{"NoteNumber":63,"Velocity":46,"Duration":447761,"SoundDuration":447761,"Delta":622230270},{"NoteNumber":51,"Velocity":39,"Duration":447761,"SoundDuration":447761,"Delta":622230270},{"NoteNumber":79,"Velocity":44,"Duration":130675,"SoundDuration":130675,"Delta":622894650},{"NoteNumber":67,"Velocity":37,"Duration":130675,"SoundDuration":130675,"Delta":622894650},{"NoteNumber":77,"Velocity":39,"Duration":131354,"SoundDuration":131354,"Delta":623003507},{"NoteNumber":65,"Velocity":33,"Duration":131354,"SoundDuration":131354,"Delta":623003507},{"NoteNumber":75,"Velocity":44,"Duration":131959,"SoundDuration":131959,"Delta":623112910},{"NoteNumber":63,"Velocity":37,"Duration":131959,"SoundDuration":131959,"Delta":623112910},{"NoteNumber":74,"Velocity":39,"Duration":132535,"SoundDuration":132535,"Delta":623222810},{"NoteNumber":62,"Velocity":33,"Duration":132535,"SoundDuration":132535,"Delta":623222810},{"NoteNumber":72,"Velocity":39,"Duration":136404,"SoundDuration":136404,"Delta":623333206},{"NoteNumber":60,"Velocity":33,"Duration":136404,"SoundDuration":136404,"Delta":623333206},{"NoteNumber":71,"Velocity":39,"Duration":147388,"SoundDuration":147388,"Delta":623444611},{"NoteNumber":59,"Velocity":33,"Duration":147388,"SoundDuration":147388,"Delta":623444611},{"NoteNumber":79,"Velocity":46,"Duration":130246,"SoundDuration":130246,"Delta":623569611},{"NoteNumber":67,"Velocity":39,"Duration":130246,"SoundDuration":130246,"Delta":623569611},{"NoteNumber":77,"Velocity":47,"Duration":129125,"SoundDuration":129125,"Delta":623678351},{"NoteNumber":65,"Velocity":39,"Duration":129125,"SoundDuration":129125,"Delta":623678351},{"NoteNumber":75,"Velocity":48,"Duration":129496,"SoundDuration":129496,"Delta":623785894},{"NoteNumber":63,"Velocity":40,"Duration":129496,"SoundDuration":129496,"Delta":623785894},{"NoteNumber":74,"Velocity":48,"Duration":129795,"SoundDuration":129795,"Delta":623893808},{"NoteNumber":62,"Velocity":40,"Duration":129795,"SoundDuration":129795,"Delta":623893808},{"NoteNumber":72,"Velocity":49,"Duration":130078,"SoundDuration":130078,"Delta":624001943},{"NoteNumber":60,"Velocity":41,"Duration":130078,"SoundDuration":130078,"Delta":624001943},{"NoteNumber":70,"Velocity":51,"Duration":130434,"SoundDuration":130434,"Delta":624110282},{"NoteNumber":58,"Velocity":42,"Duration":130434,"SoundDuration":130434,"Delta":624110282},{"NoteNumber":69,"Velocity":52,"Duration":130760,"SoundDuration":130760,"Delta":624218978},{"NoteNumber":57,"Velocity":44,"Duration":130760,"SoundDuration":130760,"Delta":624218978},{"NoteNumber":67,"Velocity":53,"Duration":131048,"SoundDuration":131048,"Delta":624327920},{"NoteNumber":55,"Velocity":45,"Duration":131048,"SoundDuration":131048,"Delta":624327920},{"NoteNumber":65,"Velocity":55,"Duration":131386,"SoundDuration":131386,"Delta":624437071},{"NoteNumber":53,"Velocity":46,"Duration":131386,"SoundDuration":131386,"Delta":624437071},{"NoteNumber":63,"Velocity":56,"Duration":132877,"SoundDuration":132877,"Delta":624546560},{"NoteNumber":51,"Velocity":47,"Duration":132877,"SoundDuration":132877,"Delta":624546560},{"NoteNumber":62,"Velocity":57,"Duration":134328,"SoundDuration":134328,"Delta":624657050},{"NoteNumber":50,"Velocity":48,"Duration":134328,"SoundDuration":134328,"Delta":624657050},{"NoteNumber":60,"Velocity":59,"Duration":134468,"SoundDuration":134468,"Delta":624768990},{"NoteNumber":48,"Velocity":49,"Duration":134468,"SoundDuration":134468,"Delta":624768990},{"NoteNumber":58,"Velocity":60,"Duration":111639,"SoundDuration":111639,"Delta":624881056},{"NoteNumber":46,"Velocity":50,"Duration":111639,"SoundDuration":111639,"Delta":624881056},{"NoteNumber":57,"Velocity":62,"Duration":112111,"SoundDuration":112111,"Delta":624992695},{"NoteNumber":45,"Velocity":52,"Duration":112111,"SoundDuration":112111,"Delta":624992695},{"NoteNumber":55,"Velocity":63,"Duration":112598,"SoundDuration":112598,"Delta":625104807},{"NoteNumber":43,"Velocity":53,"Duration":112598,"SoundDuration":112598,"Delta":625104807},{"NoteNumber":53,"Velocity":64,"Duration":113307,"SoundDuration":113307,"Delta":625217406},{"NoteNumber":41,"Velocity":55,"Duration":113307,"SoundDuration":113307,"Delta":625217406},{"NoteNumber":51,"Velocity":67,"Duration":113834,"SoundDuration":113834,"Delta":625330714},{"NoteNumber":39,"Velocity":56,"Duration":113834,"SoundDuration":113834,"Delta":625330714},{"NoteNumber":50,"Velocity":68,"Duration":114431,"SoundDuration":114431,"Delta":625444548},{"NoteNumber":38,"Velocity":57,"Duration":114431,"SoundDuration":114431,"Delta":625444548},{"NoteNumber":48,"Velocity":71,"Duration":113762,"SoundDuration":113762,"Delta":625558979},{"NoteNumber":36,"Velocity":60,"Duration":113762,"SoundDuration":113762,"Delta":625558979},{"NoteNumber":46,"Velocity":72,"Duration":112772,"SoundDuration":112772,"Delta":625672742},{"NoteNumber":34,"Velocity":61,"Duration":112772,"SoundDuration":112772,"Delta":625672742},{"NoteNumber":45,"Velocity":76,"Duration":111781,"SoundDuration":111781,"Delta":625785514},{"NoteNumber":33,"Velocity":64,"Duration":111781,"SoundDuration":111781,"Delta":625785514},{"NoteNumber":43,"Velocity":79,"Duration":110776,"SoundDuration":110776,"Delta":625897296},{"NoteNumber":31,"Velocity":67,"Duration":110776,"SoundDuration":110776,"Delta":625897296},{"NoteNumber":41,"Velocity":85,"Duration":109837,"SoundDuration":109837,"Delta":626008072},{"NoteNumber":29,"Velocity":71,"Duration":109837,"SoundDuration":109837,"Delta":626008072},{"NoteNumber":40,"Velocity":89,"Duration":108795,"SoundDuration":108795,"Delta":626117909},{"NoteNumber":28,"Velocity":75,"Duration":108795,"SoundDuration":108795,"Delta":626117909},{"NoteNumber":41,"Velocity":99,"Duration":216606,"SoundDuration":216606,"Delta":626226705},{"NoteNumber":53,"Velocity":99,"Duration":216606,"SoundDuration":216606,"Delta":626226705},{"NoteNumber":29,"Velocity":83,"Duration":216606,"SoundDuration":216606,"Delta":626226705},{"NoteNumber":69,"Velocity":95,"Duration":865620,"SoundDuration":865620,"Delta":626659918},{"NoteNumber":81,"Velocity":95,"Duration":73243,"SoundDuration":73243,"Delta":626659918},{"NoteNumber":45,"Velocity":79,"Duration":73243,"SoundDuration":73243,"Delta":626659918},{"NoteNumber":82,"Velocity":75,"Duration":73043,"SoundDuration":73043,"Delta":626733161},{"NoteNumber":46,"Velocity":56,"Duration":73043,"SoundDuration":73043,"Delta":626733161},{"NoteNumber":81,"Velocity":82,"Duration":72487,"SoundDuration":72487,"Delta":626806205},{"NoteNumber":45,"Velocity":61,"Duration":72487,"SoundDuration":72487,"Delta":626806205},{"NoteNumber":82,"Velocity":72,"Duration":72017,"SoundDuration":72017,"Delta":626878692},{"NoteNumber":46,"Velocity":53,"Duration":72017,"SoundDuration":72017,"Delta":626878692},{"NoteNumber":81,"Velocity":79,"Duration":71454,"SoundDuration":71454,"Delta":626950709},{"NoteNumber":45,"Velocity":59,"Duration":71454,"SoundDuration":71454,"Delta":626950709},{"NoteNumber":82,"Velocity":71,"Duration":70921,"SoundDuration":70921,"Delta":627022164},{"NoteNumber":46,"Velocity":52,"Duration":70921,"SoundDuration":70921,"Delta":627022164},{"NoteNumber":81,"Velocity":76,"Duration":70921,"SoundDuration":70921,"Delta":627093086},{"NoteNumber":45,"Velocity":57,"Duration":70921,"SoundDuration":70921,"Delta":627093086},{"NoteNumber":82,"Velocity":69,"Duration":70921,"SoundDuration":70921,"Delta":627164008},{"NoteNumber":46,"Velocity":52,"Duration":70921,"SoundDuration":70921,"Delta":627164008},{"NoteNumber":81,"Velocity":73,"Duration":71391,"SoundDuration":71391,"Delta":627234930},{"NoteNumber":45,"Velocity":55,"Duration":71391,"SoundDuration":71391,"Delta":627234930},{"NoteNumber":82,"Velocity":67,"Duration":54090,"SoundDuration":54090,"Delta":627306321},{"NoteNumber":46,"Velocity":50,"Duration":54090,"SoundDuration":54090,"Delta":627306321},{"NoteNumber":81,"Velocity":76,"Duration":54549,"SoundDuration":54549,"Delta":627360411},{"NoteNumber":45,"Velocity":58,"Duration":54549,"SoundDuration":54549,"Delta":627360411},{"NoteNumber":79,"Velocity":73,"Duration":55022,"SoundDuration":55022,"Delta":627414960},{"NoteNumber":43,"Velocity":56,"Duration":55022,"SoundDuration":55022,"Delta":627414960},{"NoteNumber":81,"Velocity":80,"Duration":55555,"SoundDuration":55555,"Delta":627469983},{"NoteNumber":45,"Velocity":63,"Duration":55555,"SoundDuration":55555,"Delta":627469983},{"NoteNumber":70,"Velocity":78,"Duration":217391,"SoundDuration":217391,"Delta":627525539},{"NoteNumber":82,"Velocity":92,"Duration":217391,"SoundDuration":217391,"Delta":627525539},{"NoteNumber":46,"Velocity":68,"Duration":217391,"SoundDuration":217391,"Delta":627525539},{"NoteNumber":55,"Velocity":75,"Duration":217391,"SoundDuration":217391,"Delta":627960322},{"NoteNumber":67,"Velocity":89,"Duration":217391,"SoundDuration":217391,"Delta":627960322},{"NoteNumber":31,"Velocity":69,"Duration":217391,"SoundDuration":217391,"Delta":627960322},{"NoteNumber":71,"Velocity":95,"Duration":865620,"SoundDuration":865620,"Delta":628395105},{"NoteNumber":83,"Velocity":95,"Duration":73243,"SoundDuration":73243,"Delta":628395105},{"NoteNumber":47,"Velocity":79,"Duration":73243,"SoundDuration":73243,"Delta":628395105},{"NoteNumber":84,"Velocity":75,"Duration":73043,"SoundDuration":73043,"Delta":628468348},{"NoteNumber":48,"Velocity":56,"Duration":73043,"SoundDuration":73043,"Delta":628468348},{"NoteNumber":83,"Velocity":82,"Duration":72487,"SoundDuration":72487,"Delta":628541391},{"NoteNumber":47,"Velocity":61,"Duration":72487,"SoundDuration":72487,"Delta":628541391},{"NoteNumber":84,"Velocity":72,"Duration":72017,"SoundDuration":72017,"Delta":628613879},{"NoteNumber":48,"Velocity":53,"Duration":72017,"SoundDuration":72017,"Delta":628613879},{"NoteNumber":83,"Velocity":79,"Duration":71454,"SoundDuration":71454,"Delta":628685896},{"NoteNumber":47,"Velocity":59,"Duration":71454,"SoundDuration":71454,"Delta":628685896},{"NoteNumber":84,"Velocity":71,"Duration":70921,"SoundDuration":70921,"Delta":628757350},{"NoteNumber":48,"Velocity":52,"Duration":70921,"SoundDuration":70921,"Delta":628757350},{"NoteNumber":83,"Velocity":76,"Duration":70921,"SoundDuration":70921,"Delta":628828272},{"NoteNumber":47,"Velocity":57,"Duration":70921,"SoundDuration":70921,"Delta":628828272},{"NoteNumber":84,"Velocity":69,"Duration":70921,"SoundDuration":70921,"Delta":628899194},{"NoteNumber":48,"Velocity":52,"Duration":70921,"SoundDuration":70921,"Delta":628899194},{"NoteNumber":83,"Velocity":73,"Duration":71391,"SoundDuration":71391,"Delta":628970116},{"NoteNumber":47,"Velocity":55,"Duration":71391,"SoundDuration":71391,"Delta":628970116},{"NoteNumber":84,"Velocity":67,"Duration":54090,"SoundDuration":54090,"Delta":629041507},{"NoteNumber":48,"Velocity":50,"Duration":54090,"SoundDuration":54090,"Delta":629041507},{"NoteNumber":83,"Velocity":74,"Duration":54549,"SoundDuration":54549,"Delta":629095598},{"NoteNumber":47,"Velocity":58,"Duration":54549,"SoundDuration":54549,"Delta":629095598},{"NoteNumber":81,"Velocity":70,"Duration":55022,"SoundDuration":55022,"Delta":629150147},{"NoteNumber":45,"Velocity":52,"Duration":55022,"SoundDuration":55022,"Delta":629150147},{"NoteNumber":83,"Velocity":79,"Duration":55555,"SoundDuration":55555,"Delta":629205170},{"NoteNumber":47,"Velocity":61,"Duration":55555,"SoundDuration":55555,"Delta":629205170},{"NoteNumber":72,"Velocity":78,"Duration":217391,"SoundDuration":217391,"Delta":629260725},{"NoteNumber":84,"Velocity":92,"Duration":217391,"SoundDuration":217391,"Delta":629260725},{"NoteNumber":48,"Velocity":68,"Duration":217391,"SoundDuration":217391,"Delta":629260725},{"NoteNumber":57,"Velocity":75,"Duration":217391,"SoundDuration":217391,"Delta":629695508},{"NoteNumber":69,"Velocity":89,"Duration":217391,"SoundDuration":217391,"Delta":629695508},{"NoteNumber":33,"Velocity":69,"Duration":217391,"SoundDuration":217391,"Delta":629695508},{"NoteNumber":73,"Velocity":95,"Duration":865620,"SoundDuration":865620,"Delta":630130291},{"NoteNumber":85,"Velocity":95,"Duration":73243,"SoundDuration":73243,"Delta":630130291},{"NoteNumber":49,"Velocity":79,"Duration":73243,"SoundDuration":73243,"Delta":630130291},{"NoteNumber":86,"Velocity":75,"Duration":73043,"SoundDuration":73043,"Delta":630203534},{"NoteNumber":50,"Velocity":56,"Duration":73043,"SoundDuration":73043,"Delta":630203534},{"NoteNumber":85,"Velocity":82,"Duration":72487,"SoundDuration":72487,"Delta":630276578},{"NoteNumber":49,"Velocity":61,"Duration":72487,"SoundDuration":72487,"Delta":630276578},{"NoteNumber":86,"Velocity":72,"Duration":72017,"SoundDuration":72017,"Delta":630349065},{"NoteNumber":50,"Velocity":53,"Duration":72017,"SoundDuration":72017,"Delta":630349065},{"NoteNumber":85,"Velocity":79,"Duration":71454,"SoundDuration":71454,"Delta":630421082},{"NoteNumber":49,"Velocity":59,"Duration":71454,"SoundDuration":71454,"Delta":630421082},{"NoteNumber":86,"Velocity":71,"Duration":70921,"SoundDuration":70921,"Delta":630492537},{"NoteNumber":50,"Velocity":52,"Duration":70921,"SoundDuration":70921,"Delta":630492537},{"NoteNumber":85,"Velocity":76,"Duration":70921,"SoundDuration":70921,"Delta":630563459},{"NoteNumber":49,"Velocity":57,"Duration":70921,"SoundDuration":70921,"Delta":630563459},{"NoteNumber":86,"Velocity":69,"Duration":70921,"SoundDuration":70921,"Delta":630634381},{"NoteNumber":50,"Velocity":52,"Duration":70921,"SoundDuration":70921,"Delta":630634381},{"NoteNumber":85,"Velocity":73,"Duration":71391,"SoundDuration":71391,"Delta":630705303},{"NoteNumber":49,"Velocity":55,"Duration":71391,"SoundDuration":71391,"Delta":630705303},{"NoteNumber":86,"Velocity":67,"Duration":54090,"SoundDuration":54090,"Delta":630776694},{"NoteNumber":50,"Velocity":50,"Duration":54090,"SoundDuration":54090,"Delta":630776694},{"NoteNumber":85,"Velocity":74,"Duration":54549,"SoundDuration":54549,"Delta":630830784},{"NoteNumber":49,"Velocity":58,"Duration":54549,"SoundDuration":54549,"Delta":630830784},{"NoteNumber":83,"Velocity":66,"Duration":55022,"SoundDuration":55022,"Delta":630885333},{"NoteNumber":47,"Velocity":54,"Duration":55022,"SoundDuration":55022,"Delta":630885333},{"NoteNumber":85,"Velocity":79,"Duration":55555,"SoundDuration":55555,"Delta":630940356},{"NoteNumber":49,"Velocity":61,"Duration":55555,"SoundDuration":55555,"Delta":630940356},{"NoteNumber":74,"Velocity":78,"Duration":217391,"SoundDuration":217391,"Delta":630995912},{"NoteNumber":86,"Velocity":92,"Duration":217391,"SoundDuration":217391,"Delta":630995912},{"NoteNumber":50,"Velocity":68,"Duration":217391,"SoundDuration":217391,"Delta":630995912},{"NoteNumber":58,"Velocity":75,"Duration":217391,"SoundDuration":217391,"Delta":631430695},{"NoteNumber":70,"Velocity":89,"Duration":217391,"SoundDuration":217391,"Delta":631430695},{"NoteNumber":34,"Velocity":69,"Duration":217391,"SoundDuration":217391,"Delta":631430695},{"NoteNumber":74,"Velocity":95,"Duration":865620,"SoundDuration":865620,"Delta":631865478},{"NoteNumber":86,"Velocity":95,"Duration":73243,"SoundDuration":73243,"Delta":631865478},{"NoteNumber":50,"Velocity":79,"Duration":73243,"SoundDuration":73243,"Delta":631865478},{"NoteNumber":87,"Velocity":75,"Duration":73043,"SoundDuration":73043,"Delta":631938721},{"NoteNumber":51,"Velocity":56,"Duration":73043,"SoundDuration":73043,"Delta":631938721},{"NoteNumber":86,"Velocity":82,"Duration":72487,"SoundDuration":72487,"Delta":632011764},{"NoteNumber":50,"Velocity":61,"Duration":72487,"SoundDuration":72487,"Delta":632011764},{"NoteNumber":87,"Velocity":72,"Duration":72017,"SoundDuration":72017,"Delta":632084252},{"NoteNumber":51,"Velocity":53,"Duration":72017,"SoundDuration":72017,"Delta":632084252},{"NoteNumber":86,"Velocity":79,"Duration":71454,"SoundDuration":71454,"Delta":632156269},{"NoteNumber":50,"Velocity":59,"Duration":71454,"SoundDuration":71454,"Delta":632156269},{"NoteNumber":87,"Velocity":71,"Duration":70921,"SoundDuration":70921,"Delta":632227723},{"NoteNumber":51,"Velocity":52,"Duration":70921,"SoundDuration":70921,"Delta":632227723},{"NoteNumber":86,"Velocity":76,"Duration":70921,"SoundDuration":70921,"Delta":632298645},{"NoteNumber":50,"Velocity":57,"Duration":70921,"SoundDuration":70921,"Delta":632298645},{"NoteNumber":87,"Velocity":69,"Duration":70921,"SoundDuration":70921,"Delta":632369567},{"NoteNumber":51,"Velocity":52,"Duration":70921,"SoundDuration":70921,"Delta":632369567},{"NoteNumber":86,"Velocity":73,"Duration":71391,"SoundDuration":71391,"Delta":632440489},{"NoteNumber":50,"Velocity":55,"Duration":71391,"SoundDuration":71391,"Delta":632440489},{"NoteNumber":87,"Velocity":70,"Duration":54090,"SoundDuration":54090,"Delta":632511881},{"NoteNumber":51,"Velocity":50,"Duration":54090,"SoundDuration":54090,"Delta":632511881},{"NoteNumber":86,"Velocity":78,"Duration":54549,"SoundDuration":54549,"Delta":632565971},{"NoteNumber":50,"Velocity":58,"Duration":54549,"SoundDuration":54549,"Delta":632565971},{"NoteNumber":84,"Velocity":73,"Duration":55022,"SoundDuration":55022,"Delta":632620520},{"NoteNumber":48,"Velocity":53,"Duration":55022,"SoundDuration":55022,"Delta":632620520},{"NoteNumber":86,"Velocity":81,"Duration":55555,"SoundDuration":55555,"Delta":632675543},{"NoteNumber":50,"Velocity":54,"Duration":55555,"SoundDuration":55555,"Delta":632675543},{"NoteNumber":75,"Velocity":78,"Duration":217391,"SoundDuration":217391,"Delta":632731098},{"NoteNumber":87,"Velocity":92,"Duration":217391,"SoundDuration":217391,"Delta":632731098},{"NoteNumber":51,"Velocity":68,"Duration":217391,"SoundDuration":217391,"Delta":632731098},{"NoteNumber":60,"Velocity":75,"Duration":217391,"SoundDuration":217391,"Delta":633165881},{"NoteNumber":72,"Velocity":89,"Duration":217391,"SoundDuration":217391,"Delta":633165881},{"NoteNumber":36,"Velocity":69,"Duration":217391,"SoundDuration":217391,"Delta":633165881},{"NoteNumber":76,"Velocity":95,"Duration":865620,"SoundDuration":865620,"Delta":633600664},{"NoteNumber":88,"Velocity":95,"Duration":73243,"SoundDuration":73243,"Delta":633600664},{"NoteNumber":52,"Velocity":79,"Duration":73243,"SoundDuration":73243,"Delta":633600664},{"NoteNumber":89,"Velocity":75,"Duration":73043,"SoundDuration":73043,"Delta":633673907},{"NoteNumber":53,"Velocity":56,"Duration":73043,"SoundDuration":73043,"Delta":633673907},{"NoteNumber":88,"Velocity":82,"Duration":72487,"SoundDuration":72487,"Delta":633746951},{"NoteNumber":52,"Velocity":61,"Duration":72487,"SoundDuration":72487,"Delta":633746951},{"NoteNumber":89,"Velocity":72,"Duration":72017,"SoundDuration":72017,"Delta":633819438},{"NoteNumber":53,"Velocity":53,"Duration":72017,"SoundDuration":72017,"Delta":633819438},{"NoteNumber":88,"Velocity":79,"Duration":71454,"SoundDuration":71454,"Delta":633891455},{"NoteNumber":52,"Velocity":59,"Duration":71454,"SoundDuration":71454,"Delta":633891455},{"NoteNumber":89,"Velocity":71,"Duration":70921,"SoundDuration":70921,"Delta":633962910},{"NoteNumber":53,"Velocity":52,"Duration":70921,"SoundDuration":70921,"Delta":633962910},{"NoteNumber":88,"Velocity":76,"Duration":70921,"SoundDuration":70921,"Delta":634033832},{"NoteNumber":52,"Velocity":57,"Duration":70921,"SoundDuration":70921,"Delta":634033832},{"NoteNumber":89,"Velocity":69,"Duration":70921,"SoundDuration":70921,"Delta":634104754},{"NoteNumber":53,"Velocity":52,"Duration":70921,"SoundDuration":70921,"Delta":634104754},{"NoteNumber":88,"Velocity":73,"Duration":71391,"SoundDuration":71391,"Delta":634175676},{"NoteNumber":52,"Velocity":55,"Duration":71391,"SoundDuration":71391,"Delta":634175676},{"NoteNumber":89,"Velocity":67,"Duration":54090,"SoundDuration":54090,"Delta":634247067},{"NoteNumber":53,"Velocity":50,"Duration":54090,"SoundDuration":54090,"Delta":634247067},{"NoteNumber":88,"Velocity":76,"Duration":54549,"SoundDuration":54549,"Delta":634301157},{"NoteNumber":52,"Velocity":56,"Duration":54549,"SoundDuration":54549,"Delta":634301157},{"NoteNumber":86,"Velocity":70,"Duration":55022,"SoundDuration":55022,"Delta":634355707},{"NoteNumber":50,"Velocity":54,"Duration":55022,"SoundDuration":55022,"Delta":634355707},{"NoteNumber":88,"Velocity":79,"Duration":55555,"SoundDuration":55555,"Delta":634410729},{"NoteNumber":52,"Velocity":59,"Duration":55555,"SoundDuration":55555,"Delta":634410729},{"NoteNumber":77,"Velocity":78,"Duration":217391,"SoundDuration":217391,"Delta":634466285},{"NoteNumber":89,"Velocity":92,"Duration":217391,"SoundDuration":217391,"Delta":634466285},{"NoteNumber":53,"Velocity":68,"Duration":217391,"SoundDuration":217391,"Delta":634466285},{"NoteNumber":62,"Velocity":75,"Duration":217391,"SoundDuration":217391,"Delta":634901068},{"NoteNumber":74,"Velocity":89,"Duration":217391,"SoundDuration":217391,"Delta":634901068},{"NoteNumber":38,"Velocity":69,"Duration":217391,"SoundDuration":217391,"Delta":634901068},{"NoteNumber":78,"Velocity":95,"Duration":865620,"SoundDuration":865620,"Delta":635335851},{"NoteNumber":90,"Velocity":95,"Duration":73243,"SoundDuration":73243,"Delta":635335851},{"NoteNumber":54,"Velocity":79,"Duration":73243,"SoundDuration":73243,"Delta":635335851},{"NoteNumber":91,"Velocity":75,"Duration":73043,"SoundDuration":73043,"Delta":635409094},{"NoteNumber":55,"Velocity":56,"Duration":73043,"SoundDuration":73043,"Delta":635409094},{"NoteNumber":90,"Velocity":82,"Duration":72487,"SoundDuration":72487,"Delta":635482137},{"NoteNumber":54,"Velocity":61,"Duration":72487,"SoundDuration":72487,"Delta":635482137},{"NoteNumber":91,"Velocity":72,"Duration":72017,"SoundDuration":72017,"Delta":635554625},{"NoteNumber":55,"Velocity":53,"Duration":72017,"SoundDuration":72017,"Delta":635554625},{"NoteNumber":90,"Velocity":79,"Duration":71454,"SoundDuration":71454,"Delta":635626642},{"NoteNumber":54,"Velocity":59,"Duration":71454,"SoundDuration":71454,"Delta":635626642},{"NoteNumber":91,"Velocity":71,"Duration":70921,"SoundDuration":70921,"Delta":635698097},{"NoteNumber":55,"Velocity":52,"Duration":70921,"SoundDuration":70921,"Delta":635698097},{"NoteNumber":90,"Velocity":76,"Duration":70921,"SoundDuration":70921,"Delta":635769019},{"NoteNumber":54,"Velocity":57,"Duration":70921,"SoundDuration":70921,"Delta":635769019},{"NoteNumber":91,"Velocity":69,"Duration":70921,"SoundDuration":70921,"Delta":635839941},{"NoteNumber":55,"Velocity":52,"Duration":70921,"SoundDuration":70921,"Delta":635839941},{"NoteNumber":90,"Velocity":73,"Duration":71391,"SoundDuration":71391,"Delta":635910863},{"NoteNumber":54,"Velocity":55,"Duration":71391,"SoundDuration":71391,"Delta":635910863},{"NoteNumber":91,"Velocity":67,"Duration":54090,"SoundDuration":54090,"Delta":635982254},{"NoteNumber":55,"Velocity":50,"Duration":54090,"SoundDuration":54090,"Delta":635982254},{"NoteNumber":90,"Velocity":77,"Duration":54549,"SoundDuration":54549,"Delta":636036344},{"NoteNumber":54,"Velocity":54,"Duration":54549,"SoundDuration":54549,"Delta":636036344},{"NoteNumber":88,"Velocity":74,"Duration":55022,"SoundDuration":55022,"Delta":636090893},{"NoteNumber":52,"Velocity":49,"Duration":55022,"SoundDuration":55022,"Delta":636090893},{"NoteNumber":90,"Velocity":83,"Duration":55555,"SoundDuration":55555,"Delta":636145916},{"NoteNumber":54,"Velocity":54,"Duration":55555,"SoundDuration":55555,"Delta":636145916},{"NoteNumber":79,"Velocity":78,"Duration":217391,"SoundDuration":217391,"Delta":636201471},{"NoteNumber":91,"Velocity":92,"Duration":217391,"SoundDuration":217391,"Delta":636201471},{"NoteNumber":55,"Velocity":68,"Duration":217391,"SoundDuration":217391,"Delta":636201471},{"NoteNumber":63,"Velocity":75,"Duration":217391,"SoundDuration":217391,"Delta":636636254},{"NoteNumber":75,"Velocity":89,"Duration":217391,"SoundDuration":217391,"Delta":636636254},{"NoteNumber":39,"Velocity":69,"Duration":217391,"SoundDuration":217391,"Delta":636636254},{"NoteNumber":93,"Velocity":89,"Duration":652174,"SoundDuration":652174,"Delta":637071037},{"NoteNumber":89,"Velocity":75,"Duration":652174,"SoundDuration":652174,"Delta":637071037},{"NoteNumber":87,"Velocity":75,"Duration":652174,"SoundDuration":652174,"Delta":637071037},{"NoteNumber":84,"Velocity":75,"Duration":652174,"SoundDuration":652174,"Delta":637071037},{"NoteNumber":81,"Velocity":75,"Duration":652174,"SoundDuration":652174,"Delta":637071037},{"NoteNumber":65,"Velocity":84,"Duration":652174,"SoundDuration":652174,"Delta":637071037},{"NoteNumber":63,"Velocity":71,"Duration":652174,"SoundDuration":652174,"Delta":637071037},{"NoteNumber":60,"Velocity":71,"Duration":652174,"SoundDuration":652174,"Delta":637071037},{"NoteNumber":53,"Velocity":71,"Duration":652174,"SoundDuration":652174,"Delta":637071037},{"NoteNumber":94,"Velocity":93,"Duration":652174,"SoundDuration":652174,"Delta":637940603},{"NoteNumber":89,"Velocity":78,"Duration":652174,"SoundDuration":652174,"Delta":637940603},{"NoteNumber":86,"Velocity":78,"Duration":652174,"SoundDuration":652174,"Delta":637940603},{"NoteNumber":82,"Velocity":78,"Duration":652174,"SoundDuration":652174,"Delta":637940603},{"NoteNumber":46,"Velocity":73,"Duration":652174,"SoundDuration":652174,"Delta":637940603},{"NoteNumber":50,"Velocity":73,"Duration":652174,"SoundDuration":652174,"Delta":637940603},{"NoteNumber":53,"Velocity":73,"Duration":652174,"SoundDuration":652174,"Delta":637940603},{"NoteNumber":58,"Velocity":87,"Duration":652174,"SoundDuration":652174,"Delta":637940603},{"NoteNumber":81,"Velocity":89,"Duration":652174,"SoundDuration":652174,"Delta":638810169},{"NoteNumber":77,"Velocity":75,"Duration":652174,"SoundDuration":652174,"Delta":638810169},{"NoteNumber":75,"Velocity":75,"Duration":652174,"SoundDuration":652174,"Delta":638810169},{"NoteNumber":72,"Velocity":75,"Duration":652174,"SoundDuration":652174,"Delta":638810169},{"NoteNumber":69,"Velocity":75,"Duration":652174,"SoundDuration":652174,"Delta":638810169},{"NoteNumber":53,"Velocity":79,"Duration":652174,"SoundDuration":652174,"Delta":638810169},{"NoteNumber":51,"Velocity":67,"Duration":652174,"SoundDuration":652174,"Delta":638810169},{"NoteNumber":48,"Velocity":67,"Duration":652174,"SoundDuration":652174,"Delta":638810169},{"NoteNumber":41,"Velocity":67,"Duration":652174,"SoundDuration":652174,"Delta":638810169},{"NoteNumber":82,"Velocity":94,"Duration":1739132,"SoundDuration":1739132,"Delta":640114518},{"NoteNumber":77,"Velocity":79,"Duration":1739132,"SoundDuration":1739132,"Delta":640114518},{"NoteNumber":74,"Velocity":79,"Duration":1739132,"SoundDuration":1739132,"Delta":640114518},{"NoteNumber":70,"Velocity":79,"Duration":1739132,"SoundDuration":1739132,"Delta":640114518},{"NoteNumber":34,"Velocity":73,"Duration":1739132,"SoundDuration":1739132,"Delta":640114518},{"NoteNumber":38,"Velocity":73,"Duration":1739132,"SoundDuration":1739132,"Delta":640114518},{"NoteNumber":41,"Velocity":73,"Duration":1739132,"SoundDuration":1739132,"Delta":640114518},{"NoteNumber":46,"Velocity":87,"Duration":1739132,"SoundDuration":1739132,"Delta":640114518}],"license":{"name":"Creative Commons Attribution-ShareAlike 3.0 Germany","url":"http://creativecommons.org/licenses/by-sa/3.0/de/deed.en","text":"The MIDI, audio (MP3, OGG) and video files of Bernd Krueger are licensed under the cc-by-sa Germany License. This means that you can use and adapt the files, as long as you attribute the copyright holder.\n\nName: Bernd Krueger\nSource: http://www.piano-midi.de\n\nThe distribution or public playback of the files is only allowed under identical license conditions.\n\nThe scores are open source.","attribution":"MIDI files by Bernd Krueger (piano-midi.de)"}}