{"title":"Hammerklaviersonate 1. Satz","artist":"Beethoven","durationMs":591478,"midiSha256":"10ffc5bac33ac84a7d5b818e8b7c1458f469158c8dd86ecd9a0a0da06fc2bffc","midiObject":[{"NoteNumber":34,"Velocity":96,"Duration":120481,"SoundDuration":120481,"Delta":0},{"NoteNumber":62,"Velocity":93,"Duration":342205,"SoundDuration":342205,"Delta":120482},{"NoteNumber":53,"Velocity":78,"Duration":342205,"SoundDuration":342205,"Delta":120482},{"NoteNumber":58,"Velocity":78,"Duration":342205,"SoundDuration":342205,"Delta":120482},{"NoteNumber":74,"Velocity":88,"Duration":114068,"SoundDuration":114068,"Delta":462687},{"NoteNumber":77,"Velocity":88,"Duration":114068,"SoundDuration":114068,"Delta":462687},{"NoteNumber":82,"Velocity":88,"Duration":114068,"SoundDuration":114068,"Delta":462687},{"NoteNumber":86,"Velocity":105,"Duration":114068,"SoundDuration":114068,"Delta":462687},{"NoteNumber":53,"Velocity":69,"Duration":114068,"SoundDuration":114068,"Delta":462687},{"NoteNumber":62,"Velocity":84,"Duration":114068,"SoundDuration":114068,"Delta":462687},{"NoteNumber":58,"Velocity":69,"Duration":114068,"SoundDuration":114068,"Delta":462687},{"NoteNumber":77,"Velocity":79,"Duration":171102,"SoundDuration":171102,"Delta":576756},{"NoteNumber":82,"Velocity":79,"Duration":171102,"SoundDuration":171102,"Delta":576756},{"NoteNumber":74,"Velocity":79,"Duration":171102,"SoundDuration":171102,"Delta":576756},{"NoteNumber":86,"Velocity":94,"Duration":171102,"SoundDuration":171102,"Delta":576756},{"NoteNumber":62,"Velocity":93,"Duration":171102,"SoundDuration":171102,"Delta":576756},{"NoteNumber":58,"Velocity":78,"Duration":171102,"SoundDuration":171102,"Delta":576756},{"NoteNumber":53,"Velocity":78,"Duration":171102,"SoundDuration":171102,"Delta":576756},{"NoteNumber":74,"Velocity":80,"Duration":42775,"SoundDuration":42775,"Delta":804893},{"NoteNumber":87,"Velocity":100,"Duration":42775,"SoundDuration":42775,"Delta":804893},{"NoteNumber":77,"Velocity":80,"Duration":42775,"SoundDuration":42775,"Delta":804893},{"NoteNumber":82,"Velocity":80,"Duration":42775,"SoundDuration":42775,"Delta":804893},{"NoteNumber":62,"Velocity":88,"Duration":42775,"SoundDuration":42775,"Delta":804893},{"NoteNumber":58,"Velocity":75,"Duration":42775,"SoundDuration":42775,"Delta":804893},{"NoteNumber":53,"Velocity":75,"Duration":42775,"SoundDuration":42775,"Delta":804893},{"NoteNumber":86,"Velocity":97,"Duration":53066,"SoundDuration":53066,"Delta":918961},{"NoteNumber":74,"Velocity":82,"Duration":53066,"SoundDuration":53066,"Delta":918961},{"NoteNumber":82,"Velocity":82,"Duration":53066,"SoundDuration":53066,"Delta":918961},{"NoteNumber":77,"Velocity":82,"Duration":53066,"SoundDuration":53066,"Delta":918961},{"NoteNumber":58,"Velocity":78,"Duration":53066,"SoundDuration":53066,"Delta":918961},{"NoteNumber":62,"Velocity":93,"Duration":53066,"SoundDuration":53066,"Delta":918961},{"NoteNumber":53,"Velocity":78,"Duration":53066,"SoundDuration":53066,"Delta":918961},{"NoteNumber":77,"Velocity":88,"Duration":131004,"SoundDuration":131004,"Delta":1060471},{"NoteNumber":74,"Velocity":88,"Duration":131004,"SoundDuration":131004,"Delta":1060471},{"NoteNumber":82,"Velocity":88,"Duration":131004,"SoundDuration":131004,"Delta":1060471},{"NoteNumber":86,"Velocity":105,"Duration":131004,"SoundDuration":131004,"Delta":1060471},{"NoteNumber":62,"Velocity":93,"Duration":131004,"SoundDuration":131004,"Delta":1060471},{"NoteNumber":53,"Velocity":78,"Duration":131004,"SoundDuration":131004,"Delta":1060471},{"NoteNumber":58,"Velocity":78,"Duration":131004,"SoundDuration":131004,"Delta":1060471},{"NoteNumber":74,"Velocity":80,"Duration":131004,"SoundDuration":131004,"Delta":1322479},{"NoteNumber":70,"Velocity":80,"Duration":131004,"SoundDuration":131004,"Delta":1322479},{"NoteNumber":77,"Velocity":80,"Duration":131004,"SoundDuration":131004,"Delta":1322479},{"NoteNumber":82,"Velocity":96,"Duration":131004,"SoundDuration":131004,"Delta":1322479},{"NoteNumber":53,"Velocity":78,"Duration":131004,"SoundDuration":131004,"Delta":1322479},{"NoteNumber":50,"Velocity":78,"Duration":131004,"SoundDuration":131004,"Delta":1322479},{"NoteNumber":58,"Velocity":93,"Duration":131004,"SoundDuration":131004,"Delta":1322479},{"NoteNumber":34,"Velocity":96,"Duration":122449,"SoundDuration":122449,"Delta":1977501},{"NoteNumber":58,"Velocity":78,"Duration":348837,"SoundDuration":348837,"Delta":2099950},{"NoteNumber":53,"Velocity":78,"Duration":348837,"SoundDuration":348837,"Delta":2099950},{"NoteNumber":62,"Velocity":78,"Duration":348837,"SoundDuration":348837,"Delta":2099950},{"NoteNumber":65,"Velocity":93,"Duration":348837,"SoundDuration":348837,"Delta":2099950},{"NoteNumber":82,"Velocity":88,"Duration":116279,"SoundDuration":116279,"Delta":2448787},{"NoteNumber":86,"Velocity":88,"Duration":116279,"SoundDuration":116279,"Delta":2448787},{"NoteNumber":77,"Velocity":88,"Duration":116279,"SoundDuration":116279,"Delta":2448787},{"NoteNumber":89,"Velocity":105,"Duration":116279,"SoundDuration":116279,"Delta":2448787},{"NoteNumber":58,"Velocity":69,"Duration":116279,"SoundDuration":116279,"Delta":2448787},{"NoteNumber":53,"Velocity":69,"Duration":116279,"SoundDuration":116279,"Delta":2448787},{"NoteNumber":62,"Velocity":69,"Duration":116279,"SoundDuration":116279,"Delta":2448787},{"NoteNumber":65,"Velocity":84,"Duration":116279,"SoundDuration":116279,"Delta":2448787},{"NoteNumber":77,"Velocity":79,"Duration":174418,"SoundDuration":174418,"Delta":2565066},{"NoteNumber":82,"Velocity":79,"Duration":174418,"SoundDuration":174418,"Delta":2565066},{"NoteNumber":86,"Velocity":79,"Duration":174418,"SoundDuration":174418,"Delta":2565066},{"NoteNumber":89,"Velocity":94,"Duration":174418,"SoundDuration":174418,"Delta":2565066},{"NoteNumber":58,"Velocity":78,"Duration":174418,"SoundDuration":174418,"Delta":2565066},{"NoteNumber":65,"Velocity":93,"Duration":174418,"SoundDuration":174418,"Delta":2565066},{"NoteNumber":62,"Velocity":78,"Duration":174418,"SoundDuration":174418,"Delta":2565066},{"NoteNumber":53,"Velocity":78,"Duration":174418,"SoundDuration":174418,"Delta":2565066},{"NoteNumber":82,"Velocity":80,"Duration":43604,"SoundDuration":43604,"Delta":2797623},{"NoteNumber":86,"Velocity":80,"Duration":43604,"SoundDuration":43604,"Delta":2797623},{"NoteNumber":91,"Velocity":100,"Duration":43604,"SoundDuration":43604,"Delta":2797623},{"NoteNumber":77,"Velocity":80,"Duration":43604,"SoundDuration":43604,"Delta":2797623},{"NoteNumber":62,"Velocity":75,"Duration":43604,"SoundDuration":43604,"Delta":2797623},{"NoteNumber":58,"Velocity":75,"Duration":43604,"SoundDuration":43604,"Delta":2797623},{"NoteNumber":65,"Velocity":88,"Duration":43604,"SoundDuration":43604,"Delta":2797623},{"NoteNumber":53,"Velocity":75,"Duration":43604,"SoundDuration":43604,"Delta":2797623},{"NoteNumber":77,"Velocity":82,"Duration":54086,"SoundDuration":54086,"Delta":2913903},{"NoteNumber":82,"Velocity":82,"Duration":54086,"SoundDuration":54086,"Delta":2913903},{"NoteNumber":89,"Velocity":97,"Duration":54086,"SoundDuration":54086,"Delta":2913903},{"NoteNumber":86,"Velocity":82,"Duration":54086,"SoundDuration":54086,"Delta":2913903},{"NoteNumber":62,"Velocity":78,"Duration":54086,"SoundDuration":54086,"Delta":2913903},{"NoteNumber":58,"Velocity":78,"Duration":54086,"SoundDuration":54086,"Delta":2913903},{"NoteNumber":65,"Velocity":93,"Duration":54086,"SoundDuration":54086,"Delta":2913903},{"NoteNumber":53,"Velocity":78,"Duration":54086,"SoundDuration":54086,"Delta":2913903},{"NoteNumber":89,"Velocity":105,"Duration":132158,"SoundDuration":132158,"Delta":3058133},{"NoteNumber":77,"Velocity":88,"Duration":132158,"SoundDuration":132158,"Delta":3058133},{"NoteNumber":82,"Velocity":88,"Duration":132158,"SoundDuration":132158,"Delta":3058133},{"NoteNumber":86,"Velocity":88,"Duration":132158,"SoundDuration":132158,"Delta":3058133},{"NoteNumber":58,"Velocity":78,"Duration":132158,"SoundDuration":132158,"Delta":3058133},{"NoteNumber":65,"Velocity":93,"Duration":132158,"SoundDuration":132158,"Delta":3058133},{"NoteNumber":53,"Velocity":78,"Duration":132158,"SoundDuration":132158,"Delta":3058133},{"NoteNumber":62,"Velocity":78,"Duration":132158,"SoundDuration":132158,"Delta":3058133},{"NoteNumber":74,"Velocity":80,"Duration":132158,"SoundDuration":132158,"Delta":3322450},{"NoteNumber":77,"Velocity":80,"Duration":132158,"SoundDuration":132158,"Delta":3322450},{"NoteNumber":82,"Velocity":80,"Duration":132158,"SoundDuration":132158,"Delta":3322450},{"NoteNumber":86,"Velocity":96,"Duration":132158,"SoundDuration":132158,"Delta":3322450},{"NoteNumber":58,"Velocity":78,"Duration":132158,"SoundDuration":132158,"Delta":3322450},{"NoteNumber":62,"Velocity":93,"Duration":132158,"SoundDuration":132158,"Delta":3322450},{"NoteNumber":53,"Velocity":78,"Duration":132158,"SoundDuration":132158,"Delta":3322450},{"NoteNumber":70,"Velocity":50,"Duration":132158,"SoundDuration":132158,"Delta":3851084},{"NoteNumber":72,"Velocity":45,"Duration":132158,"SoundDuration":132158,"Delta":3983243},{"NoteNumber":74,"Velocity":50,"Duration":542759,"SoundDuration":542759,"Delta":4115401},{"NoteNumber":67,"Velocity":39,"Duration":259740,"SoundDuration":259740,"Delta":4398420},{"NoteNumber":64,"Velocity":29,"Duration":259740,"SoundDuration":259740,"Delta":4398420},{"NoteNumber":69,"Velocity":33,"Duration":259740,"SoundDuration":259740,"Delta":4658161},{"NoteNumber":72,"Velocity":39,"Duration":259740,"SoundDuration":259740,"Delta":4658161},{"NoteNumber":65,"Velocity":29,"Duration":259740,"SoundDuration":259740,"Delta":4658161},{"NoteNumber":68,"Velocity":42,"Duration":259740,"SoundDuration":259740,"Delta":4917901},{"NoteNumber":72,"Velocity":50,"Duration":129870,"SoundDuration":129870,"Delta":4917901},{"NoteNumber":59,"Velocity":40,"Duration":259740,"SoundDuration":259740,"Delta":4917901},{"NoteNumber":74,"Velocity":46,"Duration":129870,"SoundDuration":129870,"Delta":5047772},{"NoteNumber":75,"Velocity":55,"Duration":544848,"SoundDuration":544848,"Delta":5177642},{"NoteNumber":67,"Velocity":46,"Duration":263157,"SoundDuration":263157,"Delta":5177642},{"NoteNumber":60,"Velocity":40,"Duration":263157,"SoundDuration":263157,"Delta":5177642},{"NoteNumber":69,"Velocity":45,"Duration":281690,"SoundDuration":281690,"Delta":5440800},{"NoteNumber":54,"Velocity":36,"Duration":281690,"SoundDuration":281690,"Delta":5440800},{"NoteNumber":70,"Velocity":38,"Duration":265486,"SoundDuration":265486,"Delta":5722490},{"NoteNumber":74,"Velocity":45,"Duration":265486,"SoundDuration":265486,"Delta":5722490},{"NoteNumber":55,"Velocity":36,"Duration":265486,"SoundDuration":265486,"Delta":5722490},{"NoteNumber":67,"Velocity":39,"Duration":281690,"SoundDuration":281690,"Delta":5987976},{"NoteNumber":74,"Velocity":47,"Duration":140844,"SoundDuration":140844,"Delta":5987976},{"NoteNumber":51,"Velocity":40,"Duration":281690,"SoundDuration":281690,"Delta":5987976},{"NoteNumber":75,"Velocity":50,"Duration":140845,"SoundDuration":140845,"Delta":6128821},{"NoteNumber":65,"Velocity":45,"Duration":267857,"SoundDuration":267857,"Delta":6269666},{"NoteNumber":77,"Velocity":54,"Duration":399436,"SoundDuration":399436,"Delta":6269666},{"NoteNumber":50,"Velocity":40,"Duration":267857,"SoundDuration":267857,"Delta":6269666},{"NoteNumber":70,"Velocity":45,"Duration":263157,"SoundDuration":263157,"Delta":6537523},{"NoteNumber":49,"Velocity":35,"Duration":263157,"SoundDuration":263157,"Delta":6537523},{"NoteNumber":79,"Velocity":52,"Duration":131578,"SoundDuration":131578,"Delta":6669102},{"NoteNumber":67,"Velocity":42,"Duration":284640,"SoundDuration":284640,"Delta":6800681},{"NoteNumber":77,"Velocity":50,"Duration":131579,"SoundDuration":131579,"Delta":6800681},{"NoteNumber":48,"Velocity":35,"Duration":284640,"SoundDuration":284640,"Delta":6800681},{"NoteNumber":75,"Velocity":43,"Duration":295241,"SoundDuration":295241,"Delta":6932260},{"NoteNumber":69,"Velocity":43,"Duration":284360,"SoundDuration":284360,"Delta":7085322},{"NoteNumber":41,"Velocity":40,"Duration":284360,"SoundDuration":284360,"Delta":7085322},{"NoteNumber":77,"Velocity":45,"Duration":142180,"SoundDuration":142180,"Delta":7227502},{"NoteNumber":70,"Velocity":35,"Duration":319374,"SoundDuration":319374,"Delta":7369682},{"NoteNumber":65,"Velocity":35,"Duration":319374,"SoundDuration":319374,"Delta":7369682},{"NoteNumber":75,"Velocity":49,"Duration":155440,"SoundDuration":155440,"Delta":7369682},{"NoteNumber":46,"Velocity":38,"Duration":319374,"SoundDuration":319374,"Delta":7369682},{"NoteNumber":74,"Velocity":41,"Duration":163934,"SoundDuration":163934,"Delta":7525122},{"NoteNumber":72,"Velocity":30,"Duration":341150,"SoundDuration":341150,"Delta":7689057},{"NoteNumber":77,"Velocity":43,"Duration":160427,"SoundDuration":160427,"Delta":7689057},{"NoteNumber":67,"Velocity":30,"Duration":341150,"SoundDuration":341150,"Delta":7689057},{"NoteNumber":39,"Velocity":30,"Duration":341150,"SoundDuration":341150,"Delta":7689057},{"NoteNumber":75,"Velocity":37,"Duration":180723,"SoundDuration":180723,"Delta":7849484},{"NoteNumber":69,"Velocity":30,"Duration":361445,"SoundDuration":361445,"Delta":8030207},{"NoteNumber":72,"Velocity":35,"Duration":361445,"SoundDuration":361445,"Delta":8030207},{"NoteNumber":41,"Velocity":27,"Duration":361445,"SoundDuration":361445,"Delta":8030207},{"NoteNumber":82,"Velocity":50,"Duration":132158,"SoundDuration":132158,"Delta":8391653},{"NoteNumber":84,"Velocity":45,"Duration":132158,"SoundDuration":132158,"Delta":8523812},{"NoteNumber":86,"Velocity":50,"Duration":542759,"SoundDuration":542759,"Delta":8655970},{"NoteNumber":79,"Velocity":39,"Duration":259740,"SoundDuration":259740,"Delta":8938989},{"NoteNumber":76,"Velocity":29,"Duration":259740,"SoundDuration":259740,"Delta":8938989},{"NoteNumber":81,"Velocity":33,"Duration":259740,"SoundDuration":259740,"Delta":9198730},{"NoteNumber":84,"Velocity":39,"Duration":259740,"SoundDuration":259740,"Delta":9198730},{"NoteNumber":77,"Velocity":29,"Duration":259740,"SoundDuration":259740,"Delta":9198730},{"NoteNumber":84,"Velocity":50,"Duration":129870,"SoundDuration":129870,"Delta":9458470},{"NoteNumber":80,"Velocity":42,"Duration":259740,"SoundDuration":259740,"Delta":9458470},{"NoteNumber":71,"Velocity":40,"Duration":259740,"SoundDuration":259740,"Delta":9458470},{"NoteNumber":86,"Velocity":46,"Duration":129870,"SoundDuration":129870,"Delta":9588341},{"NoteNumber":79,"Velocity":46,"Duration":263158,"SoundDuration":263158,"Delta":9718211},{"NoteNumber":87,"Velocity":55,"Duration":544848,"SoundDuration":544848,"Delta":9718211},{"NoteNumber":72,"Velocity":40,"Duration":263158,"SoundDuration":263158,"Delta":9718211},{"NoteNumber":81,"Velocity":45,"Duration":281689,"SoundDuration":281689,"Delta":9981369},{"NoteNumber":66,"Velocity":36,"Duration":281689,"SoundDuration":281689,"Delta":9981369},{"NoteNumber":86,"Velocity":45,"Duration":265486,"SoundDuration":265486,"Delta":10263059},{"NoteNumber":82,"Velocity":38,"Duration":265486,"SoundDuration":265486,"Delta":10263059},{"NoteNumber":67,"Velocity":36,"Duration":265486,"SoundDuration":265486,"Delta":10263059},{"NoteNumber":79,"Velocity":39,"Duration":281689,"SoundDuration":281689,"Delta":10528545},{"NoteNumber":86,"Velocity":51,"Duration":140845,"SoundDuration":140845,"Delta":10528545},{"NoteNumber":63,"Velocity":40,"Duration":281689,"SoundDuration":281689,"Delta":10528545},{"NoteNumber":87,"Velocity":55,"Duration":140844,"SoundDuration":140844,"Delta":10669390},{"NoteNumber":89,"Velocity":59,"Duration":399435,"SoundDuration":399435,"Delta":10810235},{"NoteNumber":77,"Velocity":45,"Duration":267856,"SoundDuration":267856,"Delta":10810235},{"NoteNumber":62,"Velocity":40,"Duration":267856,"SoundDuration":267856,"Delta":10810235},{"NoteNumber":82,"Velocity":45,"Duration":263158,"SoundDuration":263158,"Delta":11078092},{"NoteNumber":61,"Velocity":35,"Duration":263158,"SoundDuration":263158,"Delta":11078092},{"NoteNumber":91,"Velocity":57,"Duration":131579,"SoundDuration":131579,"Delta":11209671},{"NoteNumber":89,"Velocity":55,"Duration":131578,"SoundDuration":131578,"Delta":11341250},{"NoteNumber":79,"Velocity":42,"Duration":284640,"SoundDuration":284640,"Delta":11341250},{"NoteNumber":60,"Velocity":35,"Duration":284640,"SoundDuration":284640,"Delta":11341250},{"NoteNumber":87,"Velocity":47,"Duration":295241,"SoundDuration":295241,"Delta":11472829},{"NoteNumber":81,"Velocity":43,"Duration":284359,"SoundDuration":284359,"Delta":11625890},{"NoteNumber":53,"Velocity":40,"Duration":284359,"SoundDuration":284359,"Delta":11625890},{"NoteNumber":89,"Velocity":50,"Duration":142179,"SoundDuration":142179,"Delta":11768070},{"NoteNumber":87,"Velocity":57,"Duration":131579,"SoundDuration":131579,"Delta":11910250},{"NoteNumber":77,"Velocity":44,"Duration":284640,"SoundDuration":284640,"Delta":11910250},{"NoteNumber":58,"Velocity":36,"Duration":284640,"SoundDuration":284640,"Delta":11910250},{"NoteNumber":86,"Velocity":49,"Duration":295241,"SoundDuration":295241,"Delta":12041829},{"NoteNumber":82,"Velocity":46,"Duration":559589,"SoundDuration":559589,"Delta":12194891},{"NoteNumber":54,"Velocity":43,"Duration":284359,"SoundDuration":284359,"Delta":12194891},{"NoteNumber":87,"Velocity":53,"Duration":142179,"SoundDuration":142179,"Delta":12337071},{"NoteNumber":86,"Velocity":60,"Duration":137614,"SoundDuration":137614,"Delta":12479251},{"NoteNumber":53,"Velocity":44,"Duration":275229,"SoundDuration":275229,"Delta":12479251},{"NoteNumber":84,"Velocity":49,"Duration":137614,"SoundDuration":137614,"Delta":12616865},{"NoteNumber":86,"Velocity":55,"Duration":137614,"SoundDuration":137614,"Delta":12754480},{"NoteNumber":81,"Velocity":47,"Duration":275229,"SoundDuration":275229,"Delta":12754480},{"NoteNumber":77,"Velocity":47,"Duration":275229,"SoundDuration":275229,"Delta":12754480},{"NoteNumber":51,"Velocity":45,"Duration":275229,"SoundDuration":275229,"Delta":12754480},{"NoteNumber":87,"Velocity":51,"Duration":137614,"SoundDuration":137614,"Delta":12892095},{"NoteNumber":77,"Velocity":52,"Duration":271492,"SoundDuration":271492,"Delta":13029710},{"NoteNumber":91,"Velocity":67,"Duration":135746,"SoundDuration":135746,"Delta":13029710},{"NoteNumber":82,"Velocity":52,"Duration":271492,"SoundDuration":271492,"Delta":13029710},{"NoteNumber":50,"Velocity":46,"Duration":271492,"SoundDuration":271492,"Delta":13029710},{"NoteNumber":89,"Velocity":53,"Duration":135746,"SoundDuration":135746,"Delta":13165456},{"NoteNumber":91,"Velocity":58,"Duration":135746,"SoundDuration":135746,"Delta":13301203},{"NoteNumber":82,"Velocity":41,"Duration":279287,"SoundDuration":279287,"Delta":13301203},{"NoteNumber":49,"Velocity":47,"Duration":279287,"SoundDuration":279287,"Delta":13301203},{"NoteNumber":89,"Velocity":59,"Duration":143540,"SoundDuration":143540,"Delta":13436949},{"NoteNumber":89,"Velocity":69,"Duration":134529,"SoundDuration":134529,"Delta":13580490},{"NoteNumber":79,"Velocity":53,"Duration":269058,"SoundDuration":269058,"Delta":13580490},{"NoteNumber":48,"Velocity":48,"Duration":269058,"SoundDuration":269058,"Delta":13580490},{"NoteNumber":87,"Velocity":55,"Duration":134529,"SoundDuration":134529,"Delta":13715019},{"NoteNumber":81,"Velocity":43,"Duration":282312,"SoundDuration":282312,"Delta":13849548},{"NoteNumber":89,"Velocity":61,"Duration":134529,"SoundDuration":134529,"Delta":13849548},{"NoteNumber":41,"Velocity":50,"Duration":282312,"SoundDuration":282312,"Delta":13849548},{"NoteNumber":87,"Velocity":56,"Duration":147783,"SoundDuration":147783,"Delta":13984078},{"NoteNumber":87,"Velocity":74,"Duration":134529,"SoundDuration":134529,"Delta":14131861},{"NoteNumber":77,"Velocity":57,"Duration":269058,"SoundDuration":269058,"Delta":14131861},{"NoteNumber":46,"Velocity":50,"Duration":269058,"SoundDuration":269058,"Delta":14131861},{"NoteNumber":86,"Velocity":57,"Duration":134529,"SoundDuration":134529,"Delta":14266390},{"NoteNumber":87,"Velocity":63,"Duration":134529,"SoundDuration":134529,"Delta":14400919},{"NoteNumber":82,"Velocity":45,"Duration":551858,"SoundDuration":551858,"Delta":14400919},{"NoteNumber":42,"Velocity":52,"Duration":281587,"SoundDuration":281587,"Delta":14400919},{"NoteNumber":86,"Velocity":58,"Duration":143382,"SoundDuration":143382,"Delta":14535449},{"NoteNumber":86,"Velocity":75,"Duration":135135,"SoundDuration":135135,"Delta":14682507},{"NoteNumber":41,"Velocity":53,"Duration":270270,"SoundDuration":270270,"Delta":14682507},{"NoteNumber":84,"Velocity":61,"Duration":135135,"SoundDuration":135135,"Delta":14817643},{"NoteNumber":86,"Velocity":67,"Duration":135135,"SoundDuration":135135,"Delta":14952778},{"NoteNumber":77,"Velocity":47,"Duration":285888,"SoundDuration":285888,"Delta":14952778},{"NoteNumber":81,"Velocity":47,"Duration":285888,"SoundDuration":285888,"Delta":14952778},{"NoteNumber":39,"Velocity":54,"Duration":285888,"SoundDuration":285888,"Delta":14952778},{"NoteNumber":87,"Velocity":70,"Duration":150753,"SoundDuration":150753,"Delta":15087913},{"NoteNumber":91,"Velocity":69,"Duration":135746,"SoundDuration":135746,"Delta":15238667},{"NoteNumber":77,"Velocity":58,"Duration":271492,"SoundDuration":271492,"Delta":15238667},{"NoteNumber":82,"Velocity":58,"Duration":271492,"SoundDuration":271492,"Delta":15238667},{"NoteNumber":38,"Velocity":55,"Duration":271492,"SoundDuration":271492,"Delta":15238667},{"NoteNumber":89,"Velocity":70,"Duration":135746,"SoundDuration":135746,"Delta":15374413},{"NoteNumber":82,"Velocity":60,"Duration":286500,"SoundDuration":286500,"Delta":15510160},{"NoteNumber":88,"Velocity":76,"Duration":286500,"SoundDuration":286500,"Delta":15510160},{"NoteNumber":37,"Velocity":56,"Duration":286500,"SoundDuration":286500,"Delta":15510160},{"NoteNumber":91,"Velocity":72,"Duration":289642,"SoundDuration":289642,"Delta":15645906},{"NoteNumber":87,"Velocity":67,"Duration":277778,"SoundDuration":277778,"Delta":15796660},{"NoteNumber":36,"Velocity":57,"Duration":277778,"SoundDuration":277778,"Delta":15796660},{"NoteNumber":92,"Velocity":74,"Duration":277778,"SoundDuration":277778,"Delta":15935549},{"NoteNumber":84,"Velocity":64,"Duration":287403,"SoundDuration":287403,"Delta":16074438},{"NoteNumber":87,"Velocity":76,"Duration":287403,"SoundDuration":287403,"Delta":16074438},{"NoteNumber":30,"Velocity":58,"Duration":287403,"SoundDuration":287403,"Delta":16074438},{"NoteNumber":93,"Velocity":77,"Duration":148514,"SoundDuration":148514,"Delta":16213327},{"NoteNumber":82,"Velocity":73,"Duration":281690,"SoundDuration":281690,"Delta":16361842},{"NoteNumber":96,"Velocity":86,"Duration":140844,"SoundDuration":140844,"Delta":16361842},{"NoteNumber":86,"Velocity":73,"Duration":281690,"SoundDuration":281690,"Delta":16361842},{"NoteNumber":31,"Velocity":67,"Duration":281690,"SoundDuration":281690,"Delta":16361842},{"NoteNumber":94,"Velocity":72,"Duration":140845,"SoundDuration":140845,"Delta":16502687},{"NoteNumber":82,"Velocity":71,"Duration":290844,"SoundDuration":290844,"Delta":16643532},{"NoteNumber":93,"Velocity":84,"Duration":140844,"SoundDuration":140844,"Delta":16643532},{"NoteNumber":87,"Velocity":71,"Duration":290844,"SoundDuration":290844,"Delta":16643532},{"NoteNumber":39,"Velocity":61,"Duration":290844,"SoundDuration":290844,"Delta":16643532},{"NoteNumber":91,"Velocity":74,"Duration":149999,"SoundDuration":149999,"Delta":16784377},{"NoteNumber":89,"Velocity":86,"Duration":150753,"SoundDuration":150753,"Delta":16934377},{"NoteNumber":86,"Velocity":72,"Duration":150753,"SoundDuration":150753,"Delta":16934377},{"NoteNumber":82,"Velocity":72,"Duration":150753,"SoundDuration":150753,"Delta":16934377},{"NoteNumber":41,"Velocity":70,"Duration":150753,"SoundDuration":150753,"Delta":16934377},{"NoteNumber":89,"Velocity":80,"Duration":150753,"SoundDuration":150753,"Delta":17235884},{"NoteNumber":93,"Velocity":80,"Duration":150753,"SoundDuration":150753,"Delta":17235884},{"NoteNumber":84,"Velocity":67,"Duration":150753,"SoundDuration":150753,"Delta":17235884},{"NoteNumber":81,"Velocity":67,"Duration":150753,"SoundDuration":150753,"Delta":17235884},{"NoteNumber":29,"Velocity":66,"Duration":150753,"SoundDuration":150753,"Delta":17235884},{"NoteNumber":41,"Velocity":66,"Duration":150753,"SoundDuration":150753,"Delta":17235884},{"NoteNumber":82,"Velocity":85,"Duration":542985,"SoundDuration":542985,"Delta":17537392},{"NoteNumber":89,"Velocity":85,"Duration":542985,"SoundDuration":542985,"Delta":17537392},{"NoteNumber":86,"Velocity":85,"Duration":542985,"SoundDuration":542985,"Delta":17537392},{"NoteNumber":94,"Velocity":101,"Duration":542985,"SoundDuration":542985,"Delta":17537392},{"NoteNumber":46,"Velocity":68,"Duration":135746,"SoundDuration":135746,"Delta":17537392},{"NoteNumber":34,"Velocity":57,"Duration":135746,"SoundDuration":135746,"Delta":17537392},{"NoteNumber":53,"Velocity":47,"Duration":135746,"SoundDuration":135746,"Delta":17673138},{"NoteNumber":58,"Velocity":47,"Duration":135746,"SoundDuration":135746,"Delta":17673138},{"NoteNumber":62,"Velocity":56,"Duration":135746,"SoundDuration":135746,"Delta":17673138},{"NoteNumber":62,"Velocity":56,"Duration":135746,"SoundDuration":135746,"Delta":17808885},{"NoteNumber":58,"Velocity":47,"Duration":135746,"SoundDuration":135746,"Delta":17808885},{"NoteNumber":53,"Velocity":47,"Duration":135746,"SoundDuration":135746,"Delta":17808885},{"NoteNumber":53,"Velocity":47,"Duration":135746,"SoundDuration":135746,"Delta":17944631},{"NoteNumber":62,"Velocity":56,"Duration":135746,"SoundDuration":135746,"Delta":17944631},{"NoteNumber":58,"Velocity":47,"Duration":135746,"SoundDuration":135746,"Delta":17944631},{"NoteNumber":70,"Velocity":63,"Duration":556493,"SoundDuration":556493,"Delta":18080378},{"NoteNumber":82,"Velocity":75,"Duration":556493,"SoundDuration":556493,"Delta":18080378},{"NoteNumber":74,"Velocity":63,"Duration":556493,"SoundDuration":556493,"Delta":18080378},{"NoteNumber":62,"Velocity":53,"Duration":135746,"SoundDuration":135746,"Delta":18216124},{"NoteNumber":53,"Velocity":45,"Duration":135746,"SoundDuration":135746,"Delta":18216124},{"NoteNumber":58,"Velocity":45,"Duration":135746,"SoundDuration":135746,"Delta":18216124},{"NoteNumber":58,"Velocity":45,"Duration":135746,"SoundDuration":135746,"Delta":18351871},{"NoteNumber":53,"Velocity":45,"Duration":135746,"SoundDuration":135746,"Delta":18351871},{"NoteNumber":62,"Velocity":54,"Duration":135746,"SoundDuration":135746,"Delta":18351871},{"NoteNumber":58,"Velocity":45,"Duration":149253,"SoundDuration":149253,"Delta":18487617},{"NoteNumber":53,"Velocity":45,"Duration":149253,"SoundDuration":149253,"Delta":18487617},{"NoteNumber":62,"Velocity":54,"Duration":149253,"SoundDuration":149253,"Delta":18487617},{"NoteNumber":77,"Velocity":50,"Duration":66371,"SoundDuration":66371,"Delta":18636871},{"NoteNumber":86,"Velocity":59,"Duration":66371,"SoundDuration":66371,"Delta":18636871},{"NoteNumber":74,"Velocity":50,"Duration":66371,"SoundDuration":66371,"Delta":18636871},{"NoteNumber":53,"Velocity":37,"Duration":66371,"SoundDuration":66371,"Delta":18769614},{"NoteNumber":58,"Velocity":37,"Duration":66371,"SoundDuration":66371,"Delta":18769614},{"NoteNumber":62,"Velocity":44,"Duration":66371,"SoundDuration":66371,"Delta":18769614},{"NoteNumber":82,"Velocity":61,"Duration":66371,"SoundDuration":66371,"Delta":18902358},{"NoteNumber":74,"Velocity":51,"Duration":66371,"SoundDuration":66371,"Delta":18902358},{"NoteNumber":70,"Velocity":51,"Duration":66371,"SoundDuration":66371,"Delta":18902358},{"NoteNumber":58,"Velocity":44,"Duration":66371,"SoundDuration":66371,"Delta":19035101},{"NoteNumber":50,"Velocity":37,"Duration":66371,"SoundDuration":66371,"Delta":19035101},{"NoteNumber":74,"Velocity":51,"Duration":66371,"SoundDuration":66371,"Delta":19167844},{"NoteNumber":77,"Velocity":51,"Duration":66371,"SoundDuration":66371,"Delta":19167844},{"NoteNumber":86,"Velocity":61,"Duration":66371,"SoundDuration":66371,"Delta":19167844},{"NoteNumber":53,"Velocity":37,"Duration":66371,"SoundDuration":66371,"Delta":19300587},{"NoteNumber":58,"Velocity":37,"Duration":66371,"SoundDuration":66371,"Delta":19300587},{"NoteNumber":62,"Velocity":44,"Duration":66371,"SoundDuration":66371,"Delta":19300587},{"NoteNumber":72,"Velocity":51,"Duration":66371,"SoundDuration":66371,"Delta":19433331},{"NoteNumber":75,"Velocity":51,"Duration":66371,"SoundDuration":66371,"Delta":19433331},{"NoteNumber":84,"Velocity":61,"Duration":66371,"SoundDuration":66371,"Delta":19433331},{"NoteNumber":60,"Velocity":44,"Duration":85227,"SoundDuration":85227,"Delta":19566074},{"NoteNumber":51,"Velocity":37,"Duration":85227,"SoundDuration":85227,"Delta":19566074},{"NoteNumber":58,"Velocity":37,"Duration":85227,"SoundDuration":85227,"Delta":19566074},{"NoteNumber":87,"Velocity":116,"Duration":542985,"SoundDuration":542985,"Delta":19736528},{"NoteNumber":79,"Velocity":97,"Duration":542985,"SoundDuration":542985,"Delta":19736528},{"NoteNumber":75,"Velocity":97,"Duration":542985,"SoundDuration":542985,"Delta":19736528},{"NoteNumber":46,"Velocity":78,"Duration":135746,"SoundDuration":135746,"Delta":19736528},{"NoteNumber":34,"Velocity":65,"Duration":135746,"SoundDuration":135746,"Delta":19736528},{"NoteNumber":58,"Velocity":54,"Duration":135746,"SoundDuration":135746,"Delta":19872275},{"NoteNumber":63,"Velocity":64,"Duration":135746,"SoundDuration":135746,"Delta":19872275},{"NoteNumber":55,"Velocity":54,"Duration":135746,"SoundDuration":135746,"Delta":19872275},{"NoteNumber":63,"Velocity":64,"Duration":135746,"SoundDuration":135746,"Delta":20008021},{"NoteNumber":55,"Velocity":54,"Duration":135746,"SoundDuration":135746,"Delta":20008021},{"NoteNumber":58,"Velocity":54,"Duration":135746,"SoundDuration":135746,"Delta":20008021},{"NoteNumber":63,"Velocity":64,"Duration":135746,"SoundDuration":135746,"Delta":20143768},{"NoteNumber":58,"Velocity":54,"Duration":135746,"SoundDuration":135746,"Delta":20143768},{"NoteNumber":55,"Velocity":54,"Duration":135746,"SoundDuration":135746,"Delta":20143768},{"NoteNumber":84,"Velocity":75,"Duration":556493,"SoundDuration":556493,"Delta":20279514},{"NoteNumber":75,"Velocity":63,"Duration":556493,"SoundDuration":556493,"Delta":20279514},{"NoteNumber":72,"Velocity":63,"Duration":556493,"SoundDuration":556493,"Delta":20279514},{"NoteNumber":58,"Velocity":45,"Duration":135746,"SoundDuration":135746,"Delta":20415261},{"NoteNumber":60,"Velocity":53,"Duration":135746,"SoundDuration":135746,"Delta":20415261},{"NoteNumber":51,"Velocity":45,"Duration":135746,"SoundDuration":135746,"Delta":20415261},{"NoteNumber":58,"Velocity":45,"Duration":135746,"SoundDuration":135746,"Delta":20551007},{"NoteNumber":60,"Velocity":54,"Duration":135746,"SoundDuration":135746,"Delta":20551007},{"NoteNumber":51,"Velocity":45,"Duration":135746,"SoundDuration":135746,"Delta":20551007},{"NoteNumber":60,"Velocity":54,"Duration":149253,"SoundDuration":149253,"Delta":20686754},{"NoteNumber":58,"Velocity":45,"Duration":149253,"SoundDuration":149253,"Delta":20686754},{"NoteNumber":51,"Velocity":45,"Duration":149253,"SoundDuration":149253,"Delta":20686754},{"NoteNumber":87,"Velocity":59,"Duration":66371,"SoundDuration":66371,"Delta":20836008},{"NoteNumber":75,"Velocity":50,"Duration":66371,"SoundDuration":66371,"Delta":20836008},{"NoteNumber":79,"Velocity":50,"Duration":66371,"SoundDuration":66371,"Delta":20836008},{"NoteNumber":58,"Velocity":37,"Duration":66371,"SoundDuration":66371,"Delta":20968751},{"NoteNumber":63,"Velocity":44,"Duration":66371,"SoundDuration":66371,"Delta":20968751},{"NoteNumber":55,"Velocity":37,"Duration":66371,"SoundDuration":66371,"Delta":20968751},{"NoteNumber":73,"Velocity":51,"Duration":66371,"SoundDuration":66371,"Delta":21101494},{"NoteNumber":76,"Velocity":51,"Duration":66371,"SoundDuration":66371,"Delta":21101494},{"NoteNumber":85,"Velocity":61,"Duration":66371,"SoundDuration":66371,"Delta":21101494},{"NoteNumber":52,"Velocity":37,"Duration":66371,"SoundDuration":66371,"Delta":21234237},{"NoteNumber":58,"Velocity":37,"Duration":66371,"SoundDuration":66371,"Delta":21234237},{"NoteNumber":61,"Velocity":44,"Duration":66371,"SoundDuration":66371,"Delta":21234237},{"NoteNumber":78,"Velocity":51,"Duration":64935,"SoundDuration":64935,"Delta":21366981},{"NoteNumber":87,"Velocity":61,"Duration":64935,"SoundDuration":64935,"Delta":21366981},{"NoteNumber":75,"Velocity":51,"Duration":64935,"SoundDuration":64935,"Delta":21366981},{"NoteNumber":54,"Velocity":37,"Duration":64935,"SoundDuration":64935,"Delta":21496851},{"NoteNumber":63,"Velocity":44,"Duration":64935,"SoundDuration":64935,"Delta":21496851},{"NoteNumber":58,"Velocity":37,"Duration":64935,"SoundDuration":64935,"Delta":21496851},{"NoteNumber":77,"Velocity":51,"Duration":64935,"SoundDuration":64935,"Delta":21626721},{"NoteNumber":74,"Velocity":51,"Duration":64935,"SoundDuration":64935,"Delta":21626721},{"NoteNumber":86,"Velocity":61,"Duration":64935,"SoundDuration":64935,"Delta":21626721},{"NoteNumber":62,"Velocity":44,"Duration":80213,"SoundDuration":80213,"Delta":21756591},{"NoteNumber":53,"Velocity":37,"Duration":80213,"SoundDuration":80213,"Delta":21756591},{"NoteNumber":58,"Velocity":37,"Duration":80213,"SoundDuration":80213,"Delta":21756591},{"NoteNumber":89,"Velocity":111,"Duration":542985,"SoundDuration":542985,"Delta":21917019},{"NoteNumber":80,"Velocity":93,"Duration":542985,"SoundDuration":542985,"Delta":21917019},{"NoteNumber":77,"Velocity":93,"Duration":542985,"SoundDuration":542985,"Delta":21917019},{"NoteNumber":46,"Velocity":74,"Duration":135746,"SoundDuration":135746,"Delta":21917019},{"NoteNumber":34,"Velocity":62,"Duration":135746,"SoundDuration":135746,"Delta":21917019},{"NoteNumber":58,"Velocity":51,"Duration":135746,"SoundDuration":135746,"Delta":22052766},{"NoteNumber":56,"Velocity":51,"Duration":135746,"SoundDuration":135746,"Delta":22052766},{"NoteNumber":65,"Velocity":61,"Duration":135746,"SoundDuration":135746,"Delta":22052766},{"NoteNumber":65,"Velocity":61,"Duration":135746,"SoundDuration":135746,"Delta":22188512},{"NoteNumber":56,"Velocity":51,"Duration":135746,"SoundDuration":135746,"Delta":22188512},{"NoteNumber":58,"Velocity":51,"Duration":135746,"SoundDuration":135746,"Delta":22188512},{"NoteNumber":65,"Velocity":61,"Duration":135746,"SoundDuration":135746,"Delta":22324259},{"NoteNumber":56,"Velocity":51,"Duration":135746,"SoundDuration":135746,"Delta":22324259},{"NoteNumber":58,"Velocity":51,"Duration":135746,"SoundDuration":135746,"Delta":22324259},{"NoteNumber":86,"Velocity":75,"Duration":556493,"SoundDuration":556493,"Delta":22460005},{"NoteNumber":74,"Velocity":63,"Duration":556493,"SoundDuration":556493,"Delta":22460005},{"NoteNumber":77,"Velocity":63,"Duration":556493,"SoundDuration":556493,"Delta":22460005},{"NoteNumber":58,"Velocity":45,"Duration":135746,"SoundDuration":135746,"Delta":22595752},{"NoteNumber":53,"Velocity":45,"Duration":135746,"SoundDuration":135746,"Delta":22595752},{"NoteNumber":62,"Velocity":53,"Duration":135746,"SoundDuration":135746,"Delta":22595752},{"NoteNumber":62,"Velocity":54,"Duration":135746,"SoundDuration":135746,"Delta":22731498},{"NoteNumber":58,"Velocity":45,"Duration":135746,"SoundDuration":135746,"Delta":22731498},{"NoteNumber":53,"Velocity":45,"Duration":135746,"SoundDuration":135746,"Delta":22731498},{"NoteNumber":58,"Velocity":45,"Duration":149253,"SoundDuration":149253,"Delta":22867245},{"NoteNumber":62,"Velocity":54,"Duration":149253,"SoundDuration":149253,"Delta":22867245},{"NoteNumber":53,"Velocity":45,"Duration":149253,"SoundDuration":149253,"Delta":22867245},{"NoteNumber":80,"Velocity":50,"Duration":66371,"SoundDuration":66371,"Delta":23016498},{"NoteNumber":77,"Velocity":50,"Duration":66371,"SoundDuration":66371,"Delta":23016498},{"NoteNumber":89,"Velocity":59,"Duration":66371,"SoundDuration":66371,"Delta":23016498},{"NoteNumber":58,"Velocity":37,"Duration":66371,"SoundDuration":66371,"Delta":23149242},{"NoteNumber":65,"Velocity":44,"Duration":66371,"SoundDuration":66371,"Delta":23149242},{"NoteNumber":56,"Velocity":37,"Duration":66371,"SoundDuration":66371,"Delta":23149242},{"NoteNumber":74,"Velocity":51,"Duration":66371,"SoundDuration":66371,"Delta":23281985},{"NoteNumber":78,"Velocity":51,"Duration":66371,"SoundDuration":66371,"Delta":23281985},{"NoteNumber":86,"Velocity":61,"Duration":66371,"SoundDuration":66371,"Delta":23281985},{"NoteNumber":58,"Velocity":37,"Duration":66371,"SoundDuration":66371,"Delta":23414728},{"NoteNumber":54,"Velocity":37,"Duration":66371,"SoundDuration":66371,"Delta":23414728},{"NoteNumber":62,"Velocity":44,"Duration":66371,"SoundDuration":66371,"Delta":23414728},{"NoteNumber":80,"Velocity":51,"Duration":64655,"SoundDuration":64655,"Delta":23547471},{"NoteNumber":89,"Velocity":61,"Duration":64655,"SoundDuration":64655,"Delta":23547471},{"NoteNumber":77,"Velocity":51,"Duration":64655,"SoundDuration":64655,"Delta":23547471},{"NoteNumber":58,"Velocity":37,"Duration":64655,"SoundDuration":64655,"Delta":23676782},{"NoteNumber":65,"Velocity":44,"Duration":64655,"SoundDuration":64655,"Delta":23676782},{"NoteNumber":56,"Velocity":37,"Duration":64655,"SoundDuration":64655,"Delta":23676782},{"NoteNumber":79,"Velocity":51,"Duration":64655,"SoundDuration":64655,"Delta":23806092},{"NoteNumber":75,"Velocity":51,"Duration":64655,"SoundDuration":64655,"Delta":23806092},{"NoteNumber":87,"Velocity":61,"Duration":64655,"SoundDuration":64655,"Delta":23806092},{"NoteNumber":58,"Velocity":37,"Duration":80213,"SoundDuration":80213,"Delta":23935402},{"NoteNumber":63,"Velocity":44,"Duration":80213,"SoundDuration":80213,"Delta":23935402},{"NoteNumber":55,"Velocity":37,"Duration":80213,"SoundDuration":80213,"Delta":23935402},{"NoteNumber":91,"Velocity":111,"Duration":542985,"SoundDuration":542985,"Delta":24095830},{"NoteNumber":79,"Velocity":93,"Duration":542985,"SoundDuration":542985,"Delta":24095830},{"NoteNumber":82,"Velocity":93,"Duration":542985,"SoundDuration":542985,"Delta":24095830},{"NoteNumber":46,"Velocity":74,"Duration":135746,"SoundDuration":135746,"Delta":24095830},{"NoteNumber":34,"Velocity":62,"Duration":135746,"SoundDuration":135746,"Delta":24095830},{"NoteNumber":63,"Velocity":51,"Duration":135746,"SoundDuration":135746,"Delta":24231576},{"NoteNumber":67,"Velocity":61,"Duration":135746,"SoundDuration":135746,"Delta":24231576},{"NoteNumber":58,"Velocity":51,"Duration":135746,"SoundDuration":135746,"Delta":24231576},{"NoteNumber":67,"Velocity":61,"Duration":135746,"SoundDuration":135746,"Delta":24367323},{"NoteNumber":58,"Velocity":51,"Duration":135746,"SoundDuration":135746,"Delta":24367323},{"NoteNumber":63,"Velocity":51,"Duration":135746,"SoundDuration":135746,"Delta":24367323},{"NoteNumber":67,"Velocity":61,"Duration":135746,"SoundDuration":135746,"Delta":24503069},{"NoteNumber":58,"Velocity":51,"Duration":135746,"SoundDuration":135746,"Delta":24503069},{"NoteNumber":63,"Velocity":51,"Duration":135746,"SoundDuration":135746,"Delta":24503069},{"NoteNumber":87,"Velocity":75,"Duration":556493,"SoundDuration":556493,"Delta":24638816},{"NoteNumber":79,"Velocity":63,"Duration":556493,"SoundDuration":556493,"Delta":24638816},{"NoteNumber":75,"Velocity":63,"Duration":556493,"SoundDuration":556493,"Delta":24638816},{"NoteNumber":82,"Velocity":63,"Duration":556493,"SoundDuration":556493,"Delta":24638816},{"NoteNumber":58,"Velocity":45,"Duration":135746,"SoundDuration":135746,"Delta":24774562},{"NoteNumber":63,"Velocity":53,"Duration":135746,"SoundDuration":135746,"Delta":24774562},{"NoteNumber":55,"Velocity":45,"Duration":135746,"SoundDuration":135746,"Delta":24774562},{"NoteNumber":63,"Velocity":54,"Duration":135746,"SoundDuration":135746,"Delta":24910309},{"NoteNumber":58,"Velocity":45,"Duration":135746,"SoundDuration":135746,"Delta":24910309},{"NoteNumber":55,"Velocity":45,"Duration":135746,"SoundDuration":135746,"Delta":24910309},{"NoteNumber":58,"Velocity":45,"Duration":149253,"SoundDuration":149253,"Delta":25046055},{"NoteNumber":63,"Velocity":54,"Duration":149253,"SoundDuration":149253,"Delta":25046055},{"NoteNumber":55,"Velocity":45,"Duration":149253,"SoundDuration":149253,"Delta":25046055},{"NoteNumber":79,"Velocity":50,"Duration":66371,"SoundDuration":66371,"Delta":25195309},{"NoteNumber":91,"Velocity":59,"Duration":66371,"SoundDuration":66371,"Delta":25195309},{"NoteNumber":82,"Velocity":50,"Duration":66371,"SoundDuration":66371,"Delta":25195309},{"NoteNumber":58,"Velocity":33,"Duration":66371,"SoundDuration":66371,"Delta":25328052},{"NoteNumber":67,"Velocity":39,"Duration":66371,"SoundDuration":66371,"Delta":25328052},{"NoteNumber":63,"Velocity":33,"Duration":66371,"SoundDuration":66371,"Delta":25328052},{"NoteNumber":76,"Velocity":51,"Duration":66371,"SoundDuration":66371,"Delta":25460796},{"NoteNumber":82,"Velocity":51,"Duration":66371,"SoundDuration":66371,"Delta":25460796},{"NoteNumber":88,"Velocity":61,"Duration":66371,"SoundDuration":66371,"Delta":25460796},{"NoteNumber":64,"Velocity":39,"Duration":66371,"SoundDuration":66371,"Delta":25593539},{"NoteNumber":58,"Velocity":33,"Duration":66371,"SoundDuration":66371,"Delta":25593539},{"NoteNumber":61,"Velocity":33,"Duration":66371,"SoundDuration":66371,"Delta":25593539},{"NoteNumber":82,"Velocity":56,"Duration":65789,"SoundDuration":65789,"Delta":25726282},{"NoteNumber":78,"Velocity":56,"Duration":65789,"SoundDuration":65789,"Delta":25726282},{"NoteNumber":90,"Velocity":67,"Duration":65789,"SoundDuration":65789,"Delta":25726282},{"NoteNumber":63,"Velocity":36,"Duration":65789,"SoundDuration":65789,"Delta":25857861},{"NoteNumber":58,"Velocity":36,"Duration":65789,"SoundDuration":65789,"Delta":25857861},{"NoteNumber":66,"Velocity":44,"Duration":65789,"SoundDuration":65789,"Delta":25857861},{"NoteNumber":89,"Velocity":69,"Duration":65789,"SoundDuration":65789,"Delta":25989440},{"NoteNumber":82,"Velocity":58,"Duration":65789,"SoundDuration":65789,"Delta":25989440},{"NoteNumber":77,"Velocity":58,"Duration":65789,"SoundDuration":65789,"Delta":25989440},{"NoteNumber":62,"Velocity":37,"Duration":71770,"SoundDuration":71770,"Delta":26121019},{"NoteNumber":58,"Velocity":37,"Duration":71770,"SoundDuration":71770,"Delta":26121019},{"NoteNumber":65,"Velocity":45,"Duration":71770,"SoundDuration":71770,"Delta":26121019},{"NoteNumber":92,"Velocity":69,"Duration":66371,"SoundDuration":66371,"Delta":26264560},{"NoteNumber":82,"Velocity":59,"Duration":66371,"SoundDuration":66371,"Delta":26264560},{"NoteNumber":80,"Velocity":59,"Duration":66371,"SoundDuration":66371,"Delta":26264560},{"NoteNumber":58,"Velocity":39,"Duration":66371,"SoundDuration":66371,"Delta":26397303},{"NoteNumber":65,"Velocity":39,"Duration":66371,"SoundDuration":66371,"Delta":26397303},{"NoteNumber":68,"Velocity":46,"Duration":66371,"SoundDuration":66371,"Delta":26397303},{"NoteNumber":78,"Velocity":62,"Duration":66371,"SoundDuration":66371,"Delta":26530046},{"NoteNumber":90,"Velocity":74,"Duration":66371,"SoundDuration":66371,"Delta":26530046},{"NoteNumber":82,"Velocity":62,"Duration":66371,"SoundDuration":66371,"Delta":26530046},{"NoteNumber":58,"Velocity":40,"Duration":66371,"SoundDuration":66371,"Delta":26662790},{"NoteNumber":66,"Velocity":48,"Duration":66371,"SoundDuration":66371,"Delta":26662790},{"NoteNumber":62,"Velocity":40,"Duration":66371,"SoundDuration":66371,"Delta":26662790},{"NoteNumber":92,"Velocity":76,"Duration":65217,"SoundDuration":65217,"Delta":26795533},{"NoteNumber":82,"Velocity":64,"Duration":65217,"SoundDuration":65217,"Delta":26795533},{"NoteNumber":80,"Velocity":64,"Duration":65217,"SoundDuration":65217,"Delta":26795533},{"NoteNumber":68,"Velocity":50,"Duration":65217,"SoundDuration":65217,"Delta":26925968},{"NoteNumber":65,"Velocity":42,"Duration":65217,"SoundDuration":65217,"Delta":26925968},{"NoteNumber":58,"Velocity":42,"Duration":65217,"SoundDuration":65217,"Delta":26925968},{"NoteNumber":82,"Velocity":66,"Duration":65217,"SoundDuration":65217,"Delta":27056402},{"NoteNumber":91,"Velocity":79,"Duration":65217,"SoundDuration":65217,"Delta":27056402},{"NoteNumber":79,"Velocity":66,"Duration":65217,"SoundDuration":65217,"Delta":27056402},{"NoteNumber":58,"Velocity":43,"Duration":70422,"SoundDuration":70422,"Delta":27186837},{"NoteNumber":67,"Velocity":52,"Duration":70422,"SoundDuration":70422,"Delta":27186837},{"NoteNumber":63,"Velocity":43,"Duration":70422,"SoundDuration":70422,"Delta":27186837},{"NoteNumber":82,"Velocity":67,"Duration":65789,"SoundDuration":65789,"Delta":27327682},{"NoteNumber":87,"Velocity":67,"Duration":65789,"SoundDuration":65789,"Delta":27327682},{"NoteNumber":94,"Velocity":79,"Duration":65789,"SoundDuration":65789,"Delta":27327682},{"NoteNumber":91,"Velocity":67,"Duration":65789,"SoundDuration":65789,"Delta":27327682},{"NoteNumber":60,"Velocity":45,"Duration":65789,"SoundDuration":65789,"Delta":27459261},{"NoteNumber":67,"Velocity":53,"Duration":65789,"SoundDuration":65789,"Delta":27459261},{"NoteNumber":63,"Velocity":45,"Duration":65789,"SoundDuration":65789,"Delta":27459261},{"NoteNumber":58,"Velocity":45,"Duration":65789,"SoundDuration":65789,"Delta":27459261},{"NoteNumber":80,"Velocity":70,"Duration":65789,"SoundDuration":65789,"Delta":27590840},{"NoteNumber":92,"Velocity":84,"Duration":65789,"SoundDuration":65789,"Delta":27590840},{"NoteNumber":68,"Velocity":54,"Duration":65789,"SoundDuration":65789,"Delta":27722419},{"NoteNumber":58,"Velocity":45,"Duration":65789,"SoundDuration":65789,"Delta":27722419},{"NoteNumber":63,"Velocity":45,"Duration":65789,"SoundDuration":65789,"Delta":27722419},{"NoteNumber":60,"Velocity":45,"Duration":65789,"SoundDuration":65789,"Delta":27722419},{"NoteNumber":82,"Velocity":72,"Duration":65789,"SoundDuration":65789,"Delta":27853998},{"NoteNumber":94,"Velocity":86,"Duration":65789,"SoundDuration":65789,"Delta":27853998},{"NoteNumber":70,"Velocity":56,"Duration":65789,"SoundDuration":65789,"Delta":27985577},{"NoteNumber":58,"Velocity":47,"Duration":65789,"SoundDuration":65789,"Delta":27985577},{"NoteNumber":60,"Velocity":47,"Duration":65789,"SoundDuration":65789,"Delta":27985577},{"NoteNumber":63,"Velocity":47,"Duration":65789,"SoundDuration":65789,"Delta":27985577},{"NoteNumber":93,"Velocity":89,"Duration":65789,"SoundDuration":65789,"Delta":28117156},{"NoteNumber":81,"Velocity":74,"Duration":65789,"SoundDuration":65789,"Delta":28117156},{"NoteNumber":60,"Velocity":48,"Duration":70422,"SoundDuration":70422,"Delta":28248735},{"NoteNumber":63,"Velocity":48,"Duration":70422,"SoundDuration":70422,"Delta":28248735},{"NoteNumber":58,"Velocity":48,"Duration":70422,"SoundDuration":70422,"Delta":28248735},{"NoteNumber":69,"Velocity":58,"Duration":70422,"SoundDuration":70422,"Delta":28248735},{"NoteNumber":84,"Velocity":84,"Duration":131578,"SoundDuration":131578,"Delta":28389580},{"NoteNumber":96,"Velocity":99,"Duration":131578,"SoundDuration":131578,"Delta":28389580},{"NoteNumber":72,"Velocity":66,"Duration":65789,"SoundDuration":65789,"Delta":28521159},{"NoteNumber":60,"Velocity":56,"Duration":65789,"SoundDuration":65789,"Delta":28521159},{"NoteNumber":82,"Velocity":74,"Duration":131578,"SoundDuration":131578,"Delta":28652738},{"NoteNumber":94,"Velocity":88,"Duration":131578,"SoundDuration":131578,"Delta":28652738},{"NoteNumber":70,"Velocity":66,"Duration":65789,"SoundDuration":65789,"Delta":28784317},{"NoteNumber":58,"Velocity":56,"Duration":65789,"SoundDuration":65789,"Delta":28784317},{"NoteNumber":79,"Velocity":82,"Duration":131578,"SoundDuration":131578,"Delta":28915896},{"NoteNumber":91,"Velocity":97,"Duration":131578,"SoundDuration":131578,"Delta":28915896},{"NoteNumber":55,"Velocity":56,"Duration":65789,"SoundDuration":65789,"Delta":29047475},{"NoteNumber":67,"Velocity":66,"Duration":65789,"SoundDuration":65789,"Delta":29047475},{"NoteNumber":89,"Velocity":90,"Duration":131579,"SoundDuration":131579,"Delta":29179054},{"NoteNumber":77,"Velocity":76,"Duration":131579,"SoundDuration":131579,"Delta":29179054},{"NoteNumber":65,"Velocity":66,"Duration":70422,"SoundDuration":70422,"Delta":29310633},{"NoteNumber":53,"Velocity":56,"Duration":70422,"SoundDuration":70422,"Delta":29310633},{"NoteNumber":87,"Velocity":97,"Duration":131004,"SoundDuration":131004,"Delta":29451478},{"NoteNumber":75,"Velocity":85,"Duration":131004,"SoundDuration":131004,"Delta":29451478},{"NoteNumber":51,"Velocity":50,"Duration":65502,"SoundDuration":65502,"Delta":29582482},{"NoteNumber":63,"Velocity":59,"Duration":65502,"SoundDuration":65502,"Delta":29582482},{"NoteNumber":86,"Velocity":82,"Duration":131004,"SoundDuration":131004,"Delta":29713487},{"NoteNumber":74,"Velocity":69,"Duration":131004,"SoundDuration":131004,"Delta":29713487},{"NoteNumber":62,"Velocity":59,"Duration":65502,"SoundDuration":65502,"Delta":29844491},{"NoteNumber":50,"Velocity":50,"Duration":65502,"SoundDuration":65502,"Delta":29844491},{"NoteNumber":84,"Velocity":87,"Duration":131004,"SoundDuration":131004,"Delta":29975495},{"NoteNumber":72,"Velocity":73,"Duration":131004,"SoundDuration":131004,"Delta":29975495},{"NoteNumber":48,"Velocity":50,"Duration":65502,"SoundDuration":65502,"Delta":30106499},{"NoteNumber":60,"Velocity":59,"Duration":65502,"SoundDuration":65502,"Delta":30106499},{"NoteNumber":70,"Velocity":68,"Duration":131004,"SoundDuration":131004,"Delta":30237504},{"NoteNumber":82,"Velocity":81,"Duration":131004,"SoundDuration":131004,"Delta":30237504},{"NoteNumber":58,"Velocity":59,"Duration":70422,"SoundDuration":70422,"Delta":30368508},{"NoteNumber":46,"Velocity":50,"Duration":70422,"SoundDuration":70422,"Delta":30368508},{"NoteNumber":67,"Velocity":75,"Duration":131578,"SoundDuration":131578,"Delta":30509353},{"NoteNumber":79,"Velocity":89,"Duration":131578,"SoundDuration":131578,"Delta":30509353},{"NoteNumber":55,"Velocity":59,"Duration":65789,"SoundDuration":65789,"Delta":30640932},{"NoteNumber":43,"Velocity":50,"Duration":65789,"SoundDuration":65789,"Delta":30640932},{"NoteNumber":65,"Velocity":66,"Duration":131578,"SoundDuration":131578,"Delta":30772511},{"NoteNumber":77,"Velocity":79,"Duration":131578,"SoundDuration":131578,"Delta":30772511},{"NoteNumber":41,"Velocity":50,"Duration":65789,"SoundDuration":65789,"Delta":30904090},{"NoteNumber":53,"Velocity":59,"Duration":65789,"SoundDuration":65789,"Delta":30904090},{"NoteNumber":75,"Velocity":82,"Duration":131578,"SoundDuration":131578,"Delta":31035669},{"NoteNumber":63,"Velocity":69,"Duration":131578,"SoundDuration":131578,"Delta":31035669},{"NoteNumber":39,"Velocity":47,"Duration":65789,"SoundDuration":65789,"Delta":31167248},{"NoteNumber":51,"Velocity":56,"Duration":65789,"SoundDuration":65789,"Delta":31167248},{"NoteNumber":62,"Velocity":64,"Duration":131579,"SoundDuration":131579,"Delta":31298827},{"NoteNumber":74,"Velocity":76,"Duration":131579,"SoundDuration":131579,"Delta":31298827},{"NoteNumber":50,"Velocity":56,"Duration":70422,"SoundDuration":70422,"Delta":31430406},{"NoteNumber":38,"Velocity":47,"Duration":70422,"SoundDuration":70422,"Delta":31430406},{"NoteNumber":72,"Velocity":80,"Duration":132743,"SoundDuration":132743,"Delta":31571251},{"NoteNumber":60,"Velocity":67,"Duration":132743,"SoundDuration":132743,"Delta":31571251},{"NoteNumber":48,"Velocity":53,"Duration":66371,"SoundDuration":66371,"Delta":31703994},{"NoteNumber":36,"Velocity":45,"Duration":66371,"SoundDuration":66371,"Delta":31703994},{"NoteNumber":70,"Velocity":71,"Duration":132743,"SoundDuration":132743,"Delta":31836737},{"NoteNumber":58,"Velocity":59,"Duration":132743,"SoundDuration":132743,"Delta":31836737},{"NoteNumber":34,"Velocity":45,"Duration":66371,"SoundDuration":66371,"Delta":31969481},{"NoteNumber":46,"Velocity":53,"Duration":66371,"SoundDuration":66371,"Delta":31969481},{"NoteNumber":67,"Velocity":78,"Duration":132743,"SoundDuration":132743,"Delta":32102224},{"NoteNumber":55,"Velocity":65,"Duration":132743,"SoundDuration":132743,"Delta":32102224},{"NoteNumber":31,"Velocity":45,"Duration":66371,"SoundDuration":66371,"Delta":32234967},{"NoteNumber":43,"Velocity":53,"Duration":66371,"SoundDuration":66371,"Delta":32234967},{"NoteNumber":65,"Velocity":72,"Duration":132743,"SoundDuration":132743,"Delta":32367710},{"NoteNumber":53,"Velocity":61,"Duration":132743,"SoundDuration":132743,"Delta":32367710},{"NoteNumber":29,"Velocity":45,"Duration":70422,"SoundDuration":70422,"Delta":32500454},{"NoteNumber":41,"Velocity":53,"Duration":70422,"SoundDuration":70422,"Delta":32500454},{"NoteNumber":69,"Velocity":77,"Duration":265486,"SoundDuration":265486,"Delta":32641299},{"NoteNumber":33,"Velocity":42,"Duration":132743,"SoundDuration":132743,"Delta":32774042},{"NoteNumber":65,"Velocity":67,"Duration":276283,"SoundDuration":276283,"Delta":32906785},{"NoteNumber":29,"Velocity":28,"Duration":143540,"SoundDuration":143540,"Delta":33039528},{"NoteNumber":72,"Velocity":73,"Duration":266666,"SoundDuration":266666,"Delta":33183069},{"NoteNumber":36,"Velocity":39,"Duration":133333,"SoundDuration":133333,"Delta":33316402},{"NoteNumber":65,"Velocity":67,"Duration":275513,"SoundDuration":275513,"Delta":33449736},{"NoteNumber":29,"Velocity":27,"Duration":142180,"SoundDuration":142180,"Delta":33583069},{"NoteNumber":77,"Velocity":71,"Duration":266666,"SoundDuration":266666,"Delta":33725249},{"NoteNumber":41,"Velocity":37,"Duration":133333,"SoundDuration":133333,"Delta":33858582},{"NoteNumber":65,"Velocity":59,"Duration":276190,"SoundDuration":276190,"Delta":33991915},{"NoteNumber":29,"Velocity":26,"Duration":142857,"SoundDuration":142857,"Delta":34125249},{"NoteNumber":81,"Velocity":68,"Duration":266666,"SoundDuration":266666,"Delta":34268106},{"NoteNumber":45,"Velocity":34,"Duration":133333,"SoundDuration":133333,"Delta":34401439},{"NoteNumber":65,"Velocity":56,"Duration":277563,"SoundDuration":277563,"Delta":34534772},{"NoteNumber":29,"Velocity":24,"Duration":144230,"SoundDuration":144230,"Delta":34668106},{"NoteNumber":84,"Velocity":62,"Duration":277777,"SoundDuration":277777,"Delta":34812336},{"NoteNumber":48,"Velocity":32,"Duration":138888,"SoundDuration":138888,"Delta":34951225},{"NoteNumber":65,"Velocity":49,"Duration":297619,"SoundDuration":297619,"Delta":35090114},{"NoteNumber":29,"Velocity":23,"Duration":158730,"SoundDuration":158730,"Delta":35229003},{"NoteNumber":89,"Velocity":54,"Duration":304568,"SoundDuration":304568,"Delta":35387734},{"NoteNumber":53,"Velocity":29,"Duration":152284,"SoundDuration":152284,"Delta":35540018},{"NoteNumber":65,"Velocity":45,"Duration":331924,"SoundDuration":331924,"Delta":35692302},{"NoteNumber":29,"Velocity":24,"Duration":179640,"SoundDuration":179640,"Delta":35844586},{"NoteNumber":89,"Velocity":52,"Duration":340909,"SoundDuration":340909,"Delta":36024227},{"NoteNumber":53,"Velocity":28,"Duration":170454,"SoundDuration":170454,"Delta":36194682},{"NoteNumber":65,"Velocity":41,"Duration":433401,"SoundDuration":433401,"Delta":36365136},{"NoteNumber":29,"Velocity":21,"Duration":245901,"SoundDuration":245901,"Delta":36552636},{"NoteNumber":89,"Velocity":48,"Duration":1111111,"SoundDuration":1111111,"Delta":36798538},{"NoteNumber":53,"Velocity":21,"Duration":555555,"SoundDuration":555555,"Delta":37354093},{"NoteNumber":34,"Velocity":77,"Duration":120482,"SoundDuration":120482,"Delta":38018345},{"NoteNumber":62,"Velocity":81,"Duration":342205,"SoundDuration":342205,"Delta":38138827},{"NoteNumber":53,"Velocity":68,"Duration":342205,"SoundDuration":342205,"Delta":38138827},{"NoteNumber":58,"Velocity":68,"Duration":342205,"SoundDuration":342205,"Delta":38138827},{"NoteNumber":82,"Velocity":77,"Duration":114068,"SoundDuration":114068,"Delta":38481032},{"NoteNumber":86,"Velocity":92,"Duration":114068,"SoundDuration":114068,"Delta":38481032},{"NoteNumber":74,"Velocity":77,"Duration":114068,"SoundDuration":114068,"Delta":38481032},{"NoteNumber":77,"Velocity":77,"Duration":114068,"SoundDuration":114068,"Delta":38481032},{"NoteNumber":62,"Velocity":73,"Duration":114068,"SoundDuration":114068,"Delta":38481032},{"NoteNumber":58,"Velocity":61,"Duration":114068,"SoundDuration":114068,"Delta":38481032},{"NoteNumber":53,"Velocity":61,"Duration":114068,"SoundDuration":114068,"Delta":38481032},{"NoteNumber":74,"Velocity":69,"Duration":228136,"SoundDuration":228136,"Delta":38595101},{"NoteNumber":77,"Velocity":69,"Duration":228136,"SoundDuration":228136,"Delta":38595101},{"NoteNumber":86,"Velocity":82,"Duration":228136,"SoundDuration":228136,"Delta":38595101},{"NoteNumber":82,"Velocity":69,"Duration":228136,"SoundDuration":228136,"Delta":38595101},{"NoteNumber":53,"Velocity":68,"Duration":228136,"SoundDuration":228136,"Delta":38595101},{"NoteNumber":58,"Velocity":68,"Duration":228136,"SoundDuration":228136,"Delta":38595101},{"NoteNumber":62,"Velocity":81,"Duration":228136,"SoundDuration":228136,"Delta":38595101},{"NoteNumber":74,"Velocity":70,"Duration":42775,"SoundDuration":42775,"Delta":38823238},{"NoteNumber":82,"Velocity":70,"Duration":42775,"SoundDuration":42775,"Delta":38823238},{"NoteNumber":77,"Velocity":70,"Duration":42775,"SoundDuration":42775,"Delta":38823238},{"NoteNumber":87,"Velocity":89,"Duration":42775,"SoundDuration":42775,"Delta":38823238},{"NoteNumber":53,"Velocity":66,"Duration":42775,"SoundDuration":42775,"Delta":38823238},{"NoteNumber":62,"Velocity":77,"Duration":42775,"SoundDuration":42775,"Delta":38823238},{"NoteNumber":58,"Velocity":66,"Duration":42775,"SoundDuration":42775,"Delta":38823238},{"NoteNumber":77,"Velocity":72,"Duration":53066,"SoundDuration":53066,"Delta":38937306},{"NoteNumber":74,"Velocity":72,"Duration":53066,"SoundDuration":53066,"Delta":38937306},{"NoteNumber":86,"Velocity":85,"Duration":53066,"SoundDuration":53066,"Delta":38937306},{"NoteNumber":82,"Velocity":72,"Duration":53066,"SoundDuration":53066,"Delta":38937306},{"NoteNumber":53,"Velocity":68,"Duration":53066,"SoundDuration":53066,"Delta":38937306},{"NoteNumber":62,"Velocity":81,"Duration":53066,"SoundDuration":53066,"Delta":38937306},{"NoteNumber":58,"Velocity":68,"Duration":53066,"SoundDuration":53066,"Delta":38937306},{"NoteNumber":86,"Velocity":92,"Duration":131004,"SoundDuration":131004,"Delta":39078816},{"NoteNumber":82,"Velocity":77,"Duration":131004,"SoundDuration":131004,"Delta":39078816},{"NoteNumber":77,"Velocity":77,"Duration":131004,"SoundDuration":131004,"Delta":39078816},{"NoteNumber":74,"Velocity":77,"Duration":131004,"SoundDuration":131004,"Delta":39078816},{"NoteNumber":53,"Velocity":68,"Duration":131004,"SoundDuration":131004,"Delta":39078816},{"NoteNumber":62,"Velocity":81,"Duration":131004,"SoundDuration":131004,"Delta":39078816},{"NoteNumber":58,"Velocity":68,"Duration":131004,"SoundDuration":131004,"Delta":39078816},{"NoteNumber":70,"Velocity":70,"Duration":131004,"SoundDuration":131004,"Delta":39340824},{"NoteNumber":82,"Velocity":84,"Duration":131004,"SoundDuration":131004,"Delta":39340824},{"NoteNumber":77,"Velocity":70,"Duration":131004,"SoundDuration":131004,"Delta":39340824},{"NoteNumber":74,"Velocity":70,"Duration":131004,"SoundDuration":131004,"Delta":39340824},{"NoteNumber":50,"Velocity":68,"Duration":131004,"SoundDuration":131004,"Delta":39340824},{"NoteNumber":58,"Velocity":81,"Duration":131004,"SoundDuration":131004,"Delta":39340824},{"NoteNumber":53,"Velocity":68,"Duration":131004,"SoundDuration":131004,"Delta":39340824},{"NoteNumber":34,"Velocity":84,"Duration":122449,"SoundDuration":122449,"Delta":39995845},{"NoteNumber":62,"Velocity":81,"Duration":348837,"SoundDuration":348837,"Delta":40118294},{"NoteNumber":50,"Velocity":68,"Duration":348837,"SoundDuration":348837,"Delta":40118294},{"NoteNumber":58,"Velocity":68,"Duration":348837,"SoundDuration":348837,"Delta":40118294},{"NoteNumber":53,"Velocity":68,"Duration":348837,"SoundDuration":348837,"Delta":40118294},{"NoteNumber":82,"Velocity":77,"Duration":116278,"SoundDuration":116278,"Delta":40467131},{"NoteNumber":77,"Velocity":77,"Duration":116278,"SoundDuration":116278,"Delta":40467131},{"NoteNumber":86,"Velocity":92,"Duration":116278,"SoundDuration":116278,"Delta":40467131},{"NoteNumber":58,"Velocity":61,"Duration":116278,"SoundDuration":116278,"Delta":40467131},{"NoteNumber":50,"Velocity":61,"Duration":116278,"SoundDuration":116278,"Delta":40467131},{"NoteNumber":53,"Velocity":61,"Duration":116278,"SoundDuration":116278,"Delta":40467131},{"NoteNumber":62,"Velocity":73,"Duration":116278,"SoundDuration":116278,"Delta":40467131},{"NoteNumber":74,"Velocity":77,"Duration":116278,"SoundDuration":116278,"Delta":40473914},{"NoteNumber":74,"Velocity":82,"Duration":232557,"SoundDuration":232557,"Delta":40583410},{"NoteNumber":86,"Velocity":99,"Duration":232557,"SoundDuration":232557,"Delta":40583410},{"NoteNumber":62,"Velocity":97,"Duration":232557,"SoundDuration":232557,"Delta":40583410},{"NoteNumber":50,"Velocity":81,"Duration":232557,"SoundDuration":232557,"Delta":40583410},{"NoteNumber":78,"Velocity":70,"Duration":43604,"SoundDuration":43604,"Delta":40815968},{"NoteNumber":74,"Velocity":70,"Duration":43604,"SoundDuration":43604,"Delta":40815968},{"NoteNumber":81,"Velocity":70,"Duration":43604,"SoundDuration":43604,"Delta":40815968},{"NoteNumber":86,"Velocity":84,"Duration":43604,"SoundDuration":43604,"Delta":40815968},{"NoteNumber":57,"Velocity":66,"Duration":43604,"SoundDuration":43604,"Delta":40815968},{"NoteNumber":62,"Velocity":77,"Duration":43604,"SoundDuration":43604,"Delta":40815968},{"NoteNumber":50,"Velocity":66,"Duration":43604,"SoundDuration":43604,"Delta":40815968},{"NoteNumber":54,"Velocity":66,"Duration":43604,"SoundDuration":43604,"Delta":40815968},{"NoteNumber":86,"Velocity":85,"Duration":54086,"SoundDuration":54086,"Delta":40932247},{"NoteNumber":78,"Velocity":70,"Duration":54086,"SoundDuration":54086,"Delta":40932247},{"NoteNumber":74,"Velocity":72,"Duration":54086,"SoundDuration":54086,"Delta":40932247},{"NoteNumber":81,"Velocity":72,"Duration":54086,"SoundDuration":54086,"Delta":40932247},{"NoteNumber":62,"Velocity":81,"Duration":54086,"SoundDuration":54086,"Delta":40932247},{"NoteNumber":54,"Velocity":68,"Duration":54086,"SoundDuration":54086,"Delta":40932247},{"NoteNumber":57,"Velocity":68,"Duration":54086,"SoundDuration":54086,"Delta":40932247},{"NoteNumber":50,"Velocity":68,"Duration":54086,"SoundDuration":54086,"Delta":40932247},{"NoteNumber":81,"Velocity":77,"Duration":132158,"SoundDuration":132158,"Delta":41076478},{"NoteNumber":74,"Velocity":77,"Duration":132158,"SoundDuration":132158,"Delta":41076478},{"NoteNumber":86,"Velocity":92,"Duration":132158,"SoundDuration":132158,"Delta":41076478},{"NoteNumber":78,"Velocity":77,"Duration":132158,"SoundDuration":132158,"Delta":41076478},{"NoteNumber":57,"Velocity":68,"Duration":132158,"SoundDuration":132158,"Delta":41076478},{"NoteNumber":54,"Velocity":68,"Duration":132158,"SoundDuration":132158,"Delta":41076478},{"NoteNumber":62,"Velocity":81,"Duration":132158,"SoundDuration":132158,"Delta":41076478},{"NoteNumber":50,"Velocity":68,"Duration":132158,"SoundDuration":132158,"Delta":41076478},{"NoteNumber":81,"Velocity":70,"Duration":132158,"SoundDuration":132158,"Delta":41340795},{"NoteNumber":78,"Velocity":70,"Duration":132158,"SoundDuration":132158,"Delta":41340795},{"NoteNumber":74,"Velocity":70,"Duration":132158,"SoundDuration":132158,"Delta":41340795},{"NoteNumber":86,"Velocity":84,"Duration":132158,"SoundDuration":132158,"Delta":41340795},{"NoteNumber":57,"Velocity":68,"Duration":132158,"SoundDuration":132158,"Delta":41340795},{"NoteNumber":50,"Velocity":68,"Duration":132158,"SoundDuration":132158,"Delta":41340795},{"NoteNumber":54,"Velocity":68,"Duration":132158,"SoundDuration":132158,"Delta":41340795},{"NoteNumber":62,"Velocity":81,"Duration":132158,"SoundDuration":132158,"Delta":41340795},{"NoteNumber":50,"Velocity":39,"Duration":132158,"SoundDuration":132158,"Delta":42001588},{"NoteNumber":62,"Velocity":45,"Duration":385502,"SoundDuration":385502,"Delta":42133746},{"NoteNumber":66,"Velocity":33,"Duration":125523,"SoundDuration":125523,"Delta":42393725},{"NoteNumber":74,"Velocity":39,"Duration":125523,"SoundDuration":125523,"Delta":42393725},{"NoteNumber":69,"Velocity":33,"Duration":125523,"SoundDuration":125523,"Delta":42393725},{"NoteNumber":50,"Velocity":40,"Duration":131579,"SoundDuration":131579,"Delta":42519248},{"NoteNumber":62,"Velocity":47,"Duration":384211,"SoundDuration":384211,"Delta":42650827},{"NoteNumber":74,"Velocity":42,"Duration":126582,"SoundDuration":126582,"Delta":42908457},{"NoteNumber":69,"Velocity":35,"Duration":126582,"SoundDuration":126582,"Delta":42908457},{"NoteNumber":66,"Velocity":35,"Duration":126582,"SoundDuration":126582,"Delta":42908457},{"NoteNumber":50,"Velocity":42,"Duration":131579,"SoundDuration":131579,"Delta":43035039},{"NoteNumber":62,"Velocity":49,"Duration":383105,"SoundDuration":383105,"Delta":43166618},{"NoteNumber":69,"Velocity":37,"Duration":126050,"SoundDuration":126050,"Delta":43423673},{"NoteNumber":74,"Velocity":44,"Duration":126050,"SoundDuration":126050,"Delta":43423673},{"NoteNumber":66,"Velocity":37,"Duration":126050,"SoundDuration":126050,"Delta":43423673},{"NoteNumber":50,"Velocity":41,"Duration":132743,"SoundDuration":132743,"Delta":43549723},{"NoteNumber":62,"Velocity":52,"Duration":385868,"SoundDuration":385868,"Delta":43682466},{"NoteNumber":66,"Velocity":39,"Duration":126050,"SoundDuration":126050,"Delta":43942284},{"NoteNumber":69,"Velocity":39,"Duration":126050,"SoundDuration":126050,"Delta":43942284},{"NoteNumber":74,"Velocity":46,"Duration":126050,"SoundDuration":126050,"Delta":43942284},{"NoteNumber":50,"Velocity":44,"Duration":132158,"SoundDuration":132158,"Delta":44068335},{"NoteNumber":57,"Velocity":55,"Duration":388111,"SoundDuration":388111,"Delta":44200493},{"NoteNumber":60,"Velocity":55,"Duration":388111,"SoundDuration":388111,"Delta":44200493},{"NoteNumber":74,"Velocity":41,"Duration":127659,"SoundDuration":127659,"Delta":44460945},{"NoteNumber":72,"Velocity":41,"Duration":127659,"SoundDuration":127659,"Delta":44460945},{"NoteNumber":78,"Velocity":49,"Duration":127659,"SoundDuration":127659,"Delta":44460945},{"NoteNumber":69,"Velocity":41,"Duration":127659,"SoundDuration":127659,"Delta":44460945},{"NoteNumber":50,"Velocity":46,"Duration":134529,"SoundDuration":134529,"Delta":44588605},{"NoteNumber":60,"Velocity":58,"Duration":393879,"SoundDuration":393879,"Delta":44723134},{"NoteNumber":57,"Velocity":58,"Duration":393879,"SoundDuration":393879,"Delta":44723134},{"NoteNumber":69,"Velocity":43,"Duration":129310,"SoundDuration":129310,"Delta":44987703},{"NoteNumber":74,"Velocity":43,"Duration":129310,"SoundDuration":129310,"Delta":44987703},{"NoteNumber":78,"Velocity":51,"Duration":129310,"SoundDuration":129310,"Delta":44987703},{"NoteNumber":72,"Velocity":43,"Duration":129310,"SoundDuration":129310,"Delta":44987703},{"NoteNumber":50,"Velocity":50,"Duration":138248,"SoundDuration":138248,"Delta":45117013},{"NoteNumber":57,"Velocity":60,"Duration":393822,"SoundDuration":393822,"Delta":45255262},{"NoteNumber":54,"Velocity":60,"Duration":393822,"SoundDuration":393822,"Delta":45255262},{"NoteNumber":81,"Velocity":60,"Duration":129870,"SoundDuration":129870,"Delta":45519214},{"NoteNumber":78,"Velocity":50,"Duration":129870,"SoundDuration":129870,"Delta":45519214},{"NoteNumber":72,"Velocity":50,"Duration":129870,"SoundDuration":129870,"Delta":45519214},{"NoteNumber":69,"Velocity":50,"Duration":129870,"SoundDuration":129870,"Delta":45519214},{"NoteNumber":50,"Velocity":52,"Duration":136986,"SoundDuration":136986,"Delta":45649084},{"NoteNumber":45,"Velocity":63,"Duration":400404,"SoundDuration":400404,"Delta":45786070},{"NoteNumber":84,"Velocity":68,"Duration":130434,"SoundDuration":130434,"Delta":46056040},{"NoteNumber":78,"Velocity":57,"Duration":130434,"SoundDuration":130434,"Delta":46056040},{"NoteNumber":72,"Velocity":57,"Duration":130434,"SoundDuration":130434,"Delta":46056040},{"NoteNumber":81,"Velocity":57,"Duration":130434,"SoundDuration":130434,"Delta":46056040},{"NoteNumber":50,"Velocity":52,"Duration":140186,"SoundDuration":140186,"Delta":46186475},{"NoteNumber":45,"Velocity":65,"Duration":404003,"SoundDuration":404003,"Delta":46326662},{"NoteNumber":78,"Velocity":64,"Duration":131579,"SoundDuration":131579,"Delta":46599086},{"NoteNumber":84,"Velocity":64,"Duration":131579,"SoundDuration":131579,"Delta":46599086},{"NoteNumber":90,"Velocity":75,"Duration":131579,"SoundDuration":131579,"Delta":46599086},{"NoteNumber":81,"Velocity":64,"Duration":131579,"SoundDuration":131579,"Delta":46599086},{"NoteNumber":50,"Velocity":57,"Duration":140186,"SoundDuration":140186,"Delta":46730665},{"NoteNumber":43,"Velocity":68,"Duration":409244,"SoundDuration":409244,"Delta":46870852},{"NoteNumber":93,"Velocity":79,"Duration":132158,"SoundDuration":132158,"Delta":47147938},{"NoteNumber":84,"Velocity":66,"Duration":132158,"SoundDuration":132158,"Delta":47147938},{"NoteNumber":81,"Velocity":66,"Duration":132158,"SoundDuration":132158,"Delta":47147938},{"NoteNumber":50,"Velocity":57,"Duration":141509,"SoundDuration":141509,"Delta":47280096},{"NoteNumber":42,"Velocity":71,"Duration":417840,"SoundDuration":417840,"Delta":47421606},{"NoteNumber":84,"Velocity":69,"Duration":136363,"SoundDuration":136363,"Delta":47703083},{"NoteNumber":93,"Velocity":69,"Duration":136363,"SoundDuration":136363,"Delta":47703083},{"NoteNumber":96,"Velocity":82,"Duration":136363,"SoundDuration":136363,"Delta":47703083},{"NoteNumber":50,"Velocity":59,"Duration":142857,"SoundDuration":142857,"Delta":47839446},{"NoteNumber":39,"Velocity":73,"Duration":422293,"SoundDuration":422293,"Delta":47982304},{"NoteNumber":96,"Velocity":85,"Duration":138248,"SoundDuration":138248,"Delta":48266349},{"NoteNumber":90,"Velocity":71,"Duration":138248,"SoundDuration":138248,"Delta":48266349},{"NoteNumber":84,"Velocity":71,"Duration":138248,"SoundDuration":138248,"Delta":48266349},{"NoteNumber":93,"Velocity":71,"Duration":138248,"SoundDuration":138248,"Delta":48266349},{"NoteNumber":50,"Velocity":67,"Duration":138248,"SoundDuration":138248,"Delta":48404597},{"NoteNumber":93,"Velocity":71,"Duration":138248,"SoundDuration":138248,"Delta":48542846},{"NoteNumber":96,"Velocity":85,"Duration":138248,"SoundDuration":138248,"Delta":48542846},{"NoteNumber":84,"Velocity":71,"Duration":138248,"SoundDuration":138248,"Delta":48542846},{"NoteNumber":90,"Velocity":71,"Duration":138248,"SoundDuration":138248,"Delta":48542846},{"NoteNumber":38,"Velocity":67,"Duration":276497,"SoundDuration":276497,"Delta":48542846},{"NoteNumber":50,"Velocity":73,"Duration":276497,"SoundDuration":276497,"Delta":48542846},{"NoteNumber":84,"Velocity":57,"Duration":131004,"SoundDuration":131004,"Delta":48819344},{"NoteNumber":81,"Velocity":57,"Duration":131004,"SoundDuration":131004,"Delta":48819344},{"NoteNumber":75,"Velocity":48,"Duration":131004,"SoundDuration":131004,"Delta":48819344},{"NoteNumber":83,"Velocity":57,"Duration":138888,"SoundDuration":138888,"Delta":48950348},{"NoteNumber":80,"Velocity":57,"Duration":138888,"SoundDuration":138888,"Delta":48950348},{"NoteNumber":74,"Velocity":48,"Duration":138888,"SoundDuration":138888,"Delta":48950348},{"NoteNumber":84,"Velocity":63,"Duration":269058,"SoundDuration":269058,"Delta":49089237},{"NoteNumber":81,"Velocity":63,"Duration":269058,"SoundDuration":269058,"Delta":49089237},{"NoteNumber":75,"Velocity":54,"Duration":269058,"SoundDuration":269058,"Delta":49089237},{"NoteNumber":66,"Velocity":52,"Duration":131004,"SoundDuration":131004,"Delta":49358295},{"NoteNumber":69,"Velocity":52,"Duration":131004,"SoundDuration":131004,"Delta":49358295},{"NoteNumber":74,"Velocity":44,"Duration":131004,"SoundDuration":131004,"Delta":49358295},{"NoteNumber":70,"Velocity":52,"Duration":142180,"SoundDuration":142180,"Delta":49489300},{"NoteNumber":67,"Velocity":52,"Duration":142180,"SoundDuration":142180,"Delta":49489300},{"NoteNumber":73,"Velocity":44,"Duration":142180,"SoundDuration":142180,"Delta":49489300},{"NoteNumber":69,"Velocity":58,"Duration":270270,"SoundDuration":270270,"Delta":49631480},{"NoteNumber":66,"Velocity":58,"Duration":270270,"SoundDuration":270270,"Delta":49631480},{"NoteNumber":74,"Velocity":44,"Duration":270270,"SoundDuration":270270,"Delta":49631480},{"NoteNumber":81,"Velocity":47,"Duration":132743,"SoundDuration":132743,"Delta":49901750},{"NoteNumber":84,"Velocity":47,"Duration":132743,"SoundDuration":132743,"Delta":49901750},{"NoteNumber":63,"Velocity":43,"Duration":132743,"SoundDuration":132743,"Delta":49901750},{"NoteNumber":83,"Velocity":47,"Duration":142857,"SoundDuration":142857,"Delta":50034493},{"NoteNumber":80,"Velocity":47,"Duration":142857,"SoundDuration":142857,"Delta":50034493},{"NoteNumber":62,"Velocity":43,"Duration":142857,"SoundDuration":142857,"Delta":50034493},{"NoteNumber":84,"Velocity":56,"Duration":277777,"SoundDuration":277777,"Delta":50177351},{"NoteNumber":81,"Velocity":56,"Duration":277777,"SoundDuration":277777,"Delta":50177351},{"NoteNumber":63,"Velocity":51,"Duration":277777,"SoundDuration":277777,"Delta":50177351},{"NoteNumber":90,"Velocity":47,"Duration":136363,"SoundDuration":136363,"Delta":50455129},{"NoteNumber":62,"Velocity":43,"Duration":136363,"SoundDuration":136363,"Delta":50455129},{"NoteNumber":93,"Velocity":47,"Duration":136363,"SoundDuration":136363,"Delta":50591492},{"NoteNumber":61,"Velocity":43,"Duration":136363,"SoundDuration":136363,"Delta":50591492},{"NoteNumber":96,"Velocity":57,"Duration":133333,"SoundDuration":133333,"Delta":50727856},{"NoteNumber":62,"Velocity":51,"Duration":266666,"SoundDuration":266666,"Delta":50727856},{"NoteNumber":98,"Velocity":48,"Duration":133333,"SoundDuration":133333,"Delta":50861189},{"NoteNumber":96,"Velocity":49,"Duration":133333,"SoundDuration":133333,"Delta":50994523},{"NoteNumber":95,"Velocity":50,"Duration":138888,"SoundDuration":138888,"Delta":51127856},{"NoteNumber":50,"Velocity":42,"Duration":138888,"SoundDuration":138888,"Delta":51127856},{"NoteNumber":96,"Velocity":65,"Duration":133928,"SoundDuration":133928,"Delta":51266745},{"NoteNumber":54,"Velocity":51,"Duration":267856,"SoundDuration":267856,"Delta":51266745},{"NoteNumber":98,"Velocity":57,"Duration":133928,"SoundDuration":133928,"Delta":51400673},{"NoteNumber":100,"Velocity":66,"Duration":133928,"SoundDuration":133928,"Delta":51534602},{"NoteNumber":96,"Velocity":58,"Duration":140186,"SoundDuration":140186,"Delta":51668530},{"NoteNumber":57,"Velocity":40,"Duration":140186,"SoundDuration":140186,"Delta":51668530},{"NoteNumber":93,"Velocity":69,"Duration":133928,"SoundDuration":133928,"Delta":51808717},{"NoteNumber":60,"Velocity":51,"Duration":267856,"SoundDuration":267856,"Delta":51808717},{"NoteNumber":95,"Velocity":56,"Duration":133928,"SoundDuration":133928,"Delta":51942646},{"NoteNumber":96,"Velocity":66,"Duration":133928,"SoundDuration":133928,"Delta":52076574},{"NoteNumber":93,"Velocity":54,"Duration":137614,"SoundDuration":137614,"Delta":52210503},{"NoteNumber":66,"Velocity":43,"Duration":137614,"SoundDuration":137614,"Delta":52210503},{"NoteNumber":90,"Velocity":66,"Duration":133928,"SoundDuration":133928,"Delta":52348118},{"NoteNumber":69,"Velocity":51,"Duration":267856,"SoundDuration":267856,"Delta":52348118},{"NoteNumber":91,"Velocity":53,"Duration":133928,"SoundDuration":133928,"Delta":52482046},{"NoteNumber":93,"Velocity":61,"Duration":133928,"SoundDuration":133928,"Delta":52615975},{"NoteNumber":72,"Velocity":45,"Duration":133928,"SoundDuration":133928,"Delta":52615975},{"NoteNumber":90,"Velocity":53,"Duration":140186,"SoundDuration":140186,"Delta":52749903},{"NoteNumber":69,"Velocity":45,"Duration":140186,"SoundDuration":140186,"Delta":52749903},{"NoteNumber":84,"Velocity":47,"Duration":134529,"SoundDuration":134529,"Delta":52890090},{"NoteNumber":81,"Velocity":40,"Duration":134529,"SoundDuration":134529,"Delta":52890090},{"NoteNumber":86,"Velocity":47,"Duration":134529,"SoundDuration":134529,"Delta":53024619},{"NoteNumber":83,"Velocity":40,"Duration":134529,"SoundDuration":134529,"Delta":53024619},{"NoteNumber":88,"Velocity":58,"Duration":134529,"SoundDuration":134529,"Delta":53159149},{"NoteNumber":84,"Velocity":44,"Duration":134529,"SoundDuration":134529,"Delta":53159149},{"NoteNumber":84,"Velocity":47,"Duration":138248,"SoundDuration":138248,"Delta":53293678},{"NoteNumber":81,"Velocity":40,"Duration":138248,"SoundDuration":138248,"Delta":53293678},{"NoteNumber":81,"Velocity":47,"Duration":132743,"SoundDuration":132743,"Delta":53431927},{"NoteNumber":72,"Velocity":40,"Duration":132743,"SoundDuration":132743,"Delta":53431927},{"NoteNumber":83,"Velocity":47,"Duration":132743,"SoundDuration":132743,"Delta":53564670},{"NoteNumber":74,"Velocity":40,"Duration":132743,"SoundDuration":132743,"Delta":53564670},{"NoteNumber":84,"Velocity":53,"Duration":132743,"SoundDuration":132743,"Delta":53697413},{"NoteNumber":76,"Velocity":45,"Duration":132743,"SoundDuration":132743,"Delta":53697413},{"NoteNumber":81,"Velocity":47,"Duration":140844,"SoundDuration":140844,"Delta":53830156},{"NoteNumber":72,"Velocity":40,"Duration":140844,"SoundDuration":140844,"Delta":53830156},{"NoteNumber":78,"Velocity":47,"Duration":133333,"SoundDuration":133333,"Delta":53971001},{"NoteNumber":69,"Velocity":40,"Duration":133333,"SoundDuration":133333,"Delta":53971001},{"NoteNumber":79,"Velocity":47,"Duration":133333,"SoundDuration":133333,"Delta":54104335},{"NoteNumber":71,"Velocity":40,"Duration":133333,"SoundDuration":133333,"Delta":54104335},{"NoteNumber":81,"Velocity":52,"Duration":133333,"SoundDuration":133333,"Delta":54237668},{"NoteNumber":72,"Velocity":45,"Duration":133333,"SoundDuration":133333,"Delta":54237668},{"NoteNumber":78,"Velocity":47,"Duration":140186,"SoundDuration":140186,"Delta":54371001},{"NoteNumber":69,"Velocity":40,"Duration":137850,"SoundDuration":137850,"Delta":54371001},{"NoteNumber":74,"Velocity":47,"Duration":266666,"SoundDuration":266666,"Delta":54511188},{"NoteNumber":72,"Velocity":47,"Duration":266666,"SoundDuration":266666,"Delta":54511188},{"NoteNumber":69,"Velocity":47,"Duration":266666,"SoundDuration":266666,"Delta":54511188},{"NoteNumber":66,"Velocity":40,"Duration":133333,"SoundDuration":133333,"Delta":54511188},{"NoteNumber":67,"Velocity":40,"Duration":133333,"SoundDuration":133333,"Delta":54644521},{"NoteNumber":69,"Velocity":45,"Duration":133333,"SoundDuration":133333,"Delta":54777855},{"NoteNumber":66,"Velocity":40,"Duration":138888,"SoundDuration":138888,"Delta":54911188},{"NoteNumber":95,"Velocity":57,"Duration":133333,"SoundDuration":133333,"Delta":55050077},{"NoteNumber":71,"Velocity":51,"Duration":266666,"SoundDuration":266666,"Delta":55050077},{"NoteNumber":62,"Velocity":48,"Duration":266666,"SoundDuration":266666,"Delta":55050077},{"NoteNumber":67,"Velocity":48,"Duration":266666,"SoundDuration":266666,"Delta":55050077},{"NoteNumber":96,"Velocity":48,"Duration":133333,"SoundDuration":133333,"Delta":55183410},{"NoteNumber":95,"Velocity":49,"Duration":133333,"SoundDuration":133333,"Delta":55316743},{"NoteNumber":93,"Velocity":50,"Duration":138888,"SoundDuration":138888,"Delta":55450077},{"NoteNumber":50,"Velocity":42,"Duration":138888,"SoundDuration":138888,"Delta":55450077},{"NoteNumber":95,"Velocity":65,"Duration":133928,"SoundDuration":133928,"Delta":55588966},{"NoteNumber":55,"Velocity":51,"Duration":267856,"SoundDuration":267856,"Delta":55588966},{"NoteNumber":96,"Velocity":57,"Duration":133928,"SoundDuration":133928,"Delta":55722894},{"NoteNumber":98,"Velocity":66,"Duration":133928,"SoundDuration":133928,"Delta":55856823},{"NoteNumber":95,"Velocity":58,"Duration":140186,"SoundDuration":140186,"Delta":55990751},{"NoteNumber":59,"Velocity":40,"Duration":140186,"SoundDuration":140186,"Delta":55990751},{"NoteNumber":91,"Velocity":69,"Duration":133928,"SoundDuration":133928,"Delta":56130938},{"NoteNumber":62,"Velocity":51,"Duration":267856,"SoundDuration":267856,"Delta":56130938},{"NoteNumber":93,"Velocity":56,"Duration":133928,"SoundDuration":133928,"Delta":56264867},{"NoteNumber":95,"Velocity":66,"Duration":133928,"SoundDuration":133928,"Delta":56398795},{"NoteNumber":91,"Velocity":54,"Duration":137614,"SoundDuration":137614,"Delta":56532724},{"NoteNumber":67,"Velocity":43,"Duration":137614,"SoundDuration":137614,"Delta":56532724},{"NoteNumber":86,"Velocity":66,"Duration":133928,"SoundDuration":133928,"Delta":56670338},{"NoteNumber":71,"Velocity":51,"Duration":267856,"SoundDuration":267856,"Delta":56670338},{"NoteNumber":90,"Velocity":53,"Duration":133928,"SoundDuration":133928,"Delta":56804267},{"NoteNumber":91,"Velocity":61,"Duration":133928,"SoundDuration":133928,"Delta":56938195},{"NoteNumber":86,"Velocity":53,"Duration":140186,"SoundDuration":140186,"Delta":57072124},{"NoteNumber":74,"Velocity":45,"Duration":140186,"SoundDuration":140186,"Delta":57072124},{"NoteNumber":83,"Velocity":47,"Duration":134529,"SoundDuration":134529,"Delta":57212311},{"NoteNumber":79,"Velocity":40,"Duration":134529,"SoundDuration":134529,"Delta":57212311},{"NoteNumber":84,"Velocity":47,"Duration":134529,"SoundDuration":134529,"Delta":57346840},{"NoteNumber":81,"Velocity":40,"Duration":134529,"SoundDuration":134529,"Delta":57346840},{"NoteNumber":86,"Velocity":58,"Duration":134529,"SoundDuration":134529,"Delta":57481369},{"NoteNumber":83,"Velocity":44,"Duration":134529,"SoundDuration":134529,"Delta":57481369},{"NoteNumber":83,"Velocity":47,"Duration":138248,"SoundDuration":138248,"Delta":57615899},{"NoteNumber":79,"Velocity":40,"Duration":135944,"SoundDuration":135944,"Delta":57615899},{"NoteNumber":79,"Velocity":47,"Duration":132743,"SoundDuration":132743,"Delta":57754147},{"NoteNumber":71,"Velocity":40,"Duration":132743,"SoundDuration":132743,"Delta":57754147},{"NoteNumber":81,"Velocity":47,"Duration":132743,"SoundDuration":132743,"Delta":57886891},{"NoteNumber":72,"Velocity":40,"Duration":132743,"SoundDuration":132743,"Delta":57886891},{"NoteNumber":83,"Velocity":53,"Duration":132743,"SoundDuration":132743,"Delta":58019634},{"NoteNumber":74,"Velocity":45,"Duration":132743,"SoundDuration":132743,"Delta":58019634},{"NoteNumber":79,"Velocity":47,"Duration":140844,"SoundDuration":140844,"Delta":58152377},{"NoteNumber":71,"Velocity":40,"Duration":140844,"SoundDuration":140844,"Delta":58152377},{"NoteNumber":74,"Velocity":47,"Duration":133333,"SoundDuration":133333,"Delta":58293222},{"NoteNumber":67,"Velocity":40,"Duration":133333,"SoundDuration":133333,"Delta":58293222},{"NoteNumber":78,"Velocity":47,"Duration":133333,"SoundDuration":133333,"Delta":58426555},{"NoteNumber":69,"Velocity":40,"Duration":133333,"SoundDuration":133333,"Delta":58426555},{"NoteNumber":79,"Velocity":52,"Duration":133333,"SoundDuration":133333,"Delta":58559889},{"NoteNumber":71,"Velocity":45,"Duration":131111,"SoundDuration":131111,"Delta":58559889},{"NoteNumber":71,"Velocity":47,"Duration":137850,"SoundDuration":137850,"Delta":58693222},{"NoteNumber":67,"Velocity":40,"Duration":137850,"SoundDuration":137850,"Delta":58693222},{"NoteNumber":67,"Velocity":40,"Duration":133333,"SoundDuration":133333,"Delta":58833409},{"NoteNumber":71,"Velocity":40,"Duration":133333,"SoundDuration":133333,"Delta":58833409},{"NoteNumber":69,"Velocity":40,"Duration":133333,"SoundDuration":133333,"Delta":58966742},{"NoteNumber":72,"Velocity":40,"Duration":133333,"SoundDuration":133333,"Delta":58966742},{"NoteNumber":71,"Velocity":45,"Duration":131111,"SoundDuration":131111,"Delta":59100075},{"NoteNumber":74,"Velocity":45,"Duration":133333,"SoundDuration":133333,"Delta":59100075},{"NoteNumber":67,"Velocity":40,"Duration":138888,"SoundDuration":138888,"Delta":59233409},{"NoteNumber":71,"Velocity":40,"Duration":138888,"SoundDuration":138888,"Delta":59233409},{"NoteNumber":62,"Velocity":40,"Duration":277777,"SoundDuration":277777,"Delta":59372298},{"NoteNumber":69,"Velocity":46,"Duration":277777,"SoundDuration":277777,"Delta":59372298},{"NoteNumber":66,"Velocity":40,"Duration":277777,"SoundDuration":277777,"Delta":59372298},{"NoteNumber":72,"Velocity":40,"Duration":138888,"SoundDuration":138888,"Delta":59372298},{"NoteNumber":74,"Velocity":40,"Duration":138888,"SoundDuration":138888,"Delta":59511187},{"NoteNumber":88,"Velocity":52,"Duration":133333,"SoundDuration":133333,"Delta":59650076},{"NoteNumber":72,"Velocity":45,"Duration":133333,"SoundDuration":133333,"Delta":59650076},{"NoteNumber":86,"Velocity":47,"Duration":140186,"SoundDuration":140186,"Delta":59783409},{"NoteNumber":71,"Velocity":40,"Duration":140186,"SoundDuration":140186,"Delta":59783409},{"NoteNumber":88,"Velocity":40,"Duration":133333,"SoundDuration":133333,"Delta":59923596},{"NoteNumber":72,"Velocity":40,"Duration":133333,"SoundDuration":133333,"Delta":59923596},{"NoteNumber":86,"Velocity":40,"Duration":133333,"SoundDuration":133333,"Delta":60056929},{"NoteNumber":74,"Velocity":40,"Duration":133333,"SoundDuration":133333,"Delta":60056929},{"NoteNumber":84,"Velocity":45,"Duration":133333,"SoundDuration":133333,"Delta":60190262},{"NoteNumber":76,"Velocity":45,"Duration":133333,"SoundDuration":133333,"Delta":60190262},{"NoteNumber":88,"Velocity":40,"Duration":138888,"SoundDuration":138888,"Delta":60323596},{"NoteNumber":72,"Velocity":40,"Duration":138888,"SoundDuration":138888,"Delta":60323596},{"NoteNumber":84,"Velocity":52,"Duration":138888,"SoundDuration":138888,"Delta":60462485},{"NoteNumber":69,"Velocity":46,"Duration":138888,"SoundDuration":138888,"Delta":60462485},{"NoteNumber":83,"Velocity":42,"Duration":138888,"SoundDuration":138888,"Delta":60601374},{"NoteNumber":71,"Velocity":38,"Duration":138888,"SoundDuration":138888,"Delta":60601374},{"NoteNumber":81,"Velocity":49,"Duration":133333,"SoundDuration":133333,"Delta":60740263},{"NoteNumber":72,"Velocity":45,"Duration":133333,"SoundDuration":133333,"Delta":60740263},{"NoteNumber":84,"Velocity":43,"Duration":140186,"SoundDuration":140186,"Delta":60873596},{"NoteNumber":69,"Velocity":40,"Duration":140186,"SoundDuration":140186,"Delta":60873596},{"NoteNumber":81,"Velocity":48,"Duration":133333,"SoundDuration":133333,"Delta":61013783},{"NoteNumber":66,"Velocity":45,"Duration":133333,"SoundDuration":133333,"Delta":61013783},{"NoteNumber":79,"Velocity":40,"Duration":133333,"SoundDuration":133333,"Delta":61147116},{"NoteNumber":67,"Velocity":36,"Duration":133333,"SoundDuration":133333,"Delta":61147116},{"NoteNumber":78,"Velocity":45,"Duration":133333,"SoundDuration":133333,"Delta":61280449},{"NoteNumber":69,"Velocity":41,"Duration":133333,"SoundDuration":133333,"Delta":61280449},{"NoteNumber":81,"Velocity":40,"Duration":138888,"SoundDuration":138888,"Delta":61413783},{"NoteNumber":66,"Velocity":36,"Duration":138888,"SoundDuration":138888,"Delta":61413783},{"NoteNumber":76,"Velocity":52,"Duration":138888,"SoundDuration":138888,"Delta":61552672},{"NoteNumber":60,"Velocity":46,"Duration":138888,"SoundDuration":138888,"Delta":61552672},{"NoteNumber":74,"Velocity":42,"Duration":138888,"SoundDuration":138888,"Delta":61691561},{"NoteNumber":62,"Velocity":38,"Duration":138888,"SoundDuration":138888,"Delta":61691561},{"NoteNumber":72,"Velocity":49,"Duration":133333,"SoundDuration":133333,"Delta":61830450},{"NoteNumber":64,"Velocity":45,"Duration":133333,"SoundDuration":133333,"Delta":61830450},{"NoteNumber":76,"Velocity":43,"Duration":140186,"SoundDuration":140186,"Delta":61963783},{"NoteNumber":60,"Velocity":40,"Duration":140186,"SoundDuration":140186,"Delta":61963783},{"NoteNumber":72,"Velocity":48,"Duration":133333,"SoundDuration":133333,"Delta":62103970},{"NoteNumber":57,"Velocity":45,"Duration":133333,"SoundDuration":133333,"Delta":62103970},{"NoteNumber":71,"Velocity":40,"Duration":133333,"SoundDuration":133333,"Delta":62237303},{"NoteNumber":59,"Velocity":36,"Duration":133333,"SoundDuration":133333,"Delta":62237303},{"NoteNumber":69,"Velocity":45,"Duration":133333,"SoundDuration":133333,"Delta":62370636},{"NoteNumber":60,"Velocity":41,"Duration":133333,"SoundDuration":133333,"Delta":62370636},{"NoteNumber":72,"Velocity":40,"Duration":138888,"SoundDuration":138888,"Delta":62503970},{"NoteNumber":57,"Velocity":36,"Duration":138888,"SoundDuration":138888,"Delta":62503970},{"NoteNumber":69,"Velocity":52,"Duration":138888,"SoundDuration":138888,"Delta":62642859},{"NoteNumber":54,"Velocity":46,"Duration":138888,"SoundDuration":138888,"Delta":62642859},{"NoteNumber":67,"Velocity":42,"Duration":138888,"SoundDuration":138888,"Delta":62781748},{"NoteNumber":55,"Velocity":38,"Duration":138888,"SoundDuration":138888,"Delta":62781748},{"NoteNumber":66,"Velocity":49,"Duration":133333,"SoundDuration":133333,"Delta":62920637},{"NoteNumber":57,"Velocity":45,"Duration":133333,"SoundDuration":133333,"Delta":62920637},{"NoteNumber":69,"Velocity":43,"Duration":140186,"SoundDuration":140186,"Delta":63053970},{"NoteNumber":54,"Velocity":40,"Duration":140186,"SoundDuration":140186,"Delta":63053970},{"NoteNumber":72,"Velocity":48,"Duration":133333,"SoundDuration":133333,"Delta":63194157},{"NoteNumber":69,"Velocity":45,"Duration":133333,"SoundDuration":133333,"Delta":63194157},{"NoteNumber":71,"Velocity":40,"Duration":133333,"SoundDuration":133333,"Delta":63327490},{"NoteNumber":67,"Velocity":36,"Duration":133333,"SoundDuration":133333,"Delta":63327490},{"NoteNumber":69,"Velocity":45,"Duration":133333,"SoundDuration":133333,"Delta":63460823},{"NoteNumber":66,"Velocity":41,"Duration":133333,"SoundDuration":133333,"Delta":63460823},{"NoteNumber":72,"Velocity":40,"Duration":138889,"SoundDuration":138889,"Delta":63594157},{"NoteNumber":69,"Velocity":36,"Duration":138889,"SoundDuration":138889,"Delta":63594157},{"NoteNumber":62,"Velocity":40,"Duration":277777,"SoundDuration":277777,"Delta":63733046},{"NoteNumber":67,"Velocity":46,"Duration":277777,"SoundDuration":277777,"Delta":63733046},{"NoteNumber":71,"Velocity":40,"Duration":138889,"SoundDuration":138889,"Delta":63733046},{"NoteNumber":72,"Velocity":40,"Duration":138888,"SoundDuration":138888,"Delta":63871935},{"NoteNumber":98,"Velocity":52,"Duration":133333,"SoundDuration":133333,"Delta":64010824},{"NoteNumber":71,"Velocity":45,"Duration":133333,"SoundDuration":133333,"Delta":64010824},{"NoteNumber":96,"Velocity":47,"Duration":140186,"SoundDuration":140186,"Delta":64144157},{"NoteNumber":69,"Velocity":40,"Duration":140186,"SoundDuration":140186,"Delta":64144157},{"NoteNumber":98,"Velocity":40,"Duration":133333,"SoundDuration":133333,"Delta":64284344},{"NoteNumber":71,"Velocity":40,"Duration":133333,"SoundDuration":133333,"Delta":64284344},{"NoteNumber":96,"Velocity":40,"Duration":133333,"SoundDuration":133333,"Delta":64417677},{"NoteNumber":72,"Velocity":40,"Duration":133333,"SoundDuration":133333,"Delta":64417677},{"NoteNumber":95,"Velocity":45,"Duration":133333,"SoundDuration":133333,"Delta":64551010},{"NoteNumber":74,"Velocity":45,"Duration":133333,"SoundDuration":133333,"Delta":64551010},{"NoteNumber":98,"Velocity":40,"Duration":138889,"SoundDuration":138889,"Delta":64684344},{"NoteNumber":71,"Velocity":40,"Duration":138889,"SoundDuration":138889,"Delta":64684344},{"NoteNumber":95,"Velocity":52,"Duration":138889,"SoundDuration":138889,"Delta":64823233},{"NoteNumber":67,"Velocity":46,"Duration":138889,"SoundDuration":138889,"Delta":64823233},{"NoteNumber":93,"Velocity":42,"Duration":138888,"SoundDuration":138888,"Delta":64962122},{"NoteNumber":69,"Velocity":38,"Duration":138888,"SoundDuration":138888,"Delta":64962122},{"NoteNumber":91,"Velocity":49,"Duration":133333,"SoundDuration":133333,"Delta":65101011},{"NoteNumber":71,"Velocity":45,"Duration":133333,"SoundDuration":133333,"Delta":65101011},{"NoteNumber":95,"Velocity":43,"Duration":140186,"SoundDuration":140186,"Delta":65234344},{"NoteNumber":67,"Velocity":40,"Duration":140186,"SoundDuration":140186,"Delta":65234344},{"NoteNumber":83,"Velocity":48,"Duration":133333,"SoundDuration":133333,"Delta":65374531},{"NoteNumber":62,"Velocity":45,"Duration":133333,"SoundDuration":133333,"Delta":65374531},{"NoteNumber":81,"Velocity":40,"Duration":133333,"SoundDuration":133333,"Delta":65507864},{"NoteNumber":66,"Velocity":36,"Duration":133333,"SoundDuration":133333,"Delta":65507864},{"NoteNumber":79,"Velocity":45,"Duration":133333,"SoundDuration":133333,"Delta":65641197},{"NoteNumber":67,"Velocity":41,"Duration":133333,"SoundDuration":133333,"Delta":65641197},{"NoteNumber":83,"Velocity":40,"Duration":138889,"SoundDuration":138889,"Delta":65774531},{"NoteNumber":62,"Velocity":36,"Duration":138889,"SoundDuration":138889,"Delta":65774531},{"NoteNumber":74,"Velocity":52,"Duration":138889,"SoundDuration":138889,"Delta":65913420},{"NoteNumber":59,"Velocity":46,"Duration":138889,"SoundDuration":138889,"Delta":65913420},{"NoteNumber":72,"Velocity":42,"Duration":138888,"SoundDuration":138888,"Delta":66052309},{"NoteNumber":60,"Velocity":38,"Duration":138888,"SoundDuration":138888,"Delta":66052309},{"NoteNumber":71,"Velocity":49,"Duration":133333,"SoundDuration":133333,"Delta":66191198},{"NoteNumber":62,"Velocity":45,"Duration":133333,"SoundDuration":133333,"Delta":66191198},{"NoteNumber":74,"Velocity":43,"Duration":140186,"SoundDuration":140186,"Delta":66324531},{"NoteNumber":59,"Velocity":40,"Duration":140186,"SoundDuration":140186,"Delta":66324531},{"NoteNumber":83,"Velocity":48,"Duration":133333,"SoundDuration":133333,"Delta":66464718},{"NoteNumber":55,"Velocity":45,"Duration":133333,"SoundDuration":133333,"Delta":66464718},{"NoteNumber":81,"Velocity":40,"Duration":133333,"SoundDuration":133333,"Delta":66598051},{"NoteNumber":57,"Velocity":36,"Duration":133333,"SoundDuration":133333,"Delta":66598051},{"NoteNumber":79,"Velocity":45,"Duration":133333,"SoundDuration":133333,"Delta":66731384},{"NoteNumber":59,"Velocity":41,"Duration":133333,"SoundDuration":133333,"Delta":66731384},{"NoteNumber":83,"Velocity":40,"Duration":138889,"SoundDuration":138889,"Delta":66864718},{"NoteNumber":55,"Velocity":36,"Duration":138889,"SoundDuration":138889,"Delta":66864718},{"NoteNumber":86,"Velocity":62,"Duration":138889,"SoundDuration":138889,"Delta":67003607},{"NoteNumber":50,"Velocity":46,"Duration":138889,"SoundDuration":138889,"Delta":67003607},{"NoteNumber":84,"Velocity":51,"Duration":138888,"SoundDuration":138888,"Delta":67142496},{"NoteNumber":54,"Velocity":38,"Duration":138888,"SoundDuration":138888,"Delta":67142496},{"NoteNumber":83,"Velocity":61,"Duration":133333,"SoundDuration":133333,"Delta":67281385},{"NoteNumber":55,"Velocity":45,"Duration":133333,"SoundDuration":133333,"Delta":67281385},{"NoteNumber":84,"Velocity":52,"Duration":140186,"SoundDuration":140186,"Delta":67414718},{"NoteNumber":50,"Velocity":40,"Duration":140186,"SoundDuration":140186,"Delta":67414718},{"NoteNumber":88,"Velocity":62,"Duration":283018,"SoundDuration":283018,"Delta":67554905},{"NoteNumber":48,"Velocity":45,"Duration":141509,"SoundDuration":141509,"Delta":67554905},{"NoteNumber":55,"Velocity":36,"Duration":141509,"SoundDuration":141509,"Delta":67696415},{"NoteNumber":90,"Velocity":51,"Duration":309278,"SoundDuration":309278,"Delta":67837924},{"NoteNumber":81,"Velocity":51,"Duration":309278,"SoundDuration":309278,"Delta":67837924},{"NoteNumber":86,"Velocity":51,"Duration":309278,"SoundDuration":309278,"Delta":67837924},{"NoteNumber":50,"Velocity":41,"Duration":154639,"SoundDuration":154639,"Delta":67837924},{"NoteNumber":48,"Velocity":36,"Duration":154639,"SoundDuration":154639,"Delta":67992563},{"NoteNumber":91,"Velocity":51,"Duration":309278,"SoundDuration":309278,"Delta":68147203},{"NoteNumber":79,"Velocity":51,"Duration":309278,"SoundDuration":309278,"Delta":68147203},{"NoteNumber":86,"Velocity":51,"Duration":309278,"SoundDuration":309278,"Delta":68147203},{"NoteNumber":47,"Velocity":36,"Duration":309278,"SoundDuration":309278,"Delta":68147203},{"NoteNumber":43,"Velocity":34,"Duration":303030,"SoundDuration":303030,"Delta":68456481},{"NoteNumber":55,"Velocity":40,"Duration":303030,"SoundDuration":303030,"Delta":68456481},{"NoteNumber":52,"Velocity":36,"Duration":151515,"SoundDuration":151515,"Delta":68759512},{"NoteNumber":48,"Velocity":30,"Duration":151515,"SoundDuration":151515,"Delta":68759512},{"NoteNumber":60,"Velocity":40,"Duration":143540,"SoundDuration":143540,"Delta":69062542},{"NoteNumber":57,"Velocity":36,"Duration":143540,"SoundDuration":143540,"Delta":69206083},{"NoteNumber":54,"Velocity":36,"Duration":299999,"SoundDuration":299999,"Delta":69349623},{"NoteNumber":69,"Velocity":40,"Duration":285714,"SoundDuration":285714,"Delta":69649623},{"NoteNumber":66,"Velocity":34,"Duration":285714,"SoundDuration":285714,"Delta":69649623},{"NoteNumber":50,"Velocity":31,"Duration":285714,"SoundDuration":285714,"Delta":69649623},{"NoteNumber":62,"Velocity":36,"Duration":285714,"SoundDuration":285714,"Delta":69649623},{"NoteNumber":67,"Velocity":32,"Duration":157067,"SoundDuration":157067,"Delta":69935338},{"NoteNumber":71,"Velocity":38,"Duration":157067,"SoundDuration":157067,"Delta":69935338},{"NoteNumber":59,"Velocity":36,"Duration":157067,"SoundDuration":157067,"Delta":69935338},{"NoteNumber":55,"Velocity":30,"Duration":157067,"SoundDuration":157067,"Delta":69935338},{"NoteNumber":91,"Velocity":47,"Duration":144230,"SoundDuration":144230,"Delta":70249474},{"NoteNumber":83,"Velocity":39,"Duration":144230,"SoundDuration":144230,"Delta":70249474},{"NoteNumber":64,"Velocity":36,"Duration":597740,"SoundDuration":597740,"Delta":70249474},{"NoteNumber":55,"Velocity":30,"Duration":597740,"SoundDuration":597740,"Delta":70249474},{"NoteNumber":90,"Velocity":44,"Duration":144230,"SoundDuration":144230,"Delta":70393705},{"NoteNumber":81,"Velocity":37,"Duration":144230,"SoundDuration":144230,"Delta":70393705},{"NoteNumber":91,"Velocity":47,"Duration":309278,"SoundDuration":309278,"Delta":70537935},{"NoteNumber":83,"Velocity":39,"Duration":309278,"SoundDuration":309278,"Delta":70537935},{"NoteNumber":83,"Velocity":33,"Duration":314136,"SoundDuration":314136,"Delta":70847214},{"NoteNumber":79,"Velocity":33,"Duration":314136,"SoundDuration":314136,"Delta":70847214},{"NoteNumber":88,"Velocity":39,"Duration":314136,"SoundDuration":314136,"Delta":70847214},{"NoteNumber":55,"Velocity":30,"Duration":314136,"SoundDuration":314136,"Delta":70847214},{"NoteNumber":64,"Velocity":36,"Duration":314136,"SoundDuration":314136,"Delta":70847214},{"NoteNumber":86,"Velocity":42,"Duration":329670,"SoundDuration":329670,"Delta":71161350},{"NoteNumber":81,"Velocity":35,"Duration":329670,"SoundDuration":329670,"Delta":71161350},{"NoteNumber":78,"Velocity":35,"Duration":329670,"SoundDuration":329670,"Delta":71161350},{"NoteNumber":66,"Velocity":40,"Duration":329670,"SoundDuration":329670,"Delta":71161350},{"NoteNumber":57,"Velocity":34,"Duration":329670,"SoundDuration":329670,"Delta":71161350},{"NoteNumber":85,"Velocity":40,"Duration":350876,"SoundDuration":350876,"Delta":71491021},{"NoteNumber":79,"Velocity":30,"Duration":350876,"SoundDuration":350876,"Delta":71491021},{"NoteNumber":76,"Velocity":30,"Duration":350876,"SoundDuration":350876,"Delta":71491021},{"NoteNumber":57,"Velocity":25,"Duration":350876,"SoundDuration":350876,"Delta":71491021},{"NoteNumber":67,"Velocity":30,"Duration":175438,"SoundDuration":175438,"Delta":71491021},{"NoteNumber":69,"Velocity":36,"Duration":175438,"SoundDuration":175438,"Delta":71666459},{"NoteNumber":79,"Velocity":38,"Duration":337078,"SoundDuration":337078,"Delta":71841898},{"NoteNumber":88,"Velocity":45,"Duration":337078,"SoundDuration":337078,"Delta":71841898},{"NoteNumber":69,"Velocity":36,"Duration":337078,"SoundDuration":337078,"Delta":71841898},{"NoteNumber":62,"Velocity":30,"Duration":982239,"SoundDuration":982239,"Delta":71841898},{"NoteNumber":78,"Velocity":30,"Duration":319892,"SoundDuration":319892,"Delta":72178976},{"NoteNumber":86,"Velocity":36,"Duration":319892,"SoundDuration":319892,"Delta":72178976},{"NoteNumber":71,"Velocity":36,"Duration":241935,"SoundDuration":241935,"Delta":72178976},{"NoteNumber":73,"Velocity":31,"Duration":80645,"SoundDuration":80645,"Delta":72420911},{"NoteNumber":86,"Velocity":36,"Duration":322580,"SoundDuration":322580,"Delta":72501557},{"NoteNumber":78,"Velocity":30,"Duration":322580,"SoundDuration":322580,"Delta":72501557},{"NoteNumber":74,"Velocity":36,"Duration":322580,"SoundDuration":322580,"Delta":72501557},{"NoteNumber":79,"Velocity":38,"Duration":144927,"SoundDuration":144927,"Delta":72824137},{"NoteNumber":86,"Velocity":45,"Duration":144927,"SoundDuration":144927,"Delta":72824137},{"NoteNumber":76,"Velocity":37,"Duration":144927,"SoundDuration":144927,"Delta":72824137},{"NoteNumber":84,"Velocity":40,"Duration":144927,"SoundDuration":144927,"Delta":72969065},{"NoteNumber":81,"Velocity":34,"Duration":144927,"SoundDuration":144927,"Delta":72969065},{"NoteNumber":78,"Velocity":36,"Duration":144927,"SoundDuration":144927,"Delta":72969065},{"NoteNumber":83,"Velocity":46,"Duration":315789,"SoundDuration":315789,"Delta":73113992},{"NoteNumber":79,"Velocity":36,"Duration":315789,"SoundDuration":315789,"Delta":73113992},{"NoteNumber":79,"Velocity":43,"Duration":448123,"SoundDuration":448123,"Delta":73429782},{"NoteNumber":91,"Velocity":51,"Duration":146341,"SoundDuration":146341,"Delta":73429782},{"NoteNumber":74,"Velocity":36,"Duration":292682,"SoundDuration":292682,"Delta":73429782},{"NoteNumber":71,"Velocity":30,"Duration":292682,"SoundDuration":292682,"Delta":73429782},{"NoteNumber":88,"Velocity":46,"Duration":155440,"SoundDuration":155440,"Delta":73722465},{"NoteNumber":72,"Velocity":30,"Duration":155440,"SoundDuration":155440,"Delta":73722465},{"NoteNumber":76,"Velocity":36,"Duration":155440,"SoundDuration":155440,"Delta":73722465},{"NoteNumber":96,"Velocity":51,"Duration":146341,"SoundDuration":146341,"Delta":74033345},{"NoteNumber":84,"Velocity":43,"Duration":146341,"SoundDuration":146341,"Delta":74033345},{"NoteNumber":69,"Velocity":36,"Duration":146341,"SoundDuration":146341,"Delta":74033345},{"NoteNumber":93,"Velocity":44,"Duration":146341,"SoundDuration":146341,"Delta":74179687},{"NoteNumber":88,"Velocity":37,"Duration":146341,"SoundDuration":146341,"Delta":74179687},{"NoteNumber":72,"Velocity":32,"Duration":146341,"SoundDuration":146341,"Delta":74179687},{"NoteNumber":90,"Velocity":51,"Duration":324324,"SoundDuration":324324,"Delta":74326028},{"NoteNumber":74,"Velocity":36,"Duration":324324,"SoundDuration":324324,"Delta":74326028},{"NoteNumber":86,"Velocity":47,"Duration":449557,"SoundDuration":449557,"Delta":74650353},{"NoteNumber":98,"Velocity":56,"Duration":294117,"SoundDuration":294117,"Delta":74650353},{"NoteNumber":66,"Velocity":30,"Duration":294117,"SoundDuration":294117,"Delta":74650353},{"NoteNumber":69,"Velocity":36,"Duration":294117,"SoundDuration":294117,"Delta":74650353},{"NoteNumber":95,"Velocity":53,"Duration":155440,"SoundDuration":155440,"Delta":74944470},{"NoteNumber":67,"Velocity":33,"Duration":155440,"SoundDuration":155440,"Delta":74944470},{"NoteNumber":71,"Velocity":36,"Duration":155440,"SoundDuration":155440,"Delta":74944470},{"NoteNumber":91,"Velocity":52,"Duration":147783,"SoundDuration":147783,"Delta":75255351},{"NoteNumber":90,"Velocity":45,"Duration":147783,"SoundDuration":147783,"Delta":75403135},{"NoteNumber":91,"Velocity":52,"Duration":312500,"SoundDuration":312500,"Delta":75550918},{"NoteNumber":67,"Velocity":30,"Duration":312500,"SoundDuration":312500,"Delta":75550918},{"NoteNumber":64,"Velocity":30,"Duration":312500,"SoundDuration":312500,"Delta":75550918},{"NoteNumber":71,"Velocity":36,"Duration":312500,"SoundDuration":312500,"Delta":75550918},{"NoteNumber":88,"Velocity":47,"Duration":322580,"SoundDuration":322580,"Delta":75863418},{"NoteNumber":72,"Velocity":36,"Duration":322580,"SoundDuration":322580,"Delta":75863418},{"NoteNumber":67,"Velocity":30,"Duration":322580,"SoundDuration":322580,"Delta":75863418},{"NoteNumber":64,"Velocity":30,"Duration":322580,"SoundDuration":322580,"Delta":75863418},{"NoteNumber":84,"Velocity":51,"Duration":322580,"SoundDuration":322580,"Delta":76185998},{"NoteNumber":64,"Velocity":30,"Duration":322580,"SoundDuration":322580,"Delta":76185998},{"NoteNumber":67,"Velocity":36,"Duration":161290,"SoundDuration":161290,"Delta":76185998},{"NoteNumber":72,"Velocity":36,"Duration":322580,"SoundDuration":322580,"Delta":76185998},{"NoteNumber":69,"Velocity":30,"Duration":161290,"SoundDuration":161290,"Delta":76347289},{"NoteNumber":78,"Velocity":37,"Duration":322580,"SoundDuration":322580,"Delta":76508579},{"NoteNumber":83,"Velocity":44,"Duration":322580,"SoundDuration":322580,"Delta":76508579},{"NoteNumber":66,"Velocity":30,"Duration":322580,"SoundDuration":322580,"Delta":76508579},{"NoteNumber":63,"Velocity":30,"Duration":322580,"SoundDuration":322580,"Delta":76508579},{"NoteNumber":71,"Velocity":36,"Duration":322580,"SoundDuration":322580,"Delta":76508579},{"NoteNumber":83,"Velocity":44,"Duration":895972,"SoundDuration":895972,"Delta":76831160},{"NoteNumber":78,"Velocity":44,"Duration":301507,"SoundDuration":301507,"Delta":76831160},{"NoteNumber":71,"Velocity":36,"Duration":301507,"SoundDuration":301507,"Delta":76831160},{"NoteNumber":66,"Velocity":30,"Duration":301507,"SoundDuration":301507,"Delta":76831160},{"NoteNumber":63,"Velocity":30,"Duration":301507,"SoundDuration":301507,"Delta":76831160},{"NoteNumber":81,"Velocity":50,"Duration":146341,"SoundDuration":146341,"Delta":77132667},{"NoteNumber":63,"Velocity":31,"Duration":292682,"SoundDuration":292682,"Delta":77132667},{"NoteNumber":59,"Velocity":26,"Duration":292682,"SoundDuration":292682,"Delta":77132667},{"NoteNumber":79,"Velocity":44,"Duration":143902,"SoundDuration":143902,"Delta":77279009},{"NoteNumber":79,"Velocity":49,"Duration":301782,"SoundDuration":301782,"Delta":77425350},{"NoteNumber":64,"Velocity":30,"Duration":301782,"SoundDuration":301782,"Delta":77425350},{"NoteNumber":67,"Velocity":36,"Duration":301782,"SoundDuration":301782,"Delta":77425350},{"NoteNumber":88,"Velocity":55,"Duration":305205,"SoundDuration":305205,"Delta":77727132},{"NoteNumber":79,"Velocity":46,"Duration":606712,"SoundDuration":606712,"Delta":77727132},{"NoteNumber":82,"Velocity":46,"Duration":305205,"SoundDuration":305205,"Delta":77727132},{"NoteNumber":62,"Velocity":34,"Duration":145630,"SoundDuration":145630,"Delta":77727132},{"NoteNumber":65,"Velocity":40,"Duration":145630,"SoundDuration":145630,"Delta":77727132},{"NoteNumber":64,"Velocity":36,"Duration":159574,"SoundDuration":159574,"Delta":77872763},{"NoteNumber":61,"Velocity":30,"Duration":159574,"SoundDuration":159574,"Delta":77872763},{"NoteNumber":81,"Velocity":44,"Duration":895972,"SoundDuration":895972,"Delta":78032338},{"NoteNumber":61,"Velocity":30,"Duration":301507,"SoundDuration":301507,"Delta":78032338},{"NoteNumber":64,"Velocity":36,"Duration":301507,"SoundDuration":301507,"Delta":78032338},{"NoteNumber":79,"Velocity":50,"Duration":146341,"SoundDuration":146341,"Delta":78333845},{"NoteNumber":57,"Velocity":26,"Duration":292682,"SoundDuration":292682,"Delta":78333845},{"NoteNumber":61,"Velocity":31,"Duration":292682,"SoundDuration":292682,"Delta":78333845},{"NoteNumber":77,"Velocity":44,"Duration":146341,"SoundDuration":146341,"Delta":78480187},{"NoteNumber":77,"Velocity":49,"Duration":301782,"SoundDuration":301782,"Delta":78626528},{"NoteNumber":62,"Velocity":30,"Duration":301782,"SoundDuration":301782,"Delta":78626528},{"NoteNumber":65,"Velocity":36,"Duration":301782,"SoundDuration":301782,"Delta":78626528},{"NoteNumber":77,"Velocity":55,"Duration":606712,"SoundDuration":606712,"Delta":78928310},{"NoteNumber":80,"Velocity":55,"Duration":305205,"SoundDuration":305205,"Delta":78928310},{"NoteNumber":86,"Velocity":55,"Duration":305205,"SoundDuration":305205,"Delta":78928310},{"NoteNumber":63,"Velocity":40,"Duration":145630,"SoundDuration":145630,"Delta":78928310},{"NoteNumber":60,"Velocity":34,"Duration":145630,"SoundDuration":145630,"Delta":78928310},{"NoteNumber":62,"Velocity":36,"Duration":158244,"SoundDuration":158244,"Delta":79073941},{"NoteNumber":59,"Velocity":30,"Duration":158244,"SoundDuration":158244,"Delta":79073941},{"NoteNumber":79,"Velocity":44,"Duration":895972,"SoundDuration":895972,"Delta":79233515},{"NoteNumber":59,"Velocity":30,"Duration":301507,"SoundDuration":301507,"Delta":79233515},{"NoteNumber":62,"Velocity":36,"Duration":301507,"SoundDuration":301507,"Delta":79233515},{"NoteNumber":77,"Velocity":50,"Duration":146341,"SoundDuration":146341,"Delta":79535023},{"NoteNumber":59,"Velocity":31,"Duration":292682,"SoundDuration":292682,"Delta":79535023},{"NoteNumber":55,"Velocity":26,"Duration":292682,"SoundDuration":292682,"Delta":79535023},{"NoteNumber":76,"Velocity":44,"Duration":143902,"SoundDuration":143902,"Delta":79681365},{"NoteNumber":76,"Velocity":49,"Duration":301782,"SoundDuration":301782,"Delta":79827706},{"NoteNumber":60,"Velocity":30,"Duration":301782,"SoundDuration":301782,"Delta":79827706},{"NoteNumber":64,"Velocity":36,"Duration":301782,"SoundDuration":301782,"Delta":79827706},{"NoteNumber":85,"Velocity":55,"Duration":305205,"SoundDuration":305205,"Delta":80129488},{"NoteNumber":76,"Velocity":46,"Duration":606712,"SoundDuration":606712,"Delta":80129488},{"NoteNumber":79,"Velocity":46,"Duration":305205,"SoundDuration":305205,"Delta":80129488},{"NoteNumber":63,"Velocity":40,"Duration":145630,"SoundDuration":145630,"Delta":80129488},{"NoteNumber":59,"Velocity":34,"Duration":145630,"SoundDuration":145630,"Delta":80129488},{"NoteNumber":58,"Velocity":30,"Duration":158244,"SoundDuration":158244,"Delta":80275119},{"NoteNumber":61,"Velocity":36,"Duration":158244,"SoundDuration":158244,"Delta":80275119},{"NoteNumber":78,"Velocity":44,"Duration":895972,"SoundDuration":895972,"Delta":80434693},{"NoteNumber":58,"Velocity":30,"Duration":301507,"SoundDuration":301507,"Delta":80434693},{"NoteNumber":61,"Velocity":36,"Duration":301507,"SoundDuration":301507,"Delta":80434693},{"NoteNumber":76,"Velocity":50,"Duration":146341,"SoundDuration":146341,"Delta":80736201},{"NoteNumber":58,"Velocity":31,"Duration":292682,"SoundDuration":292682,"Delta":80736201},{"NoteNumber":54,"Velocity":26,"Duration":292682,"SoundDuration":292682,"Delta":80736201},{"NoteNumber":75,"Velocity":44,"Duration":146341,"SoundDuration":146341,"Delta":80882543},{"NoteNumber":74,"Velocity":49,"Duration":301782,"SoundDuration":301782,"Delta":81028884},{"NoteNumber":62,"Velocity":36,"Duration":301782,"SoundDuration":301782,"Delta":81028884},{"NoteNumber":59,"Velocity":30,"Duration":301782,"SoundDuration":301782,"Delta":81028884},{"NoteNumber":77,"Velocity":46,"Duration":305205,"SoundDuration":305205,"Delta":81330666},{"NoteNumber":74,"Velocity":46,"Duration":305205,"SoundDuration":305205,"Delta":81330666},{"NoteNumber":83,"Velocity":55,"Duration":305205,"SoundDuration":305205,"Delta":81330666},{"NoteNumber":61,"Velocity":40,"Duration":145630,"SoundDuration":145630,"Delta":81330666},{"NoteNumber":57,"Velocity":34,"Duration":145630,"SoundDuration":145630,"Delta":81330666},{"NoteNumber":59,"Velocity":36,"Duration":159574,"SoundDuration":159574,"Delta":81476297},{"NoteNumber":56,"Velocity":30,"Duration":159574,"SoundDuration":159574,"Delta":81476297},{"NoteNumber":74,"Velocity":46,"Duration":294181,"SoundDuration":294181,"Delta":81635871},{"NoteNumber":77,"Velocity":55,"Duration":144927,"SoundDuration":144927,"Delta":81635871},{"NoteNumber":59,"Velocity":36,"Duration":294181,"SoundDuration":294181,"Delta":81635871},{"NoteNumber":56,"Velocity":30,"Duration":294181,"SoundDuration":294181,"Delta":81635871},{"NoteNumber":76,"Velocity":46,"Duration":298507,"SoundDuration":298507,"Delta":81780799},{"NoteNumber":73,"Velocity":46,"Duration":306321,"SoundDuration":306321,"Delta":81930053},{"NoteNumber":57,"Velocity":36,"Duration":149253,"SoundDuration":149253,"Delta":81930053},{"NoteNumber":64,"Velocity":30,"Duration":306321,"SoundDuration":306321,"Delta":81930053},{"NoteNumber":81,"Velocity":48,"Duration":157067,"SoundDuration":157067,"Delta":82079306},{"NoteNumber":55,"Velocity":30,"Duration":157067,"SoundDuration":157067,"Delta":82079306},{"NoteNumber":72,"Velocity":46,"Duration":294181,"SoundDuration":294181,"Delta":82236374},{"NoteNumber":75,"Velocity":55,"Duration":144927,"SoundDuration":144927,"Delta":82236374},{"NoteNumber":54,"Velocity":30,"Duration":294181,"SoundDuration":294181,"Delta":82236374},{"NoteNumber":57,"Velocity":36,"Duration":294181,"SoundDuration":294181,"Delta":82236374},{"NoteNumber":74,"Velocity":47,"Duration":298507,"SoundDuration":298507,"Delta":82381302},{"NoteNumber":71,"Velocity":46,"Duration":307148,"SoundDuration":307148,"Delta":82530556},{"NoteNumber":55,"Velocity":36,"Duration":149253,"SoundDuration":149253,"Delta":82530556},{"NoteNumber":59,"Velocity":30,"Duration":307148,"SoundDuration":307148,"Delta":82530556},{"NoteNumber":79,"Velocity":49,"Duration":157894,"SoundDuration":157894,"Delta":82679809},{"NoteNumber":47,"Velocity":32,"Duration":157894,"SoundDuration":157894,"Delta":82679809},{"NoteNumber":74,"Velocity":56,"Duration":148514,"SoundDuration":148514,"Delta":82837704},{"NoteNumber":50,"Velocity":25,"Duration":1731643,"SoundDuration":1731643,"Delta":82837704},{"NoteNumber":60,"Velocity":30,"Duration":1731643,"SoundDuration":1731643,"Delta":82837704},{"NoteNumber":45,"Velocity":25,"Duration":1731643,"SoundDuration":1731643,"Delta":82837704},{"NoteNumber":86,"Velocity":44,"Duration":143540,"SoundDuration":143540,"Delta":82986219},{"NoteNumber":85,"Velocity":45,"Duration":143540,"SoundDuration":143540,"Delta":83129760},{"NoteNumber":84,"Velocity":46,"Duration":143540,"SoundDuration":143540,"Delta":83273300},{"NoteNumber":81,"Velocity":47,"Duration":143540,"SoundDuration":143540,"Delta":83416841},{"NoteNumber":78,"Velocity":47,"Duration":143540,"SoundDuration":143540,"Delta":83560382},{"NoteNumber":75,"Velocity":48,"Duration":143540,"SoundDuration":143540,"Delta":83703923},{"NoteNumber":74,"Velocity":49,"Duration":143540,"SoundDuration":143540,"Delta":83847463},{"NoteNumber":73,"Velocity":50,"Duration":143540,"SoundDuration":143540,"Delta":83991004},{"NoteNumber":72,"Velocity":51,"Duration":143540,"SoundDuration":143540,"Delta":84134545},{"NoteNumber":69,"Velocity":52,"Duration":145630,"SoundDuration":145630,"Delta":84278086},{"NoteNumber":66,"Velocity":53,"Duration":145631,"SoundDuration":145631,"Delta":84423717},{"NoteNumber":63,"Velocity":61,"Duration":147783,"SoundDuration":147783,"Delta":84569348},{"NoteNumber":67,"Velocity":51,"Duration":295566,"SoundDuration":295566,"Delta":84569348},{"NoteNumber":59,"Velocity":30,"Duration":601244,"SoundDuration":601244,"Delta":84569348},{"NoteNumber":47,"Velocity":25,"Duration":601244,"SoundDuration":601244,"Delta":84569348},{"NoteNumber":50,"Velocity":25,"Duration":601244,"SoundDuration":601244,"Delta":84569348},{"NoteNumber":62,"Velocity":47,"Duration":147783,"SoundDuration":147783,"Delta":84717131},{"NoteNumber":76,"Velocity":58,"Duration":147783,"SoundDuration":147783,"Delta":84864914},{"NoteNumber":67,"Velocity":49,"Duration":305677,"SoundDuration":305677,"Delta":84864914},{"NoteNumber":74,"Velocity":47,"Duration":157894,"SoundDuration":157894,"Delta":85012697},{"NoteNumber":74,"Velocity":56,"Duration":151515,"SoundDuration":151515,"Delta":85170592},{"NoteNumber":45,"Velocity":25,"Duration":1756298,"SoundDuration":1756298,"Delta":85170592},{"NoteNumber":60,"Velocity":30,"Duration":1756298,"SoundDuration":1756298,"Delta":85170592},{"NoteNumber":50,"Velocity":25,"Duration":1756298,"SoundDuration":1756298,"Delta":85170592},{"NoteNumber":86,"Velocity":44,"Duration":145630,"SoundDuration":145630,"Delta":85322107},{"NoteNumber":85,"Velocity":45,"Duration":145631,"SoundDuration":145631,"Delta":85467738},{"NoteNumber":84,"Velocity":46,"Duration":145630,"SoundDuration":145630,"Delta":85613369},{"NoteNumber":81,"Velocity":47,"Duration":145631,"SoundDuration":145631,"Delta":85759000},{"NoteNumber":78,"Velocity":47,"Duration":145630,"SoundDuration":145630,"Delta":85904631},{"NoteNumber":75,"Velocity":48,"Duration":145630,"SoundDuration":145630,"Delta":86050262},{"NoteNumber":74,"Velocity":49,"Duration":145631,"SoundDuration":145631,"Delta":86195893},{"NoteNumber":73,"Velocity":50,"Duration":146341,"SoundDuration":146341,"Delta":86341524},{"NoteNumber":72,"Velocity":51,"Duration":146341,"SoundDuration":146341,"Delta":86487866},{"NoteNumber":69,"Velocity":52,"Duration":146341,"SoundDuration":146341,"Delta":86634207},{"NoteNumber":66,"Velocity":53,"Duration":146341,"SoundDuration":146341,"Delta":86780549},{"NoteNumber":67,"Velocity":51,"Duration":292683,"SoundDuration":292683,"Delta":86926890},{"NoteNumber":63,"Velocity":61,"Duration":146341,"SoundDuration":146341,"Delta":86926890},{"NoteNumber":47,"Velocity":25,"Duration":600375,"SoundDuration":600375,"Delta":86926890},{"NoteNumber":50,"Velocity":25,"Duration":600375,"SoundDuration":600375,"Delta":86926890},{"NoteNumber":59,"Velocity":30,"Duration":600375,"SoundDuration":600375,"Delta":86926890},{"NoteNumber":62,"Velocity":47,"Duration":146341,"SoundDuration":146341,"Delta":87073232},{"NoteNumber":76,"Velocity":58,"Duration":153846,"SoundDuration":153846,"Delta":87219573},{"NoteNumber":67,"Velocity":49,"Duration":307692,"SoundDuration":307692,"Delta":87219573},{"NoteNumber":74,"Velocity":47,"Duration":153846,"SoundDuration":153846,"Delta":87373420},{"NoteNumber":74,"Velocity":52,"Duration":156250,"SoundDuration":156250,"Delta":87527266},{"NoteNumber":47,"Velocity":30,"Duration":606250,"SoundDuration":606250,"Delta":87527266},{"NoteNumber":35,"Velocity":25,"Duration":606250,"SoundDuration":606250,"Delta":87527266},{"NoteNumber":71,"Velocity":45,"Duration":150000,"SoundDuration":150000,"Delta":87683516},{"NoteNumber":79,"Velocity":54,"Duration":150000,"SoundDuration":150000,"Delta":87683516},{"NoteNumber":83,"Velocity":58,"Duration":149999,"SoundDuration":149999,"Delta":87833516},{"NoteNumber":74,"Velocity":49,"Duration":149999,"SoundDuration":149999,"Delta":87833516},{"NoteNumber":72,"Velocity":44,"Duration":150000,"SoundDuration":150000,"Delta":87983516},{"NoteNumber":81,"Velocity":52,"Duration":150000,"SoundDuration":150000,"Delta":87983516},{"NoteNumber":71,"Velocity":58,"Duration":149999,"SoundDuration":149999,"Delta":88133516},{"NoteNumber":79,"Velocity":58,"Duration":1205883,"SoundDuration":1205883,"Delta":88133516},{"NoteNumber":40,"Velocity":23,"Duration":607894,"SoundDuration":607894,"Delta":88133516},{"NoteNumber":52,"Velocity":28,"Duration":607894,"SoundDuration":607894,"Delta":88133516},{"NoteNumber":75,"Velocity":50,"Duration":150000,"SoundDuration":150000,"Delta":88283516},{"NoteNumber":76,"Velocity":55,"Duration":150000,"SoundDuration":150000,"Delta":88433516},{"NoteNumber":71,"Velocity":50,"Duration":157894,"SoundDuration":157894,"Delta":88583516},{"NoteNumber":70,"Velocity":54,"Duration":147783,"SoundDuration":147783,"Delta":88741411},{"NoteNumber":49,"Velocity":30,"Duration":597988,"SoundDuration":597988,"Delta":88741411},{"NoteNumber":37,"Velocity":25,"Duration":597988,"SoundDuration":597988,"Delta":88741411},{"NoteNumber":75,"Velocity":58,"Duration":147783,"SoundDuration":147783,"Delta":88889194},{"NoteNumber":76,"Velocity":58,"Duration":147783,"SoundDuration":147783,"Delta":89036977},{"NoteNumber":70,"Velocity":53,"Duration":154639,"SoundDuration":154639,"Delta":89184760},{"NoteNumber":69,"Velocity":56,"Duration":149253,"SoundDuration":149253,"Delta":89339400},{"NoteNumber":50,"Velocity":29,"Duration":298507,"SoundDuration":298507,"Delta":89339400},{"NoteNumber":38,"Velocity":24,"Duration":298507,"SoundDuration":298507,"Delta":89339400},{"NoteNumber":73,"Velocity":50,"Duration":149253,"SoundDuration":149253,"Delta":89488653},{"NoteNumber":74,"Velocity":60,"Duration":149253,"SoundDuration":149253,"Delta":89637907},{"NoteNumber":86,"Velocity":54,"Duration":158730,"SoundDuration":158730,"Delta":89787161},{"NoteNumber":86,"Velocity":61,"Duration":148514,"SoundDuration":148514,"Delta":89945891},{"NoteNumber":57,"Velocity":25,"Duration":1731643,"SoundDuration":1731643,"Delta":89945891},{"NoteNumber":72,"Velocity":30,"Duration":1731643,"SoundDuration":1731643,"Delta":89945891},{"NoteNumber":62,"Velocity":25,"Duration":1731643,"SoundDuration":1731643,"Delta":89945891},{"NoteNumber":98,"Velocity":48,"Duration":143540,"SoundDuration":143540,"Delta":90094406},{"NoteNumber":97,"Velocity":49,"Duration":143540,"SoundDuration":143540,"Delta":90237947},{"NoteNumber":96,"Velocity":50,"Duration":143540,"SoundDuration":143540,"Delta":90381487},{"NoteNumber":93,"Velocity":51,"Duration":143540,"SoundDuration":143540,"Delta":90525028},{"NoteNumber":90,"Velocity":51,"Duration":143540,"SoundDuration":143540,"Delta":90668569},{"NoteNumber":87,"Velocity":52,"Duration":143540,"SoundDuration":143540,"Delta":90812110},{"NoteNumber":86,"Velocity":53,"Duration":143540,"SoundDuration":143540,"Delta":90955650},{"NoteNumber":85,"Velocity":55,"Duration":143540,"SoundDuration":143540,"Delta":91099191},{"NoteNumber":84,"Velocity":60,"Duration":143540,"SoundDuration":143540,"Delta":91242732},{"NoteNumber":81,"Velocity":64,"Duration":145630,"SoundDuration":145630,"Delta":91386273},{"NoteNumber":78,"Velocity":67,"Duration":145631,"SoundDuration":145631,"Delta":91531904},{"NoteNumber":75,"Velocity":72,"Duration":147783,"SoundDuration":147783,"Delta":91677535},{"NoteNumber":79,"Velocity":60,"Duration":295566,"SoundDuration":295566,"Delta":91677535},{"NoteNumber":71,"Velocity":30,"Duration":601244,"SoundDuration":601244,"Delta":91677535},{"NoteNumber":59,"Velocity":25,"Duration":601244,"SoundDuration":601244,"Delta":91677535},{"NoteNumber":62,"Velocity":25,"Duration":601244,"SoundDuration":601244,"Delta":91677535},{"NoteNumber":74,"Velocity":51,"Duration":147783,"SoundDuration":147783,"Delta":91825318},{"NoteNumber":79,"Velocity":53,"Duration":305677,"SoundDuration":305677,"Delta":91973101},{"NoteNumber":88,"Velocity":63,"Duration":147783,"SoundDuration":147783,"Delta":91973101},{"NoteNumber":86,"Velocity":51,"Duration":157894,"SoundDuration":157894,"Delta":92120884},{"NoteNumber":86,"Velocity":61,"Duration":151515,"SoundDuration":151515,"Delta":92278779},{"NoteNumber":60,"Velocity":30,"Duration":1756298,"SoundDuration":1756298,"Delta":92278779},{"NoteNumber":45,"Velocity":25,"Duration":1756298,"SoundDuration":1756298,"Delta":92278779},{"NoteNumber":50,"Velocity":25,"Duration":1756298,"SoundDuration":1756298,"Delta":92278779},{"NoteNumber":98,"Velocity":48,"Duration":145630,"SoundDuration":145630,"Delta":92430294},{"NoteNumber":97,"Velocity":49,"Duration":145631,"SoundDuration":145631,"Delta":92575925},{"NoteNumber":96,"Velocity":50,"Duration":145630,"SoundDuration":145630,"Delta":92721556},{"NoteNumber":93,"Velocity":51,"Duration":145631,"SoundDuration":145631,"Delta":92867187},{"NoteNumber":90,"Velocity":51,"Duration":145630,"SoundDuration":145630,"Delta":93012818},{"NoteNumber":87,"Velocity":52,"Duration":145630,"SoundDuration":145630,"Delta":93158449},{"NoteNumber":86,"Velocity":53,"Duration":145631,"SoundDuration":145631,"Delta":93304080},{"NoteNumber":85,"Velocity":57,"Duration":146341,"SoundDuration":146341,"Delta":93449711},{"NoteNumber":84,"Velocity":59,"Duration":146341,"SoundDuration":146341,"Delta":93596053},{"NoteNumber":81,"Velocity":61,"Duration":146341,"SoundDuration":146341,"Delta":93742394},{"NoteNumber":78,"Velocity":63,"Duration":146341,"SoundDuration":146341,"Delta":93888736},{"NoteNumber":79,"Velocity":54,"Duration":292683,"SoundDuration":292683,"Delta":94035077},{"NoteNumber":75,"Velocity":67,"Duration":146341,"SoundDuration":146341,"Delta":94035077},{"NoteNumber":47,"Velocity":25,"Duration":292683,"SoundDuration":292683,"Delta":94035077},{"NoteNumber":59,"Velocity":30,"Duration":292683,"SoundDuration":292683,"Delta":94035077},{"NoteNumber":50,"Velocity":25,"Duration":292683,"SoundDuration":292683,"Delta":94035077},{"NoteNumber":74,"Velocity":51,"Duration":146341,"SoundDuration":146341,"Delta":94181419},{"NoteNumber":79,"Velocity":53,"Duration":307692,"SoundDuration":307692,"Delta":94327760},{"NoteNumber":88,"Velocity":63,"Duration":153846,"SoundDuration":153846,"Delta":94327760},{"NoteNumber":59,"Velocity":30,"Duration":307692,"SoundDuration":307692,"Delta":94327760},{"NoteNumber":86,"Velocity":51,"Duration":153846,"SoundDuration":153846,"Delta":94481607},{"NoteNumber":86,"Velocity":56,"Duration":156250,"SoundDuration":156250,"Delta":94635453},{"NoteNumber":59,"Velocity":30,"Duration":593142,"SoundDuration":593142,"Delta":94635453},{"NoteNumber":79,"Velocity":54,"Duration":145630,"SoundDuration":145630,"Delta":94791703},{"NoteNumber":71,"Velocity":45,"Duration":145630,"SoundDuration":145630,"Delta":94791703},{"NoteNumber":74,"Velocity":49,"Duration":145631,"SoundDuration":145631,"Delta":94937334},{"NoteNumber":83,"Velocity":58,"Duration":145631,"SoundDuration":145631,"Delta":94937334},{"NoteNumber":81,"Velocity":52,"Duration":145630,"SoundDuration":145630,"Delta":95082965},{"NoteNumber":72,"Velocity":44,"Duration":145630,"SoundDuration":145630,"Delta":95082965},{"NoteNumber":71,"Velocity":58,"Duration":145631,"SoundDuration":145631,"Delta":95228596},{"NoteNumber":79,"Velocity":58,"Duration":1180049,"SoundDuration":1180049,"Delta":95228596},{"NoteNumber":64,"Velocity":28,"Duration":594787,"SoundDuration":594787,"Delta":95228596},{"NoteNumber":75,"Velocity":50,"Duration":145630,"SoundDuration":145630,"Delta":95374227},{"NoteNumber":76,"Velocity":55,"Duration":145630,"SoundDuration":145630,"Delta":95519858},{"NoteNumber":71,"Velocity":50,"Duration":157894,"SoundDuration":157894,"Delta":95665489},{"NoteNumber":70,"Velocity":54,"Duration":143540,"SoundDuration":143540,"Delta":95823384},{"NoteNumber":61,"Velocity":30,"Duration":585261,"SoundDuration":585261,"Delta":95823384},{"NoteNumber":75,"Velocity":58,"Duration":143540,"SoundDuration":143540,"Delta":95966924},{"NoteNumber":76,"Velocity":58,"Duration":143540,"SoundDuration":143540,"Delta":96110465},{"NoteNumber":70,"Velocity":53,"Duration":154639,"SoundDuration":154639,"Delta":96254006},{"NoteNumber":69,"Velocity":56,"Duration":144927,"SoundDuration":144927,"Delta":96408645},{"NoteNumber":78,"Velocity":54,"Duration":289855,"SoundDuration":289855,"Delta":96408645},{"NoteNumber":62,"Velocity":29,"Duration":289855,"SoundDuration":289855,"Delta":96408645},{"NoteNumber":74,"Velocity":50,"Duration":144927,"SoundDuration":144927,"Delta":96553573},{"NoteNumber":79,"Velocity":54,"Duration":303657,"SoundDuration":303657,"Delta":96698500},{"NoteNumber":67,"Velocity":60,"Duration":144927,"SoundDuration":144927,"Delta":96698500},{"NoteNumber":63,"Velocity":29,"Duration":303657,"SoundDuration":303657,"Delta":96698500},{"NoteNumber":72,"Velocity":50,"Duration":158730,"SoundDuration":158730,"Delta":96843428},{"NoteNumber":79,"Velocity":54,"Duration":156250,"SoundDuration":156250,"Delta":97002158},{"NoteNumber":64,"Velocity":31,"Duration":591032,"SoundDuration":591032,"Delta":97002158},{"NoteNumber":76,"Velocity":47,"Duration":144927,"SoundDuration":144927,"Delta":97158408},{"NoteNumber":84,"Velocity":57,"Duration":144927,"SoundDuration":144927,"Delta":97158408},{"NoteNumber":88,"Velocity":62,"Duration":144927,"SoundDuration":144927,"Delta":97303335},{"NoteNumber":79,"Velocity":52,"Duration":144927,"SoundDuration":144927,"Delta":97303335},{"NoteNumber":77,"Velocity":47,"Duration":144927,"SoundDuration":144927,"Delta":97448263},{"NoteNumber":86,"Velocity":56,"Duration":144927,"SoundDuration":144927,"Delta":97448263},{"NoteNumber":76,"Velocity":63,"Duration":146341,"SoundDuration":146341,"Delta":97593190},{"NoteNumber":84,"Velocity":63,"Duration":1186340,"SoundDuration":1186340,"Delta":97593190},{"NoteNumber":69,"Velocity":30,"Duration":596919,"SoundDuration":596919,"Delta":97593190},{"NoteNumber":80,"Velocity":55,"Duration":146341,"SoundDuration":146341,"Delta":97739532},{"NoteNumber":81,"Velocity":61,"Duration":146341,"SoundDuration":146341,"Delta":97885873},{"NoteNumber":75,"Velocity":56,"Duration":157894,"SoundDuration":157894,"Delta":98032215},{"NoteNumber":75,"Velocity":61,"Duration":144927,"SoundDuration":144927,"Delta":98190110},{"NoteNumber":66,"Velocity":33,"Duration":589421,"SoundDuration":589421,"Delta":98190110},{"NoteNumber":80,"Velocity":66,"Duration":144927,"SoundDuration":144927,"Delta":98335037},{"NoteNumber":81,"Velocity":66,"Duration":144927,"SoundDuration":144927,"Delta":98479965},{"NoteNumber":75,"Velocity":62,"Duration":154639,"SoundDuration":154639,"Delta":98624892},{"NoteNumber":74,"Velocity":66,"Duration":145630,"SoundDuration":145630,"Delta":98779531},{"NoteNumber":83,"Velocity":63,"Duration":291262,"SoundDuration":291262,"Delta":98779531},{"NoteNumber":67,"Velocity":34,"Duration":291262,"SoundDuration":291262,"Delta":98779531},{"NoteNumber":79,"Velocity":59,"Duration":145631,"SoundDuration":145631,"Delta":98925162},{"NoteNumber":84,"Velocity":64,"Duration":304361,"SoundDuration":304361,"Delta":99070793},{"NoteNumber":72,"Velocity":72,"Duration":145630,"SoundDuration":145630,"Delta":99070793},{"NoteNumber":68,"Velocity":34,"Duration":304361,"SoundDuration":304361,"Delta":99070793},{"NoteNumber":77,"Velocity":60,"Duration":158730,"SoundDuration":158730,"Delta":99216424},{"NoteNumber":84,"Velocity":63,"Duration":156250,"SoundDuration":156250,"Delta":99375155},{"NoteNumber":69,"Velocity":36,"Duration":591032,"SoundDuration":591032,"Delta":99375155},{"NoteNumber":81,"Velocity":55,"Duration":144927,"SoundDuration":144927,"Delta":99531405},{"NoteNumber":89,"Velocity":66,"Duration":144927,"SoundDuration":144927,"Delta":99531405},{"NoteNumber":84,"Velocity":60,"Duration":144927,"SoundDuration":144927,"Delta":99676332},{"NoteNumber":93,"Velocity":71,"Duration":144927,"SoundDuration":144927,"Delta":99676332},{"NoteNumber":82,"Velocity":55,"Duration":144927,"SoundDuration":144927,"Delta":99821260},{"NoteNumber":91,"Velocity":65,"Duration":144927,"SoundDuration":144927,"Delta":99821260},{"NoteNumber":89,"Velocity":73,"Duration":1184250,"SoundDuration":1184250,"Delta":99966187},{"NoteNumber":80,"Velocity":73,"Duration":146341,"SoundDuration":146341,"Delta":99966187},{"NoteNumber":73,"Velocity":35,"Duration":596919,"SoundDuration":596919,"Delta":99966187},{"NoteNumber":77,"Velocity":63,"Duration":146341,"SoundDuration":146341,"Delta":100112529},{"NoteNumber":80,"Velocity":70,"Duration":146341,"SoundDuration":146341,"Delta":100258870},{"NoteNumber":79,"Velocity":65,"Duration":157894,"SoundDuration":157894,"Delta":100405212},{"NoteNumber":80,"Velocity":70,"Duration":144230,"SoundDuration":144230,"Delta":100563106},{"NoteNumber":71,"Velocity":39,"Duration":587331,"SoundDuration":587331,"Delta":100563106},{"NoteNumber":85,"Velocity":71,"Duration":144230,"SoundDuration":144230,"Delta":100707337},{"NoteNumber":86,"Velocity":77,"Duration":144230,"SoundDuration":144230,"Delta":100851568},{"NoteNumber":80,"Velocity":71,"Duration":154639,"SoundDuration":154639,"Delta":100995799},{"NoteNumber":79,"Velocity":75,"Duration":145630,"SoundDuration":145630,"Delta":101150438},{"NoteNumber":88,"Velocity":78,"Duration":913083,"SoundDuration":913083,"Delta":101150438},{"NoteNumber":60,"Velocity":39,"Duration":913083,"SoundDuration":913083,"Delta":101150438},{"NoteNumber":72,"Velocity":39,"Duration":913083,"SoundDuration":913083,"Delta":101150438},{"NoteNumber":83,"Velocity":68,"Duration":145631,"SoundDuration":145631,"Delta":101296069},{"NoteNumber":84,"Velocity":82,"Duration":145630,"SoundDuration":145630,"Delta":101441700},{"NoteNumber":79,"Velocity":69,"Duration":158730,"SoundDuration":158730,"Delta":101587331},{"NoteNumber":84,"Velocity":74,"Duration":317460,"SoundDuration":317460,"Delta":101746061},{"NoteNumber":76,"Velocity":79,"Duration":292682,"SoundDuration":292682,"Delta":102063522},{"NoteNumber":88,"Velocity":93,"Duration":292682,"SoundDuration":292682,"Delta":102063522},{"NoteNumber":84,"Velocity":79,"Duration":292682,"SoundDuration":292682,"Delta":102063522},{"NoteNumber":79,"Velocity":79,"Duration":292682,"SoundDuration":292682,"Delta":102063522},{"NoteNumber":36,"Velocity":56,"Duration":292682,"SoundDuration":292682,"Delta":102063522},{"NoteNumber":48,"Velocity":66,"Duration":292682,"SoundDuration":292682,"Delta":102063522},{"NoteNumber":83,"Velocity":74,"Duration":307692,"SoundDuration":307692,"Delta":102356205},{"NoteNumber":86,"Velocity":88,"Duration":307692,"SoundDuration":307692,"Delta":102356205},{"NoteNumber":84,"Velocity":74,"Duration":148514,"SoundDuration":148514,"Delta":102663897},{"NoteNumber":88,"Velocity":86,"Duration":148514,"SoundDuration":148514,"Delta":102663897},{"NoteNumber":89,"Velocity":92,"Duration":148514,"SoundDuration":148514,"Delta":102812412},{"NoteNumber":86,"Velocity":78,"Duration":148514,"SoundDuration":148514,"Delta":102812412},{"NoteNumber":88,"Velocity":81,"Duration":148514,"SoundDuration":148514,"Delta":102960927},{"NoteNumber":91,"Velocity":96,"Duration":148514,"SoundDuration":148514,"Delta":102960927},{"NoteNumber":84,"Velocity":77,"Duration":148514,"SoundDuration":148514,"Delta":103257956},{"NoteNumber":88,"Velocity":91,"Duration":148514,"SoundDuration":148514,"Delta":103257956},{"NoteNumber":64,"Velocity":82,"Duration":148514,"SoundDuration":148514,"Delta":103257956},{"NoteNumber":60,"Velocity":69,"Duration":148514,"SoundDuration":148514,"Delta":103257956},{"NoteNumber":59,"Velocity":67,"Duration":297029,"SoundDuration":297029,"Delta":103554986},{"NoteNumber":62,"Velocity":79,"Duration":297029,"SoundDuration":297029,"Delta":103554986},{"NoteNumber":60,"Velocity":68,"Duration":148514,"SoundDuration":148514,"Delta":103852015},{"NoteNumber":64,"Velocity":81,"Duration":148514,"SoundDuration":148514,"Delta":103852015},{"NoteNumber":65,"Velocity":84,"Duration":148514,"SoundDuration":148514,"Delta":104000530},{"NoteNumber":62,"Velocity":71,"Duration":148514,"SoundDuration":148514,"Delta":104000530},{"NoteNumber":67,"Velocity":88,"Duration":148514,"SoundDuration":148514,"Delta":104149045},{"NoteNumber":64,"Velocity":74,"Duration":148514,"SoundDuration":148514,"Delta":104149045},{"NoteNumber":79,"Velocity":79,"Duration":292682,"SoundDuration":292682,"Delta":104446074},{"NoteNumber":76,"Velocity":79,"Duration":292682,"SoundDuration":292682,"Delta":104446074},{"NoteNumber":88,"Velocity":93,"Duration":292682,"SoundDuration":292682,"Delta":104446074},{"NoteNumber":84,"Velocity":79,"Duration":292682,"SoundDuration":292682,"Delta":104446074},{"NoteNumber":48,"Velocity":66,"Duration":292682,"SoundDuration":292682,"Delta":104446074},{"NoteNumber":36,"Velocity":56,"Duration":292682,"SoundDuration":292682,"Delta":104446074},{"NoteNumber":86,"Velocity":88,"Duration":307692,"SoundDuration":307692,"Delta":104738757},{"NoteNumber":83,"Velocity":74,"Duration":307692,"SoundDuration":307692,"Delta":104738757},{"NoteNumber":88,"Velocity":86,"Duration":148514,"SoundDuration":148514,"Delta":105046450},{"NoteNumber":84,"Velocity":74,"Duration":148514,"SoundDuration":148514,"Delta":105046450},{"NoteNumber":86,"Velocity":78,"Duration":148514,"SoundDuration":148514,"Delta":105194965},{"NoteNumber":89,"Velocity":92,"Duration":148514,"SoundDuration":148514,"Delta":105194965},{"NoteNumber":88,"Velocity":81,"Duration":148514,"SoundDuration":148514,"Delta":105343479},{"NoteNumber":91,"Velocity":96,"Duration":148514,"SoundDuration":148514,"Delta":105343479},{"NoteNumber":88,"Velocity":86,"Duration":297029,"SoundDuration":297029,"Delta":105640509},{"NoteNumber":79,"Velocity":86,"Duration":297029,"SoundDuration":297029,"Delta":105640509},{"NoteNumber":81,"Velocity":86,"Duration":297029,"SoundDuration":297029,"Delta":105640509},{"NoteNumber":91,"Velocity":103,"Duration":297029,"SoundDuration":297029,"Delta":105640509},{"NoteNumber":37,"Velocity":62,"Duration":297029,"SoundDuration":297029,"Delta":105640509},{"NoteNumber":49,"Velocity":74,"Duration":297029,"SoundDuration":297029,"Delta":105640509},{"NoteNumber":88,"Velocity":86,"Duration":297029,"SoundDuration":297029,"Delta":106234568},{"NoteNumber":85,"Velocity":86,"Duration":297029,"SoundDuration":297029,"Delta":106234568},{"NoteNumber":91,"Velocity":103,"Duration":297029,"SoundDuration":297029,"Delta":106234568},{"NoteNumber":79,"Velocity":86,"Duration":297029,"SoundDuration":297029,"Delta":106234568},{"NoteNumber":45,"Velocity":79,"Duration":297029,"SoundDuration":297029,"Delta":106234568},{"NoteNumber":33,"Velocity":67,"Duration":297029,"SoundDuration":297029,"Delta":106234568},{"NoteNumber":91,"Velocity":103,"Duration":297029,"SoundDuration":297029,"Delta":106828627},{"NoteNumber":86,"Velocity":86,"Duration":297029,"SoundDuration":297029,"Delta":106828627},{"NoteNumber":83,"Velocity":86,"Duration":297029,"SoundDuration":297029,"Delta":106828627},{"NoteNumber":79,"Velocity":86,"Duration":297029,"SoundDuration":297029,"Delta":106828627},{"NoteNumber":50,"Velocity":74,"Duration":297029,"SoundDuration":297029,"Delta":106828627},{"NoteNumber":38,"Velocity":62,"Duration":297029,"SoundDuration":297029,"Delta":106828627},{"NoteNumber":79,"Velocity":86,"Duration":297029,"SoundDuration":297029,"Delta":107422686},{"NoteNumber":91,"Velocity":103,"Duration":297029,"SoundDuration":297029,"Delta":107422686},{"NoteNumber":85,"Velocity":86,"Duration":297029,"SoundDuration":297029,"Delta":107422686},{"NoteNumber":81,"Velocity":86,"Duration":297029,"SoundDuration":297029,"Delta":107422686},{"NoteNumber":52,"Velocity":79,"Duration":297029,"SoundDuration":297029,"Delta":107422686},{"NoteNumber":40,"Velocity":67,"Duration":297029,"SoundDuration":297029,"Delta":107422686},{"NoteNumber":91,"Velocity":77,"Duration":559185,"SoundDuration":559185,"Delta":107719715},{"NoteNumber":83,"Velocity":65,"Duration":559185,"SoundDuration":559185,"Delta":107719715},{"NoteNumber":86,"Velocity":65,"Duration":559185,"SoundDuration":559185,"Delta":107719715},{"NoteNumber":79,"Velocity":65,"Duration":559185,"SoundDuration":559185,"Delta":107719715},{"NoteNumber":38,"Velocity":50,"Duration":146341,"SoundDuration":146341,"Delta":107719715},{"NoteNumber":42,"Velocity":50,"Duration":137614,"SoundDuration":137614,"Delta":107866057},{"NoteNumber":43,"Velocity":50,"Duration":137614,"SoundDuration":137614,"Delta":108003671},{"NoteNumber":47,"Velocity":50,"Duration":137614,"SoundDuration":137614,"Delta":108141286},{"NoteNumber":79,"Velocity":54,"Duration":825688,"SoundDuration":825688,"Delta":108278901},{"NoteNumber":86,"Velocity":64,"Duration":825688,"SoundDuration":825688,"Delta":108278901},{"NoteNumber":83,"Velocity":54,"Duration":825688,"SoundDuration":825688,"Delta":108278901},{"NoteNumber":50,"Velocity":50,"Duration":137614,"SoundDuration":137614,"Delta":108278901},{"NoteNumber":54,"Velocity":50,"Duration":137614,"SoundDuration":137614,"Delta":108416516},{"NoteNumber":55,"Velocity":50,"Duration":137614,"SoundDuration":137614,"Delta":108554131},{"NoteNumber":59,"Velocity":50,"Duration":137614,"SoundDuration":137614,"Delta":108691745},{"NoteNumber":62,"Velocity":50,"Duration":137614,"SoundDuration":137614,"Delta":108829360},{"NoteNumber":66,"Velocity":50,"Duration":137614,"SoundDuration":137614,"Delta":108966975},{"NoteNumber":74,"Velocity":53,"Duration":275229,"SoundDuration":275229,"Delta":109104590},{"NoteNumber":83,"Velocity":63,"Duration":275229,"SoundDuration":275229,"Delta":109104590},{"NoteNumber":79,"Velocity":53,"Duration":275229,"SoundDuration":275229,"Delta":109104590},{"NoteNumber":67,"Velocity":50,"Duration":137614,"SoundDuration":137614,"Delta":109104590},{"NoteNumber":71,"Velocity":50,"Duration":137614,"SoundDuration":137614,"Delta":109242204},{"NoteNumber":74,"Velocity":56,"Duration":137614,"SoundDuration":137614,"Delta":109379819},{"NoteNumber":78,"Velocity":57,"Duration":137614,"SoundDuration":137614,"Delta":109517434},{"NoteNumber":79,"Velocity":58,"Duration":137614,"SoundDuration":137614,"Delta":109655048},{"NoteNumber":67,"Velocity":43,"Duration":137614,"SoundDuration":137614,"Delta":109655048},{"NoteNumber":83,"Velocity":59,"Duration":137614,"SoundDuration":137614,"Delta":109792663},{"NoteNumber":71,"Velocity":44,"Duration":137614,"SoundDuration":137614,"Delta":109792663},{"NoteNumber":85,"Velocity":60,"Duration":137614,"SoundDuration":137614,"Delta":109930278},{"NoteNumber":73,"Velocity":45,"Duration":137614,"SoundDuration":137614,"Delta":109930278},{"NoteNumber":86,"Velocity":61,"Duration":137614,"SoundDuration":137614,"Delta":110067893},{"NoteNumber":74,"Velocity":46,"Duration":137614,"SoundDuration":137614,"Delta":110067893},{"NoteNumber":88,"Velocity":62,"Duration":137614,"SoundDuration":137614,"Delta":110205507},{"NoteNumber":76,"Velocity":47,"Duration":137614,"SoundDuration":137614,"Delta":110205507},{"NoteNumber":86,"Velocity":62,"Duration":137614,"SoundDuration":137614,"Delta":110343122},{"NoteNumber":74,"Velocity":48,"Duration":137614,"SoundDuration":137614,"Delta":110343122},{"NoteNumber":90,"Velocity":63,"Duration":137614,"SoundDuration":137614,"Delta":110480737},{"NoteNumber":78,"Velocity":50,"Duration":137614,"SoundDuration":137614,"Delta":110480737},{"NoteNumber":91,"Velocity":64,"Duration":137614,"SoundDuration":137614,"Delta":110618352},{"NoteNumber":79,"Velocity":51,"Duration":137614,"SoundDuration":137614,"Delta":110618352},{"NoteNumber":93,"Velocity":65,"Duration":137614,"SoundDuration":137614,"Delta":110755967},{"NoteNumber":81,"Velocity":52,"Duration":137614,"SoundDuration":137614,"Delta":110755967},{"NoteNumber":91,"Velocity":66,"Duration":137815,"SoundDuration":137815,"Delta":110893581},{"NoteNumber":79,"Velocity":53,"Duration":137815,"SoundDuration":137815,"Delta":110893581},{"NoteNumber":94,"Velocity":67,"Duration":140033,"SoundDuration":140033,"Delta":111031397},{"NoteNumber":82,"Velocity":54,"Duration":140033,"SoundDuration":140033,"Delta":111031397},{"NoteNumber":95,"Velocity":68,"Duration":142920,"SoundDuration":142920,"Delta":111171430},{"NoteNumber":83,"Velocity":55,"Duration":142920,"SoundDuration":142920,"Delta":111171430},{"NoteNumber":96,"Velocity":69,"Duration":145919,"SoundDuration":145919,"Delta":111314350},{"NoteNumber":84,"Velocity":56,"Duration":145919,"SoundDuration":145919,"Delta":111314350},{"NoteNumber":95,"Velocity":70,"Duration":148695,"SoundDuration":148695,"Delta":111460270},{"NoteNumber":83,"Velocity":58,"Duration":148695,"SoundDuration":148695,"Delta":111460270},{"NoteNumber":98,"Velocity":71,"Duration":298507,"SoundDuration":298507,"Delta":111608965},{"NoteNumber":86,"Velocity":59,"Duration":298507,"SoundDuration":298507,"Delta":111608965},{"NoteNumber":84,"Velocity":70,"Duration":347694,"SoundDuration":347694,"Delta":111907473},{"NoteNumber":81,"Velocity":59,"Duration":347694,"SoundDuration":347694,"Delta":111907473},{"NoteNumber":74,"Velocity":59,"Duration":347694,"SoundDuration":347694,"Delta":111907473},{"NoteNumber":62,"Velocity":60,"Duration":105820,"SoundDuration":105820,"Delta":111907473},{"NoteNumber":64,"Velocity":63,"Duration":105820,"SoundDuration":105820,"Delta":112013293},{"NoteNumber":66,"Velocity":66,"Duration":136054,"SoundDuration":136054,"Delta":112119113},{"NoteNumber":74,"Velocity":49,"Duration":1161244,"SoundDuration":1161244,"Delta":112255168},{"NoteNumber":83,"Velocity":58,"Duration":1161244,"SoundDuration":1161244,"Delta":112255168},{"NoteNumber":79,"Velocity":49,"Duration":1161244,"SoundDuration":1161244,"Delta":112255168},{"NoteNumber":55,"Velocity":40,"Duration":200000,"SoundDuration":200000,"Delta":112255168},{"NoteNumber":71,"Velocity":32,"Duration":195693,"SoundDuration":195693,"Delta":112455168},{"NoteNumber":67,"Velocity":32,"Duration":191387,"SoundDuration":191387,"Delta":112650861},{"NoteNumber":66,"Velocity":40,"Duration":191387,"SoundDuration":191387,"Delta":112842249},{"NoteNumber":71,"Velocity":33,"Duration":191387,"SoundDuration":191387,"Delta":113033637},{"NoteNumber":67,"Velocity":33,"Duration":191387,"SoundDuration":191387,"Delta":113225024},{"NoteNumber":84,"Velocity":57,"Duration":582524,"SoundDuration":582524,"Delta":113416412},{"NoteNumber":79,"Velocity":48,"Duration":582524,"SoundDuration":582524,"Delta":113416412},{"NoteNumber":63,"Velocity":40,"Duration":194174,"SoundDuration":194174,"Delta":113416412},{"NoteNumber":72,"Velocity":31,"Duration":194174,"SoundDuration":194174,"Delta":113610587},{"NoteNumber":67,"Velocity":31,"Duration":194174,"SoundDuration":194174,"Delta":113804761},{"NoteNumber":84,"Velocity":51,"Duration":589672,"SoundDuration":589672,"Delta":113998936},{"NoteNumber":87,"Velocity":61,"Duration":589672,"SoundDuration":589672,"Delta":113998936},{"NoteNumber":79,"Velocity":51,"Duration":589672,"SoundDuration":589672,"Delta":113998936},{"NoteNumber":60,"Velocity":40,"Duration":189573,"SoundDuration":189573,"Delta":113998936},{"NoteNumber":72,"Velocity":33,"Duration":189573,"SoundDuration":189573,"Delta":114188509},{"NoteNumber":67,"Velocity":33,"Duration":210526,"SoundDuration":210526,"Delta":114378083},{"NoteNumber":91,"Velocity":56,"Duration":1147478,"SoundDuration":1147478,"Delta":114588609},{"NoteNumber":79,"Velocity":56,"Duration":1147478,"SoundDuration":1147478,"Delta":114588609},{"NoteNumber":86,"Velocity":67,"Duration":566038,"SoundDuration":566038,"Delta":114588609},{"NoteNumber":59,"Velocity":40,"Duration":188679,"SoundDuration":188679,"Delta":114588609},{"NoteNumber":71,"Velocity":31,"Duration":188679,"SoundDuration":188679,"Delta":114777288},{"NoteNumber":67,"Velocity":31,"Duration":188679,"SoundDuration":188679,"Delta":114965968},{"NoteNumber":83,"Velocity":61,"Duration":581440,"SoundDuration":581440,"Delta":115154647},{"NoteNumber":55,"Velocity":40,"Duration":188679,"SoundDuration":188679,"Delta":115154647},{"NoteNumber":71,"Velocity":32,"Duration":188679,"SoundDuration":188679,"Delta":115343326},{"NoteNumber":67,"Velocity":32,"Duration":204081,"SoundDuration":204081,"Delta":115532006},{"NoteNumber":84,"Velocity":51,"Duration":566038,"SoundDuration":566038,"Delta":115736087},{"NoteNumber":79,"Velocity":51,"Duration":566038,"SoundDuration":566038,"Delta":115736087},{"NoteNumber":87,"Velocity":60,"Duration":566038,"SoundDuration":566038,"Delta":115736087},{"NoteNumber":60,"Velocity":40,"Duration":188679,"SoundDuration":188679,"Delta":115736087},{"NoteNumber":72,"Velocity":33,"Duration":188679,"SoundDuration":188679,"Delta":115924767},{"NoteNumber":67,"Velocity":33,"Duration":188679,"SoundDuration":188679,"Delta":116113446},{"NoteNumber":84,"Velocity":63,"Duration":581440,"SoundDuration":581440,"Delta":116302125},{"NoteNumber":79,"Velocity":53,"Duration":581440,"SoundDuration":581440,"Delta":116302125},{"NoteNumber":63,"Velocity":40,"Duration":188679,"SoundDuration":188679,"Delta":116302125},{"NoteNumber":72,"Velocity":32,"Duration":188679,"SoundDuration":188679,"Delta":116490805},{"NoteNumber":67,"Velocity":32,"Duration":204081,"SoundDuration":204081,"Delta":116679484},{"NoteNumber":79,"Velocity":56,"Duration":1146442,"SoundDuration":1146442,"Delta":116883566},{"NoteNumber":82,"Velocity":66,"Duration":566038,"SoundDuration":566038,"Delta":116883566},{"NoteNumber":62,"Velocity":40,"Duration":188679,"SoundDuration":188679,"Delta":116883566},{"NoteNumber":70,"Velocity":32,"Duration":188679,"SoundDuration":188679,"Delta":117072245},{"NoteNumber":67,"Velocity":32,"Duration":188679,"SoundDuration":188679,"Delta":117260924},{"NoteNumber":83,"Velocity":59,"Duration":580404,"SoundDuration":580404,"Delta":117449604},{"NoteNumber":62,"Velocity":40,"Duration":188679,"SoundDuration":188679,"Delta":117449604},{"NoteNumber":71,"Velocity":36,"Duration":188679,"SoundDuration":188679,"Delta":117638283},{"NoteNumber":67,"Velocity":36,"Duration":203045,"SoundDuration":203045,"Delta":117826962},{"NoteNumber":86,"Velocity":64,"Duration":563379,"SoundDuration":563379,"Delta":118030008},{"NoteNumber":78,"Velocity":54,"Duration":563379,"SoundDuration":563379,"Delta":118030008},{"NoteNumber":62,"Velocity":40,"Duration":187793,"SoundDuration":187793,"Delta":118030008},{"NoteNumber":72,"Velocity":33,"Duration":187793,"SoundDuration":187793,"Delta":118217801},{"NoteNumber":69,"Velocity":33,"Duration":187793,"SoundDuration":187793,"Delta":118405595},{"NoteNumber":81,"Velocity":53,"Duration":435317,"SoundDuration":435317,"Delta":118593388},{"NoteNumber":84,"Velocity":63,"Duration":435317,"SoundDuration":435317,"Delta":118593388},{"NoteNumber":50,"Velocity":40,"Duration":187793,"SoundDuration":187793,"Delta":118593388},{"NoteNumber":62,"Velocity":34,"Duration":198019,"SoundDuration":198019,"Delta":118781181},{"NoteNumber":74,"Velocity":52,"Duration":297143,"SoundDuration":297143,"Delta":118880191},{"NoteNumber":60,"Velocity":34,"Duration":198133,"SoundDuration":198133,"Delta":118979201},{"NoteNumber":81,"Velocity":57,"Duration":148628,"SoundDuration":148628,"Delta":119028706},{"NoteNumber":78,"Velocity":48,"Duration":148628,"SoundDuration":148628,"Delta":119028706},{"NoteNumber":83,"Velocity":58,"Duration":1173518,"SoundDuration":1173518,"Delta":119177334},{"NoteNumber":74,"Velocity":49,"Duration":315060,"SoundDuration":315060,"Delta":119177334},{"NoteNumber":79,"Velocity":49,"Duration":108579,"SoundDuration":108579,"Delta":119177334},{"NoteNumber":43,"Velocity":40,"Duration":160414,"SoundDuration":160414,"Delta":119177334},{"NoteNumber":81,"Velocity":42,"Duration":105447,"SoundDuration":105447,"Delta":119285914},{"NoteNumber":55,"Velocity":33,"Duration":154645,"SoundDuration":154645,"Delta":119337749},{"NoteNumber":79,"Velocity":49,"Duration":103559,"SoundDuration":103559,"Delta":119391361},{"NoteNumber":59,"Velocity":33,"Duration":147818,"SoundDuration":147818,"Delta":119492395},{"NoteNumber":81,"Velocity":44,"Duration":100415,"SoundDuration":100415,"Delta":119493658},{"NoteNumber":79,"Velocity":49,"Duration":96976,"SoundDuration":96976,"Delta":119594073},{"NoteNumber":55,"Velocity":33,"Duration":144333,"SoundDuration":144333,"Delta":119640213},{"NoteNumber":81,"Velocity":44,"Duration":97068,"SoundDuration":97068,"Delta":119691049},{"NoteNumber":79,"Velocity":50,"Duration":96029,"SoundDuration":96029,"Delta":119784547},{"NoteNumber":54,"Velocity":41,"Duration":142019,"SoundDuration":142019,"Delta":119784547},{"NoteNumber":81,"Velocity":44,"Duration":94339,"SoundDuration":94339,"Delta":119880576},{"NoteNumber":55,"Velocity":35,"Duration":141509,"SoundDuration":141509,"Delta":119926567},{"NoteNumber":79,"Velocity":50,"Duration":95518,"SoundDuration":95518,"Delta":119974916},{"NoteNumber":67,"Velocity":35,"Duration":141509,"SoundDuration":141509,"Delta":120068076},{"NoteNumber":81,"Velocity":46,"Duration":95518,"SoundDuration":95518,"Delta":120069255},{"NoteNumber":79,"Velocity":51,"Duration":94339,"SoundDuration":94339,"Delta":120164774},{"NoteNumber":55,"Velocity":35,"Duration":141267,"SoundDuration":141267,"Delta":120209586},{"NoteNumber":81,"Velocity":45,"Duration":95243,"SoundDuration":95243,"Delta":120259114},{"NoteNumber":84,"Velocity":67,"Duration":558444,"SoundDuration":558444,"Delta":120350853},{"NoteNumber":79,"Velocity":51,"Duration":94626,"SoundDuration":94626,"Delta":120350853},{"NoteNumber":52,"Velocity":42,"Duration":140186,"SoundDuration":140186,"Delta":120350853},{"NoteNumber":81,"Velocity":44,"Duration":93457,"SoundDuration":93457,"Delta":120445479},{"NoteNumber":55,"Velocity":36,"Duration":139806,"SoundDuration":139806,"Delta":120491040},{"NoteNumber":79,"Velocity":52,"Duration":94235,"SoundDuration":94235,"Delta":120538937},{"NoteNumber":67,"Velocity":36,"Duration":139443,"SoundDuration":139443,"Delta":120630846},{"NoteNumber":81,"Velocity":47,"Duration":94186,"SoundDuration":94186,"Delta":120632009},{"NoteNumber":79,"Velocity":52,"Duration":92705,"SoundDuration":92705,"Delta":120726195},{"NoteNumber":55,"Velocity":37,"Duration":139007,"SoundDuration":139007,"Delta":120770290},{"NoteNumber":81,"Velocity":47,"Duration":93884,"SoundDuration":93884,"Delta":120818901},{"NoteNumber":79,"Velocity":53,"Duration":94430,"SoundDuration":94430,"Delta":120909297},{"NoteNumber":88,"Velocity":73,"Duration":586452,"SoundDuration":586452,"Delta":120909297},{"NoteNumber":48,"Velocity":44,"Duration":140035,"SoundDuration":140035,"Delta":120909297},{"NoteNumber":81,"Velocity":47,"Duration":93726,"SoundDuration":93726,"Delta":121003728},{"NoteNumber":55,"Velocity":37,"Duration":141299,"SoundDuration":141299,"Delta":121049333},{"NoteNumber":79,"Velocity":54,"Duration":95547,"SoundDuration":95547,"Delta":121097455},{"NoteNumber":64,"Velocity":37,"Duration":147615,"SoundDuration":147615,"Delta":121190632},{"NoteNumber":81,"Velocity":48,"Duration":96430,"SoundDuration":96430,"Delta":121191817},{"NoteNumber":79,"Velocity":54,"Duration":105263,"SoundDuration":105263,"Delta":121288248},{"NoteNumber":55,"Velocity":38,"Duration":157501,"SoundDuration":157501,"Delta":121338248},{"NoteNumber":81,"Velocity":48,"Duration":105793,"SoundDuration":105793,"Delta":121393511},{"NoteNumber":79,"Velocity":55,"Duration":95971,"SoundDuration":95971,"Delta":121495750},{"NoteNumber":91,"Velocity":67,"Duration":1139767,"SoundDuration":1139767,"Delta":121495750},{"NoteNumber":47,"Velocity":45,"Duration":142135,"SoundDuration":142135,"Delta":121495750},{"NoteNumber":81,"Velocity":47,"Duration":94512,"SoundDuration":94512,"Delta":121591721},{"NoteNumber":55,"Velocity":37,"Duration":141332,"SoundDuration":141332,"Delta":121637885},{"NoteNumber":79,"Velocity":55,"Duration":95330,"SoundDuration":95330,"Delta":121686234},{"NoteNumber":62,"Velocity":37,"Duration":140537,"SoundDuration":140537,"Delta":121779217},{"NoteNumber":81,"Velocity":50,"Duration":94971,"SoundDuration":94971,"Delta":121780391},{"NoteNumber":79,"Velocity":56,"Duration":93447,"SoundDuration":93447,"Delta":121875363},{"NoteNumber":55,"Velocity":37,"Duration":139752,"SoundDuration":139752,"Delta":121919755},{"NoteNumber":81,"Velocity":51,"Duration":94186,"SoundDuration":94186,"Delta":121968810},{"NoteNumber":79,"Velocity":56,"Duration":94186,"SoundDuration":94186,"Delta":122059508},{"NoteNumber":43,"Velocity":46,"Duration":139534,"SoundDuration":139534,"Delta":122059508},{"NoteNumber":81,"Velocity":50,"Duration":93180,"SoundDuration":93180,"Delta":122153694},{"NoteNumber":55,"Velocity":39,"Duration":140297,"SoundDuration":140297,"Delta":122199043},{"NoteNumber":79,"Velocity":57,"Duration":94812,"SoundDuration":94812,"Delta":122246875},{"NoteNumber":59,"Velocity":40,"Duration":145110,"SoundDuration":145110,"Delta":122339340},{"NoteNumber":81,"Velocity":51,"Duration":95467,"SoundDuration":95467,"Delta":122340514},{"NoteNumber":79,"Velocity":57,"Duration":102040,"SoundDuration":102040,"Delta":122435981},{"NoteNumber":55,"Velocity":40,"Duration":151066,"SoundDuration":151066,"Delta":122484451},{"NoteNumber":81,"Velocity":51,"Duration":101049,"SoundDuration":101049,"Delta":122538022},{"NoteNumber":88,"Velocity":72,"Duration":563355,"SoundDuration":563355,"Delta":122635517},{"NoteNumber":79,"Velocity":58,"Duration":95971,"SoundDuration":95971,"Delta":122635517},{"NoteNumber":48,"Velocity":48,"Duration":142029,"SoundDuration":142029,"Delta":122635517},{"NoteNumber":81,"Velocity":50,"Duration":94406,"SoundDuration":94406,"Delta":122731489},{"NoteNumber":55,"Velocity":42,"Duration":141227,"SoundDuration":141227,"Delta":122777546},{"NoteNumber":79,"Velocity":59,"Duration":95225,"SoundDuration":95225,"Delta":122825895},{"NoteNumber":64,"Velocity":42,"Duration":140341,"SoundDuration":140341,"Delta":122918773},{"NoteNumber":81,"Velocity":53,"Duration":94867,"SoundDuration":94867,"Delta":122919947},{"NoteNumber":79,"Velocity":59,"Duration":93137,"SoundDuration":93137,"Delta":123014815},{"NoteNumber":55,"Velocity":42,"Duration":139757,"SoundDuration":139757,"Delta":123059115},{"NoteNumber":81,"Velocity":53,"Duration":94425,"SoundDuration":94425,"Delta":123107952},{"NoteNumber":84,"Velocity":77,"Duration":581335,"SoundDuration":581335,"Delta":123198873},{"NoteNumber":79,"Velocity":60,"Duration":94872,"SoundDuration":94872,"Delta":123198873},{"NoteNumber":52,"Velocity":51,"Duration":140647,"SoundDuration":140647,"Delta":123198873},{"NoteNumber":81,"Velocity":52,"Duration":94057,"SoundDuration":94057,"Delta":123293746},{"NoteNumber":55,"Velocity":43,"Duration":141621,"SoundDuration":141621,"Delta":123339520},{"NoteNumber":79,"Velocity":60,"Duration":95708,"SoundDuration":95708,"Delta":123387803},{"NoteNumber":67,"Velocity":43,"Duration":146004,"SoundDuration":146004,"Delta":123481142},{"NoteNumber":81,"Velocity":55,"Duration":96350,"SoundDuration":96350,"Delta":123482327},{"NoteNumber":79,"Velocity":61,"Duration":102040,"SoundDuration":102040,"Delta":123578677},{"NoteNumber":55,"Velocity":43,"Duration":153061,"SoundDuration":153061,"Delta":123627147},{"NoteNumber":81,"Velocity":54,"Duration":103027,"SoundDuration":103027,"Delta":123680718},{"NoteNumber":79,"Velocity":61,"Duration":96024,"SoundDuration":96024,"Delta":123780208},{"NoteNumber":82,"Velocity":83,"Duration":285242,"SoundDuration":285242,"Delta":123780208},{"NoteNumber":50,"Velocity":50,"Duration":142452,"SoundDuration":142452,"Delta":123780208},{"NoteNumber":81,"Velocity":53,"Duration":95238,"SoundDuration":95238,"Delta":123876232},{"NoteNumber":52,"Velocity":44,"Duration":142789,"SoundDuration":142789,"Delta":123922661},{"NoteNumber":79,"Velocity":62,"Duration":96349,"SoundDuration":96349,"Delta":123971470},{"NoteNumber":83,"Velocity":75,"Duration":565873,"SoundDuration":565873,"Delta":124065450},{"NoteNumber":54,"Velocity":48,"Duration":142179,"SoundDuration":142179,"Delta":124065450},{"NoteNumber":81,"Velocity":56,"Duration":95971,"SoundDuration":95971,"Delta":124066635},{"NoteNumber":79,"Velocity":62,"Duration":94786,"SoundDuration":94786,"Delta":124162607},{"NoteNumber":55,"Velocity":51,"Duration":141844,"SoundDuration":141844,"Delta":124207630},{"NoteNumber":81,"Velocity":56,"Duration":95619,"SoundDuration":95619,"Delta":124257393},{"NoteNumber":79,"Velocity":63,"Duration":95518,"SoundDuration":95518,"Delta":124349475},{"NoteNumber":57,"Velocity":54,"Duration":141211,"SoundDuration":141211,"Delta":124349475},{"NoteNumber":81,"Velocity":55,"Duration":93590,"SoundDuration":93590,"Delta":124444994},{"NoteNumber":59,"Velocity":55,"Duration":140637,"SoundDuration":140637,"Delta":124490687},{"NoteNumber":79,"Velocity":64,"Duration":95098,"SoundDuration":95098,"Delta":124538584},{"NoteNumber":86,"Velocity":86,"Duration":295728,"SoundDuration":295728,"Delta":124631324},{"NoteNumber":57,"Velocity":55,"Duration":145296,"SoundDuration":145296,"Delta":124631324},{"NoteNumber":81,"Velocity":57,"Duration":95894,"SoundDuration":95894,"Delta":124632504},{"NoteNumber":79,"Velocity":64,"Duration":101522,"SoundDuration":101522,"Delta":124728398},{"NoteNumber":55,"Velocity":54,"Duration":150431,"SoundDuration":150431,"Delta":124776621},{"NoteNumber":81,"Velocity":56,"Duration":100686,"SoundDuration":100686,"Delta":124829920},{"NoteNumber":86,"Velocity":75,"Duration":95971,"SoundDuration":95971,"Delta":124927053},{"NoteNumber":54,"Velocity":54,"Duration":142029,"SoundDuration":142029,"Delta":124927053},{"NoteNumber":88,"Velocity":66,"Duration":94406,"SoundDuration":94406,"Delta":125023024},{"NoteNumber":55,"Velocity":49,"Duration":141227,"SoundDuration":141227,"Delta":125069082},{"NoteNumber":86,"Velocity":75,"Duration":95225,"SoundDuration":95225,"Delta":125117431},{"NoteNumber":74,"Velocity":60,"Duration":279670,"SoundDuration":279670,"Delta":125210309},{"NoteNumber":54,"Velocity":49,"Duration":140537,"SoundDuration":140537,"Delta":125210309},{"NoteNumber":88,"Velocity":64,"Duration":94971,"SoundDuration":94971,"Delta":125211483},{"NoteNumber":86,"Velocity":75,"Duration":93230,"SoundDuration":93230,"Delta":125306454},{"NoteNumber":52,"Velocity":49,"Duration":139132,"SoundDuration":139132,"Delta":125350847},{"NoteNumber":88,"Velocity":68,"Duration":93782,"SoundDuration":93782,"Delta":125399685},{"NoteNumber":86,"Velocity":78,"Duration":94224,"SoundDuration":94224,"Delta":125489979},{"NoteNumber":50,"Velocity":54,"Duration":139784,"SoundDuration":139784,"Delta":125489979},{"NoteNumber":88,"Velocity":69,"Duration":93512,"SoundDuration":93512,"Delta":125584203},{"NoteNumber":48,"Velocity":50,"Duration":140675,"SoundDuration":140675,"Delta":125629764},{"NoteNumber":86,"Velocity":75,"Duration":95070,"SoundDuration":95070,"Delta":125677716},{"NoteNumber":85,"Velocity":75,"Duration":141671,"SoundDuration":141671,"Delta":125770439},{"NoteNumber":47,"Velocity":59,"Duration":141671,"SoundDuration":141671,"Delta":125770439},{"NoteNumber":86,"Velocity":79,"Duration":142648,"SoundDuration":142648,"Delta":125912111},{"NoteNumber":45,"Velocity":66,"Duration":142648,"SoundDuration":142648,"Delta":125912111},{"NoteNumber":89,"Velocity":73,"Duration":133928,"SoundDuration":133928,"Delta":126054760},{"NoteNumber":86,"Velocity":73,"Duration":133928,"SoundDuration":133928,"Delta":126054760},{"NoteNumber":95,"Velocity":73,"Duration":133928,"SoundDuration":133928,"Delta":126054760},{"NoteNumber":98,"Velocity":86,"Duration":133928,"SoundDuration":133928,"Delta":126054760},{"NoteNumber":31,"Velocity":66,"Duration":133928,"SoundDuration":133928,"Delta":126054760},{"NoteNumber":43,"Velocity":56,"Duration":133928,"SoundDuration":133928,"Delta":126188688},{"NoteNumber":86,"Velocity":66,"Duration":543086,"SoundDuration":543086,"Delta":126322617},{"NoteNumber":89,"Velocity":66,"Duration":543086,"SoundDuration":543086,"Delta":126322617},{"NoteNumber":95,"Velocity":66,"Duration":543086,"SoundDuration":543086,"Delta":126322617},{"NoteNumber":98,"Velocity":78,"Duration":543086,"SoundDuration":543086,"Delta":126322617},{"NoteNumber":31,"Velocity":66,"Duration":133928,"SoundDuration":133928,"Delta":126322617},{"NoteNumber":43,"Velocity":56,"Duration":133928,"SoundDuration":133928,"Delta":126456545},{"NoteNumber":31,"Velocity":66,"Duration":137614,"SoundDuration":137614,"Delta":126590474},{"NoteNumber":43,"Velocity":57,"Duration":137614,"SoundDuration":137614,"Delta":126728088},{"NoteNumber":86,"Velocity":66,"Duration":140186,"SoundDuration":140186,"Delta":126865703},{"NoteNumber":84,"Velocity":66,"Duration":140186,"SoundDuration":140186,"Delta":126865703},{"NoteNumber":89,"Velocity":66,"Duration":140186,"SoundDuration":140186,"Delta":126865703},{"NoteNumber":96,"Velocity":78,"Duration":140186,"SoundDuration":140186,"Delta":126865703},{"NoteNumber":31,"Velocity":66,"Duration":140186,"SoundDuration":140186,"Delta":126865703},{"NoteNumber":43,"Velocity":57,"Duration":140186,"SoundDuration":140186,"Delta":127005890},{"NoteNumber":89,"Velocity":67,"Duration":133333,"SoundDuration":133333,"Delta":127146077},{"NoteNumber":95,"Velocity":79,"Duration":133333,"SoundDuration":133333,"Delta":127146077},{"NoteNumber":83,"Velocity":67,"Duration":133333,"SoundDuration":133333,"Delta":127146077},{"NoteNumber":86,"Velocity":67,"Duration":133333,"SoundDuration":133333,"Delta":127146077},{"NoteNumber":31,"Velocity":66,"Duration":133333,"SoundDuration":133333,"Delta":127146077},{"NoteNumber":43,"Velocity":57,"Duration":133333,"SoundDuration":133333,"Delta":127279410},{"NoteNumber":86,"Velocity":70,"Duration":133333,"SoundDuration":133333,"Delta":127412744},{"NoteNumber":96,"Velocity":83,"Duration":133333,"SoundDuration":133333,"Delta":127412744},{"NoteNumber":89,"Velocity":70,"Duration":133333,"SoundDuration":133333,"Delta":127412744},{"NoteNumber":84,"Velocity":70,"Duration":133333,"SoundDuration":133333,"Delta":127412744},{"NoteNumber":31,"Velocity":66,"Duration":133333,"SoundDuration":133333,"Delta":127412744},{"NoteNumber":43,"Velocity":58,"Duration":133333,"SoundDuration":133333,"Delta":127546077},{"NoteNumber":98,"Velocity":82,"Duration":133333,"SoundDuration":133333,"Delta":127679410},{"NoteNumber":86,"Velocity":69,"Duration":133333,"SoundDuration":133333,"Delta":127679410},{"NoteNumber":89,"Velocity":69,"Duration":133333,"SoundDuration":133333,"Delta":127679410},{"NoteNumber":31,"Velocity":66,"Duration":133333,"SoundDuration":133333,"Delta":127679410},{"NoteNumber":43,"Velocity":59,"Duration":133333,"SoundDuration":133333,"Delta":127812743},{"NoteNumber":95,"Velocity":69,"Duration":140186,"SoundDuration":140186,"Delta":127946077},{"NoteNumber":83,"Velocity":58,"Duration":140186,"SoundDuration":140186,"Delta":127946077},{"NoteNumber":86,"Velocity":58,"Duration":140186,"SoundDuration":140186,"Delta":127946077},{"NoteNumber":88,"Velocity":58,"Duration":140186,"SoundDuration":140186,"Delta":127946077},{"NoteNumber":32,"Velocity":45,"Duration":140186,"SoundDuration":140186,"Delta":127946077},{"NoteNumber":44,"Velocity":34,"Duration":140186,"SoundDuration":140186,"Delta":128086264},{"NoteNumber":88,"Velocity":50,"Duration":132743,"SoundDuration":132743,"Delta":128226451},{"NoteNumber":96,"Velocity":59,"Duration":132743,"SoundDuration":132743,"Delta":128226451},{"NoteNumber":84,"Velocity":50,"Duration":132743,"SoundDuration":132743,"Delta":128226451},{"NoteNumber":33,"Velocity":43,"Duration":132743,"SoundDuration":132743,"Delta":128226451},{"NoteNumber":45,"Velocity":33,"Duration":132743,"SoundDuration":132743,"Delta":128359194},{"NoteNumber":83,"Velocity":45,"Duration":132743,"SoundDuration":132743,"Delta":128491937},{"NoteNumber":86,"Velocity":45,"Duration":132743,"SoundDuration":132743,"Delta":128491937},{"NoteNumber":88,"Velocity":45,"Duration":132743,"SoundDuration":132743,"Delta":128491937},{"NoteNumber":95,"Velocity":53,"Duration":132743,"SoundDuration":132743,"Delta":128491937},{"NoteNumber":32,"Velocity":43,"Duration":132743,"SoundDuration":132743,"Delta":128491937},{"NoteNumber":44,"Velocity":33,"Duration":132743,"SoundDuration":132743,"Delta":128624680},{"NoteNumber":96,"Velocity":59,"Duration":132743,"SoundDuration":132743,"Delta":128757424},{"NoteNumber":88,"Velocity":50,"Duration":132743,"SoundDuration":132743,"Delta":128757424},{"NoteNumber":84,"Velocity":50,"Duration":132743,"SoundDuration":132743,"Delta":128757424},{"NoteNumber":33,"Velocity":43,"Duration":132743,"SoundDuration":132743,"Delta":128757424},{"NoteNumber":45,"Velocity":34,"Duration":132743,"SoundDuration":132743,"Delta":128890167},{"NoteNumber":84,"Velocity":45,"Duration":138248,"SoundDuration":138248,"Delta":129022910},{"NoteNumber":93,"Velocity":53,"Duration":138248,"SoundDuration":138248,"Delta":129022910},{"NoteNumber":88,"Velocity":45,"Duration":138248,"SoundDuration":138248,"Delta":129022910},{"NoteNumber":81,"Velocity":45,"Duration":138248,"SoundDuration":138248,"Delta":129022910},{"NoteNumber":36,"Velocity":43,"Duration":138248,"SoundDuration":138248,"Delta":129022910},{"NoteNumber":48,"Velocity":35,"Duration":138248,"SoundDuration":138248,"Delta":129161159},{"NoteNumber":81,"Velocity":50,"Duration":132158,"SoundDuration":132158,"Delta":129299408},{"NoteNumber":88,"Velocity":50,"Duration":132158,"SoundDuration":132158,"Delta":129299408},{"NoteNumber":91,"Velocity":59,"Duration":132158,"SoundDuration":132158,"Delta":129299408},{"NoteNumber":37,"Velocity":43,"Duration":132158,"SoundDuration":132158,"Delta":129299408},{"NoteNumber":49,"Velocity":33,"Duration":132158,"SoundDuration":132158,"Delta":129431566},{"NoteNumber":91,"Velocity":53,"Duration":132158,"SoundDuration":132158,"Delta":129563725},{"NoteNumber":81,"Velocity":45,"Duration":132158,"SoundDuration":132158,"Delta":129563725},{"NoteNumber":85,"Velocity":45,"Duration":132158,"SoundDuration":132158,"Delta":129563725},{"NoteNumber":40,"Velocity":43,"Duration":132158,"SoundDuration":132158,"Delta":129563725},{"NoteNumber":52,"Velocity":33,"Duration":132158,"SoundDuration":132158,"Delta":129695883},{"NoteNumber":90,"Velocity":59,"Duration":132158,"SoundDuration":132158,"Delta":129828042},{"NoteNumber":81,"Velocity":50,"Duration":132158,"SoundDuration":132158,"Delta":129828042},{"NoteNumber":84,"Velocity":50,"Duration":132158,"SoundDuration":132158,"Delta":129828042},{"NoteNumber":38,"Velocity":43,"Duration":132158,"SoundDuration":132158,"Delta":129828042},{"NoteNumber":50,"Velocity":34,"Duration":132158,"SoundDuration":132158,"Delta":129960200},{"NoteNumber":84,"Velocity":45,"Duration":137614,"SoundDuration":137614,"Delta":130092359},{"NoteNumber":93,"Velocity":53,"Duration":137614,"SoundDuration":137614,"Delta":130092359},{"NoteNumber":81,"Velocity":45,"Duration":137614,"SoundDuration":137614,"Delta":130092359},{"NoteNumber":38,"Velocity":43,"Duration":137614,"SoundDuration":137614,"Delta":130092359},{"NoteNumber":50,"Velocity":35,"Duration":137614,"SoundDuration":137614,"Delta":130229973},{"NoteNumber":91,"Velocity":64,"Duration":130434,"SoundDuration":130434,"Delta":130367588},{"NoteNumber":83,"Velocity":55,"Duration":130434,"SoundDuration":130434,"Delta":130367588},{"NoteNumber":79,"Velocity":55,"Duration":130434,"SoundDuration":130434,"Delta":130367588},{"NoteNumber":38,"Velocity":47,"Duration":130434,"SoundDuration":130434,"Delta":130367588},{"NoteNumber":50,"Velocity":36,"Duration":130434,"SoundDuration":130434,"Delta":130498023},{"NoteNumber":83,"Velocity":50,"Duration":130434,"SoundDuration":130434,"Delta":130628458},{"NoteNumber":86,"Velocity":59,"Duration":130434,"SoundDuration":130434,"Delta":130628458},{"NoteNumber":74,"Velocity":50,"Duration":130434,"SoundDuration":130434,"Delta":130628458},{"NoteNumber":43,"Velocity":48,"Duration":130434,"SoundDuration":130434,"Delta":130628458},{"NoteNumber":55,"Velocity":37,"Duration":130434,"SoundDuration":130434,"Delta":130758892},{"NoteNumber":84,"Velocity":58,"Duration":130434,"SoundDuration":130434,"Delta":130889327},{"NoteNumber":78,"Velocity":58,"Duration":130434,"SoundDuration":130434,"Delta":130889327},{"NoteNumber":90,"Velocity":69,"Duration":130434,"SoundDuration":130434,"Delta":130889327},{"NoteNumber":38,"Velocity":50,"Duration":130434,"SoundDuration":130434,"Delta":130889327},{"NoteNumber":50,"Velocity":40,"Duration":128260,"SoundDuration":128260,"Delta":131019762},{"NoteNumber":90,"Velocity":55,"Duration":136986,"SoundDuration":136986,"Delta":131150197},{"NoteNumber":84,"Velocity":55,"Duration":136986,"SoundDuration":136986,"Delta":131150197},{"NoteNumber":93,"Velocity":65,"Duration":136986,"SoundDuration":136986,"Delta":131150197},{"NoteNumber":81,"Velocity":55,"Duration":136986,"SoundDuration":136986,"Delta":131150197},{"NoteNumber":50,"Velocity":53,"Duration":136986,"SoundDuration":136986,"Delta":131150197},{"NoteNumber":62,"Velocity":44,"Duration":136986,"SoundDuration":136986,"Delta":131287183},{"NoteNumber":83,"Velocity":63,"Duration":130434,"SoundDuration":130434,"Delta":131424169},{"NoteNumber":79,"Velocity":63,"Duration":130434,"SoundDuration":130434,"Delta":131424169},{"NoteNumber":91,"Velocity":75,"Duration":130434,"SoundDuration":130434,"Delta":131424169},{"NoteNumber":38,"Velocity":54,"Duration":130434,"SoundDuration":130434,"Delta":131424169},{"NoteNumber":50,"Velocity":42,"Duration":130434,"SoundDuration":130434,"Delta":131554604},{"NoteNumber":83,"Velocity":59,"Duration":130434,"SoundDuration":130434,"Delta":131685039},{"NoteNumber":74,"Velocity":59,"Duration":130434,"SoundDuration":130434,"Delta":131685039},{"NoteNumber":86,"Velocity":69,"Duration":130434,"SoundDuration":130434,"Delta":131685039},{"NoteNumber":43,"Velocity":57,"Duration":130434,"SoundDuration":130434,"Delta":131685039},{"NoteNumber":55,"Velocity":44,"Duration":130434,"SoundDuration":130434,"Delta":131815473},{"NoteNumber":84,"Velocity":69,"Duration":130434,"SoundDuration":130434,"Delta":131945908},{"NoteNumber":90,"Velocity":80,"Duration":130434,"SoundDuration":130434,"Delta":131945908},{"NoteNumber":78,"Velocity":69,"Duration":130434,"SoundDuration":130434,"Delta":131945908},{"NoteNumber":38,"Velocity":58,"Duration":130434,"SoundDuration":130434,"Delta":131945908},{"NoteNumber":50,"Velocity":47,"Duration":128260,"SoundDuration":128260,"Delta":132076343},{"NoteNumber":90,"Velocity":64,"Duration":135746,"SoundDuration":135746,"Delta":132206778},{"NoteNumber":84,"Velocity":64,"Duration":135746,"SoundDuration":135746,"Delta":132206778},{"NoteNumber":81,"Velocity":64,"Duration":135746,"SoundDuration":135746,"Delta":132206778},{"NoteNumber":93,"Velocity":76,"Duration":135746,"SoundDuration":135746,"Delta":132206778},{"NoteNumber":50,"Velocity":61,"Duration":135746,"SoundDuration":135746,"Delta":132206778},{"NoteNumber":62,"Velocity":51,"Duration":135746,"SoundDuration":135746,"Delta":132342524},{"NoteNumber":79,"Velocity":77,"Duration":126582,"SoundDuration":126582,"Delta":132478271},{"NoteNumber":43,"Velocity":59,"Duration":126582,"SoundDuration":126582,"Delta":132478271},{"NoteNumber":91,"Velocity":70,"Duration":126582,"SoundDuration":126582,"Delta":132604853},{"NoteNumber":55,"Velocity":50,"Duration":126582,"SoundDuration":126582,"Delta":132604853},{"NoteNumber":74,"Velocity":79,"Duration":126582,"SoundDuration":126582,"Delta":132731435},{"NoteNumber":38,"Velocity":61,"Duration":126582,"SoundDuration":126582,"Delta":132731435},{"NoteNumber":86,"Velocity":73,"Duration":126582,"SoundDuration":126582,"Delta":132858017},{"NoteNumber":50,"Velocity":51,"Duration":126582,"SoundDuration":126582,"Delta":132858017},{"NoteNumber":78,"Velocity":82,"Duration":126582,"SoundDuration":126582,"Delta":132984600},{"NoteNumber":42,"Velocity":64,"Duration":126582,"SoundDuration":126582,"Delta":132984600},{"NoteNumber":90,"Velocity":76,"Duration":126582,"SoundDuration":126582,"Delta":133111182},{"NoteNumber":54,"Velocity":55,"Duration":126582,"SoundDuration":126582,"Delta":133111182},{"NoteNumber":81,"Velocity":85,"Duration":126582,"SoundDuration":126582,"Delta":133237764},{"NoteNumber":45,"Velocity":67,"Duration":126582,"SoundDuration":126582,"Delta":133237764},{"NoteNumber":93,"Velocity":79,"Duration":142179,"SoundDuration":142179,"Delta":133364346},{"NoteNumber":57,"Velocity":58,"Duration":142179,"SoundDuration":142179,"Delta":133364346},{"NoteNumber":79,"Velocity":88,"Duration":127659,"SoundDuration":127659,"Delta":133506526},{"NoteNumber":43,"Velocity":68,"Duration":127659,"SoundDuration":127659,"Delta":133506526},{"NoteNumber":91,"Velocity":82,"Duration":127659,"SoundDuration":127659,"Delta":133634186},{"NoteNumber":55,"Velocity":63,"Duration":127659,"SoundDuration":127659,"Delta":133634186},{"NoteNumber":74,"Velocity":91,"Duration":127659,"SoundDuration":127659,"Delta":133761845},{"NoteNumber":38,"Velocity":71,"Duration":127659,"SoundDuration":127659,"Delta":133761845},{"NoteNumber":86,"Velocity":86,"Duration":127659,"SoundDuration":127659,"Delta":133889505},{"NoteNumber":50,"Velocity":63,"Duration":127659,"SoundDuration":127659,"Delta":133889505},{"NoteNumber":78,"Velocity":94,"Duration":127659,"SoundDuration":127659,"Delta":134017164},{"NoteNumber":30,"Velocity":74,"Duration":127659,"SoundDuration":127659,"Delta":134017164},{"NoteNumber":90,"Velocity":90,"Duration":127659,"SoundDuration":127659,"Delta":134144824},{"NoteNumber":42,"Velocity":64,"Duration":127659,"SoundDuration":127659,"Delta":134144824},{"NoteNumber":81,"Velocity":99,"Duration":127659,"SoundDuration":127659,"Delta":134272483},{"NoteNumber":33,"Velocity":76,"Duration":127659,"SoundDuration":127659,"Delta":134272483},{"NoteNumber":93,"Velocity":92,"Duration":140845,"SoundDuration":140845,"Delta":134400143},{"NoteNumber":45,"Velocity":67,"Duration":140845,"SoundDuration":140845,"Delta":134400143},{"NoteNumber":91,"Velocity":110,"Duration":217391,"SoundDuration":217391,"Delta":134540988},{"NoteNumber":79,"Velocity":91,"Duration":217391,"SoundDuration":217391,"Delta":134540988},{"NoteNumber":31,"Velocity":69,"Duration":217391,"SoundDuration":217391,"Delta":134540988},{"NoteNumber":43,"Velocity":81,"Duration":217391,"SoundDuration":217391,"Delta":134540988},{"NoteNumber":93,"Velocity":112,"Duration":238095,"SoundDuration":238095,"Delta":135120698},{"NoteNumber":81,"Velocity":94,"Duration":238095,"SoundDuration":238095,"Delta":135120698},{"NoteNumber":33,"Velocity":69,"Duration":238095,"SoundDuration":238095,"Delta":135120698},{"NoteNumber":45,"Velocity":81,"Duration":238095,"SoundDuration":238095,"Delta":135120698},{"NoteNumber":82,"Velocity":99,"Duration":1111111,"SoundDuration":1111111,"Delta":135755619},{"NoteNumber":94,"Velocity":118,"Duration":1111111,"SoundDuration":1111111,"Delta":135755619},{"NoteNumber":34,"Velocity":72,"Duration":1111111,"SoundDuration":1111111,"Delta":135755619},{"NoteNumber":46,"Velocity":86,"Duration":1111111,"SoundDuration":1111111,"Delta":135755619},{"NoteNumber":46,"Velocity":50,"Duration":158730,"SoundDuration":158730,"Delta":136866731},{"NoteNumber":58,"Velocity":71,"Duration":476190,"SoundDuration":476190,"Delta":137025461},{"NoteNumber":58,"Velocity":58,"Duration":158730,"SoundDuration":158730,"Delta":137501652},{"NoteNumber":58,"Velocity":65,"Duration":317460,"SoundDuration":317460,"Delta":137660382},{"NoteNumber":58,"Velocity":57,"Duration":158730,"SoundDuration":158730,"Delta":139406415},{"NoteNumber":50,"Velocity":50,"Duration":158730,"SoundDuration":158730,"Delta":139406415},{"NoteNumber":70,"Velocity":81,"Duration":476190,"SoundDuration":476190,"Delta":139565145},{"NoteNumber":62,"Velocity":71,"Duration":476190,"SoundDuration":476190,"Delta":139565145},{"NoteNumber":70,"Velocity":71,"Duration":158730,"SoundDuration":158730,"Delta":140041336},{"NoteNumber":62,"Velocity":58,"Duration":158730,"SoundDuration":158730,"Delta":140041336},{"NoteNumber":70,"Velocity":78,"Duration":317460,"SoundDuration":317460,"Delta":140200066},{"NoteNumber":62,"Velocity":64,"Duration":317460,"SoundDuration":317460,"Delta":140200066},{"NoteNumber":34,"Velocity":96,"Duration":120482,"SoundDuration":120482,"Delta":141946099},{"NoteNumber":53,"Velocity":78,"Duration":342205,"SoundDuration":342205,"Delta":142066581},{"NoteNumber":62,"Velocity":93,"Duration":342205,"SoundDuration":342205,"Delta":142066581},{"NoteNumber":58,"Velocity":78,"Duration":342205,"SoundDuration":342205,"Delta":142066581},{"NoteNumber":77,"Velocity":88,"Duration":114068,"SoundDuration":114068,"Delta":142408786},{"NoteNumber":86,"Velocity":105,"Duration":114068,"SoundDuration":114068,"Delta":142408786},{"NoteNumber":82,"Velocity":88,"Duration":114068,"SoundDuration":114068,"Delta":142408786},{"NoteNumber":74,"Velocity":88,"Duration":114068,"SoundDuration":114068,"Delta":142408786},{"NoteNumber":58,"Velocity":69,"Duration":114068,"SoundDuration":114068,"Delta":142408786},{"NoteNumber":62,"Velocity":84,"Duration":114068,"SoundDuration":114068,"Delta":142408786},{"NoteNumber":53,"Velocity":69,"Duration":114068,"SoundDuration":114068,"Delta":142408786},{"NoteNumber":86,"Velocity":94,"Duration":171102,"SoundDuration":171102,"Delta":142522855},{"NoteNumber":74,"Velocity":79,"Duration":171102,"SoundDuration":171102,"Delta":142522855},{"NoteNumber":82,"Velocity":79,"Duration":171102,"SoundDuration":171102,"Delta":142522855},{"NoteNumber":77,"Velocity":79,"Duration":171102,"SoundDuration":171102,"Delta":142522855},{"NoteNumber":58,"Velocity":78,"Duration":171102,"SoundDuration":171102,"Delta":142522855},{"NoteNumber":53,"Velocity":78,"Duration":171102,"SoundDuration":171102,"Delta":142522855},{"NoteNumber":62,"Velocity":93,"Duration":171102,"SoundDuration":171102,"Delta":142522855},{"NoteNumber":74,"Velocity":80,"Duration":42775,"SoundDuration":42775,"Delta":142750992},{"NoteNumber":77,"Velocity":80,"Duration":42775,"SoundDuration":42775,"Delta":142750992},{"NoteNumber":87,"Velocity":100,"Duration":42775,"SoundDuration":42775,"Delta":142750992},{"NoteNumber":82,"Velocity":80,"Duration":42775,"SoundDuration":42775,"Delta":142750992},{"NoteNumber":58,"Velocity":75,"Duration":42775,"SoundDuration":42775,"Delta":142750992},{"NoteNumber":62,"Velocity":88,"Duration":42775,"SoundDuration":42775,"Delta":142750992},{"NoteNumber":53,"Velocity":75,"Duration":42775,"SoundDuration":42775,"Delta":142750992},{"NoteNumber":74,"Velocity":82,"Duration":53066,"SoundDuration":53066,"Delta":142865060},{"NoteNumber":77,"Velocity":82,"Duration":53066,"SoundDuration":53066,"Delta":142865060},{"NoteNumber":82,"Velocity":82,"Duration":53066,"SoundDuration":53066,"Delta":142865060},{"NoteNumber":86,"Velocity":97,"Duration":53066,"SoundDuration":53066,"Delta":142865060},{"NoteNumber":58,"Velocity":78,"Duration":53066,"SoundDuration":53066,"Delta":142865060},{"NoteNumber":53,"Velocity":78,"Duration":53066,"SoundDuration":53066,"Delta":142865060},{"NoteNumber":62,"Velocity":93,"Duration":53066,"SoundDuration":53066,"Delta":142865060},{"NoteNumber":77,"Velocity":88,"Duration":131004,"SoundDuration":131004,"Delta":143006570},{"NoteNumber":86,"Velocity":105,"Duration":131004,"SoundDuration":131004,"Delta":143006570},{"NoteNumber":82,"Velocity":88,"Duration":131004,"SoundDuration":131004,"Delta":143006570},{"NoteNumber":74,"Velocity":88,"Duration":131004,"SoundDuration":131004,"Delta":143006570},{"NoteNumber":62,"Velocity":93,"Duration":131004,"SoundDuration":131004,"Delta":143006570},{"NoteNumber":53,"Velocity":78,"Duration":131004,"SoundDuration":131004,"Delta":143006570},{"NoteNumber":58,"Velocity":78,"Duration":131004,"SoundDuration":131004,"Delta":143006570},{"NoteNumber":70,"Velocity":80,"Duration":131004,"SoundDuration":131004,"Delta":143268578},{"NoteNumber":82,"Velocity":96,"Duration":131004,"SoundDuration":131004,"Delta":143268578},{"NoteNumber":77,"Velocity":80,"Duration":131004,"SoundDuration":131004,"Delta":143268578},{"NoteNumber":74,"Velocity":80,"Duration":131004,"SoundDuration":131004,"Delta":143268578},{"NoteNumber":50,"Velocity":78,"Duration":131004,"SoundDuration":131004,"Delta":143268578},{"NoteNumber":58,"Velocity":93,"Duration":131004,"SoundDuration":131004,"Delta":143268578},{"NoteNumber":53,"Velocity":78,"Duration":131004,"SoundDuration":131004,"Delta":143268578},{"NoteNumber":34,"Velocity":96,"Duration":122448,"SoundDuration":122448,"Delta":143923599},{"NoteNumber":62,"Velocity":78,"Duration":348837,"SoundDuration":348837,"Delta":144046048},{"NoteNumber":58,"Velocity":78,"Duration":348837,"SoundDuration":348837,"Delta":144046048},{"NoteNumber":65,"Velocity":93,"Duration":348837,"SoundDuration":348837,"Delta":144046048},{"NoteNumber":53,"Velocity":78,"Duration":348837,"SoundDuration":348837,"Delta":144046048},{"NoteNumber":77,"Velocity":88,"Duration":116278,"SoundDuration":116278,"Delta":144394885},{"NoteNumber":82,"Velocity":88,"Duration":116278,"SoundDuration":116278,"Delta":144394885},{"NoteNumber":86,"Velocity":88,"Duration":116278,"SoundDuration":116278,"Delta":144394885},{"NoteNumber":89,"Velocity":105,"Duration":116278,"SoundDuration":116278,"Delta":144394885},{"NoteNumber":53,"Velocity":69,"Duration":116278,"SoundDuration":116278,"Delta":144394885},{"NoteNumber":65,"Velocity":84,"Duration":116278,"SoundDuration":116278,"Delta":144394885},{"NoteNumber":62,"Velocity":69,"Duration":116278,"SoundDuration":116278,"Delta":144394885},{"NoteNumber":58,"Velocity":69,"Duration":116278,"SoundDuration":116278,"Delta":144394885},{"NoteNumber":89,"Velocity":94,"Duration":174418,"SoundDuration":174418,"Delta":144511164},{"NoteNumber":86,"Velocity":79,"Duration":174418,"SoundDuration":174418,"Delta":144511164},{"NoteNumber":82,"Velocity":79,"Duration":174418,"SoundDuration":174418,"Delta":144511164},{"NoteNumber":77,"Velocity":79,"Duration":174418,"SoundDuration":174418,"Delta":144511164},{"NoteNumber":58,"Velocity":78,"Duration":174418,"SoundDuration":174418,"Delta":144511164},{"NoteNumber":65,"Velocity":93,"Duration":174418,"SoundDuration":174418,"Delta":144511164},{"NoteNumber":62,"Velocity":78,"Duration":174418,"SoundDuration":174418,"Delta":144511164},{"NoteNumber":53,"Velocity":78,"Duration":174418,"SoundDuration":174418,"Delta":144511164},{"NoteNumber":82,"Velocity":80,"Duration":43604,"SoundDuration":43604,"Delta":144743722},{"NoteNumber":91,"Velocity":100,"Duration":43604,"SoundDuration":43604,"Delta":144743722},{"NoteNumber":77,"Velocity":80,"Duration":43604,"SoundDuration":43604,"Delta":144743722},{"NoteNumber":86,"Velocity":80,"Duration":43604,"SoundDuration":43604,"Delta":144743722},{"NoteNumber":53,"Velocity":75,"Duration":43604,"SoundDuration":43604,"Delta":144743722},{"NoteNumber":58,"Velocity":75,"Duration":43604,"SoundDuration":43604,"Delta":144743722},{"NoteNumber":65,"Velocity":88,"Duration":43604,"SoundDuration":43604,"Delta":144743722},{"NoteNumber":62,"Velocity":75,"Duration":43604,"SoundDuration":43604,"Delta":144743722},{"NoteNumber":82,"Velocity":82,"Duration":54086,"SoundDuration":54086,"Delta":144860001},{"NoteNumber":86,"Velocity":82,"Duration":54086,"SoundDuration":54086,"Delta":144860001},{"NoteNumber":89,"Velocity":97,"Duration":54086,"SoundDuration":54086,"Delta":144860001},{"NoteNumber":77,"Velocity":82,"Duration":54086,"SoundDuration":54086,"Delta":144860001},{"NoteNumber":58,"Velocity":78,"Duration":54086,"SoundDuration":54086,"Delta":144860001},{"NoteNumber":65,"Velocity":93,"Duration":54086,"SoundDuration":54086,"Delta":144860001},{"NoteNumber":53,"Velocity":78,"Duration":54086,"SoundDuration":54086,"Delta":144860001},{"NoteNumber":62,"Velocity":78,"Duration":54086,"SoundDuration":54086,"Delta":144860001},{"NoteNumber":89,"Velocity":105,"Duration":132158,"SoundDuration":132158,"Delta":145004232},{"NoteNumber":77,"Velocity":88,"Duration":132158,"SoundDuration":132158,"Delta":145004232},{"NoteNumber":82,"Velocity":88,"Duration":132158,"SoundDuration":132158,"Delta":145004232},{"NoteNumber":86,"Velocity":88,"Duration":132158,"SoundDuration":132158,"Delta":145004232},{"NoteNumber":53,"Velocity":78,"Duration":132158,"SoundDuration":132158,"Delta":145004232},{"NoteNumber":62,"Velocity":78,"Duration":132158,"SoundDuration":132158,"Delta":145004232},{"NoteNumber":65,"Velocity":93,"Duration":132158,"SoundDuration":132158,"Delta":145004232},{"NoteNumber":58,"Velocity":78,"Duration":132158,"SoundDuration":132158,"Delta":145004232},{"NoteNumber":86,"Velocity":96,"Duration":132158,"SoundDuration":132158,"Delta":145268549},{"NoteNumber":82,"Velocity":80,"Duration":132158,"SoundDuration":132158,"Delta":145268549},{"NoteNumber":74,"Velocity":80,"Duration":132158,"SoundDuration":132158,"Delta":145268549},{"NoteNumber":77,"Velocity":80,"Duration":132158,"SoundDuration":132158,"Delta":145268549},{"NoteNumber":58,"Velocity":78,"Duration":132158,"SoundDuration":132158,"Delta":145268549},{"NoteNumber":62,"Velocity":93,"Duration":132158,"SoundDuration":132158,"Delta":145268549},{"NoteNumber":53,"Velocity":78,"Duration":132158,"SoundDuration":132158,"Delta":145268549},{"NoteNumber":70,"Velocity":50,"Duration":132158,"SoundDuration":132158,"Delta":145797183},{"NoteNumber":72,"Velocity":45,"Duration":132158,"SoundDuration":132158,"Delta":145929342},{"NoteNumber":74,"Velocity":50,"Duration":542759,"SoundDuration":542759,"Delta":146061500},{"NoteNumber":67,"Velocity":39,"Duration":259740,"SoundDuration":259740,"Delta":146344519},{"NoteNumber":64,"Velocity":29,"Duration":259740,"SoundDuration":259740,"Delta":146344519},{"NoteNumber":72,"Velocity":39,"Duration":259740,"SoundDuration":259740,"Delta":146604260},{"NoteNumber":69,"Velocity":33,"Duration":259740,"SoundDuration":259740,"Delta":146604260},{"NoteNumber":65,"Velocity":29,"Duration":259740,"SoundDuration":259740,"Delta":146604260},{"NoteNumber":72,"Velocity":50,"Duration":129870,"SoundDuration":129870,"Delta":146864000},{"NoteNumber":68,"Velocity":42,"Duration":259740,"SoundDuration":259740,"Delta":146864000},{"NoteNumber":59,"Velocity":40,"Duration":259740,"SoundDuration":259740,"Delta":146864000},{"NoteNumber":74,"Velocity":46,"Duration":129870,"SoundDuration":129870,"Delta":146993870},{"NoteNumber":67,"Velocity":46,"Duration":263158,"SoundDuration":263158,"Delta":147123741},{"NoteNumber":75,"Velocity":55,"Duration":544848,"SoundDuration":544848,"Delta":147123741},{"NoteNumber":60,"Velocity":40,"Duration":263158,"SoundDuration":263158,"Delta":147123741},{"NoteNumber":69,"Velocity":45,"Duration":281689,"SoundDuration":281689,"Delta":147386899},{"NoteNumber":54,"Velocity":36,"Duration":281689,"SoundDuration":281689,"Delta":147386899},{"NoteNumber":70,"Velocity":38,"Duration":265486,"SoundDuration":265486,"Delta":147668589},{"NoteNumber":74,"Velocity":45,"Duration":265486,"SoundDuration":265486,"Delta":147668589},{"NoteNumber":55,"Velocity":36,"Duration":265486,"SoundDuration":265486,"Delta":147668589},{"NoteNumber":67,"Velocity":39,"Duration":281689,"SoundDuration":281689,"Delta":147934075},{"NoteNumber":74,"Velocity":47,"Duration":140845,"SoundDuration":140845,"Delta":147934075},{"NoteNumber":51,"Velocity":40,"Duration":281689,"SoundDuration":281689,"Delta":147934075},{"NoteNumber":75,"Velocity":50,"Duration":140844,"SoundDuration":140844,"Delta":148074920},{"NoteNumber":77,"Velocity":54,"Duration":399435,"SoundDuration":399435,"Delta":148215765},{"NoteNumber":65,"Velocity":45,"Duration":267856,"SoundDuration":267856,"Delta":148215765},{"NoteNumber":50,"Velocity":40,"Duration":267856,"SoundDuration":267856,"Delta":148215765},{"NoteNumber":70,"Velocity":45,"Duration":263158,"SoundDuration":263158,"Delta":148483622},{"NoteNumber":49,"Velocity":35,"Duration":263158,"SoundDuration":263158,"Delta":148483622},{"NoteNumber":79,"Velocity":52,"Duration":131579,"SoundDuration":131579,"Delta":148615201},{"NoteNumber":67,"Velocity":42,"Duration":284640,"SoundDuration":284640,"Delta":148746780},{"NoteNumber":77,"Velocity":50,"Duration":131578,"SoundDuration":131578,"Delta":148746780},{"NoteNumber":48,"Velocity":35,"Duration":284640,"SoundDuration":284640,"Delta":148746780},{"NoteNumber":75,"Velocity":43,"Duration":295241,"SoundDuration":295241,"Delta":148878359},{"NoteNumber":69,"Velocity":43,"Duration":284359,"SoundDuration":284359,"Delta":149031420},{"NoteNumber":41,"Velocity":40,"Duration":284359,"SoundDuration":284359,"Delta":149031420},{"NoteNumber":77,"Velocity":45,"Duration":142179,"SoundDuration":142179,"Delta":149173600},{"NoteNumber":75,"Velocity":49,"Duration":155440,"SoundDuration":155440,"Delta":149315780},{"NoteNumber":65,"Velocity":35,"Duration":319375,"SoundDuration":319375,"Delta":149315780},{"NoteNumber":70,"Velocity":35,"Duration":319375,"SoundDuration":319375,"Delta":149315780},{"NoteNumber":46,"Velocity":38,"Duration":319375,"SoundDuration":319375,"Delta":149315780},{"NoteNumber":74,"Velocity":41,"Duration":163934,"SoundDuration":163934,"Delta":149471221},{"NoteNumber":72,"Velocity":30,"Duration":341150,"SoundDuration":341150,"Delta":149635155},{"NoteNumber":67,"Velocity":30,"Duration":341150,"SoundDuration":341150,"Delta":149635155},{"NoteNumber":77,"Velocity":43,"Duration":160427,"SoundDuration":160427,"Delta":149635155},{"NoteNumber":39,"Velocity":30,"Duration":341150,"SoundDuration":341150,"Delta":149635155},{"NoteNumber":75,"Velocity":37,"Duration":180723,"SoundDuration":180723,"Delta":149795583},{"NoteNumber":69,"Velocity":30,"Duration":361446,"SoundDuration":361446,"Delta":149976306},{"NoteNumber":72,"Velocity":35,"Duration":361446,"SoundDuration":361446,"Delta":149976306},{"NoteNumber":41,"Velocity":27,"Duration":361446,"SoundDuration":361446,"Delta":149976306},{"NoteNumber":82,"Velocity":50,"Duration":132158,"SoundDuration":132158,"Delta":150337752},{"NoteNumber":84,"Velocity":45,"Duration":132158,"SoundDuration":132158,"Delta":150469911},{"NoteNumber":86,"Velocity":50,"Duration":542759,"SoundDuration":542759,"Delta":150602069},{"NoteNumber":79,"Velocity":39,"Duration":259740,"SoundDuration":259740,"Delta":150885088},{"NoteNumber":76,"Velocity":29,"Duration":259740,"SoundDuration":259740,"Delta":150885088},{"NoteNumber":81,"Velocity":33,"Duration":259740,"SoundDuration":259740,"Delta":151144829},{"NoteNumber":84,"Velocity":39,"Duration":259740,"SoundDuration":259740,"Delta":151144829},{"NoteNumber":77,"Velocity":29,"Duration":259740,"SoundDuration":259740,"Delta":151144829},{"NoteNumber":80,"Velocity":42,"Duration":259740,"SoundDuration":259740,"Delta":151404569},{"NoteNumber":84,"Velocity":50,"Duration":129870,"SoundDuration":129870,"Delta":151404569},{"NoteNumber":71,"Velocity":40,"Duration":259740,"SoundDuration":259740,"Delta":151404569},{"NoteNumber":86,"Velocity":46,"Duration":129870,"SoundDuration":129870,"Delta":151534439},{"NoteNumber":79,"Velocity":46,"Duration":263158,"SoundDuration":263158,"Delta":151664310},{"NoteNumber":87,"Velocity":55,"Duration":544848,"SoundDuration":544848,"Delta":151664310},{"NoteNumber":72,"Velocity":40,"Duration":263158,"SoundDuration":263158,"Delta":151664310},{"NoteNumber":81,"Velocity":45,"Duration":281689,"SoundDuration":281689,"Delta":151927468},{"NoteNumber":66,"Velocity":36,"Duration":281689,"SoundDuration":281689,"Delta":151927468},{"NoteNumber":82,"Velocity":38,"Duration":265486,"SoundDuration":265486,"Delta":152209158},{"NoteNumber":86,"Velocity":45,"Duration":265486,"SoundDuration":265486,"Delta":152209158},{"NoteNumber":67,"Velocity":36,"Duration":265486,"SoundDuration":265486,"Delta":152209158},{"NoteNumber":86,"Velocity":51,"Duration":140845,"SoundDuration":140845,"Delta":152474644},{"NoteNumber":79,"Velocity":39,"Duration":281689,"SoundDuration":281689,"Delta":152474644},{"NoteNumber":63,"Velocity":40,"Duration":281689,"SoundDuration":281689,"Delta":152474644},{"NoteNumber":87,"Velocity":55,"Duration":140844,"SoundDuration":140844,"Delta":152615489},{"NoteNumber":77,"Velocity":45,"Duration":267856,"SoundDuration":267856,"Delta":152756334},{"NoteNumber":89,"Velocity":59,"Duration":399435,"SoundDuration":399435,"Delta":152756334},{"NoteNumber":62,"Velocity":40,"Duration":267856,"SoundDuration":267856,"Delta":152756334},{"NoteNumber":82,"Velocity":45,"Duration":263158,"SoundDuration":263158,"Delta":153024191},{"NoteNumber":61,"Velocity":35,"Duration":263158,"SoundDuration":263158,"Delta":153024191},{"NoteNumber":91,"Velocity":57,"Duration":131579,"SoundDuration":131579,"Delta":153155770},{"NoteNumber":79,"Velocity":42,"Duration":284640,"SoundDuration":284640,"Delta":153287349},{"NoteNumber":89,"Velocity":55,"Duration":131578,"SoundDuration":131578,"Delta":153287349},{"NoteNumber":60,"Velocity":35,"Duration":284640,"SoundDuration":284640,"Delta":153287349},{"NoteNumber":87,"Velocity":47,"Duration":295241,"SoundDuration":295241,"Delta":153418928},{"NoteNumber":81,"Velocity":43,"Duration":284359,"SoundDuration":284359,"Delta":153571989},{"NoteNumber":53,"Velocity":40,"Duration":284359,"SoundDuration":284359,"Delta":153571989},{"NoteNumber":89,"Velocity":50,"Duration":142179,"SoundDuration":142179,"Delta":153714169},{"NoteNumber":87,"Velocity":57,"Duration":131578,"SoundDuration":131578,"Delta":153856349},{"NoteNumber":77,"Velocity":44,"Duration":284640,"SoundDuration":284640,"Delta":153856349},{"NoteNumber":58,"Velocity":36,"Duration":284640,"SoundDuration":284640,"Delta":153856349},{"NoteNumber":86,"Velocity":49,"Duration":295241,"SoundDuration":295241,"Delta":153987928},{"NoteNumber":82,"Velocity":46,"Duration":559589,"SoundDuration":559589,"Delta":154140990},{"NoteNumber":54,"Velocity":43,"Duration":284359,"SoundDuration":284359,"Delta":154140990},{"NoteNumber":87,"Velocity":53,"Duration":142179,"SoundDuration":142179,"Delta":154283170},{"NoteNumber":86,"Velocity":60,"Duration":137614,"SoundDuration":137614,"Delta":154425350},{"NoteNumber":53,"Velocity":44,"Duration":275229,"SoundDuration":275229,"Delta":154425350},{"NoteNumber":84,"Velocity":49,"Duration":137614,"SoundDuration":137614,"Delta":154562964},{"NoteNumber":77,"Velocity":47,"Duration":275229,"SoundDuration":275229,"Delta":154700579},{"NoteNumber":86,"Velocity":55,"Duration":137614,"SoundDuration":137614,"Delta":154700579},{"NoteNumber":81,"Velocity":47,"Duration":275229,"SoundDuration":275229,"Delta":154700579},{"NoteNumber":51,"Velocity":45,"Duration":275229,"SoundDuration":275229,"Delta":154700579},{"NoteNumber":87,"Velocity":51,"Duration":137614,"SoundDuration":137614,"Delta":154838194},{"NoteNumber":91,"Velocity":67,"Duration":135746,"SoundDuration":135746,"Delta":154975809},{"NoteNumber":77,"Velocity":52,"Duration":271492,"SoundDuration":271492,"Delta":154975809},{"NoteNumber":82,"Velocity":52,"Duration":271492,"SoundDuration":271492,"Delta":154975809},{"NoteNumber":50,"Velocity":46,"Duration":271492,"SoundDuration":271492,"Delta":154975809},{"NoteNumber":89,"Velocity":53,"Duration":135746,"SoundDuration":135746,"Delta":155111555},{"NoteNumber":82,"Velocity":41,"Duration":279287,"SoundDuration":279287,"Delta":155247302},{"NoteNumber":91,"Velocity":58,"Duration":135746,"SoundDuration":135746,"Delta":155247302},{"NoteNumber":49,"Velocity":47,"Duration":279287,"SoundDuration":279287,"Delta":155247302},{"NoteNumber":89,"Velocity":59,"Duration":141148,"SoundDuration":141148,"Delta":155383048},{"NoteNumber":79,"Velocity":53,"Duration":269058,"SoundDuration":269058,"Delta":155526589},{"NoteNumber":89,"Velocity":69,"Duration":134529,"SoundDuration":134529,"Delta":155526589},{"NoteNumber":48,"Velocity":48,"Duration":269058,"SoundDuration":269058,"Delta":155526589},{"NoteNumber":87,"Velocity":55,"Duration":134529,"SoundDuration":134529,"Delta":155661118},{"NoteNumber":89,"Velocity":61,"Duration":134529,"SoundDuration":134529,"Delta":155795647},{"NoteNumber":81,"Velocity":43,"Duration":282312,"SoundDuration":282312,"Delta":155795647},{"NoteNumber":41,"Velocity":50,"Duration":282312,"SoundDuration":282312,"Delta":155795647},{"NoteNumber":87,"Velocity":56,"Duration":147783,"SoundDuration":147783,"Delta":155930177},{"NoteNumber":77,"Velocity":57,"Duration":269058,"SoundDuration":269058,"Delta":156077960},{"NoteNumber":87,"Velocity":74,"Duration":134529,"SoundDuration":134529,"Delta":156077960},{"NoteNumber":46,"Velocity":50,"Duration":269058,"SoundDuration":269058,"Delta":156077960},{"NoteNumber":86,"Velocity":57,"Duration":134529,"SoundDuration":134529,"Delta":156212489},{"NoteNumber":82,"Velocity":45,"Duration":551858,"SoundDuration":551858,"Delta":156347018},{"NoteNumber":87,"Velocity":63,"Duration":134529,"SoundDuration":134529,"Delta":156347018},{"NoteNumber":42,"Velocity":52,"Duration":281588,"SoundDuration":281588,"Delta":156347018},{"NoteNumber":86,"Velocity":58,"Duration":144607,"SoundDuration":144607,"Delta":156481548},{"NoteNumber":86,"Velocity":75,"Duration":135135,"SoundDuration":135135,"Delta":156628606},{"NoteNumber":41,"Velocity":53,"Duration":270270,"SoundDuration":270270,"Delta":156628606},{"NoteNumber":84,"Velocity":61,"Duration":135135,"SoundDuration":135135,"Delta":156763742},{"NoteNumber":86,"Velocity":67,"Duration":135135,"SoundDuration":135135,"Delta":156898877},{"NoteNumber":81,"Velocity":47,"Duration":285888,"SoundDuration":285888,"Delta":156898877},{"NoteNumber":77,"Velocity":47,"Duration":285888,"SoundDuration":285888,"Delta":156898877},{"NoteNumber":39,"Velocity":54,"Duration":285888,"SoundDuration":285888,"Delta":156898877},{"NoteNumber":87,"Velocity":70,"Duration":150753,"SoundDuration":150753,"Delta":157034012},{"NoteNumber":82,"Velocity":58,"Duration":271492,"SoundDuration":271492,"Delta":157184766},{"NoteNumber":91,"Velocity":69,"Duration":135746,"SoundDuration":135746,"Delta":157184766},{"NoteNumber":77,"Velocity":58,"Duration":271492,"SoundDuration":271492,"Delta":157184766},{"NoteNumber":38,"Velocity":55,"Duration":271492,"SoundDuration":271492,"Delta":157184766},{"NoteNumber":89,"Velocity":70,"Duration":135746,"SoundDuration":135746,"Delta":157320512},{"NoteNumber":82,"Velocity":60,"Duration":286500,"SoundDuration":286500,"Delta":157456259},{"NoteNumber":88,"Velocity":76,"Duration":286500,"SoundDuration":286500,"Delta":157456259},{"NoteNumber":37,"Velocity":56,"Duration":286500,"SoundDuration":286500,"Delta":157456259},{"NoteNumber":91,"Velocity":72,"Duration":289642,"SoundDuration":289642,"Delta":157592005},{"NoteNumber":87,"Velocity":67,"Duration":277778,"SoundDuration":277778,"Delta":157742759},{"NoteNumber":36,"Velocity":57,"Duration":277778,"SoundDuration":277778,"Delta":157742759},{"NoteNumber":92,"Velocity":74,"Duration":277777,"SoundDuration":277777,"Delta":157881648},{"NoteNumber":87,"Velocity":76,"Duration":287403,"SoundDuration":287403,"Delta":158020537},{"NoteNumber":84,"Velocity":64,"Duration":287403,"SoundDuration":287403,"Delta":158020537},{"NoteNumber":30,"Velocity":58,"Duration":287403,"SoundDuration":287403,"Delta":158020537},{"NoteNumber":93,"Velocity":77,"Duration":148514,"SoundDuration":148514,"Delta":158159426},{"NoteNumber":86,"Velocity":73,"Duration":281689,"SoundDuration":281689,"Delta":158307941},{"NoteNumber":82,"Velocity":73,"Duration":281689,"SoundDuration":281689,"Delta":158307941},{"NoteNumber":96,"Velocity":86,"Duration":140845,"SoundDuration":140845,"Delta":158307941},{"NoteNumber":31,"Velocity":67,"Duration":281689,"SoundDuration":281689,"Delta":158307941},{"NoteNumber":94,"Velocity":72,"Duration":140844,"SoundDuration":140844,"Delta":158448786},{"NoteNumber":93,"Velocity":84,"Duration":140845,"SoundDuration":140845,"Delta":158589631},{"NoteNumber":82,"Velocity":71,"Duration":290845,"SoundDuration":290845,"Delta":158589631},{"NoteNumber":87,"Velocity":71,"Duration":290845,"SoundDuration":290845,"Delta":158589631},{"NoteNumber":39,"Velocity":61,"Duration":290845,"SoundDuration":290845,"Delta":158589631},{"NoteNumber":91,"Velocity":74,"Duration":150000,"SoundDuration":150000,"Delta":158730476},{"NoteNumber":89,"Velocity":86,"Duration":150753,"SoundDuration":150753,"Delta":158880476},{"NoteNumber":86,"Velocity":72,"Duration":150753,"SoundDuration":150753,"Delta":158880476},{"NoteNumber":82,"Velocity":72,"Duration":150753,"SoundDuration":150753,"Delta":158880476},{"NoteNumber":41,"Velocity":70,"Duration":150753,"SoundDuration":150753,"Delta":158880476},{"NoteNumber":93,"Velocity":80,"Duration":150753,"SoundDuration":150753,"Delta":159181983},{"NoteNumber":84,"Velocity":67,"Duration":150753,"SoundDuration":150753,"Delta":159181983},{"NoteNumber":89,"Velocity":80,"Duration":150753,"SoundDuration":150753,"Delta":159181983},{"NoteNumber":81,"Velocity":67,"Duration":150753,"SoundDuration":150753,"Delta":159181983},{"NoteNumber":29,"Velocity":66,"Duration":150753,"SoundDuration":150753,"Delta":159181983},{"NoteNumber":41,"Velocity":66,"Duration":150753,"SoundDuration":150753,"Delta":159181983},{"NoteNumber":94,"Velocity":101,"Duration":542986,"SoundDuration":542986,"Delta":159483491},{"NoteNumber":86,"Velocity":85,"Duration":542986,"SoundDuration":542986,"Delta":159483491},{"NoteNumber":89,"Velocity":85,"Duration":542986,"SoundDuration":542986,"Delta":159483491},{"NoteNumber":82,"Velocity":85,"Duration":542986,"SoundDuration":542986,"Delta":159483491},{"NoteNumber":34,"Velocity":57,"Duration":135746,"SoundDuration":135746,"Delta":159483491},{"NoteNumber":46,"Velocity":68,"Duration":135746,"SoundDuration":135746,"Delta":159483491},{"NoteNumber":62,"Velocity":56,"Duration":135746,"SoundDuration":135746,"Delta":159619237},{"NoteNumber":53,"Velocity":47,"Duration":135746,"SoundDuration":135746,"Delta":159619237},{"NoteNumber":58,"Velocity":47,"Duration":135746,"SoundDuration":135746,"Delta":159619237},{"NoteNumber":53,"Velocity":47,"Duration":135746,"SoundDuration":135746,"Delta":159754984},{"NoteNumber":62,"Velocity":56,"Duration":135746,"SoundDuration":135746,"Delta":159754984},{"NoteNumber":58,"Velocity":47,"Duration":135746,"SoundDuration":135746,"Delta":159754984},{"NoteNumber":62,"Velocity":56,"Duration":135746,"SoundDuration":135746,"Delta":159890730},{"NoteNumber":53,"Velocity":47,"Duration":135746,"SoundDuration":135746,"Delta":159890730},{"NoteNumber":58,"Velocity":47,"Duration":135746,"SoundDuration":135746,"Delta":159890730},{"NoteNumber":74,"Velocity":63,"Duration":556493,"SoundDuration":556493,"Delta":160026477},{"NoteNumber":70,"Velocity":63,"Duration":556493,"SoundDuration":556493,"Delta":160026477},{"NoteNumber":82,"Velocity":75,"Duration":556493,"SoundDuration":556493,"Delta":160026477},{"NoteNumber":53,"Velocity":45,"Duration":135746,"SoundDuration":135746,"Delta":160162223},{"NoteNumber":58,"Velocity":45,"Duration":135746,"SoundDuration":135746,"Delta":160162223},{"NoteNumber":62,"Velocity":53,"Duration":135746,"SoundDuration":135746,"Delta":160162223},{"NoteNumber":58,"Velocity":45,"Duration":135746,"SoundDuration":135746,"Delta":160297970},{"NoteNumber":53,"Velocity":45,"Duration":135746,"SoundDuration":135746,"Delta":160297970},{"NoteNumber":62,"Velocity":54,"Duration":135746,"SoundDuration":135746,"Delta":160297970},{"NoteNumber":62,"Velocity":54,"Duration":149253,"SoundDuration":149253,"Delta":160433716},{"NoteNumber":53,"Velocity":45,"Duration":149253,"SoundDuration":149253,"Delta":160433716},{"NoteNumber":58,"Velocity":45,"Duration":149253,"SoundDuration":149253,"Delta":160433716},{"NoteNumber":74,"Velocity":50,"Duration":66371,"SoundDuration":66371,"Delta":160582970},{"NoteNumber":77,"Velocity":50,"Duration":66371,"SoundDuration":66371,"Delta":160582970},{"NoteNumber":86,"Velocity":59,"Duration":66371,"SoundDuration":66371,"Delta":160582970},{"NoteNumber":53,"Velocity":37,"Duration":66371,"SoundDuration":66371,"Delta":160715713},{"NoteNumber":62,"Velocity":44,"Duration":66371,"SoundDuration":66371,"Delta":160715713},{"NoteNumber":58,"Velocity":37,"Duration":66371,"SoundDuration":66371,"Delta":160715713},{"NoteNumber":82,"Velocity":61,"Duration":66371,"SoundDuration":66371,"Delta":160848457},{"NoteNumber":74,"Velocity":51,"Duration":66371,"SoundDuration":66371,"Delta":160848457},{"NoteNumber":70,"Velocity":51,"Duration":66371,"SoundDuration":66371,"Delta":160848457},{"NoteNumber":58,"Velocity":44,"Duration":66371,"SoundDuration":66371,"Delta":160981200},{"NoteNumber":50,"Velocity":37,"Duration":66371,"SoundDuration":66371,"Delta":160981200},{"NoteNumber":77,"Velocity":51,"Duration":66371,"SoundDuration":66371,"Delta":161113943},{"NoteNumber":74,"Velocity":51,"Duration":66371,"SoundDuration":66371,"Delta":161113943},{"NoteNumber":86,"Velocity":61,"Duration":66371,"SoundDuration":66371,"Delta":161113943},{"NoteNumber":62,"Velocity":44,"Duration":66371,"SoundDuration":66371,"Delta":161246686},{"NoteNumber":58,"Velocity":37,"Duration":66371,"SoundDuration":66371,"Delta":161246686},{"NoteNumber":53,"Velocity":37,"Duration":66371,"SoundDuration":66371,"Delta":161246686},{"NoteNumber":72,"Velocity":51,"Duration":66371,"SoundDuration":66371,"Delta":161379430},{"NoteNumber":84,"Velocity":61,"Duration":66371,"SoundDuration":66371,"Delta":161379430},{"NoteNumber":75,"Velocity":51,"Duration":66371,"SoundDuration":66371,"Delta":161379430},{"NoteNumber":58,"Velocity":37,"Duration":80645,"SoundDuration":80645,"Delta":161512173},{"NoteNumber":60,"Velocity":44,"Duration":80645,"SoundDuration":80645,"Delta":161512173},{"NoteNumber":51,"Velocity":37,"Duration":80645,"SoundDuration":80645,"Delta":161512173},{"NoteNumber":75,"Velocity":97,"Duration":542986,"SoundDuration":542986,"Delta":161673463},{"NoteNumber":79,"Velocity":97,"Duration":542986,"SoundDuration":542986,"Delta":161673463},{"NoteNumber":87,"Velocity":116,"Duration":542986,"SoundDuration":542986,"Delta":161673463},{"NoteNumber":34,"Velocity":65,"Duration":135746,"SoundDuration":135746,"Delta":161673463},{"NoteNumber":46,"Velocity":78,"Duration":135746,"SoundDuration":135746,"Delta":161673463},{"NoteNumber":55,"Velocity":54,"Duration":135746,"SoundDuration":135746,"Delta":161809210},{"NoteNumber":63,"Velocity":64,"Duration":135746,"SoundDuration":135746,"Delta":161809210},{"NoteNumber":58,"Velocity":54,"Duration":135746,"SoundDuration":135746,"Delta":161809210},{"NoteNumber":55,"Velocity":54,"Duration":135746,"SoundDuration":135746,"Delta":161944956},{"NoteNumber":58,"Velocity":54,"Duration":135746,"SoundDuration":135746,"Delta":161944956},{"NoteNumber":63,"Velocity":64,"Duration":135746,"SoundDuration":135746,"Delta":161944956},{"NoteNumber":58,"Velocity":54,"Duration":135746,"SoundDuration":135746,"Delta":162080703},{"NoteNumber":63,"Velocity":64,"Duration":135746,"SoundDuration":135746,"Delta":162080703},{"NoteNumber":55,"Velocity":54,"Duration":135746,"SoundDuration":135746,"Delta":162080703},{"NoteNumber":84,"Velocity":75,"Duration":556493,"SoundDuration":556493,"Delta":162216449},{"NoteNumber":75,"Velocity":63,"Duration":556493,"SoundDuration":556493,"Delta":162216449},{"NoteNumber":72,"Velocity":63,"Duration":556493,"SoundDuration":556493,"Delta":162216449},{"NoteNumber":60,"Velocity":53,"Duration":135746,"SoundDuration":135746,"Delta":162352196},{"NoteNumber":51,"Velocity":45,"Duration":135746,"SoundDuration":135746,"Delta":162352196},{"NoteNumber":58,"Velocity":45,"Duration":135746,"SoundDuration":135746,"Delta":162352196},{"NoteNumber":51,"Velocity":45,"Duration":135746,"SoundDuration":135746,"Delta":162487942},{"NoteNumber":58,"Velocity":45,"Duration":135746,"SoundDuration":135746,"Delta":162487942},{"NoteNumber":60,"Velocity":54,"Duration":135746,"SoundDuration":135746,"Delta":162487942},{"NoteNumber":60,"Velocity":54,"Duration":149253,"SoundDuration":149253,"Delta":162623689},{"NoteNumber":51,"Velocity":45,"Duration":149253,"SoundDuration":149253,"Delta":162623689},{"NoteNumber":58,"Velocity":45,"Duration":149253,"SoundDuration":149253,"Delta":162623689},{"NoteNumber":87,"Velocity":59,"Duration":66371,"SoundDuration":66371,"Delta":162772942},{"NoteNumber":75,"Velocity":50,"Duration":66371,"SoundDuration":66371,"Delta":162772942},{"NoteNumber":79,"Velocity":50,"Duration":66371,"SoundDuration":66371,"Delta":162772942},{"NoteNumber":55,"Velocity":37,"Duration":66371,"SoundDuration":66371,"Delta":162905686},{"NoteNumber":63,"Velocity":44,"Duration":66371,"SoundDuration":66371,"Delta":162905686},{"NoteNumber":58,"Velocity":37,"Duration":66371,"SoundDuration":66371,"Delta":162905686},{"NoteNumber":73,"Velocity":51,"Duration":66371,"SoundDuration":66371,"Delta":163038429},{"NoteNumber":76,"Velocity":51,"Duration":66371,"SoundDuration":66371,"Delta":163038429},{"NoteNumber":85,"Velocity":61,"Duration":66371,"SoundDuration":66371,"Delta":163038429},{"NoteNumber":58,"Velocity":37,"Duration":66371,"SoundDuration":66371,"Delta":163171172},{"NoteNumber":61,"Velocity":44,"Duration":66371,"SoundDuration":66371,"Delta":163171172},{"NoteNumber":52,"Velocity":37,"Duration":66371,"SoundDuration":66371,"Delta":163171172},{"NoteNumber":87,"Velocity":61,"Duration":65502,"SoundDuration":65502,"Delta":163303915},{"NoteNumber":75,"Velocity":51,"Duration":65502,"SoundDuration":65502,"Delta":163303915},{"NoteNumber":78,"Velocity":51,"Duration":65502,"SoundDuration":65502,"Delta":163303915},{"NoteNumber":58,"Velocity":37,"Duration":65502,"SoundDuration":65502,"Delta":163434920},{"NoteNumber":63,"Velocity":44,"Duration":65502,"SoundDuration":65502,"Delta":163434920},{"NoteNumber":54,"Velocity":37,"Duration":65502,"SoundDuration":65502,"Delta":163434920},{"NoteNumber":86,"Velocity":61,"Duration":65502,"SoundDuration":65502,"Delta":163565924},{"NoteNumber":77,"Velocity":51,"Duration":65502,"SoundDuration":65502,"Delta":163565924},{"NoteNumber":74,"Velocity":51,"Duration":65502,"SoundDuration":65502,"Delta":163565924},{"NoteNumber":58,"Velocity":37,"Duration":80213,"SoundDuration":80213,"Delta":163696928},{"NoteNumber":53,"Velocity":37,"Duration":80213,"SoundDuration":80213,"Delta":163696928},{"NoteNumber":62,"Velocity":44,"Duration":80213,"SoundDuration":80213,"Delta":163696928},{"NoteNumber":89,"Velocity":111,"Duration":542986,"SoundDuration":542986,"Delta":163857356},{"NoteNumber":80,"Velocity":93,"Duration":542986,"SoundDuration":542986,"Delta":163857356},{"NoteNumber":77,"Velocity":93,"Duration":542986,"SoundDuration":542986,"Delta":163857356},{"NoteNumber":34,"Velocity":62,"Duration":135746,"SoundDuration":135746,"Delta":163857356},{"NoteNumber":46,"Velocity":74,"Duration":135746,"SoundDuration":135746,"Delta":163857356},{"NoteNumber":58,"Velocity":51,"Duration":135746,"SoundDuration":135746,"Delta":163993102},{"NoteNumber":56,"Velocity":51,"Duration":135746,"SoundDuration":135746,"Delta":163993102},{"NoteNumber":65,"Velocity":61,"Duration":135746,"SoundDuration":135746,"Delta":163993102},{"NoteNumber":56,"Velocity":51,"Duration":135746,"SoundDuration":135746,"Delta":164128849},{"NoteNumber":58,"Velocity":51,"Duration":135746,"SoundDuration":135746,"Delta":164128849},{"NoteNumber":65,"Velocity":61,"Duration":135746,"SoundDuration":135746,"Delta":164128849},{"NoteNumber":65,"Velocity":61,"Duration":135746,"SoundDuration":135746,"Delta":164264595},{"NoteNumber":58,"Velocity":51,"Duration":135746,"SoundDuration":135746,"Delta":164264595},{"NoteNumber":56,"Velocity":51,"Duration":135746,"SoundDuration":135746,"Delta":164264595},{"NoteNumber":74,"Velocity":63,"Duration":556493,"SoundDuration":556493,"Delta":164400342},{"NoteNumber":86,"Velocity":75,"Duration":556493,"SoundDuration":556493,"Delta":164400342},{"NoteNumber":77,"Velocity":63,"Duration":556493,"SoundDuration":556493,"Delta":164400342},{"NoteNumber":58,"Velocity":45,"Duration":135746,"SoundDuration":135746,"Delta":164536088},{"NoteNumber":62,"Velocity":53,"Duration":135746,"SoundDuration":135746,"Delta":164536088},{"NoteNumber":53,"Velocity":45,"Duration":135746,"SoundDuration":135746,"Delta":164536088},{"NoteNumber":58,"Velocity":45,"Duration":135746,"SoundDuration":135746,"Delta":164671835},{"NoteNumber":62,"Velocity":54,"Duration":135746,"SoundDuration":135746,"Delta":164671835},{"NoteNumber":53,"Velocity":45,"Duration":135746,"SoundDuration":135746,"Delta":164671835},{"NoteNumber":53,"Velocity":45,"Duration":149253,"SoundDuration":149253,"Delta":164807581},{"NoteNumber":62,"Velocity":54,"Duration":149253,"SoundDuration":149253,"Delta":164807581},{"NoteNumber":58,"Velocity":45,"Duration":149253,"SoundDuration":149253,"Delta":164807581},{"NoteNumber":80,"Velocity":50,"Duration":66371,"SoundDuration":66371,"Delta":164956835},{"NoteNumber":77,"Velocity":50,"Duration":66371,"SoundDuration":66371,"Delta":164956835},{"NoteNumber":89,"Velocity":59,"Duration":66371,"SoundDuration":66371,"Delta":164956835},{"NoteNumber":58,"Velocity":37,"Duration":66371,"SoundDuration":66371,"Delta":165089578},{"NoteNumber":65,"Velocity":44,"Duration":66371,"SoundDuration":66371,"Delta":165089578},{"NoteNumber":56,"Velocity":37,"Duration":66371,"SoundDuration":66371,"Delta":165089578},{"NoteNumber":86,"Velocity":61,"Duration":66371,"SoundDuration":66371,"Delta":165222322},{"NoteNumber":74,"Velocity":51,"Duration":66371,"SoundDuration":66371,"Delta":165222322},{"NoteNumber":78,"Velocity":51,"Duration":66371,"SoundDuration":66371,"Delta":165222322},{"NoteNumber":62,"Velocity":44,"Duration":66371,"SoundDuration":66371,"Delta":165355065},{"NoteNumber":54,"Velocity":37,"Duration":66371,"SoundDuration":66371,"Delta":165355065},{"NoteNumber":58,"Velocity":37,"Duration":66371,"SoundDuration":66371,"Delta":165355065},{"NoteNumber":89,"Velocity":61,"Duration":65502,"SoundDuration":65502,"Delta":165487808},{"NoteNumber":80,"Velocity":51,"Duration":65502,"SoundDuration":65502,"Delta":165487808},{"NoteNumber":77,"Velocity":51,"Duration":65502,"SoundDuration":65502,"Delta":165487808},{"NoteNumber":56,"Velocity":37,"Duration":65502,"SoundDuration":65502,"Delta":165618812},{"NoteNumber":58,"Velocity":37,"Duration":65502,"SoundDuration":65502,"Delta":165618812},{"NoteNumber":65,"Velocity":44,"Duration":65502,"SoundDuration":65502,"Delta":165618812},{"NoteNumber":87,"Velocity":61,"Duration":65502,"SoundDuration":65502,"Delta":165749817},{"NoteNumber":75,"Velocity":51,"Duration":65502,"SoundDuration":65502,"Delta":165749817},{"NoteNumber":79,"Velocity":51,"Duration":65502,"SoundDuration":65502,"Delta":165749817},{"NoteNumber":63,"Velocity":44,"Duration":80213,"SoundDuration":80213,"Delta":165880821},{"NoteNumber":58,"Velocity":37,"Duration":80213,"SoundDuration":80213,"Delta":165880821},{"NoteNumber":55,"Velocity":37,"Duration":80213,"SoundDuration":80213,"Delta":165880821},{"NoteNumber":79,"Velocity":93,"Duration":542986,"SoundDuration":542986,"Delta":166041249},{"NoteNumber":82,"Velocity":93,"Duration":542986,"SoundDuration":542986,"Delta":166041249},{"NoteNumber":91,"Velocity":111,"Duration":542986,"SoundDuration":542986,"Delta":166041249},{"NoteNumber":46,"Velocity":74,"Duration":135746,"SoundDuration":135746,"Delta":166041249},{"NoteNumber":34,"Velocity":62,"Duration":135746,"SoundDuration":135746,"Delta":166041249},{"NoteNumber":67,"Velocity":61,"Duration":135746,"SoundDuration":135746,"Delta":166176995},{"NoteNumber":58,"Velocity":51,"Duration":135746,"SoundDuration":135746,"Delta":166176995},{"NoteNumber":63,"Velocity":51,"Duration":135746,"SoundDuration":135746,"Delta":166176995},{"NoteNumber":58,"Velocity":51,"Duration":135746,"SoundDuration":135746,"Delta":166312742},{"NoteNumber":67,"Velocity":61,"Duration":135746,"SoundDuration":135746,"Delta":166312742},{"NoteNumber":63,"Velocity":51,"Duration":135746,"SoundDuration":135746,"Delta":166312742},{"NoteNumber":67,"Velocity":61,"Duration":135746,"SoundDuration":135746,"Delta":166448488},{"NoteNumber":63,"Velocity":51,"Duration":135746,"SoundDuration":135746,"Delta":166448488},{"NoteNumber":58,"Velocity":51,"Duration":135746,"SoundDuration":135746,"Delta":166448488},{"NoteNumber":75,"Velocity":63,"Duration":556493,"SoundDuration":556493,"Delta":166584235},{"NoteNumber":79,"Velocity":63,"Duration":556493,"SoundDuration":556493,"Delta":166584235},{"NoteNumber":82,"Velocity":63,"Duration":556493,"SoundDuration":556493,"Delta":166584235},{"NoteNumber":87,"Velocity":75,"Duration":556493,"SoundDuration":556493,"Delta":166584235},{"NoteNumber":55,"Velocity":45,"Duration":135746,"SoundDuration":135746,"Delta":166719981},{"NoteNumber":58,"Velocity":45,"Duration":135746,"SoundDuration":135746,"Delta":166719981},{"NoteNumber":63,"Velocity":53,"Duration":135746,"SoundDuration":135746,"Delta":166719981},{"NoteNumber":55,"Velocity":45,"Duration":135746,"SoundDuration":135746,"Delta":166855728},{"NoteNumber":58,"Velocity":45,"Duration":135746,"SoundDuration":135746,"Delta":166855728},{"NoteNumber":63,"Velocity":54,"Duration":135746,"SoundDuration":135746,"Delta":166855728},{"NoteNumber":55,"Velocity":45,"Duration":149253,"SoundDuration":149253,"Delta":166991474},{"NoteNumber":63,"Velocity":54,"Duration":149253,"SoundDuration":149253,"Delta":166991474},{"NoteNumber":58,"Velocity":45,"Duration":149253,"SoundDuration":149253,"Delta":166991474},{"NoteNumber":82,"Velocity":50,"Duration":66371,"SoundDuration":66371,"Delta":167140728},{"NoteNumber":79,"Velocity":50,"Duration":66371,"SoundDuration":66371,"Delta":167140728},{"NoteNumber":91,"Velocity":59,"Duration":66371,"SoundDuration":66371,"Delta":167140728},{"NoteNumber":63,"Velocity":33,"Duration":66371,"SoundDuration":66371,"Delta":167273471},{"NoteNumber":67,"Velocity":39,"Duration":66371,"SoundDuration":66371,"Delta":167273471},{"NoteNumber":58,"Velocity":33,"Duration":66371,"SoundDuration":66371,"Delta":167273471},{"NoteNumber":82,"Velocity":51,"Duration":66371,"SoundDuration":66371,"Delta":167406214},{"NoteNumber":88,"Velocity":61,"Duration":66371,"SoundDuration":66371,"Delta":167406214},{"NoteNumber":76,"Velocity":51,"Duration":66371,"SoundDuration":66371,"Delta":167406214},{"NoteNumber":64,"Velocity":39,"Duration":66371,"SoundDuration":66371,"Delta":167538958},{"NoteNumber":61,"Velocity":33,"Duration":66371,"SoundDuration":66371,"Delta":167538958},{"NoteNumber":58,"Velocity":33,"Duration":66371,"SoundDuration":66371,"Delta":167538958},{"NoteNumber":78,"Velocity":56,"Duration":66371,"SoundDuration":66371,"Delta":167671701},{"NoteNumber":82,"Velocity":56,"Duration":66371,"SoundDuration":66371,"Delta":167671701},{"NoteNumber":90,"Velocity":67,"Duration":66371,"SoundDuration":66371,"Delta":167671701},{"NoteNumber":63,"Velocity":36,"Duration":66371,"SoundDuration":66371,"Delta":167804444},{"NoteNumber":66,"Velocity":44,"Duration":66371,"SoundDuration":66371,"Delta":167804444},{"NoteNumber":58,"Velocity":36,"Duration":66371,"SoundDuration":66371,"Delta":167804444},{"NoteNumber":82,"Velocity":58,"Duration":66371,"SoundDuration":66371,"Delta":167937187},{"NoteNumber":89,"Velocity":69,"Duration":66371,"SoundDuration":66371,"Delta":167937187},{"NoteNumber":77,"Velocity":58,"Duration":66371,"SoundDuration":66371,"Delta":167937187},{"NoteNumber":58,"Velocity":37,"Duration":71770,"SoundDuration":71770,"Delta":168069931},{"NoteNumber":65,"Velocity":45,"Duration":71770,"SoundDuration":71770,"Delta":168069931},{"NoteNumber":62,"Velocity":37,"Duration":71770,"SoundDuration":71770,"Delta":168069931},{"NoteNumber":80,"Velocity":59,"Duration":66079,"SoundDuration":66079,"Delta":168213471},{"NoteNumber":82,"Velocity":59,"Duration":66079,"SoundDuration":66079,"Delta":168213471},{"NoteNumber":92,"Velocity":69,"Duration":66079,"SoundDuration":66079,"Delta":168213471},{"NoteNumber":58,"Velocity":39,"Duration":66079,"SoundDuration":66079,"Delta":168345630},{"NoteNumber":68,"Velocity":46,"Duration":66079,"SoundDuration":66079,"Delta":168345630},{"NoteNumber":65,"Velocity":39,"Duration":66079,"SoundDuration":66079,"Delta":168345630},{"NoteNumber":78,"Velocity":62,"Duration":66079,"SoundDuration":66079,"Delta":168477788},{"NoteNumber":82,"Velocity":62,"Duration":66079,"SoundDuration":66079,"Delta":168477788},{"NoteNumber":90,"Velocity":74,"Duration":66079,"SoundDuration":66079,"Delta":168477788},{"NoteNumber":58,"Velocity":40,"Duration":66079,"SoundDuration":66079,"Delta":168609947},{"NoteNumber":62,"Velocity":40,"Duration":66079,"SoundDuration":66079,"Delta":168609947},{"NoteNumber":66,"Velocity":48,"Duration":66079,"SoundDuration":66079,"Delta":168609947},{"NoteNumber":80,"Velocity":64,"Duration":66079,"SoundDuration":66079,"Delta":168742105},{"NoteNumber":82,"Velocity":64,"Duration":66079,"SoundDuration":66079,"Delta":168742105},{"NoteNumber":92,"Velocity":76,"Duration":66079,"SoundDuration":66079,"Delta":168742105},{"NoteNumber":65,"Velocity":42,"Duration":66079,"SoundDuration":66079,"Delta":168874264},{"NoteNumber":58,"Velocity":42,"Duration":66079,"SoundDuration":66079,"Delta":168874264},{"NoteNumber":68,"Velocity":50,"Duration":66079,"SoundDuration":66079,"Delta":168874264},{"NoteNumber":91,"Velocity":79,"Duration":66079,"SoundDuration":66079,"Delta":169006422},{"NoteNumber":82,"Velocity":66,"Duration":66079,"SoundDuration":66079,"Delta":169006422},{"NoteNumber":79,"Velocity":66,"Duration":66079,"SoundDuration":66079,"Delta":169006422},{"NoteNumber":58,"Velocity":43,"Duration":70422,"SoundDuration":70422,"Delta":169138581},{"NoteNumber":63,"Velocity":43,"Duration":70422,"SoundDuration":70422,"Delta":169138581},{"NoteNumber":67,"Velocity":52,"Duration":70422,"SoundDuration":70422,"Delta":169138581},{"NoteNumber":91,"Velocity":67,"Duration":65502,"SoundDuration":65502,"Delta":169279426},{"NoteNumber":82,"Velocity":67,"Duration":65502,"SoundDuration":65502,"Delta":169279426},{"NoteNumber":94,"Velocity":79,"Duration":65502,"SoundDuration":65502,"Delta":169279426},{"NoteNumber":87,"Velocity":67,"Duration":65502,"SoundDuration":65502,"Delta":169279426},{"NoteNumber":67,"Velocity":53,"Duration":65502,"SoundDuration":65502,"Delta":169410430},{"NoteNumber":58,"Velocity":45,"Duration":65502,"SoundDuration":65502,"Delta":169410430},{"NoteNumber":63,"Velocity":45,"Duration":65502,"SoundDuration":65502,"Delta":169410430},{"NoteNumber":60,"Velocity":45,"Duration":65502,"SoundDuration":65502,"Delta":169410430},{"NoteNumber":92,"Velocity":84,"Duration":65502,"SoundDuration":65502,"Delta":169541434},{"NoteNumber":80,"Velocity":70,"Duration":65502,"SoundDuration":65502,"Delta":169541434},{"NoteNumber":63,"Velocity":45,"Duration":65502,"SoundDuration":65502,"Delta":169672439},{"NoteNumber":60,"Velocity":45,"Duration":65502,"SoundDuration":65502,"Delta":169672439},{"NoteNumber":68,"Velocity":54,"Duration":65502,"SoundDuration":65502,"Delta":169672439},{"NoteNumber":58,"Velocity":45,"Duration":65502,"SoundDuration":65502,"Delta":169672439},{"NoteNumber":82,"Velocity":72,"Duration":65502,"SoundDuration":65502,"Delta":169803443},{"NoteNumber":94,"Velocity":86,"Duration":65502,"SoundDuration":65502,"Delta":169803443},{"NoteNumber":58,"Velocity":47,"Duration":65502,"SoundDuration":65502,"Delta":169934447},{"NoteNumber":60,"Velocity":47,"Duration":65502,"SoundDuration":65502,"Delta":169934447},{"NoteNumber":63,"Velocity":47,"Duration":65502,"SoundDuration":65502,"Delta":169934447},{"NoteNumber":70,"Velocity":56,"Duration":65502,"SoundDuration":65502,"Delta":169934447},{"NoteNumber":93,"Velocity":89,"Duration":65502,"SoundDuration":65502,"Delta":170065451},{"NoteNumber":81,"Velocity":74,"Duration":65502,"SoundDuration":65502,"Delta":170065451},{"NoteNumber":60,"Velocity":48,"Duration":70422,"SoundDuration":70422,"Delta":170196456},{"NoteNumber":58,"Velocity":48,"Duration":70422,"SoundDuration":70422,"Delta":170196456},{"NoteNumber":69,"Velocity":58,"Duration":70422,"SoundDuration":70422,"Delta":170196456},{"NoteNumber":63,"Velocity":48,"Duration":70422,"SoundDuration":70422,"Delta":170196456},{"NoteNumber":84,"Velocity":84,"Duration":131004,"SoundDuration":131004,"Delta":170337301},{"NoteNumber":96,"Velocity":99,"Duration":131004,"SoundDuration":131004,"Delta":170337301},{"NoteNumber":60,"Velocity":56,"Duration":65502,"SoundDuration":65502,"Delta":170468305},{"NoteNumber":72,"Velocity":66,"Duration":65502,"SoundDuration":65502,"Delta":170468305},{"NoteNumber":94,"Velocity":88,"Duration":131004,"SoundDuration":131004,"Delta":170599309},{"NoteNumber":82,"Velocity":74,"Duration":131004,"SoundDuration":131004,"Delta":170599309},{"NoteNumber":58,"Velocity":56,"Duration":65502,"SoundDuration":65502,"Delta":170730313},{"NoteNumber":70,"Velocity":66,"Duration":65502,"SoundDuration":65502,"Delta":170730313},{"NoteNumber":91,"Velocity":97,"Duration":131004,"SoundDuration":131004,"Delta":170861318},{"NoteNumber":79,"Velocity":82,"Duration":131004,"SoundDuration":131004,"Delta":170861318},{"NoteNumber":67,"Velocity":66,"Duration":65502,"SoundDuration":65502,"Delta":170992322},{"NoteNumber":55,"Velocity":56,"Duration":65502,"SoundDuration":65502,"Delta":170992322},{"NoteNumber":77,"Velocity":76,"Duration":131004,"SoundDuration":131004,"Delta":171123326},{"NoteNumber":89,"Velocity":90,"Duration":131004,"SoundDuration":131004,"Delta":171123326},{"NoteNumber":53,"Velocity":56,"Duration":70422,"SoundDuration":70422,"Delta":171254330},{"NoteNumber":65,"Velocity":66,"Duration":70422,"SoundDuration":70422,"Delta":171254330},{"NoteNumber":75,"Velocity":85,"Duration":132158,"SoundDuration":132158,"Delta":171395175},{"NoteNumber":87,"Velocity":97,"Duration":132158,"SoundDuration":132158,"Delta":171395175},{"NoteNumber":63,"Velocity":59,"Duration":66079,"SoundDuration":66079,"Delta":171527334},{"NoteNumber":51,"Velocity":50,"Duration":66079,"SoundDuration":66079,"Delta":171527334},{"NoteNumber":86,"Velocity":82,"Duration":132158,"SoundDuration":132158,"Delta":171659492},{"NoteNumber":74,"Velocity":69,"Duration":132158,"SoundDuration":132158,"Delta":171659492},{"NoteNumber":62,"Velocity":59,"Duration":66079,"SoundDuration":66079,"Delta":171791651},{"NoteNumber":50,"Velocity":50,"Duration":66079,"SoundDuration":66079,"Delta":171791651},{"NoteNumber":72,"Velocity":73,"Duration":132158,"SoundDuration":132158,"Delta":171923809},{"NoteNumber":84,"Velocity":87,"Duration":132158,"SoundDuration":132158,"Delta":171923809},{"NoteNumber":60,"Velocity":59,"Duration":66079,"SoundDuration":66079,"Delta":172055968},{"NoteNumber":48,"Velocity":50,"Duration":66079,"SoundDuration":66079,"Delta":172055968},{"NoteNumber":82,"Velocity":81,"Duration":132158,"SoundDuration":132158,"Delta":172188126},{"NoteNumber":70,"Velocity":68,"Duration":132158,"SoundDuration":132158,"Delta":172188126},{"NoteNumber":46,"Velocity":50,"Duration":70422,"SoundDuration":70422,"Delta":172320285},{"NoteNumber":58,"Velocity":59,"Duration":70422,"SoundDuration":70422,"Delta":172320285},{"NoteNumber":79,"Velocity":89,"Duration":132743,"SoundDuration":132743,"Delta":172461130},{"NoteNumber":67,"Velocity":75,"Duration":132743,"SoundDuration":132743,"Delta":172461130},{"NoteNumber":43,"Velocity":50,"Duration":66371,"SoundDuration":66371,"Delta":172593873},{"NoteNumber":55,"Velocity":59,"Duration":66371,"SoundDuration":66371,"Delta":172593873},{"NoteNumber":77,"Velocity":79,"Duration":132743,"SoundDuration":132743,"Delta":172726616},{"NoteNumber":65,"Velocity":66,"Duration":132743,"SoundDuration":132743,"Delta":172726616},{"NoteNumber":53,"Velocity":59,"Duration":66371,"SoundDuration":66371,"Delta":172859360},{"NoteNumber":41,"Velocity":50,"Duration":66371,"SoundDuration":66371,"Delta":172859360},{"NoteNumber":63,"Velocity":69,"Duration":132743,"SoundDuration":132743,"Delta":172992103},{"NoteNumber":75,"Velocity":82,"Duration":132743,"SoundDuration":132743,"Delta":172992103},{"NoteNumber":51,"Velocity":56,"Duration":66371,"SoundDuration":66371,"Delta":173124846},{"NoteNumber":39,"Velocity":47,"Duration":66371,"SoundDuration":66371,"Delta":173124846},{"NoteNumber":62,"Velocity":64,"Duration":132743,"SoundDuration":132743,"Delta":173257589},{"NoteNumber":74,"Velocity":76,"Duration":132743,"SoundDuration":132743,"Delta":173257589},{"NoteNumber":38,"Velocity":47,"Duration":70422,"SoundDuration":70422,"Delta":173390333},{"NoteNumber":50,"Velocity":56,"Duration":70422,"SoundDuration":70422,"Delta":173390333},{"NoteNumber":60,"Velocity":67,"Duration":132743,"SoundDuration":132743,"Delta":173531178},{"NoteNumber":72,"Velocity":80,"Duration":132743,"SoundDuration":132743,"Delta":173531178},{"NoteNumber":36,"Velocity":45,"Duration":66371,"SoundDuration":66371,"Delta":173663921},{"NoteNumber":48,"Velocity":53,"Duration":66371,"SoundDuration":66371,"Delta":173663921},{"NoteNumber":70,"Velocity":71,"Duration":132743,"SoundDuration":132743,"Delta":173796664},{"NoteNumber":58,"Velocity":59,"Duration":132743,"SoundDuration":132743,"Delta":173796664},{"NoteNumber":46,"Velocity":53,"Duration":66371,"SoundDuration":66371,"Delta":173929407},{"NoteNumber":34,"Velocity":45,"Duration":66371,"SoundDuration":66371,"Delta":173929407},{"NoteNumber":67,"Velocity":78,"Duration":132743,"SoundDuration":132743,"Delta":174062151},{"NoteNumber":55,"Velocity":65,"Duration":132743,"SoundDuration":132743,"Delta":174062151},{"NoteNumber":31,"Velocity":45,"Duration":66371,"SoundDuration":66371,"Delta":174194894},{"NoteNumber":43,"Velocity":53,"Duration":66371,"SoundDuration":66371,"Delta":174194894},{"NoteNumber":65,"Velocity":72,"Duration":132743,"SoundDuration":132743,"Delta":174327637},{"NoteNumber":53,"Velocity":61,"Duration":132743,"SoundDuration":132743,"Delta":174327637},{"NoteNumber":41,"Velocity":53,"Duration":70422,"SoundDuration":70422,"Delta":174460380},{"NoteNumber":29,"Velocity":45,"Duration":70422,"SoundDuration":70422,"Delta":174460380},{"NoteNumber":69,"Velocity":77,"Duration":265486,"SoundDuration":265486,"Delta":174601225},{"NoteNumber":33,"Velocity":42,"Duration":132743,"SoundDuration":132743,"Delta":174733969},{"NoteNumber":65,"Velocity":67,"Duration":276284,"SoundDuration":276284,"Delta":174866712},{"NoteNumber":29,"Velocity":28,"Duration":143540,"SoundDuration":143540,"Delta":174999455},{"NoteNumber":72,"Velocity":73,"Duration":266666,"SoundDuration":266666,"Delta":175142996},{"NoteNumber":36,"Velocity":39,"Duration":133333,"SoundDuration":133333,"Delta":175276329},{"NoteNumber":65,"Velocity":67,"Duration":275513,"SoundDuration":275513,"Delta":175409662},{"NoteNumber":29,"Velocity":27,"Duration":142179,"SoundDuration":142179,"Delta":175542996},{"NoteNumber":77,"Velocity":71,"Duration":266666,"SoundDuration":266666,"Delta":175685176},{"NoteNumber":41,"Velocity":37,"Duration":133333,"SoundDuration":133333,"Delta":175818509},{"NoteNumber":65,"Velocity":59,"Duration":276190,"SoundDuration":276190,"Delta":175951842},{"NoteNumber":29,"Velocity":26,"Duration":142857,"SoundDuration":142857,"Delta":176085175},{"NoteNumber":81,"Velocity":68,"Duration":266666,"SoundDuration":266666,"Delta":176228033},{"NoteNumber":45,"Velocity":34,"Duration":133333,"SoundDuration":133333,"Delta":176361366},{"NoteNumber":65,"Velocity":56,"Duration":277563,"SoundDuration":277563,"Delta":176494699},{"NoteNumber":29,"Velocity":24,"Duration":144230,"SoundDuration":144230,"Delta":176628032},{"NoteNumber":84,"Velocity":62,"Duration":277778,"SoundDuration":277778,"Delta":176772263},{"NoteNumber":48,"Velocity":32,"Duration":138889,"SoundDuration":138889,"Delta":176911152},{"NoteNumber":65,"Velocity":49,"Duration":297619,"SoundDuration":297619,"Delta":177050041},{"NoteNumber":29,"Velocity":23,"Duration":158730,"SoundDuration":158730,"Delta":177188930},{"NoteNumber":89,"Velocity":54,"Duration":304568,"SoundDuration":304568,"Delta":177347660},{"NoteNumber":53,"Velocity":29,"Duration":152284,"SoundDuration":152284,"Delta":177499945},{"NoteNumber":65,"Velocity":45,"Duration":331925,"SoundDuration":331925,"Delta":177652229},{"NoteNumber":29,"Velocity":24,"Duration":179640,"SoundDuration":179640,"Delta":177804513},{"NoteNumber":89,"Velocity":52,"Duration":340909,"SoundDuration":340909,"Delta":177984154},{"NoteNumber":53,"Velocity":28,"Duration":170454,"SoundDuration":170454,"Delta":178154608},{"NoteNumber":65,"Velocity":41,"Duration":433401,"SoundDuration":433401,"Delta":178325063},{"NoteNumber":29,"Velocity":21,"Duration":245901,"SoundDuration":245901,"Delta":178512563},{"NoteNumber":89,"Velocity":48,"Duration":1111110,"SoundDuration":1111110,"Delta":178758465},{"NoteNumber":53,"Velocity":21,"Duration":555555,"SoundDuration":555555,"Delta":179314020},{"NoteNumber":34,"Velocity":84,"Duration":120482,"SoundDuration":120482,"Delta":179978271},{"NoteNumber":53,"Velocity":68,"Duration":342205,"SoundDuration":342205,"Delta":180098753},{"NoteNumber":58,"Velocity":68,"Duration":342205,"SoundDuration":342205,"Delta":180098753},{"NoteNumber":62,"Velocity":81,"Duration":342205,"SoundDuration":342205,"Delta":180098753},{"NoteNumber":82,"Velocity":77,"Duration":114068,"SoundDuration":114068,"Delta":180440959},{"NoteNumber":86,"Velocity":92,"Duration":114068,"SoundDuration":114068,"Delta":180440959},{"NoteNumber":77,"Velocity":77,"Duration":114068,"SoundDuration":114068,"Delta":180440959},{"NoteNumber":74,"Velocity":77,"Duration":114068,"SoundDuration":114068,"Delta":180440959},{"NoteNumber":53,"Velocity":61,"Duration":114068,"SoundDuration":114068,"Delta":180440959},{"NoteNumber":58,"Velocity":61,"Duration":114068,"SoundDuration":114068,"Delta":180440959},{"NoteNumber":62,"Velocity":73,"Duration":114068,"SoundDuration":114068,"Delta":180440959},{"NoteNumber":82,"Velocity":69,"Duration":228137,"SoundDuration":228137,"Delta":180555027},{"NoteNumber":77,"Velocity":69,"Duration":228137,"SoundDuration":228137,"Delta":180555027},{"NoteNumber":86,"Velocity":82,"Duration":228137,"SoundDuration":228137,"Delta":180555027},{"NoteNumber":74,"Velocity":69,"Duration":228137,"SoundDuration":228137,"Delta":180555027},{"NoteNumber":62,"Velocity":81,"Duration":228137,"SoundDuration":228137,"Delta":180555027},{"NoteNumber":58,"Velocity":68,"Duration":228137,"SoundDuration":228137,"Delta":180555027},{"NoteNumber":53,"Velocity":68,"Duration":228137,"SoundDuration":228137,"Delta":180555027},{"NoteNumber":82,"Velocity":70,"Duration":42775,"SoundDuration":42775,"Delta":180783164},{"NoteNumber":77,"Velocity":70,"Duration":42775,"SoundDuration":42775,"Delta":180783164},{"NoteNumber":87,"Velocity":89,"Duration":42775,"SoundDuration":42775,"Delta":180783164},{"NoteNumber":74,"Velocity":70,"Duration":42775,"SoundDuration":42775,"Delta":180783164},{"NoteNumber":62,"Velocity":77,"Duration":42775,"SoundDuration":42775,"Delta":180783164},{"NoteNumber":58,"Velocity":66,"Duration":42775,"SoundDuration":42775,"Delta":180783164},{"NoteNumber":53,"Velocity":66,"Duration":42775,"SoundDuration":42775,"Delta":180783164},{"NoteNumber":82,"Velocity":72,"Duration":53066,"SoundDuration":53066,"Delta":180897233},{"NoteNumber":74,"Velocity":72,"Duration":53066,"SoundDuration":53066,"Delta":180897233},{"NoteNumber":77,"Velocity":72,"Duration":53066,"SoundDuration":53066,"Delta":180897233},{"NoteNumber":86,"Velocity":85,"Duration":53066,"SoundDuration":53066,"Delta":180897233},{"NoteNumber":53,"Velocity":68,"Duration":53066,"SoundDuration":53066,"Delta":180897233},{"NoteNumber":62,"Velocity":81,"Duration":53066,"SoundDuration":53066,"Delta":180897233},{"NoteNumber":58,"Velocity":68,"Duration":53066,"SoundDuration":53066,"Delta":180897233},{"NoteNumber":82,"Velocity":77,"Duration":131004,"SoundDuration":131004,"Delta":181038742},{"NoteNumber":74,"Velocity":77,"Duration":131004,"SoundDuration":131004,"Delta":181038742},{"NoteNumber":77,"Velocity":77,"Duration":131004,"SoundDuration":131004,"Delta":181038742},{"NoteNumber":86,"Velocity":92,"Duration":131004,"SoundDuration":131004,"Delta":181038742},{"NoteNumber":58,"Velocity":68,"Duration":131004,"SoundDuration":131004,"Delta":181038742},{"NoteNumber":62,"Velocity":81,"Duration":131004,"SoundDuration":131004,"Delta":181038742},{"NoteNumber":53,"Velocity":68,"Duration":131004,"SoundDuration":131004,"Delta":181038742},{"NoteNumber":82,"Velocity":84,"Duration":131004,"SoundDuration":131004,"Delta":181300751},{"NoteNumber":74,"Velocity":70,"Duration":131004,"SoundDuration":131004,"Delta":181300751},{"NoteNumber":77,"Velocity":70,"Duration":131004,"SoundDuration":131004,"Delta":181300751},{"NoteNumber":70,"Velocity":70,"Duration":131004,"SoundDuration":131004,"Delta":181300751},{"NoteNumber":50,"Velocity":68,"Duration":131004,"SoundDuration":131004,"Delta":181300751},{"NoteNumber":53,"Velocity":68,"Duration":131004,"SoundDuration":131004,"Delta":181300751},{"NoteNumber":58,"Velocity":81,"Duration":131004,"SoundDuration":131004,"Delta":181300751},{"NoteNumber":34,"Velocity":84,"Duration":122448,"SoundDuration":122448,"Delta":181955772},{"NoteNumber":53,"Velocity":68,"Duration":348837,"SoundDuration":348837,"Delta":182078221},{"NoteNumber":50,"Velocity":68,"Duration":348837,"SoundDuration":348837,"Delta":182078221},{"NoteNumber":58,"Velocity":68,"Duration":348837,"SoundDuration":348837,"Delta":182078221},{"NoteNumber":62,"Velocity":81,"Duration":348837,"SoundDuration":348837,"Delta":182078221},{"NoteNumber":77,"Velocity":77,"Duration":116278,"SoundDuration":116278,"Delta":182427058},{"NoteNumber":86,"Velocity":92,"Duration":116278,"SoundDuration":116278,"Delta":182427058},{"NoteNumber":82,"Velocity":77,"Duration":116278,"SoundDuration":116278,"Delta":182427058},{"NoteNumber":53,"Velocity":61,"Duration":116278,"SoundDuration":116278,"Delta":182427058},{"NoteNumber":62,"Velocity":73,"Duration":116278,"SoundDuration":116278,"Delta":182427058},{"NoteNumber":50,"Velocity":61,"Duration":116278,"SoundDuration":116278,"Delta":182427058},{"NoteNumber":58,"Velocity":61,"Duration":116278,"SoundDuration":116278,"Delta":182427058},{"NoteNumber":74,"Velocity":77,"Duration":116278,"SoundDuration":116278,"Delta":182433841},{"NoteNumber":86,"Velocity":99,"Duration":232558,"SoundDuration":232558,"Delta":182543337},{"NoteNumber":74,"Velocity":82,"Duration":232558,"SoundDuration":232558,"Delta":182543337},{"NoteNumber":50,"Velocity":81,"Duration":232558,"SoundDuration":232558,"Delta":182543337},{"NoteNumber":62,"Velocity":97,"Duration":232558,"SoundDuration":232558,"Delta":182543337},{"NoteNumber":81,"Velocity":70,"Duration":43604,"SoundDuration":43604,"Delta":182775895},{"NoteNumber":74,"Velocity":70,"Duration":43604,"SoundDuration":43604,"Delta":182775895},{"NoteNumber":78,"Velocity":70,"Duration":43604,"SoundDuration":43604,"Delta":182775895},{"NoteNumber":86,"Velocity":84,"Duration":43604,"SoundDuration":43604,"Delta":182775895},{"NoteNumber":50,"Velocity":66,"Duration":43604,"SoundDuration":43604,"Delta":182775895},{"NoteNumber":62,"Velocity":77,"Duration":43604,"SoundDuration":43604,"Delta":182775895},{"NoteNumber":54,"Velocity":66,"Duration":43604,"SoundDuration":43604,"Delta":182775895},{"NoteNumber":57,"Velocity":66,"Duration":43604,"SoundDuration":43604,"Delta":182775895},{"NoteNumber":86,"Velocity":85,"Duration":54086,"SoundDuration":54086,"Delta":182892174},{"NoteNumber":78,"Velocity":70,"Duration":54086,"SoundDuration":54086,"Delta":182892174},{"NoteNumber":74,"Velocity":72,"Duration":54086,"SoundDuration":54086,"Delta":182892174},{"NoteNumber":81,"Velocity":72,"Duration":54086,"SoundDuration":54086,"Delta":182892174},{"NoteNumber":50,"Velocity":68,"Duration":54086,"SoundDuration":54086,"Delta":182892174},{"NoteNumber":57,"Velocity":68,"Duration":54086,"SoundDuration":54086,"Delta":182892174},{"NoteNumber":54,"Velocity":68,"Duration":54086,"SoundDuration":54086,"Delta":182892174},{"NoteNumber":62,"Velocity":81,"Duration":54086,"SoundDuration":54086,"Delta":182892174},{"NoteNumber":81,"Velocity":77,"Duration":132158,"SoundDuration":132158,"Delta":183036405},{"NoteNumber":86,"Velocity":92,"Duration":132158,"SoundDuration":132158,"Delta":183036405},{"NoteNumber":74,"Velocity":77,"Duration":132158,"SoundDuration":132158,"Delta":183036405},{"NoteNumber":78,"Velocity":77,"Duration":132158,"SoundDuration":132158,"Delta":183036405},{"NoteNumber":54,"Velocity":68,"Duration":132158,"SoundDuration":132158,"Delta":183036405},{"NoteNumber":57,"Velocity":68,"Duration":132158,"SoundDuration":132158,"Delta":183036405},{"NoteNumber":50,"Velocity":68,"Duration":132158,"SoundDuration":132158,"Delta":183036405},{"NoteNumber":62,"Velocity":81,"Duration":132158,"SoundDuration":132158,"Delta":183036405},{"NoteNumber":86,"Velocity":84,"Duration":132158,"SoundDuration":132158,"Delta":183300722},{"NoteNumber":81,"Velocity":70,"Duration":132158,"SoundDuration":132158,"Delta":183300722},{"NoteNumber":74,"Velocity":70,"Duration":132158,"SoundDuration":132158,"Delta":183300722},{"NoteNumber":78,"Velocity":70,"Duration":132158,"SoundDuration":132158,"Delta":183300722},{"NoteNumber":50,"Velocity":68,"Duration":132158,"SoundDuration":132158,"Delta":183300722},{"NoteNumber":62,"Velocity":81,"Duration":132158,"SoundDuration":132158,"Delta":183300722},{"NoteNumber":54,"Velocity":68,"Duration":132158,"SoundDuration":132158,"Delta":183300722},{"NoteNumber":57,"Velocity":68,"Duration":132158,"SoundDuration":132158,"Delta":183300722},{"NoteNumber":50,"Velocity":39,"Duration":132158,"SoundDuration":132158,"Delta":183961514},{"NoteNumber":62,"Velocity":45,"Duration":385501,"SoundDuration":385501,"Delta":184093673},{"NoteNumber":66,"Velocity":33,"Duration":125522,"SoundDuration":125522,"Delta":184353652},{"NoteNumber":74,"Velocity":39,"Duration":125522,"SoundDuration":125522,"Delta":184353652},{"NoteNumber":69,"Velocity":33,"Duration":125522,"SoundDuration":125522,"Delta":184353652},{"NoteNumber":50,"Velocity":40,"Duration":131578,"SoundDuration":131578,"Delta":184479175},{"NoteNumber":62,"Velocity":47,"Duration":384211,"SoundDuration":384211,"Delta":184610754},{"NoteNumber":66,"Velocity":35,"Duration":126582,"SoundDuration":126582,"Delta":184868383},{"NoteNumber":69,"Velocity":35,"Duration":126582,"SoundDuration":126582,"Delta":184868383},{"NoteNumber":74,"Velocity":42,"Duration":126582,"SoundDuration":126582,"Delta":184868383},{"NoteNumber":50,"Velocity":42,"Duration":131578,"SoundDuration":131578,"Delta":184994966},{"NoteNumber":62,"Velocity":49,"Duration":383105,"SoundDuration":383105,"Delta":185126545},{"NoteNumber":69,"Velocity":37,"Duration":126050,"SoundDuration":126050,"Delta":185383599},{"NoteNumber":66,"Velocity":37,"Duration":126050,"SoundDuration":126050,"Delta":185383599},{"NoteNumber":74,"Velocity":44,"Duration":126050,"SoundDuration":126050,"Delta":185383599},{"NoteNumber":50,"Velocity":41,"Duration":132743,"SoundDuration":132743,"Delta":185509650},{"NoteNumber":62,"Velocity":52,"Duration":385868,"SoundDuration":385868,"Delta":185642393},{"NoteNumber":66,"Velocity":39,"Duration":126050,"SoundDuration":126050,"Delta":185902211},{"NoteNumber":69,"Velocity":39,"Duration":126050,"SoundDuration":126050,"Delta":185902211},{"NoteNumber":74,"Velocity":46,"Duration":126050,"SoundDuration":126050,"Delta":185902211},{"NoteNumber":50,"Velocity":44,"Duration":132158,"SoundDuration":132158,"Delta":186028262},{"NoteNumber":60,"Velocity":55,"Duration":388111,"SoundDuration":388111,"Delta":186160420},{"NoteNumber":57,"Velocity":55,"Duration":388111,"SoundDuration":388111,"Delta":186160420},{"NoteNumber":74,"Velocity":41,"Duration":127659,"SoundDuration":127659,"Delta":186420872},{"NoteNumber":72,"Velocity":41,"Duration":127659,"SoundDuration":127659,"Delta":186420872},{"NoteNumber":78,"Velocity":49,"Duration":127659,"SoundDuration":127659,"Delta":186420872},{"NoteNumber":69,"Velocity":41,"Duration":127659,"SoundDuration":127659,"Delta":186420872},{"NoteNumber":50,"Velocity":46,"Duration":134529,"SoundDuration":134529,"Delta":186548532},{"NoteNumber":60,"Velocity":58,"Duration":393879,"SoundDuration":393879,"Delta":186683061},{"NoteNumber":57,"Velocity":58,"Duration":393879,"SoundDuration":393879,"Delta":186683061},{"NoteNumber":69,"Velocity":43,"Duration":129310,"SoundDuration":129310,"Delta":186947630},{"NoteNumber":78,"Velocity":51,"Duration":129310,"SoundDuration":129310,"Delta":186947630},{"NoteNumber":72,"Velocity":43,"Duration":129310,"SoundDuration":129310,"Delta":186947630},{"NoteNumber":74,"Velocity":43,"Duration":129310,"SoundDuration":129310,"Delta":186947630},{"NoteNumber":50,"Velocity":50,"Duration":138248,"SoundDuration":138248,"Delta":187076940},{"NoteNumber":57,"Velocity":60,"Duration":393822,"SoundDuration":393822,"Delta":187215189},{"NoteNumber":54,"Velocity":60,"Duration":393822,"SoundDuration":393822,"Delta":187215189},{"NoteNumber":69,"Velocity":50,"Duration":129870,"SoundDuration":129870,"Delta":187479141},{"NoteNumber":72,"Velocity":50,"Duration":129870,"SoundDuration":129870,"Delta":187479141},{"NoteNumber":81,"Velocity":60,"Duration":129870,"SoundDuration":129870,"Delta":187479141},{"NoteNumber":78,"Velocity":50,"Duration":129870,"SoundDuration":129870,"Delta":187479141},{"NoteNumber":50,"Velocity":52,"Duration":136986,"SoundDuration":136986,"Delta":187609011},{"NoteNumber":45,"Velocity":63,"Duration":400404,"SoundDuration":400404,"Delta":187745997},{"NoteNumber":78,"Velocity":57,"Duration":130434,"SoundDuration":130434,"Delta":188015967},{"NoteNumber":84,"Velocity":68,"Duration":130434,"SoundDuration":130434,"Delta":188015967},{"NoteNumber":72,"Velocity":57,"Duration":130434,"SoundDuration":130434,"Delta":188015967},{"NoteNumber":81,"Velocity":57,"Duration":130434,"SoundDuration":130434,"Delta":188015967},{"NoteNumber":50,"Velocity":52,"Duration":140186,"SoundDuration":140186,"Delta":188146402},{"NoteNumber":45,"Velocity":65,"Duration":404002,"SoundDuration":404002,"Delta":188286589},{"NoteNumber":84,"Velocity":64,"Duration":131578,"SoundDuration":131578,"Delta":188559013},{"NoteNumber":78,"Velocity":64,"Duration":131578,"SoundDuration":131578,"Delta":188559013},{"NoteNumber":90,"Velocity":75,"Duration":131578,"SoundDuration":131578,"Delta":188559013},{"NoteNumber":81,"Velocity":64,"Duration":131578,"SoundDuration":131578,"Delta":188559013},{"NoteNumber":50,"Velocity":57,"Duration":140186,"SoundDuration":140186,"Delta":188690592},{"NoteNumber":43,"Velocity":68,"Duration":409244,"SoundDuration":409244,"Delta":188830779},{"NoteNumber":84,"Velocity":66,"Duration":132158,"SoundDuration":132158,"Delta":189107865},{"NoteNumber":81,"Velocity":66,"Duration":132158,"SoundDuration":132158,"Delta":189107865},{"NoteNumber":93,"Velocity":79,"Duration":132158,"SoundDuration":132158,"Delta":189107865},{"NoteNumber":50,"Velocity":57,"Duration":141509,"SoundDuration":141509,"Delta":189240023},{"NoteNumber":42,"Velocity":71,"Duration":417840,"SoundDuration":417840,"Delta":189381533},{"NoteNumber":93,"Velocity":69,"Duration":136363,"SoundDuration":136363,"Delta":189663009},{"NoteNumber":84,"Velocity":69,"Duration":136363,"SoundDuration":136363,"Delta":189663009},{"NoteNumber":96,"Velocity":82,"Duration":136363,"SoundDuration":136363,"Delta":189663009},{"NoteNumber":50,"Velocity":59,"Duration":142857,"SoundDuration":142857,"Delta":189799373},{"NoteNumber":39,"Velocity":73,"Duration":422293,"SoundDuration":422293,"Delta":189942230},{"NoteNumber":84,"Velocity":71,"Duration":138248,"SoundDuration":138248,"Delta":190226275},{"NoteNumber":96,"Velocity":85,"Duration":138248,"SoundDuration":138248,"Delta":190226275},{"NoteNumber":90,"Velocity":71,"Duration":138248,"SoundDuration":138248,"Delta":190226275},{"NoteNumber":93,"Velocity":71,"Duration":138248,"SoundDuration":138248,"Delta":190226275},{"NoteNumber":50,"Velocity":67,"Duration":138248,"SoundDuration":138248,"Delta":190364524},{"NoteNumber":93,"Velocity":71,"Duration":138248,"SoundDuration":138248,"Delta":190502773},{"NoteNumber":96,"Velocity":85,"Duration":138248,"SoundDuration":138248,"Delta":190502773},{"NoteNumber":84,"Velocity":71,"Duration":138248,"SoundDuration":138248,"Delta":190502773},{"NoteNumber":90,"Velocity":71,"Duration":138248,"SoundDuration":138248,"Delta":190502773},{"NoteNumber":50,"Velocity":73,"Duration":276497,"SoundDuration":276497,"Delta":190502773},{"NoteNumber":38,"Velocity":67,"Duration":276497,"SoundDuration":276497,"Delta":190502773},{"NoteNumber":84,"Velocity":57,"Duration":131004,"SoundDuration":131004,"Delta":190779270},{"NoteNumber":81,"Velocity":57,"Duration":131004,"SoundDuration":131004,"Delta":190779270},{"NoteNumber":75,"Velocity":48,"Duration":131004,"SoundDuration":131004,"Delta":190779270},{"NoteNumber":80,"Velocity":57,"Duration":138889,"SoundDuration":138889,"Delta":190910275},{"NoteNumber":83,"Velocity":57,"Duration":138889,"SoundDuration":138889,"Delta":190910275},{"NoteNumber":74,"Velocity":48,"Duration":138889,"SoundDuration":138889,"Delta":190910275},{"NoteNumber":81,"Velocity":63,"Duration":269058,"SoundDuration":269058,"Delta":191049164},{"NoteNumber":84,"Velocity":63,"Duration":269058,"SoundDuration":269058,"Delta":191049164},{"NoteNumber":75,"Velocity":54,"Duration":269058,"SoundDuration":269058,"Delta":191049164},{"NoteNumber":66,"Velocity":52,"Duration":131004,"SoundDuration":131004,"Delta":191318222},{"NoteNumber":69,"Velocity":52,"Duration":131004,"SoundDuration":131004,"Delta":191318222},{"NoteNumber":74,"Velocity":44,"Duration":131004,"SoundDuration":131004,"Delta":191318222},{"NoteNumber":70,"Velocity":52,"Duration":142179,"SoundDuration":142179,"Delta":191449226},{"NoteNumber":67,"Velocity":52,"Duration":142179,"SoundDuration":142179,"Delta":191449226},{"NoteNumber":73,"Velocity":44,"Duration":142179,"SoundDuration":142179,"Delta":191449226},{"NoteNumber":69,"Velocity":58,"Duration":270270,"SoundDuration":270270,"Delta":191591406},{"NoteNumber":66,"Velocity":58,"Duration":270270,"SoundDuration":270270,"Delta":191591406},{"NoteNumber":74,"Velocity":44,"Duration":270270,"SoundDuration":270270,"Delta":191591406},{"NoteNumber":84,"Velocity":47,"Duration":132743,"SoundDuration":132743,"Delta":191861677},{"NoteNumber":81,"Velocity":47,"Duration":132743,"SoundDuration":132743,"Delta":191861677},{"NoteNumber":63,"Velocity":43,"Duration":132743,"SoundDuration":132743,"Delta":191861677},{"NoteNumber":80,"Velocity":47,"Duration":142857,"SoundDuration":142857,"Delta":191994420},{"NoteNumber":83,"Velocity":47,"Duration":142857,"SoundDuration":142857,"Delta":191994420},{"NoteNumber":62,"Velocity":43,"Duration":142857,"SoundDuration":142857,"Delta":191994420},{"NoteNumber":81,"Velocity":56,"Duration":277778,"SoundDuration":277778,"Delta":192137277},{"NoteNumber":84,"Velocity":56,"Duration":277778,"SoundDuration":277778,"Delta":192137277},{"NoteNumber":63,"Velocity":51,"Duration":277778,"SoundDuration":277778,"Delta":192137277},{"NoteNumber":90,"Velocity":47,"Duration":136363,"SoundDuration":136363,"Delta":192415055},{"NoteNumber":62,"Velocity":43,"Duration":136363,"SoundDuration":136363,"Delta":192415055},{"NoteNumber":93,"Velocity":47,"Duration":136363,"SoundDuration":136363,"Delta":192551419},{"NoteNumber":61,"Velocity":43,"Duration":136363,"SoundDuration":136363,"Delta":192551419},{"NoteNumber":96,"Velocity":57,"Duration":132743,"SoundDuration":132743,"Delta":192687783},{"NoteNumber":62,"Velocity":51,"Duration":265486,"SoundDuration":265486,"Delta":192687783},{"NoteNumber":98,"Velocity":48,"Duration":132743,"SoundDuration":132743,"Delta":192820526},{"NoteNumber":96,"Velocity":49,"Duration":132743,"SoundDuration":132743,"Delta":192953269},{"NoteNumber":95,"Velocity":50,"Duration":138889,"SoundDuration":138889,"Delta":193086013},{"NoteNumber":50,"Velocity":42,"Duration":138889,"SoundDuration":138889,"Delta":193086013},{"NoteNumber":96,"Velocity":65,"Duration":133928,"SoundDuration":133928,"Delta":193224902},{"NoteNumber":54,"Velocity":51,"Duration":267856,"SoundDuration":267856,"Delta":193224902},{"NoteNumber":98,"Velocity":57,"Duration":133928,"SoundDuration":133928,"Delta":193358830},{"NoteNumber":100,"Velocity":66,"Duration":133928,"SoundDuration":133928,"Delta":193492759},{"NoteNumber":96,"Velocity":58,"Duration":140186,"SoundDuration":140186,"Delta":193626687},{"NoteNumber":57,"Velocity":40,"Duration":140186,"SoundDuration":140186,"Delta":193626687},{"NoteNumber":93,"Velocity":69,"Duration":132743,"SoundDuration":132743,"Delta":193766874},{"NoteNumber":60,"Velocity":51,"Duration":265486,"SoundDuration":265486,"Delta":193766874},{"NoteNumber":95,"Velocity":56,"Duration":132743,"SoundDuration":132743,"Delta":193899617},{"NoteNumber":96,"Velocity":66,"Duration":132743,"SoundDuration":132743,"Delta":194032361},{"NoteNumber":93,"Velocity":54,"Duration":137614,"SoundDuration":137614,"Delta":194165104},{"NoteNumber":66,"Velocity":43,"Duration":137614,"SoundDuration":137614,"Delta":194165104},{"NoteNumber":90,"Velocity":66,"Duration":133928,"SoundDuration":133928,"Delta":194302719},{"NoteNumber":69,"Velocity":51,"Duration":267856,"SoundDuration":267856,"Delta":194302719},{"NoteNumber":91,"Velocity":53,"Duration":133928,"SoundDuration":133928,"Delta":194436647},{"NoteNumber":93,"Velocity":61,"Duration":133928,"SoundDuration":133928,"Delta":194570576},{"NoteNumber":72,"Velocity":45,"Duration":133928,"SoundDuration":133928,"Delta":194570576},{"NoteNumber":90,"Velocity":53,"Duration":140186,"SoundDuration":140186,"Delta":194704504},{"NoteNumber":69,"Velocity":45,"Duration":140186,"SoundDuration":140186,"Delta":194704504},{"NoteNumber":84,"Velocity":47,"Duration":134529,"SoundDuration":134529,"Delta":194844691},{"NoteNumber":81,"Velocity":40,"Duration":134529,"SoundDuration":134529,"Delta":194844691},{"NoteNumber":86,"Velocity":47,"Duration":134529,"SoundDuration":134529,"Delta":194979220},{"NoteNumber":83,"Velocity":40,"Duration":134529,"SoundDuration":134529,"Delta":194979220},{"NoteNumber":88,"Velocity":58,"Duration":134529,"SoundDuration":134529,"Delta":195113750},{"NoteNumber":84,"Velocity":44,"Duration":134529,"SoundDuration":134529,"Delta":195113750},{"NoteNumber":84,"Velocity":47,"Duration":138248,"SoundDuration":138248,"Delta":195248279},{"NoteNumber":81,"Velocity":40,"Duration":138248,"SoundDuration":138248,"Delta":195248279},{"NoteNumber":81,"Velocity":47,"Duration":132743,"SoundDuration":132743,"Delta":195386528},{"NoteNumber":72,"Velocity":40,"Duration":132743,"SoundDuration":132743,"Delta":195386528},{"NoteNumber":83,"Velocity":47,"Duration":132743,"SoundDuration":132743,"Delta":195519271},{"NoteNumber":74,"Velocity":40,"Duration":132743,"SoundDuration":132743,"Delta":195519271},{"NoteNumber":84,"Velocity":53,"Duration":132743,"SoundDuration":132743,"Delta":195652014},{"NoteNumber":76,"Velocity":45,"Duration":132743,"SoundDuration":132743,"Delta":195652014},{"NoteNumber":81,"Velocity":47,"Duration":140845,"SoundDuration":140845,"Delta":195784757},{"NoteNumber":72,"Velocity":40,"Duration":140845,"SoundDuration":140845,"Delta":195784757},{"NoteNumber":78,"Velocity":47,"Duration":133333,"SoundDuration":133333,"Delta":195925602},{"NoteNumber":69,"Velocity":40,"Duration":133333,"SoundDuration":133333,"Delta":195925602},{"NoteNumber":79,"Velocity":47,"Duration":133333,"SoundDuration":133333,"Delta":196058936},{"NoteNumber":71,"Velocity":40,"Duration":133333,"SoundDuration":133333,"Delta":196058936},{"NoteNumber":81,"Velocity":52,"Duration":133333,"SoundDuration":133333,"Delta":196192269},{"NoteNumber":72,"Velocity":45,"Duration":133333,"SoundDuration":133333,"Delta":196192269},{"NoteNumber":78,"Velocity":47,"Duration":140186,"SoundDuration":140186,"Delta":196325602},{"NoteNumber":69,"Velocity":40,"Duration":137850,"SoundDuration":137850,"Delta":196325602},{"NoteNumber":72,"Velocity":47,"Duration":265486,"SoundDuration":265486,"Delta":196465789},{"NoteNumber":69,"Velocity":47,"Duration":265486,"SoundDuration":265486,"Delta":196465789},{"NoteNumber":74,"Velocity":47,"Duration":265486,"SoundDuration":265486,"Delta":196465789},{"NoteNumber":66,"Velocity":40,"Duration":132743,"SoundDuration":132743,"Delta":196465789},{"NoteNumber":67,"Velocity":40,"Duration":132743,"SoundDuration":132743,"Delta":196598532},{"NoteNumber":69,"Velocity":45,"Duration":132743,"SoundDuration":132743,"Delta":196731276},{"NoteNumber":66,"Velocity":40,"Duration":146341,"SoundDuration":146341,"Delta":196864019},{"NoteNumber":95,"Velocity":57,"Duration":133333,"SoundDuration":133333,"Delta":197010360},{"NoteNumber":67,"Velocity":48,"Duration":266666,"SoundDuration":266666,"Delta":197010360},{"NoteNumber":71,"Velocity":51,"Duration":266666,"SoundDuration":266666,"Delta":197010360},{"NoteNumber":62,"Velocity":48,"Duration":266666,"SoundDuration":266666,"Delta":197010360},{"NoteNumber":96,"Velocity":48,"Duration":133333,"SoundDuration":133333,"Delta":197143694},{"NoteNumber":95,"Velocity":49,"Duration":133333,"SoundDuration":133333,"Delta":197277027},{"NoteNumber":93,"Velocity":50,"Duration":138889,"SoundDuration":138889,"Delta":197410360},{"NoteNumber":50,"Velocity":42,"Duration":138889,"SoundDuration":138889,"Delta":197410360},{"NoteNumber":95,"Velocity":65,"Duration":133928,"SoundDuration":133928,"Delta":197549249},{"NoteNumber":55,"Velocity":51,"Duration":267856,"SoundDuration":267856,"Delta":197549249},{"NoteNumber":96,"Velocity":57,"Duration":133928,"SoundDuration":133928,"Delta":197683178},{"NoteNumber":98,"Velocity":66,"Duration":133928,"SoundDuration":133928,"Delta":197817106},{"NoteNumber":95,"Velocity":58,"Duration":140186,"SoundDuration":140186,"Delta":197951035},{"NoteNumber":59,"Velocity":40,"Duration":140186,"SoundDuration":140186,"Delta":197951035},{"NoteNumber":91,"Velocity":69,"Duration":133928,"SoundDuration":133928,"Delta":198091222},{"NoteNumber":62,"Velocity":51,"Duration":267856,"SoundDuration":267856,"Delta":198091222},{"NoteNumber":93,"Velocity":56,"Duration":133928,"SoundDuration":133928,"Delta":198225150},{"NoteNumber":95,"Velocity":66,"Duration":133928,"SoundDuration":133928,"Delta":198359079},{"NoteNumber":91,"Velocity":54,"Duration":137614,"SoundDuration":137614,"Delta":198493007},{"NoteNumber":67,"Velocity":43,"Duration":137614,"SoundDuration":137614,"Delta":198493007},{"NoteNumber":86,"Velocity":66,"Duration":133928,"SoundDuration":133928,"Delta":198630622},{"NoteNumber":71,"Velocity":51,"Duration":267856,"SoundDuration":267856,"Delta":198630622},{"NoteNumber":90,"Velocity":53,"Duration":133928,"SoundDuration":133928,"Delta":198764550},{"NoteNumber":91,"Velocity":61,"Duration":133928,"SoundDuration":133928,"Delta":198898479},{"NoteNumber":86,"Velocity":53,"Duration":140186,"SoundDuration":140186,"Delta":199032407},{"NoteNumber":74,"Velocity":45,"Duration":140186,"SoundDuration":140186,"Delta":199032407},{"NoteNumber":83,"Velocity":47,"Duration":134529,"SoundDuration":134529,"Delta":199172594},{"NoteNumber":79,"Velocity":40,"Duration":134529,"SoundDuration":134529,"Delta":199172594},{"NoteNumber":84,"Velocity":47,"Duration":134529,"SoundDuration":134529,"Delta":199307124},{"NoteNumber":81,"Velocity":40,"Duration":134529,"SoundDuration":134529,"Delta":199307124},{"NoteNumber":86,"Velocity":58,"Duration":134529,"SoundDuration":134529,"Delta":199441653},{"NoteNumber":83,"Velocity":44,"Duration":134529,"SoundDuration":134529,"Delta":199441653},{"NoteNumber":83,"Velocity":47,"Duration":138248,"SoundDuration":138248,"Delta":199576182},{"NoteNumber":79,"Velocity":40,"Duration":135944,"SoundDuration":135944,"Delta":199576182},{"NoteNumber":79,"Velocity":47,"Duration":132743,"SoundDuration":132743,"Delta":199714431},{"NoteNumber":71,"Velocity":40,"Duration":132743,"SoundDuration":132743,"Delta":199714431},{"NoteNumber":81,"Velocity":47,"Duration":132743,"SoundDuration":132743,"Delta":199847174},{"NoteNumber":72,"Velocity":40,"Duration":132743,"SoundDuration":132743,"Delta":199847174},{"NoteNumber":83,"Velocity":53,"Duration":132743,"SoundDuration":132743,"Delta":199979917},{"NoteNumber":74,"Velocity":45,"Duration":132743,"SoundDuration":132743,"Delta":199979917},{"NoteNumber":79,"Velocity":47,"Duration":140845,"SoundDuration":140845,"Delta":200112661},{"NoteNumber":71,"Velocity":40,"Duration":140845,"SoundDuration":140845,"Delta":200112661},{"NoteNumber":74,"Velocity":47,"Duration":133333,"SoundDuration":133333,"Delta":200253506},{"NoteNumber":67,"Velocity":40,"Duration":133333,"SoundDuration":133333,"Delta":200253506},{"NoteNumber":78,"Velocity":47,"Duration":133333,"SoundDuration":133333,"Delta":200386839},{"NoteNumber":69,"Velocity":40,"Duration":133333,"SoundDuration":133333,"Delta":200386839},{"NoteNumber":79,"Velocity":52,"Duration":133333,"SoundDuration":133333,"Delta":200520172},{"NoteNumber":71,"Velocity":45,"Duration":131111,"SoundDuration":131111,"Delta":200520172},{"NoteNumber":71,"Velocity":47,"Duration":140186,"SoundDuration":140186,"Delta":200653505},{"NoteNumber":67,"Velocity":40,"Duration":137850,"SoundDuration":137850,"Delta":200653505},{"NoteNumber":67,"Velocity":40,"Duration":133333,"SoundDuration":133333,"Delta":200793692},{"NoteNumber":71,"Velocity":40,"Duration":133333,"SoundDuration":133333,"Delta":200793692},{"NoteNumber":69,"Velocity":40,"Duration":133333,"SoundDuration":133333,"Delta":200927026},{"NoteNumber":72,"Velocity":40,"Duration":133333,"SoundDuration":133333,"Delta":200927026},{"NoteNumber":71,"Velocity":45,"Duration":131111,"SoundDuration":131111,"Delta":201060359},{"NoteNumber":74,"Velocity":45,"Duration":133333,"SoundDuration":133333,"Delta":201060359},{"NoteNumber":67,"Velocity":40,"Duration":138889,"SoundDuration":138889,"Delta":201193692},{"NoteNumber":71,"Velocity":40,"Duration":138889,"SoundDuration":138889,"Delta":201193692},{"NoteNumber":66,"Velocity":40,"Duration":277777,"SoundDuration":277777,"Delta":201332581},{"NoteNumber":69,"Velocity":46,"Duration":277777,"SoundDuration":277777,"Delta":201332581},{"NoteNumber":62,"Velocity":40,"Duration":277777,"SoundDuration":277777,"Delta":201332581},{"NoteNumber":72,"Velocity":40,"Duration":138889,"SoundDuration":138889,"Delta":201332581},{"NoteNumber":74,"Velocity":40,"Duration":138888,"SoundDuration":138888,"Delta":201471470},{"NoteNumber":88,"Velocity":52,"Duration":136986,"SoundDuration":136986,"Delta":201610359},{"NoteNumber":72,"Velocity":45,"Duration":136986,"SoundDuration":136986,"Delta":201610359},{"NoteNumber":86,"Velocity":47,"Duration":140186,"SoundDuration":140186,"Delta":201747345},{"NoteNumber":71,"Velocity":40,"Duration":140186,"SoundDuration":140186,"Delta":201747345},{"NoteNumber":88,"Velocity":40,"Duration":135135,"SoundDuration":135135,"Delta":201887532},{"NoteNumber":72,"Velocity":40,"Duration":135135,"SoundDuration":135135,"Delta":201887532},{"NoteNumber":86,"Velocity":40,"Duration":135135,"SoundDuration":135135,"Delta":202022668},{"NoteNumber":74,"Velocity":40,"Duration":135135,"SoundDuration":135135,"Delta":202022668},{"NoteNumber":84,"Velocity":45,"Duration":135135,"SoundDuration":135135,"Delta":202157803},{"NoteNumber":76,"Velocity":45,"Duration":135135,"SoundDuration":135135,"Delta":202157803},{"NoteNumber":88,"Velocity":40,"Duration":138889,"SoundDuration":138889,"Delta":202292938},{"NoteNumber":72,"Velocity":40,"Duration":138889,"SoundDuration":138889,"Delta":202292938},{"NoteNumber":84,"Velocity":52,"Duration":138889,"SoundDuration":138889,"Delta":202431827},{"NoteNumber":69,"Velocity":46,"Duration":138889,"SoundDuration":138889,"Delta":202431827},{"NoteNumber":83,"Velocity":42,"Duration":138889,"SoundDuration":138889,"Delta":202570716},{"NoteNumber":71,"Velocity":38,"Duration":138889,"SoundDuration":138889,"Delta":202570716},{"NoteNumber":81,"Velocity":49,"Duration":133333,"SoundDuration":133333,"Delta":202709605},{"NoteNumber":72,"Velocity":45,"Duration":133333,"SoundDuration":133333,"Delta":202709605},{"NoteNumber":84,"Velocity":43,"Duration":140186,"SoundDuration":140186,"Delta":202842938},{"NoteNumber":69,"Velocity":40,"Duration":140186,"SoundDuration":140186,"Delta":202842938},{"NoteNumber":81,"Velocity":48,"Duration":133333,"SoundDuration":133333,"Delta":202983125},{"NoteNumber":66,"Velocity":45,"Duration":133333,"SoundDuration":133333,"Delta":202983125},{"NoteNumber":79,"Velocity":40,"Duration":133333,"SoundDuration":133333,"Delta":203116459},{"NoteNumber":67,"Velocity":36,"Duration":133333,"SoundDuration":133333,"Delta":203116459},{"NoteNumber":78,"Velocity":45,"Duration":133333,"SoundDuration":133333,"Delta":203249792},{"NoteNumber":69,"Velocity":41,"Duration":133333,"SoundDuration":133333,"Delta":203249792},{"NoteNumber":81,"Velocity":40,"Duration":138889,"SoundDuration":138889,"Delta":203383125},{"NoteNumber":66,"Velocity":36,"Duration":138889,"SoundDuration":138889,"Delta":203383125},{"NoteNumber":76,"Velocity":52,"Duration":138889,"SoundDuration":138889,"Delta":203522014},{"NoteNumber":60,"Velocity":46,"Duration":138889,"SoundDuration":138889,"Delta":203522014},{"NoteNumber":74,"Velocity":42,"Duration":138889,"SoundDuration":138889,"Delta":203660903},{"NoteNumber":62,"Velocity":38,"Duration":138889,"SoundDuration":138889,"Delta":203660903},{"NoteNumber":72,"Velocity":49,"Duration":133333,"SoundDuration":133333,"Delta":203799792},{"NoteNumber":64,"Velocity":45,"Duration":133333,"SoundDuration":133333,"Delta":203799792},{"NoteNumber":76,"Velocity":43,"Duration":140186,"SoundDuration":140186,"Delta":203933125},{"NoteNumber":60,"Velocity":40,"Duration":140186,"SoundDuration":140186,"Delta":203933125},{"NoteNumber":72,"Velocity":48,"Duration":133333,"SoundDuration":133333,"Delta":204073312},{"NoteNumber":57,"Velocity":45,"Duration":133333,"SoundDuration":133333,"Delta":204073312},{"NoteNumber":71,"Velocity":40,"Duration":133333,"SoundDuration":133333,"Delta":204206646},{"NoteNumber":59,"Velocity":36,"Duration":133333,"SoundDuration":133333,"Delta":204206646},{"NoteNumber":69,"Velocity":45,"Duration":133333,"SoundDuration":133333,"Delta":204339979},{"NoteNumber":60,"Velocity":41,"Duration":133333,"SoundDuration":133333,"Delta":204339979},{"NoteNumber":72,"Velocity":40,"Duration":138889,"SoundDuration":138889,"Delta":204473312},{"NoteNumber":57,"Velocity":36,"Duration":138889,"SoundDuration":138889,"Delta":204473312},{"NoteNumber":69,"Velocity":52,"Duration":138889,"SoundDuration":138889,"Delta":204612201},{"NoteNumber":54,"Velocity":46,"Duration":138889,"SoundDuration":138889,"Delta":204612201},{"NoteNumber":67,"Velocity":42,"Duration":138889,"SoundDuration":138889,"Delta":204751090},{"NoteNumber":55,"Velocity":38,"Duration":138889,"SoundDuration":138889,"Delta":204751090},{"NoteNumber":66,"Velocity":49,"Duration":133333,"SoundDuration":133333,"Delta":204889979},{"NoteNumber":57,"Velocity":45,"Duration":133333,"SoundDuration":133333,"Delta":204889979},{"NoteNumber":69,"Velocity":43,"Duration":140186,"SoundDuration":140186,"Delta":205023312},{"NoteNumber":54,"Velocity":40,"Duration":140186,"SoundDuration":140186,"Delta":205023312},{"NoteNumber":72,"Velocity":48,"Duration":133333,"SoundDuration":133333,"Delta":205163499},{"NoteNumber":69,"Velocity":45,"Duration":133333,"SoundDuration":133333,"Delta":205163499},{"NoteNumber":71,"Velocity":40,"Duration":133333,"SoundDuration":133333,"Delta":205296833},{"NoteNumber":67,"Velocity":36,"Duration":133333,"SoundDuration":133333,"Delta":205296833},{"NoteNumber":69,"Velocity":45,"Duration":133333,"SoundDuration":133333,"Delta":205430166},{"NoteNumber":66,"Velocity":41,"Duration":133333,"SoundDuration":133333,"Delta":205430166},{"NoteNumber":72,"Velocity":40,"Duration":138889,"SoundDuration":138889,"Delta":205563499},{"NoteNumber":69,"Velocity":36,"Duration":138889,"SoundDuration":138889,"Delta":205563499},{"NoteNumber":62,"Velocity":40,"Duration":283816,"SoundDuration":283816,"Delta":205702388},{"NoteNumber":67,"Velocity":46,"Duration":283816,"SoundDuration":283816,"Delta":205702388},{"NoteNumber":71,"Velocity":40,"Duration":138889,"SoundDuration":138889,"Delta":205702388},{"NoteNumber":72,"Velocity":40,"Duration":144927,"SoundDuration":144927,"Delta":205841277},{"NoteNumber":98,"Velocity":52,"Duration":133333,"SoundDuration":133333,"Delta":205986205},{"NoteNumber":71,"Velocity":45,"Duration":133333,"SoundDuration":133333,"Delta":205986205},{"NoteNumber":96,"Velocity":47,"Duration":140186,"SoundDuration":140186,"Delta":206119538},{"NoteNumber":69,"Velocity":40,"Duration":140186,"SoundDuration":140186,"Delta":206119538},{"NoteNumber":98,"Velocity":40,"Duration":133333,"SoundDuration":133333,"Delta":206259725},{"NoteNumber":71,"Velocity":40,"Duration":133333,"SoundDuration":133333,"Delta":206259725},{"NoteNumber":96,"Velocity":40,"Duration":133333,"SoundDuration":133333,"Delta":206393058},{"NoteNumber":72,"Velocity":40,"Duration":133333,"SoundDuration":133333,"Delta":206393058},{"NoteNumber":95,"Velocity":45,"Duration":133333,"SoundDuration":133333,"Delta":206526391},{"NoteNumber":74,"Velocity":45,"Duration":133333,"SoundDuration":133333,"Delta":206526391},{"NoteNumber":98,"Velocity":40,"Duration":138889,"SoundDuration":138889,"Delta":206659725},{"NoteNumber":71,"Velocity":40,"Duration":138889,"SoundDuration":138889,"Delta":206659725},{"NoteNumber":95,"Velocity":52,"Duration":138889,"SoundDuration":138889,"Delta":206798614},{"NoteNumber":67,"Velocity":46,"Duration":138889,"SoundDuration":138889,"Delta":206798614},{"NoteNumber":93,"Velocity":42,"Duration":138889,"SoundDuration":138889,"Delta":206937503},{"NoteNumber":69,"Velocity":38,"Duration":138889,"SoundDuration":138889,"Delta":206937503},{"NoteNumber":91,"Velocity":49,"Duration":133333,"SoundDuration":133333,"Delta":207076392},{"NoteNumber":71,"Velocity":45,"Duration":133333,"SoundDuration":133333,"Delta":207076392},{"NoteNumber":95,"Velocity":43,"Duration":140186,"SoundDuration":140186,"Delta":207209725},{"NoteNumber":67,"Velocity":40,"Duration":140186,"SoundDuration":140186,"Delta":207209725},{"NoteNumber":83,"Velocity":48,"Duration":133333,"SoundDuration":133333,"Delta":207349912},{"NoteNumber":62,"Velocity":45,"Duration":133333,"SoundDuration":133333,"Delta":207349912},{"NoteNumber":81,"Velocity":40,"Duration":133333,"SoundDuration":133333,"Delta":207483245},{"NoteNumber":66,"Velocity":36,"Duration":133333,"SoundDuration":133333,"Delta":207483245},{"NoteNumber":79,"Velocity":45,"Duration":133333,"SoundDuration":133333,"Delta":207616578},{"NoteNumber":67,"Velocity":41,"Duration":133333,"SoundDuration":133333,"Delta":207616578},{"NoteNumber":83,"Velocity":40,"Duration":138889,"SoundDuration":138889,"Delta":207749912},{"NoteNumber":62,"Velocity":36,"Duration":138889,"SoundDuration":138889,"Delta":207749912},{"NoteNumber":74,"Velocity":52,"Duration":138889,"SoundDuration":138889,"Delta":207888801},{"NoteNumber":59,"Velocity":46,"Duration":138889,"SoundDuration":138889,"Delta":207888801},{"NoteNumber":72,"Velocity":42,"Duration":138889,"SoundDuration":138889,"Delta":208027690},{"NoteNumber":60,"Velocity":38,"Duration":138889,"SoundDuration":138889,"Delta":208027690},{"NoteNumber":71,"Velocity":49,"Duration":133333,"SoundDuration":133333,"Delta":208166579},{"NoteNumber":62,"Velocity":45,"Duration":133333,"SoundDuration":133333,"Delta":208166579},{"NoteNumber":74,"Velocity":43,"Duration":140186,"SoundDuration":140186,"Delta":208299912},{"NoteNumber":59,"Velocity":40,"Duration":140186,"SoundDuration":140186,"Delta":208299912},{"NoteNumber":83,"Velocity":48,"Duration":133333,"SoundDuration":133333,"Delta":208440099},{"NoteNumber":55,"Velocity":45,"Duration":133333,"SoundDuration":133333,"Delta":208440099},{"NoteNumber":81,"Velocity":40,"Duration":133333,"SoundDuration":133333,"Delta":208573432},{"NoteNumber":57,"Velocity":36,"Duration":133333,"SoundDuration":133333,"Delta":208573432},{"NoteNumber":79,"Velocity":45,"Duration":133333,"SoundDuration":133333,"Delta":208706765},{"NoteNumber":59,"Velocity":41,"Duration":133333,"SoundDuration":133333,"Delta":208706765},{"NoteNumber":83,"Velocity":40,"Duration":138889,"SoundDuration":138889,"Delta":208840099},{"NoteNumber":55,"Velocity":36,"Duration":138889,"SoundDuration":138889,"Delta":208840099},{"NoteNumber":86,"Velocity":62,"Duration":138889,"SoundDuration":138889,"Delta":208978988},{"NoteNumber":50,"Velocity":46,"Duration":138889,"SoundDuration":138889,"Delta":208978988},{"NoteNumber":84,"Velocity":51,"Duration":138889,"SoundDuration":138889,"Delta":209117877},{"NoteNumber":54,"Velocity":38,"Duration":138889,"SoundDuration":138889,"Delta":209117877},{"NoteNumber":83,"Velocity":61,"Duration":133333,"SoundDuration":133333,"Delta":209256766},{"NoteNumber":55,"Velocity":45,"Duration":133333,"SoundDuration":133333,"Delta":209256766},{"NoteNumber":84,"Velocity":52,"Duration":140186,"SoundDuration":140186,"Delta":209390099},{"NoteNumber":50,"Velocity":40,"Duration":140186,"SoundDuration":140186,"Delta":209390099},{"NoteNumber":88,"Velocity":62,"Duration":283018,"SoundDuration":283018,"Delta":209530286},{"NoteNumber":48,"Velocity":45,"Duration":141509,"SoundDuration":141509,"Delta":209530286},{"NoteNumber":55,"Velocity":36,"Duration":141509,"SoundDuration":141509,"Delta":209671795},{"NoteNumber":86,"Velocity":51,"Duration":309278,"SoundDuration":309278,"Delta":209813305},{"NoteNumber":81,"Velocity":51,"Duration":309278,"SoundDuration":309278,"Delta":209813305},{"NoteNumber":90,"Velocity":51,"Duration":309278,"SoundDuration":309278,"Delta":209813305},{"NoteNumber":50,"Velocity":41,"Duration":154639,"SoundDuration":154639,"Delta":209813305},{"NoteNumber":48,"Velocity":36,"Duration":154639,"SoundDuration":154639,"Delta":209967944},{"NoteNumber":79,"Velocity":51,"Duration":309278,"SoundDuration":309278,"Delta":210122583},{"NoteNumber":91,"Velocity":51,"Duration":309278,"SoundDuration":309278,"Delta":210122583},{"NoteNumber":86,"Velocity":51,"Duration":309278,"SoundDuration":309278,"Delta":210122583},{"NoteNumber":47,"Velocity":36,"Duration":309278,"SoundDuration":309278,"Delta":210122583},{"NoteNumber":43,"Velocity":34,"Duration":303030,"SoundDuration":303030,"Delta":210431862},{"NoteNumber":55,"Velocity":40,"Duration":303030,"SoundDuration":303030,"Delta":210431862},{"NoteNumber":52,"Velocity":36,"Duration":151515,"SoundDuration":151515,"Delta":210734892},{"NoteNumber":48,"Velocity":30,"Duration":151515,"SoundDuration":151515,"Delta":210734892},{"NoteNumber":60,"Velocity":40,"Duration":143540,"SoundDuration":143540,"Delta":211037923},{"NoteNumber":57,"Velocity":36,"Duration":143540,"SoundDuration":143540,"Delta":211181464},{"NoteNumber":54,"Velocity":36,"Duration":309278,"SoundDuration":309278,"Delta":211325004},{"NoteNumber":69,"Velocity":40,"Duration":285714,"SoundDuration":285714,"Delta":211634283},{"NoteNumber":66,"Velocity":34,"Duration":285714,"SoundDuration":285714,"Delta":211634283},{"NoteNumber":50,"Velocity":31,"Duration":285714,"SoundDuration":285714,"Delta":211634283},{"NoteNumber":62,"Velocity":36,"Duration":285714,"SoundDuration":285714,"Delta":211634283},{"NoteNumber":67,"Velocity":32,"Duration":157068,"SoundDuration":157068,"Delta":211919997},{"NoteNumber":71,"Velocity":38,"Duration":157068,"SoundDuration":157068,"Delta":211919997},{"NoteNumber":55,"Velocity":30,"Duration":157068,"SoundDuration":157068,"Delta":211919997},{"NoteNumber":59,"Velocity":36,"Duration":157068,"SoundDuration":157068,"Delta":211919997},{"NoteNumber":91,"Velocity":47,"Duration":144230,"SoundDuration":144230,"Delta":212234133},{"NoteNumber":83,"Velocity":39,"Duration":144230,"SoundDuration":144230,"Delta":212234133},{"NoteNumber":64,"Velocity":36,"Duration":597740,"SoundDuration":597740,"Delta":212234133},{"NoteNumber":55,"Velocity":30,"Duration":597740,"SoundDuration":597740,"Delta":212234133},{"NoteNumber":90,"Velocity":44,"Duration":144230,"SoundDuration":144230,"Delta":212378364},{"NoteNumber":81,"Velocity":37,"Duration":144230,"SoundDuration":144230,"Delta":212378364},{"NoteNumber":83,"Velocity":39,"Duration":309278,"SoundDuration":309278,"Delta":212522595},{"NoteNumber":91,"Velocity":47,"Duration":309278,"SoundDuration":309278,"Delta":212522595},{"NoteNumber":79,"Velocity":33,"Duration":314135,"SoundDuration":314135,"Delta":212831873},{"NoteNumber":83,"Velocity":33,"Duration":314135,"SoundDuration":314135,"Delta":212831873},{"NoteNumber":88,"Velocity":39,"Duration":314135,"SoundDuration":314135,"Delta":212831873},{"NoteNumber":55,"Velocity":30,"Duration":314135,"SoundDuration":314135,"Delta":212831873},{"NoteNumber":64,"Velocity":36,"Duration":314135,"SoundDuration":314135,"Delta":212831873},{"NoteNumber":81,"Velocity":35,"Duration":329670,"SoundDuration":329670,"Delta":213146009},{"NoteNumber":86,"Velocity":42,"Duration":329670,"SoundDuration":329670,"Delta":213146009},{"NoteNumber":78,"Velocity":35,"Duration":329670,"SoundDuration":329670,"Delta":213146009},{"NoteNumber":66,"Velocity":40,"Duration":329670,"SoundDuration":329670,"Delta":213146009},{"NoteNumber":57,"Velocity":34,"Duration":329670,"SoundDuration":329670,"Delta":213146009},{"NoteNumber":79,"Velocity":30,"Duration":357143,"SoundDuration":357143,"Delta":213475680},{"NoteNumber":76,"Velocity":30,"Duration":357143,"SoundDuration":357143,"Delta":213475680},{"NoteNumber":85,"Velocity":40,"Duration":357143,"SoundDuration":357143,"Delta":213475680},{"NoteNumber":67,"Velocity":30,"Duration":178571,"SoundDuration":178571,"Delta":213475680},{"NoteNumber":57,"Velocity":25,"Duration":357143,"SoundDuration":357143,"Delta":213475680},{"NoteNumber":69,"Velocity":36,"Duration":178571,"SoundDuration":178571,"Delta":213654251},{"NoteNumber":88,"Velocity":45,"Duration":337078,"SoundDuration":337078,"Delta":213832823},{"NoteNumber":79,"Velocity":38,"Duration":337078,"SoundDuration":337078,"Delta":213832823},{"NoteNumber":62,"Velocity":30,"Duration":982239,"SoundDuration":982239,"Delta":213832823},{"NoteNumber":69,"Velocity":36,"Duration":337078,"SoundDuration":337078,"Delta":213832823},{"NoteNumber":86,"Velocity":36,"Duration":319892,"SoundDuration":319892,"Delta":214169901},{"NoteNumber":78,"Velocity":30,"Duration":319892,"SoundDuration":319892,"Delta":214169901},{"NoteNumber":71,"Velocity":36,"Duration":241935,"SoundDuration":241935,"Delta":214169901},{"NoteNumber":73,"Velocity":31,"Duration":80645,"SoundDuration":80645,"Delta":214411837},{"NoteNumber":78,"Velocity":30,"Duration":322580,"SoundDuration":322580,"Delta":214492482},{"NoteNumber":86,"Velocity":36,"Duration":322580,"SoundDuration":322580,"Delta":214492482},{"NoteNumber":74,"Velocity":36,"Duration":322580,"SoundDuration":322580,"Delta":214492482},{"NoteNumber":79,"Velocity":38,"Duration":144927,"SoundDuration":144927,"Delta":214815062},{"NoteNumber":86,"Velocity":45,"Duration":144927,"SoundDuration":144927,"Delta":214815062},{"NoteNumber":76,"Velocity":37,"Duration":144927,"SoundDuration":144927,"Delta":214815062},{"NoteNumber":81,"Velocity":34,"Duration":144927,"SoundDuration":144927,"Delta":214959990},{"NoteNumber":84,"Velocity":40,"Duration":144927,"SoundDuration":144927,"Delta":214959990},{"NoteNumber":78,"Velocity":36,"Duration":144927,"SoundDuration":144927,"Delta":214959990},{"NoteNumber":83,"Velocity":46,"Duration":315789,"SoundDuration":315789,"Delta":215104917},{"NoteNumber":79,"Velocity":36,"Duration":315789,"SoundDuration":315789,"Delta":215104917},{"NoteNumber":91,"Velocity":51,"Duration":146341,"SoundDuration":146341,"Delta":215420707},{"NoteNumber":79,"Velocity":43,"Duration":448123,"SoundDuration":448123,"Delta":215420707},{"NoteNumber":71,"Velocity":30,"Duration":292683,"SoundDuration":292683,"Delta":215420707},{"NoteNumber":74,"Velocity":36,"Duration":292683,"SoundDuration":292683,"Delta":215420707},{"NoteNumber":88,"Velocity":46,"Duration":155440,"SoundDuration":155440,"Delta":215713390},{"NoteNumber":76,"Velocity":36,"Duration":155440,"SoundDuration":155440,"Delta":215713390},{"NoteNumber":72,"Velocity":30,"Duration":155440,"SoundDuration":155440,"Delta":215713390},{"NoteNumber":96,"Velocity":51,"Duration":146341,"SoundDuration":146341,"Delta":216024271},{"NoteNumber":84,"Velocity":43,"Duration":146341,"SoundDuration":146341,"Delta":216024271},{"NoteNumber":69,"Velocity":36,"Duration":146341,"SoundDuration":146341,"Delta":216024271},{"NoteNumber":88,"Velocity":37,"Duration":146341,"SoundDuration":146341,"Delta":216170612},{"NoteNumber":93,"Velocity":44,"Duration":146341,"SoundDuration":146341,"Delta":216170612},{"NoteNumber":72,"Velocity":32,"Duration":146341,"SoundDuration":146341,"Delta":216170612},{"NoteNumber":90,"Velocity":51,"Duration":324324,"SoundDuration":324324,"Delta":216316954},{"NoteNumber":74,"Velocity":36,"Duration":324324,"SoundDuration":324324,"Delta":216316954},{"NoteNumber":86,"Velocity":47,"Duration":449557,"SoundDuration":449557,"Delta":216641278},{"NoteNumber":98,"Velocity":56,"Duration":294117,"SoundDuration":294117,"Delta":216641278},{"NoteNumber":69,"Velocity":36,"Duration":294117,"SoundDuration":294117,"Delta":216641278},{"NoteNumber":66,"Velocity":30,"Duration":294117,"SoundDuration":294117,"Delta":216641278},{"NoteNumber":95,"Velocity":53,"Duration":155440,"SoundDuration":155440,"Delta":216935396},{"NoteNumber":67,"Velocity":33,"Duration":155440,"SoundDuration":155440,"Delta":216935396},{"NoteNumber":71,"Velocity":36,"Duration":155440,"SoundDuration":155440,"Delta":216935396},{"NoteNumber":91,"Velocity":52,"Duration":147783,"SoundDuration":147783,"Delta":217246277},{"NoteNumber":90,"Velocity":45,"Duration":147783,"SoundDuration":147783,"Delta":217394060},{"NoteNumber":91,"Velocity":52,"Duration":312500,"SoundDuration":312500,"Delta":217541843},{"NoteNumber":64,"Velocity":30,"Duration":312500,"SoundDuration":312500,"Delta":217541843},{"NoteNumber":67,"Velocity":30,"Duration":312500,"SoundDuration":312500,"Delta":217541843},{"NoteNumber":71,"Velocity":36,"Duration":312500,"SoundDuration":312500,"Delta":217541843},{"NoteNumber":88,"Velocity":47,"Duration":322580,"SoundDuration":322580,"Delta":217854343},{"NoteNumber":64,"Velocity":30,"Duration":322580,"SoundDuration":322580,"Delta":217854343},{"NoteNumber":72,"Velocity":36,"Duration":322580,"SoundDuration":322580,"Delta":217854343},{"NoteNumber":67,"Velocity":30,"Duration":322580,"SoundDuration":322580,"Delta":217854343},{"NoteNumber":84,"Velocity":51,"Duration":322580,"SoundDuration":322580,"Delta":218176924},{"NoteNumber":67,"Velocity":36,"Duration":161290,"SoundDuration":161290,"Delta":218176924},{"NoteNumber":64,"Velocity":30,"Duration":322580,"SoundDuration":322580,"Delta":218176924},{"NoteNumber":72,"Velocity":36,"Duration":322580,"SoundDuration":322580,"Delta":218176924},{"NoteNumber":69,"Velocity":30,"Duration":161290,"SoundDuration":161290,"Delta":218338214},{"NoteNumber":78,"Velocity":37,"Duration":322580,"SoundDuration":322580,"Delta":218499504},{"NoteNumber":83,"Velocity":44,"Duration":322580,"SoundDuration":322580,"Delta":218499504},{"NoteNumber":63,"Velocity":30,"Duration":322580,"SoundDuration":322580,"Delta":218499504},{"NoteNumber":66,"Velocity":30,"Duration":322580,"SoundDuration":322580,"Delta":218499504},{"NoteNumber":71,"Velocity":36,"Duration":322580,"SoundDuration":322580,"Delta":218499504},{"NoteNumber":78,"Velocity":44,"Duration":301507,"SoundDuration":301507,"Delta":218822085},{"NoteNumber":83,"Velocity":44,"Duration":895972,"SoundDuration":895972,"Delta":218822085},{"NoteNumber":66,"Velocity":30,"Duration":301507,"SoundDuration":301507,"Delta":218822085},{"NoteNumber":71,"Velocity":36,"Duration":301507,"SoundDuration":301507,"Delta":218822085},{"NoteNumber":63,"Velocity":30,"Duration":301507,"SoundDuration":301507,"Delta":218822085},{"NoteNumber":81,"Velocity":50,"Duration":146341,"SoundDuration":146341,"Delta":219123592},{"NoteNumber":63,"Velocity":31,"Duration":292683,"SoundDuration":292683,"Delta":219123592},{"NoteNumber":59,"Velocity":26,"Duration":292683,"SoundDuration":292683,"Delta":219123592},{"NoteNumber":79,"Velocity":44,"Duration":143902,"SoundDuration":143902,"Delta":219269934},{"NoteNumber":79,"Velocity":49,"Duration":301781,"SoundDuration":301781,"Delta":219416275},{"NoteNumber":67,"Velocity":36,"Duration":301781,"SoundDuration":301781,"Delta":219416275},{"NoteNumber":64,"Velocity":30,"Duration":301781,"SoundDuration":301781,"Delta":219416275},{"NoteNumber":82,"Velocity":46,"Duration":305205,"SoundDuration":305205,"Delta":219718057},{"NoteNumber":88,"Velocity":55,"Duration":305205,"SoundDuration":305205,"Delta":219718057},{"NoteNumber":79,"Velocity":46,"Duration":606713,"SoundDuration":606713,"Delta":219718057},{"NoteNumber":65,"Velocity":40,"Duration":145631,"SoundDuration":145631,"Delta":219718057},{"NoteNumber":62,"Velocity":34,"Duration":145631,"SoundDuration":145631,"Delta":219718057},{"NoteNumber":64,"Velocity":36,"Duration":158244,"SoundDuration":158244,"Delta":219863688},{"NoteNumber":61,"Velocity":30,"Duration":158244,"SoundDuration":158244,"Delta":219863688},{"NoteNumber":81,"Velocity":44,"Duration":895972,"SoundDuration":895972,"Delta":220023263},{"NoteNumber":64,"Velocity":36,"Duration":301507,"SoundDuration":301507,"Delta":220023263},{"NoteNumber":61,"Velocity":30,"Duration":301507,"SoundDuration":301507,"Delta":220023263},{"NoteNumber":79,"Velocity":50,"Duration":146341,"SoundDuration":146341,"Delta":220324770},{"NoteNumber":61,"Velocity":31,"Duration":292683,"SoundDuration":292683,"Delta":220324770},{"NoteNumber":57,"Velocity":26,"Duration":292683,"SoundDuration":292683,"Delta":220324770},{"NoteNumber":77,"Velocity":44,"Duration":146341,"SoundDuration":146341,"Delta":220471112},{"NoteNumber":77,"Velocity":49,"Duration":301781,"SoundDuration":301781,"Delta":220617453},{"NoteNumber":65,"Velocity":36,"Duration":301781,"SoundDuration":301781,"Delta":220617453},{"NoteNumber":62,"Velocity":30,"Duration":301781,"SoundDuration":301781,"Delta":220617453},{"NoteNumber":77,"Velocity":55,"Duration":606713,"SoundDuration":606713,"Delta":220919235},{"NoteNumber":86,"Velocity":55,"Duration":305205,"SoundDuration":305205,"Delta":220919235},{"NoteNumber":80,"Velocity":55,"Duration":305205,"SoundDuration":305205,"Delta":220919235},{"NoteNumber":63,"Velocity":40,"Duration":145631,"SoundDuration":145631,"Delta":220919235},{"NoteNumber":60,"Velocity":34,"Duration":145631,"SoundDuration":145631,"Delta":220919235},{"NoteNumber":62,"Velocity":36,"Duration":159574,"SoundDuration":159574,"Delta":221064866},{"NoteNumber":59,"Velocity":30,"Duration":159574,"SoundDuration":159574,"Delta":221064866},{"NoteNumber":79,"Velocity":44,"Duration":895972,"SoundDuration":895972,"Delta":221224441},{"NoteNumber":59,"Velocity":30,"Duration":301507,"SoundDuration":301507,"Delta":221224441},{"NoteNumber":62,"Velocity":36,"Duration":301507,"SoundDuration":301507,"Delta":221224441},{"NoteNumber":77,"Velocity":50,"Duration":146341,"SoundDuration":146341,"Delta":221525948},{"NoteNumber":55,"Velocity":26,"Duration":292683,"SoundDuration":292683,"Delta":221525948},{"NoteNumber":59,"Velocity":31,"Duration":292683,"SoundDuration":292683,"Delta":221525948},{"NoteNumber":76,"Velocity":44,"Duration":143902,"SoundDuration":143902,"Delta":221672290},{"NoteNumber":76,"Velocity":49,"Duration":301781,"SoundDuration":301781,"Delta":221818631},{"NoteNumber":60,"Velocity":30,"Duration":301781,"SoundDuration":301781,"Delta":221818631},{"NoteNumber":64,"Velocity":36,"Duration":301781,"SoundDuration":301781,"Delta":221818631},{"NoteNumber":79,"Velocity":46,"Duration":305205,"SoundDuration":305205,"Delta":222120413},{"NoteNumber":76,"Velocity":46,"Duration":606713,"SoundDuration":606713,"Delta":222120413},{"NoteNumber":85,"Velocity":55,"Duration":305205,"SoundDuration":305205,"Delta":222120413},{"NoteNumber":59,"Velocity":34,"Duration":145631,"SoundDuration":145631,"Delta":222120413},{"NoteNumber":63,"Velocity":40,"Duration":145631,"SoundDuration":145631,"Delta":222120413},{"NoteNumber":58,"Velocity":30,"Duration":158244,"SoundDuration":158244,"Delta":222266044},{"NoteNumber":61,"Velocity":36,"Duration":158244,"SoundDuration":158244,"Delta":222266044},{"NoteNumber":78,"Velocity":44,"Duration":895972,"SoundDuration":895972,"Delta":222425619},{"NoteNumber":58,"Velocity":30,"Duration":301507,"SoundDuration":301507,"Delta":222425619},{"NoteNumber":61,"Velocity":36,"Duration":301507,"SoundDuration":301507,"Delta":222425619},{"NoteNumber":76,"Velocity":50,"Duration":146341,"SoundDuration":146341,"Delta":222727126},{"NoteNumber":54,"Velocity":26,"Duration":292683,"SoundDuration":292683,"Delta":222727126},{"NoteNumber":58,"Velocity":31,"Duration":292683,"SoundDuration":292683,"Delta":222727126},{"NoteNumber":75,"Velocity":44,"Duration":146341,"SoundDuration":146341,"Delta":222873468},{"NoteNumber":74,"Velocity":49,"Duration":301781,"SoundDuration":301781,"Delta":223019809},{"NoteNumber":59,"Velocity":30,"Duration":301781,"SoundDuration":301781,"Delta":223019809},{"NoteNumber":62,"Velocity":36,"Duration":301781,"SoundDuration":301781,"Delta":223019809},{"NoteNumber":77,"Velocity":46,"Duration":305205,"SoundDuration":305205,"Delta":223321591},{"NoteNumber":83,"Velocity":55,"Duration":305205,"SoundDuration":305205,"Delta":223321591},{"NoteNumber":74,"Velocity":46,"Duration":305205,"SoundDuration":305205,"Delta":223321591},{"NoteNumber":57,"Velocity":34,"Duration":145631,"SoundDuration":145631,"Delta":223321591},{"NoteNumber":61,"Velocity":40,"Duration":145631,"SoundDuration":145631,"Delta":223321591},{"NoteNumber":59,"Velocity":36,"Duration":158244,"SoundDuration":158244,"Delta":223467222},{"NoteNumber":56,"Velocity":30,"Duration":158244,"SoundDuration":158244,"Delta":223467222},{"NoteNumber":77,"Velocity":55,"Duration":144927,"SoundDuration":144927,"Delta":223626797},{"NoteNumber":74,"Velocity":46,"Duration":294181,"SoundDuration":294181,"Delta":223626797},{"NoteNumber":59,"Velocity":36,"Duration":294181,"SoundDuration":294181,"Delta":223626797},{"NoteNumber":56,"Velocity":30,"Duration":294181,"SoundDuration":294181,"Delta":223626797},{"NoteNumber":76,"Velocity":46,"Duration":298507,"SoundDuration":298507,"Delta":223771724},{"NoteNumber":73,"Velocity":46,"Duration":306321,"SoundDuration":306321,"Delta":223920978},{"NoteNumber":57,"Velocity":36,"Duration":149253,"SoundDuration":149253,"Delta":223920978},{"NoteNumber":64,"Velocity":30,"Duration":306321,"SoundDuration":306321,"Delta":223920978},{"NoteNumber":81,"Velocity":48,"Duration":157068,"SoundDuration":157068,"Delta":224070232},{"NoteNumber":55,"Velocity":30,"Duration":157068,"SoundDuration":157068,"Delta":224070232},{"NoteNumber":75,"Velocity":55,"Duration":144927,"SoundDuration":144927,"Delta":224227300},{"NoteNumber":72,"Velocity":46,"Duration":294181,"SoundDuration":294181,"Delta":224227300},{"NoteNumber":57,"Velocity":36,"Duration":294181,"SoundDuration":294181,"Delta":224227300},{"NoteNumber":54,"Velocity":30,"Duration":294181,"SoundDuration":294181,"Delta":224227300},{"NoteNumber":74,"Velocity":47,"Duration":298507,"SoundDuration":298507,"Delta":224372227},{"NoteNumber":71,"Velocity":46,"Duration":307148,"SoundDuration":307148,"Delta":224521481},{"NoteNumber":55,"Velocity":36,"Duration":149253,"SoundDuration":149253,"Delta":224521481},{"NoteNumber":59,"Velocity":30,"Duration":307148,"SoundDuration":307148,"Delta":224521481},{"NoteNumber":79,"Velocity":49,"Duration":157894,"SoundDuration":157894,"Delta":224670735},{"NoteNumber":47,"Velocity":32,"Duration":157894,"SoundDuration":157894,"Delta":224670735},{"NoteNumber":74,"Velocity":56,"Duration":148514,"SoundDuration":148514,"Delta":224828630},{"NoteNumber":45,"Velocity":25,"Duration":1731643,"SoundDuration":1731643,"Delta":224828630},{"NoteNumber":50,"Velocity":25,"Duration":1731643,"SoundDuration":1731643,"Delta":224828630},{"NoteNumber":60,"Velocity":30,"Duration":1731643,"SoundDuration":1731643,"Delta":224828630},{"NoteNumber":86,"Velocity":44,"Duration":143540,"SoundDuration":143540,"Delta":224977144},{"NoteNumber":85,"Velocity":45,"Duration":143540,"SoundDuration":143540,"Delta":225120685},{"NoteNumber":84,"Velocity":46,"Duration":143540,"SoundDuration":143540,"Delta":225264226},{"NoteNumber":81,"Velocity":47,"Duration":143540,"SoundDuration":143540,"Delta":225407767},{"NoteNumber":78,"Velocity":47,"Duration":143540,"SoundDuration":143540,"Delta":225551307},{"NoteNumber":75,"Velocity":48,"Duration":143540,"SoundDuration":143540,"Delta":225694848},{"NoteNumber":74,"Velocity":49,"Duration":143540,"SoundDuration":143540,"Delta":225838389},{"NoteNumber":73,"Velocity":50,"Duration":143540,"SoundDuration":143540,"Delta":225981930},{"NoteNumber":72,"Velocity":51,"Duration":143540,"SoundDuration":143540,"Delta":226125470},{"NoteNumber":69,"Velocity":52,"Duration":145631,"SoundDuration":145631,"Delta":226269011},{"NoteNumber":66,"Velocity":53,"Duration":145630,"SoundDuration":145630,"Delta":226414642},{"NoteNumber":67,"Velocity":51,"Duration":295566,"SoundDuration":295566,"Delta":226560273},{"NoteNumber":63,"Velocity":61,"Duration":147783,"SoundDuration":147783,"Delta":226560273},{"NoteNumber":59,"Velocity":30,"Duration":601244,"SoundDuration":601244,"Delta":226560273},{"NoteNumber":47,"Velocity":25,"Duration":601244,"SoundDuration":601244,"Delta":226560273},{"NoteNumber":50,"Velocity":25,"Duration":601244,"SoundDuration":601244,"Delta":226560273},{"NoteNumber":62,"Velocity":47,"Duration":147783,"SoundDuration":147783,"Delta":226708056},{"NoteNumber":67,"Velocity":49,"Duration":305678,"SoundDuration":305678,"Delta":226855840},{"NoteNumber":76,"Velocity":58,"Duration":147783,"SoundDuration":147783,"Delta":226855840},{"NoteNumber":74,"Velocity":47,"Duration":157894,"SoundDuration":157894,"Delta":227003623},{"NoteNumber":74,"Velocity":56,"Duration":151515,"SoundDuration":151515,"Delta":227161518},{"NoteNumber":45,"Velocity":25,"Duration":1756298,"SoundDuration":1756298,"Delta":227161518},{"NoteNumber":60,"Velocity":30,"Duration":1756298,"SoundDuration":1756298,"Delta":227161518},{"NoteNumber":50,"Velocity":25,"Duration":1756298,"SoundDuration":1756298,"Delta":227161518},{"NoteNumber":86,"Velocity":44,"Duration":145631,"SoundDuration":145631,"Delta":227313033},{"NoteNumber":85,"Velocity":45,"Duration":145630,"SoundDuration":145630,"Delta":227458664},{"NoteNumber":84,"Velocity":46,"Duration":145631,"SoundDuration":145631,"Delta":227604295},{"NoteNumber":81,"Velocity":47,"Duration":145631,"SoundDuration":145631,"Delta":227749926},{"NoteNumber":78,"Velocity":47,"Duration":145630,"SoundDuration":145630,"Delta":227895557},{"NoteNumber":75,"Velocity":48,"Duration":145631,"SoundDuration":145631,"Delta":228041188},{"NoteNumber":74,"Velocity":49,"Duration":145631,"SoundDuration":145631,"Delta":228186819},{"NoteNumber":73,"Velocity":50,"Duration":146341,"SoundDuration":146341,"Delta":228332450},{"NoteNumber":72,"Velocity":51,"Duration":146341,"SoundDuration":146341,"Delta":228478791},{"NoteNumber":69,"Velocity":52,"Duration":146341,"SoundDuration":146341,"Delta":228625133},{"NoteNumber":66,"Velocity":53,"Duration":146341,"SoundDuration":146341,"Delta":228771474},{"NoteNumber":67,"Velocity":51,"Duration":292683,"SoundDuration":292683,"Delta":228917816},{"NoteNumber":63,"Velocity":61,"Duration":146341,"SoundDuration":146341,"Delta":228917816},{"NoteNumber":47,"Velocity":25,"Duration":600375,"SoundDuration":600375,"Delta":228917816},{"NoteNumber":59,"Velocity":30,"Duration":600375,"SoundDuration":600375,"Delta":228917816},{"NoteNumber":50,"Velocity":25,"Duration":600375,"SoundDuration":600375,"Delta":228917816},{"NoteNumber":62,"Velocity":47,"Duration":146341,"SoundDuration":146341,"Delta":229064157},{"NoteNumber":67,"Velocity":49,"Duration":307692,"SoundDuration":307692,"Delta":229210499},{"NoteNumber":76,"Velocity":58,"Duration":153846,"SoundDuration":153846,"Delta":229210499},{"NoteNumber":74,"Velocity":47,"Duration":153846,"SoundDuration":153846,"Delta":229364345},{"NoteNumber":74,"Velocity":52,"Duration":156250,"SoundDuration":156250,"Delta":229518191},{"NoteNumber":35,"Velocity":25,"Duration":606249,"SoundDuration":606249,"Delta":229518191},{"NoteNumber":47,"Velocity":30,"Duration":606249,"SoundDuration":606249,"Delta":229518191},{"NoteNumber":71,"Velocity":45,"Duration":150000,"SoundDuration":150000,"Delta":229674441},{"NoteNumber":79,"Velocity":54,"Duration":150000,"SoundDuration":150000,"Delta":229674441},{"NoteNumber":83,"Velocity":58,"Duration":150000,"SoundDuration":150000,"Delta":229824441},{"NoteNumber":74,"Velocity":49,"Duration":150000,"SoundDuration":150000,"Delta":229824441},{"NoteNumber":72,"Velocity":44,"Duration":149999,"SoundDuration":149999,"Delta":229974441},{"NoteNumber":81,"Velocity":52,"Duration":149999,"SoundDuration":149999,"Delta":229974441},{"NoteNumber":71,"Velocity":58,"Duration":147783,"SoundDuration":147783,"Delta":230124441},{"NoteNumber":79,"Velocity":58,"Duration":1199233,"SoundDuration":1199233,"Delta":230124441},{"NoteNumber":52,"Velocity":28,"Duration":601244,"SoundDuration":601244,"Delta":230124441},{"NoteNumber":40,"Velocity":23,"Duration":601244,"SoundDuration":601244,"Delta":230124441},{"NoteNumber":75,"Velocity":50,"Duration":147783,"SoundDuration":147783,"Delta":230272225},{"NoteNumber":76,"Velocity":55,"Duration":147783,"SoundDuration":147783,"Delta":230420008},{"NoteNumber":71,"Velocity":50,"Duration":157894,"SoundDuration":157894,"Delta":230567791},{"NoteNumber":70,"Velocity":54,"Duration":147783,"SoundDuration":147783,"Delta":230725686},{"NoteNumber":37,"Velocity":25,"Duration":597989,"SoundDuration":597989,"Delta":230725686},{"NoteNumber":49,"Velocity":30,"Duration":597989,"SoundDuration":597989,"Delta":230725686},{"NoteNumber":75,"Velocity":58,"Duration":147783,"SoundDuration":147783,"Delta":230873469},{"NoteNumber":76,"Velocity":58,"Duration":147783,"SoundDuration":147783,"Delta":231021252},{"NoteNumber":70,"Velocity":53,"Duration":154639,"SoundDuration":154639,"Delta":231169036},{"NoteNumber":69,"Velocity":56,"Duration":149253,"SoundDuration":149253,"Delta":231323675},{"NoteNumber":50,"Velocity":29,"Duration":298507,"SoundDuration":298507,"Delta":231323675},{"NoteNumber":38,"Velocity":24,"Duration":298507,"SoundDuration":298507,"Delta":231323675},{"NoteNumber":73,"Velocity":50,"Duration":149253,"SoundDuration":149253,"Delta":231472929},{"NoteNumber":74,"Velocity":60,"Duration":149253,"SoundDuration":149253,"Delta":231622182},{"NoteNumber":86,"Velocity":54,"Duration":158730,"SoundDuration":158730,"Delta":231771436},{"NoteNumber":86,"Velocity":61,"Duration":148514,"SoundDuration":148514,"Delta":231930166},{"NoteNumber":62,"Velocity":25,"Duration":1731643,"SoundDuration":1731643,"Delta":231930166},{"NoteNumber":72,"Velocity":30,"Duration":1731643,"SoundDuration":1731643,"Delta":231930166},{"NoteNumber":57,"Velocity":25,"Duration":1731643,"SoundDuration":1731643,"Delta":231930166},{"NoteNumber":98,"Velocity":48,"Duration":143540,"SoundDuration":143540,"Delta":232078681},{"NoteNumber":97,"Velocity":49,"Duration":143540,"SoundDuration":143540,"Delta":232222222},{"NoteNumber":96,"Velocity":50,"Duration":143540,"SoundDuration":143540,"Delta":232365763},{"NoteNumber":93,"Velocity":51,"Duration":143540,"SoundDuration":143540,"Delta":232509303},{"NoteNumber":90,"Velocity":51,"Duration":143540,"SoundDuration":143540,"Delta":232652844},{"NoteNumber":87,"Velocity":52,"Duration":143540,"SoundDuration":143540,"Delta":232796385},{"NoteNumber":86,"Velocity":53,"Duration":143540,"SoundDuration":143540,"Delta":232939926},{"NoteNumber":85,"Velocity":55,"Duration":143540,"SoundDuration":143540,"Delta":233083466},{"NoteNumber":84,"Velocity":56,"Duration":143540,"SoundDuration":143540,"Delta":233227007},{"NoteNumber":81,"Velocity":64,"Duration":145631,"SoundDuration":145631,"Delta":233370548},{"NoteNumber":78,"Velocity":67,"Duration":145630,"SoundDuration":145630,"Delta":233516179},{"NoteNumber":75,"Velocity":72,"Duration":147783,"SoundDuration":147783,"Delta":233661810},{"NoteNumber":79,"Velocity":60,"Duration":295566,"SoundDuration":295566,"Delta":233661810},{"NoteNumber":71,"Velocity":30,"Duration":601244,"SoundDuration":601244,"Delta":233661810},{"NoteNumber":59,"Velocity":25,"Duration":601244,"SoundDuration":601244,"Delta":233661810},{"NoteNumber":62,"Velocity":25,"Duration":601244,"SoundDuration":601244,"Delta":233661810},{"NoteNumber":74,"Velocity":51,"Duration":147783,"SoundDuration":147783,"Delta":233809593},{"NoteNumber":79,"Velocity":53,"Duration":305678,"SoundDuration":305678,"Delta":233957376},{"NoteNumber":88,"Velocity":63,"Duration":147783,"SoundDuration":147783,"Delta":233957376},{"NoteNumber":86,"Velocity":51,"Duration":157894,"SoundDuration":157894,"Delta":234105160},{"NoteNumber":86,"Velocity":61,"Duration":151515,"SoundDuration":151515,"Delta":234263054},{"NoteNumber":45,"Velocity":25,"Duration":1756298,"SoundDuration":1756298,"Delta":234263054},{"NoteNumber":50,"Velocity":25,"Duration":1756298,"SoundDuration":1756298,"Delta":234263054},{"NoteNumber":60,"Velocity":30,"Duration":1756298,"SoundDuration":1756298,"Delta":234263054},{"NoteNumber":98,"Velocity":48,"Duration":145631,"SoundDuration":145631,"Delta":234414570},{"NoteNumber":97,"Velocity":49,"Duration":145630,"SoundDuration":145630,"Delta":234560201},{"NoteNumber":96,"Velocity":50,"Duration":145631,"SoundDuration":145631,"Delta":234705832},{"NoteNumber":93,"Velocity":51,"Duration":145631,"SoundDuration":145631,"Delta":234851463},{"NoteNumber":90,"Velocity":51,"Duration":145630,"SoundDuration":145630,"Delta":234997094},{"NoteNumber":87,"Velocity":52,"Duration":145631,"SoundDuration":145631,"Delta":235142725},{"NoteNumber":86,"Velocity":53,"Duration":145631,"SoundDuration":145631,"Delta":235288356},{"NoteNumber":85,"Velocity":57,"Duration":146341,"SoundDuration":146341,"Delta":235433987},{"NoteNumber":84,"Velocity":53,"Duration":146341,"SoundDuration":146341,"Delta":235580328},{"NoteNumber":81,"Velocity":61,"Duration":146341,"SoundDuration":146341,"Delta":235726670},{"NoteNumber":78,"Velocity":63,"Duration":146341,"SoundDuration":146341,"Delta":235873011},{"NoteNumber":75,"Velocity":67,"Duration":146341,"SoundDuration":146341,"Delta":236019353},{"NoteNumber":79,"Velocity":54,"Duration":292683,"SoundDuration":292683,"Delta":236019353},{"NoteNumber":50,"Velocity":25,"Duration":292683,"SoundDuration":292683,"Delta":236019353},{"NoteNumber":47,"Velocity":25,"Duration":292683,"SoundDuration":292683,"Delta":236019353},{"NoteNumber":59,"Velocity":30,"Duration":292683,"SoundDuration":292683,"Delta":236019353},{"NoteNumber":74,"Velocity":51,"Duration":146341,"SoundDuration":146341,"Delta":236165694},{"NoteNumber":88,"Velocity":63,"Duration":153846,"SoundDuration":153846,"Delta":236312036},{"NoteNumber":79,"Velocity":53,"Duration":307692,"SoundDuration":307692,"Delta":236312036},{"NoteNumber":59,"Velocity":30,"Duration":305128,"SoundDuration":305128,"Delta":236312036},{"NoteNumber":86,"Velocity":51,"Duration":153846,"SoundDuration":153846,"Delta":236465882},{"NoteNumber":86,"Velocity":56,"Duration":156250,"SoundDuration":156250,"Delta":236619728},{"NoteNumber":59,"Velocity":30,"Duration":593142,"SoundDuration":593142,"Delta":236619728},{"NoteNumber":79,"Velocity":54,"Duration":145631,"SoundDuration":145631,"Delta":236775978},{"NoteNumber":71,"Velocity":45,"Duration":145631,"SoundDuration":145631,"Delta":236775978},{"NoteNumber":74,"Velocity":49,"Duration":145630,"SoundDuration":145630,"Delta":236921609},{"NoteNumber":83,"Velocity":58,"Duration":145630,"SoundDuration":145630,"Delta":236921609},{"NoteNumber":72,"Velocity":44,"Duration":145631,"SoundDuration":145631,"Delta":237067240},{"NoteNumber":81,"Velocity":52,"Duration":145631,"SoundDuration":145631,"Delta":237067240},{"NoteNumber":79,"Velocity":58,"Duration":1180049,"SoundDuration":1180049,"Delta":237212871},{"NoteNumber":71,"Velocity":58,"Duration":145631,"SoundDuration":145631,"Delta":237212871},{"NoteNumber":64,"Velocity":28,"Duration":594787,"SoundDuration":594787,"Delta":237212871},{"NoteNumber":75,"Velocity":50,"Duration":145630,"SoundDuration":145630,"Delta":237358502},{"NoteNumber":76,"Velocity":55,"Duration":145631,"SoundDuration":145631,"Delta":237504133},{"NoteNumber":71,"Velocity":50,"Duration":157894,"SoundDuration":157894,"Delta":237649764},{"NoteNumber":70,"Velocity":54,"Duration":143540,"SoundDuration":143540,"Delta":237807659},{"NoteNumber":61,"Velocity":30,"Duration":585261,"SoundDuration":585261,"Delta":237807659},{"NoteNumber":75,"Velocity":58,"Duration":143540,"SoundDuration":143540,"Delta":237951200},{"NoteNumber":76,"Velocity":58,"Duration":143540,"SoundDuration":143540,"Delta":238094740},{"NoteNumber":70,"Velocity":53,"Duration":154639,"SoundDuration":154639,"Delta":238238281},{"NoteNumber":78,"Velocity":54,"Duration":289854,"SoundDuration":289854,"Delta":238392920},{"NoteNumber":69,"Velocity":56,"Duration":144927,"SoundDuration":144927,"Delta":238392920},{"NoteNumber":62,"Velocity":29,"Duration":289854,"SoundDuration":289854,"Delta":238392920},{"NoteNumber":74,"Velocity":50,"Duration":144927,"SoundDuration":144927,"Delta":238537848},{"NoteNumber":79,"Velocity":54,"Duration":303657,"SoundDuration":303657,"Delta":238682775},{"NoteNumber":67,"Velocity":60,"Duration":144927,"SoundDuration":144927,"Delta":238682775},{"NoteNumber":63,"Velocity":29,"Duration":303657,"SoundDuration":303657,"Delta":238682775},{"NoteNumber":72,"Velocity":50,"Duration":158730,"SoundDuration":158730,"Delta":238827703},{"NoteNumber":79,"Velocity":54,"Duration":156250,"SoundDuration":156250,"Delta":238986433},{"NoteNumber":64,"Velocity":31,"Duration":591032,"SoundDuration":591032,"Delta":238986433},{"NoteNumber":76,"Velocity":47,"Duration":144927,"SoundDuration":144927,"Delta":239142683},{"NoteNumber":84,"Velocity":57,"Duration":144927,"SoundDuration":144927,"Delta":239142683},{"NoteNumber":79,"Velocity":52,"Duration":144927,"SoundDuration":144927,"Delta":239287611},{"NoteNumber":88,"Velocity":62,"Duration":144927,"SoundDuration":144927,"Delta":239287611},{"NoteNumber":86,"Velocity":56,"Duration":144927,"SoundDuration":144927,"Delta":239432538},{"NoteNumber":77,"Velocity":47,"Duration":144927,"SoundDuration":144927,"Delta":239432538},{"NoteNumber":84,"Velocity":63,"Duration":1186340,"SoundDuration":1186340,"Delta":239577466},{"NoteNumber":76,"Velocity":63,"Duration":146341,"SoundDuration":146341,"Delta":239577466},{"NoteNumber":69,"Velocity":30,"Duration":596919,"SoundDuration":596919,"Delta":239577466},{"NoteNumber":80,"Velocity":55,"Duration":146341,"SoundDuration":146341,"Delta":239723807},{"NoteNumber":81,"Velocity":61,"Duration":146341,"SoundDuration":146341,"Delta":239870149},{"NoteNumber":75,"Velocity":56,"Duration":157894,"SoundDuration":157894,"Delta":240016490},{"NoteNumber":75,"Velocity":61,"Duration":144927,"SoundDuration":144927,"Delta":240174385},{"NoteNumber":66,"Velocity":33,"Duration":589421,"SoundDuration":589421,"Delta":240174385},{"NoteNumber":80,"Velocity":66,"Duration":144927,"SoundDuration":144927,"Delta":240319312},{"NoteNumber":81,"Velocity":66,"Duration":144927,"SoundDuration":144927,"Delta":240464240},{"NoteNumber":75,"Velocity":62,"Duration":154639,"SoundDuration":154639,"Delta":240609167},{"NoteNumber":83,"Velocity":63,"Duration":291261,"SoundDuration":291261,"Delta":240763807},{"NoteNumber":74,"Velocity":66,"Duration":145631,"SoundDuration":145631,"Delta":240763807},{"NoteNumber":67,"Velocity":34,"Duration":291261,"SoundDuration":291261,"Delta":240763807},{"NoteNumber":79,"Velocity":59,"Duration":145630,"SoundDuration":145630,"Delta":240909438},{"NoteNumber":72,"Velocity":72,"Duration":145631,"SoundDuration":145631,"Delta":241055069},{"NoteNumber":84,"Velocity":64,"Duration":304361,"SoundDuration":304361,"Delta":241055069},{"NoteNumber":68,"Velocity":34,"Duration":304361,"SoundDuration":304361,"Delta":241055069},{"NoteNumber":77,"Velocity":60,"Duration":158730,"SoundDuration":158730,"Delta":241200700},{"NoteNumber":84,"Velocity":63,"Duration":156250,"SoundDuration":156250,"Delta":241359430},{"NoteNumber":69,"Velocity":36,"Duration":591032,"SoundDuration":591032,"Delta":241359430},{"NoteNumber":81,"Velocity":55,"Duration":144927,"SoundDuration":144927,"Delta":241515680},{"NoteNumber":89,"Velocity":66,"Duration":144927,"SoundDuration":144927,"Delta":241515680},{"NoteNumber":93,"Velocity":71,"Duration":144927,"SoundDuration":144927,"Delta":241660607},{"NoteNumber":84,"Velocity":60,"Duration":144927,"SoundDuration":144927,"Delta":241660607},{"NoteNumber":91,"Velocity":65,"Duration":144927,"SoundDuration":144927,"Delta":241805535},{"NoteNumber":82,"Velocity":55,"Duration":144927,"SoundDuration":144927,"Delta":241805535},{"NoteNumber":89,"Velocity":73,"Duration":1184250,"SoundDuration":1184250,"Delta":241950462},{"NoteNumber":80,"Velocity":73,"Duration":146341,"SoundDuration":146341,"Delta":241950462},{"NoteNumber":73,"Velocity":35,"Duration":596919,"SoundDuration":596919,"Delta":241950462},{"NoteNumber":77,"Velocity":63,"Duration":146341,"SoundDuration":146341,"Delta":242096804},{"NoteNumber":80,"Velocity":70,"Duration":146341,"SoundDuration":146341,"Delta":242243145},{"NoteNumber":79,"Velocity":65,"Duration":157894,"SoundDuration":157894,"Delta":242389487},{"NoteNumber":80,"Velocity":70,"Duration":144230,"SoundDuration":144230,"Delta":242547382},{"NoteNumber":71,"Velocity":39,"Duration":587331,"SoundDuration":587331,"Delta":242547382},{"NoteNumber":85,"Velocity":73,"Duration":144230,"SoundDuration":144230,"Delta":242691612},{"NoteNumber":86,"Velocity":77,"Duration":144230,"SoundDuration":144230,"Delta":242835843},{"NoteNumber":80,"Velocity":71,"Duration":154639,"SoundDuration":154639,"Delta":242980074},{"NoteNumber":79,"Velocity":75,"Duration":145631,"SoundDuration":145631,"Delta":243134713},{"NoteNumber":88,"Velocity":78,"Duration":913083,"SoundDuration":913083,"Delta":243134713},{"NoteNumber":60,"Velocity":39,"Duration":913083,"SoundDuration":913083,"Delta":243134713},{"NoteNumber":72,"Velocity":39,"Duration":913083,"SoundDuration":913083,"Delta":243134713},{"NoteNumber":83,"Velocity":68,"Duration":145630,"SoundDuration":145630,"Delta":243280344},{"NoteNumber":84,"Velocity":82,"Duration":145631,"SoundDuration":145631,"Delta":243425975},{"NoteNumber":79,"Velocity":69,"Duration":158730,"SoundDuration":158730,"Delta":243571606},{"NoteNumber":84,"Velocity":74,"Duration":317460,"SoundDuration":317460,"Delta":243730336},{"NoteNumber":76,"Velocity":79,"Duration":292683,"SoundDuration":292683,"Delta":244047797},{"NoteNumber":84,"Velocity":79,"Duration":292683,"SoundDuration":292683,"Delta":244047797},{"NoteNumber":79,"Velocity":79,"Duration":292683,"SoundDuration":292683,"Delta":244047797},{"NoteNumber":88,"Velocity":93,"Duration":292683,"SoundDuration":292683,"Delta":244047797},{"NoteNumber":48,"Velocity":66,"Duration":292683,"SoundDuration":292683,"Delta":244047797},{"NoteNumber":36,"Velocity":56,"Duration":292683,"SoundDuration":292683,"Delta":244047797},{"NoteNumber":83,"Velocity":74,"Duration":307692,"SoundDuration":307692,"Delta":244340480},{"NoteNumber":86,"Velocity":88,"Duration":307692,"SoundDuration":307692,"Delta":244340480},{"NoteNumber":84,"Velocity":74,"Duration":148514,"SoundDuration":148514,"Delta":244648172},{"NoteNumber":88,"Velocity":86,"Duration":148514,"SoundDuration":148514,"Delta":244648172},{"NoteNumber":89,"Velocity":92,"Duration":148514,"SoundDuration":148514,"Delta":244796687},{"NoteNumber":86,"Velocity":78,"Duration":148514,"SoundDuration":148514,"Delta":244796687},{"NoteNumber":91,"Velocity":96,"Duration":148514,"SoundDuration":148514,"Delta":244945202},{"NoteNumber":88,"Velocity":81,"Duration":148514,"SoundDuration":148514,"Delta":244945202},{"NoteNumber":84,"Velocity":77,"Duration":148514,"SoundDuration":148514,"Delta":245242231},{"NoteNumber":88,"Velocity":91,"Duration":148514,"SoundDuration":148514,"Delta":245242231},{"NoteNumber":60,"Velocity":69,"Duration":148514,"SoundDuration":148514,"Delta":245242231},{"NoteNumber":64,"Velocity":82,"Duration":148514,"SoundDuration":148514,"Delta":245242231},{"NoteNumber":59,"Velocity":67,"Duration":297029,"SoundDuration":297029,"Delta":245539261},{"NoteNumber":62,"Velocity":79,"Duration":297029,"SoundDuration":297029,"Delta":245539261},{"NoteNumber":60,"Velocity":68,"Duration":148514,"SoundDuration":148514,"Delta":245836290},{"NoteNumber":64,"Velocity":81,"Duration":148514,"SoundDuration":148514,"Delta":245836290},{"NoteNumber":62,"Velocity":71,"Duration":148514,"SoundDuration":148514,"Delta":245984805},{"NoteNumber":65,"Velocity":84,"Duration":148514,"SoundDuration":148514,"Delta":245984805},{"NoteNumber":64,"Velocity":74,"Duration":148514,"SoundDuration":148514,"Delta":246133320},{"NoteNumber":67,"Velocity":88,"Duration":148514,"SoundDuration":148514,"Delta":246133320},{"NoteNumber":88,"Velocity":93,"Duration":292683,"SoundDuration":292683,"Delta":246430349},{"NoteNumber":79,"Velocity":79,"Duration":292683,"SoundDuration":292683,"Delta":246430349},{"NoteNumber":84,"Velocity":79,"Duration":292683,"SoundDuration":292683,"Delta":246430349},{"NoteNumber":76,"Velocity":79,"Duration":292683,"SoundDuration":292683,"Delta":246430349},{"NoteNumber":36,"Velocity":56,"Duration":292683,"SoundDuration":292683,"Delta":246430349},{"NoteNumber":48,"Velocity":66,"Duration":292683,"SoundDuration":292683,"Delta":246430349},{"NoteNumber":83,"Velocity":74,"Duration":307692,"SoundDuration":307692,"Delta":246723032},{"NoteNumber":86,"Velocity":88,"Duration":307692,"SoundDuration":307692,"Delta":246723032},{"NoteNumber":88,"Velocity":86,"Duration":148514,"SoundDuration":148514,"Delta":247030725},{"NoteNumber":84,"Velocity":74,"Duration":148514,"SoundDuration":148514,"Delta":247030725},{"NoteNumber":86,"Velocity":78,"Duration":148514,"SoundDuration":148514,"Delta":247179240},{"NoteNumber":89,"Velocity":92,"Duration":148514,"SoundDuration":148514,"Delta":247179240},{"NoteNumber":91,"Velocity":96,"Duration":148514,"SoundDuration":148514,"Delta":247327754},{"NoteNumber":88,"Velocity":81,"Duration":148514,"SoundDuration":148514,"Delta":247327754},{"NoteNumber":91,"Velocity":103,"Duration":297029,"SoundDuration":297029,"Delta":247624784},{"NoteNumber":88,"Velocity":86,"Duration":297029,"SoundDuration":297029,"Delta":247624784},{"NoteNumber":81,"Velocity":86,"Duration":297029,"SoundDuration":297029,"Delta":247624784},{"NoteNumber":79,"Velocity":86,"Duration":297029,"SoundDuration":297029,"Delta":247624784},{"NoteNumber":37,"Velocity":62,"Duration":297029,"SoundDuration":297029,"Delta":247624784},{"NoteNumber":49,"Velocity":74,"Duration":297029,"SoundDuration":297029,"Delta":247624784},{"NoteNumber":85,"Velocity":86,"Duration":297029,"SoundDuration":297029,"Delta":248218843},{"NoteNumber":88,"Velocity":86,"Duration":297029,"SoundDuration":297029,"Delta":248218843},{"NoteNumber":91,"Velocity":103,"Duration":297029,"SoundDuration":297029,"Delta":248218843},{"NoteNumber":79,"Velocity":86,"Duration":297029,"SoundDuration":297029,"Delta":248218843},{"NoteNumber":45,"Velocity":79,"Duration":297029,"SoundDuration":297029,"Delta":248218843},{"NoteNumber":33,"Velocity":67,"Duration":297029,"SoundDuration":297029,"Delta":248218843},{"NoteNumber":91,"Velocity":103,"Duration":297029,"SoundDuration":297029,"Delta":248812902},{"NoteNumber":83,"Velocity":86,"Duration":297029,"SoundDuration":297029,"Delta":248812902},{"NoteNumber":86,"Velocity":86,"Duration":297029,"SoundDuration":297029,"Delta":248812902},{"NoteNumber":79,"Velocity":86,"Duration":297029,"SoundDuration":297029,"Delta":248812902},{"NoteNumber":38,"Velocity":62,"Duration":297029,"SoundDuration":297029,"Delta":248812902},{"NoteNumber":50,"Velocity":74,"Duration":297029,"SoundDuration":297029,"Delta":248812902},{"NoteNumber":79,"Velocity":86,"Duration":297029,"SoundDuration":297029,"Delta":249406961},{"NoteNumber":85,"Velocity":86,"Duration":297029,"SoundDuration":297029,"Delta":249406961},{"NoteNumber":81,"Velocity":86,"Duration":297029,"SoundDuration":297029,"Delta":249406961},{"NoteNumber":91,"Velocity":103,"Duration":297029,"SoundDuration":297029,"Delta":249406961},{"NoteNumber":40,"Velocity":67,"Duration":297029,"SoundDuration":297029,"Delta":249406961},{"NoteNumber":52,"Velocity":79,"Duration":297029,"SoundDuration":297029,"Delta":249406961},{"NoteNumber":91,"Velocity":77,"Duration":559185,"SoundDuration":559185,"Delta":249703990},{"NoteNumber":79,"Velocity":65,"Duration":559185,"SoundDuration":559185,"Delta":249703990},{"NoteNumber":83,"Velocity":65,"Duration":559185,"SoundDuration":559185,"Delta":249703990},{"NoteNumber":86,"Velocity":65,"Duration":559185,"SoundDuration":559185,"Delta":249703990},{"NoteNumber":38,"Velocity":50,"Duration":146341,"SoundDuration":146341,"Delta":249703990},{"NoteNumber":42,"Velocity":50,"Duration":137614,"SoundDuration":137614,"Delta":249850332},{"NoteNumber":43,"Velocity":50,"Duration":137614,"SoundDuration":137614,"Delta":249987947},{"NoteNumber":47,"Velocity":50,"Duration":137614,"SoundDuration":137614,"Delta":250125561},{"NoteNumber":86,"Velocity":64,"Duration":825688,"SoundDuration":825688,"Delta":250263176},{"NoteNumber":79,"Velocity":54,"Duration":825688,"SoundDuration":825688,"Delta":250263176},{"NoteNumber":83,"Velocity":54,"Duration":825688,"SoundDuration":825688,"Delta":250263176},{"NoteNumber":50,"Velocity":50,"Duration":137614,"SoundDuration":137614,"Delta":250263176},{"NoteNumber":54,"Velocity":50,"Duration":137614,"SoundDuration":137614,"Delta":250400791},{"NoteNumber":55,"Velocity":50,"Duration":137614,"SoundDuration":137614,"Delta":250538406},{"NoteNumber":59,"Velocity":50,"Duration":137614,"SoundDuration":137614,"Delta":250676020},{"NoteNumber":62,"Velocity":50,"Duration":137614,"SoundDuration":137614,"Delta":250813635},{"NoteNumber":66,"Velocity":50,"Duration":137614,"SoundDuration":137614,"Delta":250951250},{"NoteNumber":74,"Velocity":53,"Duration":275229,"SoundDuration":275229,"Delta":251088865},{"NoteNumber":79,"Velocity":53,"Duration":275229,"SoundDuration":275229,"Delta":251088865},{"NoteNumber":83,"Velocity":63,"Duration":275229,"SoundDuration":275229,"Delta":251088865},{"NoteNumber":67,"Velocity":50,"Duration":137614,"SoundDuration":137614,"Delta":251088865},{"NoteNumber":71,"Velocity":50,"Duration":137614,"SoundDuration":137614,"Delta":251226479},{"NoteNumber":74,"Velocity":56,"Duration":137614,"SoundDuration":137614,"Delta":251364094},{"NoteNumber":78,"Velocity":57,"Duration":137614,"SoundDuration":137614,"Delta":251501709},{"NoteNumber":79,"Velocity":58,"Duration":137614,"SoundDuration":137614,"Delta":251639324},{"NoteNumber":67,"Velocity":43,"Duration":137614,"SoundDuration":137614,"Delta":251639324},{"NoteNumber":83,"Velocity":59,"Duration":137614,"SoundDuration":137614,"Delta":251776938},{"NoteNumber":71,"Velocity":44,"Duration":137614,"SoundDuration":137614,"Delta":251776938},{"NoteNumber":85,"Velocity":60,"Duration":137614,"SoundDuration":137614,"Delta":251914553},{"NoteNumber":73,"Velocity":45,"Duration":137614,"SoundDuration":137614,"Delta":251914553},{"NoteNumber":86,"Velocity":61,"Duration":137614,"SoundDuration":137614,"Delta":252052168},{"NoteNumber":74,"Velocity":46,"Duration":137614,"SoundDuration":137614,"Delta":252052168},{"NoteNumber":88,"Velocity":62,"Duration":137614,"SoundDuration":137614,"Delta":252189783},{"NoteNumber":76,"Velocity":47,"Duration":137614,"SoundDuration":137614,"Delta":252189783},{"NoteNumber":86,"Velocity":62,"Duration":137614,"SoundDuration":137614,"Delta":252327397},{"NoteNumber":74,"Velocity":48,"Duration":137614,"SoundDuration":137614,"Delta":252327397},{"NoteNumber":90,"Velocity":63,"Duration":137614,"SoundDuration":137614,"Delta":252465012},{"NoteNumber":78,"Velocity":50,"Duration":137614,"SoundDuration":137614,"Delta":252465012},{"NoteNumber":91,"Velocity":64,"Duration":137614,"SoundDuration":137614,"Delta":252602627},{"NoteNumber":79,"Velocity":51,"Duration":137614,"SoundDuration":137614,"Delta":252602627},{"NoteNumber":93,"Velocity":65,"Duration":137614,"SoundDuration":137614,"Delta":252740242},{"NoteNumber":81,"Velocity":52,"Duration":137614,"SoundDuration":137614,"Delta":252740242},{"NoteNumber":91,"Velocity":66,"Duration":137815,"SoundDuration":137815,"Delta":252877856},{"NoteNumber":79,"Velocity":53,"Duration":137815,"SoundDuration":137815,"Delta":252877856},{"NoteNumber":94,"Velocity":67,"Duration":140033,"SoundDuration":140033,"Delta":253015672},{"NoteNumber":82,"Velocity":54,"Duration":140033,"SoundDuration":140033,"Delta":253015672},{"NoteNumber":95,"Velocity":68,"Duration":142920,"SoundDuration":142920,"Delta":253155705},{"NoteNumber":83,"Velocity":55,"Duration":142920,"SoundDuration":142920,"Delta":253155705},{"NoteNumber":96,"Velocity":69,"Duration":145919,"SoundDuration":145919,"Delta":253298625},{"NoteNumber":84,"Velocity":56,"Duration":145919,"SoundDuration":145919,"Delta":253298625},{"NoteNumber":95,"Velocity":70,"Duration":148695,"SoundDuration":148695,"Delta":253444545},{"NoteNumber":83,"Velocity":58,"Duration":148695,"SoundDuration":148695,"Delta":253444545},{"NoteNumber":98,"Velocity":71,"Duration":298507,"SoundDuration":298507,"Delta":253593240},{"NoteNumber":86,"Velocity":59,"Duration":298507,"SoundDuration":298507,"Delta":253593240},{"NoteNumber":81,"Velocity":59,"Duration":347694,"SoundDuration":347694,"Delta":253891748},{"NoteNumber":74,"Velocity":59,"Duration":347694,"SoundDuration":347694,"Delta":253891748},{"NoteNumber":84,"Velocity":70,"Duration":347694,"SoundDuration":347694,"Delta":253891748},{"NoteNumber":62,"Velocity":60,"Duration":105820,"SoundDuration":105820,"Delta":253891748},{"NoteNumber":64,"Velocity":63,"Duration":105820,"SoundDuration":105820,"Delta":253997568},{"NoteNumber":66,"Velocity":66,"Duration":136054,"SoundDuration":136054,"Delta":254103388},{"NoteNumber":83,"Velocity":58,"Duration":1161244,"SoundDuration":1161244,"Delta":254239443},{"NoteNumber":79,"Velocity":49,"Duration":1161244,"SoundDuration":1161244,"Delta":254239443},{"NoteNumber":74,"Velocity":49,"Duration":1161244,"SoundDuration":1161244,"Delta":254239443},{"NoteNumber":55,"Velocity":40,"Duration":199999,"SoundDuration":199999,"Delta":254239443},{"NoteNumber":71,"Velocity":32,"Duration":195693,"SoundDuration":195693,"Delta":254439443},{"NoteNumber":67,"Velocity":32,"Duration":191387,"SoundDuration":191387,"Delta":254635137},{"NoteNumber":66,"Velocity":40,"Duration":191387,"SoundDuration":191387,"Delta":254826524},{"NoteNumber":71,"Velocity":33,"Duration":191387,"SoundDuration":191387,"Delta":255017912},{"NoteNumber":67,"Velocity":33,"Duration":191387,"SoundDuration":191387,"Delta":255209300},{"NoteNumber":84,"Velocity":57,"Duration":582523,"SoundDuration":582523,"Delta":255400687},{"NoteNumber":79,"Velocity":48,"Duration":582523,"SoundDuration":582523,"Delta":255400687},{"NoteNumber":63,"Velocity":40,"Duration":194174,"SoundDuration":194174,"Delta":255400687},{"NoteNumber":72,"Velocity":31,"Duration":194174,"SoundDuration":194174,"Delta":255594862},{"NoteNumber":67,"Velocity":31,"Duration":194174,"SoundDuration":194174,"Delta":255789037},{"NoteNumber":84,"Velocity":51,"Duration":589673,"SoundDuration":589673,"Delta":255983211},{"NoteNumber":79,"Velocity":51,"Duration":589673,"SoundDuration":589673,"Delta":255983211},{"NoteNumber":87,"Velocity":61,"Duration":589673,"SoundDuration":589673,"Delta":255983211},{"NoteNumber":60,"Velocity":40,"Duration":189573,"SoundDuration":189573,"Delta":255983211},{"NoteNumber":72,"Velocity":33,"Duration":189573,"SoundDuration":189573,"Delta":256172785},{"NoteNumber":67,"Velocity":33,"Duration":210526,"SoundDuration":210526,"Delta":256362358},{"NoteNumber":91,"Velocity":56,"Duration":1147478,"SoundDuration":1147478,"Delta":256572884},{"NoteNumber":86,"Velocity":67,"Duration":566037,"SoundDuration":566037,"Delta":256572884},{"NoteNumber":79,"Velocity":56,"Duration":1147478,"SoundDuration":1147478,"Delta":256572884},{"NoteNumber":59,"Velocity":40,"Duration":188679,"SoundDuration":188679,"Delta":256572884},{"NoteNumber":71,"Velocity":31,"Duration":188679,"SoundDuration":188679,"Delta":256761564},{"NoteNumber":67,"Velocity":31,"Duration":188679,"SoundDuration":188679,"Delta":256950243},{"NoteNumber":83,"Velocity":61,"Duration":581440,"SoundDuration":581440,"Delta":257138922},{"NoteNumber":55,"Velocity":40,"Duration":188679,"SoundDuration":188679,"Delta":257138922},{"NoteNumber":71,"Velocity":32,"Duration":188679,"SoundDuration":188679,"Delta":257327602},{"NoteNumber":67,"Velocity":32,"Duration":204081,"SoundDuration":204081,"Delta":257516281},{"NoteNumber":84,"Velocity":51,"Duration":566037,"SoundDuration":566037,"Delta":257720363},{"NoteNumber":79,"Velocity":51,"Duration":566037,"SoundDuration":566037,"Delta":257720363},{"NoteNumber":87,"Velocity":60,"Duration":566037,"SoundDuration":566037,"Delta":257720363},{"NoteNumber":60,"Velocity":40,"Duration":188679,"SoundDuration":188679,"Delta":257720363},{"NoteNumber":72,"Velocity":33,"Duration":188679,"SoundDuration":188679,"Delta":257909042},{"NoteNumber":67,"Velocity":33,"Duration":188679,"SoundDuration":188679,"Delta":258097721},{"NoteNumber":79,"Velocity":53,"Duration":581440,"SoundDuration":581440,"Delta":258286401},{"NoteNumber":84,"Velocity":63,"Duration":581440,"SoundDuration":581440,"Delta":258286401},{"NoteNumber":63,"Velocity":40,"Duration":188679,"SoundDuration":188679,"Delta":258286401},{"NoteNumber":72,"Velocity":32,"Duration":188679,"SoundDuration":188679,"Delta":258475080},{"NoteNumber":67,"Velocity":32,"Duration":204081,"SoundDuration":204081,"Delta":258663759},{"NoteNumber":82,"Velocity":66,"Duration":566037,"SoundDuration":566037,"Delta":258867841},{"NoteNumber":79,"Velocity":56,"Duration":1146442,"SoundDuration":1146442,"Delta":258867841},{"NoteNumber":62,"Velocity":40,"Duration":188679,"SoundDuration":188679,"Delta":258867841},{"NoteNumber":70,"Velocity":32,"Duration":188679,"SoundDuration":188679,"Delta":259056520},{"NoteNumber":67,"Velocity":32,"Duration":188679,"SoundDuration":188679,"Delta":259245200},{"NoteNumber":83,"Velocity":59,"Duration":580404,"SoundDuration":580404,"Delta":259433879},{"NoteNumber":62,"Velocity":40,"Duration":188679,"SoundDuration":188679,"Delta":259433879},{"NoteNumber":71,"Velocity":36,"Duration":188679,"SoundDuration":188679,"Delta":259622558},{"NoteNumber":67,"Velocity":36,"Duration":203045,"SoundDuration":203045,"Delta":259811238},{"NoteNumber":78,"Velocity":54,"Duration":563379,"SoundDuration":563379,"Delta":260014283},{"NoteNumber":86,"Velocity":64,"Duration":563379,"SoundDuration":563379,"Delta":260014283},{"NoteNumber":62,"Velocity":40,"Duration":187793,"SoundDuration":187793,"Delta":260014283},{"NoteNumber":72,"Velocity":33,"Duration":187793,"SoundDuration":187793,"Delta":260202077},{"NoteNumber":69,"Velocity":33,"Duration":187793,"SoundDuration":187793,"Delta":260389870},{"NoteNumber":84,"Velocity":63,"Duration":435317,"SoundDuration":435317,"Delta":260577663},{"NoteNumber":81,"Velocity":53,"Duration":435317,"SoundDuration":435317,"Delta":260577663},{"NoteNumber":50,"Velocity":40,"Duration":187793,"SoundDuration":187793,"Delta":260577663},{"NoteNumber":62,"Velocity":34,"Duration":198019,"SoundDuration":198019,"Delta":260765457},{"NoteNumber":74,"Velocity":52,"Duration":298972,"SoundDuration":298972,"Delta":260864466},{"NoteNumber":60,"Velocity":34,"Duration":199962,"SoundDuration":199962,"Delta":260963476},{"NoteNumber":78,"Velocity":48,"Duration":150457,"SoundDuration":150457,"Delta":261012981},{"NoteNumber":81,"Velocity":57,"Duration":150457,"SoundDuration":150457,"Delta":261012981},{"NoteNumber":79,"Velocity":49,"Duration":117219,"SoundDuration":117219,"Delta":261163439},{"NoteNumber":74,"Velocity":49,"Duration":323480,"SoundDuration":323480,"Delta":261163439},{"NoteNumber":83,"Velocity":58,"Duration":1180241,"SoundDuration":1180241,"Delta":261163439},{"NoteNumber":43,"Velocity":40,"Duration":169818,"SoundDuration":169818,"Delta":261163439},{"NoteNumber":81,"Velocity":42,"Duration":105768,"SoundDuration":105768,"Delta":261280658},{"NoteNumber":55,"Velocity":33,"Duration":153662,"SoundDuration":153662,"Delta":261333257},{"NoteNumber":79,"Velocity":49,"Duration":102992,"SoundDuration":102992,"Delta":261386427},{"NoteNumber":59,"Velocity":33,"Duration":147443,"SoundDuration":147443,"Delta":261486919},{"NoteNumber":81,"Velocity":44,"Duration":99988,"SoundDuration":99988,"Delta":261488169},{"NoteNumber":79,"Velocity":49,"Duration":96750,"SoundDuration":96750,"Delta":261588158},{"NoteNumber":55,"Velocity":33,"Duration":143066,"SoundDuration":143066,"Delta":261634363},{"NoteNumber":81,"Velocity":44,"Duration":96093,"SoundDuration":96093,"Delta":261684908},{"NoteNumber":79,"Velocity":50,"Duration":95973,"SoundDuration":95973,"Delta":261777430},{"NoteNumber":54,"Velocity":41,"Duration":141963,"SoundDuration":141963,"Delta":261777430},{"NoteNumber":81,"Velocity":44,"Duration":94339,"SoundDuration":94339,"Delta":261873403},{"NoteNumber":55,"Velocity":35,"Duration":141509,"SoundDuration":141509,"Delta":261919394},{"NoteNumber":79,"Velocity":50,"Duration":95518,"SoundDuration":95518,"Delta":261967743},{"NoteNumber":67,"Velocity":35,"Duration":141509,"SoundDuration":141509,"Delta":262060903},{"NoteNumber":81,"Velocity":46,"Duration":95518,"SoundDuration":95518,"Delta":262062082},{"NoteNumber":79,"Velocity":51,"Duration":94339,"SoundDuration":94339,"Delta":262157601},{"NoteNumber":55,"Velocity":35,"Duration":141267,"SoundDuration":141267,"Delta":262202413},{"NoteNumber":81,"Velocity":45,"Duration":95243,"SoundDuration":95243,"Delta":262251941},{"NoteNumber":84,"Velocity":67,"Duration":558444,"SoundDuration":558444,"Delta":262343680},{"NoteNumber":79,"Velocity":51,"Duration":94626,"SoundDuration":94626,"Delta":262343680},{"NoteNumber":52,"Velocity":42,"Duration":140187,"SoundDuration":140187,"Delta":262343680},{"NoteNumber":81,"Velocity":44,"Duration":93457,"SoundDuration":93457,"Delta":262438306},{"NoteNumber":55,"Velocity":36,"Duration":139806,"SoundDuration":139806,"Delta":262483867},{"NoteNumber":79,"Velocity":52,"Duration":94235,"SoundDuration":94235,"Delta":262531764},{"NoteNumber":67,"Velocity":36,"Duration":139443,"SoundDuration":139443,"Delta":262623673},{"NoteNumber":81,"Velocity":47,"Duration":94186,"SoundDuration":94186,"Delta":262624836},{"NoteNumber":79,"Velocity":52,"Duration":92705,"SoundDuration":92705,"Delta":262719022},{"NoteNumber":55,"Velocity":37,"Duration":139007,"SoundDuration":139007,"Delta":262763117},{"NoteNumber":81,"Velocity":47,"Duration":93884,"SoundDuration":93884,"Delta":262811728},{"NoteNumber":79,"Velocity":53,"Duration":94430,"SoundDuration":94430,"Delta":262902124},{"NoteNumber":88,"Velocity":73,"Duration":586452,"SoundDuration":586452,"Delta":262902124},{"NoteNumber":48,"Velocity":44,"Duration":140035,"SoundDuration":140035,"Delta":262902124},{"NoteNumber":81,"Velocity":47,"Duration":93726,"SoundDuration":93726,"Delta":262996555},{"NoteNumber":55,"Velocity":37,"Duration":141299,"SoundDuration":141299,"Delta":263042160},{"NoteNumber":79,"Velocity":54,"Duration":95547,"SoundDuration":95547,"Delta":263090282},{"NoteNumber":64,"Velocity":37,"Duration":147615,"SoundDuration":147615,"Delta":263183459},{"NoteNumber":81,"Velocity":48,"Duration":96430,"SoundDuration":96430,"Delta":263184644},{"NoteNumber":79,"Velocity":54,"Duration":105263,"SoundDuration":105263,"Delta":263281075},{"NoteNumber":55,"Velocity":38,"Duration":157501,"SoundDuration":157501,"Delta":263331075},{"NoteNumber":81,"Velocity":48,"Duration":105793,"SoundDuration":105793,"Delta":263386338},{"NoteNumber":91,"Velocity":67,"Duration":1139767,"SoundDuration":1139767,"Delta":263488577},{"NoteNumber":79,"Velocity":55,"Duration":95971,"SoundDuration":95971,"Delta":263488577},{"NoteNumber":47,"Velocity":45,"Duration":142135,"SoundDuration":142135,"Delta":263488577},{"NoteNumber":81,"Velocity":47,"Duration":94512,"SoundDuration":94512,"Delta":263584548},{"NoteNumber":55,"Velocity":37,"Duration":141332,"SoundDuration":141332,"Delta":263630712},{"NoteNumber":79,"Velocity":55,"Duration":95330,"SoundDuration":95330,"Delta":263679061},{"NoteNumber":62,"Velocity":37,"Duration":140537,"SoundDuration":140537,"Delta":263772044},{"NoteNumber":81,"Velocity":50,"Duration":94971,"SoundDuration":94971,"Delta":263773218},{"NoteNumber":79,"Velocity":56,"Duration":93447,"SoundDuration":93447,"Delta":263868190},{"NoteNumber":55,"Velocity":37,"Duration":139752,"SoundDuration":139752,"Delta":263912582},{"NoteNumber":81,"Velocity":51,"Duration":94186,"SoundDuration":94186,"Delta":263961637},{"NoteNumber":79,"Velocity":56,"Duration":94186,"SoundDuration":94186,"Delta":264052335},{"NoteNumber":43,"Velocity":46,"Duration":139534,"SoundDuration":139534,"Delta":264052335},{"NoteNumber":81,"Velocity":50,"Duration":93180,"SoundDuration":93180,"Delta":264146521},{"NoteNumber":55,"Velocity":39,"Duration":140297,"SoundDuration":140297,"Delta":264191870},{"NoteNumber":79,"Velocity":57,"Duration":94812,"SoundDuration":94812,"Delta":264239702},{"NoteNumber":59,"Velocity":40,"Duration":145110,"SoundDuration":145110,"Delta":264332167},{"NoteNumber":81,"Velocity":51,"Duration":95467,"SoundDuration":95467,"Delta":264333341},{"NoteNumber":79,"Velocity":57,"Duration":102040,"SoundDuration":102040,"Delta":264428809},{"NoteNumber":55,"Velocity":40,"Duration":151066,"SoundDuration":151066,"Delta":264477278},{"NoteNumber":81,"Velocity":51,"Duration":101049,"SoundDuration":101049,"Delta":264530849},{"NoteNumber":88,"Velocity":72,"Duration":563355,"SoundDuration":563355,"Delta":264628344},{"NoteNumber":79,"Velocity":58,"Duration":95971,"SoundDuration":95971,"Delta":264628344},{"NoteNumber":48,"Velocity":48,"Duration":142029,"SoundDuration":142029,"Delta":264628344},{"NoteNumber":81,"Velocity":50,"Duration":94406,"SoundDuration":94406,"Delta":264724316},{"NoteNumber":55,"Velocity":42,"Duration":141227,"SoundDuration":141227,"Delta":264770373},{"NoteNumber":79,"Velocity":59,"Duration":95225,"SoundDuration":95225,"Delta":264818722},{"NoteNumber":64,"Velocity":42,"Duration":140341,"SoundDuration":140341,"Delta":264911601},{"NoteNumber":81,"Velocity":53,"Duration":94867,"SoundDuration":94867,"Delta":264912774},{"NoteNumber":79,"Velocity":59,"Duration":93137,"SoundDuration":93137,"Delta":265007642},{"NoteNumber":55,"Velocity":42,"Duration":139757,"SoundDuration":139757,"Delta":265051942},{"NoteNumber":81,"Velocity":53,"Duration":94425,"SoundDuration":94425,"Delta":265100779},{"NoteNumber":79,"Velocity":60,"Duration":94872,"SoundDuration":94872,"Delta":265191700},{"NoteNumber":84,"Velocity":77,"Duration":581335,"SoundDuration":581335,"Delta":265191700},{"NoteNumber":52,"Velocity":51,"Duration":140647,"SoundDuration":140647,"Delta":265191700},{"NoteNumber":81,"Velocity":52,"Duration":94057,"SoundDuration":94057,"Delta":265286573},{"NoteNumber":55,"Velocity":43,"Duration":141621,"SoundDuration":141621,"Delta":265332347},{"NoteNumber":79,"Velocity":60,"Duration":95708,"SoundDuration":95708,"Delta":265380630},{"NoteNumber":67,"Velocity":43,"Duration":146004,"SoundDuration":146004,"Delta":265473969},{"NoteNumber":81,"Velocity":55,"Duration":96350,"SoundDuration":96350,"Delta":265475154},{"NoteNumber":79,"Velocity":61,"Duration":102040,"SoundDuration":102040,"Delta":265571504},{"NoteNumber":55,"Velocity":43,"Duration":153061,"SoundDuration":153061,"Delta":265619974},{"NoteNumber":81,"Velocity":54,"Duration":103027,"SoundDuration":103027,"Delta":265673545},{"NoteNumber":82,"Velocity":83,"Duration":285242,"SoundDuration":285242,"Delta":265773035},{"NoteNumber":79,"Velocity":61,"Duration":96024,"SoundDuration":96024,"Delta":265773035},{"NoteNumber":50,"Velocity":50,"Duration":142452,"SoundDuration":142452,"Delta":265773035},{"NoteNumber":81,"Velocity":53,"Duration":95238,"SoundDuration":95238,"Delta":265869059},{"NoteNumber":52,"Velocity":44,"Duration":142789,"SoundDuration":142789,"Delta":265915488},{"NoteNumber":79,"Velocity":62,"Duration":96349,"SoundDuration":96349,"Delta":265964297},{"NoteNumber":83,"Velocity":75,"Duration":565873,"SoundDuration":565873,"Delta":266058277},{"NoteNumber":54,"Velocity":48,"Duration":142179,"SoundDuration":142179,"Delta":266058277},{"NoteNumber":81,"Velocity":56,"Duration":95971,"SoundDuration":95971,"Delta":266059462},{"NoteNumber":79,"Velocity":62,"Duration":94786,"SoundDuration":94786,"Delta":266155434},{"NoteNumber":55,"Velocity":51,"Duration":141844,"SoundDuration":141844,"Delta":266200457},{"NoteNumber":81,"Velocity":56,"Duration":95619,"SoundDuration":95619,"Delta":266250220},{"NoteNumber":79,"Velocity":63,"Duration":95518,"SoundDuration":95518,"Delta":266342302},{"NoteNumber":57,"Velocity":54,"Duration":141211,"SoundDuration":141211,"Delta":266342302},{"NoteNumber":81,"Velocity":55,"Duration":93590,"SoundDuration":93590,"Delta":266437821},{"NoteNumber":59,"Velocity":55,"Duration":140637,"SoundDuration":140637,"Delta":266483514},{"NoteNumber":79,"Velocity":64,"Duration":95098,"SoundDuration":95098,"Delta":266531411},{"NoteNumber":86,"Velocity":86,"Duration":295728,"SoundDuration":295728,"Delta":266624151},{"NoteNumber":57,"Velocity":55,"Duration":145296,"SoundDuration":145296,"Delta":266624151},{"NoteNumber":81,"Velocity":57,"Duration":95894,"SoundDuration":95894,"Delta":266625331},{"NoteNumber":79,"Velocity":64,"Duration":101522,"SoundDuration":101522,"Delta":266721225},{"NoteNumber":55,"Velocity":54,"Duration":150431,"SoundDuration":150431,"Delta":266769448},{"NoteNumber":81,"Velocity":56,"Duration":100686,"SoundDuration":100686,"Delta":266822748},{"NoteNumber":86,"Velocity":75,"Duration":95971,"SoundDuration":95971,"Delta":266919880},{"NoteNumber":54,"Velocity":54,"Duration":142029,"SoundDuration":142029,"Delta":266919880},{"NoteNumber":88,"Velocity":66,"Duration":94406,"SoundDuration":94406,"Delta":267015851},{"NoteNumber":55,"Velocity":49,"Duration":141227,"SoundDuration":141227,"Delta":267061909},{"NoteNumber":86,"Velocity":75,"Duration":95225,"SoundDuration":95225,"Delta":267110258},{"NoteNumber":74,"Velocity":60,"Duration":279670,"SoundDuration":279670,"Delta":267203136},{"NoteNumber":54,"Velocity":49,"Duration":140537,"SoundDuration":140537,"Delta":267203136},{"NoteNumber":88,"Velocity":64,"Duration":94971,"SoundDuration":94971,"Delta":267204310},{"NoteNumber":86,"Velocity":75,"Duration":93230,"SoundDuration":93230,"Delta":267299281},{"NoteNumber":52,"Velocity":49,"Duration":139132,"SoundDuration":139132,"Delta":267343674},{"NoteNumber":88,"Velocity":68,"Duration":93782,"SoundDuration":93782,"Delta":267392512},{"NoteNumber":86,"Velocity":78,"Duration":94224,"SoundDuration":94224,"Delta":267482806},{"NoteNumber":50,"Velocity":54,"Duration":139784,"SoundDuration":139784,"Delta":267482806},{"NoteNumber":88,"Velocity":69,"Duration":93512,"SoundDuration":93512,"Delta":267577030},{"NoteNumber":48,"Velocity":50,"Duration":140675,"SoundDuration":140675,"Delta":267622591},{"NoteNumber":86,"Velocity":75,"Duration":95070,"SoundDuration":95070,"Delta":267670543},{"NoteNumber":85,"Velocity":75,"Duration":141671,"SoundDuration":141671,"Delta":267763266},{"NoteNumber":47,"Velocity":59,"Duration":141671,"SoundDuration":141671,"Delta":267763266},{"NoteNumber":86,"Velocity":79,"Duration":142648,"SoundDuration":142648,"Delta":267904938},{"NoteNumber":45,"Velocity":66,"Duration":142648,"SoundDuration":142648,"Delta":267904938},{"NoteNumber":86,"Velocity":73,"Duration":133928,"SoundDuration":133928,"Delta":268047587},{"NoteNumber":95,"Velocity":73,"Duration":133928,"SoundDuration":133928,"Delta":268047587},{"NoteNumber":98,"Velocity":86,"Duration":133928,"SoundDuration":133928,"Delta":268047587},{"NoteNumber":89,"Velocity":73,"Duration":133928,"SoundDuration":133928,"Delta":268047587},{"NoteNumber":31,"Velocity":66,"Duration":133928,"SoundDuration":133928,"Delta":268047587},{"NoteNumber":43,"Velocity":56,"Duration":133928,"SoundDuration":133928,"Delta":268181515},{"NoteNumber":89,"Velocity":66,"Duration":543086,"SoundDuration":543086,"Delta":268315444},{"NoteNumber":95,"Velocity":66,"Duration":543086,"SoundDuration":543086,"Delta":268315444},{"NoteNumber":86,"Velocity":66,"Duration":543086,"SoundDuration":543086,"Delta":268315444},{"NoteNumber":98,"Velocity":78,"Duration":543086,"SoundDuration":543086,"Delta":268315444},{"NoteNumber":31,"Velocity":66,"Duration":133928,"SoundDuration":133928,"Delta":268315444},{"NoteNumber":43,"Velocity":56,"Duration":133928,"SoundDuration":133928,"Delta":268449372},{"NoteNumber":31,"Velocity":66,"Duration":137614,"SoundDuration":137614,"Delta":268583301},{"NoteNumber":43,"Velocity":57,"Duration":137614,"SoundDuration":137614,"Delta":268720915},{"NoteNumber":86,"Velocity":66,"Duration":140187,"SoundDuration":140187,"Delta":268858530},{"NoteNumber":84,"Velocity":66,"Duration":140187,"SoundDuration":140187,"Delta":268858530},{"NoteNumber":96,"Velocity":78,"Duration":140187,"SoundDuration":140187,"Delta":268858530},{"NoteNumber":89,"Velocity":66,"Duration":140187,"SoundDuration":140187,"Delta":268858530},{"NoteNumber":31,"Velocity":66,"Duration":140187,"SoundDuration":140187,"Delta":268858530},{"NoteNumber":43,"Velocity":57,"Duration":140186,"SoundDuration":140186,"Delta":268998717},{"NoteNumber":86,"Velocity":67,"Duration":133928,"SoundDuration":133928,"Delta":269138904},{"NoteNumber":95,"Velocity":79,"Duration":133928,"SoundDuration":133928,"Delta":269138904},{"NoteNumber":83,"Velocity":67,"Duration":133928,"SoundDuration":133928,"Delta":269138904},{"NoteNumber":89,"Velocity":67,"Duration":133928,"SoundDuration":133928,"Delta":269138904},{"NoteNumber":31,"Velocity":66,"Duration":133928,"SoundDuration":133928,"Delta":269138904},{"NoteNumber":43,"Velocity":57,"Duration":133928,"SoundDuration":133928,"Delta":269272833},{"NoteNumber":96,"Velocity":83,"Duration":133928,"SoundDuration":133928,"Delta":269406761},{"NoteNumber":89,"Velocity":70,"Duration":133928,"SoundDuration":133928,"Delta":269406761},{"NoteNumber":84,"Velocity":70,"Duration":133928,"SoundDuration":133928,"Delta":269406761},{"NoteNumber":86,"Velocity":70,"Duration":133928,"SoundDuration":133928,"Delta":269406761},{"NoteNumber":31,"Velocity":66,"Duration":133928,"SoundDuration":133928,"Delta":269406761},{"NoteNumber":43,"Velocity":58,"Duration":133928,"SoundDuration":133928,"Delta":269540690},{"NoteNumber":89,"Velocity":69,"Duration":133928,"SoundDuration":133928,"Delta":269674618},{"NoteNumber":86,"Velocity":69,"Duration":133928,"SoundDuration":133928,"Delta":269674618},{"NoteNumber":98,"Velocity":82,"Duration":133928,"SoundDuration":133928,"Delta":269674618},{"NoteNumber":31,"Velocity":66,"Duration":133928,"SoundDuration":133928,"Delta":269674618},{"NoteNumber":43,"Velocity":59,"Duration":133928,"SoundDuration":133928,"Delta":269808547},{"NoteNumber":88,"Velocity":58,"Duration":140187,"SoundDuration":140187,"Delta":269942475},{"NoteNumber":95,"Velocity":69,"Duration":140187,"SoundDuration":140187,"Delta":269942475},{"NoteNumber":83,"Velocity":58,"Duration":140187,"SoundDuration":140187,"Delta":269942475},{"NoteNumber":86,"Velocity":58,"Duration":140187,"SoundDuration":140187,"Delta":269942475},{"NoteNumber":32,"Velocity":45,"Duration":140187,"SoundDuration":140187,"Delta":269942475},{"NoteNumber":44,"Velocity":34,"Duration":140186,"SoundDuration":140186,"Delta":270082662},{"NoteNumber":84,"Velocity":50,"Duration":132743,"SoundDuration":132743,"Delta":270222849},{"NoteNumber":88,"Velocity":50,"Duration":132743,"SoundDuration":132743,"Delta":270222849},{"NoteNumber":96,"Velocity":59,"Duration":132743,"SoundDuration":132743,"Delta":270222849},{"NoteNumber":33,"Velocity":43,"Duration":132743,"SoundDuration":132743,"Delta":270222849},{"NoteNumber":45,"Velocity":33,"Duration":132743,"SoundDuration":132743,"Delta":270355592},{"NoteNumber":88,"Velocity":45,"Duration":132743,"SoundDuration":132743,"Delta":270488336},{"NoteNumber":86,"Velocity":45,"Duration":132743,"SoundDuration":132743,"Delta":270488336},{"NoteNumber":83,"Velocity":45,"Duration":132743,"SoundDuration":132743,"Delta":270488336},{"NoteNumber":95,"Velocity":53,"Duration":132743,"SoundDuration":132743,"Delta":270488336},{"NoteNumber":32,"Velocity":43,"Duration":132743,"SoundDuration":132743,"Delta":270488336},{"NoteNumber":44,"Velocity":33,"Duration":132743,"SoundDuration":132743,"Delta":270621079},{"NoteNumber":84,"Velocity":50,"Duration":132743,"SoundDuration":132743,"Delta":270753822},{"NoteNumber":88,"Velocity":50,"Duration":132743,"SoundDuration":132743,"Delta":270753822},{"NoteNumber":96,"Velocity":59,"Duration":132743,"SoundDuration":132743,"Delta":270753822},{"NoteNumber":33,"Velocity":43,"Duration":132743,"SoundDuration":132743,"Delta":270753822},{"NoteNumber":45,"Velocity":34,"Duration":132743,"SoundDuration":132743,"Delta":270886565},{"NoteNumber":84,"Velocity":45,"Duration":138248,"SoundDuration":138248,"Delta":271019309},{"NoteNumber":81,"Velocity":45,"Duration":138248,"SoundDuration":138248,"Delta":271019309},{"NoteNumber":93,"Velocity":53,"Duration":138248,"SoundDuration":138248,"Delta":271019309},{"NoteNumber":88,"Velocity":45,"Duration":138248,"SoundDuration":138248,"Delta":271019309},{"NoteNumber":36,"Velocity":43,"Duration":138248,"SoundDuration":138248,"Delta":271019309},{"NoteNumber":48,"Velocity":35,"Duration":138248,"SoundDuration":138248,"Delta":271157557},{"NoteNumber":91,"Velocity":59,"Duration":132158,"SoundDuration":132158,"Delta":271295806},{"NoteNumber":88,"Velocity":50,"Duration":132158,"SoundDuration":132158,"Delta":271295806},{"NoteNumber":81,"Velocity":50,"Duration":132158,"SoundDuration":132158,"Delta":271295806},{"NoteNumber":37,"Velocity":43,"Duration":132158,"SoundDuration":132158,"Delta":271295806},{"NoteNumber":49,"Velocity":33,"Duration":132158,"SoundDuration":132158,"Delta":271427965},{"NoteNumber":85,"Velocity":45,"Duration":132158,"SoundDuration":132158,"Delta":271560123},{"NoteNumber":91,"Velocity":53,"Duration":132158,"SoundDuration":132158,"Delta":271560123},{"NoteNumber":81,"Velocity":45,"Duration":132158,"SoundDuration":132158,"Delta":271560123},{"NoteNumber":40,"Velocity":43,"Duration":132158,"SoundDuration":132158,"Delta":271560123},{"NoteNumber":52,"Velocity":33,"Duration":132158,"SoundDuration":132158,"Delta":271692282},{"NoteNumber":81,"Velocity":50,"Duration":132158,"SoundDuration":132158,"Delta":271824440},{"NoteNumber":84,"Velocity":50,"Duration":132158,"SoundDuration":132158,"Delta":271824440},{"NoteNumber":90,"Velocity":59,"Duration":132158,"SoundDuration":132158,"Delta":271824440},{"NoteNumber":38,"Velocity":43,"Duration":132158,"SoundDuration":132158,"Delta":271824440},{"NoteNumber":50,"Velocity":34,"Duration":132158,"SoundDuration":132158,"Delta":271956599},{"NoteNumber":81,"Velocity":45,"Duration":137614,"SoundDuration":137614,"Delta":272088757},{"NoteNumber":93,"Velocity":53,"Duration":137614,"SoundDuration":137614,"Delta":272088757},{"NoteNumber":84,"Velocity":45,"Duration":137614,"SoundDuration":137614,"Delta":272088757},{"NoteNumber":38,"Velocity":43,"Duration":137614,"SoundDuration":137614,"Delta":272088757},{"NoteNumber":50,"Velocity":35,"Duration":137614,"SoundDuration":137614,"Delta":272226372},{"NoteNumber":79,"Velocity":55,"Duration":130434,"SoundDuration":130434,"Delta":272363987},{"NoteNumber":83,"Velocity":55,"Duration":130434,"SoundDuration":130434,"Delta":272363987},{"NoteNumber":91,"Velocity":64,"Duration":130434,"SoundDuration":130434,"Delta":272363987},{"NoteNumber":38,"Velocity":47,"Duration":130434,"SoundDuration":130434,"Delta":272363987},{"NoteNumber":50,"Velocity":36,"Duration":130434,"SoundDuration":130434,"Delta":272494421},{"NoteNumber":86,"Velocity":59,"Duration":130434,"SoundDuration":130434,"Delta":272624856},{"NoteNumber":74,"Velocity":50,"Duration":130434,"SoundDuration":130434,"Delta":272624856},{"NoteNumber":83,"Velocity":50,"Duration":130434,"SoundDuration":130434,"Delta":272624856},{"NoteNumber":43,"Velocity":48,"Duration":130434,"SoundDuration":130434,"Delta":272624856},{"NoteNumber":55,"Velocity":37,"Duration":130434,"SoundDuration":130434,"Delta":272755291},{"NoteNumber":90,"Velocity":69,"Duration":130434,"SoundDuration":130434,"Delta":272885726},{"NoteNumber":84,"Velocity":58,"Duration":130434,"SoundDuration":130434,"Delta":272885726},{"NoteNumber":78,"Velocity":58,"Duration":130434,"SoundDuration":130434,"Delta":272885726},{"NoteNumber":38,"Velocity":50,"Duration":130434,"SoundDuration":130434,"Delta":272885726},{"NoteNumber":50,"Velocity":40,"Duration":130434,"SoundDuration":130434,"Delta":273016160},{"NoteNumber":84,"Velocity":55,"Duration":136986,"SoundDuration":136986,"Delta":273146595},{"NoteNumber":93,"Velocity":65,"Duration":136986,"SoundDuration":136986,"Delta":273146595},{"NoteNumber":90,"Velocity":55,"Duration":136986,"SoundDuration":136986,"Delta":273146595},{"NoteNumber":81,"Velocity":55,"Duration":136986,"SoundDuration":136986,"Delta":273146595},{"NoteNumber":50,"Velocity":53,"Duration":136986,"SoundDuration":136986,"Delta":273146595},{"NoteNumber":62,"Velocity":44,"Duration":136986,"SoundDuration":136986,"Delta":273283581},{"NoteNumber":79,"Velocity":63,"Duration":130434,"SoundDuration":130434,"Delta":273420568},{"NoteNumber":91,"Velocity":75,"Duration":130434,"SoundDuration":130434,"Delta":273420568},{"NoteNumber":83,"Velocity":63,"Duration":130434,"SoundDuration":130434,"Delta":273420568},{"NoteNumber":38,"Velocity":54,"Duration":130434,"SoundDuration":130434,"Delta":273420568},{"NoteNumber":50,"Velocity":42,"Duration":130434,"SoundDuration":130434,"Delta":273551002},{"NoteNumber":74,"Velocity":59,"Duration":130434,"SoundDuration":130434,"Delta":273681437},{"NoteNumber":83,"Velocity":59,"Duration":130434,"SoundDuration":130434,"Delta":273681437},{"NoteNumber":86,"Velocity":69,"Duration":130434,"SoundDuration":130434,"Delta":273681437},{"NoteNumber":43,"Velocity":57,"Duration":130434,"SoundDuration":130434,"Delta":273681437},{"NoteNumber":55,"Velocity":44,"Duration":130434,"SoundDuration":130434,"Delta":273811872},{"NoteNumber":84,"Velocity":69,"Duration":130434,"SoundDuration":130434,"Delta":273942307},{"NoteNumber":78,"Velocity":69,"Duration":130434,"SoundDuration":130434,"Delta":273942307},{"NoteNumber":90,"Velocity":80,"Duration":130434,"SoundDuration":130434,"Delta":273942307},{"NoteNumber":38,"Velocity":58,"Duration":130434,"SoundDuration":130434,"Delta":273942307},{"NoteNumber":50,"Velocity":47,"Duration":130434,"SoundDuration":130434,"Delta":274072741},{"NoteNumber":90,"Velocity":64,"Duration":135746,"SoundDuration":135746,"Delta":274203176},{"NoteNumber":93,"Velocity":76,"Duration":135746,"SoundDuration":135746,"Delta":274203176},{"NoteNumber":84,"Velocity":64,"Duration":135746,"SoundDuration":135746,"Delta":274203176},{"NoteNumber":81,"Velocity":64,"Duration":135746,"SoundDuration":135746,"Delta":274203176},{"NoteNumber":50,"Velocity":61,"Duration":135746,"SoundDuration":135746,"Delta":274203176},{"NoteNumber":62,"Velocity":51,"Duration":135746,"SoundDuration":135746,"Delta":274338923},{"NoteNumber":79,"Velocity":77,"Duration":126582,"SoundDuration":126582,"Delta":274474669},{"NoteNumber":43,"Velocity":59,"Duration":126582,"SoundDuration":126582,"Delta":274474669},{"NoteNumber":91,"Velocity":70,"Duration":126582,"SoundDuration":126582,"Delta":274601251},{"NoteNumber":55,"Velocity":50,"Duration":126582,"SoundDuration":126582,"Delta":274601251},{"NoteNumber":74,"Velocity":79,"Duration":126582,"SoundDuration":126582,"Delta":274727834},{"NoteNumber":38,"Velocity":61,"Duration":126582,"SoundDuration":126582,"Delta":274727834},{"NoteNumber":86,"Velocity":73,"Duration":126582,"SoundDuration":126582,"Delta":274854416},{"NoteNumber":50,"Velocity":51,"Duration":126582,"SoundDuration":126582,"Delta":274854416},{"NoteNumber":78,"Velocity":82,"Duration":126582,"SoundDuration":126582,"Delta":274980998},{"NoteNumber":42,"Velocity":64,"Duration":126582,"SoundDuration":126582,"Delta":274980998},{"NoteNumber":90,"Velocity":76,"Duration":126582,"SoundDuration":126582,"Delta":275107580},{"NoteNumber":54,"Velocity":55,"Duration":126582,"SoundDuration":126582,"Delta":275107580},{"NoteNumber":81,"Velocity":85,"Duration":126582,"SoundDuration":126582,"Delta":275234163},{"NoteNumber":45,"Velocity":67,"Duration":126582,"SoundDuration":126582,"Delta":275234163},{"NoteNumber":93,"Velocity":79,"Duration":142179,"SoundDuration":142179,"Delta":275360745},{"NoteNumber":57,"Velocity":58,"Duration":142179,"SoundDuration":142179,"Delta":275360745},{"NoteNumber":79,"Velocity":88,"Duration":127659,"SoundDuration":127659,"Delta":275502925},{"NoteNumber":43,"Velocity":68,"Duration":127659,"SoundDuration":127659,"Delta":275502925},{"NoteNumber":91,"Velocity":82,"Duration":127659,"SoundDuration":127659,"Delta":275630584},{"NoteNumber":55,"Velocity":63,"Duration":127659,"SoundDuration":127659,"Delta":275630584},{"NoteNumber":74,"Velocity":91,"Duration":127659,"SoundDuration":127659,"Delta":275758244},{"NoteNumber":38,"Velocity":71,"Duration":127659,"SoundDuration":127659,"Delta":275758244},{"NoteNumber":86,"Velocity":86,"Duration":127659,"SoundDuration":127659,"Delta":275885903},{"NoteNumber":50,"Velocity":63,"Duration":127659,"SoundDuration":127659,"Delta":275885903},{"NoteNumber":78,"Velocity":94,"Duration":127659,"SoundDuration":127659,"Delta":276013563},{"NoteNumber":30,"Velocity":74,"Duration":127659,"SoundDuration":127659,"Delta":276013563},{"NoteNumber":90,"Velocity":90,"Duration":127659,"SoundDuration":127659,"Delta":276141222},{"NoteNumber":42,"Velocity":64,"Duration":127659,"SoundDuration":127659,"Delta":276141222},{"NoteNumber":81,"Velocity":99,"Duration":127659,"SoundDuration":127659,"Delta":276268882},{"NoteNumber":33,"Velocity":76,"Duration":127659,"SoundDuration":127659,"Delta":276268882},{"NoteNumber":93,"Velocity":92,"Duration":140845,"SoundDuration":140845,"Delta":276396541},{"NoteNumber":45,"Velocity":67,"Duration":140845,"SoundDuration":140845,"Delta":276396541},{"NoteNumber":79,"Velocity":91,"Duration":225000,"SoundDuration":225000,"Delta":276537386},{"NoteNumber":91,"Velocity":110,"Duration":225000,"SoundDuration":225000,"Delta":276537386},{"NoteNumber":43,"Velocity":81,"Duration":225000,"SoundDuration":225000,"Delta":276537386},{"NoteNumber":31,"Velocity":69,"Duration":225000,"SoundDuration":225000,"Delta":276537386},{"NoteNumber":81,"Velocity":94,"Duration":244565,"SoundDuration":244565,"Delta":277137386},{"NoteNumber":93,"Velocity":112,"Duration":244565,"SoundDuration":244565,"Delta":277137386},{"NoteNumber":33,"Velocity":69,"Duration":244565,"SoundDuration":244565,"Delta":277137386},{"NoteNumber":45,"Velocity":81,"Duration":244565,"SoundDuration":244565,"Delta":277137386},{"NoteNumber":83,"Velocity":99,"Duration":1403507,"SoundDuration":1403507,"Delta":277789560},{"NoteNumber":95,"Velocity":118,"Duration":1403507,"SoundDuration":1403507,"Delta":277789560},{"NoteNumber":35,"Velocity":72,"Duration":1403507,"SoundDuration":1403507,"Delta":277789560},{"NoteNumber":47,"Velocity":86,"Duration":1403507,"SoundDuration":1403507,"Delta":277789560},{"NoteNumber":83,"Velocity":91,"Duration":254237,"SoundDuration":254237,"Delta":279193068},{"NoteNumber":95,"Velocity":110,"Duration":254237,"SoundDuration":254237,"Delta":279193068},{"NoteNumber":47,"Velocity":81,"Duration":254237,"SoundDuration":254237,"Delta":279193068},{"NoteNumber":35,"Velocity":69,"Duration":254237,"SoundDuration":254237,"Delta":279193068},{"NoteNumber":84,"Velocity":94,"Duration":292207,"SoundDuration":292207,"Delta":279871034},{"NoteNumber":96,"Velocity":112,"Duration":292207,"SoundDuration":292207,"Delta":279871034},{"NoteNumber":48,"Velocity":81,"Duration":292207,"SoundDuration":292207,"Delta":279871034},{"NoteNumber":36,"Velocity":69,"Duration":292207,"SoundDuration":292207,"Delta":279871034},{"NoteNumber":86,"Velocity":99,"Duration":1558442,"SoundDuration":1558442,"Delta":280650255},{"NoteNumber":98,"Velocity":118,"Duration":1558442,"SoundDuration":1558442,"Delta":280650255},{"NoteNumber":50,"Velocity":86,"Duration":1558442,"SoundDuration":1558442,"Delta":280650255},{"NoteNumber":38,"Velocity":72,"Duration":1558442,"SoundDuration":1558442,"Delta":280650255},{"NoteNumber":74,"Velocity":43,"Duration":64935,"SoundDuration":64935,"Delta":282208697},{"NoteNumber":79,"Velocity":43,"Duration":64935,"SoundDuration":64935,"Delta":282208697},{"NoteNumber":86,"Velocity":51,"Duration":64935,"SoundDuration":64935,"Delta":282208697},{"NoteNumber":71,"Velocity":39,"Duration":129870,"SoundDuration":129870,"Delta":282208697},{"NoteNumber":67,"Velocity":33,"Duration":129870,"SoundDuration":129870,"Delta":282338568},{"NoteNumber":86,"Velocity":46,"Duration":522898,"SoundDuration":522898,"Delta":282468438},{"NoteNumber":79,"Velocity":39,"Duration":522898,"SoundDuration":522898,"Delta":282468438},{"NoteNumber":74,"Velocity":39,"Duration":522898,"SoundDuration":522898,"Delta":282468438},{"NoteNumber":71,"Velocity":39,"Duration":129870,"SoundDuration":129870,"Delta":282468438},{"NoteNumber":67,"Velocity":33,"Duration":129870,"SoundDuration":129870,"Delta":282598308},{"NoteNumber":71,"Velocity":39,"Duration":131578,"SoundDuration":131578,"Delta":282728178},{"NoteNumber":67,"Velocity":34,"Duration":131578,"SoundDuration":131578,"Delta":282859757},{"NoteNumber":79,"Velocity":39,"Duration":133928,"SoundDuration":133928,"Delta":282991336},{"NoteNumber":75,"Velocity":39,"Duration":133928,"SoundDuration":133928,"Delta":282991336},{"NoteNumber":84,"Velocity":46,"Duration":133928,"SoundDuration":133928,"Delta":282991336},{"NoteNumber":72,"Velocity":39,"Duration":133928,"SoundDuration":133928,"Delta":282991336},{"NoteNumber":67,"Velocity":34,"Duration":133928,"SoundDuration":133928,"Delta":283125265},{"NoteNumber":83,"Velocity":47,"Duration":129310,"SoundDuration":129310,"Delta":283259193},{"NoteNumber":77,"Velocity":40,"Duration":129310,"SoundDuration":129310,"Delta":283259193},{"NoteNumber":79,"Velocity":40,"Duration":129310,"SoundDuration":129310,"Delta":283259193},{"NoteNumber":74,"Velocity":39,"Duration":129310,"SoundDuration":129310,"Delta":283259193},{"NoteNumber":67,"Velocity":34,"Duration":129310,"SoundDuration":129310,"Delta":283388504},{"NoteNumber":84,"Velocity":49,"Duration":128755,"SoundDuration":128755,"Delta":283517814},{"NoteNumber":79,"Velocity":42,"Duration":128755,"SoundDuration":128755,"Delta":283517814},{"NoteNumber":75,"Velocity":42,"Duration":128755,"SoundDuration":128755,"Delta":283517814},{"NoteNumber":72,"Velocity":39,"Duration":128755,"SoundDuration":128755,"Delta":283517814},{"NoteNumber":67,"Velocity":34,"Duration":128755,"SoundDuration":128755,"Delta":283646569},{"NoteNumber":74,"Velocity":41,"Duration":128755,"SoundDuration":128755,"Delta":283775324},{"NoteNumber":86,"Velocity":49,"Duration":128755,"SoundDuration":128755,"Delta":283775324},{"NoteNumber":79,"Velocity":41,"Duration":128755,"SoundDuration":128755,"Delta":283775324},{"NoteNumber":71,"Velocity":39,"Duration":128755,"SoundDuration":128755,"Delta":283775324},{"NoteNumber":67,"Velocity":35,"Duration":128755,"SoundDuration":128755,"Delta":283904080},{"NoteNumber":79,"Velocity":34,"Duration":137614,"SoundDuration":137614,"Delta":284032835},{"NoteNumber":77,"Velocity":34,"Duration":137614,"SoundDuration":137614,"Delta":284032835},{"NoteNumber":83,"Velocity":41,"Duration":137614,"SoundDuration":137614,"Delta":284032835},{"NoteNumber":74,"Velocity":27,"Duration":137614,"SoundDuration":137614,"Delta":284032835},{"NoteNumber":67,"Velocity":20,"Duration":137614,"SoundDuration":137614,"Delta":284170450},{"NoteNumber":79,"Velocity":43,"Duration":65217,"SoundDuration":65217,"Delta":284308064},{"NoteNumber":75,"Velocity":43,"Duration":65217,"SoundDuration":65217,"Delta":284308064},{"NoteNumber":87,"Velocity":51,"Duration":65217,"SoundDuration":65217,"Delta":284308064},{"NoteNumber":72,"Velocity":39,"Duration":130434,"SoundDuration":130434,"Delta":284308064},{"NoteNumber":67,"Velocity":33,"Duration":130434,"SoundDuration":130434,"Delta":284438499},{"NoteNumber":79,"Velocity":39,"Duration":528726,"SoundDuration":528726,"Delta":284568934},{"NoteNumber":75,"Velocity":39,"Duration":528726,"SoundDuration":528726,"Delta":284568934},{"NoteNumber":87,"Velocity":46,"Duration":528726,"SoundDuration":528726,"Delta":284568934},{"NoteNumber":72,"Velocity":39,"Duration":130434,"SoundDuration":130434,"Delta":284568934},{"NoteNumber":67,"Velocity":33,"Duration":130434,"SoundDuration":130434,"Delta":284699369},{"NoteNumber":72,"Velocity":39,"Duration":133928,"SoundDuration":133928,"Delta":284829803},{"NoteNumber":67,"Velocity":34,"Duration":133928,"SoundDuration":133928,"Delta":284963732},{"NoteNumber":77,"Velocity":39,"Duration":136986,"SoundDuration":136986,"Delta":285097660},{"NoteNumber":79,"Velocity":39,"Duration":136986,"SoundDuration":136986,"Delta":285097660},{"NoteNumber":86,"Velocity":46,"Duration":136986,"SoundDuration":136986,"Delta":285097660},{"NoteNumber":74,"Velocity":39,"Duration":136986,"SoundDuration":136986,"Delta":285097660},{"NoteNumber":71,"Velocity":39,"Duration":136986,"SoundDuration":136986,"Delta":285097660},{"NoteNumber":67,"Velocity":34,"Duration":136986,"SoundDuration":136986,"Delta":285234647},{"NoteNumber":75,"Velocity":40,"Duration":128755,"SoundDuration":128755,"Delta":285371633},{"NoteNumber":79,"Velocity":40,"Duration":128755,"SoundDuration":128755,"Delta":285371633},{"NoteNumber":84,"Velocity":47,"Duration":128755,"SoundDuration":128755,"Delta":285371633},{"NoteNumber":72,"Velocity":39,"Duration":128755,"SoundDuration":128755,"Delta":285371633},{"NoteNumber":67,"Velocity":34,"Duration":128755,"SoundDuration":128755,"Delta":285500388},{"NoteNumber":77,"Velocity":42,"Duration":128755,"SoundDuration":128755,"Delta":285629143},{"NoteNumber":74,"Velocity":42,"Duration":128755,"SoundDuration":128755,"Delta":285629143},{"NoteNumber":79,"Velocity":42,"Duration":128755,"SoundDuration":128755,"Delta":285629143},{"NoteNumber":86,"Velocity":49,"Duration":128755,"SoundDuration":128755,"Delta":285629143},{"NoteNumber":71,"Velocity":39,"Duration":128755,"SoundDuration":128755,"Delta":285629143},{"NoteNumber":67,"Velocity":34,"Duration":128755,"SoundDuration":128755,"Delta":285757899},{"NoteNumber":87,"Velocity":49,"Duration":128755,"SoundDuration":128755,"Delta":285886654},{"NoteNumber":75,"Velocity":41,"Duration":128755,"SoundDuration":128755,"Delta":285886654},{"NoteNumber":79,"Velocity":41,"Duration":128755,"SoundDuration":128755,"Delta":285886654},{"NoteNumber":72,"Velocity":39,"Duration":128755,"SoundDuration":128755,"Delta":285886654},{"NoteNumber":67,"Velocity":35,"Duration":128755,"SoundDuration":128755,"Delta":286015409},{"NoteNumber":84,"Velocity":41,"Duration":140187,"SoundDuration":140187,"Delta":286144164},{"NoteNumber":79,"Velocity":34,"Duration":140187,"SoundDuration":140187,"Delta":286144164},{"NoteNumber":75,"Velocity":34,"Duration":140187,"SoundDuration":140187,"Delta":286144164},{"NoteNumber":72,"Velocity":27,"Duration":140187,"SoundDuration":140187,"Delta":286144164},{"NoteNumber":60,"Velocity":20,"Duration":140186,"SoundDuration":140186,"Delta":286284351},{"NoteNumber":80,"Velocity":47,"Duration":65217,"SoundDuration":65217,"Delta":286424538},{"NoteNumber":89,"Velocity":56,"Duration":65217,"SoundDuration":65217,"Delta":286424538},{"NoteNumber":77,"Velocity":47,"Duration":65217,"SoundDuration":65217,"Delta":286424538},{"NoteNumber":70,"Velocity":42,"Duration":130434,"SoundDuration":130434,"Delta":286424538},{"NoteNumber":58,"Velocity":36,"Duration":130434,"SoundDuration":130434,"Delta":286554973},{"NoteNumber":80,"Velocity":44,"Duration":526356,"SoundDuration":526356,"Delta":286685408},{"NoteNumber":77,"Velocity":44,"Duration":526356,"SoundDuration":526356,"Delta":286685408},{"NoteNumber":89,"Velocity":52,"Duration":526356,"SoundDuration":526356,"Delta":286685408},{"NoteNumber":62,"Velocity":44,"Duration":130434,"SoundDuration":130434,"Delta":286685408},{"NoteNumber":70,"Velocity":44,"Duration":130434,"SoundDuration":130434,"Delta":286685408},{"NoteNumber":58,"Velocity":38,"Duration":130434,"SoundDuration":130434,"Delta":286815843},{"NoteNumber":70,"Velocity":46,"Duration":132743,"SoundDuration":132743,"Delta":286946277},{"NoteNumber":62,"Velocity":46,"Duration":132743,"SoundDuration":132743,"Delta":286946277},{"NoteNumber":58,"Velocity":41,"Duration":132743,"SoundDuration":132743,"Delta":287079021},{"NoteNumber":79,"Velocity":48,"Duration":137614,"SoundDuration":137614,"Delta":287211764},{"NoteNumber":75,"Velocity":48,"Duration":137614,"SoundDuration":137614,"Delta":287211764},{"NoteNumber":87,"Velocity":57,"Duration":137614,"SoundDuration":137614,"Delta":287211764},{"NoteNumber":70,"Velocity":48,"Duration":137614,"SoundDuration":137614,"Delta":287211764},{"NoteNumber":63,"Velocity":48,"Duration":137614,"SoundDuration":137614,"Delta":287211764},{"NoteNumber":58,"Velocity":43,"Duration":137614,"SoundDuration":137614,"Delta":287349379},{"NoteNumber":86,"Velocity":61,"Duration":129870,"SoundDuration":129870,"Delta":287486993},{"NoteNumber":77,"Velocity":52,"Duration":129870,"SoundDuration":129870,"Delta":287486993},{"NoteNumber":74,"Velocity":52,"Duration":129870,"SoundDuration":129870,"Delta":287486993},{"NoteNumber":65,"Velocity":50,"Duration":129870,"SoundDuration":129870,"Delta":287486993},{"NoteNumber":70,"Velocity":50,"Duration":129870,"SoundDuration":129870,"Delta":287486993},{"NoteNumber":58,"Velocity":44,"Duration":129870,"SoundDuration":129870,"Delta":287616864},{"NoteNumber":87,"Velocity":66,"Duration":129870,"SoundDuration":129870,"Delta":287746734},{"NoteNumber":79,"Velocity":56,"Duration":129870,"SoundDuration":129870,"Delta":287746734},{"NoteNumber":75,"Velocity":56,"Duration":129870,"SoundDuration":129870,"Delta":287746734},{"NoteNumber":70,"Velocity":52,"Duration":129870,"SoundDuration":129870,"Delta":287746734},{"NoteNumber":63,"Velocity":52,"Duration":129870,"SoundDuration":129870,"Delta":287746734},{"NoteNumber":58,"Velocity":46,"Duration":129870,"SoundDuration":129870,"Delta":287876604},{"NoteNumber":80,"Velocity":57,"Duration":129870,"SoundDuration":129870,"Delta":288006474},{"NoteNumber":77,"Velocity":57,"Duration":129870,"SoundDuration":129870,"Delta":288006474},{"NoteNumber":89,"Velocity":68,"Duration":129870,"SoundDuration":129870,"Delta":288006474},{"NoteNumber":70,"Velocity":54,"Duration":129870,"SoundDuration":129870,"Delta":288006474},{"NoteNumber":62,"Velocity":54,"Duration":129870,"SoundDuration":129870,"Delta":288006474},{"NoteNumber":58,"Velocity":49,"Duration":129870,"SoundDuration":129870,"Delta":288136345},{"NoteNumber":86,"Velocity":67,"Duration":140187,"SoundDuration":140187,"Delta":288266215},{"NoteNumber":82,"Velocity":56,"Duration":140187,"SoundDuration":140187,"Delta":288266215},{"NoteNumber":74,"Velocity":56,"Duration":140187,"SoundDuration":140187,"Delta":288266215},{"NoteNumber":77,"Velocity":56,"Duration":140187,"SoundDuration":140187,"Delta":288266215},{"NoteNumber":44,"Velocity":44,"Duration":140187,"SoundDuration":140187,"Delta":288266215},{"NoteNumber":56,"Velocity":33,"Duration":140186,"SoundDuration":140186,"Delta":288406402},{"NoteNumber":91,"Velocity":105,"Duration":225000,"SoundDuration":225000,"Delta":288546589},{"NoteNumber":79,"Velocity":87,"Duration":225000,"SoundDuration":225000,"Delta":288546589},{"NoteNumber":87,"Velocity":87,"Duration":225000,"SoundDuration":225000,"Delta":288546589},{"NoteNumber":43,"Velocity":77,"Duration":149999,"SoundDuration":149999,"Delta":288546589},{"NoteNumber":55,"Velocity":70,"Duration":142500,"SoundDuration":142500,"Delta":288696589},{"NoteNumber":55,"Velocity":70,"Duration":149999,"SoundDuration":149999,"Delta":288846589},{"NoteNumber":67,"Velocity":70,"Duration":150000,"SoundDuration":150000,"Delta":288996589},{"NoteNumber":92,"Velocity":107,"Duration":244565,"SoundDuration":244565,"Delta":289146589},{"NoteNumber":80,"Velocity":90,"Duration":244565,"SoundDuration":244565,"Delta":289146589},{"NoteNumber":89,"Velocity":90,"Duration":244565,"SoundDuration":244565,"Delta":289146589},{"NoteNumber":41,"Velocity":77,"Duration":163043,"SoundDuration":163043,"Delta":289146589},{"NoteNumber":53,"Velocity":69,"Duration":154891,"SoundDuration":154891,"Delta":289309632},{"NoteNumber":53,"Velocity":69,"Duration":163043,"SoundDuration":163043,"Delta":289472676},{"NoteNumber":65,"Velocity":69,"Duration":191082,"SoundDuration":191082,"Delta":289635719},{"NoteNumber":94,"Velocity":113,"Duration":1403507,"SoundDuration":1403507,"Delta":289826802},{"NoteNumber":82,"Velocity":94,"Duration":1403507,"SoundDuration":1403507,"Delta":289826802},{"NoteNumber":91,"Velocity":94,"Duration":1403507,"SoundDuration":1403507,"Delta":289826802},{"NoteNumber":39,"Velocity":85,"Duration":175438,"SoundDuration":175438,"Delta":289826802},{"NoteNumber":51,"Velocity":67,"Duration":166666,"SoundDuration":166666,"Delta":290002241},{"NoteNumber":63,"Velocity":82,"Duration":1052630,"SoundDuration":1052630,"Delta":290177679},{"NoteNumber":51,"Velocity":69,"Duration":1052630,"SoundDuration":1052630,"Delta":290177679},{"NoteNumber":67,"Velocity":50,"Duration":204545,"SoundDuration":204545,"Delta":291230310},{"NoteNumber":63,"Velocity":42,"Duration":204545,"SoundDuration":204545,"Delta":291230310},{"NoteNumber":55,"Velocity":40,"Duration":136363,"SoundDuration":136363,"Delta":291503038},{"NoteNumber":58,"Velocity":35,"Duration":142179,"SoundDuration":142179,"Delta":291639401},{"NoteNumber":68,"Velocity":52,"Duration":199114,"SoundDuration":199114,"Delta":291781581},{"NoteNumber":65,"Velocity":44,"Duration":199114,"SoundDuration":199114,"Delta":291781581},{"NoteNumber":53,"Velocity":40,"Duration":132743,"SoundDuration":132743,"Delta":292047068},{"NoteNumber":56,"Velocity":34,"Duration":170454,"SoundDuration":170454,"Delta":292179811},{"NoteNumber":70,"Velocity":53,"Duration":1127831,"SoundDuration":1127831,"Delta":292350266},{"NoteNumber":67,"Velocity":45,"Duration":1127831,"SoundDuration":1127831,"Delta":292350266},{"NoteNumber":55,"Velocity":40,"Duration":847457,"SoundDuration":847457,"Delta":292630640},{"NoteNumber":51,"Velocity":93,"Duration":169491,"SoundDuration":169491,"Delta":293478097},{"NoteNumber":63,"Velocity":90,"Duration":467277,"SoundDuration":467277,"Delta":293647589},{"NoteNumber":63,"Velocity":61,"Duration":153141,"SoundDuration":153141,"Delta":294118793},{"NoteNumber":63,"Velocity":66,"Duration":314136,"SoundDuration":314136,"Delta":294275861},{"NoteNumber":51,"Velocity":57,"Duration":157067,"SoundDuration":157067,"Delta":296003609},{"NoteNumber":55,"Velocity":91,"Duration":157067,"SoundDuration":157067,"Delta":296003609},{"NoteNumber":63,"Velocity":77,"Duration":467277,"SoundDuration":467277,"Delta":296160677},{"NoteNumber":67,"Velocity":80,"Duration":467277,"SoundDuration":467277,"Delta":296160677},{"NoteNumber":63,"Velocity":56,"Duration":154450,"SoundDuration":154450,"Delta":296631881},{"NoteNumber":67,"Velocity":63,"Duration":153141,"SoundDuration":153141,"Delta":296631881},{"NoteNumber":63,"Velocity":63,"Duration":314135,"SoundDuration":314135,"Delta":296788949},{"NoteNumber":67,"Velocity":69,"Duration":314135,"SoundDuration":314135,"Delta":296788949},{"NoteNumber":46,"Velocity":40,"Duration":132158,"SoundDuration":132158,"Delta":298342330},{"NoteNumber":51,"Velocity":44,"Duration":394272,"SoundDuration":394272,"Delta":298474489},{"NoteNumber":51,"Velocity":40,"Duration":129955,"SoundDuration":129955,"Delta":298870964},{"NoteNumber":51,"Velocity":43,"Duration":264317,"SoundDuration":264317,"Delta":299003123},{"NoteNumber":53,"Velocity":44,"Duration":96982,"SoundDuration":96982,"Delta":299267440},{"NoteNumber":51,"Velocity":40,"Duration":102272,"SoundDuration":102272,"Delta":299396750},{"NoteNumber":39,"Velocity":40,"Duration":136363,"SoundDuration":136363,"Delta":299396750},{"NoteNumber":51,"Velocity":44,"Duration":99557,"SoundDuration":99557,"Delta":299533114},{"NoteNumber":44,"Velocity":44,"Duration":396017,"SoundDuration":396017,"Delta":299533114},{"NoteNumber":48,"Velocity":39,"Duration":99557,"SoundDuration":99557,"Delta":299798600},{"NoteNumber":44,"Velocity":40,"Duration":130530,"SoundDuration":130530,"Delta":299931343},{"NoteNumber":48,"Velocity":39,"Duration":534983,"SoundDuration":534983,"Delta":300064087},{"NoteNumber":44,"Velocity":43,"Duration":265486,"SoundDuration":265486,"Delta":300064087},{"NoteNumber":46,"Velocity":44,"Duration":96982,"SoundDuration":96982,"Delta":300329573},{"NoteNumber":44,"Velocity":40,"Duration":105140,"SoundDuration":105140,"Delta":300458883},{"NoteNumber":56,"Velocity":47,"Duration":99557,"SoundDuration":99557,"Delta":300599070},{"NoteNumber":44,"Velocity":44,"Duration":75221,"SoundDuration":75221,"Delta":300599070},{"NoteNumber":56,"Velocity":42,"Duration":96566,"SoundDuration":96566,"Delta":300864557},{"NoteNumber":41,"Velocity":39,"Duration":96566,"SoundDuration":96566,"Delta":300864557},{"NoteNumber":55,"Velocity":42,"Duration":102739,"SoundDuration":102739,"Delta":300993312},{"NoteNumber":53,"Velocity":47,"Duration":132743,"SoundDuration":132743,"Delta":301130298},{"NoteNumber":41,"Velocity":39,"Duration":531160,"SoundDuration":531160,"Delta":301130298},{"NoteNumber":53,"Velocity":44,"Duration":96982,"SoundDuration":96982,"Delta":301395785},{"NoteNumber":51,"Velocity":44,"Duration":102272,"SoundDuration":102272,"Delta":301525095},{"NoteNumber":50,"Velocity":47,"Duration":265486,"SoundDuration":265486,"Delta":301661459},{"NoteNumber":46,"Velocity":44,"Duration":99557,"SoundDuration":99557,"Delta":301661459},{"NoteNumber":46,"Velocity":44,"Duration":95744,"SoundDuration":95744,"Delta":301926945},{"NoteNumber":44,"Velocity":44,"Duration":104651,"SoundDuration":104651,"Delta":302054605},{"NoteNumber":50,"Velocity":39,"Duration":531940,"SoundDuration":531940,"Delta":302194140},{"NoteNumber":43,"Velocity":44,"Duration":132743,"SoundDuration":132743,"Delta":302194140},{"NoteNumber":43,"Velocity":44,"Duration":96153,"SoundDuration":96153,"Delta":302459626},{"NoteNumber":41,"Velocity":44,"Duration":103686,"SoundDuration":103686,"Delta":302587832},{"NoteNumber":58,"Velocity":50,"Duration":99118,"SoundDuration":99118,"Delta":302726080},{"NoteNumber":40,"Velocity":44,"Duration":264317,"SoundDuration":264317,"Delta":302726080},{"NoteNumber":58,"Velocity":44,"Duration":96153,"SoundDuration":96153,"Delta":302990397},{"NoteNumber":56,"Velocity":44,"Duration":103686,"SoundDuration":103686,"Delta":303118603},{"NoteNumber":55,"Velocity":48,"Duration":128205,"SoundDuration":128205,"Delta":303256851},{"NoteNumber":40,"Velocity":39,"Duration":530771,"SoundDuration":530771,"Delta":303256851},{"NoteNumber":55,"Velocity":44,"Duration":99118,"SoundDuration":99118,"Delta":303523305},{"NoteNumber":53,"Velocity":44,"Duration":99118,"SoundDuration":99118,"Delta":303655464},{"NoteNumber":52,"Velocity":48,"Duration":264317,"SoundDuration":264317,"Delta":303787622},{"NoteNumber":48,"Velocity":44,"Duration":99118,"SoundDuration":99118,"Delta":303787622},{"NoteNumber":48,"Velocity":44,"Duration":96153,"SoundDuration":96153,"Delta":304051939},{"NoteNumber":46,"Velocity":44,"Duration":103211,"SoundDuration":103211,"Delta":304180145},{"NoteNumber":52,"Velocity":39,"Duration":527726,"SoundDuration":527726,"Delta":304317759},{"NoteNumber":44,"Velocity":44,"Duration":128205,"SoundDuration":128205,"Delta":304317759},{"NoteNumber":44,"Velocity":44,"Duration":98684,"SoundDuration":98684,"Delta":304582328},{"NoteNumber":43,"Velocity":44,"Duration":98684,"SoundDuration":98684,"Delta":304713907},{"NoteNumber":60,"Velocity":48,"Duration":98684,"SoundDuration":98684,"Delta":304845486},{"NoteNumber":41,"Velocity":44,"Duration":263158,"SoundDuration":263158,"Delta":304845486},{"NoteNumber":60,"Velocity":44,"Duration":94142,"SoundDuration":94142,"Delta":305108644},{"NoteNumber":58,"Velocity":44,"Duration":102739,"SoundDuration":102739,"Delta":305234167},{"NoteNumber":48,"Velocity":37,"Duration":102739,"SoundDuration":102739,"Delta":305234167},{"NoteNumber":56,"Velocity":49,"Duration":127118,"SoundDuration":127118,"Delta":305371154},{"NoteNumber":53,"Velocity":37,"Duration":127118,"SoundDuration":127118,"Delta":305371154},{"NoteNumber":56,"Velocity":45,"Duration":98684,"SoundDuration":98684,"Delta":305634636},{"NoteNumber":53,"Velocity":38,"Duration":98684,"SoundDuration":98684,"Delta":305634636},{"NoteNumber":55,"Velocity":46,"Duration":98684,"SoundDuration":98684,"Delta":305766215},{"NoteNumber":51,"Velocity":38,"Duration":98684,"SoundDuration":98684,"Delta":305766215},{"NoteNumber":53,"Velocity":50,"Duration":98684,"SoundDuration":98684,"Delta":305897794},{"NoteNumber":50,"Velocity":46,"Duration":98684,"SoundDuration":98684,"Delta":305897794},{"NoteNumber":53,"Velocity":47,"Duration":94936,"SoundDuration":94936,"Delta":306160952},{"NoteNumber":50,"Velocity":39,"Duration":94936,"SoundDuration":94936,"Delta":306160952},{"NoteNumber":55,"Velocity":47,"Duration":102739,"SoundDuration":102739,"Delta":306287534},{"NoteNumber":48,"Velocity":39,"Duration":102739,"SoundDuration":102739,"Delta":306287534},{"NoteNumber":56,"Velocity":51,"Duration":125522,"SoundDuration":125522,"Delta":306424521},{"NoteNumber":46,"Velocity":39,"Duration":125522,"SoundDuration":125522,"Delta":306424521},{"NoteNumber":56,"Velocity":48,"Duration":98684,"SoundDuration":98684,"Delta":306685790},{"NoteNumber":48,"Velocity":40,"Duration":98684,"SoundDuration":98684,"Delta":306685790},{"NoteNumber":58,"Velocity":48,"Duration":98684,"SoundDuration":98684,"Delta":306817369},{"NoteNumber":50,"Velocity":40,"Duration":98684,"SoundDuration":98684,"Delta":306817369},{"NoteNumber":55,"Velocity":51,"Duration":130434,"SoundDuration":130434,"Delta":306948948},{"NoteNumber":51,"Velocity":48,"Duration":130434,"SoundDuration":130434,"Delta":306948948},{"NoteNumber":55,"Velocity":49,"Duration":95744,"SoundDuration":95744,"Delta":307209818},{"NoteNumber":43,"Velocity":41,"Duration":269168,"SoundDuration":269168,"Delta":307209818},{"NoteNumber":53,"Velocity":49,"Duration":106132,"SoundDuration":106132,"Delta":307337477},{"NoteNumber":51,"Velocity":55,"Duration":264317,"SoundDuration":264317,"Delta":307478987},{"NoteNumber":45,"Velocity":42,"Duration":264317,"SoundDuration":264317,"Delta":307478987},{"NoteNumber":48,"Velocity":42,"Duration":264317,"SoundDuration":264317,"Delta":307743304},{"NoteNumber":53,"Velocity":47,"Duration":132158,"SoundDuration":132158,"Delta":307743304},{"NoteNumber":65,"Velocity":46,"Duration":132158,"SoundDuration":132158,"Delta":307875462},{"NoteNumber":51,"Velocity":47,"Duration":132158,"SoundDuration":132158,"Delta":307875462},{"NoteNumber":70,"Velocity":56,"Duration":394272,"SoundDuration":394272,"Delta":308007621},{"NoteNumber":46,"Velocity":51,"Duration":99118,"SoundDuration":99118,"Delta":308007621},{"NoteNumber":50,"Velocity":43,"Duration":264317,"SoundDuration":264317,"Delta":308007621},{"NoteNumber":46,"Velocity":43,"Duration":99118,"SoundDuration":99118,"Delta":308271938},{"NoteNumber":70,"Velocity":47,"Duration":129955,"SoundDuration":129955,"Delta":308404096},{"NoteNumber":48,"Velocity":44,"Duration":99118,"SoundDuration":99118,"Delta":308404096},{"NoteNumber":70,"Velocity":55,"Duration":264317,"SoundDuration":264317,"Delta":308536255},{"NoteNumber":50,"Velocity":44,"Duration":132158,"SoundDuration":132158,"Delta":308536255},{"NoteNumber":72,"Velocity":53,"Duration":96982,"SoundDuration":96982,"Delta":308800572},{"NoteNumber":51,"Velocity":44,"Duration":96982,"SoundDuration":96982,"Delta":308800572},{"NoteNumber":70,"Velocity":48,"Duration":102272,"SoundDuration":102272,"Delta":308929882},{"NoteNumber":58,"Velocity":48,"Duration":136363,"SoundDuration":136363,"Delta":308929882},{"NoteNumber":53,"Velocity":45,"Duration":102272,"SoundDuration":102272,"Delta":308929882},{"NoteNumber":70,"Velocity":57,"Duration":99557,"SoundDuration":99557,"Delta":309066246},{"NoteNumber":51,"Velocity":54,"Duration":132743,"SoundDuration":132743,"Delta":309066246},{"NoteNumber":63,"Velocity":54,"Duration":396017,"SoundDuration":396017,"Delta":309066246},{"NoteNumber":67,"Velocity":48,"Duration":99557,"SoundDuration":99557,"Delta":309331732},{"NoteNumber":63,"Velocity":50,"Duration":130530,"SoundDuration":130530,"Delta":309464475},{"NoteNumber":67,"Velocity":49,"Duration":534983,"SoundDuration":534983,"Delta":309597219},{"NoteNumber":63,"Velocity":54,"Duration":265486,"SoundDuration":265486,"Delta":309597219},{"NoteNumber":65,"Velocity":55,"Duration":96982,"SoundDuration":96982,"Delta":309862705},{"NoteNumber":63,"Velocity":51,"Duration":105140,"SoundDuration":105140,"Delta":309992015},{"NoteNumber":75,"Velocity":61,"Duration":99557,"SoundDuration":99557,"Delta":310132202},{"NoteNumber":48,"Velocity":56,"Duration":99557,"SoundDuration":99557,"Delta":310132202},{"NoteNumber":63,"Velocity":56,"Duration":75221,"SoundDuration":75221,"Delta":310132202},{"NoteNumber":75,"Velocity":57,"Duration":96566,"SoundDuration":96566,"Delta":310397689},{"NoteNumber":60,"Velocity":50,"Duration":96566,"SoundDuration":96566,"Delta":310397689},{"NoteNumber":48,"Velocity":48,"Duration":96566,"SoundDuration":96566,"Delta":310397689},{"NoteNumber":74,"Velocity":57,"Duration":102739,"SoundDuration":102739,"Delta":310526444},{"NoteNumber":50,"Velocity":48,"Duration":102739,"SoundDuration":102739,"Delta":310526444},{"NoteNumber":72,"Velocity":62,"Duration":132743,"SoundDuration":132743,"Delta":310663430},{"NoteNumber":52,"Velocity":48,"Duration":132743,"SoundDuration":132743,"Delta":310663430},{"NoteNumber":60,"Velocity":51,"Duration":531160,"SoundDuration":531160,"Delta":310663430},{"NoteNumber":72,"Velocity":58,"Duration":96982,"SoundDuration":96982,"Delta":310928917},{"NoteNumber":53,"Velocity":49,"Duration":96982,"SoundDuration":96982,"Delta":310928917},{"NoteNumber":70,"Velocity":58,"Duration":102272,"SoundDuration":102272,"Delta":311058227},{"NoteNumber":55,"Velocity":49,"Duration":102272,"SoundDuration":102272,"Delta":311058227},{"NoteNumber":69,"Velocity":64,"Duration":265486,"SoundDuration":265486,"Delta":311194591},{"NoteNumber":65,"Velocity":59,"Duration":99557,"SoundDuration":99557,"Delta":311194591},{"NoteNumber":53,"Velocity":59,"Duration":132743,"SoundDuration":132743,"Delta":311194591},{"NoteNumber":65,"Velocity":59,"Duration":95744,"SoundDuration":95744,"Delta":311460077},{"NoteNumber":63,"Velocity":60,"Duration":104651,"SoundDuration":104651,"Delta":311587737},{"NoteNumber":69,"Velocity":53,"Duration":531940,"SoundDuration":531940,"Delta":311727272},{"NoteNumber":53,"Velocity":50,"Duration":132743,"SoundDuration":132743,"Delta":311727272},{"NoteNumber":62,"Velocity":60,"Duration":132743,"SoundDuration":132743,"Delta":311727272},{"NoteNumber":53,"Velocity":51,"Duration":96153,"SoundDuration":96153,"Delta":311992758},{"NoteNumber":62,"Velocity":61,"Duration":96153,"SoundDuration":96153,"Delta":311992758},{"NoteNumber":51,"Velocity":51,"Duration":103686,"SoundDuration":103686,"Delta":312120964},{"NoteNumber":60,"Velocity":61,"Duration":103686,"SoundDuration":103686,"Delta":312120964},{"NoteNumber":77,"Velocity":65,"Duration":99118,"SoundDuration":99118,"Delta":312259212},{"NoteNumber":50,"Velocity":61,"Duration":99118,"SoundDuration":99118,"Delta":312259212},{"NoteNumber":59,"Velocity":61,"Duration":264317,"SoundDuration":264317,"Delta":312259212},{"NoteNumber":77,"Velocity":62,"Duration":96153,"SoundDuration":96153,"Delta":312523529},{"NoteNumber":50,"Velocity":52,"Duration":96153,"SoundDuration":96153,"Delta":312523529},{"NoteNumber":75,"Velocity":62,"Duration":103686,"SoundDuration":103686,"Delta":312651735},{"NoteNumber":51,"Velocity":52,"Duration":103686,"SoundDuration":103686,"Delta":312651735},{"NoteNumber":74,"Velocity":66,"Duration":128205,"SoundDuration":128205,"Delta":312789983},{"NoteNumber":59,"Velocity":55,"Duration":530771,"SoundDuration":530771,"Delta":312789983},{"NoteNumber":53,"Velocity":52,"Duration":128205,"SoundDuration":128205,"Delta":312789983},{"NoteNumber":74,"Velocity":63,"Duration":99118,"SoundDuration":99118,"Delta":313056437},{"NoteNumber":55,"Velocity":53,"Duration":99118,"SoundDuration":99118,"Delta":313056437},{"NoteNumber":72,"Velocity":63,"Duration":99118,"SoundDuration":99118,"Delta":313188596},{"NoteNumber":56,"Velocity":53,"Duration":99118,"SoundDuration":99118,"Delta":313188596},{"NoteNumber":71,"Velocity":67,"Duration":264317,"SoundDuration":264317,"Delta":313320754},{"NoteNumber":67,"Velocity":64,"Duration":99118,"SoundDuration":99118,"Delta":313320754},{"NoteNumber":55,"Velocity":64,"Duration":132158,"SoundDuration":132158,"Delta":313320754},{"NoteNumber":67,"Velocity":65,"Duration":96153,"SoundDuration":96153,"Delta":313585071},{"NoteNumber":65,"Velocity":65,"Duration":103211,"SoundDuration":103211,"Delta":313713277},{"NoteNumber":71,"Velocity":53,"Duration":527726,"SoundDuration":527726,"Delta":313850891},{"NoteNumber":63,"Velocity":65,"Duration":128205,"SoundDuration":128205,"Delta":313850891},{"NoteNumber":55,"Velocity":55,"Duration":128205,"SoundDuration":128205,"Delta":313850891},{"NoteNumber":63,"Velocity":66,"Duration":98684,"SoundDuration":98684,"Delta":314115460},{"NoteNumber":55,"Velocity":55,"Duration":98684,"SoundDuration":98684,"Delta":314115460},{"NoteNumber":62,"Velocity":66,"Duration":98684,"SoundDuration":98684,"Delta":314247039},{"NoteNumber":53,"Velocity":55,"Duration":98684,"SoundDuration":98684,"Delta":314247039},{"NoteNumber":79,"Velocity":71,"Duration":98684,"SoundDuration":98684,"Delta":314378618},{"NoteNumber":51,"Velocity":66,"Duration":98684,"SoundDuration":98684,"Delta":314378618},{"NoteNumber":60,"Velocity":66,"Duration":98684,"SoundDuration":98684,"Delta":314378618},{"NoteNumber":79,"Velocity":67,"Duration":94142,"SoundDuration":94142,"Delta":314641776},{"NoteNumber":51,"Velocity":56,"Duration":94142,"SoundDuration":94142,"Delta":314641776},{"NoteNumber":60,"Velocity":59,"Duration":525991,"SoundDuration":525991,"Delta":314641776},{"NoteNumber":77,"Velocity":67,"Duration":102739,"SoundDuration":102739,"Delta":314767299},{"NoteNumber":53,"Velocity":56,"Duration":102739,"SoundDuration":102739,"Delta":314767299},{"NoteNumber":75,"Velocity":68,"Duration":127118,"SoundDuration":127118,"Delta":314904286},{"NoteNumber":55,"Velocity":57,"Duration":127118,"SoundDuration":127118,"Delta":314904286},{"NoteNumber":75,"Velocity":68,"Duration":98684,"SoundDuration":98684,"Delta":315167768},{"NoteNumber":57,"Velocity":57,"Duration":98684,"SoundDuration":98684,"Delta":315167768},{"NoteNumber":67,"Velocity":57,"Duration":98684,"SoundDuration":98684,"Delta":315167768},{"NoteNumber":74,"Velocity":69,"Duration":98684,"SoundDuration":98684,"Delta":315299347},{"NoteNumber":65,"Velocity":58,"Duration":98684,"SoundDuration":98684,"Delta":315299347},{"NoteNumber":59,"Velocity":58,"Duration":98684,"SoundDuration":98684,"Delta":315299347},{"NoteNumber":72,"Velocity":71,"Duration":98684,"SoundDuration":98684,"Delta":315430926},{"NoteNumber":60,"Velocity":69,"Duration":98684,"SoundDuration":98684,"Delta":315430926},{"NoteNumber":63,"Velocity":69,"Duration":98684,"SoundDuration":98684,"Delta":315430926},{"NoteNumber":72,"Velocity":69,"Duration":94936,"SoundDuration":94936,"Delta":315694084},{"NoteNumber":65,"Velocity":58,"Duration":94936,"SoundDuration":94936,"Delta":315694084},{"NoteNumber":50,"Velocity":58,"Duration":94936,"SoundDuration":94936,"Delta":315694084},{"NoteNumber":70,"Velocity":70,"Duration":102739,"SoundDuration":102739,"Delta":315820666},{"NoteNumber":67,"Velocity":59,"Duration":102739,"SoundDuration":102739,"Delta":315820666},{"NoteNumber":52,"Velocity":59,"Duration":102739,"SoundDuration":102739,"Delta":315820666},{"NoteNumber":68,"Velocity":74,"Duration":125522,"SoundDuration":125522,"Delta":315957653},{"NoteNumber":53,"Velocity":59,"Duration":125522,"SoundDuration":125522,"Delta":315957653},{"NoteNumber":60,"Velocity":59,"Duration":125522,"SoundDuration":125522,"Delta":315957653},{"NoteNumber":68,"Velocity":71,"Duration":98684,"SoundDuration":98684,"Delta":316218922},{"NoteNumber":60,"Velocity":59,"Duration":98684,"SoundDuration":98684,"Delta":316218922},{"NoteNumber":41,"Velocity":59,"Duration":98684,"SoundDuration":98684,"Delta":316218922},{"NoteNumber":67,"Velocity":71,"Duration":98684,"SoundDuration":98684,"Delta":316350501},{"NoteNumber":43,"Velocity":55,"Duration":98684,"SoundDuration":98684,"Delta":316350501},{"NoteNumber":58,"Velocity":60,"Duration":98684,"SoundDuration":98684,"Delta":316350501},{"NoteNumber":65,"Velocity":76,"Duration":130434,"SoundDuration":130434,"Delta":316482080},{"NoteNumber":60,"Velocity":72,"Duration":130434,"SoundDuration":130434,"Delta":316482080},{"NoteNumber":44,"Velocity":72,"Duration":130434,"SoundDuration":130434,"Delta":316482080},{"NoteNumber":65,"Velocity":72,"Duration":95744,"SoundDuration":95744,"Delta":316742950},{"NoteNumber":46,"Velocity":51,"Duration":269168,"SoundDuration":269168,"Delta":316742950},{"NoteNumber":62,"Velocity":61,"Duration":269168,"SoundDuration":269168,"Delta":316742950},{"NoteNumber":67,"Velocity":73,"Duration":106132,"SoundDuration":106132,"Delta":316870609},{"NoteNumber":68,"Velocity":76,"Duration":264317,"SoundDuration":264317,"Delta":317012119},{"NoteNumber":47,"Velocity":51,"Duration":264317,"SoundDuration":264317,"Delta":317012119},{"NoteNumber":63,"Velocity":61,"Duration":264317,"SoundDuration":264317,"Delta":317012119},{"NoteNumber":70,"Velocity":73,"Duration":264317,"SoundDuration":264317,"Delta":317276436},{"NoteNumber":62,"Velocity":62,"Duration":99118,"SoundDuration":99118,"Delta":317276436},{"NoteNumber":46,"Velocity":62,"Duration":99118,"SoundDuration":99118,"Delta":317276436},{"NoteNumber":62,"Velocity":62,"Duration":99118,"SoundDuration":99118,"Delta":317408594},{"NoteNumber":34,"Velocity":62,"Duration":99118,"SoundDuration":99118,"Delta":317408594},{"NoteNumber":65,"Velocity":62,"Duration":99118,"SoundDuration":99118,"Delta":317408594},{"NoteNumber":63,"Velocity":62,"Duration":264317,"SoundDuration":264317,"Delta":317540753},{"NoteNumber":70,"Velocity":62,"Duration":264317,"SoundDuration":264317,"Delta":317540753},{"NoteNumber":67,"Velocity":74,"Duration":394272,"SoundDuration":394272,"Delta":317540753},{"NoteNumber":39,"Velocity":61,"Duration":394272,"SoundDuration":394272,"Delta":317540753},{"NoteNumber":67,"Velocity":64,"Duration":129955,"SoundDuration":129955,"Delta":317937228},{"NoteNumber":39,"Velocity":54,"Duration":99118,"SoundDuration":99118,"Delta":317937228},{"NoteNumber":67,"Velocity":76,"Duration":264317,"SoundDuration":264317,"Delta":318069387},{"NoteNumber":39,"Velocity":54,"Duration":264317,"SoundDuration":264317,"Delta":318069387},{"NoteNumber":68,"Velocity":74,"Duration":96982,"SoundDuration":96982,"Delta":318333704},{"NoteNumber":41,"Velocity":61,"Duration":96982,"SoundDuration":96982,"Delta":318333704},{"NoteNumber":70,"Velocity":70,"Duration":102272,"SoundDuration":102272,"Delta":318463014},{"NoteNumber":67,"Velocity":70,"Duration":102272,"SoundDuration":102272,"Delta":318463014},{"NoteNumber":39,"Velocity":54,"Duration":102272,"SoundDuration":102272,"Delta":318463014},{"NoteNumber":75,"Velocity":74,"Duration":406818,"SoundDuration":406818,"Delta":318599378},{"NoteNumber":67,"Velocity":62,"Duration":272727,"SoundDuration":272727,"Delta":318599378},{"NoteNumber":48,"Velocity":61,"Duration":406818,"SoundDuration":406818,"Delta":318599378},{"NoteNumber":39,"Velocity":51,"Duration":272727,"SoundDuration":272727,"Delta":318599378},{"NoteNumber":63,"Velocity":53,"Duration":272727,"SoundDuration":272727,"Delta":318872105},{"NoteNumber":36,"Velocity":43,"Duration":272727,"SoundDuration":272727,"Delta":318872105},{"NoteNumber":75,"Velocity":64,"Duration":136363,"SoundDuration":136363,"Delta":319008469},{"NoteNumber":48,"Velocity":54,"Duration":102272,"SoundDuration":102272,"Delta":319008469},{"NoteNumber":63,"Velocity":64,"Duration":538401,"SoundDuration":538401,"Delta":319144833},{"NoteNumber":75,"Velocity":76,"Duration":272727,"SoundDuration":272727,"Delta":319144833},{"NoteNumber":48,"Velocity":62,"Duration":272727,"SoundDuration":272727,"Delta":319144833},{"NoteNumber":36,"Velocity":52,"Duration":538401,"SoundDuration":538401,"Delta":319144833},{"NoteNumber":77,"Velocity":74,"Duration":96982,"SoundDuration":96982,"Delta":319417560},{"NoteNumber":50,"Velocity":61,"Duration":96982,"SoundDuration":96982,"Delta":319417560},{"NoteNumber":75,"Velocity":70,"Duration":102272,"SoundDuration":102272,"Delta":319546870},{"NoteNumber":48,"Velocity":54,"Duration":102272,"SoundDuration":102272,"Delta":319546870},{"NoteNumber":63,"Velocity":62,"Duration":99557,"SoundDuration":99557,"Delta":319683234},{"NoteNumber":75,"Velocity":74,"Duration":99557,"SoundDuration":99557,"Delta":319683234},{"NoteNumber":48,"Velocity":61,"Duration":132743,"SoundDuration":132743,"Delta":319683234},{"NoteNumber":44,"Velocity":51,"Duration":99557,"SoundDuration":99557,"Delta":319683234},{"NoteNumber":72,"Velocity":68,"Duration":232300,"SoundDuration":232300,"Delta":319948721},{"NoteNumber":44,"Velocity":62,"Duration":232300,"SoundDuration":232300,"Delta":319948721},{"NoteNumber":70,"Velocity":57,"Duration":99557,"SoundDuration":99557,"Delta":320081464},{"NoteNumber":43,"Velocity":57,"Duration":99557,"SoundDuration":99557,"Delta":320081464},{"NoteNumber":68,"Velocity":62,"Duration":99557,"SoundDuration":99557,"Delta":320214207},{"NoteNumber":72,"Velocity":74,"Duration":534983,"SoundDuration":534983,"Delta":320214207},{"NoteNumber":41,"Velocity":53,"Duration":99557,"SoundDuration":99557,"Delta":320214207},{"NoteNumber":44,"Velocity":63,"Duration":534983,"SoundDuration":534983,"Delta":320214207},{"NoteNumber":68,"Velocity":73,"Duration":96982,"SoundDuration":96982,"Delta":320479694},{"NoteNumber":41,"Velocity":54,"Duration":96982,"SoundDuration":96982,"Delta":320479694},{"NoteNumber":67,"Velocity":64,"Duration":105140,"SoundDuration":105140,"Delta":320609004},{"NoteNumber":39,"Velocity":54,"Duration":105140,"SoundDuration":105140,"Delta":320609004},{"NoteNumber":65,"Velocity":62,"Duration":265486,"SoundDuration":265486,"Delta":320749191},{"NoteNumber":80,"Velocity":81,"Duration":99557,"SoundDuration":99557,"Delta":320749191},{"NoteNumber":38,"Velocity":51,"Duration":265486,"SoundDuration":265486,"Delta":320749191},{"NoteNumber":53,"Velocity":56,"Duration":99557,"SoundDuration":99557,"Delta":320749191},{"NoteNumber":80,"Velocity":71,"Duration":96566,"SoundDuration":96566,"Delta":321014677},{"NoteNumber":53,"Velocity":56,"Duration":96566,"SoundDuration":96566,"Delta":321014677},{"NoteNumber":79,"Velocity":67,"Duration":102739,"SoundDuration":102739,"Delta":321143433},{"NoteNumber":51,"Velocity":59,"Duration":102739,"SoundDuration":102739,"Delta":321143433},{"NoteNumber":77,"Velocity":78,"Duration":132743,"SoundDuration":132743,"Delta":321280419},{"NoteNumber":65,"Velocity":64,"Duration":531160,"SoundDuration":531160,"Delta":321280419},{"NoteNumber":50,"Velocity":59,"Duration":132743,"SoundDuration":132743,"Delta":321280419},{"NoteNumber":38,"Velocity":52,"Duration":531160,"SoundDuration":531160,"Delta":321280419},{"NoteNumber":77,"Velocity":74,"Duration":96982,"SoundDuration":96982,"Delta":321545905},{"NoteNumber":50,"Velocity":56,"Duration":96982,"SoundDuration":96982,"Delta":321545905},{"NoteNumber":75,"Velocity":68,"Duration":102272,"SoundDuration":102272,"Delta":321675216},{"NoteNumber":48,"Velocity":52,"Duration":102272,"SoundDuration":102272,"Delta":321675216},{"NoteNumber":74,"Velocity":74,"Duration":99557,"SoundDuration":99557,"Delta":321811579},{"NoteNumber":46,"Velocity":61,"Duration":132743,"SoundDuration":132743,"Delta":321811579},{"NoteNumber":74,"Velocity":68,"Duration":99557,"SoundDuration":99557,"Delta":322077066},{"NoteNumber":46,"Velocity":62,"Duration":99557,"SoundDuration":99557,"Delta":322077066},{"NoteNumber":72,"Velocity":57,"Duration":99557,"SoundDuration":99557,"Delta":322209809},{"NoteNumber":44,"Velocity":57,"Duration":99557,"SoundDuration":99557,"Delta":322209809},{"NoteNumber":70,"Velocity":62,"Duration":99557,"SoundDuration":99557,"Delta":322342552},{"NoteNumber":74,"Velocity":74,"Duration":534983,"SoundDuration":534983,"Delta":322342552},{"NoteNumber":46,"Velocity":63,"Duration":534983,"SoundDuration":534983,"Delta":322342552},{"NoteNumber":43,"Velocity":53,"Duration":99557,"SoundDuration":99557,"Delta":322342552},{"NoteNumber":70,"Velocity":73,"Duration":96982,"SoundDuration":96982,"Delta":322608039},{"NoteNumber":43,"Velocity":54,"Duration":96982,"SoundDuration":96982,"Delta":322608039},{"NoteNumber":68,"Velocity":64,"Duration":105140,"SoundDuration":105140,"Delta":322737349},{"NoteNumber":41,"Velocity":54,"Duration":105140,"SoundDuration":105140,"Delta":322737349},{"NoteNumber":82,"Velocity":79,"Duration":99557,"SoundDuration":99557,"Delta":322877536},{"NoteNumber":67,"Velocity":62,"Duration":265486,"SoundDuration":265486,"Delta":322877536},{"NoteNumber":40,"Velocity":51,"Duration":265486,"SoundDuration":265486,"Delta":322877536},{"NoteNumber":55,"Velocity":56,"Duration":99557,"SoundDuration":99557,"Delta":322877536},{"NoteNumber":82,"Velocity":71,"Duration":96566,"SoundDuration":96566,"Delta":323143023},{"NoteNumber":55,"Velocity":56,"Duration":96566,"SoundDuration":96566,"Delta":323143023},{"NoteNumber":80,"Velocity":67,"Duration":102739,"SoundDuration":102739,"Delta":323271778},{"NoteNumber":53,"Velocity":59,"Duration":102739,"SoundDuration":102739,"Delta":323271778},{"NoteNumber":79,"Velocity":78,"Duration":132743,"SoundDuration":132743,"Delta":323408764},{"NoteNumber":67,"Velocity":64,"Duration":796647,"SoundDuration":796647,"Delta":323408764},{"NoteNumber":40,"Velocity":52,"Duration":531160,"SoundDuration":531160,"Delta":323408764},{"NoteNumber":52,"Velocity":59,"Duration":132743,"SoundDuration":132743,"Delta":323408764},{"NoteNumber":79,"Velocity":74,"Duration":96982,"SoundDuration":96982,"Delta":323674251},{"NoteNumber":52,"Velocity":56,"Duration":96982,"SoundDuration":96982,"Delta":323674251},{"NoteNumber":77,"Velocity":68,"Duration":102272,"SoundDuration":102272,"Delta":323803561},{"NoteNumber":50,"Velocity":52,"Duration":102272,"SoundDuration":102272,"Delta":323803561},{"NoteNumber":76,"Velocity":74,"Duration":265486,"SoundDuration":265486,"Delta":323939925},{"NoteNumber":48,"Velocity":61,"Duration":132743,"SoundDuration":132743,"Delta":323939925},{"NoteNumber":64,"Velocity":56,"Duration":265486,"SoundDuration":265486,"Delta":324205411},{"NoteNumber":55,"Velocity":51,"Duration":99557,"SoundDuration":99557,"Delta":324205411},{"NoteNumber":48,"Velocity":43,"Duration":99557,"SoundDuration":99557,"Delta":324205411},{"NoteNumber":61,"Velocity":41,"Duration":99557,"SoundDuration":99557,"Delta":324338154},{"NoteNumber":46,"Velocity":34,"Duration":99557,"SoundDuration":99557,"Delta":324338154},{"NoteNumber":65,"Velocity":59,"Duration":265486,"SoundDuration":265486,"Delta":324470898},{"NoteNumber":48,"Velocity":51,"Duration":99557,"SoundDuration":99557,"Delta":324470898},{"NoteNumber":60,"Velocity":51,"Duration":99557,"SoundDuration":99557,"Delta":324470898},{"NoteNumber":44,"Velocity":43,"Duration":99557,"SoundDuration":99557,"Delta":324470898},{"NoteNumber":67,"Velocity":62,"Duration":269497,"SoundDuration":269497,"Delta":324736384},{"NoteNumber":60,"Velocity":51,"Duration":96982,"SoundDuration":96982,"Delta":324736384},{"NoteNumber":43,"Velocity":45,"Duration":96982,"SoundDuration":96982,"Delta":324736384},{"NoteNumber":52,"Velocity":54,"Duration":96982,"SoundDuration":96982,"Delta":324736384},{"NoteNumber":58,"Velocity":49,"Duration":105140,"SoundDuration":105140,"Delta":324865694},{"NoteNumber":56,"Velocity":58,"Duration":132743,"SoundDuration":132743,"Delta":325005881},{"NoteNumber":68,"Velocity":58,"Duration":796459,"SoundDuration":796459,"Delta":325005881},{"NoteNumber":41,"Velocity":50,"Duration":796459,"SoundDuration":796459,"Delta":325005881},{"NoteNumber":53,"Velocity":50,"Duration":265486,"SoundDuration":265486,"Delta":325005881},{"NoteNumber":65,"Velocity":51,"Duration":132743,"SoundDuration":132743,"Delta":325271368},{"NoteNumber":48,"Velocity":42,"Duration":265486,"SoundDuration":265486,"Delta":325271368},{"NoteNumber":63,"Velocity":44,"Duration":132743,"SoundDuration":132743,"Delta":325404111},{"NoteNumber":62,"Velocity":51,"Duration":132743,"SoundDuration":132743,"Delta":325536854},{"NoteNumber":53,"Velocity":52,"Duration":265486,"SoundDuration":265486,"Delta":325536854},{"NoteNumber":62,"Velocity":52,"Duration":132743,"SoundDuration":132743,"Delta":325802341},{"NoteNumber":69,"Velocity":52,"Duration":265486,"SoundDuration":265486,"Delta":325802341},{"NoteNumber":51,"Velocity":42,"Duration":265486,"SoundDuration":265486,"Delta":325802341},{"NoteNumber":42,"Velocity":42,"Duration":265486,"SoundDuration":265486,"Delta":325802341},{"NoteNumber":60,"Velocity":45,"Duration":132743,"SoundDuration":132743,"Delta":325935084},{"NoteNumber":70,"Velocity":63,"Duration":99557,"SoundDuration":99557,"Delta":326067827},{"NoteNumber":58,"Velocity":63,"Duration":265486,"SoundDuration":265486,"Delta":326067827},{"NoteNumber":50,"Velocity":56,"Duration":99557,"SoundDuration":99557,"Delta":326067827},{"NoteNumber":43,"Velocity":51,"Duration":796714,"SoundDuration":796714,"Delta":326067827},{"NoteNumber":79,"Velocity":62,"Duration":96566,"SoundDuration":96566,"Delta":326333314},{"NoteNumber":50,"Velocity":54,"Duration":265741,"SoundDuration":265741,"Delta":326333314},{"NoteNumber":77,"Velocity":57,"Duration":102739,"SoundDuration":102739,"Delta":326462069},{"NoteNumber":75,"Velocity":67,"Duration":132743,"SoundDuration":132743,"Delta":326599055},{"NoteNumber":55,"Velocity":59,"Duration":265486,"SoundDuration":265486,"Delta":326599055},{"NoteNumber":75,"Velocity":63,"Duration":96982,"SoundDuration":96982,"Delta":326864542},{"NoteNumber":43,"Velocity":47,"Duration":265673,"SoundDuration":265673,"Delta":326864542},{"NoteNumber":53,"Velocity":56,"Duration":265673,"SoundDuration":265673,"Delta":326864542},{"NoteNumber":74,"Velocity":57,"Duration":102272,"SoundDuration":102272,"Delta":326993852},{"NoteNumber":72,"Velocity":68,"Duration":796459,"SoundDuration":796459,"Delta":327130216},{"NoteNumber":44,"Velocity":46,"Duration":796459,"SoundDuration":796459,"Delta":327130216},{"NoteNumber":51,"Velocity":55,"Duration":265486,"SoundDuration":265486,"Delta":327130216},{"NoteNumber":60,"Velocity":47,"Duration":265486,"SoundDuration":265486,"Delta":327395702},{"NoteNumber":56,"Velocity":58,"Duration":132743,"SoundDuration":132743,"Delta":327395702},{"NoteNumber":55,"Velocity":50,"Duration":132743,"SoundDuration":132743,"Delta":327528446},{"NoteNumber":65,"Velocity":60,"Duration":530972,"SoundDuration":530972,"Delta":327661189},{"NoteNumber":53,"Velocity":59,"Duration":132743,"SoundDuration":132743,"Delta":327661189},{"NoteNumber":73,"Velocity":61,"Duration":265486,"SoundDuration":265486,"Delta":327926675},{"NoteNumber":53,"Velocity":61,"Duration":132743,"SoundDuration":132743,"Delta":327926675},{"NoteNumber":45,"Velocity":41,"Duration":265486,"SoundDuration":265486,"Delta":327926675},{"NoteNumber":51,"Velocity":53,"Duration":132743,"SoundDuration":132743,"Delta":328059419},{"NoteNumber":65,"Velocity":72,"Duration":99557,"SoundDuration":99557,"Delta":328192162},{"NoteNumber":74,"Velocity":72,"Duration":99557,"SoundDuration":99557,"Delta":328192162},{"NoteNumber":50,"Velocity":67,"Duration":99557,"SoundDuration":99557,"Delta":328192162},{"NoteNumber":46,"Velocity":51,"Duration":99557,"SoundDuration":99557,"Delta":328192162},{"NoteNumber":67,"Velocity":66,"Duration":96566,"SoundDuration":96566,"Delta":328457648},{"NoteNumber":75,"Velocity":66,"Duration":96566,"SoundDuration":96566,"Delta":328457648},{"NoteNumber":47,"Velocity":53,"Duration":265741,"SoundDuration":265741,"Delta":328457648},{"NoteNumber":58,"Velocity":52,"Duration":96566,"SoundDuration":96566,"Delta":328457648},{"NoteNumber":74,"Velocity":59,"Duration":102739,"SoundDuration":102739,"Delta":328586404},{"NoteNumber":65,"Velocity":59,"Duration":102739,"SoundDuration":102739,"Delta":328586404},{"NoteNumber":56,"Velocity":47,"Duration":102739,"SoundDuration":102739,"Delta":328586404},{"NoteNumber":72,"Velocity":76,"Duration":132743,"SoundDuration":132743,"Delta":328723390},{"NoteNumber":63,"Velocity":76,"Duration":132743,"SoundDuration":132743,"Delta":328723390},{"NoteNumber":55,"Velocity":60,"Duration":132743,"SoundDuration":132743,"Delta":328723390},{"NoteNumber":48,"Velocity":59,"Duration":132743,"SoundDuration":132743,"Delta":328723390},{"NoteNumber":71,"Velocity":73,"Duration":96982,"SoundDuration":96982,"Delta":328988876},{"NoteNumber":62,"Velocity":76,"Duration":129310,"SoundDuration":129310,"Delta":328988876},{"NoteNumber":53,"Velocity":66,"Duration":265673,"SoundDuration":265673,"Delta":328988876},{"NoteNumber":50,"Velocity":56,"Duration":265673,"SoundDuration":265673,"Delta":328988876},{"NoteNumber":67,"Velocity":66,"Duration":102272,"SoundDuration":102272,"Delta":329118187},{"NoteNumber":72,"Velocity":67,"Duration":393171,"SoundDuration":393171,"Delta":329254550},{"NoteNumber":75,"Velocity":79,"Duration":393171,"SoundDuration":393171,"Delta":329254550},{"NoteNumber":51,"Velocity":66,"Duration":264317,"SoundDuration":264317,"Delta":329254550},{"NoteNumber":48,"Velocity":47,"Duration":264317,"SoundDuration":264317,"Delta":329254550},{"NoteNumber":75,"Velocity":72,"Duration":131057,"SoundDuration":131057,"Delta":329651026},{"NoteNumber":72,"Velocity":61,"Duration":131057,"SoundDuration":131057,"Delta":329651026},{"NoteNumber":72,"Velocity":64,"Duration":264317,"SoundDuration":264317,"Delta":329783184},{"NoteNumber":75,"Velocity":76,"Duration":264317,"SoundDuration":264317,"Delta":329783184},{"NoteNumber":74,"Velocity":67,"Duration":96982,"SoundDuration":96982,"Delta":330047501},{"NoteNumber":77,"Velocity":79,"Duration":96982,"SoundDuration":96982,"Delta":330047501},{"NoteNumber":75,"Velocity":68,"Duration":102272,"SoundDuration":102272,"Delta":330176812},{"NoteNumber":72,"Velocity":57,"Duration":102272,"SoundDuration":102272,"Delta":330176812},{"NoteNumber":51,"Velocity":61,"Duration":136363,"SoundDuration":136363,"Delta":330176812},{"NoteNumber":48,"Velocity":51,"Duration":102272,"SoundDuration":102272,"Delta":330176812},{"NoteNumber":72,"Velocity":67,"Duration":99557,"SoundDuration":99557,"Delta":330313175},{"NoteNumber":75,"Velocity":79,"Duration":99557,"SoundDuration":99557,"Delta":330313175},{"NoteNumber":56,"Velocity":67,"Duration":394911,"SoundDuration":394911,"Delta":330313175},{"NoteNumber":53,"Velocity":56,"Duration":394911,"SoundDuration":394911,"Delta":330313175},{"NoteNumber":72,"Velocity":69,"Duration":99557,"SoundDuration":99557,"Delta":330578662},{"NoteNumber":68,"Velocity":58,"Duration":99557,"SoundDuration":99557,"Delta":330578662},{"NoteNumber":53,"Velocity":51,"Duration":131637,"SoundDuration":131637,"Delta":330711405},{"NoteNumber":56,"Velocity":61,"Duration":131637,"SoundDuration":131637,"Delta":330711405},{"NoteNumber":68,"Velocity":58,"Duration":534983,"SoundDuration":534983,"Delta":330844148},{"NoteNumber":72,"Velocity":69,"Duration":534983,"SoundDuration":534983,"Delta":330844148},{"NoteNumber":53,"Velocity":54,"Duration":265486,"SoundDuration":265486,"Delta":330844148},{"NoteNumber":56,"Velocity":64,"Duration":265486,"SoundDuration":265486,"Delta":330844148},{"NoteNumber":55,"Velocity":56,"Duration":96982,"SoundDuration":96982,"Delta":331109635},{"NoteNumber":58,"Velocity":67,"Duration":96982,"SoundDuration":96982,"Delta":331109635},{"NoteNumber":53,"Velocity":48,"Duration":105140,"SoundDuration":105140,"Delta":331238945},{"NoteNumber":56,"Velocity":57,"Duration":105140,"SoundDuration":105140,"Delta":331238945},{"NoteNumber":80,"Velocity":79,"Duration":99557,"SoundDuration":99557,"Delta":331379132},{"NoteNumber":77,"Velocity":67,"Duration":99557,"SoundDuration":99557,"Delta":331379132},{"NoteNumber":56,"Velocity":67,"Duration":99557,"SoundDuration":99557,"Delta":331379132},{"NoteNumber":53,"Velocity":56,"Duration":99557,"SoundDuration":99557,"Delta":331379132},{"NoteNumber":80,"Velocity":79,"Duration":96566,"SoundDuration":96566,"Delta":331644619},{"NoteNumber":77,"Velocity":67,"Duration":96566,"SoundDuration":96566,"Delta":331644619},{"NoteNumber":53,"Velocity":58,"Duration":96566,"SoundDuration":96566,"Delta":331644619},{"NoteNumber":49,"Velocity":49,"Duration":96566,"SoundDuration":96566,"Delta":331644619},{"NoteNumber":79,"Velocity":75,"Duration":102739,"SoundDuration":102739,"Delta":331773374},{"NoteNumber":75,"Velocity":63,"Duration":102739,"SoundDuration":102739,"Delta":331773374},{"NoteNumber":77,"Velocity":79,"Duration":132743,"SoundDuration":132743,"Delta":331910360},{"NoteNumber":73,"Velocity":67,"Duration":132743,"SoundDuration":132743,"Delta":331910360},{"NoteNumber":49,"Velocity":49,"Duration":531160,"SoundDuration":531160,"Delta":331910360},{"NoteNumber":53,"Velocity":58,"Duration":531160,"SoundDuration":531160,"Delta":331910360},{"NoteNumber":73,"Velocity":67,"Duration":96982,"SoundDuration":96982,"Delta":332175847},{"NoteNumber":77,"Velocity":79,"Duration":96982,"SoundDuration":96982,"Delta":332175847},{"NoteNumber":75,"Velocity":75,"Duration":102272,"SoundDuration":102272,"Delta":332305157},{"NoteNumber":72,"Velocity":63,"Duration":102272,"SoundDuration":102272,"Delta":332305157},{"NoteNumber":73,"Velocity":79,"Duration":265486,"SoundDuration":265486,"Delta":332441521},{"NoteNumber":70,"Velocity":67,"Duration":265486,"SoundDuration":265486,"Delta":332441521},{"NoteNumber":61,"Velocity":67,"Duration":99557,"SoundDuration":99557,"Delta":332441521},{"NoteNumber":58,"Velocity":56,"Duration":99557,"SoundDuration":99557,"Delta":332441521},{"NoteNumber":61,"Velocity":67,"Duration":95744,"SoundDuration":95744,"Delta":332707007},{"NoteNumber":58,"Velocity":56,"Duration":95744,"SoundDuration":95744,"Delta":332707007},{"NoteNumber":60,"Velocity":63,"Duration":104651,"SoundDuration":104651,"Delta":332834667},{"NoteNumber":56,"Velocity":53,"Duration":104651,"SoundDuration":104651,"Delta":332834667},{"NoteNumber":70,"Velocity":58,"Duration":531940,"SoundDuration":531940,"Delta":332974202},{"NoteNumber":73,"Velocity":69,"Duration":531940,"SoundDuration":531940,"Delta":332974202},{"NoteNumber":55,"Velocity":56,"Duration":132743,"SoundDuration":132743,"Delta":332974202},{"NoteNumber":58,"Velocity":67,"Duration":132743,"SoundDuration":132743,"Delta":332974202},{"NoteNumber":58,"Velocity":67,"Duration":96153,"SoundDuration":96153,"Delta":333239688},{"NoteNumber":55,"Velocity":56,"Duration":96153,"SoundDuration":96153,"Delta":333239688},{"NoteNumber":56,"Velocity":63,"Duration":103686,"SoundDuration":103686,"Delta":333367893},{"NoteNumber":53,"Velocity":53,"Duration":103686,"SoundDuration":103686,"Delta":333367893},{"NoteNumber":79,"Velocity":67,"Duration":99118,"SoundDuration":99118,"Delta":333506142},{"NoteNumber":82,"Velocity":79,"Duration":99118,"SoundDuration":99118,"Delta":333506142},{"NoteNumber":55,"Velocity":67,"Duration":264317,"SoundDuration":264317,"Delta":333506142},{"NoteNumber":52,"Velocity":56,"Duration":264317,"SoundDuration":264317,"Delta":333506142},{"NoteNumber":79,"Velocity":67,"Duration":96153,"SoundDuration":96153,"Delta":333770459},{"NoteNumber":82,"Velocity":79,"Duration":96153,"SoundDuration":96153,"Delta":333770459},{"NoteNumber":77,"Velocity":63,"Duration":103686,"SoundDuration":103686,"Delta":333898664},{"NoteNumber":80,"Velocity":75,"Duration":103686,"SoundDuration":103686,"Delta":333898664},{"NoteNumber":76,"Velocity":67,"Duration":128205,"SoundDuration":128205,"Delta":334036913},{"NoteNumber":79,"Velocity":79,"Duration":128205,"SoundDuration":128205,"Delta":334036913},{"NoteNumber":55,"Velocity":58,"Duration":530771,"SoundDuration":530771,"Delta":334036913},{"NoteNumber":52,"Velocity":49,"Duration":530771,"SoundDuration":530771,"Delta":334036913},{"NoteNumber":79,"Velocity":79,"Duration":99118,"SoundDuration":99118,"Delta":334303367},{"NoteNumber":76,"Velocity":67,"Duration":99118,"SoundDuration":99118,"Delta":334303367},{"NoteNumber":74,"Velocity":63,"Duration":99118,"SoundDuration":99118,"Delta":334435526},{"NoteNumber":77,"Velocity":75,"Duration":99118,"SoundDuration":99118,"Delta":334435526},{"NoteNumber":76,"Velocity":79,"Duration":264317,"SoundDuration":264317,"Delta":334567684},{"NoteNumber":72,"Velocity":67,"Duration":264317,"SoundDuration":264317,"Delta":334567684},{"NoteNumber":60,"Velocity":56,"Duration":99118,"SoundDuration":99118,"Delta":334567684},{"NoteNumber":64,"Velocity":67,"Duration":99118,"SoundDuration":99118,"Delta":334567684},{"NoteNumber":60,"Velocity":56,"Duration":96153,"SoundDuration":96153,"Delta":334832001},{"NoteNumber":63,"Velocity":67,"Duration":96153,"SoundDuration":96153,"Delta":334832001},{"NoteNumber":61,"Velocity":63,"Duration":103211,"SoundDuration":103211,"Delta":334960206},{"NoteNumber":58,"Velocity":53,"Duration":103211,"SoundDuration":103211,"Delta":334960206},{"NoteNumber":72,"Velocity":58,"Duration":527726,"SoundDuration":527726,"Delta":335097821},{"NoteNumber":77,"Velocity":69,"Duration":527726,"SoundDuration":527726,"Delta":335097821},{"NoteNumber":60,"Velocity":67,"Duration":128205,"SoundDuration":128205,"Delta":335097821},{"NoteNumber":56,"Velocity":56,"Duration":128205,"SoundDuration":128205,"Delta":335097821},{"NoteNumber":56,"Velocity":56,"Duration":98684,"SoundDuration":98684,"Delta":335362390},{"NoteNumber":60,"Velocity":67,"Duration":98684,"SoundDuration":98684,"Delta":335362390},{"NoteNumber":55,"Velocity":53,"Duration":98684,"SoundDuration":98684,"Delta":335493969},{"NoteNumber":58,"Velocity":63,"Duration":98684,"SoundDuration":98684,"Delta":335493969},{"NoteNumber":84,"Velocity":79,"Duration":98684,"SoundDuration":98684,"Delta":335625548},{"NoteNumber":80,"Velocity":67,"Duration":98684,"SoundDuration":98684,"Delta":335625548},{"NoteNumber":56,"Velocity":67,"Duration":98684,"SoundDuration":98684,"Delta":335625548},{"NoteNumber":53,"Velocity":56,"Duration":98684,"SoundDuration":98684,"Delta":335625548},{"NoteNumber":80,"Velocity":67,"Duration":94142,"SoundDuration":94142,"Delta":335888706},{"NoteNumber":84,"Velocity":79,"Duration":94142,"SoundDuration":94142,"Delta":335888706},{"NoteNumber":50,"Velocity":56,"Duration":94142,"SoundDuration":94142,"Delta":335888706},{"NoteNumber":53,"Velocity":67,"Duration":94142,"SoundDuration":94142,"Delta":335888706},{"NoteNumber":79,"Velocity":63,"Duration":102739,"SoundDuration":102739,"Delta":336014229},{"NoteNumber":82,"Velocity":75,"Duration":102739,"SoundDuration":102739,"Delta":336014229},{"NoteNumber":51,"Velocity":53,"Duration":102739,"SoundDuration":102739,"Delta":336014229},{"NoteNumber":55,"Velocity":63,"Duration":102739,"SoundDuration":102739,"Delta":336014229},{"NoteNumber":80,"Velocity":79,"Duration":127118,"SoundDuration":127118,"Delta":336151215},{"NoteNumber":77,"Velocity":67,"Duration":127118,"SoundDuration":127118,"Delta":336151215},{"NoteNumber":56,"Velocity":67,"Duration":127118,"SoundDuration":127118,"Delta":336151215},{"NoteNumber":53,"Velocity":56,"Duration":127118,"SoundDuration":127118,"Delta":336151215},{"NoteNumber":79,"Velocity":68,"Duration":98684,"SoundDuration":98684,"Delta":336414698},{"NoteNumber":82,"Velocity":80,"Duration":98684,"SoundDuration":98684,"Delta":336414698},{"NoteNumber":48,"Velocity":56,"Duration":98684,"SoundDuration":98684,"Delta":336414698},{"NoteNumber":51,"Velocity":67,"Duration":98684,"SoundDuration":98684,"Delta":336414698},{"NoteNumber":77,"Velocity":65,"Duration":98684,"SoundDuration":98684,"Delta":336546277},{"NoteNumber":80,"Velocity":77,"Duration":98684,"SoundDuration":98684,"Delta":336546277},{"NoteNumber":50,"Velocity":53,"Duration":98684,"SoundDuration":98684,"Delta":336546277},{"NoteNumber":53,"Velocity":63,"Duration":98684,"SoundDuration":98684,"Delta":336546277},{"NoteNumber":79,"Velocity":79,"Duration":98684,"SoundDuration":98684,"Delta":336677856},{"NoteNumber":75,"Velocity":67,"Duration":98684,"SoundDuration":98684,"Delta":336677856},{"NoteNumber":55,"Velocity":67,"Duration":98684,"SoundDuration":98684,"Delta":336677856},{"NoteNumber":51,"Velocity":56,"Duration":98684,"SoundDuration":98684,"Delta":336677856},{"NoteNumber":80,"Velocity":79,"Duration":94936,"SoundDuration":94936,"Delta":336941014},{"NoteNumber":89,"Velocity":79,"Duration":94936,"SoundDuration":94936,"Delta":336941014},{"NoteNumber":47,"Velocity":56,"Duration":94936,"SoundDuration":94936,"Delta":336941014},{"NoteNumber":50,"Velocity":67,"Duration":94936,"SoundDuration":94936,"Delta":336941014},{"NoteNumber":87,"Velocity":75,"Duration":102739,"SoundDuration":102739,"Delta":337067596},{"NoteNumber":79,"Velocity":63,"Duration":102739,"SoundDuration":102739,"Delta":337067596},{"NoteNumber":51,"Velocity":63,"Duration":102739,"SoundDuration":102739,"Delta":337067596},{"NoteNumber":48,"Velocity":53,"Duration":102739,"SoundDuration":102739,"Delta":337067596},{"NoteNumber":77,"Velocity":67,"Duration":125522,"SoundDuration":125522,"Delta":337204582},{"NoteNumber":86,"Velocity":79,"Duration":125522,"SoundDuration":125522,"Delta":337204582},{"NoteNumber":50,"Velocity":56,"Duration":125522,"SoundDuration":125522,"Delta":337204582},{"NoteNumber":53,"Velocity":67,"Duration":125522,"SoundDuration":125522,"Delta":337204582},{"NoteNumber":87,"Velocity":80,"Duration":98684,"SoundDuration":98684,"Delta":337465852},{"NoteNumber":79,"Velocity":68,"Duration":98684,"SoundDuration":98684,"Delta":337465852},{"NoteNumber":48,"Velocity":67,"Duration":98684,"SoundDuration":98684,"Delta":337465852},{"NoteNumber":45,"Velocity":56,"Duration":98684,"SoundDuration":98684,"Delta":337465852},{"NoteNumber":77,"Velocity":65,"Duration":98684,"SoundDuration":98684,"Delta":337597431},{"NoteNumber":86,"Velocity":77,"Duration":98684,"SoundDuration":98684,"Delta":337597431},{"NoteNumber":47,"Velocity":53,"Duration":98684,"SoundDuration":98684,"Delta":337597431},{"NoteNumber":50,"Velocity":63,"Duration":98684,"SoundDuration":98684,"Delta":337597431},{"NoteNumber":75,"Velocity":67,"Duration":98684,"SoundDuration":98684,"Delta":337729010},{"NoteNumber":84,"Velocity":79,"Duration":98684,"SoundDuration":98684,"Delta":337729010},{"NoteNumber":51,"Velocity":67,"Duration":98684,"SoundDuration":98684,"Delta":337729010},{"NoteNumber":48,"Velocity":56,"Duration":98684,"SoundDuration":98684,"Delta":337729010},{"NoteNumber":79,"Velocity":67,"Duration":94936,"SoundDuration":94936,"Delta":337992168},{"NoteNumber":82,"Velocity":79,"Duration":94936,"SoundDuration":94936,"Delta":337992168},{"NoteNumber":61,"Velocity":56,"Duration":94936,"SoundDuration":94936,"Delta":337992168},{"NoteNumber":65,"Velocity":67,"Duration":94936,"SoundDuration":94936,"Delta":337992168},{"NoteNumber":80,"Velocity":63,"Duration":102739,"SoundDuration":102739,"Delta":338118750},{"NoteNumber":84,"Velocity":75,"Duration":102739,"SoundDuration":102739,"Delta":338118750},{"NoteNumber":63,"Velocity":63,"Duration":102739,"SoundDuration":102739,"Delta":338118750},{"NoteNumber":60,"Velocity":53,"Duration":102739,"SoundDuration":102739,"Delta":338118750},{"NoteNumber":85,"Velocity":80,"Duration":125522,"SoundDuration":125522,"Delta":338255736},{"NoteNumber":82,"Velocity":68,"Duration":125522,"SoundDuration":125522,"Delta":338255736},{"NoteNumber":61,"Velocity":68,"Duration":125522,"SoundDuration":125522,"Delta":338255736},{"NoteNumber":58,"Velocity":57,"Duration":125522,"SoundDuration":125522,"Delta":338255736},{"NoteNumber":77,"Velocity":70,"Duration":98684,"SoundDuration":98684,"Delta":338517006},{"NoteNumber":80,"Velocity":82,"Duration":98684,"SoundDuration":98684,"Delta":338517006},{"NoteNumber":60,"Velocity":57,"Duration":98684,"SoundDuration":98684,"Delta":338517006},{"NoteNumber":63,"Velocity":69,"Duration":98684,"SoundDuration":98684,"Delta":338517006},{"NoteNumber":79,"Velocity":67,"Duration":98684,"SoundDuration":98684,"Delta":338648585},{"NoteNumber":82,"Velocity":80,"Duration":98684,"SoundDuration":98684,"Delta":338648585},{"NoteNumber":61,"Velocity":65,"Duration":98684,"SoundDuration":98684,"Delta":338648585},{"NoteNumber":58,"Velocity":55,"Duration":98684,"SoundDuration":98684,"Delta":338648585},{"NoteNumber":80,"Velocity":70,"Duration":98684,"SoundDuration":98684,"Delta":338780164},{"NoteNumber":84,"Velocity":82,"Duration":98684,"SoundDuration":98684,"Delta":338780164},{"NoteNumber":60,"Velocity":70,"Duration":98684,"SoundDuration":98684,"Delta":338780164},{"NoteNumber":56,"Velocity":58,"Duration":98684,"SoundDuration":98684,"Delta":338780164},{"NoteNumber":72,"Velocity":71,"Duration":263568,"SoundDuration":263568,"Delta":339043322},{"NoteNumber":75,"Velocity":83,"Duration":94936,"SoundDuration":94936,"Delta":339043322},{"NoteNumber":56,"Velocity":59,"Duration":94936,"SoundDuration":94936,"Delta":339043322},{"NoteNumber":60,"Velocity":71,"Duration":94936,"SoundDuration":94936,"Delta":339043322},{"NoteNumber":77,"Velocity":80,"Duration":102739,"SoundDuration":102739,"Delta":339169904},{"NoteNumber":79,"Velocity":84,"Duration":251045,"SoundDuration":251045,"Delta":339306890},{"NoteNumber":71,"Velocity":71,"Duration":251045,"SoundDuration":251045,"Delta":339306890},{"NoteNumber":55,"Velocity":59,"Duration":251045,"SoundDuration":251045,"Delta":339306890},{"NoteNumber":62,"Velocity":71,"Duration":251045,"SoundDuration":251045,"Delta":339306890},{"NoteNumber":71,"Velocity":79,"Duration":129870,"SoundDuration":129870,"Delta":339683459},{"NoteNumber":74,"Velocity":94,"Duration":129870,"SoundDuration":129870,"Delta":339683459},{"NoteNumber":79,"Velocity":86,"Duration":879800,"SoundDuration":879800,"Delta":339813330},{"NoteNumber":83,"Velocity":102,"Duration":879800,"SoundDuration":879800,"Delta":339813330},{"NoteNumber":67,"Velocity":64,"Duration":123958,"SoundDuration":123958,"Delta":340188330},{"NoteNumber":71,"Velocity":76,"Duration":123958,"SoundDuration":123958,"Delta":340188330},{"NoteNumber":67,"Velocity":71,"Duration":379800,"SoundDuration":379800,"Delta":340313330},{"NoteNumber":71,"Velocity":84,"Duration":379800,"SoundDuration":379800,"Delta":340313330},{"NoteNumber":71,"Velocity":73,"Duration":124481,"SoundDuration":124481,"Delta":340693130},{"NoteNumber":74,"Velocity":87,"Duration":124481,"SoundDuration":124481,"Delta":340693130},{"NoteNumber":59,"Velocity":68,"Duration":123443,"SoundDuration":123443,"Delta":340693130},{"NoteNumber":55,"Velocity":57,"Duration":123443,"SoundDuration":123443,"Delta":340693130},{"NoteNumber":79,"Velocity":86,"Duration":753243,"SoundDuration":753243,"Delta":340817611},{"NoteNumber":83,"Velocity":102,"Duration":753243,"SoundDuration":753243,"Delta":340817611},{"NoteNumber":55,"Velocity":63,"Duration":373443,"SoundDuration":373443,"Delta":340817611},{"NoteNumber":59,"Velocity":75,"Duration":373443,"SoundDuration":373443,"Delta":340817611},{"NoteNumber":43,"Velocity":51,"Duration":123443,"SoundDuration":123443,"Delta":341191055},{"NoteNumber":47,"Velocity":60,"Duration":123443,"SoundDuration":123443,"Delta":341191055},{"NoteNumber":43,"Velocity":56,"Duration":255318,"SoundDuration":255318,"Delta":341315536},{"NoteNumber":47,"Velocity":67,"Duration":255318,"SoundDuration":255318,"Delta":341315536},{"NoteNumber":83,"Velocity":53,"Duration":245901,"SoundDuration":245901,"Delta":341570855},{"NoteNumber":79,"Velocity":45,"Duration":245901,"SoundDuration":245901,"Delta":341570855},{"NoteNumber":87,"Velocity":53,"Duration":122950,"SoundDuration":122950,"Delta":341570855},{"NoteNumber":86,"Velocity":45,"Duration":122950,"SoundDuration":122950,"Delta":341693806},{"NoteNumber":86,"Velocity":45,"Duration":245901,"SoundDuration":245901,"Delta":341816757},{"NoteNumber":83,"Velocity":45,"Duration":245901,"SoundDuration":245901,"Delta":341816757},{"NoteNumber":91,"Velocity":53,"Duration":122950,"SoundDuration":122950,"Delta":341816757},{"NoteNumber":89,"Velocity":45,"Duration":122950,"SoundDuration":122950,"Delta":341939707},{"NoteNumber":87,"Velocity":53,"Duration":122950,"SoundDuration":122950,"Delta":342062658},{"NoteNumber":86,"Velocity":47,"Duration":127659,"SoundDuration":127659,"Delta":342185609},{"NoteNumber":71,"Velocity":45,"Duration":245901,"SoundDuration":245901,"Delta":342313268},{"NoteNumber":79,"Velocity":53,"Duration":122950,"SoundDuration":122950,"Delta":342313268},{"NoteNumber":74,"Velocity":45,"Duration":245901,"SoundDuration":245901,"Delta":342313268},{"NoteNumber":77,"Velocity":45,"Duration":122950,"SoundDuration":122950,"Delta":342436219},{"NoteNumber":75,"Velocity":53,"Duration":122950,"SoundDuration":122950,"Delta":342559170},{"NoteNumber":74,"Velocity":47,"Duration":127118,"SoundDuration":127118,"Delta":342682121},{"NoteNumber":67,"Velocity":53,"Duration":122449,"SoundDuration":122449,"Delta":342809239},{"NoteNumber":59,"Velocity":45,"Duration":244897,"SoundDuration":244897,"Delta":342809239},{"NoteNumber":62,"Velocity":45,"Duration":244897,"SoundDuration":244897,"Delta":342809239},{"NoteNumber":65,"Velocity":45,"Duration":122448,"SoundDuration":122448,"Delta":342931688},{"NoteNumber":63,"Velocity":53,"Duration":122449,"SoundDuration":122449,"Delta":343054137},{"NoteNumber":62,"Velocity":47,"Duration":127118,"SoundDuration":127118,"Delta":343176586},{"NoteNumber":74,"Velocity":45,"Duration":244897,"SoundDuration":244897,"Delta":343303705},{"NoteNumber":71,"Velocity":45,"Duration":244897,"SoundDuration":244897,"Delta":343303705},{"NoteNumber":79,"Velocity":53,"Duration":122449,"SoundDuration":122449,"Delta":343303705},{"NoteNumber":77,"Velocity":45,"Duration":122448,"SoundDuration":122448,"Delta":343426154},{"NoteNumber":75,"Velocity":53,"Duration":122449,"SoundDuration":122449,"Delta":343548603},{"NoteNumber":74,"Velocity":47,"Duration":132158,"SoundDuration":132158,"Delta":343671052},{"NoteNumber":79,"Velocity":86,"Duration":879800,"SoundDuration":879800,"Delta":343803211},{"NoteNumber":87,"Velocity":102,"Duration":879800,"SoundDuration":879800,"Delta":343803211},{"NoteNumber":84,"Velocity":86,"Duration":879800,"SoundDuration":879800,"Delta":343803211},{"NoteNumber":60,"Velocity":75,"Duration":375000,"SoundDuration":375000,"Delta":343803211},{"NoteNumber":75,"Velocity":76,"Duration":123958,"SoundDuration":123958,"Delta":344178211},{"NoteNumber":72,"Velocity":64,"Duration":123958,"SoundDuration":123958,"Delta":344178211},{"NoteNumber":72,"Velocity":71,"Duration":379800,"SoundDuration":379800,"Delta":344303211},{"NoteNumber":75,"Velocity":84,"Duration":379800,"SoundDuration":379800,"Delta":344303211},{"NoteNumber":79,"Velocity":73,"Duration":877725,"SoundDuration":877725,"Delta":344683011},{"NoteNumber":75,"Velocity":87,"Duration":877725,"SoundDuration":877725,"Delta":344683011},{"NoteNumber":60,"Velocity":57,"Duration":123443,"SoundDuration":123443,"Delta":344683011},{"NoteNumber":63,"Velocity":68,"Duration":123443,"SoundDuration":123443,"Delta":344683011},{"NoteNumber":84,"Velocity":86,"Duration":753243,"SoundDuration":753243,"Delta":344807492},{"NoteNumber":87,"Velocity":102,"Duration":753243,"SoundDuration":753243,"Delta":344807492},{"NoteNumber":60,"Velocity":63,"Duration":373443,"SoundDuration":373443,"Delta":344807492},{"NoteNumber":63,"Velocity":75,"Duration":373443,"SoundDuration":373443,"Delta":344807492},{"NoteNumber":48,"Velocity":51,"Duration":123443,"SoundDuration":123443,"Delta":345180936},{"NoteNumber":51,"Velocity":60,"Duration":123443,"SoundDuration":123443,"Delta":345180936},{"NoteNumber":51,"Velocity":67,"Duration":255318,"SoundDuration":255318,"Delta":345305417},{"NoteNumber":48,"Velocity":56,"Duration":255318,"SoundDuration":255318,"Delta":345305417},{"NoteNumber":84,"Velocity":53,"Duration":245901,"SoundDuration":245901,"Delta":345560736},{"NoteNumber":79,"Velocity":45,"Duration":245901,"SoundDuration":245901,"Delta":345560736},{"NoteNumber":89,"Velocity":53,"Duration":122950,"SoundDuration":122950,"Delta":345560736},{"NoteNumber":87,"Velocity":45,"Duration":122950,"SoundDuration":122950,"Delta":345683687},{"NoteNumber":87,"Velocity":45,"Duration":245901,"SoundDuration":245901,"Delta":345806638},{"NoteNumber":84,"Velocity":45,"Duration":245901,"SoundDuration":245901,"Delta":345806638},{"NoteNumber":92,"Velocity":53,"Duration":122950,"SoundDuration":122950,"Delta":345806638},{"NoteNumber":91,"Velocity":45,"Duration":122950,"SoundDuration":122950,"Delta":345929588},{"NoteNumber":89,"Velocity":53,"Duration":122950,"SoundDuration":122950,"Delta":346052539},{"NoteNumber":87,"Velocity":47,"Duration":127659,"SoundDuration":127659,"Delta":346175490},{"NoteNumber":72,"Velocity":45,"Duration":245901,"SoundDuration":245901,"Delta":346303149},{"NoteNumber":75,"Velocity":45,"Duration":245901,"SoundDuration":245901,"Delta":346303149},{"NoteNumber":80,"Velocity":53,"Duration":122950,"SoundDuration":122950,"Delta":346303149},{"NoteNumber":79,"Velocity":45,"Duration":122950,"SoundDuration":122950,"Delta":346418928},{"NoteNumber":77,"Velocity":53,"Duration":122950,"SoundDuration":122950,"Delta":346549051},{"NoteNumber":75,"Velocity":47,"Duration":127118,"SoundDuration":127118,"Delta":346672002},{"NoteNumber":63,"Velocity":45,"Duration":244897,"SoundDuration":244897,"Delta":346799120},{"NoteNumber":60,"Velocity":45,"Duration":244897,"SoundDuration":244897,"Delta":346799120},{"NoteNumber":68,"Velocity":53,"Duration":122449,"SoundDuration":122449,"Delta":346799120},{"NoteNumber":67,"Velocity":45,"Duration":122448,"SoundDuration":122448,"Delta":346921569},{"NoteNumber":65,"Velocity":53,"Duration":122449,"SoundDuration":122449,"Delta":347044018},{"NoteNumber":63,"Velocity":47,"Duration":127118,"SoundDuration":127118,"Delta":347166467},{"NoteNumber":75,"Velocity":45,"Duration":244897,"SoundDuration":244897,"Delta":347293586},{"NoteNumber":80,"Velocity":53,"Duration":122449,"SoundDuration":122449,"Delta":347293586},{"NoteNumber":72,"Velocity":45,"Duration":244897,"SoundDuration":244897,"Delta":347293586},{"NoteNumber":79,"Velocity":45,"Duration":122448,"SoundDuration":122448,"Delta":347416035},{"NoteNumber":77,"Velocity":53,"Duration":122449,"SoundDuration":122449,"Delta":347538484},{"NoteNumber":75,"Velocity":47,"Duration":132158,"SoundDuration":132158,"Delta":347660933},{"NoteNumber":77,"Velocity":86,"Duration":879800,"SoundDuration":879800,"Delta":347793092},{"NoteNumber":86,"Velocity":86,"Duration":879800,"SoundDuration":879800,"Delta":347793092},{"NoteNumber":89,"Velocity":102,"Duration":879800,"SoundDuration":879800,"Delta":347793092},{"NoteNumber":58,"Velocity":75,"Duration":375000,"SoundDuration":375000,"Delta":347793092},{"NoteNumber":74,"Velocity":76,"Duration":123958,"SoundDuration":123958,"Delta":348168092},{"NoteNumber":70,"Velocity":64,"Duration":123958,"SoundDuration":123958,"Delta":348168092},{"NoteNumber":74,"Velocity":84,"Duration":379800,"SoundDuration":379800,"Delta":348293092},{"NoteNumber":70,"Velocity":71,"Duration":379800,"SoundDuration":379800,"Delta":348293092},{"NoteNumber":74,"Velocity":87,"Duration":124481,"SoundDuration":124481,"Delta":348672892},{"NoteNumber":77,"Velocity":73,"Duration":124481,"SoundDuration":124481,"Delta":348672892},{"NoteNumber":62,"Velocity":68,"Duration":123443,"SoundDuration":123443,"Delta":348672892},{"NoteNumber":58,"Velocity":57,"Duration":123443,"SoundDuration":123443,"Delta":348672892},{"NoteNumber":89,"Velocity":102,"Duration":753243,"SoundDuration":753243,"Delta":348797373},{"NoteNumber":86,"Velocity":86,"Duration":753243,"SoundDuration":753243,"Delta":348797373},{"NoteNumber":58,"Velocity":63,"Duration":373443,"SoundDuration":373443,"Delta":348797373},{"NoteNumber":62,"Velocity":75,"Duration":373443,"SoundDuration":373443,"Delta":348797373},{"NoteNumber":77,"Velocity":73,"Duration":124481,"SoundDuration":124481,"Delta":349170817},{"NoteNumber":46,"Velocity":51,"Duration":123443,"SoundDuration":123443,"Delta":349170817},{"NoteNumber":50,"Velocity":60,"Duration":123443,"SoundDuration":123443,"Delta":349170817},{"NoteNumber":82,"Velocity":67,"Duration":255318,"SoundDuration":255318,"Delta":349295298},{"NoteNumber":46,"Velocity":56,"Duration":255318,"SoundDuration":255318,"Delta":349295298},{"NoteNumber":50,"Velocity":67,"Duration":255318,"SoundDuration":255318,"Delta":349295298},{"NoteNumber":86,"Velocity":53,"Duration":245901,"SoundDuration":245901,"Delta":349550617},{"NoteNumber":82,"Velocity":45,"Duration":245901,"SoundDuration":245901,"Delta":349550617},{"NoteNumber":91,"Velocity":53,"Duration":122950,"SoundDuration":122950,"Delta":349550617},{"NoteNumber":89,"Velocity":45,"Duration":122950,"SoundDuration":122950,"Delta":349673568},{"NoteNumber":86,"Velocity":49,"Duration":245901,"SoundDuration":245901,"Delta":349796519},{"NoteNumber":89,"Velocity":49,"Duration":245901,"SoundDuration":245901,"Delta":349796519},{"NoteNumber":94,"Velocity":58,"Duration":122950,"SoundDuration":122950,"Delta":349796519},{"NoteNumber":92,"Velocity":50,"Duration":122950,"SoundDuration":122950,"Delta":349919469},{"NoteNumber":91,"Velocity":60,"Duration":122950,"SoundDuration":122950,"Delta":350042420},{"NoteNumber":89,"Velocity":54,"Duration":127659,"SoundDuration":127659,"Delta":350165371},{"NoteNumber":82,"Velocity":63,"Duration":122950,"SoundDuration":122950,"Delta":350293030},{"NoteNumber":77,"Velocity":54,"Duration":245901,"SoundDuration":245901,"Delta":350293030},{"NoteNumber":74,"Velocity":54,"Duration":245901,"SoundDuration":245901,"Delta":350293030},{"NoteNumber":80,"Velocity":54,"Duration":122950,"SoundDuration":122950,"Delta":350408809},{"NoteNumber":79,"Velocity":66,"Duration":122950,"SoundDuration":122950,"Delta":350538932},{"NoteNumber":77,"Velocity":59,"Duration":127118,"SoundDuration":127118,"Delta":350661883},{"NoteNumber":65,"Velocity":58,"Duration":244897,"SoundDuration":244897,"Delta":350789001},{"NoteNumber":62,"Velocity":58,"Duration":244897,"SoundDuration":244897,"Delta":350789001},{"NoteNumber":70,"Velocity":68,"Duration":122449,"SoundDuration":122449,"Delta":350789001},{"NoteNumber":68,"Velocity":59,"Duration":122448,"SoundDuration":122448,"Delta":350911450},{"NoteNumber":67,"Velocity":71,"Duration":122449,"SoundDuration":122449,"Delta":351033899},{"NoteNumber":65,"Velocity":64,"Duration":127118,"SoundDuration":127118,"Delta":351156348},{"NoteNumber":77,"Velocity":63,"Duration":244897,"SoundDuration":244897,"Delta":351283467},{"NoteNumber":74,"Velocity":63,"Duration":244897,"SoundDuration":244897,"Delta":351283467},{"NoteNumber":82,"Velocity":74,"Duration":122449,"SoundDuration":122449,"Delta":351283467},{"NoteNumber":80,"Velocity":63,"Duration":122448,"SoundDuration":122448,"Delta":351405916},{"NoteNumber":79,"Velocity":76,"Duration":122449,"SoundDuration":122449,"Delta":351528365},{"NoteNumber":77,"Velocity":69,"Duration":132158,"SoundDuration":132158,"Delta":351650814},{"NoteNumber":87,"Velocity":86,"Duration":879800,"SoundDuration":879800,"Delta":351782973},{"NoteNumber":91,"Velocity":102,"Duration":879800,"SoundDuration":879800,"Delta":351782973},{"NoteNumber":63,"Velocity":75,"Duration":375000,"SoundDuration":375000,"Delta":351782973},{"NoteNumber":75,"Velocity":75,"Duration":375000,"SoundDuration":375000,"Delta":351782973},{"NoteNumber":79,"Velocity":76,"Duration":123958,"SoundDuration":123958,"Delta":352157973},{"NoteNumber":75,"Velocity":64,"Duration":123958,"SoundDuration":123958,"Delta":352157973},{"NoteNumber":75,"Velocity":71,"Duration":379800,"SoundDuration":379800,"Delta":352282973},{"NoteNumber":79,"Velocity":84,"Duration":379800,"SoundDuration":379800,"Delta":352282973},{"NoteNumber":79,"Velocity":73,"Duration":124481,"SoundDuration":124481,"Delta":352662773},{"NoteNumber":82,"Velocity":73,"Duration":124481,"SoundDuration":124481,"Delta":352662773},{"NoteNumber":67,"Velocity":68,"Duration":123443,"SoundDuration":123443,"Delta":352662773},{"NoteNumber":63,"Velocity":57,"Duration":123443,"SoundDuration":123443,"Delta":352662773},{"NoteNumber":91,"Velocity":102,"Duration":753243,"SoundDuration":753243,"Delta":352787254},{"NoteNumber":87,"Velocity":86,"Duration":753243,"SoundDuration":753243,"Delta":352787254},{"NoteNumber":63,"Velocity":63,"Duration":373443,"SoundDuration":373443,"Delta":352787254},{"NoteNumber":67,"Velocity":75,"Duration":373443,"SoundDuration":373443,"Delta":352787254},{"NoteNumber":79,"Velocity":87,"Duration":124481,"SoundDuration":124481,"Delta":353160698},{"NoteNumber":51,"Velocity":58,"Duration":123443,"SoundDuration":123443,"Delta":353160698},{"NoteNumber":63,"Velocity":69,"Duration":123443,"SoundDuration":123443,"Delta":353160698},{"NoteNumber":84,"Velocity":80,"Duration":255318,"SoundDuration":255318,"Delta":353285179},{"NoteNumber":63,"Velocity":77,"Duration":255318,"SoundDuration":255318,"Delta":353285179},{"NoteNumber":51,"Velocity":64,"Duration":255318,"SoundDuration":255318,"Delta":353285179},{"NoteNumber":78,"Velocity":73,"Duration":127659,"SoundDuration":127659,"Delta":353668158},{"NoteNumber":81,"Velocity":87,"Duration":127659,"SoundDuration":127659,"Delta":353668158},{"NoteNumber":93,"Velocity":106,"Duration":879800,"SoundDuration":879800,"Delta":353795817},{"NoteNumber":90,"Velocity":90,"Duration":879800,"SoundDuration":879800,"Delta":353795817},{"NoteNumber":74,"Velocity":79,"Duration":123958,"SoundDuration":123958,"Delta":354170817},{"NoteNumber":62,"Velocity":67,"Duration":123958,"SoundDuration":123958,"Delta":354170817},{"NoteNumber":74,"Velocity":88,"Duration":379800,"SoundDuration":379800,"Delta":354295817},{"NoteNumber":62,"Velocity":74,"Duration":379800,"SoundDuration":379800,"Delta":354295817},{"NoteNumber":81,"Velocity":76,"Duration":124481,"SoundDuration":124481,"Delta":354675617},{"NoteNumber":78,"Velocity":76,"Duration":124481,"SoundDuration":124481,"Delta":354675617},{"NoteNumber":50,"Velocity":59,"Duration":123443,"SoundDuration":123443,"Delta":354675617},{"NoteNumber":62,"Velocity":71,"Duration":123443,"SoundDuration":123443,"Delta":354675617},{"NoteNumber":93,"Velocity":106,"Duration":753243,"SoundDuration":753243,"Delta":354800099},{"NoteNumber":90,"Velocity":90,"Duration":753243,"SoundDuration":753243,"Delta":354800099},{"NoteNumber":62,"Velocity":78,"Duration":373443,"SoundDuration":373443,"Delta":354800099},{"NoteNumber":50,"Velocity":66,"Duration":373443,"SoundDuration":373443,"Delta":354800099},{"NoteNumber":81,"Velocity":91,"Duration":124481,"SoundDuration":124481,"Delta":355173542},{"NoteNumber":50,"Velocity":72,"Duration":123443,"SoundDuration":123443,"Delta":355173542},{"NoteNumber":38,"Velocity":60,"Duration":123443,"SoundDuration":123443,"Delta":355173542},{"NoteNumber":86,"Velocity":84,"Duration":255318,"SoundDuration":255318,"Delta":355298024},{"NoteNumber":90,"Velocity":90,"Duration":255318,"SoundDuration":255318,"Delta":355298024},{"NoteNumber":50,"Velocity":80,"Duration":255318,"SoundDuration":255318,"Delta":355298024},{"NoteNumber":38,"Velocity":67,"Duration":255318,"SoundDuration":255318,"Delta":355298024},{"NoteNumber":80,"Velocity":76,"Duration":135135,"SoundDuration":135135,"Delta":355688478},{"NoteNumber":83,"Velocity":91,"Duration":135135,"SoundDuration":135135,"Delta":355688478},{"NoteNumber":95,"Velocity":97,"Duration":879800,"SoundDuration":879800,"Delta":355823613},{"NoteNumber":86,"Velocity":82,"Duration":879800,"SoundDuration":879800,"Delta":355823613},{"NoteNumber":89,"Velocity":82,"Duration":879800,"SoundDuration":879800,"Delta":355823613},{"NoteNumber":92,"Velocity":82,"Duration":879800,"SoundDuration":879800,"Delta":355823613},{"NoteNumber":83,"Velocity":82,"Duration":879800,"SoundDuration":879800,"Delta":355823613},{"NoteNumber":62,"Velocity":59,"Duration":123958,"SoundDuration":123958,"Delta":356198613},{"NoteNumber":65,"Velocity":59,"Duration":123958,"SoundDuration":123958,"Delta":356198613},{"NoteNumber":68,"Velocity":59,"Duration":123958,"SoundDuration":123958,"Delta":356198613},{"NoteNumber":74,"Velocity":71,"Duration":123958,"SoundDuration":123958,"Delta":356198613},{"NoteNumber":71,"Velocity":59,"Duration":123958,"SoundDuration":123958,"Delta":356198613},{"NoteNumber":68,"Velocity":66,"Duration":379800,"SoundDuration":379800,"Delta":356323613},{"NoteNumber":71,"Velocity":66,"Duration":379800,"SoundDuration":379800,"Delta":356323613},{"NoteNumber":62,"Velocity":66,"Duration":379800,"SoundDuration":379800,"Delta":356323613},{"NoteNumber":74,"Velocity":78,"Duration":379800,"SoundDuration":379800,"Delta":356323613},{"NoteNumber":65,"Velocity":66,"Duration":379800,"SoundDuration":379800,"Delta":356323613},{"NoteNumber":80,"Velocity":76,"Duration":124481,"SoundDuration":124481,"Delta":356703413},{"NoteNumber":83,"Velocity":76,"Duration":124481,"SoundDuration":124481,"Delta":356703413},{"NoteNumber":56,"Velocity":53,"Duration":123443,"SoundDuration":123443,"Delta":356703413},{"NoteNumber":53,"Velocity":53,"Duration":123443,"SoundDuration":123443,"Delta":356703413},{"NoteNumber":50,"Velocity":53,"Duration":123443,"SoundDuration":123443,"Delta":356703413},{"NoteNumber":59,"Velocity":53,"Duration":123443,"SoundDuration":123443,"Delta":356703413},{"NoteNumber":62,"Velocity":64,"Duration":123443,"SoundDuration":123443,"Delta":356703413},{"NoteNumber":89,"Velocity":82,"Duration":896828,"SoundDuration":896828,"Delta":356827895},{"NoteNumber":83,"Velocity":82,"Duration":896828,"SoundDuration":896828,"Delta":356827895},{"NoteNumber":86,"Velocity":82,"Duration":896828,"SoundDuration":896828,"Delta":356827895},{"NoteNumber":92,"Velocity":82,"Duration":896828,"SoundDuration":896828,"Delta":356827895},{"NoteNumber":95,"Velocity":97,"Duration":896828,"SoundDuration":896828,"Delta":356827895},{"NoteNumber":62,"Velocity":78,"Duration":375000,"SoundDuration":375000,"Delta":356827895},{"NoteNumber":50,"Velocity":66,"Duration":375000,"SoundDuration":375000,"Delta":356827895},{"NoteNumber":59,"Velocity":66,"Duration":375000,"SoundDuration":375000,"Delta":356827895},{"NoteNumber":56,"Velocity":66,"Duration":375000,"SoundDuration":375000,"Delta":356827895},{"NoteNumber":53,"Velocity":66,"Duration":375000,"SoundDuration":375000,"Delta":356827895},{"NoteNumber":44,"Velocity":53,"Duration":123958,"SoundDuration":123958,"Delta":357202895},{"NoteNumber":38,"Velocity":53,"Duration":123958,"SoundDuration":123958,"Delta":357202895},{"NoteNumber":41,"Velocity":53,"Duration":123958,"SoundDuration":123958,"Delta":357202895},{"NoteNumber":47,"Velocity":53,"Duration":123958,"SoundDuration":123958,"Delta":357202895},{"NoteNumber":50,"Velocity":64,"Duration":123958,"SoundDuration":123958,"Delta":357202895},{"NoteNumber":47,"Velocity":66,"Duration":396828,"SoundDuration":396828,"Delta":357327895},{"NoteNumber":50,"Velocity":78,"Duration":396828,"SoundDuration":396828,"Delta":357327895},{"NoteNumber":38,"Velocity":66,"Duration":396828,"SoundDuration":396828,"Delta":357327895},{"NoteNumber":41,"Velocity":66,"Duration":396828,"SoundDuration":396828,"Delta":357327895},{"NoteNumber":44,"Velocity":66,"Duration":396828,"SoundDuration":396828,"Delta":357327895},{"NoteNumber":82,"Velocity":76,"Duration":141509,"SoundDuration":141509,"Delta":357724723},{"NoteNumber":76,"Velocity":76,"Duration":141509,"SoundDuration":141509,"Delta":357724723},{"NoteNumber":79,"Velocity":76,"Duration":141509,"SoundDuration":141509,"Delta":357724723},{"NoteNumber":85,"Velocity":76,"Duration":141509,"SoundDuration":141509,"Delta":357724723},{"NoteNumber":94,"Velocity":82,"Duration":879800,"SoundDuration":879800,"Delta":357866233},{"NoteNumber":91,"Velocity":82,"Duration":879800,"SoundDuration":879800,"Delta":357866233},{"NoteNumber":97,"Velocity":97,"Duration":879800,"SoundDuration":879800,"Delta":357866233},{"NoteNumber":88,"Velocity":82,"Duration":879800,"SoundDuration":879800,"Delta":357866233},{"NoteNumber":67,"Velocity":59,"Duration":123958,"SoundDuration":123958,"Delta":358241233},{"NoteNumber":62,"Velocity":59,"Duration":123958,"SoundDuration":123958,"Delta":358241233},{"NoteNumber":70,"Velocity":59,"Duration":123958,"SoundDuration":123958,"Delta":358241233},{"NoteNumber":76,"Velocity":71,"Duration":123958,"SoundDuration":123958,"Delta":358241233},{"NoteNumber":76,"Velocity":78,"Duration":379800,"SoundDuration":379800,"Delta":358366233},{"NoteNumber":62,"Velocity":66,"Duration":379800,"SoundDuration":379800,"Delta":358366233},{"NoteNumber":70,"Velocity":66,"Duration":379800,"SoundDuration":379800,"Delta":358366233},{"NoteNumber":67,"Velocity":66,"Duration":379800,"SoundDuration":379800,"Delta":358366233},{"NoteNumber":82,"Velocity":76,"Duration":124481,"SoundDuration":124481,"Delta":358746033},{"NoteNumber":85,"Velocity":76,"Duration":124481,"SoundDuration":124481,"Delta":358746033},{"NoteNumber":79,"Velocity":76,"Duration":124481,"SoundDuration":124481,"Delta":358746033},{"NoteNumber":76,"Velocity":76,"Duration":124481,"SoundDuration":124481,"Delta":358746033},{"NoteNumber":58,"Velocity":53,"Duration":123443,"SoundDuration":123443,"Delta":358746033},{"NoteNumber":50,"Velocity":53,"Duration":123443,"SoundDuration":123443,"Delta":358746033},{"NoteNumber":64,"Velocity":64,"Duration":123443,"SoundDuration":123443,"Delta":358746033},{"NoteNumber":55,"Velocity":53,"Duration":123443,"SoundDuration":123443,"Delta":358746033},{"NoteNumber":91,"Velocity":82,"Duration":937868,"SoundDuration":937868,"Delta":358870514},{"NoteNumber":88,"Velocity":82,"Duration":937868,"SoundDuration":937868,"Delta":358870514},{"NoteNumber":94,"Velocity":82,"Duration":937868,"SoundDuration":937868,"Delta":358870514},{"NoteNumber":97,"Velocity":97,"Duration":937868,"SoundDuration":937868,"Delta":358870514},{"NoteNumber":58,"Velocity":66,"Duration":378205,"SoundDuration":378205,"Delta":358870514},{"NoteNumber":50,"Velocity":66,"Duration":378205,"SoundDuration":378205,"Delta":358870514},{"NoteNumber":64,"Velocity":78,"Duration":378205,"SoundDuration":378205,"Delta":358870514},{"NoteNumber":55,"Velocity":66,"Duration":378205,"SoundDuration":378205,"Delta":358870514},{"NoteNumber":46,"Velocity":53,"Duration":127136,"SoundDuration":127136,"Delta":359248719},{"NoteNumber":43,"Velocity":53,"Duration":127136,"SoundDuration":127136,"Delta":359248719},{"NoteNumber":52,"Velocity":64,"Duration":127136,"SoundDuration":127136,"Delta":359248719},{"NoteNumber":38,"Velocity":53,"Duration":127136,"SoundDuration":127136,"Delta":359248719},{"NoteNumber":43,"Velocity":66,"Duration":431457,"SoundDuration":431457,"Delta":359376925},{"NoteNumber":38,"Velocity":66,"Duration":431457,"SoundDuration":431457,"Delta":359376925},{"NoteNumber":52,"Velocity":78,"Duration":431457,"SoundDuration":431457,"Delta":359376925},{"NoteNumber":46,"Velocity":66,"Duration":431457,"SoundDuration":431457,"Delta":359376925},{"NoteNumber":86,"Velocity":83,"Duration":158730,"SoundDuration":158730,"Delta":359808382},{"NoteNumber":81,"Velocity":83,"Duration":158730,"SoundDuration":158730,"Delta":359808382},{"NoteNumber":78,"Velocity":83,"Duration":158730,"SoundDuration":158730,"Delta":359808382},{"NoteNumber":86,"Velocity":90,"Duration":379746,"SoundDuration":379746,"Delta":359967113},{"NoteNumber":90,"Velocity":90,"Duration":379746,"SoundDuration":379746,"Delta":359967113},{"NoteNumber":93,"Velocity":90,"Duration":379746,"SoundDuration":379746,"Delta":359967113},{"NoteNumber":98,"Velocity":106,"Duration":379746,"SoundDuration":379746,"Delta":359967113},{"NoteNumber":86,"Velocity":80,"Duration":126582,"SoundDuration":126582,"Delta":360346859},{"NoteNumber":74,"Velocity":67,"Duration":125527,"SoundDuration":125527,"Delta":360346859},{"NoteNumber":62,"Velocity":56,"Duration":125527,"SoundDuration":125527,"Delta":360346859},{"NoteNumber":66,"Velocity":56,"Duration":125527,"SoundDuration":125527,"Delta":360346859},{"NoteNumber":69,"Velocity":56,"Duration":125527,"SoundDuration":125527,"Delta":360346859},{"NoteNumber":98,"Velocity":100,"Duration":393072,"SoundDuration":393072,"Delta":360473442},{"NoteNumber":74,"Velocity":81,"Duration":389853,"SoundDuration":389853,"Delta":360473442},{"NoteNumber":69,"Velocity":68,"Duration":389853,"SoundDuration":389853,"Delta":360473442},{"NoteNumber":66,"Velocity":68,"Duration":389853,"SoundDuration":389853,"Delta":360473442},{"NoteNumber":62,"Velocity":68,"Duration":389853,"SoundDuration":389853,"Delta":360473442},{"NoteNumber":74,"Velocity":74,"Duration":128755,"SoundDuration":128755,"Delta":360866514},{"NoteNumber":50,"Velocity":52,"Duration":127682,"SoundDuration":127682,"Delta":360866514},{"NoteNumber":62,"Velocity":62,"Duration":127682,"SoundDuration":127682,"Delta":360866514},{"NoteNumber":86,"Velocity":93,"Duration":386265,"SoundDuration":386265,"Delta":360995269},{"NoteNumber":62,"Velocity":69,"Duration":386265,"SoundDuration":386265,"Delta":360995269},{"NoteNumber":50,"Velocity":58,"Duration":386265,"SoundDuration":386265,"Delta":360995269},{"NoteNumber":74,"Velocity":68,"Duration":128755,"SoundDuration":128755,"Delta":361381535},{"NoteNumber":50,"Velocity":57,"Duration":127682,"SoundDuration":127682,"Delta":361381535},{"NoteNumber":38,"Velocity":47,"Duration":127682,"SoundDuration":127682,"Delta":361381535},{"NoteNumber":86,"Velocity":85,"Duration":391438,"SoundDuration":391438,"Delta":361510290},{"NoteNumber":38,"Velocity":54,"Duration":391438,"SoundDuration":391438,"Delta":361510290},{"NoteNumber":50,"Velocity":64,"Duration":391438,"SoundDuration":391438,"Delta":361510290},{"NoteNumber":74,"Velocity":62,"Duration":133928,"SoundDuration":133928,"Delta":361901729},{"NoteNumber":50,"Velocity":52,"Duration":133928,"SoundDuration":133928,"Delta":361901729},{"NoteNumber":86,"Velocity":78,"Duration":394737,"SoundDuration":394737,"Delta":362035658},{"NoteNumber":38,"Velocity":59,"Duration":394737,"SoundDuration":394737,"Delta":362035658},{"NoteNumber":74,"Velocity":56,"Duration":131578,"SoundDuration":131578,"Delta":362430395},{"NoteNumber":62,"Velocity":47,"Duration":131578,"SoundDuration":131578,"Delta":362430395},{"NoteNumber":86,"Velocity":70,"Duration":405405,"SoundDuration":405405,"Delta":362561974},{"NoteNumber":50,"Velocity":53,"Duration":405405,"SoundDuration":405405,"Delta":362561974},{"NoteNumber":74,"Velocity":51,"Duration":135135,"SoundDuration":135135,"Delta":362967379},{"NoteNumber":62,"Velocity":42,"Duration":135135,"SoundDuration":135135,"Delta":362967379},{"NoteNumber":86,"Velocity":63,"Duration":416667,"SoundDuration":416667,"Delta":363102515},{"NoteNumber":50,"Velocity":46,"Duration":416667,"SoundDuration":416667,"Delta":363102515},{"NoteNumber":74,"Velocity":45,"Duration":138889,"SoundDuration":138889,"Delta":363519182},{"NoteNumber":62,"Velocity":37,"Duration":138889,"SoundDuration":138889,"Delta":363519182},{"NoteNumber":86,"Velocity":55,"Duration":447178,"SoundDuration":447178,"Delta":363658071},{"NoteNumber":50,"Velocity":42,"Duration":447178,"SoundDuration":447178,"Delta":363658071},{"NoteNumber":75,"Velocity":39,"Duration":182926,"SoundDuration":182926,"Delta":364105249},{"NoteNumber":71,"Velocity":32,"Duration":182926,"SoundDuration":182926,"Delta":364105249},{"NoteNumber":87,"Velocity":58,"Duration":1150461,"SoundDuration":1150461,"Delta":364288176},{"NoteNumber":59,"Velocity":40,"Duration":199999,"SoundDuration":199999,"Delta":364288176},{"NoteNumber":71,"Velocity":32,"Duration":195693,"SoundDuration":195693,"Delta":364488176},{"NoteNumber":70,"Velocity":32,"Duration":191387,"SoundDuration":191387,"Delta":364683870},{"NoteNumber":75,"Velocity":49,"Duration":563379,"SoundDuration":563379,"Delta":364875258},{"NoteNumber":71,"Velocity":40,"Duration":187793,"SoundDuration":187793,"Delta":364875258},{"NoteNumber":66,"Velocity":33,"Duration":187793,"SoundDuration":187793,"Delta":365063051},{"NoteNumber":71,"Velocity":33,"Duration":187793,"SoundDuration":187793,"Delta":365250844},{"NoteNumber":88,"Velocity":57,"Duration":576923,"SoundDuration":576923,"Delta":365438638},{"NoteNumber":76,"Velocity":48,"Duration":1163036,"SoundDuration":1163036,"Delta":365438638},{"NoteNumber":67,"Velocity":40,"Duration":192307,"SoundDuration":192307,"Delta":365438638},{"NoteNumber":71,"Velocity":31,"Duration":192307,"SoundDuration":192307,"Delta":365630945},{"NoteNumber":67,"Velocity":31,"Duration":192307,"SoundDuration":192307,"Delta":365823253},{"NoteNumber":79,"Velocity":61,"Duration":586113,"SoundDuration":586113,"Delta":366015561},{"NoteNumber":71,"Velocity":40,"Duration":187793,"SoundDuration":187793,"Delta":366015561},{"NoteNumber":64,"Velocity":33,"Duration":187793,"SoundDuration":187793,"Delta":366203354},{"NoteNumber":71,"Velocity":33,"Duration":210526,"SoundDuration":210526,"Delta":366391147},{"NoteNumber":78,"Velocity":67,"Duration":550458,"SoundDuration":550458,"Delta":366601674},{"NoteNumber":83,"Velocity":56,"Duration":1124911,"SoundDuration":1124911,"Delta":366601674},{"NoteNumber":63,"Velocity":40,"Duration":183486,"SoundDuration":183486,"Delta":366601674},{"NoteNumber":71,"Velocity":31,"Duration":183486,"SoundDuration":183486,"Delta":366785160},{"NoteNumber":63,"Velocity":31,"Duration":183486,"SoundDuration":183486,"Delta":366968646},{"NoteNumber":75,"Velocity":61,"Duration":574452,"SoundDuration":574452,"Delta":367152133},{"NoteNumber":71,"Velocity":40,"Duration":185185,"SoundDuration":185185,"Delta":367152133},{"NoteNumber":59,"Velocity":32,"Duration":185185,"SoundDuration":185185,"Delta":367337318},{"NoteNumber":71,"Velocity":32,"Duration":204081,"SoundDuration":204081,"Delta":367522503},{"NoteNumber":76,"Velocity":51,"Duration":547945,"SoundDuration":547945,"Delta":367726585},{"NoteNumber":71,"Velocity":51,"Duration":547945,"SoundDuration":547945,"Delta":367726585},{"NoteNumber":79,"Velocity":60,"Duration":547945,"SoundDuration":547945,"Delta":367726585},{"NoteNumber":59,"Velocity":40,"Duration":182648,"SoundDuration":182648,"Delta":367726585},{"NoteNumber":64,"Velocity":33,"Duration":182648,"SoundDuration":182648,"Delta":367909233},{"NoteNumber":59,"Velocity":33,"Duration":182648,"SoundDuration":182648,"Delta":368091882},{"NoteNumber":71,"Velocity":53,"Duration":569378,"SoundDuration":569378,"Delta":368274530},{"NoteNumber":76,"Velocity":63,"Duration":569378,"SoundDuration":569378,"Delta":368274530},{"NoteNumber":67,"Velocity":40,"Duration":182648,"SoundDuration":182648,"Delta":368274530},{"NoteNumber":64,"Velocity":32,"Duration":182648,"SoundDuration":182648,"Delta":368457178},{"NoteNumber":67,"Velocity":32,"Duration":204081,"SoundDuration":204081,"Delta":368639827},{"NoteNumber":74,"Velocity":66,"Duration":542985,"SoundDuration":542985,"Delta":368843908},{"NoteNumber":66,"Velocity":40,"Duration":180995,"SoundDuration":180995,"Delta":368843908},{"NoteNumber":71,"Velocity":32,"Duration":180995,"SoundDuration":180995,"Delta":369024904},{"NoteNumber":66,"Velocity":32,"Duration":180995,"SoundDuration":180995,"Delta":369205899},{"NoteNumber":75,"Velocity":59,"Duration":571708,"SoundDuration":571708,"Delta":369386894},{"NoteNumber":71,"Velocity":40,"Duration":184331,"SoundDuration":184331,"Delta":369386894},{"NoteNumber":66,"Velocity":36,"Duration":184331,"SoundDuration":184331,"Delta":369571226},{"NoteNumber":71,"Velocity":36,"Duration":203045,"SoundDuration":203045,"Delta":369755558},{"NoteNumber":78,"Velocity":64,"Duration":540541,"SoundDuration":540541,"Delta":369958603},{"NoteNumber":66,"Velocity":40,"Duration":180180,"SoundDuration":180180,"Delta":369958603},{"NoteNumber":70,"Velocity":33,"Duration":180180,"SoundDuration":180180,"Delta":370138784},{"NoteNumber":66,"Velocity":33,"Duration":180180,"SoundDuration":180180,"Delta":370318964},{"NoteNumber":76,"Velocity":63,"Duration":270270,"SoundDuration":270270,"Delta":370499144},{"NoteNumber":70,"Velocity":40,"Duration":180180,"SoundDuration":180180,"Delta":370499144},{"NoteNumber":66,"Velocity":34,"Duration":180180,"SoundDuration":180180,"Delta":370679325},{"NoteNumber":73,"Velocity":57,"Duration":286689,"SoundDuration":286689,"Delta":370769415},{"NoteNumber":70,"Velocity":34,"Duration":196598,"SoundDuration":196598,"Delta":370859505},{"NoteNumber":75,"Velocity":66,"Duration":272727,"SoundDuration":272727,"Delta":371056104},{"NoteNumber":66,"Velocity":40,"Duration":181818,"SoundDuration":181818,"Delta":371056104},{"NoteNumber":71,"Velocity":32,"Duration":181818,"SoundDuration":181818,"Delta":371237922},{"NoteNumber":62,"Velocity":48,"Duration":272727,"SoundDuration":272727,"Delta":371328832},{"NoteNumber":66,"Velocity":32,"Duration":181818,"SoundDuration":181818,"Delta":371419741},{"NoteNumber":63,"Velocity":56,"Duration":571708,"SoundDuration":571708,"Delta":371601559},{"NoteNumber":71,"Velocity":40,"Duration":184331,"SoundDuration":184331,"Delta":371601559},{"NoteNumber":66,"Velocity":36,"Duration":184331,"SoundDuration":184331,"Delta":371785891},{"NoteNumber":71,"Velocity":36,"Duration":203045,"SoundDuration":203045,"Delta":371970222},{"NoteNumber":66,"Velocity":64,"Duration":550458,"SoundDuration":550458,"Delta":372173268},{"NoteNumber":70,"Velocity":40,"Duration":183486,"SoundDuration":183486,"Delta":372173268},{"NoteNumber":73,"Velocity":33,"Duration":183486,"SoundDuration":183486,"Delta":372356754},{"NoteNumber":70,"Velocity":33,"Duration":183486,"SoundDuration":183486,"Delta":372540241},{"NoteNumber":64,"Velocity":52,"Duration":282496,"SoundDuration":282496,"Delta":372723727},{"NoteNumber":73,"Velocity":40,"Duration":183486,"SoundDuration":183486,"Delta":372723727},{"NoteNumber":70,"Velocity":34,"Duration":198019,"SoundDuration":198019,"Delta":372907213},{"NoteNumber":61,"Velocity":48,"Duration":297143,"SoundDuration":297143,"Delta":373006223},{"NoteNumber":73,"Velocity":34,"Duration":198133,"SoundDuration":198133,"Delta":373105233},{"NoteNumber":71,"Velocity":59,"Duration":138889,"SoundDuration":138889,"Delta":373303366},{"NoteNumber":75,"Velocity":59,"Duration":138889,"SoundDuration":138889,"Delta":373303366},{"NoteNumber":66,"Velocity":40,"Duration":185185,"SoundDuration":185185,"Delta":373303366},{"NoteNumber":76,"Velocity":48,"Duration":138889,"SoundDuration":138889,"Delta":373442255},{"NoteNumber":71,"Velocity":32,"Duration":183501,"SoundDuration":183501,"Delta":373488552},{"NoteNumber":75,"Velocity":48,"Duration":136363,"SoundDuration":136363,"Delta":373581144},{"NoteNumber":66,"Velocity":32,"Duration":181818,"SoundDuration":181818,"Delta":373672054},{"NoteNumber":74,"Velocity":48,"Duration":136363,"SoundDuration":136363,"Delta":373717508},{"NoteNumber":75,"Velocity":55,"Duration":136363,"SoundDuration":136363,"Delta":373853872},{"NoteNumber":71,"Velocity":40,"Duration":181818,"SoundDuration":181818,"Delta":373853872},{"NoteNumber":76,"Velocity":48,"Duration":136363,"SoundDuration":136363,"Delta":373990236},{"NoteNumber":66,"Velocity":36,"Duration":181818,"SoundDuration":181818,"Delta":374035690},{"NoteNumber":78,"Velocity":48,"Duration":141670,"SoundDuration":141670,"Delta":374126599},{"NoteNumber":71,"Velocity":36,"Duration":203045,"SoundDuration":203045,"Delta":374217509},{"NoteNumber":77,"Velocity":48,"Duration":152284,"SoundDuration":152284,"Delta":374268270},{"NoteNumber":80,"Velocity":57,"Duration":136363,"SoundDuration":136363,"Delta":374420554},{"NoteNumber":66,"Velocity":40,"Duration":181818,"SoundDuration":181818,"Delta":374420554},{"NoteNumber":78,"Velocity":54,"Duration":136363,"SoundDuration":136363,"Delta":374556918},{"NoteNumber":70,"Velocity":33,"Duration":181818,"SoundDuration":181818,"Delta":374602373},{"NoteNumber":77,"Velocity":54,"Duration":136363,"SoundDuration":136363,"Delta":374693282},{"NoteNumber":66,"Velocity":33,"Duration":181818,"SoundDuration":181818,"Delta":374784191},{"NoteNumber":78,"Velocity":54,"Duration":136363,"SoundDuration":136363,"Delta":374829645},{"NoteNumber":76,"Velocity":56,"Duration":136363,"SoundDuration":136363,"Delta":374966009},{"NoteNumber":70,"Velocity":40,"Duration":181818,"SoundDuration":181818,"Delta":374966009},{"NoteNumber":75,"Velocity":53,"Duration":136363,"SoundDuration":136363,"Delta":375102373},{"NoteNumber":66,"Velocity":34,"Duration":181818,"SoundDuration":181818,"Delta":375147828},{"NoteNumber":76,"Velocity":51,"Duration":136363,"SoundDuration":136363,"Delta":375238737},{"NoteNumber":70,"Velocity":34,"Duration":191271,"SoundDuration":191271,"Delta":375329646},{"NoteNumber":73,"Velocity":45,"Duration":145816,"SoundDuration":145816,"Delta":375375100},{"NoteNumber":63,"Velocity":59,"Duration":140187,"SoundDuration":140187,"Delta":375520917},{"NoteNumber":75,"Velocity":59,"Duration":280373,"SoundDuration":280373,"Delta":375520917},{"NoteNumber":66,"Velocity":40,"Duration":186915,"SoundDuration":186915,"Delta":375520917},{"NoteNumber":64,"Velocity":48,"Duration":140186,"SoundDuration":140186,"Delta":375661104},{"NoteNumber":71,"Velocity":32,"Duration":185201,"SoundDuration":185201,"Delta":375707833},{"NoteNumber":63,"Velocity":48,"Duration":137614,"SoundDuration":137614,"Delta":375801291},{"NoteNumber":66,"Velocity":32,"Duration":183486,"SoundDuration":183486,"Delta":375893034},{"NoteNumber":62,"Velocity":48,"Duration":137614,"SoundDuration":137614,"Delta":375938906},{"NoteNumber":63,"Velocity":55,"Duration":137614,"SoundDuration":137614,"Delta":376076521},{"NoteNumber":71,"Velocity":40,"Duration":183486,"SoundDuration":183486,"Delta":376076521},{"NoteNumber":64,"Velocity":48,"Duration":137614,"SoundDuration":137614,"Delta":376214135},{"NoteNumber":66,"Velocity":36,"Duration":183486,"SoundDuration":183486,"Delta":376260007},{"NoteNumber":66,"Velocity":48,"Duration":142504,"SoundDuration":142504,"Delta":376351750},{"NoteNumber":71,"Velocity":36,"Duration":197820,"SoundDuration":197820,"Delta":376443493},{"NoteNumber":65,"Velocity":48,"Duration":147058,"SoundDuration":147058,"Delta":376494255},{"NoteNumber":68,"Velocity":57,"Duration":137614,"SoundDuration":137614,"Delta":376641314},{"NoteNumber":70,"Velocity":40,"Duration":183486,"SoundDuration":183486,"Delta":376641314},{"NoteNumber":66,"Velocity":54,"Duration":137614,"SoundDuration":137614,"Delta":376778928},{"NoteNumber":73,"Velocity":33,"Duration":183486,"SoundDuration":183486,"Delta":376824800},{"NoteNumber":65,"Velocity":54,"Duration":137614,"SoundDuration":137614,"Delta":376916543},{"NoteNumber":70,"Velocity":33,"Duration":183486,"SoundDuration":183486,"Delta":377008286},{"NoteNumber":66,"Velocity":54,"Duration":137614,"SoundDuration":137614,"Delta":377054158},{"NoteNumber":64,"Velocity":56,"Duration":137614,"SoundDuration":137614,"Delta":377191773},{"NoteNumber":73,"Velocity":40,"Duration":183486,"SoundDuration":183486,"Delta":377191773},{"NoteNumber":63,"Velocity":53,"Duration":137614,"SoundDuration":137614,"Delta":377329387},{"NoteNumber":64,"Velocity":51,"Duration":169491,"SoundDuration":169491,"Delta":377467002},{"NoteNumber":66,"Velocity":45,"Duration":130434,"SoundDuration":130434,"Delta":377636494},{"NoteNumber":30,"Velocity":70,"Duration":130434,"SoundDuration":130434,"Delta":377636494},{"NoteNumber":61,"Velocity":51,"Duration":228137,"SoundDuration":228137,"Delta":377766928},{"NoteNumber":54,"Velocity":51,"Duration":228137,"SoundDuration":228137,"Delta":377766928},{"NoteNumber":64,"Velocity":61,"Duration":228137,"SoundDuration":228137,"Delta":377766928},{"NoteNumber":34,"Velocity":68,"Duration":340304,"SoundDuration":340304,"Delta":377766928},{"NoteNumber":34,"Velocity":61,"Duration":112167,"SoundDuration":112167,"Delta":378109134},{"NoteNumber":34,"Velocity":68,"Duration":171102,"SoundDuration":171102,"Delta":378223202},{"NoteNumber":35,"Velocity":64,"Duration":85551,"SoundDuration":85551,"Delta":378451339},{"NoteNumber":54,"Velocity":63,"Duration":90361,"SoundDuration":90361,"Delta":378565408},{"NoteNumber":34,"Velocity":61,"Duration":90361,"SoundDuration":90361,"Delta":378565408},{"NoteNumber":34,"Velocity":61,"Duration":171102,"SoundDuration":171102,"Delta":378685890},{"NoteNumber":58,"Velocity":61,"Duration":340304,"SoundDuration":340304,"Delta":378685890},{"NoteNumber":30,"Velocity":61,"Duration":171102,"SoundDuration":171102,"Delta":378914027},{"NoteNumber":58,"Velocity":54,"Duration":112167,"SoundDuration":112167,"Delta":379028095},{"NoteNumber":58,"Velocity":61,"Duration":171102,"SoundDuration":171102,"Delta":379142164},{"NoteNumber":59,"Velocity":48,"Duration":42775,"SoundDuration":42775,"Delta":379370301},{"NoteNumber":66,"Velocity":63,"Duration":90361,"SoundDuration":90361,"Delta":379484369},{"NoteNumber":58,"Velocity":51,"Duration":90361,"SoundDuration":90361,"Delta":379484369},{"NoteNumber":73,"Velocity":61,"Duration":340304,"SoundDuration":340304,"Delta":379604851},{"NoteNumber":58,"Velocity":51,"Duration":114068,"SoundDuration":114068,"Delta":379604851},{"NoteNumber":54,"Velocity":51,"Duration":114068,"SoundDuration":114068,"Delta":379832988},{"NoteNumber":73,"Velocity":54,"Duration":112167,"SoundDuration":112167,"Delta":379947057},{"NoteNumber":73,"Velocity":61,"Duration":171102,"SoundDuration":171102,"Delta":380061125},{"NoteNumber":75,"Velocity":48,"Duration":85551,"SoundDuration":85551,"Delta":380289262},{"NoteNumber":61,"Velocity":63,"Duration":90361,"SoundDuration":90361,"Delta":380403331},{"NoteNumber":73,"Velocity":51,"Duration":90361,"SoundDuration":90361,"Delta":380403331},{"NoteNumber":73,"Velocity":51,"Duration":114068,"SoundDuration":114068,"Delta":380523813},{"NoteNumber":64,"Velocity":61,"Duration":340304,"SoundDuration":340304,"Delta":380523813},{"NoteNumber":70,"Velocity":51,"Duration":114068,"SoundDuration":114068,"Delta":380751950},{"NoteNumber":64,"Velocity":54,"Duration":112167,"SoundDuration":112167,"Delta":380866018},{"NoteNumber":64,"Velocity":61,"Duration":171102,"SoundDuration":171102,"Delta":380980087},{"NoteNumber":66,"Velocity":48,"Duration":85551,"SoundDuration":85551,"Delta":381208224},{"NoteNumber":64,"Velocity":51,"Duration":90361,"SoundDuration":90361,"Delta":381322292},{"NoteNumber":30,"Velocity":63,"Duration":120481,"SoundDuration":120481,"Delta":381322292},{"NoteNumber":64,"Velocity":51,"Duration":114068,"SoundDuration":114068,"Delta":381442774},{"NoteNumber":40,"Velocity":61,"Duration":340304,"SoundDuration":340304,"Delta":381442774},{"NoteNumber":61,"Velocity":51,"Duration":114068,"SoundDuration":114068,"Delta":381670911},{"NoteNumber":42,"Velocity":63,"Duration":114068,"SoundDuration":114068,"Delta":381784980},{"NoteNumber":40,"Velocity":54,"Duration":112167,"SoundDuration":112167,"Delta":381784980},{"NoteNumber":52,"Velocity":61,"Duration":342205,"SoundDuration":342205,"Delta":381899048},{"NoteNumber":40,"Velocity":61,"Duration":171102,"SoundDuration":171102,"Delta":381899048},{"NoteNumber":66,"Velocity":63,"Duration":90361,"SoundDuration":90361,"Delta":382241254},{"NoteNumber":52,"Velocity":54,"Duration":120481,"SoundDuration":120481,"Delta":382241254},{"NoteNumber":76,"Velocity":67,"Duration":340304,"SoundDuration":340304,"Delta":382361736},{"NoteNumber":52,"Velocity":61,"Duration":171102,"SoundDuration":171102,"Delta":382361736},{"NoteNumber":64,"Velocity":63,"Duration":85551,"SoundDuration":85551,"Delta":382703941},{"NoteNumber":76,"Velocity":54,"Duration":112167,"SoundDuration":112167,"Delta":382703941},{"NoteNumber":73,"Velocity":61,"Duration":342205,"SoundDuration":342205,"Delta":382818010},{"NoteNumber":76,"Velocity":61,"Duration":171102,"SoundDuration":171102,"Delta":382818010},{"NoteNumber":73,"Velocity":54,"Duration":120967,"SoundDuration":120967,"Delta":383160215},{"NoteNumber":37,"Velocity":63,"Duration":120967,"SoundDuration":120967,"Delta":383160215},{"NoteNumber":73,"Velocity":61,"Duration":171102,"SoundDuration":171102,"Delta":383281183},{"NoteNumber":46,"Velocity":61,"Duration":340304,"SoundDuration":340304,"Delta":383281183},{"NoteNumber":49,"Velocity":63,"Duration":114068,"SoundDuration":114068,"Delta":383623389},{"NoteNumber":46,"Velocity":54,"Duration":112167,"SoundDuration":112167,"Delta":383623389},{"NoteNumber":58,"Velocity":61,"Duration":342205,"SoundDuration":342205,"Delta":383737457},{"NoteNumber":46,"Velocity":61,"Duration":171102,"SoundDuration":171102,"Delta":383737457},{"NoteNumber":73,"Velocity":63,"Duration":89285,"SoundDuration":89285,"Delta":384079663},{"NoteNumber":58,"Velocity":54,"Duration":117063,"SoundDuration":117063,"Delta":384079663},{"NoteNumber":82,"Velocity":67,"Duration":340304,"SoundDuration":340304,"Delta":384198710},{"NoteNumber":58,"Velocity":61,"Duration":171102,"SoundDuration":171102,"Delta":384198710},{"NoteNumber":61,"Velocity":63,"Duration":85551,"SoundDuration":85551,"Delta":384540916},{"NoteNumber":82,"Velocity":54,"Duration":112167,"SoundDuration":112167,"Delta":384540916},{"NoteNumber":70,"Velocity":61,"Duration":342205,"SoundDuration":342205,"Delta":384654984},{"NoteNumber":82,"Velocity":61,"Duration":171102,"SoundDuration":171102,"Delta":384654984},{"NoteNumber":70,"Velocity":54,"Duration":119433,"SoundDuration":119433,"Delta":384997190},{"NoteNumber":40,"Velocity":63,"Duration":91093,"SoundDuration":91093,"Delta":384997190},{"NoteNumber":70,"Velocity":61,"Duration":171755,"SoundDuration":171755,"Delta":385118647},{"NoteNumber":49,"Velocity":72,"Duration":801526,"SoundDuration":801526,"Delta":385118647},{"NoteNumber":52,"Velocity":64,"Duration":85877,"SoundDuration":85877,"Delta":385462158},{"NoteNumber":61,"Velocity":62,"Duration":813631,"SoundDuration":813631,"Delta":385576662},{"NoteNumber":43,"Velocity":66,"Duration":92975,"SoundDuration":92975,"Delta":385920173},{"NoteNumber":52,"Velocity":75,"Duration":807691,"SoundDuration":807691,"Delta":386044140},{"NoteNumber":55,"Velocity":68,"Duration":86538,"SoundDuration":86538,"Delta":386390294},{"NoteNumber":64,"Velocity":71,"Duration":587146,"SoundDuration":587146,"Delta":386505678},{"NoteNumber":43,"Velocity":69,"Duration":94537,"SoundDuration":94537,"Delta":386851832},{"NoteNumber":52,"Velocity":77,"Duration":344827,"SoundDuration":344827,"Delta":386977882},{"NoteNumber":55,"Velocity":70,"Duration":86206,"SoundDuration":86206,"Delta":387092825},{"NoteNumber":64,"Velocity":76,"Duration":342244,"SoundDuration":342244,"Delta":387207767},{"NoteNumber":67,"Velocity":71,"Duration":86206,"SoundDuration":86206,"Delta":387322710},{"NoteNumber":76,"Velocity":77,"Duration":344718,"SoundDuration":344718,"Delta":387437652},{"NoteNumber":79,"Velocity":72,"Duration":84269,"SoundDuration":84269,"Delta":387550012},{"NoteNumber":88,"Velocity":78,"Duration":356731,"SoundDuration":356731,"Delta":387662371},{"NoteNumber":44,"Velocity":73,"Duration":89999,"SoundDuration":89999,"Delta":387782371},{"NoteNumber":52,"Velocity":71,"Duration":350194,"SoundDuration":350194,"Delta":387902371},{"NoteNumber":56,"Velocity":74,"Duration":87548,"SoundDuration":87548,"Delta":388019103},{"NoteNumber":64,"Velocity":79,"Duration":346245,"SoundDuration":346245,"Delta":388135834},{"NoteNumber":68,"Velocity":74,"Duration":87548,"SoundDuration":87548,"Delta":388252566},{"NoteNumber":76,"Velocity":79,"Duration":347515,"SoundDuration":347515,"Delta":388369297},{"NoteNumber":80,"Velocity":76,"Duration":84586,"SoundDuration":84586,"Delta":388482079},{"NoteNumber":88,"Velocity":83,"Duration":359286,"SoundDuration":359286,"Delta":388594861},{"NoteNumber":45,"Velocity":76,"Duration":91463,"SoundDuration":91463,"Delta":388716813},{"NoteNumber":52,"Velocity":75,"Duration":346153,"SoundDuration":346153,"Delta":388838764},{"NoteNumber":57,"Velocity":78,"Duration":86538,"SoundDuration":86538,"Delta":388954148},{"NoteNumber":64,"Velocity":84,"Duration":342709,"SoundDuration":342709,"Delta":389069533},{"NoteNumber":69,"Velocity":78,"Duration":86538,"SoundDuration":86538,"Delta":389184917},{"NoteNumber":76,"Velocity":86,"Duration":343880,"SoundDuration":343880,"Delta":389300302},{"NoteNumber":81,"Velocity":81,"Duration":83955,"SoundDuration":83955,"Delta":389412242},{"NoteNumber":88,"Velocity":88,"Duration":355384,"SoundDuration":355384,"Delta":389524182},{"NoteNumber":45,"Velocity":83,"Duration":89999,"SoundDuration":89999,"Delta":389644182},{"NoteNumber":53,"Velocity":93,"Duration":346153,"SoundDuration":346153,"Delta":389764182},{"NoteNumber":57,"Velocity":85,"Duration":86538,"SoundDuration":86538,"Delta":389879567},{"NoteNumber":65,"Velocity":93,"Duration":343550,"SoundDuration":343550,"Delta":389994951},{"NoteNumber":69,"Velocity":86,"Duration":86538,"SoundDuration":86538,"Delta":390110336},{"NoteNumber":77,"Velocity":97,"Duration":358307,"SoundDuration":358307,"Delta":390225720},{"NoteNumber":81,"Velocity":89,"Duration":84586,"SoundDuration":84586,"Delta":390338502},{"NoteNumber":89,"Velocity":101,"Duration":305156,"SoundDuration":305156,"Delta":390451284},{"NoteNumber":46,"Velocity":100,"Duration":172413,"SoundDuration":172413,"Delta":390584028},{"NoteNumber":34,"Velocity":88,"Duration":172413,"SoundDuration":172413,"Delta":390584028},{"NoteNumber":74,"Velocity":82,"Duration":171102,"SoundDuration":171102,"Delta":390756441},{"NoteNumber":82,"Velocity":82,"Duration":171102,"SoundDuration":171102,"Delta":390756441},{"NoteNumber":77,"Velocity":82,"Duration":171102,"SoundDuration":171102,"Delta":390756441},{"NoteNumber":46,"Velocity":110,"Duration":228137,"SoundDuration":228137,"Delta":390756441},{"NoteNumber":58,"Velocity":110,"Duration":228137,"SoundDuration":228137,"Delta":390756441},{"NoteNumber":86,"Velocity":99,"Duration":171102,"SoundDuration":171102,"Delta":390766898},{"NoteNumber":60,"Velocity":97,"Duration":114068,"SoundDuration":114068,"Delta":390984578},{"NoteNumber":74,"Velocity":91,"Duration":114068,"SoundDuration":114068,"Delta":391098647},{"NoteNumber":82,"Velocity":91,"Duration":114068,"SoundDuration":114068,"Delta":391098647},{"NoteNumber":86,"Velocity":111,"Duration":114068,"SoundDuration":114068,"Delta":391098647},{"NoteNumber":77,"Velocity":91,"Duration":114068,"SoundDuration":114068,"Delta":391098647},{"NoteNumber":58,"Velocity":88,"Duration":114068,"SoundDuration":114068,"Delta":391098647},{"NoteNumber":77,"Velocity":82,"Duration":171102,"SoundDuration":171102,"Delta":391212715},{"NoteNumber":86,"Velocity":99,"Duration":171102,"SoundDuration":171102,"Delta":391212715},{"NoteNumber":82,"Velocity":82,"Duration":171102,"SoundDuration":171102,"Delta":391212715},{"NoteNumber":74,"Velocity":82,"Duration":171102,"SoundDuration":171102,"Delta":391212715},{"NoteNumber":53,"Velocity":97,"Duration":228137,"SoundDuration":228137,"Delta":391212715},{"NoteNumber":74,"Velocity":84,"Duration":42775,"SoundDuration":42775,"Delta":391440852},{"NoteNumber":87,"Velocity":104,"Duration":42775,"SoundDuration":42775,"Delta":391440852},{"NoteNumber":82,"Velocity":84,"Duration":42775,"SoundDuration":42775,"Delta":391440852},{"NoteNumber":77,"Velocity":84,"Duration":42775,"SoundDuration":42775,"Delta":391440852},{"NoteNumber":55,"Velocity":97,"Duration":114068,"SoundDuration":114068,"Delta":391440852},{"NoteNumber":74,"Velocity":86,"Duration":53066,"SoundDuration":53066,"Delta":391554921},{"NoteNumber":86,"Velocity":102,"Duration":53066,"SoundDuration":53066,"Delta":391554921},{"NoteNumber":77,"Velocity":86,"Duration":53066,"SoundDuration":53066,"Delta":391554921},{"NoteNumber":82,"Velocity":86,"Duration":53066,"SoundDuration":53066,"Delta":391554921},{"NoteNumber":53,"Velocity":90,"Duration":141509,"SoundDuration":141509,"Delta":391554921},{"NoteNumber":77,"Velocity":91,"Duration":131004,"SoundDuration":131004,"Delta":391696430},{"NoteNumber":74,"Velocity":91,"Duration":131004,"SoundDuration":131004,"Delta":391696430},{"NoteNumber":82,"Velocity":91,"Duration":131004,"SoundDuration":131004,"Delta":391696430},{"NoteNumber":86,"Velocity":111,"Duration":131004,"SoundDuration":131004,"Delta":391696430},{"NoteNumber":50,"Velocity":97,"Duration":262008,"SoundDuration":262008,"Delta":391696430},{"NoteNumber":74,"Velocity":84,"Duration":131004,"SoundDuration":131004,"Delta":391958439},{"NoteNumber":70,"Velocity":84,"Duration":131004,"SoundDuration":131004,"Delta":391958439},{"NoteNumber":77,"Velocity":84,"Duration":131004,"SoundDuration":131004,"Delta":391958439},{"NoteNumber":82,"Velocity":101,"Duration":131004,"SoundDuration":131004,"Delta":391958439},{"NoteNumber":51,"Velocity":97,"Duration":131004,"SoundDuration":131004,"Delta":391958439},{"NoteNumber":50,"Velocity":91,"Duration":131004,"SoundDuration":131004,"Delta":392089443},{"NoteNumber":46,"Velocity":97,"Duration":262008,"SoundDuration":262008,"Delta":392220447},{"NoteNumber":48,"Velocity":97,"Duration":131004,"SoundDuration":131004,"Delta":392482456},{"NoteNumber":77,"Velocity":101,"Duration":122449,"SoundDuration":122449,"Delta":392613460},{"NoteNumber":74,"Velocity":93,"Duration":122449,"SoundDuration":122449,"Delta":392613460},{"NoteNumber":46,"Velocity":97,"Duration":61224,"SoundDuration":61224,"Delta":392613460},{"NoteNumber":38,"Velocity":88,"Duration":30612,"SoundDuration":30612,"Delta":392674685},{"NoteNumber":50,"Velocity":89,"Duration":30612,"SoundDuration":30612,"Delta":392705297},{"NoteNumber":82,"Velocity":82,"Duration":174418,"SoundDuration":174418,"Delta":392735909},{"NoteNumber":77,"Velocity":82,"Duration":174418,"SoundDuration":174418,"Delta":392735909},{"NoteNumber":89,"Velocity":99,"Duration":174418,"SoundDuration":174418,"Delta":392735909},{"NoteNumber":62,"Velocity":110,"Duration":232557,"SoundDuration":232557,"Delta":392735909},{"NoteNumber":63,"Velocity":97,"Duration":116279,"SoundDuration":116279,"Delta":392968467},{"NoteNumber":82,"Velocity":91,"Duration":116279,"SoundDuration":116279,"Delta":393084746},{"NoteNumber":77,"Velocity":91,"Duration":116279,"SoundDuration":116279,"Delta":393084746},{"NoteNumber":89,"Velocity":111,"Duration":116279,"SoundDuration":116279,"Delta":393084746},{"NoteNumber":86,"Velocity":91,"Duration":116279,"SoundDuration":116279,"Delta":393084746},{"NoteNumber":62,"Velocity":88,"Duration":116279,"SoundDuration":116279,"Delta":393084746},{"NoteNumber":86,"Velocity":82,"Duration":174418,"SoundDuration":174418,"Delta":393201025},{"NoteNumber":82,"Velocity":82,"Duration":174418,"SoundDuration":174418,"Delta":393201025},{"NoteNumber":77,"Velocity":82,"Duration":174418,"SoundDuration":174418,"Delta":393201025},{"NoteNumber":89,"Velocity":99,"Duration":174418,"SoundDuration":174418,"Delta":393201025},{"NoteNumber":58,"Velocity":97,"Duration":232557,"SoundDuration":232557,"Delta":393201025},{"NoteNumber":91,"Velocity":104,"Duration":43604,"SoundDuration":43604,"Delta":393433583},{"NoteNumber":86,"Velocity":84,"Duration":43604,"SoundDuration":43604,"Delta":393433583},{"NoteNumber":82,"Velocity":84,"Duration":43604,"SoundDuration":43604,"Delta":393433583},{"NoteNumber":77,"Velocity":84,"Duration":43604,"SoundDuration":43604,"Delta":393433583},{"NoteNumber":62,"Velocity":97,"Duration":116279,"SoundDuration":116279,"Delta":393433583},{"NoteNumber":89,"Velocity":102,"Duration":54086,"SoundDuration":54086,"Delta":393549862},{"NoteNumber":86,"Velocity":86,"Duration":54086,"SoundDuration":54086,"Delta":393549862},{"NoteNumber":77,"Velocity":86,"Duration":54086,"SoundDuration":54086,"Delta":393549862},{"NoteNumber":82,"Velocity":86,"Duration":54086,"SoundDuration":54086,"Delta":393549862},{"NoteNumber":58,"Velocity":90,"Duration":144230,"SoundDuration":144230,"Delta":393549862},{"NoteNumber":89,"Velocity":111,"Duration":132158,"SoundDuration":132158,"Delta":393694093},{"NoteNumber":86,"Velocity":91,"Duration":132158,"SoundDuration":132158,"Delta":393694093},{"NoteNumber":82,"Velocity":91,"Duration":132158,"SoundDuration":132158,"Delta":393694093},{"NoteNumber":77,"Velocity":91,"Duration":132158,"SoundDuration":132158,"Delta":393694093},{"NoteNumber":53,"Velocity":97,"Duration":264317,"SoundDuration":264317,"Delta":393694093},{"NoteNumber":86,"Velocity":101,"Duration":132158,"SoundDuration":132158,"Delta":393958410},{"NoteNumber":74,"Velocity":84,"Duration":132158,"SoundDuration":132158,"Delta":393958410},{"NoteNumber":77,"Velocity":84,"Duration":132158,"SoundDuration":132158,"Delta":393958410},{"NoteNumber":82,"Velocity":84,"Duration":132158,"SoundDuration":132158,"Delta":393958410},{"NoteNumber":58,"Velocity":93,"Duration":132158,"SoundDuration":132158,"Delta":393958410},{"NoteNumber":53,"Velocity":88,"Duration":132158,"SoundDuration":132158,"Delta":394090568},{"NoteNumber":50,"Velocity":78,"Duration":132158,"SoundDuration":132158,"Delta":394222727},{"NoteNumber":46,"Velocity":73,"Duration":132158,"SoundDuration":132158,"Delta":394354885},{"NoteNumber":79,"Velocity":45,"Duration":132158,"SoundDuration":132158,"Delta":394487044},{"NoteNumber":82,"Velocity":54,"Duration":132158,"SoundDuration":132158,"Delta":394487044},{"NoteNumber":51,"Velocity":40,"Duration":132158,"SoundDuration":132158,"Delta":394487044},{"NoteNumber":81,"Velocity":43,"Duration":132158,"SoundDuration":132158,"Delta":394619202},{"NoteNumber":84,"Velocity":51,"Duration":132158,"SoundDuration":132158,"Delta":394619202},{"NoteNumber":48,"Velocity":35,"Duration":132158,"SoundDuration":132158,"Delta":394619202},{"NoteNumber":77,"Velocity":51,"Duration":542759,"SoundDuration":542759,"Delta":394751361},{"NoteNumber":86,"Velocity":61,"Duration":542759,"SoundDuration":542759,"Delta":394751361},{"NoteNumber":82,"Velocity":51,"Duration":542759,"SoundDuration":542759,"Delta":394751361},{"NoteNumber":46,"Velocity":29,"Duration":283019,"SoundDuration":283019,"Delta":394751361},{"NoteNumber":48,"Velocity":34,"Duration":129870,"SoundDuration":129870,"Delta":395034380},{"NoteNumber":46,"Velocity":31,"Duration":129870,"SoundDuration":129870,"Delta":395164250},{"NoteNumber":77,"Velocity":47,"Duration":259740,"SoundDuration":259740,"Delta":395294120},{"NoteNumber":84,"Velocity":56,"Duration":259740,"SoundDuration":259740,"Delta":395294120},{"NoteNumber":81,"Velocity":47,"Duration":259740,"SoundDuration":259740,"Delta":395294120},{"NoteNumber":41,"Velocity":30,"Duration":259740,"SoundDuration":259740,"Delta":395294120},{"NoteNumber":53,"Velocity":36,"Duration":259740,"SoundDuration":259740,"Delta":395294120},{"NoteNumber":69,"Velocity":47,"Duration":129870,"SoundDuration":129870,"Delta":395553861},{"NoteNumber":72,"Velocity":56,"Duration":129870,"SoundDuration":129870,"Delta":395553861},{"NoteNumber":65,"Velocity":41,"Duration":259740,"SoundDuration":259740,"Delta":395553861},{"NoteNumber":51,"Velocity":33,"Duration":129870,"SoundDuration":129870,"Delta":395553861},{"NoteNumber":71,"Velocity":35,"Duration":129870,"SoundDuration":129870,"Delta":395683731},{"NoteNumber":74,"Velocity":46,"Duration":129870,"SoundDuration":129870,"Delta":395683731},{"NoteNumber":50,"Velocity":30,"Duration":129870,"SoundDuration":129870,"Delta":395683731},{"NoteNumber":67,"Velocity":49,"Duration":548356,"SoundDuration":548356,"Delta":395813601},{"NoteNumber":72,"Velocity":49,"Duration":548356,"SoundDuration":548356,"Delta":395813601},{"NoteNumber":75,"Velocity":58,"Duration":548356,"SoundDuration":548356,"Delta":395813601},{"NoteNumber":48,"Velocity":35,"Duration":266666,"SoundDuration":266666,"Delta":395813601},{"NoteNumber":50,"Velocity":33,"Duration":140845,"SoundDuration":140845,"Delta":396080268},{"NoteNumber":48,"Velocity":29,"Duration":140845,"SoundDuration":140845,"Delta":396221113},{"NoteNumber":67,"Velocity":43,"Duration":271493,"SoundDuration":271493,"Delta":396361958},{"NoteNumber":74,"Velocity":51,"Duration":271493,"SoundDuration":271493,"Delta":396361958},{"NoteNumber":70,"Velocity":43,"Duration":271493,"SoundDuration":271493,"Delta":396361958},{"NoteNumber":43,"Velocity":28,"Duration":271493,"SoundDuration":271493,"Delta":396361958},{"NoteNumber":55,"Velocity":34,"Duration":271493,"SoundDuration":271493,"Delta":396361958},{"NoteNumber":74,"Velocity":58,"Duration":144927,"SoundDuration":144927,"Delta":396633451},{"NoteNumber":70,"Velocity":49,"Duration":591362,"SoundDuration":591362,"Delta":396633451},{"NoteNumber":53,"Velocity":28,"Duration":144927,"SoundDuration":144927,"Delta":396633451},{"NoteNumber":56,"Velocity":33,"Duration":144927,"SoundDuration":144927,"Delta":396633451},{"NoteNumber":75,"Velocity":60,"Duration":144927,"SoundDuration":144927,"Delta":396778378},{"NoteNumber":51,"Velocity":28,"Duration":144927,"SoundDuration":144927,"Delta":396778378},{"NoteNumber":55,"Velocity":33,"Duration":144927,"SoundDuration":144927,"Delta":396778378},{"NoteNumber":77,"Velocity":63,"Duration":443687,"SoundDuration":443687,"Delta":396923306},{"NoteNumber":50,"Velocity":31,"Duration":301507,"SoundDuration":301507,"Delta":396923306},{"NoteNumber":53,"Velocity":37,"Duration":301507,"SoundDuration":301507,"Delta":396923306},{"NoteNumber":67,"Velocity":45,"Duration":284359,"SoundDuration":284359,"Delta":397224813},{"NoteNumber":70,"Velocity":54,"Duration":284359,"SoundDuration":284359,"Delta":397224813},{"NoteNumber":49,"Velocity":27,"Duration":284359,"SoundDuration":284359,"Delta":397224813},{"NoteNumber":52,"Velocity":32,"Duration":284359,"SoundDuration":284359,"Delta":397224813},{"NoteNumber":79,"Velocity":60,"Duration":142179,"SoundDuration":142179,"Delta":397366993},{"NoteNumber":67,"Velocity":62,"Duration":313608,"SoundDuration":313608,"Delta":397509173},{"NoteNumber":77,"Velocity":62,"Duration":142179,"SoundDuration":142179,"Delta":397509173},{"NoteNumber":48,"Velocity":32,"Duration":313608,"SoundDuration":313608,"Delta":397509173},{"NoteNumber":51,"Velocity":38,"Duration":313608,"SoundDuration":313608,"Delta":397509173},{"NoteNumber":75,"Velocity":51,"Duration":334472,"SoundDuration":334472,"Delta":397651353},{"NoteNumber":69,"Velocity":57,"Duration":326086,"SoundDuration":326086,"Delta":397822782},{"NoteNumber":41,"Velocity":25,"Duration":326086,"SoundDuration":326086,"Delta":397822782},{"NoteNumber":48,"Velocity":30,"Duration":326086,"SoundDuration":326086,"Delta":397822782},{"NoteNumber":77,"Velocity":50,"Duration":163043,"SoundDuration":163043,"Delta":397985825},{"NoteNumber":70,"Velocity":51,"Duration":407996,"SoundDuration":407996,"Delta":398148869},{"NoteNumber":75,"Velocity":60,"Duration":175438,"SoundDuration":175438,"Delta":398148869},{"NoteNumber":43,"Velocity":28,"Duration":407996,"SoundDuration":407996,"Delta":398148869},{"NoteNumber":46,"Velocity":33,"Duration":407996,"SoundDuration":407996,"Delta":398148869},{"NoteNumber":74,"Velocity":46,"Duration":232558,"SoundDuration":232558,"Delta":398324307},{"NoteNumber":65,"Velocity":41,"Duration":297029,"SoundDuration":297029,"Delta":398556866},{"NoteNumber":68,"Velocity":41,"Duration":297029,"SoundDuration":297029,"Delta":398556866},{"NoteNumber":74,"Velocity":49,"Duration":297029,"SoundDuration":297029,"Delta":398556866},{"NoteNumber":77,"Velocity":49,"Duration":297029,"SoundDuration":297029,"Delta":398556866},{"NoteNumber":38,"Velocity":28,"Duration":297029,"SoundDuration":297029,"Delta":398556866},{"NoteNumber":47,"Velocity":33,"Duration":297029,"SoundDuration":297029,"Delta":398556866},{"NoteNumber":67,"Velocity":37,"Duration":461538,"SoundDuration":461538,"Delta":398853895},{"NoteNumber":72,"Velocity":44,"Duration":461538,"SoundDuration":461538,"Delta":398853895},{"NoteNumber":75,"Velocity":44,"Duration":461538,"SoundDuration":461538,"Delta":398853895},{"NoteNumber":63,"Velocity":37,"Duration":461538,"SoundDuration":461538,"Delta":398853895},{"NoteNumber":39,"Velocity":24,"Duration":461538,"SoundDuration":461538,"Delta":398853895},{"NoteNumber":48,"Velocity":29,"Duration":461538,"SoundDuration":461538,"Delta":398853895},{"NoteNumber":60,"Velocity":34,"Duration":1395349,"SoundDuration":1395349,"Delta":399315434},{"NoteNumber":72,"Velocity":40,"Duration":1395349,"SoundDuration":1395349,"Delta":399315434},{"NoteNumber":69,"Velocity":40,"Duration":1395349,"SoundDuration":1395349,"Delta":399315434},{"NoteNumber":41,"Velocity":24,"Duration":1395349,"SoundDuration":1395349,"Delta":399315434},{"NoteNumber":48,"Velocity":29,"Duration":1395349,"SoundDuration":1395349,"Delta":399315434},{"NoteNumber":74,"Velocity":58,"Duration":139535,"SoundDuration":139535,"Delta":400710783},{"NoteNumber":53,"Velocity":28,"Duration":279069,"SoundDuration":279069,"Delta":400710783},{"NoteNumber":58,"Velocity":33,"Duration":139535,"SoundDuration":139535,"Delta":400710783},{"NoteNumber":75,"Velocity":60,"Duration":139534,"SoundDuration":139534,"Delta":400850318},{"NoteNumber":60,"Velocity":33,"Duration":139534,"SoundDuration":139534,"Delta":400850318},{"NoteNumber":77,"Velocity":63,"Duration":425983,"SoundDuration":425983,"Delta":400989853},{"NoteNumber":53,"Velocity":31,"Duration":2051456,"SoundDuration":2051456,"Delta":400989853},{"NoteNumber":62,"Velocity":37,"Duration":425983,"SoundDuration":425983,"Delta":400989853},{"NoteNumber":69,"Velocity":45,"Duration":137614,"SoundDuration":137614,"Delta":401140607},{"NoteNumber":70,"Velocity":54,"Duration":425229,"SoundDuration":425229,"Delta":401278221},{"NoteNumber":79,"Velocity":60,"Duration":137614,"SoundDuration":137614,"Delta":401415836},{"NoteNumber":63,"Velocity":32,"Duration":137614,"SoundDuration":137614,"Delta":401415836},{"NoteNumber":75,"Velocity":64,"Duration":426497,"SoundDuration":426497,"Delta":401553451},{"NoteNumber":60,"Velocity":38,"Duration":426497,"SoundDuration":426497,"Delta":401553451},{"NoteNumber":66,"Velocity":47,"Duration":138248,"SoundDuration":138248,"Delta":401703451},{"NoteNumber":69,"Velocity":53,"Duration":425494,"SoundDuration":425494,"Delta":401841700},{"NoteNumber":77,"Velocity":50,"Duration":147058,"SoundDuration":147058,"Delta":401979948},{"NoteNumber":62,"Velocity":30,"Duration":147058,"SoundDuration":147058,"Delta":401979948},{"NoteNumber":75,"Velocity":60,"Duration":140187,"SoundDuration":140187,"Delta":402127007},{"NoteNumber":60,"Velocity":36,"Duration":140187,"SoundDuration":140187,"Delta":402127007},{"NoteNumber":70,"Velocity":50,"Duration":158730,"SoundDuration":158730,"Delta":402267194},{"NoteNumber":74,"Velocity":50,"Duration":158730,"SoundDuration":158730,"Delta":402267194},{"NoteNumber":58,"Velocity":30,"Duration":158730,"SoundDuration":158730,"Delta":402267194},{"NoteNumber":77,"Velocity":57,"Duration":153846,"SoundDuration":153846,"Delta":402425924},{"NoteNumber":65,"Velocity":35,"Duration":615385,"SoundDuration":615385,"Delta":402425924},{"NoteNumber":62,"Velocity":35,"Duration":153846,"SoundDuration":153846,"Delta":402425924},{"NoteNumber":75,"Velocity":55,"Duration":153846,"SoundDuration":153846,"Delta":402579771},{"NoteNumber":60,"Velocity":30,"Duration":153846,"SoundDuration":153846,"Delta":402579771},{"NoteNumber":72,"Velocity":50,"Duration":307692,"SoundDuration":307692,"Delta":402733617},{"NoteNumber":57,"Velocity":36,"Duration":307692,"SoundDuration":307692,"Delta":402733617},{"NoteNumber":75,"Velocity":58,"Duration":139535,"SoundDuration":139535,"Delta":403041309},{"NoteNumber":63,"Velocity":49,"Duration":139535,"SoundDuration":139535,"Delta":403041309},{"NoteNumber":58,"Velocity":28,"Duration":279069,"SoundDuration":279069,"Delta":403041309},{"NoteNumber":60,"Velocity":33,"Duration":139535,"SoundDuration":139535,"Delta":403041309},{"NoteNumber":77,"Velocity":60,"Duration":139534,"SoundDuration":139534,"Delta":403180844},{"NoteNumber":65,"Velocity":51,"Duration":139534,"SoundDuration":139534,"Delta":403180844},{"NoteNumber":62,"Velocity":33,"Duration":139534,"SoundDuration":139534,"Delta":403180844},{"NoteNumber":79,"Velocity":63,"Duration":425983,"SoundDuration":425983,"Delta":403320379},{"NoteNumber":67,"Velocity":45,"Duration":150753,"SoundDuration":150753,"Delta":403320379},{"NoteNumber":58,"Velocity":31,"Duration":1436071,"SoundDuration":1436071,"Delta":403320379},{"NoteNumber":63,"Velocity":37,"Duration":425983,"SoundDuration":425983,"Delta":403320379},{"NoteNumber":69,"Velocity":45,"Duration":137614,"SoundDuration":137614,"Delta":403471133},{"NoteNumber":70,"Velocity":54,"Duration":425229,"SoundDuration":425229,"Delta":403608748},{"NoteNumber":80,"Velocity":60,"Duration":137614,"SoundDuration":137614,"Delta":403746363},{"NoteNumber":65,"Velocity":32,"Duration":137614,"SoundDuration":137614,"Delta":403746363},{"NoteNumber":77,"Velocity":64,"Duration":426497,"SoundDuration":426497,"Delta":403883977},{"NoteNumber":62,"Velocity":38,"Duration":426497,"SoundDuration":426497,"Delta":403883977},{"NoteNumber":69,"Velocity":47,"Duration":138248,"SoundDuration":138248,"Delta":404033977},{"NoteNumber":70,"Velocity":53,"Duration":584224,"SoundDuration":584224,"Delta":404172226},{"NoteNumber":79,"Velocity":50,"Duration":147058,"SoundDuration":147058,"Delta":404310475},{"NoteNumber":63,"Velocity":30,"Duration":147058,"SoundDuration":147058,"Delta":404310475},{"NoteNumber":77,"Velocity":60,"Duration":140187,"SoundDuration":140187,"Delta":404457534},{"NoteNumber":62,"Velocity":36,"Duration":140187,"SoundDuration":140187,"Delta":404457534},{"NoteNumber":75,"Velocity":50,"Duration":158730,"SoundDuration":158730,"Delta":404597721},{"NoteNumber":60,"Velocity":30,"Duration":158730,"SoundDuration":158730,"Delta":404597721},{"NoteNumber":70,"Velocity":35,"Duration":615385,"SoundDuration":615385,"Delta":404756451},{"NoteNumber":79,"Velocity":57,"Duration":153846,"SoundDuration":153846,"Delta":404756451},{"NoteNumber":58,"Velocity":31,"Duration":615385,"SoundDuration":615385,"Delta":404756451},{"NoteNumber":63,"Velocity":35,"Duration":153846,"SoundDuration":153846,"Delta":404756451},{"NoteNumber":77,"Velocity":55,"Duration":153846,"SoundDuration":153846,"Delta":404910297},{"NoteNumber":62,"Velocity":30,"Duration":153846,"SoundDuration":153846,"Delta":404910297},{"NoteNumber":74,"Velocity":50,"Duration":307692,"SoundDuration":307692,"Delta":405064143},{"NoteNumber":77,"Velocity":58,"Duration":139535,"SoundDuration":139535,"Delta":405371836},{"NoteNumber":58,"Velocity":28,"Duration":279069,"SoundDuration":279069,"Delta":405371836},{"NoteNumber":62,"Velocity":33,"Duration":139535,"SoundDuration":139535,"Delta":405371836},{"NoteNumber":78,"Velocity":60,"Duration":139534,"SoundDuration":139534,"Delta":405511371},{"NoteNumber":63,"Velocity":33,"Duration":139534,"SoundDuration":139534,"Delta":405511371},{"NoteNumber":80,"Velocity":63,"Duration":425983,"SoundDuration":425983,"Delta":405650906},{"NoteNumber":58,"Velocity":31,"Duration":563597,"SoundDuration":563597,"Delta":405650906},{"NoteNumber":65,"Velocity":37,"Duration":425983,"SoundDuration":425983,"Delta":405650906},{"NoteNumber":69,"Velocity":45,"Duration":137614,"SoundDuration":137614,"Delta":405801660},{"NoteNumber":70,"Velocity":54,"Duration":563478,"SoundDuration":563478,"Delta":405939274},{"NoteNumber":82,"Velocity":60,"Duration":137614,"SoundDuration":137614,"Delta":406076889},{"NoteNumber":66,"Velocity":32,"Duration":137614,"SoundDuration":137614,"Delta":406076889},{"NoteNumber":78,"Velocity":64,"Duration":288248,"SoundDuration":288248,"Delta":406214504},{"NoteNumber":63,"Velocity":38,"Duration":288248,"SoundDuration":288248,"Delta":406214504},{"NoteNumber":66,"Velocity":49,"Duration":139535,"SoundDuration":139535,"Delta":406502753},{"NoteNumber":78,"Velocity":58,"Duration":139535,"SoundDuration":139535,"Delta":406502753},{"NoteNumber":61,"Velocity":28,"Duration":279069,"SoundDuration":279069,"Delta":406502753},{"NoteNumber":63,"Velocity":33,"Duration":139535,"SoundDuration":139535,"Delta":406502753},{"NoteNumber":68,"Velocity":51,"Duration":139534,"SoundDuration":139534,"Delta":406642288},{"NoteNumber":80,"Velocity":60,"Duration":139534,"SoundDuration":139534,"Delta":406642288},{"NoteNumber":65,"Velocity":33,"Duration":139534,"SoundDuration":139534,"Delta":406642288},{"NoteNumber":82,"Velocity":63,"Duration":425983,"SoundDuration":425983,"Delta":406781823},{"NoteNumber":70,"Velocity":38,"Duration":150753,"SoundDuration":150753,"Delta":406781823},{"NoteNumber":61,"Velocity":31,"Duration":1133536,"SoundDuration":1133536,"Delta":406781823},{"NoteNumber":66,"Velocity":37,"Duration":425983,"SoundDuration":425983,"Delta":406781823},{"NoteNumber":72,"Velocity":45,"Duration":137614,"SoundDuration":137614,"Delta":406932576},{"NoteNumber":73,"Velocity":54,"Duration":425229,"SoundDuration":425229,"Delta":407070191},{"NoteNumber":83,"Velocity":60,"Duration":137614,"SoundDuration":137614,"Delta":407207806},{"NoteNumber":68,"Velocity":32,"Duration":137614,"SoundDuration":137614,"Delta":407207806},{"NoteNumber":80,"Velocity":64,"Duration":288248,"SoundDuration":288248,"Delta":407345421},{"NoteNumber":65,"Velocity":38,"Duration":149999,"SoundDuration":149999,"Delta":407345421},{"NoteNumber":77,"Velocity":45,"Duration":138248,"SoundDuration":138248,"Delta":407495421},{"NoteNumber":71,"Velocity":38,"Duration":138248,"SoundDuration":138248,"Delta":407495421},{"NoteNumber":78,"Velocity":47,"Duration":140845,"SoundDuration":140845,"Delta":407633669},{"NoteNumber":82,"Velocity":56,"Duration":140845,"SoundDuration":140845,"Delta":407633669},{"NoteNumber":70,"Velocity":40,"Duration":140845,"SoundDuration":140845,"Delta":407633669},{"NoteNumber":83,"Velocity":60,"Duration":140845,"SoundDuration":140845,"Delta":407774514},{"NoteNumber":80,"Velocity":51,"Duration":140845,"SoundDuration":140845,"Delta":407774514},{"NoteNumber":68,"Velocity":40,"Duration":140845,"SoundDuration":140845,"Delta":407774514},{"NoteNumber":82,"Velocity":65,"Duration":267856,"SoundDuration":267856,"Delta":407915359},{"NoteNumber":85,"Velocity":65,"Duration":399435,"SoundDuration":399435,"Delta":407915359},{"NoteNumber":61,"Velocity":31,"Duration":1100015,"SoundDuration":1100015,"Delta":407915359},{"NoteNumber":66,"Velocity":40,"Duration":267856,"SoundDuration":267856,"Delta":407915359},{"NoteNumber":78,"Velocity":54,"Duration":547798,"SoundDuration":547798,"Delta":408183216},{"NoteNumber":70,"Velocity":35,"Duration":547798,"SoundDuration":547798,"Delta":408183216},{"NoteNumber":87,"Velocity":64,"Duration":131578,"SoundDuration":131578,"Delta":408314795},{"NoteNumber":85,"Velocity":60,"Duration":131579,"SoundDuration":131579,"Delta":408446374},{"NoteNumber":83,"Velocity":43,"Duration":295241,"SoundDuration":295241,"Delta":408577953},{"NoteNumber":77,"Velocity":53,"Duration":569000,"SoundDuration":569000,"Delta":408731015},{"NoteNumber":68,"Velocity":41,"Duration":569000,"SoundDuration":569000,"Delta":408731015},{"NoteNumber":85,"Velocity":63,"Duration":142179,"SoundDuration":142179,"Delta":408873195},{"NoteNumber":83,"Velocity":60,"Duration":131578,"SoundDuration":131578,"Delta":409015375},{"NoteNumber":61,"Velocity":45,"Duration":1119459,"SoundDuration":1119459,"Delta":409015375},{"NoteNumber":82,"Velocity":46,"Duration":295241,"SoundDuration":295241,"Delta":409146954},{"NoteNumber":78,"Velocity":53,"Duration":421974,"SoundDuration":421974,"Delta":409300015},{"NoteNumber":66,"Velocity":39,"Duration":284359,"SoundDuration":284359,"Delta":409300015},{"NoteNumber":83,"Velocity":62,"Duration":142179,"SoundDuration":142179,"Delta":409442195},{"NoteNumber":82,"Velocity":58,"Duration":137614,"SoundDuration":137614,"Delta":409584375},{"NoteNumber":73,"Velocity":46,"Duration":275229,"SoundDuration":275229,"Delta":409584375},{"NoteNumber":77,"Velocity":41,"Duration":137614,"SoundDuration":137614,"Delta":409721990},{"NoteNumber":80,"Velocity":48,"Duration":137614,"SoundDuration":137614,"Delta":409721990},{"NoteNumber":78,"Velocity":48,"Duration":137614,"SoundDuration":137614,"Delta":409859604},{"NoteNumber":82,"Velocity":56,"Duration":137614,"SoundDuration":137614,"Delta":409859604},{"NoteNumber":71,"Velocity":43,"Duration":275229,"SoundDuration":275229,"Delta":409859604},{"NoteNumber":83,"Velocity":60,"Duration":137614,"SoundDuration":137614,"Delta":409997219},{"NoteNumber":80,"Velocity":50,"Duration":137614,"SoundDuration":137614,"Delta":409997219},{"NoteNumber":87,"Velocity":64,"Duration":135135,"SoundDuration":135135,"Delta":410134834},{"NoteNumber":80,"Velocity":51,"Duration":135135,"SoundDuration":135135,"Delta":410134834},{"NoteNumber":61,"Velocity":47,"Duration":1095848,"SoundDuration":1095848,"Delta":410134834},{"NoteNumber":71,"Velocity":55,"Duration":135135,"SoundDuration":135135,"Delta":410134834},{"NoteNumber":85,"Velocity":58,"Duration":135135,"SoundDuration":135135,"Delta":410269969},{"NoteNumber":77,"Velocity":46,"Duration":135135,"SoundDuration":135135,"Delta":410269969},{"NoteNumber":70,"Velocity":49,"Duration":135135,"SoundDuration":135135,"Delta":410269969},{"NoteNumber":87,"Velocity":65,"Duration":135135,"SoundDuration":135135,"Delta":410405104},{"NoteNumber":78,"Velocity":52,"Duration":413127,"SoundDuration":413127,"Delta":410405104},{"NoteNumber":71,"Velocity":54,"Duration":135135,"SoundDuration":135135,"Delta":410405104},{"NoteNumber":85,"Velocity":58,"Duration":142857,"SoundDuration":142857,"Delta":410540240},{"NoteNumber":70,"Velocity":50,"Duration":142857,"SoundDuration":142857,"Delta":410540240},{"NoteNumber":85,"Velocity":66,"Duration":135135,"SoundDuration":135135,"Delta":410683097},{"NoteNumber":70,"Velocity":55,"Duration":135135,"SoundDuration":135135,"Delta":410683097},{"NoteNumber":83,"Velocity":58,"Duration":135135,"SoundDuration":135135,"Delta":410818232},{"NoteNumber":76,"Velocity":46,"Duration":135135,"SoundDuration":135135,"Delta":410818232},{"NoteNumber":68,"Velocity":47,"Duration":135135,"SoundDuration":135135,"Delta":410818232},{"NoteNumber":85,"Velocity":67,"Duration":135135,"SoundDuration":135135,"Delta":410953367},{"NoteNumber":77,"Velocity":53,"Duration":412450,"SoundDuration":412450,"Delta":410953367},{"NoteNumber":70,"Velocity":56,"Duration":135135,"SoundDuration":135135,"Delta":410953367},{"NoteNumber":83,"Velocity":60,"Duration":142179,"SoundDuration":142179,"Delta":411088503},{"NoteNumber":68,"Velocity":49,"Duration":142179,"SoundDuration":142179,"Delta":411088503},{"NoteNumber":83,"Velocity":67,"Duration":135135,"SoundDuration":135135,"Delta":411230683},{"NoteNumber":61,"Velocity":49,"Duration":1098662,"SoundDuration":1098662,"Delta":411230683},{"NoteNumber":68,"Velocity":56,"Duration":135135,"SoundDuration":135135,"Delta":411230683},{"NoteNumber":82,"Velocity":61,"Duration":135135,"SoundDuration":135135,"Delta":411365818},{"NoteNumber":73,"Velocity":48,"Duration":135135,"SoundDuration":135135,"Delta":411365818},{"NoteNumber":67,"Velocity":49,"Duration":135135,"SoundDuration":135135,"Delta":411365818},{"NoteNumber":83,"Velocity":68,"Duration":135135,"SoundDuration":135135,"Delta":411500953},{"NoteNumber":78,"Velocity":54,"Duration":411780,"SoundDuration":411780,"Delta":411500953},{"NoteNumber":75,"Velocity":57,"Duration":135135,"SoundDuration":135135,"Delta":411500953},{"NoteNumber":82,"Velocity":61,"Duration":141509,"SoundDuration":141509,"Delta":411636088},{"NoteNumber":73,"Velocity":50,"Duration":141509,"SoundDuration":141509,"Delta":411636088},{"NoteNumber":82,"Velocity":69,"Duration":135135,"SoundDuration":135135,"Delta":411777598},{"NoteNumber":73,"Velocity":57,"Duration":270270,"SoundDuration":270270,"Delta":411777598},{"NoteNumber":80,"Velocity":62,"Duration":135135,"SoundDuration":135135,"Delta":411912733},{"NoteNumber":77,"Velocity":49,"Duration":135135,"SoundDuration":135135,"Delta":411912733},{"NoteNumber":82,"Velocity":69,"Duration":135135,"SoundDuration":135135,"Delta":412047868},{"NoteNumber":78,"Velocity":55,"Duration":135135,"SoundDuration":135135,"Delta":412047868},{"NoteNumber":71,"Velocity":51,"Duration":281476,"SoundDuration":281476,"Delta":412047868},{"NoteNumber":80,"Velocity":51,"Duration":146341,"SoundDuration":146341,"Delta":412183004},{"NoteNumber":83,"Velocity":63,"Duration":146341,"SoundDuration":146341,"Delta":412183004},{"NoteNumber":77,"Velocity":56,"Duration":134529,"SoundDuration":134529,"Delta":412329345},{"NoteNumber":87,"Velocity":70,"Duration":134529,"SoundDuration":134529,"Delta":412329345},{"NoteNumber":61,"Velocity":51,"Duration":546404,"SoundDuration":546404,"Delta":412329345},{"NoteNumber":69,"Velocity":58,"Duration":134529,"SoundDuration":134529,"Delta":412329345},{"NoteNumber":78,"Velocity":48,"Duration":131004,"SoundDuration":131004,"Delta":412463874},{"NoteNumber":85,"Velocity":61,"Duration":131004,"SoundDuration":131004,"Delta":412463874},{"NoteNumber":70,"Velocity":54,"Duration":131004,"SoundDuration":131004,"Delta":412463874},{"NoteNumber":78,"Velocity":48,"Duration":280870,"SoundDuration":280870,"Delta":412594879},{"NoteNumber":73,"Velocity":61,"Duration":134529,"SoundDuration":134529,"Delta":412594879},{"NoteNumber":71,"Velocity":54,"Duration":134529,"SoundDuration":134529,"Delta":412594879},{"NoteNumber":85,"Velocity":63,"Duration":143902,"SoundDuration":143902,"Delta":412729408},{"NoteNumber":70,"Velocity":54,"Duration":146341,"SoundDuration":146341,"Delta":412729408},{"NoteNumber":85,"Velocity":71,"Duration":134529,"SoundDuration":134529,"Delta":412875749},{"NoteNumber":76,"Velocity":57,"Duration":134529,"SoundDuration":134529,"Delta":412875749},{"NoteNumber":61,"Velocity":52,"Duration":545693,"SoundDuration":545693,"Delta":412875749},{"NoteNumber":67,"Velocity":59,"Duration":134529,"SoundDuration":134529,"Delta":412875749},{"NoteNumber":83,"Velocity":62,"Duration":131004,"SoundDuration":131004,"Delta":413010279},{"NoteNumber":77,"Velocity":49,"Duration":131004,"SoundDuration":131004,"Delta":413010279},{"NoteNumber":68,"Velocity":52,"Duration":131004,"SoundDuration":131004,"Delta":413010279},{"NoteNumber":71,"Velocity":62,"Duration":134529,"SoundDuration":134529,"Delta":413141283},{"NoteNumber":77,"Velocity":49,"Duration":280160,"SoundDuration":280160,"Delta":413141283},{"NoteNumber":70,"Velocity":52,"Duration":134529,"SoundDuration":134529,"Delta":413141283},{"NoteNumber":83,"Velocity":62,"Duration":145630,"SoundDuration":145630,"Delta":413275812},{"NoteNumber":68,"Velocity":53,"Duration":145630,"SoundDuration":145630,"Delta":413275812},{"NoteNumber":83,"Velocity":72,"Duration":135135,"SoundDuration":135135,"Delta":413421443},{"NoteNumber":77,"Velocity":58,"Duration":135135,"SoundDuration":135135,"Delta":413421443},{"NoteNumber":61,"Velocity":53,"Duration":544209,"SoundDuration":544209,"Delta":413421443},{"NoteNumber":65,"Velocity":60,"Duration":135135,"SoundDuration":135135,"Delta":413421443},{"NoteNumber":82,"Velocity":65,"Duration":131004,"SoundDuration":131004,"Delta":413556578},{"NoteNumber":78,"Velocity":52,"Duration":131004,"SoundDuration":131004,"Delta":413556578},{"NoteNumber":66,"Velocity":57,"Duration":131004,"SoundDuration":131004,"Delta":413556578},{"NoteNumber":78,"Velocity":52,"Duration":278070,"SoundDuration":278070,"Delta":413687583},{"NoteNumber":70,"Velocity":65,"Duration":134529,"SoundDuration":134529,"Delta":413687583},{"NoteNumber":68,"Velocity":56,"Duration":134529,"SoundDuration":134529,"Delta":413687583},{"NoteNumber":82,"Velocity":67,"Duration":141148,"SoundDuration":141148,"Delta":413822112},{"NoteNumber":66,"Velocity":56,"Duration":143540,"SoundDuration":143540,"Delta":413822112},{"NoteNumber":82,"Velocity":75,"Duration":135746,"SoundDuration":135746,"Delta":413965653},{"NoteNumber":61,"Velocity":54,"Duration":271493,"SoundDuration":271493,"Delta":413965653},{"NoteNumber":66,"Velocity":62,"Duration":135746,"SoundDuration":135746,"Delta":413965653},{"NoteNumber":80,"Velocity":69,"Duration":135746,"SoundDuration":135746,"Delta":414101399},{"NoteNumber":65,"Velocity":57,"Duration":135746,"SoundDuration":135746,"Delta":414101399},{"NoteNumber":82,"Velocity":70,"Duration":135746,"SoundDuration":135746,"Delta":414237146},{"NoteNumber":73,"Velocity":53,"Duration":276591,"SoundDuration":276591,"Delta":414237146},{"NoteNumber":59,"Velocity":55,"Duration":276591,"SoundDuration":276591,"Delta":414237146},{"NoteNumber":66,"Velocity":57,"Duration":135746,"SoundDuration":135746,"Delta":414237146},{"NoteNumber":83,"Velocity":70,"Duration":140845,"SoundDuration":140845,"Delta":414372892},{"NoteNumber":68,"Velocity":57,"Duration":140845,"SoundDuration":140845,"Delta":414372892},{"NoteNumber":73,"Velocity":65,"Duration":138889,"SoundDuration":138889,"Delta":414513737},{"NoteNumber":87,"Velocity":81,"Duration":138889,"SoundDuration":138889,"Delta":414513737},{"NoteNumber":58,"Velocity":46,"Duration":277778,"SoundDuration":277778,"Delta":414513737},{"NoteNumber":70,"Velocity":59,"Duration":277778,"SoundDuration":277778,"Delta":414513737},{"NoteNumber":78,"Velocity":60,"Duration":138889,"SoundDuration":138889,"Delta":414652626},{"NoteNumber":85,"Velocity":75,"Duration":277778,"SoundDuration":277778,"Delta":414652626},{"NoteNumber":83,"Velocity":76,"Duration":290404,"SoundDuration":290404,"Delta":414791515},{"NoteNumber":77,"Velocity":60,"Duration":290404,"SoundDuration":290404,"Delta":414791515},{"NoteNumber":56,"Velocity":44,"Duration":290404,"SoundDuration":290404,"Delta":414791515},{"NoteNumber":68,"Velocity":55,"Duration":290404,"SoundDuration":290404,"Delta":414791515},{"NoteNumber":86,"Velocity":81,"Duration":291050,"SoundDuration":291050,"Delta":414930404},{"NoteNumber":82,"Velocity":61,"Duration":279069,"SoundDuration":279069,"Delta":415081919},{"NoteNumber":78,"Velocity":61,"Duration":279069,"SoundDuration":279069,"Delta":415081919},{"NoteNumber":63,"Velocity":61,"Duration":279069,"SoundDuration":279069,"Delta":415081919},{"NoteNumber":51,"Velocity":48,"Duration":279069,"SoundDuration":279069,"Delta":415081919},{"NoteNumber":87,"Velocity":80,"Duration":139534,"SoundDuration":139534,"Delta":415221454},{"NoteNumber":88,"Velocity":83,"Duration":139535,"SoundDuration":139535,"Delta":415360989},{"NoteNumber":82,"Velocity":61,"Duration":291819,"SoundDuration":291819,"Delta":415360989},{"NoteNumber":77,"Velocity":61,"Duration":291819,"SoundDuration":291819,"Delta":415360989},{"NoteNumber":62,"Velocity":56,"Duration":291819,"SoundDuration":291819,"Delta":415360989},{"NoteNumber":50,"Velocity":45,"Duration":291819,"SoundDuration":291819,"Delta":415360989},{"NoteNumber":89,"Velocity":87,"Duration":152284,"SoundDuration":152284,"Delta":415500524},{"NoteNumber":78,"Velocity":71,"Duration":285714,"SoundDuration":285714,"Delta":415652809},{"NoteNumber":92,"Velocity":89,"Duration":142857,"SoundDuration":142857,"Delta":415652809},{"NoteNumber":82,"Velocity":71,"Duration":285714,"SoundDuration":285714,"Delta":415652809},{"NoteNumber":49,"Velocity":49,"Duration":285714,"SoundDuration":285714,"Delta":415652809},{"NoteNumber":61,"Velocity":62,"Duration":285714,"SoundDuration":285714,"Delta":415652809},{"NoteNumber":90,"Velocity":85,"Duration":142857,"SoundDuration":142857,"Delta":415795666},{"NoteNumber":78,"Velocity":74,"Duration":305019,"SoundDuration":305019,"Delta":415938523},{"NoteNumber":89,"Velocity":91,"Duration":142857,"SoundDuration":142857,"Delta":415938523},{"NoteNumber":82,"Velocity":74,"Duration":305019,"SoundDuration":305019,"Delta":415938523},{"NoteNumber":37,"Velocity":48,"Duration":615900,"SoundDuration":615900,"Delta":415938523},{"NoteNumber":49,"Velocity":61,"Duration":460460,"SoundDuration":460460,"Delta":415938523},{"NoteNumber":87,"Velocity":82,"Duration":162162,"SoundDuration":162162,"Delta":416081380},{"NoteNumber":85,"Velocity":98,"Duration":155440,"SoundDuration":155440,"Delta":416243543},{"NoteNumber":80,"Velocity":77,"Duration":155440,"SoundDuration":155440,"Delta":416243543},{"NoteNumber":77,"Velocity":77,"Duration":155440,"SoundDuration":155440,"Delta":416243543},{"NoteNumber":47,"Velocity":71,"Duration":155440,"SoundDuration":155440,"Delta":416398983},{"NoteNumber":77,"Velocity":81,"Duration":155440,"SoundDuration":155440,"Delta":416554424},{"NoteNumber":85,"Velocity":81,"Duration":155440,"SoundDuration":155440,"Delta":416554424},{"NoteNumber":80,"Velocity":81,"Duration":155440,"SoundDuration":155440,"Delta":416554424},{"NoteNumber":89,"Velocity":103,"Duration":155440,"SoundDuration":155440,"Delta":416554424},{"NoteNumber":46,"Velocity":73,"Duration":155440,"SoundDuration":155440,"Delta":416554424},{"NoteNumber":37,"Velocity":58,"Duration":374418,"SoundDuration":374418,"Delta":416554424},{"NoteNumber":44,"Velocity":78,"Duration":218977,"SoundDuration":218977,"Delta":416709864},{"NoteNumber":78,"Velocity":97,"Duration":563379,"SoundDuration":563379,"Delta":416928842},{"NoteNumber":85,"Velocity":97,"Duration":563379,"SoundDuration":563379,"Delta":416928842},{"NoteNumber":82,"Velocity":97,"Duration":563379,"SoundDuration":563379,"Delta":416928842},{"NoteNumber":90,"Velocity":115,"Duration":563379,"SoundDuration":563379,"Delta":416928842},{"NoteNumber":42,"Velocity":78,"Duration":140845,"SoundDuration":140845,"Delta":416928842},{"NoteNumber":30,"Velocity":64,"Duration":140845,"SoundDuration":140845,"Delta":416928842},{"NoteNumber":49,"Velocity":51,"Duration":139671,"SoundDuration":139671,"Delta":417069687},{"NoteNumber":54,"Velocity":51,"Duration":139671,"SoundDuration":139671,"Delta":417069687},{"NoteNumber":58,"Velocity":61,"Duration":139671,"SoundDuration":139671,"Delta":417069687},{"NoteNumber":58,"Velocity":61,"Duration":139671,"SoundDuration":139671,"Delta":417210532},{"NoteNumber":54,"Velocity":51,"Duration":139671,"SoundDuration":139671,"Delta":417210532},{"NoteNumber":49,"Velocity":51,"Duration":139671,"SoundDuration":139671,"Delta":417210532},{"NoteNumber":49,"Velocity":51,"Duration":140845,"SoundDuration":140845,"Delta":417351377},{"NoteNumber":58,"Velocity":61,"Duration":138497,"SoundDuration":138497,"Delta":417351377},{"NoteNumber":54,"Velocity":51,"Duration":140845,"SoundDuration":140845,"Delta":417351377},{"NoteNumber":58,"Velocity":63,"Duration":571788,"SoundDuration":571788,"Delta":417492222},{"NoteNumber":66,"Velocity":75,"Duration":571788,"SoundDuration":571788,"Delta":417492222},{"NoteNumber":61,"Velocity":63,"Duration":571788,"SoundDuration":571788,"Delta":417492222},{"NoteNumber":54,"Velocity":53,"Duration":139671,"SoundDuration":139671,"Delta":417633067},{"NoteNumber":46,"Velocity":45,"Duration":139671,"SoundDuration":139671,"Delta":417633067},{"NoteNumber":49,"Velocity":45,"Duration":139671,"SoundDuration":139671,"Delta":417633067},{"NoteNumber":49,"Velocity":45,"Duration":139671,"SoundDuration":139671,"Delta":417773912},{"NoteNumber":46,"Velocity":45,"Duration":139671,"SoundDuration":139671,"Delta":417773912},{"NoteNumber":54,"Velocity":54,"Duration":139671,"SoundDuration":139671,"Delta":417773912},{"NoteNumber":49,"Velocity":45,"Duration":149253,"SoundDuration":149253,"Delta":417914757},{"NoteNumber":46,"Velocity":45,"Duration":149253,"SoundDuration":149253,"Delta":417914757},{"NoteNumber":54,"Velocity":54,"Duration":149253,"SoundDuration":149253,"Delta":417914757},{"NoteNumber":66,"Velocity":50,"Duration":66371,"SoundDuration":66371,"Delta":418064011},{"NoteNumber":70,"Velocity":59,"Duration":66371,"SoundDuration":66371,"Delta":418064011},{"NoteNumber":61,"Velocity":50,"Duration":66371,"SoundDuration":66371,"Delta":418064011},{"NoteNumber":49,"Velocity":37,"Duration":66371,"SoundDuration":66371,"Delta":418196754},{"NoteNumber":54,"Velocity":37,"Duration":66371,"SoundDuration":66371,"Delta":418196754},{"NoteNumber":58,"Velocity":44,"Duration":66371,"SoundDuration":66371,"Delta":418196754},{"NoteNumber":66,"Velocity":61,"Duration":66371,"SoundDuration":66371,"Delta":418329497},{"NoteNumber":61,"Velocity":51,"Duration":66371,"SoundDuration":66371,"Delta":418329497},{"NoteNumber":58,"Velocity":51,"Duration":66371,"SoundDuration":66371,"Delta":418329497},{"NoteNumber":49,"Velocity":37,"Duration":66371,"SoundDuration":66371,"Delta":418462241},{"NoteNumber":54,"Velocity":44,"Duration":66371,"SoundDuration":66371,"Delta":418462241},{"NoteNumber":46,"Velocity":37,"Duration":66371,"SoundDuration":66371,"Delta":418462241},{"NoteNumber":61,"Velocity":51,"Duration":66371,"SoundDuration":66371,"Delta":418594984},{"NoteNumber":66,"Velocity":51,"Duration":66371,"SoundDuration":66371,"Delta":418594984},{"NoteNumber":70,"Velocity":61,"Duration":66371,"SoundDuration":66371,"Delta":418594984},{"NoteNumber":49,"Velocity":37,"Duration":66371,"SoundDuration":66371,"Delta":418727727},{"NoteNumber":54,"Velocity":37,"Duration":66371,"SoundDuration":66371,"Delta":418727727},{"NoteNumber":58,"Velocity":44,"Duration":66371,"SoundDuration":66371,"Delta":418727727},{"NoteNumber":65,"Velocity":51,"Duration":66371,"SoundDuration":66371,"Delta":418860470},{"NoteNumber":59,"Velocity":51,"Duration":66371,"SoundDuration":66371,"Delta":418860470},{"NoteNumber":62,"Velocity":51,"Duration":66371,"SoundDuration":66371,"Delta":418860470},{"NoteNumber":68,"Velocity":61,"Duration":66371,"SoundDuration":66371,"Delta":418860470},{"NoteNumber":50,"Velocity":37,"Duration":92024,"SoundDuration":92024,"Delta":418993214},{"NoteNumber":56,"Velocity":44,"Duration":92024,"SoundDuration":92024,"Delta":418993214},{"NoteNumber":47,"Velocity":37,"Duration":92024,"SoundDuration":92024,"Delta":418993214},{"NoteNumber":53,"Velocity":37,"Duration":92024,"SoundDuration":92024,"Delta":418993214},{"NoteNumber":83,"Velocity":89,"Duration":542985,"SoundDuration":542985,"Delta":419177263},{"NoteNumber":92,"Velocity":105,"Duration":542985,"SoundDuration":542985,"Delta":419177263},{"NoteNumber":86,"Velocity":89,"Duration":542985,"SoundDuration":542985,"Delta":419177263},{"NoteNumber":89,"Velocity":89,"Duration":542985,"SoundDuration":542985,"Delta":419177263},{"NoteNumber":80,"Velocity":89,"Duration":542985,"SoundDuration":542985,"Delta":419177263},{"NoteNumber":42,"Velocity":71,"Duration":135746,"SoundDuration":135746,"Delta":419177263},{"NoteNumber":30,"Velocity":59,"Duration":135746,"SoundDuration":135746,"Delta":419177263},{"NoteNumber":56,"Velocity":51,"Duration":134615,"SoundDuration":134615,"Delta":419313009},{"NoteNumber":53,"Velocity":51,"Duration":134615,"SoundDuration":134615,"Delta":419313009},{"NoteNumber":59,"Velocity":61,"Duration":134615,"SoundDuration":134615,"Delta":419313009},{"NoteNumber":50,"Velocity":51,"Duration":134615,"SoundDuration":134615,"Delta":419313009},{"NoteNumber":56,"Velocity":51,"Duration":134615,"SoundDuration":134615,"Delta":419448756},{"NoteNumber":59,"Velocity":61,"Duration":134615,"SoundDuration":134615,"Delta":419448756},{"NoteNumber":50,"Velocity":51,"Duration":134615,"SoundDuration":134615,"Delta":419448756},{"NoteNumber":53,"Velocity":51,"Duration":134615,"SoundDuration":134615,"Delta":419448756},{"NoteNumber":56,"Velocity":51,"Duration":135746,"SoundDuration":135746,"Delta":419584502},{"NoteNumber":59,"Velocity":61,"Duration":135746,"SoundDuration":135746,"Delta":419584502},{"NoteNumber":53,"Velocity":51,"Duration":135746,"SoundDuration":135746,"Delta":419584502},{"NoteNumber":50,"Velocity":51,"Duration":135746,"SoundDuration":135746,"Delta":419584502},{"NoteNumber":62,"Velocity":63,"Duration":556493,"SoundDuration":556493,"Delta":419720249},{"NoteNumber":68,"Velocity":75,"Duration":556493,"SoundDuration":556493,"Delta":419720249},{"NoteNumber":65,"Velocity":63,"Duration":556493,"SoundDuration":556493,"Delta":419720249},{"NoteNumber":59,"Velocity":63,"Duration":556493,"SoundDuration":556493,"Delta":419720249},{"NoteNumber":50,"Velocity":45,"Duration":134615,"SoundDuration":134615,"Delta":419855995},{"NoteNumber":53,"Velocity":45,"Duration":134615,"SoundDuration":134615,"Delta":419855995},{"NoteNumber":56,"Velocity":53,"Duration":134615,"SoundDuration":134615,"Delta":419855995},{"NoteNumber":47,"Velocity":45,"Duration":134615,"SoundDuration":134615,"Delta":419855995},{"NoteNumber":50,"Velocity":45,"Duration":134615,"SoundDuration":134615,"Delta":419991742},{"NoteNumber":53,"Velocity":45,"Duration":134615,"SoundDuration":134615,"Delta":419991742},{"NoteNumber":56,"Velocity":54,"Duration":134615,"SoundDuration":134615,"Delta":419991742},{"NoteNumber":47,"Velocity":45,"Duration":134615,"SoundDuration":134615,"Delta":419991742},{"NoteNumber":50,"Velocity":45,"Duration":149253,"SoundDuration":149253,"Delta":420127488},{"NoteNumber":56,"Velocity":54,"Duration":149253,"SoundDuration":149253,"Delta":420127488},{"NoteNumber":53,"Velocity":45,"Duration":149253,"SoundDuration":149253,"Delta":420127488},{"NoteNumber":47,"Velocity":45,"Duration":149253,"SoundDuration":149253,"Delta":420127488},{"NoteNumber":65,"Velocity":50,"Duration":66371,"SoundDuration":66371,"Delta":420276742},{"NoteNumber":68,"Velocity":50,"Duration":66371,"SoundDuration":66371,"Delta":420276742},{"NoteNumber":62,"Velocity":50,"Duration":66371,"SoundDuration":66371,"Delta":420276742},{"NoteNumber":71,"Velocity":59,"Duration":66371,"SoundDuration":66371,"Delta":420276742},{"NoteNumber":56,"Velocity":37,"Duration":66371,"SoundDuration":66371,"Delta":420409485},{"NoteNumber":53,"Velocity":37,"Duration":66371,"SoundDuration":66371,"Delta":420409485},{"NoteNumber":59,"Velocity":44,"Duration":66371,"SoundDuration":66371,"Delta":420409485},{"NoteNumber":50,"Velocity":37,"Duration":66371,"SoundDuration":66371,"Delta":420409485},{"NoteNumber":62,"Velocity":51,"Duration":66371,"SoundDuration":66371,"Delta":420542228},{"NoteNumber":68,"Velocity":61,"Duration":66371,"SoundDuration":66371,"Delta":420542228},{"NoteNumber":65,"Velocity":51,"Duration":66371,"SoundDuration":66371,"Delta":420542228},{"NoteNumber":59,"Velocity":51,"Duration":66371,"SoundDuration":66371,"Delta":420542228},{"NoteNumber":50,"Velocity":37,"Duration":66371,"SoundDuration":66371,"Delta":420674972},{"NoteNumber":47,"Velocity":37,"Duration":66371,"SoundDuration":66371,"Delta":420674972},{"NoteNumber":53,"Velocity":37,"Duration":66371,"SoundDuration":66371,"Delta":420674972},{"NoteNumber":56,"Velocity":44,"Duration":66371,"SoundDuration":66371,"Delta":420674972},{"NoteNumber":68,"Velocity":51,"Duration":66371,"SoundDuration":66371,"Delta":420807715},{"NoteNumber":62,"Velocity":51,"Duration":66371,"SoundDuration":66371,"Delta":420807715},{"NoteNumber":65,"Velocity":51,"Duration":66371,"SoundDuration":66371,"Delta":420807715},{"NoteNumber":71,"Velocity":61,"Duration":66371,"SoundDuration":66371,"Delta":420807715},{"NoteNumber":56,"Velocity":37,"Duration":66371,"SoundDuration":66371,"Delta":420940458},{"NoteNumber":50,"Velocity":37,"Duration":66371,"SoundDuration":66371,"Delta":420940458},{"NoteNumber":59,"Velocity":44,"Duration":66371,"SoundDuration":66371,"Delta":420940458},{"NoteNumber":53,"Velocity":37,"Duration":66371,"SoundDuration":66371,"Delta":420940458},{"NoteNumber":67,"Velocity":51,"Duration":66371,"SoundDuration":66371,"Delta":421073201},{"NoteNumber":61,"Velocity":51,"Duration":66371,"SoundDuration":66371,"Delta":421073201},{"NoteNumber":64,"Velocity":51,"Duration":66371,"SoundDuration":66371,"Delta":421073201},{"NoteNumber":70,"Velocity":61,"Duration":66371,"SoundDuration":66371,"Delta":421073201},{"NoteNumber":55,"Velocity":37,"Duration":93750,"SoundDuration":93750,"Delta":421205945},{"NoteNumber":58,"Velocity":44,"Duration":93750,"SoundDuration":93750,"Delta":421205945},{"NoteNumber":49,"Velocity":37,"Duration":93750,"SoundDuration":93750,"Delta":421205945},{"NoteNumber":52,"Velocity":37,"Duration":93750,"SoundDuration":93750,"Delta":421205945},{"NoteNumber":82,"Velocity":89,"Duration":547945,"SoundDuration":547945,"Delta":421393445},{"NoteNumber":85,"Velocity":89,"Duration":547945,"SoundDuration":547945,"Delta":421393445},{"NoteNumber":88,"Velocity":89,"Duration":547945,"SoundDuration":547945,"Delta":421393445},{"NoteNumber":94,"Velocity":105,"Duration":547945,"SoundDuration":547945,"Delta":421393445},{"NoteNumber":42,"Velocity":71,"Duration":136986,"SoundDuration":136986,"Delta":421393445},{"NoteNumber":30,"Velocity":59,"Duration":136986,"SoundDuration":136986,"Delta":421393445},{"NoteNumber":58,"Velocity":51,"Duration":135844,"SoundDuration":135844,"Delta":421530431},{"NoteNumber":52,"Velocity":51,"Duration":135844,"SoundDuration":135844,"Delta":421530431},{"NoteNumber":61,"Velocity":61,"Duration":135844,"SoundDuration":135844,"Delta":421530431},{"NoteNumber":61,"Velocity":61,"Duration":135844,"SoundDuration":135844,"Delta":421667417},{"NoteNumber":52,"Velocity":51,"Duration":135844,"SoundDuration":135844,"Delta":421667417},{"NoteNumber":58,"Velocity":51,"Duration":135844,"SoundDuration":135844,"Delta":421667417},{"NoteNumber":61,"Velocity":61,"Duration":136986,"SoundDuration":136986,"Delta":421804403},{"NoteNumber":52,"Velocity":51,"Duration":136986,"SoundDuration":136986,"Delta":421804403},{"NoteNumber":58,"Velocity":51,"Duration":136986,"SoundDuration":136986,"Delta":421804403},{"NoteNumber":61,"Velocity":63,"Duration":560212,"SoundDuration":560212,"Delta":421941390},{"NoteNumber":67,"Velocity":63,"Duration":560212,"SoundDuration":560212,"Delta":421941390},{"NoteNumber":64,"Velocity":63,"Duration":560212,"SoundDuration":560212,"Delta":421941390},{"NoteNumber":70,"Velocity":75,"Duration":560212,"SoundDuration":560212,"Delta":421941390},{"NoteNumber":55,"Velocity":45,"Duration":135844,"SoundDuration":135844,"Delta":422078376},{"NoteNumber":52,"Velocity":45,"Duration":135844,"SoundDuration":135844,"Delta":422078376},{"NoteNumber":49,"Velocity":45,"Duration":135844,"SoundDuration":135844,"Delta":422078376},{"NoteNumber":58,"Velocity":53,"Duration":135844,"SoundDuration":135844,"Delta":422078376},{"NoteNumber":55,"Velocity":45,"Duration":135844,"SoundDuration":135844,"Delta":422215362},{"NoteNumber":58,"Velocity":54,"Duration":135844,"SoundDuration":135844,"Delta":422215362},{"NoteNumber":52,"Velocity":45,"Duration":135844,"SoundDuration":135844,"Delta":422215362},{"NoteNumber":49,"Velocity":45,"Duration":135844,"SoundDuration":135844,"Delta":422215362},{"NoteNumber":55,"Velocity":45,"Duration":149253,"SoundDuration":149253,"Delta":422352348},{"NoteNumber":52,"Velocity":45,"Duration":149253,"SoundDuration":149253,"Delta":422352348},{"NoteNumber":58,"Velocity":54,"Duration":149253,"SoundDuration":149253,"Delta":422352348},{"NoteNumber":49,"Velocity":45,"Duration":149253,"SoundDuration":149253,"Delta":422352348},{"NoteNumber":70,"Velocity":50,"Duration":66371,"SoundDuration":66371,"Delta":422501602},{"NoteNumber":67,"Velocity":50,"Duration":66371,"SoundDuration":66371,"Delta":422501602},{"NoteNumber":73,"Velocity":59,"Duration":66371,"SoundDuration":66371,"Delta":422501602},{"NoteNumber":64,"Velocity":50,"Duration":66371,"SoundDuration":66371,"Delta":422501602},{"NoteNumber":58,"Velocity":37,"Duration":66371,"SoundDuration":66371,"Delta":422634345},{"NoteNumber":55,"Velocity":37,"Duration":66371,"SoundDuration":66371,"Delta":422634345},{"NoteNumber":61,"Velocity":44,"Duration":66371,"SoundDuration":66371,"Delta":422634345},{"NoteNumber":52,"Velocity":37,"Duration":66371,"SoundDuration":66371,"Delta":422634345},{"NoteNumber":67,"Velocity":51,"Duration":66371,"SoundDuration":66371,"Delta":422767089},{"NoteNumber":64,"Velocity":51,"Duration":66371,"SoundDuration":66371,"Delta":422767089},{"NoteNumber":70,"Velocity":61,"Duration":66371,"SoundDuration":66371,"Delta":422767089},{"NoteNumber":61,"Velocity":51,"Duration":66371,"SoundDuration":66371,"Delta":422767089},{"NoteNumber":55,"Velocity":37,"Duration":66371,"SoundDuration":66371,"Delta":422899832},{"NoteNumber":52,"Velocity":37,"Duration":66371,"SoundDuration":66371,"Delta":422899832},{"NoteNumber":49,"Velocity":37,"Duration":66371,"SoundDuration":66371,"Delta":422899832},{"NoteNumber":58,"Velocity":44,"Duration":66371,"SoundDuration":66371,"Delta":422899832},{"NoteNumber":67,"Velocity":51,"Duration":66371,"SoundDuration":66371,"Delta":423032575},{"NoteNumber":70,"Velocity":51,"Duration":66371,"SoundDuration":66371,"Delta":423032575},{"NoteNumber":64,"Velocity":51,"Duration":66371,"SoundDuration":66371,"Delta":423032575},{"NoteNumber":73,"Velocity":61,"Duration":66371,"SoundDuration":66371,"Delta":423032575},{"NoteNumber":58,"Velocity":37,"Duration":66371,"SoundDuration":66371,"Delta":423165318},{"NoteNumber":52,"Velocity":37,"Duration":66371,"SoundDuration":66371,"Delta":423165318},{"NoteNumber":61,"Velocity":44,"Duration":66371,"SoundDuration":66371,"Delta":423165318},{"NoteNumber":55,"Velocity":37,"Duration":66371,"SoundDuration":66371,"Delta":423165318},{"NoteNumber":62,"Velocity":51,"Duration":66371,"SoundDuration":66371,"Delta":423298062},{"NoteNumber":71,"Velocity":61,"Duration":66371,"SoundDuration":66371,"Delta":423298062},{"NoteNumber":66,"Velocity":51,"Duration":66371,"SoundDuration":66371,"Delta":423298062},{"NoteNumber":54,"Velocity":37,"Duration":87719,"SoundDuration":87719,"Delta":423430805},{"NoteNumber":59,"Velocity":44,"Duration":87719,"SoundDuration":87719,"Delta":423430805},{"NoteNumber":50,"Velocity":37,"Duration":87719,"SoundDuration":87719,"Delta":423430805},{"NoteNumber":83,"Velocity":89,"Duration":542985,"SoundDuration":542985,"Delta":423606243},{"NoteNumber":86,"Velocity":89,"Duration":542985,"SoundDuration":542985,"Delta":423606243},{"NoteNumber":95,"Velocity":105,"Duration":542985,"SoundDuration":542985,"Delta":423606243},{"NoteNumber":90,"Velocity":89,"Duration":542985,"SoundDuration":542985,"Delta":423606243},{"NoteNumber":42,"Velocity":71,"Duration":135746,"SoundDuration":135746,"Delta":423606243},{"NoteNumber":30,"Velocity":59,"Duration":135746,"SoundDuration":135746,"Delta":423606243},{"NoteNumber":59,"Velocity":51,"Duration":134615,"SoundDuration":134615,"Delta":423741990},{"NoteNumber":62,"Velocity":61,"Duration":134615,"SoundDuration":134615,"Delta":423741990},{"NoteNumber":54,"Velocity":51,"Duration":134615,"SoundDuration":134615,"Delta":423741990},{"NoteNumber":62,"Velocity":61,"Duration":134615,"SoundDuration":134615,"Delta":423877736},{"NoteNumber":54,"Velocity":51,"Duration":134615,"SoundDuration":134615,"Delta":423877736},{"NoteNumber":59,"Velocity":51,"Duration":134615,"SoundDuration":134615,"Delta":423877736},{"NoteNumber":62,"Velocity":61,"Duration":135746,"SoundDuration":135746,"Delta":424013483},{"NoteNumber":54,"Velocity":51,"Duration":135746,"SoundDuration":135746,"Delta":424013483},{"NoteNumber":59,"Velocity":51,"Duration":135746,"SoundDuration":135746,"Delta":424013483},{"NoteNumber":71,"Velocity":75,"Duration":556493,"SoundDuration":556493,"Delta":424149229},{"NoteNumber":66,"Velocity":63,"Duration":556493,"SoundDuration":556493,"Delta":424149229},{"NoteNumber":62,"Velocity":63,"Duration":556493,"SoundDuration":556493,"Delta":424149229},{"NoteNumber":54,"Velocity":45,"Duration":134615,"SoundDuration":134615,"Delta":424284976},{"NoteNumber":59,"Velocity":53,"Duration":134615,"SoundDuration":134615,"Delta":424284976},{"NoteNumber":50,"Velocity":45,"Duration":134615,"SoundDuration":134615,"Delta":424284976},{"NoteNumber":59,"Velocity":54,"Duration":134615,"SoundDuration":134615,"Delta":424420722},{"NoteNumber":54,"Velocity":45,"Duration":134615,"SoundDuration":134615,"Delta":424420722},{"NoteNumber":50,"Velocity":45,"Duration":134615,"SoundDuration":134615,"Delta":424420722},{"NoteNumber":54,"Velocity":45,"Duration":149253,"SoundDuration":149253,"Delta":424556469},{"NoteNumber":59,"Velocity":54,"Duration":149253,"SoundDuration":149253,"Delta":424556469},{"NoteNumber":50,"Velocity":45,"Duration":149253,"SoundDuration":149253,"Delta":424556469},{"NoteNumber":68,"Velocity":50,"Duration":66371,"SoundDuration":66371,"Delta":424705723},{"NoteNumber":65,"Velocity":50,"Duration":66371,"SoundDuration":66371,"Delta":424705723},{"NoteNumber":71,"Velocity":50,"Duration":66371,"SoundDuration":66371,"Delta":424705723},{"NoteNumber":74,"Velocity":59,"Duration":66371,"SoundDuration":66371,"Delta":424705723},{"NoteNumber":56,"Velocity":37,"Duration":66371,"SoundDuration":66371,"Delta":424838466},{"NoteNumber":53,"Velocity":37,"Duration":66371,"SoundDuration":66371,"Delta":424838466},{"NoteNumber":62,"Velocity":44,"Duration":66371,"SoundDuration":66371,"Delta":424838466},{"NoteNumber":59,"Velocity":37,"Duration":66371,"SoundDuration":66371,"Delta":424838466},{"NoteNumber":68,"Velocity":51,"Duration":66371,"SoundDuration":66371,"Delta":424971209},{"NoteNumber":71,"Velocity":61,"Duration":66371,"SoundDuration":66371,"Delta":424971209},{"NoteNumber":65,"Velocity":51,"Duration":66371,"SoundDuration":66371,"Delta":424971209},{"NoteNumber":62,"Velocity":51,"Duration":66371,"SoundDuration":66371,"Delta":424971209},{"NoteNumber":56,"Velocity":37,"Duration":66371,"SoundDuration":66371,"Delta":425103952},{"NoteNumber":59,"Velocity":44,"Duration":66371,"SoundDuration":66371,"Delta":425103952},{"NoteNumber":50,"Velocity":37,"Duration":66371,"SoundDuration":66371,"Delta":425103952},{"NoteNumber":53,"Velocity":37,"Duration":66371,"SoundDuration":66371,"Delta":425103952},{"NoteNumber":71,"Velocity":56,"Duration":66371,"SoundDuration":66371,"Delta":425236696},{"NoteNumber":74,"Velocity":67,"Duration":66371,"SoundDuration":66371,"Delta":425236696},{"NoteNumber":68,"Velocity":56,"Duration":66371,"SoundDuration":66371,"Delta":425236696},{"NoteNumber":65,"Velocity":56,"Duration":66371,"SoundDuration":66371,"Delta":425236696},{"NoteNumber":53,"Velocity":41,"Duration":66371,"SoundDuration":66371,"Delta":425369439},{"NoteNumber":59,"Velocity":41,"Duration":66371,"SoundDuration":66371,"Delta":425369439},{"NoteNumber":56,"Velocity":41,"Duration":66371,"SoundDuration":66371,"Delta":425369439},{"NoteNumber":62,"Velocity":49,"Duration":66371,"SoundDuration":66371,"Delta":425369439},{"NoteNumber":70,"Velocity":58,"Duration":66371,"SoundDuration":66371,"Delta":425502182},{"NoteNumber":73,"Velocity":69,"Duration":66371,"SoundDuration":66371,"Delta":425502182},{"NoteNumber":67,"Velocity":58,"Duration":66371,"SoundDuration":66371,"Delta":425502182},{"NoteNumber":64,"Velocity":58,"Duration":66371,"SoundDuration":66371,"Delta":425502182},{"NoteNumber":55,"Velocity":42,"Duration":71770,"SoundDuration":71770,"Delta":425634925},{"NoteNumber":58,"Velocity":42,"Duration":71770,"SoundDuration":71770,"Delta":425634925},{"NoteNumber":52,"Velocity":42,"Duration":71770,"SoundDuration":71770,"Delta":425634925},{"NoteNumber":61,"Velocity":51,"Duration":71770,"SoundDuration":71770,"Delta":425634925},{"NoteNumber":70,"Velocity":59,"Duration":66371,"SoundDuration":66371,"Delta":425778466},{"NoteNumber":76,"Velocity":69,"Duration":66371,"SoundDuration":66371,"Delta":425778466},{"NoteNumber":67,"Velocity":59,"Duration":66371,"SoundDuration":66371,"Delta":425778466},{"NoteNumber":73,"Velocity":59,"Duration":66371,"SoundDuration":66371,"Delta":425778466},{"NoteNumber":58,"Velocity":44,"Duration":66371,"SoundDuration":66371,"Delta":425911209},{"NoteNumber":55,"Velocity":44,"Duration":66371,"SoundDuration":66371,"Delta":425911209},{"NoteNumber":61,"Velocity":44,"Duration":66371,"SoundDuration":66371,"Delta":425911209},{"NoteNumber":64,"Velocity":52,"Duration":66371,"SoundDuration":66371,"Delta":425911209},{"NoteNumber":67,"Velocity":62,"Duration":66371,"SoundDuration":66371,"Delta":426043953},{"NoteNumber":70,"Velocity":62,"Duration":66371,"SoundDuration":66371,"Delta":426043953},{"NoteNumber":64,"Velocity":62,"Duration":66371,"SoundDuration":66371,"Delta":426043953},{"NoteNumber":73,"Velocity":74,"Duration":66371,"SoundDuration":66371,"Delta":426043953},{"NoteNumber":55,"Velocity":45,"Duration":66371,"SoundDuration":66371,"Delta":426176696},{"NoteNumber":52,"Velocity":45,"Duration":66371,"SoundDuration":66371,"Delta":426176696},{"NoteNumber":61,"Velocity":54,"Duration":66371,"SoundDuration":66371,"Delta":426176696},{"NoteNumber":58,"Velocity":45,"Duration":66371,"SoundDuration":66371,"Delta":426176696},{"NoteNumber":67,"Velocity":65,"Duration":66371,"SoundDuration":66371,"Delta":426309439},{"NoteNumber":73,"Velocity":65,"Duration":66371,"SoundDuration":66371,"Delta":426309439},{"NoteNumber":70,"Velocity":65,"Duration":66371,"SoundDuration":66371,"Delta":426309439},{"NoteNumber":76,"Velocity":77,"Duration":66371,"SoundDuration":66371,"Delta":426309439},{"NoteNumber":58,"Velocity":48,"Duration":66371,"SoundDuration":66371,"Delta":426442182},{"NoteNumber":64,"Velocity":57,"Duration":66371,"SoundDuration":66371,"Delta":426442182},{"NoteNumber":61,"Velocity":48,"Duration":66371,"SoundDuration":66371,"Delta":426442182},{"NoteNumber":54,"Velocity":48,"Duration":66371,"SoundDuration":66371,"Delta":426442182},{"NoteNumber":66,"Velocity":67,"Duration":66371,"SoundDuration":66371,"Delta":426574926},{"NoteNumber":74,"Velocity":81,"Duration":66371,"SoundDuration":66371,"Delta":426574926},{"NoteNumber":71,"Velocity":67,"Duration":66371,"SoundDuration":66371,"Delta":426574926},{"NoteNumber":54,"Velocity":49,"Duration":70422,"SoundDuration":70422,"Delta":426707669},{"NoteNumber":62,"Velocity":60,"Duration":70422,"SoundDuration":70422,"Delta":426707669},{"NoteNumber":59,"Velocity":49,"Duration":70422,"SoundDuration":70422,"Delta":426707669},{"NoteNumber":78,"Velocity":82,"Duration":65789,"SoundDuration":65789,"Delta":426848514},{"NoteNumber":74,"Velocity":70,"Duration":65789,"SoundDuration":65789,"Delta":426848514},{"NoteNumber":66,"Velocity":70,"Duration":65789,"SoundDuration":65789,"Delta":426848514},{"NoteNumber":71,"Velocity":70,"Duration":65789,"SoundDuration":65789,"Delta":426848514},{"NoteNumber":54,"Velocity":52,"Duration":65789,"SoundDuration":65789,"Delta":426980093},{"NoteNumber":62,"Velocity":61,"Duration":65789,"SoundDuration":65789,"Delta":426980093},{"NoteNumber":59,"Velocity":52,"Duration":65789,"SoundDuration":65789,"Delta":426980093},{"NoteNumber":71,"Velocity":74,"Duration":65789,"SoundDuration":65789,"Delta":427111672},{"NoteNumber":74,"Velocity":89,"Duration":65789,"SoundDuration":65789,"Delta":427111672},{"NoteNumber":66,"Velocity":74,"Duration":65789,"SoundDuration":65789,"Delta":427111672},{"NoteNumber":62,"Velocity":65,"Duration":65789,"SoundDuration":65789,"Delta":427243251},{"NoteNumber":54,"Velocity":54,"Duration":65789,"SoundDuration":65789,"Delta":427243251},{"NoteNumber":59,"Velocity":54,"Duration":65789,"SoundDuration":65789,"Delta":427243251},{"NoteNumber":74,"Velocity":77,"Duration":65789,"SoundDuration":65789,"Delta":427374830},{"NoteNumber":71,"Velocity":77,"Duration":65789,"SoundDuration":65789,"Delta":427374830},{"NoteNumber":78,"Velocity":92,"Duration":65789,"SoundDuration":65789,"Delta":427374830},{"NoteNumber":66,"Velocity":77,"Duration":65789,"SoundDuration":65789,"Delta":427374830},{"NoteNumber":62,"Velocity":68,"Duration":65789,"SoundDuration":65789,"Delta":427506409},{"NoteNumber":54,"Velocity":57,"Duration":65789,"SoundDuration":65789,"Delta":427506409},{"NoteNumber":59,"Velocity":57,"Duration":65789,"SoundDuration":65789,"Delta":427506409},{"NoteNumber":71,"Velocity":80,"Duration":65789,"SoundDuration":65789,"Delta":427637988},{"NoteNumber":68,"Velocity":80,"Duration":65789,"SoundDuration":65789,"Delta":427637988},{"NoteNumber":77,"Velocity":97,"Duration":65789,"SoundDuration":65789,"Delta":427637988},{"NoteNumber":73,"Velocity":80,"Duration":65789,"SoundDuration":65789,"Delta":427637988},{"NoteNumber":59,"Velocity":58,"Duration":70422,"SoundDuration":70422,"Delta":427769567},{"NoteNumber":61,"Velocity":58,"Duration":70422,"SoundDuration":70422,"Delta":427769567},{"NoteNumber":56,"Velocity":58,"Duration":70422,"SoundDuration":70422,"Delta":427769567},{"NoteNumber":65,"Velocity":70,"Duration":70422,"SoundDuration":70422,"Delta":427769567},{"NoteNumber":80,"Velocity":92,"Duration":263157,"SoundDuration":263157,"Delta":427910412},{"NoteNumber":92,"Velocity":108,"Duration":263157,"SoundDuration":263157,"Delta":427910412},{"NoteNumber":68,"Velocity":72,"Duration":65789,"SoundDuration":65789,"Delta":428041991},{"NoteNumber":56,"Velocity":61,"Duration":65789,"SoundDuration":65789,"Delta":428041991},{"NoteNumber":78,"Velocity":81,"Duration":263158,"SoundDuration":263158,"Delta":428173570},{"NoteNumber":90,"Velocity":96,"Duration":263158,"SoundDuration":263158,"Delta":428173570},{"NoteNumber":66,"Velocity":72,"Duration":65789,"SoundDuration":65789,"Delta":428305149},{"NoteNumber":54,"Velocity":61,"Duration":65789,"SoundDuration":65789,"Delta":428305149},{"NoteNumber":87,"Velocity":106,"Duration":263157,"SoundDuration":263157,"Delta":428436728},{"NoteNumber":75,"Velocity":90,"Duration":263157,"SoundDuration":263157,"Delta":428436728},{"NoteNumber":51,"Velocity":61,"Duration":65789,"SoundDuration":65789,"Delta":428568307},{"NoteNumber":63,"Velocity":72,"Duration":65789,"SoundDuration":65789,"Delta":428568307},{"NoteNumber":73,"Velocity":83,"Duration":272424,"SoundDuration":272424,"Delta":428699886},{"NoteNumber":85,"Velocity":99,"Duration":272424,"SoundDuration":272424,"Delta":428699886},{"NoteNumber":61,"Velocity":72,"Duration":70422,"SoundDuration":70422,"Delta":428831465},{"NoteNumber":49,"Velocity":61,"Duration":70422,"SoundDuration":70422,"Delta":428831465},{"NoteNumber":71,"Velocity":93,"Duration":264317,"SoundDuration":264317,"Delta":428972310},{"NoteNumber":83,"Velocity":106,"Duration":264317,"SoundDuration":264317,"Delta":428972310},{"NoteNumber":47,"Velocity":55,"Duration":66079,"SoundDuration":66079,"Delta":429104468},{"NoteNumber":59,"Velocity":64,"Duration":66079,"SoundDuration":66079,"Delta":429104468},{"NoteNumber":70,"Velocity":75,"Duration":264317,"SoundDuration":264317,"Delta":429236627},{"NoteNumber":82,"Velocity":90,"Duration":264317,"SoundDuration":264317,"Delta":429236627},{"NoteNumber":58,"Velocity":64,"Duration":66079,"SoundDuration":66079,"Delta":429368785},{"NoteNumber":46,"Velocity":55,"Duration":66079,"SoundDuration":66079,"Delta":429368785},{"NoteNumber":68,"Velocity":80,"Duration":264317,"SoundDuration":264317,"Delta":429500944},{"NoteNumber":80,"Velocity":95,"Duration":264317,"SoundDuration":264317,"Delta":429500944},{"NoteNumber":44,"Velocity":55,"Duration":66079,"SoundDuration":66079,"Delta":429633102},{"NoteNumber":56,"Velocity":64,"Duration":66079,"SoundDuration":66079,"Delta":429633102},{"NoteNumber":66,"Velocity":74,"Duration":273003,"SoundDuration":273003,"Delta":429765261},{"NoteNumber":78,"Velocity":89,"Duration":273003,"SoundDuration":273003,"Delta":429765261},{"NoteNumber":54,"Velocity":64,"Duration":70422,"SoundDuration":70422,"Delta":429897419},{"NoteNumber":42,"Velocity":55,"Duration":70422,"SoundDuration":70422,"Delta":429897419},{"NoteNumber":75,"Velocity":97,"Duration":265486,"SoundDuration":265486,"Delta":430038264},{"NoteNumber":63,"Velocity":82,"Duration":265486,"SoundDuration":265486,"Delta":430038264},{"NoteNumber":51,"Velocity":64,"Duration":66371,"SoundDuration":66371,"Delta":430171008},{"NoteNumber":39,"Velocity":55,"Duration":66371,"SoundDuration":66371,"Delta":430171008},{"NoteNumber":61,"Velocity":72,"Duration":265486,"SoundDuration":265486,"Delta":430303751},{"NoteNumber":73,"Velocity":86,"Duration":265486,"SoundDuration":265486,"Delta":430303751},{"NoteNumber":37,"Velocity":55,"Duration":66371,"SoundDuration":66371,"Delta":430436494},{"NoteNumber":49,"Velocity":64,"Duration":66371,"SoundDuration":66371,"Delta":430436494},{"NoteNumber":59,"Velocity":75,"Duration":265486,"SoundDuration":265486,"Delta":430569237},{"NoteNumber":71,"Velocity":90,"Duration":265486,"SoundDuration":265486,"Delta":430569237},{"NoteNumber":35,"Velocity":51,"Duration":66371,"SoundDuration":66371,"Delta":430701981},{"NoteNumber":47,"Velocity":61,"Duration":66371,"SoundDuration":66371,"Delta":430701981},{"NoteNumber":58,"Velocity":70,"Duration":273588,"SoundDuration":273588,"Delta":430834724},{"NoteNumber":70,"Velocity":83,"Duration":273588,"SoundDuration":273588,"Delta":430834724},{"NoteNumber":46,"Velocity":61,"Duration":70422,"SoundDuration":70422,"Delta":430967467},{"NoteNumber":34,"Velocity":51,"Duration":70422,"SoundDuration":70422,"Delta":430967467},{"NoteNumber":68,"Velocity":88,"Duration":265486,"SoundDuration":265486,"Delta":431108312},{"NoteNumber":56,"Velocity":73,"Duration":265486,"SoundDuration":265486,"Delta":431108312},{"NoteNumber":44,"Velocity":57,"Duration":66371,"SoundDuration":66371,"Delta":431241055},{"NoteNumber":32,"Velocity":49,"Duration":66371,"SoundDuration":66371,"Delta":431241055},{"NoteNumber":66,"Velocity":76,"Duration":265486,"SoundDuration":265486,"Delta":431373799},{"NoteNumber":54,"Velocity":63,"Duration":265486,"SoundDuration":265486,"Delta":431373799},{"NoteNumber":30,"Velocity":48,"Duration":66371,"SoundDuration":66371,"Delta":431506542},{"NoteNumber":42,"Velocity":56,"Duration":66371,"SoundDuration":66371,"Delta":431506542},{"NoteNumber":63,"Velocity":81,"Duration":265486,"SoundDuration":265486,"Delta":431639285},{"NoteNumber":51,"Velocity":68,"Duration":265486,"SoundDuration":265486,"Delta":431639285},{"NoteNumber":39,"Velocity":55,"Duration":66371,"SoundDuration":66371,"Delta":431772028},{"NoteNumber":61,"Velocity":74,"Duration":273588,"SoundDuration":273588,"Delta":431904772},{"NoteNumber":49,"Velocity":62,"Duration":273588,"SoundDuration":273588,"Delta":431904772},{"NoteNumber":37,"Velocity":54,"Duration":70422,"SoundDuration":70422,"Delta":432037515},{"NoteNumber":65,"Velocity":77,"Duration":265486,"SoundDuration":265486,"Delta":432178360},{"NoteNumber":41,"Velocity":42,"Duration":132743,"SoundDuration":132743,"Delta":432311103},{"NoteNumber":61,"Velocity":67,"Duration":276283,"SoundDuration":276283,"Delta":432443846},{"NoteNumber":37,"Velocity":28,"Duration":143540,"SoundDuration":143540,"Delta":432576590},{"NoteNumber":68,"Velocity":73,"Duration":266666,"SoundDuration":266666,"Delta":432720130},{"NoteNumber":44,"Velocity":39,"Duration":133333,"SoundDuration":133333,"Delta":432853464},{"NoteNumber":61,"Velocity":67,"Duration":275513,"SoundDuration":275513,"Delta":432986797},{"NoteNumber":37,"Velocity":27,"Duration":142179,"SoundDuration":142179,"Delta":433120130},{"NoteNumber":73,"Velocity":71,"Duration":266666,"SoundDuration":266666,"Delta":433262310},{"NoteNumber":49,"Velocity":37,"Duration":133333,"SoundDuration":133333,"Delta":433395643},{"NoteNumber":61,"Velocity":59,"Duration":276190,"SoundDuration":276190,"Delta":433528977},{"NoteNumber":37,"Velocity":26,"Duration":142857,"SoundDuration":142857,"Delta":433662310},{"NoteNumber":77,"Velocity":68,"Duration":266666,"SoundDuration":266666,"Delta":433805167},{"NoteNumber":53,"Velocity":34,"Duration":133333,"SoundDuration":133333,"Delta":433938500},{"NoteNumber":61,"Velocity":56,"Duration":277564,"SoundDuration":277564,"Delta":434071834},{"NoteNumber":37,"Velocity":24,"Duration":144230,"SoundDuration":144230,"Delta":434205167},{"NoteNumber":80,"Velocity":62,"Duration":277778,"SoundDuration":277778,"Delta":434349398},{"NoteNumber":56,"Velocity":32,"Duration":138889,"SoundDuration":138889,"Delta":434488287},{"NoteNumber":61,"Velocity":49,"Duration":297619,"SoundDuration":297619,"Delta":434627176},{"NoteNumber":37,"Velocity":23,"Duration":158730,"SoundDuration":158730,"Delta":434766065},{"NoteNumber":85,"Velocity":54,"Duration":304568,"SoundDuration":304568,"Delta":434924795},{"NoteNumber":61,"Velocity":29,"Duration":149746,"SoundDuration":149746,"Delta":435077079},{"NoteNumber":61,"Velocity":45,"Duration":331924,"SoundDuration":331924,"Delta":435229363},{"NoteNumber":37,"Velocity":24,"Duration":179640,"SoundDuration":179640,"Delta":435381648},{"NoteNumber":85,"Velocity":52,"Duration":340909,"SoundDuration":340909,"Delta":435561288},{"NoteNumber":61,"Velocity":28,"Duration":167613,"SoundDuration":167613,"Delta":435731743},{"NoteNumber":61,"Velocity":41,"Duration":433401,"SoundDuration":433401,"Delta":435902197},{"NoteNumber":37,"Velocity":21,"Duration":245901,"SoundDuration":245901,"Delta":436089697},{"NoteNumber":85,"Velocity":48,"Duration":1111110,"SoundDuration":1111110,"Delta":436335599},{"NoteNumber":54,"Velocity":21,"Duration":555555,"SoundDuration":555555,"Delta":436891155},{"NoteNumber":61,"Velocity":21,"Duration":555555,"SoundDuration":555555,"Delta":436891155},{"NoteNumber":35,"Velocity":101,"Duration":120481,"SoundDuration":120481,"Delta":438002266},{"NoteNumber":62,"Velocity":97,"Duration":339353,"SoundDuration":339353,"Delta":438122748},{"NoteNumber":54,"Velocity":81,"Duration":339353,"SoundDuration":339353,"Delta":438122748},{"NoteNumber":59,"Velocity":81,"Duration":339353,"SoundDuration":339353,"Delta":438122748},{"NoteNumber":83,"Velocity":91,"Duration":113117,"SoundDuration":113117,"Delta":438464953},{"NoteNumber":78,"Velocity":91,"Duration":113117,"SoundDuration":113117,"Delta":438464953},{"NoteNumber":86,"Velocity":111,"Duration":113117,"SoundDuration":113117,"Delta":438464953},{"NoteNumber":74,"Velocity":91,"Duration":113117,"SoundDuration":113117,"Delta":438464953},{"NoteNumber":62,"Velocity":88,"Duration":113117,"SoundDuration":113117,"Delta":438464953},{"NoteNumber":59,"Velocity":73,"Duration":113117,"SoundDuration":113117,"Delta":438464953},{"NoteNumber":54,"Velocity":73,"Duration":113117,"SoundDuration":113117,"Delta":438464953},{"NoteNumber":78,"Velocity":82,"Duration":228137,"SoundDuration":228137,"Delta":438579022},{"NoteNumber":86,"Velocity":99,"Duration":228137,"SoundDuration":228137,"Delta":438579022},{"NoteNumber":74,"Velocity":82,"Duration":228137,"SoundDuration":228137,"Delta":438579022},{"NoteNumber":83,"Velocity":82,"Duration":228137,"SoundDuration":228137,"Delta":438579022},{"NoteNumber":54,"Velocity":81,"Duration":228137,"SoundDuration":228137,"Delta":438579022},{"NoteNumber":59,"Velocity":81,"Duration":228137,"SoundDuration":228137,"Delta":438579022},{"NoteNumber":62,"Velocity":97,"Duration":228137,"SoundDuration":228137,"Delta":438579022},{"NoteNumber":83,"Velocity":84,"Duration":42775,"SoundDuration":42775,"Delta":438807159},{"NoteNumber":88,"Velocity":105,"Duration":42775,"SoundDuration":42775,"Delta":438807159},{"NoteNumber":74,"Velocity":84,"Duration":42775,"SoundDuration":42775,"Delta":438807159},{"NoteNumber":78,"Velocity":84,"Duration":42775,"SoundDuration":42775,"Delta":438807159},{"NoteNumber":54,"Velocity":79,"Duration":42775,"SoundDuration":42775,"Delta":438807159},{"NoteNumber":62,"Velocity":91,"Duration":42775,"SoundDuration":42775,"Delta":438807159},{"NoteNumber":59,"Velocity":79,"Duration":42775,"SoundDuration":42775,"Delta":438807159},{"NoteNumber":78,"Velocity":86,"Duration":53066,"SoundDuration":53066,"Delta":438921227},{"NoteNumber":74,"Velocity":86,"Duration":53066,"SoundDuration":53066,"Delta":438921227},{"NoteNumber":83,"Velocity":86,"Duration":53066,"SoundDuration":53066,"Delta":438921227},{"NoteNumber":86,"Velocity":102,"Duration":53066,"SoundDuration":53066,"Delta":438921227},{"NoteNumber":54,"Velocity":81,"Duration":53066,"SoundDuration":53066,"Delta":438921227},{"NoteNumber":62,"Velocity":97,"Duration":53066,"SoundDuration":53066,"Delta":438921227},{"NoteNumber":59,"Velocity":81,"Duration":53066,"SoundDuration":53066,"Delta":438921227},{"NoteNumber":86,"Velocity":111,"Duration":131004,"SoundDuration":131004,"Delta":439062737},{"NoteNumber":78,"Velocity":91,"Duration":131004,"SoundDuration":131004,"Delta":439062737},{"NoteNumber":83,"Velocity":91,"Duration":131004,"SoundDuration":131004,"Delta":439062737},{"NoteNumber":74,"Velocity":91,"Duration":131004,"SoundDuration":131004,"Delta":439062737},{"NoteNumber":54,"Velocity":81,"Duration":131004,"SoundDuration":131004,"Delta":439062737},{"NoteNumber":62,"Velocity":97,"Duration":131004,"SoundDuration":131004,"Delta":439062737},{"NoteNumber":59,"Velocity":81,"Duration":131004,"SoundDuration":131004,"Delta":439062737},{"NoteNumber":83,"Velocity":101,"Duration":131004,"SoundDuration":131004,"Delta":439324745},{"NoteNumber":74,"Velocity":84,"Duration":131004,"SoundDuration":131004,"Delta":439324745},{"NoteNumber":78,"Velocity":84,"Duration":131004,"SoundDuration":131004,"Delta":439324745},{"NoteNumber":71,"Velocity":84,"Duration":131004,"SoundDuration":131004,"Delta":439324745},{"NoteNumber":50,"Velocity":81,"Duration":131004,"SoundDuration":131004,"Delta":439324745},{"NoteNumber":59,"Velocity":97,"Duration":131004,"SoundDuration":131004,"Delta":439324745},{"NoteNumber":54,"Velocity":81,"Duration":131004,"SoundDuration":131004,"Delta":439324745},{"NoteNumber":47,"Velocity":39,"Duration":132158,"SoundDuration":132158,"Delta":439979766},{"NoteNumber":62,"Velocity":45,"Duration":385502,"SoundDuration":385502,"Delta":440111925},{"NoteNumber":78,"Velocity":33,"Duration":125522,"SoundDuration":125522,"Delta":440371904},{"NoteNumber":83,"Velocity":33,"Duration":125522,"SoundDuration":125522,"Delta":440371904},{"NoteNumber":74,"Velocity":33,"Duration":125522,"SoundDuration":125522,"Delta":440371904},{"NoteNumber":86,"Velocity":39,"Duration":125522,"SoundDuration":125522,"Delta":440371904},{"NoteNumber":47,"Velocity":42,"Duration":131578,"SoundDuration":131578,"Delta":440497427},{"NoteNumber":62,"Velocity":49,"Duration":384211,"SoundDuration":384211,"Delta":440629006},{"NoteNumber":86,"Velocity":45,"Duration":126582,"SoundDuration":126582,"Delta":440886635},{"NoteNumber":78,"Velocity":37,"Duration":126582,"SoundDuration":126582,"Delta":440886635},{"NoteNumber":83,"Velocity":37,"Duration":126582,"SoundDuration":126582,"Delta":440886635},{"NoteNumber":74,"Velocity":37,"Duration":126582,"SoundDuration":126582,"Delta":440886635},{"NoteNumber":47,"Velocity":45,"Duration":131578,"SoundDuration":131578,"Delta":441013218},{"NoteNumber":62,"Velocity":53,"Duration":383105,"SoundDuration":383105,"Delta":441144797},{"NoteNumber":83,"Velocity":42,"Duration":126050,"SoundDuration":126050,"Delta":441401851},{"NoteNumber":86,"Velocity":50,"Duration":126050,"SoundDuration":126050,"Delta":441401851},{"NoteNumber":79,"Velocity":42,"Duration":126050,"SoundDuration":126050,"Delta":441401851},{"NoteNumber":74,"Velocity":42,"Duration":126050,"SoundDuration":126050,"Delta":441401851},{"NoteNumber":43,"Velocity":45,"Duration":132743,"SoundDuration":132743,"Delta":441527902},{"NoteNumber":59,"Velocity":58,"Duration":385868,"SoundDuration":385868,"Delta":441660645},{"NoteNumber":86,"Velocity":54,"Duration":126050,"SoundDuration":126050,"Delta":441920463},{"NoteNumber":83,"Velocity":46,"Duration":126050,"SoundDuration":126050,"Delta":441920463},{"NoteNumber":79,"Velocity":46,"Duration":126050,"SoundDuration":126050,"Delta":441920463},{"NoteNumber":74,"Velocity":46,"Duration":126050,"SoundDuration":126050,"Delta":441920463},{"NoteNumber":43,"Velocity":51,"Duration":132158,"SoundDuration":132158,"Delta":442046514},{"NoteNumber":59,"Velocity":57,"Duration":383105,"SoundDuration":383105,"Delta":442178672},{"NoteNumber":83,"Velocity":46,"Duration":126050,"SoundDuration":126050,"Delta":442435727},{"NoteNumber":74,"Velocity":46,"Duration":126050,"SoundDuration":126050,"Delta":442435727},{"NoteNumber":79,"Velocity":46,"Duration":126050,"SoundDuration":126050,"Delta":442435727},{"NoteNumber":86,"Velocity":55,"Duration":126050,"SoundDuration":126050,"Delta":442435727},{"NoteNumber":43,"Velocity":49,"Duration":132743,"SoundDuration":132743,"Delta":442561777},{"NoteNumber":59,"Velocity":62,"Duration":385868,"SoundDuration":385868,"Delta":442694521},{"NoteNumber":79,"Velocity":51,"Duration":126050,"SoundDuration":126050,"Delta":442954339},{"NoteNumber":74,"Velocity":51,"Duration":126050,"SoundDuration":126050,"Delta":442954339},{"NoteNumber":86,"Velocity":60,"Duration":126050,"SoundDuration":126050,"Delta":442954339},{"NoteNumber":83,"Velocity":51,"Duration":126050,"SoundDuration":126050,"Delta":442954339},{"NoteNumber":43,"Velocity":54,"Duration":132158,"SoundDuration":132158,"Delta":443080389},{"NoteNumber":59,"Velocity":61,"Duration":383105,"SoundDuration":383105,"Delta":443212548},{"NoteNumber":84,"Velocity":50,"Duration":126050,"SoundDuration":126050,"Delta":443469602},{"NoteNumber":75,"Velocity":50,"Duration":126050,"SoundDuration":126050,"Delta":443469602},{"NoteNumber":79,"Velocity":50,"Duration":126050,"SoundDuration":126050,"Delta":443469602},{"NoteNumber":87,"Velocity":60,"Duration":126050,"SoundDuration":126050,"Delta":443469602},{"NoteNumber":36,"Velocity":52,"Duration":132743,"SoundDuration":132743,"Delta":443595653},{"NoteNumber":51,"Velocity":67,"Duration":385868,"SoundDuration":385868,"Delta":443728396},{"NoteNumber":79,"Velocity":55,"Duration":126050,"SoundDuration":126050,"Delta":443988214},{"NoteNumber":75,"Velocity":55,"Duration":126050,"SoundDuration":126050,"Delta":443988214},{"NoteNumber":87,"Velocity":65,"Duration":126050,"SoundDuration":126050,"Delta":443988214},{"NoteNumber":84,"Velocity":55,"Duration":126050,"SoundDuration":126050,"Delta":443988214},{"NoteNumber":36,"Velocity":58,"Duration":132158,"SoundDuration":132158,"Delta":444114265},{"NoteNumber":51,"Velocity":65,"Duration":383105,"SoundDuration":383105,"Delta":444246423},{"NoteNumber":87,"Velocity":65,"Duration":126050,"SoundDuration":126050,"Delta":444503478},{"NoteNumber":84,"Velocity":55,"Duration":126050,"SoundDuration":126050,"Delta":444503478},{"NoteNumber":75,"Velocity":55,"Duration":126050,"SoundDuration":126050,"Delta":444503478},{"NoteNumber":79,"Velocity":55,"Duration":126050,"SoundDuration":126050,"Delta":444503478},{"NoteNumber":36,"Velocity":55,"Duration":132743,"SoundDuration":132743,"Delta":444629528},{"NoteNumber":51,"Velocity":71,"Duration":385868,"SoundDuration":385868,"Delta":444762272},{"NoteNumber":84,"Velocity":60,"Duration":126050,"SoundDuration":126050,"Delta":445022090},{"NoteNumber":79,"Velocity":60,"Duration":126050,"SoundDuration":126050,"Delta":445022090},{"NoteNumber":75,"Velocity":60,"Duration":126050,"SoundDuration":126050,"Delta":445022090},{"NoteNumber":87,"Velocity":71,"Duration":126050,"SoundDuration":126050,"Delta":445022090},{"NoteNumber":36,"Velocity":61,"Duration":132158,"SoundDuration":132158,"Delta":445148140},{"NoteNumber":51,"Velocity":69,"Duration":383105,"SoundDuration":383105,"Delta":445280299},{"NoteNumber":75,"Velocity":59,"Duration":126050,"SoundDuration":126050,"Delta":445537353},{"NoteNumber":87,"Velocity":70,"Duration":126050,"SoundDuration":126050,"Delta":445537353},{"NoteNumber":84,"Velocity":59,"Duration":126050,"SoundDuration":126050,"Delta":445537353},{"NoteNumber":81,"Velocity":59,"Duration":126050,"SoundDuration":126050,"Delta":445537353},{"NoteNumber":29,"Velocity":58,"Duration":132743,"SoundDuration":132743,"Delta":445663404},{"NoteNumber":45,"Velocity":74,"Duration":385868,"SoundDuration":385868,"Delta":445796147},{"NoteNumber":75,"Velocity":64,"Duration":126050,"SoundDuration":126050,"Delta":446055965},{"NoteNumber":84,"Velocity":65,"Duration":126050,"SoundDuration":126050,"Delta":446055965},{"NoteNumber":81,"Velocity":65,"Duration":126050,"SoundDuration":126050,"Delta":446055965},{"NoteNumber":87,"Velocity":76,"Duration":126050,"SoundDuration":126050,"Delta":446055965},{"NoteNumber":29,"Velocity":64,"Duration":132158,"SoundDuration":132158,"Delta":446182016},{"NoteNumber":45,"Velocity":72,"Duration":383105,"SoundDuration":383105,"Delta":446314174},{"NoteNumber":87,"Velocity":75,"Duration":126050,"SoundDuration":126050,"Delta":446571229},{"NoteNumber":75,"Velocity":63,"Duration":126050,"SoundDuration":126050,"Delta":446571229},{"NoteNumber":81,"Velocity":63,"Duration":126050,"SoundDuration":126050,"Delta":446571229},{"NoteNumber":84,"Velocity":63,"Duration":126050,"SoundDuration":126050,"Delta":446571229},{"NoteNumber":41,"Velocity":61,"Duration":132743,"SoundDuration":132743,"Delta":446697279},{"NoteNumber":36,"Velocity":79,"Duration":385868,"SoundDuration":385868,"Delta":446830023},{"NoteNumber":81,"Velocity":69,"Duration":126050,"SoundDuration":126050,"Delta":447089841},{"NoteNumber":87,"Velocity":69,"Duration":126050,"SoundDuration":126050,"Delta":447089841},{"NoteNumber":84,"Velocity":69,"Duration":126050,"SoundDuration":126050,"Delta":447089841},{"NoteNumber":93,"Velocity":81,"Duration":126050,"SoundDuration":126050,"Delta":447089841},{"NoteNumber":41,"Velocity":68,"Duration":132158,"SoundDuration":132158,"Delta":447215891},{"NoteNumber":33,"Velocity":76,"Duration":383105,"SoundDuration":383105,"Delta":447348050},{"NoteNumber":84,"Velocity":68,"Duration":126050,"SoundDuration":126050,"Delta":447605104},{"NoteNumber":96,"Velocity":80,"Duration":126050,"SoundDuration":126050,"Delta":447605104},{"NoteNumber":87,"Velocity":68,"Duration":126050,"SoundDuration":126050,"Delta":447605104},{"NoteNumber":93,"Velocity":68,"Duration":126050,"SoundDuration":126050,"Delta":447605104},{"NoteNumber":41,"Velocity":65,"Duration":138889,"SoundDuration":138889,"Delta":447731155},{"NoteNumber":30,"Velocity":83,"Duration":416241,"SoundDuration":416241,"Delta":447870044},{"NoteNumber":87,"Velocity":74,"Duration":138248,"SoundDuration":138248,"Delta":448148036},{"NoteNumber":96,"Velocity":74,"Duration":138248,"SoundDuration":138248,"Delta":448148036},{"NoteNumber":99,"Velocity":87,"Duration":138248,"SoundDuration":138248,"Delta":448148036},{"NoteNumber":93,"Velocity":74,"Duration":138248,"SoundDuration":138248,"Delta":448148036},{"NoteNumber":41,"Velocity":71,"Duration":154639,"SoundDuration":154639,"Delta":448286285},{"NoteNumber":87,"Velocity":75,"Duration":309278,"SoundDuration":309278,"Delta":448440924},{"NoteNumber":99,"Velocity":88,"Duration":309278,"SoundDuration":309278,"Delta":448440924},{"NoteNumber":93,"Velocity":75,"Duration":309278,"SoundDuration":309278,"Delta":448440924},{"NoteNumber":96,"Velocity":75,"Duration":309278,"SoundDuration":309278,"Delta":448440924},{"NoteNumber":29,"Velocity":78,"Duration":309278,"SoundDuration":309278,"Delta":448440924},{"NoteNumber":41,"Velocity":85,"Duration":309278,"SoundDuration":309278,"Delta":448440924},{"NoteNumber":84,"Velocity":57,"Duration":131004,"SoundDuration":131004,"Delta":448750203},{"NoteNumber":87,"Velocity":57,"Duration":131004,"SoundDuration":131004,"Delta":448750203},{"NoteNumber":78,"Velocity":48,"Duration":131004,"SoundDuration":131004,"Delta":448750203},{"NoteNumber":83,"Velocity":57,"Duration":138889,"SoundDuration":138889,"Delta":448881207},{"NoteNumber":86,"Velocity":57,"Duration":138889,"SoundDuration":138889,"Delta":448881207},{"NoteNumber":77,"Velocity":48,"Duration":138889,"SoundDuration":138889,"Delta":448881207},{"NoteNumber":84,"Velocity":63,"Duration":269058,"SoundDuration":269058,"Delta":449020096},{"NoteNumber":87,"Velocity":63,"Duration":269058,"SoundDuration":269058,"Delta":449020096},{"NoteNumber":78,"Velocity":54,"Duration":269058,"SoundDuration":269058,"Delta":449020096},{"NoteNumber":69,"Velocity":52,"Duration":131004,"SoundDuration":131004,"Delta":449289155},{"NoteNumber":72,"Velocity":52,"Duration":131004,"SoundDuration":131004,"Delta":449289155},{"NoteNumber":77,"Velocity":44,"Duration":131004,"SoundDuration":131004,"Delta":449289155},{"NoteNumber":73,"Velocity":52,"Duration":142179,"SoundDuration":142179,"Delta":449420159},{"NoteNumber":70,"Velocity":52,"Duration":142179,"SoundDuration":142179,"Delta":449420159},{"NoteNumber":76,"Velocity":44,"Duration":142179,"SoundDuration":142179,"Delta":449420159},{"NoteNumber":72,"Velocity":58,"Duration":270270,"SoundDuration":270270,"Delta":449562339},{"NoteNumber":69,"Velocity":58,"Duration":270270,"SoundDuration":270270,"Delta":449562339},{"NoteNumber":77,"Velocity":44,"Duration":270270,"SoundDuration":270270,"Delta":449562339},{"NoteNumber":72,"Velocity":47,"Duration":132743,"SoundDuration":132743,"Delta":449832609},{"NoteNumber":75,"Velocity":47,"Duration":132743,"SoundDuration":132743,"Delta":449832609},{"NoteNumber":66,"Velocity":43,"Duration":132743,"SoundDuration":132743,"Delta":449832609},{"NoteNumber":74,"Velocity":47,"Duration":142857,"SoundDuration":142857,"Delta":449965353},{"NoteNumber":71,"Velocity":47,"Duration":142857,"SoundDuration":142857,"Delta":449965353},{"NoteNumber":65,"Velocity":43,"Duration":142857,"SoundDuration":142857,"Delta":449965353},{"NoteNumber":75,"Velocity":56,"Duration":277778,"SoundDuration":277778,"Delta":450108210},{"NoteNumber":72,"Velocity":56,"Duration":277778,"SoundDuration":277778,"Delta":450108210},{"NoteNumber":66,"Velocity":51,"Duration":277778,"SoundDuration":277778,"Delta":450108210},{"NoteNumber":81,"Velocity":47,"Duration":136363,"SoundDuration":136363,"Delta":450385988},{"NoteNumber":65,"Velocity":43,"Duration":136363,"SoundDuration":136363,"Delta":450385988},{"NoteNumber":84,"Velocity":47,"Duration":136363,"SoundDuration":136363,"Delta":450522352},{"NoteNumber":64,"Velocity":43,"Duration":136363,"SoundDuration":136363,"Delta":450522352},{"NoteNumber":87,"Velocity":57,"Duration":133333,"SoundDuration":133333,"Delta":450658715},{"NoteNumber":53,"Velocity":40,"Duration":266666,"SoundDuration":266666,"Delta":450658715},{"NoteNumber":57,"Velocity":40,"Duration":266666,"SoundDuration":266666,"Delta":450658715},{"NoteNumber":60,"Velocity":40,"Duration":266666,"SoundDuration":266666,"Delta":450658715},{"NoteNumber":63,"Velocity":51,"Duration":266666,"SoundDuration":266666,"Delta":450658715},{"NoteNumber":89,"Velocity":48,"Duration":133333,"SoundDuration":133333,"Delta":450792049},{"NoteNumber":87,"Velocity":49,"Duration":133333,"SoundDuration":133333,"Delta":450925382},{"NoteNumber":86,"Velocity":50,"Duration":138889,"SoundDuration":138889,"Delta":451058715},{"NoteNumber":53,"Velocity":42,"Duration":138889,"SoundDuration":138889,"Delta":451058715},{"NoteNumber":87,"Velocity":65,"Duration":133928,"SoundDuration":133928,"Delta":451197604},{"NoteNumber":57,"Velocity":51,"Duration":267856,"SoundDuration":267856,"Delta":451197604},{"NoteNumber":89,"Velocity":57,"Duration":133928,"SoundDuration":133928,"Delta":451331533},{"NoteNumber":91,"Velocity":66,"Duration":133928,"SoundDuration":133928,"Delta":451465461},{"NoteNumber":87,"Velocity":58,"Duration":140187,"SoundDuration":140187,"Delta":451599390},{"NoteNumber":60,"Velocity":40,"Duration":140187,"SoundDuration":140187,"Delta":451599390},{"NoteNumber":84,"Velocity":69,"Duration":133928,"SoundDuration":133928,"Delta":451739577},{"NoteNumber":65,"Velocity":51,"Duration":267856,"SoundDuration":267856,"Delta":451739577},{"NoteNumber":86,"Velocity":56,"Duration":133928,"SoundDuration":133928,"Delta":451873505},{"NoteNumber":87,"Velocity":66,"Duration":133928,"SoundDuration":133928,"Delta":452007434},{"NoteNumber":84,"Velocity":54,"Duration":137614,"SoundDuration":137614,"Delta":452141362},{"NoteNumber":69,"Velocity":43,"Duration":137614,"SoundDuration":137614,"Delta":452141362},{"NoteNumber":81,"Velocity":66,"Duration":133928,"SoundDuration":133928,"Delta":452278977},{"NoteNumber":72,"Velocity":51,"Duration":267856,"SoundDuration":267856,"Delta":452278977},{"NoteNumber":82,"Velocity":53,"Duration":133928,"SoundDuration":133928,"Delta":452412905},{"NoteNumber":84,"Velocity":61,"Duration":133928,"SoundDuration":133928,"Delta":452546834},{"NoteNumber":75,"Velocity":45,"Duration":133928,"SoundDuration":133928,"Delta":452546834},{"NoteNumber":81,"Velocity":53,"Duration":140187,"SoundDuration":140187,"Delta":452680762},{"NoteNumber":72,"Velocity":45,"Duration":140187,"SoundDuration":140187,"Delta":452680762},{"NoteNumber":75,"Velocity":47,"Duration":134529,"SoundDuration":134529,"Delta":452820949},{"NoteNumber":67,"Velocity":40,"Duration":134529,"SoundDuration":134529,"Delta":452820949},{"NoteNumber":77,"Velocity":47,"Duration":134529,"SoundDuration":134529,"Delta":452955479},{"NoteNumber":69,"Velocity":40,"Duration":134529,"SoundDuration":134529,"Delta":452955479},{"NoteNumber":79,"Velocity":58,"Duration":134529,"SoundDuration":134529,"Delta":453090008},{"NoteNumber":70,"Velocity":44,"Duration":134529,"SoundDuration":134529,"Delta":453090008},{"NoteNumber":75,"Velocity":47,"Duration":138248,"SoundDuration":138248,"Delta":453224537},{"NoteNumber":67,"Velocity":40,"Duration":138248,"SoundDuration":138248,"Delta":453224537},{"NoteNumber":72,"Velocity":47,"Duration":132743,"SoundDuration":132743,"Delta":453362786},{"NoteNumber":63,"Velocity":40,"Duration":132743,"SoundDuration":132743,"Delta":453362786},{"NoteNumber":74,"Velocity":47,"Duration":132743,"SoundDuration":132743,"Delta":453495529},{"NoteNumber":65,"Velocity":40,"Duration":132743,"SoundDuration":132743,"Delta":453495529},{"NoteNumber":75,"Velocity":53,"Duration":132743,"SoundDuration":132743,"Delta":453628272},{"NoteNumber":67,"Velocity":45,"Duration":132743,"SoundDuration":132743,"Delta":453628272},{"NoteNumber":72,"Velocity":47,"Duration":140845,"SoundDuration":140845,"Delta":453761016},{"NoteNumber":63,"Velocity":40,"Duration":140845,"SoundDuration":140845,"Delta":453761016},{"NoteNumber":69,"Velocity":47,"Duration":133333,"SoundDuration":133333,"Delta":453901861},{"NoteNumber":60,"Velocity":40,"Duration":133333,"SoundDuration":133333,"Delta":453901861},{"NoteNumber":70,"Velocity":47,"Duration":133333,"SoundDuration":133333,"Delta":454035194},{"NoteNumber":62,"Velocity":40,"Duration":133333,"SoundDuration":133333,"Delta":454035194},{"NoteNumber":72,"Velocity":52,"Duration":133333,"SoundDuration":133333,"Delta":454168527},{"NoteNumber":63,"Velocity":45,"Duration":133333,"SoundDuration":133333,"Delta":454168527},{"NoteNumber":69,"Velocity":47,"Duration":140187,"SoundDuration":140187,"Delta":454301860},{"NoteNumber":60,"Velocity":40,"Duration":140187,"SoundDuration":140187,"Delta":454301860},{"NoteNumber":65,"Velocity":47,"Duration":266666,"SoundDuration":266666,"Delta":454442047},{"NoteNumber":63,"Velocity":47,"Duration":266666,"SoundDuration":266666,"Delta":454442047},{"NoteNumber":60,"Velocity":47,"Duration":266666,"SoundDuration":266666,"Delta":454442047},{"NoteNumber":57,"Velocity":40,"Duration":133333,"SoundDuration":133333,"Delta":454442047},{"NoteNumber":58,"Velocity":40,"Duration":133333,"SoundDuration":133333,"Delta":454575381},{"NoteNumber":60,"Velocity":45,"Duration":133333,"SoundDuration":133333,"Delta":454708714},{"NoteNumber":57,"Velocity":40,"Duration":138889,"SoundDuration":138889,"Delta":454842047},{"NoteNumber":86,"Velocity":57,"Duration":133333,"SoundDuration":133333,"Delta":454980936},{"NoteNumber":62,"Velocity":51,"Duration":266666,"SoundDuration":266666,"Delta":454980936},{"NoteNumber":53,"Velocity":48,"Duration":266666,"SoundDuration":266666,"Delta":454980936},{"NoteNumber":58,"Velocity":48,"Duration":266666,"SoundDuration":266666,"Delta":454980936},{"NoteNumber":87,"Velocity":48,"Duration":133333,"SoundDuration":133333,"Delta":455114269},{"NoteNumber":86,"Velocity":49,"Duration":133333,"SoundDuration":133333,"Delta":455247603},{"NoteNumber":84,"Velocity":50,"Duration":138889,"SoundDuration":138889,"Delta":455380936},{"NoteNumber":53,"Velocity":42,"Duration":138889,"SoundDuration":138889,"Delta":455380936},{"NoteNumber":86,"Velocity":65,"Duration":133928,"SoundDuration":133928,"Delta":455519825},{"NoteNumber":58,"Velocity":51,"Duration":267856,"SoundDuration":267856,"Delta":455519825},{"NoteNumber":87,"Velocity":57,"Duration":133928,"SoundDuration":133928,"Delta":455653753},{"NoteNumber":89,"Velocity":66,"Duration":133928,"SoundDuration":133928,"Delta":455787682},{"NoteNumber":86,"Velocity":58,"Duration":140187,"SoundDuration":140187,"Delta":455921610},{"NoteNumber":62,"Velocity":40,"Duration":140187,"SoundDuration":140187,"Delta":455921610},{"NoteNumber":82,"Velocity":69,"Duration":133928,"SoundDuration":133928,"Delta":456061797},{"NoteNumber":65,"Velocity":51,"Duration":267856,"SoundDuration":267856,"Delta":456061797},{"NoteNumber":84,"Velocity":56,"Duration":133928,"SoundDuration":133928,"Delta":456195726},{"NoteNumber":86,"Velocity":66,"Duration":133928,"SoundDuration":133928,"Delta":456329654},{"NoteNumber":82,"Velocity":54,"Duration":137614,"SoundDuration":137614,"Delta":456463583},{"NoteNumber":70,"Velocity":43,"Duration":137614,"SoundDuration":137614,"Delta":456463583},{"NoteNumber":77,"Velocity":66,"Duration":133928,"SoundDuration":133928,"Delta":456601198},{"NoteNumber":74,"Velocity":51,"Duration":267856,"SoundDuration":267856,"Delta":456601198},{"NoteNumber":81,"Velocity":53,"Duration":133928,"SoundDuration":133928,"Delta":456735126},{"NoteNumber":82,"Velocity":61,"Duration":133928,"SoundDuration":133928,"Delta":456869055},{"NoteNumber":62,"Velocity":45,"Duration":133928,"SoundDuration":133928,"Delta":456869055},{"NoteNumber":77,"Velocity":53,"Duration":140187,"SoundDuration":140187,"Delta":457002983},{"NoteNumber":58,"Velocity":45,"Duration":140187,"SoundDuration":140187,"Delta":457002983},{"NoteNumber":74,"Velocity":47,"Duration":134529,"SoundDuration":134529,"Delta":457143170},{"NoteNumber":70,"Velocity":40,"Duration":134529,"SoundDuration":134529,"Delta":457143170},{"NoteNumber":75,"Velocity":47,"Duration":134529,"SoundDuration":134529,"Delta":457277699},{"NoteNumber":72,"Velocity":40,"Duration":134529,"SoundDuration":134529,"Delta":457277699},{"NoteNumber":77,"Velocity":58,"Duration":134529,"SoundDuration":134529,"Delta":457412229},{"NoteNumber":74,"Velocity":44,"Duration":134529,"SoundDuration":134529,"Delta":457412229},{"NoteNumber":74,"Velocity":47,"Duration":138248,"SoundDuration":138248,"Delta":457546758},{"NoteNumber":70,"Velocity":40,"Duration":138248,"SoundDuration":138248,"Delta":457546758},{"NoteNumber":70,"Velocity":47,"Duration":132743,"SoundDuration":132743,"Delta":457685007},{"NoteNumber":62,"Velocity":40,"Duration":132743,"SoundDuration":132743,"Delta":457685007},{"NoteNumber":72,"Velocity":47,"Duration":132743,"SoundDuration":132743,"Delta":457817750},{"NoteNumber":63,"Velocity":40,"Duration":132743,"SoundDuration":132743,"Delta":457817750},{"NoteNumber":74,"Velocity":53,"Duration":132743,"SoundDuration":132743,"Delta":457950493},{"NoteNumber":65,"Velocity":45,"Duration":132743,"SoundDuration":132743,"Delta":457950493},{"NoteNumber":70,"Velocity":47,"Duration":140845,"SoundDuration":140845,"Delta":458083236},{"NoteNumber":62,"Velocity":40,"Duration":140845,"SoundDuration":140845,"Delta":458083236},{"NoteNumber":65,"Velocity":47,"Duration":133333,"SoundDuration":133333,"Delta":458224081},{"NoteNumber":58,"Velocity":40,"Duration":133333,"SoundDuration":133333,"Delta":458224081},{"NoteNumber":69,"Velocity":47,"Duration":133333,"SoundDuration":133333,"Delta":458357415},{"NoteNumber":60,"Velocity":40,"Duration":133333,"SoundDuration":133333,"Delta":458357415},{"NoteNumber":70,"Velocity":52,"Duration":133333,"SoundDuration":133333,"Delta":458490748},{"NoteNumber":62,"Velocity":45,"Duration":133333,"SoundDuration":133333,"Delta":458490748},{"NoteNumber":62,"Velocity":47,"Duration":140187,"SoundDuration":140187,"Delta":458624081},{"NoteNumber":58,"Velocity":40,"Duration":137850,"SoundDuration":137850,"Delta":458624081},{"NoteNumber":70,"Velocity":40,"Duration":133333,"SoundDuration":133333,"Delta":458764268},{"NoteNumber":74,"Velocity":40,"Duration":133333,"SoundDuration":133333,"Delta":458764268},{"NoteNumber":72,"Velocity":40,"Duration":133333,"SoundDuration":133333,"Delta":458897601},{"NoteNumber":75,"Velocity":40,"Duration":133333,"SoundDuration":133333,"Delta":458897601},{"NoteNumber":74,"Velocity":45,"Duration":131111,"SoundDuration":131111,"Delta":459030935},{"NoteNumber":77,"Velocity":45,"Duration":133333,"SoundDuration":133333,"Delta":459030935},{"NoteNumber":70,"Velocity":40,"Duration":138889,"SoundDuration":138889,"Delta":459164268},{"NoteNumber":74,"Velocity":40,"Duration":138889,"SoundDuration":138889,"Delta":459164268},{"NoteNumber":65,"Velocity":40,"Duration":277778,"SoundDuration":277778,"Delta":459303157},{"NoteNumber":72,"Velocity":46,"Duration":277778,"SoundDuration":277778,"Delta":459303157},{"NoteNumber":69,"Velocity":40,"Duration":277778,"SoundDuration":277778,"Delta":459303157},{"NoteNumber":75,"Velocity":40,"Duration":138889,"SoundDuration":138889,"Delta":459303157},{"NoteNumber":77,"Velocity":40,"Duration":138889,"SoundDuration":138889,"Delta":459442046},{"NoteNumber":91,"Velocity":52,"Duration":133333,"SoundDuration":133333,"Delta":459580935},{"NoteNumber":75,"Velocity":45,"Duration":133333,"SoundDuration":133333,"Delta":459580935},{"NoteNumber":89,"Velocity":47,"Duration":140187,"SoundDuration":140187,"Delta":459714268},{"NoteNumber":74,"Velocity":40,"Duration":140187,"SoundDuration":140187,"Delta":459714268},{"NoteNumber":91,"Velocity":40,"Duration":133333,"SoundDuration":133333,"Delta":459854455},{"NoteNumber":75,"Velocity":40,"Duration":133333,"SoundDuration":133333,"Delta":459854455},{"NoteNumber":89,"Velocity":40,"Duration":133333,"SoundDuration":133333,"Delta":459987788},{"NoteNumber":77,"Velocity":40,"Duration":133333,"SoundDuration":133333,"Delta":459987788},{"NoteNumber":87,"Velocity":45,"Duration":133333,"SoundDuration":133333,"Delta":460121122},{"NoteNumber":79,"Velocity":45,"Duration":133333,"SoundDuration":133333,"Delta":460121122},{"NoteNumber":91,"Velocity":40,"Duration":138889,"SoundDuration":138889,"Delta":460254455},{"NoteNumber":75,"Velocity":40,"Duration":138889,"SoundDuration":138889,"Delta":460254455},{"NoteNumber":87,"Velocity":52,"Duration":138889,"SoundDuration":138889,"Delta":460393344},{"NoteNumber":72,"Velocity":46,"Duration":138889,"SoundDuration":138889,"Delta":460393344},{"NoteNumber":86,"Velocity":42,"Duration":138889,"SoundDuration":138889,"Delta":460532233},{"NoteNumber":74,"Velocity":38,"Duration":138889,"SoundDuration":138889,"Delta":460532233},{"NoteNumber":84,"Velocity":49,"Duration":133333,"SoundDuration":133333,"Delta":460671122},{"NoteNumber":75,"Velocity":45,"Duration":133333,"SoundDuration":133333,"Delta":460671122},{"NoteNumber":87,"Velocity":43,"Duration":140187,"SoundDuration":140187,"Delta":460804455},{"NoteNumber":72,"Velocity":40,"Duration":140187,"SoundDuration":140187,"Delta":460804455},{"NoteNumber":84,"Velocity":48,"Duration":133333,"SoundDuration":133333,"Delta":460944642},{"NoteNumber":69,"Velocity":45,"Duration":133333,"SoundDuration":133333,"Delta":460944642},{"NoteNumber":82,"Velocity":40,"Duration":133333,"SoundDuration":133333,"Delta":461077975},{"NoteNumber":70,"Velocity":36,"Duration":133333,"SoundDuration":133333,"Delta":461077975},{"NoteNumber":81,"Velocity":45,"Duration":133333,"SoundDuration":133333,"Delta":461211309},{"NoteNumber":72,"Velocity":41,"Duration":133333,"SoundDuration":133333,"Delta":461211309},{"NoteNumber":84,"Velocity":40,"Duration":138889,"SoundDuration":138889,"Delta":461344642},{"NoteNumber":69,"Velocity":36,"Duration":138889,"SoundDuration":138889,"Delta":461344642},{"NoteNumber":78,"Velocity":52,"Duration":138889,"SoundDuration":138889,"Delta":461483531},{"NoteNumber":63,"Velocity":46,"Duration":138889,"SoundDuration":138889,"Delta":461483531},{"NoteNumber":77,"Velocity":42,"Duration":138889,"SoundDuration":138889,"Delta":461622420},{"NoteNumber":65,"Velocity":38,"Duration":138889,"SoundDuration":138889,"Delta":461622420},{"NoteNumber":75,"Velocity":49,"Duration":133333,"SoundDuration":133333,"Delta":461761309},{"NoteNumber":66,"Velocity":45,"Duration":133333,"SoundDuration":133333,"Delta":461761309},{"NoteNumber":78,"Velocity":43,"Duration":140187,"SoundDuration":140187,"Delta":461894642},{"NoteNumber":63,"Velocity":40,"Duration":140187,"SoundDuration":140187,"Delta":461894642},{"NoteNumber":75,"Velocity":48,"Duration":133333,"SoundDuration":133333,"Delta":462034829},{"NoteNumber":60,"Velocity":45,"Duration":133333,"SoundDuration":133333,"Delta":462034829},{"NoteNumber":74,"Velocity":40,"Duration":133333,"SoundDuration":133333,"Delta":462168162},{"NoteNumber":62,"Velocity":36,"Duration":133333,"SoundDuration":133333,"Delta":462168162},{"NoteNumber":72,"Velocity":45,"Duration":133333,"SoundDuration":133333,"Delta":462301496},{"NoteNumber":63,"Velocity":41,"Duration":133333,"SoundDuration":133333,"Delta":462301496},{"NoteNumber":75,"Velocity":40,"Duration":138889,"SoundDuration":138889,"Delta":462434829},{"NoteNumber":60,"Velocity":36,"Duration":138889,"SoundDuration":138889,"Delta":462434829},{"NoteNumber":72,"Velocity":52,"Duration":138889,"SoundDuration":138889,"Delta":462573718},{"NoteNumber":57,"Velocity":46,"Duration":138889,"SoundDuration":138889,"Delta":462573718},{"NoteNumber":70,"Velocity":42,"Duration":138889,"SoundDuration":138889,"Delta":462712607},{"NoteNumber":58,"Velocity":38,"Duration":138889,"SoundDuration":138889,"Delta":462712607},{"NoteNumber":69,"Velocity":49,"Duration":133333,"SoundDuration":133333,"Delta":462851496},{"NoteNumber":60,"Velocity":45,"Duration":133333,"SoundDuration":133333,"Delta":462851496},{"NoteNumber":72,"Velocity":43,"Duration":140187,"SoundDuration":140187,"Delta":462984829},{"NoteNumber":57,"Velocity":40,"Duration":140187,"SoundDuration":140187,"Delta":462984829},{"NoteNumber":63,"Velocity":48,"Duration":133333,"SoundDuration":133333,"Delta":463125016},{"NoteNumber":72,"Velocity":45,"Duration":133333,"SoundDuration":133333,"Delta":463125016},{"NoteNumber":62,"Velocity":40,"Duration":133333,"SoundDuration":133333,"Delta":463258349},{"NoteNumber":70,"Velocity":36,"Duration":133333,"SoundDuration":133333,"Delta":463258349},{"NoteNumber":60,"Velocity":45,"Duration":133333,"SoundDuration":133333,"Delta":463391683},{"NoteNumber":69,"Velocity":41,"Duration":133333,"SoundDuration":133333,"Delta":463391683},{"NoteNumber":63,"Velocity":40,"Duration":138889,"SoundDuration":138889,"Delta":463525016},{"NoteNumber":72,"Velocity":36,"Duration":138889,"SoundDuration":138889,"Delta":463525016},{"NoteNumber":65,"Velocity":40,"Duration":277778,"SoundDuration":277778,"Delta":463663905},{"NoteNumber":70,"Velocity":46,"Duration":277778,"SoundDuration":277778,"Delta":463663905},{"NoteNumber":74,"Velocity":40,"Duration":138889,"SoundDuration":138889,"Delta":463663905},{"NoteNumber":75,"Velocity":40,"Duration":138889,"SoundDuration":138889,"Delta":463802794},{"NoteNumber":89,"Velocity":52,"Duration":133333,"SoundDuration":133333,"Delta":463941683},{"NoteNumber":74,"Velocity":45,"Duration":133333,"SoundDuration":133333,"Delta":463941683},{"NoteNumber":87,"Velocity":47,"Duration":140187,"SoundDuration":140187,"Delta":464075016},{"NoteNumber":72,"Velocity":40,"Duration":140187,"SoundDuration":140187,"Delta":464075016},{"NoteNumber":89,"Velocity":40,"Duration":133333,"SoundDuration":133333,"Delta":464215203},{"NoteNumber":74,"Velocity":40,"Duration":133333,"SoundDuration":133333,"Delta":464215203},{"NoteNumber":87,"Velocity":40,"Duration":133333,"SoundDuration":133333,"Delta":464348536},{"NoteNumber":75,"Velocity":40,"Duration":133333,"SoundDuration":133333,"Delta":464348536},{"NoteNumber":86,"Velocity":45,"Duration":133333,"SoundDuration":133333,"Delta":464481870},{"NoteNumber":77,"Velocity":45,"Duration":133333,"SoundDuration":133333,"Delta":464481870},{"NoteNumber":89,"Velocity":40,"Duration":138889,"SoundDuration":138889,"Delta":464615203},{"NoteNumber":74,"Velocity":40,"Duration":138889,"SoundDuration":138889,"Delta":464615203},{"NoteNumber":86,"Velocity":52,"Duration":138889,"SoundDuration":138889,"Delta":464754092},{"NoteNumber":70,"Velocity":46,"Duration":138889,"SoundDuration":138889,"Delta":464754092},{"NoteNumber":84,"Velocity":42,"Duration":138889,"SoundDuration":138889,"Delta":464892981},{"NoteNumber":72,"Velocity":38,"Duration":138889,"SoundDuration":138889,"Delta":464892981},{"NoteNumber":82,"Velocity":49,"Duration":133333,"SoundDuration":133333,"Delta":465031870},{"NoteNumber":74,"Velocity":45,"Duration":133333,"SoundDuration":133333,"Delta":465031870},{"NoteNumber":86,"Velocity":43,"Duration":140187,"SoundDuration":140187,"Delta":465165203},{"NoteNumber":70,"Velocity":40,"Duration":140187,"SoundDuration":140187,"Delta":465165203},{"NoteNumber":77,"Velocity":48,"Duration":133333,"SoundDuration":133333,"Delta":465305390},{"NoteNumber":65,"Velocity":45,"Duration":133333,"SoundDuration":133333,"Delta":465305390},{"NoteNumber":75,"Velocity":40,"Duration":133333,"SoundDuration":133333,"Delta":465438723},{"NoteNumber":69,"Velocity":36,"Duration":133333,"SoundDuration":133333,"Delta":465438723},{"NoteNumber":74,"Velocity":45,"Duration":133333,"SoundDuration":133333,"Delta":465572057},{"NoteNumber":70,"Velocity":41,"Duration":133333,"SoundDuration":133333,"Delta":465572057},{"NoteNumber":77,"Velocity":40,"Duration":138889,"SoundDuration":138889,"Delta":465705390},{"NoteNumber":65,"Velocity":36,"Duration":138889,"SoundDuration":138889,"Delta":465705390},{"NoteNumber":82,"Velocity":52,"Duration":138889,"SoundDuration":138889,"Delta":465844279},{"NoteNumber":62,"Velocity":46,"Duration":138889,"SoundDuration":138889,"Delta":465844279},{"NoteNumber":79,"Velocity":42,"Duration":138889,"SoundDuration":138889,"Delta":465983168},{"NoteNumber":63,"Velocity":38,"Duration":138889,"SoundDuration":138889,"Delta":465983168},{"NoteNumber":77,"Velocity":49,"Duration":133333,"SoundDuration":133333,"Delta":466122057},{"NoteNumber":65,"Velocity":45,"Duration":133333,"SoundDuration":133333,"Delta":466122057},{"NoteNumber":82,"Velocity":43,"Duration":140187,"SoundDuration":140187,"Delta":466255390},{"NoteNumber":62,"Velocity":40,"Duration":140187,"SoundDuration":140187,"Delta":466255390},{"NoteNumber":74,"Velocity":48,"Duration":133333,"SoundDuration":133333,"Delta":466395577},{"NoteNumber":58,"Velocity":45,"Duration":133333,"SoundDuration":133333,"Delta":466395577},{"NoteNumber":72,"Velocity":40,"Duration":133333,"SoundDuration":133333,"Delta":466528910},{"NoteNumber":60,"Velocity":36,"Duration":133333,"SoundDuration":133333,"Delta":466528910},{"NoteNumber":70,"Velocity":45,"Duration":133333,"SoundDuration":133333,"Delta":466662244},{"NoteNumber":62,"Velocity":41,"Duration":133333,"SoundDuration":133333,"Delta":466662244},{"NoteNumber":74,"Velocity":40,"Duration":138889,"SoundDuration":138889,"Delta":466795577},{"NoteNumber":58,"Velocity":36,"Duration":138889,"SoundDuration":138889,"Delta":466795577},{"NoteNumber":86,"Velocity":62,"Duration":138889,"SoundDuration":138889,"Delta":466934466},{"NoteNumber":74,"Velocity":62,"Duration":551298,"SoundDuration":551298,"Delta":466934466},{"NoteNumber":53,"Velocity":46,"Duration":138889,"SoundDuration":138889,"Delta":466934466},{"NoteNumber":84,"Velocity":51,"Duration":138889,"SoundDuration":138889,"Delta":467073355},{"NoteNumber":57,"Velocity":38,"Duration":138889,"SoundDuration":138889,"Delta":467073355},{"NoteNumber":82,"Velocity":61,"Duration":133333,"SoundDuration":133333,"Delta":467212244},{"NoteNumber":58,"Velocity":45,"Duration":133333,"SoundDuration":133333,"Delta":467212244},{"NoteNumber":86,"Velocity":52,"Duration":140187,"SoundDuration":140187,"Delta":467345577},{"NoteNumber":53,"Velocity":40,"Duration":140187,"SoundDuration":140187,"Delta":467345577},{"NoteNumber":87,"Velocity":52,"Duration":141509,"SoundDuration":141509,"Delta":467485764},{"NoteNumber":78,"Velocity":62,"Duration":592297,"SoundDuration":592297,"Delta":467485764},{"NoteNumber":51,"Velocity":45,"Duration":141509,"SoundDuration":141509,"Delta":467485764},{"NoteNumber":86,"Velocity":59,"Duration":141509,"SoundDuration":141509,"Delta":467627274},{"NoteNumber":58,"Velocity":36,"Duration":141509,"SoundDuration":141509,"Delta":467627274},{"NoteNumber":87,"Velocity":62,"Duration":154639,"SoundDuration":154639,"Delta":467768783},{"NoteNumber":53,"Velocity":41,"Duration":154639,"SoundDuration":154639,"Delta":467768783},{"NoteNumber":89,"Velocity":65,"Duration":154639,"SoundDuration":154639,"Delta":467923422},{"NoteNumber":51,"Velocity":36,"Duration":154639,"SoundDuration":154639,"Delta":467923422},{"NoteNumber":77,"Velocity":51,"Duration":309278,"SoundDuration":309278,"Delta":468078062},{"NoteNumber":89,"Velocity":51,"Duration":309278,"SoundDuration":309278,"Delta":468078062},{"NoteNumber":50,"Velocity":36,"Duration":309278,"SoundDuration":309278,"Delta":468078062},{"NoteNumber":46,"Velocity":34,"Duration":303030,"SoundDuration":303030,"Delta":468387340},{"NoteNumber":58,"Velocity":40,"Duration":303030,"SoundDuration":303030,"Delta":468387340},{"NoteNumber":55,"Velocity":36,"Duration":151515,"SoundDuration":151515,"Delta":468690371},{"NoteNumber":51,"Velocity":30,"Duration":151515,"SoundDuration":151515,"Delta":468690371},{"NoteNumber":63,"Velocity":40,"Duration":143540,"SoundDuration":143540,"Delta":468993401},{"NoteNumber":60,"Velocity":36,"Duration":143540,"SoundDuration":143540,"Delta":469136942},{"NoteNumber":57,"Velocity":36,"Duration":300000,"SoundDuration":300000,"Delta":469280483},{"NoteNumber":72,"Velocity":40,"Duration":285714,"SoundDuration":285714,"Delta":469580483},{"NoteNumber":69,"Velocity":34,"Duration":285714,"SoundDuration":285714,"Delta":469580483},{"NoteNumber":53,"Velocity":34,"Duration":285714,"SoundDuration":285714,"Delta":469580483},{"NoteNumber":65,"Velocity":36,"Duration":285714,"SoundDuration":285714,"Delta":469580483},{"NoteNumber":74,"Velocity":38,"Duration":157067,"SoundDuration":157067,"Delta":469866197},{"NoteNumber":70,"Velocity":32,"Duration":157067,"SoundDuration":157067,"Delta":469866197},{"NoteNumber":62,"Velocity":36,"Duration":157067,"SoundDuration":157067,"Delta":469866197},{"NoteNumber":58,"Velocity":30,"Duration":157067,"SoundDuration":157067,"Delta":469866197},{"NoteNumber":94,"Velocity":47,"Duration":144230,"SoundDuration":144230,"Delta":470180333},{"NoteNumber":93,"Velocity":44,"Duration":144230,"SoundDuration":144230,"Delta":470324564},{"NoteNumber":94,"Velocity":47,"Duration":309278,"SoundDuration":309278,"Delta":470468795},{"NoteNumber":91,"Velocity":39,"Duration":314136,"SoundDuration":314136,"Delta":470778073},{"NoteNumber":82,"Velocity":33,"Duration":314136,"SoundDuration":314136,"Delta":470778073},{"NoteNumber":79,"Velocity":33,"Duration":314136,"SoundDuration":314136,"Delta":470778073},{"NoteNumber":64,"Velocity":30,"Duration":314136,"SoundDuration":314136,"Delta":470778073},{"NoteNumber":61,"Velocity":26,"Duration":314136,"SoundDuration":314136,"Delta":470778073},{"NoteNumber":58,"Velocity":26,"Duration":314136,"SoundDuration":314136,"Delta":470778073},{"NoteNumber":67,"Velocity":36,"Duration":314136,"SoundDuration":314136,"Delta":470778073},{"NoteNumber":81,"Velocity":35,"Duration":329670,"SoundDuration":329670,"Delta":471092209},{"NoteNumber":89,"Velocity":42,"Duration":329670,"SoundDuration":329670,"Delta":471092209},{"NoteNumber":77,"Velocity":35,"Duration":329670,"SoundDuration":329670,"Delta":471092209},{"NoteNumber":65,"Velocity":34,"Duration":329670,"SoundDuration":329670,"Delta":471092209},{"NoteNumber":69,"Velocity":40,"Duration":329670,"SoundDuration":329670,"Delta":471092209},{"NoteNumber":60,"Velocity":34,"Duration":329670,"SoundDuration":329670,"Delta":471092209},{"NoteNumber":88,"Velocity":40,"Duration":350877,"SoundDuration":350877,"Delta":471421880},{"NoteNumber":79,"Velocity":30,"Duration":350877,"SoundDuration":350877,"Delta":471421880},{"NoteNumber":76,"Velocity":30,"Duration":350877,"SoundDuration":350877,"Delta":471421880},{"NoteNumber":67,"Velocity":27,"Duration":175438,"SoundDuration":175438,"Delta":471421880},{"NoteNumber":60,"Velocity":25,"Duration":350877,"SoundDuration":350877,"Delta":471421880},{"NoteNumber":70,"Velocity":30,"Duration":175438,"SoundDuration":175438,"Delta":471421880},{"NoteNumber":72,"Velocity":36,"Duration":175438,"SoundDuration":175438,"Delta":471597318},{"NoteNumber":79,"Velocity":38,"Duration":337078,"SoundDuration":337078,"Delta":471772757},{"NoteNumber":91,"Velocity":45,"Duration":337078,"SoundDuration":337078,"Delta":471772757},{"NoteNumber":82,"Velocity":38,"Duration":337078,"SoundDuration":337078,"Delta":471772757},{"NoteNumber":72,"Velocity":36,"Duration":337078,"SoundDuration":337078,"Delta":471772757},{"NoteNumber":65,"Velocity":30,"Duration":337078,"SoundDuration":337078,"Delta":471772757},{"NoteNumber":81,"Velocity":30,"Duration":322580,"SoundDuration":322580,"Delta":472109835},{"NoteNumber":77,"Velocity":30,"Duration":322580,"SoundDuration":322580,"Delta":472109835},{"NoteNumber":89,"Velocity":36,"Duration":322580,"SoundDuration":322580,"Delta":472109835},{"NoteNumber":65,"Velocity":30,"Duration":322580,"SoundDuration":322580,"Delta":472109835},{"NoteNumber":74,"Velocity":36,"Duration":241935,"SoundDuration":241935,"Delta":472109835},{"NoteNumber":76,"Velocity":31,"Duration":80645,"SoundDuration":80645,"Delta":472351770},{"NoteNumber":81,"Velocity":30,"Duration":322580,"SoundDuration":322580,"Delta":472432416},{"NoteNumber":89,"Velocity":36,"Duration":322580,"SoundDuration":322580,"Delta":472432416},{"NoteNumber":65,"Velocity":30,"Duration":322580,"SoundDuration":322580,"Delta":472432416},{"NoteNumber":77,"Velocity":36,"Duration":322580,"SoundDuration":322580,"Delta":472432416},{"NoteNumber":70,"Velocity":38,"Duration":144927,"SoundDuration":144927,"Delta":472754996},{"NoteNumber":77,"Velocity":45,"Duration":144927,"SoundDuration":144927,"Delta":472754996},{"NoteNumber":67,"Velocity":37,"Duration":144927,"SoundDuration":144927,"Delta":472754996},{"NoteNumber":75,"Velocity":40,"Duration":144927,"SoundDuration":144927,"Delta":472899924},{"NoteNumber":72,"Velocity":34,"Duration":144927,"SoundDuration":144927,"Delta":472899924},{"NoteNumber":69,"Velocity":36,"Duration":144927,"SoundDuration":144927,"Delta":472899924},{"NoteNumber":74,"Velocity":46,"Duration":315789,"SoundDuration":315789,"Delta":473044851},{"NoteNumber":70,"Velocity":36,"Duration":313157,"SoundDuration":313157,"Delta":473044851},{"NoteNumber":82,"Velocity":51,"Duration":292683,"SoundDuration":292683,"Delta":473360641},{"NoteNumber":70,"Velocity":43,"Duration":448123,"SoundDuration":448123,"Delta":473360641},{"NoteNumber":65,"Velocity":36,"Duration":292683,"SoundDuration":292683,"Delta":473360641},{"NoteNumber":62,"Velocity":30,"Duration":292683,"SoundDuration":292683,"Delta":473360641},{"NoteNumber":79,"Velocity":46,"Duration":155440,"SoundDuration":155440,"Delta":473653324},{"NoteNumber":63,"Velocity":30,"Duration":155440,"SoundDuration":155440,"Delta":473653324},{"NoteNumber":67,"Velocity":36,"Duration":155440,"SoundDuration":155440,"Delta":473653324},{"NoteNumber":75,"Velocity":43,"Duration":146341,"SoundDuration":146341,"Delta":473964205},{"NoteNumber":87,"Velocity":51,"Duration":146341,"SoundDuration":146341,"Delta":473964205},{"NoteNumber":72,"Velocity":36,"Duration":146341,"SoundDuration":146341,"Delta":473964205},{"NoteNumber":79,"Velocity":37,"Duration":146341,"SoundDuration":146341,"Delta":474110546},{"NoteNumber":84,"Velocity":44,"Duration":146341,"SoundDuration":146341,"Delta":474110546},{"NoteNumber":75,"Velocity":32,"Duration":146341,"SoundDuration":146341,"Delta":474110546},{"NoteNumber":81,"Velocity":51,"Duration":324324,"SoundDuration":324324,"Delta":474256888},{"NoteNumber":77,"Velocity":36,"Duration":321621,"SoundDuration":321621,"Delta":474256888},{"NoteNumber":77,"Velocity":47,"Duration":449558,"SoundDuration":449558,"Delta":474581212},{"NoteNumber":89,"Velocity":56,"Duration":294117,"SoundDuration":294117,"Delta":474581212},{"NoteNumber":69,"Velocity":30,"Duration":294117,"SoundDuration":294117,"Delta":474581212},{"NoteNumber":72,"Velocity":36,"Duration":294117,"SoundDuration":294117,"Delta":474581212},{"NoteNumber":86,"Velocity":53,"Duration":155440,"SoundDuration":155440,"Delta":474875330},{"NoteNumber":70,"Velocity":30,"Duration":155440,"SoundDuration":155440,"Delta":474875330},{"NoteNumber":74,"Velocity":36,"Duration":155440,"SoundDuration":155440,"Delta":474875330},{"NoteNumber":82,"Velocity":52,"Duration":147783,"SoundDuration":147783,"Delta":475186211},{"NoteNumber":67,"Velocity":41,"Duration":147783,"SoundDuration":147783,"Delta":475186211},{"NoteNumber":81,"Velocity":45,"Duration":147783,"SoundDuration":147783,"Delta":475333994},{"NoteNumber":66,"Velocity":36,"Duration":147783,"SoundDuration":147783,"Delta":475333994},{"NoteNumber":82,"Velocity":52,"Duration":312500,"SoundDuration":312500,"Delta":475481777},{"NoteNumber":67,"Velocity":36,"Duration":312500,"SoundDuration":312500,"Delta":475481777},{"NoteNumber":79,"Velocity":37,"Duration":322580,"SoundDuration":322580,"Delta":475794277},{"NoteNumber":91,"Velocity":47,"Duration":322580,"SoundDuration":322580,"Delta":475794277},{"NoteNumber":75,"Velocity":36,"Duration":322580,"SoundDuration":322580,"Delta":475794277},{"NoteNumber":70,"Velocity":30,"Duration":322580,"SoundDuration":322580,"Delta":475794277},{"NoteNumber":67,"Velocity":30,"Duration":322580,"SoundDuration":322580,"Delta":475794277},{"NoteNumber":87,"Velocity":51,"Duration":322580,"SoundDuration":322580,"Delta":476116858},{"NoteNumber":75,"Velocity":37,"Duration":322580,"SoundDuration":322580,"Delta":476116858},{"NoteNumber":79,"Velocity":37,"Duration":322580,"SoundDuration":322580,"Delta":476116858},{"NoteNumber":67,"Velocity":30,"Duration":322580,"SoundDuration":322580,"Delta":476116858},{"NoteNumber":72,"Velocity":36,"Duration":322580,"SoundDuration":322580,"Delta":476116858},{"NoteNumber":86,"Velocity":44,"Duration":319892,"SoundDuration":319892,"Delta":476439438},{"NoteNumber":81,"Velocity":37,"Duration":319892,"SoundDuration":319892,"Delta":476439438},{"NoteNumber":74,"Velocity":37,"Duration":319892,"SoundDuration":319892,"Delta":476439438},{"NoteNumber":69,"Velocity":30,"Duration":319892,"SoundDuration":319892,"Delta":476439438},{"NoteNumber":66,"Velocity":30,"Duration":319892,"SoundDuration":319892,"Delta":476439438},{"NoteNumber":74,"Velocity":36,"Duration":301507,"SoundDuration":301507,"Delta":476762019},{"NoteNumber":81,"Velocity":44,"Duration":301507,"SoundDuration":301507,"Delta":476762019},{"NoteNumber":86,"Velocity":44,"Duration":895972,"SoundDuration":895972,"Delta":476762019},{"NoteNumber":69,"Velocity":30,"Duration":301507,"SoundDuration":301507,"Delta":476762019},{"NoteNumber":66,"Velocity":30,"Duration":301507,"SoundDuration":301507,"Delta":476762019},{"NoteNumber":84,"Velocity":50,"Duration":146341,"SoundDuration":146341,"Delta":477063526},{"NoteNumber":66,"Velocity":31,"Duration":292683,"SoundDuration":292683,"Delta":477063526},{"NoteNumber":62,"Velocity":26,"Duration":292683,"SoundDuration":292683,"Delta":477063526},{"NoteNumber":82,"Velocity":44,"Duration":143902,"SoundDuration":143902,"Delta":477209868},{"NoteNumber":82,"Velocity":49,"Duration":301782,"SoundDuration":301782,"Delta":477356209},{"NoteNumber":67,"Velocity":30,"Duration":301782,"SoundDuration":301782,"Delta":477356209},{"NoteNumber":70,"Velocity":36,"Duration":301782,"SoundDuration":301782,"Delta":477356209},{"NoteNumber":91,"Velocity":55,"Duration":305205,"SoundDuration":305205,"Delta":477657991},{"NoteNumber":82,"Velocity":46,"Duration":606713,"SoundDuration":606713,"Delta":477657991},{"NoteNumber":85,"Velocity":46,"Duration":305205,"SoundDuration":305205,"Delta":477657991},{"NoteNumber":65,"Velocity":34,"Duration":145630,"SoundDuration":145630,"Delta":477657991},{"NoteNumber":68,"Velocity":40,"Duration":145630,"SoundDuration":145630,"Delta":477657991},{"NoteNumber":67,"Velocity":36,"Duration":158244,"SoundDuration":158244,"Delta":477803622},{"NoteNumber":64,"Velocity":30,"Duration":158244,"SoundDuration":158244,"Delta":477803622},{"NoteNumber":84,"Velocity":44,"Duration":895972,"SoundDuration":895972,"Delta":477963197},{"NoteNumber":64,"Velocity":30,"Duration":301507,"SoundDuration":301507,"Delta":477963197},{"NoteNumber":67,"Velocity":36,"Duration":301507,"SoundDuration":301507,"Delta":477963197},{"NoteNumber":82,"Velocity":50,"Duration":146341,"SoundDuration":146341,"Delta":478264704},{"NoteNumber":60,"Velocity":26,"Duration":292683,"SoundDuration":292683,"Delta":478264704},{"NoteNumber":64,"Velocity":31,"Duration":292683,"SoundDuration":292683,"Delta":478264704},{"NoteNumber":80,"Velocity":44,"Duration":143902,"SoundDuration":143902,"Delta":478411046},{"NoteNumber":80,"Velocity":49,"Duration":301782,"SoundDuration":301782,"Delta":478557387},{"NoteNumber":65,"Velocity":30,"Duration":301782,"SoundDuration":301782,"Delta":478557387},{"NoteNumber":68,"Velocity":36,"Duration":301782,"SoundDuration":301782,"Delta":478557387},{"NoteNumber":80,"Velocity":55,"Duration":606713,"SoundDuration":606713,"Delta":478859169},{"NoteNumber":89,"Velocity":55,"Duration":305205,"SoundDuration":305205,"Delta":478859169},{"NoteNumber":83,"Velocity":55,"Duration":305205,"SoundDuration":305205,"Delta":478859169},{"NoteNumber":66,"Velocity":40,"Duration":145630,"SoundDuration":145630,"Delta":478859169},{"NoteNumber":63,"Velocity":34,"Duration":145630,"SoundDuration":145630,"Delta":478859169},{"NoteNumber":65,"Velocity":36,"Duration":158244,"SoundDuration":158244,"Delta":479004800},{"NoteNumber":62,"Velocity":30,"Duration":158244,"SoundDuration":158244,"Delta":479004800},{"NoteNumber":82,"Velocity":44,"Duration":895972,"SoundDuration":895972,"Delta":479164375},{"NoteNumber":62,"Velocity":30,"Duration":301507,"SoundDuration":301507,"Delta":479164375},{"NoteNumber":65,"Velocity":36,"Duration":301507,"SoundDuration":301507,"Delta":479164375},{"NoteNumber":80,"Velocity":50,"Duration":146341,"SoundDuration":146341,"Delta":479465882},{"NoteNumber":62,"Velocity":31,"Duration":292683,"SoundDuration":292683,"Delta":479465882},{"NoteNumber":58,"Velocity":26,"Duration":292683,"SoundDuration":292683,"Delta":479465882},{"NoteNumber":79,"Velocity":44,"Duration":143902,"SoundDuration":143902,"Delta":479612224},{"NoteNumber":79,"Velocity":49,"Duration":301782,"SoundDuration":301782,"Delta":479758565},{"NoteNumber":63,"Velocity":30,"Duration":301782,"SoundDuration":301782,"Delta":479758565},{"NoteNumber":67,"Velocity":36,"Duration":301782,"SoundDuration":301782,"Delta":479758565},{"NoteNumber":79,"Velocity":46,"Duration":606713,"SoundDuration":606713,"Delta":480060347},{"NoteNumber":88,"Velocity":55,"Duration":305205,"SoundDuration":305205,"Delta":480060347},{"NoteNumber":82,"Velocity":46,"Duration":305205,"SoundDuration":305205,"Delta":480060347},{"NoteNumber":65,"Velocity":40,"Duration":145630,"SoundDuration":145630,"Delta":480060347},{"NoteNumber":62,"Velocity":34,"Duration":145630,"SoundDuration":145630,"Delta":480060347},{"NoteNumber":61,"Velocity":30,"Duration":158244,"SoundDuration":158244,"Delta":480205978},{"NoteNumber":64,"Velocity":36,"Duration":158244,"SoundDuration":158244,"Delta":480205978},{"NoteNumber":81,"Velocity":44,"Duration":895972,"SoundDuration":895972,"Delta":480365553},{"NoteNumber":61,"Velocity":30,"Duration":301507,"SoundDuration":301507,"Delta":480365553},{"NoteNumber":64,"Velocity":36,"Duration":301507,"SoundDuration":301507,"Delta":480365553},{"NoteNumber":79,"Velocity":50,"Duration":146341,"SoundDuration":146341,"Delta":480667060},{"NoteNumber":61,"Velocity":31,"Duration":292683,"SoundDuration":292683,"Delta":480667060},{"NoteNumber":57,"Velocity":26,"Duration":292683,"SoundDuration":292683,"Delta":480667060},{"NoteNumber":77,"Velocity":44,"Duration":143902,"SoundDuration":143902,"Delta":480813402},{"NoteNumber":77,"Velocity":49,"Duration":301782,"SoundDuration":301782,"Delta":480959743},{"NoteNumber":65,"Velocity":36,"Duration":301782,"SoundDuration":301782,"Delta":480959743},{"NoteNumber":62,"Velocity":30,"Duration":301782,"SoundDuration":301782,"Delta":480959743},{"NoteNumber":80,"Velocity":46,"Duration":305205,"SoundDuration":305205,"Delta":481261525},{"NoteNumber":86,"Velocity":55,"Duration":305205,"SoundDuration":305205,"Delta":481261525},{"NoteNumber":77,"Velocity":46,"Duration":305205,"SoundDuration":305205,"Delta":481261525},{"NoteNumber":63,"Velocity":40,"Duration":145630,"SoundDuration":145630,"Delta":481261525},{"NoteNumber":60,"Velocity":34,"Duration":145630,"SoundDuration":145630,"Delta":481261525},{"NoteNumber":62,"Velocity":36,"Duration":158244,"SoundDuration":158244,"Delta":481407156},{"NoteNumber":59,"Velocity":30,"Duration":158244,"SoundDuration":158244,"Delta":481407156},{"NoteNumber":80,"Velocity":55,"Duration":144927,"SoundDuration":144927,"Delta":481566731},{"NoteNumber":77,"Velocity":46,"Duration":294181,"SoundDuration":294181,"Delta":481566731},{"NoteNumber":62,"Velocity":36,"Duration":294181,"SoundDuration":294181,"Delta":481566731},{"NoteNumber":59,"Velocity":30,"Duration":294181,"SoundDuration":294181,"Delta":481566731},{"NoteNumber":79,"Velocity":46,"Duration":298507,"SoundDuration":298507,"Delta":481711658},{"NoteNumber":75,"Velocity":46,"Duration":306321,"SoundDuration":306321,"Delta":481860912},{"NoteNumber":60,"Velocity":36,"Duration":149253,"SoundDuration":149253,"Delta":481860912},{"NoteNumber":63,"Velocity":30,"Duration":306321,"SoundDuration":306321,"Delta":481860912},{"NoteNumber":84,"Velocity":48,"Duration":157067,"SoundDuration":157067,"Delta":482010166},{"NoteNumber":58,"Velocity":30,"Duration":157067,"SoundDuration":157067,"Delta":482010166},{"NoteNumber":78,"Velocity":55,"Duration":144927,"SoundDuration":144927,"Delta":482167234},{"NoteNumber":75,"Velocity":46,"Duration":294181,"SoundDuration":294181,"Delta":482167234},{"NoteNumber":57,"Velocity":30,"Duration":294181,"SoundDuration":294181,"Delta":482167234},{"NoteNumber":60,"Velocity":36,"Duration":294181,"SoundDuration":294181,"Delta":482167234},{"NoteNumber":77,"Velocity":47,"Duration":298507,"SoundDuration":298507,"Delta":482312161},{"NoteNumber":74,"Velocity":46,"Duration":307148,"SoundDuration":307148,"Delta":482461415},{"NoteNumber":58,"Velocity":36,"Duration":149253,"SoundDuration":149253,"Delta":482461415},{"NoteNumber":62,"Velocity":30,"Duration":307148,"SoundDuration":307148,"Delta":482461415},{"NoteNumber":82,"Velocity":49,"Duration":157894,"SoundDuration":157894,"Delta":482610669},{"NoteNumber":50,"Velocity":32,"Duration":157894,"SoundDuration":157894,"Delta":482610669},{"NoteNumber":77,"Velocity":56,"Duration":148514,"SoundDuration":148514,"Delta":482768563},{"NoteNumber":53,"Velocity":25,"Duration":1731643,"SoundDuration":1731643,"Delta":482768563},{"NoteNumber":63,"Velocity":30,"Duration":1731643,"SoundDuration":1731643,"Delta":482768563},{"NoteNumber":48,"Velocity":25,"Duration":1731643,"SoundDuration":1731643,"Delta":482768563},{"NoteNumber":89,"Velocity":49,"Duration":143540,"SoundDuration":143540,"Delta":482917078},{"NoteNumber":88,"Velocity":50,"Duration":143540,"SoundDuration":143540,"Delta":483060619},{"NoteNumber":87,"Velocity":50,"Duration":143540,"SoundDuration":143540,"Delta":483204160},{"NoteNumber":84,"Velocity":51,"Duration":143540,"SoundDuration":143540,"Delta":483347700},{"NoteNumber":81,"Velocity":52,"Duration":143540,"SoundDuration":143540,"Delta":483491241},{"NoteNumber":78,"Velocity":53,"Duration":143540,"SoundDuration":143540,"Delta":483634782},{"NoteNumber":77,"Velocity":54,"Duration":143540,"SoundDuration":143540,"Delta":483778323},{"NoteNumber":76,"Velocity":55,"Duration":143540,"SoundDuration":143540,"Delta":483921863},{"NoteNumber":75,"Velocity":56,"Duration":143540,"SoundDuration":143540,"Delta":484065404},{"NoteNumber":72,"Velocity":56,"Duration":145630,"SoundDuration":145630,"Delta":484208945},{"NoteNumber":69,"Velocity":57,"Duration":145631,"SoundDuration":145631,"Delta":484354576},{"NoteNumber":66,"Velocity":61,"Duration":147783,"SoundDuration":147783,"Delta":484500207},{"NoteNumber":70,"Velocity":51,"Duration":295566,"SoundDuration":295566,"Delta":484500207},{"NoteNumber":62,"Velocity":30,"Duration":601244,"SoundDuration":601244,"Delta":484500207},{"NoteNumber":50,"Velocity":25,"Duration":601244,"SoundDuration":601244,"Delta":484500207},{"NoteNumber":53,"Velocity":25,"Duration":601244,"SoundDuration":601244,"Delta":484500207},{"NoteNumber":65,"Velocity":47,"Duration":147783,"SoundDuration":147783,"Delta":484647990},{"NoteNumber":79,"Velocity":58,"Duration":147783,"SoundDuration":147783,"Delta":484795773},{"NoteNumber":70,"Velocity":49,"Duration":305678,"SoundDuration":305678,"Delta":484795773},{"NoteNumber":77,"Velocity":47,"Duration":157894,"SoundDuration":157894,"Delta":484943557},{"NoteNumber":77,"Velocity":56,"Duration":151515,"SoundDuration":151515,"Delta":485101451},{"NoteNumber":36,"Velocity":25,"Duration":1756298,"SoundDuration":1756298,"Delta":485101451},{"NoteNumber":51,"Velocity":30,"Duration":1756298,"SoundDuration":1756298,"Delta":485101451},{"NoteNumber":41,"Velocity":25,"Duration":1756298,"SoundDuration":1756298,"Delta":485101451},{"NoteNumber":89,"Velocity":50,"Duration":145630,"SoundDuration":145630,"Delta":485252967},{"NoteNumber":88,"Velocity":51,"Duration":145631,"SoundDuration":145631,"Delta":485398598},{"NoteNumber":87,"Velocity":52,"Duration":145630,"SoundDuration":145630,"Delta":485544229},{"NoteNumber":84,"Velocity":53,"Duration":145630,"SoundDuration":145630,"Delta":485689860},{"NoteNumber":81,"Velocity":54,"Duration":145631,"SoundDuration":145631,"Delta":485835491},{"NoteNumber":78,"Velocity":55,"Duration":145630,"SoundDuration":145630,"Delta":485981122},{"NoteNumber":77,"Velocity":57,"Duration":145630,"SoundDuration":145630,"Delta":486126753},{"NoteNumber":76,"Velocity":58,"Duration":146341,"SoundDuration":146341,"Delta":486272384},{"NoteNumber":75,"Velocity":59,"Duration":146341,"SoundDuration":146341,"Delta":486418725},{"NoteNumber":72,"Velocity":60,"Duration":146341,"SoundDuration":146341,"Delta":486565067},{"NoteNumber":69,"Velocity":61,"Duration":146341,"SoundDuration":146341,"Delta":486711408},{"NoteNumber":66,"Velocity":64,"Duration":146341,"SoundDuration":146341,"Delta":486857750},{"NoteNumber":70,"Velocity":64,"Duration":292682,"SoundDuration":292682,"Delta":486857750},{"NoteNumber":38,"Velocity":25,"Duration":600375,"SoundDuration":600375,"Delta":486857750},{"NoteNumber":41,"Velocity":25,"Duration":600375,"SoundDuration":600375,"Delta":486857750},{"NoteNumber":50,"Velocity":30,"Duration":600375,"SoundDuration":600375,"Delta":486857750},{"NoteNumber":65,"Velocity":47,"Duration":146341,"SoundDuration":146341,"Delta":487004091},{"NoteNumber":70,"Velocity":49,"Duration":307692,"SoundDuration":307692,"Delta":487150433},{"NoteNumber":79,"Velocity":58,"Duration":153846,"SoundDuration":153846,"Delta":487150433},{"NoteNumber":77,"Velocity":47,"Duration":153846,"SoundDuration":153846,"Delta":487304279},{"NoteNumber":77,"Velocity":52,"Duration":156250,"SoundDuration":156250,"Delta":487458125},{"NoteNumber":50,"Velocity":30,"Duration":606249,"SoundDuration":606249,"Delta":487458125},{"NoteNumber":38,"Velocity":25,"Duration":606249,"SoundDuration":606249,"Delta":487458125},{"NoteNumber":74,"Velocity":45,"Duration":149999,"SoundDuration":149999,"Delta":487614375},{"NoteNumber":82,"Velocity":54,"Duration":149999,"SoundDuration":149999,"Delta":487614375},{"NoteNumber":77,"Velocity":49,"Duration":150000,"SoundDuration":150000,"Delta":487764375},{"NoteNumber":86,"Velocity":58,"Duration":150000,"SoundDuration":150000,"Delta":487764375},{"NoteNumber":84,"Velocity":52,"Duration":149999,"SoundDuration":149999,"Delta":487914375},{"NoteNumber":75,"Velocity":44,"Duration":149999,"SoundDuration":149999,"Delta":487914375},{"NoteNumber":82,"Velocity":58,"Duration":1205883,"SoundDuration":1205883,"Delta":488064375},{"NoteNumber":74,"Velocity":58,"Duration":150000,"SoundDuration":150000,"Delta":488064375},{"NoteNumber":43,"Velocity":23,"Duration":607894,"SoundDuration":607894,"Delta":488064375},{"NoteNumber":55,"Velocity":28,"Duration":607894,"SoundDuration":607894,"Delta":488064375},{"NoteNumber":78,"Velocity":50,"Duration":149999,"SoundDuration":149999,"Delta":488214375},{"NoteNumber":79,"Velocity":55,"Duration":149999,"SoundDuration":149999,"Delta":488364375},{"NoteNumber":74,"Velocity":50,"Duration":157894,"SoundDuration":157894,"Delta":488514375},{"NoteNumber":73,"Velocity":54,"Duration":147783,"SoundDuration":147783,"Delta":488672270},{"NoteNumber":52,"Velocity":30,"Duration":597988,"SoundDuration":597988,"Delta":488672270},{"NoteNumber":40,"Velocity":25,"Duration":597988,"SoundDuration":597988,"Delta":488672270},{"NoteNumber":78,"Velocity":58,"Duration":147783,"SoundDuration":147783,"Delta":488820053},{"NoteNumber":79,"Velocity":58,"Duration":147783,"SoundDuration":147783,"Delta":488967836},{"NoteNumber":73,"Velocity":53,"Duration":154639,"SoundDuration":154639,"Delta":489115620},{"NoteNumber":72,"Velocity":56,"Duration":149253,"SoundDuration":149253,"Delta":489270259},{"NoteNumber":53,"Velocity":29,"Duration":298507,"SoundDuration":298507,"Delta":489270259},{"NoteNumber":41,"Velocity":24,"Duration":298507,"SoundDuration":298507,"Delta":489270259},{"NoteNumber":76,"Velocity":50,"Duration":149253,"SoundDuration":149253,"Delta":489419513},{"NoteNumber":77,"Velocity":60,"Duration":149253,"SoundDuration":149253,"Delta":489568766},{"NoteNumber":89,"Velocity":54,"Duration":158730,"SoundDuration":158730,"Delta":489718020},{"NoteNumber":89,"Velocity":61,"Duration":148514,"SoundDuration":148514,"Delta":489876750},{"NoteNumber":60,"Velocity":25,"Duration":1731643,"SoundDuration":1731643,"Delta":489876750},{"NoteNumber":75,"Velocity":30,"Duration":1731643,"SoundDuration":1731643,"Delta":489876750},{"NoteNumber":65,"Velocity":25,"Duration":1731643,"SoundDuration":1731643,"Delta":489876750},{"NoteNumber":101,"Velocity":48,"Duration":143540,"SoundDuration":143540,"Delta":490025265},{"NoteNumber":100,"Velocity":49,"Duration":143540,"SoundDuration":143540,"Delta":490168806},{"NoteNumber":99,"Velocity":50,"Duration":143540,"SoundDuration":143540,"Delta":490312347},{"NoteNumber":96,"Velocity":51,"Duration":143540,"SoundDuration":143540,"Delta":490455887},{"NoteNumber":93,"Velocity":51,"Duration":143540,"SoundDuration":143540,"Delta":490599428},{"NoteNumber":90,"Velocity":52,"Duration":143540,"SoundDuration":143540,"Delta":490742969},{"NoteNumber":89,"Velocity":53,"Duration":143540,"SoundDuration":143540,"Delta":490886510},{"NoteNumber":88,"Velocity":55,"Duration":143540,"SoundDuration":143540,"Delta":491030050},{"NoteNumber":87,"Velocity":60,"Duration":143540,"SoundDuration":143540,"Delta":491173591},{"NoteNumber":84,"Velocity":64,"Duration":145630,"SoundDuration":145630,"Delta":491317132},{"NoteNumber":81,"Velocity":67,"Duration":145631,"SoundDuration":145631,"Delta":491462763},{"NoteNumber":82,"Velocity":60,"Duration":295566,"SoundDuration":295566,"Delta":491608394},{"NoteNumber":78,"Velocity":72,"Duration":147783,"SoundDuration":147783,"Delta":491608394},{"NoteNumber":74,"Velocity":30,"Duration":601244,"SoundDuration":601244,"Delta":491608394},{"NoteNumber":62,"Velocity":25,"Duration":601244,"SoundDuration":601244,"Delta":491608394},{"NoteNumber":65,"Velocity":25,"Duration":601244,"SoundDuration":601244,"Delta":491608394},{"NoteNumber":77,"Velocity":51,"Duration":147783,"SoundDuration":147783,"Delta":491756177},{"NoteNumber":91,"Velocity":63,"Duration":147783,"SoundDuration":147783,"Delta":491903960},{"NoteNumber":82,"Velocity":53,"Duration":305678,"SoundDuration":305678,"Delta":491903960},{"NoteNumber":89,"Velocity":51,"Duration":157894,"SoundDuration":157894,"Delta":492051744},{"NoteNumber":63,"Velocity":30,"Duration":1756298,"SoundDuration":1756298,"Delta":492209638},{"NoteNumber":48,"Velocity":25,"Duration":1756298,"SoundDuration":1756298,"Delta":492209638},{"NoteNumber":53,"Velocity":25,"Duration":1756298,"SoundDuration":1756298,"Delta":492209638},{"NoteNumber":89,"Velocity":48,"Duration":145630,"SoundDuration":145630,"Delta":492361154},{"NoteNumber":88,"Velocity":49,"Duration":145631,"SoundDuration":145631,"Delta":492506785},{"NoteNumber":87,"Velocity":50,"Duration":145630,"SoundDuration":145630,"Delta":492652416},{"NoteNumber":84,"Velocity":51,"Duration":145630,"SoundDuration":145630,"Delta":492798047},{"NoteNumber":81,"Velocity":51,"Duration":145631,"SoundDuration":145631,"Delta":492943678},{"NoteNumber":78,"Velocity":52,"Duration":145630,"SoundDuration":145630,"Delta":493089309},{"NoteNumber":77,"Velocity":53,"Duration":145630,"SoundDuration":145630,"Delta":493234940},{"NoteNumber":76,"Velocity":57,"Duration":146341,"SoundDuration":146341,"Delta":493380571},{"NoteNumber":75,"Velocity":59,"Duration":146341,"SoundDuration":146341,"Delta":493526912},{"NoteNumber":72,"Velocity":61,"Duration":146341,"SoundDuration":146341,"Delta":493673254},{"NoteNumber":69,"Velocity":63,"Duration":146341,"SoundDuration":146341,"Delta":493819595},{"NoteNumber":70,"Velocity":54,"Duration":292682,"SoundDuration":292682,"Delta":493965937},{"NoteNumber":66,"Velocity":67,"Duration":146341,"SoundDuration":146341,"Delta":493965937},{"NoteNumber":50,"Velocity":25,"Duration":600375,"SoundDuration":600375,"Delta":493965937},{"NoteNumber":62,"Velocity":30,"Duration":600375,"SoundDuration":600375,"Delta":493965937},{"NoteNumber":53,"Velocity":25,"Duration":600375,"SoundDuration":600375,"Delta":493965937},{"NoteNumber":65,"Velocity":51,"Duration":146341,"SoundDuration":146341,"Delta":494112278},{"NoteNumber":79,"Velocity":63,"Duration":153846,"SoundDuration":153846,"Delta":494258620},{"NoteNumber":70,"Velocity":53,"Duration":307692,"SoundDuration":307692,"Delta":494258620},{"NoteNumber":77,"Velocity":51,"Duration":153846,"SoundDuration":153846,"Delta":494412466},{"NoteNumber":77,"Velocity":56,"Duration":156250,"SoundDuration":156250,"Delta":494566312},{"NoteNumber":50,"Velocity":25,"Duration":593142,"SoundDuration":593142,"Delta":494566312},{"NoteNumber":62,"Velocity":30,"Duration":593142,"SoundDuration":593142,"Delta":494566312},{"NoteNumber":82,"Velocity":54,"Duration":145630,"SoundDuration":145630,"Delta":494722562},{"NoteNumber":74,"Velocity":45,"Duration":145630,"SoundDuration":145630,"Delta":494722562},{"NoteNumber":77,"Velocity":49,"Duration":145631,"SoundDuration":145631,"Delta":494868193},{"NoteNumber":86,"Velocity":58,"Duration":145631,"SoundDuration":145631,"Delta":494868193},{"NoteNumber":84,"Velocity":52,"Duration":145630,"SoundDuration":145630,"Delta":495013824},{"NoteNumber":75,"Velocity":44,"Duration":145630,"SoundDuration":145630,"Delta":495013824},{"NoteNumber":74,"Velocity":58,"Duration":145630,"SoundDuration":145630,"Delta":495159455},{"NoteNumber":82,"Velocity":58,"Duration":1180049,"SoundDuration":1180049,"Delta":495159455},{"NoteNumber":55,"Velocity":23,"Duration":594787,"SoundDuration":594787,"Delta":495159455},{"NoteNumber":67,"Velocity":28,"Duration":594787,"SoundDuration":594787,"Delta":495159455},{"NoteNumber":78,"Velocity":50,"Duration":145631,"SoundDuration":145631,"Delta":495305086},{"NoteNumber":79,"Velocity":55,"Duration":145630,"SoundDuration":145630,"Delta":495450717},{"NoteNumber":74,"Velocity":50,"Duration":157894,"SoundDuration":157894,"Delta":495596348},{"NoteNumber":73,"Velocity":54,"Duration":143540,"SoundDuration":143540,"Delta":495754243},{"NoteNumber":52,"Velocity":25,"Duration":585261,"SoundDuration":585261,"Delta":495754243},{"NoteNumber":64,"Velocity":30,"Duration":585261,"SoundDuration":585261,"Delta":495754243},{"NoteNumber":78,"Velocity":58,"Duration":143540,"SoundDuration":143540,"Delta":495897784},{"NoteNumber":79,"Velocity":58,"Duration":143540,"SoundDuration":143540,"Delta":496041324},{"NoteNumber":73,"Velocity":53,"Duration":154639,"SoundDuration":154639,"Delta":496184865},{"NoteNumber":72,"Velocity":56,"Duration":144927,"SoundDuration":144927,"Delta":496339504},{"NoteNumber":81,"Velocity":54,"Duration":289854,"SoundDuration":289854,"Delta":496339504},{"NoteNumber":53,"Velocity":24,"Duration":289854,"SoundDuration":289854,"Delta":496339504},{"NoteNumber":65,"Velocity":29,"Duration":289854,"SoundDuration":289854,"Delta":496339504},{"NoteNumber":77,"Velocity":50,"Duration":144927,"SoundDuration":144927,"Delta":496484432},{"NoteNumber":82,"Velocity":54,"Duration":303657,"SoundDuration":303657,"Delta":496629359},{"NoteNumber":70,"Velocity":60,"Duration":144927,"SoundDuration":144927,"Delta":496629359},{"NoteNumber":54,"Velocity":24,"Duration":303657,"SoundDuration":303657,"Delta":496629359},{"NoteNumber":66,"Velocity":29,"Duration":303657,"SoundDuration":303657,"Delta":496629359},{"NoteNumber":75,"Velocity":50,"Duration":158730,"SoundDuration":158730,"Delta":496774287},{"NoteNumber":82,"Velocity":54,"Duration":156250,"SoundDuration":156250,"Delta":496933017},{"NoteNumber":55,"Velocity":26,"Duration":591032,"SoundDuration":591032,"Delta":496933017},{"NoteNumber":67,"Velocity":31,"Duration":591032,"SoundDuration":591032,"Delta":496933017},{"NoteNumber":87,"Velocity":57,"Duration":144927,"SoundDuration":144927,"Delta":497089267},{"NoteNumber":79,"Velocity":47,"Duration":144927,"SoundDuration":144927,"Delta":497089267},{"NoteNumber":82,"Velocity":52,"Duration":144927,"SoundDuration":144927,"Delta":497234195},{"NoteNumber":91,"Velocity":62,"Duration":144927,"SoundDuration":144927,"Delta":497234195},{"NoteNumber":89,"Velocity":56,"Duration":144927,"SoundDuration":144927,"Delta":497379122},{"NoteNumber":80,"Velocity":47,"Duration":144927,"SoundDuration":144927,"Delta":497379122},{"NoteNumber":87,"Velocity":63,"Duration":1186341,"SoundDuration":1186341,"Delta":497524050},{"NoteNumber":79,"Velocity":63,"Duration":146341,"SoundDuration":146341,"Delta":497524050},{"NoteNumber":60,"Velocity":25,"Duration":596919,"SoundDuration":596919,"Delta":497524050},{"NoteNumber":72,"Velocity":30,"Duration":596919,"SoundDuration":596919,"Delta":497524050},{"NoteNumber":83,"Velocity":55,"Duration":146341,"SoundDuration":146341,"Delta":497670391},{"NoteNumber":84,"Velocity":61,"Duration":146341,"SoundDuration":146341,"Delta":497816733},{"NoteNumber":79,"Velocity":56,"Duration":157894,"SoundDuration":157894,"Delta":497963074},{"NoteNumber":78,"Velocity":61,"Duration":144927,"SoundDuration":144927,"Delta":498120969},{"NoteNumber":57,"Velocity":28,"Duration":589421,"SoundDuration":589421,"Delta":498120969},{"NoteNumber":69,"Velocity":33,"Duration":589421,"SoundDuration":589421,"Delta":498120969},{"NoteNumber":83,"Velocity":64,"Duration":144927,"SoundDuration":144927,"Delta":498265896},{"NoteNumber":84,"Velocity":66,"Duration":144927,"SoundDuration":144927,"Delta":498410824},{"NoteNumber":78,"Velocity":62,"Duration":154639,"SoundDuration":154639,"Delta":498555751},{"NoteNumber":77,"Velocity":66,"Duration":145630,"SoundDuration":145630,"Delta":498710391},{"NoteNumber":86,"Velocity":63,"Duration":291262,"SoundDuration":291262,"Delta":498710391},{"NoteNumber":58,"Velocity":28,"Duration":291262,"SoundDuration":291262,"Delta":498710391},{"NoteNumber":70,"Velocity":34,"Duration":291262,"SoundDuration":291262,"Delta":498710391},{"NoteNumber":82,"Velocity":59,"Duration":145631,"SoundDuration":145631,"Delta":498856022},{"NoteNumber":75,"Velocity":66,"Duration":145630,"SoundDuration":145630,"Delta":499001653},{"NoteNumber":87,"Velocity":64,"Duration":304361,"SoundDuration":304361,"Delta":499001653},{"NoteNumber":59,"Velocity":28,"Duration":304361,"SoundDuration":304361,"Delta":499001653},{"NoteNumber":71,"Velocity":34,"Duration":304361,"SoundDuration":304361,"Delta":499001653},{"NoteNumber":80,"Velocity":60,"Duration":158730,"SoundDuration":158730,"Delta":499147284},{"NoteNumber":87,"Velocity":63,"Duration":301177,"SoundDuration":301177,"Delta":499306014},{"NoteNumber":60,"Velocity":30,"Duration":591032,"SoundDuration":591032,"Delta":499306014},{"NoteNumber":72,"Velocity":36,"Duration":591032,"SoundDuration":591032,"Delta":499306014},{"NoteNumber":84,"Velocity":55,"Duration":144927,"SoundDuration":144927,"Delta":499462264},{"NoteNumber":87,"Velocity":60,"Duration":144927,"SoundDuration":144927,"Delta":499607191},{"NoteNumber":92,"Velocity":71,"Duration":289854,"SoundDuration":289854,"Delta":499607191},{"NoteNumber":85,"Velocity":55,"Duration":144927,"SoundDuration":144927,"Delta":499752119},{"NoteNumber":85,"Velocity":68,"Duration":146341,"SoundDuration":146341,"Delta":499897046},{"NoteNumber":92,"Velocity":73,"Duration":1184250,"SoundDuration":1184250,"Delta":499897046},{"NoteNumber":64,"Velocity":29,"Duration":596919,"SoundDuration":596919,"Delta":499897046},{"NoteNumber":76,"Velocity":35,"Duration":596919,"SoundDuration":596919,"Delta":499897046},{"NoteNumber":83,"Velocity":63,"Duration":146341,"SoundDuration":146341,"Delta":500043388},{"NoteNumber":82,"Velocity":70,"Duration":146341,"SoundDuration":146341,"Delta":500189729},{"NoteNumber":83,"Velocity":65,"Duration":157894,"SoundDuration":157894,"Delta":500336071},{"NoteNumber":83,"Velocity":70,"Duration":144230,"SoundDuration":144230,"Delta":500493966},{"NoteNumber":62,"Velocity":34,"Duration":587331,"SoundDuration":587331,"Delta":500493966},{"NoteNumber":74,"Velocity":39,"Duration":587331,"SoundDuration":587331,"Delta":500493966},{"NoteNumber":88,"Velocity":73,"Duration":144230,"SoundDuration":144230,"Delta":500638196},{"NoteNumber":89,"Velocity":77,"Duration":144230,"SoundDuration":144230,"Delta":500782427},{"NoteNumber":83,"Velocity":71,"Duration":154639,"SoundDuration":154639,"Delta":500926658},{"NoteNumber":91,"Velocity":78,"Duration":913083,"SoundDuration":913083,"Delta":501081297},{"NoteNumber":82,"Velocity":75,"Duration":145630,"SoundDuration":145630,"Delta":501081297},{"NoteNumber":63,"Velocity":39,"Duration":913083,"SoundDuration":913083,"Delta":501081297},{"NoteNumber":75,"Velocity":39,"Duration":913083,"SoundDuration":913083,"Delta":501081297},{"NoteNumber":86,"Velocity":68,"Duration":145631,"SoundDuration":145631,"Delta":501226928},{"NoteNumber":87,"Velocity":82,"Duration":145630,"SoundDuration":145630,"Delta":501372559},{"NoteNumber":82,"Velocity":69,"Duration":158730,"SoundDuration":158730,"Delta":501518190},{"NoteNumber":79,"Velocity":83,"Duration":317460,"SoundDuration":317460,"Delta":501676920},{"NoteNumber":91,"Velocity":93,"Duration":292683,"SoundDuration":292683,"Delta":501994381},{"NoteNumber":87,"Velocity":79,"Duration":292683,"SoundDuration":292683,"Delta":501994381},{"NoteNumber":79,"Velocity":79,"Duration":292683,"SoundDuration":292683,"Delta":501994381},{"NoteNumber":82,"Velocity":79,"Duration":292683,"SoundDuration":292683,"Delta":501994381},{"NoteNumber":39,"Velocity":56,"Duration":292683,"SoundDuration":292683,"Delta":501994381},{"NoteNumber":51,"Velocity":66,"Duration":292683,"SoundDuration":292683,"Delta":501994381},{"NoteNumber":86,"Velocity":74,"Duration":307692,"SoundDuration":307692,"Delta":502287064},{"NoteNumber":89,"Velocity":88,"Duration":307692,"SoundDuration":307692,"Delta":502287064},{"NoteNumber":91,"Velocity":86,"Duration":148514,"SoundDuration":148514,"Delta":502594756},{"NoteNumber":87,"Velocity":74,"Duration":148514,"SoundDuration":148514,"Delta":502594756},{"NoteNumber":89,"Velocity":78,"Duration":148514,"SoundDuration":148514,"Delta":502743271},{"NoteNumber":92,"Velocity":92,"Duration":148514,"SoundDuration":148514,"Delta":502743271},{"NoteNumber":94,"Velocity":96,"Duration":148514,"SoundDuration":148514,"Delta":502891786},{"NoteNumber":91,"Velocity":81,"Duration":148514,"SoundDuration":148514,"Delta":502891786},{"NoteNumber":91,"Velocity":91,"Duration":148514,"SoundDuration":148514,"Delta":503188815},{"NoteNumber":87,"Velocity":77,"Duration":148514,"SoundDuration":148514,"Delta":503188815},{"NoteNumber":67,"Velocity":82,"Duration":148514,"SoundDuration":148514,"Delta":503188815},{"NoteNumber":63,"Velocity":69,"Duration":148514,"SoundDuration":148514,"Delta":503188815},{"NoteNumber":62,"Velocity":67,"Duration":297029,"SoundDuration":297029,"Delta":503485845},{"NoteNumber":65,"Velocity":79,"Duration":297029,"SoundDuration":297029,"Delta":503485845},{"NoteNumber":63,"Velocity":68,"Duration":148514,"SoundDuration":148514,"Delta":503782874},{"NoteNumber":67,"Velocity":81,"Duration":148514,"SoundDuration":148514,"Delta":503782874},{"NoteNumber":68,"Velocity":84,"Duration":148514,"SoundDuration":148514,"Delta":503931389},{"NoteNumber":65,"Velocity":71,"Duration":148514,"SoundDuration":148514,"Delta":503931389},{"NoteNumber":70,"Velocity":88,"Duration":148514,"SoundDuration":148514,"Delta":504079904},{"NoteNumber":67,"Velocity":74,"Duration":148514,"SoundDuration":148514,"Delta":504079904},{"NoteNumber":91,"Velocity":93,"Duration":292683,"SoundDuration":292683,"Delta":504376933},{"NoteNumber":79,"Velocity":79,"Duration":292683,"SoundDuration":292683,"Delta":504376933},{"NoteNumber":82,"Velocity":79,"Duration":292683,"SoundDuration":292683,"Delta":504376933},{"NoteNumber":87,"Velocity":79,"Duration":292683,"SoundDuration":292683,"Delta":504376933},{"NoteNumber":51,"Velocity":66,"Duration":292683,"SoundDuration":292683,"Delta":504376933},{"NoteNumber":39,"Velocity":56,"Duration":292683,"SoundDuration":292683,"Delta":504376933},{"NoteNumber":89,"Velocity":88,"Duration":307692,"SoundDuration":307692,"Delta":504669616},{"NoteNumber":86,"Velocity":74,"Duration":307692,"SoundDuration":307692,"Delta":504669616},{"NoteNumber":87,"Velocity":74,"Duration":148514,"SoundDuration":148514,"Delta":504977309},{"NoteNumber":91,"Velocity":86,"Duration":148514,"SoundDuration":148514,"Delta":504977309},{"NoteNumber":89,"Velocity":78,"Duration":148514,"SoundDuration":148514,"Delta":505125824},{"NoteNumber":92,"Velocity":92,"Duration":148514,"SoundDuration":148514,"Delta":505125824},{"NoteNumber":91,"Velocity":81,"Duration":148514,"SoundDuration":148514,"Delta":505274338},{"NoteNumber":94,"Velocity":96,"Duration":148514,"SoundDuration":148514,"Delta":505274338},{"NoteNumber":79,"Velocity":86,"Duration":297029,"SoundDuration":297029,"Delta":505571368},{"NoteNumber":70,"Velocity":86,"Duration":297029,"SoundDuration":297029,"Delta":505571368},{"NoteNumber":72,"Velocity":86,"Duration":297029,"SoundDuration":297029,"Delta":505571368},{"NoteNumber":82,"Velocity":103,"Duration":297029,"SoundDuration":297029,"Delta":505571368},{"NoteNumber":40,"Velocity":62,"Duration":297029,"SoundDuration":297029,"Delta":505571368},{"NoteNumber":52,"Velocity":74,"Duration":297029,"SoundDuration":297029,"Delta":505571368},{"NoteNumber":76,"Velocity":86,"Duration":297029,"SoundDuration":297029,"Delta":506165427},{"NoteNumber":70,"Velocity":86,"Duration":297029,"SoundDuration":297029,"Delta":506165427},{"NoteNumber":79,"Velocity":86,"Duration":297029,"SoundDuration":297029,"Delta":506165427},{"NoteNumber":82,"Velocity":103,"Duration":297029,"SoundDuration":297029,"Delta":506165427},{"NoteNumber":48,"Velocity":79,"Duration":297029,"SoundDuration":297029,"Delta":506165427},{"NoteNumber":36,"Velocity":67,"Duration":297029,"SoundDuration":297029,"Delta":506165427},{"NoteNumber":82,"Velocity":103,"Duration":297029,"SoundDuration":297029,"Delta":506759486},{"NoteNumber":74,"Velocity":86,"Duration":297029,"SoundDuration":297029,"Delta":506759486},{"NoteNumber":77,"Velocity":86,"Duration":297029,"SoundDuration":297029,"Delta":506759486},{"NoteNumber":70,"Velocity":86,"Duration":297029,"SoundDuration":297029,"Delta":506759486},{"NoteNumber":53,"Velocity":74,"Duration":297029,"SoundDuration":297029,"Delta":506759486},{"NoteNumber":41,"Velocity":62,"Duration":297029,"SoundDuration":297029,"Delta":506759486},{"NoteNumber":72,"Velocity":79,"Duration":297029,"SoundDuration":297029,"Delta":507353545},{"NoteNumber":82,"Velocity":94,"Duration":297029,"SoundDuration":297029,"Delta":507353545},{"NoteNumber":70,"Velocity":79,"Duration":297029,"SoundDuration":297029,"Delta":507353545},{"NoteNumber":76,"Velocity":79,"Duration":297029,"SoundDuration":297029,"Delta":507353545},{"NoteNumber":55,"Velocity":72,"Duration":297029,"SoundDuration":297029,"Delta":507353545},{"NoteNumber":43,"Velocity":61,"Duration":297029,"SoundDuration":297029,"Delta":507353545},{"NoteNumber":74,"Velocity":65,"Duration":559185,"SoundDuration":559185,"Delta":507650574},{"NoteNumber":82,"Velocity":77,"Duration":559185,"SoundDuration":559185,"Delta":507650574},{"NoteNumber":70,"Velocity":65,"Duration":559185,"SoundDuration":559185,"Delta":507650574},{"NoteNumber":77,"Velocity":65,"Duration":559185,"SoundDuration":559185,"Delta":507650574},{"NoteNumber":41,"Velocity":50,"Duration":146341,"SoundDuration":146341,"Delta":507650574},{"NoteNumber":45,"Velocity":50,"Duration":137614,"SoundDuration":137614,"Delta":507796916},{"NoteNumber":46,"Velocity":50,"Duration":137614,"SoundDuration":137614,"Delta":507934531},{"NoteNumber":50,"Velocity":50,"Duration":137614,"SoundDuration":137614,"Delta":508072145},{"NoteNumber":77,"Velocity":64,"Duration":825688,"SoundDuration":825688,"Delta":508209760},{"NoteNumber":74,"Velocity":54,"Duration":825688,"SoundDuration":825688,"Delta":508209760},{"NoteNumber":53,"Velocity":50,"Duration":137614,"SoundDuration":137614,"Delta":508209760},{"NoteNumber":57,"Velocity":50,"Duration":137614,"SoundDuration":137614,"Delta":508347375},{"NoteNumber":58,"Velocity":50,"Duration":137614,"SoundDuration":137614,"Delta":508484990},{"NoteNumber":62,"Velocity":50,"Duration":137614,"SoundDuration":137614,"Delta":508622604},{"NoteNumber":65,"Velocity":50,"Duration":137614,"SoundDuration":137614,"Delta":508760219},{"NoteNumber":69,"Velocity":50,"Duration":137614,"SoundDuration":137614,"Delta":508897834},{"NoteNumber":74,"Velocity":63,"Duration":135321,"SoundDuration":135321,"Delta":509035449},{"NoteNumber":70,"Velocity":50,"Duration":137614,"SoundDuration":137614,"Delta":509035449},{"NoteNumber":74,"Velocity":50,"Duration":137614,"SoundDuration":137614,"Delta":509173063},{"NoteNumber":77,"Velocity":56,"Duration":137614,"SoundDuration":137614,"Delta":509310678},{"NoteNumber":81,"Velocity":57,"Duration":137614,"SoundDuration":137614,"Delta":509448293},{"NoteNumber":82,"Velocity":58,"Duration":137614,"SoundDuration":137614,"Delta":509585908},{"NoteNumber":70,"Velocity":43,"Duration":137614,"SoundDuration":137614,"Delta":509585908},{"NoteNumber":86,"Velocity":59,"Duration":137614,"SoundDuration":137614,"Delta":509723522},{"NoteNumber":74,"Velocity":44,"Duration":137614,"SoundDuration":137614,"Delta":509723522},{"NoteNumber":88,"Velocity":60,"Duration":137614,"SoundDuration":137614,"Delta":509861137},{"NoteNumber":76,"Velocity":45,"Duration":137614,"SoundDuration":137614,"Delta":509861137},{"NoteNumber":89,"Velocity":61,"Duration":137614,"SoundDuration":137614,"Delta":509998752},{"NoteNumber":77,"Velocity":46,"Duration":137614,"SoundDuration":137614,"Delta":509998752},{"NoteNumber":91,"Velocity":62,"Duration":137614,"SoundDuration":137614,"Delta":510136367},{"NoteNumber":79,"Velocity":47,"Duration":137614,"SoundDuration":137614,"Delta":510136367},{"NoteNumber":89,"Velocity":62,"Duration":137614,"SoundDuration":137614,"Delta":510273981},{"NoteNumber":77,"Velocity":48,"Duration":137614,"SoundDuration":137614,"Delta":510273981},{"NoteNumber":93,"Velocity":63,"Duration":137614,"SoundDuration":137614,"Delta":510411596},{"NoteNumber":81,"Velocity":50,"Duration":137614,"SoundDuration":137614,"Delta":510411596},{"NoteNumber":94,"Velocity":64,"Duration":137614,"SoundDuration":137614,"Delta":510549211},{"NoteNumber":82,"Velocity":51,"Duration":137614,"SoundDuration":137614,"Delta":510549211},{"NoteNumber":96,"Velocity":65,"Duration":137614,"SoundDuration":137614,"Delta":510686826},{"NoteNumber":84,"Velocity":52,"Duration":137614,"SoundDuration":137614,"Delta":510686826},{"NoteNumber":94,"Velocity":66,"Duration":137815,"SoundDuration":137815,"Delta":510824440},{"NoteNumber":82,"Velocity":53,"Duration":137815,"SoundDuration":137815,"Delta":510824440},{"NoteNumber":97,"Velocity":67,"Duration":140033,"SoundDuration":140033,"Delta":510962256},{"NoteNumber":85,"Velocity":54,"Duration":140033,"SoundDuration":140033,"Delta":510962256},{"NoteNumber":98,"Velocity":68,"Duration":142920,"SoundDuration":142920,"Delta":511102289},{"NoteNumber":86,"Velocity":55,"Duration":142920,"SoundDuration":142920,"Delta":511102289},{"NoteNumber":99,"Velocity":69,"Duration":145919,"SoundDuration":145919,"Delta":511245209},{"NoteNumber":87,"Velocity":56,"Duration":145919,"SoundDuration":145919,"Delta":511245209},{"NoteNumber":98,"Velocity":70,"Duration":148695,"SoundDuration":148695,"Delta":511391129},{"NoteNumber":86,"Velocity":58,"Duration":148695,"SoundDuration":148695,"Delta":511391129},{"NoteNumber":101,"Velocity":71,"Duration":298507,"SoundDuration":298507,"Delta":511539824},{"NoteNumber":89,"Velocity":59,"Duration":298507,"SoundDuration":298507,"Delta":511539824},{"NoteNumber":75,"Velocity":70,"Duration":347694,"SoundDuration":347694,"Delta":511838332},{"NoteNumber":72,"Velocity":59,"Duration":347694,"SoundDuration":347694,"Delta":511838332},{"NoteNumber":65,"Velocity":60,"Duration":105820,"SoundDuration":105820,"Delta":511838332},{"NoteNumber":67,"Velocity":63,"Duration":105820,"SoundDuration":105820,"Delta":511944152},{"NoteNumber":69,"Velocity":66,"Duration":136054,"SoundDuration":136054,"Delta":512049972},{"NoteNumber":74,"Velocity":58,"Duration":1161244,"SoundDuration":1161244,"Delta":512186027},{"NoteNumber":58,"Velocity":40,"Duration":200000,"SoundDuration":200000,"Delta":512186027},{"NoteNumber":70,"Velocity":32,"Duration":195693,"SoundDuration":195693,"Delta":512386027},{"NoteNumber":69,"Velocity":32,"Duration":191387,"SoundDuration":191387,"Delta":512581720},{"NoteNumber":86,"Velocity":59,"Duration":574162,"SoundDuration":574162,"Delta":512773108},{"NoteNumber":70,"Velocity":40,"Duration":191387,"SoundDuration":191387,"Delta":512773108},{"NoteNumber":69,"Velocity":33,"Duration":191387,"SoundDuration":191387,"Delta":512964496},{"NoteNumber":70,"Velocity":33,"Duration":191387,"SoundDuration":191387,"Delta":513155883},{"NoteNumber":87,"Velocity":57,"Duration":582524,"SoundDuration":582524,"Delta":513347271},{"NoteNumber":75,"Velocity":48,"Duration":582524,"SoundDuration":582524,"Delta":513347271},{"NoteNumber":66,"Velocity":40,"Duration":194174,"SoundDuration":194174,"Delta":513347271},{"NoteNumber":70,"Velocity":31,"Duration":194174,"SoundDuration":194174,"Delta":513541446},{"NoteNumber":66,"Velocity":31,"Duration":194174,"SoundDuration":194174,"Delta":513735620},{"NoteNumber":90,"Velocity":61,"Duration":589673,"SoundDuration":589673,"Delta":513929795},{"NoteNumber":78,"Velocity":51,"Duration":589673,"SoundDuration":589673,"Delta":513929795},{"NoteNumber":70,"Velocity":40,"Duration":189573,"SoundDuration":189573,"Delta":513929795},{"NoteNumber":63,"Velocity":33,"Duration":189573,"SoundDuration":189573,"Delta":514119368},{"NoteNumber":70,"Velocity":33,"Duration":210526,"SoundDuration":210526,"Delta":514308942},{"NoteNumber":82,"Velocity":62,"Duration":1147478,"SoundDuration":1147478,"Delta":514519468},{"NoteNumber":62,"Velocity":40,"Duration":188679,"SoundDuration":188679,"Delta":514519468},{"NoteNumber":70,"Velocity":31,"Duration":188679,"SoundDuration":188679,"Delta":514708147},{"NoteNumber":65,"Velocity":31,"Duration":188679,"SoundDuration":188679,"Delta":514896827},{"NoteNumber":77,"Velocity":57,"Duration":581440,"SoundDuration":581440,"Delta":515085506},{"NoteNumber":74,"Velocity":51,"Duration":581440,"SoundDuration":581440,"Delta":515085506},{"NoteNumber":58,"Velocity":40,"Duration":188679,"SoundDuration":188679,"Delta":515085506},{"NoteNumber":70,"Velocity":32,"Duration":188679,"SoundDuration":188679,"Delta":515274185},{"NoteNumber":65,"Velocity":32,"Duration":204081,"SoundDuration":204081,"Delta":515462865},{"NoteNumber":78,"Velocity":59,"Duration":566038,"SoundDuration":566038,"Delta":515666946},{"NoteNumber":63,"Velocity":40,"Duration":188679,"SoundDuration":188679,"Delta":515666946},{"NoteNumber":70,"Velocity":33,"Duration":188679,"SoundDuration":188679,"Delta":515855626},{"NoteNumber":90,"Velocity":60,"Duration":283019,"SoundDuration":283019,"Delta":515949965},{"NoteNumber":63,"Velocity":33,"Duration":188679,"SoundDuration":188679,"Delta":516044305},{"NoteNumber":87,"Velocity":63,"Duration":581440,"SoundDuration":581440,"Delta":516232984},{"NoteNumber":75,"Velocity":53,"Duration":581440,"SoundDuration":581440,"Delta":516232984},{"NoteNumber":66,"Velocity":40,"Duration":188679,"SoundDuration":188679,"Delta":516232984},{"NoteNumber":70,"Velocity":32,"Duration":188679,"SoundDuration":188679,"Delta":516421664},{"NoteNumber":66,"Velocity":32,"Duration":204081,"SoundDuration":204081,"Delta":516610343},{"NoteNumber":73,"Velocity":56,"Duration":566038,"SoundDuration":566038,"Delta":516814425},{"NoteNumber":85,"Velocity":66,"Duration":566038,"SoundDuration":566038,"Delta":516814425},{"NoteNumber":65,"Velocity":40,"Duration":188679,"SoundDuration":188679,"Delta":516814425},{"NoteNumber":70,"Velocity":32,"Duration":188679,"SoundDuration":188679,"Delta":517003104},{"NoteNumber":65,"Velocity":32,"Duration":188679,"SoundDuration":188679,"Delta":517191783},{"NoteNumber":86,"Velocity":59,"Duration":580404,"SoundDuration":580404,"Delta":517380463},{"NoteNumber":74,"Velocity":56,"Duration":580404,"SoundDuration":580404,"Delta":517380463},{"NoteNumber":71,"Velocity":40,"Duration":188679,"SoundDuration":188679,"Delta":517380463},{"NoteNumber":65,"Velocity":36,"Duration":188679,"SoundDuration":188679,"Delta":517569142},{"NoteNumber":71,"Velocity":36,"Duration":203045,"SoundDuration":203045,"Delta":517757821},{"NoteNumber":77,"Velocity":54,"Duration":563380,"SoundDuration":563380,"Delta":517960867},{"NoteNumber":89,"Velocity":64,"Duration":563380,"SoundDuration":563380,"Delta":517960867},{"NoteNumber":65,"Velocity":40,"Duration":187793,"SoundDuration":187793,"Delta":517960867},{"NoteNumber":72,"Velocity":33,"Duration":187793,"SoundDuration":187793,"Delta":518148660},{"NoteNumber":69,"Velocity":33,"Duration":187793,"SoundDuration":187793,"Delta":518336454},{"NoteNumber":87,"Velocity":63,"Duration":435317,"SoundDuration":435317,"Delta":518524247},{"NoteNumber":75,"Velocity":53,"Duration":435317,"SoundDuration":435317,"Delta":518524247},{"NoteNumber":53,"Velocity":40,"Duration":187793,"SoundDuration":187793,"Delta":518524247},{"NoteNumber":60,"Velocity":34,"Duration":198019,"SoundDuration":198019,"Delta":518712040},{"NoteNumber":57,"Velocity":34,"Duration":198133,"SoundDuration":198133,"Delta":518910060},{"NoteNumber":72,"Velocity":48,"Duration":148628,"SoundDuration":148628,"Delta":518959565},{"NoteNumber":84,"Velocity":57,"Duration":148628,"SoundDuration":148628,"Delta":518959565},{"NoteNumber":86,"Velocity":58,"Duration":1173518,"SoundDuration":1173518,"Delta":519108193},{"NoteNumber":82,"Velocity":49,"Duration":108579,"SoundDuration":108579,"Delta":519108193},{"NoteNumber":77,"Velocity":49,"Duration":1173518,"SoundDuration":1173518,"Delta":519108193},{"NoteNumber":46,"Velocity":40,"Duration":160414,"SoundDuration":160414,"Delta":519108193},{"NoteNumber":84,"Velocity":42,"Duration":105447,"SoundDuration":105447,"Delta":519216773},{"NoteNumber":58,"Velocity":33,"Duration":154645,"SoundDuration":154645,"Delta":519268608},{"NoteNumber":82,"Velocity":49,"Duration":103559,"SoundDuration":103559,"Delta":519322220},{"NoteNumber":62,"Velocity":33,"Duration":147818,"SoundDuration":147818,"Delta":519423254},{"NoteNumber":84,"Velocity":44,"Duration":100415,"SoundDuration":100415,"Delta":519424517},{"NoteNumber":82,"Velocity":49,"Duration":96976,"SoundDuration":96976,"Delta":519524932},{"NoteNumber":58,"Velocity":33,"Duration":144333,"SoundDuration":144333,"Delta":519571072},{"NoteNumber":84,"Velocity":44,"Duration":97068,"SoundDuration":97068,"Delta":519621909},{"NoteNumber":82,"Velocity":50,"Duration":96029,"SoundDuration":96029,"Delta":519715406},{"NoteNumber":53,"Velocity":41,"Duration":142019,"SoundDuration":142019,"Delta":519715406},{"NoteNumber":84,"Velocity":44,"Duration":94339,"SoundDuration":94339,"Delta":519811435},{"NoteNumber":58,"Velocity":35,"Duration":141509,"SoundDuration":141509,"Delta":519857426},{"NoteNumber":82,"Velocity":50,"Duration":95518,"SoundDuration":95518,"Delta":519905775},{"NoteNumber":68,"Velocity":35,"Duration":141509,"SoundDuration":141509,"Delta":519998935},{"NoteNumber":84,"Velocity":46,"Duration":95518,"SoundDuration":95518,"Delta":520000114},{"NoteNumber":82,"Velocity":51,"Duration":94339,"SoundDuration":94339,"Delta":520095633},{"NoteNumber":58,"Velocity":35,"Duration":141267,"SoundDuration":141267,"Delta":520140445},{"NoteNumber":84,"Velocity":45,"Duration":95243,"SoundDuration":95243,"Delta":520189973},{"NoteNumber":75,"Velocity":56,"Duration":558444,"SoundDuration":558444,"Delta":520281712},{"NoteNumber":82,"Velocity":51,"Duration":94626,"SoundDuration":94626,"Delta":520281712},{"NoteNumber":87,"Velocity":67,"Duration":558444,"SoundDuration":558444,"Delta":520281712},{"NoteNumber":55,"Velocity":42,"Duration":140186,"SoundDuration":140186,"Delta":520281712},{"NoteNumber":84,"Velocity":44,"Duration":93457,"SoundDuration":93457,"Delta":520376338},{"NoteNumber":58,"Velocity":36,"Duration":139806,"SoundDuration":139806,"Delta":520421899},{"NoteNumber":82,"Velocity":52,"Duration":94235,"SoundDuration":94235,"Delta":520469796},{"NoteNumber":70,"Velocity":36,"Duration":139443,"SoundDuration":139443,"Delta":520561705},{"NoteNumber":84,"Velocity":47,"Duration":94186,"SoundDuration":94186,"Delta":520562868},{"NoteNumber":82,"Velocity":52,"Duration":92705,"SoundDuration":92705,"Delta":520657054},{"NoteNumber":58,"Velocity":37,"Duration":139007,"SoundDuration":139007,"Delta":520701149},{"NoteNumber":84,"Velocity":47,"Duration":93884,"SoundDuration":93884,"Delta":520749760},{"NoteNumber":79,"Velocity":62,"Duration":586452,"SoundDuration":586452,"Delta":520840156},{"NoteNumber":82,"Velocity":53,"Duration":94430,"SoundDuration":94430,"Delta":520840156},{"NoteNumber":91,"Velocity":73,"Duration":586452,"SoundDuration":586452,"Delta":520840156},{"NoteNumber":51,"Velocity":44,"Duration":140035,"SoundDuration":140035,"Delta":520840156},{"NoteNumber":84,"Velocity":47,"Duration":93726,"SoundDuration":93726,"Delta":520934587},{"NoteNumber":58,"Velocity":37,"Duration":141299,"SoundDuration":141299,"Delta":520980192},{"NoteNumber":82,"Velocity":54,"Duration":95547,"SoundDuration":95547,"Delta":521028314},{"NoteNumber":67,"Velocity":37,"Duration":147615,"SoundDuration":147615,"Delta":521121491},{"NoteNumber":84,"Velocity":48,"Duration":96430,"SoundDuration":96430,"Delta":521122676},{"NoteNumber":82,"Velocity":54,"Duration":105263,"SoundDuration":105263,"Delta":521219107},{"NoteNumber":58,"Velocity":38,"Duration":157501,"SoundDuration":157501,"Delta":521269107},{"NoteNumber":84,"Velocity":48,"Duration":105793,"SoundDuration":105793,"Delta":521324370},{"NoteNumber":82,"Velocity":55,"Duration":95971,"SoundDuration":95971,"Delta":521426609},{"NoteNumber":94,"Velocity":85,"Duration":1139767,"SoundDuration":1139767,"Delta":521426609},{"NoteNumber":50,"Velocity":45,"Duration":142135,"SoundDuration":142135,"Delta":521426609},{"NoteNumber":84,"Velocity":47,"Duration":94512,"SoundDuration":94512,"Delta":521522580},{"NoteNumber":58,"Velocity":37,"Duration":141332,"SoundDuration":141332,"Delta":521568744},{"NoteNumber":82,"Velocity":55,"Duration":95330,"SoundDuration":95330,"Delta":521617093},{"NoteNumber":65,"Velocity":37,"Duration":140537,"SoundDuration":140537,"Delta":521710076},{"NoteNumber":84,"Velocity":50,"Duration":94971,"SoundDuration":94971,"Delta":521711250},{"NoteNumber":82,"Velocity":56,"Duration":93447,"SoundDuration":93447,"Delta":521806222},{"NoteNumber":58,"Velocity":37,"Duration":139752,"SoundDuration":139752,"Delta":521850614},{"NoteNumber":84,"Velocity":51,"Duration":94186,"SoundDuration":94186,"Delta":521899669},{"NoteNumber":82,"Velocity":56,"Duration":94186,"SoundDuration":94186,"Delta":521990367},{"NoteNumber":46,"Velocity":46,"Duration":139535,"SoundDuration":139535,"Delta":521990367},{"NoteNumber":84,"Velocity":50,"Duration":93180,"SoundDuration":93180,"Delta":522084553},{"NoteNumber":58,"Velocity":39,"Duration":140297,"SoundDuration":140297,"Delta":522129902},{"NoteNumber":82,"Velocity":57,"Duration":94812,"SoundDuration":94812,"Delta":522177734},{"NoteNumber":62,"Velocity":40,"Duration":145110,"SoundDuration":145110,"Delta":522270199},{"NoteNumber":84,"Velocity":51,"Duration":95467,"SoundDuration":95467,"Delta":522271373},{"NoteNumber":82,"Velocity":57,"Duration":102040,"SoundDuration":102040,"Delta":522366841},{"NoteNumber":58,"Velocity":40,"Duration":151066,"SoundDuration":151066,"Delta":522415310},{"NoteNumber":84,"Velocity":51,"Duration":101049,"SoundDuration":101049,"Delta":522468881},{"NoteNumber":79,"Velocity":61,"Duration":563355,"SoundDuration":563355,"Delta":522566376},{"NoteNumber":82,"Velocity":58,"Duration":95971,"SoundDuration":95971,"Delta":522566376},{"NoteNumber":91,"Velocity":72,"Duration":563355,"SoundDuration":563355,"Delta":522566376},{"NoteNumber":51,"Velocity":48,"Duration":142029,"SoundDuration":142029,"Delta":522566376},{"NoteNumber":84,"Velocity":50,"Duration":94406,"SoundDuration":94406,"Delta":522662348},{"NoteNumber":58,"Velocity":42,"Duration":141227,"SoundDuration":141227,"Delta":522708405},{"NoteNumber":82,"Velocity":59,"Duration":95225,"SoundDuration":95225,"Delta":522756754},{"NoteNumber":67,"Velocity":42,"Duration":140341,"SoundDuration":140341,"Delta":522849633},{"NoteNumber":84,"Velocity":53,"Duration":94867,"SoundDuration":94867,"Delta":522850806},{"NoteNumber":82,"Velocity":59,"Duration":93137,"SoundDuration":93137,"Delta":522945674},{"NoteNumber":58,"Velocity":42,"Duration":139757,"SoundDuration":139757,"Delta":522989974},{"NoteNumber":84,"Velocity":53,"Duration":94425,"SoundDuration":94425,"Delta":523038811},{"NoteNumber":75,"Velocity":65,"Duration":581335,"SoundDuration":581335,"Delta":523129732},{"NoteNumber":87,"Velocity":77,"Duration":581335,"SoundDuration":581335,"Delta":523129732},{"NoteNumber":82,"Velocity":60,"Duration":94872,"SoundDuration":94872,"Delta":523129732},{"NoteNumber":55,"Velocity":51,"Duration":140647,"SoundDuration":140647,"Delta":523129732},{"NoteNumber":84,"Velocity":52,"Duration":94057,"SoundDuration":94057,"Delta":523224605},{"NoteNumber":58,"Velocity":43,"Duration":141621,"SoundDuration":141621,"Delta":523270379},{"NoteNumber":82,"Velocity":60,"Duration":95708,"SoundDuration":95708,"Delta":523318662},{"NoteNumber":70,"Velocity":43,"Duration":146004,"SoundDuration":146004,"Delta":523412001},{"NoteNumber":84,"Velocity":55,"Duration":96350,"SoundDuration":96350,"Delta":523413186},{"NoteNumber":82,"Velocity":61,"Duration":102040,"SoundDuration":102040,"Delta":523509536},{"NoteNumber":58,"Velocity":43,"Duration":153061,"SoundDuration":153061,"Delta":523558006},{"NoteNumber":84,"Velocity":54,"Duration":103027,"SoundDuration":103027,"Delta":523611577},{"NoteNumber":82,"Velocity":61,"Duration":96024,"SoundDuration":96024,"Delta":523711067},{"NoteNumber":73,"Velocity":65,"Duration":285242,"SoundDuration":285242,"Delta":523711067},{"NoteNumber":85,"Velocity":83,"Duration":285242,"SoundDuration":285242,"Delta":523711067},{"NoteNumber":53,"Velocity":50,"Duration":142452,"SoundDuration":142452,"Delta":523711067},{"NoteNumber":84,"Velocity":53,"Duration":95238,"SoundDuration":95238,"Delta":523807091},{"NoteNumber":58,"Velocity":44,"Duration":142789,"SoundDuration":142789,"Delta":523853520},{"NoteNumber":82,"Velocity":62,"Duration":96349,"SoundDuration":96349,"Delta":523902329},{"NoteNumber":86,"Velocity":75,"Duration":565873,"SoundDuration":565873,"Delta":523996309},{"NoteNumber":74,"Velocity":65,"Duration":565873,"SoundDuration":565873,"Delta":523996309},{"NoteNumber":57,"Velocity":48,"Duration":142179,"SoundDuration":142179,"Delta":523996309},{"NoteNumber":84,"Velocity":56,"Duration":95971,"SoundDuration":95971,"Delta":523997494},{"NoteNumber":82,"Velocity":62,"Duration":94786,"SoundDuration":94786,"Delta":524093466},{"NoteNumber":58,"Velocity":51,"Duration":141844,"SoundDuration":141844,"Delta":524138489},{"NoteNumber":84,"Velocity":56,"Duration":95619,"SoundDuration":95619,"Delta":524188252},{"NoteNumber":82,"Velocity":63,"Duration":95518,"SoundDuration":95518,"Delta":524280334},{"NoteNumber":53,"Velocity":54,"Duration":141211,"SoundDuration":141211,"Delta":524280334},{"NoteNumber":84,"Velocity":55,"Duration":93590,"SoundDuration":93590,"Delta":524375853},{"NoteNumber":50,"Velocity":55,"Duration":140637,"SoundDuration":140637,"Delta":524421546},{"NoteNumber":82,"Velocity":64,"Duration":95098,"SoundDuration":95098,"Delta":524469443},{"NoteNumber":77,"Velocity":74,"Duration":295728,"SoundDuration":295728,"Delta":524562183},{"NoteNumber":89,"Velocity":86,"Duration":295728,"SoundDuration":295728,"Delta":524562183},{"NoteNumber":48,"Velocity":55,"Duration":145296,"SoundDuration":145296,"Delta":524562183},{"NoteNumber":84,"Velocity":57,"Duration":95894,"SoundDuration":95894,"Delta":524563363},{"NoteNumber":82,"Velocity":64,"Duration":101522,"SoundDuration":101522,"Delta":524659257},{"NoteNumber":46,"Velocity":54,"Duration":150431,"SoundDuration":150431,"Delta":524707480},{"NoteNumber":84,"Velocity":56,"Duration":100686,"SoundDuration":100686,"Delta":524760780},{"NoteNumber":89,"Velocity":86,"Duration":702711,"SoundDuration":702711,"Delta":524857912},{"NoteNumber":81,"Velocity":75,"Duration":95971,"SoundDuration":95971,"Delta":524857912},{"NoteNumber":41,"Velocity":54,"Duration":142029,"SoundDuration":142029,"Delta":524857912},{"NoteNumber":82,"Velocity":66,"Duration":94406,"SoundDuration":94406,"Delta":524953883},{"NoteNumber":43,"Velocity":49,"Duration":141227,"SoundDuration":141227,"Delta":524999941},{"NoteNumber":81,"Velocity":75,"Duration":95225,"SoundDuration":95225,"Delta":525048290},{"NoteNumber":45,"Velocity":49,"Duration":140537,"SoundDuration":140537,"Delta":525141168},{"NoteNumber":82,"Velocity":64,"Duration":94971,"SoundDuration":94971,"Delta":525142342},{"NoteNumber":81,"Velocity":75,"Duration":93230,"SoundDuration":93230,"Delta":525237313},{"NoteNumber":46,"Velocity":49,"Duration":139132,"SoundDuration":139132,"Delta":525281706},{"NoteNumber":82,"Velocity":68,"Duration":93782,"SoundDuration":93782,"Delta":525330544},{"NoteNumber":81,"Velocity":78,"Duration":94224,"SoundDuration":94224,"Delta":525420838},{"NoteNumber":48,"Velocity":54,"Duration":139784,"SoundDuration":139784,"Delta":525420838},{"NoteNumber":82,"Velocity":69,"Duration":93512,"SoundDuration":93512,"Delta":525515062},{"NoteNumber":87,"Velocity":86,"Duration":140675,"SoundDuration":140675,"Delta":525560623},{"NoteNumber":50,"Velocity":50,"Duration":140675,"SoundDuration":140675,"Delta":525560623},{"NoteNumber":81,"Velocity":75,"Duration":95070,"SoundDuration":95070,"Delta":525608575},{"NoteNumber":79,"Velocity":79,"Duration":141671,"SoundDuration":141671,"Delta":525701298},{"NoteNumber":84,"Velocity":79,"Duration":141671,"SoundDuration":141671,"Delta":525701298},{"NoteNumber":51,"Velocity":59,"Duration":141671,"SoundDuration":141671,"Delta":525701298},{"NoteNumber":81,"Velocity":79,"Duration":142648,"SoundDuration":142648,"Delta":525842970},{"NoteNumber":89,"Velocity":79,"Duration":142648,"SoundDuration":142648,"Delta":525842970},{"NoteNumber":53,"Velocity":66,"Duration":142648,"SoundDuration":142648,"Delta":525842970},{"NoteNumber":80,"Velocity":87,"Duration":133928,"SoundDuration":133928,"Delta":525985619},{"NoteNumber":77,"Velocity":87,"Duration":133928,"SoundDuration":133928,"Delta":525985619},{"NoteNumber":86,"Velocity":87,"Duration":133928,"SoundDuration":133928,"Delta":525985619},{"NoteNumber":89,"Velocity":103,"Duration":133928,"SoundDuration":133928,"Delta":525985619},{"NoteNumber":34,"Velocity":66,"Duration":133928,"SoundDuration":133928,"Delta":525985619},{"NoteNumber":46,"Velocity":56,"Duration":133928,"SoundDuration":133928,"Delta":526119547},{"NoteNumber":89,"Velocity":79,"Duration":543086,"SoundDuration":543086,"Delta":526253476},{"NoteNumber":92,"Velocity":79,"Duration":543086,"SoundDuration":543086,"Delta":526253476},{"NoteNumber":101,"Velocity":93,"Duration":543086,"SoundDuration":543086,"Delta":526253476},{"NoteNumber":98,"Velocity":79,"Duration":543086,"SoundDuration":543086,"Delta":526253476},{"NoteNumber":34,"Velocity":66,"Duration":133928,"SoundDuration":133928,"Delta":526253476},{"NoteNumber":46,"Velocity":56,"Duration":133928,"SoundDuration":133928,"Delta":526387404},{"NoteNumber":34,"Velocity":66,"Duration":137614,"SoundDuration":137614,"Delta":526521333},{"NoteNumber":46,"Velocity":57,"Duration":137614,"SoundDuration":137614,"Delta":526658947},{"NoteNumber":99,"Velocity":78,"Duration":140186,"SoundDuration":140186,"Delta":526796562},{"NoteNumber":92,"Velocity":66,"Duration":140186,"SoundDuration":140186,"Delta":526796562},{"NoteNumber":87,"Velocity":66,"Duration":140186,"SoundDuration":140186,"Delta":526796562},{"NoteNumber":89,"Velocity":66,"Duration":140186,"SoundDuration":140186,"Delta":526796562},{"NoteNumber":34,"Velocity":66,"Duration":140186,"SoundDuration":140186,"Delta":526796562},{"NoteNumber":46,"Velocity":57,"Duration":140187,"SoundDuration":140187,"Delta":526936749},{"NoteNumber":86,"Velocity":67,"Duration":133333,"SoundDuration":133333,"Delta":527076936},{"NoteNumber":98,"Velocity":79,"Duration":133333,"SoundDuration":133333,"Delta":527076936},{"NoteNumber":89,"Velocity":67,"Duration":133333,"SoundDuration":133333,"Delta":527076936},{"NoteNumber":92,"Velocity":67,"Duration":133333,"SoundDuration":133333,"Delta":527076936},{"NoteNumber":34,"Velocity":66,"Duration":133333,"SoundDuration":133333,"Delta":527076936},{"NoteNumber":46,"Velocity":57,"Duration":133333,"SoundDuration":133333,"Delta":527210269},{"NoteNumber":87,"Velocity":70,"Duration":133333,"SoundDuration":133333,"Delta":527343603},{"NoteNumber":89,"Velocity":70,"Duration":133333,"SoundDuration":133333,"Delta":527343603},{"NoteNumber":99,"Velocity":83,"Duration":133333,"SoundDuration":133333,"Delta":527343603},{"NoteNumber":92,"Velocity":70,"Duration":133333,"SoundDuration":133333,"Delta":527343603},{"NoteNumber":34,"Velocity":66,"Duration":133333,"SoundDuration":133333,"Delta":527343603},{"NoteNumber":46,"Velocity":58,"Duration":133333,"SoundDuration":133333,"Delta":527476936},{"NoteNumber":92,"Velocity":69,"Duration":133333,"SoundDuration":133333,"Delta":527610269},{"NoteNumber":101,"Velocity":82,"Duration":133333,"SoundDuration":133333,"Delta":527610269},{"NoteNumber":89,"Velocity":69,"Duration":133333,"SoundDuration":133333,"Delta":527610269},{"NoteNumber":34,"Velocity":66,"Duration":133333,"SoundDuration":133333,"Delta":527610269},{"NoteNumber":46,"Velocity":59,"Duration":133333,"SoundDuration":133333,"Delta":527743602},{"NoteNumber":98,"Velocity":69,"Duration":140186,"SoundDuration":140186,"Delta":527876936},{"NoteNumber":91,"Velocity":58,"Duration":140186,"SoundDuration":140186,"Delta":527876936},{"NoteNumber":89,"Velocity":58,"Duration":140186,"SoundDuration":140186,"Delta":527876936},{"NoteNumber":86,"Velocity":58,"Duration":140186,"SoundDuration":140186,"Delta":527876936},{"NoteNumber":35,"Velocity":45,"Duration":140186,"SoundDuration":140186,"Delta":527876936},{"NoteNumber":47,"Velocity":34,"Duration":140187,"SoundDuration":140187,"Delta":528017123},{"NoteNumber":87,"Velocity":50,"Duration":132743,"SoundDuration":132743,"Delta":528157310},{"NoteNumber":99,"Velocity":59,"Duration":132743,"SoundDuration":132743,"Delta":528157310},{"NoteNumber":91,"Velocity":50,"Duration":132743,"SoundDuration":132743,"Delta":528157310},{"NoteNumber":36,"Velocity":43,"Duration":132743,"SoundDuration":132743,"Delta":528157310},{"NoteNumber":48,"Velocity":33,"Duration":132743,"SoundDuration":132743,"Delta":528290053},{"NoteNumber":86,"Velocity":45,"Duration":132743,"SoundDuration":132743,"Delta":528422796},{"NoteNumber":98,"Velocity":53,"Duration":132743,"SoundDuration":132743,"Delta":528422796},{"NoteNumber":91,"Velocity":45,"Duration":132743,"SoundDuration":132743,"Delta":528422796},{"NoteNumber":89,"Velocity":45,"Duration":132743,"SoundDuration":132743,"Delta":528422796},{"NoteNumber":35,"Velocity":43,"Duration":132743,"SoundDuration":132743,"Delta":528422796},{"NoteNumber":47,"Velocity":33,"Duration":132743,"SoundDuration":132743,"Delta":528555539},{"NoteNumber":99,"Velocity":59,"Duration":132743,"SoundDuration":132743,"Delta":528688283},{"NoteNumber":87,"Velocity":50,"Duration":132743,"SoundDuration":132743,"Delta":528688283},{"NoteNumber":91,"Velocity":50,"Duration":132743,"SoundDuration":132743,"Delta":528688283},{"NoteNumber":36,"Velocity":43,"Duration":132743,"SoundDuration":132743,"Delta":528688283},{"NoteNumber":48,"Velocity":34,"Duration":132743,"SoundDuration":132743,"Delta":528821026},{"NoteNumber":91,"Velocity":45,"Duration":138248,"SoundDuration":138248,"Delta":528953769},{"NoteNumber":84,"Velocity":45,"Duration":138248,"SoundDuration":138248,"Delta":528953769},{"NoteNumber":96,"Velocity":53,"Duration":138248,"SoundDuration":138248,"Delta":528953769},{"NoteNumber":39,"Velocity":43,"Duration":138248,"SoundDuration":138248,"Delta":528953769},{"NoteNumber":51,"Velocity":35,"Duration":138248,"SoundDuration":138248,"Delta":529092018},{"NoteNumber":84,"Velocity":50,"Duration":132158,"SoundDuration":132158,"Delta":529230267},{"NoteNumber":94,"Velocity":59,"Duration":132158,"SoundDuration":132158,"Delta":529230267},{"NoteNumber":91,"Velocity":50,"Duration":132158,"SoundDuration":132158,"Delta":529230267},{"NoteNumber":40,"Velocity":43,"Duration":132158,"SoundDuration":132158,"Delta":529230267},{"NoteNumber":52,"Velocity":33,"Duration":132158,"SoundDuration":132158,"Delta":529362425},{"NoteNumber":88,"Velocity":45,"Duration":132158,"SoundDuration":132158,"Delta":529494584},{"NoteNumber":84,"Velocity":45,"Duration":132158,"SoundDuration":132158,"Delta":529494584},{"NoteNumber":94,"Velocity":53,"Duration":132158,"SoundDuration":132158,"Delta":529494584},{"NoteNumber":43,"Velocity":43,"Duration":132158,"SoundDuration":132158,"Delta":529494584},{"NoteNumber":55,"Velocity":33,"Duration":132158,"SoundDuration":132158,"Delta":529626742},{"NoteNumber":87,"Velocity":50,"Duration":132158,"SoundDuration":132158,"Delta":529758901},{"NoteNumber":84,"Velocity":50,"Duration":132158,"SoundDuration":132158,"Delta":529758901},{"NoteNumber":93,"Velocity":59,"Duration":132158,"SoundDuration":132158,"Delta":529758901},{"NoteNumber":41,"Velocity":43,"Duration":132158,"SoundDuration":132158,"Delta":529758901},{"NoteNumber":53,"Velocity":34,"Duration":132158,"SoundDuration":132158,"Delta":529891059},{"NoteNumber":84,"Velocity":45,"Duration":137614,"SoundDuration":137614,"Delta":530023218},{"NoteNumber":96,"Velocity":53,"Duration":137614,"SoundDuration":137614,"Delta":530023218},{"NoteNumber":87,"Velocity":45,"Duration":137614,"SoundDuration":137614,"Delta":530023218},{"NoteNumber":41,"Velocity":43,"Duration":137614,"SoundDuration":137614,"Delta":530023218},{"NoteNumber":53,"Velocity":35,"Duration":137614,"SoundDuration":137614,"Delta":530160832},{"NoteNumber":86,"Velocity":55,"Duration":130434,"SoundDuration":130434,"Delta":530298447},{"NoteNumber":82,"Velocity":55,"Duration":130434,"SoundDuration":130434,"Delta":530298447},{"NoteNumber":94,"Velocity":64,"Duration":130434,"SoundDuration":130434,"Delta":530298447},{"NoteNumber":41,"Velocity":47,"Duration":130434,"SoundDuration":130434,"Delta":530298447},{"NoteNumber":53,"Velocity":36,"Duration":130434,"SoundDuration":130434,"Delta":530428882},{"NoteNumber":77,"Velocity":50,"Duration":130434,"SoundDuration":130434,"Delta":530559317},{"NoteNumber":86,"Velocity":50,"Duration":130434,"SoundDuration":130434,"Delta":530559317},{"NoteNumber":89,"Velocity":59,"Duration":130434,"SoundDuration":130434,"Delta":530559317},{"NoteNumber":46,"Velocity":48,"Duration":130434,"SoundDuration":130434,"Delta":530559317},{"NoteNumber":58,"Velocity":37,"Duration":130434,"SoundDuration":130434,"Delta":530689751},{"NoteNumber":89,"Velocity":58,"Duration":130434,"SoundDuration":130434,"Delta":530820186},{"NoteNumber":81,"Velocity":58,"Duration":130434,"SoundDuration":130434,"Delta":530820186},{"NoteNumber":93,"Velocity":69,"Duration":130434,"SoundDuration":130434,"Delta":530820186},{"NoteNumber":87,"Velocity":58,"Duration":130434,"SoundDuration":130434,"Delta":530820186},{"NoteNumber":41,"Velocity":50,"Duration":130434,"SoundDuration":130434,"Delta":530820186},{"NoteNumber":53,"Velocity":40,"Duration":128260,"SoundDuration":128260,"Delta":530950621},{"NoteNumber":96,"Velocity":65,"Duration":136986,"SoundDuration":136986,"Delta":531081056},{"NoteNumber":89,"Velocity":55,"Duration":136986,"SoundDuration":136986,"Delta":531081056},{"NoteNumber":87,"Velocity":55,"Duration":136986,"SoundDuration":136986,"Delta":531081056},{"NoteNumber":84,"Velocity":55,"Duration":136986,"SoundDuration":136986,"Delta":531081056},{"NoteNumber":53,"Velocity":53,"Duration":136986,"SoundDuration":136986,"Delta":531081056},{"NoteNumber":65,"Velocity":44,"Duration":136986,"SoundDuration":136986,"Delta":531218042},{"NoteNumber":86,"Velocity":63,"Duration":130434,"SoundDuration":130434,"Delta":531355028},{"NoteNumber":94,"Velocity":75,"Duration":130434,"SoundDuration":130434,"Delta":531355028},{"NoteNumber":82,"Velocity":63,"Duration":130434,"SoundDuration":130434,"Delta":531355028},{"NoteNumber":41,"Velocity":54,"Duration":130434,"SoundDuration":130434,"Delta":531355028},{"NoteNumber":53,"Velocity":42,"Duration":130434,"SoundDuration":130434,"Delta":531485463},{"NoteNumber":89,"Velocity":69,"Duration":130434,"SoundDuration":130434,"Delta":531615898},{"NoteNumber":86,"Velocity":59,"Duration":130434,"SoundDuration":130434,"Delta":531615898},{"NoteNumber":77,"Velocity":59,"Duration":130434,"SoundDuration":130434,"Delta":531615898},{"NoteNumber":46,"Velocity":57,"Duration":130434,"SoundDuration":130434,"Delta":531615898},{"NoteNumber":58,"Velocity":44,"Duration":130434,"SoundDuration":130434,"Delta":531746332},{"NoteNumber":81,"Velocity":69,"Duration":130434,"SoundDuration":130434,"Delta":531876767},{"NoteNumber":87,"Velocity":69,"Duration":130434,"SoundDuration":130434,"Delta":531876767},{"NoteNumber":89,"Velocity":69,"Duration":130434,"SoundDuration":130434,"Delta":531876767},{"NoteNumber":93,"Velocity":80,"Duration":130434,"SoundDuration":130434,"Delta":531876767},{"NoteNumber":41,"Velocity":58,"Duration":130434,"SoundDuration":130434,"Delta":531876767},{"NoteNumber":53,"Velocity":47,"Duration":128260,"SoundDuration":128260,"Delta":532007202},{"NoteNumber":87,"Velocity":64,"Duration":135746,"SoundDuration":135746,"Delta":532137637},{"NoteNumber":89,"Velocity":64,"Duration":135746,"SoundDuration":135746,"Delta":532137637},{"NoteNumber":96,"Velocity":76,"Duration":135746,"SoundDuration":135746,"Delta":532137637},{"NoteNumber":84,"Velocity":64,"Duration":135746,"SoundDuration":135746,"Delta":532137637},{"NoteNumber":53,"Velocity":61,"Duration":135746,"SoundDuration":135746,"Delta":532137637},{"NoteNumber":65,"Velocity":51,"Duration":135746,"SoundDuration":135746,"Delta":532273383},{"NoteNumber":82,"Velocity":77,"Duration":126582,"SoundDuration":126582,"Delta":532409130},{"NoteNumber":46,"Velocity":59,"Duration":126582,"SoundDuration":126582,"Delta":532409130},{"NoteNumber":94,"Velocity":70,"Duration":126582,"SoundDuration":126582,"Delta":532535712},{"NoteNumber":58,"Velocity":50,"Duration":126582,"SoundDuration":126582,"Delta":532535712},{"NoteNumber":77,"Velocity":79,"Duration":126582,"SoundDuration":126582,"Delta":532662294},{"NoteNumber":41,"Velocity":61,"Duration":126582,"SoundDuration":126582,"Delta":532662294},{"NoteNumber":89,"Velocity":73,"Duration":126582,"SoundDuration":126582,"Delta":532788876},{"NoteNumber":53,"Velocity":51,"Duration":126582,"SoundDuration":126582,"Delta":532788876},{"NoteNumber":81,"Velocity":82,"Duration":126582,"SoundDuration":126582,"Delta":532915459},{"NoteNumber":45,"Velocity":64,"Duration":126582,"SoundDuration":126582,"Delta":532915459},{"NoteNumber":93,"Velocity":76,"Duration":126582,"SoundDuration":126582,"Delta":533042041},{"NoteNumber":57,"Velocity":55,"Duration":126582,"SoundDuration":126582,"Delta":533042041},{"NoteNumber":84,"Velocity":85,"Duration":126582,"SoundDuration":126582,"Delta":533168623},{"NoteNumber":48,"Velocity":67,"Duration":126582,"SoundDuration":126582,"Delta":533168623},{"NoteNumber":96,"Velocity":79,"Duration":142180,"SoundDuration":142180,"Delta":533295205},{"NoteNumber":60,"Velocity":58,"Duration":142180,"SoundDuration":142180,"Delta":533295205},{"NoteNumber":82,"Velocity":88,"Duration":127659,"SoundDuration":127659,"Delta":533437385},{"NoteNumber":46,"Velocity":68,"Duration":127659,"SoundDuration":127659,"Delta":533437385},{"NoteNumber":94,"Velocity":82,"Duration":127659,"SoundDuration":127659,"Delta":533565045},{"NoteNumber":58,"Velocity":63,"Duration":127659,"SoundDuration":127659,"Delta":533565045},{"NoteNumber":77,"Velocity":91,"Duration":127659,"SoundDuration":127659,"Delta":533692704},{"NoteNumber":41,"Velocity":71,"Duration":127659,"SoundDuration":127659,"Delta":533692704},{"NoteNumber":89,"Velocity":81,"Duration":127659,"SoundDuration":127659,"Delta":533820364},{"NoteNumber":53,"Velocity":63,"Duration":127659,"SoundDuration":127659,"Delta":533820364},{"NoteNumber":69,"Velocity":89,"Duration":127659,"SoundDuration":127659,"Delta":533948023},{"NoteNumber":33,"Velocity":71,"Duration":127659,"SoundDuration":127659,"Delta":533948023},{"NoteNumber":81,"Velocity":81,"Duration":127659,"SoundDuration":127659,"Delta":534075683},{"NoteNumber":45,"Velocity":60,"Duration":127659,"SoundDuration":127659,"Delta":534075683},{"NoteNumber":72,"Velocity":90,"Duration":127659,"SoundDuration":127659,"Delta":534203342},{"NoteNumber":36,"Velocity":71,"Duration":127659,"SoundDuration":127659,"Delta":534203342},{"NoteNumber":84,"Velocity":80,"Duration":140845,"SoundDuration":140845,"Delta":534331002},{"NoteNumber":48,"Velocity":63,"Duration":140845,"SoundDuration":140845,"Delta":534331002},{"NoteNumber":70,"Velocity":88,"Duration":127659,"SoundDuration":127659,"Delta":534471847},{"NoteNumber":34,"Velocity":68,"Duration":127659,"SoundDuration":127659,"Delta":534471847},{"NoteNumber":82,"Velocity":82,"Duration":127659,"SoundDuration":127659,"Delta":534599506},{"NoteNumber":46,"Velocity":63,"Duration":127659,"SoundDuration":127659,"Delta":534599506},{"NoteNumber":65,"Velocity":91,"Duration":127659,"SoundDuration":127659,"Delta":534727166},{"NoteNumber":29,"Velocity":71,"Duration":127659,"SoundDuration":127659,"Delta":534727166},{"NoteNumber":77,"Velocity":81,"Duration":127659,"SoundDuration":127659,"Delta":534854825},{"NoteNumber":41,"Velocity":63,"Duration":127659,"SoundDuration":127659,"Delta":534854825},{"NoteNumber":71,"Velocity":89,"Duration":127659,"SoundDuration":127659,"Delta":534982485},{"NoteNumber":35,"Velocity":71,"Duration":127659,"SoundDuration":127659,"Delta":534982485},{"NoteNumber":83,"Velocity":81,"Duration":127659,"SoundDuration":127659,"Delta":535110144},{"NoteNumber":47,"Velocity":60,"Duration":127659,"SoundDuration":127659,"Delta":535110144},{"NoteNumber":74,"Velocity":90,"Duration":127659,"SoundDuration":127659,"Delta":535237804},{"NoteNumber":38,"Velocity":71,"Duration":127659,"SoundDuration":127659,"Delta":535237804},{"NoteNumber":86,"Velocity":80,"Duration":140845,"SoundDuration":140845,"Delta":535365463},{"NoteNumber":50,"Velocity":63,"Duration":140845,"SoundDuration":140845,"Delta":535365463},{"NoteNumber":72,"Velocity":88,"Duration":127659,"SoundDuration":127659,"Delta":535506308},{"NoteNumber":36,"Velocity":68,"Duration":127659,"SoundDuration":127659,"Delta":535506308},{"NoteNumber":84,"Velocity":82,"Duration":127659,"SoundDuration":127659,"Delta":535633968},{"NoteNumber":48,"Velocity":63,"Duration":127659,"SoundDuration":127659,"Delta":535633968},{"NoteNumber":67,"Velocity":91,"Duration":127659,"SoundDuration":127659,"Delta":535761627},{"NoteNumber":31,"Velocity":71,"Duration":127659,"SoundDuration":127659,"Delta":535761627},{"NoteNumber":79,"Velocity":81,"Duration":127659,"SoundDuration":127659,"Delta":535889287},{"NoteNumber":43,"Velocity":63,"Duration":127659,"SoundDuration":127659,"Delta":535889287},{"NoteNumber":71,"Velocity":89,"Duration":127659,"SoundDuration":127659,"Delta":536016946},{"NoteNumber":35,"Velocity":71,"Duration":127659,"SoundDuration":127659,"Delta":536016946},{"NoteNumber":83,"Velocity":81,"Duration":127659,"SoundDuration":127659,"Delta":536144606},{"NoteNumber":47,"Velocity":60,"Duration":127659,"SoundDuration":127659,"Delta":536144606},{"NoteNumber":74,"Velocity":90,"Duration":127659,"SoundDuration":127659,"Delta":536272265},{"NoteNumber":38,"Velocity":71,"Duration":127659,"SoundDuration":127659,"Delta":536272265},{"NoteNumber":86,"Velocity":80,"Duration":140845,"SoundDuration":140845,"Delta":536399925},{"NoteNumber":50,"Velocity":63,"Duration":140845,"SoundDuration":140845,"Delta":536399925},{"NoteNumber":72,"Velocity":88,"Duration":127659,"SoundDuration":127659,"Delta":536540770},{"NoteNumber":36,"Velocity":68,"Duration":127659,"SoundDuration":127659,"Delta":536540770},{"NoteNumber":84,"Velocity":82,"Duration":127659,"SoundDuration":127659,"Delta":536668429},{"NoteNumber":48,"Velocity":63,"Duration":127659,"SoundDuration":127659,"Delta":536668429},{"NoteNumber":67,"Velocity":91,"Duration":127659,"SoundDuration":127659,"Delta":536796089},{"NoteNumber":31,"Velocity":71,"Duration":127659,"SoundDuration":127659,"Delta":536796089},{"NoteNumber":79,"Velocity":81,"Duration":127659,"SoundDuration":127659,"Delta":536923748},{"NoteNumber":43,"Velocity":63,"Duration":127659,"SoundDuration":127659,"Delta":536923748},{"NoteNumber":72,"Velocity":89,"Duration":127659,"SoundDuration":127659,"Delta":537051408},{"NoteNumber":36,"Velocity":71,"Duration":127659,"SoundDuration":127659,"Delta":537051408},{"NoteNumber":84,"Velocity":81,"Duration":127659,"SoundDuration":127659,"Delta":537179067},{"NoteNumber":48,"Velocity":60,"Duration":127659,"SoundDuration":127659,"Delta":537179067},{"NoteNumber":75,"Velocity":90,"Duration":127659,"SoundDuration":127659,"Delta":537306727},{"NoteNumber":39,"Velocity":71,"Duration":127659,"SoundDuration":127659,"Delta":537306727},{"NoteNumber":87,"Velocity":80,"Duration":140845,"SoundDuration":140845,"Delta":537434386},{"NoteNumber":51,"Velocity":63,"Duration":140845,"SoundDuration":140845,"Delta":537434386},{"NoteNumber":74,"Velocity":88,"Duration":127659,"SoundDuration":127659,"Delta":537575231},{"NoteNumber":38,"Velocity":68,"Duration":127659,"SoundDuration":127659,"Delta":537575231},{"NoteNumber":86,"Velocity":82,"Duration":127659,"SoundDuration":127659,"Delta":537702891},{"NoteNumber":50,"Velocity":63,"Duration":127659,"SoundDuration":127659,"Delta":537702891},{"NoteNumber":69,"Velocity":91,"Duration":127659,"SoundDuration":127659,"Delta":537830550},{"NoteNumber":33,"Velocity":71,"Duration":127659,"SoundDuration":127659,"Delta":537830550},{"NoteNumber":81,"Velocity":80,"Duration":127659,"SoundDuration":127659,"Delta":537958210},{"NoteNumber":45,"Velocity":62,"Duration":127659,"SoundDuration":127659,"Delta":537958210},{"NoteNumber":73,"Velocity":88,"Duration":127659,"SoundDuration":127659,"Delta":538085869},{"NoteNumber":37,"Velocity":70,"Duration":127659,"SoundDuration":127659,"Delta":538085869},{"NoteNumber":85,"Velocity":80,"Duration":127659,"SoundDuration":127659,"Delta":538213529},{"NoteNumber":49,"Velocity":59,"Duration":127659,"SoundDuration":127659,"Delta":538213529},{"NoteNumber":76,"Velocity":88,"Duration":127659,"SoundDuration":127659,"Delta":538341188},{"NoteNumber":40,"Velocity":69,"Duration":127659,"SoundDuration":127659,"Delta":538341188},{"NoteNumber":88,"Velocity":78,"Duration":140845,"SoundDuration":140845,"Delta":538468848},{"NoteNumber":52,"Velocity":61,"Duration":140845,"SoundDuration":140845,"Delta":538468848},{"NoteNumber":74,"Velocity":86,"Duration":127659,"SoundDuration":127659,"Delta":538609693},{"NoteNumber":38,"Velocity":66,"Duration":127659,"SoundDuration":127659,"Delta":538609693},{"NoteNumber":86,"Velocity":79,"Duration":127659,"SoundDuration":127659,"Delta":538737352},{"NoteNumber":50,"Velocity":61,"Duration":127659,"SoundDuration":127659,"Delta":538737352},{"NoteNumber":69,"Velocity":88,"Duration":127659,"SoundDuration":127659,"Delta":538865012},{"NoteNumber":33,"Velocity":68,"Duration":127659,"SoundDuration":127659,"Delta":538865012},{"NoteNumber":81,"Velocity":78,"Duration":127659,"SoundDuration":127659,"Delta":538992671},{"NoteNumber":45,"Velocity":61,"Duration":127659,"SoundDuration":127659,"Delta":538992671},{"NoteNumber":74,"Velocity":85,"Duration":127659,"SoundDuration":127659,"Delta":539120331},{"NoteNumber":38,"Velocity":68,"Duration":127659,"SoundDuration":127659,"Delta":539120331},{"NoteNumber":86,"Velocity":77,"Duration":127659,"SoundDuration":127659,"Delta":539247990},{"NoteNumber":50,"Velocity":57,"Duration":127659,"SoundDuration":127659,"Delta":539247990},{"NoteNumber":77,"Velocity":85,"Duration":127659,"SoundDuration":127659,"Delta":539375650},{"NoteNumber":41,"Velocity":67,"Duration":127659,"SoundDuration":127659,"Delta":539375650},{"NoteNumber":89,"Velocity":76,"Duration":140845,"SoundDuration":140845,"Delta":539503309},{"NoteNumber":53,"Velocity":59,"Duration":140845,"SoundDuration":140845,"Delta":539503309},{"NoteNumber":75,"Velocity":83,"Duration":127659,"SoundDuration":127659,"Delta":539644154},{"NoteNumber":39,"Velocity":64,"Duration":127659,"SoundDuration":127659,"Delta":539644154},{"NoteNumber":87,"Velocity":77,"Duration":127659,"SoundDuration":127659,"Delta":539771814},{"NoteNumber":51,"Velocity":59,"Duration":127659,"SoundDuration":127659,"Delta":539771814},{"NoteNumber":70,"Velocity":85,"Duration":127659,"SoundDuration":127659,"Delta":539899473},{"NoteNumber":34,"Velocity":66,"Duration":127659,"SoundDuration":127659,"Delta":539899473},{"NoteNumber":82,"Velocity":76,"Duration":127659,"SoundDuration":127659,"Delta":540027133},{"NoteNumber":46,"Velocity":59,"Duration":127659,"SoundDuration":127659,"Delta":540027133},{"NoteNumber":74,"Velocity":82,"Duration":127659,"SoundDuration":127659,"Delta":540154792},{"NoteNumber":38,"Velocity":66,"Duration":127659,"SoundDuration":127659,"Delta":540154792},{"NoteNumber":86,"Velocity":75,"Duration":127659,"SoundDuration":127659,"Delta":540282452},{"NoteNumber":50,"Velocity":55,"Duration":127659,"SoundDuration":127659,"Delta":540282452},{"NoteNumber":77,"Velocity":83,"Duration":127659,"SoundDuration":127659,"Delta":540410111},{"NoteNumber":41,"Velocity":66,"Duration":127659,"SoundDuration":127659,"Delta":540410111},{"NoteNumber":89,"Velocity":73,"Duration":140845,"SoundDuration":140845,"Delta":540537771},{"NoteNumber":53,"Velocity":57,"Duration":140845,"SoundDuration":140845,"Delta":540537771},{"NoteNumber":75,"Velocity":80,"Duration":127659,"SoundDuration":127659,"Delta":540678616},{"NoteNumber":39,"Velocity":62,"Duration":127659,"SoundDuration":127659,"Delta":540678616},{"NoteNumber":87,"Velocity":75,"Duration":127659,"SoundDuration":127659,"Delta":540806275},{"NoteNumber":51,"Velocity":57,"Duration":127659,"SoundDuration":127659,"Delta":540806275},{"NoteNumber":70,"Velocity":82,"Duration":127659,"SoundDuration":127659,"Delta":540933935},{"NoteNumber":34,"Velocity":64,"Duration":127659,"SoundDuration":127659,"Delta":540933935},{"NoteNumber":82,"Velocity":73,"Duration":127659,"SoundDuration":127659,"Delta":541061594},{"NoteNumber":46,"Velocity":57,"Duration":127659,"SoundDuration":127659,"Delta":541061594},{"NoteNumber":75,"Velocity":80,"Duration":127659,"SoundDuration":127659,"Delta":541189254},{"NoteNumber":39,"Velocity":63,"Duration":127659,"SoundDuration":127659,"Delta":541189254},{"NoteNumber":87,"Velocity":72,"Duration":127659,"SoundDuration":127659,"Delta":541316913},{"NoteNumber":51,"Velocity":54,"Duration":127659,"SoundDuration":127659,"Delta":541316913},{"NoteNumber":78,"Velocity":81,"Duration":127659,"SoundDuration":127659,"Delta":541444573},{"NoteNumber":42,"Velocity":63,"Duration":127659,"SoundDuration":127659,"Delta":541444573},{"NoteNumber":90,"Velocity":71,"Duration":140845,"SoundDuration":140845,"Delta":541572232},{"NoteNumber":54,"Velocity":56,"Duration":140845,"SoundDuration":140845,"Delta":541572232},{"NoteNumber":77,"Velocity":78,"Duration":127659,"SoundDuration":127659,"Delta":541713077},{"NoteNumber":41,"Velocity":60,"Duration":127659,"SoundDuration":127659,"Delta":541713077},{"NoteNumber":89,"Velocity":72,"Duration":127659,"SoundDuration":127659,"Delta":541840737},{"NoteNumber":53,"Velocity":56,"Duration":127659,"SoundDuration":127659,"Delta":541840737},{"NoteNumber":72,"Velocity":80,"Duration":127659,"SoundDuration":127659,"Delta":541968396},{"NoteNumber":36,"Velocity":62,"Duration":127659,"SoundDuration":127659,"Delta":541968396},{"NoteNumber":84,"Velocity":71,"Duration":127659,"SoundDuration":127659,"Delta":542096056},{"NoteNumber":48,"Velocity":55,"Duration":127659,"SoundDuration":127659,"Delta":542096056},{"NoteNumber":75,"Velocity":78,"Duration":127659,"SoundDuration":127659,"Delta":542223715},{"NoteNumber":39,"Velocity":62,"Duration":127659,"SoundDuration":127659,"Delta":542223715},{"NoteNumber":87,"Velocity":70,"Duration":127659,"SoundDuration":127659,"Delta":542351375},{"NoteNumber":51,"Velocity":52,"Duration":127659,"SoundDuration":127659,"Delta":542351375},{"NoteNumber":78,"Velocity":78,"Duration":127659,"SoundDuration":127659,"Delta":542479034},{"NoteNumber":42,"Velocity":61,"Duration":127659,"SoundDuration":127659,"Delta":542479034},{"NoteNumber":90,"Velocity":69,"Duration":140845,"SoundDuration":140845,"Delta":542606694},{"NoteNumber":54,"Velocity":54,"Duration":140845,"SoundDuration":140845,"Delta":542606694},{"NoteNumber":73,"Velocity":75,"Duration":127659,"SoundDuration":127659,"Delta":542747539},{"NoteNumber":37,"Velocity":58,"Duration":127659,"SoundDuration":127659,"Delta":542747539},{"NoteNumber":85,"Velocity":70,"Duration":127659,"SoundDuration":127659,"Delta":542875198},{"NoteNumber":49,"Velocity":54,"Duration":127659,"SoundDuration":127659,"Delta":542875198},{"NoteNumber":69,"Velocity":77,"Duration":127659,"SoundDuration":127659,"Delta":543002858},{"NoteNumber":33,"Velocity":60,"Duration":127659,"SoundDuration":127659,"Delta":543002858},{"NoteNumber":81,"Velocity":68,"Duration":127659,"SoundDuration":127659,"Delta":543130517},{"NoteNumber":45,"Velocity":53,"Duration":127659,"SoundDuration":127659,"Delta":543130517},{"NoteNumber":72,"Velocity":75,"Duration":127659,"SoundDuration":127659,"Delta":543258177},{"NoteNumber":36,"Velocity":60,"Duration":127659,"SoundDuration":127659,"Delta":543258177},{"NoteNumber":84,"Velocity":68,"Duration":127659,"SoundDuration":127659,"Delta":543385836},{"NoteNumber":48,"Velocity":50,"Duration":127659,"SoundDuration":127659,"Delta":543385836},{"NoteNumber":75,"Velocity":75,"Duration":127659,"SoundDuration":127659,"Delta":543513496},{"NoteNumber":39,"Velocity":59,"Duration":127659,"SoundDuration":127659,"Delta":543513496},{"NoteNumber":87,"Velocity":67,"Duration":140845,"SoundDuration":140845,"Delta":543641155},{"NoteNumber":51,"Velocity":52,"Duration":140845,"SoundDuration":140845,"Delta":543641155},{"NoteNumber":66,"Velocity":73,"Duration":131578,"SoundDuration":131578,"Delta":543782000},{"NoteNumber":30,"Velocity":56,"Duration":131578,"SoundDuration":131578,"Delta":543782000},{"NoteNumber":78,"Velocity":68,"Duration":131578,"SoundDuration":131578,"Delta":543913579},{"NoteNumber":42,"Velocity":52,"Duration":131578,"SoundDuration":131578,"Delta":543913579},{"NoteNumber":65,"Velocity":75,"Duration":131578,"SoundDuration":131578,"Delta":544045158},{"NoteNumber":29,"Velocity":58,"Duration":131578,"SoundDuration":131578,"Delta":544045158},{"NoteNumber":77,"Velocity":66,"Duration":131578,"SoundDuration":131578,"Delta":544176737},{"NoteNumber":41,"Velocity":51,"Duration":131578,"SoundDuration":131578,"Delta":544176737},{"NoteNumber":69,"Velocity":72,"Duration":131579,"SoundDuration":131579,"Delta":544308316},{"NoteNumber":33,"Velocity":58,"Duration":131579,"SoundDuration":131579,"Delta":544308316},{"NoteNumber":81,"Velocity":66,"Duration":131578,"SoundDuration":131578,"Delta":544439895},{"NoteNumber":45,"Velocity":49,"Duration":131578,"SoundDuration":131578,"Delta":544439895},{"NoteNumber":75,"Velocity":72,"Duration":131578,"SoundDuration":131578,"Delta":544571474},{"NoteNumber":39,"Velocity":57,"Duration":131578,"SoundDuration":131578,"Delta":544571474},{"NoteNumber":87,"Velocity":64,"Duration":162162,"SoundDuration":162162,"Delta":544703053},{"NoteNumber":51,"Velocity":51,"Duration":162162,"SoundDuration":162162,"Delta":544703053},{"NoteNumber":71,"Velocity":40,"Duration":142180,"SoundDuration":142180,"Delta":544865216},{"NoteNumber":74,"Velocity":58,"Duration":1091535,"SoundDuration":1091535,"Delta":544865216},{"NoteNumber":34,"Velocity":37,"Duration":553418,"SoundDuration":553418,"Delta":544865216},{"NoteNumber":46,"Velocity":44,"Duration":553418,"SoundDuration":553418,"Delta":544865216},{"NoteNumber":70,"Velocity":34,"Duration":142179,"SoundDuration":142179,"Delta":545007396},{"NoteNumber":71,"Velocity":40,"Duration":134529,"SoundDuration":134529,"Delta":545149576},{"NoteNumber":70,"Velocity":35,"Duration":134529,"SoundDuration":134529,"Delta":545284105},{"NoteNumber":71,"Velocity":40,"Duration":134529,"SoundDuration":134529,"Delta":545418634},{"NoteNumber":44,"Velocity":32,"Duration":538116,"SoundDuration":538116,"Delta":545418634},{"NoteNumber":56,"Velocity":38,"Duration":538116,"SoundDuration":538116,"Delta":545418634},{"NoteNumber":70,"Velocity":35,"Duration":134529,"SoundDuration":134529,"Delta":545553163},{"NoteNumber":71,"Velocity":40,"Duration":134529,"SoundDuration":134529,"Delta":545687693},{"NoteNumber":70,"Velocity":36,"Duration":134529,"SoundDuration":134529,"Delta":545822222},{"NoteNumber":71,"Velocity":40,"Duration":140186,"SoundDuration":140186,"Delta":545956751},{"NoteNumber":75,"Velocity":48,"Duration":560747,"SoundDuration":560747,"Delta":545956751},{"NoteNumber":42,"Velocity":33,"Duration":560747,"SoundDuration":560747,"Delta":545956751},{"NoteNumber":54,"Velocity":39,"Duration":560747,"SoundDuration":560747,"Delta":545956751},{"NoteNumber":70,"Velocity":34,"Duration":140187,"SoundDuration":140187,"Delta":546096938},{"NoteNumber":71,"Velocity":40,"Duration":140186,"SoundDuration":140186,"Delta":546237125},{"NoteNumber":70,"Velocity":35,"Duration":140186,"SoundDuration":140186,"Delta":546377312},{"NoteNumber":78,"Velocity":51,"Duration":558442,"SoundDuration":558442,"Delta":546517499},{"NoteNumber":71,"Velocity":40,"Duration":136363,"SoundDuration":136363,"Delta":546517499},{"NoteNumber":39,"Velocity":24,"Duration":558442,"SoundDuration":558442,"Delta":546517499},{"NoteNumber":51,"Velocity":29,"Duration":558442,"SoundDuration":558442,"Delta":546517499},{"NoteNumber":70,"Velocity":35,"Duration":136363,"SoundDuration":136363,"Delta":546653863},{"NoteNumber":71,"Velocity":40,"Duration":142857,"SoundDuration":142857,"Delta":546790227},{"NoteNumber":70,"Velocity":36,"Duration":142857,"SoundDuration":142857,"Delta":546933084},{"NoteNumber":82,"Velocity":60,"Duration":1085261,"SoundDuration":1085261,"Delta":547075941},{"NoteNumber":71,"Velocity":40,"Duration":133928,"SoundDuration":133928,"Delta":547075941},{"NoteNumber":38,"Velocity":34,"Duration":535713,"SoundDuration":535713,"Delta":547075941},{"NoteNumber":50,"Velocity":40,"Duration":535713,"SoundDuration":535713,"Delta":547075941},{"NoteNumber":70,"Velocity":34,"Duration":133928,"SoundDuration":133928,"Delta":547209870},{"NoteNumber":71,"Velocity":40,"Duration":133928,"SoundDuration":133928,"Delta":547343798},{"NoteNumber":70,"Velocity":35,"Duration":133928,"SoundDuration":133928,"Delta":547477727},{"NoteNumber":71,"Velocity":40,"Duration":133928,"SoundDuration":133928,"Delta":547611655},{"NoteNumber":34,"Velocity":26,"Duration":549547,"SoundDuration":549547,"Delta":547611655},{"NoteNumber":46,"Velocity":31,"Duration":549547,"SoundDuration":549547,"Delta":547611655},{"NoteNumber":70,"Velocity":35,"Duration":133928,"SoundDuration":133928,"Delta":547745584},{"NoteNumber":71,"Velocity":40,"Duration":140845,"SoundDuration":140845,"Delta":547879512},{"NoteNumber":70,"Velocity":36,"Duration":140845,"SoundDuration":140845,"Delta":548020357},{"NoteNumber":71,"Velocity":40,"Duration":134529,"SoundDuration":134529,"Delta":548161202},{"NoteNumber":78,"Velocity":62,"Duration":538117,"SoundDuration":538117,"Delta":548161202},{"NoteNumber":39,"Velocity":34,"Duration":538117,"SoundDuration":538117,"Delta":548161202},{"NoteNumber":51,"Velocity":40,"Duration":538117,"SoundDuration":538117,"Delta":548161202},{"NoteNumber":70,"Velocity":34,"Duration":134529,"SoundDuration":134529,"Delta":548295731},{"NoteNumber":71,"Velocity":40,"Duration":134529,"SoundDuration":134529,"Delta":548430261},{"NoteNumber":70,"Velocity":35,"Duration":134529,"SoundDuration":134529,"Delta":548564790},{"NoteNumber":71,"Velocity":40,"Duration":134529,"SoundDuration":134529,"Delta":548699319},{"NoteNumber":75,"Velocity":51,"Duration":548128,"SoundDuration":548128,"Delta":548699319},{"NoteNumber":54,"Velocity":30,"Duration":269058,"SoundDuration":269058,"Delta":548699319},{"NoteNumber":58,"Velocity":37,"Duration":269058,"SoundDuration":269058,"Delta":548699319},{"NoteNumber":70,"Velocity":35,"Duration":134529,"SoundDuration":134529,"Delta":548833848},{"NoteNumber":70,"Velocity":40,"Duration":139535,"SoundDuration":139535,"Delta":548968378},{"NoteNumber":55,"Velocity":30,"Duration":279070,"SoundDuration":279070,"Delta":548968378},{"NoteNumber":58,"Velocity":39,"Duration":139535,"SoundDuration":139535,"Delta":548968378},{"NoteNumber":72,"Velocity":36,"Duration":139535,"SoundDuration":139535,"Delta":549107913},{"NoteNumber":60,"Velocity":39,"Duration":139535,"SoundDuration":139535,"Delta":549107913},{"NoteNumber":74,"Velocity":52,"Duration":1173518,"SoundDuration":1173518,"Delta":549247448},{"NoteNumber":70,"Velocity":39,"Duration":108579,"SoundDuration":108579,"Delta":549247448},{"NoteNumber":53,"Velocity":46,"Duration":315060,"SoundDuration":315060,"Delta":549247448},{"NoteNumber":58,"Velocity":31,"Duration":108579,"SoundDuration":108579,"Delta":549247448},{"NoteNumber":72,"Velocity":33,"Duration":105447,"SoundDuration":105447,"Delta":549356028},{"NoteNumber":60,"Velocity":26,"Duration":105447,"SoundDuration":105447,"Delta":549356028},{"NoteNumber":70,"Velocity":39,"Duration":103559,"SoundDuration":103559,"Delta":549461475},{"NoteNumber":58,"Velocity":31,"Duration":103559,"SoundDuration":103559,"Delta":549461475},{"NoteNumber":55,"Velocity":40,"Duration":292151,"SoundDuration":292151,"Delta":549562508},{"NoteNumber":72,"Velocity":35,"Duration":100415,"SoundDuration":100415,"Delta":549563771},{"NoteNumber":60,"Velocity":27,"Duration":100415,"SoundDuration":100415,"Delta":549563771},{"NoteNumber":70,"Velocity":39,"Duration":96976,"SoundDuration":96976,"Delta":549664186},{"NoteNumber":58,"Velocity":31,"Duration":96976,"SoundDuration":96976,"Delta":549664186},{"NoteNumber":72,"Velocity":35,"Duration":97068,"SoundDuration":97068,"Delta":549761163},{"NoteNumber":60,"Velocity":27,"Duration":97068,"SoundDuration":97068,"Delta":549761163},{"NoteNumber":70,"Velocity":40,"Duration":96029,"SoundDuration":96029,"Delta":549854660},{"NoteNumber":56,"Velocity":46,"Duration":283529,"SoundDuration":283529,"Delta":549854660},{"NoteNumber":58,"Velocity":32,"Duration":96029,"SoundDuration":96029,"Delta":549854660},{"NoteNumber":72,"Velocity":35,"Duration":94339,"SoundDuration":94339,"Delta":549950689},{"NoteNumber":60,"Velocity":27,"Duration":94339,"SoundDuration":94339,"Delta":549950689},{"NoteNumber":70,"Velocity":40,"Duration":95518,"SoundDuration":95518,"Delta":550045029},{"NoteNumber":58,"Velocity":32,"Duration":95518,"SoundDuration":95518,"Delta":550045029},{"NoteNumber":53,"Velocity":40,"Duration":282776,"SoundDuration":282776,"Delta":550138189},{"NoteNumber":72,"Velocity":36,"Duration":95518,"SoundDuration":95518,"Delta":550139369},{"NoteNumber":60,"Velocity":28,"Duration":95518,"SoundDuration":95518,"Delta":550139369},{"NoteNumber":70,"Velocity":40,"Duration":94339,"SoundDuration":94339,"Delta":550234888},{"NoteNumber":58,"Velocity":32,"Duration":94339,"SoundDuration":94339,"Delta":550234888},{"NoteNumber":72,"Velocity":36,"Duration":95243,"SoundDuration":95243,"Delta":550329227},{"NoteNumber":60,"Velocity":28,"Duration":95243,"SoundDuration":95243,"Delta":550329227},{"NoteNumber":75,"Velocity":60,"Duration":839779,"SoundDuration":839779,"Delta":550420966},{"NoteNumber":70,"Velocity":40,"Duration":94626,"SoundDuration":94626,"Delta":550420966},{"NoteNumber":58,"Velocity":32,"Duration":94626,"SoundDuration":94626,"Delta":550420966},{"NoteNumber":55,"Velocity":46,"Duration":279993,"SoundDuration":279993,"Delta":550420966},{"NoteNumber":72,"Velocity":35,"Duration":93457,"SoundDuration":93457,"Delta":550515592},{"NoteNumber":60,"Velocity":27,"Duration":93457,"SoundDuration":93457,"Delta":550515592},{"NoteNumber":70,"Velocity":41,"Duration":94235,"SoundDuration":94235,"Delta":550609050},{"NoteNumber":58,"Velocity":32,"Duration":94235,"SoundDuration":94235,"Delta":550609050},{"NoteNumber":56,"Velocity":40,"Duration":278450,"SoundDuration":278450,"Delta":550700960},{"NoteNumber":72,"Velocity":37,"Duration":94186,"SoundDuration":94186,"Delta":550702122},{"NoteNumber":60,"Velocity":29,"Duration":94186,"SoundDuration":94186,"Delta":550702122},{"NoteNumber":70,"Velocity":41,"Duration":92705,"SoundDuration":92705,"Delta":550796309},{"NoteNumber":58,"Velocity":32,"Duration":92705,"SoundDuration":92705,"Delta":550796309},{"NoteNumber":72,"Velocity":37,"Duration":93884,"SoundDuration":93884,"Delta":550889014},{"NoteNumber":60,"Velocity":29,"Duration":93884,"SoundDuration":93884,"Delta":550889014},{"NoteNumber":70,"Velocity":42,"Duration":94430,"SoundDuration":94430,"Delta":550979411},{"NoteNumber":55,"Velocity":46,"Duration":281334,"SoundDuration":281334,"Delta":550979411},{"NoteNumber":58,"Velocity":33,"Duration":94430,"SoundDuration":94430,"Delta":550979411},{"NoteNumber":72,"Velocity":37,"Duration":93726,"SoundDuration":93726,"Delta":551073841},{"NoteNumber":60,"Velocity":29,"Duration":93726,"SoundDuration":93726,"Delta":551073841},{"NoteNumber":70,"Velocity":43,"Duration":95547,"SoundDuration":95547,"Delta":551167568},{"NoteNumber":58,"Velocity":34,"Duration":95547,"SoundDuration":95547,"Delta":551167568},{"NoteNumber":79,"Velocity":65,"Duration":305117,"SoundDuration":305117,"Delta":551260745},{"NoteNumber":51,"Velocity":40,"Duration":305117,"SoundDuration":305117,"Delta":551260745},{"NoteNumber":72,"Velocity":38,"Duration":96430,"SoundDuration":96430,"Delta":551261930},{"NoteNumber":60,"Velocity":30,"Duration":96430,"SoundDuration":96430,"Delta":551261930},{"NoteNumber":70,"Velocity":43,"Duration":105263,"SoundDuration":105263,"Delta":551358361},{"NoteNumber":58,"Velocity":34,"Duration":105263,"SoundDuration":105263,"Delta":551358361},{"NoteNumber":72,"Velocity":38,"Duration":105793,"SoundDuration":105793,"Delta":551463624},{"NoteNumber":60,"Velocity":30,"Duration":105793,"SoundDuration":105793,"Delta":551463624},{"NoteNumber":82,"Velocity":74,"Duration":843590,"SoundDuration":843590,"Delta":551565863},{"NoteNumber":70,"Velocity":44,"Duration":95971,"SoundDuration":95971,"Delta":551565863},{"NoteNumber":58,"Velocity":35,"Duration":95971,"SoundDuration":95971,"Delta":551565863},{"NoteNumber":50,"Velocity":46,"Duration":283467,"SoundDuration":283467,"Delta":551565863},{"NoteNumber":72,"Velocity":37,"Duration":94512,"SoundDuration":94512,"Delta":551661835},{"NoteNumber":60,"Velocity":29,"Duration":94512,"SoundDuration":94512,"Delta":551661835},{"NoteNumber":70,"Velocity":44,"Duration":95330,"SoundDuration":95330,"Delta":551756348},{"NoteNumber":58,"Velocity":35,"Duration":95330,"SoundDuration":95330,"Delta":551756348},{"NoteNumber":51,"Velocity":40,"Duration":280290,"SoundDuration":280290,"Delta":551849331},{"NoteNumber":72,"Velocity":40,"Duration":94971,"SoundDuration":94971,"Delta":551850504},{"NoteNumber":60,"Velocity":32,"Duration":94971,"SoundDuration":94971,"Delta":551850504},{"NoteNumber":70,"Velocity":45,"Duration":93447,"SoundDuration":93447,"Delta":551945476},{"NoteNumber":58,"Velocity":35,"Duration":93447,"SoundDuration":93447,"Delta":551945476},{"NoteNumber":72,"Velocity":40,"Duration":94186,"SoundDuration":94186,"Delta":552038923},{"NoteNumber":60,"Velocity":32,"Duration":94186,"SoundDuration":94186,"Delta":552038923},{"NoteNumber":70,"Velocity":45,"Duration":94186,"SoundDuration":94186,"Delta":552129621},{"NoteNumber":53,"Velocity":46,"Duration":279832,"SoundDuration":279832,"Delta":552129621},{"NoteNumber":58,"Velocity":35,"Duration":94186,"SoundDuration":94186,"Delta":552129621},{"NoteNumber":72,"Velocity":40,"Duration":93180,"SoundDuration":93180,"Delta":552223807},{"NoteNumber":60,"Velocity":32,"Duration":93180,"SoundDuration":93180,"Delta":552223807},{"NoteNumber":70,"Velocity":45,"Duration":94812,"SoundDuration":94812,"Delta":552316988},{"NoteNumber":58,"Velocity":36,"Duration":94812,"SoundDuration":94812,"Delta":552316988},{"NoteNumber":80,"Velocity":65,"Duration":296177,"SoundDuration":296177,"Delta":552409453},{"NoteNumber":50,"Velocity":40,"Duration":296177,"SoundDuration":296177,"Delta":552409453},{"NoteNumber":72,"Velocity":40,"Duration":95467,"SoundDuration":95467,"Delta":552410627},{"NoteNumber":60,"Velocity":32,"Duration":95467,"SoundDuration":95467,"Delta":552410627},{"NoteNumber":70,"Velocity":45,"Duration":102040,"SoundDuration":102040,"Delta":552506095},{"NoteNumber":58,"Velocity":36,"Duration":102040,"SoundDuration":102040,"Delta":552506095},{"NoteNumber":72,"Velocity":40,"Duration":101049,"SoundDuration":101049,"Delta":552608136},{"NoteNumber":60,"Velocity":32,"Duration":101049,"SoundDuration":101049,"Delta":552608136},{"NoteNumber":70,"Velocity":46,"Duration":95971,"SoundDuration":95971,"Delta":552705631},{"NoteNumber":79,"Velocity":64,"Duration":283256,"SoundDuration":283256,"Delta":552705631},{"NoteNumber":51,"Velocity":46,"Duration":283256,"SoundDuration":283256,"Delta":552705631},{"NoteNumber":58,"Velocity":36,"Duration":95971,"SoundDuration":95971,"Delta":552705631},{"NoteNumber":72,"Velocity":40,"Duration":94406,"SoundDuration":94406,"Delta":552801602},{"NoteNumber":60,"Velocity":32,"Duration":94406,"SoundDuration":94406,"Delta":552801602},{"NoteNumber":70,"Velocity":47,"Duration":95225,"SoundDuration":95225,"Delta":552896009},{"NoteNumber":58,"Velocity":37,"Duration":95225,"SoundDuration":95225,"Delta":552896009},{"NoteNumber":77,"Velocity":64,"Duration":280099,"SoundDuration":280099,"Delta":552988887},{"NoteNumber":53,"Velocity":40,"Duration":280099,"SoundDuration":280099,"Delta":552988887},{"NoteNumber":72,"Velocity":42,"Duration":94867,"SoundDuration":94867,"Delta":552990060},{"NoteNumber":60,"Velocity":33,"Duration":94867,"SoundDuration":94867,"Delta":552990060},{"NoteNumber":70,"Velocity":47,"Duration":93137,"SoundDuration":93137,"Delta":553084928},{"NoteNumber":58,"Velocity":37,"Duration":93137,"SoundDuration":93137,"Delta":553084928},{"NoteNumber":72,"Velocity":42,"Duration":94425,"SoundDuration":94425,"Delta":553178065},{"NoteNumber":60,"Velocity":33,"Duration":94425,"SoundDuration":94425,"Delta":553178065},{"NoteNumber":70,"Velocity":48,"Duration":94872,"SoundDuration":94872,"Delta":553268986},{"NoteNumber":75,"Velocity":69,"Duration":282269,"SoundDuration":282269,"Delta":553268986},{"NoteNumber":55,"Velocity":46,"Duration":282269,"SoundDuration":282269,"Delta":553268986},{"NoteNumber":58,"Velocity":38,"Duration":94872,"SoundDuration":94872,"Delta":553268986},{"NoteNumber":72,"Velocity":41,"Duration":94057,"SoundDuration":94057,"Delta":553363859},{"NoteNumber":60,"Velocity":32,"Duration":94057,"SoundDuration":94057,"Delta":553363859},{"NoteNumber":70,"Velocity":48,"Duration":95708,"SoundDuration":95708,"Delta":553457916},{"NoteNumber":58,"Velocity":38,"Duration":95708,"SoundDuration":95708,"Delta":553457916},{"NoteNumber":74,"Velocity":69,"Duration":299065,"SoundDuration":299065,"Delta":553551255},{"NoteNumber":56,"Velocity":40,"Duration":299065,"SoundDuration":299065,"Delta":553551255},{"NoteNumber":72,"Velocity":44,"Duration":96350,"SoundDuration":96350,"Delta":553552440},{"NoteNumber":60,"Velocity":35,"Duration":96350,"SoundDuration":96350,"Delta":553552440},{"NoteNumber":70,"Velocity":48,"Duration":102040,"SoundDuration":102040,"Delta":553648791},{"NoteNumber":58,"Velocity":38,"Duration":102040,"SoundDuration":102040,"Delta":553648791},{"NoteNumber":72,"Velocity":43,"Duration":103027,"SoundDuration":103027,"Delta":553750831},{"NoteNumber":60,"Velocity":34,"Duration":103027,"SoundDuration":103027,"Delta":553750831},{"NoteNumber":75,"Velocity":66,"Duration":851116,"SoundDuration":851116,"Delta":553850321},{"NoteNumber":70,"Velocity":43,"Duration":96024,"SoundDuration":96024,"Delta":553850321},{"NoteNumber":55,"Velocity":40,"Duration":851116,"SoundDuration":851116,"Delta":553850321},{"NoteNumber":58,"Velocity":34,"Duration":96024,"SoundDuration":96024,"Delta":553850321},{"NoteNumber":72,"Velocity":37,"Duration":95238,"SoundDuration":95238,"Delta":553946346},{"NoteNumber":60,"Velocity":29,"Duration":95238,"SoundDuration":95238,"Delta":553946346},{"NoteNumber":70,"Velocity":44,"Duration":96349,"SoundDuration":96349,"Delta":554041584},{"NoteNumber":58,"Velocity":34,"Duration":96349,"SoundDuration":96349,"Delta":554041584},{"NoteNumber":72,"Velocity":39,"Duration":95971,"SoundDuration":95971,"Delta":554136749},{"NoteNumber":60,"Velocity":30,"Duration":95971,"SoundDuration":95971,"Delta":554136749},{"NoteNumber":70,"Velocity":42,"Duration":94786,"SoundDuration":94786,"Delta":554232720},{"NoteNumber":58,"Velocity":33,"Duration":94786,"SoundDuration":94786,"Delta":554232720},{"NoteNumber":72,"Velocity":38,"Duration":95619,"SoundDuration":95619,"Delta":554327507},{"NoteNumber":60,"Velocity":29,"Duration":95619,"SoundDuration":95619,"Delta":554327507},{"NoteNumber":70,"Velocity":43,"Duration":95518,"SoundDuration":95518,"Delta":554419588},{"NoteNumber":58,"Velocity":34,"Duration":95518,"SoundDuration":95518,"Delta":554419588},{"NoteNumber":72,"Velocity":36,"Duration":93590,"SoundDuration":93590,"Delta":554515107},{"NoteNumber":60,"Velocity":29,"Duration":93590,"SoundDuration":93590,"Delta":554515107},{"NoteNumber":70,"Velocity":42,"Duration":95098,"SoundDuration":95098,"Delta":554608698},{"NoteNumber":58,"Velocity":33,"Duration":95098,"SoundDuration":95098,"Delta":554608698},{"NoteNumber":74,"Velocity":63,"Duration":295728,"SoundDuration":295728,"Delta":554701438},{"NoteNumber":56,"Velocity":31,"Duration":295728,"SoundDuration":295728,"Delta":554701438},{"NoteNumber":72,"Velocity":37,"Duration":95894,"SoundDuration":95894,"Delta":554702617},{"NoteNumber":60,"Velocity":29,"Duration":95894,"SoundDuration":95894,"Delta":554702617},{"NoteNumber":70,"Velocity":41,"Duration":101522,"SoundDuration":101522,"Delta":554798511},{"NoteNumber":58,"Velocity":32,"Duration":101522,"SoundDuration":101522,"Delta":554798511},{"NoteNumber":72,"Velocity":36,"Duration":100670,"SoundDuration":100670,"Delta":554900034},{"NoteNumber":60,"Velocity":27,"Duration":100670,"SoundDuration":100670,"Delta":554900034},{"NoteNumber":77,"Velocity":60,"Duration":285242,"SoundDuration":285242,"Delta":554997166},{"NoteNumber":70,"Velocity":39,"Duration":96024,"SoundDuration":96024,"Delta":554997166},{"NoteNumber":55,"Velocity":37,"Duration":851116,"SoundDuration":851116,"Delta":554997166},{"NoteNumber":58,"Velocity":30,"Duration":96024,"SoundDuration":96024,"Delta":554997166},{"NoteNumber":72,"Velocity":33,"Duration":95238,"SoundDuration":95238,"Delta":555093190},{"NoteNumber":60,"Velocity":26,"Duration":95238,"SoundDuration":95238,"Delta":555093190},{"NoteNumber":70,"Velocity":38,"Duration":96349,"SoundDuration":96349,"Delta":555188429},{"NoteNumber":58,"Velocity":30,"Duration":96349,"SoundDuration":96349,"Delta":555188429},{"NoteNumber":75,"Velocity":57,"Duration":565873,"SoundDuration":565873,"Delta":555282409},{"NoteNumber":72,"Velocity":34,"Duration":95971,"SoundDuration":95971,"Delta":555283593},{"NoteNumber":60,"Velocity":27,"Duration":95971,"SoundDuration":95971,"Delta":555283593},{"NoteNumber":70,"Velocity":37,"Duration":94786,"SoundDuration":94786,"Delta":555379565},{"NoteNumber":58,"Velocity":29,"Duration":94786,"SoundDuration":94786,"Delta":555379565},{"NoteNumber":72,"Velocity":33,"Duration":95619,"SoundDuration":95619,"Delta":555474352},{"NoteNumber":60,"Velocity":26,"Duration":95619,"SoundDuration":95619,"Delta":555474352},{"NoteNumber":70,"Velocity":37,"Duration":95518,"SoundDuration":95518,"Delta":555566433},{"NoteNumber":58,"Velocity":30,"Duration":95518,"SoundDuration":95518,"Delta":555566433},{"NoteNumber":72,"Velocity":32,"Duration":93590,"SoundDuration":93590,"Delta":555661952},{"NoteNumber":60,"Velocity":26,"Duration":93590,"SoundDuration":93590,"Delta":555661952},{"NoteNumber":70,"Velocity":37,"Duration":95098,"SoundDuration":95098,"Delta":555755542},{"NoteNumber":58,"Velocity":29,"Duration":95098,"SoundDuration":95098,"Delta":555755542},{"NoteNumber":74,"Velocity":55,"Duration":298212,"SoundDuration":298212,"Delta":555848283},{"NoteNumber":53,"Velocity":27,"Duration":298212,"SoundDuration":298212,"Delta":555848283},{"NoteNumber":72,"Velocity":32,"Duration":95894,"SoundDuration":95894,"Delta":555849462},{"NoteNumber":60,"Velocity":25,"Duration":95894,"SoundDuration":95894,"Delta":555849462},{"NoteNumber":70,"Velocity":36,"Duration":101522,"SoundDuration":101522,"Delta":555945356},{"NoteNumber":58,"Velocity":28,"Duration":101522,"SoundDuration":101522,"Delta":555945356},{"NoteNumber":72,"Velocity":31,"Duration":103502,"SoundDuration":103502,"Delta":556046879},{"NoteNumber":60,"Velocity":24,"Duration":103502,"SoundDuration":103502,"Delta":556046879},{"NoteNumber":70,"Velocity":50,"Duration":1195821,"SoundDuration":1195821,"Delta":556146495},{"NoteNumber":74,"Velocity":39,"Duration":78848,"SoundDuration":78848,"Delta":556146495},{"NoteNumber":53,"Velocity":30,"Duration":1195821,"SoundDuration":1195821,"Delta":556146495},{"NoteNumber":62,"Velocity":36,"Duration":1195821,"SoundDuration":1195821,"Delta":556146495},{"NoteNumber":58,"Velocity":30,"Duration":1194745,"SoundDuration":1194745,"Delta":556155562},{"NoteNumber":75,"Velocity":33,"Duration":77055,"SoundDuration":77055,"Delta":556225343},{"NoteNumber":74,"Velocity":38,"Duration":76661,"SoundDuration":76661,"Delta":556302399},{"NoteNumber":75,"Velocity":34,"Duration":77443,"SoundDuration":77443,"Delta":556379060},{"NoteNumber":74,"Velocity":37,"Duration":76982,"SoundDuration":76982,"Delta":556455235},{"NoteNumber":75,"Velocity":33,"Duration":75307,"SoundDuration":75307,"Delta":556532217},{"NoteNumber":74,"Velocity":37,"Duration":76094,"SoundDuration":76094,"Delta":556605025},{"NoteNumber":75,"Velocity":32,"Duration":74351,"SoundDuration":74351,"Delta":556681119},{"NoteNumber":74,"Velocity":37,"Duration":73142,"SoundDuration":73142,"Delta":556755471},{"NoteNumber":75,"Velocity":32,"Duration":73700,"SoundDuration":73700,"Delta":556828613},{"NoteNumber":74,"Velocity":36,"Duration":73671,"SoundDuration":73671,"Delta":556901106},{"NoteNumber":75,"Velocity":31,"Duration":72528,"SoundDuration":72528,"Delta":556974778},{"NoteNumber":74,"Velocity":37,"Duration":73333,"SoundDuration":73333,"Delta":557044879},{"NoteNumber":75,"Velocity":32,"Duration":74462,"SoundDuration":74462,"Delta":557126833},{"NoteNumber":74,"Velocity":36,"Duration":75397,"SoundDuration":75397,"Delta":557192545},{"NoteNumber":72,"Velocity":32,"Duration":75152,"SoundDuration":75152,"Delta":557255316},{"NoteNumber":74,"Velocity":41,"Duration":150684,"SoundDuration":150684,"Delta":557342317},{"NoteNumber":75,"Velocity":37,"Duration":148587,"SoundDuration":148587,"Delta":557479303},{"NoteNumber":74,"Velocity":41,"Duration":139240,"SoundDuration":139240,"Delta":557615232},{"NoteNumber":70,"Velocity":36,"Duration":139240,"SoundDuration":139240,"Delta":557615232},{"NoteNumber":72,"Velocity":37,"Duration":139240,"SoundDuration":139240,"Delta":557741814},{"NoteNumber":69,"Velocity":33,"Duration":139240,"SoundDuration":139240,"Delta":557741814},{"NoteNumber":70,"Velocity":42,"Duration":139240,"SoundDuration":139240,"Delta":557868396},{"NoteNumber":67,"Velocity":37,"Duration":139240,"SoundDuration":139240,"Delta":557868396},{"NoteNumber":69,"Velocity":37,"Duration":139240,"SoundDuration":139240,"Delta":557994979},{"NoteNumber":65,"Velocity":33,"Duration":139240,"SoundDuration":139240,"Delta":557994979},{"NoteNumber":70,"Velocity":40,"Duration":139240,"SoundDuration":139240,"Delta":558121561},{"NoteNumber":67,"Velocity":36,"Duration":139240,"SoundDuration":139240,"Delta":558121561},{"NoteNumber":72,"Velocity":37,"Duration":139932,"SoundDuration":139932,"Delta":558248143},{"NoteNumber":69,"Velocity":33,"Duration":139932,"SoundDuration":139932,"Delta":558248143},{"NoteNumber":74,"Velocity":41,"Duration":140364,"SoundDuration":140364,"Delta":558375299},{"NoteNumber":70,"Velocity":36,"Duration":140364,"SoundDuration":140364,"Delta":558375299},{"NoteNumber":75,"Velocity":42,"Duration":139904,"SoundDuration":139904,"Delta":558502940},{"NoteNumber":72,"Velocity":37,"Duration":139904,"SoundDuration":139904,"Delta":558502940},{"NoteNumber":77,"Velocity":43,"Duration":139367,"SoundDuration":139367,"Delta":558630167},{"NoteNumber":74,"Velocity":38,"Duration":139367,"SoundDuration":139367,"Delta":558630167},{"NoteNumber":79,"Velocity":44,"Duration":138914,"SoundDuration":138914,"Delta":558756865},{"NoteNumber":75,"Velocity":39,"Duration":138914,"SoundDuration":138914,"Delta":558756865},{"NoteNumber":81,"Velocity":45,"Duration":138397,"SoundDuration":138397,"Delta":558883164},{"NoteNumber":77,"Velocity":40,"Duration":138397,"SoundDuration":138397,"Delta":558883164},{"NoteNumber":82,"Velocity":46,"Duration":137950,"SoundDuration":137950,"Delta":559008999},{"NoteNumber":79,"Velocity":41,"Duration":137950,"SoundDuration":137950,"Delta":559008999},{"NoteNumber":84,"Velocity":47,"Duration":137506,"SoundDuration":137506,"Delta":559134439},{"NoteNumber":81,"Velocity":42,"Duration":137506,"SoundDuration":137506,"Delta":559134439},{"NoteNumber":86,"Velocity":48,"Duration":137000,"SoundDuration":137000,"Delta":559259487},{"NoteNumber":82,"Velocity":43,"Duration":137000,"SoundDuration":137000,"Delta":559259487},{"NoteNumber":87,"Velocity":49,"Duration":136485,"SoundDuration":136485,"Delta":559384072},{"NoteNumber":89,"Velocity":46,"Duration":136476,"SoundDuration":136476,"Delta":559508150},{"NoteNumber":41,"Velocity":33,"Duration":136476,"SoundDuration":136476,"Delta":559508150},{"NoteNumber":87,"Velocity":48,"Duration":136583,"SoundDuration":136583,"Delta":559632220},{"NoteNumber":43,"Velocity":33,"Duration":136583,"SoundDuration":136583,"Delta":559632220},{"NoteNumber":86,"Velocity":47,"Duration":137043,"SoundDuration":137043,"Delta":559756345},{"NoteNumber":45,"Velocity":32,"Duration":137043,"SoundDuration":137043,"Delta":559756345},{"NoteNumber":84,"Velocity":46,"Duration":137043,"SoundDuration":137043,"Delta":559880930},{"NoteNumber":46,"Velocity":32,"Duration":137043,"SoundDuration":137043,"Delta":559880930},{"NoteNumber":82,"Velocity":45,"Duration":137346,"SoundDuration":137346,"Delta":560005514},{"NoteNumber":48,"Velocity":31,"Duration":137346,"SoundDuration":137346,"Delta":560005514},{"NoteNumber":81,"Velocity":44,"Duration":137614,"SoundDuration":137614,"Delta":560130350},{"NoteNumber":50,"Velocity":31,"Duration":137614,"SoundDuration":137614,"Delta":560130350},{"NoteNumber":79,"Velocity":43,"Duration":137614,"SoundDuration":137614,"Delta":560255455},{"NoteNumber":51,"Velocity":30,"Duration":137614,"SoundDuration":137614,"Delta":560255455},{"NoteNumber":77,"Velocity":42,"Duration":138116,"SoundDuration":138116,"Delta":560380559},{"NoteNumber":53,"Velocity":30,"Duration":138116,"SoundDuration":138116,"Delta":560380559},{"NoteNumber":75,"Velocity":41,"Duration":138191,"SoundDuration":138191,"Delta":560506113},{"NoteNumber":55,"Velocity":30,"Duration":138191,"SoundDuration":138191,"Delta":560506113},{"NoteNumber":74,"Velocity":40,"Duration":138191,"SoundDuration":138191,"Delta":560631741},{"NoteNumber":57,"Velocity":29,"Duration":138191,"SoundDuration":138191,"Delta":560631741},{"NoteNumber":72,"Velocity":39,"Duration":138301,"SoundDuration":138301,"Delta":560757369},{"NoteNumber":58,"Velocity":29,"Duration":138301,"SoundDuration":138301,"Delta":560757369},{"NoteNumber":70,"Velocity":38,"Duration":139328,"SoundDuration":139328,"Delta":560883055},{"NoteNumber":60,"Velocity":28,"Duration":139328,"SoundDuration":139328,"Delta":560883055},{"NoteNumber":69,"Velocity":37,"Duration":140651,"SoundDuration":140651,"Delta":561009661},{"NoteNumber":62,"Velocity":28,"Duration":140651,"SoundDuration":140651,"Delta":561009661},{"NoteNumber":67,"Velocity":35,"Duration":143355,"SoundDuration":143355,"Delta":561137480},{"NoteNumber":63,"Velocity":27,"Duration":143355,"SoundDuration":143355,"Delta":561137480},{"NoteNumber":65,"Velocity":34,"Duration":142993,"SoundDuration":142993,"Delta":561266537},{"NoteNumber":62,"Velocity":27,"Duration":142993,"SoundDuration":142993,"Delta":561266537},{"NoteNumber":74,"Velocity":37,"Duration":406051,"SoundDuration":406051,"Delta":561409530},{"NoteNumber":65,"Velocity":31,"Duration":406051,"SoundDuration":406051,"Delta":561409530},{"NoteNumber":62,"Velocity":32,"Duration":406051,"SoundDuration":406051,"Delta":561409530},{"NoteNumber":58,"Velocity":27,"Duration":406051,"SoundDuration":406051,"Delta":561409530},{"NoteNumber":65,"Velocity":25,"Duration":130597,"SoundDuration":130597,"Delta":561818993},{"NoteNumber":74,"Velocity":30,"Duration":130597,"SoundDuration":130597,"Delta":561818993},{"NoteNumber":62,"Velocity":26,"Duration":130597,"SoundDuration":130597,"Delta":561818993},{"NoteNumber":58,"Velocity":22,"Duration":130597,"SoundDuration":130597,"Delta":561818993},{"NoteNumber":74,"Velocity":39,"Duration":263389,"SoundDuration":263389,"Delta":561950688},{"NoteNumber":65,"Velocity":33,"Duration":263389,"SoundDuration":263389,"Delta":561950688},{"NoteNumber":62,"Velocity":32,"Duration":263389,"SoundDuration":263389,"Delta":561950688},{"NoteNumber":58,"Velocity":27,"Duration":263389,"SoundDuration":263389,"Delta":561950688},{"NoteNumber":62,"Velocity":71,"Duration":140977,"SoundDuration":140977,"Delta":562355054},{"NoteNumber":65,"Velocity":71,"Duration":140977,"SoundDuration":140977,"Delta":562355054},{"NoteNumber":67,"Velocity":85,"Duration":140977,"SoundDuration":140977,"Delta":562355054},{"NoteNumber":35,"Velocity":62,"Duration":140977,"SoundDuration":140977,"Delta":562355054},{"NoteNumber":47,"Velocity":74,"Duration":140977,"SoundDuration":140977,"Delta":562355054},{"NoteNumber":63,"Velocity":88,"Duration":400583,"SoundDuration":400583,"Delta":562496032},{"NoteNumber":75,"Velocity":105,"Duration":400583,"SoundDuration":400583,"Delta":562496032},{"NoteNumber":67,"Velocity":88,"Duration":400583,"SoundDuration":400583,"Delta":562496032},{"NoteNumber":48,"Velocity":92,"Duration":400583,"SoundDuration":400583,"Delta":562496032},{"NoteNumber":36,"Velocity":77,"Duration":400583,"SoundDuration":400583,"Delta":562496032},{"NoteNumber":63,"Velocity":59,"Duration":130026,"SoundDuration":130026,"Delta":562899982},{"NoteNumber":67,"Velocity":59,"Duration":130026,"SoundDuration":130026,"Delta":562899982},{"NoteNumber":75,"Velocity":72,"Duration":130026,"SoundDuration":130026,"Delta":562899982},{"NoteNumber":48,"Velocity":62,"Duration":130026,"SoundDuration":130026,"Delta":562899982},{"NoteNumber":36,"Velocity":52,"Duration":130026,"SoundDuration":130026,"Delta":562899982},{"NoteNumber":75,"Velocity":94,"Duration":262238,"SoundDuration":262238,"Delta":563031101},{"NoteNumber":67,"Velocity":79,"Duration":262238,"SoundDuration":262238,"Delta":563031101},{"NoteNumber":63,"Velocity":79,"Duration":262238,"SoundDuration":262238,"Delta":563031101},{"NoteNumber":48,"Velocity":78,"Duration":262238,"SoundDuration":262238,"Delta":563031101},{"NoteNumber":36,"Velocity":63,"Duration":262238,"SoundDuration":262238,"Delta":563031101},{"NoteNumber":67,"Velocity":30,"Duration":140317,"SoundDuration":140317,"Delta":563424458},{"NoteNumber":65,"Velocity":25,"Duration":140317,"SoundDuration":140317,"Delta":563424458},{"NoteNumber":59,"Velocity":22,"Duration":140317,"SoundDuration":140317,"Delta":563424458},{"NoteNumber":62,"Velocity":26,"Duration":140317,"SoundDuration":140317,"Delta":563424458},{"NoteNumber":67,"Velocity":31,"Duration":406051,"SoundDuration":406051,"Delta":563564776},{"NoteNumber":75,"Velocity":37,"Duration":406051,"SoundDuration":406051,"Delta":563564776},{"NoteNumber":63,"Velocity":32,"Duration":406051,"SoundDuration":406051,"Delta":563564776},{"NoteNumber":60,"Velocity":27,"Duration":406051,"SoundDuration":406051,"Delta":563564776},{"NoteNumber":75,"Velocity":30,"Duration":130597,"SoundDuration":130597,"Delta":563974239},{"NoteNumber":67,"Velocity":25,"Duration":130597,"SoundDuration":130597,"Delta":563974239},{"NoteNumber":63,"Velocity":26,"Duration":130597,"SoundDuration":130597,"Delta":563974239},{"NoteNumber":60,"Velocity":22,"Duration":130597,"SoundDuration":130597,"Delta":563974239},{"NoteNumber":75,"Velocity":39,"Duration":263389,"SoundDuration":263389,"Delta":564105934},{"NoteNumber":67,"Velocity":33,"Duration":263389,"SoundDuration":263389,"Delta":564105934},{"NoteNumber":63,"Velocity":32,"Duration":263389,"SoundDuration":263389,"Delta":564105934},{"NoteNumber":60,"Velocity":27,"Duration":263389,"SoundDuration":263389,"Delta":564105934},{"NoteNumber":64,"Velocity":71,"Duration":140977,"SoundDuration":140977,"Delta":564510300},{"NoteNumber":67,"Velocity":71,"Duration":140977,"SoundDuration":140977,"Delta":564510300},{"NoteNumber":69,"Velocity":85,"Duration":140977,"SoundDuration":140977,"Delta":564510300},{"NoteNumber":37,"Velocity":62,"Duration":140977,"SoundDuration":140977,"Delta":564510300},{"NoteNumber":49,"Velocity":74,"Duration":140977,"SoundDuration":140977,"Delta":564510300},{"NoteNumber":65,"Velocity":88,"Duration":400583,"SoundDuration":400583,"Delta":564651278},{"NoteNumber":77,"Velocity":105,"Duration":400583,"SoundDuration":400583,"Delta":564651278},{"NoteNumber":69,"Velocity":88,"Duration":400583,"SoundDuration":400583,"Delta":564651278},{"NoteNumber":50,"Velocity":92,"Duration":400583,"SoundDuration":400583,"Delta":564651278},{"NoteNumber":38,"Velocity":77,"Duration":400583,"SoundDuration":400583,"Delta":564651278},{"NoteNumber":77,"Velocity":72,"Duration":130026,"SoundDuration":130026,"Delta":565055228},{"NoteNumber":69,"Velocity":59,"Duration":130026,"SoundDuration":130026,"Delta":565055228},{"NoteNumber":65,"Velocity":59,"Duration":130026,"SoundDuration":130026,"Delta":565055228},{"NoteNumber":50,"Velocity":62,"Duration":130026,"SoundDuration":130026,"Delta":565055228},{"NoteNumber":38,"Velocity":52,"Duration":130026,"SoundDuration":130026,"Delta":565055228},{"NoteNumber":69,"Velocity":79,"Duration":262238,"SoundDuration":262238,"Delta":565186347},{"NoteNumber":77,"Velocity":94,"Duration":262238,"SoundDuration":262238,"Delta":565186347},{"NoteNumber":65,"Velocity":79,"Duration":262238,"SoundDuration":262238,"Delta":565186347},{"NoteNumber":50,"Velocity":78,"Duration":262238,"SoundDuration":262238,"Delta":565186347},{"NoteNumber":38,"Velocity":63,"Duration":262238,"SoundDuration":262238,"Delta":565186347},{"NoteNumber":67,"Velocity":25,"Duration":140317,"SoundDuration":140317,"Delta":565579704},{"NoteNumber":69,"Velocity":30,"Duration":140317,"SoundDuration":140317,"Delta":565579704},{"NoteNumber":61,"Velocity":22,"Duration":140317,"SoundDuration":140317,"Delta":565579704},{"NoteNumber":64,"Velocity":26,"Duration":140317,"SoundDuration":140317,"Delta":565579704},{"NoteNumber":77,"Velocity":37,"Duration":406051,"SoundDuration":406051,"Delta":565720022},{"NoteNumber":69,"Velocity":31,"Duration":406051,"SoundDuration":406051,"Delta":565720022},{"NoteNumber":65,"Velocity":32,"Duration":406051,"SoundDuration":406051,"Delta":565720022},{"NoteNumber":62,"Velocity":27,"Duration":406051,"SoundDuration":406051,"Delta":565720022},{"NoteNumber":69,"Velocity":25,"Duration":130597,"SoundDuration":130597,"Delta":566129485},{"NoteNumber":77,"Velocity":30,"Duration":130597,"SoundDuration":130597,"Delta":566129485},{"NoteNumber":65,"Velocity":26,"Duration":130597,"SoundDuration":130597,"Delta":566129485},{"NoteNumber":62,"Velocity":22,"Duration":130597,"SoundDuration":130597,"Delta":566129485},{"NoteNumber":77,"Velocity":39,"Duration":263389,"SoundDuration":263389,"Delta":566261179},{"NoteNumber":69,"Velocity":33,"Duration":263389,"SoundDuration":263389,"Delta":566261179},{"NoteNumber":65,"Velocity":32,"Duration":263389,"SoundDuration":263389,"Delta":566261179},{"NoteNumber":62,"Velocity":27,"Duration":263389,"SoundDuration":263389,"Delta":566261179},{"NoteNumber":65,"Velocity":65,"Duration":140977,"SoundDuration":140977,"Delta":566665546},{"NoteNumber":68,"Velocity":65,"Duration":140977,"SoundDuration":140977,"Delta":566665546},{"NoteNumber":70,"Velocity":78,"Duration":140977,"SoundDuration":140977,"Delta":566665546},{"NoteNumber":38,"Velocity":57,"Duration":140977,"SoundDuration":140977,"Delta":566665546},{"NoteNumber":50,"Velocity":68,"Duration":140977,"SoundDuration":140977,"Delta":566665546},{"NoteNumber":67,"Velocity":80,"Duration":400583,"SoundDuration":400583,"Delta":566806523},{"NoteNumber":70,"Velocity":80,"Duration":400583,"SoundDuration":400583,"Delta":566806523},{"NoteNumber":79,"Velocity":96,"Duration":400583,"SoundDuration":400583,"Delta":566806523},{"NoteNumber":51,"Velocity":84,"Duration":400583,"SoundDuration":400583,"Delta":566806523},{"NoteNumber":39,"Velocity":70,"Duration":400583,"SoundDuration":400583,"Delta":566806523},{"NoteNumber":67,"Velocity":54,"Duration":130026,"SoundDuration":130026,"Delta":567210473},{"NoteNumber":79,"Velocity":66,"Duration":130026,"SoundDuration":130026,"Delta":567210473},{"NoteNumber":70,"Velocity":54,"Duration":130026,"SoundDuration":130026,"Delta":567210473},{"NoteNumber":51,"Velocity":57,"Duration":130026,"SoundDuration":130026,"Delta":567210473},{"NoteNumber":39,"Velocity":48,"Duration":130026,"SoundDuration":130026,"Delta":567210473},{"NoteNumber":79,"Velocity":86,"Duration":262238,"SoundDuration":262238,"Delta":567341592},{"NoteNumber":70,"Velocity":72,"Duration":262238,"SoundDuration":262238,"Delta":567341592},{"NoteNumber":67,"Velocity":72,"Duration":262238,"SoundDuration":262238,"Delta":567341592},{"NoteNumber":51,"Velocity":71,"Duration":262238,"SoundDuration":262238,"Delta":567341592},{"NoteNumber":39,"Velocity":58,"Duration":262238,"SoundDuration":262238,"Delta":567341592},{"NoteNumber":67,"Velocity":74,"Duration":140977,"SoundDuration":140977,"Delta":568783901},{"NoteNumber":75,"Velocity":90,"Duration":140977,"SoundDuration":140977,"Delta":568783901},{"NoteNumber":39,"Velocity":66,"Duration":140977,"SoundDuration":140977,"Delta":568783901},{"NoteNumber":51,"Velocity":77,"Duration":140977,"SoundDuration":140977,"Delta":568783901},{"NoteNumber":69,"Velocity":92,"Duration":400583,"SoundDuration":400583,"Delta":568924879},{"NoteNumber":72,"Velocity":92,"Duration":400583,"SoundDuration":400583,"Delta":568924879},{"NoteNumber":81,"Velocity":110,"Duration":400583,"SoundDuration":400583,"Delta":568924879},{"NoteNumber":75,"Velocity":92,"Duration":400583,"SoundDuration":400583,"Delta":568924879},{"NoteNumber":41,"Velocity":96,"Duration":400583,"SoundDuration":400583,"Delta":568924879},{"NoteNumber":29,"Velocity":80,"Duration":400583,"SoundDuration":400583,"Delta":568924879},{"NoteNumber":69,"Velocity":67,"Duration":130026,"SoundDuration":130026,"Delta":569328829},{"NoteNumber":72,"Velocity":67,"Duration":130026,"SoundDuration":130026,"Delta":569328829},{"NoteNumber":75,"Velocity":67,"Duration":130026,"SoundDuration":130026,"Delta":569328829},{"NoteNumber":81,"Velocity":82,"Duration":130026,"SoundDuration":130026,"Delta":569328829},{"NoteNumber":41,"Velocity":72,"Duration":130026,"SoundDuration":130026,"Delta":569328829},{"NoteNumber":29,"Velocity":59,"Duration":130026,"SoundDuration":130026,"Delta":569328829},{"NoteNumber":81,"Velocity":108,"Duration":262238,"SoundDuration":262238,"Delta":569459948},{"NoteNumber":72,"Velocity":90,"Duration":262238,"SoundDuration":262238,"Delta":569459948},{"NoteNumber":69,"Velocity":90,"Duration":262238,"SoundDuration":262238,"Delta":569459948},{"NoteNumber":75,"Velocity":90,"Duration":262238,"SoundDuration":262238,"Delta":569459948},{"NoteNumber":41,"Velocity":89,"Duration":262238,"SoundDuration":262238,"Delta":569459948},{"NoteNumber":29,"Velocity":73,"Duration":262238,"SoundDuration":262238,"Delta":569459948},{"NoteNumber":30,"Velocity":33,"Duration":127020,"SoundDuration":127020,"Delta":570690861},{"NoteNumber":29,"Velocity":29,"Duration":127020,"SoundDuration":127020,"Delta":570806334},{"NoteNumber":30,"Velocity":33,"Duration":127020,"SoundDuration":127020,"Delta":570921808},{"NoteNumber":29,"Velocity":29,"Duration":127020,"SoundDuration":127020,"Delta":571037281},{"NoteNumber":30,"Velocity":33,"Duration":126551,"SoundDuration":126551,"Delta":571152755},{"NoteNumber":86,"Velocity":57,"Duration":110782,"SoundDuration":110782,"Delta":571268228},{"NoteNumber":82,"Velocity":47,"Duration":110782,"SoundDuration":110782,"Delta":571268228},{"NoteNumber":77,"Velocity":47,"Duration":110782,"SoundDuration":110782,"Delta":571268228},{"NoteNumber":74,"Velocity":47,"Duration":110782,"SoundDuration":110782,"Delta":571268228},{"NoteNumber":29,"Velocity":29,"Duration":121861,"SoundDuration":121861,"Delta":571268228},{"NoteNumber":82,"Velocity":42,"Duration":166174,"SoundDuration":166174,"Delta":571379011},{"NoteNumber":74,"Velocity":42,"Duration":166174,"SoundDuration":166174,"Delta":571379011},{"NoteNumber":86,"Velocity":51,"Duration":166174,"SoundDuration":166174,"Delta":571379011},{"NoteNumber":77,"Velocity":42,"Duration":166174,"SoundDuration":166174,"Delta":571379011},{"NoteNumber":33,"Velocity":33,"Duration":121861,"SoundDuration":121861,"Delta":571379011},{"NoteNumber":34,"Velocity":28,"Duration":121861,"SoundDuration":121861,"Delta":571489794},{"NoteNumber":77,"Velocity":45,"Duration":55391,"SoundDuration":55391,"Delta":571600577},{"NoteNumber":82,"Velocity":45,"Duration":55391,"SoundDuration":55391,"Delta":571600577},{"NoteNumber":74,"Velocity":45,"Duration":55391,"SoundDuration":55391,"Delta":571600577},{"NoteNumber":87,"Velocity":55,"Duration":55391,"SoundDuration":55391,"Delta":571600577},{"NoteNumber":33,"Velocity":35,"Duration":123398,"SoundDuration":123398,"Delta":571600577},{"NoteNumber":82,"Velocity":47,"Duration":63078,"SoundDuration":63078,"Delta":571711359},{"NoteNumber":86,"Velocity":55,"Duration":63078,"SoundDuration":63078,"Delta":571711359},{"NoteNumber":77,"Velocity":47,"Duration":63078,"SoundDuration":63078,"Delta":571711359},{"NoteNumber":74,"Velocity":47,"Duration":63078,"SoundDuration":63078,"Delta":571711359},{"NoteNumber":34,"Velocity":30,"Duration":138166,"SoundDuration":138166,"Delta":571711359},{"NoteNumber":86,"Velocity":62,"Duration":60048,"SoundDuration":60048,"Delta":571837516},{"NoteNumber":77,"Velocity":51,"Duration":60048,"SoundDuration":60048,"Delta":571837516},{"NoteNumber":74,"Velocity":51,"Duration":60048,"SoundDuration":60048,"Delta":571837516},{"NoteNumber":82,"Velocity":51,"Duration":60048,"SoundDuration":60048,"Delta":571837516},{"NoteNumber":30,"Velocity":36,"Duration":132105,"SoundDuration":132105,"Delta":571837516},{"NoteNumber":29,"Velocity":32,"Duration":132105,"SoundDuration":132105,"Delta":571957612},{"NoteNumber":74,"Velocity":49,"Duration":60048,"SoundDuration":60048,"Delta":572077708},{"NoteNumber":70,"Velocity":49,"Duration":60048,"SoundDuration":60048,"Delta":572077708},{"NoteNumber":77,"Velocity":49,"Duration":60048,"SoundDuration":60048,"Delta":572077708},{"NoteNumber":82,"Velocity":59,"Duration":60048,"SoundDuration":60048,"Delta":572077708},{"NoteNumber":30,"Velocity":38,"Duration":131823,"SoundDuration":131823,"Delta":572077708},{"NoteNumber":29,"Velocity":43,"Duration":130379,"SoundDuration":130379,"Delta":572197804},{"NoteNumber":65,"Velocity":76,"Duration":65502,"SoundDuration":65502,"Delta":572315083},{"NoteNumber":70,"Velocity":76,"Duration":65502,"SoundDuration":65502,"Delta":572315083},{"NoteNumber":62,"Velocity":76,"Duration":65502,"SoundDuration":65502,"Delta":572315083},{"NoteNumber":74,"Velocity":92,"Duration":65502,"SoundDuration":65502,"Delta":572315083},{"NoteNumber":34,"Velocity":63,"Duration":569691,"SoundDuration":569691,"Delta":572315083},{"NoteNumber":42,"Velocity":63,"Duration":131004,"SoundDuration":131004,"Delta":572315083},{"NoteNumber":41,"Velocity":53,"Duration":131004,"SoundDuration":131004,"Delta":572446087},{"NoteNumber":62,"Velocity":70,"Duration":65502,"SoundDuration":65502,"Delta":572577091},{"NoteNumber":65,"Velocity":70,"Duration":65502,"SoundDuration":65502,"Delta":572577091},{"NoteNumber":58,"Velocity":70,"Duration":65502,"SoundDuration":65502,"Delta":572577091},{"NoteNumber":70,"Velocity":84,"Duration":65502,"SoundDuration":65502,"Delta":572577091},{"NoteNumber":42,"Velocity":61,"Duration":131004,"SoundDuration":131004,"Delta":572577091},{"NoteNumber":41,"Velocity":55,"Duration":176678,"SoundDuration":176678,"Delta":572708096},{"NoteNumber":77,"Velocity":42,"Duration":343533,"SoundDuration":343533,"Delta":572884774},{"NoteNumber":86,"Velocity":42,"Duration":343533,"SoundDuration":343533,"Delta":572884774},{"NoteNumber":82,"Velocity":42,"Duration":343533,"SoundDuration":343533,"Delta":572884774},{"NoteNumber":89,"Velocity":51,"Duration":343533,"SoundDuration":343533,"Delta":572884774},{"NoteNumber":30,"Velocity":42,"Duration":127020,"SoundDuration":127020,"Delta":572884774},{"NoteNumber":29,"Velocity":29,"Duration":127020,"SoundDuration":127020,"Delta":573000248},{"NoteNumber":30,"Velocity":33,"Duration":126551,"SoundDuration":126551,"Delta":573115721},{"NoteNumber":86,"Velocity":47,"Duration":110782,"SoundDuration":110782,"Delta":573231195},{"NoteNumber":77,"Velocity":47,"Duration":110782,"SoundDuration":110782,"Delta":573231195},{"NoteNumber":89,"Velocity":57,"Duration":110782,"SoundDuration":110782,"Delta":573231195},{"NoteNumber":82,"Velocity":47,"Duration":110782,"SoundDuration":110782,"Delta":573231195},{"NoteNumber":29,"Velocity":29,"Duration":121861,"SoundDuration":121861,"Delta":573231195},{"NoteNumber":82,"Velocity":42,"Duration":166174,"SoundDuration":166174,"Delta":573341977},{"NoteNumber":77,"Velocity":42,"Duration":166174,"SoundDuration":166174,"Delta":573341977},{"NoteNumber":86,"Velocity":42,"Duration":166174,"SoundDuration":166174,"Delta":573341977},{"NoteNumber":89,"Velocity":51,"Duration":166174,"SoundDuration":166174,"Delta":573341977},{"NoteNumber":33,"Velocity":33,"Duration":121861,"SoundDuration":121861,"Delta":573341977},{"NoteNumber":34,"Velocity":28,"Duration":121861,"SoundDuration":121861,"Delta":573452760},{"NoteNumber":91,"Velocity":55,"Duration":55391,"SoundDuration":55391,"Delta":573563543},{"NoteNumber":86,"Velocity":45,"Duration":55391,"SoundDuration":55391,"Delta":573563543},{"NoteNumber":77,"Velocity":45,"Duration":55391,"SoundDuration":55391,"Delta":573563543},{"NoteNumber":82,"Velocity":45,"Duration":55391,"SoundDuration":55391,"Delta":573563543},{"NoteNumber":33,"Velocity":35,"Duration":123398,"SoundDuration":123398,"Delta":573563543},{"NoteNumber":77,"Velocity":47,"Duration":63078,"SoundDuration":63078,"Delta":573674326},{"NoteNumber":89,"Velocity":55,"Duration":63078,"SoundDuration":63078,"Delta":573674326},{"NoteNumber":82,"Velocity":47,"Duration":63078,"SoundDuration":63078,"Delta":573674326},{"NoteNumber":86,"Velocity":47,"Duration":63078,"SoundDuration":63078,"Delta":573674326},{"NoteNumber":34,"Velocity":30,"Duration":138166,"SoundDuration":138166,"Delta":573674326},{"NoteNumber":89,"Velocity":62,"Duration":60048,"SoundDuration":60048,"Delta":573800482},{"NoteNumber":82,"Velocity":51,"Duration":60048,"SoundDuration":60048,"Delta":573800482},{"NoteNumber":77,"Velocity":51,"Duration":60048,"SoundDuration":60048,"Delta":573800482},{"NoteNumber":86,"Velocity":51,"Duration":60048,"SoundDuration":60048,"Delta":573800482},{"NoteNumber":30,"Velocity":36,"Duration":132105,"SoundDuration":132105,"Delta":573800482},{"NoteNumber":29,"Velocity":32,"Duration":132105,"SoundDuration":132105,"Delta":573920578},{"NoteNumber":77,"Velocity":49,"Duration":60048,"SoundDuration":60048,"Delta":574040674},{"NoteNumber":74,"Velocity":49,"Duration":60048,"SoundDuration":60048,"Delta":574040674},{"NoteNumber":82,"Velocity":49,"Duration":60048,"SoundDuration":60048,"Delta":574040674},{"NoteNumber":86,"Velocity":59,"Duration":60048,"SoundDuration":60048,"Delta":574040674},{"NoteNumber":30,"Velocity":38,"Duration":131599,"SoundDuration":131599,"Delta":574040674},{"NoteNumber":29,"Velocity":34,"Duration":127753,"SoundDuration":127753,"Delta":574160770},{"NoteNumber":77,"Velocity":92,"Duration":63613,"SoundDuration":63613,"Delta":574275801},{"NoteNumber":70,"Velocity":76,"Duration":63613,"SoundDuration":63613,"Delta":574275801},{"NoteNumber":65,"Velocity":76,"Duration":63613,"SoundDuration":63613,"Delta":574275801},{"NoteNumber":74,"Velocity":76,"Duration":63613,"SoundDuration":63613,"Delta":574275801},{"NoteNumber":34,"Velocity":63,"Duration":526049,"SoundDuration":526049,"Delta":574275801},{"NoteNumber":42,"Velocity":63,"Duration":127226,"SoundDuration":127226,"Delta":574275801},{"NoteNumber":41,"Velocity":53,"Duration":127226,"SoundDuration":127226,"Delta":574403027},{"NoteNumber":74,"Velocity":84,"Duration":63613,"SoundDuration":63613,"Delta":574530254},{"NoteNumber":65,"Velocity":70,"Duration":63613,"SoundDuration":63613,"Delta":574530254},{"NoteNumber":62,"Velocity":70,"Duration":63613,"SoundDuration":63613,"Delta":574530254},{"NoteNumber":70,"Velocity":70,"Duration":63613,"SoundDuration":63613,"Delta":574530254},{"NoteNumber":42,"Velocity":61,"Duration":127226,"SoundDuration":127226,"Delta":574530254},{"NoteNumber":41,"Velocity":55,"Duration":144369,"SoundDuration":144369,"Delta":574657480},{"NoteNumber":89,"Velocity":55,"Duration":60048,"SoundDuration":60048,"Delta":574801850},{"NoteNumber":86,"Velocity":45,"Duration":60048,"SoundDuration":60048,"Delta":574801850},{"NoteNumber":30,"Velocity":36,"Duration":132105,"SoundDuration":132105,"Delta":574801850},{"NoteNumber":29,"Velocity":32,"Duration":132105,"SoundDuration":132105,"Delta":574921946},{"NoteNumber":86,"Velocity":53,"Duration":60048,"SoundDuration":60048,"Delta":575042042},{"NoteNumber":82,"Velocity":44,"Duration":60048,"SoundDuration":60048,"Delta":575042042},{"NoteNumber":30,"Velocity":38,"Duration":132502,"SoundDuration":132502,"Delta":575042042},{"NoteNumber":29,"Velocity":34,"Duration":136956,"SoundDuration":136956,"Delta":575162138},{"NoteNumber":77,"Velocity":90,"Duration":64433,"SoundDuration":64433,"Delta":575286207},{"NoteNumber":74,"Velocity":74,"Duration":64433,"SoundDuration":64433,"Delta":575286207},{"NoteNumber":34,"Velocity":50,"Duration":524339,"SoundDuration":524339,"Delta":575286207},{"NoteNumber":42,"Velocity":50,"Duration":128866,"SoundDuration":128866,"Delta":575286207},{"NoteNumber":41,"Velocity":53,"Duration":128866,"SoundDuration":128866,"Delta":575415073},{"NoteNumber":74,"Velocity":75,"Duration":64433,"SoundDuration":64433,"Delta":575543939},{"NoteNumber":70,"Velocity":63,"Duration":64433,"SoundDuration":64433,"Delta":575543939},{"NoteNumber":42,"Velocity":61,"Duration":128866,"SoundDuration":128866,"Delta":575543939},{"NoteNumber":41,"Velocity":55,"Duration":137741,"SoundDuration":137741,"Delta":575672805},{"NoteNumber":86,"Velocity":55,"Duration":60048,"SoundDuration":60048,"Delta":575810546},{"NoteNumber":82,"Velocity":45,"Duration":60048,"SoundDuration":60048,"Delta":575810546},{"NoteNumber":30,"Velocity":36,"Duration":132105,"SoundDuration":132105,"Delta":575810546},{"NoteNumber":29,"Velocity":32,"Duration":132105,"SoundDuration":132105,"Delta":575930642},{"NoteNumber":82,"Velocity":53,"Duration":60048,"SoundDuration":60048,"Delta":576050738},{"NoteNumber":77,"Velocity":44,"Duration":60048,"SoundDuration":60048,"Delta":576050738},{"NoteNumber":30,"Velocity":38,"Duration":132554,"SoundDuration":132554,"Delta":576050738},{"NoteNumber":29,"Velocity":34,"Duration":137526,"SoundDuration":137526,"Delta":576170834},{"NoteNumber":74,"Velocity":90,"Duration":64710,"SoundDuration":64710,"Delta":576295419},{"NoteNumber":70,"Velocity":74,"Duration":64710,"SoundDuration":64710,"Delta":576295419},{"NoteNumber":34,"Velocity":63,"Duration":525377,"SoundDuration":525377,"Delta":576295419},{"NoteNumber":42,"Velocity":63,"Duration":129421,"SoundDuration":129421,"Delta":576295419},{"NoteNumber":41,"Velocity":53,"Duration":129421,"SoundDuration":129421,"Delta":576424841},{"NoteNumber":70,"Velocity":75,"Duration":64711,"SoundDuration":64711,"Delta":576554263},{"NoteNumber":65,"Velocity":63,"Duration":64711,"SoundDuration":64711,"Delta":576554263},{"NoteNumber":42,"Velocity":61,"Duration":129422,"SoundDuration":129422,"Delta":576554263},{"NoteNumber":41,"Velocity":55,"Duration":137111,"SoundDuration":137111,"Delta":576683685},{"NoteNumber":82,"Velocity":55,"Duration":60048,"SoundDuration":60048,"Delta":576820797},{"NoteNumber":77,"Velocity":45,"Duration":60048,"SoundDuration":60048,"Delta":576820797},{"NoteNumber":30,"Velocity":46,"Duration":132105,"SoundDuration":132105,"Delta":576820797},{"NoteNumber":29,"Velocity":32,"Duration":132105,"SoundDuration":132105,"Delta":576940893},{"NoteNumber":77,"Velocity":53,"Duration":60048,"SoundDuration":60048,"Delta":577060989},{"NoteNumber":74,"Velocity":44,"Duration":60048,"SoundDuration":60048,"Delta":577060989},{"NoteNumber":30,"Velocity":38,"Duration":132764,"SoundDuration":132764,"Delta":577060989},{"NoteNumber":29,"Velocity":34,"Duration":139631,"SoundDuration":139631,"Delta":577181085},{"NoteNumber":70,"Velocity":90,"Duration":64710,"SoundDuration":64710,"Delta":577307774},{"NoteNumber":65,"Velocity":74,"Duration":64710,"SoundDuration":64710,"Delta":577307774},{"NoteNumber":34,"Velocity":63,"Duration":525377,"SoundDuration":525377,"Delta":577307774},{"NoteNumber":42,"Velocity":63,"Duration":129421,"SoundDuration":129421,"Delta":577307774},{"NoteNumber":41,"Velocity":53,"Duration":129421,"SoundDuration":129421,"Delta":577437196},{"NoteNumber":62,"Velocity":63,"Duration":64711,"SoundDuration":64711,"Delta":577566618},{"NoteNumber":65,"Velocity":75,"Duration":64711,"SoundDuration":64711,"Delta":577566618},{"NoteNumber":42,"Velocity":61,"Duration":129422,"SoundDuration":129422,"Delta":577566618},{"NoteNumber":41,"Velocity":55,"Duration":137111,"SoundDuration":137111,"Delta":577696040},{"NoteNumber":69,"Velocity":42,"Duration":969230,"SoundDuration":969230,"Delta":577833151},{"NoteNumber":75,"Velocity":52,"Duration":969230,"SoundDuration":969230,"Delta":577833151},{"NoteNumber":46,"Velocity":35,"Duration":484872,"SoundDuration":484872,"Delta":577833151},{"NoteNumber":54,"Velocity":39,"Duration":132105,"SoundDuration":132105,"Delta":577833151},{"NoteNumber":53,"Velocity":34,"Duration":132105,"SoundDuration":132105,"Delta":577953247},{"NoteNumber":54,"Velocity":40,"Duration":132554,"SoundDuration":132554,"Delta":578073343},{"NoteNumber":53,"Velocity":36,"Duration":136594,"SoundDuration":136594,"Delta":578193439},{"NoteNumber":54,"Velocity":39,"Duration":132105,"SoundDuration":132105,"Delta":578318024},{"NoteNumber":53,"Velocity":34,"Duration":132105,"SoundDuration":132105,"Delta":578438120},{"NoteNumber":54,"Velocity":40,"Duration":132502,"SoundDuration":132502,"Delta":578558216},{"NoteNumber":53,"Velocity":36,"Duration":136079,"SoundDuration":136079,"Delta":578678312},{"NoteNumber":74,"Velocity":45,"Duration":60048,"SoundDuration":60048,"Delta":578802382},{"NoteNumber":77,"Velocity":55,"Duration":60048,"SoundDuration":60048,"Delta":578802382},{"NoteNumber":70,"Velocity":44,"Duration":60048,"SoundDuration":60048,"Delta":579042574},{"NoteNumber":74,"Velocity":53,"Duration":60048,"SoundDuration":60048,"Delta":579042574},{"NoteNumber":30,"Velocity":48,"Duration":120095,"SoundDuration":120095,"Delta":579042574},{"NoteNumber":29,"Velocity":43,"Duration":136487,"SoundDuration":136487,"Delta":579162670},{"NoteNumber":62,"Velocity":61,"Duration":62814,"SoundDuration":62814,"Delta":579299157},{"NoteNumber":65,"Velocity":75,"Duration":62814,"SoundDuration":62814,"Delta":579299157},{"NoteNumber":34,"Velocity":60,"Duration":513996,"SoundDuration":513996,"Delta":579299157},{"NoteNumber":42,"Velocity":60,"Duration":125628,"SoundDuration":125628,"Delta":579299157},{"NoteNumber":41,"Velocity":51,"Duration":125628,"SoundDuration":125628,"Delta":579424786},{"NoteNumber":58,"Velocity":57,"Duration":62814,"SoundDuration":62814,"Delta":579550414},{"NoteNumber":62,"Velocity":68,"Duration":62814,"SoundDuration":62814,"Delta":579550414},{"NoteNumber":42,"Velocity":59,"Duration":125628,"SoundDuration":125628,"Delta":579550414},{"NoteNumber":41,"Velocity":53,"Duration":137111,"SoundDuration":137111,"Delta":579676042},{"NoteNumber":70,"Velocity":51,"Duration":60048,"SoundDuration":60048,"Delta":579813154},{"NoteNumber":74,"Velocity":62,"Duration":60048,"SoundDuration":60048,"Delta":579813154},{"NoteNumber":30,"Velocity":46,"Duration":132105,"SoundDuration":132105,"Delta":579813154},{"NoteNumber":29,"Velocity":41,"Duration":132105,"SoundDuration":132105,"Delta":579933250},{"NoteNumber":65,"Velocity":49,"Duration":60048,"SoundDuration":60048,"Delta":580053346},{"NoteNumber":70,"Velocity":59,"Duration":60048,"SoundDuration":60048,"Delta":580053346},{"NoteNumber":30,"Velocity":48,"Duration":132818,"SoundDuration":132818,"Delta":580053346},{"NoteNumber":29,"Velocity":43,"Duration":139736,"SoundDuration":139736,"Delta":580173442},{"NoteNumber":62,"Velocity":79,"Duration":62552,"SoundDuration":62552,"Delta":580300668},{"NoteNumber":58,"Velocity":65,"Duration":62552,"SoundDuration":62552,"Delta":580300668},{"NoteNumber":34,"Velocity":60,"Duration":512424,"SoundDuration":512424,"Delta":580300668},{"NoteNumber":42,"Velocity":60,"Duration":125104,"SoundDuration":125104,"Delta":580300668},{"NoteNumber":41,"Velocity":51,"Duration":125104,"SoundDuration":125104,"Delta":580425772},{"NoteNumber":58,"Velocity":72,"Duration":62552,"SoundDuration":62552,"Delta":580550877},{"NoteNumber":53,"Velocity":60,"Duration":62552,"SoundDuration":62552,"Delta":580550877},{"NoteNumber":42,"Velocity":59,"Duration":125104,"SoundDuration":125104,"Delta":580550877},{"NoteNumber":41,"Velocity":53,"Duration":137111,"SoundDuration":137111,"Delta":580675981},{"NoteNumber":65,"Velocity":51,"Duration":60048,"SoundDuration":60048,"Delta":580813092},{"NoteNumber":70,"Velocity":62,"Duration":60048,"SoundDuration":60048,"Delta":580813092},{"NoteNumber":30,"Velocity":46,"Duration":132105,"SoundDuration":132105,"Delta":580813092},{"NoteNumber":29,"Velocity":41,"Duration":132105,"SoundDuration":132105,"Delta":580933188},{"NoteNumber":62,"Velocity":49,"Duration":60048,"SoundDuration":60048,"Delta":581053284},{"NoteNumber":65,"Velocity":59,"Duration":60048,"SoundDuration":60048,"Delta":581053284},{"NoteNumber":30,"Velocity":48,"Duration":133500,"SoundDuration":133500,"Delta":581053284},{"NoteNumber":29,"Velocity":43,"Duration":146611,"SoundDuration":146611,"Delta":581173380},{"NoteNumber":53,"Velocity":65,"Duration":62814,"SoundDuration":62814,"Delta":581307429},{"NoteNumber":58,"Velocity":79,"Duration":62814,"SoundDuration":62814,"Delta":581307429},{"NoteNumber":34,"Velocity":60,"Duration":513996,"SoundDuration":513996,"Delta":581307429},{"NoteNumber":42,"Velocity":60,"Duration":125628,"SoundDuration":125628,"Delta":581307429},{"NoteNumber":41,"Velocity":51,"Duration":125628,"SoundDuration":125628,"Delta":581433057},{"NoteNumber":50,"Velocity":60,"Duration":62814,"SoundDuration":62814,"Delta":581558685},{"NoteNumber":53,"Velocity":72,"Duration":62814,"SoundDuration":62814,"Delta":581558685},{"NoteNumber":42,"Velocity":59,"Duration":125628,"SoundDuration":125628,"Delta":581558685},{"NoteNumber":41,"Velocity":53,"Duration":137111,"SoundDuration":137111,"Delta":581684313},{"NoteNumber":57,"Velocity":42,"Duration":969230,"SoundDuration":969230,"Delta":581821425},{"NoteNumber":63,"Velocity":52,"Duration":969230,"SoundDuration":969230,"Delta":581821425},{"NoteNumber":34,"Velocity":35,"Duration":969230,"SoundDuration":969230,"Delta":581821425},{"NoteNumber":42,"Velocity":39,"Duration":132105,"SoundDuration":132105,"Delta":581821425},{"NoteNumber":41,"Velocity":34,"Duration":132105,"SoundDuration":132105,"Delta":581941521},{"NoteNumber":42,"Velocity":40,"Duration":132554,"SoundDuration":132554,"Delta":582061617},{"NoteNumber":41,"Velocity":36,"Duration":136594,"SoundDuration":136594,"Delta":582181713},{"NoteNumber":42,"Velocity":39,"Duration":132105,"SoundDuration":132105,"Delta":582306298},{"NoteNumber":41,"Velocity":34,"Duration":132105,"SoundDuration":132105,"Delta":582426394},{"NoteNumber":42,"Velocity":40,"Duration":132502,"SoundDuration":132502,"Delta":582546490},{"NoteNumber":41,"Velocity":36,"Duration":124069,"SoundDuration":124069,"Delta":582666586},{"NoteNumber":45,"Velocity":39,"Duration":128504,"SoundDuration":128504,"Delta":582790655},{"NoteNumber":46,"Velocity":34,"Duration":128504,"SoundDuration":128504,"Delta":582907478},{"NoteNumber":45,"Velocity":40,"Duration":127900,"SoundDuration":127900,"Delta":583024300},{"NoteNumber":57,"Velocity":42,"Duration":55391,"SoundDuration":55391,"Delta":583141123},{"NoteNumber":66,"Velocity":51,"Duration":55391,"SoundDuration":55391,"Delta":583141123},{"NoteNumber":63,"Velocity":42,"Duration":55391,"SoundDuration":55391,"Delta":583141123},{"NoteNumber":46,"Velocity":36,"Duration":121861,"SoundDuration":121861,"Delta":583141123},{"NoteNumber":66,"Velocity":45,"Duration":55391,"SoundDuration":55391,"Delta":583251905},{"NoteNumber":63,"Velocity":37,"Duration":55391,"SoundDuration":55391,"Delta":583251905},{"NoteNumber":57,"Velocity":37,"Duration":55391,"SoundDuration":55391,"Delta":583251905},{"NoteNumber":45,"Velocity":39,"Duration":121861,"SoundDuration":121861,"Delta":583251905},{"NoteNumber":46,"Velocity":34,"Duration":121861,"SoundDuration":121861,"Delta":583362688},{"NoteNumber":58,"Velocity":40,"Duration":55391,"SoundDuration":55391,"Delta":583473471},{"NoteNumber":65,"Velocity":49,"Duration":55391,"SoundDuration":55391,"Delta":583473471},{"NoteNumber":62,"Velocity":40,"Duration":55391,"SoundDuration":55391,"Delta":583473471},{"NoteNumber":45,"Velocity":40,"Duration":123398,"SoundDuration":123398,"Delta":583473471},{"NoteNumber":46,"Velocity":36,"Duration":126156,"SoundDuration":126156,"Delta":583584254},{"NoteNumber":34,"Velocity":35,"Duration":917046,"SoundDuration":917046,"Delta":583710410},{"NoteNumber":42,"Velocity":39,"Duration":127511,"SoundDuration":127511,"Delta":583710410},{"NoteNumber":41,"Velocity":34,"Duration":127511,"SoundDuration":127511,"Delta":583826330},{"NoteNumber":42,"Velocity":39,"Duration":126998,"SoundDuration":126998,"Delta":583942250},{"NoteNumber":54,"Velocity":41,"Duration":55391,"SoundDuration":55391,"Delta":584058169},{"NoteNumber":60,"Velocity":41,"Duration":55391,"SoundDuration":55391,"Delta":584058169},{"NoteNumber":57,"Velocity":41,"Duration":55391,"SoundDuration":55391,"Delta":584058169},{"NoteNumber":63,"Velocity":49,"Duration":55391,"SoundDuration":55391,"Delta":584058169},{"NoteNumber":41,"Velocity":35,"Duration":121861,"SoundDuration":121861,"Delta":584058169},{"NoteNumber":54,"Velocity":35,"Duration":55391,"SoundDuration":55391,"Delta":584168952},{"NoteNumber":57,"Velocity":35,"Duration":55391,"SoundDuration":55391,"Delta":584168952},{"NoteNumber":60,"Velocity":35,"Duration":55391,"SoundDuration":55391,"Delta":584168952},{"NoteNumber":63,"Velocity":43,"Duration":55391,"SoundDuration":55391,"Delta":584168952},{"NoteNumber":42,"Velocity":37,"Duration":121861,"SoundDuration":121861,"Delta":584168952},{"NoteNumber":41,"Velocity":32,"Duration":121861,"SoundDuration":121861,"Delta":584279735},{"NoteNumber":53,"Velocity":38,"Duration":55391,"SoundDuration":55391,"Delta":584390518},{"NoteNumber":58,"Velocity":38,"Duration":55391,"SoundDuration":55391,"Delta":584390518},{"NoteNumber":62,"Velocity":46,"Duration":55391,"SoundDuration":55391,"Delta":584390518},{"NoteNumber":42,"Velocity":38,"Duration":123398,"SoundDuration":123398,"Delta":584390518},{"NoteNumber":41,"Velocity":34,"Duration":126156,"SoundDuration":126156,"Delta":584501300},{"NoteNumber":33,"Velocity":36,"Duration":127511,"SoundDuration":127511,"Delta":584627457},{"NoteNumber":34,"Velocity":31,"Duration":127511,"SoundDuration":127511,"Delta":584743377},{"NoteNumber":33,"Velocity":36,"Duration":126998,"SoundDuration":126998,"Delta":584859296},{"NoteNumber":63,"Velocity":46,"Duration":55391,"SoundDuration":55391,"Delta":584975216},{"NoteNumber":54,"Velocity":38,"Duration":55391,"SoundDuration":55391,"Delta":584975216},{"NoteNumber":57,"Velocity":38,"Duration":55391,"SoundDuration":55391,"Delta":584975216},{"NoteNumber":60,"Velocity":38,"Duration":55391,"SoundDuration":55391,"Delta":584975216},{"NoteNumber":34,"Velocity":32,"Duration":121861,"SoundDuration":121861,"Delta":584975216},{"NoteNumber":60,"Velocity":33,"Duration":55391,"SoundDuration":55391,"Delta":585085999},{"NoteNumber":57,"Velocity":33,"Duration":55391,"SoundDuration":55391,"Delta":585085999},{"NoteNumber":63,"Velocity":40,"Duration":55391,"SoundDuration":55391,"Delta":585085999},{"NoteNumber":54,"Velocity":33,"Duration":55391,"SoundDuration":55391,"Delta":585085999},{"NoteNumber":33,"Velocity":35,"Duration":121861,"SoundDuration":121861,"Delta":585085999},{"NoteNumber":34,"Velocity":30,"Duration":121861,"SoundDuration":121861,"Delta":585196782},{"NoteNumber":62,"Velocity":43,"Duration":55391,"SoundDuration":55391,"Delta":585307564},{"NoteNumber":53,"Velocity":35,"Duration":55391,"SoundDuration":55391,"Delta":585307564},{"NoteNumber":58,"Velocity":35,"Duration":55391,"SoundDuration":55391,"Delta":585307564},{"NoteNumber":33,"Velocity":35,"Duration":123398,"SoundDuration":123398,"Delta":585307564},{"NoteNumber":34,"Velocity":31,"Duration":126156,"SoundDuration":126156,"Delta":585418347},{"NoteNumber":30,"Velocity":33,"Duration":127511,"SoundDuration":127511,"Delta":585544504},{"NoteNumber":29,"Velocity":29,"Duration":127511,"SoundDuration":127511,"Delta":585660423},{"NoteNumber":30,"Velocity":34,"Duration":126998,"SoundDuration":126998,"Delta":585776343},{"NoteNumber":51,"Velocity":35,"Duration":55391,"SoundDuration":55391,"Delta":585892263},{"NoteNumber":58,"Velocity":35,"Duration":55391,"SoundDuration":55391,"Delta":585892263},{"NoteNumber":54,"Velocity":35,"Duration":55391,"SoundDuration":55391,"Delta":585892263},{"NoteNumber":60,"Velocity":43,"Duration":55391,"SoundDuration":55391,"Delta":585892263},{"NoteNumber":29,"Velocity":30,"Duration":121861,"SoundDuration":121861,"Delta":585892263},{"NoteNumber":51,"Velocity":31,"Duration":55391,"SoundDuration":55391,"Delta":586003046},{"NoteNumber":54,"Velocity":31,"Duration":55391,"SoundDuration":55391,"Delta":586003046},{"NoteNumber":58,"Velocity":31,"Duration":55391,"SoundDuration":55391,"Delta":586003046},{"NoteNumber":60,"Velocity":37,"Duration":55391,"SoundDuration":55391,"Delta":586003046},{"NoteNumber":30,"Velocity":32,"Duration":121861,"SoundDuration":121861,"Delta":586003046},{"NoteNumber":29,"Velocity":28,"Duration":121861,"SoundDuration":121861,"Delta":586113828},{"NoteNumber":58,"Velocity":40,"Duration":55391,"SoundDuration":55391,"Delta":586224611},{"NoteNumber":50,"Velocity":32,"Duration":55391,"SoundDuration":55391,"Delta":586224611},{"NoteNumber":53,"Velocity":32,"Duration":55391,"SoundDuration":55391,"Delta":586224611},{"NoteNumber":41,"Velocity":32,"Duration":123398,"SoundDuration":123398,"Delta":586224611},{"NoteNumber":34,"Velocity":32,"Duration":123398,"SoundDuration":123398,"Delta":586224611},{"NoteNumber":29,"Velocity":29,"Duration":126156,"SoundDuration":126156,"Delta":586335394},{"NoteNumber":41,"Velocity":32,"Duration":127511,"SoundDuration":127511,"Delta":586461550},{"NoteNumber":34,"Velocity":31,"Duration":127511,"SoundDuration":127511,"Delta":586461550},{"NoteNumber":29,"Velocity":27,"Duration":127511,"SoundDuration":127511,"Delta":586577470},{"NoteNumber":41,"Velocity":32,"Duration":126998,"SoundDuration":126998,"Delta":586693390},{"NoteNumber":34,"Velocity":32,"Duration":126998,"SoundDuration":126998,"Delta":586693390},{"NoteNumber":50,"Velocity":33,"Duration":55391,"SoundDuration":55391,"Delta":586809310},{"NoteNumber":53,"Velocity":33,"Duration":55391,"SoundDuration":55391,"Delta":586809310},{"NoteNumber":58,"Velocity":33,"Duration":55391,"SoundDuration":55391,"Delta":586809310},{"NoteNumber":62,"Velocity":40,"Duration":55391,"SoundDuration":55391,"Delta":586809310},{"NoteNumber":29,"Velocity":28,"Duration":121861,"SoundDuration":121861,"Delta":586809310},{"NoteNumber":53,"Velocity":29,"Duration":55391,"SoundDuration":55391,"Delta":586920092},{"NoteNumber":50,"Velocity":29,"Duration":55391,"SoundDuration":55391,"Delta":586920092},{"NoteNumber":58,"Velocity":29,"Duration":55391,"SoundDuration":55391,"Delta":586920092},{"NoteNumber":62,"Velocity":36,"Duration":55391,"SoundDuration":55391,"Delta":586920092},{"NoteNumber":41,"Velocity":32,"Duration":121861,"SoundDuration":121861,"Delta":586920092},{"NoteNumber":34,"Velocity":31,"Duration":121861,"SoundDuration":121861,"Delta":586920092},{"NoteNumber":29,"Velocity":27,"Duration":121861,"SoundDuration":121861,"Delta":587030875},{"NoteNumber":53,"Velocity":32,"Duration":55391,"SoundDuration":55391,"Delta":587141658},{"NoteNumber":50,"Velocity":32,"Duration":55391,"SoundDuration":55391,"Delta":587141658},{"NoteNumber":58,"Velocity":39,"Duration":55391,"SoundDuration":55391,"Delta":587141658},{"NoteNumber":41,"Velocity":32,"Duration":123398,"SoundDuration":123398,"Delta":587141658},{"NoteNumber":34,"Velocity":32,"Duration":123398,"SoundDuration":123398,"Delta":587141658},{"NoteNumber":29,"Velocity":28,"Duration":126156,"SoundDuration":126156,"Delta":587252441},{"NoteNumber":41,"Velocity":27,"Duration":115919,"SoundDuration":115919,"Delta":587378597},{"NoteNumber":34,"Velocity":23,"Duration":115919,"SoundDuration":115919,"Delta":587494517},{"NoteNumber":53,"Velocity":26,"Duration":226702,"SoundDuration":226702,"Delta":587610437},{"NoteNumber":62,"Velocity":32,"Duration":226702,"SoundDuration":226702,"Delta":587610437},{"NoteNumber":58,"Velocity":26,"Duration":226702,"SoundDuration":226702,"Delta":587610437},{"NoteNumber":50,"Velocity":26,"Duration":226702,"SoundDuration":226702,"Delta":587610437},{"NoteNumber":41,"Velocity":27,"Duration":115919,"SoundDuration":115919,"Delta":587610437},{"NoteNumber":34,"Velocity":24,"Duration":110782,"SoundDuration":110782,"Delta":587726356},{"NoteNumber":41,"Velocity":44,"Duration":110782,"SoundDuration":110782,"Delta":587837139},{"NoteNumber":34,"Velocity":49,"Duration":110782,"SoundDuration":110782,"Delta":587947922},{"NoteNumber":46,"Velocity":55,"Duration":110782,"SoundDuration":110782,"Delta":588058705},{"NoteNumber":41,"Velocity":55,"Duration":110782,"SoundDuration":110782,"Delta":588058705},{"NoteNumber":34,"Velocity":60,"Duration":126156,"SoundDuration":126156,"Delta":588169487},{"NoteNumber":41,"Velocity":66,"Duration":122623,"SoundDuration":122623,"Delta":588295644},{"NoteNumber":46,"Velocity":66,"Duration":122623,"SoundDuration":122623,"Delta":588295644},{"NoteNumber":34,"Velocity":70,"Duration":129174,"SoundDuration":129174,"Delta":588418268},{"NoteNumber":41,"Velocity":75,"Duration":136962,"SoundDuration":136962,"Delta":588547443},{"NoteNumber":46,"Velocity":75,"Duration":136962,"SoundDuration":136962,"Delta":588547443},{"NoteNumber":34,"Velocity":81,"Duration":181723,"SoundDuration":181723,"Delta":588684405},{"NoteNumber":89,"Velocity":100,"Duration":435413,"SoundDuration":435413,"Delta":588866129},{"NoteNumber":86,"Velocity":100,"Duration":435413,"SoundDuration":435413,"Delta":588866129},{"NoteNumber":82,"Velocity":100,"Duration":435413,"SoundDuration":435413,"Delta":588866129},{"NoteNumber":94,"Velocity":119,"Duration":435413,"SoundDuration":435413,"Delta":588866129},{"NoteNumber":46,"Velocity":81,"Duration":435413,"SoundDuration":435413,"Delta":588866129},{"NoteNumber":50,"Velocity":81,"Duration":435413,"SoundDuration":435413,"Delta":588866129},{"NoteNumber":53,"Velocity":81,"Duration":435413,"SoundDuration":435413,"Delta":588866129},{"NoteNumber":58,"Velocity":97,"Duration":435413,"SoundDuration":435413,"Delta":588866129},{"NoteNumber":70,"Velocity":119,"Duration":1741654,"SoundDuration":1741654,"Delta":589736956},{"NoteNumber":58,"Velocity":100,"Duration":1741654,"SoundDuration":1741654,"Delta":589736956},{"NoteNumber":34,"Velocity":76,"Duration":1741654,"SoundDuration":1741654,"Delta":589736956},{"NoteNumber":46,"Velocity":92,"Duration":1741654,"SoundDuration":1741654,"Delta":589736956}],"license":{"name":"Creative Commons Attribution-ShareAlike 3.0 Germany","url":"http://creativecommons.org/licenses/by-sa/3.0/de/deed.en","text":"The MIDI, audio (MP3, OGG) and video files of Bernd Krueger are licensed under the cc-by-sa Germany License. This means that you can use and adapt the files, as long as you attribute the copyright holder.\n\nName: Bernd Krueger\nSource: http://www.piano-midi.de\n\nThe distribution or public playback of the files is only allowed under identical license conditions.\n\nThe scores are open source.","attribution":"MIDI files by Bernd Krueger (piano-midi.de)","attributionUrl":"http://www.piano-midi.de"}}