{
  "title": "Mondscheinsonate; der Gräfin Giulietta Guiccardi gewidmet",
  "artist": "Beethoven",
  "durationMs": 124042.69664999997,
  "midiSha256": "1f3ec47ef53eeb2dce70787928f75577b15d07a4241979b7a5250a5849a92106",
  "midiObject": [
    {
      "NoteNumber": 68,
      "Velocity": 62,
      "Duration": 285714,
      "SoundDuration": 285714,
      "Delta": 0
    },
    {
      "NoteNumber": 73,
      "Velocity": 62,
      "Duration": 285714,
      "SoundDuration": 285714,
      "Delta": 0
    },
    {
      "NoteNumber": 65,
      "Velocity": 52,
      "Duration": 285714,
      "SoundDuration": 285714,
      "Delta": 0
    },
    {
      "NoteNumber": 72,
      "Velocity": 65,
      "Duration": 572415,
      "SoundDuration": 572415,
      "Delta": 286310
    },
    {
      "NoteNumber": 68,
      "Velocity": 65,
      "Duration": 572415,
      "SoundDuration": 572415,
      "Delta": 286310
    },
    {
      "NoteNumber": 63,
      "Velocity": 55,
      "Duration": 572415,
      "SoundDuration": 572415,
      "Delta": 286310
    },
    {
      "NoteNumber": 67,
      "Velocity": 58,
      "Duration": 288961,
      "SoundDuration": 288961,
      "Delta": 858124
    },
    {
      "NoteNumber": 70,
      "Velocity": 58,
      "Duration": 288961,
      "SoundDuration": 288961,
      "Delta": 858124
    },
    {
      "NoteNumber": 61,
      "Velocity": 49,
      "Duration": 288961,
      "SoundDuration": 288961,
      "Delta": 858124
    },
    {
      "NoteNumber": 68,
      "Velocity": 54,
      "Duration": 54180,
      "SoundDuration": 54180,
      "Delta": 1147086
    },
    {
      "NoteNumber": 75,
      "Velocity": 54,
      "Duration": 54180,
      "SoundDuration": 54180,
      "Delta": 1147086
    },
    {
      "NoteNumber": 60,
      "Velocity": 46,
      "Duration": 54180,
      "SoundDuration": 54180,
      "Delta": 1147086
    },
    {
      "NoteNumber": 65,
      "Velocity": 53,
      "Duration": 52306,
      "SoundDuration": 52306,
      "Delta": 1725010
    },
    {
      "NoteNumber": 73,
      "Velocity": 53,
      "Duration": 52306,
      "SoundDuration": 52306,
      "Delta": 1725010
    },
    {
      "NoteNumber": 49,
      "Velocity": 44,
      "Duration": 52306,
      "SoundDuration": 52306,
      "Delta": 1725010
    },
    {
      "NoteNumber": 58,
      "Velocity": 44,
      "Duration": 52306,
      "SoundDuration": 52306,
      "Delta": 1725010
    },
    {
      "NoteNumber": 68,
      "Velocity": 53,
      "Duration": 52921,
      "SoundDuration": 52921,
      "Delta": 2003976
    },
    {
      "NoteNumber": 72,
      "Velocity": 53,
      "Duration": 52921,
      "SoundDuration": 52921,
      "Delta": 2003976
    },
    {
      "NoteNumber": 63,
      "Velocity": 45,
      "Duration": 52921,
      "SoundDuration": 52921,
      "Delta": 2003976
    },
    {
      "NoteNumber": 51,
      "Velocity": 45,
      "Duration": 52921,
      "SoundDuration": 52921,
      "Delta": 2003976
    },
    {
      "NoteNumber": 67,
      "Velocity": 52,
      "Duration": 53956,
      "SoundDuration": 53956,
      "Delta": 2566414
    },
    {
      "NoteNumber": 70,
      "Velocity": 52,
      "Duration": 53956,
      "SoundDuration": 53956,
      "Delta": 2566414
    },
    {
      "NoteNumber": 51,
      "Velocity": 42,
      "Duration": 53956,
      "SoundDuration": 53956,
      "Delta": 2566414
    },
    {
      "NoteNumber": 61,
      "Velocity": 42,
      "Duration": 53956,
      "SoundDuration": 53956,
      "Delta": 2566414
    },
    {
      "NoteNumber": 68,
      "Velocity": 51,
      "Duration": 53956,
      "SoundDuration": 53956,
      "Delta": 2854184
    },
    {
      "NoteNumber": 56,
      "Velocity": 41,
      "Duration": 53956,
      "SoundDuration": 53956,
      "Delta": 2854184
    },
    {
      "NoteNumber": 60,
      "Velocity": 41,
      "Duration": 53956,
      "SoundDuration": 53956,
      "Delta": 2854184
    },
    {
      "NoteNumber": 73,
      "Velocity": 65,
      "Duration": 286204,
      "SoundDuration": 286204,
      "Delta": 3429724
    },
    {
      "NoteNumber": 78,
      "Velocity": 65,
      "Duration": 286204,
      "SoundDuration": 286204,
      "Delta": 3429724
    },
    {
      "NoteNumber": 70,
      "Velocity": 55,
      "Duration": 286204,
      "SoundDuration": 286204,
      "Delta": 3429724
    },
    {
      "NoteNumber": 73,
      "Velocity": 65,
      "Duration": 572409,
      "SoundDuration": 572409,
      "Delta": 3715929
    },
    {
      "NoteNumber": 77,
      "Velocity": 65,
      "Duration": 572409,
      "SoundDuration": 572409,
      "Delta": 3715929
    },
    {
      "NoteNumber": 68,
      "Velocity": 55,
      "Duration": 572409,
      "SoundDuration": 572409,
      "Delta": 3715929
    },
    {
      "NoteNumber": 72,
      "Velocity": 61,
      "Duration": 288961,
      "SoundDuration": 288961,
      "Delta": 4288339
    },
    {
      "NoteNumber": 75,
      "Velocity": 61,
      "Duration": 288961,
      "SoundDuration": 288961,
      "Delta": 4288339
    },
    {
      "NoteNumber": 66,
      "Velocity": 52,
      "Duration": 288961,
      "SoundDuration": 288961,
      "Delta": 4288339
    },
    {
      "NoteNumber": 73,
      "Velocity": 56,
      "Duration": 54180,
      "SoundDuration": 54180,
      "Delta": 4577300
    },
    {
      "NoteNumber": 80,
      "Velocity": 56,
      "Duration": 54180,
      "SoundDuration": 54180,
      "Delta": 4577300
    },
    {
      "NoteNumber": 65,
      "Velocity": 47,
      "Duration": 54180,
      "SoundDuration": 54180,
      "Delta": 4577300
    },
    {
      "NoteNumber": 70,
      "Velocity": 55,
      "Duration": 52427,
      "SoundDuration": 52427,
      "Delta": 5155225
    },
    {
      "NoteNumber": 78,
      "Velocity": 55,
      "Duration": 52427,
      "SoundDuration": 52427,
      "Delta": 5155225
    },
    {
      "NoteNumber": 54,
      "Velocity": 47,
      "Duration": 52427,
      "SoundDuration": 52427,
      "Delta": 5155225
    },
    {
      "NoteNumber": 63,
      "Velocity": 47,
      "Duration": 52427,
      "SoundDuration": 52427,
      "Delta": 5155225
    },
    {
      "NoteNumber": 73,
      "Velocity": 55,
      "Duration": 53046,
      "SoundDuration": 53046,
      "Delta": 5434841
    },
    {
      "NoteNumber": 77,
      "Velocity": 55,
      "Duration": 53046,
      "SoundDuration": 53046,
      "Delta": 5434841
    },
    {
      "NoteNumber": 56,
      "Velocity": 47,
      "Duration": 53046,
      "SoundDuration": 53046,
      "Delta": 5434841
    },
    {
      "NoteNumber": 68,
      "Velocity": 47,
      "Duration": 53046,
      "SoundDuration": 53046,
      "Delta": 5434841
    },
    {
      "NoteNumber": 72,
      "Velocity": 53,
      "Duration": 53956,
      "SoundDuration": 53956,
      "Delta": 5998599
    },
    {
      "NoteNumber": 75,
      "Velocity": 53,
      "Duration": 53956,
      "SoundDuration": 53956,
      "Delta": 5998599
    },
    {
      "NoteNumber": 56,
      "Velocity": 45,
      "Duration": 53956,
      "SoundDuration": 53956,
      "Delta": 5998599
    },
    {
      "NoteNumber": 66,
      "Velocity": 45,
      "Duration": 53956,
      "SoundDuration": 53956,
      "Delta": 5998599
    },
    {
      "NoteNumber": 73,
      "Velocity": 50,
      "Duration": 53956,
      "SoundDuration": 53956,
      "Delta": 6286369
    },
    {
      "NoteNumber": 61,
      "Velocity": 44,
      "Duration": 53956,
      "SoundDuration": 53956,
      "Delta": 6286369
    },
    {
      "NoteNumber": 65,
      "Velocity": 44,
      "Duration": 53956,
      "SoundDuration": 53956,
      "Delta": 6286369
    },
    {
      "NoteNumber": 61,
      "Velocity": 65,
      "Duration": 564858,
      "SoundDuration": 564858,
      "Delta": 6861909
    },
    {
      "NoteNumber": 73,
      "Velocity": 65,
      "Duration": 564858,
      "SoundDuration": 564858,
      "Delta": 6861909
    },
    {
      "NoteNumber": 53,
      "Velocity": 47,
      "Duration": 280767,
      "SoundDuration": 280767,
      "Delta": 6861909
    },
    {
      "NoteNumber": 56,
      "Velocity": 47,
      "Duration": 280767,
      "SoundDuration": 280767,
      "Delta": 6861909
    },
    {
      "NoteNumber": 51,
      "Velocity": 55,
      "Duration": 568263,
      "SoundDuration": 568263,
      "Delta": 7142676
    },
    {
      "NoteNumber": 56,
      "Velocity": 55,
      "Duration": 568263,
      "SoundDuration": 568263,
      "Delta": 7142676
    },
    {
      "NoteNumber": 60,
      "Velocity": 65,
      "Duration": 284172,
      "SoundDuration": 284172,
      "Delta": 7426767
    },
    {
      "NoteNumber": 72,
      "Velocity": 65,
      "Duration": 284172,
      "SoundDuration": 284172,
      "Delta": 7426767
    },
    {
      "NoteNumber": 58,
      "Velocity": 65,
      "Duration": 287577,
      "SoundDuration": 287577,
      "Delta": 7710939
    },
    {
      "NoteNumber": 70,
      "Velocity": 65,
      "Duration": 571265,
      "SoundDuration": 571265,
      "Delta": 7710939
    },
    {
      "NoteNumber": 55,
      "Velocity": 49,
      "Duration": 287577,
      "SoundDuration": 287577,
      "Delta": 7710939
    },
    {
      "NoteNumber": 49,
      "Velocity": 49,
      "Duration": 287577,
      "SoundDuration": 287577,
      "Delta": 7710939
    },
    {
      "NoteNumber": 63,
      "Velocity": 65,
      "Duration": 283687,
      "SoundDuration": 283687,
      "Delta": 7998516
    },
    {
      "NoteNumber": 48,
      "Velocity": 55,
      "Duration": 283687,
      "SoundDuration": 283687,
      "Delta": 7998516
    },
    {
      "NoteNumber": 60,
      "Velocity": 55,
      "Duration": 283687,
      "SoundDuration": 283687,
      "Delta": 7998516
    },
    {
      "NoteNumber": 75,
      "Velocity": 65,
      "Duration": 70921,
      "SoundDuration": 70921,
      "Delta": 8282204
    },
    {
      "NoteNumber": 73,
      "Velocity": 62,
      "Duration": 567028,
      "SoundDuration": 567028,
      "Delta": 8565892
    },
    {
      "NoteNumber": 65,
      "Velocity": 62,
      "Duration": 283514,
      "SoundDuration": 283514,
      "Delta": 8565892
    },
    {
      "NoteNumber": 49,
      "Velocity": 48,
      "Duration": 141757,
      "SoundDuration": 141757,
      "Delta": 8565892
    },
    {
      "NoteNumber": 58,
      "Velocity": 48,
      "Duration": 141757,
      "SoundDuration": 141757,
      "Delta": 8565892
    },
    {
      "NoteNumber": 68,
      "Velocity": 62,
      "Duration": 283514,
      "SoundDuration": 283514,
      "Delta": 8849406
    },
    {
      "NoteNumber": 51,
      "Velocity": 52,
      "Duration": 141757,
      "SoundDuration": 141757,
      "Delta": 8849406
    },
    {
      "NoteNumber": 63,
      "Velocity": 52,
      "Duration": 141757,
      "SoundDuration": 141757,
      "Delta": 8849406
    },
    {
      "NoteNumber": 72,
      "Velocity": 62,
      "Duration": 283513,
      "SoundDuration": 283513,
      "Delta": 9132920
    },
    {
      "NoteNumber": 67,
      "Velocity": 58,
      "Duration": 282831,
      "SoundDuration": 282831,
      "Delta": 9416434
    },
    {
      "NoteNumber": 70,
      "Velocity": 58,
      "Duration": 565664,
      "SoundDuration": 565664,
      "Delta": 9416434
    },
    {
      "NoteNumber": 51,
      "Velocity": 45,
      "Duration": 141415,
      "SoundDuration": 141415,
      "Delta": 9416434
    },
    {
      "NoteNumber": 61,
      "Velocity": 45,
      "Duration": 141415,
      "SoundDuration": 141415,
      "Delta": 9416434
    },
    {
      "NoteNumber": 56,
      "Velocity": 48,
      "Duration": 141416,
      "SoundDuration": 141416,
      "Delta": 9699265
    },
    {
      "NoteNumber": 60,
      "Velocity": 48,
      "Duration": 141416,
      "SoundDuration": 141416,
      "Delta": 9699265
    },
    {
      "NoteNumber": 68,
      "Velocity": 56,
      "Duration": 141415,
      "SoundDuration": 141415,
      "Delta": 9982098
    },
    {
      "NoteNumber": 66,
      "Velocity": 66,
      "Duration": 575153,
      "SoundDuration": 575153,
      "Delta": 10264930
    },
    {
      "NoteNumber": 78,
      "Velocity": 66,
      "Duration": 575153,
      "SoundDuration": 575153,
      "Delta": 10264930
    },
    {
      "NoteNumber": 58,
      "Velocity": 49,
      "Duration": 287577,
      "SoundDuration": 287577,
      "Delta": 10264930
    },
    {
      "NoteNumber": 61,
      "Velocity": 49,
      "Duration": 287577,
      "SoundDuration": 287577,
      "Delta": 10264930
    },
    {
      "NoteNumber": 56,
      "Velocity": 56,
      "Duration": 575153,
      "SoundDuration": 575153,
      "Delta": 10552507
    },
    {
      "NoteNumber": 61,
      "Velocity": 56,
      "Duration": 575153,
      "SoundDuration": 575153,
      "Delta": 10552507
    },
    {
      "NoteNumber": 65,
      "Velocity": 65,
      "Duration": 287577,
      "SoundDuration": 287577,
      "Delta": 10840084
    },
    {
      "NoteNumber": 77,
      "Velocity": 65,
      "Duration": 287577,
      "SoundDuration": 287577,
      "Delta": 10840084
    },
    {
      "NoteNumber": 63,
      "Velocity": 65,
      "Duration": 288961,
      "SoundDuration": 288961,
      "Delta": 11127661
    },
    {
      "NoteNumber": 75,
      "Velocity": 65,
      "Duration": 571315,
      "SoundDuration": 571315,
      "Delta": 11127661
    },
    {
      "NoteNumber": 54,
      "Velocity": 55,
      "Duration": 288961,
      "SoundDuration": 288961,
      "Delta": 11127661
    },
    {
      "NoteNumber": 60,
      "Velocity": 55,
      "Duration": 288961,
      "SoundDuration": 288961,
      "Delta": 11127661
    },
    {
      "NoteNumber": 68,
      "Velocity": 73,
      "Duration": 282353,
      "SoundDuration": 282353,
      "Delta": 11416623
    },
    {
      "NoteNumber": 53,
      "Velocity": 60,
      "Duration": 282353,
      "SoundDuration": 282353,
      "Delta": 11416623
    },
    {
      "NoteNumber": 65,
      "Velocity": 60,
      "Duration": 282353,
      "SoundDuration": 282353,
      "Delta": 11416623
    },
    {
      "NoteNumber": 80,
      "Velocity": 73,
      "Duration": 70588,
      "SoundDuration": 70588,
      "Delta": 11698976
    },
    {
      "NoteNumber": 70,
      "Velocity": 62,
      "Duration": 283514,
      "SoundDuration": 283514,
      "Delta": 11981329
    },
    {
      "NoteNumber": 78,
      "Velocity": 62,
      "Duration": 567028,
      "SoundDuration": 567028,
      "Delta": 11981329
    },
    {
      "NoteNumber": 54,
      "Velocity": 46,
      "Duration": 141757,
      "SoundDuration": 141757,
      "Delta": 11981329
    },
    {
      "NoteNumber": 63,
      "Velocity": 46,
      "Duration": 141757,
      "SoundDuration": 141757,
      "Delta": 11981329
    },
    {
      "NoteNumber": 73,
      "Velocity": 62,
      "Duration": 283514,
      "SoundDuration": 283514,
      "Delta": 12264843
    },
    {
      "NoteNumber": 56,
      "Velocity": 52,
      "Duration": 141757,
      "SoundDuration": 141757,
      "Delta": 12264843
    },
    {
      "NoteNumber": 68,
      "Velocity": 52,
      "Duration": 141757,
      "SoundDuration": 141757,
      "Delta": 12264843
    },
    {
      "NoteNumber": 77,
      "Velocity": 62,
      "Duration": 283514,
      "SoundDuration": 283514,
      "Delta": 12548357
    },
    {
      "NoteNumber": 75,
      "Velocity": 62,
      "Duration": 569691,
      "SoundDuration": 569691,
      "Delta": 12831871
    },
    {
      "NoteNumber": 72,
      "Velocity": 62,
      "Duration": 284845,
      "SoundDuration": 284845,
      "Delta": 12831871
    },
    {
      "NoteNumber": 56,
      "Velocity": 45,
      "Duration": 142423,
      "SoundDuration": 142423,
      "Delta": 12831871
    },
    {
      "NoteNumber": 66,
      "Velocity": 45,
      "Duration": 142423,
      "SoundDuration": 142423,
      "Delta": 12831871
    },
    {
      "NoteNumber": 61,
      "Velocity": 47,
      "Duration": 142423,
      "SoundDuration": 142423,
      "Delta": 13116717
    },
    {
      "NoteNumber": 65,
      "Velocity": 47,
      "Duration": 142423,
      "SoundDuration": 142423,
      "Delta": 13116717
    },
    {
      "NoteNumber": 73,
      "Velocity": 59,
      "Duration": 142423,
      "SoundDuration": 142423,
      "Delta": 13401563
    },
    {
      "NoteNumber": 73,
      "Velocity": 53,
      "Duration": 286205,
      "SoundDuration": 286205,
      "Delta": 13686409
    },
    {
      "NoteNumber": 65,
      "Velocity": 53,
      "Duration": 286205,
      "SoundDuration": 286205,
      "Delta": 13686409
    },
    {
      "NoteNumber": 61,
      "Velocity": 46,
      "Duration": 286205,
      "SoundDuration": 286205,
      "Delta": 13686409
    },
    {
      "NoteNumber": 73,
      "Velocity": 58,
      "Duration": 572409,
      "SoundDuration": 572409,
      "Delta": 13972614
    },
    {
      "NoteNumber": 65,
      "Velocity": 58,
      "Duration": 572409,
      "SoundDuration": 572409,
      "Delta": 13972614
    },
    {
      "NoteNumber": 58,
      "Velocity": 50,
      "Duration": 572409,
      "SoundDuration": 572409,
      "Delta": 13972614
    },
    {
      "NoteNumber": 65,
      "Velocity": 57,
      "Duration": 286204,
      "SoundDuration": 286204,
      "Delta": 14545024
    },
    {
      "NoteNumber": 73,
      "Velocity": 57,
      "Duration": 286204,
      "SoundDuration": 286204,
      "Delta": 14545024
    },
    {
      "NoteNumber": 56,
      "Velocity": 50,
      "Duration": 286204,
      "SoundDuration": 286204,
      "Delta": 14545024
    },
    {
      "NoteNumber": 63,
      "Velocity": 57,
      "Duration": 572409,
      "SoundDuration": 572409,
      "Delta": 14831229
    },
    {
      "NoteNumber": 73,
      "Velocity": 57,
      "Duration": 286205,
      "SoundDuration": 286205,
      "Delta": 14831229
    },
    {
      "NoteNumber": 55,
      "Velocity": 50,
      "Duration": 286205,
      "SoundDuration": 286205,
      "Delta": 14831229
    },
    {
      "NoteNumber": 72,
      "Velocity": 58,
      "Duration": 143102,
      "SoundDuration": 143102,
      "Delta": 15117434
    },
    {
      "NoteNumber": 56,
      "Velocity": 47,
      "Duration": 143102,
      "SoundDuration": 143102,
      "Delta": 15117434
    },
    {
      "NoteNumber": 63,
      "Velocity": 58,
      "Duration": 291049,
      "SoundDuration": 291049,
      "Delta": 15403639
    },
    {
      "NoteNumber": 71,
      "Velocity": 58,
      "Duration": 291049,
      "SoundDuration": 291049,
      "Delta": 15403639
    },
    {
      "NoteNumber": 56,
      "Velocity": 47,
      "Duration": 291049,
      "SoundDuration": 291049,
      "Delta": 15403639
    },
    {
      "NoteNumber": 63,
      "Velocity": 58,
      "Duration": 582100,
      "SoundDuration": 582100,
      "Delta": 15694688
    },
    {
      "NoteNumber": 71,
      "Velocity": 58,
      "Duration": 582100,
      "SoundDuration": 582100,
      "Delta": 15694688
    },
    {
      "NoteNumber": 56,
      "Velocity": 47,
      "Duration": 582100,
      "SoundDuration": 582100,
      "Delta": 15694688
    },
    {
      "NoteNumber": 63,
      "Velocity": 56,
      "Duration": 291050,
      "SoundDuration": 291050,
      "Delta": 16276789
    },
    {
      "NoteNumber": 71,
      "Velocity": 56,
      "Duration": 291050,
      "SoundDuration": 291050,
      "Delta": 16276789
    },
    {
      "NoteNumber": 54,
      "Velocity": 47,
      "Duration": 291050,
      "SoundDuration": 291050,
      "Delta": 16276789
    },
    {
      "NoteNumber": 63,
      "Velocity": 56,
      "Duration": 582100,
      "SoundDuration": 582100,
      "Delta": 16567839
    },
    {
      "NoteNumber": 71,
      "Velocity": 56,
      "Duration": 291049,
      "SoundDuration": 291049,
      "Delta": 16567839
    },
    {
      "NoteNumber": 53,
      "Velocity": 48,
      "Duration": 291049,
      "SoundDuration": 291049,
      "Delta": 16567839
    },
    {
      "NoteNumber": 70,
      "Velocity": 56,
      "Duration": 145524,
      "SoundDuration": 145524,
      "Delta": 16858889
    },
    {
      "NoteNumber": 54,
      "Velocity": 48,
      "Duration": 145524,
      "SoundDuration": 145524,
      "Delta": 16858889
    },
    {
      "NoteNumber": 61,
      "Velocity": 65,
      "Duration": 288404,
      "SoundDuration": 288404,
      "Delta": 17149939
    },
    {
      "NoteNumber": 70,
      "Velocity": 65,
      "Duration": 288404,
      "SoundDuration": 288404,
      "Delta": 17149939
    },
    {
      "NoteNumber": 54,
      "Velocity": 55,
      "Duration": 288404,
      "SoundDuration": 288404,
      "Delta": 17149939
    },
    {
      "NoteNumber": 66,
      "Velocity": 75,
      "Duration": 609727,
      "SoundDuration": 609727,
      "Delta": 17438343
    },
    {
      "NoteNumber": 72,
      "Velocity": 75,
      "Duration": 609727,
      "SoundDuration": 609727,
      "Delta": 17438343
    },
    {
      "NoteNumber": 51,
      "Velocity": 58,
      "Duration": 609727,
      "SoundDuration": 609727,
      "Delta": 17438343
    },
    {
      "NoteNumber": 56,
      "Velocity": 58,
      "Duration": 609727,
      "SoundDuration": 609727,
      "Delta": 17438343
    },
    {
      "NoteNumber": 65,
      "Velocity": 78,
      "Duration": 327306,
      "SoundDuration": 327306,
      "Delta": 18048071
    },
    {
      "NoteNumber": 73,
      "Velocity": 78,
      "Duration": 327306,
      "SoundDuration": 327306,
      "Delta": 18048071
    },
    {
      "NoteNumber": 49,
      "Velocity": 65,
      "Duration": 327306,
      "SoundDuration": 327306,
      "Delta": 18048071
    },
    {
      "NoteNumber": 56,
      "Velocity": 65,
      "Duration": 327306,
      "SoundDuration": 327306,
      "Delta": 18048071
    },
    {
      "NoteNumber": 66,
      "Velocity": 90,
      "Duration": 667854,
      "SoundDuration": 667854,
      "Delta": 18375378
    },
    {
      "NoteNumber": 75,
      "Velocity": 90,
      "Duration": 667854,
      "SoundDuration": 667854,
      "Delta": 18375378
    },
    {
      "NoteNumber": 48,
      "Velocity": 73,
      "Duration": 1000985,
      "SoundDuration": 1000985,
      "Delta": 18375378
    },
    {
      "NoteNumber": 56,
      "Velocity": 73,
      "Duration": 1000985,
      "SoundDuration": 1000985,
      "Delta": 18375378
    },
    {
      "NoteNumber": 63,
      "Velocity": 77,
      "Duration": 619336,
      "SoundDuration": 619336,
      "Delta": 19043232
    },
    {
      "NoteNumber": 66,
      "Velocity": 77,
      "Duration": 619336,
      "SoundDuration": 619336,
      "Delta": 19043232
    },
    {
      "NoteNumber": 49,
      "Velocity": 56,
      "Duration": 572409,
      "SoundDuration": 572409,
      "Delta": 19376364
    },
    {
      "NoteNumber": 56,
      "Velocity": 56,
      "Duration": 572409,
      "SoundDuration": 572409,
      "Delta": 19376364
    },
    {
      "NoteNumber": 61,
      "Velocity": 65,
      "Duration": 286204,
      "SoundDuration": 286204,
      "Delta": 19662569
    },
    {
      "NoteNumber": 65,
      "Velocity": 65,
      "Duration": 286204,
      "SoundDuration": 286204,
      "Delta": 19662569
    },
    {
      "NoteNumber": 70,
      "Velocity": 65,
      "Duration": 159846,
      "SoundDuration": 159846,
      "Delta": 19948774
    },
    {
      "NoteNumber": 58,
      "Velocity": 65,
      "Duration": 319693,
      "SoundDuration": 319693,
      "Delta": 19948774
    },
    {
      "NoteNumber": 54,
      "Velocity": 55,
      "Duration": 159846,
      "SoundDuration": 159846,
      "Delta": 19948774
    },
    {
      "NoteNumber": 42,
      "Velocity": 55,
      "Duration": 319693,
      "SoundDuration": 319693,
      "Delta": 19948774
    },
    {
      "NoteNumber": 66,
      "Velocity": 65,
      "Duration": 159846,
      "SoundDuration": 159846,
      "Delta": 20108620
    },
    {
      "NoteNumber": 51,
      "Velocity": 55,
      "Duration": 159846,
      "SoundDuration": 159846,
      "Delta": 20108620
    },
    {
      "NoteNumber": 61,
      "Velocity": 71,
      "Duration": 319693,
      "SoundDuration": 319693,
      "Delta": 20268467
    },
    {
      "NoteNumber": 65,
      "Velocity": 71,
      "Duration": 319693,
      "SoundDuration": 319693,
      "Delta": 20268467
    },
    {
      "NoteNumber": 42,
      "Velocity": 55,
      "Duration": 497523,
      "SoundDuration": 497523,
      "Delta": 20268467
    },
    {
      "NoteNumber": 56,
      "Velocity": 55,
      "Duration": 497523,
      "SoundDuration": 497523,
      "Delta": 20268467
    },
    {
      "NoteNumber": 60,
      "Velocity": 65,
      "Duration": 177830,
      "SoundDuration": 177830,
      "Delta": 20588160
    },
    {
      "NoteNumber": 63,
      "Velocity": 65,
      "Duration": 177830,
      "SoundDuration": 177830,
      "Delta": 20588160
    },
    {
      "NoteNumber": 61,
      "Velocity": 65,
      "Duration": 287362,
      "SoundDuration": 287362,
      "Delta": 20943821
    },
    {
      "NoteNumber": 73,
      "Velocity": 65,
      "Duration": 287362,
      "SoundDuration": 287362,
      "Delta": 20943821
    },
    {
      "NoteNumber": 53,
      "Velocity": 51,
      "Duration": 287362,
      "SoundDuration": 287362,
      "Delta": 20943821
    },
    {
      "NoteNumber": 56,
      "Velocity": 51,
      "Duration": 287362,
      "SoundDuration": 287362,
      "Delta": 20943821
    },
    {
      "NoteNumber": 60,
      "Velocity": 66,
      "Duration": 572410,
      "SoundDuration": 572410,
      "Delta": 21231183
    },
    {
      "NoteNumber": 72,
      "Velocity": 66,
      "Duration": 572410,
      "SoundDuration": 572410,
      "Delta": 21231183
    },
    {
      "NoteNumber": 51,
      "Velocity": 56,
      "Duration": 572410,
      "SoundDuration": 572410,
      "Delta": 21231183
    },
    {
      "NoteNumber": 56,
      "Velocity": 56,
      "Duration": 572410,
      "SoundDuration": 572410,
      "Delta": 21231183
    },
    {
      "NoteNumber": 70,
      "Velocity": 61,
      "Duration": 288962,
      "SoundDuration": 288962,
      "Delta": 21803593
    },
    {
      "NoteNumber": 58,
      "Velocity": 61,
      "Duration": 288962,
      "SoundDuration": 288962,
      "Delta": 21803593
    },
    {
      "NoteNumber": 49,
      "Velocity": 47,
      "Duration": 288962,
      "SoundDuration": 288962,
      "Delta": 21803593
    },
    {
      "NoteNumber": 55,
      "Velocity": 47,
      "Duration": 288962,
      "SoundDuration": 288962,
      "Delta": 21803593
    },
    {
      "NoteNumber": 63,
      "Velocity": 59,
      "Duration": 54180,
      "SoundDuration": 54180,
      "Delta": 22092555
    },
    {
      "NoteNumber": 75,
      "Velocity": 59,
      "Duration": 54180,
      "SoundDuration": 54180,
      "Delta": 22092555
    },
    {
      "NoteNumber": 48,
      "Velocity": 49,
      "Duration": 54180,
      "SoundDuration": 54180,
      "Delta": 22092555
    },
    {
      "NoteNumber": 60,
      "Velocity": 49,
      "Duration": 54180,
      "SoundDuration": 54180,
      "Delta": 22092555
    },
    {
      "NoteNumber": 65,
      "Velocity": 64,
      "Duration": 276395,
      "SoundDuration": 276395,
      "Delta": 22670479
    },
    {
      "NoteNumber": 73,
      "Velocity": 64,
      "Duration": 557320,
      "SoundDuration": 557320,
      "Delta": 22670479
    },
    {
      "NoteNumber": 49,
      "Velocity": 48,
      "Duration": 138197,
      "SoundDuration": 138197,
      "Delta": 22670479
    },
    {
      "NoteNumber": 58,
      "Velocity": 48,
      "Duration": 138197,
      "SoundDuration": 138197,
      "Delta": 22670479
    },
    {
      "NoteNumber": 68,
      "Velocity": 64,
      "Duration": 280924,
      "SoundDuration": 280924,
      "Delta": 22946875
    },
    {
      "NoteNumber": 51,
      "Velocity": 54,
      "Duration": 140462,
      "SoundDuration": 140462,
      "Delta": 22946875
    },
    {
      "NoteNumber": 63,
      "Velocity": 54,
      "Duration": 140462,
      "SoundDuration": 140462,
      "Delta": 22946875
    },
    {
      "NoteNumber": 72,
      "Velocity": 64,
      "Duration": 278887,
      "SoundDuration": 278887,
      "Delta": 23227800
    },
    {
      "NoteNumber": 67,
      "Velocity": 60,
      "Duration": 282194,
      "SoundDuration": 282194,
      "Delta": 23506688
    },
    {
      "NoteNumber": 70,
      "Velocity": 60,
      "Duration": 564388,
      "SoundDuration": 564388,
      "Delta": 23506688
    },
    {
      "NoteNumber": 51,
      "Velocity": 47,
      "Duration": 141096,
      "SoundDuration": 141096,
      "Delta": 23506688
    },
    {
      "NoteNumber": 61,
      "Velocity": 47,
      "Duration": 141096,
      "SoundDuration": 141096,
      "Delta": 23506688
    },
    {
      "NoteNumber": 56,
      "Velocity": 51,
      "Duration": 141096,
      "SoundDuration": 141096,
      "Delta": 23788882
    },
    {
      "NoteNumber": 60,
      "Velocity": 51,
      "Duration": 141096,
      "SoundDuration": 141096,
      "Delta": 23788882
    },
    {
      "NoteNumber": 68,
      "Velocity": 60,
      "Duration": 141096,
      "SoundDuration": 141096,
      "Delta": 24071076
    },
    {
      "NoteNumber": 66,
      "Velocity": 64,
      "Duration": 286888,
      "SoundDuration": 286888,
      "Delta": 24353270
    },
    {
      "NoteNumber": 78,
      "Velocity": 64,
      "Duration": 286888,
      "SoundDuration": 286888,
      "Delta": 24353270
    },
    {
      "NoteNumber": 58,
      "Velocity": 49,
      "Duration": 286888,
      "SoundDuration": 286888,
      "Delta": 24353270
    },
    {
      "NoteNumber": 61,
      "Velocity": 49,
      "Duration": 286888,
      "SoundDuration": 286888,
      "Delta": 24353270
    },
    {
      "NoteNumber": 65,
      "Velocity": 65,
      "Duration": 573778,
      "SoundDuration": 573778,
      "Delta": 24640159
    },
    {
      "NoteNumber": 77,
      "Velocity": 65,
      "Duration": 573778,
      "SoundDuration": 573778,
      "Delta": 24640159
    },
    {
      "NoteNumber": 56,
      "Velocity": 56,
      "Duration": 573778,
      "SoundDuration": 573778,
      "Delta": 24640159
    },
    {
      "NoteNumber": 61,
      "Velocity": 56,
      "Duration": 573778,
      "SoundDuration": 573778,
      "Delta": 24640159
    },
    {
      "NoteNumber": 63,
      "Velocity": 64,
      "Duration": 288267,
      "SoundDuration": 288267,
      "Delta": 25213937
    },
    {
      "NoteNumber": 75,
      "Velocity": 64,
      "Duration": 288267,
      "SoundDuration": 288267,
      "Delta": 25213937
    },
    {
      "NoteNumber": 54,
      "Velocity": 49,
      "Duration": 288267,
      "SoundDuration": 288267,
      "Delta": 25213937
    },
    {
      "NoteNumber": 60,
      "Velocity": 49,
      "Duration": 288267,
      "SoundDuration": 288267,
      "Delta": 25213937
    },
    {
      "NoteNumber": 68,
      "Velocity": 62,
      "Duration": 54050,
      "SoundDuration": 54050,
      "Delta": 25502205
    },
    {
      "NoteNumber": 80,
      "Velocity": 62,
      "Duration": 54050,
      "SoundDuration": 54050,
      "Delta": 25502205
    },
    {
      "NoteNumber": 53,
      "Velocity": 53,
      "Duration": 54050,
      "SoundDuration": 54050,
      "Delta": 25502205
    },
    {
      "NoteNumber": 61,
      "Velocity": 53,
      "Duration": 54050,
      "SoundDuration": 54050,
      "Delta": 25502205
    },
    {
      "NoteNumber": 66,
      "Velocity": 64,
      "Duration": 561285,
      "SoundDuration": 561285,
      "Delta": 26078741
    },
    {
      "NoteNumber": 78,
      "Velocity": 64,
      "Duration": 561285,
      "SoundDuration": 561285,
      "Delta": 26078741
    },
    {
      "NoteNumber": 58,
      "Velocity": 47,
      "Duration": 277034,
      "SoundDuration": 277034,
      "Delta": 26078741
    },
    {
      "NoteNumber": 61,
      "Velocity": 47,
      "Duration": 277034,
      "SoundDuration": 277034,
      "Delta": 26078741
    },
    {
      "NoteNumber": 56,
      "Velocity": 55,
      "Duration": 563711,
      "SoundDuration": 563711,
      "Delta": 26355775
    },
    {
      "NoteNumber": 61,
      "Velocity": 55,
      "Duration": 563711,
      "SoundDuration": 563711,
      "Delta": 26355775
    },
    {
      "NoteNumber": 65,
      "Velocity": 64,
      "Duration": 279460,
      "SoundDuration": 279460,
      "Delta": 26640027
    },
    {
      "NoteNumber": 77,
      "Velocity": 64,
      "Duration": 279460,
      "SoundDuration": 279460,
      "Delta": 26640027
    },
    {
      "NoteNumber": 63,
      "Velocity": 64,
      "Duration": 144134,
      "SoundDuration": 144134,
      "Delta": 26919487
    },
    {
      "NoteNumber": 75,
      "Velocity": 64,
      "Duration": 144134,
      "SoundDuration": 144134,
      "Delta": 26919487
    },
    {
      "NoteNumber": 54,
      "Velocity": 47,
      "Duration": 288267,
      "SoundDuration": 288267,
      "Delta": 26919487
    },
    {
      "NoteNumber": 60,
      "Velocity": 47,
      "Duration": 288267,
      "SoundDuration": 288267,
      "Delta": 26919487
    },
    {
      "NoteNumber": 68,
      "Velocity": 65,
      "Duration": 54050,
      "SoundDuration": 54050,
      "Delta": 27207755
    },
    {
      "NoteNumber": 80,
      "Velocity": 65,
      "Duration": 54050,
      "SoundDuration": 54050,
      "Delta": 27207755
    },
    {
      "NoteNumber": 53,
      "Velocity": 56,
      "Duration": 54050,
      "SoundDuration": 54050,
      "Delta": 27207755
    },
    {
      "NoteNumber": 61,
      "Velocity": 56,
      "Duration": 54050,
      "SoundDuration": 54050,
      "Delta": 27207755
    },
    {
      "NoteNumber": 66,
      "Velocity": 74,
      "Duration": 580047,
      "SoundDuration": 580047,
      "Delta": 27784291
    },
    {
      "NoteNumber": 78,
      "Velocity": 74,
      "Duration": 580047,
      "SoundDuration": 580047,
      "Delta": 27784291
    },
    {
      "NoteNumber": 58,
      "Velocity": 54,
      "Duration": 286810,
      "SoundDuration": 286810,
      "Delta": 27784291
    },
    {
      "NoteNumber": 61,
      "Velocity": 54,
      "Duration": 286810,
      "SoundDuration": 286810,
      "Delta": 27784291
    },
    {
      "NoteNumber": 56,
      "Velocity": 61,
      "Duration": 606172,
      "SoundDuration": 606172,
      "Delta": 28071102
    },
    {
      "NoteNumber": 61,
      "Velocity": 61,
      "Duration": 606172,
      "SoundDuration": 606172,
      "Delta": 28071102
    },
    {
      "NoteNumber": 65,
      "Velocity": 80,
      "Duration": 312935,
      "SoundDuration": 312935,
      "Delta": 28364338
    },
    {
      "NoteNumber": 77,
      "Velocity": 80,
      "Duration": 312935,
      "SoundDuration": 312935,
      "Delta": 28364338
    },
    {
      "NoteNumber": 70,
      "Velocity": 97,
      "Duration": 698255,
      "SoundDuration": 698255,
      "Delta": 28677274
    },
    {
      "NoteNumber": 82,
      "Velocity": 97,
      "Duration": 698255,
      "SoundDuration": 698255,
      "Delta": 28677274
    },
    {
      "NoteNumber": 55,
      "Velocity": 71,
      "Duration": 342768,
      "SoundDuration": 342768,
      "Delta": 28677274
    },
    {
      "NoteNumber": 64,
      "Velocity": 71,
      "Duration": 342768,
      "SoundDuration": 342768,
      "Delta": 28677274
    },
    {
      "NoteNumber": 61,
      "Velocity": 71,
      "Duration": 342768,
      "SoundDuration": 342768,
      "Delta": 28677274
    },
    {
      "NoteNumber": 56,
      "Velocity": 74,
      "Duration": 355486,
      "SoundDuration": 355486,
      "Delta": 29020043
    },
    {
      "NoteNumber": 61,
      "Velocity": 74,
      "Duration": 355486,
      "SoundDuration": 355486,
      "Delta": 29020043
    },
    {
      "NoteNumber": 65,
      "Velocity": 74,
      "Duration": 355486,
      "SoundDuration": 355486,
      "Delta": 29020043
    },
    {
      "NoteNumber": 68,
      "Velocity": 77,
      "Duration": 355661,
      "SoundDuration": 355661,
      "Delta": 29375529
    },
    {
      "NoteNumber": 80,
      "Velocity": 77,
      "Duration": 355661,
      "SoundDuration": 355661,
      "Delta": 29375529
    },
    {
      "NoteNumber": 54,
      "Velocity": 64,
      "Duration": 1095396,
      "SoundDuration": 1095396,
      "Delta": 30086851
    },
    {
      "NoteNumber": 60,
      "Velocity": 64,
      "Duration": 711322,
      "SoundDuration": 711322,
      "Delta": 30086851
    },
    {
      "NoteNumber": 32,
      "Velocity": 54,
      "Duration": 1095396,
      "SoundDuration": 1095396,
      "Delta": 30086851
    },
    {
      "NoteNumber": 44,
      "Velocity": 54,
      "Duration": 1095396,
      "SoundDuration": 1095396,
      "Delta": 30086851
    },
    {
      "NoteNumber": 63,
      "Velocity": 61,
      "Duration": 192036,
      "SoundDuration": 192036,
      "Delta": 30798173
    },
    {
      "NoteNumber": 61,
      "Velocity": 61,
      "Duration": 192036,
      "SoundDuration": 192036,
      "Delta": 30990210
    },
    {
      "NoteNumber": 53,
      "Velocity": 54,
      "Duration": 287836,
      "SoundDuration": 287836,
      "Delta": 31182247
    },
    {
      "NoteNumber": 61,
      "Velocity": 58,
      "Duration": 287836,
      "SoundDuration": 287836,
      "Delta": 31182247
    },
    {
      "NoteNumber": 37,
      "Velocity": 51,
      "Duration": 287836,
      "SoundDuration": 287836,
      "Delta": 31182247
    },
    {
      "NoteNumber": 44,
      "Velocity": 51,
      "Duration": 287836,
      "SoundDuration": 287836,
      "Delta": 31182247
    },
    {
      "NoteNumber": 73,
      "Velocity": 64,
      "Duration": 291744,
      "SoundDuration": 291744,
      "Delta": 31811574
    },
    {
      "NoteNumber": 65,
      "Velocity": 64,
      "Duration": 291744,
      "SoundDuration": 291744,
      "Delta": 31811574
    },
    {
      "NoteNumber": 61,
      "Velocity": 54,
      "Duration": 291744,
      "SoundDuration": 291744,
      "Delta": 31811574
    },
    {
      "NoteNumber": 73,
      "Velocity": 64,
      "Duration": 583487,
      "SoundDuration": 583487,
      "Delta": 32103318
    },
    {
      "NoteNumber": 65,
      "Velocity": 64,
      "Duration": 583487,
      "SoundDuration": 583487,
      "Delta": 32103318
    },
    {
      "NoteNumber": 58,
      "Velocity": 54,
      "Duration": 583487,
      "SoundDuration": 583487,
      "Delta": 32103318
    },
    {
      "NoteNumber": 65,
      "Velocity": 64,
      "Duration": 288961,
      "SoundDuration": 288961,
      "Delta": 32686806
    },
    {
      "NoteNumber": 73,
      "Velocity": 64,
      "Duration": 288961,
      "SoundDuration": 288961,
      "Delta": 32686806
    },
    {
      "NoteNumber": 56,
      "Velocity": 54,
      "Duration": 288961,
      "SoundDuration": 288961,
      "Delta": 32686806
    },
    {
      "NoteNumber": 63,
      "Velocity": 64,
      "Duration": 577924,
      "SoundDuration": 577924,
      "Delta": 32975768
    },
    {
      "NoteNumber": 73,
      "Velocity": 64,
      "Duration": 288962,
      "SoundDuration": 288962,
      "Delta": 32975768
    },
    {
      "NoteNumber": 55,
      "Velocity": 54,
      "Duration": 288962,
      "SoundDuration": 288962,
      "Delta": 32975768
    },
    {
      "NoteNumber": 72,
      "Velocity": 64,
      "Duration": 144480,
      "SoundDuration": 144480,
      "Delta": 33264730
    },
    {
      "NoteNumber": 56,
      "Velocity": 54,
      "Duration": 144480,
      "SoundDuration": 144480,
      "Delta": 33264730
    },
    {
      "NoteNumber": 63,
      "Velocity": 61,
      "Duration": 294623,
      "SoundDuration": 294623,
      "Delta": 33553692
    },
    {
      "NoteNumber": 71,
      "Velocity": 61,
      "Duration": 294623,
      "SoundDuration": 294623,
      "Delta": 33553692
    },
    {
      "NoteNumber": 56,
      "Velocity": 51,
      "Duration": 294623,
      "SoundDuration": 294623,
      "Delta": 33553692
    },
    {
      "NoteNumber": 63,
      "Velocity": 61,
      "Duration": 589245,
      "SoundDuration": 589245,
      "Delta": 33848315
    },
    {
      "NoteNumber": 71,
      "Velocity": 61,
      "Duration": 589245,
      "SoundDuration": 589245,
      "Delta": 33848315
    },
    {
      "NoteNumber": 56,
      "Velocity": 51,
      "Duration": 589245,
      "SoundDuration": 589245,
      "Delta": 33848315
    },
    {
      "NoteNumber": 63,
      "Velocity": 58,
      "Duration": 294623,
      "SoundDuration": 294623,
      "Delta": 34437561
    },
    {
      "NoteNumber": 71,
      "Velocity": 58,
      "Duration": 294623,
      "SoundDuration": 294623,
      "Delta": 34437561
    },
    {
      "NoteNumber": 54,
      "Velocity": 51,
      "Duration": 294623,
      "SoundDuration": 294623,
      "Delta": 34437561
    },
    {
      "NoteNumber": 63,
      "Velocity": 58,
      "Duration": 589246,
      "SoundDuration": 589246,
      "Delta": 34732184
    },
    {
      "NoteNumber": 71,
      "Velocity": 58,
      "Duration": 294623,
      "SoundDuration": 294623,
      "Delta": 34732184
    },
    {
      "NoteNumber": 53,
      "Velocity": 51,
      "Duration": 294623,
      "SoundDuration": 294623,
      "Delta": 34732184
    },
    {
      "NoteNumber": 70,
      "Velocity": 58,
      "Duration": 147311,
      "SoundDuration": 147311,
      "Delta": 35026807
    },
    {
      "NoteNumber": 54,
      "Velocity": 51,
      "Duration": 147311,
      "SoundDuration": 147311,
      "Delta": 35026807
    },
    {
      "NoteNumber": 61,
      "Velocity": 64,
      "Duration": 288464,
      "SoundDuration": 288464,
      "Delta": 35321430
    },
    {
      "NoteNumber": 70,
      "Velocity": 64,
      "Duration": 288464,
      "SoundDuration": 288464,
      "Delta": 35321430
    },
    {
      "NoteNumber": 54,
      "Velocity": 54,
      "Duration": 288464,
      "SoundDuration": 288464,
      "Delta": 35321430
    },
    {
      "NoteNumber": 66,
      "Velocity": 74,
      "Duration": 609727,
      "SoundDuration": 609727,
      "Delta": 35609895
    },
    {
      "NoteNumber": 72,
      "Velocity": 74,
      "Duration": 609727,
      "SoundDuration": 609727,
      "Delta": 35609895
    },
    {
      "NoteNumber": 51,
      "Velocity": 58,
      "Duration": 609727,
      "SoundDuration": 609727,
      "Delta": 35609895
    },
    {
      "NoteNumber": 56,
      "Velocity": 58,
      "Duration": 609727,
      "SoundDuration": 609727,
      "Delta": 35609895
    },
    {
      "NoteNumber": 65,
      "Velocity": 77,
      "Duration": 327306,
      "SoundDuration": 327306,
      "Delta": 36219622
    },
    {
      "NoteNumber": 73,
      "Velocity": 77,
      "Duration": 327306,
      "SoundDuration": 327306,
      "Delta": 36219622
    },
    {
      "NoteNumber": 49,
      "Velocity": 64,
      "Duration": 327306,
      "SoundDuration": 327306,
      "Delta": 36219622
    },
    {
      "NoteNumber": 56,
      "Velocity": 64,
      "Duration": 327306,
      "SoundDuration": 327306,
      "Delta": 36219622
    },
    {
      "NoteNumber": 66,
      "Velocity": 89,
      "Duration": 667853,
      "SoundDuration": 667853,
      "Delta": 36546929
    },
    {
      "NoteNumber": 75,
      "Velocity": 89,
      "Duration": 667853,
      "SoundDuration": 667853,
      "Delta": 36546929
    },
    {
      "NoteNumber": 48,
      "Velocity": 72,
      "Duration": 1000985,
      "SoundDuration": 1000985,
      "Delta": 36546929
    },
    {
      "NoteNumber": 56,
      "Velocity": 72,
      "Duration": 1000985,
      "SoundDuration": 1000985,
      "Delta": 36546929
    },
    {
      "NoteNumber": 63,
      "Velocity": 76,
      "Duration": 619336,
      "SoundDuration": 619336,
      "Delta": 37214783
    },
    {
      "NoteNumber": 66,
      "Velocity": 76,
      "Duration": 619336,
      "SoundDuration": 619336,
      "Delta": 37214783
    },
    {
      "NoteNumber": 49,
      "Velocity": 56,
      "Duration": 572410,
      "SoundDuration": 572410,
      "Delta": 37547915
    },
    {
      "NoteNumber": 56,
      "Velocity": 56,
      "Duration": 572410,
      "SoundDuration": 572410,
      "Delta": 37547915
    },
    {
      "NoteNumber": 61,
      "Velocity": 64,
      "Duration": 286205,
      "SoundDuration": 286205,
      "Delta": 37834120
    },
    {
      "NoteNumber": 65,
      "Velocity": 64,
      "Duration": 286205,
      "SoundDuration": 286205,
      "Delta": 37834120
    },
    {
      "NoteNumber": 70,
      "Velocity": 64,
      "Duration": 160282,
      "SoundDuration": 160282,
      "Delta": 38120325
    },
    {
      "NoteNumber": 58,
      "Velocity": 64,
      "Duration": 320563,
      "SoundDuration": 320563,
      "Delta": 38120325
    },
    {
      "NoteNumber": 54,
      "Velocity": 54,
      "Duration": 160282,
      "SoundDuration": 160282,
      "Delta": 38120325
    },
    {
      "NoteNumber": 42,
      "Velocity": 54,
      "Duration": 320563,
      "SoundDuration": 320563,
      "Delta": 38120325
    },
    {
      "NoteNumber": 66,
      "Velocity": 64,
      "Duration": 160281,
      "SoundDuration": 160281,
      "Delta": 38280607
    },
    {
      "NoteNumber": 51,
      "Velocity": 54,
      "Duration": 160281,
      "SoundDuration": 160281,
      "Delta": 38280607
    },
    {
      "NoteNumber": 61,
      "Velocity": 71,
      "Duration": 320564,
      "SoundDuration": 320564,
      "Delta": 38440889
    },
    {
      "NoteNumber": 65,
      "Velocity": 71,
      "Duration": 320564,
      "SoundDuration": 320564,
      "Delta": 38440889
    },
    {
      "NoteNumber": 42,
      "Velocity": 54,
      "Duration": 487984,
      "SoundDuration": 487984,
      "Delta": 38440889
    },
    {
      "NoteNumber": 56,
      "Velocity": 54,
      "Duration": 487984,
      "SoundDuration": 487984,
      "Delta": 38440889
    },
    {
      "NoteNumber": 60,
      "Velocity": 64,
      "Duration": 167419,
      "SoundDuration": 167419,
      "Delta": 38761453
    },
    {
      "NoteNumber": 63,
      "Velocity": 64,
      "Duration": 167419,
      "SoundDuration": 167419,
      "Delta": 38761453
    },
    {
      "NoteNumber": 61,
      "Velocity": 64,
      "Duration": 287015,
      "SoundDuration": 287015,
      "Delta": 39096293
    },
    {
      "NoteNumber": 73,
      "Velocity": 64,
      "Duration": 287015,
      "SoundDuration": 287015,
      "Delta": 39096293
    },
    {
      "NoteNumber": 53,
      "Velocity": 50,
      "Duration": 287015,
      "SoundDuration": 287015,
      "Delta": 39096293
    },
    {
      "NoteNumber": 56,
      "Velocity": 50,
      "Duration": 287015,
      "SoundDuration": 287015,
      "Delta": 39096293
    },
    {
      "NoteNumber": 60,
      "Velocity": 65,
      "Duration": 572409,
      "SoundDuration": 572409,
      "Delta": 39383308
    },
    {
      "NoteNumber": 72,
      "Velocity": 65,
      "Duration": 572409,
      "SoundDuration": 572409,
      "Delta": 39383308
    },
    {
      "NoteNumber": 51,
      "Velocity": 56,
      "Duration": 572409,
      "SoundDuration": 572409,
      "Delta": 39383308
    },
    {
      "NoteNumber": 56,
      "Velocity": 56,
      "Duration": 572409,
      "SoundDuration": 572409,
      "Delta": 39383308
    },
    {
      "NoteNumber": 70,
      "Velocity": 62,
      "Duration": 288961,
      "SoundDuration": 288961,
      "Delta": 39955718
    },
    {
      "NoteNumber": 58,
      "Velocity": 62,
      "Duration": 288961,
      "SoundDuration": 288961,
      "Delta": 39955718
    },
    {
      "NoteNumber": 49,
      "Velocity": 48,
      "Duration": 288961,
      "SoundDuration": 288961,
      "Delta": 39955718
    },
    {
      "NoteNumber": 55,
      "Velocity": 48,
      "Duration": 288961,
      "SoundDuration": 288961,
      "Delta": 39955718
    },
    {
      "NoteNumber": 63,
      "Velocity": 60,
      "Duration": 53317,
      "SoundDuration": 53317,
      "Delta": 40244680
    },
    {
      "NoteNumber": 75,
      "Velocity": 60,
      "Duration": 53317,
      "SoundDuration": 53317,
      "Delta": 40244680
    },
    {
      "NoteNumber": 48,
      "Velocity": 50,
      "Duration": 53317,
      "SoundDuration": 53317,
      "Delta": 40244680
    },
    {
      "NoteNumber": 60,
      "Velocity": 50,
      "Duration": 53317,
      "SoundDuration": 53317,
      "Delta": 40244680
    },
    {
      "NoteNumber": 65,
      "Velocity": 61,
      "Duration": 277675,
      "SoundDuration": 277675,
      "Delta": 40813400
    },
    {
      "NoteNumber": 73,
      "Velocity": 61,
      "Duration": 560587,
      "SoundDuration": 560587,
      "Delta": 40813400
    },
    {
      "NoteNumber": 49,
      "Velocity": 46,
      "Duration": 138837,
      "SoundDuration": 138837,
      "Delta": 40813400
    },
    {
      "NoteNumber": 58,
      "Velocity": 46,
      "Duration": 138837,
      "SoundDuration": 138837,
      "Delta": 40813400
    },
    {
      "NoteNumber": 68,
      "Velocity": 61,
      "Duration": 282912,
      "SoundDuration": 282912,
      "Delta": 41091075
    },
    {
      "NoteNumber": 51,
      "Velocity": 51,
      "Duration": 141455,
      "SoundDuration": 141455,
      "Delta": 41091075
    },
    {
      "NoteNumber": 63,
      "Velocity": 51,
      "Duration": 141455,
      "SoundDuration": 141455,
      "Delta": 41091075
    },
    {
      "NoteNumber": 72,
      "Velocity": 61,
      "Duration": 282911,
      "SoundDuration": 282911,
      "Delta": 41373987
    },
    {
      "NoteNumber": 67,
      "Velocity": 61,
      "Duration": 278810,
      "SoundDuration": 278810,
      "Delta": 41656899
    },
    {
      "NoteNumber": 70,
      "Velocity": 61,
      "Duration": 560896,
      "SoundDuration": 560896,
      "Delta": 41656899
    },
    {
      "NoteNumber": 51,
      "Velocity": 47,
      "Duration": 139405,
      "SoundDuration": 139405,
      "Delta": 41656899
    },
    {
      "NoteNumber": 61,
      "Velocity": 47,
      "Duration": 139405,
      "SoundDuration": 139405,
      "Delta": 41656899
    },
    {
      "NoteNumber": 56,
      "Velocity": 51,
      "Duration": 141043,
      "SoundDuration": 141043,
      "Delta": 41935709
    },
    {
      "NoteNumber": 60,
      "Velocity": 51,
      "Duration": 141043,
      "SoundDuration": 141043,
      "Delta": 41935709
    },
    {
      "NoteNumber": 68,
      "Velocity": 59,
      "Duration": 141043,
      "SoundDuration": 141043,
      "Delta": 42217796
    },
    {
      "NoteNumber": 66,
      "Velocity": 64,
      "Duration": 286889,
      "SoundDuration": 286889,
      "Delta": 42499883
    },
    {
      "NoteNumber": 78,
      "Velocity": 64,
      "Duration": 286889,
      "SoundDuration": 286889,
      "Delta": 42499883
    },
    {
      "NoteNumber": 58,
      "Velocity": 54,
      "Duration": 286889,
      "SoundDuration": 286889,
      "Delta": 42499883
    },
    {
      "NoteNumber": 61,
      "Velocity": 54,
      "Duration": 286889,
      "SoundDuration": 286889,
      "Delta": 42499883
    },
    {
      "NoteNumber": 65,
      "Velocity": 65,
      "Duration": 573777,
      "SoundDuration": 573777,
      "Delta": 42786772
    },
    {
      "NoteNumber": 77,
      "Velocity": 65,
      "Duration": 573777,
      "SoundDuration": 573777,
      "Delta": 42786772
    },
    {
      "NoteNumber": 56,
      "Velocity": 56,
      "Duration": 573777,
      "SoundDuration": 573777,
      "Delta": 42786772
    },
    {
      "NoteNumber": 61,
      "Velocity": 56,
      "Duration": 573777,
      "SoundDuration": 573777,
      "Delta": 42786772
    },
    {
      "NoteNumber": 63,
      "Velocity": 63,
      "Duration": 283019,
      "SoundDuration": 283019,
      "Delta": 43360550
    },
    {
      "NoteNumber": 75,
      "Velocity": 63,
      "Duration": 283019,
      "SoundDuration": 283019,
      "Delta": 43360550
    },
    {
      "NoteNumber": 54,
      "Velocity": 47,
      "Duration": 283019,
      "SoundDuration": 283019,
      "Delta": 43360550
    },
    {
      "NoteNumber": 60,
      "Velocity": 47,
      "Duration": 283019,
      "SoundDuration": 283019,
      "Delta": 43360550
    },
    {
      "NoteNumber": 68,
      "Velocity": 59,
      "Duration": 53066,
      "SoundDuration": 53066,
      "Delta": 43643569
    },
    {
      "NoteNumber": 80,
      "Velocity": 59,
      "Duration": 53066,
      "SoundDuration": 53066,
      "Delta": 43643569
    },
    {
      "NoteNumber": 53,
      "Velocity": 49,
      "Duration": 53066,
      "SoundDuration": 53066,
      "Delta": 43643569
    },
    {
      "NoteNumber": 61,
      "Velocity": 49,
      "Duration": 53066,
      "SoundDuration": 53066,
      "Delta": 43643569
    },
    {
      "NoteNumber": 66,
      "Velocity": 64,
      "Duration": 564570,
      "SoundDuration": 564570,
      "Delta": 44209607
    },
    {
      "NoteNumber": 78,
      "Velocity": 64,
      "Duration": 564570,
      "SoundDuration": 564570,
      "Delta": 44209607
    },
    {
      "NoteNumber": 58,
      "Velocity": 49,
      "Duration": 278965,
      "SoundDuration": 278965,
      "Delta": 44209607
    },
    {
      "NoteNumber": 61,
      "Velocity": 49,
      "Duration": 278965,
      "SoundDuration": 278965,
      "Delta": 44209607
    },
    {
      "NoteNumber": 56,
      "Velocity": 55,
      "Duration": 568356,
      "SoundDuration": 568356,
      "Delta": 44488573
    },
    {
      "NoteNumber": 61,
      "Velocity": 55,
      "Duration": 568356,
      "SoundDuration": 568356,
      "Delta": 44488573
    },
    {
      "NoteNumber": 65,
      "Velocity": 64,
      "Duration": 282752,
      "SoundDuration": 282752,
      "Delta": 44774178
    },
    {
      "NoteNumber": 77,
      "Velocity": 64,
      "Duration": 282752,
      "SoundDuration": 282752,
      "Delta": 44774178
    },
    {
      "NoteNumber": 63,
      "Velocity": 64,
      "Duration": 144134,
      "SoundDuration": 144134,
      "Delta": 45056930
    },
    {
      "NoteNumber": 75,
      "Velocity": 64,
      "Duration": 144134,
      "SoundDuration": 144134,
      "Delta": 45056930
    },
    {
      "NoteNumber": 54,
      "Velocity": 54,
      "Duration": 288268,
      "SoundDuration": 288268,
      "Delta": 45056930
    },
    {
      "NoteNumber": 60,
      "Velocity": 54,
      "Duration": 288268,
      "SoundDuration": 288268,
      "Delta": 45056930
    },
    {
      "NoteNumber": 68,
      "Velocity": 69,
      "Duration": 54050,
      "SoundDuration": 54050,
      "Delta": 45345198
    },
    {
      "NoteNumber": 80,
      "Velocity": 69,
      "Duration": 54050,
      "SoundDuration": 54050,
      "Delta": 45345198
    },
    {
      "NoteNumber": 53,
      "Velocity": 58,
      "Duration": 54050,
      "SoundDuration": 54050,
      "Delta": 45345198
    },
    {
      "NoteNumber": 61,
      "Velocity": 58,
      "Duration": 54050,
      "SoundDuration": 54050,
      "Delta": 45345198
    },
    {
      "NoteNumber": 66,
      "Velocity": 74,
      "Duration": 581574,
      "SoundDuration": 581574,
      "Delta": 45921734
    },
    {
      "NoteNumber": 78,
      "Velocity": 74,
      "Duration": 581574,
      "SoundDuration": 581574,
      "Delta": 45921734
    },
    {
      "NoteNumber": 58,
      "Velocity": 54,
      "Duration": 288337,
      "SoundDuration": 288337,
      "Delta": 45921734
    },
    {
      "NoteNumber": 61,
      "Velocity": 54,
      "Duration": 288337,
      "SoundDuration": 288337,
      "Delta": 45921734
    },
    {
      "NoteNumber": 56,
      "Velocity": 61,
      "Duration": 606172,
      "SoundDuration": 606172,
      "Delta": 46210072
    },
    {
      "NoteNumber": 61,
      "Velocity": 61,
      "Duration": 606172,
      "SoundDuration": 606172,
      "Delta": 46210072
    },
    {
      "NoteNumber": 65,
      "Velocity": 84,
      "Duration": 312935,
      "SoundDuration": 312935,
      "Delta": 46503309
    },
    {
      "NoteNumber": 77,
      "Velocity": 84,
      "Duration": 312935,
      "SoundDuration": 312935,
      "Delta": 46503309
    },
    {
      "NoteNumber": 70,
      "Velocity": 99,
      "Duration": 698255,
      "SoundDuration": 698255,
      "Delta": 46816244
    },
    {
      "NoteNumber": 82,
      "Velocity": 99,
      "Duration": 698255,
      "SoundDuration": 698255,
      "Delta": 46816244
    },
    {
      "NoteNumber": 55,
      "Velocity": 67,
      "Duration": 342768,
      "SoundDuration": 342768,
      "Delta": 46816244
    },
    {
      "NoteNumber": 64,
      "Velocity": 67,
      "Duration": 342768,
      "SoundDuration": 342768,
      "Delta": 46816244
    },
    {
      "NoteNumber": 61,
      "Velocity": 67,
      "Duration": 342768,
      "SoundDuration": 342768,
      "Delta": 46816244
    },
    {
      "NoteNumber": 56,
      "Velocity": 74,
      "Duration": 355486,
      "SoundDuration": 355486,
      "Delta": 47159013
    },
    {
      "NoteNumber": 61,
      "Velocity": 74,
      "Duration": 355486,
      "SoundDuration": 355486,
      "Delta": 47159013
    },
    {
      "NoteNumber": 65,
      "Velocity": 74,
      "Duration": 355486,
      "SoundDuration": 355486,
      "Delta": 47159013
    },
    {
      "NoteNumber": 68,
      "Velocity": 77,
      "Duration": 355660,
      "SoundDuration": 355660,
      "Delta": 47514499
    },
    {
      "NoteNumber": 80,
      "Velocity": 77,
      "Duration": 355660,
      "SoundDuration": 355660,
      "Delta": 47514499
    },
    {
      "NoteNumber": 54,
      "Velocity": 64,
      "Duration": 1145308,
      "SoundDuration": 1145308,
      "Delta": 48225821
    },
    {
      "NoteNumber": 60,
      "Velocity": 64,
      "Duration": 730772,
      "SoundDuration": 730772,
      "Delta": 48225821
    },
    {
      "NoteNumber": 32,
      "Velocity": 54,
      "Duration": 1145308,
      "SoundDuration": 1145308,
      "Delta": 48225821
    },
    {
      "NoteNumber": 44,
      "Velocity": 54,
      "Duration": 1145308,
      "SoundDuration": 1145308,
      "Delta": 48225821
    },
    {
      "NoteNumber": 63,
      "Velocity": 61,
      "Duration": 207267,
      "SoundDuration": 207267,
      "Delta": 48956593
    },
    {
      "NoteNumber": 61,
      "Velocity": 61,
      "Duration": 207267,
      "SoundDuration": 207267,
      "Delta": 49163861
    },
    {
      "NoteNumber": 53,
      "Velocity": 54,
      "Duration": 353565,
      "SoundDuration": 353565,
      "Delta": 49371129
    },
    {
      "NoteNumber": 61,
      "Velocity": 58,
      "Duration": 353565,
      "SoundDuration": 353565,
      "Delta": 49371129
    },
    {
      "NoteNumber": 37,
      "Velocity": 51,
      "Duration": 353565,
      "SoundDuration": 353565,
      "Delta": 49371129
    },
    {
      "NoteNumber": 44,
      "Velocity": 51,
      "Duration": 353565,
      "SoundDuration": 353565,
      "Delta": 49371129
    },
    {
      "NoteNumber": 53,
      "Velocity": 85,
      "Duration": 871079,
      "SoundDuration": 871079,
      "Delta": 50078259
    },
    {
      "NoteNumber": 65,
      "Velocity": 100,
      "Duration": 871079,
      "SoundDuration": 871079,
      "Delta": 50078259
    },
    {
      "NoteNumber": 37,
      "Velocity": 65,
      "Duration": 871079,
      "SoundDuration": 871079,
      "Delta": 50368619
    },
    {
      "NoteNumber": 44,
      "Velocity": 77,
      "Duration": 3439624,
      "SoundDuration": 3439624,
      "Delta": 50368619
    },
    {
      "NoteNumber": 54,
      "Velocity": 83,
      "Duration": 871079,
      "SoundDuration": 871079,
      "Delta": 50949339
    },
    {
      "NoteNumber": 66,
      "Velocity": 98,
      "Duration": 871079,
      "SoundDuration": 871079,
      "Delta": 50949339
    },
    {
      "NoteNumber": 39,
      "Velocity": 62,
      "Duration": 860258,
      "SoundDuration": 860258,
      "Delta": 51239699
    },
    {
      "NoteNumber": 63,
      "Velocity": 86,
      "Duration": 559075,
      "SoundDuration": 559075,
      "Delta": 51820419
    },
    {
      "NoteNumber": 75,
      "Velocity": 102,
      "Duration": 559075,
      "SoundDuration": 559075,
      "Delta": 51820419
    },
    {
      "NoteNumber": 42,
      "Velocity": 73,
      "Duration": 838613,
      "SoundDuration": 838613,
      "Delta": 52099957
    },
    {
      "NoteNumber": 60,
      "Velocity": 73,
      "Duration": 279538,
      "SoundDuration": 279538,
      "Delta": 52379495
    },
    {
      "NoteNumber": 72,
      "Velocity": 87,
      "Duration": 279538,
      "SoundDuration": 279538,
      "Delta": 52379495
    },
    {
      "NoteNumber": 56,
      "Velocity": 74,
      "Duration": 69884,
      "SoundDuration": 69884,
      "Delta": 52659033
    },
    {
      "NoteNumber": 68,
      "Velocity": 88,
      "Duration": 69884,
      "SoundDuration": 69884,
      "Delta": 52659033
    },
    {
      "NoteNumber": 61,
      "Velocity": 75,
      "Duration": 279537,
      "SoundDuration": 279537,
      "Delta": 52938571
    },
    {
      "NoteNumber": 73,
      "Velocity": 89,
      "Duration": 279537,
      "SoundDuration": 279537,
      "Delta": 52938571
    },
    {
      "NoteNumber": 41,
      "Velocity": 73,
      "Duration": 869672,
      "SoundDuration": 869672,
      "Delta": 52938571
    },
    {
      "NoteNumber": 65,
      "Velocity": 69,
      "Duration": 149887,
      "SoundDuration": 149887,
      "Delta": 53218109
    },
    {
      "NoteNumber": 77,
      "Velocity": 82,
      "Duration": 149887,
      "SoundDuration": 149887,
      "Delta": 53218109
    },
    {
      "NoteNumber": 53,
      "Velocity": 84,
      "Duration": 871079,
      "SoundDuration": 871079,
      "Delta": 53517884
    },
    {
      "NoteNumber": 65,
      "Velocity": 99,
      "Duration": 871079,
      "SoundDuration": 871079,
      "Delta": 53517884
    },
    {
      "NoteNumber": 37,
      "Velocity": 67,
      "Duration": 871079,
      "SoundDuration": 871079,
      "Delta": 53808244
    },
    {
      "NoteNumber": 44,
      "Velocity": 79,
      "Duration": 2286600,
      "SoundDuration": 2286600,
      "Delta": 53808244
    },
    {
      "NoteNumber": 54,
      "Velocity": 84,
      "Duration": 871079,
      "SoundDuration": 871079,
      "Delta": 54388964
    },
    {
      "NoteNumber": 66,
      "Velocity": 99,
      "Duration": 871079,
      "SoundDuration": 871079,
      "Delta": 54388964
    },
    {
      "NoteNumber": 39,
      "Velocity": 74,
      "Duration": 858986,
      "SoundDuration": 858986,
      "Delta": 54679324
    },
    {
      "NoteNumber": 66,
      "Velocity": 73,
      "Duration": 556533,
      "SoundDuration": 556533,
      "Delta": 55260044
    },
    {
      "NoteNumber": 78,
      "Velocity": 87,
      "Duration": 556533,
      "SoundDuration": 556533,
      "Delta": 55260044
    },
    {
      "NoteNumber": 32,
      "Velocity": 73,
      "Duration": 834800,
      "SoundDuration": 834800,
      "Delta": 55538311
    },
    {
      "NoteNumber": 70,
      "Velocity": 70,
      "Duration": 139133,
      "SoundDuration": 139133,
      "Delta": 55816578
    },
    {
      "NoteNumber": 82,
      "Velocity": 83,
      "Duration": 139133,
      "SoundDuration": 139133,
      "Delta": 55816578
    },
    {
      "NoteNumber": 60,
      "Velocity": 67,
      "Duration": 69566,
      "SoundDuration": 69566,
      "Delta": 56094845
    },
    {
      "NoteNumber": 72,
      "Velocity": 79,
      "Duration": 69566,
      "SoundDuration": 69566,
      "Delta": 56094845
    },
    {
      "NoteNumber": 44,
      "Velocity": 72,
      "Duration": 855547,
      "SoundDuration": 855547,
      "Delta": 56094845
    },
    {
      "NoteNumber": 63,
      "Velocity": 71,
      "Duration": 278266,
      "SoundDuration": 278266,
      "Delta": 56373112
    },
    {
      "NoteNumber": 75,
      "Velocity": 84,
      "Duration": 278266,
      "SoundDuration": 278266,
      "Delta": 56373112
    },
    {
      "NoteNumber": 37,
      "Velocity": 73,
      "Duration": 577280,
      "SoundDuration": 577280,
      "Delta": 56373112
    },
    {
      "NoteNumber": 61,
      "Velocity": 66,
      "Duration": 299013,
      "SoundDuration": 299013,
      "Delta": 56651379
    },
    {
      "NoteNumber": 73,
      "Velocity": 78,
      "Duration": 299013,
      "SoundDuration": 299013,
      "Delta": 56651379
    },
    {
      "NoteNumber": 53,
      "Velocity": 84,
      "Duration": 868935,
      "SoundDuration": 868935,
      "Delta": 56950392
    },
    {
      "NoteNumber": 65,
      "Velocity": 99,
      "Duration": 868935,
      "SoundDuration": 868935,
      "Delta": 56950392
    },
    {
      "NoteNumber": 37,
      "Velocity": 67,
      "Duration": 868935,
      "SoundDuration": 868935,
      "Delta": 57240037
    },
    {
      "NoteNumber": 44,
      "Velocity": 79,
      "Duration": 3428929,
      "SoundDuration": 3428929,
      "Delta": 57240037
    },
    {
      "NoteNumber": 54,
      "Velocity": 85,
      "Duration": 868935,
      "SoundDuration": 868935,
      "Delta": 57819327
    },
    {
      "NoteNumber": 66,
      "Velocity": 100,
      "Duration": 868935,
      "SoundDuration": 868935,
      "Delta": 57819327
    },
    {
      "NoteNumber": 39,
      "Velocity": 73,
      "Duration": 858828,
      "SoundDuration": 858828,
      "Delta": 58108972
    },
    {
      "NoteNumber": 63,
      "Velocity": 84,
      "Duration": 559075,
      "SoundDuration": 559075,
      "Delta": 58688262
    },
    {
      "NoteNumber": 75,
      "Velocity": 99,
      "Duration": 559075,
      "SoundDuration": 559075,
      "Delta": 58688262
    },
    {
      "NoteNumber": 42,
      "Velocity": 73,
      "Duration": 838613,
      "SoundDuration": 838613,
      "Delta": 58967800
    },
    {
      "NoteNumber": 60,
      "Velocity": 73,
      "Duration": 279538,
      "SoundDuration": 279538,
      "Delta": 59247338
    },
    {
      "NoteNumber": 72,
      "Velocity": 87,
      "Duration": 279538,
      "SoundDuration": 279538,
      "Delta": 59247338
    },
    {
      "NoteNumber": 56,
      "Velocity": 74,
      "Duration": 69884,
      "SoundDuration": 69884,
      "Delta": 59526876
    },
    {
      "NoteNumber": 68,
      "Velocity": 88,
      "Duration": 69884,
      "SoundDuration": 69884,
      "Delta": 59526876
    },
    {
      "NoteNumber": 61,
      "Velocity": 75,
      "Duration": 279537,
      "SoundDuration": 279537,
      "Delta": 59806414
    },
    {
      "NoteNumber": 73,
      "Velocity": 89,
      "Duration": 279537,
      "SoundDuration": 279537,
      "Delta": 59806414
    },
    {
      "NoteNumber": 41,
      "Velocity": 73,
      "Duration": 862552,
      "SoundDuration": 862552,
      "Delta": 59806414
    },
    {
      "NoteNumber": 65,
      "Velocity": 70,
      "Duration": 148404,
      "SoundDuration": 148404,
      "Delta": 60085952
    },
    {
      "NoteNumber": 77,
      "Velocity": 83,
      "Duration": 148404,
      "SoundDuration": 148404,
      "Delta": 60085952
    },
    {
      "NoteNumber": 53,
      "Velocity": 85,
      "Duration": 858615,
      "SoundDuration": 858615,
      "Delta": 60382761
    },
    {
      "NoteNumber": 65,
      "Velocity": 100,
      "Duration": 858615,
      "SoundDuration": 858615,
      "Delta": 60382761
    },
    {
      "NoteNumber": 37,
      "Velocity": 67,
      "Duration": 858615,
      "SoundDuration": 858615,
      "Delta": 60668966
    },
    {
      "NoteNumber": 44,
      "Velocity": 79,
      "Duration": 2299959,
      "SoundDuration": 2299959,
      "Delta": 60668966
    },
    {
      "NoteNumber": 54,
      "Velocity": 86,
      "Duration": 858615,
      "SoundDuration": 858615,
      "Delta": 61241376
    },
    {
      "NoteNumber": 66,
      "Velocity": 102,
      "Duration": 858615,
      "SoundDuration": 858615,
      "Delta": 61241376
    },
    {
      "NoteNumber": 39,
      "Velocity": 74,
      "Duration": 862054,
      "SoundDuration": 862054,
      "Delta": 61527581
    },
    {
      "NoteNumber": 66,
      "Velocity": 73,
      "Duration": 579290,
      "SoundDuration": 579290,
      "Delta": 62099991
    },
    {
      "NoteNumber": 78,
      "Velocity": 87,
      "Duration": 579290,
      "SoundDuration": 579290,
      "Delta": 62099991
    },
    {
      "NoteNumber": 32,
      "Velocity": 73,
      "Duration": 868935,
      "SoundDuration": 868935,
      "Delta": 62389636
    },
    {
      "NoteNumber": 70,
      "Velocity": 73,
      "Duration": 144822,
      "SoundDuration": 144822,
      "Delta": 62679281
    },
    {
      "NoteNumber": 82,
      "Velocity": 87,
      "Duration": 144822,
      "SoundDuration": 144822,
      "Delta": 62679281
    },
    {
      "NoteNumber": 60,
      "Velocity": 72,
      "Duration": 72411,
      "SoundDuration": 72411,
      "Delta": 62968926
    },
    {
      "NoteNumber": 72,
      "Velocity": 85,
      "Duration": 72411,
      "SoundDuration": 72411,
      "Delta": 62968926
    },
    {
      "NoteNumber": 44,
      "Velocity": 72,
      "Duration": 884384,
      "SoundDuration": 884384,
      "Delta": 62968926
    },
    {
      "NoteNumber": 63,
      "Velocity": 67,
      "Duration": 289645,
      "SoundDuration": 289645,
      "Delta": 63258571
    },
    {
      "NoteNumber": 75,
      "Velocity": 79,
      "Duration": 289645,
      "SoundDuration": 289645,
      "Delta": 63258571
    },
    {
      "NoteNumber": 37,
      "Velocity": 66,
      "Duration": 594739,
      "SoundDuration": 594739,
      "Delta": 63258571
    },
    {
      "NoteNumber": 61,
      "Velocity": 62,
      "Duration": 305094,
      "SoundDuration": 305094,
      "Delta": 63548216
    },
    {
      "NoteNumber": 73,
      "Velocity": 74,
      "Duration": 305094,
      "SoundDuration": 305094,
      "Delta": 63548216
    },
    {
      "NoteNumber": 65,
      "Velocity": 46,
      "Duration": 868934,
      "SoundDuration": 868934,
      "Delta": 63853311
    },
    {
      "NoteNumber": 77,
      "Velocity": 55,
      "Duration": 868934,
      "SoundDuration": 868934,
      "Delta": 63853311
    },
    {
      "NoteNumber": 50,
      "Velocity": 35,
      "Duration": 868935,
      "SoundDuration": 868935,
      "Delta": 64142956
    },
    {
      "NoteNumber": 56,
      "Velocity": 42,
      "Duration": 868935,
      "SoundDuration": 868935,
      "Delta": 64142956
    },
    {
      "NoteNumber": 58,
      "Velocity": 46,
      "Duration": 868935,
      "SoundDuration": 868935,
      "Delta": 64722246
    },
    {
      "NoteNumber": 70,
      "Velocity": 55,
      "Duration": 868935,
      "SoundDuration": 868935,
      "Delta": 64722246
    },
    {
      "NoteNumber": 49,
      "Velocity": 33,
      "Duration": 868934,
      "SoundDuration": 868934,
      "Delta": 65011891
    },
    {
      "NoteNumber": 55,
      "Velocity": 39,
      "Duration": 868934,
      "SoundDuration": 868934,
      "Delta": 65011891
    },
    {
      "NoteNumber": 63,
      "Velocity": 40,
      "Duration": 868934,
      "SoundDuration": 868934,
      "Delta": 65591181
    },
    {
      "NoteNumber": 75,
      "Velocity": 48,
      "Duration": 868934,
      "SoundDuration": 868934,
      "Delta": 65591181
    },
    {
      "NoteNumber": 48,
      "Velocity": 30,
      "Duration": 868935,
      "SoundDuration": 868935,
      "Delta": 65880826
    },
    {
      "NoteNumber": 54,
      "Velocity": 36,
      "Duration": 868935,
      "SoundDuration": 868935,
      "Delta": 65880826
    },
    {
      "NoteNumber": 56,
      "Velocity": 41,
      "Duration": 868935,
      "SoundDuration": 868935,
      "Delta": 66460116
    },
    {
      "NoteNumber": 68,
      "Velocity": 49,
      "Duration": 868935,
      "SoundDuration": 868935,
      "Delta": 66460116
    },
    {
      "NoteNumber": 47,
      "Velocity": 29,
      "Duration": 868934,
      "SoundDuration": 868934,
      "Delta": 66749761
    },
    {
      "NoteNumber": 53,
      "Velocity": 35,
      "Duration": 868934,
      "SoundDuration": 868934,
      "Delta": 66749761
    },
    {
      "NoteNumber": 61,
      "Velocity": 41,
      "Duration": 868934,
      "SoundDuration": 868934,
      "Delta": 67329051
    },
    {
      "NoteNumber": 73,
      "Velocity": 49,
      "Duration": 868934,
      "SoundDuration": 868934,
      "Delta": 67329051
    },
    {
      "NoteNumber": 46,
      "Velocity": 42,
      "Duration": 868935,
      "SoundDuration": 868935,
      "Delta": 67618696
    },
    {
      "NoteNumber": 49,
      "Velocity": 50,
      "Duration": 3440912,
      "SoundDuration": 3440912,
      "Delta": 67618696
    },
    {
      "NoteNumber": 54,
      "Velocity": 36,
      "Duration": 868935,
      "SoundDuration": 868935,
      "Delta": 68197986
    },
    {
      "NoteNumber": 66,
      "Velocity": 43,
      "Duration": 868935,
      "SoundDuration": 868935,
      "Delta": 68197986
    },
    {
      "NoteNumber": 44,
      "Velocity": 37,
      "Duration": 863474,
      "SoundDuration": 863474,
      "Delta": 68487631
    },
    {
      "NoteNumber": 53,
      "Velocity": 37,
      "Duration": 568370,
      "SoundDuration": 568370,
      "Delta": 69066921
    },
    {
      "NoteNumber": 65,
      "Velocity": 44,
      "Duration": 568370,
      "SoundDuration": 568370,
      "Delta": 69066921
    },
    {
      "NoteNumber": 37,
      "Velocity": 36,
      "Duration": 284185,
      "SoundDuration": 284185,
      "Delta": 69351106
    },
    {
      "NoteNumber": 56,
      "Velocity": 37,
      "Duration": 284184,
      "SoundDuration": 284184,
      "Delta": 69635291
    },
    {
      "NoteNumber": 68,
      "Velocity": 44,
      "Duration": 284184,
      "SoundDuration": 284184,
      "Delta": 69635291
    },
    {
      "NoteNumber": 41,
      "Velocity": 36,
      "Duration": 284184,
      "SoundDuration": 284184,
      "Delta": 69635291
    },
    {
      "NoteNumber": 59,
      "Velocity": 37,
      "Duration": 568370,
      "SoundDuration": 568370,
      "Delta": 69919476
    },
    {
      "NoteNumber": 71,
      "Velocity": 44,
      "Duration": 568370,
      "SoundDuration": 568370,
      "Delta": 69919476
    },
    {
      "NoteNumber": 44,
      "Velocity": 41,
      "Duration": 284185,
      "SoundDuration": 284185,
      "Delta": 69919476
    },
    {
      "NoteNumber": 42,
      "Velocity": 36,
      "Duration": 855947,
      "SoundDuration": 855947,
      "Delta": 70203661
    },
    {
      "NoteNumber": 58,
      "Velocity": 37,
      "Duration": 142092,
      "SoundDuration": 142092,
      "Delta": 70487846
    },
    {
      "NoteNumber": 70,
      "Velocity": 44,
      "Duration": 142092,
      "SoundDuration": 142092,
      "Delta": 70487846
    },
    {
      "NoteNumber": 61,
      "Velocity": 40,
      "Duration": 862730,
      "SoundDuration": 862730,
      "Delta": 70772031
    },
    {
      "NoteNumber": 73,
      "Velocity": 48,
      "Duration": 862730,
      "SoundDuration": 862730,
      "Delta": 70772031
    },
    {
      "NoteNumber": 46,
      "Velocity": 41,
      "Duration": 862730,
      "SoundDuration": 862730,
      "Delta": 71059608
    },
    {
      "NoteNumber": 49,
      "Velocity": 49,
      "Duration": 3450924,
      "SoundDuration": 3450924,
      "Delta": 71059608
    },
    {
      "NoteNumber": 54,
      "Velocity": 40,
      "Duration": 862731,
      "SoundDuration": 862731,
      "Delta": 71634762
    },
    {
      "NoteNumber": 66,
      "Velocity": 48,
      "Duration": 862731,
      "SoundDuration": 862731,
      "Delta": 71634762
    },
    {
      "NoteNumber": 44,
      "Velocity": 37,
      "Duration": 862731,
      "SoundDuration": 862731,
      "Delta": 71922339
    },
    {
      "NoteNumber": 53,
      "Velocity": 39,
      "Duration": 862730,
      "SoundDuration": 862730,
      "Delta": 72497493
    },
    {
      "NoteNumber": 65,
      "Velocity": 47,
      "Duration": 862730,
      "SoundDuration": 862730,
      "Delta": 72497493
    },
    {
      "NoteNumber": 43,
      "Velocity": 37,
      "Duration": 862730,
      "SoundDuration": 862730,
      "Delta": 72785070
    },
    {
      "NoteNumber": 52,
      "Velocity": 42,
      "Duration": 862730,
      "SoundDuration": 862730,
      "Delta": 73360224
    },
    {
      "NoteNumber": 64,
      "Velocity": 50,
      "Duration": 862730,
      "SoundDuration": 862730,
      "Delta": 73360224
    },
    {
      "NoteNumber": 44,
      "Velocity": 37,
      "Duration": 862730,
      "SoundDuration": 862730,
      "Delta": 73647801
    },
    {
      "NoteNumber": 53,
      "Velocity": 54,
      "Duration": 862730,
      "SoundDuration": 862730,
      "Delta": 74222955
    },
    {
      "NoteNumber": 65,
      "Velocity": 64,
      "Duration": 862730,
      "SoundDuration": 862730,
      "Delta": 74222955
    },
    {
      "NoteNumber": 46,
      "Velocity": 45,
      "Duration": 862730,
      "SoundDuration": 862730,
      "Delta": 74510532
    },
    {
      "NoteNumber": 49,
      "Velocity": 38,
      "Duration": 1725462,
      "SoundDuration": 1725462,
      "Delta": 74510532
    },
    {
      "NoteNumber": 54,
      "Velocity": 74,
      "Duration": 862730,
      "SoundDuration": 862730,
      "Delta": 75085686
    },
    {
      "NoteNumber": 66,
      "Velocity": 85,
      "Duration": 862730,
      "SoundDuration": 862730,
      "Delta": 75085686
    },
    {
      "NoteNumber": 44,
      "Velocity": 54,
      "Duration": 1468324,
      "SoundDuration": 1468324,
      "Delta": 75373263
    },
    {
      "NoteNumber": 53,
      "Velocity": 56,
      "Duration": 575154,
      "SoundDuration": 575154,
      "Delta": 75948417
    },
    {
      "NoteNumber": 65,
      "Velocity": 66,
      "Duration": 575154,
      "SoundDuration": 575154,
      "Delta": 75948417
    },
    {
      "NoteNumber": 32,
      "Velocity": 54,
      "Duration": 605592,
      "SoundDuration": 605592,
      "Delta": 76235994
    },
    {
      "NoteNumber": 54,
      "Velocity": 54,
      "Duration": 159008,
      "SoundDuration": 159008,
      "Delta": 76523571
    },
    {
      "NoteNumber": 66,
      "Velocity": 64,
      "Duration": 159008,
      "SoundDuration": 159008,
      "Delta": 76523571
    },
    {
      "NoteNumber": 48,
      "Velocity": 48,
      "Duration": 79504,
      "SoundDuration": 79504,
      "Delta": 76841587
    },
    {
      "NoteNumber": 60,
      "Velocity": 57,
      "Duration": 79504,
      "SoundDuration": 79504,
      "Delta": 76841587
    },
    {
      "NoteNumber": 44,
      "Velocity": 48,
      "Duration": 79504,
      "SoundDuration": 79504,
      "Delta": 76841587
    },
    {
      "NoteNumber": 49,
      "Velocity": 48,
      "Duration": 72240,
      "SoundDuration": 72240,
      "Delta": 77159603
    },
    {
      "NoteNumber": 61,
      "Velocity": 57,
      "Duration": 72240,
      "SoundDuration": 72240,
      "Delta": 77159603
    },
    {
      "NoteNumber": 37,
      "Velocity": 48,
      "Duration": 72240,
      "SoundDuration": 72240,
      "Delta": 77159603
    },
    {
      "NoteNumber": 65,
      "Velocity": 44,
      "Duration": 866886,
      "SoundDuration": 866886,
      "Delta": 77737527
    },
    {
      "NoteNumber": 77,
      "Velocity": 52,
      "Duration": 866886,
      "SoundDuration": 866886,
      "Delta": 77737527
    },
    {
      "NoteNumber": 50,
      "Velocity": 33,
      "Duration": 866886,
      "SoundDuration": 866886,
      "Delta": 78026489
    },
    {
      "NoteNumber": 56,
      "Velocity": 39,
      "Duration": 866886,
      "SoundDuration": 866886,
      "Delta": 78026489
    },
    {
      "NoteNumber": 58,
      "Velocity": 41,
      "Duration": 866885,
      "SoundDuration": 866885,
      "Delta": 78604413
    },
    {
      "NoteNumber": 70,
      "Velocity": 49,
      "Duration": 866885,
      "SoundDuration": 866885,
      "Delta": 78604413
    },
    {
      "NoteNumber": 49,
      "Velocity": 29,
      "Duration": 866885,
      "SoundDuration": 866885,
      "Delta": 78893375
    },
    {
      "NoteNumber": 55,
      "Velocity": 35,
      "Duration": 866885,
      "SoundDuration": 866885,
      "Delta": 78893375
    },
    {
      "NoteNumber": 63,
      "Velocity": 41,
      "Duration": 866886,
      "SoundDuration": 866886,
      "Delta": 79471299
    },
    {
      "NoteNumber": 75,
      "Velocity": 49,
      "Duration": 866886,
      "SoundDuration": 866886,
      "Delta": 79471299
    },
    {
      "NoteNumber": 48,
      "Velocity": 31,
      "Duration": 866886,
      "SoundDuration": 866886,
      "Delta": 79760261
    },
    {
      "NoteNumber": 54,
      "Velocity": 37,
      "Duration": 866886,
      "SoundDuration": 866886,
      "Delta": 79760261
    },
    {
      "NoteNumber": 56,
      "Velocity": 39,
      "Duration": 860389,
      "SoundDuration": 860389,
      "Delta": 80338185
    },
    {
      "NoteNumber": 68,
      "Velocity": 47,
      "Duration": 860389,
      "SoundDuration": 860389,
      "Delta": 80338185
    },
    {
      "NoteNumber": 47,
      "Velocity": 28,
      "Duration": 857141,
      "SoundDuration": 857141,
      "Delta": 80627147
    },
    {
      "NoteNumber": 53,
      "Velocity": 34,
      "Duration": 857141,
      "SoundDuration": 857141,
      "Delta": 80627147
    },
    {
      "NoteNumber": 61,
      "Velocity": 41,
      "Duration": 857141,
      "SoundDuration": 857141,
      "Delta": 81198575
    },
    {
      "NoteNumber": 73,
      "Velocity": 49,
      "Duration": 857141,
      "SoundDuration": 857141,
      "Delta": 81198575
    },
    {
      "NoteNumber": 46,
      "Velocity": 42,
      "Duration": 857142,
      "SoundDuration": 857142,
      "Delta": 81484289
    },
    {
      "NoteNumber": 49,
      "Velocity": 50,
      "Duration": 3413139,
      "SoundDuration": 3413139,
      "Delta": 81484289
    },
    {
      "NoteNumber": 54,
      "Velocity": 35,
      "Duration": 857142,
      "SoundDuration": 857142,
      "Delta": 82055717
    },
    {
      "NoteNumber": 66,
      "Velocity": 42,
      "Duration": 857142,
      "SoundDuration": 857142,
      "Delta": 82055717
    },
    {
      "NoteNumber": 44,
      "Velocity": 36,
      "Duration": 854259,
      "SoundDuration": 854259,
      "Delta": 82341431
    },
    {
      "NoteNumber": 53,
      "Velocity": 36,
      "Duration": 565663,
      "SoundDuration": 565663,
      "Delta": 82912859
    },
    {
      "NoteNumber": 65,
      "Velocity": 43,
      "Duration": 565663,
      "SoundDuration": 565663,
      "Delta": 82912859
    },
    {
      "NoteNumber": 37,
      "Velocity": 35,
      "Duration": 282831,
      "SoundDuration": 282831,
      "Delta": 83195691
    },
    {
      "NoteNumber": 56,
      "Velocity": 36,
      "Duration": 282831,
      "SoundDuration": 282831,
      "Delta": 83478523
    },
    {
      "NoteNumber": 68,
      "Velocity": 43,
      "Duration": 282831,
      "SoundDuration": 282831,
      "Delta": 83478523
    },
    {
      "NoteNumber": 41,
      "Velocity": 35,
      "Duration": 282831,
      "SoundDuration": 282831,
      "Delta": 83478523
    },
    {
      "NoteNumber": 59,
      "Velocity": 42,
      "Duration": 565663,
      "SoundDuration": 565663,
      "Delta": 83761355
    },
    {
      "NoteNumber": 71,
      "Velocity": 50,
      "Duration": 565663,
      "SoundDuration": 565663,
      "Delta": 83761355
    },
    {
      "NoteNumber": 44,
      "Velocity": 39,
      "Duration": 282831,
      "SoundDuration": 282831,
      "Delta": 83761355
    },
    {
      "NoteNumber": 42,
      "Velocity": 41,
      "Duration": 853240,
      "SoundDuration": 853240,
      "Delta": 84044187
    },
    {
      "NoteNumber": 58,
      "Velocity": 36,
      "Duration": 141416,
      "SoundDuration": 141416,
      "Delta": 84327019
    },
    {
      "NoteNumber": 70,
      "Velocity": 43,
      "Duration": 141416,
      "SoundDuration": 141416,
      "Delta": 84327019
    },
    {
      "NoteNumber": 61,
      "Velocity": 43,
      "Duration": 862730,
      "SoundDuration": 862730,
      "Delta": 84609851
    },
    {
      "NoteNumber": 73,
      "Velocity": 51,
      "Duration": 862730,
      "SoundDuration": 862730,
      "Delta": 84609851
    },
    {
      "NoteNumber": 46,
      "Velocity": 39,
      "Duration": 862730,
      "SoundDuration": 862730,
      "Delta": 84897428
    },
    {
      "NoteNumber": 49,
      "Velocity": 47,
      "Duration": 3450924,
      "SoundDuration": 3450924,
      "Delta": 84897428
    },
    {
      "NoteNumber": 54,
      "Velocity": 41,
      "Duration": 862730,
      "SoundDuration": 862730,
      "Delta": 85472582
    },
    {
      "NoteNumber": 66,
      "Velocity": 49,
      "Duration": 862730,
      "SoundDuration": 862730,
      "Delta": 85472582
    },
    {
      "NoteNumber": 44,
      "Velocity": 39,
      "Duration": 862731,
      "SoundDuration": 862731,
      "Delta": 85760159
    },
    {
      "NoteNumber": 53,
      "Velocity": 39,
      "Duration": 862731,
      "SoundDuration": 862731,
      "Delta": 86335313
    },
    {
      "NoteNumber": 65,
      "Velocity": 46,
      "Duration": 862731,
      "SoundDuration": 862731,
      "Delta": 86335313
    },
    {
      "NoteNumber": 43,
      "Velocity": 39,
      "Duration": 862730,
      "SoundDuration": 862730,
      "Delta": 86622890
    },
    {
      "NoteNumber": 52,
      "Velocity": 39,
      "Duration": 862730,
      "SoundDuration": 862730,
      "Delta": 87198044
    },
    {
      "NoteNumber": 64,
      "Velocity": 47,
      "Duration": 862730,
      "SoundDuration": 862730,
      "Delta": 87198044
    },
    {
      "NoteNumber": 44,
      "Velocity": 39,
      "Duration": 862730,
      "SoundDuration": 862730,
      "Delta": 87485621
    },
    {
      "NoteNumber": 53,
      "Velocity": 54,
      "Duration": 862730,
      "SoundDuration": 862730,
      "Delta": 88060775
    },
    {
      "NoteNumber": 65,
      "Velocity": 64,
      "Duration": 862730,
      "SoundDuration": 862730,
      "Delta": 88060775
    },
    {
      "NoteNumber": 46,
      "Velocity": 38,
      "Duration": 862730,
      "SoundDuration": 862730,
      "Delta": 88348352
    },
    {
      "NoteNumber": 49,
      "Velocity": 45,
      "Duration": 1725462,
      "SoundDuration": 1725462,
      "Delta": 88348352
    },
    {
      "NoteNumber": 54,
      "Velocity": 72,
      "Duration": 862731,
      "SoundDuration": 862731,
      "Delta": 88923506
    },
    {
      "NoteNumber": 66,
      "Velocity": 85,
      "Duration": 862731,
      "SoundDuration": 862731,
      "Delta": 88923506
    },
    {
      "NoteNumber": 44,
      "Velocity": 54,
      "Duration": 1461737,
      "SoundDuration": 1461737,
      "Delta": 89211083
    },
    {
      "NoteNumber": 53,
      "Velocity": 56,
      "Duration": 575153,
      "SoundDuration": 575153,
      "Delta": 89786237
    },
    {
      "NoteNumber": 65,
      "Velocity": 66,
      "Duration": 575153,
      "SoundDuration": 575153,
      "Delta": 89786237
    },
    {
      "NoteNumber": 32,
      "Velocity": 54,
      "Duration": 599006,
      "SoundDuration": 599006,
      "Delta": 90073814
    },
    {
      "NoteNumber": 54,
      "Velocity": 54,
      "Duration": 155714,
      "SoundDuration": 155714,
      "Delta": 90361391
    },
    {
      "NoteNumber": 66,
      "Velocity": 64,
      "Duration": 155714,
      "SoundDuration": 155714,
      "Delta": 90361391
    },
    {
      "NoteNumber": 48,
      "Velocity": 49,
      "Duration": 77857,
      "SoundDuration": 77857,
      "Delta": 90672820
    },
    {
      "NoteNumber": 60,
      "Velocity": 58,
      "Duration": 77857,
      "SoundDuration": 77857,
      "Delta": 90672820
    },
    {
      "NoteNumber": 44,
      "Velocity": 52,
      "Duration": 77857,
      "SoundDuration": 77857,
      "Delta": 90672820
    },
    {
      "NoteNumber": 49,
      "Velocity": 49,
      "Duration": 77857,
      "SoundDuration": 77857,
      "Delta": 90984249
    },
    {
      "NoteNumber": 61,
      "Velocity": 58,
      "Duration": 77857,
      "SoundDuration": 77857,
      "Delta": 90984249
    },
    {
      "NoteNumber": 37,
      "Velocity": 52,
      "Duration": 77857,
      "SoundDuration": 77857,
      "Delta": 90984249
    },
    {
      "NoteNumber": 68,
      "Velocity": 64,
      "Duration": 286204,
      "SoundDuration": 286204,
      "Delta": 91607107
    },
    {
      "NoteNumber": 73,
      "Velocity": 64,
      "Duration": 286204,
      "SoundDuration": 286204,
      "Delta": 91607107
    },
    {
      "NoteNumber": 65,
      "Velocity": 54,
      "Duration": 286204,
      "SoundDuration": 286204,
      "Delta": 91607107
    },
    {
      "NoteNumber": 72,
      "Velocity": 64,
      "Duration": 572415,
      "SoundDuration": 572415,
      "Delta": 91893909
    },
    {
      "NoteNumber": 68,
      "Velocity": 64,
      "Duration": 572415,
      "SoundDuration": 572415,
      "Delta": 91893909
    },
    {
      "NoteNumber": 63,
      "Velocity": 54,
      "Duration": 572415,
      "SoundDuration": 572415,
      "Delta": 91893909
    },
    {
      "NoteNumber": 67,
      "Velocity": 59,
      "Duration": 288961,
      "SoundDuration": 288961,
      "Delta": 92465722
    },
    {
      "NoteNumber": 70,
      "Velocity": 59,
      "Duration": 288961,
      "SoundDuration": 288961,
      "Delta": 92465722
    },
    {
      "NoteNumber": 61,
      "Velocity": 50,
      "Duration": 288961,
      "SoundDuration": 288961,
      "Delta": 92465722
    },
    {
      "NoteNumber": 68,
      "Velocity": 55,
      "Duration": 54180,
      "SoundDuration": 54180,
      "Delta": 92754684
    },
    {
      "NoteNumber": 75,
      "Velocity": 55,
      "Duration": 54180,
      "SoundDuration": 54180,
      "Delta": 92754684
    },
    {
      "NoteNumber": 60,
      "Velocity": 46,
      "Duration": 54180,
      "SoundDuration": 54180,
      "Delta": 92754684
    },
    {
      "NoteNumber": 65,
      "Velocity": 55,
      "Duration": 52291,
      "SoundDuration": 52291,
      "Delta": 93332608
    },
    {
      "NoteNumber": 73,
      "Velocity": 55,
      "Duration": 52291,
      "SoundDuration": 52291,
      "Delta": 93332608
    },
    {
      "NoteNumber": 49,
      "Velocity": 45,
      "Duration": 52291,
      "SoundDuration": 52291,
      "Delta": 93332608
    },
    {
      "NoteNumber": 58,
      "Velocity": 45,
      "Duration": 52291,
      "SoundDuration": 52291,
      "Delta": 93332608
    },
    {
      "NoteNumber": 68,
      "Velocity": 55,
      "Duration": 53045,
      "SoundDuration": 53045,
      "Delta": 93611496
    },
    {
      "NoteNumber": 72,
      "Velocity": 55,
      "Duration": 53045,
      "SoundDuration": 53045,
      "Delta": 93611496
    },
    {
      "NoteNumber": 63,
      "Velocity": 47,
      "Duration": 53045,
      "SoundDuration": 53045,
      "Delta": 93611496
    },
    {
      "NoteNumber": 51,
      "Velocity": 47,
      "Duration": 53045,
      "SoundDuration": 53045,
      "Delta": 93611496
    },
    {
      "NoteNumber": 67,
      "Velocity": 50,
      "Duration": 54347,
      "SoundDuration": 54347,
      "Delta": 94173374
    },
    {
      "NoteNumber": 70,
      "Velocity": 50,
      "Duration": 54347,
      "SoundDuration": 54347,
      "Delta": 94173374
    },
    {
      "NoteNumber": 51,
      "Velocity": 40,
      "Duration": 54347,
      "SoundDuration": 54347,
      "Delta": 94173374
    },
    {
      "NoteNumber": 61,
      "Velocity": 40,
      "Duration": 54347,
      "SoundDuration": 54347,
      "Delta": 94173374
    },
    {
      "NoteNumber": 68,
      "Velocity": 48,
      "Duration": 54347,
      "SoundDuration": 54347,
      "Delta": 94463229
    },
    {
      "NoteNumber": 56,
      "Velocity": 42,
      "Duration": 54347,
      "SoundDuration": 54347,
      "Delta": 94463229
    },
    {
      "NoteNumber": 60,
      "Velocity": 42,
      "Duration": 54347,
      "SoundDuration": 54347,
      "Delta": 94463229
    },
    {
      "NoteNumber": 73,
      "Velocity": 64,
      "Duration": 286205,
      "SoundDuration": 286205,
      "Delta": 95039289
    },
    {
      "NoteNumber": 78,
      "Velocity": 64,
      "Duration": 286205,
      "SoundDuration": 286205,
      "Delta": 95039289
    },
    {
      "NoteNumber": 70,
      "Velocity": 49,
      "Duration": 286205,
      "SoundDuration": 286205,
      "Delta": 95039289
    },
    {
      "NoteNumber": 73,
      "Velocity": 64,
      "Duration": 572409,
      "SoundDuration": 572409,
      "Delta": 95325494
    },
    {
      "NoteNumber": 77,
      "Velocity": 64,
      "Duration": 572409,
      "SoundDuration": 572409,
      "Delta": 95325494
    },
    {
      "NoteNumber": 68,
      "Velocity": 54,
      "Duration": 572409,
      "SoundDuration": 572409,
      "Delta": 95325494
    },
    {
      "NoteNumber": 72,
      "Velocity": 60,
      "Duration": 288961,
      "SoundDuration": 288961,
      "Delta": 95897904
    },
    {
      "NoteNumber": 75,
      "Velocity": 60,
      "Duration": 288961,
      "SoundDuration": 288961,
      "Delta": 95897904
    },
    {
      "NoteNumber": 66,
      "Velocity": 46,
      "Duration": 288961,
      "SoundDuration": 288961,
      "Delta": 95897904
    },
    {
      "NoteNumber": 73,
      "Velocity": 56,
      "Duration": 54180,
      "SoundDuration": 54180,
      "Delta": 96186866
    },
    {
      "NoteNumber": 80,
      "Velocity": 56,
      "Duration": 54180,
      "SoundDuration": 54180,
      "Delta": 96186866
    },
    {
      "NoteNumber": 65,
      "Velocity": 48,
      "Duration": 54180,
      "SoundDuration": 54180,
      "Delta": 96186866
    },
    {
      "NoteNumber": 70,
      "Velocity": 55,
      "Duration": 52550,
      "SoundDuration": 52550,
      "Delta": 96764790
    },
    {
      "NoteNumber": 78,
      "Velocity": 55,
      "Duration": 52550,
      "SoundDuration": 52550,
      "Delta": 96764790
    },
    {
      "NoteNumber": 54,
      "Velocity": 45,
      "Duration": 52550,
      "SoundDuration": 52550,
      "Delta": 96764790
    },
    {
      "NoteNumber": 63,
      "Velocity": 45,
      "Duration": 52550,
      "SoundDuration": 52550,
      "Delta": 96764790
    },
    {
      "NoteNumber": 73,
      "Velocity": 56,
      "Duration": 52921,
      "SoundDuration": 52921,
      "Delta": 97045059
    },
    {
      "NoteNumber": 77,
      "Velocity": 56,
      "Duration": 52921,
      "SoundDuration": 52921,
      "Delta": 97045059
    },
    {
      "NoteNumber": 56,
      "Velocity": 47,
      "Duration": 52921,
      "SoundDuration": 52921,
      "Delta": 97045059
    },
    {
      "NoteNumber": 68,
      "Velocity": 47,
      "Duration": 52921,
      "SoundDuration": 52921,
      "Delta": 97045059
    },
    {
      "NoteNumber": 72,
      "Velocity": 54,
      "Duration": 54086,
      "SoundDuration": 54086,
      "Delta": 97606922
    },
    {
      "NoteNumber": 75,
      "Velocity": 54,
      "Duration": 54086,
      "SoundDuration": 54086,
      "Delta": 97606922
    },
    {
      "NoteNumber": 56,
      "Velocity": 40,
      "Duration": 54086,
      "SoundDuration": 54086,
      "Delta": 97606922
    },
    {
      "NoteNumber": 66,
      "Velocity": 40,
      "Duration": 54086,
      "SoundDuration": 54086,
      "Delta": 97606922
    },
    {
      "NoteNumber": 73,
      "Velocity": 51,
      "Duration": 54086,
      "SoundDuration": 54086,
      "Delta": 97895384
    },
    {
      "NoteNumber": 61,
      "Velocity": 42,
      "Duration": 54086,
      "SoundDuration": 54086,
      "Delta": 97895384
    },
    {
      "NoteNumber": 65,
      "Velocity": 42,
      "Duration": 54086,
      "SoundDuration": 54086,
      "Delta": 97895384
    },
    {
      "NoteNumber": 61,
      "Velocity": 64,
      "Duration": 565903,
      "SoundDuration": 565903,
      "Delta": 98472308
    },
    {
      "NoteNumber": 73,
      "Velocity": 64,
      "Duration": 565903,
      "SoundDuration": 565903,
      "Delta": 98472308
    },
    {
      "NoteNumber": 53,
      "Velocity": 49,
      "Duration": 279616,
      "SoundDuration": 279616,
      "Delta": 98472308
    },
    {
      "NoteNumber": 56,
      "Velocity": 49,
      "Duration": 279616,
      "SoundDuration": 279616,
      "Delta": 98472308
    },
    {
      "NoteNumber": 51,
      "Velocity": 54,
      "Duration": 572574,
      "SoundDuration": 572574,
      "Delta": 98751924
    },
    {
      "NoteNumber": 56,
      "Velocity": 54,
      "Duration": 572574,
      "SoundDuration": 572574,
      "Delta": 98751924
    },
    {
      "NoteNumber": 60,
      "Velocity": 64,
      "Duration": 286287,
      "SoundDuration": 286287,
      "Delta": 99038211
    },
    {
      "NoteNumber": 72,
      "Velocity": 64,
      "Duration": 286287,
      "SoundDuration": 286287,
      "Delta": 99038211
    },
    {
      "NoteNumber": 58,
      "Velocity": 64,
      "Duration": 288268,
      "SoundDuration": 288268,
      "Delta": 99324498
    },
    {
      "NoteNumber": 70,
      "Velocity": 64,
      "Duration": 573304,
      "SoundDuration": 573304,
      "Delta": 99324498
    },
    {
      "NoteNumber": 55,
      "Velocity": 49,
      "Duration": 288268,
      "SoundDuration": 288268,
      "Delta": 99324498
    },
    {
      "NoteNumber": 49,
      "Velocity": 49,
      "Duration": 288268,
      "SoundDuration": 288268,
      "Delta": 99324498
    },
    {
      "NoteNumber": 63,
      "Velocity": 64,
      "Duration": 285036,
      "SoundDuration": 285036,
      "Delta": 99612766
    },
    {
      "NoteNumber": 48,
      "Velocity": 54,
      "Duration": 285036,
      "SoundDuration": 285036,
      "Delta": 99612766
    },
    {
      "NoteNumber": 60,
      "Velocity": 54,
      "Duration": 285036,
      "SoundDuration": 285036,
      "Delta": 99612766
    },
    {
      "NoteNumber": 75,
      "Velocity": 64,
      "Duration": 71258,
      "SoundDuration": 71258,
      "Delta": 99897802
    },
    {
      "NoteNumber": 73,
      "Velocity": 59,
      "Duration": 558617,
      "SoundDuration": 558617,
      "Delta": 100182838
    },
    {
      "NoteNumber": 65,
      "Velocity": 59,
      "Duration": 277034,
      "SoundDuration": 277034,
      "Delta": 100182838
    },
    {
      "NoteNumber": 49,
      "Velocity": 46,
      "Duration": 138516,
      "SoundDuration": 138516,
      "Delta": 100182838
    },
    {
      "NoteNumber": 58,
      "Velocity": 46,
      "Duration": 138516,
      "SoundDuration": 138516,
      "Delta": 100182838
    },
    {
      "NoteNumber": 68,
      "Velocity": 59,
      "Duration": 281583,
      "SoundDuration": 281583,
      "Delta": 100459872
    },
    {
      "NoteNumber": 51,
      "Velocity": 49,
      "Duration": 140792,
      "SoundDuration": 140792,
      "Delta": 100459872
    },
    {
      "NoteNumber": 63,
      "Velocity": 49,
      "Duration": 140792,
      "SoundDuration": 140792,
      "Delta": 100459872
    },
    {
      "NoteNumber": 72,
      "Velocity": 59,
      "Duration": 281584,
      "SoundDuration": 281584,
      "Delta": 100741456
    },
    {
      "NoteNumber": 67,
      "Velocity": 59,
      "Duration": 281030,
      "SoundDuration": 281030,
      "Delta": 101023040
    },
    {
      "NoteNumber": 70,
      "Velocity": 59,
      "Duration": 562060,
      "SoundDuration": 562060,
      "Delta": 101023040
    },
    {
      "NoteNumber": 51,
      "Velocity": 45,
      "Duration": 140514,
      "SoundDuration": 140514,
      "Delta": 101023040
    },
    {
      "NoteNumber": 61,
      "Velocity": 45,
      "Duration": 140514,
      "SoundDuration": 140514,
      "Delta": 101023040
    },
    {
      "NoteNumber": 56,
      "Velocity": 46,
      "Duration": 140514,
      "SoundDuration": 140514,
      "Delta": 101304070
    },
    {
      "NoteNumber": 60,
      "Velocity": 46,
      "Duration": 140514,
      "SoundDuration": 140514,
      "Delta": 101304070
    },
    {
      "NoteNumber": 68,
      "Velocity": 64,
      "Duration": 140514,
      "SoundDuration": 140514,
      "Delta": 101585100
    },
    {
      "NoteNumber": 66,
      "Velocity": 64,
      "Duration": 572410,
      "SoundDuration": 572410,
      "Delta": 101866130
    },
    {
      "NoteNumber": 78,
      "Velocity": 64,
      "Duration": 572410,
      "SoundDuration": 572410,
      "Delta": 101866130
    },
    {
      "NoteNumber": 58,
      "Velocity": 49,
      "Duration": 286204,
      "SoundDuration": 286204,
      "Delta": 101866130
    },
    {
      "NoteNumber": 61,
      "Velocity": 49,
      "Duration": 286204,
      "SoundDuration": 286204,
      "Delta": 101866130
    },
    {
      "NoteNumber": 56,
      "Velocity": 54,
      "Duration": 572410,
      "SoundDuration": 572410,
      "Delta": 102152335
    },
    {
      "NoteNumber": 61,
      "Velocity": 54,
      "Duration": 572410,
      "SoundDuration": 572410,
      "Delta": 102152335
    },
    {
      "NoteNumber": 65,
      "Velocity": 64,
      "Duration": 286204,
      "SoundDuration": 286204,
      "Delta": 102438540
    },
    {
      "NoteNumber": 77,
      "Velocity": 64,
      "Duration": 286204,
      "SoundDuration": 286204,
      "Delta": 102438540
    },
    {
      "NoteNumber": 63,
      "Velocity": 64,
      "Duration": 288268,
      "SoundDuration": 288268,
      "Delta": 102724745
    },
    {
      "NoteNumber": 75,
      "Velocity": 64,
      "Duration": 569298,
      "SoundDuration": 569298,
      "Delta": 102724745
    },
    {
      "NoteNumber": 54,
      "Velocity": 54,
      "Duration": 288268,
      "SoundDuration": 288268,
      "Delta": 102724745
    },
    {
      "NoteNumber": 60,
      "Velocity": 54,
      "Duration": 288268,
      "SoundDuration": 288268,
      "Delta": 102724745
    },
    {
      "NoteNumber": 68,
      "Velocity": 69,
      "Duration": 281030,
      "SoundDuration": 281030,
      "Delta": 103013013
    },
    {
      "NoteNumber": 53,
      "Velocity": 57,
      "Duration": 281030,
      "SoundDuration": 281030,
      "Delta": 103013013
    },
    {
      "NoteNumber": 65,
      "Velocity": 57,
      "Duration": 281030,
      "SoundDuration": 281030,
      "Delta": 103013013
    },
    {
      "NoteNumber": 80,
      "Velocity": 69,
      "Duration": 70257,
      "SoundDuration": 70257,
      "Delta": 103294043
    },
    {
      "NoteNumber": 70,
      "Velocity": 64,
      "Duration": 284184,
      "SoundDuration": 284184,
      "Delta": 103575073
    },
    {
      "NoteNumber": 78,
      "Velocity": 64,
      "Duration": 568370,
      "SoundDuration": 568370,
      "Delta": 103575073
    },
    {
      "NoteNumber": 54,
      "Velocity": 50,
      "Duration": 142092,
      "SoundDuration": 142092,
      "Delta": 103575073
    },
    {
      "NoteNumber": 63,
      "Velocity": 50,
      "Duration": 142092,
      "SoundDuration": 142092,
      "Delta": 103575073
    },
    {
      "NoteNumber": 73,
      "Velocity": 64,
      "Duration": 284185,
      "SoundDuration": 284185,
      "Delta": 103859258
    },
    {
      "NoteNumber": 56,
      "Velocity": 54,
      "Duration": 142092,
      "SoundDuration": 142092,
      "Delta": 103859258
    },
    {
      "NoteNumber": 68,
      "Velocity": 54,
      "Duration": 142092,
      "SoundDuration": 142092,
      "Delta": 103859258
    },
    {
      "NoteNumber": 77,
      "Velocity": 59,
      "Duration": 142092,
      "SoundDuration": 142092,
      "Delta": 104143443
    },
    {
      "NoteNumber": 75,
      "Velocity": 59,
      "Duration": 568370,
      "SoundDuration": 568370,
      "Delta": 104427628
    },
    {
      "NoteNumber": 72,
      "Velocity": 59,
      "Duration": 284185,
      "SoundDuration": 284185,
      "Delta": 104427628
    },
    {
      "NoteNumber": 56,
      "Velocity": 45,
      "Duration": 142092,
      "SoundDuration": 142092,
      "Delta": 104427628
    },
    {
      "NoteNumber": 66,
      "Velocity": 45,
      "Duration": 142092,
      "SoundDuration": 142092,
      "Delta": 104427628
    },
    {
      "NoteNumber": 61,
      "Velocity": 48,
      "Duration": 142092,
      "SoundDuration": 142092,
      "Delta": 104711813
    },
    {
      "NoteNumber": 65,
      "Velocity": 48,
      "Duration": 142092,
      "SoundDuration": 142092,
      "Delta": 104711813
    },
    {
      "NoteNumber": 73,
      "Velocity": 56,
      "Duration": 155311,
      "SoundDuration": 155311,
      "Delta": 104995998
    },
    {
      "NoteNumber": 73,
      "Velocity": 64,
      "Duration": 288268,
      "SoundDuration": 288268,
      "Delta": 105306621
    },
    {
      "NoteNumber": 65,
      "Velocity": 64,
      "Duration": 288268,
      "SoundDuration": 288268,
      "Delta": 105306621
    },
    {
      "NoteNumber": 61,
      "Velocity": 54,
      "Duration": 288268,
      "SoundDuration": 288268,
      "Delta": 105306621
    },
    {
      "NoteNumber": 73,
      "Velocity": 64,
      "Duration": 576536,
      "SoundDuration": 576536,
      "Delta": 105594889
    },
    {
      "NoteNumber": 65,
      "Velocity": 64,
      "Duration": 576536,
      "SoundDuration": 576536,
      "Delta": 105594889
    },
    {
      "NoteNumber": 58,
      "Velocity": 54,
      "Duration": 576536,
      "SoundDuration": 576536,
      "Delta": 105594889
    },
    {
      "NoteNumber": 65,
      "Velocity": 64,
      "Duration": 288267,
      "SoundDuration": 288267,
      "Delta": 106171425
    },
    {
      "NoteNumber": 73,
      "Velocity": 64,
      "Duration": 288267,
      "SoundDuration": 288267,
      "Delta": 106171425
    },
    {
      "NoteNumber": 56,
      "Velocity": 54,
      "Duration": 288267,
      "SoundDuration": 288267,
      "Delta": 106171425
    },
    {
      "NoteNumber": 63,
      "Velocity": 64,
      "Duration": 576536,
      "SoundDuration": 576536,
      "Delta": 106459693
    },
    {
      "NoteNumber": 73,
      "Velocity": 64,
      "Duration": 288268,
      "SoundDuration": 288268,
      "Delta": 106459693
    },
    {
      "NoteNumber": 55,
      "Velocity": 54,
      "Duration": 288268,
      "SoundDuration": 288268,
      "Delta": 106459693
    },
    {
      "NoteNumber": 72,
      "Velocity": 64,
      "Duration": 144134,
      "SoundDuration": 144134,
      "Delta": 106747961
    },
    {
      "NoteNumber": 56,
      "Velocity": 54,
      "Duration": 144134,
      "SoundDuration": 144134,
      "Delta": 106747961
    },
    {
      "NoteNumber": 63,
      "Velocity": 57,
      "Duration": 291743,
      "SoundDuration": 291743,
      "Delta": 107036229
    },
    {
      "NoteNumber": 71,
      "Velocity": 57,
      "Duration": 291743,
      "SoundDuration": 291743,
      "Delta": 107036229
    },
    {
      "NoteNumber": 56,
      "Velocity": 50,
      "Duration": 291743,
      "SoundDuration": 291743,
      "Delta": 107036229
    },
    {
      "NoteNumber": 63,
      "Velocity": 58,
      "Duration": 583488,
      "SoundDuration": 583488,
      "Delta": 107327973
    },
    {
      "NoteNumber": 71,
      "Velocity": 58,
      "Duration": 583488,
      "SoundDuration": 583488,
      "Delta": 107327973
    },
    {
      "NoteNumber": 56,
      "Velocity": 50,
      "Duration": 583488,
      "SoundDuration": 583488,
      "Delta": 107327973
    },
    {
      "NoteNumber": 63,
      "Velocity": 58,
      "Duration": 291744,
      "SoundDuration": 291744,
      "Delta": 107911461
    },
    {
      "NoteNumber": 71,
      "Velocity": 58,
      "Duration": 291744,
      "SoundDuration": 291744,
      "Delta": 107911461
    },
    {
      "NoteNumber": 54,
      "Velocity": 48,
      "Duration": 291744,
      "SoundDuration": 291744,
      "Delta": 107911461
    },
    {
      "NoteNumber": 63,
      "Velocity": 58,
      "Duration": 583487,
      "SoundDuration": 583487,
      "Delta": 108203205
    },
    {
      "NoteNumber": 71,
      "Velocity": 58,
      "Duration": 291743,
      "SoundDuration": 291743,
      "Delta": 108203205
    },
    {
      "NoteNumber": 53,
      "Velocity": 48,
      "Duration": 291743,
      "SoundDuration": 291743,
      "Delta": 108203205
    },
    {
      "NoteNumber": 70,
      "Velocity": 58,
      "Duration": 145871,
      "SoundDuration": 145871,
      "Delta": 108494949
    },
    {
      "NoteNumber": 54,
      "Velocity": 48,
      "Duration": 145871,
      "SoundDuration": 145871,
      "Delta": 108494949
    },
    {
      "NoteNumber": 61,
      "Velocity": 64,
      "Duration": 288416,
      "SoundDuration": 288416,
      "Delta": 108786693
    },
    {
      "NoteNumber": 70,
      "Velocity": 64,
      "Duration": 288416,
      "SoundDuration": 288416,
      "Delta": 108786693
    },
    {
      "NoteNumber": 54,
      "Velocity": 54,
      "Duration": 288416,
      "SoundDuration": 288416,
      "Delta": 108786693
    },
    {
      "NoteNumber": 66,
      "Velocity": 73,
      "Duration": 609727,
      "SoundDuration": 609727,
      "Delta": 109075110
    },
    {
      "NoteNumber": 72,
      "Velocity": 73,
      "Duration": 609727,
      "SoundDuration": 609727,
      "Delta": 109075110
    },
    {
      "NoteNumber": 51,
      "Velocity": 54,
      "Duration": 609727,
      "SoundDuration": 609727,
      "Delta": 109075110
    },
    {
      "NoteNumber": 56,
      "Velocity": 54,
      "Duration": 609727,
      "SoundDuration": 609727,
      "Delta": 109075110
    },
    {
      "NoteNumber": 65,
      "Velocity": 77,
      "Duration": 327306,
      "SoundDuration": 327306,
      "Delta": 109684838
    },
    {
      "NoteNumber": 73,
      "Velocity": 77,
      "Duration": 327306,
      "SoundDuration": 327306,
      "Delta": 109684838
    },
    {
      "NoteNumber": 49,
      "Velocity": 54,
      "Duration": 327306,
      "SoundDuration": 327306,
      "Delta": 109684838
    },
    {
      "NoteNumber": 56,
      "Velocity": 54,
      "Duration": 327306,
      "SoundDuration": 327306,
      "Delta": 109684838
    },
    {
      "NoteNumber": 66,
      "Velocity": 88,
      "Duration": 667853,
      "SoundDuration": 667853,
      "Delta": 110012144
    },
    {
      "NoteNumber": 75,
      "Velocity": 88,
      "Duration": 667853,
      "SoundDuration": 667853,
      "Delta": 110012144
    },
    {
      "NoteNumber": 48,
      "Velocity": 54,
      "Duration": 1000985,
      "SoundDuration": 1000985,
      "Delta": 110012144
    },
    {
      "NoteNumber": 56,
      "Velocity": 54,
      "Duration": 1000985,
      "SoundDuration": 1000985,
      "Delta": 110012144
    },
    {
      "NoteNumber": 63,
      "Velocity": 75,
      "Duration": 619336,
      "SoundDuration": 619336,
      "Delta": 110679998
    },
    {
      "NoteNumber": 66,
      "Velocity": 75,
      "Duration": 619336,
      "SoundDuration": 619336,
      "Delta": 110679998
    },
    {
      "NoteNumber": 49,
      "Velocity": 54,
      "Duration": 572410,
      "SoundDuration": 572410,
      "Delta": 111013130
    },
    {
      "NoteNumber": 56,
      "Velocity": 54,
      "Duration": 572410,
      "SoundDuration": 572410,
      "Delta": 111013130
    },
    {
      "NoteNumber": 61,
      "Velocity": 64,
      "Duration": 286204,
      "SoundDuration": 286204,
      "Delta": 111299335
    },
    {
      "NoteNumber": 65,
      "Velocity": 64,
      "Duration": 286204,
      "SoundDuration": 286204,
      "Delta": 111299335
    },
    {
      "NoteNumber": 70,
      "Velocity": 64,
      "Duration": 152160,
      "SoundDuration": 152160,
      "Delta": 111585540
    },
    {
      "NoteNumber": 58,
      "Velocity": 64,
      "Duration": 304321,
      "SoundDuration": 304321,
      "Delta": 111585540
    },
    {
      "NoteNumber": 54,
      "Velocity": 54,
      "Duration": 152160,
      "SoundDuration": 152160,
      "Delta": 111585540
    },
    {
      "NoteNumber": 42,
      "Velocity": 54,
      "Duration": 304321,
      "SoundDuration": 304321,
      "Delta": 111585540
    },
    {
      "NoteNumber": 66,
      "Velocity": 64,
      "Duration": 152160,
      "SoundDuration": 152160,
      "Delta": 111737701
    },
    {
      "NoteNumber": 51,
      "Velocity": 54,
      "Duration": 152160,
      "SoundDuration": 152160,
      "Delta": 111737701
    },
    {
      "NoteNumber": 61,
      "Velocity": 70,
      "Duration": 304321,
      "SoundDuration": 304321,
      "Delta": 111889861
    },
    {
      "NoteNumber": 65,
      "Velocity": 70,
      "Duration": 304321,
      "SoundDuration": 304321,
      "Delta": 111889861
    },
    {
      "NoteNumber": 42,
      "Velocity": 54,
      "Duration": 624885,
      "SoundDuration": 624885,
      "Delta": 111889861
    },
    {
      "NoteNumber": 56,
      "Velocity": 54,
      "Duration": 624885,
      "SoundDuration": 624885,
      "Delta": 111889861
    },
    {
      "NoteNumber": 60,
      "Velocity": 64,
      "Duration": 320564,
      "SoundDuration": 320564,
      "Delta": 112194182
    },
    {
      "NoteNumber": 63,
      "Velocity": 64,
      "Duration": 320564,
      "SoundDuration": 320564,
      "Delta": 112194182
    },
    {
      "NoteNumber": 61,
      "Velocity": 64,
      "Duration": 286777,
      "SoundDuration": 286777,
      "Delta": 112514746
    },
    {
      "NoteNumber": 73,
      "Velocity": 64,
      "Duration": 286777,
      "SoundDuration": 286777,
      "Delta": 112514746
    },
    {
      "NoteNumber": 53,
      "Velocity": 49,
      "Duration": 286777,
      "SoundDuration": 286777,
      "Delta": 112514746
    },
    {
      "NoteNumber": 56,
      "Velocity": 49,
      "Duration": 286777,
      "SoundDuration": 286777,
      "Delta": 112514746
    },
    {
      "NoteNumber": 60,
      "Velocity": 65,
      "Duration": 572410,
      "SoundDuration": 572410,
      "Delta": 112801524
    },
    {
      "NoteNumber": 72,
      "Velocity": 65,
      "Duration": 572410,
      "SoundDuration": 572410,
      "Delta": 112801524
    },
    {
      "NoteNumber": 51,
      "Velocity": 54,
      "Duration": 572410,
      "SoundDuration": 572410,
      "Delta": 112801524
    },
    {
      "NoteNumber": 56,
      "Velocity": 54,
      "Duration": 572410,
      "SoundDuration": 572410,
      "Delta": 112801524
    },
    {
      "NoteNumber": 70,
      "Velocity": 68,
      "Duration": 288961,
      "SoundDuration": 288961,
      "Delta": 113373934
    },
    {
      "NoteNumber": 58,
      "Velocity": 68,
      "Duration": 288961,
      "SoundDuration": 288961,
      "Delta": 113373934
    },
    {
      "NoteNumber": 49,
      "Velocity": 47,
      "Duration": 288961,
      "SoundDuration": 288961,
      "Delta": 113373934
    },
    {
      "NoteNumber": 55,
      "Velocity": 47,
      "Duration": 288961,
      "SoundDuration": 288961,
      "Delta": 113373934
    },
    {
      "NoteNumber": 63,
      "Velocity": 65,
      "Duration": 54180,
      "SoundDuration": 54180,
      "Delta": 113662896
    },
    {
      "NoteNumber": 75,
      "Velocity": 65,
      "Duration": 54180,
      "SoundDuration": 54180,
      "Delta": 113662896
    },
    {
      "NoteNumber": 48,
      "Velocity": 54,
      "Duration": 54180,
      "SoundDuration": 54180,
      "Delta": 113662896
    },
    {
      "NoteNumber": 60,
      "Velocity": 54,
      "Duration": 54180,
      "SoundDuration": 54180,
      "Delta": 113662896
    },
    {
      "NoteNumber": 65,
      "Velocity": 64,
      "Duration": 274499,
      "SoundDuration": 274499,
      "Delta": 114240820
    },
    {
      "NoteNumber": 73,
      "Velocity": 64,
      "Duration": 555424,
      "SoundDuration": 555424,
      "Delta": 114240820
    },
    {
      "NoteNumber": 49,
      "Velocity": 49,
      "Duration": 137249,
      "SoundDuration": 137249,
      "Delta": 114240820
    },
    {
      "NoteNumber": 58,
      "Velocity": 49,
      "Duration": 137249,
      "SoundDuration": 137249,
      "Delta": 114240820
    },
    {
      "NoteNumber": 68,
      "Velocity": 64,
      "Duration": 280924,
      "SoundDuration": 280924,
      "Delta": 114515319
    },
    {
      "NoteNumber": 51,
      "Velocity": 54,
      "Duration": 140462,
      "SoundDuration": 140462,
      "Delta": 114515319
    },
    {
      "NoteNumber": 63,
      "Velocity": 54,
      "Duration": 140462,
      "SoundDuration": 140462,
      "Delta": 114515319
    },
    {
      "NoteNumber": 72,
      "Velocity": 64,
      "Duration": 280925,
      "SoundDuration": 280925,
      "Delta": 114796244
    },
    {
      "NoteNumber": 67,
      "Velocity": 59,
      "Duration": 276396,
      "SoundDuration": 276396,
      "Delta": 115077169
    },
    {
      "NoteNumber": 70,
      "Velocity": 59,
      "Duration": 556665,
      "SoundDuration": 556665,
      "Delta": 115077169
    },
    {
      "NoteNumber": 51,
      "Velocity": 45,
      "Duration": 138198,
      "SoundDuration": 138198,
      "Delta": 115077169
    },
    {
      "NoteNumber": 61,
      "Velocity": 45,
      "Duration": 138198,
      "SoundDuration": 138198,
      "Delta": 115077169
    },
    {
      "NoteNumber": 56,
      "Velocity": 51,
      "Duration": 140134,
      "SoundDuration": 140134,
      "Delta": 115353565
    },
    {
      "NoteNumber": 60,
      "Velocity": 51,
      "Duration": 140134,
      "SoundDuration": 140134,
      "Delta": 115353565
    },
    {
      "NoteNumber": 68,
      "Velocity": 58,
      "Duration": 140134,
      "SoundDuration": 140134,
      "Delta": 115633834
    },
    {
      "NoteNumber": 66,
      "Velocity": 64,
      "Duration": 286889,
      "SoundDuration": 286889,
      "Delta": 115914103
    },
    {
      "NoteNumber": 78,
      "Velocity": 64,
      "Duration": 286889,
      "SoundDuration": 286889,
      "Delta": 115914103
    },
    {
      "NoteNumber": 58,
      "Velocity": 49,
      "Duration": 286889,
      "SoundDuration": 286889,
      "Delta": 115914103
    },
    {
      "NoteNumber": 61,
      "Velocity": 49,
      "Duration": 286889,
      "SoundDuration": 286889,
      "Delta": 115914103
    },
    {
      "NoteNumber": 65,
      "Velocity": 65,
      "Duration": 573778,
      "SoundDuration": 573778,
      "Delta": 116200992
    },
    {
      "NoteNumber": 77,
      "Velocity": 65,
      "Duration": 573778,
      "SoundDuration": 573778,
      "Delta": 116200992
    },
    {
      "NoteNumber": 56,
      "Velocity": 54,
      "Duration": 573778,
      "SoundDuration": 573778,
      "Delta": 116200992
    },
    {
      "NoteNumber": 61,
      "Velocity": 54,
      "Duration": 573778,
      "SoundDuration": 573778,
      "Delta": 116200992
    },
    {
      "NoteNumber": 63,
      "Velocity": 68,
      "Duration": 289644,
      "SoundDuration": 289644,
      "Delta": 116774770
    },
    {
      "NoteNumber": 75,
      "Velocity": 68,
      "Duration": 289644,
      "SoundDuration": 289644,
      "Delta": 116774770
    },
    {
      "NoteNumber": 54,
      "Velocity": 49,
      "Duration": 289644,
      "SoundDuration": 289644,
      "Delta": 116774770
    },
    {
      "NoteNumber": 60,
      "Velocity": 49,
      "Duration": 289644,
      "SoundDuration": 289644,
      "Delta": 116774770
    },
    {
      "NoteNumber": 68,
      "Velocity": 65,
      "Duration": 54308,
      "SoundDuration": 54308,
      "Delta": 117064415
    },
    {
      "NoteNumber": 80,
      "Velocity": 65,
      "Duration": 54308,
      "SoundDuration": 54308,
      "Delta": 117064415
    },
    {
      "NoteNumber": 53,
      "Velocity": 55,
      "Duration": 54308,
      "SoundDuration": 54308,
      "Delta": 117064415
    },
    {
      "NoteNumber": 61,
      "Velocity": 55,
      "Duration": 54308,
      "SoundDuration": 54308,
      "Delta": 117064415
    },
    {
      "NoteNumber": 66,
      "Velocity": 64,
      "Duration": 566530,
      "SoundDuration": 566530,
      "Delta": 117640265
    },
    {
      "NoteNumber": 78,
      "Velocity": 64,
      "Duration": 566530,
      "SoundDuration": 566530,
      "Delta": 117640265
    },
    {
      "NoteNumber": 58,
      "Velocity": 48,
      "Duration": 280924,
      "SoundDuration": 280924,
      "Delta": 117640265
    },
    {
      "NoteNumber": 61,
      "Velocity": 48,
      "Duration": 280924,
      "SoundDuration": 280924,
      "Delta": 117640265
    },
    {
      "NoteNumber": 56,
      "Velocity": 54,
      "Duration": 571209,
      "SoundDuration": 571209,
      "Delta": 117921190
    },
    {
      "NoteNumber": 61,
      "Velocity": 54,
      "Duration": 571209,
      "SoundDuration": 571209,
      "Delta": 117921190
    },
    {
      "NoteNumber": 65,
      "Velocity": 64,
      "Duration": 285604,
      "SoundDuration": 285604,
      "Delta": 118206795
    },
    {
      "NoteNumber": 77,
      "Velocity": 64,
      "Duration": 285604,
      "SoundDuration": 285604,
      "Delta": 118206795
    },
    {
      "NoteNumber": 63,
      "Velocity": 64,
      "Duration": 144480,
      "SoundDuration": 144480,
      "Delta": 118492400
    },
    {
      "NoteNumber": 75,
      "Velocity": 64,
      "Duration": 144480,
      "SoundDuration": 144480,
      "Delta": 118492400
    },
    {
      "NoteNumber": 54,
      "Velocity": 48,
      "Duration": 288961,
      "SoundDuration": 288961,
      "Delta": 118492400
    },
    {
      "NoteNumber": 60,
      "Velocity": 48,
      "Duration": 288961,
      "SoundDuration": 288961,
      "Delta": 118492400
    },
    {
      "NoteNumber": 68,
      "Velocity": 64,
      "Duration": 54180,
      "SoundDuration": 54180,
      "Delta": 118781362
    },
    {
      "NoteNumber": 80,
      "Velocity": 64,
      "Duration": 54180,
      "SoundDuration": 54180,
      "Delta": 118781362
    },
    {
      "NoteNumber": 53,
      "Velocity": 54,
      "Duration": 54180,
      "SoundDuration": 54180,
      "Delta": 118781362
    },
    {
      "NoteNumber": 61,
      "Velocity": 54,
      "Duration": 54180,
      "SoundDuration": 54180,
      "Delta": 118781362
    },
    {
      "NoteNumber": 66,
      "Velocity": 73,
      "Duration": 579339,
      "SoundDuration": 579339,
      "Delta": 119359286
    },
    {
      "NoteNumber": 78,
      "Velocity": 73,
      "Duration": 579339,
      "SoundDuration": 579339,
      "Delta": 119359286
    },
    {
      "NoteNumber": 58,
      "Velocity": 49,
      "Duration": 286103,
      "SoundDuration": 286103,
      "Delta": 119359286
    },
    {
      "NoteNumber": 61,
      "Velocity": 49,
      "Duration": 286103,
      "SoundDuration": 286103,
      "Delta": 119359286
    },
    {
      "NoteNumber": 56,
      "Velocity": 54,
      "Duration": 606172,
      "SoundDuration": 606172,
      "Delta": 119645389
    },
    {
      "NoteNumber": 61,
      "Velocity": 54,
      "Duration": 606172,
      "SoundDuration": 606172,
      "Delta": 119645389
    },
    {
      "NoteNumber": 65,
      "Velocity": 85,
      "Duration": 312935,
      "SoundDuration": 312935,
      "Delta": 119938625
    },
    {
      "NoteNumber": 77,
      "Velocity": 85,
      "Duration": 312935,
      "SoundDuration": 312935,
      "Delta": 119938625
    },
    {
      "NoteNumber": 70,
      "Velocity": 103,
      "Duration": 698255,
      "SoundDuration": 698255,
      "Delta": 120251561
    },
    {
      "NoteNumber": 82,
      "Velocity": 103,
      "Duration": 698255,
      "SoundDuration": 698255,
      "Delta": 120251561
    },
    {
      "NoteNumber": 55,
      "Velocity": 62,
      "Duration": 342768,
      "SoundDuration": 342768,
      "Delta": 120251561
    },
    {
      "NoteNumber": 64,
      "Velocity": 62,
      "Duration": 342768,
      "SoundDuration": 342768,
      "Delta": 120251561
    },
    {
      "NoteNumber": 61,
      "Velocity": 62,
      "Duration": 342768,
      "SoundDuration": 342768,
      "Delta": 120251561
    },
    {
      "NoteNumber": 56,
      "Velocity": 65,
      "Duration": 355486,
      "SoundDuration": 355486,
      "Delta": 120594330
    },
    {
      "NoteNumber": 61,
      "Velocity": 65,
      "Duration": 355486,
      "SoundDuration": 355486,
      "Delta": 120594330
    },
    {
      "NoteNumber": 65,
      "Velocity": 65,
      "Duration": 355486,
      "SoundDuration": 355486,
      "Delta": 120594330
    },
    {
      "NoteNumber": 68,
      "Velocity": 77,
      "Duration": 355661,
      "SoundDuration": 355661,
      "Delta": 120949816
    },
    {
      "NoteNumber": 80,
      "Velocity": 77,
      "Duration": 355661,
      "SoundDuration": 355661,
      "Delta": 120949816
    },
    {
      "NoteNumber": 54,
      "Velocity": 64,
      "Duration": 1142202,
      "SoundDuration": 1142202,
      "Delta": 121661138
    },
    {
      "NoteNumber": 60,
      "Velocity": 64,
      "Duration": 711322,
      "SoundDuration": 711322,
      "Delta": 121661138
    },
    {
      "NoteNumber": 32,
      "Velocity": 54,
      "Duration": 1142202,
      "SoundDuration": 1142202,
      "Delta": 121661138
    },
    {
      "NoteNumber": 44,
      "Velocity": 54,
      "Duration": 1142202,
      "SoundDuration": 1142202,
      "Delta": 121661138
    },
    {
      "NoteNumber": 63,
      "Velocity": 60,
      "Duration": 215440,
      "SoundDuration": 215440,
      "Delta": 122372460
    },
    {
      "NoteNumber": 61,
      "Velocity": 60,
      "Duration": 215440,
      "SoundDuration": 215440,
      "Delta": 122587900
    },
    {
      "NoteNumber": 53,
      "Velocity": 54,
      "Duration": 667928,
      "SoundDuration": 667928,
      "Delta": 122803340
    },
    {
      "NoteNumber": 61,
      "Velocity": 57,
      "Duration": 667928,
      "SoundDuration": 667928,
      "Delta": 122803340
    },
    {
      "NoteNumber": 37,
      "Velocity": 54,
      "Duration": 667928,
      "SoundDuration": 667928,
      "Delta": 122803340
    },
    {
      "NoteNumber": 44,
      "Velocity": 54,
      "Duration": 667928,
      "SoundDuration": 667928,
      "Delta": 122803340
    }
  ]
}