{"title":"Mondscheinsonate; der Gräfin Giulietta Guiccardi gewidmet","artist":"Beethoven","durationMs":410356,"midiSha256":"6f01e20c125731b984ab831c48afa4efbc191e0e70b19dcbeb3b01daaea795a9","midiObject":[{"NoteNumber":37,"Velocity":42,"Duration":89960,"SoundDuration":89960,"Delta":0},{"NoteNumber":44,"Velocity":46,"Duration":86212,"SoundDuration":86212,"Delta":89211},{"NoteNumber":49,"Velocity":48,"Duration":104953,"SoundDuration":104953,"Delta":179172},{"NoteNumber":44,"Velocity":39,"Duration":89960,"SoundDuration":89960,"Delta":179172},{"NoteNumber":52,"Velocity":50,"Duration":104953,"SoundDuration":104953,"Delta":269132},{"NoteNumber":56,"Velocity":51,"Duration":104953,"SoundDuration":104953,"Delta":359093},{"NoteNumber":37,"Velocity":43,"Duration":89960,"SoundDuration":89960,"Delta":359093},{"NoteNumber":49,"Velocity":46,"Duration":104953,"SoundDuration":104953,"Delta":449053},{"NoteNumber":52,"Velocity":47,"Duration":104953,"SoundDuration":104953,"Delta":539014},{"NoteNumber":44,"Velocity":39,"Duration":89960,"SoundDuration":89960,"Delta":539014},{"NoteNumber":56,"Velocity":49,"Duration":104953,"SoundDuration":104953,"Delta":628974},{"NoteNumber":61,"Velocity":51,"Duration":104953,"SoundDuration":104953,"Delta":718935},{"NoteNumber":37,"Velocity":41,"Duration":89960,"SoundDuration":89960,"Delta":718935},{"NoteNumber":52,"Velocity":46,"Duration":104953,"SoundDuration":104953,"Delta":808895},{"NoteNumber":56,"Velocity":47,"Duration":104953,"SoundDuration":104953,"Delta":898856},{"NoteNumber":44,"Velocity":39,"Duration":89960,"SoundDuration":89960,"Delta":898856},{"NoteNumber":61,"Velocity":49,"Duration":104953,"SoundDuration":104953,"Delta":988816},{"NoteNumber":64,"Velocity":51,"Duration":104953,"SoundDuration":104953,"Delta":1078777},{"NoteNumber":37,"Velocity":42,"Duration":89960,"SoundDuration":89960,"Delta":1078777},{"NoteNumber":56,"Velocity":47,"Duration":104953,"SoundDuration":104953,"Delta":1168737},{"NoteNumber":61,"Velocity":48,"Duration":104953,"SoundDuration":104953,"Delta":1258698},{"NoteNumber":44,"Velocity":39,"Duration":89960,"SoundDuration":89960,"Delta":1258698},{"NoteNumber":64,"Velocity":49,"Duration":104953,"SoundDuration":104953,"Delta":1348658},{"NoteNumber":68,"Velocity":50,"Duration":104953,"SoundDuration":104953,"Delta":1438619},{"NoteNumber":37,"Velocity":43,"Duration":89960,"SoundDuration":89960,"Delta":1438619},{"NoteNumber":61,"Velocity":47,"Duration":104953,"SoundDuration":104953,"Delta":1528579},{"NoteNumber":64,"Velocity":47,"Duration":104953,"SoundDuration":104953,"Delta":1618540},{"NoteNumber":44,"Velocity":41,"Duration":89960,"SoundDuration":89960,"Delta":1618540},{"NoteNumber":68,"Velocity":49,"Duration":104953,"SoundDuration":104953,"Delta":1708500},{"NoteNumber":73,"Velocity":50,"Duration":104953,"SoundDuration":104953,"Delta":1798461},{"NoteNumber":37,"Velocity":43,"Duration":89960,"SoundDuration":89960,"Delta":1798461},{"NoteNumber":64,"Velocity":51,"Duration":104953,"SoundDuration":104953,"Delta":1888421},{"NoteNumber":68,"Velocity":47,"Duration":104953,"SoundDuration":104953,"Delta":1978382},{"NoteNumber":44,"Velocity":40,"Duration":89960,"SoundDuration":89960,"Delta":1978382},{"NoteNumber":73,"Velocity":51,"Duration":104953,"SoundDuration":104953,"Delta":2068342},{"NoteNumber":76,"Velocity":52,"Duration":104953,"SoundDuration":104953,"Delta":2158303},{"NoteNumber":37,"Velocity":41,"Duration":89960,"SoundDuration":89960,"Delta":2158303},{"NoteNumber":68,"Velocity":50,"Duration":104953,"SoundDuration":104953,"Delta":2248263},{"NoteNumber":73,"Velocity":51,"Duration":104953,"SoundDuration":104953,"Delta":2338224},{"NoteNumber":44,"Velocity":39,"Duration":89960,"SoundDuration":89960,"Delta":2338224},{"NoteNumber":76,"Velocity":54,"Duration":89960,"SoundDuration":89960,"Delta":2428184},{"NoteNumber":68,"Velocity":79,"Duration":93761,"SoundDuration":93761,"Delta":2518145},{"NoteNumber":76,"Velocity":94,"Duration":93761,"SoundDuration":93761,"Delta":2518145},{"NoteNumber":80,"Velocity":94,"Duration":93761,"SoundDuration":93761,"Delta":2518145},{"NoteNumber":73,"Velocity":79,"Duration":93761,"SoundDuration":93761,"Delta":2518145},{"NoteNumber":49,"Velocity":78,"Duration":93761,"SoundDuration":93761,"Delta":2518145},{"NoteNumber":37,"Velocity":65,"Duration":93761,"SoundDuration":93761,"Delta":2518145},{"NoteNumber":68,"Velocity":67,"Duration":93761,"SoundDuration":93761,"Delta":2705668},{"NoteNumber":73,"Velocity":67,"Duration":93761,"SoundDuration":93761,"Delta":2705668},{"NoteNumber":80,"Velocity":79,"Duration":93761,"SoundDuration":93761,"Delta":2705668},{"NoteNumber":76,"Velocity":79,"Duration":93761,"SoundDuration":93761,"Delta":2705668},{"NoteNumber":44,"Velocity":67,"Duration":93761,"SoundDuration":93761,"Delta":2705668},{"NoteNumber":36,"Velocity":41,"Duration":89960,"SoundDuration":89960,"Delta":2893192},{"NoteNumber":44,"Velocity":47,"Duration":86212,"SoundDuration":86212,"Delta":2983152},{"NoteNumber":48,"Velocity":48,"Duration":104953,"SoundDuration":104953,"Delta":3073113},{"NoteNumber":44,"Velocity":37,"Duration":89960,"SoundDuration":89960,"Delta":3073113},{"NoteNumber":51,"Velocity":50,"Duration":104953,"SoundDuration":104953,"Delta":3163073},{"NoteNumber":56,"Velocity":51,"Duration":104953,"SoundDuration":104953,"Delta":3253034},{"NoteNumber":36,"Velocity":41,"Duration":89960,"SoundDuration":89960,"Delta":3253034},{"NoteNumber":48,"Velocity":47,"Duration":104953,"SoundDuration":104953,"Delta":3342994},{"NoteNumber":51,"Velocity":48,"Duration":104953,"SoundDuration":104953,"Delta":3432954},{"NoteNumber":44,"Velocity":37,"Duration":89960,"SoundDuration":89960,"Delta":3432954},{"NoteNumber":56,"Velocity":51,"Duration":104953,"SoundDuration":104953,"Delta":3522915},{"NoteNumber":60,"Velocity":52,"Duration":104953,"SoundDuration":104953,"Delta":3612876},{"NoteNumber":36,"Velocity":40,"Duration":89960,"SoundDuration":89960,"Delta":3612876},{"NoteNumber":51,"Velocity":47,"Duration":104953,"SoundDuration":104953,"Delta":3702836},{"NoteNumber":56,"Velocity":48,"Duration":104953,"SoundDuration":104953,"Delta":3792797},{"NoteNumber":44,"Velocity":37,"Duration":89960,"SoundDuration":89960,"Delta":3792797},{"NoteNumber":60,"Velocity":50,"Duration":104953,"SoundDuration":104953,"Delta":3882757},{"NoteNumber":63,"Velocity":51,"Duration":104953,"SoundDuration":104953,"Delta":3972718},{"NoteNumber":36,"Velocity":40,"Duration":89960,"SoundDuration":89960,"Delta":3972718},{"NoteNumber":56,"Velocity":46,"Duration":104953,"SoundDuration":104953,"Delta":4062678},{"NoteNumber":60,"Velocity":47,"Duration":104953,"SoundDuration":104953,"Delta":4152638},{"NoteNumber":44,"Velocity":38,"Duration":89960,"SoundDuration":89960,"Delta":4152638},{"NoteNumber":63,"Velocity":49,"Duration":104953,"SoundDuration":104953,"Delta":4242599},{"NoteNumber":68,"Velocity":51,"Duration":104953,"SoundDuration":104953,"Delta":4332560},{"NoteNumber":36,"Velocity":40,"Duration":89960,"SoundDuration":89960,"Delta":4332560},{"NoteNumber":60,"Velocity":47,"Duration":104953,"SoundDuration":104953,"Delta":4422520},{"NoteNumber":63,"Velocity":48,"Duration":104953,"SoundDuration":104953,"Delta":4512481},{"NoteNumber":44,"Velocity":36,"Duration":89960,"SoundDuration":89960,"Delta":4512481},{"NoteNumber":68,"Velocity":50,"Duration":104953,"SoundDuration":104953,"Delta":4602441},{"NoteNumber":72,"Velocity":51,"Duration":104953,"SoundDuration":104953,"Delta":4692402},{"NoteNumber":36,"Velocity":40,"Duration":89960,"SoundDuration":89960,"Delta":4692402},{"NoteNumber":63,"Velocity":47,"Duration":104953,"SoundDuration":104953,"Delta":4782362},{"NoteNumber":68,"Velocity":48,"Duration":104953,"SoundDuration":104953,"Delta":4872323},{"NoteNumber":44,"Velocity":37,"Duration":89960,"SoundDuration":89960,"Delta":4872323},{"NoteNumber":72,"Velocity":51,"Duration":104953,"SoundDuration":104953,"Delta":4962283},{"NoteNumber":75,"Velocity":52,"Duration":104953,"SoundDuration":104953,"Delta":5052244},{"NoteNumber":36,"Velocity":40,"Duration":89960,"SoundDuration":89960,"Delta":5052244},{"NoteNumber":68,"Velocity":51,"Duration":104953,"SoundDuration":104953,"Delta":5142204},{"NoteNumber":72,"Velocity":51,"Duration":104953,"SoundDuration":104953,"Delta":5232165},{"NoteNumber":44,"Velocity":37,"Duration":89960,"SoundDuration":89960,"Delta":5232165},{"NoteNumber":75,"Velocity":52,"Duration":89960,"SoundDuration":89960,"Delta":5322125},{"NoteNumber":68,"Velocity":79,"Duration":94073,"SoundDuration":94073,"Delta":5412085},{"NoteNumber":72,"Velocity":79,"Duration":94073,"SoundDuration":94073,"Delta":5412085},{"NoteNumber":75,"Velocity":94,"Duration":94073,"SoundDuration":94073,"Delta":5412085},{"NoteNumber":80,"Velocity":94,"Duration":94073,"SoundDuration":94073,"Delta":5412085},{"NoteNumber":48,"Velocity":78,"Duration":94073,"SoundDuration":94073,"Delta":5412085},{"NoteNumber":36,"Velocity":65,"Duration":94073,"SoundDuration":94073,"Delta":5412085},{"NoteNumber":72,"Velocity":66,"Duration":94073,"SoundDuration":94073,"Delta":5600232},{"NoteNumber":80,"Velocity":78,"Duration":94073,"SoundDuration":94073,"Delta":5600232},{"NoteNumber":68,"Velocity":66,"Duration":94073,"SoundDuration":94073,"Delta":5600232},{"NoteNumber":75,"Velocity":78,"Duration":94073,"SoundDuration":94073,"Delta":5600232},{"NoteNumber":44,"Velocity":65,"Duration":94073,"SoundDuration":94073,"Delta":5600232},{"NoteNumber":35,"Velocity":55,"Duration":89960,"SoundDuration":89960,"Delta":5788379},{"NoteNumber":49,"Velocity":66,"Duration":104953,"SoundDuration":104953,"Delta":5878340},{"NoteNumber":53,"Velocity":62,"Duration":104953,"SoundDuration":104953,"Delta":5968300},{"NoteNumber":44,"Velocity":50,"Duration":89960,"SoundDuration":89960,"Delta":5968300},{"NoteNumber":56,"Velocity":66,"Duration":104953,"SoundDuration":104953,"Delta":6058261},{"NoteNumber":61,"Velocity":68,"Duration":104953,"SoundDuration":104953,"Delta":6148221},{"NoteNumber":35,"Velocity":56,"Duration":89960,"SoundDuration":89960,"Delta":6148221},{"NoteNumber":53,"Velocity":62,"Duration":104953,"SoundDuration":104953,"Delta":6238182},{"NoteNumber":56,"Velocity":62,"Duration":104953,"SoundDuration":104953,"Delta":6328142},{"NoteNumber":44,"Velocity":51,"Duration":89960,"SoundDuration":89960,"Delta":6328142},{"NoteNumber":61,"Velocity":65,"Duration":104953,"SoundDuration":104953,"Delta":6418103},{"NoteNumber":65,"Velocity":68,"Duration":104953,"SoundDuration":104953,"Delta":6508063},{"NoteNumber":35,"Velocity":56,"Duration":89960,"SoundDuration":89960,"Delta":6508063},{"NoteNumber":56,"Velocity":62,"Duration":104953,"SoundDuration":104953,"Delta":6598024},{"NoteNumber":61,"Velocity":65,"Duration":104953,"SoundDuration":104953,"Delta":6687984},{"NoteNumber":44,"Velocity":52,"Duration":89960,"SoundDuration":89960,"Delta":6687984},{"NoteNumber":65,"Velocity":67,"Duration":104953,"SoundDuration":104953,"Delta":6777945},{"NoteNumber":68,"Velocity":68,"Duration":104953,"SoundDuration":104953,"Delta":6867905},{"NoteNumber":35,"Velocity":56,"Duration":89960,"SoundDuration":89960,"Delta":6867905},{"NoteNumber":61,"Velocity":62,"Duration":104953,"SoundDuration":104953,"Delta":6957866},{"NoteNumber":65,"Velocity":63,"Duration":104953,"SoundDuration":104953,"Delta":7047826},{"NoteNumber":44,"Velocity":52,"Duration":89960,"SoundDuration":89960,"Delta":7047826},{"NoteNumber":68,"Velocity":66,"Duration":104953,"SoundDuration":104953,"Delta":7137787},{"NoteNumber":73,"Velocity":67,"Duration":104953,"SoundDuration":104953,"Delta":7227747},{"NoteNumber":35,"Velocity":56,"Duration":89960,"SoundDuration":89960,"Delta":7227747},{"NoteNumber":65,"Velocity":62,"Duration":104953,"SoundDuration":104953,"Delta":7317708},{"NoteNumber":68,"Velocity":62,"Duration":104953,"SoundDuration":104953,"Delta":7407668},{"NoteNumber":44,"Velocity":52,"Duration":89960,"SoundDuration":89960,"Delta":7407668},{"NoteNumber":73,"Velocity":66,"Duration":104953,"SoundDuration":104953,"Delta":7497629},{"NoteNumber":77,"Velocity":68,"Duration":104953,"SoundDuration":104953,"Delta":7587589},{"NoteNumber":35,"Velocity":56,"Duration":89960,"SoundDuration":89960,"Delta":7587589},{"NoteNumber":68,"Velocity":62,"Duration":104953,"SoundDuration":104953,"Delta":7677550},{"NoteNumber":73,"Velocity":66,"Duration":104953,"SoundDuration":104953,"Delta":7767510},{"NoteNumber":44,"Velocity":51,"Duration":89960,"SoundDuration":89960,"Delta":7767510},{"NoteNumber":77,"Velocity":68,"Duration":104953,"SoundDuration":104953,"Delta":7857471},{"NoteNumber":80,"Velocity":66,"Duration":104953,"SoundDuration":104953,"Delta":7947431},{"NoteNumber":35,"Velocity":56,"Duration":89960,"SoundDuration":89960,"Delta":7947431},{"NoteNumber":73,"Velocity":68,"Duration":104953,"SoundDuration":104953,"Delta":8037392},{"NoteNumber":77,"Velocity":69,"Duration":104953,"SoundDuration":104953,"Delta":8127352},{"NoteNumber":44,"Velocity":51,"Duration":89960,"SoundDuration":89960,"Delta":8127352},{"NoteNumber":80,"Velocity":71,"Duration":89960,"SoundDuration":89960,"Delta":8217313},{"NoteNumber":77,"Velocity":87,"Duration":93463,"SoundDuration":93463,"Delta":8307273},{"NoteNumber":85,"Velocity":103,"Duration":93463,"SoundDuration":93463,"Delta":8307273},{"NoteNumber":80,"Velocity":103,"Duration":93463,"SoundDuration":93463,"Delta":8307273},{"NoteNumber":73,"Velocity":87,"Duration":93463,"SoundDuration":93463,"Delta":8307273},{"NoteNumber":35,"Velocity":82,"Duration":93463,"SoundDuration":93463,"Delta":8307273},{"NoteNumber":47,"Velocity":82,"Duration":93463,"SoundDuration":93463,"Delta":8307273},{"NoteNumber":80,"Velocity":90,"Duration":93463,"SoundDuration":93463,"Delta":8494201},{"NoteNumber":85,"Velocity":90,"Duration":93463,"SoundDuration":93463,"Delta":8494201},{"NoteNumber":73,"Velocity":77,"Duration":93463,"SoundDuration":93463,"Delta":8494201},{"NoteNumber":77,"Velocity":77,"Duration":93463,"SoundDuration":93463,"Delta":8494201},{"NoteNumber":44,"Velocity":73,"Duration":93463,"SoundDuration":93463,"Delta":8494201},{"NoteNumber":33,"Velocity":50,"Duration":89960,"SoundDuration":89960,"Delta":8681129},{"NoteNumber":49,"Velocity":61,"Duration":104953,"SoundDuration":104953,"Delta":8771089},{"NoteNumber":54,"Velocity":63,"Duration":104953,"SoundDuration":104953,"Delta":8861050},{"NoteNumber":45,"Velocity":51,"Duration":89960,"SoundDuration":89960,"Delta":8861050},{"NoteNumber":57,"Velocity":62,"Duration":104953,"SoundDuration":104953,"Delta":8951010},{"NoteNumber":61,"Velocity":69,"Duration":44980,"SoundDuration":44980,"Delta":9040971},{"NoteNumber":33,"Velocity":57,"Duration":89960,"SoundDuration":89960,"Delta":9040971},{"NoteNumber":61,"Velocity":72,"Duration":104953,"SoundDuration":104953,"Delta":9130931},{"NoteNumber":66,"Velocity":76,"Duration":104953,"SoundDuration":104953,"Delta":9220892},{"NoteNumber":45,"Velocity":60,"Duration":89960,"SoundDuration":89960,"Delta":9220892},{"NoteNumber":69,"Velocity":73,"Duration":104953,"SoundDuration":104953,"Delta":9310852},{"NoteNumber":73,"Velocity":79,"Duration":44980,"SoundDuration":44980,"Delta":9400812},{"NoteNumber":33,"Velocity":57,"Duration":89960,"SoundDuration":89960,"Delta":9400812},{"NoteNumber":73,"Velocity":77,"Duration":104953,"SoundDuration":104953,"Delta":9490773},{"NoteNumber":78,"Velocity":81,"Duration":104953,"SoundDuration":104953,"Delta":9580733},{"NoteNumber":45,"Velocity":57,"Duration":89960,"SoundDuration":89960,"Delta":9580733},{"NoteNumber":81,"Velocity":76,"Duration":89960,"SoundDuration":89960,"Delta":9670694},{"NoteNumber":73,"Velocity":90,"Duration":91385,"SoundDuration":91385,"Delta":9760654},{"NoteNumber":85,"Velocity":108,"Duration":91385,"SoundDuration":91385,"Delta":9760654},{"NoteNumber":78,"Velocity":90,"Duration":91385,"SoundDuration":91385,"Delta":9760654},{"NoteNumber":33,"Velocity":77,"Duration":91385,"SoundDuration":91385,"Delta":9760654},{"NoteNumber":73,"Velocity":88,"Duration":91385,"SoundDuration":91385,"Delta":9943426},{"NoteNumber":78,"Velocity":88,"Duration":91385,"SoundDuration":91385,"Delta":9943426},{"NoteNumber":85,"Velocity":104,"Duration":91385,"SoundDuration":91385,"Delta":9943426},{"NoteNumber":45,"Velocity":77,"Duration":91385,"SoundDuration":91385,"Delta":9943426},{"NoteNumber":33,"Velocity":67,"Duration":89960,"SoundDuration":89960,"Delta":10126196},{"NoteNumber":49,"Velocity":75,"Duration":104953,"SoundDuration":104953,"Delta":10216157},{"NoteNumber":52,"Velocity":77,"Duration":104953,"SoundDuration":104953,"Delta":10306117},{"NoteNumber":45,"Velocity":63,"Duration":89960,"SoundDuration":89960,"Delta":10306117},{"NoteNumber":55,"Velocity":79,"Duration":104953,"SoundDuration":104953,"Delta":10396078},{"NoteNumber":61,"Velocity":76,"Duration":44980,"SoundDuration":44980,"Delta":10486038},{"NoteNumber":33,"Velocity":67,"Duration":89960,"SoundDuration":89960,"Delta":10486038},{"NoteNumber":61,"Velocity":77,"Duration":104953,"SoundDuration":104953,"Delta":10575999},{"NoteNumber":64,"Velocity":79,"Duration":104953,"SoundDuration":104953,"Delta":10665960},{"NoteNumber":45,"Velocity":63,"Duration":89960,"SoundDuration":89960,"Delta":10665960},{"NoteNumber":67,"Velocity":79,"Duration":104953,"SoundDuration":104953,"Delta":10755920},{"NoteNumber":73,"Velocity":80,"Duration":44980,"SoundDuration":44980,"Delta":10845880},{"NoteNumber":33,"Velocity":67,"Duration":89960,"SoundDuration":89960,"Delta":10845880},{"NoteNumber":73,"Velocity":77,"Duration":104953,"SoundDuration":104953,"Delta":10935841},{"NoteNumber":76,"Velocity":79,"Duration":104953,"SoundDuration":104953,"Delta":11025801},{"NoteNumber":45,"Velocity":63,"Duration":89960,"SoundDuration":89960,"Delta":11025801},{"NoteNumber":79,"Velocity":80,"Duration":89960,"SoundDuration":89960,"Delta":11115762},{"NoteNumber":85,"Velocity":105,"Duration":104675,"SoundDuration":104675,"Delta":11205722},{"NoteNumber":73,"Velocity":89,"Duration":104675,"SoundDuration":104675,"Delta":11205722},{"NoteNumber":79,"Velocity":105,"Duration":104675,"SoundDuration":104675,"Delta":11205722},{"NoteNumber":33,"Velocity":83,"Duration":104675,"SoundDuration":104675,"Delta":11205722},{"NoteNumber":73,"Velocity":89,"Duration":104675,"SoundDuration":104675,"Delta":11415073},{"NoteNumber":79,"Velocity":105,"Duration":104675,"SoundDuration":104675,"Delta":11415073},{"NoteNumber":85,"Velocity":105,"Duration":104675,"SoundDuration":104675,"Delta":11415073},{"NoteNumber":45,"Velocity":83,"Duration":104675,"SoundDuration":104675,"Delta":11415073},{"NoteNumber":72,"Velocity":88,"Duration":209350,"SoundDuration":209350,"Delta":11624424},{"NoteNumber":84,"Velocity":104,"Duration":209350,"SoundDuration":209350,"Delta":11624424},{"NoteNumber":80,"Velocity":104,"Duration":209350,"SoundDuration":209350,"Delta":11624424},{"NoteNumber":44,"Velocity":77,"Duration":209350,"SoundDuration":209350,"Delta":11624424},{"NoteNumber":32,"Velocity":64,"Duration":209350,"SoundDuration":209350,"Delta":11624424},{"NoteNumber":68,"Velocity":74,"Duration":91096,"SoundDuration":91096,"Delta":11833775},{"NoteNumber":60,"Velocity":62,"Duration":182193,"SoundDuration":182193,"Delta":11833775},{"NoteNumber":56,"Velocity":62,"Duration":2763949,"SoundDuration":2763949,"Delta":11833775},{"NoteNumber":80,"Velocity":58,"Duration":91096,"SoundDuration":91096,"Delta":11924872},{"NoteNumber":68,"Velocity":75,"Duration":91096,"SoundDuration":91096,"Delta":12015969},{"NoteNumber":60,"Velocity":62,"Duration":182193,"SoundDuration":182193,"Delta":12015969},{"NoteNumber":80,"Velocity":60,"Duration":91096,"SoundDuration":91096,"Delta":12107066},{"NoteNumber":70,"Velocity":76,"Duration":91096,"SoundDuration":91096,"Delta":12198162},{"NoteNumber":61,"Velocity":62,"Duration":182193,"SoundDuration":182193,"Delta":12198162},{"NoteNumber":80,"Velocity":60,"Duration":91096,"SoundDuration":91096,"Delta":12289259},{"NoteNumber":72,"Velocity":76,"Duration":91096,"SoundDuration":91096,"Delta":12380356},{"NoteNumber":63,"Velocity":64,"Duration":182193,"SoundDuration":182193,"Delta":12380356},{"NoteNumber":80,"Velocity":61,"Duration":91096,"SoundDuration":91096,"Delta":12471453},{"NoteNumber":73,"Velocity":78,"Duration":91096,"SoundDuration":91096,"Delta":12562549},{"NoteNumber":64,"Velocity":66,"Duration":182193,"SoundDuration":182193,"Delta":12562549},{"NoteNumber":80,"Velocity":62,"Duration":91096,"SoundDuration":91096,"Delta":12653646},{"NoteNumber":75,"Velocity":79,"Duration":91096,"SoundDuration":91096,"Delta":12744743},{"NoteNumber":66,"Velocity":67,"Duration":182193,"SoundDuration":182193,"Delta":12744743},{"NoteNumber":80,"Velocity":62,"Duration":91096,"SoundDuration":91096,"Delta":12835840},{"NoteNumber":72,"Velocity":79,"Duration":91096,"SoundDuration":91096,"Delta":12926936},{"NoteNumber":63,"Velocity":68,"Duration":182193,"SoundDuration":182193,"Delta":12926936},{"NoteNumber":80,"Velocity":62,"Duration":91096,"SoundDuration":91096,"Delta":13018033},{"NoteNumber":75,"Velocity":80,"Duration":93463,"SoundDuration":93463,"Delta":13109130},{"NoteNumber":66,"Velocity":69,"Duration":186927,"SoundDuration":186927,"Delta":13109130},{"NoteNumber":80,"Velocity":62,"Duration":93463,"SoundDuration":93463,"Delta":13202594},{"NoteNumber":73,"Velocity":80,"Duration":93463,"SoundDuration":93463,"Delta":13296057},{"NoteNumber":64,"Velocity":71,"Duration":186927,"SoundDuration":186927,"Delta":13296057},{"NoteNumber":80,"Velocity":62,"Duration":93463,"SoundDuration":93463,"Delta":13389521},{"NoteNumber":78,"Velocity":84,"Duration":93463,"SoundDuration":93463,"Delta":13482985},{"NoteNumber":69,"Velocity":72,"Duration":186927,"SoundDuration":186927,"Delta":13482985},{"NoteNumber":80,"Velocity":62,"Duration":93463,"SoundDuration":93463,"Delta":13576449},{"NoteNumber":76,"Velocity":80,"Duration":93363,"SoundDuration":93363,"Delta":13669912},{"NoteNumber":68,"Velocity":71,"Duration":186525,"SoundDuration":186525,"Delta":13669912},{"NoteNumber":80,"Velocity":62,"Duration":93162,"SoundDuration":93162,"Delta":13763276},{"NoteNumber":75,"Velocity":80,"Duration":93161,"SoundDuration":93161,"Delta":13856438},{"NoteNumber":66,"Velocity":69,"Duration":186023,"SoundDuration":186023,"Delta":13856438},{"NoteNumber":80,"Velocity":62,"Duration":92862,"SoundDuration":92862,"Delta":13949600},{"NoteNumber":73,"Velocity":79,"Duration":92862,"SoundDuration":92862,"Delta":14042462},{"NoteNumber":64,"Velocity":68,"Duration":185622,"SoundDuration":185622,"Delta":14042462},{"NoteNumber":80,"Velocity":62,"Duration":92760,"SoundDuration":92760,"Delta":14135324},{"NoteNumber":72,"Velocity":79,"Duration":92558,"SoundDuration":92558,"Delta":14228084},{"NoteNumber":63,"Velocity":67,"Duration":185116,"SoundDuration":185116,"Delta":14228084},{"NoteNumber":80,"Velocity":62,"Duration":92558,"SoundDuration":92558,"Delta":14320643},{"NoteNumber":69,"Velocity":77,"Duration":92262,"SoundDuration":92262,"Delta":14413201},{"NoteNumber":61,"Velocity":66,"Duration":184524,"SoundDuration":184524,"Delta":14413201},{"NoteNumber":79,"Velocity":61,"Duration":92262,"SoundDuration":92262,"Delta":14505463},{"NoteNumber":68,"Velocity":76,"Duration":92164,"SoundDuration":92164,"Delta":14597725},{"NoteNumber":60,"Velocity":64,"Duration":184132,"SoundDuration":184132,"Delta":14597725},{"NoteNumber":56,"Velocity":64,"Duration":2950625,"SoundDuration":2950625,"Delta":14597725},{"NoteNumber":80,"Velocity":60,"Duration":91967,"SoundDuration":91967,"Delta":14689890},{"NoteNumber":68,"Velocity":75,"Duration":91968,"SoundDuration":91968,"Delta":14781858},{"NoteNumber":60,"Velocity":63,"Duration":183643,"SoundDuration":183643,"Delta":14781858},{"NoteNumber":80,"Velocity":59,"Duration":91675,"SoundDuration":91675,"Delta":14873826},{"NoteNumber":68,"Velocity":74,"Duration":91675,"SoundDuration":91675,"Delta":14965501},{"NoteNumber":60,"Velocity":62,"Duration":183254,"SoundDuration":183254,"Delta":14965501},{"NoteNumber":80,"Velocity":59,"Duration":91578,"SoundDuration":91578,"Delta":15057177},{"NoteNumber":70,"Velocity":74,"Duration":91385,"SoundDuration":91385,"Delta":15148756},{"NoteNumber":61,"Velocity":60,"Duration":182770,"SoundDuration":182770,"Delta":15148756},{"NoteNumber":80,"Velocity":61,"Duration":91385,"SoundDuration":91385,"Delta":15240142},{"NoteNumber":72,"Velocity":76,"Duration":91385,"SoundDuration":91385,"Delta":15331527},{"NoteNumber":63,"Velocity":62,"Duration":182771,"SoundDuration":182771,"Delta":15331527},{"NoteNumber":80,"Velocity":59,"Duration":91385,"SoundDuration":91385,"Delta":15422913},{"NoteNumber":73,"Velocity":76,"Duration":91385,"SoundDuration":91385,"Delta":15514298},{"NoteNumber":64,"Velocity":62,"Duration":182771,"SoundDuration":182771,"Delta":15514298},{"NoteNumber":80,"Velocity":62,"Duration":91385,"SoundDuration":91385,"Delta":15605684},{"NoteNumber":75,"Velocity":77,"Duration":91385,"SoundDuration":91385,"Delta":15697069},{"NoteNumber":66,"Velocity":65,"Duration":182770,"SoundDuration":182770,"Delta":15697069},{"NoteNumber":80,"Velocity":61,"Duration":91385,"SoundDuration":91385,"Delta":15788455},{"NoteNumber":72,"Velocity":79,"Duration":91385,"SoundDuration":91385,"Delta":15879840},{"NoteNumber":63,"Velocity":67,"Duration":182771,"SoundDuration":182771,"Delta":15879840},{"NoteNumber":80,"Velocity":62,"Duration":91385,"SoundDuration":91385,"Delta":15971226},{"NoteNumber":75,"Velocity":79,"Duration":95316,"SoundDuration":95316,"Delta":16062611},{"NoteNumber":66,"Velocity":68,"Duration":190633,"SoundDuration":190633,"Delta":16062611},{"NoteNumber":80,"Velocity":62,"Duration":95316,"SoundDuration":95316,"Delta":16157928},{"NoteNumber":73,"Velocity":80,"Duration":95316,"SoundDuration":95316,"Delta":16253245},{"NoteNumber":64,"Velocity":68,"Duration":189713,"SoundDuration":189713,"Delta":16253245},{"NoteNumber":80,"Velocity":65,"Duration":94397,"SoundDuration":94397,"Delta":16348561},{"NoteNumber":78,"Velocity":84,"Duration":92558,"SoundDuration":92558,"Delta":16442959},{"NoteNumber":69,"Velocity":68,"Duration":185116,"SoundDuration":185116,"Delta":16442959},{"NoteNumber":80,"Velocity":68,"Duration":92558,"SoundDuration":92558,"Delta":16535517},{"NoteNumber":76,"Velocity":84,"Duration":92558,"SoundDuration":92558,"Delta":16628075},{"NoteNumber":68,"Velocity":67,"Duration":184820,"SoundDuration":184820,"Delta":16628075},{"NoteNumber":80,"Velocity":67,"Duration":92262,"SoundDuration":92262,"Delta":16720633},{"NoteNumber":75,"Velocity":84,"Duration":92262,"SoundDuration":92262,"Delta":16812896},{"NoteNumber":66,"Velocity":67,"Duration":184524,"SoundDuration":184524,"Delta":16812896},{"NoteNumber":80,"Velocity":67,"Duration":92262,"SoundDuration":92262,"Delta":16905158},{"NoteNumber":73,"Velocity":84,"Duration":91968,"SoundDuration":91968,"Delta":16997420},{"NoteNumber":64,"Velocity":67,"Duration":183935,"SoundDuration":183935,"Delta":16997420},{"NoteNumber":80,"Velocity":66,"Duration":91967,"SoundDuration":91967,"Delta":17089388},{"NoteNumber":72,"Velocity":84,"Duration":91968,"SoundDuration":91968,"Delta":17181356},{"NoteNumber":63,"Velocity":67,"Duration":183643,"SoundDuration":183643,"Delta":17181356},{"NoteNumber":80,"Velocity":67,"Duration":91675,"SoundDuration":91675,"Delta":17273324},{"NoteNumber":69,"Velocity":84,"Duration":91675,"SoundDuration":91675,"Delta":17365000},{"NoteNumber":61,"Velocity":67,"Duration":183351,"SoundDuration":183351,"Delta":17365000},{"NoteNumber":79,"Velocity":66,"Duration":91675,"SoundDuration":91675,"Delta":17456676},{"NoteNumber":68,"Velocity":84,"Duration":91385,"SoundDuration":91385,"Delta":17548351},{"NoteNumber":56,"Velocity":60,"Duration":91385,"SoundDuration":91385,"Delta":17548351},{"NoteNumber":60,"Velocity":71,"Duration":91385,"SoundDuration":91385,"Delta":17548351},{"NoteNumber":80,"Velocity":66,"Duration":91482,"SoundDuration":91482,"Delta":17639737},{"NoteNumber":69,"Velocity":79,"Duration":91773,"SoundDuration":91773,"Delta":17731219},{"NoteNumber":61,"Velocity":62,"Duration":91773,"SoundDuration":91773,"Delta":17731219},{"NoteNumber":56,"Velocity":52,"Duration":91773,"SoundDuration":91773,"Delta":17731219},{"NoteNumber":79,"Velocity":67,"Duration":92066,"SoundDuration":92066,"Delta":17822992},{"NoteNumber":68,"Velocity":84,"Duration":92360,"SoundDuration":92360,"Delta":17915058},{"NoteNumber":56,"Velocity":56,"Duration":92360,"SoundDuration":92360,"Delta":17915058},{"NoteNumber":60,"Velocity":67,"Duration":92360,"SoundDuration":92360,"Delta":17915058},{"NoteNumber":80,"Velocity":66,"Duration":92659,"SoundDuration":92659,"Delta":18007419},{"NoteNumber":69,"Velocity":79,"Duration":92961,"SoundDuration":92961,"Delta":18100079},{"NoteNumber":61,"Velocity":62,"Duration":92961,"SoundDuration":92961,"Delta":18100079},{"NoteNumber":56,"Velocity":52,"Duration":92961,"SoundDuration":92961,"Delta":18100079},{"NoteNumber":79,"Velocity":67,"Duration":93262,"SoundDuration":93262,"Delta":18193041},{"NoteNumber":68,"Velocity":84,"Duration":93463,"SoundDuration":93463,"Delta":18286303},{"NoteNumber":56,"Velocity":60,"Duration":93463,"SoundDuration":93463,"Delta":18286303},{"NoteNumber":60,"Velocity":71,"Duration":93463,"SoundDuration":93463,"Delta":18286303},{"NoteNumber":80,"Velocity":66,"Duration":93761,"SoundDuration":93761,"Delta":18379767},{"NoteNumber":69,"Velocity":79,"Duration":94073,"SoundDuration":94073,"Delta":18473529},{"NoteNumber":56,"Velocity":52,"Duration":94073,"SoundDuration":94073,"Delta":18473529},{"NoteNumber":61,"Velocity":62,"Duration":94073,"SoundDuration":94073,"Delta":18473529},{"NoteNumber":79,"Velocity":65,"Duration":94381,"SoundDuration":94381,"Delta":18567602},{"NoteNumber":68,"Velocity":84,"Duration":94691,"SoundDuration":94691,"Delta":18661984},{"NoteNumber":56,"Velocity":56,"Duration":94691,"SoundDuration":94691,"Delta":18661984},{"NoteNumber":60,"Velocity":67,"Duration":94691,"SoundDuration":94691,"Delta":18661984},{"NoteNumber":80,"Velocity":66,"Duration":95008,"SoundDuration":95008,"Delta":18756675},{"NoteNumber":69,"Velocity":79,"Duration":95316,"SoundDuration":95316,"Delta":18851683},{"NoteNumber":61,"Velocity":61,"Duration":95316,"SoundDuration":95316,"Delta":18851683},{"NoteNumber":56,"Velocity":51,"Duration":95316,"SoundDuration":95316,"Delta":18851683},{"NoteNumber":79,"Velocity":65,"Duration":95632,"SoundDuration":95632,"Delta":18947000},{"NoteNumber":68,"Velocity":84,"Duration":246043,"SoundDuration":246043,"Delta":19042633},{"NoteNumber":80,"Velocity":84,"Duration":246043,"SoundDuration":246043,"Delta":19042633},{"NoteNumber":56,"Velocity":60,"Duration":246043,"SoundDuration":246043,"Delta":19042633},{"NoteNumber":60,"Velocity":71,"Duration":246043,"SoundDuration":246043,"Delta":19042633},{"NoteNumber":56,"Velocity":113,"Duration":2159048,"SoundDuration":2159048,"Delta":19534719},{"NoteNumber":32,"Velocity":77,"Duration":2159048,"SoundDuration":2159048,"Delta":19534719},{"NoteNumber":44,"Velocity":90,"Duration":2159048,"SoundDuration":2159048,"Delta":19534719},{"NoteNumber":37,"Velocity":43,"Duration":89960,"SoundDuration":89960,"Delta":21693768},{"NoteNumber":44,"Velocity":45,"Duration":86212,"SoundDuration":86212,"Delta":21783728},{"NoteNumber":49,"Velocity":47,"Duration":104953,"SoundDuration":104953,"Delta":21873689},{"NoteNumber":44,"Velocity":39,"Duration":89960,"SoundDuration":89960,"Delta":21873689},{"NoteNumber":52,"Velocity":49,"Duration":104953,"SoundDuration":104953,"Delta":21963649},{"NoteNumber":56,"Velocity":51,"Duration":104953,"SoundDuration":104953,"Delta":22053610},{"NoteNumber":37,"Velocity":43,"Duration":89960,"SoundDuration":89960,"Delta":22053610},{"NoteNumber":49,"Velocity":47,"Duration":104953,"SoundDuration":104953,"Delta":22143570},{"NoteNumber":52,"Velocity":49,"Duration":104953,"SoundDuration":104953,"Delta":22233531},{"NoteNumber":44,"Velocity":39,"Duration":89960,"SoundDuration":89960,"Delta":22233531},{"NoteNumber":56,"Velocity":51,"Duration":104953,"SoundDuration":104953,"Delta":22323491},{"NoteNumber":61,"Velocity":51,"Duration":104953,"SoundDuration":104953,"Delta":22413452},{"NoteNumber":37,"Velocity":43,"Duration":89960,"SoundDuration":89960,"Delta":22413452},{"NoteNumber":52,"Velocity":47,"Duration":104953,"SoundDuration":104953,"Delta":22503412},{"NoteNumber":56,"Velocity":48,"Duration":104953,"SoundDuration":104953,"Delta":22593373},{"NoteNumber":44,"Velocity":39,"Duration":89960,"SoundDuration":89960,"Delta":22593373},{"NoteNumber":61,"Velocity":50,"Duration":104953,"SoundDuration":104953,"Delta":22683333},{"NoteNumber":64,"Velocity":51,"Duration":104953,"SoundDuration":104953,"Delta":22773294},{"NoteNumber":37,"Velocity":43,"Duration":89960,"SoundDuration":89960,"Delta":22773294},{"NoteNumber":56,"Velocity":47,"Duration":104953,"SoundDuration":104953,"Delta":22863254},{"NoteNumber":61,"Velocity":48,"Duration":104953,"SoundDuration":104953,"Delta":22953215},{"NoteNumber":44,"Velocity":39,"Duration":89960,"SoundDuration":89960,"Delta":22953215},{"NoteNumber":64,"Velocity":50,"Duration":104953,"SoundDuration":104953,"Delta":23043175},{"NoteNumber":68,"Velocity":51,"Duration":104953,"SoundDuration":104953,"Delta":23133136},{"NoteNumber":37,"Velocity":43,"Duration":89960,"SoundDuration":89960,"Delta":23133136},{"NoteNumber":61,"Velocity":47,"Duration":104953,"SoundDuration":104953,"Delta":23223096},{"NoteNumber":64,"Velocity":48,"Duration":104953,"SoundDuration":104953,"Delta":23313057},{"NoteNumber":44,"Velocity":39,"Duration":89960,"SoundDuration":89960,"Delta":23313057},{"NoteNumber":68,"Velocity":50,"Duration":104953,"SoundDuration":104953,"Delta":23403017},{"NoteNumber":73,"Velocity":51,"Duration":104953,"SoundDuration":104953,"Delta":23492978},{"NoteNumber":37,"Velocity":43,"Duration":89960,"SoundDuration":89960,"Delta":23492978},{"NoteNumber":64,"Velocity":47,"Duration":104953,"SoundDuration":104953,"Delta":23582938},{"NoteNumber":68,"Velocity":49,"Duration":104953,"SoundDuration":104953,"Delta":23672899},{"NoteNumber":44,"Velocity":39,"Duration":89960,"SoundDuration":89960,"Delta":23672899},{"NoteNumber":73,"Velocity":51,"Duration":104953,"SoundDuration":104953,"Delta":23762859},{"NoteNumber":76,"Velocity":51,"Duration":82463,"SoundDuration":82463,"Delta":23852820},{"NoteNumber":37,"Velocity":43,"Duration":89960,"SoundDuration":89960,"Delta":23852820},{"NoteNumber":76,"Velocity":51,"Duration":104953,"SoundDuration":104953,"Delta":23942780},{"NoteNumber":80,"Velocity":51,"Duration":104953,"SoundDuration":104953,"Delta":24032741},{"NoteNumber":44,"Velocity":39,"Duration":89960,"SoundDuration":89960,"Delta":24032741},{"NoteNumber":85,"Velocity":53,"Duration":105386,"SoundDuration":105386,"Delta":24122701},{"NoteNumber":76,"Velocity":96,"Duration":92558,"SoundDuration":92558,"Delta":24212662},{"NoteNumber":88,"Velocity":113,"Duration":92558,"SoundDuration":92558,"Delta":24212662},{"NoteNumber":37,"Velocity":73,"Duration":92558,"SoundDuration":92558,"Delta":24212662},{"NoteNumber":49,"Velocity":87,"Duration":92558,"SoundDuration":92558,"Delta":24212662},{"NoteNumber":76,"Velocity":74,"Duration":92558,"SoundDuration":92558,"Delta":24397778},{"NoteNumber":88,"Velocity":88,"Duration":92558,"SoundDuration":92558,"Delta":24397778},{"NoteNumber":44,"Velocity":74,"Duration":92558,"SoundDuration":92558,"Delta":24397778},{"NoteNumber":34,"Velocity":40,"Duration":89960,"SoundDuration":89960,"Delta":24582895},{"NoteNumber":52,"Velocity":47,"Duration":104953,"SoundDuration":104953,"Delta":24672855},{"NoteNumber":55,"Velocity":49,"Duration":104953,"SoundDuration":104953,"Delta":24762816},{"NoteNumber":49,"Velocity":36,"Duration":89960,"SoundDuration":89960,"Delta":24762816},{"NoteNumber":61,"Velocity":51,"Duration":104953,"SoundDuration":104953,"Delta":24852776},{"NoteNumber":64,"Velocity":51,"Duration":104953,"SoundDuration":104953,"Delta":24942737},{"NoteNumber":46,"Velocity":40,"Duration":89960,"SoundDuration":89960,"Delta":24942737},{"NoteNumber":55,"Velocity":47,"Duration":104953,"SoundDuration":104953,"Delta":25032697},{"NoteNumber":61,"Velocity":48,"Duration":104953,"SoundDuration":104953,"Delta":25122658},{"NoteNumber":49,"Velocity":37,"Duration":89960,"SoundDuration":89960,"Delta":25122658},{"NoteNumber":64,"Velocity":50,"Duration":104953,"SoundDuration":104953,"Delta":25212618},{"NoteNumber":67,"Velocity":51,"Duration":104953,"SoundDuration":104953,"Delta":25302579},{"NoteNumber":46,"Velocity":40,"Duration":89960,"SoundDuration":89960,"Delta":25302579},{"NoteNumber":61,"Velocity":47,"Duration":104953,"SoundDuration":104953,"Delta":25392539},{"NoteNumber":64,"Velocity":48,"Duration":104953,"SoundDuration":104953,"Delta":25482500},{"NoteNumber":49,"Velocity":37,"Duration":89960,"SoundDuration":89960,"Delta":25482500},{"NoteNumber":67,"Velocity":51,"Duration":104953,"SoundDuration":104953,"Delta":25572460},{"NoteNumber":73,"Velocity":52,"Duration":104953,"SoundDuration":104953,"Delta":25662421},{"NoteNumber":46,"Velocity":40,"Duration":89960,"SoundDuration":89960,"Delta":25662421},{"NoteNumber":64,"Velocity":47,"Duration":104953,"SoundDuration":104953,"Delta":25752381},{"NoteNumber":67,"Velocity":49,"Duration":104953,"SoundDuration":104953,"Delta":25842342},{"NoteNumber":49,"Velocity":37,"Duration":89960,"SoundDuration":89960,"Delta":25842342},{"NoteNumber":73,"Velocity":51,"Duration":104953,"SoundDuration":104953,"Delta":25932302},{"NoteNumber":76,"Velocity":53,"Duration":104953,"SoundDuration":104953,"Delta":26022263},{"NoteNumber":46,"Velocity":40,"Duration":89960,"SoundDuration":89960,"Delta":26022263},{"NoteNumber":67,"Velocity":47,"Duration":104953,"SoundDuration":104953,"Delta":26112223},{"NoteNumber":73,"Velocity":50,"Duration":104953,"SoundDuration":104953,"Delta":26202184},{"NoteNumber":49,"Velocity":37,"Duration":89960,"SoundDuration":89960,"Delta":26202184},{"NoteNumber":76,"Velocity":51,"Duration":104953,"SoundDuration":104953,"Delta":26292144},{"NoteNumber":79,"Velocity":53,"Duration":104953,"SoundDuration":104953,"Delta":26382105},{"NoteNumber":46,"Velocity":40,"Duration":89960,"SoundDuration":89960,"Delta":26382105},{"NoteNumber":73,"Velocity":47,"Duration":104953,"SoundDuration":104953,"Delta":26472065},{"NoteNumber":76,"Velocity":49,"Duration":104953,"SoundDuration":104953,"Delta":26562026},{"NoteNumber":49,"Velocity":36,"Duration":89960,"SoundDuration":89960,"Delta":26562026},{"NoteNumber":79,"Velocity":51,"Duration":104953,"SoundDuration":104953,"Delta":26651986},{"NoteNumber":85,"Velocity":52,"Duration":104953,"SoundDuration":104953,"Delta":26741947},{"NoteNumber":46,"Velocity":40,"Duration":89960,"SoundDuration":89960,"Delta":26741947},{"NoteNumber":76,"Velocity":49,"Duration":104953,"SoundDuration":104953,"Delta":26831907},{"NoteNumber":79,"Velocity":51,"Duration":104953,"SoundDuration":104953,"Delta":26921868},{"NoteNumber":49,"Velocity":37,"Duration":89960,"SoundDuration":89960,"Delta":26921868},{"NoteNumber":85,"Velocity":54,"Duration":105239,"SoundDuration":105239,"Delta":27011828},{"NoteNumber":76,"Velocity":93,"Duration":91675,"SoundDuration":91675,"Delta":27101789},{"NoteNumber":88,"Velocity":110,"Duration":91675,"SoundDuration":91675,"Delta":27101789},{"NoteNumber":46,"Velocity":87,"Duration":91675,"SoundDuration":91675,"Delta":27101789},{"NoteNumber":34,"Velocity":73,"Duration":91675,"SoundDuration":91675,"Delta":27101789},{"NoteNumber":76,"Velocity":73,"Duration":91675,"SoundDuration":91675,"Delta":27285140},{"NoteNumber":88,"Velocity":87,"Duration":91675,"SoundDuration":91675,"Delta":27285140},{"NoteNumber":49,"Velocity":72,"Duration":91675,"SoundDuration":91675,"Delta":27285140},{"NoteNumber":31,"Velocity":39,"Duration":89960,"SoundDuration":89960,"Delta":27468492},{"NoteNumber":51,"Velocity":50,"Duration":86212,"SoundDuration":86212,"Delta":27558452},{"NoteNumber":58,"Velocity":51,"Duration":104953,"SoundDuration":104953,"Delta":27648413},{"NoteNumber":51,"Velocity":36,"Duration":89960,"SoundDuration":89960,"Delta":27648413},{"NoteNumber":61,"Velocity":49,"Duration":104953,"SoundDuration":104953,"Delta":27738373},{"NoteNumber":63,"Velocity":51,"Duration":104953,"SoundDuration":104953,"Delta":27828334},{"NoteNumber":43,"Velocity":40,"Duration":89960,"SoundDuration":89960,"Delta":27828334},{"NoteNumber":58,"Velocity":52,"Duration":104953,"SoundDuration":104953,"Delta":27918294},{"NoteNumber":61,"Velocity":53,"Duration":104953,"SoundDuration":104953,"Delta":28008255},{"NoteNumber":51,"Velocity":39,"Duration":89960,"SoundDuration":89960,"Delta":28008255},{"NoteNumber":63,"Velocity":51,"Duration":104953,"SoundDuration":104953,"Delta":28098215},{"NoteNumber":70,"Velocity":56,"Duration":104953,"SoundDuration":104953,"Delta":28188176},{"NoteNumber":43,"Velocity":43,"Duration":89960,"SoundDuration":89960,"Delta":28188176},{"NoteNumber":61,"Velocity":56,"Duration":104953,"SoundDuration":104953,"Delta":28278136},{"NoteNumber":63,"Velocity":57,"Duration":104953,"SoundDuration":104953,"Delta":28368097},{"NoteNumber":51,"Velocity":40,"Duration":89960,"SoundDuration":89960,"Delta":28368097},{"NoteNumber":70,"Velocity":52,"Duration":104953,"SoundDuration":104953,"Delta":28458057},{"NoteNumber":73,"Velocity":58,"Duration":104953,"SoundDuration":104953,"Delta":28548018},{"NoteNumber":43,"Velocity":45,"Duration":89960,"SoundDuration":89960,"Delta":28548018},{"NoteNumber":63,"Velocity":59,"Duration":104953,"SoundDuration":104953,"Delta":28637978},{"NoteNumber":70,"Velocity":60,"Duration":104953,"SoundDuration":104953,"Delta":28727939},{"NoteNumber":51,"Velocity":43,"Duration":89960,"SoundDuration":89960,"Delta":28727939},{"NoteNumber":73,"Velocity":56,"Duration":104953,"SoundDuration":104953,"Delta":28817899},{"NoteNumber":75,"Velocity":62,"Duration":104953,"SoundDuration":104953,"Delta":28907860},{"NoteNumber":43,"Velocity":47,"Duration":89960,"SoundDuration":89960,"Delta":28907860},{"NoteNumber":70,"Velocity":62,"Duration":104953,"SoundDuration":104953,"Delta":28997820},{"NoteNumber":73,"Velocity":62,"Duration":104953,"SoundDuration":104953,"Delta":29087781},{"NoteNumber":51,"Velocity":44,"Duration":89960,"SoundDuration":89960,"Delta":29087781},{"NoteNumber":75,"Velocity":59,"Duration":104953,"SoundDuration":104953,"Delta":29177741},{"NoteNumber":82,"Velocity":63,"Duration":104953,"SoundDuration":104953,"Delta":29267702},{"NoteNumber":43,"Velocity":49,"Duration":89960,"SoundDuration":89960,"Delta":29267702},{"NoteNumber":73,"Velocity":65,"Duration":104953,"SoundDuration":104953,"Delta":29357662},{"NoteNumber":75,"Velocity":66,"Duration":104953,"SoundDuration":104953,"Delta":29447623},{"NoteNumber":51,"Velocity":45,"Duration":89960,"SoundDuration":89960,"Delta":29447623},{"NoteNumber":82,"Velocity":62,"Duration":104953,"SoundDuration":104953,"Delta":29537583},{"NoteNumber":85,"Velocity":67,"Duration":105374,"SoundDuration":105374,"Delta":29627544},{"NoteNumber":43,"Velocity":51,"Duration":90240,"SoundDuration":90240,"Delta":29627544},{"NoteNumber":82,"Velocity":65,"Duration":106374,"SoundDuration":106374,"Delta":29717784},{"NoteNumber":75,"Velocity":62,"Duration":107395,"SoundDuration":107395,"Delta":29808880},{"NoteNumber":51,"Velocity":48,"Duration":91968,"SoundDuration":91968,"Delta":29808880},{"NoteNumber":73,"Velocity":61,"Duration":108438,"SoundDuration":108438,"Delta":29900849},{"NoteNumber":82,"Velocity":59,"Duration":109496,"SoundDuration":109496,"Delta":29993709},{"NoteNumber":43,"Velocity":47,"Duration":93766,"SoundDuration":93766,"Delta":29993709},{"NoteNumber":75,"Velocity":57,"Duration":110579,"SoundDuration":110579,"Delta":30087476},{"NoteNumber":73,"Velocity":56,"Duration":111679,"SoundDuration":111679,"Delta":30182169},{"NoteNumber":51,"Velocity":45,"Duration":95633,"SoundDuration":95633,"Delta":30182169},{"NoteNumber":70,"Velocity":52,"Duration":113838,"SoundDuration":113838,"Delta":30277803},{"NoteNumber":71,"Velocity":49,"Duration":205605,"SoundDuration":205605,"Delta":30374507},{"NoteNumber":44,"Velocity":33,"Duration":119936,"SoundDuration":119936,"Delta":30374507},{"NoteNumber":51,"Velocity":26,"Duration":119936,"SoundDuration":119936,"Delta":30477310},{"NoteNumber":47,"Velocity":28,"Duration":119936,"SoundDuration":119936,"Delta":30580113},{"NoteNumber":51,"Velocity":25,"Duration":118708,"SoundDuration":118708,"Delta":30682916},{"NoteNumber":75,"Velocity":61,"Duration":756229,"SoundDuration":756229,"Delta":30785719},{"NoteNumber":44,"Velocity":33,"Duration":90584,"SoundDuration":90584,"Delta":30785719},{"NoteNumber":51,"Velocity":25,"Duration":89765,"SoundDuration":89765,"Delta":30877058},{"NoteNumber":47,"Velocity":28,"Duration":89765,"SoundDuration":89765,"Delta":30967577},{"NoteNumber":51,"Velocity":24,"Duration":89765,"SoundDuration":89765,"Delta":31058097},{"NoteNumber":44,"Velocity":33,"Duration":89765,"SoundDuration":89765,"Delta":31148616},{"NoteNumber":51,"Velocity":26,"Duration":89765,"SoundDuration":89765,"Delta":31239136},{"NoteNumber":47,"Velocity":29,"Duration":96766,"SoundDuration":96766,"Delta":31329655},{"NoteNumber":51,"Velocity":25,"Duration":96766,"SoundDuration":96766,"Delta":31427235},{"NoteNumber":71,"Velocity":50,"Duration":332161,"SoundDuration":332161,"Delta":31524815},{"NoteNumber":44,"Velocity":33,"Duration":101946,"SoundDuration":101946,"Delta":31524815},{"NoteNumber":51,"Velocity":26,"Duration":101946,"SoundDuration":101946,"Delta":31627618},{"NoteNumber":47,"Velocity":29,"Duration":101946,"SoundDuration":101946,"Delta":31730421},{"NoteNumber":68,"Velocity":50,"Duration":71258,"SoundDuration":71258,"Delta":31833224},{"NoteNumber":51,"Velocity":25,"Duration":141330,"SoundDuration":141330,"Delta":31833224},{"NoteNumber":67,"Velocity":40,"Duration":23752,"SoundDuration":23752,"Delta":31904483},{"NoteNumber":68,"Velocity":40,"Duration":23752,"SoundDuration":23752,"Delta":31928236},{"NoteNumber":70,"Velocity":40,"Duration":23752,"SoundDuration":23752,"Delta":31951989},{"NoteNumber":68,"Velocity":58,"Duration":404090,"SoundDuration":404090,"Delta":31975742},{"NoteNumber":46,"Velocity":33,"Duration":113459,"SoundDuration":113459,"Delta":31975742},{"NoteNumber":51,"Velocity":26,"Duration":113459,"SoundDuration":113459,"Delta":32072993},{"NoteNumber":49,"Velocity":29,"Duration":113459,"SoundDuration":113459,"Delta":32170244},{"NoteNumber":51,"Velocity":26,"Duration":112337,"SoundDuration":112337,"Delta":32267495},{"NoteNumber":67,"Velocity":50,"Duration":543117,"SoundDuration":543117,"Delta":32364746},{"NoteNumber":46,"Velocity":41,"Duration":89765,"SoundDuration":89765,"Delta":32364746},{"NoteNumber":51,"Velocity":35,"Duration":89765,"SoundDuration":89765,"Delta":32455265},{"NoteNumber":49,"Velocity":40,"Duration":89765,"SoundDuration":89765,"Delta":32545785},{"NoteNumber":51,"Velocity":37,"Duration":89765,"SoundDuration":89765,"Delta":32636304},{"NoteNumber":46,"Velocity":49,"Duration":89765,"SoundDuration":89765,"Delta":32726824},{"NoteNumber":51,"Velocity":40,"Duration":89765,"SoundDuration":89765,"Delta":32817343},{"NoteNumber":67,"Velocity":50,"Duration":216474,"SoundDuration":216474,"Delta":32907863},{"NoteNumber":49,"Velocity":46,"Duration":98778,"SoundDuration":98778,"Delta":32907863},{"NoteNumber":51,"Velocity":42,"Duration":98778,"SoundDuration":98778,"Delta":33007471},{"NoteNumber":75,"Velocity":61,"Duration":310644,"SoundDuration":310644,"Delta":33107079},{"NoteNumber":46,"Velocity":56,"Duration":102685,"SoundDuration":102685,"Delta":33107079},{"NoteNumber":51,"Velocity":41,"Duration":102685,"SoundDuration":102685,"Delta":33210628},{"NoteNumber":49,"Velocity":43,"Duration":102685,"SoundDuration":102685,"Delta":33314176},{"NoteNumber":67,"Velocity":52,"Duration":103548,"SoundDuration":103548,"Delta":33417724},{"NoteNumber":51,"Velocity":36,"Duration":102685,"SoundDuration":102685,"Delta":33417724},{"NoteNumber":70,"Velocity":47,"Duration":402665,"SoundDuration":402665,"Delta":33521272},{"NoteNumber":47,"Velocity":33,"Duration":96110,"SoundDuration":96110,"Delta":33521272},{"NoteNumber":51,"Velocity":28,"Duration":96110,"SoundDuration":96110,"Delta":33618190},{"NoteNumber":47,"Velocity":30,"Duration":96110,"SoundDuration":96110,"Delta":33715108},{"NoteNumber":51,"Velocity":26,"Duration":96110,"SoundDuration":96110,"Delta":33812026},{"NoteNumber":68,"Velocity":51,"Duration":539763,"SoundDuration":539763,"Delta":33908944},{"NoteNumber":47,"Velocity":41,"Duration":89210,"SoundDuration":89210,"Delta":33908944},{"NoteNumber":51,"Velocity":37,"Duration":89210,"SoundDuration":89210,"Delta":33998905},{"NoteNumber":47,"Velocity":39,"Duration":89210,"SoundDuration":89210,"Delta":34088865},{"NoteNumber":51,"Velocity":36,"Duration":89210,"SoundDuration":89210,"Delta":34178826},{"NoteNumber":47,"Velocity":49,"Duration":89210,"SoundDuration":89210,"Delta":34268786},{"NoteNumber":51,"Velocity":43,"Duration":89210,"SoundDuration":89210,"Delta":34358747},{"NoteNumber":68,"Velocity":49,"Duration":209688,"SoundDuration":209688,"Delta":34448707},{"NoteNumber":47,"Velocity":48,"Duration":95474,"SoundDuration":95474,"Delta":34448707},{"NoteNumber":51,"Velocity":42,"Duration":95474,"SoundDuration":95474,"Delta":34544985},{"NoteNumber":75,"Velocity":61,"Duration":308408,"SoundDuration":308408,"Delta":34641262},{"NoteNumber":47,"Velocity":54,"Duration":101946,"SoundDuration":101946,"Delta":34641262},{"NoteNumber":51,"Velocity":41,"Duration":101946,"SoundDuration":101946,"Delta":34744065},{"NoteNumber":47,"Velocity":43,"Duration":101946,"SoundDuration":101946,"Delta":34846868},{"NoteNumber":68,"Velocity":50,"Duration":118956,"SoundDuration":118956,"Delta":34949671},{"NoteNumber":51,"Velocity":36,"Duration":101946,"SoundDuration":101946,"Delta":34949671},{"NoteNumber":71,"Velocity":52,"Duration":402758,"SoundDuration":402758,"Delta":35052474},{"NoteNumber":43,"Velocity":32,"Duration":96110,"SoundDuration":96110,"Delta":35052474},{"NoteNumber":51,"Velocity":25,"Duration":96110,"SoundDuration":96110,"Delta":35149392},{"NoteNumber":43,"Velocity":29,"Duration":96110,"SoundDuration":96110,"Delta":35246310},{"NoteNumber":51,"Velocity":26,"Duration":96110,"SoundDuration":96110,"Delta":35343228},{"NoteNumber":70,"Velocity":50,"Duration":543117,"SoundDuration":543117,"Delta":35440146},{"NoteNumber":43,"Velocity":41,"Duration":89765,"SoundDuration":89765,"Delta":35440146},{"NoteNumber":51,"Velocity":37,"Duration":89765,"SoundDuration":89765,"Delta":35530665},{"NoteNumber":43,"Velocity":42,"Duration":89765,"SoundDuration":89765,"Delta":35621185},{"NoteNumber":51,"Velocity":43,"Duration":89765,"SoundDuration":89765,"Delta":35711704},{"NoteNumber":43,"Velocity":48,"Duration":89765,"SoundDuration":89765,"Delta":35802224},{"NoteNumber":51,"Velocity":43,"Duration":89765,"SoundDuration":89765,"Delta":35892743},{"NoteNumber":70,"Velocity":52,"Duration":222739,"SoundDuration":222739,"Delta":35983263},{"NoteNumber":43,"Velocity":49,"Duration":101946,"SoundDuration":101946,"Delta":35983263},{"NoteNumber":51,"Velocity":46,"Duration":101946,"SoundDuration":101946,"Delta":36086066},{"NoteNumber":75,"Velocity":49,"Duration":308408,"SoundDuration":308408,"Delta":36188869},{"NoteNumber":43,"Velocity":54,"Duration":101946,"SoundDuration":101946,"Delta":36188869},{"NoteNumber":51,"Velocity":38,"Duration":101946,"SoundDuration":101946,"Delta":36291672},{"NoteNumber":43,"Velocity":42,"Duration":101946,"SoundDuration":101946,"Delta":36394475},{"NoteNumber":70,"Velocity":52,"Duration":102803,"SoundDuration":102803,"Delta":36497278},{"NoteNumber":51,"Velocity":36,"Duration":101946,"SoundDuration":101946,"Delta":36497278},{"NoteNumber":71,"Velocity":56,"Duration":92558,"SoundDuration":92558,"Delta":36600081},{"NoteNumber":44,"Velocity":39,"Duration":107984,"SoundDuration":107984,"Delta":36600081},{"NoteNumber":51,"Velocity":32,"Duration":107984,"SoundDuration":107984,"Delta":36692639},{"NoteNumber":87,"Velocity":56,"Duration":370232,"SoundDuration":370232,"Delta":36785197},{"NoteNumber":75,"Velocity":47,"Duration":370232,"SoundDuration":370232,"Delta":36785197},{"NoteNumber":47,"Velocity":35,"Duration":91786,"SoundDuration":91786,"Delta":36785197},{"NoteNumber":51,"Velocity":31,"Duration":91786,"SoundDuration":91786,"Delta":36877756},{"NoteNumber":44,"Velocity":40,"Duration":91786,"SoundDuration":91786,"Delta":36970314},{"NoteNumber":51,"Velocity":31,"Duration":91786,"SoundDuration":91786,"Delta":37062872},{"NoteNumber":87,"Velocity":58,"Duration":370232,"SoundDuration":370232,"Delta":37155430},{"NoteNumber":75,"Velocity":49,"Duration":370232,"SoundDuration":370232,"Delta":37155430},{"NoteNumber":47,"Velocity":34,"Duration":91786,"SoundDuration":91786,"Delta":37155430},{"NoteNumber":51,"Velocity":31,"Duration":91786,"SoundDuration":91786,"Delta":37247989},{"NoteNumber":44,"Velocity":41,"Duration":91786,"SoundDuration":91786,"Delta":37340547},{"NoteNumber":51,"Velocity":32,"Duration":91786,"SoundDuration":91786,"Delta":37433105},{"NoteNumber":75,"Velocity":47,"Duration":89960,"SoundDuration":89960,"Delta":37525663},{"NoteNumber":87,"Velocity":56,"Duration":89960,"SoundDuration":89960,"Delta":37525663},{"NoteNumber":47,"Velocity":35,"Duration":89210,"SoundDuration":89210,"Delta":37525663},{"NoteNumber":51,"Velocity":32,"Duration":89210,"SoundDuration":89210,"Delta":37615624},{"NoteNumber":71,"Velocity":49,"Duration":89960,"SoundDuration":89960,"Delta":37705584},{"NoteNumber":83,"Velocity":58,"Duration":89960,"SoundDuration":89960,"Delta":37705584},{"NoteNumber":44,"Velocity":43,"Duration":104953,"SoundDuration":104953,"Delta":37705584},{"NoteNumber":51,"Velocity":37,"Duration":104953,"SoundDuration":104953,"Delta":37795545},{"NoteNumber":80,"Velocity":59,"Duration":89960,"SoundDuration":89960,"Delta":37885505},{"NoteNumber":68,"Velocity":49,"Duration":89960,"SoundDuration":89960,"Delta":37885505},{"NoteNumber":47,"Velocity":37,"Duration":104953,"SoundDuration":104953,"Delta":37885505},{"NoteNumber":51,"Velocity":34,"Duration":104953,"SoundDuration":104953,"Delta":37975466},{"NoteNumber":80,"Velocity":61,"Duration":89960,"SoundDuration":89960,"Delta":38065426},{"NoteNumber":68,"Velocity":51,"Duration":89960,"SoundDuration":89960,"Delta":38065426},{"NoteNumber":46,"Velocity":46,"Duration":104953,"SoundDuration":104953,"Delta":38065426},{"NoteNumber":51,"Velocity":34,"Duration":105487,"SoundDuration":105487,"Delta":38155387},{"NoteNumber":79,"Velocity":62,"Duration":372647,"SoundDuration":372647,"Delta":38245347},{"NoteNumber":67,"Velocity":52,"Duration":372647,"SoundDuration":372647,"Delta":38245347},{"NoteNumber":49,"Velocity":39,"Duration":92385,"SoundDuration":92385,"Delta":38245347},{"NoteNumber":51,"Velocity":34,"Duration":92385,"SoundDuration":92385,"Delta":38338509},{"NoteNumber":46,"Velocity":47,"Duration":92385,"SoundDuration":92385,"Delta":38431671},{"NoteNumber":51,"Velocity":35,"Duration":92385,"SoundDuration":92385,"Delta":38524833},{"NoteNumber":79,"Velocity":68,"Duration":372648,"SoundDuration":372648,"Delta":38617995},{"NoteNumber":67,"Velocity":57,"Duration":372648,"SoundDuration":372648,"Delta":38617995},{"NoteNumber":49,"Velocity":40,"Duration":92385,"SoundDuration":92385,"Delta":38617995},{"NoteNumber":51,"Velocity":35,"Duration":92385,"SoundDuration":92385,"Delta":38711157},{"NoteNumber":46,"Velocity":49,"Duration":92385,"SoundDuration":92385,"Delta":38804319},{"NoteNumber":51,"Velocity":35,"Duration":92385,"SoundDuration":92385,"Delta":38897481},{"NoteNumber":67,"Velocity":58,"Duration":89960,"SoundDuration":89960,"Delta":38990643},{"NoteNumber":79,"Velocity":69,"Duration":89960,"SoundDuration":89960,"Delta":38990643},{"NoteNumber":49,"Velocity":41,"Duration":89210,"SoundDuration":89210,"Delta":38990643},{"NoteNumber":51,"Velocity":37,"Duration":89210,"SoundDuration":89210,"Delta":39080604},{"NoteNumber":87,"Velocity":71,"Duration":89960,"SoundDuration":89960,"Delta":39170564},{"NoteNumber":75,"Velocity":60,"Duration":89960,"SoundDuration":89960,"Delta":39170564},{"NoteNumber":46,"Velocity":50,"Duration":104953,"SoundDuration":104953,"Delta":39170564},{"NoteNumber":51,"Velocity":40,"Duration":104953,"SoundDuration":104953,"Delta":39260525},{"NoteNumber":67,"Velocity":61,"Duration":89960,"SoundDuration":89960,"Delta":39350485},{"NoteNumber":79,"Velocity":73,"Duration":89960,"SoundDuration":89960,"Delta":39350485},{"NoteNumber":49,"Velocity":45,"Duration":104953,"SoundDuration":104953,"Delta":39350485},{"NoteNumber":51,"Velocity":41,"Duration":104953,"SoundDuration":104953,"Delta":39440446},{"NoteNumber":70,"Velocity":62,"Duration":89960,"SoundDuration":89960,"Delta":39530406},{"NoteNumber":82,"Velocity":74,"Duration":89960,"SoundDuration":89960,"Delta":39530406},{"NoteNumber":47,"Velocity":51,"Duration":104953,"SoundDuration":104953,"Delta":39530406},{"NoteNumber":51,"Velocity":44,"Duration":105487,"SoundDuration":105487,"Delta":39620367},{"NoteNumber":68,"Velocity":63,"Duration":372647,"SoundDuration":372647,"Delta":39710327},{"NoteNumber":80,"Velocity":75,"Duration":372647,"SoundDuration":372647,"Delta":39710327},{"NoteNumber":47,"Velocity":47,"Duration":92385,"SoundDuration":92385,"Delta":39710327},{"NoteNumber":51,"Velocity":43,"Duration":92385,"SoundDuration":92385,"Delta":39803489},{"NoteNumber":47,"Velocity":52,"Duration":92385,"SoundDuration":92385,"Delta":39896651},{"NoteNumber":51,"Velocity":44,"Duration":92385,"SoundDuration":92385,"Delta":39989813},{"NoteNumber":68,"Velocity":68,"Duration":372648,"SoundDuration":372648,"Delta":40082975},{"NoteNumber":80,"Velocity":80,"Duration":372648,"SoundDuration":372648,"Delta":40082975},{"NoteNumber":47,"Velocity":48,"Duration":92385,"SoundDuration":92385,"Delta":40082975},{"NoteNumber":51,"Velocity":48,"Duration":92385,"SoundDuration":92385,"Delta":40176137},{"NoteNumber":47,"Velocity":56,"Duration":92385,"SoundDuration":92385,"Delta":40269299},{"NoteNumber":51,"Velocity":47,"Duration":92385,"SoundDuration":92385,"Delta":40362461},{"NoteNumber":68,"Velocity":69,"Duration":90804,"SoundDuration":90804,"Delta":40455623},{"NoteNumber":80,"Velocity":82,"Duration":90804,"SoundDuration":90804,"Delta":40455623},{"NoteNumber":47,"Velocity":50,"Duration":90047,"SoundDuration":90047,"Delta":40455623},{"NoteNumber":51,"Velocity":45,"Duration":105938,"SoundDuration":105938,"Delta":40546428},{"NoteNumber":75,"Velocity":72,"Duration":90804,"SoundDuration":90804,"Delta":40637232},{"NoteNumber":87,"Velocity":85,"Duration":90804,"SoundDuration":90804,"Delta":40637232},{"NoteNumber":47,"Velocity":57,"Duration":105938,"SoundDuration":105938,"Delta":40637232},{"NoteNumber":51,"Velocity":49,"Duration":105938,"SoundDuration":105938,"Delta":40728037},{"NoteNumber":80,"Velocity":86,"Duration":90804,"SoundDuration":90804,"Delta":40818841},{"NoteNumber":68,"Velocity":73,"Duration":90804,"SoundDuration":90804,"Delta":40818841},{"NoteNumber":47,"Velocity":51,"Duration":105938,"SoundDuration":105938,"Delta":40818841},{"NoteNumber":51,"Velocity":47,"Duration":105938,"SoundDuration":105938,"Delta":40909646},{"NoteNumber":71,"Velocity":73,"Duration":90804,"SoundDuration":90804,"Delta":41000450},{"NoteNumber":83,"Velocity":86,"Duration":90804,"SoundDuration":90804,"Delta":41000450},{"NoteNumber":43,"Velocity":59,"Duration":105938,"SoundDuration":105938,"Delta":41000450},{"NoteNumber":51,"Velocity":53,"Duration":106181,"SoundDuration":106181,"Delta":41091255},{"NoteNumber":82,"Velocity":89,"Duration":369048,"SoundDuration":369048,"Delta":41182059},{"NoteNumber":70,"Velocity":74,"Duration":369048,"SoundDuration":369048,"Delta":41182059},{"NoteNumber":43,"Velocity":56,"Duration":91493,"SoundDuration":91493,"Delta":41182059},{"NoteNumber":51,"Velocity":56,"Duration":91493,"SoundDuration":91493,"Delta":41274322},{"NoteNumber":43,"Velocity":60,"Duration":91493,"SoundDuration":91493,"Delta":41366584},{"NoteNumber":51,"Velocity":52,"Duration":91493,"SoundDuration":91493,"Delta":41458846},{"NoteNumber":70,"Velocity":79,"Duration":369049,"SoundDuration":369049,"Delta":41551108},{"NoteNumber":82,"Velocity":93,"Duration":369049,"SoundDuration":369049,"Delta":41551108},{"NoteNumber":43,"Velocity":57,"Duration":91493,"SoundDuration":91493,"Delta":41551108},{"NoteNumber":51,"Velocity":52,"Duration":91493,"SoundDuration":91493,"Delta":41643371},{"NoteNumber":43,"Velocity":62,"Duration":91493,"SoundDuration":91493,"Delta":41735633},{"NoteNumber":51,"Velocity":53,"Duration":91493,"SoundDuration":91493,"Delta":41827895},{"NoteNumber":82,"Velocity":93,"Duration":92262,"SoundDuration":92262,"Delta":41920157},{"NoteNumber":70,"Velocity":79,"Duration":92262,"SoundDuration":92262,"Delta":41920157},{"NoteNumber":43,"Velocity":59,"Duration":107639,"SoundDuration":107639,"Delta":41920157},{"NoteNumber":51,"Velocity":53,"Duration":107639,"SoundDuration":107639,"Delta":42012420},{"NoteNumber":87,"Velocity":93,"Duration":92262,"SoundDuration":92262,"Delta":42104682},{"NoteNumber":75,"Velocity":79,"Duration":92262,"SoundDuration":92262,"Delta":42104682},{"NoteNumber":43,"Velocity":62,"Duration":107639,"SoundDuration":107639,"Delta":42104682},{"NoteNumber":51,"Velocity":54,"Duration":107639,"SoundDuration":107639,"Delta":42196944},{"NoteNumber":82,"Velocity":93,"Duration":92262,"SoundDuration":92262,"Delta":42289206},{"NoteNumber":70,"Velocity":79,"Duration":92262,"SoundDuration":92262,"Delta":42289206},{"NoteNumber":43,"Velocity":60,"Duration":107639,"SoundDuration":107639,"Delta":42289206},{"NoteNumber":51,"Velocity":54,"Duration":107255,"SoundDuration":107255,"Delta":42381469},{"NoteNumber":72,"Velocity":80,"Duration":719684,"SoundDuration":719684,"Delta":42473731},{"NoteNumber":84,"Velocity":95,"Duration":719684,"SoundDuration":719684,"Delta":42473731},{"NoteNumber":42,"Velocity":66,"Duration":102704,"SoundDuration":102704,"Delta":42473731},{"NoteNumber":51,"Velocity":54,"Duration":102704,"SoundDuration":102704,"Delta":42563691},{"NoteNumber":44,"Velocity":61,"Duration":102704,"SoundDuration":102704,"Delta":42653652},{"NoteNumber":51,"Velocity":54,"Duration":102704,"SoundDuration":102704,"Delta":42743612},{"NoteNumber":42,"Velocity":66,"Duration":102704,"SoundDuration":102704,"Delta":42833573},{"NoteNumber":51,"Velocity":56,"Duration":102704,"SoundDuration":102704,"Delta":42923533},{"NoteNumber":44,"Velocity":61,"Duration":102704,"SoundDuration":102704,"Delta":43013494},{"NoteNumber":51,"Velocity":56,"Duration":102704,"SoundDuration":102704,"Delta":43103454},{"NoteNumber":85,"Velocity":95,"Duration":719684,"SoundDuration":719684,"Delta":43193415},{"NoteNumber":73,"Velocity":80,"Duration":719684,"SoundDuration":719684,"Delta":43193415},{"NoteNumber":40,"Velocity":66,"Duration":102704,"SoundDuration":102704,"Delta":43193415},{"NoteNumber":49,"Velocity":56,"Duration":102704,"SoundDuration":102704,"Delta":43283375},{"NoteNumber":44,"Velocity":62,"Duration":102704,"SoundDuration":102704,"Delta":43373336},{"NoteNumber":49,"Velocity":56,"Duration":102704,"SoundDuration":102704,"Delta":43463296},{"NoteNumber":40,"Velocity":66,"Duration":102704,"SoundDuration":102704,"Delta":43553257},{"NoteNumber":49,"Velocity":56,"Duration":102704,"SoundDuration":102704,"Delta":43643217},{"NoteNumber":44,"Velocity":61,"Duration":102704,"SoundDuration":102704,"Delta":43733178},{"NoteNumber":49,"Velocity":56,"Duration":103201,"SoundDuration":103201,"Delta":43823138},{"NoteNumber":82,"Velocity":80,"Duration":50626,"SoundDuration":50626,"Delta":43913099},{"NoteNumber":70,"Velocity":68,"Duration":373854,"SoundDuration":373854,"Delta":43913099},{"NoteNumber":40,"Velocity":66,"Duration":92684,"SoundDuration":92684,"Delta":43913099},{"NoteNumber":83,"Velocity":75,"Duration":49847,"SoundDuration":49847,"Delta":43963725},{"NoteNumber":49,"Velocity":56,"Duration":92684,"SoundDuration":92684,"Delta":44006563},{"NoteNumber":82,"Velocity":80,"Duration":50626,"SoundDuration":50626,"Delta":44013572},{"NoteNumber":83,"Velocity":80,"Duration":49847,"SoundDuration":49847,"Delta":44064199},{"NoteNumber":42,"Velocity":61,"Duration":92684,"SoundDuration":92684,"Delta":44100026},{"NoteNumber":82,"Velocity":80,"Duration":60751,"SoundDuration":60751,"Delta":44127287},{"NoteNumber":80,"Velocity":75,"Duration":59972,"SoundDuration":59972,"Delta":44183365},{"NoteNumber":49,"Velocity":56,"Duration":92684,"SoundDuration":92684,"Delta":44193490},{"NoteNumber":82,"Velocity":75,"Duration":52183,"SoundDuration":52183,"Delta":44234770},{"NoteNumber":83,"Velocity":95,"Duration":1079526,"SoundDuration":1079526,"Delta":44286954},{"NoteNumber":71,"Velocity":80,"Duration":1079526,"SoundDuration":1079526,"Delta":44286954},{"NoteNumber":39,"Velocity":66,"Duration":102704,"SoundDuration":102704,"Delta":44286954},{"NoteNumber":47,"Velocity":57,"Duration":102704,"SoundDuration":102704,"Delta":44376914},{"NoteNumber":42,"Velocity":62,"Duration":102704,"SoundDuration":102704,"Delta":44466875},{"NoteNumber":47,"Velocity":57,"Duration":102704,"SoundDuration":102704,"Delta":44556835},{"NoteNumber":39,"Velocity":66,"Duration":102704,"SoundDuration":102704,"Delta":44646796},{"NoteNumber":47,"Velocity":56,"Duration":102704,"SoundDuration":102704,"Delta":44736756},{"NoteNumber":42,"Velocity":61,"Duration":102704,"SoundDuration":102704,"Delta":44826717},{"NoteNumber":47,"Velocity":56,"Duration":102704,"SoundDuration":102704,"Delta":44916677},{"NoteNumber":39,"Velocity":66,"Duration":102704,"SoundDuration":102704,"Delta":45006638},{"NoteNumber":47,"Velocity":56,"Duration":102704,"SoundDuration":102704,"Delta":45096598},{"NoteNumber":42,"Velocity":60,"Duration":102704,"SoundDuration":102704,"Delta":45186559},{"NoteNumber":47,"Velocity":56,"Duration":102947,"SoundDuration":102947,"Delta":45276519},{"NoteNumber":80,"Velocity":95,"Duration":733406,"SoundDuration":733406,"Delta":45366480},{"NoteNumber":68,"Velocity":80,"Duration":733406,"SoundDuration":733406,"Delta":45366480},{"NoteNumber":38,"Velocity":66,"Duration":106955,"SoundDuration":106955,"Delta":45366480},{"NoteNumber":47,"Velocity":58,"Duration":106955,"SoundDuration":106955,"Delta":45458156},{"NoteNumber":40,"Velocity":62,"Duration":106955,"SoundDuration":106955,"Delta":45549831},{"NoteNumber":47,"Velocity":58,"Duration":106955,"SoundDuration":106955,"Delta":45641507},{"NoteNumber":38,"Velocity":66,"Duration":106955,"SoundDuration":106955,"Delta":45733183},{"NoteNumber":47,"Velocity":58,"Duration":106955,"SoundDuration":106955,"Delta":45824859},{"NoteNumber":40,"Velocity":62,"Duration":106955,"SoundDuration":106955,"Delta":45916534},{"NoteNumber":47,"Velocity":57,"Duration":106858,"SoundDuration":106858,"Delta":46008210},{"NoteNumber":69,"Velocity":80,"Duration":728774,"SoundDuration":728774,"Delta":46099886},{"NoteNumber":81,"Velocity":94,"Duration":728774,"SoundDuration":728774,"Delta":46099886},{"NoteNumber":37,"Velocity":66,"Duration":90337,"SoundDuration":90337,"Delta":46099886},{"NoteNumber":45,"Velocity":57,"Duration":90337,"SoundDuration":90337,"Delta":46190983},{"NoteNumber":40,"Velocity":62,"Duration":90337,"SoundDuration":90337,"Delta":46282079},{"NoteNumber":45,"Velocity":56,"Duration":90337,"SoundDuration":90337,"Delta":46373176},{"NoteNumber":37,"Velocity":66,"Duration":90337,"SoundDuration":90337,"Delta":46464273},{"NoteNumber":45,"Velocity":57,"Duration":90337,"SoundDuration":90337,"Delta":46555370},{"NoteNumber":40,"Velocity":62,"Duration":90337,"SoundDuration":90337,"Delta":46646466},{"NoteNumber":45,"Velocity":57,"Duration":90337,"SoundDuration":90337,"Delta":46737563},{"NoteNumber":67,"Velocity":68,"Duration":370232,"SoundDuration":370232,"Delta":46828660},{"NoteNumber":79,"Velocity":80,"Duration":50135,"SoundDuration":50135,"Delta":46828660},{"NoteNumber":37,"Velocity":66,"Duration":91786,"SoundDuration":91786,"Delta":46828660},{"NoteNumber":80,"Velocity":75,"Duration":50135,"SoundDuration":50135,"Delta":46878796},{"NoteNumber":46,"Velocity":56,"Duration":91786,"SoundDuration":91786,"Delta":46921218},{"NoteNumber":79,"Velocity":80,"Duration":50135,"SoundDuration":50135,"Delta":46928160},{"NoteNumber":80,"Velocity":80,"Duration":50135,"SoundDuration":50135,"Delta":46978296},{"NoteNumber":39,"Velocity":60,"Duration":91786,"SoundDuration":91786,"Delta":47013776},{"NoteNumber":79,"Velocity":80,"Duration":60162,"SoundDuration":60162,"Delta":47040773},{"NoteNumber":77,"Velocity":75,"Duration":60162,"SoundDuration":60162,"Delta":47096308},{"NoteNumber":46,"Velocity":56,"Duration":91786,"SoundDuration":91786,"Delta":47106335},{"NoteNumber":79,"Velocity":75,"Duration":51678,"SoundDuration":51678,"Delta":47147215},{"NoteNumber":68,"Velocity":80,"Duration":1079526,"SoundDuration":1079526,"Delta":47198893},{"NoteNumber":80,"Velocity":95,"Duration":1079526,"SoundDuration":1079526,"Delta":47198893},{"NoteNumber":35,"Velocity":66,"Duration":102704,"SoundDuration":102704,"Delta":47198893},{"NoteNumber":44,"Velocity":57,"Duration":102704,"SoundDuration":102704,"Delta":47288853},{"NoteNumber":39,"Velocity":61,"Duration":102704,"SoundDuration":102704,"Delta":47378814},{"NoteNumber":44,"Velocity":57,"Duration":102704,"SoundDuration":102704,"Delta":47468774},{"NoteNumber":35,"Velocity":66,"Duration":102704,"SoundDuration":102704,"Delta":47558735},{"NoteNumber":44,"Velocity":56,"Duration":102704,"SoundDuration":102704,"Delta":47648695},{"NoteNumber":39,"Velocity":61,"Duration":102704,"SoundDuration":102704,"Delta":47738656},{"NoteNumber":44,"Velocity":57,"Duration":102704,"SoundDuration":102704,"Delta":47828616},{"NoteNumber":35,"Velocity":66,"Duration":102704,"SoundDuration":102704,"Delta":47918577},{"NoteNumber":44,"Velocity":56,"Duration":102704,"SoundDuration":102704,"Delta":48008537},{"NoteNumber":39,"Velocity":61,"Duration":102704,"SoundDuration":102704,"Delta":48098498},{"NoteNumber":44,"Velocity":58,"Duration":102704,"SoundDuration":102704,"Delta":48188458},{"NoteNumber":76,"Velocity":100,"Duration":809644,"SoundDuration":809644,"Delta":48278419},{"NoteNumber":69,"Velocity":83,"Duration":809644,"SoundDuration":809644,"Delta":48278419},{"NoteNumber":73,"Velocity":83,"Duration":809644,"SoundDuration":809644,"Delta":48278419},{"NoteNumber":81,"Velocity":100,"Duration":809644,"SoundDuration":809644,"Delta":48278419},{"NoteNumber":45,"Velocity":75,"Duration":1079526,"SoundDuration":1079526,"Delta":48278419},{"NoteNumber":40,"Velocity":64,"Duration":1079526,"SoundDuration":1079526,"Delta":48278419},{"NoteNumber":49,"Velocity":75,"Duration":1079526,"SoundDuration":1079526,"Delta":48278419},{"NoteNumber":37,"Velocity":64,"Duration":1079526,"SoundDuration":1079526,"Delta":48278419},{"NoteNumber":76,"Velocity":47,"Duration":89960,"SoundDuration":89960,"Delta":49088063},{"NoteNumber":78,"Velocity":47,"Duration":89960,"SoundDuration":89960,"Delta":49178024},{"NoteNumber":80,"Velocity":48,"Duration":89960,"SoundDuration":89960,"Delta":49267984},{"NoteNumber":81,"Velocity":49,"Duration":89960,"SoundDuration":89960,"Delta":49357945},{"NoteNumber":83,"Velocity":50,"Duration":89960,"SoundDuration":89960,"Delta":49447905},{"NoteNumber":85,"Velocity":51,"Duration":89960,"SoundDuration":89960,"Delta":49537866},{"NoteNumber":83,"Velocity":51,"Duration":89960,"SoundDuration":89960,"Delta":49627826},{"NoteNumber":81,"Velocity":49,"Duration":89960,"SoundDuration":89960,"Delta":49717787},{"NoteNumber":64,"Velocity":42,"Duration":359841,"SoundDuration":359841,"Delta":49717787},{"NoteNumber":61,"Velocity":42,"Duration":359841,"SoundDuration":359841,"Delta":49717787},{"NoteNumber":69,"Velocity":50,"Duration":356843,"SoundDuration":356843,"Delta":49717787},{"NoteNumber":76,"Velocity":47,"Duration":89960,"SoundDuration":89960,"Delta":49807747},{"NoteNumber":78,"Velocity":47,"Duration":89960,"SoundDuration":89960,"Delta":49897708},{"NoteNumber":80,"Velocity":47,"Duration":89960,"SoundDuration":89960,"Delta":49987668},{"NoteNumber":81,"Velocity":48,"Duration":89960,"SoundDuration":89960,"Delta":50077629},{"NoteNumber":83,"Velocity":49,"Duration":89960,"SoundDuration":89960,"Delta":50167589},{"NoteNumber":85,"Velocity":50,"Duration":89960,"SoundDuration":89960,"Delta":50257550},{"NoteNumber":83,"Velocity":48,"Duration":89960,"SoundDuration":89960,"Delta":50347510},{"NoteNumber":81,"Velocity":48,"Duration":89960,"SoundDuration":89960,"Delta":50437471},{"NoteNumber":64,"Velocity":41,"Duration":359842,"SoundDuration":359842,"Delta":50437471},{"NoteNumber":61,"Velocity":41,"Duration":359842,"SoundDuration":359842,"Delta":50437471},{"NoteNumber":69,"Velocity":49,"Duration":359842,"SoundDuration":359842,"Delta":50437471},{"NoteNumber":76,"Velocity":47,"Duration":89960,"SoundDuration":89960,"Delta":50527431},{"NoteNumber":78,"Velocity":48,"Duration":89960,"SoundDuration":89960,"Delta":50617392},{"NoteNumber":80,"Velocity":49,"Duration":89960,"SoundDuration":89960,"Delta":50707352},{"NoteNumber":81,"Velocity":50,"Duration":89960,"SoundDuration":89960,"Delta":50797313},{"NoteNumber":83,"Velocity":51,"Duration":89960,"SoundDuration":89960,"Delta":50887273},{"NoteNumber":85,"Velocity":51,"Duration":89960,"SoundDuration":89960,"Delta":50977234},{"NoteNumber":83,"Velocity":49,"Duration":89960,"SoundDuration":89960,"Delta":51067194},{"NoteNumber":81,"Velocity":47,"Duration":89960,"SoundDuration":89960,"Delta":51157155},{"NoteNumber":64,"Velocity":41,"Duration":359842,"SoundDuration":359842,"Delta":51157155},{"NoteNumber":61,"Velocity":41,"Duration":359842,"SoundDuration":359842,"Delta":51157155},{"NoteNumber":69,"Velocity":49,"Duration":359842,"SoundDuration":359842,"Delta":51157155},{"NoteNumber":76,"Velocity":48,"Duration":89960,"SoundDuration":89960,"Delta":51247115},{"NoteNumber":78,"Velocity":51,"Duration":89960,"SoundDuration":89960,"Delta":51337076},{"NoteNumber":80,"Velocity":51,"Duration":89960,"SoundDuration":89960,"Delta":51427036},{"NoteNumber":81,"Velocity":54,"Duration":89960,"SoundDuration":89960,"Delta":51516997},{"NoteNumber":64,"Velocity":44,"Duration":359842,"SoundDuration":359842,"Delta":51516997},{"NoteNumber":61,"Velocity":44,"Duration":359842,"SoundDuration":359842,"Delta":51516997},{"NoteNumber":69,"Velocity":52,"Duration":359842,"SoundDuration":359842,"Delta":51516997},{"NoteNumber":83,"Velocity":56,"Duration":89960,"SoundDuration":89960,"Delta":51606957},{"NoteNumber":85,"Velocity":57,"Duration":89960,"SoundDuration":89960,"Delta":51696918},{"NoteNumber":86,"Velocity":60,"Duration":89960,"SoundDuration":89960,"Delta":51786878},{"NoteNumber":88,"Velocity":61,"Duration":89960,"SoundDuration":89960,"Delta":51876839},{"NoteNumber":69,"Velocity":60,"Duration":359842,"SoundDuration":359842,"Delta":51876839},{"NoteNumber":64,"Velocity":51,"Duration":359842,"SoundDuration":359842,"Delta":51876839},{"NoteNumber":61,"Velocity":51,"Duration":359842,"SoundDuration":359842,"Delta":51876839},{"NoteNumber":87,"Velocity":59,"Duration":89960,"SoundDuration":89960,"Delta":51966799},{"NoteNumber":88,"Velocity":57,"Duration":89960,"SoundDuration":89960,"Delta":52056760},{"NoteNumber":87,"Velocity":56,"Duration":89960,"SoundDuration":89960,"Delta":52146720},{"NoteNumber":88,"Velocity":54,"Duration":89960,"SoundDuration":89960,"Delta":52236681},{"NoteNumber":69,"Velocity":56,"Duration":359842,"SoundDuration":359842,"Delta":52236681},{"NoteNumber":64,"Velocity":47,"Duration":359842,"SoundDuration":359842,"Delta":52236681},{"NoteNumber":61,"Velocity":47,"Duration":359842,"SoundDuration":359842,"Delta":52236681},{"NoteNumber":85,"Velocity":52,"Duration":89960,"SoundDuration":89960,"Delta":52326641},{"NoteNumber":83,"Velocity":51,"Duration":89960,"SoundDuration":89960,"Delta":52416602},{"NoteNumber":81,"Velocity":50,"Duration":89960,"SoundDuration":89960,"Delta":52506562},{"NoteNumber":80,"Velocity":48,"Duration":719684,"SoundDuration":719684,"Delta":52596523},{"NoteNumber":63,"Velocity":49,"Duration":89210,"SoundDuration":89210,"Delta":52596523},{"NoteNumber":71,"Velocity":44,"Duration":89210,"SoundDuration":89210,"Delta":52686483},{"NoteNumber":68,"Velocity":47,"Duration":89210,"SoundDuration":89210,"Delta":52776444},{"NoteNumber":71,"Velocity":44,"Duration":89210,"SoundDuration":89210,"Delta":52866404},{"NoteNumber":63,"Velocity":51,"Duration":89210,"SoundDuration":89210,"Delta":52956365},{"NoteNumber":71,"Velocity":43,"Duration":89210,"SoundDuration":89210,"Delta":53046325},{"NoteNumber":68,"Velocity":47,"Duration":89210,"SoundDuration":89210,"Delta":53136286},{"NoteNumber":71,"Velocity":43,"Duration":89210,"SoundDuration":89210,"Delta":53226246},{"NoteNumber":82,"Velocity":50,"Duration":60731,"SoundDuration":60731,"Delta":53316207},{"NoteNumber":63,"Velocity":51,"Duration":90337,"SoundDuration":90337,"Delta":53316207},{"NoteNumber":83,"Velocity":50,"Duration":60731,"SoundDuration":60731,"Delta":53376938},{"NoteNumber":73,"Velocity":45,"Duration":90337,"SoundDuration":90337,"Delta":53407304},{"NoteNumber":82,"Velocity":50,"Duration":56935,"SoundDuration":56935,"Delta":53437669},{"NoteNumber":83,"Velocity":50,"Duration":56935,"SoundDuration":56935,"Delta":53494605},{"NoteNumber":67,"Velocity":47,"Duration":90337,"SoundDuration":90337,"Delta":53498400},{"NoteNumber":82,"Velocity":50,"Duration":56935,"SoundDuration":56935,"Delta":53551540},{"NoteNumber":73,"Velocity":43,"Duration":90337,"SoundDuration":90337,"Delta":53589497},{"NoteNumber":83,"Velocity":50,"Duration":56935,"SoundDuration":56935,"Delta":53608476},{"NoteNumber":82,"Velocity":48,"Duration":53139,"SoundDuration":53139,"Delta":53665411},{"NoteNumber":63,"Velocity":51,"Duration":90337,"SoundDuration":90337,"Delta":53680594},{"NoteNumber":83,"Velocity":48,"Duration":53139,"SoundDuration":53139,"Delta":53718551},{"NoteNumber":82,"Velocity":49,"Duration":45548,"SoundDuration":45548,"Delta":53771691},{"NoteNumber":73,"Velocity":43,"Duration":90337,"SoundDuration":90337,"Delta":53771691},{"NoteNumber":83,"Velocity":50,"Duration":45548,"SoundDuration":45548,"Delta":53817239},{"NoteNumber":82,"Velocity":51,"Duration":45548,"SoundDuration":45548,"Delta":53862787},{"NoteNumber":67,"Velocity":47,"Duration":90337,"SoundDuration":90337,"Delta":53862787},{"NoteNumber":83,"Velocity":51,"Duration":45548,"SoundDuration":45548,"Delta":53908336},{"NoteNumber":82,"Velocity":51,"Duration":45548,"SoundDuration":45548,"Delta":53953884},{"NoteNumber":73,"Velocity":43,"Duration":90337,"SoundDuration":90337,"Delta":53953884},{"NoteNumber":83,"Velocity":52,"Duration":45548,"SoundDuration":45548,"Delta":53999433},{"NoteNumber":80,"Velocity":56,"Duration":216450,"SoundDuration":216450,"Delta":54044981},{"NoteNumber":68,"Velocity":56,"Duration":216450,"SoundDuration":216450,"Delta":54044981},{"NoteNumber":64,"Velocity":56,"Duration":216450,"SoundDuration":216450,"Delta":54044981},{"NoteNumber":71,"Velocity":56,"Duration":216450,"SoundDuration":216450,"Delta":54044981},{"NoteNumber":64,"Velocity":87,"Duration":449802,"SoundDuration":449802,"Delta":54477881},{"NoteNumber":57,"Velocity":73,"Duration":449802,"SoundDuration":449802,"Delta":54477881},{"NoteNumber":61,"Velocity":87,"Duration":449802,"SoundDuration":449802,"Delta":54477881},{"NoteNumber":69,"Velocity":87,"Duration":449802,"SoundDuration":449802,"Delta":54477881},{"NoteNumber":40,"Velocity":62,"Duration":719684,"SoundDuration":719684,"Delta":54477881},{"NoteNumber":45,"Velocity":73,"Duration":719684,"SoundDuration":719684,"Delta":54477881},{"NoteNumber":49,"Velocity":73,"Duration":719684,"SoundDuration":719684,"Delta":54477881},{"NoteNumber":37,"Velocity":62,"Duration":719684,"SoundDuration":719684,"Delta":54477881},{"NoteNumber":64,"Velocity":50,"Duration":89960,"SoundDuration":89960,"Delta":54927683},{"NoteNumber":66,"Velocity":50,"Duration":89960,"SoundDuration":89960,"Delta":55017644},{"NoteNumber":68,"Velocity":50,"Duration":89960,"SoundDuration":89960,"Delta":55107604},{"NoteNumber":69,"Velocity":48,"Duration":89960,"SoundDuration":89960,"Delta":55197565},{"NoteNumber":71,"Velocity":47,"Duration":89960,"SoundDuration":89960,"Delta":55287525},{"NoteNumber":73,"Velocity":49,"Duration":89960,"SoundDuration":89960,"Delta":55377486},{"NoteNumber":71,"Velocity":48,"Duration":89960,"SoundDuration":89960,"Delta":55467446},{"NoteNumber":69,"Velocity":47,"Duration":89960,"SoundDuration":89960,"Delta":55557407},{"NoteNumber":64,"Velocity":47,"Duration":89960,"SoundDuration":89960,"Delta":55647367},{"NoteNumber":66,"Velocity":48,"Duration":89960,"SoundDuration":89960,"Delta":55737328},{"NoteNumber":68,"Velocity":49,"Duration":89960,"SoundDuration":89960,"Delta":55827288},{"NoteNumber":69,"Velocity":51,"Duration":89960,"SoundDuration":89960,"Delta":55917249},{"NoteNumber":52,"Velocity":41,"Duration":359842,"SoundDuration":359842,"Delta":55917249},{"NoteNumber":49,"Velocity":41,"Duration":359842,"SoundDuration":359842,"Delta":55917249},{"NoteNumber":57,"Velocity":49,"Duration":359842,"SoundDuration":359842,"Delta":55917249},{"NoteNumber":71,"Velocity":51,"Duration":89960,"SoundDuration":89960,"Delta":56007209},{"NoteNumber":73,"Velocity":49,"Duration":89960,"SoundDuration":89960,"Delta":56097170},{"NoteNumber":71,"Velocity":48,"Duration":89960,"SoundDuration":89960,"Delta":56187130},{"NoteNumber":69,"Velocity":48,"Duration":89960,"SoundDuration":89960,"Delta":56277091},{"NoteNumber":64,"Velocity":48,"Duration":89960,"SoundDuration":89960,"Delta":56367051},{"NoteNumber":66,"Velocity":48,"Duration":89960,"SoundDuration":89960,"Delta":56457012},{"NoteNumber":68,"Velocity":50,"Duration":89960,"SoundDuration":89960,"Delta":56546972},{"NoteNumber":69,"Velocity":50,"Duration":89960,"SoundDuration":89960,"Delta":56636933},{"NoteNumber":52,"Velocity":41,"Duration":359842,"SoundDuration":359842,"Delta":56636933},{"NoteNumber":49,"Velocity":41,"Duration":359842,"SoundDuration":359842,"Delta":56636933},{"NoteNumber":57,"Velocity":49,"Duration":359842,"SoundDuration":359842,"Delta":56636933},{"NoteNumber":71,"Velocity":50,"Duration":89960,"SoundDuration":89960,"Delta":56726893},{"NoteNumber":73,"Velocity":50,"Duration":89960,"SoundDuration":89960,"Delta":56816854},{"NoteNumber":71,"Velocity":50,"Duration":89960,"SoundDuration":89960,"Delta":56906814},{"NoteNumber":69,"Velocity":49,"Duration":89960,"SoundDuration":89960,"Delta":56996775},{"NoteNumber":64,"Velocity":50,"Duration":89960,"SoundDuration":89960,"Delta":57086735},{"NoteNumber":66,"Velocity":51,"Duration":89960,"SoundDuration":89960,"Delta":57176696},{"NoteNumber":57,"Velocity":51,"Duration":179920,"SoundDuration":179920,"Delta":57176696},{"NoteNumber":49,"Velocity":43,"Duration":179920,"SoundDuration":179920,"Delta":57176696},{"NoteNumber":52,"Velocity":43,"Duration":179920,"SoundDuration":179920,"Delta":57176696},{"NoteNumber":68,"Velocity":51,"Duration":89960,"SoundDuration":89960,"Delta":57266656},{"NoteNumber":69,"Velocity":52,"Duration":89960,"SoundDuration":89960,"Delta":57356617},{"NoteNumber":71,"Velocity":53,"Duration":89960,"SoundDuration":89960,"Delta":57446577},{"NoteNumber":73,"Velocity":56,"Duration":89960,"SoundDuration":89960,"Delta":57536538},{"NoteNumber":57,"Velocity":61,"Duration":179920,"SoundDuration":179920,"Delta":57536538},{"NoteNumber":49,"Velocity":51,"Duration":179920,"SoundDuration":179920,"Delta":57536538},{"NoteNumber":52,"Velocity":51,"Duration":179920,"SoundDuration":179920,"Delta":57536538},{"NoteNumber":71,"Velocity":56,"Duration":89960,"SoundDuration":89960,"Delta":57626498},{"NoteNumber":69,"Velocity":57,"Duration":89960,"SoundDuration":89960,"Delta":57716459},{"NoteNumber":64,"Velocity":58,"Duration":89960,"SoundDuration":89960,"Delta":57806419},{"NoteNumber":66,"Velocity":59,"Duration":89960,"SoundDuration":89960,"Delta":57896380},{"NoteNumber":57,"Velocity":68,"Duration":179921,"SoundDuration":179921,"Delta":57896380},{"NoteNumber":52,"Velocity":57,"Duration":179921,"SoundDuration":179921,"Delta":57896380},{"NoteNumber":49,"Velocity":57,"Duration":179921,"SoundDuration":179921,"Delta":57896380},{"NoteNumber":68,"Velocity":60,"Duration":89960,"SoundDuration":89960,"Delta":57986340},{"NoteNumber":69,"Velocity":62,"Duration":89960,"SoundDuration":89960,"Delta":58076301},{"NoteNumber":71,"Velocity":62,"Duration":89960,"SoundDuration":89960,"Delta":58166261},{"NoteNumber":73,"Velocity":62,"Duration":89960,"SoundDuration":89960,"Delta":58256222},{"NoteNumber":57,"Velocity":68,"Duration":179921,"SoundDuration":179921,"Delta":58256222},{"NoteNumber":52,"Velocity":57,"Duration":179921,"SoundDuration":179921,"Delta":58256222},{"NoteNumber":49,"Velocity":57,"Duration":179921,"SoundDuration":179921,"Delta":58256222},{"NoteNumber":71,"Velocity":63,"Duration":89960,"SoundDuration":89960,"Delta":58346182},{"NoteNumber":69,"Velocity":66,"Duration":89960,"SoundDuration":89960,"Delta":58436143},{"NoteNumber":52,"Velocity":56,"Duration":359842,"SoundDuration":359842,"Delta":58436143},{"NoteNumber":57,"Velocity":67,"Duration":359842,"SoundDuration":359842,"Delta":58436143},{"NoteNumber":49,"Velocity":56,"Duration":359842,"SoundDuration":359842,"Delta":58436143},{"NoteNumber":64,"Velocity":67,"Duration":89960,"SoundDuration":89960,"Delta":58526103},{"NoteNumber":66,"Velocity":68,"Duration":89960,"SoundDuration":89960,"Delta":58616064},{"NoteNumber":68,"Velocity":68,"Duration":89960,"SoundDuration":89960,"Delta":58706024},{"NoteNumber":69,"Velocity":70,"Duration":89960,"SoundDuration":89960,"Delta":58795985},{"NoteNumber":71,"Velocity":71,"Duration":89960,"SoundDuration":89960,"Delta":58885945},{"NoteNumber":73,"Velocity":72,"Duration":89960,"SoundDuration":89960,"Delta":58975906},{"NoteNumber":74,"Velocity":73,"Duration":89960,"SoundDuration":89960,"Delta":59065866},{"NoteNumber":76,"Velocity":74,"Duration":89960,"SoundDuration":89960,"Delta":59155827},{"NoteNumber":78,"Velocity":75,"Duration":89960,"SoundDuration":89960,"Delta":59245787},{"NoteNumber":80,"Velocity":76,"Duration":89960,"SoundDuration":89960,"Delta":59335748},{"NoteNumber":81,"Velocity":77,"Duration":89960,"SoundDuration":89960,"Delta":59425708},{"NoteNumber":83,"Velocity":79,"Duration":89960,"SoundDuration":89960,"Delta":59515669},{"NoteNumber":85,"Velocity":79,"Duration":89960,"SoundDuration":89960,"Delta":59605629},{"NoteNumber":86,"Velocity":79,"Duration":89960,"SoundDuration":89960,"Delta":59695590},{"NoteNumber":87,"Velocity":80,"Duration":89960,"SoundDuration":89960,"Delta":59785550},{"NoteNumber":76,"Velocity":84,"Duration":719684,"SoundDuration":719684,"Delta":59875511},{"NoteNumber":88,"Velocity":84,"Duration":719684,"SoundDuration":719684,"Delta":59875511},{"NoteNumber":49,"Velocity":70,"Duration":89210,"SoundDuration":89210,"Delta":59875511},{"NoteNumber":57,"Velocity":61,"Duration":89210,"SoundDuration":89210,"Delta":59965471},{"NoteNumber":52,"Velocity":66,"Duration":89210,"SoundDuration":89210,"Delta":60055432},{"NoteNumber":57,"Velocity":62,"Duration":89210,"SoundDuration":89210,"Delta":60145392},{"NoteNumber":49,"Velocity":70,"Duration":89210,"SoundDuration":89210,"Delta":60235353},{"NoteNumber":57,"Velocity":61,"Duration":89210,"SoundDuration":89210,"Delta":60325313},{"NoteNumber":52,"Velocity":65,"Duration":89210,"SoundDuration":89210,"Delta":60415274},{"NoteNumber":57,"Velocity":61,"Duration":89210,"SoundDuration":89210,"Delta":60505234},{"NoteNumber":68,"Velocity":84,"Duration":719684,"SoundDuration":719684,"Delta":60595195},{"NoteNumber":80,"Velocity":84,"Duration":719684,"SoundDuration":719684,"Delta":60595195},{"NoteNumber":50,"Velocity":70,"Duration":89210,"SoundDuration":89210,"Delta":60595195},{"NoteNumber":59,"Velocity":61,"Duration":89210,"SoundDuration":89210,"Delta":60685155},{"NoteNumber":53,"Velocity":66,"Duration":89210,"SoundDuration":89210,"Delta":60775116},{"NoteNumber":59,"Velocity":62,"Duration":89210,"SoundDuration":89210,"Delta":60865076},{"NoteNumber":50,"Velocity":70,"Duration":89210,"SoundDuration":89210,"Delta":60955037},{"NoteNumber":59,"Velocity":61,"Duration":89210,"SoundDuration":89210,"Delta":61044997},{"NoteNumber":53,"Velocity":63,"Duration":89210,"SoundDuration":89210,"Delta":61134958},{"NoteNumber":59,"Velocity":61,"Duration":89210,"SoundDuration":89210,"Delta":61224918},{"NoteNumber":71,"Velocity":84,"Duration":719684,"SoundDuration":719684,"Delta":61314879},{"NoteNumber":83,"Velocity":84,"Duration":719684,"SoundDuration":719684,"Delta":61314879},{"NoteNumber":51,"Velocity":70,"Duration":89210,"SoundDuration":89210,"Delta":61314879},{"NoteNumber":59,"Velocity":61,"Duration":89210,"SoundDuration":89210,"Delta":61404839},{"NoteNumber":56,"Velocity":66,"Duration":89210,"SoundDuration":89210,"Delta":61494800},{"NoteNumber":59,"Velocity":66,"Duration":89210,"SoundDuration":89210,"Delta":61584760},{"NoteNumber":51,"Velocity":70,"Duration":89210,"SoundDuration":89210,"Delta":61674721},{"NoteNumber":59,"Velocity":62,"Duration":89210,"SoundDuration":89210,"Delta":61764681},{"NoteNumber":56,"Velocity":66,"Duration":89210,"SoundDuration":89210,"Delta":61854642},{"NoteNumber":59,"Velocity":62,"Duration":89210,"SoundDuration":89210,"Delta":61944602},{"NoteNumber":55,"Velocity":71,"Duration":728774,"SoundDuration":728774,"Delta":62034563},{"NoteNumber":61,"Velocity":71,"Duration":728774,"SoundDuration":728774,"Delta":62034563},{"NoteNumber":67,"Velocity":84,"Duration":728774,"SoundDuration":728774,"Delta":62034563},{"NoteNumber":39,"Velocity":70,"Duration":90337,"SoundDuration":90337,"Delta":62034563},{"NoteNumber":51,"Velocity":62,"Duration":90337,"SoundDuration":90337,"Delta":62125660},{"NoteNumber":50,"Velocity":67,"Duration":90337,"SoundDuration":90337,"Delta":62216756},{"NoteNumber":51,"Velocity":62,"Duration":90337,"SoundDuration":90337,"Delta":62307853},{"NoteNumber":50,"Velocity":70,"Duration":90337,"SoundDuration":90337,"Delta":62398950},{"NoteNumber":51,"Velocity":62,"Duration":90337,"SoundDuration":90337,"Delta":62490047},{"NoteNumber":50,"Velocity":67,"Duration":90337,"SoundDuration":90337,"Delta":62581143},{"NoteNumber":51,"Velocity":61,"Duration":77432,"SoundDuration":77432,"Delta":62672240},{"NoteNumber":63,"Velocity":84,"Duration":179921,"SoundDuration":179921,"Delta":62763337},{"NoteNumber":68,"Velocity":84,"Duration":179921,"SoundDuration":179921,"Delta":62763337},{"NoteNumber":59,"Velocity":84,"Duration":179921,"SoundDuration":179921,"Delta":62763337},{"NoteNumber":44,"Velocity":71,"Duration":179921,"SoundDuration":179921,"Delta":62763337},{"NoteNumber":63,"Velocity":51,"Duration":92861,"SoundDuration":92861,"Delta":62943258},{"NoteNumber":71,"Velocity":51,"Duration":92861,"SoundDuration":92861,"Delta":62943258},{"NoteNumber":63,"Velocity":51,"Duration":92861,"SoundDuration":92861,"Delta":63128982},{"NoteNumber":71,"Velocity":51,"Duration":92861,"SoundDuration":92861,"Delta":63128982},{"NoteNumber":56,"Velocity":43,"Duration":92861,"SoundDuration":92861,"Delta":63128982},{"NoteNumber":63,"Velocity":51,"Duration":92861,"SoundDuration":92861,"Delta":63314706},{"NoteNumber":71,"Velocity":51,"Duration":92861,"SoundDuration":92861,"Delta":63314706},{"NoteNumber":56,"Velocity":43,"Duration":92861,"SoundDuration":92861,"Delta":63314706},{"NoteNumber":63,"Velocity":51,"Duration":92558,"SoundDuration":92558,"Delta":63500227},{"NoteNumber":71,"Velocity":51,"Duration":92558,"SoundDuration":92558,"Delta":63500227},{"NoteNumber":56,"Velocity":43,"Duration":92558,"SoundDuration":92558,"Delta":63500227},{"NoteNumber":63,"Velocity":51,"Duration":92558,"SoundDuration":92558,"Delta":63685344},{"NoteNumber":71,"Velocity":51,"Duration":92558,"SoundDuration":92558,"Delta":63685344},{"NoteNumber":56,"Velocity":43,"Duration":92558,"SoundDuration":92558,"Delta":63685344},{"NoteNumber":70,"Velocity":49,"Duration":92360,"SoundDuration":92360,"Delta":63870460},{"NoteNumber":63,"Velocity":49,"Duration":92360,"SoundDuration":92360,"Delta":63870460},{"NoteNumber":58,"Velocity":42,"Duration":92360,"SoundDuration":92360,"Delta":63870460},{"NoteNumber":63,"Velocity":48,"Duration":92262,"SoundDuration":92262,"Delta":64055084},{"NoteNumber":68,"Velocity":48,"Duration":92262,"SoundDuration":92262,"Delta":64055084},{"NoteNumber":59,"Velocity":42,"Duration":92262,"SoundDuration":92262,"Delta":64055084},{"NoteNumber":63,"Velocity":59,"Duration":184328,"SoundDuration":184328,"Delta":64239608},{"NoteNumber":67,"Velocity":59,"Duration":184328,"SoundDuration":184328,"Delta":64239608},{"NoteNumber":51,"Velocity":47,"Duration":184328,"SoundDuration":184328,"Delta":64239608},{"NoteNumber":61,"Velocity":47,"Duration":184328,"SoundDuration":184328,"Delta":64239608},{"NoteNumber":75,"Velocity":49,"Duration":90804,"SoundDuration":90804,"Delta":64423936},{"NoteNumber":67,"Velocity":49,"Duration":90804,"SoundDuration":90804,"Delta":64423936},{"NoteNumber":63,"Velocity":42,"Duration":90804,"SoundDuration":90804,"Delta":64423936},{"NoteNumber":61,"Velocity":42,"Duration":90804,"SoundDuration":90804,"Delta":64423936},{"NoteNumber":67,"Velocity":49,"Duration":90804,"SoundDuration":90804,"Delta":64605545},{"NoteNumber":75,"Velocity":49,"Duration":90804,"SoundDuration":90804,"Delta":64605545},{"NoteNumber":61,"Velocity":41,"Duration":90804,"SoundDuration":90804,"Delta":64605545},{"NoteNumber":63,"Velocity":41,"Duration":90804,"SoundDuration":90804,"Delta":64605545},{"NoteNumber":67,"Velocity":50,"Duration":90804,"SoundDuration":90804,"Delta":64787154},{"NoteNumber":75,"Velocity":50,"Duration":90804,"SoundDuration":90804,"Delta":64787154},{"NoteNumber":61,"Velocity":41,"Duration":90804,"SoundDuration":90804,"Delta":64787154},{"NoteNumber":63,"Velocity":41,"Duration":90804,"SoundDuration":90804,"Delta":64787154},{"NoteNumber":67,"Velocity":51,"Duration":90804,"SoundDuration":90804,"Delta":64968763},{"NoteNumber":75,"Velocity":51,"Duration":90804,"SoundDuration":90804,"Delta":64968763},{"NoteNumber":63,"Velocity":41,"Duration":90804,"SoundDuration":90804,"Delta":64968763},{"NoteNumber":61,"Velocity":41,"Duration":90804,"SoundDuration":90804,"Delta":64968763},{"NoteNumber":75,"Velocity":51,"Duration":90804,"SoundDuration":90804,"Delta":65150372},{"NoteNumber":67,"Velocity":51,"Duration":90804,"SoundDuration":90804,"Delta":65150372},{"NoteNumber":61,"Velocity":41,"Duration":90804,"SoundDuration":90804,"Delta":65150372},{"NoteNumber":63,"Velocity":41,"Duration":90804,"SoundDuration":90804,"Delta":65150372},{"NoteNumber":75,"Velocity":51,"Duration":90804,"SoundDuration":90804,"Delta":65331981},{"NoteNumber":68,"Velocity":51,"Duration":90804,"SoundDuration":90804,"Delta":65331981},{"NoteNumber":63,"Velocity":41,"Duration":90804,"SoundDuration":90804,"Delta":65331981},{"NoteNumber":59,"Velocity":41,"Duration":90804,"SoundDuration":90804,"Delta":65331981},{"NoteNumber":70,"Velocity":50,"Duration":90804,"SoundDuration":90804,"Delta":65513590},{"NoteNumber":75,"Velocity":50,"Duration":90804,"SoundDuration":90804,"Delta":65513590},{"NoteNumber":58,"Velocity":40,"Duration":90804,"SoundDuration":90804,"Delta":65513590},{"NoteNumber":63,"Velocity":40,"Duration":90804,"SoundDuration":90804,"Delta":65513590},{"NoteNumber":71,"Velocity":58,"Duration":181608,"SoundDuration":181608,"Delta":65695199},{"NoteNumber":75,"Velocity":58,"Duration":181608,"SoundDuration":181608,"Delta":65695199},{"NoteNumber":56,"Velocity":47,"Duration":181608,"SoundDuration":181608,"Delta":65695199},{"NoteNumber":44,"Velocity":47,"Duration":181608,"SoundDuration":181608,"Delta":65695199},{"NoteNumber":71,"Velocity":50,"Duration":93162,"SoundDuration":93162,"Delta":65876808},{"NoteNumber":63,"Velocity":50,"Duration":93162,"SoundDuration":93162,"Delta":65876808},{"NoteNumber":56,"Velocity":42,"Duration":93162,"SoundDuration":93162,"Delta":65876808},{"NoteNumber":71,"Velocity":50,"Duration":93162,"SoundDuration":93162,"Delta":66063132},{"NoteNumber":63,"Velocity":50,"Duration":93162,"SoundDuration":93162,"Delta":66063132},{"NoteNumber":56,"Velocity":42,"Duration":93162,"SoundDuration":93162,"Delta":66063132},{"NoteNumber":63,"Velocity":50,"Duration":92861,"SoundDuration":92861,"Delta":66249456},{"NoteNumber":71,"Velocity":50,"Duration":92861,"SoundDuration":92861,"Delta":66249456},{"NoteNumber":56,"Velocity":42,"Duration":92861,"SoundDuration":92861,"Delta":66249456},{"NoteNumber":71,"Velocity":50,"Duration":92862,"SoundDuration":92862,"Delta":66435180},{"NoteNumber":63,"Velocity":50,"Duration":92862,"SoundDuration":92862,"Delta":66435180},{"NoteNumber":56,"Velocity":43,"Duration":92862,"SoundDuration":92862,"Delta":66435180},{"NoteNumber":71,"Velocity":50,"Duration":92558,"SoundDuration":92558,"Delta":66620803},{"NoteNumber":63,"Velocity":50,"Duration":92558,"SoundDuration":92558,"Delta":66620803},{"NoteNumber":56,"Velocity":42,"Duration":92558,"SoundDuration":92558,"Delta":66620803},{"NoteNumber":70,"Velocity":50,"Duration":92558,"SoundDuration":92558,"Delta":66805920},{"NoteNumber":63,"Velocity":50,"Duration":92558,"SoundDuration":92558,"Delta":66805920},{"NoteNumber":58,"Velocity":43,"Duration":92558,"SoundDuration":92558,"Delta":66805920},{"NoteNumber":63,"Velocity":48,"Duration":92262,"SoundDuration":92262,"Delta":66990839},{"NoteNumber":68,"Velocity":48,"Duration":92262,"SoundDuration":92262,"Delta":66990839},{"NoteNumber":59,"Velocity":43,"Duration":92262,"SoundDuration":92262,"Delta":66990839},{"NoteNumber":63,"Velocity":58,"Duration":184230,"SoundDuration":184230,"Delta":67175363},{"NoteNumber":67,"Velocity":58,"Duration":184230,"SoundDuration":184230,"Delta":67175363},{"NoteNumber":61,"Velocity":47,"Duration":184230,"SoundDuration":184230,"Delta":67175363},{"NoteNumber":51,"Velocity":47,"Duration":184230,"SoundDuration":184230,"Delta":67175363},{"NoteNumber":75,"Velocity":49,"Duration":90804,"SoundDuration":90804,"Delta":67359594},{"NoteNumber":67,"Velocity":49,"Duration":90804,"SoundDuration":90804,"Delta":67359594},{"NoteNumber":61,"Velocity":41,"Duration":90804,"SoundDuration":90804,"Delta":67359594},{"NoteNumber":63,"Velocity":41,"Duration":90804,"SoundDuration":90804,"Delta":67359594},{"NoteNumber":67,"Velocity":49,"Duration":90804,"SoundDuration":90804,"Delta":67541203},{"NoteNumber":75,"Velocity":49,"Duration":90804,"SoundDuration":90804,"Delta":67541203},{"NoteNumber":61,"Velocity":43,"Duration":90804,"SoundDuration":90804,"Delta":67541203},{"NoteNumber":63,"Velocity":43,"Duration":90804,"SoundDuration":90804,"Delta":67541203},{"NoteNumber":67,"Velocity":51,"Duration":90804,"SoundDuration":90804,"Delta":67722812},{"NoteNumber":75,"Velocity":51,"Duration":90804,"SoundDuration":90804,"Delta":67722812},{"NoteNumber":63,"Velocity":42,"Duration":90804,"SoundDuration":90804,"Delta":67722812},{"NoteNumber":61,"Velocity":42,"Duration":90804,"SoundDuration":90804,"Delta":67722812},{"NoteNumber":67,"Velocity":49,"Duration":90804,"SoundDuration":90804,"Delta":67904421},{"NoteNumber":75,"Velocity":49,"Duration":90804,"SoundDuration":90804,"Delta":67904421},{"NoteNumber":61,"Velocity":42,"Duration":90804,"SoundDuration":90804,"Delta":67904421},{"NoteNumber":63,"Velocity":42,"Duration":90804,"SoundDuration":90804,"Delta":67904421},{"NoteNumber":75,"Velocity":49,"Duration":90804,"SoundDuration":90804,"Delta":68086030},{"NoteNumber":67,"Velocity":49,"Duration":90804,"SoundDuration":90804,"Delta":68086030},{"NoteNumber":63,"Velocity":42,"Duration":90804,"SoundDuration":90804,"Delta":68086030},{"NoteNumber":61,"Velocity":42,"Duration":90804,"SoundDuration":90804,"Delta":68086030},{"NoteNumber":68,"Velocity":50,"Duration":90804,"SoundDuration":90804,"Delta":68267639},{"NoteNumber":75,"Velocity":50,"Duration":90804,"SoundDuration":90804,"Delta":68267639},{"NoteNumber":59,"Velocity":42,"Duration":90804,"SoundDuration":90804,"Delta":68267639},{"NoteNumber":63,"Velocity":42,"Duration":90804,"SoundDuration":90804,"Delta":68267639},{"NoteNumber":70,"Velocity":51,"Duration":90804,"SoundDuration":90804,"Delta":68449248},{"NoteNumber":75,"Velocity":51,"Duration":90804,"SoundDuration":90804,"Delta":68449248},{"NoteNumber":63,"Velocity":42,"Duration":90804,"SoundDuration":90804,"Delta":68449248},{"NoteNumber":58,"Velocity":42,"Duration":90804,"SoundDuration":90804,"Delta":68449248},{"NoteNumber":71,"Velocity":56,"Duration":93463,"SoundDuration":93463,"Delta":68630857},{"NoteNumber":75,"Velocity":56,"Duration":93463,"SoundDuration":93463,"Delta":68630857},{"NoteNumber":44,"Velocity":48,"Duration":93463,"SoundDuration":93463,"Delta":68630857},{"NoteNumber":75,"Velocity":50,"Duration":89960,"SoundDuration":89960,"Delta":68817784},{"NoteNumber":71,"Velocity":50,"Duration":89960,"SoundDuration":89960,"Delta":68817784},{"NoteNumber":59,"Velocity":39,"Duration":89960,"SoundDuration":89960,"Delta":68817784},{"NoteNumber":56,"Velocity":39,"Duration":89960,"SoundDuration":89960,"Delta":68817784},{"NoteNumber":75,"Velocity":50,"Duration":179921,"SoundDuration":179921,"Delta":68997705},{"NoteNumber":71,"Velocity":50,"Duration":179921,"SoundDuration":179921,"Delta":68997705},{"NoteNumber":56,"Velocity":39,"Duration":179921,"SoundDuration":179921,"Delta":68997705},{"NoteNumber":59,"Velocity":39,"Duration":179921,"SoundDuration":179921,"Delta":68997705},{"NoteNumber":68,"Velocity":47,"Duration":179920,"SoundDuration":179920,"Delta":69177626},{"NoteNumber":71,"Velocity":47,"Duration":179920,"SoundDuration":179920,"Delta":69177626},{"NoteNumber":63,"Velocity":39,"Duration":179920,"SoundDuration":179920,"Delta":69177626},{"NoteNumber":59,"Velocity":39,"Duration":179920,"SoundDuration":179920,"Delta":69177626},{"NoteNumber":49,"Velocity":47,"Duration":91675,"SoundDuration":91675,"Delta":69357547},{"NoteNumber":76,"Velocity":50,"Duration":89960,"SoundDuration":89960,"Delta":69540899},{"NoteNumber":73,"Velocity":50,"Duration":89960,"SoundDuration":89960,"Delta":69540899},{"NoteNumber":61,"Velocity":43,"Duration":89960,"SoundDuration":89960,"Delta":69540899},{"NoteNumber":56,"Velocity":43,"Duration":89960,"SoundDuration":89960,"Delta":69540899},{"NoteNumber":73,"Velocity":50,"Duration":179921,"SoundDuration":179921,"Delta":69720820},{"NoteNumber":76,"Velocity":50,"Duration":179921,"SoundDuration":179921,"Delta":69720820},{"NoteNumber":61,"Velocity":43,"Duration":179921,"SoundDuration":179921,"Delta":69720820},{"NoteNumber":56,"Velocity":43,"Duration":179921,"SoundDuration":179921,"Delta":69720820},{"NoteNumber":73,"Velocity":48,"Duration":179920,"SoundDuration":179920,"Delta":69900741},{"NoteNumber":68,"Velocity":48,"Duration":179920,"SoundDuration":179920,"Delta":69900741},{"NoteNumber":64,"Velocity":40,"Duration":179920,"SoundDuration":179920,"Delta":69900741},{"NoteNumber":61,"Velocity":40,"Duration":179920,"SoundDuration":179920,"Delta":69900741},{"NoteNumber":51,"Velocity":47,"Duration":93463,"SoundDuration":93463,"Delta":70080662},{"NoteNumber":75,"Velocity":47,"Duration":89960,"SoundDuration":89960,"Delta":70267589},{"NoteNumber":71,"Velocity":47,"Duration":89960,"SoundDuration":89960,"Delta":70267589},{"NoteNumber":56,"Velocity":41,"Duration":89960,"SoundDuration":89960,"Delta":70267589},{"NoteNumber":59,"Velocity":41,"Duration":89960,"SoundDuration":89960,"Delta":70267589},{"NoteNumber":71,"Velocity":47,"Duration":179921,"SoundDuration":179921,"Delta":70447510},{"NoteNumber":75,"Velocity":47,"Duration":179921,"SoundDuration":179921,"Delta":70447510},{"NoteNumber":59,"Velocity":42,"Duration":179921,"SoundDuration":179921,"Delta":70447510},{"NoteNumber":56,"Velocity":42,"Duration":179921,"SoundDuration":179921,"Delta":70447510},{"NoteNumber":71,"Velocity":44,"Duration":179920,"SoundDuration":179920,"Delta":70627431},{"NoteNumber":68,"Velocity":44,"Duration":179920,"SoundDuration":179920,"Delta":70627431},{"NoteNumber":63,"Velocity":39,"Duration":179920,"SoundDuration":179920,"Delta":70627431},{"NoteNumber":59,"Velocity":39,"Duration":179920,"SoundDuration":179920,"Delta":70627431},{"NoteNumber":51,"Velocity":47,"Duration":95316,"SoundDuration":95316,"Delta":70807352},{"NoteNumber":70,"Velocity":49,"Duration":89960,"SoundDuration":89960,"Delta":70997986},{"NoteNumber":75,"Velocity":49,"Duration":89960,"SoundDuration":89960,"Delta":70997986},{"NoteNumber":58,"Velocity":39,"Duration":89960,"SoundDuration":89960,"Delta":70997986},{"NoteNumber":55,"Velocity":39,"Duration":89960,"SoundDuration":89960,"Delta":70997986},{"NoteNumber":70,"Velocity":47,"Duration":179921,"SoundDuration":179921,"Delta":71177907},{"NoteNumber":75,"Velocity":47,"Duration":179921,"SoundDuration":179921,"Delta":71177907},{"NoteNumber":58,"Velocity":39,"Duration":179921,"SoundDuration":179921,"Delta":71177907},{"NoteNumber":55,"Velocity":39,"Duration":179921,"SoundDuration":179921,"Delta":71177907},{"NoteNumber":70,"Velocity":45,"Duration":179920,"SoundDuration":179920,"Delta":71357828},{"NoteNumber":67,"Velocity":45,"Duration":179920,"SoundDuration":179920,"Delta":71357828},{"NoteNumber":58,"Velocity":39,"Duration":179920,"SoundDuration":179920,"Delta":71357828},{"NoteNumber":63,"Velocity":39,"Duration":179920,"SoundDuration":179920,"Delta":71357828},{"NoteNumber":71,"Velocity":49,"Duration":179920,"SoundDuration":179920,"Delta":71537749},{"NoteNumber":68,"Velocity":49,"Duration":179920,"SoundDuration":179920,"Delta":71537749},{"NoteNumber":32,"Velocity":42,"Duration":179920,"SoundDuration":179920,"Delta":71537749},{"NoteNumber":44,"Velocity":42,"Duration":179920,"SoundDuration":179920,"Delta":71537749},{"NoteNumber":71,"Velocity":43,"Duration":91967,"SoundDuration":91967,"Delta":71717670},{"NoteNumber":75,"Velocity":51,"Duration":91967,"SoundDuration":91967,"Delta":71717670},{"NoteNumber":83,"Velocity":51,"Duration":91967,"SoundDuration":91967,"Delta":71717670},{"NoteNumber":51,"Velocity":41,"Duration":91967,"SoundDuration":91967,"Delta":71717670},{"NoteNumber":44,"Velocity":41,"Duration":91967,"SoundDuration":91967,"Delta":71717670},{"NoteNumber":75,"Velocity":56,"Duration":91967,"SoundDuration":91967,"Delta":71901606},{"NoteNumber":71,"Velocity":47,"Duration":91967,"SoundDuration":91967,"Delta":71901606},{"NoteNumber":83,"Velocity":56,"Duration":91967,"SoundDuration":91967,"Delta":71901606},{"NoteNumber":44,"Velocity":43,"Duration":91967,"SoundDuration":91967,"Delta":71901606},{"NoteNumber":51,"Velocity":43,"Duration":91967,"SoundDuration":91967,"Delta":71901606},{"NoteNumber":83,"Velocity":58,"Duration":91675,"SoundDuration":91675,"Delta":72085444},{"NoteNumber":75,"Velocity":58,"Duration":91675,"SoundDuration":91675,"Delta":72085444},{"NoteNumber":71,"Velocity":49,"Duration":91675,"SoundDuration":91675,"Delta":72085444},{"NoteNumber":51,"Velocity":47,"Duration":91675,"SoundDuration":91675,"Delta":72085444},{"NoteNumber":44,"Velocity":47,"Duration":91675,"SoundDuration":91675,"Delta":72085444},{"NoteNumber":71,"Velocity":52,"Duration":91675,"SoundDuration":91675,"Delta":72268796},{"NoteNumber":75,"Velocity":62,"Duration":91675,"SoundDuration":91675,"Delta":72268796},{"NoteNumber":83,"Velocity":62,"Duration":91675,"SoundDuration":91675,"Delta":72268796},{"NoteNumber":44,"Velocity":50,"Duration":91675,"SoundDuration":91675,"Delta":72268796},{"NoteNumber":51,"Velocity":50,"Duration":91675,"SoundDuration":91675,"Delta":72268796},{"NoteNumber":71,"Velocity":56,"Duration":91385,"SoundDuration":91385,"Delta":72451857},{"NoteNumber":75,"Velocity":66,"Duration":91385,"SoundDuration":91385,"Delta":72451857},{"NoteNumber":83,"Velocity":66,"Duration":91385,"SoundDuration":91385,"Delta":72451857},{"NoteNumber":51,"Velocity":52,"Duration":91385,"SoundDuration":91385,"Delta":72451857},{"NoteNumber":44,"Velocity":52,"Duration":91385,"SoundDuration":91385,"Delta":72451857},{"NoteNumber":82,"Velocity":68,"Duration":91289,"SoundDuration":91289,"Delta":72634628},{"NoteNumber":70,"Velocity":57,"Duration":91289,"SoundDuration":91289,"Delta":72634628},{"NoteNumber":73,"Velocity":68,"Duration":91289,"SoundDuration":91289,"Delta":72634628},{"NoteNumber":51,"Velocity":57,"Duration":91289,"SoundDuration":91289,"Delta":72634628},{"NoteNumber":46,"Velocity":57,"Duration":91289,"SoundDuration":91289,"Delta":72634628},{"NoteNumber":68,"Velocity":61,"Duration":91096,"SoundDuration":91096,"Delta":72817014},{"NoteNumber":71,"Velocity":72,"Duration":91096,"SoundDuration":91096,"Delta":72817014},{"NoteNumber":80,"Velocity":72,"Duration":91096,"SoundDuration":91096,"Delta":72817014},{"NoteNumber":51,"Velocity":59,"Duration":91096,"SoundDuration":91096,"Delta":72817014},{"NoteNumber":47,"Velocity":59,"Duration":91096,"SoundDuration":91096,"Delta":72817014},{"NoteNumber":67,"Velocity":63,"Duration":185723,"SoundDuration":185723,"Delta":72999207},{"NoteNumber":70,"Velocity":75,"Duration":185723,"SoundDuration":185723,"Delta":72999207},{"NoteNumber":79,"Velocity":75,"Duration":185723,"SoundDuration":185723,"Delta":72999207},{"NoteNumber":51,"Velocity":62,"Duration":185723,"SoundDuration":185723,"Delta":72999207},{"NoteNumber":49,"Velocity":62,"Duration":185723,"SoundDuration":185723,"Delta":72999207},{"NoteNumber":39,"Velocity":52,"Duration":185723,"SoundDuration":185723,"Delta":72999207},{"NoteNumber":79,"Velocity":76,"Duration":90804,"SoundDuration":90804,"Delta":73184931},{"NoteNumber":76,"Velocity":64,"Duration":90804,"SoundDuration":90804,"Delta":73184931},{"NoteNumber":88,"Velocity":76,"Duration":90804,"SoundDuration":90804,"Delta":73184931},{"NoteNumber":51,"Velocity":62,"Duration":90804,"SoundDuration":90804,"Delta":73184931},{"NoteNumber":61,"Velocity":62,"Duration":90804,"SoundDuration":90804,"Delta":73184931},{"NoteNumber":79,"Velocity":82,"Duration":90804,"SoundDuration":90804,"Delta":73366540},{"NoteNumber":88,"Velocity":82,"Duration":90804,"SoundDuration":90804,"Delta":73366540},{"NoteNumber":76,"Velocity":69,"Duration":90804,"SoundDuration":90804,"Delta":73366540},{"NoteNumber":51,"Velocity":67,"Duration":90804,"SoundDuration":90804,"Delta":73366540},{"NoteNumber":61,"Velocity":67,"Duration":90804,"SoundDuration":90804,"Delta":73366540},{"NoteNumber":76,"Velocity":67,"Duration":90804,"SoundDuration":90804,"Delta":73548149},{"NoteNumber":88,"Velocity":79,"Duration":90804,"SoundDuration":90804,"Delta":73548149},{"NoteNumber":79,"Velocity":79,"Duration":90804,"SoundDuration":90804,"Delta":73548149},{"NoteNumber":61,"Velocity":63,"Duration":90804,"SoundDuration":90804,"Delta":73548149},{"NoteNumber":51,"Velocity":63,"Duration":90804,"SoundDuration":90804,"Delta":73548149},{"NoteNumber":88,"Velocity":82,"Duration":90804,"SoundDuration":90804,"Delta":73729758},{"NoteNumber":79,"Velocity":82,"Duration":90804,"SoundDuration":90804,"Delta":73729758},{"NoteNumber":76,"Velocity":69,"Duration":90804,"SoundDuration":90804,"Delta":73729758},{"NoteNumber":51,"Velocity":66,"Duration":90804,"SoundDuration":90804,"Delta":73729758},{"NoteNumber":61,"Velocity":66,"Duration":90804,"SoundDuration":90804,"Delta":73729758},{"NoteNumber":88,"Velocity":78,"Duration":90804,"SoundDuration":90804,"Delta":73911367},{"NoteNumber":79,"Velocity":78,"Duration":90804,"SoundDuration":90804,"Delta":73911367},{"NoteNumber":76,"Velocity":66,"Duration":90804,"SoundDuration":90804,"Delta":73911367},{"NoteNumber":61,"Velocity":62,"Duration":90804,"SoundDuration":90804,"Delta":73911367},{"NoteNumber":51,"Velocity":62,"Duration":90804,"SoundDuration":90804,"Delta":73911367},{"NoteNumber":79,"Velocity":80,"Duration":92879,"SoundDuration":92879,"Delta":74092976},{"NoteNumber":75,"Velocity":68,"Duration":92879,"SoundDuration":92879,"Delta":74092976},{"NoteNumber":87,"Velocity":80,"Duration":92879,"SoundDuration":92879,"Delta":74092976},{"NoteNumber":59,"Velocity":67,"Duration":92879,"SoundDuration":92879,"Delta":74092976},{"NoteNumber":51,"Velocity":67,"Duration":92879,"SoundDuration":92879,"Delta":74092976},{"NoteNumber":79,"Velocity":78,"Duration":92879,"SoundDuration":92879,"Delta":74278735},{"NoteNumber":73,"Velocity":66,"Duration":92879,"SoundDuration":92879,"Delta":74278735},{"NoteNumber":85,"Velocity":78,"Duration":92879,"SoundDuration":92879,"Delta":74278735},{"NoteNumber":58,"Velocity":63,"Duration":92879,"SoundDuration":92879,"Delta":74278735},{"NoteNumber":51,"Velocity":63,"Duration":92879,"SoundDuration":92879,"Delta":74278735},{"NoteNumber":71,"Velocity":69,"Duration":190476,"SoundDuration":190476,"Delta":74464493},{"NoteNumber":80,"Velocity":82,"Duration":190476,"SoundDuration":190476,"Delta":74464493},{"NoteNumber":83,"Velocity":82,"Duration":190476,"SoundDuration":190476,"Delta":74464493},{"NoteNumber":32,"Velocity":69,"Duration":190476,"SoundDuration":190476,"Delta":74464493},{"NoteNumber":44,"Velocity":69,"Duration":190476,"SoundDuration":190476,"Delta":74464493},{"NoteNumber":71,"Velocity":41,"Duration":91675,"SoundDuration":91675,"Delta":74654970},{"NoteNumber":75,"Velocity":49,"Duration":91675,"SoundDuration":91675,"Delta":74654970},{"NoteNumber":83,"Velocity":49,"Duration":91675,"SoundDuration":91675,"Delta":74654970},{"NoteNumber":51,"Velocity":41,"Duration":91675,"SoundDuration":91675,"Delta":74654970},{"NoteNumber":44,"Velocity":41,"Duration":91675,"SoundDuration":91675,"Delta":74654970},{"NoteNumber":75,"Velocity":52,"Duration":91675,"SoundDuration":91675,"Delta":74838321},{"NoteNumber":83,"Velocity":52,"Duration":91675,"SoundDuration":91675,"Delta":74838321},{"NoteNumber":71,"Velocity":44,"Duration":91675,"SoundDuration":91675,"Delta":74838321},{"NoteNumber":51,"Velocity":44,"Duration":91675,"SoundDuration":91675,"Delta":74838321},{"NoteNumber":44,"Velocity":44,"Duration":91675,"SoundDuration":91675,"Delta":74838321},{"NoteNumber":71,"Velocity":48,"Duration":91385,"SoundDuration":91385,"Delta":75021479},{"NoteNumber":75,"Velocity":57,"Duration":91385,"SoundDuration":91385,"Delta":75021479},{"NoteNumber":83,"Velocity":57,"Duration":91385,"SoundDuration":91385,"Delta":75021479},{"NoteNumber":44,"Velocity":48,"Duration":91385,"SoundDuration":91385,"Delta":75021479},{"NoteNumber":51,"Velocity":48,"Duration":91385,"SoundDuration":91385,"Delta":75021479},{"NoteNumber":75,"Velocity":61,"Duration":91385,"SoundDuration":91385,"Delta":75204250},{"NoteNumber":83,"Velocity":61,"Duration":91385,"SoundDuration":91385,"Delta":75204250},{"NoteNumber":71,"Velocity":51,"Duration":91385,"SoundDuration":91385,"Delta":75204250},{"NoteNumber":51,"Velocity":51,"Duration":91385,"SoundDuration":91385,"Delta":75204250},{"NoteNumber":44,"Velocity":51,"Duration":91385,"SoundDuration":91385,"Delta":75204250},{"NoteNumber":83,"Velocity":66,"Duration":91096,"SoundDuration":91096,"Delta":75386733},{"NoteNumber":71,"Velocity":56,"Duration":91096,"SoundDuration":91096,"Delta":75386733},{"NoteNumber":75,"Velocity":66,"Duration":91096,"SoundDuration":91096,"Delta":75386733},{"NoteNumber":51,"Velocity":56,"Duration":91096,"SoundDuration":91096,"Delta":75386733},{"NoteNumber":44,"Velocity":56,"Duration":91096,"SoundDuration":91096,"Delta":75386733},{"NoteNumber":70,"Velocity":58,"Duration":90999,"SoundDuration":90999,"Delta":75568926},{"NoteNumber":82,"Velocity":69,"Duration":90999,"SoundDuration":90999,"Delta":75568926},{"NoteNumber":73,"Velocity":69,"Duration":90999,"SoundDuration":90999,"Delta":75568926},{"NoteNumber":46,"Velocity":58,"Duration":90999,"SoundDuration":90999,"Delta":75568926},{"NoteNumber":51,"Velocity":58,"Duration":90999,"SoundDuration":90999,"Delta":75568926},{"NoteNumber":68,"Velocity":62,"Duration":90804,"SoundDuration":90804,"Delta":75750730},{"NoteNumber":71,"Velocity":73,"Duration":90804,"SoundDuration":90804,"Delta":75750730},{"NoteNumber":80,"Velocity":73,"Duration":90804,"SoundDuration":90804,"Delta":75750730},{"NoteNumber":51,"Velocity":62,"Duration":90804,"SoundDuration":90804,"Delta":75750730},{"NoteNumber":47,"Velocity":62,"Duration":90804,"SoundDuration":90804,"Delta":75750730},{"NoteNumber":67,"Velocity":66,"Duration":180852,"SoundDuration":180852,"Delta":75932339},{"NoteNumber":70,"Velocity":78,"Duration":180852,"SoundDuration":180852,"Delta":75932339},{"NoteNumber":79,"Velocity":78,"Duration":180852,"SoundDuration":180852,"Delta":75932339},{"NoteNumber":39,"Velocity":66,"Duration":180852,"SoundDuration":180852,"Delta":75932339},{"NoteNumber":49,"Velocity":66,"Duration":180852,"SoundDuration":180852,"Delta":75932339},{"NoteNumber":51,"Velocity":66,"Duration":180852,"SoundDuration":180852,"Delta":75932339},{"NoteNumber":79,"Velocity":79,"Duration":89960,"SoundDuration":89960,"Delta":76113192},{"NoteNumber":88,"Velocity":79,"Duration":89960,"SoundDuration":89960,"Delta":76113192},{"NoteNumber":76,"Velocity":67,"Duration":89960,"SoundDuration":89960,"Delta":76113192},{"NoteNumber":51,"Velocity":63,"Duration":89960,"SoundDuration":89960,"Delta":76113192},{"NoteNumber":61,"Velocity":63,"Duration":89960,"SoundDuration":89960,"Delta":76113192},{"NoteNumber":79,"Velocity":81,"Duration":90519,"SoundDuration":90519,"Delta":76293394},{"NoteNumber":76,"Velocity":68,"Duration":90519,"SoundDuration":90519,"Delta":76293394},{"NoteNumber":88,"Velocity":81,"Duration":90519,"SoundDuration":90519,"Delta":76293394},{"NoteNumber":51,"Velocity":67,"Duration":90519,"SoundDuration":90519,"Delta":76293394},{"NoteNumber":61,"Velocity":67,"Duration":90519,"SoundDuration":90519,"Delta":76293394},{"NoteNumber":76,"Velocity":66,"Duration":91096,"SoundDuration":91096,"Delta":76474718},{"NoteNumber":88,"Velocity":78,"Duration":91096,"SoundDuration":91096,"Delta":76474718},{"NoteNumber":79,"Velocity":78,"Duration":91096,"SoundDuration":91096,"Delta":76474718},{"NoteNumber":61,"Velocity":62,"Duration":91096,"SoundDuration":91096,"Delta":76474718},{"NoteNumber":51,"Velocity":62,"Duration":91096,"SoundDuration":91096,"Delta":76474718},{"NoteNumber":79,"Velocity":82,"Duration":91675,"SoundDuration":91675,"Delta":76657200},{"NoteNumber":76,"Velocity":69,"Duration":91675,"SoundDuration":91675,"Delta":76657200},{"NoteNumber":88,"Velocity":82,"Duration":91675,"SoundDuration":91675,"Delta":76657200},{"NoteNumber":51,"Velocity":67,"Duration":91675,"SoundDuration":91675,"Delta":76657200},{"NoteNumber":61,"Velocity":67,"Duration":91675,"SoundDuration":91675,"Delta":76657200},{"NoteNumber":76,"Velocity":66,"Duration":92262,"SoundDuration":92262,"Delta":76840844},{"NoteNumber":88,"Velocity":78,"Duration":92262,"SoundDuration":92262,"Delta":76840844},{"NoteNumber":79,"Velocity":78,"Duration":92262,"SoundDuration":92262,"Delta":76840844},{"NoteNumber":61,"Velocity":63,"Duration":92262,"SoundDuration":92262,"Delta":76840844},{"NoteNumber":51,"Velocity":63,"Duration":92262,"SoundDuration":92262,"Delta":76840844},{"NoteNumber":87,"Velocity":79,"Duration":92861,"SoundDuration":92861,"Delta":77025664},{"NoteNumber":79,"Velocity":79,"Duration":92861,"SoundDuration":92861,"Delta":77025664},{"NoteNumber":75,"Velocity":67,"Duration":92861,"SoundDuration":92861,"Delta":77025664},{"NoteNumber":59,"Velocity":67,"Duration":92861,"SoundDuration":92861,"Delta":77025664},{"NoteNumber":51,"Velocity":67,"Duration":92861,"SoundDuration":92861,"Delta":77025664},{"NoteNumber":85,"Velocity":79,"Duration":93463,"SoundDuration":93463,"Delta":77211688},{"NoteNumber":73,"Velocity":67,"Duration":93463,"SoundDuration":93463,"Delta":77211688},{"NoteNumber":79,"Velocity":79,"Duration":93463,"SoundDuration":93463,"Delta":77211688},{"NoteNumber":58,"Velocity":67,"Duration":93463,"SoundDuration":93463,"Delta":77211688},{"NoteNumber":51,"Velocity":67,"Duration":93463,"SoundDuration":93463,"Delta":77211688},{"NoteNumber":80,"Velocity":82,"Duration":188558,"SoundDuration":188558,"Delta":77398914},{"NoteNumber":83,"Velocity":82,"Duration":188558,"SoundDuration":188558,"Delta":77398914},{"NoteNumber":71,"Velocity":69,"Duration":188558,"SoundDuration":188558,"Delta":77398914},{"NoteNumber":44,"Velocity":69,"Duration":188558,"SoundDuration":188558,"Delta":77398914},{"NoteNumber":56,"Velocity":69,"Duration":188558,"SoundDuration":188558,"Delta":77398914},{"NoteNumber":83,"Velocity":50,"Duration":89960,"SoundDuration":89960,"Delta":77587472},{"NoteNumber":80,"Velocity":50,"Duration":89960,"SoundDuration":89960,"Delta":77587472},{"NoteNumber":59,"Velocity":43,"Duration":89960,"SoundDuration":89960,"Delta":77587472},{"NoteNumber":63,"Velocity":43,"Duration":89960,"SoundDuration":89960,"Delta":77587472},{"NoteNumber":83,"Velocity":50,"Duration":179921,"SoundDuration":179921,"Delta":77767393},{"NoteNumber":80,"Velocity":50,"Duration":179921,"SoundDuration":179921,"Delta":77767393},{"NoteNumber":59,"Velocity":41,"Duration":179921,"SoundDuration":179921,"Delta":77767393},{"NoteNumber":63,"Velocity":41,"Duration":179921,"SoundDuration":179921,"Delta":77767393},{"NoteNumber":87,"Velocity":48,"Duration":179920,"SoundDuration":179920,"Delta":77947314},{"NoteNumber":83,"Velocity":48,"Duration":179920,"SoundDuration":179920,"Delta":77947314},{"NoteNumber":56,"Velocity":39,"Duration":179920,"SoundDuration":179920,"Delta":77947314},{"NoteNumber":59,"Velocity":39,"Duration":179920,"SoundDuration":179920,"Delta":77947314},{"NoteNumber":49,"Velocity":48,"Duration":91967,"SoundDuration":91967,"Delta":78127235},{"NoteNumber":85,"Velocity":49,"Duration":89960,"SoundDuration":89960,"Delta":78311171},{"NoteNumber":80,"Velocity":49,"Duration":89960,"SoundDuration":89960,"Delta":78311171},{"NoteNumber":64,"Velocity":42,"Duration":89960,"SoundDuration":89960,"Delta":78311171},{"NoteNumber":61,"Velocity":42,"Duration":89960,"SoundDuration":89960,"Delta":78311171},{"NoteNumber":85,"Velocity":49,"Duration":179921,"SoundDuration":179921,"Delta":78491092},{"NoteNumber":80,"Velocity":49,"Duration":179921,"SoundDuration":179921,"Delta":78491092},{"NoteNumber":64,"Velocity":42,"Duration":179921,"SoundDuration":179921,"Delta":78491092},{"NoteNumber":61,"Velocity":42,"Duration":179921,"SoundDuration":179921,"Delta":78491092},{"NoteNumber":88,"Velocity":48,"Duration":179920,"SoundDuration":179920,"Delta":78671013},{"NoteNumber":85,"Velocity":48,"Duration":179920,"SoundDuration":179920,"Delta":78671013},{"NoteNumber":61,"Velocity":39,"Duration":179920,"SoundDuration":179920,"Delta":78671013},{"NoteNumber":56,"Velocity":39,"Duration":179920,"SoundDuration":179920,"Delta":78671013},{"NoteNumber":51,"Velocity":48,"Duration":93162,"SoundDuration":93162,"Delta":78850934},{"NoteNumber":80,"Velocity":49,"Duration":89960,"SoundDuration":89960,"Delta":79037258},{"NoteNumber":83,"Velocity":49,"Duration":89960,"SoundDuration":89960,"Delta":79037258},{"NoteNumber":59,"Velocity":42,"Duration":89960,"SoundDuration":89960,"Delta":79037258},{"NoteNumber":63,"Velocity":42,"Duration":89960,"SoundDuration":89960,"Delta":79037258},{"NoteNumber":83,"Velocity":49,"Duration":179921,"SoundDuration":179921,"Delta":79217179},{"NoteNumber":80,"Velocity":49,"Duration":179921,"SoundDuration":179921,"Delta":79217179},{"NoteNumber":59,"Velocity":42,"Duration":179921,"SoundDuration":179921,"Delta":79217179},{"NoteNumber":63,"Velocity":42,"Duration":179921,"SoundDuration":179921,"Delta":79217179},{"NoteNumber":87,"Velocity":48,"Duration":179920,"SoundDuration":179920,"Delta":79397100},{"NoteNumber":83,"Velocity":48,"Duration":179920,"SoundDuration":179920,"Delta":79397100},{"NoteNumber":56,"Velocity":39,"Duration":179920,"SoundDuration":179920,"Delta":79397100},{"NoteNumber":59,"Velocity":39,"Duration":179920,"SoundDuration":179920,"Delta":79397100},{"NoteNumber":49,"Velocity":49,"Duration":92558,"SoundDuration":92558,"Delta":79577021},{"NoteNumber":82,"Velocity":51,"Duration":89960,"SoundDuration":89960,"Delta":79762137},{"NoteNumber":79,"Velocity":51,"Duration":89960,"SoundDuration":89960,"Delta":79762137},{"NoteNumber":63,"Velocity":42,"Duration":89960,"SoundDuration":89960,"Delta":79762137},{"NoteNumber":58,"Velocity":42,"Duration":89960,"SoundDuration":89960,"Delta":79762137},{"NoteNumber":82,"Velocity":51,"Duration":179921,"SoundDuration":179921,"Delta":79942058},{"NoteNumber":79,"Velocity":51,"Duration":179921,"SoundDuration":179921,"Delta":79942058},{"NoteNumber":63,"Velocity":42,"Duration":179921,"SoundDuration":179921,"Delta":79942058},{"NoteNumber":58,"Velocity":42,"Duration":179921,"SoundDuration":179921,"Delta":79942058},{"NoteNumber":87,"Velocity":48,"Duration":179920,"SoundDuration":179920,"Delta":80121979},{"NoteNumber":82,"Velocity":48,"Duration":179920,"SoundDuration":179920,"Delta":80121979},{"NoteNumber":58,"Velocity":40,"Duration":179920,"SoundDuration":179920,"Delta":80121979},{"NoteNumber":55,"Velocity":40,"Duration":179920,"SoundDuration":179920,"Delta":80121979},{"NoteNumber":47,"Velocity":45,"Duration":181676,"SoundDuration":181676,"Delta":80301900},{"NoteNumber":75,"Velocity":56,"Duration":93465,"SoundDuration":93465,"Delta":80483577},{"NoteNumber":83,"Velocity":56,"Duration":93465,"SoundDuration":93465,"Delta":80483577},{"NoteNumber":68,"Velocity":39,"Duration":93465,"SoundDuration":93465,"Delta":80483577},{"NoteNumber":63,"Velocity":39,"Duration":93465,"SoundDuration":93465,"Delta":80483577},{"NoteNumber":83,"Velocity":51,"Duration":192476,"SoundDuration":192476,"Delta":80671529},{"NoteNumber":75,"Velocity":51,"Duration":192476,"SoundDuration":192476,"Delta":80671529},{"NoteNumber":63,"Velocity":41,"Duration":192476,"SoundDuration":192476,"Delta":80671529},{"NoteNumber":68,"Velocity":41,"Duration":192476,"SoundDuration":192476,"Delta":80671529},{"NoteNumber":80,"Velocity":51,"Duration":195030,"SoundDuration":195030,"Delta":80864005},{"NoteNumber":87,"Velocity":51,"Duration":195030,"SoundDuration":195030,"Delta":80864005},{"NoteNumber":63,"Velocity":41,"Duration":195030,"SoundDuration":195030,"Delta":80864005},{"NoteNumber":59,"Velocity":41,"Duration":195030,"SoundDuration":195030,"Delta":80864005},{"NoteNumber":49,"Velocity":50,"Duration":197222,"SoundDuration":197222,"Delta":81059035},{"NoteNumber":81,"Velocity":62,"Duration":100326,"SoundDuration":100326,"Delta":81256258},{"NoteNumber":73,"Velocity":62,"Duration":100326,"SoundDuration":100326,"Delta":81256258},{"NoteNumber":64,"Velocity":47,"Duration":100326,"SoundDuration":100326,"Delta":81256258},{"NoteNumber":69,"Velocity":47,"Duration":100326,"SoundDuration":100326,"Delta":81256258},{"NoteNumber":81,"Velocity":56,"Duration":204165,"SoundDuration":204165,"Delta":81458473},{"NoteNumber":73,"Velocity":56,"Duration":204165,"SoundDuration":204165,"Delta":81458473},{"NoteNumber":69,"Velocity":45,"Duration":204165,"SoundDuration":204165,"Delta":81458473},{"NoteNumber":64,"Velocity":45,"Duration":204165,"SoundDuration":204165,"Delta":81458473},{"NoteNumber":76,"Velocity":56,"Duration":204165,"SoundDuration":204165,"Delta":81662638},{"NoteNumber":85,"Velocity":56,"Duration":204165,"SoundDuration":204165,"Delta":81662638},{"NoteNumber":64,"Velocity":45,"Duration":204165,"SoundDuration":204165,"Delta":81662638},{"NoteNumber":61,"Velocity":45,"Duration":204165,"SoundDuration":204165,"Delta":81662638},{"NoteNumber":51,"Velocity":52,"Duration":208478,"SoundDuration":208478,"Delta":81866803},{"NoteNumber":80,"Velocity":57,"Duration":106561,"SoundDuration":106561,"Delta":82075282},{"NoteNumber":71,"Velocity":57,"Duration":106561,"SoundDuration":106561,"Delta":82075282},{"NoteNumber":68,"Velocity":48,"Duration":106561,"SoundDuration":106561,"Delta":82075282},{"NoteNumber":63,"Velocity":48,"Duration":106561,"SoundDuration":106561,"Delta":82075282},{"NoteNumber":80,"Velocity":57,"Duration":218762,"SoundDuration":218762,"Delta":82289255},{"NoteNumber":71,"Velocity":57,"Duration":218762,"SoundDuration":218762,"Delta":82289255},{"NoteNumber":63,"Velocity":48,"Duration":218762,"SoundDuration":218762,"Delta":82289255},{"NoteNumber":68,"Velocity":48,"Duration":218762,"SoundDuration":218762,"Delta":82289255},{"NoteNumber":75,"Velocity":51,"Duration":224745,"SoundDuration":224745,"Delta":82508018},{"NoteNumber":83,"Velocity":51,"Duration":224745,"SoundDuration":224745,"Delta":82508018},{"NoteNumber":63,"Velocity":45,"Duration":224745,"SoundDuration":224745,"Delta":82508018},{"NoteNumber":59,"Velocity":45,"Duration":224745,"SoundDuration":224745,"Delta":82508018},{"NoteNumber":51,"Velocity":51,"Duration":232483,"SoundDuration":232483,"Delta":82732764},{"NoteNumber":79,"Velocity":52,"Duration":117980,"SoundDuration":117980,"Delta":82965248},{"NoteNumber":70,"Velocity":52,"Duration":117980,"SoundDuration":117980,"Delta":82965248},{"NoteNumber":67,"Velocity":43,"Duration":117980,"SoundDuration":117980,"Delta":82965248},{"NoteNumber":61,"Velocity":43,"Duration":117980,"SoundDuration":117980,"Delta":82965248},{"NoteNumber":70,"Velocity":51,"Duration":236479,"SoundDuration":236479,"Delta":83201208},{"NoteNumber":79,"Velocity":51,"Duration":236479,"SoundDuration":236479,"Delta":83201208},{"NoteNumber":61,"Velocity":43,"Duration":236479,"SoundDuration":236479,"Delta":83201208},{"NoteNumber":67,"Velocity":43,"Duration":236479,"SoundDuration":236479,"Delta":83201208},{"NoteNumber":73,"Velocity":42,"Duration":237906,"SoundDuration":237906,"Delta":83437688},{"NoteNumber":82,"Velocity":42,"Duration":237906,"SoundDuration":237906,"Delta":83437688},{"NoteNumber":61,"Velocity":35,"Duration":237906,"SoundDuration":237906,"Delta":83437688},{"NoteNumber":58,"Velocity":35,"Duration":237906,"SoundDuration":237906,"Delta":83437688},{"NoteNumber":80,"Velocity":50,"Duration":397035,"SoundDuration":397035,"Delta":83675594},{"NoteNumber":71,"Velocity":50,"Duration":397035,"SoundDuration":397035,"Delta":83675594},{"NoteNumber":44,"Velocity":41,"Duration":98431,"SoundDuration":98431,"Delta":83675594},{"NoteNumber":56,"Velocity":33,"Duration":98431,"SoundDuration":98431,"Delta":83774853},{"NoteNumber":51,"Velocity":36,"Duration":98431,"SoundDuration":98431,"Delta":83874112},{"NoteNumber":56,"Velocity":32,"Duration":98431,"SoundDuration":98431,"Delta":83973370},{"NoteNumber":44,"Velocity":41,"Duration":98431,"SoundDuration":98431,"Delta":84072629},{"NoteNumber":56,"Velocity":33,"Duration":98431,"SoundDuration":98431,"Delta":84171888},{"NoteNumber":51,"Velocity":36,"Duration":98431,"SoundDuration":98431,"Delta":84271147},{"NoteNumber":56,"Velocity":33,"Duration":98431,"SoundDuration":98431,"Delta":84370405},{"NoteNumber":44,"Velocity":41,"Duration":98431,"SoundDuration":98431,"Delta":84469664},{"NoteNumber":56,"Velocity":33,"Duration":98431,"SoundDuration":98431,"Delta":84568923},{"NoteNumber":51,"Velocity":37,"Duration":98431,"SoundDuration":98431,"Delta":84668182},{"NoteNumber":56,"Velocity":33,"Duration":98431,"SoundDuration":98431,"Delta":84767440},{"NoteNumber":71,"Velocity":50,"Duration":304074,"SoundDuration":304074,"Delta":84866699},{"NoteNumber":44,"Velocity":41,"Duration":100513,"SoundDuration":100513,"Delta":84866699},{"NoteNumber":56,"Velocity":33,"Duration":100513,"SoundDuration":100513,"Delta":84968057},{"NoteNumber":51,"Velocity":37,"Duration":100513,"SoundDuration":100513,"Delta":85069416},{"NoteNumber":68,"Velocity":50,"Duration":101358,"SoundDuration":101358,"Delta":85170774},{"NoteNumber":56,"Velocity":33,"Duration":100513,"SoundDuration":100513,"Delta":85170774},{"NoteNumber":67,"Velocity":57,"Duration":405433,"SoundDuration":405433,"Delta":85272132},{"NoteNumber":44,"Velocity":41,"Duration":100513,"SoundDuration":100513,"Delta":85272132},{"NoteNumber":58,"Velocity":33,"Duration":100513,"SoundDuration":100513,"Delta":85373490},{"NoteNumber":51,"Velocity":38,"Duration":100513,"SoundDuration":100513,"Delta":85474849},{"NoteNumber":58,"Velocity":33,"Duration":100513,"SoundDuration":100513,"Delta":85576207},{"NoteNumber":75,"Velocity":47,"Duration":321038,"SoundDuration":321038,"Delta":85677565},{"NoteNumber":61,"Velocity":39,"Duration":321038,"SoundDuration":321038,"Delta":85677565},{"NoteNumber":67,"Velocity":47,"Duration":321038,"SoundDuration":321038,"Delta":85677565},{"NoteNumber":44,"Velocity":41,"Duration":106121,"SoundDuration":106121,"Delta":85677565},{"NoteNumber":58,"Velocity":33,"Duration":106121,"SoundDuration":106121,"Delta":85784578},{"NoteNumber":51,"Velocity":37,"Duration":106121,"SoundDuration":106121,"Delta":85891591},{"NoteNumber":58,"Velocity":33,"Duration":106121,"SoundDuration":106121,"Delta":85998604},{"NoteNumber":67,"Velocity":47,"Duration":321038,"SoundDuration":321038,"Delta":86105617},{"NoteNumber":75,"Velocity":47,"Duration":321038,"SoundDuration":321038,"Delta":86105617},{"NoteNumber":61,"Velocity":39,"Duration":321038,"SoundDuration":321038,"Delta":86105617},{"NoteNumber":44,"Velocity":41,"Duration":106121,"SoundDuration":106121,"Delta":86105617},{"NoteNumber":58,"Velocity":34,"Duration":106121,"SoundDuration":106121,"Delta":86212630},{"NoteNumber":51,"Velocity":38,"Duration":106121,"SoundDuration":106121,"Delta":86319643},{"NoteNumber":58,"Velocity":34,"Duration":106121,"SoundDuration":106121,"Delta":86426656},{"NoteNumber":67,"Velocity":50,"Duration":321038,"SoundDuration":321038,"Delta":86533669},{"NoteNumber":75,"Velocity":50,"Duration":321038,"SoundDuration":321038,"Delta":86533669},{"NoteNumber":61,"Velocity":42,"Duration":321038,"SoundDuration":321038,"Delta":86533669},{"NoteNumber":44,"Velocity":41,"Duration":106121,"SoundDuration":106121,"Delta":86533669},{"NoteNumber":58,"Velocity":34,"Duration":106121,"SoundDuration":106121,"Delta":86640682},{"NoteNumber":51,"Velocity":36,"Duration":106121,"SoundDuration":106121,"Delta":86747695},{"NoteNumber":59,"Velocity":50,"Duration":95960,"SoundDuration":95960,"Delta":86854708},{"NoteNumber":58,"Velocity":33,"Duration":142740,"SoundDuration":142740,"Delta":86854708},{"NoteNumber":68,"Velocity":50,"Duration":88513,"SoundDuration":88513,"Delta":86926678},{"NoteNumber":75,"Velocity":57,"Duration":1191105,"SoundDuration":1191105,"Delta":86998648},{"NoteNumber":44,"Velocity":41,"Duration":98431,"SoundDuration":98431,"Delta":86998648},{"NoteNumber":56,"Velocity":33,"Duration":98431,"SoundDuration":98431,"Delta":87097907},{"NoteNumber":51,"Velocity":37,"Duration":98431,"SoundDuration":98431,"Delta":87197166},{"NoteNumber":56,"Velocity":33,"Duration":98431,"SoundDuration":98431,"Delta":87296424},{"NoteNumber":44,"Velocity":41,"Duration":98431,"SoundDuration":98431,"Delta":87395683},{"NoteNumber":56,"Velocity":34,"Duration":98431,"SoundDuration":98431,"Delta":87494942},{"NoteNumber":51,"Velocity":38,"Duration":98431,"SoundDuration":98431,"Delta":87594201},{"NoteNumber":56,"Velocity":34,"Duration":98431,"SoundDuration":98431,"Delta":87693459},{"NoteNumber":44,"Velocity":41,"Duration":98431,"SoundDuration":98431,"Delta":87792718},{"NoteNumber":56,"Velocity":34,"Duration":98431,"SoundDuration":98431,"Delta":87891977},{"NoteNumber":51,"Velocity":38,"Duration":98431,"SoundDuration":98431,"Delta":87991236},{"NoteNumber":56,"Velocity":34,"Duration":98431,"SoundDuration":98431,"Delta":88090494},{"NoteNumber":83,"Velocity":58,"Duration":303009,"SoundDuration":303009,"Delta":88189753},{"NoteNumber":44,"Velocity":41,"Duration":100161,"SoundDuration":100161,"Delta":88189753},{"NoteNumber":56,"Velocity":33,"Duration":100161,"SoundDuration":100161,"Delta":88290756},{"NoteNumber":51,"Velocity":36,"Duration":100161,"SoundDuration":100161,"Delta":88391760},{"NoteNumber":80,"Velocity":58,"Duration":101003,"SoundDuration":101003,"Delta":88492763},{"NoteNumber":56,"Velocity":33,"Duration":100161,"SoundDuration":100161,"Delta":88492763},{"NoteNumber":79,"Velocity":67,"Duration":404012,"SoundDuration":404012,"Delta":88593766},{"NoteNumber":44,"Velocity":41,"Duration":100161,"SoundDuration":100161,"Delta":88593766},{"NoteNumber":58,"Velocity":36,"Duration":100161,"SoundDuration":100161,"Delta":88694769},{"NoteNumber":51,"Velocity":36,"Duration":100161,"SoundDuration":100161,"Delta":88795773},{"NoteNumber":58,"Velocity":34,"Duration":100161,"SoundDuration":100161,"Delta":88896776},{"NoteNumber":87,"Velocity":57,"Duration":312912,"SoundDuration":312912,"Delta":88997779},{"NoteNumber":73,"Velocity":48,"Duration":312912,"SoundDuration":312912,"Delta":88997779},{"NoteNumber":79,"Velocity":57,"Duration":312912,"SoundDuration":312912,"Delta":88997779},{"NoteNumber":44,"Velocity":41,"Duration":103435,"SoundDuration":103435,"Delta":88997779},{"NoteNumber":58,"Velocity":34,"Duration":103435,"SoundDuration":103435,"Delta":89102083},{"NoteNumber":51,"Velocity":36,"Duration":103435,"SoundDuration":103435,"Delta":89206388},{"NoteNumber":58,"Velocity":33,"Duration":103435,"SoundDuration":103435,"Delta":89310692},{"NoteNumber":73,"Velocity":48,"Duration":312912,"SoundDuration":312912,"Delta":89414996},{"NoteNumber":87,"Velocity":57,"Duration":312912,"SoundDuration":312912,"Delta":89414996},{"NoteNumber":79,"Velocity":57,"Duration":312912,"SoundDuration":312912,"Delta":89414996},{"NoteNumber":44,"Velocity":41,"Duration":103435,"SoundDuration":103435,"Delta":89414996},{"NoteNumber":58,"Velocity":34,"Duration":103435,"SoundDuration":103435,"Delta":89519300},{"NoteNumber":51,"Velocity":36,"Duration":103435,"SoundDuration":103435,"Delta":89623605},{"NoteNumber":58,"Velocity":33,"Duration":103435,"SoundDuration":103435,"Delta":89727909},{"NoteNumber":79,"Velocity":57,"Duration":310781,"SoundDuration":310781,"Delta":89832213},{"NoteNumber":73,"Velocity":48,"Duration":310781,"SoundDuration":310781,"Delta":89832213},{"NoteNumber":87,"Velocity":57,"Duration":310781,"SoundDuration":310781,"Delta":89832213},{"NoteNumber":44,"Velocity":41,"Duration":103435,"SoundDuration":103435,"Delta":89832213},{"NoteNumber":58,"Velocity":34,"Duration":103435,"SoundDuration":103435,"Delta":89936517},{"NoteNumber":51,"Velocity":39,"Duration":101357,"SoundDuration":101357,"Delta":90040822},{"NoteNumber":71,"Velocity":47,"Duration":90530,"SoundDuration":90530,"Delta":90142995},{"NoteNumber":58,"Velocity":34,"Duration":134664,"SoundDuration":134664,"Delta":90142995},{"NoteNumber":80,"Velocity":53,"Duration":84216,"SoundDuration":84216,"Delta":90210893},{"NoteNumber":87,"Velocity":73,"Duration":685378,"SoundDuration":685378,"Delta":90278791},{"NoteNumber":44,"Velocity":41,"Duration":97095,"SoundDuration":97095,"Delta":90278791},{"NoteNumber":56,"Velocity":33,"Duration":97095,"SoundDuration":97095,"Delta":90376702},{"NoteNumber":51,"Velocity":36,"Duration":97095,"SoundDuration":97095,"Delta":90474613},{"NoteNumber":56,"Velocity":33,"Duration":97095,"SoundDuration":97095,"Delta":90572524},{"NoteNumber":44,"Velocity":42,"Duration":97095,"SoundDuration":97095,"Delta":90670436},{"NoteNumber":56,"Velocity":33,"Duration":97095,"SoundDuration":97095,"Delta":90768347},{"NoteNumber":51,"Velocity":35,"Duration":97095,"SoundDuration":97095,"Delta":90866258},{"NoteNumber":73,"Velocity":43,"Duration":76155,"SoundDuration":76155,"Delta":90964169},{"NoteNumber":56,"Velocity":33,"Duration":113281,"SoundDuration":113281,"Delta":90964169},{"NoteNumber":79,"Velocity":53,"Duration":73435,"SoundDuration":73435,"Delta":91021286},{"NoteNumber":87,"Velocity":72,"Duration":685378,"SoundDuration":685378,"Delta":91078403},{"NoteNumber":44,"Velocity":41,"Duration":97095,"SoundDuration":97095,"Delta":91078403},{"NoteNumber":58,"Velocity":34,"Duration":97095,"SoundDuration":97095,"Delta":91176314},{"NoteNumber":51,"Velocity":37,"Duration":97095,"SoundDuration":97095,"Delta":91274225},{"NoteNumber":58,"Velocity":37,"Duration":97095,"SoundDuration":97095,"Delta":91372137},{"NoteNumber":44,"Velocity":41,"Duration":97095,"SoundDuration":97095,"Delta":91470048},{"NoteNumber":58,"Velocity":34,"Duration":97095,"SoundDuration":97095,"Delta":91567959},{"NoteNumber":51,"Velocity":38,"Duration":97095,"SoundDuration":97095,"Delta":91665870},{"NoteNumber":71,"Velocity":40,"Duration":85675,"SoundDuration":85675,"Delta":91763782},{"NoteNumber":58,"Velocity":34,"Duration":127441,"SoundDuration":127441,"Delta":91763782},{"NoteNumber":80,"Velocity":53,"Duration":80574,"SoundDuration":80574,"Delta":91828038},{"NoteNumber":87,"Velocity":72,"Duration":685378,"SoundDuration":685378,"Delta":91892294},{"NoteNumber":44,"Velocity":41,"Duration":97095,"SoundDuration":97095,"Delta":91892294},{"NoteNumber":56,"Velocity":33,"Duration":97095,"SoundDuration":97095,"Delta":91990206},{"NoteNumber":51,"Velocity":36,"Duration":97095,"SoundDuration":97095,"Delta":92088117},{"NoteNumber":56,"Velocity":33,"Duration":97095,"SoundDuration":97095,"Delta":92186028},{"NoteNumber":44,"Velocity":41,"Duration":97095,"SoundDuration":97095,"Delta":92283939},{"NoteNumber":56,"Velocity":33,"Duration":97095,"SoundDuration":97095,"Delta":92381851},{"NoteNumber":51,"Velocity":36,"Duration":97095,"SoundDuration":97095,"Delta":92479762},{"NoteNumber":73,"Velocity":45,"Duration":65274,"SoundDuration":65274,"Delta":92577673},{"NoteNumber":56,"Velocity":33,"Duration":97095,"SoundDuration":97095,"Delta":92577673},{"NoteNumber":79,"Velocity":52,"Duration":65274,"SoundDuration":65274,"Delta":92626629},{"NoteNumber":87,"Velocity":71,"Duration":783290,"SoundDuration":783290,"Delta":92675584},{"NoteNumber":44,"Velocity":41,"Duration":97095,"SoundDuration":97095,"Delta":92675584},{"NoteNumber":58,"Velocity":34,"Duration":97095,"SoundDuration":97095,"Delta":92773496},{"NoteNumber":51,"Velocity":37,"Duration":97095,"SoundDuration":97095,"Delta":92871407},{"NoteNumber":58,"Velocity":33,"Duration":97095,"SoundDuration":97095,"Delta":92969318},{"NoteNumber":44,"Velocity":41,"Duration":97095,"SoundDuration":97095,"Delta":93067229},{"NoteNumber":58,"Velocity":34,"Duration":97095,"SoundDuration":97095,"Delta":93165141},{"NoteNumber":51,"Velocity":37,"Duration":97095,"SoundDuration":97095,"Delta":93263052},{"NoteNumber":58,"Velocity":34,"Duration":97095,"SoundDuration":97095,"Delta":93360963},{"NoteNumber":59,"Velocity":49,"Duration":102117,"SoundDuration":102117,"Delta":93458874},{"NoteNumber":44,"Velocity":42,"Duration":102117,"SoundDuration":102117,"Delta":93458874},{"NoteNumber":68,"Velocity":50,"Duration":100706,"SoundDuration":100706,"Delta":93561848},{"NoteNumber":56,"Velocity":41,"Duration":100706,"SoundDuration":100706,"Delta":93561848},{"NoteNumber":63,"Velocity":51,"Duration":100513,"SoundDuration":100513,"Delta":93663399},{"NoteNumber":51,"Velocity":42,"Duration":100513,"SoundDuration":100513,"Delta":93663399},{"NoteNumber":68,"Velocity":48,"Duration":100513,"SoundDuration":100513,"Delta":93764758},{"NoteNumber":56,"Velocity":40,"Duration":100513,"SoundDuration":100513,"Delta":93764758},{"NoteNumber":59,"Velocity":52,"Duration":100095,"SoundDuration":100095,"Delta":93866116},{"NoteNumber":44,"Velocity":43,"Duration":100095,"SoundDuration":100095,"Delta":93866116},{"NoteNumber":68,"Velocity":53,"Duration":99399,"SoundDuration":99399,"Delta":93967050},{"NoteNumber":56,"Velocity":44,"Duration":99399,"SoundDuration":99399,"Delta":93967050},{"NoteNumber":63,"Velocity":54,"Duration":99120,"SoundDuration":99120,"Delta":94067282},{"NoteNumber":51,"Velocity":45,"Duration":99120,"SoundDuration":99120,"Delta":94067282},{"NoteNumber":68,"Velocity":51,"Duration":99120,"SoundDuration":99120,"Delta":94167235},{"NoteNumber":56,"Velocity":43,"Duration":99120,"SoundDuration":99120,"Delta":94167235},{"NoteNumber":59,"Velocity":57,"Duration":98673,"SoundDuration":98673,"Delta":94267189},{"NoteNumber":44,"Velocity":47,"Duration":98673,"SoundDuration":98673,"Delta":94267189},{"NoteNumber":68,"Velocity":57,"Duration":96925,"SoundDuration":96925,"Delta":94366683},{"NoteNumber":56,"Velocity":48,"Duration":96925,"SoundDuration":96925,"Delta":94366683},{"NoteNumber":63,"Velocity":58,"Duration":95968,"SoundDuration":95968,"Delta":94464420},{"NoteNumber":51,"Velocity":48,"Duration":95968,"SoundDuration":95968,"Delta":94464420},{"NoteNumber":68,"Velocity":52,"Duration":95794,"SoundDuration":95794,"Delta":94561193},{"NoteNumber":56,"Velocity":49,"Duration":95794,"SoundDuration":95794,"Delta":94561193},{"NoteNumber":59,"Velocity":61,"Duration":95794,"SoundDuration":95794,"Delta":94657793},{"NoteNumber":44,"Velocity":51,"Duration":95794,"SoundDuration":95794,"Delta":94657793},{"NoteNumber":68,"Velocity":62,"Duration":95794,"SoundDuration":95794,"Delta":94754393},{"NoteNumber":56,"Velocity":51,"Duration":95794,"SoundDuration":95794,"Delta":94754393},{"NoteNumber":63,"Velocity":62,"Duration":95072,"SoundDuration":95072,"Delta":94850992},{"NoteNumber":51,"Velocity":52,"Duration":95072,"SoundDuration":95072,"Delta":94850992},{"NoteNumber":68,"Velocity":57,"Duration":94522,"SoundDuration":94522,"Delta":94946860},{"NoteNumber":56,"Velocity":47,"Duration":94522,"SoundDuration":94522,"Delta":94946860},{"NoteNumber":60,"Velocity":66,"Duration":94522,"SoundDuration":94522,"Delta":95042176},{"NoteNumber":44,"Velocity":53,"Duration":94522,"SoundDuration":94522,"Delta":95042176},{"NoteNumber":66,"Velocity":67,"Duration":94522,"SoundDuration":94522,"Delta":95137493},{"NoteNumber":54,"Velocity":56,"Duration":94522,"SoundDuration":94522,"Delta":95137493},{"NoteNumber":63,"Velocity":68,"Duration":94522,"SoundDuration":94522,"Delta":95232810},{"NoteNumber":51,"Velocity":56,"Duration":94522,"SoundDuration":94522,"Delta":95232810},{"NoteNumber":66,"Velocity":62,"Duration":94522,"SoundDuration":94522,"Delta":95328127},{"NoteNumber":54,"Velocity":51,"Duration":94522,"SoundDuration":94522,"Delta":95328127},{"NoteNumber":60,"Velocity":69,"Duration":94522,"SoundDuration":94522,"Delta":95423443},{"NoteNumber":44,"Velocity":57,"Duration":94522,"SoundDuration":94522,"Delta":95423443},{"NoteNumber":66,"Velocity":70,"Duration":94277,"SoundDuration":94277,"Delta":95518760},{"NoteNumber":54,"Velocity":58,"Duration":94277,"SoundDuration":94277,"Delta":95518760},{"NoteNumber":63,"Velocity":71,"Duration":93050,"SoundDuration":93050,"Delta":95613826},{"NoteNumber":51,"Velocity":60,"Duration":93050,"SoundDuration":93050,"Delta":95613826},{"NoteNumber":66,"Velocity":68,"Duration":92684,"SoundDuration":92684,"Delta":95707656},{"NoteNumber":54,"Velocity":56,"Duration":92684,"SoundDuration":92684,"Delta":95707656},{"NoteNumber":60,"Velocity":73,"Duration":92684,"SoundDuration":92684,"Delta":95801120},{"NoteNumber":44,"Velocity":62,"Duration":92684,"SoundDuration":92684,"Delta":95801120},{"NoteNumber":66,"Velocity":74,"Duration":92684,"SoundDuration":92684,"Delta":95894584},{"NoteNumber":54,"Velocity":62,"Duration":92684,"SoundDuration":92684,"Delta":95894584},{"NoteNumber":63,"Velocity":75,"Duration":92609,"SoundDuration":92609,"Delta":95988047},{"NoteNumber":51,"Velocity":63,"Duration":92609,"SoundDuration":92609,"Delta":95988047},{"NoteNumber":66,"Velocity":76,"Duration":92088,"SoundDuration":92088,"Delta":96081431},{"NoteNumber":54,"Velocity":57,"Duration":92088,"SoundDuration":92088,"Delta":96081431},{"NoteNumber":60,"Velocity":78,"Duration":92088,"SoundDuration":92088,"Delta":96174293},{"NoteNumber":44,"Velocity":65,"Duration":92088,"SoundDuration":92088,"Delta":96174293},{"NoteNumber":66,"Velocity":79,"Duration":92088,"SoundDuration":92088,"Delta":96267155},{"NoteNumber":54,"Velocity":67,"Duration":92088,"SoundDuration":92088,"Delta":96267155},{"NoteNumber":63,"Velocity":79,"Duration":91933,"SoundDuration":91933,"Delta":96360017},{"NoteNumber":51,"Velocity":67,"Duration":91933,"SoundDuration":91933,"Delta":96360017},{"NoteNumber":66,"Velocity":73,"Duration":90531,"SoundDuration":90531,"Delta":96452719},{"NoteNumber":54,"Velocity":62,"Duration":90531,"SoundDuration":90531,"Delta":96452719},{"NoteNumber":52,"Velocity":69,"Duration":93167,"SoundDuration":93167,"Delta":96544009},{"NoteNumber":56,"Velocity":69,"Duration":93167,"SoundDuration":93167,"Delta":96544009},{"NoteNumber":61,"Velocity":82,"Duration":93167,"SoundDuration":93167,"Delta":96544009},{"NoteNumber":64,"Velocity":82,"Duration":93167,"SoundDuration":93167,"Delta":96544009},{"NoteNumber":37,"Velocity":69,"Duration":93167,"SoundDuration":93167,"Delta":96544009},{"NoteNumber":44,"Velocity":54,"Duration":86336,"SoundDuration":86336,"Delta":96637177},{"NoteNumber":49,"Velocity":56,"Duration":105104,"SoundDuration":105104,"Delta":96727267},{"NoteNumber":44,"Velocity":39,"Duration":90090,"SoundDuration":90090,"Delta":96727267},{"NoteNumber":52,"Velocity":57,"Duration":105104,"SoundDuration":105104,"Delta":96817357},{"NoteNumber":56,"Velocity":59,"Duration":105105,"SoundDuration":105105,"Delta":96907447},{"NoteNumber":37,"Velocity":43,"Duration":90090,"SoundDuration":90090,"Delta":96907447},{"NoteNumber":49,"Velocity":54,"Duration":105104,"SoundDuration":105104,"Delta":96997537},{"NoteNumber":52,"Velocity":56,"Duration":105104,"SoundDuration":105104,"Delta":97087627},{"NoteNumber":44,"Velocity":40,"Duration":90089,"SoundDuration":90089,"Delta":97087627},{"NoteNumber":56,"Velocity":56,"Duration":105105,"SoundDuration":105105,"Delta":97177717},{"NoteNumber":61,"Velocity":57,"Duration":105105,"SoundDuration":105105,"Delta":97267807},{"NoteNumber":37,"Velocity":42,"Duration":90090,"SoundDuration":90090,"Delta":97267807},{"NoteNumber":52,"Velocity":51,"Duration":105104,"SoundDuration":105104,"Delta":97357897},{"NoteNumber":56,"Velocity":53,"Duration":105104,"SoundDuration":105104,"Delta":97447987},{"NoteNumber":44,"Velocity":39,"Duration":90090,"SoundDuration":90090,"Delta":97447987},{"NoteNumber":61,"Velocity":54,"Duration":105104,"SoundDuration":105104,"Delta":97538077},{"NoteNumber":64,"Velocity":56,"Duration":105105,"SoundDuration":105105,"Delta":97628167},{"NoteNumber":37,"Velocity":39,"Duration":90090,"SoundDuration":90090,"Delta":97628167},{"NoteNumber":56,"Velocity":52,"Duration":105104,"SoundDuration":105104,"Delta":97718257},{"NoteNumber":61,"Velocity":53,"Duration":105104,"SoundDuration":105104,"Delta":97808347},{"NoteNumber":44,"Velocity":39,"Duration":90089,"SoundDuration":90089,"Delta":97808347},{"NoteNumber":64,"Velocity":56,"Duration":105105,"SoundDuration":105105,"Delta":97898437},{"NoteNumber":68,"Velocity":57,"Duration":105105,"SoundDuration":105105,"Delta":97988527},{"NoteNumber":37,"Velocity":43,"Duration":90090,"SoundDuration":90090,"Delta":97988527},{"NoteNumber":61,"Velocity":52,"Duration":105104,"SoundDuration":105104,"Delta":98078617},{"NoteNumber":64,"Velocity":53,"Duration":105104,"SoundDuration":105104,"Delta":98168707},{"NoteNumber":44,"Velocity":40,"Duration":90090,"SoundDuration":90090,"Delta":98168707},{"NoteNumber":68,"Velocity":56,"Duration":105104,"SoundDuration":105104,"Delta":98258797},{"NoteNumber":73,"Velocity":57,"Duration":105105,"SoundDuration":105105,"Delta":98348887},{"NoteNumber":37,"Velocity":43,"Duration":90090,"SoundDuration":90090,"Delta":98348887},{"NoteNumber":64,"Velocity":52,"Duration":105104,"SoundDuration":105104,"Delta":98438977},{"NoteNumber":68,"Velocity":53,"Duration":105104,"SoundDuration":105104,"Delta":98529067},{"NoteNumber":44,"Velocity":40,"Duration":90089,"SoundDuration":90089,"Delta":98529067},{"NoteNumber":73,"Velocity":56,"Duration":105105,"SoundDuration":105105,"Delta":98619157},{"NoteNumber":76,"Velocity":56,"Duration":105105,"SoundDuration":105105,"Delta":98709247},{"NoteNumber":37,"Velocity":41,"Duration":90090,"SoundDuration":90090,"Delta":98709247},{"NoteNumber":68,"Velocity":52,"Duration":105104,"SoundDuration":105104,"Delta":98799337},{"NoteNumber":73,"Velocity":56,"Duration":105104,"SoundDuration":105104,"Delta":98889427},{"NoteNumber":44,"Velocity":38,"Duration":90090,"SoundDuration":90090,"Delta":98889427},{"NoteNumber":76,"Velocity":57,"Duration":90089,"SoundDuration":90089,"Delta":98979517},{"NoteNumber":76,"Velocity":94,"Duration":93761,"SoundDuration":93761,"Delta":99069607},{"NoteNumber":80,"Velocity":94,"Duration":93761,"SoundDuration":93761,"Delta":99069607},{"NoteNumber":73,"Velocity":79,"Duration":93761,"SoundDuration":93761,"Delta":99069607},{"NoteNumber":68,"Velocity":79,"Duration":93761,"SoundDuration":93761,"Delta":99069607},{"NoteNumber":49,"Velocity":77,"Duration":93761,"SoundDuration":93761,"Delta":99069607},{"NoteNumber":37,"Velocity":64,"Duration":93761,"SoundDuration":93761,"Delta":99069607},{"NoteNumber":68,"Velocity":67,"Duration":93761,"SoundDuration":93761,"Delta":99257130},{"NoteNumber":80,"Velocity":79,"Duration":93761,"SoundDuration":93761,"Delta":99257130},{"NoteNumber":73,"Velocity":67,"Duration":93761,"SoundDuration":93761,"Delta":99257130},{"NoteNumber":76,"Velocity":79,"Duration":93761,"SoundDuration":93761,"Delta":99257130},{"NoteNumber":44,"Velocity":67,"Duration":93761,"SoundDuration":93761,"Delta":99257130},{"NoteNumber":36,"Velocity":41,"Duration":89960,"SoundDuration":89960,"Delta":99444654},{"NoteNumber":44,"Velocity":48,"Duration":86212,"SoundDuration":86212,"Delta":99534614},{"NoteNumber":48,"Velocity":50,"Duration":104953,"SoundDuration":104953,"Delta":99624575},{"NoteNumber":44,"Velocity":39,"Duration":89960,"SoundDuration":89960,"Delta":99624575},{"NoteNumber":51,"Velocity":51,"Duration":104953,"SoundDuration":104953,"Delta":99714535},{"NoteNumber":56,"Velocity":52,"Duration":104953,"SoundDuration":104953,"Delta":99804496},{"NoteNumber":36,"Velocity":41,"Duration":89960,"SoundDuration":89960,"Delta":99804496},{"NoteNumber":48,"Velocity":48,"Duration":104953,"SoundDuration":104953,"Delta":99894456},{"NoteNumber":51,"Velocity":49,"Duration":104953,"SoundDuration":104953,"Delta":99984417},{"NoteNumber":44,"Velocity":38,"Duration":89960,"SoundDuration":89960,"Delta":99984417},{"NoteNumber":56,"Velocity":51,"Duration":104953,"SoundDuration":104953,"Delta":100074377},{"NoteNumber":60,"Velocity":53,"Duration":104953,"SoundDuration":104953,"Delta":100164338},{"NoteNumber":36,"Velocity":40,"Duration":89960,"SoundDuration":89960,"Delta":100164338},{"NoteNumber":51,"Velocity":47,"Duration":104953,"SoundDuration":104953,"Delta":100254298},{"NoteNumber":56,"Velocity":49,"Duration":104953,"SoundDuration":104953,"Delta":100344259},{"NoteNumber":44,"Velocity":37,"Duration":89960,"SoundDuration":89960,"Delta":100344259},{"NoteNumber":60,"Velocity":51,"Duration":104953,"SoundDuration":104953,"Delta":100434219},{"NoteNumber":63,"Velocity":51,"Duration":104953,"SoundDuration":104953,"Delta":100524180},{"NoteNumber":36,"Velocity":40,"Duration":89960,"SoundDuration":89960,"Delta":100524180},{"NoteNumber":56,"Velocity":48,"Duration":104953,"SoundDuration":104953,"Delta":100614140},{"NoteNumber":60,"Velocity":51,"Duration":104953,"SoundDuration":104953,"Delta":100704101},{"NoteNumber":44,"Velocity":38,"Duration":89960,"SoundDuration":89960,"Delta":100704101},{"NoteNumber":63,"Velocity":52,"Duration":104953,"SoundDuration":104953,"Delta":100794061},{"NoteNumber":68,"Velocity":53,"Duration":104953,"SoundDuration":104953,"Delta":100884022},{"NoteNumber":36,"Velocity":40,"Duration":89960,"SoundDuration":89960,"Delta":100884022},{"NoteNumber":60,"Velocity":48,"Duration":104953,"SoundDuration":104953,"Delta":100973982},{"NoteNumber":63,"Velocity":49,"Duration":104953,"SoundDuration":104953,"Delta":101063943},{"NoteNumber":44,"Velocity":38,"Duration":89960,"SoundDuration":89960,"Delta":101063943},{"NoteNumber":68,"Velocity":51,"Duration":104953,"SoundDuration":104953,"Delta":101153903},{"NoteNumber":72,"Velocity":51,"Duration":104953,"SoundDuration":104953,"Delta":101243864},{"NoteNumber":36,"Velocity":40,"Duration":89960,"SoundDuration":89960,"Delta":101243864},{"NoteNumber":63,"Velocity":48,"Duration":104953,"SoundDuration":104953,"Delta":101333824},{"NoteNumber":68,"Velocity":50,"Duration":104953,"SoundDuration":104953,"Delta":101423785},{"NoteNumber":44,"Velocity":37,"Duration":89960,"SoundDuration":89960,"Delta":101423785},{"NoteNumber":72,"Velocity":51,"Duration":104953,"SoundDuration":104953,"Delta":101513745},{"NoteNumber":75,"Velocity":52,"Duration":104953,"SoundDuration":104953,"Delta":101603706},{"NoteNumber":36,"Velocity":40,"Duration":89960,"SoundDuration":89960,"Delta":101603706},{"NoteNumber":68,"Velocity":51,"Duration":104953,"SoundDuration":104953,"Delta":101693666},{"NoteNumber":72,"Velocity":52,"Duration":104953,"SoundDuration":104953,"Delta":101783627},{"NoteNumber":44,"Velocity":37,"Duration":89960,"SoundDuration":89960,"Delta":101783627},{"NoteNumber":75,"Velocity":56,"Duration":89960,"SoundDuration":89960,"Delta":101873587},{"NoteNumber":68,"Velocity":79,"Duration":94073,"SoundDuration":94073,"Delta":101963548},{"NoteNumber":72,"Velocity":79,"Duration":94073,"SoundDuration":94073,"Delta":101963548},{"NoteNumber":75,"Velocity":94,"Duration":94073,"SoundDuration":94073,"Delta":101963548},{"NoteNumber":80,"Velocity":94,"Duration":94073,"SoundDuration":94073,"Delta":101963548},{"NoteNumber":48,"Velocity":77,"Duration":94073,"SoundDuration":94073,"Delta":101963548},{"NoteNumber":36,"Velocity":64,"Duration":94073,"SoundDuration":94073,"Delta":101963548},{"NoteNumber":68,"Velocity":66,"Duration":94073,"SoundDuration":94073,"Delta":102151695},{"NoteNumber":72,"Velocity":66,"Duration":94073,"SoundDuration":94073,"Delta":102151695},{"NoteNumber":75,"Velocity":78,"Duration":94073,"SoundDuration":94073,"Delta":102151695},{"NoteNumber":80,"Velocity":78,"Duration":94073,"SoundDuration":94073,"Delta":102151695},{"NoteNumber":44,"Velocity":58,"Duration":94073,"SoundDuration":94073,"Delta":102151695},{"NoteNumber":35,"Velocity":55,"Duration":89960,"SoundDuration":89960,"Delta":102339842},{"NoteNumber":49,"Velocity":63,"Duration":104953,"SoundDuration":104953,"Delta":102429802},{"NoteNumber":53,"Velocity":66,"Duration":104953,"SoundDuration":104953,"Delta":102519763},{"NoteNumber":44,"Velocity":51,"Duration":89960,"SoundDuration":89960,"Delta":102519763},{"NoteNumber":56,"Velocity":63,"Duration":104953,"SoundDuration":104953,"Delta":102609723},{"NoteNumber":61,"Velocity":68,"Duration":104953,"SoundDuration":104953,"Delta":102699684},{"NoteNumber":35,"Velocity":56,"Duration":89960,"SoundDuration":89960,"Delta":102699684},{"NoteNumber":53,"Velocity":62,"Duration":104953,"SoundDuration":104953,"Delta":102789644},{"NoteNumber":56,"Velocity":63,"Duration":104953,"SoundDuration":104953,"Delta":102879605},{"NoteNumber":44,"Velocity":52,"Duration":89960,"SoundDuration":89960,"Delta":102879605},{"NoteNumber":61,"Velocity":62,"Duration":104953,"SoundDuration":104953,"Delta":102969565},{"NoteNumber":65,"Velocity":68,"Duration":104953,"SoundDuration":104953,"Delta":103059526},{"NoteNumber":35,"Velocity":56,"Duration":89960,"SoundDuration":89960,"Delta":103059526},{"NoteNumber":56,"Velocity":62,"Duration":104953,"SoundDuration":104953,"Delta":103149486},{"NoteNumber":61,"Velocity":63,"Duration":104953,"SoundDuration":104953,"Delta":103239447},{"NoteNumber":44,"Velocity":52,"Duration":89960,"SoundDuration":89960,"Delta":103239447},{"NoteNumber":65,"Velocity":65,"Duration":104953,"SoundDuration":104953,"Delta":103329407},{"NoteNumber":68,"Velocity":68,"Duration":104953,"SoundDuration":104953,"Delta":103419368},{"NoteNumber":35,"Velocity":56,"Duration":89960,"SoundDuration":89960,"Delta":103419368},{"NoteNumber":61,"Velocity":62,"Duration":104953,"SoundDuration":104953,"Delta":103509328},{"NoteNumber":65,"Velocity":65,"Duration":104953,"SoundDuration":104953,"Delta":103599289},{"NoteNumber":44,"Velocity":52,"Duration":89960,"SoundDuration":89960,"Delta":103599289},{"NoteNumber":68,"Velocity":62,"Duration":104953,"SoundDuration":104953,"Delta":103689249},{"NoteNumber":73,"Velocity":68,"Duration":104953,"SoundDuration":104953,"Delta":103779210},{"NoteNumber":35,"Velocity":56,"Duration":89960,"SoundDuration":89960,"Delta":103779210},{"NoteNumber":65,"Velocity":61,"Duration":104953,"SoundDuration":104953,"Delta":103869170},{"NoteNumber":68,"Velocity":62,"Duration":104953,"SoundDuration":104953,"Delta":103959131},{"NoteNumber":44,"Velocity":52,"Duration":89960,"SoundDuration":89960,"Delta":103959131},{"NoteNumber":73,"Velocity":62,"Duration":104953,"SoundDuration":104953,"Delta":104049091},{"NoteNumber":77,"Velocity":68,"Duration":104953,"SoundDuration":104953,"Delta":104139052},{"NoteNumber":35,"Velocity":56,"Duration":89960,"SoundDuration":89960,"Delta":104139052},{"NoteNumber":68,"Velocity":63,"Duration":104953,"SoundDuration":104953,"Delta":104229012},{"NoteNumber":73,"Velocity":66,"Duration":104953,"SoundDuration":104953,"Delta":104318973},{"NoteNumber":44,"Velocity":52,"Duration":89960,"SoundDuration":89960,"Delta":104318973},{"NoteNumber":77,"Velocity":65,"Duration":104953,"SoundDuration":104953,"Delta":104408933},{"NoteNumber":80,"Velocity":69,"Duration":104953,"SoundDuration":104953,"Delta":104498894},{"NoteNumber":35,"Velocity":56,"Duration":89960,"SoundDuration":89960,"Delta":104498894},{"NoteNumber":73,"Velocity":63,"Duration":104953,"SoundDuration":104953,"Delta":104588854},{"NoteNumber":77,"Velocity":68,"Duration":104953,"SoundDuration":104953,"Delta":104678815},{"NoteNumber":44,"Velocity":52,"Duration":89960,"SoundDuration":89960,"Delta":104678815},{"NoteNumber":80,"Velocity":68,"Duration":89960,"SoundDuration":89960,"Delta":104768775},{"NoteNumber":77,"Velocity":87,"Duration":93463,"SoundDuration":93463,"Delta":104858736},{"NoteNumber":80,"Velocity":103,"Duration":93463,"SoundDuration":93463,"Delta":104858736},{"NoteNumber":73,"Velocity":87,"Duration":93463,"SoundDuration":93463,"Delta":104858736},{"NoteNumber":85,"Velocity":103,"Duration":93463,"SoundDuration":93463,"Delta":104858736},{"NoteNumber":47,"Velocity":80,"Duration":93463,"SoundDuration":93463,"Delta":104858736},{"NoteNumber":35,"Velocity":67,"Duration":93463,"SoundDuration":93463,"Delta":104858736},{"NoteNumber":77,"Velocity":77,"Duration":93463,"SoundDuration":93463,"Delta":105045663},{"NoteNumber":73,"Velocity":77,"Duration":93463,"SoundDuration":93463,"Delta":105045663},{"NoteNumber":80,"Velocity":90,"Duration":93463,"SoundDuration":93463,"Delta":105045663},{"NoteNumber":85,"Velocity":90,"Duration":93463,"SoundDuration":93463,"Delta":105045663},{"NoteNumber":44,"Velocity":73,"Duration":93463,"SoundDuration":93463,"Delta":105045663},{"NoteNumber":33,"Velocity":50,"Duration":89960,"SoundDuration":89960,"Delta":105232591},{"NoteNumber":49,"Velocity":61,"Duration":104953,"SoundDuration":104953,"Delta":105322551},{"NoteNumber":54,"Velocity":63,"Duration":104953,"SoundDuration":104953,"Delta":105412512},{"NoteNumber":45,"Velocity":51,"Duration":89960,"SoundDuration":89960,"Delta":105412512},{"NoteNumber":57,"Velocity":62,"Duration":104953,"SoundDuration":104953,"Delta":105502472},{"NoteNumber":61,"Velocity":69,"Duration":44980,"SoundDuration":44980,"Delta":105592433},{"NoteNumber":33,"Velocity":57,"Duration":89960,"SoundDuration":89960,"Delta":105592433},{"NoteNumber":61,"Velocity":72,"Duration":104953,"SoundDuration":104953,"Delta":105682393},{"NoteNumber":66,"Velocity":76,"Duration":104953,"SoundDuration":104953,"Delta":105772354},{"NoteNumber":45,"Velocity":62,"Duration":89960,"SoundDuration":89960,"Delta":105772354},{"NoteNumber":69,"Velocity":76,"Duration":104953,"SoundDuration":104953,"Delta":105862314},{"NoteNumber":73,"Velocity":79,"Duration":44980,"SoundDuration":44980,"Delta":105952275},{"NoteNumber":33,"Velocity":67,"Duration":89960,"SoundDuration":89960,"Delta":105952275},{"NoteNumber":73,"Velocity":83,"Duration":104953,"SoundDuration":104953,"Delta":106042235},{"NoteNumber":78,"Velocity":84,"Duration":104953,"SoundDuration":104953,"Delta":106132196},{"NoteNumber":45,"Velocity":68,"Duration":89960,"SoundDuration":89960,"Delta":106132196},{"NoteNumber":81,"Velocity":80,"Duration":105191,"SoundDuration":105191,"Delta":106222156},{"NoteNumber":78,"Velocity":102,"Duration":91385,"SoundDuration":91385,"Delta":106312117},{"NoteNumber":73,"Velocity":86,"Duration":91385,"SoundDuration":91385,"Delta":106312117},{"NoteNumber":85,"Velocity":102,"Duration":91385,"SoundDuration":91385,"Delta":106312117},{"NoteNumber":33,"Velocity":86,"Duration":91385,"SoundDuration":91385,"Delta":106312117},{"NoteNumber":73,"Velocity":85,"Duration":91385,"SoundDuration":91385,"Delta":106494888},{"NoteNumber":78,"Velocity":101,"Duration":91385,"SoundDuration":91385,"Delta":106494888},{"NoteNumber":85,"Velocity":101,"Duration":91385,"SoundDuration":91385,"Delta":106494888},{"NoteNumber":45,"Velocity":85,"Duration":91385,"SoundDuration":91385,"Delta":106494888},{"NoteNumber":33,"Velocity":67,"Duration":89960,"SoundDuration":89960,"Delta":106677659},{"NoteNumber":49,"Velocity":75,"Duration":104953,"SoundDuration":104953,"Delta":106767619},{"NoteNumber":52,"Velocity":77,"Duration":104953,"SoundDuration":104953,"Delta":106857580},{"NoteNumber":45,"Velocity":63,"Duration":89960,"SoundDuration":89960,"Delta":106857580},{"NoteNumber":55,"Velocity":75,"Duration":104953,"SoundDuration":104953,"Delta":106947540},{"NoteNumber":61,"Velocity":80,"Duration":44980,"SoundDuration":44980,"Delta":107037501},{"NoteNumber":33,"Velocity":67,"Duration":89960,"SoundDuration":89960,"Delta":107037501},{"NoteNumber":61,"Velocity":76,"Duration":104953,"SoundDuration":104953,"Delta":107127461},{"NoteNumber":64,"Velocity":79,"Duration":104953,"SoundDuration":104953,"Delta":107217422},{"NoteNumber":45,"Velocity":63,"Duration":89960,"SoundDuration":89960,"Delta":107217422},{"NoteNumber":67,"Velocity":77,"Duration":104953,"SoundDuration":104953,"Delta":107307382},{"NoteNumber":73,"Velocity":81,"Duration":44980,"SoundDuration":44980,"Delta":107397343},{"NoteNumber":33,"Velocity":67,"Duration":89960,"SoundDuration":89960,"Delta":107397343},{"NoteNumber":73,"Velocity":79,"Duration":104953,"SoundDuration":104953,"Delta":107487303},{"NoteNumber":76,"Velocity":80,"Duration":104953,"SoundDuration":104953,"Delta":107577264},{"NoteNumber":45,"Velocity":63,"Duration":89960,"SoundDuration":89960,"Delta":107577264},{"NoteNumber":79,"Velocity":80,"Duration":89960,"SoundDuration":89960,"Delta":107667224},{"NoteNumber":79,"Velocity":108,"Duration":104675,"SoundDuration":104675,"Delta":107757185},{"NoteNumber":73,"Velocity":90,"Duration":104675,"SoundDuration":104675,"Delta":107757185},{"NoteNumber":85,"Velocity":108,"Duration":104675,"SoundDuration":104675,"Delta":107757185},{"NoteNumber":33,"Velocity":90,"Duration":104675,"SoundDuration":104675,"Delta":107757185},{"NoteNumber":85,"Velocity":108,"Duration":104675,"SoundDuration":104675,"Delta":107966536},{"NoteNumber":73,"Velocity":90,"Duration":104675,"SoundDuration":104675,"Delta":107966536},{"NoteNumber":79,"Velocity":108,"Duration":104675,"SoundDuration":104675,"Delta":107966536},{"NoteNumber":45,"Velocity":90,"Duration":104675,"SoundDuration":104675,"Delta":107966536},{"NoteNumber":84,"Velocity":108,"Duration":209350,"SoundDuration":209350,"Delta":108175887},{"NoteNumber":80,"Velocity":108,"Duration":209350,"SoundDuration":209350,"Delta":108175887},{"NoteNumber":72,"Velocity":90,"Duration":209350,"SoundDuration":209350,"Delta":108175887},{"NoteNumber":44,"Velocity":77,"Duration":209350,"SoundDuration":209350,"Delta":108175887},{"NoteNumber":32,"Velocity":77,"Duration":209350,"SoundDuration":209350,"Delta":108175887},{"NoteNumber":68,"Velocity":74,"Duration":91096,"SoundDuration":91096,"Delta":108385238},{"NoteNumber":60,"Velocity":62,"Duration":182193,"SoundDuration":182193,"Delta":108385238},{"NoteNumber":56,"Velocity":62,"Duration":2763949,"SoundDuration":2763949,"Delta":108385238},{"NoteNumber":80,"Velocity":58,"Duration":91096,"SoundDuration":91096,"Delta":108476335},{"NoteNumber":68,"Velocity":75,"Duration":91096,"SoundDuration":91096,"Delta":108567431},{"NoteNumber":60,"Velocity":62,"Duration":182193,"SoundDuration":182193,"Delta":108567431},{"NoteNumber":80,"Velocity":60,"Duration":91096,"SoundDuration":91096,"Delta":108658528},{"NoteNumber":70,"Velocity":76,"Duration":91096,"SoundDuration":91096,"Delta":108749625},{"NoteNumber":61,"Velocity":62,"Duration":182193,"SoundDuration":182193,"Delta":108749625},{"NoteNumber":80,"Velocity":60,"Duration":91096,"SoundDuration":91096,"Delta":108840722},{"NoteNumber":72,"Velocity":76,"Duration":91096,"SoundDuration":91096,"Delta":108931818},{"NoteNumber":63,"Velocity":64,"Duration":182193,"SoundDuration":182193,"Delta":108931818},{"NoteNumber":80,"Velocity":61,"Duration":91096,"SoundDuration":91096,"Delta":109022915},{"NoteNumber":73,"Velocity":78,"Duration":91096,"SoundDuration":91096,"Delta":109114012},{"NoteNumber":64,"Velocity":66,"Duration":182193,"SoundDuration":182193,"Delta":109114012},{"NoteNumber":80,"Velocity":62,"Duration":91096,"SoundDuration":91096,"Delta":109205109},{"NoteNumber":75,"Velocity":79,"Duration":91096,"SoundDuration":91096,"Delta":109296205},{"NoteNumber":66,"Velocity":67,"Duration":182193,"SoundDuration":182193,"Delta":109296205},{"NoteNumber":80,"Velocity":62,"Duration":91096,"SoundDuration":91096,"Delta":109387302},{"NoteNumber":72,"Velocity":79,"Duration":91096,"SoundDuration":91096,"Delta":109478399},{"NoteNumber":63,"Velocity":68,"Duration":182193,"SoundDuration":182193,"Delta":109478399},{"NoteNumber":80,"Velocity":62,"Duration":91096,"SoundDuration":91096,"Delta":109569496},{"NoteNumber":75,"Velocity":80,"Duration":93463,"SoundDuration":93463,"Delta":109660592},{"NoteNumber":66,"Velocity":69,"Duration":186927,"SoundDuration":186927,"Delta":109660592},{"NoteNumber":80,"Velocity":62,"Duration":93463,"SoundDuration":93463,"Delta":109754056},{"NoteNumber":73,"Velocity":80,"Duration":93463,"SoundDuration":93463,"Delta":109847520},{"NoteNumber":64,"Velocity":71,"Duration":186927,"SoundDuration":186927,"Delta":109847520},{"NoteNumber":80,"Velocity":62,"Duration":93463,"SoundDuration":93463,"Delta":109940984},{"NoteNumber":78,"Velocity":84,"Duration":93463,"SoundDuration":93463,"Delta":110034447},{"NoteNumber":69,"Velocity":72,"Duration":186927,"SoundDuration":186927,"Delta":110034447},{"NoteNumber":80,"Velocity":62,"Duration":93463,"SoundDuration":93463,"Delta":110127911},{"NoteNumber":76,"Velocity":80,"Duration":93363,"SoundDuration":93363,"Delta":110221375},{"NoteNumber":68,"Velocity":71,"Duration":186525,"SoundDuration":186525,"Delta":110221375},{"NoteNumber":80,"Velocity":62,"Duration":93162,"SoundDuration":93162,"Delta":110314738},{"NoteNumber":75,"Velocity":80,"Duration":93161,"SoundDuration":93161,"Delta":110407900},{"NoteNumber":66,"Velocity":69,"Duration":186023,"SoundDuration":186023,"Delta":110407900},{"NoteNumber":80,"Velocity":62,"Duration":92861,"SoundDuration":92861,"Delta":110501062},{"NoteNumber":73,"Velocity":79,"Duration":92861,"SoundDuration":92861,"Delta":110593924},{"NoteNumber":64,"Velocity":68,"Duration":185622,"SoundDuration":185622,"Delta":110593924},{"NoteNumber":80,"Velocity":62,"Duration":92760,"SoundDuration":92760,"Delta":110686786},{"NoteNumber":72,"Velocity":79,"Duration":92558,"SoundDuration":92558,"Delta":110779547},{"NoteNumber":63,"Velocity":67,"Duration":185116,"SoundDuration":185116,"Delta":110779547},{"NoteNumber":80,"Velocity":62,"Duration":92558,"SoundDuration":92558,"Delta":110872105},{"NoteNumber":69,"Velocity":77,"Duration":92262,"SoundDuration":92262,"Delta":110964663},{"NoteNumber":61,"Velocity":66,"Duration":184524,"SoundDuration":184524,"Delta":110964663},{"NoteNumber":79,"Velocity":61,"Duration":92262,"SoundDuration":92262,"Delta":111056926},{"NoteNumber":68,"Velocity":76,"Duration":92164,"SoundDuration":92164,"Delta":111149188},{"NoteNumber":60,"Velocity":64,"Duration":184132,"SoundDuration":184132,"Delta":111149188},{"NoteNumber":56,"Velocity":64,"Duration":2950625,"SoundDuration":2950625,"Delta":111149188},{"NoteNumber":80,"Velocity":60,"Duration":91968,"SoundDuration":91968,"Delta":111241352},{"NoteNumber":68,"Velocity":75,"Duration":91967,"SoundDuration":91967,"Delta":111333320},{"NoteNumber":60,"Velocity":63,"Duration":183643,"SoundDuration":183643,"Delta":111333320},{"NoteNumber":80,"Velocity":59,"Duration":91675,"SoundDuration":91675,"Delta":111425288},{"NoteNumber":68,"Velocity":74,"Duration":91675,"SoundDuration":91675,"Delta":111516964},{"NoteNumber":60,"Velocity":62,"Duration":183254,"SoundDuration":183254,"Delta":111516964},{"NoteNumber":80,"Velocity":59,"Duration":91579,"SoundDuration":91579,"Delta":111608639},{"NoteNumber":70,"Velocity":74,"Duration":91385,"SoundDuration":91385,"Delta":111700218},{"NoteNumber":61,"Velocity":60,"Duration":182771,"SoundDuration":182771,"Delta":111700218},{"NoteNumber":80,"Velocity":61,"Duration":91385,"SoundDuration":91385,"Delta":111791604},{"NoteNumber":72,"Velocity":76,"Duration":91385,"SoundDuration":91385,"Delta":111882989},{"NoteNumber":63,"Velocity":62,"Duration":182771,"SoundDuration":182771,"Delta":111882989},{"NoteNumber":80,"Velocity":59,"Duration":91385,"SoundDuration":91385,"Delta":111974375},{"NoteNumber":73,"Velocity":76,"Duration":91385,"SoundDuration":91385,"Delta":112065760},{"NoteNumber":64,"Velocity":62,"Duration":182770,"SoundDuration":182770,"Delta":112065760},{"NoteNumber":80,"Velocity":62,"Duration":91385,"SoundDuration":91385,"Delta":112157146},{"NoteNumber":75,"Velocity":77,"Duration":91385,"SoundDuration":91385,"Delta":112248531},{"NoteNumber":66,"Velocity":65,"Duration":182771,"SoundDuration":182771,"Delta":112248531},{"NoteNumber":80,"Velocity":61,"Duration":91385,"SoundDuration":91385,"Delta":112339917},{"NoteNumber":72,"Velocity":79,"Duration":91385,"SoundDuration":91385,"Delta":112431302},{"NoteNumber":63,"Velocity":67,"Duration":182771,"SoundDuration":182771,"Delta":112431302},{"NoteNumber":80,"Velocity":62,"Duration":91385,"SoundDuration":91385,"Delta":112522688},{"NoteNumber":75,"Velocity":79,"Duration":95316,"SoundDuration":95316,"Delta":112614073},{"NoteNumber":66,"Velocity":68,"Duration":190633,"SoundDuration":190633,"Delta":112614073},{"NoteNumber":80,"Velocity":62,"Duration":95316,"SoundDuration":95316,"Delta":112709390},{"NoteNumber":73,"Velocity":80,"Duration":95316,"SoundDuration":95316,"Delta":112804707},{"NoteNumber":64,"Velocity":68,"Duration":189713,"SoundDuration":189713,"Delta":112804707},{"NoteNumber":80,"Velocity":65,"Duration":94397,"SoundDuration":94397,"Delta":112900024},{"NoteNumber":78,"Velocity":84,"Duration":92558,"SoundDuration":92558,"Delta":112994421},{"NoteNumber":69,"Velocity":68,"Duration":185116,"SoundDuration":185116,"Delta":112994421},{"NoteNumber":80,"Velocity":68,"Duration":92558,"SoundDuration":92558,"Delta":113086979},{"NoteNumber":76,"Velocity":84,"Duration":92558,"SoundDuration":92558,"Delta":113179537},{"NoteNumber":68,"Velocity":67,"Duration":184820,"SoundDuration":184820,"Delta":113179537},{"NoteNumber":80,"Velocity":67,"Duration":92262,"SoundDuration":92262,"Delta":113272096},{"NoteNumber":75,"Velocity":84,"Duration":92262,"SoundDuration":92262,"Delta":113364358},{"NoteNumber":66,"Velocity":67,"Duration":184524,"SoundDuration":184524,"Delta":113364358},{"NoteNumber":80,"Velocity":67,"Duration":92262,"SoundDuration":92262,"Delta":113456620},{"NoteNumber":73,"Velocity":84,"Duration":91967,"SoundDuration":91967,"Delta":113548882},{"NoteNumber":64,"Velocity":67,"Duration":183936,"SoundDuration":183936,"Delta":113548882},{"NoteNumber":80,"Velocity":66,"Duration":91968,"SoundDuration":91968,"Delta":113640850},{"NoteNumber":72,"Velocity":84,"Duration":91967,"SoundDuration":91967,"Delta":113732818},{"NoteNumber":63,"Velocity":67,"Duration":183643,"SoundDuration":183643,"Delta":113732818},{"NoteNumber":80,"Velocity":67,"Duration":91675,"SoundDuration":91675,"Delta":113824786},{"NoteNumber":69,"Velocity":84,"Duration":91675,"SoundDuration":91675,"Delta":113916462},{"NoteNumber":61,"Velocity":67,"Duration":183351,"SoundDuration":183351,"Delta":113916462},{"NoteNumber":79,"Velocity":66,"Duration":91675,"SoundDuration":91675,"Delta":114008138},{"NoteNumber":68,"Velocity":84,"Duration":91385,"SoundDuration":91385,"Delta":114099814},{"NoteNumber":56,"Velocity":71,"Duration":91385,"SoundDuration":91385,"Delta":114099814},{"NoteNumber":60,"Velocity":71,"Duration":91385,"SoundDuration":91385,"Delta":114099814},{"NoteNumber":80,"Velocity":66,"Duration":91482,"SoundDuration":91482,"Delta":114191199},{"NoteNumber":69,"Velocity":79,"Duration":91773,"SoundDuration":91773,"Delta":114282681},{"NoteNumber":61,"Velocity":62,"Duration":91773,"SoundDuration":91773,"Delta":114282681},{"NoteNumber":56,"Velocity":62,"Duration":91773,"SoundDuration":91773,"Delta":114282681},{"NoteNumber":79,"Velocity":67,"Duration":92066,"SoundDuration":92066,"Delta":114374455},{"NoteNumber":68,"Velocity":84,"Duration":92360,"SoundDuration":92360,"Delta":114466521},{"NoteNumber":60,"Velocity":67,"Duration":92360,"SoundDuration":92360,"Delta":114466521},{"NoteNumber":56,"Velocity":67,"Duration":92360,"SoundDuration":92360,"Delta":114466521},{"NoteNumber":80,"Velocity":66,"Duration":92659,"SoundDuration":92659,"Delta":114558882},{"NoteNumber":69,"Velocity":79,"Duration":92961,"SoundDuration":92961,"Delta":114651541},{"NoteNumber":61,"Velocity":62,"Duration":92961,"SoundDuration":92961,"Delta":114651541},{"NoteNumber":56,"Velocity":62,"Duration":92961,"SoundDuration":92961,"Delta":114651541},{"NoteNumber":79,"Velocity":67,"Duration":93262,"SoundDuration":93262,"Delta":114744503},{"NoteNumber":68,"Velocity":84,"Duration":93463,"SoundDuration":93463,"Delta":114837766},{"NoteNumber":60,"Velocity":71,"Duration":93463,"SoundDuration":93463,"Delta":114837766},{"NoteNumber":56,"Velocity":71,"Duration":93463,"SoundDuration":93463,"Delta":114837766},{"NoteNumber":80,"Velocity":66,"Duration":93761,"SoundDuration":93761,"Delta":114931229},{"NoteNumber":69,"Velocity":79,"Duration":94073,"SoundDuration":94073,"Delta":115024991},{"NoteNumber":61,"Velocity":62,"Duration":94073,"SoundDuration":94073,"Delta":115024991},{"NoteNumber":56,"Velocity":62,"Duration":94073,"SoundDuration":94073,"Delta":115024991},{"NoteNumber":79,"Velocity":65,"Duration":94381,"SoundDuration":94381,"Delta":115119065},{"NoteNumber":68,"Velocity":84,"Duration":94690,"SoundDuration":94690,"Delta":115213446},{"NoteNumber":60,"Velocity":67,"Duration":94690,"SoundDuration":94690,"Delta":115213446},{"NoteNumber":56,"Velocity":67,"Duration":94690,"SoundDuration":94690,"Delta":115213446},{"NoteNumber":80,"Velocity":66,"Duration":95008,"SoundDuration":95008,"Delta":115308137},{"NoteNumber":69,"Velocity":79,"Duration":95316,"SoundDuration":95316,"Delta":115403146},{"NoteNumber":61,"Velocity":61,"Duration":95316,"SoundDuration":95316,"Delta":115403146},{"NoteNumber":56,"Velocity":61,"Duration":95316,"SoundDuration":95316,"Delta":115403146},{"NoteNumber":79,"Velocity":65,"Duration":95632,"SoundDuration":95632,"Delta":115498462},{"NoteNumber":68,"Velocity":84,"Duration":246043,"SoundDuration":246043,"Delta":115594095},{"NoteNumber":80,"Velocity":84,"Duration":246043,"SoundDuration":246043,"Delta":115594095},{"NoteNumber":56,"Velocity":71,"Duration":246043,"SoundDuration":246043,"Delta":115594095},{"NoteNumber":60,"Velocity":71,"Duration":246043,"SoundDuration":246043,"Delta":115594095},{"NoteNumber":56,"Velocity":113,"Duration":2159048,"SoundDuration":2159048,"Delta":116086181},{"NoteNumber":32,"Velocity":96,"Duration":2159048,"SoundDuration":2159048,"Delta":116086181},{"NoteNumber":44,"Velocity":96,"Duration":2159048,"SoundDuration":2159048,"Delta":116086181},{"NoteNumber":37,"Velocity":43,"Duration":89960,"SoundDuration":89960,"Delta":118245230},{"NoteNumber":44,"Velocity":47,"Duration":86212,"SoundDuration":86212,"Delta":118335191},{"NoteNumber":49,"Velocity":49,"Duration":104953,"SoundDuration":104953,"Delta":118425151},{"NoteNumber":44,"Velocity":39,"Duration":89960,"SoundDuration":89960,"Delta":118425151},{"NoteNumber":52,"Velocity":51,"Duration":104953,"SoundDuration":104953,"Delta":118515112},{"NoteNumber":56,"Velocity":52,"Duration":104953,"SoundDuration":104953,"Delta":118605072},{"NoteNumber":37,"Velocity":43,"Duration":89960,"SoundDuration":89960,"Delta":118605072},{"NoteNumber":49,"Velocity":47,"Duration":104953,"SoundDuration":104953,"Delta":118695033},{"NoteNumber":52,"Velocity":49,"Duration":104953,"SoundDuration":104953,"Delta":118784993},{"NoteNumber":44,"Velocity":39,"Duration":89960,"SoundDuration":89960,"Delta":118784993},{"NoteNumber":56,"Velocity":51,"Duration":104953,"SoundDuration":104953,"Delta":118874954},{"NoteNumber":61,"Velocity":52,"Duration":104953,"SoundDuration":104953,"Delta":118964914},{"NoteNumber":37,"Velocity":43,"Duration":89960,"SoundDuration":89960,"Delta":118964914},{"NoteNumber":52,"Velocity":47,"Duration":104953,"SoundDuration":104953,"Delta":119054875},{"NoteNumber":56,"Velocity":49,"Duration":104953,"SoundDuration":104953,"Delta":119144835},{"NoteNumber":44,"Velocity":39,"Duration":89960,"SoundDuration":89960,"Delta":119144835},{"NoteNumber":61,"Velocity":51,"Duration":104953,"SoundDuration":104953,"Delta":119234796},{"NoteNumber":64,"Velocity":52,"Duration":104953,"SoundDuration":104953,"Delta":119324756},{"NoteNumber":37,"Velocity":43,"Duration":89960,"SoundDuration":89960,"Delta":119324756},{"NoteNumber":56,"Velocity":48,"Duration":104953,"SoundDuration":104953,"Delta":119414717},{"NoteNumber":61,"Velocity":50,"Duration":104953,"SoundDuration":104953,"Delta":119504677},{"NoteNumber":44,"Velocity":39,"Duration":89960,"SoundDuration":89960,"Delta":119504677},{"NoteNumber":64,"Velocity":51,"Duration":104953,"SoundDuration":104953,"Delta":119594638},{"NoteNumber":68,"Velocity":52,"Duration":104953,"SoundDuration":104953,"Delta":119684598},{"NoteNumber":37,"Velocity":43,"Duration":89960,"SoundDuration":89960,"Delta":119684598},{"NoteNumber":61,"Velocity":47,"Duration":104953,"SoundDuration":104953,"Delta":119774559},{"NoteNumber":64,"Velocity":47,"Duration":104953,"SoundDuration":104953,"Delta":119864519},{"NoteNumber":44,"Velocity":39,"Duration":89960,"SoundDuration":89960,"Delta":119864519},{"NoteNumber":68,"Velocity":50,"Duration":104953,"SoundDuration":104953,"Delta":119954480},{"NoteNumber":73,"Velocity":52,"Duration":104953,"SoundDuration":104953,"Delta":120044440},{"NoteNumber":37,"Velocity":43,"Duration":89960,"SoundDuration":89960,"Delta":120044440},{"NoteNumber":64,"Velocity":47,"Duration":104953,"SoundDuration":104953,"Delta":120134401},{"NoteNumber":68,"Velocity":50,"Duration":104953,"SoundDuration":104953,"Delta":120224361},{"NoteNumber":44,"Velocity":39,"Duration":89960,"SoundDuration":89960,"Delta":120224361},{"NoteNumber":73,"Velocity":51,"Duration":104953,"SoundDuration":104953,"Delta":120314322},{"NoteNumber":76,"Velocity":54,"Duration":86212,"SoundDuration":86212,"Delta":120404282},{"NoteNumber":37,"Velocity":43,"Duration":89960,"SoundDuration":89960,"Delta":120404282},{"NoteNumber":76,"Velocity":51,"Duration":104953,"SoundDuration":104953,"Delta":120494243},{"NoteNumber":80,"Velocity":51,"Duration":104953,"SoundDuration":104953,"Delta":120584203},{"NoteNumber":44,"Velocity":43,"Duration":89960,"SoundDuration":89960,"Delta":120584203},{"NoteNumber":85,"Velocity":53,"Duration":89960,"SoundDuration":89960,"Delta":120674164},{"NoteNumber":76,"Velocity":95,"Duration":92558,"SoundDuration":92558,"Delta":120764124},{"NoteNumber":88,"Velocity":112,"Duration":92558,"SoundDuration":92558,"Delta":120764124},{"NoteNumber":49,"Velocity":89,"Duration":92558,"SoundDuration":92558,"Delta":120764124},{"NoteNumber":37,"Velocity":75,"Duration":92558,"SoundDuration":92558,"Delta":120764124},{"NoteNumber":76,"Velocity":74,"Duration":92558,"SoundDuration":92558,"Delta":120949241},{"NoteNumber":88,"Velocity":88,"Duration":92558,"SoundDuration":92558,"Delta":120949241},{"NoteNumber":44,"Velocity":74,"Duration":92558,"SoundDuration":92558,"Delta":120949241},{"NoteNumber":34,"Velocity":40,"Duration":89960,"SoundDuration":89960,"Delta":121134357},{"NoteNumber":52,"Velocity":46,"Duration":104953,"SoundDuration":104953,"Delta":121224318},{"NoteNumber":55,"Velocity":48,"Duration":104953,"SoundDuration":104953,"Delta":121314278},{"NoteNumber":49,"Velocity":37,"Duration":89960,"SoundDuration":89960,"Delta":121314278},{"NoteNumber":61,"Velocity":50,"Duration":104953,"SoundDuration":104953,"Delta":121404239},{"NoteNumber":64,"Velocity":51,"Duration":104953,"SoundDuration":104953,"Delta":121494199},{"NoteNumber":46,"Velocity":40,"Duration":89960,"SoundDuration":89960,"Delta":121494199},{"NoteNumber":55,"Velocity":47,"Duration":104953,"SoundDuration":104953,"Delta":121584160},{"NoteNumber":61,"Velocity":49,"Duration":104953,"SoundDuration":104953,"Delta":121674120},{"NoteNumber":49,"Velocity":40,"Duration":89960,"SoundDuration":89960,"Delta":121674120},{"NoteNumber":64,"Velocity":51,"Duration":104953,"SoundDuration":104953,"Delta":121764081},{"NoteNumber":67,"Velocity":51,"Duration":104953,"SoundDuration":104953,"Delta":121854041},{"NoteNumber":46,"Velocity":40,"Duration":89960,"SoundDuration":89960,"Delta":121854041},{"NoteNumber":61,"Velocity":50,"Duration":104953,"SoundDuration":104953,"Delta":121944002},{"NoteNumber":64,"Velocity":49,"Duration":104953,"SoundDuration":104953,"Delta":122033962},{"NoteNumber":49,"Velocity":37,"Duration":89960,"SoundDuration":89960,"Delta":122033962},{"NoteNumber":67,"Velocity":51,"Duration":104953,"SoundDuration":104953,"Delta":122123923},{"NoteNumber":73,"Velocity":52,"Duration":104953,"SoundDuration":104953,"Delta":122213883},{"NoteNumber":46,"Velocity":40,"Duration":89960,"SoundDuration":89960,"Delta":122213883},{"NoteNumber":64,"Velocity":47,"Duration":104953,"SoundDuration":104953,"Delta":122303844},{"NoteNumber":67,"Velocity":49,"Duration":104953,"SoundDuration":104953,"Delta":122393804},{"NoteNumber":49,"Velocity":40,"Duration":89960,"SoundDuration":89960,"Delta":122393804},{"NoteNumber":73,"Velocity":51,"Duration":104953,"SoundDuration":104953,"Delta":122483765},{"NoteNumber":76,"Velocity":52,"Duration":104953,"SoundDuration":104953,"Delta":122573725},{"NoteNumber":46,"Velocity":40,"Duration":89960,"SoundDuration":89960,"Delta":122573725},{"NoteNumber":67,"Velocity":48,"Duration":104953,"SoundDuration":104953,"Delta":122663686},{"NoteNumber":73,"Velocity":48,"Duration":104953,"SoundDuration":104953,"Delta":122753646},{"NoteNumber":49,"Velocity":37,"Duration":89960,"SoundDuration":89960,"Delta":122753646},{"NoteNumber":76,"Velocity":50,"Duration":104953,"SoundDuration":104953,"Delta":122843607},{"NoteNumber":79,"Velocity":52,"Duration":104953,"SoundDuration":104953,"Delta":122933567},{"NoteNumber":46,"Velocity":40,"Duration":89960,"SoundDuration":89960,"Delta":122933567},{"NoteNumber":73,"Velocity":47,"Duration":104953,"SoundDuration":104953,"Delta":123023528},{"NoteNumber":76,"Velocity":50,"Duration":104953,"SoundDuration":104953,"Delta":123113488},{"NoteNumber":49,"Velocity":37,"Duration":89960,"SoundDuration":89960,"Delta":123113488},{"NoteNumber":79,"Velocity":51,"Duration":104953,"SoundDuration":104953,"Delta":123203449},{"NoteNumber":85,"Velocity":54,"Duration":104953,"SoundDuration":104953,"Delta":123293409},{"NoteNumber":46,"Velocity":40,"Duration":89960,"SoundDuration":89960,"Delta":123293409},{"NoteNumber":76,"Velocity":51,"Duration":104953,"SoundDuration":104953,"Delta":123383370},{"NoteNumber":79,"Velocity":54,"Duration":104953,"SoundDuration":104953,"Delta":123473330},{"NoteNumber":49,"Velocity":38,"Duration":89960,"SoundDuration":89960,"Delta":123473330},{"NoteNumber":85,"Velocity":57,"Duration":89960,"SoundDuration":89960,"Delta":123563291},{"NoteNumber":88,"Velocity":110,"Duration":91675,"SoundDuration":91675,"Delta":123653251},{"NoteNumber":76,"Velocity":93,"Duration":91675,"SoundDuration":91675,"Delta":123653251},{"NoteNumber":46,"Velocity":83,"Duration":91675,"SoundDuration":91675,"Delta":123653251},{"NoteNumber":34,"Velocity":71,"Duration":91675,"SoundDuration":91675,"Delta":123653251},{"NoteNumber":76,"Velocity":73,"Duration":91675,"SoundDuration":91675,"Delta":123836603},{"NoteNumber":88,"Velocity":87,"Duration":91675,"SoundDuration":91675,"Delta":123836603},{"NoteNumber":49,"Velocity":72,"Duration":91675,"SoundDuration":91675,"Delta":123836603},{"NoteNumber":31,"Velocity":39,"Duration":89960,"SoundDuration":89960,"Delta":124019954},{"NoteNumber":51,"Velocity":50,"Duration":86212,"SoundDuration":86212,"Delta":124109915},{"NoteNumber":58,"Velocity":51,"Duration":104953,"SoundDuration":104953,"Delta":124199875},{"NoteNumber":51,"Velocity":39,"Duration":89960,"SoundDuration":89960,"Delta":124199875},{"NoteNumber":61,"Velocity":51,"Duration":104953,"SoundDuration":104953,"Delta":124289836},{"NoteNumber":63,"Velocity":51,"Duration":104953,"SoundDuration":104953,"Delta":124379796},{"NoteNumber":43,"Velocity":40,"Duration":89960,"SoundDuration":89960,"Delta":124379796},{"NoteNumber":58,"Velocity":52,"Duration":104953,"SoundDuration":104953,"Delta":124469757},{"NoteNumber":61,"Velocity":53,"Duration":104953,"SoundDuration":104953,"Delta":124559717},{"NoteNumber":51,"Velocity":42,"Duration":89960,"SoundDuration":89960,"Delta":124559717},{"NoteNumber":63,"Velocity":54,"Duration":104953,"SoundDuration":104953,"Delta":124649678},{"NoteNumber":70,"Velocity":56,"Duration":104953,"SoundDuration":104953,"Delta":124739638},{"NoteNumber":43,"Velocity":43,"Duration":89960,"SoundDuration":89960,"Delta":124739638},{"NoteNumber":61,"Velocity":56,"Duration":104953,"SoundDuration":104953,"Delta":124829599},{"NoteNumber":63,"Velocity":57,"Duration":104953,"SoundDuration":104953,"Delta":124919559},{"NoteNumber":51,"Velocity":43,"Duration":89960,"SoundDuration":89960,"Delta":124919559},{"NoteNumber":70,"Velocity":57,"Duration":104953,"SoundDuration":104953,"Delta":125009520},{"NoteNumber":73,"Velocity":58,"Duration":104953,"SoundDuration":104953,"Delta":125099480},{"NoteNumber":43,"Velocity":45,"Duration":89960,"SoundDuration":89960,"Delta":125099480},{"NoteNumber":63,"Velocity":59,"Duration":104953,"SoundDuration":104953,"Delta":125189441},{"NoteNumber":70,"Velocity":60,"Duration":104953,"SoundDuration":104953,"Delta":125279401},{"NoteNumber":51,"Velocity":45,"Duration":89960,"SoundDuration":89960,"Delta":125279401},{"NoteNumber":73,"Velocity":61,"Duration":104953,"SoundDuration":104953,"Delta":125369362},{"NoteNumber":75,"Velocity":62,"Duration":104953,"SoundDuration":104953,"Delta":125459322},{"NoteNumber":43,"Velocity":47,"Duration":89960,"SoundDuration":89960,"Delta":125459322},{"NoteNumber":70,"Velocity":62,"Duration":104953,"SoundDuration":104953,"Delta":125549283},{"NoteNumber":73,"Velocity":62,"Duration":104953,"SoundDuration":104953,"Delta":125639243},{"NoteNumber":51,"Velocity":48,"Duration":89960,"SoundDuration":89960,"Delta":125639243},{"NoteNumber":75,"Velocity":62,"Duration":104953,"SoundDuration":104953,"Delta":125729204},{"NoteNumber":82,"Velocity":63,"Duration":104953,"SoundDuration":104953,"Delta":125819164},{"NoteNumber":43,"Velocity":49,"Duration":89960,"SoundDuration":89960,"Delta":125819164},{"NoteNumber":73,"Velocity":65,"Duration":104953,"SoundDuration":104953,"Delta":125909125},{"NoteNumber":75,"Velocity":66,"Duration":104953,"SoundDuration":104953,"Delta":125999085},{"NoteNumber":51,"Velocity":51,"Duration":89960,"SoundDuration":89960,"Delta":125999085},{"NoteNumber":82,"Velocity":67,"Duration":104953,"SoundDuration":104953,"Delta":126089046},{"NoteNumber":85,"Velocity":67,"Duration":105374,"SoundDuration":105374,"Delta":126179006},{"NoteNumber":43,"Velocity":51,"Duration":90240,"SoundDuration":90240,"Delta":126179006},{"NoteNumber":82,"Velocity":65,"Duration":106374,"SoundDuration":106374,"Delta":126269247},{"NoteNumber":75,"Velocity":62,"Duration":107395,"SoundDuration":107395,"Delta":126360342},{"NoteNumber":51,"Velocity":48,"Duration":91968,"SoundDuration":91968,"Delta":126360342},{"NoteNumber":73,"Velocity":61,"Duration":108438,"SoundDuration":108438,"Delta":126452311},{"NoteNumber":82,"Velocity":59,"Duration":109496,"SoundDuration":109496,"Delta":126545172},{"NoteNumber":43,"Velocity":47,"Duration":93766,"SoundDuration":93766,"Delta":126545172},{"NoteNumber":75,"Velocity":57,"Duration":110579,"SoundDuration":110579,"Delta":126638938},{"NoteNumber":73,"Velocity":56,"Duration":111679,"SoundDuration":111679,"Delta":126733632},{"NoteNumber":51,"Velocity":45,"Duration":95633,"SoundDuration":95633,"Delta":126733632},{"NoteNumber":70,"Velocity":52,"Duration":112586,"SoundDuration":112586,"Delta":126829265},{"NoteNumber":71,"Velocity":49,"Duration":205606,"SoundDuration":205606,"Delta":126924718},{"NoteNumber":44,"Velocity":33,"Duration":119936,"SoundDuration":119936,"Delta":126924718},{"NoteNumber":51,"Velocity":25,"Duration":119936,"SoundDuration":119936,"Delta":127027521},{"NoteNumber":47,"Velocity":28,"Duration":119936,"SoundDuration":119936,"Delta":127130324},{"NoteNumber":51,"Velocity":25,"Duration":118708,"SoundDuration":118708,"Delta":127233127},{"NoteNumber":75,"Velocity":61,"Duration":756229,"SoundDuration":756229,"Delta":127335930},{"NoteNumber":44,"Velocity":35,"Duration":90584,"SoundDuration":90584,"Delta":127335930},{"NoteNumber":51,"Velocity":27,"Duration":89765,"SoundDuration":89765,"Delta":127427268},{"NoteNumber":47,"Velocity":35,"Duration":89765,"SoundDuration":89765,"Delta":127517788},{"NoteNumber":51,"Velocity":30,"Duration":89765,"SoundDuration":89765,"Delta":127608307},{"NoteNumber":44,"Velocity":37,"Duration":89765,"SoundDuration":89765,"Delta":127698827},{"NoteNumber":51,"Velocity":27,"Duration":89765,"SoundDuration":89765,"Delta":127789346},{"NoteNumber":47,"Velocity":39,"Duration":96766,"SoundDuration":96766,"Delta":127879866},{"NoteNumber":51,"Velocity":30,"Duration":96766,"SoundDuration":96766,"Delta":127977446},{"NoteNumber":71,"Velocity":56,"Duration":308409,"SoundDuration":308409,"Delta":128075026},{"NoteNumber":44,"Velocity":39,"Duration":101946,"SoundDuration":101946,"Delta":128075026},{"NoteNumber":51,"Velocity":31,"Duration":101946,"SoundDuration":101946,"Delta":128177829},{"NoteNumber":47,"Velocity":40,"Duration":101946,"SoundDuration":101946,"Delta":128280632},{"NoteNumber":68,"Velocity":56,"Duration":71258,"SoundDuration":71258,"Delta":128383435},{"NoteNumber":51,"Velocity":33,"Duration":141330,"SoundDuration":141330,"Delta":128383435},{"NoteNumber":67,"Velocity":44,"Duration":23752,"SoundDuration":23752,"Delta":128454693},{"NoteNumber":68,"Velocity":44,"Duration":23752,"SoundDuration":23752,"Delta":128478446},{"NoteNumber":70,"Velocity":44,"Duration":23752,"SoundDuration":23752,"Delta":128502199},{"NoteNumber":68,"Velocity":63,"Duration":404090,"SoundDuration":404090,"Delta":128525952},{"NoteNumber":46,"Velocity":33,"Duration":113459,"SoundDuration":113459,"Delta":128525952},{"NoteNumber":51,"Velocity":26,"Duration":113459,"SoundDuration":113459,"Delta":128623203},{"NoteNumber":49,"Velocity":29,"Duration":113459,"SoundDuration":113459,"Delta":128720454},{"NoteNumber":51,"Velocity":26,"Duration":112337,"SoundDuration":112337,"Delta":128817705},{"NoteNumber":67,"Velocity":56,"Duration":543116,"SoundDuration":543116,"Delta":128914956},{"NoteNumber":46,"Velocity":42,"Duration":89765,"SoundDuration":89765,"Delta":128914956},{"NoteNumber":51,"Velocity":32,"Duration":89765,"SoundDuration":89765,"Delta":129005476},{"NoteNumber":49,"Velocity":40,"Duration":89765,"SoundDuration":89765,"Delta":129095995},{"NoteNumber":51,"Velocity":40,"Duration":89765,"SoundDuration":89765,"Delta":129186515},{"NoteNumber":46,"Velocity":49,"Duration":89765,"SoundDuration":89765,"Delta":129277034},{"NoteNumber":51,"Velocity":40,"Duration":89765,"SoundDuration":89765,"Delta":129367554},{"NoteNumber":67,"Velocity":56,"Duration":216474,"SoundDuration":216474,"Delta":129458073},{"NoteNumber":49,"Velocity":46,"Duration":98778,"SoundDuration":98778,"Delta":129458073},{"NoteNumber":51,"Velocity":41,"Duration":98778,"SoundDuration":98778,"Delta":129557682},{"NoteNumber":75,"Velocity":68,"Duration":310644,"SoundDuration":310644,"Delta":129657290},{"NoteNumber":46,"Velocity":56,"Duration":102685,"SoundDuration":102685,"Delta":129657290},{"NoteNumber":51,"Velocity":41,"Duration":102685,"SoundDuration":102685,"Delta":129760838},{"NoteNumber":49,"Velocity":43,"Duration":102685,"SoundDuration":102685,"Delta":129864386},{"NoteNumber":67,"Velocity":57,"Duration":103548,"SoundDuration":103548,"Delta":129967935},{"NoteNumber":51,"Velocity":36,"Duration":102685,"SoundDuration":102685,"Delta":129967935},{"NoteNumber":70,"Velocity":51,"Duration":402665,"SoundDuration":402665,"Delta":130071483},{"NoteNumber":47,"Velocity":33,"Duration":96110,"SoundDuration":96110,"Delta":130071483},{"NoteNumber":51,"Velocity":29,"Duration":96110,"SoundDuration":96110,"Delta":130168401},{"NoteNumber":47,"Velocity":30,"Duration":96110,"SoundDuration":96110,"Delta":130265319},{"NoteNumber":51,"Velocity":26,"Duration":96110,"SoundDuration":96110,"Delta":130362237},{"NoteNumber":68,"Velocity":56,"Duration":539762,"SoundDuration":539762,"Delta":130459155},{"NoteNumber":47,"Velocity":41,"Duration":89210,"SoundDuration":89210,"Delta":130459155},{"NoteNumber":51,"Velocity":32,"Duration":89210,"SoundDuration":89210,"Delta":130549115},{"NoteNumber":47,"Velocity":39,"Duration":89210,"SoundDuration":89210,"Delta":130639076},{"NoteNumber":51,"Velocity":36,"Duration":89210,"SoundDuration":89210,"Delta":130729036},{"NoteNumber":47,"Velocity":49,"Duration":89210,"SoundDuration":89210,"Delta":130818997},{"NoteNumber":51,"Velocity":38,"Duration":89210,"SoundDuration":89210,"Delta":130908957},{"NoteNumber":68,"Velocity":53,"Duration":209688,"SoundDuration":209688,"Delta":130998918},{"NoteNumber":47,"Velocity":48,"Duration":95474,"SoundDuration":95474,"Delta":130998918},{"NoteNumber":51,"Velocity":42,"Duration":95474,"SoundDuration":95474,"Delta":131095195},{"NoteNumber":75,"Velocity":68,"Duration":308409,"SoundDuration":308409,"Delta":131191472},{"NoteNumber":47,"Velocity":54,"Duration":101946,"SoundDuration":101946,"Delta":131191472},{"NoteNumber":51,"Velocity":41,"Duration":101946,"SoundDuration":101946,"Delta":131294275},{"NoteNumber":47,"Velocity":43,"Duration":101946,"SoundDuration":101946,"Delta":131397078},{"NoteNumber":68,"Velocity":56,"Duration":102802,"SoundDuration":102802,"Delta":131499881},{"NoteNumber":51,"Velocity":35,"Duration":101946,"SoundDuration":101946,"Delta":131499881},{"NoteNumber":71,"Velocity":57,"Duration":402758,"SoundDuration":402758,"Delta":131602684},{"NoteNumber":43,"Velocity":32,"Duration":96110,"SoundDuration":96110,"Delta":131602684},{"NoteNumber":51,"Velocity":29,"Duration":96110,"SoundDuration":96110,"Delta":131699602},{"NoteNumber":43,"Velocity":29,"Duration":96110,"SoundDuration":96110,"Delta":131796520},{"NoteNumber":51,"Velocity":26,"Duration":96110,"SoundDuration":96110,"Delta":131893438},{"NoteNumber":70,"Velocity":56,"Duration":543116,"SoundDuration":543116,"Delta":131990356},{"NoteNumber":43,"Velocity":41,"Duration":89765,"SoundDuration":89765,"Delta":131990356},{"NoteNumber":51,"Velocity":40,"Duration":89765,"SoundDuration":89765,"Delta":132080876},{"NoteNumber":43,"Velocity":42,"Duration":89765,"SoundDuration":89765,"Delta":132171395},{"NoteNumber":51,"Velocity":40,"Duration":89765,"SoundDuration":89765,"Delta":132261915},{"NoteNumber":43,"Velocity":48,"Duration":89765,"SoundDuration":89765,"Delta":132352434},{"NoteNumber":51,"Velocity":43,"Duration":89765,"SoundDuration":89765,"Delta":132442954},{"NoteNumber":70,"Velocity":57,"Duration":222739,"SoundDuration":222739,"Delta":132533473},{"NoteNumber":43,"Velocity":49,"Duration":101946,"SoundDuration":101946,"Delta":132533473},{"NoteNumber":51,"Velocity":42,"Duration":101946,"SoundDuration":101946,"Delta":132636276},{"NoteNumber":75,"Velocity":53,"Duration":308409,"SoundDuration":308409,"Delta":132739079},{"NoteNumber":43,"Velocity":54,"Duration":101946,"SoundDuration":101946,"Delta":132739079},{"NoteNumber":51,"Velocity":38,"Duration":101946,"SoundDuration":101946,"Delta":132841882},{"NoteNumber":43,"Velocity":42,"Duration":101946,"SoundDuration":101946,"Delta":132944685},{"NoteNumber":70,"Velocity":57,"Duration":102802,"SoundDuration":102802,"Delta":133047488},{"NoteNumber":51,"Velocity":35,"Duration":101946,"SoundDuration":101946,"Delta":133047488},{"NoteNumber":71,"Velocity":59,"Duration":185116,"SoundDuration":185116,"Delta":133150291},{"NoteNumber":44,"Velocity":39,"Duration":107984,"SoundDuration":107984,"Delta":133150291},{"NoteNumber":51,"Velocity":33,"Duration":107984,"SoundDuration":107984,"Delta":133242850},{"NoteNumber":87,"Velocity":59,"Duration":370233,"SoundDuration":370233,"Delta":133335408},{"NoteNumber":75,"Velocity":49,"Duration":370233,"SoundDuration":370233,"Delta":133335408},{"NoteNumber":47,"Velocity":35,"Duration":91786,"SoundDuration":91786,"Delta":133335408},{"NoteNumber":51,"Velocity":31,"Duration":91786,"SoundDuration":91786,"Delta":133427966},{"NoteNumber":44,"Velocity":40,"Duration":91786,"SoundDuration":91786,"Delta":133520524},{"NoteNumber":51,"Velocity":31,"Duration":91786,"SoundDuration":91786,"Delta":133613083},{"NoteNumber":75,"Velocity":49,"Duration":370232,"SoundDuration":370232,"Delta":133705641},{"NoteNumber":87,"Velocity":58,"Duration":370232,"SoundDuration":370232,"Delta":133705641},{"NoteNumber":47,"Velocity":34,"Duration":91786,"SoundDuration":91786,"Delta":133705641},{"NoteNumber":51,"Velocity":31,"Duration":91786,"SoundDuration":91786,"Delta":133798199},{"NoteNumber":44,"Velocity":41,"Duration":91786,"SoundDuration":91786,"Delta":133890757},{"NoteNumber":51,"Velocity":32,"Duration":91786,"SoundDuration":91786,"Delta":133983316},{"NoteNumber":75,"Velocity":47,"Duration":89960,"SoundDuration":89960,"Delta":134075874},{"NoteNumber":87,"Velocity":56,"Duration":89960,"SoundDuration":89960,"Delta":134075874},{"NoteNumber":47,"Velocity":35,"Duration":89210,"SoundDuration":89210,"Delta":134075874},{"NoteNumber":51,"Velocity":32,"Duration":89210,"SoundDuration":89210,"Delta":134165834},{"NoteNumber":71,"Velocity":49,"Duration":89960,"SoundDuration":89960,"Delta":134255795},{"NoteNumber":83,"Velocity":58,"Duration":89960,"SoundDuration":89960,"Delta":134255795},{"NoteNumber":44,"Velocity":43,"Duration":104953,"SoundDuration":104953,"Delta":134255795},{"NoteNumber":51,"Velocity":33,"Duration":104953,"SoundDuration":104953,"Delta":134345755},{"NoteNumber":80,"Velocity":59,"Duration":89960,"SoundDuration":89960,"Delta":134435716},{"NoteNumber":68,"Velocity":49,"Duration":89960,"SoundDuration":89960,"Delta":134435716},{"NoteNumber":47,"Velocity":37,"Duration":104953,"SoundDuration":104953,"Delta":134435716},{"NoteNumber":51,"Velocity":33,"Duration":104953,"SoundDuration":104953,"Delta":134525676},{"NoteNumber":68,"Velocity":51,"Duration":89960,"SoundDuration":89960,"Delta":134615637},{"NoteNumber":80,"Velocity":61,"Duration":89960,"SoundDuration":89960,"Delta":134615637},{"NoteNumber":46,"Velocity":46,"Duration":104953,"SoundDuration":104953,"Delta":134615637},{"NoteNumber":51,"Velocity":34,"Duration":105487,"SoundDuration":105487,"Delta":134705597},{"NoteNumber":67,"Velocity":52,"Duration":372647,"SoundDuration":372647,"Delta":134795558},{"NoteNumber":79,"Velocity":62,"Duration":372647,"SoundDuration":372647,"Delta":134795558},{"NoteNumber":49,"Velocity":39,"Duration":92385,"SoundDuration":92385,"Delta":134795558},{"NoteNumber":51,"Velocity":34,"Duration":92385,"SoundDuration":92385,"Delta":134888720},{"NoteNumber":46,"Velocity":47,"Duration":92385,"SoundDuration":92385,"Delta":134981882},{"NoteNumber":51,"Velocity":35,"Duration":92385,"SoundDuration":92385,"Delta":135075044},{"NoteNumber":79,"Velocity":68,"Duration":372647,"SoundDuration":372647,"Delta":135168206},{"NoteNumber":67,"Velocity":57,"Duration":372647,"SoundDuration":372647,"Delta":135168206},{"NoteNumber":49,"Velocity":40,"Duration":92385,"SoundDuration":92385,"Delta":135168206},{"NoteNumber":51,"Velocity":40,"Duration":92385,"SoundDuration":92385,"Delta":135261368},{"NoteNumber":46,"Velocity":49,"Duration":92385,"SoundDuration":92385,"Delta":135354530},{"NoteNumber":51,"Velocity":35,"Duration":92385,"SoundDuration":92385,"Delta":135447692},{"NoteNumber":79,"Velocity":69,"Duration":89960,"SoundDuration":89960,"Delta":135540854},{"NoteNumber":67,"Velocity":58,"Duration":89960,"SoundDuration":89960,"Delta":135540854},{"NoteNumber":49,"Velocity":41,"Duration":89210,"SoundDuration":89210,"Delta":135540854},{"NoteNumber":51,"Velocity":35,"Duration":89210,"SoundDuration":89210,"Delta":135630814},{"NoteNumber":75,"Velocity":60,"Duration":89960,"SoundDuration":89960,"Delta":135720775},{"NoteNumber":87,"Velocity":71,"Duration":89960,"SoundDuration":89960,"Delta":135720775},{"NoteNumber":46,"Velocity":50,"Duration":104953,"SoundDuration":104953,"Delta":135720775},{"NoteNumber":51,"Velocity":42,"Duration":104953,"SoundDuration":104953,"Delta":135810735},{"NoteNumber":67,"Velocity":61,"Duration":89960,"SoundDuration":89960,"Delta":135900696},{"NoteNumber":79,"Velocity":73,"Duration":89960,"SoundDuration":89960,"Delta":135900696},{"NoteNumber":49,"Velocity":45,"Duration":104953,"SoundDuration":104953,"Delta":135900696},{"NoteNumber":51,"Velocity":42,"Duration":104953,"SoundDuration":104953,"Delta":135990656},{"NoteNumber":82,"Velocity":74,"Duration":89960,"SoundDuration":89960,"Delta":136080617},{"NoteNumber":70,"Velocity":62,"Duration":89960,"SoundDuration":89960,"Delta":136080617},{"NoteNumber":47,"Velocity":51,"Duration":104953,"SoundDuration":104953,"Delta":136080617},{"NoteNumber":51,"Velocity":43,"Duration":105487,"SoundDuration":105487,"Delta":136170577},{"NoteNumber":68,"Velocity":63,"Duration":372647,"SoundDuration":372647,"Delta":136260538},{"NoteNumber":80,"Velocity":75,"Duration":372647,"SoundDuration":372647,"Delta":136260538},{"NoteNumber":47,"Velocity":47,"Duration":92385,"SoundDuration":92385,"Delta":136260538},{"NoteNumber":51,"Velocity":43,"Duration":92385,"SoundDuration":92385,"Delta":136353700},{"NoteNumber":47,"Velocity":52,"Duration":92385,"SoundDuration":92385,"Delta":136446862},{"NoteNumber":51,"Velocity":44,"Duration":92385,"SoundDuration":92385,"Delta":136540024},{"NoteNumber":68,"Velocity":68,"Duration":372647,"SoundDuration":372647,"Delta":136633186},{"NoteNumber":80,"Velocity":80,"Duration":372647,"SoundDuration":372647,"Delta":136633186},{"NoteNumber":47,"Velocity":48,"Duration":92385,"SoundDuration":92385,"Delta":136633186},{"NoteNumber":51,"Velocity":44,"Duration":92385,"SoundDuration":92385,"Delta":136726348},{"NoteNumber":47,"Velocity":56,"Duration":92385,"SoundDuration":92385,"Delta":136819510},{"NoteNumber":51,"Velocity":46,"Duration":92385,"SoundDuration":92385,"Delta":136912672},{"NoteNumber":80,"Velocity":82,"Duration":90804,"SoundDuration":90804,"Delta":137005834},{"NoteNumber":68,"Velocity":69,"Duration":90804,"SoundDuration":90804,"Delta":137005834},{"NoteNumber":47,"Velocity":50,"Duration":105938,"SoundDuration":105938,"Delta":137005834},{"NoteNumber":51,"Velocity":45,"Duration":105938,"SoundDuration":105938,"Delta":137096638},{"NoteNumber":87,"Velocity":85,"Duration":90804,"SoundDuration":90804,"Delta":137187443},{"NoteNumber":75,"Velocity":72,"Duration":90804,"SoundDuration":90804,"Delta":137187443},{"NoteNumber":47,"Velocity":57,"Duration":105938,"SoundDuration":105938,"Delta":137187443},{"NoteNumber":51,"Velocity":47,"Duration":105938,"SoundDuration":105938,"Delta":137278247},{"NoteNumber":68,"Velocity":73,"Duration":90804,"SoundDuration":90804,"Delta":137369052},{"NoteNumber":80,"Velocity":86,"Duration":90804,"SoundDuration":90804,"Delta":137369052},{"NoteNumber":47,"Velocity":51,"Duration":105938,"SoundDuration":105938,"Delta":137369052},{"NoteNumber":51,"Velocity":47,"Duration":105938,"SoundDuration":105938,"Delta":137459856},{"NoteNumber":71,"Velocity":73,"Duration":90804,"SoundDuration":90804,"Delta":137550661},{"NoteNumber":83,"Velocity":86,"Duration":90804,"SoundDuration":90804,"Delta":137550661},{"NoteNumber":43,"Velocity":59,"Duration":105938,"SoundDuration":105938,"Delta":137550661},{"NoteNumber":51,"Velocity":52,"Duration":106181,"SoundDuration":106181,"Delta":137641465},{"NoteNumber":70,"Velocity":74,"Duration":369048,"SoundDuration":369048,"Delta":137732270},{"NoteNumber":82,"Velocity":89,"Duration":369048,"SoundDuration":369048,"Delta":137732270},{"NoteNumber":43,"Velocity":56,"Duration":91493,"SoundDuration":91493,"Delta":137732270},{"NoteNumber":51,"Velocity":51,"Duration":91493,"SoundDuration":91493,"Delta":137824532},{"NoteNumber":43,"Velocity":60,"Duration":91493,"SoundDuration":91493,"Delta":137916794},{"NoteNumber":51,"Velocity":53,"Duration":91493,"SoundDuration":91493,"Delta":138009057},{"NoteNumber":70,"Velocity":79,"Duration":369049,"SoundDuration":369049,"Delta":138101319},{"NoteNumber":82,"Velocity":93,"Duration":369049,"SoundDuration":369049,"Delta":138101319},{"NoteNumber":43,"Velocity":57,"Duration":91493,"SoundDuration":91493,"Delta":138101319},{"NoteNumber":51,"Velocity":52,"Duration":91493,"SoundDuration":91493,"Delta":138193581},{"NoteNumber":43,"Velocity":62,"Duration":91493,"SoundDuration":91493,"Delta":138285843},{"NoteNumber":51,"Velocity":54,"Duration":91493,"SoundDuration":91493,"Delta":138378106},{"NoteNumber":70,"Velocity":79,"Duration":92262,"SoundDuration":92262,"Delta":138470368},{"NoteNumber":82,"Velocity":93,"Duration":92262,"SoundDuration":92262,"Delta":138470368},{"NoteNumber":43,"Velocity":59,"Duration":107639,"SoundDuration":107639,"Delta":138470368},{"NoteNumber":51,"Velocity":53,"Duration":107639,"SoundDuration":107639,"Delta":138562630},{"NoteNumber":87,"Velocity":93,"Duration":92262,"SoundDuration":92262,"Delta":138654892},{"NoteNumber":75,"Velocity":93,"Duration":92262,"SoundDuration":92262,"Delta":138654892},{"NoteNumber":43,"Velocity":62,"Duration":107639,"SoundDuration":107639,"Delta":138654892},{"NoteNumber":51,"Velocity":54,"Duration":107639,"SoundDuration":107639,"Delta":138747155},{"NoteNumber":82,"Velocity":93,"Duration":92262,"SoundDuration":92262,"Delta":138839417},{"NoteNumber":70,"Velocity":79,"Duration":92262,"SoundDuration":92262,"Delta":138839417},{"NoteNumber":43,"Velocity":60,"Duration":107639,"SoundDuration":107639,"Delta":138839417},{"NoteNumber":51,"Velocity":53,"Duration":107255,"SoundDuration":107255,"Delta":138931679},{"NoteNumber":72,"Velocity":80,"Duration":719684,"SoundDuration":719684,"Delta":139023941},{"NoteNumber":84,"Velocity":95,"Duration":719684,"SoundDuration":719684,"Delta":139023941},{"NoteNumber":42,"Velocity":66,"Duration":104953,"SoundDuration":104953,"Delta":139023941},{"NoteNumber":51,"Velocity":57,"Duration":104953,"SoundDuration":104953,"Delta":139113902},{"NoteNumber":44,"Velocity":61,"Duration":104953,"SoundDuration":104953,"Delta":139203862},{"NoteNumber":51,"Velocity":56,"Duration":104953,"SoundDuration":104953,"Delta":139293823},{"NoteNumber":42,"Velocity":66,"Duration":104953,"SoundDuration":104953,"Delta":139383783},{"NoteNumber":51,"Velocity":56,"Duration":104953,"SoundDuration":104953,"Delta":139473744},{"NoteNumber":44,"Velocity":61,"Duration":104953,"SoundDuration":104953,"Delta":139563704},{"NoteNumber":51,"Velocity":56,"Duration":104953,"SoundDuration":104953,"Delta":139653665},{"NoteNumber":73,"Velocity":80,"Duration":719684,"SoundDuration":719684,"Delta":139743625},{"NoteNumber":85,"Velocity":95,"Duration":719684,"SoundDuration":719684,"Delta":139743625},{"NoteNumber":40,"Velocity":66,"Duration":104953,"SoundDuration":104953,"Delta":139743625},{"NoteNumber":49,"Velocity":58,"Duration":104953,"SoundDuration":104953,"Delta":139833586},{"NoteNumber":44,"Velocity":62,"Duration":104953,"SoundDuration":104953,"Delta":139923546},{"NoteNumber":49,"Velocity":56,"Duration":104953,"SoundDuration":104953,"Delta":140013507},{"NoteNumber":40,"Velocity":66,"Duration":104953,"SoundDuration":104953,"Delta":140103467},{"NoteNumber":49,"Velocity":56,"Duration":104953,"SoundDuration":104953,"Delta":140193428},{"NoteNumber":44,"Velocity":61,"Duration":104953,"SoundDuration":104953,"Delta":140283388},{"NoteNumber":49,"Velocity":61,"Duration":105537,"SoundDuration":105537,"Delta":140373349},{"NoteNumber":70,"Velocity":68,"Duration":373854,"SoundDuration":373854,"Delta":140463309},{"NoteNumber":82,"Velocity":80,"Duration":50626,"SoundDuration":50626,"Delta":140463309},{"NoteNumber":40,"Velocity":66,"Duration":92684,"SoundDuration":92684,"Delta":140463309},{"NoteNumber":83,"Velocity":75,"Duration":49847,"SoundDuration":49847,"Delta":140513935},{"NoteNumber":49,"Velocity":56,"Duration":92684,"SoundDuration":92684,"Delta":140556773},{"NoteNumber":82,"Velocity":80,"Duration":50626,"SoundDuration":50626,"Delta":140563783},{"NoteNumber":83,"Velocity":80,"Duration":49847,"SoundDuration":49847,"Delta":140614409},{"NoteNumber":42,"Velocity":61,"Duration":92684,"SoundDuration":92684,"Delta":140650237},{"NoteNumber":82,"Velocity":80,"Duration":60751,"SoundDuration":60751,"Delta":140677497},{"NoteNumber":80,"Velocity":75,"Duration":59972,"SoundDuration":59972,"Delta":140733575},{"NoteNumber":49,"Velocity":54,"Duration":92684,"SoundDuration":92684,"Delta":140743701},{"NoteNumber":82,"Velocity":75,"Duration":52183,"SoundDuration":52183,"Delta":140784980},{"NoteNumber":71,"Velocity":80,"Duration":1079525,"SoundDuration":1079525,"Delta":140837164},{"NoteNumber":83,"Velocity":95,"Duration":1079525,"SoundDuration":1079525,"Delta":140837164},{"NoteNumber":39,"Velocity":66,"Duration":104953,"SoundDuration":104953,"Delta":140837164},{"NoteNumber":47,"Velocity":56,"Duration":104953,"SoundDuration":104953,"Delta":140927125},{"NoteNumber":42,"Velocity":62,"Duration":104953,"SoundDuration":104953,"Delta":141017085},{"NoteNumber":47,"Velocity":56,"Duration":104953,"SoundDuration":104953,"Delta":141107046},{"NoteNumber":39,"Velocity":66,"Duration":104953,"SoundDuration":104953,"Delta":141197006},{"NoteNumber":47,"Velocity":56,"Duration":104953,"SoundDuration":104953,"Delta":141286967},{"NoteNumber":42,"Velocity":61,"Duration":104953,"SoundDuration":104953,"Delta":141376927},{"NoteNumber":47,"Velocity":56,"Duration":104953,"SoundDuration":104953,"Delta":141466888},{"NoteNumber":39,"Velocity":66,"Duration":104953,"SoundDuration":104953,"Delta":141556848},{"NoteNumber":47,"Velocity":54,"Duration":104953,"SoundDuration":104953,"Delta":141646809},{"NoteNumber":42,"Velocity":60,"Duration":104953,"SoundDuration":104953,"Delta":141736769},{"NoteNumber":47,"Velocity":60,"Duration":105239,"SoundDuration":105239,"Delta":141826730},{"NoteNumber":80,"Velocity":95,"Duration":733406,"SoundDuration":733406,"Delta":141916690},{"NoteNumber":68,"Velocity":80,"Duration":733406,"SoundDuration":733406,"Delta":141916690},{"NoteNumber":38,"Velocity":66,"Duration":106955,"SoundDuration":106955,"Delta":141916690},{"NoteNumber":47,"Velocity":56,"Duration":106955,"SoundDuration":106955,"Delta":142008366},{"NoteNumber":40,"Velocity":62,"Duration":106955,"SoundDuration":106955,"Delta":142100042},{"NoteNumber":47,"Velocity":54,"Duration":106955,"SoundDuration":106955,"Delta":142191718},{"NoteNumber":38,"Velocity":66,"Duration":106955,"SoundDuration":106955,"Delta":142283393},{"NoteNumber":47,"Velocity":56,"Duration":106955,"SoundDuration":106955,"Delta":142375069},{"NoteNumber":40,"Velocity":62,"Duration":106955,"SoundDuration":106955,"Delta":142466745},{"NoteNumber":47,"Velocity":56,"Duration":106858,"SoundDuration":106858,"Delta":142558421},{"NoteNumber":69,"Velocity":80,"Duration":728773,"SoundDuration":728773,"Delta":142650096},{"NoteNumber":81,"Velocity":94,"Duration":728773,"SoundDuration":728773,"Delta":142650096},{"NoteNumber":37,"Velocity":66,"Duration":106279,"SoundDuration":106279,"Delta":142650096},{"NoteNumber":45,"Velocity":56,"Duration":106279,"SoundDuration":106279,"Delta":142741193},{"NoteNumber":40,"Velocity":62,"Duration":106279,"SoundDuration":106279,"Delta":142832290},{"NoteNumber":45,"Velocity":56,"Duration":106279,"SoundDuration":106279,"Delta":142923387},{"NoteNumber":37,"Velocity":66,"Duration":106279,"SoundDuration":106279,"Delta":143014483},{"NoteNumber":45,"Velocity":56,"Duration":106279,"SoundDuration":106279,"Delta":143105580},{"NoteNumber":40,"Velocity":62,"Duration":106279,"SoundDuration":106279,"Delta":143196677},{"NoteNumber":45,"Velocity":56,"Duration":106523,"SoundDuration":106523,"Delta":143287774},{"NoteNumber":67,"Velocity":68,"Duration":370233,"SoundDuration":370233,"Delta":143378870},{"NoteNumber":79,"Velocity":80,"Duration":50135,"SoundDuration":50135,"Delta":143378870},{"NoteNumber":37,"Velocity":66,"Duration":91786,"SoundDuration":91786,"Delta":143378870},{"NoteNumber":80,"Velocity":75,"Duration":50135,"SoundDuration":50135,"Delta":143429006},{"NoteNumber":46,"Velocity":56,"Duration":91786,"SoundDuration":91786,"Delta":143471429},{"NoteNumber":79,"Velocity":80,"Duration":50135,"SoundDuration":50135,"Delta":143478370},{"NoteNumber":80,"Velocity":80,"Duration":50135,"SoundDuration":50135,"Delta":143528506},{"NoteNumber":39,"Velocity":60,"Duration":91786,"SoundDuration":91786,"Delta":143563987},{"NoteNumber":79,"Velocity":80,"Duration":60162,"SoundDuration":60162,"Delta":143590983},{"NoteNumber":77,"Velocity":75,"Duration":60162,"SoundDuration":60162,"Delta":143646518},{"NoteNumber":46,"Velocity":56,"Duration":91786,"SoundDuration":91786,"Delta":143656545},{"NoteNumber":79,"Velocity":75,"Duration":51678,"SoundDuration":51678,"Delta":143697425},{"NoteNumber":80,"Velocity":95,"Duration":1079525,"SoundDuration":1079525,"Delta":143749103},{"NoteNumber":68,"Velocity":80,"Duration":1079525,"SoundDuration":1079525,"Delta":143749103},{"NoteNumber":35,"Velocity":66,"Duration":104953,"SoundDuration":104953,"Delta":143749103},{"NoteNumber":44,"Velocity":56,"Duration":104953,"SoundDuration":104953,"Delta":143839064},{"NoteNumber":39,"Velocity":61,"Duration":104953,"SoundDuration":104953,"Delta":143929024},{"NoteNumber":44,"Velocity":56,"Duration":104953,"SoundDuration":104953,"Delta":144018985},{"NoteNumber":35,"Velocity":66,"Duration":104953,"SoundDuration":104953,"Delta":144108945},{"NoteNumber":44,"Velocity":56,"Duration":104953,"SoundDuration":104953,"Delta":144198906},{"NoteNumber":39,"Velocity":61,"Duration":104953,"SoundDuration":104953,"Delta":144288866},{"NoteNumber":44,"Velocity":54,"Duration":104953,"SoundDuration":104953,"Delta":144378827},{"NoteNumber":35,"Velocity":66,"Duration":104953,"SoundDuration":104953,"Delta":144468787},{"NoteNumber":44,"Velocity":56,"Duration":104953,"SoundDuration":104953,"Delta":144558748},{"NoteNumber":39,"Velocity":61,"Duration":104953,"SoundDuration":104953,"Delta":144648708},{"NoteNumber":44,"Velocity":54,"Duration":89960,"SoundDuration":89960,"Delta":144738669},{"NoteNumber":76,"Velocity":100,"Duration":809644,"SoundDuration":809644,"Delta":144828629},{"NoteNumber":69,"Velocity":83,"Duration":809644,"SoundDuration":809644,"Delta":144828629},{"NoteNumber":73,"Velocity":100,"Duration":809644,"SoundDuration":809644,"Delta":144828629},{"NoteNumber":81,"Velocity":100,"Duration":809644,"SoundDuration":809644,"Delta":144828629},{"NoteNumber":45,"Velocity":75,"Duration":1079526,"SoundDuration":1079526,"Delta":144828629},{"NoteNumber":49,"Velocity":75,"Duration":1079526,"SoundDuration":1079526,"Delta":144828629},{"NoteNumber":40,"Velocity":64,"Duration":1079526,"SoundDuration":1079526,"Delta":144828629},{"NoteNumber":37,"Velocity":64,"Duration":1079526,"SoundDuration":1079526,"Delta":144828629},{"NoteNumber":76,"Velocity":48,"Duration":89960,"SoundDuration":89960,"Delta":145638274},{"NoteNumber":78,"Velocity":49,"Duration":89960,"SoundDuration":89960,"Delta":145728234},{"NoteNumber":80,"Velocity":51,"Duration":89960,"SoundDuration":89960,"Delta":145818195},{"NoteNumber":81,"Velocity":51,"Duration":89960,"SoundDuration":89960,"Delta":145908155},{"NoteNumber":83,"Velocity":52,"Duration":89960,"SoundDuration":89960,"Delta":145998116},{"NoteNumber":85,"Velocity":53,"Duration":89960,"SoundDuration":89960,"Delta":146088076},{"NoteNumber":83,"Velocity":51,"Duration":89960,"SoundDuration":89960,"Delta":146178037},{"NoteNumber":81,"Velocity":49,"Duration":89960,"SoundDuration":89960,"Delta":146267997},{"NoteNumber":64,"Velocity":42,"Duration":359842,"SoundDuration":359842,"Delta":146267997},{"NoteNumber":61,"Velocity":42,"Duration":359842,"SoundDuration":359842,"Delta":146267997},{"NoteNumber":69,"Velocity":50,"Duration":356843,"SoundDuration":356843,"Delta":146267997},{"NoteNumber":76,"Velocity":47,"Duration":89960,"SoundDuration":89960,"Delta":146357958},{"NoteNumber":78,"Velocity":48,"Duration":89960,"SoundDuration":89960,"Delta":146447918},{"NoteNumber":80,"Velocity":48,"Duration":89960,"SoundDuration":89960,"Delta":146537879},{"NoteNumber":81,"Velocity":49,"Duration":89960,"SoundDuration":89960,"Delta":146627839},{"NoteNumber":83,"Velocity":50,"Duration":89960,"SoundDuration":89960,"Delta":146717800},{"NoteNumber":85,"Velocity":51,"Duration":89960,"SoundDuration":89960,"Delta":146807760},{"NoteNumber":83,"Velocity":50,"Duration":89960,"SoundDuration":89960,"Delta":146897721},{"NoteNumber":81,"Velocity":48,"Duration":89960,"SoundDuration":89960,"Delta":146987681},{"NoteNumber":69,"Velocity":49,"Duration":359842,"SoundDuration":359842,"Delta":146987681},{"NoteNumber":64,"Velocity":41,"Duration":359842,"SoundDuration":359842,"Delta":146987681},{"NoteNumber":61,"Velocity":41,"Duration":359842,"SoundDuration":359842,"Delta":146987681},{"NoteNumber":76,"Velocity":49,"Duration":89960,"SoundDuration":89960,"Delta":147077642},{"NoteNumber":78,"Velocity":50,"Duration":89960,"SoundDuration":89960,"Delta":147167602},{"NoteNumber":80,"Velocity":50,"Duration":89960,"SoundDuration":89960,"Delta":147257563},{"NoteNumber":81,"Velocity":51,"Duration":89960,"SoundDuration":89960,"Delta":147347523},{"NoteNumber":83,"Velocity":51,"Duration":89960,"SoundDuration":89960,"Delta":147437484},{"NoteNumber":85,"Velocity":51,"Duration":89960,"SoundDuration":89960,"Delta":147527444},{"NoteNumber":83,"Velocity":49,"Duration":89960,"SoundDuration":89960,"Delta":147617405},{"NoteNumber":81,"Velocity":47,"Duration":89960,"SoundDuration":89960,"Delta":147707365},{"NoteNumber":69,"Velocity":49,"Duration":359842,"SoundDuration":359842,"Delta":147707365},{"NoteNumber":64,"Velocity":41,"Duration":359842,"SoundDuration":359842,"Delta":147707365},{"NoteNumber":61,"Velocity":41,"Duration":359842,"SoundDuration":359842,"Delta":147707365},{"NoteNumber":76,"Velocity":48,"Duration":89960,"SoundDuration":89960,"Delta":147797326},{"NoteNumber":78,"Velocity":51,"Duration":89960,"SoundDuration":89960,"Delta":147887286},{"NoteNumber":80,"Velocity":51,"Duration":89960,"SoundDuration":89960,"Delta":147977247},{"NoteNumber":81,"Velocity":54,"Duration":89960,"SoundDuration":89960,"Delta":148067207},{"NoteNumber":69,"Velocity":52,"Duration":359841,"SoundDuration":359841,"Delta":148067207},{"NoteNumber":64,"Velocity":44,"Duration":359841,"SoundDuration":359841,"Delta":148067207},{"NoteNumber":61,"Velocity":44,"Duration":359841,"SoundDuration":359841,"Delta":148067207},{"NoteNumber":83,"Velocity":56,"Duration":89960,"SoundDuration":89960,"Delta":148157168},{"NoteNumber":85,"Velocity":57,"Duration":89960,"SoundDuration":89960,"Delta":148247128},{"NoteNumber":86,"Velocity":60,"Duration":89960,"SoundDuration":89960,"Delta":148337089},{"NoteNumber":88,"Velocity":61,"Duration":89960,"SoundDuration":89960,"Delta":148427049},{"NoteNumber":69,"Velocity":60,"Duration":359842,"SoundDuration":359842,"Delta":148427049},{"NoteNumber":64,"Velocity":51,"Duration":359842,"SoundDuration":359842,"Delta":148427049},{"NoteNumber":61,"Velocity":51,"Duration":359842,"SoundDuration":359842,"Delta":148427049},{"NoteNumber":87,"Velocity":59,"Duration":89960,"SoundDuration":89960,"Delta":148517010},{"NoteNumber":88,"Velocity":57,"Duration":89960,"SoundDuration":89960,"Delta":148606970},{"NoteNumber":87,"Velocity":56,"Duration":89960,"SoundDuration":89960,"Delta":148696931},{"NoteNumber":88,"Velocity":54,"Duration":89960,"SoundDuration":89960,"Delta":148786891},{"NoteNumber":61,"Velocity":47,"Duration":359841,"SoundDuration":359841,"Delta":148786891},{"NoteNumber":69,"Velocity":56,"Duration":359841,"SoundDuration":359841,"Delta":148786891},{"NoteNumber":64,"Velocity":47,"Duration":359841,"SoundDuration":359841,"Delta":148786891},{"NoteNumber":85,"Velocity":52,"Duration":89960,"SoundDuration":89960,"Delta":148876852},{"NoteNumber":83,"Velocity":51,"Duration":89960,"SoundDuration":89960,"Delta":148966812},{"NoteNumber":81,"Velocity":50,"Duration":89960,"SoundDuration":89960,"Delta":149056773},{"NoteNumber":80,"Velocity":48,"Duration":719684,"SoundDuration":719684,"Delta":149146733},{"NoteNumber":63,"Velocity":49,"Duration":89960,"SoundDuration":89960,"Delta":149146733},{"NoteNumber":71,"Velocity":43,"Duration":89960,"SoundDuration":89960,"Delta":149236694},{"NoteNumber":68,"Velocity":49,"Duration":89960,"SoundDuration":89960,"Delta":149326654},{"NoteNumber":71,"Velocity":49,"Duration":89960,"SoundDuration":89960,"Delta":149416615},{"NoteNumber":63,"Velocity":51,"Duration":89960,"SoundDuration":89960,"Delta":149506575},{"NoteNumber":71,"Velocity":44,"Duration":89960,"SoundDuration":89960,"Delta":149596536},{"NoteNumber":68,"Velocity":47,"Duration":89960,"SoundDuration":89960,"Delta":149686496},{"NoteNumber":71,"Velocity":43,"Duration":89960,"SoundDuration":89960,"Delta":149776457},{"NoteNumber":82,"Velocity":50,"Duration":60731,"SoundDuration":60731,"Delta":149866417},{"NoteNumber":63,"Velocity":51,"Duration":91096,"SoundDuration":91096,"Delta":149866417},{"NoteNumber":83,"Velocity":50,"Duration":60731,"SoundDuration":60731,"Delta":149927148},{"NoteNumber":73,"Velocity":44,"Duration":91096,"SoundDuration":91096,"Delta":149957514},{"NoteNumber":82,"Velocity":50,"Duration":56935,"SoundDuration":56935,"Delta":149987880},{"NoteNumber":83,"Velocity":50,"Duration":56935,"SoundDuration":56935,"Delta":150044815},{"NoteNumber":67,"Velocity":48,"Duration":91096,"SoundDuration":91096,"Delta":150048611},{"NoteNumber":82,"Velocity":50,"Duration":56935,"SoundDuration":56935,"Delta":150101751},{"NoteNumber":73,"Velocity":44,"Duration":91096,"SoundDuration":91096,"Delta":150139708},{"NoteNumber":83,"Velocity":50,"Duration":56935,"SoundDuration":56935,"Delta":150158686},{"NoteNumber":82,"Velocity":50,"Duration":53139,"SoundDuration":53139,"Delta":150215622},{"NoteNumber":63,"Velocity":51,"Duration":91096,"SoundDuration":91096,"Delta":150230804},{"NoteNumber":83,"Velocity":48,"Duration":53139,"SoundDuration":53139,"Delta":150268761},{"NoteNumber":82,"Velocity":49,"Duration":45548,"SoundDuration":45548,"Delta":150321901},{"NoteNumber":73,"Velocity":45,"Duration":91096,"SoundDuration":91096,"Delta":150321901},{"NoteNumber":83,"Velocity":50,"Duration":45548,"SoundDuration":45548,"Delta":150367449},{"NoteNumber":82,"Velocity":51,"Duration":45548,"SoundDuration":45548,"Delta":150412998},{"NoteNumber":67,"Velocity":48,"Duration":91096,"SoundDuration":91096,"Delta":150412998},{"NoteNumber":83,"Velocity":51,"Duration":45548,"SoundDuration":45548,"Delta":150458546},{"NoteNumber":82,"Velocity":51,"Duration":45548,"SoundDuration":45548,"Delta":150504095},{"NoteNumber":73,"Velocity":45,"Duration":91096,"SoundDuration":91096,"Delta":150504095},{"NoteNumber":83,"Velocity":52,"Duration":45548,"SoundDuration":45548,"Delta":150549643},{"NoteNumber":80,"Velocity":56,"Duration":216450,"SoundDuration":216450,"Delta":150595191},{"NoteNumber":71,"Velocity":56,"Duration":216450,"SoundDuration":216450,"Delta":150595191},{"NoteNumber":64,"Velocity":47,"Duration":216450,"SoundDuration":216450,"Delta":150595191},{"NoteNumber":68,"Velocity":56,"Duration":216450,"SoundDuration":216450,"Delta":150595191},{"NoteNumber":57,"Velocity":73,"Duration":449802,"SoundDuration":449802,"Delta":151028091},{"NoteNumber":61,"Velocity":73,"Duration":449802,"SoundDuration":449802,"Delta":151028091},{"NoteNumber":69,"Velocity":87,"Duration":449802,"SoundDuration":449802,"Delta":151028091},{"NoteNumber":64,"Velocity":87,"Duration":449802,"SoundDuration":449802,"Delta":151028091},{"NoteNumber":49,"Velocity":73,"Duration":719684,"SoundDuration":719684,"Delta":151028091},{"NoteNumber":45,"Velocity":73,"Duration":719684,"SoundDuration":719684,"Delta":151028091},{"NoteNumber":40,"Velocity":62,"Duration":719684,"SoundDuration":719684,"Delta":151028091},{"NoteNumber":37,"Velocity":62,"Duration":719684,"SoundDuration":719684,"Delta":151028091},{"NoteNumber":64,"Velocity":48,"Duration":89960,"SoundDuration":89960,"Delta":151477894},{"NoteNumber":66,"Velocity":49,"Duration":89960,"SoundDuration":89960,"Delta":151567854},{"NoteNumber":68,"Velocity":50,"Duration":89960,"SoundDuration":89960,"Delta":151657815},{"NoteNumber":69,"Velocity":51,"Duration":89960,"SoundDuration":89960,"Delta":151747775},{"NoteNumber":71,"Velocity":51,"Duration":89960,"SoundDuration":89960,"Delta":151837736},{"NoteNumber":73,"Velocity":52,"Duration":89960,"SoundDuration":89960,"Delta":151927696},{"NoteNumber":71,"Velocity":51,"Duration":89960,"SoundDuration":89960,"Delta":152017657},{"NoteNumber":69,"Velocity":48,"Duration":89960,"SoundDuration":89960,"Delta":152107617},{"NoteNumber":64,"Velocity":48,"Duration":89960,"SoundDuration":89960,"Delta":152197578},{"NoteNumber":66,"Velocity":48,"Duration":89960,"SoundDuration":89960,"Delta":152287538},{"NoteNumber":68,"Velocity":49,"Duration":89960,"SoundDuration":89960,"Delta":152377499},{"NoteNumber":69,"Velocity":50,"Duration":89960,"SoundDuration":89960,"Delta":152467459},{"NoteNumber":52,"Velocity":41,"Duration":359841,"SoundDuration":359841,"Delta":152467459},{"NoteNumber":49,"Velocity":41,"Duration":359841,"SoundDuration":359841,"Delta":152467459},{"NoteNumber":57,"Velocity":49,"Duration":359841,"SoundDuration":359841,"Delta":152467459},{"NoteNumber":71,"Velocity":50,"Duration":89960,"SoundDuration":89960,"Delta":152557420},{"NoteNumber":73,"Velocity":51,"Duration":89960,"SoundDuration":89960,"Delta":152647380},{"NoteNumber":71,"Velocity":51,"Duration":89960,"SoundDuration":89960,"Delta":152737341},{"NoteNumber":69,"Velocity":48,"Duration":89960,"SoundDuration":89960,"Delta":152827301},{"NoteNumber":64,"Velocity":48,"Duration":89960,"SoundDuration":89960,"Delta":152917262},{"NoteNumber":66,"Velocity":48,"Duration":89960,"SoundDuration":89960,"Delta":153007222},{"NoteNumber":68,"Velocity":50,"Duration":89960,"SoundDuration":89960,"Delta":153097183},{"NoteNumber":69,"Velocity":51,"Duration":89960,"SoundDuration":89960,"Delta":153187143},{"NoteNumber":52,"Velocity":41,"Duration":359841,"SoundDuration":359841,"Delta":153187143},{"NoteNumber":57,"Velocity":49,"Duration":359841,"SoundDuration":359841,"Delta":153187143},{"NoteNumber":49,"Velocity":41,"Duration":359841,"SoundDuration":359841,"Delta":153187143},{"NoteNumber":71,"Velocity":51,"Duration":89960,"SoundDuration":89960,"Delta":153277104},{"NoteNumber":73,"Velocity":51,"Duration":89960,"SoundDuration":89960,"Delta":153367064},{"NoteNumber":71,"Velocity":50,"Duration":89960,"SoundDuration":89960,"Delta":153457025},{"NoteNumber":69,"Velocity":49,"Duration":89960,"SoundDuration":89960,"Delta":153546985},{"NoteNumber":64,"Velocity":50,"Duration":89960,"SoundDuration":89960,"Delta":153636946},{"NoteNumber":66,"Velocity":51,"Duration":89960,"SoundDuration":89960,"Delta":153726906},{"NoteNumber":49,"Velocity":43,"Duration":179921,"SoundDuration":179921,"Delta":153726906},{"NoteNumber":57,"Velocity":51,"Duration":179921,"SoundDuration":179921,"Delta":153726906},{"NoteNumber":52,"Velocity":43,"Duration":179921,"SoundDuration":179921,"Delta":153726906},{"NoteNumber":68,"Velocity":51,"Duration":89960,"SoundDuration":89960,"Delta":153816867},{"NoteNumber":69,"Velocity":52,"Duration":89960,"SoundDuration":89960,"Delta":153906827},{"NoteNumber":71,"Velocity":53,"Duration":89960,"SoundDuration":89960,"Delta":153996788},{"NoteNumber":73,"Velocity":56,"Duration":89960,"SoundDuration":89960,"Delta":154086748},{"NoteNumber":49,"Velocity":51,"Duration":179920,"SoundDuration":179920,"Delta":154086748},{"NoteNumber":57,"Velocity":61,"Duration":179920,"SoundDuration":179920,"Delta":154086748},{"NoteNumber":52,"Velocity":51,"Duration":179920,"SoundDuration":179920,"Delta":154086748},{"NoteNumber":71,"Velocity":56,"Duration":89960,"SoundDuration":89960,"Delta":154176709},{"NoteNumber":69,"Velocity":57,"Duration":89960,"SoundDuration":89960,"Delta":154266669},{"NoteNumber":64,"Velocity":58,"Duration":89960,"SoundDuration":89960,"Delta":154356630},{"NoteNumber":66,"Velocity":59,"Duration":89960,"SoundDuration":89960,"Delta":154446590},{"NoteNumber":49,"Velocity":57,"Duration":179921,"SoundDuration":179921,"Delta":154446590},{"NoteNumber":57,"Velocity":68,"Duration":179921,"SoundDuration":179921,"Delta":154446590},{"NoteNumber":52,"Velocity":57,"Duration":179921,"SoundDuration":179921,"Delta":154446590},{"NoteNumber":68,"Velocity":60,"Duration":89960,"SoundDuration":89960,"Delta":154536551},{"NoteNumber":69,"Velocity":62,"Duration":89960,"SoundDuration":89960,"Delta":154626511},{"NoteNumber":71,"Velocity":62,"Duration":89960,"SoundDuration":89960,"Delta":154716472},{"NoteNumber":73,"Velocity":62,"Duration":89960,"SoundDuration":89960,"Delta":154806432},{"NoteNumber":57,"Velocity":68,"Duration":179920,"SoundDuration":179920,"Delta":154806432},{"NoteNumber":52,"Velocity":57,"Duration":179920,"SoundDuration":179920,"Delta":154806432},{"NoteNumber":49,"Velocity":57,"Duration":179920,"SoundDuration":179920,"Delta":154806432},{"NoteNumber":71,"Velocity":63,"Duration":89960,"SoundDuration":89960,"Delta":154896393},{"NoteNumber":69,"Velocity":66,"Duration":89960,"SoundDuration":89960,"Delta":154986353},{"NoteNumber":52,"Velocity":56,"Duration":359842,"SoundDuration":359842,"Delta":154986353},{"NoteNumber":49,"Velocity":56,"Duration":359842,"SoundDuration":359842,"Delta":154986353},{"NoteNumber":57,"Velocity":67,"Duration":359842,"SoundDuration":359842,"Delta":154986353},{"NoteNumber":64,"Velocity":67,"Duration":89960,"SoundDuration":89960,"Delta":155076314},{"NoteNumber":66,"Velocity":68,"Duration":89960,"SoundDuration":89960,"Delta":155166274},{"NoteNumber":68,"Velocity":68,"Duration":89960,"SoundDuration":89960,"Delta":155256235},{"NoteNumber":69,"Velocity":70,"Duration":89960,"SoundDuration":89960,"Delta":155346195},{"NoteNumber":71,"Velocity":71,"Duration":89960,"SoundDuration":89960,"Delta":155436156},{"NoteNumber":73,"Velocity":72,"Duration":89960,"SoundDuration":89960,"Delta":155526116},{"NoteNumber":74,"Velocity":73,"Duration":89960,"SoundDuration":89960,"Delta":155616077},{"NoteNumber":76,"Velocity":74,"Duration":89960,"SoundDuration":89960,"Delta":155706037},{"NoteNumber":78,"Velocity":75,"Duration":89960,"SoundDuration":89960,"Delta":155795998},{"NoteNumber":80,"Velocity":76,"Duration":89960,"SoundDuration":89960,"Delta":155885958},{"NoteNumber":81,"Velocity":77,"Duration":89960,"SoundDuration":89960,"Delta":155975919},{"NoteNumber":83,"Velocity":79,"Duration":89960,"SoundDuration":89960,"Delta":156065879},{"NoteNumber":85,"Velocity":79,"Duration":89960,"SoundDuration":89960,"Delta":156155840},{"NoteNumber":86,"Velocity":79,"Duration":89960,"SoundDuration":89960,"Delta":156245800},{"NoteNumber":87,"Velocity":80,"Duration":89960,"SoundDuration":89960,"Delta":156335761},{"NoteNumber":88,"Velocity":84,"Duration":719684,"SoundDuration":719684,"Delta":156425721},{"NoteNumber":76,"Velocity":71,"Duration":719684,"SoundDuration":719684,"Delta":156425721},{"NoteNumber":49,"Velocity":70,"Duration":89210,"SoundDuration":89210,"Delta":156425721},{"NoteNumber":57,"Velocity":61,"Duration":89210,"SoundDuration":89210,"Delta":156515682},{"NoteNumber":52,"Velocity":66,"Duration":89210,"SoundDuration":89210,"Delta":156605642},{"NoteNumber":57,"Velocity":62,"Duration":89210,"SoundDuration":89210,"Delta":156695603},{"NoteNumber":49,"Velocity":70,"Duration":89210,"SoundDuration":89210,"Delta":156785563},{"NoteNumber":57,"Velocity":61,"Duration":89210,"SoundDuration":89210,"Delta":156875524},{"NoteNumber":52,"Velocity":65,"Duration":89210,"SoundDuration":89210,"Delta":156965484},{"NoteNumber":57,"Velocity":62,"Duration":89210,"SoundDuration":89210,"Delta":157055445},{"NoteNumber":68,"Velocity":71,"Duration":719684,"SoundDuration":719684,"Delta":157145405},{"NoteNumber":80,"Velocity":84,"Duration":719684,"SoundDuration":719684,"Delta":157145405},{"NoteNumber":50,"Velocity":70,"Duration":89210,"SoundDuration":89210,"Delta":157145405},{"NoteNumber":59,"Velocity":61,"Duration":89210,"SoundDuration":89210,"Delta":157235366},{"NoteNumber":53,"Velocity":66,"Duration":89210,"SoundDuration":89210,"Delta":157325326},{"NoteNumber":59,"Velocity":62,"Duration":89210,"SoundDuration":89210,"Delta":157415287},{"NoteNumber":50,"Velocity":70,"Duration":89210,"SoundDuration":89210,"Delta":157505247},{"NoteNumber":59,"Velocity":59,"Duration":89210,"SoundDuration":89210,"Delta":157595208},{"NoteNumber":53,"Velocity":63,"Duration":89210,"SoundDuration":89210,"Delta":157685168},{"NoteNumber":59,"Velocity":61,"Duration":89210,"SoundDuration":89210,"Delta":157775129},{"NoteNumber":71,"Velocity":71,"Duration":719684,"SoundDuration":719684,"Delta":157865089},{"NoteNumber":83,"Velocity":84,"Duration":719684,"SoundDuration":719684,"Delta":157865089},{"NoteNumber":51,"Velocity":70,"Duration":89210,"SoundDuration":89210,"Delta":157865089},{"NoteNumber":59,"Velocity":61,"Duration":89210,"SoundDuration":89210,"Delta":157955050},{"NoteNumber":56,"Velocity":66,"Duration":89210,"SoundDuration":89210,"Delta":158045010},{"NoteNumber":59,"Velocity":62,"Duration":89210,"SoundDuration":89210,"Delta":158134971},{"NoteNumber":51,"Velocity":70,"Duration":89210,"SoundDuration":89210,"Delta":158224931},{"NoteNumber":59,"Velocity":62,"Duration":89210,"SoundDuration":89210,"Delta":158314892},{"NoteNumber":56,"Velocity":66,"Duration":89210,"SoundDuration":89210,"Delta":158404852},{"NoteNumber":59,"Velocity":61,"Duration":89210,"SoundDuration":89210,"Delta":158494813},{"NoteNumber":61,"Velocity":71,"Duration":728773,"SoundDuration":728773,"Delta":158584773},{"NoteNumber":55,"Velocity":60,"Duration":728773,"SoundDuration":728773,"Delta":158584773},{"NoteNumber":67,"Velocity":84,"Duration":728773,"SoundDuration":728773,"Delta":158584773},{"NoteNumber":39,"Velocity":70,"Duration":90337,"SoundDuration":90337,"Delta":158584773},{"NoteNumber":51,"Velocity":62,"Duration":90337,"SoundDuration":90337,"Delta":158675870},{"NoteNumber":50,"Velocity":67,"Duration":90337,"SoundDuration":90337,"Delta":158766967},{"NoteNumber":51,"Velocity":62,"Duration":90337,"SoundDuration":90337,"Delta":158858064},{"NoteNumber":50,"Velocity":70,"Duration":90337,"SoundDuration":90337,"Delta":158949160},{"NoteNumber":51,"Velocity":62,"Duration":90337,"SoundDuration":90337,"Delta":159040257},{"NoteNumber":50,"Velocity":67,"Duration":90337,"SoundDuration":90337,"Delta":159131354},{"NoteNumber":51,"Velocity":62,"Duration":77432,"SoundDuration":77432,"Delta":159222451},{"NoteNumber":63,"Velocity":71,"Duration":179921,"SoundDuration":179921,"Delta":159313547},{"NoteNumber":59,"Velocity":71,"Duration":179921,"SoundDuration":179921,"Delta":159313547},{"NoteNumber":68,"Velocity":84,"Duration":179921,"SoundDuration":179921,"Delta":159313547},{"NoteNumber":44,"Velocity":71,"Duration":179921,"SoundDuration":179921,"Delta":159313547},{"NoteNumber":71,"Velocity":51,"Duration":92861,"SoundDuration":92861,"Delta":159493468},{"NoteNumber":63,"Velocity":51,"Duration":92861,"SoundDuration":92861,"Delta":159493468},{"NoteNumber":71,"Velocity":51,"Duration":92861,"SoundDuration":92861,"Delta":159679192},{"NoteNumber":63,"Velocity":51,"Duration":92861,"SoundDuration":92861,"Delta":159679192},{"NoteNumber":56,"Velocity":43,"Duration":92861,"SoundDuration":92861,"Delta":159679192},{"NoteNumber":63,"Velocity":51,"Duration":92862,"SoundDuration":92862,"Delta":159864916},{"NoteNumber":71,"Velocity":51,"Duration":92862,"SoundDuration":92862,"Delta":159864916},{"NoteNumber":56,"Velocity":43,"Duration":92862,"SoundDuration":92862,"Delta":159864916},{"NoteNumber":71,"Velocity":51,"Duration":92558,"SoundDuration":92558,"Delta":160050438},{"NoteNumber":63,"Velocity":51,"Duration":92558,"SoundDuration":92558,"Delta":160050438},{"NoteNumber":56,"Velocity":43,"Duration":92558,"SoundDuration":92558,"Delta":160050438},{"NoteNumber":71,"Velocity":51,"Duration":92558,"SoundDuration":92558,"Delta":160235554},{"NoteNumber":63,"Velocity":51,"Duration":92558,"SoundDuration":92558,"Delta":160235554},{"NoteNumber":56,"Velocity":43,"Duration":92558,"SoundDuration":92558,"Delta":160235554},{"NoteNumber":63,"Velocity":49,"Duration":92360,"SoundDuration":92360,"Delta":160420671},{"NoteNumber":70,"Velocity":49,"Duration":92360,"SoundDuration":92360,"Delta":160420671},{"NoteNumber":58,"Velocity":40,"Duration":92360,"SoundDuration":92360,"Delta":160420671},{"NoteNumber":68,"Velocity":47,"Duration":92262,"SoundDuration":92262,"Delta":160605294},{"NoteNumber":63,"Velocity":47,"Duration":92262,"SoundDuration":92262,"Delta":160605294},{"NoteNumber":59,"Velocity":39,"Duration":92262,"SoundDuration":92262,"Delta":160605294},{"NoteNumber":63,"Velocity":59,"Duration":184328,"SoundDuration":184328,"Delta":160789818},{"NoteNumber":67,"Velocity":59,"Duration":184328,"SoundDuration":184328,"Delta":160789818},{"NoteNumber":51,"Velocity":47,"Duration":184328,"SoundDuration":184328,"Delta":160789818},{"NoteNumber":61,"Velocity":47,"Duration":184328,"SoundDuration":184328,"Delta":160789818},{"NoteNumber":67,"Velocity":49,"Duration":90804,"SoundDuration":90804,"Delta":160974147},{"NoteNumber":75,"Velocity":49,"Duration":90804,"SoundDuration":90804,"Delta":160974147},{"NoteNumber":61,"Velocity":42,"Duration":90804,"SoundDuration":90804,"Delta":160974147},{"NoteNumber":63,"Velocity":42,"Duration":90804,"SoundDuration":90804,"Delta":160974147},{"NoteNumber":67,"Velocity":49,"Duration":90804,"SoundDuration":90804,"Delta":161155756},{"NoteNumber":75,"Velocity":49,"Duration":90804,"SoundDuration":90804,"Delta":161155756},{"NoteNumber":61,"Velocity":41,"Duration":90804,"SoundDuration":90804,"Delta":161155756},{"NoteNumber":63,"Velocity":41,"Duration":90804,"SoundDuration":90804,"Delta":161155756},{"NoteNumber":75,"Velocity":50,"Duration":90804,"SoundDuration":90804,"Delta":161337365},{"NoteNumber":67,"Velocity":50,"Duration":90804,"SoundDuration":90804,"Delta":161337365},{"NoteNumber":61,"Velocity":41,"Duration":90804,"SoundDuration":90804,"Delta":161337365},{"NoteNumber":63,"Velocity":41,"Duration":90804,"SoundDuration":90804,"Delta":161337365},{"NoteNumber":67,"Velocity":51,"Duration":90804,"SoundDuration":90804,"Delta":161518974},{"NoteNumber":75,"Velocity":51,"Duration":90804,"SoundDuration":90804,"Delta":161518974},{"NoteNumber":63,"Velocity":41,"Duration":90804,"SoundDuration":90804,"Delta":161518974},{"NoteNumber":61,"Velocity":41,"Duration":90804,"SoundDuration":90804,"Delta":161518974},{"NoteNumber":67,"Velocity":51,"Duration":90804,"SoundDuration":90804,"Delta":161700583},{"NoteNumber":75,"Velocity":51,"Duration":90804,"SoundDuration":90804,"Delta":161700583},{"NoteNumber":63,"Velocity":41,"Duration":90804,"SoundDuration":90804,"Delta":161700583},{"NoteNumber":61,"Velocity":41,"Duration":90804,"SoundDuration":90804,"Delta":161700583},{"NoteNumber":75,"Velocity":51,"Duration":90804,"SoundDuration":90804,"Delta":161882192},{"NoteNumber":68,"Velocity":51,"Duration":90804,"SoundDuration":90804,"Delta":161882192},{"NoteNumber":63,"Velocity":41,"Duration":90804,"SoundDuration":90804,"Delta":161882192},{"NoteNumber":59,"Velocity":41,"Duration":90804,"SoundDuration":90804,"Delta":161882192},{"NoteNumber":70,"Velocity":53,"Duration":90804,"SoundDuration":90804,"Delta":162063801},{"NoteNumber":75,"Velocity":53,"Duration":90804,"SoundDuration":90804,"Delta":162063801},{"NoteNumber":58,"Velocity":43,"Duration":90804,"SoundDuration":90804,"Delta":162063801},{"NoteNumber":63,"Velocity":43,"Duration":90804,"SoundDuration":90804,"Delta":162063801},{"NoteNumber":71,"Velocity":58,"Duration":181609,"SoundDuration":181609,"Delta":162245410},{"NoteNumber":75,"Velocity":58,"Duration":181609,"SoundDuration":181609,"Delta":162245410},{"NoteNumber":56,"Velocity":47,"Duration":181609,"SoundDuration":181609,"Delta":162245410},{"NoteNumber":44,"Velocity":47,"Duration":181609,"SoundDuration":181609,"Delta":162245410},{"NoteNumber":71,"Velocity":50,"Duration":93162,"SoundDuration":93162,"Delta":162427019},{"NoteNumber":63,"Velocity":50,"Duration":93162,"SoundDuration":93162,"Delta":162427019},{"NoteNumber":56,"Velocity":42,"Duration":93162,"SoundDuration":93162,"Delta":162427019},{"NoteNumber":63,"Velocity":50,"Duration":93161,"SoundDuration":93161,"Delta":162613343},{"NoteNumber":71,"Velocity":50,"Duration":93161,"SoundDuration":93161,"Delta":162613343},{"NoteNumber":56,"Velocity":42,"Duration":93161,"SoundDuration":93161,"Delta":162613343},{"NoteNumber":71,"Velocity":50,"Duration":92861,"SoundDuration":92861,"Delta":162799667},{"NoteNumber":63,"Velocity":50,"Duration":92861,"SoundDuration":92861,"Delta":162799667},{"NoteNumber":56,"Velocity":42,"Duration":92861,"SoundDuration":92861,"Delta":162799667},{"NoteNumber":71,"Velocity":50,"Duration":92861,"SoundDuration":92861,"Delta":162985391},{"NoteNumber":63,"Velocity":50,"Duration":92861,"SoundDuration":92861,"Delta":162985391},{"NoteNumber":56,"Velocity":43,"Duration":92861,"SoundDuration":92861,"Delta":162985391},{"NoteNumber":63,"Velocity":50,"Duration":92558,"SoundDuration":92558,"Delta":163171014},{"NoteNumber":71,"Velocity":50,"Duration":92558,"SoundDuration":92558,"Delta":163171014},{"NoteNumber":56,"Velocity":42,"Duration":92558,"SoundDuration":92558,"Delta":163171014},{"NoteNumber":63,"Velocity":48,"Duration":92558,"SoundDuration":92558,"Delta":163356130},{"NoteNumber":70,"Velocity":48,"Duration":92558,"SoundDuration":92558,"Delta":163356130},{"NoteNumber":58,"Velocity":41,"Duration":92558,"SoundDuration":92558,"Delta":163356130},{"NoteNumber":68,"Velocity":47,"Duration":92262,"SoundDuration":92262,"Delta":163541049},{"NoteNumber":63,"Velocity":47,"Duration":92262,"SoundDuration":92262,"Delta":163541049},{"NoteNumber":59,"Velocity":39,"Duration":92262,"SoundDuration":92262,"Delta":163541049},{"NoteNumber":63,"Velocity":58,"Duration":184230,"SoundDuration":184230,"Delta":163725574},{"NoteNumber":67,"Velocity":58,"Duration":184230,"SoundDuration":184230,"Delta":163725574},{"NoteNumber":51,"Velocity":47,"Duration":184230,"SoundDuration":184230,"Delta":163725574},{"NoteNumber":61,"Velocity":47,"Duration":184230,"SoundDuration":184230,"Delta":163725574},{"NoteNumber":75,"Velocity":49,"Duration":90804,"SoundDuration":90804,"Delta":163909804},{"NoteNumber":67,"Velocity":49,"Duration":90804,"SoundDuration":90804,"Delta":163909804},{"NoteNumber":61,"Velocity":41,"Duration":90804,"SoundDuration":90804,"Delta":163909804},{"NoteNumber":63,"Velocity":41,"Duration":90804,"SoundDuration":90804,"Delta":163909804},{"NoteNumber":75,"Velocity":49,"Duration":90804,"SoundDuration":90804,"Delta":164091413},{"NoteNumber":67,"Velocity":49,"Duration":90804,"SoundDuration":90804,"Delta":164091413},{"NoteNumber":63,"Velocity":43,"Duration":90804,"SoundDuration":90804,"Delta":164091413},{"NoteNumber":61,"Velocity":43,"Duration":90804,"SoundDuration":90804,"Delta":164091413},{"NoteNumber":67,"Velocity":51,"Duration":90804,"SoundDuration":90804,"Delta":164273022},{"NoteNumber":75,"Velocity":51,"Duration":90804,"SoundDuration":90804,"Delta":164273022},{"NoteNumber":61,"Velocity":42,"Duration":90804,"SoundDuration":90804,"Delta":164273022},{"NoteNumber":63,"Velocity":42,"Duration":90804,"SoundDuration":90804,"Delta":164273022},{"NoteNumber":67,"Velocity":49,"Duration":90804,"SoundDuration":90804,"Delta":164454631},{"NoteNumber":75,"Velocity":49,"Duration":90804,"SoundDuration":90804,"Delta":164454631},{"NoteNumber":61,"Velocity":42,"Duration":90804,"SoundDuration":90804,"Delta":164454631},{"NoteNumber":63,"Velocity":42,"Duration":90804,"SoundDuration":90804,"Delta":164454631},{"NoteNumber":67,"Velocity":49,"Duration":90804,"SoundDuration":90804,"Delta":164636240},{"NoteNumber":75,"Velocity":49,"Duration":90804,"SoundDuration":90804,"Delta":164636240},{"NoteNumber":63,"Velocity":42,"Duration":90804,"SoundDuration":90804,"Delta":164636240},{"NoteNumber":61,"Velocity":42,"Duration":90804,"SoundDuration":90804,"Delta":164636240},{"NoteNumber":68,"Velocity":51,"Duration":90804,"SoundDuration":90804,"Delta":164817849},{"NoteNumber":75,"Velocity":51,"Duration":90804,"SoundDuration":90804,"Delta":164817849},{"NoteNumber":63,"Velocity":43,"Duration":90804,"SoundDuration":90804,"Delta":164817849},{"NoteNumber":59,"Velocity":43,"Duration":90804,"SoundDuration":90804,"Delta":164817849},{"NoteNumber":75,"Velocity":51,"Duration":90804,"SoundDuration":90804,"Delta":164999458},{"NoteNumber":70,"Velocity":51,"Duration":90804,"SoundDuration":90804,"Delta":164999458},{"NoteNumber":63,"Velocity":45,"Duration":90804,"SoundDuration":90804,"Delta":164999458},{"NoteNumber":58,"Velocity":45,"Duration":90804,"SoundDuration":90804,"Delta":164999458},{"NoteNumber":75,"Velocity":56,"Duration":93463,"SoundDuration":93463,"Delta":165181067},{"NoteNumber":71,"Velocity":56,"Duration":93463,"SoundDuration":93463,"Delta":165181067},{"NoteNumber":44,"Velocity":48,"Duration":93463,"SoundDuration":93463,"Delta":165181067},{"NoteNumber":71,"Velocity":50,"Duration":89960,"SoundDuration":89960,"Delta":165367994},{"NoteNumber":75,"Velocity":50,"Duration":89960,"SoundDuration":89960,"Delta":165367994},{"NoteNumber":59,"Velocity":39,"Duration":89960,"SoundDuration":89960,"Delta":165367994},{"NoteNumber":56,"Velocity":39,"Duration":89960,"SoundDuration":89960,"Delta":165367994},{"NoteNumber":71,"Velocity":50,"Duration":179920,"SoundDuration":179920,"Delta":165547915},{"NoteNumber":75,"Velocity":50,"Duration":179920,"SoundDuration":179920,"Delta":165547915},{"NoteNumber":56,"Velocity":39,"Duration":179920,"SoundDuration":179920,"Delta":165547915},{"NoteNumber":59,"Velocity":39,"Duration":179920,"SoundDuration":179920,"Delta":165547915},{"NoteNumber":71,"Velocity":49,"Duration":179921,"SoundDuration":179921,"Delta":165727836},{"NoteNumber":68,"Velocity":49,"Duration":179921,"SoundDuration":179921,"Delta":165727836},{"NoteNumber":59,"Velocity":39,"Duration":179921,"SoundDuration":179921,"Delta":165727836},{"NoteNumber":63,"Velocity":39,"Duration":179921,"SoundDuration":179921,"Delta":165727836},{"NoteNumber":49,"Velocity":47,"Duration":91675,"SoundDuration":91675,"Delta":165907757},{"NoteNumber":73,"Velocity":50,"Duration":89960,"SoundDuration":89960,"Delta":166091109},{"NoteNumber":76,"Velocity":50,"Duration":89960,"SoundDuration":89960,"Delta":166091109},{"NoteNumber":56,"Velocity":43,"Duration":89960,"SoundDuration":89960,"Delta":166091109},{"NoteNumber":61,"Velocity":43,"Duration":89960,"SoundDuration":89960,"Delta":166091109},{"NoteNumber":76,"Velocity":50,"Duration":179920,"SoundDuration":179920,"Delta":166271030},{"NoteNumber":73,"Velocity":50,"Duration":179920,"SoundDuration":179920,"Delta":166271030},{"NoteNumber":61,"Velocity":43,"Duration":179920,"SoundDuration":179920,"Delta":166271030},{"NoteNumber":56,"Velocity":43,"Duration":179920,"SoundDuration":179920,"Delta":166271030},{"NoteNumber":73,"Velocity":49,"Duration":179921,"SoundDuration":179921,"Delta":166450951},{"NoteNumber":68,"Velocity":49,"Duration":179921,"SoundDuration":179921,"Delta":166450951},{"NoteNumber":61,"Velocity":41,"Duration":179921,"SoundDuration":179921,"Delta":166450951},{"NoteNumber":64,"Velocity":41,"Duration":179921,"SoundDuration":179921,"Delta":166450951},{"NoteNumber":51,"Velocity":47,"Duration":93463,"SoundDuration":93463,"Delta":166630872},{"NoteNumber":75,"Velocity":47,"Duration":89960,"SoundDuration":89960,"Delta":166817799},{"NoteNumber":71,"Velocity":47,"Duration":89960,"SoundDuration":89960,"Delta":166817799},{"NoteNumber":59,"Velocity":41,"Duration":89960,"SoundDuration":89960,"Delta":166817799},{"NoteNumber":56,"Velocity":41,"Duration":89960,"SoundDuration":89960,"Delta":166817799},{"NoteNumber":75,"Velocity":47,"Duration":179920,"SoundDuration":179920,"Delta":166997720},{"NoteNumber":71,"Velocity":47,"Duration":179920,"SoundDuration":179920,"Delta":166997720},{"NoteNumber":56,"Velocity":42,"Duration":179920,"SoundDuration":179920,"Delta":166997720},{"NoteNumber":59,"Velocity":42,"Duration":179920,"SoundDuration":179920,"Delta":166997720},{"NoteNumber":68,"Velocity":49,"Duration":179921,"SoundDuration":179921,"Delta":167177641},{"NoteNumber":71,"Velocity":49,"Duration":179921,"SoundDuration":179921,"Delta":167177641},{"NoteNumber":63,"Velocity":42,"Duration":179921,"SoundDuration":179921,"Delta":167177641},{"NoteNumber":59,"Velocity":42,"Duration":179921,"SoundDuration":179921,"Delta":167177641},{"NoteNumber":51,"Velocity":47,"Duration":95316,"SoundDuration":95316,"Delta":167357562},{"NoteNumber":75,"Velocity":49,"Duration":89960,"SoundDuration":89960,"Delta":167548196},{"NoteNumber":70,"Velocity":49,"Duration":89960,"SoundDuration":89960,"Delta":167548196},{"NoteNumber":55,"Velocity":39,"Duration":89960,"SoundDuration":89960,"Delta":167548196},{"NoteNumber":58,"Velocity":39,"Duration":89960,"SoundDuration":89960,"Delta":167548196},{"NoteNumber":75,"Velocity":47,"Duration":179920,"SoundDuration":179920,"Delta":167728117},{"NoteNumber":70,"Velocity":47,"Duration":179920,"SoundDuration":179920,"Delta":167728117},{"NoteNumber":58,"Velocity":39,"Duration":179920,"SoundDuration":179920,"Delta":167728117},{"NoteNumber":55,"Velocity":39,"Duration":179920,"SoundDuration":179920,"Delta":167728117},{"NoteNumber":67,"Velocity":47,"Duration":179921,"SoundDuration":179921,"Delta":167908038},{"NoteNumber":70,"Velocity":47,"Duration":179921,"SoundDuration":179921,"Delta":167908038},{"NoteNumber":58,"Velocity":39,"Duration":179921,"SoundDuration":179921,"Delta":167908038},{"NoteNumber":63,"Velocity":39,"Duration":179921,"SoundDuration":179921,"Delta":167908038},{"NoteNumber":68,"Velocity":49,"Duration":179921,"SoundDuration":179921,"Delta":168087959},{"NoteNumber":71,"Velocity":49,"Duration":179921,"SoundDuration":179921,"Delta":168087959},{"NoteNumber":32,"Velocity":42,"Duration":179921,"SoundDuration":179921,"Delta":168087959},{"NoteNumber":44,"Velocity":42,"Duration":179921,"SoundDuration":179921,"Delta":168087959},{"NoteNumber":75,"Velocity":51,"Duration":91968,"SoundDuration":91968,"Delta":168267880},{"NoteNumber":83,"Velocity":51,"Duration":91968,"SoundDuration":91968,"Delta":168267880},{"NoteNumber":71,"Velocity":43,"Duration":91968,"SoundDuration":91968,"Delta":168267880},{"NoteNumber":44,"Velocity":41,"Duration":91968,"SoundDuration":91968,"Delta":168267880},{"NoteNumber":51,"Velocity":41,"Duration":91968,"SoundDuration":91968,"Delta":168267880},{"NoteNumber":83,"Velocity":56,"Duration":91968,"SoundDuration":91968,"Delta":168451816},{"NoteNumber":75,"Velocity":56,"Duration":91968,"SoundDuration":91968,"Delta":168451816},{"NoteNumber":71,"Velocity":47,"Duration":91968,"SoundDuration":91968,"Delta":168451816},{"NoteNumber":44,"Velocity":43,"Duration":91968,"SoundDuration":91968,"Delta":168451816},{"NoteNumber":51,"Velocity":43,"Duration":91968,"SoundDuration":91968,"Delta":168451816},{"NoteNumber":83,"Velocity":58,"Duration":91675,"SoundDuration":91675,"Delta":168635655},{"NoteNumber":71,"Velocity":49,"Duration":91675,"SoundDuration":91675,"Delta":168635655},{"NoteNumber":75,"Velocity":58,"Duration":91675,"SoundDuration":91675,"Delta":168635655},{"NoteNumber":51,"Velocity":47,"Duration":91675,"SoundDuration":91675,"Delta":168635655},{"NoteNumber":44,"Velocity":47,"Duration":91675,"SoundDuration":91675,"Delta":168635655},{"NoteNumber":71,"Velocity":52,"Duration":91675,"SoundDuration":91675,"Delta":168819006},{"NoteNumber":75,"Velocity":62,"Duration":91675,"SoundDuration":91675,"Delta":168819006},{"NoteNumber":83,"Velocity":62,"Duration":91675,"SoundDuration":91675,"Delta":168819006},{"NoteNumber":51,"Velocity":50,"Duration":91675,"SoundDuration":91675,"Delta":168819006},{"NoteNumber":44,"Velocity":50,"Duration":91675,"SoundDuration":91675,"Delta":168819006},{"NoteNumber":83,"Velocity":66,"Duration":91385,"SoundDuration":91385,"Delta":169002067},{"NoteNumber":75,"Velocity":66,"Duration":91385,"SoundDuration":91385,"Delta":169002067},{"NoteNumber":71,"Velocity":56,"Duration":91385,"SoundDuration":91385,"Delta":169002067},{"NoteNumber":51,"Velocity":52,"Duration":91385,"SoundDuration":91385,"Delta":169002067},{"NoteNumber":44,"Velocity":52,"Duration":91385,"SoundDuration":91385,"Delta":169002067},{"NoteNumber":73,"Velocity":68,"Duration":91289,"SoundDuration":91289,"Delta":169184838},{"NoteNumber":70,"Velocity":57,"Duration":91289,"SoundDuration":91289,"Delta":169184838},{"NoteNumber":82,"Velocity":68,"Duration":91289,"SoundDuration":91289,"Delta":169184838},{"NoteNumber":51,"Velocity":57,"Duration":91289,"SoundDuration":91289,"Delta":169184838},{"NoteNumber":46,"Velocity":57,"Duration":91289,"SoundDuration":91289,"Delta":169184838},{"NoteNumber":80,"Velocity":72,"Duration":91096,"SoundDuration":91096,"Delta":169367224},{"NoteNumber":68,"Velocity":61,"Duration":91096,"SoundDuration":91096,"Delta":169367224},{"NoteNumber":71,"Velocity":72,"Duration":91096,"SoundDuration":91096,"Delta":169367224},{"NoteNumber":51,"Velocity":59,"Duration":91096,"SoundDuration":91096,"Delta":169367224},{"NoteNumber":47,"Velocity":59,"Duration":91096,"SoundDuration":91096,"Delta":169367224},{"NoteNumber":79,"Velocity":75,"Duration":185723,"SoundDuration":185723,"Delta":169549418},{"NoteNumber":67,"Velocity":63,"Duration":185723,"SoundDuration":185723,"Delta":169549418},{"NoteNumber":70,"Velocity":75,"Duration":185723,"SoundDuration":185723,"Delta":169549418},{"NoteNumber":51,"Velocity":62,"Duration":185723,"SoundDuration":185723,"Delta":169549418},{"NoteNumber":49,"Velocity":62,"Duration":185723,"SoundDuration":185723,"Delta":169549418},{"NoteNumber":39,"Velocity":62,"Duration":185723,"SoundDuration":185723,"Delta":169549418},{"NoteNumber":76,"Velocity":64,"Duration":90804,"SoundDuration":90804,"Delta":169735142},{"NoteNumber":88,"Velocity":76,"Duration":90804,"SoundDuration":90804,"Delta":169735142},{"NoteNumber":79,"Velocity":76,"Duration":90804,"SoundDuration":90804,"Delta":169735142},{"NoteNumber":61,"Velocity":62,"Duration":90804,"SoundDuration":90804,"Delta":169735142},{"NoteNumber":51,"Velocity":62,"Duration":90804,"SoundDuration":90804,"Delta":169735142},{"NoteNumber":79,"Velocity":82,"Duration":90804,"SoundDuration":90804,"Delta":169916751},{"NoteNumber":76,"Velocity":69,"Duration":90804,"SoundDuration":90804,"Delta":169916751},{"NoteNumber":88,"Velocity":82,"Duration":90804,"SoundDuration":90804,"Delta":169916751},{"NoteNumber":51,"Velocity":66,"Duration":90804,"SoundDuration":90804,"Delta":169916751},{"NoteNumber":61,"Velocity":66,"Duration":90804,"SoundDuration":90804,"Delta":169916751},{"NoteNumber":79,"Velocity":79,"Duration":90804,"SoundDuration":90804,"Delta":170098360},{"NoteNumber":88,"Velocity":79,"Duration":90804,"SoundDuration":90804,"Delta":170098360},{"NoteNumber":76,"Velocity":67,"Duration":90804,"SoundDuration":90804,"Delta":170098360},{"NoteNumber":61,"Velocity":62,"Duration":90804,"SoundDuration":90804,"Delta":170098360},{"NoteNumber":51,"Velocity":62,"Duration":90804,"SoundDuration":90804,"Delta":170098360},{"NoteNumber":88,"Velocity":82,"Duration":90804,"SoundDuration":90804,"Delta":170279969},{"NoteNumber":76,"Velocity":69,"Duration":90804,"SoundDuration":90804,"Delta":170279969},{"NoteNumber":79,"Velocity":82,"Duration":90804,"SoundDuration":90804,"Delta":170279969},{"NoteNumber":61,"Velocity":66,"Duration":90804,"SoundDuration":90804,"Delta":170279969},{"NoteNumber":51,"Velocity":66,"Duration":90804,"SoundDuration":90804,"Delta":170279969},{"NoteNumber":79,"Velocity":79,"Duration":90804,"SoundDuration":90804,"Delta":170461578},{"NoteNumber":76,"Velocity":67,"Duration":90804,"SoundDuration":90804,"Delta":170461578},{"NoteNumber":88,"Velocity":79,"Duration":90804,"SoundDuration":90804,"Delta":170461578},{"NoteNumber":61,"Velocity":62,"Duration":90804,"SoundDuration":90804,"Delta":170461578},{"NoteNumber":51,"Velocity":62,"Duration":90804,"SoundDuration":90804,"Delta":170461578},{"NoteNumber":79,"Velocity":81,"Duration":93167,"SoundDuration":93167,"Delta":170643187},{"NoteNumber":75,"Velocity":68,"Duration":93167,"SoundDuration":93167,"Delta":170643187},{"NoteNumber":87,"Velocity":81,"Duration":93167,"SoundDuration":93167,"Delta":170643187},{"NoteNumber":51,"Velocity":66,"Duration":93167,"SoundDuration":93167,"Delta":170643187},{"NoteNumber":59,"Velocity":66,"Duration":93167,"SoundDuration":93167,"Delta":170643187},{"NoteNumber":79,"Velocity":79,"Duration":93167,"SoundDuration":93167,"Delta":170829522},{"NoteNumber":85,"Velocity":79,"Duration":93167,"SoundDuration":93167,"Delta":170829522},{"NoteNumber":73,"Velocity":67,"Duration":93167,"SoundDuration":93167,"Delta":170829522},{"NoteNumber":51,"Velocity":62,"Duration":93167,"SoundDuration":93167,"Delta":170829522},{"NoteNumber":58,"Velocity":62,"Duration":93167,"SoundDuration":93167,"Delta":170829522},{"NoteNumber":83,"Velocity":82,"Duration":197352,"SoundDuration":197352,"Delta":171015858},{"NoteNumber":80,"Velocity":82,"Duration":190476,"SoundDuration":190476,"Delta":171015858},{"NoteNumber":71,"Velocity":69,"Duration":190476,"SoundDuration":190476,"Delta":171015858},{"NoteNumber":44,"Velocity":67,"Duration":190476,"SoundDuration":190476,"Delta":171015858},{"NoteNumber":32,"Velocity":67,"Duration":190476,"SoundDuration":190476,"Delta":171015858},{"NoteNumber":71,"Velocity":41,"Duration":91675,"SoundDuration":91675,"Delta":171206334},{"NoteNumber":83,"Velocity":49,"Duration":91675,"SoundDuration":91675,"Delta":171206334},{"NoteNumber":75,"Velocity":49,"Duration":91675,"SoundDuration":91675,"Delta":171206334},{"NoteNumber":51,"Velocity":41,"Duration":91675,"SoundDuration":91675,"Delta":171206334},{"NoteNumber":44,"Velocity":41,"Duration":91675,"SoundDuration":91675,"Delta":171206334},{"NoteNumber":83,"Velocity":52,"Duration":91675,"SoundDuration":91675,"Delta":171389686},{"NoteNumber":71,"Velocity":44,"Duration":91675,"SoundDuration":91675,"Delta":171389686},{"NoteNumber":75,"Velocity":52,"Duration":91675,"SoundDuration":91675,"Delta":171389686},{"NoteNumber":51,"Velocity":44,"Duration":91675,"SoundDuration":91675,"Delta":171389686},{"NoteNumber":44,"Velocity":44,"Duration":91675,"SoundDuration":91675,"Delta":171389686},{"NoteNumber":71,"Velocity":48,"Duration":91385,"SoundDuration":91385,"Delta":171572844},{"NoteNumber":83,"Velocity":57,"Duration":91385,"SoundDuration":91385,"Delta":171572844},{"NoteNumber":75,"Velocity":57,"Duration":91385,"SoundDuration":91385,"Delta":171572844},{"NoteNumber":44,"Velocity":48,"Duration":91385,"SoundDuration":91385,"Delta":171572844},{"NoteNumber":51,"Velocity":48,"Duration":91385,"SoundDuration":91385,"Delta":171572844},{"NoteNumber":71,"Velocity":51,"Duration":91385,"SoundDuration":91385,"Delta":171755615},{"NoteNumber":75,"Velocity":61,"Duration":91385,"SoundDuration":91385,"Delta":171755615},{"NoteNumber":83,"Velocity":61,"Duration":91385,"SoundDuration":91385,"Delta":171755615},{"NoteNumber":44,"Velocity":51,"Duration":91385,"SoundDuration":91385,"Delta":171755615},{"NoteNumber":51,"Velocity":51,"Duration":91385,"SoundDuration":91385,"Delta":171755615},{"NoteNumber":75,"Velocity":66,"Duration":91096,"SoundDuration":91096,"Delta":171938097},{"NoteNumber":83,"Velocity":66,"Duration":91096,"SoundDuration":91096,"Delta":171938097},{"NoteNumber":71,"Velocity":56,"Duration":91096,"SoundDuration":91096,"Delta":171938097},{"NoteNumber":44,"Velocity":56,"Duration":91096,"SoundDuration":91096,"Delta":171938097},{"NoteNumber":51,"Velocity":56,"Duration":91096,"SoundDuration":91096,"Delta":171938097},{"NoteNumber":82,"Velocity":69,"Duration":90999,"SoundDuration":90999,"Delta":172120291},{"NoteNumber":70,"Velocity":58,"Duration":90999,"SoundDuration":90999,"Delta":172120291},{"NoteNumber":73,"Velocity":69,"Duration":90999,"SoundDuration":90999,"Delta":172120291},{"NoteNumber":51,"Velocity":58,"Duration":90999,"SoundDuration":90999,"Delta":172120291},{"NoteNumber":46,"Velocity":58,"Duration":90999,"SoundDuration":90999,"Delta":172120291},{"NoteNumber":80,"Velocity":73,"Duration":90804,"SoundDuration":90804,"Delta":172302094},{"NoteNumber":68,"Velocity":62,"Duration":90804,"SoundDuration":90804,"Delta":172302094},{"NoteNumber":71,"Velocity":73,"Duration":90804,"SoundDuration":90804,"Delta":172302094},{"NoteNumber":47,"Velocity":62,"Duration":90804,"SoundDuration":90804,"Delta":172302094},{"NoteNumber":51,"Velocity":62,"Duration":90804,"SoundDuration":90804,"Delta":172302094},{"NoteNumber":70,"Velocity":78,"Duration":180852,"SoundDuration":180852,"Delta":172483703},{"NoteNumber":67,"Velocity":66,"Duration":180852,"SoundDuration":180852,"Delta":172483703},{"NoteNumber":79,"Velocity":78,"Duration":180852,"SoundDuration":180852,"Delta":172483703},{"NoteNumber":49,"Velocity":66,"Duration":180852,"SoundDuration":180852,"Delta":172483703},{"NoteNumber":39,"Velocity":66,"Duration":180852,"SoundDuration":180852,"Delta":172483703},{"NoteNumber":51,"Velocity":66,"Duration":180852,"SoundDuration":180852,"Delta":172483703},{"NoteNumber":88,"Velocity":78,"Duration":89960,"SoundDuration":89960,"Delta":172664556},{"NoteNumber":79,"Velocity":78,"Duration":89960,"SoundDuration":89960,"Delta":172664556},{"NoteNumber":76,"Velocity":66,"Duration":89960,"SoundDuration":89960,"Delta":172664556},{"NoteNumber":51,"Velocity":62,"Duration":89960,"SoundDuration":89960,"Delta":172664556},{"NoteNumber":61,"Velocity":62,"Duration":89960,"SoundDuration":89960,"Delta":172664556},{"NoteNumber":88,"Velocity":82,"Duration":90519,"SoundDuration":90519,"Delta":172844758},{"NoteNumber":76,"Velocity":69,"Duration":90519,"SoundDuration":90519,"Delta":172844758},{"NoteNumber":79,"Velocity":82,"Duration":90519,"SoundDuration":90519,"Delta":172844758},{"NoteNumber":51,"Velocity":67,"Duration":90519,"SoundDuration":90519,"Delta":172844758},{"NoteNumber":61,"Velocity":67,"Duration":90519,"SoundDuration":90519,"Delta":172844758},{"NoteNumber":76,"Velocity":66,"Duration":91096,"SoundDuration":91096,"Delta":173026082},{"NoteNumber":88,"Velocity":78,"Duration":91096,"SoundDuration":91096,"Delta":173026082},{"NoteNumber":79,"Velocity":78,"Duration":91096,"SoundDuration":91096,"Delta":173026082},{"NoteNumber":51,"Velocity":62,"Duration":91096,"SoundDuration":91096,"Delta":173026082},{"NoteNumber":61,"Velocity":62,"Duration":91096,"SoundDuration":91096,"Delta":173026082},{"NoteNumber":79,"Velocity":82,"Duration":91675,"SoundDuration":91675,"Delta":173208565},{"NoteNumber":76,"Velocity":69,"Duration":91675,"SoundDuration":91675,"Delta":173208565},{"NoteNumber":88,"Velocity":82,"Duration":91675,"SoundDuration":91675,"Delta":173208565},{"NoteNumber":61,"Velocity":67,"Duration":91675,"SoundDuration":91675,"Delta":173208565},{"NoteNumber":51,"Velocity":67,"Duration":91675,"SoundDuration":91675,"Delta":173208565},{"NoteNumber":79,"Velocity":79,"Duration":92262,"SoundDuration":92262,"Delta":173392208},{"NoteNumber":76,"Velocity":67,"Duration":92262,"SoundDuration":92262,"Delta":173392208},{"NoteNumber":88,"Velocity":79,"Duration":92262,"SoundDuration":92262,"Delta":173392208},{"NoteNumber":51,"Velocity":62,"Duration":92262,"SoundDuration":92262,"Delta":173392208},{"NoteNumber":61,"Velocity":62,"Duration":92262,"SoundDuration":92262,"Delta":173392208},{"NoteNumber":75,"Velocity":68,"Duration":92861,"SoundDuration":92861,"Delta":173577029},{"NoteNumber":79,"Velocity":80,"Duration":92861,"SoundDuration":92861,"Delta":173577029},{"NoteNumber":87,"Velocity":80,"Duration":92861,"SoundDuration":92861,"Delta":173577029},{"NoteNumber":59,"Velocity":67,"Duration":92861,"SoundDuration":92861,"Delta":173577029},{"NoteNumber":51,"Velocity":67,"Duration":92861,"SoundDuration":92861,"Delta":173577029},{"NoteNumber":79,"Velocity":79,"Duration":93463,"SoundDuration":93463,"Delta":173763053},{"NoteNumber":73,"Velocity":67,"Duration":93463,"SoundDuration":93463,"Delta":173763053},{"NoteNumber":85,"Velocity":79,"Duration":93463,"SoundDuration":93463,"Delta":173763053},{"NoteNumber":51,"Velocity":62,"Duration":93463,"SoundDuration":93463,"Delta":173763053},{"NoteNumber":58,"Velocity":62,"Duration":93463,"SoundDuration":93463,"Delta":173763053},{"NoteNumber":83,"Velocity":82,"Duration":188558,"SoundDuration":188558,"Delta":173950278},{"NoteNumber":80,"Velocity":82,"Duration":188558,"SoundDuration":188558,"Delta":173950278},{"NoteNumber":71,"Velocity":69,"Duration":188558,"SoundDuration":188558,"Delta":173950278},{"NoteNumber":44,"Velocity":68,"Duration":188558,"SoundDuration":188558,"Delta":173950278},{"NoteNumber":56,"Velocity":68,"Duration":188558,"SoundDuration":188558,"Delta":173950278},{"NoteNumber":83,"Velocity":50,"Duration":89960,"SoundDuration":89960,"Delta":174138836},{"NoteNumber":80,"Velocity":50,"Duration":89960,"SoundDuration":89960,"Delta":174138836},{"NoteNumber":59,"Velocity":43,"Duration":89960,"SoundDuration":89960,"Delta":174138836},{"NoteNumber":63,"Velocity":43,"Duration":89960,"SoundDuration":89960,"Delta":174138836},{"NoteNumber":83,"Velocity":50,"Duration":179920,"SoundDuration":179920,"Delta":174318757},{"NoteNumber":80,"Velocity":50,"Duration":179920,"SoundDuration":179920,"Delta":174318757},{"NoteNumber":63,"Velocity":41,"Duration":179920,"SoundDuration":179920,"Delta":174318757},{"NoteNumber":59,"Velocity":41,"Duration":179920,"SoundDuration":179920,"Delta":174318757},{"NoteNumber":83,"Velocity":48,"Duration":179921,"SoundDuration":179921,"Delta":174498678},{"NoteNumber":87,"Velocity":48,"Duration":179921,"SoundDuration":179921,"Delta":174498678},{"NoteNumber":56,"Velocity":39,"Duration":179921,"SoundDuration":179921,"Delta":174498678},{"NoteNumber":59,"Velocity":39,"Duration":179921,"SoundDuration":179921,"Delta":174498678},{"NoteNumber":49,"Velocity":48,"Duration":91968,"SoundDuration":91968,"Delta":174678599},{"NoteNumber":85,"Velocity":49,"Duration":89960,"SoundDuration":89960,"Delta":174862535},{"NoteNumber":80,"Velocity":49,"Duration":89960,"SoundDuration":89960,"Delta":174862535},{"NoteNumber":64,"Velocity":42,"Duration":89960,"SoundDuration":89960,"Delta":174862535},{"NoteNumber":61,"Velocity":42,"Duration":89960,"SoundDuration":89960,"Delta":174862535},{"NoteNumber":85,"Velocity":49,"Duration":179920,"SoundDuration":179920,"Delta":175042456},{"NoteNumber":80,"Velocity":49,"Duration":179920,"SoundDuration":179920,"Delta":175042456},{"NoteNumber":61,"Velocity":42,"Duration":179920,"SoundDuration":179920,"Delta":175042456},{"NoteNumber":64,"Velocity":42,"Duration":179920,"SoundDuration":179920,"Delta":175042456},{"NoteNumber":88,"Velocity":47,"Duration":179921,"SoundDuration":179921,"Delta":175222377},{"NoteNumber":85,"Velocity":47,"Duration":179921,"SoundDuration":179921,"Delta":175222377},{"NoteNumber":56,"Velocity":39,"Duration":179921,"SoundDuration":179921,"Delta":175222377},{"NoteNumber":61,"Velocity":39,"Duration":179921,"SoundDuration":179921,"Delta":175222377},{"NoteNumber":51,"Velocity":48,"Duration":93162,"SoundDuration":93162,"Delta":175402298},{"NoteNumber":83,"Velocity":49,"Duration":89960,"SoundDuration":89960,"Delta":175588622},{"NoteNumber":80,"Velocity":49,"Duration":89960,"SoundDuration":89960,"Delta":175588622},{"NoteNumber":63,"Velocity":42,"Duration":89960,"SoundDuration":89960,"Delta":175588622},{"NoteNumber":59,"Velocity":42,"Duration":89960,"SoundDuration":89960,"Delta":175588622},{"NoteNumber":80,"Velocity":49,"Duration":179920,"SoundDuration":179920,"Delta":175768543},{"NoteNumber":83,"Velocity":49,"Duration":179920,"SoundDuration":179920,"Delta":175768543},{"NoteNumber":63,"Velocity":42,"Duration":179920,"SoundDuration":179920,"Delta":175768543},{"NoteNumber":59,"Velocity":42,"Duration":179920,"SoundDuration":179920,"Delta":175768543},{"NoteNumber":87,"Velocity":47,"Duration":179921,"SoundDuration":179921,"Delta":175948464},{"NoteNumber":83,"Velocity":47,"Duration":179921,"SoundDuration":179921,"Delta":175948464},{"NoteNumber":59,"Velocity":39,"Duration":179921,"SoundDuration":179921,"Delta":175948464},{"NoteNumber":56,"Velocity":39,"Duration":179921,"SoundDuration":179921,"Delta":175948464},{"NoteNumber":49,"Velocity":49,"Duration":92558,"SoundDuration":92558,"Delta":176128385},{"NoteNumber":82,"Velocity":51,"Duration":89960,"SoundDuration":89960,"Delta":176313502},{"NoteNumber":79,"Velocity":51,"Duration":89960,"SoundDuration":89960,"Delta":176313502},{"NoteNumber":63,"Velocity":42,"Duration":89960,"SoundDuration":89960,"Delta":176313502},{"NoteNumber":58,"Velocity":42,"Duration":89960,"SoundDuration":89960,"Delta":176313502},{"NoteNumber":82,"Velocity":51,"Duration":179920,"SoundDuration":179920,"Delta":176493423},{"NoteNumber":79,"Velocity":51,"Duration":179920,"SoundDuration":179920,"Delta":176493423},{"NoteNumber":58,"Velocity":42,"Duration":179920,"SoundDuration":179920,"Delta":176493423},{"NoteNumber":63,"Velocity":42,"Duration":179920,"SoundDuration":179920,"Delta":176493423},{"NoteNumber":87,"Velocity":47,"Duration":179921,"SoundDuration":179921,"Delta":176673344},{"NoteNumber":82,"Velocity":47,"Duration":179921,"SoundDuration":179921,"Delta":176673344},{"NoteNumber":58,"Velocity":39,"Duration":179921,"SoundDuration":179921,"Delta":176673344},{"NoteNumber":55,"Velocity":39,"Duration":179921,"SoundDuration":179921,"Delta":176673344},{"NoteNumber":47,"Velocity":45,"Duration":181676,"SoundDuration":181676,"Delta":176853265},{"NoteNumber":83,"Velocity":56,"Duration":93465,"SoundDuration":93465,"Delta":177034941},{"NoteNumber":75,"Velocity":56,"Duration":93465,"SoundDuration":93465,"Delta":177034941},{"NoteNumber":63,"Velocity":39,"Duration":93465,"SoundDuration":93465,"Delta":177034941},{"NoteNumber":68,"Velocity":39,"Duration":93465,"SoundDuration":93465,"Delta":177034941},{"NoteNumber":75,"Velocity":51,"Duration":192476,"SoundDuration":192476,"Delta":177222893},{"NoteNumber":83,"Velocity":51,"Duration":192476,"SoundDuration":192476,"Delta":177222893},{"NoteNumber":68,"Velocity":41,"Duration":192476,"SoundDuration":192476,"Delta":177222893},{"NoteNumber":63,"Velocity":41,"Duration":192476,"SoundDuration":192476,"Delta":177222893},{"NoteNumber":87,"Velocity":51,"Duration":195030,"SoundDuration":195030,"Delta":177415370},{"NoteNumber":80,"Velocity":51,"Duration":195030,"SoundDuration":195030,"Delta":177415370},{"NoteNumber":63,"Velocity":41,"Duration":195030,"SoundDuration":195030,"Delta":177415370},{"NoteNumber":59,"Velocity":41,"Duration":195030,"SoundDuration":195030,"Delta":177415370},{"NoteNumber":49,"Velocity":50,"Duration":197222,"SoundDuration":197222,"Delta":177610400},{"NoteNumber":81,"Velocity":62,"Duration":100326,"SoundDuration":100326,"Delta":177807622},{"NoteNumber":73,"Velocity":62,"Duration":100326,"SoundDuration":100326,"Delta":177807622},{"NoteNumber":64,"Velocity":47,"Duration":100326,"SoundDuration":100326,"Delta":177807622},{"NoteNumber":69,"Velocity":47,"Duration":100326,"SoundDuration":100326,"Delta":177807622},{"NoteNumber":81,"Velocity":56,"Duration":204164,"SoundDuration":204164,"Delta":178009838},{"NoteNumber":73,"Velocity":56,"Duration":204164,"SoundDuration":204164,"Delta":178009838},{"NoteNumber":69,"Velocity":45,"Duration":204164,"SoundDuration":204164,"Delta":178009838},{"NoteNumber":64,"Velocity":45,"Duration":204164,"SoundDuration":204164,"Delta":178009838},{"NoteNumber":76,"Velocity":56,"Duration":204165,"SoundDuration":204165,"Delta":178214003},{"NoteNumber":85,"Velocity":56,"Duration":204165,"SoundDuration":204165,"Delta":178214003},{"NoteNumber":64,"Velocity":45,"Duration":204165,"SoundDuration":204165,"Delta":178214003},{"NoteNumber":61,"Velocity":45,"Duration":204165,"SoundDuration":204165,"Delta":178214003},{"NoteNumber":51,"Velocity":52,"Duration":208478,"SoundDuration":208478,"Delta":178418168},{"NoteNumber":80,"Velocity":57,"Duration":106561,"SoundDuration":106561,"Delta":178626646},{"NoteNumber":71,"Velocity":57,"Duration":106561,"SoundDuration":106561,"Delta":178626646},{"NoteNumber":68,"Velocity":48,"Duration":106561,"SoundDuration":106561,"Delta":178626646},{"NoteNumber":63,"Velocity":48,"Duration":106561,"SoundDuration":106561,"Delta":178626646},{"NoteNumber":71,"Velocity":57,"Duration":218762,"SoundDuration":218762,"Delta":178840620},{"NoteNumber":80,"Velocity":57,"Duration":218762,"SoundDuration":218762,"Delta":178840620},{"NoteNumber":68,"Velocity":48,"Duration":218762,"SoundDuration":218762,"Delta":178840620},{"NoteNumber":63,"Velocity":48,"Duration":218762,"SoundDuration":218762,"Delta":178840620},{"NoteNumber":75,"Velocity":51,"Duration":224745,"SoundDuration":224745,"Delta":179059383},{"NoteNumber":83,"Velocity":51,"Duration":224745,"SoundDuration":224745,"Delta":179059383},{"NoteNumber":63,"Velocity":45,"Duration":224745,"SoundDuration":224745,"Delta":179059383},{"NoteNumber":59,"Velocity":45,"Duration":224745,"SoundDuration":224745,"Delta":179059383},{"NoteNumber":51,"Velocity":51,"Duration":232483,"SoundDuration":232483,"Delta":179284128},{"NoteNumber":70,"Velocity":52,"Duration":117980,"SoundDuration":117980,"Delta":179516612},{"NoteNumber":79,"Velocity":52,"Duration":117980,"SoundDuration":117980,"Delta":179516612},{"NoteNumber":67,"Velocity":43,"Duration":117980,"SoundDuration":117980,"Delta":179516612},{"NoteNumber":61,"Velocity":43,"Duration":117980,"SoundDuration":117980,"Delta":179516612},{"NoteNumber":70,"Velocity":51,"Duration":236479,"SoundDuration":236479,"Delta":179752572},{"NoteNumber":79,"Velocity":51,"Duration":236479,"SoundDuration":236479,"Delta":179752572},{"NoteNumber":67,"Velocity":43,"Duration":236479,"SoundDuration":236479,"Delta":179752572},{"NoteNumber":61,"Velocity":43,"Duration":236479,"SoundDuration":236479,"Delta":179752572},{"NoteNumber":73,"Velocity":42,"Duration":237906,"SoundDuration":237906,"Delta":179989052},{"NoteNumber":82,"Velocity":42,"Duration":237906,"SoundDuration":237906,"Delta":179989052},{"NoteNumber":58,"Velocity":35,"Duration":237906,"SoundDuration":237906,"Delta":179989052},{"NoteNumber":61,"Velocity":35,"Duration":237906,"SoundDuration":237906,"Delta":179989052},{"NoteNumber":80,"Velocity":50,"Duration":397034,"SoundDuration":397034,"Delta":180226958},{"NoteNumber":71,"Velocity":50,"Duration":397034,"SoundDuration":397034,"Delta":180226958},{"NoteNumber":44,"Velocity":41,"Duration":98431,"SoundDuration":98431,"Delta":180226958},{"NoteNumber":56,"Velocity":32,"Duration":98431,"SoundDuration":98431,"Delta":180326217},{"NoteNumber":51,"Velocity":36,"Duration":98431,"SoundDuration":98431,"Delta":180425476},{"NoteNumber":56,"Velocity":33,"Duration":98431,"SoundDuration":98431,"Delta":180524735},{"NoteNumber":44,"Velocity":41,"Duration":98431,"SoundDuration":98431,"Delta":180623993},{"NoteNumber":56,"Velocity":33,"Duration":98431,"SoundDuration":98431,"Delta":180723252},{"NoteNumber":51,"Velocity":36,"Duration":98431,"SoundDuration":98431,"Delta":180822511},{"NoteNumber":56,"Velocity":33,"Duration":98431,"SoundDuration":98431,"Delta":180921770},{"NoteNumber":44,"Velocity":41,"Duration":98431,"SoundDuration":98431,"Delta":181021028},{"NoteNumber":56,"Velocity":33,"Duration":98431,"SoundDuration":98431,"Delta":181120287},{"NoteNumber":51,"Velocity":37,"Duration":98431,"SoundDuration":98431,"Delta":181219546},{"NoteNumber":56,"Velocity":33,"Duration":98431,"SoundDuration":98431,"Delta":181318805},{"NoteNumber":71,"Velocity":50,"Duration":304074,"SoundDuration":304074,"Delta":181418063},{"NoteNumber":44,"Velocity":41,"Duration":100513,"SoundDuration":100513,"Delta":181418063},{"NoteNumber":56,"Velocity":33,"Duration":100513,"SoundDuration":100513,"Delta":181519422},{"NoteNumber":51,"Velocity":37,"Duration":100513,"SoundDuration":100513,"Delta":181620780},{"NoteNumber":68,"Velocity":50,"Duration":101358,"SoundDuration":101358,"Delta":181722138},{"NoteNumber":56,"Velocity":33,"Duration":100513,"SoundDuration":100513,"Delta":181722138},{"NoteNumber":67,"Velocity":57,"Duration":405433,"SoundDuration":405433,"Delta":181823496},{"NoteNumber":44,"Velocity":41,"Duration":100513,"SoundDuration":100513,"Delta":181823496},{"NoteNumber":58,"Velocity":33,"Duration":100513,"SoundDuration":100513,"Delta":181924855},{"NoteNumber":51,"Velocity":38,"Duration":100513,"SoundDuration":100513,"Delta":182026213},{"NoteNumber":58,"Velocity":33,"Duration":100513,"SoundDuration":100513,"Delta":182127571},{"NoteNumber":61,"Velocity":39,"Duration":321039,"SoundDuration":321039,"Delta":182228929},{"NoteNumber":67,"Velocity":47,"Duration":321039,"SoundDuration":321039,"Delta":182228929},{"NoteNumber":75,"Velocity":47,"Duration":321039,"SoundDuration":321039,"Delta":182228929},{"NoteNumber":44,"Velocity":41,"Duration":106121,"SoundDuration":106121,"Delta":182228929},{"NoteNumber":58,"Velocity":33,"Duration":106121,"SoundDuration":106121,"Delta":182335942},{"NoteNumber":51,"Velocity":37,"Duration":106121,"SoundDuration":106121,"Delta":182442955},{"NoteNumber":58,"Velocity":34,"Duration":106121,"SoundDuration":106121,"Delta":182549968},{"NoteNumber":75,"Velocity":47,"Duration":321038,"SoundDuration":321038,"Delta":182656981},{"NoteNumber":61,"Velocity":39,"Duration":321038,"SoundDuration":321038,"Delta":182656981},{"NoteNumber":67,"Velocity":47,"Duration":321038,"SoundDuration":321038,"Delta":182656981},{"NoteNumber":44,"Velocity":41,"Duration":106121,"SoundDuration":106121,"Delta":182656981},{"NoteNumber":58,"Velocity":34,"Duration":106121,"SoundDuration":106121,"Delta":182763994},{"NoteNumber":51,"Velocity":38,"Duration":106121,"SoundDuration":106121,"Delta":182871007},{"NoteNumber":58,"Velocity":33,"Duration":106121,"SoundDuration":106121,"Delta":182978020},{"NoteNumber":67,"Velocity":50,"Duration":321039,"SoundDuration":321039,"Delta":183085033},{"NoteNumber":75,"Velocity":50,"Duration":321039,"SoundDuration":321039,"Delta":183085033},{"NoteNumber":61,"Velocity":42,"Duration":321039,"SoundDuration":321039,"Delta":183085033},{"NoteNumber":44,"Velocity":41,"Duration":106121,"SoundDuration":106121,"Delta":183085033},{"NoteNumber":58,"Velocity":33,"Duration":106121,"SoundDuration":106121,"Delta":183192046},{"NoteNumber":51,"Velocity":36,"Duration":106121,"SoundDuration":106121,"Delta":183299059},{"NoteNumber":59,"Velocity":50,"Duration":95959,"SoundDuration":95959,"Delta":183406072},{"NoteNumber":58,"Velocity":33,"Duration":142740,"SoundDuration":142740,"Delta":183406072},{"NoteNumber":68,"Velocity":50,"Duration":88513,"SoundDuration":88513,"Delta":183478042},{"NoteNumber":75,"Velocity":57,"Duration":1191104,"SoundDuration":1191104,"Delta":183550012},{"NoteNumber":44,"Velocity":41,"Duration":98431,"SoundDuration":98431,"Delta":183550012},{"NoteNumber":56,"Velocity":32,"Duration":98431,"SoundDuration":98431,"Delta":183649271},{"NoteNumber":51,"Velocity":37,"Duration":98431,"SoundDuration":98431,"Delta":183748530},{"NoteNumber":56,"Velocity":32,"Duration":98431,"SoundDuration":98431,"Delta":183847789},{"NoteNumber":44,"Velocity":41,"Duration":98431,"SoundDuration":98431,"Delta":183947047},{"NoteNumber":56,"Velocity":33,"Duration":98431,"SoundDuration":98431,"Delta":184046306},{"NoteNumber":51,"Velocity":38,"Duration":98431,"SoundDuration":98431,"Delta":184145565},{"NoteNumber":56,"Velocity":34,"Duration":98431,"SoundDuration":98431,"Delta":184244824},{"NoteNumber":44,"Velocity":41,"Duration":98431,"SoundDuration":98431,"Delta":184344082},{"NoteNumber":56,"Velocity":34,"Duration":98431,"SoundDuration":98431,"Delta":184443341},{"NoteNumber":51,"Velocity":38,"Duration":98431,"SoundDuration":98431,"Delta":184542600},{"NoteNumber":56,"Velocity":33,"Duration":98431,"SoundDuration":98431,"Delta":184641859},{"NoteNumber":83,"Velocity":58,"Duration":303009,"SoundDuration":303009,"Delta":184741117},{"NoteNumber":44,"Velocity":41,"Duration":100161,"SoundDuration":100161,"Delta":184741117},{"NoteNumber":56,"Velocity":33,"Duration":100161,"SoundDuration":100161,"Delta":184842121},{"NoteNumber":51,"Velocity":36,"Duration":100161,"SoundDuration":100161,"Delta":184943124},{"NoteNumber":80,"Velocity":58,"Duration":101003,"SoundDuration":101003,"Delta":185044127},{"NoteNumber":56,"Velocity":34,"Duration":100161,"SoundDuration":100161,"Delta":185044127},{"NoteNumber":79,"Velocity":67,"Duration":404013,"SoundDuration":404013,"Delta":185145130},{"NoteNumber":44,"Velocity":41,"Duration":100161,"SoundDuration":100161,"Delta":185145130},{"NoteNumber":58,"Velocity":33,"Duration":100161,"SoundDuration":100161,"Delta":185246134},{"NoteNumber":51,"Velocity":36,"Duration":100161,"SoundDuration":100161,"Delta":185347137},{"NoteNumber":58,"Velocity":33,"Duration":100161,"SoundDuration":100161,"Delta":185448140},{"NoteNumber":79,"Velocity":57,"Duration":312912,"SoundDuration":312912,"Delta":185549143},{"NoteNumber":87,"Velocity":57,"Duration":312912,"SoundDuration":312912,"Delta":185549143},{"NoteNumber":73,"Velocity":48,"Duration":312912,"SoundDuration":312912,"Delta":185549143},{"NoteNumber":44,"Velocity":41,"Duration":103435,"SoundDuration":103435,"Delta":185549143},{"NoteNumber":58,"Velocity":33,"Duration":103435,"SoundDuration":103435,"Delta":185653448},{"NoteNumber":51,"Velocity":36,"Duration":103435,"SoundDuration":103435,"Delta":185757752},{"NoteNumber":58,"Velocity":33,"Duration":103435,"SoundDuration":103435,"Delta":185862056},{"NoteNumber":73,"Velocity":48,"Duration":312912,"SoundDuration":312912,"Delta":185966360},{"NoteNumber":87,"Velocity":57,"Duration":312912,"SoundDuration":312912,"Delta":185966360},{"NoteNumber":79,"Velocity":57,"Duration":312912,"SoundDuration":312912,"Delta":185966360},{"NoteNumber":44,"Velocity":41,"Duration":103435,"SoundDuration":103435,"Delta":185966360},{"NoteNumber":58,"Velocity":33,"Duration":103435,"SoundDuration":103435,"Delta":186070665},{"NoteNumber":51,"Velocity":36,"Duration":103435,"SoundDuration":103435,"Delta":186174969},{"NoteNumber":58,"Velocity":33,"Duration":103435,"SoundDuration":103435,"Delta":186279273},{"NoteNumber":87,"Velocity":57,"Duration":310781,"SoundDuration":310781,"Delta":186383577},{"NoteNumber":79,"Velocity":57,"Duration":310781,"SoundDuration":310781,"Delta":186383577},{"NoteNumber":73,"Velocity":48,"Duration":310781,"SoundDuration":310781,"Delta":186383577},{"NoteNumber":44,"Velocity":41,"Duration":103435,"SoundDuration":103435,"Delta":186383577},{"NoteNumber":58,"Velocity":34,"Duration":103435,"SoundDuration":103435,"Delta":186487882},{"NoteNumber":51,"Velocity":39,"Duration":101357,"SoundDuration":101357,"Delta":186592186},{"NoteNumber":71,"Velocity":47,"Duration":90530,"SoundDuration":90530,"Delta":186694359},{"NoteNumber":58,"Velocity":34,"Duration":134664,"SoundDuration":134664,"Delta":186694359},{"NoteNumber":80,"Velocity":52,"Duration":84216,"SoundDuration":84216,"Delta":186762257},{"NoteNumber":87,"Velocity":73,"Duration":685378,"SoundDuration":685378,"Delta":186830155},{"NoteNumber":44,"Velocity":41,"Duration":97095,"SoundDuration":97095,"Delta":186830155},{"NoteNumber":56,"Velocity":33,"Duration":97095,"SoundDuration":97095,"Delta":186928066},{"NoteNumber":51,"Velocity":36,"Duration":97095,"SoundDuration":97095,"Delta":187025977},{"NoteNumber":56,"Velocity":33,"Duration":97095,"SoundDuration":97095,"Delta":187123889},{"NoteNumber":44,"Velocity":42,"Duration":97095,"SoundDuration":97095,"Delta":187221800},{"NoteNumber":56,"Velocity":33,"Duration":97095,"SoundDuration":97095,"Delta":187319711},{"NoteNumber":51,"Velocity":35,"Duration":97095,"SoundDuration":97095,"Delta":187417622},{"NoteNumber":73,"Velocity":43,"Duration":76155,"SoundDuration":76155,"Delta":187515534},{"NoteNumber":56,"Velocity":33,"Duration":113281,"SoundDuration":113281,"Delta":187515534},{"NoteNumber":79,"Velocity":51,"Duration":73435,"SoundDuration":73435,"Delta":187572650},{"NoteNumber":87,"Velocity":72,"Duration":685378,"SoundDuration":685378,"Delta":187629767},{"NoteNumber":44,"Velocity":41,"Duration":97095,"SoundDuration":97095,"Delta":187629767},{"NoteNumber":58,"Velocity":34,"Duration":97095,"SoundDuration":97095,"Delta":187727678},{"NoteNumber":51,"Velocity":37,"Duration":97095,"SoundDuration":97095,"Delta":187825590},{"NoteNumber":58,"Velocity":34,"Duration":97095,"SoundDuration":97095,"Delta":187923501},{"NoteNumber":44,"Velocity":41,"Duration":97095,"SoundDuration":97095,"Delta":188021412},{"NoteNumber":58,"Velocity":33,"Duration":97095,"SoundDuration":97095,"Delta":188119323},{"NoteNumber":51,"Velocity":38,"Duration":97095,"SoundDuration":97095,"Delta":188217235},{"NoteNumber":71,"Velocity":40,"Duration":85675,"SoundDuration":85675,"Delta":188315146},{"NoteNumber":58,"Velocity":33,"Duration":127441,"SoundDuration":127441,"Delta":188315146},{"NoteNumber":80,"Velocity":50,"Duration":80574,"SoundDuration":80574,"Delta":188379402},{"NoteNumber":87,"Velocity":72,"Duration":685378,"SoundDuration":685378,"Delta":188443659},{"NoteNumber":44,"Velocity":41,"Duration":97095,"SoundDuration":97095,"Delta":188443659},{"NoteNumber":56,"Velocity":33,"Duration":97095,"SoundDuration":97095,"Delta":188541570},{"NoteNumber":51,"Velocity":36,"Duration":97095,"SoundDuration":97095,"Delta":188639481},{"NoteNumber":56,"Velocity":33,"Duration":97095,"SoundDuration":97095,"Delta":188737392},{"NoteNumber":44,"Velocity":41,"Duration":97095,"SoundDuration":97095,"Delta":188835304},{"NoteNumber":56,"Velocity":34,"Duration":97095,"SoundDuration":97095,"Delta":188933215},{"NoteNumber":51,"Velocity":36,"Duration":97095,"SoundDuration":97095,"Delta":189031126},{"NoteNumber":73,"Velocity":45,"Duration":65274,"SoundDuration":65274,"Delta":189129037},{"NoteNumber":56,"Velocity":33,"Duration":97095,"SoundDuration":97095,"Delta":189129037},{"NoteNumber":79,"Velocity":52,"Duration":65274,"SoundDuration":65274,"Delta":189177993},{"NoteNumber":87,"Velocity":71,"Duration":783289,"SoundDuration":783289,"Delta":189226949},{"NoteNumber":44,"Velocity":41,"Duration":97095,"SoundDuration":97095,"Delta":189226949},{"NoteNumber":58,"Velocity":34,"Duration":97095,"SoundDuration":97095,"Delta":189324860},{"NoteNumber":51,"Velocity":37,"Duration":97095,"SoundDuration":97095,"Delta":189422771},{"NoteNumber":58,"Velocity":34,"Duration":97095,"SoundDuration":97095,"Delta":189520682},{"NoteNumber":44,"Velocity":41,"Duration":97095,"SoundDuration":97095,"Delta":189618594},{"NoteNumber":58,"Velocity":34,"Duration":97095,"SoundDuration":97095,"Delta":189716505},{"NoteNumber":51,"Velocity":37,"Duration":97095,"SoundDuration":97095,"Delta":189814416},{"NoteNumber":58,"Velocity":34,"Duration":97095,"SoundDuration":97095,"Delta":189912327},{"NoteNumber":59,"Velocity":49,"Duration":102117,"SoundDuration":102117,"Delta":190010239},{"NoteNumber":44,"Velocity":42,"Duration":102117,"SoundDuration":102117,"Delta":190010239},{"NoteNumber":68,"Velocity":50,"Duration":100706,"SoundDuration":100706,"Delta":190113212},{"NoteNumber":56,"Velocity":41,"Duration":100706,"SoundDuration":100706,"Delta":190113212},{"NoteNumber":63,"Velocity":51,"Duration":100513,"SoundDuration":100513,"Delta":190214764},{"NoteNumber":51,"Velocity":42,"Duration":100513,"SoundDuration":100513,"Delta":190214764},{"NoteNumber":68,"Velocity":47,"Duration":100513,"SoundDuration":100513,"Delta":190316122},{"NoteNumber":56,"Velocity":39,"Duration":100513,"SoundDuration":100513,"Delta":190316122},{"NoteNumber":59,"Velocity":52,"Duration":100095,"SoundDuration":100095,"Delta":190417480},{"NoteNumber":44,"Velocity":43,"Duration":100095,"SoundDuration":100095,"Delta":190417480},{"NoteNumber":68,"Velocity":53,"Duration":99399,"SoundDuration":99399,"Delta":190518414},{"NoteNumber":56,"Velocity":44,"Duration":99399,"SoundDuration":99399,"Delta":190518414},{"NoteNumber":63,"Velocity":54,"Duration":99120,"SoundDuration":99120,"Delta":190618647},{"NoteNumber":51,"Velocity":45,"Duration":99120,"SoundDuration":99120,"Delta":190618647},{"NoteNumber":68,"Velocity":52,"Duration":99120,"SoundDuration":99120,"Delta":190718600},{"NoteNumber":56,"Velocity":42,"Duration":99120,"SoundDuration":99120,"Delta":190718600},{"NoteNumber":59,"Velocity":57,"Duration":98673,"SoundDuration":98673,"Delta":190818553},{"NoteNumber":44,"Velocity":47,"Duration":98673,"SoundDuration":98673,"Delta":190818553},{"NoteNumber":68,"Velocity":57,"Duration":96925,"SoundDuration":96925,"Delta":190918048},{"NoteNumber":56,"Velocity":48,"Duration":96925,"SoundDuration":96925,"Delta":190918048},{"NoteNumber":63,"Velocity":58,"Duration":95968,"SoundDuration":95968,"Delta":191015784},{"NoteNumber":51,"Velocity":48,"Duration":95968,"SoundDuration":95968,"Delta":191015784},{"NoteNumber":68,"Velocity":54,"Duration":95794,"SoundDuration":95794,"Delta":191112557},{"NoteNumber":56,"Velocity":44,"Duration":95794,"SoundDuration":95794,"Delta":191112557},{"NoteNumber":59,"Velocity":61,"Duration":95794,"SoundDuration":95794,"Delta":191209157},{"NoteNumber":44,"Velocity":51,"Duration":95794,"SoundDuration":95794,"Delta":191209157},{"NoteNumber":68,"Velocity":62,"Duration":95794,"SoundDuration":95794,"Delta":191305757},{"NoteNumber":56,"Velocity":51,"Duration":95794,"SoundDuration":95794,"Delta":191305757},{"NoteNumber":63,"Velocity":62,"Duration":95072,"SoundDuration":95072,"Delta":191402357},{"NoteNumber":51,"Velocity":52,"Duration":95072,"SoundDuration":95072,"Delta":191402357},{"NoteNumber":68,"Velocity":57,"Duration":94522,"SoundDuration":94522,"Delta":191498224},{"NoteNumber":56,"Velocity":47,"Duration":94522,"SoundDuration":94522,"Delta":191498224},{"NoteNumber":60,"Velocity":66,"Duration":94522,"SoundDuration":94522,"Delta":191593541},{"NoteNumber":44,"Velocity":53,"Duration":94522,"SoundDuration":94522,"Delta":191593541},{"NoteNumber":66,"Velocity":67,"Duration":94522,"SoundDuration":94522,"Delta":191688857},{"NoteNumber":54,"Velocity":56,"Duration":94522,"SoundDuration":94522,"Delta":191688857},{"NoteNumber":63,"Velocity":68,"Duration":94522,"SoundDuration":94522,"Delta":191784174},{"NoteNumber":51,"Velocity":56,"Duration":94522,"SoundDuration":94522,"Delta":191784174},{"NoteNumber":66,"Velocity":63,"Duration":94522,"SoundDuration":94522,"Delta":191879491},{"NoteNumber":54,"Velocity":52,"Duration":94522,"SoundDuration":94522,"Delta":191879491},{"NoteNumber":60,"Velocity":69,"Duration":94522,"SoundDuration":94522,"Delta":191974808},{"NoteNumber":44,"Velocity":57,"Duration":94522,"SoundDuration":94522,"Delta":191974808},{"NoteNumber":66,"Velocity":70,"Duration":94277,"SoundDuration":94277,"Delta":192070124},{"NoteNumber":54,"Velocity":58,"Duration":94277,"SoundDuration":94277,"Delta":192070124},{"NoteNumber":63,"Velocity":71,"Duration":93050,"SoundDuration":93050,"Delta":192165191},{"NoteNumber":51,"Velocity":60,"Duration":93050,"SoundDuration":93050,"Delta":192165191},{"NoteNumber":66,"Velocity":68,"Duration":92684,"SoundDuration":92684,"Delta":192259020},{"NoteNumber":54,"Velocity":57,"Duration":92684,"SoundDuration":92684,"Delta":192259020},{"NoteNumber":60,"Velocity":73,"Duration":92684,"SoundDuration":92684,"Delta":192352484},{"NoteNumber":44,"Velocity":62,"Duration":92684,"SoundDuration":92684,"Delta":192352484},{"NoteNumber":66,"Velocity":74,"Duration":92684,"SoundDuration":92684,"Delta":192445948},{"NoteNumber":54,"Velocity":62,"Duration":92684,"SoundDuration":92684,"Delta":192445948},{"NoteNumber":63,"Velocity":75,"Duration":92609,"SoundDuration":92609,"Delta":192539412},{"NoteNumber":51,"Velocity":63,"Duration":92609,"SoundDuration":92609,"Delta":192539412},{"NoteNumber":66,"Velocity":70,"Duration":92088,"SoundDuration":92088,"Delta":192632795},{"NoteNumber":54,"Velocity":59,"Duration":92088,"SoundDuration":92088,"Delta":192632795},{"NoteNumber":60,"Velocity":78,"Duration":92088,"SoundDuration":92088,"Delta":192725657},{"NoteNumber":44,"Velocity":65,"Duration":92088,"SoundDuration":92088,"Delta":192725657},{"NoteNumber":66,"Velocity":79,"Duration":92088,"SoundDuration":92088,"Delta":192818519},{"NoteNumber":54,"Velocity":67,"Duration":92088,"SoundDuration":92088,"Delta":192818519},{"NoteNumber":63,"Velocity":79,"Duration":91933,"SoundDuration":91933,"Delta":192911381},{"NoteNumber":51,"Velocity":67,"Duration":91933,"SoundDuration":91933,"Delta":192911381},{"NoteNumber":66,"Velocity":73,"Duration":90531,"SoundDuration":90531,"Delta":193004083},{"NoteNumber":54,"Velocity":60,"Duration":90531,"SoundDuration":90531,"Delta":193004083},{"NoteNumber":61,"Velocity":80,"Duration":89960,"SoundDuration":89960,"Delta":193095374},{"NoteNumber":65,"Velocity":80,"Duration":89960,"SoundDuration":89960,"Delta":193095374},{"NoteNumber":37,"Velocity":48,"Duration":89960,"SoundDuration":89960,"Delta":193095374},{"NoteNumber":53,"Velocity":57,"Duration":89960,"SoundDuration":89960,"Delta":193095374},{"NoteNumber":56,"Velocity":57,"Duration":89960,"SoundDuration":89960,"Delta":193095374},{"NoteNumber":49,"Velocity":51,"Duration":104953,"SoundDuration":104953,"Delta":193185334},{"NoteNumber":53,"Velocity":51,"Duration":104953,"SoundDuration":104953,"Delta":193275295},{"NoteNumber":44,"Velocity":34,"Duration":89960,"SoundDuration":89960,"Delta":193275295},{"NoteNumber":56,"Velocity":52,"Duration":104953,"SoundDuration":104953,"Delta":193365255},{"NoteNumber":61,"Velocity":54,"Duration":104953,"SoundDuration":104953,"Delta":193455216},{"NoteNumber":37,"Velocity":36,"Duration":89960,"SoundDuration":89960,"Delta":193455216},{"NoteNumber":53,"Velocity":49,"Duration":104953,"SoundDuration":104953,"Delta":193545176},{"NoteNumber":56,"Velocity":50,"Duration":104953,"SoundDuration":104953,"Delta":193635137},{"NoteNumber":44,"Velocity":34,"Duration":89960,"SoundDuration":89960,"Delta":193635137},{"NoteNumber":61,"Velocity":51,"Duration":104953,"SoundDuration":104953,"Delta":193725097},{"NoteNumber":65,"Velocity":51,"Duration":104953,"SoundDuration":104953,"Delta":193815058},{"NoteNumber":37,"Velocity":36,"Duration":89960,"SoundDuration":89960,"Delta":193815058},{"NoteNumber":56,"Velocity":48,"Duration":104953,"SoundDuration":104953,"Delta":193905018},{"NoteNumber":61,"Velocity":50,"Duration":104953,"SoundDuration":104953,"Delta":193994979},{"NoteNumber":44,"Velocity":34,"Duration":89960,"SoundDuration":89960,"Delta":193994979},{"NoteNumber":65,"Velocity":51,"Duration":104953,"SoundDuration":104953,"Delta":194084939},{"NoteNumber":68,"Velocity":52,"Duration":104953,"SoundDuration":104953,"Delta":194174900},{"NoteNumber":37,"Velocity":35,"Duration":89960,"SoundDuration":89960,"Delta":194174900},{"NoteNumber":61,"Velocity":49,"Duration":104953,"SoundDuration":104953,"Delta":194264860},{"NoteNumber":65,"Velocity":50,"Duration":104953,"SoundDuration":104953,"Delta":194354821},{"NoteNumber":44,"Velocity":33,"Duration":89960,"SoundDuration":89960,"Delta":194354821},{"NoteNumber":68,"Velocity":51,"Duration":104953,"SoundDuration":104953,"Delta":194444781},{"NoteNumber":73,"Velocity":51,"Duration":104953,"SoundDuration":104953,"Delta":194534742},{"NoteNumber":37,"Velocity":42,"Duration":89960,"SoundDuration":89960,"Delta":194534742},{"NoteNumber":65,"Velocity":49,"Duration":104953,"SoundDuration":104953,"Delta":194624702},{"NoteNumber":68,"Velocity":51,"Duration":104953,"SoundDuration":104953,"Delta":194714663},{"NoteNumber":44,"Velocity":39,"Duration":89960,"SoundDuration":89960,"Delta":194714663},{"NoteNumber":73,"Velocity":51,"Duration":104953,"SoundDuration":104953,"Delta":194804623},{"NoteNumber":77,"Velocity":54,"Duration":104953,"SoundDuration":104953,"Delta":194894584},{"NoteNumber":37,"Velocity":43,"Duration":89960,"SoundDuration":89960,"Delta":194894584},{"NoteNumber":68,"Velocity":49,"Duration":104953,"SoundDuration":104953,"Delta":194984544},{"NoteNumber":73,"Velocity":51,"Duration":104953,"SoundDuration":104953,"Delta":195074505},{"NoteNumber":44,"Velocity":39,"Duration":89960,"SoundDuration":89960,"Delta":195074505},{"NoteNumber":77,"Velocity":51,"Duration":104953,"SoundDuration":104953,"Delta":195164465},{"NoteNumber":80,"Velocity":53,"Duration":104953,"SoundDuration":104953,"Delta":195254426},{"NoteNumber":37,"Velocity":43,"Duration":89960,"SoundDuration":89960,"Delta":195254426},{"NoteNumber":73,"Velocity":50,"Duration":104953,"SoundDuration":104953,"Delta":195344386},{"NoteNumber":77,"Velocity":51,"Duration":104953,"SoundDuration":104953,"Delta":195434347},{"NoteNumber":44,"Velocity":39,"Duration":89960,"SoundDuration":89960,"Delta":195434347},{"NoteNumber":80,"Velocity":52,"Duration":89960,"SoundDuration":89960,"Delta":195524307},{"NoteNumber":73,"Velocity":78,"Duration":94073,"SoundDuration":94073,"Delta":195614268},{"NoteNumber":77,"Velocity":78,"Duration":94073,"SoundDuration":94073,"Delta":195614268},{"NoteNumber":80,"Velocity":93,"Duration":94073,"SoundDuration":94073,"Delta":195614268},{"NoteNumber":85,"Velocity":93,"Duration":94073,"SoundDuration":94073,"Delta":195614268},{"NoteNumber":49,"Velocity":77,"Duration":94073,"SoundDuration":94073,"Delta":195614268},{"NoteNumber":37,"Velocity":64,"Duration":94073,"SoundDuration":94073,"Delta":195614268},{"NoteNumber":80,"Velocity":78,"Duration":94073,"SoundDuration":94073,"Delta":195802415},{"NoteNumber":73,"Velocity":65,"Duration":94073,"SoundDuration":94073,"Delta":195802415},{"NoteNumber":85,"Velocity":78,"Duration":94073,"SoundDuration":94073,"Delta":195802415},{"NoteNumber":77,"Velocity":65,"Duration":94073,"SoundDuration":94073,"Delta":195802415},{"NoteNumber":44,"Velocity":64,"Duration":94073,"SoundDuration":94073,"Delta":195802415},{"NoteNumber":35,"Velocity":68,"Duration":89960,"SoundDuration":89960,"Delta":195990562},{"NoteNumber":49,"Velocity":51,"Duration":104953,"SoundDuration":104953,"Delta":196080522},{"NoteNumber":53,"Velocity":52,"Duration":104953,"SoundDuration":104953,"Delta":196170483},{"NoteNumber":44,"Velocity":43,"Duration":89960,"SoundDuration":89960,"Delta":196170483},{"NoteNumber":56,"Velocity":54,"Duration":104953,"SoundDuration":104953,"Delta":196260443},{"NoteNumber":61,"Velocity":56,"Duration":104953,"SoundDuration":104953,"Delta":196350404},{"NoteNumber":35,"Velocity":47,"Duration":89960,"SoundDuration":89960,"Delta":196350404},{"NoteNumber":53,"Velocity":51,"Duration":104953,"SoundDuration":104953,"Delta":196440364},{"NoteNumber":56,"Velocity":53,"Duration":104953,"SoundDuration":104953,"Delta":196530325},{"NoteNumber":44,"Velocity":44,"Duration":89960,"SoundDuration":89960,"Delta":196530325},{"NoteNumber":61,"Velocity":54,"Duration":104953,"SoundDuration":104953,"Delta":196620285},{"NoteNumber":65,"Velocity":56,"Duration":104953,"SoundDuration":104953,"Delta":196710246},{"NoteNumber":35,"Velocity":48,"Duration":89960,"SoundDuration":89960,"Delta":196710246},{"NoteNumber":56,"Velocity":51,"Duration":104953,"SoundDuration":104953,"Delta":196800206},{"NoteNumber":61,"Velocity":53,"Duration":104953,"SoundDuration":104953,"Delta":196890167},{"NoteNumber":44,"Velocity":43,"Duration":89960,"SoundDuration":89960,"Delta":196890167},{"NoteNumber":65,"Velocity":56,"Duration":104953,"SoundDuration":104953,"Delta":196980127},{"NoteNumber":68,"Velocity":57,"Duration":104953,"SoundDuration":104953,"Delta":197070088},{"NoteNumber":35,"Velocity":48,"Duration":89960,"SoundDuration":89960,"Delta":197070088},{"NoteNumber":61,"Velocity":51,"Duration":104953,"SoundDuration":104953,"Delta":197160048},{"NoteNumber":65,"Velocity":53,"Duration":104953,"SoundDuration":104953,"Delta":197250009},{"NoteNumber":44,"Velocity":44,"Duration":89960,"SoundDuration":89960,"Delta":197250009},{"NoteNumber":68,"Velocity":56,"Duration":104953,"SoundDuration":104953,"Delta":197339969},{"NoteNumber":73,"Velocity":57,"Duration":104953,"SoundDuration":104953,"Delta":197429930},{"NoteNumber":35,"Velocity":48,"Duration":89960,"SoundDuration":89960,"Delta":197429930},{"NoteNumber":65,"Velocity":53,"Duration":104953,"SoundDuration":104953,"Delta":197519890},{"NoteNumber":68,"Velocity":56,"Duration":104953,"SoundDuration":104953,"Delta":197609851},{"NoteNumber":44,"Velocity":44,"Duration":89960,"SoundDuration":89960,"Delta":197609851},{"NoteNumber":73,"Velocity":57,"Duration":104953,"SoundDuration":104953,"Delta":197699811},{"NoteNumber":77,"Velocity":57,"Duration":104953,"SoundDuration":104953,"Delta":197789772},{"NoteNumber":35,"Velocity":48,"Duration":89960,"SoundDuration":89960,"Delta":197789772},{"NoteNumber":68,"Velocity":52,"Duration":104953,"SoundDuration":104953,"Delta":197879732},{"NoteNumber":73,"Velocity":54,"Duration":104953,"SoundDuration":104953,"Delta":197969693},{"NoteNumber":44,"Velocity":44,"Duration":89960,"SoundDuration":89960,"Delta":197969693},{"NoteNumber":77,"Velocity":56,"Duration":104953,"SoundDuration":104953,"Delta":198059653},{"NoteNumber":80,"Velocity":58,"Duration":104953,"SoundDuration":104953,"Delta":198149614},{"NoteNumber":35,"Velocity":48,"Duration":89960,"SoundDuration":89960,"Delta":198149614},{"NoteNumber":73,"Velocity":52,"Duration":104953,"SoundDuration":104953,"Delta":198239574},{"NoteNumber":77,"Velocity":56,"Duration":104953,"SoundDuration":104953,"Delta":198329535},{"NoteNumber":44,"Velocity":44,"Duration":89960,"SoundDuration":89960,"Delta":198329535},{"NoteNumber":80,"Velocity":59,"Duration":89960,"SoundDuration":89960,"Delta":198419495},{"NoteNumber":73,"Velocity":78,"Duration":94073,"SoundDuration":94073,"Delta":198509456},{"NoteNumber":77,"Velocity":78,"Duration":94073,"SoundDuration":94073,"Delta":198509456},{"NoteNumber":85,"Velocity":93,"Duration":94073,"SoundDuration":94073,"Delta":198509456},{"NoteNumber":80,"Velocity":93,"Duration":94073,"SoundDuration":94073,"Delta":198509456},{"NoteNumber":35,"Velocity":64,"Duration":94073,"SoundDuration":94073,"Delta":198509456},{"NoteNumber":47,"Velocity":77,"Duration":94073,"SoundDuration":94073,"Delta":198509456},{"NoteNumber":77,"Velocity":67,"Duration":94073,"SoundDuration":94073,"Delta":198697603},{"NoteNumber":80,"Velocity":81,"Duration":94073,"SoundDuration":94073,"Delta":198697603},{"NoteNumber":73,"Velocity":67,"Duration":94073,"SoundDuration":94073,"Delta":198697603},{"NoteNumber":85,"Velocity":81,"Duration":94073,"SoundDuration":94073,"Delta":198697603},{"NoteNumber":44,"Velocity":64,"Duration":94073,"SoundDuration":94073,"Delta":198697603},{"NoteNumber":33,"Velocity":68,"Duration":89960,"SoundDuration":89960,"Delta":198885750},{"NoteNumber":49,"Velocity":62,"Duration":104953,"SoundDuration":104953,"Delta":198975710},{"NoteNumber":54,"Velocity":62,"Duration":104953,"SoundDuration":104953,"Delta":199065671},{"NoteNumber":45,"Velocity":51,"Duration":89960,"SoundDuration":89960,"Delta":199065671},{"NoteNumber":57,"Velocity":65,"Duration":104953,"SoundDuration":104953,"Delta":199155631},{"NoteNumber":61,"Velocity":67,"Duration":44980,"SoundDuration":44980,"Delta":199245592},{"NoteNumber":33,"Velocity":55,"Duration":89960,"SoundDuration":89960,"Delta":199245592},{"NoteNumber":61,"Velocity":62,"Duration":104953,"SoundDuration":104953,"Delta":199335552},{"NoteNumber":66,"Velocity":65,"Duration":104953,"SoundDuration":104953,"Delta":199425513},{"NoteNumber":45,"Velocity":51,"Duration":89960,"SoundDuration":89960,"Delta":199425513},{"NoteNumber":69,"Velocity":67,"Duration":104953,"SoundDuration":104953,"Delta":199515473},{"NoteNumber":73,"Velocity":68,"Duration":44980,"SoundDuration":44980,"Delta":199605434},{"NoteNumber":33,"Velocity":55,"Duration":89960,"SoundDuration":89960,"Delta":199605434},{"NoteNumber":73,"Velocity":62,"Duration":104953,"SoundDuration":104953,"Delta":199695394},{"NoteNumber":78,"Velocity":65,"Duration":104953,"SoundDuration":104953,"Delta":199785355},{"NoteNumber":45,"Velocity":51,"Duration":89960,"SoundDuration":89960,"Delta":199785355},{"NoteNumber":81,"Velocity":68,"Duration":89960,"SoundDuration":89960,"Delta":199875315},{"NoteNumber":78,"Velocity":85,"Duration":94381,"SoundDuration":94381,"Delta":199965276},{"NoteNumber":73,"Velocity":85,"Duration":94381,"SoundDuration":94381,"Delta":199965276},{"NoteNumber":81,"Velocity":101,"Duration":94381,"SoundDuration":94381,"Delta":199965276},{"NoteNumber":85,"Velocity":101,"Duration":94381,"SoundDuration":94381,"Delta":199965276},{"NoteNumber":33,"Velocity":83,"Duration":94381,"SoundDuration":94381,"Delta":199965276},{"NoteNumber":78,"Velocity":72,"Duration":94381,"SoundDuration":94381,"Delta":200154038},{"NoteNumber":85,"Velocity":86,"Duration":94381,"SoundDuration":94381,"Delta":200154038},{"NoteNumber":81,"Velocity":86,"Duration":94381,"SoundDuration":94381,"Delta":200154038},{"NoteNumber":73,"Velocity":72,"Duration":94381,"SoundDuration":94381,"Delta":200154038},{"NoteNumber":45,"Velocity":71,"Duration":94381,"SoundDuration":94381,"Delta":200154038},{"NoteNumber":29,"Velocity":56,"Duration":89960,"SoundDuration":89960,"Delta":200342801},{"NoteNumber":49,"Velocity":62,"Duration":104953,"SoundDuration":104953,"Delta":200432761},{"NoteNumber":56,"Velocity":62,"Duration":104953,"SoundDuration":104953,"Delta":200522722},{"NoteNumber":41,"Velocity":52,"Duration":89960,"SoundDuration":89960,"Delta":200522722},{"NoteNumber":59,"Velocity":66,"Duration":104953,"SoundDuration":104953,"Delta":200612682},{"NoteNumber":61,"Velocity":68,"Duration":44980,"SoundDuration":44980,"Delta":200702643},{"NoteNumber":29,"Velocity":53,"Duration":89960,"SoundDuration":89960,"Delta":200702643},{"NoteNumber":61,"Velocity":62,"Duration":104953,"SoundDuration":104953,"Delta":200792603},{"NoteNumber":68,"Velocity":63,"Duration":104953,"SoundDuration":104953,"Delta":200882564},{"NoteNumber":41,"Velocity":51,"Duration":89960,"SoundDuration":89960,"Delta":200882564},{"NoteNumber":71,"Velocity":67,"Duration":104953,"SoundDuration":104953,"Delta":200972524},{"NoteNumber":73,"Velocity":68,"Duration":44980,"SoundDuration":44980,"Delta":201062485},{"NoteNumber":29,"Velocity":53,"Duration":89960,"SoundDuration":89960,"Delta":201062485},{"NoteNumber":73,"Velocity":62,"Duration":104953,"SoundDuration":104953,"Delta":201152445},{"NoteNumber":80,"Velocity":63,"Duration":104953,"SoundDuration":104953,"Delta":201242406},{"NoteNumber":41,"Velocity":50,"Duration":89960,"SoundDuration":89960,"Delta":201242406},{"NoteNumber":83,"Velocity":67,"Duration":89960,"SoundDuration":89960,"Delta":201332366},{"NoteNumber":73,"Velocity":88,"Duration":105835,"SoundDuration":105835,"Delta":201422327},{"NoteNumber":80,"Velocity":88,"Duration":105835,"SoundDuration":105835,"Delta":201422327},{"NoteNumber":85,"Velocity":104,"Duration":105835,"SoundDuration":105835,"Delta":201422327},{"NoteNumber":83,"Velocity":104,"Duration":105835,"SoundDuration":105835,"Delta":201422327},{"NoteNumber":29,"Velocity":83,"Duration":105835,"SoundDuration":105835,"Delta":201422327},{"NoteNumber":85,"Velocity":90,"Duration":105835,"SoundDuration":105835,"Delta":201633997},{"NoteNumber":83,"Velocity":90,"Duration":105835,"SoundDuration":105835,"Delta":201633997},{"NoteNumber":80,"Velocity":77,"Duration":105835,"SoundDuration":105835,"Delta":201633997},{"NoteNumber":73,"Velocity":77,"Duration":105835,"SoundDuration":105835,"Delta":201633997},{"NoteNumber":41,"Velocity":77,"Duration":105835,"SoundDuration":105835,"Delta":201633997},{"NoteNumber":73,"Velocity":81,"Duration":238891,"SoundDuration":238891,"Delta":201845667},{"NoteNumber":85,"Velocity":96,"Duration":238891,"SoundDuration":238891,"Delta":201845667},{"NoteNumber":81,"Velocity":96,"Duration":238891,"SoundDuration":238891,"Delta":201845667},{"NoteNumber":78,"Velocity":81,"Duration":238891,"SoundDuration":238891,"Delta":201845667},{"NoteNumber":30,"Velocity":78,"Duration":119445,"SoundDuration":119445,"Delta":201845667},{"NoteNumber":42,"Velocity":78,"Duration":119445,"SoundDuration":119445,"Delta":201845667},{"NoteNumber":61,"Velocity":29,"Duration":139353,"SoundDuration":139353,"Delta":201965112},{"NoteNumber":57,"Velocity":34,"Duration":139353,"SoundDuration":139353,"Delta":202084558},{"NoteNumber":61,"Velocity":29,"Duration":134439,"SoundDuration":134439,"Delta":202204004},{"NoteNumber":73,"Velocity":68,"Duration":734677,"SoundDuration":734677,"Delta":202323450},{"NoteNumber":54,"Velocity":41,"Duration":89210,"SoundDuration":89210,"Delta":202323450},{"NoteNumber":61,"Velocity":28,"Duration":89210,"SoundDuration":89210,"Delta":202413410},{"NoteNumber":57,"Velocity":31,"Duration":89210,"SoundDuration":89210,"Delta":202503371},{"NoteNumber":61,"Velocity":28,"Duration":89210,"SoundDuration":89210,"Delta":202593331},{"NoteNumber":54,"Velocity":38,"Duration":89210,"SoundDuration":89210,"Delta":202683292},{"NoteNumber":61,"Velocity":28,"Duration":89210,"SoundDuration":89210,"Delta":202773252},{"NoteNumber":57,"Velocity":32,"Duration":89210,"SoundDuration":89210,"Delta":202863213},{"NoteNumber":61,"Velocity":29,"Duration":89210,"SoundDuration":89210,"Delta":202953173},{"NoteNumber":69,"Velocity":51,"Duration":303913,"SoundDuration":303913,"Delta":203043134},{"NoteNumber":54,"Velocity":38,"Duration":89210,"SoundDuration":89210,"Delta":203043134},{"NoteNumber":61,"Velocity":29,"Duration":89210,"SoundDuration":89210,"Delta":203133094},{"NoteNumber":57,"Velocity":32,"Duration":89210,"SoundDuration":89210,"Delta":203223055},{"NoteNumber":66,"Velocity":51,"Duration":102096,"SoundDuration":102096,"Delta":203313015},{"NoteNumber":61,"Velocity":28,"Duration":202491,"SoundDuration":202491,"Delta":203313015},{"NoteNumber":65,"Velocity":41,"Duration":34032,"SoundDuration":34032,"Delta":203415111},{"NoteNumber":66,"Velocity":41,"Duration":34032,"SoundDuration":34032,"Delta":203449144},{"NoteNumber":68,"Velocity":41,"Duration":34032,"SoundDuration":34032,"Delta":203483176},{"NoteNumber":66,"Velocity":62,"Duration":393757,"SoundDuration":393757,"Delta":203517208},{"NoteNumber":56,"Velocity":37,"Duration":110472,"SoundDuration":110472,"Delta":203517208},{"NoteNumber":61,"Velocity":28,"Duration":110472,"SoundDuration":110472,"Delta":203611899},{"NoteNumber":59,"Velocity":31,"Duration":110472,"SoundDuration":110472,"Delta":203706590},{"NoteNumber":61,"Velocity":26,"Duration":109684,"SoundDuration":109684,"Delta":203801281},{"NoteNumber":65,"Velocity":51,"Duration":539762,"SoundDuration":539762,"Delta":203895972},{"NoteNumber":56,"Velocity":43,"Duration":89210,"SoundDuration":89210,"Delta":203895972},{"NoteNumber":61,"Velocity":39,"Duration":89210,"SoundDuration":89210,"Delta":203985932},{"NoteNumber":59,"Velocity":47,"Duration":89210,"SoundDuration":89210,"Delta":204075893},{"NoteNumber":61,"Velocity":43,"Duration":89210,"SoundDuration":89210,"Delta":204165853},{"NoteNumber":56,"Velocity":55,"Duration":89210,"SoundDuration":89210,"Delta":204255814},{"NoteNumber":61,"Velocity":44,"Duration":89210,"SoundDuration":89210,"Delta":204345774},{"NoteNumber":65,"Velocity":51,"Duration":215817,"SoundDuration":215817,"Delta":204435735},{"NoteNumber":59,"Velocity":51,"Duration":98778,"SoundDuration":98778,"Delta":204435735},{"NoteNumber":61,"Velocity":47,"Duration":98778,"SoundDuration":98778,"Delta":204535343},{"NoteNumber":73,"Velocity":56,"Duration":298824,"SoundDuration":298824,"Delta":204634951},{"NoteNumber":56,"Velocity":62,"Duration":98778,"SoundDuration":98778,"Delta":204634951},{"NoteNumber":61,"Velocity":49,"Duration":98778,"SoundDuration":98778,"Delta":204734560},{"NoteNumber":59,"Velocity":51,"Duration":98778,"SoundDuration":98778,"Delta":204834168},{"NoteNumber":65,"Velocity":51,"Duration":99608,"SoundDuration":99608,"Delta":204933776},{"NoteNumber":61,"Velocity":43,"Duration":98778,"SoundDuration":98778,"Delta":204933776},{"NoteNumber":68,"Velocity":51,"Duration":404090,"SoundDuration":404090,"Delta":205033384},{"NoteNumber":57,"Velocity":37,"Duration":96440,"SoundDuration":96440,"Delta":205033384},{"NoteNumber":61,"Velocity":30,"Duration":96440,"SoundDuration":96440,"Delta":205130635},{"NoteNumber":57,"Velocity":34,"Duration":96440,"SoundDuration":96440,"Delta":205227886},{"NoteNumber":61,"Velocity":29,"Duration":96440,"SoundDuration":96440,"Delta":205325137},{"NoteNumber":66,"Velocity":51,"Duration":543116,"SoundDuration":543116,"Delta":205422388},{"NoteNumber":57,"Velocity":43,"Duration":89765,"SoundDuration":89765,"Delta":205422388},{"NoteNumber":61,"Velocity":37,"Duration":89765,"SoundDuration":89765,"Delta":205512908},{"NoteNumber":57,"Velocity":47,"Duration":89765,"SoundDuration":89765,"Delta":205603427},{"NoteNumber":61,"Velocity":43,"Duration":89765,"SoundDuration":89765,"Delta":205693947},{"NoteNumber":57,"Velocity":55,"Duration":89765,"SoundDuration":89765,"Delta":205784466},{"NoteNumber":61,"Velocity":44,"Duration":89765,"SoundDuration":89765,"Delta":205874986},{"NoteNumber":66,"Velocity":52,"Duration":215817,"SoundDuration":215817,"Delta":205965505},{"NoteNumber":57,"Velocity":52,"Duration":98778,"SoundDuration":98778,"Delta":205965505},{"NoteNumber":61,"Velocity":47,"Duration":98778,"SoundDuration":98778,"Delta":206065114},{"NoteNumber":73,"Velocity":56,"Duration":315426,"SoundDuration":315426,"Delta":206164722},{"NoteNumber":57,"Velocity":64,"Duration":98778,"SoundDuration":98778,"Delta":206164722},{"NoteNumber":61,"Velocity":48,"Duration":98778,"SoundDuration":98778,"Delta":206264330},{"NoteNumber":57,"Velocity":49,"Duration":98778,"SoundDuration":98778,"Delta":206363938},{"NoteNumber":66,"Velocity":51,"Duration":99608,"SoundDuration":99608,"Delta":206463547},{"NoteNumber":61,"Velocity":40,"Duration":98778,"SoundDuration":98778,"Delta":206463547},{"NoteNumber":69,"Velocity":49,"Duration":402665,"SoundDuration":402665,"Delta":206563155},{"NoteNumber":53,"Velocity":39,"Duration":96110,"SoundDuration":96110,"Delta":206563155},{"NoteNumber":61,"Velocity":29,"Duration":96110,"SoundDuration":96110,"Delta":206660073},{"NoteNumber":53,"Velocity":32,"Duration":96110,"SoundDuration":96110,"Delta":206756991},{"NoteNumber":61,"Velocity":29,"Duration":96110,"SoundDuration":96110,"Delta":206853909},{"NoteNumber":68,"Velocity":52,"Duration":539762,"SoundDuration":539762,"Delta":206950827},{"NoteNumber":53,"Velocity":39,"Duration":89210,"SoundDuration":89210,"Delta":206950827},{"NoteNumber":61,"Velocity":34,"Duration":89210,"SoundDuration":89210,"Delta":207040787},{"NoteNumber":53,"Velocity":46,"Duration":89210,"SoundDuration":89210,"Delta":207130748},{"NoteNumber":61,"Velocity":42,"Duration":89210,"SoundDuration":89210,"Delta":207220708},{"NoteNumber":53,"Velocity":55,"Duration":89210,"SoundDuration":89210,"Delta":207310669},{"NoteNumber":61,"Velocity":44,"Duration":89210,"SoundDuration":89210,"Delta":207400629},{"NoteNumber":68,"Velocity":52,"Duration":203732,"SoundDuration":203732,"Delta":207490590},{"NoteNumber":53,"Velocity":54,"Duration":92980,"SoundDuration":92980,"Delta":207490590},{"NoteNumber":61,"Velocity":51,"Duration":92980,"SoundDuration":92980,"Delta":207584352},{"NoteNumber":73,"Velocity":58,"Duration":291752,"SoundDuration":291752,"Delta":207678113},{"NoteNumber":53,"Velocity":62,"Duration":96440,"SoundDuration":96440,"Delta":207678113},{"NoteNumber":61,"Velocity":46,"Duration":96440,"SoundDuration":96440,"Delta":207775364},{"NoteNumber":53,"Velocity":48,"Duration":96440,"SoundDuration":96440,"Delta":207872615},{"NoteNumber":68,"Velocity":51,"Duration":97250,"SoundDuration":97250,"Delta":207969866},{"NoteNumber":61,"Velocity":39,"Duration":96440,"SoundDuration":96440,"Delta":207969866},{"NoteNumber":69,"Velocity":39,"Duration":121241,"SoundDuration":121241,"Delta":208067117},{"NoteNumber":54,"Velocity":41,"Duration":207842,"SoundDuration":207842,"Delta":208067117},{"NoteNumber":73,"Velocity":31,"Duration":121241,"SoundDuration":121241,"Delta":208171039},{"NoteNumber":69,"Velocity":34,"Duration":121241,"SoundDuration":121241,"Delta":208274960},{"NoteNumber":73,"Velocity":30,"Duration":119703,"SoundDuration":119703,"Delta":208378881},{"NoteNumber":66,"Velocity":39,"Duration":110421,"SoundDuration":110421,"Delta":208482802},{"NoteNumber":61,"Velocity":56,"Duration":747651,"SoundDuration":747651,"Delta":208482802},{"NoteNumber":73,"Velocity":31,"Duration":110060,"SoundDuration":110060,"Delta":208577493},{"NoteNumber":69,"Velocity":34,"Duration":109596,"SoundDuration":109596,"Delta":208671875},{"NoteNumber":73,"Velocity":31,"Duration":109239,"SoundDuration":109239,"Delta":208765844},{"NoteNumber":66,"Velocity":39,"Duration":108789,"SoundDuration":108789,"Delta":208859507},{"NoteNumber":73,"Velocity":32,"Duration":108388,"SoundDuration":108388,"Delta":208952769},{"NoteNumber":69,"Velocity":34,"Duration":107935,"SoundDuration":107935,"Delta":209045731},{"NoteNumber":73,"Velocity":30,"Duration":108539,"SoundDuration":108539,"Delta":209138289},{"NoteNumber":66,"Velocity":39,"Duration":114626,"SoundDuration":114626,"Delta":209230454},{"NoteNumber":57,"Velocity":48,"Duration":294753,"SoundDuration":294753,"Delta":209230454},{"NoteNumber":73,"Velocity":32,"Duration":114626,"SoundDuration":114626,"Delta":209328705},{"NoteNumber":69,"Velocity":34,"Duration":114626,"SoundDuration":114626,"Delta":209426956},{"NoteNumber":73,"Velocity":31,"Duration":114626,"SoundDuration":114626,"Delta":209525207},{"NoteNumber":54,"Velocity":48,"Duration":94157,"SoundDuration":94157,"Delta":209525207},{"NoteNumber":68,"Velocity":39,"Duration":114626,"SoundDuration":114626,"Delta":209623459},{"NoteNumber":54,"Velocity":54,"Duration":393005,"SoundDuration":393005,"Delta":209623459},{"NoteNumber":73,"Velocity":32,"Duration":114626,"SoundDuration":114626,"Delta":209721710},{"NoteNumber":71,"Velocity":34,"Duration":114626,"SoundDuration":114626,"Delta":209819961},{"NoteNumber":73,"Velocity":32,"Duration":113337,"SoundDuration":113337,"Delta":209918212},{"NoteNumber":68,"Velocity":47,"Duration":105606,"SoundDuration":105606,"Delta":210016464},{"NoteNumber":53,"Velocity":47,"Duration":543116,"SoundDuration":543116,"Delta":210016464},{"NoteNumber":73,"Velocity":41,"Duration":105606,"SoundDuration":105606,"Delta":210106983},{"NoteNumber":71,"Velocity":47,"Duration":105606,"SoundDuration":105606,"Delta":210197503},{"NoteNumber":73,"Velocity":44,"Duration":105606,"SoundDuration":105606,"Delta":210288022},{"NoteNumber":68,"Velocity":58,"Duration":105606,"SoundDuration":105606,"Delta":210378542},{"NoteNumber":73,"Velocity":47,"Duration":105606,"SoundDuration":105606,"Delta":210469061},{"NoteNumber":71,"Velocity":54,"Duration":105606,"SoundDuration":105606,"Delta":210559581},{"NoteNumber":53,"Velocity":47,"Duration":181038,"SoundDuration":181038,"Delta":210559581},{"NoteNumber":73,"Velocity":50,"Duration":106894,"SoundDuration":106894,"Delta":210650100},{"NoteNumber":68,"Velocity":64,"Duration":114626,"SoundDuration":114626,"Delta":210740620},{"NoteNumber":61,"Velocity":56,"Duration":294753,"SoundDuration":294753,"Delta":210740620},{"NoteNumber":73,"Velocity":49,"Duration":114626,"SoundDuration":114626,"Delta":210838871},{"NoteNumber":71,"Velocity":51,"Duration":114626,"SoundDuration":114626,"Delta":210937122},{"NoteNumber":73,"Velocity":44,"Duration":115085,"SoundDuration":115085,"Delta":211035373},{"NoteNumber":53,"Velocity":47,"Duration":94157,"SoundDuration":94157,"Delta":211035373},{"NoteNumber":66,"Velocity":39,"Duration":117837,"SoundDuration":117837,"Delta":211133625},{"NoteNumber":56,"Velocity":43,"Duration":404012,"SoundDuration":404012,"Delta":211133625},{"NoteNumber":73,"Velocity":31,"Duration":117837,"SoundDuration":117837,"Delta":211234628},{"NoteNumber":69,"Velocity":34,"Duration":117837,"SoundDuration":117837,"Delta":211335631},{"NoteNumber":73,"Velocity":39,"Duration":116089,"SoundDuration":116089,"Delta":211436634},{"NoteNumber":66,"Velocity":48,"Duration":105606,"SoundDuration":105606,"Delta":211537638},{"NoteNumber":54,"Velocity":47,"Duration":543116,"SoundDuration":543116,"Delta":211537638},{"NoteNumber":73,"Velocity":42,"Duration":105606,"SoundDuration":105606,"Delta":211628157},{"NoteNumber":69,"Velocity":48,"Duration":105606,"SoundDuration":105606,"Delta":211718677},{"NoteNumber":73,"Velocity":45,"Duration":105606,"SoundDuration":105606,"Delta":211809196},{"NoteNumber":66,"Velocity":58,"Duration":105606,"SoundDuration":105606,"Delta":211899716},{"NoteNumber":73,"Velocity":48,"Duration":107777,"SoundDuration":107777,"Delta":211990235},{"NoteNumber":69,"Velocity":54,"Duration":120806,"SoundDuration":120806,"Delta":212080755},{"NoteNumber":54,"Velocity":48,"Duration":207096,"SoundDuration":207096,"Delta":212080755},{"NoteNumber":73,"Velocity":50,"Duration":120806,"SoundDuration":120806,"Delta":212184303},{"NoteNumber":66,"Velocity":64,"Duration":120806,"SoundDuration":120806,"Delta":212287851},{"NoteNumber":61,"Velocity":53,"Duration":310644,"SoundDuration":310644,"Delta":212287851},{"NoteNumber":73,"Velocity":51,"Duration":120806,"SoundDuration":120806,"Delta":212391399},{"NoteNumber":69,"Velocity":51,"Duration":120806,"SoundDuration":120806,"Delta":212494948},{"NoteNumber":73,"Velocity":45,"Duration":119503,"SoundDuration":119503,"Delta":212598496},{"NoteNumber":54,"Velocity":47,"Duration":99233,"SoundDuration":99233,"Delta":212598496},{"NoteNumber":66,"Velocity":39,"Duration":106474,"SoundDuration":106474,"Delta":212702044},{"NoteNumber":54,"Velocity":54,"Duration":91388,"SoundDuration":91388,"Delta":212702044},{"NoteNumber":74,"Velocity":31,"Duration":105606,"SoundDuration":105606,"Delta":212793432},{"NoteNumber":69,"Velocity":34,"Duration":105606,"SoundDuration":105606,"Delta":212883952},{"NoteNumber":54,"Velocity":49,"Duration":181038,"SoundDuration":181038,"Delta":212883952},{"NoteNumber":74,"Velocity":32,"Duration":105606,"SoundDuration":105606,"Delta":212974471},{"NoteNumber":66,"Velocity":45,"Duration":105606,"SoundDuration":105606,"Delta":213064991},{"NoteNumber":62,"Velocity":53,"Duration":271558,"SoundDuration":271558,"Delta":213064991},{"NoteNumber":74,"Velocity":31,"Duration":105606,"SoundDuration":105606,"Delta":213155510},{"NoteNumber":69,"Velocity":34,"Duration":105606,"SoundDuration":105606,"Delta":213246030},{"NoteNumber":74,"Velocity":34,"Duration":105606,"SoundDuration":105606,"Delta":213336549},{"NoteNumber":54,"Velocity":58,"Duration":90519,"SoundDuration":90519,"Delta":213336549},{"NoteNumber":69,"Velocity":48,"Duration":105606,"SoundDuration":105606,"Delta":213427069},{"NoteNumber":54,"Velocity":58,"Duration":90519,"SoundDuration":90519,"Delta":213427069},{"NoteNumber":74,"Velocity":34,"Duration":105606,"SoundDuration":105606,"Delta":213517588},{"NoteNumber":72,"Velocity":38,"Duration":105606,"SoundDuration":105606,"Delta":213608108},{"NoteNumber":54,"Velocity":61,"Duration":181038,"SoundDuration":181038,"Delta":213608108},{"NoteNumber":74,"Velocity":34,"Duration":105606,"SoundDuration":105606,"Delta":213698627},{"NoteNumber":69,"Velocity":53,"Duration":105606,"SoundDuration":105606,"Delta":213789147},{"NoteNumber":62,"Velocity":62,"Duration":271558,"SoundDuration":271558,"Delta":213789147},{"NoteNumber":74,"Velocity":34,"Duration":105606,"SoundDuration":105606,"Delta":213879666},{"NoteNumber":72,"Velocity":39,"Duration":105606,"SoundDuration":105606,"Delta":213970186},{"NoteNumber":74,"Velocity":34,"Duration":108831,"SoundDuration":108831,"Delta":214060705},{"NoteNumber":54,"Velocity":62,"Duration":90519,"SoundDuration":90519,"Delta":214060705},{"NoteNumber":67,"Velocity":53,"Duration":128186,"SoundDuration":128186,"Delta":214151225},{"NoteNumber":55,"Velocity":66,"Duration":219748,"SoundDuration":219748,"Delta":214151225},{"NoteNumber":74,"Velocity":32,"Duration":128186,"SoundDuration":128186,"Delta":214261099},{"NoteNumber":71,"Velocity":34,"Duration":128186,"SoundDuration":128186,"Delta":214370973},{"NoteNumber":74,"Velocity":32,"Duration":124960,"SoundDuration":124960,"Delta":214480847},{"NoteNumber":67,"Velocity":39,"Duration":105606,"SoundDuration":105606,"Delta":214590721},{"NoteNumber":50,"Velocity":48,"Duration":724155,"SoundDuration":724155,"Delta":214590721},{"NoteNumber":74,"Velocity":33,"Duration":105606,"SoundDuration":105606,"Delta":214681240},{"NoteNumber":71,"Velocity":35,"Duration":105606,"SoundDuration":105606,"Delta":214771760},{"NoteNumber":74,"Velocity":31,"Duration":105606,"SoundDuration":105606,"Delta":214862279},{"NoteNumber":67,"Velocity":39,"Duration":105606,"SoundDuration":105606,"Delta":214952799},{"NoteNumber":74,"Velocity":32,"Duration":105606,"SoundDuration":105606,"Delta":215043318},{"NoteNumber":71,"Velocity":34,"Duration":105606,"SoundDuration":105606,"Delta":215133838},{"NoteNumber":74,"Velocity":31,"Duration":107294,"SoundDuration":107294,"Delta":215224357},{"NoteNumber":67,"Velocity":39,"Duration":117426,"SoundDuration":117426,"Delta":215314877},{"NoteNumber":47,"Velocity":48,"Duration":301952,"SoundDuration":301952,"Delta":215314877},{"NoteNumber":74,"Velocity":32,"Duration":117426,"SoundDuration":117426,"Delta":215415528},{"NoteNumber":71,"Velocity":34,"Duration":117426,"SoundDuration":117426,"Delta":215516179},{"NoteNumber":74,"Velocity":32,"Duration":117426,"SoundDuration":117426,"Delta":215616830},{"NoteNumber":43,"Velocity":48,"Duration":100650,"SoundDuration":100650,"Delta":215616830},{"NoteNumber":69,"Velocity":39,"Duration":117426,"SoundDuration":117426,"Delta":215717481},{"NoteNumber":43,"Velocity":57,"Duration":402603,"SoundDuration":402603,"Delta":215717481},{"NoteNumber":74,"Velocity":32,"Duration":117426,"SoundDuration":117426,"Delta":215818132},{"NoteNumber":72,"Velocity":35,"Duration":117426,"SoundDuration":117426,"Delta":215918783},{"NoteNumber":74,"Velocity":32,"Duration":115737,"SoundDuration":115737,"Delta":216019434},{"NoteNumber":69,"Velocity":50,"Duration":105606,"SoundDuration":105606,"Delta":216120085},{"NoteNumber":42,"Velocity":48,"Duration":543116,"SoundDuration":543116,"Delta":216120085},{"NoteNumber":74,"Velocity":41,"Duration":105606,"SoundDuration":105606,"Delta":216210604},{"NoteNumber":72,"Velocity":47,"Duration":105606,"SoundDuration":105606,"Delta":216301124},{"NoteNumber":74,"Velocity":44,"Duration":105606,"SoundDuration":105606,"Delta":216391643},{"NoteNumber":69,"Velocity":58,"Duration":105606,"SoundDuration":105606,"Delta":216482163},{"NoteNumber":74,"Velocity":46,"Duration":105606,"SoundDuration":105606,"Delta":216572682},{"NoteNumber":72,"Velocity":54,"Duration":105606,"SoundDuration":105606,"Delta":216663202},{"NoteNumber":42,"Velocity":48,"Duration":181038,"SoundDuration":181038,"Delta":216663202},{"NoteNumber":74,"Velocity":49,"Duration":106405,"SoundDuration":106405,"Delta":216753721},{"NoteNumber":69,"Velocity":63,"Duration":111202,"SoundDuration":111202,"Delta":216844241},{"NoteNumber":50,"Velocity":60,"Duration":285950,"SoundDuration":285950,"Delta":216844241},{"NoteNumber":74,"Velocity":49,"Duration":111202,"SoundDuration":111202,"Delta":216939557},{"NoteNumber":72,"Velocity":51,"Duration":115559,"SoundDuration":115559,"Delta":217034874},{"NoteNumber":74,"Velocity":44,"Duration":137343,"SoundDuration":137343,"Delta":217130191},{"NoteNumber":42,"Velocity":47,"Duration":121457,"SoundDuration":121457,"Delta":217130191},{"NoteNumber":67,"Velocity":39,"Duration":111202,"SoundDuration":111202,"Delta":217251648},{"NoteNumber":45,"Velocity":66,"Duration":381267,"SoundDuration":381267,"Delta":217251648},{"NoteNumber":74,"Velocity":32,"Duration":111202,"SoundDuration":111202,"Delta":217346965},{"NoteNumber":71,"Velocity":34,"Duration":111202,"SoundDuration":111202,"Delta":217442282},{"NoteNumber":74,"Velocity":31,"Duration":110403,"SoundDuration":110403,"Delta":217537599},{"NoteNumber":67,"Velocity":50,"Duration":105606,"SoundDuration":105606,"Delta":217632915},{"NoteNumber":43,"Velocity":57,"Duration":543116,"SoundDuration":543116,"Delta":217632915},{"NoteNumber":74,"Velocity":42,"Duration":105606,"SoundDuration":105606,"Delta":217723435},{"NoteNumber":71,"Velocity":48,"Duration":105606,"SoundDuration":105606,"Delta":217813954},{"NoteNumber":74,"Velocity":46,"Duration":105606,"SoundDuration":105606,"Delta":217904474},{"NoteNumber":67,"Velocity":61,"Duration":105606,"SoundDuration":105606,"Delta":217994993},{"NoteNumber":74,"Velocity":49,"Duration":105606,"SoundDuration":105606,"Delta":218085513},{"NoteNumber":71,"Velocity":55,"Duration":105606,"SoundDuration":105606,"Delta":218176032},{"NoteNumber":43,"Velocity":59,"Duration":181038,"SoundDuration":181038,"Delta":218176032},{"NoteNumber":74,"Velocity":52,"Duration":108692,"SoundDuration":108692,"Delta":218266552},{"NoteNumber":67,"Velocity":69,"Duration":127208,"SoundDuration":127208,"Delta":218357071},{"NoteNumber":50,"Velocity":66,"Duration":327106,"SoundDuration":327106,"Delta":218357071},{"NoteNumber":74,"Velocity":54,"Duration":127208,"SoundDuration":127208,"Delta":218466107},{"NoteNumber":71,"Velocity":55,"Duration":127208,"SoundDuration":127208,"Delta":218575142},{"NoteNumber":74,"Velocity":45,"Duration":125135,"SoundDuration":125135,"Delta":218684178},{"NoteNumber":42,"Velocity":57,"Duration":104492,"SoundDuration":104492,"Delta":218684178},{"NoteNumber":68,"Velocity":43,"Duration":112699,"SoundDuration":112699,"Delta":218793213},{"NoteNumber":42,"Velocity":73,"Duration":386399,"SoundDuration":386399,"Delta":218793213},{"NoteNumber":74,"Velocity":34,"Duration":112699,"SoundDuration":112699,"Delta":218889813},{"NoteNumber":71,"Velocity":38,"Duration":112699,"SoundDuration":112699,"Delta":218986413},{"NoteNumber":74,"Velocity":34,"Duration":111686,"SoundDuration":111686,"Delta":219083013},{"NoteNumber":68,"Velocity":56,"Duration":105606,"SoundDuration":105606,"Delta":219179612},{"NoteNumber":41,"Velocity":62,"Duration":543116,"SoundDuration":543116,"Delta":219179612},{"NoteNumber":73,"Velocity":45,"Duration":105606,"SoundDuration":105606,"Delta":219270132},{"NoteNumber":71,"Velocity":54,"Duration":105606,"SoundDuration":105606,"Delta":219360651},{"NoteNumber":73,"Velocity":48,"Duration":105606,"SoundDuration":105606,"Delta":219451171},{"NoteNumber":68,"Velocity":67,"Duration":105606,"SoundDuration":105606,"Delta":219541690},{"NoteNumber":73,"Velocity":52,"Duration":105606,"SoundDuration":105606,"Delta":219632210},{"NoteNumber":71,"Velocity":65,"Duration":105606,"SoundDuration":105606,"Delta":219722729},{"NoteNumber":41,"Velocity":62,"Duration":181038,"SoundDuration":181038,"Delta":219722729},{"NoteNumber":73,"Velocity":55,"Duration":105606,"SoundDuration":105606,"Delta":219813249},{"NoteNumber":68,"Velocity":78,"Duration":105606,"SoundDuration":105606,"Delta":219903768},{"NoteNumber":49,"Velocity":71,"Duration":271558,"SoundDuration":271558,"Delta":219903768},{"NoteNumber":73,"Velocity":59,"Duration":105606,"SoundDuration":105606,"Delta":219994288},{"NoteNumber":71,"Velocity":61,"Duration":105606,"SoundDuration":105606,"Delta":220084807},{"NoteNumber":73,"Velocity":49,"Duration":105606,"SoundDuration":105606,"Delta":220175327},{"NoteNumber":41,"Velocity":62,"Duration":90519,"SoundDuration":90519,"Delta":220175327},{"NoteNumber":66,"Velocity":57,"Duration":105606,"SoundDuration":105606,"Delta":220265846},{"NoteNumber":42,"Velocity":75,"Duration":90519,"SoundDuration":90519,"Delta":220265846},{"NoteNumber":73,"Velocity":44,"Duration":105996,"SoundDuration":105996,"Delta":220356366},{"NoteNumber":69,"Velocity":47,"Duration":108339,"SoundDuration":108339,"Delta":220446885},{"NoteNumber":42,"Velocity":67,"Duration":185723,"SoundDuration":185723,"Delta":220446885},{"NoteNumber":73,"Velocity":43,"Duration":108339,"SoundDuration":108339,"Delta":220539747},{"NoteNumber":66,"Velocity":56,"Duration":108339,"SoundDuration":108339,"Delta":220632609},{"NoteNumber":45,"Velocity":67,"Duration":185723,"SoundDuration":185723,"Delta":220632609},{"NoteNumber":73,"Velocity":44,"Duration":108339,"SoundDuration":108339,"Delta":220725471},{"NoteNumber":69,"Velocity":47,"Duration":108339,"SoundDuration":108339,"Delta":220818333},{"NoteNumber":42,"Velocity":61,"Duration":185724,"SoundDuration":185724,"Delta":220818333},{"NoteNumber":73,"Velocity":44,"Duration":107948,"SoundDuration":107948,"Delta":220911195},{"NoteNumber":66,"Velocity":56,"Duration":105606,"SoundDuration":105606,"Delta":221004057},{"NoteNumber":38,"Velocity":75,"Duration":90519,"SoundDuration":90519,"Delta":221004057},{"NoteNumber":78,"Velocity":43,"Duration":106046,"SoundDuration":106046,"Delta":221094577},{"NoteNumber":69,"Velocity":46,"Duration":108688,"SoundDuration":108688,"Delta":221185096},{"NoteNumber":38,"Velocity":68,"Duration":186324,"SoundDuration":186324,"Delta":221185096},{"NoteNumber":78,"Velocity":42,"Duration":108688,"SoundDuration":108688,"Delta":221278258},{"NoteNumber":66,"Velocity":54,"Duration":108688,"SoundDuration":108688,"Delta":221371420},{"NoteNumber":42,"Velocity":67,"Duration":186323,"SoundDuration":186323,"Delta":221371420},{"NoteNumber":78,"Velocity":45,"Duration":108688,"SoundDuration":108688,"Delta":221464582},{"NoteNumber":69,"Velocity":47,"Duration":108688,"SoundDuration":108688,"Delta":221557744},{"NoteNumber":38,"Velocity":62,"Duration":186324,"SoundDuration":186324,"Delta":221557744},{"NoteNumber":78,"Velocity":43,"Duration":108248,"SoundDuration":108248,"Delta":221650906},{"NoteNumber":66,"Velocity":62,"Duration":105606,"SoundDuration":105606,"Delta":221744068},{"NoteNumber":36,"Velocity":76,"Duration":814675,"SoundDuration":814675,"Delta":221744068},{"NoteNumber":78,"Velocity":41,"Duration":105606,"SoundDuration":105606,"Delta":221834588},{"NoteNumber":75,"Velocity":47,"Duration":105606,"SoundDuration":105606,"Delta":221925107},{"NoteNumber":68,"Velocity":47,"Duration":105606,"SoundDuration":105606,"Delta":221925107},{"NoteNumber":78,"Velocity":42,"Duration":105606,"SoundDuration":105606,"Delta":222015627},{"NoteNumber":66,"Velocity":59,"Duration":105606,"SoundDuration":105606,"Delta":222106146},{"NoteNumber":78,"Velocity":43,"Duration":105606,"SoundDuration":105606,"Delta":222196666},{"NoteNumber":75,"Velocity":47,"Duration":105606,"SoundDuration":105606,"Delta":222287185},{"NoteNumber":68,"Velocity":47,"Duration":105606,"SoundDuration":105606,"Delta":222287185},{"NoteNumber":78,"Velocity":44,"Duration":105606,"SoundDuration":105606,"Delta":222377705},{"NoteNumber":66,"Velocity":58,"Duration":105606,"SoundDuration":105606,"Delta":222468224},{"NoteNumber":78,"Velocity":45,"Duration":105606,"SoundDuration":105606,"Delta":222558744},{"NoteNumber":68,"Velocity":47,"Duration":105606,"SoundDuration":105606,"Delta":222649263},{"NoteNumber":75,"Velocity":47,"Duration":105606,"SoundDuration":105606,"Delta":222649263},{"NoteNumber":36,"Velocity":68,"Duration":181038,"SoundDuration":181038,"Delta":222649263},{"NoteNumber":78,"Velocity":42,"Duration":105606,"SoundDuration":105606,"Delta":222739783},{"NoteNumber":66,"Velocity":58,"Duration":105606,"SoundDuration":105606,"Delta":222830302},{"NoteNumber":39,"Velocity":68,"Duration":181038,"SoundDuration":181038,"Delta":222830302},{"NoteNumber":78,"Velocity":43,"Duration":105606,"SoundDuration":105606,"Delta":222920822},{"NoteNumber":75,"Velocity":47,"Duration":105606,"SoundDuration":105606,"Delta":223011341},{"NoteNumber":68,"Velocity":47,"Duration":105606,"SoundDuration":105606,"Delta":223011341},{"NoteNumber":36,"Velocity":65,"Duration":181038,"SoundDuration":181038,"Delta":223011341},{"NoteNumber":78,"Velocity":42,"Duration":105606,"SoundDuration":105606,"Delta":223101861},{"NoteNumber":64,"Velocity":65,"Duration":105606,"SoundDuration":105606,"Delta":223192380},{"NoteNumber":37,"Velocity":73,"Duration":90519,"SoundDuration":90519,"Delta":223192380},{"NoteNumber":76,"Velocity":52,"Duration":105606,"SoundDuration":105606,"Delta":223282900},{"NoteNumber":73,"Velocity":56,"Duration":105606,"SoundDuration":105606,"Delta":223373419},{"NoteNumber":37,"Velocity":68,"Duration":181038,"SoundDuration":181038,"Delta":223373419},{"NoteNumber":76,"Velocity":52,"Duration":105896,"SoundDuration":105896,"Delta":223463939},{"NoteNumber":64,"Velocity":65,"Duration":107639,"SoundDuration":107639,"Delta":223554458},{"NoteNumber":40,"Velocity":68,"Duration":184524,"SoundDuration":184524,"Delta":223554458},{"NoteNumber":76,"Velocity":52,"Duration":107639,"SoundDuration":107639,"Delta":223646721},{"NoteNumber":73,"Velocity":56,"Duration":107639,"SoundDuration":107639,"Delta":223738983},{"NoteNumber":37,"Velocity":65,"Duration":184524,"SoundDuration":184524,"Delta":223738983},{"NoteNumber":76,"Velocity":51,"Duration":107639,"SoundDuration":107639,"Delta":223831245},{"NoteNumber":64,"Velocity":65,"Duration":107639,"SoundDuration":107639,"Delta":223923507},{"NoteNumber":33,"Velocity":76,"Duration":92262,"SoundDuration":92262,"Delta":223923507},{"NoteNumber":76,"Velocity":53,"Duration":107639,"SoundDuration":107639,"Delta":224015770},{"NoteNumber":73,"Velocity":57,"Duration":107639,"SoundDuration":107639,"Delta":224108032},{"NoteNumber":33,"Velocity":68,"Duration":184524,"SoundDuration":184524,"Delta":224108032},{"NoteNumber":76,"Velocity":51,"Duration":107639,"SoundDuration":107639,"Delta":224200294},{"NoteNumber":64,"Velocity":65,"Duration":107639,"SoundDuration":107639,"Delta":224292556},{"NoteNumber":37,"Velocity":68,"Duration":184524,"SoundDuration":184524,"Delta":224292556},{"NoteNumber":76,"Velocity":53,"Duration":107639,"SoundDuration":107639,"Delta":224384819},{"NoteNumber":73,"Velocity":57,"Duration":107639,"SoundDuration":107639,"Delta":224477081},{"NoteNumber":33,"Velocity":67,"Duration":184524,"SoundDuration":184524,"Delta":224477081},{"NoteNumber":76,"Velocity":52,"Duration":107639,"SoundDuration":107639,"Delta":224569343},{"NoteNumber":63,"Velocity":65,"Duration":107639,"SoundDuration":107639,"Delta":224661605},{"NoteNumber":30,"Velocity":75,"Duration":92262,"SoundDuration":92262,"Delta":224661605},{"NoteNumber":75,"Velocity":53,"Duration":107639,"SoundDuration":107639,"Delta":224753868},{"NoteNumber":73,"Velocity":58,"Duration":107639,"SoundDuration":107639,"Delta":224846130},{"NoteNumber":30,"Velocity":68,"Duration":184524,"SoundDuration":184524,"Delta":224846130},{"NoteNumber":75,"Velocity":52,"Duration":107889,"SoundDuration":107889,"Delta":224938392},{"NoteNumber":63,"Velocity":65,"Duration":109388,"SoundDuration":109388,"Delta":225030654},{"NoteNumber":33,"Velocity":68,"Duration":187523,"SoundDuration":187523,"Delta":225030654},{"NoteNumber":75,"Velocity":51,"Duration":109388,"SoundDuration":109388,"Delta":225124416},{"NoteNumber":73,"Velocity":57,"Duration":109388,"SoundDuration":109388,"Delta":225218178},{"NoteNumber":30,"Velocity":67,"Duration":187523,"SoundDuration":187523,"Delta":225218178},{"NoteNumber":75,"Velocity":52,"Duration":109388,"SoundDuration":109388,"Delta":225311940},{"NoteNumber":63,"Velocity":65,"Duration":109388,"SoundDuration":109388,"Delta":225405701},{"NoteNumber":31,"Velocity":77,"Duration":93761,"SoundDuration":93761,"Delta":225405701},{"NoteNumber":75,"Velocity":51,"Duration":109388,"SoundDuration":109388,"Delta":225499463},{"NoteNumber":73,"Velocity":56,"Duration":109388,"SoundDuration":109388,"Delta":225593225},{"NoteNumber":31,"Velocity":67,"Duration":187523,"SoundDuration":187523,"Delta":225593225},{"NoteNumber":75,"Velocity":51,"Duration":109339,"SoundDuration":109339,"Delta":225686987},{"NoteNumber":63,"Velocity":65,"Duration":109496,"SoundDuration":109496,"Delta":225780748},{"NoteNumber":34,"Velocity":67,"Duration":188459,"SoundDuration":188459,"Delta":225780748},{"NoteNumber":75,"Velocity":51,"Duration":110579,"SoundDuration":110579,"Delta":225874515},{"NoteNumber":73,"Velocity":56,"Duration":111679,"SoundDuration":111679,"Delta":225969208},{"NoteNumber":31,"Velocity":67,"Duration":192231,"SoundDuration":192231,"Delta":225969208},{"NoteNumber":75,"Velocity":51,"Duration":96598,"SoundDuration":96598,"Delta":226064842},{"NoteNumber":63,"Velocity":68,"Duration":196166,"SoundDuration":196166,"Delta":226161440},{"NoteNumber":72,"Velocity":78,"Duration":196166,"SoundDuration":196166,"Delta":226161440},{"NoteNumber":75,"Velocity":80,"Duration":196166,"SoundDuration":196166,"Delta":226161440},{"NoteNumber":32,"Velocity":39,"Duration":113955,"SoundDuration":113955,"Delta":226161440},{"NoteNumber":44,"Velocity":33,"Duration":115128,"SoundDuration":115128,"Delta":226259021},{"NoteNumber":32,"Velocity":39,"Duration":116323,"SoundDuration":116323,"Delta":226357606},{"NoteNumber":44,"Velocity":31,"Duration":116178,"SoundDuration":116178,"Delta":226457213},{"NoteNumber":68,"Velocity":54,"Duration":745396,"SoundDuration":745396,"Delta":226557865},{"NoteNumber":32,"Velocity":39,"Duration":92385,"SoundDuration":92385,"Delta":226557865},{"NoteNumber":44,"Velocity":32,"Duration":92385,"SoundDuration":92385,"Delta":226651027},{"NoteNumber":32,"Velocity":39,"Duration":92385,"SoundDuration":92385,"Delta":226744189},{"NoteNumber":44,"Velocity":32,"Duration":92385,"SoundDuration":92385,"Delta":226837351},{"NoteNumber":32,"Velocity":39,"Duration":92385,"SoundDuration":92385,"Delta":226930513},{"NoteNumber":44,"Velocity":34,"Duration":92385,"SoundDuration":92385,"Delta":227023675},{"NoteNumber":32,"Velocity":39,"Duration":92385,"SoundDuration":92385,"Delta":227116837},{"NoteNumber":44,"Velocity":34,"Duration":92483,"SoundDuration":92483,"Delta":227209999},{"NoteNumber":69,"Velocity":51,"Duration":192228,"SoundDuration":192228,"Delta":227303262},{"NoteNumber":32,"Velocity":39,"Duration":95151,"SoundDuration":95151,"Delta":227303262},{"NoteNumber":44,"Velocity":32,"Duration":95474,"SoundDuration":95474,"Delta":227399212},{"NoteNumber":68,"Velocity":51,"Duration":193517,"SoundDuration":193517,"Delta":227495490},{"NoteNumber":32,"Velocity":39,"Duration":95794,"SoundDuration":95794,"Delta":227495490},{"NoteNumber":44,"Velocity":34,"Duration":96110,"SoundDuration":96110,"Delta":227592089},{"NoteNumber":57,"Velocity":50,"Duration":781212,"SoundDuration":781212,"Delta":227689007},{"NoteNumber":61,"Velocity":50,"Duration":781212,"SoundDuration":781212,"Delta":227689007},{"NoteNumber":66,"Velocity":59,"Duration":390549,"SoundDuration":390549,"Delta":227689007},{"NoteNumber":32,"Velocity":39,"Duration":96440,"SoundDuration":96440,"Delta":227689007},{"NoteNumber":44,"Velocity":33,"Duration":96766,"SoundDuration":96766,"Delta":227786258},{"NoteNumber":32,"Velocity":39,"Duration":97095,"SoundDuration":97095,"Delta":227883838},{"NoteNumber":44,"Velocity":32,"Duration":96999,"SoundDuration":96999,"Delta":227981750},{"NoteNumber":68,"Velocity":49,"Duration":194499,"SoundDuration":194499,"Delta":228079556},{"NoteNumber":32,"Velocity":39,"Duration":96218,"SoundDuration":96218,"Delta":228079556},{"NoteNumber":44,"Velocity":33,"Duration":96657,"SoundDuration":96657,"Delta":228176585},{"NoteNumber":66,"Velocity":49,"Duration":196163,"SoundDuration":196163,"Delta":228274056},{"NoteNumber":32,"Velocity":39,"Duration":96984,"SoundDuration":96984,"Delta":228274056},{"NoteNumber":44,"Velocity":33,"Duration":97541,"SoundDuration":97541,"Delta":228371857},{"NoteNumber":59,"Velocity":50,"Duration":790408,"SoundDuration":790408,"Delta":228470220},{"NoteNumber":56,"Velocity":50,"Duration":790408,"SoundDuration":790408,"Delta":228470220},{"NoteNumber":64,"Velocity":59,"Duration":397403,"SoundDuration":397403,"Delta":228470220},{"NoteNumber":32,"Velocity":39,"Duration":97873,"SoundDuration":97873,"Delta":228470220},{"NoteNumber":44,"Velocity":33,"Duration":98318,"SoundDuration":98318,"Delta":228568917},{"NoteNumber":32,"Velocity":39,"Duration":98661,"SoundDuration":98661,"Delta":228668063},{"NoteNumber":44,"Velocity":34,"Duration":99233,"SoundDuration":99233,"Delta":228767554},{"NoteNumber":66,"Velocity":48,"Duration":196502,"SoundDuration":196502,"Delta":228867623},{"NoteNumber":32,"Velocity":39,"Duration":97432,"SoundDuration":97432,"Delta":228867623},{"NoteNumber":44,"Velocity":33,"Duration":97432,"SoundDuration":97432,"Delta":228965875},{"NoteNumber":64,"Velocity":48,"Duration":196502,"SoundDuration":196502,"Delta":229064126},{"NoteNumber":32,"Velocity":39,"Duration":97432,"SoundDuration":97432,"Delta":229064126},{"NoteNumber":44,"Velocity":32,"Duration":97432,"SoundDuration":97432,"Delta":229162377},{"NoteNumber":54,"Velocity":49,"Duration":784675,"SoundDuration":784675,"Delta":229260628},{"NoteNumber":63,"Velocity":58,"Duration":392560,"SoundDuration":392560,"Delta":229260628},{"NoteNumber":57,"Velocity":49,"Duration":784675,"SoundDuration":784675,"Delta":229260628},{"NoteNumber":32,"Velocity":39,"Duration":97432,"SoundDuration":97432,"Delta":229260628},{"NoteNumber":44,"Velocity":33,"Duration":97432,"SoundDuration":97432,"Delta":229358880},{"NoteNumber":32,"Velocity":39,"Duration":97432,"SoundDuration":97432,"Delta":229457131},{"NoteNumber":44,"Velocity":33,"Duration":96999,"SoundDuration":96999,"Delta":229555382},{"NoteNumber":64,"Velocity":47,"Duration":194830,"SoundDuration":194830,"Delta":229653189},{"NoteNumber":32,"Velocity":39,"Duration":96329,"SoundDuration":96329,"Delta":229653189},{"NoteNumber":44,"Velocity":33,"Duration":96874,"SoundDuration":96874,"Delta":229750329},{"NoteNumber":63,"Velocity":47,"Duration":197284,"SoundDuration":197284,"Delta":229848019},{"NoteNumber":32,"Velocity":39,"Duration":97541,"SoundDuration":97541,"Delta":229848019},{"NoteNumber":44,"Velocity":33,"Duration":98094,"SoundDuration":98094,"Delta":229946383},{"NoteNumber":52,"Velocity":49,"Duration":792010,"SoundDuration":792010,"Delta":230045304},{"NoteNumber":56,"Velocity":49,"Duration":792010,"SoundDuration":792010,"Delta":230045304},{"NoteNumber":61,"Velocity":58,"Duration":401690,"SoundDuration":401690,"Delta":230045304},{"NoteNumber":32,"Velocity":39,"Duration":98661,"SoundDuration":98661,"Delta":230045304},{"NoteNumber":44,"Velocity":33,"Duration":99233,"SoundDuration":99233,"Delta":230144796},{"NoteNumber":32,"Velocity":39,"Duration":99926,"SoundDuration":99926,"Delta":230244865},{"NoteNumber":44,"Velocity":33,"Duration":100513,"SoundDuration":100513,"Delta":230345633},{"NoteNumber":63,"Velocity":51,"Duration":195159,"SoundDuration":195159,"Delta":230446995},{"NoteNumber":32,"Velocity":39,"Duration":96766,"SoundDuration":96766,"Delta":230446995},{"NoteNumber":44,"Velocity":33,"Duration":96766,"SoundDuration":96766,"Delta":230544575},{"NoteNumber":61,"Velocity":51,"Duration":195160,"SoundDuration":195160,"Delta":230642155},{"NoteNumber":32,"Velocity":39,"Duration":96766,"SoundDuration":96766,"Delta":230642155},{"NoteNumber":44,"Velocity":34,"Duration":96766,"SoundDuration":96766,"Delta":230739735},{"NoteNumber":60,"Velocity":58,"Duration":780640,"SoundDuration":780640,"Delta":230837315},{"NoteNumber":54,"Velocity":49,"Duration":780640,"SoundDuration":780640,"Delta":230837315},{"NoteNumber":51,"Velocity":49,"Duration":780640,"SoundDuration":780640,"Delta":230837315},{"NoteNumber":32,"Velocity":39,"Duration":96766,"SoundDuration":96766,"Delta":230837315},{"NoteNumber":44,"Velocity":34,"Duration":96766,"SoundDuration":96766,"Delta":230934895},{"NoteNumber":32,"Velocity":39,"Duration":96766,"SoundDuration":96766,"Delta":231032475},{"NoteNumber":44,"Velocity":33,"Duration":96766,"SoundDuration":96766,"Delta":231130055},{"NoteNumber":32,"Velocity":39,"Duration":96766,"SoundDuration":96766,"Delta":231227635},{"NoteNumber":44,"Velocity":34,"Duration":96766,"SoundDuration":96766,"Delta":231325215},{"NoteNumber":32,"Velocity":39,"Duration":96766,"SoundDuration":96766,"Delta":231422795},{"NoteNumber":44,"Velocity":34,"Duration":96766,"SoundDuration":96766,"Delta":231520375},{"NoteNumber":49,"Velocity":48,"Duration":683059,"SoundDuration":683059,"Delta":231617955},{"NoteNumber":61,"Velocity":57,"Duration":683059,"SoundDuration":683059,"Delta":231617955},{"NoteNumber":52,"Velocity":48,"Duration":683059,"SoundDuration":683059,"Delta":231617955},{"NoteNumber":32,"Velocity":39,"Duration":113843,"SoundDuration":113843,"Delta":231617955},{"NoteNumber":44,"Velocity":34,"Duration":113843,"SoundDuration":113843,"Delta":231715535},{"NoteNumber":32,"Velocity":39,"Duration":113843,"SoundDuration":113843,"Delta":231813115},{"NoteNumber":44,"Velocity":32,"Duration":113843,"SoundDuration":113843,"Delta":231910695},{"NoteNumber":32,"Velocity":37,"Duration":113843,"SoundDuration":113843,"Delta":232008275},{"NoteNumber":44,"Velocity":33,"Duration":113843,"SoundDuration":113843,"Delta":232105855},{"NoteNumber":32,"Velocity":37,"Duration":113843,"SoundDuration":113843,"Delta":232203435},{"NoteNumber":48,"Velocity":48,"Duration":48789,"SoundDuration":48789,"Delta":232301015},{"NoteNumber":44,"Velocity":31,"Duration":113843,"SoundDuration":113843,"Delta":232301015},{"NoteNumber":56,"Velocity":48,"Duration":48790,"SoundDuration":48790,"Delta":232349805},{"NoteNumber":63,"Velocity":58,"Duration":292739,"SoundDuration":292739,"Delta":232398595},{"NoteNumber":32,"Velocity":37,"Duration":96766,"SoundDuration":96766,"Delta":232398595},{"NoteNumber":44,"Velocity":33,"Duration":96766,"SoundDuration":96766,"Delta":232496175},{"NoteNumber":32,"Velocity":37,"Duration":96766,"SoundDuration":96766,"Delta":232593755},{"NoteNumber":44,"Velocity":32,"Duration":96766,"SoundDuration":96766,"Delta":232691335},{"NoteNumber":80,"Velocity":63,"Duration":560681,"SoundDuration":560681,"Delta":232788915},{"NoteNumber":32,"Velocity":37,"Duration":92684,"SoundDuration":92684,"Delta":232788915},{"NoteNumber":44,"Velocity":32,"Duration":92684,"SoundDuration":92684,"Delta":232882378},{"NoteNumber":32,"Velocity":37,"Duration":92684,"SoundDuration":92684,"Delta":232975842},{"NoteNumber":44,"Velocity":33,"Duration":92684,"SoundDuration":92684,"Delta":233069306},{"NoteNumber":32,"Velocity":39,"Duration":92684,"SoundDuration":92684,"Delta":233162770},{"NoteNumber":44,"Velocity":34,"Duration":92586,"SoundDuration":92586,"Delta":233256233},{"NoteNumber":80,"Velocity":67,"Duration":93161,"SoundDuration":93161,"Delta":233349597},{"NoteNumber":32,"Velocity":40,"Duration":92385,"SoundDuration":92385,"Delta":233349597},{"NoteNumber":44,"Velocity":34,"Duration":92385,"SoundDuration":92385,"Delta":233442759},{"NoteNumber":81,"Velocity":68,"Duration":93162,"SoundDuration":93162,"Delta":233535921},{"NoteNumber":32,"Velocity":41,"Duration":108688,"SoundDuration":108688,"Delta":233535921},{"NoteNumber":44,"Velocity":37,"Duration":108688,"SoundDuration":108688,"Delta":233629083},{"NoteNumber":80,"Velocity":66,"Duration":93162,"SoundDuration":93162,"Delta":233722245},{"NoteNumber":32,"Velocity":41,"Duration":108639,"SoundDuration":108639,"Delta":233722245},{"NoteNumber":44,"Velocity":38,"Duration":108339,"SoundDuration":108339,"Delta":233815407},{"NoteNumber":78,"Velocity":68,"Duration":92861,"SoundDuration":92861,"Delta":233908269},{"NoteNumber":32,"Velocity":43,"Duration":108339,"SoundDuration":108339,"Delta":233908269},{"NoteNumber":44,"Velocity":38,"Duration":108339,"SoundDuration":108339,"Delta":234001131},{"NoteNumber":73,"Velocity":56,"Duration":92861,"SoundDuration":92861,"Delta":234093993},{"NoteNumber":69,"Velocity":47,"Duration":92861,"SoundDuration":92861,"Delta":234093993},{"NoteNumber":78,"Velocity":56,"Duration":92861,"SoundDuration":92861,"Delta":234093993},{"NoteNumber":32,"Velocity":44,"Duration":108339,"SoundDuration":108339,"Delta":234093993},{"NoteNumber":44,"Velocity":39,"Duration":108339,"SoundDuration":108339,"Delta":234186855},{"NoteNumber":71,"Velocity":48,"Duration":92760,"SoundDuration":92760,"Delta":234279717},{"NoteNumber":80,"Velocity":57,"Duration":92760,"SoundDuration":92760,"Delta":234279717},{"NoteNumber":75,"Velocity":57,"Duration":92760,"SoundDuration":92760,"Delta":234279717},{"NoteNumber":32,"Velocity":45,"Duration":108187,"SoundDuration":108187,"Delta":234279717},{"NoteNumber":44,"Velocity":40,"Duration":107984,"SoundDuration":107984,"Delta":234372477},{"NoteNumber":69,"Velocity":48,"Duration":92558,"SoundDuration":92558,"Delta":234465036},{"NoteNumber":73,"Velocity":57,"Duration":92558,"SoundDuration":92558,"Delta":234465036},{"NoteNumber":78,"Velocity":57,"Duration":92558,"SoundDuration":92558,"Delta":234465036},{"NoteNumber":32,"Velocity":46,"Duration":107984,"SoundDuration":107984,"Delta":234465036},{"NoteNumber":44,"Velocity":41,"Duration":107984,"SoundDuration":107984,"Delta":234557594},{"NoteNumber":71,"Velocity":59,"Duration":92558,"SoundDuration":92558,"Delta":234650152},{"NoteNumber":76,"Velocity":59,"Duration":92558,"SoundDuration":92558,"Delta":234650152},{"NoteNumber":68,"Velocity":50,"Duration":92558,"SoundDuration":92558,"Delta":234650152},{"NoteNumber":32,"Velocity":47,"Duration":107984,"SoundDuration":107984,"Delta":234650152},{"NoteNumber":44,"Velocity":41,"Duration":107935,"SoundDuration":107935,"Delta":234742710},{"NoteNumber":68,"Velocity":51,"Duration":92262,"SoundDuration":92262,"Delta":234835269},{"NoteNumber":71,"Velocity":60,"Duration":92262,"SoundDuration":92262,"Delta":234835269},{"NoteNumber":76,"Velocity":60,"Duration":92262,"SoundDuration":92262,"Delta":234835269},{"NoteNumber":32,"Velocity":48,"Duration":107639,"SoundDuration":107639,"Delta":234835269},{"NoteNumber":44,"Velocity":43,"Duration":107639,"SoundDuration":107639,"Delta":234927531},{"NoteNumber":69,"Velocity":51,"Duration":92262,"SoundDuration":92262,"Delta":235019793},{"NoteNumber":73,"Velocity":61,"Duration":92262,"SoundDuration":92262,"Delta":235019793},{"NoteNumber":78,"Velocity":61,"Duration":92262,"SoundDuration":92262,"Delta":235019793},{"NoteNumber":32,"Velocity":49,"Duration":107639,"SoundDuration":107639,"Delta":235019793},{"NoteNumber":44,"Velocity":44,"Duration":107639,"SoundDuration":107639,"Delta":235112055},{"NoteNumber":76,"Velocity":62,"Duration":92262,"SoundDuration":92262,"Delta":235204318},{"NoteNumber":68,"Velocity":52,"Duration":92262,"SoundDuration":92262,"Delta":235204318},{"NoteNumber":71,"Velocity":62,"Duration":92262,"SoundDuration":92262,"Delta":235204318},{"NoteNumber":32,"Velocity":50,"Duration":107639,"SoundDuration":107639,"Delta":235204318},{"NoteNumber":44,"Velocity":45,"Duration":107492,"SoundDuration":107492,"Delta":235296580},{"NoteNumber":69,"Velocity":62,"Duration":91968,"SoundDuration":91968,"Delta":235388744},{"NoteNumber":75,"Velocity":62,"Duration":91968,"SoundDuration":91968,"Delta":235388744},{"NoteNumber":66,"Velocity":52,"Duration":91968,"SoundDuration":91968,"Delta":235388744},{"NoteNumber":32,"Velocity":51,"Duration":107296,"SoundDuration":107296,"Delta":235388744},{"NoteNumber":44,"Velocity":46,"Duration":107295,"SoundDuration":107295,"Delta":235480712},{"NoteNumber":69,"Velocity":63,"Duration":91967,"SoundDuration":91967,"Delta":235572680},{"NoteNumber":75,"Velocity":63,"Duration":91967,"SoundDuration":91967,"Delta":235572680},{"NoteNumber":66,"Velocity":53,"Duration":91967,"SoundDuration":91967,"Delta":235572680},{"NoteNumber":32,"Velocity":51,"Duration":107295,"SoundDuration":107295,"Delta":235572680},{"NoteNumber":44,"Velocity":47,"Duration":107296,"SoundDuration":107296,"Delta":235664648},{"NoteNumber":68,"Velocity":56,"Duration":91968,"SoundDuration":91968,"Delta":235756616},{"NoteNumber":71,"Velocity":66,"Duration":91968,"SoundDuration":91968,"Delta":235756616},{"NoteNumber":76,"Velocity":66,"Duration":91968,"SoundDuration":91968,"Delta":235756616},{"NoteNumber":32,"Velocity":53,"Duration":107295,"SoundDuration":107295,"Delta":235756616},{"NoteNumber":44,"Velocity":50,"Duration":107295,"SoundDuration":107295,"Delta":235848584},{"NoteNumber":66,"Velocity":56,"Duration":91968,"SoundDuration":91968,"Delta":235940552},{"NoteNumber":69,"Velocity":67,"Duration":91968,"SoundDuration":91968,"Delta":235940552},{"NoteNumber":75,"Velocity":67,"Duration":91968,"SoundDuration":91968,"Delta":235940552},{"NoteNumber":32,"Velocity":54,"Duration":107296,"SoundDuration":107296,"Delta":235940552},{"NoteNumber":44,"Velocity":51,"Duration":107295,"SoundDuration":107295,"Delta":236032520},{"NoteNumber":73,"Velocity":68,"Duration":91968,"SoundDuration":91968,"Delta":236124488},{"NoteNumber":68,"Velocity":68,"Duration":91968,"SoundDuration":91968,"Delta":236124488},{"NoteNumber":64,"Velocity":57,"Duration":91968,"SoundDuration":91968,"Delta":236124488},{"NoteNumber":32,"Velocity":54,"Duration":107295,"SoundDuration":107295,"Delta":236124488},{"NoteNumber":44,"Velocity":51,"Duration":107295,"SoundDuration":107295,"Delta":236216456},{"NoteNumber":64,"Velocity":57,"Duration":91968,"SoundDuration":91968,"Delta":236308424},{"NoteNumber":73,"Velocity":68,"Duration":91968,"SoundDuration":91968,"Delta":236308424},{"NoteNumber":68,"Velocity":68,"Duration":91968,"SoundDuration":91968,"Delta":236308424},{"NoteNumber":32,"Velocity":49,"Duration":107296,"SoundDuration":107296,"Delta":236308424},{"NoteNumber":44,"Velocity":47,"Duration":107295,"SoundDuration":107295,"Delta":236400392},{"NoteNumber":66,"Velocity":51,"Duration":91967,"SoundDuration":91967,"Delta":236492360},{"NoteNumber":75,"Velocity":60,"Duration":91967,"SoundDuration":91967,"Delta":236492360},{"NoteNumber":69,"Velocity":60,"Duration":91967,"SoundDuration":91967,"Delta":236492360},{"NoteNumber":32,"Velocity":44,"Duration":107295,"SoundDuration":107295,"Delta":236492360},{"NoteNumber":44,"Velocity":35,"Duration":107296,"SoundDuration":107296,"Delta":236584328},{"NoteNumber":68,"Velocity":54,"Duration":91968,"SoundDuration":91968,"Delta":236676296},{"NoteNumber":64,"Velocity":45,"Duration":91968,"SoundDuration":91968,"Delta":236676296},{"NoteNumber":73,"Velocity":54,"Duration":91968,"SoundDuration":91968,"Delta":236676296},{"NoteNumber":32,"Velocity":39,"Duration":107295,"SoundDuration":107295,"Delta":236676296},{"NoteNumber":44,"Velocity":34,"Duration":107698,"SoundDuration":107698,"Delta":236768264},{"NoteNumber":72,"Velocity":48,"Duration":755050,"SoundDuration":755050,"Delta":236860232},{"NoteNumber":63,"Velocity":40,"Duration":755050,"SoundDuration":755050,"Delta":236860232},{"NoteNumber":66,"Velocity":48,"Duration":755050,"SoundDuration":755050,"Delta":236860232},{"NoteNumber":32,"Velocity":39,"Duration":93594,"SoundDuration":93594,"Delta":236860232},{"NoteNumber":44,"Velocity":33,"Duration":93594,"SoundDuration":93594,"Delta":236954613},{"NoteNumber":32,"Velocity":37,"Duration":93594,"SoundDuration":93594,"Delta":237048995},{"NoteNumber":44,"Velocity":35,"Duration":93594,"SoundDuration":93594,"Delta":237143376},{"NoteNumber":32,"Velocity":37,"Duration":93594,"SoundDuration":93594,"Delta":237237757},{"NoteNumber":44,"Velocity":32,"Duration":93594,"SoundDuration":93594,"Delta":237332138},{"NoteNumber":32,"Velocity":37,"Duration":93594,"SoundDuration":93594,"Delta":237426520},{"NoteNumber":44,"Velocity":33,"Duration":93594,"SoundDuration":93594,"Delta":237520901},{"NoteNumber":64,"Velocity":56,"Duration":660668,"SoundDuration":660668,"Delta":237615282},{"NoteNumber":73,"Velocity":56,"Duration":660668,"SoundDuration":660668,"Delta":237615282},{"NoteNumber":61,"Velocity":47,"Duration":660668,"SoundDuration":660668,"Delta":237615282},{"NoteNumber":32,"Velocity":39,"Duration":93594,"SoundDuration":93594,"Delta":237615282},{"NoteNumber":44,"Velocity":34,"Duration":93594,"SoundDuration":93594,"Delta":237709663},{"NoteNumber":32,"Velocity":39,"Duration":93594,"SoundDuration":93594,"Delta":237804045},{"NoteNumber":44,"Velocity":35,"Duration":93594,"SoundDuration":93594,"Delta":237898426},{"NoteNumber":32,"Velocity":41,"Duration":93594,"SoundDuration":93594,"Delta":237992807},{"NoteNumber":44,"Velocity":39,"Duration":93594,"SoundDuration":93594,"Delta":238087188},{"NoteNumber":32,"Velocity":45,"Duration":93594,"SoundDuration":93594,"Delta":238181570},{"NoteNumber":60,"Velocity":49,"Duration":54936,"SoundDuration":54936,"Delta":238275951},{"NoteNumber":44,"Velocity":41,"Duration":108958,"SoundDuration":108958,"Delta":238275951},{"NoteNumber":66,"Velocity":59,"Duration":1183818,"SoundDuration":1183818,"Delta":238330888},{"NoteNumber":75,"Velocity":80,"Duration":1128882,"SoundDuration":1128882,"Delta":238385825},{"NoteNumber":32,"Velocity":46,"Duration":93289,"SoundDuration":93289,"Delta":238385825},{"NoteNumber":44,"Velocity":42,"Duration":93289,"SoundDuration":93289,"Delta":238479898},{"NoteNumber":32,"Velocity":49,"Duration":93289,"SoundDuration":93289,"Delta":238573972},{"NoteNumber":44,"Velocity":44,"Duration":93289,"SoundDuration":93289,"Delta":238668045},{"NoteNumber":32,"Velocity":51,"Duration":93289,"SoundDuration":93289,"Delta":238762119},{"NoteNumber":44,"Velocity":45,"Duration":93289,"SoundDuration":93289,"Delta":238856192},{"NoteNumber":32,"Velocity":51,"Duration":93289,"SoundDuration":93289,"Delta":238950266},{"NoteNumber":44,"Velocity":44,"Duration":93289,"SoundDuration":93289,"Delta":239044339},{"NoteNumber":32,"Velocity":45,"Duration":93289,"SoundDuration":93289,"Delta":239138413},{"NoteNumber":44,"Velocity":41,"Duration":93289,"SoundDuration":93289,"Delta":239232486},{"NoteNumber":32,"Velocity":41,"Duration":93289,"SoundDuration":93289,"Delta":239326560},{"NoteNumber":44,"Velocity":37,"Duration":93289,"SoundDuration":93289,"Delta":239420633},{"NoteNumber":73,"Velocity":58,"Duration":376294,"SoundDuration":376294,"Delta":239514707},{"NoteNumber":64,"Velocity":58,"Duration":376294,"SoundDuration":376294,"Delta":239514707},{"NoteNumber":61,"Velocity":49,"Duration":376294,"SoundDuration":376294,"Delta":239514707},{"NoteNumber":32,"Velocity":41,"Duration":109752,"SoundDuration":109752,"Delta":239514707},{"NoteNumber":44,"Velocity":35,"Duration":109752,"SoundDuration":109752,"Delta":239608780},{"NoteNumber":32,"Velocity":39,"Duration":109752,"SoundDuration":109752,"Delta":239702854},{"NoteNumber":44,"Velocity":33,"Duration":109752,"SoundDuration":109752,"Delta":239796927},{"NoteNumber":63,"Velocity":39,"Duration":188146,"SoundDuration":188146,"Delta":239891001},{"NoteNumber":72,"Velocity":47,"Duration":188146,"SoundDuration":188146,"Delta":239891001},{"NoteNumber":66,"Velocity":47,"Duration":188146,"SoundDuration":188146,"Delta":239891001},{"NoteNumber":32,"Velocity":37,"Duration":109752,"SoundDuration":109752,"Delta":239891001},{"NoteNumber":44,"Velocity":34,"Duration":109752,"SoundDuration":109752,"Delta":239985074},{"NoteNumber":32,"Velocity":37,"Duration":109752,"SoundDuration":109752,"Delta":240079148},{"NoteNumber":44,"Velocity":32,"Duration":109752,"SoundDuration":109752,"Delta":240173221},{"NoteNumber":66,"Velocity":53,"Duration":187660,"SoundDuration":187660,"Delta":240267295},{"NoteNumber":72,"Velocity":53,"Duration":187660,"SoundDuration":187660,"Delta":240267295},{"NoteNumber":63,"Velocity":45,"Duration":187660,"SoundDuration":187660,"Delta":240267295},{"NoteNumber":32,"Velocity":37,"Duration":109325,"SoundDuration":109325,"Delta":240267295},{"NoteNumber":44,"Velocity":33,"Duration":109694,"SoundDuration":109694,"Delta":240361043},{"NoteNumber":32,"Velocity":37,"Duration":110827,"SoundDuration":110827,"Delta":240454956},{"NoteNumber":44,"Velocity":35,"Duration":111688,"SoundDuration":111688,"Delta":240549897},{"NoteNumber":73,"Velocity":62,"Duration":193813,"SoundDuration":193813,"Delta":240645594},{"NoteNumber":64,"Velocity":62,"Duration":193813,"SoundDuration":193813,"Delta":240645594},{"NoteNumber":61,"Velocity":52,"Duration":193813,"SoundDuration":193813,"Delta":240645594},{"NoteNumber":32,"Velocity":35,"Duration":112440,"SoundDuration":112440,"Delta":240645594},{"NoteNumber":44,"Velocity":34,"Duration":113792,"SoundDuration":113792,"Delta":240741934},{"NoteNumber":32,"Velocity":41,"Duration":114229,"SoundDuration":114229,"Delta":240839408},{"NoteNumber":44,"Velocity":37,"Duration":115743,"SoundDuration":115743,"Delta":240937319},{"NoteNumber":64,"Velocity":68,"Duration":202065,"SoundDuration":202065,"Delta":241036404},{"NoteNumber":61,"Velocity":57,"Duration":202065,"SoundDuration":202065,"Delta":241036404},{"NoteNumber":73,"Velocity":68,"Duration":202065,"SoundDuration":202065,"Delta":241036404},{"NoteNumber":32,"Velocity":43,"Duration":117310,"SoundDuration":117310,"Delta":241036404},{"NoteNumber":44,"Velocity":39,"Duration":118567,"SoundDuration":118567,"Delta":241136915},{"NoteNumber":32,"Velocity":47,"Duration":123791,"SoundDuration":123791,"Delta":241238469},{"NoteNumber":60,"Velocity":51,"Duration":65126,"SoundDuration":65126,"Delta":241340551},{"NoteNumber":44,"Velocity":42,"Duration":147267,"SoundDuration":147267,"Delta":241340551},{"NoteNumber":66,"Velocity":59,"Duration":1290116,"SoundDuration":1290116,"Delta":241405678},{"NoteNumber":75,"Velocity":80,"Duration":1224989,"SoundDuration":1224989,"Delta":241470805},{"NoteNumber":32,"Velocity":47,"Duration":101231,"SoundDuration":101231,"Delta":241470805},{"NoteNumber":44,"Velocity":43,"Duration":101231,"SoundDuration":101231,"Delta":241572887},{"NoteNumber":32,"Velocity":51,"Duration":101231,"SoundDuration":101231,"Delta":241674970},{"NoteNumber":44,"Velocity":47,"Duration":101231,"SoundDuration":101231,"Delta":241777052},{"NoteNumber":32,"Velocity":56,"Duration":101231,"SoundDuration":101231,"Delta":241879135},{"NoteNumber":44,"Velocity":48,"Duration":101231,"SoundDuration":101231,"Delta":241981217},{"NoteNumber":32,"Velocity":54,"Duration":101231,"SoundDuration":101231,"Delta":242083300},{"NoteNumber":44,"Velocity":47,"Duration":101231,"SoundDuration":101231,"Delta":242185382},{"NoteNumber":32,"Velocity":49,"Duration":101231,"SoundDuration":101231,"Delta":242287465},{"NoteNumber":44,"Velocity":45,"Duration":101231,"SoundDuration":101231,"Delta":242389547},{"NoteNumber":32,"Velocity":49,"Duration":101231,"SoundDuration":101231,"Delta":242491630},{"NoteNumber":44,"Velocity":41,"Duration":101231,"SoundDuration":101231,"Delta":242593712},{"NoteNumber":64,"Velocity":48,"Duration":204165,"SoundDuration":204165,"Delta":242695795},{"NoteNumber":61,"Velocity":40,"Duration":204165,"SoundDuration":204165,"Delta":242695795},{"NoteNumber":32,"Velocity":45,"Duration":101231,"SoundDuration":101231,"Delta":242695795},{"NoteNumber":44,"Velocity":39,"Duration":101231,"SoundDuration":101231,"Delta":242797877},{"NoteNumber":73,"Velocity":43,"Duration":204164,"SoundDuration":204164,"Delta":242899960},{"NoteNumber":32,"Velocity":41,"Duration":101231,"SoundDuration":101231,"Delta":242899960},{"NoteNumber":44,"Velocity":35,"Duration":101231,"SoundDuration":101231,"Delta":243002042},{"NoteNumber":66,"Velocity":51,"Duration":204164,"SoundDuration":204164,"Delta":243104125},{"NoteNumber":63,"Velocity":43,"Duration":204164,"SoundDuration":204164,"Delta":243104125},{"NoteNumber":32,"Velocity":40,"Duration":101231,"SoundDuration":101231,"Delta":243104125},{"NoteNumber":44,"Velocity":34,"Duration":101231,"SoundDuration":101231,"Delta":243206207},{"NoteNumber":72,"Velocity":47,"Duration":204165,"SoundDuration":204165,"Delta":243308290},{"NoteNumber":32,"Velocity":39,"Duration":101231,"SoundDuration":101231,"Delta":243308290},{"NoteNumber":44,"Velocity":34,"Duration":101231,"SoundDuration":101231,"Delta":243410372},{"NoteNumber":63,"Velocity":48,"Duration":204164,"SoundDuration":204164,"Delta":243512455},{"NoteNumber":66,"Velocity":57,"Duration":204164,"SoundDuration":204164,"Delta":243512455},{"NoteNumber":32,"Velocity":39,"Duration":101231,"SoundDuration":101231,"Delta":243512455},{"NoteNumber":44,"Velocity":34,"Duration":101231,"SoundDuration":101231,"Delta":243614537},{"NoteNumber":72,"Velocity":53,"Duration":204165,"SoundDuration":204165,"Delta":243716620},{"NoteNumber":32,"Velocity":41,"Duration":101231,"SoundDuration":101231,"Delta":243716620},{"NoteNumber":44,"Velocity":39,"Duration":101231,"SoundDuration":101231,"Delta":243818702},{"NoteNumber":61,"Velocity":57,"Duration":204164,"SoundDuration":204164,"Delta":243920785},{"NoteNumber":64,"Velocity":68,"Duration":204164,"SoundDuration":204164,"Delta":243920785},{"NoteNumber":32,"Velocity":45,"Duration":101231,"SoundDuration":101231,"Delta":243920785},{"NoteNumber":44,"Velocity":39,"Duration":101231,"SoundDuration":101231,"Delta":244022867},{"NoteNumber":73,"Velocity":57,"Duration":204164,"SoundDuration":204164,"Delta":244124950},{"NoteNumber":32,"Velocity":45,"Duration":101231,"SoundDuration":101231,"Delta":244124950},{"NoteNumber":44,"Velocity":40,"Duration":101231,"SoundDuration":101231,"Delta":244227032},{"NoteNumber":61,"Velocity":60,"Duration":204165,"SoundDuration":204165,"Delta":244329115},{"NoteNumber":64,"Velocity":71,"Duration":204165,"SoundDuration":204165,"Delta":244329115},{"NoteNumber":32,"Velocity":47,"Duration":101231,"SoundDuration":101231,"Delta":244329115},{"NoteNumber":44,"Velocity":43,"Duration":101231,"SoundDuration":101231,"Delta":244431197},{"NoteNumber":73,"Velocity":65,"Duration":204164,"SoundDuration":204164,"Delta":244533280},{"NoteNumber":32,"Velocity":51,"Duration":101231,"SoundDuration":101231,"Delta":244533280},{"NoteNumber":44,"Velocity":45,"Duration":101231,"SoundDuration":101231,"Delta":244635362},{"NoteNumber":60,"Velocity":68,"Duration":204164,"SoundDuration":204164,"Delta":244737445},{"NoteNumber":66,"Velocity":80,"Duration":204164,"SoundDuration":204164,"Delta":244737445},{"NoteNumber":32,"Velocity":56,"Duration":101231,"SoundDuration":101231,"Delta":244737445},{"NoteNumber":44,"Velocity":51,"Duration":101231,"SoundDuration":101231,"Delta":244839527},{"NoteNumber":75,"Velocity":69,"Duration":204164,"SoundDuration":204164,"Delta":244941610},{"NoteNumber":32,"Velocity":56,"Duration":101231,"SoundDuration":101231,"Delta":244941610},{"NoteNumber":44,"Velocity":49,"Duration":101231,"SoundDuration":101231,"Delta":245043692},{"NoteNumber":60,"Velocity":62,"Duration":207875,"SoundDuration":207875,"Delta":245145775},{"NoteNumber":66,"Velocity":73,"Duration":207875,"SoundDuration":207875,"Delta":245145775},{"NoteNumber":32,"Velocity":51,"Duration":101949,"SoundDuration":101949,"Delta":245145775},{"NoteNumber":44,"Velocity":43,"Duration":104181,"SoundDuration":104181,"Delta":245248594},{"NoteNumber":75,"Velocity":58,"Duration":212459,"SoundDuration":212459,"Delta":245353651},{"NoteNumber":32,"Velocity":47,"Duration":104589,"SoundDuration":104589,"Delta":245353651},{"NoteNumber":44,"Velocity":40,"Duration":106092,"SoundDuration":106092,"Delta":245459123},{"NoteNumber":64,"Velocity":63,"Duration":218751,"SoundDuration":218751,"Delta":245566110},{"NoteNumber":61,"Velocity":53,"Duration":218751,"SoundDuration":218751,"Delta":245566110},{"NoteNumber":33,"Velocity":44,"Duration":107910,"SoundDuration":107910,"Delta":245566110},{"NoteNumber":45,"Velocity":38,"Duration":109002,"SoundDuration":109002,"Delta":245674929},{"NoteNumber":73,"Velocity":51,"Duration":226505,"SoundDuration":226505,"Delta":245784862},{"NoteNumber":33,"Velocity":41,"Duration":111626,"SoundDuration":111626,"Delta":245784862},{"NoteNumber":45,"Velocity":35,"Duration":112982,"SoundDuration":112982,"Delta":245897433},{"NoteNumber":64,"Velocity":57,"Duration":229684,"SoundDuration":229684,"Delta":246011368},{"NoteNumber":61,"Velocity":48,"Duration":229684,"SoundDuration":229684,"Delta":246011368},{"NoteNumber":33,"Velocity":39,"Duration":113456,"SoundDuration":113456,"Delta":246011368},{"NoteNumber":45,"Velocity":34,"Duration":114301,"SoundDuration":114301,"Delta":246125783},{"NoteNumber":73,"Velocity":53,"Duration":236620,"SoundDuration":236620,"Delta":246241052},{"NoteNumber":33,"Velocity":39,"Duration":116676,"SoundDuration":116676,"Delta":246241052},{"NoteNumber":45,"Velocity":34,"Duration":117961,"SoundDuration":117961,"Delta":246358720},{"NoteNumber":63,"Velocity":47,"Duration":1903252,"SoundDuration":1903252,"Delta":246477673},{"NoteNumber":57,"Velocity":39,"Duration":1903252,"SoundDuration":1903252,"Delta":246477673},{"NoteNumber":61,"Velocity":39,"Duration":1903252,"SoundDuration":1903252,"Delta":246477673},{"NoteNumber":69,"Velocity":47,"Duration":1903252,"SoundDuration":1903252,"Delta":246477673},{"NoteNumber":30,"Velocity":33,"Duration":1903252,"SoundDuration":1903252,"Delta":246477673},{"NoteNumber":42,"Velocity":39,"Duration":1903252,"SoundDuration":1903252,"Delta":246477673},{"NoteNumber":63,"Velocity":31,"Duration":1903252,"SoundDuration":1903252,"Delta":248380925},{"NoteNumber":68,"Velocity":31,"Duration":1903252,"SoundDuration":1903252,"Delta":248380925},{"NoteNumber":56,"Velocity":26,"Duration":1903252,"SoundDuration":1903252,"Delta":248380925},{"NoteNumber":60,"Velocity":26,"Duration":1903252,"SoundDuration":1903252,"Delta":248380925},{"NoteNumber":32,"Velocity":27,"Duration":1903252,"SoundDuration":1903252,"Delta":248380925},{"NoteNumber":44,"Velocity":32,"Duration":1903252,"SoundDuration":1903252,"Delta":248380925},{"NoteNumber":37,"Velocity":62,"Duration":89960,"SoundDuration":89960,"Delta":250284177},{"NoteNumber":44,"Velocity":47,"Duration":86212,"SoundDuration":86212,"Delta":250374138},{"NoteNumber":49,"Velocity":48,"Duration":104953,"SoundDuration":104953,"Delta":250464098},{"NoteNumber":44,"Velocity":40,"Duration":89960,"SoundDuration":89960,"Delta":250464098},{"NoteNumber":52,"Velocity":50,"Duration":104953,"SoundDuration":104953,"Delta":250554059},{"NoteNumber":56,"Velocity":51,"Duration":104953,"SoundDuration":104953,"Delta":250644019},{"NoteNumber":37,"Velocity":43,"Duration":89960,"SoundDuration":89960,"Delta":250644019},{"NoteNumber":49,"Velocity":51,"Duration":104953,"SoundDuration":104953,"Delta":250733980},{"NoteNumber":52,"Velocity":49,"Duration":104953,"SoundDuration":104953,"Delta":250823940},{"NoteNumber":44,"Velocity":39,"Duration":89960,"SoundDuration":89960,"Delta":250823940},{"NoteNumber":56,"Velocity":51,"Duration":104953,"SoundDuration":104953,"Delta":250913901},{"NoteNumber":61,"Velocity":51,"Duration":104953,"SoundDuration":104953,"Delta":251003861},{"NoteNumber":37,"Velocity":41,"Duration":89960,"SoundDuration":89960,"Delta":251003861},{"NoteNumber":52,"Velocity":47,"Duration":104953,"SoundDuration":104953,"Delta":251093822},{"NoteNumber":56,"Velocity":48,"Duration":104953,"SoundDuration":104953,"Delta":251183782},{"NoteNumber":44,"Velocity":39,"Duration":89960,"SoundDuration":89960,"Delta":251183782},{"NoteNumber":61,"Velocity":50,"Duration":104953,"SoundDuration":104953,"Delta":251273743},{"NoteNumber":64,"Velocity":51,"Duration":104953,"SoundDuration":104953,"Delta":251363703},{"NoteNumber":37,"Velocity":42,"Duration":89960,"SoundDuration":89960,"Delta":251363703},{"NoteNumber":56,"Velocity":48,"Duration":104953,"SoundDuration":104953,"Delta":251453664},{"NoteNumber":61,"Velocity":49,"Duration":104953,"SoundDuration":104953,"Delta":251543624},{"NoteNumber":44,"Velocity":39,"Duration":89960,"SoundDuration":89960,"Delta":251543624},{"NoteNumber":64,"Velocity":51,"Duration":104953,"SoundDuration":104953,"Delta":251633585},{"NoteNumber":68,"Velocity":53,"Duration":104953,"SoundDuration":104953,"Delta":251723545},{"NoteNumber":37,"Velocity":43,"Duration":89960,"SoundDuration":89960,"Delta":251723545},{"NoteNumber":61,"Velocity":47,"Duration":104953,"SoundDuration":104953,"Delta":251813506},{"NoteNumber":64,"Velocity":49,"Duration":104953,"SoundDuration":104953,"Delta":251903466},{"NoteNumber":44,"Velocity":40,"Duration":89960,"SoundDuration":89960,"Delta":251903466},{"NoteNumber":68,"Velocity":51,"Duration":104953,"SoundDuration":104953,"Delta":251993427},{"NoteNumber":73,"Velocity":52,"Duration":104953,"SoundDuration":104953,"Delta":252083387},{"NoteNumber":37,"Velocity":43,"Duration":89960,"SoundDuration":89960,"Delta":252083387},{"NoteNumber":64,"Velocity":51,"Duration":104953,"SoundDuration":104953,"Delta":252173348},{"NoteNumber":68,"Velocity":50,"Duration":104953,"SoundDuration":104953,"Delta":252263308},{"NoteNumber":44,"Velocity":40,"Duration":89960,"SoundDuration":89960,"Delta":252263308},{"NoteNumber":73,"Velocity":51,"Duration":104953,"SoundDuration":104953,"Delta":252353269},{"NoteNumber":76,"Velocity":53,"Duration":104953,"SoundDuration":104953,"Delta":252443229},{"NoteNumber":37,"Velocity":41,"Duration":89960,"SoundDuration":89960,"Delta":252443229},{"NoteNumber":68,"Velocity":51,"Duration":104953,"SoundDuration":104953,"Delta":252533190},{"NoteNumber":73,"Velocity":51,"Duration":104953,"SoundDuration":104953,"Delta":252623150},{"NoteNumber":44,"Velocity":38,"Duration":89960,"SoundDuration":89960,"Delta":252623150},{"NoteNumber":76,"Velocity":56,"Duration":89960,"SoundDuration":89960,"Delta":252713111},{"NoteNumber":73,"Velocity":79,"Duration":93761,"SoundDuration":93761,"Delta":252803071},{"NoteNumber":80,"Velocity":94,"Duration":93761,"SoundDuration":93761,"Delta":252803071},{"NoteNumber":68,"Velocity":79,"Duration":93761,"SoundDuration":93761,"Delta":252803071},{"NoteNumber":76,"Velocity":94,"Duration":93761,"SoundDuration":93761,"Delta":252803071},{"NoteNumber":37,"Velocity":66,"Duration":93761,"SoundDuration":93761,"Delta":252803071},{"NoteNumber":49,"Velocity":79,"Duration":93761,"SoundDuration":93761,"Delta":252803071},{"NoteNumber":80,"Velocity":79,"Duration":93761,"SoundDuration":93761,"Delta":252990595},{"NoteNumber":76,"Velocity":79,"Duration":93761,"SoundDuration":93761,"Delta":252990595},{"NoteNumber":73,"Velocity":67,"Duration":93761,"SoundDuration":93761,"Delta":252990595},{"NoteNumber":68,"Velocity":67,"Duration":93761,"SoundDuration":93761,"Delta":252990595},{"NoteNumber":44,"Velocity":67,"Duration":93761,"SoundDuration":93761,"Delta":252990595},{"NoteNumber":36,"Velocity":41,"Duration":89960,"SoundDuration":89960,"Delta":253178118},{"NoteNumber":44,"Velocity":47,"Duration":86212,"SoundDuration":86212,"Delta":253268079},{"NoteNumber":48,"Velocity":49,"Duration":104953,"SoundDuration":104953,"Delta":253358039},{"NoteNumber":44,"Velocity":38,"Duration":89960,"SoundDuration":89960,"Delta":253358039},{"NoteNumber":51,"Velocity":51,"Duration":104953,"SoundDuration":104953,"Delta":253448000},{"NoteNumber":56,"Velocity":51,"Duration":104953,"SoundDuration":104953,"Delta":253537960},{"NoteNumber":36,"Velocity":41,"Duration":89960,"SoundDuration":89960,"Delta":253537960},{"NoteNumber":48,"Velocity":48,"Duration":104953,"SoundDuration":104953,"Delta":253627921},{"NoteNumber":51,"Velocity":50,"Duration":104953,"SoundDuration":104953,"Delta":253717881},{"NoteNumber":44,"Velocity":38,"Duration":89960,"SoundDuration":89960,"Delta":253717881},{"NoteNumber":56,"Velocity":51,"Duration":104953,"SoundDuration":104953,"Delta":253807842},{"NoteNumber":60,"Velocity":52,"Duration":104953,"SoundDuration":104953,"Delta":253897802},{"NoteNumber":36,"Velocity":40,"Duration":89960,"SoundDuration":89960,"Delta":253897802},{"NoteNumber":51,"Velocity":51,"Duration":104953,"SoundDuration":104953,"Delta":253987763},{"NoteNumber":56,"Velocity":51,"Duration":104953,"SoundDuration":104953,"Delta":254077723},{"NoteNumber":44,"Velocity":37,"Duration":89960,"SoundDuration":89960,"Delta":254077723},{"NoteNumber":60,"Velocity":51,"Duration":104953,"SoundDuration":104953,"Delta":254167684},{"NoteNumber":63,"Velocity":52,"Duration":104953,"SoundDuration":104953,"Delta":254257644},{"NoteNumber":36,"Velocity":40,"Duration":89960,"SoundDuration":89960,"Delta":254257644},{"NoteNumber":56,"Velocity":47,"Duration":104953,"SoundDuration":104953,"Delta":254347605},{"NoteNumber":60,"Velocity":50,"Duration":104953,"SoundDuration":104953,"Delta":254437565},{"NoteNumber":44,"Velocity":36,"Duration":89960,"SoundDuration":89960,"Delta":254437565},{"NoteNumber":63,"Velocity":51,"Duration":104953,"SoundDuration":104953,"Delta":254527526},{"NoteNumber":68,"Velocity":53,"Duration":104953,"SoundDuration":104953,"Delta":254617486},{"NoteNumber":36,"Velocity":40,"Duration":89960,"SoundDuration":89960,"Delta":254617486},{"NoteNumber":60,"Velocity":49,"Duration":104953,"SoundDuration":104953,"Delta":254707447},{"NoteNumber":63,"Velocity":50,"Duration":104953,"SoundDuration":104953,"Delta":254797407},{"NoteNumber":44,"Velocity":36,"Duration":89960,"SoundDuration":89960,"Delta":254797407},{"NoteNumber":68,"Velocity":51,"Duration":104953,"SoundDuration":104953,"Delta":254887368},{"NoteNumber":72,"Velocity":52,"Duration":104953,"SoundDuration":104953,"Delta":254977328},{"NoteNumber":36,"Velocity":40,"Duration":89960,"SoundDuration":89960,"Delta":254977328},{"NoteNumber":63,"Velocity":51,"Duration":104953,"SoundDuration":104953,"Delta":255067289},{"NoteNumber":68,"Velocity":50,"Duration":104953,"SoundDuration":104953,"Delta":255157249},{"NoteNumber":44,"Velocity":36,"Duration":89960,"SoundDuration":89960,"Delta":255157249},{"NoteNumber":72,"Velocity":51,"Duration":104953,"SoundDuration":104953,"Delta":255247210},{"NoteNumber":75,"Velocity":52,"Duration":104953,"SoundDuration":104953,"Delta":255337170},{"NoteNumber":36,"Velocity":40,"Duration":89960,"SoundDuration":89960,"Delta":255337170},{"NoteNumber":68,"Velocity":49,"Duration":104953,"SoundDuration":104953,"Delta":255427131},{"NoteNumber":72,"Velocity":51,"Duration":104953,"SoundDuration":104953,"Delta":255517091},{"NoteNumber":44,"Velocity":36,"Duration":89960,"SoundDuration":89960,"Delta":255517091},{"NoteNumber":75,"Velocity":53,"Duration":89960,"SoundDuration":89960,"Delta":255607052},{"NoteNumber":72,"Velocity":79,"Duration":94073,"SoundDuration":94073,"Delta":255697012},{"NoteNumber":75,"Velocity":94,"Duration":94073,"SoundDuration":94073,"Delta":255697012},{"NoteNumber":80,"Velocity":94,"Duration":94073,"SoundDuration":94073,"Delta":255697012},{"NoteNumber":68,"Velocity":79,"Duration":94073,"SoundDuration":94073,"Delta":255697012},{"NoteNumber":48,"Velocity":79,"Duration":94073,"SoundDuration":94073,"Delta":255697012},{"NoteNumber":36,"Velocity":66,"Duration":94073,"SoundDuration":94073,"Delta":255697012},{"NoteNumber":75,"Velocity":78,"Duration":94073,"SoundDuration":94073,"Delta":255885159},{"NoteNumber":68,"Velocity":66,"Duration":94073,"SoundDuration":94073,"Delta":255885159},{"NoteNumber":80,"Velocity":78,"Duration":94073,"SoundDuration":94073,"Delta":255885159},{"NoteNumber":72,"Velocity":66,"Duration":94073,"SoundDuration":94073,"Delta":255885159},{"NoteNumber":44,"Velocity":65,"Duration":94073,"SoundDuration":94073,"Delta":255885159},{"NoteNumber":35,"Velocity":55,"Duration":89960,"SoundDuration":89960,"Delta":256073306},{"NoteNumber":49,"Velocity":62,"Duration":104953,"SoundDuration":104953,"Delta":256163267},{"NoteNumber":53,"Velocity":65,"Duration":104953,"SoundDuration":104953,"Delta":256253227},{"NoteNumber":44,"Velocity":51,"Duration":89960,"SoundDuration":89960,"Delta":256253227},{"NoteNumber":56,"Velocity":67,"Duration":104953,"SoundDuration":104953,"Delta":256343188},{"NoteNumber":61,"Velocity":68,"Duration":104953,"SoundDuration":104953,"Delta":256433148},{"NoteNumber":35,"Velocity":56,"Duration":89960,"SoundDuration":89960,"Delta":256433148},{"NoteNumber":53,"Velocity":65,"Duration":104953,"SoundDuration":104953,"Delta":256523109},{"NoteNumber":56,"Velocity":67,"Duration":104953,"SoundDuration":104953,"Delta":256613069},{"NoteNumber":44,"Velocity":52,"Duration":89960,"SoundDuration":89960,"Delta":256613069},{"NoteNumber":61,"Velocity":68,"Duration":104953,"SoundDuration":104953,"Delta":256703030},{"NoteNumber":65,"Velocity":69,"Duration":104953,"SoundDuration":104953,"Delta":256792990},{"NoteNumber":35,"Velocity":56,"Duration":89960,"SoundDuration":89960,"Delta":256792990},{"NoteNumber":56,"Velocity":66,"Duration":104953,"SoundDuration":104953,"Delta":256882951},{"NoteNumber":61,"Velocity":68,"Duration":104953,"SoundDuration":104953,"Delta":256972911},{"NoteNumber":44,"Velocity":52,"Duration":89960,"SoundDuration":89960,"Delta":256972911},{"NoteNumber":65,"Velocity":69,"Duration":104953,"SoundDuration":104953,"Delta":257062872},{"NoteNumber":68,"Velocity":71,"Duration":104953,"SoundDuration":104953,"Delta":257152832},{"NoteNumber":35,"Velocity":56,"Duration":89960,"SoundDuration":89960,"Delta":257152832},{"NoteNumber":61,"Velocity":66,"Duration":104953,"SoundDuration":104953,"Delta":257242793},{"NoteNumber":65,"Velocity":68,"Duration":104953,"SoundDuration":104953,"Delta":257332753},{"NoteNumber":44,"Velocity":51,"Duration":89960,"SoundDuration":89960,"Delta":257332753},{"NoteNumber":68,"Velocity":68,"Duration":104953,"SoundDuration":104953,"Delta":257422714},{"NoteNumber":73,"Velocity":69,"Duration":104953,"SoundDuration":104953,"Delta":257512674},{"NoteNumber":35,"Velocity":56,"Duration":89960,"SoundDuration":89960,"Delta":257512674},{"NoteNumber":65,"Velocity":66,"Duration":104953,"SoundDuration":104953,"Delta":257602635},{"NoteNumber":68,"Velocity":68,"Duration":104953,"SoundDuration":104953,"Delta":257692595},{"NoteNumber":44,"Velocity":51,"Duration":89960,"SoundDuration":89960,"Delta":257692595},{"NoteNumber":73,"Velocity":68,"Duration":104953,"SoundDuration":104953,"Delta":257782556},{"NoteNumber":77,"Velocity":70,"Duration":104953,"SoundDuration":104953,"Delta":257872516},{"NoteNumber":35,"Velocity":56,"Duration":89960,"SoundDuration":89960,"Delta":257872516},{"NoteNumber":68,"Velocity":63,"Duration":104953,"SoundDuration":104953,"Delta":257962477},{"NoteNumber":73,"Velocity":66,"Duration":104953,"SoundDuration":104953,"Delta":258052437},{"NoteNumber":44,"Velocity":52,"Duration":89960,"SoundDuration":89960,"Delta":258052437},{"NoteNumber":77,"Velocity":68,"Duration":104953,"SoundDuration":104953,"Delta":258142398},{"NoteNumber":80,"Velocity":68,"Duration":104953,"SoundDuration":104953,"Delta":258232358},{"NoteNumber":35,"Velocity":56,"Duration":89960,"SoundDuration":89960,"Delta":258232358},{"NoteNumber":73,"Velocity":66,"Duration":104953,"SoundDuration":104953,"Delta":258322319},{"NoteNumber":77,"Velocity":68,"Duration":104953,"SoundDuration":104953,"Delta":258412279},{"NoteNumber":44,"Velocity":52,"Duration":89960,"SoundDuration":89960,"Delta":258412279},{"NoteNumber":80,"Velocity":70,"Duration":89960,"SoundDuration":89960,"Delta":258502240},{"NoteNumber":73,"Velocity":87,"Duration":93463,"SoundDuration":93463,"Delta":258592200},{"NoteNumber":77,"Velocity":87,"Duration":93463,"SoundDuration":93463,"Delta":258592200},{"NoteNumber":80,"Velocity":103,"Duration":93463,"SoundDuration":93463,"Delta":258592200},{"NoteNumber":85,"Velocity":103,"Duration":93463,"SoundDuration":93463,"Delta":258592200},{"NoteNumber":47,"Velocity":85,"Duration":93463,"SoundDuration":93463,"Delta":258592200},{"NoteNumber":35,"Velocity":71,"Duration":93463,"SoundDuration":93463,"Delta":258592200},{"NoteNumber":77,"Velocity":77,"Duration":93463,"SoundDuration":93463,"Delta":258779128},{"NoteNumber":80,"Velocity":90,"Duration":93463,"SoundDuration":93463,"Delta":258779128},{"NoteNumber":85,"Velocity":90,"Duration":93463,"SoundDuration":93463,"Delta":258779128},{"NoteNumber":73,"Velocity":77,"Duration":93463,"SoundDuration":93463,"Delta":258779128},{"NoteNumber":44,"Velocity":73,"Duration":93463,"SoundDuration":93463,"Delta":258779128},{"NoteNumber":33,"Velocity":50,"Duration":89960,"SoundDuration":89960,"Delta":258966055},{"NoteNumber":49,"Velocity":61,"Duration":104953,"SoundDuration":104953,"Delta":259056016},{"NoteNumber":54,"Velocity":63,"Duration":104953,"SoundDuration":104953,"Delta":259145976},{"NoteNumber":45,"Velocity":51,"Duration":89960,"SoundDuration":89960,"Delta":259145976},{"NoteNumber":57,"Velocity":62,"Duration":104953,"SoundDuration":104953,"Delta":259235937},{"NoteNumber":61,"Velocity":69,"Duration":44980,"SoundDuration":44980,"Delta":259325897},{"NoteNumber":33,"Velocity":57,"Duration":89960,"SoundDuration":89960,"Delta":259325897},{"NoteNumber":61,"Velocity":72,"Duration":104953,"SoundDuration":104953,"Delta":259415858},{"NoteNumber":66,"Velocity":76,"Duration":104953,"SoundDuration":104953,"Delta":259505818},{"NoteNumber":45,"Velocity":62,"Duration":89960,"SoundDuration":89960,"Delta":259505818},{"NoteNumber":69,"Velocity":76,"Duration":104953,"SoundDuration":104953,"Delta":259595779},{"NoteNumber":73,"Velocity":82,"Duration":44980,"SoundDuration":44980,"Delta":259685739},{"NoteNumber":33,"Velocity":67,"Duration":89960,"SoundDuration":89960,"Delta":259685739},{"NoteNumber":73,"Velocity":85,"Duration":104953,"SoundDuration":104953,"Delta":259775700},{"NoteNumber":78,"Velocity":87,"Duration":104953,"SoundDuration":104953,"Delta":259865660},{"NoteNumber":45,"Velocity":67,"Duration":89960,"SoundDuration":89960,"Delta":259865660},{"NoteNumber":81,"Velocity":84,"Duration":105191,"SoundDuration":105191,"Delta":259955621},{"NoteNumber":78,"Velocity":102,"Duration":91385,"SoundDuration":91385,"Delta":260045581},{"NoteNumber":85,"Velocity":102,"Duration":91385,"SoundDuration":91385,"Delta":260045581},{"NoteNumber":73,"Velocity":86,"Duration":91385,"SoundDuration":91385,"Delta":260045581},{"NoteNumber":33,"Velocity":86,"Duration":91385,"SoundDuration":91385,"Delta":260045581},{"NoteNumber":73,"Velocity":85,"Duration":91385,"SoundDuration":91385,"Delta":260228352},{"NoteNumber":78,"Velocity":101,"Duration":91385,"SoundDuration":91385,"Delta":260228352},{"NoteNumber":85,"Velocity":101,"Duration":91385,"SoundDuration":91385,"Delta":260228352},{"NoteNumber":45,"Velocity":85,"Duration":91385,"SoundDuration":91385,"Delta":260228352},{"NoteNumber":33,"Velocity":67,"Duration":89960,"SoundDuration":89960,"Delta":260411123},{"NoteNumber":49,"Velocity":75,"Duration":104953,"SoundDuration":104953,"Delta":260501084},{"NoteNumber":52,"Velocity":77,"Duration":104953,"SoundDuration":104953,"Delta":260591044},{"NoteNumber":45,"Velocity":62,"Duration":89960,"SoundDuration":89960,"Delta":260591044},{"NoteNumber":55,"Velocity":75,"Duration":104953,"SoundDuration":104953,"Delta":260681005},{"NoteNumber":61,"Velocity":80,"Duration":44980,"SoundDuration":44980,"Delta":260770965},{"NoteNumber":33,"Velocity":67,"Duration":89960,"SoundDuration":89960,"Delta":260770965},{"NoteNumber":61,"Velocity":77,"Duration":104953,"SoundDuration":104953,"Delta":260860926},{"NoteNumber":64,"Velocity":79,"Duration":104953,"SoundDuration":104953,"Delta":260950886},{"NoteNumber":45,"Velocity":63,"Duration":89960,"SoundDuration":89960,"Delta":260950886},{"NoteNumber":67,"Velocity":77,"Duration":104953,"SoundDuration":104953,"Delta":261040847},{"NoteNumber":73,"Velocity":81,"Duration":44980,"SoundDuration":44980,"Delta":261130807},{"NoteNumber":33,"Velocity":67,"Duration":89960,"SoundDuration":89960,"Delta":261130807},{"NoteNumber":73,"Velocity":80,"Duration":104953,"SoundDuration":104953,"Delta":261220768},{"NoteNumber":76,"Velocity":81,"Duration":104953,"SoundDuration":104953,"Delta":261310728},{"NoteNumber":45,"Velocity":64,"Duration":89960,"SoundDuration":89960,"Delta":261310728},{"NoteNumber":79,"Velocity":79,"Duration":89960,"SoundDuration":89960,"Delta":261400689},{"NoteNumber":79,"Velocity":108,"Duration":104675,"SoundDuration":104675,"Delta":261490649},{"NoteNumber":85,"Velocity":108,"Duration":104675,"SoundDuration":104675,"Delta":261490649},{"NoteNumber":73,"Velocity":90,"Duration":104675,"SoundDuration":104675,"Delta":261490649},{"NoteNumber":33,"Velocity":90,"Duration":104675,"SoundDuration":104675,"Delta":261490649},{"NoteNumber":85,"Velocity":108,"Duration":104675,"SoundDuration":104675,"Delta":261700000},{"NoteNumber":79,"Velocity":108,"Duration":104675,"SoundDuration":104675,"Delta":261700000},{"NoteNumber":73,"Velocity":90,"Duration":104675,"SoundDuration":104675,"Delta":261700000},{"NoteNumber":45,"Velocity":90,"Duration":104675,"SoundDuration":104675,"Delta":261700000},{"NoteNumber":80,"Velocity":108,"Duration":209351,"SoundDuration":209351,"Delta":261909351},{"NoteNumber":72,"Velocity":90,"Duration":209351,"SoundDuration":209351,"Delta":261909351},{"NoteNumber":84,"Velocity":108,"Duration":209351,"SoundDuration":209351,"Delta":261909351},{"NoteNumber":44,"Velocity":77,"Duration":209351,"SoundDuration":209351,"Delta":261909351},{"NoteNumber":32,"Velocity":77,"Duration":209351,"SoundDuration":209351,"Delta":261909351},{"NoteNumber":68,"Velocity":74,"Duration":91096,"SoundDuration":91096,"Delta":262118702},{"NoteNumber":60,"Velocity":62,"Duration":182193,"SoundDuration":182193,"Delta":262118702},{"NoteNumber":56,"Velocity":62,"Duration":2758754,"SoundDuration":2758754,"Delta":262118702},{"NoteNumber":80,"Velocity":58,"Duration":91096,"SoundDuration":91096,"Delta":262209799},{"NoteNumber":68,"Velocity":75,"Duration":91096,"SoundDuration":91096,"Delta":262300896},{"NoteNumber":60,"Velocity":62,"Duration":182193,"SoundDuration":182193,"Delta":262300896},{"NoteNumber":80,"Velocity":60,"Duration":91096,"SoundDuration":91096,"Delta":262391993},{"NoteNumber":70,"Velocity":76,"Duration":91096,"SoundDuration":91096,"Delta":262483089},{"NoteNumber":61,"Velocity":62,"Duration":182193,"SoundDuration":182193,"Delta":262483089},{"NoteNumber":80,"Velocity":60,"Duration":91096,"SoundDuration":91096,"Delta":262574186},{"NoteNumber":72,"Velocity":76,"Duration":91096,"SoundDuration":91096,"Delta":262665283},{"NoteNumber":63,"Velocity":64,"Duration":182193,"SoundDuration":182193,"Delta":262665283},{"NoteNumber":80,"Velocity":61,"Duration":91096,"SoundDuration":91096,"Delta":262756380},{"NoteNumber":73,"Velocity":78,"Duration":91096,"SoundDuration":91096,"Delta":262847476},{"NoteNumber":64,"Velocity":66,"Duration":182193,"SoundDuration":182193,"Delta":262847476},{"NoteNumber":80,"Velocity":62,"Duration":91096,"SoundDuration":91096,"Delta":262938573},{"NoteNumber":75,"Velocity":79,"Duration":91096,"SoundDuration":91096,"Delta":263029670},{"NoteNumber":66,"Velocity":67,"Duration":182193,"SoundDuration":182193,"Delta":263029670},{"NoteNumber":80,"Velocity":62,"Duration":91096,"SoundDuration":91096,"Delta":263120767},{"NoteNumber":72,"Velocity":79,"Duration":91096,"SoundDuration":91096,"Delta":263211863},{"NoteNumber":63,"Velocity":68,"Duration":182193,"SoundDuration":182193,"Delta":263211863},{"NoteNumber":80,"Velocity":62,"Duration":91096,"SoundDuration":91096,"Delta":263302960},{"NoteNumber":75,"Velocity":80,"Duration":93463,"SoundDuration":93463,"Delta":263394057},{"NoteNumber":66,"Velocity":69,"Duration":186927,"SoundDuration":186927,"Delta":263394057},{"NoteNumber":80,"Velocity":62,"Duration":93463,"SoundDuration":93463,"Delta":263487521},{"NoteNumber":73,"Velocity":80,"Duration":93463,"SoundDuration":93463,"Delta":263580984},{"NoteNumber":64,"Velocity":71,"Duration":186927,"SoundDuration":186927,"Delta":263580984},{"NoteNumber":80,"Velocity":62,"Duration":93463,"SoundDuration":93463,"Delta":263674448},{"NoteNumber":78,"Velocity":84,"Duration":93463,"SoundDuration":93463,"Delta":263767912},{"NoteNumber":69,"Velocity":72,"Duration":186927,"SoundDuration":186927,"Delta":263767912},{"NoteNumber":80,"Velocity":62,"Duration":93463,"SoundDuration":93463,"Delta":263861376},{"NoteNumber":76,"Velocity":80,"Duration":93363,"SoundDuration":93363,"Delta":263954839},{"NoteNumber":68,"Velocity":71,"Duration":186525,"SoundDuration":186525,"Delta":263954839},{"NoteNumber":80,"Velocity":62,"Duration":93162,"SoundDuration":93162,"Delta":264048203},{"NoteNumber":75,"Velocity":80,"Duration":93162,"SoundDuration":93162,"Delta":264141365},{"NoteNumber":66,"Velocity":69,"Duration":186024,"SoundDuration":186024,"Delta":264141365},{"NoteNumber":80,"Velocity":62,"Duration":92862,"SoundDuration":92862,"Delta":264234527},{"NoteNumber":73,"Velocity":79,"Duration":92861,"SoundDuration":92861,"Delta":264327389},{"NoteNumber":64,"Velocity":68,"Duration":185622,"SoundDuration":185622,"Delta":264327389},{"NoteNumber":80,"Velocity":62,"Duration":92760,"SoundDuration":92760,"Delta":264420251},{"NoteNumber":72,"Velocity":79,"Duration":89960,"SoundDuration":89960,"Delta":264513011},{"NoteNumber":63,"Velocity":67,"Duration":179920,"SoundDuration":179920,"Delta":264513011},{"NoteNumber":80,"Velocity":62,"Duration":89960,"SoundDuration":89960,"Delta":264602972},{"NoteNumber":69,"Velocity":77,"Duration":92262,"SoundDuration":92262,"Delta":264692932},{"NoteNumber":61,"Velocity":66,"Duration":184524,"SoundDuration":184524,"Delta":264692932},{"NoteNumber":79,"Velocity":61,"Duration":92262,"SoundDuration":92262,"Delta":264785195},{"NoteNumber":68,"Velocity":76,"Duration":92164,"SoundDuration":92164,"Delta":264877457},{"NoteNumber":56,"Velocity":64,"Duration":2950625,"SoundDuration":2950625,"Delta":264877457},{"NoteNumber":60,"Velocity":64,"Duration":184132,"SoundDuration":184132,"Delta":264877457},{"NoteNumber":80,"Velocity":60,"Duration":91967,"SoundDuration":91967,"Delta":264969621},{"NoteNumber":68,"Velocity":75,"Duration":91968,"SoundDuration":91968,"Delta":265061589},{"NoteNumber":60,"Velocity":63,"Duration":183643,"SoundDuration":183643,"Delta":265061589},{"NoteNumber":80,"Velocity":59,"Duration":91675,"SoundDuration":91675,"Delta":265153557},{"NoteNumber":68,"Velocity":74,"Duration":91675,"SoundDuration":91675,"Delta":265245233},{"NoteNumber":60,"Velocity":62,"Duration":183254,"SoundDuration":183254,"Delta":265245233},{"NoteNumber":80,"Velocity":59,"Duration":91578,"SoundDuration":91578,"Delta":265336908},{"NoteNumber":70,"Velocity":74,"Duration":91385,"SoundDuration":91385,"Delta":265428487},{"NoteNumber":61,"Velocity":60,"Duration":182771,"SoundDuration":182771,"Delta":265428487},{"NoteNumber":80,"Velocity":61,"Duration":91385,"SoundDuration":91385,"Delta":265519873},{"NoteNumber":72,"Velocity":76,"Duration":91385,"SoundDuration":91385,"Delta":265611258},{"NoteNumber":63,"Velocity":62,"Duration":182771,"SoundDuration":182771,"Delta":265611258},{"NoteNumber":80,"Velocity":59,"Duration":91385,"SoundDuration":91385,"Delta":265702644},{"NoteNumber":73,"Velocity":76,"Duration":91385,"SoundDuration":91385,"Delta":265794029},{"NoteNumber":64,"Velocity":62,"Duration":182771,"SoundDuration":182771,"Delta":265794029},{"NoteNumber":80,"Velocity":62,"Duration":91385,"SoundDuration":91385,"Delta":265885415},{"NoteNumber":75,"Velocity":77,"Duration":91385,"SoundDuration":91385,"Delta":265976800},{"NoteNumber":66,"Velocity":65,"Duration":182771,"SoundDuration":182771,"Delta":265976800},{"NoteNumber":80,"Velocity":61,"Duration":91385,"SoundDuration":91385,"Delta":266068186},{"NoteNumber":72,"Velocity":79,"Duration":91385,"SoundDuration":91385,"Delta":266159571},{"NoteNumber":63,"Velocity":67,"Duration":182771,"SoundDuration":182771,"Delta":266159571},{"NoteNumber":80,"Velocity":62,"Duration":91385,"SoundDuration":91385,"Delta":266250957},{"NoteNumber":75,"Velocity":79,"Duration":95316,"SoundDuration":95316,"Delta":266342342},{"NoteNumber":66,"Velocity":68,"Duration":190633,"SoundDuration":190633,"Delta":266342342},{"NoteNumber":80,"Velocity":62,"Duration":95316,"SoundDuration":95316,"Delta":266437659},{"NoteNumber":73,"Velocity":80,"Duration":95316,"SoundDuration":95316,"Delta":266532976},{"NoteNumber":64,"Velocity":68,"Duration":189713,"SoundDuration":189713,"Delta":266532976},{"NoteNumber":80,"Velocity":65,"Duration":94397,"SoundDuration":94397,"Delta":266628293},{"NoteNumber":78,"Velocity":84,"Duration":92558,"SoundDuration":92558,"Delta":266722690},{"NoteNumber":69,"Velocity":68,"Duration":185116,"SoundDuration":185116,"Delta":266722690},{"NoteNumber":80,"Velocity":68,"Duration":92558,"SoundDuration":92558,"Delta":266815248},{"NoteNumber":76,"Velocity":84,"Duration":92558,"SoundDuration":92558,"Delta":266907806},{"NoteNumber":68,"Velocity":67,"Duration":184820,"SoundDuration":184820,"Delta":266907806},{"NoteNumber":80,"Velocity":67,"Duration":92262,"SoundDuration":92262,"Delta":267000365},{"NoteNumber":75,"Velocity":84,"Duration":92262,"SoundDuration":92262,"Delta":267092627},{"NoteNumber":66,"Velocity":67,"Duration":184524,"SoundDuration":184524,"Delta":267092627},{"NoteNumber":80,"Velocity":67,"Duration":92262,"SoundDuration":92262,"Delta":267184889},{"NoteNumber":73,"Velocity":84,"Duration":91968,"SoundDuration":91968,"Delta":267277151},{"NoteNumber":64,"Velocity":67,"Duration":183936,"SoundDuration":183936,"Delta":267277151},{"NoteNumber":80,"Velocity":66,"Duration":91968,"SoundDuration":91968,"Delta":267369119},{"NoteNumber":72,"Velocity":84,"Duration":91968,"SoundDuration":91968,"Delta":267461087},{"NoteNumber":63,"Velocity":67,"Duration":183643,"SoundDuration":183643,"Delta":267461087},{"NoteNumber":80,"Velocity":67,"Duration":91675,"SoundDuration":91675,"Delta":267553055},{"NoteNumber":69,"Velocity":84,"Duration":91675,"SoundDuration":91675,"Delta":267644731},{"NoteNumber":61,"Velocity":67,"Duration":183351,"SoundDuration":183351,"Delta":267644731},{"NoteNumber":79,"Velocity":66,"Duration":91675,"SoundDuration":91675,"Delta":267736407},{"NoteNumber":68,"Velocity":84,"Duration":91385,"SoundDuration":91385,"Delta":267828083},{"NoteNumber":60,"Velocity":71,"Duration":91385,"SoundDuration":91385,"Delta":267828083},{"NoteNumber":56,"Velocity":71,"Duration":91385,"SoundDuration":91385,"Delta":267828083},{"NoteNumber":80,"Velocity":66,"Duration":91482,"SoundDuration":91482,"Delta":267919468},{"NoteNumber":69,"Velocity":79,"Duration":91773,"SoundDuration":91773,"Delta":268010950},{"NoteNumber":61,"Velocity":62,"Duration":91773,"SoundDuration":91773,"Delta":268010950},{"NoteNumber":56,"Velocity":62,"Duration":91773,"SoundDuration":91773,"Delta":268010950},{"NoteNumber":79,"Velocity":67,"Duration":92066,"SoundDuration":92066,"Delta":268102724},{"NoteNumber":68,"Velocity":84,"Duration":92360,"SoundDuration":92360,"Delta":268194790},{"NoteNumber":56,"Velocity":68,"Duration":92360,"SoundDuration":92360,"Delta":268194790},{"NoteNumber":60,"Velocity":68,"Duration":92360,"SoundDuration":92360,"Delta":268194790},{"NoteNumber":80,"Velocity":66,"Duration":92659,"SoundDuration":92659,"Delta":268287151},{"NoteNumber":69,"Velocity":79,"Duration":92961,"SoundDuration":92961,"Delta":268379810},{"NoteNumber":61,"Velocity":62,"Duration":92961,"SoundDuration":92961,"Delta":268379810},{"NoteNumber":56,"Velocity":62,"Duration":92961,"SoundDuration":92961,"Delta":268379810},{"NoteNumber":79,"Velocity":67,"Duration":93262,"SoundDuration":93262,"Delta":268472772},{"NoteNumber":68,"Velocity":84,"Duration":93463,"SoundDuration":93463,"Delta":268566035},{"NoteNumber":60,"Velocity":71,"Duration":93463,"SoundDuration":93463,"Delta":268566035},{"NoteNumber":56,"Velocity":71,"Duration":93463,"SoundDuration":93463,"Delta":268566035},{"NoteNumber":80,"Velocity":66,"Duration":93761,"SoundDuration":93761,"Delta":268659498},{"NoteNumber":69,"Velocity":79,"Duration":94073,"SoundDuration":94073,"Delta":268753260},{"NoteNumber":56,"Velocity":62,"Duration":94073,"SoundDuration":94073,"Delta":268753260},{"NoteNumber":61,"Velocity":62,"Duration":94073,"SoundDuration":94073,"Delta":268753260},{"NoteNumber":79,"Velocity":65,"Duration":94381,"SoundDuration":94381,"Delta":268847334},{"NoteNumber":68,"Velocity":84,"Duration":94691,"SoundDuration":94691,"Delta":268941715},{"NoteNumber":60,"Velocity":67,"Duration":94691,"SoundDuration":94691,"Delta":268941715},{"NoteNumber":56,"Velocity":67,"Duration":94691,"SoundDuration":94691,"Delta":268941715},{"NoteNumber":80,"Velocity":66,"Duration":95008,"SoundDuration":95008,"Delta":269036406},{"NoteNumber":69,"Velocity":79,"Duration":95316,"SoundDuration":95316,"Delta":269131415},{"NoteNumber":61,"Velocity":61,"Duration":95316,"SoundDuration":95316,"Delta":269131415},{"NoteNumber":56,"Velocity":61,"Duration":95316,"SoundDuration":95316,"Delta":269131415},{"NoteNumber":79,"Velocity":65,"Duration":95632,"SoundDuration":95632,"Delta":269226731},{"NoteNumber":80,"Velocity":84,"Duration":246042,"SoundDuration":246042,"Delta":269322364},{"NoteNumber":68,"Velocity":84,"Duration":246042,"SoundDuration":246042,"Delta":269322364},{"NoteNumber":60,"Velocity":71,"Duration":246042,"SoundDuration":246042,"Delta":269322364},{"NoteNumber":56,"Velocity":71,"Duration":246042,"SoundDuration":246042,"Delta":269322364},{"NoteNumber":56,"Velocity":113,"Duration":1476258,"SoundDuration":1476258,"Delta":269814450},{"NoteNumber":32,"Velocity":77,"Duration":1476258,"SoundDuration":1476258,"Delta":269814450},{"NoteNumber":44,"Velocity":90,"Duration":1476258,"SoundDuration":1476258,"Delta":269814450},{"NoteNumber":49,"Velocity":39,"Duration":119936,"SoundDuration":119936,"Delta":271290708},{"NoteNumber":56,"Velocity":29,"Duration":119936,"SoundDuration":119936,"Delta":271393511},{"NoteNumber":52,"Velocity":34,"Duration":119936,"SoundDuration":119936,"Delta":271496314},{"NoteNumber":56,"Velocity":29,"Duration":118708,"SoundDuration":118708,"Delta":271599117},{"NoteNumber":68,"Velocity":56,"Duration":756229,"SoundDuration":756229,"Delta":271701920},{"NoteNumber":49,"Velocity":39,"Duration":90584,"SoundDuration":90584,"Delta":271701920},{"NoteNumber":56,"Velocity":29,"Duration":89765,"SoundDuration":89765,"Delta":271793259},{"NoteNumber":52,"Velocity":34,"Duration":89765,"SoundDuration":89765,"Delta":271883778},{"NoteNumber":56,"Velocity":30,"Duration":89765,"SoundDuration":89765,"Delta":271974298},{"NoteNumber":49,"Velocity":39,"Duration":89765,"SoundDuration":89765,"Delta":272064817},{"NoteNumber":56,"Velocity":30,"Duration":89765,"SoundDuration":89765,"Delta":272155337},{"NoteNumber":52,"Velocity":34,"Duration":96766,"SoundDuration":96766,"Delta":272245856},{"NoteNumber":56,"Velocity":30,"Duration":96766,"SoundDuration":96766,"Delta":272343436},{"NoteNumber":64,"Velocity":47,"Duration":332161,"SoundDuration":332161,"Delta":272441016},{"NoteNumber":49,"Velocity":39,"Duration":101946,"SoundDuration":101946,"Delta":272441016},{"NoteNumber":56,"Velocity":30,"Duration":101946,"SoundDuration":101946,"Delta":272543819},{"NoteNumber":52,"Velocity":34,"Duration":101946,"SoundDuration":101946,"Delta":272646622},{"NoteNumber":61,"Velocity":47,"Duration":71258,"SoundDuration":71258,"Delta":272749425},{"NoteNumber":56,"Velocity":30,"Duration":141330,"SoundDuration":141330,"Delta":272749425},{"NoteNumber":60,"Velocity":37,"Duration":23752,"SoundDuration":23752,"Delta":272820684},{"NoteNumber":61,"Velocity":37,"Duration":23752,"SoundDuration":23752,"Delta":272844437},{"NoteNumber":63,"Velocity":37,"Duration":23752,"SoundDuration":23752,"Delta":272868190},{"NoteNumber":61,"Velocity":53,"Duration":404090,"SoundDuration":404090,"Delta":272891943},{"NoteNumber":51,"Velocity":39,"Duration":113459,"SoundDuration":113459,"Delta":272891943},{"NoteNumber":56,"Velocity":30,"Duration":113459,"SoundDuration":113459,"Delta":272989194},{"NoteNumber":54,"Velocity":34,"Duration":113459,"SoundDuration":113459,"Delta":273086445},{"NoteNumber":56,"Velocity":30,"Duration":112337,"SoundDuration":112337,"Delta":273183696},{"NoteNumber":60,"Velocity":47,"Duration":543116,"SoundDuration":543116,"Delta":273280947},{"NoteNumber":51,"Velocity":48,"Duration":89765,"SoundDuration":89765,"Delta":273280947},{"NoteNumber":56,"Velocity":43,"Duration":89765,"SoundDuration":89765,"Delta":273371466},{"NoteNumber":54,"Velocity":47,"Duration":89765,"SoundDuration":89765,"Delta":273461986},{"NoteNumber":56,"Velocity":49,"Duration":89765,"SoundDuration":89765,"Delta":273552505},{"NoteNumber":51,"Velocity":58,"Duration":89765,"SoundDuration":89765,"Delta":273643025},{"NoteNumber":56,"Velocity":46,"Duration":89765,"SoundDuration":89765,"Delta":273733544},{"NoteNumber":60,"Velocity":47,"Duration":216474,"SoundDuration":216474,"Delta":273824064},{"NoteNumber":54,"Velocity":54,"Duration":98778,"SoundDuration":98778,"Delta":273824064},{"NoteNumber":56,"Velocity":47,"Duration":98778,"SoundDuration":98778,"Delta":273923672},{"NoteNumber":68,"Velocity":56,"Duration":310644,"SoundDuration":310644,"Delta":274023280},{"NoteNumber":51,"Velocity":66,"Duration":102685,"SoundDuration":102685,"Delta":274023280},{"NoteNumber":56,"Velocity":46,"Duration":102685,"SoundDuration":102685,"Delta":274126829},{"NoteNumber":54,"Velocity":51,"Duration":102685,"SoundDuration":102685,"Delta":274230377},{"NoteNumber":60,"Velocity":48,"Duration":103548,"SoundDuration":103548,"Delta":274333925},{"NoteNumber":56,"Velocity":40,"Duration":102685,"SoundDuration":102685,"Delta":274333925},{"NoteNumber":63,"Velocity":43,"Duration":402665,"SoundDuration":402665,"Delta":274437473},{"NoteNumber":52,"Velocity":39,"Duration":96110,"SoundDuration":96110,"Delta":274437473},{"NoteNumber":56,"Velocity":32,"Duration":96110,"SoundDuration":96110,"Delta":274534391},{"NoteNumber":52,"Velocity":35,"Duration":96110,"SoundDuration":96110,"Delta":274631309},{"NoteNumber":56,"Velocity":31,"Duration":96110,"SoundDuration":96110,"Delta":274728227},{"NoteNumber":61,"Velocity":47,"Duration":539762,"SoundDuration":539762,"Delta":274825145},{"NoteNumber":52,"Velocity":50,"Duration":89210,"SoundDuration":89210,"Delta":274825145},{"NoteNumber":56,"Velocity":41,"Duration":89210,"SoundDuration":89210,"Delta":274915106},{"NoteNumber":52,"Velocity":47,"Duration":89210,"SoundDuration":89210,"Delta":275005066},{"NoteNumber":56,"Velocity":42,"Duration":89210,"SoundDuration":89210,"Delta":275095027},{"NoteNumber":52,"Velocity":58,"Duration":89210,"SoundDuration":89210,"Delta":275184987},{"NoteNumber":56,"Velocity":48,"Duration":89210,"SoundDuration":89210,"Delta":275274948},{"NoteNumber":61,"Velocity":45,"Duration":209688,"SoundDuration":209688,"Delta":275364908},{"NoteNumber":52,"Velocity":56,"Duration":95474,"SoundDuration":95474,"Delta":275364908},{"NoteNumber":56,"Velocity":51,"Duration":95474,"SoundDuration":95474,"Delta":275461186},{"NoteNumber":68,"Velocity":57,"Duration":308408,"SoundDuration":308408,"Delta":275557463},{"NoteNumber":52,"Velocity":66,"Duration":101946,"SoundDuration":101946,"Delta":275557463},{"NoteNumber":56,"Velocity":49,"Duration":101946,"SoundDuration":101946,"Delta":275660266},{"NoteNumber":52,"Velocity":51,"Duration":101946,"SoundDuration":101946,"Delta":275763069},{"NoteNumber":61,"Velocity":47,"Duration":102802,"SoundDuration":102802,"Delta":275865872},{"NoteNumber":56,"Velocity":47,"Duration":101946,"SoundDuration":101946,"Delta":275865872},{"NoteNumber":64,"Velocity":48,"Duration":402758,"SoundDuration":402758,"Delta":275968675},{"NoteNumber":48,"Velocity":39,"Duration":96110,"SoundDuration":96110,"Delta":275968675},{"NoteNumber":56,"Velocity":31,"Duration":96110,"SoundDuration":96110,"Delta":276065593},{"NoteNumber":48,"Velocity":34,"Duration":96110,"SoundDuration":96110,"Delta":276162511},{"NoteNumber":56,"Velocity":32,"Duration":96110,"SoundDuration":96110,"Delta":276259429},{"NoteNumber":63,"Velocity":47,"Duration":543116,"SoundDuration":543116,"Delta":276356347},{"NoteNumber":48,"Velocity":50,"Duration":89765,"SoundDuration":89765,"Delta":276356347},{"NoteNumber":56,"Velocity":43,"Duration":89765,"SoundDuration":89765,"Delta":276446866},{"NoteNumber":48,"Velocity":49,"Duration":89765,"SoundDuration":89765,"Delta":276537386},{"NoteNumber":56,"Velocity":44,"Duration":89765,"SoundDuration":89765,"Delta":276627905},{"NoteNumber":48,"Velocity":58,"Duration":89765,"SoundDuration":89765,"Delta":276718425},{"NoteNumber":56,"Velocity":51,"Duration":89765,"SoundDuration":89765,"Delta":276808944},{"NoteNumber":63,"Velocity":48,"Duration":222739,"SoundDuration":222739,"Delta":276899464},{"NoteNumber":48,"Velocity":59,"Duration":101946,"SoundDuration":101946,"Delta":276899464},{"NoteNumber":56,"Velocity":54,"Duration":101946,"SoundDuration":101946,"Delta":277002267},{"NoteNumber":68,"Velocity":54,"Duration":325542,"SoundDuration":325542,"Delta":277105070},{"NoteNumber":48,"Velocity":66,"Duration":101946,"SoundDuration":101946,"Delta":277105070},{"NoteNumber":56,"Velocity":48,"Duration":101946,"SoundDuration":101946,"Delta":277207873},{"NoteNumber":48,"Velocity":51,"Duration":101946,"SoundDuration":101946,"Delta":277310676},{"NoteNumber":63,"Velocity":48,"Duration":102803,"SoundDuration":102803,"Delta":277413479},{"NoteNumber":56,"Velocity":39,"Duration":101946,"SoundDuration":101946,"Delta":277413479},{"NoteNumber":64,"Velocity":51,"Duration":92558,"SoundDuration":92558,"Delta":277516282},{"NoteNumber":49,"Velocity":39,"Duration":107984,"SoundDuration":107984,"Delta":277516282},{"NoteNumber":56,"Velocity":32,"Duration":107984,"SoundDuration":107984,"Delta":277608840},{"NoteNumber":80,"Velocity":58,"Duration":370232,"SoundDuration":370232,"Delta":277701398},{"NoteNumber":68,"Velocity":48,"Duration":370232,"SoundDuration":370232,"Delta":277701398},{"NoteNumber":52,"Velocity":35,"Duration":91786,"SoundDuration":91786,"Delta":277701398},{"NoteNumber":56,"Velocity":31,"Duration":91786,"SoundDuration":91786,"Delta":277793957},{"NoteNumber":49,"Velocity":40,"Duration":91786,"SoundDuration":91786,"Delta":277886515},{"NoteNumber":56,"Velocity":31,"Duration":91786,"SoundDuration":91786,"Delta":277979073},{"NoteNumber":68,"Velocity":45,"Duration":370233,"SoundDuration":370233,"Delta":278071631},{"NoteNumber":80,"Velocity":53,"Duration":370233,"SoundDuration":370233,"Delta":278071631},{"NoteNumber":52,"Velocity":34,"Duration":91786,"SoundDuration":91786,"Delta":278071631},{"NoteNumber":56,"Velocity":31,"Duration":91786,"SoundDuration":91786,"Delta":278164190},{"NoteNumber":49,"Velocity":41,"Duration":91786,"SoundDuration":91786,"Delta":278256748},{"NoteNumber":56,"Velocity":31,"Duration":91786,"SoundDuration":91786,"Delta":278349306},{"NoteNumber":80,"Velocity":56,"Duration":89960,"SoundDuration":89960,"Delta":278441864},{"NoteNumber":68,"Velocity":47,"Duration":89960,"SoundDuration":89960,"Delta":278441864},{"NoteNumber":52,"Velocity":35,"Duration":89210,"SoundDuration":89210,"Delta":278441864},{"NoteNumber":56,"Velocity":31,"Duration":89210,"SoundDuration":89210,"Delta":278531825},{"NoteNumber":64,"Velocity":49,"Duration":89960,"SoundDuration":89960,"Delta":278621785},{"NoteNumber":76,"Velocity":58,"Duration":89960,"SoundDuration":89960,"Delta":278621785},{"NoteNumber":49,"Velocity":43,"Duration":104953,"SoundDuration":104953,"Delta":278621785},{"NoteNumber":56,"Velocity":34,"Duration":104953,"SoundDuration":104953,"Delta":278711746},{"NoteNumber":73,"Velocity":56,"Duration":89960,"SoundDuration":89960,"Delta":278801706},{"NoteNumber":61,"Velocity":47,"Duration":89960,"SoundDuration":89960,"Delta":278801706},{"NoteNumber":52,"Velocity":37,"Duration":104953,"SoundDuration":104953,"Delta":278801706},{"NoteNumber":56,"Velocity":33,"Duration":104953,"SoundDuration":104953,"Delta":278891667},{"NoteNumber":61,"Velocity":51,"Duration":89960,"SoundDuration":89960,"Delta":278981627},{"NoteNumber":73,"Velocity":61,"Duration":89960,"SoundDuration":89960,"Delta":278981627},{"NoteNumber":51,"Velocity":46,"Duration":104953,"SoundDuration":104953,"Delta":278981627},{"NoteNumber":56,"Velocity":33,"Duration":105487,"SoundDuration":105487,"Delta":279071588},{"NoteNumber":60,"Velocity":52,"Duration":372648,"SoundDuration":372648,"Delta":279161548},{"NoteNumber":72,"Velocity":62,"Duration":372648,"SoundDuration":372648,"Delta":279161548},{"NoteNumber":54,"Velocity":39,"Duration":92385,"SoundDuration":92385,"Delta":279161548},{"NoteNumber":56,"Velocity":33,"Duration":92385,"SoundDuration":92385,"Delta":279254710},{"NoteNumber":51,"Velocity":47,"Duration":92385,"SoundDuration":92385,"Delta":279347872},{"NoteNumber":56,"Velocity":35,"Duration":92385,"SoundDuration":92385,"Delta":279441034},{"NoteNumber":72,"Velocity":68,"Duration":372647,"SoundDuration":372647,"Delta":279534196},{"NoteNumber":60,"Velocity":57,"Duration":372647,"SoundDuration":372647,"Delta":279534196},{"NoteNumber":54,"Velocity":40,"Duration":92385,"SoundDuration":92385,"Delta":279534196},{"NoteNumber":56,"Velocity":34,"Duration":92385,"SoundDuration":92385,"Delta":279627358},{"NoteNumber":51,"Velocity":49,"Duration":92385,"SoundDuration":92385,"Delta":279720520},{"NoteNumber":56,"Velocity":35,"Duration":92385,"SoundDuration":92385,"Delta":279813682},{"NoteNumber":60,"Velocity":58,"Duration":89960,"SoundDuration":89960,"Delta":279906844},{"NoteNumber":72,"Velocity":69,"Duration":89960,"SoundDuration":89960,"Delta":279906844},{"NoteNumber":54,"Velocity":41,"Duration":89210,"SoundDuration":89210,"Delta":279906844},{"NoteNumber":56,"Velocity":35,"Duration":89210,"SoundDuration":89210,"Delta":279996805},{"NoteNumber":80,"Velocity":71,"Duration":89960,"SoundDuration":89960,"Delta":280086765},{"NoteNumber":68,"Velocity":60,"Duration":89960,"SoundDuration":89960,"Delta":280086765},{"NoteNumber":51,"Velocity":50,"Duration":104953,"SoundDuration":104953,"Delta":280086765},{"NoteNumber":56,"Velocity":40,"Duration":104953,"SoundDuration":104953,"Delta":280176726},{"NoteNumber":72,"Velocity":69,"Duration":89960,"SoundDuration":89960,"Delta":280266686},{"NoteNumber":60,"Velocity":58,"Duration":89960,"SoundDuration":89960,"Delta":280266686},{"NoteNumber":54,"Velocity":45,"Duration":104953,"SoundDuration":104953,"Delta":280266686},{"NoteNumber":56,"Velocity":42,"Duration":104953,"SoundDuration":104953,"Delta":280356647},{"NoteNumber":75,"Velocity":74,"Duration":89960,"SoundDuration":89960,"Delta":280446607},{"NoteNumber":63,"Velocity":62,"Duration":89960,"SoundDuration":89960,"Delta":280446607},{"NoteNumber":52,"Velocity":51,"Duration":104953,"SoundDuration":104953,"Delta":280446607},{"NoteNumber":56,"Velocity":43,"Duration":105487,"SoundDuration":105487,"Delta":280536568},{"NoteNumber":61,"Velocity":63,"Duration":372648,"SoundDuration":372648,"Delta":280626528},{"NoteNumber":73,"Velocity":75,"Duration":372648,"SoundDuration":372648,"Delta":280626528},{"NoteNumber":52,"Velocity":47,"Duration":92385,"SoundDuration":92385,"Delta":280626528},{"NoteNumber":56,"Velocity":43,"Duration":92385,"SoundDuration":92385,"Delta":280719690},{"NoteNumber":52,"Velocity":52,"Duration":92385,"SoundDuration":92385,"Delta":280812852},{"NoteNumber":56,"Velocity":43,"Duration":92385,"SoundDuration":92385,"Delta":280906014},{"NoteNumber":61,"Velocity":68,"Duration":372647,"SoundDuration":372647,"Delta":280999176},{"NoteNumber":73,"Velocity":80,"Duration":372647,"SoundDuration":372647,"Delta":280999176},{"NoteNumber":52,"Velocity":48,"Duration":92385,"SoundDuration":92385,"Delta":280999176},{"NoteNumber":56,"Velocity":44,"Duration":92385,"SoundDuration":92385,"Delta":281092338},{"NoteNumber":52,"Velocity":56,"Duration":92385,"SoundDuration":92385,"Delta":281185500},{"NoteNumber":56,"Velocity":46,"Duration":92385,"SoundDuration":92385,"Delta":281278662},{"NoteNumber":73,"Velocity":75,"Duration":90804,"SoundDuration":90804,"Delta":281371824},{"NoteNumber":61,"Velocity":63,"Duration":90804,"SoundDuration":90804,"Delta":281371824},{"NoteNumber":52,"Velocity":50,"Duration":90047,"SoundDuration":90047,"Delta":281371824},{"NoteNumber":56,"Velocity":47,"Duration":90047,"SoundDuration":90047,"Delta":281462629},{"NoteNumber":80,"Velocity":85,"Duration":90804,"SoundDuration":90804,"Delta":281553433},{"NoteNumber":68,"Velocity":72,"Duration":90804,"SoundDuration":90804,"Delta":281553433},{"NoteNumber":52,"Velocity":57,"Duration":105938,"SoundDuration":105938,"Delta":281553433},{"NoteNumber":56,"Velocity":49,"Duration":105938,"SoundDuration":105938,"Delta":281644238},{"NoteNumber":73,"Velocity":86,"Duration":90804,"SoundDuration":90804,"Delta":281735042},{"NoteNumber":61,"Velocity":73,"Duration":90804,"SoundDuration":90804,"Delta":281735042},{"NoteNumber":52,"Velocity":51,"Duration":105938,"SoundDuration":105938,"Delta":281735042},{"NoteNumber":56,"Velocity":48,"Duration":105938,"SoundDuration":105938,"Delta":281825847},{"NoteNumber":64,"Velocity":73,"Duration":90804,"SoundDuration":90804,"Delta":281916651},{"NoteNumber":76,"Velocity":86,"Duration":90804,"SoundDuration":90804,"Delta":281916651},{"NoteNumber":48,"Velocity":59,"Duration":105938,"SoundDuration":105938,"Delta":281916651},{"NoteNumber":56,"Velocity":53,"Duration":106181,"SoundDuration":106181,"Delta":282007456},{"NoteNumber":63,"Velocity":72,"Duration":369049,"SoundDuration":369049,"Delta":282098260},{"NoteNumber":75,"Velocity":85,"Duration":369049,"SoundDuration":369049,"Delta":282098260},{"NoteNumber":48,"Velocity":56,"Duration":91493,"SoundDuration":91493,"Delta":282098260},{"NoteNumber":56,"Velocity":52,"Duration":91493,"SoundDuration":91493,"Delta":282190523},{"NoteNumber":48,"Velocity":60,"Duration":91493,"SoundDuration":91493,"Delta":282282785},{"NoteNumber":56,"Velocity":52,"Duration":91493,"SoundDuration":91493,"Delta":282375047},{"NoteNumber":75,"Velocity":93,"Duration":369048,"SoundDuration":369048,"Delta":282467309},{"NoteNumber":63,"Velocity":79,"Duration":369048,"SoundDuration":369048,"Delta":282467309},{"NoteNumber":48,"Velocity":57,"Duration":91493,"SoundDuration":91493,"Delta":282467309},{"NoteNumber":56,"Velocity":52,"Duration":91493,"SoundDuration":91493,"Delta":282559572},{"NoteNumber":48,"Velocity":62,"Duration":91493,"SoundDuration":91493,"Delta":282651834},{"NoteNumber":56,"Velocity":52,"Duration":91493,"SoundDuration":91493,"Delta":282744096},{"NoteNumber":63,"Velocity":75,"Duration":92262,"SoundDuration":92262,"Delta":282836358},{"NoteNumber":75,"Velocity":90,"Duration":92262,"SoundDuration":92262,"Delta":282836358},{"NoteNumber":48,"Velocity":59,"Duration":91493,"SoundDuration":91493,"Delta":282836358},{"NoteNumber":56,"Velocity":53,"Duration":91493,"SoundDuration":91493,"Delta":282928621},{"NoteNumber":68,"Velocity":79,"Duration":92262,"SoundDuration":92262,"Delta":283020883},{"NoteNumber":80,"Velocity":93,"Duration":92262,"SoundDuration":92262,"Delta":283020883},{"NoteNumber":48,"Velocity":62,"Duration":107639,"SoundDuration":107639,"Delta":283020883},{"NoteNumber":56,"Velocity":53,"Duration":107639,"SoundDuration":107639,"Delta":283113145},{"NoteNumber":75,"Velocity":90,"Duration":92262,"SoundDuration":92262,"Delta":283205407},{"NoteNumber":63,"Velocity":75,"Duration":92262,"SoundDuration":92262,"Delta":283205407},{"NoteNumber":48,"Velocity":60,"Duration":107639,"SoundDuration":107639,"Delta":283205407},{"NoteNumber":56,"Velocity":54,"Duration":107255,"SoundDuration":107255,"Delta":283297670},{"NoteNumber":65,"Velocity":80,"Duration":719683,"SoundDuration":719683,"Delta":283389932},{"NoteNumber":77,"Velocity":95,"Duration":719683,"SoundDuration":719683,"Delta":283389932},{"NoteNumber":47,"Velocity":66,"Duration":104953,"SoundDuration":104953,"Delta":283389932},{"NoteNumber":56,"Velocity":56,"Duration":104953,"SoundDuration":104953,"Delta":283479892},{"NoteNumber":49,"Velocity":61,"Duration":104953,"SoundDuration":104953,"Delta":283569853},{"NoteNumber":56,"Velocity":56,"Duration":104953,"SoundDuration":104953,"Delta":283659813},{"NoteNumber":47,"Velocity":66,"Duration":104953,"SoundDuration":104953,"Delta":283749774},{"NoteNumber":56,"Velocity":56,"Duration":104953,"SoundDuration":104953,"Delta":283839734},{"NoteNumber":49,"Velocity":61,"Duration":104953,"SoundDuration":104953,"Delta":283929695},{"NoteNumber":56,"Velocity":56,"Duration":104953,"SoundDuration":104953,"Delta":284019655},{"NoteNumber":66,"Velocity":80,"Duration":719684,"SoundDuration":719684,"Delta":284109616},{"NoteNumber":78,"Velocity":95,"Duration":719684,"SoundDuration":719684,"Delta":284109616},{"NoteNumber":45,"Velocity":66,"Duration":104953,"SoundDuration":104953,"Delta":284109616},{"NoteNumber":54,"Velocity":56,"Duration":104953,"SoundDuration":104953,"Delta":284199576},{"NoteNumber":49,"Velocity":62,"Duration":104953,"SoundDuration":104953,"Delta":284289537},{"NoteNumber":54,"Velocity":57,"Duration":104953,"SoundDuration":104953,"Delta":284379497},{"NoteNumber":45,"Velocity":66,"Duration":104953,"SoundDuration":104953,"Delta":284469458},{"NoteNumber":54,"Velocity":56,"Duration":104953,"SoundDuration":104953,"Delta":284559418},{"NoteNumber":49,"Velocity":61,"Duration":104953,"SoundDuration":104953,"Delta":284649379},{"NoteNumber":54,"Velocity":56,"Duration":105537,"SoundDuration":105537,"Delta":284739339},{"NoteNumber":63,"Velocity":67,"Duration":373854,"SoundDuration":373854,"Delta":284829300},{"NoteNumber":75,"Velocity":80,"Duration":50626,"SoundDuration":50626,"Delta":284829300},{"NoteNumber":45,"Velocity":66,"Duration":92684,"SoundDuration":92684,"Delta":284829300},{"NoteNumber":76,"Velocity":75,"Duration":50626,"SoundDuration":50626,"Delta":284879926},{"NoteNumber":54,"Velocity":56,"Duration":92684,"SoundDuration":92684,"Delta":284922764},{"NoteNumber":75,"Velocity":80,"Duration":50626,"SoundDuration":50626,"Delta":284929773},{"NoteNumber":76,"Velocity":80,"Duration":50626,"SoundDuration":50626,"Delta":284980400},{"NoteNumber":47,"Velocity":61,"Duration":92684,"SoundDuration":92684,"Delta":285016227},{"NoteNumber":75,"Velocity":80,"Duration":60751,"SoundDuration":60751,"Delta":285043488},{"NoteNumber":73,"Velocity":75,"Duration":60751,"SoundDuration":60751,"Delta":285099566},{"NoteNumber":54,"Velocity":56,"Duration":92684,"SoundDuration":92684,"Delta":285109691},{"NoteNumber":75,"Velocity":75,"Duration":52183,"SoundDuration":52183,"Delta":285150971},{"NoteNumber":76,"Velocity":95,"Duration":1079525,"SoundDuration":1079525,"Delta":285203155},{"NoteNumber":64,"Velocity":80,"Duration":1079525,"SoundDuration":1079525,"Delta":285203155},{"NoteNumber":44,"Velocity":66,"Duration":104953,"SoundDuration":104953,"Delta":285203155},{"NoteNumber":52,"Velocity":56,"Duration":104953,"SoundDuration":104953,"Delta":285293115},{"NoteNumber":47,"Velocity":62,"Duration":104953,"SoundDuration":104953,"Delta":285383076},{"NoteNumber":52,"Velocity":56,"Duration":104953,"SoundDuration":104953,"Delta":285473036},{"NoteNumber":44,"Velocity":66,"Duration":104953,"SoundDuration":104953,"Delta":285562997},{"NoteNumber":52,"Velocity":56,"Duration":104953,"SoundDuration":104953,"Delta":285652957},{"NoteNumber":47,"Velocity":61,"Duration":104953,"SoundDuration":104953,"Delta":285742918},{"NoteNumber":52,"Velocity":56,"Duration":104953,"SoundDuration":104953,"Delta":285832878},{"NoteNumber":44,"Velocity":66,"Duration":104953,"SoundDuration":104953,"Delta":285922839},{"NoteNumber":52,"Velocity":54,"Duration":104953,"SoundDuration":104953,"Delta":286012799},{"NoteNumber":47,"Velocity":60,"Duration":104953,"SoundDuration":104953,"Delta":286102760},{"NoteNumber":52,"Velocity":56,"Duration":105239,"SoundDuration":105239,"Delta":286192720},{"NoteNumber":73,"Velocity":95,"Duration":733406,"SoundDuration":733406,"Delta":286282681},{"NoteNumber":61,"Velocity":80,"Duration":733406,"SoundDuration":733406,"Delta":286282681},{"NoteNumber":43,"Velocity":66,"Duration":106955,"SoundDuration":106955,"Delta":286282681},{"NoteNumber":52,"Velocity":58,"Duration":106955,"SoundDuration":106955,"Delta":286374357},{"NoteNumber":45,"Velocity":62,"Duration":106955,"SoundDuration":106955,"Delta":286466032},{"NoteNumber":52,"Velocity":58,"Duration":106955,"SoundDuration":106955,"Delta":286557708},{"NoteNumber":43,"Velocity":66,"Duration":106955,"SoundDuration":106955,"Delta":286649384},{"NoteNumber":52,"Velocity":57,"Duration":106955,"SoundDuration":106955,"Delta":286741060},{"NoteNumber":45,"Velocity":62,"Duration":106955,"SoundDuration":106955,"Delta":286832735},{"NoteNumber":52,"Velocity":58,"Duration":106858,"SoundDuration":106858,"Delta":286924411},{"NoteNumber":62,"Velocity":80,"Duration":728773,"SoundDuration":728773,"Delta":287016087},{"NoteNumber":74,"Velocity":94,"Duration":728773,"SoundDuration":728773,"Delta":287016087},{"NoteNumber":42,"Velocity":66,"Duration":106279,"SoundDuration":106279,"Delta":287016087},{"NoteNumber":50,"Velocity":54,"Duration":106279,"SoundDuration":106279,"Delta":287107184},{"NoteNumber":45,"Velocity":62,"Duration":106279,"SoundDuration":106279,"Delta":287198280},{"NoteNumber":50,"Velocity":56,"Duration":106279,"SoundDuration":106279,"Delta":287289377},{"NoteNumber":42,"Velocity":66,"Duration":106279,"SoundDuration":106279,"Delta":287380474},{"NoteNumber":50,"Velocity":54,"Duration":106279,"SoundDuration":106279,"Delta":287471571},{"NoteNumber":45,"Velocity":62,"Duration":106279,"SoundDuration":106279,"Delta":287562667},{"NoteNumber":50,"Velocity":54,"Duration":106523,"SoundDuration":106523,"Delta":287653764},{"NoteNumber":60,"Velocity":67,"Duration":370232,"SoundDuration":370232,"Delta":287744861},{"NoteNumber":72,"Velocity":80,"Duration":50135,"SoundDuration":50135,"Delta":287744861},{"NoteNumber":42,"Velocity":66,"Duration":91786,"SoundDuration":91786,"Delta":287744861},{"NoteNumber":73,"Velocity":75,"Duration":50135,"SoundDuration":50135,"Delta":287794997},{"NoteNumber":51,"Velocity":56,"Duration":91786,"SoundDuration":91786,"Delta":287837419},{"NoteNumber":72,"Velocity":80,"Duration":50135,"SoundDuration":50135,"Delta":287844361},{"NoteNumber":73,"Velocity":80,"Duration":50135,"SoundDuration":50135,"Delta":287894497},{"NoteNumber":44,"Velocity":60,"Duration":91786,"SoundDuration":91786,"Delta":287929977},{"NoteNumber":72,"Velocity":80,"Duration":60162,"SoundDuration":60162,"Delta":287956973},{"NoteNumber":70,"Velocity":75,"Duration":60162,"SoundDuration":60162,"Delta":288012508},{"NoteNumber":51,"Velocity":60,"Duration":91786,"SoundDuration":91786,"Delta":288022536},{"NoteNumber":72,"Velocity":75,"Duration":51678,"SoundDuration":51678,"Delta":288063415},{"NoteNumber":61,"Velocity":80,"Duration":1079525,"SoundDuration":1079525,"Delta":288115094},{"NoteNumber":73,"Velocity":95,"Duration":1079525,"SoundDuration":1079525,"Delta":288115094},{"NoteNumber":40,"Velocity":66,"Duration":104953,"SoundDuration":104953,"Delta":288115094},{"NoteNumber":49,"Velocity":56,"Duration":104953,"SoundDuration":104953,"Delta":288205054},{"NoteNumber":44,"Velocity":61,"Duration":104953,"SoundDuration":104953,"Delta":288295015},{"NoteNumber":49,"Velocity":57,"Duration":104953,"SoundDuration":104953,"Delta":288384975},{"NoteNumber":40,"Velocity":66,"Duration":104953,"SoundDuration":104953,"Delta":288474936},{"NoteNumber":49,"Velocity":56,"Duration":104953,"SoundDuration":104953,"Delta":288564896},{"NoteNumber":44,"Velocity":61,"Duration":104953,"SoundDuration":104953,"Delta":288654857},{"NoteNumber":49,"Velocity":56,"Duration":104953,"SoundDuration":104953,"Delta":288744817},{"NoteNumber":40,"Velocity":66,"Duration":104953,"SoundDuration":104953,"Delta":288834778},{"NoteNumber":49,"Velocity":56,"Duration":104953,"SoundDuration":104953,"Delta":288924738},{"NoteNumber":44,"Velocity":61,"Duration":104953,"SoundDuration":104953,"Delta":289014699},{"NoteNumber":49,"Velocity":61,"Duration":104953,"SoundDuration":104953,"Delta":289104659},{"NoteNumber":66,"Velocity":83,"Duration":809644,"SoundDuration":809644,"Delta":289194620},{"NoteNumber":69,"Velocity":100,"Duration":809644,"SoundDuration":809644,"Delta":289194620},{"NoteNumber":74,"Velocity":100,"Duration":809644,"SoundDuration":809644,"Delta":289194620},{"NoteNumber":62,"Velocity":83,"Duration":809644,"SoundDuration":809644,"Delta":289194620},{"NoteNumber":45,"Velocity":64,"Duration":1079525,"SoundDuration":1079525,"Delta":289194620},{"NoteNumber":54,"Velocity":75,"Duration":1079525,"SoundDuration":1079525,"Delta":289194620},{"NoteNumber":50,"Velocity":75,"Duration":1079525,"SoundDuration":1079525,"Delta":289194620},{"NoteNumber":42,"Velocity":64,"Duration":1079525,"SoundDuration":1079525,"Delta":289194620},{"NoteNumber":69,"Velocity":48,"Duration":89960,"SoundDuration":89960,"Delta":290004264},{"NoteNumber":71,"Velocity":48,"Duration":89960,"SoundDuration":89960,"Delta":290094225},{"NoteNumber":73,"Velocity":49,"Duration":89960,"SoundDuration":89960,"Delta":290184185},{"NoteNumber":74,"Velocity":50,"Duration":89960,"SoundDuration":89960,"Delta":290274146},{"NoteNumber":76,"Velocity":51,"Duration":89960,"SoundDuration":89960,"Delta":290364106},{"NoteNumber":78,"Velocity":51,"Duration":89960,"SoundDuration":89960,"Delta":290454067},{"NoteNumber":76,"Velocity":49,"Duration":89960,"SoundDuration":89960,"Delta":290544027},{"NoteNumber":74,"Velocity":49,"Duration":89960,"SoundDuration":89960,"Delta":290633988},{"NoteNumber":54,"Velocity":42,"Duration":359842,"SoundDuration":359842,"Delta":290633988},{"NoteNumber":62,"Velocity":50,"Duration":356843,"SoundDuration":356843,"Delta":290633988},{"NoteNumber":57,"Velocity":42,"Duration":359842,"SoundDuration":359842,"Delta":290633988},{"NoteNumber":69,"Velocity":47,"Duration":89960,"SoundDuration":89960,"Delta":290723948},{"NoteNumber":71,"Velocity":48,"Duration":89960,"SoundDuration":89960,"Delta":290813909},{"NoteNumber":73,"Velocity":49,"Duration":89960,"SoundDuration":89960,"Delta":290903869},{"NoteNumber":74,"Velocity":50,"Duration":89960,"SoundDuration":89960,"Delta":290993830},{"NoteNumber":76,"Velocity":51,"Duration":89960,"SoundDuration":89960,"Delta":291083790},{"NoteNumber":78,"Velocity":51,"Duration":89960,"SoundDuration":89960,"Delta":291173751},{"NoteNumber":76,"Velocity":50,"Duration":89960,"SoundDuration":89960,"Delta":291263711},{"NoteNumber":74,"Velocity":48,"Duration":89960,"SoundDuration":89960,"Delta":291353672},{"NoteNumber":57,"Velocity":41,"Duration":359841,"SoundDuration":359841,"Delta":291353672},{"NoteNumber":62,"Velocity":49,"Duration":359841,"SoundDuration":359841,"Delta":291353672},{"NoteNumber":54,"Velocity":41,"Duration":359841,"SoundDuration":359841,"Delta":291353672},{"NoteNumber":69,"Velocity":48,"Duration":89960,"SoundDuration":89960,"Delta":291443632},{"NoteNumber":71,"Velocity":50,"Duration":89960,"SoundDuration":89960,"Delta":291533593},{"NoteNumber":73,"Velocity":51,"Duration":89960,"SoundDuration":89960,"Delta":291623553},{"NoteNumber":74,"Velocity":51,"Duration":89960,"SoundDuration":89960,"Delta":291713514},{"NoteNumber":76,"Velocity":52,"Duration":89960,"SoundDuration":89960,"Delta":291803474},{"NoteNumber":78,"Velocity":52,"Duration":89960,"SoundDuration":89960,"Delta":291893435},{"NoteNumber":76,"Velocity":51,"Duration":89960,"SoundDuration":89960,"Delta":291983395},{"NoteNumber":74,"Velocity":47,"Duration":89960,"SoundDuration":89960,"Delta":292073356},{"NoteNumber":54,"Velocity":41,"Duration":359842,"SoundDuration":359842,"Delta":292073356},{"NoteNumber":57,"Velocity":41,"Duration":359842,"SoundDuration":359842,"Delta":292073356},{"NoteNumber":62,"Velocity":49,"Duration":359842,"SoundDuration":359842,"Delta":292073356},{"NoteNumber":69,"Velocity":48,"Duration":89960,"SoundDuration":89960,"Delta":292163316},{"NoteNumber":71,"Velocity":51,"Duration":89960,"SoundDuration":89960,"Delta":292253277},{"NoteNumber":73,"Velocity":51,"Duration":89960,"SoundDuration":89960,"Delta":292343237},{"NoteNumber":74,"Velocity":54,"Duration":89960,"SoundDuration":89960,"Delta":292433198},{"NoteNumber":62,"Velocity":52,"Duration":359842,"SoundDuration":359842,"Delta":292433198},{"NoteNumber":57,"Velocity":44,"Duration":359842,"SoundDuration":359842,"Delta":292433198},{"NoteNumber":54,"Velocity":44,"Duration":359842,"SoundDuration":359842,"Delta":292433198},{"NoteNumber":76,"Velocity":56,"Duration":89960,"SoundDuration":89960,"Delta":292523158},{"NoteNumber":78,"Velocity":57,"Duration":89960,"SoundDuration":89960,"Delta":292613119},{"NoteNumber":79,"Velocity":60,"Duration":89960,"SoundDuration":89960,"Delta":292703079},{"NoteNumber":81,"Velocity":61,"Duration":89960,"SoundDuration":89960,"Delta":292793040},{"NoteNumber":54,"Velocity":51,"Duration":359841,"SoundDuration":359841,"Delta":292793040},{"NoteNumber":62,"Velocity":60,"Duration":359841,"SoundDuration":359841,"Delta":292793040},{"NoteNumber":57,"Velocity":51,"Duration":359841,"SoundDuration":359841,"Delta":292793040},{"NoteNumber":80,"Velocity":59,"Duration":89960,"SoundDuration":89960,"Delta":292883000},{"NoteNumber":83,"Velocity":57,"Duration":89960,"SoundDuration":89960,"Delta":292972961},{"NoteNumber":81,"Velocity":56,"Duration":89960,"SoundDuration":89960,"Delta":293062921},{"NoteNumber":79,"Velocity":54,"Duration":89960,"SoundDuration":89960,"Delta":293152882},{"NoteNumber":54,"Velocity":47,"Duration":359842,"SoundDuration":359842,"Delta":293152882},{"NoteNumber":62,"Velocity":56,"Duration":359842,"SoundDuration":359842,"Delta":293152882},{"NoteNumber":57,"Velocity":47,"Duration":359842,"SoundDuration":359842,"Delta":293152882},{"NoteNumber":78,"Velocity":52,"Duration":89960,"SoundDuration":89960,"Delta":293242842},{"NoteNumber":76,"Velocity":51,"Duration":89960,"SoundDuration":89960,"Delta":293332803},{"NoteNumber":74,"Velocity":50,"Duration":89960,"SoundDuration":89960,"Delta":293422763},{"NoteNumber":73,"Velocity":48,"Duration":719684,"SoundDuration":719684,"Delta":293512724},{"NoteNumber":56,"Velocity":49,"Duration":104953,"SoundDuration":104953,"Delta":293512724},{"NoteNumber":64,"Velocity":44,"Duration":104953,"SoundDuration":104953,"Delta":293602684},{"NoteNumber":61,"Velocity":47,"Duration":104953,"SoundDuration":104953,"Delta":293692645},{"NoteNumber":64,"Velocity":43,"Duration":104953,"SoundDuration":104953,"Delta":293782605},{"NoteNumber":56,"Velocity":51,"Duration":104953,"SoundDuration":104953,"Delta":293872566},{"NoteNumber":64,"Velocity":43,"Duration":104953,"SoundDuration":104953,"Delta":293962526},{"NoteNumber":61,"Velocity":47,"Duration":104953,"SoundDuration":104953,"Delta":294052487},{"NoteNumber":64,"Velocity":42,"Duration":105143,"SoundDuration":105143,"Delta":294142447},{"NoteNumber":75,"Velocity":50,"Duration":60731,"SoundDuration":60731,"Delta":294232408},{"NoteNumber":56,"Velocity":51,"Duration":90337,"SoundDuration":90337,"Delta":294232408},{"NoteNumber":76,"Velocity":50,"Duration":60731,"SoundDuration":60731,"Delta":294293139},{"NoteNumber":66,"Velocity":43,"Duration":90337,"SoundDuration":90337,"Delta":294323505},{"NoteNumber":75,"Velocity":50,"Duration":56935,"SoundDuration":56935,"Delta":294353870},{"NoteNumber":76,"Velocity":50,"Duration":56935,"SoundDuration":56935,"Delta":294410806},{"NoteNumber":60,"Velocity":47,"Duration":90337,"SoundDuration":90337,"Delta":294414601},{"NoteNumber":75,"Velocity":50,"Duration":56935,"SoundDuration":56935,"Delta":294467741},{"NoteNumber":66,"Velocity":43,"Duration":90337,"SoundDuration":90337,"Delta":294505698},{"NoteNumber":76,"Velocity":50,"Duration":56935,"SoundDuration":56935,"Delta":294524677},{"NoteNumber":75,"Velocity":49,"Duration":53139,"SoundDuration":53139,"Delta":294581612},{"NoteNumber":56,"Velocity":51,"Duration":90337,"SoundDuration":90337,"Delta":294596795},{"NoteNumber":76,"Velocity":49,"Duration":53139,"SoundDuration":53139,"Delta":294634752},{"NoteNumber":75,"Velocity":50,"Duration":45548,"SoundDuration":45548,"Delta":294687892},{"NoteNumber":66,"Velocity":44,"Duration":90337,"SoundDuration":90337,"Delta":294687892},{"NoteNumber":76,"Velocity":51,"Duration":45548,"SoundDuration":45548,"Delta":294733440},{"NoteNumber":75,"Velocity":51,"Duration":60731,"SoundDuration":60731,"Delta":294778988},{"NoteNumber":60,"Velocity":47,"Duration":90337,"SoundDuration":90337,"Delta":294778988},{"NoteNumber":73,"Velocity":51,"Duration":60731,"SoundDuration":60731,"Delta":294839719},{"NoteNumber":66,"Velocity":42,"Duration":90337,"SoundDuration":90337,"Delta":294870085},{"NoteNumber":75,"Velocity":52,"Duration":60731,"SoundDuration":60731,"Delta":294900451},{"NoteNumber":73,"Velocity":56,"Duration":216450,"SoundDuration":216450,"Delta":294961182},{"NoteNumber":64,"Velocity":56,"Duration":216450,"SoundDuration":216450,"Delta":294961182},{"NoteNumber":61,"Velocity":56,"Duration":216450,"SoundDuration":216450,"Delta":294961182},{"NoteNumber":57,"Velocity":56,"Duration":216450,"SoundDuration":216450,"Delta":294961182},{"NoteNumber":62,"Velocity":87,"Duration":449802,"SoundDuration":449802,"Delta":295394082},{"NoteNumber":54,"Velocity":73,"Duration":449802,"SoundDuration":449802,"Delta":295394082},{"NoteNumber":57,"Velocity":87,"Duration":449802,"SoundDuration":449802,"Delta":295394082},{"NoteNumber":50,"Velocity":73,"Duration":449802,"SoundDuration":449802,"Delta":295394082},{"NoteNumber":30,"Velocity":67,"Duration":719683,"SoundDuration":719683,"Delta":295394082},{"NoteNumber":33,"Velocity":67,"Duration":719683,"SoundDuration":719683,"Delta":295394082},{"NoteNumber":38,"Velocity":80,"Duration":719683,"SoundDuration":719683,"Delta":295394082},{"NoteNumber":42,"Velocity":80,"Duration":719683,"SoundDuration":719683,"Delta":295394082},{"NoteNumber":57,"Velocity":48,"Duration":89960,"SoundDuration":89960,"Delta":295843884},{"NoteNumber":59,"Velocity":48,"Duration":89960,"SoundDuration":89960,"Delta":295933845},{"NoteNumber":61,"Velocity":49,"Duration":89960,"SoundDuration":89960,"Delta":296023805},{"NoteNumber":62,"Velocity":50,"Duration":89960,"SoundDuration":89960,"Delta":296113766},{"NoteNumber":64,"Velocity":51,"Duration":89960,"SoundDuration":89960,"Delta":296203726},{"NoteNumber":66,"Velocity":51,"Duration":89960,"SoundDuration":89960,"Delta":296293687},{"NoteNumber":64,"Velocity":51,"Duration":89960,"SoundDuration":89960,"Delta":296383647},{"NoteNumber":62,"Velocity":48,"Duration":89960,"SoundDuration":89960,"Delta":296473608},{"NoteNumber":57,"Velocity":47,"Duration":89960,"SoundDuration":89960,"Delta":296563568},{"NoteNumber":59,"Velocity":48,"Duration":89960,"SoundDuration":89960,"Delta":296653529},{"NoteNumber":61,"Velocity":48,"Duration":89960,"SoundDuration":89960,"Delta":296743489},{"NoteNumber":62,"Velocity":49,"Duration":89960,"SoundDuration":89960,"Delta":296833450},{"NoteNumber":50,"Velocity":49,"Duration":359842,"SoundDuration":359842,"Delta":296833450},{"NoteNumber":45,"Velocity":41,"Duration":359842,"SoundDuration":359842,"Delta":296833450},{"NoteNumber":42,"Velocity":41,"Duration":359842,"SoundDuration":359842,"Delta":296833450},{"NoteNumber":64,"Velocity":50,"Duration":89960,"SoundDuration":89960,"Delta":296923410},{"NoteNumber":66,"Velocity":51,"Duration":89960,"SoundDuration":89960,"Delta":297013371},{"NoteNumber":64,"Velocity":48,"Duration":89960,"SoundDuration":89960,"Delta":297103331},{"NoteNumber":62,"Velocity":48,"Duration":89960,"SoundDuration":89960,"Delta":297193292},{"NoteNumber":57,"Velocity":48,"Duration":89960,"SoundDuration":89960,"Delta":297283252},{"NoteNumber":59,"Velocity":48,"Duration":89960,"SoundDuration":89960,"Delta":297373213},{"NoteNumber":61,"Velocity":50,"Duration":89960,"SoundDuration":89960,"Delta":297463173},{"NoteNumber":62,"Velocity":50,"Duration":89960,"SoundDuration":89960,"Delta":297553134},{"NoteNumber":50,"Velocity":49,"Duration":359842,"SoundDuration":359842,"Delta":297553134},{"NoteNumber":42,"Velocity":41,"Duration":359842,"SoundDuration":359842,"Delta":297553134},{"NoteNumber":45,"Velocity":41,"Duration":359842,"SoundDuration":359842,"Delta":297553134},{"NoteNumber":64,"Velocity":50,"Duration":89960,"SoundDuration":89960,"Delta":297643094},{"NoteNumber":66,"Velocity":50,"Duration":89960,"SoundDuration":89960,"Delta":297733055},{"NoteNumber":64,"Velocity":50,"Duration":89960,"SoundDuration":89960,"Delta":297823015},{"NoteNumber":62,"Velocity":49,"Duration":89960,"SoundDuration":89960,"Delta":297912976},{"NoteNumber":57,"Velocity":51,"Duration":89960,"SoundDuration":89960,"Delta":298002936},{"NoteNumber":59,"Velocity":51,"Duration":89960,"SoundDuration":89960,"Delta":298092897},{"NoteNumber":50,"Velocity":51,"Duration":179920,"SoundDuration":179920,"Delta":298092897},{"NoteNumber":45,"Velocity":43,"Duration":179920,"SoundDuration":179920,"Delta":298092897},{"NoteNumber":42,"Velocity":43,"Duration":179920,"SoundDuration":179920,"Delta":298092897},{"NoteNumber":61,"Velocity":53,"Duration":89960,"SoundDuration":89960,"Delta":298182857},{"NoteNumber":62,"Velocity":56,"Duration":89960,"SoundDuration":89960,"Delta":298272818},{"NoteNumber":64,"Velocity":56,"Duration":89960,"SoundDuration":89960,"Delta":298362778},{"NoteNumber":66,"Velocity":57,"Duration":89960,"SoundDuration":89960,"Delta":298452739},{"NoteNumber":50,"Velocity":61,"Duration":179921,"SoundDuration":179921,"Delta":298452739},{"NoteNumber":45,"Velocity":51,"Duration":179921,"SoundDuration":179921,"Delta":298452739},{"NoteNumber":42,"Velocity":51,"Duration":179921,"SoundDuration":179921,"Delta":298452739},{"NoteNumber":67,"Velocity":59,"Duration":89960,"SoundDuration":89960,"Delta":298542699},{"NoteNumber":69,"Velocity":61,"Duration":89960,"SoundDuration":89960,"Delta":298632660},{"NoteNumber":71,"Velocity":62,"Duration":89960,"SoundDuration":89960,"Delta":298722620},{"NoteNumber":73,"Velocity":63,"Duration":89960,"SoundDuration":89960,"Delta":298812581},{"NoteNumber":45,"Velocity":57,"Duration":179920,"SoundDuration":179920,"Delta":298812581},{"NoteNumber":50,"Velocity":68,"Duration":179920,"SoundDuration":179920,"Delta":298812581},{"NoteNumber":42,"Velocity":57,"Duration":179920,"SoundDuration":179920,"Delta":298812581},{"NoteNumber":74,"Velocity":66,"Duration":89960,"SoundDuration":89960,"Delta":298902541},{"NoteNumber":76,"Velocity":68,"Duration":89960,"SoundDuration":89960,"Delta":298992502},{"NoteNumber":78,"Velocity":68,"Duration":89960,"SoundDuration":89960,"Delta":299082462},{"NoteNumber":79,"Velocity":70,"Duration":89960,"SoundDuration":89960,"Delta":299172423},{"NoteNumber":42,"Velocity":57,"Duration":179920,"SoundDuration":179920,"Delta":299172423},{"NoteNumber":50,"Velocity":68,"Duration":179920,"SoundDuration":179920,"Delta":299172423},{"NoteNumber":45,"Velocity":57,"Duration":179920,"SoundDuration":179920,"Delta":299172423},{"NoteNumber":80,"Velocity":72,"Duration":89960,"SoundDuration":89960,"Delta":299262383},{"NoteNumber":81,"Velocity":79,"Duration":719684,"SoundDuration":719684,"Delta":299352344},{"NoteNumber":69,"Velocity":67,"Duration":719684,"SoundDuration":719684,"Delta":299352344},{"NoteNumber":42,"Velocity":66,"Duration":89210,"SoundDuration":89210,"Delta":299352344},{"NoteNumber":50,"Velocity":56,"Duration":89210,"SoundDuration":89210,"Delta":299442304},{"NoteNumber":45,"Velocity":62,"Duration":89210,"SoundDuration":89210,"Delta":299532265},{"NoteNumber":50,"Velocity":56,"Duration":89210,"SoundDuration":89210,"Delta":299622225},{"NoteNumber":42,"Velocity":66,"Duration":89210,"SoundDuration":89210,"Delta":299712186},{"NoteNumber":50,"Velocity":56,"Duration":89210,"SoundDuration":89210,"Delta":299802146},{"NoteNumber":45,"Velocity":61,"Duration":89210,"SoundDuration":89210,"Delta":299892107},{"NoteNumber":50,"Velocity":54,"Duration":89210,"SoundDuration":89210,"Delta":299982067},{"NoteNumber":73,"Velocity":77,"Duration":719683,"SoundDuration":719683,"Delta":300072028},{"NoteNumber":61,"Velocity":65,"Duration":719683,"SoundDuration":719683,"Delta":300072028},{"NoteNumber":43,"Velocity":66,"Duration":89210,"SoundDuration":89210,"Delta":300072028},{"NoteNumber":52,"Velocity":56,"Duration":89210,"SoundDuration":89210,"Delta":300161988},{"NoteNumber":46,"Velocity":62,"Duration":89210,"SoundDuration":89210,"Delta":300251949},{"NoteNumber":52,"Velocity":56,"Duration":89210,"SoundDuration":89210,"Delta":300341909},{"NoteNumber":43,"Velocity":66,"Duration":89210,"SoundDuration":89210,"Delta":300431870},{"NoteNumber":52,"Velocity":54,"Duration":89210,"SoundDuration":89210,"Delta":300521830},{"NoteNumber":46,"Velocity":60,"Duration":89210,"SoundDuration":89210,"Delta":300611791},{"NoteNumber":52,"Velocity":54,"Duration":89210,"SoundDuration":89210,"Delta":300701751},{"NoteNumber":64,"Velocity":65,"Duration":719684,"SoundDuration":719684,"Delta":300791712},{"NoteNumber":76,"Velocity":77,"Duration":719684,"SoundDuration":719684,"Delta":300791712},{"NoteNumber":44,"Velocity":66,"Duration":89210,"SoundDuration":89210,"Delta":300791712},{"NoteNumber":52,"Velocity":58,"Duration":89210,"SoundDuration":89210,"Delta":300881672},{"NoteNumber":49,"Velocity":62,"Duration":89210,"SoundDuration":89210,"Delta":300971633},{"NoteNumber":52,"Velocity":56,"Duration":89210,"SoundDuration":89210,"Delta":301061593},{"NoteNumber":44,"Velocity":66,"Duration":89210,"SoundDuration":89210,"Delta":301151554},{"NoteNumber":52,"Velocity":56,"Duration":89210,"SoundDuration":89210,"Delta":301241514},{"NoteNumber":49,"Velocity":62,"Duration":89210,"SoundDuration":89210,"Delta":301331475},{"NoteNumber":52,"Velocity":57,"Duration":89210,"SoundDuration":89210,"Delta":301421435},{"NoteNumber":48,"Velocity":65,"Duration":728773,"SoundDuration":728773,"Delta":301511396},{"NoteNumber":54,"Velocity":65,"Duration":728773,"SoundDuration":728773,"Delta":301511396},{"NoteNumber":60,"Velocity":77,"Duration":728773,"SoundDuration":728773,"Delta":301511396},{"NoteNumber":32,"Velocity":66,"Duration":90337,"SoundDuration":90337,"Delta":301511396},{"NoteNumber":44,"Velocity":57,"Duration":90337,"SoundDuration":90337,"Delta":301602493},{"NoteNumber":43,"Velocity":62,"Duration":90337,"SoundDuration":90337,"Delta":301693589},{"NoteNumber":44,"Velocity":57,"Duration":90337,"SoundDuration":90337,"Delta":301784686},{"NoteNumber":43,"Velocity":66,"Duration":90337,"SoundDuration":90337,"Delta":301875783},{"NoteNumber":44,"Velocity":57,"Duration":90337,"SoundDuration":90337,"Delta":301966880},{"NoteNumber":43,"Velocity":62,"Duration":90337,"SoundDuration":90337,"Delta":302057976},{"NoteNumber":44,"Velocity":58,"Duration":90337,"SoundDuration":90337,"Delta":302149073},{"NoteNumber":37,"Velocity":59,"Duration":179920,"SoundDuration":179920,"Delta":302240170},{"NoteNumber":49,"Velocity":59,"Duration":179920,"SoundDuration":179920,"Delta":302240170},{"NoteNumber":52,"Velocity":59,"Duration":179920,"SoundDuration":179920,"Delta":302240170},{"NoteNumber":61,"Velocity":59,"Duration":179920,"SoundDuration":179920,"Delta":302240170},{"NoteNumber":64,"Velocity":48,"Duration":89960,"SoundDuration":89960,"Delta":302420091},{"NoteNumber":56,"Velocity":48,"Duration":89960,"SoundDuration":89960,"Delta":302420091},{"NoteNumber":49,"Velocity":40,"Duration":89960,"SoundDuration":89960,"Delta":302420091},{"NoteNumber":64,"Velocity":48,"Duration":91096,"SoundDuration":91096,"Delta":302600012},{"NoteNumber":56,"Velocity":48,"Duration":91096,"SoundDuration":91096,"Delta":302600012},{"NoteNumber":49,"Velocity":40,"Duration":91096,"SoundDuration":91096,"Delta":302600012},{"NoteNumber":64,"Velocity":48,"Duration":91096,"SoundDuration":91096,"Delta":302782205},{"NoteNumber":56,"Velocity":48,"Duration":91096,"SoundDuration":91096,"Delta":302782205},{"NoteNumber":49,"Velocity":40,"Duration":91096,"SoundDuration":91096,"Delta":302782205},{"NoteNumber":64,"Velocity":48,"Duration":91096,"SoundDuration":91096,"Delta":302964399},{"NoteNumber":56,"Velocity":48,"Duration":91096,"SoundDuration":91096,"Delta":302964399},{"NoteNumber":49,"Velocity":40,"Duration":91096,"SoundDuration":91096,"Delta":302964399},{"NoteNumber":64,"Velocity":48,"Duration":91096,"SoundDuration":91096,"Delta":303146592},{"NoteNumber":56,"Velocity":48,"Duration":91096,"SoundDuration":91096,"Delta":303146592},{"NoteNumber":49,"Velocity":40,"Duration":91096,"SoundDuration":91096,"Delta":303146592},{"NoteNumber":63,"Velocity":46,"Duration":91096,"SoundDuration":91096,"Delta":303328786},{"NoteNumber":56,"Velocity":46,"Duration":91096,"SoundDuration":91096,"Delta":303328786},{"NoteNumber":51,"Velocity":39,"Duration":91096,"SoundDuration":91096,"Delta":303328786},{"NoteNumber":56,"Velocity":45,"Duration":91096,"SoundDuration":91096,"Delta":303510979},{"NoteNumber":61,"Velocity":45,"Duration":91096,"SoundDuration":91096,"Delta":303510979},{"NoteNumber":52,"Velocity":39,"Duration":91096,"SoundDuration":91096,"Delta":303510979},{"NoteNumber":60,"Velocity":53,"Duration":182193,"SoundDuration":182193,"Delta":303693173},{"NoteNumber":56,"Velocity":53,"Duration":182193,"SoundDuration":182193,"Delta":303693173},{"NoteNumber":44,"Velocity":45,"Duration":182193,"SoundDuration":182193,"Delta":303693173},{"NoteNumber":54,"Velocity":45,"Duration":182193,"SoundDuration":182193,"Delta":303693173},{"NoteNumber":60,"Velocity":48,"Duration":91096,"SoundDuration":91096,"Delta":303875366},{"NoteNumber":68,"Velocity":48,"Duration":91096,"SoundDuration":91096,"Delta":303875366},{"NoteNumber":56,"Velocity":39,"Duration":91096,"SoundDuration":91096,"Delta":303875366},{"NoteNumber":54,"Velocity":39,"Duration":91096,"SoundDuration":91096,"Delta":303875366},{"NoteNumber":68,"Velocity":48,"Duration":89960,"SoundDuration":89960,"Delta":304057560},{"NoteNumber":60,"Velocity":48,"Duration":89960,"SoundDuration":89960,"Delta":304057560},{"NoteNumber":56,"Velocity":39,"Duration":89960,"SoundDuration":89960,"Delta":304057560},{"NoteNumber":54,"Velocity":39,"Duration":89960,"SoundDuration":89960,"Delta":304057560},{"NoteNumber":60,"Velocity":48,"Duration":89960,"SoundDuration":89960,"Delta":304237481},{"NoteNumber":68,"Velocity":48,"Duration":89960,"SoundDuration":89960,"Delta":304237481},{"NoteNumber":56,"Velocity":39,"Duration":89960,"SoundDuration":89960,"Delta":304237481},{"NoteNumber":54,"Velocity":39,"Duration":89960,"SoundDuration":89960,"Delta":304237481},{"NoteNumber":60,"Velocity":48,"Duration":89960,"SoundDuration":89960,"Delta":304417402},{"NoteNumber":68,"Velocity":48,"Duration":89960,"SoundDuration":89960,"Delta":304417402},{"NoteNumber":54,"Velocity":39,"Duration":89960,"SoundDuration":89960,"Delta":304417402},{"NoteNumber":56,"Velocity":39,"Duration":89960,"SoundDuration":89960,"Delta":304417402},{"NoteNumber":68,"Velocity":48,"Duration":89960,"SoundDuration":89960,"Delta":304597323},{"NoteNumber":60,"Velocity":48,"Duration":89960,"SoundDuration":89960,"Delta":304597323},{"NoteNumber":54,"Velocity":39,"Duration":89960,"SoundDuration":89960,"Delta":304597323},{"NoteNumber":56,"Velocity":39,"Duration":89960,"SoundDuration":89960,"Delta":304597323},{"NoteNumber":68,"Velocity":48,"Duration":89960,"SoundDuration":89960,"Delta":304777244},{"NoteNumber":61,"Velocity":48,"Duration":89960,"SoundDuration":89960,"Delta":304777244},{"NoteNumber":56,"Velocity":39,"Duration":89960,"SoundDuration":89960,"Delta":304777244},{"NoteNumber":52,"Velocity":39,"Duration":89960,"SoundDuration":89960,"Delta":304777244},{"NoteNumber":68,"Velocity":51,"Duration":89960,"SoundDuration":89960,"Delta":304957165},{"NoteNumber":63,"Velocity":51,"Duration":89960,"SoundDuration":89960,"Delta":304957165},{"NoteNumber":51,"Velocity":42,"Duration":89960,"SoundDuration":89960,"Delta":304957165},{"NoteNumber":56,"Velocity":42,"Duration":89960,"SoundDuration":89960,"Delta":304957165},{"NoteNumber":64,"Velocity":59,"Duration":179921,"SoundDuration":179921,"Delta":305137086},{"NoteNumber":68,"Velocity":59,"Duration":179921,"SoundDuration":179921,"Delta":305137086},{"NoteNumber":49,"Velocity":45,"Duration":179921,"SoundDuration":179921,"Delta":305137086},{"NoteNumber":37,"Velocity":45,"Duration":179921,"SoundDuration":179921,"Delta":305137086},{"NoteNumber":56,"Velocity":48,"Duration":89960,"SoundDuration":89960,"Delta":305317007},{"NoteNumber":64,"Velocity":48,"Duration":89960,"SoundDuration":89960,"Delta":305317007},{"NoteNumber":49,"Velocity":39,"Duration":89960,"SoundDuration":89960,"Delta":305317007},{"NoteNumber":64,"Velocity":48,"Duration":91096,"SoundDuration":91096,"Delta":305496928},{"NoteNumber":56,"Velocity":48,"Duration":91096,"SoundDuration":91096,"Delta":305496928},{"NoteNumber":49,"Velocity":39,"Duration":91096,"SoundDuration":91096,"Delta":305496928},{"NoteNumber":56,"Velocity":49,"Duration":91096,"SoundDuration":91096,"Delta":305679121},{"NoteNumber":64,"Velocity":49,"Duration":91096,"SoundDuration":91096,"Delta":305679121},{"NoteNumber":49,"Velocity":39,"Duration":91096,"SoundDuration":91096,"Delta":305679121},{"NoteNumber":56,"Velocity":49,"Duration":91096,"SoundDuration":91096,"Delta":305861315},{"NoteNumber":64,"Velocity":49,"Duration":91096,"SoundDuration":91096,"Delta":305861315},{"NoteNumber":49,"Velocity":39,"Duration":91096,"SoundDuration":91096,"Delta":305861315},{"NoteNumber":64,"Velocity":49,"Duration":91096,"SoundDuration":91096,"Delta":306043508},{"NoteNumber":56,"Velocity":49,"Duration":91096,"SoundDuration":91096,"Delta":306043508},{"NoteNumber":49,"Velocity":40,"Duration":91096,"SoundDuration":91096,"Delta":306043508},{"NoteNumber":56,"Velocity":47,"Duration":91096,"SoundDuration":91096,"Delta":306225702},{"NoteNumber":63,"Velocity":47,"Duration":91096,"SoundDuration":91096,"Delta":306225702},{"NoteNumber":51,"Velocity":39,"Duration":91096,"SoundDuration":91096,"Delta":306225702},{"NoteNumber":61,"Velocity":48,"Duration":91096,"SoundDuration":91096,"Delta":306407895},{"NoteNumber":56,"Velocity":48,"Duration":91096,"SoundDuration":91096,"Delta":306407895},{"NoteNumber":52,"Velocity":39,"Duration":91096,"SoundDuration":91096,"Delta":306407895},{"NoteNumber":56,"Velocity":59,"Duration":182193,"SoundDuration":182193,"Delta":306590089},{"NoteNumber":60,"Velocity":59,"Duration":182193,"SoundDuration":182193,"Delta":306590089},{"NoteNumber":54,"Velocity":47,"Duration":182193,"SoundDuration":182193,"Delta":306590089},{"NoteNumber":44,"Velocity":47,"Duration":182193,"SoundDuration":182193,"Delta":306590089},{"NoteNumber":68,"Velocity":47,"Duration":91096,"SoundDuration":91096,"Delta":306772282},{"NoteNumber":60,"Velocity":47,"Duration":91096,"SoundDuration":91096,"Delta":306772282},{"NoteNumber":56,"Velocity":39,"Duration":91096,"SoundDuration":91096,"Delta":306772282},{"NoteNumber":54,"Velocity":39,"Duration":91096,"SoundDuration":91096,"Delta":306772282},{"NoteNumber":68,"Velocity":47,"Duration":89960,"SoundDuration":89960,"Delta":306954476},{"NoteNumber":60,"Velocity":47,"Duration":89960,"SoundDuration":89960,"Delta":306954476},{"NoteNumber":54,"Velocity":39,"Duration":89960,"SoundDuration":89960,"Delta":306954476},{"NoteNumber":56,"Velocity":39,"Duration":89960,"SoundDuration":89960,"Delta":306954476},{"NoteNumber":60,"Velocity":47,"Duration":89960,"SoundDuration":89960,"Delta":307134397},{"NoteNumber":68,"Velocity":47,"Duration":89960,"SoundDuration":89960,"Delta":307134397},{"NoteNumber":54,"Velocity":39,"Duration":89960,"SoundDuration":89960,"Delta":307134397},{"NoteNumber":56,"Velocity":39,"Duration":89960,"SoundDuration":89960,"Delta":307134397},{"NoteNumber":60,"Velocity":47,"Duration":89960,"SoundDuration":89960,"Delta":307314318},{"NoteNumber":68,"Velocity":47,"Duration":89960,"SoundDuration":89960,"Delta":307314318},{"NoteNumber":54,"Velocity":39,"Duration":89960,"SoundDuration":89960,"Delta":307314318},{"NoteNumber":56,"Velocity":39,"Duration":89960,"SoundDuration":89960,"Delta":307314318},{"NoteNumber":60,"Velocity":47,"Duration":89960,"SoundDuration":89960,"Delta":307494239},{"NoteNumber":68,"Velocity":47,"Duration":89960,"SoundDuration":89960,"Delta":307494239},{"NoteNumber":54,"Velocity":39,"Duration":89960,"SoundDuration":89960,"Delta":307494239},{"NoteNumber":56,"Velocity":39,"Duration":89960,"SoundDuration":89960,"Delta":307494239},{"NoteNumber":61,"Velocity":47,"Duration":89960,"SoundDuration":89960,"Delta":307674160},{"NoteNumber":68,"Velocity":47,"Duration":89960,"SoundDuration":89960,"Delta":307674160},{"NoteNumber":52,"Velocity":41,"Duration":89960,"SoundDuration":89960,"Delta":307674160},{"NoteNumber":56,"Velocity":41,"Duration":89960,"SoundDuration":89960,"Delta":307674160},{"NoteNumber":68,"Velocity":51,"Duration":89960,"SoundDuration":89960,"Delta":307854081},{"NoteNumber":63,"Velocity":51,"Duration":89960,"SoundDuration":89960,"Delta":307854081},{"NoteNumber":51,"Velocity":43,"Duration":89960,"SoundDuration":89960,"Delta":307854081},{"NoteNumber":56,"Velocity":43,"Duration":89960,"SoundDuration":89960,"Delta":307854081},{"NoteNumber":68,"Velocity":61,"Duration":91675,"SoundDuration":91675,"Delta":308034002},{"NoteNumber":64,"Velocity":61,"Duration":91675,"SoundDuration":91675,"Delta":308034002},{"NoteNumber":49,"Velocity":47,"Duration":91675,"SoundDuration":91675,"Delta":308034002},{"NoteNumber":37,"Velocity":42,"Duration":91675,"SoundDuration":91675,"Delta":308034002},{"NoteNumber":68,"Velocity":47,"Duration":89960,"SoundDuration":89960,"Delta":308217353},{"NoteNumber":64,"Velocity":47,"Duration":89960,"SoundDuration":89960,"Delta":308217353},{"NoteNumber":49,"Velocity":40,"Duration":89960,"SoundDuration":89960,"Delta":308217353},{"NoteNumber":52,"Velocity":40,"Duration":89960,"SoundDuration":89960,"Delta":308217353},{"NoteNumber":64,"Velocity":48,"Duration":179921,"SoundDuration":179921,"Delta":308397274},{"NoteNumber":68,"Velocity":48,"Duration":179921,"SoundDuration":179921,"Delta":308397274},{"NoteNumber":52,"Velocity":40,"Duration":179921,"SoundDuration":179921,"Delta":308397274},{"NoteNumber":49,"Velocity":40,"Duration":179921,"SoundDuration":179921,"Delta":308397274},{"NoteNumber":61,"Velocity":45,"Duration":179920,"SoundDuration":179920,"Delta":308577195},{"NoteNumber":64,"Velocity":45,"Duration":179920,"SoundDuration":179920,"Delta":308577195},{"NoteNumber":56,"Velocity":39,"Duration":179920,"SoundDuration":179920,"Delta":308577195},{"NoteNumber":52,"Velocity":39,"Duration":179920,"SoundDuration":179920,"Delta":308577195},{"NoteNumber":42,"Velocity":48,"Duration":91675,"SoundDuration":91675,"Delta":308757116},{"NoteNumber":66,"Velocity":48,"Duration":89960,"SoundDuration":89960,"Delta":308940468},{"NoteNumber":69,"Velocity":48,"Duration":89960,"SoundDuration":89960,"Delta":308940468},{"NoteNumber":49,"Velocity":40,"Duration":89960,"SoundDuration":89960,"Delta":308940468},{"NoteNumber":54,"Velocity":40,"Duration":89960,"SoundDuration":89960,"Delta":308940468},{"NoteNumber":69,"Velocity":48,"Duration":179921,"SoundDuration":179921,"Delta":309120389},{"NoteNumber":66,"Velocity":48,"Duration":179921,"SoundDuration":179921,"Delta":309120389},{"NoteNumber":54,"Velocity":40,"Duration":179921,"SoundDuration":179921,"Delta":309120389},{"NoteNumber":49,"Velocity":40,"Duration":179921,"SoundDuration":179921,"Delta":309120389},{"NoteNumber":61,"Velocity":46,"Duration":179920,"SoundDuration":179920,"Delta":309300310},{"NoteNumber":66,"Velocity":46,"Duration":179920,"SoundDuration":179920,"Delta":309300310},{"NoteNumber":57,"Velocity":39,"Duration":179920,"SoundDuration":179920,"Delta":309300310},{"NoteNumber":54,"Velocity":39,"Duration":179920,"SoundDuration":179920,"Delta":309300310},{"NoteNumber":44,"Velocity":48,"Duration":92262,"SoundDuration":92262,"Delta":309480231},{"NoteNumber":68,"Velocity":47,"Duration":89960,"SoundDuration":89960,"Delta":309664755},{"NoteNumber":64,"Velocity":47,"Duration":89960,"SoundDuration":89960,"Delta":309664755},{"NoteNumber":52,"Velocity":39,"Duration":89960,"SoundDuration":89960,"Delta":309664755},{"NoteNumber":49,"Velocity":39,"Duration":89960,"SoundDuration":89960,"Delta":309664755},{"NoteNumber":68,"Velocity":47,"Duration":179921,"SoundDuration":179921,"Delta":309844676},{"NoteNumber":64,"Velocity":47,"Duration":179921,"SoundDuration":179921,"Delta":309844676},{"NoteNumber":49,"Velocity":39,"Duration":179921,"SoundDuration":179921,"Delta":309844676},{"NoteNumber":52,"Velocity":39,"Duration":179921,"SoundDuration":179921,"Delta":309844676},{"NoteNumber":64,"Velocity":46,"Duration":179920,"SoundDuration":179920,"Delta":310024597},{"NoteNumber":61,"Velocity":46,"Duration":179920,"SoundDuration":179920,"Delta":310024597},{"NoteNumber":52,"Velocity":39,"Duration":179920,"SoundDuration":179920,"Delta":310024597},{"NoteNumber":56,"Velocity":39,"Duration":179920,"SoundDuration":179920,"Delta":310024597},{"NoteNumber":44,"Velocity":48,"Duration":94381,"SoundDuration":94381,"Delta":310204518},{"NoteNumber":63,"Velocity":47,"Duration":89960,"SoundDuration":89960,"Delta":310393281},{"NoteNumber":68,"Velocity":47,"Duration":89960,"SoundDuration":89960,"Delta":310393281},{"NoteNumber":51,"Velocity":39,"Duration":89960,"SoundDuration":89960,"Delta":310393281},{"NoteNumber":48,"Velocity":39,"Duration":89960,"SoundDuration":89960,"Delta":310393281},{"NoteNumber":63,"Velocity":47,"Duration":179921,"SoundDuration":179921,"Delta":310573202},{"NoteNumber":68,"Velocity":47,"Duration":179921,"SoundDuration":179921,"Delta":310573202},{"NoteNumber":48,"Velocity":39,"Duration":179921,"SoundDuration":179921,"Delta":310573202},{"NoteNumber":51,"Velocity":39,"Duration":179921,"SoundDuration":179921,"Delta":310573202},{"NoteNumber":60,"Velocity":45,"Duration":179920,"SoundDuration":179920,"Delta":310753123},{"NoteNumber":63,"Velocity":45,"Duration":179920,"SoundDuration":179920,"Delta":310753123},{"NoteNumber":56,"Velocity":38,"Duration":179920,"SoundDuration":179920,"Delta":310753123},{"NoteNumber":51,"Velocity":38,"Duration":179920,"SoundDuration":179920,"Delta":310753123},{"NoteNumber":61,"Velocity":59,"Duration":183351,"SoundDuration":183351,"Delta":310933044},{"NoteNumber":64,"Velocity":59,"Duration":183351,"SoundDuration":183351,"Delta":310933044},{"NoteNumber":49,"Velocity":49,"Duration":183351,"SoundDuration":183351,"Delta":310933044},{"NoteNumber":37,"Velocity":49,"Duration":183351,"SoundDuration":183351,"Delta":310933044},{"NoteNumber":64,"Velocity":39,"Duration":89960,"SoundDuration":89960,"Delta":311116395},{"NoteNumber":76,"Velocity":47,"Duration":89960,"SoundDuration":89960,"Delta":311116395},{"NoteNumber":68,"Velocity":47,"Duration":89960,"SoundDuration":89960,"Delta":311116395},{"NoteNumber":49,"Velocity":39,"Duration":89960,"SoundDuration":89960,"Delta":311116395},{"NoteNumber":56,"Velocity":39,"Duration":89960,"SoundDuration":89960,"Delta":311116395},{"NoteNumber":76,"Velocity":47,"Duration":89960,"SoundDuration":89960,"Delta":311296316},{"NoteNumber":64,"Velocity":39,"Duration":89960,"SoundDuration":89960,"Delta":311296316},{"NoteNumber":68,"Velocity":47,"Duration":89960,"SoundDuration":89960,"Delta":311296316},{"NoteNumber":56,"Velocity":42,"Duration":89960,"SoundDuration":89960,"Delta":311296316},{"NoteNumber":49,"Velocity":42,"Duration":89960,"SoundDuration":89960,"Delta":311296316},{"NoteNumber":64,"Velocity":39,"Duration":89960,"SoundDuration":89960,"Delta":311476237},{"NoteNumber":68,"Velocity":47,"Duration":89960,"SoundDuration":89960,"Delta":311476237},{"NoteNumber":76,"Velocity":47,"Duration":89960,"SoundDuration":89960,"Delta":311476237},{"NoteNumber":56,"Velocity":41,"Duration":89960,"SoundDuration":89960,"Delta":311476237},{"NoteNumber":49,"Velocity":41,"Duration":89960,"SoundDuration":89960,"Delta":311476237},{"NoteNumber":68,"Velocity":47,"Duration":89960,"SoundDuration":89960,"Delta":311656158},{"NoteNumber":64,"Velocity":39,"Duration":89960,"SoundDuration":89960,"Delta":311656158},{"NoteNumber":76,"Velocity":47,"Duration":89960,"SoundDuration":89960,"Delta":311656158},{"NoteNumber":49,"Velocity":39,"Duration":89960,"SoundDuration":89960,"Delta":311656158},{"NoteNumber":56,"Velocity":39,"Duration":89960,"SoundDuration":89960,"Delta":311656158},{"NoteNumber":68,"Velocity":47,"Duration":89960,"SoundDuration":89960,"Delta":311836079},{"NoteNumber":64,"Velocity":39,"Duration":89960,"SoundDuration":89960,"Delta":311836079},{"NoteNumber":76,"Velocity":47,"Duration":89960,"SoundDuration":89960,"Delta":311836079},{"NoteNumber":49,"Velocity":39,"Duration":89960,"SoundDuration":89960,"Delta":311836079},{"NoteNumber":56,"Velocity":39,"Duration":89960,"SoundDuration":89960,"Delta":311836079},{"NoteNumber":66,"Velocity":50,"Duration":89960,"SoundDuration":89960,"Delta":312016000},{"NoteNumber":63,"Velocity":42,"Duration":89960,"SoundDuration":89960,"Delta":312016000},{"NoteNumber":75,"Velocity":50,"Duration":89960,"SoundDuration":89960,"Delta":312016000},{"NoteNumber":56,"Velocity":41,"Duration":89960,"SoundDuration":89960,"Delta":312016000},{"NoteNumber":51,"Velocity":41,"Duration":89960,"SoundDuration":89960,"Delta":312016000},{"NoteNumber":61,"Velocity":44,"Duration":89960,"SoundDuration":89960,"Delta":312195921},{"NoteNumber":73,"Velocity":52,"Duration":89960,"SoundDuration":89960,"Delta":312195921},{"NoteNumber":64,"Velocity":52,"Duration":89960,"SoundDuration":89960,"Delta":312195921},{"NoteNumber":56,"Velocity":44,"Duration":89960,"SoundDuration":89960,"Delta":312195921},{"NoteNumber":52,"Velocity":44,"Duration":89960,"SoundDuration":89960,"Delta":312195921},{"NoteNumber":63,"Velocity":58,"Duration":181928,"SoundDuration":181928,"Delta":312375842},{"NoteNumber":72,"Velocity":58,"Duration":181928,"SoundDuration":181928,"Delta":312375842},{"NoteNumber":60,"Velocity":49,"Duration":181928,"SoundDuration":181928,"Delta":312375842},{"NoteNumber":44,"Velocity":47,"Duration":181928,"SoundDuration":181928,"Delta":312375842},{"NoteNumber":56,"Velocity":47,"Duration":181928,"SoundDuration":181928,"Delta":312375842},{"NoteNumber":54,"Velocity":47,"Duration":181928,"SoundDuration":181928,"Delta":312375842},{"NoteNumber":72,"Velocity":68,"Duration":90147,"SoundDuration":90147,"Delta":312557771},{"NoteNumber":75,"Velocity":81,"Duration":90147,"SoundDuration":90147,"Delta":312557771},{"NoteNumber":84,"Velocity":81,"Duration":90147,"SoundDuration":90147,"Delta":312557771},{"NoteNumber":66,"Velocity":58,"Duration":90147,"SoundDuration":90147,"Delta":312557771},{"NoteNumber":56,"Velocity":58,"Duration":90147,"SoundDuration":90147,"Delta":312557771},{"NoteNumber":75,"Velocity":86,"Duration":90614,"SoundDuration":90614,"Delta":312738253},{"NoteNumber":72,"Velocity":73,"Duration":90614,"SoundDuration":90614,"Delta":312738253},{"NoteNumber":84,"Velocity":86,"Duration":90614,"SoundDuration":90614,"Delta":312738253},{"NoteNumber":66,"Velocity":68,"Duration":90614,"SoundDuration":90614,"Delta":312738253},{"NoteNumber":56,"Velocity":68,"Duration":90614,"SoundDuration":90614,"Delta":312738253},{"NoteNumber":72,"Velocity":68,"Duration":91096,"SoundDuration":91096,"Delta":312919672},{"NoteNumber":84,"Velocity":80,"Duration":91096,"SoundDuration":91096,"Delta":312919672},{"NoteNumber":75,"Velocity":80,"Duration":91096,"SoundDuration":91096,"Delta":312919672},{"NoteNumber":56,"Velocity":62,"Duration":91096,"SoundDuration":91096,"Delta":312919672},{"NoteNumber":66,"Velocity":62,"Duration":91096,"SoundDuration":91096,"Delta":312919672},{"NoteNumber":72,"Velocity":73,"Duration":91579,"SoundDuration":91579,"Delta":313102058},{"NoteNumber":75,"Velocity":86,"Duration":91579,"SoundDuration":91579,"Delta":313102058},{"NoteNumber":84,"Velocity":86,"Duration":91579,"SoundDuration":91579,"Delta":313102058},{"NoteNumber":56,"Velocity":68,"Duration":91579,"SoundDuration":91579,"Delta":313102058},{"NoteNumber":66,"Velocity":68,"Duration":91579,"SoundDuration":91579,"Delta":313102058},{"NoteNumber":72,"Velocity":68,"Duration":91968,"SoundDuration":91968,"Delta":313285410},{"NoteNumber":84,"Velocity":81,"Duration":91968,"SoundDuration":91968,"Delta":313285410},{"NoteNumber":75,"Velocity":81,"Duration":91968,"SoundDuration":91968,"Delta":313285410},{"NoteNumber":66,"Velocity":62,"Duration":91968,"SoundDuration":91968,"Delta":313285410},{"NoteNumber":56,"Velocity":62,"Duration":91968,"SoundDuration":91968,"Delta":313285410},{"NoteNumber":76,"Velocity":89,"Duration":92558,"SoundDuration":92558,"Delta":313469641},{"NoteNumber":73,"Velocity":74,"Duration":92558,"SoundDuration":92558,"Delta":313469641},{"NoteNumber":85,"Velocity":89,"Duration":92558,"SoundDuration":92558,"Delta":313469641},{"NoteNumber":56,"Velocity":68,"Duration":92558,"SoundDuration":92558,"Delta":313469641},{"NoteNumber":64,"Velocity":68,"Duration":92558,"SoundDuration":92558,"Delta":313469641},{"NoteNumber":87,"Velocity":84,"Duration":92961,"SoundDuration":92961,"Delta":313654960},{"NoteNumber":75,"Velocity":71,"Duration":92961,"SoundDuration":92961,"Delta":313654960},{"NoteNumber":78,"Velocity":84,"Duration":92961,"SoundDuration":92961,"Delta":313654960},{"NoteNumber":63,"Velocity":62,"Duration":92961,"SoundDuration":92961,"Delta":313654960},{"NoteNumber":56,"Velocity":62,"Duration":92961,"SoundDuration":92961,"Delta":313654960},{"NoteNumber":88,"Velocity":96,"Duration":186731,"SoundDuration":186731,"Delta":313841184},{"NoteNumber":80,"Velocity":96,"Duration":186731,"SoundDuration":186731,"Delta":313841184},{"NoteNumber":76,"Velocity":81,"Duration":186731,"SoundDuration":186731,"Delta":313841184},{"NoteNumber":37,"Velocity":68,"Duration":186731,"SoundDuration":186731,"Delta":313841184},{"NoteNumber":49,"Velocity":68,"Duration":186731,"SoundDuration":186731,"Delta":313841184},{"NoteNumber":68,"Velocity":47,"Duration":90519,"SoundDuration":90519,"Delta":314027915},{"NoteNumber":64,"Velocity":39,"Duration":90519,"SoundDuration":90519,"Delta":314027915},{"NoteNumber":76,"Velocity":47,"Duration":90519,"SoundDuration":90519,"Delta":314027915},{"NoteNumber":56,"Velocity":39,"Duration":90519,"SoundDuration":90519,"Delta":314027915},{"NoteNumber":49,"Velocity":39,"Duration":90519,"SoundDuration":90519,"Delta":314027915},{"NoteNumber":64,"Velocity":39,"Duration":90519,"SoundDuration":90519,"Delta":314208954},{"NoteNumber":68,"Velocity":47,"Duration":90519,"SoundDuration":90519,"Delta":314208954},{"NoteNumber":76,"Velocity":47,"Duration":90519,"SoundDuration":90519,"Delta":314208954},{"NoteNumber":56,"Velocity":39,"Duration":90519,"SoundDuration":90519,"Delta":314208954},{"NoteNumber":49,"Velocity":39,"Duration":90519,"SoundDuration":90519,"Delta":314208954},{"NoteNumber":68,"Velocity":47,"Duration":90519,"SoundDuration":90519,"Delta":314389993},{"NoteNumber":64,"Velocity":39,"Duration":90519,"SoundDuration":90519,"Delta":314389993},{"NoteNumber":76,"Velocity":47,"Duration":90519,"SoundDuration":90519,"Delta":314389993},{"NoteNumber":56,"Velocity":39,"Duration":90519,"SoundDuration":90519,"Delta":314389993},{"NoteNumber":49,"Velocity":39,"Duration":90519,"SoundDuration":90519,"Delta":314389993},{"NoteNumber":76,"Velocity":48,"Duration":90519,"SoundDuration":90519,"Delta":314571032},{"NoteNumber":64,"Velocity":40,"Duration":90519,"SoundDuration":90519,"Delta":314571032},{"NoteNumber":68,"Velocity":48,"Duration":90519,"SoundDuration":90519,"Delta":314571032},{"NoteNumber":49,"Velocity":39,"Duration":90519,"SoundDuration":90519,"Delta":314571032},{"NoteNumber":56,"Velocity":39,"Duration":90519,"SoundDuration":90519,"Delta":314571032},{"NoteNumber":68,"Velocity":48,"Duration":90519,"SoundDuration":90519,"Delta":314752071},{"NoteNumber":64,"Velocity":40,"Duration":90519,"SoundDuration":90519,"Delta":314752071},{"NoteNumber":76,"Velocity":48,"Duration":90519,"SoundDuration":90519,"Delta":314752071},{"NoteNumber":49,"Velocity":39,"Duration":90519,"SoundDuration":90519,"Delta":314752071},{"NoteNumber":56,"Velocity":39,"Duration":90519,"SoundDuration":90519,"Delta":314752071},{"NoteNumber":63,"Velocity":40,"Duration":90519,"SoundDuration":90519,"Delta":314933110},{"NoteNumber":66,"Velocity":48,"Duration":90519,"SoundDuration":90519,"Delta":314933110},{"NoteNumber":75,"Velocity":48,"Duration":90519,"SoundDuration":90519,"Delta":314933110},{"NoteNumber":51,"Velocity":39,"Duration":90519,"SoundDuration":90519,"Delta":314933110},{"NoteNumber":56,"Velocity":39,"Duration":90519,"SoundDuration":90519,"Delta":314933110},{"NoteNumber":64,"Velocity":50,"Duration":90519,"SoundDuration":90519,"Delta":315114149},{"NoteNumber":73,"Velocity":50,"Duration":90519,"SoundDuration":90519,"Delta":315114149},{"NoteNumber":61,"Velocity":42,"Duration":90519,"SoundDuration":90519,"Delta":315114149},{"NoteNumber":56,"Velocity":41,"Duration":90519,"SoundDuration":90519,"Delta":315114149},{"NoteNumber":52,"Velocity":41,"Duration":90519,"SoundDuration":90519,"Delta":315114149},{"NoteNumber":72,"Velocity":56,"Duration":183645,"SoundDuration":183645,"Delta":315295188},{"NoteNumber":63,"Velocity":56,"Duration":183645,"SoundDuration":183645,"Delta":315295188},{"NoteNumber":60,"Velocity":47,"Duration":183645,"SoundDuration":183645,"Delta":315295188},{"NoteNumber":44,"Velocity":45,"Duration":183645,"SoundDuration":183645,"Delta":315295188},{"NoteNumber":56,"Velocity":45,"Duration":183645,"SoundDuration":183645,"Delta":315295188},{"NoteNumber":54,"Velocity":45,"Duration":183645,"SoundDuration":183645,"Delta":315295188},{"NoteNumber":75,"Velocity":78,"Duration":89960,"SoundDuration":89960,"Delta":315478834},{"NoteNumber":84,"Velocity":78,"Duration":89960,"SoundDuration":89960,"Delta":315478834},{"NoteNumber":72,"Velocity":66,"Duration":89960,"SoundDuration":89960,"Delta":315478834},{"NoteNumber":66,"Velocity":57,"Duration":89960,"SoundDuration":89960,"Delta":315478834},{"NoteNumber":56,"Velocity":57,"Duration":89960,"SoundDuration":89960,"Delta":315478834},{"NoteNumber":75,"Velocity":86,"Duration":90148,"SoundDuration":90148,"Delta":315658755},{"NoteNumber":72,"Velocity":73,"Duration":90148,"SoundDuration":90148,"Delta":315658755},{"NoteNumber":84,"Velocity":86,"Duration":90148,"SoundDuration":90148,"Delta":315658755},{"NoteNumber":56,"Velocity":68,"Duration":90148,"SoundDuration":90148,"Delta":315658755},{"NoteNumber":66,"Velocity":68,"Duration":90148,"SoundDuration":90148,"Delta":315658755},{"NoteNumber":75,"Velocity":80,"Duration":90334,"SoundDuration":90334,"Delta":315839145},{"NoteNumber":72,"Velocity":68,"Duration":90334,"SoundDuration":90334,"Delta":315839145},{"NoteNumber":84,"Velocity":80,"Duration":90334,"SoundDuration":90334,"Delta":315839145},{"NoteNumber":66,"Velocity":60,"Duration":90334,"SoundDuration":90334,"Delta":315839145},{"NoteNumber":56,"Velocity":60,"Duration":90334,"SoundDuration":90334,"Delta":315839145},{"NoteNumber":84,"Velocity":86,"Duration":90519,"SoundDuration":90519,"Delta":316019999},{"NoteNumber":72,"Velocity":73,"Duration":90519,"SoundDuration":90519,"Delta":316019999},{"NoteNumber":75,"Velocity":86,"Duration":90519,"SoundDuration":90519,"Delta":316019999},{"NoteNumber":56,"Velocity":68,"Duration":90519,"SoundDuration":90519,"Delta":316019999},{"NoteNumber":66,"Velocity":68,"Duration":90519,"SoundDuration":90519,"Delta":316019999},{"NoteNumber":75,"Velocity":86,"Duration":90804,"SoundDuration":90804,"Delta":316201323},{"NoteNumber":84,"Velocity":86,"Duration":90804,"SoundDuration":90804,"Delta":316201323},{"NoteNumber":72,"Velocity":73,"Duration":90804,"SoundDuration":90804,"Delta":316201323},{"NoteNumber":66,"Velocity":60,"Duration":90804,"SoundDuration":90804,"Delta":316201323},{"NoteNumber":56,"Velocity":60,"Duration":90804,"SoundDuration":90804,"Delta":316201323},{"NoteNumber":73,"Velocity":73,"Duration":91096,"SoundDuration":91096,"Delta":316383224},{"NoteNumber":85,"Velocity":86,"Duration":91096,"SoundDuration":91096,"Delta":316383224},{"NoteNumber":76,"Velocity":86,"Duration":91096,"SoundDuration":91096,"Delta":316383224},{"NoteNumber":64,"Velocity":68,"Duration":91096,"SoundDuration":91096,"Delta":316383224},{"NoteNumber":56,"Velocity":68,"Duration":91096,"SoundDuration":91096,"Delta":316383224},{"NoteNumber":87,"Velocity":80,"Duration":91385,"SoundDuration":91385,"Delta":316565610},{"NoteNumber":75,"Velocity":68,"Duration":91385,"SoundDuration":91385,"Delta":316565610},{"NoteNumber":78,"Velocity":80,"Duration":91385,"SoundDuration":91385,"Delta":316565610},{"NoteNumber":56,"Velocity":59,"Duration":91385,"SoundDuration":91385,"Delta":316565610},{"NoteNumber":63,"Velocity":59,"Duration":91385,"SoundDuration":91385,"Delta":316565610},{"NoteNumber":76,"Velocity":82,"Duration":183352,"SoundDuration":183352,"Delta":316748478},{"NoteNumber":80,"Velocity":97,"Duration":183352,"SoundDuration":183352,"Delta":316748478},{"NoteNumber":88,"Velocity":97,"Duration":183352,"SoundDuration":183352,"Delta":316748478},{"NoteNumber":61,"Velocity":69,"Duration":183352,"SoundDuration":183352,"Delta":316748478},{"NoteNumber":49,"Velocity":69,"Duration":183352,"SoundDuration":183352,"Delta":316748478},{"NoteNumber":80,"Velocity":50,"Duration":90519,"SoundDuration":90519,"Delta":316931830},{"NoteNumber":85,"Velocity":50,"Duration":90519,"SoundDuration":90519,"Delta":316931830},{"NoteNumber":61,"Velocity":42,"Duration":90519,"SoundDuration":90519,"Delta":316931830},{"NoteNumber":64,"Velocity":42,"Duration":90519,"SoundDuration":90519,"Delta":316931830},{"NoteNumber":85,"Velocity":50,"Duration":181038,"SoundDuration":181038,"Delta":317112869},{"NoteNumber":80,"Velocity":50,"Duration":181038,"SoundDuration":181038,"Delta":317112869},{"NoteNumber":64,"Velocity":43,"Duration":181038,"SoundDuration":181038,"Delta":317112869},{"NoteNumber":61,"Velocity":43,"Duration":181038,"SoundDuration":181038,"Delta":317112869},{"NoteNumber":80,"Velocity":48,"Duration":181038,"SoundDuration":181038,"Delta":317293908},{"NoteNumber":76,"Velocity":48,"Duration":181038,"SoundDuration":181038,"Delta":317293908},{"NoteNumber":68,"Velocity":39,"Duration":181038,"SoundDuration":181038,"Delta":317293908},{"NoteNumber":64,"Velocity":39,"Duration":181038,"SoundDuration":181038,"Delta":317293908},{"NoteNumber":54,"Velocity":48,"Duration":91968,"SoundDuration":91968,"Delta":317474947},{"NoteNumber":81,"Velocity":49,"Duration":90241,"SoundDuration":90241,"Delta":317658883},{"NoteNumber":85,"Velocity":49,"Duration":90241,"SoundDuration":90241,"Delta":317658883},{"NoteNumber":66,"Velocity":40,"Duration":90241,"SoundDuration":90241,"Delta":317658883},{"NoteNumber":61,"Velocity":40,"Duration":90241,"SoundDuration":90241,"Delta":317658883},{"NoteNumber":85,"Velocity":49,"Duration":180483,"SoundDuration":180483,"Delta":317839366},{"NoteNumber":81,"Velocity":49,"Duration":180483,"SoundDuration":180483,"Delta":317839366},{"NoteNumber":66,"Velocity":42,"Duration":180483,"SoundDuration":180483,"Delta":317839366},{"NoteNumber":61,"Velocity":42,"Duration":180483,"SoundDuration":180483,"Delta":317839366},{"NoteNumber":78,"Velocity":48,"Duration":180483,"SoundDuration":180483,"Delta":318019850},{"NoteNumber":81,"Velocity":48,"Duration":180483,"SoundDuration":180483,"Delta":318019850},{"NoteNumber":66,"Velocity":39,"Duration":180483,"SoundDuration":180483,"Delta":318019850},{"NoteNumber":69,"Velocity":39,"Duration":180483,"SoundDuration":180483,"Delta":318019850},{"NoteNumber":56,"Velocity":47,"Duration":91968,"SoundDuration":91968,"Delta":318200333},{"NoteNumber":80,"Velocity":49,"Duration":90241,"SoundDuration":90241,"Delta":318384269},{"NoteNumber":76,"Velocity":49,"Duration":90241,"SoundDuration":90241,"Delta":318384269},{"NoteNumber":61,"Velocity":42,"Duration":90241,"SoundDuration":90241,"Delta":318384269},{"NoteNumber":64,"Velocity":42,"Duration":90241,"SoundDuration":90241,"Delta":318384269},{"NoteNumber":76,"Velocity":49,"Duration":180483,"SoundDuration":180483,"Delta":318564753},{"NoteNumber":80,"Velocity":49,"Duration":180483,"SoundDuration":180483,"Delta":318564753},{"NoteNumber":64,"Velocity":42,"Duration":180483,"SoundDuration":180483,"Delta":318564753},{"NoteNumber":61,"Velocity":42,"Duration":180483,"SoundDuration":180483,"Delta":318564753},{"NoteNumber":73,"Velocity":47,"Duration":180483,"SoundDuration":180483,"Delta":318745236},{"NoteNumber":76,"Velocity":47,"Duration":180483,"SoundDuration":180483,"Delta":318745236},{"NoteNumber":68,"Velocity":39,"Duration":180483,"SoundDuration":180483,"Delta":318745236},{"NoteNumber":64,"Velocity":39,"Duration":180483,"SoundDuration":180483,"Delta":318745236},{"NoteNumber":54,"Velocity":47,"Duration":92262,"SoundDuration":92262,"Delta":318925720},{"NoteNumber":80,"Velocity":51,"Duration":90241,"SoundDuration":90241,"Delta":319110244},{"NoteNumber":75,"Velocity":51,"Duration":90241,"SoundDuration":90241,"Delta":319110244},{"NoteNumber":63,"Velocity":42,"Duration":90241,"SoundDuration":90241,"Delta":319110244},{"NoteNumber":60,"Velocity":42,"Duration":90241,"SoundDuration":90241,"Delta":319110244},{"NoteNumber":75,"Velocity":51,"Duration":180483,"SoundDuration":180483,"Delta":319290728},{"NoteNumber":80,"Velocity":51,"Duration":180483,"SoundDuration":180483,"Delta":319290728},{"NoteNumber":63,"Velocity":42,"Duration":180483,"SoundDuration":180483,"Delta":319290728},{"NoteNumber":60,"Velocity":42,"Duration":180483,"SoundDuration":180483,"Delta":319290728},{"NoteNumber":72,"Velocity":49,"Duration":180483,"SoundDuration":180483,"Delta":319471211},{"NoteNumber":75,"Velocity":49,"Duration":180483,"SoundDuration":180483,"Delta":319471211},{"NoteNumber":63,"Velocity":40,"Duration":180483,"SoundDuration":180483,"Delta":319471211},{"NoteNumber":68,"Velocity":40,"Duration":180483,"SoundDuration":180483,"Delta":319471211},{"NoteNumber":52,"Velocity":47,"Duration":180483,"SoundDuration":180483,"Delta":319651695},{"NoteNumber":76,"Velocity":56,"Duration":90241,"SoundDuration":90241,"Delta":319832178},{"NoteNumber":80,"Velocity":56,"Duration":90241,"SoundDuration":90241,"Delta":319832178},{"NoteNumber":61,"Velocity":42,"Duration":90241,"SoundDuration":90241,"Delta":319832178},{"NoteNumber":56,"Velocity":42,"Duration":90241,"SoundDuration":90241,"Delta":319832178},{"NoteNumber":76,"Velocity":56,"Duration":181231,"SoundDuration":181231,"Delta":320012680},{"NoteNumber":80,"Velocity":56,"Duration":181231,"SoundDuration":181231,"Delta":320012680},{"NoteNumber":61,"Velocity":42,"Duration":181231,"SoundDuration":181231,"Delta":320012680},{"NoteNumber":56,"Velocity":42,"Duration":181231,"SoundDuration":181231,"Delta":320012680},{"NoteNumber":68,"Velocity":54,"Duration":185529,"SoundDuration":185529,"Delta":320193912},{"NoteNumber":76,"Velocity":54,"Duration":185529,"SoundDuration":185529,"Delta":320193912},{"NoteNumber":64,"Velocity":39,"Duration":185529,"SoundDuration":185529,"Delta":320193912},{"NoteNumber":61,"Velocity":39,"Duration":185529,"SoundDuration":185529,"Delta":320193912},{"NoteNumber":42,"Velocity":47,"Duration":187621,"SoundDuration":187621,"Delta":320379441},{"NoteNumber":78,"Velocity":65,"Duration":94691,"SoundDuration":94691,"Delta":320567063},{"NoteNumber":69,"Velocity":65,"Duration":94691,"SoundDuration":94691,"Delta":320567063},{"NoteNumber":57,"Velocity":43,"Duration":94691,"SoundDuration":94691,"Delta":320567063},{"NoteNumber":54,"Velocity":43,"Duration":94691,"SoundDuration":94691,"Delta":320567063},{"NoteNumber":78,"Velocity":63,"Duration":192601,"SoundDuration":192601,"Delta":320756737},{"NoteNumber":69,"Velocity":63,"Duration":192601,"SoundDuration":192601,"Delta":320756737},{"NoteNumber":54,"Velocity":43,"Duration":192601,"SoundDuration":192601,"Delta":320756737},{"NoteNumber":57,"Velocity":43,"Duration":192601,"SoundDuration":192601,"Delta":320756737},{"NoteNumber":66,"Velocity":62,"Duration":196952,"SoundDuration":196952,"Delta":320949338},{"NoteNumber":74,"Velocity":62,"Duration":196952,"SoundDuration":196952,"Delta":320949338},{"NoteNumber":62,"Velocity":41,"Duration":196952,"SoundDuration":196952,"Delta":320949338},{"NoteNumber":57,"Velocity":41,"Duration":196952,"SoundDuration":196952,"Delta":320949338},{"NoteNumber":44,"Velocity":45,"Duration":199728,"SoundDuration":199728,"Delta":321146290},{"NoteNumber":76,"Velocity":57,"Duration":102370,"SoundDuration":102370,"Delta":321346019},{"NoteNumber":68,"Velocity":57,"Duration":102370,"SoundDuration":102370,"Delta":321346019},{"NoteNumber":56,"Velocity":39,"Duration":102370,"SoundDuration":102370,"Delta":321346019},{"NoteNumber":52,"Velocity":39,"Duration":102370,"SoundDuration":102370,"Delta":321346019},{"NoteNumber":68,"Velocity":57,"Duration":208608,"SoundDuration":208608,"Delta":321552190},{"NoteNumber":76,"Velocity":57,"Duration":208608,"SoundDuration":208608,"Delta":321552190},{"NoteNumber":52,"Velocity":40,"Duration":208608,"SoundDuration":208608,"Delta":321552190},{"NoteNumber":56,"Velocity":40,"Duration":208608,"SoundDuration":208608,"Delta":321552190},{"NoteNumber":64,"Velocity":57,"Duration":208608,"SoundDuration":208608,"Delta":321760798},{"NoteNumber":73,"Velocity":57,"Duration":208608,"SoundDuration":208608,"Delta":321760798},{"NoteNumber":56,"Velocity":42,"Duration":208608,"SoundDuration":208608,"Delta":321760798},{"NoteNumber":61,"Velocity":42,"Duration":208608,"SoundDuration":208608,"Delta":321760798},{"NoteNumber":44,"Velocity":48,"Duration":210802,"SoundDuration":210802,"Delta":321969407},{"NoteNumber":75,"Velocity":49,"Duration":107900,"SoundDuration":107900,"Delta":322180209},{"NoteNumber":66,"Velocity":49,"Duration":107900,"SoundDuration":107900,"Delta":322180209},{"NoteNumber":51,"Velocity":39,"Duration":107900,"SoundDuration":107900,"Delta":322180209},{"NoteNumber":54,"Velocity":39,"Duration":107900,"SoundDuration":107900,"Delta":322180209},{"NoteNumber":75,"Velocity":49,"Duration":229007,"SoundDuration":229007,"Delta":322397706},{"NoteNumber":66,"Velocity":49,"Duration":229007,"SoundDuration":229007,"Delta":322397706},{"NoteNumber":54,"Velocity":39,"Duration":229007,"SoundDuration":229007,"Delta":322397706},{"NoteNumber":51,"Velocity":39,"Duration":229007,"SoundDuration":229007,"Delta":322397706},{"NoteNumber":72,"Velocity":47,"Duration":235974,"SoundDuration":235974,"Delta":322626713},{"NoteNumber":63,"Velocity":47,"Duration":235974,"SoundDuration":235974,"Delta":322626713},{"NoteNumber":54,"Velocity":39,"Duration":235974,"SoundDuration":235974,"Delta":322626713},{"NoteNumber":60,"Velocity":39,"Duration":235974,"SoundDuration":235974,"Delta":322626713},{"NoteNumber":73,"Velocity":50,"Duration":397035,"SoundDuration":397035,"Delta":322862687},{"NoteNumber":64,"Velocity":50,"Duration":397035,"SoundDuration":397035,"Delta":322862687},{"NoteNumber":37,"Velocity":49,"Duration":98431,"SoundDuration":98431,"Delta":322862687},{"NoteNumber":49,"Velocity":31,"Duration":98431,"SoundDuration":98431,"Delta":322961946},{"NoteNumber":44,"Velocity":36,"Duration":98431,"SoundDuration":98431,"Delta":323061205},{"NoteNumber":49,"Velocity":32,"Duration":98431,"SoundDuration":98431,"Delta":323160463},{"NoteNumber":37,"Velocity":41,"Duration":98431,"SoundDuration":98431,"Delta":323259722},{"NoteNumber":49,"Velocity":32,"Duration":98431,"SoundDuration":98431,"Delta":323358981},{"NoteNumber":44,"Velocity":36,"Duration":98431,"SoundDuration":98431,"Delta":323458240},{"NoteNumber":49,"Velocity":32,"Duration":98431,"SoundDuration":98431,"Delta":323557498},{"NoteNumber":37,"Velocity":41,"Duration":98431,"SoundDuration":98431,"Delta":323656757},{"NoteNumber":49,"Velocity":32,"Duration":98431,"SoundDuration":98431,"Delta":323756016},{"NoteNumber":44,"Velocity":37,"Duration":98431,"SoundDuration":98431,"Delta":323855275},{"NoteNumber":49,"Velocity":37,"Duration":98431,"SoundDuration":98431,"Delta":323954533},{"NoteNumber":64,"Velocity":50,"Duration":304074,"SoundDuration":304074,"Delta":324053792},{"NoteNumber":37,"Velocity":41,"Duration":100513,"SoundDuration":100513,"Delta":324053792},{"NoteNumber":49,"Velocity":32,"Duration":100513,"SoundDuration":100513,"Delta":324155150},{"NoteNumber":44,"Velocity":37,"Duration":100513,"SoundDuration":100513,"Delta":324256509},{"NoteNumber":61,"Velocity":50,"Duration":101358,"SoundDuration":101358,"Delta":324357867},{"NoteNumber":49,"Velocity":33,"Duration":100513,"SoundDuration":100513,"Delta":324357867},{"NoteNumber":60,"Velocity":57,"Duration":405432,"SoundDuration":405432,"Delta":324459225},{"NoteNumber":37,"Velocity":41,"Duration":100513,"SoundDuration":100513,"Delta":324459225},{"NoteNumber":51,"Velocity":33,"Duration":100513,"SoundDuration":100513,"Delta":324560583},{"NoteNumber":44,"Velocity":38,"Duration":100513,"SoundDuration":100513,"Delta":324661942},{"NoteNumber":51,"Velocity":33,"Duration":100513,"SoundDuration":100513,"Delta":324763300},{"NoteNumber":60,"Velocity":47,"Duration":321038,"SoundDuration":321038,"Delta":324864658},{"NoteNumber":54,"Velocity":39,"Duration":321038,"SoundDuration":321038,"Delta":324864658},{"NoteNumber":68,"Velocity":47,"Duration":321038,"SoundDuration":321038,"Delta":324864658},{"NoteNumber":37,"Velocity":41,"Duration":106121,"SoundDuration":106121,"Delta":324864658},{"NoteNumber":51,"Velocity":32,"Duration":106121,"SoundDuration":106121,"Delta":324971671},{"NoteNumber":44,"Velocity":37,"Duration":106121,"SoundDuration":106121,"Delta":325078684},{"NoteNumber":51,"Velocity":32,"Duration":106121,"SoundDuration":106121,"Delta":325185697},{"NoteNumber":60,"Velocity":47,"Duration":321039,"SoundDuration":321039,"Delta":325292710},{"NoteNumber":68,"Velocity":47,"Duration":321039,"SoundDuration":321039,"Delta":325292710},{"NoteNumber":54,"Velocity":39,"Duration":321039,"SoundDuration":321039,"Delta":325292710},{"NoteNumber":37,"Velocity":41,"Duration":106121,"SoundDuration":106121,"Delta":325292710},{"NoteNumber":51,"Velocity":33,"Duration":106121,"SoundDuration":106121,"Delta":325399723},{"NoteNumber":44,"Velocity":38,"Duration":106121,"SoundDuration":106121,"Delta":325506736},{"NoteNumber":51,"Velocity":33,"Duration":106121,"SoundDuration":106121,"Delta":325613749},{"NoteNumber":54,"Velocity":42,"Duration":321038,"SoundDuration":321038,"Delta":325720762},{"NoteNumber":60,"Velocity":50,"Duration":321038,"SoundDuration":321038,"Delta":325720762},{"NoteNumber":68,"Velocity":50,"Duration":321038,"SoundDuration":321038,"Delta":325720762},{"NoteNumber":37,"Velocity":41,"Duration":106121,"SoundDuration":106121,"Delta":325720762},{"NoteNumber":51,"Velocity":32,"Duration":106121,"SoundDuration":106121,"Delta":325827775},{"NoteNumber":44,"Velocity":36,"Duration":106121,"SoundDuration":106121,"Delta":325934788},{"NoteNumber":52,"Velocity":50,"Duration":71970,"SoundDuration":71970,"Delta":326041801},{"NoteNumber":51,"Velocity":33,"Duration":142740,"SoundDuration":142740,"Delta":326041801},{"NoteNumber":61,"Velocity":50,"Duration":71969,"SoundDuration":71969,"Delta":326113771},{"NoteNumber":68,"Velocity":57,"Duration":1191104,"SoundDuration":1191104,"Delta":326185741},{"NoteNumber":37,"Velocity":41,"Duration":98431,"SoundDuration":98431,"Delta":326185741},{"NoteNumber":49,"Velocity":33,"Duration":98431,"SoundDuration":98431,"Delta":326285000},{"NoteNumber":44,"Velocity":37,"Duration":98431,"SoundDuration":98431,"Delta":326384259},{"NoteNumber":49,"Velocity":33,"Duration":98431,"SoundDuration":98431,"Delta":326483517},{"NoteNumber":37,"Velocity":41,"Duration":98431,"SoundDuration":98431,"Delta":326582776},{"NoteNumber":49,"Velocity":34,"Duration":98431,"SoundDuration":98431,"Delta":326682035},{"NoteNumber":44,"Velocity":38,"Duration":98431,"SoundDuration":98431,"Delta":326781294},{"NoteNumber":49,"Velocity":34,"Duration":98431,"SoundDuration":98431,"Delta":326880552},{"NoteNumber":37,"Velocity":41,"Duration":98431,"SoundDuration":98431,"Delta":326979811},{"NoteNumber":49,"Velocity":34,"Duration":98431,"SoundDuration":98431,"Delta":327079070},{"NoteNumber":44,"Velocity":38,"Duration":98431,"SoundDuration":98431,"Delta":327178329},{"NoteNumber":49,"Velocity":33,"Duration":98431,"SoundDuration":98431,"Delta":327277587},{"NoteNumber":76,"Velocity":58,"Duration":303009,"SoundDuration":303009,"Delta":327376846},{"NoteNumber":37,"Velocity":41,"Duration":100161,"SoundDuration":100161,"Delta":327376846},{"NoteNumber":49,"Velocity":33,"Duration":100161,"SoundDuration":100161,"Delta":327477849},{"NoteNumber":44,"Velocity":36,"Duration":100161,"SoundDuration":100161,"Delta":327578853},{"NoteNumber":73,"Velocity":58,"Duration":101003,"SoundDuration":101003,"Delta":327679856},{"NoteNumber":49,"Velocity":32,"Duration":100161,"SoundDuration":100161,"Delta":327679856},{"NoteNumber":72,"Velocity":67,"Duration":404012,"SoundDuration":404012,"Delta":327780859},{"NoteNumber":37,"Velocity":41,"Duration":100161,"SoundDuration":100161,"Delta":327780859},{"NoteNumber":51,"Velocity":33,"Duration":100161,"SoundDuration":100161,"Delta":327881862},{"NoteNumber":44,"Velocity":36,"Duration":100161,"SoundDuration":100161,"Delta":327982866},{"NoteNumber":51,"Velocity":33,"Duration":100161,"SoundDuration":100161,"Delta":328083869},{"NoteNumber":80,"Velocity":57,"Duration":312912,"SoundDuration":312912,"Delta":328184872},{"NoteNumber":66,"Velocity":48,"Duration":312912,"SoundDuration":312912,"Delta":328184872},{"NoteNumber":72,"Velocity":57,"Duration":312912,"SoundDuration":312912,"Delta":328184872},{"NoteNumber":37,"Velocity":41,"Duration":103435,"SoundDuration":103435,"Delta":328184872},{"NoteNumber":51,"Velocity":33,"Duration":103435,"SoundDuration":103435,"Delta":328289176},{"NoteNumber":44,"Velocity":36,"Duration":103435,"SoundDuration":103435,"Delta":328393481},{"NoteNumber":51,"Velocity":33,"Duration":103435,"SoundDuration":103435,"Delta":328497785},{"NoteNumber":72,"Velocity":57,"Duration":312912,"SoundDuration":312912,"Delta":328602089},{"NoteNumber":66,"Velocity":48,"Duration":312912,"SoundDuration":312912,"Delta":328602089},{"NoteNumber":80,"Velocity":57,"Duration":312912,"SoundDuration":312912,"Delta":328602089},{"NoteNumber":37,"Velocity":41,"Duration":103435,"SoundDuration":103435,"Delta":328602089},{"NoteNumber":51,"Velocity":32,"Duration":103435,"SoundDuration":103435,"Delta":328706393},{"NoteNumber":44,"Velocity":36,"Duration":103435,"SoundDuration":103435,"Delta":328810698},{"NoteNumber":51,"Velocity":33,"Duration":103435,"SoundDuration":103435,"Delta":328915002},{"NoteNumber":72,"Velocity":57,"Duration":310781,"SoundDuration":310781,"Delta":329019306},{"NoteNumber":80,"Velocity":57,"Duration":310781,"SoundDuration":310781,"Delta":329019306},{"NoteNumber":66,"Velocity":48,"Duration":310781,"SoundDuration":310781,"Delta":329019306},{"NoteNumber":37,"Velocity":41,"Duration":103435,"SoundDuration":103435,"Delta":329019306},{"NoteNumber":51,"Velocity":35,"Duration":103435,"SoundDuration":103435,"Delta":329123610},{"NoteNumber":44,"Velocity":39,"Duration":101357,"SoundDuration":101357,"Delta":329227915},{"NoteNumber":64,"Velocity":47,"Duration":67897,"SoundDuration":67897,"Delta":329330088},{"NoteNumber":51,"Velocity":34,"Duration":134664,"SoundDuration":134664,"Delta":329330088},{"NoteNumber":73,"Velocity":53,"Duration":67897,"SoundDuration":67897,"Delta":329397986},{"NoteNumber":80,"Velocity":73,"Duration":685378,"SoundDuration":685378,"Delta":329465884},{"NoteNumber":37,"Velocity":41,"Duration":97095,"SoundDuration":97095,"Delta":329465884},{"NoteNumber":49,"Velocity":33,"Duration":97095,"SoundDuration":97095,"Delta":329563795},{"NoteNumber":44,"Velocity":36,"Duration":97095,"SoundDuration":97095,"Delta":329661706},{"NoteNumber":49,"Velocity":33,"Duration":97095,"SoundDuration":97095,"Delta":329759617},{"NoteNumber":37,"Velocity":42,"Duration":97095,"SoundDuration":97095,"Delta":329857529},{"NoteNumber":49,"Velocity":31,"Duration":97095,"SoundDuration":97095,"Delta":329955440},{"NoteNumber":44,"Velocity":35,"Duration":97095,"SoundDuration":97095,"Delta":330053351},{"NoteNumber":66,"Velocity":45,"Duration":57116,"SoundDuration":57116,"Delta":330151262},{"NoteNumber":49,"Velocity":32,"Duration":113281,"SoundDuration":113281,"Delta":330151262},{"NoteNumber":72,"Velocity":52,"Duration":57116,"SoundDuration":57116,"Delta":330208379},{"NoteNumber":80,"Velocity":72,"Duration":685378,"SoundDuration":685378,"Delta":330265496},{"NoteNumber":37,"Velocity":41,"Duration":97095,"SoundDuration":97095,"Delta":330265496},{"NoteNumber":51,"Velocity":33,"Duration":97095,"SoundDuration":97095,"Delta":330363407},{"NoteNumber":44,"Velocity":37,"Duration":97095,"SoundDuration":97095,"Delta":330461318},{"NoteNumber":51,"Velocity":33,"Duration":97095,"SoundDuration":97095,"Delta":330559230},{"NoteNumber":37,"Velocity":41,"Duration":97095,"SoundDuration":97095,"Delta":330657141},{"NoteNumber":51,"Velocity":33,"Duration":97095,"SoundDuration":97095,"Delta":330755052},{"NoteNumber":44,"Velocity":38,"Duration":97095,"SoundDuration":97095,"Delta":330852963},{"NoteNumber":64,"Velocity":43,"Duration":64256,"SoundDuration":64256,"Delta":330950875},{"NoteNumber":51,"Velocity":34,"Duration":127441,"SoundDuration":127441,"Delta":330950875},{"NoteNumber":73,"Velocity":53,"Duration":64256,"SoundDuration":64256,"Delta":331015131},{"NoteNumber":80,"Velocity":72,"Duration":685378,"SoundDuration":685378,"Delta":331079387},{"NoteNumber":37,"Velocity":41,"Duration":97095,"SoundDuration":97095,"Delta":331079387},{"NoteNumber":49,"Velocity":33,"Duration":97095,"SoundDuration":97095,"Delta":331177299},{"NoteNumber":44,"Velocity":36,"Duration":97095,"SoundDuration":97095,"Delta":331275210},{"NoteNumber":49,"Velocity":32,"Duration":97095,"SoundDuration":97095,"Delta":331373121},{"NoteNumber":37,"Velocity":41,"Duration":97095,"SoundDuration":97095,"Delta":331471032},{"NoteNumber":49,"Velocity":33,"Duration":97095,"SoundDuration":97095,"Delta":331568944},{"NoteNumber":44,"Velocity":36,"Duration":97095,"SoundDuration":97095,"Delta":331666855},{"NoteNumber":66,"Velocity":45,"Duration":48955,"SoundDuration":48955,"Delta":331764766},{"NoteNumber":49,"Velocity":33,"Duration":97095,"SoundDuration":97095,"Delta":331764766},{"NoteNumber":72,"Velocity":53,"Duration":48955,"SoundDuration":48955,"Delta":331813722},{"NoteNumber":80,"Velocity":71,"Duration":783289,"SoundDuration":783289,"Delta":331862677},{"NoteNumber":37,"Velocity":41,"Duration":97095,"SoundDuration":97095,"Delta":331862677},{"NoteNumber":51,"Velocity":33,"Duration":97095,"SoundDuration":97095,"Delta":331960589},{"NoteNumber":44,"Velocity":37,"Duration":97095,"SoundDuration":97095,"Delta":332058500},{"NoteNumber":51,"Velocity":33,"Duration":97095,"SoundDuration":97095,"Delta":332156411},{"NoteNumber":37,"Velocity":41,"Duration":97095,"SoundDuration":97095,"Delta":332254322},{"NoteNumber":51,"Velocity":33,"Duration":97095,"SoundDuration":97095,"Delta":332352234},{"NoteNumber":44,"Velocity":37,"Duration":97095,"SoundDuration":97095,"Delta":332450145},{"NoteNumber":51,"Velocity":34,"Duration":97095,"SoundDuration":97095,"Delta":332548056},{"NoteNumber":52,"Velocity":51,"Duration":101434,"SoundDuration":101434,"Delta":332645967},{"NoteNumber":37,"Velocity":41,"Duration":101434,"SoundDuration":101434,"Delta":332645967},{"NoteNumber":61,"Velocity":48,"Duration":100667,"SoundDuration":100667,"Delta":332748252},{"NoteNumber":49,"Velocity":39,"Duration":100667,"SoundDuration":100667,"Delta":332748252},{"NoteNumber":56,"Velocity":51,"Duration":99812,"SoundDuration":99812,"Delta":332849759},{"NoteNumber":44,"Velocity":43,"Duration":99812,"SoundDuration":99812,"Delta":332849759},{"NoteNumber":61,"Velocity":49,"Duration":99812,"SoundDuration":99812,"Delta":332950410},{"NoteNumber":49,"Velocity":42,"Duration":99812,"SoundDuration":99812,"Delta":332950410},{"NoteNumber":52,"Velocity":53,"Duration":99812,"SoundDuration":99812,"Delta":333051061},{"NoteNumber":37,"Velocity":45,"Duration":99812,"SoundDuration":99812,"Delta":333051061},{"NoteNumber":61,"Velocity":51,"Duration":99812,"SoundDuration":99812,"Delta":333151712},{"NoteNumber":49,"Velocity":43,"Duration":99812,"SoundDuration":99812,"Delta":333151712},{"NoteNumber":56,"Velocity":56,"Duration":99812,"SoundDuration":99812,"Delta":333252363},{"NoteNumber":44,"Velocity":47,"Duration":99812,"SoundDuration":99812,"Delta":333252363},{"NoteNumber":61,"Velocity":52,"Duration":99172,"SoundDuration":99172,"Delta":333353014},{"NoteNumber":49,"Velocity":43,"Duration":99172,"SoundDuration":99172,"Delta":333353014},{"NoteNumber":52,"Velocity":57,"Duration":97810,"SoundDuration":97810,"Delta":333453014},{"NoteNumber":37,"Velocity":48,"Duration":97810,"SoundDuration":97810,"Delta":333453014},{"NoteNumber":61,"Velocity":53,"Duration":97765,"SoundDuration":97765,"Delta":333551645},{"NoteNumber":49,"Velocity":45,"Duration":97765,"SoundDuration":97765,"Delta":333551645},{"NoteNumber":56,"Velocity":59,"Duration":97765,"SoundDuration":97765,"Delta":333650232},{"NoteNumber":44,"Velocity":50,"Duration":97765,"SoundDuration":97765,"Delta":333650232},{"NoteNumber":61,"Velocity":56,"Duration":97765,"SoundDuration":97765,"Delta":333748819},{"NoteNumber":49,"Velocity":45,"Duration":97765,"SoundDuration":97765,"Delta":333748819},{"NoteNumber":52,"Velocity":61,"Duration":97765,"SoundDuration":97765,"Delta":333847406},{"NoteNumber":37,"Velocity":51,"Duration":97765,"SoundDuration":97765,"Delta":333847406},{"NoteNumber":61,"Velocity":57,"Duration":97331,"SoundDuration":97331,"Delta":333945993},{"NoteNumber":49,"Velocity":47,"Duration":97331,"SoundDuration":97331,"Delta":333945993},{"NoteNumber":56,"Velocity":62,"Duration":96440,"SoundDuration":96440,"Delta":334044135},{"NoteNumber":44,"Velocity":52,"Duration":96440,"SoundDuration":96440,"Delta":334044135},{"NoteNumber":61,"Velocity":57,"Duration":96440,"SoundDuration":96440,"Delta":334141386},{"NoteNumber":49,"Velocity":49,"Duration":96440,"SoundDuration":96440,"Delta":334141386},{"NoteNumber":53,"Velocity":65,"Duration":96440,"SoundDuration":96440,"Delta":334238637},{"NoteNumber":49,"Velocity":65,"Duration":96440,"SoundDuration":96440,"Delta":334238637},{"NoteNumber":35,"Velocity":55,"Duration":96440,"SoundDuration":96440,"Delta":334238637},{"NoteNumber":61,"Velocity":58,"Duration":96440,"SoundDuration":96440,"Delta":334335888},{"NoteNumber":47,"Velocity":50,"Duration":96440,"SoundDuration":96440,"Delta":334335888},{"NoteNumber":56,"Velocity":67,"Duration":95255,"SoundDuration":95255,"Delta":334433139},{"NoteNumber":37,"Velocity":56,"Duration":95255,"SoundDuration":95255,"Delta":334433139},{"NoteNumber":61,"Velocity":60,"Duration":93289,"SoundDuration":93289,"Delta":334529184},{"NoteNumber":47,"Velocity":51,"Duration":93289,"SoundDuration":93289,"Delta":334529184},{"NoteNumber":53,"Velocity":68,"Duration":93289,"SoundDuration":93289,"Delta":334623257},{"NoteNumber":49,"Velocity":68,"Duration":93289,"SoundDuration":93289,"Delta":334623257},{"NoteNumber":35,"Velocity":57,"Duration":93289,"SoundDuration":93289,"Delta":334623257},{"NoteNumber":61,"Velocity":61,"Duration":93289,"SoundDuration":93289,"Delta":334717331},{"NoteNumber":47,"Velocity":52,"Duration":93289,"SoundDuration":93289,"Delta":334717331},{"NoteNumber":56,"Velocity":69,"Duration":93289,"SoundDuration":93289,"Delta":334811404},{"NoteNumber":37,"Velocity":58,"Duration":93289,"SoundDuration":93289,"Delta":334811404},{"NoteNumber":61,"Velocity":65,"Duration":93289,"SoundDuration":93289,"Delta":334905478},{"NoteNumber":47,"Velocity":53,"Duration":93289,"SoundDuration":93289,"Delta":334905478},{"NoteNumber":53,"Velocity":72,"Duration":91740,"SoundDuration":91740,"Delta":334999551},{"NoteNumber":49,"Velocity":72,"Duration":91740,"SoundDuration":91740,"Delta":334999551},{"NoteNumber":35,"Velocity":61,"Duration":91740,"SoundDuration":91740,"Delta":334999551},{"NoteNumber":61,"Velocity":67,"Duration":90376,"SoundDuration":90376,"Delta":335092056},{"NoteNumber":47,"Velocity":57,"Duration":90376,"SoundDuration":90376,"Delta":335092056},{"NoteNumber":56,"Velocity":73,"Duration":90337,"SoundDuration":90337,"Delta":335183191},{"NoteNumber":37,"Velocity":62,"Duration":90337,"SoundDuration":90337,"Delta":335183191},{"NoteNumber":61,"Velocity":68,"Duration":89880,"SoundDuration":89880,"Delta":335274288},{"NoteNumber":47,"Velocity":57,"Duration":89880,"SoundDuration":89880,"Delta":335274288},{"NoteNumber":49,"Velocity":74,"Duration":89765,"SoundDuration":89765,"Delta":335364923},{"NoteNumber":53,"Velocity":74,"Duration":89765,"SoundDuration":89765,"Delta":335364923},{"NoteNumber":35,"Velocity":62,"Duration":89765,"SoundDuration":89765,"Delta":335364923},{"NoteNumber":61,"Velocity":70,"Duration":89765,"SoundDuration":89765,"Delta":335455442},{"NoteNumber":47,"Velocity":58,"Duration":89765,"SoundDuration":89765,"Delta":335455442},{"NoteNumber":56,"Velocity":76,"Duration":89765,"SoundDuration":89765,"Delta":335545962},{"NoteNumber":37,"Velocity":64,"Duration":89765,"SoundDuration":89765,"Delta":335545962},{"NoteNumber":61,"Velocity":71,"Duration":76941,"SoundDuration":76941,"Delta":335636481},{"NoteNumber":47,"Velocity":60,"Duration":76941,"SoundDuration":76941,"Delta":335636481},{"NoteNumber":54,"Velocity":67,"Duration":89960,"SoundDuration":89960,"Delta":335727001},{"NoteNumber":61,"Velocity":79,"Duration":89960,"SoundDuration":89960,"Delta":335727001},{"NoteNumber":49,"Velocity":67,"Duration":89960,"SoundDuration":89960,"Delta":335727001},{"NoteNumber":57,"Velocity":67,"Duration":89960,"SoundDuration":89960,"Delta":335727001},{"NoteNumber":33,"Velocity":56,"Duration":89960,"SoundDuration":89960,"Delta":335727001},{"NoteNumber":45,"Velocity":67,"Duration":89960,"SoundDuration":89960,"Delta":335727001},{"NoteNumber":49,"Velocity":53,"Duration":104953,"SoundDuration":104953,"Delta":335816961},{"NoteNumber":54,"Velocity":56,"Duration":104953,"SoundDuration":104953,"Delta":335906922},{"NoteNumber":42,"Velocity":39,"Duration":89960,"SoundDuration":89960,"Delta":335906922},{"NoteNumber":57,"Velocity":57,"Duration":104953,"SoundDuration":104953,"Delta":335996882},{"NoteNumber":61,"Velocity":59,"Duration":104953,"SoundDuration":104953,"Delta":336086843},{"NoteNumber":33,"Velocity":39,"Duration":89960,"SoundDuration":89960,"Delta":336086843},{"NoteNumber":54,"Velocity":54,"Duration":104953,"SoundDuration":104953,"Delta":336176803},{"NoteNumber":57,"Velocity":54,"Duration":104953,"SoundDuration":104953,"Delta":336266764},{"NoteNumber":42,"Velocity":36,"Duration":89960,"SoundDuration":89960,"Delta":336266764},{"NoteNumber":61,"Velocity":56,"Duration":104953,"SoundDuration":104953,"Delta":336356724},{"NoteNumber":66,"Velocity":57,"Duration":104953,"SoundDuration":104953,"Delta":336446685},{"NoteNumber":33,"Velocity":39,"Duration":89960,"SoundDuration":89960,"Delta":336446685},{"NoteNumber":57,"Velocity":53,"Duration":104953,"SoundDuration":104953,"Delta":336536645},{"NoteNumber":61,"Velocity":56,"Duration":104953,"SoundDuration":104953,"Delta":336626606},{"NoteNumber":42,"Velocity":35,"Duration":89960,"SoundDuration":89960,"Delta":336626606},{"NoteNumber":66,"Velocity":57,"Duration":104953,"SoundDuration":104953,"Delta":336716566},{"NoteNumber":69,"Velocity":58,"Duration":104953,"SoundDuration":104953,"Delta":336806527},{"NoteNumber":33,"Velocity":39,"Duration":89960,"SoundDuration":89960,"Delta":336806527},{"NoteNumber":61,"Velocity":53,"Duration":104953,"SoundDuration":104953,"Delta":336896487},{"NoteNumber":66,"Velocity":53,"Duration":104953,"SoundDuration":104953,"Delta":336986448},{"NoteNumber":42,"Velocity":35,"Duration":89960,"SoundDuration":89960,"Delta":336986448},{"NoteNumber":69,"Velocity":54,"Duration":104953,"SoundDuration":104953,"Delta":337076408},{"NoteNumber":73,"Velocity":57,"Duration":104953,"SoundDuration":104953,"Delta":337166369},{"NoteNumber":33,"Velocity":39,"Duration":89960,"SoundDuration":89960,"Delta":337166369},{"NoteNumber":66,"Velocity":58,"Duration":104953,"SoundDuration":104953,"Delta":337256329},{"NoteNumber":69,"Velocity":51,"Duration":104953,"SoundDuration":104953,"Delta":337346290},{"NoteNumber":42,"Velocity":40,"Duration":89960,"SoundDuration":89960,"Delta":337346290},{"NoteNumber":73,"Velocity":52,"Duration":104953,"SoundDuration":104953,"Delta":337436250},{"NoteNumber":78,"Velocity":56,"Duration":104953,"SoundDuration":104953,"Delta":337526211},{"NoteNumber":33,"Velocity":40,"Duration":89960,"SoundDuration":89960,"Delta":337526211},{"NoteNumber":69,"Velocity":51,"Duration":104953,"SoundDuration":104953,"Delta":337616171},{"NoteNumber":73,"Velocity":51,"Duration":104953,"SoundDuration":104953,"Delta":337706132},{"NoteNumber":42,"Velocity":40,"Duration":89960,"SoundDuration":89960,"Delta":337706132},{"NoteNumber":78,"Velocity":53,"Duration":104953,"SoundDuration":104953,"Delta":337796092},{"NoteNumber":81,"Velocity":56,"Duration":104953,"SoundDuration":104953,"Delta":337886053},{"NoteNumber":33,"Velocity":40,"Duration":89960,"SoundDuration":89960,"Delta":337886053},{"NoteNumber":73,"Velocity":51,"Duration":104953,"SoundDuration":104953,"Delta":337976013},{"NoteNumber":78,"Velocity":54,"Duration":104953,"SoundDuration":104953,"Delta":338065974},{"NoteNumber":42,"Velocity":36,"Duration":89960,"SoundDuration":89960,"Delta":338065974},{"NoteNumber":81,"Velocity":57,"Duration":89960,"SoundDuration":89960,"Delta":338155934},{"NoteNumber":85,"Velocity":98,"Duration":93761,"SoundDuration":93761,"Delta":338245895},{"NoteNumber":73,"Velocity":83,"Duration":93761,"SoundDuration":93761,"Delta":338245895},{"NoteNumber":81,"Velocity":98,"Duration":93761,"SoundDuration":93761,"Delta":338245895},{"NoteNumber":78,"Velocity":83,"Duration":93761,"SoundDuration":93761,"Delta":338245895},{"NoteNumber":45,"Velocity":81,"Duration":93761,"SoundDuration":93761,"Delta":338245895},{"NoteNumber":33,"Velocity":69,"Duration":93761,"SoundDuration":93761,"Delta":338245895},{"NoteNumber":81,"Velocity":81,"Duration":93761,"SoundDuration":93761,"Delta":338433418},{"NoteNumber":78,"Velocity":69,"Duration":93761,"SoundDuration":93761,"Delta":338433418},{"NoteNumber":85,"Velocity":81,"Duration":93761,"SoundDuration":93761,"Delta":338433418},{"NoteNumber":73,"Velocity":69,"Duration":93761,"SoundDuration":93761,"Delta":338433418},{"NoteNumber":42,"Velocity":69,"Duration":93761,"SoundDuration":93761,"Delta":338433418},{"NoteNumber":32,"Velocity":52,"Duration":90735,"SoundDuration":90735,"Delta":338620942},{"NoteNumber":49,"Velocity":58,"Duration":105606,"SoundDuration":105606,"Delta":338711677},{"NoteNumber":52,"Velocity":60,"Duration":105606,"SoundDuration":105606,"Delta":338802197},{"NoteNumber":40,"Velocity":47,"Duration":90519,"SoundDuration":90519,"Delta":338802197},{"NoteNumber":56,"Velocity":62,"Duration":105606,"SoundDuration":105606,"Delta":338892716},{"NoteNumber":61,"Velocity":65,"Duration":105606,"SoundDuration":105606,"Delta":338983236},{"NoteNumber":32,"Velocity":52,"Duration":90519,"SoundDuration":90519,"Delta":338983236},{"NoteNumber":52,"Velocity":60,"Duration":105606,"SoundDuration":105606,"Delta":339073755},{"NoteNumber":56,"Velocity":62,"Duration":105606,"SoundDuration":105606,"Delta":339164275},{"NoteNumber":40,"Velocity":48,"Duration":90519,"SoundDuration":90519,"Delta":339164275},{"NoteNumber":61,"Velocity":63,"Duration":105606,"SoundDuration":105606,"Delta":339254794},{"NoteNumber":64,"Velocity":66,"Duration":105606,"SoundDuration":105606,"Delta":339345314},{"NoteNumber":32,"Velocity":52,"Duration":90519,"SoundDuration":90519,"Delta":339345314},{"NoteNumber":56,"Velocity":61,"Duration":105606,"SoundDuration":105606,"Delta":339435833},{"NoteNumber":61,"Velocity":62,"Duration":105606,"SoundDuration":105606,"Delta":339526353},{"NoteNumber":40,"Velocity":48,"Duration":90519,"SoundDuration":90519,"Delta":339526353},{"NoteNumber":64,"Velocity":63,"Duration":105606,"SoundDuration":105606,"Delta":339616872},{"NoteNumber":68,"Velocity":67,"Duration":105606,"SoundDuration":105606,"Delta":339707392},{"NoteNumber":32,"Velocity":52,"Duration":90519,"SoundDuration":90519,"Delta":339707392},{"NoteNumber":61,"Velocity":61,"Duration":105606,"SoundDuration":105606,"Delta":339797911},{"NoteNumber":64,"Velocity":62,"Duration":105606,"SoundDuration":105606,"Delta":339888431},{"NoteNumber":40,"Velocity":52,"Duration":90519,"SoundDuration":90519,"Delta":339888431},{"NoteNumber":68,"Velocity":63,"Duration":105606,"SoundDuration":105606,"Delta":339978950},{"NoteNumber":73,"Velocity":66,"Duration":105606,"SoundDuration":105606,"Delta":340069470},{"NoteNumber":32,"Velocity":52,"Duration":90519,"SoundDuration":90519,"Delta":340069470},{"NoteNumber":64,"Velocity":63,"Duration":105606,"SoundDuration":105606,"Delta":340159989},{"NoteNumber":68,"Velocity":63,"Duration":105606,"SoundDuration":105606,"Delta":340250509},{"NoteNumber":40,"Velocity":52,"Duration":90519,"SoundDuration":90519,"Delta":340250509},{"NoteNumber":73,"Velocity":62,"Duration":105606,"SoundDuration":105606,"Delta":340341028},{"NoteNumber":76,"Velocity":66,"Duration":105606,"SoundDuration":105606,"Delta":340431548},{"NoteNumber":32,"Velocity":52,"Duration":90519,"SoundDuration":90519,"Delta":340431548},{"NoteNumber":68,"Velocity":62,"Duration":105606,"SoundDuration":105606,"Delta":340522067},{"NoteNumber":73,"Velocity":62,"Duration":105606,"SoundDuration":105606,"Delta":340612587},{"NoteNumber":40,"Velocity":48,"Duration":90519,"SoundDuration":90519,"Delta":340612587},{"NoteNumber":76,"Velocity":67,"Duration":105606,"SoundDuration":105606,"Delta":340703106},{"NoteNumber":80,"Velocity":68,"Duration":105606,"SoundDuration":105606,"Delta":340793626},{"NoteNumber":32,"Velocity":52,"Duration":90519,"SoundDuration":90519,"Delta":340793626},{"NoteNumber":73,"Velocity":62,"Duration":105606,"SoundDuration":105606,"Delta":340884145},{"NoteNumber":76,"Velocity":66,"Duration":105606,"SoundDuration":105606,"Delta":340974665},{"NoteNumber":40,"Velocity":48,"Duration":90519,"SoundDuration":90519,"Delta":340974665},{"NoteNumber":80,"Velocity":68,"Duration":90519,"SoundDuration":90519,"Delta":341065184},{"NoteNumber":85,"Velocity":109,"Duration":99608,"SoundDuration":99608,"Delta":341155704},{"NoteNumber":76,"Velocity":92,"Duration":99608,"SoundDuration":99608,"Delta":341155704},{"NoteNumber":73,"Velocity":92,"Duration":99608,"SoundDuration":99608,"Delta":341155704},{"NoteNumber":80,"Velocity":109,"Duration":99608,"SoundDuration":99608,"Delta":341155704},{"NoteNumber":32,"Velocity":72,"Duration":99608,"SoundDuration":99608,"Delta":341155704},{"NoteNumber":44,"Velocity":86,"Duration":99608,"SoundDuration":99608,"Delta":341155704},{"NoteNumber":73,"Velocity":81,"Duration":143939,"SoundDuration":143939,"Delta":341354920},{"NoteNumber":76,"Velocity":81,"Duration":143939,"SoundDuration":143939,"Delta":341354920},{"NoteNumber":80,"Velocity":96,"Duration":143939,"SoundDuration":143939,"Delta":341354920},{"NoteNumber":85,"Velocity":96,"Duration":143939,"SoundDuration":143939,"Delta":341354920},{"NoteNumber":40,"Velocity":77,"Duration":143939,"SoundDuration":143939,"Delta":341354920},{"NoteNumber":31,"Velocity":39,"Duration":708661,"SoundDuration":708661,"Delta":341642800},{"NoteNumber":49,"Velocity":31,"Duration":944882,"SoundDuration":944882,"Delta":341879021},{"NoteNumber":52,"Velocity":33,"Duration":885826,"SoundDuration":885826,"Delta":341938076},{"NoteNumber":55,"Velocity":35,"Duration":826771,"SoundDuration":826771,"Delta":341997131},{"NoteNumber":58,"Velocity":39,"Duration":767716,"SoundDuration":767716,"Delta":342056186},{"NoteNumber":61,"Velocity":45,"Duration":708661,"SoundDuration":708661,"Delta":342115241},{"NoteNumber":31,"Velocity":45,"Duration":944882,"SoundDuration":944882,"Delta":342351462},{"NoteNumber":34,"Velocity":47,"Duration":885826,"SoundDuration":885826,"Delta":342410517},{"NoteNumber":37,"Velocity":50,"Duration":826771,"SoundDuration":826771,"Delta":342469572},{"NoteNumber":40,"Velocity":51,"Duration":767716,"SoundDuration":767716,"Delta":342528627},{"NoteNumber":43,"Velocity":53,"Duration":708661,"SoundDuration":708661,"Delta":342587682},{"NoteNumber":61,"Velocity":53,"Duration":949625,"SoundDuration":949625,"Delta":342823903},{"NoteNumber":64,"Velocity":56,"Duration":890570,"SoundDuration":890570,"Delta":342882958},{"NoteNumber":67,"Velocity":58,"Duration":831515,"SoundDuration":831515,"Delta":342942013},{"NoteNumber":70,"Velocity":61,"Duration":772460,"SoundDuration":772460,"Delta":343001068},{"NoteNumber":73,"Velocity":62,"Duration":472441,"SoundDuration":472441,"Delta":343060123},{"NoteNumber":43,"Velocity":51,"Duration":718148,"SoundDuration":718148,"Delta":343296344},{"NoteNumber":46,"Velocity":56,"Duration":659093,"SoundDuration":659093,"Delta":343355399},{"NoteNumber":49,"Velocity":58,"Duration":600038,"SoundDuration":600038,"Delta":343414454},{"NoteNumber":52,"Velocity":61,"Duration":540983,"SoundDuration":540983,"Delta":343473509},{"NoteNumber":55,"Velocity":63,"Duration":240964,"SoundDuration":240964,"Delta":343532564},{"NoteNumber":73,"Velocity":66,"Duration":2180588,"SoundDuration":2180588,"Delta":343773528},{"NoteNumber":76,"Velocity":68,"Duration":2120347,"SoundDuration":2120347,"Delta":343833769},{"NoteNumber":79,"Velocity":73,"Duration":2060106,"SoundDuration":2060106,"Delta":343894010},{"NoteNumber":82,"Velocity":76,"Duration":1999864,"SoundDuration":1999864,"Delta":343954251},{"NoteNumber":85,"Velocity":79,"Duration":1939624,"SoundDuration":1939624,"Delta":344014492},{"NoteNumber":64,"Velocity":79,"Duration":1939624,"SoundDuration":1939624,"Delta":344014492},{"NoteNumber":61,"Velocity":79,"Duration":1939624,"SoundDuration":1939624,"Delta":344014492},{"NoteNumber":55,"Velocity":67,"Duration":1939624,"SoundDuration":1939624,"Delta":344014492},{"NoteNumber":58,"Velocity":67,"Duration":1939624,"SoundDuration":1939624,"Delta":344014492},{"NoteNumber":30,"Velocity":47,"Duration":708661,"SoundDuration":708661,"Delta":345954116},{"NoteNumber":45,"Velocity":29,"Duration":944882,"SoundDuration":944882,"Delta":346190337},{"NoteNumber":48,"Velocity":32,"Duration":885826,"SoundDuration":885826,"Delta":346249392},{"NoteNumber":51,"Velocity":35,"Duration":826771,"SoundDuration":826771,"Delta":346308447},{"NoteNumber":54,"Velocity":38,"Duration":767716,"SoundDuration":767716,"Delta":346367502},{"NoteNumber":57,"Velocity":41,"Duration":708661,"SoundDuration":708661,"Delta":346426557},{"NoteNumber":30,"Velocity":41,"Duration":944882,"SoundDuration":944882,"Delta":346662778},{"NoteNumber":33,"Velocity":43,"Duration":885826,"SoundDuration":885826,"Delta":346721833},{"NoteNumber":36,"Velocity":47,"Duration":826771,"SoundDuration":826771,"Delta":346780888},{"NoteNumber":39,"Velocity":49,"Duration":767716,"SoundDuration":767716,"Delta":346839943},{"NoteNumber":42,"Velocity":52,"Duration":708661,"SoundDuration":708661,"Delta":346898998},{"NoteNumber":57,"Velocity":56,"Duration":949625,"SoundDuration":949625,"Delta":347135219},{"NoteNumber":60,"Velocity":57,"Duration":890570,"SoundDuration":890570,"Delta":347194274},{"NoteNumber":63,"Velocity":58,"Duration":831515,"SoundDuration":831515,"Delta":347253329},{"NoteNumber":66,"Velocity":59,"Duration":772460,"SoundDuration":772460,"Delta":347312384},{"NoteNumber":69,"Velocity":62,"Duration":472441,"SoundDuration":472441,"Delta":347371439},{"NoteNumber":42,"Velocity":54,"Duration":718148,"SoundDuration":718148,"Delta":347607660},{"NoteNumber":45,"Velocity":56,"Duration":659093,"SoundDuration":659093,"Delta":347666715},{"NoteNumber":48,"Velocity":58,"Duration":600038,"SoundDuration":600038,"Delta":347725770},{"NoteNumber":51,"Velocity":61,"Duration":540983,"SoundDuration":540983,"Delta":347784825},{"NoteNumber":54,"Velocity":62,"Duration":240964,"SoundDuration":240964,"Delta":347843880},{"NoteNumber":69,"Velocity":73,"Duration":2292839,"SoundDuration":2292839,"Delta":347964362},{"NoteNumber":72,"Velocity":77,"Duration":2172357,"SoundDuration":2172357,"Delta":348084844},{"NoteNumber":75,"Velocity":79,"Duration":2051875,"SoundDuration":2051875,"Delta":348205326},{"NoteNumber":81,"Velocity":91,"Duration":1931393,"SoundDuration":1931393,"Delta":348325808},{"NoteNumber":63,"Velocity":79,"Duration":1931393,"SoundDuration":1931393,"Delta":348325808},{"NoteNumber":57,"Velocity":67,"Duration":1931393,"SoundDuration":1931393,"Delta":348325808},{"NoteNumber":54,"Velocity":67,"Duration":1931393,"SoundDuration":1931393,"Delta":348325808},{"NoteNumber":60,"Velocity":79,"Duration":1931393,"SoundDuration":1931393,"Delta":348325808},{"NoteNumber":49,"Velocity":41,"Duration":207842,"SoundDuration":207842,"Delta":350257202},{"NoteNumber":68,"Velocity":31,"Duration":121241,"SoundDuration":121241,"Delta":350361123},{"NoteNumber":64,"Velocity":34,"Duration":121241,"SoundDuration":121241,"Delta":350465044},{"NoteNumber":68,"Velocity":30,"Duration":119703,"SoundDuration":119703,"Delta":350568965},{"NoteNumber":61,"Velocity":39,"Duration":93901,"SoundDuration":93901,"Delta":350672887},{"NoteNumber":56,"Velocity":56,"Duration":747651,"SoundDuration":747651,"Delta":350672887},{"NoteNumber":68,"Velocity":30,"Duration":93594,"SoundDuration":93594,"Delta":350767578},{"NoteNumber":64,"Velocity":34,"Duration":93188,"SoundDuration":93188,"Delta":350861959},{"NoteNumber":68,"Velocity":30,"Duration":92883,"SoundDuration":92883,"Delta":350955929},{"NoteNumber":61,"Velocity":39,"Duration":92486,"SoundDuration":92486,"Delta":351049591},{"NoteNumber":68,"Velocity":31,"Duration":92188,"SoundDuration":92188,"Delta":351142854},{"NoteNumber":64,"Velocity":34,"Duration":91786,"SoundDuration":91786,"Delta":351235816},{"NoteNumber":68,"Velocity":30,"Duration":91397,"SoundDuration":91397,"Delta":351328374},{"NoteNumber":61,"Velocity":39,"Duration":97432,"SoundDuration":97432,"Delta":351420538},{"NoteNumber":52,"Velocity":48,"Duration":294753,"SoundDuration":294753,"Delta":351420538},{"NoteNumber":68,"Velocity":31,"Duration":97432,"SoundDuration":97432,"Delta":351518789},{"NoteNumber":64,"Velocity":34,"Duration":97432,"SoundDuration":97432,"Delta":351617040},{"NoteNumber":68,"Velocity":31,"Duration":97432,"SoundDuration":97432,"Delta":351715292},{"NoteNumber":49,"Velocity":48,"Duration":94157,"SoundDuration":94157,"Delta":351715292},{"NoteNumber":63,"Velocity":39,"Duration":114626,"SoundDuration":114626,"Delta":351813543},{"NoteNumber":49,"Velocity":54,"Duration":393004,"SoundDuration":393004,"Delta":351813543},{"NoteNumber":68,"Velocity":31,"Duration":114626,"SoundDuration":114626,"Delta":351911794},{"NoteNumber":66,"Velocity":34,"Duration":114626,"SoundDuration":114626,"Delta":352010045},{"NoteNumber":68,"Velocity":30,"Duration":113337,"SoundDuration":113337,"Delta":352108297},{"NoteNumber":63,"Velocity":50,"Duration":89765,"SoundDuration":89765,"Delta":352206548},{"NoteNumber":48,"Velocity":47,"Duration":543116,"SoundDuration":543116,"Delta":352206548},{"NoteNumber":68,"Velocity":43,"Duration":89765,"SoundDuration":89765,"Delta":352297067},{"NoteNumber":66,"Velocity":47,"Duration":89765,"SoundDuration":89765,"Delta":352387587},{"NoteNumber":68,"Velocity":44,"Duration":89765,"SoundDuration":89765,"Delta":352478106},{"NoteNumber":63,"Velocity":58,"Duration":89765,"SoundDuration":89765,"Delta":352568626},{"NoteNumber":68,"Velocity":46,"Duration":89765,"SoundDuration":89765,"Delta":352659145},{"NoteNumber":66,"Velocity":54,"Duration":89765,"SoundDuration":89765,"Delta":352749665},{"NoteNumber":48,"Velocity":47,"Duration":181038,"SoundDuration":181038,"Delta":352749665},{"NoteNumber":68,"Velocity":51,"Duration":89765,"SoundDuration":89765,"Delta":352840184},{"NoteNumber":63,"Velocity":66,"Duration":97432,"SoundDuration":97432,"Delta":352930704},{"NoteNumber":56,"Velocity":56,"Duration":294753,"SoundDuration":294753,"Delta":352930704},{"NoteNumber":68,"Velocity":49,"Duration":97432,"SoundDuration":97432,"Delta":353028955},{"NoteNumber":66,"Velocity":51,"Duration":97432,"SoundDuration":97432,"Delta":353127206},{"NoteNumber":68,"Velocity":43,"Duration":97432,"SoundDuration":97432,"Delta":353225458},{"NoteNumber":48,"Velocity":47,"Duration":98251,"SoundDuration":98251,"Delta":353225458},{"NoteNumber":61,"Velocity":39,"Duration":117837,"SoundDuration":117837,"Delta":353323709},{"NoteNumber":51,"Velocity":43,"Duration":404013,"SoundDuration":404013,"Delta":353323709},{"NoteNumber":68,"Velocity":30,"Duration":117837,"SoundDuration":117837,"Delta":353424712},{"NoteNumber":64,"Velocity":34,"Duration":117837,"SoundDuration":117837,"Delta":353525715},{"NoteNumber":68,"Velocity":31,"Duration":116089,"SoundDuration":116089,"Delta":353626719},{"NoteNumber":61,"Velocity":50,"Duration":89765,"SoundDuration":89765,"Delta":353727722},{"NoteNumber":49,"Velocity":47,"Duration":543116,"SoundDuration":543116,"Delta":353727722},{"NoteNumber":68,"Velocity":40,"Duration":89765,"SoundDuration":89765,"Delta":353818241},{"NoteNumber":64,"Velocity":47,"Duration":89765,"SoundDuration":89765,"Delta":353908761},{"NoteNumber":68,"Velocity":43,"Duration":89765,"SoundDuration":89765,"Delta":353999280},{"NoteNumber":61,"Velocity":58,"Duration":89765,"SoundDuration":89765,"Delta":354089800},{"NoteNumber":68,"Velocity":48,"Duration":89765,"SoundDuration":89765,"Delta":354180319},{"NoteNumber":64,"Velocity":54,"Duration":102685,"SoundDuration":102685,"Delta":354270839},{"NoteNumber":49,"Velocity":48,"Duration":207096,"SoundDuration":207096,"Delta":354270839},{"NoteNumber":68,"Velocity":49,"Duration":102685,"SoundDuration":102685,"Delta":354374387},{"NoteNumber":61,"Velocity":66,"Duration":102685,"SoundDuration":102685,"Delta":354477935},{"NoteNumber":56,"Velocity":53,"Duration":310644,"SoundDuration":310644,"Delta":354477935},{"NoteNumber":68,"Velocity":49,"Duration":102685,"SoundDuration":102685,"Delta":354581484},{"NoteNumber":64,"Velocity":51,"Duration":102685,"SoundDuration":102685,"Delta":354685032},{"NoteNumber":68,"Velocity":42,"Duration":102685,"SoundDuration":102685,"Delta":354788580},{"NoteNumber":49,"Velocity":47,"Duration":103548,"SoundDuration":103548,"Delta":354788580},{"NoteNumber":60,"Velocity":39,"Duration":117837,"SoundDuration":117837,"Delta":354892128},{"NoteNumber":52,"Velocity":43,"Duration":404013,"SoundDuration":404013,"Delta":354892128},{"NoteNumber":68,"Velocity":29,"Duration":117837,"SoundDuration":117837,"Delta":354993132},{"NoteNumber":66,"Velocity":34,"Duration":117837,"SoundDuration":117837,"Delta":355094135},{"NoteNumber":68,"Velocity":30,"Duration":116089,"SoundDuration":116089,"Delta":355195138},{"NoteNumber":60,"Velocity":50,"Duration":89765,"SoundDuration":89765,"Delta":355296141},{"NoteNumber":51,"Velocity":47,"Duration":543116,"SoundDuration":543116,"Delta":355296141},{"NoteNumber":68,"Velocity":40,"Duration":89765,"SoundDuration":89765,"Delta":355386661},{"NoteNumber":66,"Velocity":47,"Duration":89765,"SoundDuration":89765,"Delta":355477180},{"NoteNumber":68,"Velocity":43,"Duration":89765,"SoundDuration":89765,"Delta":355567700},{"NoteNumber":60,"Velocity":58,"Duration":89765,"SoundDuration":89765,"Delta":355658219},{"NoteNumber":68,"Velocity":49,"Duration":89765,"SoundDuration":89765,"Delta":355748739},{"NoteNumber":66,"Velocity":54,"Duration":102685,"SoundDuration":102685,"Delta":355839258},{"NoteNumber":51,"Velocity":48,"Duration":207096,"SoundDuration":207096,"Delta":355839258},{"NoteNumber":68,"Velocity":49,"Duration":102685,"SoundDuration":102685,"Delta":355942807},{"NoteNumber":60,"Velocity":66,"Duration":102685,"SoundDuration":102685,"Delta":356046355},{"NoteNumber":56,"Velocity":53,"Duration":310644,"SoundDuration":310644,"Delta":356046355},{"NoteNumber":68,"Velocity":48,"Duration":102685,"SoundDuration":102685,"Delta":356149903},{"NoteNumber":66,"Velocity":51,"Duration":102685,"SoundDuration":102685,"Delta":356253451},{"NoteNumber":68,"Velocity":43,"Duration":88016,"SoundDuration":88016,"Delta":356357000},{"NoteNumber":51,"Velocity":47,"Duration":103548,"SoundDuration":103548,"Delta":356357000},{"NoteNumber":64,"Velocity":41,"Duration":207096,"SoundDuration":207096,"Delta":356460548},{"NoteNumber":68,"Velocity":41,"Duration":207096,"SoundDuration":207096,"Delta":356460548},{"NoteNumber":61,"Velocity":41,"Duration":207096,"SoundDuration":207096,"Delta":356460548},{"NoteNumber":52,"Velocity":40,"Duration":120806,"SoundDuration":120806,"Delta":356460548},{"NoteNumber":56,"Velocity":35,"Duration":120806,"SoundDuration":120806,"Delta":356564096},{"NoteNumber":52,"Velocity":40,"Duration":120806,"SoundDuration":120806,"Delta":356667644},{"NoteNumber":56,"Velocity":34,"Duration":118541,"SoundDuration":118541,"Delta":356771193},{"NoteNumber":80,"Velocity":57,"Duration":719683,"SoundDuration":719683,"Delta":356874741},{"NoteNumber":68,"Velocity":57,"Duration":719683,"SoundDuration":719683,"Delta":356874741},{"NoteNumber":52,"Velocity":47,"Duration":89210,"SoundDuration":89210,"Delta":356874741},{"NoteNumber":56,"Velocity":34,"Duration":89210,"SoundDuration":89210,"Delta":356964701},{"NoteNumber":52,"Velocity":40,"Duration":89210,"SoundDuration":89210,"Delta":357054662},{"NoteNumber":56,"Velocity":34,"Duration":89210,"SoundDuration":89210,"Delta":357144622},{"NoteNumber":52,"Velocity":47,"Duration":89210,"SoundDuration":89210,"Delta":357234583},{"NoteNumber":56,"Velocity":34,"Duration":89210,"SoundDuration":89210,"Delta":357324543},{"NoteNumber":52,"Velocity":39,"Duration":89210,"SoundDuration":89210,"Delta":357414504},{"NoteNumber":56,"Velocity":34,"Duration":89210,"SoundDuration":89210,"Delta":357504464},{"NoteNumber":64,"Velocity":47,"Duration":285026,"SoundDuration":285026,"Delta":357594425},{"NoteNumber":76,"Velocity":47,"Duration":285026,"SoundDuration":285026,"Delta":357594425},{"NoteNumber":52,"Velocity":47,"Duration":94217,"SoundDuration":94217,"Delta":357594425},{"NoteNumber":56,"Velocity":35,"Duration":94217,"SoundDuration":94217,"Delta":357689434},{"NoteNumber":52,"Velocity":40,"Duration":94217,"SoundDuration":94217,"Delta":357784442},{"NoteNumber":61,"Velocity":47,"Duration":91050,"SoundDuration":91050,"Delta":357879451},{"NoteNumber":73,"Velocity":47,"Duration":91050,"SoundDuration":91050,"Delta":357879451},{"NoteNumber":56,"Velocity":34,"Duration":94217,"SoundDuration":94217,"Delta":357879451},{"NoteNumber":73,"Velocity":54,"Duration":380034,"SoundDuration":380034,"Delta":357974460},{"NoteNumber":61,"Velocity":54,"Duration":380034,"SoundDuration":380034,"Delta":357974460},{"NoteNumber":54,"Velocity":47,"Duration":94217,"SoundDuration":94217,"Delta":357974460},{"NoteNumber":56,"Velocity":33,"Duration":94217,"SoundDuration":94217,"Delta":358069469},{"NoteNumber":54,"Velocity":39,"Duration":94217,"SoundDuration":94217,"Delta":358164477},{"NoteNumber":56,"Velocity":34,"Duration":94217,"SoundDuration":94217,"Delta":358259486},{"NoteNumber":72,"Velocity":46,"Duration":541450,"SoundDuration":541450,"Delta":358354495},{"NoteNumber":60,"Velocity":46,"Duration":541450,"SoundDuration":541450,"Delta":358354495},{"NoteNumber":54,"Velocity":55,"Duration":89489,"SoundDuration":89489,"Delta":358354495},{"NoteNumber":56,"Velocity":45,"Duration":89489,"SoundDuration":89489,"Delta":358444737},{"NoteNumber":54,"Velocity":57,"Duration":89489,"SoundDuration":89489,"Delta":358534978},{"NoteNumber":56,"Velocity":53,"Duration":89489,"SoundDuration":89489,"Delta":358625220},{"NoteNumber":54,"Velocity":67,"Duration":89489,"SoundDuration":89489,"Delta":358715462},{"NoteNumber":56,"Velocity":52,"Duration":89489,"SoundDuration":89489,"Delta":358805704},{"NoteNumber":72,"Velocity":47,"Duration":195159,"SoundDuration":195159,"Delta":358895945},{"NoteNumber":60,"Velocity":47,"Duration":195159,"SoundDuration":195159,"Delta":358895945},{"NoteNumber":54,"Velocity":62,"Duration":96766,"SoundDuration":96766,"Delta":358895945},{"NoteNumber":56,"Velocity":56,"Duration":96766,"SoundDuration":96766,"Delta":358993525},{"NoteNumber":80,"Velocity":56,"Duration":306247,"SoundDuration":306247,"Delta":359091105},{"NoteNumber":68,"Velocity":56,"Duration":306247,"SoundDuration":306247,"Delta":359091105},{"NoteNumber":54,"Velocity":71,"Duration":101231,"SoundDuration":101231,"Delta":359091105},{"NoteNumber":56,"Velocity":56,"Duration":101231,"SoundDuration":101231,"Delta":359193188},{"NoteNumber":54,"Velocity":58,"Duration":101231,"SoundDuration":101231,"Delta":359295270},{"NoteNumber":60,"Velocity":47,"Duration":102082,"SoundDuration":102082,"Delta":359397353},{"NoteNumber":72,"Velocity":47,"Duration":102082,"SoundDuration":102082,"Delta":359397353},{"NoteNumber":56,"Velocity":49,"Duration":101231,"SoundDuration":101231,"Delta":359397353},{"NoteNumber":63,"Velocity":46,"Duration":387672,"SoundDuration":387672,"Delta":359499435},{"NoteNumber":75,"Velocity":46,"Duration":387672,"SoundDuration":387672,"Delta":359499435},{"NoteNumber":52,"Velocity":47,"Duration":96110,"SoundDuration":96110,"Delta":359499435},{"NoteNumber":56,"Velocity":34,"Duration":96110,"SoundDuration":96110,"Delta":359596353},{"NoteNumber":52,"Velocity":40,"Duration":96110,"SoundDuration":96110,"Delta":359693271},{"NoteNumber":56,"Velocity":34,"Duration":96110,"SoundDuration":96110,"Delta":359790189},{"NoteNumber":61,"Velocity":47,"Duration":541450,"SoundDuration":541450,"Delta":359887107},{"NoteNumber":73,"Velocity":47,"Duration":541450,"SoundDuration":541450,"Delta":359887107},{"NoteNumber":52,"Velocity":56,"Duration":89489,"SoundDuration":89489,"Delta":359887107},{"NoteNumber":56,"Velocity":47,"Duration":89489,"SoundDuration":89489,"Delta":359977349},{"NoteNumber":52,"Velocity":57,"Duration":89489,"SoundDuration":89489,"Delta":360067591},{"NoteNumber":56,"Velocity":50,"Duration":89489,"SoundDuration":89489,"Delta":360157833},{"NoteNumber":52,"Velocity":68,"Duration":89489,"SoundDuration":89489,"Delta":360248074},{"NoteNumber":56,"Velocity":52,"Duration":89489,"SoundDuration":89489,"Delta":360338316},{"NoteNumber":73,"Velocity":46,"Duration":193199,"SoundDuration":193199,"Delta":360428558},{"NoteNumber":61,"Velocity":46,"Duration":193199,"SoundDuration":193199,"Delta":360428558},{"NoteNumber":52,"Velocity":64,"Duration":95794,"SoundDuration":95794,"Delta":360428558},{"NoteNumber":56,"Velocity":57,"Duration":95794,"SoundDuration":95794,"Delta":360525158},{"NoteNumber":80,"Velocity":56,"Duration":307335,"SoundDuration":307335,"Delta":360621757},{"NoteNumber":68,"Velocity":56,"Duration":307335,"SoundDuration":307335,"Delta":360621757},{"NoteNumber":52,"Velocity":75,"Duration":101591,"SoundDuration":101591,"Delta":360621757},{"NoteNumber":56,"Velocity":56,"Duration":101591,"SoundDuration":101591,"Delta":360724202},{"NoteNumber":52,"Velocity":61,"Duration":101591,"SoundDuration":101591,"Delta":360826647},{"NoteNumber":61,"Velocity":46,"Duration":102444,"SoundDuration":102444,"Delta":360929092},{"NoteNumber":73,"Velocity":46,"Duration":102444,"SoundDuration":102444,"Delta":360929092},{"NoteNumber":56,"Velocity":49,"Duration":101591,"SoundDuration":101591,"Delta":360929092},{"NoteNumber":76,"Velocity":49,"Duration":386398,"SoundDuration":386398,"Delta":361031537},{"NoteNumber":64,"Velocity":49,"Duration":386398,"SoundDuration":386398,"Delta":361031537},{"NoteNumber":48,"Velocity":47,"Duration":95794,"SoundDuration":95794,"Delta":361031537},{"NoteNumber":56,"Velocity":37,"Duration":95794,"SoundDuration":95794,"Delta":361128137},{"NoteNumber":48,"Velocity":41,"Duration":95794,"SoundDuration":95794,"Delta":361224737},{"NoteNumber":56,"Velocity":35,"Duration":95794,"SoundDuration":95794,"Delta":361321337},{"NoteNumber":75,"Velocity":48,"Duration":540668,"SoundDuration":540668,"Delta":361417936},{"NoteNumber":63,"Velocity":48,"Duration":540668,"SoundDuration":540668,"Delta":361417936},{"NoteNumber":48,"Velocity":59,"Duration":89210,"SoundDuration":89210,"Delta":361417936},{"NoteNumber":56,"Velocity":47,"Duration":89210,"SoundDuration":89210,"Delta":361507897},{"NoteNumber":48,"Velocity":56,"Duration":89210,"SoundDuration":89210,"Delta":361597857},{"NoteNumber":56,"Velocity":49,"Duration":89210,"SoundDuration":89210,"Delta":361687818},{"NoteNumber":48,"Velocity":69,"Duration":89210,"SoundDuration":89210,"Delta":361777778},{"NoteNumber":56,"Velocity":52,"Duration":90003,"SoundDuration":90003,"Delta":361867739},{"NoteNumber":63,"Velocity":47,"Duration":207096,"SoundDuration":207096,"Delta":361958605},{"NoteNumber":75,"Velocity":47,"Duration":207096,"SoundDuration":207096,"Delta":361958605},{"NoteNumber":48,"Velocity":62,"Duration":102685,"SoundDuration":102685,"Delta":361958605},{"NoteNumber":56,"Velocity":56,"Duration":102685,"SoundDuration":102685,"Delta":362062154},{"NoteNumber":80,"Velocity":54,"Duration":310644,"SoundDuration":310644,"Delta":362165702},{"NoteNumber":68,"Velocity":54,"Duration":310644,"SoundDuration":310644,"Delta":362165702},{"NoteNumber":48,"Velocity":77,"Duration":102685,"SoundDuration":102685,"Delta":362165702},{"NoteNumber":56,"Velocity":54,"Duration":102685,"SoundDuration":102685,"Delta":362269250},{"NoteNumber":48,"Velocity":58,"Duration":102685,"SoundDuration":102685,"Delta":362372798},{"NoteNumber":75,"Velocity":47,"Duration":103548,"SoundDuration":103548,"Delta":362476347},{"NoteNumber":63,"Velocity":47,"Duration":103548,"SoundDuration":103548,"Delta":362476347},{"NoteNumber":56,"Velocity":47,"Duration":102685,"SoundDuration":102685,"Delta":362476347},{"NoteNumber":66,"Velocity":50,"Duration":180826,"SoundDuration":180826,"Delta":362579895},{"NoteNumber":78,"Velocity":50,"Duration":180826,"SoundDuration":180826,"Delta":362579895},{"NoteNumber":49,"Velocity":47,"Duration":105859,"SoundDuration":105859,"Delta":362579895},{"NoteNumber":56,"Velocity":43,"Duration":104953,"SoundDuration":104953,"Delta":362670761},{"NoteNumber":64,"Velocity":48,"Duration":180330,"SoundDuration":180330,"Delta":362760722},{"NoteNumber":76,"Velocity":48,"Duration":180330,"SoundDuration":180330,"Delta":362760722},{"NoteNumber":49,"Velocity":47,"Duration":104953,"SoundDuration":104953,"Delta":362760722},{"NoteNumber":56,"Velocity":43,"Duration":105457,"SoundDuration":105457,"Delta":362850682},{"NoteNumber":85,"Velocity":54,"Duration":90519,"SoundDuration":90519,"Delta":362941053},{"NoteNumber":73,"Velocity":54,"Duration":90519,"SoundDuration":90519,"Delta":362941053},{"NoteNumber":49,"Velocity":49,"Duration":105606,"SoundDuration":105606,"Delta":362941053},{"NoteNumber":56,"Velocity":46,"Duration":105606,"SoundDuration":105606,"Delta":363031572},{"NoteNumber":64,"Velocity":51,"Duration":90519,"SoundDuration":90519,"Delta":363122092},{"NoteNumber":76,"Velocity":51,"Duration":90519,"SoundDuration":90519,"Delta":363122092},{"NoteNumber":49,"Velocity":51,"Duration":105606,"SoundDuration":105606,"Delta":363122092},{"NoteNumber":56,"Velocity":48,"Duration":105894,"SoundDuration":105894,"Delta":363212611},{"NoteNumber":66,"Velocity":57,"Duration":184777,"SoundDuration":184777,"Delta":363303323},{"NoteNumber":78,"Velocity":57,"Duration":184777,"SoundDuration":184777,"Delta":363303323},{"NoteNumber":47,"Velocity":53,"Duration":107392,"SoundDuration":107392,"Delta":363303323},{"NoteNumber":49,"Velocity":51,"Duration":108339,"SoundDuration":108339,"Delta":363395238},{"NoteNumber":77,"Velocity":56,"Duration":185723,"SoundDuration":185723,"Delta":363488100},{"NoteNumber":65,"Velocity":56,"Duration":185723,"SoundDuration":185723,"Delta":363488100},{"NoteNumber":47,"Velocity":56,"Duration":108339,"SoundDuration":108339,"Delta":363488100},{"NoteNumber":49,"Velocity":51,"Duration":108339,"SoundDuration":108339,"Delta":363580962},{"NoteNumber":73,"Velocity":60,"Duration":92862,"SoundDuration":92862,"Delta":363673824},{"NoteNumber":85,"Velocity":60,"Duration":92862,"SoundDuration":92862,"Delta":363673824},{"NoteNumber":47,"Velocity":57,"Duration":108339,"SoundDuration":108339,"Delta":363673824},{"NoteNumber":49,"Velocity":53,"Duration":108339,"SoundDuration":108339,"Delta":363766686},{"NoteNumber":65,"Velocity":60,"Duration":92862,"SoundDuration":92862,"Delta":363859548},{"NoteNumber":77,"Velocity":60,"Duration":92862,"SoundDuration":92862,"Delta":363859548},{"NoteNumber":47,"Velocity":59,"Duration":108339,"SoundDuration":108339,"Delta":363859548},{"NoteNumber":49,"Velocity":53,"Duration":108338,"SoundDuration":108338,"Delta":363952410},{"NoteNumber":80,"Velocity":66,"Duration":185723,"SoundDuration":185723,"Delta":364045272},{"NoteNumber":68,"Velocity":66,"Duration":185723,"SoundDuration":185723,"Delta":364045272},{"NoteNumber":45,"Velocity":62,"Duration":108338,"SoundDuration":108338,"Delta":364045272},{"NoteNumber":49,"Velocity":56,"Duration":108339,"SoundDuration":108339,"Delta":364138134},{"NoteNumber":66,"Velocity":63,"Duration":185723,"SoundDuration":185723,"Delta":364230996},{"NoteNumber":78,"Velocity":63,"Duration":185723,"SoundDuration":185723,"Delta":364230996},{"NoteNumber":45,"Velocity":62,"Duration":108339,"SoundDuration":108339,"Delta":364230996},{"NoteNumber":49,"Velocity":58,"Duration":108339,"SoundDuration":108339,"Delta":364323858},{"NoteNumber":73,"Velocity":68,"Duration":93022,"SoundDuration":93022,"Delta":364416720},{"NoteNumber":85,"Velocity":68,"Duration":93022,"SoundDuration":93022,"Delta":364416720},{"NoteNumber":45,"Velocity":66,"Duration":108701,"SoundDuration":108701,"Delta":364416720},{"NoteNumber":49,"Velocity":61,"Duration":110787,"SoundDuration":110787,"Delta":364509742},{"NoteNumber":66,"Velocity":68,"Duration":95316,"SoundDuration":95316,"Delta":364604644},{"NoteNumber":78,"Velocity":68,"Duration":95316,"SoundDuration":95316,"Delta":364604644},{"NoteNumber":45,"Velocity":68,"Duration":111202,"SoundDuration":111202,"Delta":364604644},{"NoteNumber":49,"Velocity":62,"Duration":111923,"SoundDuration":111923,"Delta":364699960},{"NoteNumber":81,"Velocity":73,"Duration":193809,"SoundDuration":193809,"Delta":364795784},{"NoteNumber":69,"Velocity":73,"Duration":193809,"SoundDuration":193809,"Delta":364795784},{"NoteNumber":41,"Velocity":69,"Duration":112699,"SoundDuration":112699,"Delta":364795784},{"NoteNumber":49,"Velocity":66,"Duration":113528,"SoundDuration":113528,"Delta":364892384},{"NoteNumber":80,"Velocity":72,"Duration":197943,"SoundDuration":197943,"Delta":364989594},{"NoteNumber":68,"Velocity":72,"Duration":197943,"SoundDuration":197943,"Delta":364989594},{"NoteNumber":41,"Velocity":72,"Duration":114903,"SoundDuration":114903,"Delta":364989594},{"NoteNumber":49,"Velocity":68,"Duration":114576,"SoundDuration":114576,"Delta":365087955},{"NoteNumber":73,"Velocity":78,"Duration":98427,"SoundDuration":98427,"Delta":365187538},{"NoteNumber":85,"Velocity":78,"Duration":98427,"SoundDuration":98427,"Delta":365187538},{"NoteNumber":41,"Velocity":73,"Duration":115710,"SoundDuration":115710,"Delta":365187538},{"NoteNumber":49,"Velocity":68,"Duration":122245,"SoundDuration":122245,"Delta":365285965},{"NoteNumber":68,"Velocity":76,"Duration":106144,"SoundDuration":106144,"Delta":365390572},{"NoteNumber":80,"Velocity":76,"Duration":106144,"SoundDuration":106144,"Delta":365390572},{"NoteNumber":41,"Velocity":76,"Duration":123939,"SoundDuration":123939,"Delta":365390572},{"NoteNumber":49,"Velocity":70,"Duration":123585,"SoundDuration":123585,"Delta":365496717},{"NoteNumber":81,"Velocity":84,"Duration":120119,"SoundDuration":120119,"Delta":365605287},{"NoteNumber":37,"Velocity":67,"Duration":2885719,"SoundDuration":2885719,"Delta":365605287},{"NoteNumber":42,"Velocity":79,"Duration":2885719,"SoundDuration":2885719,"Delta":365605287},{"NoteNumber":30,"Velocity":67,"Duration":2885719,"SoundDuration":2885719,"Delta":365605287},{"NoteNumber":78,"Velocity":67,"Duration":120119,"SoundDuration":120119,"Delta":365725407},{"NoteNumber":73,"Velocity":66,"Duration":120120,"SoundDuration":120120,"Delta":365845527},{"NoteNumber":69,"Velocity":73,"Duration":120119,"SoundDuration":120119,"Delta":365965647},{"NoteNumber":66,"Velocity":62,"Duration":120119,"SoundDuration":120119,"Delta":366085767},{"NoteNumber":61,"Velocity":63,"Duration":120120,"SoundDuration":120120,"Delta":366205887},{"NoteNumber":69,"Velocity":71,"Duration":120119,"SoundDuration":120119,"Delta":366326007},{"NoteNumber":66,"Velocity":63,"Duration":120119,"SoundDuration":120119,"Delta":366446127},{"NoteNumber":61,"Velocity":63,"Duration":120119,"SoundDuration":120119,"Delta":366566247},{"NoteNumber":57,"Velocity":71,"Duration":120119,"SoundDuration":120119,"Delta":366686367},{"NoteNumber":54,"Velocity":61,"Duration":120120,"SoundDuration":120120,"Delta":366806487},{"NoteNumber":49,"Velocity":62,"Duration":120119,"SoundDuration":120119,"Delta":366926607},{"NoteNumber":57,"Velocity":78,"Duration":90089,"SoundDuration":90089,"Delta":367046727},{"NoteNumber":54,"Velocity":61,"Duration":90090,"SoundDuration":90090,"Delta":367136817},{"NoteNumber":49,"Velocity":67,"Duration":90089,"SoundDuration":90089,"Delta":367226907},{"NoteNumber":45,"Velocity":62,"Duration":90090,"SoundDuration":90090,"Delta":367316997},{"NoteNumber":49,"Velocity":71,"Duration":90089,"SoundDuration":90089,"Delta":367407087},{"NoteNumber":52,"Velocity":62,"Duration":90090,"SoundDuration":90090,"Delta":367497177},{"NoteNumber":56,"Velocity":67,"Duration":90089,"SoundDuration":90089,"Delta":367587267},{"NoteNumber":61,"Velocity":62,"Duration":90089,"SoundDuration":90089,"Delta":367677357},{"NoteNumber":66,"Velocity":71,"Duration":90090,"SoundDuration":90090,"Delta":367767447},{"NoteNumber":69,"Velocity":61,"Duration":90089,"SoundDuration":90089,"Delta":367857537},{"NoteNumber":73,"Velocity":67,"Duration":90090,"SoundDuration":90090,"Delta":367947627},{"NoteNumber":78,"Velocity":60,"Duration":90089,"SoundDuration":90089,"Delta":368037717},{"NoteNumber":81,"Velocity":72,"Duration":89910,"SoundDuration":89910,"Delta":368127807},{"NoteNumber":78,"Velocity":63,"Duration":90452,"SoundDuration":90452,"Delta":368217717},{"NoteNumber":73,"Velocity":68,"Duration":91093,"SoundDuration":91093,"Delta":368308170},{"NoteNumber":69,"Velocity":65,"Duration":91743,"SoundDuration":91743,"Delta":368399263},{"NoteNumber":81,"Velocity":84,"Duration":120119,"SoundDuration":120119,"Delta":368491007},{"NoteNumber":38,"Velocity":53,"Duration":2887555,"SoundDuration":2887555,"Delta":368491007},{"NoteNumber":42,"Velocity":63,"Duration":2887555,"SoundDuration":2887555,"Delta":368491007},{"NoteNumber":30,"Velocity":53,"Duration":2887555,"SoundDuration":2887555,"Delta":368491007},{"NoteNumber":78,"Velocity":65,"Duration":120120,"SoundDuration":120120,"Delta":368611127},{"NoteNumber":74,"Velocity":66,"Duration":120119,"SoundDuration":120119,"Delta":368731247},{"NoteNumber":69,"Velocity":71,"Duration":120119,"SoundDuration":120119,"Delta":368851367},{"NoteNumber":66,"Velocity":62,"Duration":120119,"SoundDuration":120119,"Delta":368971487},{"NoteNumber":62,"Velocity":65,"Duration":120119,"SoundDuration":120119,"Delta":369091607},{"NoteNumber":69,"Velocity":70,"Duration":120120,"SoundDuration":120120,"Delta":369211727},{"NoteNumber":66,"Velocity":62,"Duration":120119,"SoundDuration":120119,"Delta":369331847},{"NoteNumber":62,"Velocity":63,"Duration":120119,"SoundDuration":120119,"Delta":369451967},{"NoteNumber":57,"Velocity":72,"Duration":120120,"SoundDuration":120120,"Delta":369572087},{"NoteNumber":54,"Velocity":62,"Duration":120119,"SoundDuration":120119,"Delta":369692207},{"NoteNumber":50,"Velocity":62,"Duration":120119,"SoundDuration":120119,"Delta":369812327},{"NoteNumber":57,"Velocity":77,"Duration":90089,"SoundDuration":90089,"Delta":369932447},{"NoteNumber":54,"Velocity":65,"Duration":90090,"SoundDuration":90090,"Delta":370022537},{"NoteNumber":50,"Velocity":70,"Duration":90089,"SoundDuration":90089,"Delta":370112627},{"NoteNumber":45,"Velocity":66,"Duration":90090,"SoundDuration":90090,"Delta":370202717},{"NoteNumber":50,"Velocity":73,"Duration":90089,"SoundDuration":90089,"Delta":370292807},{"NoteNumber":54,"Velocity":62,"Duration":90090,"SoundDuration":90090,"Delta":370382897},{"NoteNumber":57,"Velocity":68,"Duration":90089,"SoundDuration":90089,"Delta":370472987},{"NoteNumber":62,"Velocity":63,"Duration":90090,"SoundDuration":90090,"Delta":370563077},{"NoteNumber":66,"Velocity":72,"Duration":90089,"SoundDuration":90089,"Delta":370653167},{"NoteNumber":69,"Velocity":62,"Duration":90089,"SoundDuration":90089,"Delta":370743257},{"NoteNumber":74,"Velocity":68,"Duration":90090,"SoundDuration":90090,"Delta":370833347},{"NoteNumber":78,"Velocity":65,"Duration":90089,"SoundDuration":90089,"Delta":370923437},{"NoteNumber":81,"Velocity":78,"Duration":90453,"SoundDuration":90453,"Delta":371013527},{"NoteNumber":78,"Velocity":66,"Duration":91001,"SoundDuration":91001,"Delta":371103980},{"NoteNumber":74,"Velocity":70,"Duration":91556,"SoundDuration":91556,"Delta":371194981},{"NoteNumber":69,"Velocity":67,"Duration":92025,"SoundDuration":92025,"Delta":371286537},{"NoteNumber":85,"Velocity":85,"Duration":120119,"SoundDuration":120119,"Delta":371378563},{"NoteNumber":37,"Velocity":53,"Duration":2896250,"SoundDuration":2896250,"Delta":371378563},{"NoteNumber":31,"Velocity":53,"Duration":2896250,"SoundDuration":2896250,"Delta":371378563},{"NoteNumber":43,"Velocity":63,"Duration":2896250,"SoundDuration":2896250,"Delta":371378563},{"NoteNumber":82,"Velocity":68,"Duration":120120,"SoundDuration":120120,"Delta":371498683},{"NoteNumber":79,"Velocity":67,"Duration":120119,"SoundDuration":120119,"Delta":371618803},{"NoteNumber":76,"Velocity":78,"Duration":120119,"SoundDuration":120119,"Delta":371738923},{"NoteNumber":73,"Velocity":65,"Duration":120119,"SoundDuration":120119,"Delta":371859043},{"NoteNumber":70,"Velocity":67,"Duration":120119,"SoundDuration":120119,"Delta":371979163},{"NoteNumber":76,"Velocity":78,"Duration":120120,"SoundDuration":120120,"Delta":372099283},{"NoteNumber":73,"Velocity":68,"Duration":120119,"SoundDuration":120119,"Delta":372219403},{"NoteNumber":70,"Velocity":68,"Duration":120119,"SoundDuration":120119,"Delta":372339523},{"NoteNumber":67,"Velocity":74,"Duration":90090,"SoundDuration":90090,"Delta":372459643},{"NoteNumber":64,"Velocity":62,"Duration":90089,"SoundDuration":90089,"Delta":372549733},{"NoteNumber":61,"Velocity":67,"Duration":90090,"SoundDuration":90090,"Delta":372639823},{"NoteNumber":58,"Velocity":62,"Duration":90089,"SoundDuration":90089,"Delta":372729913},{"NoteNumber":64,"Velocity":72,"Duration":90089,"SoundDuration":90089,"Delta":372820003},{"NoteNumber":61,"Velocity":63,"Duration":90090,"SoundDuration":90090,"Delta":372910093},{"NoteNumber":58,"Velocity":68,"Duration":90089,"SoundDuration":90089,"Delta":373000183},{"NoteNumber":55,"Velocity":63,"Duration":90090,"SoundDuration":90090,"Delta":373090273},{"NoteNumber":52,"Velocity":73,"Duration":90089,"SoundDuration":90089,"Delta":373180363},{"NoteNumber":49,"Velocity":65,"Duration":90090,"SoundDuration":90090,"Delta":373270453},{"NoteNumber":52,"Velocity":68,"Duration":90089,"SoundDuration":90089,"Delta":373360543},{"NoteNumber":55,"Velocity":63,"Duration":90090,"SoundDuration":90090,"Delta":373450633},{"NoteNumber":58,"Velocity":79,"Duration":60423,"SoundDuration":60423,"Delta":373540723},{"NoteNumber":61,"Velocity":64,"Duration":60514,"SoundDuration":60514,"Delta":373601146},{"NoteNumber":64,"Velocity":69,"Duration":60606,"SoundDuration":60606,"Delta":373661660},{"NoteNumber":67,"Velocity":66,"Duration":60790,"SoundDuration":60790,"Delta":373722266},{"NoteNumber":70,"Velocity":70,"Duration":60975,"SoundDuration":60975,"Delta":373783056},{"NoteNumber":73,"Velocity":65,"Duration":61068,"SoundDuration":61068,"Delta":373844032},{"NoteNumber":76,"Velocity":71,"Duration":61255,"SoundDuration":61255,"Delta":373905101},{"NoteNumber":79,"Velocity":67,"Duration":61349,"SoundDuration":61349,"Delta":373966357},{"NoteNumber":82,"Velocity":72,"Duration":61538,"SoundDuration":61538,"Delta":374027706},{"NoteNumber":85,"Velocity":67,"Duration":61728,"SoundDuration":61728,"Delta":374089245},{"NoteNumber":82,"Velocity":73,"Duration":61823,"SoundDuration":61823,"Delta":374150973},{"NoteNumber":76,"Velocity":68,"Duration":62015,"SoundDuration":62015,"Delta":374212797},{"NoteNumber":88,"Velocity":87,"Duration":120119,"SoundDuration":120119,"Delta":374274813},{"NoteNumber":37,"Velocity":52,"Duration":2882880,"SoundDuration":2882880,"Delta":374274813},{"NoteNumber":44,"Velocity":62,"Duration":2882880,"SoundDuration":2882880,"Delta":374274813},{"NoteNumber":32,"Velocity":52,"Duration":2882880,"SoundDuration":2882880,"Delta":374274813},{"NoteNumber":85,"Velocity":67,"Duration":120119,"SoundDuration":120119,"Delta":374394933},{"NoteNumber":80,"Velocity":67,"Duration":120120,"SoundDuration":120120,"Delta":374515053},{"NoteNumber":76,"Velocity":78,"Duration":120119,"SoundDuration":120119,"Delta":374635173},{"NoteNumber":73,"Velocity":66,"Duration":120119,"SoundDuration":120119,"Delta":374755293},{"NoteNumber":68,"Velocity":67,"Duration":120120,"SoundDuration":120120,"Delta":374875413},{"NoteNumber":76,"Velocity":78,"Duration":120119,"SoundDuration":120119,"Delta":374995533},{"NoteNumber":73,"Velocity":66,"Duration":120119,"SoundDuration":120119,"Delta":375115653},{"NoteNumber":68,"Velocity":66,"Duration":120119,"SoundDuration":120119,"Delta":375235773},{"NoteNumber":64,"Velocity":78,"Duration":90090,"SoundDuration":90090,"Delta":375355893},{"NoteNumber":73,"Velocity":67,"Duration":90089,"SoundDuration":90089,"Delta":375445983},{"NoteNumber":68,"Velocity":70,"Duration":90090,"SoundDuration":90090,"Delta":375536073},{"NoteNumber":64,"Velocity":68,"Duration":90089,"SoundDuration":90089,"Delta":375626163},{"NoteNumber":61,"Velocity":79,"Duration":90089,"SoundDuration":90089,"Delta":375716253},{"NoteNumber":68,"Velocity":65,"Duration":90090,"SoundDuration":90090,"Delta":375806343},{"NoteNumber":64,"Velocity":68,"Duration":90089,"SoundDuration":90089,"Delta":375896433},{"NoteNumber":61,"Velocity":65,"Duration":90090,"SoundDuration":90090,"Delta":375986523},{"NoteNumber":56,"Velocity":78,"Duration":90089,"SoundDuration":90089,"Delta":376076613},{"NoteNumber":64,"Velocity":63,"Duration":90090,"SoundDuration":90090,"Delta":376166703},{"NoteNumber":61,"Velocity":67,"Duration":90089,"SoundDuration":90089,"Delta":376256793},{"NoteNumber":56,"Velocity":62,"Duration":90089,"SoundDuration":90089,"Delta":376346883},{"NoteNumber":52,"Velocity":79,"Duration":90090,"SoundDuration":90090,"Delta":376436973},{"NoteNumber":61,"Velocity":65,"Duration":90089,"SoundDuration":90089,"Delta":376527063},{"NoteNumber":56,"Velocity":68,"Duration":90090,"SoundDuration":90090,"Delta":376617153},{"NoteNumber":52,"Velocity":65,"Duration":90089,"SoundDuration":90089,"Delta":376707243},{"NoteNumber":49,"Velocity":78,"Duration":90090,"SoundDuration":90090,"Delta":376797333},{"NoteNumber":56,"Velocity":63,"Duration":90089,"SoundDuration":90089,"Delta":376887423},{"NoteNumber":52,"Velocity":68,"Duration":90090,"SoundDuration":90090,"Delta":376977513},{"NoteNumber":49,"Velocity":62,"Duration":90089,"SoundDuration":90089,"Delta":377067603},{"NoteNumber":44,"Velocity":47,"Duration":90089,"SoundDuration":90089,"Delta":377157693},{"NoteNumber":45,"Velocity":47,"Duration":90090,"SoundDuration":90090,"Delta":377247783},{"NoteNumber":46,"Velocity":48,"Duration":90089,"SoundDuration":90089,"Delta":377337873},{"NoteNumber":47,"Velocity":49,"Duration":90090,"SoundDuration":90090,"Delta":377427963},{"NoteNumber":48,"Velocity":51,"Duration":90089,"SoundDuration":90089,"Delta":377518053},{"NoteNumber":49,"Velocity":51,"Duration":90090,"SoundDuration":90090,"Delta":377608143},{"NoteNumber":50,"Velocity":51,"Duration":90089,"SoundDuration":90089,"Delta":377698233},{"NoteNumber":51,"Velocity":52,"Duration":90090,"SoundDuration":90090,"Delta":377788323},{"NoteNumber":52,"Velocity":54,"Duration":90089,"SoundDuration":90089,"Delta":377878413},{"NoteNumber":53,"Velocity":56,"Duration":90089,"SoundDuration":90089,"Delta":377968503},{"NoteNumber":54,"Velocity":56,"Duration":90090,"SoundDuration":90090,"Delta":378058593},{"NoteNumber":55,"Velocity":57,"Duration":90089,"SoundDuration":90089,"Delta":378148683},{"NoteNumber":56,"Velocity":58,"Duration":90090,"SoundDuration":90090,"Delta":378238773},{"NoteNumber":57,"Velocity":59,"Duration":90089,"SoundDuration":90089,"Delta":378328863},{"NoteNumber":58,"Velocity":60,"Duration":90090,"SoundDuration":90090,"Delta":378418953},{"NoteNumber":59,"Velocity":61,"Duration":90089,"SoundDuration":90089,"Delta":378509043},{"NoteNumber":60,"Velocity":62,"Duration":90089,"SoundDuration":90089,"Delta":378599133},{"NoteNumber":61,"Velocity":62,"Duration":90090,"SoundDuration":90090,"Delta":378689223},{"NoteNumber":62,"Velocity":63,"Duration":90089,"SoundDuration":90089,"Delta":378779313},{"NoteNumber":63,"Velocity":65,"Duration":90090,"SoundDuration":90090,"Delta":378869403},{"NoteNumber":64,"Velocity":67,"Duration":72071,"SoundDuration":72071,"Delta":378959493},{"NoteNumber":65,"Velocity":68,"Duration":72071,"SoundDuration":72071,"Delta":379031565},{"NoteNumber":66,"Velocity":68,"Duration":72071,"SoundDuration":72071,"Delta":379103637},{"NoteNumber":67,"Velocity":68,"Duration":72071,"SoundDuration":72071,"Delta":379175709},{"NoteNumber":68,"Velocity":69,"Duration":72071,"SoundDuration":72071,"Delta":379247781},{"NoteNumber":69,"Velocity":70,"Duration":72072,"SoundDuration":72072,"Delta":379319853},{"NoteNumber":70,"Velocity":71,"Duration":72071,"SoundDuration":72071,"Delta":379391925},{"NoteNumber":71,"Velocity":72,"Duration":72071,"SoundDuration":72071,"Delta":379463997},{"NoteNumber":72,"Velocity":73,"Duration":72071,"SoundDuration":72071,"Delta":379536069},{"NoteNumber":73,"Velocity":73,"Duration":72071,"SoundDuration":72071,"Delta":379608141},{"NoteNumber":74,"Velocity":74,"Duration":60060,"SoundDuration":60060,"Delta":379680213},{"NoteNumber":75,"Velocity":74,"Duration":60060,"SoundDuration":60060,"Delta":379740273},{"NoteNumber":76,"Velocity":75,"Duration":60059,"SoundDuration":60059,"Delta":379800333},{"NoteNumber":77,"Velocity":76,"Duration":45045,"SoundDuration":45045,"Delta":379860393},{"NoteNumber":78,"Velocity":77,"Duration":45045,"SoundDuration":45045,"Delta":379905438},{"NoteNumber":79,"Velocity":77,"Duration":45044,"SoundDuration":45044,"Delta":379950483},{"NoteNumber":80,"Velocity":77,"Duration":47265,"SoundDuration":47265,"Delta":379995528},{"NoteNumber":81,"Velocity":81,"Duration":87322,"SoundDuration":87322,"Delta":380042793},{"NoteNumber":60,"Velocity":62,"Duration":1881557,"SoundDuration":1881557,"Delta":380042793},{"NoteNumber":66,"Velocity":62,"Duration":1881557,"SoundDuration":1881557,"Delta":380042793},{"NoteNumber":56,"Velocity":62,"Duration":1881557,"SoundDuration":1881557,"Delta":380042793},{"NoteNumber":83,"Velocity":72,"Duration":87748,"SoundDuration":87748,"Delta":380130115},{"NoteNumber":81,"Velocity":77,"Duration":79093,"SoundDuration":79093,"Delta":380217863},{"NoteNumber":83,"Velocity":71,"Duration":77146,"SoundDuration":77146,"Delta":380296957},{"NoteNumber":81,"Velocity":79,"Duration":77409,"SoundDuration":77409,"Delta":380374104},{"NoteNumber":83,"Velocity":71,"Duration":77524,"SoundDuration":77524,"Delta":380451514},{"NoteNumber":81,"Velocity":81,"Duration":75615,"SoundDuration":75615,"Delta":380529039},{"NoteNumber":83,"Velocity":74,"Duration":75657,"SoundDuration":75657,"Delta":380604655},{"NoteNumber":81,"Velocity":81,"Duration":74385,"SoundDuration":74385,"Delta":380680313},{"NoteNumber":83,"Velocity":73,"Duration":75650,"SoundDuration":75650,"Delta":380754698},{"NoteNumber":81,"Velocity":81,"Duration":74698,"SoundDuration":74698,"Delta":380830349},{"NoteNumber":83,"Velocity":79,"Duration":76012,"SoundDuration":76012,"Delta":380905047},{"NoteNumber":81,"Velocity":79,"Duration":71886,"SoundDuration":71886,"Delta":380981060},{"NoteNumber":83,"Velocity":76,"Duration":73689,"SoundDuration":73689,"Delta":381052946},{"NoteNumber":81,"Velocity":79,"Duration":74960,"SoundDuration":74960,"Delta":381126636},{"NoteNumber":83,"Velocity":76,"Duration":74920,"SoundDuration":74920,"Delta":381201596},{"NoteNumber":81,"Velocity":78,"Duration":68897,"SoundDuration":68897,"Delta":381276517},{"NoteNumber":83,"Velocity":74,"Duration":73935,"SoundDuration":73935,"Delta":381345414},{"NoteNumber":81,"Velocity":77,"Duration":74404,"SoundDuration":74404,"Delta":381419350},{"NoteNumber":83,"Velocity":70,"Duration":78740,"SoundDuration":78740,"Delta":381493755},{"NoteNumber":81,"Velocity":74,"Duration":79445,"SoundDuration":79445,"Delta":381572495},{"NoteNumber":83,"Velocity":68,"Duration":80731,"SoundDuration":80731,"Delta":381651940},{"NoteNumber":81,"Velocity":74,"Duration":93978,"SoundDuration":93978,"Delta":381732672},{"NoteNumber":83,"Velocity":68,"Duration":97700,"SoundDuration":97700,"Delta":381826650},{"NoteNumber":80,"Velocity":75,"Duration":312752,"SoundDuration":312752,"Delta":381924351},{"NoteNumber":78,"Velocity":62,"Duration":319897,"SoundDuration":319897,"Delta":382237103},{"NoteNumber":76,"Velocity":62,"Duration":319897,"SoundDuration":319897,"Delta":382557001},{"NoteNumber":75,"Velocity":62,"Duration":301071,"SoundDuration":301071,"Delta":382876899},{"NoteNumber":78,"Velocity":65,"Duration":276850,"SoundDuration":276850,"Delta":383177970},{"NoteNumber":73,"Velocity":62,"Duration":252282,"SoundDuration":252282,"Delta":383454821},{"NoteNumber":72,"Velocity":62,"Duration":238797,"SoundDuration":238797,"Delta":383707104},{"NoteNumber":75,"Velocity":65,"Duration":223617,"SoundDuration":223617,"Delta":383945902},{"NoteNumber":69,"Velocity":62,"Duration":214446,"SoundDuration":214446,"Delta":384169520},{"NoteNumber":68,"Velocity":62,"Duration":207164,"SoundDuration":207164,"Delta":384383966},{"NoteNumber":66,"Velocity":62,"Duration":195864,"SoundDuration":195864,"Delta":384591131},{"NoteNumber":69,"Velocity":65,"Duration":182012,"SoundDuration":182012,"Delta":384786996},{"NoteNumber":64,"Velocity":62,"Duration":181060,"SoundDuration":181060,"Delta":384969008},{"NoteNumber":63,"Velocity":62,"Duration":176507,"SoundDuration":176507,"Delta":385150069},{"NoteNumber":66,"Velocity":66,"Duration":169117,"SoundDuration":169117,"Delta":385326577},{"NoteNumber":61,"Velocity":62,"Duration":164113,"SoundDuration":164113,"Delta":385495695},{"NoteNumber":60,"Velocity":62,"Duration":156682,"SoundDuration":156682,"Delta":385659808},{"NoteNumber":63,"Velocity":62,"Duration":151974,"SoundDuration":151974,"Delta":385816490},{"NoteNumber":57,"Velocity":62,"Duration":146724,"SoundDuration":146724,"Delta":385968465},{"NoteNumber":56,"Velocity":62,"Duration":142693,"SoundDuration":142693,"Delta":386115190},{"NoteNumber":54,"Velocity":62,"Duration":138926,"SoundDuration":138926,"Delta":386257883},{"NoteNumber":57,"Velocity":63,"Duration":134651,"SoundDuration":134651,"Delta":386396810},{"NoteNumber":52,"Velocity":62,"Duration":128469,"SoundDuration":128469,"Delta":386531462},{"NoteNumber":51,"Velocity":62,"Duration":124026,"SoundDuration":124026,"Delta":386659931},{"NoteNumber":54,"Velocity":65,"Duration":118351,"SoundDuration":118351,"Delta":386783958},{"NoteNumber":49,"Velocity":62,"Duration":112636,"SoundDuration":112636,"Delta":386902309},{"NoteNumber":48,"Velocity":62,"Duration":113970,"SoundDuration":113970,"Delta":387014945},{"NoteNumber":51,"Velocity":61,"Duration":399692,"SoundDuration":399692,"Delta":387128915},{"NoteNumber":45,"Velocity":58,"Duration":519908,"SoundDuration":519908,"Delta":387678636},{"NoteNumber":44,"Velocity":52,"Duration":812184,"SoundDuration":812184,"Delta":388407367},{"NoteNumber":31,"Velocity":33,"Duration":2303040,"SoundDuration":2303040,"Delta":389578993},{"NoteNumber":43,"Velocity":39,"Duration":2303040,"SoundDuration":2303040,"Delta":389578993},{"NoteNumber":32,"Velocity":28,"Duration":2303040,"SoundDuration":2303040,"Delta":391882033},{"NoteNumber":44,"Velocity":34,"Duration":2303040,"SoundDuration":2303040,"Delta":391882033},{"NoteNumber":37,"Velocity":37,"Duration":99258,"SoundDuration":99258,"Delta":394185073},{"NoteNumber":49,"Velocity":37,"Duration":95122,"SoundDuration":95122,"Delta":394185073},{"NoteNumber":49,"Velocity":31,"Duration":99258,"SoundDuration":99258,"Delta":394284332},{"NoteNumber":44,"Velocity":35,"Duration":99258,"SoundDuration":99258,"Delta":394383591},{"NoteNumber":49,"Velocity":31,"Duration":99258,"SoundDuration":99258,"Delta":394482850},{"NoteNumber":37,"Velocity":37,"Duration":99258,"SoundDuration":99258,"Delta":394582108},{"NoteNumber":49,"Velocity":31,"Duration":98431,"SoundDuration":98431,"Delta":394681367},{"NoteNumber":44,"Velocity":35,"Duration":98431,"SoundDuration":98431,"Delta":394780626},{"NoteNumber":49,"Velocity":30,"Duration":98431,"SoundDuration":98431,"Delta":394879885},{"NoteNumber":37,"Velocity":37,"Duration":98431,"SoundDuration":98431,"Delta":394979143},{"NoteNumber":49,"Velocity":32,"Duration":98431,"SoundDuration":98431,"Delta":395078402},{"NoteNumber":44,"Velocity":35,"Duration":98431,"SoundDuration":98431,"Delta":395177661},{"NoteNumber":49,"Velocity":32,"Duration":98431,"SoundDuration":98431,"Delta":395276920},{"NoteNumber":64,"Velocity":41,"Duration":297776,"SoundDuration":297776,"Delta":395376178},{"NoteNumber":37,"Velocity":37,"Duration":98431,"SoundDuration":98431,"Delta":395376178},{"NoteNumber":49,"Velocity":32,"Duration":98431,"SoundDuration":98431,"Delta":395475437},{"NoteNumber":44,"Velocity":35,"Duration":98431,"SoundDuration":98431,"Delta":395574696},{"NoteNumber":61,"Velocity":41,"Duration":99258,"SoundDuration":99258,"Delta":395673955},{"NoteNumber":49,"Velocity":30,"Duration":98431,"SoundDuration":98431,"Delta":395673955},{"NoteNumber":60,"Velocity":49,"Duration":397035,"SoundDuration":397035,"Delta":395773213},{"NoteNumber":37,"Velocity":37,"Duration":98431,"SoundDuration":98431,"Delta":395773213},{"NoteNumber":51,"Velocity":31,"Duration":98431,"SoundDuration":98431,"Delta":395872472},{"NoteNumber":44,"Velocity":35,"Duration":98431,"SoundDuration":98431,"Delta":395971731},{"NoteNumber":51,"Velocity":31,"Duration":98431,"SoundDuration":98431,"Delta":396070990},{"NoteNumber":60,"Velocity":42,"Duration":409780,"SoundDuration":409780,"Delta":396170248},{"NoteNumber":68,"Velocity":42,"Duration":409780,"SoundDuration":409780,"Delta":396170248},{"NoteNumber":54,"Velocity":35,"Duration":409780,"SoundDuration":409780,"Delta":396170248},{"NoteNumber":37,"Velocity":37,"Duration":101591,"SoundDuration":101591,"Delta":396170248},{"NoteNumber":51,"Velocity":30,"Duration":101591,"SoundDuration":101591,"Delta":396272693},{"NoteNumber":44,"Velocity":35,"Duration":101591,"SoundDuration":101591,"Delta":396375138},{"NoteNumber":51,"Velocity":31,"Duration":101591,"SoundDuration":101591,"Delta":396477583},{"NoteNumber":60,"Velocity":41,"Duration":409780,"SoundDuration":409780,"Delta":396580028},{"NoteNumber":54,"Velocity":34,"Duration":409780,"SoundDuration":409780,"Delta":396580028},{"NoteNumber":68,"Velocity":41,"Duration":409780,"SoundDuration":409780,"Delta":396580028},{"NoteNumber":37,"Velocity":37,"Duration":101591,"SoundDuration":101591,"Delta":396580028},{"NoteNumber":51,"Velocity":32,"Duration":101591,"SoundDuration":101591,"Delta":396682473},{"NoteNumber":44,"Velocity":35,"Duration":101591,"SoundDuration":101591,"Delta":396784918},{"NoteNumber":51,"Velocity":35,"Duration":101591,"SoundDuration":101591,"Delta":396887363},{"NoteNumber":54,"Velocity":34,"Duration":307334,"SoundDuration":307334,"Delta":396989808},{"NoteNumber":68,"Velocity":41,"Duration":307334,"SoundDuration":307334,"Delta":396989808},{"NoteNumber":60,"Velocity":41,"Duration":307334,"SoundDuration":307334,"Delta":396989808},{"NoteNumber":37,"Velocity":37,"Duration":101591,"SoundDuration":101591,"Delta":396989808},{"NoteNumber":51,"Velocity":30,"Duration":101591,"SoundDuration":101591,"Delta":397092253},{"NoteNumber":44,"Velocity":35,"Duration":101591,"SoundDuration":101591,"Delta":397194698},{"NoteNumber":52,"Velocity":33,"Duration":72323,"SoundDuration":72323,"Delta":397297143},{"NoteNumber":51,"Velocity":31,"Duration":143442,"SoundDuration":143442,"Delta":397297143},{"NoteNumber":61,"Velocity":39,"Duration":72324,"SoundDuration":72324,"Delta":397369467},{"NoteNumber":68,"Velocity":49,"Duration":1174935,"SoundDuration":1174935,"Delta":397441791},{"NoteNumber":37,"Velocity":37,"Duration":97095,"SoundDuration":97095,"Delta":397441791},{"NoteNumber":49,"Velocity":30,"Duration":97095,"SoundDuration":97095,"Delta":397539703},{"NoteNumber":44,"Velocity":35,"Duration":97095,"SoundDuration":97095,"Delta":397637614},{"NoteNumber":49,"Velocity":31,"Duration":97095,"SoundDuration":97095,"Delta":397735525},{"NoteNumber":37,"Velocity":37,"Duration":97095,"SoundDuration":97095,"Delta":397833436},{"NoteNumber":49,"Velocity":32,"Duration":97095,"SoundDuration":97095,"Delta":397931348},{"NoteNumber":44,"Velocity":35,"Duration":97095,"SoundDuration":97095,"Delta":398029259},{"NoteNumber":49,"Velocity":30,"Duration":97095,"SoundDuration":97095,"Delta":398127170},{"NoteNumber":37,"Velocity":37,"Duration":97095,"SoundDuration":97095,"Delta":398225081},{"NoteNumber":49,"Velocity":31,"Duration":97095,"SoundDuration":97095,"Delta":398322993},{"NoteNumber":44,"Velocity":35,"Duration":97095,"SoundDuration":97095,"Delta":398420904},{"NoteNumber":49,"Velocity":31,"Duration":97095,"SoundDuration":97095,"Delta":398518815},{"NoteNumber":76,"Velocity":47,"Duration":297776,"SoundDuration":297776,"Delta":398616726},{"NoteNumber":37,"Velocity":37,"Duration":98431,"SoundDuration":98431,"Delta":398616726},{"NoteNumber":49,"Velocity":31,"Duration":98431,"SoundDuration":98431,"Delta":398715985},{"NoteNumber":44,"Velocity":35,"Duration":98431,"SoundDuration":98431,"Delta":398815244},{"NoteNumber":73,"Velocity":47,"Duration":99258,"SoundDuration":99258,"Delta":398914503},{"NoteNumber":49,"Velocity":30,"Duration":98431,"SoundDuration":98431,"Delta":398914503},{"NoteNumber":72,"Velocity":56,"Duration":397034,"SoundDuration":397034,"Delta":399013761},{"NoteNumber":37,"Velocity":37,"Duration":98431,"SoundDuration":98431,"Delta":399013761},{"NoteNumber":51,"Velocity":31,"Duration":98431,"SoundDuration":98431,"Delta":399113020},{"NoteNumber":44,"Velocity":35,"Duration":98431,"SoundDuration":98431,"Delta":399212279},{"NoteNumber":51,"Velocity":31,"Duration":98431,"SoundDuration":98431,"Delta":399311538},{"NoteNumber":66,"Velocity":39,"Duration":404013,"SoundDuration":404013,"Delta":399410796},{"NoteNumber":72,"Velocity":47,"Duration":404013,"SoundDuration":404013,"Delta":399410796},{"NoteNumber":80,"Velocity":47,"Duration":404013,"SoundDuration":404013,"Delta":399410796},{"NoteNumber":37,"Velocity":37,"Duration":100161,"SoundDuration":100161,"Delta":399410796},{"NoteNumber":51,"Velocity":33,"Duration":100161,"SoundDuration":100161,"Delta":399511800},{"NoteNumber":44,"Velocity":35,"Duration":100161,"SoundDuration":100161,"Delta":399612803},{"NoteNumber":51,"Velocity":30,"Duration":100161,"SoundDuration":100161,"Delta":399713806},{"NoteNumber":80,"Velocity":47,"Duration":404012,"SoundDuration":404012,"Delta":399814809},{"NoteNumber":72,"Velocity":47,"Duration":404012,"SoundDuration":404012,"Delta":399814809},{"NoteNumber":66,"Velocity":39,"Duration":404012,"SoundDuration":404012,"Delta":399814809},{"NoteNumber":37,"Velocity":37,"Duration":100161,"SoundDuration":100161,"Delta":399814809},{"NoteNumber":51,"Velocity":31,"Duration":100161,"SoundDuration":100161,"Delta":399915813},{"NoteNumber":44,"Velocity":35,"Duration":100161,"SoundDuration":100161,"Delta":400016816},{"NoteNumber":51,"Velocity":31,"Duration":100161,"SoundDuration":100161,"Delta":400117819},{"NoteNumber":72,"Velocity":47,"Duration":303009,"SoundDuration":303009,"Delta":400218822},{"NoteNumber":66,"Velocity":39,"Duration":303009,"SoundDuration":303009,"Delta":400218822},{"NoteNumber":80,"Velocity":47,"Duration":303009,"SoundDuration":303009,"Delta":400218822},{"NoteNumber":37,"Velocity":37,"Duration":100161,"SoundDuration":100161,"Delta":400218822},{"NoteNumber":51,"Velocity":32,"Duration":100161,"SoundDuration":100161,"Delta":400319826},{"NoteNumber":44,"Velocity":35,"Duration":100161,"SoundDuration":100161,"Delta":400420829},{"NoteNumber":64,"Velocity":41,"Duration":71612,"SoundDuration":71612,"Delta":400521832},{"NoteNumber":51,"Velocity":32,"Duration":142031,"SoundDuration":142031,"Delta":400521832},{"NoteNumber":73,"Velocity":46,"Duration":71612,"SoundDuration":71612,"Delta":400593445},{"NoteNumber":80,"Velocity":58,"Duration":694811,"SoundDuration":694811,"Delta":400665058},{"NoteNumber":37,"Velocity":37,"Duration":98431,"SoundDuration":98431,"Delta":400665058},{"NoteNumber":49,"Velocity":33,"Duration":98431,"SoundDuration":98431,"Delta":400764316},{"NoteNumber":44,"Velocity":38,"Duration":98431,"SoundDuration":98431,"Delta":400863575},{"NoteNumber":49,"Velocity":34,"Duration":98431,"SoundDuration":98431,"Delta":400962834},{"NoteNumber":37,"Velocity":39,"Duration":98431,"SoundDuration":98431,"Delta":401062093},{"NoteNumber":49,"Velocity":34,"Duration":98431,"SoundDuration":98431,"Delta":401161351},{"NoteNumber":44,"Velocity":40,"Duration":98431,"SoundDuration":98431,"Delta":401260610},{"NoteNumber":66,"Velocity":49,"Duration":66946,"SoundDuration":66946,"Delta":401359869},{"NoteNumber":49,"Velocity":35,"Duration":132776,"SoundDuration":132776,"Delta":401359869},{"NoteNumber":72,"Velocity":53,"Duration":66946,"SoundDuration":66946,"Delta":401426815},{"NoteNumber":80,"Velocity":63,"Duration":690109,"SoundDuration":690109,"Delta":401493762},{"NoteNumber":37,"Velocity":41,"Duration":97765,"SoundDuration":97765,"Delta":401493762},{"NoteNumber":51,"Velocity":39,"Duration":97765,"SoundDuration":97765,"Delta":401592349},{"NoteNumber":44,"Velocity":43,"Duration":97765,"SoundDuration":97765,"Delta":401690936},{"NoteNumber":51,"Velocity":39,"Duration":97765,"SoundDuration":97765,"Delta":401789523},{"NoteNumber":37,"Velocity":45,"Duration":97765,"SoundDuration":97765,"Delta":401888110},{"NoteNumber":51,"Velocity":40,"Duration":97765,"SoundDuration":97765,"Delta":401986697},{"NoteNumber":44,"Velocity":47,"Duration":97765,"SoundDuration":97765,"Delta":402085284},{"NoteNumber":64,"Velocity":56,"Duration":65422,"SoundDuration":65422,"Delta":402183871},{"NoteNumber":51,"Velocity":41,"Duration":129754,"SoundDuration":129754,"Delta":402183871},{"NoteNumber":73,"Velocity":62,"Duration":65422,"SoundDuration":65422,"Delta":402249293},{"NoteNumber":80,"Velocity":70,"Duration":685378,"SoundDuration":685378,"Delta":402314715},{"NoteNumber":37,"Velocity":47,"Duration":97095,"SoundDuration":97095,"Delta":402314715},{"NoteNumber":49,"Velocity":42,"Duration":97095,"SoundDuration":97095,"Delta":402412626},{"NoteNumber":44,"Velocity":50,"Duration":97095,"SoundDuration":97095,"Delta":402510538},{"NoteNumber":49,"Velocity":44,"Duration":97095,"SoundDuration":97095,"Delta":402608449},{"NoteNumber":37,"Velocity":51,"Duration":97095,"SoundDuration":97095,"Delta":402706360},{"NoteNumber":49,"Velocity":47,"Duration":97095,"SoundDuration":97095,"Delta":402804271},{"NoteNumber":44,"Velocity":51,"Duration":97095,"SoundDuration":97095,"Delta":402902183},{"NoteNumber":66,"Velocity":60,"Duration":65422,"SoundDuration":65422,"Delta":403000094},{"NoteNumber":49,"Velocity":46,"Duration":129754,"SoundDuration":129754,"Delta":403000094},{"NoteNumber":72,"Velocity":68,"Duration":65422,"SoundDuration":65422,"Delta":403065516},{"NoteNumber":80,"Velocity":80,"Duration":680757,"SoundDuration":680757,"Delta":403130938},{"NoteNumber":37,"Velocity":52,"Duration":96440,"SoundDuration":96440,"Delta":403130938},{"NoteNumber":51,"Velocity":50,"Duration":96440,"SoundDuration":96440,"Delta":403228189},{"NoteNumber":44,"Velocity":54,"Duration":96440,"SoundDuration":96440,"Delta":403325440},{"NoteNumber":51,"Velocity":50,"Duration":96440,"SoundDuration":96440,"Delta":403422691},{"NoteNumber":37,"Velocity":56,"Duration":96440,"SoundDuration":96440,"Delta":403519942},{"NoteNumber":51,"Velocity":51,"Duration":96440,"SoundDuration":96440,"Delta":403617193},{"NoteNumber":44,"Velocity":57,"Duration":96440,"SoundDuration":96440,"Delta":403714444},{"NoteNumber":64,"Velocity":68,"Duration":65126,"SoundDuration":65126,"Delta":403811695},{"NoteNumber":51,"Velocity":51,"Duration":118125,"SoundDuration":118125,"Delta":403811695},{"NoteNumber":73,"Velocity":68,"Duration":53801,"SoundDuration":53801,"Delta":403876822},{"NoteNumber":80,"Velocity":74,"Duration":111889,"SoundDuration":111889,"Delta":403930623},{"NoteNumber":44,"Velocity":68,"Duration":111889,"SoundDuration":111889,"Delta":403930623},{"NoteNumber":49,"Velocity":68,"Duration":111889,"SoundDuration":111889,"Delta":403930623},{"NoteNumber":37,"Velocity":57,"Duration":111889,"SoundDuration":111889,"Delta":403930623},{"NoteNumber":64,"Velocity":68,"Duration":111413,"SoundDuration":111413,"Delta":404026574},{"NoteNumber":52,"Velocity":57,"Duration":111413,"SoundDuration":111413,"Delta":404026574},{"NoteNumber":68,"Velocity":71,"Duration":111048,"SoundDuration":111048,"Delta":404122102},{"NoteNumber":56,"Velocity":60,"Duration":111048,"SoundDuration":111048,"Delta":404122102},{"NoteNumber":73,"Velocity":68,"Duration":110527,"SoundDuration":110527,"Delta":404217316},{"NoteNumber":61,"Velocity":56,"Duration":110527,"SoundDuration":110527,"Delta":404217316},{"NoteNumber":76,"Velocity":74,"Duration":110060,"SoundDuration":110060,"Delta":404312113},{"NoteNumber":64,"Velocity":62,"Duration":110060,"SoundDuration":110060,"Delta":404312113},{"NoteNumber":68,"Velocity":69,"Duration":109596,"SoundDuration":109596,"Delta":404406494},{"NoteNumber":56,"Velocity":57,"Duration":109596,"SoundDuration":109596,"Delta":404406494},{"NoteNumber":73,"Velocity":72,"Duration":109239,"SoundDuration":109239,"Delta":404500463},{"NoteNumber":61,"Velocity":58,"Duration":109239,"SoundDuration":109239,"Delta":404500463},{"NoteNumber":76,"Velocity":68,"Duration":108739,"SoundDuration":108739,"Delta":404594126},{"NoteNumber":64,"Velocity":57,"Duration":108739,"SoundDuration":108739,"Delta":404594126},{"NoteNumber":80,"Velocity":74,"Duration":108288,"SoundDuration":108288,"Delta":404687388},{"NoteNumber":68,"Velocity":62,"Duration":108288,"SoundDuration":108288,"Delta":404687388},{"NoteNumber":73,"Velocity":68,"Duration":107836,"SoundDuration":107836,"Delta":404780250},{"NoteNumber":61,"Velocity":58,"Duration":107836,"SoundDuration":107836,"Delta":404780250},{"NoteNumber":76,"Velocity":71,"Duration":107492,"SoundDuration":107492,"Delta":404872710},{"NoteNumber":64,"Velocity":58,"Duration":107492,"SoundDuration":107492,"Delta":404872710},{"NoteNumber":80,"Velocity":69,"Duration":107004,"SoundDuration":107004,"Delta":404964874},{"NoteNumber":68,"Velocity":57,"Duration":107004,"SoundDuration":107004,"Delta":404964874},{"NoteNumber":85,"Velocity":75,"Duration":106568,"SoundDuration":106568,"Delta":405056647},{"NoteNumber":73,"Velocity":63,"Duration":106568,"SoundDuration":106568,"Delta":405056647},{"NoteNumber":76,"Velocity":72,"Duration":106133,"SoundDuration":106133,"Delta":405148033},{"NoteNumber":64,"Velocity":60,"Duration":106133,"SoundDuration":106133,"Delta":405148033},{"NoteNumber":80,"Velocity":74,"Duration":105796,"SoundDuration":105796,"Delta":405239032},{"NoteNumber":68,"Velocity":62,"Duration":105796,"SoundDuration":105796,"Delta":405239032},{"NoteNumber":85,"Velocity":72,"Duration":105327,"SoundDuration":105327,"Delta":405329742},{"NoteNumber":73,"Velocity":60,"Duration":105327,"SoundDuration":105327,"Delta":405329742},{"NoteNumber":88,"Velocity":80,"Duration":104953,"SoundDuration":104953,"Delta":405420076},{"NoteNumber":76,"Velocity":68,"Duration":104953,"SoundDuration":104953,"Delta":405420076},{"NoteNumber":85,"Velocity":80,"Duration":104953,"SoundDuration":104953,"Delta":405510037},{"NoteNumber":73,"Velocity":64,"Duration":104953,"SoundDuration":104953,"Delta":405510037},{"NoteNumber":80,"Velocity":79,"Duration":104953,"SoundDuration":104953,"Delta":405599997},{"NoteNumber":68,"Velocity":63,"Duration":104953,"SoundDuration":104953,"Delta":405599997},{"NoteNumber":76,"Velocity":74,"Duration":104953,"SoundDuration":104953,"Delta":405689958},{"NoteNumber":64,"Velocity":61,"Duration":104953,"SoundDuration":104953,"Delta":405689958},{"NoteNumber":85,"Velocity":81,"Duration":104953,"SoundDuration":104953,"Delta":405779918},{"NoteNumber":73,"Velocity":67,"Duration":104953,"SoundDuration":104953,"Delta":405779918},{"NoteNumber":80,"Velocity":80,"Duration":104953,"SoundDuration":104953,"Delta":405869879},{"NoteNumber":68,"Velocity":64,"Duration":104953,"SoundDuration":104953,"Delta":405869879},{"NoteNumber":76,"Velocity":79,"Duration":104953,"SoundDuration":104953,"Delta":405959839},{"NoteNumber":64,"Velocity":62,"Duration":104953,"SoundDuration":104953,"Delta":405959839},{"NoteNumber":73,"Velocity":73,"Duration":104953,"SoundDuration":104953,"Delta":406049800},{"NoteNumber":61,"Velocity":62,"Duration":104953,"SoundDuration":104953,"Delta":406049800},{"NoteNumber":80,"Velocity":80,"Duration":104953,"SoundDuration":104953,"Delta":406139760},{"NoteNumber":68,"Velocity":67,"Duration":104953,"SoundDuration":104953,"Delta":406139760},{"NoteNumber":76,"Velocity":79,"Duration":104953,"SoundDuration":104953,"Delta":406229721},{"NoteNumber":64,"Velocity":64,"Duration":104953,"SoundDuration":104953,"Delta":406229721},{"NoteNumber":73,"Velocity":78,"Duration":104953,"SoundDuration":104953,"Delta":406319681},{"NoteNumber":61,"Velocity":62,"Duration":104953,"SoundDuration":104953,"Delta":406319681},{"NoteNumber":68,"Velocity":74,"Duration":104953,"SoundDuration":104953,"Delta":406409642},{"NoteNumber":56,"Velocity":62,"Duration":104953,"SoundDuration":104953,"Delta":406409642},{"NoteNumber":76,"Velocity":80,"Duration":104953,"SoundDuration":104953,"Delta":406499602},{"NoteNumber":64,"Velocity":67,"Duration":104953,"SoundDuration":104953,"Delta":406499602},{"NoteNumber":73,"Velocity":80,"Duration":104953,"SoundDuration":104953,"Delta":406589563},{"NoteNumber":61,"Velocity":64,"Duration":104953,"SoundDuration":104953,"Delta":406589563},{"NoteNumber":68,"Velocity":78,"Duration":104953,"SoundDuration":104953,"Delta":406679523},{"NoteNumber":56,"Velocity":62,"Duration":104953,"SoundDuration":104953,"Delta":406679523},{"NoteNumber":64,"Velocity":73,"Duration":104953,"SoundDuration":104953,"Delta":406769484},{"NoteNumber":52,"Velocity":62,"Duration":104953,"SoundDuration":104953,"Delta":406769484},{"NoteNumber":73,"Velocity":78,"Duration":105140,"SoundDuration":105140,"Delta":406859444},{"NoteNumber":61,"Velocity":63,"Duration":105140,"SoundDuration":105140,"Delta":406859444},{"NoteNumber":68,"Velocity":75,"Duration":105892,"SoundDuration":105892,"Delta":406949498},{"NoteNumber":56,"Velocity":62,"Duration":105892,"SoundDuration":105892,"Delta":406949498},{"NoteNumber":64,"Velocity":74,"Duration":106714,"SoundDuration":106714,"Delta":407040208},{"NoteNumber":52,"Velocity":62,"Duration":106714,"SoundDuration":106714,"Delta":407040208},{"NoteNumber":61,"Velocity":69,"Duration":107492,"SoundDuration":107492,"Delta":407131594},{"NoteNumber":49,"Velocity":60,"Duration":107492,"SoundDuration":107492,"Delta":407131594},{"NoteNumber":68,"Velocity":78,"Duration":108387,"SoundDuration":108387,"Delta":407223660},{"NoteNumber":56,"Velocity":64,"Duration":108387,"SoundDuration":108387,"Delta":407223660},{"NoteNumber":64,"Velocity":75,"Duration":109141,"SoundDuration":109141,"Delta":407316521},{"NoteNumber":52,"Velocity":63,"Duration":109141,"SoundDuration":109141,"Delta":407316521},{"NoteNumber":61,"Velocity":74,"Duration":110060,"SoundDuration":110060,"Delta":407409983},{"NoteNumber":49,"Velocity":62,"Duration":110060,"SoundDuration":110060,"Delta":407409983},{"NoteNumber":56,"Velocity":71,"Duration":110944,"SoundDuration":110944,"Delta":407504262},{"NoteNumber":44,"Velocity":60,"Duration":110944,"SoundDuration":110944,"Delta":407504262},{"NoteNumber":64,"Velocity":78,"Duration":111784,"SoundDuration":111784,"Delta":407599267},{"NoteNumber":52,"Velocity":66,"Duration":111784,"SoundDuration":111784,"Delta":407599267},{"NoteNumber":61,"Velocity":75,"Duration":112645,"SoundDuration":112645,"Delta":407695006},{"NoteNumber":49,"Velocity":66,"Duration":112645,"SoundDuration":112645,"Delta":407695006},{"NoteNumber":56,"Velocity":74,"Duration":113568,"SoundDuration":113568,"Delta":407791498},{"NoteNumber":44,"Velocity":63,"Duration":113568,"SoundDuration":113568,"Delta":407791498},{"NoteNumber":52,"Velocity":71,"Duration":114455,"SoundDuration":114455,"Delta":407888748},{"NoteNumber":40,"Velocity":61,"Duration":114455,"SoundDuration":114455,"Delta":407888748},{"NoteNumber":61,"Velocity":78,"Duration":115464,"SoundDuration":115464,"Delta":407986773},{"NoteNumber":49,"Velocity":66,"Duration":115464,"SoundDuration":115464,"Delta":407986773},{"NoteNumber":56,"Velocity":75,"Duration":116323,"SoundDuration":116323,"Delta":408085694},{"NoteNumber":44,"Velocity":64,"Duration":116323,"SoundDuration":116323,"Delta":408085694},{"NoteNumber":52,"Velocity":74,"Duration":117368,"SoundDuration":117368,"Delta":408185301},{"NoteNumber":40,"Velocity":63,"Duration":117368,"SoundDuration":117368,"Delta":408185301},{"NoteNumber":56,"Velocity":71,"Duration":118375,"SoundDuration":118375,"Delta":408285835},{"NoteNumber":44,"Velocity":62,"Duration":118375,"SoundDuration":118375,"Delta":408285835},{"NoteNumber":49,"Velocity":74,"Duration":408329,"SoundDuration":408329,"Delta":408387196},{"NoteNumber":37,"Velocity":62,"Duration":408329,"SoundDuration":408329,"Delta":408387196},{"NoteNumber":73,"Velocity":83,"Duration":306247,"SoundDuration":306247,"Delta":409203856},{"NoteNumber":80,"Velocity":98,"Duration":306247,"SoundDuration":306247,"Delta":409203856},{"NoteNumber":76,"Velocity":83,"Duration":306247,"SoundDuration":306247,"Delta":409203856},{"NoteNumber":85,"Velocity":98,"Duration":306247,"SoundDuration":306247,"Delta":409203856},{"NoteNumber":37,"Velocity":67,"Duration":306247,"SoundDuration":306247,"Delta":409203856},{"NoteNumber":40,"Velocity":67,"Duration":306247,"SoundDuration":306247,"Delta":409203856},{"NoteNumber":44,"Velocity":79,"Duration":306247,"SoundDuration":306247,"Delta":409203856},{"NoteNumber":49,"Velocity":79,"Duration":306247,"SoundDuration":306247,"Delta":409203856},{"NoteNumber":61,"Velocity":83,"Duration":335720,"SoundDuration":335720,"Delta":410020516},{"NoteNumber":64,"Velocity":83,"Duration":335720,"SoundDuration":335720,"Delta":410020516},{"NoteNumber":68,"Velocity":97,"Duration":335720,"SoundDuration":335720,"Delta":410020516},{"NoteNumber":73,"Velocity":97,"Duration":335720,"SoundDuration":335720,"Delta":410020516},{"NoteNumber":44,"Velocity":79,"Duration":335720,"SoundDuration":335720,"Delta":410020516},{"NoteNumber":37,"Velocity":67,"Duration":335720,"SoundDuration":335720,"Delta":410020516},{"NoteNumber":40,"Velocity":67,"Duration":335720,"SoundDuration":335720,"Delta":410020516},{"NoteNumber":49,"Velocity":79,"Duration":335720,"SoundDuration":335720,"Delta":410020516}],"license":{"name":"Creative Commons Attribution-ShareAlike 3.0 Germany","url":"http://creativecommons.org/licenses/by-sa/3.0/de/deed.en","text":"The MIDI, audio (MP3, OGG) and video files of Bernd Krueger are licensed under the cc-by-sa Germany License. This means that you can use and adapt the files, as long as you attribute the copyright holder.\n\nName: Bernd Krueger\nSource: http://www.piano-midi.de\n\nThe distribution or public playback of the files is only allowed under identical license conditions.\n\nThe scores are open source.","attribution":"MIDI files by Bernd Krueger (piano-midi.de)"}}