{"title":"Piano Sonata No. 29 in B-flat major, Op. 106 'Hammerklavier': III. Adagio sostenuto","artist":"Beethoven","durationMs":760286,"midiSha256":"1b7271001d43d0ea64721cf93b0447d9ad03c0a85664c7cc88bf02f5f6191b2f","midiObject":[{"NoteNumber":57,"Velocity":42,"Duration":1956521,"SoundDuration":1956521,"Delta":0},{"NoteNumber":33,"Velocity":23,"Duration":1956521,"SoundDuration":1956521,"Delta":0},{"NoteNumber":45,"Velocity":28,"Duration":1956521,"SoundDuration":1956521,"Delta":0},{"NoteNumber":61,"Velocity":40,"Duration":1956521,"SoundDuration":1956521,"Delta":1956521},{"NoteNumber":37,"Velocity":21,"Duration":1956521,"SoundDuration":1956521,"Delta":1956521},{"NoteNumber":49,"Velocity":30,"Duration":1956521,"SoundDuration":1956521,"Delta":1956521},{"NoteNumber":66,"Velocity":40,"Duration":1978505,"SoundDuration":1978505,"Delta":3913043},{"NoteNumber":61,"Velocity":40,"Duration":1978505,"SoundDuration":1978505,"Delta":3913043},{"NoteNumber":73,"Velocity":48,"Duration":1304348,"SoundDuration":1304348,"Delta":3913043},{"NoteNumber":69,"Velocity":40,"Duration":1304348,"SoundDuration":1304348,"Delta":3913043},{"NoteNumber":42,"Velocity":29,"Duration":1978505,"SoundDuration":1978505,"Delta":3913043},{"NoteNumber":49,"Velocity":29,"Duration":1978505,"SoundDuration":1978505,"Delta":3913043},{"NoteNumber":54,"Velocity":35,"Duration":1978505,"SoundDuration":1978505,"Delta":3913043},{"NoteNumber":69,"Velocity":42,"Duration":674157,"SoundDuration":674157,"Delta":5217391},{"NoteNumber":61,"Velocity":39,"Duration":659340,"SoundDuration":659340,"Delta":5891549},{"NoteNumber":69,"Velocity":47,"Duration":659340,"SoundDuration":659340,"Delta":5891549},{"NoteNumber":42,"Velocity":29,"Duration":659340,"SoundDuration":659340,"Delta":5891549},{"NoteNumber":49,"Velocity":29,"Duration":659340,"SoundDuration":659340,"Delta":5891549},{"NoteNumber":54,"Velocity":35,"Duration":659340,"SoundDuration":659340,"Delta":5891549},{"NoteNumber":61,"Velocity":34,"Duration":638297,"SoundDuration":638297,"Delta":6550889},{"NoteNumber":66,"Velocity":41,"Duration":638297,"SoundDuration":638297,"Delta":6550889},{"NoteNumber":45,"Velocity":26,"Duration":638297,"SoundDuration":638297,"Delta":6550889},{"NoteNumber":49,"Velocity":26,"Duration":638297,"SoundDuration":638297,"Delta":6550889},{"NoteNumber":57,"Velocity":31,"Duration":638297,"SoundDuration":638297,"Delta":6550889},{"NoteNumber":59,"Velocity":34,"Duration":705882,"SoundDuration":705882,"Delta":7189187},{"NoteNumber":65,"Velocity":34,"Duration":705882,"SoundDuration":705882,"Delta":7189187},{"NoteNumber":68,"Velocity":41,"Duration":705882,"SoundDuration":705882,"Delta":7189187},{"NoteNumber":61,"Velocity":34,"Duration":705882,"SoundDuration":705882,"Delta":7189187},{"NoteNumber":44,"Velocity":26,"Duration":705882,"SoundDuration":705882,"Delta":7189187},{"NoteNumber":49,"Velocity":26,"Duration":705882,"SoundDuration":705882,"Delta":7189187},{"NoteNumber":56,"Velocity":31,"Duration":705882,"SoundDuration":705882,"Delta":7189187},{"NoteNumber":57,"Velocity":42,"Duration":1956521,"SoundDuration":1956521,"Delta":7895070},{"NoteNumber":66,"Velocity":42,"Duration":1956521,"SoundDuration":1956521,"Delta":7895070},{"NoteNumber":69,"Velocity":50,"Duration":1956521,"SoundDuration":1956521,"Delta":7895070},{"NoteNumber":61,"Velocity":42,"Duration":1956521,"SoundDuration":1956521,"Delta":7895070},{"NoteNumber":42,"Velocity":28,"Duration":1956521,"SoundDuration":1956521,"Delta":7895070},{"NoteNumber":49,"Velocity":28,"Duration":1956521,"SoundDuration":1956521,"Delta":7895070},{"NoteNumber":54,"Velocity":34,"Duration":1956521,"SoundDuration":1956521,"Delta":7895070},{"NoteNumber":59,"Velocity":47,"Duration":1304348,"SoundDuration":1304348,"Delta":9851592},{"NoteNumber":71,"Velocity":56,"Duration":1304348,"SoundDuration":1304348,"Delta":9851592},{"NoteNumber":66,"Velocity":47,"Duration":1304348,"SoundDuration":1304348,"Delta":9851592},{"NoteNumber":38,"Velocity":33,"Duration":1304348,"SoundDuration":1304348,"Delta":9851592},{"NoteNumber":50,"Velocity":39,"Duration":1304348,"SoundDuration":1304348,"Delta":9851592},{"NoteNumber":66,"Velocity":46,"Duration":683907,"SoundDuration":683907,"Delta":11155940},{"NoteNumber":62,"Velocity":46,"Duration":683907,"SoundDuration":683907,"Delta":11155940},{"NoteNumber":74,"Velocity":55,"Duration":683907,"SoundDuration":683907,"Delta":11155940},{"NoteNumber":35,"Velocity":34,"Duration":683907,"SoundDuration":683907,"Delta":11155940},{"NoteNumber":47,"Velocity":40,"Duration":683907,"SoundDuration":683907,"Delta":11155940},{"NoteNumber":62,"Velocity":52,"Duration":1290323,"SoundDuration":1290323,"Delta":11845595},{"NoteNumber":74,"Velocity":62,"Duration":1290323,"SoundDuration":1290323,"Delta":11845595},{"NoteNumber":66,"Velocity":52,"Duration":1290323,"SoundDuration":1290323,"Delta":11845595},{"NoteNumber":35,"Velocity":37,"Duration":1290323,"SoundDuration":1290323,"Delta":11845595},{"NoteNumber":47,"Velocity":46,"Duration":1290323,"SoundDuration":1290323,"Delta":11845595},{"NoteNumber":66,"Velocity":48,"Duration":639785,"SoundDuration":639785,"Delta":13135918},{"NoteNumber":73,"Velocity":57,"Duration":639785,"SoundDuration":639785,"Delta":13135918},{"NoteNumber":61,"Velocity":48,"Duration":639785,"SoundDuration":639785,"Delta":13135918},{"NoteNumber":33,"Velocity":35,"Duration":639785,"SoundDuration":639785,"Delta":13135918},{"NoteNumber":45,"Velocity":42,"Duration":639785,"SoundDuration":639785,"Delta":13135918},{"NoteNumber":66,"Velocity":53,"Duration":645161,"SoundDuration":645161,"Delta":13781080},{"NoteNumber":73,"Velocity":64,"Duration":645161,"SoundDuration":645161,"Delta":13781080},{"NoteNumber":61,"Velocity":53,"Duration":645161,"SoundDuration":645161,"Delta":13781080},{"NoteNumber":33,"Velocity":39,"Duration":645161,"SoundDuration":645161,"Delta":13781080},{"NoteNumber":45,"Velocity":48,"Duration":645161,"SoundDuration":645161,"Delta":13781080},{"NoteNumber":65,"Velocity":49,"Duration":625000,"SoundDuration":625000,"Delta":14426241},{"NoteNumber":71,"Velocity":49,"Duration":625000,"SoundDuration":625000,"Delta":14426241},{"NoteNumber":73,"Velocity":49,"Duration":625000,"SoundDuration":625000,"Delta":14426241},{"NoteNumber":77,"Velocity":60,"Duration":625000,"SoundDuration":625000,"Delta":14426241},{"NoteNumber":32,"Velocity":38,"Duration":625000,"SoundDuration":625000,"Delta":14426241},{"NoteNumber":44,"Velocity":45,"Duration":625000,"SoundDuration":625000,"Delta":14426241},{"NoteNumber":73,"Velocity":57,"Duration":689655,"SoundDuration":689655,"Delta":15051241},{"NoteNumber":69,"Velocity":52,"Duration":689655,"SoundDuration":689655,"Delta":15051241},{"NoteNumber":66,"Velocity":52,"Duration":689655,"SoundDuration":689655,"Delta":15051241},{"NoteNumber":78,"Velocity":68,"Duration":689655,"SoundDuration":689655,"Delta":15051241},{"NoteNumber":30,"Velocity":40,"Duration":689655,"SoundDuration":689655,"Delta":15051241},{"NoteNumber":42,"Velocity":48,"Duration":689655,"SoundDuration":689655,"Delta":15051241},{"NoteNumber":80,"Velocity":72,"Duration":1956521,"SoundDuration":1956521,"Delta":15740896},{"NoteNumber":73,"Velocity":61,"Duration":1956521,"SoundDuration":1956521,"Delta":15740896},{"NoteNumber":68,"Velocity":61,"Duration":1956521,"SoundDuration":1956521,"Delta":15740896},{"NoteNumber":29,"Velocity":39,"Duration":1956521,"SoundDuration":1956521,"Delta":15740896},{"NoteNumber":41,"Velocity":48,"Duration":1956521,"SoundDuration":1956521,"Delta":15740896},{"NoteNumber":74,"Velocity":51,"Duration":1956521,"SoundDuration":1956521,"Delta":17697418},{"NoteNumber":71,"Velocity":43,"Duration":1956521,"SoundDuration":1956521,"Delta":17697418},{"NoteNumber":68,"Velocity":43,"Duration":1956521,"SoundDuration":1956521,"Delta":17697418},{"NoteNumber":59,"Velocity":30,"Duration":1956521,"SoundDuration":1956521,"Delta":17697418},{"NoteNumber":56,"Velocity":30,"Duration":1956521,"SoundDuration":1956521,"Delta":17697418},{"NoteNumber":53,"Velocity":30,"Duration":1956521,"SoundDuration":1956521,"Delta":17697418},{"NoteNumber":62,"Velocity":36,"Duration":1956521,"SoundDuration":1956521,"Delta":17697418},{"NoteNumber":68,"Velocity":42,"Duration":1965570,"SoundDuration":1965570,"Delta":19653940},{"NoteNumber":71,"Velocity":42,"Duration":1965570,"SoundDuration":1965570,"Delta":19653940},{"NoteNumber":74,"Velocity":50,"Duration":1965570,"SoundDuration":1965570,"Delta":19653940},{"NoteNumber":29,"Velocity":28,"Duration":1965570,"SoundDuration":1965570,"Delta":19653940},{"NoteNumber":41,"Velocity":34,"Duration":1965570,"SoundDuration":1965570,"Delta":19653940},{"NoteNumber":62,"Velocity":42,"Duration":681817,"SoundDuration":681817,"Delta":20937693},{"NoteNumber":61,"Velocity":36,"Duration":1318681,"SoundDuration":1318681,"Delta":21619511},{"NoteNumber":69,"Velocity":36,"Duration":1318681,"SoundDuration":1318681,"Delta":21619511},{"NoteNumber":73,"Velocity":43,"Duration":1318681,"SoundDuration":1318681,"Delta":21619511},{"NoteNumber":30,"Velocity":25,"Duration":1318681,"SoundDuration":1318681,"Delta":21619511},{"NoteNumber":42,"Velocity":30,"Duration":1318681,"SoundDuration":1318681,"Delta":21619511},{"NoteNumber":59,"Velocity":35,"Duration":691860,"SoundDuration":691860,"Delta":22938192},{"NoteNumber":62,"Velocity":35,"Duration":691860,"SoundDuration":691860,"Delta":22938192},{"NoteNumber":65,"Velocity":35,"Duration":691860,"SoundDuration":691860,"Delta":22938192},{"NoteNumber":71,"Velocity":42,"Duration":691860,"SoundDuration":691860,"Delta":22938192},{"NoteNumber":32,"Velocity":26,"Duration":691860,"SoundDuration":691860,"Delta":22938192},{"NoteNumber":44,"Velocity":31,"Duration":691860,"SoundDuration":691860,"Delta":22938192},{"NoteNumber":59,"Velocity":40,"Duration":1958790,"SoundDuration":1958790,"Delta":23635866},{"NoteNumber":62,"Velocity":40,"Duration":1958790,"SoundDuration":1958790,"Delta":23635866},{"NoteNumber":65,"Velocity":40,"Duration":1958790,"SoundDuration":1958790,"Delta":23635866},{"NoteNumber":71,"Velocity":48,"Duration":1958790,"SoundDuration":1958790,"Delta":23635866},{"NoteNumber":32,"Velocity":29,"Duration":1958790,"SoundDuration":1958790,"Delta":23635866},{"NoteNumber":44,"Velocity":35,"Duration":1958790,"SoundDuration":1958790,"Delta":23635866},{"NoteNumber":59,"Velocity":39,"Duration":659340,"SoundDuration":659340,"Delta":25613888},{"NoteNumber":65,"Velocity":39,"Duration":659340,"SoundDuration":659340,"Delta":25613888},{"NoteNumber":62,"Velocity":39,"Duration":659340,"SoundDuration":659340,"Delta":25613888},{"NoteNumber":71,"Velocity":47,"Duration":659340,"SoundDuration":659340,"Delta":25613888},{"NoteNumber":32,"Velocity":29,"Duration":659340,"SoundDuration":659340,"Delta":25613888},{"NoteNumber":44,"Velocity":35,"Duration":659340,"SoundDuration":659340,"Delta":25613888},{"NoteNumber":66,"Velocity":34,"Duration":638297,"SoundDuration":638297,"Delta":26273228},{"NoteNumber":57,"Velocity":34,"Duration":638297,"SoundDuration":638297,"Delta":26273228},{"NoteNumber":61,"Velocity":34,"Duration":638297,"SoundDuration":638297,"Delta":26273228},{"NoteNumber":69,"Velocity":41,"Duration":638297,"SoundDuration":638297,"Delta":26273228},{"NoteNumber":33,"Velocity":26,"Duration":638297,"SoundDuration":638297,"Delta":26273228},{"NoteNumber":45,"Velocity":31,"Duration":638297,"SoundDuration":638297,"Delta":26273228},{"NoteNumber":56,"Velocity":34,"Duration":659340,"SoundDuration":659340,"Delta":26911526},{"NoteNumber":62,"Velocity":34,"Duration":659340,"SoundDuration":659340,"Delta":26911526},{"NoteNumber":66,"Velocity":34,"Duration":659340,"SoundDuration":659340,"Delta":26911526},{"NoteNumber":68,"Velocity":41,"Duration":659340,"SoundDuration":659340,"Delta":26911526},{"NoteNumber":35,"Velocity":26,"Duration":659340,"SoundDuration":659340,"Delta":26911526},{"NoteNumber":47,"Velocity":31,"Duration":659340,"SoundDuration":659340,"Delta":26911526},{"NoteNumber":66,"Velocity":40,"Duration":1319444,"SoundDuration":1319444,"Delta":27570867},{"NoteNumber":56,"Velocity":40,"Duration":1319444,"SoundDuration":1319444,"Delta":27570867},{"NoteNumber":63,"Velocity":40,"Duration":1319444,"SoundDuration":1319444,"Delta":27570867},{"NoteNumber":68,"Velocity":48,"Duration":1319444,"SoundDuration":1319444,"Delta":27570867},{"NoteNumber":36,"Velocity":29,"Duration":1319444,"SoundDuration":1319444,"Delta":27570867},{"NoteNumber":48,"Velocity":35,"Duration":1319444,"SoundDuration":1319444,"Delta":27570867},{"NoteNumber":63,"Velocity":36,"Duration":683907,"SoundDuration":683907,"Delta":28904200},{"NoteNumber":56,"Velocity":36,"Duration":683907,"SoundDuration":683907,"Delta":28904200},{"NoteNumber":66,"Velocity":36,"Duration":683907,"SoundDuration":683907,"Delta":28904200},{"NoteNumber":68,"Velocity":43,"Duration":683907,"SoundDuration":683907,"Delta":28904200},{"NoteNumber":36,"Velocity":27,"Duration":683907,"SoundDuration":683907,"Delta":28904200},{"NoteNumber":48,"Velocity":32,"Duration":683907,"SoundDuration":683907,"Delta":28904200},{"NoteNumber":63,"Velocity":45,"Duration":659340,"SoundDuration":659340,"Delta":29593855},{"NoteNumber":66,"Velocity":45,"Duration":659340,"SoundDuration":659340,"Delta":29593855},{"NoteNumber":56,"Velocity":45,"Duration":659340,"SoundDuration":659340,"Delta":29593855},{"NoteNumber":68,"Velocity":53,"Duration":659340,"SoundDuration":659340,"Delta":29593855},{"NoteNumber":36,"Velocity":33,"Duration":653845,"SoundDuration":653845,"Delta":29593855},{"NoteNumber":48,"Velocity":40,"Duration":653845,"SoundDuration":653845,"Delta":29593855},{"NoteNumber":66,"Velocity":40,"Duration":659340,"SoundDuration":659340,"Delta":30253195},{"NoteNumber":63,"Velocity":40,"Duration":659340,"SoundDuration":659340,"Delta":30253195},{"NoteNumber":57,"Velocity":40,"Duration":659340,"SoundDuration":659340,"Delta":30253195},{"NoteNumber":69,"Velocity":49,"Duration":659340,"SoundDuration":659340,"Delta":30253195},{"NoteNumber":36,"Velocity":31,"Duration":653845,"SoundDuration":653845,"Delta":30253195},{"NoteNumber":48,"Velocity":37,"Duration":653845,"SoundDuration":653845,"Delta":30253195},{"NoteNumber":54,"Velocity":42,"Duration":705882,"SoundDuration":705882,"Delta":30912536},{"NoteNumber":57,"Velocity":42,"Duration":705882,"SoundDuration":705882,"Delta":30912536},{"NoteNumber":63,"Velocity":42,"Duration":705882,"SoundDuration":705882,"Delta":30912536},{"NoteNumber":66,"Velocity":52,"Duration":705882,"SoundDuration":705882,"Delta":30912536},{"NoteNumber":36,"Velocity":32,"Duration":705882,"SoundDuration":705882,"Delta":30912536},{"NoteNumber":48,"Velocity":39,"Duration":705882,"SoundDuration":705882,"Delta":30912536},{"NoteNumber":54,"Velocity":44,"Duration":1987293,"SoundDuration":1987293,"Delta":31618418},{"NoteNumber":57,"Velocity":44,"Duration":1987293,"SoundDuration":1987293,"Delta":31618418},{"NoteNumber":63,"Velocity":44,"Duration":638297,"SoundDuration":638297,"Delta":31618418},{"NoteNumber":66,"Velocity":53,"Duration":1987293,"SoundDuration":1987293,"Delta":31618418},{"NoteNumber":37,"Velocity":32,"Duration":1987293,"SoundDuration":1987293,"Delta":31618418},{"NoteNumber":49,"Velocity":39,"Duration":1987293,"SoundDuration":1987293,"Delta":31618418},{"NoteNumber":60,"Velocity":45,"Duration":659340,"SoundDuration":659340,"Delta":32256716},{"NoteNumber":61,"Velocity":46,"Duration":689655,"SoundDuration":689655,"Delta":32916057},{"NoteNumber":56,"Velocity":36,"Duration":659340,"SoundDuration":659340,"Delta":33605712},{"NoteNumber":65,"Velocity":55,"Duration":659340,"SoundDuration":659340,"Delta":33605712},{"NoteNumber":53,"Velocity":36,"Duration":659340,"SoundDuration":659340,"Delta":33605712},{"NoteNumber":61,"Velocity":46,"Duration":659340,"SoundDuration":659340,"Delta":33605712},{"NoteNumber":37,"Velocity":27,"Duration":659340,"SoundDuration":659340,"Delta":33605712},{"NoteNumber":49,"Velocity":32,"Duration":659340,"SoundDuration":659340,"Delta":33605712},{"NoteNumber":68,"Velocity":57,"Duration":659340,"SoundDuration":659340,"Delta":34265052},{"NoteNumber":49,"Velocity":31,"Duration":659340,"SoundDuration":659340,"Delta":34265052},{"NoteNumber":53,"Velocity":31,"Duration":659340,"SoundDuration":659340,"Delta":34265052},{"NoteNumber":56,"Velocity":37,"Duration":659340,"SoundDuration":659340,"Delta":34265052},{"NoteNumber":71,"Velocity":59,"Duration":697674,"SoundDuration":697674,"Delta":34924393},{"NoteNumber":49,"Velocity":31,"Duration":697674,"SoundDuration":697674,"Delta":34924393},{"NoteNumber":56,"Velocity":31,"Duration":697674,"SoundDuration":697674,"Delta":34924393},{"NoteNumber":59,"Velocity":37,"Duration":697674,"SoundDuration":697674,"Delta":34924393},{"NoteNumber":62,"Velocity":50,"Duration":1304347,"SoundDuration":1304347,"Delta":35622067},{"NoteNumber":65,"Velocity":50,"Duration":652174,"SoundDuration":652174,"Delta":35622067},{"NoteNumber":71,"Velocity":60,"Duration":1304347,"SoundDuration":1304347,"Delta":35622067},{"NoteNumber":49,"Velocity":36,"Duration":1304347,"SoundDuration":1304347,"Delta":35622067},{"NoteNumber":59,"Velocity":43,"Duration":1304347,"SoundDuration":1304347,"Delta":35622067},{"NoteNumber":68,"Velocity":50,"Duration":652173,"SoundDuration":652173,"Delta":36274241},{"NoteNumber":61,"Velocity":45,"Duration":676136,"SoundDuration":676136,"Delta":36926415},{"NoteNumber":69,"Velocity":50,"Duration":676136,"SoundDuration":676136,"Delta":36926415},{"NoteNumber":66,"Velocity":45,"Duration":676136,"SoundDuration":676136,"Delta":36926415},{"NoteNumber":49,"Velocity":28,"Duration":676136,"SoundDuration":676136,"Delta":36926415},{"NoteNumber":57,"Velocity":34,"Duration":676136,"SoundDuration":676136,"Delta":36926415},{"NoteNumber":69,"Velocity":58,"Duration":652174,"SoundDuration":652174,"Delta":37608233},{"NoteNumber":61,"Velocity":48,"Duration":652174,"SoundDuration":652174,"Delta":37608233},{"NoteNumber":66,"Velocity":48,"Duration":652174,"SoundDuration":652174,"Delta":37608233},{"NoteNumber":49,"Velocity":36,"Duration":652174,"SoundDuration":652174,"Delta":37608233},{"NoteNumber":57,"Velocity":43,"Duration":652174,"SoundDuration":652174,"Delta":37608233},{"NoteNumber":65,"Velocity":42,"Duration":652173,"SoundDuration":652173,"Delta":38260407},{"NoteNumber":68,"Velocity":51,"Duration":652173,"SoundDuration":652173,"Delta":38260407},{"NoteNumber":59,"Velocity":42,"Duration":652173,"SoundDuration":652173,"Delta":38260407},{"NoteNumber":62,"Velocity":42,"Duration":652173,"SoundDuration":652173,"Delta":38260407},{"NoteNumber":49,"Velocity":32,"Duration":652173,"SoundDuration":652173,"Delta":38260407},{"NoteNumber":56,"Velocity":38,"Duration":652173,"SoundDuration":652173,"Delta":38260407},{"NoteNumber":66,"Velocity":51,"Duration":696457,"SoundDuration":696457,"Delta":38912581},{"NoteNumber":63,"Velocity":42,"Duration":696457,"SoundDuration":696457,"Delta":38912581},{"NoteNumber":57,"Velocity":42,"Duration":326087,"SoundDuration":326087,"Delta":38912581},{"NoteNumber":49,"Velocity":32,"Duration":696457,"SoundDuration":696457,"Delta":38912581},{"NoteNumber":54,"Velocity":38,"Duration":696457,"SoundDuration":696457,"Delta":38912581},{"NoteNumber":60,"Velocity":42,"Duration":370370,"SoundDuration":370370,"Delta":39238668},{"NoteNumber":63,"Velocity":50,"Duration":1318680,"SoundDuration":1318680,"Delta":39609039},{"NoteNumber":66,"Velocity":60,"Duration":1318680,"SoundDuration":1318680,"Delta":39609039},{"NoteNumber":57,"Velocity":50,"Duration":1318680,"SoundDuration":1318680,"Delta":39609039},{"NoteNumber":60,"Velocity":50,"Duration":1318680,"SoundDuration":1318680,"Delta":39609039},{"NoteNumber":49,"Velocity":36,"Duration":1318680,"SoundDuration":1318680,"Delta":39609039},{"NoteNumber":54,"Velocity":43,"Duration":1318680,"SoundDuration":1318680,"Delta":39609039},{"NoteNumber":65,"Velocity":50,"Duration":659340,"SoundDuration":659340,"Delta":40927720},{"NoteNumber":61,"Velocity":45,"Duration":659340,"SoundDuration":659340,"Delta":40927720},{"NoteNumber":56,"Velocity":45,"Duration":659340,"SoundDuration":659340,"Delta":40927720},{"NoteNumber":49,"Velocity":28,"Duration":659340,"SoundDuration":659340,"Delta":40927720},{"NoteNumber":53,"Velocity":34,"Duration":659340,"SoundDuration":659340,"Delta":40927720},{"NoteNumber":65,"Velocity":66,"Duration":659340,"SoundDuration":659340,"Delta":41587060},{"NoteNumber":49,"Velocity":36,"Duration":1297638,"SoundDuration":1297638,"Delta":41587060},{"NoteNumber":53,"Velocity":49,"Duration":659340,"SoundDuration":659340,"Delta":41587060},{"NoteNumber":68,"Velocity":60,"Duration":638297,"SoundDuration":638297,"Delta":42246401},{"NoteNumber":56,"Velocity":45,"Duration":638297,"SoundDuration":638297,"Delta":42246401},{"NoteNumber":65,"Velocity":42,"Duration":1359121,"SoundDuration":1359121,"Delta":42884699},{"NoteNumber":71,"Velocity":63,"Duration":326087,"SoundDuration":326087,"Delta":42884699},{"NoteNumber":68,"Velocity":42,"Duration":1359121,"SoundDuration":1359121,"Delta":42884699},{"NoteNumber":56,"Velocity":32,"Duration":720823,"SoundDuration":720823,"Delta":42884699},{"NoteNumber":49,"Velocity":32,"Duration":720823,"SoundDuration":720823,"Delta":42884699},{"NoteNumber":59,"Velocity":38,"Duration":326087,"SoundDuration":326087,"Delta":42884699},{"NoteNumber":74,"Velocity":63,"Duration":391447,"SoundDuration":391447,"Delta":43210786},{"NoteNumber":62,"Velocity":38,"Duration":391447,"SoundDuration":391447,"Delta":43210786},{"NoteNumber":71,"Velocity":50,"Duration":1297638,"SoundDuration":1297638,"Delta":43605522},{"NoteNumber":74,"Velocity":72,"Duration":1297638,"SoundDuration":1297638,"Delta":43605522},{"NoteNumber":59,"Velocity":36,"Duration":1297638,"SoundDuration":1297638,"Delta":43605522},{"NoteNumber":49,"Velocity":36,"Duration":1297638,"SoundDuration":1297638,"Delta":43605522},{"NoteNumber":62,"Velocity":43,"Duration":1297638,"SoundDuration":1297638,"Delta":43605522},{"NoteNumber":65,"Velocity":36,"Duration":659340,"SoundDuration":659340,"Delta":44243820},{"NoteNumber":68,"Velocity":36,"Duration":659340,"SoundDuration":659340,"Delta":44243820},{"NoteNumber":66,"Velocity":48,"Duration":691860,"SoundDuration":691860,"Delta":44903161},{"NoteNumber":73,"Velocity":54,"Duration":691860,"SoundDuration":691860,"Delta":44903161},{"NoteNumber":69,"Velocity":48,"Duration":691860,"SoundDuration":691860,"Delta":44903161},{"NoteNumber":57,"Velocity":31,"Duration":691860,"SoundDuration":691860,"Delta":44903161},{"NoteNumber":49,"Velocity":31,"Duration":691860,"SoundDuration":691860,"Delta":44903161},{"NoteNumber":61,"Velocity":37,"Duration":691860,"SoundDuration":691860,"Delta":44903161},{"NoteNumber":73,"Velocity":55,"Duration":674157,"SoundDuration":674157,"Delta":45600835},{"NoteNumber":69,"Velocity":46,"Duration":674157,"SoundDuration":674157,"Delta":45600835},{"NoteNumber":49,"Velocity":34,"Duration":674157,"SoundDuration":674157,"Delta":45600835},{"NoteNumber":61,"Velocity":41,"Duration":674157,"SoundDuration":674157,"Delta":45600835},{"NoteNumber":57,"Velocity":34,"Duration":674157,"SoundDuration":674157,"Delta":45600835},{"NoteNumber":66,"Velocity":46,"Duration":337078,"SoundDuration":337078,"Delta":45937914},{"NoteNumber":62,"Velocity":39,"Duration":674157,"SoundDuration":674157,"Delta":46274993},{"NoteNumber":68,"Velocity":39,"Duration":674157,"SoundDuration":674157,"Delta":46274993},{"NoteNumber":71,"Velocity":47,"Duration":674157,"SoundDuration":674157,"Delta":46274993},{"NoteNumber":65,"Velocity":39,"Duration":674157,"SoundDuration":674157,"Delta":46274993},{"NoteNumber":49,"Velocity":30,"Duration":674157,"SoundDuration":674157,"Delta":46274993},{"NoteNumber":59,"Velocity":36,"Duration":674157,"SoundDuration":674157,"Delta":46274993},{"NoteNumber":56,"Velocity":30,"Duration":674157,"SoundDuration":674157,"Delta":46274993},{"NoteNumber":60,"Velocity":39,"Duration":734567,"SoundDuration":734567,"Delta":46949150},{"NoteNumber":66,"Velocity":39,"Duration":734567,"SoundDuration":734567,"Delta":46949150},{"NoteNumber":69,"Velocity":47,"Duration":734567,"SoundDuration":734567,"Delta":46949150},{"NoteNumber":63,"Velocity":39,"Duration":734567,"SoundDuration":734567,"Delta":46949150},{"NoteNumber":49,"Velocity":29,"Duration":734567,"SoundDuration":734567,"Delta":46949150},{"NoteNumber":57,"Velocity":35,"Duration":734567,"SoundDuration":734567,"Delta":46949150},{"NoteNumber":54,"Velocity":29,"Duration":734567,"SoundDuration":734567,"Delta":46949150},{"NoteNumber":66,"Velocity":45,"Duration":1311827,"SoundDuration":1311827,"Delta":47689891},{"NoteNumber":69,"Velocity":54,"Duration":1311827,"SoundDuration":1311827,"Delta":47689891},{"NoteNumber":54,"Velocity":32,"Duration":1311827,"SoundDuration":1311827,"Delta":47689891},{"NoteNumber":49,"Velocity":32,"Duration":1311827,"SoundDuration":1311827,"Delta":47689891},{"NoteNumber":57,"Velocity":39,"Duration":1311827,"SoundDuration":1311827,"Delta":47689891},{"NoteNumber":60,"Velocity":44,"Duration":645161,"SoundDuration":645161,"Delta":48356557},{"NoteNumber":63,"Velocity":44,"Duration":645161,"SoundDuration":645161,"Delta":48356557},{"NoteNumber":61,"Velocity":38,"Duration":661110,"SoundDuration":661110,"Delta":49001719},{"NoteNumber":65,"Velocity":38,"Duration":661110,"SoundDuration":661110,"Delta":49001719},{"NoteNumber":68,"Velocity":44,"Duration":661110,"SoundDuration":661110,"Delta":49001719},{"NoteNumber":53,"Velocity":25,"Duration":661110,"SoundDuration":661110,"Delta":49001719},{"NoteNumber":49,"Velocity":25,"Duration":661110,"SoundDuration":661110,"Delta":49001719},{"NoteNumber":56,"Velocity":29,"Duration":661110,"SoundDuration":661110,"Delta":49001719},{"NoteNumber":68,"Velocity":43,"Duration":1333333,"SoundDuration":1333333,"Delta":49668385},{"NoteNumber":65,"Velocity":35,"Duration":1333333,"SoundDuration":1333333,"Delta":49668385},{"NoteNumber":61,"Velocity":35,"Duration":1333333,"SoundDuration":1333333,"Delta":49668385},{"NoteNumber":53,"Velocity":26,"Duration":1333333,"SoundDuration":1333333,"Delta":49668385},{"NoteNumber":49,"Velocity":26,"Duration":1333333,"SoundDuration":1333333,"Delta":49668385},{"NoteNumber":56,"Velocity":31,"Duration":1333333,"SoundDuration":1333333,"Delta":49668385},{"NoteNumber":64,"Velocity":34,"Duration":535714,"SoundDuration":535714,"Delta":51001718},{"NoteNumber":67,"Velocity":39,"Duration":535714,"SoundDuration":535714,"Delta":51001718},{"NoteNumber":61,"Velocity":34,"Duration":535714,"SoundDuration":535714,"Delta":51001718},{"NoteNumber":55,"Velocity":21,"Duration":535714,"SoundDuration":535714,"Delta":51001718},{"NoteNumber":52,"Velocity":21,"Duration":535714,"SoundDuration":535714,"Delta":51001718},{"NoteNumber":49,"Velocity":21,"Duration":535714,"SoundDuration":535714,"Delta":51001718},{"NoteNumber":58,"Velocity":26,"Duration":535714,"SoundDuration":535714,"Delta":51001718},{"NoteNumber":67,"Velocity":53,"Duration":178571,"SoundDuration":178571,"Delta":51537433},{"NoteNumber":83,"Velocity":65,"Duration":1333333,"SoundDuration":1333333,"Delta":51716004},{"NoteNumber":50,"Velocity":32,"Duration":2047618,"SoundDuration":2047618,"Delta":51716004},{"NoteNumber":55,"Velocity":32,"Duration":2047618,"SoundDuration":2047618,"Delta":51716004},{"NoteNumber":59,"Velocity":43,"Duration":2047618,"SoundDuration":2047618,"Delta":51743782},{"NoteNumber":81,"Velocity":62,"Duration":714285,"SoundDuration":714285,"Delta":53049337},{"NoteNumber":67,"Velocity":55,"Duration":2022988,"SoundDuration":2022988,"Delta":53763622},{"NoteNumber":79,"Velocity":65,"Duration":1333333,"SoundDuration":1333333,"Delta":53763622},{"NoteNumber":59,"Velocity":30,"Duration":1333333,"SoundDuration":1333333,"Delta":53763622},{"NoteNumber":55,"Velocity":30,"Duration":2022988,"SoundDuration":2022988,"Delta":53763622},{"NoteNumber":62,"Velocity":36,"Duration":1333333,"SoundDuration":1333333,"Delta":53763622},{"NoteNumber":78,"Velocity":64,"Duration":689655,"SoundDuration":689655,"Delta":55096956},{"NoteNumber":62,"Velocity":30,"Duration":689655,"SoundDuration":689655,"Delta":55096956},{"NoteNumber":67,"Velocity":55,"Duration":2004608,"SoundDuration":2004608,"Delta":55786611},{"NoteNumber":76,"Velocity":65,"Duration":1290323,"SoundDuration":1290323,"Delta":55786611},{"NoteNumber":64,"Velocity":39,"Duration":2004608,"SoundDuration":2004608,"Delta":55786611},{"NoteNumber":60,"Velocity":33,"Duration":2004608,"SoundDuration":2004608,"Delta":55786611},{"NoteNumber":78,"Velocity":63,"Duration":714285,"SoundDuration":714285,"Delta":57076934},{"NoteNumber":67,"Velocity":55,"Duration":1318680,"SoundDuration":1318680,"Delta":57791219},{"NoteNumber":79,"Velocity":65,"Duration":1318680,"SoundDuration":1318680,"Delta":57791219},{"NoteNumber":59,"Velocity":29,"Duration":1318680,"SoundDuration":1318680,"Delta":57791219},{"NoteNumber":62,"Velocity":35,"Duration":1318680,"SoundDuration":1318680,"Delta":57791219},{"NoteNumber":66,"Velocity":64,"Duration":700000,"SoundDuration":700000,"Delta":59109900},{"NoteNumber":62,"Velocity":32,"Duration":700000,"SoundDuration":700000,"Delta":59109900},{"NoteNumber":66,"Velocity":60,"Duration":659340,"SoundDuration":659340,"Delta":59815783},{"NoteNumber":62,"Velocity":35,"Duration":659340,"SoundDuration":659340,"Delta":59815783},{"NoteNumber":66,"Velocity":45,"Duration":638297,"SoundDuration":638297,"Delta":60475123},{"NoteNumber":69,"Velocity":53,"Duration":638297,"SoundDuration":638297,"Delta":60475123},{"NoteNumber":61,"Velocity":31,"Duration":638297,"SoundDuration":638297,"Delta":60475123},{"NoteNumber":66,"Velocity":43,"Duration":659340,"SoundDuration":659340,"Delta":61113421},{"NoteNumber":69,"Velocity":43,"Duration":659340,"SoundDuration":659340,"Delta":61113421},{"NoteNumber":73,"Velocity":51,"Duration":659340,"SoundDuration":659340,"Delta":61113421},{"NoteNumber":49,"Velocity":26,"Duration":659340,"SoundDuration":659340,"Delta":61113421},{"NoteNumber":54,"Velocity":26,"Duration":659340,"SoundDuration":659340,"Delta":61113421},{"NoteNumber":57,"Velocity":26,"Duration":659340,"SoundDuration":659340,"Delta":61113421},{"NoteNumber":61,"Velocity":31,"Duration":659340,"SoundDuration":659340,"Delta":61113421},{"NoteNumber":73,"Velocity":54,"Duration":1319444,"SoundDuration":1319444,"Delta":61772762},{"NoteNumber":65,"Velocity":45,"Duration":1319444,"SoundDuration":1319444,"Delta":61772762},{"NoteNumber":68,"Velocity":45,"Duration":1319444,"SoundDuration":1319444,"Delta":61772762},{"NoteNumber":49,"Velocity":29,"Duration":1319444,"SoundDuration":1319444,"Delta":61772762},{"NoteNumber":53,"Velocity":29,"Duration":1319444,"SoundDuration":1319444,"Delta":61772762},{"NoteNumber":56,"Velocity":29,"Duration":1319444,"SoundDuration":1319444,"Delta":61772762},{"NoteNumber":61,"Velocity":35,"Duration":1319444,"SoundDuration":1319444,"Delta":61772762},{"NoteNumber":73,"Velocity":43,"Duration":683907,"SoundDuration":683907,"Delta":63106095},{"NoteNumber":68,"Velocity":36,"Duration":683907,"SoundDuration":683907,"Delta":63106095},{"NoteNumber":65,"Velocity":36,"Duration":683907,"SoundDuration":683907,"Delta":63106095},{"NoteNumber":49,"Velocity":27,"Duration":683907,"SoundDuration":683907,"Delta":63106095},{"NoteNumber":53,"Velocity":27,"Duration":683907,"SoundDuration":683907,"Delta":63106095},{"NoteNumber":56,"Velocity":27,"Duration":683907,"SoundDuration":683907,"Delta":63106095},{"NoteNumber":61,"Velocity":32,"Duration":683907,"SoundDuration":683907,"Delta":63106095},{"NoteNumber":68,"Velocity":40,"Duration":1333333,"SoundDuration":1333333,"Delta":63795750},{"NoteNumber":65,"Velocity":40,"Duration":1333333,"SoundDuration":1333333,"Delta":63795750},{"NoteNumber":73,"Velocity":48,"Duration":1333333,"SoundDuration":1333333,"Delta":63795750},{"NoteNumber":49,"Velocity":29,"Duration":1333333,"SoundDuration":1333333,"Delta":63795750},{"NoteNumber":53,"Velocity":29,"Duration":1333333,"SoundDuration":1333333,"Delta":63795750},{"NoteNumber":56,"Velocity":29,"Duration":1333333,"SoundDuration":1333333,"Delta":63795750},{"NoteNumber":61,"Velocity":35,"Duration":1333333,"SoundDuration":1333333,"Delta":63795750},{"NoteNumber":66,"Velocity":36,"Duration":683907,"SoundDuration":683907,"Delta":65129083},{"NoteNumber":69,"Velocity":43,"Duration":683907,"SoundDuration":683907,"Delta":65129083},{"NoteNumber":54,"Velocity":27,"Duration":683907,"SoundDuration":683907,"Delta":65129083},{"NoteNumber":57,"Velocity":27,"Duration":683907,"SoundDuration":683907,"Delta":65129083},{"NoteNumber":61,"Velocity":32,"Duration":683907,"SoundDuration":683907,"Delta":65129083},{"NoteNumber":66,"Velocity":37,"Duration":653845,"SoundDuration":653845,"Delta":65818738},{"NoteNumber":69,"Velocity":47,"Duration":653845,"SoundDuration":653845,"Delta":65818738},{"NoteNumber":54,"Velocity":27,"Duration":653845,"SoundDuration":653845,"Delta":65818738},{"NoteNumber":57,"Velocity":27,"Duration":653845,"SoundDuration":653845,"Delta":65818738},{"NoteNumber":61,"Velocity":35,"Duration":653845,"SoundDuration":653845,"Delta":65818738},{"NoteNumber":61,"Velocity":37,"Duration":638298,"SoundDuration":638298,"Delta":66478078},{"NoteNumber":66,"Velocity":45,"Duration":638298,"SoundDuration":638298,"Delta":66478078},{"NoteNumber":57,"Velocity":34,"Duration":638298,"SoundDuration":638298,"Delta":66478078},{"NoteNumber":68,"Velocity":44,"Duration":329670,"SoundDuration":329670,"Delta":67116376},{"NoteNumber":65,"Velocity":44,"Duration":329670,"SoundDuration":329670,"Delta":67116376},{"NoteNumber":61,"Velocity":44,"Duration":659340,"SoundDuration":659340,"Delta":67116376},{"NoteNumber":56,"Velocity":33,"Duration":329670,"SoundDuration":329670,"Delta":67116376},{"NoteNumber":59,"Velocity":33,"Duration":329670,"SoundDuration":329670,"Delta":67116376},{"NoteNumber":66,"Velocity":47,"Duration":329670,"SoundDuration":329670,"Delta":67446046},{"NoteNumber":69,"Velocity":47,"Duration":329670,"SoundDuration":329670,"Delta":67446046},{"NoteNumber":54,"Velocity":38,"Duration":329670,"SoundDuration":329670,"Delta":67446046},{"NoteNumber":57,"Velocity":38,"Duration":329670,"SoundDuration":329670,"Delta":67446046},{"NoteNumber":68,"Velocity":51,"Duration":1270161,"SoundDuration":1270161,"Delta":67775717},{"NoteNumber":71,"Velocity":51,"Duration":1270161,"SoundDuration":1270161,"Delta":67775717},{"NoteNumber":37,"Velocity":43,"Duration":3924446,"SoundDuration":3924446,"Delta":67775717},{"NoteNumber":62,"Velocity":50,"Duration":645161,"SoundDuration":645161,"Delta":68400717},{"NoteNumber":41,"Velocity":38,"Duration":645161,"SoundDuration":645161,"Delta":68400717},{"NoteNumber":61,"Velocity":47,"Duration":689655,"SoundDuration":689655,"Delta":69045878},{"NoteNumber":66,"Velocity":47,"Duration":689655,"SoundDuration":689655,"Delta":69045878},{"NoteNumber":69,"Velocity":58,"Duration":689655,"SoundDuration":689655,"Delta":69045878},{"NoteNumber":42,"Velocity":39,"Duration":689655,"SoundDuration":689655,"Delta":69045878},{"NoteNumber":59,"Velocity":51,"Duration":1312455,"SoundDuration":1312455,"Delta":69735533},{"NoteNumber":69,"Velocity":60,"Duration":674157,"SoundDuration":674157,"Delta":69735533},{"NoteNumber":65,"Velocity":51,"Duration":1312455,"SoundDuration":1312455,"Delta":69735533},{"NoteNumber":62,"Velocity":51,"Duration":1312455,"SoundDuration":1312455,"Delta":69735533},{"NoteNumber":44,"Velocity":42,"Duration":993306,"SoundDuration":993306,"Delta":69735533},{"NoteNumber":68,"Velocity":57,"Duration":638298,"SoundDuration":638298,"Delta":70409691},{"NoteNumber":45,"Velocity":45,"Duration":319149,"SoundDuration":319149,"Delta":70728840},{"NoteNumber":66,"Velocity":54,"Duration":652174,"SoundDuration":652174,"Delta":71047989},{"NoteNumber":63,"Velocity":45,"Duration":652174,"SoundDuration":652174,"Delta":71047989},{"NoteNumber":57,"Velocity":45,"Duration":652174,"SoundDuration":652174,"Delta":71047989},{"NoteNumber":47,"Velocity":48,"Duration":326087,"SoundDuration":326087,"Delta":71047989},{"NoteNumber":48,"Velocity":50,"Duration":326087,"SoundDuration":326087,"Delta":71374076},{"NoteNumber":57,"Velocity":50,"Duration":659340,"SoundDuration":659340,"Delta":71700163},{"NoteNumber":61,"Velocity":50,"Duration":2000499,"SoundDuration":2000499,"Delta":71700163},{"NoteNumber":66,"Velocity":60,"Duration":659340,"SoundDuration":659340,"Delta":71700163},{"NoteNumber":37,"Velocity":36,"Duration":2330169,"SoundDuration":2330169,"Delta":71700163},{"NoteNumber":49,"Velocity":43,"Duration":2330169,"SoundDuration":2330169,"Delta":71700163},{"NoteNumber":55,"Velocity":50,"Duration":659340,"SoundDuration":659340,"Delta":72359503},{"NoteNumber":64,"Velocity":56,"Duration":659340,"SoundDuration":659340,"Delta":72359503},{"NoteNumber":56,"Velocity":50,"Duration":676136,"SoundDuration":676136,"Delta":73018844},{"NoteNumber":65,"Velocity":56,"Duration":676136,"SoundDuration":676136,"Delta":73018844},{"NoteNumber":56,"Velocity":50,"Duration":978489,"SoundDuration":978489,"Delta":73700662},{"NoteNumber":61,"Velocity":50,"Duration":978489,"SoundDuration":978489,"Delta":73700662},{"NoteNumber":65,"Velocity":59,"Duration":978489,"SoundDuration":978489,"Delta":73700662},{"NoteNumber":49,"Velocity":45,"Duration":329670,"SoundDuration":329670,"Delta":74030332},{"NoteNumber":53,"Velocity":45,"Duration":319148,"SoundDuration":319148,"Delta":74360002},{"NoteNumber":68,"Velocity":60,"Duration":319149,"SoundDuration":319149,"Delta":74679151},{"NoteNumber":56,"Velocity":45,"Duration":319149,"SoundDuration":319149,"Delta":74679151},{"NoteNumber":71,"Velocity":63,"Duration":326087,"SoundDuration":326087,"Delta":74998300},{"NoteNumber":59,"Velocity":38,"Duration":326087,"SoundDuration":326087,"Delta":74998300},{"NoteNumber":74,"Velocity":66,"Duration":391447,"SoundDuration":391447,"Delta":75324387},{"NoteNumber":62,"Velocity":38,"Duration":391447,"SoundDuration":391447,"Delta":75324387},{"NoteNumber":68,"Velocity":36,"Duration":652174,"SoundDuration":652174,"Delta":75719124},{"NoteNumber":71,"Velocity":50,"Duration":652174,"SoundDuration":652174,"Delta":75719124},{"NoteNumber":74,"Velocity":71,"Duration":1326331,"SoundDuration":1326331,"Delta":75719124},{"NoteNumber":65,"Velocity":36,"Duration":652174,"SoundDuration":652174,"Delta":75719124},{"NoteNumber":62,"Velocity":36,"Duration":652174,"SoundDuration":652174,"Delta":75719124},{"NoteNumber":37,"Velocity":36,"Duration":652174,"SoundDuration":652174,"Delta":75719124},{"NoteNumber":49,"Velocity":43,"Duration":652815,"SoundDuration":652815,"Delta":75738145},{"NoteNumber":65,"Velocity":36,"Duration":674157,"SoundDuration":674157,"Delta":76371298},{"NoteNumber":68,"Velocity":36,"Duration":674157,"SoundDuration":674157,"Delta":76371298},{"NoteNumber":41,"Velocity":31,"Duration":674157,"SoundDuration":674157,"Delta":76371298},{"NoteNumber":49,"Velocity":31,"Duration":674157,"SoundDuration":674157,"Delta":76371298},{"NoteNumber":53,"Velocity":37,"Duration":674157,"SoundDuration":674157,"Delta":76371298},{"NoteNumber":69,"Velocity":48,"Duration":681818,"SoundDuration":681818,"Delta":77045455},{"NoteNumber":73,"Velocity":54,"Duration":681818,"SoundDuration":681818,"Delta":77045455},{"NoteNumber":49,"Velocity":31,"Duration":681818,"SoundDuration":681818,"Delta":77045455},{"NoteNumber":42,"Velocity":31,"Duration":681818,"SoundDuration":681818,"Delta":77045455},{"NoteNumber":54,"Velocity":37,"Duration":681818,"SoundDuration":681818,"Delta":77045455},{"NoteNumber":65,"Velocity":39,"Duration":1315887,"SoundDuration":1315887,"Delta":77727273},{"NoteNumber":62,"Velocity":39,"Duration":1315887,"SoundDuration":1315887,"Delta":77727273},{"NoteNumber":73,"Velocity":55,"Duration":674157,"SoundDuration":674157,"Delta":77727273},{"NoteNumber":68,"Velocity":39,"Duration":1315887,"SoundDuration":1315887,"Delta":77727273},{"NoteNumber":44,"Velocity":34,"Duration":993306,"SoundDuration":993306,"Delta":77727273},{"NoteNumber":56,"Velocity":41,"Duration":993306,"SoundDuration":993306,"Delta":77727273},{"NoteNumber":49,"Velocity":34,"Duration":993306,"SoundDuration":993306,"Delta":77727273},{"NoteNumber":71,"Velocity":47,"Duration":641729,"SoundDuration":641729,"Delta":78401431},{"NoteNumber":57,"Velocity":45,"Duration":322580,"SoundDuration":322580,"Delta":78720580},{"NoteNumber":45,"Velocity":38,"Duration":322580,"SoundDuration":322580,"Delta":78720580},{"NoteNumber":63,"Velocity":39,"Duration":698051,"SoundDuration":698051,"Delta":79043161},{"NoteNumber":66,"Velocity":39,"Duration":698051,"SoundDuration":698051,"Delta":79043161},{"NoteNumber":69,"Velocity":47,"Duration":698051,"SoundDuration":698051,"Delta":79043161},{"NoteNumber":59,"Velocity":48,"Duration":340908,"SoundDuration":340908,"Delta":79043161},{"NoteNumber":47,"Velocity":40,"Duration":340908,"SoundDuration":340908,"Delta":79043161},{"NoteNumber":60,"Velocity":50,"Duration":357142,"SoundDuration":357142,"Delta":79384070},{"NoteNumber":48,"Velocity":42,"Duration":357142,"SoundDuration":357142,"Delta":79384070},{"NoteNumber":66,"Velocity":45,"Duration":1333332,"SoundDuration":1333332,"Delta":79741212},{"NoteNumber":63,"Velocity":44,"Duration":666666,"SoundDuration":666666,"Delta":79741212},{"NoteNumber":60,"Velocity":44,"Duration":666666,"SoundDuration":666666,"Delta":79741212},{"NoteNumber":69,"Velocity":54,"Duration":1333332,"SoundDuration":1333332,"Delta":79741212},{"NoteNumber":49,"Velocity":32,"Duration":1333332,"SoundDuration":1333332,"Delta":79741212},{"NoteNumber":60,"Velocity":39,"Duration":666666,"SoundDuration":666666,"Delta":80407879},{"NoteNumber":63,"Velocity":39,"Duration":666666,"SoundDuration":666666,"Delta":80407879},{"NoteNumber":54,"Velocity":28,"Duration":666666,"SoundDuration":666666,"Delta":80407879},{"NoteNumber":57,"Velocity":35,"Duration":666666,"SoundDuration":666666,"Delta":80407879},{"NoteNumber":61,"Velocity":38,"Duration":666666,"SoundDuration":666666,"Delta":81074545},{"NoteNumber":65,"Velocity":38,"Duration":666666,"SoundDuration":666666,"Delta":81074545},{"NoteNumber":68,"Velocity":44,"Duration":666666,"SoundDuration":666666,"Delta":81074545},{"NoteNumber":53,"Velocity":25,"Duration":666666,"SoundDuration":666666,"Delta":81074545},{"NoteNumber":49,"Velocity":25,"Duration":666666,"SoundDuration":666666,"Delta":81074545},{"NoteNumber":56,"Velocity":29,"Duration":666666,"SoundDuration":666666,"Delta":81074545},{"NoteNumber":65,"Velocity":35,"Duration":666666,"SoundDuration":666666,"Delta":81741212},{"NoteNumber":61,"Velocity":35,"Duration":666666,"SoundDuration":666666,"Delta":81741212},{"NoteNumber":68,"Velocity":43,"Duration":666666,"SoundDuration":666666,"Delta":81741212},{"NoteNumber":53,"Velocity":26,"Duration":666666,"SoundDuration":666666,"Delta":81741212},{"NoteNumber":49,"Velocity":26,"Duration":666666,"SoundDuration":666666,"Delta":81741212},{"NoteNumber":56,"Velocity":31,"Duration":666666,"SoundDuration":666666,"Delta":81741212},{"NoteNumber":64,"Velocity":34,"Duration":666666,"SoundDuration":666666,"Delta":82407878},{"NoteNumber":67,"Velocity":39,"Duration":666666,"SoundDuration":666666,"Delta":82407878},{"NoteNumber":58,"Velocity":26,"Duration":666666,"SoundDuration":666666,"Delta":82407878},{"NoteNumber":52,"Velocity":21,"Duration":666666,"SoundDuration":666666,"Delta":82407878},{"NoteNumber":49,"Velocity":21,"Duration":666666,"SoundDuration":666666,"Delta":82407878},{"NoteNumber":55,"Velocity":21,"Duration":666666,"SoundDuration":666666,"Delta":82407878},{"NoteNumber":62,"Velocity":34,"Duration":535714,"SoundDuration":535714,"Delta":83074545},{"NoteNumber":50,"Velocity":21,"Duration":714285,"SoundDuration":714285,"Delta":83074545},{"NoteNumber":55,"Velocity":21,"Duration":714285,"SoundDuration":714285,"Delta":83074545},{"NoteNumber":59,"Velocity":26,"Duration":714285,"SoundDuration":714285,"Delta":83074545},{"NoteNumber":67,"Velocity":53,"Duration":178571,"SoundDuration":178571,"Delta":83610259},{"NoteNumber":83,"Velocity":65,"Duration":1333332,"SoundDuration":1333332,"Delta":83788830},{"NoteNumber":59,"Velocity":43,"Duration":2007490,"SoundDuration":2007490,"Delta":83788830},{"NoteNumber":43,"Velocity":32,"Duration":2007490,"SoundDuration":2007490,"Delta":83788830},{"NoteNumber":50,"Velocity":32,"Duration":2007490,"SoundDuration":2007490,"Delta":83788830},{"NoteNumber":81,"Velocity":60,"Duration":668321,"SoundDuration":668321,"Delta":85102719},{"NoteNumber":81,"Velocity":65,"Duration":645161,"SoundDuration":645161,"Delta":85796321},{"NoteNumber":55,"Velocity":30,"Duration":1994157,"SoundDuration":1994157,"Delta":85796321},{"NoteNumber":47,"Velocity":30,"Duration":1994157,"SoundDuration":1994157,"Delta":85796321},{"NoteNumber":62,"Velocity":36,"Duration":1994157,"SoundDuration":1994157,"Delta":85796321},{"NoteNumber":91,"Velocity":65,"Duration":659340,"SoundDuration":659340,"Delta":86441482},{"NoteNumber":79,"Velocity":46,"Duration":659340,"SoundDuration":659340,"Delta":86441482},{"NoteNumber":78,"Velocity":54,"Duration":683907,"SoundDuration":683907,"Delta":87100823},{"NoteNumber":90,"Velocity":64,"Duration":683907,"SoundDuration":683907,"Delta":87100823},{"NoteNumber":90,"Velocity":69,"Duration":645161,"SoundDuration":645161,"Delta":87790478},{"NoteNumber":78,"Velocity":58,"Duration":645161,"SoundDuration":645161,"Delta":87790478},{"NoteNumber":48,"Velocity":30,"Duration":1942497,"SoundDuration":1942497,"Delta":87790478},{"NoteNumber":64,"Velocity":42,"Duration":1942497,"SoundDuration":1942497,"Delta":87790478},{"NoteNumber":55,"Velocity":30,"Duration":1942497,"SoundDuration":1942497,"Delta":87790478},{"NoteNumber":76,"Velocity":56,"Duration":645161,"SoundDuration":645161,"Delta":88435639},{"NoteNumber":88,"Velocity":67,"Duration":645161,"SoundDuration":645161,"Delta":88435639},{"NoteNumber":78,"Velocity":60,"Duration":646739,"SoundDuration":646739,"Delta":89080801},{"NoteNumber":90,"Velocity":71,"Duration":646739,"SoundDuration":646739,"Delta":89080801},{"NoteNumber":90,"Velocity":75,"Duration":697674,"SoundDuration":697674,"Delta":89732975},{"NoteNumber":78,"Velocity":63,"Duration":697674,"SoundDuration":697674,"Delta":89732975},{"NoteNumber":47,"Velocity":39,"Duration":1349848,"SoundDuration":1349848,"Delta":89732975},{"NoteNumber":55,"Velocity":39,"Duration":697674,"SoundDuration":697674,"Delta":89732975},{"NoteNumber":62,"Velocity":47,"Duration":697674,"SoundDuration":697674,"Delta":89732975},{"NoteNumber":91,"Velocity":72,"Duration":989252,"SoundDuration":989252,"Delta":90430649},{"NoteNumber":79,"Velocity":61,"Duration":989252,"SoundDuration":989252,"Delta":90430649},{"NoteNumber":55,"Velocity":35,"Duration":652174,"SoundDuration":652174,"Delta":90430649},{"NoteNumber":50,"Velocity":36,"Duration":674157,"SoundDuration":674157,"Delta":91082823},{"NoteNumber":54,"Velocity":43,"Duration":674157,"SoundDuration":674157,"Delta":91082823},{"NoteNumber":78,"Velocity":64,"Duration":334269,"SoundDuration":334269,"Delta":91419902},{"NoteNumber":66,"Velocity":57,"Duration":334269,"SoundDuration":334269,"Delta":91419902},{"NoteNumber":66,"Velocity":54,"Duration":659340,"SoundDuration":659340,"Delta":91756981},{"NoteNumber":78,"Velocity":54,"Duration":659340,"SoundDuration":659340,"Delta":91756981},{"NoteNumber":50,"Velocity":35,"Duration":659340,"SoundDuration":659340,"Delta":91756981},{"NoteNumber":54,"Velocity":35,"Duration":659340,"SoundDuration":659340,"Delta":91756981},{"NoteNumber":81,"Velocity":52,"Duration":638298,"SoundDuration":638298,"Delta":92416321},{"NoteNumber":69,"Velocity":52,"Duration":638298,"SoundDuration":638298,"Delta":92416321},{"NoteNumber":49,"Velocity":31,"Duration":638298,"SoundDuration":638298,"Delta":92416321},{"NoteNumber":54,"Velocity":31,"Duration":638298,"SoundDuration":638298,"Delta":92416321},{"NoteNumber":57,"Velocity":31,"Duration":638298,"SoundDuration":638298,"Delta":92416321},{"NoteNumber":85,"Velocity":59,"Duration":653845,"SoundDuration":653845,"Delta":93054619},{"NoteNumber":73,"Velocity":59,"Duration":653845,"SoundDuration":653845,"Delta":93054619},{"NoteNumber":49,"Velocity":26,"Duration":653845,"SoundDuration":653845,"Delta":93054619},{"NoteNumber":54,"Velocity":26,"Duration":653845,"SoundDuration":653845,"Delta":93054619},{"NoteNumber":57,"Velocity":26,"Duration":653845,"SoundDuration":653845,"Delta":93054619},{"NoteNumber":61,"Velocity":31,"Duration":653845,"SoundDuration":653845,"Delta":93054619},{"NoteNumber":73,"Velocity":62,"Duration":1333332,"SoundDuration":1333332,"Delta":93713960},{"NoteNumber":85,"Velocity":62,"Duration":1333332,"SoundDuration":1333332,"Delta":93713960},{"NoteNumber":49,"Velocity":31,"Duration":1333332,"SoundDuration":1333332,"Delta":93713960},{"NoteNumber":53,"Velocity":31,"Duration":1333332,"SoundDuration":1333332,"Delta":93713960},{"NoteNumber":56,"Velocity":31,"Duration":1333332,"SoundDuration":1333332,"Delta":93713960},{"NoteNumber":61,"Velocity":38,"Duration":1333332,"SoundDuration":1333332,"Delta":93713960},{"NoteNumber":85,"Velocity":57,"Duration":683907,"SoundDuration":683907,"Delta":95047293},{"NoteNumber":73,"Velocity":57,"Duration":683907,"SoundDuration":683907,"Delta":95047293},{"NoteNumber":54,"Velocity":27,"Duration":683907,"SoundDuration":683907,"Delta":95047293},{"NoteNumber":57,"Velocity":27,"Duration":683907,"SoundDuration":683907,"Delta":95047293},{"NoteNumber":61,"Velocity":32,"Duration":683907,"SoundDuration":683907,"Delta":95047293},{"NoteNumber":85,"Velocity":63,"Duration":659340,"SoundDuration":659340,"Delta":95736948},{"NoteNumber":73,"Velocity":53,"Duration":659340,"SoundDuration":659340,"Delta":95736948},{"NoteNumber":57,"Velocity":33,"Duration":659340,"SoundDuration":659340,"Delta":95736948},{"NoteNumber":54,"Velocity":33,"Duration":659340,"SoundDuration":659340,"Delta":95736948},{"NoteNumber":61,"Velocity":39,"Duration":659340,"SoundDuration":659340,"Delta":95736948},{"NoteNumber":74,"Velocity":52,"Duration":638298,"SoundDuration":638298,"Delta":96396288},{"NoteNumber":86,"Velocity":62,"Duration":638298,"SoundDuration":638298,"Delta":96396288},{"NoteNumber":47,"Velocity":26,"Duration":1297638,"SoundDuration":1297638,"Delta":96396288},{"NoteNumber":62,"Velocity":34,"Duration":638298,"SoundDuration":638298,"Delta":96396288},{"NoteNumber":67,"Velocity":47,"Duration":659340,"SoundDuration":659340,"Delta":97034586},{"NoteNumber":79,"Velocity":56,"Duration":659340,"SoundDuration":659340,"Delta":97034586},{"NoteNumber":55,"Velocity":31,"Duration":659340,"SoundDuration":659340,"Delta":97034586},{"NoteNumber":83,"Velocity":63,"Duration":659340,"SoundDuration":659340,"Delta":97693927},{"NoteNumber":71,"Velocity":53,"Duration":659340,"SoundDuration":659340,"Delta":97693927},{"NoteNumber":59,"Velocity":39,"Duration":659340,"SoundDuration":659340,"Delta":97693927},{"NoteNumber":61,"Velocity":48,"Duration":638298,"SoundDuration":638298,"Delta":98353267},{"NoteNumber":73,"Velocity":57,"Duration":638298,"SoundDuration":638298,"Delta":98353267},{"NoteNumber":37,"Velocity":26,"Duration":638298,"SoundDuration":638298,"Delta":98353267},{"NoteNumber":49,"Velocity":31,"Duration":1297638,"SoundDuration":1297638,"Delta":98353267},{"NoteNumber":65,"Velocity":47,"Duration":659340,"SoundDuration":659340,"Delta":98991565},{"NoteNumber":77,"Velocity":56,"Duration":659340,"SoundDuration":659340,"Delta":98991565},{"NoteNumber":53,"Velocity":31,"Duration":659340,"SoundDuration":659340,"Delta":98991565},{"NoteNumber":78,"Velocity":63,"Duration":697674,"SoundDuration":697674,"Delta":99650906},{"NoteNumber":66,"Velocity":53,"Duration":697674,"SoundDuration":697674,"Delta":99650906},{"NoteNumber":49,"Velocity":33,"Duration":697674,"SoundDuration":697674,"Delta":99650906},{"NoteNumber":42,"Velocity":33,"Duration":697674,"SoundDuration":697674,"Delta":99650906},{"NoteNumber":54,"Velocity":39,"Duration":697674,"SoundDuration":697674,"Delta":99650906},{"NoteNumber":73,"Velocity":57,"Duration":967968,"SoundDuration":967968,"Delta":100348580},{"NoteNumber":85,"Velocity":68,"Duration":967968,"SoundDuration":967968,"Delta":100348580},{"NoteNumber":49,"Velocity":31,"Duration":1297638,"SoundDuration":1297638,"Delta":100348580},{"NoteNumber":41,"Velocity":31,"Duration":1297638,"SoundDuration":1297638,"Delta":100348580},{"NoteNumber":56,"Velocity":37,"Duration":1297638,"SoundDuration":1297638,"Delta":100348580},{"NoteNumber":68,"Velocity":41,"Duration":329670,"SoundDuration":329670,"Delta":101316549},{"NoteNumber":80,"Velocity":49,"Duration":329670,"SoundDuration":329670,"Delta":101316549},{"NoteNumber":81,"Velocity":53,"Duration":731707,"SoundDuration":731707,"Delta":101646219},{"NoteNumber":69,"Velocity":45,"Duration":731707,"SoundDuration":731707,"Delta":101646219},{"NoteNumber":49,"Velocity":28,"Duration":731707,"SoundDuration":731707,"Delta":101646219},{"NoteNumber":42,"Velocity":28,"Duration":731707,"SoundDuration":731707,"Delta":101646219},{"NoteNumber":54,"Velocity":33,"Duration":731707,"SoundDuration":731707,"Delta":101646219},{"NoteNumber":69,"Velocity":45,"Duration":967968,"SoundDuration":967968,"Delta":102377926},{"NoteNumber":81,"Velocity":54,"Duration":967968,"SoundDuration":967968,"Delta":102377926},{"NoteNumber":49,"Velocity":20,"Duration":1297638,"SoundDuration":1297638,"Delta":102377926},{"NoteNumber":57,"Velocity":32,"Duration":967968,"SoundDuration":967968,"Delta":102377926},{"NoteNumber":65,"Velocity":37,"Duration":329670,"SoundDuration":329670,"Delta":103345895},{"NoteNumber":77,"Velocity":44,"Duration":329670,"SoundDuration":329670,"Delta":103345895},{"NoteNumber":53,"Velocity":22,"Duration":329670,"SoundDuration":329670,"Delta":103345895},{"NoteNumber":42,"Velocity":26,"Duration":344827,"SoundDuration":344827,"Delta":104334905},{"NoteNumber":61,"Velocity":26,"Duration":326087,"SoundDuration":326087,"Delta":105024560},{"NoteNumber":57,"Velocity":20,"Duration":326087,"SoundDuration":326087,"Delta":105024560},{"NoteNumber":54,"Velocity":20,"Duration":326087,"SoundDuration":326087,"Delta":105024560},{"NoteNumber":49,"Velocity":20,"Duration":326087,"SoundDuration":326087,"Delta":105024560},{"NoteNumber":61,"Velocity":31,"Duration":329670,"SoundDuration":329670,"Delta":105676734},{"NoteNumber":57,"Velocity":24,"Duration":329670,"SoundDuration":329670,"Delta":105676734},{"NoteNumber":54,"Velocity":24,"Duration":329670,"SoundDuration":329670,"Delta":105676734},{"NoteNumber":49,"Velocity":24,"Duration":329670,"SoundDuration":329670,"Delta":105676734},{"NoteNumber":42,"Velocity":26,"Duration":344827,"SoundDuration":344827,"Delta":106336075},{"NoteNumber":61,"Velocity":26,"Duration":322580,"SoundDuration":322580,"Delta":107025730},{"NoteNumber":57,"Velocity":20,"Duration":322580,"SoundDuration":322580,"Delta":107025730},{"NoteNumber":54,"Velocity":20,"Duration":322580,"SoundDuration":322580,"Delta":107025730},{"NoteNumber":49,"Velocity":20,"Duration":322580,"SoundDuration":322580,"Delta":107025730},{"NoteNumber":73,"Velocity":44,"Duration":650358,"SoundDuration":650358,"Delta":107348311},{"NoteNumber":49,"Velocity":23,"Duration":333333,"SoundDuration":333333,"Delta":107670891},{"NoteNumber":54,"Velocity":23,"Duration":333333,"SoundDuration":333333,"Delta":107670891},{"NoteNumber":57,"Velocity":23,"Duration":333333,"SoundDuration":333333,"Delta":107670891},{"NoteNumber":61,"Velocity":29,"Duration":333333,"SoundDuration":333333,"Delta":107670891},{"NoteNumber":73,"Velocity":44,"Duration":661110,"SoundDuration":661110,"Delta":108004225},{"NoteNumber":42,"Velocity":26,"Duration":333333,"SoundDuration":333333,"Delta":108337558},{"NoteNumber":73,"Velocity":44,"Duration":661110,"SoundDuration":661110,"Delta":108670891},{"NoteNumber":78,"Velocity":55,"Duration":661110,"SoundDuration":661110,"Delta":109004224},{"NoteNumber":61,"Velocity":26,"Duration":333333,"SoundDuration":333333,"Delta":109004224},{"NoteNumber":57,"Velocity":20,"Duration":333333,"SoundDuration":333333,"Delta":109004224},{"NoteNumber":54,"Velocity":20,"Duration":333333,"SoundDuration":333333,"Delta":109004224},{"NoteNumber":49,"Velocity":20,"Duration":333333,"SoundDuration":333333,"Delta":109004224},{"NoteNumber":73,"Velocity":44,"Duration":661110,"SoundDuration":661110,"Delta":109337558},{"NoteNumber":78,"Velocity":63,"Duration":666666,"SoundDuration":666666,"Delta":109670891},{"NoteNumber":49,"Velocity":24,"Duration":333333,"SoundDuration":333333,"Delta":109670891},{"NoteNumber":54,"Velocity":24,"Duration":333333,"SoundDuration":333333,"Delta":109670891},{"NoteNumber":57,"Velocity":24,"Duration":333333,"SoundDuration":333333,"Delta":109670891},{"NoteNumber":61,"Velocity":30,"Duration":333333,"SoundDuration":333333,"Delta":109670891},{"NoteNumber":73,"Velocity":44,"Duration":657508,"SoundDuration":657508,"Delta":110004224},{"NoteNumber":81,"Velocity":63,"Duration":659340,"SoundDuration":659340,"Delta":110337557},{"NoteNumber":42,"Velocity":26,"Duration":329670,"SoundDuration":329670,"Delta":110337557},{"NoteNumber":73,"Velocity":48,"Duration":668750,"SoundDuration":668750,"Delta":110667228},{"NoteNumber":85,"Velocity":68,"Duration":683907,"SoundDuration":683907,"Delta":110996898},{"NoteNumber":61,"Velocity":26,"Duration":344827,"SoundDuration":344827,"Delta":110996898},{"NoteNumber":57,"Velocity":20,"Duration":344827,"SoundDuration":344827,"Delta":110996898},{"NoteNumber":54,"Velocity":20,"Duration":344827,"SoundDuration":344827,"Delta":110996898},{"NoteNumber":49,"Velocity":20,"Duration":344827,"SoundDuration":344827,"Delta":110996898},{"NoteNumber":73,"Velocity":50,"Duration":344827,"SoundDuration":344827,"Delta":111341725},{"NoteNumber":85,"Velocity":71,"Duration":1350456,"SoundDuration":1350456,"Delta":111686553},{"NoteNumber":53,"Velocity":23,"Duration":329670,"SoundDuration":329670,"Delta":111686553},{"NoteNumber":49,"Velocity":23,"Duration":329670,"SoundDuration":329670,"Delta":111686553},{"NoteNumber":56,"Velocity":23,"Duration":329670,"SoundDuration":329670,"Delta":111686553},{"NoteNumber":59,"Velocity":23,"Duration":329670,"SoundDuration":329670,"Delta":111686553},{"NoteNumber":61,"Velocity":29,"Duration":329670,"SoundDuration":329670,"Delta":111686553},{"NoteNumber":77,"Velocity":52,"Duration":653845,"SoundDuration":653845,"Delta":112016223},{"NoteNumber":83,"Velocity":52,"Duration":653845,"SoundDuration":653845,"Delta":112016223},{"NoteNumber":44,"Velocity":26,"Duration":329670,"SoundDuration":329670,"Delta":112345893},{"NoteNumber":77,"Velocity":37,"Duration":691116,"SoundDuration":691116,"Delta":112675564},{"NoteNumber":83,"Velocity":44,"Duration":691116,"SoundDuration":691116,"Delta":112675564},{"NoteNumber":88,"Velocity":75,"Duration":329670,"SoundDuration":329670,"Delta":113037009},{"NoteNumber":62,"Velocity":26,"Duration":329670,"SoundDuration":329670,"Delta":113037009},{"NoteNumber":59,"Velocity":20,"Duration":329670,"SoundDuration":329670,"Delta":113037009},{"NoteNumber":56,"Velocity":20,"Duration":329670,"SoundDuration":329670,"Delta":113037009},{"NoteNumber":53,"Velocity":20,"Duration":329670,"SoundDuration":329670,"Delta":113037009},{"NoteNumber":86,"Velocity":67,"Duration":329670,"SoundDuration":329670,"Delta":113366680},{"NoteNumber":86,"Velocity":73,"Duration":659340,"SoundDuration":659340,"Delta":113696350},{"NoteNumber":53,"Velocity":24,"Duration":329670,"SoundDuration":329670,"Delta":113696350},{"NoteNumber":56,"Velocity":24,"Duration":329670,"SoundDuration":329670,"Delta":113696350},{"NoteNumber":59,"Velocity":24,"Duration":329670,"SoundDuration":329670,"Delta":113696350},{"NoteNumber":62,"Velocity":30,"Duration":329670,"SoundDuration":329670,"Delta":113696350},{"NoteNumber":71,"Velocity":44,"Duration":653845,"SoundDuration":653845,"Delta":114026020},{"NoteNumber":77,"Velocity":64,"Duration":659340,"SoundDuration":659340,"Delta":114355690},{"NoteNumber":44,"Velocity":26,"Duration":329670,"SoundDuration":329670,"Delta":114355690},{"NoteNumber":71,"Velocity":44,"Duration":653845,"SoundDuration":653845,"Delta":114685361},{"NoteNumber":83,"Velocity":64,"Duration":659340,"SoundDuration":659340,"Delta":115015031},{"NoteNumber":62,"Velocity":26,"Duration":329670,"SoundDuration":329670,"Delta":115015031},{"NoteNumber":59,"Velocity":20,"Duration":329670,"SoundDuration":329670,"Delta":115015031},{"NoteNumber":56,"Velocity":20,"Duration":329670,"SoundDuration":329670,"Delta":115015031},{"NoteNumber":53,"Velocity":20,"Duration":329670,"SoundDuration":329670,"Delta":115015031},{"NoteNumber":71,"Velocity":44,"Duration":674497,"SoundDuration":674497,"Delta":115344701},{"NoteNumber":83,"Velocity":74,"Duration":689655,"SoundDuration":689655,"Delta":115674371},{"NoteNumber":53,"Velocity":23,"Duration":344827,"SoundDuration":344827,"Delta":115674371},{"NoteNumber":56,"Velocity":23,"Duration":344827,"SoundDuration":344827,"Delta":115674371},{"NoteNumber":59,"Velocity":23,"Duration":344827,"SoundDuration":344827,"Delta":115674371},{"NoteNumber":62,"Velocity":29,"Duration":344827,"SoundDuration":344827,"Delta":115674371},{"NoteNumber":65,"Velocity":44,"Duration":669003,"SoundDuration":669003,"Delta":116019199},{"NoteNumber":71,"Velocity":55,"Duration":678507,"SoundDuration":678507,"Delta":116364026},{"NoteNumber":44,"Velocity":26,"Duration":329670,"SoundDuration":329670,"Delta":116364026},{"NoteNumber":65,"Velocity":39,"Duration":669489,"SoundDuration":669489,"Delta":116693697},{"NoteNumber":73,"Velocity":63,"Duration":326087,"SoundDuration":326087,"Delta":117042534},{"NoteNumber":62,"Velocity":26,"Duration":326087,"SoundDuration":326087,"Delta":117042534},{"NoteNumber":59,"Velocity":20,"Duration":326087,"SoundDuration":326087,"Delta":117042534},{"NoteNumber":56,"Velocity":20,"Duration":326087,"SoundDuration":326087,"Delta":117042534},{"NoteNumber":53,"Velocity":20,"Duration":326087,"SoundDuration":326087,"Delta":117042534},{"NoteNumber":65,"Velocity":37,"Duration":646739,"SoundDuration":646739,"Delta":117368621},{"NoteNumber":74,"Velocity":65,"Duration":323369,"SoundDuration":323369,"Delta":117368621},{"NoteNumber":71,"Velocity":40,"Duration":652174,"SoundDuration":652174,"Delta":117694708},{"NoteNumber":74,"Velocity":66,"Duration":652174,"SoundDuration":652174,"Delta":117694708},{"NoteNumber":53,"Velocity":24,"Duration":326087,"SoundDuration":326087,"Delta":117694708},{"NoteNumber":56,"Velocity":24,"Duration":326087,"SoundDuration":326087,"Delta":117694708},{"NoteNumber":59,"Velocity":24,"Duration":326087,"SoundDuration":326087,"Delta":117694708},{"NoteNumber":62,"Velocity":30,"Duration":326087,"SoundDuration":326087,"Delta":117694708},{"NoteNumber":65,"Velocity":37,"Duration":646739,"SoundDuration":646739,"Delta":118020795},{"NoteNumber":71,"Velocity":44,"Duration":646739,"SoundDuration":646739,"Delta":118020795},{"NoteNumber":73,"Velocity":63,"Duration":978260,"SoundDuration":978260,"Delta":118346882},{"NoteNumber":44,"Velocity":26,"Duration":326087,"SoundDuration":326087,"Delta":118346882},{"NoteNumber":71,"Velocity":44,"Duration":646739,"SoundDuration":646739,"Delta":118672969},{"NoteNumber":65,"Velocity":37,"Duration":646739,"SoundDuration":646739,"Delta":118672969},{"NoteNumber":61,"Velocity":26,"Duration":326086,"SoundDuration":326086,"Delta":118999056},{"NoteNumber":59,"Velocity":20,"Duration":326086,"SoundDuration":326086,"Delta":118999056},{"NoteNumber":56,"Velocity":20,"Duration":326086,"SoundDuration":326086,"Delta":118999056},{"NoteNumber":53,"Velocity":20,"Duration":326086,"SoundDuration":326086,"Delta":118999056},{"NoteNumber":65,"Velocity":37,"Duration":326087,"SoundDuration":326087,"Delta":119325143},{"NoteNumber":71,"Velocity":66,"Duration":326087,"SoundDuration":326087,"Delta":119325143},{"NoteNumber":71,"Velocity":63,"Duration":333333,"SoundDuration":333333,"Delta":119651230},{"NoteNumber":49,"Velocity":23,"Duration":333333,"SoundDuration":333333,"Delta":119651230},{"NoteNumber":54,"Velocity":23,"Duration":333333,"SoundDuration":333333,"Delta":119651230},{"NoteNumber":57,"Velocity":23,"Duration":333333,"SoundDuration":333333,"Delta":119651230},{"NoteNumber":61,"Velocity":29,"Duration":333333,"SoundDuration":333333,"Delta":119651230},{"NoteNumber":69,"Velocity":54,"Duration":666666,"SoundDuration":666666,"Delta":119984563},{"NoteNumber":42,"Velocity":26,"Duration":333333,"SoundDuration":333333,"Delta":120317896},{"NoteNumber":73,"Velocity":63,"Duration":666666,"SoundDuration":666666,"Delta":120651230},{"NoteNumber":61,"Velocity":26,"Duration":333333,"SoundDuration":333333,"Delta":120984563},{"NoteNumber":57,"Velocity":20,"Duration":333333,"SoundDuration":333333,"Delta":120984563},{"NoteNumber":54,"Velocity":20,"Duration":333333,"SoundDuration":333333,"Delta":120984563},{"NoteNumber":49,"Velocity":20,"Duration":333333,"SoundDuration":333333,"Delta":120984563},{"NoteNumber":78,"Velocity":67,"Duration":555555,"SoundDuration":555555,"Delta":121317896},{"NoteNumber":49,"Velocity":24,"Duration":333333,"SoundDuration":333333,"Delta":121651229},{"NoteNumber":54,"Velocity":24,"Duration":333333,"SoundDuration":333333,"Delta":121651229},{"NoteNumber":57,"Velocity":24,"Duration":333333,"SoundDuration":333333,"Delta":121651229},{"NoteNumber":61,"Velocity":30,"Duration":333333,"SoundDuration":333333,"Delta":121651229},{"NoteNumber":81,"Velocity":66,"Duration":222222,"SoundDuration":222222,"Delta":121873451},{"NoteNumber":85,"Velocity":67,"Duration":442002,"SoundDuration":442002,"Delta":122095674},{"NoteNumber":42,"Velocity":26,"Duration":329670,"SoundDuration":329670,"Delta":122317896},{"NoteNumber":90,"Velocity":70,"Duration":219780,"SoundDuration":219780,"Delta":122537676},{"NoteNumber":92,"Velocity":71,"Duration":219780,"SoundDuration":219780,"Delta":122757456},{"NoteNumber":93,"Velocity":75,"Duration":229884,"SoundDuration":229884,"Delta":122977236},{"NoteNumber":61,"Velocity":26,"Duration":344827,"SoundDuration":344827,"Delta":122977236},{"NoteNumber":57,"Velocity":20,"Duration":344827,"SoundDuration":344827,"Delta":122977236},{"NoteNumber":54,"Velocity":20,"Duration":344827,"SoundDuration":344827,"Delta":122977236},{"NoteNumber":49,"Velocity":20,"Duration":344827,"SoundDuration":344827,"Delta":122977236},{"NoteNumber":90,"Velocity":73,"Duration":229885,"SoundDuration":229885,"Delta":123207121},{"NoteNumber":85,"Velocity":63,"Duration":229884,"SoundDuration":229884,"Delta":123437006},{"NoteNumber":85,"Velocity":68,"Duration":170695,"SoundDuration":170695,"Delta":123666891},{"NoteNumber":53,"Velocity":25,"Duration":336844,"SoundDuration":336844,"Delta":123666891},{"NoteNumber":49,"Velocity":25,"Duration":336844,"SoundDuration":336844,"Delta":123666891},{"NoteNumber":56,"Velocity":25,"Duration":336844,"SoundDuration":336844,"Delta":123666891},{"NoteNumber":59,"Velocity":25,"Duration":336844,"SoundDuration":336844,"Delta":123666891},{"NoteNumber":61,"Velocity":32,"Duration":336844,"SoundDuration":336844,"Delta":123666891},{"NoteNumber":86,"Velocity":63,"Duration":166149,"SoundDuration":166149,"Delta":123837587},{"NoteNumber":85,"Velocity":59,"Duration":81200,"SoundDuration":81200,"Delta":124003736},{"NoteNumber":86,"Velocity":60,"Duration":80559,"SoundDuration":80559,"Delta":124084936},{"NoteNumber":85,"Velocity":62,"Duration":79423,"SoundDuration":79423,"Delta":124165496},{"NoteNumber":86,"Velocity":63,"Duration":78155,"SoundDuration":78155,"Delta":124244919},{"NoteNumber":85,"Velocity":64,"Duration":77319,"SoundDuration":77319,"Delta":124323074},{"NoteNumber":44,"Velocity":30,"Duration":309278,"SoundDuration":309278,"Delta":124323074},{"NoteNumber":86,"Velocity":65,"Duration":77319,"SoundDuration":77319,"Delta":124400394},{"NoteNumber":85,"Velocity":66,"Duration":154639,"SoundDuration":154639,"Delta":124477713},{"NoteNumber":84,"Velocity":69,"Duration":180722,"SoundDuration":180722,"Delta":124632352},{"NoteNumber":85,"Velocity":71,"Duration":180722,"SoundDuration":180722,"Delta":124813075},{"NoteNumber":88,"Velocity":74,"Duration":219780,"SoundDuration":219780,"Delta":124993798},{"NoteNumber":62,"Velocity":32,"Duration":329670,"SoundDuration":329670,"Delta":124993798},{"NoteNumber":59,"Velocity":24,"Duration":329670,"SoundDuration":329670,"Delta":124993798},{"NoteNumber":56,"Velocity":24,"Duration":329670,"SoundDuration":329670,"Delta":124993798},{"NoteNumber":53,"Velocity":24,"Duration":329670,"SoundDuration":329670,"Delta":124993798},{"NoteNumber":85,"Velocity":69,"Duration":224832,"SoundDuration":224832,"Delta":125213578},{"NoteNumber":86,"Velocity":70,"Duration":227011,"SoundDuration":227011,"Delta":125438411},{"NoteNumber":86,"Velocity":76,"Duration":219780,"SoundDuration":219780,"Delta":125668296},{"NoteNumber":53,"Velocity":28,"Duration":329670,"SoundDuration":329670,"Delta":125668296},{"NoteNumber":56,"Velocity":28,"Duration":329670,"SoundDuration":329670,"Delta":125668296},{"NoteNumber":59,"Velocity":28,"Duration":329670,"SoundDuration":329670,"Delta":125668296},{"NoteNumber":62,"Velocity":35,"Duration":329670,"SoundDuration":329670,"Delta":125668296},{"NoteNumber":76,"Velocity":62,"Duration":219780,"SoundDuration":219780,"Delta":125888076},{"NoteNumber":77,"Velocity":62,"Duration":219780,"SoundDuration":219780,"Delta":126107856},{"NoteNumber":77,"Velocity":70,"Duration":219780,"SoundDuration":219780,"Delta":126327636},{"NoteNumber":44,"Velocity":29,"Duration":329670,"SoundDuration":329670,"Delta":126327636},{"NoteNumber":86,"Velocity":59,"Duration":227537,"SoundDuration":227537,"Delta":126547417},{"NoteNumber":85,"Velocity":60,"Duration":232352,"SoundDuration":232352,"Delta":126774954},{"NoteNumber":85,"Velocity":67,"Duration":219780,"SoundDuration":219780,"Delta":127010248},{"NoteNumber":62,"Velocity":28,"Duration":329670,"SoundDuration":329670,"Delta":127010248},{"NoteNumber":59,"Velocity":21,"Duration":329670,"SoundDuration":329670,"Delta":127010248},{"NoteNumber":56,"Velocity":21,"Duration":329670,"SoundDuration":329670,"Delta":127010248},{"NoteNumber":53,"Velocity":21,"Duration":329670,"SoundDuration":329670,"Delta":127010248},{"NoteNumber":82,"Velocity":58,"Duration":219780,"SoundDuration":219780,"Delta":127230028},{"NoteNumber":83,"Velocity":53,"Duration":217032,"SoundDuration":217032,"Delta":127449808},{"NoteNumber":83,"Velocity":59,"Duration":172413,"SoundDuration":172413,"Delta":127669588},{"NoteNumber":53,"Velocity":23,"Duration":344827,"SoundDuration":344827,"Delta":127669588},{"NoteNumber":56,"Velocity":23,"Duration":344827,"SoundDuration":344827,"Delta":127669588},{"NoteNumber":59,"Velocity":23,"Duration":344827,"SoundDuration":344827,"Delta":127669588},{"NoteNumber":62,"Velocity":29,"Duration":344827,"SoundDuration":344827,"Delta":127669588},{"NoteNumber":65,"Velocity":46,"Duration":172413,"SoundDuration":172413,"Delta":127842002},{"NoteNumber":66,"Velocity":47,"Duration":172413,"SoundDuration":172413,"Delta":128014416},{"NoteNumber":68,"Velocity":48,"Duration":172413,"SoundDuration":172413,"Delta":128186830},{"NoteNumber":69,"Velocity":49,"Duration":164835,"SoundDuration":164835,"Delta":128359243},{"NoteNumber":44,"Velocity":29,"Duration":329670,"SoundDuration":329670,"Delta":128359243},{"NoteNumber":70,"Velocity":50,"Duration":164835,"SoundDuration":164835,"Delta":128524079},{"NoteNumber":71,"Velocity":51,"Duration":174418,"SoundDuration":174418,"Delta":128688914},{"NoteNumber":72,"Velocity":52,"Duration":174418,"SoundDuration":174418,"Delta":128863332},{"NoteNumber":73,"Velocity":54,"Duration":217391,"SoundDuration":217391,"Delta":129037751},{"NoteNumber":62,"Velocity":31,"Duration":326087,"SoundDuration":326087,"Delta":129037751},{"NoteNumber":59,"Velocity":24,"Duration":326087,"SoundDuration":326087,"Delta":129037751},{"NoteNumber":56,"Velocity":24,"Duration":326087,"SoundDuration":326087,"Delta":129037751},{"NoteNumber":53,"Velocity":24,"Duration":326087,"SoundDuration":326087,"Delta":129037751},{"NoteNumber":74,"Velocity":55,"Duration":217391,"SoundDuration":217391,"Delta":129255142},{"NoteNumber":75,"Velocity":57,"Duration":217391,"SoundDuration":217391,"Delta":129472534},{"NoteNumber":76,"Velocity":58,"Duration":217391,"SoundDuration":217391,"Delta":129689925},{"NoteNumber":53,"Velocity":28,"Duration":326087,"SoundDuration":326087,"Delta":129689925},{"NoteNumber":56,"Velocity":28,"Duration":326087,"SoundDuration":326087,"Delta":129689925},{"NoteNumber":59,"Velocity":28,"Duration":326087,"SoundDuration":326087,"Delta":129689925},{"NoteNumber":62,"Velocity":35,"Duration":326087,"SoundDuration":326087,"Delta":129689925},{"NoteNumber":73,"Velocity":60,"Duration":217391,"SoundDuration":217391,"Delta":129907316},{"NoteNumber":74,"Velocity":61,"Duration":214673,"SoundDuration":214673,"Delta":130124708},{"NoteNumber":74,"Velocity":64,"Duration":163043,"SoundDuration":163043,"Delta":130342099},{"NoteNumber":44,"Velocity":32,"Duration":326087,"SoundDuration":326087,"Delta":130342099},{"NoteNumber":83,"Velocity":62,"Duration":163043,"SoundDuration":163043,"Delta":130505142},{"NoteNumber":80,"Velocity":56,"Duration":163043,"SoundDuration":163043,"Delta":130668186},{"NoteNumber":77,"Velocity":56,"Duration":163043,"SoundDuration":163043,"Delta":130831229},{"NoteNumber":74,"Velocity":62,"Duration":163043,"SoundDuration":163043,"Delta":130994273},{"NoteNumber":61,"Velocity":32,"Duration":326087,"SoundDuration":326087,"Delta":130994273},{"NoteNumber":59,"Velocity":25,"Duration":326087,"SoundDuration":326087,"Delta":130994273},{"NoteNumber":56,"Velocity":25,"Duration":326087,"SoundDuration":326087,"Delta":130994273},{"NoteNumber":53,"Velocity":25,"Duration":326087,"SoundDuration":326087,"Delta":130994273},{"NoteNumber":72,"Velocity":57,"Duration":163043,"SoundDuration":163043,"Delta":131157316},{"NoteNumber":74,"Velocity":55,"Duration":163043,"SoundDuration":163043,"Delta":131320360},{"NoteNumber":73,"Velocity":55,"Duration":163043,"SoundDuration":163043,"Delta":131483403},{"NoteNumber":73,"Velocity":57,"Duration":666666,"SoundDuration":666666,"Delta":131646447},{"NoteNumber":54,"Velocity":28,"Duration":333333,"SoundDuration":333333,"Delta":131646447},{"NoteNumber":57,"Velocity":28,"Duration":333333,"SoundDuration":333333,"Delta":131646447},{"NoteNumber":61,"Velocity":36,"Duration":333333,"SoundDuration":333333,"Delta":131646447},{"NoteNumber":66,"Velocity":48,"Duration":661110,"SoundDuration":661110,"Delta":131979780},{"NoteNumber":78,"Velocity":62,"Duration":999999,"SoundDuration":999999,"Delta":132313113},{"NoteNumber":45,"Velocity":32,"Duration":333333,"SoundDuration":333333,"Delta":132313113},{"NoteNumber":66,"Velocity":48,"Duration":666666,"SoundDuration":666666,"Delta":132646447},{"NoteNumber":61,"Velocity":32,"Duration":333333,"SoundDuration":333333,"Delta":132979780},{"NoteNumber":57,"Velocity":25,"Duration":333333,"SoundDuration":333333,"Delta":132979780},{"NoteNumber":54,"Velocity":25,"Duration":333333,"SoundDuration":333333,"Delta":132979780},{"NoteNumber":73,"Velocity":56,"Duration":333333,"SoundDuration":333333,"Delta":133313113},{"NoteNumber":74,"Velocity":62,"Duration":1326007,"SoundDuration":1326007,"Delta":133646446},{"NoteNumber":53,"Velocity":30,"Duration":333333,"SoundDuration":333333,"Delta":133646446},{"NoteNumber":56,"Velocity":30,"Duration":333333,"SoundDuration":333333,"Delta":133646446},{"NoteNumber":59,"Velocity":30,"Duration":333333,"SoundDuration":333333,"Delta":133646446},{"NoteNumber":62,"Velocity":37,"Duration":333333,"SoundDuration":333333,"Delta":133646446},{"NoteNumber":71,"Velocity":43,"Duration":657508,"SoundDuration":657508,"Delta":133979780},{"NoteNumber":65,"Velocity":36,"Duration":657508,"SoundDuration":657508,"Delta":133979780},{"NoteNumber":44,"Velocity":32,"Duration":329670,"SoundDuration":329670,"Delta":134313113},{"NoteNumber":65,"Velocity":36,"Duration":668750,"SoundDuration":668750,"Delta":134642783},{"NoteNumber":71,"Velocity":43,"Duration":668750,"SoundDuration":668750,"Delta":134642783},{"NoteNumber":73,"Velocity":56,"Duration":689654,"SoundDuration":689654,"Delta":134972453},{"NoteNumber":61,"Velocity":32,"Duration":344827,"SoundDuration":344827,"Delta":134972453},{"NoteNumber":59,"Velocity":25,"Duration":344827,"SoundDuration":344827,"Delta":134972453},{"NoteNumber":56,"Velocity":25,"Duration":344827,"SoundDuration":344827,"Delta":134972453},{"NoteNumber":53,"Velocity":25,"Duration":344827,"SoundDuration":344827,"Delta":134972453},{"NoteNumber":65,"Velocity":36,"Duration":344827,"SoundDuration":344827,"Delta":135317281},{"NoteNumber":71,"Velocity":43,"Duration":344827,"SoundDuration":344827,"Delta":135317281},{"NoteNumber":73,"Velocity":62,"Duration":222222,"SoundDuration":222222,"Delta":135662108},{"NoteNumber":54,"Velocity":28,"Duration":333333,"SoundDuration":333333,"Delta":135662108},{"NoteNumber":57,"Velocity":28,"Duration":333333,"SoundDuration":333333,"Delta":135662108},{"NoteNumber":61,"Velocity":36,"Duration":333333,"SoundDuration":333333,"Delta":135662108},{"NoteNumber":85,"Velocity":57,"Duration":222222,"SoundDuration":222222,"Delta":135884331},{"NoteNumber":80,"Velocity":57,"Duration":220967,"SoundDuration":220967,"Delta":136106553},{"NoteNumber":83,"Velocity":63,"Duration":161290,"SoundDuration":161290,"Delta":136327520},{"NoteNumber":45,"Velocity":32,"Duration":322580,"SoundDuration":322580,"Delta":136327520},{"NoteNumber":81,"Velocity":65,"Duration":161290,"SoundDuration":161290,"Delta":136488811},{"NoteNumber":77,"Velocity":68,"Duration":161290,"SoundDuration":161290,"Delta":136650101},{"NoteNumber":78,"Velocity":70,"Duration":161290,"SoundDuration":161290,"Delta":136811392},{"NoteNumber":80,"Velocity":71,"Duration":161290,"SoundDuration":161290,"Delta":136972682},{"NoteNumber":49,"Velocity":25,"Duration":322580,"SoundDuration":322580,"Delta":136972682},{"NoteNumber":61,"Velocity":32,"Duration":322580,"SoundDuration":322580,"Delta":136972682},{"NoteNumber":57,"Velocity":25,"Duration":322580,"SoundDuration":322580,"Delta":136972682},{"NoteNumber":54,"Velocity":25,"Duration":322580,"SoundDuration":322580,"Delta":136972682},{"NoteNumber":78,"Velocity":70,"Duration":161290,"SoundDuration":161290,"Delta":137133972},{"NoteNumber":81,"Velocity":68,"Duration":107526,"SoundDuration":107526,"Delta":137295263},{"NoteNumber":78,"Velocity":67,"Duration":108235,"SoundDuration":108235,"Delta":137402790},{"NoteNumber":73,"Velocity":65,"Duration":109890,"SoundDuration":109890,"Delta":137513773},{"NoteNumber":76,"Velocity":66,"Duration":329670,"SoundDuration":329670,"Delta":137620916},{"NoteNumber":49,"Velocity":30,"Duration":329670,"SoundDuration":329670,"Delta":137620916},{"NoteNumber":53,"Velocity":30,"Duration":329670,"SoundDuration":329670,"Delta":137620916},{"NoteNumber":56,"Velocity":30,"Duration":329670,"SoundDuration":329670,"Delta":137620916},{"NoteNumber":59,"Velocity":30,"Duration":329670,"SoundDuration":329670,"Delta":137620916},{"NoteNumber":61,"Velocity":37,"Duration":329670,"SoundDuration":329670,"Delta":137620916},{"NoteNumber":75,"Velocity":62,"Duration":332722,"SoundDuration":332722,"Delta":137950586},{"NoteNumber":71,"Velocity":52,"Duration":661311,"SoundDuration":661311,"Delta":137950586},{"NoteNumber":65,"Velocity":43,"Duration":661311,"SoundDuration":661311,"Delta":137950586},{"NoteNumber":74,"Velocity":62,"Duration":334207,"SoundDuration":334207,"Delta":138283309},{"NoteNumber":44,"Velocity":32,"Duration":334207,"SoundDuration":334207,"Delta":138283309},{"NoteNumber":74,"Velocity":58,"Duration":671539,"SoundDuration":671539,"Delta":138617516},{"NoteNumber":71,"Velocity":48,"Duration":671539,"SoundDuration":671539,"Delta":138617516},{"NoteNumber":65,"Velocity":41,"Duration":671539,"SoundDuration":671539,"Delta":138617516},{"NoteNumber":61,"Velocity":32,"Duration":340142,"SoundDuration":340142,"Delta":138954595},{"NoteNumber":59,"Velocity":25,"Duration":340142,"SoundDuration":340142,"Delta":138954595},{"NoteNumber":56,"Velocity":25,"Duration":340142,"SoundDuration":340142,"Delta":138954595},{"NoteNumber":65,"Velocity":41,"Duration":340909,"SoundDuration":340909,"Delta":139294737},{"NoteNumber":71,"Velocity":48,"Duration":340909,"SoundDuration":340909,"Delta":139294737},{"NoteNumber":73,"Velocity":58,"Duration":340909,"SoundDuration":340909,"Delta":139294737},{"NoteNumber":73,"Velocity":60,"Duration":999999,"SoundDuration":999999,"Delta":139635646},{"NoteNumber":57,"Velocity":30,"Duration":333333,"SoundDuration":333333,"Delta":139635646},{"NoteNumber":61,"Velocity":39,"Duration":333333,"SoundDuration":333333,"Delta":139635646},{"NoteNumber":66,"Velocity":40,"Duration":666666,"SoundDuration":666666,"Delta":139968980},{"NoteNumber":45,"Velocity":35,"Duration":333333,"SoundDuration":333333,"Delta":140302313},{"NoteNumber":78,"Velocity":62,"Duration":639785,"SoundDuration":639785,"Delta":140635646},{"NoteNumber":61,"Velocity":36,"Duration":322580,"SoundDuration":322580,"Delta":140958227},{"NoteNumber":58,"Velocity":28,"Duration":322580,"SoundDuration":322580,"Delta":140958227},{"NoteNumber":78,"Velocity":63,"Duration":1294428,"SoundDuration":1294428,"Delta":141280808},{"NoteNumber":58,"Velocity":34,"Duration":322580,"SoundDuration":322580,"Delta":141603388},{"NoteNumber":61,"Velocity":42,"Duration":322580,"SoundDuration":322580,"Delta":141603388},{"NoteNumber":66,"Velocity":40,"Duration":663003,"SoundDuration":663003,"Delta":141925969},{"NoteNumber":46,"Velocity":40,"Duration":329670,"SoundDuration":329670,"Delta":142259302},{"NoteNumber":78,"Velocity":65,"Duration":654041,"SoundDuration":654041,"Delta":142588973},{"NoteNumber":63,"Velocity":40,"Duration":337078,"SoundDuration":337078,"Delta":142911553},{"NoteNumber":59,"Velocity":31,"Duration":337078,"SoundDuration":337078,"Delta":142911553},{"NoteNumber":78,"Velocity":67,"Duration":1333901,"SoundDuration":1333901,"Delta":143248632},{"NoteNumber":59,"Velocity":36,"Duration":322580,"SoundDuration":322580,"Delta":143585711},{"NoteNumber":63,"Velocity":47,"Duration":322580,"SoundDuration":322580,"Delta":143585711},{"NoteNumber":71,"Velocity":45,"Duration":674242,"SoundDuration":674242,"Delta":143908292},{"NoteNumber":47,"Velocity":42,"Duration":333333,"SoundDuration":333333,"Delta":144249201},{"NoteNumber":83,"Velocity":69,"Duration":646739,"SoundDuration":646739,"Delta":144582534},{"NoteNumber":64,"Velocity":42,"Duration":326087,"SoundDuration":326087,"Delta":144908621},{"NoteNumber":61,"Velocity":33,"Duration":326087,"SoundDuration":326087,"Delta":144908621},{"NoteNumber":83,"Velocity":71,"Duration":1309016,"SoundDuration":1309016,"Delta":145234708},{"NoteNumber":61,"Velocity":40,"Duration":326087,"SoundDuration":326087,"Delta":145560795},{"NoteNumber":64,"Velocity":50,"Duration":326087,"SoundDuration":326087,"Delta":145560795},{"NoteNumber":71,"Velocity":61,"Duration":670579,"SoundDuration":670579,"Delta":145886882},{"NoteNumber":49,"Velocity":44,"Duration":329670,"SoundDuration":329670,"Delta":146227791},{"NoteNumber":71,"Velocity":62,"Duration":653864,"SoundDuration":653864,"Delta":146557461},{"NoteNumber":83,"Velocity":73,"Duration":653864,"SoundDuration":653864,"Delta":146557461},{"NoteNumber":66,"Velocity":44,"Duration":333333,"SoundDuration":333333,"Delta":146883548},{"NoteNumber":63,"Velocity":35,"Duration":333333,"SoundDuration":333333,"Delta":146883548},{"NoteNumber":71,"Velocity":63,"Duration":661110,"SoundDuration":661110,"Delta":147216881},{"NoteNumber":83,"Velocity":75,"Duration":661110,"SoundDuration":661110,"Delta":147216881},{"NoteNumber":66,"Velocity":49,"Duration":333333,"SoundDuration":333333,"Delta":147550215},{"NoteNumber":63,"Velocity":41,"Duration":333333,"SoundDuration":333333,"Delta":147550215},{"NoteNumber":71,"Velocity":64,"Duration":661110,"SoundDuration":661110,"Delta":147883548},{"NoteNumber":83,"Velocity":76,"Duration":661110,"SoundDuration":661110,"Delta":147883548},{"NoteNumber":51,"Velocity":41,"Duration":333333,"SoundDuration":333333,"Delta":147883548},{"NoteNumber":67,"Velocity":49,"Duration":333333,"SoundDuration":333333,"Delta":148216881},{"NoteNumber":64,"Velocity":41,"Duration":333333,"SoundDuration":333333,"Delta":148216881},{"NoteNumber":71,"Velocity":65,"Duration":661110,"SoundDuration":661110,"Delta":148550214},{"NoteNumber":83,"Velocity":77,"Duration":661110,"SoundDuration":661110,"Delta":148550214},{"NoteNumber":52,"Velocity":42,"Duration":333333,"SoundDuration":333333,"Delta":148550214},{"NoteNumber":69,"Velocity":51,"Duration":333333,"SoundDuration":333333,"Delta":148883548},{"NoteNumber":66,"Velocity":42,"Duration":333333,"SoundDuration":333333,"Delta":148883548},{"NoteNumber":71,"Velocity":66,"Duration":330555,"SoundDuration":330555,"Delta":149216881},{"NoteNumber":83,"Velocity":78,"Duration":688754,"SoundDuration":688754,"Delta":149216881},{"NoteNumber":54,"Velocity":41,"Duration":333333,"SoundDuration":333333,"Delta":149216881},{"NoteNumber":67,"Velocity":47,"Duration":361445,"SoundDuration":361445,"Delta":149550214},{"NoteNumber":71,"Velocity":56,"Duration":361445,"SoundDuration":361445,"Delta":149550214},{"NoteNumber":88,"Velocity":80,"Duration":664966,"SoundDuration":664966,"Delta":149911660},{"NoteNumber":83,"Velocity":68,"Duration":664966,"SoundDuration":664966,"Delta":149911660},{"NoteNumber":76,"Velocity":68,"Duration":664966,"SoundDuration":664966,"Delta":149911660},{"NoteNumber":55,"Velocity":44,"Duration":333333,"SoundDuration":333333,"Delta":149911660},{"NoteNumber":68,"Velocity":48,"Duration":337314,"SoundDuration":337314,"Delta":150244993},{"NoteNumber":71,"Velocity":57,"Duration":337314,"SoundDuration":337314,"Delta":150244993},{"NoteNumber":86,"Velocity":81,"Duration":691974,"SoundDuration":691974,"Delta":150582308},{"NoteNumber":88,"Velocity":81,"Duration":691974,"SoundDuration":691974,"Delta":150582308},{"NoteNumber":83,"Velocity":68,"Duration":691974,"SoundDuration":691974,"Delta":150582308},{"NoteNumber":76,"Velocity":68,"Duration":691974,"SoundDuration":691974,"Delta":150582308},{"NoteNumber":56,"Velocity":51,"Duration":344752,"SoundDuration":344752,"Delta":150582308},{"NoteNumber":69,"Velocity":52,"Duration":353174,"SoundDuration":353174,"Delta":150927060},{"NoteNumber":73,"Velocity":62,"Duration":353174,"SoundDuration":353174,"Delta":150927060},{"NoteNumber":88,"Velocity":82,"Duration":407534,"SoundDuration":407534,"Delta":151280235},{"NoteNumber":85,"Velocity":69,"Duration":407534,"SoundDuration":407534,"Delta":151280235},{"NoteNumber":81,"Velocity":69,"Duration":407534,"SoundDuration":407534,"Delta":151280235},{"NoteNumber":76,"Velocity":69,"Duration":407534,"SoundDuration":407534,"Delta":151280235},{"NoteNumber":57,"Velocity":49,"Duration":410958,"SoundDuration":410958,"Delta":151280235},{"NoteNumber":76,"Velocity":56,"Duration":645161,"SoundDuration":645161,"Delta":151691194},{"NoteNumber":88,"Velocity":73,"Duration":322580,"SoundDuration":322580,"Delta":151691194},{"NoteNumber":69,"Velocity":40,"Duration":645161,"SoundDuration":645161,"Delta":151691194},{"NoteNumber":73,"Velocity":48,"Duration":645161,"SoundDuration":645161,"Delta":151691194},{"NoteNumber":80,"Velocity":57,"Duration":322580,"SoundDuration":322580,"Delta":152013774},{"NoteNumber":76,"Velocity":54,"Duration":645161,"SoundDuration":645161,"Delta":152336355},{"NoteNumber":83,"Velocity":64,"Duration":322580,"SoundDuration":322580,"Delta":152336355},{"NoteNumber":61,"Velocity":40,"Duration":645161,"SoundDuration":645161,"Delta":152336355},{"NoteNumber":57,"Velocity":34,"Duration":1316579,"SoundDuration":1316579,"Delta":152336355},{"NoteNumber":81,"Velocity":60,"Duration":322580,"SoundDuration":322580,"Delta":152658936},{"NoteNumber":78,"Velocity":51,"Duration":993998,"SoundDuration":993998,"Delta":152981517},{"NoteNumber":80,"Velocity":60,"Duration":322580,"SoundDuration":322580,"Delta":152981517},{"NoteNumber":63,"Velocity":35,"Duration":993998,"SoundDuration":993998,"Delta":152981517},{"NoteNumber":81,"Velocity":60,"Duration":348837,"SoundDuration":348837,"Delta":153304097},{"NoteNumber":84,"Velocity":69,"Duration":645161,"SoundDuration":645161,"Delta":153652935},{"NoteNumber":57,"Velocity":33,"Duration":1961740,"SoundDuration":1961740,"Delta":153652935},{"NoteNumber":78,"Velocity":60,"Duration":322580,"SoundDuration":322580,"Delta":153975515},{"NoteNumber":63,"Velocity":32,"Duration":322580,"SoundDuration":322580,"Delta":153975515},{"NoteNumber":81,"Velocity":65,"Duration":967742,"SoundDuration":967742,"Delta":154298096},{"NoteNumber":83,"Velocity":55,"Duration":1961740,"SoundDuration":1961740,"Delta":154298096},{"NoteNumber":66,"Velocity":38,"Duration":322580,"SoundDuration":322580,"Delta":154298096},{"NoteNumber":79,"Velocity":57,"Duration":322580,"SoundDuration":322580,"Delta":154620677},{"NoteNumber":64,"Velocity":34,"Duration":322580,"SoundDuration":322580,"Delta":154620677},{"NoteNumber":78,"Velocity":60,"Duration":322580,"SoundDuration":322580,"Delta":154943258},{"NoteNumber":63,"Velocity":39,"Duration":322580,"SoundDuration":322580,"Delta":154943258},{"NoteNumber":79,"Velocity":55,"Duration":348837,"SoundDuration":348837,"Delta":155265838},{"NoteNumber":64,"Velocity":35,"Duration":348837,"SoundDuration":348837,"Delta":155265838},{"NoteNumber":77,"Velocity":56,"Duration":645161,"SoundDuration":645161,"Delta":155614676},{"NoteNumber":57,"Velocity":34,"Duration":1961740,"SoundDuration":1961740,"Delta":155614676},{"NoteNumber":62,"Velocity":48,"Duration":645161,"SoundDuration":645161,"Delta":155614676},{"NoteNumber":80,"Velocity":57,"Duration":322580,"SoundDuration":322580,"Delta":155937256},{"NoteNumber":76,"Velocity":54,"Duration":1639160,"SoundDuration":1639160,"Delta":156259837},{"NoteNumber":82,"Velocity":64,"Duration":322580,"SoundDuration":322580,"Delta":156259837},{"NoteNumber":61,"Velocity":40,"Duration":1639160,"SoundDuration":1639160,"Delta":156259837},{"NoteNumber":81,"Velocity":60,"Duration":322580,"SoundDuration":322580,"Delta":156582418},{"NoteNumber":80,"Velocity":60,"Duration":322580,"SoundDuration":322580,"Delta":156904999},{"NoteNumber":81,"Velocity":60,"Duration":348837,"SoundDuration":348837,"Delta":157227579},{"NoteNumber":83,"Velocity":69,"Duration":645161,"SoundDuration":645161,"Delta":157576417},{"NoteNumber":57,"Velocity":33,"Duration":1961740,"SoundDuration":1961740,"Delta":157576417},{"NoteNumber":76,"Velocity":60,"Duration":322580,"SoundDuration":322580,"Delta":157898997},{"NoteNumber":61,"Velocity":32,"Duration":322580,"SoundDuration":322580,"Delta":157898997},{"NoteNumber":79,"Velocity":65,"Duration":322580,"SoundDuration":322580,"Delta":158221578},{"NoteNumber":81,"Velocity":55,"Duration":1639160,"SoundDuration":1639160,"Delta":158221578},{"NoteNumber":64,"Velocity":38,"Duration":322580,"SoundDuration":322580,"Delta":158221578},{"NoteNumber":78,"Velocity":57,"Duration":322580,"SoundDuration":322580,"Delta":158544159},{"NoteNumber":62,"Velocity":34,"Duration":322580,"SoundDuration":322580,"Delta":158544159},{"NoteNumber":77,"Velocity":60,"Duration":322580,"SoundDuration":322580,"Delta":158866740},{"NoteNumber":61,"Velocity":39,"Duration":322580,"SoundDuration":322580,"Delta":158866740},{"NoteNumber":78,"Velocity":55,"Duration":348837,"SoundDuration":348837,"Delta":159189320},{"NoteNumber":62,"Velocity":35,"Duration":348837,"SoundDuration":348837,"Delta":159189320},{"NoteNumber":75,"Velocity":50,"Duration":645161,"SoundDuration":645161,"Delta":159538158},{"NoteNumber":57,"Velocity":33,"Duration":1290323,"SoundDuration":1290323,"Delta":159538158},{"NoteNumber":63,"Velocity":39,"Duration":645161,"SoundDuration":645161,"Delta":159538158},{"NoteNumber":60,"Velocity":39,"Duration":645161,"SoundDuration":645161,"Delta":159538158},{"NoteNumber":78,"Velocity":53,"Duration":322580,"SoundDuration":322580,"Delta":159860738},{"NoteNumber":76,"Velocity":51,"Duration":645161,"SoundDuration":645161,"Delta":160183319},{"NoteNumber":81,"Velocity":61,"Duration":322580,"SoundDuration":322580,"Delta":160183319},{"NoteNumber":64,"Velocity":39,"Duration":645161,"SoundDuration":645161,"Delta":160183319},{"NoteNumber":61,"Velocity":33,"Duration":645161,"SoundDuration":645161,"Delta":160183319},{"NoteNumber":79,"Velocity":55,"Duration":322580,"SoundDuration":322580,"Delta":160505900},{"NoteNumber":73,"Velocity":51,"Duration":667408,"SoundDuration":667408,"Delta":160828481},{"NoteNumber":78,"Velocity":61,"Duration":322580,"SoundDuration":322580,"Delta":160828481},{"NoteNumber":63,"Velocity":39,"Duration":322580,"SoundDuration":322580,"Delta":160828481},{"NoteNumber":58,"Velocity":33,"Duration":667408,"SoundDuration":667408,"Delta":160828481},{"NoteNumber":79,"Velocity":55,"Duration":341953,"SoundDuration":341953,"Delta":161151061},{"NoteNumber":64,"Velocity":39,"Duration":341953,"SoundDuration":341953,"Delta":161151061},{"NoteNumber":79,"Velocity":63,"Duration":319149,"SoundDuration":319149,"Delta":161495889},{"NoteNumber":73,"Velocity":53,"Duration":638297,"SoundDuration":638297,"Delta":161495889},{"NoteNumber":64,"Velocity":45,"Duration":319149,"SoundDuration":319149,"Delta":161495889},{"NoteNumber":58,"Velocity":38,"Duration":638297,"SoundDuration":638297,"Delta":161495889},{"NoteNumber":76,"Velocity":57,"Duration":319148,"SoundDuration":319148,"Delta":161815038},{"NoteNumber":61,"Velocity":39,"Duration":319148,"SoundDuration":319148,"Delta":161815038},{"NoteNumber":74,"Velocity":56,"Duration":638298,"SoundDuration":638298,"Delta":162134187},{"NoteNumber":79,"Velocity":67,"Duration":319149,"SoundDuration":319149,"Delta":162134187},{"NoteNumber":64,"Velocity":44,"Duration":319149,"SoundDuration":319149,"Delta":162134187},{"NoteNumber":59,"Velocity":37,"Duration":638298,"SoundDuration":638298,"Delta":162134187},{"NoteNumber":78,"Velocity":58,"Duration":319149,"SoundDuration":319149,"Delta":162453336},{"NoteNumber":62,"Velocity":39,"Duration":319149,"SoundDuration":319149,"Delta":162453336},{"NoteNumber":76,"Velocity":68,"Duration":319148,"SoundDuration":319148,"Delta":162772485},{"NoteNumber":71,"Velocity":57,"Duration":1022852,"SoundDuration":1022852,"Delta":162772485},{"NoteNumber":61,"Velocity":43,"Duration":319148,"SoundDuration":319148,"Delta":162772485},{"NoteNumber":56,"Velocity":36,"Duration":689519,"SoundDuration":689519,"Delta":162772485},{"NoteNumber":77,"Velocity":61,"Duration":367283,"SoundDuration":367283,"Delta":163091634},{"NoteNumber":62,"Velocity":39,"Duration":367283,"SoundDuration":367283,"Delta":163091634},{"NoteNumber":77,"Velocity":71,"Duration":666666,"SoundDuration":666666,"Delta":163462004},{"NoteNumber":56,"Velocity":39,"Duration":666666,"SoundDuration":666666,"Delta":163462004},{"NoteNumber":62,"Velocity":46,"Duration":666666,"SoundDuration":666666,"Delta":163462004},{"NoteNumber":65,"Velocity":61,"Duration":333333,"SoundDuration":333333,"Delta":163795337},{"NoteNumber":64,"Velocity":57,"Duration":652174,"SoundDuration":652174,"Delta":164128671},{"NoteNumber":70,"Velocity":68,"Duration":326087,"SoundDuration":326087,"Delta":164128671},{"NoteNumber":76,"Velocity":68,"Duration":652174,"SoundDuration":652174,"Delta":164128671},{"NoteNumber":61,"Velocity":42,"Duration":652174,"SoundDuration":652174,"Delta":164128671},{"NoteNumber":55,"Velocity":35,"Duration":652174,"SoundDuration":652174,"Delta":164128671},{"NoteNumber":69,"Velocity":59,"Duration":326087,"SoundDuration":326087,"Delta":164454758},{"NoteNumber":66,"Velocity":58,"Duration":683229,"SoundDuration":683229,"Delta":164780845},{"NoteNumber":68,"Velocity":69,"Duration":326087,"SoundDuration":326087,"Delta":164780845},{"NoteNumber":74,"Velocity":69,"Duration":683229,"SoundDuration":683229,"Delta":164780845},{"NoteNumber":57,"Velocity":33,"Duration":683229,"SoundDuration":683229,"Delta":164780845},{"NoteNumber":54,"Velocity":33,"Duration":683229,"SoundDuration":683229,"Delta":164780845},{"NoteNumber":62,"Velocity":39,"Duration":683229,"SoundDuration":683229,"Delta":164780845},{"NoteNumber":69,"Velocity":60,"Duration":357142,"SoundDuration":357142,"Delta":165106932},{"NoteNumber":79,"Velocity":74,"Duration":659340,"SoundDuration":659340,"Delta":165464074},{"NoteNumber":73,"Velocity":67,"Duration":329670,"SoundDuration":329670,"Delta":165464074},{"NoteNumber":52,"Velocity":45,"Duration":329670,"SoundDuration":329670,"Delta":165464074},{"NoteNumber":45,"Velocity":38,"Duration":659340,"SoundDuration":659340,"Delta":165464074},{"NoteNumber":76,"Velocity":62,"Duration":329670,"SoundDuration":329670,"Delta":165793745},{"NoteNumber":49,"Velocity":39,"Duration":329670,"SoundDuration":329670,"Delta":165793745},{"NoteNumber":78,"Velocity":71,"Duration":659340,"SoundDuration":659340,"Delta":166123415},{"NoteNumber":74,"Velocity":60,"Duration":659340,"SoundDuration":659340,"Delta":166123415},{"NoteNumber":52,"Velocity":57,"Duration":329670,"SoundDuration":329670,"Delta":166123415},{"NoteNumber":47,"Velocity":43,"Duration":659340,"SoundDuration":659340,"Delta":166123415},{"NoteNumber":50,"Velocity":48,"Duration":329670,"SoundDuration":329670,"Delta":166453085},{"NoteNumber":77,"Velocity":58,"Duration":695524,"SoundDuration":695524,"Delta":166782755},{"NoteNumber":83,"Velocity":69,"Duration":1362190,"SoundDuration":1362190,"Delta":166782755},{"NoteNumber":71,"Velocity":58,"Duration":695524,"SoundDuration":695524,"Delta":166782755},{"NoteNumber":49,"Velocity":57,"Duration":329670,"SoundDuration":329670,"Delta":166782755},{"NoteNumber":44,"Velocity":48,"Duration":695524,"SoundDuration":695524,"Delta":166782755},{"NoteNumber":50,"Velocity":53,"Duration":365853,"SoundDuration":365853,"Delta":167112426},{"NoteNumber":71,"Velocity":61,"Duration":666666,"SoundDuration":666666,"Delta":167478279},{"NoteNumber":80,"Velocity":72,"Duration":666666,"SoundDuration":666666,"Delta":167478279},{"NoteNumber":74,"Velocity":61,"Duration":666666,"SoundDuration":666666,"Delta":167478279},{"NoteNumber":41,"Velocity":51,"Duration":666666,"SoundDuration":666666,"Delta":167478279},{"NoteNumber":50,"Velocity":67,"Duration":333333,"SoundDuration":333333,"Delta":167478279},{"NoteNumber":44,"Velocity":59,"Duration":333333,"SoundDuration":333333,"Delta":167811613},{"NoteNumber":74,"Velocity":62,"Duration":699187,"SoundDuration":699187,"Delta":168144946},{"NoteNumber":69,"Velocity":62,"Duration":699187,"SoundDuration":699187,"Delta":168144946},{"NoteNumber":81,"Velocity":74,"Duration":699187,"SoundDuration":699187,"Delta":168144946},{"NoteNumber":42,"Velocity":53,"Duration":1036265,"SoundDuration":1036265,"Delta":168144946},{"NoteNumber":47,"Velocity":69,"Duration":333333,"SoundDuration":333333,"Delta":168144946},{"NoteNumber":45,"Velocity":58,"Duration":365853,"SoundDuration":365853,"Delta":168478279},{"NoteNumber":74,"Velocity":80,"Duration":674157,"SoundDuration":674157,"Delta":168844133},{"NoteNumber":86,"Velocity":91,"Duration":1348315,"SoundDuration":1348315,"Delta":168844133},{"NoteNumber":44,"Velocity":69,"Duration":337078,"SoundDuration":337078,"Delta":168844133},{"NoteNumber":41,"Velocity":45,"Duration":337078,"SoundDuration":337078,"Delta":169181212},{"NoteNumber":45,"Velocity":58,"Duration":337078,"SoundDuration":337078,"Delta":169181212},{"NoteNumber":74,"Velocity":82,"Duration":674157,"SoundDuration":674157,"Delta":169518290},{"NoteNumber":79,"Velocity":82,"Duration":674157,"SoundDuration":674157,"Delta":169518290},{"NoteNumber":40,"Velocity":57,"Duration":337078,"SoundDuration":337078,"Delta":169518290},{"NoteNumber":45,"Velocity":68,"Duration":337078,"SoundDuration":337078,"Delta":169518290},{"NoteNumber":32,"Velocity":61,"Duration":337078,"SoundDuration":337078,"Delta":169855369},{"NoteNumber":76,"Velocity":73,"Duration":702932,"SoundDuration":702932,"Delta":170192448},{"NoteNumber":73,"Velocity":73,"Duration":702932,"SoundDuration":702932,"Delta":170192448},{"NoteNumber":85,"Velocity":87,"Duration":702932,"SoundDuration":702932,"Delta":170192448},{"NoteNumber":79,"Velocity":73,"Duration":702932,"SoundDuration":702932,"Delta":170192448},{"NoteNumber":34,"Velocity":72,"Duration":337078,"SoundDuration":337078,"Delta":170192448},{"NoteNumber":33,"Velocity":63,"Duration":365853,"SoundDuration":365853,"Delta":170529527},{"NoteNumber":85,"Velocity":78,"Duration":1827425,"SoundDuration":1827425,"Delta":170895380},{"NoteNumber":79,"Velocity":78,"Duration":1827425,"SoundDuration":1827425,"Delta":170895380},{"NoteNumber":91,"Velocity":95,"Duration":1827425,"SoundDuration":1827425,"Delta":170895380},{"NoteNumber":88,"Velocity":80,"Duration":1827425,"SoundDuration":1827425,"Delta":170895380},{"NoteNumber":32,"Velocity":72,"Duration":365853,"SoundDuration":365853,"Delta":170895380},{"NoteNumber":33,"Velocity":62,"Duration":335365,"SoundDuration":335365,"Delta":171261234},{"NoteNumber":33,"Velocity":81,"Duration":369054,"SoundDuration":369054,"Delta":171627088},{"NoteNumber":52,"Velocity":43,"Duration":369180,"SoundDuration":369180,"Delta":171996143},{"NoteNumber":49,"Velocity":47,"Duration":357483,"SoundDuration":357483,"Delta":172365323},{"NoteNumber":67,"Velocity":50,"Duration":352941,"SoundDuration":352941,"Delta":172722806},{"NoteNumber":55,"Velocity":43,"Duration":352941,"SoundDuration":352941,"Delta":172722806},{"NoteNumber":64,"Velocity":54,"Duration":355777,"SoundDuration":355777,"Delta":173075747},{"NoteNumber":52,"Velocity":48,"Duration":355777,"SoundDuration":355777,"Delta":173075747},{"NoteNumber":70,"Velocity":45,"Duration":357142,"SoundDuration":357142,"Delta":173431524},{"NoteNumber":58,"Velocity":43,"Duration":357142,"SoundDuration":357142,"Delta":173431524},{"NoteNumber":68,"Velocity":52,"Duration":361051,"SoundDuration":361051,"Delta":173788667},{"NoteNumber":56,"Velocity":47,"Duration":361051,"SoundDuration":361051,"Delta":173788667},{"NoteNumber":69,"Velocity":45,"Duration":364176,"SoundDuration":364176,"Delta":174149719},{"NoteNumber":57,"Velocity":43,"Duration":364176,"SoundDuration":364176,"Delta":174149719},{"NoteNumber":64,"Velocity":50,"Duration":385724,"SoundDuration":385724,"Delta":174513895},{"NoteNumber":52,"Velocity":46,"Duration":385724,"SoundDuration":385724,"Delta":174513895},{"NoteNumber":71,"Velocity":45,"Duration":410263,"SoundDuration":410263,"Delta":174899620},{"NoteNumber":59,"Velocity":39,"Duration":410263,"SoundDuration":410263,"Delta":174899620},{"NoteNumber":69,"Velocity":49,"Duration":419209,"SoundDuration":419209,"Delta":175309883},{"NoteNumber":57,"Velocity":45,"Duration":419209,"SoundDuration":419209,"Delta":175309883},{"NoteNumber":67,"Velocity":45,"Duration":427313,"SoundDuration":427313,"Delta":175729093},{"NoteNumber":55,"Velocity":40,"Duration":427313,"SoundDuration":427313,"Delta":175729093},{"NoteNumber":66,"Velocity":49,"Duration":666666,"SoundDuration":666666,"Delta":176156406},{"NoteNumber":50,"Velocity":32,"Duration":3333332,"SoundDuration":3333332,"Delta":176156406},{"NoteNumber":54,"Velocity":38,"Duration":333333,"SoundDuration":333333,"Delta":176156406},{"NoteNumber":59,"Velocity":33,"Duration":333333,"SoundDuration":333333,"Delta":176489740},{"NoteNumber":56,"Velocity":38,"Duration":333333,"SoundDuration":333333,"Delta":176823073},{"NoteNumber":57,"Velocity":34,"Duration":333333,"SoundDuration":333333,"Delta":177156406},{"NoteNumber":38,"Velocity":58,"Duration":1999999,"SoundDuration":1999999,"Delta":177489739},{"NoteNumber":54,"Velocity":38,"Duration":333333,"SoundDuration":333333,"Delta":177489739},{"NoteNumber":59,"Velocity":33,"Duration":333333,"SoundDuration":333333,"Delta":177823073},{"NoteNumber":56,"Velocity":38,"Duration":333333,"SoundDuration":333333,"Delta":178156406},{"NoteNumber":57,"Velocity":33,"Duration":333333,"SoundDuration":333333,"Delta":178489739},{"NoteNumber":54,"Velocity":32,"Duration":333333,"SoundDuration":333333,"Delta":178823072},{"NoteNumber":59,"Velocity":28,"Duration":333333,"SoundDuration":333333,"Delta":179156406},{"NoteNumber":38,"Velocity":52,"Duration":312500,"SoundDuration":312500,"Delta":179489739},{"NoteNumber":50,"Velocity":27,"Duration":657327,"SoundDuration":657327,"Delta":179489739},{"NoteNumber":54,"Velocity":32,"Duration":312500,"SoundDuration":312500,"Delta":179489739},{"NoteNumber":33,"Velocity":46,"Duration":344827,"SoundDuration":344827,"Delta":179802239},{"NoteNumber":57,"Velocity":28,"Duration":344827,"SoundDuration":344827,"Delta":179802239},{"NoteNumber":33,"Velocity":52,"Duration":1942841,"SoundDuration":1942841,"Delta":180147066},{"NoteNumber":49,"Velocity":32,"Duration":659340,"SoundDuration":659340,"Delta":180147066},{"NoteNumber":52,"Velocity":38,"Duration":329670,"SoundDuration":329670,"Delta":180147066},{"NoteNumber":57,"Velocity":33,"Duration":329670,"SoundDuration":329670,"Delta":180476737},{"NoteNumber":50,"Velocity":32,"Duration":638297,"SoundDuration":638297,"Delta":180806407},{"NoteNumber":54,"Velocity":38,"Duration":319149,"SoundDuration":319149,"Delta":180806407},{"NoteNumber":57,"Velocity":34,"Duration":319148,"SoundDuration":319148,"Delta":181125556},{"NoteNumber":52,"Velocity":34,"Duration":645202,"SoundDuration":645202,"Delta":181444705},{"NoteNumber":55,"Velocity":41,"Duration":306122,"SoundDuration":306122,"Delta":181444705},{"NoteNumber":57,"Velocity":36,"Duration":344827,"SoundDuration":344827,"Delta":181750827},{"NoteNumber":33,"Velocity":52,"Duration":1296457,"SoundDuration":1296457,"Delta":182095655},{"NoteNumber":52,"Velocity":34,"Duration":642611,"SoundDuration":642611,"Delta":182095655},{"NoteNumber":55,"Velocity":40,"Duration":309278,"SoundDuration":309278,"Delta":182095655},{"NoteNumber":57,"Velocity":34,"Duration":333333,"SoundDuration":333333,"Delta":182404933},{"NoteNumber":50,"Velocity":32,"Duration":659340,"SoundDuration":659340,"Delta":182738266},{"NoteNumber":54,"Velocity":38,"Duration":329670,"SoundDuration":329670,"Delta":182738266},{"NoteNumber":57,"Velocity":32,"Duration":329670,"SoundDuration":329670,"Delta":183067937},{"NoteNumber":33,"Velocity":52,"Duration":686813,"SoundDuration":686813,"Delta":183397607},{"NoteNumber":49,"Velocity":31,"Duration":686813,"SoundDuration":686813,"Delta":183397607},{"NoteNumber":52,"Velocity":37,"Duration":329670,"SoundDuration":329670,"Delta":183397607},{"NoteNumber":57,"Velocity":34,"Duration":357142,"SoundDuration":357142,"Delta":183727277},{"NoteNumber":30,"Velocity":52,"Duration":652174,"SoundDuration":652174,"Delta":184084420},{"NoteNumber":50,"Velocity":32,"Duration":3290174,"SoundDuration":3290174,"Delta":184084420},{"NoteNumber":54,"Velocity":38,"Duration":326087,"SoundDuration":326087,"Delta":184084420},{"NoteNumber":59,"Velocity":33,"Duration":326087,"SoundDuration":326087,"Delta":184410507},{"NoteNumber":56,"Velocity":38,"Duration":337078,"SoundDuration":337078,"Delta":184736594},{"NoteNumber":57,"Velocity":34,"Duration":337078,"SoundDuration":337078,"Delta":185073673},{"NoteNumber":86,"Velocity":61,"Duration":1963842,"SoundDuration":1963842,"Delta":185410751},{"NoteNumber":74,"Velocity":53,"Duration":1963842,"SoundDuration":1963842,"Delta":185410751},{"NoteNumber":54,"Velocity":38,"Duration":329670,"SoundDuration":329670,"Delta":185410751},{"NoteNumber":59,"Velocity":33,"Duration":329670,"SoundDuration":329670,"Delta":185740422},{"NoteNumber":56,"Velocity":38,"Duration":329670,"SoundDuration":329670,"Delta":186070092},{"NoteNumber":57,"Velocity":33,"Duration":329670,"SoundDuration":329670,"Delta":186399762},{"NoteNumber":54,"Velocity":38,"Duration":322580,"SoundDuration":322580,"Delta":186729432},{"NoteNumber":59,"Velocity":32,"Duration":322580,"SoundDuration":322580,"Delta":187052013},{"NoteNumber":86,"Velocity":55,"Duration":309278,"SoundDuration":309278,"Delta":187374594},{"NoteNumber":74,"Velocity":48,"Duration":309278,"SoundDuration":309278,"Delta":187374594},{"NoteNumber":50,"Velocity":29,"Duration":654105,"SoundDuration":654105,"Delta":187374594},{"NoteNumber":54,"Velocity":34,"Duration":309278,"SoundDuration":309278,"Delta":187374594},{"NoteNumber":81,"Velocity":48,"Duration":341953,"SoundDuration":341953,"Delta":187683872},{"NoteNumber":69,"Velocity":42,"Duration":341953,"SoundDuration":341953,"Delta":187683872},{"NoteNumber":57,"Velocity":29,"Duration":344827,"SoundDuration":344827,"Delta":187683872},{"NoteNumber":81,"Velocity":55,"Duration":1949704,"SoundDuration":1949704,"Delta":188028700},{"NoteNumber":69,"Velocity":48,"Duration":1949704,"SoundDuration":1949704,"Delta":188028700},{"NoteNumber":49,"Velocity":27,"Duration":659340,"SoundDuration":659340,"Delta":188028700},{"NoteNumber":52,"Velocity":32,"Duration":329670,"SoundDuration":329670,"Delta":188028700},{"NoteNumber":57,"Velocity":28,"Duration":329670,"SoundDuration":329670,"Delta":188358370},{"NoteNumber":50,"Velocity":28,"Duration":645161,"SoundDuration":645161,"Delta":188688040},{"NoteNumber":54,"Velocity":34,"Duration":322580,"SoundDuration":322580,"Delta":188688040},{"NoteNumber":57,"Velocity":31,"Duration":322580,"SoundDuration":322580,"Delta":189010621},{"NoteNumber":52,"Velocity":32,"Duration":645202,"SoundDuration":645202,"Delta":189333202},{"NoteNumber":55,"Velocity":39,"Duration":306122,"SoundDuration":306122,"Delta":189333202},{"NoteNumber":57,"Velocity":35,"Duration":344827,"SoundDuration":344827,"Delta":189639324},{"NoteNumber":81,"Velocity":55,"Duration":1296457,"SoundDuration":1296457,"Delta":189984152},{"NoteNumber":69,"Velocity":48,"Duration":1296457,"SoundDuration":1296457,"Delta":189984152},{"NoteNumber":52,"Velocity":34,"Duration":642611,"SoundDuration":642611,"Delta":189984152},{"NoteNumber":55,"Velocity":40,"Duration":309278,"SoundDuration":309278,"Delta":189984152},{"NoteNumber":57,"Velocity":34,"Duration":333333,"SoundDuration":333333,"Delta":190293430},{"NoteNumber":50,"Velocity":32,"Duration":659340,"SoundDuration":659340,"Delta":190626763},{"NoteNumber":54,"Velocity":38,"Duration":329670,"SoundDuration":329670,"Delta":190626763},{"NoteNumber":57,"Velocity":32,"Duration":329670,"SoundDuration":329670,"Delta":190956433},{"NoteNumber":81,"Velocity":55,"Duration":686813,"SoundDuration":686813,"Delta":191286104},{"NoteNumber":69,"Velocity":48,"Duration":686813,"SoundDuration":686813,"Delta":191286104},{"NoteNumber":49,"Velocity":31,"Duration":686813,"SoundDuration":686813,"Delta":191286104},{"NoteNumber":52,"Velocity":37,"Duration":329670,"SoundDuration":329670,"Delta":191286104},{"NoteNumber":57,"Velocity":34,"Duration":357142,"SoundDuration":357142,"Delta":191615774},{"NoteNumber":78,"Velocity":53,"Duration":666666,"SoundDuration":666666,"Delta":191972917},{"NoteNumber":66,"Velocity":45,"Duration":666666,"SoundDuration":666666,"Delta":191972917},{"NoteNumber":50,"Velocity":32,"Duration":3304517,"SoundDuration":3304517,"Delta":191972917},{"NoteNumber":54,"Velocity":38,"Duration":224999,"SoundDuration":224999,"Delta":191972917},{"NoteNumber":59,"Velocity":33,"Duration":222222,"SoundDuration":222222,"Delta":192197917},{"NoteNumber":57,"Velocity":33,"Duration":222222,"SoundDuration":222222,"Delta":192417361},{"NoteNumber":56,"Velocity":38,"Duration":220108,"SoundDuration":220108,"Delta":192639583},{"NoteNumber":59,"Velocity":34,"Duration":217391,"SoundDuration":217391,"Delta":192856975},{"NoteNumber":57,"Velocity":34,"Duration":163043,"SoundDuration":163043,"Delta":193074366},{"NoteNumber":38,"Velocity":58,"Duration":1320841,"SoundDuration":1320841,"Delta":193291757},{"NoteNumber":54,"Velocity":38,"Duration":220108,"SoundDuration":220108,"Delta":193291757},{"NoteNumber":59,"Velocity":33,"Duration":222455,"SoundDuration":222455,"Delta":193511866},{"NoteNumber":57,"Velocity":33,"Duration":170454,"SoundDuration":170454,"Delta":193731481},{"NoteNumber":56,"Velocity":38,"Duration":222527,"SoundDuration":222527,"Delta":193958753},{"NoteNumber":59,"Velocity":33,"Duration":219780,"SoundDuration":219780,"Delta":194178533},{"NoteNumber":57,"Velocity":33,"Duration":164835,"SoundDuration":164835,"Delta":194398314},{"NoteNumber":38,"Velocity":56,"Duration":653845,"SoundDuration":653845,"Delta":194618094},{"NoteNumber":54,"Velocity":38,"Duration":222527,"SoundDuration":222527,"Delta":194618094},{"NoteNumber":59,"Velocity":34,"Duration":219780,"SoundDuration":219780,"Delta":194840621},{"NoteNumber":57,"Velocity":34,"Duration":164835,"SoundDuration":164835,"Delta":195057654},{"NoteNumber":38,"Velocity":56,"Duration":229884,"SoundDuration":229884,"Delta":195277434},{"NoteNumber":50,"Velocity":32,"Duration":719827,"SoundDuration":719827,"Delta":195277434},{"NoteNumber":54,"Velocity":38,"Duration":232758,"SoundDuration":232758,"Delta":195277434},{"NoteNumber":37,"Velocity":50,"Duration":239942,"SoundDuration":239942,"Delta":195507319},{"NoteNumber":58,"Velocity":34,"Duration":239942,"SoundDuration":239942,"Delta":195507319},{"NoteNumber":38,"Velocity":50,"Duration":187500,"SoundDuration":187500,"Delta":195747262},{"NoteNumber":57,"Velocity":34,"Duration":187500,"SoundDuration":187500,"Delta":195747262},{"NoteNumber":33,"Velocity":52,"Duration":1292319,"SoundDuration":1292319,"Delta":195997262},{"NoteNumber":49,"Velocity":32,"Duration":659340,"SoundDuration":659340,"Delta":195997262},{"NoteNumber":52,"Velocity":38,"Duration":222527,"SoundDuration":222527,"Delta":195997262},{"NoteNumber":59,"Velocity":33,"Duration":219780,"SoundDuration":219780,"Delta":196217042},{"NoteNumber":57,"Velocity":33,"Duration":164835,"SoundDuration":164835,"Delta":196436822},{"NoteNumber":50,"Velocity":32,"Duration":638297,"SoundDuration":638297,"Delta":196656602},{"NoteNumber":54,"Velocity":38,"Duration":215425,"SoundDuration":215425,"Delta":196656602},{"NoteNumber":59,"Velocity":34,"Duration":212766,"SoundDuration":212766,"Delta":196869368},{"NoteNumber":57,"Velocity":34,"Duration":159574,"SoundDuration":159574,"Delta":197082134},{"NoteNumber":33,"Velocity":52,"Duration":1307845,"SoundDuration":1307845,"Delta":197294900},{"NoteNumber":52,"Velocity":34,"Duration":661544,"SoundDuration":661544,"Delta":197294900},{"NoteNumber":55,"Velocity":41,"Duration":206632,"SoundDuration":206632,"Delta":197294900},{"NoteNumber":59,"Velocity":36,"Duration":222522,"SoundDuration":222522,"Delta":197498982},{"NoteNumber":57,"Velocity":36,"Duration":180722,"SoundDuration":180722,"Delta":197721505},{"NoteNumber":52,"Velocity":34,"Duration":645833,"SoundDuration":645833,"Delta":197962468},{"NoteNumber":55,"Velocity":40,"Duration":210937,"SoundDuration":210937,"Delta":197962468},{"NoteNumber":59,"Velocity":34,"Duration":215277,"SoundDuration":215277,"Delta":198170802},{"NoteNumber":57,"Velocity":34,"Duration":166666,"SoundDuration":166666,"Delta":198386080},{"NoteNumber":33,"Velocity":52,"Duration":1324884,"SoundDuration":1324884,"Delta":198608302},{"NoteNumber":50,"Velocity":32,"Duration":645161,"SoundDuration":645161,"Delta":198608302},{"NoteNumber":54,"Velocity":38,"Duration":217742,"SoundDuration":217742,"Delta":198608302},{"NoteNumber":59,"Velocity":32,"Duration":215053,"SoundDuration":215053,"Delta":198823356},{"NoteNumber":57,"Velocity":32,"Duration":161290,"SoundDuration":161290,"Delta":199038409},{"NoteNumber":49,"Velocity":31,"Duration":679723,"SoundDuration":679723,"Delta":199253463},{"NoteNumber":52,"Velocity":37,"Duration":217742,"SoundDuration":217742,"Delta":199253463},{"NoteNumber":59,"Velocity":34,"Duration":226574,"SoundDuration":226574,"Delta":199468517},{"NoteNumber":57,"Velocity":34,"Duration":178571,"SoundDuration":178571,"Delta":199695092},{"NoteNumber":30,"Velocity":52,"Duration":666666,"SoundDuration":666666,"Delta":199933187},{"NoteNumber":50,"Velocity":32,"Duration":3315602,"SoundDuration":3315602,"Delta":199933187},{"NoteNumber":54,"Velocity":38,"Duration":224999,"SoundDuration":224999,"Delta":199933187},{"NoteNumber":59,"Velocity":39,"Duration":222222,"SoundDuration":222222,"Delta":200158187},{"NoteNumber":57,"Velocity":39,"Duration":222222,"SoundDuration":222222,"Delta":200377631},{"NoteNumber":56,"Velocity":46,"Duration":220108,"SoundDuration":220108,"Delta":200599853},{"NoteNumber":59,"Velocity":41,"Duration":223638,"SoundDuration":223638,"Delta":200817245},{"NoteNumber":57,"Velocity":42,"Duration":172413,"SoundDuration":172413,"Delta":201040883},{"NoteNumber":86,"Velocity":70,"Duration":1313186,"SoundDuration":1313186,"Delta":201270768},{"NoteNumber":74,"Velocity":61,"Duration":1313186,"SoundDuration":1313186,"Delta":201270768},{"NoteNumber":54,"Velocity":47,"Duration":222527,"SoundDuration":222527,"Delta":201270768},{"NoteNumber":59,"Velocity":41,"Duration":219780,"SoundDuration":219780,"Delta":201493295},{"NoteNumber":57,"Velocity":42,"Duration":164835,"SoundDuration":164835,"Delta":201710328},{"NoteNumber":56,"Velocity":49,"Duration":222527,"SoundDuration":222527,"Delta":201930108},{"NoteNumber":59,"Velocity":42,"Duration":219780,"SoundDuration":219780,"Delta":202149888},{"NoteNumber":57,"Velocity":43,"Duration":164835,"SoundDuration":164835,"Delta":202369669},{"NoteNumber":74,"Velocity":61,"Duration":653845,"SoundDuration":653845,"Delta":202589449},{"NoteNumber":86,"Velocity":70,"Duration":653845,"SoundDuration":653845,"Delta":202589449},{"NoteNumber":54,"Velocity":50,"Duration":222527,"SoundDuration":222527,"Delta":202589449},{"NoteNumber":59,"Velocity":45,"Duration":219780,"SoundDuration":219780,"Delta":202811976},{"NoteNumber":57,"Velocity":45,"Duration":164835,"SoundDuration":164835,"Delta":203029009},{"NoteNumber":86,"Velocity":68,"Duration":217742,"SoundDuration":217742,"Delta":203248789},{"NoteNumber":74,"Velocity":59,"Duration":217742,"SoundDuration":217742,"Delta":203248789},{"NoteNumber":50,"Velocity":43,"Duration":667408,"SoundDuration":667408,"Delta":203248789},{"NoteNumber":54,"Velocity":51,"Duration":217742,"SoundDuration":217742,"Delta":203248789},{"NoteNumber":73,"Velocity":53,"Duration":222469,"SoundDuration":222469,"Delta":203463843},{"NoteNumber":85,"Velocity":60,"Duration":222469,"SoundDuration":222469,"Delta":203463843},{"NoteNumber":58,"Velocity":50,"Duration":222469,"SoundDuration":222469,"Delta":203463843},{"NoteNumber":74,"Velocity":53,"Duration":229884,"SoundDuration":229884,"Delta":203686312},{"NoteNumber":86,"Velocity":60,"Duration":172413,"SoundDuration":172413,"Delta":203686312},{"NoteNumber":57,"Velocity":50,"Duration":172413,"SoundDuration":172413,"Delta":203686312},{"NoteNumber":81,"Velocity":67,"Duration":1299125,"SoundDuration":1299125,"Delta":203916197},{"NoteNumber":69,"Velocity":59,"Duration":1301813,"SoundDuration":1301813,"Delta":203916197},{"NoteNumber":49,"Velocity":44,"Duration":659340,"SoundDuration":659340,"Delta":203916197},{"NoteNumber":52,"Velocity":53,"Duration":222527,"SoundDuration":222527,"Delta":203916197},{"NoteNumber":59,"Velocity":46,"Duration":219780,"SoundDuration":219780,"Delta":204135978},{"NoteNumber":57,"Velocity":46,"Duration":164835,"SoundDuration":164835,"Delta":204355758},{"NoteNumber":50,"Velocity":45,"Duration":645161,"SoundDuration":645161,"Delta":204575538},{"NoteNumber":54,"Velocity":54,"Duration":217742,"SoundDuration":217742,"Delta":204575538},{"NoteNumber":59,"Velocity":48,"Duration":215053,"SoundDuration":215053,"Delta":204790592},{"NoteNumber":57,"Velocity":49,"Duration":161290,"SoundDuration":161290,"Delta":205005646},{"NoteNumber":69,"Velocity":62,"Duration":1300894,"SoundDuration":1300894,"Delta":205220699},{"NoteNumber":81,"Velocity":70,"Duration":1300894,"SoundDuration":1300894,"Delta":205220699},{"NoteNumber":52,"Velocity":50,"Duration":660617,"SoundDuration":660617,"Delta":205220699},{"NoteNumber":55,"Velocity":60,"Duration":213157,"SoundDuration":213157,"Delta":205220699},{"NoteNumber":59,"Velocity":53,"Duration":220205,"SoundDuration":220205,"Delta":205431226},{"NoteNumber":57,"Velocity":54,"Duration":172413,"SoundDuration":172413,"Delta":205651431},{"NoteNumber":52,"Velocity":50,"Duration":645833,"SoundDuration":645833,"Delta":205881316},{"NoteNumber":55,"Velocity":60,"Duration":210937,"SoundDuration":210937,"Delta":205881316},{"NoteNumber":59,"Velocity":51,"Duration":215277,"SoundDuration":215277,"Delta":206089650},{"NoteNumber":57,"Velocity":51,"Duration":166666,"SoundDuration":166666,"Delta":206304928},{"NoteNumber":69,"Velocity":61,"Duration":1093879,"SoundDuration":1093879,"Delta":206527150},{"NoteNumber":81,"Velocity":70,"Duration":1093879,"SoundDuration":1093879,"Delta":206527150},{"NoteNumber":50,"Velocity":49,"Duration":645161,"SoundDuration":645161,"Delta":206527150},{"NoteNumber":54,"Velocity":58,"Duration":217742,"SoundDuration":217742,"Delta":206527150},{"NoteNumber":59,"Velocity":49,"Duration":215053,"SoundDuration":215053,"Delta":206742204},{"NoteNumber":57,"Velocity":50,"Duration":161290,"SoundDuration":161290,"Delta":206957257},{"NoteNumber":49,"Velocity":49,"Duration":686813,"SoundDuration":686813,"Delta":207172311},{"NoteNumber":52,"Velocity":58,"Duration":222527,"SoundDuration":222527,"Delta":207172311},{"NoteNumber":57,"Velocity":53,"Duration":228937,"SoundDuration":228937,"Delta":207392091},{"NoteNumber":67,"Velocity":45,"Duration":238095,"SoundDuration":238095,"Delta":207621029},{"NoteNumber":79,"Velocity":50,"Duration":238095,"SoundDuration":238095,"Delta":207621029},{"NoteNumber":55,"Velocity":40,"Duration":178571,"SoundDuration":178571,"Delta":207621029},{"NoteNumber":66,"Velocity":50,"Duration":645161,"SoundDuration":645161,"Delta":207859124},{"NoteNumber":78,"Velocity":50,"Duration":645161,"SoundDuration":645161,"Delta":207859124},{"NoteNumber":54,"Velocity":40,"Duration":215053,"SoundDuration":215053,"Delta":207859124},{"NoteNumber":50,"Velocity":50,"Duration":1930351,"SoundDuration":1930351,"Delta":207859124},{"NoteNumber":57,"Velocity":36,"Duration":215053,"SoundDuration":215053,"Delta":208074178},{"NoteNumber":55,"Velocity":36,"Duration":215053,"SoundDuration":215053,"Delta":208289232},{"NoteNumber":66,"Velocity":40,"Duration":210526,"SoundDuration":210526,"Delta":208504286},{"NoteNumber":78,"Velocity":50,"Duration":1285189,"SoundDuration":1285189,"Delta":208504286},{"NoteNumber":54,"Velocity":40,"Duration":210526,"SoundDuration":210526,"Delta":208504286},{"NoteNumber":76,"Velocity":40,"Duration":210526,"SoundDuration":210526,"Delta":208714812},{"NoteNumber":55,"Velocity":38,"Duration":210526,"SoundDuration":210526,"Delta":208714812},{"NoteNumber":74,"Velocity":40,"Duration":210526,"SoundDuration":210526,"Delta":208925338},{"NoteNumber":57,"Velocity":38,"Duration":210526,"SoundDuration":210526,"Delta":208925338},{"NoteNumber":73,"Velocity":50,"Duration":210526,"SoundDuration":210526,"Delta":209135865},{"NoteNumber":59,"Velocity":40,"Duration":210526,"SoundDuration":210526,"Delta":209135865},{"NoteNumber":71,"Velocity":41,"Duration":210526,"SoundDuration":210526,"Delta":209346391},{"NoteNumber":61,"Velocity":37,"Duration":210526,"SoundDuration":210526,"Delta":209346391},{"NoteNumber":69,"Velocity":43,"Duration":232558,"SoundDuration":232558,"Delta":209556917},{"NoteNumber":62,"Velocity":37,"Duration":232558,"SoundDuration":232558,"Delta":209556917},{"NoteNumber":67,"Velocity":50,"Duration":212765,"SoundDuration":212765,"Delta":209789476},{"NoteNumber":79,"Velocity":50,"Duration":1881897,"SoundDuration":1881897,"Delta":209789476},{"NoteNumber":64,"Velocity":40,"Duration":638297,"SoundDuration":638297,"Delta":209789476},{"NoteNumber":52,"Velocity":50,"Duration":1881897,"SoundDuration":1881897,"Delta":209789476},{"NoteNumber":70,"Velocity":42,"Duration":212766,"SoundDuration":212766,"Delta":210002242},{"NoteNumber":69,"Velocity":42,"Duration":212765,"SoundDuration":212765,"Delta":210215008},{"NoteNumber":67,"Velocity":50,"Duration":199999,"SoundDuration":199999,"Delta":210427774},{"NoteNumber":64,"Velocity":40,"Duration":199999,"SoundDuration":199999,"Delta":210427774},{"NoteNumber":69,"Velocity":40,"Duration":204081,"SoundDuration":204081,"Delta":210627774},{"NoteNumber":62,"Velocity":36,"Duration":204081,"SoundDuration":204081,"Delta":210627774},{"NoteNumber":71,"Velocity":40,"Duration":204081,"SoundDuration":204081,"Delta":210831855},{"NoteNumber":61,"Velocity":36,"Duration":204081,"SoundDuration":204081,"Delta":210831855},{"NoteNumber":73,"Velocity":50,"Duration":204081,"SoundDuration":204081,"Delta":211035937},{"NoteNumber":59,"Velocity":40,"Duration":204081,"SoundDuration":204081,"Delta":211035937},{"NoteNumber":74,"Velocity":41,"Duration":204081,"SoundDuration":204081,"Delta":211240019},{"NoteNumber":57,"Velocity":35,"Duration":204081,"SoundDuration":204081,"Delta":211240019},{"NoteNumber":76,"Velocity":41,"Duration":227272,"SoundDuration":227272,"Delta":211444100},{"NoteNumber":55,"Velocity":35,"Duration":227272,"SoundDuration":227272,"Delta":211444100},{"NoteNumber":69,"Velocity":50,"Duration":645161,"SoundDuration":645161,"Delta":211671373},{"NoteNumber":81,"Velocity":50,"Duration":645161,"SoundDuration":645161,"Delta":211671373},{"NoteNumber":61,"Velocity":40,"Duration":215053,"SoundDuration":215053,"Delta":211671373},{"NoteNumber":54,"Velocity":50,"Duration":1930351,"SoundDuration":1930351,"Delta":211671373},{"NoteNumber":62,"Velocity":36,"Duration":215053,"SoundDuration":215053,"Delta":211886427},{"NoteNumber":61,"Velocity":37,"Duration":215053,"SoundDuration":215053,"Delta":212101481},{"NoteNumber":69,"Velocity":42,"Duration":210526,"SoundDuration":210526,"Delta":212316534},{"NoteNumber":81,"Velocity":52,"Duration":1285189,"SoundDuration":1285189,"Delta":212316534},{"NoteNumber":57,"Velocity":42,"Duration":210526,"SoundDuration":210526,"Delta":212316534},{"NoteNumber":79,"Velocity":42,"Duration":210526,"SoundDuration":210526,"Delta":212527061},{"NoteNumber":59,"Velocity":40,"Duration":210526,"SoundDuration":210526,"Delta":212527061},{"NoteNumber":78,"Velocity":43,"Duration":210526,"SoundDuration":210526,"Delta":212737587},{"NoteNumber":60,"Velocity":41,"Duration":210526,"SoundDuration":210526,"Delta":212737587},{"NoteNumber":76,"Velocity":55,"Duration":210526,"SoundDuration":210526,"Delta":212948113},{"NoteNumber":62,"Velocity":44,"Duration":210526,"SoundDuration":210526,"Delta":212948113},{"NoteNumber":74,"Velocity":45,"Duration":210526,"SoundDuration":210526,"Delta":213158640},{"NoteNumber":64,"Velocity":41,"Duration":210526,"SoundDuration":210526,"Delta":213158640},{"NoteNumber":72,"Velocity":48,"Duration":232558,"SoundDuration":232558,"Delta":213369166},{"NoteNumber":66,"Velocity":41,"Duration":232558,"SoundDuration":232558,"Delta":213369166},{"NoteNumber":71,"Velocity":57,"Duration":212765,"SoundDuration":212765,"Delta":213601724},{"NoteNumber":83,"Velocity":57,"Duration":1881897,"SoundDuration":1881897,"Delta":213601724},{"NoteNumber":67,"Velocity":46,"Duration":838297,"SoundDuration":838297,"Delta":213601724},{"NoteNumber":55,"Velocity":57,"Duration":1881897,"SoundDuration":1881897,"Delta":213601724},{"NoteNumber":74,"Velocity":48,"Duration":212766,"SoundDuration":212766,"Delta":213814490},{"NoteNumber":72,"Velocity":49,"Duration":212765,"SoundDuration":212765,"Delta":214027256},{"NoteNumber":71,"Velocity":60,"Duration":199999,"SoundDuration":199999,"Delta":214240022},{"NoteNumber":72,"Velocity":48,"Duration":204081,"SoundDuration":204081,"Delta":214440022},{"NoteNumber":66,"Velocity":43,"Duration":204081,"SoundDuration":204081,"Delta":214440022},{"NoteNumber":74,"Velocity":49,"Duration":204081,"SoundDuration":204081,"Delta":214644104},{"NoteNumber":64,"Velocity":44,"Duration":204081,"SoundDuration":204081,"Delta":214644104},{"NoteNumber":76,"Velocity":62,"Duration":204081,"SoundDuration":204081,"Delta":214848186},{"NoteNumber":62,"Velocity":50,"Duration":204081,"SoundDuration":204081,"Delta":214848186},{"NoteNumber":78,"Velocity":51,"Duration":204081,"SoundDuration":204081,"Delta":215052267},{"NoteNumber":60,"Velocity":44,"Duration":204081,"SoundDuration":204081,"Delta":215052267},{"NoteNumber":79,"Velocity":52,"Duration":442326,"SoundDuration":442326,"Delta":215256349},{"NoteNumber":59,"Velocity":44,"Duration":227272,"SoundDuration":227272,"Delta":215256349},{"NoteNumber":85,"Velocity":65,"Duration":645161,"SoundDuration":645161,"Delta":215483622},{"NoteNumber":64,"Velocity":52,"Duration":215053,"SoundDuration":215053,"Delta":215483622},{"NoteNumber":57,"Velocity":65,"Duration":1276740,"SoundDuration":1276740,"Delta":215483622},{"NoteNumber":79,"Velocity":53,"Duration":215053,"SoundDuration":215053,"Delta":215698675},{"NoteNumber":61,"Velocity":47,"Duration":215053,"SoundDuration":215053,"Delta":215698675},{"NoteNumber":78,"Velocity":54,"Duration":215053,"SoundDuration":215053,"Delta":215913729},{"NoteNumber":62,"Velocity":47,"Duration":215053,"SoundDuration":215053,"Delta":215913729},{"NoteNumber":76,"Velocity":54,"Duration":210526,"SoundDuration":210526,"Delta":216128783},{"NoteNumber":64,"Velocity":54,"Duration":210526,"SoundDuration":210526,"Delta":216128783},{"NoteNumber":74,"Velocity":54,"Duration":210526,"SoundDuration":210526,"Delta":216339309},{"NoteNumber":66,"Velocity":51,"Duration":210526,"SoundDuration":210526,"Delta":216339309},{"NoteNumber":73,"Velocity":55,"Duration":210526,"SoundDuration":210526,"Delta":216549836},{"NoteNumber":67,"Velocity":52,"Duration":210526,"SoundDuration":210526,"Delta":216549836},{"NoteNumber":86,"Velocity":70,"Duration":653610,"SoundDuration":653610,"Delta":216760362},{"NoteNumber":74,"Velocity":70,"Duration":210526,"SoundDuration":210526,"Delta":216760362},{"NoteNumber":59,"Velocity":70,"Duration":653610,"SoundDuration":653610,"Delta":216760362},{"NoteNumber":66,"Velocity":56,"Duration":210526,"SoundDuration":210526,"Delta":216760362},{"NoteNumber":76,"Velocity":57,"Duration":210526,"SoundDuration":210526,"Delta":216970888},{"NoteNumber":64,"Velocity":52,"Duration":210526,"SoundDuration":210526,"Delta":216970888},{"NoteNumber":78,"Velocity":61,"Duration":232558,"SoundDuration":232558,"Delta":217181415},{"NoteNumber":62,"Velocity":52,"Duration":232558,"SoundDuration":232558,"Delta":217181415},{"NoteNumber":76,"Velocity":72,"Duration":212765,"SoundDuration":212765,"Delta":217413973},{"NoteNumber":88,"Velocity":77,"Duration":1246461,"SoundDuration":1246461,"Delta":217413973},{"NoteNumber":70,"Velocity":58,"Duration":212765,"SoundDuration":212765,"Delta":217413973},{"NoteNumber":61,"Velocity":72,"Duration":1246461,"SoundDuration":1246461,"Delta":217413973},{"NoteNumber":82,"Velocity":61,"Duration":212766,"SoundDuration":212766,"Delta":217626739},{"NoteNumber":64,"Velocity":52,"Duration":212766,"SoundDuration":212766,"Delta":217626739},{"NoteNumber":81,"Velocity":62,"Duration":212765,"SoundDuration":212765,"Delta":217839505},{"NoteNumber":66,"Velocity":53,"Duration":212765,"SoundDuration":212765,"Delta":217839505},{"NoteNumber":79,"Velocity":75,"Duration":199999,"SoundDuration":199999,"Delta":218052271},{"NoteNumber":67,"Velocity":60,"Duration":199999,"SoundDuration":199999,"Delta":218052271},{"NoteNumber":78,"Velocity":60,"Duration":204081,"SoundDuration":204081,"Delta":218252271},{"NoteNumber":69,"Velocity":57,"Duration":204081,"SoundDuration":204081,"Delta":218252271},{"NoteNumber":76,"Velocity":61,"Duration":204081,"SoundDuration":204081,"Delta":218456353},{"NoteNumber":70,"Velocity":58,"Duration":204081,"SoundDuration":204081,"Delta":218456353},{"NoteNumber":78,"Velocity":77,"Duration":204081,"SoundDuration":204081,"Delta":218660434},{"NoteNumber":90,"Velocity":83,"Duration":635436,"SoundDuration":635436,"Delta":218660434},{"NoteNumber":63,"Velocity":77,"Duration":635436,"SoundDuration":635436,"Delta":218660434},{"NoteNumber":69,"Velocity":62,"Duration":204081,"SoundDuration":204081,"Delta":218660434},{"NoteNumber":79,"Velocity":63,"Duration":204081,"SoundDuration":204081,"Delta":218864516},{"NoteNumber":67,"Velocity":57,"Duration":204081,"SoundDuration":204081,"Delta":218864516},{"NoteNumber":81,"Velocity":64,"Duration":227272,"SoundDuration":227272,"Delta":219068598},{"NoteNumber":66,"Velocity":58,"Duration":227272,"SoundDuration":227272,"Delta":219068598},{"NoteNumber":91,"Velocity":88,"Duration":638297,"SoundDuration":638297,"Delta":219295870},{"NoteNumber":79,"Velocity":72,"Duration":212765,"SoundDuration":212765,"Delta":219295870},{"NoteNumber":67,"Velocity":58,"Duration":212765,"SoundDuration":212765,"Delta":219295870},{"NoteNumber":64,"Velocity":72,"Duration":638297,"SoundDuration":638297,"Delta":219295870},{"NoteNumber":78,"Velocity":61,"Duration":212766,"SoundDuration":212766,"Delta":219508636},{"NoteNumber":70,"Velocity":52,"Duration":212766,"SoundDuration":212766,"Delta":219508636},{"NoteNumber":76,"Velocity":62,"Duration":212765,"SoundDuration":212765,"Delta":219721402},{"NoteNumber":73,"Velocity":53,"Duration":212765,"SoundDuration":212765,"Delta":219721402},{"NoteNumber":81,"Velocity":74,"Duration":608163,"SoundDuration":608163,"Delta":219934168},{"NoteNumber":75,"Velocity":63,"Duration":199999,"SoundDuration":199999,"Delta":219934168},{"NoteNumber":66,"Velocity":50,"Duration":608163,"SoundDuration":608163,"Delta":219934168},{"NoteNumber":72,"Velocity":51,"Duration":199999,"SoundDuration":199999,"Delta":219934168},{"NoteNumber":74,"Velocity":51,"Duration":204081,"SoundDuration":204081,"Delta":220134168},{"NoteNumber":71,"Velocity":48,"Duration":204081,"SoundDuration":204081,"Delta":220134168},{"NoteNumber":75,"Velocity":51,"Duration":204081,"SoundDuration":204081,"Delta":220338250},{"NoteNumber":72,"Velocity":49,"Duration":204081,"SoundDuration":204081,"Delta":220338250},{"NoteNumber":83,"Velocity":70,"Duration":635436,"SoundDuration":635436,"Delta":220542332},{"NoteNumber":74,"Velocity":65,"Duration":204081,"SoundDuration":204081,"Delta":220542332},{"NoteNumber":67,"Velocity":65,"Duration":408163,"SoundDuration":408163,"Delta":220542332},{"NoteNumber":71,"Velocity":52,"Duration":204081,"SoundDuration":204081,"Delta":220542332},{"NoteNumber":72,"Velocity":53,"Duration":204081,"SoundDuration":204081,"Delta":220746413},{"NoteNumber":69,"Velocity":48,"Duration":204081,"SoundDuration":204081,"Delta":220746413},{"NoteNumber":71,"Velocity":54,"Duration":227272,"SoundDuration":227272,"Delta":220950495},{"NoteNumber":55,"Velocity":52,"Duration":227272,"SoundDuration":227272,"Delta":220950495},{"NoteNumber":67,"Velocity":52,"Duration":227272,"SoundDuration":227272,"Delta":220950495},{"NoteNumber":74,"Velocity":53,"Duration":212765,"SoundDuration":212765,"Delta":221177768},{"NoteNumber":77,"Velocity":70,"Duration":1297638,"SoundDuration":1297638,"Delta":221177768},{"NoteNumber":59,"Velocity":48,"Duration":212765,"SoundDuration":212765,"Delta":221177768},{"NoteNumber":56,"Velocity":52,"Duration":1297638,"SoundDuration":1297638,"Delta":221177768},{"NoteNumber":73,"Velocity":48,"Duration":212766,"SoundDuration":212766,"Delta":221390534},{"NoteNumber":61,"Velocity":47,"Duration":212766,"SoundDuration":212766,"Delta":221390534},{"NoteNumber":71,"Velocity":47,"Duration":212765,"SoundDuration":212765,"Delta":221603300},{"NoteNumber":62,"Velocity":39,"Duration":212765,"SoundDuration":212765,"Delta":221603300},{"NoteNumber":68,"Velocity":52,"Duration":219780,"SoundDuration":219780,"Delta":221816066},{"NoteNumber":65,"Velocity":45,"Duration":219780,"SoundDuration":219780,"Delta":221816066},{"NoteNumber":69,"Velocity":46,"Duration":219780,"SoundDuration":219780,"Delta":222035846},{"NoteNumber":64,"Velocity":38,"Duration":219780,"SoundDuration":219780,"Delta":222035846},{"NoteNumber":71,"Velocity":45,"Duration":219780,"SoundDuration":219780,"Delta":222255626},{"NoteNumber":62,"Velocity":37,"Duration":219780,"SoundDuration":219780,"Delta":222255626},{"NoteNumber":73,"Velocity":47,"Duration":221567,"SoundDuration":221567,"Delta":222475406},{"NoteNumber":76,"Velocity":58,"Duration":769063,"SoundDuration":769063,"Delta":222475406},{"NoteNumber":61,"Velocity":43,"Duration":221567,"SoundDuration":221567,"Delta":222475406},{"NoteNumber":55,"Velocity":38,"Duration":769063,"SoundDuration":769063,"Delta":222475406},{"NoteNumber":70,"Velocity":44,"Duration":257641,"SoundDuration":257641,"Delta":222696973},{"NoteNumber":63,"Velocity":36,"Duration":257641,"SoundDuration":257641,"Delta":222696973},{"NoteNumber":69,"Velocity":43,"Duration":289855,"SoundDuration":289855,"Delta":222954615},{"NoteNumber":64,"Velocity":35,"Duration":289855,"SoundDuration":289855,"Delta":222954615},{"NoteNumber":75,"Velocity":51,"Duration":2068964,"SoundDuration":2068964,"Delta":223244470},{"NoteNumber":81,"Velocity":61,"Duration":2068964,"SoundDuration":2068964,"Delta":223244470},{"NoteNumber":66,"Velocity":39,"Duration":2068964,"SoundDuration":2068964,"Delta":223244470},{"NoteNumber":69,"Velocity":46,"Duration":2068964,"SoundDuration":2068964,"Delta":223244470},{"NoteNumber":83,"Velocity":52,"Duration":1373562,"SoundDuration":1373562,"Delta":225313435},{"NoteNumber":78,"Velocity":44,"Duration":1373562,"SoundDuration":1373562,"Delta":225313435},{"NoteNumber":71,"Velocity":44,"Duration":1373562,"SoundDuration":1373562,"Delta":225313435},{"NoteNumber":63,"Velocity":32,"Duration":1373562,"SoundDuration":1373562,"Delta":225313435},{"NoteNumber":66,"Velocity":38,"Duration":1373562,"SoundDuration":1373562,"Delta":225313435},{"NoteNumber":78,"Velocity":51,"Duration":689655,"SoundDuration":689655,"Delta":226692745},{"NoteNumber":75,"Velocity":43,"Duration":689655,"SoundDuration":689655,"Delta":226692745},{"NoteNumber":71,"Velocity":43,"Duration":689655,"SoundDuration":689655,"Delta":226692745},{"NoteNumber":59,"Velocity":26,"Duration":689655,"SoundDuration":689655,"Delta":226692745},{"NoteNumber":63,"Velocity":26,"Duration":689655,"SoundDuration":689655,"Delta":226692745},{"NoteNumber":66,"Velocity":31,"Duration":689655,"SoundDuration":689655,"Delta":226692745},{"NoteNumber":81,"Velocity":61,"Duration":344827,"SoundDuration":344827,"Delta":227382400},{"NoteNumber":64,"Velocity":41,"Duration":1034482,"SoundDuration":1034482,"Delta":227382400},{"NoteNumber":67,"Velocity":41,"Duration":1034482,"SoundDuration":1034482,"Delta":227382400},{"NoteNumber":78,"Velocity":57,"Duration":344827,"SoundDuration":344827,"Delta":227727228},{"NoteNumber":91,"Velocity":66,"Duration":344827,"SoundDuration":344827,"Delta":228072055},{"NoteNumber":79,"Velocity":66,"Duration":344827,"SoundDuration":344827,"Delta":228072055},{"NoteNumber":71,"Velocity":62,"Duration":344827,"SoundDuration":344827,"Delta":228416883},{"NoteNumber":83,"Velocity":62,"Duration":344827,"SoundDuration":344827,"Delta":228416883},{"NoteNumber":55,"Velocity":30,"Duration":344827,"SoundDuration":344827,"Delta":228416883},{"NoteNumber":59,"Velocity":36,"Duration":344827,"SoundDuration":344827,"Delta":228416883},{"NoteNumber":90,"Velocity":69,"Duration":340909,"SoundDuration":340909,"Delta":228761710},{"NoteNumber":78,"Velocity":69,"Duration":340909,"SoundDuration":340909,"Delta":228761710},{"NoteNumber":55,"Velocity":43,"Duration":715909,"SoundDuration":715909,"Delta":228761710},{"NoteNumber":69,"Velocity":43,"Duration":340909,"SoundDuration":340909,"Delta":228761710},{"NoteNumber":88,"Velocity":62,"Duration":375000,"SoundDuration":375000,"Delta":229102619},{"NoteNumber":76,"Velocity":62,"Duration":375000,"SoundDuration":375000,"Delta":229102619},{"NoteNumber":67,"Velocity":37,"Duration":375000,"SoundDuration":375000,"Delta":229102619},{"NoteNumber":86,"Velocity":52,"Duration":1356321,"SoundDuration":1356321,"Delta":229477619},{"NoteNumber":74,"Velocity":62,"Duration":344827,"SoundDuration":344827,"Delta":229477619},{"NoteNumber":66,"Velocity":46,"Duration":344827,"SoundDuration":344827,"Delta":229477619},{"NoteNumber":57,"Velocity":39,"Duration":1356321,"SoundDuration":1356321,"Delta":229477619},{"NoteNumber":77,"Velocity":65,"Duration":344827,"SoundDuration":344827,"Delta":229822447},{"NoteNumber":68,"Velocity":39,"Duration":344827,"SoundDuration":344827,"Delta":229822447},{"NoteNumber":79,"Velocity":69,"Duration":333333,"SoundDuration":333333,"Delta":230167274},{"NoteNumber":71,"Velocity":44,"Duration":333333,"SoundDuration":333333,"Delta":230167274},{"NoteNumber":78,"Velocity":64,"Duration":333333,"SoundDuration":333333,"Delta":230500607},{"NoteNumber":69,"Velocity":40,"Duration":333333,"SoundDuration":333333,"Delta":230500607},{"NoteNumber":73,"Velocity":54,"Duration":333333,"SoundDuration":333333,"Delta":230833941},{"NoteNumber":81,"Velocity":54,"Duration":333333,"SoundDuration":333333,"Delta":230833941},{"NoteNumber":85,"Velocity":64,"Duration":333333,"SoundDuration":333333,"Delta":230833941},{"NoteNumber":76,"Velocity":54,"Duration":333333,"SoundDuration":333333,"Delta":230833941},{"NoteNumber":33,"Velocity":38,"Duration":333333,"SoundDuration":333333,"Delta":230833941},{"NoteNumber":45,"Velocity":45,"Duration":333333,"SoundDuration":333333,"Delta":230833941},{"NoteNumber":72,"Velocity":58,"Duration":333333,"SoundDuration":333333,"Delta":231167274},{"NoteNumber":81,"Velocity":58,"Duration":333333,"SoundDuration":333333,"Delta":231167274},{"NoteNumber":84,"Velocity":69,"Duration":333333,"SoundDuration":333333,"Delta":231167274},{"NoteNumber":75,"Velocity":58,"Duration":333333,"SoundDuration":333333,"Delta":231167274},{"NoteNumber":31,"Velocity":38,"Duration":166666,"SoundDuration":166666,"Delta":231167274},{"NoteNumber":43,"Velocity":45,"Duration":166666,"SoundDuration":166666,"Delta":231167274},{"NoteNumber":30,"Velocity":39,"Duration":166666,"SoundDuration":166666,"Delta":231333940},{"NoteNumber":42,"Velocity":46,"Duration":166666,"SoundDuration":166666,"Delta":231333940},{"NoteNumber":84,"Velocity":72,"Duration":631578,"SoundDuration":631578,"Delta":231500607},{"NoteNumber":81,"Velocity":61,"Duration":157894,"SoundDuration":157894,"Delta":231500607},{"NoteNumber":30,"Velocity":52,"Duration":157894,"SoundDuration":157894,"Delta":231500607},{"NoteNumber":78,"Velocity":71,"Duration":157894,"SoundDuration":157894,"Delta":231658502},{"NoteNumber":33,"Velocity":44,"Duration":157894,"SoundDuration":157894,"Delta":231658502},{"NoteNumber":75,"Velocity":69,"Duration":157894,"SoundDuration":157894,"Delta":231816397},{"NoteNumber":36,"Velocity":43,"Duration":157894,"SoundDuration":157894,"Delta":231816397},{"NoteNumber":72,"Velocity":68,"Duration":157894,"SoundDuration":157894,"Delta":231974291},{"NoteNumber":39,"Velocity":42,"Duration":157894,"SoundDuration":157894,"Delta":231974291},{"NoteNumber":72,"Velocity":66,"Duration":959179,"SoundDuration":959179,"Delta":232132186},{"NoteNumber":69,"Velocity":56,"Duration":157894,"SoundDuration":157894,"Delta":232132186},{"NoteNumber":42,"Velocity":41,"Duration":157894,"SoundDuration":157894,"Delta":232132186},{"NoteNumber":66,"Velocity":61,"Duration":157894,"SoundDuration":157894,"Delta":232290081},{"NoteNumber":45,"Velocity":40,"Duration":157894,"SoundDuration":157894,"Delta":232290081},{"NoteNumber":63,"Velocity":59,"Duration":159434,"SoundDuration":159434,"Delta":232447976},{"NoteNumber":48,"Velocity":39,"Duration":159434,"SoundDuration":159434,"Delta":232447976},{"NoteNumber":60,"Velocity":58,"Duration":160117,"SoundDuration":160117,"Delta":232607410},{"NoteNumber":51,"Velocity":38,"Duration":160117,"SoundDuration":160117,"Delta":232607410},{"NoteNumber":69,"Velocity":60,"Duration":161290,"SoundDuration":161290,"Delta":232767528},{"NoteNumber":54,"Velocity":36,"Duration":161290,"SoundDuration":161290,"Delta":232767528},{"NoteNumber":63,"Velocity":48,"Duration":162546,"SoundDuration":162546,"Delta":232928818},{"NoteNumber":60,"Velocity":27,"Duration":162546,"SoundDuration":162546,"Delta":232928818},{"NoteNumber":71,"Velocity":48,"Duration":360620,"SoundDuration":360620,"Delta":233091365},{"NoteNumber":59,"Velocity":40,"Duration":163252,"SoundDuration":163252,"Delta":233091365},{"NoteNumber":62,"Velocity":48,"Duration":163252,"SoundDuration":163252,"Delta":233091365},{"NoteNumber":55,"Velocity":27,"Duration":163252,"SoundDuration":163252,"Delta":233091365},{"NoteNumber":67,"Velocity":48,"Duration":197368,"SoundDuration":197368,"Delta":233254618},{"NoteNumber":59,"Velocity":27,"Duration":197368,"SoundDuration":197368,"Delta":233254618},{"NoteNumber":58,"Velocity":35,"Duration":1333333,"SoundDuration":1333333,"Delta":233451986},{"NoteNumber":70,"Velocity":41,"Duration":1333333,"SoundDuration":1333333,"Delta":233451986},{"NoteNumber":67,"Velocity":35,"Duration":1333333,"SoundDuration":1333333,"Delta":233451986},{"NoteNumber":62,"Velocity":35,"Duration":1333333,"SoundDuration":1333333,"Delta":233451986},{"NoteNumber":43,"Velocity":22,"Duration":1333333,"SoundDuration":1333333,"Delta":233451986},{"NoteNumber":55,"Velocity":26,"Duration":1333333,"SoundDuration":1333333,"Delta":233451986},{"NoteNumber":69,"Velocity":61,"Duration":646258,"SoundDuration":646258,"Delta":235441569},{"NoteNumber":66,"Velocity":51,"Duration":204081,"SoundDuration":204081,"Delta":235441569},{"NoteNumber":33,"Velocity":39,"Duration":204081,"SoundDuration":204081,"Delta":235441569},{"NoteNumber":62,"Velocity":55,"Duration":204081,"SoundDuration":204081,"Delta":235645651},{"NoteNumber":38,"Velocity":34,"Duration":204081,"SoundDuration":204081,"Delta":235645651},{"NoteNumber":57,"Velocity":55,"Duration":238095,"SoundDuration":238095,"Delta":235849732},{"NoteNumber":42,"Velocity":34,"Duration":238095,"SoundDuration":238095,"Delta":235849732},{"NoteNumber":69,"Velocity":61,"Duration":919228,"SoundDuration":919228,"Delta":236087827},{"NoteNumber":66,"Velocity":51,"Duration":151515,"SoundDuration":151515,"Delta":236087827},{"NoteNumber":45,"Velocity":39,"Duration":919228,"SoundDuration":919228,"Delta":236087827},{"NoteNumber":62,"Velocity":54,"Duration":151515,"SoundDuration":151515,"Delta":236239343},{"NoteNumber":50,"Velocity":32,"Duration":151515,"SoundDuration":151515,"Delta":236239343},{"NoteNumber":57,"Velocity":55,"Duration":151515,"SoundDuration":151515,"Delta":236390858},{"NoteNumber":54,"Velocity":32,"Duration":151515,"SoundDuration":151515,"Delta":236390858},{"NoteNumber":66,"Velocity":55,"Duration":171318,"SoundDuration":171318,"Delta":236542373},{"NoteNumber":57,"Velocity":32,"Duration":171318,"SoundDuration":171318,"Delta":236542373},{"NoteNumber":66,"Velocity":63,"Duration":145188,"SoundDuration":145188,"Delta":236713691},{"NoteNumber":50,"Velocity":38,"Duration":145188,"SoundDuration":145188,"Delta":236713691},{"NoteNumber":62,"Velocity":54,"Duration":148177,"SoundDuration":148177,"Delta":236858879},{"NoteNumber":54,"Velocity":34,"Duration":148177,"SoundDuration":148177,"Delta":236858879},{"NoteNumber":68,"Velocity":59,"Duration":357779,"SoundDuration":357779,"Delta":237007056},{"NoteNumber":65,"Velocity":50,"Duration":151136,"SoundDuration":151136,"Delta":237007056},{"NoteNumber":47,"Velocity":28,"Duration":357779,"SoundDuration":357779,"Delta":237007056},{"NoteNumber":50,"Velocity":34,"Duration":151136,"SoundDuration":151136,"Delta":237007056},{"NoteNumber":62,"Velocity":50,"Duration":206643,"SoundDuration":206643,"Delta":237158192},{"NoteNumber":53,"Velocity":34,"Duration":206643,"SoundDuration":206643,"Delta":237158192},{"NoteNumber":64,"Velocity":48,"Duration":646739,"SoundDuration":646739,"Delta":237364836},{"NoteNumber":58,"Velocity":48,"Duration":646739,"SoundDuration":646739,"Delta":237364836},{"NoteNumber":55,"Velocity":48,"Duration":646739,"SoundDuration":646739,"Delta":237364836},{"NoteNumber":67,"Velocity":57,"Duration":646739,"SoundDuration":646739,"Delta":237364836},{"NoteNumber":49,"Velocity":32,"Duration":646739,"SoundDuration":646739,"Delta":237364836},{"NoteNumber":52,"Velocity":38,"Duration":646739,"SoundDuration":646739,"Delta":237364836},{"NoteNumber":46,"Velocity":25,"Duration":978261,"SoundDuration":978261,"Delta":238017010},{"NoteNumber":49,"Velocity":25,"Duration":978261,"SoundDuration":978261,"Delta":238017010},{"NoteNumber":52,"Velocity":25,"Duration":978261,"SoundDuration":978261,"Delta":238017010},{"NoteNumber":55,"Velocity":30,"Duration":978261,"SoundDuration":978261,"Delta":238017010},{"NoteNumber":47,"Velocity":22,"Duration":326087,"SoundDuration":326087,"Delta":238995271},{"NoteNumber":51,"Velocity":22,"Duration":326087,"SoundDuration":326087,"Delta":238995271},{"NoteNumber":54,"Velocity":27,"Duration":326087,"SoundDuration":326087,"Delta":238995271},{"NoteNumber":47,"Velocity":25,"Duration":1290761,"SoundDuration":1290761,"Delta":239321358},{"NoteNumber":51,"Velocity":25,"Duration":1290761,"SoundDuration":1290761,"Delta":239321358},{"NoteNumber":54,"Velocity":30,"Duration":1290761,"SoundDuration":1290761,"Delta":239321358},{"NoteNumber":47,"Velocity":22,"Duration":632978,"SoundDuration":632978,"Delta":240625706},{"NoteNumber":51,"Velocity":22,"Duration":632978,"SoundDuration":632978,"Delta":240625706},{"NoteNumber":54,"Velocity":22,"Duration":632978,"SoundDuration":632978,"Delta":240625706},{"NoteNumber":59,"Velocity":27,"Duration":632978,"SoundDuration":632978,"Delta":240625706},{"NoteNumber":63,"Velocity":38,"Duration":1304944,"SoundDuration":1304944,"Delta":241264004},{"NoteNumber":66,"Velocity":45,"Duration":1304944,"SoundDuration":1304944,"Delta":241264004},{"NoteNumber":47,"Velocity":25,"Duration":1304944,"SoundDuration":1304944,"Delta":241264004},{"NoteNumber":51,"Velocity":25,"Duration":1304944,"SoundDuration":1304944,"Delta":241264004},{"NoteNumber":54,"Velocity":25,"Duration":1304944,"SoundDuration":1304944,"Delta":241264004},{"NoteNumber":59,"Velocity":30,"Duration":1304944,"SoundDuration":1304944,"Delta":241264004},{"NoteNumber":63,"Velocity":36,"Duration":646739,"SoundDuration":646739,"Delta":242582685},{"NoteNumber":66,"Velocity":36,"Duration":646739,"SoundDuration":646739,"Delta":242582685},{"NoteNumber":71,"Velocity":42,"Duration":646739,"SoundDuration":646739,"Delta":242582685},{"NoteNumber":47,"Velocity":22,"Duration":646739,"SoundDuration":646739,"Delta":242582685},{"NoteNumber":51,"Velocity":22,"Duration":646739,"SoundDuration":646739,"Delta":242582685},{"NoteNumber":54,"Velocity":22,"Duration":646739,"SoundDuration":646739,"Delta":242582685},{"NoteNumber":59,"Velocity":27,"Duration":646739,"SoundDuration":646739,"Delta":242582685},{"NoteNumber":59,"Velocity":38,"Duration":1305274,"SoundDuration":1305274,"Delta":243234859},{"NoteNumber":63,"Velocity":38,"Duration":1305274,"SoundDuration":1305274,"Delta":243234859},{"NoteNumber":71,"Velocity":45,"Duration":1305274,"SoundDuration":1305274,"Delta":243234859},{"NoteNumber":66,"Velocity":38,"Duration":1305274,"SoundDuration":1305274,"Delta":243234859},{"NoteNumber":35,"Velocity":25,"Duration":639785,"SoundDuration":639785,"Delta":243234859},{"NoteNumber":47,"Velocity":30,"Duration":639785,"SoundDuration":639785,"Delta":243234859},{"NoteNumber":30,"Velocity":25,"Duration":1312744,"SoundDuration":1312744,"Delta":243880020},{"NoteNumber":42,"Velocity":30,"Duration":1312744,"SoundDuration":1312744,"Delta":243880020},{"NoteNumber":63,"Velocity":36,"Duration":646739,"SoundDuration":646739,"Delta":244554178},{"NoteNumber":59,"Velocity":36,"Duration":646739,"SoundDuration":646739,"Delta":244554178},{"NoteNumber":71,"Velocity":44,"Duration":646739,"SoundDuration":646739,"Delta":244554178},{"NoteNumber":66,"Velocity":36,"Duration":646739,"SoundDuration":646739,"Delta":244554178},{"NoteNumber":64,"Velocity":38,"Duration":632978,"SoundDuration":632978,"Delta":245206352},{"NoteNumber":59,"Velocity":38,"Duration":632978,"SoundDuration":632978,"Delta":245206352},{"NoteNumber":71,"Velocity":45,"Duration":632978,"SoundDuration":632978,"Delta":245206352},{"NoteNumber":31,"Velocity":25,"Duration":632978,"SoundDuration":632978,"Delta":245206352},{"NoteNumber":43,"Velocity":30,"Duration":632978,"SoundDuration":632978,"Delta":245206352},{"NoteNumber":57,"Velocity":35,"Duration":1357297,"SoundDuration":1357297,"Delta":245844650},{"NoteNumber":64,"Velocity":35,"Duration":1357297,"SoundDuration":1357297,"Delta":245844650},{"NoteNumber":61,"Velocity":35,"Duration":1357297,"SoundDuration":1357297,"Delta":245844650},{"NoteNumber":69,"Velocity":41,"Duration":1357297,"SoundDuration":1357297,"Delta":245844650},{"NoteNumber":33,"Velocity":21,"Duration":1357297,"SoundDuration":1357297,"Delta":245844650},{"NoteNumber":45,"Velocity":25,"Duration":1357297,"SoundDuration":1357297,"Delta":245844650},{"NoteNumber":57,"Velocity":35,"Duration":1333333,"SoundDuration":1333333,"Delta":247216482},{"NoteNumber":66,"Velocity":35,"Duration":1333333,"SoundDuration":1333333,"Delta":247216482},{"NoteNumber":62,"Velocity":35,"Duration":1333333,"SoundDuration":1333333,"Delta":247216482},{"NoteNumber":69,"Velocity":41,"Duration":1333333,"SoundDuration":1333333,"Delta":247216482},{"NoteNumber":26,"Velocity":20,"Duration":1333333,"SoundDuration":1333333,"Delta":247216482},{"NoteNumber":38,"Velocity":24,"Duration":1333333,"SoundDuration":1333333,"Delta":247216482},{"NoteNumber":66,"Velocity":33,"Duration":666666,"SoundDuration":666666,"Delta":248549815},{"NoteNumber":54,"Velocity":22,"Duration":666666,"SoundDuration":666666,"Delta":248549815},{"NoteNumber":57,"Velocity":42,"Duration":1333333,"SoundDuration":1333333,"Delta":249216481},{"NoteNumber":45,"Velocity":24,"Duration":1333333,"SoundDuration":1333333,"Delta":249216481},{"NoteNumber":69,"Velocity":36,"Duration":740740,"SoundDuration":740740,"Delta":250549814},{"NoteNumber":57,"Velocity":21,"Duration":740740,"SoundDuration":740740,"Delta":250549814},{"NoteNumber":66,"Velocity":40,"Duration":1318680,"SoundDuration":1318680,"Delta":251290555},{"NoteNumber":54,"Velocity":24,"Duration":1318680,"SoundDuration":1318680,"Delta":251290555},{"NoteNumber":90,"Velocity":59,"Duration":659340,"SoundDuration":659340,"Delta":252609236},{"NoteNumber":78,"Velocity":49,"Duration":659340,"SoundDuration":659340,"Delta":252609236},{"NoteNumber":81,"Velocity":49,"Duration":659340,"SoundDuration":659340,"Delta":252609236},{"NoteNumber":33,"Velocity":28,"Duration":659340,"SoundDuration":659340,"Delta":252609236},{"NoteNumber":45,"Velocity":34,"Duration":659340,"SoundDuration":659340,"Delta":252609236},{"NoteNumber":79,"Velocity":53,"Duration":1318680,"SoundDuration":1318680,"Delta":253268576},{"NoteNumber":76,"Velocity":53,"Duration":1318680,"SoundDuration":1318680,"Delta":253268576},{"NoteNumber":88,"Velocity":63,"Duration":1318680,"SoundDuration":1318680,"Delta":253268576},{"NoteNumber":47,"Velocity":40,"Duration":1318680,"SoundDuration":1318680,"Delta":253268576},{"NoteNumber":35,"Velocity":27,"Duration":1318680,"SoundDuration":1318680,"Delta":253268576},{"NoteNumber":45,"Velocity":34,"Duration":1318680,"SoundDuration":1318680,"Delta":253268576},{"NoteNumber":81,"Velocity":51,"Duration":653845,"SoundDuration":653845,"Delta":254587257},{"NoteNumber":76,"Velocity":43,"Duration":653845,"SoundDuration":653845,"Delta":254587257},{"NoteNumber":69,"Velocity":43,"Duration":653845,"SoundDuration":653845,"Delta":254587257},{"NoteNumber":79,"Velocity":43,"Duration":653845,"SoundDuration":653845,"Delta":254587257},{"NoteNumber":37,"Velocity":29,"Duration":653845,"SoundDuration":653845,"Delta":254587257},{"NoteNumber":49,"Velocity":29,"Duration":653845,"SoundDuration":653845,"Delta":254587257},{"NoteNumber":45,"Velocity":29,"Duration":653845,"SoundDuration":653845,"Delta":254587257},{"NoteNumber":69,"Velocity":45,"Duration":1333333,"SoundDuration":1333333,"Delta":255246598},{"NoteNumber":81,"Velocity":54,"Duration":1333333,"SoundDuration":1333333,"Delta":255246598},{"NoteNumber":78,"Velocity":45,"Duration":1333333,"SoundDuration":1333333,"Delta":255246598},{"NoteNumber":45,"Velocity":30,"Duration":1333333,"SoundDuration":1333333,"Delta":255246598},{"NoteNumber":38,"Velocity":30,"Duration":1333333,"SoundDuration":1333333,"Delta":255246598},{"NoteNumber":50,"Velocity":36,"Duration":1333333,"SoundDuration":1333333,"Delta":255246598},{"NoteNumber":78,"Velocity":43,"Duration":666666,"SoundDuration":666666,"Delta":256579931},{"NoteNumber":66,"Velocity":33,"Duration":666666,"SoundDuration":666666,"Delta":256579931},{"NoteNumber":69,"Velocity":50,"Duration":1333333,"SoundDuration":1333333,"Delta":257246597},{"NoteNumber":57,"Velocity":33,"Duration":1333333,"SoundDuration":1333333,"Delta":257246597},{"NoteNumber":69,"Velocity":39,"Duration":714285,"SoundDuration":714285,"Delta":258579930},{"NoteNumber":81,"Velocity":47,"Duration":714285,"SoundDuration":714285,"Delta":258579930},{"NoteNumber":42,"Velocity":26,"Duration":714285,"SoundDuration":714285,"Delta":258579930},{"NoteNumber":45,"Velocity":26,"Duration":714285,"SoundDuration":714285,"Delta":258579930},{"NoteNumber":54,"Velocity":31,"Duration":714285,"SoundDuration":714285,"Delta":258579930},{"NoteNumber":78,"Velocity":54,"Duration":1318681,"SoundDuration":1318681,"Delta":259294216},{"NoteNumber":66,"Velocity":45,"Duration":1318681,"SoundDuration":1318681,"Delta":259294216},{"NoteNumber":45,"Velocity":28,"Duration":1318681,"SoundDuration":1318681,"Delta":259294216},{"NoteNumber":57,"Velocity":33,"Duration":1318681,"SoundDuration":1318681,"Delta":259294216},{"NoteNumber":69,"Velocity":40,"Duration":659340,"SoundDuration":659340,"Delta":260612897},{"NoteNumber":81,"Velocity":48,"Duration":659340,"SoundDuration":659340,"Delta":260612897},{"NoteNumber":42,"Velocity":28,"Duration":1284340,"SoundDuration":1284340,"Delta":260612897},{"NoteNumber":45,"Velocity":28,"Duration":1284340,"SoundDuration":1284340,"Delta":260612897},{"NoteNumber":54,"Velocity":33,"Duration":1284340,"SoundDuration":1284340,"Delta":260612897},{"NoteNumber":79,"Velocity":56,"Duration":1284340,"SoundDuration":1284340,"Delta":261272237},{"NoteNumber":83,"Velocity":56,"Duration":1284340,"SoundDuration":1284340,"Delta":261272237},{"NoteNumber":71,"Velocity":47,"Duration":1284340,"SoundDuration":1284340,"Delta":261272237},{"NoteNumber":40,"Velocity":28,"Duration":659340,"SoundDuration":659340,"Delta":261897237},{"NoteNumber":45,"Velocity":28,"Duration":659340,"SoundDuration":659340,"Delta":261897237},{"NoteNumber":52,"Velocity":34,"Duration":659340,"SoundDuration":659340,"Delta":261897237},{"NoteNumber":85,"Velocity":54,"Duration":659340,"SoundDuration":659340,"Delta":262556578},{"NoteNumber":76,"Velocity":45,"Duration":659340,"SoundDuration":659340,"Delta":262556578},{"NoteNumber":79,"Velocity":45,"Duration":659340,"SoundDuration":659340,"Delta":262556578},{"NoteNumber":73,"Velocity":45,"Duration":659340,"SoundDuration":659340,"Delta":262556578},{"NoteNumber":33,"Velocity":29,"Duration":659340,"SoundDuration":659340,"Delta":262556578},{"NoteNumber":45,"Velocity":34,"Duration":659340,"SoundDuration":659340,"Delta":262556578},{"NoteNumber":78,"Velocity":50,"Duration":1978021,"SoundDuration":1978021,"Delta":263215918},{"NoteNumber":74,"Velocity":50,"Duration":1978021,"SoundDuration":1978021,"Delta":263215918},{"NoteNumber":86,"Velocity":60,"Duration":1978021,"SoundDuration":1978021,"Delta":263215918},{"NoteNumber":38,"Velocity":30,"Duration":1978021,"SoundDuration":1978021,"Delta":263215918},{"NoteNumber":45,"Velocity":36,"Duration":1978021,"SoundDuration":1978021,"Delta":263215918},{"NoteNumber":88,"Velocity":68,"Duration":1937500,"SoundDuration":1937500,"Delta":265193940},{"NoteNumber":85,"Velocity":56,"Duration":1937500,"SoundDuration":1937500,"Delta":265193940},{"NoteNumber":76,"Velocity":56,"Duration":1937500,"SoundDuration":1937500,"Delta":265193940},{"NoteNumber":33,"Velocity":31,"Duration":1937500,"SoundDuration":1937500,"Delta":265193940},{"NoteNumber":45,"Velocity":37,"Duration":1937500,"SoundDuration":1937500,"Delta":265193940},{"NoteNumber":76,"Velocity":62,"Duration":1304348,"SoundDuration":1304348,"Delta":267150462},{"NoteNumber":88,"Velocity":73,"Duration":1304348,"SoundDuration":1304348,"Delta":267150462},{"NoteNumber":85,"Velocity":62,"Duration":1304348,"SoundDuration":1304348,"Delta":267150462},{"NoteNumber":33,"Velocity":32,"Duration":1304348,"SoundDuration":1304348,"Delta":267150462},{"NoteNumber":45,"Velocity":38,"Duration":1304348,"SoundDuration":1304348,"Delta":267150462},{"NoteNumber":87,"Velocity":70,"Duration":638298,"SoundDuration":638298,"Delta":268454810},{"NoteNumber":90,"Velocity":70,"Duration":638298,"SoundDuration":638298,"Delta":268454810},{"NoteNumber":78,"Velocity":59,"Duration":638298,"SoundDuration":638298,"Delta":268454810},{"NoteNumber":43,"Velocity":43,"Duration":319148,"SoundDuration":319148,"Delta":268454810},{"NoteNumber":42,"Velocity":45,"Duration":319149,"SoundDuration":319149,"Delta":268773959},{"NoteNumber":91,"Velocity":75,"Duration":646103,"SoundDuration":646103,"Delta":269093108},{"NoteNumber":79,"Velocity":63,"Duration":646103,"SoundDuration":646103,"Delta":269093108},{"NoteNumber":88,"Velocity":75,"Duration":646103,"SoundDuration":646103,"Delta":269093108},{"NoteNumber":40,"Velocity":53,"Duration":326086,"SoundDuration":326086,"Delta":269093108},{"NoteNumber":38,"Velocity":48,"Duration":325335,"SoundDuration":325335,"Delta":269419195},{"NoteNumber":88,"Velocity":80,"Duration":644724,"SoundDuration":644724,"Delta":269744530},{"NoteNumber":93,"Velocity":80,"Duration":644724,"SoundDuration":644724,"Delta":269744530},{"NoteNumber":81,"Velocity":68,"Duration":644724,"SoundDuration":644724,"Delta":269744530},{"NoteNumber":37,"Velocity":64,"Duration":213709,"SoundDuration":213709,"Delta":269744530},{"NoteNumber":40,"Velocity":53,"Duration":216602,"SoundDuration":216602,"Delta":269958240},{"NoteNumber":45,"Velocity":55,"Duration":219967,"SoundDuration":219967,"Delta":270174842},{"NoteNumber":88,"Velocity":72,"Duration":673939,"SoundDuration":673939,"Delta":270394810},{"NoteNumber":93,"Velocity":85,"Duration":673939,"SoundDuration":673939,"Delta":270394810},{"NoteNumber":91,"Velocity":85,"Duration":673939,"SoundDuration":673939,"Delta":270394810},{"NoteNumber":81,"Velocity":72,"Duration":673939,"SoundDuration":673939,"Delta":270394810},{"NoteNumber":49,"Velocity":65,"Duration":223252,"SoundDuration":223252,"Delta":270394810},{"NoteNumber":52,"Velocity":59,"Duration":226410,"SoundDuration":226410,"Delta":270618062},{"NoteNumber":57,"Velocity":59,"Duration":230090,"SoundDuration":230090,"Delta":270844473},{"NoteNumber":93,"Velocity":74,"Duration":638298,"SoundDuration":638298,"Delta":271074564},{"NoteNumber":81,"Velocity":62,"Duration":638298,"SoundDuration":638298,"Delta":271074564},{"NoteNumber":42,"Velocity":36,"Duration":1882656,"SoundDuration":1882656,"Delta":271074564},{"NoteNumber":54,"Velocity":43,"Duration":1882656,"SoundDuration":1882656,"Delta":271074564},{"NoteNumber":69,"Velocity":46,"Duration":606060,"SoundDuration":606060,"Delta":271712862},{"NoteNumber":81,"Velocity":55,"Duration":606060,"SoundDuration":606060,"Delta":271712862},{"NoteNumber":66,"Velocity":46,"Duration":632978,"SoundDuration":632978,"Delta":272318923},{"NoteNumber":78,"Velocity":55,"Duration":632978,"SoundDuration":632978,"Delta":272318923},{"NoteNumber":66,"Velocity":51,"Duration":638297,"SoundDuration":638297,"Delta":272957221},{"NoteNumber":78,"Velocity":60,"Duration":638297,"SoundDuration":638297,"Delta":272957221},{"NoteNumber":45,"Velocity":36,"Duration":1935936,"SoundDuration":1935936,"Delta":272957221},{"NoteNumber":57,"Velocity":43,"Duration":1935936,"SoundDuration":1935936,"Delta":272957221},{"NoteNumber":62,"Velocity":46,"Duration":638298,"SoundDuration":638298,"Delta":273595519},{"NoteNumber":74,"Velocity":55,"Duration":638298,"SoundDuration":638298,"Delta":273595519},{"NoteNumber":64,"Velocity":47,"Duration":659340,"SoundDuration":659340,"Delta":274233817},{"NoteNumber":76,"Velocity":56,"Duration":659340,"SoundDuration":659340,"Delta":274233817},{"NoteNumber":66,"Velocity":51,"Duration":1856068,"SoundDuration":1856068,"Delta":274893157},{"NoteNumber":78,"Velocity":60,"Duration":1856068,"SoundDuration":1856068,"Delta":274893157},{"NoteNumber":50,"Velocity":36,"Duration":1856068,"SoundDuration":1856068,"Delta":274893157},{"NoteNumber":62,"Velocity":43,"Duration":1856068,"SoundDuration":1856068,"Delta":274893157},{"NoteNumber":67,"Velocity":51,"Duration":1224490,"SoundDuration":1224490,"Delta":276749226},{"NoteNumber":79,"Velocity":60,"Duration":1224490,"SoundDuration":1224490,"Delta":276749226},{"NoteNumber":47,"Velocity":36,"Duration":1224490,"SoundDuration":1224490,"Delta":276749226},{"NoteNumber":59,"Velocity":43,"Duration":1224490,"SoundDuration":1224490,"Delta":276749226},{"NoteNumber":71,"Velocity":53,"Duration":653845,"SoundDuration":653845,"Delta":277973716},{"NoteNumber":83,"Velocity":63,"Duration":653845,"SoundDuration":653845,"Delta":277973716},{"NoteNumber":43,"Velocity":30,"Duration":659340,"SoundDuration":659340,"Delta":277973716},{"NoteNumber":55,"Velocity":36,"Duration":659340,"SoundDuration":659340,"Delta":277973716},{"NoteNumber":71,"Velocity":56,"Duration":1276595,"SoundDuration":1276595,"Delta":278633057},{"NoteNumber":79,"Velocity":56,"Duration":1276595,"SoundDuration":1276595,"Delta":278633057},{"NoteNumber":83,"Velocity":67,"Duration":1276595,"SoundDuration":1276595,"Delta":278633057},{"NoteNumber":40,"Velocity":39,"Duration":1276595,"SoundDuration":1276595,"Delta":278633057},{"NoteNumber":52,"Velocity":47,"Duration":1276595,"SoundDuration":1276595,"Delta":278633057},{"NoteNumber":79,"Velocity":55,"Duration":653845,"SoundDuration":653845,"Delta":279909653},{"NoteNumber":82,"Velocity":65,"Duration":653845,"SoundDuration":653845,"Delta":279909653},{"NoteNumber":70,"Velocity":55,"Duration":653845,"SoundDuration":653845,"Delta":279909653},{"NoteNumber":52,"Velocity":36,"Duration":653845,"SoundDuration":653845,"Delta":279909653},{"NoteNumber":55,"Velocity":43,"Duration":653845,"SoundDuration":653845,"Delta":279909653},{"NoteNumber":70,"Velocity":55,"Duration":625000,"SoundDuration":625000,"Delta":280568993},{"NoteNumber":82,"Velocity":65,"Duration":625000,"SoundDuration":625000,"Delta":280568993},{"NoteNumber":49,"Velocity":36,"Duration":1250000,"SoundDuration":1250000,"Delta":280568993},{"NoteNumber":52,"Velocity":43,"Duration":1250000,"SoundDuration":1250000,"Delta":280568993},{"NoteNumber":88,"Velocity":64,"Duration":625000,"SoundDuration":625000,"Delta":281193993},{"NoteNumber":76,"Velocity":54,"Duration":625000,"SoundDuration":625000,"Delta":281193993},{"NoteNumber":89,"Velocity":66,"Duration":312500,"SoundDuration":312500,"Delta":281818993},{"NoteNumber":77,"Velocity":56,"Duration":312500,"SoundDuration":312500,"Delta":281818993},{"NoteNumber":47,"Velocity":37,"Duration":312500,"SoundDuration":312500,"Delta":281818993},{"NoteNumber":50,"Velocity":44,"Duration":312500,"SoundDuration":312500,"Delta":281818993},{"NoteNumber":78,"Velocity":57,"Duration":345930,"SoundDuration":345930,"Delta":282131493},{"NoteNumber":90,"Velocity":68,"Duration":345930,"SoundDuration":345930,"Delta":282131493},{"NoteNumber":46,"Velocity":38,"Duration":345930,"SoundDuration":345930,"Delta":282131493},{"NoteNumber":49,"Velocity":45,"Duration":345930,"SoundDuration":345930,"Delta":282131493},{"NoteNumber":90,"Velocity":69,"Duration":1894737,"SoundDuration":1894737,"Delta":282480330},{"NoteNumber":78,"Velocity":58,"Duration":1894737,"SoundDuration":1894737,"Delta":282480330},{"NoteNumber":46,"Velocity":47,"Duration":315789,"SoundDuration":315789,"Delta":282480330},{"NoteNumber":49,"Velocity":44,"Duration":315789,"SoundDuration":315789,"Delta":282796120},{"NoteNumber":54,"Velocity":47,"Duration":315789,"SoundDuration":315789,"Delta":283111909},{"NoteNumber":58,"Velocity":49,"Duration":315789,"SoundDuration":315789,"Delta":283427699},{"NoteNumber":61,"Velocity":51,"Duration":315789,"SoundDuration":315789,"Delta":283743488},{"NoteNumber":66,"Velocity":53,"Duration":315789,"SoundDuration":315789,"Delta":284059278},{"NoteNumber":75,"Velocity":68,"Duration":312500,"SoundDuration":312500,"Delta":284375067},{"NoteNumber":68,"Velocity":56,"Duration":1905453,"SoundDuration":1905453,"Delta":284375067},{"NoteNumber":66,"Velocity":47,"Duration":1905453,"SoundDuration":1905453,"Delta":284375067},{"NoteNumber":63,"Velocity":47,"Duration":1905453,"SoundDuration":1905453,"Delta":284375067},{"NoteNumber":60,"Velocity":47,"Duration":1905453,"SoundDuration":1905453,"Delta":284375067},{"NoteNumber":78,"Velocity":70,"Duration":312500,"SoundDuration":312500,"Delta":284687567},{"NoteNumber":80,"Velocity":69,"Duration":314007,"SoundDuration":314007,"Delta":285000067},{"NoteNumber":87,"Velocity":73,"Duration":317749,"SoundDuration":317749,"Delta":285314075},{"NoteNumber":90,"Velocity":74,"Duration":322008,"SoundDuration":322008,"Delta":285631824},{"NoteNumber":92,"Velocity":76,"Duration":326687,"SoundDuration":326687,"Delta":285953833},{"NoteNumber":65,"Velocity":51,"Duration":1978021,"SoundDuration":1978021,"Delta":286280520},{"NoteNumber":77,"Velocity":60,"Duration":1978021,"SoundDuration":1978021,"Delta":286280520},{"NoteNumber":44,"Velocity":42,"Duration":1318680,"SoundDuration":1318680,"Delta":286280520},{"NoteNumber":56,"Velocity":50,"Duration":1318680,"SoundDuration":1318680,"Delta":286280520},{"NoteNumber":41,"Velocity":38,"Duration":653845,"SoundDuration":653845,"Delta":287599201},{"NoteNumber":53,"Velocity":45,"Duration":653845,"SoundDuration":653845,"Delta":287599201},{"NoteNumber":68,"Velocity":51,"Duration":659340,"SoundDuration":659340,"Delta":288258542},{"NoteNumber":80,"Velocity":60,"Duration":1290919,"SoundDuration":1290919,"Delta":288258542},{"NoteNumber":41,"Velocity":42,"Duration":659340,"SoundDuration":659340,"Delta":288258542},{"NoteNumber":53,"Velocity":50,"Duration":659340,"SoundDuration":659340,"Delta":288258542},{"NoteNumber":77,"Velocity":57,"Duration":631578,"SoundDuration":631578,"Delta":288917882},{"NoteNumber":37,"Velocity":38,"Duration":631578,"SoundDuration":631578,"Delta":288917882},{"NoteNumber":49,"Velocity":45,"Duration":631578,"SoundDuration":631578,"Delta":288917882},{"NoteNumber":80,"Velocity":61,"Duration":674157,"SoundDuration":674157,"Delta":289549461},{"NoteNumber":78,"Velocity":45,"Duration":674157,"SoundDuration":674157,"Delta":289549461},{"NoteNumber":39,"Velocity":38,"Duration":674157,"SoundDuration":674157,"Delta":289549461},{"NoteNumber":51,"Velocity":45,"Duration":674157,"SoundDuration":674157,"Delta":289549461},{"NoteNumber":85,"Velocity":69,"Duration":1943093,"SoundDuration":1943093,"Delta":290223619},{"NoteNumber":80,"Velocity":58,"Duration":652174,"SoundDuration":652174,"Delta":290223619},{"NoteNumber":41,"Velocity":42,"Duration":1283752,"SoundDuration":1283752,"Delta":290223619},{"NoteNumber":53,"Velocity":50,"Duration":1283752,"SoundDuration":1283752,"Delta":290223619},{"NoteNumber":73,"Velocity":60,"Duration":631578,"SoundDuration":631578,"Delta":290875793},{"NoteNumber":73,"Velocity":60,"Duration":653845,"SoundDuration":653845,"Delta":291507372},{"NoteNumber":53,"Velocity":38,"Duration":659340,"SoundDuration":659340,"Delta":291507372},{"NoteNumber":56,"Velocity":45,"Duration":659340,"SoundDuration":659340,"Delta":291507372},{"NoteNumber":81,"Velocity":68,"Duration":1283752,"SoundDuration":1283752,"Delta":292166712},{"NoteNumber":73,"Velocity":57,"Duration":652174,"SoundDuration":652174,"Delta":292166712},{"NoteNumber":54,"Velocity":42,"Duration":1283752,"SoundDuration":1283752,"Delta":292166712},{"NoteNumber":57,"Velocity":50,"Duration":1283752,"SoundDuration":1283752,"Delta":292166712},{"NoteNumber":69,"Velocity":56,"Duration":631578,"SoundDuration":631578,"Delta":292818886},{"NoteNumber":73,"Velocity":51,"Duration":689655,"SoundDuration":689655,"Delta":293450465},{"NoteNumber":78,"Velocity":60,"Duration":683907,"SoundDuration":683907,"Delta":293450465},{"NoteNumber":66,"Velocity":51,"Duration":689655,"SoundDuration":689655,"Delta":293450465},{"NoteNumber":61,"Velocity":48,"Duration":689655,"SoundDuration":689655,"Delta":293450465},{"NoteNumber":57,"Velocity":40,"Duration":689655,"SoundDuration":689655,"Delta":293450465},{"NoteNumber":90,"Velocity":73,"Duration":1290472,"SoundDuration":1290472,"Delta":294140120},{"NoteNumber":78,"Velocity":62,"Duration":652174,"SoundDuration":652174,"Delta":294140120},{"NoteNumber":61,"Velocity":50,"Duration":1290472,"SoundDuration":1290472,"Delta":294140120},{"NoteNumber":57,"Velocity":42,"Duration":1290472,"SoundDuration":1290472,"Delta":294140120},{"NoteNumber":87,"Velocity":70,"Duration":638298,"SoundDuration":638298,"Delta":294792294},{"NoteNumber":78,"Velocity":59,"Duration":668539,"SoundDuration":668539,"Delta":295430592},{"NoteNumber":87,"Velocity":70,"Duration":668539,"SoundDuration":668539,"Delta":295430592},{"NoteNumber":90,"Velocity":70,"Duration":668539,"SoundDuration":668539,"Delta":295430592},{"NoteNumber":60,"Velocity":46,"Duration":668539,"SoundDuration":668539,"Delta":295430592},{"NoteNumber":56,"Velocity":39,"Duration":668539,"SoundDuration":668539,"Delta":295430592},{"NoteNumber":78,"Velocity":64,"Duration":652174,"SoundDuration":652174,"Delta":296104750},{"NoteNumber":87,"Velocity":76,"Duration":652174,"SoundDuration":652174,"Delta":296104750},{"NoteNumber":90,"Velocity":76,"Duration":652174,"SoundDuration":652174,"Delta":296104750},{"NoteNumber":56,"Velocity":42,"Duration":652174,"SoundDuration":652174,"Delta":296104750},{"NoteNumber":60,"Velocity":50,"Duration":652174,"SoundDuration":652174,"Delta":296104750},{"NoteNumber":87,"Velocity":73,"Duration":631578,"SoundDuration":631578,"Delta":296756924},{"NoteNumber":80,"Velocity":62,"Duration":631578,"SoundDuration":631578,"Delta":296756924},{"NoteNumber":78,"Velocity":62,"Duration":631578,"SoundDuration":631578,"Delta":296756924},{"NoteNumber":63,"Velocity":46,"Duration":631578,"SoundDuration":631578,"Delta":296756924},{"NoteNumber":60,"Velocity":39,"Duration":631578,"SoundDuration":631578,"Delta":296756924},{"NoteNumber":85,"Velocity":73,"Duration":652174,"SoundDuration":652174,"Delta":297388503},{"NoteNumber":80,"Velocity":62,"Duration":652174,"SoundDuration":652174,"Delta":297388503},{"NoteNumber":77,"Velocity":62,"Duration":652174,"SoundDuration":652174,"Delta":297388503},{"NoteNumber":65,"Velocity":46,"Duration":652174,"SoundDuration":652174,"Delta":297388503},{"NoteNumber":61,"Velocity":39,"Duration":652174,"SoundDuration":652174,"Delta":297388503},{"NoteNumber":83,"Velocity":73,"Duration":1923775,"SoundDuration":1923775,"Delta":298040677},{"NoteNumber":80,"Velocity":62,"Duration":1263157,"SoundDuration":1263157,"Delta":298040677},{"NoteNumber":77,"Velocity":62,"Duration":1263157,"SoundDuration":1263157,"Delta":298040677},{"NoteNumber":62,"Velocity":50,"Duration":315789,"SoundDuration":315789,"Delta":298040677},{"NoteNumber":65,"Velocity":45,"Duration":315789,"SoundDuration":315789,"Delta":298356466},{"NoteNumber":68,"Velocity":48,"Duration":315789,"SoundDuration":315789,"Delta":298672256},{"NoteNumber":74,"Velocity":51,"Duration":315789,"SoundDuration":315789,"Delta":298988045},{"NoteNumber":80,"Velocity":70,"Duration":289473,"SoundDuration":289473,"Delta":299303835},{"NoteNumber":77,"Velocity":52,"Duration":289473,"SoundDuration":289473,"Delta":299303835},{"NoteNumber":77,"Velocity":67,"Duration":344827,"SoundDuration":344827,"Delta":299619624},{"NoteNumber":80,"Velocity":49,"Duration":344827,"SoundDuration":344827,"Delta":299619624},{"NoteNumber":50,"Velocity":61,"Duration":315789,"SoundDuration":315789,"Delta":299964452},{"NoteNumber":74,"Velocity":46,"Duration":1243823,"SoundDuration":1243823,"Delta":299964452},{"NoteNumber":77,"Velocity":46,"Duration":1243823,"SoundDuration":1243823,"Delta":299964452},{"NoteNumber":80,"Velocity":46,"Duration":1243823,"SoundDuration":1243823,"Delta":299964452},{"NoteNumber":82,"Velocity":55,"Duration":1243823,"SoundDuration":1243823,"Delta":299964452},{"NoteNumber":53,"Velocity":60,"Duration":315789,"SoundDuration":315789,"Delta":300280241},{"NoteNumber":58,"Velocity":62,"Duration":306122,"SoundDuration":306122,"Delta":300596031},{"NoteNumber":62,"Velocity":64,"Duration":306122,"SoundDuration":306122,"Delta":300902153},{"NoteNumber":65,"Velocity":67,"Duration":319148,"SoundDuration":319148,"Delta":301208276},{"NoteNumber":70,"Velocity":69,"Duration":313829,"SoundDuration":313829,"Delta":301527425},{"NoteNumber":70,"Velocity":62,"Duration":1250542,"SoundDuration":1250542,"Delta":301846574},{"NoteNumber":82,"Velocity":73,"Duration":1250542,"SoundDuration":1250542,"Delta":301846574},{"NoteNumber":43,"Velocity":62,"Duration":319148,"SoundDuration":319148,"Delta":301846574},{"NoteNumber":46,"Velocity":50,"Duration":319149,"SoundDuration":319149,"Delta":302165723},{"NoteNumber":51,"Velocity":50,"Duration":306122,"SoundDuration":306122,"Delta":302484872},{"NoteNumber":55,"Velocity":47,"Duration":306122,"SoundDuration":306122,"Delta":302790994},{"NoteNumber":67,"Velocity":56,"Duration":646739,"SoundDuration":646739,"Delta":303097117},{"NoteNumber":79,"Velocity":67,"Duration":646739,"SoundDuration":646739,"Delta":303097117},{"NoteNumber":58,"Velocity":54,"Duration":326086,"SoundDuration":326086,"Delta":303097117},{"NoteNumber":63,"Velocity":45,"Duration":326087,"SoundDuration":326087,"Delta":303423204},{"NoteNumber":67,"Velocity":62,"Duration":625000,"SoundDuration":625000,"Delta":303749291},{"NoteNumber":79,"Velocity":73,"Duration":625000,"SoundDuration":625000,"Delta":303749291},{"NoteNumber":46,"Velocity":53,"Duration":312500,"SoundDuration":312500,"Delta":303749291},{"NoteNumber":51,"Velocity":45,"Duration":312500,"SoundDuration":312500,"Delta":304061791},{"NoteNumber":63,"Velocity":57,"Duration":645161,"SoundDuration":645161,"Delta":304374291},{"NoteNumber":75,"Velocity":68,"Duration":645161,"SoundDuration":645161,"Delta":304374291},{"NoteNumber":55,"Velocity":51,"Duration":322580,"SoundDuration":322580,"Delta":304374291},{"NoteNumber":58,"Velocity":45,"Duration":322580,"SoundDuration":322580,"Delta":304696872},{"NoteNumber":77,"Velocity":68,"Duration":652174,"SoundDuration":652174,"Delta":305019452},{"NoteNumber":70,"Velocity":57,"Duration":652174,"SoundDuration":652174,"Delta":305019452},{"NoteNumber":65,"Velocity":57,"Duration":326086,"SoundDuration":326086,"Delta":305019452},{"NoteNumber":74,"Velocity":57,"Duration":652174,"SoundDuration":652174,"Delta":305019452},{"NoteNumber":56,"Velocity":45,"Duration":326086,"SoundDuration":326086,"Delta":305019452},{"NoteNumber":68,"Velocity":68,"Duration":326087,"SoundDuration":326087,"Delta":305345539},{"NoteNumber":53,"Velocity":45,"Duration":326087,"SoundDuration":326087,"Delta":305345539},{"NoteNumber":79,"Velocity":73,"Duration":1276595,"SoundDuration":1276595,"Delta":305671626},{"NoteNumber":67,"Velocity":62,"Duration":1276595,"SoundDuration":1276595,"Delta":305671626},{"NoteNumber":70,"Velocity":62,"Duration":1276595,"SoundDuration":1276595,"Delta":305671626},{"NoteNumber":75,"Velocity":62,"Duration":1276595,"SoundDuration":1276595,"Delta":305671626},{"NoteNumber":51,"Velocity":55,"Duration":319148,"SoundDuration":319148,"Delta":305671626},{"NoteNumber":55,"Velocity":49,"Duration":319149,"SoundDuration":319149,"Delta":305990775},{"NoteNumber":58,"Velocity":49,"Duration":319148,"SoundDuration":319148,"Delta":306309924},{"NoteNumber":63,"Velocity":49,"Duration":319148,"SoundDuration":319148,"Delta":306629073},{"NoteNumber":83,"Velocity":73,"Duration":659340,"SoundDuration":659340,"Delta":306948222},{"NoteNumber":71,"Velocity":62,"Duration":659340,"SoundDuration":659340,"Delta":306948222},{"NoteNumber":44,"Velocity":54,"Duration":329670,"SoundDuration":329670,"Delta":306948222},{"NoteNumber":56,"Velocity":47,"Duration":329670,"SoundDuration":329670,"Delta":307277893},{"NoteNumber":80,"Velocity":75,"Duration":1263298,"SoundDuration":1263298,"Delta":307607563},{"NoteNumber":68,"Velocity":63,"Duration":1263298,"SoundDuration":1263298,"Delta":307607563},{"NoteNumber":47,"Velocity":54,"Duration":319148,"SoundDuration":319148,"Delta":307607563},{"NoteNumber":51,"Velocity":48,"Duration":319149,"SoundDuration":319149,"Delta":307926712},{"NoteNumber":56,"Velocity":51,"Duration":312500,"SoundDuration":312500,"Delta":308245861},{"NoteNumber":59,"Velocity":45,"Duration":312500,"SoundDuration":312500,"Delta":308558361},{"NoteNumber":77,"Velocity":68,"Duration":652174,"SoundDuration":652174,"Delta":308870861},{"NoteNumber":65,"Velocity":57,"Duration":652174,"SoundDuration":652174,"Delta":308870861},{"NoteNumber":49,"Velocity":45,"Duration":326086,"SoundDuration":326086,"Delta":308870861},{"NoteNumber":61,"Velocity":45,"Duration":326087,"SoundDuration":326087,"Delta":309196948},{"NoteNumber":85,"Velocity":84,"Duration":1283752,"SoundDuration":1283752,"Delta":309523035},{"NoteNumber":73,"Velocity":71,"Duration":1283752,"SoundDuration":1283752,"Delta":309523035},{"NoteNumber":46,"Velocity":65,"Duration":326086,"SoundDuration":326086,"Delta":309523035},{"NoteNumber":49,"Velocity":42,"Duration":326087,"SoundDuration":326087,"Delta":309849122},{"NoteNumber":54,"Velocity":51,"Duration":315789,"SoundDuration":315789,"Delta":310175209},{"NoteNumber":58,"Velocity":46,"Duration":315789,"SoundDuration":315789,"Delta":310490998},{"NoteNumber":70,"Velocity":66,"Duration":674157,"SoundDuration":674157,"Delta":310806788},{"NoteNumber":82,"Velocity":78,"Duration":674157,"SoundDuration":674157,"Delta":310806788},{"NoteNumber":49,"Velocity":58,"Duration":337078,"SoundDuration":337078,"Delta":310806788},{"NoteNumber":61,"Velocity":46,"Duration":337078,"SoundDuration":337078,"Delta":311143867},{"NoteNumber":79,"Velocity":81,"Duration":1263157,"SoundDuration":1263157,"Delta":311480945},{"NoteNumber":67,"Velocity":68,"Duration":1263157,"SoundDuration":1263157,"Delta":311480945},{"NoteNumber":51,"Velocity":58,"Duration":315789,"SoundDuration":315789,"Delta":311480945},{"NoteNumber":55,"Velocity":47,"Duration":315789,"SoundDuration":315789,"Delta":311796735},{"NoteNumber":58,"Velocity":55,"Duration":315789,"SoundDuration":315789,"Delta":312112524},{"NoteNumber":61,"Velocity":47,"Duration":315789,"SoundDuration":315789,"Delta":312428314},{"NoteNumber":75,"Velocity":54,"Duration":659340,"SoundDuration":659340,"Delta":312744103},{"NoteNumber":55,"Velocity":30,"Duration":329670,"SoundDuration":329670,"Delta":312744103},{"NoteNumber":63,"Velocity":27,"Duration":329670,"SoundDuration":329670,"Delta":313073774},{"NoteNumber":67,"Velocity":33,"Duration":329670,"SoundDuration":329670,"Delta":313073774},{"NoteNumber":58,"Velocity":30,"Duration":329670,"SoundDuration":329670,"Delta":313073774},{"NoteNumber":63,"Velocity":39,"Duration":638298,"SoundDuration":638298,"Delta":313403444},{"NoteNumber":71,"Velocity":46,"Duration":1269877,"SoundDuration":1269877,"Delta":313403444},{"NoteNumber":68,"Velocity":39,"Duration":638298,"SoundDuration":638298,"Delta":313403444},{"NoteNumber":56,"Velocity":39,"Duration":319148,"SoundDuration":319148,"Delta":313403444},{"NoteNumber":59,"Velocity":26,"Duration":319149,"SoundDuration":319149,"Delta":313722593},{"NoteNumber":63,"Velocity":26,"Duration":315789,"SoundDuration":315789,"Delta":314041742},{"NoteNumber":68,"Velocity":26,"Duration":310526,"SoundDuration":310526,"Delta":314357531},{"NoteNumber":68,"Velocity":52,"Duration":659340,"SoundDuration":659340,"Delta":314673321},{"NoteNumber":60,"Velocity":31,"Duration":329670,"SoundDuration":329670,"Delta":314673321},{"NoteNumber":63,"Velocity":31,"Duration":329670,"SoundDuration":329670,"Delta":315002991},{"NoteNumber":76,"Velocity":58,"Duration":1270161,"SoundDuration":1270161,"Delta":315332661},{"NoteNumber":61,"Velocity":40,"Duration":322580,"SoundDuration":322580,"Delta":315332661},{"NoteNumber":64,"Velocity":34,"Duration":322580,"SoundDuration":322580,"Delta":315655242},{"NoteNumber":68,"Velocity":34,"Duration":312500,"SoundDuration":312500,"Delta":315977823},{"NoteNumber":73,"Velocity":29,"Duration":307291,"SoundDuration":307291,"Delta":316290323},{"NoteNumber":73,"Velocity":56,"Duration":666666,"SoundDuration":666666,"Delta":316602823},{"NoteNumber":65,"Velocity":34,"Duration":333333,"SoundDuration":333333,"Delta":316602823},{"NoteNumber":68,"Velocity":31,"Duration":333333,"SoundDuration":333333,"Delta":316936156},{"NoteNumber":70,"Velocity":60,"Duration":1269877,"SoundDuration":1269877,"Delta":317269489},{"NoteNumber":54,"Velocity":39,"Duration":319148,"SoundDuration":319148,"Delta":317269489},{"NoteNumber":58,"Velocity":31,"Duration":319149,"SoundDuration":319149,"Delta":317588638},{"NoteNumber":61,"Velocity":31,"Duration":315789,"SoundDuration":315789,"Delta":317907787},{"NoteNumber":66,"Velocity":45,"Duration":315789,"SoundDuration":315789,"Delta":318223577},{"NoteNumber":78,"Velocity":68,"Duration":659340,"SoundDuration":659340,"Delta":318539366},{"NoteNumber":90,"Velocity":80,"Duration":659340,"SoundDuration":659340,"Delta":318539366},{"NoteNumber":39,"Velocity":59,"Duration":329670,"SoundDuration":329670,"Delta":318539366},{"NoteNumber":51,"Velocity":52,"Duration":329670,"SoundDuration":329670,"Delta":318869037},{"NoteNumber":75,"Velocity":73,"Duration":1270161,"SoundDuration":1270161,"Delta":319198707},{"NoteNumber":87,"Velocity":87,"Duration":1270161,"SoundDuration":1270161,"Delta":319198707},{"NoteNumber":42,"Velocity":58,"Duration":322580,"SoundDuration":322580,"Delta":319198707},{"NoteNumber":46,"Velocity":49,"Duration":322580,"SoundDuration":322580,"Delta":319521288},{"NoteNumber":51,"Velocity":57,"Duration":312500,"SoundDuration":312500,"Delta":319843868},{"NoteNumber":54,"Velocity":49,"Duration":312500,"SoundDuration":312500,"Delta":320156368},{"NoteNumber":72,"Velocity":70,"Duration":666666,"SoundDuration":666666,"Delta":320468868},{"NoteNumber":84,"Velocity":83,"Duration":666666,"SoundDuration":666666,"Delta":320468868},{"NoteNumber":44,"Velocity":53,"Duration":333333,"SoundDuration":333333,"Delta":320468868},{"NoteNumber":56,"Velocity":49,"Duration":333333,"SoundDuration":333333,"Delta":320802202},{"NoteNumber":80,"Velocity":74,"Duration":1269877,"SoundDuration":1269877,"Delta":321135535},{"NoteNumber":92,"Velocity":87,"Duration":1269877,"SoundDuration":1269877,"Delta":321135535},{"NoteNumber":40,"Velocity":59,"Duration":319148,"SoundDuration":319148,"Delta":321135535},{"NoteNumber":44,"Velocity":51,"Duration":319149,"SoundDuration":319149,"Delta":321454684},{"NoteNumber":49,"Velocity":52,"Duration":315789,"SoundDuration":315789,"Delta":321773833},{"NoteNumber":52,"Velocity":50,"Duration":315789,"SoundDuration":315789,"Delta":322089622},{"NoteNumber":76,"Velocity":68,"Duration":659340,"SoundDuration":659340,"Delta":322405412},{"NoteNumber":88,"Velocity":80,"Duration":659340,"SoundDuration":659340,"Delta":322405412},{"NoteNumber":44,"Velocity":50,"Duration":329670,"SoundDuration":329670,"Delta":322405412},{"NoteNumber":56,"Velocity":45,"Duration":329670,"SoundDuration":329670,"Delta":322735082},{"NoteNumber":73,"Velocity":73,"Duration":1270161,"SoundDuration":1270161,"Delta":323064752},{"NoteNumber":85,"Velocity":87,"Duration":1270161,"SoundDuration":1270161,"Delta":323064752},{"NoteNumber":45,"Velocity":54,"Duration":322580,"SoundDuration":322580,"Delta":323064752},{"NoteNumber":49,"Velocity":49,"Duration":322580,"SoundDuration":322580,"Delta":323387333},{"NoteNumber":52,"Velocity":49,"Duration":312500,"SoundDuration":312500,"Delta":323709914},{"NoteNumber":57,"Velocity":49,"Duration":307291,"SoundDuration":307291,"Delta":324022414},{"NoteNumber":57,"Velocity":45,"Duration":666666,"SoundDuration":666666,"Delta":324334914},{"NoteNumber":69,"Velocity":53,"Duration":666666,"SoundDuration":666666,"Delta":324334914},{"NoteNumber":49,"Velocity":37,"Duration":333333,"SoundDuration":333333,"Delta":324334914},{"NoteNumber":61,"Velocity":34,"Duration":333333,"SoundDuration":333333,"Delta":324668247},{"NoteNumber":57,"Velocity":43,"Duration":625000,"SoundDuration":625000,"Delta":325001580},{"NoteNumber":66,"Velocity":51,"Duration":1269877,"SoundDuration":1269877,"Delta":325001580},{"NoteNumber":51,"Velocity":39,"Duration":1269877,"SoundDuration":1269877,"Delta":325001580},{"NoteNumber":54,"Velocity":31,"Duration":950728,"SoundDuration":950728,"Delta":325320729},{"NoteNumber":58,"Velocity":31,"Duration":315789,"SoundDuration":315789,"Delta":325639878},{"NoteNumber":63,"Velocity":31,"Duration":310526,"SoundDuration":310526,"Delta":325955668},{"NoteNumber":63,"Velocity":56,"Duration":659340,"SoundDuration":659340,"Delta":326271457},{"NoteNumber":55,"Velocity":35,"Duration":329670,"SoundDuration":329670,"Delta":326271457},{"NoteNumber":58,"Velocity":31,"Duration":329670,"SoundDuration":329670,"Delta":326601128},{"NoteNumber":83,"Velocity":63,"Duration":1270161,"SoundDuration":1270161,"Delta":326930798},{"NoteNumber":56,"Velocity":37,"Duration":322580,"SoundDuration":322580,"Delta":326930798},{"NoteNumber":59,"Velocity":34,"Duration":322580,"SoundDuration":322580,"Delta":327253379},{"NoteNumber":63,"Velocity":34,"Duration":312500,"SoundDuration":312500,"Delta":327575959},{"NoteNumber":68,"Velocity":34,"Duration":312500,"SoundDuration":312500,"Delta":327888459},{"NoteNumber":80,"Velocity":53,"Duration":666666,"SoundDuration":666666,"Delta":328200959},{"NoteNumber":60,"Velocity":37,"Duration":333333,"SoundDuration":333333,"Delta":328200959},{"NoteNumber":63,"Velocity":34,"Duration":333333,"SoundDuration":333333,"Delta":328534293},{"NoteNumber":77,"Velocity":51,"Duration":1269877,"SoundDuration":1269877,"Delta":328867626},{"NoteNumber":61,"Velocity":41,"Duration":319148,"SoundDuration":319148,"Delta":328867626},{"NoteNumber":65,"Velocity":31,"Duration":319149,"SoundDuration":319149,"Delta":329186775},{"NoteNumber":68,"Velocity":31,"Duration":315789,"SoundDuration":315789,"Delta":329505924},{"NoteNumber":73,"Velocity":31,"Duration":310526,"SoundDuration":310526,"Delta":329821713},{"NoteNumber":85,"Velocity":59,"Duration":659340,"SoundDuration":659340,"Delta":330137503},{"NoteNumber":73,"Velocity":54,"Duration":659340,"SoundDuration":659340,"Delta":330137503},{"NoteNumber":65,"Velocity":42,"Duration":329670,"SoundDuration":329670,"Delta":330137503},{"NoteNumber":68,"Velocity":36,"Duration":329670,"SoundDuration":329670,"Delta":330467173},{"NoteNumber":81,"Velocity":60,"Duration":1270161,"SoundDuration":1270161,"Delta":330796843},{"NoteNumber":73,"Velocity":51,"Duration":322580,"SoundDuration":322580,"Delta":330796843},{"NoteNumber":66,"Velocity":42,"Duration":322580,"SoundDuration":322580,"Delta":330796843},{"NoteNumber":78,"Velocity":51,"Duration":629872,"SoundDuration":629872,"Delta":331119424},{"NoteNumber":69,"Velocity":34,"Duration":322580,"SoundDuration":322580,"Delta":331119424},{"NoteNumber":73,"Velocity":34,"Duration":312500,"SoundDuration":312500,"Delta":331442005},{"NoteNumber":69,"Velocity":51,"Duration":312500,"SoundDuration":312500,"Delta":331754505},{"NoteNumber":78,"Velocity":34,"Duration":312500,"SoundDuration":312500,"Delta":331754505},{"NoteNumber":86,"Velocity":56,"Duration":666666,"SoundDuration":666666,"Delta":332067005},{"NoteNumber":74,"Velocity":50,"Duration":666666,"SoundDuration":666666,"Delta":332067005},{"NoteNumber":59,"Velocity":37,"Duration":333333,"SoundDuration":333333,"Delta":332067005},{"NoteNumber":71,"Velocity":34,"Duration":327777,"SoundDuration":327777,"Delta":332400338},{"NoteNumber":59,"Velocity":34,"Duration":333333,"SoundDuration":333333,"Delta":332400338},{"NoteNumber":83,"Velocity":56,"Duration":1333332,"SoundDuration":1333332,"Delta":332733671},{"NoteNumber":71,"Velocity":47,"Duration":1333332,"SoundDuration":1333332,"Delta":332733671},{"NoteNumber":56,"Velocity":28,"Duration":333333,"SoundDuration":333333,"Delta":333067005},{"NoteNumber":68,"Velocity":33,"Duration":333333,"SoundDuration":333333,"Delta":333067005},{"NoteNumber":65,"Velocity":33,"Duration":333333,"SoundDuration":333333,"Delta":333733671},{"NoteNumber":53,"Velocity":28,"Duration":333333,"SoundDuration":333333,"Delta":333733671},{"NoteNumber":68,"Velocity":42,"Duration":666666,"SoundDuration":666666,"Delta":334067004},{"NoteNumber":80,"Velocity":50,"Duration":666666,"SoundDuration":666666,"Delta":334067004},{"NoteNumber":77,"Velocity":46,"Duration":1332203,"SoundDuration":1332203,"Delta":334733671},{"NoteNumber":65,"Velocity":39,"Duration":1332203,"SoundDuration":1332203,"Delta":334733671},{"NoteNumber":61,"Velocity":30,"Duration":331654,"SoundDuration":331654,"Delta":335063402},{"NoteNumber":49,"Velocity":25,"Duration":331654,"SoundDuration":331654,"Delta":335063402},{"NoteNumber":37,"Velocity":25,"Duration":337078,"SoundDuration":337078,"Delta":335728796},{"NoteNumber":49,"Velocity":30,"Duration":337078,"SoundDuration":337078,"Delta":335728796},{"NoteNumber":74,"Velocity":44,"Duration":675675,"SoundDuration":675675,"Delta":336065874},{"NoteNumber":65,"Velocity":37,"Duration":675675,"SoundDuration":675675,"Delta":336065874},{"NoteNumber":68,"Velocity":37,"Duration":675675,"SoundDuration":675675,"Delta":336065874},{"NoteNumber":71,"Velocity":37,"Duration":675675,"SoundDuration":675675,"Delta":336065874},{"NoteNumber":71,"Velocity":39,"Duration":1364942,"SoundDuration":1364942,"Delta":336747297},{"NoteNumber":65,"Velocity":27,"Duration":1364942,"SoundDuration":1364942,"Delta":336747297},{"NoteNumber":62,"Velocity":27,"Duration":1364942,"SoundDuration":1364942,"Delta":336747297},{"NoteNumber":68,"Velocity":27,"Duration":1364942,"SoundDuration":1364942,"Delta":336747297},{"NoteNumber":37,"Velocity":22,"Duration":344827,"SoundDuration":344827,"Delta":337092125},{"NoteNumber":49,"Velocity":26,"Duration":344827,"SoundDuration":344827,"Delta":337092125},{"NoteNumber":37,"Velocity":25,"Duration":344827,"SoundDuration":344827,"Delta":337781780},{"NoteNumber":68,"Velocity":36,"Duration":683907,"SoundDuration":683907,"Delta":338126607},{"NoteNumber":59,"Velocity":25,"Duration":683907,"SoundDuration":683907,"Delta":338126607},{"NoteNumber":62,"Velocity":25,"Duration":683907,"SoundDuration":683907,"Delta":338126607},{"NoteNumber":65,"Velocity":25,"Duration":683907,"SoundDuration":683907,"Delta":338126607},{"NoteNumber":65,"Velocity":34,"Duration":1439962,"SoundDuration":1439962,"Delta":338816262},{"NoteNumber":56,"Velocity":24,"Duration":1439962,"SoundDuration":1439962,"Delta":338816262},{"NoteNumber":59,"Velocity":24,"Duration":1439962,"SoundDuration":1439962,"Delta":338816262},{"NoteNumber":62,"Velocity":24,"Duration":1439962,"SoundDuration":1439962,"Delta":338816262},{"NoteNumber":37,"Velocity":22,"Duration":358525,"SoundDuration":358525,"Delta":339164515},{"NoteNumber":37,"Velocity":21,"Duration":380219,"SoundDuration":380219,"Delta":339892031},{"NoteNumber":62,"Velocity":30,"Duration":942181,"SoundDuration":942181,"Delta":340272251},{"NoteNumber":53,"Velocity":21,"Duration":942181,"SoundDuration":942181,"Delta":340272251},{"NoteNumber":56,"Velocity":21,"Duration":942181,"SoundDuration":942181,"Delta":340272251},{"NoteNumber":59,"Velocity":21,"Duration":942181,"SoundDuration":942181,"Delta":340272251},{"NoteNumber":37,"Velocity":21,"Duration":779137,"SoundDuration":779137,"Delta":340272251},{"NoteNumber":37,"Velocity":30,"Duration":646739,"SoundDuration":646739,"Delta":341051388},{"NoteNumber":59,"Velocity":30,"Duration":163043,"SoundDuration":163043,"Delta":341214432},{"NoteNumber":56,"Velocity":30,"Duration":163043,"SoundDuration":163043,"Delta":341377475},{"NoteNumber":53,"Velocity":30,"Duration":163043,"SoundDuration":163043,"Delta":341540519},{"NoteNumber":50,"Velocity":30,"Duration":163043,"SoundDuration":163043,"Delta":341703562},{"NoteNumber":37,"Velocity":24,"Duration":645293,"SoundDuration":645293,"Delta":341703562},{"NoteNumber":47,"Velocity":30,"Duration":163043,"SoundDuration":163043,"Delta":341866606},{"NoteNumber":44,"Velocity":30,"Duration":163043,"SoundDuration":163043,"Delta":342029649},{"NoteNumber":47,"Velocity":30,"Duration":161482,"SoundDuration":161482,"Delta":342192693},{"NoteNumber":50,"Velocity":35,"Duration":159574,"SoundDuration":159574,"Delta":342354175},{"NoteNumber":44,"Velocity":24,"Duration":633979,"SoundDuration":633979,"Delta":342354175},{"NoteNumber":37,"Velocity":20,"Duration":633979,"SoundDuration":633979,"Delta":342354175},{"NoteNumber":53,"Velocity":30,"Duration":159574,"SoundDuration":159574,"Delta":342513750},{"NoteNumber":56,"Velocity":30,"Duration":159574,"SoundDuration":159574,"Delta":342673324},{"NoteNumber":59,"Velocity":30,"Duration":160632,"SoundDuration":160632,"Delta":342832899},{"NoteNumber":59,"Velocity":30,"Duration":161290,"SoundDuration":161290,"Delta":342993532},{"NoteNumber":62,"Velocity":36,"Duration":161290,"SoundDuration":161290,"Delta":342993532},{"NoteNumber":37,"Velocity":20,"Duration":641625,"SoundDuration":641625,"Delta":342993532},{"NoteNumber":44,"Velocity":24,"Duration":641625,"SoundDuration":641625,"Delta":342993532},{"NoteNumber":65,"Velocity":30,"Duration":161290,"SoundDuration":161290,"Delta":343154822},{"NoteNumber":68,"Velocity":30,"Duration":161436,"SoundDuration":161436,"Delta":343316112},{"NoteNumber":71,"Velocity":30,"Duration":163043,"SoundDuration":163043,"Delta":343477549},{"NoteNumber":74,"Velocity":35,"Duration":170454,"SoundDuration":170454,"Delta":343640592},{"NoteNumber":71,"Velocity":29,"Duration":170454,"SoundDuration":170454,"Delta":343640592},{"NoteNumber":37,"Velocity":20,"Duration":696646,"SoundDuration":696646,"Delta":343640592},{"NoteNumber":44,"Velocity":24,"Duration":696646,"SoundDuration":696646,"Delta":343640592},{"NoteNumber":77,"Velocity":30,"Duration":170454,"SoundDuration":170454,"Delta":343811047},{"NoteNumber":80,"Velocity":30,"Duration":170454,"SoundDuration":170454,"Delta":343981501},{"NoteNumber":83,"Velocity":30,"Duration":191306,"SoundDuration":191306,"Delta":344151956},{"NoteNumber":81,"Velocity":22,"Duration":699247,"SoundDuration":699247,"Delta":344343263},{"NoteNumber":86,"Velocity":32,"Duration":179289,"SoundDuration":179289,"Delta":344343263},{"NoteNumber":30,"Velocity":20,"Duration":693629,"SoundDuration":693629,"Delta":344343263},{"NoteNumber":37,"Velocity":20,"Duration":693629,"SoundDuration":693629,"Delta":344343263},{"NoteNumber":42,"Velocity":24,"Duration":693629,"SoundDuration":693629,"Delta":344343263},{"NoteNumber":84,"Velocity":28,"Duration":175718,"SoundDuration":175718,"Delta":344522552},{"NoteNumber":86,"Velocity":28,"Duration":173583,"SoundDuration":173583,"Delta":344698270},{"NoteNumber":85,"Velocity":28,"Duration":170656,"SoundDuration":170656,"Delta":344871854},{"NoteNumber":81,"Velocity":24,"Duration":674157,"SoundDuration":674157,"Delta":345042510},{"NoteNumber":86,"Velocity":35,"Duration":168539,"SoundDuration":168539,"Delta":345042510},{"NoteNumber":30,"Velocity":20,"Duration":668539,"SoundDuration":668539,"Delta":345042510},{"NoteNumber":37,"Velocity":20,"Duration":668539,"SoundDuration":668539,"Delta":345042510},{"NoteNumber":42,"Velocity":24,"Duration":668539,"SoundDuration":668539,"Delta":345042510},{"NoteNumber":73,"Velocity":24,"Duration":168539,"SoundDuration":168539,"Delta":345211049},{"NoteNumber":86,"Velocity":28,"Duration":168539,"SoundDuration":168539,"Delta":345379589},{"NoteNumber":85,"Velocity":28,"Duration":168539,"SoundDuration":168539,"Delta":345548128},{"NoteNumber":73,"Velocity":22,"Duration":168539,"SoundDuration":168539,"Delta":345716667},{"NoteNumber":81,"Velocity":32,"Duration":674157,"SoundDuration":674157,"Delta":345716667},{"NoteNumber":37,"Velocity":20,"Duration":668539,"SoundDuration":668539,"Delta":345716667},{"NoteNumber":42,"Velocity":20,"Duration":668539,"SoundDuration":668539,"Delta":345716667},{"NoteNumber":49,"Velocity":24,"Duration":668539,"SoundDuration":668539,"Delta":345716667},{"NoteNumber":85,"Velocity":28,"Duration":168539,"SoundDuration":168539,"Delta":345885207},{"NoteNumber":86,"Velocity":28,"Duration":168539,"SoundDuration":168539,"Delta":346053746},{"NoteNumber":85,"Velocity":28,"Duration":168539,"SoundDuration":168539,"Delta":346222285},{"NoteNumber":83,"Velocity":28,"Duration":168539,"SoundDuration":168539,"Delta":346390825},{"NoteNumber":37,"Velocity":20,"Duration":693929,"SoundDuration":693929,"Delta":346390825},{"NoteNumber":42,"Velocity":20,"Duration":693929,"SoundDuration":693929,"Delta":346390825},{"NoteNumber":49,"Velocity":24,"Duration":693929,"SoundDuration":693929,"Delta":346390825},{"NoteNumber":69,"Velocity":24,"Duration":168539,"SoundDuration":168539,"Delta":346559364},{"NoteNumber":83,"Velocity":28,"Duration":168539,"SoundDuration":168539,"Delta":346727904},{"NoteNumber":81,"Velocity":26,"Duration":194805,"SoundDuration":194805,"Delta":346896443},{"NoteNumber":69,"Velocity":28,"Duration":164835,"SoundDuration":164835,"Delta":347091248},{"NoteNumber":37,"Velocity":20,"Duration":653845,"SoundDuration":653845,"Delta":347091248},{"NoteNumber":42,"Velocity":20,"Duration":653845,"SoundDuration":653845,"Delta":347091248},{"NoteNumber":49,"Velocity":24,"Duration":653845,"SoundDuration":653845,"Delta":347091248},{"NoteNumber":81,"Velocity":28,"Duration":164835,"SoundDuration":164835,"Delta":347256083},{"NoteNumber":83,"Velocity":28,"Duration":164835,"SoundDuration":164835,"Delta":347420918},{"NoteNumber":81,"Velocity":28,"Duration":164835,"SoundDuration":164835,"Delta":347585754},{"NoteNumber":80,"Velocity":34,"Duration":168539,"SoundDuration":168539,"Delta":347750589},{"NoteNumber":37,"Velocity":20,"Duration":686868,"SoundDuration":686868,"Delta":347750589},{"NoteNumber":42,"Velocity":20,"Duration":686868,"SoundDuration":686868,"Delta":347750589},{"NoteNumber":49,"Velocity":24,"Duration":686868,"SoundDuration":686868,"Delta":347750589},{"NoteNumber":66,"Velocity":24,"Duration":168539,"SoundDuration":168539,"Delta":347919128},{"NoteNumber":80,"Velocity":28,"Duration":168539,"SoundDuration":168539,"Delta":348087667},{"NoteNumber":78,"Velocity":28,"Duration":187500,"SoundDuration":187500,"Delta":348256207},{"NoteNumber":68,"Velocity":28,"Duration":164835,"SoundDuration":164835,"Delta":348443707},{"NoteNumber":37,"Velocity":20,"Duration":653845,"SoundDuration":653845,"Delta":348443707},{"NoteNumber":41,"Velocity":20,"Duration":653845,"SoundDuration":653845,"Delta":348443707},{"NoteNumber":49,"Velocity":24,"Duration":653845,"SoundDuration":653845,"Delta":348443707},{"NoteNumber":80,"Velocity":28,"Duration":164835,"SoundDuration":164835,"Delta":348608542},{"NoteNumber":81,"Velocity":26,"Duration":164835,"SoundDuration":164835,"Delta":348773377},{"NoteNumber":80,"Velocity":26,"Duration":164835,"SoundDuration":164835,"Delta":348938212},{"NoteNumber":69,"Velocity":31,"Duration":164835,"SoundDuration":164835,"Delta":349103047},{"NoteNumber":37,"Velocity":28,"Duration":659279,"SoundDuration":659279,"Delta":349103047},{"NoteNumber":42,"Velocity":28,"Duration":659279,"SoundDuration":659279,"Delta":349103047},{"NoteNumber":49,"Velocity":34,"Duration":659279,"SoundDuration":659279,"Delta":349103047},{"NoteNumber":81,"Velocity":31,"Duration":166666,"SoundDuration":166666,"Delta":349267882},{"NoteNumber":83,"Velocity":29,"Duration":166666,"SoundDuration":166666,"Delta":349434549},{"NoteNumber":81,"Velocity":30,"Duration":166666,"SoundDuration":166666,"Delta":349601216},{"NoteNumber":83,"Velocity":39,"Duration":166666,"SoundDuration":166666,"Delta":349767882},{"NoteNumber":37,"Velocity":23,"Duration":661110,"SoundDuration":661110,"Delta":349767882},{"NoteNumber":42,"Velocity":23,"Duration":661110,"SoundDuration":661110,"Delta":349767882},{"NoteNumber":49,"Velocity":27,"Duration":661110,"SoundDuration":661110,"Delta":349767882},{"NoteNumber":70,"Velocity":28,"Duration":166666,"SoundDuration":166666,"Delta":349934549},{"NoteNumber":83,"Velocity":35,"Duration":166666,"SoundDuration":166666,"Delta":350101216},{"NoteNumber":82,"Velocity":35,"Duration":166666,"SoundDuration":166666,"Delta":350267882},{"NoteNumber":71,"Velocity":36,"Duration":166666,"SoundDuration":166666,"Delta":350434549},{"NoteNumber":38,"Velocity":24,"Duration":661110,"SoundDuration":661110,"Delta":350434549},{"NoteNumber":42,"Velocity":24,"Duration":661110,"SoundDuration":661110,"Delta":350434549},{"NoteNumber":50,"Velocity":28,"Duration":661110,"SoundDuration":661110,"Delta":350434549},{"NoteNumber":83,"Velocity":37,"Duration":166666,"SoundDuration":166666,"Delta":350601215},{"NoteNumber":85,"Velocity":37,"Duration":166666,"SoundDuration":166666,"Delta":350767882},{"NoteNumber":83,"Velocity":38,"Duration":166666,"SoundDuration":166666,"Delta":350934549},{"NoteNumber":85,"Velocity":49,"Duration":166666,"SoundDuration":166666,"Delta":351101215},{"NoteNumber":38,"Velocity":25,"Duration":661110,"SoundDuration":661110,"Delta":351101215},{"NoteNumber":42,"Velocity":25,"Duration":661110,"SoundDuration":661110,"Delta":351101215},{"NoteNumber":50,"Velocity":30,"Duration":661110,"SoundDuration":661110,"Delta":351101215},{"NoteNumber":83,"Velocity":40,"Duration":166666,"SoundDuration":166666,"Delta":351267882},{"NoteNumber":71,"Velocity":34,"Duration":166666,"SoundDuration":166666,"Delta":351434549},{"NoteNumber":83,"Velocity":42,"Duration":166666,"SoundDuration":166666,"Delta":351601215},{"NoteNumber":71,"Velocity":42,"Duration":166666,"SoundDuration":166666,"Delta":351767882},{"NoteNumber":38,"Velocity":26,"Duration":688311,"SoundDuration":688311,"Delta":351767882},{"NoteNumber":42,"Velocity":26,"Duration":688311,"SoundDuration":688311,"Delta":351767882},{"NoteNumber":50,"Velocity":31,"Duration":688311,"SoundDuration":688311,"Delta":351767882},{"NoteNumber":83,"Velocity":44,"Duration":166666,"SoundDuration":166666,"Delta":351934548},{"NoteNumber":85,"Velocity":42,"Duration":166666,"SoundDuration":166666,"Delta":352101215},{"NoteNumber":83,"Velocity":42,"Duration":194805,"SoundDuration":194805,"Delta":352267882},{"NoteNumber":88,"Velocity":55,"Duration":168539,"SoundDuration":168539,"Delta":352462687},{"NoteNumber":35,"Velocity":27,"Duration":668539,"SoundDuration":668539,"Delta":352462687},{"NoteNumber":42,"Velocity":27,"Duration":668539,"SoundDuration":668539,"Delta":352462687},{"NoteNumber":47,"Velocity":32,"Duration":668539,"SoundDuration":668539,"Delta":352462687},{"NoteNumber":86,"Velocity":46,"Duration":168539,"SoundDuration":168539,"Delta":352631226},{"NoteNumber":74,"Velocity":40,"Duration":168539,"SoundDuration":168539,"Delta":352799766},{"NoteNumber":86,"Velocity":48,"Duration":168539,"SoundDuration":168539,"Delta":352968305},{"NoteNumber":74,"Velocity":50,"Duration":163043,"SoundDuration":163043,"Delta":353136844},{"NoteNumber":35,"Velocity":29,"Duration":646739,"SoundDuration":646739,"Delta":353136844},{"NoteNumber":42,"Velocity":29,"Duration":646739,"SoundDuration":646739,"Delta":353136844},{"NoteNumber":47,"Velocity":35,"Duration":646739,"SoundDuration":646739,"Delta":353136844},{"NoteNumber":86,"Velocity":50,"Duration":163043,"SoundDuration":163043,"Delta":353299888},{"NoteNumber":88,"Velocity":51,"Duration":163043,"SoundDuration":163043,"Delta":353462931},{"NoteNumber":86,"Velocity":51,"Duration":163043,"SoundDuration":163043,"Delta":353625975},{"NoteNumber":88,"Velocity":60,"Duration":164835,"SoundDuration":164835,"Delta":353789018},{"NoteNumber":47,"Velocity":29,"Duration":678049,"SoundDuration":678049,"Delta":353789018},{"NoteNumber":54,"Velocity":29,"Duration":678049,"SoundDuration":678049,"Delta":353789018},{"NoteNumber":59,"Velocity":34,"Duration":678049,"SoundDuration":678049,"Delta":353789018},{"NoteNumber":86,"Velocity":43,"Duration":164835,"SoundDuration":164835,"Delta":353953854},{"NoteNumber":74,"Velocity":52,"Duration":164835,"SoundDuration":164835,"Delta":354118689},{"NoteNumber":86,"Velocity":53,"Duration":189873,"SoundDuration":189873,"Delta":354283524},{"NoteNumber":73,"Velocity":52,"Duration":168539,"SoundDuration":168539,"Delta":354473397},{"NoteNumber":45,"Velocity":30,"Duration":668539,"SoundDuration":668539,"Delta":354473397},{"NoteNumber":54,"Velocity":30,"Duration":668539,"SoundDuration":668539,"Delta":354473397},{"NoteNumber":57,"Velocity":36,"Duration":668539,"SoundDuration":668539,"Delta":354473397},{"NoteNumber":85,"Velocity":54,"Duration":168539,"SoundDuration":168539,"Delta":354641937},{"NoteNumber":86,"Velocity":54,"Duration":168539,"SoundDuration":168539,"Delta":354810476},{"NoteNumber":85,"Velocity":55,"Duration":168539,"SoundDuration":168539,"Delta":354979015},{"NoteNumber":86,"Velocity":68,"Duration":168539,"SoundDuration":168539,"Delta":355147555},{"NoteNumber":45,"Velocity":31,"Duration":668539,"SoundDuration":668539,"Delta":355147555},{"NoteNumber":54,"Velocity":31,"Duration":668539,"SoundDuration":668539,"Delta":355147555},{"NoteNumber":57,"Velocity":37,"Duration":668539,"SoundDuration":668539,"Delta":355147555},{"NoteNumber":85,"Velocity":56,"Duration":168539,"SoundDuration":168539,"Delta":355316094},{"NoteNumber":73,"Velocity":47,"Duration":168539,"SoundDuration":168539,"Delta":355484633},{"NoteNumber":85,"Velocity":56,"Duration":168539,"SoundDuration":168539,"Delta":355653173},{"NoteNumber":77,"Velocity":43,"Duration":166666,"SoundDuration":166666,"Delta":355821712},{"NoteNumber":83,"Velocity":57,"Duration":166666,"SoundDuration":166666,"Delta":355821712},{"NoteNumber":44,"Velocity":32,"Duration":681249,"SoundDuration":681249,"Delta":355821712},{"NoteNumber":49,"Velocity":32,"Duration":681249,"SoundDuration":681249,"Delta":355821712},{"NoteNumber":56,"Velocity":38,"Duration":681249,"SoundDuration":681249,"Delta":355821712},{"NoteNumber":89,"Velocity":57,"Duration":166666,"SoundDuration":166666,"Delta":355988379},{"NoteNumber":90,"Velocity":58,"Duration":166666,"SoundDuration":166666,"Delta":356155045},{"NoteNumber":89,"Velocity":58,"Duration":187500,"SoundDuration":187500,"Delta":356321712},{"NoteNumber":92,"Velocity":70,"Duration":166666,"SoundDuration":166666,"Delta":356509212},{"NoteNumber":42,"Velocity":33,"Duration":681249,"SoundDuration":681249,"Delta":356509212},{"NoteNumber":49,"Velocity":33,"Duration":681249,"SoundDuration":681249,"Delta":356509212},{"NoteNumber":54,"Velocity":39,"Duration":681249,"SoundDuration":681249,"Delta":356509212},{"NoteNumber":90,"Velocity":59,"Duration":166666,"SoundDuration":166666,"Delta":356675879},{"NoteNumber":81,"Velocity":50,"Duration":166666,"SoundDuration":166666,"Delta":356842545},{"NoteNumber":78,"Velocity":50,"Duration":166666,"SoundDuration":166666,"Delta":356842545},{"NoteNumber":90,"Velocity":60,"Duration":187500,"SoundDuration":187500,"Delta":357009212},{"NoteNumber":93,"Velocity":68,"Duration":164835,"SoundDuration":164835,"Delta":357196712},{"NoteNumber":41,"Velocity":35,"Duration":653845,"SoundDuration":653845,"Delta":357196712},{"NoteNumber":49,"Velocity":35,"Duration":653845,"SoundDuration":653845,"Delta":357196712},{"NoteNumber":56,"Velocity":42,"Duration":653845,"SoundDuration":653845,"Delta":357196712},{"NoteNumber":92,"Velocity":61,"Duration":164835,"SoundDuration":164835,"Delta":357361547},{"NoteNumber":80,"Velocity":61,"Duration":164835,"SoundDuration":164835,"Delta":357526382},{"NoteNumber":92,"Velocity":61,"Duration":164835,"SoundDuration":164835,"Delta":357691217},{"NoteNumber":41,"Velocity":34,"Duration":655734,"SoundDuration":655734,"Delta":357856052},{"NoteNumber":49,"Velocity":34,"Duration":655734,"SoundDuration":655734,"Delta":357856052},{"NoteNumber":56,"Velocity":40,"Duration":655734,"SoundDuration":655734,"Delta":357856052},{"NoteNumber":92,"Velocity":51,"Duration":166666,"SoundDuration":166666,"Delta":358017343},{"NoteNumber":80,"Velocity":60,"Duration":166666,"SoundDuration":166666,"Delta":358184009},{"NoteNumber":92,"Velocity":55,"Duration":166666,"SoundDuration":166666,"Delta":358350676},{"NoteNumber":53,"Velocity":34,"Duration":676829,"SoundDuration":676829,"Delta":358517343},{"NoteNumber":56,"Velocity":34,"Duration":676829,"SoundDuration":676829,"Delta":358517343},{"NoteNumber":59,"Velocity":34,"Duration":676829,"SoundDuration":676829,"Delta":358517343},{"NoteNumber":61,"Velocity":40,"Duration":676829,"SoundDuration":676829,"Delta":358517343},{"NoteNumber":92,"Velocity":54,"Duration":166666,"SoundDuration":166666,"Delta":358684009},{"NoteNumber":80,"Velocity":59,"Duration":166666,"SoundDuration":166666,"Delta":358850676},{"NoteNumber":92,"Velocity":55,"Duration":182926,"SoundDuration":182926,"Delta":359017343},{"NoteNumber":53,"Velocity":34,"Duration":646739,"SoundDuration":646739,"Delta":359200269},{"NoteNumber":56,"Velocity":34,"Duration":646739,"SoundDuration":646739,"Delta":359200269},{"NoteNumber":59,"Velocity":34,"Duration":646739,"SoundDuration":646739,"Delta":359200269},{"NoteNumber":62,"Velocity":40,"Duration":646739,"SoundDuration":646739,"Delta":359200269},{"NoteNumber":80,"Velocity":53,"Duration":163043,"SoundDuration":163043,"Delta":359363313},{"NoteNumber":88,"Velocity":64,"Duration":163043,"SoundDuration":163043,"Delta":359526356},{"NoteNumber":86,"Velocity":53,"Duration":163043,"SoundDuration":163043,"Delta":359689400},{"NoteNumber":85,"Velocity":61,"Duration":166666,"SoundDuration":166666,"Delta":359852443},{"NoteNumber":53,"Velocity":34,"Duration":661110,"SoundDuration":661110,"Delta":359852443},{"NoteNumber":56,"Velocity":34,"Duration":661110,"SoundDuration":661110,"Delta":359852443},{"NoteNumber":59,"Velocity":34,"Duration":661110,"SoundDuration":661110,"Delta":359852443},{"NoteNumber":62,"Velocity":40,"Duration":661110,"SoundDuration":661110,"Delta":359852443},{"NoteNumber":86,"Velocity":61,"Duration":166666,"SoundDuration":166666,"Delta":360019110},{"NoteNumber":80,"Velocity":57,"Duration":166666,"SoundDuration":166666,"Delta":360185777},{"NoteNumber":86,"Velocity":57,"Duration":166666,"SoundDuration":166666,"Delta":360352443},{"NoteNumber":53,"Velocity":34,"Duration":661110,"SoundDuration":661110,"Delta":360519110},{"NoteNumber":56,"Velocity":34,"Duration":661110,"SoundDuration":661110,"Delta":360519110},{"NoteNumber":59,"Velocity":34,"Duration":661110,"SoundDuration":661110,"Delta":360519110},{"NoteNumber":62,"Velocity":40,"Duration":661110,"SoundDuration":661110,"Delta":360519110},{"NoteNumber":86,"Velocity":56,"Duration":166666,"SoundDuration":166666,"Delta":360685777},{"NoteNumber":80,"Velocity":64,"Duration":166666,"SoundDuration":166666,"Delta":360852443},{"NoteNumber":86,"Velocity":56,"Duration":166666,"SoundDuration":166666,"Delta":361019110},{"NoteNumber":74,"Velocity":61,"Duration":166666,"SoundDuration":166666,"Delta":361185776},{"NoteNumber":53,"Velocity":35,"Duration":685897,"SoundDuration":685897,"Delta":361185776},{"NoteNumber":56,"Velocity":35,"Duration":685897,"SoundDuration":685897,"Delta":361185776},{"NoteNumber":59,"Velocity":35,"Duration":685897,"SoundDuration":685897,"Delta":361185776},{"NoteNumber":62,"Velocity":42,"Duration":685897,"SoundDuration":685897,"Delta":361185776},{"NoteNumber":85,"Velocity":54,"Duration":166666,"SoundDuration":166666,"Delta":361352443},{"NoteNumber":88,"Velocity":58,"Duration":166666,"SoundDuration":166666,"Delta":361519110},{"NoteNumber":86,"Velocity":53,"Duration":192307,"SoundDuration":192307,"Delta":361685776},{"NoteNumber":85,"Velocity":66,"Duration":168539,"SoundDuration":168539,"Delta":361878084},{"NoteNumber":41,"Velocity":34,"Duration":668539,"SoundDuration":668539,"Delta":361878084},{"NoteNumber":44,"Velocity":34,"Duration":668539,"SoundDuration":668539,"Delta":361878084},{"NoteNumber":53,"Velocity":40,"Duration":668539,"SoundDuration":668539,"Delta":361878084},{"NoteNumber":86,"Velocity":51,"Duration":168539,"SoundDuration":168539,"Delta":362046623},{"NoteNumber":74,"Velocity":61,"Duration":168539,"SoundDuration":168539,"Delta":362215163},{"NoteNumber":86,"Velocity":54,"Duration":168539,"SoundDuration":168539,"Delta":362383702},{"NoteNumber":74,"Velocity":63,"Duration":164835,"SoundDuration":164835,"Delta":362552242},{"NoteNumber":41,"Velocity":34,"Duration":653845,"SoundDuration":653845,"Delta":362552242},{"NoteNumber":44,"Velocity":34,"Duration":653845,"SoundDuration":653845,"Delta":362552242},{"NoteNumber":53,"Velocity":40,"Duration":653845,"SoundDuration":653845,"Delta":362552242},{"NoteNumber":86,"Velocity":57,"Duration":164835,"SoundDuration":164835,"Delta":362717077},{"NoteNumber":88,"Velocity":64,"Duration":164835,"SoundDuration":164835,"Delta":362881912},{"NoteNumber":86,"Velocity":57,"Duration":159340,"SoundDuration":159340,"Delta":363046747},{"NoteNumber":86,"Velocity":66,"Duration":166666,"SoundDuration":166666,"Delta":363211582},{"NoteNumber":41,"Velocity":30,"Duration":676829,"SoundDuration":676829,"Delta":363211582},{"NoteNumber":44,"Velocity":30,"Duration":676829,"SoundDuration":676829,"Delta":363211582},{"NoteNumber":53,"Velocity":36,"Duration":676829,"SoundDuration":676829,"Delta":363211582},{"NoteNumber":85,"Velocity":53,"Duration":166666,"SoundDuration":166666,"Delta":363378249},{"NoteNumber":73,"Velocity":59,"Duration":166666,"SoundDuration":166666,"Delta":363544915},{"NoteNumber":85,"Velocity":51,"Duration":182926,"SoundDuration":182926,"Delta":363711582},{"NoteNumber":84,"Velocity":50,"Duration":168539,"SoundDuration":168539,"Delta":363894509},{"NoteNumber":42,"Velocity":28,"Duration":668539,"SoundDuration":668539,"Delta":363894509},{"NoteNumber":45,"Velocity":28,"Duration":668539,"SoundDuration":668539,"Delta":363894509},{"NoteNumber":54,"Velocity":33,"Duration":668539,"SoundDuration":668539,"Delta":363894509},{"NoteNumber":85,"Velocity":49,"Duration":168539,"SoundDuration":168539,"Delta":364063048},{"NoteNumber":73,"Velocity":48,"Duration":168539,"SoundDuration":168539,"Delta":364231588},{"NoteNumber":85,"Velocity":47,"Duration":168539,"SoundDuration":168539,"Delta":364400127},{"NoteNumber":82,"Velocity":55,"Duration":164835,"SoundDuration":164835,"Delta":364568666},{"NoteNumber":44,"Velocity":26,"Duration":653845,"SoundDuration":653845,"Delta":364568666},{"NoteNumber":47,"Velocity":26,"Duration":653845,"SoundDuration":653845,"Delta":364568666},{"NoteNumber":56,"Velocity":31,"Duration":653845,"SoundDuration":653845,"Delta":364568666},{"NoteNumber":83,"Velocity":46,"Duration":164835,"SoundDuration":164835,"Delta":364733501},{"NoteNumber":71,"Velocity":37,"Duration":164835,"SoundDuration":164835,"Delta":364898337},{"NoteNumber":83,"Velocity":44,"Duration":164835,"SoundDuration":164835,"Delta":365063172},{"NoteNumber":71,"Velocity":50,"Duration":166666,"SoundDuration":166666,"Delta":365228007},{"NoteNumber":44,"Velocity":25,"Duration":679012,"SoundDuration":679012,"Delta":365228007},{"NoteNumber":47,"Velocity":25,"Duration":679012,"SoundDuration":679012,"Delta":365228007},{"NoteNumber":56,"Velocity":30,"Duration":679012,"SoundDuration":679012,"Delta":365228007},{"NoteNumber":83,"Velocity":44,"Duration":166666,"SoundDuration":166666,"Delta":365394673},{"NoteNumber":85,"Velocity":45,"Duration":166666,"SoundDuration":166666,"Delta":365561340},{"NoteNumber":83,"Velocity":46,"Duration":185185,"SoundDuration":185185,"Delta":365728007},{"NoteNumber":82,"Velocity":55,"Duration":168539,"SoundDuration":168539,"Delta":365913192},{"NoteNumber":56,"Velocity":26,"Duration":668539,"SoundDuration":668539,"Delta":365913192},{"NoteNumber":59,"Velocity":26,"Duration":668539,"SoundDuration":668539,"Delta":365913192},{"NoteNumber":62,"Velocity":26,"Duration":668539,"SoundDuration":668539,"Delta":365913192},{"NoteNumber":65,"Velocity":31,"Duration":668539,"SoundDuration":668539,"Delta":365913192},{"NoteNumber":83,"Velocity":48,"Duration":168539,"SoundDuration":168539,"Delta":366081731},{"NoteNumber":71,"Velocity":43,"Duration":168539,"SoundDuration":168539,"Delta":366250271},{"NoteNumber":83,"Velocity":51,"Duration":168539,"SoundDuration":168539,"Delta":366418810},{"NoteNumber":71,"Velocity":56,"Duration":168539,"SoundDuration":168539,"Delta":366587349},{"NoteNumber":56,"Velocity":29,"Duration":668539,"SoundDuration":668539,"Delta":366587349},{"NoteNumber":59,"Velocity":29,"Duration":668539,"SoundDuration":668539,"Delta":366587349},{"NoteNumber":62,"Velocity":29,"Duration":668539,"SoundDuration":668539,"Delta":366587349},{"NoteNumber":65,"Velocity":35,"Duration":668539,"SoundDuration":668539,"Delta":366587349},{"NoteNumber":83,"Velocity":54,"Duration":168539,"SoundDuration":168539,"Delta":366755889},{"NoteNumber":85,"Velocity":55,"Duration":168539,"SoundDuration":168539,"Delta":366924428},{"NoteNumber":83,"Velocity":56,"Duration":168539,"SoundDuration":168539,"Delta":367092967},{"NoteNumber":59,"Velocity":32,"Duration":686868,"SoundDuration":686868,"Delta":367261507},{"NoteNumber":56,"Velocity":32,"Duration":686868,"SoundDuration":686868,"Delta":367261507},{"NoteNumber":62,"Velocity":32,"Duration":686868,"SoundDuration":686868,"Delta":367261507},{"NoteNumber":65,"Velocity":38,"Duration":686868,"SoundDuration":686868,"Delta":367261507},{"NoteNumber":85,"Velocity":49,"Duration":168539,"SoundDuration":168539,"Delta":367430046},{"NoteNumber":71,"Velocity":43,"Duration":168539,"SoundDuration":168539,"Delta":367598586},{"NoteNumber":83,"Velocity":49,"Duration":187500,"SoundDuration":187500,"Delta":367767125},{"NoteNumber":57,"Velocity":31,"Duration":639785,"SoundDuration":639785,"Delta":367954625},{"NoteNumber":61,"Velocity":31,"Duration":639785,"SoundDuration":639785,"Delta":367954625},{"NoteNumber":66,"Velocity":37,"Duration":639785,"SoundDuration":639785,"Delta":367954625},{"NoteNumber":83,"Velocity":45,"Duration":161290,"SoundDuration":161290,"Delta":368115915},{"NoteNumber":69,"Velocity":43,"Duration":161290,"SoundDuration":161290,"Delta":368277206},{"NoteNumber":81,"Velocity":43,"Duration":161290,"SoundDuration":161290,"Delta":368438496},{"NoteNumber":59,"Velocity":30,"Duration":323369,"SoundDuration":323369,"Delta":368599786},{"NoteNumber":62,"Velocity":30,"Duration":323369,"SoundDuration":323369,"Delta":368599786},{"NoteNumber":66,"Velocity":36,"Duration":323369,"SoundDuration":323369,"Delta":368599786},{"NoteNumber":81,"Velocity":49,"Duration":163043,"SoundDuration":163043,"Delta":368762830},{"NoteNumber":68,"Velocity":47,"Duration":163043,"SoundDuration":163043,"Delta":368925873},{"NoteNumber":60,"Velocity":30,"Duration":326087,"SoundDuration":326087,"Delta":368925873},{"NoteNumber":63,"Velocity":30,"Duration":326087,"SoundDuration":326087,"Delta":368925873},{"NoteNumber":66,"Velocity":36,"Duration":326087,"SoundDuration":326087,"Delta":368925873},{"NoteNumber":80,"Velocity":54,"Duration":163043,"SoundDuration":163043,"Delta":369088917},{"NoteNumber":68,"Velocity":54,"Duration":163043,"SoundDuration":163043,"Delta":369251960},{"NoteNumber":80,"Velocity":54,"Duration":163043,"SoundDuration":163043,"Delta":369415004},{"NoteNumber":79,"Velocity":51,"Duration":163043,"SoundDuration":163043,"Delta":369578047},{"NoteNumber":60,"Velocity":31,"Duration":326087,"SoundDuration":326087,"Delta":369578047},{"NoteNumber":63,"Velocity":31,"Duration":326087,"SoundDuration":326087,"Delta":369578047},{"NoteNumber":66,"Velocity":31,"Duration":326087,"SoundDuration":326087,"Delta":369578047},{"NoteNumber":68,"Velocity":37,"Duration":326087,"SoundDuration":326087,"Delta":369578047},{"NoteNumber":80,"Velocity":51,"Duration":163043,"SoundDuration":163043,"Delta":369741091},{"NoteNumber":81,"Velocity":61,"Duration":163043,"SoundDuration":163043,"Delta":369904134},{"NoteNumber":80,"Velocity":43,"Duration":163043,"SoundDuration":163043,"Delta":370067178},{"NoteNumber":68,"Velocity":52,"Duration":163043,"SoundDuration":163043,"Delta":370230221},{"NoteNumber":60,"Velocity":29,"Duration":326087,"SoundDuration":326087,"Delta":370230221},{"NoteNumber":63,"Velocity":29,"Duration":326087,"SoundDuration":326087,"Delta":370230221},{"NoteNumber":66,"Velocity":34,"Duration":326087,"SoundDuration":326087,"Delta":370230221},{"NoteNumber":80,"Velocity":52,"Duration":163043,"SoundDuration":163043,"Delta":370393265},{"NoteNumber":68,"Velocity":50,"Duration":163043,"SoundDuration":163043,"Delta":370556308},{"NoteNumber":80,"Velocity":51,"Duration":163043,"SoundDuration":163043,"Delta":370719352},{"NoteNumber":81,"Velocity":51,"Duration":163043,"SoundDuration":163043,"Delta":370882395},{"NoteNumber":66,"Velocity":28,"Duration":326087,"SoundDuration":326087,"Delta":370882395},{"NoteNumber":60,"Velocity":28,"Duration":326087,"SoundDuration":326087,"Delta":370882395},{"NoteNumber":63,"Velocity":28,"Duration":326087,"SoundDuration":326087,"Delta":370882395},{"NoteNumber":68,"Velocity":34,"Duration":326087,"SoundDuration":326087,"Delta":370882395},{"NoteNumber":80,"Velocity":50,"Duration":163043,"SoundDuration":163043,"Delta":371045439},{"NoteNumber":81,"Velocity":61,"Duration":163043,"SoundDuration":163043,"Delta":371208482},{"NoteNumber":80,"Velocity":50,"Duration":163043,"SoundDuration":163043,"Delta":371371526},{"NoteNumber":68,"Velocity":41,"Duration":163043,"SoundDuration":163043,"Delta":371534569},{"NoteNumber":60,"Velocity":27,"Duration":357848,"SoundDuration":357848,"Delta":371534569},{"NoteNumber":63,"Velocity":27,"Duration":357848,"SoundDuration":357848,"Delta":371534569},{"NoteNumber":66,"Velocity":33,"Duration":357848,"SoundDuration":357848,"Delta":371534569},{"NoteNumber":80,"Velocity":49,"Duration":194805,"SoundDuration":194805,"Delta":371697613},{"NoteNumber":69,"Velocity":49,"Duration":166666,"SoundDuration":166666,"Delta":371892418},{"NoteNumber":81,"Velocity":48,"Duration":166666,"SoundDuration":166666,"Delta":372059085},{"NoteNumber":83,"Velocity":48,"Duration":166666,"SoundDuration":166666,"Delta":372225751},{"NoteNumber":60,"Velocity":27,"Duration":333333,"SoundDuration":333333,"Delta":372225751},{"NoteNumber":63,"Velocity":27,"Duration":333333,"SoundDuration":333333,"Delta":372225751},{"NoteNumber":66,"Velocity":27,"Duration":333333,"SoundDuration":333333,"Delta":372225751},{"NoteNumber":69,"Velocity":32,"Duration":333333,"SoundDuration":333333,"Delta":372225751},{"NoteNumber":81,"Velocity":48,"Duration":166666,"SoundDuration":166666,"Delta":372392418},{"NoteNumber":80,"Velocity":57,"Duration":166666,"SoundDuration":166666,"Delta":372559085},{"NoteNumber":78,"Velocity":47,"Duration":166666,"SoundDuration":166666,"Delta":372725751},{"NoteNumber":66,"Velocity":39,"Duration":166666,"SoundDuration":166666,"Delta":372892418},{"NoteNumber":54,"Velocity":26,"Duration":349593,"SoundDuration":349593,"Delta":372892418},{"NoteNumber":48,"Velocity":26,"Duration":349593,"SoundDuration":349593,"Delta":372892418},{"NoteNumber":51,"Velocity":26,"Duration":349593,"SoundDuration":349593,"Delta":372892418},{"NoteNumber":57,"Velocity":31,"Duration":349593,"SoundDuration":349593,"Delta":372892418},{"NoteNumber":78,"Velocity":47,"Duration":182926,"SoundDuration":182926,"Delta":373059085},{"NoteNumber":77,"Velocity":53,"Duration":163043,"SoundDuration":163043,"Delta":373242011},{"NoteNumber":78,"Velocity":46,"Duration":163043,"SoundDuration":163043,"Delta":373405055},{"NoteNumber":66,"Velocity":45,"Duration":163043,"SoundDuration":163043,"Delta":373568098},{"NoteNumber":49,"Velocity":27,"Duration":326087,"SoundDuration":326087,"Delta":373568098},{"NoteNumber":54,"Velocity":27,"Duration":326087,"SoundDuration":326087,"Delta":373568098},{"NoteNumber":57,"Velocity":32,"Duration":326087,"SoundDuration":326087,"Delta":373568098},{"NoteNumber":78,"Velocity":46,"Duration":163043,"SoundDuration":163043,"Delta":373731142},{"NoteNumber":80,"Velocity":54,"Duration":164835,"SoundDuration":164835,"Delta":373894185},{"NoteNumber":78,"Velocity":39,"Duration":164835,"SoundDuration":164835,"Delta":374059021},{"NoteNumber":66,"Velocity":46,"Duration":164835,"SoundDuration":164835,"Delta":374223856},{"NoteNumber":57,"Velocity":22,"Duration":329670,"SoundDuration":329670,"Delta":374223856},{"NoteNumber":49,"Velocity":22,"Duration":329670,"SoundDuration":329670,"Delta":374223856},{"NoteNumber":54,"Velocity":22,"Duration":329670,"SoundDuration":329670,"Delta":374223856},{"NoteNumber":60,"Velocity":26,"Duration":329670,"SoundDuration":329670,"Delta":374223856},{"NoteNumber":78,"Velocity":46,"Duration":164835,"SoundDuration":164835,"Delta":374388691},{"NoteNumber":77,"Velocity":45,"Duration":164835,"SoundDuration":164835,"Delta":374553526},{"NoteNumber":78,"Velocity":41,"Duration":164835,"SoundDuration":164835,"Delta":374718361},{"NoteNumber":66,"Velocity":46,"Duration":164835,"SoundDuration":164835,"Delta":374883196},{"NoteNumber":57,"Velocity":26,"Duration":329670,"SoundDuration":329670,"Delta":374883196},{"NoteNumber":49,"Velocity":26,"Duration":329670,"SoundDuration":329670,"Delta":374883196},{"NoteNumber":54,"Velocity":26,"Duration":329670,"SoundDuration":329670,"Delta":374883196},{"NoteNumber":61,"Velocity":31,"Duration":329670,"SoundDuration":329670,"Delta":374883196},{"NoteNumber":78,"Velocity":40,"Duration":164835,"SoundDuration":164835,"Delta":375048031},{"NoteNumber":53,"Velocity":26,"Duration":659340,"SoundDuration":659340,"Delta":375212866},{"NoteNumber":49,"Velocity":26,"Duration":659340,"SoundDuration":659340,"Delta":375212866},{"NoteNumber":56,"Velocity":26,"Duration":659340,"SoundDuration":659340,"Delta":375212866},{"NoteNumber":61,"Velocity":31,"Duration":659340,"SoundDuration":659340,"Delta":375212866},{"NoteNumber":78,"Velocity":46,"Duration":164835,"SoundDuration":164835,"Delta":375377702},{"NoteNumber":65,"Velocity":39,"Duration":164835,"SoundDuration":164835,"Delta":375542537},{"NoteNumber":77,"Velocity":46,"Duration":164835,"SoundDuration":164835,"Delta":375707372},{"NoteNumber":49,"Velocity":26,"Duration":645161,"SoundDuration":645161,"Delta":375872207},{"NoteNumber":53,"Velocity":26,"Duration":645161,"SoundDuration":645161,"Delta":375872207},{"NoteNumber":56,"Velocity":31,"Duration":645161,"SoundDuration":645161,"Delta":375872207},{"NoteNumber":81,"Velocity":46,"Duration":161290,"SoundDuration":161290,"Delta":376033497},{"NoteNumber":68,"Velocity":42,"Duration":161290,"SoundDuration":161290,"Delta":376194788},{"NoteNumber":80,"Velocity":46,"Duration":161290,"SoundDuration":161290,"Delta":376356078},{"NoteNumber":49,"Velocity":26,"Duration":673744,"SoundDuration":673744,"Delta":376517368},{"NoteNumber":56,"Velocity":26,"Duration":673744,"SoundDuration":673744,"Delta":376517368},{"NoteNumber":59,"Velocity":31,"Duration":673744,"SoundDuration":673744,"Delta":376517368},{"NoteNumber":85,"Velocity":46,"Duration":161290,"SoundDuration":161290,"Delta":376678659},{"NoteNumber":71,"Velocity":39,"Duration":161290,"SoundDuration":161290,"Delta":376839949},{"NoteNumber":83,"Velocity":46,"Duration":189873,"SoundDuration":189873,"Delta":377001240},{"NoteNumber":85,"Velocity":46,"Duration":161290,"SoundDuration":161290,"Delta":377191113},{"NoteNumber":49,"Velocity":27,"Duration":645161,"SoundDuration":645161,"Delta":377191113},{"NoteNumber":56,"Velocity":27,"Duration":645161,"SoundDuration":645161,"Delta":377191113},{"NoteNumber":59,"Velocity":32,"Duration":645161,"SoundDuration":645161,"Delta":377191113},{"NoteNumber":71,"Velocity":39,"Duration":161290,"SoundDuration":161290,"Delta":377352403},{"NoteNumber":85,"Velocity":46,"Duration":161290,"SoundDuration":161290,"Delta":377513694},{"NoteNumber":83,"Velocity":46,"Duration":161290,"SoundDuration":161290,"Delta":377674984},{"NoteNumber":82,"Velocity":54,"Duration":161290,"SoundDuration":161290,"Delta":377836274},{"NoteNumber":49,"Velocity":23,"Duration":673744,"SoundDuration":673744,"Delta":377836274},{"NoteNumber":56,"Velocity":23,"Duration":673744,"SoundDuration":673744,"Delta":377836274},{"NoteNumber":59,"Velocity":27,"Duration":673744,"SoundDuration":673744,"Delta":377836274},{"NoteNumber":83,"Velocity":46,"Duration":161290,"SoundDuration":161290,"Delta":377997565},{"NoteNumber":71,"Velocity":37,"Duration":161290,"SoundDuration":161290,"Delta":378158855},{"NoteNumber":83,"Velocity":46,"Duration":183544,"SoundDuration":183544,"Delta":378320146},{"NoteNumber":83,"Velocity":45,"Duration":166666,"SoundDuration":166666,"Delta":378510019},{"NoteNumber":49,"Velocity":26,"Duration":650537,"SoundDuration":650537,"Delta":378510019},{"NoteNumber":54,"Velocity":26,"Duration":650537,"SoundDuration":650537,"Delta":378510019},{"NoteNumber":57,"Velocity":31,"Duration":650537,"SoundDuration":650537,"Delta":378510019},{"NoteNumber":81,"Velocity":46,"Duration":161290,"SoundDuration":161290,"Delta":378676686},{"NoteNumber":69,"Velocity":41,"Duration":161290,"SoundDuration":161290,"Delta":378837976},{"NoteNumber":81,"Velocity":46,"Duration":161290,"SoundDuration":161290,"Delta":378999266},{"NoteNumber":83,"Velocity":57,"Duration":163043,"SoundDuration":163043,"Delta":379160557},{"NoteNumber":49,"Velocity":23,"Duration":652174,"SoundDuration":652174,"Delta":379160557},{"NoteNumber":54,"Velocity":23,"Duration":652174,"SoundDuration":652174,"Delta":379160557},{"NoteNumber":57,"Velocity":27,"Duration":652174,"SoundDuration":652174,"Delta":379160557},{"NoteNumber":69,"Velocity":39,"Duration":163043,"SoundDuration":163043,"Delta":379323600},{"NoteNumber":83,"Velocity":44,"Duration":163043,"SoundDuration":163043,"Delta":379486644},{"NoteNumber":81,"Velocity":46,"Duration":157608,"SoundDuration":157608,"Delta":379649687},{"NoteNumber":81,"Velocity":46,"Duration":163043,"SoundDuration":163043,"Delta":379812731},{"NoteNumber":47,"Velocity":26,"Duration":652174,"SoundDuration":652174,"Delta":379812731},{"NoteNumber":50,"Velocity":26,"Duration":652174,"SoundDuration":652174,"Delta":379812731},{"NoteNumber":53,"Velocity":26,"Duration":652174,"SoundDuration":652174,"Delta":379812731},{"NoteNumber":56,"Velocity":31,"Duration":652174,"SoundDuration":652174,"Delta":379812731},{"NoteNumber":68,"Velocity":39,"Duration":163043,"SoundDuration":163043,"Delta":379975774},{"NoteNumber":81,"Velocity":43,"Duration":163043,"SoundDuration":163043,"Delta":380138818},{"NoteNumber":80,"Velocity":43,"Duration":157608,"SoundDuration":157608,"Delta":380301861},{"NoteNumber":80,"Velocity":55,"Duration":163043,"SoundDuration":163043,"Delta":380464905},{"NoteNumber":45,"Velocity":26,"Duration":669853,"SoundDuration":669853,"Delta":380464905},{"NoteNumber":48,"Velocity":26,"Duration":669853,"SoundDuration":669853,"Delta":380464905},{"NoteNumber":51,"Velocity":26,"Duration":669853,"SoundDuration":669853,"Delta":380464905},{"NoteNumber":54,"Velocity":31,"Duration":669853,"SoundDuration":669853,"Delta":380464905},{"NoteNumber":66,"Velocity":38,"Duration":163043,"SoundDuration":163043,"Delta":380627948},{"NoteNumber":80,"Velocity":39,"Duration":163043,"SoundDuration":163043,"Delta":380790992},{"NoteNumber":78,"Velocity":46,"Duration":180722,"SoundDuration":180722,"Delta":380954035},{"NoteNumber":77,"Velocity":46,"Duration":159574,"SoundDuration":159574,"Delta":381134758},{"NoteNumber":51,"Velocity":27,"Duration":638298,"SoundDuration":638298,"Delta":381134758},{"NoteNumber":46,"Velocity":27,"Duration":638298,"SoundDuration":638298,"Delta":381134758},{"NoteNumber":47,"Velocity":27,"Duration":638298,"SoundDuration":638298,"Delta":381134758},{"NoteNumber":54,"Velocity":32,"Duration":638298,"SoundDuration":638298,"Delta":381134758},{"NoteNumber":78,"Velocity":46,"Duration":159574,"SoundDuration":159574,"Delta":381294333},{"NoteNumber":66,"Velocity":41,"Duration":159574,"SoundDuration":159574,"Delta":381453907},{"NoteNumber":78,"Velocity":46,"Duration":159574,"SoundDuration":159574,"Delta":381613482},{"NoteNumber":80,"Velocity":54,"Duration":163043,"SoundDuration":163043,"Delta":381773056},{"NoteNumber":51,"Velocity":23,"Duration":652174,"SoundDuration":652174,"Delta":381773056},{"NoteNumber":46,"Velocity":23,"Duration":652174,"SoundDuration":652174,"Delta":381773056},{"NoteNumber":47,"Velocity":23,"Duration":652174,"SoundDuration":652174,"Delta":381773056},{"NoteNumber":54,"Velocity":27,"Duration":652174,"SoundDuration":652174,"Delta":381773056},{"NoteNumber":78,"Velocity":45,"Duration":163043,"SoundDuration":163043,"Delta":381936100},{"NoteNumber":66,"Velocity":38,"Duration":163043,"SoundDuration":163043,"Delta":382099143},{"NoteNumber":78,"Velocity":46,"Duration":163043,"SoundDuration":163043,"Delta":382262187},{"NoteNumber":65,"Velocity":45,"Duration":163043,"SoundDuration":163043,"Delta":382425230},{"NoteNumber":44,"Velocity":26,"Duration":652174,"SoundDuration":652174,"Delta":382425230},{"NoteNumber":49,"Velocity":26,"Duration":652174,"SoundDuration":652174,"Delta":382425230},{"NoteNumber":53,"Velocity":31,"Duration":652174,"SoundDuration":652174,"Delta":382425230},{"NoteNumber":77,"Velocity":42,"Duration":163043,"SoundDuration":163043,"Delta":382588274},{"NoteNumber":78,"Velocity":46,"Duration":163043,"SoundDuration":163043,"Delta":382751317},{"NoteNumber":77,"Velocity":46,"Duration":163043,"SoundDuration":163043,"Delta":382914361},{"NoteNumber":78,"Velocity":57,"Duration":163043,"SoundDuration":163043,"Delta":383077404},{"NoteNumber":44,"Velocity":23,"Duration":652174,"SoundDuration":652174,"Delta":383077404},{"NoteNumber":49,"Velocity":23,"Duration":652174,"SoundDuration":652174,"Delta":383077404},{"NoteNumber":53,"Velocity":27,"Duration":652174,"SoundDuration":652174,"Delta":383077404},{"NoteNumber":65,"Velocity":39,"Duration":163043,"SoundDuration":163043,"Delta":383240448},{"NoteNumber":78,"Velocity":45,"Duration":163043,"SoundDuration":163043,"Delta":383403491},{"NoteNumber":77,"Velocity":46,"Duration":163043,"SoundDuration":163043,"Delta":383566535},{"NoteNumber":68,"Velocity":51,"Duration":163043,"SoundDuration":163043,"Delta":383729578},{"NoteNumber":49,"Velocity":26,"Duration":674315,"SoundDuration":674315,"Delta":383729578},{"NoteNumber":53,"Velocity":31,"Duration":326086,"SoundDuration":326086,"Delta":383729578},{"NoteNumber":80,"Velocity":47,"Duration":163043,"SoundDuration":163043,"Delta":383892622},{"NoteNumber":81,"Velocity":47,"Duration":163043,"SoundDuration":163043,"Delta":384055665},{"NoteNumber":53,"Velocity":31,"Duration":348228,"SoundDuration":348228,"Delta":384055665},{"NoteNumber":56,"Velocity":31,"Duration":348228,"SoundDuration":348228,"Delta":384055665},{"NoteNumber":80,"Velocity":48,"Duration":185185,"SoundDuration":185185,"Delta":384218709},{"NoteNumber":83,"Velocity":59,"Duration":163043,"SoundDuration":163043,"Delta":384403894},{"NoteNumber":59,"Velocity":32,"Duration":326086,"SoundDuration":326086,"Delta":384403894},{"NoteNumber":49,"Velocity":27,"Duration":652174,"SoundDuration":652174,"Delta":384403894},{"NoteNumber":56,"Velocity":32,"Duration":326086,"SoundDuration":326086,"Delta":384403894},{"NoteNumber":71,"Velocity":42,"Duration":163043,"SoundDuration":163043,"Delta":384566937},{"NoteNumber":74,"Velocity":51,"Duration":163043,"SoundDuration":163043,"Delta":384729981},{"NoteNumber":62,"Velocity":34,"Duration":326087,"SoundDuration":326087,"Delta":384729981},{"NoteNumber":59,"Velocity":34,"Duration":326087,"SoundDuration":326087,"Delta":384729981},{"NoteNumber":86,"Velocity":53,"Duration":163043,"SoundDuration":163043,"Delta":384893024},{"NoteNumber":85,"Velocity":58,"Duration":161290,"SoundDuration":161290,"Delta":385056068},{"NoteNumber":49,"Velocity":31,"Duration":639785,"SoundDuration":639785,"Delta":385056068},{"NoteNumber":59,"Velocity":31,"Duration":639785,"SoundDuration":639785,"Delta":385056068},{"NoteNumber":62,"Velocity":37,"Duration":639785,"SoundDuration":639785,"Delta":385056068},{"NoteNumber":86,"Velocity":55,"Duration":161290,"SoundDuration":161290,"Delta":385217358},{"NoteNumber":74,"Velocity":50,"Duration":161290,"SoundDuration":161290,"Delta":385378648},{"NoteNumber":86,"Velocity":57,"Duration":161290,"SoundDuration":161290,"Delta":385539939},{"NoteNumber":88,"Velocity":68,"Duration":164835,"SoundDuration":164835,"Delta":385701229},{"NoteNumber":49,"Velocity":32,"Duration":671334,"SoundDuration":671334,"Delta":385701229},{"NoteNumber":59,"Velocity":32,"Duration":671334,"SoundDuration":671334,"Delta":385701229},{"NoteNumber":62,"Velocity":38,"Duration":671334,"SoundDuration":671334,"Delta":385701229},{"NoteNumber":86,"Velocity":58,"Duration":164835,"SoundDuration":164835,"Delta":385866064},{"NoteNumber":74,"Velocity":50,"Duration":164835,"SoundDuration":164835,"Delta":386030899},{"NoteNumber":86,"Velocity":61,"Duration":176829,"SoundDuration":176829,"Delta":386195735},{"NoteNumber":86,"Velocity":60,"Duration":161290,"SoundDuration":161290,"Delta":386378661},{"NoteNumber":49,"Velocity":34,"Duration":639785,"SoundDuration":639785,"Delta":386378661},{"NoteNumber":57,"Velocity":34,"Duration":639785,"SoundDuration":639785,"Delta":386378661},{"NoteNumber":61,"Velocity":41,"Duration":639785,"SoundDuration":639785,"Delta":386378661},{"NoteNumber":73,"Velocity":52,"Duration":161290,"SoundDuration":161290,"Delta":386539952},{"NoteNumber":86,"Velocity":59,"Duration":161290,"SoundDuration":161290,"Delta":386701242},{"NoteNumber":85,"Velocity":58,"Duration":161290,"SoundDuration":161290,"Delta":386862533},{"NoteNumber":49,"Velocity":35,"Duration":639785,"SoundDuration":639785,"Delta":387023823},{"NoteNumber":57,"Velocity":35,"Duration":639785,"SoundDuration":639785,"Delta":387023823},{"NoteNumber":61,"Velocity":42,"Duration":639785,"SoundDuration":639785,"Delta":387023823},{"NoteNumber":86,"Velocity":62,"Duration":161290,"SoundDuration":161290,"Delta":387185113},{"NoteNumber":73,"Velocity":50,"Duration":161290,"SoundDuration":161290,"Delta":387346404},{"NoteNumber":85,"Velocity":54,"Duration":161290,"SoundDuration":161290,"Delta":387507694},{"NoteNumber":49,"Velocity":32,"Duration":658569,"SoundDuration":658569,"Delta":387668984},{"NoteNumber":56,"Velocity":32,"Duration":658569,"SoundDuration":658569,"Delta":387668984},{"NoteNumber":59,"Velocity":38,"Duration":658569,"SoundDuration":658569,"Delta":387668984},{"NoteNumber":85,"Velocity":56,"Duration":161290,"SoundDuration":161290,"Delta":387830275},{"NoteNumber":71,"Velocity":45,"Duration":161290,"SoundDuration":161290,"Delta":387991565},{"NoteNumber":83,"Velocity":49,"Duration":180722,"SoundDuration":180722,"Delta":388152856},{"NoteNumber":49,"Velocity":29,"Duration":639785,"SoundDuration":639785,"Delta":388333578},{"NoteNumber":54,"Velocity":29,"Duration":639785,"SoundDuration":639785,"Delta":388333578},{"NoteNumber":57,"Velocity":34,"Duration":639785,"SoundDuration":639785,"Delta":388333578},{"NoteNumber":83,"Velocity":50,"Duration":161290,"SoundDuration":161290,"Delta":388494869},{"NoteNumber":69,"Velocity":40,"Duration":161290,"SoundDuration":161290,"Delta":388656159},{"NoteNumber":81,"Velocity":47,"Duration":161290,"SoundDuration":161290,"Delta":388817450},{"NoteNumber":83,"Velocity":57,"Duration":161290,"SoundDuration":161290,"Delta":388978740},{"NoteNumber":49,"Velocity":33,"Duration":624832,"SoundDuration":624832,"Delta":388978740},{"NoteNumber":54,"Velocity":33,"Duration":624832,"SoundDuration":624832,"Delta":388978740},{"NoteNumber":57,"Velocity":40,"Duration":624832,"SoundDuration":624832,"Delta":388978740},{"NoteNumber":69,"Velocity":45,"Duration":156250,"SoundDuration":156250,"Delta":389140030},{"NoteNumber":83,"Velocity":54,"Duration":156250,"SoundDuration":156250,"Delta":389296280},{"NoteNumber":81,"Velocity":51,"Duration":156250,"SoundDuration":156250,"Delta":389452530},{"NoteNumber":80,"Velocity":63,"Duration":159574,"SoundDuration":159574,"Delta":389608780},{"NoteNumber":57,"Velocity":30,"Duration":653422,"SoundDuration":653422,"Delta":389608780},{"NoteNumber":49,"Velocity":30,"Duration":653422,"SoundDuration":653422,"Delta":389608780},{"NoteNumber":54,"Velocity":30,"Duration":653422,"SoundDuration":653422,"Delta":389608780},{"NoteNumber":60,"Velocity":36,"Duration":653422,"SoundDuration":653422,"Delta":389608780},{"NoteNumber":81,"Velocity":52,"Duration":159574,"SoundDuration":159574,"Delta":389768355},{"NoteNumber":69,"Velocity":42,"Duration":159574,"SoundDuration":159574,"Delta":389927929},{"NoteNumber":81,"Velocity":51,"Duration":180722,"SoundDuration":180722,"Delta":390087504},{"NoteNumber":81,"Velocity":49,"Duration":161290,"SoundDuration":161290,"Delta":390268227},{"NoteNumber":53,"Velocity":28,"Duration":639785,"SoundDuration":639785,"Delta":390268227},{"NoteNumber":49,"Velocity":28,"Duration":639785,"SoundDuration":639785,"Delta":390268227},{"NoteNumber":56,"Velocity":28,"Duration":639785,"SoundDuration":639785,"Delta":390268227},{"NoteNumber":61,"Velocity":33,"Duration":639785,"SoundDuration":639785,"Delta":390268227},{"NoteNumber":68,"Velocity":42,"Duration":161290,"SoundDuration":161290,"Delta":390429517},{"NoteNumber":81,"Velocity":48,"Duration":161290,"SoundDuration":161290,"Delta":390590807},{"NoteNumber":80,"Velocity":47,"Duration":161290,"SoundDuration":161290,"Delta":390752098},{"NoteNumber":53,"Velocity":28,"Duration":654459,"SoundDuration":654459,"Delta":390913388},{"NoteNumber":49,"Velocity":28,"Duration":654459,"SoundDuration":654459,"Delta":390913388},{"NoteNumber":56,"Velocity":28,"Duration":654459,"SoundDuration":654459,"Delta":390913388},{"NoteNumber":61,"Velocity":33,"Duration":654459,"SoundDuration":654459,"Delta":390913388},{"NoteNumber":80,"Velocity":50,"Duration":161290,"SoundDuration":161290,"Delta":391074679},{"NoteNumber":68,"Velocity":41,"Duration":161290,"SoundDuration":161290,"Delta":391235969},{"NoteNumber":80,"Velocity":49,"Duration":176470,"SoundDuration":176470,"Delta":391397259},{"NoteNumber":53,"Velocity":27,"Duration":639785,"SoundDuration":639785,"Delta":391573730},{"NoteNumber":49,"Velocity":27,"Duration":639785,"SoundDuration":639785,"Delta":391573730},{"NoteNumber":56,"Velocity":27,"Duration":639785,"SoundDuration":639785,"Delta":391573730},{"NoteNumber":61,"Velocity":32,"Duration":639785,"SoundDuration":639785,"Delta":391573730},{"NoteNumber":92,"Velocity":48,"Duration":161290,"SoundDuration":161290,"Delta":391735020},{"NoteNumber":80,"Velocity":53,"Duration":161290,"SoundDuration":161290,"Delta":391896311},{"NoteNumber":92,"Velocity":48,"Duration":161290,"SoundDuration":161290,"Delta":392057601},{"NoteNumber":52,"Velocity":26,"Duration":632978,"SoundDuration":632978,"Delta":392218891},{"NoteNumber":58,"Velocity":26,"Duration":632978,"SoundDuration":632978,"Delta":392218891},{"NoteNumber":49,"Velocity":26,"Duration":632978,"SoundDuration":632978,"Delta":392218891},{"NoteNumber":55,"Velocity":26,"Duration":632978,"SoundDuration":632978,"Delta":392218891},{"NoteNumber":61,"Velocity":32,"Duration":632978,"SoundDuration":632978,"Delta":392218891},{"NoteNumber":91,"Velocity":44,"Duration":159574,"SoundDuration":159574,"Delta":392378466},{"NoteNumber":79,"Velocity":51,"Duration":159574,"SoundDuration":159574,"Delta":392538040},{"NoteNumber":91,"Velocity":47,"Duration":159574,"SoundDuration":159574,"Delta":392697615},{"NoteNumber":55,"Velocity":26,"Duration":657735,"SoundDuration":657735,"Delta":392857189},{"NoteNumber":50,"Velocity":26,"Duration":657735,"SoundDuration":657735,"Delta":392857189},{"NoteNumber":59,"Velocity":26,"Duration":657735,"SoundDuration":657735,"Delta":392857189},{"NoteNumber":62,"Velocity":31,"Duration":657735,"SoundDuration":657735,"Delta":392857189},{"NoteNumber":91,"Velocity":46,"Duration":159574,"SoundDuration":159574,"Delta":393016764},{"NoteNumber":79,"Velocity":52,"Duration":159574,"SoundDuration":159574,"Delta":393176338},{"NoteNumber":91,"Velocity":46,"Duration":185185,"SoundDuration":185185,"Delta":393335913},{"NoteNumber":55,"Velocity":25,"Duration":639785,"SoundDuration":639785,"Delta":393521098},{"NoteNumber":50,"Velocity":25,"Duration":639785,"SoundDuration":639785,"Delta":393521098},{"NoteNumber":59,"Velocity":25,"Duration":639785,"SoundDuration":639785,"Delta":393521098},{"NoteNumber":62,"Velocity":30,"Duration":639785,"SoundDuration":639785,"Delta":393521098},{"NoteNumber":91,"Velocity":45,"Duration":161290,"SoundDuration":161290,"Delta":393682388},{"NoteNumber":83,"Velocity":51,"Duration":161290,"SoundDuration":161290,"Delta":393843679},{"NoteNumber":95,"Velocity":45,"Duration":161290,"SoundDuration":161290,"Delta":394004969},{"NoteNumber":50,"Velocity":24,"Duration":626315,"SoundDuration":626315,"Delta":394166260},{"NoteNumber":59,"Velocity":24,"Duration":626315,"SoundDuration":626315,"Delta":394166260},{"NoteNumber":55,"Velocity":24,"Duration":626315,"SoundDuration":626315,"Delta":394166260},{"NoteNumber":62,"Velocity":29,"Duration":626315,"SoundDuration":626315,"Delta":394166260},{"NoteNumber":95,"Velocity":44,"Duration":157894,"SoundDuration":157894,"Delta":394324154},{"NoteNumber":81,"Velocity":48,"Duration":157894,"SoundDuration":157894,"Delta":394482049},{"NoteNumber":93,"Velocity":43,"Duration":157894,"SoundDuration":157894,"Delta":394639944},{"NoteNumber":55,"Velocity":24,"Duration":626315,"SoundDuration":626315,"Delta":394797839},{"NoteNumber":50,"Velocity":24,"Duration":626315,"SoundDuration":626315,"Delta":394797839},{"NoteNumber":59,"Velocity":24,"Duration":626315,"SoundDuration":626315,"Delta":394797839},{"NoteNumber":62,"Velocity":28,"Duration":626315,"SoundDuration":626315,"Delta":394797839},{"NoteNumber":93,"Velocity":43,"Duration":157894,"SoundDuration":157894,"Delta":394955733},{"NoteNumber":79,"Velocity":49,"Duration":157894,"SoundDuration":157894,"Delta":395113628},{"NoteNumber":91,"Velocity":45,"Duration":157894,"SoundDuration":157894,"Delta":395271523},{"NoteNumber":55,"Velocity":26,"Duration":639785,"SoundDuration":639785,"Delta":395429418},{"NoteNumber":59,"Velocity":26,"Duration":639785,"SoundDuration":639785,"Delta":395429418},{"NoteNumber":62,"Velocity":31,"Duration":639785,"SoundDuration":639785,"Delta":395429418},{"NoteNumber":91,"Velocity":48,"Duration":161290,"SoundDuration":161290,"Delta":395590708},{"NoteNumber":79,"Velocity":57,"Duration":161290,"SoundDuration":161290,"Delta":395751998},{"NoteNumber":91,"Velocity":51,"Duration":161290,"SoundDuration":161290,"Delta":395913289},{"NoteNumber":59,"Velocity":29,"Duration":656490,"SoundDuration":656490,"Delta":396074579},{"NoteNumber":55,"Velocity":29,"Duration":656490,"SoundDuration":656490,"Delta":396074579},{"NoteNumber":62,"Velocity":35,"Duration":656490,"SoundDuration":656490,"Delta":396074579},{"NoteNumber":91,"Velocity":55,"Duration":161290,"SoundDuration":161290,"Delta":396235869},{"NoteNumber":79,"Velocity":61,"Duration":161290,"SoundDuration":161290,"Delta":396397160},{"NoteNumber":78,"Velocity":57,"Duration":178571,"SoundDuration":178571,"Delta":396558450},{"NoteNumber":90,"Velocity":57,"Duration":178571,"SoundDuration":178571,"Delta":396558450},{"NoteNumber":55,"Velocity":33,"Duration":639785,"SoundDuration":639785,"Delta":396737022},{"NoteNumber":60,"Velocity":33,"Duration":639785,"SoundDuration":639785,"Delta":396737022},{"NoteNumber":64,"Velocity":39,"Duration":639785,"SoundDuration":639785,"Delta":396737022},{"NoteNumber":90,"Velocity":60,"Duration":161290,"SoundDuration":161290,"Delta":396898312},{"NoteNumber":76,"Velocity":55,"Duration":161290,"SoundDuration":161290,"Delta":397059602},{"NoteNumber":88,"Velocity":63,"Duration":161290,"SoundDuration":161290,"Delta":397220893},{"NoteNumber":55,"Velocity":34,"Duration":632978,"SoundDuration":632978,"Delta":397382183},{"NoteNumber":60,"Velocity":34,"Duration":632978,"SoundDuration":632978,"Delta":397382183},{"NoteNumber":64,"Velocity":41,"Duration":632978,"SoundDuration":632978,"Delta":397382183},{"NoteNumber":88,"Velocity":60,"Duration":159574,"SoundDuration":159574,"Delta":397541758},{"NoteNumber":76,"Velocity":53,"Duration":159574,"SoundDuration":159574,"Delta":397701332},{"NoteNumber":88,"Velocity":57,"Duration":159574,"SoundDuration":159574,"Delta":397860907},{"NoteNumber":60,"Velocity":30,"Duration":655797,"SoundDuration":655797,"Delta":398020481},{"NoteNumber":55,"Velocity":30,"Duration":655797,"SoundDuration":655797,"Delta":398020481},{"NoteNumber":64,"Velocity":36,"Duration":655797,"SoundDuration":655797,"Delta":398020481},{"NoteNumber":88,"Velocity":53,"Duration":163043,"SoundDuration":163043,"Delta":398183525},{"NoteNumber":76,"Velocity":57,"Duration":163043,"SoundDuration":163043,"Delta":398346568},{"NoteNumber":78,"Velocity":50,"Duration":172413,"SoundDuration":172413,"Delta":398509612},{"NoteNumber":90,"Velocity":50,"Duration":172413,"SoundDuration":172413,"Delta":398509612},{"NoteNumber":55,"Velocity":27,"Duration":632978,"SoundDuration":632978,"Delta":398682025},{"NoteNumber":59,"Velocity":27,"Duration":632978,"SoundDuration":632978,"Delta":398682025},{"NoteNumber":62,"Velocity":32,"Duration":632978,"SoundDuration":632978,"Delta":398682025},{"NoteNumber":90,"Velocity":47,"Duration":159574,"SoundDuration":159574,"Delta":398841600},{"NoteNumber":79,"Velocity":54,"Duration":159574,"SoundDuration":159574,"Delta":399001174},{"NoteNumber":91,"Velocity":44,"Duration":159574,"SoundDuration":159574,"Delta":399160749},{"NoteNumber":50,"Velocity":24,"Duration":632978,"SoundDuration":632978,"Delta":399320323},{"NoteNumber":55,"Velocity":24,"Duration":632978,"SoundDuration":632978,"Delta":399320323},{"NoteNumber":59,"Velocity":24,"Duration":632978,"SoundDuration":632978,"Delta":399320323},{"NoteNumber":62,"Velocity":28,"Duration":632978,"SoundDuration":632978,"Delta":399320323},{"NoteNumber":91,"Velocity":43,"Duration":159574,"SoundDuration":159574,"Delta":399479898},{"NoteNumber":79,"Velocity":50,"Duration":159574,"SoundDuration":159574,"Delta":399639472},{"NoteNumber":91,"Velocity":43,"Duration":159574,"SoundDuration":159574,"Delta":399799047},{"NoteNumber":50,"Velocity":24,"Duration":619791,"SoundDuration":619791,"Delta":399958621},{"NoteNumber":57,"Velocity":24,"Duration":619791,"SoundDuration":619791,"Delta":399958621},{"NoteNumber":54,"Velocity":24,"Duration":619791,"SoundDuration":619791,"Delta":399958621},{"NoteNumber":62,"Velocity":28,"Duration":619791,"SoundDuration":619791,"Delta":399958621},{"NoteNumber":91,"Velocity":43,"Duration":156250,"SoundDuration":156250,"Delta":400114871},{"NoteNumber":79,"Velocity":51,"Duration":156250,"SoundDuration":156250,"Delta":400271121},{"NoteNumber":78,"Velocity":43,"Duration":156250,"SoundDuration":156250,"Delta":400427371},{"NoteNumber":90,"Velocity":43,"Duration":156250,"SoundDuration":156250,"Delta":400427371},{"NoteNumber":90,"Velocity":52,"Duration":156250,"SoundDuration":156250,"Delta":400583621},{"NoteNumber":54,"Velocity":25,"Duration":619791,"SoundDuration":619791,"Delta":400583621},{"NoteNumber":50,"Velocity":25,"Duration":619791,"SoundDuration":619791,"Delta":400583621},{"NoteNumber":57,"Velocity":25,"Duration":619791,"SoundDuration":619791,"Delta":400583621},{"NoteNumber":62,"Velocity":30,"Duration":619791,"SoundDuration":619791,"Delta":400583621},{"NoteNumber":78,"Velocity":43,"Duration":156250,"SoundDuration":156250,"Delta":400739871},{"NoteNumber":78,"Velocity":43,"Duration":156250,"SoundDuration":156250,"Delta":400896121},{"NoteNumber":90,"Velocity":43,"Duration":156250,"SoundDuration":156250,"Delta":401052371},{"NoteNumber":93,"Velocity":50,"Duration":156250,"SoundDuration":156250,"Delta":401208621},{"NoteNumber":54,"Velocity":24,"Duration":619791,"SoundDuration":619791,"Delta":401208621},{"NoteNumber":49,"Velocity":24,"Duration":619791,"SoundDuration":619791,"Delta":401208621},{"NoteNumber":57,"Velocity":24,"Duration":619791,"SoundDuration":619791,"Delta":401208621},{"NoteNumber":61,"Velocity":28,"Duration":619791,"SoundDuration":619791,"Delta":401208621},{"NoteNumber":81,"Velocity":36,"Duration":156250,"SoundDuration":156250,"Delta":401364871},{"NoteNumber":81,"Velocity":43,"Duration":156250,"SoundDuration":156250,"Delta":401521121},{"NoteNumber":93,"Velocity":43,"Duration":156250,"SoundDuration":156250,"Delta":401677371},{"NoteNumber":97,"Velocity":50,"Duration":161290,"SoundDuration":161290,"Delta":401833621},{"NoteNumber":54,"Velocity":24,"Duration":656490,"SoundDuration":656490,"Delta":401833621},{"NoteNumber":49,"Velocity":24,"Duration":656490,"SoundDuration":656490,"Delta":401833621},{"NoteNumber":57,"Velocity":24,"Duration":656490,"SoundDuration":656490,"Delta":401833621},{"NoteNumber":61,"Velocity":28,"Duration":656490,"SoundDuration":656490,"Delta":401833621},{"NoteNumber":85,"Velocity":43,"Duration":161290,"SoundDuration":161290,"Delta":401994912},{"NoteNumber":85,"Velocity":49,"Duration":161290,"SoundDuration":161290,"Delta":402156202},{"NoteNumber":97,"Velocity":43,"Duration":178571,"SoundDuration":178571,"Delta":402317492},{"NoteNumber":53,"Velocity":24,"Duration":632978,"SoundDuration":632978,"Delta":402496064},{"NoteNumber":49,"Velocity":24,"Duration":632978,"SoundDuration":632978,"Delta":402496064},{"NoteNumber":56,"Velocity":24,"Duration":632978,"SoundDuration":632978,"Delta":402496064},{"NoteNumber":61,"Velocity":28,"Duration":632978,"SoundDuration":632978,"Delta":402496064},{"NoteNumber":97,"Velocity":43,"Duration":159574,"SoundDuration":159574,"Delta":402655638},{"NoteNumber":85,"Velocity":49,"Duration":159574,"SoundDuration":159574,"Delta":402815213},{"NoteNumber":97,"Velocity":45,"Duration":159574,"SoundDuration":159574,"Delta":402974787},{"NoteNumber":49,"Velocity":26,"Duration":619791,"SoundDuration":619791,"Delta":403134362},{"NoteNumber":53,"Velocity":26,"Duration":619791,"SoundDuration":619791,"Delta":403134362},{"NoteNumber":56,"Velocity":26,"Duration":619791,"SoundDuration":619791,"Delta":403134362},{"NoteNumber":61,"Velocity":31,"Duration":619791,"SoundDuration":619791,"Delta":403134362},{"NoteNumber":85,"Velocity":48,"Duration":156250,"SoundDuration":156250,"Delta":403290612},{"NoteNumber":73,"Velocity":45,"Duration":156250,"SoundDuration":156250,"Delta":403446862},{"NoteNumber":85,"Velocity":51,"Duration":156250,"SoundDuration":156250,"Delta":403603112},{"NoteNumber":49,"Velocity":29,"Duration":619791,"SoundDuration":619791,"Delta":403759362},{"NoteNumber":53,"Velocity":29,"Duration":619791,"SoundDuration":619791,"Delta":403759362},{"NoteNumber":56,"Velocity":29,"Duration":619791,"SoundDuration":619791,"Delta":403759362},{"NoteNumber":61,"Velocity":35,"Duration":619791,"SoundDuration":619791,"Delta":403759362},{"NoteNumber":97,"Velocity":55,"Duration":156250,"SoundDuration":156250,"Delta":403915612},{"NoteNumber":85,"Velocity":65,"Duration":156250,"SoundDuration":156250,"Delta":404071862},{"NoteNumber":97,"Velocity":57,"Duration":156250,"SoundDuration":156250,"Delta":404228112},{"NoteNumber":53,"Velocity":34,"Duration":639785,"SoundDuration":639785,"Delta":404384362},{"NoteNumber":49,"Velocity":34,"Duration":639785,"SoundDuration":639785,"Delta":404384362},{"NoteNumber":56,"Velocity":34,"Duration":639785,"SoundDuration":639785,"Delta":404384362},{"NoteNumber":61,"Velocity":41,"Duration":639785,"SoundDuration":639785,"Delta":404384362},{"NoteNumber":85,"Velocity":60,"Duration":161290,"SoundDuration":161290,"Delta":404545652},{"NoteNumber":73,"Velocity":48,"Duration":161290,"SoundDuration":161290,"Delta":404706943},{"NoteNumber":85,"Velocity":63,"Duration":161290,"SoundDuration":161290,"Delta":404868233},{"NoteNumber":53,"Velocity":36,"Duration":658984,"SoundDuration":658984,"Delta":405029523},{"NoteNumber":49,"Velocity":36,"Duration":658984,"SoundDuration":658984,"Delta":405029523},{"NoteNumber":56,"Velocity":36,"Duration":658984,"SoundDuration":658984,"Delta":405029523},{"NoteNumber":61,"Velocity":43,"Duration":658984,"SoundDuration":658984,"Delta":405029523},{"NoteNumber":97,"Velocity":53,"Duration":161290,"SoundDuration":161290,"Delta":405190814},{"NoteNumber":85,"Velocity":61,"Duration":159574,"SoundDuration":159574,"Delta":405352104},{"NoteNumber":97,"Velocity":59,"Duration":182926,"SoundDuration":182926,"Delta":405511679},{"NoteNumber":93,"Velocity":55,"Duration":159574,"SoundDuration":159574,"Delta":405694605},{"NoteNumber":54,"Velocity":31,"Duration":632978,"SoundDuration":632978,"Delta":405694605},{"NoteNumber":57,"Velocity":31,"Duration":632978,"SoundDuration":632978,"Delta":405694605},{"NoteNumber":61,"Velocity":37,"Duration":632978,"SoundDuration":632978,"Delta":405694605},{"NoteNumber":81,"Velocity":54,"Duration":159574,"SoundDuration":159574,"Delta":405854180},{"NoteNumber":81,"Velocity":52,"Duration":159574,"SoundDuration":159574,"Delta":406013754},{"NoteNumber":93,"Velocity":49,"Duration":159574,"SoundDuration":159574,"Delta":406173329},{"NoteNumber":93,"Velocity":52,"Duration":159574,"SoundDuration":159574,"Delta":406332903},{"NoteNumber":54,"Velocity":26,"Duration":632978,"SoundDuration":632978,"Delta":406332903},{"NoteNumber":57,"Velocity":26,"Duration":632978,"SoundDuration":632978,"Delta":406332903},{"NoteNumber":61,"Velocity":32,"Duration":632978,"SoundDuration":632978,"Delta":406332903},{"NoteNumber":81,"Velocity":41,"Duration":159574,"SoundDuration":159574,"Delta":406492478},{"NoteNumber":81,"Velocity":47,"Duration":159574,"SoundDuration":159574,"Delta":406652052},{"NoteNumber":93,"Velocity":44,"Duration":159574,"SoundDuration":159574,"Delta":406811627},{"NoteNumber":90,"Velocity":52,"Duration":159574,"SoundDuration":159574,"Delta":406971201},{"NoteNumber":61,"Velocity":32,"Duration":316489,"SoundDuration":316489,"Delta":406971201},{"NoteNumber":57,"Velocity":32,"Duration":316489,"SoundDuration":316489,"Delta":406971201},{"NoteNumber":78,"Velocity":47,"Duration":159574,"SoundDuration":159574,"Delta":407130776},{"NoteNumber":78,"Velocity":47,"Duration":163043,"SoundDuration":163043,"Delta":407290350},{"NoteNumber":49,"Velocity":25,"Duration":326086,"SoundDuration":326086,"Delta":407290350},{"NoteNumber":45,"Velocity":25,"Duration":326086,"SoundDuration":326086,"Delta":407290350},{"NoteNumber":57,"Velocity":30,"Duration":326086,"SoundDuration":326086,"Delta":407290350},{"NoteNumber":66,"Velocity":46,"Duration":163043,"SoundDuration":163043,"Delta":407453394},{"NoteNumber":77,"Velocity":50,"Duration":163043,"SoundDuration":163043,"Delta":407616437},{"NoteNumber":80,"Velocity":59,"Duration":163043,"SoundDuration":163043,"Delta":407616437},{"NoteNumber":71,"Velocity":50,"Duration":163043,"SoundDuration":163043,"Delta":407616437},{"NoteNumber":44,"Velocity":32,"Duration":326087,"SoundDuration":326087,"Delta":407616437},{"NoteNumber":49,"Velocity":32,"Duration":326087,"SoundDuration":326087,"Delta":407616437},{"NoteNumber":56,"Velocity":37,"Duration":326087,"SoundDuration":326087,"Delta":407616437},{"NoteNumber":68,"Velocity":56,"Duration":163043,"SoundDuration":163043,"Delta":407779481},{"NoteNumber":78,"Velocity":50,"Duration":172413,"SoundDuration":172413,"Delta":407942524},{"NoteNumber":81,"Velocity":59,"Duration":172413,"SoundDuration":172413,"Delta":407942524},{"NoteNumber":73,"Velocity":50,"Duration":172413,"SoundDuration":172413,"Delta":407942524},{"NoteNumber":42,"Velocity":34,"Duration":344827,"SoundDuration":344827,"Delta":407942524},{"NoteNumber":49,"Velocity":34,"Duration":344827,"SoundDuration":344827,"Delta":407942524},{"NoteNumber":54,"Velocity":41,"Duration":344827,"SoundDuration":344827,"Delta":407942524},{"NoteNumber":69,"Velocity":62,"Duration":172413,"SoundDuration":172413,"Delta":408114938},{"NoteNumber":80,"Velocity":55,"Duration":645161,"SoundDuration":645161,"Delta":408287352},{"NoteNumber":83,"Velocity":65,"Duration":645161,"SoundDuration":645161,"Delta":408287352},{"NoteNumber":71,"Velocity":55,"Duration":645161,"SoundDuration":645161,"Delta":408287352},{"NoteNumber":37,"Velocity":37,"Duration":319892,"SoundDuration":319892,"Delta":408287352},{"NoteNumber":49,"Velocity":44,"Duration":319892,"SoundDuration":319892,"Delta":408287352},{"NoteNumber":37,"Velocity":61,"Duration":645161,"SoundDuration":645161,"Delta":408609933},{"NoteNumber":68,"Velocity":50,"Duration":645161,"SoundDuration":645161,"Delta":408932513},{"NoteNumber":71,"Velocity":59,"Duration":645161,"SoundDuration":645161,"Delta":408932513},{"NoteNumber":62,"Velocity":50,"Duration":645161,"SoundDuration":645161,"Delta":408932513},{"NoteNumber":29,"Velocity":39,"Duration":645161,"SoundDuration":645161,"Delta":409255094},{"NoteNumber":41,"Velocity":47,"Duration":645161,"SoundDuration":645161,"Delta":409255094},{"NoteNumber":61,"Velocity":50,"Duration":663489,"SoundDuration":663489,"Delta":409577675},{"NoteNumber":66,"Velocity":50,"Duration":663489,"SoundDuration":663489,"Delta":409577675},{"NoteNumber":69,"Velocity":59,"Duration":663489,"SoundDuration":663489,"Delta":409577675},{"NoteNumber":30,"Velocity":39,"Duration":660057,"SoundDuration":660057,"Delta":409900256},{"NoteNumber":42,"Velocity":47,"Duration":660057,"SoundDuration":660057,"Delta":409900256},{"NoteNumber":59,"Velocity":51,"Duration":638298,"SoundDuration":638298,"Delta":410241165},{"NoteNumber":62,"Velocity":51,"Duration":638298,"SoundDuration":638298,"Delta":410241165},{"NoteNumber":69,"Velocity":65,"Duration":638298,"SoundDuration":638298,"Delta":410241165},{"NoteNumber":65,"Velocity":55,"Duration":638298,"SoundDuration":638298,"Delta":410241165},{"NoteNumber":32,"Velocity":39,"Duration":638298,"SoundDuration":638298,"Delta":410560314},{"NoteNumber":44,"Velocity":47,"Duration":638298,"SoundDuration":638298,"Delta":410560314},{"NoteNumber":62,"Velocity":50,"Duration":638297,"SoundDuration":638297,"Delta":410879463},{"NoteNumber":59,"Velocity":50,"Duration":638297,"SoundDuration":638297,"Delta":410879463},{"NoteNumber":68,"Velocity":59,"Duration":638297,"SoundDuration":638297,"Delta":410879463},{"NoteNumber":65,"Velocity":59,"Duration":638297,"SoundDuration":638297,"Delta":410879463},{"NoteNumber":33,"Velocity":41,"Duration":319148,"SoundDuration":319148,"Delta":411198612},{"NoteNumber":45,"Velocity":49,"Duration":319148,"SoundDuration":319148,"Delta":411198612},{"NoteNumber":63,"Velocity":50,"Duration":663976,"SoundDuration":663976,"Delta":411517761},{"NoteNumber":57,"Velocity":50,"Duration":663976,"SoundDuration":663976,"Delta":411517761},{"NoteNumber":66,"Velocity":59,"Duration":663976,"SoundDuration":663976,"Delta":411517761},{"NoteNumber":35,"Velocity":44,"Duration":319149,"SoundDuration":319149,"Delta":411517761},{"NoteNumber":47,"Velocity":52,"Duration":319149,"SoundDuration":319149,"Delta":411517761},{"NoteNumber":36,"Velocity":46,"Duration":344827,"SoundDuration":344827,"Delta":411836910},{"NoteNumber":48,"Velocity":55,"Duration":344827,"SoundDuration":344827,"Delta":411836910},{"NoteNumber":63,"Velocity":56,"Duration":947368,"SoundDuration":947368,"Delta":412181737},{"NoteNumber":66,"Velocity":66,"Duration":1894737,"SoundDuration":1894737,"Delta":412181737},{"NoteNumber":57,"Velocity":56,"Duration":1894737,"SoundDuration":1894737,"Delta":412181737},{"NoteNumber":37,"Velocity":42,"Duration":315789,"SoundDuration":315789,"Delta":412181737},{"NoteNumber":49,"Velocity":50,"Duration":315789,"SoundDuration":315789,"Delta":412181737},{"NoteNumber":36,"Velocity":36,"Duration":315789,"SoundDuration":315789,"Delta":412497527},{"NoteNumber":48,"Velocity":43,"Duration":315789,"SoundDuration":315789,"Delta":412497527},{"NoteNumber":37,"Velocity":41,"Duration":315789,"SoundDuration":315789,"Delta":412813316},{"NoteNumber":49,"Velocity":49,"Duration":315789,"SoundDuration":315789,"Delta":412813316},{"NoteNumber":60,"Velocity":55,"Duration":315789,"SoundDuration":315789,"Delta":413129106},{"NoteNumber":36,"Velocity":36,"Duration":315789,"SoundDuration":315789,"Delta":413129106},{"NoteNumber":48,"Velocity":43,"Duration":315789,"SoundDuration":315789,"Delta":413129106},{"NoteNumber":61,"Velocity":55,"Duration":315789,"SoundDuration":315789,"Delta":413444895},{"NoteNumber":37,"Velocity":39,"Duration":315789,"SoundDuration":315789,"Delta":413444895},{"NoteNumber":49,"Velocity":46,"Duration":315789,"SoundDuration":315789,"Delta":413444895},{"NoteNumber":60,"Velocity":55,"Duration":315789,"SoundDuration":315789,"Delta":413760685},{"NoteNumber":36,"Velocity":35,"Duration":315789,"SoundDuration":315789,"Delta":413760685},{"NoteNumber":48,"Velocity":42,"Duration":315789,"SoundDuration":315789,"Delta":413760685},{"NoteNumber":56,"Velocity":50,"Duration":964912,"SoundDuration":964912,"Delta":414076474},{"NoteNumber":65,"Velocity":59,"Duration":1912280,"SoundDuration":1912280,"Delta":414076474},{"NoteNumber":61,"Velocity":50,"Duration":1912280,"SoundDuration":1912280,"Delta":414076474},{"NoteNumber":37,"Velocity":40,"Duration":315789,"SoundDuration":315789,"Delta":414076474},{"NoteNumber":49,"Velocity":48,"Duration":315789,"SoundDuration":315789,"Delta":414076474},{"NoteNumber":53,"Velocity":36,"Duration":315789,"SoundDuration":315789,"Delta":414392264},{"NoteNumber":56,"Velocity":46,"Duration":964912,"SoundDuration":964912,"Delta":414708053},{"NoteNumber":68,"Velocity":57,"Duration":315789,"SoundDuration":315789,"Delta":415041386},{"NoteNumber":53,"Velocity":36,"Duration":315789,"SoundDuration":315789,"Delta":415041386},{"NoteNumber":71,"Velocity":60,"Duration":315789,"SoundDuration":315789,"Delta":415357176},{"NoteNumber":56,"Velocity":44,"Duration":631578,"SoundDuration":631578,"Delta":415357176},{"NoteNumber":74,"Velocity":63,"Duration":315789,"SoundDuration":315789,"Delta":415672965},{"NoteNumber":59,"Velocity":36,"Duration":315789,"SoundDuration":315789,"Delta":415672965},{"NoteNumber":68,"Velocity":55,"Duration":639785,"SoundDuration":639785,"Delta":415988755},{"NoteNumber":62,"Velocity":46,"Duration":639785,"SoundDuration":639785,"Delta":415988755},{"NoteNumber":74,"Velocity":65,"Duration":639785,"SoundDuration":639785,"Delta":415988755},{"NoteNumber":65,"Velocity":46,"Duration":639785,"SoundDuration":639785,"Delta":415988755},{"NoteNumber":71,"Velocity":55,"Duration":639785,"SoundDuration":639785,"Delta":415988755},{"NoteNumber":49,"Velocity":31,"Duration":322580,"SoundDuration":322580,"Delta":415988755},{"NoteNumber":53,"Velocity":31,"Duration":322580,"SoundDuration":322580,"Delta":415988755},{"NoteNumber":56,"Velocity":37,"Duration":322580,"SoundDuration":322580,"Delta":415988755},{"NoteNumber":59,"Velocity":44,"Duration":322580,"SoundDuration":322580,"Delta":415988755},{"NoteNumber":37,"Velocity":51,"Duration":645161,"SoundDuration":645161,"Delta":416311336},{"NoteNumber":49,"Velocity":61,"Duration":645161,"SoundDuration":645161,"Delta":416311336},{"NoteNumber":68,"Velocity":50,"Duration":639785,"SoundDuration":639785,"Delta":416633916},{"NoteNumber":74,"Velocity":59,"Duration":639785,"SoundDuration":639785,"Delta":416633916},{"NoteNumber":62,"Velocity":50,"Duration":639785,"SoundDuration":639785,"Delta":416633916},{"NoteNumber":71,"Velocity":50,"Duration":639785,"SoundDuration":639785,"Delta":416633916},{"NoteNumber":41,"Velocity":39,"Duration":645161,"SoundDuration":645161,"Delta":416956497},{"NoteNumber":53,"Velocity":47,"Duration":645161,"SoundDuration":645161,"Delta":416956497},{"NoteNumber":61,"Velocity":50,"Duration":657807,"SoundDuration":657807,"Delta":417279078},{"NoteNumber":73,"Velocity":59,"Duration":657807,"SoundDuration":657807,"Delta":417279078},{"NoteNumber":69,"Velocity":50,"Duration":657807,"SoundDuration":657807,"Delta":417279078},{"NoteNumber":42,"Velocity":39,"Duration":660057,"SoundDuration":660057,"Delta":417601659},{"NoteNumber":54,"Velocity":47,"Duration":660057,"SoundDuration":660057,"Delta":417601659},{"NoteNumber":68,"Velocity":55,"Duration":632978,"SoundDuration":632978,"Delta":417942568},{"NoteNumber":73,"Velocity":65,"Duration":632978,"SoundDuration":632978,"Delta":417942568},{"NoteNumber":65,"Velocity":55,"Duration":632978,"SoundDuration":632978,"Delta":417942568},{"NoteNumber":62,"Velocity":55,"Duration":632978,"SoundDuration":632978,"Delta":417942568},{"NoteNumber":44,"Velocity":39,"Duration":638298,"SoundDuration":638298,"Delta":418261717},{"NoteNumber":56,"Velocity":47,"Duration":638298,"SoundDuration":638298,"Delta":418261717},{"NoteNumber":68,"Velocity":50,"Duration":632978,"SoundDuration":632978,"Delta":418580866},{"NoteNumber":71,"Velocity":59,"Duration":632978,"SoundDuration":632978,"Delta":418580866},{"NoteNumber":65,"Velocity":59,"Duration":632978,"SoundDuration":632978,"Delta":418580866},{"NoteNumber":62,"Velocity":50,"Duration":632978,"SoundDuration":632978,"Delta":418580866},{"NoteNumber":45,"Velocity":41,"Duration":319148,"SoundDuration":319148,"Delta":418900015},{"NoteNumber":57,"Velocity":49,"Duration":319148,"SoundDuration":319148,"Delta":418900015},{"NoteNumber":63,"Velocity":50,"Duration":658229,"SoundDuration":658229,"Delta":419219164},{"NoteNumber":66,"Velocity":50,"Duration":658229,"SoundDuration":658229,"Delta":419219164},{"NoteNumber":69,"Velocity":59,"Duration":658229,"SoundDuration":658229,"Delta":419219164},{"NoteNumber":47,"Velocity":44,"Duration":319149,"SoundDuration":319149,"Delta":419219164},{"NoteNumber":59,"Velocity":52,"Duration":319149,"SoundDuration":319149,"Delta":419219164},{"NoteNumber":48,"Velocity":46,"Duration":660617,"SoundDuration":660617,"Delta":419538313},{"NoteNumber":60,"Velocity":55,"Duration":660617,"SoundDuration":660617,"Delta":419538313},{"NoteNumber":66,"Velocity":56,"Duration":1277569,"SoundDuration":1277569,"Delta":419883140},{"NoteNumber":69,"Velocity":66,"Duration":1277569,"SoundDuration":1277569,"Delta":419883140},{"NoteNumber":49,"Velocity":36,"Duration":317777,"SoundDuration":317777,"Delta":420198930},{"NoteNumber":61,"Velocity":43,"Duration":317777,"SoundDuration":317777,"Delta":420198930},{"NoteNumber":60,"Velocity":55,"Duration":320750,"SoundDuration":320750,"Delta":420516707},{"NoteNumber":36,"Velocity":41,"Duration":320750,"SoundDuration":320750,"Delta":420516707},{"NoteNumber":48,"Velocity":49,"Duration":320750,"SoundDuration":320750,"Delta":420516707},{"NoteNumber":61,"Velocity":55,"Duration":323252,"SoundDuration":323252,"Delta":420837457},{"NoteNumber":37,"Velocity":36,"Duration":323252,"SoundDuration":323252,"Delta":420837457},{"NoteNumber":49,"Velocity":43,"Duration":323252,"SoundDuration":323252,"Delta":420837457},{"NoteNumber":65,"Velocity":51,"Duration":655996,"SoundDuration":655996,"Delta":421160710},{"NoteNumber":68,"Velocity":51,"Duration":655996,"SoundDuration":655996,"Delta":421160710},{"NoteNumber":60,"Velocity":55,"Duration":326325,"SoundDuration":326325,"Delta":421160710},{"NoteNumber":36,"Velocity":39,"Duration":326325,"SoundDuration":326325,"Delta":421160710},{"NoteNumber":48,"Velocity":46,"Duration":326325,"SoundDuration":326325,"Delta":421160710},{"NoteNumber":61,"Velocity":55,"Duration":329670,"SoundDuration":329670,"Delta":421487036},{"NoteNumber":37,"Velocity":35,"Duration":329670,"SoundDuration":329670,"Delta":421487036},{"NoteNumber":49,"Velocity":42,"Duration":329670,"SoundDuration":329670,"Delta":421487036},{"NoteNumber":61,"Velocity":50,"Duration":666483,"SoundDuration":666483,"Delta":421816706},{"NoteNumber":56,"Velocity":50,"Duration":666483,"SoundDuration":666483,"Delta":421816706},{"NoteNumber":65,"Velocity":50,"Duration":666483,"SoundDuration":666483,"Delta":421816706},{"NoteNumber":68,"Velocity":59,"Duration":666483,"SoundDuration":666483,"Delta":421816706},{"NoteNumber":48,"Velocity":46,"Duration":333150,"SoundDuration":333150,"Delta":421816706},{"NoteNumber":36,"Velocity":39,"Duration":333150,"SoundDuration":333150,"Delta":421816706},{"NoteNumber":37,"Velocity":35,"Duration":333333,"SoundDuration":333333,"Delta":422149856},{"NoteNumber":49,"Velocity":42,"Duration":333333,"SoundDuration":333333,"Delta":422149856},{"NoteNumber":55,"Velocity":33,"Duration":674157,"SoundDuration":674157,"Delta":422483190},{"NoteNumber":58,"Velocity":33,"Duration":674157,"SoundDuration":674157,"Delta":422483190},{"NoteNumber":64,"Velocity":39,"Duration":674157,"SoundDuration":674157,"Delta":422483190},{"NoteNumber":67,"Velocity":48,"Duration":1179775,"SoundDuration":1179775,"Delta":422483190},{"NoteNumber":37,"Velocity":34,"Duration":337078,"SoundDuration":337078,"Delta":422483190},{"NoteNumber":46,"Velocity":30,"Duration":337078,"SoundDuration":337078,"Delta":422820268},{"NoteNumber":55,"Velocity":33,"Duration":674157,"SoundDuration":674157,"Delta":423157347},{"NoteNumber":59,"Velocity":33,"Duration":674157,"SoundDuration":674157,"Delta":423157347},{"NoteNumber":62,"Velocity":39,"Duration":674157,"SoundDuration":674157,"Delta":423157347},{"NoteNumber":38,"Velocity":33,"Duration":337078,"SoundDuration":337078,"Delta":423157347},{"NoteNumber":47,"Velocity":30,"Duration":337078,"SoundDuration":337078,"Delta":423494426},{"NoteNumber":67,"Velocity":47,"Duration":168539,"SoundDuration":168539,"Delta":423662965},{"NoteNumber":83,"Velocity":63,"Duration":1333497,"SoundDuration":1333497,"Delta":423831505},{"NoteNumber":31,"Velocity":33,"Duration":337078,"SoundDuration":337078,"Delta":423831505},{"NoteNumber":43,"Velocity":28,"Duration":337078,"SoundDuration":337078,"Delta":424168583},{"NoteNumber":71,"Velocity":47,"Duration":659340,"SoundDuration":659340,"Delta":424505662},{"NoteNumber":50,"Velocity":28,"Duration":329670,"SoundDuration":329670,"Delta":424505662},{"NoteNumber":43,"Velocity":28,"Duration":329670,"SoundDuration":329670,"Delta":424835332},{"NoteNumber":69,"Velocity":37,"Duration":685091,"SoundDuration":685091,"Delta":425165003},{"NoteNumber":81,"Velocity":50,"Duration":685091,"SoundDuration":685091,"Delta":425165003},{"NoteNumber":50,"Velocity":28,"Duration":329670,"SoundDuration":329670,"Delta":425165003},{"NoteNumber":43,"Velocity":28,"Duration":361445,"SoundDuration":361445,"Delta":425494673},{"NoteNumber":69,"Velocity":40,"Duration":681818,"SoundDuration":681818,"Delta":425856119},{"NoteNumber":81,"Velocity":55,"Duration":681818,"SoundDuration":681818,"Delta":425856119},{"NoteNumber":35,"Velocity":33,"Duration":340909,"SoundDuration":340909,"Delta":425856119},{"NoteNumber":43,"Velocity":28,"Duration":340909,"SoundDuration":340909,"Delta":426197028},{"NoteNumber":67,"Velocity":35,"Duration":666666,"SoundDuration":666666,"Delta":426537937},{"NoteNumber":79,"Velocity":48,"Duration":666666,"SoundDuration":666666,"Delta":426537937},{"NoteNumber":55,"Velocity":28,"Duration":333333,"SoundDuration":333333,"Delta":426537937},{"NoteNumber":43,"Velocity":28,"Duration":333333,"SoundDuration":333333,"Delta":426871270},{"NoteNumber":67,"Velocity":36,"Duration":690475,"SoundDuration":690475,"Delta":427204603},{"NoteNumber":71,"Velocity":36,"Duration":333333,"SoundDuration":333333,"Delta":427204603},{"NoteNumber":79,"Velocity":49,"Duration":333333,"SoundDuration":333333,"Delta":427204603},{"NoteNumber":55,"Velocity":28,"Duration":333333,"SoundDuration":333333,"Delta":427204603},{"NoteNumber":74,"Velocity":33,"Duration":357142,"SoundDuration":357142,"Delta":427537936},{"NoteNumber":78,"Velocity":44,"Duration":357142,"SoundDuration":357142,"Delta":427537936},{"NoteNumber":43,"Velocity":28,"Duration":357142,"SoundDuration":357142,"Delta":427537936},{"NoteNumber":67,"Velocity":40,"Duration":674157,"SoundDuration":674157,"Delta":427895079},{"NoteNumber":74,"Velocity":48,"Duration":674157,"SoundDuration":674157,"Delta":427895079},{"NoteNumber":78,"Velocity":55,"Duration":674157,"SoundDuration":674157,"Delta":427895079},{"NoteNumber":36,"Velocity":33,"Duration":337078,"SoundDuration":337078,"Delta":427895079},{"NoteNumber":43,"Velocity":29,"Duration":337078,"SoundDuration":337078,"Delta":428232158},{"NoteNumber":67,"Velocity":36,"Duration":674157,"SoundDuration":674157,"Delta":428569237},{"NoteNumber":72,"Velocity":36,"Duration":674157,"SoundDuration":674157,"Delta":428569237},{"NoteNumber":76,"Velocity":49,"Duration":674157,"SoundDuration":674157,"Delta":428569237},{"NoteNumber":55,"Velocity":29,"Duration":337078,"SoundDuration":337078,"Delta":428569237},{"NoteNumber":43,"Velocity":29,"Duration":337078,"SoundDuration":337078,"Delta":428906315},{"NoteNumber":76,"Velocity":48,"Duration":348837,"SoundDuration":348837,"Delta":429243394},{"NoteNumber":72,"Velocity":35,"Duration":348837,"SoundDuration":348837,"Delta":429243394},{"NoteNumber":67,"Velocity":35,"Duration":348837,"SoundDuration":348837,"Delta":429243394},{"NoteNumber":55,"Velocity":29,"Duration":348837,"SoundDuration":348837,"Delta":429243394},{"NoteNumber":75,"Velocity":38,"Duration":348837,"SoundDuration":348837,"Delta":429592231},{"NoteNumber":78,"Velocity":51,"Duration":348837,"SoundDuration":348837,"Delta":429592231},{"NoteNumber":69,"Velocity":38,"Duration":348837,"SoundDuration":348837,"Delta":429592231},{"NoteNumber":72,"Velocity":38,"Duration":348837,"SoundDuration":348837,"Delta":429592231},{"NoteNumber":43,"Velocity":29,"Duration":348837,"SoundDuration":348837,"Delta":429592231},{"NoteNumber":75,"Velocity":40,"Duration":365853,"SoundDuration":365853,"Delta":429941069},{"NoteNumber":78,"Velocity":55,"Duration":365853,"SoundDuration":365853,"Delta":429941069},{"NoteNumber":69,"Velocity":40,"Duration":365853,"SoundDuration":365853,"Delta":429941069},{"NoteNumber":72,"Velocity":40,"Duration":365853,"SoundDuration":365853,"Delta":429941069},{"NoteNumber":31,"Velocity":33,"Duration":365853,"SoundDuration":365853,"Delta":429941069},{"NoteNumber":79,"Velocity":50,"Duration":348837,"SoundDuration":348837,"Delta":430306922},{"NoteNumber":74,"Velocity":37,"Duration":348837,"SoundDuration":348837,"Delta":430306922},{"NoteNumber":71,"Velocity":37,"Duration":348837,"SoundDuration":348837,"Delta":430306922},{"NoteNumber":43,"Velocity":28,"Duration":348837,"SoundDuration":348837,"Delta":430306922},{"NoteNumber":71,"Velocity":37,"Duration":697674,"SoundDuration":697674,"Delta":430655760},{"NoteNumber":74,"Velocity":37,"Duration":697674,"SoundDuration":697674,"Delta":430655760},{"NoteNumber":79,"Velocity":50,"Duration":697674,"SoundDuration":697674,"Delta":430655760},{"NoteNumber":55,"Velocity":28,"Duration":348837,"SoundDuration":348837,"Delta":430655760},{"NoteNumber":43,"Velocity":28,"Duration":348837,"SoundDuration":348837,"Delta":431004597},{"NoteNumber":67,"Velocity":40,"Duration":340909,"SoundDuration":340909,"Delta":431353434},{"NoteNumber":55,"Velocity":28,"Duration":170454,"SoundDuration":170454,"Delta":431353434},{"NoteNumber":43,"Velocity":24,"Duration":170454,"SoundDuration":170454,"Delta":431523889},{"NoteNumber":54,"Velocity":30,"Duration":365853,"SoundDuration":365853,"Delta":431694343},{"NoteNumber":66,"Velocity":36,"Duration":365853,"SoundDuration":365853,"Delta":431694343},{"NoteNumber":38,"Velocity":23,"Duration":365853,"SoundDuration":365853,"Delta":431694343},{"NoteNumber":42,"Velocity":28,"Duration":365853,"SoundDuration":365853,"Delta":431694343},{"NoteNumber":54,"Velocity":34,"Duration":725609,"SoundDuration":725609,"Delta":432060197},{"NoteNumber":66,"Velocity":40,"Duration":725609,"SoundDuration":725609,"Delta":432060197},{"NoteNumber":38,"Velocity":25,"Duration":365853,"SoundDuration":365853,"Delta":432060197},{"NoteNumber":42,"Velocity":30,"Duration":365853,"SoundDuration":365853,"Delta":432060197},{"NoteNumber":45,"Velocity":27,"Duration":365853,"SoundDuration":365853,"Delta":432426051},{"NoteNumber":57,"Velocity":31,"Duration":708333,"SoundDuration":708333,"Delta":432791904},{"NoteNumber":69,"Velocity":37,"Duration":708333,"SoundDuration":708333,"Delta":432791904},{"NoteNumber":66,"Velocity":31,"Duration":708333,"SoundDuration":708333,"Delta":432791904},{"NoteNumber":61,"Velocity":31,"Duration":708333,"SoundDuration":708333,"Delta":432791904},{"NoteNumber":37,"Velocity":22,"Duration":357142,"SoundDuration":357142,"Delta":432791904},{"NoteNumber":42,"Velocity":22,"Duration":357142,"SoundDuration":357142,"Delta":432791904},{"NoteNumber":45,"Velocity":27,"Duration":357142,"SoundDuration":357142,"Delta":432791904},{"NoteNumber":49,"Velocity":27,"Duration":357142,"SoundDuration":357142,"Delta":433149047},{"NoteNumber":61,"Velocity":31,"Duration":740259,"SoundDuration":740259,"Delta":433506190},{"NoteNumber":73,"Velocity":37,"Duration":740259,"SoundDuration":740259,"Delta":433506190},{"NoteNumber":69,"Velocity":31,"Duration":740259,"SoundDuration":740259,"Delta":433506190},{"NoteNumber":66,"Velocity":31,"Duration":740259,"SoundDuration":740259,"Delta":433506190},{"NoteNumber":37,"Velocity":22,"Duration":357142,"SoundDuration":357142,"Delta":433506190},{"NoteNumber":42,"Velocity":22,"Duration":357142,"SoundDuration":357142,"Delta":433506190},{"NoteNumber":45,"Velocity":27,"Duration":357142,"SoundDuration":357142,"Delta":433506190},{"NoteNumber":49,"Velocity":27,"Duration":389610,"SoundDuration":389610,"Delta":433863333},{"NoteNumber":61,"Velocity":34,"Duration":1431112,"SoundDuration":1431112,"Delta":434252943},{"NoteNumber":73,"Velocity":41,"Duration":1431112,"SoundDuration":1431112,"Delta":434252943},{"NoteNumber":68,"Velocity":34,"Duration":1431112,"SoundDuration":1431112,"Delta":434252943},{"NoteNumber":65,"Velocity":34,"Duration":1431112,"SoundDuration":1431112,"Delta":434252943},{"NoteNumber":37,"Velocity":28,"Duration":365853,"SoundDuration":365853,"Delta":434252943},{"NoteNumber":41,"Velocity":28,"Duration":365853,"SoundDuration":365853,"Delta":434252943},{"NoteNumber":44,"Velocity":33,"Duration":365853,"SoundDuration":365853,"Delta":434252943},{"NoteNumber":49,"Velocity":28,"Duration":365853,"SoundDuration":365853,"Delta":434618797},{"NoteNumber":37,"Velocity":23,"Duration":357142,"SoundDuration":357142,"Delta":434984651},{"NoteNumber":41,"Velocity":23,"Duration":357142,"SoundDuration":357142,"Delta":434984651},{"NoteNumber":44,"Velocity":28,"Duration":357142,"SoundDuration":357142,"Delta":434984651},{"NoteNumber":49,"Velocity":28,"Duration":357142,"SoundDuration":357142,"Delta":435341793},{"NoteNumber":61,"Velocity":29,"Duration":750476,"SoundDuration":750476,"Delta":435698936},{"NoteNumber":73,"Velocity":35,"Duration":750476,"SoundDuration":750476,"Delta":435698936},{"NoteNumber":69,"Velocity":29,"Duration":750476,"SoundDuration":750476,"Delta":435698936},{"NoteNumber":66,"Velocity":29,"Duration":750476,"SoundDuration":750476,"Delta":435698936},{"NoteNumber":42,"Velocity":28,"Duration":357142,"SoundDuration":357142,"Delta":435698936},{"NoteNumber":45,"Velocity":28,"Duration":357142,"SoundDuration":357142,"Delta":435698936},{"NoteNumber":49,"Velocity":28,"Duration":399999,"SoundDuration":399999,"Delta":436056079},{"NoteNumber":61,"Velocity":36,"Duration":740740,"SoundDuration":740740,"Delta":436456079},{"NoteNumber":69,"Velocity":36,"Duration":740740,"SoundDuration":740740,"Delta":436456079},{"NoteNumber":73,"Velocity":43,"Duration":740740,"SoundDuration":740740,"Delta":436456079},{"NoteNumber":42,"Velocity":26,"Duration":370370,"SoundDuration":370370,"Delta":436456079},{"NoteNumber":45,"Velocity":31,"Duration":370370,"SoundDuration":370370,"Delta":436456079},{"NoteNumber":49,"Velocity":26,"Duration":370370,"SoundDuration":370370,"Delta":436826449},{"NoteNumber":62,"Velocity":34,"Duration":740740,"SoundDuration":740740,"Delta":437196819},{"NoteNumber":67,"Velocity":34,"Duration":740740,"SoundDuration":740740,"Delta":437196819},{"NoteNumber":74,"Velocity":40,"Duration":740740,"SoundDuration":740740,"Delta":437196819},{"NoteNumber":35,"Velocity":22,"Duration":370370,"SoundDuration":370370,"Delta":437196819},{"NoteNumber":47,"Velocity":26,"Duration":370370,"SoundDuration":370370,"Delta":437196819},{"NoteNumber":50,"Velocity":26,"Duration":370370,"SoundDuration":370370,"Delta":437567190},{"NoteNumber":55,"Velocity":30,"Duration":740740,"SoundDuration":740740,"Delta":437937560},{"NoteNumber":67,"Velocity":36,"Duration":740740,"SoundDuration":740740,"Delta":437937560},{"NoteNumber":35,"Velocity":22,"Duration":370370,"SoundDuration":370370,"Delta":437937560},{"NoteNumber":43,"Velocity":26,"Duration":370370,"SoundDuration":370370,"Delta":437937560},{"NoteNumber":47,"Velocity":26,"Duration":364197,"SoundDuration":364197,"Delta":438307930},{"NoteNumber":59,"Velocity":31,"Duration":789473,"SoundDuration":789473,"Delta":438678300},{"NoteNumber":71,"Velocity":37,"Duration":789473,"SoundDuration":789473,"Delta":438678300},{"NoteNumber":35,"Velocity":26,"Duration":394736,"SoundDuration":394736,"Delta":438678300},{"NoteNumber":47,"Velocity":31,"Duration":394736,"SoundDuration":394736,"Delta":438678300},{"NoteNumber":47,"Velocity":24,"Duration":394736,"SoundDuration":394736,"Delta":439073037},{"NoteNumber":61,"Velocity":37,"Duration":789473,"SoundDuration":789473,"Delta":439467774},{"NoteNumber":37,"Velocity":20,"Duration":394736,"SoundDuration":394736,"Delta":439467774},{"NoteNumber":49,"Velocity":24,"Duration":394736,"SoundDuration":394736,"Delta":439467774},{"NoteNumber":49,"Velocity":24,"Duration":394736,"SoundDuration":394736,"Delta":439862511},{"NoteNumber":65,"Velocity":31,"Duration":829519,"SoundDuration":829519,"Delta":440257247},{"NoteNumber":53,"Velocity":26,"Duration":829519,"SoundDuration":829519,"Delta":440257247},{"NoteNumber":37,"Velocity":24,"Duration":394736,"SoundDuration":394736,"Delta":440257247},{"NoteNumber":41,"Velocity":24,"Duration":434782,"SoundDuration":434782,"Delta":440651984},{"NoteNumber":66,"Velocity":38,"Duration":810811,"SoundDuration":810811,"Delta":441086767},{"NoteNumber":54,"Velocity":32,"Duration":810811,"SoundDuration":810811,"Delta":441086767},{"NoteNumber":30,"Velocity":29,"Duration":405405,"SoundDuration":405405,"Delta":441086767},{"NoteNumber":37,"Velocity":22,"Duration":405405,"SoundDuration":405405,"Delta":441492172},{"NoteNumber":42,"Velocity":26,"Duration":405405,"SoundDuration":405405,"Delta":441492172},{"NoteNumber":73,"Velocity":41,"Duration":1184210,"SoundDuration":1184210,"Delta":441897578},{"NoteNumber":61,"Velocity":34,"Duration":1184210,"SoundDuration":1184210,"Delta":441897578},{"NoteNumber":29,"Velocity":26,"Duration":394736,"SoundDuration":394736,"Delta":441897578},{"NoteNumber":37,"Velocity":21,"Duration":394736,"SoundDuration":394736,"Delta":442292314},{"NoteNumber":44,"Velocity":24,"Duration":394736,"SoundDuration":394736,"Delta":442292314},{"NoteNumber":29,"Velocity":23,"Duration":394736,"SoundDuration":394736,"Delta":442687051},{"NoteNumber":68,"Velocity":29,"Duration":447761,"SoundDuration":447761,"Delta":443081788},{"NoteNumber":56,"Velocity":24,"Duration":447761,"SoundDuration":447761,"Delta":443081788},{"NoteNumber":37,"Velocity":19,"Duration":447761,"SoundDuration":447761,"Delta":443081788},{"NoteNumber":44,"Velocity":22,"Duration":447761,"SoundDuration":447761,"Delta":443081788},{"NoteNumber":69,"Velocity":31,"Duration":845070,"SoundDuration":845070,"Delta":443529549},{"NoteNumber":57,"Velocity":26,"Duration":845070,"SoundDuration":845070,"Delta":443529549},{"NoteNumber":30,"Velocity":24,"Duration":422535,"SoundDuration":422535,"Delta":443529549},{"NoteNumber":37,"Velocity":19,"Duration":422535,"SoundDuration":422535,"Delta":443952084},{"NoteNumber":45,"Velocity":23,"Duration":422535,"SoundDuration":422535,"Delta":443952084},{"NoteNumber":81,"Velocity":42,"Duration":1267605,"SoundDuration":1267605,"Delta":444374620},{"NoteNumber":69,"Velocity":34,"Duration":1267605,"SoundDuration":1267605,"Delta":444374620},{"NoteNumber":37,"Velocity":18,"Duration":422535,"SoundDuration":422535,"Delta":444374620},{"NoteNumber":49,"Velocity":18,"Duration":422535,"SoundDuration":422535,"Delta":444797155},{"NoteNumber":42,"Velocity":15,"Duration":422535,"SoundDuration":422535,"Delta":444797155},{"NoteNumber":37,"Velocity":18,"Duration":422535,"SoundDuration":422535,"Delta":445219690},{"NoteNumber":77,"Velocity":25,"Duration":468750,"SoundDuration":468750,"Delta":445642225},{"NoteNumber":65,"Velocity":21,"Duration":468750,"SoundDuration":468750,"Delta":445642225},{"NoteNumber":49,"Velocity":18,"Duration":468750,"SoundDuration":468750,"Delta":445642225},{"NoteNumber":38,"Velocity":24,"Duration":326086,"SoundDuration":326086,"Delta":446763149},{"NoteNumber":50,"Velocity":29,"Duration":326086,"SoundDuration":326086,"Delta":446763149},{"NoteNumber":69,"Velocity":23,"Duration":326086,"SoundDuration":326086,"Delta":447415323},{"NoteNumber":66,"Velocity":19,"Duration":326086,"SoundDuration":326086,"Delta":447415323},{"NoteNumber":62,"Velocity":19,"Duration":326086,"SoundDuration":326086,"Delta":447415323},{"NoteNumber":57,"Velocity":19,"Duration":326086,"SoundDuration":326086,"Delta":447415323},{"NoteNumber":69,"Velocity":23,"Duration":326086,"SoundDuration":326086,"Delta":448067497},{"NoteNumber":66,"Velocity":19,"Duration":326086,"SoundDuration":326086,"Delta":448067497},{"NoteNumber":62,"Velocity":19,"Duration":326086,"SoundDuration":326086,"Delta":448067497},{"NoteNumber":57,"Velocity":19,"Duration":326086,"SoundDuration":326086,"Delta":448067497},{"NoteNumber":38,"Velocity":23,"Duration":326086,"SoundDuration":326086,"Delta":448719671},{"NoteNumber":50,"Velocity":28,"Duration":326086,"SoundDuration":326086,"Delta":448719671},{"NoteNumber":78,"Velocity":43,"Duration":970108,"SoundDuration":970108,"Delta":449371845},{"NoteNumber":69,"Velocity":23,"Duration":326086,"SoundDuration":326086,"Delta":449371845},{"NoteNumber":66,"Velocity":19,"Duration":326086,"SoundDuration":326086,"Delta":449371845},{"NoteNumber":62,"Velocity":19,"Duration":326086,"SoundDuration":326086,"Delta":449371845},{"NoteNumber":57,"Velocity":19,"Duration":326086,"SoundDuration":326086,"Delta":449371845},{"NoteNumber":69,"Velocity":23,"Duration":326086,"SoundDuration":326086,"Delta":450024019},{"NoteNumber":66,"Velocity":19,"Duration":326086,"SoundDuration":326086,"Delta":450024019},{"NoteNumber":62,"Velocity":19,"Duration":326086,"SoundDuration":326086,"Delta":450024019},{"NoteNumber":57,"Velocity":19,"Duration":326086,"SoundDuration":326086,"Delta":450024019},{"NoteNumber":78,"Velocity":44,"Duration":646739,"SoundDuration":646739,"Delta":450350106},{"NoteNumber":38,"Velocity":22,"Duration":326086,"SoundDuration":326086,"Delta":450676193},{"NoteNumber":50,"Velocity":27,"Duration":326086,"SoundDuration":326086,"Delta":450676193},{"NoteNumber":78,"Velocity":44,"Duration":643291,"SoundDuration":643291,"Delta":451002280},{"NoteNumber":81,"Velocity":61,"Duration":639785,"SoundDuration":639785,"Delta":451328367},{"NoteNumber":69,"Velocity":23,"Duration":322580,"SoundDuration":322580,"Delta":451328367},{"NoteNumber":66,"Velocity":19,"Duration":322580,"SoundDuration":322580,"Delta":451328367},{"NoteNumber":62,"Velocity":19,"Duration":322580,"SoundDuration":322580,"Delta":451328367},{"NoteNumber":57,"Velocity":19,"Duration":322580,"SoundDuration":322580,"Delta":451328367},{"NoteNumber":78,"Velocity":49,"Duration":639785,"SoundDuration":639785,"Delta":451650948},{"NoteNumber":86,"Velocity":74,"Duration":645161,"SoundDuration":645161,"Delta":451973529},{"NoteNumber":69,"Velocity":23,"Duration":322580,"SoundDuration":322580,"Delta":451973529},{"NoteNumber":66,"Velocity":19,"Duration":322580,"SoundDuration":322580,"Delta":451973529},{"NoteNumber":62,"Velocity":19,"Duration":322580,"SoundDuration":322580,"Delta":451973529},{"NoteNumber":57,"Velocity":19,"Duration":322580,"SoundDuration":322580,"Delta":451973529},{"NoteNumber":78,"Velocity":54,"Duration":636410,"SoundDuration":636410,"Delta":452296110},{"NoteNumber":88,"Velocity":71,"Duration":638298,"SoundDuration":638298,"Delta":452618690},{"NoteNumber":38,"Velocity":22,"Duration":319148,"SoundDuration":319148,"Delta":452618690},{"NoteNumber":50,"Velocity":26,"Duration":319148,"SoundDuration":319148,"Delta":452618690},{"NoteNumber":78,"Velocity":52,"Duration":632978,"SoundDuration":632978,"Delta":452937839},{"NoteNumber":90,"Velocity":71,"Duration":655592,"SoundDuration":655592,"Delta":453256988},{"NoteNumber":69,"Velocity":23,"Duration":319148,"SoundDuration":319148,"Delta":453256988},{"NoteNumber":66,"Velocity":19,"Duration":319148,"SoundDuration":319148,"Delta":453256988},{"NoteNumber":62,"Velocity":19,"Duration":319148,"SoundDuration":319148,"Delta":453256988},{"NoteNumber":57,"Velocity":19,"Duration":319148,"SoundDuration":319148,"Delta":453256988},{"NoteNumber":78,"Velocity":45,"Duration":336443,"SoundDuration":336443,"Delta":453576137},{"NoteNumber":90,"Velocity":69,"Duration":97247,"SoundDuration":97247,"Delta":453912581},{"NoteNumber":69,"Velocity":23,"Duration":322683,"SoundDuration":322683,"Delta":453912581},{"NoteNumber":64,"Velocity":19,"Duration":322683,"SoundDuration":322683,"Delta":453912581},{"NoteNumber":61,"Velocity":19,"Duration":322683,"SoundDuration":322683,"Delta":453912581},{"NoteNumber":57,"Velocity":19,"Duration":322683,"SoundDuration":322683,"Delta":453912581},{"NoteNumber":91,"Velocity":61,"Duration":83930,"SoundDuration":83930,"Delta":454009828},{"NoteNumber":90,"Velocity":67,"Duration":73585,"SoundDuration":73585,"Delta":454093759},{"NoteNumber":91,"Velocity":63,"Duration":67920,"SoundDuration":67920,"Delta":454167344},{"NoteNumber":90,"Velocity":63,"Duration":67390,"SoundDuration":67390,"Delta":454235264},{"NoteNumber":91,"Velocity":71,"Duration":68290,"SoundDuration":68290,"Delta":454302655},{"NoteNumber":90,"Velocity":69,"Duration":70274,"SoundDuration":70274,"Delta":454370945},{"NoteNumber":91,"Velocity":78,"Duration":72304,"SoundDuration":72304,"Delta":454441219},{"NoteNumber":93,"Velocity":83,"Duration":646356,"SoundDuration":646356,"Delta":454513524},{"NoteNumber":37,"Velocity":22,"Duration":337078,"SoundDuration":337078,"Delta":454513524},{"NoteNumber":49,"Velocity":27,"Duration":337078,"SoundDuration":337078,"Delta":454513524},{"NoteNumber":81,"Velocity":57,"Duration":1224226,"SoundDuration":1224226,"Delta":454850603},{"NoteNumber":91,"Velocity":75,"Duration":618556,"SoundDuration":618556,"Delta":455159881},{"NoteNumber":69,"Velocity":23,"Duration":309278,"SoundDuration":309278,"Delta":455159881},{"NoteNumber":64,"Velocity":19,"Duration":309278,"SoundDuration":309278,"Delta":455159881},{"NoteNumber":61,"Velocity":19,"Duration":309278,"SoundDuration":309278,"Delta":455159881},{"NoteNumber":57,"Velocity":19,"Duration":309278,"SoundDuration":309278,"Delta":455159881},{"NoteNumber":91,"Velocity":77,"Duration":824742,"SoundDuration":824742,"Delta":455778437},{"NoteNumber":69,"Velocity":23,"Duration":309278,"SoundDuration":309278,"Delta":455778437},{"NoteNumber":64,"Velocity":19,"Duration":309278,"SoundDuration":309278,"Delta":455778437},{"NoteNumber":61,"Velocity":19,"Duration":309278,"SoundDuration":309278,"Delta":455778437},{"NoteNumber":57,"Velocity":19,"Duration":309278,"SoundDuration":309278,"Delta":455778437},{"NoteNumber":81,"Velocity":56,"Duration":618556,"SoundDuration":618556,"Delta":456087716},{"NoteNumber":37,"Velocity":22,"Duration":309278,"SoundDuration":309278,"Delta":456396994},{"NoteNumber":49,"Velocity":26,"Duration":309278,"SoundDuration":309278,"Delta":456396994},{"NoteNumber":88,"Velocity":68,"Duration":309278,"SoundDuration":309278,"Delta":456706272},{"NoteNumber":85,"Velocity":62,"Duration":309278,"SoundDuration":309278,"Delta":457015550},{"NoteNumber":69,"Velocity":23,"Duration":309278,"SoundDuration":309278,"Delta":457015550},{"NoteNumber":64,"Velocity":19,"Duration":309278,"SoundDuration":309278,"Delta":457015550},{"NoteNumber":61,"Velocity":19,"Duration":309278,"SoundDuration":309278,"Delta":457015550},{"NoteNumber":57,"Velocity":19,"Duration":309278,"SoundDuration":309278,"Delta":457015550},{"NoteNumber":86,"Velocity":65,"Duration":331109,"SoundDuration":331109,"Delta":457324829},{"NoteNumber":87,"Velocity":74,"Duration":294117,"SoundDuration":294117,"Delta":457655938},{"NoteNumber":69,"Velocity":23,"Duration":294117,"SoundDuration":294117,"Delta":457655938},{"NoteNumber":64,"Velocity":19,"Duration":294117,"SoundDuration":294117,"Delta":457655938},{"NoteNumber":61,"Velocity":19,"Duration":294117,"SoundDuration":294117,"Delta":457655938},{"NoteNumber":57,"Velocity":19,"Duration":294117,"SoundDuration":294117,"Delta":457655938},{"NoteNumber":88,"Velocity":64,"Duration":517618,"SoundDuration":517618,"Delta":457950056},{"NoteNumber":37,"Velocity":22,"Duration":303030,"SoundDuration":303030,"Delta":458265654},{"NoteNumber":49,"Velocity":27,"Duration":303030,"SoundDuration":303030,"Delta":458265654},{"NoteNumber":79,"Velocity":63,"Duration":202020,"SoundDuration":202020,"Delta":458467674},{"NoteNumber":78,"Velocity":64,"Duration":202020,"SoundDuration":202020,"Delta":458669695},{"NoteNumber":79,"Velocity":64,"Duration":198019,"SoundDuration":198019,"Delta":458871715},{"NoteNumber":69,"Velocity":23,"Duration":297029,"SoundDuration":297029,"Delta":458871715},{"NoteNumber":64,"Velocity":19,"Duration":297029,"SoundDuration":297029,"Delta":458871715},{"NoteNumber":61,"Velocity":19,"Duration":297029,"SoundDuration":297029,"Delta":458871715},{"NoteNumber":57,"Velocity":19,"Duration":297029,"SoundDuration":297029,"Delta":458871715},{"NoteNumber":81,"Velocity":66,"Duration":198019,"SoundDuration":198019,"Delta":459069735},{"NoteNumber":82,"Velocity":68,"Duration":198019,"SoundDuration":198019,"Delta":459267754},{"NoteNumber":85,"Velocity":70,"Duration":194174,"SoundDuration":194174,"Delta":459465774},{"NoteNumber":69,"Velocity":23,"Duration":291262,"SoundDuration":291262,"Delta":459465774},{"NoteNumber":64,"Velocity":19,"Duration":291262,"SoundDuration":291262,"Delta":459465774},{"NoteNumber":61,"Velocity":19,"Duration":291262,"SoundDuration":291262,"Delta":459465774},{"NoteNumber":57,"Velocity":19,"Duration":291262,"SoundDuration":291262,"Delta":459465774},{"NoteNumber":83,"Velocity":68,"Duration":194174,"SoundDuration":194174,"Delta":459659949},{"NoteNumber":81,"Velocity":66,"Duration":208118,"SoundDuration":208118,"Delta":459854124},{"NoteNumber":79,"Velocity":69,"Duration":198019,"SoundDuration":198019,"Delta":460062242},{"NoteNumber":37,"Velocity":22,"Duration":297029,"SoundDuration":297029,"Delta":460062242},{"NoteNumber":49,"Velocity":26,"Duration":297029,"SoundDuration":297029,"Delta":460062242},{"NoteNumber":78,"Velocity":65,"Duration":198019,"SoundDuration":198019,"Delta":460260262},{"NoteNumber":79,"Velocity":60,"Duration":219959,"SoundDuration":219959,"Delta":460458282},{"NoteNumber":80,"Velocity":69,"Duration":202020,"SoundDuration":202020,"Delta":460678241},{"NoteNumber":69,"Velocity":23,"Duration":303030,"SoundDuration":303030,"Delta":460678241},{"NoteNumber":64,"Velocity":19,"Duration":303030,"SoundDuration":303030,"Delta":460678241},{"NoteNumber":61,"Velocity":19,"Duration":303030,"SoundDuration":303030,"Delta":460678241},{"NoteNumber":57,"Velocity":19,"Duration":303030,"SoundDuration":303030,"Delta":460678241},{"NoteNumber":81,"Velocity":64,"Duration":202020,"SoundDuration":202020,"Delta":460880261},{"NoteNumber":76,"Velocity":59,"Duration":229076,"SoundDuration":229076,"Delta":461082282},{"NoteNumber":79,"Velocity":70,"Duration":319148,"SoundDuration":319148,"Delta":461311358},{"NoteNumber":69,"Velocity":26,"Duration":319148,"SoundDuration":319148,"Delta":461311358},{"NoteNumber":66,"Velocity":21,"Duration":319148,"SoundDuration":319148,"Delta":461311358},{"NoteNumber":62,"Velocity":21,"Duration":319148,"SoundDuration":319148,"Delta":461311358},{"NoteNumber":57,"Velocity":21,"Duration":319148,"SoundDuration":319148,"Delta":461311358},{"NoteNumber":78,"Velocity":64,"Duration":625271,"SoundDuration":625271,"Delta":461630507},{"NoteNumber":38,"Velocity":25,"Duration":306122,"SoundDuration":306122,"Delta":461949656},{"NoteNumber":50,"Velocity":31,"Duration":306122,"SoundDuration":306122,"Delta":461949656},{"NoteNumber":81,"Velocity":69,"Duration":612244,"SoundDuration":612244,"Delta":462255779},{"NoteNumber":66,"Velocity":26,"Duration":306122,"SoundDuration":306122,"Delta":462561901},{"NoteNumber":62,"Velocity":21,"Duration":306122,"SoundDuration":306122,"Delta":462561901},{"NoteNumber":57,"Velocity":21,"Duration":306122,"SoundDuration":306122,"Delta":462561901},{"NoteNumber":54,"Velocity":21,"Duration":306122,"SoundDuration":306122,"Delta":462561901},{"NoteNumber":86,"Velocity":76,"Duration":607142,"SoundDuration":607142,"Delta":462868024},{"NoteNumber":66,"Velocity":26,"Duration":306122,"SoundDuration":306122,"Delta":463174146},{"NoteNumber":62,"Velocity":21,"Duration":306122,"SoundDuration":306122,"Delta":463174146},{"NoteNumber":59,"Velocity":21,"Duration":306122,"SoundDuration":306122,"Delta":463174146},{"NoteNumber":54,"Velocity":21,"Duration":306122,"SoundDuration":306122,"Delta":463174146},{"NoteNumber":86,"Velocity":74,"Duration":628703,"SoundDuration":628703,"Delta":463480269},{"NoteNumber":35,"Velocity":25,"Duration":322580,"SoundDuration":322580,"Delta":463786391},{"NoteNumber":47,"Velocity":29,"Duration":322580,"SoundDuration":322580,"Delta":463786391},{"NoteNumber":88,"Velocity":78,"Duration":588235,"SoundDuration":588235,"Delta":464108972},{"NoteNumber":66,"Velocity":26,"Duration":294117,"SoundDuration":294117,"Delta":464403090},{"NoteNumber":62,"Velocity":21,"Duration":294117,"SoundDuration":294117,"Delta":464403090},{"NoteNumber":59,"Velocity":21,"Duration":294117,"SoundDuration":294117,"Delta":464403090},{"NoteNumber":54,"Velocity":21,"Duration":294117,"SoundDuration":294117,"Delta":464403090},{"NoteNumber":90,"Velocity":68,"Duration":322735,"SoundDuration":322735,"Delta":464697207},{"NoteNumber":90,"Velocity":62,"Duration":94198,"SoundDuration":94198,"Delta":465023189},{"NoteNumber":61,"Velocity":21,"Duration":339682,"SoundDuration":339682,"Delta":465023189},{"NoteNumber":66,"Velocity":26,"Duration":339682,"SoundDuration":339682,"Delta":465023189},{"NoteNumber":64,"Velocity":21,"Duration":339682,"SoundDuration":339682,"Delta":465023189},{"NoteNumber":58,"Velocity":21,"Duration":339682,"SoundDuration":339682,"Delta":465023189},{"NoteNumber":54,"Velocity":21,"Duration":339682,"SoundDuration":339682,"Delta":465023189},{"NoteNumber":91,"Velocity":59,"Duration":87391,"SoundDuration":87391,"Delta":465117388},{"NoteNumber":90,"Velocity":64,"Duration":81441,"SoundDuration":81441,"Delta":465204779},{"NoteNumber":91,"Velocity":60,"Duration":76651,"SoundDuration":76651,"Delta":465286221},{"NoteNumber":90,"Velocity":67,"Duration":75050,"SoundDuration":75050,"Delta":465362872},{"NoteNumber":91,"Velocity":62,"Duration":74529,"SoundDuration":74529,"Delta":465437923},{"NoteNumber":90,"Velocity":69,"Duration":73990,"SoundDuration":73990,"Delta":465512452},{"NoteNumber":91,"Velocity":65,"Duration":73481,"SoundDuration":73481,"Delta":465586443},{"NoteNumber":90,"Velocity":72,"Duration":72815,"SoundDuration":72815,"Delta":465659925},{"NoteNumber":34,"Velocity":25,"Duration":288145,"SoundDuration":288145,"Delta":465659925},{"NoteNumber":46,"Velocity":31,"Duration":288145,"SoundDuration":288145,"Delta":465659925},{"NoteNumber":91,"Velocity":66,"Duration":72028,"SoundDuration":72028,"Delta":465732740},{"NoteNumber":90,"Velocity":74,"Duration":71114,"SoundDuration":71114,"Delta":465804769},{"NoteNumber":91,"Velocity":70,"Duration":72187,"SoundDuration":72187,"Delta":465875883},{"NoteNumber":90,"Velocity":77,"Duration":99331,"SoundDuration":99331,"Delta":465948070},{"NoteNumber":89,"Velocity":79,"Duration":128612,"SoundDuration":128612,"Delta":466047402},{"NoteNumber":90,"Velocity":75,"Duration":149253,"SoundDuration":149253,"Delta":466176015},{"NoteNumber":93,"Velocity":84,"Duration":340909,"SoundDuration":340909,"Delta":466325269},{"NoteNumber":55,"Velocity":21,"Duration":340909,"SoundDuration":340909,"Delta":466325269},{"NoteNumber":67,"Velocity":26,"Duration":340909,"SoundDuration":340909,"Delta":466325269},{"NoteNumber":64,"Velocity":21,"Duration":340909,"SoundDuration":340909,"Delta":466325269},{"NoteNumber":61,"Velocity":21,"Duration":340909,"SoundDuration":340909,"Delta":466325269},{"NoteNumber":58,"Velocity":21,"Duration":340909,"SoundDuration":340909,"Delta":466325269},{"NoteNumber":91,"Velocity":67,"Duration":319148,"SoundDuration":319148,"Delta":466666178},{"NoteNumber":91,"Velocity":72,"Duration":853351,"SoundDuration":853351,"Delta":466985327},{"NoteNumber":55,"Velocity":21,"Duration":319149,"SoundDuration":319149,"Delta":466985327},{"NoteNumber":67,"Velocity":26,"Duration":319149,"SoundDuration":319149,"Delta":466985327},{"NoteNumber":64,"Velocity":21,"Duration":319149,"SoundDuration":319149,"Delta":466985327},{"NoteNumber":61,"Velocity":21,"Duration":319149,"SoundDuration":319149,"Delta":466985327},{"NoteNumber":58,"Velocity":21,"Duration":319149,"SoundDuration":319149,"Delta":466985327},{"NoteNumber":34,"Velocity":25,"Duration":322580,"SoundDuration":322580,"Delta":467623625},{"NoteNumber":46,"Velocity":29,"Duration":322580,"SoundDuration":322580,"Delta":467623625},{"NoteNumber":87,"Velocity":69,"Duration":215053,"SoundDuration":215053,"Delta":467838678},{"NoteNumber":88,"Velocity":72,"Duration":215053,"SoundDuration":215053,"Delta":468053732},{"NoteNumber":91,"Velocity":72,"Duration":215053,"SoundDuration":215053,"Delta":468268786},{"NoteNumber":55,"Velocity":21,"Duration":322580,"SoundDuration":322580,"Delta":468268786},{"NoteNumber":67,"Velocity":26,"Duration":322580,"SoundDuration":322580,"Delta":468268786},{"NoteNumber":64,"Velocity":21,"Duration":322580,"SoundDuration":322580,"Delta":468268786},{"NoteNumber":61,"Velocity":21,"Duration":322580,"SoundDuration":322580,"Delta":468268786},{"NoteNumber":58,"Velocity":21,"Duration":322580,"SoundDuration":322580,"Delta":468268786},{"NoteNumber":90,"Velocity":67,"Duration":215053,"SoundDuration":215053,"Delta":468483840},{"NoteNumber":88,"Velocity":64,"Duration":230592,"SoundDuration":230592,"Delta":468698894},{"NoteNumber":88,"Velocity":77,"Duration":860215,"SoundDuration":860215,"Delta":468935584},{"NoteNumber":61,"Velocity":21,"Duration":322580,"SoundDuration":322580,"Delta":468935584},{"NoteNumber":67,"Velocity":26,"Duration":322580,"SoundDuration":322580,"Delta":468935584},{"NoteNumber":64,"Velocity":21,"Duration":322580,"SoundDuration":322580,"Delta":468935584},{"NoteNumber":58,"Velocity":21,"Duration":322580,"SoundDuration":322580,"Delta":468935584},{"NoteNumber":55,"Velocity":21,"Duration":322580,"SoundDuration":322580,"Delta":468935584},{"NoteNumber":34,"Velocity":25,"Duration":322580,"SoundDuration":322580,"Delta":469580746},{"NoteNumber":46,"Velocity":31,"Duration":322580,"SoundDuration":322580,"Delta":469580746},{"NoteNumber":84,"Velocity":67,"Duration":215053,"SoundDuration":215053,"Delta":469795799},{"NoteNumber":85,"Velocity":64,"Duration":215053,"SoundDuration":215053,"Delta":470010853},{"NoteNumber":88,"Velocity":76,"Duration":212765,"SoundDuration":212765,"Delta":470225907},{"NoteNumber":55,"Velocity":21,"Duration":319148,"SoundDuration":319148,"Delta":470225907},{"NoteNumber":67,"Velocity":26,"Duration":319148,"SoundDuration":319148,"Delta":470225907},{"NoteNumber":64,"Velocity":21,"Duration":319148,"SoundDuration":319148,"Delta":470225907},{"NoteNumber":61,"Velocity":21,"Duration":319148,"SoundDuration":319148,"Delta":470225907},{"NoteNumber":58,"Velocity":21,"Duration":319148,"SoundDuration":319148,"Delta":470225907},{"NoteNumber":86,"Velocity":67,"Duration":212765,"SoundDuration":212765,"Delta":470438673},{"NoteNumber":85,"Velocity":65,"Duration":240691,"SoundDuration":240691,"Delta":470651439},{"NoteNumber":83,"Velocity":72,"Duration":159574,"SoundDuration":159574,"Delta":470892131},{"NoteNumber":54,"Velocity":21,"Duration":319148,"SoundDuration":319148,"Delta":470892131},{"NoteNumber":66,"Velocity":26,"Duration":319148,"SoundDuration":319148,"Delta":470892131},{"NoteNumber":64,"Velocity":21,"Duration":319148,"SoundDuration":319148,"Delta":470892131},{"NoteNumber":61,"Velocity":21,"Duration":319148,"SoundDuration":319148,"Delta":470892131},{"NoteNumber":58,"Velocity":21,"Duration":319148,"SoundDuration":319148,"Delta":470892131},{"NoteNumber":82,"Velocity":62,"Duration":159574,"SoundDuration":159574,"Delta":471051705},{"NoteNumber":86,"Velocity":66,"Duration":159574,"SoundDuration":159574,"Delta":471211280},{"NoteNumber":85,"Velocity":63,"Duration":159574,"SoundDuration":159574,"Delta":471370854},{"NoteNumber":84,"Velocity":72,"Duration":156250,"SoundDuration":156250,"Delta":471530429},{"NoteNumber":34,"Velocity":25,"Duration":312500,"SoundDuration":312500,"Delta":471530429},{"NoteNumber":46,"Velocity":29,"Duration":312500,"SoundDuration":312500,"Delta":471530429},{"NoteNumber":85,"Velocity":63,"Duration":156250,"SoundDuration":156250,"Delta":471686679},{"NoteNumber":76,"Velocity":66,"Duration":156250,"SoundDuration":156250,"Delta":471842929},{"NoteNumber":79,"Velocity":60,"Duration":156250,"SoundDuration":156250,"Delta":471999179},{"NoteNumber":77,"Velocity":72,"Duration":157894,"SoundDuration":157894,"Delta":472155429},{"NoteNumber":66,"Velocity":26,"Duration":315789,"SoundDuration":315789,"Delta":472155429},{"NoteNumber":54,"Velocity":21,"Duration":315789,"SoundDuration":315789,"Delta":472155429},{"NoteNumber":64,"Velocity":21,"Duration":315789,"SoundDuration":315789,"Delta":472155429},{"NoteNumber":61,"Velocity":21,"Duration":315789,"SoundDuration":315789,"Delta":472155429},{"NoteNumber":58,"Velocity":21,"Duration":315789,"SoundDuration":315789,"Delta":472155429},{"NoteNumber":78,"Velocity":62,"Duration":157894,"SoundDuration":157894,"Delta":472313323},{"NoteNumber":73,"Velocity":66,"Duration":157894,"SoundDuration":157894,"Delta":472471218},{"NoteNumber":76,"Velocity":61,"Duration":157894,"SoundDuration":157894,"Delta":472629113},{"NoteNumber":74,"Velocity":66,"Duration":689655,"SoundDuration":689655,"Delta":472787008},{"NoteNumber":59,"Velocity":21,"Duration":344827,"SoundDuration":344827,"Delta":472787008},{"NoteNumber":66,"Velocity":26,"Duration":344827,"SoundDuration":344827,"Delta":472787008},{"NoteNumber":62,"Velocity":21,"Duration":344827,"SoundDuration":344827,"Delta":472787008},{"NoteNumber":54,"Velocity":21,"Duration":344827,"SoundDuration":344827,"Delta":472787008},{"NoteNumber":83,"Velocity":70,"Duration":947368,"SoundDuration":947368,"Delta":473476663},{"NoteNumber":35,"Velocity":25,"Duration":315789,"SoundDuration":315789,"Delta":473476663},{"NoteNumber":47,"Velocity":31,"Duration":315789,"SoundDuration":315789,"Delta":473476663},{"NoteNumber":66,"Velocity":26,"Duration":315789,"SoundDuration":315789,"Delta":474108242},{"NoteNumber":62,"Velocity":21,"Duration":315789,"SoundDuration":315789,"Delta":474108242},{"NoteNumber":59,"Velocity":21,"Duration":315789,"SoundDuration":315789,"Delta":474108242},{"NoteNumber":54,"Velocity":21,"Duration":315789,"SoundDuration":315789,"Delta":474108242},{"NoteNumber":78,"Velocity":59,"Duration":315789,"SoundDuration":315789,"Delta":474424031},{"NoteNumber":79,"Velocity":66,"Duration":1270833,"SoundDuration":1270833,"Delta":474739821},{"NoteNumber":66,"Velocity":26,"Duration":333333,"SoundDuration":333333,"Delta":474739821},{"NoteNumber":64,"Velocity":21,"Duration":333333,"SoundDuration":333333,"Delta":474739821},{"NoteNumber":54,"Velocity":21,"Duration":333333,"SoundDuration":333333,"Delta":474739821},{"NoteNumber":58,"Velocity":21,"Duration":333333,"SoundDuration":333333,"Delta":474739821},{"NoteNumber":70,"Velocity":39,"Duration":619791,"SoundDuration":619791,"Delta":475073154},{"NoteNumber":76,"Velocity":46,"Duration":619791,"SoundDuration":619791,"Delta":475073154},{"NoteNumber":37,"Velocity":25,"Duration":312500,"SoundDuration":312500,"Delta":475385654},{"NoteNumber":49,"Velocity":29,"Duration":312500,"SoundDuration":312500,"Delta":475385654},{"NoteNumber":70,"Velocity":37,"Duration":619791,"SoundDuration":619791,"Delta":475698154},{"NoteNumber":76,"Velocity":44,"Duration":619791,"SoundDuration":619791,"Delta":475698154},{"NoteNumber":78,"Velocity":64,"Duration":657327,"SoundDuration":657327,"Delta":476010654},{"NoteNumber":66,"Velocity":26,"Duration":312500,"SoundDuration":312500,"Delta":476010654},{"NoteNumber":64,"Velocity":21,"Duration":312500,"SoundDuration":312500,"Delta":476010654},{"NoteNumber":54,"Velocity":21,"Duration":312500,"SoundDuration":312500,"Delta":476010654},{"NoteNumber":58,"Velocity":21,"Duration":312500,"SoundDuration":312500,"Delta":476010654},{"NoteNumber":70,"Velocity":39,"Duration":344827,"SoundDuration":344827,"Delta":476323154},{"NoteNumber":76,"Velocity":46,"Duration":344827,"SoundDuration":344827,"Delta":476323154},{"NoteNumber":71,"Velocity":43,"Duration":646356,"SoundDuration":646356,"Delta":476667981},{"NoteNumber":74,"Velocity":43,"Duration":646356,"SoundDuration":646356,"Delta":476667981},{"NoteNumber":78,"Velocity":66,"Duration":168539,"SoundDuration":168539,"Delta":476667981},{"NoteNumber":59,"Velocity":23,"Duration":337078,"SoundDuration":337078,"Delta":476667981},{"NoteNumber":66,"Velocity":28,"Duration":337078,"SoundDuration":337078,"Delta":476667981},{"NoteNumber":62,"Velocity":23,"Duration":337078,"SoundDuration":337078,"Delta":476667981},{"NoteNumber":54,"Velocity":23,"Duration":337078,"SoundDuration":337078,"Delta":476667981},{"NoteNumber":90,"Velocity":56,"Duration":168539,"SoundDuration":168539,"Delta":476836521},{"NoteNumber":85,"Velocity":59,"Duration":154639,"SoundDuration":154639,"Delta":477005060},{"NoteNumber":86,"Velocity":55,"Duration":154639,"SoundDuration":154639,"Delta":477159699},{"NoteNumber":88,"Velocity":66,"Duration":154639,"SoundDuration":154639,"Delta":477314338},{"NoteNumber":35,"Velocity":27,"Duration":309278,"SoundDuration":309278,"Delta":477314338},{"NoteNumber":47,"Velocity":34,"Duration":309278,"SoundDuration":309278,"Delta":477314338},{"NoteNumber":86,"Velocity":57,"Duration":154639,"SoundDuration":154639,"Delta":477468978},{"NoteNumber":82,"Velocity":59,"Duration":154639,"SoundDuration":154639,"Delta":477623617},{"NoteNumber":83,"Velocity":55,"Duration":154639,"SoundDuration":154639,"Delta":477778256},{"NoteNumber":85,"Velocity":66,"Duration":154639,"SoundDuration":154639,"Delta":477932895},{"NoteNumber":66,"Velocity":29,"Duration":309278,"SoundDuration":309278,"Delta":477932895},{"NoteNumber":62,"Velocity":23,"Duration":309278,"SoundDuration":309278,"Delta":477932895},{"NoteNumber":59,"Velocity":23,"Duration":309278,"SoundDuration":309278,"Delta":477932895},{"NoteNumber":54,"Velocity":23,"Duration":309278,"SoundDuration":309278,"Delta":477932895},{"NoteNumber":83,"Velocity":60,"Duration":154639,"SoundDuration":154639,"Delta":478087534},{"NoteNumber":86,"Velocity":66,"Duration":103092,"SoundDuration":103092,"Delta":478242173},{"NoteNumber":83,"Velocity":57,"Duration":120990,"SoundDuration":120990,"Delta":478345266},{"NoteNumber":78,"Velocity":50,"Duration":138290,"SoundDuration":138290,"Delta":478469729},{"NoteNumber":81,"Velocity":66,"Duration":344827,"SoundDuration":344827,"Delta":478605146},{"NoteNumber":66,"Velocity":29,"Duration":344827,"SoundDuration":344827,"Delta":478605146},{"NoteNumber":64,"Velocity":24,"Duration":344827,"SoundDuration":344827,"Delta":478605146},{"NoteNumber":54,"Velocity":24,"Duration":344827,"SoundDuration":344827,"Delta":478605146},{"NoteNumber":58,"Velocity":24,"Duration":344827,"SoundDuration":344827,"Delta":478605146},{"NoteNumber":79,"Velocity":60,"Duration":626315,"SoundDuration":626315,"Delta":478949973},{"NoteNumber":70,"Velocity":31,"Duration":626315,"SoundDuration":626315,"Delta":478949973},{"NoteNumber":76,"Velocity":31,"Duration":626315,"SoundDuration":626315,"Delta":478949973},{"NoteNumber":37,"Velocity":29,"Duration":315789,"SoundDuration":315789,"Delta":479265763},{"NoteNumber":49,"Velocity":33,"Duration":315789,"SoundDuration":315789,"Delta":479265763},{"NoteNumber":76,"Velocity":31,"Duration":626315,"SoundDuration":626315,"Delta":479581552},{"NoteNumber":70,"Velocity":31,"Duration":626315,"SoundDuration":626315,"Delta":479581552},{"NoteNumber":79,"Velocity":60,"Duration":626315,"SoundDuration":626315,"Delta":479581552},{"NoteNumber":66,"Velocity":30,"Duration":315789,"SoundDuration":315789,"Delta":479897342},{"NoteNumber":64,"Velocity":24,"Duration":315789,"SoundDuration":315789,"Delta":479897342},{"NoteNumber":54,"Velocity":24,"Duration":315789,"SoundDuration":315789,"Delta":479897342},{"NoteNumber":58,"Velocity":24,"Duration":315789,"SoundDuration":315789,"Delta":479897342},{"NoteNumber":78,"Velocity":64,"Duration":337078,"SoundDuration":337078,"Delta":480213131},{"NoteNumber":70,"Velocity":31,"Duration":337078,"SoundDuration":337078,"Delta":480213131},{"NoteNumber":76,"Velocity":37,"Duration":337078,"SoundDuration":337078,"Delta":480213131},{"NoteNumber":78,"Velocity":72,"Duration":928099,"SoundDuration":928099,"Delta":480550210},{"NoteNumber":74,"Velocity":61,"Duration":323369,"SoundDuration":323369,"Delta":480550210},{"NoteNumber":71,"Velocity":61,"Duration":323369,"SoundDuration":323369,"Delta":480550210},{"NoteNumber":59,"Velocity":29,"Duration":326086,"SoundDuration":326086,"Delta":480550210},{"NoteNumber":66,"Velocity":36,"Duration":326086,"SoundDuration":326086,"Delta":480550210},{"NoteNumber":62,"Velocity":29,"Duration":326086,"SoundDuration":326086,"Delta":480550210},{"NoteNumber":54,"Velocity":29,"Duration":326086,"SoundDuration":326086,"Delta":480550210},{"NoteNumber":66,"Velocity":53,"Duration":604644,"SoundDuration":604644,"Delta":480876297},{"NoteNumber":38,"Velocity":46,"Duration":315789,"SoundDuration":315789,"Delta":481170415},{"NoteNumber":50,"Velocity":58,"Duration":315789,"SoundDuration":315789,"Delta":481170415},{"NoteNumber":66,"Velocity":59,"Duration":626315,"SoundDuration":626315,"Delta":481486204},{"NoteNumber":74,"Velocity":48,"Duration":313157,"SoundDuration":313157,"Delta":481486204},{"NoteNumber":71,"Velocity":46,"Duration":313157,"SoundDuration":313157,"Delta":481486204},{"NoteNumber":78,"Velocity":71,"Duration":626315,"SoundDuration":626315,"Delta":481486204},{"NoteNumber":70,"Velocity":58,"Duration":313157,"SoundDuration":313157,"Delta":481801994},{"NoteNumber":76,"Velocity":49,"Duration":313157,"SoundDuration":313157,"Delta":481801994},{"NoteNumber":61,"Velocity":39,"Duration":315789,"SoundDuration":315789,"Delta":481801994},{"NoteNumber":54,"Velocity":31,"Duration":315789,"SoundDuration":315789,"Delta":481801994},{"NoteNumber":49,"Velocity":31,"Duration":315789,"SoundDuration":315789,"Delta":481801994},{"NoteNumber":70,"Velocity":54,"Duration":338068,"SoundDuration":338068,"Delta":482117783},{"NoteNumber":78,"Velocity":70,"Duration":338068,"SoundDuration":338068,"Delta":482117783},{"NoteNumber":66,"Velocity":59,"Duration":338068,"SoundDuration":338068,"Delta":482117783},{"NoteNumber":76,"Velocity":49,"Duration":338068,"SoundDuration":338068,"Delta":482117783},{"NoteNumber":71,"Velocity":65,"Duration":313157,"SoundDuration":313157,"Delta":482458692},{"NoteNumber":66,"Velocity":65,"Duration":313157,"SoundDuration":313157,"Delta":482458692},{"NoteNumber":74,"Velocity":65,"Duration":313157,"SoundDuration":313157,"Delta":482458692},{"NoteNumber":78,"Velocity":77,"Duration":923684,"SoundDuration":923684,"Delta":482458692},{"NoteNumber":59,"Velocity":39,"Duration":315789,"SoundDuration":315789,"Delta":482458692},{"NoteNumber":54,"Velocity":31,"Duration":315789,"SoundDuration":315789,"Delta":482458692},{"NoteNumber":47,"Velocity":31,"Duration":315789,"SoundDuration":315789,"Delta":482458692},{"NoteNumber":71,"Velocity":56,"Duration":610526,"SoundDuration":610526,"Delta":482774482},{"NoteNumber":35,"Velocity":50,"Duration":315789,"SoundDuration":315789,"Delta":483074482},{"NoteNumber":47,"Velocity":62,"Duration":315789,"SoundDuration":315789,"Delta":483074482},{"NoteNumber":74,"Velocity":61,"Duration":313157,"SoundDuration":313157,"Delta":483390271},{"NoteNumber":71,"Velocity":63,"Duration":626315,"SoundDuration":626315,"Delta":483390271},{"NoteNumber":83,"Velocity":75,"Duration":626315,"SoundDuration":626315,"Delta":483390271},{"NoteNumber":78,"Velocity":51,"Duration":313157,"SoundDuration":313157,"Delta":483390271},{"NoteNumber":75,"Velocity":62,"Duration":313157,"SoundDuration":313157,"Delta":483706061},{"NoteNumber":78,"Velocity":52,"Duration":313157,"SoundDuration":313157,"Delta":483706061},{"NoteNumber":57,"Velocity":41,"Duration":315789,"SoundDuration":315789,"Delta":483706061},{"NoteNumber":45,"Velocity":33,"Duration":315789,"SoundDuration":315789,"Delta":483706061},{"NoteNumber":75,"Velocity":62,"Duration":345930,"SoundDuration":345930,"Delta":484021850},{"NoteNumber":71,"Velocity":62,"Duration":345930,"SoundDuration":345930,"Delta":484021850},{"NoteNumber":78,"Velocity":52,"Duration":345930,"SoundDuration":345930,"Delta":484021850},{"NoteNumber":83,"Velocity":75,"Duration":345930,"SoundDuration":345930,"Delta":484021850},{"NoteNumber":72,"Velocity":63,"Duration":323369,"SoundDuration":323369,"Delta":484370687},{"NoteNumber":78,"Velocity":63,"Duration":323369,"SoundDuration":323369,"Delta":484370687},{"NoteNumber":75,"Velocity":63,"Duration":323369,"SoundDuration":323369,"Delta":484370687},{"NoteNumber":84,"Velocity":75,"Duration":323369,"SoundDuration":323369,"Delta":484370687},{"NoteNumber":56,"Velocity":42,"Duration":326086,"SoundDuration":326086,"Delta":484370687},{"NoteNumber":44,"Velocity":33,"Duration":326086,"SoundDuration":326086,"Delta":484370687},{"NoteNumber":72,"Velocity":63,"Duration":646739,"SoundDuration":646739,"Delta":484696774},{"NoteNumber":78,"Velocity":63,"Duration":646739,"SoundDuration":646739,"Delta":484696774},{"NoteNumber":75,"Velocity":63,"Duration":646739,"SoundDuration":646739,"Delta":484696774},{"NoteNumber":84,"Velocity":76,"Duration":646739,"SoundDuration":646739,"Delta":484696774},{"NoteNumber":32,"Velocity":53,"Duration":326086,"SoundDuration":326086,"Delta":485022861},{"NoteNumber":44,"Velocity":67,"Duration":326086,"SoundDuration":326086,"Delta":485022861},{"NoteNumber":72,"Velocity":65,"Duration":646739,"SoundDuration":646739,"Delta":485348948},{"NoteNumber":78,"Velocity":78,"Duration":323369,"SoundDuration":323369,"Delta":485348948},{"NoteNumber":75,"Velocity":65,"Duration":323369,"SoundDuration":323369,"Delta":485348948},{"NoteNumber":84,"Velocity":78,"Duration":646739,"SoundDuration":646739,"Delta":485348948},{"NoteNumber":75,"Velocity":65,"Duration":323369,"SoundDuration":323369,"Delta":485675035},{"NoteNumber":81,"Velocity":78,"Duration":323369,"SoundDuration":323369,"Delta":485675035},{"NoteNumber":54,"Velocity":44,"Duration":326086,"SoundDuration":326086,"Delta":485675035},{"NoteNumber":42,"Velocity":36,"Duration":326086,"SoundDuration":326086,"Delta":485675035},{"NoteNumber":72,"Velocity":66,"Duration":345930,"SoundDuration":345930,"Delta":486001122},{"NoteNumber":81,"Velocity":66,"Duration":345930,"SoundDuration":345930,"Delta":486001122},{"NoteNumber":84,"Velocity":79,"Duration":345930,"SoundDuration":345930,"Delta":486001122},{"NoteNumber":75,"Velocity":66,"Duration":345930,"SoundDuration":345930,"Delta":486001122},{"NoteNumber":73,"Velocity":66,"Duration":325161,"SoundDuration":325161,"Delta":486349960},{"NoteNumber":85,"Velocity":79,"Duration":325161,"SoundDuration":325161,"Delta":486349960},{"NoteNumber":80,"Velocity":66,"Duration":325161,"SoundDuration":325161,"Delta":486349960},{"NoteNumber":53,"Velocity":54,"Duration":327878,"SoundDuration":327878,"Delta":486349960},{"NoteNumber":41,"Velocity":43,"Duration":327878,"SoundDuration":327878,"Delta":486349960},{"NoteNumber":80,"Velocity":67,"Duration":646739,"SoundDuration":646739,"Delta":486677838},{"NoteNumber":73,"Velocity":67,"Duration":646739,"SoundDuration":646739,"Delta":486677838},{"NoteNumber":85,"Velocity":80,"Duration":646739,"SoundDuration":646739,"Delta":486677838},{"NoteNumber":53,"Velocity":44,"Duration":326086,"SoundDuration":326086,"Delta":486677838},{"NoteNumber":65,"Velocity":55,"Duration":326086,"SoundDuration":326086,"Delta":486677838},{"NoteNumber":41,"Velocity":54,"Duration":326087,"SoundDuration":326087,"Delta":487003925},{"NoteNumber":53,"Velocity":66,"Duration":326087,"SoundDuration":326087,"Delta":487003925},{"NoteNumber":73,"Velocity":68,"Duration":323369,"SoundDuration":323369,"Delta":487330012},{"NoteNumber":85,"Velocity":82,"Duration":646739,"SoundDuration":646739,"Delta":487330012},{"NoteNumber":80,"Velocity":82,"Duration":323369,"SoundDuration":323369,"Delta":487330012},{"NoteNumber":53,"Velocity":54,"Duration":326086,"SoundDuration":326086,"Delta":487330012},{"NoteNumber":65,"Velocity":68,"Duration":326086,"SoundDuration":326086,"Delta":487330012},{"NoteNumber":78,"Velocity":82,"Duration":323369,"SoundDuration":323369,"Delta":487656099},{"NoteNumber":73,"Velocity":69,"Duration":323369,"SoundDuration":323369,"Delta":487656099},{"NoteNumber":51,"Velocity":57,"Duration":326087,"SoundDuration":326087,"Delta":487656099},{"NoteNumber":39,"Velocity":46,"Duration":326087,"SoundDuration":326087,"Delta":487656099},{"NoteNumber":78,"Velocity":69,"Duration":341953,"SoundDuration":341953,"Delta":487982186},{"NoteNumber":73,"Velocity":69,"Duration":669003,"SoundDuration":669003,"Delta":487982186},{"NoteNumber":85,"Velocity":83,"Duration":669003,"SoundDuration":669003,"Delta":487982186},{"NoteNumber":51,"Velocity":46,"Duration":344827,"SoundDuration":344827,"Delta":487982186},{"NoteNumber":63,"Velocity":57,"Duration":344827,"SoundDuration":344827,"Delta":487982186},{"NoteNumber":77,"Velocity":67,"Duration":329670,"SoundDuration":329670,"Delta":488327014},{"NoteNumber":37,"Velocity":44,"Duration":659340,"SoundDuration":659340,"Delta":488327014},{"NoteNumber":49,"Velocity":44,"Duration":659340,"SoundDuration":659340,"Delta":488327014},{"NoteNumber":84,"Velocity":65,"Duration":329670,"SoundDuration":329670,"Delta":488656684},{"NoteNumber":72,"Velocity":60,"Duration":329670,"SoundDuration":329670,"Delta":488656684},{"NoteNumber":87,"Velocity":59,"Duration":329670,"SoundDuration":329670,"Delta":488986354},{"NoteNumber":75,"Velocity":59,"Duration":329670,"SoundDuration":329670,"Delta":488986354},{"NoteNumber":61,"Velocity":25,"Duration":1341952,"SoundDuration":1341952,"Delta":488986354},{"NoteNumber":65,"Velocity":25,"Duration":659340,"SoundDuration":659340,"Delta":488986354},{"NoteNumber":68,"Velocity":30,"Duration":659340,"SoundDuration":659340,"Delta":488986354},{"NoteNumber":85,"Velocity":59,"Duration":329670,"SoundDuration":329670,"Delta":489316025},{"NoteNumber":73,"Velocity":59,"Duration":329670,"SoundDuration":329670,"Delta":489316025},{"NoteNumber":84,"Velocity":58,"Duration":329670,"SoundDuration":329670,"Delta":489645695},{"NoteNumber":72,"Velocity":58,"Duration":329670,"SoundDuration":329670,"Delta":489645695},{"NoteNumber":66,"Velocity":24,"Duration":682611,"SoundDuration":682611,"Delta":489645695},{"NoteNumber":70,"Velocity":29,"Duration":1015944,"SoundDuration":1015944,"Delta":489645695},{"NoteNumber":73,"Velocity":57,"Duration":352941,"SoundDuration":352941,"Delta":489975365},{"NoteNumber":85,"Velocity":57,"Duration":352941,"SoundDuration":352941,"Delta":489975365},{"NoteNumber":76,"Velocity":56,"Duration":666666,"SoundDuration":666666,"Delta":490328306},{"NoteNumber":88,"Velocity":56,"Duration":666666,"SoundDuration":666666,"Delta":490328306},{"NoteNumber":67,"Velocity":25,"Duration":333333,"SoundDuration":333333,"Delta":490328306},{"NoteNumber":61,"Velocity":25,"Duration":2030479,"SoundDuration":2030479,"Delta":490328306},{"NoteNumber":70,"Velocity":30,"Duration":333333,"SoundDuration":333333,"Delta":490661640},{"NoteNumber":67,"Velocity":25,"Duration":333333,"SoundDuration":333333,"Delta":490661640},{"NoteNumber":75,"Velocity":55,"Duration":1693482,"SoundDuration":1693482,"Delta":490994973},{"NoteNumber":87,"Velocity":55,"Duration":1693482,"SoundDuration":1693482,"Delta":490994973},{"NoteNumber":70,"Velocity":25,"Duration":337078,"SoundDuration":337078,"Delta":490994973},{"NoteNumber":73,"Velocity":30,"Duration":337078,"SoundDuration":337078,"Delta":490994973},{"NoteNumber":68,"Velocity":24,"Duration":337078,"SoundDuration":337078,"Delta":491332052},{"NoteNumber":71,"Velocity":29,"Duration":337078,"SoundDuration":337078,"Delta":491332052},{"NoteNumber":67,"Velocity":24,"Duration":344827,"SoundDuration":344827,"Delta":491669130},{"NoteNumber":70,"Velocity":29,"Duration":344827,"SoundDuration":344827,"Delta":491669130},{"NoteNumber":68,"Velocity":24,"Duration":344827,"SoundDuration":344827,"Delta":492013958},{"NoteNumber":71,"Velocity":29,"Duration":344827,"SoundDuration":344827,"Delta":492013958},{"NoteNumber":66,"Velocity":27,"Duration":329670,"SoundDuration":329670,"Delta":492358785},{"NoteNumber":70,"Velocity":33,"Duration":329670,"SoundDuration":329670,"Delta":492358785},{"NoteNumber":61,"Velocity":27,"Duration":2001292,"SoundDuration":2001292,"Delta":492358785},{"NoteNumber":84,"Velocity":55,"Duration":329670,"SoundDuration":329670,"Delta":492688456},{"NoteNumber":72,"Velocity":46,"Duration":329670,"SoundDuration":329670,"Delta":492688456},{"NoteNumber":66,"Velocity":27,"Duration":329670,"SoundDuration":329670,"Delta":492688456},{"NoteNumber":69,"Velocity":33,"Duration":329670,"SoundDuration":329670,"Delta":492688456},{"NoteNumber":87,"Velocity":63,"Duration":329670,"SoundDuration":329670,"Delta":493018126},{"NoteNumber":75,"Velocity":53,"Duration":329670,"SoundDuration":329670,"Delta":493018126},{"NoteNumber":65,"Velocity":27,"Duration":1675285,"SoundDuration":1675285,"Delta":493018126},{"NoteNumber":68,"Velocity":33,"Duration":1675285,"SoundDuration":1675285,"Delta":493018126},{"NoteNumber":85,"Velocity":55,"Duration":329670,"SoundDuration":329670,"Delta":493347796},{"NoteNumber":73,"Velocity":46,"Duration":329670,"SoundDuration":329670,"Delta":493347796},{"NoteNumber":84,"Velocity":60,"Duration":329670,"SoundDuration":329670,"Delta":493677466},{"NoteNumber":72,"Velocity":51,"Duration":329670,"SoundDuration":329670,"Delta":493677466},{"NoteNumber":73,"Velocity":45,"Duration":352941,"SoundDuration":352941,"Delta":494007137},{"NoteNumber":85,"Velocity":53,"Duration":352941,"SoundDuration":352941,"Delta":494007137},{"NoteNumber":75,"Velocity":50,"Duration":666666,"SoundDuration":666666,"Delta":494360078},{"NoteNumber":87,"Velocity":59,"Duration":666666,"SoundDuration":666666,"Delta":494360078},{"NoteNumber":61,"Velocity":25,"Duration":2030479,"SoundDuration":2030479,"Delta":494360078},{"NoteNumber":68,"Velocity":30,"Duration":333333,"SoundDuration":333333,"Delta":494693411},{"NoteNumber":65,"Velocity":25,"Duration":333333,"SoundDuration":333333,"Delta":494693411},{"NoteNumber":85,"Velocity":55,"Duration":1693482,"SoundDuration":1693482,"Delta":495026744},{"NoteNumber":73,"Velocity":46,"Duration":1693482,"SoundDuration":1693482,"Delta":495026744},{"NoteNumber":68,"Velocity":25,"Duration":337078,"SoundDuration":337078,"Delta":495026744},{"NoteNumber":71,"Velocity":30,"Duration":337078,"SoundDuration":337078,"Delta":495026744},{"NoteNumber":66,"Velocity":24,"Duration":337078,"SoundDuration":337078,"Delta":495363823},{"NoteNumber":70,"Velocity":29,"Duration":337078,"SoundDuration":337078,"Delta":495363823},{"NoteNumber":65,"Velocity":24,"Duration":344827,"SoundDuration":344827,"Delta":495700902},{"NoteNumber":68,"Velocity":29,"Duration":344827,"SoundDuration":344827,"Delta":495700902},{"NoteNumber":66,"Velocity":24,"Duration":344827,"SoundDuration":344827,"Delta":496045729},{"NoteNumber":70,"Velocity":29,"Duration":344827,"SoundDuration":344827,"Delta":496045729},{"NoteNumber":64,"Velocity":28,"Duration":659340,"SoundDuration":659340,"Delta":496390557},{"NoteNumber":67,"Velocity":34,"Duration":659340,"SoundDuration":659340,"Delta":496390557},{"NoteNumber":61,"Velocity":28,"Duration":1318681,"SoundDuration":1318681,"Delta":496390557},{"NoteNumber":70,"Velocity":47,"Duration":329670,"SoundDuration":329670,"Delta":496720227},{"NoteNumber":82,"Velocity":56,"Duration":329670,"SoundDuration":329670,"Delta":496720227},{"NoteNumber":73,"Velocity":56,"Duration":329670,"SoundDuration":329670,"Delta":497049897},{"NoteNumber":85,"Velocity":66,"Duration":329670,"SoundDuration":329670,"Delta":497049897},{"NoteNumber":65,"Velocity":24,"Duration":659340,"SoundDuration":659340,"Delta":497049897},{"NoteNumber":68,"Velocity":29,"Duration":659340,"SoundDuration":659340,"Delta":497049897},{"NoteNumber":71,"Velocity":50,"Duration":329670,"SoundDuration":329670,"Delta":497379568},{"NoteNumber":83,"Velocity":59,"Duration":329670,"SoundDuration":329670,"Delta":497379568},{"NoteNumber":70,"Velocity":56,"Duration":329670,"SoundDuration":329670,"Delta":497709238},{"NoteNumber":82,"Velocity":67,"Duration":329670,"SoundDuration":329670,"Delta":497709238},{"NoteNumber":62,"Velocity":33,"Duration":682611,"SoundDuration":682611,"Delta":497709238},{"NoteNumber":65,"Velocity":33,"Duration":682611,"SoundDuration":682611,"Delta":497709238},{"NoteNumber":68,"Velocity":39,"Duration":682611,"SoundDuration":682611,"Delta":497709238},{"NoteNumber":83,"Velocity":60,"Duration":350000,"SoundDuration":350000,"Delta":498038908},{"NoteNumber":71,"Velocity":51,"Duration":350000,"SoundDuration":350000,"Delta":498038908},{"NoteNumber":71,"Velocity":56,"Duration":333333,"SoundDuration":333333,"Delta":498391849},{"NoteNumber":83,"Velocity":67,"Duration":333333,"SoundDuration":333333,"Delta":498391849},{"NoteNumber":68,"Velocity":35,"Duration":333333,"SoundDuration":333333,"Delta":498391849},{"NoteNumber":62,"Velocity":29,"Duration":666666,"SoundDuration":666666,"Delta":498391849},{"NoteNumber":68,"Velocity":51,"Duration":333333,"SoundDuration":333333,"Delta":498725183},{"NoteNumber":80,"Velocity":61,"Duration":333333,"SoundDuration":333333,"Delta":498725183},{"NoteNumber":65,"Velocity":31,"Duration":333333,"SoundDuration":333333,"Delta":498725183},{"NoteNumber":71,"Velocity":57,"Duration":337078,"SoundDuration":337078,"Delta":499058516},{"NoteNumber":83,"Velocity":68,"Duration":337078,"SoundDuration":337078,"Delta":499058516},{"NoteNumber":63,"Velocity":33,"Duration":674157,"SoundDuration":674157,"Delta":499058516},{"NoteNumber":68,"Velocity":39,"Duration":337078,"SoundDuration":337078,"Delta":499058516},{"NoteNumber":70,"Velocity":52,"Duration":337078,"SoundDuration":337078,"Delta":499395595},{"NoteNumber":82,"Velocity":62,"Duration":337078,"SoundDuration":337078,"Delta":499395595},{"NoteNumber":66,"Velocity":34,"Duration":337078,"SoundDuration":337078,"Delta":499395595},{"NoteNumber":68,"Velocity":56,"Duration":344827,"SoundDuration":344827,"Delta":499732673},{"NoteNumber":80,"Velocity":67,"Duration":344827,"SoundDuration":344827,"Delta":499732673},{"NoteNumber":60,"Velocity":34,"Duration":689655,"SoundDuration":689655,"Delta":499732673},{"NoteNumber":65,"Velocity":40,"Duration":344827,"SoundDuration":344827,"Delta":499732673},{"NoteNumber":69,"Velocity":52,"Duration":336206,"SoundDuration":336206,"Delta":500077501},{"NoteNumber":81,"Velocity":62,"Duration":336206,"SoundDuration":336206,"Delta":500077501},{"NoteNumber":66,"Velocity":35,"Duration":344827,"SoundDuration":344827,"Delta":500077501},{"NoteNumber":69,"Velocity":62,"Duration":689654,"SoundDuration":689654,"Delta":500422328},{"NoteNumber":81,"Velocity":74,"Duration":689654,"SoundDuration":689654,"Delta":500422328},{"NoteNumber":60,"Velocity":39,"Duration":689654,"SoundDuration":689654,"Delta":500422328},{"NoteNumber":66,"Velocity":46,"Duration":344827,"SoundDuration":344827,"Delta":500422328},{"NoteNumber":63,"Velocity":40,"Duration":344827,"SoundDuration":344827,"Delta":500767156},{"NoteNumber":80,"Velocity":69,"Duration":689655,"SoundDuration":689655,"Delta":501111983},{"NoteNumber":73,"Velocity":58,"Duration":689655,"SoundDuration":689655,"Delta":501111983},{"NoteNumber":68,"Velocity":58,"Duration":689655,"SoundDuration":689655,"Delta":501111983},{"NoteNumber":59,"Velocity":38,"Duration":689655,"SoundDuration":689655,"Delta":501111983},{"NoteNumber":66,"Velocity":45,"Duration":344827,"SoundDuration":344827,"Delta":501111983},{"NoteNumber":65,"Velocity":40,"Duration":344827,"SoundDuration":344827,"Delta":501456811},{"NoteNumber":73,"Velocity":63,"Duration":1056106,"SoundDuration":1056106,"Delta":501801638},{"NoteNumber":78,"Velocity":75,"Duration":715197,"SoundDuration":715197,"Delta":501801638},{"NoteNumber":58,"Velocity":42,"Duration":715197,"SoundDuration":715197,"Delta":501801638},{"NoteNumber":66,"Velocity":50,"Duration":344827,"SoundDuration":344827,"Delta":501801638},{"NoteNumber":61,"Velocity":40,"Duration":370370,"SoundDuration":370370,"Delta":502146466},{"NoteNumber":83,"Velocity":78,"Duration":681818,"SoundDuration":681818,"Delta":502516836},{"NoteNumber":56,"Velocity":42,"Duration":681818,"SoundDuration":681818,"Delta":502516836},{"NoteNumber":61,"Velocity":42,"Duration":681818,"SoundDuration":681818,"Delta":502516836},{"NoteNumber":66,"Velocity":50,"Duration":340909,"SoundDuration":340909,"Delta":502516836},{"NoteNumber":73,"Velocity":67,"Duration":340909,"SoundDuration":340909,"Delta":502857745},{"NoteNumber":65,"Velocity":40,"Duration":340909,"SoundDuration":340909,"Delta":502857745},{"NoteNumber":80,"Velocity":67,"Duration":340908,"SoundDuration":340908,"Delta":503198654},{"NoteNumber":82,"Velocity":79,"Duration":681817,"SoundDuration":681817,"Delta":503198654},{"NoteNumber":54,"Velocity":44,"Duration":681817,"SoundDuration":681817,"Delta":503198654},{"NoteNumber":61,"Velocity":44,"Duration":681817,"SoundDuration":681817,"Delta":503198654},{"NoteNumber":66,"Velocity":52,"Duration":681817,"SoundDuration":681817,"Delta":503198654},{"NoteNumber":78,"Velocity":67,"Duration":340909,"SoundDuration":340909,"Delta":503539563},{"NoteNumber":77,"Velocity":69,"Duration":340909,"SoundDuration":340909,"Delta":503880472},{"NoteNumber":87,"Velocity":82,"Duration":1388580,"SoundDuration":1388580,"Delta":503880472},{"NoteNumber":47,"Velocity":39,"Duration":706762,"SoundDuration":706762,"Delta":503880472},{"NoteNumber":59,"Velocity":47,"Duration":706762,"SoundDuration":706762,"Delta":503880472},{"NoteNumber":78,"Velocity":70,"Duration":365853,"SoundDuration":365853,"Delta":504221381},{"NoteNumber":75,"Velocity":73,"Duration":681818,"SoundDuration":681818,"Delta":504587235},{"NoteNumber":78,"Velocity":87,"Duration":681818,"SoundDuration":681818,"Delta":504587235},{"NoteNumber":47,"Velocity":46,"Duration":681818,"SoundDuration":681818,"Delta":504587235},{"NoteNumber":59,"Velocity":55,"Duration":340909,"SoundDuration":340909,"Delta":504587235},{"NoteNumber":53,"Velocity":47,"Duration":340909,"SoundDuration":340909,"Delta":504928144},{"NoteNumber":78,"Velocity":68,"Duration":715908,"SoundDuration":715908,"Delta":505269053},{"NoteNumber":85,"Velocity":80,"Duration":715908,"SoundDuration":715908,"Delta":505269053},{"NoteNumber":73,"Velocity":68,"Duration":715908,"SoundDuration":715908,"Delta":505269053},{"NoteNumber":46,"Velocity":45,"Duration":715908,"SoundDuration":715908,"Delta":505269053},{"NoteNumber":56,"Velocity":54,"Duration":340908,"SoundDuration":340908,"Delta":505269053},{"NoteNumber":54,"Velocity":49,"Duration":375000,"SoundDuration":375000,"Delta":505609962},{"NoteNumber":90,"Velocity":94,"Duration":1376254,"SoundDuration":1376254,"Delta":505984962},{"NoteNumber":78,"Velocity":79,"Duration":1376254,"SoundDuration":1376254,"Delta":505984962},{"NoteNumber":45,"Velocity":46,"Duration":681817,"SoundDuration":681817,"Delta":505984962},{"NoteNumber":53,"Velocity":55,"Duration":340909,"SoundDuration":340909,"Delta":505984962},{"NoteNumber":51,"Velocity":50,"Duration":340908,"SoundDuration":340908,"Delta":506325871},{"NoteNumber":48,"Velocity":57,"Duration":343820,"SoundDuration":343820,"Delta":506666780},{"NoteNumber":44,"Velocity":48,"Duration":694436,"SoundDuration":694436,"Delta":506666780},{"NoteNumber":49,"Velocity":52,"Duration":350615,"SoundDuration":350615,"Delta":507010600},{"NoteNumber":89,"Velocity":90,"Duration":732126,"SoundDuration":732126,"Delta":507361216},{"NoteNumber":77,"Velocity":76,"Duration":732126,"SoundDuration":732126,"Delta":507361216},{"NoteNumber":39,"Velocity":61,"Duration":357126,"SoundDuration":357126,"Delta":507361216},{"NoteNumber":37,"Velocity":51,"Duration":375000,"SoundDuration":375000,"Delta":507718342},{"NoteNumber":95,"Velocity":93,"Duration":1886587,"SoundDuration":1886587,"Delta":508093342},{"NoteNumber":83,"Velocity":83,"Duration":1886587,"SoundDuration":1886587,"Delta":508093342},{"NoteNumber":89,"Velocity":83,"Duration":1886587,"SoundDuration":1886587,"Delta":508093342},{"NoteNumber":92,"Velocity":83,"Duration":1886587,"SoundDuration":1886587,"Delta":508093342},{"NoteNumber":36,"Velocity":64,"Duration":352941,"SoundDuration":352941,"Delta":508093342},{"NoteNumber":37,"Velocity":58,"Duration":422535,"SoundDuration":422535,"Delta":508446284},{"NoteNumber":37,"Velocity":72,"Duration":370370,"SoundDuration":370370,"Delta":508868819},{"NoteNumber":56,"Velocity":32,"Duration":370370,"SoundDuration":370370,"Delta":509239189},{"NoteNumber":53,"Velocity":36,"Duration":370370,"SoundDuration":370370,"Delta":509609559},{"NoteNumber":71,"Velocity":36,"Duration":370370,"SoundDuration":370370,"Delta":509979930},{"NoteNumber":59,"Velocity":31,"Duration":370370,"SoundDuration":370370,"Delta":509979930},{"NoteNumber":68,"Velocity":40,"Duration":371797,"SoundDuration":371797,"Delta":510350300},{"NoteNumber":56,"Velocity":36,"Duration":371797,"SoundDuration":371797,"Delta":510350300},{"NoteNumber":74,"Velocity":36,"Duration":382440,"SoundDuration":382440,"Delta":510722098},{"NoteNumber":62,"Velocity":28,"Duration":382440,"SoundDuration":382440,"Delta":510722098},{"NoteNumber":72,"Velocity":40,"Duration":394736,"SoundDuration":394736,"Delta":511104538},{"NoteNumber":60,"Velocity":34,"Duration":394736,"SoundDuration":394736,"Delta":511104538},{"NoteNumber":73,"Velocity":36,"Duration":407108,"SoundDuration":407108,"Delta":511499274},{"NoteNumber":61,"Velocity":30,"Duration":407108,"SoundDuration":407108,"Delta":511499274},{"NoteNumber":68,"Velocity":40,"Duration":421049,"SoundDuration":421049,"Delta":511906383},{"NoteNumber":56,"Velocity":34,"Duration":421049,"SoundDuration":421049,"Delta":511906383},{"NoteNumber":75,"Velocity":36,"Duration":435563,"SoundDuration":435563,"Delta":512327433},{"NoteNumber":63,"Velocity":29,"Duration":435563,"SoundDuration":435563,"Delta":512327433},{"NoteNumber":73,"Velocity":40,"Duration":451518,"SoundDuration":451518,"Delta":512762996},{"NoteNumber":61,"Velocity":34,"Duration":451518,"SoundDuration":451518,"Delta":512762996},{"NoteNumber":71,"Velocity":35,"Duration":468760,"SoundDuration":468760,"Delta":513214514},{"NoteNumber":59,"Velocity":30,"Duration":468760,"SoundDuration":468760,"Delta":513214514},{"NoteNumber":70,"Velocity":49,"Duration":666666,"SoundDuration":666666,"Delta":513683275},{"NoteNumber":54,"Velocity":32,"Duration":3333332,"SoundDuration":3333332,"Delta":513683275},{"NoteNumber":58,"Velocity":38,"Duration":333333,"SoundDuration":333333,"Delta":513683275},{"NoteNumber":63,"Velocity":33,"Duration":333333,"SoundDuration":333333,"Delta":514016608},{"NoteNumber":60,"Velocity":38,"Duration":333333,"SoundDuration":333333,"Delta":514349941},{"NoteNumber":61,"Velocity":34,"Duration":333333,"SoundDuration":333333,"Delta":514683275},{"NoteNumber":42,"Velocity":58,"Duration":1999999,"SoundDuration":1999999,"Delta":515016608},{"NoteNumber":58,"Velocity":38,"Duration":333333,"SoundDuration":333333,"Delta":515016608},{"NoteNumber":63,"Velocity":33,"Duration":333333,"SoundDuration":333333,"Delta":515349941},{"NoteNumber":60,"Velocity":38,"Duration":333333,"SoundDuration":333333,"Delta":515683274},{"NoteNumber":61,"Velocity":33,"Duration":333333,"SoundDuration":333333,"Delta":516016608},{"NoteNumber":58,"Velocity":38,"Duration":333333,"SoundDuration":333333,"Delta":516349941},{"NoteNumber":63,"Velocity":34,"Duration":333333,"SoundDuration":333333,"Delta":516683274},{"NoteNumber":42,"Velocity":52,"Duration":312500,"SoundDuration":312500,"Delta":517016607},{"NoteNumber":54,"Velocity":32,"Duration":657327,"SoundDuration":657327,"Delta":517016607},{"NoteNumber":58,"Velocity":38,"Duration":312500,"SoundDuration":312500,"Delta":517016607},{"NoteNumber":37,"Velocity":46,"Duration":339080,"SoundDuration":339080,"Delta":517329107},{"NoteNumber":61,"Velocity":34,"Duration":344827,"SoundDuration":344827,"Delta":517329107},{"NoteNumber":37,"Velocity":52,"Duration":1942841,"SoundDuration":1942841,"Delta":517673935},{"NoteNumber":53,"Velocity":32,"Duration":659340,"SoundDuration":659340,"Delta":517673935},{"NoteNumber":56,"Velocity":38,"Duration":329670,"SoundDuration":329670,"Delta":517673935},{"NoteNumber":61,"Velocity":33,"Duration":329670,"SoundDuration":329670,"Delta":518003605},{"NoteNumber":54,"Velocity":32,"Duration":638297,"SoundDuration":638297,"Delta":518333275},{"NoteNumber":58,"Velocity":38,"Duration":319149,"SoundDuration":319149,"Delta":518333275},{"NoteNumber":61,"Velocity":34,"Duration":319148,"SoundDuration":319148,"Delta":518652424},{"NoteNumber":56,"Velocity":34,"Duration":650949,"SoundDuration":650949,"Delta":518971573},{"NoteNumber":59,"Velocity":41,"Duration":306122,"SoundDuration":306122,"Delta":518971573},{"NoteNumber":61,"Velocity":36,"Duration":344827,"SoundDuration":344827,"Delta":519277696},{"NoteNumber":37,"Velocity":52,"Duration":1296457,"SoundDuration":1296457,"Delta":519622523},{"NoteNumber":56,"Velocity":34,"Duration":642611,"SoundDuration":642611,"Delta":519622523},{"NoteNumber":59,"Velocity":40,"Duration":309278,"SoundDuration":309278,"Delta":519622523},{"NoteNumber":61,"Velocity":34,"Duration":333333,"SoundDuration":333333,"Delta":519931802},{"NoteNumber":54,"Velocity":32,"Duration":659340,"SoundDuration":659340,"Delta":520265135},{"NoteNumber":58,"Velocity":38,"Duration":329670,"SoundDuration":329670,"Delta":520265135},{"NoteNumber":61,"Velocity":32,"Duration":329670,"SoundDuration":329670,"Delta":520594805},{"NoteNumber":37,"Velocity":52,"Duration":680860,"SoundDuration":680860,"Delta":520924475},{"NoteNumber":53,"Velocity":31,"Duration":686813,"SoundDuration":686813,"Delta":520924475},{"NoteNumber":56,"Velocity":37,"Duration":329670,"SoundDuration":329670,"Delta":520924475},{"NoteNumber":61,"Velocity":34,"Duration":357142,"SoundDuration":357142,"Delta":521254146},{"NoteNumber":34,"Velocity":52,"Duration":652173,"SoundDuration":652173,"Delta":521611288},{"NoteNumber":54,"Velocity":32,"Duration":3290173,"SoundDuration":3290173,"Delta":521611288},{"NoteNumber":58,"Velocity":38,"Duration":326087,"SoundDuration":326087,"Delta":521611288},{"NoteNumber":63,"Velocity":33,"Duration":326086,"SoundDuration":326086,"Delta":521937375},{"NoteNumber":60,"Velocity":38,"Duration":337078,"SoundDuration":337078,"Delta":522263462},{"NoteNumber":61,"Velocity":34,"Duration":337078,"SoundDuration":337078,"Delta":522600541},{"NoteNumber":90,"Velocity":61,"Duration":1955777,"SoundDuration":1955777,"Delta":522937620},{"NoteNumber":78,"Velocity":53,"Duration":1955777,"SoundDuration":1955777,"Delta":522937620},{"NoteNumber":58,"Velocity":38,"Duration":329670,"SoundDuration":329670,"Delta":522937620},{"NoteNumber":63,"Velocity":33,"Duration":329670,"SoundDuration":329670,"Delta":523267290},{"NoteNumber":60,"Velocity":38,"Duration":329670,"SoundDuration":329670,"Delta":523596960},{"NoteNumber":61,"Velocity":33,"Duration":329670,"SoundDuration":329670,"Delta":523926631},{"NoteNumber":58,"Velocity":38,"Duration":322580,"SoundDuration":322580,"Delta":524256301},{"NoteNumber":63,"Velocity":28,"Duration":322580,"SoundDuration":322580,"Delta":524578882},{"NoteNumber":90,"Velocity":55,"Duration":306700,"SoundDuration":306700,"Delta":524901462},{"NoteNumber":78,"Velocity":48,"Duration":306700,"SoundDuration":306700,"Delta":524901462},{"NoteNumber":54,"Velocity":27,"Duration":654105,"SoundDuration":654105,"Delta":524901462},{"NoteNumber":58,"Velocity":32,"Duration":309278,"SoundDuration":309278,"Delta":524901462},{"NoteNumber":85,"Velocity":48,"Duration":341953,"SoundDuration":341953,"Delta":525210741},{"NoteNumber":73,"Velocity":42,"Duration":341953,"SoundDuration":341953,"Delta":525210741},{"NoteNumber":61,"Velocity":28,"Duration":344827,"SoundDuration":344827,"Delta":525210741},{"NoteNumber":85,"Velocity":55,"Duration":1935337,"SoundDuration":1935337,"Delta":525555568},{"NoteNumber":73,"Velocity":48,"Duration":1935337,"SoundDuration":1935337,"Delta":525555568},{"NoteNumber":53,"Velocity":32,"Duration":659340,"SoundDuration":659340,"Delta":525555568},{"NoteNumber":56,"Velocity":38,"Duration":329670,"SoundDuration":329670,"Delta":525555568},{"NoteNumber":61,"Velocity":33,"Duration":329670,"SoundDuration":329670,"Delta":525885238},{"NoteNumber":54,"Velocity":32,"Duration":645161,"SoundDuration":645161,"Delta":526214909},{"NoteNumber":58,"Velocity":38,"Duration":322580,"SoundDuration":322580,"Delta":526214909},{"NoteNumber":61,"Velocity":34,"Duration":322580,"SoundDuration":322580,"Delta":526537489},{"NoteNumber":56,"Velocity":34,"Duration":650949,"SoundDuration":650949,"Delta":526860070},{"NoteNumber":59,"Velocity":41,"Duration":306122,"SoundDuration":306122,"Delta":526860070},{"NoteNumber":61,"Velocity":36,"Duration":344827,"SoundDuration":344827,"Delta":527166193},{"NoteNumber":85,"Velocity":55,"Duration":1288215,"SoundDuration":1288215,"Delta":527511020},{"NoteNumber":73,"Velocity":48,"Duration":1288215,"SoundDuration":1288215,"Delta":527511020},{"NoteNumber":56,"Velocity":34,"Duration":642611,"SoundDuration":642611,"Delta":527511020},{"NoteNumber":59,"Velocity":40,"Duration":309278,"SoundDuration":309278,"Delta":527511020},{"NoteNumber":61,"Velocity":34,"Duration":333333,"SoundDuration":333333,"Delta":527820298},{"NoteNumber":54,"Velocity":32,"Duration":659340,"SoundDuration":659340,"Delta":528153632},{"NoteNumber":58,"Velocity":38,"Duration":329670,"SoundDuration":329670,"Delta":528153632},{"NoteNumber":61,"Velocity":32,"Duration":329670,"SoundDuration":329670,"Delta":528483302},{"NoteNumber":85,"Velocity":55,"Duration":680860,"SoundDuration":680860,"Delta":528812972},{"NoteNumber":73,"Velocity":48,"Duration":680860,"SoundDuration":680860,"Delta":528812972},{"NoteNumber":53,"Velocity":26,"Duration":686813,"SoundDuration":686813,"Delta":528812972},{"NoteNumber":56,"Velocity":31,"Duration":329670,"SoundDuration":329670,"Delta":528812972},{"NoteNumber":61,"Velocity":28,"Duration":357142,"SoundDuration":357142,"Delta":529142642},{"NoteNumber":82,"Velocity":53,"Duration":666666,"SoundDuration":666666,"Delta":529499785},{"NoteNumber":70,"Velocity":45,"Duration":666666,"SoundDuration":666666,"Delta":529499785},{"NoteNumber":54,"Velocity":32,"Duration":3304517,"SoundDuration":3304517,"Delta":529499785},{"NoteNumber":58,"Velocity":38,"Duration":224999,"SoundDuration":224999,"Delta":529499785},{"NoteNumber":63,"Velocity":33,"Duration":222222,"SoundDuration":222222,"Delta":529724785},{"NoteNumber":61,"Velocity":33,"Duration":222222,"SoundDuration":222222,"Delta":529944229},{"NoteNumber":60,"Velocity":38,"Duration":220108,"SoundDuration":220108,"Delta":530166452},{"NoteNumber":63,"Velocity":34,"Duration":217391,"SoundDuration":217391,"Delta":530383843},{"NoteNumber":61,"Velocity":34,"Duration":163043,"SoundDuration":163043,"Delta":530601234},{"NoteNumber":42,"Velocity":58,"Duration":1312600,"SoundDuration":1312600,"Delta":530818626},{"NoteNumber":58,"Velocity":38,"Duration":220108,"SoundDuration":220108,"Delta":530818626},{"NoteNumber":63,"Velocity":33,"Duration":222455,"SoundDuration":222455,"Delta":531038734},{"NoteNumber":61,"Velocity":33,"Duration":170454,"SoundDuration":170454,"Delta":531258349},{"NoteNumber":60,"Velocity":38,"Duration":222527,"SoundDuration":222527,"Delta":531485622},{"NoteNumber":63,"Velocity":33,"Duration":219780,"SoundDuration":219780,"Delta":531705402},{"NoteNumber":61,"Velocity":33,"Duration":164835,"SoundDuration":164835,"Delta":531925182},{"NoteNumber":42,"Velocity":58,"Duration":653845,"SoundDuration":653845,"Delta":532144962},{"NoteNumber":58,"Velocity":38,"Duration":222527,"SoundDuration":222527,"Delta":532144962},{"NoteNumber":63,"Velocity":34,"Duration":219780,"SoundDuration":219780,"Delta":532367490},{"NoteNumber":61,"Velocity":34,"Duration":164835,"SoundDuration":164835,"Delta":532584522},{"NoteNumber":42,"Velocity":56,"Duration":229884,"SoundDuration":229884,"Delta":532804303},{"NoteNumber":54,"Velocity":32,"Duration":719827,"SoundDuration":719827,"Delta":532804303},{"NoteNumber":58,"Velocity":38,"Duration":232758,"SoundDuration":232758,"Delta":532804303},{"NoteNumber":41,"Velocity":50,"Duration":239942,"SoundDuration":239942,"Delta":533034188},{"NoteNumber":62,"Velocity":34,"Duration":239942,"SoundDuration":239942,"Delta":533034188},{"NoteNumber":42,"Velocity":50,"Duration":187500,"SoundDuration":187500,"Delta":533274130},{"NoteNumber":61,"Velocity":34,"Duration":187500,"SoundDuration":187500,"Delta":533274130},{"NoteNumber":37,"Velocity":52,"Duration":1284340,"SoundDuration":1284340,"Delta":533524130},{"NoteNumber":53,"Velocity":32,"Duration":659340,"SoundDuration":659340,"Delta":533524130},{"NoteNumber":56,"Velocity":38,"Duration":222527,"SoundDuration":222527,"Delta":533524130},{"NoteNumber":63,"Velocity":33,"Duration":219780,"SoundDuration":219780,"Delta":533743910},{"NoteNumber":61,"Velocity":33,"Duration":164835,"SoundDuration":164835,"Delta":533963690},{"NoteNumber":54,"Velocity":32,"Duration":638297,"SoundDuration":638297,"Delta":534183471},{"NoteNumber":58,"Velocity":38,"Duration":215425,"SoundDuration":215425,"Delta":534183471},{"NoteNumber":63,"Velocity":34,"Duration":212765,"SoundDuration":212765,"Delta":534396237},{"NoteNumber":61,"Velocity":34,"Duration":159574,"SoundDuration":159574,"Delta":534609003},{"NoteNumber":37,"Velocity":52,"Duration":1299512,"SoundDuration":1299512,"Delta":534821769},{"NoteNumber":56,"Velocity":34,"Duration":667568,"SoundDuration":667568,"Delta":534821769},{"NoteNumber":59,"Velocity":41,"Duration":206632,"SoundDuration":206632,"Delta":534821769},{"NoteNumber":63,"Velocity":36,"Duration":222522,"SoundDuration":222522,"Delta":535025850},{"NoteNumber":61,"Velocity":36,"Duration":180722,"SoundDuration":180722,"Delta":535248373},{"NoteNumber":56,"Velocity":34,"Duration":645833,"SoundDuration":645833,"Delta":535489337},{"NoteNumber":59,"Velocity":40,"Duration":210937,"SoundDuration":210937,"Delta":535489337},{"NoteNumber":63,"Velocity":34,"Duration":215277,"SoundDuration":215277,"Delta":535697670},{"NoteNumber":61,"Velocity":34,"Duration":166666,"SoundDuration":166666,"Delta":535912948},{"NoteNumber":37,"Velocity":52,"Duration":1310004,"SoundDuration":1310004,"Delta":536135170},{"NoteNumber":54,"Velocity":32,"Duration":645161,"SoundDuration":645161,"Delta":536135170},{"NoteNumber":58,"Velocity":38,"Duration":217742,"SoundDuration":217742,"Delta":536135170},{"NoteNumber":63,"Velocity":32,"Duration":215053,"SoundDuration":215053,"Delta":536350224},{"NoteNumber":61,"Velocity":32,"Duration":161290,"SoundDuration":161290,"Delta":536565278},{"NoteNumber":53,"Velocity":31,"Duration":679723,"SoundDuration":679723,"Delta":536780332},{"NoteNumber":56,"Velocity":37,"Duration":217742,"SoundDuration":217742,"Delta":536780332},{"NoteNumber":63,"Velocity":34,"Duration":226574,"SoundDuration":226574,"Delta":536995385},{"NoteNumber":61,"Velocity":34,"Duration":178571,"SoundDuration":178571,"Delta":537221960},{"NoteNumber":34,"Velocity":52,"Duration":666666,"SoundDuration":666666,"Delta":537460055},{"NoteNumber":54,"Velocity":32,"Duration":3315602,"SoundDuration":3315602,"Delta":537460055},{"NoteNumber":58,"Velocity":38,"Duration":224999,"SoundDuration":224999,"Delta":537460055},{"NoteNumber":63,"Velocity":33,"Duration":222222,"SoundDuration":222222,"Delta":537685055},{"NoteNumber":61,"Velocity":33,"Duration":222222,"SoundDuration":222222,"Delta":537904499},{"NoteNumber":60,"Velocity":39,"Duration":220108,"SoundDuration":220108,"Delta":538126722},{"NoteNumber":63,"Velocity":34,"Duration":223638,"SoundDuration":223638,"Delta":538344113},{"NoteNumber":61,"Velocity":35,"Duration":172413,"SoundDuration":172413,"Delta":538567751},{"NoteNumber":90,"Velocity":67,"Duration":1958790,"SoundDuration":1958790,"Delta":538797636},{"NoteNumber":78,"Velocity":59,"Duration":1958790,"SoundDuration":1958790,"Delta":538797636},{"NoteNumber":58,"Velocity":39,"Duration":222527,"SoundDuration":222527,"Delta":538797636},{"NoteNumber":63,"Velocity":34,"Duration":219780,"SoundDuration":219780,"Delta":539020164},{"NoteNumber":61,"Velocity":35,"Duration":164835,"SoundDuration":164835,"Delta":539237196},{"NoteNumber":60,"Velocity":41,"Duration":222527,"SoundDuration":222527,"Delta":539456977},{"NoteNumber":63,"Velocity":35,"Duration":219780,"SoundDuration":219780,"Delta":539676757},{"NoteNumber":61,"Velocity":36,"Duration":164835,"SoundDuration":164835,"Delta":539896537},{"NoteNumber":58,"Velocity":42,"Duration":222527,"SoundDuration":222527,"Delta":540116317},{"NoteNumber":63,"Velocity":38,"Duration":219780,"SoundDuration":219780,"Delta":540338845},{"NoteNumber":61,"Velocity":34,"Duration":164835,"SoundDuration":164835,"Delta":540555877},{"NoteNumber":90,"Velocity":65,"Duration":217742,"SoundDuration":217742,"Delta":540775658},{"NoteNumber":78,"Velocity":57,"Duration":217742,"SoundDuration":217742,"Delta":540775658},{"NoteNumber":54,"Velocity":32,"Duration":667408,"SoundDuration":667408,"Delta":540775658},{"NoteNumber":58,"Velocity":38,"Duration":217742,"SoundDuration":217742,"Delta":540775658},{"NoteNumber":77,"Velocity":51,"Duration":222469,"SoundDuration":222469,"Delta":540990711},{"NoteNumber":89,"Velocity":58,"Duration":222469,"SoundDuration":222469,"Delta":540990711},{"NoteNumber":62,"Velocity":34,"Duration":222469,"SoundDuration":222469,"Delta":540990711},{"NoteNumber":78,"Velocity":51,"Duration":229884,"SoundDuration":229884,"Delta":541213181},{"NoteNumber":90,"Velocity":58,"Duration":172413,"SoundDuration":172413,"Delta":541213181},{"NoteNumber":61,"Velocity":34,"Duration":172413,"SoundDuration":172413,"Delta":541213181},{"NoteNumber":85,"Velocity":67,"Duration":1291061,"SoundDuration":1291061,"Delta":541443066},{"NoteNumber":73,"Velocity":59,"Duration":1291061,"SoundDuration":1291061,"Delta":541443066},{"NoteNumber":53,"Velocity":39,"Duration":659340,"SoundDuration":659340,"Delta":541443066},{"NoteNumber":56,"Velocity":47,"Duration":222527,"SoundDuration":222527,"Delta":541443066},{"NoteNumber":63,"Velocity":41,"Duration":219780,"SoundDuration":219780,"Delta":541662846},{"NoteNumber":61,"Velocity":41,"Duration":164835,"SoundDuration":164835,"Delta":541882626},{"NoteNumber":54,"Velocity":40,"Duration":645161,"SoundDuration":645161,"Delta":542102406},{"NoteNumber":58,"Velocity":49,"Duration":217742,"SoundDuration":217742,"Delta":542102406},{"NoteNumber":63,"Velocity":44,"Duration":215053,"SoundDuration":215053,"Delta":542317460},{"NoteNumber":61,"Velocity":46,"Duration":161290,"SoundDuration":161290,"Delta":542532514},{"NoteNumber":73,"Velocity":62,"Duration":1292561,"SoundDuration":1292561,"Delta":542747568},{"NoteNumber":85,"Velocity":70,"Duration":1292561,"SoundDuration":1292561,"Delta":542747568},{"NoteNumber":56,"Velocity":47,"Duration":660617,"SoundDuration":660617,"Delta":542747568},{"NoteNumber":59,"Velocity":57,"Duration":213157,"SoundDuration":213157,"Delta":542747568},{"NoteNumber":63,"Velocity":51,"Duration":220205,"SoundDuration":220205,"Delta":542958094},{"NoteNumber":61,"Velocity":53,"Duration":172413,"SoundDuration":172413,"Delta":543178300},{"NoteNumber":56,"Velocity":50,"Duration":645833,"SoundDuration":645833,"Delta":543408185},{"NoteNumber":59,"Velocity":60,"Duration":210937,"SoundDuration":210937,"Delta":543408185},{"NoteNumber":63,"Velocity":51,"Duration":215277,"SoundDuration":215277,"Delta":543616518},{"NoteNumber":61,"Velocity":51,"Duration":166666,"SoundDuration":166666,"Delta":543831796},{"NoteNumber":73,"Velocity":63,"Duration":1093879,"SoundDuration":1093879,"Delta":544054018},{"NoteNumber":85,"Velocity":72,"Duration":1093879,"SoundDuration":1093879,"Delta":544054018},{"NoteNumber":54,"Velocity":49,"Duration":645161,"SoundDuration":645161,"Delta":544054018},{"NoteNumber":58,"Velocity":58,"Duration":217742,"SoundDuration":217742,"Delta":544054018},{"NoteNumber":63,"Velocity":49,"Duration":215053,"SoundDuration":215053,"Delta":544269072},{"NoteNumber":61,"Velocity":50,"Duration":161290,"SoundDuration":161290,"Delta":544484126},{"NoteNumber":53,"Velocity":49,"Duration":686813,"SoundDuration":686813,"Delta":544699180},{"NoteNumber":56,"Velocity":58,"Duration":222527,"SoundDuration":222527,"Delta":544699180},{"NoteNumber":61,"Velocity":53,"Duration":228937,"SoundDuration":228937,"Delta":544918960},{"NoteNumber":71,"Velocity":45,"Duration":238095,"SoundDuration":238095,"Delta":545147897},{"NoteNumber":83,"Velocity":50,"Duration":238095,"SoundDuration":238095,"Delta":545147897},{"NoteNumber":59,"Velocity":40,"Duration":178571,"SoundDuration":178571,"Delta":545147897},{"NoteNumber":70,"Velocity":50,"Duration":645161,"SoundDuration":645161,"Delta":545385993},{"NoteNumber":82,"Velocity":50,"Duration":645161,"SoundDuration":645161,"Delta":545385993},{"NoteNumber":58,"Velocity":40,"Duration":215053,"SoundDuration":215053,"Delta":545385993},{"NoteNumber":54,"Velocity":50,"Duration":1930351,"SoundDuration":1930351,"Delta":545385993},{"NoteNumber":61,"Velocity":36,"Duration":215053,"SoundDuration":215053,"Delta":545601046},{"NoteNumber":59,"Velocity":36,"Duration":215053,"SoundDuration":215053,"Delta":545816100},{"NoteNumber":70,"Velocity":40,"Duration":210526,"SoundDuration":210526,"Delta":546031154},{"NoteNumber":82,"Velocity":55,"Duration":1285189,"SoundDuration":1285189,"Delta":546031154},{"NoteNumber":58,"Velocity":40,"Duration":210526,"SoundDuration":210526,"Delta":546031154},{"NoteNumber":80,"Velocity":40,"Duration":210526,"SoundDuration":210526,"Delta":546241680},{"NoteNumber":59,"Velocity":38,"Duration":210526,"SoundDuration":210526,"Delta":546241680},{"NoteNumber":78,"Velocity":40,"Duration":210526,"SoundDuration":210526,"Delta":546452207},{"NoteNumber":61,"Velocity":38,"Duration":210526,"SoundDuration":210526,"Delta":546452207},{"NoteNumber":77,"Velocity":50,"Duration":210526,"SoundDuration":210526,"Delta":546662733},{"NoteNumber":63,"Velocity":40,"Duration":210526,"SoundDuration":210526,"Delta":546662733},{"NoteNumber":75,"Velocity":41,"Duration":210526,"SoundDuration":210526,"Delta":546873259},{"NoteNumber":65,"Velocity":37,"Duration":210526,"SoundDuration":210526,"Delta":546873259},{"NoteNumber":73,"Velocity":43,"Duration":232558,"SoundDuration":232558,"Delta":547083786},{"NoteNumber":66,"Velocity":37,"Duration":232558,"SoundDuration":232558,"Delta":547083786},{"NoteNumber":71,"Velocity":50,"Duration":212765,"SoundDuration":212765,"Delta":547316344},{"NoteNumber":83,"Velocity":55,"Duration":1881897,"SoundDuration":1881897,"Delta":547316344},{"NoteNumber":68,"Velocity":40,"Duration":838298,"SoundDuration":838298,"Delta":547316344},{"NoteNumber":56,"Velocity":50,"Duration":1881897,"SoundDuration":1881897,"Delta":547316344},{"NoteNumber":73,"Velocity":42,"Duration":212765,"SoundDuration":212765,"Delta":547529110},{"NoteNumber":70,"Velocity":42,"Duration":212765,"SoundDuration":212765,"Delta":547741876},{"NoteNumber":71,"Velocity":50,"Duration":200000,"SoundDuration":200000,"Delta":547954642},{"NoteNumber":73,"Velocity":40,"Duration":204081,"SoundDuration":204081,"Delta":548154642},{"NoteNumber":66,"Velocity":36,"Duration":204081,"SoundDuration":204081,"Delta":548154642},{"NoteNumber":75,"Velocity":40,"Duration":204081,"SoundDuration":204081,"Delta":548358724},{"NoteNumber":65,"Velocity":36,"Duration":204081,"SoundDuration":204081,"Delta":548358724},{"NoteNumber":77,"Velocity":50,"Duration":204081,"SoundDuration":204081,"Delta":548562805},{"NoteNumber":63,"Velocity":40,"Duration":204081,"SoundDuration":204081,"Delta":548562805},{"NoteNumber":78,"Velocity":41,"Duration":204081,"SoundDuration":204081,"Delta":548766887},{"NoteNumber":61,"Velocity":35,"Duration":204081,"SoundDuration":204081,"Delta":548766887},{"NoteNumber":80,"Velocity":41,"Duration":227272,"SoundDuration":227272,"Delta":548970969},{"NoteNumber":59,"Velocity":35,"Duration":227272,"SoundDuration":227272,"Delta":548970969},{"NoteNumber":73,"Velocity":50,"Duration":645161,"SoundDuration":645161,"Delta":549198241},{"NoteNumber":85,"Velocity":55,"Duration":645161,"SoundDuration":645161,"Delta":549198241},{"NoteNumber":65,"Velocity":40,"Duration":215053,"SoundDuration":215053,"Delta":549198241},{"NoteNumber":58,"Velocity":50,"Duration":1930351,"SoundDuration":1930351,"Delta":549198241},{"NoteNumber":66,"Velocity":36,"Duration":215053,"SoundDuration":215053,"Delta":549413295},{"NoteNumber":65,"Velocity":37,"Duration":215053,"SoundDuration":215053,"Delta":549628349},{"NoteNumber":82,"Velocity":42,"Duration":210526,"SoundDuration":210526,"Delta":549843403},{"NoteNumber":85,"Velocity":57,"Duration":1285189,"SoundDuration":1285189,"Delta":549843403},{"NoteNumber":61,"Velocity":42,"Duration":210526,"SoundDuration":210526,"Delta":549843403},{"NoteNumber":80,"Velocity":42,"Duration":210526,"SoundDuration":210526,"Delta":550053929},{"NoteNumber":63,"Velocity":40,"Duration":210526,"SoundDuration":210526,"Delta":550053929},{"NoteNumber":78,"Velocity":43,"Duration":210526,"SoundDuration":210526,"Delta":550264455},{"NoteNumber":64,"Velocity":41,"Duration":210526,"SoundDuration":210526,"Delta":550264455},{"NoteNumber":76,"Velocity":55,"Duration":210526,"SoundDuration":210526,"Delta":550474982},{"NoteNumber":66,"Velocity":44,"Duration":210526,"SoundDuration":210526,"Delta":550474982},{"NoteNumber":75,"Velocity":45,"Duration":210526,"SoundDuration":210526,"Delta":550685508},{"NoteNumber":68,"Velocity":41,"Duration":210526,"SoundDuration":210526,"Delta":550685508},{"NoteNumber":73,"Velocity":48,"Duration":445324,"SoundDuration":445324,"Delta":550896034},{"NoteNumber":70,"Velocity":41,"Duration":232558,"SoundDuration":232558,"Delta":550896034},{"NoteNumber":87,"Velocity":67,"Duration":1881897,"SoundDuration":1881897,"Delta":551128593},{"NoteNumber":71,"Velocity":46,"Duration":638297,"SoundDuration":638297,"Delta":551128593},{"NoteNumber":59,"Velocity":57,"Duration":1881897,"SoundDuration":1881897,"Delta":551128593},{"NoteNumber":75,"Velocity":48,"Duration":212765,"SoundDuration":212765,"Delta":551341359},{"NoteNumber":76,"Velocity":49,"Duration":212765,"SoundDuration":212765,"Delta":551554125},{"NoteNumber":75,"Velocity":60,"Duration":200000,"SoundDuration":200000,"Delta":551766891},{"NoteNumber":71,"Velocity":48,"Duration":200000,"SoundDuration":200000,"Delta":551766891},{"NoteNumber":77,"Velocity":48,"Duration":204081,"SoundDuration":204081,"Delta":551966891},{"NoteNumber":70,"Velocity":43,"Duration":204081,"SoundDuration":204081,"Delta":551966891},{"NoteNumber":78,"Velocity":49,"Duration":204081,"SoundDuration":204081,"Delta":552170972},{"NoteNumber":68,"Velocity":44,"Duration":204081,"SoundDuration":204081,"Delta":552170972},{"NoteNumber":80,"Velocity":62,"Duration":204081,"SoundDuration":204081,"Delta":552375054},{"NoteNumber":66,"Velocity":50,"Duration":204081,"SoundDuration":204081,"Delta":552375054},{"NoteNumber":82,"Velocity":51,"Duration":204081,"SoundDuration":204081,"Delta":552579136},{"NoteNumber":65,"Velocity":44,"Duration":204081,"SoundDuration":204081,"Delta":552579136},{"NoteNumber":83,"Velocity":52,"Duration":442326,"SoundDuration":442326,"Delta":552783217},{"NoteNumber":63,"Velocity":44,"Duration":227272,"SoundDuration":227272,"Delta":552783217},{"NoteNumber":89,"Velocity":71,"Duration":645161,"SoundDuration":645161,"Delta":553010490},{"NoteNumber":61,"Velocity":65,"Duration":1276740,"SoundDuration":1276740,"Delta":553010490},{"NoteNumber":83,"Velocity":53,"Duration":215053,"SoundDuration":215053,"Delta":553225544},{"NoteNumber":65,"Velocity":47,"Duration":215053,"SoundDuration":215053,"Delta":553225544},{"NoteNumber":82,"Velocity":54,"Duration":215053,"SoundDuration":215053,"Delta":553440598},{"NoteNumber":66,"Velocity":47,"Duration":215053,"SoundDuration":215053,"Delta":553440598},{"NoteNumber":80,"Velocity":54,"Duration":210526,"SoundDuration":210526,"Delta":553655651},{"NoteNumber":68,"Velocity":54,"Duration":210526,"SoundDuration":210526,"Delta":553655651},{"NoteNumber":78,"Velocity":54,"Duration":210526,"SoundDuration":210526,"Delta":553866178},{"NoteNumber":70,"Velocity":51,"Duration":210526,"SoundDuration":210526,"Delta":553866178},{"NoteNumber":77,"Velocity":55,"Duration":210526,"SoundDuration":210526,"Delta":554076704},{"NoteNumber":71,"Velocity":52,"Duration":210526,"SoundDuration":210526,"Delta":554076704},{"NoteNumber":90,"Velocity":77,"Duration":653610,"SoundDuration":653610,"Delta":554287230},{"NoteNumber":78,"Velocity":70,"Duration":210526,"SoundDuration":210526,"Delta":554287230},{"NoteNumber":63,"Velocity":70,"Duration":653610,"SoundDuration":653610,"Delta":554287230},{"NoteNumber":70,"Velocity":56,"Duration":210526,"SoundDuration":210526,"Delta":554287230},{"NoteNumber":80,"Velocity":57,"Duration":210526,"SoundDuration":210526,"Delta":554497757},{"NoteNumber":68,"Velocity":52,"Duration":210526,"SoundDuration":210526,"Delta":554497757},{"NoteNumber":82,"Velocity":61,"Duration":232558,"SoundDuration":232558,"Delta":554708283},{"NoteNumber":66,"Velocity":52,"Duration":232558,"SoundDuration":232558,"Delta":554708283},{"NoteNumber":80,"Velocity":72,"Duration":212765,"SoundDuration":212765,"Delta":554940841},{"NoteNumber":92,"Velocity":84,"Duration":1246461,"SoundDuration":1246461,"Delta":554940841},{"NoteNumber":65,"Velocity":72,"Duration":1246461,"SoundDuration":1246461,"Delta":554940841},{"NoteNumber":83,"Velocity":61,"Duration":212765,"SoundDuration":212765,"Delta":555153607},{"NoteNumber":68,"Velocity":52,"Duration":212765,"SoundDuration":212765,"Delta":555153607},{"NoteNumber":82,"Velocity":62,"Duration":212765,"SoundDuration":212765,"Delta":555366373},{"NoteNumber":70,"Velocity":53,"Duration":212765,"SoundDuration":212765,"Delta":555366373},{"NoteNumber":80,"Velocity":75,"Duration":200000,"SoundDuration":200000,"Delta":555579139},{"NoteNumber":71,"Velocity":60,"Duration":200000,"SoundDuration":200000,"Delta":555579139},{"NoteNumber":82,"Velocity":60,"Duration":204081,"SoundDuration":204081,"Delta":555779139},{"NoteNumber":73,"Velocity":57,"Duration":204081,"SoundDuration":204081,"Delta":555779139},{"NoteNumber":83,"Velocity":61,"Duration":204081,"SoundDuration":204081,"Delta":555983221},{"NoteNumber":75,"Velocity":58,"Duration":204081,"SoundDuration":204081,"Delta":555983221},{"NoteNumber":94,"Velocity":91,"Duration":635436,"SoundDuration":635436,"Delta":556187303},{"NoteNumber":82,"Velocity":77,"Duration":204081,"SoundDuration":204081,"Delta":556187303},{"NoteNumber":66,"Velocity":77,"Duration":635436,"SoundDuration":635436,"Delta":556187303},{"NoteNumber":73,"Velocity":62,"Duration":204081,"SoundDuration":204081,"Delta":556187303},{"NoteNumber":83,"Velocity":63,"Duration":204081,"SoundDuration":204081,"Delta":556391384},{"NoteNumber":71,"Velocity":57,"Duration":204081,"SoundDuration":204081,"Delta":556391384},{"NoteNumber":85,"Velocity":64,"Duration":440038,"SoundDuration":440038,"Delta":556595466},{"NoteNumber":70,"Velocity":58,"Duration":227272,"SoundDuration":227272,"Delta":556595466},{"NoteNumber":95,"Velocity":96,"Duration":638297,"SoundDuration":638297,"Delta":556822739},{"NoteNumber":76,"Velocity":58,"Duration":212765,"SoundDuration":212765,"Delta":556822739},{"NoteNumber":68,"Velocity":72,"Duration":638297,"SoundDuration":638297,"Delta":556822739},{"NoteNumber":82,"Velocity":61,"Duration":212765,"SoundDuration":212765,"Delta":557035505},{"NoteNumber":73,"Velocity":52,"Duration":212765,"SoundDuration":212765,"Delta":557035505},{"NoteNumber":83,"Velocity":62,"Duration":212765,"SoundDuration":212765,"Delta":557248271},{"NoteNumber":75,"Velocity":53,"Duration":212765,"SoundDuration":212765,"Delta":557248271},{"NoteNumber":85,"Velocity":74,"Duration":608163,"SoundDuration":608163,"Delta":557461037},{"NoteNumber":79,"Velocity":63,"Duration":200000,"SoundDuration":200000,"Delta":557461037},{"NoteNumber":70,"Velocity":61,"Duration":608163,"SoundDuration":608163,"Delta":557461037},{"NoteNumber":76,"Velocity":51,"Duration":200000,"SoundDuration":200000,"Delta":557461037},{"NoteNumber":78,"Velocity":51,"Duration":204081,"SoundDuration":204081,"Delta":557661037},{"NoteNumber":58,"Velocity":48,"Duration":408163,"SoundDuration":408163,"Delta":557661037},{"NoteNumber":66,"Velocity":48,"Duration":204081,"SoundDuration":204081,"Delta":557661037},{"NoteNumber":76,"Velocity":51,"Duration":204081,"SoundDuration":204081,"Delta":557865118},{"NoteNumber":67,"Velocity":49,"Duration":204081,"SoundDuration":204081,"Delta":557865118},{"NoteNumber":87,"Velocity":70,"Duration":635436,"SoundDuration":635436,"Delta":558069200},{"NoteNumber":75,"Velocity":65,"Duration":204081,"SoundDuration":204081,"Delta":558069200},{"NoteNumber":59,"Velocity":65,"Duration":635436,"SoundDuration":635436,"Delta":558069200},{"NoteNumber":66,"Velocity":52,"Duration":204081,"SoundDuration":204081,"Delta":558069200},{"NoteNumber":76,"Velocity":53,"Duration":204081,"SoundDuration":204081,"Delta":558273282},{"NoteNumber":64,"Velocity":48,"Duration":204081,"SoundDuration":204081,"Delta":558273282},{"NoteNumber":78,"Velocity":54,"Duration":440038,"SoundDuration":440038,"Delta":558477363},{"NoteNumber":63,"Velocity":52,"Duration":227272,"SoundDuration":227272,"Delta":558477363},{"NoteNumber":81,"Velocity":70,"Duration":1297638,"SoundDuration":1297638,"Delta":558704636},{"NoteNumber":63,"Velocity":48,"Duration":212765,"SoundDuration":212765,"Delta":558704636},{"NoteNumber":60,"Velocity":52,"Duration":1297638,"SoundDuration":1297638,"Delta":558704636},{"NoteNumber":77,"Velocity":48,"Duration":212765,"SoundDuration":212765,"Delta":558917402},{"NoteNumber":65,"Velocity":47,"Duration":212765,"SoundDuration":212765,"Delta":558917402},{"NoteNumber":75,"Velocity":47,"Duration":212765,"SoundDuration":212765,"Delta":559130168},{"NoteNumber":66,"Velocity":39,"Duration":212765,"SoundDuration":212765,"Delta":559130168},{"NoteNumber":72,"Velocity":52,"Duration":219780,"SoundDuration":219780,"Delta":559342934},{"NoteNumber":69,"Velocity":45,"Duration":219780,"SoundDuration":219780,"Delta":559342934},{"NoteNumber":73,"Velocity":46,"Duration":219780,"SoundDuration":219780,"Delta":559562714},{"NoteNumber":68,"Velocity":38,"Duration":219780,"SoundDuration":219780,"Delta":559562714},{"NoteNumber":75,"Velocity":45,"Duration":219780,"SoundDuration":219780,"Delta":559782494},{"NoteNumber":66,"Velocity":37,"Duration":219780,"SoundDuration":219780,"Delta":559782494},{"NoteNumber":77,"Velocity":47,"Duration":221567,"SoundDuration":221567,"Delta":560002274},{"NoteNumber":80,"Velocity":58,"Duration":683133,"SoundDuration":683133,"Delta":560002274},{"NoteNumber":61,"Velocity":43,"Duration":221567,"SoundDuration":221567,"Delta":560002274},{"NoteNumber":59,"Velocity":38,"Duration":683133,"SoundDuration":683133,"Delta":560002274},{"NoteNumber":74,"Velocity":44,"Duration":226938,"SoundDuration":226938,"Delta":560223842},{"NoteNumber":65,"Velocity":36,"Duration":226938,"SoundDuration":226938,"Delta":560223842},{"NoteNumber":73,"Velocity":43,"Duration":234628,"SoundDuration":234628,"Delta":560450780},{"NoteNumber":68,"Velocity":35,"Duration":234628,"SoundDuration":234628,"Delta":560450780},{"NoteNumber":76,"Velocity":51,"Duration":1428571,"SoundDuration":1428571,"Delta":560685408},{"NoteNumber":79,"Velocity":51,"Duration":2142856,"SoundDuration":2142856,"Delta":560685408},{"NoteNumber":85,"Velocity":61,"Duration":2142856,"SoundDuration":2142856,"Delta":560685408},{"NoteNumber":70,"Velocity":39,"Duration":2142856,"SoundDuration":2142856,"Delta":560685408},{"NoteNumber":73,"Velocity":46,"Duration":2142856,"SoundDuration":2142856,"Delta":560685408},{"NoteNumber":75,"Velocity":51,"Duration":714285,"SoundDuration":714285,"Delta":562113979},{"NoteNumber":87,"Velocity":52,"Duration":1428571,"SoundDuration":1428571,"Delta":562828265},{"NoteNumber":82,"Velocity":44,"Duration":1428571,"SoundDuration":1428571,"Delta":562828265},{"NoteNumber":75,"Velocity":44,"Duration":1428571,"SoundDuration":1428571,"Delta":562828265},{"NoteNumber":67,"Velocity":32,"Duration":1428571,"SoundDuration":1428571,"Delta":562828265},{"NoteNumber":70,"Velocity":38,"Duration":1428571,"SoundDuration":1428571,"Delta":562828265},{"NoteNumber":73,"Velocity":43,"Duration":714285,"SoundDuration":714285,"Delta":564256836},{"NoteNumber":75,"Velocity":43,"Duration":714285,"SoundDuration":714285,"Delta":564256836},{"NoteNumber":82,"Velocity":51,"Duration":714285,"SoundDuration":714285,"Delta":564256836},{"NoteNumber":63,"Velocity":26,"Duration":714285,"SoundDuration":714285,"Delta":564256836},{"NoteNumber":67,"Velocity":31,"Duration":714285,"SoundDuration":714285,"Delta":564256836},{"NoteNumber":73,"Velocity":51,"Duration":357142,"SoundDuration":357142,"Delta":564971121},{"NoteNumber":85,"Velocity":61,"Duration":357142,"SoundDuration":357142,"Delta":564971121},{"NoteNumber":70,"Velocity":41,"Duration":357142,"SoundDuration":357142,"Delta":564971121},{"NoteNumber":70,"Velocity":48,"Duration":357142,"SoundDuration":357142,"Delta":565328264},{"NoteNumber":82,"Velocity":57,"Duration":357142,"SoundDuration":357142,"Delta":565328264},{"NoteNumber":67,"Velocity":37,"Duration":357142,"SoundDuration":357142,"Delta":565328264},{"NoteNumber":83,"Velocity":74,"Duration":344827,"SoundDuration":344827,"Delta":565685407},{"NoteNumber":71,"Velocity":62,"Duration":344827,"SoundDuration":344827,"Delta":565685407},{"NoteNumber":56,"Velocity":36,"Duration":710681,"SoundDuration":710681,"Delta":565685407},{"NoteNumber":68,"Velocity":46,"Duration":344827,"SoundDuration":344827,"Delta":565685407},{"NoteNumber":75,"Velocity":60,"Duration":365853,"SoundDuration":365853,"Delta":566030234},{"NoteNumber":87,"Velocity":71,"Duration":365853,"SoundDuration":365853,"Delta":566030234},{"NoteNumber":63,"Velocity":37,"Duration":365853,"SoundDuration":365853,"Delta":566030234},{"NoteNumber":94,"Velocity":79,"Duration":348837,"SoundDuration":348837,"Delta":566396088},{"NoteNumber":82,"Velocity":67,"Duration":348837,"SoundDuration":348837,"Delta":566396088},{"NoteNumber":47,"Velocity":49,"Duration":723837,"SoundDuration":723837,"Delta":566396088},{"NoteNumber":61,"Velocity":49,"Duration":348837,"SoundDuration":348837,"Delta":566396088},{"NoteNumber":92,"Velocity":73,"Duration":719827,"SoundDuration":719827,"Delta":566744925},{"NoteNumber":80,"Velocity":62,"Duration":719827,"SoundDuration":719827,"Delta":566744925},{"NoteNumber":59,"Velocity":47,"Duration":375000,"SoundDuration":375000,"Delta":566744925},{"NoteNumber":49,"Velocity":45,"Duration":689655,"SoundDuration":689655,"Delta":567119925},{"NoteNumber":58,"Velocity":54,"Duration":689655,"SoundDuration":689655,"Delta":567119925},{"NoteNumber":90,"Velocity":72,"Duration":678160,"SoundDuration":678160,"Delta":567464753},{"NoteNumber":78,"Velocity":61,"Duration":678160,"SoundDuration":678160,"Delta":567464753},{"NoteNumber":37,"Velocity":36,"Duration":333333,"SoundDuration":333333,"Delta":567809580},{"NoteNumber":46,"Velocity":43,"Duration":333333,"SoundDuration":333333,"Delta":567809580},{"NoteNumber":66,"Velocity":56,"Duration":333333,"SoundDuration":333333,"Delta":568142913},{"NoteNumber":70,"Velocity":56,"Duration":333333,"SoundDuration":333333,"Delta":568142913},{"NoteNumber":78,"Velocity":67,"Duration":333333,"SoundDuration":333333,"Delta":568142913},{"NoteNumber":37,"Velocity":33,"Duration":501872,"SoundDuration":501872,"Delta":568142913},{"NoteNumber":49,"Velocity":46,"Duration":501872,"SoundDuration":501872,"Delta":568142913},{"NoteNumber":65,"Velocity":58,"Duration":337078,"SoundDuration":337078,"Delta":568476247},{"NoteNumber":77,"Velocity":69,"Duration":337078,"SoundDuration":337078,"Delta":568476247},{"NoteNumber":68,"Velocity":58,"Duration":337078,"SoundDuration":337078,"Delta":568476247},{"NoteNumber":35,"Velocity":45,"Duration":168539,"SoundDuration":168539,"Delta":568644786},{"NoteNumber":47,"Velocity":53,"Duration":168539,"SoundDuration":168539,"Delta":568644786},{"NoteNumber":73,"Velocity":64,"Duration":441176,"SoundDuration":441176,"Delta":568813325},{"NoteNumber":64,"Velocity":64,"Duration":441176,"SoundDuration":441176,"Delta":568813325},{"NoteNumber":76,"Velocity":76,"Duration":441176,"SoundDuration":441176,"Delta":568813325},{"NoteNumber":67,"Velocity":64,"Duration":441176,"SoundDuration":441176,"Delta":568813325},{"NoteNumber":34,"Velocity":46,"Duration":220588,"SoundDuration":220588,"Delta":568813325},{"NoteNumber":46,"Velocity":55,"Duration":220588,"SoundDuration":220588,"Delta":568813325},{"NoteNumber":35,"Velocity":48,"Duration":220588,"SoundDuration":220588,"Delta":569033914},{"NoteNumber":47,"Velocity":57,"Duration":220588,"SoundDuration":220588,"Delta":569033914},{"NoteNumber":64,"Velocity":46,"Duration":1266920,"SoundDuration":1266920,"Delta":569254502},{"NoteNumber":67,"Velocity":46,"Duration":1266920,"SoundDuration":1266920,"Delta":569254502},{"NoteNumber":73,"Velocity":46,"Duration":1266920,"SoundDuration":1266920,"Delta":569254502},{"NoteNumber":76,"Velocity":55,"Duration":1266920,"SoundDuration":1266920,"Delta":569254502},{"NoteNumber":34,"Velocity":52,"Duration":157894,"SoundDuration":157894,"Delta":569254502},{"NoteNumber":37,"Velocity":44,"Duration":157894,"SoundDuration":157894,"Delta":569412397},{"NoteNumber":40,"Velocity":43,"Duration":157894,"SoundDuration":157894,"Delta":569570291},{"NoteNumber":43,"Velocity":42,"Duration":157894,"SoundDuration":157894,"Delta":569728186},{"NoteNumber":46,"Velocity":41,"Duration":157894,"SoundDuration":157894,"Delta":569886081},{"NoteNumber":49,"Velocity":40,"Duration":157894,"SoundDuration":157894,"Delta":570043976},{"NoteNumber":52,"Velocity":39,"Duration":159434,"SoundDuration":159434,"Delta":570201870},{"NoteNumber":55,"Velocity":38,"Duration":160117,"SoundDuration":160117,"Delta":570361305},{"NoteNumber":73,"Velocity":40,"Duration":161290,"SoundDuration":161290,"Delta":570521423},{"NoteNumber":76,"Velocity":51,"Duration":323837,"SoundDuration":323837,"Delta":570521423},{"NoteNumber":58,"Velocity":36,"Duration":161290,"SoundDuration":161290,"Delta":570521423},{"NoteNumber":61,"Velocity":36,"Duration":161290,"SoundDuration":161290,"Delta":570521423},{"NoteNumber":67,"Velocity":40,"Duration":162546,"SoundDuration":162546,"Delta":570682713},{"NoteNumber":64,"Velocity":27,"Duration":162546,"SoundDuration":162546,"Delta":570682713},{"NoteNumber":75,"Velocity":40,"Duration":360620,"SoundDuration":360620,"Delta":570845260},{"NoteNumber":71,"Velocity":40,"Duration":163252,"SoundDuration":163252,"Delta":570845260},{"NoteNumber":59,"Velocity":27,"Duration":163252,"SoundDuration":163252,"Delta":570845260},{"NoteNumber":66,"Velocity":40,"Duration":197368,"SoundDuration":197368,"Delta":571008512},{"NoteNumber":63,"Velocity":27,"Duration":197368,"SoundDuration":197368,"Delta":571008512},{"NoteNumber":62,"Velocity":29,"Duration":1333332,"SoundDuration":1333332,"Delta":571205881},{"NoteNumber":66,"Velocity":29,"Duration":1333332,"SoundDuration":1333332,"Delta":571205881},{"NoteNumber":70,"Velocity":29,"Duration":1333332,"SoundDuration":1333332,"Delta":571205881},{"NoteNumber":74,"Velocity":34,"Duration":1333332,"SoundDuration":1333332,"Delta":571205881},{"NoteNumber":47,"Velocity":22,"Duration":1333332,"SoundDuration":1333332,"Delta":571205881},{"NoteNumber":59,"Velocity":26,"Duration":1333332,"SoundDuration":1333332,"Delta":571205881},{"NoteNumber":66,"Velocity":51,"Duration":1250000,"SoundDuration":1250000,"Delta":573195464},{"NoteNumber":70,"Velocity":51,"Duration":1250000,"SoundDuration":1250000,"Delta":573195464},{"NoteNumber":73,"Velocity":61,"Duration":1579670,"SoundDuration":1579670,"Delta":573195464},{"NoteNumber":61,"Velocity":51,"Duration":1250000,"SoundDuration":1250000,"Delta":573195464},{"NoteNumber":37,"Velocity":39,"Duration":208333,"SoundDuration":208333,"Delta":573195464},{"NoteNumber":42,"Velocity":34,"Duration":208333,"SoundDuration":208333,"Delta":573403797},{"NoteNumber":46,"Velocity":34,"Duration":208333,"SoundDuration":208333,"Delta":573612130},{"NoteNumber":49,"Velocity":31,"Duration":208333,"SoundDuration":208333,"Delta":573820464},{"NoteNumber":54,"Velocity":31,"Duration":208333,"SoundDuration":208333,"Delta":574028797},{"NoteNumber":58,"Velocity":31,"Duration":208333,"SoundDuration":208333,"Delta":574237130},{"NoteNumber":70,"Velocity":40,"Duration":164835,"SoundDuration":164835,"Delta":574445464},{"NoteNumber":49,"Velocity":39,"Duration":329670,"SoundDuration":329670,"Delta":574445464},{"NoteNumber":54,"Velocity":38,"Duration":164835,"SoundDuration":164835,"Delta":574445464},{"NoteNumber":66,"Velocity":40,"Duration":164835,"SoundDuration":164835,"Delta":574610299},{"NoteNumber":58,"Velocity":34,"Duration":164835,"SoundDuration":164835,"Delta":574610299},{"NoteNumber":69,"Velocity":40,"Duration":182926,"SoundDuration":182926,"Delta":574775134},{"NoteNumber":72,"Velocity":40,"Duration":388406,"SoundDuration":388406,"Delta":574775134},{"NoteNumber":51,"Velocity":28,"Duration":388406,"SoundDuration":388406,"Delta":574775134},{"NoteNumber":54,"Velocity":34,"Duration":182926,"SoundDuration":182926,"Delta":574775134},{"NoteNumber":66,"Velocity":40,"Duration":205479,"SoundDuration":205479,"Delta":574958061},{"NoteNumber":57,"Velocity":34,"Duration":205479,"SoundDuration":205479,"Delta":574958061},{"NoteNumber":65,"Velocity":40,"Duration":666666,"SoundDuration":666666,"Delta":575163540},{"NoteNumber":71,"Velocity":48,"Duration":666666,"SoundDuration":666666,"Delta":575163540},{"NoteNumber":68,"Velocity":40,"Duration":666666,"SoundDuration":666666,"Delta":575163540},{"NoteNumber":62,"Velocity":40,"Duration":666666,"SoundDuration":666666,"Delta":575163540},{"NoteNumber":50,"Velocity":32,"Duration":666666,"SoundDuration":666666,"Delta":575163540},{"NoteNumber":53,"Velocity":32,"Duration":666666,"SoundDuration":666666,"Delta":575163540},{"NoteNumber":56,"Velocity":32,"Duration":666666,"SoundDuration":666666,"Delta":575163540},{"NoteNumber":59,"Velocity":38,"Duration":666666,"SoundDuration":666666,"Delta":575163540},{"NoteNumber":50,"Velocity":25,"Duration":967742,"SoundDuration":967742,"Delta":575830207},{"NoteNumber":53,"Velocity":25,"Duration":967742,"SoundDuration":967742,"Delta":575830207},{"NoteNumber":56,"Velocity":25,"Duration":967742,"SoundDuration":967742,"Delta":575830207},{"NoteNumber":59,"Velocity":30,"Duration":967742,"SoundDuration":967742,"Delta":575830207},{"NoteNumber":51,"Velocity":22,"Duration":322580,"SoundDuration":322580,"Delta":576797949},{"NoteNumber":55,"Velocity":22,"Duration":322580,"SoundDuration":322580,"Delta":576797949},{"NoteNumber":58,"Velocity":27,"Duration":322580,"SoundDuration":322580,"Delta":576797949},{"NoteNumber":51,"Velocity":25,"Duration":1276882,"SoundDuration":1276882,"Delta":577120530},{"NoteNumber":55,"Velocity":25,"Duration":1276882,"SoundDuration":1276882,"Delta":577120530},{"NoteNumber":58,"Velocity":30,"Duration":1276882,"SoundDuration":1276882,"Delta":577120530},{"NoteNumber":51,"Velocity":22,"Duration":632978,"SoundDuration":632978,"Delta":578410853},{"NoteNumber":55,"Velocity":22,"Duration":632978,"SoundDuration":632978,"Delta":578410853},{"NoteNumber":58,"Velocity":22,"Duration":632978,"SoundDuration":632978,"Delta":578410853},{"NoteNumber":63,"Velocity":27,"Duration":632978,"SoundDuration":632978,"Delta":578410853},{"NoteNumber":67,"Velocity":38,"Duration":1304944,"SoundDuration":1304944,"Delta":579049151},{"NoteNumber":70,"Velocity":45,"Duration":1304944,"SoundDuration":1304944,"Delta":579049151},{"NoteNumber":51,"Velocity":25,"Duration":1304944,"SoundDuration":1304944,"Delta":579049151},{"NoteNumber":55,"Velocity":25,"Duration":1304944,"SoundDuration":1304944,"Delta":579049151},{"NoteNumber":58,"Velocity":25,"Duration":1304944,"SoundDuration":1304944,"Delta":579049151},{"NoteNumber":63,"Velocity":30,"Duration":1304944,"SoundDuration":1304944,"Delta":579049151},{"NoteNumber":67,"Velocity":36,"Duration":652173,"SoundDuration":652173,"Delta":580367832},{"NoteNumber":70,"Velocity":36,"Duration":652173,"SoundDuration":652173,"Delta":580367832},{"NoteNumber":75,"Velocity":42,"Duration":652173,"SoundDuration":652173,"Delta":580367832},{"NoteNumber":51,"Velocity":22,"Duration":646739,"SoundDuration":646739,"Delta":580367832},{"NoteNumber":55,"Velocity":22,"Duration":646739,"SoundDuration":646739,"Delta":580367832},{"NoteNumber":58,"Velocity":22,"Duration":646739,"SoundDuration":646739,"Delta":580367832},{"NoteNumber":63,"Velocity":27,"Duration":646739,"SoundDuration":646739,"Delta":580367832},{"NoteNumber":67,"Velocity":38,"Duration":1319318,"SoundDuration":1319318,"Delta":581020006},{"NoteNumber":63,"Velocity":38,"Duration":1319318,"SoundDuration":1319318,"Delta":581020006},{"NoteNumber":70,"Velocity":38,"Duration":1319318,"SoundDuration":1319318,"Delta":581020006},{"NoteNumber":75,"Velocity":45,"Duration":1319318,"SoundDuration":1319318,"Delta":581020006},{"NoteNumber":39,"Velocity":25,"Duration":645161,"SoundDuration":645161,"Delta":581020006},{"NoteNumber":51,"Velocity":30,"Duration":645161,"SoundDuration":645161,"Delta":581020006},{"NoteNumber":34,"Velocity":25,"Duration":1326331,"SoundDuration":1326331,"Delta":581665167},{"NoteNumber":46,"Velocity":30,"Duration":1326331,"SoundDuration":1326331,"Delta":581665167},{"NoteNumber":63,"Velocity":36,"Duration":652173,"SoundDuration":652173,"Delta":582339325},{"NoteNumber":75,"Velocity":44,"Duration":652173,"SoundDuration":652173,"Delta":582339325},{"NoteNumber":67,"Velocity":36,"Duration":652173,"SoundDuration":652173,"Delta":582339325},{"NoteNumber":63,"Velocity":38,"Duration":638297,"SoundDuration":638297,"Delta":582991499},{"NoteNumber":66,"Velocity":38,"Duration":638297,"SoundDuration":638297,"Delta":582991499},{"NoteNumber":75,"Velocity":45,"Duration":638297,"SoundDuration":638297,"Delta":582991499},{"NoteNumber":35,"Velocity":25,"Duration":638297,"SoundDuration":638297,"Delta":582991499},{"NoteNumber":47,"Velocity":30,"Duration":638297,"SoundDuration":638297,"Delta":582991499},{"NoteNumber":61,"Velocity":35,"Duration":1371831,"SoundDuration":1371831,"Delta":583629797},{"NoteNumber":73,"Velocity":41,"Duration":1371831,"SoundDuration":1371831,"Delta":583629797},{"NoteNumber":65,"Velocity":35,"Duration":1371831,"SoundDuration":1371831,"Delta":583629797},{"NoteNumber":37,"Velocity":21,"Duration":1371831,"SoundDuration":1371831,"Delta":583629797},{"NoteNumber":49,"Velocity":25,"Duration":1371831,"SoundDuration":1371831,"Delta":583629797},{"NoteNumber":61,"Velocity":35,"Duration":1333333,"SoundDuration":1333333,"Delta":585001629},{"NoteNumber":66,"Velocity":35,"Duration":1333333,"SoundDuration":1333333,"Delta":585001629},{"NoteNumber":70,"Velocity":35,"Duration":1333333,"SoundDuration":1333333,"Delta":585001629},{"NoteNumber":73,"Velocity":41,"Duration":1333333,"SoundDuration":1333333,"Delta":585001629},{"NoteNumber":30,"Velocity":20,"Duration":1333333,"SoundDuration":1333333,"Delta":585001629},{"NoteNumber":42,"Velocity":24,"Duration":1333333,"SoundDuration":1333333,"Delta":585001629},{"NoteNumber":70,"Velocity":33,"Duration":666666,"SoundDuration":666666,"Delta":586334962},{"NoteNumber":58,"Velocity":22,"Duration":666666,"SoundDuration":666666,"Delta":586334962},{"NoteNumber":61,"Velocity":42,"Duration":1333333,"SoundDuration":1333333,"Delta":587001628},{"NoteNumber":49,"Velocity":24,"Duration":1333333,"SoundDuration":1333333,"Delta":587001628},{"NoteNumber":73,"Velocity":36,"Duration":740740,"SoundDuration":740740,"Delta":588334961},{"NoteNumber":61,"Velocity":21,"Duration":740740,"SoundDuration":740740,"Delta":588334961},{"NoteNumber":70,"Velocity":40,"Duration":1318680,"SoundDuration":1318680,"Delta":589075702},{"NoteNumber":58,"Velocity":24,"Duration":1318680,"SoundDuration":1318680,"Delta":589075702},{"NoteNumber":82,"Velocity":59,"Duration":659340,"SoundDuration":659340,"Delta":590394383},{"NoteNumber":73,"Velocity":49,"Duration":659340,"SoundDuration":659340,"Delta":590394383},{"NoteNumber":70,"Velocity":49,"Duration":659340,"SoundDuration":659340,"Delta":590394383},{"NoteNumber":37,"Velocity":28,"Duration":1318681,"SoundDuration":1318681,"Delta":590394383},{"NoteNumber":49,"Velocity":34,"Duration":1318681,"SoundDuration":1318681,"Delta":590394383},{"NoteNumber":68,"Velocity":53,"Duration":1318681,"SoundDuration":1318681,"Delta":591053723},{"NoteNumber":80,"Velocity":63,"Duration":1318681,"SoundDuration":1318681,"Delta":591053723},{"NoteNumber":71,"Velocity":53,"Duration":1318681,"SoundDuration":1318681,"Delta":591053723},{"NoteNumber":39,"Velocity":27,"Duration":329670,"SoundDuration":329670,"Delta":591713064},{"NoteNumber":51,"Velocity":40,"Duration":329670,"SoundDuration":329670,"Delta":591713064},{"NoteNumber":37,"Velocity":27,"Duration":329670,"SoundDuration":329670,"Delta":592042734},{"NoteNumber":49,"Velocity":40,"Duration":329670,"SoundDuration":329670,"Delta":592042734},{"NoteNumber":73,"Velocity":51,"Duration":659340,"SoundDuration":659340,"Delta":592372404},{"NoteNumber":71,"Velocity":43,"Duration":659340,"SoundDuration":659340,"Delta":592372404},{"NoteNumber":68,"Velocity":43,"Duration":659340,"SoundDuration":659340,"Delta":592372404},{"NoteNumber":61,"Velocity":43,"Duration":659340,"SoundDuration":659340,"Delta":592372404},{"NoteNumber":51,"Velocity":29,"Duration":329670,"SoundDuration":329670,"Delta":592372404},{"NoteNumber":49,"Velocity":29,"Duration":329670,"SoundDuration":329670,"Delta":592372404},{"NoteNumber":39,"Velocity":29,"Duration":329670,"SoundDuration":329670,"Delta":592372404},{"NoteNumber":41,"Velocity":29,"Duration":329670,"SoundDuration":329670,"Delta":592702075},{"NoteNumber":49,"Velocity":29,"Duration":329670,"SoundDuration":329670,"Delta":592702075},{"NoteNumber":53,"Velocity":29,"Duration":329670,"SoundDuration":329670,"Delta":592702075},{"NoteNumber":73,"Velocity":54,"Duration":1333333,"SoundDuration":1333333,"Delta":593031745},{"NoteNumber":61,"Velocity":45,"Duration":1333333,"SoundDuration":1333333,"Delta":593031745},{"NoteNumber":70,"Velocity":45,"Duration":1333333,"SoundDuration":1333333,"Delta":593031745},{"NoteNumber":49,"Velocity":30,"Duration":1333333,"SoundDuration":1333333,"Delta":593031745},{"NoteNumber":42,"Velocity":30,"Duration":1333333,"SoundDuration":1333333,"Delta":593031745},{"NoteNumber":54,"Velocity":36,"Duration":1333333,"SoundDuration":1333333,"Delta":593031745},{"NoteNumber":82,"Velocity":51,"Duration":666666,"SoundDuration":666666,"Delta":594365078},{"NoteNumber":70,"Velocity":33,"Duration":666666,"SoundDuration":666666,"Delta":594365078},{"NoteNumber":73,"Velocity":50,"Duration":1333333,"SoundDuration":1333333,"Delta":595031744},{"NoteNumber":61,"Velocity":37,"Duration":1333333,"SoundDuration":1333333,"Delta":595031744},{"NoteNumber":85,"Velocity":58,"Duration":714285,"SoundDuration":714285,"Delta":596365077},{"NoteNumber":73,"Velocity":49,"Duration":714285,"SoundDuration":714285,"Delta":596365077},{"NoteNumber":34,"Velocity":28,"Duration":714285,"SoundDuration":714285,"Delta":596365077},{"NoteNumber":46,"Velocity":34,"Duration":714285,"SoundDuration":714285,"Delta":596365077},{"NoteNumber":70,"Velocity":54,"Duration":1333497,"SoundDuration":1333497,"Delta":597079363},{"NoteNumber":82,"Velocity":64,"Duration":1333497,"SoundDuration":1333497,"Delta":597079363},{"NoteNumber":37,"Velocity":34,"Duration":659340,"SoundDuration":659340,"Delta":597079363},{"NoteNumber":49,"Velocity":40,"Duration":659340,"SoundDuration":659340,"Delta":597079363},{"NoteNumber":49,"Velocity":28,"Duration":674157,"SoundDuration":674157,"Delta":597738703},{"NoteNumber":61,"Velocity":34,"Duration":674157,"SoundDuration":674157,"Delta":597738703},{"NoteNumber":73,"Velocity":52,"Duration":1348315,"SoundDuration":1348315,"Delta":598412861},{"NoteNumber":85,"Velocity":62,"Duration":1348315,"SoundDuration":1348315,"Delta":598412861},{"NoteNumber":46,"Velocity":30,"Duration":674157,"SoundDuration":674157,"Delta":598412861},{"NoteNumber":49,"Velocity":30,"Duration":674157,"SoundDuration":674157,"Delta":598412861},{"NoteNumber":58,"Velocity":36,"Duration":674157,"SoundDuration":674157,"Delta":598412861},{"NoteNumber":44,"Velocity":36,"Duration":1355975,"SoundDuration":1355975,"Delta":599087018},{"NoteNumber":49,"Velocity":36,"Duration":1355975,"SoundDuration":1355975,"Delta":599087018},{"NoteNumber":56,"Velocity":43,"Duration":1355975,"SoundDuration":1355975,"Delta":599087018},{"NoteNumber":85,"Velocity":56,"Duration":340909,"SoundDuration":340909,"Delta":599761176},{"NoteNumber":75,"Velocity":56,"Duration":681818,"SoundDuration":681818,"Delta":599761176},{"NoteNumber":87,"Velocity":67,"Duration":681818,"SoundDuration":681818,"Delta":599761176},{"NoteNumber":83,"Velocity":61,"Duration":340909,"SoundDuration":340909,"Delta":600102085},{"NoteNumber":82,"Velocity":67,"Duration":344827,"SoundDuration":344827,"Delta":600442994},{"NoteNumber":89,"Velocity":67,"Duration":719827,"SoundDuration":719827,"Delta":600442994},{"NoteNumber":77,"Velocity":56,"Duration":719827,"SoundDuration":719827,"Delta":600442994},{"NoteNumber":37,"Velocity":34,"Duration":719827,"SoundDuration":719827,"Delta":600442994},{"NoteNumber":49,"Velocity":40,"Duration":719827,"SoundDuration":719827,"Delta":600442994},{"NoteNumber":83,"Velocity":60,"Duration":375000,"SoundDuration":375000,"Delta":600787821},{"NoteNumber":82,"Velocity":56,"Duration":2250000,"SoundDuration":2250000,"Delta":601162821},{"NoteNumber":90,"Velocity":67,"Duration":2250000,"SoundDuration":2250000,"Delta":601162821},{"NoteNumber":78,"Velocity":56,"Duration":2250000,"SoundDuration":2250000,"Delta":601162821},{"NoteNumber":42,"Velocity":36,"Duration":2250000,"SoundDuration":2250000,"Delta":601162821},{"NoteNumber":49,"Velocity":36,"Duration":2250000,"SoundDuration":2250000,"Delta":601162821},{"NoteNumber":54,"Velocity":43,"Duration":2250000,"SoundDuration":2250000,"Delta":601162821},{"NoteNumber":80,"Velocity":48,"Duration":2357142,"SoundDuration":2357142,"Delta":603412821},{"NoteNumber":89,"Velocity":48,"Duration":2357142,"SoundDuration":2357142,"Delta":603412821},{"NoteNumber":92,"Velocity":57,"Duration":2357142,"SoundDuration":2357142,"Delta":603412821},{"NoteNumber":37,"Velocity":28,"Duration":2357142,"SoundDuration":2357142,"Delta":603412821},{"NoteNumber":49,"Velocity":33,"Duration":2357142,"SoundDuration":2357142,"Delta":603412821},{"NoteNumber":85,"Velocity":52,"Duration":857142,"SoundDuration":857142,"Delta":604912821},{"NoteNumber":94,"Velocity":43,"Duration":1578946,"SoundDuration":1578946,"Delta":605769964},{"NoteNumber":90,"Velocity":36,"Duration":1578946,"SoundDuration":1578946,"Delta":605769964},{"NoteNumber":85,"Velocity":36,"Duration":1578946,"SoundDuration":1578946,"Delta":605769964},{"NoteNumber":82,"Velocity":36,"Duration":1578946,"SoundDuration":1578946,"Delta":605769964},{"NoteNumber":30,"Velocity":22,"Duration":1578946,"SoundDuration":1578946,"Delta":605769964},{"NoteNumber":42,"Velocity":26,"Duration":1578946,"SoundDuration":1578946,"Delta":605769964},{"NoteNumber":70,"Velocity":36,"Duration":743749,"SoundDuration":743749,"Delta":607348911},{"NoteNumber":73,"Velocity":36,"Duration":743749,"SoundDuration":743749,"Delta":607348911},{"NoteNumber":82,"Velocity":43,"Duration":743749,"SoundDuration":743749,"Delta":607348911},{"NoteNumber":42,"Velocity":22,"Duration":743749,"SoundDuration":743749,"Delta":607348911},{"NoteNumber":54,"Velocity":26,"Duration":743749,"SoundDuration":743749,"Delta":607348911},{"NoteNumber":85,"Velocity":60,"Duration":1125000,"SoundDuration":1125000,"Delta":608098911},{"NoteNumber":82,"Velocity":51,"Duration":1125000,"SoundDuration":1125000,"Delta":608098911},{"NoteNumber":73,"Velocity":51,"Duration":1125000,"SoundDuration":1125000,"Delta":608098911},{"NoteNumber":42,"Velocity":25,"Duration":1500000,"SoundDuration":1500000,"Delta":608098911},{"NoteNumber":54,"Velocity":29,"Duration":1500000,"SoundDuration":1500000,"Delta":608098911},{"NoteNumber":86,"Velocity":67,"Duration":375000,"SoundDuration":375000,"Delta":609223911},{"NoteNumber":83,"Velocity":57,"Duration":375000,"SoundDuration":375000,"Delta":609223911},{"NoteNumber":74,"Velocity":57,"Duration":375000,"SoundDuration":375000,"Delta":609223911},{"NoteNumber":88,"Velocity":72,"Duration":405405,"SoundDuration":405405,"Delta":609598911},{"NoteNumber":85,"Velocity":60,"Duration":405405,"SoundDuration":405405,"Delta":609598911},{"NoteNumber":76,"Velocity":60,"Duration":405405,"SoundDuration":405405,"Delta":609598911},{"NoteNumber":42,"Velocity":36,"Duration":608108,"SoundDuration":608108,"Delta":609598911},{"NoteNumber":54,"Velocity":43,"Duration":608108,"SoundDuration":608108,"Delta":609598911},{"NoteNumber":90,"Velocity":56,"Duration":466095,"SoundDuration":466095,"Delta":610004317},{"NoteNumber":86,"Velocity":47,"Duration":466095,"SoundDuration":466095,"Delta":610004317},{"NoteNumber":78,"Velocity":47,"Duration":466095,"SoundDuration":466095,"Delta":610004317},{"NoteNumber":40,"Velocity":31,"Duration":267857,"SoundDuration":267857,"Delta":610207020},{"NoteNumber":52,"Velocity":36,"Duration":267857,"SoundDuration":267857,"Delta":610207020},{"NoteNumber":90,"Velocity":51,"Duration":1500000,"SoundDuration":1500000,"Delta":610474877},{"NoteNumber":78,"Velocity":43,"Duration":1500000,"SoundDuration":1500000,"Delta":610474877},{"NoteNumber":38,"Velocity":28,"Duration":2222891,"SoundDuration":2222891,"Delta":610474877},{"NoteNumber":50,"Velocity":33,"Duration":2222891,"SoundDuration":2222891,"Delta":610474877},{"NoteNumber":86,"Velocity":40,"Duration":710843,"SoundDuration":710843,"Delta":611974877},{"NoteNumber":74,"Velocity":34,"Duration":710843,"SoundDuration":710843,"Delta":611974877},{"NoteNumber":86,"Velocity":46,"Duration":731707,"SoundDuration":731707,"Delta":612697768},{"NoteNumber":74,"Velocity":39,"Duration":731707,"SoundDuration":731707,"Delta":612697768},{"NoteNumber":42,"Velocity":25,"Duration":2320558,"SoundDuration":2320558,"Delta":612697768},{"NoteNumber":54,"Velocity":30,"Duration":2320558,"SoundDuration":2320558,"Delta":612697768},{"NoteNumber":83,"Velocity":43,"Duration":731707,"SoundDuration":731707,"Delta":613429476},{"NoteNumber":71,"Velocity":36,"Duration":731707,"SoundDuration":731707,"Delta":613429476},{"NoteNumber":73,"Velocity":36,"Duration":857142,"SoundDuration":857142,"Delta":614161183},{"NoteNumber":85,"Velocity":43,"Duration":857142,"SoundDuration":857142,"Delta":614161183},{"NoteNumber":74,"Velocity":39,"Duration":1558442,"SoundDuration":1558442,"Delta":615018326},{"NoteNumber":86,"Velocity":47,"Duration":1558442,"SoundDuration":1558442,"Delta":615018326},{"NoteNumber":47,"Velocity":26,"Duration":1558442,"SoundDuration":1558442,"Delta":615018326},{"NoteNumber":59,"Velocity":31,"Duration":1558442,"SoundDuration":1558442,"Delta":615018326},{"NoteNumber":47,"Velocity":26,"Duration":779221,"SoundDuration":779221,"Delta":618135210},{"NoteNumber":59,"Velocity":31,"Duration":779221,"SoundDuration":779221,"Delta":618135210},{"NoteNumber":43,"Velocity":22,"Duration":389610,"SoundDuration":389610,"Delta":618914431},{"NoteNumber":55,"Velocity":26,"Duration":389610,"SoundDuration":389610,"Delta":618914431},{"NoteNumber":38,"Velocity":22,"Duration":379870,"SoundDuration":379870,"Delta":619304042},{"NoteNumber":50,"Velocity":26,"Duration":379870,"SoundDuration":379870,"Delta":619304042},{"NoteNumber":71,"Velocity":39,"Duration":2281333,"SoundDuration":2281333,"Delta":619693652},{"NoteNumber":83,"Velocity":47,"Duration":2281333,"SoundDuration":2281333,"Delta":619693652},{"NoteNumber":38,"Velocity":26,"Duration":1558442,"SoundDuration":1558442,"Delta":619693652},{"NoteNumber":50,"Velocity":31,"Duration":1558442,"SoundDuration":1558442,"Delta":619693652},{"NoteNumber":35,"Velocity":22,"Duration":716867,"SoundDuration":716867,"Delta":621252094},{"NoteNumber":47,"Velocity":26,"Duration":716867,"SoundDuration":716867,"Delta":621252094},{"NoteNumber":74,"Velocity":39,"Duration":2235800,"SoundDuration":2235800,"Delta":621974986},{"NoteNumber":86,"Velocity":47,"Duration":2235800,"SoundDuration":2235800,"Delta":621974986},{"NoteNumber":35,"Velocity":26,"Duration":722891,"SoundDuration":722891,"Delta":621974986},{"NoteNumber":47,"Velocity":31,"Duration":722891,"SoundDuration":722891,"Delta":621974986},{"NoteNumber":31,"Velocity":22,"Duration":722891,"SoundDuration":722891,"Delta":622697877},{"NoteNumber":43,"Velocity":27,"Duration":722891,"SoundDuration":722891,"Delta":622697877},{"NoteNumber":33,"Velocity":22,"Duration":790017,"SoundDuration":790017,"Delta":623420769},{"NoteNumber":45,"Velocity":27,"Duration":790017,"SoundDuration":790017,"Delta":623420769},{"NoteNumber":91,"Velocity":80,"Duration":2945122,"SoundDuration":2945122,"Delta":624210786},{"NoteNumber":79,"Velocity":67,"Duration":2945122,"SoundDuration":2945122,"Delta":624210786},{"NoteNumber":35,"Velocity":46,"Duration":731707,"SoundDuration":731707,"Delta":624210786},{"NoteNumber":47,"Velocity":55,"Duration":731707,"SoundDuration":731707,"Delta":624210786},{"NoteNumber":47,"Velocity":49,"Duration":731707,"SoundDuration":731707,"Delta":624942493},{"NoteNumber":55,"Velocity":58,"Duration":731707,"SoundDuration":731707,"Delta":624942493},{"NoteNumber":48,"Velocity":52,"Duration":731707,"SoundDuration":731707,"Delta":625674201},{"NoteNumber":57,"Velocity":62,"Duration":731707,"SoundDuration":731707,"Delta":625674201},{"NoteNumber":50,"Velocity":54,"Duration":750000,"SoundDuration":750000,"Delta":626405908},{"NoteNumber":59,"Velocity":65,"Duration":750000,"SoundDuration":750000,"Delta":626405908},{"NoteNumber":71,"Velocity":45,"Duration":724574,"SoundDuration":724574,"Delta":627155908},{"NoteNumber":74,"Velocity":54,"Duration":724574,"SoundDuration":724574,"Delta":627155908},{"NoteNumber":59,"Velocity":45,"Duration":724574,"SoundDuration":724574,"Delta":627155908},{"NoteNumber":55,"Velocity":38,"Duration":724574,"SoundDuration":724574,"Delta":627155908},{"NoteNumber":66,"Velocity":44,"Duration":361445,"SoundDuration":361445,"Delta":627880483},{"NoteNumber":72,"Velocity":52,"Duration":361445,"SoundDuration":361445,"Delta":627880483},{"NoteNumber":50,"Velocity":33,"Duration":361445,"SoundDuration":361445,"Delta":627880483},{"NoteNumber":60,"Velocity":39,"Duration":361445,"SoundDuration":361445,"Delta":627880483},{"NoteNumber":57,"Velocity":33,"Duration":361445,"SoundDuration":361445,"Delta":627880483},{"NoteNumber":67,"Velocity":40,"Duration":441176,"SoundDuration":441176,"Delta":628241928},{"NoteNumber":71,"Velocity":47,"Duration":441176,"SoundDuration":441176,"Delta":628241928},{"NoteNumber":59,"Velocity":34,"Duration":441176,"SoundDuration":441176,"Delta":628241928},{"NoteNumber":55,"Velocity":28,"Duration":441176,"SoundDuration":441176,"Delta":628241928},{"NoteNumber":67,"Velocity":43,"Duration":666666,"SoundDuration":666666,"Delta":628683105},{"NoteNumber":71,"Velocity":51,"Duration":666666,"SoundDuration":666666,"Delta":628683105},{"NoteNumber":55,"Velocity":36,"Duration":3304517,"SoundDuration":3304517,"Delta":628683105},{"NoteNumber":59,"Velocity":42,"Duration":224999,"SoundDuration":224999,"Delta":628683105},{"NoteNumber":64,"Velocity":37,"Duration":222222,"SoundDuration":222222,"Delta":628908105},{"NoteNumber":62,"Velocity":37,"Duration":222222,"SoundDuration":222222,"Delta":629127549},{"NoteNumber":61,"Velocity":42,"Duration":220108,"SoundDuration":220108,"Delta":629349771},{"NoteNumber":64,"Velocity":38,"Duration":217391,"SoundDuration":217391,"Delta":629567163},{"NoteNumber":62,"Velocity":38,"Duration":163043,"SoundDuration":163043,"Delta":629784554},{"NoteNumber":43,"Velocity":58,"Duration":1312600,"SoundDuration":1312600,"Delta":630001945},{"NoteNumber":59,"Velocity":42,"Duration":220108,"SoundDuration":220108,"Delta":630001945},{"NoteNumber":64,"Velocity":37,"Duration":222455,"SoundDuration":222455,"Delta":630222054},{"NoteNumber":62,"Velocity":37,"Duration":170454,"SoundDuration":170454,"Delta":630441669},{"NoteNumber":61,"Velocity":42,"Duration":222527,"SoundDuration":222527,"Delta":630668941},{"NoteNumber":64,"Velocity":37,"Duration":219780,"SoundDuration":219780,"Delta":630888722},{"NoteNumber":62,"Velocity":37,"Duration":164835,"SoundDuration":164835,"Delta":631108502},{"NoteNumber":43,"Velocity":58,"Duration":653845,"SoundDuration":653845,"Delta":631328282},{"NoteNumber":59,"Velocity":42,"Duration":222527,"SoundDuration":222527,"Delta":631328282},{"NoteNumber":64,"Velocity":38,"Duration":219780,"SoundDuration":219780,"Delta":631550809},{"NoteNumber":62,"Velocity":38,"Duration":164835,"SoundDuration":164835,"Delta":631767842},{"NoteNumber":43,"Velocity":56,"Duration":229884,"SoundDuration":229884,"Delta":631987622},{"NoteNumber":55,"Velocity":36,"Duration":719827,"SoundDuration":719827,"Delta":631987622},{"NoteNumber":59,"Velocity":42,"Duration":232758,"SoundDuration":232758,"Delta":631987622},{"NoteNumber":42,"Velocity":50,"Duration":239942,"SoundDuration":239942,"Delta":632217507},{"NoteNumber":63,"Velocity":38,"Duration":239942,"SoundDuration":239942,"Delta":632217507},{"NoteNumber":43,"Velocity":50,"Duration":187500,"SoundDuration":187500,"Delta":632457450},{"NoteNumber":62,"Velocity":38,"Duration":187500,"SoundDuration":187500,"Delta":632457450},{"NoteNumber":38,"Velocity":52,"Duration":1284340,"SoundDuration":1284340,"Delta":632707450},{"NoteNumber":54,"Velocity":36,"Duration":659340,"SoundDuration":659340,"Delta":632707450},{"NoteNumber":57,"Velocity":42,"Duration":222527,"SoundDuration":222527,"Delta":632707450},{"NoteNumber":64,"Velocity":37,"Duration":219780,"SoundDuration":219780,"Delta":632927230},{"NoteNumber":62,"Velocity":37,"Duration":164835,"SoundDuration":164835,"Delta":633147010},{"NoteNumber":55,"Velocity":36,"Duration":638297,"SoundDuration":638297,"Delta":633366790},{"NoteNumber":59,"Velocity":42,"Duration":215425,"SoundDuration":215425,"Delta":633366790},{"NoteNumber":64,"Velocity":38,"Duration":212765,"SoundDuration":212765,"Delta":633579556},{"NoteNumber":62,"Velocity":38,"Duration":159574,"SoundDuration":159574,"Delta":633792322},{"NoteNumber":38,"Velocity":52,"Duration":1299512,"SoundDuration":1299512,"Delta":634005088},{"NoteNumber":57,"Velocity":38,"Duration":667568,"SoundDuration":667568,"Delta":634005088},{"NoteNumber":60,"Velocity":46,"Duration":206632,"SoundDuration":206632,"Delta":634005088},{"NoteNumber":64,"Velocity":40,"Duration":222522,"SoundDuration":222522,"Delta":634209170},{"NoteNumber":62,"Velocity":40,"Duration":180722,"SoundDuration":180722,"Delta":634431693},{"NoteNumber":57,"Velocity":38,"Duration":645833,"SoundDuration":645833,"Delta":634672657},{"NoteNumber":60,"Velocity":45,"Duration":210937,"SoundDuration":210937,"Delta":634672657},{"NoteNumber":64,"Velocity":38,"Duration":215277,"SoundDuration":215277,"Delta":634880990},{"NoteNumber":62,"Velocity":38,"Duration":166666,"SoundDuration":166666,"Delta":635096268},{"NoteNumber":38,"Velocity":52,"Duration":1324884,"SoundDuration":1324884,"Delta":635318490},{"NoteNumber":55,"Velocity":36,"Duration":645161,"SoundDuration":645161,"Delta":635318490},{"NoteNumber":59,"Velocity":42,"Duration":217742,"SoundDuration":217742,"Delta":635318490},{"NoteNumber":64,"Velocity":36,"Duration":215053,"SoundDuration":215053,"Delta":635533544},{"NoteNumber":62,"Velocity":36,"Duration":161290,"SoundDuration":161290,"Delta":635748598},{"NoteNumber":54,"Velocity":35,"Duration":679723,"SoundDuration":679723,"Delta":635963651},{"NoteNumber":58,"Velocity":41,"Duration":215053,"SoundDuration":215053,"Delta":635963651},{"NoteNumber":64,"Velocity":38,"Duration":226574,"SoundDuration":226574,"Delta":636178705},{"NoteNumber":62,"Velocity":38,"Duration":178571,"SoundDuration":178571,"Delta":636405280},{"NoteNumber":35,"Velocity":48,"Duration":666666,"SoundDuration":666666,"Delta":636643375},{"NoteNumber":55,"Velocity":36,"Duration":3315602,"SoundDuration":3315602,"Delta":636643375},{"NoteNumber":59,"Velocity":42,"Duration":224999,"SoundDuration":224999,"Delta":636643375},{"NoteNumber":64,"Velocity":37,"Duration":222222,"SoundDuration":222222,"Delta":636868375},{"NoteNumber":62,"Velocity":37,"Duration":222222,"SoundDuration":222222,"Delta":637087819},{"NoteNumber":61,"Velocity":43,"Duration":220108,"SoundDuration":220108,"Delta":637310041},{"NoteNumber":64,"Velocity":38,"Duration":223638,"SoundDuration":223638,"Delta":637527433},{"NoteNumber":62,"Velocity":39,"Duration":172413,"SoundDuration":172413,"Delta":637751071},{"NoteNumber":91,"Velocity":67,"Duration":1304944,"SoundDuration":1304944,"Delta":637980956},{"NoteNumber":79,"Velocity":59,"Duration":1304944,"SoundDuration":1304944,"Delta":637980956},{"NoteNumber":59,"Velocity":44,"Duration":222527,"SoundDuration":222527,"Delta":637980956},{"NoteNumber":64,"Velocity":38,"Duration":219780,"SoundDuration":219780,"Delta":638203483},{"NoteNumber":62,"Velocity":39,"Duration":164835,"SoundDuration":164835,"Delta":638420516},{"NoteNumber":61,"Velocity":46,"Duration":222527,"SoundDuration":222527,"Delta":638640296},{"NoteNumber":64,"Velocity":39,"Duration":219780,"SoundDuration":219780,"Delta":638860077},{"NoteNumber":62,"Velocity":40,"Duration":164835,"SoundDuration":164835,"Delta":639079857},{"NoteNumber":79,"Velocity":59,"Duration":653845,"SoundDuration":653845,"Delta":639299637},{"NoteNumber":91,"Velocity":67,"Duration":653845,"SoundDuration":653845,"Delta":639299637},{"NoteNumber":59,"Velocity":47,"Duration":222527,"SoundDuration":222527,"Delta":639299637},{"NoteNumber":64,"Velocity":42,"Duration":219780,"SoundDuration":219780,"Delta":639522164},{"NoteNumber":62,"Velocity":42,"Duration":164835,"SoundDuration":164835,"Delta":639739197},{"NoteNumber":91,"Velocity":65,"Duration":217742,"SoundDuration":217742,"Delta":639958977},{"NoteNumber":79,"Velocity":57,"Duration":217742,"SoundDuration":217742,"Delta":639958977},{"NoteNumber":55,"Velocity":40,"Duration":667408,"SoundDuration":667408,"Delta":639958977},{"NoteNumber":59,"Velocity":48,"Duration":217742,"SoundDuration":217742,"Delta":639958977},{"NoteNumber":78,"Velocity":51,"Duration":222469,"SoundDuration":222469,"Delta":640174031},{"NoteNumber":90,"Velocity":58,"Duration":222469,"SoundDuration":222469,"Delta":640174031},{"NoteNumber":63,"Velocity":43,"Duration":222469,"SoundDuration":222469,"Delta":640174031},{"NoteNumber":79,"Velocity":46,"Duration":229884,"SoundDuration":229884,"Delta":640396501},{"NoteNumber":91,"Velocity":55,"Duration":172413,"SoundDuration":172413,"Delta":640396501},{"NoteNumber":62,"Velocity":43,"Duration":172413,"SoundDuration":172413,"Delta":640396501},{"NoteNumber":86,"Velocity":67,"Duration":1291061,"SoundDuration":1291061,"Delta":640626386},{"NoteNumber":74,"Velocity":59,"Duration":1291061,"SoundDuration":1291061,"Delta":640626386},{"NoteNumber":54,"Velocity":41,"Duration":659340,"SoundDuration":659340,"Delta":640626386},{"NoteNumber":57,"Velocity":50,"Duration":222527,"SoundDuration":222527,"Delta":640626386},{"NoteNumber":64,"Velocity":43,"Duration":219780,"SoundDuration":219780,"Delta":640846166},{"NoteNumber":62,"Velocity":43,"Duration":164835,"SoundDuration":164835,"Delta":641065946},{"NoteNumber":55,"Velocity":42,"Duration":645161,"SoundDuration":645161,"Delta":641285726},{"NoteNumber":59,"Velocity":51,"Duration":217742,"SoundDuration":217742,"Delta":641285726},{"NoteNumber":64,"Velocity":45,"Duration":215053,"SoundDuration":215053,"Delta":641500780},{"NoteNumber":62,"Velocity":46,"Duration":161290,"SoundDuration":161290,"Delta":641715834},{"NoteNumber":74,"Velocity":62,"Duration":1292561,"SoundDuration":1292561,"Delta":641930888},{"NoteNumber":86,"Velocity":70,"Duration":1292561,"SoundDuration":1292561,"Delta":641930888},{"NoteNumber":57,"Velocity":47,"Duration":660617,"SoundDuration":660617,"Delta":641930888},{"NoteNumber":60,"Velocity":57,"Duration":213157,"SoundDuration":213157,"Delta":641930888},{"NoteNumber":64,"Velocity":50,"Duration":220205,"SoundDuration":220205,"Delta":642141414},{"NoteNumber":62,"Velocity":51,"Duration":172413,"SoundDuration":172413,"Delta":642361620},{"NoteNumber":57,"Velocity":47,"Duration":645833,"SoundDuration":645833,"Delta":642591505},{"NoteNumber":60,"Velocity":57,"Duration":210937,"SoundDuration":210937,"Delta":642591505},{"NoteNumber":64,"Velocity":48,"Duration":215277,"SoundDuration":215277,"Delta":642799838},{"NoteNumber":62,"Velocity":48,"Duration":166666,"SoundDuration":166666,"Delta":643015116},{"NoteNumber":74,"Velocity":63,"Duration":1317093,"SoundDuration":1317093,"Delta":643237338},{"NoteNumber":86,"Velocity":72,"Duration":1317093,"SoundDuration":1317093,"Delta":643237338},{"NoteNumber":55,"Velocity":46,"Duration":645161,"SoundDuration":645161,"Delta":643237338},{"NoteNumber":59,"Velocity":55,"Duration":217742,"SoundDuration":217742,"Delta":643237338},{"NoteNumber":64,"Velocity":46,"Duration":215053,"SoundDuration":215053,"Delta":643452392},{"NoteNumber":62,"Velocity":47,"Duration":161290,"SoundDuration":161290,"Delta":643667446},{"NoteNumber":54,"Velocity":46,"Duration":686813,"SoundDuration":686813,"Delta":643882499},{"NoteNumber":58,"Velocity":55,"Duration":219780,"SoundDuration":219780,"Delta":643882499},{"NoteNumber":64,"Velocity":50,"Duration":228937,"SoundDuration":228937,"Delta":644102280},{"NoteNumber":62,"Velocity":38,"Duration":178571,"SoundDuration":178571,"Delta":644331217},{"NoteNumber":86,"Velocity":73,"Duration":1291061,"SoundDuration":1291061,"Delta":644569312},{"NoteNumber":74,"Velocity":64,"Duration":1291061,"SoundDuration":1291061,"Delta":644569312},{"NoteNumber":54,"Velocity":45,"Duration":659340,"SoundDuration":659340,"Delta":644569312},{"NoteNumber":58,"Velocity":55,"Duration":219780,"SoundDuration":219780,"Delta":644569312},{"NoteNumber":64,"Velocity":50,"Duration":219780,"SoundDuration":219780,"Delta":644789093},{"NoteNumber":62,"Velocity":51,"Duration":164835,"SoundDuration":164835,"Delta":645008873},{"NoteNumber":55,"Velocity":50,"Duration":645161,"SoundDuration":645161,"Delta":645228653},{"NoteNumber":59,"Velocity":60,"Duration":217742,"SoundDuration":217742,"Delta":645228653},{"NoteNumber":64,"Velocity":54,"Duration":215053,"SoundDuration":215053,"Delta":645443707},{"NoteNumber":62,"Velocity":55,"Duration":161290,"SoundDuration":161290,"Delta":645658761},{"NoteNumber":74,"Velocity":71,"Duration":1292561,"SoundDuration":1292561,"Delta":645873814},{"NoteNumber":86,"Velocity":80,"Duration":1292561,"SoundDuration":1292561,"Delta":645873814},{"NoteNumber":56,"Velocity":57,"Duration":660617,"SoundDuration":660617,"Delta":645873814},{"NoteNumber":59,"Velocity":69,"Duration":213157,"SoundDuration":213157,"Delta":645873814},{"NoteNumber":64,"Velocity":61,"Duration":220205,"SoundDuration":220205,"Delta":646084341},{"NoteNumber":62,"Velocity":63,"Duration":172413,"SoundDuration":172413,"Delta":646304546},{"NoteNumber":56,"Velocity":59,"Duration":645833,"SoundDuration":645833,"Delta":646534431},{"NoteNumber":59,"Velocity":70,"Duration":208333,"SoundDuration":208333,"Delta":646534431},{"NoteNumber":64,"Velocity":60,"Duration":215277,"SoundDuration":215277,"Delta":646742765},{"NoteNumber":62,"Velocity":61,"Duration":166666,"SoundDuration":166666,"Delta":646958042},{"NoteNumber":74,"Velocity":75,"Duration":891898,"SoundDuration":891898,"Delta":647180265},{"NoteNumber":86,"Velocity":84,"Duration":891898,"SoundDuration":891898,"Delta":647180265},{"NoteNumber":56,"Velocity":54,"Duration":659340,"SoundDuration":659340,"Delta":647180265},{"NoteNumber":59,"Velocity":60,"Duration":222527,"SoundDuration":222527,"Delta":647180265},{"NoteNumber":65,"Velocity":54,"Duration":219780,"SoundDuration":219780,"Delta":647400045},{"NoteNumber":62,"Velocity":55,"Duration":164835,"SoundDuration":164835,"Delta":647619825},{"NoteNumber":56,"Velocity":53,"Duration":713558,"SoundDuration":713558,"Delta":647839605},{"NoteNumber":59,"Velocity":63,"Duration":235465,"SoundDuration":235465,"Delta":647839605},{"NoteNumber":73,"Velocity":63,"Duration":231221,"SoundDuration":231221,"Delta":648072163},{"NoteNumber":85,"Velocity":72,"Duration":231221,"SoundDuration":231221,"Delta":648072163},{"NoteNumber":65,"Velocity":57,"Duration":231221,"SoundDuration":231221,"Delta":648072163},{"NoteNumber":74,"Velocity":64,"Duration":243368,"SoundDuration":243368,"Delta":648303385},{"NoteNumber":86,"Velocity":73,"Duration":243368,"SoundDuration":243368,"Delta":648303385},{"NoteNumber":62,"Velocity":57,"Duration":185676,"SoundDuration":185676,"Delta":648303385},{"NoteNumber":78,"Velocity":74,"Duration":1291061,"SoundDuration":1291061,"Delta":648553164},{"NoteNumber":86,"Velocity":85,"Duration":1291061,"SoundDuration":1291061,"Delta":648553164},{"NoteNumber":74,"Velocity":74,"Duration":1291061,"SoundDuration":1291061,"Delta":648553164},{"NoteNumber":57,"Velocity":55,"Duration":659340,"SoundDuration":659340,"Delta":648553164},{"NoteNumber":62,"Velocity":67,"Duration":219780,"SoundDuration":219780,"Delta":648553164},{"NoteNumber":66,"Velocity":58,"Duration":219780,"SoundDuration":219780,"Delta":648772944},{"NoteNumber":64,"Velocity":59,"Duration":164835,"SoundDuration":164835,"Delta":648992724},{"NoteNumber":58,"Velocity":58,"Duration":645161,"SoundDuration":645161,"Delta":649212504},{"NoteNumber":62,"Velocity":70,"Duration":217742,"SoundDuration":217742,"Delta":649212504},{"NoteNumber":66,"Velocity":62,"Duration":215053,"SoundDuration":215053,"Delta":649427558},{"NoteNumber":64,"Velocity":64,"Duration":161290,"SoundDuration":161290,"Delta":649642612},{"NoteNumber":78,"Velocity":82,"Duration":1292561,"SoundDuration":1292561,"Delta":649857666},{"NoteNumber":74,"Velocity":82,"Duration":1292561,"SoundDuration":1292561,"Delta":649857666},{"NoteNumber":86,"Velocity":93,"Duration":1292561,"SoundDuration":1292561,"Delta":649857666},{"NoteNumber":59,"Velocity":66,"Duration":660617,"SoundDuration":660617,"Delta":649857666},{"NoteNumber":62,"Velocity":79,"Duration":213157,"SoundDuration":213157,"Delta":649857666},{"NoteNumber":66,"Velocity":71,"Duration":220205,"SoundDuration":220205,"Delta":650068192},{"NoteNumber":64,"Velocity":72,"Duration":172413,"SoundDuration":172413,"Delta":650288398},{"NoteNumber":59,"Velocity":68,"Duration":645833,"SoundDuration":645833,"Delta":650518283},{"NoteNumber":62,"Velocity":81,"Duration":208333,"SoundDuration":208333,"Delta":650518283},{"NoteNumber":66,"Velocity":69,"Duration":215277,"SoundDuration":215277,"Delta":650726616},{"NoteNumber":64,"Velocity":70,"Duration":166666,"SoundDuration":166666,"Delta":650941894},{"NoteNumber":78,"Velocity":86,"Duration":881562,"SoundDuration":881562,"Delta":651164116},{"NoteNumber":90,"Velocity":97,"Duration":881562,"SoundDuration":881562,"Delta":651164116},{"NoteNumber":59,"Velocity":62,"Duration":659340,"SoundDuration":659340,"Delta":651164116},{"NoteNumber":62,"Velocity":69,"Duration":222527,"SoundDuration":222527,"Delta":651164116},{"NoteNumber":66,"Velocity":63,"Duration":219780,"SoundDuration":219780,"Delta":651383896},{"NoteNumber":64,"Velocity":63,"Duration":164835,"SoundDuration":164835,"Delta":651603676},{"NoteNumber":59,"Velocity":61,"Duration":692937,"SoundDuration":692937,"Delta":651823457},{"NoteNumber":62,"Velocity":72,"Duration":224999,"SoundDuration":224999,"Delta":651823457},{"NoteNumber":77,"Velocity":72,"Duration":227390,"SoundDuration":227390,"Delta":652045679},{"NoteNumber":89,"Velocity":82,"Duration":227390,"SoundDuration":227390,"Delta":652045679},{"NoteNumber":65,"Velocity":65,"Duration":227390,"SoundDuration":227390,"Delta":652045679},{"NoteNumber":78,"Velocity":73,"Duration":237151,"SoundDuration":237151,"Delta":652273069},{"NoteNumber":90,"Velocity":83,"Duration":237151,"SoundDuration":237151,"Delta":652273069},{"NoteNumber":66,"Velocity":66,"Duration":181596,"SoundDuration":181596,"Delta":652273069},{"NoteNumber":78,"Velocity":85,"Duration":1291061,"SoundDuration":1291061,"Delta":652516394},{"NoteNumber":90,"Velocity":97,"Duration":1291061,"SoundDuration":1291061,"Delta":652516394},{"NoteNumber":59,"Velocity":63,"Duration":659340,"SoundDuration":659340,"Delta":652516394},{"NoteNumber":62,"Velocity":76,"Duration":219780,"SoundDuration":219780,"Delta":652516394},{"NoteNumber":67,"Velocity":66,"Duration":219780,"SoundDuration":219780,"Delta":652736174},{"NoteNumber":66,"Velocity":67,"Duration":164835,"SoundDuration":164835,"Delta":652955954},{"NoteNumber":60,"Velocity":66,"Duration":645161,"SoundDuration":645161,"Delta":653175734},{"NoteNumber":63,"Velocity":79,"Duration":215053,"SoundDuration":215053,"Delta":653175734},{"NoteNumber":68,"Velocity":71,"Duration":215053,"SoundDuration":215053,"Delta":653390788},{"NoteNumber":66,"Velocity":73,"Duration":161290,"SoundDuration":161290,"Delta":653605842},{"NoteNumber":78,"Velocity":103,"Duration":973117,"SoundDuration":973117,"Delta":653820896},{"NoteNumber":90,"Velocity":103,"Duration":973117,"SoundDuration":973117,"Delta":653820896},{"NoteNumber":60,"Velocity":71,"Duration":660617,"SoundDuration":660617,"Delta":653820896},{"NoteNumber":63,"Velocity":84,"Duration":210526,"SoundDuration":210526,"Delta":653820896},{"NoteNumber":69,"Velocity":72,"Duration":220205,"SoundDuration":220205,"Delta":654031422},{"NoteNumber":66,"Velocity":72,"Duration":172413,"SoundDuration":172413,"Delta":654251628},{"NoteNumber":48,"Velocity":73,"Duration":645833,"SoundDuration":645833,"Delta":654481513},{"NoteNumber":51,"Velocity":86,"Duration":208333,"SoundDuration":208333,"Delta":654481513},{"NoteNumber":57,"Velocity":74,"Duration":215277,"SoundDuration":215277,"Delta":654689846},{"NoteNumber":54,"Velocity":74,"Duration":166666,"SoundDuration":166666,"Delta":654905124},{"NoteNumber":78,"Velocity":103,"Duration":981921,"SoundDuration":981921,"Delta":655127346},{"NoteNumber":90,"Velocity":103,"Duration":981921,"SoundDuration":981921,"Delta":655127346},{"NoteNumber":60,"Velocity":69,"Duration":659340,"SoundDuration":659340,"Delta":655127346},{"NoteNumber":63,"Velocity":82,"Duration":219780,"SoundDuration":219780,"Delta":655127346},{"NoteNumber":69,"Velocity":73,"Duration":219780,"SoundDuration":219780,"Delta":655347126},{"NoteNumber":66,"Velocity":73,"Duration":164835,"SoundDuration":164835,"Delta":655566906},{"NoteNumber":48,"Velocity":71,"Duration":687302,"SoundDuration":687302,"Delta":655786686},{"NoteNumber":51,"Velocity":84,"Duration":215053,"SoundDuration":215053,"Delta":655786686},{"NoteNumber":57,"Velocity":76,"Duration":222469,"SoundDuration":222469,"Delta":656001740},{"NoteNumber":54,"Velocity":76,"Duration":185676,"SoundDuration":185676,"Delta":656224210},{"NoteNumber":90,"Velocity":102,"Duration":338068,"SoundDuration":338068,"Delta":656473989},{"NoteNumber":78,"Velocity":102,"Duration":338068,"SoundDuration":338068,"Delta":656473989},{"NoteNumber":60,"Velocity":81,"Duration":102272,"SoundDuration":102272,"Delta":656473989},{"NoteNumber":69,"Velocity":74,"Duration":170454,"SoundDuration":170454,"Delta":656644443},{"NoteNumber":90,"Velocity":102,"Duration":676136,"SoundDuration":676136,"Delta":656814898},{"NoteNumber":66,"Velocity":74,"Duration":170454,"SoundDuration":170454,"Delta":656814898},{"NoteNumber":63,"Velocity":62,"Duration":170454,"SoundDuration":170454,"Delta":656814898},{"NoteNumber":69,"Velocity":74,"Duration":170454,"SoundDuration":170454,"Delta":656985352},{"NoteNumber":48,"Velocity":81,"Duration":102272,"SoundDuration":102272,"Delta":657155807},{"NoteNumber":57,"Velocity":75,"Duration":170454,"SoundDuration":170454,"Delta":657326261},{"NoteNumber":90,"Velocity":103,"Duration":676136,"SoundDuration":676136,"Delta":657496716},{"NoteNumber":51,"Velocity":63,"Duration":170454,"SoundDuration":170454,"Delta":657496716},{"NoteNumber":54,"Velocity":75,"Duration":170454,"SoundDuration":170454,"Delta":657496716},{"NoteNumber":57,"Velocity":75,"Duration":170454,"SoundDuration":170454,"Delta":657667170},{"NoteNumber":60,"Velocity":81,"Duration":102272,"SoundDuration":102272,"Delta":657837625},{"NoteNumber":69,"Velocity":74,"Duration":170454,"SoundDuration":170454,"Delta":658008079},{"NoteNumber":90,"Velocity":104,"Duration":676136,"SoundDuration":676136,"Delta":658178534},{"NoteNumber":66,"Velocity":74,"Duration":170454,"SoundDuration":170454,"Delta":658178534},{"NoteNumber":63,"Velocity":62,"Duration":170454,"SoundDuration":170454,"Delta":658178534},{"NoteNumber":69,"Velocity":74,"Duration":170454,"SoundDuration":170454,"Delta":658348988},{"NoteNumber":48,"Velocity":81,"Duration":68181,"SoundDuration":68181,"Delta":658519443},{"NoteNumber":57,"Velocity":73,"Duration":113636,"SoundDuration":113636,"Delta":658633079},{"NoteNumber":51,"Velocity":73,"Duration":113636,"SoundDuration":113636,"Delta":658746715},{"NoteNumber":54,"Velocity":73,"Duration":113636,"SoundDuration":113636,"Delta":658749556},{"NoteNumber":90,"Velocity":106,"Duration":679989,"SoundDuration":679989,"Delta":658860352},{"NoteNumber":57,"Velocity":73,"Duration":113636,"SoundDuration":113636,"Delta":658863193},{"NoteNumber":51,"Velocity":62,"Duration":113636,"SoundDuration":113636,"Delta":658973988},{"NoteNumber":54,"Velocity":73,"Duration":113636,"SoundDuration":113636,"Delta":658973988},{"NoteNumber":57,"Velocity":73,"Duration":113636,"SoundDuration":113636,"Delta":659087624},{"NoteNumber":60,"Velocity":81,"Duration":68965,"SoundDuration":68965,"Delta":659201261},{"NoteNumber":69,"Velocity":73,"Duration":114942,"SoundDuration":114942,"Delta":659316203},{"NoteNumber":63,"Velocity":73,"Duration":114942,"SoundDuration":114942,"Delta":659431146},{"NoteNumber":66,"Velocity":73,"Duration":114942,"SoundDuration":114942,"Delta":659434019},{"NoteNumber":90,"Velocity":107,"Duration":687850,"SoundDuration":687850,"Delta":659546088},{"NoteNumber":69,"Velocity":73,"Duration":114942,"SoundDuration":114942,"Delta":659548962},{"NoteNumber":63,"Velocity":62,"Duration":114942,"SoundDuration":114942,"Delta":659661031},{"NoteNumber":66,"Velocity":73,"Duration":114942,"SoundDuration":114942,"Delta":659661031},{"NoteNumber":69,"Velocity":73,"Duration":114942,"SoundDuration":114942,"Delta":659775973},{"NoteNumber":48,"Velocity":81,"Duration":69767,"SoundDuration":69767,"Delta":659890916},{"NoteNumber":57,"Velocity":74,"Duration":116279,"SoundDuration":116279,"Delta":660007195},{"NoteNumber":51,"Velocity":74,"Duration":116279,"SoundDuration":116279,"Delta":660123474},{"NoteNumber":54,"Velocity":74,"Duration":116279,"SoundDuration":116279,"Delta":660126381},{"NoteNumber":90,"Velocity":108,"Duration":643168,"SoundDuration":643168,"Delta":660239753},{"NoteNumber":57,"Velocity":74,"Duration":116279,"SoundDuration":116279,"Delta":660242660},{"NoteNumber":51,"Velocity":62,"Duration":214389,"SoundDuration":214389,"Delta":660356032},{"NoteNumber":54,"Velocity":74,"Duration":214389,"SoundDuration":214389,"Delta":660356032},{"NoteNumber":57,"Velocity":74,"Duration":312500,"SoundDuration":312500,"Delta":660570422},{"NoteNumber":73,"Velocity":48,"Duration":1304348,"SoundDuration":1304348,"Delta":660882922},{"NoteNumber":61,"Velocity":38,"Duration":1304348,"SoundDuration":1304348,"Delta":660882922},{"NoteNumber":69,"Velocity":42,"Duration":668539,"SoundDuration":668539,"Delta":662187270},{"NoteNumber":57,"Velocity":33,"Duration":668539,"SoundDuration":668539,"Delta":662187270},{"NoteNumber":69,"Velocity":47,"Duration":659340,"SoundDuration":659340,"Delta":662861427},{"NoteNumber":57,"Velocity":35,"Duration":659340,"SoundDuration":659340,"Delta":662861427},{"NoteNumber":66,"Velocity":41,"Duration":638297,"SoundDuration":638297,"Delta":663520768},{"NoteNumber":54,"Velocity":31,"Duration":638297,"SoundDuration":638297,"Delta":663520768},{"NoteNumber":65,"Velocity":34,"Duration":705882,"SoundDuration":705882,"Delta":664159066},{"NoteNumber":68,"Velocity":41,"Duration":705882,"SoundDuration":705882,"Delta":664159066},{"NoteNumber":61,"Velocity":34,"Duration":705882,"SoundDuration":705882,"Delta":664159066},{"NoteNumber":49,"Velocity":26,"Duration":705882,"SoundDuration":705882,"Delta":664159066},{"NoteNumber":56,"Velocity":31,"Duration":705882,"SoundDuration":705882,"Delta":664159066},{"NoteNumber":57,"Velocity":42,"Duration":1304348,"SoundDuration":1304348,"Delta":664864948},{"NoteNumber":66,"Velocity":42,"Duration":1304348,"SoundDuration":1304348,"Delta":664864948},{"NoteNumber":69,"Velocity":50,"Duration":1304348,"SoundDuration":1304348,"Delta":664864948},{"NoteNumber":61,"Velocity":42,"Duration":1304348,"SoundDuration":1304348,"Delta":664864948},{"NoteNumber":42,"Velocity":28,"Duration":1304348,"SoundDuration":1304348,"Delta":664864948},{"NoteNumber":54,"Velocity":34,"Duration":1304348,"SoundDuration":1304348,"Delta":664864948},{"NoteNumber":58,"Velocity":47,"Duration":652173,"SoundDuration":652173,"Delta":666169296},{"NoteNumber":61,"Velocity":47,"Duration":652173,"SoundDuration":652173,"Delta":666169296},{"NoteNumber":66,"Velocity":47,"Duration":652173,"SoundDuration":652173,"Delta":666169296},{"NoteNumber":70,"Velocity":56,"Duration":652173,"SoundDuration":652173,"Delta":666169296},{"NoteNumber":42,"Velocity":35,"Duration":652173,"SoundDuration":652173,"Delta":666169296},{"NoteNumber":54,"Velocity":41,"Duration":652173,"SoundDuration":652173,"Delta":666169296},{"NoteNumber":62,"Velocity":51,"Duration":1311514,"SoundDuration":1311514,"Delta":666821470},{"NoteNumber":59,"Velocity":51,"Duration":1311514,"SoundDuration":1311514,"Delta":666821470},{"NoteNumber":71,"Velocity":61,"Duration":1311514,"SoundDuration":1311514,"Delta":666821470},{"NoteNumber":66,"Velocity":51,"Duration":1311514,"SoundDuration":1311514,"Delta":666821470},{"NoteNumber":35,"Velocity":36,"Duration":1311514,"SoundDuration":1311514,"Delta":666821470},{"NoteNumber":47,"Velocity":43,"Duration":1311514,"SoundDuration":1311514,"Delta":666821470},{"NoteNumber":71,"Velocity":55,"Duration":755786,"SoundDuration":755786,"Delta":668132985},{"NoteNumber":66,"Velocity":55,"Duration":755786,"SoundDuration":755786,"Delta":668132985},{"NoteNumber":62,"Velocity":55,"Duration":755786,"SoundDuration":755786,"Delta":668132985},{"NoteNumber":74,"Velocity":66,"Duration":755786,"SoundDuration":755786,"Delta":668132985},{"NoteNumber":35,"Velocity":41,"Duration":755786,"SoundDuration":755786,"Delta":668132985},{"NoteNumber":47,"Velocity":49,"Duration":755786,"SoundDuration":755786,"Delta":668132985},{"NoteNumber":71,"Velocity":67,"Duration":1379310,"SoundDuration":1379310,"Delta":668888771},{"NoteNumber":62,"Velocity":67,"Duration":1379310,"SoundDuration":1379310,"Delta":668888771},{"NoteNumber":74,"Velocity":79,"Duration":1379310,"SoundDuration":1379310,"Delta":668888771},{"NoteNumber":65,"Velocity":67,"Duration":1379310,"SoundDuration":1379310,"Delta":668888771},{"NoteNumber":32,"Velocity":47,"Duration":1379310,"SoundDuration":1379310,"Delta":668888771},{"NoteNumber":44,"Velocity":58,"Duration":1379310,"SoundDuration":1379310,"Delta":668888771},{"NoteNumber":69,"Velocity":55,"Duration":661110,"SoundDuration":661110,"Delta":670268081},{"NoteNumber":66,"Velocity":55,"Duration":661110,"SoundDuration":661110,"Delta":670268081},{"NoteNumber":73,"Velocity":65,"Duration":661110,"SoundDuration":661110,"Delta":670268081},{"NoteNumber":61,"Velocity":55,"Duration":661110,"SoundDuration":661110,"Delta":670268081},{"NoteNumber":33,"Velocity":40,"Duration":661110,"SoundDuration":661110,"Delta":670268081},{"NoteNumber":45,"Velocity":47,"Duration":661110,"SoundDuration":661110,"Delta":670268081},{"NoteNumber":69,"Velocity":63,"Duration":666666,"SoundDuration":666666,"Delta":670934748},{"NoteNumber":66,"Velocity":63,"Duration":666666,"SoundDuration":666666,"Delta":670934748},{"NoteNumber":73,"Velocity":76,"Duration":666666,"SoundDuration":666666,"Delta":670934748},{"NoteNumber":61,"Velocity":63,"Duration":666666,"SoundDuration":666666,"Delta":670934748},{"NoteNumber":33,"Velocity":46,"Duration":666666,"SoundDuration":666666,"Delta":670934748},{"NoteNumber":45,"Velocity":57,"Duration":666666,"SoundDuration":666666,"Delta":670934748},{"NoteNumber":59,"Velocity":55,"Duration":652173,"SoundDuration":652173,"Delta":671601414},{"NoteNumber":62,"Velocity":55,"Duration":652173,"SoundDuration":652173,"Delta":671601414},{"NoteNumber":68,"Velocity":55,"Duration":652173,"SoundDuration":652173,"Delta":671601414},{"NoteNumber":71,"Velocity":68,"Duration":652173,"SoundDuration":652173,"Delta":671601414},{"NoteNumber":35,"Velocity":43,"Duration":652173,"SoundDuration":652173,"Delta":671601414},{"NoteNumber":47,"Velocity":51,"Duration":652173,"SoundDuration":652173,"Delta":671601414},{"NoteNumber":66,"Velocity":55,"Duration":705882,"SoundDuration":705882,"Delta":672253588},{"NoteNumber":63,"Velocity":55,"Duration":705882,"SoundDuration":705882,"Delta":672253588},{"NoteNumber":57,"Velocity":55,"Duration":705882,"SoundDuration":705882,"Delta":672253588},{"NoteNumber":69,"Velocity":67,"Duration":705882,"SoundDuration":705882,"Delta":672253588},{"NoteNumber":48,"Velocity":51,"Duration":705882,"SoundDuration":705882,"Delta":672253588},{"NoteNumber":36,"Velocity":42,"Duration":705882,"SoundDuration":705882,"Delta":672253588},{"NoteNumber":66,"Velocity":48,"Duration":1318680,"SoundDuration":1318680,"Delta":672959471},{"NoteNumber":57,"Velocity":48,"Duration":1318680,"SoundDuration":1318680,"Delta":672959471},{"NoteNumber":69,"Velocity":57,"Duration":1318680,"SoundDuration":1318680,"Delta":672959471},{"NoteNumber":63,"Velocity":48,"Duration":1318680,"SoundDuration":1318680,"Delta":672959471},{"NoteNumber":36,"Velocity":34,"Duration":659340,"SoundDuration":659340,"Delta":672959471},{"NoteNumber":48,"Velocity":42,"Duration":659340,"SoundDuration":659340,"Delta":672959471},{"NoteNumber":61,"Velocity":46,"Duration":1304501,"SoundDuration":1304501,"Delta":673618811},{"NoteNumber":37,"Velocity":38,"Duration":981921,"SoundDuration":981921,"Delta":673618811},{"NoteNumber":49,"Velocity":45,"Duration":981921,"SoundDuration":981921,"Delta":673618811},{"NoteNumber":65,"Velocity":46,"Duration":645161,"SoundDuration":645161,"Delta":674278152},{"NoteNumber":56,"Velocity":46,"Duration":645161,"SoundDuration":645161,"Delta":674278152},{"NoteNumber":68,"Velocity":55,"Duration":645161,"SoundDuration":645161,"Delta":674278152},{"NoteNumber":36,"Velocity":34,"Duration":322580,"SoundDuration":322580,"Delta":674600732},{"NoteNumber":48,"Velocity":40,"Duration":322580,"SoundDuration":322580,"Delta":674600732},{"NoteNumber":65,"Velocity":53,"Duration":645161,"SoundDuration":645161,"Delta":674923313},{"NoteNumber":61,"Velocity":53,"Duration":645161,"SoundDuration":645161,"Delta":674923313},{"NoteNumber":68,"Velocity":64,"Duration":645161,"SoundDuration":645161,"Delta":674923313},{"NoteNumber":56,"Velocity":53,"Duration":645161,"SoundDuration":645161,"Delta":674923313},{"NoteNumber":37,"Velocity":39,"Duration":645161,"SoundDuration":645161,"Delta":674923313},{"NoteNumber":49,"Velocity":48,"Duration":645161,"SoundDuration":645161,"Delta":674923313},{"NoteNumber":55,"Velocity":49,"Duration":681818,"SoundDuration":681818,"Delta":675568475},{"NoteNumber":58,"Velocity":49,"Duration":681818,"SoundDuration":681818,"Delta":675568475},{"NoteNumber":64,"Velocity":49,"Duration":681818,"SoundDuration":681818,"Delta":675568475},{"NoteNumber":67,"Velocity":60,"Duration":1407392,"SoundDuration":1407392,"Delta":675568475},{"NoteNumber":37,"Velocity":38,"Duration":681818,"SoundDuration":681818,"Delta":675568475},{"NoteNumber":49,"Velocity":45,"Duration":681818,"SoundDuration":681818,"Delta":675568475},{"NoteNumber":62,"Velocity":52,"Duration":517241,"SoundDuration":517241,"Delta":676250293},{"NoteNumber":59,"Velocity":52,"Duration":517241,"SoundDuration":517241,"Delta":676250293},{"NoteNumber":55,"Velocity":52,"Duration":517241,"SoundDuration":517241,"Delta":676250293},{"NoteNumber":50,"Velocity":48,"Duration":725574,"SoundDuration":725574,"Delta":676250293},{"NoteNumber":38,"Velocity":40,"Duration":725574,"SoundDuration":725574,"Delta":676250293},{"NoteNumber":67,"Velocity":53,"Duration":208333,"SoundDuration":208333,"Delta":676767534},{"NoteNumber":83,"Velocity":65,"Duration":1333333,"SoundDuration":1333333,"Delta":676975867},{"NoteNumber":43,"Velocity":43,"Duration":2047618,"SoundDuration":2047618,"Delta":676975867},{"NoteNumber":31,"Velocity":32,"Duration":2047618,"SoundDuration":2047618,"Delta":676975867},{"NoteNumber":38,"Velocity":32,"Duration":2047618,"SoundDuration":2047618,"Delta":676975867},{"NoteNumber":71,"Velocity":55,"Duration":666666,"SoundDuration":666666,"Delta":677642534},{"NoteNumber":69,"Velocity":52,"Duration":708333,"SoundDuration":708333,"Delta":678309200},{"NoteNumber":81,"Velocity":62,"Duration":708333,"SoundDuration":708333,"Delta":678309200},{"NoteNumber":69,"Velocity":55,"Duration":666666,"SoundDuration":666666,"Delta":679023486},{"NoteNumber":81,"Velocity":65,"Duration":666666,"SoundDuration":666666,"Delta":679023486},{"NoteNumber":43,"Velocity":30,"Duration":2022988,"SoundDuration":2022988,"Delta":679023486},{"NoteNumber":35,"Velocity":30,"Duration":2022988,"SoundDuration":2022988,"Delta":679023486},{"NoteNumber":50,"Velocity":36,"Duration":2022988,"SoundDuration":2022988,"Delta":679023486},{"NoteNumber":67,"Velocity":51,"Duration":666666,"SoundDuration":666666,"Delta":679690152},{"NoteNumber":79,"Velocity":57,"Duration":666666,"SoundDuration":666666,"Delta":679690152},{"NoteNumber":66,"Velocity":50,"Duration":683907,"SoundDuration":683907,"Delta":680356819},{"NoteNumber":78,"Velocity":57,"Duration":683907,"SoundDuration":683907,"Delta":680356819},{"NoteNumber":66,"Velocity":55,"Duration":659340,"SoundDuration":659340,"Delta":681046474},{"NoteNumber":78,"Velocity":65,"Duration":659340,"SoundDuration":659340,"Delta":681046474},{"NoteNumber":36,"Velocity":33,"Duration":2008335,"SoundDuration":2008335,"Delta":681046474},{"NoteNumber":52,"Velocity":39,"Duration":2008335,"SoundDuration":2008335,"Delta":681046474},{"NoteNumber":43,"Velocity":33,"Duration":2008335,"SoundDuration":2008335,"Delta":681046474},{"NoteNumber":64,"Velocity":52,"Duration":659340,"SoundDuration":659340,"Delta":681705814},{"NoteNumber":76,"Velocity":56,"Duration":659340,"SoundDuration":659340,"Delta":681705814},{"NoteNumber":66,"Velocity":52,"Duration":683907,"SoundDuration":683907,"Delta":682365155},{"NoteNumber":78,"Velocity":56,"Duration":683907,"SoundDuration":683907,"Delta":682365155},{"NoteNumber":66,"Velocity":52,"Duration":681818,"SoundDuration":681818,"Delta":683054810},{"NoteNumber":78,"Velocity":61,"Duration":681818,"SoundDuration":681818,"Delta":683054810},{"NoteNumber":35,"Velocity":29,"Duration":681818,"SoundDuration":681818,"Delta":683054810},{"NoteNumber":43,"Velocity":29,"Duration":681818,"SoundDuration":681818,"Delta":683054810},{"NoteNumber":50,"Velocity":35,"Duration":681818,"SoundDuration":681818,"Delta":683054810},{"NoteNumber":67,"Velocity":55,"Duration":1052188,"SoundDuration":1052188,"Delta":683736628},{"NoteNumber":79,"Velocity":59,"Duration":1052188,"SoundDuration":1052188,"Delta":683736628},{"NoteNumber":43,"Velocity":46,"Duration":1052188,"SoundDuration":1052188,"Delta":683736628},{"NoteNumber":38,"Velocity":32,"Duration":740740,"SoundDuration":740740,"Delta":684418446},{"NoteNumber":54,"Velocity":43,"Duration":367283,"SoundDuration":367283,"Delta":684788816},{"NoteNumber":66,"Velocity":46,"Duration":367283,"SoundDuration":367283,"Delta":684788816},{"NoteNumber":42,"Velocity":38,"Duration":367283,"SoundDuration":367283,"Delta":684788816},{"NoteNumber":54,"Velocity":45,"Duration":714285,"SoundDuration":714285,"Delta":685159186},{"NoteNumber":66,"Velocity":60,"Duration":714285,"SoundDuration":714285,"Delta":685159186},{"NoteNumber":38,"Velocity":29,"Duration":714285,"SoundDuration":714285,"Delta":685159186},{"NoteNumber":42,"Velocity":35,"Duration":714285,"SoundDuration":714285,"Delta":685159186},{"NoteNumber":57,"Velocity":45,"Duration":689655,"SoundDuration":689655,"Delta":685873472},{"NoteNumber":69,"Velocity":53,"Duration":689655,"SoundDuration":689655,"Delta":685873472},{"NoteNumber":37,"Velocity":29,"Duration":689655,"SoundDuration":689655,"Delta":685873472},{"NoteNumber":45,"Velocity":31,"Duration":689655,"SoundDuration":689655,"Delta":685873472},{"NoteNumber":61,"Velocity":43,"Duration":782894,"SoundDuration":782894,"Delta":686563127},{"NoteNumber":66,"Velocity":43,"Duration":782894,"SoundDuration":782894,"Delta":686563127},{"NoteNumber":69,"Velocity":43,"Duration":782894,"SoundDuration":782894,"Delta":686563127},{"NoteNumber":73,"Velocity":51,"Duration":782894,"SoundDuration":782894,"Delta":686563127},{"NoteNumber":37,"Velocity":26,"Duration":782894,"SoundDuration":782894,"Delta":686563127},{"NoteNumber":49,"Velocity":31,"Duration":782894,"SoundDuration":782894,"Delta":686563127},{"NoteNumber":61,"Velocity":45,"Duration":1411764,"SoundDuration":1411764,"Delta":687352600},{"NoteNumber":73,"Velocity":54,"Duration":1411764,"SoundDuration":1411764,"Delta":687352600},{"NoteNumber":65,"Velocity":45,"Duration":1411764,"SoundDuration":1411764,"Delta":687352600},{"NoteNumber":68,"Velocity":45,"Duration":1411764,"SoundDuration":1411764,"Delta":687352600},{"NoteNumber":37,"Velocity":29,"Duration":1411764,"SoundDuration":1411764,"Delta":687352600},{"NoteNumber":49,"Velocity":35,"Duration":1411764,"SoundDuration":1411764,"Delta":687352600},{"NoteNumber":61,"Velocity":36,"Duration":772727,"SoundDuration":772727,"Delta":688764365},{"NoteNumber":73,"Velocity":43,"Duration":772727,"SoundDuration":772727,"Delta":688764365},{"NoteNumber":69,"Velocity":36,"Duration":772727,"SoundDuration":772727,"Delta":688764365},{"NoteNumber":66,"Velocity":36,"Duration":772727,"SoundDuration":772727,"Delta":688764365},{"NoteNumber":42,"Velocity":27,"Duration":772727,"SoundDuration":772727,"Delta":688764365},{"NoteNumber":49,"Velocity":32,"Duration":772727,"SoundDuration":772727,"Delta":688764365},{"NoteNumber":69,"Velocity":40,"Duration":731707,"SoundDuration":731707,"Delta":689543586},{"NoteNumber":61,"Velocity":40,"Duration":731707,"SoundDuration":731707,"Delta":689543586},{"NoteNumber":73,"Velocity":48,"Duration":731707,"SoundDuration":731707,"Delta":689543586},{"NoteNumber":42,"Velocity":29,"Duration":731707,"SoundDuration":731707,"Delta":689543586},{"NoteNumber":49,"Velocity":35,"Duration":759146,"SoundDuration":759146,"Delta":689543586},{"NoteNumber":62,"Velocity":36,"Duration":731707,"SoundDuration":731707,"Delta":690275294},{"NoteNumber":74,"Velocity":43,"Duration":731707,"SoundDuration":731707,"Delta":690275294},{"NoteNumber":67,"Velocity":36,"Duration":731707,"SoundDuration":731707,"Delta":690275294},{"NoteNumber":35,"Velocity":27,"Duration":2353625,"SoundDuration":2353625,"Delta":690275294},{"NoteNumber":50,"Velocity":32,"Duration":731707,"SoundDuration":731707,"Delta":690275294},{"NoteNumber":55,"Velocity":36,"Duration":799999,"SoundDuration":799999,"Delta":691007001},{"NoteNumber":67,"Velocity":43,"Duration":799999,"SoundDuration":799999,"Delta":691007001},{"NoteNumber":43,"Velocity":32,"Duration":799999,"SoundDuration":799999,"Delta":691007001},{"NoteNumber":59,"Velocity":37,"Duration":821917,"SoundDuration":821917,"Delta":691807001},{"NoteNumber":71,"Velocity":47,"Duration":821917,"SoundDuration":821917,"Delta":691807001},{"NoteNumber":47,"Velocity":35,"Duration":821917,"SoundDuration":821917,"Delta":691807001},{"NoteNumber":49,"Velocity":37,"Duration":869564,"SoundDuration":869564,"Delta":692628919},{"NoteNumber":61,"Velocity":45,"Duration":869564,"SoundDuration":869564,"Delta":692628919},{"NoteNumber":37,"Velocity":35,"Duration":869564,"SoundDuration":869564,"Delta":692628919},{"NoteNumber":65,"Velocity":44,"Duration":468750,"SoundDuration":468750,"Delta":693498484},{"NoteNumber":53,"Velocity":37,"Duration":468750,"SoundDuration":468750,"Delta":693498484},{"NoteNumber":37,"Velocity":33,"Duration":937500,"SoundDuration":937500,"Delta":693498484},{"NoteNumber":41,"Velocity":33,"Duration":468750,"SoundDuration":468750,"Delta":693498484},{"NoteNumber":54,"Velocity":32,"Duration":468750,"SoundDuration":468750,"Delta":693967234},{"NoteNumber":66,"Velocity":38,"Duration":468750,"SoundDuration":468750,"Delta":693967234},{"NoteNumber":42,"Velocity":30,"Duration":468750,"SoundDuration":468750,"Delta":693967234},{"NoteNumber":54,"Velocity":25,"Duration":1139240,"SoundDuration":1139240,"Delta":694435984},{"NoteNumber":58,"Velocity":25,"Duration":1139240,"SoundDuration":1139240,"Delta":694435984},{"NoteNumber":64,"Velocity":25,"Duration":1139240,"SoundDuration":1139240,"Delta":694435984},{"NoteNumber":66,"Velocity":52,"Duration":1555906,"SoundDuration":1555906,"Delta":694435984},{"NoteNumber":37,"Velocity":29,"Duration":759493,"SoundDuration":759493,"Delta":694435984},{"NoteNumber":42,"Velocity":35,"Duration":759493,"SoundDuration":759493,"Delta":694435984},{"NoteNumber":30,"Velocity":23,"Duration":796413,"SoundDuration":796413,"Delta":695195478},{"NoteNumber":42,"Velocity":28,"Duration":796413,"SoundDuration":796413,"Delta":695195478},{"NoteNumber":66,"Velocity":25,"Duration":790084,"SoundDuration":790084,"Delta":695575224},{"NoteNumber":78,"Velocity":57,"Duration":759493,"SoundDuration":759493,"Delta":695991891},{"NoteNumber":34,"Velocity":23,"Duration":759493,"SoundDuration":759493,"Delta":695991891},{"NoteNumber":46,"Velocity":28,"Duration":759493,"SoundDuration":759493,"Delta":695991891},{"NoteNumber":66,"Velocity":25,"Duration":753164,"SoundDuration":753164,"Delta":696371638},{"NoteNumber":78,"Velocity":57,"Duration":1491201,"SoundDuration":1491201,"Delta":696751385},{"NoteNumber":37,"Velocity":29,"Duration":759493,"SoundDuration":759493,"Delta":696751385},{"NoteNumber":49,"Velocity":35,"Duration":759493,"SoundDuration":759493,"Delta":696751385},{"NoteNumber":66,"Velocity":25,"Duration":739502,"SoundDuration":739502,"Delta":697131131},{"NoteNumber":30,"Velocity":23,"Duration":731707,"SoundDuration":731707,"Delta":697510878},{"NoteNumber":42,"Velocity":28,"Duration":731707,"SoundDuration":731707,"Delta":697510878},{"NoteNumber":66,"Velocity":25,"Duration":734603,"SoundDuration":734603,"Delta":697876732},{"NoteNumber":73,"Velocity":50,"Duration":769736,"SoundDuration":769736,"Delta":698242586},{"NoteNumber":34,"Velocity":23,"Duration":769736,"SoundDuration":769736,"Delta":698242586},{"NoteNumber":46,"Velocity":28,"Duration":769736,"SoundDuration":769736,"Delta":698242586},{"NoteNumber":66,"Velocity":25,"Duration":768154,"SoundDuration":768154,"Delta":698617586},{"NoteNumber":76,"Velocity":57,"Duration":759493,"SoundDuration":759493,"Delta":699012322},{"NoteNumber":35,"Velocity":26,"Duration":759493,"SoundDuration":759493,"Delta":699012322},{"NoteNumber":47,"Velocity":31,"Duration":759493,"SoundDuration":759493,"Delta":699012322},{"NoteNumber":66,"Velocity":25,"Duration":753164,"SoundDuration":753164,"Delta":699392069},{"NoteNumber":74,"Velocity":51,"Duration":759493,"SoundDuration":759493,"Delta":699771816},{"NoteNumber":30,"Velocity":22,"Duration":759493,"SoundDuration":759493,"Delta":699771816},{"NoteNumber":42,"Velocity":27,"Duration":759493,"SoundDuration":759493,"Delta":699771816},{"NoteNumber":62,"Velocity":25,"Duration":753164,"SoundDuration":753164,"Delta":700151563},{"NoteNumber":68,"Velocity":25,"Duration":753164,"SoundDuration":753164,"Delta":700151563},{"NoteNumber":65,"Velocity":25,"Duration":753164,"SoundDuration":753164,"Delta":700151563},{"NoteNumber":71,"Velocity":51,"Duration":1518986,"SoundDuration":1518986,"Delta":700531309},{"NoteNumber":35,"Velocity":22,"Duration":759493,"SoundDuration":759493,"Delta":700531309},{"NoteNumber":47,"Velocity":27,"Duration":759493,"SoundDuration":759493,"Delta":700531309},{"NoteNumber":62,"Velocity":25,"Duration":753164,"SoundDuration":753164,"Delta":700911056},{"NoteNumber":65,"Velocity":25,"Duration":753164,"SoundDuration":753164,"Delta":700911056},{"NoteNumber":68,"Velocity":25,"Duration":753164,"SoundDuration":753164,"Delta":700911056},{"NoteNumber":38,"Velocity":26,"Duration":759493,"SoundDuration":759493,"Delta":701290803},{"NoteNumber":50,"Velocity":31,"Duration":759493,"SoundDuration":759493,"Delta":701290803},{"NoteNumber":62,"Velocity":25,"Duration":762863,"SoundDuration":762863,"Delta":701670550},{"NoteNumber":65,"Velocity":25,"Duration":762863,"SoundDuration":762863,"Delta":701670550},{"NoteNumber":68,"Velocity":25,"Duration":762863,"SoundDuration":762863,"Delta":701670550},{"NoteNumber":74,"Velocity":56,"Duration":779221,"SoundDuration":779221,"Delta":702050296},{"NoteNumber":30,"Velocity":21,"Duration":779221,"SoundDuration":779221,"Delta":702050296},{"NoteNumber":42,"Velocity":25,"Duration":779221,"SoundDuration":779221,"Delta":702050296},{"NoteNumber":62,"Velocity":25,"Duration":805103,"SoundDuration":805103,"Delta":702439907},{"NoteNumber":65,"Velocity":25,"Duration":805103,"SoundDuration":805103,"Delta":702439907},{"NoteNumber":68,"Velocity":25,"Duration":805103,"SoundDuration":805103,"Delta":702439907},{"NoteNumber":71,"Velocity":53,"Duration":845070,"SoundDuration":845070,"Delta":702829517},{"NoteNumber":35,"Velocity":21,"Duration":845070,"SoundDuration":845070,"Delta":702829517},{"NoteNumber":47,"Velocity":25,"Duration":845070,"SoundDuration":845070,"Delta":702829517},{"NoteNumber":62,"Velocity":25,"Duration":419014,"SoundDuration":419014,"Delta":703252053},{"NoteNumber":65,"Velocity":25,"Duration":419014,"SoundDuration":419014,"Delta":703252053},{"NoteNumber":68,"Velocity":25,"Duration":419014,"SoundDuration":419014,"Delta":703252053},{"NoteNumber":61,"Velocity":34,"Duration":769230,"SoundDuration":769230,"Delta":703674588},{"NoteNumber":66,"Velocity":34,"Duration":769230,"SoundDuration":769230,"Delta":703674588},{"NoteNumber":70,"Velocity":48,"Duration":256410,"SoundDuration":256410,"Delta":703674588},{"NoteNumber":37,"Velocity":24,"Duration":769230,"SoundDuration":769230,"Delta":703674588},{"NoteNumber":49,"Velocity":29,"Duration":769230,"SoundDuration":769230,"Delta":703674588},{"NoteNumber":78,"Velocity":45,"Duration":256410,"SoundDuration":256410,"Delta":703930998},{"NoteNumber":73,"Velocity":48,"Duration":256410,"SoundDuration":256410,"Delta":704187409},{"NoteNumber":82,"Velocity":54,"Duration":256410,"SoundDuration":256410,"Delta":704443819},{"NoteNumber":30,"Velocity":19,"Duration":769230,"SoundDuration":769230,"Delta":704443819},{"NoteNumber":42,"Velocity":23,"Duration":769230,"SoundDuration":769230,"Delta":704443819},{"NoteNumber":78,"Velocity":51,"Duration":256410,"SoundDuration":256410,"Delta":704700229},{"NoteNumber":85,"Velocity":51,"Duration":256410,"SoundDuration":256410,"Delta":704956640},{"NoteNumber":78,"Velocity":57,"Duration":256410,"SoundDuration":256410,"Delta":705213050},{"NoteNumber":34,"Velocity":20,"Duration":794510,"SoundDuration":794510,"Delta":705213050},{"NoteNumber":46,"Velocity":24,"Duration":794510,"SoundDuration":794510,"Delta":705213050},{"NoteNumber":91,"Velocity":63,"Duration":256410,"SoundDuration":256410,"Delta":705469460},{"NoteNumber":90,"Velocity":59,"Duration":281690,"SoundDuration":281690,"Delta":705725871},{"NoteNumber":89,"Velocity":64,"Duration":256410,"SoundDuration":256410,"Delta":706007561},{"NoteNumber":37,"Velocity":26,"Duration":769230,"SoundDuration":769230,"Delta":706007561},{"NoteNumber":49,"Velocity":32,"Duration":769230,"SoundDuration":769230,"Delta":706007561},{"NoteNumber":90,"Velocity":59,"Duration":256410,"SoundDuration":256410,"Delta":706263971},{"NoteNumber":88,"Velocity":59,"Duration":512820,"SoundDuration":512820,"Delta":706520381},{"NoteNumber":30,"Velocity":22,"Duration":769230,"SoundDuration":769230,"Delta":706776792},{"NoteNumber":42,"Velocity":26,"Duration":769230,"SoundDuration":769230,"Delta":706776792},{"NoteNumber":85,"Velocity":57,"Duration":256410,"SoundDuration":256410,"Delta":707033202},{"NoteNumber":82,"Velocity":57,"Duration":256410,"SoundDuration":256410,"Delta":707289612},{"NoteNumber":73,"Velocity":34,"Duration":779541,"SoundDuration":779541,"Delta":707546023},{"NoteNumber":79,"Velocity":62,"Duration":246913,"SoundDuration":246913,"Delta":707546023},{"NoteNumber":34,"Velocity":22,"Duration":779541,"SoundDuration":779541,"Delta":707546023},{"NoteNumber":46,"Velocity":27,"Duration":779541,"SoundDuration":779541,"Delta":707546023},{"NoteNumber":78,"Velocity":60,"Duration":246913,"SoundDuration":246913,"Delta":707792936},{"NoteNumber":76,"Velocity":60,"Duration":538878,"SoundDuration":538878,"Delta":708039850},{"NoteNumber":35,"Velocity":30,"Duration":759493,"SoundDuration":759493,"Delta":708325564},{"NoteNumber":47,"Velocity":36,"Duration":759493,"SoundDuration":759493,"Delta":708325564},{"NoteNumber":73,"Velocity":59,"Duration":253164,"SoundDuration":253164,"Delta":708578729},{"NoteNumber":74,"Velocity":59,"Duration":253164,"SoundDuration":253164,"Delta":708831893},{"NoteNumber":83,"Velocity":63,"Duration":253164,"SoundDuration":253164,"Delta":709085058},{"NoteNumber":30,"Velocity":24,"Duration":780301,"SoundDuration":780301,"Delta":709085058},{"NoteNumber":42,"Velocity":29,"Duration":780301,"SoundDuration":780301,"Delta":709085058},{"NoteNumber":80,"Velocity":53,"Duration":273972,"SoundDuration":273972,"Delta":709338222},{"NoteNumber":86,"Velocity":58,"Duration":506329,"SoundDuration":506329,"Delta":709612195},{"NoteNumber":35,"Velocity":22,"Duration":759493,"SoundDuration":759493,"Delta":709865359},{"NoteNumber":47,"Velocity":27,"Duration":759493,"SoundDuration":759493,"Delta":709865359},{"NoteNumber":85,"Velocity":53,"Duration":253164,"SoundDuration":253164,"Delta":710118524},{"NoteNumber":83,"Velocity":50,"Duration":246835,"SoundDuration":246835,"Delta":710371688},{"NoteNumber":71,"Velocity":42,"Duration":1512698,"SoundDuration":1512698,"Delta":710624853},{"NoteNumber":74,"Velocity":42,"Duration":1512698,"SoundDuration":1512698,"Delta":710624853},{"NoteNumber":77,"Velocity":42,"Duration":1512698,"SoundDuration":1512698,"Delta":710624853},{"NoteNumber":80,"Velocity":42,"Duration":1512698,"SoundDuration":1512698,"Delta":710624853},{"NoteNumber":83,"Velocity":52,"Duration":1512698,"SoundDuration":1512698,"Delta":710624853},{"NoteNumber":38,"Velocity":29,"Duration":253164,"SoundDuration":253164,"Delta":710624853},{"NoteNumber":50,"Velocity":35,"Duration":253164,"SoundDuration":253164,"Delta":710624853},{"NoteNumber":30,"Velocity":33,"Duration":253164,"SoundDuration":253164,"Delta":710878017},{"NoteNumber":35,"Velocity":35,"Duration":253164,"SoundDuration":253164,"Delta":711131182},{"NoteNumber":38,"Velocity":42,"Duration":256410,"SoundDuration":256410,"Delta":711384346},{"NoteNumber":42,"Velocity":40,"Duration":256410,"SoundDuration":256410,"Delta":711640757},{"NoteNumber":47,"Velocity":38,"Duration":256410,"SoundDuration":256410,"Delta":711897167},{"NoteNumber":71,"Velocity":44,"Duration":845833,"SoundDuration":845833,"Delta":712153577},{"NoteNumber":74,"Velocity":44,"Duration":845833,"SoundDuration":845833,"Delta":712153577},{"NoteNumber":77,"Velocity":44,"Duration":845833,"SoundDuration":845833,"Delta":712153577},{"NoteNumber":80,"Velocity":44,"Duration":845833,"SoundDuration":845833,"Delta":712153577},{"NoteNumber":83,"Velocity":56,"Duration":845833,"SoundDuration":845833,"Delta":712153577},{"NoteNumber":50,"Velocity":35,"Duration":266666,"SoundDuration":266666,"Delta":712153577},{"NoteNumber":42,"Velocity":33,"Duration":266666,"SoundDuration":266666,"Delta":712420244},{"NoteNumber":50,"Velocity":31,"Duration":312499,"SoundDuration":312499,"Delta":712686911},{"NoteNumber":70,"Velocity":43,"Duration":3955043,"SoundDuration":3955043,"Delta":712999411},{"NoteNumber":73,"Velocity":43,"Duration":3955043,"SoundDuration":3955043,"Delta":712999411},{"NoteNumber":78,"Velocity":43,"Duration":3955043,"SoundDuration":3955043,"Delta":712999411},{"NoteNumber":82,"Velocity":54,"Duration":3955043,"SoundDuration":3955043,"Delta":712999411},{"NoteNumber":42,"Velocity":27,"Duration":263157,"SoundDuration":263157,"Delta":712999411},{"NoteNumber":49,"Velocity":20,"Duration":263157,"SoundDuration":263157,"Delta":713262568},{"NoteNumber":42,"Velocity":20,"Duration":263157,"SoundDuration":263157,"Delta":713525726},{"NoteNumber":54,"Velocity":27,"Duration":263157,"SoundDuration":263157,"Delta":713788884},{"NoteNumber":49,"Velocity":22,"Duration":263157,"SoundDuration":263157,"Delta":714052042},{"NoteNumber":54,"Velocity":22,"Duration":263157,"SoundDuration":263157,"Delta":714315200},{"NoteNumber":42,"Velocity":27,"Duration":263157,"SoundDuration":263157,"Delta":714578358},{"NoteNumber":49,"Velocity":23,"Duration":263157,"SoundDuration":263157,"Delta":714841515},{"NoteNumber":42,"Velocity":23,"Duration":263157,"SoundDuration":263157,"Delta":715104673},{"NoteNumber":54,"Velocity":27,"Duration":263157,"SoundDuration":263157,"Delta":715367831},{"NoteNumber":49,"Velocity":23,"Duration":263157,"SoundDuration":263157,"Delta":715630989},{"NoteNumber":54,"Velocity":23,"Duration":263157,"SoundDuration":263157,"Delta":715894147},{"NoteNumber":49,"Velocity":27,"Duration":263157,"SoundDuration":263157,"Delta":716157305},{"NoteNumber":42,"Velocity":21,"Duration":263157,"SoundDuration":263157,"Delta":716420462},{"NoteNumber":49,"Velocity":21,"Duration":277777,"SoundDuration":277777,"Delta":716683620},{"NoteNumber":70,"Velocity":42,"Duration":2419778,"SoundDuration":2419778,"Delta":716961398},{"NoteNumber":73,"Velocity":42,"Duration":2419778,"SoundDuration":2419778,"Delta":716961398},{"NoteNumber":78,"Velocity":42,"Duration":2419778,"SoundDuration":2419778,"Delta":716961398},{"NoteNumber":82,"Velocity":53,"Duration":2419778,"SoundDuration":2419778,"Delta":716961398},{"NoteNumber":54,"Velocity":27,"Duration":263157,"SoundDuration":263157,"Delta":716961398},{"NoteNumber":49,"Velocity":22,"Duration":263157,"SoundDuration":263157,"Delta":717224556},{"NoteNumber":54,"Velocity":22,"Duration":263157,"SoundDuration":263157,"Delta":717487714},{"NoteNumber":37,"Velocity":27,"Duration":263157,"SoundDuration":263157,"Delta":717750872},{"NoteNumber":42,"Velocity":23,"Duration":263157,"SoundDuration":263157,"Delta":718014029},{"NoteNumber":37,"Velocity":23,"Duration":263157,"SoundDuration":263157,"Delta":718277187},{"NoteNumber":49,"Velocity":27,"Duration":263157,"SoundDuration":263157,"Delta":718540345},{"NoteNumber":42,"Velocity":23,"Duration":263157,"SoundDuration":263157,"Delta":718803503},{"NoteNumber":49,"Velocity":23,"Duration":322580,"SoundDuration":322580,"Delta":719066661},{"NoteNumber":90,"Velocity":50,"Duration":2361841,"SoundDuration":2361841,"Delta":719389241},{"NoteNumber":82,"Velocity":40,"Duration":2361841,"SoundDuration":2361841,"Delta":719389241},{"NoteNumber":78,"Velocity":40,"Duration":2361841,"SoundDuration":2361841,"Delta":719389241},{"NoteNumber":37,"Velocity":26,"Duration":263157,"SoundDuration":263157,"Delta":719389241},{"NoteNumber":42,"Velocity":22,"Duration":263157,"SoundDuration":263157,"Delta":719652399},{"NoteNumber":37,"Velocity":22,"Duration":263157,"SoundDuration":263157,"Delta":719915557},{"NoteNumber":49,"Velocity":27,"Duration":263157,"SoundDuration":263157,"Delta":720178715},{"NoteNumber":42,"Velocity":23,"Duration":263157,"SoundDuration":263157,"Delta":720441873},{"NoteNumber":49,"Velocity":23,"Duration":263157,"SoundDuration":263157,"Delta":720705031},{"NoteNumber":37,"Velocity":27,"Duration":263157,"SoundDuration":263157,"Delta":720968188},{"NoteNumber":42,"Velocity":23,"Duration":263157,"SoundDuration":263157,"Delta":721231346},{"NoteNumber":37,"Velocity":23,"Duration":263157,"SoundDuration":263157,"Delta":721494504},{"NoteNumber":78,"Velocity":36,"Duration":1594268,"SoundDuration":1594268,"Delta":721757662},{"NoteNumber":82,"Velocity":36,"Duration":1594268,"SoundDuration":1594268,"Delta":721757662},{"NoteNumber":90,"Velocity":46,"Duration":1594268,"SoundDuration":1594268,"Delta":721757662},{"NoteNumber":49,"Velocity":27,"Duration":263157,"SoundDuration":263157,"Delta":721757662},{"NoteNumber":42,"Velocity":24,"Duration":263157,"SoundDuration":263157,"Delta":722020820},{"NoteNumber":49,"Velocity":24,"Duration":263157,"SoundDuration":263157,"Delta":722283978},{"NoteNumber":42,"Velocity":27,"Duration":273972,"SoundDuration":273972,"Delta":722547135},{"NoteNumber":37,"Velocity":23,"Duration":273972,"SoundDuration":273972,"Delta":722821108},{"NoteNumber":42,"Velocity":23,"Duration":273972,"SoundDuration":273972,"Delta":723095081},{"NoteNumber":94,"Velocity":44,"Duration":3396429,"SoundDuration":3396429,"Delta":723369053},{"NoteNumber":85,"Velocity":35,"Duration":3396429,"SoundDuration":3396429,"Delta":723369053},{"NoteNumber":82,"Velocity":35,"Duration":3396429,"SoundDuration":3396429,"Delta":723369053},{"NoteNumber":30,"Velocity":27,"Duration":285714,"SoundDuration":285714,"Delta":723369053},{"NoteNumber":37,"Velocity":23,"Duration":285714,"SoundDuration":285714,"Delta":723654768},{"NoteNumber":30,"Velocity":23,"Duration":285714,"SoundDuration":285714,"Delta":723940482},{"NoteNumber":42,"Velocity":27,"Duration":285714,"SoundDuration":285714,"Delta":724226196},{"NoteNumber":37,"Velocity":24,"Duration":285714,"SoundDuration":285714,"Delta":724511911},{"NoteNumber":42,"Velocity":24,"Duration":285714,"SoundDuration":285714,"Delta":724797625},{"NoteNumber":30,"Velocity":27,"Duration":285714,"SoundDuration":285714,"Delta":725083339},{"NoteNumber":37,"Velocity":24,"Duration":285714,"SoundDuration":285714,"Delta":725369054},{"NoteNumber":30,"Velocity":24,"Duration":285714,"SoundDuration":285714,"Delta":725654768},{"NoteNumber":42,"Velocity":27,"Duration":285714,"SoundDuration":285714,"Delta":725940482},{"NoteNumber":37,"Velocity":23,"Duration":285714,"SoundDuration":285714,"Delta":726226197},{"NoteNumber":42,"Velocity":23,"Duration":285714,"SoundDuration":285714,"Delta":726511911},{"NoteNumber":73,"Velocity":35,"Duration":857142,"SoundDuration":857142,"Delta":726797625},{"NoteNumber":37,"Velocity":27,"Duration":285714,"SoundDuration":285714,"Delta":726797625},{"NoteNumber":42,"Velocity":24,"Duration":285714,"SoundDuration":285714,"Delta":727083340},{"NoteNumber":37,"Velocity":24,"Duration":285714,"SoundDuration":285714,"Delta":727369054},{"NoteNumber":73,"Velocity":38,"Duration":1518987,"SoundDuration":1518987,"Delta":727654768},{"NoteNumber":49,"Velocity":30,"Duration":759493,"SoundDuration":759493,"Delta":727654768},{"NoteNumber":61,"Velocity":26,"Duration":759493,"SoundDuration":759493,"Delta":728414262},{"NoteNumber":69,"Velocity":33,"Duration":804054,"SoundDuration":804054,"Delta":729173755},{"NoteNumber":57,"Velocity":26,"Duration":804054,"SoundDuration":804054,"Delta":729173755},{"NoteNumber":69,"Velocity":37,"Duration":779221,"SoundDuration":779221,"Delta":729984566},{"NoteNumber":57,"Velocity":28,"Duration":779221,"SoundDuration":779221,"Delta":729984566},{"NoteNumber":66,"Velocity":32,"Duration":740740,"SoundDuration":740740,"Delta":730763787},{"NoteNumber":54,"Velocity":24,"Duration":740740,"SoundDuration":740740,"Delta":730763787},{"NoteNumber":65,"Velocity":27,"Duration":789473,"SoundDuration":789473,"Delta":731504528},{"NoteNumber":68,"Velocity":32,"Duration":789473,"SoundDuration":789473,"Delta":731504528},{"NoteNumber":61,"Velocity":27,"Duration":789473,"SoundDuration":789473,"Delta":731504528},{"NoteNumber":53,"Velocity":20,"Duration":789473,"SoundDuration":789473,"Delta":731504528},{"NoteNumber":49,"Velocity":20,"Duration":789473,"SoundDuration":789473,"Delta":731504528},{"NoteNumber":56,"Velocity":24,"Duration":789473,"SoundDuration":789473,"Delta":731504528},{"NoteNumber":66,"Velocity":33,"Duration":1518987,"SoundDuration":1518987,"Delta":732294001},{"NoteNumber":69,"Velocity":40,"Duration":1518987,"SoundDuration":1518987,"Delta":732294001},{"NoteNumber":61,"Velocity":33,"Duration":1518987,"SoundDuration":1518987,"Delta":732294001},{"NoteNumber":57,"Velocity":33,"Duration":759493,"SoundDuration":759493,"Delta":732294001},{"NoteNumber":54,"Velocity":27,"Duration":759493,"SoundDuration":759493,"Delta":732294001},{"NoteNumber":42,"Velocity":28,"Duration":2278480,"SoundDuration":2278480,"Delta":733053495},{"NoteNumber":54,"Velocity":32,"Duration":2278480,"SoundDuration":2278480,"Delta":733053495},{"NoteNumber":58,"Velocity":29,"Duration":759493,"SoundDuration":759493,"Delta":733812988},{"NoteNumber":61,"Velocity":29,"Duration":759493,"SoundDuration":759493,"Delta":733812988},{"NoteNumber":66,"Velocity":29,"Duration":759493,"SoundDuration":759493,"Delta":733812988},{"NoteNumber":70,"Velocity":37,"Duration":759493,"SoundDuration":759493,"Delta":733812988},{"NoteNumber":62,"Velocity":36,"Duration":1509493,"SoundDuration":1509493,"Delta":734572482},{"NoteNumber":59,"Velocity":36,"Duration":1509493,"SoundDuration":1509493,"Delta":734572482},{"NoteNumber":71,"Velocity":46,"Duration":1509493,"SoundDuration":1509493,"Delta":734572482},{"NoteNumber":66,"Velocity":36,"Duration":1509493,"SoundDuration":1509493,"Delta":734572482},{"NoteNumber":35,"Velocity":28,"Duration":750000,"SoundDuration":750000,"Delta":735331975},{"NoteNumber":47,"Velocity":34,"Duration":750000,"SoundDuration":750000,"Delta":735331975},{"NoteNumber":70,"Velocity":39,"Duration":810810,"SoundDuration":810810,"Delta":736081975},{"NoteNumber":66,"Velocity":39,"Duration":810810,"SoundDuration":810810,"Delta":736081975},{"NoteNumber":61,"Velocity":39,"Duration":810810,"SoundDuration":810810,"Delta":736081975},{"NoteNumber":73,"Velocity":49,"Duration":810810,"SoundDuration":810810,"Delta":736081975},{"NoteNumber":30,"Velocity":32,"Duration":810810,"SoundDuration":810810,"Delta":736081975},{"NoteNumber":42,"Velocity":39,"Duration":810810,"SoundDuration":810810,"Delta":736081975},{"NoteNumber":71,"Velocity":44,"Duration":901515,"SoundDuration":901515,"Delta":736892786},{"NoteNumber":62,"Velocity":44,"Duration":901515,"SoundDuration":901515,"Delta":736892786},{"NoteNumber":74,"Velocity":56,"Duration":901515,"SoundDuration":901515,"Delta":736892786},{"NoteNumber":66,"Velocity":44,"Duration":901515,"SoundDuration":901515,"Delta":736892786},{"NoteNumber":35,"Velocity":42,"Duration":909090,"SoundDuration":909090,"Delta":736892786},{"NoteNumber":71,"Velocity":28,"Duration":1604730,"SoundDuration":1604730,"Delta":737801877},{"NoteNumber":68,"Velocity":28,"Duration":1604730,"SoundDuration":1604730,"Delta":737801877},{"NoteNumber":74,"Velocity":35,"Duration":1604730,"SoundDuration":1604730,"Delta":737801877},{"NoteNumber":62,"Velocity":28,"Duration":1604730,"SoundDuration":1604730,"Delta":737801877},{"NoteNumber":29,"Velocity":28,"Duration":1604730,"SoundDuration":1604730,"Delta":737801877},{"NoteNumber":41,"Velocity":34,"Duration":1604730,"SoundDuration":1604730,"Delta":737801877},{"NoteNumber":71,"Velocity":33,"Duration":1583837,"SoundDuration":1583837,"Delta":739423499},{"NoteNumber":68,"Velocity":33,"Duration":1583837,"SoundDuration":1583837,"Delta":739423499},{"NoteNumber":74,"Velocity":42,"Duration":1583837,"SoundDuration":1583837,"Delta":739423499},{"NoteNumber":62,"Velocity":33,"Duration":1583837,"SoundDuration":1583837,"Delta":739423499},{"NoteNumber":29,"Velocity":28,"Duration":1583837,"SoundDuration":1583837,"Delta":739423499},{"NoteNumber":41,"Velocity":34,"Duration":1583837,"SoundDuration":1583837,"Delta":739423499},{"NoteNumber":62,"Velocity":25,"Duration":416666,"SoundDuration":416666,"Delta":741023784},{"NoteNumber":68,"Velocity":25,"Duration":416666,"SoundDuration":416666,"Delta":741023784},{"NoteNumber":71,"Velocity":25,"Duration":416666,"SoundDuration":416666,"Delta":741023784},{"NoteNumber":74,"Velocity":32,"Duration":416666,"SoundDuration":416666,"Delta":741023784},{"NoteNumber":41,"Velocity":30,"Duration":416666,"SoundDuration":416666,"Delta":741023784},{"NoteNumber":29,"Velocity":25,"Duration":416666,"SoundDuration":416666,"Delta":741023784},{"NoteNumber":70,"Velocity":25,"Duration":406250,"SoundDuration":406250,"Delta":741440451},{"NoteNumber":61,"Velocity":25,"Duration":406250,"SoundDuration":406250,"Delta":741440451},{"NoteNumber":73,"Velocity":32,"Duration":406250,"SoundDuration":406250,"Delta":741440451},{"NoteNumber":30,"Velocity":26,"Duration":406250,"SoundDuration":406250,"Delta":741440451},{"NoteNumber":42,"Velocity":31,"Duration":406250,"SoundDuration":406250,"Delta":741440451},{"NoteNumber":61,"Velocity":33,"Duration":5000000,"SoundDuration":5000000,"Delta":741857117},{"NoteNumber":70,"Velocity":33,"Duration":5000000,"SoundDuration":5000000,"Delta":741857117},{"NoteNumber":73,"Velocity":39,"Duration":5000000,"SoundDuration":5000000,"Delta":741857117},{"NoteNumber":30,"Velocity":28,"Duration":2500000,"SoundDuration":2500000,"Delta":741857117},{"NoteNumber":42,"Velocity":34,"Duration":2500000,"SoundDuration":2500000,"Delta":741857117},{"NoteNumber":42,"Velocity":24,"Duration":5000000,"SoundDuration":5000000,"Delta":744357118},{"NoteNumber":49,"Velocity":24,"Duration":5000000,"SoundDuration":5000000,"Delta":744357118},{"NoteNumber":58,"Velocity":29,"Duration":5000000,"SoundDuration":5000000,"Delta":744357118},{"NoteNumber":70,"Velocity":28,"Duration":4993056,"SoundDuration":4993056,"Delta":746857118},{"NoteNumber":78,"Velocity":28,"Duration":4993056,"SoundDuration":4993056,"Delta":746857118},{"NoteNumber":85,"Velocity":33,"Duration":4993056,"SoundDuration":4993056,"Delta":746857118},{"NoteNumber":30,"Velocity":19,"Duration":5000000,"SoundDuration":5000000,"Delta":749357119},{"NoteNumber":37,"Velocity":19,"Duration":5000000,"SoundDuration":5000000,"Delta":749357119},{"NoteNumber":46,"Velocity":23,"Duration":5000000,"SoundDuration":5000000,"Delta":749357119},{"NoteNumber":70,"Velocity":28,"Duration":2500000,"SoundDuration":2500000,"Delta":751857119},{"NoteNumber":78,"Velocity":28,"Duration":2500000,"SoundDuration":2500000,"Delta":751857119},{"NoteNumber":85,"Velocity":33,"Duration":2500000,"SoundDuration":2500000,"Delta":751857119},{"NoteNumber":58,"Velocity":28,"Duration":2495965,"SoundDuration":2495965,"Delta":754357120},{"NoteNumber":66,"Velocity":28,"Duration":2495965,"SoundDuration":2495965,"Delta":754357120},{"NoteNumber":73,"Velocity":33,"Duration":2495965,"SoundDuration":2495965,"Delta":754357120},{"NoteNumber":30,"Velocity":19,"Duration":2495965,"SoundDuration":2495965,"Delta":754357120},{"NoteNumber":37,"Velocity":19,"Duration":2495965,"SoundDuration":2495965,"Delta":754357120},{"NoteNumber":46,"Velocity":23,"Duration":2495965,"SoundDuration":2495965,"Delta":754357120},{"NoteNumber":30,"Velocity":16,"Duration":3433585,"SoundDuration":3433585,"Delta":756853085},{"NoteNumber":37,"Velocity":18,"Duration":3224130,"SoundDuration":3224130,"Delta":757062541},{"NoteNumber":46,"Velocity":20,"Duration":3002280,"SoundDuration":3002280,"Delta":757284391},{"NoteNumber":58,"Velocity":24,"Duration":2766475,"SoundDuration":2766475,"Delta":757520196},{"NoteNumber":66,"Velocity":24,"Duration":2519288,"SoundDuration":2519288,"Delta":757767382},{"NoteNumber":73,"Velocity":33,"Duration":2185714,"SoundDuration":2185714,"Delta":758100957}],"license":{"name":"Creative Commons Attribution-ShareAlike 3.0 Germany","url":"http://creativecommons.org/licenses/by-sa/3.0/de/deed.en","text":"The MIDI files in this folder were downloaded from http://www.piano-midi.de and are licensed under the Creative Commons Attribution-ShareAlike 3.0 Germany license by Bernd Krueger.\n\nThe MIDI, audio(MP3, OGG) and video files of Bernd Krueger are licensed under the cc-by-sa Germany License . This means, that you can use and adapt the files, as long as you attribute to the copyright holder Name: Bernd Krueger Source: http://www.piano-midi.de The distribution or public playback of the files is only allowed under identical license conditions . The scores are open source.","attribution":"Bernd Krueger","attributionUrl":"http://www.piano-midi.de"}}